{
  "track_name": "07 - Music No. 3",
  "duration_sec": 139.89,
  "sample_rate": 44100,
  "note_count": 1955,
  "unique_pitches": 54,
  "pitch_range": 79,
  "avg_note_duration": 0.2844,
  "reconstruction_stats": {
    "notes_reconstructed": 1955,
    "keyon_events": 1955,
    "keyoff_events": 1954,
    "orphan_keyons": 1,
    "unique_pitches": 54,
    "pitch_range": 79,
    "avg_duration_sec": 0.2844
  },
  "metadata": {
    "source": "D\\Devil's Course\\07 - Music No. 3.vgm"
  },
  "notes": [
    {
      "channel": 0,
      "note": 51,
      "start": 0.0,
      "duration": 0.4581,
      "velocity": 92,
      "chip": "ym2612"
    },
    {
      "channel": 1,
      "note": 27,
      "start": 0.0054,
      "duration": 0.0291,
      "velocity": 125,
      "chip": "ym2612"
    },
    {
      "channel": 2,
      "note": 84,
      "start": 0.0103,
      "duration": 0.337,
      "velocity": 94,
      "chip": "ym2612"
    },
    {
      "channel": 4,
      "note": 79,
      "start": 0.016,
      "duration": 0.5024,
      "velocity": 94,
      "chip": "ym2612"
    },
    {
      "channel": 5,
      "note": 82,
      "start": 0.0208,
      "duration": 2.5083,
      "velocity": 81,
      "chip": "ym2612"
    },
    {
      "channel": 1,
      "note": 48,
      "start": 0.3468,
      "duration": 0.0247,
      "velocity": 124,
      "chip": "ym2612"
    },
    {
      "channel": 2,
      "note": 87,
      "start": 0.3476,
      "duration": 0.1699,
      "velocity": 94,
      "chip": "ym2612"
    },
    {
      "channel": 0,
      "note": 58,
      "start": 0.517,
      "duration": 0.4419,
      "velocity": 92,
      "chip": "ym2612"
    },
    {
      "channel": 2,
      "note": 82,
      "start": 0.5179,
      "duration": 0.3353,
      "velocity": 94,
      "chip": "ym2612"
    },
    {
      "channel": 4,
      "note": 77,
      "start": 0.5189,
      "duration": 0.6729,
      "velocity": 94,
      "chip": "ym2612"
    },
    {
      "channel": 1,
      "note": 51,
      "start": 0.6841,
      "duration": 0.0245,
      "velocity": 127,
      "chip": "ym2612"
    },
    {
      "channel": 2,
      "note": 87,
      "start": 0.8535,
      "duration": 0.3374,
      "velocity": 94,
      "chip": "ym2612"
    },
    {
      "channel": 0,
      "note": 63,
      "start": 1.0171,
      "duration": 0.7604,
      "velocity": 92,
      "chip": "ym2612"
    },
    {
      "channel": 1,
      "note": 43,
      "start": 1.0217,
      "duration": 0.0239,
      "velocity": 124,
      "chip": "ym2612"
    },
    {
      "channel": 1,
      "note": 39,
      "start": 1.1905,
      "duration": 0.0286,
      "velocity": 124,
      "chip": "ym2612"
    },
    {
      "channel": 2,
      "note": 84,
      "start": 1.1913,
      "duration": 0.336,
      "velocity": 94,
      "chip": "ym2612"
    },
    {
      "channel": 4,
      "note": 79,
      "start": 1.1922,
      "duration": 0.6641,
      "velocity": 94,
      "chip": "ym2612"
    },
    {
      "channel": 1,
      "note": 51,
      "start": 1.3582,
      "duration": 0.0246,
      "velocity": 127,
      "chip": "ym2612"
    },
    {
      "channel": 2,
      "note": 87,
      "start": 1.5277,
      "duration": 0.3278,
      "velocity": 94,
      "chip": "ym2612"
    },
    {
      "channel": 1,
      "note": 48,
      "start": 1.6951,
      "duration": 0.0247,
      "velocity": 124,
      "chip": "ym2612"
    },
    {
      "channel": 0,
      "note": 58,
      "start": 1.8549,
      "duration": 0.4522,
      "velocity": 92,
      "chip": "ym2612"
    },
    {
      "channel": 2,
      "note": 82,
      "start": 1.8558,
      "duration": 0.1769,
      "velocity": 94,
      "chip": "ym2612"
    },
    {
      "channel": 4,
      "note": 77,
      "start": 1.8567,
      "duration": 0.1769,
      "velocity": 94,
      "chip": "ym2612"
    },
    {
      "channel": 1,
      "note": 51,
      "start": 2.0323,
      "duration": 0.0245,
      "velocity": 127,
      "chip": "ym2612"
    },
    {
      "channel": 2,
      "note": 82,
      "start": 2.0331,
      "duration": 0.3329,
      "velocity": 94,
      "chip": "ym2612"
    },
    {
      "channel": 4,
      "note": 77,
      "start": 2.034,
      "duration": 0.6746,
      "velocity": 94,
      "chip": "ym2612"
    },
    {
      "channel": 1,
      "note": 39,
      "start": 2.1958,
      "duration": 0.0536,
      "velocity": 124,
      "chip": "ym2612"
    },
    {
      "channel": 0,
      "note": 51,
      "start": 2.3655,
      "duration": 0.7506,
      "velocity": 92,
      "chip": "ym2612"
    },
    {
      "channel": 2,
      "note": 87,
      "start": 2.3664,
      "duration": 0.3412,
      "velocity": 94,
      "chip": "ym2612"
    },
    {
      "channel": 1,
      "note": 27,
      "start": 2.7072,
      "duration": 0.0238,
      "velocity": 125,
      "chip": "ym2612"
    },
    {
      "channel": 2,
      "note": 84,
      "start": 2.708,
      "duration": 0.3358,
      "velocity": 94,
      "chip": "ym2612"
    },
    {
      "channel": 4,
      "note": 79,
      "start": 2.7089,
      "duration": 0.4957,
      "velocity": 94,
      "chip": "ym2612"
    },
    {
      "channel": 5,
      "note": 80,
      "start": 2.7098,
      "duration": 2.5159,
      "velocity": 81,
      "chip": "ym2612"
    },
    {
      "channel": 1,
      "note": 48,
      "start": 3.0434,
      "duration": 0.0247,
      "velocity": 124,
      "chip": "ym2612"
    },
    {
      "channel": 2,
      "note": 87,
      "start": 3.0442,
      "duration": 0.1597,
      "velocity": 94,
      "chip": "ym2612"
    },
    {
      "channel": 0,
      "note": 56,
      "start": 3.2033,
      "duration": 0.4521,
      "velocity": 92,
      "chip": "ym2612"
    },
    {
      "channel": 2,
      "note": 82,
      "start": 3.2041,
      "duration": 0.336,
      "velocity": 94,
      "chip": "ym2612"
    },
    {
      "channel": 4,
      "note": 77,
      "start": 3.2051,
      "duration": 0.6737,
      "velocity": 94,
      "chip": "ym2612"
    },
    {
      "channel": 1,
      "note": 51,
      "start": 3.3806,
      "duration": 0.0149,
      "velocity": 127,
      "chip": "ym2612"
    },
    {
      "channel": 2,
      "note": 87,
      "start": 3.5405,
      "duration": 0.3374,
      "velocity": 94,
      "chip": "ym2612"
    },
    {
      "channel": 0,
      "note": 63,
      "start": 3.704,
      "duration": 0.7604,
      "velocity": 92,
      "chip": "ym2612"
    },
    {
      "channel": 1,
      "note": 43,
      "start": 3.7085,
      "duration": 0.0241,
      "velocity": 124,
      "chip": "ym2612"
    },
    {
      "channel": 1,
      "note": 39,
      "start": 3.8774,
      "duration": 0.0285,
      "velocity": 124,
      "chip": "ym2612"
    },
    {
      "channel": 2,
      "note": 84,
      "start": 3.8783,
      "duration": 0.336,
      "velocity": 94,
      "chip": "ym2612"
    },
    {
      "channel": 4,
      "note": 79,
      "start": 3.8791,
      "duration": 0.6739,
      "velocity": 94,
      "chip": "ym2612"
    },
    {
      "channel": 1,
      "note": 51,
      "start": 4.0451,
      "duration": 0.0246,
      "velocity": 127,
      "chip": "ym2612"
    },
    {
      "channel": 2,
      "note": 87,
      "start": 4.2146,
      "duration": 0.3375,
      "velocity": 94,
      "chip": "ym2612"
    },
    {
      "channel": 1,
      "note": 48,
      "start": 4.382,
      "duration": 0.0247,
      "velocity": 124,
      "chip": "ym2612"
    },
    {
      "channel": 0,
      "note": 56,
      "start": 4.5515,
      "duration": 0.4425,
      "velocity": 92,
      "chip": "ym2612"
    },
    {
      "channel": 2,
      "note": 82,
      "start": 4.5525,
      "duration": 0.1673,
      "velocity": 94,
      "chip": "ym2612"
    },
    {
      "channel": 4,
      "note": 77,
      "start": 4.5534,
      "duration": 0.1673,
      "velocity": 94,
      "chip": "ym2612"
    },
    {
      "channel": 1,
      "note": 51,
      "start": 4.7194,
      "duration": 0.0244,
      "velocity": 127,
      "chip": "ym2612"
    },
    {
      "channel": 2,
      "note": 82,
      "start": 4.7202,
      "duration": 0.333,
      "velocity": 94,
      "chip": "ym2612"
    },
    {
      "channel": 4,
      "note": 77,
      "start": 4.7211,
      "duration": 0.6747,
      "velocity": 94,
      "chip": "ym2612"
    },
    {
      "channel": 1,
      "note": 39,
      "start": 4.8924,
      "duration": 0.044,
      "velocity": 124,
      "chip": "ym2612"
    },
    {
      "channel": 0,
      "note": 51,
      "start": 5.0526,
      "duration": 0.7601,
      "velocity": 92,
      "chip": "ym2612"
    },
    {
      "channel": 2,
      "note": 94,
      "start": 5.0535,
      "duration": 0.341,
      "velocity": 94,
      "chip": "ym2612"
    },
    {
      "channel": 1,
      "note": 27,
      "start": 5.3939,
      "duration": 0.024,
      "velocity": 125,
      "chip": "ym2612"
    },
    {
      "channel": 2,
      "note": 84,
      "start": 5.3949,
      "duration": 0.3359,
      "velocity": 94,
      "chip": "ym2612"
    },
    {
      "channel": 4,
      "note": 79,
      "start": 5.3962,
      "duration": 0.4955,
      "velocity": 94,
      "chip": "ym2612"
    },
    {
      "channel": 5,
      "note": 82,
      "start": 5.397,
      "duration": 2.5156,
      "velocity": 81,
      "chip": "ym2612"
    },
    {
      "channel": 1,
      "note": 48,
      "start": 5.7303,
      "duration": 0.0247,
      "velocity": 124,
      "chip": "ym2612"
    },
    {
      "channel": 2,
      "note": 87,
      "start": 5.7311,
      "duration": 0.1597,
      "velocity": 94,
      "chip": "ym2612"
    },
    {
      "channel": 0,
      "note": 58,
      "start": 5.8904,
      "duration": 0.452,
      "velocity": 92,
      "chip": "ym2612"
    },
    {
      "channel": 2,
      "note": 82,
      "start": 5.8912,
      "duration": 0.3358,
      "velocity": 94,
      "chip": "ym2612"
    },
    {
      "channel": 4,
      "note": 77,
      "start": 5.8921,
      "duration": 0.6736,
      "velocity": 94,
      "chip": "ym2612"
    },
    {
      "channel": 1,
      "note": 51,
      "start": 6.0675,
      "duration": 0.0245,
      "velocity": 127,
      "chip": "ym2612"
    },
    {
      "channel": 2,
      "note": 87,
      "start": 6.2274,
      "duration": 0.3374,
      "velocity": 94,
      "chip": "ym2612"
    },
    {
      "channel": 0,
      "note": 63,
      "start": 6.4006,
      "duration": 0.7507,
      "velocity": 92,
      "chip": "ym2612"
    },
    {
      "channel": 1,
      "note": 43,
      "start": 6.4052,
      "duration": 0.024,
      "velocity": 124,
      "chip": "ym2612"
    },
    {
      "channel": 1,
      "note": 39,
      "start": 6.5644,
      "duration": 0.0284,
      "velocity": 124,
      "chip": "ym2612"
    },
    {
      "channel": 2,
      "note": 84,
      "start": 6.5652,
      "duration": 0.336,
      "velocity": 94,
      "chip": "ym2612"
    },
    {
      "channel": 4,
      "note": 79,
      "start": 6.5661,
      "duration": 0.6737,
      "velocity": 94,
      "chip": "ym2612"
    },
    {
      "channel": 1,
      "note": 51,
      "start": 6.7417,
      "duration": 0.0245,
      "velocity": 127,
      "chip": "ym2612"
    },
    {
      "channel": 2,
      "note": 87,
      "start": 6.9015,
      "duration": 0.3373,
      "velocity": 94,
      "chip": "ym2612"
    },
    {
      "channel": 1,
      "note": 48,
      "start": 7.0786,
      "duration": 0.0151,
      "velocity": 124,
      "chip": "ym2612"
    },
    {
      "channel": 0,
      "note": 58,
      "start": 7.2384,
      "duration": 0.4522,
      "velocity": 92,
      "chip": "ym2612"
    },
    {
      "channel": 2,
      "note": 82,
      "start": 7.2393,
      "duration": 0.1675,
      "velocity": 94,
      "chip": "ym2612"
    },
    {
      "channel": 4,
      "note": 77,
      "start": 7.2402,
      "duration": 0.1674,
      "velocity": 94,
      "chip": "ym2612"
    },
    {
      "channel": 1,
      "note": 51,
      "start": 7.4063,
      "duration": 0.0244,
      "velocity": 127,
      "chip": "ym2612"
    },
    {
      "channel": 2,
      "note": 82,
      "start": 7.4071,
      "duration": 0.3327,
      "velocity": 94,
      "chip": "ym2612"
    },
    {
      "channel": 4,
      "note": 77,
      "start": 7.408,
      "duration": 0.6747,
      "velocity": 94,
      "chip": "ym2612"
    },
    {
      "channel": 1,
      "note": 39,
      "start": 7.5793,
      "duration": 0.0536,
      "velocity": 124,
      "chip": "ym2612"
    },
    {
      "channel": 0,
      "note": 51,
      "start": 7.7393,
      "duration": 0.7602,
      "velocity": 92,
      "chip": "ym2612"
    },
    {
      "channel": 2,
      "note": 87,
      "start": 7.7402,
      "duration": 0.3412,
      "velocity": 94,
      "chip": "ym2612"
    },
    {
      "channel": 1,
      "note": 27,
      "start": 8.0809,
      "duration": 0.024,
      "velocity": 125,
      "chip": "ym2612"
    },
    {
      "channel": 2,
      "note": 84,
      "start": 8.0817,
      "duration": 0.3322,
      "velocity": 94,
      "chip": "ym2612"
    },
    {
      "channel": 4,
      "note": 79,
      "start": 8.083,
      "duration": 0.506,
      "velocity": 94,
      "chip": "ym2612"
    },
    {
      "channel": 5,
      "note": 80,
      "start": 8.0838,
      "duration": 2.5167,
      "velocity": 81,
      "chip": "ym2612"
    },
    {
      "channel": 1,
      "note": 39,
      "start": 8.2536,
      "duration": 0.0246,
      "velocity": 124,
      "chip": "ym2612"
    },
    {
      "channel": 1,
      "note": 39,
      "start": 8.3268,
      "duration": 0.0284,
      "velocity": 124,
      "chip": "ym2612"
    },
    {
      "channel": 1,
      "note": 43,
      "start": 8.4134,
      "duration": 0.0284,
      "velocity": 124,
      "chip": "ym2612"
    },
    {
      "channel": 2,
      "note": 87,
      "start": 8.4143,
      "duration": 0.1739,
      "velocity": 94,
      "chip": "ym2612"
    },
    {
      "channel": 0,
      "note": 56,
      "start": 8.5868,
      "duration": 0.4425,
      "velocity": 92,
      "chip": "ym2612"
    },
    {
      "channel": 1,
      "note": 48,
      "start": 8.5877,
      "duration": 0.0276,
      "velocity": 124,
      "chip": "ym2612"
    },
    {
      "channel": 2,
      "note": 82,
      "start": 8.5885,
      "duration": 0.3395,
      "velocity": 94,
      "chip": "ym2612"
    },
    {
      "channel": 4,
      "note": 77,
      "start": 8.5893,
      "duration": 0.6635,
      "velocity": 94,
      "chip": "ym2612"
    },
    {
      "channel": 1,
      "note": 51,
      "start": 8.7546,
      "duration": 0.0244,
      "velocity": 127,
      "chip": "ym2612"
    },
    {
      "channel": 1,
      "note": 39,
      "start": 8.9276,
      "duration": 0.0151,
      "velocity": 124,
      "chip": "ym2612"
    },
    {
      "channel": 2,
      "note": 87,
      "start": 8.9283,
      "duration": 0.3235,
      "velocity": 94,
      "chip": "ym2612"
    },
    {
      "channel": 1,
      "note": 39,
      "start": 9.0009,
      "duration": 0.0286,
      "velocity": 124,
      "chip": "ym2612"
    },
    {
      "channel": 0,
      "note": 63,
      "start": 9.0875,
      "duration": 0.7604,
      "velocity": 92,
      "chip": "ym2612"
    },
    {
      "channel": 1,
      "note": 43,
      "start": 9.0883,
      "duration": 0.0277,
      "velocity": 124,
      "chip": "ym2612"
    },
    {
      "channel": 1,
      "note": 48,
      "start": 9.2514,
      "duration": 0.0284,
      "velocity": 124,
      "chip": "ym2612"
    },
    {
      "channel": 2,
      "note": 84,
      "start": 9.2524,
      "duration": 0.3402,
      "velocity": 94,
      "chip": "ym2612"
    },
    {
      "channel": 4,
      "note": 79,
      "start": 9.2532,
      "duration": 0.6742,
      "velocity": 94,
      "chip": "ym2612"
    },
    {
      "channel": 1,
      "note": 51,
      "start": 9.4287,
      "duration": 0.0245,
      "velocity": 127,
      "chip": "ym2612"
    },
    {
      "channel": 1,
      "note": 48,
      "start": 9.5922,
      "duration": 0.0246,
      "velocity": 124,
      "chip": "ym2612"
    },
    {
      "channel": 2,
      "note": 87,
      "start": 9.593,
      "duration": 0.3336,
      "velocity": 94,
      "chip": "ym2612"
    },
    {
      "channel": 1,
      "note": 43,
      "start": 9.7619,
      "duration": 0.0283,
      "velocity": 124,
      "chip": "ym2612"
    },
    {
      "channel": 0,
      "note": 56,
      "start": 9.9254,
      "duration": 0.4522,
      "velocity": 92,
      "chip": "ym2612"
    },
    {
      "channel": 1,
      "note": 39,
      "start": 9.9261,
      "duration": 0.0278,
      "velocity": 124,
      "chip": "ym2612"
    },
    {
      "channel": 2,
      "note": 82,
      "start": 9.9269,
      "duration": 0.1764,
      "velocity": 94,
      "chip": "ym2612"
    },
    {
      "channel": 4,
      "note": 77,
      "start": 9.9278,
      "duration": 0.1763,
      "velocity": 94,
      "chip": "ym2612"
    },
    {
      "channel": 1,
      "note": 51,
      "start": 10.1029,
      "duration": 0.0244,
      "velocity": 127,
      "chip": "ym2612"
    },
    {
      "channel": 2,
      "note": 82,
      "start": 10.1037,
      "duration": 0.3338,
      "velocity": 94,
      "chip": "ym2612"
    },
    {
      "channel": 4,
      "note": 77,
      "start": 10.1045,
      "duration": 0.6802,
      "velocity": 94,
      "chip": "ym2612"
    },
    {
      "channel": 1,
      "note": 48,
      "start": 10.2663,
      "duration": 0.0247,
      "velocity": 124,
      "chip": "ym2612"
    },
    {
      "channel": 0,
      "note": 51,
      "start": 10.436,
      "duration": 0.7601,
      "velocity": 92,
      "chip": "ym2612"
    },
    {
      "channel": 1,
      "note": 43,
      "start": 10.4369,
      "duration": 0.0274,
      "velocity": 124,
      "chip": "ym2612"
    },
    {
      "channel": 2,
      "note": 94,
      "start": 10.4378,
      "duration": 0.341,
      "velocity": 94,
      "chip": "ym2612"
    },
    {
      "channel": 3,
      "note": 70,
      "start": 10.4421,
      "duration": 0.158,
      "velocity": 99,
      "chip": "ym2612"
    },
    {
      "channel": 1,
      "note": 39,
      "start": 10.5996,
      "duration": 0.0285,
      "velocity": 124,
      "chip": "ym2612"
    },
    {
      "channel": 1,
      "note": 27,
      "start": 10.7777,
      "duration": 0.0237,
      "velocity": 125,
      "chip": "ym2612"
    },
    {
      "channel": 2,
      "note": 84,
      "start": 10.7829,
      "duration": 0.3313,
      "velocity": 94,
      "chip": "ym2612"
    },
    {
      "channel": 3,
      "note": 79,
      "start": 10.7837,
      "duration": 2.3499,
      "velocity": 99,
      "chip": "ym2612"
    },
    {
      "channel": 4,
      "note": 79,
      "start": 10.7892,
      "duration": 0.4965,
      "velocity": 94,
      "chip": "ym2612"
    },
    {
      "channel": 5,
      "note": 82,
      "start": 10.7906,
      "duration": 2.5055,
      "velocity": 81,
      "chip": "ym2612"
    },
    {
      "channel": 1,
      "note": 48,
      "start": 11.1138,
      "duration": 0.0247,
      "velocity": 124,
      "chip": "ym2612"
    },
    {
      "channel": 2,
      "note": 87,
      "start": 11.1146,
      "duration": 0.1701,
      "velocity": 94,
      "chip": "ym2612"
    },
    {
      "channel": 0,
      "note": 58,
      "start": 11.2842,
      "duration": 0.4416,
      "velocity": 92,
      "chip": "ym2612"
    },
    {
      "channel": 2,
      "note": 82,
      "start": 11.285,
      "duration": 0.3351,
      "velocity": 94,
      "chip": "ym2612"
    },
    {
      "channel": 4,
      "note": 77,
      "start": 11.2861,
      "duration": 0.6727,
      "velocity": 94,
      "chip": "ym2612"
    },
    {
      "channel": 1,
      "note": 51,
      "start": 11.451,
      "duration": 0.0246,
      "velocity": 127,
      "chip": "ym2612"
    },
    {
      "channel": 2,
      "note": 87,
      "start": 11.6205,
      "duration": 0.3374,
      "velocity": 94,
      "chip": "ym2612"
    },
    {
      "channel": 0,
      "note": 63,
      "start": 11.7841,
      "duration": 0.7604,
      "velocity": 92,
      "chip": "ym2612"
    },
    {
      "channel": 1,
      "note": 43,
      "start": 11.7886,
      "duration": 0.024,
      "velocity": 124,
      "chip": "ym2612"
    },
    {
      "channel": 1,
      "note": 39,
      "start": 11.9575,
      "duration": 0.0284,
      "velocity": 124,
      "chip": "ym2612"
    },
    {
      "channel": 2,
      "note": 84,
      "start": 11.9583,
      "duration": 0.336,
      "velocity": 94,
      "chip": "ym2612"
    },
    {
      "channel": 4,
      "note": 79,
      "start": 11.9592,
      "duration": 0.6737,
      "velocity": 94,
      "chip": "ym2612"
    },
    {
      "channel": 1,
      "note": 51,
      "start": 12.1251,
      "duration": 0.0246,
      "velocity": 127,
      "chip": "ym2612"
    },
    {
      "channel": 2,
      "note": 87,
      "start": 12.2946,
      "duration": 0.3374,
      "velocity": 94,
      "chip": "ym2612"
    },
    {
      "channel": 1,
      "note": 48,
      "start": 12.462,
      "duration": 0.0247,
      "velocity": 124,
      "chip": "ym2612"
    },
    {
      "channel": 0,
      "note": 58,
      "start": 12.6315,
      "duration": 0.4426,
      "velocity": 92,
      "chip": "ym2612"
    },
    {
      "channel": 2,
      "note": 82,
      "start": 12.6324,
      "duration": 0.1673,
      "velocity": 94,
      "chip": "ym2612"
    },
    {
      "channel": 4,
      "note": 77,
      "start": 12.6333,
      "duration": 0.1673,
      "velocity": 94,
      "chip": "ym2612"
    },
    {
      "channel": 1,
      "note": 51,
      "start": 12.7993,
      "duration": 0.0245,
      "velocity": 127,
      "chip": "ym2612"
    },
    {
      "channel": 2,
      "note": 82,
      "start": 12.8001,
      "duration": 0.3328,
      "velocity": 94,
      "chip": "ym2612"
    },
    {
      "channel": 4,
      "note": 77,
      "start": 12.801,
      "duration": 0.6753,
      "velocity": 94,
      "chip": "ym2612"
    },
    {
      "channel": 1,
      "note": 39,
      "start": 12.9628,
      "duration": 0.0536,
      "velocity": 124,
      "chip": "ym2612"
    },
    {
      "channel": 0,
      "note": 51,
      "start": 13.1324,
      "duration": 0.7506,
      "velocity": 92,
      "chip": "ym2612"
    },
    {
      "channel": 2,
      "note": 87,
      "start": 13.1333,
      "duration": 0.3412,
      "velocity": 94,
      "chip": "ym2612"
    },
    {
      "channel": 1,
      "note": 27,
      "start": 13.4741,
      "duration": 0.0239,
      "velocity": 125,
      "chip": "ym2612"
    },
    {
      "channel": 2,
      "note": 84,
      "start": 13.4748,
      "duration": 0.3359,
      "velocity": 94,
      "chip": "ym2612"
    },
    {
      "channel": 3,
      "note": 80,
      "start": 13.4757,
      "duration": 0.3017,
      "velocity": 99,
      "chip": "ym2612"
    },
    {
      "channel": 4,
      "note": 79,
      "start": 13.4767,
      "duration": 0.4957,
      "velocity": 94,
      "chip": "ym2612"
    },
    {
      "channel": 5,
      "note": 80,
      "start": 13.4774,
      "duration": 2.5159,
      "velocity": 81,
      "chip": "ym2612"
    },
    {
      "channel": 1,
      "note": 48,
      "start": 13.8103,
      "duration": 0.0247,
      "velocity": 124,
      "chip": "ym2612"
    },
    {
      "channel": 2,
      "note": 87,
      "start": 13.8112,
      "duration": 0.1596,
      "velocity": 94,
      "chip": "ym2612"
    },
    {
      "channel": 3,
      "note": 80,
      "start": 13.8119,
      "duration": 0.1597,
      "velocity": 99,
      "chip": "ym2612"
    },
    {
      "channel": 0,
      "note": 56,
      "start": 13.9702,
      "duration": 0.4521,
      "velocity": 92,
      "chip": "ym2612"
    },
    {
      "channel": 2,
      "note": 82,
      "start": 13.9712,
      "duration": 0.3359,
      "velocity": 94,
      "chip": "ym2612"
    },
    {
      "channel": 3,
      "note": 79,
      "start": 13.972,
      "duration": 0.1761,
      "velocity": 99,
      "chip": "ym2612"
    },
    {
      "channel": 4,
      "note": 77,
      "start": 13.9728,
      "duration": 0.6736,
      "velocity": 94,
      "chip": "ym2612"
    },
    {
      "channel": 1,
      "note": 51,
      "start": 14.1476,
      "duration": 0.0246,
      "velocity": 127,
      "chip": "ym2612"
    },
    {
      "channel": 2,
      "note": 87,
      "start": 14.3074,
      "duration": 0.3374,
      "velocity": 94,
      "chip": "ym2612"
    },
    {
      "channel": 3,
      "note": 79,
      "start": 14.3082,
      "duration": 0.1776,
      "velocity": 99,
      "chip": "ym2612"
    },
    {
      "channel": 0,
      "note": 63,
      "start": 14.4806,
      "duration": 0.7507,
      "velocity": 92,
      "chip": "ym2612"
    },
    {
      "channel": 1,
      "note": 43,
      "start": 14.4851,
      "duration": 0.0144,
      "velocity": 124,
      "chip": "ym2612"
    },
    {
      "channel": 1,
      "note": 39,
      "start": 14.6444,
      "duration": 0.0284,
      "velocity": 124,
      "chip": "ym2612"
    },
    {
      "channel": 2,
      "note": 84,
      "start": 14.6452,
      "duration": 0.336,
      "velocity": 94,
      "chip": "ym2612"
    },
    {
      "channel": 3,
      "note": 77,
      "start": 14.646,
      "duration": 0.5857,
      "velocity": 99,
      "chip": "ym2612"
    },
    {
      "channel": 4,
      "note": 79,
      "start": 14.6468,
      "duration": 0.6739,
      "velocity": 94,
      "chip": "ym2612"
    },
    {
      "channel": 1,
      "note": 51,
      "start": 14.812,
      "duration": 0.0246,
      "velocity": 127,
      "chip": "ym2612"
    },
    {
      "channel": 2,
      "note": 87,
      "start": 14.9816,
      "duration": 0.3375,
      "velocity": 94,
      "chip": "ym2612"
    },
    {
      "channel": 1,
      "note": 48,
      "start": 15.149,
      "duration": 0.0247,
      "velocity": 124,
      "chip": "ym2612"
    },
    {
      "channel": 0,
      "note": 56,
      "start": 15.3185,
      "duration": 0.4425,
      "velocity": 92,
      "chip": "ym2612"
    },
    {
      "channel": 2,
      "note": 82,
      "start": 15.3194,
      "duration": 0.1674,
      "velocity": 94,
      "chip": "ym2612"
    },
    {
      "channel": 3,
      "note": 75,
      "start": 15.3202,
      "duration": 0.1673,
      "velocity": 99,
      "chip": "ym2612"
    },
    {
      "channel": 4,
      "note": 77,
      "start": 15.321,
      "duration": 0.1673,
      "velocity": 94,
      "chip": "ym2612"
    },
    {
      "channel": 1,
      "note": 51,
      "start": 15.4863,
      "duration": 0.0244,
      "velocity": 127,
      "chip": "ym2612"
    },
    {
      "channel": 2,
      "note": 82,
      "start": 15.4871,
      "duration": 0.333,
      "velocity": 94,
      "chip": "ym2612"
    },
    {
      "channel": 3,
      "note": 77,
      "start": 15.4879,
      "duration": 0.3022,
      "velocity": 99,
      "chip": "ym2612"
    },
    {
      "channel": 4,
      "note": 77,
      "start": 15.4887,
      "duration": 0.6741,
      "velocity": 94,
      "chip": "ym2612"
    },
    {
      "channel": 1,
      "note": 39,
      "start": 15.6593,
      "duration": 0.0537,
      "velocity": 124,
      "chip": "ym2612"
    },
    {
      "channel": 0,
      "note": 51,
      "start": 15.8195,
      "duration": 0.7601,
      "velocity": 92,
      "chip": "ym2612"
    },
    {
      "channel": 2,
      "note": 94,
      "start": 15.8205,
      "duration": 0.341,
      "velocity": 94,
      "chip": "ym2612"
    },
    {
      "channel": 3,
      "note": 79,
      "start": 15.8213,
      "duration": 0.1712,
      "velocity": 99,
      "chip": "ym2612"
    },
    {
      "channel": 3,
      "note": 75,
      "start": 15.9929,
      "duration": 0.1693,
      "velocity": 99,
      "chip": "ym2612"
    },
    {
      "channel": 1,
      "note": 27,
      "start": 16.1608,
      "duration": 0.024,
      "velocity": 125,
      "chip": "ym2612"
    },
    {
      "channel": 2,
      "note": 84,
      "start": 16.1619,
      "duration": 0.3358,
      "velocity": 94,
      "chip": "ym2612"
    },
    {
      "channel": 4,
      "note": 79,
      "start": 16.1631,
      "duration": 0.4956,
      "velocity": 94,
      "chip": "ym2612"
    },
    {
      "channel": 5,
      "note": 82,
      "start": 16.1641,
      "duration": 2.5155,
      "velocity": 81,
      "chip": "ym2612"
    },
    {
      "channel": 3,
      "note": 70,
      "start": 16.33,
      "duration": 2.2049,
      "velocity": 99,
      "chip": "ym2612"
    },
    {
      "channel": 1,
      "note": 48,
      "start": 16.4973,
      "duration": 0.0246,
      "velocity": 124,
      "chip": "ym2612"
    },
    {
      "channel": 2,
      "note": 87,
      "start": 16.498,
      "duration": 0.1598,
      "velocity": 94,
      "chip": "ym2612"
    },
    {
      "channel": 0,
      "note": 58,
      "start": 16.6573,
      "duration": 0.452,
      "velocity": 92,
      "chip": "ym2612"
    },
    {
      "channel": 2,
      "note": 82,
      "start": 16.6582,
      "duration": 0.3358,
      "velocity": 94,
      "chip": "ym2612"
    },
    {
      "channel": 4,
      "note": 77,
      "start": 16.6591,
      "duration": 0.6736,
      "velocity": 94,
      "chip": "ym2612"
    },
    {
      "channel": 1,
      "note": 51,
      "start": 16.8345,
      "duration": 0.0245,
      "velocity": 127,
      "chip": "ym2612"
    },
    {
      "channel": 2,
      "note": 87,
      "start": 16.9944,
      "duration": 0.3374,
      "velocity": 94,
      "chip": "ym2612"
    },
    {
      "channel": 0,
      "note": 63,
      "start": 17.1675,
      "duration": 0.7507,
      "velocity": 92,
      "chip": "ym2612"
    },
    {
      "channel": 1,
      "note": 43,
      "start": 17.1722,
      "duration": 0.0239,
      "velocity": 124,
      "chip": "ym2612"
    },
    {
      "channel": 1,
      "note": 39,
      "start": 17.3313,
      "duration": 0.0285,
      "velocity": 124,
      "chip": "ym2612"
    },
    {
      "channel": 2,
      "note": 84,
      "start": 17.3322,
      "duration": 0.336,
      "velocity": 94,
      "chip": "ym2612"
    },
    {
      "channel": 4,
      "note": 79,
      "start": 17.333,
      "duration": 0.6737,
      "velocity": 94,
      "chip": "ym2612"
    },
    {
      "channel": 1,
      "note": 51,
      "start": 17.5086,
      "duration": 0.0246,
      "velocity": 127,
      "chip": "ym2612"
    },
    {
      "channel": 2,
      "note": 87,
      "start": 17.6685,
      "duration": 0.3374,
      "velocity": 94,
      "chip": "ym2612"
    },
    {
      "channel": 1,
      "note": 48,
      "start": 17.8455,
      "duration": 0.0247,
      "velocity": 124,
      "chip": "ym2612"
    },
    {
      "channel": 0,
      "note": 58,
      "start": 18.0054,
      "duration": 0.4522,
      "velocity": 92,
      "chip": "ym2612"
    },
    {
      "channel": 2,
      "note": 82,
      "start": 18.0063,
      "duration": 0.1769,
      "velocity": 94,
      "chip": "ym2612"
    },
    {
      "channel": 4,
      "note": 77,
      "start": 18.0071,
      "duration": 0.1769,
      "velocity": 94,
      "chip": "ym2612"
    },
    {
      "channel": 1,
      "note": 51,
      "start": 18.1828,
      "duration": 0.0149,
      "velocity": 127,
      "chip": "ym2612"
    },
    {
      "channel": 2,
      "note": 82,
      "start": 18.1836,
      "duration": 0.3232,
      "velocity": 94,
      "chip": "ym2612"
    },
    {
      "channel": 4,
      "note": 77,
      "start": 18.1844,
      "duration": 0.6651,
      "velocity": 94,
      "chip": "ym2612"
    },
    {
      "channel": 1,
      "note": 39,
      "start": 18.3463,
      "duration": 0.0536,
      "velocity": 124,
      "chip": "ym2612"
    },
    {
      "channel": 0,
      "note": 51,
      "start": 18.5063,
      "duration": 0.7603,
      "velocity": 92,
      "chip": "ym2612"
    },
    {
      "channel": 2,
      "note": 87,
      "start": 18.5071,
      "duration": 0.341,
      "velocity": 94,
      "chip": "ym2612"
    },
    {
      "channel": 1,
      "note": 27,
      "start": 18.8478,
      "duration": 0.024,
      "velocity": 125,
      "chip": "ym2612"
    },
    {
      "channel": 2,
      "note": 84,
      "start": 18.8486,
      "duration": 0.3361,
      "velocity": 94,
      "chip": "ym2612"
    },
    {
      "channel": 4,
      "note": 79,
      "start": 18.8498,
      "duration": 0.5053,
      "velocity": 94,
      "chip": "ym2612"
    },
    {
      "channel": 5,
      "note": 80,
      "start": 18.8507,
      "duration": 2.5161,
      "velocity": 81,
      "chip": "ym2612"
    },
    {
      "channel": 1,
      "note": 48,
      "start": 19.1842,
      "duration": 0.0247,
      "velocity": 124,
      "chip": "ym2612"
    },
    {
      "channel": 2,
      "note": 87,
      "start": 19.1849,
      "duration": 0.1693,
      "velocity": 94,
      "chip": "ym2612"
    },
    {
      "channel": 0,
      "note": 56,
      "start": 19.3538,
      "duration": 0.4424,
      "velocity": 92,
      "chip": "ym2612"
    },
    {
      "channel": 2,
      "note": 82,
      "start": 19.3546,
      "duration": 0.3359,
      "velocity": 94,
      "chip": "ym2612"
    },
    {
      "channel": 4,
      "note": 77,
      "start": 19.3555,
      "duration": 0.6737,
      "velocity": 94,
      "chip": "ym2612"
    },
    {
      "channel": 1,
      "note": 51,
      "start": 19.5216,
      "duration": 0.0244,
      "velocity": 127,
      "chip": "ym2612"
    },
    {
      "channel": 2,
      "note": 87,
      "start": 19.6909,
      "duration": 0.3375,
      "velocity": 94,
      "chip": "ym2612"
    },
    {
      "channel": 0,
      "note": 63,
      "start": 19.8544,
      "duration": 0.7604,
      "velocity": 92,
      "chip": "ym2612"
    },
    {
      "channel": 1,
      "note": 43,
      "start": 19.8589,
      "duration": 0.024,
      "velocity": 124,
      "chip": "ym2612"
    },
    {
      "channel": 1,
      "note": 39,
      "start": 20.0279,
      "duration": 0.0188,
      "velocity": 124,
      "chip": "ym2612"
    },
    {
      "channel": 2,
      "note": 84,
      "start": 20.0287,
      "duration": 0.3263,
      "velocity": 94,
      "chip": "ym2612"
    },
    {
      "channel": 4,
      "note": 79,
      "start": 20.0296,
      "duration": 0.6641,
      "velocity": 94,
      "chip": "ym2612"
    },
    {
      "channel": 1,
      "note": 51,
      "start": 20.1956,
      "duration": 0.0245,
      "velocity": 127,
      "chip": "ym2612"
    },
    {
      "channel": 2,
      "note": 87,
      "start": 20.3554,
      "duration": 0.3373,
      "velocity": 94,
      "chip": "ym2612"
    },
    {
      "channel": 1,
      "note": 48,
      "start": 20.5325,
      "duration": 0.0247,
      "velocity": 124,
      "chip": "ym2612"
    },
    {
      "channel": 0,
      "note": 56,
      "start": 20.6923,
      "duration": 0.4522,
      "velocity": 92,
      "chip": "ym2612"
    },
    {
      "channel": 2,
      "note": 82,
      "start": 20.6932,
      "duration": 0.1771,
      "velocity": 94,
      "chip": "ym2612"
    },
    {
      "channel": 4,
      "note": 77,
      "start": 20.694,
      "duration": 0.1771,
      "velocity": 94,
      "chip": "ym2612"
    },
    {
      "channel": 1,
      "note": 51,
      "start": 20.8698,
      "duration": 0.0244,
      "velocity": 127,
      "chip": "ym2612"
    },
    {
      "channel": 2,
      "note": 82,
      "start": 20.8706,
      "duration": 0.3329,
      "velocity": 94,
      "chip": "ym2612"
    },
    {
      "channel": 4,
      "note": 77,
      "start": 20.8715,
      "duration": 0.6751,
      "velocity": 94,
      "chip": "ym2612"
    },
    {
      "channel": 1,
      "note": 39,
      "start": 21.0332,
      "duration": 0.0536,
      "velocity": 124,
      "chip": "ym2612"
    },
    {
      "channel": 0,
      "note": 51,
      "start": 21.203,
      "duration": 0.7505,
      "velocity": 92,
      "chip": "ym2612"
    },
    {
      "channel": 2,
      "note": 94,
      "start": 21.204,
      "duration": 0.341,
      "velocity": 94,
      "chip": "ym2612"
    },
    {
      "channel": 3,
      "note": 70,
      "start": 21.2047,
      "duration": 0.1616,
      "velocity": 99,
      "chip": "ym2612"
    },
    {
      "channel": 1,
      "note": 27,
      "start": 21.5443,
      "duration": 0.024,
      "velocity": 125,
      "chip": "ym2612"
    },
    {
      "channel": 2,
      "note": 84,
      "start": 21.5453,
      "duration": 0.3358,
      "velocity": 94,
      "chip": "ym2612"
    },
    {
      "channel": 3,
      "note": 79,
      "start": 21.5461,
      "duration": 2.3449,
      "velocity": 99,
      "chip": "ym2612"
    },
    {
      "channel": 4,
      "note": 79,
      "start": 21.547,
      "duration": 0.4952,
      "velocity": 94,
      "chip": "ym2612"
    },
    {
      "channel": 5,
      "note": 82,
      "start": 21.5479,
      "duration": 2.5055,
      "velocity": 81,
      "chip": "ym2612"
    },
    {
      "channel": 1,
      "note": 48,
      "start": 21.8807,
      "duration": 0.015,
      "velocity": 124,
      "chip": "ym2612"
    },
    {
      "channel": 2,
      "note": 87,
      "start": 21.8815,
      "duration": 0.1599,
      "velocity": 94,
      "chip": "ym2612"
    },
    {
      "channel": 0,
      "note": 58,
      "start": 22.0409,
      "duration": 0.4519,
      "velocity": 92,
      "chip": "ym2612"
    },
    {
      "channel": 2,
      "note": 82,
      "start": 22.0417,
      "duration": 0.3357,
      "velocity": 94,
      "chip": "ym2612"
    },
    {
      "channel": 4,
      "note": 77,
      "start": 22.0426,
      "duration": 0.6735,
      "velocity": 94,
      "chip": "ym2612"
    },
    {
      "channel": 1,
      "note": 51,
      "start": 22.2084,
      "duration": 0.0245,
      "velocity": 127,
      "chip": "ym2612"
    },
    {
      "channel": 2,
      "note": 87,
      "start": 22.3778,
      "duration": 0.3374,
      "velocity": 94,
      "chip": "ym2612"
    },
    {
      "channel": 0,
      "note": 63,
      "start": 22.5414,
      "duration": 0.7604,
      "velocity": 92,
      "chip": "ym2612"
    },
    {
      "channel": 1,
      "note": 43,
      "start": 22.5459,
      "duration": 0.024,
      "velocity": 124,
      "chip": "ym2612"
    },
    {
      "channel": 1,
      "note": 39,
      "start": 22.7148,
      "duration": 0.0285,
      "velocity": 124,
      "chip": "ym2612"
    },
    {
      "channel": 2,
      "note": 84,
      "start": 22.7156,
      "duration": 0.336,
      "velocity": 94,
      "chip": "ym2612"
    },
    {
      "channel": 4,
      "note": 79,
      "start": 22.7165,
      "duration": 0.6737,
      "velocity": 94,
      "chip": "ym2612"
    },
    {
      "channel": 1,
      "note": 51,
      "start": 22.8825,
      "duration": 0.0246,
      "velocity": 127,
      "chip": "ym2612"
    },
    {
      "channel": 2,
      "note": 87,
      "start": 23.0521,
      "duration": 0.3372,
      "velocity": 94,
      "chip": "ym2612"
    },
    {
      "channel": 1,
      "note": 48,
      "start": 23.2195,
      "duration": 0.0245,
      "velocity": 124,
      "chip": "ym2612"
    },
    {
      "channel": 0,
      "note": 58,
      "start": 23.3888,
      "duration": 0.4426,
      "velocity": 92,
      "chip": "ym2612"
    },
    {
      "channel": 2,
      "note": 82,
      "start": 23.3897,
      "duration": 0.1674,
      "velocity": 94,
      "chip": "ym2612"
    },
    {
      "channel": 4,
      "note": 77,
      "start": 23.3906,
      "duration": 0.1674,
      "velocity": 94,
      "chip": "ym2612"
    },
    {
      "channel": 1,
      "note": 51,
      "start": 23.5568,
      "duration": 0.0244,
      "velocity": 127,
      "chip": "ym2612"
    },
    {
      "channel": 2,
      "note": 82,
      "start": 23.5575,
      "duration": 0.3328,
      "velocity": 94,
      "chip": "ym2612"
    },
    {
      "channel": 4,
      "note": 77,
      "start": 23.5584,
      "duration": 0.6751,
      "velocity": 94,
      "chip": "ym2612"
    },
    {
      "channel": 1,
      "note": 39,
      "start": 23.7297,
      "duration": 0.044,
      "velocity": 124,
      "chip": "ym2612"
    },
    {
      "channel": 0,
      "note": 51,
      "start": 23.8898,
      "duration": 0.7602,
      "velocity": 92,
      "chip": "ym2612"
    },
    {
      "channel": 2,
      "note": 87,
      "start": 23.8906,
      "duration": 0.341,
      "velocity": 94,
      "chip": "ym2612"
    },
    {
      "channel": 1,
      "note": 27,
      "start": 24.2313,
      "duration": 0.024,
      "velocity": 125,
      "chip": "ym2612"
    },
    {
      "channel": 2,
      "note": 84,
      "start": 24.232,
      "duration": 0.3361,
      "velocity": 94,
      "chip": "ym2612"
    },
    {
      "channel": 3,
      "note": 80,
      "start": 24.2329,
      "duration": 0.3018,
      "velocity": 99,
      "chip": "ym2612"
    },
    {
      "channel": 4,
      "note": 79,
      "start": 24.2338,
      "duration": 0.4959,
      "velocity": 94,
      "chip": "ym2612"
    },
    {
      "channel": 5,
      "note": 80,
      "start": 24.2346,
      "duration": 2.516,
      "velocity": 81,
      "chip": "ym2612"
    },
    {
      "channel": 1,
      "note": 48,
      "start": 24.5676,
      "duration": 0.0247,
      "velocity": 124,
      "chip": "ym2612"
    },
    {
      "channel": 2,
      "note": 87,
      "start": 24.5685,
      "duration": 0.1596,
      "velocity": 94,
      "chip": "ym2612"
    },
    {
      "channel": 3,
      "note": 80,
      "start": 24.5694,
      "duration": 0.1596,
      "velocity": 99,
      "chip": "ym2612"
    },
    {
      "channel": 0,
      "note": 56,
      "start": 24.7276,
      "duration": 0.452,
      "velocity": 92,
      "chip": "ym2612"
    },
    {
      "channel": 2,
      "note": 82,
      "start": 24.7285,
      "duration": 0.3359,
      "velocity": 94,
      "chip": "ym2612"
    },
    {
      "channel": 3,
      "note": 79,
      "start": 24.7293,
      "duration": 0.1761,
      "velocity": 99,
      "chip": "ym2612"
    },
    {
      "channel": 4,
      "note": 77,
      "start": 24.7301,
      "duration": 0.6738,
      "velocity": 94,
      "chip": "ym2612"
    },
    {
      "channel": 1,
      "note": 51,
      "start": 24.9051,
      "duration": 0.0244,
      "velocity": 127,
      "chip": "ym2612"
    },
    {
      "channel": 2,
      "note": 87,
      "start": 25.0647,
      "duration": 0.3376,
      "velocity": 94,
      "chip": "ym2612"
    },
    {
      "channel": 3,
      "note": 79,
      "start": 25.0656,
      "duration": 0.1773,
      "velocity": 99,
      "chip": "ym2612"
    },
    {
      "channel": 0,
      "note": 63,
      "start": 25.2379,
      "duration": 0.7507,
      "velocity": 92,
      "chip": "ym2612"
    },
    {
      "channel": 1,
      "note": 43,
      "start": 25.2424,
      "duration": 0.0241,
      "velocity": 124,
      "chip": "ym2612"
    },
    {
      "channel": 1,
      "note": 39,
      "start": 25.4017,
      "duration": 0.0284,
      "velocity": 124,
      "chip": "ym2612"
    },
    {
      "channel": 2,
      "note": 84,
      "start": 25.4027,
      "duration": 0.3358,
      "velocity": 94,
      "chip": "ym2612"
    },
    {
      "channel": 3,
      "note": 77,
      "start": 25.4035,
      "duration": 0.5856,
      "velocity": 99,
      "chip": "ym2612"
    },
    {
      "channel": 4,
      "note": 79,
      "start": 25.4043,
      "duration": 0.6735,
      "velocity": 94,
      "chip": "ym2612"
    },
    {
      "channel": 1,
      "note": 51,
      "start": 25.579,
      "duration": 0.0149,
      "velocity": 127,
      "chip": "ym2612"
    },
    {
      "channel": 2,
      "note": 87,
      "start": 25.7389,
      "duration": 0.3373,
      "velocity": 94,
      "chip": "ym2612"
    },
    {
      "channel": 1,
      "note": 48,
      "start": 25.9064,
      "duration": 0.0246,
      "velocity": 124,
      "chip": "ym2612"
    },
    {
      "channel": 0,
      "note": 56,
      "start": 26.0758,
      "duration": 0.4426,
      "velocity": 92,
      "chip": "ym2612"
    },
    {
      "channel": 2,
      "note": 82,
      "start": 26.0766,
      "duration": 0.1673,
      "velocity": 94,
      "chip": "ym2612"
    },
    {
      "channel": 3,
      "note": 75,
      "start": 26.0774,
      "duration": 0.1673,
      "velocity": 99,
      "chip": "ym2612"
    },
    {
      "channel": 4,
      "note": 77,
      "start": 26.0782,
      "duration": 0.1673,
      "velocity": 94,
      "chip": "ym2612"
    },
    {
      "channel": 1,
      "note": 51,
      "start": 26.2435,
      "duration": 0.0245,
      "velocity": 127,
      "chip": "ym2612"
    },
    {
      "channel": 2,
      "note": 82,
      "start": 26.2443,
      "duration": 0.333,
      "velocity": 94,
      "chip": "ym2612"
    },
    {
      "channel": 3,
      "note": 77,
      "start": 26.2451,
      "duration": 0.3024,
      "velocity": 99,
      "chip": "ym2612"
    },
    {
      "channel": 4,
      "note": 77,
      "start": 26.2459,
      "duration": 0.6751,
      "velocity": 94,
      "chip": "ym2612"
    },
    {
      "channel": 1,
      "note": 39,
      "start": 26.4166,
      "duration": 0.0537,
      "velocity": 124,
      "chip": "ym2612"
    },
    {
      "channel": 0,
      "note": 51,
      "start": 26.5767,
      "duration": 0.3076,
      "velocity": 92,
      "chip": "ym2612"
    },
    {
      "channel": 2,
      "note": 94,
      "start": 26.5776,
      "duration": 0.342,
      "velocity": 94,
      "chip": "ym2612"
    },
    {
      "channel": 3,
      "note": 79,
      "start": 26.5784,
      "duration": 0.1715,
      "velocity": 99,
      "chip": "ym2612"
    },
    {
      "channel": 3,
      "note": 75,
      "start": 26.7502,
      "duration": 0.1702,
      "velocity": 99,
      "chip": "ym2612"
    },
    {
      "channel": 0,
      "note": 48,
      "start": 26.9136,
      "duration": 0.4522,
      "velocity": 92,
      "chip": "ym2612"
    },
    {
      "channel": 1,
      "note": 27,
      "start": 26.919,
      "duration": 0.0232,
      "velocity": 125,
      "chip": "ym2612"
    },
    {
      "channel": 2,
      "note": 84,
      "start": 26.92,
      "duration": 0.3351,
      "velocity": 94,
      "chip": "ym2612"
    },
    {
      "channel": 4,
      "note": 79,
      "start": 26.9213,
      "duration": 0.5041,
      "velocity": 94,
      "chip": "ym2612"
    },
    {
      "channel": 5,
      "note": 79,
      "start": 26.9224,
      "duration": 2.5144,
      "velocity": 81,
      "chip": "ym2612"
    },
    {
      "channel": 3,
      "note": 72,
      "start": 27.0873,
      "duration": 2.2049,
      "velocity": 99,
      "chip": "ym2612"
    },
    {
      "channel": 1,
      "note": 48,
      "start": 27.2547,
      "duration": 0.0246,
      "velocity": 124,
      "chip": "ym2612"
    },
    {
      "channel": 2,
      "note": 87,
      "start": 27.2555,
      "duration": 0.169,
      "velocity": 94,
      "chip": "ym2612"
    },
    {
      "channel": 0,
      "note": 55,
      "start": 27.4241,
      "duration": 0.4425,
      "velocity": 92,
      "chip": "ym2612"
    },
    {
      "channel": 2,
      "note": 82,
      "start": 27.4249,
      "duration": 0.3264,
      "velocity": 94,
      "chip": "ym2612"
    },
    {
      "channel": 4,
      "note": 77,
      "start": 27.4258,
      "duration": 0.6642,
      "velocity": 94,
      "chip": "ym2612"
    },
    {
      "channel": 1,
      "note": 51,
      "start": 27.5918,
      "duration": 0.0245,
      "velocity": 127,
      "chip": "ym2612"
    },
    {
      "channel": 2,
      "note": 87,
      "start": 27.7517,
      "duration": 0.3374,
      "velocity": 94,
      "chip": "ym2612"
    },
    {
      "channel": 0,
      "note": 62,
      "start": 27.925,
      "duration": 0.7506,
      "velocity": 92,
      "chip": "ym2612"
    },
    {
      "channel": 1,
      "note": 43,
      "start": 27.9294,
      "duration": 0.024,
      "velocity": 124,
      "chip": "ym2612"
    },
    {
      "channel": 1,
      "note": 39,
      "start": 28.0886,
      "duration": 0.0285,
      "velocity": 124,
      "chip": "ym2612"
    },
    {
      "channel": 2,
      "note": 84,
      "start": 28.0895,
      "duration": 0.336,
      "velocity": 94,
      "chip": "ym2612"
    },
    {
      "channel": 4,
      "note": 79,
      "start": 28.0904,
      "duration": 0.6737,
      "velocity": 94,
      "chip": "ym2612"
    },
    {
      "channel": 1,
      "note": 51,
      "start": 28.2659,
      "duration": 0.0246,
      "velocity": 127,
      "chip": "ym2612"
    },
    {
      "channel": 2,
      "note": 87,
      "start": 28.4258,
      "duration": 0.3374,
      "velocity": 94,
      "chip": "ym2612"
    },
    {
      "channel": 1,
      "note": 48,
      "start": 28.603,
      "duration": 0.0246,
      "velocity": 124,
      "chip": "ym2612"
    },
    {
      "channel": 0,
      "note": 60,
      "start": 28.7627,
      "duration": 0.4522,
      "velocity": 92,
      "chip": "ym2612"
    },
    {
      "channel": 2,
      "note": 82,
      "start": 28.7636,
      "duration": 0.1771,
      "velocity": 94,
      "chip": "ym2612"
    },
    {
      "channel": 4,
      "note": 77,
      "start": 28.7645,
      "duration": 0.1771,
      "velocity": 94,
      "chip": "ym2612"
    },
    {
      "channel": 1,
      "note": 51,
      "start": 28.9402,
      "duration": 0.0244,
      "velocity": 127,
      "chip": "ym2612"
    },
    {
      "channel": 2,
      "note": 82,
      "start": 28.941,
      "duration": 0.3328,
      "velocity": 94,
      "chip": "ym2612"
    },
    {
      "channel": 4,
      "note": 77,
      "start": 28.9419,
      "duration": 0.6679,
      "velocity": 94,
      "chip": "ym2612"
    },
    {
      "channel": 1,
      "note": 39,
      "start": 29.1037,
      "duration": 0.0535,
      "velocity": 124,
      "chip": "ym2612"
    },
    {
      "channel": 0,
      "note": 55,
      "start": 29.2732,
      "duration": 0.3076,
      "velocity": 92,
      "chip": "ym2612"
    },
    {
      "channel": 2,
      "note": 87,
      "start": 29.2741,
      "duration": 0.3331,
      "velocity": 94,
      "chip": "ym2612"
    },
    {
      "channel": 0,
      "note": 56,
      "start": 29.6007,
      "duration": 0.4521,
      "velocity": 92,
      "chip": "ym2612"
    },
    {
      "channel": 1,
      "note": 27,
      "start": 29.606,
      "duration": 0.0231,
      "velocity": 125,
      "chip": "ym2612"
    },
    {
      "channel": 2,
      "note": 83,
      "start": 29.6075,
      "duration": 0.0796,
      "velocity": 94,
      "chip": "ym2612"
    },
    {
      "channel": 3,
      "note": 71,
      "start": 29.6084,
      "duration": 1.1783,
      "velocity": 99,
      "chip": "ym2612"
    },
    {
      "channel": 4,
      "note": 80,
      "start": 29.6102,
      "duration": 0.078,
      "velocity": 94,
      "chip": "ym2612"
    },
    {
      "channel": 5,
      "note": 83,
      "start": 29.6111,
      "duration": 1.2527,
      "velocity": 81,
      "chip": "ym2612"
    },
    {
      "channel": 2,
      "note": 83,
      "start": 29.6876,
      "duration": 0.0863,
      "velocity": 94,
      "chip": "ym2612"
    },
    {
      "channel": 4,
      "note": 80,
      "start": 29.6886,
      "duration": 0.0863,
      "velocity": 94,
      "chip": "ym2612"
    },
    {
      "channel": 2,
      "note": 83,
      "start": 29.7742,
      "duration": 0.0863,
      "velocity": 94,
      "chip": "ym2612"
    },
    {
      "channel": 4,
      "note": 80,
      "start": 29.7753,
      "duration": 0.0863,
      "velocity": 94,
      "chip": "ym2612"
    },
    {
      "channel": 2,
      "note": 83,
      "start": 29.8609,
      "duration": 0.0812,
      "velocity": 94,
      "chip": "ym2612"
    },
    {
      "channel": 4,
      "note": 80,
      "start": 29.8619,
      "duration": 0.0812,
      "velocity": 94,
      "chip": "ym2612"
    },
    {
      "channel": 1,
      "note": 48,
      "start": 29.9415,
      "duration": 0.0247,
      "velocity": 124,
      "chip": "ym2612"
    },
    {
      "channel": 2,
      "note": 83,
      "start": 29.9424,
      "duration": 0.0818,
      "velocity": 94,
      "chip": "ym2612"
    },
    {
      "channel": 4,
      "note": 80,
      "start": 29.9435,
      "duration": 0.0818,
      "velocity": 94,
      "chip": "ym2612"
    },
    {
      "channel": 2,
      "note": 83,
      "start": 30.0246,
      "duration": 0.087,
      "velocity": 94,
      "chip": "ym2612"
    },
    {
      "channel": 4,
      "note": 80,
      "start": 30.0257,
      "duration": 0.087,
      "velocity": 94,
      "chip": "ym2612"
    },
    {
      "channel": 0,
      "note": 59,
      "start": 30.111,
      "duration": 0.4425,
      "velocity": 92,
      "chip": "ym2612"
    },
    {
      "channel": 2,
      "note": 83,
      "start": 30.1119,
      "duration": 0.0857,
      "velocity": 94,
      "chip": "ym2612"
    },
    {
      "channel": 4,
      "note": 80,
      "start": 30.113,
      "duration": 0.0856,
      "velocity": 94,
      "chip": "ym2612"
    },
    {
      "channel": 2,
      "note": 83,
      "start": 30.198,
      "duration": 0.0816,
      "velocity": 94,
      "chip": "ym2612"
    },
    {
      "channel": 4,
      "note": 80,
      "start": 30.199,
      "duration": 0.0818,
      "velocity": 94,
      "chip": "ym2612"
    },
    {
      "channel": 1,
      "note": 51,
      "start": 30.2787,
      "duration": 0.0246,
      "velocity": 127,
      "chip": "ym2612"
    },
    {
      "channel": 2,
      "note": 87,
      "start": 30.2799,
      "duration": 0.0814,
      "velocity": 94,
      "chip": "ym2612"
    },
    {
      "channel": 4,
      "note": 83,
      "start": 30.2812,
      "duration": 0.0812,
      "velocity": 94,
      "chip": "ym2612"
    },
    {
      "channel": 2,
      "note": 87,
      "start": 30.3617,
      "duration": 0.0863,
      "velocity": 94,
      "chip": "ym2612"
    },
    {
      "channel": 4,
      "note": 83,
      "start": 30.3627,
      "duration": 0.0863,
      "velocity": 94,
      "chip": "ym2612"
    },
    {
      "channel": 2,
      "note": 87,
      "start": 30.4484,
      "duration": 0.0767,
      "velocity": 94,
      "chip": "ym2612"
    },
    {
      "channel": 4,
      "note": 83,
      "start": 30.4494,
      "duration": 0.0767,
      "velocity": 94,
      "chip": "ym2612"
    },
    {
      "channel": 2,
      "note": 87,
      "start": 30.5254,
      "duration": 0.0914,
      "velocity": 94,
      "chip": "ym2612"
    },
    {
      "channel": 4,
      "note": 83,
      "start": 30.5264,
      "duration": 0.0914,
      "velocity": 94,
      "chip": "ym2612"
    },
    {
      "channel": 0,
      "note": 66,
      "start": 30.6118,
      "duration": 0.3077,
      "velocity": 92,
      "chip": "ym2612"
    },
    {
      "channel": 1,
      "note": 43,
      "start": 30.6163,
      "duration": 0.024,
      "velocity": 124,
      "chip": "ym2612"
    },
    {
      "channel": 2,
      "note": 87,
      "start": 30.6172,
      "duration": 0.0812,
      "velocity": 94,
      "chip": "ym2612"
    },
    {
      "channel": 4,
      "note": 83,
      "start": 30.6182,
      "duration": 0.0812,
      "velocity": 94,
      "chip": "ym2612"
    },
    {
      "channel": 2,
      "note": 87,
      "start": 30.6988,
      "duration": 0.0871,
      "velocity": 94,
      "chip": "ym2612"
    },
    {
      "channel": 4,
      "note": 83,
      "start": 30.6998,
      "duration": 0.0873,
      "velocity": 94,
      "chip": "ym2612"
    },
    {
      "channel": 1,
      "note": 39,
      "start": 30.7854,
      "duration": 0.0282,
      "velocity": 124,
      "chip": "ym2612"
    },
    {
      "channel": 2,
      "note": 87,
      "start": 30.7863,
      "duration": 0.0758,
      "velocity": 94,
      "chip": "ym2612"
    },
    {
      "channel": 4,
      "note": 83,
      "start": 30.7874,
      "duration": 0.0757,
      "velocity": 94,
      "chip": "ym2612"
    },
    {
      "channel": 2,
      "note": 87,
      "start": 30.8625,
      "duration": 0.092,
      "velocity": 94,
      "chip": "ym2612"
    },
    {
      "channel": 4,
      "note": 83,
      "start": 30.8635,
      "duration": 0.093,
      "velocity": 94,
      "chip": "ym2612"
    },
    {
      "channel": 0,
      "note": 65,
      "start": 30.9488,
      "duration": 0.4522,
      "velocity": 92,
      "chip": "ym2612"
    },
    {
      "channel": 1,
      "note": 51,
      "start": 30.9537,
      "duration": 0.0237,
      "velocity": 127,
      "chip": "ym2612"
    },
    {
      "channel": 2,
      "note": 85,
      "start": 30.9549,
      "duration": 0.0807,
      "velocity": 94,
      "chip": "ym2612"
    },
    {
      "channel": 3,
      "note": 73,
      "start": 30.9557,
      "duration": 0.8888,
      "velocity": 99,
      "chip": "ym2612"
    },
    {
      "channel": 4,
      "note": 82,
      "start": 30.9569,
      "duration": 0.0797,
      "velocity": 94,
      "chip": "ym2612"
    },
    {
      "channel": 5,
      "note": 82,
      "start": 30.9577,
      "duration": 1.2545,
      "velocity": 81,
      "chip": "ym2612"
    },
    {
      "channel": 2,
      "note": 85,
      "start": 31.036,
      "duration": 0.0861,
      "velocity": 94,
      "chip": "ym2612"
    },
    {
      "channel": 4,
      "note": 82,
      "start": 31.037,
      "duration": 0.0862,
      "velocity": 94,
      "chip": "ym2612"
    },
    {
      "channel": 2,
      "note": 85,
      "start": 31.1225,
      "duration": 0.0767,
      "velocity": 94,
      "chip": "ym2612"
    },
    {
      "channel": 4,
      "note": 82,
      "start": 31.1235,
      "duration": 0.0767,
      "velocity": 94,
      "chip": "ym2612"
    },
    {
      "channel": 2,
      "note": 85,
      "start": 31.1995,
      "duration": 0.091,
      "velocity": 94,
      "chip": "ym2612"
    },
    {
      "channel": 4,
      "note": 82,
      "start": 31.2006,
      "duration": 0.0909,
      "velocity": 94,
      "chip": "ym2612"
    },
    {
      "channel": 1,
      "note": 48,
      "start": 31.29,
      "duration": 0.0245,
      "velocity": 124,
      "chip": "ym2612"
    },
    {
      "channel": 2,
      "note": 85,
      "start": 31.2909,
      "duration": 0.0817,
      "velocity": 94,
      "chip": "ym2612"
    },
    {
      "channel": 4,
      "note": 82,
      "start": 31.2919,
      "duration": 0.0817,
      "velocity": 94,
      "chip": "ym2612"
    },
    {
      "channel": 2,
      "note": 85,
      "start": 31.3729,
      "duration": 0.0773,
      "velocity": 94,
      "chip": "ym2612"
    },
    {
      "channel": 4,
      "note": 82,
      "start": 31.3739,
      "duration": 0.0773,
      "velocity": 94,
      "chip": "ym2612"
    },
    {
      "channel": 0,
      "note": 56,
      "start": 31.4496,
      "duration": 0.4522,
      "velocity": 92,
      "chip": "ym2612"
    },
    {
      "channel": 2,
      "note": 85,
      "start": 31.4506,
      "duration": 0.0856,
      "velocity": 94,
      "chip": "ym2612"
    },
    {
      "channel": 4,
      "note": 82,
      "start": 31.4516,
      "duration": 0.0857,
      "velocity": 94,
      "chip": "ym2612"
    },
    {
      "channel": 2,
      "note": 85,
      "start": 31.5366,
      "duration": 0.0912,
      "velocity": 94,
      "chip": "ym2612"
    },
    {
      "channel": 4,
      "note": 82,
      "start": 31.5376,
      "duration": 0.0917,
      "velocity": 94,
      "chip": "ym2612"
    },
    {
      "channel": 1,
      "note": 51,
      "start": 31.627,
      "duration": 0.0245,
      "velocity": 127,
      "chip": "ym2612"
    },
    {
      "channel": 2,
      "note": 80,
      "start": 31.6282,
      "duration": 0.0814,
      "velocity": 94,
      "chip": "ym2612"
    },
    {
      "channel": 4,
      "note": 77,
      "start": 31.6296,
      "duration": 0.081,
      "velocity": 94,
      "chip": "ym2612"
    },
    {
      "channel": 2,
      "note": 80,
      "start": 31.71,
      "duration": 0.0811,
      "velocity": 94,
      "chip": "ym2612"
    },
    {
      "channel": 4,
      "note": 77,
      "start": 31.711,
      "duration": 0.0811,
      "velocity": 94,
      "chip": "ym2612"
    },
    {
      "channel": 1,
      "note": 39,
      "start": 31.7905,
      "duration": 0.0537,
      "velocity": 124,
      "chip": "ym2612"
    },
    {
      "channel": 2,
      "note": 80,
      "start": 31.7914,
      "duration": 0.0819,
      "velocity": 94,
      "chip": "ym2612"
    },
    {
      "channel": 4,
      "note": 77,
      "start": 31.7924,
      "duration": 0.0819,
      "velocity": 94,
      "chip": "ym2612"
    },
    {
      "channel": 2,
      "note": 80,
      "start": 31.8737,
      "duration": 0.0871,
      "velocity": 94,
      "chip": "ym2612"
    },
    {
      "channel": 4,
      "note": 77,
      "start": 31.8747,
      "duration": 0.0878,
      "velocity": 94,
      "chip": "ym2612"
    },
    {
      "channel": 0,
      "note": 49,
      "start": 31.9601,
      "duration": 0.3076,
      "velocity": 92,
      "chip": "ym2612"
    },
    {
      "channel": 2,
      "note": 80,
      "start": 31.9612,
      "duration": 0.0855,
      "velocity": 94,
      "chip": "ym2612"
    },
    {
      "channel": 3,
      "note": 73,
      "start": 31.9619,
      "duration": 0.1625,
      "velocity": 99,
      "chip": "ym2612"
    },
    {
      "channel": 4,
      "note": 77,
      "start": 31.9629,
      "duration": 0.0848,
      "velocity": 94,
      "chip": "ym2612"
    },
    {
      "channel": 2,
      "note": 80,
      "start": 32.047,
      "duration": 0.0767,
      "velocity": 94,
      "chip": "ym2612"
    },
    {
      "channel": 4,
      "note": 77,
      "start": 32.048,
      "duration": 0.077,
      "velocity": 94,
      "chip": "ym2612"
    },
    {
      "channel": 2,
      "note": 80,
      "start": 32.1241,
      "duration": 0.0863,
      "velocity": 94,
      "chip": "ym2612"
    },
    {
      "channel": 4,
      "note": 77,
      "start": 32.1254,
      "duration": 0.0861,
      "velocity": 94,
      "chip": "ym2612"
    },
    {
      "channel": 2,
      "note": 80,
      "start": 32.2108,
      "duration": 0.0926,
      "velocity": 94,
      "chip": "ym2612"
    },
    {
      "channel": 4,
      "note": 77,
      "start": 32.2118,
      "duration": 0.0939,
      "velocity": 94,
      "chip": "ym2612"
    },
    {
      "channel": 0,
      "note": 54,
      "start": 32.2971,
      "duration": 0.4426,
      "velocity": 92,
      "chip": "ym2612"
    },
    {
      "channel": 1,
      "note": 27,
      "start": 32.3024,
      "duration": 0.0232,
      "velocity": 125,
      "chip": "ym2612"
    },
    {
      "channel": 2,
      "note": 82,
      "start": 32.3038,
      "duration": 0.0703,
      "velocity": 94,
      "chip": "ym2612"
    },
    {
      "channel": 3,
      "note": 82,
      "start": 32.3047,
      "duration": 2.3438,
      "velocity": 99,
      "chip": "ym2612"
    },
    {
      "channel": 4,
      "note": 78,
      "start": 32.3061,
      "duration": 0.069,
      "velocity": 94,
      "chip": "ym2612"
    },
    {
      "channel": 5,
      "note": 82,
      "start": 32.3068,
      "duration": 2.5151,
      "velocity": 81,
      "chip": "ym2612"
    },
    {
      "channel": 2,
      "note": 82,
      "start": 32.3744,
      "duration": 0.0863,
      "velocity": 94,
      "chip": "ym2612"
    },
    {
      "channel": 4,
      "note": 78,
      "start": 32.3755,
      "duration": 0.0863,
      "velocity": 94,
      "chip": "ym2612"
    },
    {
      "channel": 2,
      "note": 82,
      "start": 32.4612,
      "duration": 0.0863,
      "velocity": 94,
      "chip": "ym2612"
    },
    {
      "channel": 4,
      "note": 78,
      "start": 32.4622,
      "duration": 0.0863,
      "velocity": 94,
      "chip": "ym2612"
    },
    {
      "channel": 2,
      "note": 82,
      "start": 32.5478,
      "duration": 0.091,
      "velocity": 94,
      "chip": "ym2612"
    },
    {
      "channel": 4,
      "note": 78,
      "start": 32.5488,
      "duration": 0.091,
      "velocity": 94,
      "chip": "ym2612"
    },
    {
      "channel": 1,
      "note": 48,
      "start": 32.6382,
      "duration": 0.0246,
      "velocity": 124,
      "chip": "ym2612"
    },
    {
      "channel": 2,
      "note": 82,
      "start": 32.6391,
      "duration": 0.0721,
      "velocity": 94,
      "chip": "ym2612"
    },
    {
      "channel": 4,
      "note": 78,
      "start": 32.6401,
      "duration": 0.0721,
      "velocity": 94,
      "chip": "ym2612"
    },
    {
      "channel": 2,
      "note": 82,
      "start": 32.7115,
      "duration": 0.0871,
      "velocity": 94,
      "chip": "ym2612"
    },
    {
      "channel": 4,
      "note": 78,
      "start": 32.7126,
      "duration": 0.0871,
      "velocity": 94,
      "chip": "ym2612"
    },
    {
      "channel": 0,
      "note": 61,
      "start": 32.798,
      "duration": 0.4521,
      "velocity": 92,
      "chip": "ym2612"
    },
    {
      "channel": 2,
      "note": 82,
      "start": 32.799,
      "duration": 0.0855,
      "velocity": 94,
      "chip": "ym2612"
    },
    {
      "channel": 4,
      "note": 78,
      "start": 32.8,
      "duration": 0.0857,
      "velocity": 94,
      "chip": "ym2612"
    },
    {
      "channel": 2,
      "note": 82,
      "start": 32.8849,
      "duration": 0.0912,
      "velocity": 94,
      "chip": "ym2612"
    },
    {
      "channel": 4,
      "note": 78,
      "start": 32.886,
      "duration": 0.0915,
      "velocity": 94,
      "chip": "ym2612"
    },
    {
      "channel": 1,
      "note": 51,
      "start": 32.9753,
      "duration": 0.0149,
      "velocity": 127,
      "chip": "ym2612"
    },
    {
      "channel": 2,
      "note": 85,
      "start": 32.9764,
      "duration": 0.0718,
      "velocity": 94,
      "chip": "ym2612"
    },
    {
      "channel": 4,
      "note": 82,
      "start": 32.9778,
      "duration": 0.0714,
      "velocity": 94,
      "chip": "ym2612"
    },
    {
      "channel": 2,
      "note": 85,
      "start": 33.0486,
      "duration": 0.0863,
      "velocity": 94,
      "chip": "ym2612"
    },
    {
      "channel": 4,
      "note": 82,
      "start": 33.0496,
      "duration": 0.0865,
      "velocity": 94,
      "chip": "ym2612"
    },
    {
      "channel": 2,
      "note": 85,
      "start": 33.1355,
      "duration": 0.0861,
      "velocity": 94,
      "chip": "ym2612"
    },
    {
      "channel": 4,
      "note": 82,
      "start": 33.1364,
      "duration": 0.0862,
      "velocity": 94,
      "chip": "ym2612"
    },
    {
      "channel": 2,
      "note": 85,
      "start": 33.2219,
      "duration": 0.0819,
      "velocity": 94,
      "chip": "ym2612"
    },
    {
      "channel": 4,
      "note": 82,
      "start": 33.2229,
      "duration": 0.0819,
      "velocity": 94,
      "chip": "ym2612"
    },
    {
      "channel": 0,
      "note": 66,
      "start": 33.2987,
      "duration": 0.7604,
      "velocity": 92,
      "chip": "ym2612"
    },
    {
      "channel": 1,
      "note": 43,
      "start": 33.3033,
      "duration": 0.0239,
      "velocity": 124,
      "chip": "ym2612"
    },
    {
      "channel": 2,
      "note": 85,
      "start": 33.3042,
      "duration": 0.0812,
      "velocity": 94,
      "chip": "ym2612"
    },
    {
      "channel": 4,
      "note": 82,
      "start": 33.3052,
      "duration": 0.0812,
      "velocity": 94,
      "chip": "ym2612"
    },
    {
      "channel": 2,
      "note": 85,
      "start": 33.3859,
      "duration": 0.0868,
      "velocity": 94,
      "chip": "ym2612"
    },
    {
      "channel": 4,
      "note": 82,
      "start": 33.3868,
      "duration": 0.0868,
      "velocity": 94,
      "chip": "ym2612"
    },
    {
      "channel": 1,
      "note": 39,
      "start": 33.4722,
      "duration": 0.0284,
      "velocity": 124,
      "chip": "ym2612"
    },
    {
      "channel": 2,
      "note": 85,
      "start": 33.4731,
      "duration": 0.0856,
      "velocity": 94,
      "chip": "ym2612"
    },
    {
      "channel": 4,
      "note": 82,
      "start": 33.4741,
      "duration": 0.0856,
      "velocity": 94,
      "chip": "ym2612"
    },
    {
      "channel": 2,
      "note": 85,
      "start": 33.559,
      "duration": 0.0817,
      "velocity": 94,
      "chip": "ym2612"
    },
    {
      "channel": 4,
      "note": 82,
      "start": 33.56,
      "duration": 0.082,
      "velocity": 94,
      "chip": "ym2612"
    },
    {
      "channel": 1,
      "note": 51,
      "start": 33.6399,
      "duration": 0.0244,
      "velocity": 127,
      "chip": "ym2612"
    },
    {
      "channel": 2,
      "note": 90,
      "start": 33.6411,
      "duration": 0.0812,
      "velocity": 94,
      "chip": "ym2612"
    },
    {
      "channel": 4,
      "note": 85,
      "start": 33.6424,
      "duration": 0.081,
      "velocity": 94,
      "chip": "ym2612"
    },
    {
      "channel": 2,
      "note": 90,
      "start": 33.7227,
      "duration": 0.0863,
      "velocity": 94,
      "chip": "ym2612"
    },
    {
      "channel": 4,
      "note": 85,
      "start": 33.7238,
      "duration": 0.0863,
      "velocity": 94,
      "chip": "ym2612"
    },
    {
      "channel": 2,
      "note": 90,
      "start": 33.8094,
      "duration": 0.0863,
      "velocity": 94,
      "chip": "ym2612"
    },
    {
      "channel": 4,
      "note": 85,
      "start": 33.8105,
      "duration": 0.0863,
      "velocity": 94,
      "chip": "ym2612"
    },
    {
      "channel": 2,
      "note": 90,
      "start": 33.8961,
      "duration": 0.0812,
      "velocity": 94,
      "chip": "ym2612"
    },
    {
      "channel": 4,
      "note": 85,
      "start": 33.8971,
      "duration": 0.0812,
      "velocity": 94,
      "chip": "ym2612"
    },
    {
      "channel": 1,
      "note": 48,
      "start": 33.9767,
      "duration": 0.0247,
      "velocity": 124,
      "chip": "ym2612"
    },
    {
      "channel": 2,
      "note": 90,
      "start": 33.9776,
      "duration": 0.082,
      "velocity": 94,
      "chip": "ym2612"
    },
    {
      "channel": 4,
      "note": 85,
      "start": 33.9786,
      "duration": 0.082,
      "velocity": 94,
      "chip": "ym2612"
    },
    {
      "channel": 2,
      "note": 90,
      "start": 34.06,
      "duration": 0.087,
      "velocity": 94,
      "chip": "ym2612"
    },
    {
      "channel": 4,
      "note": 85,
      "start": 34.0609,
      "duration": 0.087,
      "velocity": 94,
      "chip": "ym2612"
    },
    {
      "channel": 0,
      "note": 54,
      "start": 34.1463,
      "duration": 0.4425,
      "velocity": 92,
      "chip": "ym2612"
    },
    {
      "channel": 2,
      "note": 90,
      "start": 34.1472,
      "duration": 0.0759,
      "velocity": 94,
      "chip": "ym2612"
    },
    {
      "channel": 4,
      "note": 85,
      "start": 34.1483,
      "duration": 0.0759,
      "velocity": 94,
      "chip": "ym2612"
    },
    {
      "channel": 2,
      "note": 90,
      "start": 34.2235,
      "duration": 0.0914,
      "velocity": 94,
      "chip": "ym2612"
    },
    {
      "channel": 4,
      "note": 85,
      "start": 34.2245,
      "duration": 0.0917,
      "velocity": 94,
      "chip": "ym2612"
    },
    {
      "channel": 1,
      "note": 51,
      "start": 34.314,
      "duration": 0.0245,
      "velocity": 127,
      "chip": "ym2612"
    },
    {
      "channel": 2,
      "note": 94,
      "start": 34.3152,
      "duration": 0.0813,
      "velocity": 94,
      "chip": "ym2612"
    },
    {
      "channel": 4,
      "note": 90,
      "start": 34.3166,
      "duration": 0.081,
      "velocity": 94,
      "chip": "ym2612"
    },
    {
      "channel": 2,
      "note": 94,
      "start": 34.3968,
      "duration": 0.0909,
      "velocity": 94,
      "chip": "ym2612"
    },
    {
      "channel": 4,
      "note": 90,
      "start": 34.3979,
      "duration": 0.0909,
      "velocity": 94,
      "chip": "ym2612"
    },
    {
      "channel": 1,
      "note": 39,
      "start": 34.4872,
      "duration": 0.0439,
      "velocity": 124,
      "chip": "ym2612"
    },
    {
      "channel": 2,
      "note": 94,
      "start": 34.4881,
      "duration": 0.0721,
      "velocity": 94,
      "chip": "ym2612"
    },
    {
      "channel": 4,
      "note": 90,
      "start": 34.4891,
      "duration": 0.0721,
      "velocity": 94,
      "chip": "ym2612"
    },
    {
      "channel": 2,
      "note": 94,
      "start": 34.5606,
      "duration": 0.0871,
      "velocity": 94,
      "chip": "ym2612"
    },
    {
      "channel": 4,
      "note": 90,
      "start": 34.5616,
      "duration": 0.0872,
      "velocity": 94,
      "chip": "ym2612"
    },
    {
      "channel": 0,
      "note": 56,
      "start": 34.6471,
      "duration": 0.7602,
      "velocity": 92,
      "chip": "ym2612"
    },
    {
      "channel": 2,
      "note": 94,
      "start": 34.648,
      "duration": 0.0856,
      "velocity": 94,
      "chip": "ym2612"
    },
    {
      "channel": 4,
      "note": 90,
      "start": 34.6492,
      "duration": 0.0854,
      "velocity": 94,
      "chip": "ym2612"
    },
    {
      "channel": 2,
      "note": 94,
      "start": 34.7339,
      "duration": 0.0863,
      "velocity": 94,
      "chip": "ym2612"
    },
    {
      "channel": 4,
      "note": 90,
      "start": 34.7349,
      "duration": 0.0863,
      "velocity": 94,
      "chip": "ym2612"
    },
    {
      "channel": 2,
      "note": 94,
      "start": 34.8206,
      "duration": 0.0767,
      "velocity": 94,
      "chip": "ym2612"
    },
    {
      "channel": 4,
      "note": 90,
      "start": 34.8216,
      "duration": 0.0767,
      "velocity": 94,
      "chip": "ym2612"
    },
    {
      "channel": 2,
      "note": 94,
      "start": 34.8977,
      "duration": 0.0923,
      "velocity": 94,
      "chip": "ym2612"
    },
    {
      "channel": 4,
      "note": 90,
      "start": 34.8986,
      "duration": 0.0938,
      "velocity": 94,
      "chip": "ym2612"
    },
    {
      "channel": 1,
      "note": 27,
      "start": 34.9887,
      "duration": 0.0239,
      "velocity": 125,
      "chip": "ym2612"
    },
    {
      "channel": 2,
      "note": 90,
      "start": 34.9903,
      "duration": 0.3353,
      "velocity": 94,
      "chip": "ym2612"
    },
    {
      "channel": 3,
      "note": 83,
      "start": 34.9911,
      "duration": 0.301,
      "velocity": 99,
      "chip": "ym2612"
    },
    {
      "channel": 4,
      "note": 99,
      "start": 34.9928,
      "duration": 0.3346,
      "velocity": 94,
      "chip": "ym2612"
    },
    {
      "channel": 5,
      "note": 83,
      "start": 34.9935,
      "duration": 2.5162,
      "velocity": 81,
      "chip": "ym2612"
    },
    {
      "channel": 1,
      "note": 48,
      "start": 35.325,
      "duration": 0.0247,
      "velocity": 124,
      "chip": "ym2612"
    },
    {
      "channel": 2,
      "note": 90,
      "start": 35.3259,
      "duration": 0.1595,
      "velocity": 94,
      "chip": "ym2612"
    },
    {
      "channel": 3,
      "note": 83,
      "start": 35.3267,
      "duration": 0.1595,
      "velocity": 99,
      "chip": "ym2612"
    },
    {
      "channel": 4,
      "note": 99,
      "start": 35.3277,
      "duration": 0.1593,
      "velocity": 94,
      "chip": "ym2612"
    },
    {
      "channel": 0,
      "note": 63,
      "start": 35.4848,
      "duration": 0.4522,
      "velocity": 92,
      "chip": "ym2612"
    },
    {
      "channel": 2,
      "note": 89,
      "start": 35.4858,
      "duration": 0.1768,
      "velocity": 94,
      "chip": "ym2612"
    },
    {
      "channel": 3,
      "note": 82,
      "start": 35.4865,
      "duration": 0.1764,
      "velocity": 99,
      "chip": "ym2612"
    },
    {
      "channel": 4,
      "note": 97,
      "start": 35.4873,
      "duration": 0.176,
      "velocity": 94,
      "chip": "ym2612"
    },
    {
      "channel": 1,
      "note": 51,
      "start": 35.6622,
      "duration": 0.0246,
      "velocity": 127,
      "chip": "ym2612"
    },
    {
      "channel": 2,
      "note": 89,
      "start": 35.822,
      "duration": 0.1782,
      "velocity": 94,
      "chip": "ym2612"
    },
    {
      "channel": 3,
      "note": 82,
      "start": 35.8229,
      "duration": 0.1777,
      "velocity": 99,
      "chip": "ym2612"
    },
    {
      "channel": 4,
      "note": 97,
      "start": 35.8236,
      "duration": 0.1773,
      "velocity": 94,
      "chip": "ym2612"
    },
    {
      "channel": 0,
      "note": 68,
      "start": 35.9953,
      "duration": 0.7506,
      "velocity": 92,
      "chip": "ym2612"
    },
    {
      "channel": 1,
      "note": 43,
      "start": 35.9998,
      "duration": 0.024,
      "velocity": 124,
      "chip": "ym2612"
    },
    {
      "channel": 1,
      "note": 39,
      "start": 36.1591,
      "duration": 0.0284,
      "velocity": 124,
      "chip": "ym2612"
    },
    {
      "channel": 2,
      "note": 87,
      "start": 36.1606,
      "duration": 0.085,
      "velocity": 94,
      "chip": "ym2612"
    },
    {
      "channel": 3,
      "note": 80,
      "start": 36.1614,
      "duration": 0.5858,
      "velocity": 99,
      "chip": "ym2612"
    },
    {
      "channel": 4,
      "note": 95,
      "start": 36.163,
      "duration": 0.0837,
      "velocity": 94,
      "chip": "ym2612"
    },
    {
      "channel": 2,
      "note": 87,
      "start": 36.246,
      "duration": 0.0911,
      "velocity": 94,
      "chip": "ym2612"
    },
    {
      "channel": 4,
      "note": 95,
      "start": 36.247,
      "duration": 0.0911,
      "velocity": 94,
      "chip": "ym2612"
    },
    {
      "channel": 1,
      "note": 51,
      "start": 36.3365,
      "duration": 0.0244,
      "velocity": 127,
      "chip": "ym2612"
    },
    {
      "channel": 2,
      "note": 87,
      "start": 36.3374,
      "duration": 0.0719,
      "velocity": 94,
      "chip": "ym2612"
    },
    {
      "channel": 4,
      "note": 95,
      "start": 36.3385,
      "duration": 0.0719,
      "velocity": 94,
      "chip": "ym2612"
    },
    {
      "channel": 2,
      "note": 87,
      "start": 36.4097,
      "duration": 0.0863,
      "velocity": 94,
      "chip": "ym2612"
    },
    {
      "channel": 4,
      "note": 95,
      "start": 36.4107,
      "duration": 0.0863,
      "velocity": 94,
      "chip": "ym2612"
    },
    {
      "channel": 2,
      "note": 87,
      "start": 36.4963,
      "duration": 0.0863,
      "velocity": 94,
      "chip": "ym2612"
    },
    {
      "channel": 4,
      "note": 95,
      "start": 36.4974,
      "duration": 0.0863,
      "velocity": 94,
      "chip": "ym2612"
    },
    {
      "channel": 2,
      "note": 87,
      "start": 36.583,
      "duration": 0.0909,
      "velocity": 94,
      "chip": "ym2612"
    },
    {
      "channel": 4,
      "note": 95,
      "start": 36.5841,
      "duration": 0.0909,
      "velocity": 94,
      "chip": "ym2612"
    },
    {
      "channel": 1,
      "note": 48,
      "start": 36.6734,
      "duration": 0.0149,
      "velocity": 124,
      "chip": "ym2612"
    },
    {
      "channel": 2,
      "note": 87,
      "start": 36.6743,
      "duration": 0.0722,
      "velocity": 94,
      "chip": "ym2612"
    },
    {
      "channel": 4,
      "note": 95,
      "start": 36.6754,
      "duration": 0.0723,
      "velocity": 94,
      "chip": "ym2612"
    },
    {
      "channel": 2,
      "note": 87,
      "start": 36.7468,
      "duration": 0.087,
      "velocity": 94,
      "chip": "ym2612"
    },
    {
      "channel": 4,
      "note": 95,
      "start": 36.748,
      "duration": 0.0877,
      "velocity": 94,
      "chip": "ym2612"
    },
    {
      "channel": 0,
      "note": 56,
      "start": 36.8332,
      "duration": 0.4523,
      "velocity": 92,
      "chip": "ym2612"
    },
    {
      "channel": 2,
      "note": 87,
      "start": 36.8342,
      "duration": 0.0856,
      "velocity": 94,
      "chip": "ym2612"
    },
    {
      "channel": 3,
      "note": 78,
      "start": 36.8351,
      "duration": 0.1674,
      "velocity": 99,
      "chip": "ym2612"
    },
    {
      "channel": 4,
      "note": 95,
      "start": 36.8362,
      "duration": 0.0846,
      "velocity": 94,
      "chip": "ym2612"
    },
    {
      "channel": 2,
      "note": 87,
      "start": 36.9201,
      "duration": 0.0814,
      "velocity": 94,
      "chip": "ym2612"
    },
    {
      "channel": 4,
      "note": 95,
      "start": 36.9212,
      "duration": 0.0822,
      "velocity": 94,
      "chip": "ym2612"
    },
    {
      "channel": 1,
      "note": 51,
      "start": 37.0009,
      "duration": 0.0245,
      "velocity": 127,
      "chip": "ym2612"
    },
    {
      "channel": 2,
      "note": 87,
      "start": 37.0018,
      "duration": 0.0816,
      "velocity": 94,
      "chip": "ym2612"
    },
    {
      "channel": 3,
      "note": 80,
      "start": 37.0028,
      "duration": 0.302,
      "velocity": 99,
      "chip": "ym2612"
    },
    {
      "channel": 4,
      "note": 95,
      "start": 37.0038,
      "duration": 0.0807,
      "velocity": 94,
      "chip": "ym2612"
    },
    {
      "channel": 2,
      "note": 87,
      "start": 37.0838,
      "duration": 0.0907,
      "velocity": 94,
      "chip": "ym2612"
    },
    {
      "channel": 4,
      "note": 95,
      "start": 37.0848,
      "duration": 0.0907,
      "velocity": 94,
      "chip": "ym2612"
    },
    {
      "channel": 1,
      "note": 39,
      "start": 37.1739,
      "duration": 0.0537,
      "velocity": 124,
      "chip": "ym2612"
    },
    {
      "channel": 2,
      "note": 87,
      "start": 37.1749,
      "duration": 0.0819,
      "velocity": 94,
      "chip": "ym2612"
    },
    {
      "channel": 4,
      "note": 95,
      "start": 37.1759,
      "duration": 0.0819,
      "velocity": 94,
      "chip": "ym2612"
    },
    {
      "channel": 2,
      "note": 87,
      "start": 37.2571,
      "duration": 0.0774,
      "velocity": 94,
      "chip": "ym2612"
    },
    {
      "channel": 4,
      "note": 95,
      "start": 37.2582,
      "duration": 0.0783,
      "velocity": 94,
      "chip": "ym2612"
    },
    {
      "channel": 0,
      "note": 58,
      "start": 37.3339,
      "duration": 0.7604,
      "velocity": 92,
      "chip": "ym2612"
    },
    {
      "channel": 2,
      "note": 87,
      "start": 37.3349,
      "duration": 0.0856,
      "velocity": 94,
      "chip": "ym2612"
    },
    {
      "channel": 3,
      "note": 82,
      "start": 37.3359,
      "duration": 0.1722,
      "velocity": 99,
      "chip": "ym2612"
    },
    {
      "channel": 4,
      "note": 95,
      "start": 37.3367,
      "duration": 0.0848,
      "velocity": 94,
      "chip": "ym2612"
    },
    {
      "channel": 2,
      "note": 87,
      "start": 37.4209,
      "duration": 0.0863,
      "velocity": 94,
      "chip": "ym2612"
    },
    {
      "channel": 4,
      "note": 95,
      "start": 37.4219,
      "duration": 0.0871,
      "velocity": 94,
      "chip": "ym2612"
    },
    {
      "channel": 2,
      "note": 87,
      "start": 37.5076,
      "duration": 0.0863,
      "velocity": 94,
      "chip": "ym2612"
    },
    {
      "channel": 3,
      "note": 78,
      "start": 37.5085,
      "duration": 0.1691,
      "velocity": 99,
      "chip": "ym2612"
    },
    {
      "channel": 4,
      "note": 95,
      "start": 37.5094,
      "duration": 0.0855,
      "velocity": 94,
      "chip": "ym2612"
    },
    {
      "channel": 2,
      "note": 87,
      "start": 37.5942,
      "duration": 0.0826,
      "velocity": 94,
      "chip": "ym2612"
    },
    {
      "channel": 4,
      "note": 95,
      "start": 37.5953,
      "duration": 0.0832,
      "velocity": 94,
      "chip": "ym2612"
    },
    {
      "channel": 1,
      "note": 27,
      "start": 37.6755,
      "duration": 0.024,
      "velocity": 125,
      "chip": "ym2612"
    },
    {
      "channel": 2,
      "note": 89,
      "start": 37.6772,
      "duration": 0.3352,
      "velocity": 94,
      "chip": "ym2612"
    },
    {
      "channel": 4,
      "note": 84,
      "start": 37.6788,
      "duration": 0.504,
      "velocity": 94,
      "chip": "ym2612"
    },
    {
      "channel": 5,
      "note": 85,
      "start": 37.6796,
      "duration": 2.5146,
      "velocity": 81,
      "chip": "ym2612"
    },
    {
      "channel": 3,
      "note": 73,
      "start": 37.8446,
      "duration": 2.2146,
      "velocity": 99,
      "chip": "ym2612"
    },
    {
      "channel": 1,
      "note": 48,
      "start": 38.0119,
      "duration": 0.0247,
      "velocity": 124,
      "chip": "ym2612"
    },
    {
      "channel": 2,
      "note": 92,
      "start": 38.0128,
      "duration": 0.1691,
      "velocity": 94,
      "chip": "ym2612"
    },
    {
      "channel": 0,
      "note": 65,
      "start": 38.1814,
      "duration": 0.4426,
      "velocity": 92,
      "chip": "ym2612"
    },
    {
      "channel": 2,
      "note": 87,
      "start": 38.1823,
      "duration": 0.336,
      "velocity": 94,
      "chip": "ym2612"
    },
    {
      "channel": 4,
      "note": 82,
      "start": 38.1832,
      "duration": 0.6642,
      "velocity": 94,
      "chip": "ym2612"
    },
    {
      "channel": 1,
      "note": 51,
      "start": 38.3491,
      "duration": 0.0245,
      "velocity": 127,
      "chip": "ym2612"
    },
    {
      "channel": 2,
      "note": 92,
      "start": 38.5189,
      "duration": 0.3277,
      "velocity": 94,
      "chip": "ym2612"
    },
    {
      "channel": 0,
      "note": 70,
      "start": 38.6823,
      "duration": 0.7602,
      "velocity": 92,
      "chip": "ym2612"
    },
    {
      "channel": 1,
      "note": 43,
      "start": 38.6868,
      "duration": 0.0239,
      "velocity": 124,
      "chip": "ym2612"
    },
    {
      "channel": 1,
      "note": 39,
      "start": 38.846,
      "duration": 0.0284,
      "velocity": 124,
      "chip": "ym2612"
    },
    {
      "channel": 2,
      "note": 89,
      "start": 38.8469,
      "duration": 0.3359,
      "velocity": 94,
      "chip": "ym2612"
    },
    {
      "channel": 4,
      "note": 84,
      "start": 38.8478,
      "duration": 0.6738,
      "velocity": 94,
      "chip": "ym2612"
    },
    {
      "channel": 1,
      "note": 51,
      "start": 39.0234,
      "duration": 0.0244,
      "velocity": 127,
      "chip": "ym2612"
    },
    {
      "channel": 2,
      "note": 92,
      "start": 39.1832,
      "duration": 0.3375,
      "velocity": 94,
      "chip": "ym2612"
    },
    {
      "channel": 1,
      "note": 48,
      "start": 39.3602,
      "duration": 0.0247,
      "velocity": 124,
      "chip": "ym2612"
    },
    {
      "channel": 0,
      "note": 65,
      "start": 39.5201,
      "duration": 0.4521,
      "velocity": 92,
      "chip": "ym2612"
    },
    {
      "channel": 2,
      "note": 87,
      "start": 39.5211,
      "duration": 0.1767,
      "velocity": 94,
      "chip": "ym2612"
    },
    {
      "channel": 4,
      "note": 82,
      "start": 39.522,
      "duration": 0.1767,
      "velocity": 94,
      "chip": "ym2612"
    },
    {
      "channel": 1,
      "note": 51,
      "start": 39.6974,
      "duration": 0.0245,
      "velocity": 127,
      "chip": "ym2612"
    },
    {
      "channel": 2,
      "note": 87,
      "start": 39.6982,
      "duration": 0.3329,
      "velocity": 94,
      "chip": "ym2612"
    },
    {
      "channel": 4,
      "note": 82,
      "start": 39.6991,
      "duration": 0.6776,
      "velocity": 94,
      "chip": "ym2612"
    },
    {
      "channel": 1,
      "note": 39,
      "start": 39.8609,
      "duration": 0.0536,
      "velocity": 124,
      "chip": "ym2612"
    },
    {
      "channel": 0,
      "note": 58,
      "start": 40.0304,
      "duration": 0.3078,
      "velocity": 92,
      "chip": "ym2612"
    },
    {
      "channel": 2,
      "note": 92,
      "start": 40.0314,
      "duration": 0.3429,
      "velocity": 94,
      "chip": "ym2612"
    },
    {
      "channel": 0,
      "note": 53,
      "start": 40.3676,
      "duration": 0.4425,
      "velocity": 92,
      "chip": "ym2612"
    },
    {
      "channel": 1,
      "note": 27,
      "start": 40.373,
      "duration": 0.0134,
      "velocity": 125,
      "chip": "ym2612"
    },
    {
      "channel": 2,
      "note": 87,
      "start": 40.3746,
      "duration": 0.0699,
      "velocity": 94,
      "chip": "ym2612"
    },
    {
      "channel": 3,
      "note": 72,
      "start": 40.3754,
      "duration": 1.1685,
      "velocity": 99,
      "chip": "ym2612"
    },
    {
      "channel": 4,
      "note": 80,
      "start": 40.377,
      "duration": 0.0686,
      "velocity": 94,
      "chip": "ym2612"
    },
    {
      "channel": 5,
      "note": 84,
      "start": 40.3778,
      "duration": 1.2436,
      "velocity": 81,
      "chip": "ym2612"
    },
    {
      "channel": 2,
      "note": 87,
      "start": 40.4449,
      "duration": 0.0863,
      "velocity": 94,
      "chip": "ym2612"
    },
    {
      "channel": 4,
      "note": 80,
      "start": 40.4459,
      "duration": 0.0863,
      "velocity": 94,
      "chip": "ym2612"
    },
    {
      "channel": 2,
      "note": 87,
      "start": 40.5315,
      "duration": 0.0863,
      "velocity": 94,
      "chip": "ym2612"
    },
    {
      "channel": 4,
      "note": 80,
      "start": 40.5326,
      "duration": 0.0865,
      "velocity": 94,
      "chip": "ym2612"
    },
    {
      "channel": 2,
      "note": 87,
      "start": 40.6182,
      "duration": 0.0812,
      "velocity": 94,
      "chip": "ym2612"
    },
    {
      "channel": 4,
      "note": 80,
      "start": 40.6194,
      "duration": 0.081,
      "velocity": 94,
      "chip": "ym2612"
    },
    {
      "channel": 1,
      "note": 48,
      "start": 40.6988,
      "duration": 0.0247,
      "velocity": 124,
      "chip": "ym2612"
    },
    {
      "channel": 2,
      "note": 87,
      "start": 40.6997,
      "duration": 0.0819,
      "velocity": 94,
      "chip": "ym2612"
    },
    {
      "channel": 4,
      "note": 80,
      "start": 40.7008,
      "duration": 0.0818,
      "velocity": 94,
      "chip": "ym2612"
    },
    {
      "channel": 2,
      "note": 87,
      "start": 40.782,
      "duration": 0.0872,
      "velocity": 94,
      "chip": "ym2612"
    },
    {
      "channel": 4,
      "note": 80,
      "start": 40.783,
      "duration": 0.0872,
      "velocity": 94,
      "chip": "ym2612"
    },
    {
      "channel": 0,
      "note": 56,
      "start": 40.8684,
      "duration": 0.4424,
      "velocity": 92,
      "chip": "ym2612"
    },
    {
      "channel": 2,
      "note": 87,
      "start": 40.8695,
      "duration": 0.0854,
      "velocity": 94,
      "chip": "ym2612"
    },
    {
      "channel": 4,
      "note": 80,
      "start": 40.8706,
      "duration": 0.0854,
      "velocity": 94,
      "chip": "ym2612"
    },
    {
      "channel": 2,
      "note": 87,
      "start": 40.9553,
      "duration": 0.0814,
      "velocity": 94,
      "chip": "ym2612"
    },
    {
      "channel": 4,
      "note": 80,
      "start": 40.9563,
      "duration": 0.0814,
      "velocity": 94,
      "chip": "ym2612"
    },
    {
      "channel": 1,
      "note": 51,
      "start": 41.0362,
      "duration": 0.0244,
      "velocity": 127,
      "chip": "ym2612"
    },
    {
      "channel": 2,
      "note": 87,
      "start": 41.0371,
      "duration": 0.0817,
      "velocity": 94,
      "chip": "ym2612"
    },
    {
      "channel": 4,
      "note": 80,
      "start": 41.0381,
      "duration": 0.0817,
      "velocity": 94,
      "chip": "ym2612"
    },
    {
      "channel": 2,
      "note": 87,
      "start": 41.1192,
      "duration": 0.0861,
      "velocity": 94,
      "chip": "ym2612"
    },
    {
      "channel": 4,
      "note": 80,
      "start": 41.1202,
      "duration": 0.0861,
      "velocity": 94,
      "chip": "ym2612"
    },
    {
      "channel": 2,
      "note": 87,
      "start": 41.2057,
      "duration": 0.0863,
      "velocity": 94,
      "chip": "ym2612"
    },
    {
      "channel": 4,
      "note": 80,
      "start": 41.2067,
      "duration": 0.0863,
      "velocity": 94,
      "chip": "ym2612"
    },
    {
      "channel": 2,
      "note": 87,
      "start": 41.2923,
      "duration": 0.0819,
      "velocity": 94,
      "chip": "ym2612"
    },
    {
      "channel": 4,
      "note": 80,
      "start": 41.2934,
      "duration": 0.082,
      "velocity": 94,
      "chip": "ym2612"
    },
    {
      "channel": 0,
      "note": 63,
      "start": 41.3692,
      "duration": 0.3076,
      "velocity": 92,
      "chip": "ym2612"
    },
    {
      "channel": 1,
      "note": 43,
      "start": 41.3738,
      "duration": 0.0239,
      "velocity": 124,
      "chip": "ym2612"
    },
    {
      "channel": 2,
      "note": 87,
      "start": 41.3746,
      "duration": 0.081,
      "velocity": 94,
      "chip": "ym2612"
    },
    {
      "channel": 4,
      "note": 80,
      "start": 41.3757,
      "duration": 0.0811,
      "velocity": 94,
      "chip": "ym2612"
    },
    {
      "channel": 2,
      "note": 87,
      "start": 41.4561,
      "duration": 0.087,
      "velocity": 94,
      "chip": "ym2612"
    },
    {
      "channel": 4,
      "note": 80,
      "start": 41.4571,
      "duration": 0.0871,
      "velocity": 94,
      "chip": "ym2612"
    },
    {
      "channel": 1,
      "note": 39,
      "start": 41.5425,
      "duration": 0.0285,
      "velocity": 124,
      "chip": "ym2612"
    },
    {
      "channel": 2,
      "note": 87,
      "start": 41.5435,
      "duration": 0.0761,
      "velocity": 94,
      "chip": "ym2612"
    },
    {
      "channel": 4,
      "note": 80,
      "start": 41.5446,
      "duration": 0.0759,
      "velocity": 94,
      "chip": "ym2612"
    },
    {
      "channel": 2,
      "note": 87,
      "start": 41.6199,
      "duration": 0.0918,
      "velocity": 94,
      "chip": "ym2612"
    },
    {
      "channel": 4,
      "note": 80,
      "start": 41.621,
      "duration": 0.0928,
      "velocity": 94,
      "chip": "ym2612"
    },
    {
      "channel": 0,
      "note": 62,
      "start": 41.7061,
      "duration": 0.4522,
      "velocity": 92,
      "chip": "ym2612"
    },
    {
      "channel": 1,
      "note": 51,
      "start": 41.7108,
      "duration": 0.0239,
      "velocity": 127,
      "chip": "ym2612"
    },
    {
      "channel": 2,
      "note": 89,
      "start": 41.7121,
      "duration": 0.0807,
      "velocity": 94,
      "chip": "ym2612"
    },
    {
      "channel": 3,
      "note": 74,
      "start": 41.7129,
      "duration": 0.8889,
      "velocity": 99,
      "chip": "ym2612"
    },
    {
      "channel": 4,
      "note": 82,
      "start": 41.7141,
      "duration": 0.0796,
      "velocity": 94,
      "chip": "ym2612"
    },
    {
      "channel": 5,
      "note": 84,
      "start": 41.7149,
      "duration": 1.2547,
      "velocity": 81,
      "chip": "ym2612"
    },
    {
      "channel": 2,
      "note": 89,
      "start": 41.7932,
      "duration": 0.0863,
      "velocity": 94,
      "chip": "ym2612"
    },
    {
      "channel": 4,
      "note": 82,
      "start": 41.7942,
      "duration": 0.0863,
      "velocity": 94,
      "chip": "ym2612"
    },
    {
      "channel": 2,
      "note": 89,
      "start": 41.8798,
      "duration": 0.0767,
      "velocity": 94,
      "chip": "ym2612"
    },
    {
      "channel": 4,
      "note": 82,
      "start": 41.8809,
      "duration": 0.0766,
      "velocity": 94,
      "chip": "ym2612"
    },
    {
      "channel": 2,
      "note": 89,
      "start": 41.9569,
      "duration": 0.0908,
      "velocity": 94,
      "chip": "ym2612"
    },
    {
      "channel": 4,
      "note": 82,
      "start": 41.9579,
      "duration": 0.0908,
      "velocity": 94,
      "chip": "ym2612"
    },
    {
      "channel": 1,
      "note": 48,
      "start": 42.0471,
      "duration": 0.0247,
      "velocity": 124,
      "chip": "ym2612"
    },
    {
      "channel": 2,
      "note": 89,
      "start": 42.048,
      "duration": 0.0818,
      "velocity": 94,
      "chip": "ym2612"
    },
    {
      "channel": 4,
      "note": 82,
      "start": 42.0491,
      "duration": 0.0818,
      "velocity": 94,
      "chip": "ym2612"
    },
    {
      "channel": 2,
      "note": 89,
      "start": 42.1302,
      "duration": 0.087,
      "velocity": 94,
      "chip": "ym2612"
    },
    {
      "channel": 4,
      "note": 82,
      "start": 42.1313,
      "duration": 0.0869,
      "velocity": 94,
      "chip": "ym2612"
    },
    {
      "channel": 0,
      "note": 58,
      "start": 42.2166,
      "duration": 0.4425,
      "velocity": 92,
      "chip": "ym2612"
    },
    {
      "channel": 2,
      "note": 89,
      "start": 42.2175,
      "duration": 0.076,
      "velocity": 94,
      "chip": "ym2612"
    },
    {
      "channel": 4,
      "note": 82,
      "start": 42.2187,
      "duration": 0.0759,
      "velocity": 94,
      "chip": "ym2612"
    },
    {
      "channel": 2,
      "note": 89,
      "start": 42.2939,
      "duration": 0.091,
      "velocity": 94,
      "chip": "ym2612"
    },
    {
      "channel": 4,
      "note": 82,
      "start": 42.2949,
      "duration": 0.0911,
      "velocity": 94,
      "chip": "ym2612"
    },
    {
      "channel": 1,
      "note": 51,
      "start": 42.3843,
      "duration": 0.0246,
      "velocity": 127,
      "chip": "ym2612"
    },
    {
      "channel": 2,
      "note": 89,
      "start": 42.3854,
      "duration": 0.0815,
      "velocity": 94,
      "chip": "ym2612"
    },
    {
      "channel": 4,
      "note": 82,
      "start": 42.3864,
      "duration": 0.0815,
      "velocity": 94,
      "chip": "ym2612"
    },
    {
      "channel": 2,
      "note": 89,
      "start": 42.4673,
      "duration": 0.0811,
      "velocity": 94,
      "chip": "ym2612"
    },
    {
      "channel": 4,
      "note": 82,
      "start": 42.4683,
      "duration": 0.0811,
      "velocity": 94,
      "chip": "ym2612"
    },
    {
      "channel": 1,
      "note": 39,
      "start": 42.5478,
      "duration": 0.0536,
      "velocity": 124,
      "chip": "ym2612"
    },
    {
      "channel": 2,
      "note": 89,
      "start": 42.5487,
      "duration": 0.082,
      "velocity": 94,
      "chip": "ym2612"
    },
    {
      "channel": 4,
      "note": 82,
      "start": 42.5498,
      "duration": 0.0819,
      "velocity": 94,
      "chip": "ym2612"
    },
    {
      "channel": 2,
      "note": 89,
      "start": 42.631,
      "duration": 0.0872,
      "velocity": 94,
      "chip": "ym2612"
    },
    {
      "channel": 4,
      "note": 82,
      "start": 42.632,
      "duration": 0.088,
      "velocity": 94,
      "chip": "ym2612"
    },
    {
      "channel": 0,
      "note": 53,
      "start": 42.7175,
      "duration": 0.3076,
      "velocity": 92,
      "chip": "ym2612"
    },
    {
      "channel": 2,
      "note": 89,
      "start": 42.7185,
      "duration": 0.0855,
      "velocity": 94,
      "chip": "ym2612"
    },
    {
      "channel": 3,
      "note": 70,
      "start": 42.7194,
      "duration": 0.1624,
      "velocity": 99,
      "chip": "ym2612"
    },
    {
      "channel": 4,
      "note": 82,
      "start": 42.7203,
      "duration": 0.0847,
      "velocity": 94,
      "chip": "ym2612"
    },
    {
      "channel": 2,
      "note": 89,
      "start": 42.8044,
      "duration": 0.0767,
      "velocity": 94,
      "chip": "ym2612"
    },
    {
      "channel": 4,
      "note": 82,
      "start": 42.8054,
      "duration": 0.077,
      "velocity": 94,
      "chip": "ym2612"
    },
    {
      "channel": 2,
      "note": 89,
      "start": 42.8814,
      "duration": 0.0863,
      "velocity": 94,
      "chip": "ym2612"
    },
    {
      "channel": 4,
      "note": 82,
      "start": 42.8827,
      "duration": 0.0861,
      "velocity": 94,
      "chip": "ym2612"
    },
    {
      "channel": 2,
      "note": 89,
      "start": 42.9681,
      "duration": 0.0929,
      "velocity": 94,
      "chip": "ym2612"
    },
    {
      "channel": 4,
      "note": 82,
      "start": 42.9692,
      "duration": 0.0944,
      "velocity": 94,
      "chip": "ym2612"
    },
    {
      "channel": 0,
      "note": 51,
      "start": 43.0544,
      "duration": 0.4425,
      "velocity": 92,
      "chip": "ym2612"
    },
    {
      "channel": 1,
      "note": 27,
      "start": 43.0596,
      "duration": 0.0233,
      "velocity": 125,
      "chip": "ym2612"
    },
    {
      "channel": 2,
      "note": 84,
      "start": 43.0613,
      "duration": 0.3345,
      "velocity": 94,
      "chip": "ym2612"
    },
    {
      "channel": 3,
      "note": 79,
      "start": 43.0621,
      "duration": 2.3435,
      "velocity": 99,
      "chip": "ym2612"
    },
    {
      "channel": 4,
      "note": 79,
      "start": 43.064,
      "duration": 0.4927,
      "velocity": 94,
      "chip": "ym2612"
    },
    {
      "channel": 5,
      "note": 82,
      "start": 43.0647,
      "duration": 2.5129,
      "velocity": 81,
      "chip": "ym2612"
    },
    {
      "channel": 1,
      "note": 48,
      "start": 43.3954,
      "duration": 0.0247,
      "velocity": 124,
      "chip": "ym2612"
    },
    {
      "channel": 2,
      "note": 87,
      "start": 43.3961,
      "duration": 0.1597,
      "velocity": 94,
      "chip": "ym2612"
    },
    {
      "channel": 0,
      "note": 58,
      "start": 43.5553,
      "duration": 0.4521,
      "velocity": 92,
      "chip": "ym2612"
    },
    {
      "channel": 2,
      "note": 82,
      "start": 43.5562,
      "duration": 0.3359,
      "velocity": 94,
      "chip": "ym2612"
    },
    {
      "channel": 4,
      "note": 77,
      "start": 43.5571,
      "duration": 0.6737,
      "velocity": 94,
      "chip": "ym2612"
    },
    {
      "channel": 1,
      "note": 51,
      "start": 43.7326,
      "duration": 0.0246,
      "velocity": 127,
      "chip": "ym2612"
    },
    {
      "channel": 2,
      "note": 87,
      "start": 43.8924,
      "duration": 0.3374,
      "velocity": 94,
      "chip": "ym2612"
    },
    {
      "channel": 0,
      "note": 63,
      "start": 44.0656,
      "duration": 0.7508,
      "velocity": 92,
      "chip": "ym2612"
    },
    {
      "channel": 1,
      "note": 43,
      "start": 44.0702,
      "duration": 0.0143,
      "velocity": 124,
      "chip": "ym2612"
    },
    {
      "channel": 1,
      "note": 39,
      "start": 44.2295,
      "duration": 0.0284,
      "velocity": 124,
      "chip": "ym2612"
    },
    {
      "channel": 2,
      "note": 84,
      "start": 44.2302,
      "duration": 0.336,
      "velocity": 94,
      "chip": "ym2612"
    },
    {
      "channel": 4,
      "note": 79,
      "start": 44.2311,
      "duration": 0.6737,
      "velocity": 94,
      "chip": "ym2612"
    },
    {
      "channel": 1,
      "note": 51,
      "start": 44.3971,
      "duration": 0.0246,
      "velocity": 127,
      "chip": "ym2612"
    },
    {
      "channel": 2,
      "note": 87,
      "start": 44.5666,
      "duration": 0.3373,
      "velocity": 94,
      "chip": "ym2612"
    },
    {
      "channel": 1,
      "note": 48,
      "start": 44.734,
      "duration": 0.0247,
      "velocity": 124,
      "chip": "ym2612"
    },
    {
      "channel": 0,
      "note": 58,
      "start": 44.9035,
      "duration": 0.4426,
      "velocity": 92,
      "chip": "ym2612"
    },
    {
      "channel": 2,
      "note": 82,
      "start": 44.9044,
      "duration": 0.1675,
      "velocity": 94,
      "chip": "ym2612"
    },
    {
      "channel": 4,
      "note": 77,
      "start": 44.9052,
      "duration": 0.1675,
      "velocity": 94,
      "chip": "ym2612"
    },
    {
      "channel": 1,
      "note": 51,
      "start": 45.0714,
      "duration": 0.0244,
      "velocity": 127,
      "chip": "ym2612"
    },
    {
      "channel": 2,
      "note": 82,
      "start": 45.0722,
      "duration": 0.3328,
      "velocity": 94,
      "chip": "ym2612"
    },
    {
      "channel": 4,
      "note": 77,
      "start": 45.0731,
      "duration": 0.6751,
      "velocity": 94,
      "chip": "ym2612"
    },
    {
      "channel": 1,
      "note": 39,
      "start": 45.2444,
      "duration": 0.0536,
      "velocity": 124,
      "chip": "ym2612"
    },
    {
      "channel": 0,
      "note": 51,
      "start": 45.4044,
      "duration": 0.7602,
      "velocity": 92,
      "chip": "ym2612"
    },
    {
      "channel": 2,
      "note": 87,
      "start": 45.4052,
      "duration": 0.341,
      "velocity": 94,
      "chip": "ym2612"
    },
    {
      "channel": 1,
      "note": 27,
      "start": 45.7459,
      "duration": 0.024,
      "velocity": 125,
      "chip": "ym2612"
    },
    {
      "channel": 2,
      "note": 84,
      "start": 45.7466,
      "duration": 0.3361,
      "velocity": 94,
      "chip": "ym2612"
    },
    {
      "channel": 3,
      "note": 80,
      "start": 45.7476,
      "duration": 0.3018,
      "velocity": 99,
      "chip": "ym2612"
    },
    {
      "channel": 4,
      "note": 79,
      "start": 45.7485,
      "duration": 0.4959,
      "velocity": 94,
      "chip": "ym2612"
    },
    {
      "channel": 5,
      "note": 80,
      "start": 45.7493,
      "duration": 2.516,
      "velocity": 81,
      "chip": "ym2612"
    },
    {
      "channel": 1,
      "note": 48,
      "start": 46.0823,
      "duration": 0.0247,
      "velocity": 124,
      "chip": "ym2612"
    },
    {
      "channel": 2,
      "note": 87,
      "start": 46.0831,
      "duration": 0.1596,
      "velocity": 94,
      "chip": "ym2612"
    },
    {
      "channel": 3,
      "note": 80,
      "start": 46.0839,
      "duration": 0.1597,
      "velocity": 99,
      "chip": "ym2612"
    },
    {
      "channel": 0,
      "note": 56,
      "start": 46.2423,
      "duration": 0.4521,
      "velocity": 92,
      "chip": "ym2612"
    },
    {
      "channel": 2,
      "note": 82,
      "start": 46.2431,
      "duration": 0.3359,
      "velocity": 94,
      "chip": "ym2612"
    },
    {
      "channel": 3,
      "note": 79,
      "start": 46.244,
      "duration": 0.1761,
      "velocity": 99,
      "chip": "ym2612"
    },
    {
      "channel": 4,
      "note": 77,
      "start": 46.2447,
      "duration": 0.6737,
      "velocity": 94,
      "chip": "ym2612"
    },
    {
      "channel": 1,
      "note": 51,
      "start": 46.4197,
      "duration": 0.0244,
      "velocity": 127,
      "chip": "ym2612"
    },
    {
      "channel": 2,
      "note": 87,
      "start": 46.5793,
      "duration": 0.3375,
      "velocity": 94,
      "chip": "ym2612"
    },
    {
      "channel": 3,
      "note": 79,
      "start": 46.5802,
      "duration": 0.1775,
      "velocity": 99,
      "chip": "ym2612"
    },
    {
      "channel": 0,
      "note": 63,
      "start": 46.7527,
      "duration": 0.7506,
      "velocity": 92,
      "chip": "ym2612"
    },
    {
      "channel": 1,
      "note": 43,
      "start": 46.7572,
      "duration": 0.0239,
      "velocity": 124,
      "chip": "ym2612"
    },
    {
      "channel": 1,
      "note": 39,
      "start": 46.9164,
      "duration": 0.0284,
      "velocity": 124,
      "chip": "ym2612"
    },
    {
      "channel": 2,
      "note": 84,
      "start": 46.9172,
      "duration": 0.3359,
      "velocity": 94,
      "chip": "ym2612"
    },
    {
      "channel": 3,
      "note": 77,
      "start": 46.918,
      "duration": 0.5858,
      "velocity": 99,
      "chip": "ym2612"
    },
    {
      "channel": 4,
      "note": 79,
      "start": 46.9189,
      "duration": 0.6735,
      "velocity": 94,
      "chip": "ym2612"
    },
    {
      "channel": 1,
      "note": 51,
      "start": 47.0937,
      "duration": 0.0245,
      "velocity": 127,
      "chip": "ym2612"
    },
    {
      "channel": 2,
      "note": 87,
      "start": 47.2535,
      "duration": 0.3374,
      "velocity": 94,
      "chip": "ym2612"
    },
    {
      "channel": 1,
      "note": 48,
      "start": 47.4306,
      "duration": 0.0247,
      "velocity": 124,
      "chip": "ym2612"
    },
    {
      "channel": 0,
      "note": 56,
      "start": 47.5904,
      "duration": 0.4522,
      "velocity": 92,
      "chip": "ym2612"
    },
    {
      "channel": 2,
      "note": 82,
      "start": 47.5913,
      "duration": 0.1769,
      "velocity": 94,
      "chip": "ym2612"
    },
    {
      "channel": 3,
      "note": 75,
      "start": 47.5921,
      "duration": 0.1771,
      "velocity": 99,
      "chip": "ym2612"
    },
    {
      "channel": 4,
      "note": 77,
      "start": 47.5928,
      "duration": 0.1771,
      "velocity": 94,
      "chip": "ym2612"
    },
    {
      "channel": 1,
      "note": 51,
      "start": 47.7678,
      "duration": 0.0149,
      "velocity": 127,
      "chip": "ym2612"
    },
    {
      "channel": 2,
      "note": 82,
      "start": 47.7687,
      "duration": 0.3232,
      "velocity": 94,
      "chip": "ym2612"
    },
    {
      "channel": 3,
      "note": 77,
      "start": 47.7695,
      "duration": 0.3022,
      "velocity": 99,
      "chip": "ym2612"
    },
    {
      "channel": 4,
      "note": 77,
      "start": 47.7703,
      "duration": 0.6644,
      "velocity": 94,
      "chip": "ym2612"
    },
    {
      "channel": 1,
      "note": 39,
      "start": 47.9313,
      "duration": 0.0537,
      "velocity": 124,
      "chip": "ym2612"
    },
    {
      "channel": 0,
      "note": 51,
      "start": 48.0913,
      "duration": 0.7603,
      "velocity": 92,
      "chip": "ym2612"
    },
    {
      "channel": 2,
      "note": 94,
      "start": 48.0923,
      "duration": 0.3412,
      "velocity": 94,
      "chip": "ym2612"
    },
    {
      "channel": 3,
      "note": 79,
      "start": 48.0931,
      "duration": 0.1714,
      "velocity": 99,
      "chip": "ym2612"
    },
    {
      "channel": 3,
      "note": 75,
      "start": 48.2649,
      "duration": 0.1693,
      "velocity": 99,
      "chip": "ym2612"
    },
    {
      "channel": 1,
      "note": 27,
      "start": 48.4329,
      "duration": 0.024,
      "velocity": 125,
      "chip": "ym2612"
    },
    {
      "channel": 2,
      "note": 84,
      "start": 48.4338,
      "duration": 0.336,
      "velocity": 94,
      "chip": "ym2612"
    },
    {
      "channel": 4,
      "note": 79,
      "start": 48.4351,
      "duration": 0.505,
      "velocity": 94,
      "chip": "ym2612"
    },
    {
      "channel": 5,
      "note": 82,
      "start": 48.436,
      "duration": 2.5155,
      "velocity": 81,
      "chip": "ym2612"
    },
    {
      "channel": 3,
      "note": 70,
      "start": 48.6021,
      "duration": 2.2144,
      "velocity": 99,
      "chip": "ym2612"
    },
    {
      "channel": 1,
      "note": 48,
      "start": 48.7694,
      "duration": 0.0246,
      "velocity": 124,
      "chip": "ym2612"
    },
    {
      "channel": 2,
      "note": 87,
      "start": 48.7702,
      "duration": 0.1691,
      "velocity": 94,
      "chip": "ym2612"
    },
    {
      "channel": 0,
      "note": 58,
      "start": 48.9388,
      "duration": 0.4424,
      "velocity": 92,
      "chip": "ym2612"
    },
    {
      "channel": 2,
      "note": 82,
      "start": 48.9397,
      "duration": 0.3359,
      "velocity": 94,
      "chip": "ym2612"
    },
    {
      "channel": 4,
      "note": 77,
      "start": 48.9405,
      "duration": 0.6737,
      "velocity": 94,
      "chip": "ym2612"
    },
    {
      "channel": 1,
      "note": 51,
      "start": 49.1066,
      "duration": 0.0244,
      "velocity": 127,
      "chip": "ym2612"
    },
    {
      "channel": 2,
      "note": 87,
      "start": 49.2759,
      "duration": 0.3374,
      "velocity": 94,
      "chip": "ym2612"
    },
    {
      "channel": 0,
      "note": 63,
      "start": 49.4395,
      "duration": 0.7604,
      "velocity": 92,
      "chip": "ym2612"
    },
    {
      "channel": 1,
      "note": 43,
      "start": 49.444,
      "duration": 0.024,
      "velocity": 124,
      "chip": "ym2612"
    },
    {
      "channel": 1,
      "note": 39,
      "start": 49.6129,
      "duration": 0.0188,
      "velocity": 124,
      "chip": "ym2612"
    },
    {
      "channel": 2,
      "note": 84,
      "start": 49.6137,
      "duration": 0.3264,
      "velocity": 94,
      "chip": "ym2612"
    },
    {
      "channel": 4,
      "note": 79,
      "start": 49.6146,
      "duration": 0.6641,
      "velocity": 94,
      "chip": "ym2612"
    },
    {
      "channel": 1,
      "note": 51,
      "start": 49.7806,
      "duration": 0.0245,
      "velocity": 127,
      "chip": "ym2612"
    },
    {
      "channel": 2,
      "note": 87,
      "start": 49.9404,
      "duration": 0.3374,
      "velocity": 94,
      "chip": "ym2612"
    },
    {
      "channel": 1,
      "note": 48,
      "start": 50.1175,
      "duration": 0.0247,
      "velocity": 124,
      "chip": "ym2612"
    },
    {
      "channel": 0,
      "note": 58,
      "start": 50.2773,
      "duration": 0.4522,
      "velocity": 92,
      "chip": "ym2612"
    },
    {
      "channel": 2,
      "note": 82,
      "start": 50.2782,
      "duration": 0.1771,
      "velocity": 94,
      "chip": "ym2612"
    },
    {
      "channel": 4,
      "note": 77,
      "start": 50.2791,
      "duration": 0.1771,
      "velocity": 94,
      "chip": "ym2612"
    },
    {
      "channel": 1,
      "note": 51,
      "start": 50.4549,
      "duration": 0.0244,
      "velocity": 127,
      "chip": "ym2612"
    },
    {
      "channel": 2,
      "note": 82,
      "start": 50.4556,
      "duration": 0.3328,
      "velocity": 94,
      "chip": "ym2612"
    },
    {
      "channel": 4,
      "note": 77,
      "start": 50.4565,
      "duration": 0.6747,
      "velocity": 94,
      "chip": "ym2612"
    },
    {
      "channel": 1,
      "note": 39,
      "start": 50.6182,
      "duration": 0.0536,
      "velocity": 124,
      "chip": "ym2612"
    },
    {
      "channel": 0,
      "note": 51,
      "start": 50.7879,
      "duration": 0.7506,
      "velocity": 92,
      "chip": "ym2612"
    },
    {
      "channel": 2,
      "note": 87,
      "start": 50.7887,
      "duration": 0.3412,
      "velocity": 94,
      "chip": "ym2612"
    },
    {
      "channel": 1,
      "note": 27,
      "start": 51.1295,
      "duration": 0.0239,
      "velocity": 125,
      "chip": "ym2612"
    },
    {
      "channel": 2,
      "note": 84,
      "start": 51.1302,
      "duration": 0.3322,
      "velocity": 94,
      "chip": "ym2612"
    },
    {
      "channel": 4,
      "note": 79,
      "start": 51.1316,
      "duration": 0.4963,
      "velocity": 94,
      "chip": "ym2612"
    },
    {
      "channel": 5,
      "note": 82,
      "start": 51.1323,
      "duration": 2.5068,
      "velocity": 81,
      "chip": "ym2612"
    },
    {
      "channel": 1,
      "note": 39,
      "start": 51.2923,
      "duration": 0.0247,
      "velocity": 124,
      "chip": "ym2612"
    },
    {
      "channel": 1,
      "note": 39,
      "start": 51.3754,
      "duration": 0.0284,
      "velocity": 124,
      "chip": "ym2612"
    },
    {
      "channel": 1,
      "note": 43,
      "start": 51.462,
      "duration": 0.0188,
      "velocity": 124,
      "chip": "ym2612"
    },
    {
      "channel": 2,
      "note": 87,
      "start": 51.4628,
      "duration": 0.1642,
      "velocity": 94,
      "chip": "ym2612"
    },
    {
      "channel": 0,
      "note": 58,
      "start": 51.6257,
      "duration": 0.4521,
      "velocity": 92,
      "chip": "ym2612"
    },
    {
      "channel": 1,
      "note": 48,
      "start": 51.6266,
      "duration": 0.0275,
      "velocity": 124,
      "chip": "ym2612"
    },
    {
      "channel": 2,
      "note": 82,
      "start": 51.6274,
      "duration": 0.3395,
      "velocity": 94,
      "chip": "ym2612"
    },
    {
      "channel": 4,
      "note": 77,
      "start": 51.6283,
      "duration": 0.673,
      "velocity": 94,
      "chip": "ym2612"
    },
    {
      "channel": 1,
      "note": 51,
      "start": 51.7934,
      "duration": 0.0245,
      "velocity": 127,
      "chip": "ym2612"
    },
    {
      "channel": 1,
      "note": 39,
      "start": 51.9665,
      "duration": 0.0247,
      "velocity": 124,
      "chip": "ym2612"
    },
    {
      "channel": 2,
      "note": 87,
      "start": 51.9673,
      "duration": 0.3332,
      "velocity": 94,
      "chip": "ym2612"
    },
    {
      "channel": 1,
      "note": 39,
      "start": 52.0495,
      "duration": 0.0285,
      "velocity": 124,
      "chip": "ym2612"
    },
    {
      "channel": 0,
      "note": 61,
      "start": 52.1264,
      "duration": 0.7604,
      "velocity": 92,
      "chip": "ym2612"
    },
    {
      "channel": 1,
      "note": 43,
      "start": 52.1272,
      "duration": 0.0278,
      "velocity": 124,
      "chip": "ym2612"
    },
    {
      "channel": 1,
      "note": 48,
      "start": 52.3,
      "duration": 0.0284,
      "velocity": 124,
      "chip": "ym2612"
    },
    {
      "channel": 2,
      "note": 84,
      "start": 52.3007,
      "duration": 0.3404,
      "velocity": 94,
      "chip": "ym2612"
    },
    {
      "channel": 4,
      "note": 79,
      "start": 52.3016,
      "duration": 0.6744,
      "velocity": 94,
      "chip": "ym2612"
    },
    {
      "channel": 1,
      "note": 51,
      "start": 52.4675,
      "duration": 0.0245,
      "velocity": 127,
      "chip": "ym2612"
    },
    {
      "channel": 1,
      "note": 48,
      "start": 52.6407,
      "duration": 0.0247,
      "velocity": 124,
      "chip": "ym2612"
    },
    {
      "channel": 2,
      "note": 87,
      "start": 52.6415,
      "duration": 0.3336,
      "velocity": 94,
      "chip": "ym2612"
    },
    {
      "channel": 1,
      "note": 43,
      "start": 52.8007,
      "duration": 0.0284,
      "velocity": 124,
      "chip": "ym2612"
    },
    {
      "channel": 0,
      "note": 58,
      "start": 52.9739,
      "duration": 0.4426,
      "velocity": 92,
      "chip": "ym2612"
    },
    {
      "channel": 1,
      "note": 39,
      "start": 52.9746,
      "duration": 0.0279,
      "velocity": 124,
      "chip": "ym2612"
    },
    {
      "channel": 2,
      "note": 82,
      "start": 52.9755,
      "duration": 0.1666,
      "velocity": 94,
      "chip": "ym2612"
    },
    {
      "channel": 4,
      "note": 77,
      "start": 52.9764,
      "duration": 0.1677,
      "velocity": 94,
      "chip": "ym2612"
    },
    {
      "channel": 1,
      "note": 51,
      "start": 53.1417,
      "duration": 0.0245,
      "velocity": 127,
      "chip": "ym2612"
    },
    {
      "channel": 2,
      "note": 82,
      "start": 53.1424,
      "duration": 0.3338,
      "velocity": 94,
      "chip": "ym2612"
    },
    {
      "channel": 3,
      "note": 75,
      "start": 53.1437,
      "duration": 0.1093,
      "velocity": 99,
      "chip": "ym2612"
    },
    {
      "channel": 4,
      "note": 77,
      "start": 53.1445,
      "duration": 0.6753,
      "velocity": 94,
      "chip": "ym2612"
    },
    {
      "channel": 3,
      "note": 77,
      "start": 53.2823,
      "duration": 0.1055,
      "velocity": 99,
      "chip": "ym2612"
    },
    {
      "channel": 1,
      "note": 48,
      "start": 53.3149,
      "duration": 0.015,
      "velocity": 124,
      "chip": "ym2612"
    },
    {
      "channel": 3,
      "note": 79,
      "start": 53.4173,
      "duration": 0.1149,
      "velocity": 99,
      "chip": "ym2612"
    },
    {
      "channel": 0,
      "note": 51,
      "start": 53.4748,
      "duration": 0.3076,
      "velocity": 92,
      "chip": "ym2612"
    },
    {
      "channel": 1,
      "note": 43,
      "start": 53.4757,
      "duration": 0.0275,
      "velocity": 124,
      "chip": "ym2612"
    },
    {
      "channel": 2,
      "note": 94,
      "start": 53.4766,
      "duration": 0.3412,
      "velocity": 94,
      "chip": "ym2612"
    },
    {
      "channel": 3,
      "note": 80,
      "start": 53.5617,
      "duration": 0.1055,
      "velocity": 99,
      "chip": "ym2612"
    },
    {
      "channel": 1,
      "note": 39,
      "start": 53.6385,
      "duration": 0.0284,
      "velocity": 124,
      "chip": "ym2612"
    },
    {
      "channel": 3,
      "note": 82,
      "start": 53.6965,
      "duration": 0.0863,
      "velocity": 99,
      "chip": "ym2612"
    },
    {
      "channel": 0,
      "note": 56,
      "start": 53.8119,
      "duration": 0.4425,
      "velocity": 92,
      "chip": "ym2612"
    },
    {
      "channel": 1,
      "note": 27,
      "start": 53.8169,
      "duration": 0.0234,
      "velocity": 125,
      "chip": "ym2612"
    },
    {
      "channel": 3,
      "note": 84,
      "start": 53.819,
      "duration": 1.7551,
      "velocity": 99,
      "chip": "ym2612"
    },
    {
      "channel": 5,
      "note": 87,
      "start": 53.8211,
      "duration": 2.5139,
      "velocity": 81,
      "chip": "ym2612"
    },
    {
      "channel": 1,
      "note": 48,
      "start": 54.1529,
      "duration": 0.0245,
      "velocity": 124,
      "chip": "ym2612"
    },
    {
      "channel": 0,
      "note": 63,
      "start": 54.3126,
      "duration": 0.4522,
      "velocity": 92,
      "chip": "ym2612"
    },
    {
      "channel": 1,
      "note": 39,
      "start": 54.3134,
      "duration": 0.0277,
      "velocity": 124,
      "chip": "ym2612"
    },
    {
      "channel": 1,
      "note": 51,
      "start": 54.49,
      "duration": 0.0244,
      "velocity": 127,
      "chip": "ym2612"
    },
    {
      "channel": 0,
      "note": 68,
      "start": 54.8231,
      "duration": 0.7506,
      "velocity": 92,
      "chip": "ym2612"
    },
    {
      "channel": 1,
      "note": 39,
      "start": 54.8276,
      "duration": 0.024,
      "velocity": 124,
      "chip": "ym2612"
    },
    {
      "channel": 1,
      "note": 43,
      "start": 54.9868,
      "duration": 0.0284,
      "velocity": 124,
      "chip": "ym2612"
    },
    {
      "channel": 1,
      "note": 41,
      "start": 55.1641,
      "duration": 0.0149,
      "velocity": 123,
      "chip": "ym2612"
    },
    {
      "channel": 1,
      "note": 39,
      "start": 55.4912,
      "duration": 0.0247,
      "velocity": 124,
      "chip": "ym2612"
    },
    {
      "channel": 0,
      "note": 63,
      "start": 55.6609,
      "duration": 0.4425,
      "velocity": 92,
      "chip": "ym2612"
    },
    {
      "channel": 1,
      "note": 43,
      "start": 55.6617,
      "duration": 0.0277,
      "velocity": 124,
      "chip": "ym2612"
    },
    {
      "channel": 1,
      "note": 51,
      "start": 55.8286,
      "duration": 0.0245,
      "velocity": 127,
      "chip": "ym2612"
    },
    {
      "channel": 3,
      "note": 84,
      "start": 55.8294,
      "duration": 0.5824,
      "velocity": 99,
      "chip": "ym2612"
    },
    {
      "channel": 0,
      "note": 56,
      "start": 56.1616,
      "duration": 0.7604,
      "velocity": 92,
      "chip": "ym2612"
    },
    {
      "channel": 1,
      "note": 39,
      "start": 56.1661,
      "duration": 0.024,
      "velocity": 124,
      "chip": "ym2612"
    },
    {
      "channel": 1,
      "note": 27,
      "start": 56.5029,
      "duration": 0.0243,
      "velocity": 125,
      "chip": "ym2612"
    },
    {
      "channel": 3,
      "note": 82,
      "start": 56.5038,
      "duration": 1.7572,
      "velocity": 99,
      "chip": "ym2612"
    },
    {
      "channel": 5,
      "note": 86,
      "start": 56.5048,
      "duration": 3.7788,
      "velocity": 81,
      "chip": "ym2612"
    },
    {
      "channel": 1,
      "note": 48,
      "start": 56.8398,
      "duration": 0.0245,
      "velocity": 124,
      "chip": "ym2612"
    },
    {
      "channel": 0,
      "note": 62,
      "start": 57.0091,
      "duration": 0.4426,
      "velocity": 92,
      "chip": "ym2612"
    },
    {
      "channel": 1,
      "note": 39,
      "start": 57.01,
      "duration": 0.018,
      "velocity": 124,
      "chip": "ym2612"
    },
    {
      "channel": 1,
      "note": 51,
      "start": 57.1769,
      "duration": 0.0245,
      "velocity": 127,
      "chip": "ym2612"
    },
    {
      "channel": 0,
      "note": 68,
      "start": 57.51,
      "duration": 0.7506,
      "velocity": 92,
      "chip": "ym2612"
    },
    {
      "channel": 1,
      "note": 39,
      "start": 57.5145,
      "duration": 0.024,
      "velocity": 124,
      "chip": "ym2612"
    },
    {
      "channel": 1,
      "note": 43,
      "start": 57.6737,
      "duration": 0.0286,
      "velocity": 124,
      "chip": "ym2612"
    },
    {
      "channel": 1,
      "note": 41,
      "start": 57.851,
      "duration": 0.0246,
      "velocity": 123,
      "chip": "ym2612"
    },
    {
      "channel": 1,
      "note": 39,
      "start": 58.1879,
      "duration": 0.0246,
      "velocity": 124,
      "chip": "ym2612"
    },
    {
      "channel": 0,
      "note": 62,
      "start": 58.3479,
      "duration": 0.4521,
      "velocity": 92,
      "chip": "ym2612"
    },
    {
      "channel": 1,
      "note": 43,
      "start": 58.3486,
      "duration": 0.0277,
      "velocity": 124,
      "chip": "ym2612"
    },
    {
      "channel": 1,
      "note": 51,
      "start": 58.5251,
      "duration": 0.0246,
      "velocity": 127,
      "chip": "ym2612"
    },
    {
      "channel": 3,
      "note": 79,
      "start": 58.5261,
      "duration": 0.5823,
      "velocity": 99,
      "chip": "ym2612"
    },
    {
      "channel": 0,
      "note": 56,
      "start": 58.8582,
      "duration": 0.3077,
      "velocity": 92,
      "chip": "ym2612"
    },
    {
      "channel": 1,
      "note": 39,
      "start": 58.8626,
      "duration": 0.0144,
      "velocity": 124,
      "chip": "ym2612"
    },
    {
      "channel": 0,
      "note": 55,
      "start": 59.1859,
      "duration": 0.452,
      "velocity": 92,
      "chip": "ym2612"
    },
    {
      "channel": 1,
      "note": 27,
      "start": 59.1907,
      "duration": 0.0235,
      "velocity": 125,
      "chip": "ym2612"
    },
    {
      "channel": 3,
      "note": 82,
      "start": 59.192,
      "duration": 0.4462,
      "velocity": 99,
      "chip": "ym2612"
    },
    {
      "channel": 1,
      "note": 48,
      "start": 59.5266,
      "duration": 0.0247,
      "velocity": 124,
      "chip": "ym2612"
    },
    {
      "channel": 0,
      "note": 58,
      "start": 59.6961,
      "duration": 0.4424,
      "velocity": 92,
      "chip": "ym2612"
    },
    {
      "channel": 1,
      "note": 39,
      "start": 59.697,
      "duration": 0.0276,
      "velocity": 124,
      "chip": "ym2612"
    },
    {
      "channel": 3,
      "note": 84,
      "start": 59.6979,
      "duration": 0.4411,
      "velocity": 99,
      "chip": "ym2612"
    },
    {
      "channel": 1,
      "note": 51,
      "start": 59.8638,
      "duration": 0.0246,
      "velocity": 127,
      "chip": "ym2612"
    },
    {
      "channel": 0,
      "note": 62,
      "start": 60.1968,
      "duration": 0.3078,
      "velocity": 92,
      "chip": "ym2612"
    },
    {
      "channel": 1,
      "note": 39,
      "start": 60.2013,
      "duration": 0.0241,
      "velocity": 124,
      "chip": "ym2612"
    },
    {
      "channel": 3,
      "note": 86,
      "start": 60.2023,
      "duration": 0.89,
      "velocity": 99,
      "chip": "ym2612"
    },
    {
      "channel": 1,
      "note": 43,
      "start": 60.3702,
      "duration": 0.0285,
      "velocity": 124,
      "chip": "ym2612"
    },
    {
      "channel": 0,
      "note": 65,
      "start": 60.5339,
      "duration": 0.4522,
      "velocity": 92,
      "chip": "ym2612"
    },
    {
      "channel": 1,
      "note": 41,
      "start": 60.5387,
      "duration": 0.0237,
      "velocity": 123,
      "chip": "ym2612"
    },
    {
      "channel": 5,
      "note": 89,
      "start": 60.5398,
      "duration": 1.2559,
      "velocity": 81,
      "chip": "ym2612"
    },
    {
      "channel": 1,
      "note": 39,
      "start": 60.8747,
      "duration": 0.0248,
      "velocity": 124,
      "chip": "ym2612"
    },
    {
      "channel": 0,
      "note": 62,
      "start": 61.0346,
      "duration": 0.4522,
      "velocity": 92,
      "chip": "ym2612"
    },
    {
      "channel": 1,
      "note": 43,
      "start": 61.0356,
      "duration": 0.0276,
      "velocity": 124,
      "chip": "ym2612"
    },
    {
      "channel": 1,
      "note": 51,
      "start": 61.212,
      "duration": 0.0245,
      "velocity": 127,
      "chip": "ym2612"
    },
    {
      "channel": 3,
      "note": 89,
      "start": 61.2129,
      "duration": 0.5824,
      "velocity": 99,
      "chip": "ym2612"
    },
    {
      "channel": 0,
      "note": 59,
      "start": 61.5451,
      "duration": 0.3078,
      "velocity": 92,
      "chip": "ym2612"
    },
    {
      "channel": 1,
      "note": 39,
      "start": 61.5496,
      "duration": 0.024,
      "velocity": 124,
      "chip": "ym2612"
    },
    {
      "channel": 0,
      "note": 60,
      "start": 61.8822,
      "duration": 0.4426,
      "velocity": 92,
      "chip": "ym2612"
    },
    {
      "channel": 1,
      "note": 27,
      "start": 61.8872,
      "duration": 0.0235,
      "velocity": 125,
      "chip": "ym2612"
    },
    {
      "channel": 3,
      "note": 87,
      "start": 61.888,
      "duration": 1.7564,
      "velocity": 99,
      "chip": "ym2612"
    },
    {
      "channel": 5,
      "note": 91,
      "start": 61.8889,
      "duration": 2.5165,
      "velocity": 81,
      "chip": "ym2612"
    },
    {
      "channel": 1,
      "note": 48,
      "start": 62.2232,
      "duration": 0.0246,
      "velocity": 124,
      "chip": "ym2612"
    },
    {
      "channel": 0,
      "note": 63,
      "start": 62.3829,
      "duration": 0.4522,
      "velocity": 92,
      "chip": "ym2612"
    },
    {
      "channel": 1,
      "note": 39,
      "start": 62.3838,
      "duration": 0.0277,
      "velocity": 124,
      "chip": "ym2612"
    },
    {
      "channel": 1,
      "note": 51,
      "start": 62.5603,
      "duration": 0.0149,
      "velocity": 127,
      "chip": "ym2612"
    },
    {
      "channel": 0,
      "note": 67,
      "start": 62.8837,
      "duration": 0.3077,
      "velocity": 92,
      "chip": "ym2612"
    },
    {
      "channel": 1,
      "note": 39,
      "start": 62.8884,
      "duration": 0.0239,
      "velocity": 124,
      "chip": "ym2612"
    },
    {
      "channel": 1,
      "note": 43,
      "start": 63.0572,
      "duration": 0.0286,
      "velocity": 124,
      "chip": "ym2612"
    },
    {
      "channel": 0,
      "note": 58,
      "start": 63.2208,
      "duration": 0.4522,
      "velocity": 92,
      "chip": "ym2612"
    },
    {
      "channel": 1,
      "note": 41,
      "start": 63.2255,
      "duration": 0.0239,
      "velocity": 123,
      "chip": "ym2612"
    },
    {
      "channel": 1,
      "note": 39,
      "start": 63.5617,
      "duration": 0.0247,
      "velocity": 124,
      "chip": "ym2612"
    },
    {
      "channel": 0,
      "note": 63,
      "start": 63.7312,
      "duration": 0.4426,
      "velocity": 92,
      "chip": "ym2612"
    },
    {
      "channel": 1,
      "note": 43,
      "start": 63.732,
      "duration": 0.0278,
      "velocity": 124,
      "chip": "ym2612"
    },
    {
      "channel": 1,
      "note": 51,
      "start": 63.8989,
      "duration": 0.0246,
      "velocity": 127,
      "chip": "ym2612"
    },
    {
      "channel": 3,
      "note": 86,
      "start": 63.8998,
      "duration": 0.5824,
      "velocity": 99,
      "chip": "ym2612"
    },
    {
      "channel": 0,
      "note": 67,
      "start": 64.232,
      "duration": 0.3077,
      "velocity": 92,
      "chip": "ym2612"
    },
    {
      "channel": 1,
      "note": 39,
      "start": 64.2366,
      "duration": 0.024,
      "velocity": 124,
      "chip": "ym2612"
    },
    {
      "channel": 0,
      "note": 57,
      "start": 64.5694,
      "duration": 0.5867,
      "velocity": 92,
      "chip": "ym2612"
    },
    {
      "channel": 1,
      "note": 27,
      "start": 64.5745,
      "duration": 0.0232,
      "velocity": 125,
      "chip": "ym2612"
    },
    {
      "channel": 3,
      "note": 84,
      "start": 64.5757,
      "duration": 0.3881,
      "velocity": 99,
      "chip": "ym2612"
    },
    {
      "channel": 5,
      "note": 87,
      "start": 64.5768,
      "duration": 1.2541,
      "velocity": 81,
      "chip": "ym2612"
    },
    {
      "channel": 1,
      "note": 48,
      "start": 64.91,
      "duration": 0.0247,
      "velocity": 124,
      "chip": "ym2612"
    },
    {
      "channel": 3,
      "note": 86,
      "start": 65.022,
      "duration": 0.3847,
      "velocity": 99,
      "chip": "ym2612"
    },
    {
      "channel": 0,
      "note": 63,
      "start": 65.2432,
      "duration": 0.587,
      "velocity": 92,
      "chip": "ym2612"
    },
    {
      "channel": 1,
      "note": 53,
      "start": 65.2479,
      "duration": 0.0239,
      "velocity": 127,
      "chip": "ym2612"
    },
    {
      "channel": 3,
      "note": 87,
      "start": 65.465,
      "duration": 0.3944,
      "velocity": 99,
      "chip": "ym2612"
    },
    {
      "channel": 1,
      "note": 43,
      "start": 65.5841,
      "duration": 0.0248,
      "velocity": 124,
      "chip": "ym2612"
    },
    {
      "channel": 1,
      "note": 39,
      "start": 65.7441,
      "duration": 0.0284,
      "velocity": 124,
      "chip": "ym2612"
    },
    {
      "channel": 0,
      "note": 56,
      "start": 65.9173,
      "duration": 0.587,
      "velocity": 92,
      "chip": "ym2612"
    },
    {
      "channel": 1,
      "note": 39,
      "start": 65.9222,
      "duration": 0.0237,
      "velocity": 123,
      "chip": "ym2612"
    },
    {
      "channel": 3,
      "note": 89,
      "start": 65.9231,
      "duration": 0.5817,
      "velocity": 99,
      "chip": "ym2612"
    },
    {
      "channel": 5,
      "note": 86,
      "start": 65.9239,
      "duration": 0.6387,
      "velocity": 81,
      "chip": "ym2612"
    },
    {
      "channel": 1,
      "note": 48,
      "start": 66.2583,
      "duration": 0.0151,
      "velocity": 124,
      "chip": "ym2612"
    },
    {
      "channel": 0,
      "note": 63,
      "start": 66.5818,
      "duration": 0.5967,
      "velocity": 92,
      "chip": "ym2612"
    },
    {
      "channel": 1,
      "note": 51,
      "start": 66.5867,
      "duration": 0.0237,
      "velocity": 127,
      "chip": "ym2612"
    },
    {
      "channel": 3,
      "note": 87,
      "start": 66.5876,
      "duration": 0.5914,
      "velocity": 99,
      "chip": "ym2612"
    },
    {
      "channel": 5,
      "note": 84,
      "start": 66.5885,
      "duration": 0.6386,
      "velocity": 81,
      "chip": "ym2612"
    },
    {
      "channel": 1,
      "note": 43,
      "start": 66.9229,
      "duration": 0.0246,
      "velocity": 124,
      "chip": "ym2612"
    },
    {
      "channel": 1,
      "note": 39,
      "start": 67.0924,
      "duration": 0.0284,
      "velocity": 124,
      "chip": "ym2612"
    },
    {
      "channel": 0,
      "note": 55,
      "start": 67.2561,
      "duration": 0.587,
      "velocity": 92,
      "chip": "ym2612"
    },
    {
      "channel": 1,
      "note": 27,
      "start": 67.2609,
      "duration": 0.0237,
      "velocity": 125,
      "chip": "ym2612"
    },
    {
      "channel": 3,
      "note": 82,
      "start": 67.2618,
      "duration": 0.3889,
      "velocity": 99,
      "chip": "ym2612"
    },
    {
      "channel": 5,
      "note": 86,
      "start": 67.2627,
      "duration": 1.255,
      "velocity": 81,
      "chip": "ym2612"
    },
    {
      "channel": 1,
      "note": 48,
      "start": 67.597,
      "duration": 0.0247,
      "velocity": 124,
      "chip": "ym2612"
    },
    {
      "channel": 3,
      "note": 84,
      "start": 67.7089,
      "duration": 0.3944,
      "velocity": 99,
      "chip": "ym2612"
    },
    {
      "channel": 0,
      "note": 62,
      "start": 67.9302,
      "duration": 0.5869,
      "velocity": 92,
      "chip": "ym2612"
    },
    {
      "channel": 1,
      "note": 53,
      "start": 67.9349,
      "duration": 0.0237,
      "velocity": 127,
      "chip": "ym2612"
    },
    {
      "channel": 3,
      "note": 86,
      "start": 68.1521,
      "duration": 0.3943,
      "velocity": 99,
      "chip": "ym2612"
    },
    {
      "channel": 1,
      "note": 43,
      "start": 68.2712,
      "duration": 0.0246,
      "velocity": 124,
      "chip": "ym2612"
    },
    {
      "channel": 1,
      "note": 39,
      "start": 68.431,
      "duration": 0.0285,
      "velocity": 124,
      "chip": "ym2612"
    },
    {
      "channel": 0,
      "note": 54,
      "start": 68.6044,
      "duration": 0.587,
      "velocity": 92,
      "chip": "ym2612"
    },
    {
      "channel": 1,
      "note": 39,
      "start": 68.6091,
      "duration": 0.0238,
      "velocity": 123,
      "chip": "ym2612"
    },
    {
      "channel": 3,
      "note": 87,
      "start": 68.61,
      "duration": 0.5817,
      "velocity": 99,
      "chip": "ym2612"
    },
    {
      "channel": 5,
      "note": 84,
      "start": 68.6109,
      "duration": 0.6386,
      "velocity": 81,
      "chip": "ym2612"
    },
    {
      "channel": 1,
      "note": 48,
      "start": 68.9452,
      "duration": 0.0247,
      "velocity": 124,
      "chip": "ym2612"
    },
    {
      "channel": 0,
      "note": 61,
      "start": 69.2785,
      "duration": 0.5869,
      "velocity": 92,
      "chip": "ym2612"
    },
    {
      "channel": 1,
      "note": 51,
      "start": 69.2832,
      "duration": 0.0237,
      "velocity": 127,
      "chip": "ym2612"
    },
    {
      "channel": 3,
      "note": 85,
      "start": 69.2841,
      "duration": 0.5817,
      "velocity": 99,
      "chip": "ym2612"
    },
    {
      "channel": 5,
      "note": 82,
      "start": 69.285,
      "duration": 0.6386,
      "velocity": 81,
      "chip": "ym2612"
    },
    {
      "channel": 1,
      "note": 43,
      "start": 69.6194,
      "duration": 0.0246,
      "velocity": 124,
      "chip": "ym2612"
    },
    {
      "channel": 1,
      "note": 39,
      "start": 69.7793,
      "duration": 0.0284,
      "velocity": 124,
      "chip": "ym2612"
    },
    {
      "channel": 0,
      "note": 53,
      "start": 69.9528,
      "duration": 0.5868,
      "velocity": 92,
      "chip": "ym2612"
    },
    {
      "channel": 1,
      "note": 27,
      "start": 69.9577,
      "duration": 0.0138,
      "velocity": 125,
      "chip": "ym2612"
    },
    {
      "channel": 3,
      "note": 80,
      "start": 69.9589,
      "duration": 0.3788,
      "velocity": 99,
      "chip": "ym2612"
    },
    {
      "channel": 5,
      "note": 84,
      "start": 69.96,
      "duration": 1.2447,
      "velocity": 81,
      "chip": "ym2612"
    },
    {
      "channel": 1,
      "note": 48,
      "start": 70.2839,
      "duration": 0.0247,
      "velocity": 124,
      "chip": "ym2612"
    },
    {
      "channel": 3,
      "note": 82,
      "start": 70.3958,
      "duration": 0.3945,
      "velocity": 99,
      "chip": "ym2612"
    },
    {
      "channel": 0,
      "note": 60,
      "start": 70.6171,
      "duration": 0.587,
      "velocity": 92,
      "chip": "ym2612"
    },
    {
      "channel": 1,
      "note": 53,
      "start": 70.622,
      "duration": 0.0236,
      "velocity": 127,
      "chip": "ym2612"
    },
    {
      "channel": 3,
      "note": 84,
      "start": 70.8485,
      "duration": 0.3847,
      "velocity": 99,
      "chip": "ym2612"
    },
    {
      "channel": 1,
      "note": 43,
      "start": 70.9579,
      "duration": 0.0247,
      "velocity": 124,
      "chip": "ym2612"
    },
    {
      "channel": 1,
      "note": 39,
      "start": 71.1276,
      "duration": 0.0285,
      "velocity": 124,
      "chip": "ym2612"
    },
    {
      "channel": 1,
      "note": 39,
      "start": 71.2955,
      "duration": 0.0242,
      "velocity": 123,
      "chip": "ym2612"
    },
    {
      "channel": 0,
      "note": 52,
      "start": 71.6284,
      "duration": 2.07,
      "velocity": 92,
      "chip": "ym2612"
    },
    {
      "channel": 1,
      "note": 48,
      "start": 71.6333,
      "duration": 0.0235,
      "velocity": 124,
      "chip": "ym2612"
    },
    {
      "channel": 3,
      "note": 85,
      "start": 71.6342,
      "duration": 2.0646,
      "velocity": 99,
      "chip": "ym2612"
    },
    {
      "channel": 5,
      "note": 83,
      "start": 71.6351,
      "duration": 2.2083,
      "velocity": 81,
      "chip": "ym2612"
    },
    {
      "channel": 1,
      "note": 48,
      "start": 71.7154,
      "duration": 0.028,
      "velocity": 124,
      "chip": "ym2612"
    },
    {
      "channel": 1,
      "note": 48,
      "start": 71.8021,
      "duration": 0.0184,
      "velocity": 124,
      "chip": "ym2612"
    },
    {
      "channel": 1,
      "note": 48,
      "start": 71.8788,
      "duration": 0.0284,
      "velocity": 124,
      "chip": "ym2612"
    },
    {
      "channel": 1,
      "note": 48,
      "start": 71.966,
      "duration": 0.0279,
      "velocity": 124,
      "chip": "ym2612"
    },
    {
      "channel": 1,
      "note": 48,
      "start": 72.0522,
      "duration": 0.0283,
      "velocity": 124,
      "chip": "ym2612"
    },
    {
      "channel": 1,
      "note": 48,
      "start": 72.1297,
      "duration": 0.0279,
      "velocity": 124,
      "chip": "ym2612"
    },
    {
      "channel": 1,
      "note": 48,
      "start": 72.2159,
      "duration": 0.0284,
      "velocity": 124,
      "chip": "ym2612"
    },
    {
      "channel": 1,
      "note": 48,
      "start": 72.3032,
      "duration": 0.0278,
      "velocity": 124,
      "chip": "ym2612"
    },
    {
      "channel": 1,
      "note": 48,
      "start": 72.3892,
      "duration": 0.0284,
      "velocity": 124,
      "chip": "ym2612"
    },
    {
      "channel": 1,
      "note": 48,
      "start": 72.4668,
      "duration": 0.0279,
      "velocity": 124,
      "chip": "ym2612"
    },
    {
      "channel": 1,
      "note": 48,
      "start": 72.553,
      "duration": 0.0283,
      "velocity": 124,
      "chip": "ym2612"
    },
    {
      "channel": 1,
      "note": 48,
      "start": 72.6401,
      "duration": 0.0279,
      "velocity": 124,
      "chip": "ym2612"
    },
    {
      "channel": 1,
      "note": 48,
      "start": 72.7262,
      "duration": 0.0188,
      "velocity": 124,
      "chip": "ym2612"
    },
    {
      "channel": 1,
      "note": 48,
      "start": 72.8038,
      "duration": 0.0279,
      "velocity": 124,
      "chip": "ym2612"
    },
    {
      "channel": 1,
      "note": 48,
      "start": 72.89,
      "duration": 0.0284,
      "velocity": 124,
      "chip": "ym2612"
    },
    {
      "channel": 1,
      "note": 48,
      "start": 72.9772,
      "duration": 0.0279,
      "velocity": 124,
      "chip": "ym2612"
    },
    {
      "channel": 1,
      "note": 48,
      "start": 73.0537,
      "duration": 0.0285,
      "velocity": 124,
      "chip": "ym2612"
    },
    {
      "channel": 1,
      "note": 48,
      "start": 73.1409,
      "duration": 0.0281,
      "velocity": 124,
      "chip": "ym2612"
    },
    {
      "channel": 1,
      "note": 48,
      "start": 73.2271,
      "duration": 0.0284,
      "velocity": 124,
      "chip": "ym2612"
    },
    {
      "channel": 1,
      "note": 48,
      "start": 73.3143,
      "duration": 0.0278,
      "velocity": 124,
      "chip": "ym2612"
    },
    {
      "channel": 1,
      "note": 48,
      "start": 73.3907,
      "duration": 0.0285,
      "velocity": 124,
      "chip": "ym2612"
    },
    {
      "channel": 1,
      "note": 48,
      "start": 73.478,
      "duration": 0.0279,
      "velocity": 124,
      "chip": "ym2612"
    },
    {
      "channel": 1,
      "note": 48,
      "start": 73.5641,
      "duration": 0.0284,
      "velocity": 124,
      "chip": "ym2612"
    },
    {
      "channel": 1,
      "note": 48,
      "start": 73.6513,
      "duration": 0.0183,
      "velocity": 124,
      "chip": "ym2612"
    },
    {
      "channel": 1,
      "note": 48,
      "start": 73.7278,
      "duration": 0.0284,
      "velocity": 124,
      "chip": "ym2612"
    },
    {
      "channel": 1,
      "note": 48,
      "start": 73.815,
      "duration": 0.028,
      "velocity": 124,
      "chip": "ym2612"
    },
    {
      "channel": 1,
      "note": 48,
      "start": 73.9012,
      "duration": 0.0284,
      "velocity": 124,
      "chip": "ym2612"
    },
    {
      "channel": 0,
      "note": 52,
      "start": 73.9781,
      "duration": 0.3077,
      "velocity": 92,
      "chip": "ym2612"
    },
    {
      "channel": 1,
      "note": 41,
      "start": 73.9835,
      "duration": 0.0232,
      "velocity": 123,
      "chip": "ym2612"
    },
    {
      "channel": 5,
      "note": 83,
      "start": 73.985,
      "duration": 0.3317,
      "velocity": 81,
      "chip": "ym2612"
    },
    {
      "channel": 3,
      "note": 73,
      "start": 74.3162,
      "duration": 0.1723,
      "velocity": 99,
      "chip": "ym2612"
    },
    {
      "channel": 3,
      "note": 71,
      "start": 74.8259,
      "duration": 0.1633,
      "velocity": 99,
      "chip": "ym2612"
    },
    {
      "channel": 0,
      "note": 51,
      "start": 75.3264,
      "duration": 0.4618,
      "velocity": 92,
      "chip": "ym2612"
    },
    {
      "channel": 1,
      "note": 27,
      "start": 75.3317,
      "duration": 0.0329,
      "velocity": 125,
      "chip": "ym2612"
    },
    {
      "channel": 2,
      "note": 84,
      "start": 75.3367,
      "duration": 0.3406,
      "velocity": 94,
      "chip": "ym2612"
    },
    {
      "channel": 3,
      "note": 70,
      "start": 75.3375,
      "duration": 0.4512,
      "velocity": 99,
      "chip": "ym2612"
    },
    {
      "channel": 4,
      "note": 79,
      "start": 75.3426,
      "duration": 0.4969,
      "velocity": 94,
      "chip": "ym2612"
    },
    {
      "channel": 5,
      "note": 82,
      "start": 75.3444,
      "duration": 2.5151,
      "velocity": 81,
      "chip": "ym2612"
    },
    {
      "channel": 1,
      "note": 48,
      "start": 75.677,
      "duration": 0.0246,
      "velocity": 124,
      "chip": "ym2612"
    },
    {
      "channel": 2,
      "note": 87,
      "start": 75.6778,
      "duration": 0.1602,
      "velocity": 94,
      "chip": "ym2612"
    },
    {
      "channel": 0,
      "note": 58,
      "start": 75.8374,
      "duration": 0.4516,
      "velocity": 92,
      "chip": "ym2612"
    },
    {
      "channel": 2,
      "note": 82,
      "start": 75.8383,
      "duration": 0.3354,
      "velocity": 94,
      "chip": "ym2612"
    },
    {
      "channel": 3,
      "note": 75,
      "start": 75.8391,
      "duration": 0.1756,
      "velocity": 99,
      "chip": "ym2612"
    },
    {
      "channel": 4,
      "note": 77,
      "start": 75.8398,
      "duration": 0.6725,
      "velocity": 94,
      "chip": "ym2612"
    },
    {
      "channel": 1,
      "note": 51,
      "start": 76.0142,
      "duration": 0.0245,
      "velocity": 127,
      "chip": "ym2612"
    },
    {
      "channel": 2,
      "note": 87,
      "start": 76.1741,
      "duration": 0.3374,
      "velocity": 94,
      "chip": "ym2612"
    },
    {
      "channel": 0,
      "note": 63,
      "start": 76.3472,
      "duration": 0.7507,
      "velocity": 92,
      "chip": "ym2612"
    },
    {
      "channel": 1,
      "note": 43,
      "start": 76.3517,
      "duration": 0.024,
      "velocity": 124,
      "chip": "ym2612"
    },
    {
      "channel": 1,
      "note": 39,
      "start": 76.5111,
      "duration": 0.0284,
      "velocity": 124,
      "chip": "ym2612"
    },
    {
      "channel": 2,
      "note": 84,
      "start": 76.5119,
      "duration": 0.3359,
      "velocity": 94,
      "chip": "ym2612"
    },
    {
      "channel": 4,
      "note": 79,
      "start": 76.5127,
      "duration": 0.6746,
      "velocity": 94,
      "chip": "ym2612"
    },
    {
      "channel": 1,
      "note": 51,
      "start": 76.6885,
      "duration": 0.0244,
      "velocity": 127,
      "chip": "ym2612"
    },
    {
      "channel": 2,
      "note": 87,
      "start": 76.8482,
      "duration": 0.3375,
      "velocity": 94,
      "chip": "ym2612"
    },
    {
      "channel": 1,
      "note": 48,
      "start": 77.0253,
      "duration": 0.0246,
      "velocity": 124,
      "chip": "ym2612"
    },
    {
      "channel": 0,
      "note": 58,
      "start": 77.1851,
      "duration": 0.4522,
      "velocity": 92,
      "chip": "ym2612"
    },
    {
      "channel": 2,
      "note": 82,
      "start": 77.1861,
      "duration": 0.1768,
      "velocity": 94,
      "chip": "ym2612"
    },
    {
      "channel": 3,
      "note": 75,
      "start": 77.1868,
      "duration": 0.1768,
      "velocity": 99,
      "chip": "ym2612"
    },
    {
      "channel": 4,
      "note": 77,
      "start": 77.1877,
      "duration": 0.1767,
      "velocity": 94,
      "chip": "ym2612"
    },
    {
      "channel": 1,
      "note": 51,
      "start": 77.3625,
      "duration": 0.0149,
      "velocity": 127,
      "chip": "ym2612"
    },
    {
      "channel": 2,
      "note": 82,
      "start": 77.3633,
      "duration": 0.3234,
      "velocity": 94,
      "chip": "ym2612"
    },
    {
      "channel": 3,
      "note": 77,
      "start": 77.364,
      "duration": 0.1624,
      "velocity": 99,
      "chip": "ym2612"
    },
    {
      "channel": 4,
      "note": 77,
      "start": 77.3648,
      "duration": 0.6649,
      "velocity": 94,
      "chip": "ym2612"
    },
    {
      "channel": 1,
      "note": 39,
      "start": 77.526,
      "duration": 0.0536,
      "velocity": 124,
      "chip": "ym2612"
    },
    {
      "channel": 0,
      "note": 51,
      "start": 77.6862,
      "duration": 0.7601,
      "velocity": 92,
      "chip": "ym2612"
    },
    {
      "channel": 2,
      "note": 87,
      "start": 77.687,
      "duration": 0.3409,
      "velocity": 94,
      "chip": "ym2612"
    },
    {
      "channel": 3,
      "note": 79,
      "start": 77.6878,
      "duration": 0.1714,
      "velocity": 99,
      "chip": "ym2612"
    },
    {
      "channel": 1,
      "note": 27,
      "start": 78.0275,
      "duration": 0.024,
      "velocity": 125,
      "chip": "ym2612"
    },
    {
      "channel": 2,
      "note": 84,
      "start": 78.0283,
      "duration": 0.3361,
      "velocity": 94,
      "chip": "ym2612"
    },
    {
      "channel": 3,
      "note": 80,
      "start": 78.0292,
      "duration": 0.4462,
      "velocity": 99,
      "chip": "ym2612"
    },
    {
      "channel": 4,
      "note": 79,
      "start": 78.03,
      "duration": 0.5057,
      "velocity": 94,
      "chip": "ym2612"
    },
    {
      "channel": 5,
      "note": 80,
      "start": 78.0309,
      "duration": 2.5153,
      "velocity": 81,
      "chip": "ym2612"
    },
    {
      "channel": 1,
      "note": 48,
      "start": 78.3639,
      "duration": 0.0247,
      "velocity": 124,
      "chip": "ym2612"
    },
    {
      "channel": 2,
      "note": 87,
      "start": 78.3647,
      "duration": 0.1692,
      "velocity": 94,
      "chip": "ym2612"
    },
    {
      "channel": 0,
      "note": 56,
      "start": 78.5335,
      "duration": 0.4424,
      "velocity": 92,
      "chip": "ym2612"
    },
    {
      "channel": 2,
      "note": 82,
      "start": 78.5343,
      "duration": 0.3359,
      "velocity": 94,
      "chip": "ym2612"
    },
    {
      "channel": 3,
      "note": 79,
      "start": 78.5352,
      "duration": 0.1663,
      "velocity": 99,
      "chip": "ym2612"
    },
    {
      "channel": 4,
      "note": 77,
      "start": 78.5361,
      "duration": 0.6728,
      "velocity": 94,
      "chip": "ym2612"
    },
    {
      "channel": 1,
      "note": 51,
      "start": 78.7011,
      "duration": 0.0246,
      "velocity": 127,
      "chip": "ym2612"
    },
    {
      "channel": 2,
      "note": 87,
      "start": 78.8706,
      "duration": 0.3374,
      "velocity": 94,
      "chip": "ym2612"
    },
    {
      "channel": 0,
      "note": 63,
      "start": 79.0342,
      "duration": 0.7604,
      "velocity": 92,
      "chip": "ym2612"
    },
    {
      "channel": 1,
      "note": 43,
      "start": 79.0388,
      "duration": 0.0239,
      "velocity": 124,
      "chip": "ym2612"
    },
    {
      "channel": 3,
      "note": 82,
      "start": 79.0398,
      "duration": 1.7566,
      "velocity": 99,
      "chip": "ym2612"
    },
    {
      "channel": 1,
      "note": 39,
      "start": 79.2076,
      "duration": 0.0188,
      "velocity": 124,
      "chip": "ym2612"
    },
    {
      "channel": 2,
      "note": 84,
      "start": 79.2084,
      "duration": 0.3263,
      "velocity": 94,
      "chip": "ym2612"
    },
    {
      "channel": 4,
      "note": 79,
      "start": 79.2093,
      "duration": 0.6641,
      "velocity": 94,
      "chip": "ym2612"
    },
    {
      "channel": 1,
      "note": 51,
      "start": 79.3753,
      "duration": 0.0245,
      "velocity": 127,
      "chip": "ym2612"
    },
    {
      "channel": 2,
      "note": 87,
      "start": 79.5351,
      "duration": 0.3374,
      "velocity": 94,
      "chip": "ym2612"
    },
    {
      "channel": 1,
      "note": 48,
      "start": 79.7122,
      "duration": 0.0247,
      "velocity": 124,
      "chip": "ym2612"
    },
    {
      "channel": 0,
      "note": 56,
      "start": 79.872,
      "duration": 0.4522,
      "velocity": 92,
      "chip": "ym2612"
    },
    {
      "channel": 2,
      "note": 82,
      "start": 79.8729,
      "duration": 0.177,
      "velocity": 94,
      "chip": "ym2612"
    },
    {
      "channel": 4,
      "note": 77,
      "start": 79.8738,
      "duration": 0.177,
      "velocity": 94,
      "chip": "ym2612"
    },
    {
      "channel": 1,
      "note": 51,
      "start": 80.0494,
      "duration": 0.0246,
      "velocity": 127,
      "chip": "ym2612"
    },
    {
      "channel": 2,
      "note": 82,
      "start": 80.0502,
      "duration": 0.333,
      "velocity": 94,
      "chip": "ym2612"
    },
    {
      "channel": 4,
      "note": 77,
      "start": 80.051,
      "duration": 0.6748,
      "velocity": 94,
      "chip": "ym2612"
    },
    {
      "channel": 1,
      "note": 39,
      "start": 80.2129,
      "duration": 0.0537,
      "velocity": 124,
      "chip": "ym2612"
    },
    {
      "channel": 0,
      "note": 51,
      "start": 80.3825,
      "duration": 0.7506,
      "velocity": 92,
      "chip": "ym2612"
    },
    {
      "channel": 2,
      "note": 94,
      "start": 80.3835,
      "duration": 0.3413,
      "velocity": 94,
      "chip": "ym2612"
    },
    {
      "channel": 1,
      "note": 27,
      "start": 80.7242,
      "duration": 0.0239,
      "velocity": 125,
      "chip": "ym2612"
    },
    {
      "channel": 2,
      "note": 84,
      "start": 80.7251,
      "duration": 0.3358,
      "velocity": 94,
      "chip": "ym2612"
    },
    {
      "channel": 4,
      "note": 79,
      "start": 80.7262,
      "duration": 0.4957,
      "velocity": 94,
      "chip": "ym2612"
    },
    {
      "channel": 5,
      "note": 82,
      "start": 80.7271,
      "duration": 2.506,
      "velocity": 81,
      "chip": "ym2612"
    },
    {
      "channel": 1,
      "note": 48,
      "start": 81.0605,
      "duration": 0.015,
      "velocity": 124,
      "chip": "ym2612"
    },
    {
      "channel": 2,
      "note": 87,
      "start": 81.0612,
      "duration": 0.1598,
      "velocity": 94,
      "chip": "ym2612"
    },
    {
      "channel": 3,
      "note": 84,
      "start": 81.062,
      "duration": 1.7569,
      "velocity": 99,
      "chip": "ym2612"
    },
    {
      "channel": 0,
      "note": 58,
      "start": 81.2205,
      "duration": 0.452,
      "velocity": 92,
      "chip": "ym2612"
    },
    {
      "channel": 2,
      "note": 82,
      "start": 81.2214,
      "duration": 0.3357,
      "velocity": 94,
      "chip": "ym2612"
    },
    {
      "channel": 4,
      "note": 77,
      "start": 81.2223,
      "duration": 0.6735,
      "velocity": 94,
      "chip": "ym2612"
    },
    {
      "channel": 1,
      "note": 51,
      "start": 81.3882,
      "duration": 0.0244,
      "velocity": 127,
      "chip": "ym2612"
    },
    {
      "channel": 2,
      "note": 87,
      "start": 81.5575,
      "duration": 0.3374,
      "velocity": 94,
      "chip": "ym2612"
    },
    {
      "channel": 0,
      "note": 63,
      "start": 81.7211,
      "duration": 0.7604,
      "velocity": 92,
      "chip": "ym2612"
    },
    {
      "channel": 1,
      "note": 43,
      "start": 81.7256,
      "duration": 0.024,
      "velocity": 124,
      "chip": "ym2612"
    },
    {
      "channel": 1,
      "note": 39,
      "start": 81.8946,
      "duration": 0.0284,
      "velocity": 124,
      "chip": "ym2612"
    },
    {
      "channel": 2,
      "note": 84,
      "start": 81.8953,
      "duration": 0.336,
      "velocity": 94,
      "chip": "ym2612"
    },
    {
      "channel": 4,
      "note": 79,
      "start": 81.8962,
      "duration": 0.6739,
      "velocity": 94,
      "chip": "ym2612"
    },
    {
      "channel": 1,
      "note": 51,
      "start": 82.0622,
      "duration": 0.0245,
      "velocity": 127,
      "chip": "ym2612"
    },
    {
      "channel": 2,
      "note": 87,
      "start": 82.2316,
      "duration": 0.3376,
      "velocity": 94,
      "chip": "ym2612"
    },
    {
      "channel": 1,
      "note": 48,
      "start": 82.3991,
      "duration": 0.0247,
      "velocity": 124,
      "chip": "ym2612"
    },
    {
      "channel": 0,
      "note": 58,
      "start": 82.5687,
      "duration": 0.4424,
      "velocity": 92,
      "chip": "ym2612"
    },
    {
      "channel": 2,
      "note": 82,
      "start": 82.5695,
      "duration": 0.1674,
      "velocity": 94,
      "chip": "ym2612"
    },
    {
      "channel": 4,
      "note": 77,
      "start": 82.5705,
      "duration": 0.1674,
      "velocity": 94,
      "chip": "ym2612"
    },
    {
      "channel": 1,
      "note": 51,
      "start": 82.7365,
      "duration": 0.0244,
      "velocity": 127,
      "chip": "ym2612"
    },
    {
      "channel": 2,
      "note": 82,
      "start": 82.7372,
      "duration": 0.3329,
      "velocity": 94,
      "chip": "ym2612"
    },
    {
      "channel": 4,
      "note": 77,
      "start": 82.7381,
      "duration": 0.6751,
      "velocity": 94,
      "chip": "ym2612"
    },
    {
      "channel": 1,
      "note": 39,
      "start": 82.9094,
      "duration": 0.044,
      "velocity": 124,
      "chip": "ym2612"
    },
    {
      "channel": 0,
      "note": 51,
      "start": 83.0696,
      "duration": 0.7601,
      "velocity": 92,
      "chip": "ym2612"
    },
    {
      "channel": 2,
      "note": 87,
      "start": 83.0705,
      "duration": 0.3409,
      "velocity": 94,
      "chip": "ym2612"
    },
    {
      "channel": 3,
      "note": 82,
      "start": 83.0715,
      "duration": 0.1134,
      "velocity": 99,
      "chip": "ym2612"
    },
    {
      "channel": 3,
      "note": 80,
      "start": 83.1852,
      "duration": 0.1056,
      "velocity": 99,
      "chip": "ym2612"
    },
    {
      "channel": 3,
      "note": 79,
      "start": 83.2912,
      "duration": 0.121,
      "velocity": 99,
      "chip": "ym2612"
    },
    {
      "channel": 1,
      "note": 27,
      "start": 83.411,
      "duration": 0.024,
      "velocity": 125,
      "chip": "ym2612"
    },
    {
      "channel": 2,
      "note": 84,
      "start": 83.4117,
      "duration": 0.3361,
      "velocity": 94,
      "chip": "ym2612"
    },
    {
      "channel": 3,
      "note": 82,
      "start": 83.4126,
      "duration": 0.3018,
      "velocity": 99,
      "chip": "ym2612"
    },
    {
      "channel": 4,
      "note": 79,
      "start": 83.4135,
      "duration": 0.4952,
      "velocity": 94,
      "chip": "ym2612"
    },
    {
      "channel": 5,
      "note": 80,
      "start": 83.4143,
      "duration": 2.5153,
      "velocity": 81,
      "chip": "ym2612"
    },
    {
      "channel": 1,
      "note": 48,
      "start": 83.7473,
      "duration": 0.0247,
      "velocity": 124,
      "chip": "ym2612"
    },
    {
      "channel": 2,
      "note": 87,
      "start": 83.7482,
      "duration": 0.1596,
      "velocity": 94,
      "chip": "ym2612"
    },
    {
      "channel": 3,
      "note": 80,
      "start": 83.7489,
      "duration": 0.1005,
      "velocity": 99,
      "chip": "ym2612"
    },
    {
      "channel": 3,
      "note": 79,
      "start": 83.8498,
      "duration": 0.1151,
      "velocity": 99,
      "chip": "ym2612"
    },
    {
      "channel": 0,
      "note": 56,
      "start": 83.9073,
      "duration": 0.452,
      "velocity": 92,
      "chip": "ym2612"
    },
    {
      "channel": 2,
      "note": 82,
      "start": 83.9082,
      "duration": 0.3359,
      "velocity": 94,
      "chip": "ym2612"
    },
    {
      "channel": 4,
      "note": 77,
      "start": 83.9091,
      "duration": 0.6737,
      "velocity": 94,
      "chip": "ym2612"
    },
    {
      "channel": 3,
      "note": 77,
      "start": 83.9653,
      "duration": 0.1201,
      "velocity": 99,
      "chip": "ym2612"
    },
    {
      "channel": 1,
      "note": 51,
      "start": 84.0846,
      "duration": 0.0246,
      "velocity": 127,
      "chip": "ym2612"
    },
    {
      "channel": 3,
      "note": 80,
      "start": 84.0857,
      "duration": 0.3029,
      "velocity": 99,
      "chip": "ym2612"
    },
    {
      "channel": 2,
      "note": 87,
      "start": 84.2444,
      "duration": 0.3374,
      "velocity": 94,
      "chip": "ym2612"
    },
    {
      "channel": 0,
      "note": 63,
      "start": 84.4176,
      "duration": 0.7507,
      "velocity": 92,
      "chip": "ym2612"
    },
    {
      "channel": 1,
      "note": 43,
      "start": 84.4223,
      "duration": 0.0239,
      "velocity": 124,
      "chip": "ym2612"
    },
    {
      "channel": 3,
      "note": 79,
      "start": 84.4232,
      "duration": 0.1002,
      "velocity": 99,
      "chip": "ym2612"
    },
    {
      "channel": 3,
      "note": 77,
      "start": 84.5238,
      "duration": 0.1152,
      "velocity": 99,
      "chip": "ym2612"
    },
    {
      "channel": 1,
      "note": 39,
      "start": 84.5815,
      "duration": 0.0284,
      "velocity": 124,
      "chip": "ym2612"
    },
    {
      "channel": 2,
      "note": 84,
      "start": 84.5822,
      "duration": 0.336,
      "velocity": 94,
      "chip": "ym2612"
    },
    {
      "channel": 4,
      "note": 79,
      "start": 84.5831,
      "duration": 0.6738,
      "velocity": 94,
      "chip": "ym2612"
    },
    {
      "channel": 3,
      "note": 75,
      "start": 84.6394,
      "duration": 0.1198,
      "velocity": 99,
      "chip": "ym2612"
    },
    {
      "channel": 1,
      "note": 51,
      "start": 84.7587,
      "duration": 0.0149,
      "velocity": 127,
      "chip": "ym2612"
    },
    {
      "channel": 3,
      "note": 79,
      "start": 84.7596,
      "duration": 0.8907,
      "velocity": 99,
      "chip": "ym2612"
    },
    {
      "channel": 2,
      "note": 87,
      "start": 84.9187,
      "duration": 0.3373,
      "velocity": 94,
      "chip": "ym2612"
    },
    {
      "channel": 1,
      "note": 48,
      "start": 85.0862,
      "duration": 0.0245,
      "velocity": 124,
      "chip": "ym2612"
    },
    {
      "channel": 0,
      "note": 56,
      "start": 85.2555,
      "duration": 0.4426,
      "velocity": 92,
      "chip": "ym2612"
    },
    {
      "channel": 2,
      "note": 82,
      "start": 85.2563,
      "duration": 0.1675,
      "velocity": 94,
      "chip": "ym2612"
    },
    {
      "channel": 4,
      "note": 77,
      "start": 85.2573,
      "duration": 0.1674,
      "velocity": 94,
      "chip": "ym2612"
    },
    {
      "channel": 1,
      "note": 51,
      "start": 85.4234,
      "duration": 0.0244,
      "velocity": 127,
      "chip": "ym2612"
    },
    {
      "channel": 2,
      "note": 82,
      "start": 85.4242,
      "duration": 0.3328,
      "velocity": 94,
      "chip": "ym2612"
    },
    {
      "channel": 4,
      "note": 77,
      "start": 85.4251,
      "duration": 0.6751,
      "velocity": 94,
      "chip": "ym2612"
    },
    {
      "channel": 1,
      "note": 39,
      "start": 85.5963,
      "duration": 0.0537,
      "velocity": 124,
      "chip": "ym2612"
    },
    {
      "channel": 0,
      "note": 51,
      "start": 85.7564,
      "duration": 0.7602,
      "velocity": 92,
      "chip": "ym2612"
    },
    {
      "channel": 2,
      "note": 94,
      "start": 85.7573,
      "duration": 0.3412,
      "velocity": 94,
      "chip": "ym2612"
    },
    {
      "channel": 3,
      "note": 77,
      "start": 85.7581,
      "duration": 0.1136,
      "velocity": 99,
      "chip": "ym2612"
    },
    {
      "channel": 3,
      "note": 75,
      "start": 85.8721,
      "duration": 0.1152,
      "velocity": 99,
      "chip": "ym2612"
    },
    {
      "channel": 3,
      "note": 72,
      "start": 85.9877,
      "duration": 0.1116,
      "velocity": 99,
      "chip": "ym2612"
    },
    {
      "channel": 1,
      "note": 27,
      "start": 86.0979,
      "duration": 0.024,
      "velocity": 125,
      "chip": "ym2612"
    },
    {
      "channel": 2,
      "note": 84,
      "start": 86.0989,
      "duration": 0.3358,
      "velocity": 94,
      "chip": "ym2612"
    },
    {
      "channel": 3,
      "note": 70,
      "start": 86.0996,
      "duration": 2.3546,
      "velocity": 99,
      "chip": "ym2612"
    },
    {
      "channel": 4,
      "note": 79,
      "start": 86.1006,
      "duration": 0.5049,
      "velocity": 94,
      "chip": "ym2612"
    },
    {
      "channel": 5,
      "note": 82,
      "start": 86.1015,
      "duration": 2.5151,
      "velocity": 81,
      "chip": "ym2612"
    },
    {
      "channel": 1,
      "note": 48,
      "start": 86.4343,
      "duration": 0.0247,
      "velocity": 124,
      "chip": "ym2612"
    },
    {
      "channel": 2,
      "note": 87,
      "start": 86.4351,
      "duration": 0.1695,
      "velocity": 94,
      "chip": "ym2612"
    },
    {
      "channel": 0,
      "note": 58,
      "start": 86.604,
      "duration": 0.4423,
      "velocity": 92,
      "chip": "ym2612"
    },
    {
      "channel": 2,
      "note": 82,
      "start": 86.6049,
      "duration": 0.3261,
      "velocity": 94,
      "chip": "ym2612"
    },
    {
      "channel": 4,
      "note": 77,
      "start": 86.6058,
      "duration": 0.664,
      "velocity": 94,
      "chip": "ym2612"
    },
    {
      "channel": 1,
      "note": 51,
      "start": 86.7717,
      "duration": 0.0244,
      "velocity": 127,
      "chip": "ym2612"
    },
    {
      "channel": 2,
      "note": 87,
      "start": 86.9314,
      "duration": 0.3375,
      "velocity": 94,
      "chip": "ym2612"
    },
    {
      "channel": 0,
      "note": 63,
      "start": 87.1045,
      "duration": 0.7508,
      "velocity": 92,
      "chip": "ym2612"
    },
    {
      "channel": 1,
      "note": 43,
      "start": 87.1091,
      "duration": 0.024,
      "velocity": 124,
      "chip": "ym2612"
    },
    {
      "channel": 1,
      "note": 39,
      "start": 87.2684,
      "duration": 0.0284,
      "velocity": 124,
      "chip": "ym2612"
    },
    {
      "channel": 2,
      "note": 84,
      "start": 87.2693,
      "duration": 0.3358,
      "velocity": 94,
      "chip": "ym2612"
    },
    {
      "channel": 4,
      "note": 79,
      "start": 87.2702,
      "duration": 0.6736,
      "velocity": 94,
      "chip": "ym2612"
    },
    {
      "channel": 1,
      "note": 51,
      "start": 87.4456,
      "duration": 0.0245,
      "velocity": 127,
      "chip": "ym2612"
    },
    {
      "channel": 2,
      "note": 87,
      "start": 87.6055,
      "duration": 0.3374,
      "velocity": 94,
      "chip": "ym2612"
    },
    {
      "channel": 1,
      "note": 48,
      "start": 87.7826,
      "duration": 0.0246,
      "velocity": 124,
      "chip": "ym2612"
    },
    {
      "channel": 0,
      "note": 58,
      "start": 87.9424,
      "duration": 0.4522,
      "velocity": 92,
      "chip": "ym2612"
    },
    {
      "channel": 2,
      "note": 82,
      "start": 87.9433,
      "duration": 0.1771,
      "velocity": 94,
      "chip": "ym2612"
    },
    {
      "channel": 4,
      "note": 77,
      "start": 87.9442,
      "duration": 0.1771,
      "velocity": 94,
      "chip": "ym2612"
    },
    {
      "channel": 1,
      "note": 51,
      "start": 88.1199,
      "duration": 0.0244,
      "velocity": 127,
      "chip": "ym2612"
    },
    {
      "channel": 2,
      "note": 82,
      "start": 88.1207,
      "duration": 0.3329,
      "velocity": 94,
      "chip": "ym2612"
    },
    {
      "channel": 4,
      "note": 77,
      "start": 88.1216,
      "duration": 0.6653,
      "velocity": 94,
      "chip": "ym2612"
    },
    {
      "channel": 1,
      "note": 39,
      "start": 88.2833,
      "duration": 0.0536,
      "velocity": 124,
      "chip": "ym2612"
    },
    {
      "channel": 0,
      "note": 51,
      "start": 88.4531,
      "duration": 0.7505,
      "velocity": 92,
      "chip": "ym2612"
    },
    {
      "channel": 2,
      "note": 87,
      "start": 88.454,
      "duration": 0.3312,
      "velocity": 94,
      "chip": "ym2612"
    },
    {
      "channel": 1,
      "note": 27,
      "start": 88.7848,
      "duration": 0.024,
      "velocity": 125,
      "chip": "ym2612"
    },
    {
      "channel": 2,
      "note": 84,
      "start": 88.7857,
      "duration": 0.3361,
      "velocity": 94,
      "chip": "ym2612"
    },
    {
      "channel": 4,
      "note": 79,
      "start": 88.7872,
      "duration": 0.5052,
      "velocity": 94,
      "chip": "ym2612"
    },
    {
      "channel": 5,
      "note": 80,
      "start": 88.788,
      "duration": 2.5162,
      "velocity": 81,
      "chip": "ym2612"
    },
    {
      "channel": 1,
      "note": 48,
      "start": 89.1213,
      "duration": 0.0246,
      "velocity": 124,
      "chip": "ym2612"
    },
    {
      "channel": 2,
      "note": 87,
      "start": 89.1222,
      "duration": 0.1691,
      "velocity": 94,
      "chip": "ym2612"
    },
    {
      "channel": 3,
      "note": 70,
      "start": 89.1229,
      "duration": 0.1691,
      "velocity": 99,
      "chip": "ym2612"
    },
    {
      "channel": 0,
      "note": 56,
      "start": 89.2908,
      "duration": 0.4424,
      "velocity": 92,
      "chip": "ym2612"
    },
    {
      "channel": 2,
      "note": 82,
      "start": 89.2916,
      "duration": 0.3359,
      "velocity": 94,
      "chip": "ym2612"
    },
    {
      "channel": 4,
      "note": 77,
      "start": 89.2928,
      "duration": 0.6737,
      "velocity": 94,
      "chip": "ym2612"
    },
    {
      "channel": 1,
      "note": 51,
      "start": 89.4584,
      "duration": 0.0246,
      "velocity": 127,
      "chip": "ym2612"
    },
    {
      "channel": 2,
      "note": 87,
      "start": 89.6279,
      "duration": 0.3375,
      "velocity": 94,
      "chip": "ym2612"
    },
    {
      "channel": 3,
      "note": 68,
      "start": 89.6287,
      "duration": 0.1678,
      "velocity": 99,
      "chip": "ym2612"
    },
    {
      "channel": 0,
      "note": 63,
      "start": 89.7915,
      "duration": 0.7604,
      "velocity": 92,
      "chip": "ym2612"
    },
    {
      "channel": 1,
      "note": 43,
      "start": 89.796,
      "duration": 0.024,
      "velocity": 124,
      "chip": "ym2612"
    },
    {
      "channel": 1,
      "note": 39,
      "start": 89.9649,
      "duration": 0.0284,
      "velocity": 124,
      "chip": "ym2612"
    },
    {
      "channel": 2,
      "note": 84,
      "start": 89.9657,
      "duration": 0.3359,
      "velocity": 94,
      "chip": "ym2612"
    },
    {
      "channel": 4,
      "note": 79,
      "start": 89.9669,
      "duration": 0.6646,
      "velocity": 94,
      "chip": "ym2612"
    },
    {
      "channel": 1,
      "note": 51,
      "start": 90.1326,
      "duration": 0.0245,
      "velocity": 127,
      "chip": "ym2612"
    },
    {
      "channel": 3,
      "note": 67,
      "start": 90.1336,
      "duration": 0.169,
      "velocity": 99,
      "chip": "ym2612"
    },
    {
      "channel": 2,
      "note": 87,
      "start": 90.3022,
      "duration": 0.3276,
      "velocity": 94,
      "chip": "ym2612"
    },
    {
      "channel": 1,
      "note": 48,
      "start": 90.4696,
      "duration": 0.0246,
      "velocity": 124,
      "chip": "ym2612"
    },
    {
      "channel": 0,
      "note": 56,
      "start": 90.6293,
      "duration": 0.4522,
      "velocity": 92,
      "chip": "ym2612"
    },
    {
      "channel": 2,
      "note": 82,
      "start": 90.6302,
      "duration": 0.1771,
      "velocity": 94,
      "chip": "ym2612"
    },
    {
      "channel": 3,
      "note": 68,
      "start": 90.6311,
      "duration": 0.177,
      "velocity": 99,
      "chip": "ym2612"
    },
    {
      "channel": 4,
      "note": 77,
      "start": 90.6318,
      "duration": 0.1766,
      "velocity": 94,
      "chip": "ym2612"
    },
    {
      "channel": 1,
      "note": 51,
      "start": 90.8069,
      "duration": 0.0244,
      "velocity": 127,
      "chip": "ym2612"
    },
    {
      "channel": 2,
      "note": 82,
      "start": 90.8077,
      "duration": 0.3328,
      "velocity": 94,
      "chip": "ym2612"
    },
    {
      "channel": 4,
      "note": 77,
      "start": 90.8088,
      "duration": 0.6758,
      "velocity": 94,
      "chip": "ym2612"
    },
    {
      "channel": 1,
      "note": 39,
      "start": 90.9703,
      "duration": 0.0535,
      "velocity": 124,
      "chip": "ym2612"
    },
    {
      "channel": 0,
      "note": 51,
      "start": 91.1398,
      "duration": 0.3076,
      "velocity": 92,
      "chip": "ym2612"
    },
    {
      "channel": 2,
      "note": 94,
      "start": 91.1408,
      "duration": 0.3419,
      "velocity": 94,
      "chip": "ym2612"
    },
    {
      "channel": 3,
      "note": 70,
      "start": 91.1416,
      "duration": 0.1618,
      "velocity": 99,
      "chip": "ym2612"
    },
    {
      "channel": 3,
      "note": 69,
      "start": 91.3038,
      "duration": 0.0863,
      "velocity": 99,
      "chip": "ym2612"
    },
    {
      "channel": 3,
      "note": 68,
      "start": 91.3904,
      "duration": 0.0932,
      "velocity": 99,
      "chip": "ym2612"
    },
    {
      "channel": 0,
      "note": 48,
      "start": 91.4768,
      "duration": 0.4426,
      "velocity": 92,
      "chip": "ym2612"
    },
    {
      "channel": 1,
      "note": 27,
      "start": 91.482,
      "duration": 0.0234,
      "velocity": 125,
      "chip": "ym2612"
    },
    {
      "channel": 2,
      "note": 84,
      "start": 91.4831,
      "duration": 0.3351,
      "velocity": 94,
      "chip": "ym2612"
    },
    {
      "channel": 3,
      "note": 67,
      "start": 91.484,
      "duration": 0.3008,
      "velocity": 99,
      "chip": "ym2612"
    },
    {
      "channel": 4,
      "note": 79,
      "start": 91.4849,
      "duration": 0.4948,
      "velocity": 94,
      "chip": "ym2612"
    },
    {
      "channel": 5,
      "note": 79,
      "start": 91.4862,
      "duration": 2.5146,
      "velocity": 81,
      "chip": "ym2612"
    },
    {
      "channel": 1,
      "note": 48,
      "start": 91.8178,
      "duration": 0.0247,
      "velocity": 124,
      "chip": "ym2612"
    },
    {
      "channel": 2,
      "note": 87,
      "start": 91.8187,
      "duration": 0.1593,
      "velocity": 94,
      "chip": "ym2612"
    },
    {
      "channel": 3,
      "note": 67,
      "start": 91.8195,
      "duration": 0.1595,
      "velocity": 99,
      "chip": "ym2612"
    },
    {
      "channel": 0,
      "note": 55,
      "start": 91.9776,
      "duration": 0.4522,
      "velocity": 92,
      "chip": "ym2612"
    },
    {
      "channel": 2,
      "note": 82,
      "start": 91.9785,
      "duration": 0.336,
      "velocity": 94,
      "chip": "ym2612"
    },
    {
      "channel": 3,
      "note": 70,
      "start": 91.9793,
      "duration": 0.1763,
      "velocity": 99,
      "chip": "ym2612"
    },
    {
      "channel": 4,
      "note": 77,
      "start": 91.9801,
      "duration": 0.6739,
      "velocity": 94,
      "chip": "ym2612"
    },
    {
      "channel": 1,
      "note": 51,
      "start": 92.1551,
      "duration": 0.0147,
      "velocity": 127,
      "chip": "ym2612"
    },
    {
      "channel": 2,
      "note": 87,
      "start": 92.3149,
      "duration": 0.3376,
      "velocity": 94,
      "chip": "ym2612"
    },
    {
      "channel": 3,
      "note": 70,
      "start": 92.3156,
      "duration": 0.1679,
      "velocity": 99,
      "chip": "ym2612"
    },
    {
      "channel": 0,
      "note": 62,
      "start": 92.4785,
      "duration": 0.7602,
      "velocity": 92,
      "chip": "ym2612"
    },
    {
      "channel": 1,
      "note": 43,
      "start": 92.483,
      "duration": 0.024,
      "velocity": 124,
      "chip": "ym2612"
    },
    {
      "channel": 1,
      "note": 39,
      "start": 92.6519,
      "duration": 0.0284,
      "velocity": 124,
      "chip": "ym2612"
    },
    {
      "channel": 2,
      "note": 84,
      "start": 92.6528,
      "duration": 0.3359,
      "velocity": 94,
      "chip": "ym2612"
    },
    {
      "channel": 3,
      "note": 75,
      "start": 92.6535,
      "duration": 0.1666,
      "velocity": 99,
      "chip": "ym2612"
    },
    {
      "channel": 4,
      "note": 79,
      "start": 92.6544,
      "duration": 0.6736,
      "velocity": 94,
      "chip": "ym2612"
    },
    {
      "channel": 1,
      "note": 51,
      "start": 92.8196,
      "duration": 0.0244,
      "velocity": 127,
      "chip": "ym2612"
    },
    {
      "channel": 2,
      "note": 87,
      "start": 92.989,
      "duration": 0.3373,
      "velocity": 94,
      "chip": "ym2612"
    },
    {
      "channel": 3,
      "note": 75,
      "start": 92.9898,
      "duration": 0.1673,
      "velocity": 99,
      "chip": "ym2612"
    },
    {
      "channel": 1,
      "note": 48,
      "start": 93.1566,
      "duration": 0.0245,
      "velocity": 124,
      "chip": "ym2612"
    },
    {
      "channel": 0,
      "note": 60,
      "start": 93.3259,
      "duration": 0.4426,
      "velocity": 92,
      "chip": "ym2612"
    },
    {
      "channel": 2,
      "note": 82,
      "start": 93.3267,
      "duration": 0.1673,
      "velocity": 94,
      "chip": "ym2612"
    },
    {
      "channel": 3,
      "note": 79,
      "start": 93.3275,
      "duration": 0.1673,
      "velocity": 99,
      "chip": "ym2612"
    },
    {
      "channel": 4,
      "note": 77,
      "start": 93.3283,
      "duration": 0.1668,
      "velocity": 94,
      "chip": "ym2612"
    },
    {
      "channel": 1,
      "note": 51,
      "start": 93.4937,
      "duration": 0.0245,
      "velocity": 127,
      "chip": "ym2612"
    },
    {
      "channel": 2,
      "note": 82,
      "start": 93.4944,
      "duration": 0.3329,
      "velocity": 94,
      "chip": "ym2612"
    },
    {
      "channel": 4,
      "note": 77,
      "start": 93.4956,
      "duration": 0.6773,
      "velocity": 94,
      "chip": "ym2612"
    },
    {
      "channel": 1,
      "note": 39,
      "start": 93.6668,
      "duration": 0.044,
      "velocity": 124,
      "chip": "ym2612"
    },
    {
      "channel": 3,
      "note": 79,
      "start": 93.6676,
      "duration": 0.1604,
      "velocity": 99,
      "chip": "ym2612"
    },
    {
      "channel": 0,
      "note": 55,
      "start": 93.8268,
      "duration": 0.3076,
      "velocity": 92,
      "chip": "ym2612"
    },
    {
      "channel": 2,
      "note": 87,
      "start": 93.8276,
      "duration": 0.3427,
      "velocity": 94,
      "chip": "ym2612"
    },
    {
      "channel": 3,
      "note": 75,
      "start": 93.8284,
      "duration": 0.1716,
      "velocity": 99,
      "chip": "ym2612"
    },
    {
      "channel": 3,
      "note": 70,
      "start": 94.0003,
      "duration": 0.1708,
      "velocity": 99,
      "chip": "ym2612"
    },
    {
      "channel": 0,
      "note": 56,
      "start": 94.1638,
      "duration": 0.4521,
      "velocity": 92,
      "chip": "ym2612"
    },
    {
      "channel": 1,
      "note": 27,
      "start": 94.1692,
      "duration": 0.0232,
      "velocity": 125,
      "chip": "ym2612"
    },
    {
      "channel": 2,
      "note": 83,
      "start": 94.1707,
      "duration": 0.0796,
      "velocity": 94,
      "chip": "ym2612"
    },
    {
      "channel": 3,
      "note": 78,
      "start": 94.1715,
      "duration": 0.1567,
      "velocity": 99,
      "chip": "ym2612"
    },
    {
      "channel": 4,
      "note": 80,
      "start": 94.1733,
      "duration": 0.078,
      "velocity": 94,
      "chip": "ym2612"
    },
    {
      "channel": 5,
      "note": 83,
      "start": 94.1742,
      "duration": 1.2529,
      "velocity": 81,
      "chip": "ym2612"
    },
    {
      "channel": 2,
      "note": 83,
      "start": 94.2507,
      "duration": 0.0767,
      "velocity": 94,
      "chip": "ym2612"
    },
    {
      "channel": 4,
      "note": 80,
      "start": 94.2517,
      "duration": 0.0773,
      "velocity": 94,
      "chip": "ym2612"
    },
    {
      "channel": 2,
      "note": 83,
      "start": 94.3278,
      "duration": 0.0863,
      "velocity": 94,
      "chip": "ym2612"
    },
    {
      "channel": 3,
      "note": 77,
      "start": 94.3286,
      "duration": 0.1776,
      "velocity": 99,
      "chip": "ym2612"
    },
    {
      "channel": 4,
      "note": 80,
      "start": 94.3295,
      "duration": 0.0856,
      "velocity": 94,
      "chip": "ym2612"
    },
    {
      "channel": 2,
      "note": 83,
      "start": 94.4145,
      "duration": 0.0909,
      "velocity": 94,
      "chip": "ym2612"
    },
    {
      "channel": 4,
      "note": 80,
      "start": 94.4155,
      "duration": 0.0916,
      "velocity": 94,
      "chip": "ym2612"
    },
    {
      "channel": 1,
      "note": 48,
      "start": 94.5049,
      "duration": 0.0245,
      "velocity": 124,
      "chip": "ym2612"
    },
    {
      "channel": 2,
      "note": 83,
      "start": 94.5058,
      "duration": 0.0817,
      "velocity": 94,
      "chip": "ym2612"
    },
    {
      "channel": 3,
      "note": 78,
      "start": 94.5065,
      "duration": 0.1594,
      "velocity": 99,
      "chip": "ym2612"
    },
    {
      "channel": 4,
      "note": 80,
      "start": 94.5075,
      "duration": 0.081,
      "velocity": 94,
      "chip": "ym2612"
    },
    {
      "channel": 2,
      "note": 83,
      "start": 94.5878,
      "duration": 0.0773,
      "velocity": 94,
      "chip": "ym2612"
    },
    {
      "channel": 4,
      "note": 80,
      "start": 94.5888,
      "duration": 0.0781,
      "velocity": 94,
      "chip": "ym2612"
    },
    {
      "channel": 0,
      "note": 59,
      "start": 94.6645,
      "duration": 0.4522,
      "velocity": 92,
      "chip": "ym2612"
    },
    {
      "channel": 2,
      "note": 83,
      "start": 94.6656,
      "duration": 0.0856,
      "velocity": 94,
      "chip": "ym2612"
    },
    {
      "channel": 3,
      "note": 79,
      "start": 94.6663,
      "duration": 0.1774,
      "velocity": 99,
      "chip": "ym2612"
    },
    {
      "channel": 4,
      "note": 80,
      "start": 94.6672,
      "duration": 0.0851,
      "velocity": 94,
      "chip": "ym2612"
    },
    {
      "channel": 2,
      "note": 83,
      "start": 94.7515,
      "duration": 0.0912,
      "velocity": 94,
      "chip": "ym2612"
    },
    {
      "channel": 4,
      "note": 80,
      "start": 94.7527,
      "duration": 0.0921,
      "velocity": 94,
      "chip": "ym2612"
    },
    {
      "channel": 1,
      "note": 51,
      "start": 94.842,
      "duration": 0.0245,
      "velocity": 127,
      "chip": "ym2612"
    },
    {
      "channel": 2,
      "note": 87,
      "start": 94.8431,
      "duration": 0.0814,
      "velocity": 94,
      "chip": "ym2612"
    },
    {
      "channel": 3,
      "note": 80,
      "start": 94.844,
      "duration": 0.1586,
      "velocity": 99,
      "chip": "ym2612"
    },
    {
      "channel": 4,
      "note": 83,
      "start": 94.8452,
      "duration": 0.0803,
      "velocity": 94,
      "chip": "ym2612"
    },
    {
      "channel": 2,
      "note": 87,
      "start": 94.9249,
      "duration": 0.0766,
      "velocity": 94,
      "chip": "ym2612"
    },
    {
      "channel": 4,
      "note": 83,
      "start": 94.9259,
      "duration": 0.0776,
      "velocity": 94,
      "chip": "ym2612"
    },
    {
      "channel": 2,
      "note": 87,
      "start": 95.0021,
      "duration": 0.0862,
      "velocity": 94,
      "chip": "ym2612"
    },
    {
      "channel": 3,
      "note": 75,
      "start": 95.0029,
      "duration": 0.1778,
      "velocity": 99,
      "chip": "ym2612"
    },
    {
      "channel": 4,
      "note": 83,
      "start": 95.0038,
      "duration": 0.0854,
      "velocity": 94,
      "chip": "ym2612"
    },
    {
      "channel": 2,
      "note": 87,
      "start": 95.0886,
      "duration": 0.0914,
      "velocity": 94,
      "chip": "ym2612"
    },
    {
      "channel": 4,
      "note": 83,
      "start": 95.0897,
      "duration": 0.092,
      "velocity": 94,
      "chip": "ym2612"
    },
    {
      "channel": 0,
      "note": 66,
      "start": 95.175,
      "duration": 0.3077,
      "velocity": 92,
      "chip": "ym2612"
    },
    {
      "channel": 1,
      "note": 43,
      "start": 95.1794,
      "duration": 0.0241,
      "velocity": 124,
      "chip": "ym2612"
    },
    {
      "channel": 2,
      "note": 87,
      "start": 95.1804,
      "duration": 0.0718,
      "velocity": 94,
      "chip": "ym2612"
    },
    {
      "channel": 3,
      "note": 78,
      "start": 95.1811,
      "duration": 0.159,
      "velocity": 99,
      "chip": "ym2612"
    },
    {
      "channel": 4,
      "note": 83,
      "start": 95.182,
      "duration": 0.0711,
      "velocity": 94,
      "chip": "ym2612"
    },
    {
      "channel": 2,
      "note": 87,
      "start": 95.2524,
      "duration": 0.0869,
      "velocity": 94,
      "chip": "ym2612"
    },
    {
      "channel": 4,
      "note": 83,
      "start": 95.2535,
      "duration": 0.0876,
      "velocity": 94,
      "chip": "ym2612"
    },
    {
      "channel": 1,
      "note": 39,
      "start": 95.3388,
      "duration": 0.0284,
      "velocity": 124,
      "chip": "ym2612"
    },
    {
      "channel": 2,
      "note": 87,
      "start": 95.3397,
      "duration": 0.0856,
      "velocity": 94,
      "chip": "ym2612"
    },
    {
      "channel": 3,
      "note": 75,
      "start": 95.3405,
      "duration": 0.1779,
      "velocity": 99,
      "chip": "ym2612"
    },
    {
      "channel": 4,
      "note": 83,
      "start": 95.3414,
      "duration": 0.085,
      "velocity": 94,
      "chip": "ym2612"
    },
    {
      "channel": 2,
      "note": 87,
      "start": 95.4257,
      "duration": 0.0919,
      "velocity": 94,
      "chip": "ym2612"
    },
    {
      "channel": 4,
      "note": 83,
      "start": 95.4267,
      "duration": 0.093,
      "velocity": 94,
      "chip": "ym2612"
    },
    {
      "channel": 0,
      "note": 65,
      "start": 95.512,
      "duration": 0.4426,
      "velocity": 92,
      "chip": "ym2612"
    },
    {
      "channel": 1,
      "note": 51,
      "start": 95.5167,
      "duration": 0.0239,
      "velocity": 127,
      "chip": "ym2612"
    },
    {
      "channel": 2,
      "note": 85,
      "start": 95.5179,
      "duration": 0.0711,
      "velocity": 94,
      "chip": "ym2612"
    },
    {
      "channel": 3,
      "note": 77,
      "start": 95.5189,
      "duration": 0.1576,
      "velocity": 99,
      "chip": "ym2612"
    },
    {
      "channel": 4,
      "note": 82,
      "start": 95.52,
      "duration": 0.07,
      "velocity": 94,
      "chip": "ym2612"
    },
    {
      "channel": 5,
      "note": 82,
      "start": 95.5208,
      "duration": 1.2546,
      "velocity": 81,
      "chip": "ym2612"
    },
    {
      "channel": 2,
      "note": 85,
      "start": 95.5894,
      "duration": 0.0863,
      "velocity": 94,
      "chip": "ym2612"
    },
    {
      "channel": 4,
      "note": 82,
      "start": 95.5904,
      "duration": 0.0869,
      "velocity": 94,
      "chip": "ym2612"
    },
    {
      "channel": 2,
      "note": 85,
      "start": 95.6761,
      "duration": 0.0863,
      "velocity": 94,
      "chip": "ym2612"
    },
    {
      "channel": 3,
      "note": 76,
      "start": 95.6768,
      "duration": 0.1777,
      "velocity": 99,
      "chip": "ym2612"
    },
    {
      "channel": 4,
      "note": 82,
      "start": 95.6778,
      "duration": 0.0856,
      "velocity": 94,
      "chip": "ym2612"
    },
    {
      "channel": 2,
      "note": 85,
      "start": 95.7627,
      "duration": 0.0909,
      "velocity": 94,
      "chip": "ym2612"
    },
    {
      "channel": 4,
      "note": 82,
      "start": 95.7638,
      "duration": 0.0916,
      "velocity": 94,
      "chip": "ym2612"
    },
    {
      "channel": 1,
      "note": 48,
      "start": 95.8532,
      "duration": 0.0149,
      "velocity": 124,
      "chip": "ym2612"
    },
    {
      "channel": 2,
      "note": 85,
      "start": 95.854,
      "duration": 0.0721,
      "velocity": 94,
      "chip": "ym2612"
    },
    {
      "channel": 3,
      "note": 75,
      "start": 95.8548,
      "duration": 0.1594,
      "velocity": 99,
      "chip": "ym2612"
    },
    {
      "channel": 4,
      "note": 82,
      "start": 95.8558,
      "duration": 0.0714,
      "velocity": 94,
      "chip": "ym2612"
    },
    {
      "channel": 2,
      "note": 85,
      "start": 95.9264,
      "duration": 0.087,
      "velocity": 94,
      "chip": "ym2612"
    },
    {
      "channel": 4,
      "note": 82,
      "start": 95.9275,
      "duration": 0.0876,
      "velocity": 94,
      "chip": "ym2612"
    },
    {
      "channel": 0,
      "note": 56,
      "start": 96.0128,
      "duration": 0.4522,
      "velocity": 92,
      "chip": "ym2612"
    },
    {
      "channel": 2,
      "note": 85,
      "start": 96.0138,
      "duration": 0.0857,
      "velocity": 94,
      "chip": "ym2612"
    },
    {
      "channel": 3,
      "note": 74,
      "start": 96.0146,
      "duration": 0.1676,
      "velocity": 99,
      "chip": "ym2612"
    },
    {
      "channel": 4,
      "note": 82,
      "start": 96.0155,
      "duration": 0.085,
      "velocity": 94,
      "chip": "ym2612"
    },
    {
      "channel": 2,
      "note": 85,
      "start": 96.0998,
      "duration": 0.0817,
      "velocity": 94,
      "chip": "ym2612"
    },
    {
      "channel": 4,
      "note": 82,
      "start": 96.1009,
      "duration": 0.0827,
      "velocity": 94,
      "chip": "ym2612"
    },
    {
      "channel": 1,
      "note": 51,
      "start": 96.1806,
      "duration": 0.0245,
      "velocity": 127,
      "chip": "ym2612"
    },
    {
      "channel": 2,
      "note": 80,
      "start": 96.1818,
      "duration": 0.0813,
      "velocity": 94,
      "chip": "ym2612"
    },
    {
      "channel": 3,
      "note": 73,
      "start": 96.1826,
      "duration": 0.1726,
      "velocity": 99,
      "chip": "ym2612"
    },
    {
      "channel": 4,
      "note": 77,
      "start": 96.1839,
      "duration": 0.0803,
      "velocity": 94,
      "chip": "ym2612"
    },
    {
      "channel": 2,
      "note": 80,
      "start": 96.2635,
      "duration": 0.0908,
      "velocity": 94,
      "chip": "ym2612"
    },
    {
      "channel": 4,
      "note": 77,
      "start": 96.2645,
      "duration": 0.0915,
      "velocity": 94,
      "chip": "ym2612"
    },
    {
      "channel": 1,
      "note": 39,
      "start": 96.3538,
      "duration": 0.0536,
      "velocity": 124,
      "chip": "ym2612"
    },
    {
      "channel": 2,
      "note": 80,
      "start": 96.3547,
      "duration": 0.0817,
      "velocity": 94,
      "chip": "ym2612"
    },
    {
      "channel": 3,
      "note": 69,
      "start": 96.3555,
      "duration": 0.1598,
      "velocity": 99,
      "chip": "ym2612"
    },
    {
      "channel": 4,
      "note": 77,
      "start": 96.3564,
      "duration": 0.081,
      "velocity": 94,
      "chip": "ym2612"
    },
    {
      "channel": 2,
      "note": 80,
      "start": 96.4368,
      "duration": 0.0775,
      "velocity": 94,
      "chip": "ym2612"
    },
    {
      "channel": 4,
      "note": 77,
      "start": 96.4379,
      "duration": 0.0783,
      "velocity": 94,
      "chip": "ym2612"
    },
    {
      "channel": 0,
      "note": 49,
      "start": 96.5137,
      "duration": 0.3076,
      "velocity": 92,
      "chip": "ym2612"
    },
    {
      "channel": 2,
      "note": 80,
      "start": 96.5147,
      "duration": 0.0855,
      "velocity": 94,
      "chip": "ym2612"
    },
    {
      "channel": 3,
      "note": 65,
      "start": 96.5156,
      "duration": 0.2587,
      "velocity": 99,
      "chip": "ym2612"
    },
    {
      "channel": 4,
      "note": 77,
      "start": 96.5166,
      "duration": 0.0846,
      "velocity": 94,
      "chip": "ym2612"
    },
    {
      "channel": 2,
      "note": 80,
      "start": 96.6006,
      "duration": 0.0863,
      "velocity": 94,
      "chip": "ym2612"
    },
    {
      "channel": 4,
      "note": 77,
      "start": 96.6016,
      "duration": 0.0863,
      "velocity": 94,
      "chip": "ym2612"
    },
    {
      "channel": 2,
      "note": 80,
      "start": 96.6872,
      "duration": 0.0863,
      "velocity": 94,
      "chip": "ym2612"
    },
    {
      "channel": 4,
      "note": 77,
      "start": 96.6883,
      "duration": 0.0864,
      "velocity": 94,
      "chip": "ym2612"
    },
    {
      "channel": 2,
      "note": 80,
      "start": 96.7739,
      "duration": 0.083,
      "velocity": 94,
      "chip": "ym2612"
    },
    {
      "channel": 4,
      "note": 77,
      "start": 96.7751,
      "duration": 0.087,
      "velocity": 94,
      "chip": "ym2612"
    },
    {
      "channel": 0,
      "note": 54,
      "start": 96.8507,
      "duration": 0.4522,
      "velocity": 92,
      "chip": "ym2612"
    },
    {
      "channel": 1,
      "note": 27,
      "start": 96.856,
      "duration": 0.0232,
      "velocity": 125,
      "chip": "ym2612"
    },
    {
      "channel": 2,
      "note": 82,
      "start": 96.8573,
      "duration": 0.08,
      "velocity": 94,
      "chip": "ym2612"
    },
    {
      "channel": 4,
      "note": 78,
      "start": 96.8625,
      "duration": 0.0758,
      "velocity": 94,
      "chip": "ym2612"
    },
    {
      "channel": 5,
      "note": 82,
      "start": 96.8633,
      "duration": 2.5129,
      "velocity": 81,
      "chip": "ym2612"
    },
    {
      "channel": 2,
      "note": 82,
      "start": 96.9376,
      "duration": 0.0864,
      "velocity": 94,
      "chip": "ym2612"
    },
    {
      "channel": 4,
      "note": 78,
      "start": 96.9386,
      "duration": 0.0863,
      "velocity": 94,
      "chip": "ym2612"
    },
    {
      "channel": 2,
      "note": 82,
      "start": 97.0243,
      "duration": 0.0767,
      "velocity": 94,
      "chip": "ym2612"
    },
    {
      "channel": 4,
      "note": 78,
      "start": 97.0254,
      "duration": 0.0768,
      "velocity": 94,
      "chip": "ym2612"
    },
    {
      "channel": 2,
      "note": 82,
      "start": 97.1014,
      "duration": 0.0908,
      "velocity": 94,
      "chip": "ym2612"
    },
    {
      "channel": 4,
      "note": 78,
      "start": 97.1025,
      "duration": 0.0906,
      "velocity": 94,
      "chip": "ym2612"
    },
    {
      "channel": 1,
      "note": 48,
      "start": 97.1916,
      "duration": 0.0247,
      "velocity": 124,
      "chip": "ym2612"
    },
    {
      "channel": 2,
      "note": 82,
      "start": 97.1925,
      "duration": 0.0819,
      "velocity": 94,
      "chip": "ym2612"
    },
    {
      "channel": 4,
      "note": 78,
      "start": 97.1935,
      "duration": 0.0818,
      "velocity": 94,
      "chip": "ym2612"
    },
    {
      "channel": 2,
      "note": 82,
      "start": 97.2747,
      "duration": 0.0871,
      "velocity": 94,
      "chip": "ym2612"
    },
    {
      "channel": 4,
      "note": 78,
      "start": 97.2757,
      "duration": 0.0871,
      "velocity": 94,
      "chip": "ym2612"
    },
    {
      "channel": 0,
      "note": 61,
      "start": 97.3612,
      "duration": 0.4425,
      "velocity": 92,
      "chip": "ym2612"
    },
    {
      "channel": 2,
      "note": 82,
      "start": 97.3622,
      "duration": 0.0759,
      "velocity": 94,
      "chip": "ym2612"
    },
    {
      "channel": 4,
      "note": 78,
      "start": 97.3632,
      "duration": 0.076,
      "velocity": 94,
      "chip": "ym2612"
    },
    {
      "channel": 2,
      "note": 82,
      "start": 97.4385,
      "duration": 0.0912,
      "velocity": 94,
      "chip": "ym2612"
    },
    {
      "channel": 4,
      "note": 78,
      "start": 97.4396,
      "duration": 0.0921,
      "velocity": 94,
      "chip": "ym2612"
    },
    {
      "channel": 1,
      "note": 51,
      "start": 97.5288,
      "duration": 0.0246,
      "velocity": 127,
      "chip": "ym2612"
    },
    {
      "channel": 2,
      "note": 85,
      "start": 97.53,
      "duration": 0.0814,
      "velocity": 94,
      "chip": "ym2612"
    },
    {
      "channel": 3,
      "note": 97,
      "start": 97.5308,
      "duration": 0.168,
      "velocity": 92,
      "chip": "ym2612"
    },
    {
      "channel": 4,
      "note": 82,
      "start": 97.5321,
      "duration": 0.0803,
      "velocity": 94,
      "chip": "ym2612"
    },
    {
      "channel": 2,
      "note": 85,
      "start": 97.6118,
      "duration": 0.0863,
      "velocity": 94,
      "chip": "ym2612"
    },
    {
      "channel": 4,
      "note": 82,
      "start": 97.6128,
      "duration": 0.0866,
      "velocity": 94,
      "chip": "ym2612"
    },
    {
      "channel": 2,
      "note": 85,
      "start": 97.6984,
      "duration": 0.0767,
      "velocity": 94,
      "chip": "ym2612"
    },
    {
      "channel": 4,
      "note": 82,
      "start": 97.6997,
      "duration": 0.0765,
      "velocity": 94,
      "chip": "ym2612"
    },
    {
      "channel": 2,
      "note": 85,
      "start": 97.7755,
      "duration": 0.0914,
      "velocity": 94,
      "chip": "ym2612"
    },
    {
      "channel": 4,
      "note": 82,
      "start": 97.7766,
      "duration": 0.0922,
      "velocity": 94,
      "chip": "ym2612"
    },
    {
      "channel": 0,
      "note": 66,
      "start": 97.8619,
      "duration": 0.7604,
      "velocity": 92,
      "chip": "ym2612"
    },
    {
      "channel": 1,
      "note": 43,
      "start": 97.8664,
      "duration": 0.0241,
      "velocity": 124,
      "chip": "ym2612"
    },
    {
      "channel": 2,
      "note": 85,
      "start": 97.8673,
      "duration": 0.0812,
      "velocity": 94,
      "chip": "ym2612"
    },
    {
      "channel": 3,
      "note": 99,
      "start": 97.868,
      "duration": 0.159,
      "velocity": 92,
      "chip": "ym2612"
    },
    {
      "channel": 4,
      "note": 82,
      "start": 97.8691,
      "duration": 0.0804,
      "velocity": 94,
      "chip": "ym2612"
    },
    {
      "channel": 2,
      "note": 85,
      "start": 97.9488,
      "duration": 0.0774,
      "velocity": 94,
      "chip": "ym2612"
    },
    {
      "channel": 4,
      "note": 82,
      "start": 97.9498,
      "duration": 0.0777,
      "velocity": 94,
      "chip": "ym2612"
    },
    {
      "channel": 1,
      "note": 39,
      "start": 98.0257,
      "duration": 0.0285,
      "velocity": 124,
      "chip": "ym2612"
    },
    {
      "channel": 2,
      "note": 85,
      "start": 98.0266,
      "duration": 0.0856,
      "velocity": 94,
      "chip": "ym2612"
    },
    {
      "channel": 4,
      "note": 82,
      "start": 98.0279,
      "duration": 0.0853,
      "velocity": 94,
      "chip": "ym2612"
    },
    {
      "channel": 2,
      "note": 85,
      "start": 98.1126,
      "duration": 0.0913,
      "velocity": 94,
      "chip": "ym2612"
    },
    {
      "channel": 4,
      "note": 82,
      "start": 98.1136,
      "duration": 0.0923,
      "velocity": 94,
      "chip": "ym2612"
    },
    {
      "channel": 1,
      "note": 51,
      "start": 98.2032,
      "duration": 0.0244,
      "velocity": 127,
      "chip": "ym2612"
    },
    {
      "channel": 2,
      "note": 90,
      "start": 98.2043,
      "duration": 0.0814,
      "velocity": 94,
      "chip": "ym2612"
    },
    {
      "channel": 3,
      "note": 101,
      "start": 98.2051,
      "duration": 0.4367,
      "velocity": 92,
      "chip": "ym2612"
    },
    {
      "channel": 4,
      "note": 85,
      "start": 98.2063,
      "duration": 0.0805,
      "velocity": 94,
      "chip": "ym2612"
    },
    {
      "channel": 2,
      "note": 90,
      "start": 98.2861,
      "duration": 0.0765,
      "velocity": 94,
      "chip": "ym2612"
    },
    {
      "channel": 4,
      "note": 85,
      "start": 98.2871,
      "duration": 0.0766,
      "velocity": 94,
      "chip": "ym2612"
    },
    {
      "channel": 2,
      "note": 90,
      "start": 98.3629,
      "duration": 0.0864,
      "velocity": 94,
      "chip": "ym2612"
    },
    {
      "channel": 4,
      "note": 85,
      "start": 98.364,
      "duration": 0.0863,
      "velocity": 94,
      "chip": "ym2612"
    },
    {
      "channel": 2,
      "note": 90,
      "start": 98.4496,
      "duration": 0.091,
      "velocity": 94,
      "chip": "ym2612"
    },
    {
      "channel": 4,
      "note": 85,
      "start": 98.4507,
      "duration": 0.0909,
      "velocity": 94,
      "chip": "ym2612"
    },
    {
      "channel": 1,
      "note": 48,
      "start": 98.54,
      "duration": 0.0246,
      "velocity": 124,
      "chip": "ym2612"
    },
    {
      "channel": 2,
      "note": 90,
      "start": 98.5409,
      "duration": 0.0818,
      "velocity": 94,
      "chip": "ym2612"
    },
    {
      "channel": 4,
      "note": 85,
      "start": 98.542,
      "duration": 0.0818,
      "velocity": 94,
      "chip": "ym2612"
    },
    {
      "channel": 2,
      "note": 90,
      "start": 98.6231,
      "duration": 0.0774,
      "velocity": 94,
      "chip": "ym2612"
    },
    {
      "channel": 4,
      "note": 85,
      "start": 98.6241,
      "duration": 0.0781,
      "velocity": 94,
      "chip": "ym2612"
    },
    {
      "channel": 0,
      "note": 54,
      "start": 98.6998,
      "duration": 0.4522,
      "velocity": 92,
      "chip": "ym2612"
    },
    {
      "channel": 2,
      "note": 90,
      "start": 98.7008,
      "duration": 0.0856,
      "velocity": 94,
      "chip": "ym2612"
    },
    {
      "channel": 3,
      "note": 97,
      "start": 98.7016,
      "duration": 0.1772,
      "velocity": 92,
      "chip": "ym2612"
    },
    {
      "channel": 4,
      "note": 85,
      "start": 98.7026,
      "duration": 0.0847,
      "velocity": 94,
      "chip": "ym2612"
    },
    {
      "channel": 2,
      "note": 90,
      "start": 98.7867,
      "duration": 0.0913,
      "velocity": 94,
      "chip": "ym2612"
    },
    {
      "channel": 4,
      "note": 85,
      "start": 98.7877,
      "duration": 0.0919,
      "velocity": 94,
      "chip": "ym2612"
    },
    {
      "channel": 1,
      "note": 51,
      "start": 98.8771,
      "duration": 0.0245,
      "velocity": 127,
      "chip": "ym2612"
    },
    {
      "channel": 2,
      "note": 94,
      "start": 98.8784,
      "duration": 0.0717,
      "velocity": 94,
      "chip": "ym2612"
    },
    {
      "channel": 4,
      "note": 90,
      "start": 98.88,
      "duration": 0.0711,
      "velocity": 94,
      "chip": "ym2612"
    },
    {
      "channel": 2,
      "note": 94,
      "start": 98.9504,
      "duration": 0.0907,
      "velocity": 94,
      "chip": "ym2612"
    },
    {
      "channel": 4,
      "note": 90,
      "start": 98.9514,
      "duration": 0.0914,
      "velocity": 94,
      "chip": "ym2612"
    },
    {
      "channel": 1,
      "note": 39,
      "start": 99.0406,
      "duration": 0.0536,
      "velocity": 124,
      "chip": "ym2612"
    },
    {
      "channel": 2,
      "note": 94,
      "start": 99.0415,
      "duration": 0.082,
      "velocity": 94,
      "chip": "ym2612"
    },
    {
      "channel": 3,
      "note": 99,
      "start": 99.0423,
      "duration": 0.1694,
      "velocity": 92,
      "chip": "ym2612"
    },
    {
      "channel": 4,
      "note": 90,
      "start": 99.0432,
      "duration": 0.0813,
      "velocity": 94,
      "chip": "ym2612"
    },
    {
      "channel": 2,
      "note": 94,
      "start": 99.1238,
      "duration": 0.0871,
      "velocity": 94,
      "chip": "ym2612"
    },
    {
      "channel": 4,
      "note": 90,
      "start": 99.1248,
      "duration": 0.0874,
      "velocity": 94,
      "chip": "ym2612"
    },
    {
      "channel": 0,
      "note": 56,
      "start": 99.2103,
      "duration": 0.7506,
      "velocity": 92,
      "chip": "ym2612"
    },
    {
      "channel": 2,
      "note": 94,
      "start": 99.2113,
      "duration": 0.0759,
      "velocity": 94,
      "chip": "ym2612"
    },
    {
      "channel": 4,
      "note": 90,
      "start": 99.2126,
      "duration": 0.0756,
      "velocity": 94,
      "chip": "ym2612"
    },
    {
      "channel": 2,
      "note": 94,
      "start": 99.2875,
      "duration": 0.0863,
      "velocity": 94,
      "chip": "ym2612"
    },
    {
      "channel": 4,
      "note": 90,
      "start": 99.2885,
      "duration": 0.087,
      "velocity": 94,
      "chip": "ym2612"
    },
    {
      "channel": 2,
      "note": 94,
      "start": 99.3742,
      "duration": 0.0863,
      "velocity": 94,
      "chip": "ym2612"
    },
    {
      "channel": 3,
      "note": 101,
      "start": 99.375,
      "duration": 0.1789,
      "velocity": 92,
      "chip": "ym2612"
    },
    {
      "channel": 4,
      "note": 90,
      "start": 99.3759,
      "duration": 0.0856,
      "velocity": 94,
      "chip": "ym2612"
    },
    {
      "channel": 2,
      "note": 94,
      "start": 99.4608,
      "duration": 0.0923,
      "velocity": 94,
      "chip": "ym2612"
    },
    {
      "channel": 4,
      "note": 90,
      "start": 99.4619,
      "duration": 0.0933,
      "velocity": 94,
      "chip": "ym2612"
    },
    {
      "channel": 1,
      "note": 27,
      "start": 99.5517,
      "duration": 0.0144,
      "velocity": 125,
      "chip": "ym2612"
    },
    {
      "channel": 2,
      "note": 90,
      "start": 99.5535,
      "duration": 0.3256,
      "velocity": 94,
      "chip": "ym2612"
    },
    {
      "channel": 4,
      "note": 99,
      "start": 99.5556,
      "duration": 0.3253,
      "velocity": 94,
      "chip": "ym2612"
    },
    {
      "channel": 5,
      "note": 83,
      "start": 99.5563,
      "duration": 2.5064,
      "velocity": 81,
      "chip": "ym2612"
    },
    {
      "channel": 1,
      "note": 48,
      "start": 99.8785,
      "duration": 0.0247,
      "velocity": 124,
      "chip": "ym2612"
    },
    {
      "channel": 2,
      "note": 90,
      "start": 99.8795,
      "duration": 0.169,
      "velocity": 94,
      "chip": "ym2612"
    },
    {
      "channel": 3,
      "note": 99,
      "start": 99.8803,
      "duration": 0.1689,
      "velocity": 92,
      "chip": "ym2612"
    },
    {
      "channel": 4,
      "note": 99,
      "start": 99.8813,
      "duration": 0.1684,
      "velocity": 94,
      "chip": "ym2612"
    },
    {
      "channel": 0,
      "note": 63,
      "start": 100.048,
      "duration": 0.4426,
      "velocity": 92,
      "chip": "ym2612"
    },
    {
      "channel": 2,
      "note": 89,
      "start": 100.0488,
      "duration": 0.1673,
      "velocity": 94,
      "chip": "ym2612"
    },
    {
      "channel": 4,
      "note": 97,
      "start": 100.05,
      "duration": 0.1673,
      "velocity": 94,
      "chip": "ym2612"
    },
    {
      "channel": 1,
      "note": 51,
      "start": 100.2157,
      "duration": 0.0246,
      "velocity": 127,
      "chip": "ym2612"
    },
    {
      "channel": 3,
      "note": 101,
      "start": 100.2169,
      "duration": 0.1689,
      "velocity": 92,
      "chip": "ym2612"
    },
    {
      "channel": 2,
      "note": 89,
      "start": 100.3854,
      "duration": 0.1685,
      "velocity": 94,
      "chip": "ym2612"
    },
    {
      "channel": 4,
      "note": 97,
      "start": 100.3865,
      "duration": 0.1685,
      "velocity": 94,
      "chip": "ym2612"
    },
    {
      "channel": 0,
      "note": 68,
      "start": 100.5489,
      "duration": 0.7603,
      "velocity": 92,
      "chip": "ym2612"
    },
    {
      "channel": 1,
      "note": 43,
      "start": 100.5535,
      "duration": 0.0239,
      "velocity": 124,
      "chip": "ym2612"
    },
    {
      "channel": 3,
      "note": 102,
      "start": 100.5547,
      "duration": 0.1695,
      "velocity": 92,
      "chip": "ym2612"
    },
    {
      "channel": 1,
      "note": 39,
      "start": 100.7222,
      "duration": 0.0285,
      "velocity": 124,
      "chip": "ym2612"
    },
    {
      "channel": 2,
      "note": 87,
      "start": 100.7238,
      "duration": 0.0753,
      "velocity": 94,
      "chip": "ym2612"
    },
    {
      "channel": 4,
      "note": 95,
      "start": 100.7257,
      "duration": 0.0744,
      "velocity": 94,
      "chip": "ym2612"
    },
    {
      "channel": 2,
      "note": 87,
      "start": 100.7995,
      "duration": 0.091,
      "velocity": 94,
      "chip": "ym2612"
    },
    {
      "channel": 4,
      "note": 95,
      "start": 100.8005,
      "duration": 0.0919,
      "velocity": 94,
      "chip": "ym2612"
    },
    {
      "channel": 1,
      "note": 51,
      "start": 100.89,
      "duration": 0.0244,
      "velocity": 127,
      "chip": "ym2612"
    },
    {
      "channel": 2,
      "note": 87,
      "start": 100.8909,
      "duration": 0.0815,
      "velocity": 94,
      "chip": "ym2612"
    },
    {
      "channel": 3,
      "note": 104,
      "start": 100.8918,
      "duration": 0.3021,
      "velocity": 92,
      "chip": "ym2612"
    },
    {
      "channel": 4,
      "note": 95,
      "start": 100.8928,
      "duration": 0.0807,
      "velocity": 94,
      "chip": "ym2612"
    },
    {
      "channel": 2,
      "note": 87,
      "start": 100.9729,
      "duration": 0.0863,
      "velocity": 94,
      "chip": "ym2612"
    },
    {
      "channel": 4,
      "note": 95,
      "start": 100.9739,
      "duration": 0.0863,
      "velocity": 94,
      "chip": "ym2612"
    },
    {
      "channel": 2,
      "note": 87,
      "start": 101.0595,
      "duration": 0.0768,
      "velocity": 94,
      "chip": "ym2612"
    },
    {
      "channel": 4,
      "note": 95,
      "start": 101.0606,
      "duration": 0.0767,
      "velocity": 94,
      "chip": "ym2612"
    },
    {
      "channel": 2,
      "note": 87,
      "start": 101.1366,
      "duration": 0.0908,
      "velocity": 94,
      "chip": "ym2612"
    },
    {
      "channel": 4,
      "note": 95,
      "start": 101.1377,
      "duration": 0.0915,
      "velocity": 94,
      "chip": "ym2612"
    },
    {
      "channel": 1,
      "note": 48,
      "start": 101.2268,
      "duration": 0.0247,
      "velocity": 124,
      "chip": "ym2612"
    },
    {
      "channel": 2,
      "note": 87,
      "start": 101.2278,
      "duration": 0.082,
      "velocity": 94,
      "chip": "ym2612"
    },
    {
      "channel": 3,
      "note": 102,
      "start": 101.2287,
      "duration": 0.1693,
      "velocity": 92,
      "chip": "ym2612"
    },
    {
      "channel": 4,
      "note": 95,
      "start": 101.2295,
      "duration": 0.0812,
      "velocity": 94,
      "chip": "ym2612"
    },
    {
      "channel": 2,
      "note": 87,
      "start": 101.3101,
      "duration": 0.087,
      "velocity": 94,
      "chip": "ym2612"
    },
    {
      "channel": 4,
      "note": 95,
      "start": 101.3111,
      "duration": 0.0877,
      "velocity": 94,
      "chip": "ym2612"
    },
    {
      "channel": 0,
      "note": 56,
      "start": 101.3964,
      "duration": 0.4424,
      "velocity": 92,
      "chip": "ym2612"
    },
    {
      "channel": 2,
      "note": 87,
      "start": 101.3973,
      "duration": 0.076,
      "velocity": 94,
      "chip": "ym2612"
    },
    {
      "channel": 3,
      "note": 104,
      "start": 101.3983,
      "duration": 0.1671,
      "velocity": 92,
      "chip": "ym2612"
    },
    {
      "channel": 4,
      "note": 95,
      "start": 101.3992,
      "duration": 0.0751,
      "velocity": 94,
      "chip": "ym2612"
    },
    {
      "channel": 2,
      "note": 87,
      "start": 101.4736,
      "duration": 0.091,
      "velocity": 94,
      "chip": "ym2612"
    },
    {
      "channel": 4,
      "note": 95,
      "start": 101.4747,
      "duration": 0.0912,
      "velocity": 94,
      "chip": "ym2612"
    },
    {
      "channel": 1,
      "note": 51,
      "start": 101.5641,
      "duration": 0.0245,
      "velocity": 127,
      "chip": "ym2612"
    },
    {
      "channel": 2,
      "note": 87,
      "start": 101.565,
      "duration": 0.0817,
      "velocity": 94,
      "chip": "ym2612"
    },
    {
      "channel": 4,
      "note": 95,
      "start": 101.5663,
      "duration": 0.0814,
      "velocity": 94,
      "chip": "ym2612"
    },
    {
      "channel": 2,
      "note": 87,
      "start": 101.647,
      "duration": 0.081,
      "velocity": 94,
      "chip": "ym2612"
    },
    {
      "channel": 4,
      "note": 95,
      "start": 101.648,
      "duration": 0.0817,
      "velocity": 94,
      "chip": "ym2612"
    },
    {
      "channel": 1,
      "note": 39,
      "start": 101.7275,
      "duration": 0.0537,
      "velocity": 124,
      "chip": "ym2612"
    },
    {
      "channel": 2,
      "note": 87,
      "start": 101.7285,
      "duration": 0.0819,
      "velocity": 94,
      "chip": "ym2612"
    },
    {
      "channel": 3,
      "note": 106,
      "start": 101.7292,
      "duration": 0.1693,
      "velocity": 92,
      "chip": "ym2612"
    },
    {
      "channel": 4,
      "note": 95,
      "start": 101.7301,
      "duration": 0.0813,
      "velocity": 94,
      "chip": "ym2612"
    },
    {
      "channel": 2,
      "note": 87,
      "start": 101.8107,
      "duration": 0.087,
      "velocity": 94,
      "chip": "ym2612"
    },
    {
      "channel": 4,
      "note": 95,
      "start": 101.8117,
      "duration": 0.0873,
      "velocity": 94,
      "chip": "ym2612"
    },
    {
      "channel": 0,
      "note": 58,
      "start": 101.8971,
      "duration": 0.7507,
      "velocity": 92,
      "chip": "ym2612"
    },
    {
      "channel": 2,
      "note": 87,
      "start": 101.8981,
      "duration": 0.0856,
      "velocity": 94,
      "chip": "ym2612"
    },
    {
      "channel": 4,
      "note": 95,
      "start": 101.8994,
      "duration": 0.0853,
      "velocity": 94,
      "chip": "ym2612"
    },
    {
      "channel": 2,
      "note": 87,
      "start": 101.9841,
      "duration": 0.0766,
      "velocity": 94,
      "chip": "ym2612"
    },
    {
      "channel": 4,
      "note": 95,
      "start": 101.9851,
      "duration": 0.077,
      "velocity": 94,
      "chip": "ym2612"
    },
    {
      "channel": 2,
      "note": 87,
      "start": 102.0611,
      "duration": 0.0863,
      "velocity": 94,
      "chip": "ym2612"
    },
    {
      "channel": 4,
      "note": 95,
      "start": 102.0624,
      "duration": 0.086,
      "velocity": 94,
      "chip": "ym2612"
    },
    {
      "channel": 2,
      "note": 87,
      "start": 102.1478,
      "duration": 0.0923,
      "velocity": 94,
      "chip": "ym2612"
    },
    {
      "channel": 4,
      "note": 95,
      "start": 102.1488,
      "duration": 0.0937,
      "velocity": 94,
      "chip": "ym2612"
    },
    {
      "channel": 1,
      "note": 27,
      "start": 102.2388,
      "duration": 0.0239,
      "velocity": 125,
      "chip": "ym2612"
    },
    {
      "channel": 2,
      "note": 89,
      "start": 102.2405,
      "duration": 0.3351,
      "velocity": 94,
      "chip": "ym2612"
    },
    {
      "channel": 3,
      "note": 101,
      "start": 102.2416,
      "duration": 0.0791,
      "velocity": 92,
      "chip": "ym2612"
    },
    {
      "channel": 4,
      "note": 84,
      "start": 102.2429,
      "duration": 0.4945,
      "velocity": 94,
      "chip": "ym2612"
    },
    {
      "channel": 5,
      "note": 85,
      "start": 102.2437,
      "duration": 2.5146,
      "velocity": 81,
      "chip": "ym2612"
    },
    {
      "channel": 3,
      "note": 102,
      "start": 102.3212,
      "duration": 0.0768,
      "velocity": 92,
      "chip": "ym2612"
    },
    {
      "channel": 3,
      "note": 101,
      "start": 102.3983,
      "duration": 0.0861,
      "velocity": 92,
      "chip": "ym2612"
    },
    {
      "channel": 3,
      "note": 102,
      "start": 102.4848,
      "duration": 0.0917,
      "velocity": 92,
      "chip": "ym2612"
    },
    {
      "channel": 1,
      "note": 48,
      "start": 102.5751,
      "duration": 0.0247,
      "velocity": 124,
      "chip": "ym2612"
    },
    {
      "channel": 2,
      "note": 92,
      "start": 102.576,
      "duration": 0.1597,
      "velocity": 94,
      "chip": "ym2612"
    },
    {
      "channel": 3,
      "note": 101,
      "start": 102.5769,
      "duration": 0.0714,
      "velocity": 92,
      "chip": "ym2612"
    },
    {
      "channel": 3,
      "note": 102,
      "start": 102.6487,
      "duration": 0.0878,
      "velocity": 92,
      "chip": "ym2612"
    },
    {
      "channel": 0,
      "note": 65,
      "start": 102.7349,
      "duration": 0.4522,
      "velocity": 92,
      "chip": "ym2612"
    },
    {
      "channel": 2,
      "note": 87,
      "start": 102.736,
      "duration": 0.3359,
      "velocity": 94,
      "chip": "ym2612"
    },
    {
      "channel": 3,
      "note": 101,
      "start": 102.7369,
      "duration": 0.0846,
      "velocity": 92,
      "chip": "ym2612"
    },
    {
      "channel": 4,
      "note": 82,
      "start": 102.7378,
      "duration": 0.6737,
      "velocity": 94,
      "chip": "ym2612"
    },
    {
      "channel": 3,
      "note": 102,
      "start": 102.8219,
      "duration": 0.091,
      "velocity": 92,
      "chip": "ym2612"
    },
    {
      "channel": 1,
      "note": 51,
      "start": 102.9123,
      "duration": 0.0245,
      "velocity": 127,
      "chip": "ym2612"
    },
    {
      "channel": 3,
      "note": 101,
      "start": 102.9133,
      "duration": 0.0721,
      "velocity": 92,
      "chip": "ym2612"
    },
    {
      "channel": 3,
      "note": 102,
      "start": 102.9858,
      "duration": 0.087,
      "velocity": 92,
      "chip": "ym2612"
    },
    {
      "channel": 2,
      "note": 92,
      "start": 103.0723,
      "duration": 0.3374,
      "velocity": 94,
      "chip": "ym2612"
    },
    {
      "channel": 3,
      "note": 101,
      "start": 103.0732,
      "duration": 0.0854,
      "velocity": 92,
      "chip": "ym2612"
    },
    {
      "channel": 3,
      "note": 102,
      "start": 103.159,
      "duration": 0.0916,
      "velocity": 92,
      "chip": "ym2612"
    },
    {
      "channel": 0,
      "note": 70,
      "start": 103.2454,
      "duration": 0.7506,
      "velocity": 92,
      "chip": "ym2612"
    },
    {
      "channel": 1,
      "note": 43,
      "start": 103.25,
      "duration": 0.0143,
      "velocity": 124,
      "chip": "ym2612"
    },
    {
      "channel": 3,
      "note": 101,
      "start": 103.251,
      "duration": 0.0714,
      "velocity": 92,
      "chip": "ym2612"
    },
    {
      "channel": 3,
      "note": 102,
      "start": 103.3227,
      "duration": 0.0879,
      "velocity": 92,
      "chip": "ym2612"
    },
    {
      "channel": 1,
      "note": 39,
      "start": 103.4092,
      "duration": 0.0284,
      "velocity": 124,
      "chip": "ym2612"
    },
    {
      "channel": 2,
      "note": 89,
      "start": 103.4101,
      "duration": 0.336,
      "velocity": 94,
      "chip": "ym2612"
    },
    {
      "channel": 3,
      "note": 101,
      "start": 103.411,
      "duration": 0.0847,
      "velocity": 92,
      "chip": "ym2612"
    },
    {
      "channel": 4,
      "note": 84,
      "start": 103.4118,
      "duration": 0.674,
      "velocity": 94,
      "chip": "ym2612"
    },
    {
      "channel": 3,
      "note": 102,
      "start": 103.496,
      "duration": 0.0815,
      "velocity": 92,
      "chip": "ym2612"
    },
    {
      "channel": 1,
      "note": 51,
      "start": 103.5768,
      "duration": 0.0246,
      "velocity": 127,
      "chip": "ym2612"
    },
    {
      "channel": 3,
      "note": 101,
      "start": 103.5778,
      "duration": 0.0816,
      "velocity": 92,
      "chip": "ym2612"
    },
    {
      "channel": 3,
      "note": 102,
      "start": 103.6598,
      "duration": 0.0872,
      "velocity": 92,
      "chip": "ym2612"
    },
    {
      "channel": 2,
      "note": 92,
      "start": 103.7464,
      "duration": 0.3375,
      "velocity": 94,
      "chip": "ym2612"
    },
    {
      "channel": 3,
      "note": 101,
      "start": 103.7473,
      "duration": 0.0854,
      "velocity": 92,
      "chip": "ym2612"
    },
    {
      "channel": 3,
      "note": 102,
      "start": 103.8331,
      "duration": 0.0813,
      "velocity": 92,
      "chip": "ym2612"
    },
    {
      "channel": 1,
      "note": 48,
      "start": 103.9138,
      "duration": 0.0247,
      "velocity": 124,
      "chip": "ym2612"
    },
    {
      "channel": 3,
      "note": 101,
      "start": 103.9148,
      "duration": 0.0818,
      "velocity": 92,
      "chip": "ym2612"
    },
    {
      "channel": 3,
      "note": 102,
      "start": 103.997,
      "duration": 0.0879,
      "velocity": 92,
      "chip": "ym2612"
    },
    {
      "channel": 0,
      "note": 65,
      "start": 104.0833,
      "duration": 0.4425,
      "velocity": 92,
      "chip": "ym2612"
    },
    {
      "channel": 2,
      "note": 87,
      "start": 104.0842,
      "duration": 0.1671,
      "velocity": 94,
      "chip": "ym2612"
    },
    {
      "channel": 3,
      "note": 101,
      "start": 104.0852,
      "duration": 0.0846,
      "velocity": 92,
      "chip": "ym2612"
    },
    {
      "channel": 4,
      "note": 82,
      "start": 104.0862,
      "duration": 0.167,
      "velocity": 94,
      "chip": "ym2612"
    },
    {
      "channel": 3,
      "note": 102,
      "start": 104.1702,
      "duration": 0.0823,
      "velocity": 92,
      "chip": "ym2612"
    },
    {
      "channel": 1,
      "note": 51,
      "start": 104.251,
      "duration": 0.0245,
      "velocity": 127,
      "chip": "ym2612"
    },
    {
      "channel": 2,
      "note": 87,
      "start": 104.2517,
      "duration": 0.3329,
      "velocity": 94,
      "chip": "ym2612"
    },
    {
      "channel": 3,
      "note": 101,
      "start": 104.2528,
      "duration": 0.0807,
      "velocity": 92,
      "chip": "ym2612"
    },
    {
      "channel": 4,
      "note": 82,
      "start": 104.2536,
      "duration": 0.6767,
      "velocity": 94,
      "chip": "ym2612"
    },
    {
      "channel": 3,
      "note": 102,
      "start": 104.3339,
      "duration": 0.0908,
      "velocity": 92,
      "chip": "ym2612"
    },
    {
      "channel": 1,
      "note": 39,
      "start": 104.4241,
      "duration": 0.0537,
      "velocity": 124,
      "chip": "ym2612"
    },
    {
      "channel": 3,
      "note": 101,
      "start": 104.4251,
      "duration": 0.0722,
      "velocity": 92,
      "chip": "ym2612"
    },
    {
      "channel": 3,
      "note": 102,
      "start": 104.4976,
      "duration": 0.0881,
      "velocity": 92,
      "chip": "ym2612"
    },
    {
      "channel": 0,
      "note": 58,
      "start": 104.584,
      "duration": 0.3078,
      "velocity": 92,
      "chip": "ym2612"
    },
    {
      "channel": 2,
      "note": 92,
      "start": 104.585,
      "duration": 0.3426,
      "velocity": 94,
      "chip": "ym2612"
    },
    {
      "channel": 3,
      "note": 101,
      "start": 104.586,
      "duration": 0.0845,
      "velocity": 92,
      "chip": "ym2612"
    },
    {
      "channel": 3,
      "note": 102,
      "start": 104.671,
      "duration": 0.0865,
      "velocity": 92,
      "chip": "ym2612"
    },
    {
      "channel": 3,
      "note": 101,
      "start": 104.7578,
      "duration": 0.0765,
      "velocity": 92,
      "chip": "ym2612"
    },
    {
      "channel": 3,
      "note": 102,
      "start": 104.8347,
      "duration": 0.094,
      "velocity": 92,
      "chip": "ym2612"
    },
    {
      "channel": 0,
      "note": 53,
      "start": 104.9212,
      "duration": 0.4521,
      "velocity": 92,
      "chip": "ym2612"
    },
    {
      "channel": 1,
      "note": 27,
      "start": 104.9264,
      "duration": 0.0233,
      "velocity": 125,
      "chip": "ym2612"
    },
    {
      "channel": 2,
      "note": 87,
      "start": 104.928,
      "duration": 0.0797,
      "velocity": 94,
      "chip": "ym2612"
    },
    {
      "channel": 3,
      "note": 99,
      "start": 104.929,
      "duration": 0.3001,
      "velocity": 92,
      "chip": "ym2612"
    },
    {
      "channel": 4,
      "note": 80,
      "start": 104.9306,
      "duration": 0.0782,
      "velocity": 94,
      "chip": "ym2612"
    },
    {
      "channel": 5,
      "note": 84,
      "start": 104.9314,
      "duration": 1.253,
      "velocity": 81,
      "chip": "ym2612"
    },
    {
      "channel": 2,
      "note": 87,
      "start": 105.008,
      "duration": 0.0863,
      "velocity": 94,
      "chip": "ym2612"
    },
    {
      "channel": 4,
      "note": 80,
      "start": 105.0091,
      "duration": 0.0863,
      "velocity": 94,
      "chip": "ym2612"
    },
    {
      "channel": 2,
      "note": 87,
      "start": 105.0947,
      "duration": 0.0767,
      "velocity": 94,
      "chip": "ym2612"
    },
    {
      "channel": 4,
      "note": 80,
      "start": 105.0958,
      "duration": 0.0767,
      "velocity": 94,
      "chip": "ym2612"
    },
    {
      "channel": 2,
      "note": 87,
      "start": 105.1718,
      "duration": 0.0908,
      "velocity": 94,
      "chip": "ym2612"
    },
    {
      "channel": 4,
      "note": 80,
      "start": 105.1728,
      "duration": 0.0915,
      "velocity": 94,
      "chip": "ym2612"
    },
    {
      "channel": 1,
      "note": 48,
      "start": 105.262,
      "duration": 0.0247,
      "velocity": 124,
      "chip": "ym2612"
    },
    {
      "channel": 2,
      "note": 87,
      "start": 105.2629,
      "duration": 0.0818,
      "velocity": 94,
      "chip": "ym2612"
    },
    {
      "channel": 3,
      "note": 96,
      "start": 105.2637,
      "duration": 0.1597,
      "velocity": 92,
      "chip": "ym2612"
    },
    {
      "channel": 4,
      "note": 80,
      "start": 105.2646,
      "duration": 0.0812,
      "velocity": 94,
      "chip": "ym2612"
    },
    {
      "channel": 2,
      "note": 87,
      "start": 105.3451,
      "duration": 0.0775,
      "velocity": 94,
      "chip": "ym2612"
    },
    {
      "channel": 4,
      "note": 80,
      "start": 105.3461,
      "duration": 0.0781,
      "velocity": 94,
      "chip": "ym2612"
    },
    {
      "channel": 0,
      "note": 56,
      "start": 105.422,
      "duration": 0.4521,
      "velocity": 92,
      "chip": "ym2612"
    },
    {
      "channel": 2,
      "note": 87,
      "start": 105.4229,
      "duration": 0.0856,
      "velocity": 94,
      "chip": "ym2612"
    },
    {
      "channel": 3,
      "note": 92,
      "start": 105.4238,
      "duration": 0.1768,
      "velocity": 92,
      "chip": "ym2612"
    },
    {
      "channel": 4,
      "note": 80,
      "start": 105.4246,
      "duration": 0.0849,
      "velocity": 94,
      "chip": "ym2612"
    },
    {
      "channel": 2,
      "note": 87,
      "start": 105.5089,
      "duration": 0.0909,
      "velocity": 94,
      "chip": "ym2612"
    },
    {
      "channel": 4,
      "note": 80,
      "start": 105.5099,
      "duration": 0.0912,
      "velocity": 94,
      "chip": "ym2612"
    },
    {
      "channel": 1,
      "note": 51,
      "start": 105.5993,
      "duration": 0.0245,
      "velocity": 127,
      "chip": "ym2612"
    },
    {
      "channel": 2,
      "note": 87,
      "start": 105.6002,
      "duration": 0.0817,
      "velocity": 94,
      "chip": "ym2612"
    },
    {
      "channel": 4,
      "note": 80,
      "start": 105.6014,
      "duration": 0.0814,
      "velocity": 94,
      "chip": "ym2612"
    },
    {
      "channel": 2,
      "note": 87,
      "start": 105.6822,
      "duration": 0.0766,
      "velocity": 94,
      "chip": "ym2612"
    },
    {
      "channel": 4,
      "note": 80,
      "start": 105.6832,
      "duration": 0.0775,
      "velocity": 94,
      "chip": "ym2612"
    },
    {
      "channel": 2,
      "note": 87,
      "start": 105.7593,
      "duration": 0.0863,
      "velocity": 94,
      "chip": "ym2612"
    },
    {
      "channel": 3,
      "note": 89,
      "start": 105.7601,
      "duration": 0.1781,
      "velocity": 92,
      "chip": "ym2612"
    },
    {
      "channel": 4,
      "note": 80,
      "start": 105.761,
      "duration": 0.0856,
      "velocity": 94,
      "chip": "ym2612"
    },
    {
      "channel": 2,
      "note": 87,
      "start": 105.8459,
      "duration": 0.0916,
      "velocity": 94,
      "chip": "ym2612"
    },
    {
      "channel": 4,
      "note": 80,
      "start": 105.847,
      "duration": 0.0918,
      "velocity": 94,
      "chip": "ym2612"
    },
    {
      "channel": 0,
      "note": 63,
      "start": 105.9323,
      "duration": 0.3077,
      "velocity": 92,
      "chip": "ym2612"
    },
    {
      "channel": 1,
      "note": 43,
      "start": 105.9369,
      "duration": 0.0239,
      "velocity": 124,
      "chip": "ym2612"
    },
    {
      "channel": 2,
      "note": 87,
      "start": 105.9378,
      "duration": 0.0812,
      "velocity": 94,
      "chip": "ym2612"
    },
    {
      "channel": 4,
      "note": 80,
      "start": 105.9391,
      "duration": 0.0809,
      "velocity": 94,
      "chip": "ym2612"
    },
    {
      "channel": 2,
      "note": 87,
      "start": 106.0194,
      "duration": 0.0772,
      "velocity": 94,
      "chip": "ym2612"
    },
    {
      "channel": 4,
      "note": 80,
      "start": 106.0205,
      "duration": 0.078,
      "velocity": 94,
      "chip": "ym2612"
    },
    {
      "channel": 1,
      "note": 39,
      "start": 106.0961,
      "duration": 0.0284,
      "velocity": 124,
      "chip": "ym2612"
    },
    {
      "channel": 2,
      "note": 87,
      "start": 106.097,
      "duration": 0.0856,
      "velocity": 94,
      "chip": "ym2612"
    },
    {
      "channel": 3,
      "note": 97,
      "start": 106.0979,
      "duration": 0.4506,
      "velocity": 92,
      "chip": "ym2612"
    },
    {
      "channel": 4,
      "note": 80,
      "start": 106.0989,
      "duration": 0.0847,
      "velocity": 94,
      "chip": "ym2612"
    },
    {
      "channel": 2,
      "note": 87,
      "start": 106.183,
      "duration": 0.0921,
      "velocity": 94,
      "chip": "ym2612"
    },
    {
      "channel": 4,
      "note": 80,
      "start": 106.184,
      "duration": 0.0924,
      "velocity": 94,
      "chip": "ym2612"
    },
    {
      "channel": 0,
      "note": 62,
      "start": 106.2695,
      "duration": 0.4424,
      "velocity": 92,
      "chip": "ym2612"
    },
    {
      "channel": 1,
      "note": 51,
      "start": 106.2742,
      "duration": 0.0237,
      "velocity": 127,
      "chip": "ym2612"
    },
    {
      "channel": 2,
      "note": 89,
      "start": 106.2754,
      "duration": 0.0709,
      "velocity": 94,
      "chip": "ym2612"
    },
    {
      "channel": 4,
      "note": 82,
      "start": 106.2767,
      "duration": 0.0706,
      "velocity": 94,
      "chip": "ym2612"
    },
    {
      "channel": 5,
      "note": 84,
      "start": 106.2775,
      "duration": 1.2551,
      "velocity": 81,
      "chip": "ym2612"
    },
    {
      "channel": 2,
      "note": 89,
      "start": 106.3467,
      "duration": 0.0863,
      "velocity": 94,
      "chip": "ym2612"
    },
    {
      "channel": 4,
      "note": 82,
      "start": 106.3477,
      "duration": 0.0863,
      "velocity": 94,
      "chip": "ym2612"
    },
    {
      "channel": 2,
      "note": 89,
      "start": 106.4334,
      "duration": 0.0863,
      "velocity": 94,
      "chip": "ym2612"
    },
    {
      "channel": 4,
      "note": 82,
      "start": 106.4344,
      "duration": 0.0863,
      "velocity": 94,
      "chip": "ym2612"
    },
    {
      "channel": 2,
      "note": 89,
      "start": 106.5201,
      "duration": 0.0908,
      "velocity": 94,
      "chip": "ym2612"
    },
    {
      "channel": 4,
      "note": 82,
      "start": 106.5211,
      "duration": 0.0915,
      "velocity": 94,
      "chip": "ym2612"
    },
    {
      "channel": 1,
      "note": 48,
      "start": 106.6103,
      "duration": 0.0247,
      "velocity": 124,
      "chip": "ym2612"
    },
    {
      "channel": 2,
      "note": 89,
      "start": 106.6112,
      "duration": 0.0722,
      "velocity": 94,
      "chip": "ym2612"
    },
    {
      "channel": 3,
      "note": 94,
      "start": 106.612,
      "duration": 0.3024,
      "velocity": 92,
      "chip": "ym2612"
    },
    {
      "channel": 4,
      "note": 82,
      "start": 106.6129,
      "duration": 0.0715,
      "velocity": 94,
      "chip": "ym2612"
    },
    {
      "channel": 2,
      "note": 89,
      "start": 106.6838,
      "duration": 0.087,
      "velocity": 94,
      "chip": "ym2612"
    },
    {
      "channel": 4,
      "note": 82,
      "start": 106.6848,
      "duration": 0.087,
      "velocity": 94,
      "chip": "ym2612"
    },
    {
      "channel": 0,
      "note": 58,
      "start": 106.7701,
      "duration": 0.4522,
      "velocity": 92,
      "chip": "ym2612"
    },
    {
      "channel": 2,
      "note": 89,
      "start": 106.7712,
      "duration": 0.0856,
      "velocity": 94,
      "chip": "ym2612"
    },
    {
      "channel": 4,
      "note": 82,
      "start": 106.7722,
      "duration": 0.0856,
      "velocity": 94,
      "chip": "ym2612"
    },
    {
      "channel": 2,
      "note": 89,
      "start": 106.8571,
      "duration": 0.091,
      "velocity": 94,
      "chip": "ym2612"
    },
    {
      "channel": 4,
      "note": 82,
      "start": 106.8582,
      "duration": 0.0918,
      "velocity": 94,
      "chip": "ym2612"
    },
    {
      "channel": 1,
      "note": 51,
      "start": 106.9476,
      "duration": 0.0149,
      "velocity": 127,
      "chip": "ym2612"
    },
    {
      "channel": 2,
      "note": 89,
      "start": 106.9484,
      "duration": 0.072,
      "velocity": 94,
      "chip": "ym2612"
    },
    {
      "channel": 3,
      "note": 89,
      "start": 106.9494,
      "duration": 0.3021,
      "velocity": 92,
      "chip": "ym2612"
    },
    {
      "channel": 4,
      "note": 82,
      "start": 106.9503,
      "duration": 0.0712,
      "velocity": 94,
      "chip": "ym2612"
    },
    {
      "channel": 2,
      "note": 89,
      "start": 107.0208,
      "duration": 0.0907,
      "velocity": 94,
      "chip": "ym2612"
    },
    {
      "channel": 4,
      "note": 82,
      "start": 107.0218,
      "duration": 0.0907,
      "velocity": 94,
      "chip": "ym2612"
    },
    {
      "channel": 1,
      "note": 39,
      "start": 107.111,
      "duration": 0.0537,
      "velocity": 124,
      "chip": "ym2612"
    },
    {
      "channel": 2,
      "note": 89,
      "start": 107.1119,
      "duration": 0.0819,
      "velocity": 94,
      "chip": "ym2612"
    },
    {
      "channel": 4,
      "note": 82,
      "start": 107.1129,
      "duration": 0.0819,
      "velocity": 94,
      "chip": "ym2612"
    },
    {
      "channel": 2,
      "note": 89,
      "start": 107.1942,
      "duration": 0.0775,
      "velocity": 94,
      "chip": "ym2612"
    },
    {
      "channel": 4,
      "note": 82,
      "start": 107.1953,
      "duration": 0.0777,
      "velocity": 94,
      "chip": "ym2612"
    },
    {
      "channel": 0,
      "note": 53,
      "start": 107.271,
      "duration": 0.3076,
      "velocity": 92,
      "chip": "ym2612"
    },
    {
      "channel": 2,
      "note": 89,
      "start": 107.272,
      "duration": 0.0855,
      "velocity": 94,
      "chip": "ym2612"
    },
    {
      "channel": 4,
      "note": 82,
      "start": 107.2734,
      "duration": 0.0852,
      "velocity": 94,
      "chip": "ym2612"
    },
    {
      "channel": 2,
      "note": 89,
      "start": 107.3579,
      "duration": 0.0863,
      "velocity": 94,
      "chip": "ym2612"
    },
    {
      "channel": 4,
      "note": 82,
      "start": 107.3589,
      "duration": 0.0863,
      "velocity": 94,
      "chip": "ym2612"
    },
    {
      "channel": 2,
      "note": 89,
      "start": 107.4446,
      "duration": 0.0863,
      "velocity": 94,
      "chip": "ym2612"
    },
    {
      "channel": 4,
      "note": 82,
      "start": 107.4456,
      "duration": 0.0863,
      "velocity": 94,
      "chip": "ym2612"
    },
    {
      "channel": 2,
      "note": 89,
      "start": 107.5313,
      "duration": 0.0833,
      "velocity": 94,
      "chip": "ym2612"
    },
    {
      "channel": 4,
      "note": 82,
      "start": 107.5323,
      "duration": 0.0853,
      "velocity": 94,
      "chip": "ym2612"
    },
    {
      "channel": 0,
      "note": 51,
      "start": 107.608,
      "duration": 0.4522,
      "velocity": 92,
      "chip": "ym2612"
    },
    {
      "channel": 1,
      "note": 27,
      "start": 107.6132,
      "duration": 0.0233,
      "velocity": 125,
      "chip": "ym2612"
    },
    {
      "channel": 2,
      "note": 84,
      "start": 107.6149,
      "duration": 0.3345,
      "velocity": 94,
      "chip": "ym2612"
    },
    {
      "channel": 3,
      "note": 92,
      "start": 107.616,
      "duration": 0.4446,
      "velocity": 92,
      "chip": "ym2612"
    },
    {
      "channel": 4,
      "note": 79,
      "start": 107.6178,
      "duration": 0.5028,
      "velocity": 94,
      "chip": "ym2612"
    },
    {
      "channel": 5,
      "note": 82,
      "start": 107.6188,
      "duration": 2.5125,
      "velocity": 81,
      "chip": "ym2612"
    },
    {
      "channel": 1,
      "note": 48,
      "start": 107.9489,
      "duration": 0.0247,
      "velocity": 124,
      "chip": "ym2612"
    },
    {
      "channel": 2,
      "note": 87,
      "start": 107.9497,
      "duration": 0.1694,
      "velocity": 94,
      "chip": "ym2612"
    },
    {
      "channel": 0,
      "note": 58,
      "start": 108.1185,
      "duration": 0.4425,
      "velocity": 92,
      "chip": "ym2612"
    },
    {
      "channel": 2,
      "note": 82,
      "start": 108.1195,
      "duration": 0.3358,
      "velocity": 94,
      "chip": "ym2612"
    },
    {
      "channel": 3,
      "note": 92,
      "start": 108.1202,
      "duration": 0.1666,
      "velocity": 92,
      "chip": "ym2612"
    },
    {
      "channel": 4,
      "note": 77,
      "start": 108.121,
      "duration": 0.6729,
      "velocity": 94,
      "chip": "ym2612"
    },
    {
      "channel": 1,
      "note": 51,
      "start": 108.2863,
      "duration": 0.0244,
      "velocity": 127,
      "chip": "ym2612"
    },
    {
      "channel": 2,
      "note": 87,
      "start": 108.4556,
      "duration": 0.3374,
      "velocity": 94,
      "chip": "ym2612"
    },
    {
      "channel": 0,
      "note": 63,
      "start": 108.6194,
      "duration": 0.7602,
      "velocity": 92,
      "chip": "ym2612"
    },
    {
      "channel": 1,
      "note": 43,
      "start": 108.6238,
      "duration": 0.0239,
      "velocity": 124,
      "chip": "ym2612"
    },
    {
      "channel": 3,
      "note": 91,
      "start": 108.6248,
      "duration": 0.5817,
      "velocity": 92,
      "chip": "ym2612"
    },
    {
      "channel": 1,
      "note": 39,
      "start": 108.7927,
      "duration": 0.0188,
      "velocity": 124,
      "chip": "ym2612"
    },
    {
      "channel": 2,
      "note": 84,
      "start": 108.7934,
      "duration": 0.3264,
      "velocity": 94,
      "chip": "ym2612"
    },
    {
      "channel": 4,
      "note": 79,
      "start": 108.7943,
      "duration": 0.6641,
      "velocity": 94,
      "chip": "ym2612"
    },
    {
      "channel": 1,
      "note": 51,
      "start": 108.9603,
      "duration": 0.0246,
      "velocity": 127,
      "chip": "ym2612"
    },
    {
      "channel": 2,
      "note": 87,
      "start": 109.1202,
      "duration": 0.3373,
      "velocity": 94,
      "chip": "ym2612"
    },
    {
      "channel": 1,
      "note": 48,
      "start": 109.2972,
      "duration": 0.0247,
      "velocity": 124,
      "chip": "ym2612"
    },
    {
      "channel": 3,
      "note": 87,
      "start": 109.2981,
      "duration": 0.3032,
      "velocity": 92,
      "chip": "ym2612"
    },
    {
      "channel": 0,
      "note": 58,
      "start": 109.457,
      "duration": 0.4522,
      "velocity": 92,
      "chip": "ym2612"
    },
    {
      "channel": 2,
      "note": 82,
      "start": 109.4579,
      "duration": 0.177,
      "velocity": 94,
      "chip": "ym2612"
    },
    {
      "channel": 4,
      "note": 77,
      "start": 109.4588,
      "duration": 0.1778,
      "velocity": 94,
      "chip": "ym2612"
    },
    {
      "channel": 1,
      "note": 51,
      "start": 109.6344,
      "duration": 0.0245,
      "velocity": 127,
      "chip": "ym2612"
    },
    {
      "channel": 2,
      "note": 82,
      "start": 109.6354,
      "duration": 0.3327,
      "velocity": 94,
      "chip": "ym2612"
    },
    {
      "channel": 3,
      "note": 89,
      "start": 109.6362,
      "duration": 0.3022,
      "velocity": 92,
      "chip": "ym2612"
    },
    {
      "channel": 4,
      "note": 77,
      "start": 109.637,
      "duration": 0.6744,
      "velocity": 94,
      "chip": "ym2612"
    },
    {
      "channel": 1,
      "note": 39,
      "start": 109.7979,
      "duration": 0.0536,
      "velocity": 124,
      "chip": "ym2612"
    },
    {
      "channel": 0,
      "note": 51,
      "start": 109.9676,
      "duration": 0.7506,
      "velocity": 92,
      "chip": "ym2612"
    },
    {
      "channel": 2,
      "note": 87,
      "start": 109.9684,
      "duration": 0.3411,
      "velocity": 94,
      "chip": "ym2612"
    },
    {
      "channel": 3,
      "note": 91,
      "start": 109.9694,
      "duration": 0.3061,
      "velocity": 92,
      "chip": "ym2612"
    },
    {
      "channel": 1,
      "note": 27,
      "start": 110.3091,
      "duration": 0.024,
      "velocity": 125,
      "chip": "ym2612"
    },
    {
      "channel": 2,
      "note": 84,
      "start": 110.3098,
      "duration": 0.3361,
      "velocity": 94,
      "chip": "ym2612"
    },
    {
      "channel": 3,
      "note": 92,
      "start": 110.3109,
      "duration": 0.4364,
      "velocity": 92,
      "chip": "ym2612"
    },
    {
      "channel": 4,
      "note": 79,
      "start": 110.3118,
      "duration": 0.4957,
      "velocity": 94,
      "chip": "ym2612"
    },
    {
      "channel": 5,
      "note": 80,
      "start": 110.3126,
      "duration": 2.5056,
      "velocity": 81,
      "chip": "ym2612"
    },
    {
      "channel": 1,
      "note": 48,
      "start": 110.6455,
      "duration": 0.015,
      "velocity": 124,
      "chip": "ym2612"
    },
    {
      "channel": 2,
      "note": 87,
      "start": 110.6463,
      "duration": 0.1597,
      "velocity": 94,
      "chip": "ym2612"
    },
    {
      "channel": 0,
      "note": 56,
      "start": 110.8054,
      "duration": 0.4521,
      "velocity": 92,
      "chip": "ym2612"
    },
    {
      "channel": 2,
      "note": 82,
      "start": 110.8063,
      "duration": 0.3359,
      "velocity": 94,
      "chip": "ym2612"
    },
    {
      "channel": 3,
      "note": 92,
      "start": 110.8071,
      "duration": 0.1666,
      "velocity": 92,
      "chip": "ym2612"
    },
    {
      "channel": 4,
      "note": 77,
      "start": 110.8078,
      "duration": 0.673,
      "velocity": 94,
      "chip": "ym2612"
    },
    {
      "channel": 1,
      "note": 51,
      "start": 110.9732,
      "duration": 0.0244,
      "velocity": 127,
      "chip": "ym2612"
    },
    {
      "channel": 2,
      "note": 87,
      "start": 111.1426,
      "duration": 0.3374,
      "velocity": 94,
      "chip": "ym2612"
    },
    {
      "channel": 0,
      "note": 63,
      "start": 111.3061,
      "duration": 0.7604,
      "velocity": 92,
      "chip": "ym2612"
    },
    {
      "channel": 1,
      "note": 43,
      "start": 111.3106,
      "duration": 0.0241,
      "velocity": 124,
      "chip": "ym2612"
    },
    {
      "channel": 3,
      "note": 91,
      "start": 111.3116,
      "duration": 0.5818,
      "velocity": 92,
      "chip": "ym2612"
    },
    {
      "channel": 1,
      "note": 39,
      "start": 111.4795,
      "duration": 0.0285,
      "velocity": 124,
      "chip": "ym2612"
    },
    {
      "channel": 2,
      "note": 84,
      "start": 111.4804,
      "duration": 0.336,
      "velocity": 94,
      "chip": "ym2612"
    },
    {
      "channel": 4,
      "note": 79,
      "start": 111.4813,
      "duration": 0.6737,
      "velocity": 94,
      "chip": "ym2612"
    },
    {
      "channel": 1,
      "note": 51,
      "start": 111.6472,
      "duration": 0.0246,
      "velocity": 127,
      "chip": "ym2612"
    },
    {
      "channel": 2,
      "note": 87,
      "start": 111.8167,
      "duration": 0.3374,
      "velocity": 94,
      "chip": "ym2612"
    },
    {
      "channel": 1,
      "note": 48,
      "start": 111.9841,
      "duration": 0.0247,
      "velocity": 124,
      "chip": "ym2612"
    },
    {
      "channel": 3,
      "note": 87,
      "start": 111.985,
      "duration": 0.3032,
      "velocity": 92,
      "chip": "ym2612"
    },
    {
      "channel": 0,
      "note": 56,
      "start": 112.1536,
      "duration": 0.4426,
      "velocity": 92,
      "chip": "ym2612"
    },
    {
      "channel": 2,
      "note": 82,
      "start": 112.1545,
      "duration": 0.1674,
      "velocity": 94,
      "chip": "ym2612"
    },
    {
      "channel": 4,
      "note": 77,
      "start": 112.1554,
      "duration": 0.1681,
      "velocity": 94,
      "chip": "ym2612"
    },
    {
      "channel": 1,
      "note": 51,
      "start": 112.3215,
      "duration": 0.0244,
      "velocity": 127,
      "chip": "ym2612"
    },
    {
      "channel": 2,
      "note": 82,
      "start": 112.3223,
      "duration": 0.3328,
      "velocity": 94,
      "chip": "ym2612"
    },
    {
      "channel": 3,
      "note": 89,
      "start": 112.3231,
      "duration": 0.3023,
      "velocity": 92,
      "chip": "ym2612"
    },
    {
      "channel": 4,
      "note": 77,
      "start": 112.3239,
      "duration": 0.6746,
      "velocity": 94,
      "chip": "ym2612"
    },
    {
      "channel": 1,
      "note": 39,
      "start": 112.4945,
      "duration": 0.044,
      "velocity": 124,
      "chip": "ym2612"
    },
    {
      "channel": 0,
      "note": 51,
      "start": 112.6545,
      "duration": 0.7603,
      "velocity": 92,
      "chip": "ym2612"
    },
    {
      "channel": 2,
      "note": 94,
      "start": 112.6555,
      "duration": 0.3412,
      "velocity": 94,
      "chip": "ym2612"
    },
    {
      "channel": 3,
      "note": 91,
      "start": 112.6563,
      "duration": 0.3062,
      "velocity": 92,
      "chip": "ym2612"
    },
    {
      "channel": 1,
      "note": 27,
      "start": 112.996,
      "duration": 0.024,
      "velocity": 125,
      "chip": "ym2612"
    },
    {
      "channel": 2,
      "note": 84,
      "start": 112.997,
      "duration": 0.3359,
      "velocity": 94,
      "chip": "ym2612"
    },
    {
      "channel": 3,
      "note": 91,
      "start": 112.998,
      "duration": 0.1571,
      "velocity": 92,
      "chip": "ym2612"
    },
    {
      "channel": 4,
      "note": 79,
      "start": 112.9989,
      "duration": 0.4955,
      "velocity": 94,
      "chip": "ym2612"
    },
    {
      "channel": 5,
      "note": 82,
      "start": 112.9996,
      "duration": 2.5158,
      "velocity": 81,
      "chip": "ym2612"
    },
    {
      "channel": 3,
      "note": 87,
      "start": 113.1554,
      "duration": 0.1782,
      "velocity": 92,
      "chip": "ym2612"
    },
    {
      "channel": 1,
      "note": 48,
      "start": 113.3324,
      "duration": 0.0247,
      "velocity": 124,
      "chip": "ym2612"
    },
    {
      "channel": 2,
      "note": 87,
      "start": 113.3332,
      "duration": 0.1597,
      "velocity": 94,
      "chip": "ym2612"
    },
    {
      "channel": 0,
      "note": 58,
      "start": 113.4923,
      "duration": 0.4521,
      "velocity": 92,
      "chip": "ym2612"
    },
    {
      "channel": 2,
      "note": 82,
      "start": 113.4932,
      "duration": 0.3359,
      "velocity": 94,
      "chip": "ym2612"
    },
    {
      "channel": 3,
      "note": 87,
      "start": 113.494,
      "duration": 0.1764,
      "velocity": 92,
      "chip": "ym2612"
    },
    {
      "channel": 4,
      "note": 77,
      "start": 113.4947,
      "duration": 0.6737,
      "velocity": 94,
      "chip": "ym2612"
    },
    {
      "channel": 1,
      "note": 51,
      "start": 113.6698,
      "duration": 0.0244,
      "velocity": 127,
      "chip": "ym2612"
    },
    {
      "channel": 3,
      "note": 92,
      "start": 113.6708,
      "duration": 0.1592,
      "velocity": 92,
      "chip": "ym2612"
    },
    {
      "channel": 2,
      "note": 87,
      "start": 113.8295,
      "duration": 0.3374,
      "velocity": 94,
      "chip": "ym2612"
    },
    {
      "channel": 3,
      "note": 87,
      "start": 113.8304,
      "duration": 0.1774,
      "velocity": 92,
      "chip": "ym2612"
    },
    {
      "channel": 0,
      "note": 63,
      "start": 114.0028,
      "duration": 0.7506,
      "velocity": 92,
      "chip": "ym2612"
    },
    {
      "channel": 1,
      "note": 43,
      "start": 114.0073,
      "duration": 0.0239,
      "velocity": 124,
      "chip": "ym2612"
    },
    {
      "channel": 1,
      "note": 39,
      "start": 114.1665,
      "duration": 0.0284,
      "velocity": 124,
      "chip": "ym2612"
    },
    {
      "channel": 2,
      "note": 84,
      "start": 114.1673,
      "duration": 0.336,
      "velocity": 94,
      "chip": "ym2612"
    },
    {
      "channel": 3,
      "note": 87,
      "start": 114.168,
      "duration": 0.1763,
      "velocity": 92,
      "chip": "ym2612"
    },
    {
      "channel": 4,
      "note": 79,
      "start": 114.169,
      "duration": 0.6736,
      "velocity": 94,
      "chip": "ym2612"
    },
    {
      "channel": 1,
      "note": 51,
      "start": 114.3438,
      "duration": 0.0149,
      "velocity": 127,
      "chip": "ym2612"
    },
    {
      "channel": 3,
      "note": 94,
      "start": 114.3447,
      "duration": 0.1594,
      "velocity": 92,
      "chip": "ym2612"
    },
    {
      "channel": 2,
      "note": 87,
      "start": 114.5036,
      "duration": 0.3374,
      "velocity": 94,
      "chip": "ym2612"
    },
    {
      "channel": 3,
      "note": 87,
      "start": 114.5045,
      "duration": 0.1672,
      "velocity": 92,
      "chip": "ym2612"
    },
    {
      "channel": 1,
      "note": 48,
      "start": 114.6712,
      "duration": 0.0246,
      "velocity": 124,
      "chip": "ym2612"
    },
    {
      "channel": 0,
      "note": 58,
      "start": 114.8405,
      "duration": 0.4426,
      "velocity": 92,
      "chip": "ym2612"
    },
    {
      "channel": 2,
      "note": 82,
      "start": 114.8414,
      "duration": 0.1673,
      "velocity": 94,
      "chip": "ym2612"
    },
    {
      "channel": 3,
      "note": 87,
      "start": 114.8421,
      "duration": 0.1674,
      "velocity": 92,
      "chip": "ym2612"
    },
    {
      "channel": 4,
      "note": 77,
      "start": 114.843,
      "duration": 0.1674,
      "velocity": 94,
      "chip": "ym2612"
    },
    {
      "channel": 1,
      "note": 51,
      "start": 115.0083,
      "duration": 0.0245,
      "velocity": 127,
      "chip": "ym2612"
    },
    {
      "channel": 2,
      "note": 82,
      "start": 115.0091,
      "duration": 0.3329,
      "velocity": 94,
      "chip": "ym2612"
    },
    {
      "channel": 3,
      "note": 96,
      "start": 115.01,
      "duration": 0.172,
      "velocity": 92,
      "chip": "ym2612"
    },
    {
      "channel": 4,
      "note": 77,
      "start": 115.0107,
      "duration": 0.6747,
      "velocity": 94,
      "chip": "ym2612"
    },
    {
      "channel": 1,
      "note": 39,
      "start": 115.1814,
      "duration": 0.0537,
      "velocity": 124,
      "chip": "ym2612"
    },
    {
      "channel": 3,
      "note": 87,
      "start": 115.1823,
      "duration": 0.1603,
      "velocity": 92,
      "chip": "ym2612"
    },
    {
      "channel": 0,
      "note": 51,
      "start": 115.3414,
      "duration": 0.7602,
      "velocity": 92,
      "chip": "ym2612"
    },
    {
      "channel": 2,
      "note": 87,
      "start": 115.3423,
      "duration": 0.3412,
      "velocity": 94,
      "chip": "ym2612"
    },
    {
      "channel": 3,
      "note": 87,
      "start": 115.515,
      "duration": 0.1693,
      "velocity": 92,
      "chip": "ym2612"
    },
    {
      "channel": 1,
      "note": 27,
      "start": 115.683,
      "duration": 0.0239,
      "velocity": 125,
      "chip": "ym2612"
    },
    {
      "channel": 2,
      "note": 84,
      "start": 115.6838,
      "duration": 0.3322,
      "velocity": 94,
      "chip": "ym2612"
    },
    {
      "channel": 3,
      "note": 97,
      "start": 115.6847,
      "duration": 0.4462,
      "velocity": 92,
      "chip": "ym2612"
    },
    {
      "channel": 4,
      "note": 79,
      "start": 115.6858,
      "duration": 0.506,
      "velocity": 94,
      "chip": "ym2612"
    },
    {
      "channel": 5,
      "note": 82,
      "start": 115.6865,
      "duration": 2.516,
      "velocity": 81,
      "chip": "ym2612"
    },
    {
      "channel": 1,
      "note": 39,
      "start": 115.8557,
      "duration": 0.0246,
      "velocity": 124,
      "chip": "ym2612"
    },
    {
      "channel": 1,
      "note": 39,
      "start": 115.9289,
      "duration": 0.0284,
      "velocity": 124,
      "chip": "ym2612"
    },
    {
      "channel": 1,
      "note": 43,
      "start": 116.0156,
      "duration": 0.0284,
      "velocity": 124,
      "chip": "ym2612"
    },
    {
      "channel": 2,
      "note": 87,
      "start": 116.0164,
      "duration": 0.1739,
      "velocity": 94,
      "chip": "ym2612"
    },
    {
      "channel": 0,
      "note": 58,
      "start": 116.1889,
      "duration": 0.4425,
      "velocity": 92,
      "chip": "ym2612"
    },
    {
      "channel": 1,
      "note": 48,
      "start": 116.1898,
      "duration": 0.018,
      "velocity": 124,
      "chip": "ym2612"
    },
    {
      "channel": 2,
      "note": 82,
      "start": 116.1906,
      "duration": 0.33,
      "velocity": 94,
      "chip": "ym2612"
    },
    {
      "channel": 3,
      "note": 94,
      "start": 116.1914,
      "duration": 0.4405,
      "velocity": 92,
      "chip": "ym2612"
    },
    {
      "channel": 4,
      "note": 77,
      "start": 116.1922,
      "duration": 0.6627,
      "velocity": 94,
      "chip": "ym2612"
    },
    {
      "channel": 1,
      "note": 51,
      "start": 116.3567,
      "duration": 0.0244,
      "velocity": 127,
      "chip": "ym2612"
    },
    {
      "channel": 1,
      "note": 39,
      "start": 116.5202,
      "duration": 0.0246,
      "velocity": 124,
      "chip": "ym2612"
    },
    {
      "channel": 2,
      "note": 87,
      "start": 116.521,
      "duration": 0.333,
      "velocity": 94,
      "chip": "ym2612"
    },
    {
      "channel": 1,
      "note": 39,
      "start": 116.6031,
      "duration": 0.0285,
      "velocity": 124,
      "chip": "ym2612"
    },
    {
      "channel": 0,
      "note": 61,
      "start": 116.6896,
      "duration": 0.7508,
      "velocity": 92,
      "chip": "ym2612"
    },
    {
      "channel": 1,
      "note": 43,
      "start": 116.6904,
      "duration": 0.0278,
      "velocity": 124,
      "chip": "ym2612"
    },
    {
      "channel": 3,
      "note": 91,
      "start": 116.6914,
      "duration": 0.3062,
      "velocity": 92,
      "chip": "ym2612"
    },
    {
      "channel": 1,
      "note": 48,
      "start": 116.8535,
      "duration": 0.0284,
      "velocity": 124,
      "chip": "ym2612"
    },
    {
      "channel": 2,
      "note": 84,
      "start": 116.8543,
      "duration": 0.3404,
      "velocity": 94,
      "chip": "ym2612"
    },
    {
      "channel": 4,
      "note": 79,
      "start": 116.8552,
      "duration": 0.6744,
      "velocity": 94,
      "chip": "ym2612"
    },
    {
      "channel": 1,
      "note": 51,
      "start": 117.0307,
      "duration": 0.0245,
      "velocity": 127,
      "chip": "ym2612"
    },
    {
      "channel": 3,
      "note": 87,
      "start": 117.0316,
      "duration": 0.5823,
      "velocity": 92,
      "chip": "ym2612"
    },
    {
      "channel": 1,
      "note": 48,
      "start": 117.1943,
      "duration": 0.0248,
      "velocity": 124,
      "chip": "ym2612"
    },
    {
      "channel": 2,
      "note": 87,
      "start": 117.1951,
      "duration": 0.3336,
      "velocity": 94,
      "chip": "ym2612"
    },
    {
      "channel": 1,
      "note": 43,
      "start": 117.364,
      "duration": 0.0283,
      "velocity": 124,
      "chip": "ym2612"
    },
    {
      "channel": 0,
      "note": 58,
      "start": 117.5274,
      "duration": 0.4522,
      "velocity": 92,
      "chip": "ym2612"
    },
    {
      "channel": 1,
      "note": 39,
      "start": 117.5282,
      "duration": 0.0278,
      "velocity": 124,
      "chip": "ym2612"
    },
    {
      "channel": 2,
      "note": 82,
      "start": 117.529,
      "duration": 0.1764,
      "velocity": 94,
      "chip": "ym2612"
    },
    {
      "channel": 4,
      "note": 77,
      "start": 117.5299,
      "duration": 0.1808,
      "velocity": 94,
      "chip": "ym2612"
    },
    {
      "channel": 1,
      "note": 51,
      "start": 117.705,
      "duration": 0.0244,
      "velocity": 127,
      "chip": "ym2612"
    },
    {
      "channel": 2,
      "note": 82,
      "start": 117.7058,
      "duration": 0.3337,
      "velocity": 94,
      "chip": "ym2612"
    },
    {
      "channel": 3,
      "note": 75,
      "start": 117.7103,
      "duration": 0.0962,
      "velocity": 99,
      "chip": "ym2612"
    },
    {
      "channel": 4,
      "note": 77,
      "start": 117.7111,
      "duration": 0.6623,
      "velocity": 94,
      "chip": "ym2612"
    },
    {
      "channel": 3,
      "note": 77,
      "start": 117.8361,
      "duration": 0.1149,
      "velocity": 99,
      "chip": "ym2612"
    },
    {
      "channel": 1,
      "note": 48,
      "start": 117.8684,
      "duration": 0.0247,
      "velocity": 124,
      "chip": "ym2612"
    },
    {
      "channel": 3,
      "note": 79,
      "start": 117.9805,
      "duration": 0.1055,
      "velocity": 99,
      "chip": "ym2612"
    },
    {
      "channel": 0,
      "note": 51,
      "start": 118.038,
      "duration": 0.3076,
      "velocity": 92,
      "chip": "ym2612"
    },
    {
      "channel": 1,
      "note": 43,
      "start": 118.0389,
      "duration": 0.0179,
      "velocity": 124,
      "chip": "ym2612"
    },
    {
      "channel": 2,
      "note": 94,
      "start": 118.0398,
      "duration": 0.3317,
      "velocity": 94,
      "chip": "ym2612"
    },
    {
      "channel": 3,
      "note": 80,
      "start": 118.1154,
      "duration": 0.1151,
      "velocity": 99,
      "chip": "ym2612"
    },
    {
      "channel": 1,
      "note": 39,
      "start": 118.2017,
      "duration": 0.0285,
      "velocity": 124,
      "chip": "ym2612"
    },
    {
      "channel": 3,
      "note": 82,
      "start": 118.2596,
      "duration": 0.0864,
      "velocity": 99,
      "chip": "ym2612"
    },
    {
      "channel": 0,
      "note": 56,
      "start": 118.3654,
      "duration": 0.4521,
      "velocity": 92,
      "chip": "ym2612"
    },
    {
      "channel": 1,
      "note": 27,
      "start": 118.3706,
      "duration": 0.0232,
      "velocity": 125,
      "chip": "ym2612"
    },
    {
      "channel": 3,
      "note": 84,
      "start": 118.3725,
      "duration": 1.7648,
      "velocity": 99,
      "chip": "ym2612"
    },
    {
      "channel": 5,
      "note": 87,
      "start": 118.3746,
      "duration": 2.5139,
      "velocity": 81,
      "chip": "ym2612"
    },
    {
      "channel": 1,
      "note": 48,
      "start": 118.7064,
      "duration": 0.0246,
      "velocity": 124,
      "chip": "ym2612"
    },
    {
      "channel": 0,
      "note": 63,
      "start": 118.8757,
      "duration": 0.4425,
      "velocity": 92,
      "chip": "ym2612"
    },
    {
      "channel": 1,
      "note": 39,
      "start": 118.8766,
      "duration": 0.0277,
      "velocity": 124,
      "chip": "ym2612"
    },
    {
      "channel": 1,
      "note": 51,
      "start": 119.0435,
      "duration": 0.0246,
      "velocity": 127,
      "chip": "ym2612"
    },
    {
      "channel": 0,
      "note": 68,
      "start": 119.3766,
      "duration": 0.7602,
      "velocity": 92,
      "chip": "ym2612"
    },
    {
      "channel": 1,
      "note": 39,
      "start": 119.3811,
      "duration": 0.024,
      "velocity": 124,
      "chip": "ym2612"
    },
    {
      "channel": 1,
      "note": 43,
      "start": 119.55,
      "duration": 0.0285,
      "velocity": 124,
      "chip": "ym2612"
    },
    {
      "channel": 1,
      "note": 41,
      "start": 119.7176,
      "duration": 0.0245,
      "velocity": 123,
      "chip": "ym2612"
    },
    {
      "channel": 1,
      "note": 39,
      "start": 120.0546,
      "duration": 0.0246,
      "velocity": 124,
      "chip": "ym2612"
    },
    {
      "channel": 0,
      "note": 63,
      "start": 120.2145,
      "duration": 0.4521,
      "velocity": 92,
      "chip": "ym2612"
    },
    {
      "channel": 1,
      "note": 43,
      "start": 120.2152,
      "duration": 0.0277,
      "velocity": 124,
      "chip": "ym2612"
    },
    {
      "channel": 1,
      "note": 51,
      "start": 120.3917,
      "duration": 0.0245,
      "velocity": 127,
      "chip": "ym2612"
    },
    {
      "channel": 3,
      "note": 84,
      "start": 120.3927,
      "duration": 0.5824,
      "velocity": 99,
      "chip": "ym2612"
    },
    {
      "channel": 0,
      "note": 56,
      "start": 120.7248,
      "duration": 0.7508,
      "velocity": 92,
      "chip": "ym2612"
    },
    {
      "channel": 1,
      "note": 39,
      "start": 120.7293,
      "duration": 0.024,
      "velocity": 124,
      "chip": "ym2612"
    },
    {
      "channel": 1,
      "note": 27,
      "start": 121.066,
      "duration": 0.0244,
      "velocity": 125,
      "chip": "ym2612"
    },
    {
      "channel": 3,
      "note": 82,
      "start": 121.0669,
      "duration": 1.7573,
      "velocity": 99,
      "chip": "ym2612"
    },
    {
      "channel": 5,
      "note": 86,
      "start": 121.0678,
      "duration": 3.7692,
      "velocity": 81,
      "chip": "ym2612"
    },
    {
      "channel": 1,
      "note": 48,
      "start": 121.4029,
      "duration": 0.0246,
      "velocity": 124,
      "chip": "ym2612"
    },
    {
      "channel": 0,
      "note": 62,
      "start": 121.5626,
      "duration": 0.4522,
      "velocity": 92,
      "chip": "ym2612"
    },
    {
      "channel": 1,
      "note": 39,
      "start": 121.5635,
      "duration": 0.0277,
      "velocity": 124,
      "chip": "ym2612"
    },
    {
      "channel": 1,
      "note": 51,
      "start": 121.7402,
      "duration": 0.0148,
      "velocity": 127,
      "chip": "ym2612"
    },
    {
      "channel": 0,
      "note": 68,
      "start": 122.0636,
      "duration": 0.7602,
      "velocity": 92,
      "chip": "ym2612"
    },
    {
      "channel": 1,
      "note": 39,
      "start": 122.068,
      "duration": 0.024,
      "velocity": 124,
      "chip": "ym2612"
    },
    {
      "channel": 1,
      "note": 43,
      "start": 122.2368,
      "duration": 0.0285,
      "velocity": 124,
      "chip": "ym2612"
    },
    {
      "channel": 1,
      "note": 41,
      "start": 122.4047,
      "duration": 0.0244,
      "velocity": 123,
      "chip": "ym2612"
    },
    {
      "channel": 1,
      "note": 39,
      "start": 122.7414,
      "duration": 0.0247,
      "velocity": 124,
      "chip": "ym2612"
    },
    {
      "channel": 0,
      "note": 62,
      "start": 122.911,
      "duration": 0.4424,
      "velocity": 92,
      "chip": "ym2612"
    },
    {
      "channel": 1,
      "note": 43,
      "start": 122.9118,
      "duration": 0.0277,
      "velocity": 124,
      "chip": "ym2612"
    },
    {
      "channel": 1,
      "note": 51,
      "start": 123.0787,
      "duration": 0.0245,
      "velocity": 127,
      "chip": "ym2612"
    },
    {
      "channel": 3,
      "note": 79,
      "start": 123.0797,
      "duration": 0.5823,
      "velocity": 99,
      "chip": "ym2612"
    },
    {
      "channel": 0,
      "note": 56,
      "start": 123.4117,
      "duration": 0.3077,
      "velocity": 92,
      "chip": "ym2612"
    },
    {
      "channel": 1,
      "note": 39,
      "start": 123.4162,
      "duration": 0.0241,
      "velocity": 124,
      "chip": "ym2612"
    },
    {
      "channel": 0,
      "note": 55,
      "start": 123.7489,
      "duration": 0.4521,
      "velocity": 92,
      "chip": "ym2612"
    },
    {
      "channel": 1,
      "note": 27,
      "start": 123.7538,
      "duration": 0.0235,
      "velocity": 125,
      "chip": "ym2612"
    },
    {
      "channel": 3,
      "note": 82,
      "start": 123.7551,
      "duration": 0.4462,
      "velocity": 99,
      "chip": "ym2612"
    },
    {
      "channel": 1,
      "note": 48,
      "start": 124.0899,
      "duration": 0.0245,
      "velocity": 124,
      "chip": "ym2612"
    },
    {
      "channel": 0,
      "note": 58,
      "start": 124.2497,
      "duration": 0.452,
      "velocity": 92,
      "chip": "ym2612"
    },
    {
      "channel": 1,
      "note": 39,
      "start": 124.2506,
      "duration": 0.0276,
      "velocity": 124,
      "chip": "ym2612"
    },
    {
      "channel": 3,
      "note": 84,
      "start": 124.2515,
      "duration": 0.4508,
      "velocity": 99,
      "chip": "ym2612"
    },
    {
      "channel": 1,
      "note": 51,
      "start": 124.4269,
      "duration": 0.0246,
      "velocity": 127,
      "chip": "ym2612"
    },
    {
      "channel": 0,
      "note": 62,
      "start": 124.76,
      "duration": 0.3077,
      "velocity": 92,
      "chip": "ym2612"
    },
    {
      "channel": 1,
      "note": 39,
      "start": 124.7645,
      "duration": 0.0241,
      "velocity": 124,
      "chip": "ym2612"
    },
    {
      "channel": 3,
      "note": 86,
      "start": 124.7654,
      "duration": 0.8901,
      "velocity": 99,
      "chip": "ym2612"
    },
    {
      "channel": 1,
      "note": 43,
      "start": 124.9238,
      "duration": 0.0286,
      "velocity": 124,
      "chip": "ym2612"
    },
    {
      "channel": 0,
      "note": 65,
      "start": 125.097,
      "duration": 0.4426,
      "velocity": 92,
      "chip": "ym2612"
    },
    {
      "channel": 1,
      "note": 41,
      "start": 125.1017,
      "duration": 0.0239,
      "velocity": 123,
      "chip": "ym2612"
    },
    {
      "channel": 5,
      "note": 89,
      "start": 125.103,
      "duration": 1.2558,
      "velocity": 81,
      "chip": "ym2612"
    },
    {
      "channel": 1,
      "note": 39,
      "start": 125.4381,
      "duration": 0.015,
      "velocity": 124,
      "chip": "ym2612"
    },
    {
      "channel": 0,
      "note": 62,
      "start": 125.5979,
      "duration": 0.4522,
      "velocity": 92,
      "chip": "ym2612"
    },
    {
      "channel": 1,
      "note": 43,
      "start": 125.5986,
      "duration": 0.0278,
      "velocity": 124,
      "chip": "ym2612"
    },
    {
      "channel": 1,
      "note": 51,
      "start": 125.7656,
      "duration": 0.0245,
      "velocity": 127,
      "chip": "ym2612"
    },
    {
      "channel": 3,
      "note": 89,
      "start": 125.7664,
      "duration": 0.592,
      "velocity": 99,
      "chip": "ym2612"
    },
    {
      "channel": 0,
      "note": 59,
      "start": 126.0986,
      "duration": 0.3078,
      "velocity": 92,
      "chip": "ym2612"
    },
    {
      "channel": 1,
      "note": 39,
      "start": 126.1033,
      "duration": 0.0239,
      "velocity": 124,
      "chip": "ym2612"
    },
    {
      "channel": 0,
      "note": 60,
      "start": 126.4359,
      "duration": 0.452,
      "velocity": 92,
      "chip": "ym2612"
    },
    {
      "channel": 1,
      "note": 27,
      "start": 126.4407,
      "duration": 0.0236,
      "velocity": 125,
      "chip": "ym2612"
    },
    {
      "channel": 3,
      "note": 87,
      "start": 126.4416,
      "duration": 1.766,
      "velocity": 99,
      "chip": "ym2612"
    },
    {
      "channel": 5,
      "note": 91,
      "start": 126.4424,
      "duration": 2.5165,
      "velocity": 81,
      "chip": "ym2612"
    },
    {
      "channel": 1,
      "note": 48,
      "start": 126.7767,
      "duration": 0.0247,
      "velocity": 124,
      "chip": "ym2612"
    },
    {
      "channel": 0,
      "note": 63,
      "start": 126.9461,
      "duration": 0.4426,
      "velocity": 92,
      "chip": "ym2612"
    },
    {
      "channel": 1,
      "note": 39,
      "start": 126.947,
      "duration": 0.0278,
      "velocity": 124,
      "chip": "ym2612"
    },
    {
      "channel": 1,
      "note": 51,
      "start": 127.1139,
      "duration": 0.0245,
      "velocity": 127,
      "chip": "ym2612"
    },
    {
      "channel": 0,
      "note": 67,
      "start": 127.4469,
      "duration": 0.3078,
      "velocity": 92,
      "chip": "ym2612"
    },
    {
      "channel": 1,
      "note": 39,
      "start": 127.4514,
      "duration": 0.024,
      "velocity": 124,
      "chip": "ym2612"
    },
    {
      "channel": 1,
      "note": 43,
      "start": 127.6107,
      "duration": 0.0285,
      "velocity": 124,
      "chip": "ym2612"
    },
    {
      "channel": 0,
      "note": 58,
      "start": 127.784,
      "duration": 0.4426,
      "velocity": 92,
      "chip": "ym2612"
    },
    {
      "channel": 1,
      "note": 41,
      "start": 127.7888,
      "duration": 0.0237,
      "velocity": 123,
      "chip": "ym2612"
    },
    {
      "channel": 1,
      "note": 39,
      "start": 128.1248,
      "duration": 0.0248,
      "velocity": 124,
      "chip": "ym2612"
    },
    {
      "channel": 0,
      "note": 63,
      "start": 128.2848,
      "duration": 0.4522,
      "velocity": 92,
      "chip": "ym2612"
    },
    {
      "channel": 1,
      "note": 43,
      "start": 128.2857,
      "duration": 0.0276,
      "velocity": 124,
      "chip": "ym2612"
    },
    {
      "channel": 1,
      "note": 51,
      "start": 128.4622,
      "duration": 0.0245,
      "velocity": 127,
      "chip": "ym2612"
    },
    {
      "channel": 3,
      "note": 86,
      "start": 128.463,
      "duration": 0.5824,
      "velocity": 99,
      "chip": "ym2612"
    },
    {
      "channel": 0,
      "note": 67,
      "start": 128.7952,
      "duration": 0.3078,
      "velocity": 92,
      "chip": "ym2612"
    },
    {
      "channel": 1,
      "note": 39,
      "start": 128.7997,
      "duration": 0.0241,
      "velocity": 124,
      "chip": "ym2612"
    },
    {
      "channel": 0,
      "note": 57,
      "start": 129.1325,
      "duration": 0.5868,
      "velocity": 92,
      "chip": "ym2612"
    },
    {
      "channel": 1,
      "note": 27,
      "start": 129.1377,
      "duration": 0.0135,
      "velocity": 125,
      "chip": "ym2612"
    },
    {
      "channel": 3,
      "note": 84,
      "start": 129.1388,
      "duration": 0.3785,
      "velocity": 99,
      "chip": "ym2612"
    },
    {
      "channel": 5,
      "note": 87,
      "start": 129.14,
      "duration": 1.2443,
      "velocity": 81,
      "chip": "ym2612"
    },
    {
      "channel": 1,
      "note": 48,
      "start": 129.4636,
      "duration": 0.0247,
      "velocity": 124,
      "chip": "ym2612"
    },
    {
      "channel": 3,
      "note": 86,
      "start": 129.5755,
      "duration": 0.3945,
      "velocity": 99,
      "chip": "ym2612"
    },
    {
      "channel": 0,
      "note": 63,
      "start": 129.7967,
      "duration": 0.5871,
      "velocity": 92,
      "chip": "ym2612"
    },
    {
      "channel": 1,
      "note": 53,
      "start": 129.8014,
      "duration": 0.0239,
      "velocity": 127,
      "chip": "ym2612"
    },
    {
      "channel": 3,
      "note": 87,
      "start": 130.0282,
      "duration": 0.3847,
      "velocity": 99,
      "chip": "ym2612"
    },
    {
      "channel": 1,
      "note": 43,
      "start": 130.1378,
      "duration": 0.0246,
      "velocity": 124,
      "chip": "ym2612"
    },
    {
      "channel": 1,
      "note": 39,
      "start": 130.3073,
      "duration": 0.0286,
      "velocity": 124,
      "chip": "ym2612"
    },
    {
      "channel": 0,
      "note": 56,
      "start": 130.4709,
      "duration": 0.587,
      "velocity": 92,
      "chip": "ym2612"
    },
    {
      "channel": 1,
      "note": 39,
      "start": 130.4756,
      "duration": 0.0239,
      "velocity": 123,
      "chip": "ym2612"
    },
    {
      "channel": 3,
      "note": 89,
      "start": 130.4765,
      "duration": 0.5819,
      "velocity": 99,
      "chip": "ym2612"
    },
    {
      "channel": 5,
      "note": 86,
      "start": 130.4774,
      "duration": 0.6388,
      "velocity": 81,
      "chip": "ym2612"
    },
    {
      "channel": 1,
      "note": 48,
      "start": 130.8119,
      "duration": 0.0247,
      "velocity": 124,
      "chip": "ym2612"
    },
    {
      "channel": 0,
      "note": 63,
      "start": 131.145,
      "duration": 0.5871,
      "velocity": 92,
      "chip": "ym2612"
    },
    {
      "channel": 1,
      "note": 51,
      "start": 131.1497,
      "duration": 0.0239,
      "velocity": 127,
      "chip": "ym2612"
    },
    {
      "channel": 3,
      "note": 87,
      "start": 131.1506,
      "duration": 0.5819,
      "velocity": 99,
      "chip": "ym2612"
    },
    {
      "channel": 5,
      "note": 84,
      "start": 131.1515,
      "duration": 0.6388,
      "velocity": 81,
      "chip": "ym2612"
    },
    {
      "channel": 1,
      "note": 43,
      "start": 131.486,
      "duration": 0.0246,
      "velocity": 124,
      "chip": "ym2612"
    },
    {
      "channel": 1,
      "note": 39,
      "start": 131.646,
      "duration": 0.0284,
      "velocity": 124,
      "chip": "ym2612"
    },
    {
      "channel": 0,
      "note": 55,
      "start": 131.8194,
      "duration": 0.5868,
      "velocity": 92,
      "chip": "ym2612"
    },
    {
      "channel": 1,
      "note": 27,
      "start": 131.8243,
      "duration": 0.0235,
      "velocity": 125,
      "chip": "ym2612"
    },
    {
      "channel": 3,
      "note": 82,
      "start": 131.8251,
      "duration": 0.3888,
      "velocity": 99,
      "chip": "ym2612"
    },
    {
      "channel": 5,
      "note": 86,
      "start": 131.8261,
      "duration": 1.2549,
      "velocity": 81,
      "chip": "ym2612"
    },
    {
      "channel": 1,
      "note": 48,
      "start": 132.1601,
      "duration": 0.0247,
      "velocity": 124,
      "chip": "ym2612"
    },
    {
      "channel": 3,
      "note": 84,
      "start": 132.2625,
      "duration": 0.3944,
      "velocity": 99,
      "chip": "ym2612"
    },
    {
      "channel": 0,
      "note": 62,
      "start": 132.4934,
      "duration": 0.587,
      "velocity": 92,
      "chip": "ym2612"
    },
    {
      "channel": 1,
      "note": 53,
      "start": 132.4981,
      "duration": 0.0238,
      "velocity": 127,
      "chip": "ym2612"
    },
    {
      "channel": 3,
      "note": 86,
      "start": 132.7151,
      "duration": 0.3944,
      "velocity": 99,
      "chip": "ym2612"
    },
    {
      "channel": 1,
      "note": 43,
      "start": 132.8342,
      "duration": 0.0151,
      "velocity": 124,
      "chip": "ym2612"
    },
    {
      "channel": 1,
      "note": 39,
      "start": 132.9942,
      "duration": 0.0284,
      "velocity": 124,
      "chip": "ym2612"
    },
    {
      "channel": 0,
      "note": 54,
      "start": 133.1579,
      "duration": 0.5966,
      "velocity": 92,
      "chip": "ym2612"
    },
    {
      "channel": 1,
      "note": 39,
      "start": 133.1626,
      "duration": 0.0238,
      "velocity": 123,
      "chip": "ym2612"
    },
    {
      "channel": 3,
      "note": 87,
      "start": 133.1635,
      "duration": 0.5913,
      "velocity": 99,
      "chip": "ym2612"
    },
    {
      "channel": 5,
      "note": 84,
      "start": 133.1644,
      "duration": 0.6387,
      "velocity": 81,
      "chip": "ym2612"
    },
    {
      "channel": 1,
      "note": 48,
      "start": 133.4988,
      "duration": 0.0247,
      "velocity": 124,
      "chip": "ym2612"
    },
    {
      "channel": 0,
      "note": 61,
      "start": 133.8321,
      "duration": 0.587,
      "velocity": 92,
      "chip": "ym2612"
    },
    {
      "channel": 1,
      "note": 51,
      "start": 133.8369,
      "duration": 0.0236,
      "velocity": 127,
      "chip": "ym2612"
    },
    {
      "channel": 3,
      "note": 85,
      "start": 133.8378,
      "duration": 0.5817,
      "velocity": 99,
      "chip": "ym2612"
    },
    {
      "channel": 5,
      "note": 82,
      "start": 133.8387,
      "duration": 0.6385,
      "velocity": 81,
      "chip": "ym2612"
    },
    {
      "channel": 1,
      "note": 43,
      "start": 134.173,
      "duration": 0.0246,
      "velocity": 124,
      "chip": "ym2612"
    },
    {
      "channel": 1,
      "note": 39,
      "start": 134.3425,
      "duration": 0.0284,
      "velocity": 124,
      "chip": "ym2612"
    },
    {
      "channel": 0,
      "note": 53,
      "start": 134.5062,
      "duration": 0.587,
      "velocity": 92,
      "chip": "ym2612"
    },
    {
      "channel": 1,
      "note": 27,
      "start": 134.5111,
      "duration": 0.0235,
      "velocity": 125,
      "chip": "ym2612"
    },
    {
      "channel": 3,
      "note": 80,
      "start": 134.5122,
      "duration": 0.3885,
      "velocity": 99,
      "chip": "ym2612"
    },
    {
      "channel": 5,
      "note": 84,
      "start": 134.5134,
      "duration": 1.2544,
      "velocity": 81,
      "chip": "ym2612"
    },
    {
      "channel": 1,
      "note": 48,
      "start": 134.847,
      "duration": 0.0247,
      "velocity": 124,
      "chip": "ym2612"
    },
    {
      "channel": 3,
      "note": 82,
      "start": 134.9591,
      "duration": 0.3847,
      "velocity": 99,
      "chip": "ym2612"
    },
    {
      "channel": 0,
      "note": 60,
      "start": 135.1803,
      "duration": 0.587,
      "velocity": 92,
      "chip": "ym2612"
    },
    {
      "channel": 1,
      "note": 53,
      "start": 135.185,
      "duration": 0.0238,
      "velocity": 127,
      "chip": "ym2612"
    },
    {
      "channel": 3,
      "note": 84,
      "start": 135.4022,
      "duration": 0.3942,
      "velocity": 99,
      "chip": "ym2612"
    },
    {
      "channel": 1,
      "note": 43,
      "start": 135.5213,
      "duration": 0.0246,
      "velocity": 124,
      "chip": "ym2612"
    },
    {
      "channel": 1,
      "note": 39,
      "start": 135.6811,
      "duration": 0.0285,
      "velocity": 124,
      "chip": "ym2612"
    },
    {
      "channel": 1,
      "note": 39,
      "start": 135.8587,
      "duration": 0.0242,
      "velocity": 123,
      "chip": "ym2612"
    },
    {
      "channel": 0,
      "note": 52,
      "start": 136.1916,
      "duration": 2.07,
      "velocity": 92,
      "chip": "ym2612"
    },
    {
      "channel": 1,
      "note": 48,
      "start": 136.1965,
      "duration": 0.0235,
      "velocity": 124,
      "chip": "ym2612"
    },
    {
      "channel": 3,
      "note": 85,
      "start": 136.1974,
      "duration": 2.0646,
      "velocity": 99,
      "chip": "ym2612"
    },
    {
      "channel": 5,
      "note": 83,
      "start": 136.1983,
      "duration": 2.1987,
      "velocity": 81,
      "chip": "ym2612"
    },
    {
      "channel": 1,
      "note": 48,
      "start": 136.2691,
      "duration": 0.0279,
      "velocity": 124,
      "chip": "ym2612"
    },
    {
      "channel": 1,
      "note": 48,
      "start": 136.3555,
      "duration": 0.0283,
      "velocity": 124,
      "chip": "ym2612"
    },
    {
      "channel": 1,
      "note": 48,
      "start": 136.442,
      "duration": 0.0284,
      "velocity": 124,
      "chip": "ym2612"
    },
    {
      "channel": 1,
      "note": 48,
      "start": 136.5292,
      "duration": 0.0183,
      "velocity": 124,
      "chip": "ym2612"
    },
    {
      "channel": 1,
      "note": 48,
      "start": 136.6057,
      "duration": 0.0284,
      "velocity": 124,
      "chip": "ym2612"
    },
    {
      "channel": 1,
      "note": 48,
      "start": 136.6929,
      "duration": 0.0279,
      "velocity": 124,
      "chip": "ym2612"
    },
    {
      "channel": 1,
      "note": 48,
      "start": 136.779,
      "duration": 0.0284,
      "velocity": 124,
      "chip": "ym2612"
    },
    {
      "channel": 1,
      "note": 48,
      "start": 136.8566,
      "duration": 0.0279,
      "velocity": 124,
      "chip": "ym2612"
    },
    {
      "channel": 1,
      "note": 48,
      "start": 136.9427,
      "duration": 0.0285,
      "velocity": 124,
      "chip": "ym2612"
    },
    {
      "channel": 1,
      "note": 48,
      "start": 137.0299,
      "duration": 0.0279,
      "velocity": 124,
      "chip": "ym2612"
    },
    {
      "channel": 1,
      "note": 48,
      "start": 137.1161,
      "duration": 0.0284,
      "velocity": 124,
      "chip": "ym2612"
    },
    {
      "channel": 1,
      "note": 48,
      "start": 137.1937,
      "duration": 0.0279,
      "velocity": 124,
      "chip": "ym2612"
    },
    {
      "channel": 1,
      "note": 48,
      "start": 137.2798,
      "duration": 0.0285,
      "velocity": 124,
      "chip": "ym2612"
    },
    {
      "channel": 1,
      "note": 48,
      "start": 137.367,
      "duration": 0.0279,
      "velocity": 124,
      "chip": "ym2612"
    },
    {
      "channel": 1,
      "note": 48,
      "start": 137.4532,
      "duration": 0.0188,
      "velocity": 124,
      "chip": "ym2612"
    },
    {
      "channel": 1,
      "note": 48,
      "start": 137.5307,
      "duration": 0.0279,
      "velocity": 124,
      "chip": "ym2612"
    },
    {
      "channel": 1,
      "note": 48,
      "start": 137.6169,
      "duration": 0.0284,
      "velocity": 124,
      "chip": "ym2612"
    },
    {
      "channel": 1,
      "note": 48,
      "start": 137.7041,
      "duration": 0.0279,
      "velocity": 124,
      "chip": "ym2612"
    },
    {
      "channel": 1,
      "note": 48,
      "start": 137.7806,
      "duration": 0.0285,
      "velocity": 124,
      "chip": "ym2612"
    },
    {
      "channel": 1,
      "note": 48,
      "start": 137.8678,
      "duration": 0.0279,
      "velocity": 124,
      "chip": "ym2612"
    },
    {
      "channel": 1,
      "note": 48,
      "start": 137.954,
      "duration": 0.0284,
      "velocity": 124,
      "chip": "ym2612"
    },
    {
      "channel": 1,
      "note": 48,
      "start": 138.0412,
      "duration": 0.028,
      "velocity": 124,
      "chip": "ym2612"
    },
    {
      "channel": 1,
      "note": 48,
      "start": 138.1176,
      "duration": 0.0284,
      "velocity": 124,
      "chip": "ym2612"
    },
    {
      "channel": 1,
      "note": 48,
      "start": 138.2049,
      "duration": 0.0279,
      "velocity": 124,
      "chip": "ym2612"
    },
    {
      "channel": 1,
      "note": 48,
      "start": 138.291,
      "duration": 0.0284,
      "velocity": 124,
      "chip": "ym2612"
    },
    {
      "channel": 1,
      "note": 48,
      "start": 138.3782,
      "duration": 0.0183,
      "velocity": 124,
      "chip": "ym2612"
    },
    {
      "channel": 1,
      "note": 48,
      "start": 138.4547,
      "duration": 0.0284,
      "velocity": 124,
      "chip": "ym2612"
    },
    {
      "channel": 0,
      "note": 52,
      "start": 138.5413,
      "duration": 0.3077,
      "velocity": 92,
      "chip": "ym2612"
    },
    {
      "channel": 1,
      "note": 41,
      "start": 138.5466,
      "duration": 0.0232,
      "velocity": 123,
      "chip": "ym2612"
    },
    {
      "channel": 5,
      "note": 83,
      "start": 138.5482,
      "duration": 0.3309,
      "velocity": 81,
      "chip": "ym2612"
    },
    {
      "channel": 0,
      "note": 51,
      "start": 139.8896,
      "duration": 0.0001,
      "velocity": 92,
      "chip": "ym2612"
    }
  ]
}