{
  "track_name": "07 - The City",
  "duration_sec": 83.324,
  "sample_rate": 44100,
  "note_count": 754,
  "unique_pitches": 32,
  "pitch_range": 48,
  "avg_note_duration": 0.3116,
  "reconstruction_stats": {
    "notes_reconstructed": 754,
    "keyon_events": 754,
    "keyoff_events": 754,
    "orphan_keyons": 0,
    "unique_pitches": 32,
    "pitch_range": 48,
    "avg_duration_sec": 0.3116
  },
  "metadata": {
    "source": "R\\Ren & Stimpy - Stimpy's Invention\\07 - The City.vgz"
  },
  "notes": [
    {
      "channel": 3,
      "note": 57,
      "start": 0.0101,
      "duration": 0.2937,
      "velocity": 96,
      "chip": "ym2612"
    },
    {
      "channel": 0,
      "note": 66,
      "start": 0.0152,
      "duration": 0.4218,
      "velocity": 121,
      "chip": "ym2612"
    },
    {
      "channel": 3,
      "note": 59,
      "start": 0.3073,
      "duration": 0.13,
      "velocity": 96,
      "chip": "ym2612"
    },
    {
      "channel": 1,
      "note": 83,
      "start": 0.311,
      "duration": 0.1261,
      "velocity": 98,
      "chip": "ym2612"
    },
    {
      "channel": 4,
      "note": 77,
      "start": 0.3137,
      "duration": 0.1237,
      "velocity": 98,
      "chip": "ym2612"
    },
    {
      "channel": 5,
      "note": 78,
      "start": 0.3166,
      "duration": 0.1209,
      "velocity": 98,
      "chip": "ym2612"
    },
    {
      "channel": 3,
      "note": 71,
      "start": 0.4406,
      "duration": 0.43,
      "velocity": 96,
      "chip": "ym2612"
    },
    {
      "channel": 0,
      "note": 66,
      "start": 0.4434,
      "duration": 0.2937,
      "velocity": 121,
      "chip": "ym2612"
    },
    {
      "channel": 0,
      "note": 66,
      "start": 0.7407,
      "duration": 0.1297,
      "velocity": 121,
      "chip": "ym2612"
    },
    {
      "channel": 1,
      "note": 83,
      "start": 0.744,
      "duration": 0.1265,
      "velocity": 98,
      "chip": "ym2612"
    },
    {
      "channel": 4,
      "note": 78,
      "start": 0.7467,
      "duration": 0.1241,
      "velocity": 98,
      "chip": "ym2612"
    },
    {
      "channel": 5,
      "note": 77,
      "start": 0.7498,
      "duration": 0.1212,
      "velocity": 98,
      "chip": "ym2612"
    },
    {
      "channel": 3,
      "note": 69,
      "start": 0.8738,
      "duration": 0.4301,
      "velocity": 96,
      "chip": "ym2612"
    },
    {
      "channel": 0,
      "note": 66,
      "start": 0.8789,
      "duration": 0.4248,
      "velocity": 121,
      "chip": "ym2612"
    },
    {
      "channel": 3,
      "note": 68,
      "start": 1.3068,
      "duration": 0.4304,
      "velocity": 96,
      "chip": "ym2612"
    },
    {
      "channel": 0,
      "note": 66,
      "start": 1.3095,
      "duration": 0.2942,
      "velocity": 121,
      "chip": "ym2612"
    },
    {
      "channel": 0,
      "note": 66,
      "start": 1.607,
      "duration": 0.1301,
      "velocity": 121,
      "chip": "ym2612"
    },
    {
      "channel": 3,
      "note": 67,
      "start": 1.7404,
      "duration": 0.2967,
      "velocity": 96,
      "chip": "ym2612"
    },
    {
      "channel": 0,
      "note": 66,
      "start": 1.746,
      "duration": 0.4244,
      "velocity": 121,
      "chip": "ym2612"
    },
    {
      "channel": 3,
      "note": 67,
      "start": 2.0404,
      "duration": 0.1302,
      "velocity": 96,
      "chip": "ym2612"
    },
    {
      "channel": 3,
      "note": 62,
      "start": 2.1738,
      "duration": 0.4302,
      "velocity": 96,
      "chip": "ym2612"
    },
    {
      "channel": 0,
      "note": 66,
      "start": 2.1764,
      "duration": 0.294,
      "velocity": 121,
      "chip": "ym2612"
    },
    {
      "channel": 0,
      "note": 66,
      "start": 2.4737,
      "duration": 0.13,
      "velocity": 121,
      "chip": "ym2612"
    },
    {
      "channel": 3,
      "note": 63,
      "start": 2.6072,
      "duration": 0.43,
      "velocity": 96,
      "chip": "ym2612"
    },
    {
      "channel": 0,
      "note": 66,
      "start": 2.6128,
      "duration": 0.4243,
      "velocity": 121,
      "chip": "ym2612"
    },
    {
      "channel": 3,
      "note": 66,
      "start": 3.0402,
      "duration": 0.4303,
      "velocity": 96,
      "chip": "ym2612"
    },
    {
      "channel": 0,
      "note": 66,
      "start": 3.0429,
      "duration": 0.2942,
      "velocity": 121,
      "chip": "ym2612"
    },
    {
      "channel": 0,
      "note": 66,
      "start": 3.3404,
      "duration": 0.1299,
      "velocity": 121,
      "chip": "ym2612"
    },
    {
      "channel": 3,
      "note": 57,
      "start": 3.4738,
      "duration": 0.2967,
      "velocity": 96,
      "chip": "ym2612"
    },
    {
      "channel": 0,
      "note": 66,
      "start": 3.4794,
      "duration": 0.4411,
      "velocity": 121,
      "chip": "ym2612"
    },
    {
      "channel": 3,
      "note": 59,
      "start": 3.7737,
      "duration": 0.147,
      "velocity": 96,
      "chip": "ym2612"
    },
    {
      "channel": 1,
      "note": 83,
      "start": 3.7767,
      "duration": 0.1439,
      "velocity": 98,
      "chip": "ym2612"
    },
    {
      "channel": 4,
      "note": 77,
      "start": 3.7794,
      "duration": 0.1415,
      "velocity": 98,
      "chip": "ym2612"
    },
    {
      "channel": 5,
      "note": 78,
      "start": 3.7824,
      "duration": 0.1387,
      "velocity": 98,
      "chip": "ym2612"
    },
    {
      "channel": 3,
      "note": 74,
      "start": 3.9241,
      "duration": 0.43,
      "velocity": 96,
      "chip": "ym2612"
    },
    {
      "channel": 0,
      "note": 66,
      "start": 3.9268,
      "duration": 0.2769,
      "velocity": 121,
      "chip": "ym2612"
    },
    {
      "channel": 0,
      "note": 66,
      "start": 4.2071,
      "duration": 0.1467,
      "velocity": 121,
      "chip": "ym2612"
    },
    {
      "channel": 1,
      "note": 83,
      "start": 4.21,
      "duration": 0.1439,
      "velocity": 98,
      "chip": "ym2612"
    },
    {
      "channel": 4,
      "note": 78,
      "start": 4.2127,
      "duration": 0.1415,
      "velocity": 98,
      "chip": "ym2612"
    },
    {
      "channel": 5,
      "note": 77,
      "start": 4.2161,
      "duration": 0.1382,
      "velocity": 98,
      "chip": "ym2612"
    },
    {
      "channel": 3,
      "note": 73,
      "start": 4.3572,
      "duration": 0.43,
      "velocity": 96,
      "chip": "ym2612"
    },
    {
      "channel": 0,
      "note": 66,
      "start": 4.3627,
      "duration": 0.4243,
      "velocity": 121,
      "chip": "ym2612"
    },
    {
      "channel": 3,
      "note": 71,
      "start": 4.7901,
      "duration": 0.4305,
      "velocity": 96,
      "chip": "ym2612"
    },
    {
      "channel": 0,
      "note": 66,
      "start": 4.7928,
      "duration": 0.2776,
      "velocity": 121,
      "chip": "ym2612"
    },
    {
      "channel": 0,
      "note": 66,
      "start": 5.0738,
      "duration": 0.1467,
      "velocity": 121,
      "chip": "ym2612"
    },
    {
      "channel": 3,
      "note": 73,
      "start": 5.2235,
      "duration": 0.4304,
      "velocity": 96,
      "chip": "ym2612"
    },
    {
      "channel": 0,
      "note": 66,
      "start": 5.2291,
      "duration": 0.4246,
      "velocity": 121,
      "chip": "ym2612"
    },
    {
      "channel": 3,
      "note": 71,
      "start": 5.6568,
      "duration": 0.4303,
      "velocity": 96,
      "chip": "ym2612"
    },
    {
      "channel": 0,
      "note": 66,
      "start": 5.6595,
      "duration": 0.2776,
      "velocity": 121,
      "chip": "ym2612"
    },
    {
      "channel": 0,
      "note": 66,
      "start": 5.9404,
      "duration": 0.1466,
      "velocity": 121,
      "chip": "ym2612"
    },
    {
      "channel": 3,
      "note": 59,
      "start": 6.0907,
      "duration": 0.2798,
      "velocity": 96,
      "chip": "ym2612"
    },
    {
      "channel": 0,
      "note": 66,
      "start": 6.0963,
      "duration": 0.424,
      "velocity": 121,
      "chip": "ym2612"
    },
    {
      "channel": 3,
      "note": 61,
      "start": 6.3738,
      "duration": 0.1468,
      "velocity": 96,
      "chip": "ym2612"
    },
    {
      "channel": 3,
      "note": 62,
      "start": 6.5238,
      "duration": 0.4302,
      "velocity": 96,
      "chip": "ym2612"
    },
    {
      "channel": 0,
      "note": 66,
      "start": 6.5265,
      "duration": 0.2772,
      "velocity": 121,
      "chip": "ym2612"
    },
    {
      "channel": 0,
      "note": 66,
      "start": 6.807,
      "duration": 0.1467,
      "velocity": 121,
      "chip": "ym2612"
    },
    {
      "channel": 3,
      "note": 57,
      "start": 6.9572,
      "duration": 0.2801,
      "velocity": 96,
      "chip": "ym2612"
    },
    {
      "channel": 0,
      "note": 66,
      "start": 6.9627,
      "duration": 0.4244,
      "velocity": 121,
      "chip": "ym2612"
    },
    {
      "channel": 3,
      "note": 59,
      "start": 7.2404,
      "duration": 0.1469,
      "velocity": 96,
      "chip": "ym2612"
    },
    {
      "channel": 1,
      "note": 83,
      "start": 7.2435,
      "duration": 0.1437,
      "velocity": 98,
      "chip": "ym2612"
    },
    {
      "channel": 4,
      "note": 77,
      "start": 7.2462,
      "duration": 0.1413,
      "velocity": 98,
      "chip": "ym2612"
    },
    {
      "channel": 5,
      "note": 78,
      "start": 7.2491,
      "duration": 0.1385,
      "velocity": 98,
      "chip": "ym2612"
    },
    {
      "channel": 3,
      "note": 71,
      "start": 7.3911,
      "duration": 0.4297,
      "velocity": 96,
      "chip": "ym2612"
    },
    {
      "channel": 0,
      "note": 66,
      "start": 7.3937,
      "duration": 0.2767,
      "velocity": 121,
      "chip": "ym2612"
    },
    {
      "channel": 0,
      "note": 66,
      "start": 7.6738,
      "duration": 0.1466,
      "velocity": 121,
      "chip": "ym2612"
    },
    {
      "channel": 1,
      "note": 83,
      "start": 7.6767,
      "duration": 0.1439,
      "velocity": 98,
      "chip": "ym2612"
    },
    {
      "channel": 4,
      "note": 78,
      "start": 7.6794,
      "duration": 0.1415,
      "velocity": 98,
      "chip": "ym2612"
    },
    {
      "channel": 5,
      "note": 77,
      "start": 7.6824,
      "duration": 0.1386,
      "velocity": 98,
      "chip": "ym2612"
    },
    {
      "channel": 3,
      "note": 69,
      "start": 7.8238,
      "duration": 0.4302,
      "velocity": 96,
      "chip": "ym2612"
    },
    {
      "channel": 0,
      "note": 66,
      "start": 7.8293,
      "duration": 0.4244,
      "velocity": 121,
      "chip": "ym2612"
    },
    {
      "channel": 3,
      "note": 68,
      "start": 8.2569,
      "duration": 0.4303,
      "velocity": 96,
      "chip": "ym2612"
    },
    {
      "channel": 0,
      "note": 66,
      "start": 8.2596,
      "duration": 0.2775,
      "velocity": 121,
      "chip": "ym2612"
    },
    {
      "channel": 0,
      "note": 66,
      "start": 8.5404,
      "duration": 0.1467,
      "velocity": 121,
      "chip": "ym2612"
    },
    {
      "channel": 3,
      "note": 67,
      "start": 8.6905,
      "duration": 0.28,
      "velocity": 96,
      "chip": "ym2612"
    },
    {
      "channel": 0,
      "note": 66,
      "start": 8.696,
      "duration": 0.4244,
      "velocity": 121,
      "chip": "ym2612"
    },
    {
      "channel": 3,
      "note": 67,
      "start": 8.9737,
      "duration": 0.147,
      "velocity": 96,
      "chip": "ym2612"
    },
    {
      "channel": 3,
      "note": 62,
      "start": 9.1238,
      "duration": 0.43,
      "velocity": 96,
      "chip": "ym2612"
    },
    {
      "channel": 0,
      "note": 66,
      "start": 9.1266,
      "duration": 0.2771,
      "velocity": 121,
      "chip": "ym2612"
    },
    {
      "channel": 0,
      "note": 66,
      "start": 9.407,
      "duration": 0.1467,
      "velocity": 121,
      "chip": "ym2612"
    },
    {
      "channel": 3,
      "note": 63,
      "start": 9.5568,
      "duration": 0.4305,
      "velocity": 96,
      "chip": "ym2612"
    },
    {
      "channel": 0,
      "note": 66,
      "start": 9.5623,
      "duration": 0.4248,
      "velocity": 121,
      "chip": "ym2612"
    },
    {
      "channel": 3,
      "note": 66,
      "start": 9.9902,
      "duration": 0.4303,
      "velocity": 96,
      "chip": "ym2612"
    },
    {
      "channel": 0,
      "note": 66,
      "start": 9.9929,
      "duration": 0.2775,
      "velocity": 121,
      "chip": "ym2612"
    },
    {
      "channel": 0,
      "note": 66,
      "start": 10.2737,
      "duration": 0.1467,
      "velocity": 121,
      "chip": "ym2612"
    },
    {
      "channel": 3,
      "note": 71,
      "start": 10.4241,
      "duration": 0.2798,
      "velocity": 96,
      "chip": "ym2612"
    },
    {
      "channel": 0,
      "note": 66,
      "start": 10.4296,
      "duration": 0.4241,
      "velocity": 121,
      "chip": "ym2612"
    },
    {
      "channel": 1,
      "note": 95,
      "start": 10.4325,
      "duration": 0.1379,
      "velocity": 98,
      "chip": "ym2612"
    },
    {
      "channel": 1,
      "note": 83,
      "start": 10.5738,
      "duration": 0.13,
      "velocity": 98,
      "chip": "ym2612"
    },
    {
      "channel": 3,
      "note": 71,
      "start": 10.7071,
      "duration": 0.1468,
      "velocity": 96,
      "chip": "ym2612"
    },
    {
      "channel": 1,
      "note": 89,
      "start": 10.7105,
      "duration": 0.1432,
      "velocity": 98,
      "chip": "ym2612"
    },
    {
      "channel": 4,
      "note": 88,
      "start": 10.7134,
      "duration": 0.1407,
      "velocity": 98,
      "chip": "ym2612"
    },
    {
      "channel": 3,
      "note": 69,
      "start": 10.8572,
      "duration": 0.4301,
      "velocity": 96,
      "chip": "ym2612"
    },
    {
      "channel": 0,
      "note": 66,
      "start": 10.8599,
      "duration": 0.2772,
      "velocity": 121,
      "chip": "ym2612"
    },
    {
      "channel": 0,
      "note": 66,
      "start": 11.1404,
      "duration": 0.1467,
      "velocity": 121,
      "chip": "ym2612"
    },
    {
      "channel": 3,
      "note": 67,
      "start": 11.2902,
      "duration": 0.4303,
      "velocity": 96,
      "chip": "ym2612"
    },
    {
      "channel": 0,
      "note": 66,
      "start": 11.2958,
      "duration": 0.4246,
      "velocity": 121,
      "chip": "ym2612"
    },
    {
      "channel": 1,
      "note": 86,
      "start": 11.2987,
      "duration": 0.1384,
      "velocity": 98,
      "chip": "ym2612"
    },
    {
      "channel": 1,
      "note": 85,
      "start": 11.574,
      "duration": 0.1465,
      "velocity": 98,
      "chip": "ym2612"
    },
    {
      "channel": 3,
      "note": 66,
      "start": 11.7235,
      "duration": 0.4303,
      "velocity": 96,
      "chip": "ym2612"
    },
    {
      "channel": 0,
      "note": 66,
      "start": 11.7262,
      "duration": 0.2775,
      "velocity": 121,
      "chip": "ym2612"
    },
    {
      "channel": 0,
      "note": 66,
      "start": 12.007,
      "duration": 0.1467,
      "velocity": 121,
      "chip": "ym2612"
    },
    {
      "channel": 1,
      "note": 83,
      "start": 12.0102,
      "duration": 1.1269,
      "velocity": 98,
      "chip": "ym2612"
    },
    {
      "channel": 3,
      "note": 64,
      "start": 12.1568,
      "duration": 0.4305,
      "velocity": 96,
      "chip": "ym2612"
    },
    {
      "channel": 0,
      "note": 66,
      "start": 12.1623,
      "duration": 0.4248,
      "velocity": 121,
      "chip": "ym2612"
    },
    {
      "channel": 3,
      "note": 62,
      "start": 12.5902,
      "duration": 0.4303,
      "velocity": 96,
      "chip": "ym2612"
    },
    {
      "channel": 0,
      "note": 66,
      "start": 12.5929,
      "duration": 0.2942,
      "velocity": 121,
      "chip": "ym2612"
    },
    {
      "channel": 0,
      "note": 66,
      "start": 12.8904,
      "duration": 0.13,
      "velocity": 121,
      "chip": "ym2612"
    },
    {
      "channel": 3,
      "note": 61,
      "start": 13.0234,
      "duration": 0.4304,
      "velocity": 96,
      "chip": "ym2612"
    },
    {
      "channel": 0,
      "note": 66,
      "start": 13.029,
      "duration": 0.4247,
      "velocity": 121,
      "chip": "ym2612"
    },
    {
      "channel": 1,
      "note": 78,
      "start": 13.3574,
      "duration": 0.1297,
      "velocity": 98,
      "chip": "ym2612"
    },
    {
      "channel": 3,
      "note": 52,
      "start": 13.457,
      "duration": 0.1468,
      "velocity": 96,
      "chip": "ym2612"
    },
    {
      "channel": 0,
      "note": 66,
      "start": 13.4598,
      "duration": 0.294,
      "velocity": 121,
      "chip": "ym2612"
    },
    {
      "channel": 1,
      "note": 81,
      "start": 13.4906,
      "duration": 0.1465,
      "velocity": 98,
      "chip": "ym2612"
    },
    {
      "channel": 3,
      "note": 53,
      "start": 13.6067,
      "duration": 0.1473,
      "velocity": 96,
      "chip": "ym2612"
    },
    {
      "channel": 1,
      "note": 82,
      "start": 13.6405,
      "duration": 0.1467,
      "velocity": 98,
      "chip": "ym2612"
    },
    {
      "channel": 3,
      "note": 54,
      "start": 13.7572,
      "duration": 0.13,
      "velocity": 96,
      "chip": "ym2612"
    },
    {
      "channel": 0,
      "note": 66,
      "start": 13.76,
      "duration": 0.1271,
      "velocity": 121,
      "chip": "ym2612"
    },
    {
      "channel": 1,
      "note": 78,
      "start": 13.7911,
      "duration": 0.1293,
      "velocity": 98,
      "chip": "ym2612"
    },
    {
      "channel": 3,
      "note": 57,
      "start": 13.8904,
      "duration": 0.2968,
      "velocity": 96,
      "chip": "ym2612"
    },
    {
      "channel": 0,
      "note": 66,
      "start": 13.896,
      "duration": 0.4244,
      "velocity": 121,
      "chip": "ym2612"
    },
    {
      "channel": 4,
      "note": 83,
      "start": 13.899,
      "duration": 0.1381,
      "velocity": 98,
      "chip": "ym2612"
    },
    {
      "channel": 1,
      "note": 90,
      "start": 14.0405,
      "duration": 0.1466,
      "velocity": 98,
      "chip": "ym2612"
    },
    {
      "channel": 3,
      "note": 59,
      "start": 14.1904,
      "duration": 0.1303,
      "velocity": 96,
      "chip": "ym2612"
    },
    {
      "channel": 1,
      "note": 83,
      "start": 14.1934,
      "duration": 0.1272,
      "velocity": 98,
      "chip": "ym2612"
    },
    {
      "channel": 3,
      "note": 71,
      "start": 14.3239,
      "duration": 0.43,
      "velocity": 96,
      "chip": "ym2612"
    },
    {
      "channel": 0,
      "note": 66,
      "start": 14.3266,
      "duration": 0.2937,
      "velocity": 121,
      "chip": "ym2612"
    },
    {
      "channel": 1,
      "note": 88,
      "start": 14.3296,
      "duration": 0.1408,
      "velocity": 98,
      "chip": "ym2612"
    },
    {
      "channel": 1,
      "note": 71,
      "start": 14.4906,
      "duration": 0.1465,
      "velocity": 98,
      "chip": "ym2612"
    },
    {
      "channel": 0,
      "note": 66,
      "start": 14.6237,
      "duration": 0.13,
      "velocity": 121,
      "chip": "ym2612"
    },
    {
      "channel": 4,
      "note": 83,
      "start": 14.6266,
      "duration": 0.1273,
      "velocity": 98,
      "chip": "ym2612"
    },
    {
      "channel": 3,
      "note": 69,
      "start": 14.7568,
      "duration": 0.4303,
      "velocity": 96,
      "chip": "ym2612"
    },
    {
      "channel": 0,
      "note": 66,
      "start": 14.7624,
      "duration": 0.4246,
      "velocity": 121,
      "chip": "ym2612"
    },
    {
      "channel": 1,
      "note": 86,
      "start": 14.7655,
      "duration": 0.2882,
      "velocity": 98,
      "chip": "ym2612"
    },
    {
      "channel": 1,
      "note": 83,
      "start": 15.0577,
      "duration": 0.2794,
      "velocity": 98,
      "chip": "ym2612"
    },
    {
      "channel": 3,
      "note": 68,
      "start": 15.1901,
      "duration": 0.4305,
      "velocity": 96,
      "chip": "ym2612"
    },
    {
      "channel": 0,
      "note": 66,
      "start": 15.1928,
      "duration": 0.2942,
      "velocity": 121,
      "chip": "ym2612"
    },
    {
      "channel": 0,
      "note": 66,
      "start": 15.4903,
      "duration": 0.1301,
      "velocity": 121,
      "chip": "ym2612"
    },
    {
      "channel": 3,
      "note": 67,
      "start": 15.6238,
      "duration": 0.2969,
      "velocity": 96,
      "chip": "ym2612"
    },
    {
      "channel": 0,
      "note": 66,
      "start": 15.6294,
      "duration": 0.4244,
      "velocity": 121,
      "chip": "ym2612"
    },
    {
      "channel": 1,
      "note": 86,
      "start": 15.6324,
      "duration": 0.138,
      "velocity": 98,
      "chip": "ym2612"
    },
    {
      "channel": 1,
      "note": 83,
      "start": 15.774,
      "duration": 0.1465,
      "velocity": 98,
      "chip": "ym2612"
    },
    {
      "channel": 3,
      "note": 67,
      "start": 15.9242,
      "duration": 0.1298,
      "velocity": 96,
      "chip": "ym2612"
    },
    {
      "channel": 1,
      "note": 77,
      "start": 15.9271,
      "duration": 0.1268,
      "velocity": 98,
      "chip": "ym2612"
    },
    {
      "channel": 3,
      "note": 62,
      "start": 16.0572,
      "duration": 0.4468,
      "velocity": 96,
      "chip": "ym2612"
    },
    {
      "channel": 0,
      "note": 66,
      "start": 16.0599,
      "duration": 0.2938,
      "velocity": 121,
      "chip": "ym2612"
    },
    {
      "channel": 1,
      "note": 78,
      "start": 16.0626,
      "duration": 0.1412,
      "velocity": 98,
      "chip": "ym2612"
    },
    {
      "channel": 1,
      "note": 83,
      "start": 16.2073,
      "duration": 0.1466,
      "velocity": 98,
      "chip": "ym2612"
    },
    {
      "channel": 0,
      "note": 66,
      "start": 16.3572,
      "duration": 0.1466,
      "velocity": 121,
      "chip": "ym2612"
    },
    {
      "channel": 1,
      "note": 76,
      "start": 16.36,
      "duration": 0.1439,
      "velocity": 98,
      "chip": "ym2612"
    },
    {
      "channel": 3,
      "note": 63,
      "start": 16.507,
      "duration": 0.4303,
      "velocity": 96,
      "chip": "ym2612"
    },
    {
      "channel": 0,
      "note": 66,
      "start": 16.5125,
      "duration": 0.4245,
      "velocity": 121,
      "chip": "ym2612"
    },
    {
      "channel": 1,
      "note": 78,
      "start": 16.5156,
      "duration": 0.855,
      "velocity": 98,
      "chip": "ym2612"
    },
    {
      "channel": 4,
      "note": 88,
      "start": 16.5185,
      "duration": 0.8019,
      "velocity": 98,
      "chip": "ym2612"
    },
    {
      "channel": 3,
      "note": 66,
      "start": 16.9402,
      "duration": 0.4305,
      "velocity": 96,
      "chip": "ym2612"
    },
    {
      "channel": 0,
      "note": 66,
      "start": 16.9429,
      "duration": 0.2776,
      "velocity": 121,
      "chip": "ym2612"
    },
    {
      "channel": 0,
      "note": 66,
      "start": 17.2237,
      "duration": 0.1468,
      "velocity": 121,
      "chip": "ym2612"
    },
    {
      "channel": 3,
      "note": 57,
      "start": 17.3739,
      "duration": 0.2801,
      "velocity": 96,
      "chip": "ym2612"
    },
    {
      "channel": 0,
      "note": 66,
      "start": 17.3795,
      "duration": 0.4242,
      "velocity": 121,
      "chip": "ym2612"
    },
    {
      "channel": 1,
      "note": 88,
      "start": 17.3829,
      "duration": 0.1209,
      "velocity": 98,
      "chip": "ym2612"
    },
    {
      "channel": 1,
      "note": 89,
      "start": 17.5072,
      "duration": 0.1466,
      "velocity": 98,
      "chip": "ym2612"
    },
    {
      "channel": 3,
      "note": 59,
      "start": 17.6572,
      "duration": 0.1468,
      "velocity": 96,
      "chip": "ym2612"
    },
    {
      "channel": 1,
      "note": 90,
      "start": 17.66,
      "duration": 0.1438,
      "velocity": 98,
      "chip": "ym2612"
    },
    {
      "channel": 3,
      "note": 74,
      "start": 17.8072,
      "duration": 0.4301,
      "velocity": 96,
      "chip": "ym2612"
    },
    {
      "channel": 0,
      "note": 66,
      "start": 17.8099,
      "duration": 0.2771,
      "velocity": 121,
      "chip": "ym2612"
    },
    {
      "channel": 1,
      "note": 88,
      "start": 17.8126,
      "duration": 0.1245,
      "velocity": 98,
      "chip": "ym2612"
    },
    {
      "channel": 1,
      "note": 89,
      "start": 17.9406,
      "duration": 0.1465,
      "velocity": 98,
      "chip": "ym2612"
    },
    {
      "channel": 0,
      "note": 66,
      "start": 18.0904,
      "duration": 0.1467,
      "velocity": 121,
      "chip": "ym2612"
    },
    {
      "channel": 1,
      "note": 90,
      "start": 18.0932,
      "duration": 0.144,
      "velocity": 98,
      "chip": "ym2612"
    },
    {
      "channel": 3,
      "note": 73,
      "start": 18.2406,
      "duration": 0.4299,
      "velocity": 96,
      "chip": "ym2612"
    },
    {
      "channel": 0,
      "note": 66,
      "start": 18.2462,
      "duration": 0.4242,
      "velocity": 121,
      "chip": "ym2612"
    },
    {
      "channel": 1,
      "note": 86,
      "start": 18.2489,
      "duration": 0.1216,
      "velocity": 98,
      "chip": "ym2612"
    },
    {
      "channel": 1,
      "note": 83,
      "start": 18.3742,
      "duration": 0.7129,
      "velocity": 98,
      "chip": "ym2612"
    },
    {
      "channel": 3,
      "note": 71,
      "start": 18.6734,
      "duration": 0.4305,
      "velocity": 96,
      "chip": "ym2612"
    },
    {
      "channel": 0,
      "note": 66,
      "start": 18.6761,
      "duration": 0.2776,
      "velocity": 121,
      "chip": "ym2612"
    },
    {
      "channel": 0,
      "note": 66,
      "start": 18.9571,
      "duration": 0.1466,
      "velocity": 121,
      "chip": "ym2612"
    },
    {
      "channel": 3,
      "note": 73,
      "start": 19.1068,
      "duration": 0.4305,
      "velocity": 96,
      "chip": "ym2612"
    },
    {
      "channel": 0,
      "note": 66,
      "start": 19.1124,
      "duration": 0.4246,
      "velocity": 121,
      "chip": "ym2612"
    },
    {
      "channel": 1,
      "note": 86,
      "start": 19.1155,
      "duration": 0.1216,
      "velocity": 98,
      "chip": "ym2612"
    },
    {
      "channel": 4,
      "note": 77,
      "start": 19.1184,
      "duration": 0.1189,
      "velocity": 98,
      "chip": "ym2612"
    },
    {
      "channel": 1,
      "note": 66,
      "start": 19.241,
      "duration": 0.1462,
      "velocity": 98,
      "chip": "ym2612"
    },
    {
      "channel": 1,
      "note": 86,
      "start": 19.3907,
      "duration": 0.1465,
      "velocity": 98,
      "chip": "ym2612"
    },
    {
      "channel": 4,
      "note": 77,
      "start": 19.3936,
      "duration": 0.1439,
      "velocity": 98,
      "chip": "ym2612"
    },
    {
      "channel": 3,
      "note": 71,
      "start": 19.5403,
      "duration": 0.4303,
      "velocity": 96,
      "chip": "ym2612"
    },
    {
      "channel": 0,
      "note": 66,
      "start": 19.543,
      "duration": 0.2773,
      "velocity": 121,
      "chip": "ym2612"
    },
    {
      "channel": 1,
      "note": 86,
      "start": 19.546,
      "duration": 0.1245,
      "velocity": 98,
      "chip": "ym2612"
    },
    {
      "channel": 4,
      "note": 77,
      "start": 19.5488,
      "duration": 0.1218,
      "velocity": 98,
      "chip": "ym2612"
    },
    {
      "channel": 1,
      "note": 66,
      "start": 19.674,
      "duration": 0.1464,
      "velocity": 98,
      "chip": "ym2612"
    },
    {
      "channel": 0,
      "note": 66,
      "start": 19.8237,
      "duration": 0.1466,
      "velocity": 121,
      "chip": "ym2612"
    },
    {
      "channel": 1,
      "note": 86,
      "start": 19.8266,
      "duration": 0.1438,
      "velocity": 98,
      "chip": "ym2612"
    },
    {
      "channel": 4,
      "note": 77,
      "start": 19.8295,
      "duration": 0.1413,
      "velocity": 98,
      "chip": "ym2612"
    },
    {
      "channel": 3,
      "note": 59,
      "start": 19.9739,
      "duration": 0.28,
      "velocity": 96,
      "chip": "ym2612"
    },
    {
      "channel": 0,
      "note": 66,
      "start": 19.9794,
      "duration": 0.4243,
      "velocity": 121,
      "chip": "ym2612"
    },
    {
      "channel": 1,
      "note": 85,
      "start": 19.9829,
      "duration": 0.421,
      "velocity": 98,
      "chip": "ym2612"
    },
    {
      "channel": 4,
      "note": 76,
      "start": 19.9859,
      "duration": 0.118,
      "velocity": 98,
      "chip": "ym2612"
    },
    {
      "channel": 4,
      "note": 77,
      "start": 20.1075,
      "duration": 0.1465,
      "velocity": 98,
      "chip": "ym2612"
    },
    {
      "channel": 5,
      "note": 74,
      "start": 20.2408,
      "duration": 0.1464,
      "velocity": 98,
      "chip": "ym2612"
    },
    {
      "channel": 3,
      "note": 61,
      "start": 20.2572,
      "duration": 0.1468,
      "velocity": 96,
      "chip": "ym2612"
    },
    {
      "channel": 4,
      "note": 73,
      "start": 20.3909,
      "duration": 0.4296,
      "velocity": 98,
      "chip": "ym2612"
    },
    {
      "channel": 3,
      "note": 62,
      "start": 20.4072,
      "duration": 0.4302,
      "velocity": 96,
      "chip": "ym2612"
    },
    {
      "channel": 0,
      "note": 66,
      "start": 20.4099,
      "duration": 0.2772,
      "velocity": 121,
      "chip": "ym2612"
    },
    {
      "channel": 1,
      "note": 81,
      "start": 20.4128,
      "duration": 0.4244,
      "velocity": 98,
      "chip": "ym2612"
    },
    {
      "channel": 0,
      "note": 66,
      "start": 20.6904,
      "duration": 0.1467,
      "velocity": 121,
      "chip": "ym2612"
    },
    {
      "channel": 3,
      "note": 57,
      "start": 20.8406,
      "duration": 0.28,
      "velocity": 96,
      "chip": "ym2612"
    },
    {
      "channel": 0,
      "note": 66,
      "start": 20.8461,
      "duration": 0.4242,
      "velocity": 121,
      "chip": "ym2612"
    },
    {
      "channel": 1,
      "note": 95,
      "start": 20.8492,
      "duration": 0.138,
      "velocity": 98,
      "chip": "ym2612"
    },
    {
      "channel": 1,
      "note": 88,
      "start": 20.991,
      "duration": 0.1294,
      "velocity": 98,
      "chip": "ym2612"
    },
    {
      "channel": 3,
      "note": 59,
      "start": 21.1241,
      "duration": 0.1465,
      "velocity": 96,
      "chip": "ym2612"
    },
    {
      "channel": 1,
      "note": 87,
      "start": 21.127,
      "duration": 0.1434,
      "velocity": 98,
      "chip": "ym2612"
    },
    {
      "channel": 3,
      "note": 71,
      "start": 21.2738,
      "duration": 0.4302,
      "velocity": 96,
      "chip": "ym2612"
    },
    {
      "channel": 0,
      "note": 66,
      "start": 21.2766,
      "duration": 0.2771,
      "velocity": 121,
      "chip": "ym2612"
    },
    {
      "channel": 1,
      "note": 86,
      "start": 21.2796,
      "duration": 0.2742,
      "velocity": 98,
      "chip": "ym2612"
    },
    {
      "channel": 0,
      "note": 66,
      "start": 21.5571,
      "duration": 0.1466,
      "velocity": 121,
      "chip": "ym2612"
    },
    {
      "channel": 1,
      "note": 83,
      "start": 21.5602,
      "duration": 0.1436,
      "velocity": 98,
      "chip": "ym2612"
    },
    {
      "channel": 3,
      "note": 69,
      "start": 21.7068,
      "duration": 0.4305,
      "velocity": 96,
      "chip": "ym2612"
    },
    {
      "channel": 0,
      "note": 66,
      "start": 21.7124,
      "duration": 0.4247,
      "velocity": 121,
      "chip": "ym2612"
    },
    {
      "channel": 1,
      "note": 86,
      "start": 21.7152,
      "duration": 0.1385,
      "velocity": 98,
      "chip": "ym2612"
    },
    {
      "channel": 1,
      "note": 78,
      "start": 21.8572,
      "duration": 0.13,
      "velocity": 98,
      "chip": "ym2612"
    },
    {
      "channel": 1,
      "note": 83,
      "start": 21.9907,
      "duration": 0.1465,
      "velocity": 98,
      "chip": "ym2612"
    },
    {
      "channel": 3,
      "note": 68,
      "start": 22.1403,
      "duration": 0.4302,
      "velocity": 96,
      "chip": "ym2612"
    },
    {
      "channel": 0,
      "note": 66,
      "start": 22.143,
      "duration": 0.2774,
      "velocity": 121,
      "chip": "ym2612"
    },
    {
      "channel": 0,
      "note": 66,
      "start": 22.4237,
      "duration": 0.1467,
      "velocity": 121,
      "chip": "ym2612"
    },
    {
      "channel": 3,
      "note": 67,
      "start": 22.5738,
      "duration": 0.2802,
      "velocity": 96,
      "chip": "ym2612"
    },
    {
      "channel": 0,
      "note": 66,
      "start": 22.5793,
      "duration": 0.4244,
      "velocity": 121,
      "chip": "ym2612"
    },
    {
      "channel": 1,
      "note": 86,
      "start": 22.5822,
      "duration": 0.1382,
      "velocity": 98,
      "chip": "ym2612"
    },
    {
      "channel": 4,
      "note": 74,
      "start": 22.5851,
      "duration": 0.1355,
      "velocity": 98,
      "chip": "ym2612"
    },
    {
      "channel": 1,
      "note": 76,
      "start": 22.7243,
      "duration": 0.1295,
      "velocity": 98,
      "chip": "ym2612"
    },
    {
      "channel": 3,
      "note": 67,
      "start": 22.8572,
      "duration": 0.1468,
      "velocity": 96,
      "chip": "ym2612"
    },
    {
      "channel": 1,
      "note": 86,
      "start": 22.86,
      "duration": 0.1438,
      "velocity": 98,
      "chip": "ym2612"
    },
    {
      "channel": 3,
      "note": 62,
      "start": 23.0075,
      "duration": 0.4298,
      "velocity": 96,
      "chip": "ym2612"
    },
    {
      "channel": 0,
      "note": 66,
      "start": 23.0102,
      "duration": 0.2768,
      "velocity": 121,
      "chip": "ym2612"
    },
    {
      "channel": 1,
      "note": 76,
      "start": 23.0129,
      "duration": 0.1408,
      "velocity": 98,
      "chip": "ym2612"
    },
    {
      "channel": 1,
      "note": 77,
      "start": 23.1572,
      "duration": 0.1301,
      "velocity": 98,
      "chip": "ym2612"
    },
    {
      "channel": 0,
      "note": 66,
      "start": 23.2905,
      "duration": 0.1466,
      "velocity": 121,
      "chip": "ym2612"
    },
    {
      "channel": 1,
      "note": 85,
      "start": 23.2933,
      "duration": 0.1439,
      "velocity": 98,
      "chip": "ym2612"
    },
    {
      "channel": 3,
      "note": 63,
      "start": 23.4402,
      "duration": 0.4304,
      "velocity": 96,
      "chip": "ym2612"
    },
    {
      "channel": 0,
      "note": 66,
      "start": 23.4458,
      "duration": 0.4246,
      "velocity": 121,
      "chip": "ym2612"
    },
    {
      "channel": 1,
      "note": 77,
      "start": 23.4486,
      "duration": 0.1385,
      "velocity": 98,
      "chip": "ym2612"
    },
    {
      "channel": 1,
      "note": 78,
      "start": 23.5906,
      "duration": 0.1298,
      "velocity": 98,
      "chip": "ym2612"
    },
    {
      "channel": 1,
      "note": 85,
      "start": 23.724,
      "duration": 0.1466,
      "velocity": 98,
      "chip": "ym2612"
    },
    {
      "channel": 3,
      "note": 66,
      "start": 23.8736,
      "duration": 0.4303,
      "velocity": 96,
      "chip": "ym2612"
    },
    {
      "channel": 0,
      "note": 66,
      "start": 23.8763,
      "duration": 0.2774,
      "velocity": 121,
      "chip": "ym2612"
    },
    {
      "channel": 1,
      "note": 77,
      "start": 23.879,
      "duration": 0.1415,
      "velocity": 98,
      "chip": "ym2612"
    },
    {
      "channel": 1,
      "note": 78,
      "start": 24.024,
      "duration": 0.1299,
      "velocity": 98,
      "chip": "ym2612"
    },
    {
      "channel": 0,
      "note": 66,
      "start": 24.1571,
      "duration": 0.1466,
      "velocity": 121,
      "chip": "ym2612"
    },
    {
      "channel": 1,
      "note": 69,
      "start": 24.1599,
      "duration": 0.1439,
      "velocity": 98,
      "chip": "ym2612"
    },
    {
      "channel": 3,
      "note": 71,
      "start": 24.3072,
      "duration": 0.28,
      "velocity": 96,
      "chip": "ym2612"
    },
    {
      "channel": 0,
      "note": 66,
      "start": 24.3127,
      "duration": 0.4243,
      "velocity": 121,
      "chip": "ym2612"
    },
    {
      "channel": 1,
      "note": 71,
      "start": 24.316,
      "duration": 1.7212,
      "velocity": 98,
      "chip": "ym2612"
    },
    {
      "channel": 3,
      "note": 71,
      "start": 24.5904,
      "duration": 0.1468,
      "velocity": 96,
      "chip": "ym2612"
    },
    {
      "channel": 3,
      "note": 69,
      "start": 24.7404,
      "duration": 0.4303,
      "velocity": 96,
      "chip": "ym2612"
    },
    {
      "channel": 0,
      "note": 66,
      "start": 24.7431,
      "duration": 0.2939,
      "velocity": 121,
      "chip": "ym2612"
    },
    {
      "channel": 0,
      "note": 66,
      "start": 25.0404,
      "duration": 0.13,
      "velocity": 121,
      "chip": "ym2612"
    },
    {
      "channel": 3,
      "note": 67,
      "start": 25.1735,
      "duration": 0.4303,
      "velocity": 96,
      "chip": "ym2612"
    },
    {
      "channel": 0,
      "note": 66,
      "start": 25.179,
      "duration": 0.4246,
      "velocity": 121,
      "chip": "ym2612"
    },
    {
      "channel": 3,
      "note": 66,
      "start": 25.6068,
      "duration": 0.4305,
      "velocity": 96,
      "chip": "ym2612"
    },
    {
      "channel": 0,
      "note": 66,
      "start": 25.6095,
      "duration": 0.2942,
      "velocity": 121,
      "chip": "ym2612"
    },
    {
      "channel": 0,
      "note": 66,
      "start": 25.9071,
      "duration": 0.13,
      "velocity": 121,
      "chip": "ym2612"
    },
    {
      "channel": 3,
      "note": 64,
      "start": 26.0402,
      "duration": 0.4304,
      "velocity": 96,
      "chip": "ym2612"
    },
    {
      "channel": 0,
      "note": 66,
      "start": 26.0458,
      "duration": 0.4246,
      "velocity": 121,
      "chip": "ym2612"
    },
    {
      "channel": 3,
      "note": 62,
      "start": 26.4736,
      "duration": 0.4304,
      "velocity": 96,
      "chip": "ym2612"
    },
    {
      "channel": 0,
      "note": 66,
      "start": 26.4763,
      "duration": 0.2941,
      "velocity": 121,
      "chip": "ym2612"
    },
    {
      "channel": 0,
      "note": 66,
      "start": 26.7738,
      "duration": 0.13,
      "velocity": 121,
      "chip": "ym2612"
    },
    {
      "channel": 3,
      "note": 61,
      "start": 26.9072,
      "duration": 0.43,
      "velocity": 96,
      "chip": "ym2612"
    },
    {
      "channel": 0,
      "note": 66,
      "start": 26.9128,
      "duration": 0.4242,
      "velocity": 121,
      "chip": "ym2612"
    },
    {
      "channel": 3,
      "note": 52,
      "start": 27.3404,
      "duration": 0.1467,
      "velocity": 96,
      "chip": "ym2612"
    },
    {
      "channel": 0,
      "note": 66,
      "start": 27.3432,
      "duration": 0.2939,
      "velocity": 121,
      "chip": "ym2612"
    },
    {
      "channel": 3,
      "note": 53,
      "start": 27.49,
      "duration": 0.1472,
      "velocity": 96,
      "chip": "ym2612"
    },
    {
      "channel": 3,
      "note": 54,
      "start": 27.6402,
      "duration": 0.1305,
      "velocity": 96,
      "chip": "ym2612"
    },
    {
      "channel": 0,
      "note": 66,
      "start": 27.6429,
      "duration": 0.1276,
      "velocity": 121,
      "chip": "ym2612"
    },
    {
      "channel": 3,
      "note": 57,
      "start": 27.7738,
      "duration": 0.2966,
      "velocity": 96,
      "chip": "ym2612"
    },
    {
      "channel": 0,
      "note": 66,
      "start": 27.7794,
      "duration": 0.4244,
      "velocity": 121,
      "chip": "ym2612"
    },
    {
      "channel": 4,
      "note": 66,
      "start": 27.7831,
      "duration": 0.2876,
      "velocity": 101,
      "chip": "ym2612"
    },
    {
      "channel": 5,
      "note": 69,
      "start": 27.786,
      "duration": 0.2848,
      "velocity": 101,
      "chip": "ym2612"
    },
    {
      "channel": 3,
      "note": 59,
      "start": 28.0739,
      "duration": 0.1301,
      "velocity": 96,
      "chip": "ym2612"
    },
    {
      "channel": 4,
      "note": 66,
      "start": 28.0776,
      "duration": 3.1595,
      "velocity": 101,
      "chip": "ym2612"
    },
    {
      "channel": 5,
      "note": 71,
      "start": 28.0806,
      "duration": 3.1568,
      "velocity": 101,
      "chip": "ym2612"
    },
    {
      "channel": 3,
      "note": 71,
      "start": 28.2072,
      "duration": 0.4301,
      "velocity": 96,
      "chip": "ym2612"
    },
    {
      "channel": 0,
      "note": 66,
      "start": 28.2099,
      "duration": 0.2938,
      "velocity": 121,
      "chip": "ym2612"
    },
    {
      "channel": 0,
      "note": 66,
      "start": 28.507,
      "duration": 0.13,
      "velocity": 121,
      "chip": "ym2612"
    },
    {
      "channel": 3,
      "note": 69,
      "start": 28.6402,
      "duration": 0.4304,
      "velocity": 96,
      "chip": "ym2612"
    },
    {
      "channel": 0,
      "note": 66,
      "start": 28.6457,
      "duration": 0.4247,
      "velocity": 121,
      "chip": "ym2612"
    },
    {
      "channel": 3,
      "note": 68,
      "start": 29.0739,
      "duration": 0.4468,
      "velocity": 96,
      "chip": "ym2612"
    },
    {
      "channel": 0,
      "note": 66,
      "start": 29.0766,
      "duration": 0.2938,
      "velocity": 121,
      "chip": "ym2612"
    },
    {
      "channel": 0,
      "note": 66,
      "start": 29.3738,
      "duration": 0.1467,
      "velocity": 121,
      "chip": "ym2612"
    },
    {
      "channel": 3,
      "note": 67,
      "start": 29.5239,
      "duration": 0.28,
      "velocity": 96,
      "chip": "ym2612"
    },
    {
      "channel": 0,
      "note": 66,
      "start": 29.5294,
      "duration": 0.4243,
      "velocity": 121,
      "chip": "ym2612"
    },
    {
      "channel": 3,
      "note": 67,
      "start": 29.8071,
      "duration": 0.1468,
      "velocity": 96,
      "chip": "ym2612"
    },
    {
      "channel": 3,
      "note": 62,
      "start": 29.9572,
      "duration": 0.4301,
      "velocity": 96,
      "chip": "ym2612"
    },
    {
      "channel": 0,
      "note": 66,
      "start": 29.9598,
      "duration": 0.2772,
      "velocity": 121,
      "chip": "ym2612"
    },
    {
      "channel": 0,
      "note": 66,
      "start": 30.2404,
      "duration": 0.1467,
      "velocity": 121,
      "chip": "ym2612"
    },
    {
      "channel": 3,
      "note": 63,
      "start": 30.3902,
      "duration": 0.4303,
      "velocity": 96,
      "chip": "ym2612"
    },
    {
      "channel": 0,
      "note": 66,
      "start": 30.3957,
      "duration": 0.4246,
      "velocity": 121,
      "chip": "ym2612"
    },
    {
      "channel": 3,
      "note": 66,
      "start": 30.8234,
      "duration": 0.4304,
      "velocity": 96,
      "chip": "ym2612"
    },
    {
      "channel": 0,
      "note": 66,
      "start": 30.8262,
      "duration": 0.2776,
      "velocity": 121,
      "chip": "ym2612"
    },
    {
      "channel": 0,
      "note": 66,
      "start": 31.107,
      "duration": 0.1466,
      "velocity": 121,
      "chip": "ym2612"
    },
    {
      "channel": 3,
      "note": 57,
      "start": 31.2571,
      "duration": 0.2802,
      "velocity": 96,
      "chip": "ym2612"
    },
    {
      "channel": 0,
      "note": 66,
      "start": 31.2626,
      "duration": 0.4244,
      "velocity": 121,
      "chip": "ym2612"
    },
    {
      "channel": 2,
      "note": 90,
      "start": 31.2666,
      "duration": 0.1208,
      "velocity": 106,
      "chip": "ym2612"
    },
    {
      "channel": 1,
      "note": 93,
      "start": 31.2696,
      "duration": 0.1174,
      "velocity": 106,
      "chip": "ym2612"
    },
    {
      "channel": 1,
      "note": 83,
      "start": 31.3912,
      "duration": 0.1459,
      "velocity": 106,
      "chip": "ym2612"
    },
    {
      "channel": 3,
      "note": 59,
      "start": 31.5408,
      "duration": 0.1465,
      "velocity": 96,
      "chip": "ym2612"
    },
    {
      "channel": 1,
      "note": 90,
      "start": 31.5441,
      "duration": 0.1431,
      "velocity": 106,
      "chip": "ym2612"
    },
    {
      "channel": 2,
      "note": 95,
      "start": 31.5472,
      "duration": 0.1404,
      "velocity": 106,
      "chip": "ym2612"
    },
    {
      "channel": 3,
      "note": 74,
      "start": 31.6906,
      "duration": 0.4299,
      "velocity": 96,
      "chip": "ym2612"
    },
    {
      "channel": 0,
      "note": 66,
      "start": 31.6933,
      "duration": 0.277,
      "velocity": 121,
      "chip": "ym2612"
    },
    {
      "channel": 0,
      "note": 66,
      "start": 31.9737,
      "duration": 0.1467,
      "velocity": 121,
      "chip": "ym2612"
    },
    {
      "channel": 3,
      "note": 73,
      "start": 32.1234,
      "duration": 0.4305,
      "velocity": 96,
      "chip": "ym2612"
    },
    {
      "channel": 0,
      "note": 66,
      "start": 32.129,
      "duration": 0.4248,
      "velocity": 121,
      "chip": "ym2612"
    },
    {
      "channel": 3,
      "note": 71,
      "start": 32.5568,
      "duration": 0.4304,
      "velocity": 96,
      "chip": "ym2612"
    },
    {
      "channel": 0,
      "note": 66,
      "start": 32.5595,
      "duration": 0.2776,
      "velocity": 121,
      "chip": "ym2612"
    },
    {
      "channel": 0,
      "note": 66,
      "start": 32.8404,
      "duration": 0.1466,
      "velocity": 121,
      "chip": "ym2612"
    },
    {
      "channel": 3,
      "note": 73,
      "start": 32.9902,
      "duration": 0.4305,
      "velocity": 96,
      "chip": "ym2612"
    },
    {
      "channel": 0,
      "note": 66,
      "start": 32.9957,
      "duration": 0.4247,
      "velocity": 121,
      "chip": "ym2612"
    },
    {
      "channel": 3,
      "note": 71,
      "start": 33.4235,
      "duration": 0.4304,
      "velocity": 96,
      "chip": "ym2612"
    },
    {
      "channel": 0,
      "note": 66,
      "start": 33.4263,
      "duration": 0.2774,
      "velocity": 121,
      "chip": "ym2612"
    },
    {
      "channel": 0,
      "note": 66,
      "start": 33.707,
      "duration": 0.1467,
      "velocity": 121,
      "chip": "ym2612"
    },
    {
      "channel": 3,
      "note": 59,
      "start": 33.8571,
      "duration": 0.2801,
      "velocity": 96,
      "chip": "ym2612"
    },
    {
      "channel": 0,
      "note": 66,
      "start": 33.8627,
      "duration": 0.4244,
      "velocity": 121,
      "chip": "ym2612"
    },
    {
      "channel": 3,
      "note": 61,
      "start": 34.1404,
      "duration": 0.1468,
      "velocity": 96,
      "chip": "ym2612"
    },
    {
      "channel": 3,
      "note": 62,
      "start": 34.2909,
      "duration": 0.4297,
      "velocity": 96,
      "chip": "ym2612"
    },
    {
      "channel": 0,
      "note": 66,
      "start": 34.2936,
      "duration": 0.2768,
      "velocity": 121,
      "chip": "ym2612"
    },
    {
      "channel": 0,
      "note": 66,
      "start": 34.5737,
      "duration": 0.1467,
      "velocity": 121,
      "chip": "ym2612"
    },
    {
      "channel": 3,
      "note": 57,
      "start": 34.7238,
      "duration": 0.28,
      "velocity": 96,
      "chip": "ym2612"
    },
    {
      "channel": 0,
      "note": 66,
      "start": 34.7294,
      "duration": 0.4244,
      "velocity": 121,
      "chip": "ym2612"
    },
    {
      "channel": 4,
      "note": 66,
      "start": 34.7325,
      "duration": 0.2715,
      "velocity": 101,
      "chip": "ym2612"
    },
    {
      "channel": 5,
      "note": 69,
      "start": 34.7353,
      "duration": 0.2688,
      "velocity": 101,
      "chip": "ym2612"
    },
    {
      "channel": 3,
      "note": 59,
      "start": 35.0072,
      "duration": 0.1468,
      "velocity": 96,
      "chip": "ym2612"
    },
    {
      "channel": 4,
      "note": 66,
      "start": 35.0107,
      "duration": 3.1599,
      "velocity": 101,
      "chip": "ym2612"
    },
    {
      "channel": 5,
      "note": 71,
      "start": 35.0139,
      "duration": 3.1568,
      "velocity": 101,
      "chip": "ym2612"
    },
    {
      "channel": 3,
      "note": 71,
      "start": 35.1572,
      "duration": 0.4301,
      "velocity": 96,
      "chip": "ym2612"
    },
    {
      "channel": 0,
      "note": 66,
      "start": 35.1599,
      "duration": 0.2771,
      "velocity": 121,
      "chip": "ym2612"
    },
    {
      "channel": 0,
      "note": 66,
      "start": 35.4404,
      "duration": 0.1466,
      "velocity": 121,
      "chip": "ym2612"
    },
    {
      "channel": 3,
      "note": 69,
      "start": 35.5902,
      "duration": 0.4303,
      "velocity": 96,
      "chip": "ym2612"
    },
    {
      "channel": 0,
      "note": 66,
      "start": 35.5957,
      "duration": 0.4246,
      "velocity": 121,
      "chip": "ym2612"
    },
    {
      "channel": 3,
      "note": 68,
      "start": 36.0234,
      "duration": 0.4305,
      "velocity": 96,
      "chip": "ym2612"
    },
    {
      "channel": 0,
      "note": 66,
      "start": 36.0262,
      "duration": 0.2776,
      "velocity": 121,
      "chip": "ym2612"
    },
    {
      "channel": 0,
      "note": 66,
      "start": 36.307,
      "duration": 0.1467,
      "velocity": 121,
      "chip": "ym2612"
    },
    {
      "channel": 3,
      "note": 67,
      "start": 36.4572,
      "duration": 0.28,
      "velocity": 96,
      "chip": "ym2612"
    },
    {
      "channel": 0,
      "note": 66,
      "start": 36.4627,
      "duration": 0.4244,
      "velocity": 121,
      "chip": "ym2612"
    },
    {
      "channel": 3,
      "note": 67,
      "start": 36.7409,
      "duration": 0.1464,
      "velocity": 96,
      "chip": "ym2612"
    },
    {
      "channel": 3,
      "note": 62,
      "start": 36.8905,
      "duration": 0.4301,
      "velocity": 96,
      "chip": "ym2612"
    },
    {
      "channel": 0,
      "note": 66,
      "start": 36.8932,
      "duration": 0.2772,
      "velocity": 121,
      "chip": "ym2612"
    },
    {
      "channel": 0,
      "note": 66,
      "start": 37.1738,
      "duration": 0.1466,
      "velocity": 121,
      "chip": "ym2612"
    },
    {
      "channel": 3,
      "note": 63,
      "start": 37.3236,
      "duration": 0.4303,
      "velocity": 96,
      "chip": "ym2612"
    },
    {
      "channel": 0,
      "note": 66,
      "start": 37.3291,
      "duration": 0.4246,
      "velocity": 121,
      "chip": "ym2612"
    },
    {
      "channel": 3,
      "note": 66,
      "start": 37.7568,
      "duration": 0.4305,
      "velocity": 96,
      "chip": "ym2612"
    },
    {
      "channel": 0,
      "note": 66,
      "start": 37.7595,
      "duration": 0.2942,
      "velocity": 121,
      "chip": "ym2612"
    },
    {
      "channel": 0,
      "note": 66,
      "start": 38.0571,
      "duration": 0.13,
      "velocity": 121,
      "chip": "ym2612"
    },
    {
      "channel": 3,
      "note": 71,
      "start": 38.1905,
      "duration": 0.2968,
      "velocity": 96,
      "chip": "ym2612"
    },
    {
      "channel": 0,
      "note": 66,
      "start": 38.196,
      "duration": 0.4244,
      "velocity": 121,
      "chip": "ym2612"
    },
    {
      "channel": 1,
      "note": 90,
      "start": 38.1992,
      "duration": 0.138,
      "velocity": 106,
      "chip": "ym2612"
    },
    {
      "channel": 2,
      "note": 93,
      "start": 38.2021,
      "duration": 0.1353,
      "velocity": 106,
      "chip": "ym2612"
    },
    {
      "channel": 1,
      "note": 83,
      "start": 38.3409,
      "duration": 0.1462,
      "velocity": 106,
      "chip": "ym2612"
    },
    {
      "channel": 3,
      "note": 71,
      "start": 38.4905,
      "duration": 0.1302,
      "velocity": 96,
      "chip": "ym2612"
    },
    {
      "channel": 1,
      "note": 90,
      "start": 38.4937,
      "duration": 0.1268,
      "velocity": 106,
      "chip": "ym2612"
    },
    {
      "channel": 2,
      "note": 95,
      "start": 38.4969,
      "duration": 0.124,
      "velocity": 106,
      "chip": "ym2612"
    },
    {
      "channel": 3,
      "note": 69,
      "start": 38.6244,
      "duration": 0.4296,
      "velocity": 96,
      "chip": "ym2612"
    },
    {
      "channel": 0,
      "note": 66,
      "start": 38.627,
      "duration": 0.2934,
      "velocity": 121,
      "chip": "ym2612"
    },
    {
      "channel": 0,
      "note": 66,
      "start": 38.9238,
      "duration": 0.13,
      "velocity": 121,
      "chip": "ym2612"
    },
    {
      "channel": 3,
      "note": 67,
      "start": 39.0568,
      "duration": 0.4304,
      "velocity": 96,
      "chip": "ym2612"
    },
    {
      "channel": 0,
      "note": 66,
      "start": 39.0624,
      "duration": 0.4247,
      "velocity": 121,
      "chip": "ym2612"
    },
    {
      "channel": 3,
      "note": 66,
      "start": 39.4902,
      "duration": 0.4304,
      "velocity": 96,
      "chip": "ym2612"
    },
    {
      "channel": 0,
      "note": 66,
      "start": 39.4929,
      "duration": 0.2943,
      "velocity": 121,
      "chip": "ym2612"
    },
    {
      "channel": 0,
      "note": 66,
      "start": 39.7904,
      "duration": 0.13,
      "velocity": 121,
      "chip": "ym2612"
    },
    {
      "channel": 3,
      "note": 64,
      "start": 39.9235,
      "duration": 0.4303,
      "velocity": 96,
      "chip": "ym2612"
    },
    {
      "channel": 0,
      "note": 66,
      "start": 39.929,
      "duration": 0.4247,
      "velocity": 121,
      "chip": "ym2612"
    },
    {
      "channel": 3,
      "note": 62,
      "start": 40.3568,
      "duration": 0.4304,
      "velocity": 96,
      "chip": "ym2612"
    },
    {
      "channel": 0,
      "note": 66,
      "start": 40.3595,
      "duration": 0.2941,
      "velocity": 121,
      "chip": "ym2612"
    },
    {
      "channel": 0,
      "note": 66,
      "start": 40.657,
      "duration": 0.1301,
      "velocity": 121,
      "chip": "ym2612"
    },
    {
      "channel": 3,
      "note": 61,
      "start": 40.7902,
      "duration": 0.4304,
      "velocity": 96,
      "chip": "ym2612"
    },
    {
      "channel": 0,
      "note": 66,
      "start": 40.7957,
      "duration": 0.4247,
      "velocity": 121,
      "chip": "ym2612"
    },
    {
      "channel": 3,
      "note": 52,
      "start": 41.2238,
      "duration": 0.1466,
      "velocity": 96,
      "chip": "ym2612"
    },
    {
      "channel": 0,
      "note": 66,
      "start": 41.2265,
      "duration": 0.2939,
      "velocity": 121,
      "chip": "ym2612"
    },
    {
      "channel": 3,
      "note": 53,
      "start": 41.3734,
      "duration": 0.1473,
      "velocity": 96,
      "chip": "ym2612"
    },
    {
      "channel": 3,
      "note": 54,
      "start": 41.5235,
      "duration": 0.1303,
      "velocity": 96,
      "chip": "ym2612"
    },
    {
      "channel": 0,
      "note": 66,
      "start": 41.5263,
      "duration": 0.1274,
      "velocity": 121,
      "chip": "ym2612"
    },
    {
      "channel": 3,
      "note": 57,
      "start": 41.6571,
      "duration": 0.2966,
      "velocity": 96,
      "chip": "ym2612"
    },
    {
      "channel": 0,
      "note": 66,
      "start": 41.6626,
      "duration": 0.4412,
      "velocity": 121,
      "chip": "ym2612"
    },
    {
      "channel": 1,
      "note": 83,
      "start": 41.6663,
      "duration": 0.2541,
      "velocity": 106,
      "chip": "ym2612"
    },
    {
      "channel": 2,
      "note": 77,
      "start": 41.8077,
      "duration": 0.2966,
      "velocity": 106,
      "chip": "ym2612"
    },
    {
      "channel": 3,
      "note": 59,
      "start": 41.9573,
      "duration": 0.1466,
      "velocity": 96,
      "chip": "ym2612"
    },
    {
      "channel": 1,
      "note": 78,
      "start": 41.9604,
      "duration": 0.2767,
      "velocity": 106,
      "chip": "ym2612"
    },
    {
      "channel": 3,
      "note": 71,
      "start": 42.1073,
      "duration": 0.4301,
      "velocity": 96,
      "chip": "ym2612"
    },
    {
      "channel": 0,
      "note": 66,
      "start": 42.11,
      "duration": 0.2771,
      "velocity": 121,
      "chip": "ym2612"
    },
    {
      "channel": 2,
      "note": 71,
      "start": 42.1133,
      "duration": 0.2574,
      "velocity": 106,
      "chip": "ym2612"
    },
    {
      "channel": 1,
      "note": 76,
      "start": 42.241,
      "duration": 0.2963,
      "velocity": 106,
      "chip": "ym2612"
    },
    {
      "channel": 0,
      "note": 66,
      "start": 42.3904,
      "duration": 0.1466,
      "velocity": 121,
      "chip": "ym2612"
    },
    {
      "channel": 2,
      "note": 77,
      "start": 42.3936,
      "duration": 0.277,
      "velocity": 106,
      "chip": "ym2612"
    },
    {
      "channel": 3,
      "note": 69,
      "start": 42.5403,
      "duration": 0.4303,
      "velocity": 96,
      "chip": "ym2612"
    },
    {
      "channel": 0,
      "note": 66,
      "start": 42.5459,
      "duration": 0.4246,
      "velocity": 121,
      "chip": "ym2612"
    },
    {
      "channel": 1,
      "note": 74,
      "start": 42.549,
      "duration": 0.2382,
      "velocity": 106,
      "chip": "ym2612"
    },
    {
      "channel": 2,
      "note": 66,
      "start": 42.6745,
      "duration": 0.2461,
      "velocity": 106,
      "chip": "ym2612"
    },
    {
      "channel": 1,
      "note": 71,
      "start": 42.7914,
      "duration": 0.5957,
      "velocity": 106,
      "chip": "ym2612"
    },
    {
      "channel": 3,
      "note": 68,
      "start": 42.9736,
      "duration": 0.4304,
      "velocity": 96,
      "chip": "ym2612"
    },
    {
      "channel": 0,
      "note": 66,
      "start": 42.9763,
      "duration": 0.2774,
      "velocity": 121,
      "chip": "ym2612"
    },
    {
      "channel": 0,
      "note": 66,
      "start": 43.257,
      "duration": 0.1468,
      "velocity": 121,
      "chip": "ym2612"
    },
    {
      "channel": 3,
      "note": 67,
      "start": 43.4072,
      "duration": 0.28,
      "velocity": 96,
      "chip": "ym2612"
    },
    {
      "channel": 0,
      "note": 66,
      "start": 43.4127,
      "duration": 0.4244,
      "velocity": 121,
      "chip": "ym2612"
    },
    {
      "channel": 1,
      "note": 74,
      "start": 43.416,
      "duration": 0.2544,
      "velocity": 106,
      "chip": "ym2612"
    },
    {
      "channel": 2,
      "note": 65,
      "start": 43.5411,
      "duration": 0.2964,
      "velocity": 106,
      "chip": "ym2612"
    },
    {
      "channel": 3,
      "note": 67,
      "start": 43.6904,
      "duration": 0.1469,
      "velocity": 96,
      "chip": "ym2612"
    },
    {
      "channel": 1,
      "note": 71,
      "start": 43.6934,
      "duration": 0.277,
      "velocity": 106,
      "chip": "ym2612"
    },
    {
      "channel": 3,
      "note": 62,
      "start": 43.8406,
      "duration": 0.4301,
      "velocity": 96,
      "chip": "ym2612"
    },
    {
      "channel": 0,
      "note": 66,
      "start": 43.8433,
      "duration": 0.2771,
      "velocity": 121,
      "chip": "ym2612"
    },
    {
      "channel": 2,
      "note": 74,
      "start": 43.8466,
      "duration": 0.2574,
      "velocity": 106,
      "chip": "ym2612"
    },
    {
      "channel": 1,
      "note": 59,
      "start": 43.9743,
      "duration": 0.2628,
      "velocity": 106,
      "chip": "ym2612"
    },
    {
      "channel": 0,
      "note": 66,
      "start": 44.1237,
      "duration": 0.1467,
      "velocity": 121,
      "chip": "ym2612"
    },
    {
      "channel": 2,
      "note": 73,
      "start": 44.1272,
      "duration": 0.8435,
      "velocity": 106,
      "chip": "ym2612"
    },
    {
      "channel": 3,
      "note": 63,
      "start": 44.2736,
      "duration": 0.4303,
      "velocity": 96,
      "chip": "ym2612"
    },
    {
      "channel": 0,
      "note": 66,
      "start": 44.2791,
      "duration": 0.4246,
      "velocity": 121,
      "chip": "ym2612"
    },
    {
      "channel": 3,
      "note": 66,
      "start": 44.7072,
      "duration": 0.4302,
      "velocity": 96,
      "chip": "ym2612"
    },
    {
      "channel": 0,
      "note": 66,
      "start": 44.7098,
      "duration": 0.2773,
      "velocity": 121,
      "chip": "ym2612"
    },
    {
      "channel": 0,
      "note": 66,
      "start": 44.9904,
      "duration": 0.1466,
      "velocity": 121,
      "chip": "ym2612"
    },
    {
      "channel": 3,
      "note": 57,
      "start": 45.1405,
      "duration": 0.2802,
      "velocity": 96,
      "chip": "ym2612"
    },
    {
      "channel": 0,
      "note": 66,
      "start": 45.146,
      "duration": 0.4244,
      "velocity": 121,
      "chip": "ym2612"
    },
    {
      "channel": 1,
      "note": 77,
      "start": 45.1497,
      "duration": 0.2708,
      "velocity": 106,
      "chip": "ym2612"
    },
    {
      "channel": 2,
      "note": 78,
      "start": 45.2743,
      "duration": 0.2966,
      "velocity": 106,
      "chip": "ym2612"
    },
    {
      "channel": 3,
      "note": 59,
      "start": 45.4238,
      "duration": 0.1468,
      "velocity": 96,
      "chip": "ym2612"
    },
    {
      "channel": 1,
      "note": 83,
      "start": 45.4269,
      "duration": 0.2768,
      "velocity": 106,
      "chip": "ym2612"
    },
    {
      "channel": 3,
      "note": 74,
      "start": 45.5739,
      "duration": 0.4301,
      "velocity": 96,
      "chip": "ym2612"
    },
    {
      "channel": 0,
      "note": 66,
      "start": 45.5766,
      "duration": 0.277,
      "velocity": 121,
      "chip": "ym2612"
    },
    {
      "channel": 2,
      "note": 77,
      "start": 45.5798,
      "duration": 0.2742,
      "velocity": 106,
      "chip": "ym2612"
    },
    {
      "channel": 1,
      "note": 78,
      "start": 45.7073,
      "duration": 0.2965,
      "velocity": 106,
      "chip": "ym2612"
    },
    {
      "channel": 0,
      "note": 66,
      "start": 45.8571,
      "duration": 0.1466,
      "velocity": 121,
      "chip": "ym2612"
    },
    {
      "channel": 2,
      "note": 83,
      "start": 45.8604,
      "duration": 0.2602,
      "velocity": 106,
      "chip": "ym2612"
    },
    {
      "channel": 3,
      "note": 73,
      "start": 46.0069,
      "duration": 0.4303,
      "velocity": 96,
      "chip": "ym2612"
    },
    {
      "channel": 0,
      "note": 66,
      "start": 46.0124,
      "duration": 0.4246,
      "velocity": 121,
      "chip": "ym2612"
    },
    {
      "channel": 1,
      "note": 74,
      "start": 46.0157,
      "duration": 0.388,
      "velocity": 106,
      "chip": "ym2612"
    },
    {
      "channel": 2,
      "note": 71,
      "start": 46.2911,
      "duration": 0.2463,
      "velocity": 106,
      "chip": "ym2612"
    },
    {
      "channel": 1,
      "note": 62,
      "start": 46.4242,
      "duration": 0.2462,
      "velocity": 106,
      "chip": "ym2612"
    },
    {
      "channel": 3,
      "note": 71,
      "start": 46.4402,
      "duration": 0.4305,
      "velocity": 96,
      "chip": "ym2612"
    },
    {
      "channel": 0,
      "note": 66,
      "start": 46.4429,
      "duration": 0.2775,
      "velocity": 121,
      "chip": "ym2612"
    },
    {
      "channel": 2,
      "note": 59,
      "start": 46.5916,
      "duration": 0.2624,
      "velocity": 106,
      "chip": "ym2612"
    },
    {
      "channel": 0,
      "note": 66,
      "start": 46.7237,
      "duration": 0.1467,
      "velocity": 121,
      "chip": "ym2612"
    },
    {
      "channel": 1,
      "note": 71,
      "start": 46.7268,
      "duration": 0.1437,
      "velocity": 106,
      "chip": "ym2612"
    },
    {
      "channel": 3,
      "note": 73,
      "start": 46.8736,
      "duration": 0.4303,
      "velocity": 96,
      "chip": "ym2612"
    },
    {
      "channel": 0,
      "note": 66,
      "start": 46.8791,
      "duration": 0.4246,
      "velocity": 121,
      "chip": "ym2612"
    },
    {
      "channel": 1,
      "note": 76,
      "start": 46.8822,
      "duration": 0.2549,
      "velocity": 106,
      "chip": "ym2612"
    },
    {
      "channel": 2,
      "note": 71,
      "start": 47.0245,
      "duration": 0.2461,
      "velocity": 106,
      "chip": "ym2612"
    },
    {
      "channel": 1,
      "note": 65,
      "start": 47.1576,
      "duration": 0.2295,
      "velocity": 106,
      "chip": "ym2612"
    },
    {
      "channel": 3,
      "note": 71,
      "start": 47.3068,
      "duration": 0.4305,
      "velocity": 96,
      "chip": "ym2612"
    },
    {
      "channel": 0,
      "note": 66,
      "start": 47.3095,
      "duration": 0.2776,
      "velocity": 121,
      "chip": "ym2612"
    },
    {
      "channel": 2,
      "note": 77,
      "start": 47.3128,
      "duration": 0.2079,
      "velocity": 106,
      "chip": "ym2612"
    },
    {
      "channel": 1,
      "note": 69,
      "start": 47.4575,
      "duration": 0.2296,
      "velocity": 106,
      "chip": "ym2612"
    },
    {
      "channel": 0,
      "note": 66,
      "start": 47.5904,
      "duration": 0.1466,
      "velocity": 121,
      "chip": "ym2612"
    },
    {
      "channel": 2,
      "note": 62,
      "start": 47.5941,
      "duration": 0.1932,
      "velocity": 106,
      "chip": "ym2612"
    },
    {
      "channel": 3,
      "note": 59,
      "start": 47.7408,
      "duration": 0.2796,
      "velocity": 96,
      "chip": "ym2612"
    },
    {
      "channel": 0,
      "note": 66,
      "start": 47.7464,
      "duration": 0.424,
      "velocity": 121,
      "chip": "ym2612"
    },
    {
      "channel": 1,
      "note": 78,
      "start": 47.7495,
      "duration": 0.2043,
      "velocity": 106,
      "chip": "ym2612"
    },
    {
      "channel": 2,
      "note": 73,
      "start": 47.8911,
      "duration": 0.1963,
      "velocity": 106,
      "chip": "ym2612"
    },
    {
      "channel": 3,
      "note": 61,
      "start": 48.0237,
      "duration": 0.147,
      "velocity": 96,
      "chip": "ym2612"
    },
    {
      "channel": 1,
      "note": 71,
      "start": 48.0269,
      "duration": 0.2102,
      "velocity": 106,
      "chip": "ym2612"
    },
    {
      "channel": 3,
      "note": 62,
      "start": 48.1738,
      "duration": 0.43,
      "velocity": 96,
      "chip": "ym2612"
    },
    {
      "channel": 0,
      "note": 66,
      "start": 48.1765,
      "duration": 0.2772,
      "velocity": 121,
      "chip": "ym2612"
    },
    {
      "channel": 2,
      "note": 67,
      "start": 48.1797,
      "duration": 0.2076,
      "velocity": 106,
      "chip": "ym2612"
    },
    {
      "channel": 1,
      "note": 66,
      "start": 48.3241,
      "duration": 0.1963,
      "velocity": 106,
      "chip": "ym2612"
    },
    {
      "channel": 0,
      "note": 66,
      "start": 48.4571,
      "duration": 0.1466,
      "velocity": 121,
      "chip": "ym2612"
    },
    {
      "channel": 2,
      "note": 65,
      "start": 48.4605,
      "duration": 0.1436,
      "velocity": 106,
      "chip": "ym2612"
    },
    {
      "channel": 3,
      "note": 57,
      "start": 48.6072,
      "duration": 0.28,
      "velocity": 96,
      "chip": "ym2612"
    },
    {
      "channel": 0,
      "note": 66,
      "start": 48.6127,
      "duration": 0.4243,
      "velocity": 121,
      "chip": "ym2612"
    },
    {
      "channel": 1,
      "note": 77,
      "start": 48.6158,
      "duration": 0.1713,
      "velocity": 106,
      "chip": "ym2612"
    },
    {
      "channel": 2,
      "note": 78,
      "start": 48.7577,
      "duration": 0.2296,
      "velocity": 106,
      "chip": "ym2612"
    },
    {
      "channel": 3,
      "note": 59,
      "start": 48.8904,
      "duration": 0.1468,
      "velocity": 96,
      "chip": "ym2612"
    },
    {
      "channel": 1,
      "note": 81,
      "start": 48.8939,
      "duration": 0.2098,
      "velocity": 106,
      "chip": "ym2612"
    },
    {
      "channel": 3,
      "note": 71,
      "start": 49.0404,
      "duration": 0.4302,
      "velocity": 96,
      "chip": "ym2612"
    },
    {
      "channel": 0,
      "note": 66,
      "start": 49.0431,
      "duration": 0.2773,
      "velocity": 121,
      "chip": "ym2612"
    },
    {
      "channel": 2,
      "note": 90,
      "start": 49.0466,
      "duration": 0.3241,
      "velocity": 106,
      "chip": "ym2612"
    },
    {
      "channel": 0,
      "note": 66,
      "start": 49.3237,
      "duration": 0.1466,
      "velocity": 121,
      "chip": "ym2612"
    },
    {
      "channel": 1,
      "note": 89,
      "start": 49.327,
      "duration": 0.1935,
      "velocity": 106,
      "chip": "ym2612"
    },
    {
      "channel": 3,
      "note": 69,
      "start": 49.4738,
      "duration": 0.4302,
      "velocity": 96,
      "chip": "ym2612"
    },
    {
      "channel": 0,
      "note": 66,
      "start": 49.4794,
      "duration": 0.4244,
      "velocity": 121,
      "chip": "ym2612"
    },
    {
      "channel": 2,
      "note": 86,
      "start": 49.4827,
      "duration": 0.2046,
      "velocity": 106,
      "chip": "ym2612"
    },
    {
      "channel": 1,
      "note": 83,
      "start": 49.6243,
      "duration": 0.6128,
      "velocity": 106,
      "chip": "ym2612"
    },
    {
      "channel": 3,
      "note": 68,
      "start": 49.9068,
      "duration": 0.4303,
      "velocity": 96,
      "chip": "ym2612"
    },
    {
      "channel": 0,
      "note": 66,
      "start": 49.9096,
      "duration": 0.2774,
      "velocity": 121,
      "chip": "ym2612"
    },
    {
      "channel": 0,
      "note": 66,
      "start": 50.1904,
      "duration": 0.1466,
      "velocity": 121,
      "chip": "ym2612"
    },
    {
      "channel": 3,
      "note": 67,
      "start": 50.3404,
      "duration": 0.2968,
      "velocity": 96,
      "chip": "ym2612"
    },
    {
      "channel": 0,
      "note": 66,
      "start": 50.346,
      "duration": 0.4244,
      "velocity": 121,
      "chip": "ym2612"
    },
    {
      "channel": 1,
      "note": 88,
      "start": 50.3492,
      "duration": 0.3546,
      "velocity": 106,
      "chip": "ym2612"
    },
    {
      "channel": 3,
      "note": 67,
      "start": 50.6404,
      "duration": 0.1302,
      "velocity": 96,
      "chip": "ym2612"
    },
    {
      "channel": 2,
      "note": 86,
      "start": 50.6444,
      "duration": 0.2097,
      "velocity": 106,
      "chip": "ym2612"
    },
    {
      "channel": 3,
      "note": 62,
      "start": 50.7738,
      "duration": 0.4302,
      "velocity": 96,
      "chip": "ym2612"
    },
    {
      "channel": 0,
      "note": 66,
      "start": 50.7764,
      "duration": 0.294,
      "velocity": 121,
      "chip": "ym2612"
    },
    {
      "channel": 1,
      "note": 77,
      "start": 50.7797,
      "duration": 0.3408,
      "velocity": 106,
      "chip": "ym2612"
    },
    {
      "channel": 0,
      "note": 66,
      "start": 51.0737,
      "duration": 0.13,
      "velocity": 121,
      "chip": "ym2612"
    },
    {
      "channel": 2,
      "note": 78,
      "start": 51.0772,
      "duration": 0.51,
      "velocity": 106,
      "chip": "ym2612"
    },
    {
      "channel": 3,
      "note": 63,
      "start": 51.2069,
      "duration": 0.4304,
      "velocity": 96,
      "chip": "ym2612"
    },
    {
      "channel": 0,
      "note": 66,
      "start": 51.2124,
      "duration": 0.4246,
      "velocity": 121,
      "chip": "ym2612"
    },
    {
      "channel": 3,
      "note": 66,
      "start": 51.6402,
      "duration": 0.4303,
      "velocity": 96,
      "chip": "ym2612"
    },
    {
      "channel": 0,
      "note": 66,
      "start": 51.6429,
      "duration": 0.2941,
      "velocity": 121,
      "chip": "ym2612"
    },
    {
      "channel": 1,
      "note": 86,
      "start": 51.6462,
      "duration": 0.4243,
      "velocity": 106,
      "chip": "ym2612"
    },
    {
      "channel": 0,
      "note": 66,
      "start": 51.9404,
      "duration": 0.13,
      "velocity": 121,
      "chip": "ym2612"
    },
    {
      "channel": 3,
      "note": 71,
      "start": 52.0738,
      "duration": 0.2966,
      "velocity": 96,
      "chip": "ym2612"
    },
    {
      "channel": 0,
      "note": 66,
      "start": 52.0794,
      "duration": 0.4244,
      "velocity": 121,
      "chip": "ym2612"
    },
    {
      "channel": 1,
      "note": 83,
      "start": 52.0827,
      "duration": 0.8544,
      "velocity": 106,
      "chip": "ym2612"
    },
    {
      "channel": 3,
      "note": 71,
      "start": 52.374,
      "duration": 0.13,
      "velocity": 96,
      "chip": "ym2612"
    },
    {
      "channel": 3,
      "note": 69,
      "start": 52.5072,
      "duration": 0.4302,
      "velocity": 96,
      "chip": "ym2612"
    },
    {
      "channel": 0,
      "note": 66,
      "start": 52.5098,
      "duration": 0.2938,
      "velocity": 121,
      "chip": "ym2612"
    },
    {
      "channel": 0,
      "note": 66,
      "start": 52.807,
      "duration": 0.1301,
      "velocity": 121,
      "chip": "ym2612"
    },
    {
      "channel": 3,
      "note": 67,
      "start": 52.9402,
      "duration": 0.4303,
      "velocity": 96,
      "chip": "ym2612"
    },
    {
      "channel": 0,
      "note": 66,
      "start": 52.9458,
      "duration": 0.4246,
      "velocity": 121,
      "chip": "ym2612"
    },
    {
      "channel": 3,
      "note": 66,
      "start": 53.3735,
      "duration": 0.4305,
      "velocity": 96,
      "chip": "ym2612"
    },
    {
      "channel": 0,
      "note": 66,
      "start": 53.3762,
      "duration": 0.2942,
      "velocity": 121,
      "chip": "ym2612"
    },
    {
      "channel": 0,
      "note": 66,
      "start": 53.6737,
      "duration": 0.13,
      "velocity": 121,
      "chip": "ym2612"
    },
    {
      "channel": 3,
      "note": 64,
      "start": 53.8069,
      "duration": 0.4303,
      "velocity": 96,
      "chip": "ym2612"
    },
    {
      "channel": 0,
      "note": 66,
      "start": 53.8124,
      "duration": 0.4246,
      "velocity": 121,
      "chip": "ym2612"
    },
    {
      "channel": 3,
      "note": 62,
      "start": 54.2401,
      "duration": 0.4305,
      "velocity": 96,
      "chip": "ym2612"
    },
    {
      "channel": 0,
      "note": 66,
      "start": 54.2428,
      "duration": 0.2943,
      "velocity": 121,
      "chip": "ym2612"
    },
    {
      "channel": 0,
      "note": 66,
      "start": 54.5404,
      "duration": 0.13,
      "velocity": 121,
      "chip": "ym2612"
    },
    {
      "channel": 3,
      "note": 61,
      "start": 54.6736,
      "duration": 0.4471,
      "velocity": 96,
      "chip": "ym2612"
    },
    {
      "channel": 0,
      "note": 66,
      "start": 54.6791,
      "duration": 0.4413,
      "velocity": 121,
      "chip": "ym2612"
    },
    {
      "channel": 3,
      "note": 52,
      "start": 55.1238,
      "duration": 0.1299,
      "velocity": 96,
      "chip": "ym2612"
    },
    {
      "channel": 0,
      "note": 66,
      "start": 55.1266,
      "duration": 0.2771,
      "velocity": 121,
      "chip": "ym2612"
    },
    {
      "channel": 3,
      "note": 53,
      "start": 55.2567,
      "duration": 0.1472,
      "velocity": 96,
      "chip": "ym2612"
    },
    {
      "channel": 3,
      "note": 54,
      "start": 55.4068,
      "duration": 0.1472,
      "velocity": 96,
      "chip": "ym2612"
    },
    {
      "channel": 0,
      "note": 66,
      "start": 55.4095,
      "duration": 0.1443,
      "velocity": 121,
      "chip": "ym2612"
    },
    {
      "channel": 3,
      "note": 57,
      "start": 55.5576,
      "duration": 0.2796,
      "velocity": 96,
      "chip": "ym2612"
    },
    {
      "channel": 0,
      "note": 66,
      "start": 55.5631,
      "duration": 0.424,
      "velocity": 121,
      "chip": "ym2612"
    },
    {
      "channel": 4,
      "note": 66,
      "start": 55.5663,
      "duration": 0.271,
      "velocity": 101,
      "chip": "ym2612"
    },
    {
      "channel": 5,
      "note": 69,
      "start": 55.569,
      "duration": 0.2684,
      "velocity": 101,
      "chip": "ym2612"
    },
    {
      "channel": 3,
      "note": 59,
      "start": 55.8405,
      "duration": 0.1468,
      "velocity": 96,
      "chip": "ym2612"
    },
    {
      "channel": 4,
      "note": 66,
      "start": 55.8439,
      "duration": 3.1598,
      "velocity": 101,
      "chip": "ym2612"
    },
    {
      "channel": 5,
      "note": 71,
      "start": 55.8469,
      "duration": 3.1571,
      "velocity": 101,
      "chip": "ym2612"
    },
    {
      "channel": 3,
      "note": 71,
      "start": 55.9905,
      "duration": 0.43,
      "velocity": 96,
      "chip": "ym2612"
    },
    {
      "channel": 0,
      "note": 66,
      "start": 55.9932,
      "duration": 0.2772,
      "velocity": 121,
      "chip": "ym2612"
    },
    {
      "channel": 0,
      "note": 66,
      "start": 56.2737,
      "duration": 0.1466,
      "velocity": 121,
      "chip": "ym2612"
    },
    {
      "channel": 3,
      "note": 69,
      "start": 56.4234,
      "duration": 0.4305,
      "velocity": 96,
      "chip": "ym2612"
    },
    {
      "channel": 0,
      "note": 66,
      "start": 56.429,
      "duration": 0.4247,
      "velocity": 121,
      "chip": "ym2612"
    },
    {
      "channel": 3,
      "note": 68,
      "start": 56.8568,
      "duration": 0.4305,
      "velocity": 96,
      "chip": "ym2612"
    },
    {
      "channel": 0,
      "note": 66,
      "start": 56.8595,
      "duration": 0.2776,
      "velocity": 121,
      "chip": "ym2612"
    },
    {
      "channel": 0,
      "note": 66,
      "start": 57.1404,
      "duration": 0.1466,
      "velocity": 121,
      "chip": "ym2612"
    },
    {
      "channel": 3,
      "note": 67,
      "start": 57.2905,
      "duration": 0.28,
      "velocity": 96,
      "chip": "ym2612"
    },
    {
      "channel": 0,
      "note": 66,
      "start": 57.2961,
      "duration": 0.4242,
      "velocity": 121,
      "chip": "ym2612"
    },
    {
      "channel": 3,
      "note": 67,
      "start": 57.5741,
      "duration": 0.1464,
      "velocity": 96,
      "chip": "ym2612"
    },
    {
      "channel": 3,
      "note": 62,
      "start": 57.7238,
      "duration": 0.4301,
      "velocity": 96,
      "chip": "ym2612"
    },
    {
      "channel": 0,
      "note": 66,
      "start": 57.7264,
      "duration": 0.2772,
      "velocity": 121,
      "chip": "ym2612"
    },
    {
      "channel": 0,
      "note": 66,
      "start": 58.007,
      "duration": 0.1467,
      "velocity": 121,
      "chip": "ym2612"
    },
    {
      "channel": 3,
      "note": 63,
      "start": 58.1568,
      "duration": 0.4305,
      "velocity": 96,
      "chip": "ym2612"
    },
    {
      "channel": 0,
      "note": 66,
      "start": 58.1624,
      "duration": 0.4247,
      "velocity": 121,
      "chip": "ym2612"
    },
    {
      "channel": 3,
      "note": 66,
      "start": 58.5902,
      "duration": 0.4303,
      "velocity": 96,
      "chip": "ym2612"
    },
    {
      "channel": 0,
      "note": 66,
      "start": 58.5929,
      "duration": 0.2774,
      "velocity": 121,
      "chip": "ym2612"
    },
    {
      "channel": 0,
      "note": 66,
      "start": 58.8737,
      "duration": 0.1466,
      "velocity": 121,
      "chip": "ym2612"
    },
    {
      "channel": 3,
      "note": 57,
      "start": 59.0238,
      "duration": 0.2801,
      "velocity": 96,
      "chip": "ym2612"
    },
    {
      "channel": 0,
      "note": 66,
      "start": 59.0293,
      "duration": 0.4244,
      "velocity": 121,
      "chip": "ym2612"
    },
    {
      "channel": 1,
      "note": 90,
      "start": 59.0329,
      "duration": 0.1376,
      "velocity": 106,
      "chip": "ym2612"
    },
    {
      "channel": 2,
      "note": 93,
      "start": 59.0359,
      "duration": 0.1349,
      "velocity": 106,
      "chip": "ym2612"
    },
    {
      "channel": 1,
      "note": 83,
      "start": 59.1743,
      "duration": 0.1295,
      "velocity": 106,
      "chip": "ym2612"
    },
    {
      "channel": 3,
      "note": 59,
      "start": 59.3071,
      "duration": 0.1468,
      "velocity": 96,
      "chip": "ym2612"
    },
    {
      "channel": 1,
      "note": 90,
      "start": 59.3103,
      "duration": 0.1435,
      "velocity": 106,
      "chip": "ym2612"
    },
    {
      "channel": 2,
      "note": 95,
      "start": 59.3134,
      "duration": 0.1408,
      "velocity": 106,
      "chip": "ym2612"
    },
    {
      "channel": 3,
      "note": 74,
      "start": 59.4572,
      "duration": 0.43,
      "velocity": 96,
      "chip": "ym2612"
    },
    {
      "channel": 0,
      "note": 66,
      "start": 59.4599,
      "duration": 0.2772,
      "velocity": 121,
      "chip": "ym2612"
    },
    {
      "channel": 0,
      "note": 66,
      "start": 59.7404,
      "duration": 0.1467,
      "velocity": 121,
      "chip": "ym2612"
    },
    {
      "channel": 3,
      "note": 73,
      "start": 59.8902,
      "duration": 0.4304,
      "velocity": 96,
      "chip": "ym2612"
    },
    {
      "channel": 0,
      "note": 66,
      "start": 59.8957,
      "duration": 0.4247,
      "velocity": 121,
      "chip": "ym2612"
    },
    {
      "channel": 3,
      "note": 71,
      "start": 60.3239,
      "duration": 0.43,
      "velocity": 96,
      "chip": "ym2612"
    },
    {
      "channel": 0,
      "note": 66,
      "start": 60.3266,
      "duration": 0.2771,
      "velocity": 121,
      "chip": "ym2612"
    },
    {
      "channel": 0,
      "note": 66,
      "start": 60.607,
      "duration": 0.1467,
      "velocity": 121,
      "chip": "ym2612"
    },
    {
      "channel": 3,
      "note": 73,
      "start": 60.7568,
      "duration": 0.4304,
      "velocity": 96,
      "chip": "ym2612"
    },
    {
      "channel": 0,
      "note": 66,
      "start": 60.7623,
      "duration": 0.4247,
      "velocity": 121,
      "chip": "ym2612"
    },
    {
      "channel": 3,
      "note": 71,
      "start": 61.1901,
      "duration": 0.4305,
      "velocity": 96,
      "chip": "ym2612"
    },
    {
      "channel": 0,
      "note": 66,
      "start": 61.1928,
      "duration": 0.2776,
      "velocity": 121,
      "chip": "ym2612"
    },
    {
      "channel": 0,
      "note": 66,
      "start": 61.4737,
      "duration": 0.1467,
      "velocity": 121,
      "chip": "ym2612"
    },
    {
      "channel": 3,
      "note": 59,
      "start": 61.6238,
      "duration": 0.2799,
      "velocity": 96,
      "chip": "ym2612"
    },
    {
      "channel": 0,
      "note": 66,
      "start": 61.6294,
      "duration": 0.4244,
      "velocity": 121,
      "chip": "ym2612"
    },
    {
      "channel": 3,
      "note": 61,
      "start": 61.907,
      "duration": 0.1469,
      "velocity": 96,
      "chip": "ym2612"
    },
    {
      "channel": 3,
      "note": 62,
      "start": 62.0572,
      "duration": 0.4301,
      "velocity": 96,
      "chip": "ym2612"
    },
    {
      "channel": 0,
      "note": 66,
      "start": 62.0598,
      "duration": 0.2772,
      "velocity": 121,
      "chip": "ym2612"
    },
    {
      "channel": 0,
      "note": 66,
      "start": 62.3404,
      "duration": 0.1466,
      "velocity": 121,
      "chip": "ym2612"
    },
    {
      "channel": 3,
      "note": 57,
      "start": 62.4905,
      "duration": 0.28,
      "velocity": 96,
      "chip": "ym2612"
    },
    {
      "channel": 0,
      "note": 66,
      "start": 62.496,
      "duration": 0.4243,
      "velocity": 121,
      "chip": "ym2612"
    },
    {
      "channel": 4,
      "note": 66,
      "start": 62.4995,
      "duration": 0.2711,
      "velocity": 101,
      "chip": "ym2612"
    },
    {
      "channel": 5,
      "note": 69,
      "start": 62.5023,
      "duration": 0.2685,
      "velocity": 101,
      "chip": "ym2612"
    },
    {
      "channel": 3,
      "note": 59,
      "start": 62.7742,
      "duration": 0.1463,
      "velocity": 96,
      "chip": "ym2612"
    },
    {
      "channel": 4,
      "note": 66,
      "start": 62.7776,
      "duration": 3.1595,
      "velocity": 101,
      "chip": "ym2612"
    },
    {
      "channel": 5,
      "note": 71,
      "start": 62.7806,
      "duration": 3.1568,
      "velocity": 101,
      "chip": "ym2612"
    },
    {
      "channel": 3,
      "note": 71,
      "start": 62.9238,
      "duration": 0.4302,
      "velocity": 96,
      "chip": "ym2612"
    },
    {
      "channel": 0,
      "note": 66,
      "start": 62.9264,
      "duration": 0.2773,
      "velocity": 121,
      "chip": "ym2612"
    },
    {
      "channel": 0,
      "note": 66,
      "start": 63.207,
      "duration": 0.1467,
      "velocity": 121,
      "chip": "ym2612"
    },
    {
      "channel": 3,
      "note": 69,
      "start": 63.3568,
      "duration": 0.4304,
      "velocity": 96,
      "chip": "ym2612"
    },
    {
      "channel": 0,
      "note": 66,
      "start": 63.3624,
      "duration": 0.4247,
      "velocity": 121,
      "chip": "ym2612"
    },
    {
      "channel": 3,
      "note": 68,
      "start": 63.7902,
      "duration": 0.4303,
      "velocity": 96,
      "chip": "ym2612"
    },
    {
      "channel": 0,
      "note": 66,
      "start": 63.7929,
      "duration": 0.2941,
      "velocity": 121,
      "chip": "ym2612"
    },
    {
      "channel": 0,
      "note": 66,
      "start": 64.0904,
      "duration": 0.13,
      "velocity": 121,
      "chip": "ym2612"
    },
    {
      "channel": 3,
      "note": 67,
      "start": 64.2238,
      "duration": 0.2966,
      "velocity": 96,
      "chip": "ym2612"
    },
    {
      "channel": 0,
      "note": 66,
      "start": 64.2294,
      "duration": 0.4243,
      "velocity": 121,
      "chip": "ym2612"
    },
    {
      "channel": 3,
      "note": 67,
      "start": 64.5237,
      "duration": 0.1302,
      "velocity": 96,
      "chip": "ym2612"
    },
    {
      "channel": 3,
      "note": 62,
      "start": 64.6571,
      "duration": 0.4301,
      "velocity": 96,
      "chip": "ym2612"
    },
    {
      "channel": 0,
      "note": 66,
      "start": 64.6598,
      "duration": 0.2938,
      "velocity": 121,
      "chip": "ym2612"
    },
    {
      "channel": 0,
      "note": 66,
      "start": 64.957,
      "duration": 0.13,
      "velocity": 121,
      "chip": "ym2612"
    },
    {
      "channel": 3,
      "note": 63,
      "start": 65.0905,
      "duration": 0.4302,
      "velocity": 96,
      "chip": "ym2612"
    },
    {
      "channel": 0,
      "note": 66,
      "start": 65.096,
      "duration": 0.4244,
      "velocity": 121,
      "chip": "ym2612"
    },
    {
      "channel": 3,
      "note": 66,
      "start": 65.5236,
      "duration": 0.4303,
      "velocity": 96,
      "chip": "ym2612"
    },
    {
      "channel": 0,
      "note": 66,
      "start": 65.5263,
      "duration": 0.2941,
      "velocity": 121,
      "chip": "ym2612"
    },
    {
      "channel": 0,
      "note": 66,
      "start": 65.8237,
      "duration": 0.13,
      "velocity": 121,
      "chip": "ym2612"
    },
    {
      "channel": 3,
      "note": 71,
      "start": 65.9571,
      "duration": 0.2968,
      "velocity": 96,
      "chip": "ym2612"
    },
    {
      "channel": 0,
      "note": 66,
      "start": 65.9626,
      "duration": 0.4244,
      "velocity": 121,
      "chip": "ym2612"
    },
    {
      "channel": 1,
      "note": 90,
      "start": 65.9658,
      "duration": 0.138,
      "velocity": 106,
      "chip": "ym2612"
    },
    {
      "channel": 2,
      "note": 93,
      "start": 65.9688,
      "duration": 0.1353,
      "velocity": 106,
      "chip": "ym2612"
    },
    {
      "channel": 1,
      "note": 83,
      "start": 66.1075,
      "duration": 0.1463,
      "velocity": 106,
      "chip": "ym2612"
    },
    {
      "channel": 3,
      "note": 71,
      "start": 66.2571,
      "duration": 0.1302,
      "velocity": 96,
      "chip": "ym2612"
    },
    {
      "channel": 1,
      "note": 90,
      "start": 66.2607,
      "duration": 0.1265,
      "velocity": 106,
      "chip": "ym2612"
    },
    {
      "channel": 2,
      "note": 95,
      "start": 66.2638,
      "duration": 0.1238,
      "velocity": 106,
      "chip": "ym2612"
    },
    {
      "channel": 3,
      "note": 69,
      "start": 66.3906,
      "duration": 0.43,
      "velocity": 96,
      "chip": "ym2612"
    },
    {
      "channel": 0,
      "note": 66,
      "start": 66.3933,
      "duration": 0.2938,
      "velocity": 121,
      "chip": "ym2612"
    },
    {
      "channel": 0,
      "note": 66,
      "start": 66.6904,
      "duration": 0.13,
      "velocity": 121,
      "chip": "ym2612"
    },
    {
      "channel": 3,
      "note": 67,
      "start": 66.8235,
      "duration": 0.4305,
      "velocity": 96,
      "chip": "ym2612"
    },
    {
      "channel": 0,
      "note": 66,
      "start": 66.829,
      "duration": 0.4247,
      "velocity": 121,
      "chip": "ym2612"
    },
    {
      "channel": 3,
      "note": 66,
      "start": 67.2569,
      "duration": 0.4469,
      "velocity": 96,
      "chip": "ym2612"
    },
    {
      "channel": 0,
      "note": 66,
      "start": 67.2596,
      "duration": 0.2941,
      "velocity": 121,
      "chip": "ym2612"
    },
    {
      "channel": 0,
      "note": 66,
      "start": 67.557,
      "duration": 0.1467,
      "velocity": 121,
      "chip": "ym2612"
    },
    {
      "channel": 3,
      "note": 64,
      "start": 67.7068,
      "duration": 0.4305,
      "velocity": 96,
      "chip": "ym2612"
    },
    {
      "channel": 0,
      "note": 66,
      "start": 67.7124,
      "duration": 0.4247,
      "velocity": 121,
      "chip": "ym2612"
    },
    {
      "channel": 3,
      "note": 62,
      "start": 68.1402,
      "duration": 0.4305,
      "velocity": 96,
      "chip": "ym2612"
    },
    {
      "channel": 0,
      "note": 66,
      "start": 68.1429,
      "duration": 0.2776,
      "velocity": 121,
      "chip": "ym2612"
    },
    {
      "channel": 0,
      "note": 66,
      "start": 68.4237,
      "duration": 0.1468,
      "velocity": 121,
      "chip": "ym2612"
    },
    {
      "channel": 3,
      "note": 61,
      "start": 68.5736,
      "duration": 0.4303,
      "velocity": 96,
      "chip": "ym2612"
    },
    {
      "channel": 0,
      "note": 66,
      "start": 68.5791,
      "duration": 0.4246,
      "velocity": 121,
      "chip": "ym2612"
    },
    {
      "channel": 3,
      "note": 52,
      "start": 69.0074,
      "duration": 0.1297,
      "velocity": 96,
      "chip": "ym2612"
    },
    {
      "channel": 0,
      "note": 66,
      "start": 69.0102,
      "duration": 0.2768,
      "velocity": 121,
      "chip": "ym2612"
    },
    {
      "channel": 3,
      "note": 53,
      "start": 69.14,
      "duration": 0.1471,
      "velocity": 96,
      "chip": "ym2612"
    },
    {
      "channel": 3,
      "note": 54,
      "start": 69.2901,
      "duration": 0.1471,
      "velocity": 96,
      "chip": "ym2612"
    },
    {
      "channel": 0,
      "note": 66,
      "start": 69.2928,
      "duration": 0.1443,
      "velocity": 121,
      "chip": "ym2612"
    },
    {
      "channel": 3,
      "note": 57,
      "start": 69.4405,
      "duration": 0.2799,
      "velocity": 96,
      "chip": "ym2612"
    },
    {
      "channel": 0,
      "note": 66,
      "start": 69.446,
      "duration": 0.4244,
      "velocity": 121,
      "chip": "ym2612"
    },
    {
      "channel": 4,
      "note": 64,
      "start": 69.4501,
      "duration": 0.1204,
      "velocity": 125,
      "chip": "ym2612"
    },
    {
      "channel": 4,
      "note": 65,
      "start": 69.5742,
      "duration": 0.1464,
      "velocity": 125,
      "chip": "ym2612"
    },
    {
      "channel": 3,
      "note": 59,
      "start": 69.7237,
      "duration": 0.147,
      "velocity": 96,
      "chip": "ym2612"
    },
    {
      "channel": 4,
      "note": 66,
      "start": 69.7273,
      "duration": 0.1435,
      "velocity": 125,
      "chip": "ym2612"
    },
    {
      "channel": 3,
      "note": 71,
      "start": 69.8739,
      "duration": 0.43,
      "velocity": 96,
      "chip": "ym2612"
    },
    {
      "channel": 0,
      "note": 66,
      "start": 69.8766,
      "duration": 0.2771,
      "velocity": 121,
      "chip": "ym2612"
    },
    {
      "channel": 4,
      "note": 71,
      "start": 69.88,
      "duration": 0.274,
      "velocity": 125,
      "chip": "ym2612"
    },
    {
      "channel": 0,
      "note": 66,
      "start": 70.1572,
      "duration": 0.1465,
      "velocity": 121,
      "chip": "ym2612"
    },
    {
      "channel": 4,
      "note": 71,
      "start": 70.1605,
      "duration": 0.1434,
      "velocity": 125,
      "chip": "ym2612"
    },
    {
      "channel": 3,
      "note": 69,
      "start": 70.3068,
      "duration": 0.4303,
      "velocity": 96,
      "chip": "ym2612"
    },
    {
      "channel": 0,
      "note": 66,
      "start": 70.3124,
      "duration": 0.4246,
      "velocity": 121,
      "chip": "ym2612"
    },
    {
      "channel": 3,
      "note": 68,
      "start": 70.7401,
      "duration": 0.4304,
      "velocity": 96,
      "chip": "ym2612"
    },
    {
      "channel": 0,
      "note": 66,
      "start": 70.7428,
      "duration": 0.2776,
      "velocity": 121,
      "chip": "ym2612"
    },
    {
      "channel": 0,
      "note": 66,
      "start": 71.0237,
      "duration": 0.1466,
      "velocity": 121,
      "chip": "ym2612"
    },
    {
      "channel": 3,
      "note": 67,
      "start": 71.1741,
      "duration": 0.2797,
      "velocity": 96,
      "chip": "ym2612"
    },
    {
      "channel": 0,
      "note": 66,
      "start": 71.1797,
      "duration": 0.4241,
      "velocity": 121,
      "chip": "ym2612"
    },
    {
      "channel": 4,
      "note": 74,
      "start": 71.1831,
      "duration": 0.2709,
      "velocity": 125,
      "chip": "ym2612"
    },
    {
      "channel": 3,
      "note": 67,
      "start": 71.4571,
      "duration": 0.1468,
      "velocity": 96,
      "chip": "ym2612"
    },
    {
      "channel": 4,
      "note": 71,
      "start": 71.4606,
      "duration": 0.1434,
      "velocity": 125,
      "chip": "ym2612"
    },
    {
      "channel": 3,
      "note": 62,
      "start": 71.6072,
      "duration": 0.43,
      "velocity": 96,
      "chip": "ym2612"
    },
    {
      "channel": 0,
      "note": 66,
      "start": 71.6099,
      "duration": 0.2771,
      "velocity": 121,
      "chip": "ym2612"
    },
    {
      "channel": 4,
      "note": 74,
      "start": 71.6133,
      "duration": 0.274,
      "velocity": 125,
      "chip": "ym2612"
    },
    {
      "channel": 0,
      "note": 66,
      "start": 71.8904,
      "duration": 0.1467,
      "velocity": 121,
      "chip": "ym2612"
    },
    {
      "channel": 4,
      "note": 73,
      "start": 71.8941,
      "duration": 0.1433,
      "velocity": 125,
      "chip": "ym2612"
    },
    {
      "channel": 3,
      "note": 63,
      "start": 72.0402,
      "duration": 0.4303,
      "velocity": 96,
      "chip": "ym2612"
    },
    {
      "channel": 0,
      "note": 66,
      "start": 72.0458,
      "duration": 0.4246,
      "velocity": 121,
      "chip": "ym2612"
    },
    {
      "channel": 3,
      "note": 66,
      "start": 72.4734,
      "duration": 0.4305,
      "velocity": 96,
      "chip": "ym2612"
    },
    {
      "channel": 0,
      "note": 66,
      "start": 72.4761,
      "duration": 0.2776,
      "velocity": 121,
      "chip": "ym2612"
    },
    {
      "channel": 0,
      "note": 66,
      "start": 72.757,
      "duration": 0.1468,
      "velocity": 121,
      "chip": "ym2612"
    },
    {
      "channel": 3,
      "note": 57,
      "start": 72.9072,
      "duration": 0.28,
      "velocity": 96,
      "chip": "ym2612"
    },
    {
      "channel": 0,
      "note": 66,
      "start": 72.9127,
      "duration": 0.4244,
      "velocity": 121,
      "chip": "ym2612"
    },
    {
      "channel": 4,
      "note": 76,
      "start": 72.9159,
      "duration": 0.1379,
      "velocity": 125,
      "chip": "ym2612"
    },
    {
      "channel": 4,
      "note": 77,
      "start": 73.0576,
      "duration": 0.1298,
      "velocity": 125,
      "chip": "ym2612"
    },
    {
      "channel": 3,
      "note": 59,
      "start": 73.1908,
      "duration": 0.1464,
      "velocity": 96,
      "chip": "ym2612"
    },
    {
      "channel": 4,
      "note": 83,
      "start": 73.194,
      "duration": 0.1434,
      "velocity": 125,
      "chip": "ym2612"
    },
    {
      "channel": 3,
      "note": 74,
      "start": 73.3406,
      "duration": 0.43,
      "velocity": 96,
      "chip": "ym2612"
    },
    {
      "channel": 0,
      "note": 66,
      "start": 73.3433,
      "duration": 0.2771,
      "velocity": 121,
      "chip": "ym2612"
    },
    {
      "channel": 4,
      "note": 76,
      "start": 73.3463,
      "duration": 0.1409,
      "velocity": 125,
      "chip": "ym2612"
    },
    {
      "channel": 4,
      "note": 77,
      "start": 73.4909,
      "duration": 0.1298,
      "velocity": 125,
      "chip": "ym2612"
    },
    {
      "channel": 0,
      "note": 66,
      "start": 73.6238,
      "duration": 0.1466,
      "velocity": 121,
      "chip": "ym2612"
    },
    {
      "channel": 4,
      "note": 83,
      "start": 73.6268,
      "duration": 0.1438,
      "velocity": 125,
      "chip": "ym2612"
    },
    {
      "channel": 3,
      "note": 73,
      "start": 73.7735,
      "duration": 0.4304,
      "velocity": 96,
      "chip": "ym2612"
    },
    {
      "channel": 0,
      "note": 66,
      "start": 73.779,
      "duration": 0.4247,
      "velocity": 121,
      "chip": "ym2612"
    },
    {
      "channel": 4,
      "note": 74,
      "start": 73.7824,
      "duration": 0.2715,
      "velocity": 125,
      "chip": "ym2612"
    },
    {
      "channel": 4,
      "note": 71,
      "start": 74.0579,
      "duration": 0.1462,
      "velocity": 125,
      "chip": "ym2612"
    },
    {
      "channel": 3,
      "note": 71,
      "start": 74.2069,
      "duration": 0.4303,
      "velocity": 96,
      "chip": "ym2612"
    },
    {
      "channel": 0,
      "note": 66,
      "start": 74.2096,
      "duration": 0.2774,
      "velocity": 121,
      "chip": "ym2612"
    },
    {
      "channel": 0,
      "note": 66,
      "start": 74.4904,
      "duration": 0.1467,
      "velocity": 121,
      "chip": "ym2612"
    },
    {
      "channel": 3,
      "note": 73,
      "start": 74.6402,
      "duration": 0.4303,
      "velocity": 96,
      "chip": "ym2612"
    },
    {
      "channel": 0,
      "note": 66,
      "start": 74.6457,
      "duration": 0.4247,
      "velocity": 121,
      "chip": "ym2612"
    },
    {
      "channel": 4,
      "note": 74,
      "start": 74.6495,
      "duration": 0.271,
      "velocity": 125,
      "chip": "ym2612"
    },
    {
      "channel": 4,
      "note": 71,
      "start": 74.9245,
      "duration": 0.1463,
      "velocity": 125,
      "chip": "ym2612"
    },
    {
      "channel": 3,
      "note": 71,
      "start": 75.0736,
      "duration": 0.4303,
      "velocity": 96,
      "chip": "ym2612"
    },
    {
      "channel": 0,
      "note": 66,
      "start": 75.0763,
      "duration": 0.2774,
      "velocity": 121,
      "chip": "ym2612"
    },
    {
      "channel": 4,
      "note": 77,
      "start": 75.0797,
      "duration": 0.2742,
      "velocity": 125,
      "chip": "ym2612"
    },
    {
      "channel": 0,
      "note": 66,
      "start": 75.357,
      "duration": 0.1466,
      "velocity": 121,
      "chip": "ym2612"
    },
    {
      "channel": 4,
      "note": 78,
      "start": 75.3604,
      "duration": 0.1436,
      "velocity": 125,
      "chip": "ym2612"
    },
    {
      "channel": 3,
      "note": 59,
      "start": 75.5072,
      "duration": 0.2799,
      "velocity": 96,
      "chip": "ym2612"
    },
    {
      "channel": 0,
      "note": 66,
      "start": 75.5127,
      "duration": 0.4244,
      "velocity": 121,
      "chip": "ym2612"
    },
    {
      "channel": 3,
      "note": 61,
      "start": 75.7903,
      "duration": 0.1469,
      "velocity": 96,
      "chip": "ym2612"
    },
    {
      "channel": 3,
      "note": 62,
      "start": 75.9409,
      "duration": 0.4297,
      "velocity": 96,
      "chip": "ym2612"
    },
    {
      "channel": 0,
      "note": 66,
      "start": 75.9436,
      "duration": 0.2934,
      "velocity": 121,
      "chip": "ym2612"
    },
    {
      "channel": 4,
      "note": 66,
      "start": 75.9468,
      "duration": 0.1405,
      "velocity": 125,
      "chip": "ym2612"
    },
    {
      "channel": 0,
      "note": 66,
      "start": 76.2403,
      "duration": 0.13,
      "velocity": 121,
      "chip": "ym2612"
    },
    {
      "channel": 3,
      "note": 57,
      "start": 76.3738,
      "duration": 0.2968,
      "velocity": 96,
      "chip": "ym2612"
    },
    {
      "channel": 0,
      "note": 66,
      "start": 76.3793,
      "duration": 0.4244,
      "velocity": 121,
      "chip": "ym2612"
    },
    {
      "channel": 4,
      "note": 83,
      "start": 76.3825,
      "duration": 0.138,
      "velocity": 125,
      "chip": "ym2612"
    },
    {
      "channel": 4,
      "note": 74,
      "start": 76.5245,
      "duration": 0.1462,
      "velocity": 125,
      "chip": "ym2612"
    },
    {
      "channel": 3,
      "note": 59,
      "start": 76.6738,
      "duration": 0.1301,
      "velocity": 96,
      "chip": "ym2612"
    },
    {
      "channel": 4,
      "note": 76,
      "start": 76.677,
      "duration": 0.1271,
      "velocity": 125,
      "chip": "ym2612"
    },
    {
      "channel": 3,
      "note": 71,
      "start": 76.8072,
      "duration": 0.43,
      "velocity": 96,
      "chip": "ym2612"
    },
    {
      "channel": 0,
      "note": 66,
      "start": 76.81,
      "duration": 0.2938,
      "velocity": 121,
      "chip": "ym2612"
    },
    {
      "channel": 4,
      "note": 83,
      "start": 76.813,
      "duration": 0.1409,
      "velocity": 125,
      "chip": "ym2612"
    },
    {
      "channel": 4,
      "note": 76,
      "start": 76.9576,
      "duration": 0.1464,
      "velocity": 125,
      "chip": "ym2612"
    },
    {
      "channel": 0,
      "note": 66,
      "start": 77.1072,
      "duration": 0.1299,
      "velocity": 121,
      "chip": "ym2612"
    },
    {
      "channel": 4,
      "note": 77,
      "start": 77.1102,
      "duration": 0.1272,
      "velocity": 125,
      "chip": "ym2612"
    },
    {
      "channel": 3,
      "note": 69,
      "start": 77.2402,
      "duration": 0.4303,
      "velocity": 96,
      "chip": "ym2612"
    },
    {
      "channel": 0,
      "note": 66,
      "start": 77.2459,
      "duration": 0.4246,
      "velocity": 121,
      "chip": "ym2612"
    },
    {
      "channel": 4,
      "note": 83,
      "start": 77.2489,
      "duration": 0.1382,
      "velocity": 125,
      "chip": "ym2612"
    },
    {
      "channel": 4,
      "note": 77,
      "start": 77.3908,
      "duration": 0.1464,
      "velocity": 125,
      "chip": "ym2612"
    },
    {
      "channel": 4,
      "note": 78,
      "start": 77.541,
      "duration": 0.1298,
      "velocity": 125,
      "chip": "ym2612"
    },
    {
      "channel": 3,
      "note": 68,
      "start": 77.6737,
      "duration": 0.4302,
      "velocity": 96,
      "chip": "ym2612"
    },
    {
      "channel": 0,
      "note": 66,
      "start": 77.6763,
      "duration": 0.294,
      "velocity": 121,
      "chip": "ym2612"
    },
    {
      "channel": 4,
      "note": 83,
      "start": 77.6794,
      "duration": 0.1411,
      "velocity": 125,
      "chip": "ym2612"
    },
    {
      "channel": 4,
      "note": 66,
      "start": 77.8241,
      "duration": 0.1464,
      "velocity": 125,
      "chip": "ym2612"
    },
    {
      "channel": 0,
      "note": 66,
      "start": 77.9737,
      "duration": 0.13,
      "velocity": 121,
      "chip": "ym2612"
    },
    {
      "channel": 4,
      "note": 69,
      "start": 77.9768,
      "duration": 0.1272,
      "velocity": 125,
      "chip": "ym2612"
    },
    {
      "channel": 3,
      "note": 67,
      "start": 78.1072,
      "duration": 0.2966,
      "velocity": 96,
      "chip": "ym2612"
    },
    {
      "channel": 0,
      "note": 66,
      "start": 78.1127,
      "duration": 0.4244,
      "velocity": 121,
      "chip": "ym2612"
    },
    {
      "channel": 4,
      "note": 71,
      "start": 78.1161,
      "duration": 0.2878,
      "velocity": 125,
      "chip": "ym2612"
    },
    {
      "channel": 3,
      "note": 67,
      "start": 78.4074,
      "duration": 0.1298,
      "velocity": 96,
      "chip": "ym2612"
    },
    {
      "channel": 4,
      "note": 71,
      "start": 78.4112,
      "duration": 0.1261,
      "velocity": 125,
      "chip": "ym2612"
    },
    {
      "channel": 3,
      "note": 62,
      "start": 78.5406,
      "duration": 0.43,
      "velocity": 96,
      "chip": "ym2612"
    },
    {
      "channel": 0,
      "note": 66,
      "start": 78.5432,
      "duration": 0.2938,
      "velocity": 121,
      "chip": "ym2612"
    },
    {
      "channel": 4,
      "note": 73,
      "start": 78.5466,
      "duration": 0.2907,
      "velocity": 125,
      "chip": "ym2612"
    },
    {
      "channel": 0,
      "note": 66,
      "start": 78.8405,
      "duration": 0.1298,
      "velocity": 121,
      "chip": "ym2612"
    },
    {
      "channel": 4,
      "note": 74,
      "start": 78.8437,
      "duration": 0.2768,
      "velocity": 125,
      "chip": "ym2612"
    },
    {
      "channel": 3,
      "note": 63,
      "start": 78.9734,
      "duration": 0.4305,
      "velocity": 96,
      "chip": "ym2612"
    },
    {
      "channel": 0,
      "note": 66,
      "start": 78.979,
      "duration": 0.4248,
      "velocity": 121,
      "chip": "ym2612"
    },
    {
      "channel": 3,
      "note": 66,
      "start": 79.4068,
      "duration": 0.4304,
      "velocity": 96,
      "chip": "ym2612"
    },
    {
      "channel": 0,
      "note": 66,
      "start": 79.4095,
      "duration": 0.2942,
      "velocity": 121,
      "chip": "ym2612"
    },
    {
      "channel": 4,
      "note": 73,
      "start": 79.4127,
      "duration": 0.2913,
      "velocity": 125,
      "chip": "ym2612"
    },
    {
      "channel": 0,
      "note": 66,
      "start": 79.7072,
      "duration": 0.1299,
      "velocity": 121,
      "chip": "ym2612"
    },
    {
      "channel": 3,
      "note": 71,
      "start": 79.8404,
      "duration": 0.2968,
      "velocity": 96,
      "chip": "ym2612"
    },
    {
      "channel": 0,
      "note": 66,
      "start": 79.846,
      "duration": 0.4244,
      "velocity": 121,
      "chip": "ym2612"
    },
    {
      "channel": 4,
      "note": 71,
      "start": 79.8492,
      "duration": 0.2881,
      "velocity": 125,
      "chip": "ym2612"
    },
    {
      "channel": 3,
      "note": 71,
      "start": 80.1405,
      "duration": 0.1301,
      "velocity": 96,
      "chip": "ym2612"
    },
    {
      "channel": 4,
      "note": 59,
      "start": 80.1439,
      "duration": 0.1268,
      "velocity": 125,
      "chip": "ym2612"
    },
    {
      "channel": 3,
      "note": 69,
      "start": 80.2739,
      "duration": 0.4466,
      "velocity": 96,
      "chip": "ym2612"
    },
    {
      "channel": 0,
      "note": 66,
      "start": 80.2766,
      "duration": 0.2938,
      "velocity": 121,
      "chip": "ym2612"
    },
    {
      "channel": 4,
      "note": 47,
      "start": 80.2799,
      "duration": 0.1407,
      "velocity": 125,
      "chip": "ym2612"
    },
    {
      "channel": 0,
      "note": 66,
      "start": 80.5737,
      "duration": 0.1466,
      "velocity": 121,
      "chip": "ym2612"
    },
    {
      "channel": 3,
      "note": 67,
      "start": 80.7238,
      "duration": 0.4301,
      "velocity": 96,
      "chip": "ym2612"
    },
    {
      "channel": 0,
      "note": 66,
      "start": 80.7294,
      "duration": 0.4244,
      "velocity": 121,
      "chip": "ym2612"
    },
    {
      "channel": 3,
      "note": 66,
      "start": 81.1568,
      "duration": 0.4304,
      "velocity": 96,
      "chip": "ym2612"
    },
    {
      "channel": 0,
      "note": 66,
      "start": 81.1596,
      "duration": 0.2775,
      "velocity": 121,
      "chip": "ym2612"
    },
    {
      "channel": 0,
      "note": 66,
      "start": 81.4404,
      "duration": 0.1467,
      "velocity": 121,
      "chip": "ym2612"
    },
    {
      "channel": 3,
      "note": 64,
      "start": 81.5902,
      "duration": 0.4304,
      "velocity": 96,
      "chip": "ym2612"
    },
    {
      "channel": 0,
      "note": 66,
      "start": 81.5957,
      "duration": 0.4247,
      "velocity": 121,
      "chip": "ym2612"
    },
    {
      "channel": 3,
      "note": 62,
      "start": 82.0235,
      "duration": 0.4304,
      "velocity": 96,
      "chip": "ym2612"
    },
    {
      "channel": 0,
      "note": 66,
      "start": 82.0262,
      "duration": 0.2775,
      "velocity": 121,
      "chip": "ym2612"
    },
    {
      "channel": 0,
      "note": 66,
      "start": 82.307,
      "duration": 0.1468,
      "velocity": 121,
      "chip": "ym2612"
    },
    {
      "channel": 3,
      "note": 61,
      "start": 82.4568,
      "duration": 0.4304,
      "velocity": 96,
      "chip": "ym2612"
    },
    {
      "channel": 0,
      "note": 66,
      "start": 82.4624,
      "duration": 0.4246,
      "velocity": 121,
      "chip": "ym2612"
    },
    {
      "channel": 3,
      "note": 52,
      "start": 82.8904,
      "duration": 0.13,
      "velocity": 96,
      "chip": "ym2612"
    },
    {
      "channel": 0,
      "note": 66,
      "start": 82.8932,
      "duration": 0.2772,
      "velocity": 121,
      "chip": "ym2612"
    },
    {
      "channel": 3,
      "note": 53,
      "start": 83.0233,
      "duration": 0.1473,
      "velocity": 96,
      "chip": "ym2612"
    },
    {
      "channel": 3,
      "note": 54,
      "start": 83.1737,
      "duration": 0.1303,
      "velocity": 96,
      "chip": "ym2612"
    },
    {
      "channel": 0,
      "note": 66,
      "start": 83.1763,
      "duration": 0.144,
      "velocity": 121,
      "chip": "ym2612"
    }
  ]
}