{
  "track_name": "07 - Dragon (Bubble Bobble)",
  "duration_sec": 29.592,
  "sample_rate": 44100,
  "note_count": 212,
  "unique_pitches": 42,
  "pitch_range": 52,
  "avg_note_duration": 0.4192,
  "reconstruction_stats": {
    "notes_reconstructed": 212,
    "keyon_events": 212,
    "keyoff_events": 212,
    "orphan_keyons": 0,
    "unique_pitches": 42,
    "pitch_range": 52,
    "avg_duration_sec": 0.4192
  },
  "metadata": {
    "source": "R\\Rainbow Islands Extra\\07 - Dragon (Bubble Bobble).vgz"
  },
  "notes": [
    {
      "channel": 0,
      "note": 91,
      "start": 0.0,
      "duration": 0.0,
      "velocity": 93,
      "chip": "ym2612"
    },
    {
      "channel": 0,
      "note": 93,
      "start": 0.0,
      "duration": 0.0,
      "velocity": 93,
      "chip": "ym2612"
    },
    {
      "channel": 0,
      "note": 95,
      "start": 0.0,
      "duration": 0.0,
      "velocity": 93,
      "chip": "ym2612"
    },
    {
      "channel": 0,
      "note": 96,
      "start": 0.0,
      "duration": 0.0,
      "velocity": 1,
      "chip": "ym2612"
    },
    {
      "channel": 1,
      "note": 79,
      "start": 0.0,
      "duration": 0.0,
      "velocity": 1,
      "chip": "ym2612"
    },
    {
      "channel": 2,
      "note": 67,
      "start": 0.0,
      "duration": 0.0,
      "velocity": 91,
      "chip": "ym2612"
    },
    {
      "channel": 2,
      "note": 57,
      "start": 0.0,
      "duration": 0.0,
      "velocity": 91,
      "chip": "ym2612"
    },
    {
      "channel": 2,
      "note": 59,
      "start": 0.0,
      "duration": 0.0,
      "velocity": 91,
      "chip": "ym2612"
    },
    {
      "channel": 2,
      "note": 60,
      "start": 0.0,
      "duration": 0.0,
      "velocity": 1,
      "chip": "ym2612"
    },
    {
      "channel": 3,
      "note": 91,
      "start": 0.0,
      "duration": 0.0,
      "velocity": 93,
      "chip": "ym2612"
    },
    {
      "channel": 3,
      "note": 93,
      "start": 0.0,
      "duration": 0.0,
      "velocity": 93,
      "chip": "ym2612"
    },
    {
      "channel": 3,
      "note": 95,
      "start": 0.0,
      "duration": 0.0,
      "velocity": 93,
      "chip": "ym2612"
    },
    {
      "channel": 4,
      "note": 79,
      "start": 0.0,
      "duration": 0.0,
      "velocity": 1,
      "chip": "ym2612"
    },
    {
      "channel": 1,
      "note": 80,
      "start": 0.0105,
      "duration": 3.4474,
      "velocity": 106,
      "chip": "ym2612"
    },
    {
      "channel": 2,
      "note": 85,
      "start": 0.0118,
      "duration": 3.4462,
      "velocity": 106,
      "chip": "ym2612"
    },
    {
      "channel": 4,
      "note": 49,
      "start": 0.0141,
      "duration": 0.2082,
      "velocity": 91,
      "chip": "ym2612"
    },
    {
      "channel": 4,
      "note": 55,
      "start": 0.4732,
      "duration": 0.2114,
      "velocity": 91,
      "chip": "ym2612"
    },
    {
      "channel": 4,
      "note": 56,
      "start": 0.9349,
      "duration": 0.2118,
      "velocity": 91,
      "chip": "ym2612"
    },
    {
      "channel": 4,
      "note": 44,
      "start": 1.3972,
      "duration": 0.2118,
      "velocity": 91,
      "chip": "ym2612"
    },
    {
      "channel": 4,
      "note": 44,
      "start": 1.6283,
      "duration": 0.2119,
      "velocity": 91,
      "chip": "ym2612"
    },
    {
      "channel": 4,
      "note": 49,
      "start": 1.8595,
      "duration": 0.2118,
      "velocity": 91,
      "chip": "ym2612"
    },
    {
      "channel": 4,
      "note": 55,
      "start": 2.3217,
      "duration": 0.2119,
      "velocity": 91,
      "chip": "ym2612"
    },
    {
      "channel": 4,
      "note": 56,
      "start": 2.784,
      "duration": 0.2119,
      "velocity": 91,
      "chip": "ym2612"
    },
    {
      "channel": 4,
      "note": 44,
      "start": 3.0151,
      "duration": 0.2118,
      "velocity": 91,
      "chip": "ym2612"
    },
    {
      "channel": 4,
      "note": 44,
      "start": 3.2462,
      "duration": 0.2121,
      "velocity": 91,
      "chip": "ym2612"
    },
    {
      "channel": 1,
      "note": 79,
      "start": 3.4773,
      "duration": 0.2118,
      "velocity": 106,
      "chip": "ym2612"
    },
    {
      "channel": 2,
      "note": 84,
      "start": 3.4776,
      "duration": 0.2117,
      "velocity": 106,
      "chip": "ym2612"
    },
    {
      "channel": 4,
      "note": 44,
      "start": 3.4778,
      "duration": 0.2122,
      "velocity": 91,
      "chip": "ym2612"
    },
    {
      "channel": 1,
      "note": 80,
      "start": 3.7085,
      "duration": 3.4482,
      "velocity": 106,
      "chip": "ym2612"
    },
    {
      "channel": 2,
      "note": 85,
      "start": 3.7086,
      "duration": 3.4481,
      "velocity": 106,
      "chip": "ym2612"
    },
    {
      "channel": 4,
      "note": 49,
      "start": 3.7089,
      "duration": 0.2115,
      "velocity": 91,
      "chip": "ym2612"
    },
    {
      "channel": 4,
      "note": 55,
      "start": 4.1708,
      "duration": 0.2118,
      "velocity": 91,
      "chip": "ym2612"
    },
    {
      "channel": 4,
      "note": 56,
      "start": 4.6331,
      "duration": 0.2118,
      "velocity": 91,
      "chip": "ym2612"
    },
    {
      "channel": 4,
      "note": 44,
      "start": 5.0953,
      "duration": 0.2119,
      "velocity": 91,
      "chip": "ym2612"
    },
    {
      "channel": 4,
      "note": 44,
      "start": 5.3265,
      "duration": 0.2118,
      "velocity": 91,
      "chip": "ym2612"
    },
    {
      "channel": 4,
      "note": 49,
      "start": 5.5576,
      "duration": 0.2119,
      "velocity": 91,
      "chip": "ym2612"
    },
    {
      "channel": 4,
      "note": 55,
      "start": 6.0198,
      "duration": 0.2118,
      "velocity": 91,
      "chip": "ym2612"
    },
    {
      "channel": 4,
      "note": 56,
      "start": 6.4821,
      "duration": 0.2118,
      "velocity": 91,
      "chip": "ym2612"
    },
    {
      "channel": 4,
      "note": 44,
      "start": 6.7132,
      "duration": 0.2119,
      "velocity": 91,
      "chip": "ym2612"
    },
    {
      "channel": 4,
      "note": 44,
      "start": 6.9444,
      "duration": 0.2125,
      "velocity": 91,
      "chip": "ym2612"
    },
    {
      "channel": 1,
      "note": 79,
      "start": 7.1754,
      "duration": 0.2118,
      "velocity": 106,
      "chip": "ym2612"
    },
    {
      "channel": 2,
      "note": 84,
      "start": 7.1756,
      "duration": 0.2117,
      "velocity": 106,
      "chip": "ym2612"
    },
    {
      "channel": 4,
      "note": 44,
      "start": 7.1759,
      "duration": 0.2117,
      "velocity": 91,
      "chip": "ym2612"
    },
    {
      "channel": 0,
      "note": 67,
      "start": 7.4069,
      "duration": 0.2115,
      "velocity": 93,
      "chip": "ym2612"
    },
    {
      "channel": 1,
      "note": 80,
      "start": 7.4071,
      "duration": 3.4473,
      "velocity": 106,
      "chip": "ym2612"
    },
    {
      "channel": 2,
      "note": 85,
      "start": 7.4074,
      "duration": 3.4471,
      "velocity": 106,
      "chip": "ym2612"
    },
    {
      "channel": 4,
      "note": 49,
      "start": 7.4076,
      "duration": 0.2111,
      "velocity": 91,
      "chip": "ym2612"
    },
    {
      "channel": 0,
      "note": 68,
      "start": 7.6377,
      "duration": 0.2118,
      "velocity": 93,
      "chip": "ym2612"
    },
    {
      "channel": 0,
      "note": 70,
      "start": 7.8688,
      "duration": 0.2119,
      "velocity": 93,
      "chip": "ym2612"
    },
    {
      "channel": 4,
      "note": 55,
      "start": 7.8691,
      "duration": 0.2119,
      "velocity": 91,
      "chip": "ym2612"
    },
    {
      "channel": 0,
      "note": 71,
      "start": 8.1,
      "duration": 0.2118,
      "velocity": 93,
      "chip": "ym2612"
    },
    {
      "channel": 0,
      "note": 70,
      "start": 8.3311,
      "duration": 0.2118,
      "velocity": 93,
      "chip": "ym2612"
    },
    {
      "channel": 4,
      "note": 56,
      "start": 8.3314,
      "duration": 0.2119,
      "velocity": 91,
      "chip": "ym2612"
    },
    {
      "channel": 0,
      "note": 68,
      "start": 8.5622,
      "duration": 0.2119,
      "velocity": 93,
      "chip": "ym2612"
    },
    {
      "channel": 0,
      "note": 67,
      "start": 8.7934,
      "duration": 0.2118,
      "velocity": 93,
      "chip": "ym2612"
    },
    {
      "channel": 4,
      "note": 44,
      "start": 8.7936,
      "duration": 0.2118,
      "velocity": 91,
      "chip": "ym2612"
    },
    {
      "channel": 0,
      "note": 73,
      "start": 9.0245,
      "duration": 0.443,
      "velocity": 93,
      "chip": "ym2612"
    },
    {
      "channel": 4,
      "note": 44,
      "start": 9.0247,
      "duration": 0.2118,
      "velocity": 91,
      "chip": "ym2612"
    },
    {
      "channel": 4,
      "note": 49,
      "start": 9.2559,
      "duration": 0.2119,
      "velocity": 91,
      "chip": "ym2612"
    },
    {
      "channel": 0,
      "note": 68,
      "start": 9.4868,
      "duration": 0.2119,
      "velocity": 93,
      "chip": "ym2612"
    },
    {
      "channel": 0,
      "note": 70,
      "start": 9.7179,
      "duration": 0.2119,
      "velocity": 93,
      "chip": "ym2612"
    },
    {
      "channel": 4,
      "note": 55,
      "start": 9.7182,
      "duration": 0.2118,
      "velocity": 91,
      "chip": "ym2612"
    },
    {
      "channel": 0,
      "note": 71,
      "start": 9.949,
      "duration": 0.2118,
      "velocity": 93,
      "chip": "ym2612"
    },
    {
      "channel": 0,
      "note": 70,
      "start": 10.1802,
      "duration": 0.2119,
      "velocity": 93,
      "chip": "ym2612"
    },
    {
      "channel": 4,
      "note": 56,
      "start": 10.1804,
      "duration": 0.2119,
      "velocity": 91,
      "chip": "ym2612"
    },
    {
      "channel": 0,
      "note": 68,
      "start": 10.4113,
      "duration": 0.2121,
      "velocity": 93,
      "chip": "ym2612"
    },
    {
      "channel": 4,
      "note": 44,
      "start": 10.4116,
      "duration": 0.2121,
      "velocity": 91,
      "chip": "ym2612"
    },
    {
      "channel": 0,
      "note": 67,
      "start": 10.6424,
      "duration": 0.2119,
      "velocity": 93,
      "chip": "ym2612"
    },
    {
      "channel": 4,
      "note": 44,
      "start": 10.6427,
      "duration": 0.2121,
      "velocity": 91,
      "chip": "ym2612"
    },
    {
      "channel": 1,
      "note": 79,
      "start": 10.8736,
      "duration": 0.2118,
      "velocity": 106,
      "chip": "ym2612"
    },
    {
      "channel": 2,
      "note": 84,
      "start": 10.8738,
      "duration": 0.2117,
      "velocity": 106,
      "chip": "ym2612"
    },
    {
      "channel": 4,
      "note": 44,
      "start": 10.874,
      "duration": 0.2117,
      "velocity": 91,
      "chip": "ym2612"
    },
    {
      "channel": 0,
      "note": 67,
      "start": 11.1047,
      "duration": 0.2118,
      "velocity": 93,
      "chip": "ym2612"
    },
    {
      "channel": 1,
      "note": 80,
      "start": 11.1049,
      "duration": 3.0624,
      "velocity": 106,
      "chip": "ym2612"
    },
    {
      "channel": 2,
      "note": 85,
      "start": 11.1051,
      "duration": 1.6181,
      "velocity": 106,
      "chip": "ym2612"
    },
    {
      "channel": 4,
      "note": 49,
      "start": 11.1053,
      "duration": 0.2115,
      "velocity": 91,
      "chip": "ym2612"
    },
    {
      "channel": 0,
      "note": 68,
      "start": 11.3358,
      "duration": 0.2119,
      "velocity": 93,
      "chip": "ym2612"
    },
    {
      "channel": 0,
      "note": 69,
      "start": 11.567,
      "duration": 0.2118,
      "velocity": 93,
      "chip": "ym2612"
    },
    {
      "channel": 4,
      "note": 55,
      "start": 11.5672,
      "duration": 0.2118,
      "velocity": 91,
      "chip": "ym2612"
    },
    {
      "channel": 0,
      "note": 71,
      "start": 11.7981,
      "duration": 0.2119,
      "velocity": 93,
      "chip": "ym2612"
    },
    {
      "channel": 0,
      "note": 69,
      "start": 12.0293,
      "duration": 0.2118,
      "velocity": 93,
      "chip": "ym2612"
    },
    {
      "channel": 4,
      "note": 56,
      "start": 12.0295,
      "duration": 0.2118,
      "velocity": 91,
      "chip": "ym2612"
    },
    {
      "channel": 0,
      "note": 68,
      "start": 12.2604,
      "duration": 0.2118,
      "velocity": 93,
      "chip": "ym2612"
    },
    {
      "channel": 0,
      "note": 67,
      "start": 12.4915,
      "duration": 0.2119,
      "velocity": 93,
      "chip": "ym2612"
    },
    {
      "channel": 4,
      "note": 44,
      "start": 12.4918,
      "duration": 0.2118,
      "velocity": 91,
      "chip": "ym2612"
    },
    {
      "channel": 0,
      "note": 73,
      "start": 12.7232,
      "duration": 0.2113,
      "velocity": 93,
      "chip": "ym2612"
    },
    {
      "channel": 4,
      "note": 44,
      "start": 12.7235,
      "duration": 0.2112,
      "velocity": 91,
      "chip": "ym2612"
    },
    {
      "channel": 0,
      "note": 73,
      "start": 12.9537,
      "duration": 0.2119,
      "velocity": 93,
      "chip": "ym2612"
    },
    {
      "channel": 2,
      "note": 85,
      "start": 12.9539,
      "duration": 1.2135,
      "velocity": 106,
      "chip": "ym2612"
    },
    {
      "channel": 4,
      "note": 49,
      "start": 12.9541,
      "duration": 0.2118,
      "velocity": 91,
      "chip": "ym2612"
    },
    {
      "channel": 0,
      "note": 73,
      "start": 13.1849,
      "duration": 0.2118,
      "velocity": 93,
      "chip": "ym2612"
    },
    {
      "channel": 0,
      "note": 74,
      "start": 13.416,
      "duration": 0.2119,
      "velocity": 93,
      "chip": "ym2612"
    },
    {
      "channel": 4,
      "note": 55,
      "start": 13.4163,
      "duration": 0.2119,
      "velocity": 91,
      "chip": "ym2612"
    },
    {
      "channel": 0,
      "note": 76,
      "start": 13.6471,
      "duration": 0.2119,
      "velocity": 93,
      "chip": "ym2612"
    },
    {
      "channel": 0,
      "note": 77,
      "start": 13.8783,
      "duration": 0.2118,
      "velocity": 93,
      "chip": "ym2612"
    },
    {
      "channel": 4,
      "note": 56,
      "start": 13.8785,
      "duration": 0.2118,
      "velocity": 91,
      "chip": "ym2612"
    },
    {
      "channel": 0,
      "note": 76,
      "start": 14.1094,
      "duration": 0.2119,
      "velocity": 93,
      "chip": "ym2612"
    },
    {
      "channel": 4,
      "note": 44,
      "start": 14.1097,
      "duration": 0.2119,
      "velocity": 91,
      "chip": "ym2612"
    },
    {
      "channel": 0,
      "note": 74,
      "start": 14.3406,
      "duration": 0.2118,
      "velocity": 93,
      "chip": "ym2612"
    },
    {
      "channel": 4,
      "note": 44,
      "start": 14.3408,
      "duration": 0.2118,
      "velocity": 91,
      "chip": "ym2612"
    },
    {
      "channel": 0,
      "note": 73,
      "start": 14.5717,
      "duration": 0.2119,
      "velocity": 93,
      "chip": "ym2612"
    },
    {
      "channel": 4,
      "note": 44,
      "start": 14.572,
      "duration": 0.2119,
      "velocity": 91,
      "chip": "ym2612"
    },
    {
      "channel": 0,
      "note": 85,
      "start": 14.8029,
      "duration": 0.2118,
      "velocity": 93,
      "chip": "ym2612"
    },
    {
      "channel": 4,
      "note": 62,
      "start": 14.8031,
      "duration": 0.2118,
      "velocity": 91,
      "chip": "ym2612"
    },
    {
      "channel": 0,
      "note": 79,
      "start": 15.034,
      "duration": 0.2118,
      "velocity": 93,
      "chip": "ym2612"
    },
    {
      "channel": 4,
      "note": 55,
      "start": 15.0342,
      "duration": 0.2119,
      "velocity": 91,
      "chip": "ym2612"
    },
    {
      "channel": 0,
      "note": 73,
      "start": 15.2651,
      "duration": 0.2119,
      "velocity": 93,
      "chip": "ym2612"
    },
    {
      "channel": 4,
      "note": 49,
      "start": 15.2654,
      "duration": 0.2118,
      "velocity": 91,
      "chip": "ym2612"
    },
    {
      "channel": 0,
      "note": 84,
      "start": 15.4962,
      "duration": 0.2118,
      "velocity": 93,
      "chip": "ym2612"
    },
    {
      "channel": 4,
      "note": 60,
      "start": 15.4965,
      "duration": 0.2118,
      "velocity": 91,
      "chip": "ym2612"
    },
    {
      "channel": 0,
      "note": 78,
      "start": 15.7273,
      "duration": 0.2119,
      "velocity": 93,
      "chip": "ym2612"
    },
    {
      "channel": 4,
      "note": 54,
      "start": 15.7276,
      "duration": 0.2124,
      "velocity": 91,
      "chip": "ym2612"
    },
    {
      "channel": 0,
      "note": 72,
      "start": 15.9585,
      "duration": 0.2118,
      "velocity": 93,
      "chip": "ym2612"
    },
    {
      "channel": 4,
      "note": 48,
      "start": 15.9588,
      "duration": 0.2118,
      "velocity": 91,
      "chip": "ym2612"
    },
    {
      "channel": 1,
      "note": 84,
      "start": 16.1901,
      "duration": 0.4039,
      "velocity": 106,
      "chip": "ym2612"
    },
    {
      "channel": 2,
      "note": 90,
      "start": 16.1903,
      "duration": 0.4038,
      "velocity": 106,
      "chip": "ym2612"
    },
    {
      "channel": 3,
      "note": 96,
      "start": 16.1907,
      "duration": 0.4036,
      "velocity": 106,
      "chip": "ym2612"
    },
    {
      "channel": 0,
      "note": 82,
      "start": 16.6519,
      "duration": 0.2118,
      "velocity": 93,
      "chip": "ym2612"
    },
    {
      "channel": 4,
      "note": 58,
      "start": 16.6522,
      "duration": 0.2118,
      "velocity": 91,
      "chip": "ym2612"
    },
    {
      "channel": 0,
      "note": 76,
      "start": 16.883,
      "duration": 0.2119,
      "velocity": 93,
      "chip": "ym2612"
    },
    {
      "channel": 4,
      "note": 52,
      "start": 16.8833,
      "duration": 0.2119,
      "velocity": 91,
      "chip": "ym2612"
    },
    {
      "channel": 0,
      "note": 70,
      "start": 17.1142,
      "duration": 0.2118,
      "velocity": 93,
      "chip": "ym2612"
    },
    {
      "channel": 4,
      "note": 46,
      "start": 17.1144,
      "duration": 0.2118,
      "velocity": 91,
      "chip": "ym2612"
    },
    {
      "channel": 0,
      "note": 81,
      "start": 17.3453,
      "duration": 0.2119,
      "velocity": 93,
      "chip": "ym2612"
    },
    {
      "channel": 4,
      "note": 57,
      "start": 17.3455,
      "duration": 0.2119,
      "velocity": 91,
      "chip": "ym2612"
    },
    {
      "channel": 0,
      "note": 75,
      "start": 17.5764,
      "duration": 0.2119,
      "velocity": 93,
      "chip": "ym2612"
    },
    {
      "channel": 4,
      "note": 51,
      "start": 17.5767,
      "duration": 0.2118,
      "velocity": 91,
      "chip": "ym2612"
    },
    {
      "channel": 0,
      "note": 69,
      "start": 17.8076,
      "duration": 0.2118,
      "velocity": 93,
      "chip": "ym2612"
    },
    {
      "channel": 4,
      "note": 45,
      "start": 17.8078,
      "duration": 0.2118,
      "velocity": 91,
      "chip": "ym2612"
    },
    {
      "channel": 1,
      "note": 81,
      "start": 18.0387,
      "duration": 0.4044,
      "velocity": 106,
      "chip": "ym2612"
    },
    {
      "channel": 2,
      "note": 87,
      "start": 18.0389,
      "duration": 0.4043,
      "velocity": 106,
      "chip": "ym2612"
    },
    {
      "channel": 3,
      "note": 93,
      "start": 18.0391,
      "duration": 0.4042,
      "velocity": 106,
      "chip": "ym2612"
    },
    {
      "channel": 0,
      "note": 80,
      "start": 18.501,
      "duration": 0.2697,
      "velocity": 93,
      "chip": "ym2612"
    },
    {
      "channel": 1,
      "note": 78,
      "start": 18.5011,
      "duration": 0.2696,
      "velocity": 106,
      "chip": "ym2612"
    },
    {
      "channel": 2,
      "note": 85,
      "start": 18.5014,
      "duration": 0.2695,
      "velocity": 106,
      "chip": "ym2612"
    },
    {
      "channel": 3,
      "note": 88,
      "start": 18.5016,
      "duration": 0.2693,
      "velocity": 106,
      "chip": "ym2612"
    },
    {
      "channel": 4,
      "note": 56,
      "start": 18.5018,
      "duration": 0.2694,
      "velocity": 91,
      "chip": "ym2612"
    },
    {
      "channel": 0,
      "note": 80,
      "start": 18.8092,
      "duration": 0.1348,
      "velocity": 93,
      "chip": "ym2612"
    },
    {
      "channel": 1,
      "note": 78,
      "start": 18.8093,
      "duration": 0.1348,
      "velocity": 106,
      "chip": "ym2612"
    },
    {
      "channel": 2,
      "note": 85,
      "start": 18.8094,
      "duration": 0.1348,
      "velocity": 106,
      "chip": "ym2612"
    },
    {
      "channel": 3,
      "note": 88,
      "start": 18.8095,
      "duration": 0.1348,
      "velocity": 106,
      "chip": "ym2612"
    },
    {
      "channel": 4,
      "note": 56,
      "start": 18.8097,
      "duration": 0.1348,
      "velocity": 91,
      "chip": "ym2612"
    },
    {
      "channel": 0,
      "note": 68,
      "start": 19.1943,
      "duration": 0.6356,
      "velocity": 93,
      "chip": "ym2612"
    },
    {
      "channel": 1,
      "note": 61,
      "start": 19.1946,
      "duration": 0.2122,
      "velocity": 106,
      "chip": "ym2612"
    },
    {
      "channel": 2,
      "note": 64,
      "start": 19.1948,
      "duration": 0.2122,
      "velocity": 106,
      "chip": "ym2612"
    },
    {
      "channel": 4,
      "note": 44,
      "start": 19.195,
      "duration": 0.6354,
      "velocity": 91,
      "chip": "ym2612"
    },
    {
      "channel": 1,
      "note": 61,
      "start": 19.4256,
      "duration": 0.4045,
      "velocity": 106,
      "chip": "ym2612"
    },
    {
      "channel": 2,
      "note": 64,
      "start": 19.4257,
      "duration": 0.4045,
      "velocity": 106,
      "chip": "ym2612"
    },
    {
      "channel": 0,
      "note": 80,
      "start": 19.8878,
      "duration": 0.2696,
      "velocity": 93,
      "chip": "ym2612"
    },
    {
      "channel": 1,
      "note": 78,
      "start": 19.888,
      "duration": 0.2695,
      "velocity": 106,
      "chip": "ym2612"
    },
    {
      "channel": 2,
      "note": 85,
      "start": 19.8882,
      "duration": 0.2695,
      "velocity": 106,
      "chip": "ym2612"
    },
    {
      "channel": 3,
      "note": 88,
      "start": 19.8883,
      "duration": 0.2695,
      "velocity": 106,
      "chip": "ym2612"
    },
    {
      "channel": 4,
      "note": 56,
      "start": 19.8885,
      "duration": 0.2694,
      "velocity": 91,
      "chip": "ym2612"
    },
    {
      "channel": 0,
      "note": 80,
      "start": 20.1959,
      "duration": 0.1349,
      "velocity": 93,
      "chip": "ym2612"
    },
    {
      "channel": 1,
      "note": 78,
      "start": 20.1961,
      "duration": 0.1348,
      "velocity": 106,
      "chip": "ym2612"
    },
    {
      "channel": 2,
      "note": 85,
      "start": 20.1962,
      "duration": 0.1348,
      "velocity": 106,
      "chip": "ym2612"
    },
    {
      "channel": 3,
      "note": 88,
      "start": 20.1963,
      "duration": 0.1348,
      "velocity": 106,
      "chip": "ym2612"
    },
    {
      "channel": 4,
      "note": 56,
      "start": 20.1965,
      "duration": 0.1348,
      "velocity": 91,
      "chip": "ym2612"
    },
    {
      "channel": 0,
      "note": 68,
      "start": 20.5812,
      "duration": 0.6356,
      "velocity": 93,
      "chip": "ym2612"
    },
    {
      "channel": 1,
      "note": 61,
      "start": 20.5814,
      "duration": 0.2118,
      "velocity": 106,
      "chip": "ym2612"
    },
    {
      "channel": 2,
      "note": 64,
      "start": 20.5815,
      "duration": 0.2117,
      "velocity": 106,
      "chip": "ym2612"
    },
    {
      "channel": 4,
      "note": 44,
      "start": 20.5818,
      "duration": 0.6354,
      "velocity": 91,
      "chip": "ym2612"
    },
    {
      "channel": 1,
      "note": 61,
      "start": 20.8124,
      "duration": 0.4044,
      "velocity": 106,
      "chip": "ym2612"
    },
    {
      "channel": 2,
      "note": 64,
      "start": 20.8125,
      "duration": 0.4045,
      "velocity": 106,
      "chip": "ym2612"
    },
    {
      "channel": 0,
      "note": 80,
      "start": 21.2746,
      "duration": 0.2119,
      "velocity": 93,
      "chip": "ym2612"
    },
    {
      "channel": 1,
      "note": 78,
      "start": 21.2747,
      "duration": 0.2118,
      "velocity": 106,
      "chip": "ym2612"
    },
    {
      "channel": 2,
      "note": 84,
      "start": 21.275,
      "duration": 0.2117,
      "velocity": 106,
      "chip": "ym2612"
    },
    {
      "channel": 3,
      "note": 88,
      "start": 21.2751,
      "duration": 0.2116,
      "velocity": 106,
      "chip": "ym2612"
    },
    {
      "channel": 4,
      "note": 56,
      "start": 21.2753,
      "duration": 0.2117,
      "velocity": 91,
      "chip": "ym2612"
    },
    {
      "channel": 0,
      "note": 80,
      "start": 21.5057,
      "duration": 0.2118,
      "velocity": 93,
      "chip": "ym2612"
    },
    {
      "channel": 1,
      "note": 78,
      "start": 21.5059,
      "duration": 0.2118,
      "velocity": 106,
      "chip": "ym2612"
    },
    {
      "channel": 2,
      "note": 84,
      "start": 21.5059,
      "duration": 0.2119,
      "velocity": 106,
      "chip": "ym2612"
    },
    {
      "channel": 3,
      "note": 88,
      "start": 21.5066,
      "duration": 0.2112,
      "velocity": 106,
      "chip": "ym2612"
    },
    {
      "channel": 4,
      "note": 56,
      "start": 21.5068,
      "duration": 0.2113,
      "velocity": 91,
      "chip": "ym2612"
    },
    {
      "channel": 0,
      "note": 68,
      "start": 21.7368,
      "duration": 0.2118,
      "velocity": 93,
      "chip": "ym2612"
    },
    {
      "channel": 1,
      "note": 61,
      "start": 21.737,
      "duration": 0.2117,
      "velocity": 106,
      "chip": "ym2612"
    },
    {
      "channel": 2,
      "note": 64,
      "start": 21.7373,
      "duration": 0.2116,
      "velocity": 106,
      "chip": "ym2612"
    },
    {
      "channel": 4,
      "note": 44,
      "start": 21.7375,
      "duration": 0.2117,
      "velocity": 91,
      "chip": "ym2612"
    },
    {
      "channel": 0,
      "note": 68,
      "start": 21.9679,
      "duration": 0.2119,
      "velocity": 93,
      "chip": "ym2612"
    },
    {
      "channel": 1,
      "note": 61,
      "start": 21.9681,
      "duration": 0.2119,
      "velocity": 106,
      "chip": "ym2612"
    },
    {
      "channel": 2,
      "note": 64,
      "start": 21.9682,
      "duration": 0.2118,
      "velocity": 106,
      "chip": "ym2612"
    },
    {
      "channel": 4,
      "note": 44,
      "start": 21.9684,
      "duration": 0.2118,
      "velocity": 91,
      "chip": "ym2612"
    },
    {
      "channel": 1,
      "note": 80,
      "start": 22.1991,
      "duration": 3.4476,
      "velocity": 106,
      "chip": "ym2612"
    },
    {
      "channel": 2,
      "note": 85,
      "start": 22.1993,
      "duration": 3.4476,
      "velocity": 106,
      "chip": "ym2612"
    },
    {
      "channel": 4,
      "note": 49,
      "start": 22.1995,
      "duration": 0.2115,
      "velocity": 91,
      "chip": "ym2612"
    },
    {
      "channel": 4,
      "note": 55,
      "start": 22.6615,
      "duration": 0.212,
      "velocity": 91,
      "chip": "ym2612"
    },
    {
      "channel": 4,
      "note": 56,
      "start": 23.1237,
      "duration": 0.2119,
      "velocity": 91,
      "chip": "ym2612"
    },
    {
      "channel": 4,
      "note": 44,
      "start": 23.5859,
      "duration": 0.2119,
      "velocity": 91,
      "chip": "ym2612"
    },
    {
      "channel": 4,
      "note": 44,
      "start": 23.8171,
      "duration": 0.2118,
      "velocity": 91,
      "chip": "ym2612"
    },
    {
      "channel": 4,
      "note": 49,
      "start": 24.0482,
      "duration": 0.2119,
      "velocity": 91,
      "chip": "ym2612"
    },
    {
      "channel": 4,
      "note": 55,
      "start": 24.5105,
      "duration": 0.2119,
      "velocity": 91,
      "chip": "ym2612"
    },
    {
      "channel": 4,
      "note": 56,
      "start": 24.9733,
      "duration": 0.2113,
      "velocity": 91,
      "chip": "ym2612"
    },
    {
      "channel": 4,
      "note": 44,
      "start": 25.2039,
      "duration": 0.2119,
      "velocity": 91,
      "chip": "ym2612"
    },
    {
      "channel": 4,
      "note": 44,
      "start": 25.4351,
      "duration": 0.212,
      "velocity": 91,
      "chip": "ym2612"
    },
    {
      "channel": 1,
      "note": 79,
      "start": 25.6661,
      "duration": 0.2118,
      "velocity": 106,
      "chip": "ym2612"
    },
    {
      "channel": 2,
      "note": 84,
      "start": 25.6663,
      "duration": 0.2116,
      "velocity": 106,
      "chip": "ym2612"
    },
    {
      "channel": 4,
      "note": 44,
      "start": 25.6665,
      "duration": 0.2117,
      "velocity": 91,
      "chip": "ym2612"
    },
    {
      "channel": 1,
      "note": 80,
      "start": 25.8973,
      "duration": 3.4476,
      "velocity": 106,
      "chip": "ym2612"
    },
    {
      "channel": 2,
      "note": 85,
      "start": 25.8975,
      "duration": 3.4475,
      "velocity": 106,
      "chip": "ym2612"
    },
    {
      "channel": 4,
      "note": 49,
      "start": 25.8977,
      "duration": 0.2115,
      "velocity": 91,
      "chip": "ym2612"
    },
    {
      "channel": 4,
      "note": 55,
      "start": 26.3595,
      "duration": 0.2119,
      "velocity": 91,
      "chip": "ym2612"
    },
    {
      "channel": 4,
      "note": 56,
      "start": 26.8218,
      "duration": 0.2119,
      "velocity": 91,
      "chip": "ym2612"
    },
    {
      "channel": 4,
      "note": 44,
      "start": 27.2841,
      "duration": 0.2118,
      "velocity": 91,
      "chip": "ym2612"
    },
    {
      "channel": 4,
      "note": 44,
      "start": 27.5152,
      "duration": 0.2119,
      "velocity": 91,
      "chip": "ym2612"
    },
    {
      "channel": 4,
      "note": 49,
      "start": 27.7464,
      "duration": 0.2118,
      "velocity": 91,
      "chip": "ym2612"
    },
    {
      "channel": 4,
      "note": 55,
      "start": 28.2086,
      "duration": 0.2118,
      "velocity": 91,
      "chip": "ym2612"
    },
    {
      "channel": 4,
      "note": 56,
      "start": 28.6709,
      "duration": 0.2119,
      "velocity": 91,
      "chip": "ym2612"
    },
    {
      "channel": 4,
      "note": 44,
      "start": 28.902,
      "duration": 0.2118,
      "velocity": 91,
      "chip": "ym2612"
    },
    {
      "channel": 4,
      "note": 44,
      "start": 29.1331,
      "duration": 0.2121,
      "velocity": 91,
      "chip": "ym2612"
    },
    {
      "channel": 1,
      "note": 79,
      "start": 29.3642,
      "duration": 0.2118,
      "velocity": 106,
      "chip": "ym2612"
    },
    {
      "channel": 2,
      "note": 84,
      "start": 29.3644,
      "duration": 0.2117,
      "velocity": 106,
      "chip": "ym2612"
    },
    {
      "channel": 4,
      "note": 44,
      "start": 29.3647,
      "duration": 0.2116,
      "velocity": 91,
      "chip": "ym2612"
    }
  ]
}