{
  "track_name": "07 - Rush",
  "duration_sec": 35.199,
  "sample_rate": 44100,
  "note_count": 1447,
  "unique_pitches": 21,
  "pitch_range": 27,
  "avg_note_duration": 0.0121,
  "reconstruction_stats": {
    "notes_reconstructed": 1447,
    "keyon_events": 1447,
    "keyoff_events": 1410,
    "orphan_keyons": 0,
    "unique_pitches": 21,
    "pitch_range": 27,
    "avg_duration_sec": 0.0121
  },
  "metadata": {
    "source": "S\\Slap Fight MD\\07 - Rush.vgz"
  },
  "notes": [
    {
      "channel": 0,
      "note": 42,
      "start": 0.0,
      "duration": 0.0166,
      "velocity": 113,
      "chip": "ym2612"
    },
    {
      "channel": 1,
      "note": 42,
      "start": 0.0013,
      "duration": 0.0157,
      "velocity": 113,
      "chip": "ym2612"
    },
    {
      "channel": 2,
      "note": 42,
      "start": 0.0027,
      "duration": 0.0051,
      "velocity": 117,
      "chip": "ym2612"
    },
    {
      "channel": 3,
      "note": 42,
      "start": 0.004,
      "duration": 0.0136,
      "velocity": 105,
      "chip": "ym2612"
    },
    {
      "channel": 4,
      "note": 42,
      "start": 0.0054,
      "duration": 0.0126,
      "velocity": 105,
      "chip": "ym2612"
    },
    {
      "channel": 0,
      "note": 42,
      "start": 0.0166,
      "duration": 0.2,
      "velocity": 113,
      "chip": "ym2612"
    },
    {
      "channel": 1,
      "note": 42,
      "start": 0.0171,
      "duration": 0.2,
      "velocity": 113,
      "chip": "ym2612"
    },
    {
      "channel": 3,
      "note": 42,
      "start": 0.0176,
      "duration": 0.2003,
      "velocity": 105,
      "chip": "ym2612"
    },
    {
      "channel": 4,
      "note": 42,
      "start": 0.018,
      "duration": 0.2003,
      "velocity": 105,
      "chip": "ym2612"
    },
    {
      "channel": 2,
      "note": 42,
      "start": 0.0835,
      "duration": 0.0829,
      "velocity": 117,
      "chip": "ym2612"
    },
    {
      "channel": 0,
      "note": 42,
      "start": 0.2166,
      "duration": 0.2,
      "velocity": 113,
      "chip": "ym2612"
    },
    {
      "channel": 1,
      "note": 42,
      "start": 0.2171,
      "duration": 0.2,
      "velocity": 113,
      "chip": "ym2612"
    },
    {
      "channel": 2,
      "note": 42,
      "start": 0.2175,
      "duration": 0.0823,
      "velocity": 117,
      "chip": "ym2612"
    },
    {
      "channel": 3,
      "note": 42,
      "start": 0.2179,
      "duration": 0.1997,
      "velocity": 105,
      "chip": "ym2612"
    },
    {
      "channel": 4,
      "note": 42,
      "start": 0.2183,
      "duration": 0.1997,
      "velocity": 105,
      "chip": "ym2612"
    },
    {
      "channel": 0,
      "note": 42,
      "start": 0.4166,
      "duration": 0.2,
      "velocity": 113,
      "chip": "ym2612"
    },
    {
      "channel": 1,
      "note": 42,
      "start": 0.4171,
      "duration": 0.2,
      "velocity": 113,
      "chip": "ym2612"
    },
    {
      "channel": 3,
      "note": 42,
      "start": 0.4176,
      "duration": 0.2003,
      "velocity": 105,
      "chip": "ym2612"
    },
    {
      "channel": 4,
      "note": 42,
      "start": 0.418,
      "duration": 0.2003,
      "velocity": 105,
      "chip": "ym2612"
    },
    {
      "channel": 2,
      "note": 42,
      "start": 0.4835,
      "duration": 0.0829,
      "velocity": 117,
      "chip": "ym2612"
    },
    {
      "channel": 0,
      "note": 42,
      "start": 0.6166,
      "duration": 0.2,
      "velocity": 113,
      "chip": "ym2612"
    },
    {
      "channel": 1,
      "note": 42,
      "start": 0.6171,
      "duration": 0.2,
      "velocity": 113,
      "chip": "ym2612"
    },
    {
      "channel": 2,
      "note": 42,
      "start": 0.6175,
      "duration": 0.0823,
      "velocity": 117,
      "chip": "ym2612"
    },
    {
      "channel": 3,
      "note": 42,
      "start": 0.6179,
      "duration": 0.1997,
      "velocity": 105,
      "chip": "ym2612"
    },
    {
      "channel": 4,
      "note": 42,
      "start": 0.6183,
      "duration": 0.1997,
      "velocity": 105,
      "chip": "ym2612"
    },
    {
      "channel": 0,
      "note": 42,
      "start": 0.8166,
      "duration": 0.2,
      "velocity": 113,
      "chip": "ym2612"
    },
    {
      "channel": 1,
      "note": 42,
      "start": 0.8171,
      "duration": 0.2,
      "velocity": 113,
      "chip": "ym2612"
    },
    {
      "channel": 3,
      "note": 42,
      "start": 0.8176,
      "duration": 0.2003,
      "velocity": 105,
      "chip": "ym2612"
    },
    {
      "channel": 4,
      "note": 42,
      "start": 0.818,
      "duration": 0.2003,
      "velocity": 105,
      "chip": "ym2612"
    },
    {
      "channel": 2,
      "note": 42,
      "start": 0.8835,
      "duration": 0.0829,
      "velocity": 117,
      "chip": "ym2612"
    },
    {
      "channel": 0,
      "note": 42,
      "start": 1.0166,
      "duration": 0.2,
      "velocity": 113,
      "chip": "ym2612"
    },
    {
      "channel": 1,
      "note": 42,
      "start": 1.0171,
      "duration": 0.2,
      "velocity": 113,
      "chip": "ym2612"
    },
    {
      "channel": 2,
      "note": 42,
      "start": 1.0175,
      "duration": 0.0823,
      "velocity": 117,
      "chip": "ym2612"
    },
    {
      "channel": 3,
      "note": 42,
      "start": 1.0179,
      "duration": 0.1997,
      "velocity": 105,
      "chip": "ym2612"
    },
    {
      "channel": 4,
      "note": 42,
      "start": 1.0183,
      "duration": 0.1997,
      "velocity": 105,
      "chip": "ym2612"
    },
    {
      "channel": 0,
      "note": 42,
      "start": 1.2166,
      "duration": 0.2,
      "velocity": 113,
      "chip": "ym2612"
    },
    {
      "channel": 1,
      "note": 42,
      "start": 1.2171,
      "duration": 0.2,
      "velocity": 113,
      "chip": "ym2612"
    },
    {
      "channel": 3,
      "note": 42,
      "start": 1.2176,
      "duration": 0.2003,
      "velocity": 105,
      "chip": "ym2612"
    },
    {
      "channel": 4,
      "note": 42,
      "start": 1.218,
      "duration": 0.2005,
      "velocity": 105,
      "chip": "ym2612"
    },
    {
      "channel": 2,
      "note": 42,
      "start": 1.2835,
      "duration": 0.0829,
      "velocity": 117,
      "chip": "ym2612"
    },
    {
      "channel": 0,
      "note": 42,
      "start": 1.4166,
      "duration": 0.0141,
      "velocity": 113,
      "chip": "ym2612"
    },
    {
      "channel": 1,
      "note": 42,
      "start": 1.4171,
      "duration": 0.0629,
      "velocity": 113,
      "chip": "ym2612"
    },
    {
      "channel": 2,
      "note": 42,
      "start": 1.4175,
      "duration": 0.0031,
      "velocity": 117,
      "chip": "ym2612"
    },
    {
      "channel": 3,
      "note": 42,
      "start": 1.4179,
      "duration": 0.0063,
      "velocity": 105,
      "chip": "ym2612"
    },
    {
      "channel": 4,
      "note": 54,
      "start": 1.4185,
      "duration": 0.0668,
      "velocity": 105,
      "chip": "ym2612"
    },
    {
      "channel": 3,
      "note": 42,
      "start": 1.4242,
      "duration": 0.0074,
      "velocity": 105,
      "chip": "ym2612"
    },
    {
      "channel": 2,
      "note": 42,
      "start": 1.4264,
      "duration": 0.0029,
      "velocity": 117,
      "chip": "ym2612"
    },
    {
      "channel": 0,
      "note": 42,
      "start": 1.4308,
      "duration": 0.0173,
      "velocity": 113,
      "chip": "ym2612"
    },
    {
      "channel": 2,
      "note": 42,
      "start": 1.4312,
      "duration": 0.0033,
      "velocity": 117,
      "chip": "ym2612"
    },
    {
      "channel": 3,
      "note": 54,
      "start": 1.4316,
      "duration": 0.0522,
      "velocity": 105,
      "chip": "ym2612"
    },
    {
      "channel": 2,
      "note": 42,
      "start": 1.4421,
      "duration": 0.0036,
      "velocity": 117,
      "chip": "ym2612"
    },
    {
      "channel": 0,
      "note": 42,
      "start": 1.4481,
      "duration": 0.0167,
      "velocity": 113,
      "chip": "ym2612"
    },
    {
      "channel": 2,
      "note": 42,
      "start": 1.4487,
      "duration": 0.0034,
      "velocity": 117,
      "chip": "ym2612"
    },
    {
      "channel": 2,
      "note": 42,
      "start": 1.4596,
      "duration": 0.0035,
      "velocity": 117,
      "chip": "ym2612"
    },
    {
      "channel": 0,
      "note": 42,
      "start": 1.4648,
      "duration": 0.015,
      "velocity": 113,
      "chip": "ym2612"
    },
    {
      "channel": 2,
      "note": 42,
      "start": 1.4652,
      "duration": 0.0027,
      "velocity": 117,
      "chip": "ym2612"
    },
    {
      "channel": 2,
      "note": 42,
      "start": 1.4753,
      "duration": 0.0037,
      "velocity": 117,
      "chip": "ym2612"
    },
    {
      "channel": 0,
      "note": 54,
      "start": 1.4819,
      "duration": 0.0098,
      "velocity": 117,
      "chip": "ym2612"
    },
    {
      "channel": 1,
      "note": 61,
      "start": 1.4833,
      "duration": 0.0085,
      "velocity": 113,
      "chip": "ym2612"
    },
    {
      "channel": 2,
      "note": 42,
      "start": 1.4837,
      "duration": 0.0083,
      "velocity": 117,
      "chip": "ym2612"
    },
    {
      "channel": 3,
      "note": 67,
      "start": 1.4852,
      "duration": 0.006,
      "velocity": 113,
      "chip": "ym2612"
    },
    {
      "channel": 4,
      "note": 54,
      "start": 1.4868,
      "duration": 0.0046,
      "velocity": 104,
      "chip": "ym2612"
    },
    {
      "channel": 0,
      "note": 54,
      "start": 1.4973,
      "duration": 0.0163,
      "velocity": 117,
      "chip": "ym2612"
    },
    {
      "channel": 1,
      "note": 61,
      "start": 1.4976,
      "duration": 0.0161,
      "velocity": 113,
      "chip": "ym2612"
    },
    {
      "channel": 2,
      "note": 42,
      "start": 1.498,
      "duration": 0.0159,
      "velocity": 117,
      "chip": "ym2612"
    },
    {
      "channel": 3,
      "note": 66,
      "start": 1.4985,
      "duration": 0.0155,
      "velocity": 113,
      "chip": "ym2612"
    },
    {
      "channel": 4,
      "note": 58,
      "start": 1.4988,
      "duration": 0.0485,
      "velocity": 104,
      "chip": "ym2612"
    },
    {
      "channel": 0,
      "note": 54,
      "start": 1.5971,
      "duration": 0.0012,
      "velocity": 117,
      "chip": "ym2612"
    },
    {
      "channel": 1,
      "note": 61,
      "start": 1.5972,
      "duration": 0.0012,
      "velocity": 113,
      "chip": "ym2612"
    },
    {
      "channel": 2,
      "note": 42,
      "start": 1.5974,
      "duration": 0.0061,
      "velocity": 117,
      "chip": "ym2612"
    },
    {
      "channel": 3,
      "note": 66,
      "start": 1.5976,
      "duration": 0.0011,
      "velocity": 113,
      "chip": "ym2612"
    },
    {
      "channel": 4,
      "note": 54,
      "start": 1.5978,
      "duration": 0.002,
      "velocity": 104,
      "chip": "ym2612"
    },
    {
      "channel": 0,
      "note": 54,
      "start": 1.6018,
      "duration": 0.0013,
      "velocity": 117,
      "chip": "ym2612"
    },
    {
      "channel": 1,
      "note": 61,
      "start": 1.6021,
      "duration": 0.0012,
      "velocity": 113,
      "chip": "ym2612"
    },
    {
      "channel": 3,
      "note": 66,
      "start": 1.6024,
      "duration": 0.0012,
      "velocity": 113,
      "chip": "ym2612"
    },
    {
      "channel": 4,
      "note": 59,
      "start": 1.6027,
      "duration": 0.0066,
      "velocity": 104,
      "chip": "ym2612"
    },
    {
      "channel": 0,
      "note": 54,
      "start": 1.6061,
      "duration": 0.0024,
      "velocity": 117,
      "chip": "ym2612"
    },
    {
      "channel": 1,
      "note": 61,
      "start": 1.6064,
      "duration": 0.0023,
      "velocity": 113,
      "chip": "ym2612"
    },
    {
      "channel": 2,
      "note": 42,
      "start": 1.6067,
      "duration": 0.0022,
      "velocity": 117,
      "chip": "ym2612"
    },
    {
      "channel": 3,
      "note": 66,
      "start": 1.607,
      "duration": 0.002,
      "velocity": 113,
      "chip": "ym2612"
    },
    {
      "channel": 0,
      "note": 54,
      "start": 1.6107,
      "duration": 0.0022,
      "velocity": 117,
      "chip": "ym2612"
    },
    {
      "channel": 1,
      "note": 61,
      "start": 1.611,
      "duration": 0.002,
      "velocity": 113,
      "chip": "ym2612"
    },
    {
      "channel": 2,
      "note": 43,
      "start": 1.6115,
      "duration": 0.0033,
      "velocity": 117,
      "chip": "ym2612"
    },
    {
      "channel": 3,
      "note": 66,
      "start": 1.612,
      "duration": 0.0012,
      "velocity": 113,
      "chip": "ym2612"
    },
    {
      "channel": 4,
      "note": 52,
      "start": 1.6122,
      "duration": 0.0021,
      "velocity": 104,
      "chip": "ym2612"
    },
    {
      "channel": 0,
      "note": 54,
      "start": 1.6157,
      "duration": 0.0006,
      "velocity": 117,
      "chip": "ym2612"
    },
    {
      "channel": 1,
      "note": 61,
      "start": 1.6158,
      "duration": 0.0007,
      "velocity": 113,
      "chip": "ym2612"
    },
    {
      "channel": 2,
      "note": 42,
      "start": 1.6159,
      "duration": 0.0022,
      "velocity": 117,
      "chip": "ym2612"
    },
    {
      "channel": 3,
      "note": 66,
      "start": 1.6161,
      "duration": 0.0007,
      "velocity": 113,
      "chip": "ym2612"
    },
    {
      "channel": 4,
      "note": 54,
      "start": 1.6163,
      "duration": 0.0627,
      "velocity": 104,
      "chip": "ym2612"
    },
    {
      "channel": 0,
      "note": 54,
      "start": 1.6288,
      "duration": 0.0663,
      "velocity": 117,
      "chip": "ym2612"
    },
    {
      "channel": 1,
      "note": 61,
      "start": 1.6292,
      "duration": 0.0661,
      "velocity": 113,
      "chip": "ym2612"
    },
    {
      "channel": 2,
      "note": 42,
      "start": 1.6295,
      "duration": 0.0659,
      "velocity": 117,
      "chip": "ym2612"
    },
    {
      "channel": 3,
      "note": 66,
      "start": 1.6299,
      "duration": 0.0656,
      "velocity": 113,
      "chip": "ym2612"
    },
    {
      "channel": 0,
      "note": 54,
      "start": 1.7288,
      "duration": 0.0019,
      "velocity": 117,
      "chip": "ym2612"
    },
    {
      "channel": 1,
      "note": 61,
      "start": 1.7292,
      "duration": 0.0017,
      "velocity": 113,
      "chip": "ym2612"
    },
    {
      "channel": 2,
      "note": 42,
      "start": 1.7295,
      "duration": 0.0015,
      "velocity": 117,
      "chip": "ym2612"
    },
    {
      "channel": 3,
      "note": 66,
      "start": 1.7299,
      "duration": 0.0012,
      "velocity": 113,
      "chip": "ym2612"
    },
    {
      "channel": 4,
      "note": 52,
      "start": 1.7302,
      "duration": 0.0022,
      "velocity": 104,
      "chip": "ym2612"
    },
    {
      "channel": 0,
      "note": 54,
      "start": 1.7335,
      "duration": 0.0004,
      "velocity": 117,
      "chip": "ym2612"
    },
    {
      "channel": 1,
      "note": 61,
      "start": 1.7335,
      "duration": 0.0006,
      "velocity": 113,
      "chip": "ym2612"
    },
    {
      "channel": 2,
      "note": 42,
      "start": 1.7337,
      "duration": 0.0006,
      "velocity": 117,
      "chip": "ym2612"
    },
    {
      "channel": 3,
      "note": 66,
      "start": 1.7337,
      "duration": 0.0007,
      "velocity": 113,
      "chip": "ym2612"
    },
    {
      "channel": 4,
      "note": 58,
      "start": 1.7338,
      "duration": 0.0163,
      "velocity": 104,
      "chip": "ym2612"
    },
    {
      "channel": 0,
      "note": 54,
      "start": 1.7469,
      "duration": 0.0036,
      "velocity": 117,
      "chip": "ym2612"
    },
    {
      "channel": 1,
      "note": 61,
      "start": 1.7473,
      "duration": 0.0034,
      "velocity": 113,
      "chip": "ym2612"
    },
    {
      "channel": 2,
      "note": 42,
      "start": 1.7476,
      "duration": 0.0032,
      "velocity": 117,
      "chip": "ym2612"
    },
    {
      "channel": 3,
      "note": 66,
      "start": 1.748,
      "duration": 0.0029,
      "velocity": 113,
      "chip": "ym2612"
    },
    {
      "channel": 0,
      "note": 54,
      "start": 1.752,
      "duration": 0.0022,
      "velocity": 117,
      "chip": "ym2612"
    },
    {
      "channel": 1,
      "note": 61,
      "start": 1.7525,
      "duration": 0.0019,
      "velocity": 113,
      "chip": "ym2612"
    },
    {
      "channel": 2,
      "note": 42,
      "start": 1.7529,
      "duration": 0.0017,
      "velocity": 117,
      "chip": "ym2612"
    },
    {
      "channel": 3,
      "note": 66,
      "start": 1.7534,
      "duration": 0.0014,
      "velocity": 113,
      "chip": "ym2612"
    },
    {
      "channel": 4,
      "note": 59,
      "start": 1.7537,
      "duration": 0.0057,
      "velocity": 104,
      "chip": "ym2612"
    },
    {
      "channel": 0,
      "note": 54,
      "start": 1.7572,
      "duration": 0.0006,
      "velocity": 117,
      "chip": "ym2612"
    },
    {
      "channel": 1,
      "note": 61,
      "start": 1.7573,
      "duration": 0.0007,
      "velocity": 113,
      "chip": "ym2612"
    },
    {
      "channel": 2,
      "note": 42,
      "start": 1.7574,
      "duration": 0.0008,
      "velocity": 117,
      "chip": "ym2612"
    },
    {
      "channel": 3,
      "note": 66,
      "start": 1.7575,
      "duration": 0.0008,
      "velocity": 113,
      "chip": "ym2612"
    },
    {
      "channel": 0,
      "note": 55,
      "start": 1.7605,
      "duration": 0.003,
      "velocity": 117,
      "chip": "ym2612"
    },
    {
      "channel": 1,
      "note": 62,
      "start": 1.7607,
      "duration": 0.0029,
      "velocity": 113,
      "chip": "ym2612"
    },
    {
      "channel": 2,
      "note": 43,
      "start": 1.761,
      "duration": 0.0027,
      "velocity": 117,
      "chip": "ym2612"
    },
    {
      "channel": 3,
      "note": 67,
      "start": 1.7614,
      "duration": 0.0025,
      "velocity": 113,
      "chip": "ym2612"
    },
    {
      "channel": 4,
      "note": 55,
      "start": 1.7616,
      "duration": 0.0064,
      "velocity": 104,
      "chip": "ym2612"
    },
    {
      "channel": 0,
      "note": 54,
      "start": 1.7647,
      "duration": 0.002,
      "velocity": 117,
      "chip": "ym2612"
    },
    {
      "channel": 1,
      "note": 61,
      "start": 1.7649,
      "duration": 0.002,
      "velocity": 113,
      "chip": "ym2612"
    },
    {
      "channel": 2,
      "note": 42,
      "start": 1.7655,
      "duration": 0.0015,
      "velocity": 117,
      "chip": "ym2612"
    },
    {
      "channel": 3,
      "note": 66,
      "start": 1.7661,
      "duration": 0.001,
      "velocity": 113,
      "chip": "ym2612"
    },
    {
      "channel": 0,
      "note": 54,
      "start": 1.7692,
      "duration": 0.0073,
      "velocity": 117,
      "chip": "ym2612"
    },
    {
      "channel": 1,
      "note": 61,
      "start": 1.7698,
      "duration": 0.0069,
      "velocity": 113,
      "chip": "ym2612"
    },
    {
      "channel": 2,
      "note": 42,
      "start": 1.7703,
      "duration": 0.0066,
      "velocity": 117,
      "chip": "ym2612"
    },
    {
      "channel": 3,
      "note": 66,
      "start": 1.7707,
      "duration": 0.0023,
      "velocity": 113,
      "chip": "ym2612"
    },
    {
      "channel": 4,
      "note": 54,
      "start": 1.7711,
      "duration": 0.0051,
      "velocity": 104,
      "chip": "ym2612"
    },
    {
      "channel": 3,
      "note": 66,
      "start": 1.7746,
      "duration": 0.0003,
      "velocity": 113,
      "chip": "ym2612"
    },
    {
      "channel": 0,
      "note": 54,
      "start": 1.7875,
      "duration": 0.0163,
      "velocity": 117,
      "chip": "ym2612"
    },
    {
      "channel": 1,
      "note": 61,
      "start": 1.7879,
      "duration": 0.0161,
      "velocity": 113,
      "chip": "ym2612"
    },
    {
      "channel": 2,
      "note": 42,
      "start": 1.7883,
      "duration": 0.0159,
      "velocity": 117,
      "chip": "ym2612"
    },
    {
      "channel": 3,
      "note": 66,
      "start": 1.7885,
      "duration": 0.0158,
      "velocity": 113,
      "chip": "ym2612"
    },
    {
      "channel": 4,
      "note": 58,
      "start": 1.7887,
      "duration": 0.0489,
      "velocity": 104,
      "chip": "ym2612"
    },
    {
      "channel": 0,
      "note": 54,
      "start": 1.8873,
      "duration": 0.0013,
      "velocity": 117,
      "chip": "ym2612"
    },
    {
      "channel": 1,
      "note": 61,
      "start": 1.8875,
      "duration": 0.0013,
      "velocity": 113,
      "chip": "ym2612"
    },
    {
      "channel": 2,
      "note": 42,
      "start": 1.8876,
      "duration": 0.0062,
      "velocity": 117,
      "chip": "ym2612"
    },
    {
      "channel": 3,
      "note": 66,
      "start": 1.8878,
      "duration": 0.0012,
      "velocity": 113,
      "chip": "ym2612"
    },
    {
      "channel": 4,
      "note": 54,
      "start": 1.888,
      "duration": 0.0021,
      "velocity": 104,
      "chip": "ym2612"
    },
    {
      "channel": 0,
      "note": 54,
      "start": 1.8922,
      "duration": 0.0013,
      "velocity": 117,
      "chip": "ym2612"
    },
    {
      "channel": 1,
      "note": 61,
      "start": 1.8924,
      "duration": 0.0013,
      "velocity": 113,
      "chip": "ym2612"
    },
    {
      "channel": 3,
      "note": 66,
      "start": 1.8927,
      "duration": 0.0013,
      "velocity": 113,
      "chip": "ym2612"
    },
    {
      "channel": 4,
      "note": 59,
      "start": 1.8929,
      "duration": 0.0064,
      "velocity": 104,
      "chip": "ym2612"
    },
    {
      "channel": 0,
      "note": 54,
      "start": 1.8964,
      "duration": 0.0022,
      "velocity": 117,
      "chip": "ym2612"
    },
    {
      "channel": 1,
      "note": 61,
      "start": 1.8967,
      "duration": 0.0021,
      "velocity": 113,
      "chip": "ym2612"
    },
    {
      "channel": 2,
      "note": 42,
      "start": 1.897,
      "duration": 0.002,
      "velocity": 117,
      "chip": "ym2612"
    },
    {
      "channel": 3,
      "note": 66,
      "start": 1.8973,
      "duration": 0.0019,
      "velocity": 113,
      "chip": "ym2612"
    },
    {
      "channel": 0,
      "note": 54,
      "start": 1.9007,
      "duration": 0.0022,
      "velocity": 117,
      "chip": "ym2612"
    },
    {
      "channel": 1,
      "note": 61,
      "start": 1.901,
      "duration": 0.0021,
      "velocity": 113,
      "chip": "ym2612"
    },
    {
      "channel": 2,
      "note": 43,
      "start": 1.9016,
      "duration": 0.0034,
      "velocity": 117,
      "chip": "ym2612"
    },
    {
      "channel": 3,
      "note": 66,
      "start": 1.9021,
      "duration": 0.0013,
      "velocity": 113,
      "chip": "ym2612"
    },
    {
      "channel": 4,
      "note": 52,
      "start": 1.9023,
      "duration": 0.0022,
      "velocity": 104,
      "chip": "ym2612"
    },
    {
      "channel": 0,
      "note": 54,
      "start": 1.9062,
      "duration": 0.0006,
      "velocity": 117,
      "chip": "ym2612"
    },
    {
      "channel": 1,
      "note": 61,
      "start": 1.9062,
      "duration": 0.0007,
      "velocity": 113,
      "chip": "ym2612"
    },
    {
      "channel": 2,
      "note": 42,
      "start": 1.9064,
      "duration": 0.0022,
      "velocity": 117,
      "chip": "ym2612"
    },
    {
      "channel": 3,
      "note": 66,
      "start": 1.9065,
      "duration": 0.0007,
      "velocity": 113,
      "chip": "ym2612"
    },
    {
      "channel": 4,
      "note": 54,
      "start": 1.9066,
      "duration": 0.0627,
      "velocity": 104,
      "chip": "ym2612"
    },
    {
      "channel": 0,
      "note": 54,
      "start": 1.9192,
      "duration": 0.0663,
      "velocity": 117,
      "chip": "ym2612"
    },
    {
      "channel": 1,
      "note": 61,
      "start": 1.9195,
      "duration": 0.0661,
      "velocity": 113,
      "chip": "ym2612"
    },
    {
      "channel": 2,
      "note": 42,
      "start": 1.9199,
      "duration": 0.0659,
      "velocity": 117,
      "chip": "ym2612"
    },
    {
      "channel": 3,
      "note": 66,
      "start": 1.9203,
      "duration": 0.0656,
      "velocity": 113,
      "chip": "ym2612"
    },
    {
      "channel": 0,
      "note": 54,
      "start": 2.0192,
      "duration": 0.0019,
      "velocity": 117,
      "chip": "ym2612"
    },
    {
      "channel": 1,
      "note": 61,
      "start": 2.0195,
      "duration": 0.0017,
      "velocity": 113,
      "chip": "ym2612"
    },
    {
      "channel": 2,
      "note": 42,
      "start": 2.0199,
      "duration": 0.0015,
      "velocity": 117,
      "chip": "ym2612"
    },
    {
      "channel": 3,
      "note": 66,
      "start": 2.0203,
      "duration": 0.0013,
      "velocity": 113,
      "chip": "ym2612"
    },
    {
      "channel": 4,
      "note": 52,
      "start": 2.0205,
      "duration": 0.0022,
      "velocity": 104,
      "chip": "ym2612"
    },
    {
      "channel": 0,
      "note": 54,
      "start": 2.0242,
      "duration": 0.0006,
      "velocity": 117,
      "chip": "ym2612"
    },
    {
      "channel": 1,
      "note": 61,
      "start": 2.0243,
      "duration": 0.0007,
      "velocity": 113,
      "chip": "ym2612"
    },
    {
      "channel": 2,
      "note": 42,
      "start": 2.0244,
      "duration": 0.0007,
      "velocity": 117,
      "chip": "ym2612"
    },
    {
      "channel": 3,
      "note": 66,
      "start": 2.0245,
      "duration": 0.0007,
      "velocity": 113,
      "chip": "ym2612"
    },
    {
      "channel": 4,
      "note": 58,
      "start": 2.0246,
      "duration": 0.0167,
      "velocity": 104,
      "chip": "ym2612"
    },
    {
      "channel": 0,
      "note": 54,
      "start": 2.038,
      "duration": 0.0037,
      "velocity": 117,
      "chip": "ym2612"
    },
    {
      "channel": 1,
      "note": 61,
      "start": 2.0384,
      "duration": 0.0035,
      "velocity": 113,
      "chip": "ym2612"
    },
    {
      "channel": 2,
      "note": 42,
      "start": 2.0388,
      "duration": 0.0034,
      "velocity": 117,
      "chip": "ym2612"
    },
    {
      "channel": 3,
      "note": 66,
      "start": 2.0392,
      "duration": 0.0032,
      "velocity": 113,
      "chip": "ym2612"
    },
    {
      "channel": 0,
      "note": 54,
      "start": 2.0434,
      "duration": 0.0022,
      "velocity": 117,
      "chip": "ym2612"
    },
    {
      "channel": 1,
      "note": 61,
      "start": 2.0439,
      "duration": 0.0018,
      "velocity": 113,
      "chip": "ym2612"
    },
    {
      "channel": 2,
      "note": 42,
      "start": 2.0444,
      "duration": 0.0015,
      "velocity": 117,
      "chip": "ym2612"
    },
    {
      "channel": 3,
      "note": 66,
      "start": 2.0449,
      "duration": 0.0012,
      "velocity": 113,
      "chip": "ym2612"
    },
    {
      "channel": 4,
      "note": 59,
      "start": 2.0451,
      "duration": 0.0055,
      "velocity": 104,
      "chip": "ym2612"
    },
    {
      "channel": 0,
      "note": 54,
      "start": 2.0483,
      "duration": 0.0006,
      "velocity": 117,
      "chip": "ym2612"
    },
    {
      "channel": 1,
      "note": 61,
      "start": 2.0484,
      "duration": 0.0007,
      "velocity": 113,
      "chip": "ym2612"
    },
    {
      "channel": 2,
      "note": 42,
      "start": 2.0485,
      "duration": 0.0008,
      "velocity": 117,
      "chip": "ym2612"
    },
    {
      "channel": 3,
      "note": 66,
      "start": 2.0486,
      "duration": 0.0009,
      "velocity": 113,
      "chip": "ym2612"
    },
    {
      "channel": 0,
      "note": 55,
      "start": 2.0521,
      "duration": 0.0029,
      "velocity": 117,
      "chip": "ym2612"
    },
    {
      "channel": 1,
      "note": 62,
      "start": 2.0522,
      "duration": 0.0031,
      "velocity": 113,
      "chip": "ym2612"
    },
    {
      "channel": 2,
      "note": 43,
      "start": 2.0526,
      "duration": 0.0029,
      "velocity": 117,
      "chip": "ym2612"
    },
    {
      "channel": 3,
      "note": 67,
      "start": 2.0529,
      "duration": 0.0033,
      "velocity": 113,
      "chip": "ym2612"
    },
    {
      "channel": 4,
      "note": 55,
      "start": 2.0531,
      "duration": 0.007,
      "velocity": 104,
      "chip": "ym2612"
    },
    {
      "channel": 0,
      "note": 54,
      "start": 2.0568,
      "duration": 0.0017,
      "velocity": 117,
      "chip": "ym2612"
    },
    {
      "channel": 1,
      "note": 61,
      "start": 2.0569,
      "duration": 0.0018,
      "velocity": 113,
      "chip": "ym2612"
    },
    {
      "channel": 2,
      "note": 42,
      "start": 2.0574,
      "duration": 0.0015,
      "velocity": 117,
      "chip": "ym2612"
    },
    {
      "channel": 3,
      "note": 66,
      "start": 2.0579,
      "duration": 0.0012,
      "velocity": 113,
      "chip": "ym2612"
    },
    {
      "channel": 0,
      "note": 54,
      "start": 2.0612,
      "duration": 0.0076,
      "velocity": 117,
      "chip": "ym2612"
    },
    {
      "channel": 1,
      "note": 61,
      "start": 2.0618,
      "duration": 0.0072,
      "velocity": 113,
      "chip": "ym2612"
    },
    {
      "channel": 2,
      "note": 42,
      "start": 2.0623,
      "duration": 0.0068,
      "velocity": 117,
      "chip": "ym2612"
    },
    {
      "channel": 3,
      "note": 67,
      "start": 2.0631,
      "duration": 0.0052,
      "velocity": 113,
      "chip": "ym2612"
    },
    {
      "channel": 4,
      "note": 54,
      "start": 2.0634,
      "duration": 0.0051,
      "velocity": 104,
      "chip": "ym2612"
    },
    {
      "channel": 0,
      "note": 54,
      "start": 2.0792,
      "duration": 0.0163,
      "velocity": 117,
      "chip": "ym2612"
    },
    {
      "channel": 1,
      "note": 61,
      "start": 2.0796,
      "duration": 0.0161,
      "velocity": 113,
      "chip": "ym2612"
    },
    {
      "channel": 2,
      "note": 42,
      "start": 2.0799,
      "duration": 0.0159,
      "velocity": 117,
      "chip": "ym2612"
    },
    {
      "channel": 3,
      "note": 66,
      "start": 2.0805,
      "duration": 0.0155,
      "velocity": 113,
      "chip": "ym2612"
    },
    {
      "channel": 4,
      "note": 58,
      "start": 2.0807,
      "duration": 0.0485,
      "velocity": 104,
      "chip": "ym2612"
    },
    {
      "channel": 0,
      "note": 54,
      "start": 2.179,
      "duration": 0.0013,
      "velocity": 117,
      "chip": "ym2612"
    },
    {
      "channel": 1,
      "note": 61,
      "start": 2.1791,
      "duration": 0.0013,
      "velocity": 113,
      "chip": "ym2612"
    },
    {
      "channel": 2,
      "note": 42,
      "start": 2.1793,
      "duration": 0.0063,
      "velocity": 117,
      "chip": "ym2612"
    },
    {
      "channel": 3,
      "note": 66,
      "start": 2.1795,
      "duration": 0.0012,
      "velocity": 113,
      "chip": "ym2612"
    },
    {
      "channel": 4,
      "note": 54,
      "start": 2.1797,
      "duration": 0.0021,
      "velocity": 104,
      "chip": "ym2612"
    },
    {
      "channel": 0,
      "note": 54,
      "start": 2.1839,
      "duration": 0.0013,
      "velocity": 117,
      "chip": "ym2612"
    },
    {
      "channel": 1,
      "note": 61,
      "start": 2.1841,
      "duration": 0.0013,
      "velocity": 113,
      "chip": "ym2612"
    },
    {
      "channel": 3,
      "note": 66,
      "start": 2.1844,
      "duration": 0.0014,
      "velocity": 113,
      "chip": "ym2612"
    },
    {
      "channel": 4,
      "note": 59,
      "start": 2.1846,
      "duration": 0.0067,
      "velocity": 104,
      "chip": "ym2612"
    },
    {
      "channel": 0,
      "note": 54,
      "start": 2.1884,
      "duration": 0.0023,
      "velocity": 117,
      "chip": "ym2612"
    },
    {
      "channel": 1,
      "note": 61,
      "start": 2.1886,
      "duration": 0.0022,
      "velocity": 113,
      "chip": "ym2612"
    },
    {
      "channel": 2,
      "note": 42,
      "start": 2.189,
      "duration": 0.0021,
      "velocity": 117,
      "chip": "ym2612"
    },
    {
      "channel": 3,
      "note": 66,
      "start": 2.1892,
      "duration": 0.002,
      "velocity": 113,
      "chip": "ym2612"
    },
    {
      "channel": 0,
      "note": 54,
      "start": 2.1929,
      "duration": 0.002,
      "velocity": 117,
      "chip": "ym2612"
    },
    {
      "channel": 1,
      "note": 61,
      "start": 2.1932,
      "duration": 0.0019,
      "velocity": 113,
      "chip": "ym2612"
    },
    {
      "channel": 2,
      "note": 43,
      "start": 2.1937,
      "duration": 0.0035,
      "velocity": 117,
      "chip": "ym2612"
    },
    {
      "channel": 3,
      "note": 66,
      "start": 2.1941,
      "duration": 0.0012,
      "velocity": 113,
      "chip": "ym2612"
    },
    {
      "channel": 4,
      "note": 52,
      "start": 2.1944,
      "duration": 0.0022,
      "velocity": 104,
      "chip": "ym2612"
    },
    {
      "channel": 0,
      "note": 54,
      "start": 2.1981,
      "duration": 0.0007,
      "velocity": 117,
      "chip": "ym2612"
    },
    {
      "channel": 1,
      "note": 61,
      "start": 2.1982,
      "duration": 0.0008,
      "velocity": 113,
      "chip": "ym2612"
    },
    {
      "channel": 2,
      "note": 42,
      "start": 2.1984,
      "duration": 0.0022,
      "velocity": 117,
      "chip": "ym2612"
    },
    {
      "channel": 3,
      "note": 66,
      "start": 2.1985,
      "duration": 0.0007,
      "velocity": 113,
      "chip": "ym2612"
    },
    {
      "channel": 4,
      "note": 54,
      "start": 2.1986,
      "duration": 0.0629,
      "velocity": 104,
      "chip": "ym2612"
    },
    {
      "channel": 0,
      "note": 54,
      "start": 2.2114,
      "duration": 0.0663,
      "velocity": 117,
      "chip": "ym2612"
    },
    {
      "channel": 1,
      "note": 61,
      "start": 2.2118,
      "duration": 0.0661,
      "velocity": 113,
      "chip": "ym2612"
    },
    {
      "channel": 2,
      "note": 42,
      "start": 2.2122,
      "duration": 0.0659,
      "velocity": 117,
      "chip": "ym2612"
    },
    {
      "channel": 3,
      "note": 66,
      "start": 2.2125,
      "duration": 0.0656,
      "velocity": 113,
      "chip": "ym2612"
    },
    {
      "channel": 0,
      "note": 54,
      "start": 2.3114,
      "duration": 0.0019,
      "velocity": 117,
      "chip": "ym2612"
    },
    {
      "channel": 1,
      "note": 61,
      "start": 2.3118,
      "duration": 0.0017,
      "velocity": 113,
      "chip": "ym2612"
    },
    {
      "channel": 2,
      "note": 42,
      "start": 2.3122,
      "duration": 0.0015,
      "velocity": 117,
      "chip": "ym2612"
    },
    {
      "channel": 3,
      "note": 66,
      "start": 2.3125,
      "duration": 0.0012,
      "velocity": 113,
      "chip": "ym2612"
    },
    {
      "channel": 4,
      "note": 52,
      "start": 2.3128,
      "duration": 0.0022,
      "velocity": 104,
      "chip": "ym2612"
    },
    {
      "channel": 0,
      "note": 54,
      "start": 2.3164,
      "duration": 0.0007,
      "velocity": 117,
      "chip": "ym2612"
    },
    {
      "channel": 1,
      "note": 61,
      "start": 2.3165,
      "duration": 0.0008,
      "velocity": 113,
      "chip": "ym2612"
    },
    {
      "channel": 2,
      "note": 42,
      "start": 2.3166,
      "duration": 0.0009,
      "velocity": 117,
      "chip": "ym2612"
    },
    {
      "channel": 3,
      "note": 66,
      "start": 2.3168,
      "duration": 0.001,
      "velocity": 113,
      "chip": "ym2612"
    },
    {
      "channel": 4,
      "note": 58,
      "start": 2.3169,
      "duration": 0.0174,
      "velocity": 104,
      "chip": "ym2612"
    },
    {
      "channel": 0,
      "note": 54,
      "start": 2.3309,
      "duration": 0.0039,
      "velocity": 117,
      "chip": "ym2612"
    },
    {
      "channel": 1,
      "note": 61,
      "start": 2.3313,
      "duration": 0.0037,
      "velocity": 113,
      "chip": "ym2612"
    },
    {
      "channel": 2,
      "note": 42,
      "start": 2.3317,
      "duration": 0.0035,
      "velocity": 117,
      "chip": "ym2612"
    },
    {
      "channel": 3,
      "note": 66,
      "start": 2.3321,
      "duration": 0.0032,
      "velocity": 113,
      "chip": "ym2612"
    },
    {
      "channel": 0,
      "note": 54,
      "start": 2.3365,
      "duration": 0.0022,
      "velocity": 117,
      "chip": "ym2612"
    },
    {
      "channel": 1,
      "note": 61,
      "start": 2.337,
      "duration": 0.0018,
      "velocity": 113,
      "chip": "ym2612"
    },
    {
      "channel": 2,
      "note": 42,
      "start": 2.3375,
      "duration": 0.0015,
      "velocity": 117,
      "chip": "ym2612"
    },
    {
      "channel": 3,
      "note": 66,
      "start": 2.338,
      "duration": 0.0012,
      "velocity": 113,
      "chip": "ym2612"
    },
    {
      "channel": 4,
      "note": 59,
      "start": 2.3382,
      "duration": 0.0054,
      "velocity": 104,
      "chip": "ym2612"
    },
    {
      "channel": 0,
      "note": 54,
      "start": 2.3414,
      "duration": 0.0005,
      "velocity": 117,
      "chip": "ym2612"
    },
    {
      "channel": 1,
      "note": 61,
      "start": 2.3415,
      "duration": 0.0006,
      "velocity": 113,
      "chip": "ym2612"
    },
    {
      "channel": 2,
      "note": 42,
      "start": 2.3416,
      "duration": 0.0007,
      "velocity": 117,
      "chip": "ym2612"
    },
    {
      "channel": 3,
      "note": 66,
      "start": 2.3417,
      "duration": 0.0007,
      "velocity": 113,
      "chip": "ym2612"
    },
    {
      "channel": 0,
      "note": 55,
      "start": 2.3448,
      "duration": 0.0033,
      "velocity": 117,
      "chip": "ym2612"
    },
    {
      "channel": 1,
      "note": 62,
      "start": 2.3449,
      "duration": 0.0034,
      "velocity": 113,
      "chip": "ym2612"
    },
    {
      "channel": 2,
      "note": 43,
      "start": 2.3452,
      "duration": 0.0032,
      "velocity": 117,
      "chip": "ym2612"
    },
    {
      "channel": 3,
      "note": 67,
      "start": 2.3456,
      "duration": 0.003,
      "velocity": 113,
      "chip": "ym2612"
    },
    {
      "channel": 4,
      "note": 55,
      "start": 2.3458,
      "duration": 0.0073,
      "velocity": 104,
      "chip": "ym2612"
    },
    {
      "channel": 0,
      "note": 54,
      "start": 2.3496,
      "duration": 0.0019,
      "velocity": 117,
      "chip": "ym2612"
    },
    {
      "channel": 1,
      "note": 61,
      "start": 2.3498,
      "duration": 0.0019,
      "velocity": 113,
      "chip": "ym2612"
    },
    {
      "channel": 2,
      "note": 42,
      "start": 2.3502,
      "duration": 0.0016,
      "velocity": 117,
      "chip": "ym2612"
    },
    {
      "channel": 3,
      "note": 66,
      "start": 2.3508,
      "duration": 0.0012,
      "velocity": 113,
      "chip": "ym2612"
    },
    {
      "channel": 0,
      "note": 54,
      "start": 2.3546,
      "duration": 0.0079,
      "velocity": 117,
      "chip": "ym2612"
    },
    {
      "channel": 1,
      "note": 61,
      "start": 2.3552,
      "duration": 0.0075,
      "velocity": 113,
      "chip": "ym2612"
    },
    {
      "channel": 2,
      "note": 42,
      "start": 2.3557,
      "duration": 0.0071,
      "velocity": 117,
      "chip": "ym2612"
    },
    {
      "channel": 3,
      "note": 66,
      "start": 2.3561,
      "duration": 0.0024,
      "velocity": 113,
      "chip": "ym2612"
    },
    {
      "channel": 4,
      "note": 54,
      "start": 2.3564,
      "duration": 0.0057,
      "velocity": 104,
      "chip": "ym2612"
    },
    {
      "channel": 3,
      "note": 66,
      "start": 2.3604,
      "duration": 0.0004,
      "velocity": 113,
      "chip": "ym2612"
    },
    {
      "channel": 0,
      "note": 54,
      "start": 2.3734,
      "duration": 0.0163,
      "velocity": 117,
      "chip": "ym2612"
    },
    {
      "channel": 1,
      "note": 61,
      "start": 2.3738,
      "duration": 0.0161,
      "velocity": 113,
      "chip": "ym2612"
    },
    {
      "channel": 2,
      "note": 42,
      "start": 2.3742,
      "duration": 0.0159,
      "velocity": 117,
      "chip": "ym2612"
    },
    {
      "channel": 3,
      "note": 66,
      "start": 2.3744,
      "duration": 0.0158,
      "velocity": 113,
      "chip": "ym2612"
    },
    {
      "channel": 4,
      "note": 58,
      "start": 2.3746,
      "duration": 0.0489,
      "velocity": 104,
      "chip": "ym2612"
    },
    {
      "channel": 0,
      "note": 54,
      "start": 2.4732,
      "duration": 0.0012,
      "velocity": 117,
      "chip": "ym2612"
    },
    {
      "channel": 1,
      "note": 61,
      "start": 2.4734,
      "duration": 0.0012,
      "velocity": 113,
      "chip": "ym2612"
    },
    {
      "channel": 2,
      "note": 42,
      "start": 2.4735,
      "duration": 0.0063,
      "velocity": 117,
      "chip": "ym2612"
    },
    {
      "channel": 3,
      "note": 66,
      "start": 2.4737,
      "duration": 0.0011,
      "velocity": 113,
      "chip": "ym2612"
    },
    {
      "channel": 4,
      "note": 54,
      "start": 2.4739,
      "duration": 0.0021,
      "velocity": 104,
      "chip": "ym2612"
    },
    {
      "channel": 0,
      "note": 54,
      "start": 2.4782,
      "duration": 0.0013,
      "velocity": 117,
      "chip": "ym2612"
    },
    {
      "channel": 1,
      "note": 61,
      "start": 2.4785,
      "duration": 0.0012,
      "velocity": 113,
      "chip": "ym2612"
    },
    {
      "channel": 3,
      "note": 66,
      "start": 2.4788,
      "duration": 0.0012,
      "velocity": 113,
      "chip": "ym2612"
    },
    {
      "channel": 4,
      "note": 59,
      "start": 2.479,
      "duration": 0.0065,
      "velocity": 104,
      "chip": "ym2612"
    },
    {
      "channel": 0,
      "note": 54,
      "start": 2.4826,
      "duration": 0.0023,
      "velocity": 117,
      "chip": "ym2612"
    },
    {
      "channel": 1,
      "note": 61,
      "start": 2.4829,
      "duration": 0.0021,
      "velocity": 113,
      "chip": "ym2612"
    },
    {
      "channel": 2,
      "note": 42,
      "start": 2.4832,
      "duration": 0.002,
      "velocity": 117,
      "chip": "ym2612"
    },
    {
      "channel": 3,
      "note": 66,
      "start": 2.4834,
      "duration": 0.002,
      "velocity": 113,
      "chip": "ym2612"
    },
    {
      "channel": 0,
      "note": 54,
      "start": 2.4871,
      "duration": 0.0022,
      "velocity": 117,
      "chip": "ym2612"
    },
    {
      "channel": 1,
      "note": 61,
      "start": 2.4874,
      "duration": 0.002,
      "velocity": 113,
      "chip": "ym2612"
    },
    {
      "channel": 2,
      "note": 43,
      "start": 2.4879,
      "duration": 0.0034,
      "velocity": 117,
      "chip": "ym2612"
    },
    {
      "channel": 3,
      "note": 66,
      "start": 2.4884,
      "duration": 0.0013,
      "velocity": 113,
      "chip": "ym2612"
    },
    {
      "channel": 4,
      "note": 52,
      "start": 2.4886,
      "duration": 0.0022,
      "velocity": 104,
      "chip": "ym2612"
    },
    {
      "channel": 0,
      "note": 54,
      "start": 2.4925,
      "duration": 0.0007,
      "velocity": 117,
      "chip": "ym2612"
    },
    {
      "channel": 1,
      "note": 61,
      "start": 2.4926,
      "duration": 0.0008,
      "velocity": 113,
      "chip": "ym2612"
    },
    {
      "channel": 2,
      "note": 42,
      "start": 2.4927,
      "duration": 0.0021,
      "velocity": 117,
      "chip": "ym2612"
    },
    {
      "channel": 3,
      "note": 66,
      "start": 2.4928,
      "duration": 0.0008,
      "velocity": 113,
      "chip": "ym2612"
    },
    {
      "channel": 4,
      "note": 54,
      "start": 2.4929,
      "duration": 0.0629,
      "velocity": 104,
      "chip": "ym2612"
    },
    {
      "channel": 0,
      "note": 54,
      "start": 2.5056,
      "duration": 0.0663,
      "velocity": 117,
      "chip": "ym2612"
    },
    {
      "channel": 1,
      "note": 61,
      "start": 2.506,
      "duration": 0.0661,
      "velocity": 113,
      "chip": "ym2612"
    },
    {
      "channel": 2,
      "note": 42,
      "start": 2.5063,
      "duration": 0.0659,
      "velocity": 117,
      "chip": "ym2612"
    },
    {
      "channel": 3,
      "note": 66,
      "start": 2.5067,
      "duration": 0.0656,
      "velocity": 113,
      "chip": "ym2612"
    },
    {
      "channel": 0,
      "note": 54,
      "start": 2.6056,
      "duration": 0.0019,
      "velocity": 117,
      "chip": "ym2612"
    },
    {
      "channel": 1,
      "note": 61,
      "start": 2.606,
      "duration": 0.0017,
      "velocity": 113,
      "chip": "ym2612"
    },
    {
      "channel": 2,
      "note": 42,
      "start": 2.6063,
      "duration": 0.0015,
      "velocity": 117,
      "chip": "ym2612"
    },
    {
      "channel": 3,
      "note": 66,
      "start": 2.6067,
      "duration": 0.0013,
      "velocity": 113,
      "chip": "ym2612"
    },
    {
      "channel": 4,
      "note": 52,
      "start": 2.607,
      "duration": 0.0021,
      "velocity": 104,
      "chip": "ym2612"
    },
    {
      "channel": 0,
      "note": 54,
      "start": 2.6103,
      "duration": 0.0006,
      "velocity": 117,
      "chip": "ym2612"
    },
    {
      "channel": 1,
      "note": 61,
      "start": 2.6104,
      "duration": 0.0007,
      "velocity": 113,
      "chip": "ym2612"
    },
    {
      "channel": 2,
      "note": 42,
      "start": 2.6105,
      "duration": 0.0007,
      "velocity": 117,
      "chip": "ym2612"
    },
    {
      "channel": 3,
      "note": 66,
      "start": 2.6106,
      "duration": 0.0008,
      "velocity": 113,
      "chip": "ym2612"
    },
    {
      "channel": 4,
      "note": 58,
      "start": 2.6108,
      "duration": 0.0166,
      "velocity": 104,
      "chip": "ym2612"
    },
    {
      "channel": 0,
      "note": 54,
      "start": 2.6241,
      "duration": 0.0037,
      "velocity": 117,
      "chip": "ym2612"
    },
    {
      "channel": 1,
      "note": 61,
      "start": 2.6245,
      "duration": 0.0034,
      "velocity": 113,
      "chip": "ym2612"
    },
    {
      "channel": 2,
      "note": 42,
      "start": 2.6249,
      "duration": 0.0032,
      "velocity": 117,
      "chip": "ym2612"
    },
    {
      "channel": 3,
      "note": 66,
      "start": 2.6252,
      "duration": 0.003,
      "velocity": 113,
      "chip": "ym2612"
    },
    {
      "channel": 0,
      "note": 54,
      "start": 2.6292,
      "duration": 0.0021,
      "velocity": 117,
      "chip": "ym2612"
    },
    {
      "channel": 1,
      "note": 61,
      "start": 2.6297,
      "duration": 0.0018,
      "velocity": 113,
      "chip": "ym2612"
    },
    {
      "channel": 2,
      "note": 42,
      "start": 2.6302,
      "duration": 0.0015,
      "velocity": 117,
      "chip": "ym2612"
    },
    {
      "channel": 3,
      "note": 66,
      "start": 2.6306,
      "duration": 0.0012,
      "velocity": 113,
      "chip": "ym2612"
    },
    {
      "channel": 4,
      "note": 59,
      "start": 2.6309,
      "duration": 0.0051,
      "velocity": 104,
      "chip": "ym2612"
    },
    {
      "channel": 0,
      "note": 54,
      "start": 2.6339,
      "duration": 0.0005,
      "velocity": 117,
      "chip": "ym2612"
    },
    {
      "channel": 1,
      "note": 61,
      "start": 2.634,
      "duration": 0.0006,
      "velocity": 113,
      "chip": "ym2612"
    },
    {
      "channel": 2,
      "note": 42,
      "start": 2.6341,
      "duration": 0.0007,
      "velocity": 117,
      "chip": "ym2612"
    },
    {
      "channel": 3,
      "note": 66,
      "start": 2.6342,
      "duration": 0.0008,
      "velocity": 113,
      "chip": "ym2612"
    },
    {
      "channel": 0,
      "note": 55,
      "start": 2.6374,
      "duration": 0.0033,
      "velocity": 117,
      "chip": "ym2612"
    },
    {
      "channel": 1,
      "note": 62,
      "start": 2.6375,
      "duration": 0.0034,
      "velocity": 113,
      "chip": "ym2612"
    },
    {
      "channel": 2,
      "note": 43,
      "start": 2.6379,
      "duration": 0.0031,
      "velocity": 117,
      "chip": "ym2612"
    },
    {
      "channel": 3,
      "note": 67,
      "start": 2.6382,
      "duration": 0.0033,
      "velocity": 113,
      "chip": "ym2612"
    },
    {
      "channel": 4,
      "note": 55,
      "start": 2.6384,
      "duration": 0.0071,
      "velocity": 104,
      "chip": "ym2612"
    },
    {
      "channel": 0,
      "note": 54,
      "start": 2.642,
      "duration": 0.002,
      "velocity": 117,
      "chip": "ym2612"
    },
    {
      "channel": 1,
      "note": 61,
      "start": 2.6422,
      "duration": 0.002,
      "velocity": 113,
      "chip": "ym2612"
    },
    {
      "channel": 2,
      "note": 42,
      "start": 2.6427,
      "duration": 0.0017,
      "velocity": 117,
      "chip": "ym2612"
    },
    {
      "channel": 3,
      "note": 66,
      "start": 2.6433,
      "duration": 0.0012,
      "velocity": 113,
      "chip": "ym2612"
    },
    {
      "channel": 0,
      "note": 54,
      "start": 2.6468,
      "duration": 0.0078,
      "velocity": 117,
      "chip": "ym2612"
    },
    {
      "channel": 1,
      "note": 61,
      "start": 2.6473,
      "duration": 0.0074,
      "velocity": 113,
      "chip": "ym2612"
    },
    {
      "channel": 2,
      "note": 42,
      "start": 2.6478,
      "duration": 0.0071,
      "velocity": 117,
      "chip": "ym2612"
    },
    {
      "channel": 3,
      "note": 67,
      "start": 2.6484,
      "duration": 0.0055,
      "velocity": 113,
      "chip": "ym2612"
    },
    {
      "channel": 4,
      "note": 54,
      "start": 2.6488,
      "duration": 0.0055,
      "velocity": 104,
      "chip": "ym2612"
    },
    {
      "channel": 0,
      "note": 54,
      "start": 2.6651,
      "duration": 0.0163,
      "velocity": 117,
      "chip": "ym2612"
    },
    {
      "channel": 1,
      "note": 61,
      "start": 2.6655,
      "duration": 0.0161,
      "velocity": 113,
      "chip": "ym2612"
    },
    {
      "channel": 2,
      "note": 42,
      "start": 2.6659,
      "duration": 0.0159,
      "velocity": 117,
      "chip": "ym2612"
    },
    {
      "channel": 3,
      "note": 66,
      "start": 2.6664,
      "duration": 0.0155,
      "velocity": 113,
      "chip": "ym2612"
    },
    {
      "channel": 4,
      "note": 58,
      "start": 2.6666,
      "duration": 0.0485,
      "velocity": 104,
      "chip": "ym2612"
    },
    {
      "channel": 0,
      "note": 54,
      "start": 2.7649,
      "duration": 0.0012,
      "velocity": 117,
      "chip": "ym2612"
    },
    {
      "channel": 1,
      "note": 61,
      "start": 2.765,
      "duration": 0.0012,
      "velocity": 113,
      "chip": "ym2612"
    },
    {
      "channel": 2,
      "note": 42,
      "start": 2.7652,
      "duration": 0.0061,
      "velocity": 117,
      "chip": "ym2612"
    },
    {
      "channel": 3,
      "note": 66,
      "start": 2.7654,
      "duration": 0.0011,
      "velocity": 113,
      "chip": "ym2612"
    },
    {
      "channel": 4,
      "note": 54,
      "start": 2.7656,
      "duration": 0.0019,
      "velocity": 104,
      "chip": "ym2612"
    },
    {
      "channel": 0,
      "note": 54,
      "start": 2.7696,
      "duration": 0.0013,
      "velocity": 117,
      "chip": "ym2612"
    },
    {
      "channel": 1,
      "note": 61,
      "start": 2.7699,
      "duration": 0.0012,
      "velocity": 113,
      "chip": "ym2612"
    },
    {
      "channel": 3,
      "note": 66,
      "start": 2.7702,
      "duration": 0.0012,
      "velocity": 113,
      "chip": "ym2612"
    },
    {
      "channel": 4,
      "note": 59,
      "start": 2.7705,
      "duration": 0.0062,
      "velocity": 104,
      "chip": "ym2612"
    },
    {
      "channel": 0,
      "note": 54,
      "start": 2.7738,
      "duration": 0.0022,
      "velocity": 117,
      "chip": "ym2612"
    },
    {
      "channel": 1,
      "note": 61,
      "start": 2.7741,
      "duration": 0.002,
      "velocity": 113,
      "chip": "ym2612"
    },
    {
      "channel": 2,
      "note": 42,
      "start": 2.7744,
      "duration": 0.0019,
      "velocity": 117,
      "chip": "ym2612"
    },
    {
      "channel": 3,
      "note": 66,
      "start": 2.7747,
      "duration": 0.0018,
      "velocity": 113,
      "chip": "ym2612"
    },
    {
      "channel": 0,
      "note": 54,
      "start": 2.778,
      "duration": 0.0022,
      "velocity": 117,
      "chip": "ym2612"
    },
    {
      "channel": 1,
      "note": 61,
      "start": 2.7783,
      "duration": 0.0021,
      "velocity": 113,
      "chip": "ym2612"
    },
    {
      "channel": 2,
      "note": 43,
      "start": 2.7789,
      "duration": 0.0034,
      "velocity": 117,
      "chip": "ym2612"
    },
    {
      "channel": 3,
      "note": 66,
      "start": 2.7794,
      "duration": 0.0012,
      "velocity": 113,
      "chip": "ym2612"
    },
    {
      "channel": 4,
      "note": 52,
      "start": 2.7796,
      "duration": 0.0022,
      "velocity": 104,
      "chip": "ym2612"
    },
    {
      "channel": 0,
      "note": 54,
      "start": 2.783,
      "duration": 0.0007,
      "velocity": 117,
      "chip": "ym2612"
    },
    {
      "channel": 1,
      "note": 61,
      "start": 2.7831,
      "duration": 0.0008,
      "velocity": 113,
      "chip": "ym2612"
    },
    {
      "channel": 2,
      "note": 42,
      "start": 2.7832,
      "duration": 0.0022,
      "velocity": 117,
      "chip": "ym2612"
    },
    {
      "channel": 3,
      "note": 66,
      "start": 2.7834,
      "duration": 0.0007,
      "velocity": 113,
      "chip": "ym2612"
    },
    {
      "channel": 4,
      "note": 54,
      "start": 2.7836,
      "duration": 0.0627,
      "velocity": 104,
      "chip": "ym2612"
    },
    {
      "channel": 0,
      "note": 54,
      "start": 2.7961,
      "duration": 0.0663,
      "velocity": 117,
      "chip": "ym2612"
    },
    {
      "channel": 1,
      "note": 61,
      "start": 2.7965,
      "duration": 0.0661,
      "velocity": 113,
      "chip": "ym2612"
    },
    {
      "channel": 2,
      "note": 42,
      "start": 2.7968,
      "duration": 0.0659,
      "velocity": 117,
      "chip": "ym2612"
    },
    {
      "channel": 3,
      "note": 66,
      "start": 2.7972,
      "duration": 0.0656,
      "velocity": 113,
      "chip": "ym2612"
    },
    {
      "channel": 0,
      "note": 54,
      "start": 2.8961,
      "duration": 0.0019,
      "velocity": 117,
      "chip": "ym2612"
    },
    {
      "channel": 1,
      "note": 61,
      "start": 2.8965,
      "duration": 0.0017,
      "velocity": 113,
      "chip": "ym2612"
    },
    {
      "channel": 2,
      "note": 42,
      "start": 2.8968,
      "duration": 0.0015,
      "velocity": 117,
      "chip": "ym2612"
    },
    {
      "channel": 3,
      "note": 66,
      "start": 2.8972,
      "duration": 0.0012,
      "velocity": 113,
      "chip": "ym2612"
    },
    {
      "channel": 4,
      "note": 52,
      "start": 2.8975,
      "duration": 0.0022,
      "velocity": 104,
      "chip": "ym2612"
    },
    {
      "channel": 0,
      "note": 54,
      "start": 2.901,
      "duration": 0.0006,
      "velocity": 117,
      "chip": "ym2612"
    },
    {
      "channel": 1,
      "note": 61,
      "start": 2.901,
      "duration": 0.0007,
      "velocity": 113,
      "chip": "ym2612"
    },
    {
      "channel": 2,
      "note": 42,
      "start": 2.9012,
      "duration": 0.0007,
      "velocity": 117,
      "chip": "ym2612"
    },
    {
      "channel": 3,
      "note": 66,
      "start": 2.9012,
      "duration": 0.0007,
      "velocity": 113,
      "chip": "ym2612"
    },
    {
      "channel": 4,
      "note": 58,
      "start": 2.9014,
      "duration": 0.0165,
      "velocity": 104,
      "chip": "ym2612"
    },
    {
      "channel": 0,
      "note": 54,
      "start": 2.9143,
      "duration": 0.0037,
      "velocity": 117,
      "chip": "ym2612"
    },
    {
      "channel": 1,
      "note": 61,
      "start": 2.9147,
      "duration": 0.0035,
      "velocity": 113,
      "chip": "ym2612"
    },
    {
      "channel": 2,
      "note": 42,
      "start": 2.9151,
      "duration": 0.0034,
      "velocity": 117,
      "chip": "ym2612"
    },
    {
      "channel": 3,
      "note": 66,
      "start": 2.9155,
      "duration": 0.0032,
      "velocity": 113,
      "chip": "ym2612"
    },
    {
      "channel": 0,
      "note": 54,
      "start": 2.9195,
      "duration": 0.002,
      "velocity": 117,
      "chip": "ym2612"
    },
    {
      "channel": 1,
      "note": 61,
      "start": 2.9199,
      "duration": 0.0018,
      "velocity": 113,
      "chip": "ym2612"
    },
    {
      "channel": 2,
      "note": 42,
      "start": 2.9203,
      "duration": 0.0016,
      "velocity": 117,
      "chip": "ym2612"
    },
    {
      "channel": 3,
      "note": 66,
      "start": 2.9207,
      "duration": 0.0013,
      "velocity": 113,
      "chip": "ym2612"
    },
    {
      "channel": 4,
      "note": 59,
      "start": 2.921,
      "duration": 0.0051,
      "velocity": 104,
      "chip": "ym2612"
    },
    {
      "channel": 0,
      "note": 54,
      "start": 2.9242,
      "duration": 0.0004,
      "velocity": 117,
      "chip": "ym2612"
    },
    {
      "channel": 1,
      "note": 61,
      "start": 2.9243,
      "duration": 0.0004,
      "velocity": 113,
      "chip": "ym2612"
    },
    {
      "channel": 2,
      "note": 42,
      "start": 2.9244,
      "duration": 0.0005,
      "velocity": 117,
      "chip": "ym2612"
    },
    {
      "channel": 3,
      "note": 66,
      "start": 2.9245,
      "duration": 0.0006,
      "velocity": 113,
      "chip": "ym2612"
    },
    {
      "channel": 0,
      "note": 55,
      "start": 2.9272,
      "duration": 0.0033,
      "velocity": 117,
      "chip": "ym2612"
    },
    {
      "channel": 1,
      "note": 62,
      "start": 2.9273,
      "duration": 0.0032,
      "velocity": 113,
      "chip": "ym2612"
    },
    {
      "channel": 2,
      "note": 43,
      "start": 2.9277,
      "duration": 0.0031,
      "velocity": 117,
      "chip": "ym2612"
    },
    {
      "channel": 3,
      "note": 67,
      "start": 2.928,
      "duration": 0.0028,
      "velocity": 113,
      "chip": "ym2612"
    },
    {
      "channel": 4,
      "note": 55,
      "start": 2.9282,
      "duration": 0.007,
      "velocity": 104,
      "chip": "ym2612"
    },
    {
      "channel": 0,
      "note": 54,
      "start": 2.9317,
      "duration": 0.002,
      "velocity": 117,
      "chip": "ym2612"
    },
    {
      "channel": 1,
      "note": 61,
      "start": 2.9318,
      "duration": 0.002,
      "velocity": 113,
      "chip": "ym2612"
    },
    {
      "channel": 2,
      "note": 42,
      "start": 2.9324,
      "duration": 0.0015,
      "velocity": 117,
      "chip": "ym2612"
    },
    {
      "channel": 3,
      "note": 66,
      "start": 2.9331,
      "duration": 0.0011,
      "velocity": 113,
      "chip": "ym2612"
    },
    {
      "channel": 0,
      "note": 54,
      "start": 2.9365,
      "duration": 0.0075,
      "velocity": 117,
      "chip": "ym2612"
    },
    {
      "channel": 1,
      "note": 61,
      "start": 2.9369,
      "duration": 0.0072,
      "velocity": 113,
      "chip": "ym2612"
    },
    {
      "channel": 2,
      "note": 42,
      "start": 2.9375,
      "duration": 0.0068,
      "velocity": 117,
      "chip": "ym2612"
    },
    {
      "channel": 3,
      "note": 66,
      "start": 2.938,
      "duration": 0.0024,
      "velocity": 113,
      "chip": "ym2612"
    },
    {
      "channel": 4,
      "note": 54,
      "start": 2.9384,
      "duration": 0.0052,
      "velocity": 104,
      "chip": "ym2612"
    },
    {
      "channel": 3,
      "note": 66,
      "start": 2.9421,
      "duration": 0.0005,
      "velocity": 113,
      "chip": "ym2612"
    },
    {
      "channel": 0,
      "note": 54,
      "start": 2.9548,
      "duration": 0.0163,
      "velocity": 117,
      "chip": "ym2612"
    },
    {
      "channel": 1,
      "note": 61,
      "start": 2.9552,
      "duration": 0.0161,
      "velocity": 113,
      "chip": "ym2612"
    },
    {
      "channel": 2,
      "note": 42,
      "start": 2.9556,
      "duration": 0.0159,
      "velocity": 117,
      "chip": "ym2612"
    },
    {
      "channel": 3,
      "note": 66,
      "start": 2.9558,
      "duration": 0.0158,
      "velocity": 113,
      "chip": "ym2612"
    },
    {
      "channel": 4,
      "note": 58,
      "start": 2.956,
      "duration": 0.0489,
      "velocity": 104,
      "chip": "ym2612"
    },
    {
      "channel": 0,
      "note": 54,
      "start": 3.0546,
      "duration": 0.0012,
      "velocity": 117,
      "chip": "ym2612"
    },
    {
      "channel": 1,
      "note": 61,
      "start": 3.0548,
      "duration": 0.0012,
      "velocity": 113,
      "chip": "ym2612"
    },
    {
      "channel": 2,
      "note": 42,
      "start": 3.0549,
      "duration": 0.0061,
      "velocity": 117,
      "chip": "ym2612"
    },
    {
      "channel": 3,
      "note": 66,
      "start": 3.0551,
      "duration": 0.0011,
      "velocity": 113,
      "chip": "ym2612"
    },
    {
      "channel": 4,
      "note": 54,
      "start": 3.0553,
      "duration": 0.0019,
      "velocity": 104,
      "chip": "ym2612"
    },
    {
      "channel": 0,
      "note": 54,
      "start": 3.0594,
      "duration": 0.0013,
      "velocity": 117,
      "chip": "ym2612"
    },
    {
      "channel": 1,
      "note": 61,
      "start": 3.0596,
      "duration": 0.0012,
      "velocity": 113,
      "chip": "ym2612"
    },
    {
      "channel": 3,
      "note": 66,
      "start": 3.06,
      "duration": 0.0012,
      "velocity": 113,
      "chip": "ym2612"
    },
    {
      "channel": 4,
      "note": 59,
      "start": 3.0602,
      "duration": 0.0062,
      "velocity": 104,
      "chip": "ym2612"
    },
    {
      "channel": 0,
      "note": 54,
      "start": 3.0636,
      "duration": 0.0022,
      "velocity": 117,
      "chip": "ym2612"
    },
    {
      "channel": 1,
      "note": 61,
      "start": 3.0639,
      "duration": 0.002,
      "velocity": 113,
      "chip": "ym2612"
    },
    {
      "channel": 2,
      "note": 42,
      "start": 3.0641,
      "duration": 0.0019,
      "velocity": 117,
      "chip": "ym2612"
    },
    {
      "channel": 3,
      "note": 66,
      "start": 3.0644,
      "duration": 0.0018,
      "velocity": 113,
      "chip": "ym2612"
    },
    {
      "channel": 0,
      "note": 54,
      "start": 3.0678,
      "duration": 0.0022,
      "velocity": 117,
      "chip": "ym2612"
    },
    {
      "channel": 1,
      "note": 61,
      "start": 3.068,
      "duration": 0.0021,
      "velocity": 113,
      "chip": "ym2612"
    },
    {
      "channel": 2,
      "note": 43,
      "start": 3.0686,
      "duration": 0.0034,
      "velocity": 117,
      "chip": "ym2612"
    },
    {
      "channel": 3,
      "note": 66,
      "start": 3.0691,
      "duration": 0.0012,
      "velocity": 113,
      "chip": "ym2612"
    },
    {
      "channel": 4,
      "note": 52,
      "start": 3.0693,
      "duration": 0.0022,
      "velocity": 104,
      "chip": "ym2612"
    },
    {
      "channel": 0,
      "note": 54,
      "start": 3.0728,
      "duration": 0.0007,
      "velocity": 117,
      "chip": "ym2612"
    },
    {
      "channel": 1,
      "note": 61,
      "start": 3.0728,
      "duration": 0.0008,
      "velocity": 113,
      "chip": "ym2612"
    },
    {
      "channel": 2,
      "note": 42,
      "start": 3.073,
      "duration": 0.0022,
      "velocity": 117,
      "chip": "ym2612"
    },
    {
      "channel": 3,
      "note": 66,
      "start": 3.0731,
      "duration": 0.0007,
      "velocity": 113,
      "chip": "ym2612"
    },
    {
      "channel": 4,
      "note": 54,
      "start": 3.0733,
      "duration": 0.0627,
      "velocity": 104,
      "chip": "ym2612"
    },
    {
      "channel": 0,
      "note": 54,
      "start": 3.0858,
      "duration": 0.0663,
      "velocity": 117,
      "chip": "ym2612"
    },
    {
      "channel": 1,
      "note": 61,
      "start": 3.0862,
      "duration": 0.0661,
      "velocity": 113,
      "chip": "ym2612"
    },
    {
      "channel": 2,
      "note": 42,
      "start": 3.0866,
      "duration": 0.0659,
      "velocity": 117,
      "chip": "ym2612"
    },
    {
      "channel": 3,
      "note": 66,
      "start": 3.087,
      "duration": 0.0656,
      "velocity": 113,
      "chip": "ym2612"
    },
    {
      "channel": 0,
      "note": 54,
      "start": 3.1858,
      "duration": 0.0019,
      "velocity": 117,
      "chip": "ym2612"
    },
    {
      "channel": 1,
      "note": 61,
      "start": 3.1862,
      "duration": 0.0017,
      "velocity": 113,
      "chip": "ym2612"
    },
    {
      "channel": 2,
      "note": 42,
      "start": 3.1866,
      "duration": 0.0015,
      "velocity": 117,
      "chip": "ym2612"
    },
    {
      "channel": 3,
      "note": 66,
      "start": 3.187,
      "duration": 0.0012,
      "velocity": 113,
      "chip": "ym2612"
    },
    {
      "channel": 4,
      "note": 52,
      "start": 3.1872,
      "duration": 0.0022,
      "velocity": 104,
      "chip": "ym2612"
    },
    {
      "channel": 0,
      "note": 54,
      "start": 3.1907,
      "duration": 0.0006,
      "velocity": 117,
      "chip": "ym2612"
    },
    {
      "channel": 1,
      "note": 61,
      "start": 3.1907,
      "duration": 0.0007,
      "velocity": 113,
      "chip": "ym2612"
    },
    {
      "channel": 2,
      "note": 42,
      "start": 3.1909,
      "duration": 0.0007,
      "velocity": 117,
      "chip": "ym2612"
    },
    {
      "channel": 3,
      "note": 66,
      "start": 3.191,
      "duration": 0.0007,
      "velocity": 113,
      "chip": "ym2612"
    },
    {
      "channel": 4,
      "note": 58,
      "start": 3.1911,
      "duration": 0.0165,
      "velocity": 104,
      "chip": "ym2612"
    },
    {
      "channel": 0,
      "note": 54,
      "start": 3.2041,
      "duration": 0.0037,
      "velocity": 117,
      "chip": "ym2612"
    },
    {
      "channel": 1,
      "note": 61,
      "start": 3.2044,
      "duration": 0.0035,
      "velocity": 113,
      "chip": "ym2612"
    },
    {
      "channel": 2,
      "note": 42,
      "start": 3.2048,
      "duration": 0.0034,
      "velocity": 117,
      "chip": "ym2612"
    },
    {
      "channel": 3,
      "note": 66,
      "start": 3.2052,
      "duration": 0.0032,
      "velocity": 113,
      "chip": "ym2612"
    },
    {
      "channel": 0,
      "note": 54,
      "start": 3.2092,
      "duration": 0.002,
      "velocity": 117,
      "chip": "ym2612"
    },
    {
      "channel": 1,
      "note": 61,
      "start": 3.2096,
      "duration": 0.0018,
      "velocity": 113,
      "chip": "ym2612"
    },
    {
      "channel": 2,
      "note": 42,
      "start": 3.21,
      "duration": 0.0016,
      "velocity": 117,
      "chip": "ym2612"
    },
    {
      "channel": 3,
      "note": 66,
      "start": 3.2105,
      "duration": 0.0013,
      "velocity": 113,
      "chip": "ym2612"
    },
    {
      "channel": 4,
      "note": 59,
      "start": 3.2107,
      "duration": 0.0051,
      "velocity": 104,
      "chip": "ym2612"
    },
    {
      "channel": 0,
      "note": 54,
      "start": 3.2139,
      "duration": 0.0004,
      "velocity": 117,
      "chip": "ym2612"
    },
    {
      "channel": 1,
      "note": 61,
      "start": 3.2141,
      "duration": 0.0004,
      "velocity": 113,
      "chip": "ym2612"
    },
    {
      "channel": 2,
      "note": 42,
      "start": 3.2142,
      "duration": 0.0005,
      "velocity": 117,
      "chip": "ym2612"
    },
    {
      "channel": 3,
      "note": 66,
      "start": 3.2142,
      "duration": 0.0006,
      "velocity": 113,
      "chip": "ym2612"
    },
    {
      "channel": 0,
      "note": 55,
      "start": 3.2169,
      "duration": 0.0033,
      "velocity": 117,
      "chip": "ym2612"
    },
    {
      "channel": 1,
      "note": 62,
      "start": 3.2171,
      "duration": 0.0032,
      "velocity": 113,
      "chip": "ym2612"
    },
    {
      "channel": 2,
      "note": 43,
      "start": 3.2174,
      "duration": 0.0031,
      "velocity": 117,
      "chip": "ym2612"
    },
    {
      "channel": 3,
      "note": 67,
      "start": 3.2178,
      "duration": 0.0032,
      "velocity": 113,
      "chip": "ym2612"
    },
    {
      "channel": 4,
      "note": 55,
      "start": 3.2179,
      "duration": 0.0068,
      "velocity": 104,
      "chip": "ym2612"
    },
    {
      "channel": 0,
      "note": 54,
      "start": 3.2214,
      "duration": 0.0019,
      "velocity": 117,
      "chip": "ym2612"
    },
    {
      "channel": 1,
      "note": 61,
      "start": 3.2216,
      "duration": 0.0019,
      "velocity": 113,
      "chip": "ym2612"
    },
    {
      "channel": 2,
      "note": 42,
      "start": 3.2221,
      "duration": 0.0015,
      "velocity": 117,
      "chip": "ym2612"
    },
    {
      "channel": 3,
      "note": 66,
      "start": 3.2228,
      "duration": 0.001,
      "velocity": 113,
      "chip": "ym2612"
    },
    {
      "channel": 0,
      "note": 54,
      "start": 3.2261,
      "duration": 0.0075,
      "velocity": 117,
      "chip": "ym2612"
    },
    {
      "channel": 1,
      "note": 61,
      "start": 3.2266,
      "duration": 0.0071,
      "velocity": 113,
      "chip": "ym2612"
    },
    {
      "channel": 2,
      "note": 42,
      "start": 3.2272,
      "duration": 0.0066,
      "velocity": 117,
      "chip": "ym2612"
    },
    {
      "channel": 3,
      "note": 67,
      "start": 3.2279,
      "duration": 0.0052,
      "velocity": 113,
      "chip": "ym2612"
    },
    {
      "channel": 4,
      "note": 54,
      "start": 3.2282,
      "duration": 0.0051,
      "velocity": 104,
      "chip": "ym2612"
    },
    {
      "channel": 0,
      "note": 54,
      "start": 3.2439,
      "duration": 0.0163,
      "velocity": 117,
      "chip": "ym2612"
    },
    {
      "channel": 1,
      "note": 61,
      "start": 3.2442,
      "duration": 0.0161,
      "velocity": 113,
      "chip": "ym2612"
    },
    {
      "channel": 2,
      "note": 42,
      "start": 3.2446,
      "duration": 0.0159,
      "velocity": 117,
      "chip": "ym2612"
    },
    {
      "channel": 3,
      "note": 66,
      "start": 3.2451,
      "duration": 0.0155,
      "velocity": 113,
      "chip": "ym2612"
    },
    {
      "channel": 4,
      "note": 58,
      "start": 3.2454,
      "duration": 0.0485,
      "velocity": 104,
      "chip": "ym2612"
    },
    {
      "channel": 0,
      "note": 54,
      "start": 3.3437,
      "duration": 0.0012,
      "velocity": 117,
      "chip": "ym2612"
    },
    {
      "channel": 1,
      "note": 61,
      "start": 3.3438,
      "duration": 0.0012,
      "velocity": 113,
      "chip": "ym2612"
    },
    {
      "channel": 2,
      "note": 42,
      "start": 3.344,
      "duration": 0.006,
      "velocity": 117,
      "chip": "ym2612"
    },
    {
      "channel": 3,
      "note": 66,
      "start": 3.3442,
      "duration": 0.0011,
      "velocity": 113,
      "chip": "ym2612"
    },
    {
      "channel": 4,
      "note": 54,
      "start": 3.3444,
      "duration": 0.0019,
      "velocity": 104,
      "chip": "ym2612"
    },
    {
      "channel": 0,
      "note": 54,
      "start": 3.3484,
      "duration": 0.0013,
      "velocity": 117,
      "chip": "ym2612"
    },
    {
      "channel": 1,
      "note": 61,
      "start": 3.3486,
      "duration": 0.0012,
      "velocity": 113,
      "chip": "ym2612"
    },
    {
      "channel": 3,
      "note": 66,
      "start": 3.349,
      "duration": 0.0012,
      "velocity": 113,
      "chip": "ym2612"
    },
    {
      "channel": 4,
      "note": 59,
      "start": 3.3492,
      "duration": 0.0062,
      "velocity": 104,
      "chip": "ym2612"
    },
    {
      "channel": 0,
      "note": 54,
      "start": 3.3525,
      "duration": 0.0022,
      "velocity": 117,
      "chip": "ym2612"
    },
    {
      "channel": 1,
      "note": 61,
      "start": 3.3527,
      "duration": 0.0022,
      "velocity": 113,
      "chip": "ym2612"
    },
    {
      "channel": 2,
      "note": 42,
      "start": 3.3531,
      "duration": 0.002,
      "velocity": 117,
      "chip": "ym2612"
    },
    {
      "channel": 3,
      "note": 66,
      "start": 3.3534,
      "duration": 0.0018,
      "velocity": 113,
      "chip": "ym2612"
    },
    {
      "channel": 0,
      "note": 54,
      "start": 3.3569,
      "duration": 0.0022,
      "velocity": 117,
      "chip": "ym2612"
    },
    {
      "channel": 1,
      "note": 61,
      "start": 3.3572,
      "duration": 0.002,
      "velocity": 113,
      "chip": "ym2612"
    },
    {
      "channel": 2,
      "note": 43,
      "start": 3.3577,
      "duration": 0.0034,
      "velocity": 117,
      "chip": "ym2612"
    },
    {
      "channel": 3,
      "note": 66,
      "start": 3.3582,
      "duration": 0.0012,
      "velocity": 113,
      "chip": "ym2612"
    },
    {
      "channel": 4,
      "note": 52,
      "start": 3.3584,
      "duration": 0.0022,
      "velocity": 104,
      "chip": "ym2612"
    },
    {
      "channel": 0,
      "note": 54,
      "start": 3.3619,
      "duration": 0.0008,
      "velocity": 117,
      "chip": "ym2612"
    },
    {
      "channel": 1,
      "note": 61,
      "start": 3.362,
      "duration": 0.0008,
      "velocity": 113,
      "chip": "ym2612"
    },
    {
      "channel": 2,
      "note": 42,
      "start": 3.3622,
      "duration": 0.0022,
      "velocity": 117,
      "chip": "ym2612"
    },
    {
      "channel": 3,
      "note": 66,
      "start": 3.3623,
      "duration": 0.0007,
      "velocity": 113,
      "chip": "ym2612"
    },
    {
      "channel": 4,
      "note": 54,
      "start": 3.3625,
      "duration": 0.0628,
      "velocity": 104,
      "chip": "ym2612"
    },
    {
      "channel": 0,
      "note": 54,
      "start": 3.3752,
      "duration": 0.0663,
      "velocity": 117,
      "chip": "ym2612"
    },
    {
      "channel": 1,
      "note": 61,
      "start": 3.3756,
      "duration": 0.0661,
      "velocity": 113,
      "chip": "ym2612"
    },
    {
      "channel": 2,
      "note": 42,
      "start": 3.3759,
      "duration": 0.0659,
      "velocity": 117,
      "chip": "ym2612"
    },
    {
      "channel": 3,
      "note": 66,
      "start": 3.3763,
      "duration": 0.0656,
      "velocity": 113,
      "chip": "ym2612"
    },
    {
      "channel": 0,
      "note": 54,
      "start": 3.4752,
      "duration": 0.0019,
      "velocity": 117,
      "chip": "ym2612"
    },
    {
      "channel": 1,
      "note": 61,
      "start": 3.4756,
      "duration": 0.0017,
      "velocity": 113,
      "chip": "ym2612"
    },
    {
      "channel": 2,
      "note": 42,
      "start": 3.4759,
      "duration": 0.0015,
      "velocity": 117,
      "chip": "ym2612"
    },
    {
      "channel": 3,
      "note": 66,
      "start": 3.4763,
      "duration": 0.0012,
      "velocity": 113,
      "chip": "ym2612"
    },
    {
      "channel": 4,
      "note": 52,
      "start": 3.4766,
      "duration": 0.0022,
      "velocity": 104,
      "chip": "ym2612"
    },
    {
      "channel": 0,
      "note": 54,
      "start": 3.4799,
      "duration": 0.0007,
      "velocity": 117,
      "chip": "ym2612"
    },
    {
      "channel": 1,
      "note": 61,
      "start": 3.48,
      "duration": 0.0007,
      "velocity": 113,
      "chip": "ym2612"
    },
    {
      "channel": 2,
      "note": 42,
      "start": 3.4801,
      "duration": 0.0008,
      "velocity": 117,
      "chip": "ym2612"
    },
    {
      "channel": 3,
      "note": 66,
      "start": 3.4802,
      "duration": 0.0008,
      "velocity": 113,
      "chip": "ym2612"
    },
    {
      "channel": 4,
      "note": 58,
      "start": 3.4803,
      "duration": 0.0163,
      "velocity": 104,
      "chip": "ym2612"
    },
    {
      "channel": 0,
      "note": 54,
      "start": 3.4934,
      "duration": 0.0035,
      "velocity": 117,
      "chip": "ym2612"
    },
    {
      "channel": 1,
      "note": 61,
      "start": 3.4938,
      "duration": 0.0033,
      "velocity": 113,
      "chip": "ym2612"
    },
    {
      "channel": 2,
      "note": 42,
      "start": 3.4942,
      "duration": 0.0031,
      "velocity": 117,
      "chip": "ym2612"
    },
    {
      "channel": 3,
      "note": 66,
      "start": 3.4946,
      "duration": 0.0029,
      "velocity": 113,
      "chip": "ym2612"
    },
    {
      "channel": 0,
      "note": 54,
      "start": 3.4984,
      "duration": 0.0021,
      "velocity": 117,
      "chip": "ym2612"
    },
    {
      "channel": 1,
      "note": 61,
      "start": 3.4989,
      "duration": 0.0018,
      "velocity": 113,
      "chip": "ym2612"
    },
    {
      "channel": 2,
      "note": 42,
      "start": 3.4994,
      "duration": 0.0015,
      "velocity": 117,
      "chip": "ym2612"
    },
    {
      "channel": 3,
      "note": 66,
      "start": 3.4998,
      "duration": 0.0012,
      "velocity": 113,
      "chip": "ym2612"
    },
    {
      "channel": 4,
      "note": 59,
      "start": 3.5001,
      "duration": 0.0052,
      "velocity": 104,
      "chip": "ym2612"
    },
    {
      "channel": 0,
      "note": 54,
      "start": 3.503,
      "duration": 0.0005,
      "velocity": 117,
      "chip": "ym2612"
    },
    {
      "channel": 1,
      "note": 61,
      "start": 3.5031,
      "duration": 0.0006,
      "velocity": 113,
      "chip": "ym2612"
    },
    {
      "channel": 2,
      "note": 42,
      "start": 3.5032,
      "duration": 0.0008,
      "velocity": 117,
      "chip": "ym2612"
    },
    {
      "channel": 3,
      "note": 66,
      "start": 3.5033,
      "duration": 0.0008,
      "velocity": 113,
      "chip": "ym2612"
    },
    {
      "channel": 0,
      "note": 55,
      "start": 3.5065,
      "duration": 0.0034,
      "velocity": 117,
      "chip": "ym2612"
    },
    {
      "channel": 1,
      "note": 62,
      "start": 3.5066,
      "duration": 0.0035,
      "velocity": 113,
      "chip": "ym2612"
    },
    {
      "channel": 2,
      "note": 43,
      "start": 3.5071,
      "duration": 0.0033,
      "velocity": 117,
      "chip": "ym2612"
    },
    {
      "channel": 3,
      "note": 67,
      "start": 3.5074,
      "duration": 0.0031,
      "velocity": 113,
      "chip": "ym2612"
    },
    {
      "channel": 4,
      "note": 55,
      "start": 3.5076,
      "duration": 0.0068,
      "velocity": 104,
      "chip": "ym2612"
    },
    {
      "channel": 0,
      "note": 54,
      "start": 3.5113,
      "duration": 0.0019,
      "velocity": 117,
      "chip": "ym2612"
    },
    {
      "channel": 1,
      "note": 61,
      "start": 3.5115,
      "duration": 0.0018,
      "velocity": 113,
      "chip": "ym2612"
    },
    {
      "channel": 2,
      "note": 42,
      "start": 3.512,
      "duration": 0.0014,
      "velocity": 117,
      "chip": "ym2612"
    },
    {
      "channel": 3,
      "note": 66,
      "start": 3.5126,
      "duration": 0.001,
      "velocity": 113,
      "chip": "ym2612"
    },
    {
      "channel": 0,
      "note": 54,
      "start": 3.5155,
      "duration": 0.0076,
      "velocity": 117,
      "chip": "ym2612"
    },
    {
      "channel": 1,
      "note": 61,
      "start": 3.516,
      "duration": 0.0072,
      "velocity": 113,
      "chip": "ym2612"
    },
    {
      "channel": 2,
      "note": 42,
      "start": 3.5166,
      "duration": 0.0068,
      "velocity": 117,
      "chip": "ym2612"
    },
    {
      "channel": 3,
      "note": 66,
      "start": 3.5171,
      "duration": 0.0023,
      "velocity": 113,
      "chip": "ym2612"
    },
    {
      "channel": 4,
      "note": 54,
      "start": 3.5174,
      "duration": 0.0053,
      "velocity": 104,
      "chip": "ym2612"
    },
    {
      "channel": 3,
      "note": 66,
      "start": 3.521,
      "duration": 0.0005,
      "velocity": 113,
      "chip": "ym2612"
    },
    {
      "channel": 0,
      "note": 54,
      "start": 3.5337,
      "duration": 0.0163,
      "velocity": 117,
      "chip": "ym2612"
    },
    {
      "channel": 1,
      "note": 61,
      "start": 3.5341,
      "duration": 0.0161,
      "velocity": 113,
      "chip": "ym2612"
    },
    {
      "channel": 2,
      "note": 42,
      "start": 3.5344,
      "duration": 0.0159,
      "velocity": 117,
      "chip": "ym2612"
    },
    {
      "channel": 3,
      "note": 66,
      "start": 3.5346,
      "duration": 0.0158,
      "velocity": 113,
      "chip": "ym2612"
    },
    {
      "channel": 4,
      "note": 58,
      "start": 3.5349,
      "duration": 0.0489,
      "velocity": 104,
      "chip": "ym2612"
    },
    {
      "channel": 0,
      "note": 54,
      "start": 3.6335,
      "duration": 0.0012,
      "velocity": 117,
      "chip": "ym2612"
    },
    {
      "channel": 1,
      "note": 61,
      "start": 3.6336,
      "duration": 0.0012,
      "velocity": 113,
      "chip": "ym2612"
    },
    {
      "channel": 2,
      "note": 42,
      "start": 3.6338,
      "duration": 0.006,
      "velocity": 117,
      "chip": "ym2612"
    },
    {
      "channel": 3,
      "note": 66,
      "start": 3.634,
      "duration": 0.0011,
      "velocity": 113,
      "chip": "ym2612"
    },
    {
      "channel": 4,
      "note": 54,
      "start": 3.6342,
      "duration": 0.0019,
      "velocity": 104,
      "chip": "ym2612"
    },
    {
      "channel": 0,
      "note": 54,
      "start": 3.6382,
      "duration": 0.0013,
      "velocity": 117,
      "chip": "ym2612"
    },
    {
      "channel": 1,
      "note": 61,
      "start": 3.6384,
      "duration": 0.0012,
      "velocity": 113,
      "chip": "ym2612"
    },
    {
      "channel": 3,
      "note": 66,
      "start": 3.6388,
      "duration": 0.0011,
      "velocity": 113,
      "chip": "ym2612"
    },
    {
      "channel": 4,
      "note": 59,
      "start": 3.6389,
      "duration": 0.006,
      "velocity": 104,
      "chip": "ym2612"
    },
    {
      "channel": 0,
      "note": 54,
      "start": 3.642,
      "duration": 0.0022,
      "velocity": 117,
      "chip": "ym2612"
    },
    {
      "channel": 1,
      "note": 61,
      "start": 3.6423,
      "duration": 0.0021,
      "velocity": 113,
      "chip": "ym2612"
    },
    {
      "channel": 2,
      "note": 42,
      "start": 3.6426,
      "duration": 0.002,
      "velocity": 117,
      "chip": "ym2612"
    },
    {
      "channel": 3,
      "note": 66,
      "start": 3.6429,
      "duration": 0.0019,
      "velocity": 113,
      "chip": "ym2612"
    },
    {
      "channel": 0,
      "note": 54,
      "start": 3.6463,
      "duration": 0.0021,
      "velocity": 117,
      "chip": "ym2612"
    },
    {
      "channel": 1,
      "note": 61,
      "start": 3.6465,
      "duration": 0.002,
      "velocity": 113,
      "chip": "ym2612"
    },
    {
      "channel": 2,
      "note": 43,
      "start": 3.6471,
      "duration": 0.0034,
      "velocity": 117,
      "chip": "ym2612"
    },
    {
      "channel": 3,
      "note": 66,
      "start": 3.6475,
      "duration": 0.0012,
      "velocity": 113,
      "chip": "ym2612"
    },
    {
      "channel": 4,
      "note": 52,
      "start": 3.6478,
      "duration": 0.0022,
      "velocity": 104,
      "chip": "ym2612"
    },
    {
      "channel": 0,
      "note": 54,
      "start": 3.6513,
      "duration": 0.0007,
      "velocity": 117,
      "chip": "ym2612"
    },
    {
      "channel": 1,
      "note": 61,
      "start": 3.6515,
      "duration": 0.0007,
      "velocity": 113,
      "chip": "ym2612"
    },
    {
      "channel": 2,
      "note": 42,
      "start": 3.6516,
      "duration": 0.0021,
      "velocity": 117,
      "chip": "ym2612"
    },
    {
      "channel": 3,
      "note": 66,
      "start": 3.6517,
      "duration": 0.0007,
      "velocity": 113,
      "chip": "ym2612"
    },
    {
      "channel": 4,
      "note": 54,
      "start": 3.6518,
      "duration": 0.0627,
      "velocity": 104,
      "chip": "ym2612"
    },
    {
      "channel": 0,
      "note": 54,
      "start": 3.6644,
      "duration": 0.0663,
      "velocity": 117,
      "chip": "ym2612"
    },
    {
      "channel": 1,
      "note": 61,
      "start": 3.6647,
      "duration": 0.0661,
      "velocity": 113,
      "chip": "ym2612"
    },
    {
      "channel": 2,
      "note": 42,
      "start": 3.6651,
      "duration": 0.0659,
      "velocity": 117,
      "chip": "ym2612"
    },
    {
      "channel": 3,
      "note": 66,
      "start": 3.6655,
      "duration": 0.0656,
      "velocity": 113,
      "chip": "ym2612"
    },
    {
      "channel": 0,
      "note": 54,
      "start": 3.7644,
      "duration": 0.0019,
      "velocity": 117,
      "chip": "ym2612"
    },
    {
      "channel": 1,
      "note": 61,
      "start": 3.7647,
      "duration": 0.0017,
      "velocity": 113,
      "chip": "ym2612"
    },
    {
      "channel": 2,
      "note": 42,
      "start": 3.7651,
      "duration": 0.0015,
      "velocity": 117,
      "chip": "ym2612"
    },
    {
      "channel": 3,
      "note": 66,
      "start": 3.7655,
      "duration": 0.0012,
      "velocity": 113,
      "chip": "ym2612"
    },
    {
      "channel": 4,
      "note": 52,
      "start": 3.7657,
      "duration": 0.0021,
      "velocity": 104,
      "chip": "ym2612"
    },
    {
      "channel": 0,
      "note": 54,
      "start": 3.7691,
      "duration": 0.0007,
      "velocity": 117,
      "chip": "ym2612"
    },
    {
      "channel": 1,
      "note": 61,
      "start": 3.7692,
      "duration": 0.0007,
      "velocity": 113,
      "chip": "ym2612"
    },
    {
      "channel": 2,
      "note": 42,
      "start": 3.7693,
      "duration": 0.0008,
      "velocity": 117,
      "chip": "ym2612"
    },
    {
      "channel": 3,
      "note": 66,
      "start": 3.7695,
      "duration": 0.0008,
      "velocity": 113,
      "chip": "ym2612"
    },
    {
      "channel": 4,
      "note": 58,
      "start": 3.7696,
      "duration": 0.0164,
      "velocity": 104,
      "chip": "ym2612"
    },
    {
      "channel": 0,
      "note": 54,
      "start": 3.7826,
      "duration": 0.0037,
      "velocity": 117,
      "chip": "ym2612"
    },
    {
      "channel": 1,
      "note": 61,
      "start": 3.783,
      "duration": 0.0034,
      "velocity": 113,
      "chip": "ym2612"
    },
    {
      "channel": 2,
      "note": 42,
      "start": 3.7834,
      "duration": 0.0032,
      "velocity": 117,
      "chip": "ym2612"
    },
    {
      "channel": 3,
      "note": 66,
      "start": 3.7838,
      "duration": 0.003,
      "velocity": 113,
      "chip": "ym2612"
    },
    {
      "channel": 0,
      "note": 54,
      "start": 3.7877,
      "duration": 0.0022,
      "velocity": 117,
      "chip": "ym2612"
    },
    {
      "channel": 1,
      "note": 61,
      "start": 3.7882,
      "duration": 0.0018,
      "velocity": 113,
      "chip": "ym2612"
    },
    {
      "channel": 2,
      "note": 42,
      "start": 3.7887,
      "duration": 0.0016,
      "velocity": 117,
      "chip": "ym2612"
    },
    {
      "channel": 3,
      "note": 66,
      "start": 3.7891,
      "duration": 0.0013,
      "velocity": 113,
      "chip": "ym2612"
    },
    {
      "channel": 4,
      "note": 59,
      "start": 3.7894,
      "duration": 0.0055,
      "velocity": 104,
      "chip": "ym2612"
    },
    {
      "channel": 0,
      "note": 54,
      "start": 3.7926,
      "duration": 0.0005,
      "velocity": 117,
      "chip": "ym2612"
    },
    {
      "channel": 1,
      "note": 61,
      "start": 3.7926,
      "duration": 0.0006,
      "velocity": 113,
      "chip": "ym2612"
    },
    {
      "channel": 2,
      "note": 42,
      "start": 3.7927,
      "duration": 0.0008,
      "velocity": 117,
      "chip": "ym2612"
    },
    {
      "channel": 3,
      "note": 66,
      "start": 3.7928,
      "duration": 0.0008,
      "velocity": 113,
      "chip": "ym2612"
    },
    {
      "channel": 0,
      "note": 55,
      "start": 3.796,
      "duration": 0.0031,
      "velocity": 117,
      "chip": "ym2612"
    },
    {
      "channel": 1,
      "note": 62,
      "start": 3.7961,
      "duration": 0.0032,
      "velocity": 113,
      "chip": "ym2612"
    },
    {
      "channel": 2,
      "note": 43,
      "start": 3.7964,
      "duration": 0.003,
      "velocity": 117,
      "chip": "ym2612"
    },
    {
      "channel": 3,
      "note": 67,
      "start": 3.7968,
      "duration": 0.0032,
      "velocity": 113,
      "chip": "ym2612"
    },
    {
      "channel": 4,
      "note": 55,
      "start": 3.797,
      "duration": 0.0067,
      "velocity": 104,
      "chip": "ym2612"
    },
    {
      "channel": 0,
      "note": 54,
      "start": 3.8004,
      "duration": 0.0017,
      "velocity": 117,
      "chip": "ym2612"
    },
    {
      "channel": 1,
      "note": 61,
      "start": 3.8006,
      "duration": 0.0017,
      "velocity": 113,
      "chip": "ym2612"
    },
    {
      "channel": 2,
      "note": 42,
      "start": 3.8011,
      "duration": 0.0014,
      "velocity": 117,
      "chip": "ym2612"
    },
    {
      "channel": 3,
      "note": 66,
      "start": 3.8016,
      "duration": 0.001,
      "velocity": 113,
      "chip": "ym2612"
    },
    {
      "channel": 0,
      "note": 56,
      "start": 3.8051,
      "duration": 0.007,
      "velocity": 117,
      "chip": "ym2612"
    },
    {
      "channel": 1,
      "note": 63,
      "start": 3.8055,
      "duration": 0.0068,
      "velocity": 113,
      "chip": "ym2612"
    },
    {
      "channel": 2,
      "note": 44,
      "start": 3.8059,
      "duration": 0.0066,
      "velocity": 117,
      "chip": "ym2612"
    },
    {
      "channel": 3,
      "note": 69,
      "start": 3.8063,
      "duration": 0.0053,
      "velocity": 113,
      "chip": "ym2612"
    },
    {
      "channel": 4,
      "note": 56,
      "start": 3.8066,
      "duration": 0.0053,
      "velocity": 104,
      "chip": "ym2612"
    },
    {
      "channel": 0,
      "note": 56,
      "start": 3.822,
      "duration": 0.0163,
      "velocity": 117,
      "chip": "ym2612"
    },
    {
      "channel": 1,
      "note": 63,
      "start": 3.8224,
      "duration": 0.0161,
      "velocity": 113,
      "chip": "ym2612"
    },
    {
      "channel": 2,
      "note": 44,
      "start": 3.8227,
      "duration": 0.0159,
      "velocity": 117,
      "chip": "ym2612"
    },
    {
      "channel": 3,
      "note": 68,
      "start": 3.8232,
      "duration": 0.0155,
      "velocity": 113,
      "chip": "ym2612"
    },
    {
      "channel": 4,
      "note": 60,
      "start": 3.8235,
      "duration": 0.0485,
      "velocity": 104,
      "chip": "ym2612"
    },
    {
      "channel": 0,
      "note": 56,
      "start": 3.9218,
      "duration": 0.0012,
      "velocity": 117,
      "chip": "ym2612"
    },
    {
      "channel": 1,
      "note": 63,
      "start": 3.9219,
      "duration": 0.0012,
      "velocity": 113,
      "chip": "ym2612"
    },
    {
      "channel": 2,
      "note": 44,
      "start": 3.9221,
      "duration": 0.0061,
      "velocity": 117,
      "chip": "ym2612"
    },
    {
      "channel": 3,
      "note": 68,
      "start": 3.9223,
      "duration": 0.0011,
      "velocity": 113,
      "chip": "ym2612"
    },
    {
      "channel": 4,
      "note": 56,
      "start": 3.9225,
      "duration": 0.0019,
      "velocity": 104,
      "chip": "ym2612"
    },
    {
      "channel": 0,
      "note": 56,
      "start": 3.9265,
      "duration": 0.0013,
      "velocity": 117,
      "chip": "ym2612"
    },
    {
      "channel": 1,
      "note": 63,
      "start": 3.9268,
      "duration": 0.0012,
      "velocity": 113,
      "chip": "ym2612"
    },
    {
      "channel": 3,
      "note": 68,
      "start": 3.9271,
      "duration": 0.0012,
      "velocity": 113,
      "chip": "ym2612"
    },
    {
      "channel": 4,
      "note": 61,
      "start": 3.9273,
      "duration": 0.0061,
      "velocity": 104,
      "chip": "ym2612"
    },
    {
      "channel": 0,
      "note": 56,
      "start": 3.9307,
      "duration": 0.0016,
      "velocity": 117,
      "chip": "ym2612"
    },
    {
      "channel": 1,
      "note": 63,
      "start": 3.931,
      "duration": 0.0015,
      "velocity": 113,
      "chip": "ym2612"
    },
    {
      "channel": 2,
      "note": 44,
      "start": 3.9313,
      "duration": 0.0013,
      "velocity": 117,
      "chip": "ym2612"
    },
    {
      "channel": 3,
      "note": 68,
      "start": 3.9316,
      "duration": 0.0012,
      "velocity": 113,
      "chip": "ym2612"
    },
    {
      "channel": 0,
      "note": 56,
      "start": 3.9347,
      "duration": 0.0022,
      "velocity": 117,
      "chip": "ym2612"
    },
    {
      "channel": 1,
      "note": 63,
      "start": 3.935,
      "duration": 0.0021,
      "velocity": 113,
      "chip": "ym2612"
    },
    {
      "channel": 2,
      "note": 45,
      "start": 3.9356,
      "duration": 0.0032,
      "velocity": 117,
      "chip": "ym2612"
    },
    {
      "channel": 3,
      "note": 68,
      "start": 3.9361,
      "duration": 0.0012,
      "velocity": 113,
      "chip": "ym2612"
    },
    {
      "channel": 4,
      "note": 54,
      "start": 3.9364,
      "duration": 0.0019,
      "velocity": 104,
      "chip": "ym2612"
    },
    {
      "channel": 0,
      "note": 56,
      "start": 3.9396,
      "duration": 0.0005,
      "velocity": 117,
      "chip": "ym2612"
    },
    {
      "channel": 1,
      "note": 63,
      "start": 3.9397,
      "duration": 0.0006,
      "velocity": 113,
      "chip": "ym2612"
    },
    {
      "channel": 2,
      "note": 44,
      "start": 3.9398,
      "duration": 0.002,
      "velocity": 117,
      "chip": "ym2612"
    },
    {
      "channel": 3,
      "note": 68,
      "start": 3.9398,
      "duration": 0.0007,
      "velocity": 113,
      "chip": "ym2612"
    },
    {
      "channel": 4,
      "note": 56,
      "start": 3.94,
      "duration": 0.0628,
      "velocity": 104,
      "chip": "ym2612"
    },
    {
      "channel": 0,
      "note": 56,
      "start": 3.9523,
      "duration": 0.0497,
      "velocity": 117,
      "chip": "ym2612"
    },
    {
      "channel": 1,
      "note": 63,
      "start": 3.9527,
      "duration": 0.0495,
      "velocity": 113,
      "chip": "ym2612"
    },
    {
      "channel": 2,
      "note": 44,
      "start": 3.9531,
      "duration": 0.0493,
      "velocity": 117,
      "chip": "ym2612"
    },
    {
      "channel": 3,
      "note": 68,
      "start": 3.9535,
      "duration": 0.049,
      "velocity": 113,
      "chip": "ym2612"
    },
    {
      "channel": 0,
      "note": 56,
      "start": 4.0523,
      "duration": 0.0019,
      "velocity": 117,
      "chip": "ym2612"
    },
    {
      "channel": 1,
      "note": 63,
      "start": 4.0527,
      "duration": 0.0017,
      "velocity": 113,
      "chip": "ym2612"
    },
    {
      "channel": 2,
      "note": 44,
      "start": 4.0531,
      "duration": 0.0015,
      "velocity": 117,
      "chip": "ym2612"
    },
    {
      "channel": 3,
      "note": 68,
      "start": 4.0535,
      "duration": 0.0012,
      "velocity": 113,
      "chip": "ym2612"
    },
    {
      "channel": 4,
      "note": 54,
      "start": 4.0537,
      "duration": 0.0021,
      "velocity": 104,
      "chip": "ym2612"
    },
    {
      "channel": 0,
      "note": 56,
      "start": 4.0569,
      "duration": 0.0007,
      "velocity": 117,
      "chip": "ym2612"
    },
    {
      "channel": 1,
      "note": 63,
      "start": 4.0571,
      "duration": 0.0007,
      "velocity": 113,
      "chip": "ym2612"
    },
    {
      "channel": 2,
      "note": 44,
      "start": 4.0571,
      "duration": 0.0008,
      "velocity": 117,
      "chip": "ym2612"
    },
    {
      "channel": 3,
      "note": 68,
      "start": 4.0573,
      "duration": 0.0008,
      "velocity": 113,
      "chip": "ym2612"
    },
    {
      "channel": 4,
      "note": 60,
      "start": 4.0574,
      "duration": 0.0169,
      "velocity": 104,
      "chip": "ym2612"
    },
    {
      "channel": 0,
      "note": 56,
      "start": 4.0709,
      "duration": 0.0028,
      "velocity": 117,
      "chip": "ym2612"
    },
    {
      "channel": 1,
      "note": 63,
      "start": 4.0713,
      "duration": 0.0026,
      "velocity": 113,
      "chip": "ym2612"
    },
    {
      "channel": 2,
      "note": 44,
      "start": 4.0716,
      "duration": 0.0024,
      "velocity": 117,
      "chip": "ym2612"
    },
    {
      "channel": 3,
      "note": 68,
      "start": 4.072,
      "duration": 0.0021,
      "velocity": 113,
      "chip": "ym2612"
    },
    {
      "channel": 0,
      "note": 56,
      "start": 4.0756,
      "duration": 0.0023,
      "velocity": 117,
      "chip": "ym2612"
    },
    {
      "channel": 1,
      "note": 63,
      "start": 4.0761,
      "duration": 0.0019,
      "velocity": 113,
      "chip": "ym2612"
    },
    {
      "channel": 2,
      "note": 44,
      "start": 4.0767,
      "duration": 0.0015,
      "velocity": 117,
      "chip": "ym2612"
    },
    {
      "channel": 3,
      "note": 68,
      "start": 4.0772,
      "duration": 0.0012,
      "velocity": 113,
      "chip": "ym2612"
    },
    {
      "channel": 4,
      "note": 61,
      "start": 4.0774,
      "duration": 0.005,
      "velocity": 104,
      "chip": "ym2612"
    },
    {
      "channel": 0,
      "note": 56,
      "start": 4.0803,
      "duration": 0.0005,
      "velocity": 117,
      "chip": "ym2612"
    },
    {
      "channel": 1,
      "note": 63,
      "start": 4.0803,
      "duration": 0.0006,
      "velocity": 113,
      "chip": "ym2612"
    },
    {
      "channel": 2,
      "note": 44,
      "start": 4.0804,
      "duration": 0.0007,
      "velocity": 117,
      "chip": "ym2612"
    },
    {
      "channel": 3,
      "note": 68,
      "start": 4.0806,
      "duration": 0.0008,
      "velocity": 113,
      "chip": "ym2612"
    },
    {
      "channel": 0,
      "note": 57,
      "start": 4.0838,
      "duration": 0.0034,
      "velocity": 117,
      "chip": "ym2612"
    },
    {
      "channel": 1,
      "note": 64,
      "start": 4.0841,
      "duration": 0.0033,
      "velocity": 113,
      "chip": "ym2612"
    },
    {
      "channel": 2,
      "note": 45,
      "start": 4.0844,
      "duration": 0.0031,
      "velocity": 117,
      "chip": "ym2612"
    },
    {
      "channel": 3,
      "note": 69,
      "start": 4.0847,
      "duration": 0.0029,
      "velocity": 113,
      "chip": "ym2612"
    },
    {
      "channel": 4,
      "note": 57,
      "start": 4.0849,
      "duration": 0.0062,
      "velocity": 104,
      "chip": "ym2612"
    },
    {
      "channel": 0,
      "note": 56,
      "start": 4.0886,
      "duration": 0.0013,
      "velocity": 117,
      "chip": "ym2612"
    },
    {
      "channel": 1,
      "note": 63,
      "start": 4.0888,
      "duration": 0.0012,
      "velocity": 113,
      "chip": "ym2612"
    },
    {
      "channel": 2,
      "note": 44,
      "start": 4.089,
      "duration": 0.0026,
      "velocity": 117,
      "chip": "ym2612"
    },
    {
      "channel": 3,
      "note": 68,
      "start": 4.0893,
      "duration": 0.0009,
      "velocity": 113,
      "chip": "ym2612"
    },
    {
      "channel": 0,
      "note": 56,
      "start": 4.0927,
      "duration": 0.007,
      "velocity": 117,
      "chip": "ym2612"
    },
    {
      "channel": 1,
      "note": 63,
      "start": 4.0932,
      "duration": 0.0066,
      "velocity": 113,
      "chip": "ym2612"
    },
    {
      "channel": 2,
      "note": 44,
      "start": 4.0935,
      "duration": 0.0064,
      "velocity": 117,
      "chip": "ym2612"
    },
    {
      "channel": 3,
      "note": 68,
      "start": 4.0941,
      "duration": 0.0026,
      "velocity": 113,
      "chip": "ym2612"
    },
    {
      "channel": 4,
      "note": 56,
      "start": 4.0944,
      "duration": 0.0048,
      "velocity": 104,
      "chip": "ym2612"
    },
    {
      "channel": 3,
      "note": 68,
      "start": 4.0977,
      "duration": 0.0004,
      "velocity": 113,
      "chip": "ym2612"
    },
    {
      "channel": 0,
      "note": 56,
      "start": 4.1107,
      "duration": 0.0163,
      "velocity": 117,
      "chip": "ym2612"
    },
    {
      "channel": 1,
      "note": 63,
      "start": 4.111,
      "duration": 0.0161,
      "velocity": 113,
      "chip": "ym2612"
    },
    {
      "channel": 2,
      "note": 44,
      "start": 4.1114,
      "duration": 0.0159,
      "velocity": 117,
      "chip": "ym2612"
    },
    {
      "channel": 3,
      "note": 68,
      "start": 4.1116,
      "duration": 0.0158,
      "velocity": 113,
      "chip": "ym2612"
    },
    {
      "channel": 4,
      "note": 60,
      "start": 4.1119,
      "duration": 0.0489,
      "velocity": 104,
      "chip": "ym2612"
    },
    {
      "channel": 0,
      "note": 56,
      "start": 4.2105,
      "duration": 0.0012,
      "velocity": 117,
      "chip": "ym2612"
    },
    {
      "channel": 1,
      "note": 63,
      "start": 4.2106,
      "duration": 0.0012,
      "velocity": 113,
      "chip": "ym2612"
    },
    {
      "channel": 2,
      "note": 44,
      "start": 4.2108,
      "duration": 0.0059,
      "velocity": 117,
      "chip": "ym2612"
    },
    {
      "channel": 3,
      "note": 68,
      "start": 4.211,
      "duration": 0.0011,
      "velocity": 113,
      "chip": "ym2612"
    },
    {
      "channel": 4,
      "note": 56,
      "start": 4.2112,
      "duration": 0.0019,
      "velocity": 104,
      "chip": "ym2612"
    },
    {
      "channel": 0,
      "note": 56,
      "start": 4.215,
      "duration": 0.0012,
      "velocity": 117,
      "chip": "ym2612"
    },
    {
      "channel": 1,
      "note": 63,
      "start": 4.2152,
      "duration": 0.0012,
      "velocity": 113,
      "chip": "ym2612"
    },
    {
      "channel": 3,
      "note": 68,
      "start": 4.2156,
      "duration": 0.0012,
      "velocity": 113,
      "chip": "ym2612"
    },
    {
      "channel": 4,
      "note": 61,
      "start": 4.2158,
      "duration": 0.0063,
      "velocity": 104,
      "chip": "ym2612"
    },
    {
      "channel": 0,
      "note": 56,
      "start": 4.2192,
      "duration": 0.0018,
      "velocity": 117,
      "chip": "ym2612"
    },
    {
      "channel": 1,
      "note": 63,
      "start": 4.2194,
      "duration": 0.0017,
      "velocity": 113,
      "chip": "ym2612"
    },
    {
      "channel": 2,
      "note": 44,
      "start": 4.2198,
      "duration": 0.0016,
      "velocity": 117,
      "chip": "ym2612"
    },
    {
      "channel": 3,
      "note": 68,
      "start": 4.2201,
      "duration": 0.0015,
      "velocity": 113,
      "chip": "ym2612"
    },
    {
      "channel": 0,
      "note": 56,
      "start": 4.2234,
      "duration": 0.0022,
      "velocity": 117,
      "chip": "ym2612"
    },
    {
      "channel": 1,
      "note": 63,
      "start": 4.2237,
      "duration": 0.0021,
      "velocity": 113,
      "chip": "ym2612"
    },
    {
      "channel": 2,
      "note": 45,
      "start": 4.2242,
      "duration": 0.0034,
      "velocity": 117,
      "chip": "ym2612"
    },
    {
      "channel": 3,
      "note": 68,
      "start": 4.2247,
      "duration": 0.0012,
      "velocity": 113,
      "chip": "ym2612"
    },
    {
      "channel": 4,
      "note": 54,
      "start": 4.2249,
      "duration": 0.0022,
      "velocity": 104,
      "chip": "ym2612"
    },
    {
      "channel": 0,
      "note": 56,
      "start": 4.2284,
      "duration": 0.0007,
      "velocity": 117,
      "chip": "ym2612"
    },
    {
      "channel": 1,
      "note": 63,
      "start": 4.2284,
      "duration": 0.0008,
      "velocity": 113,
      "chip": "ym2612"
    },
    {
      "channel": 2,
      "note": 44,
      "start": 4.2286,
      "duration": 0.0022,
      "velocity": 117,
      "chip": "ym2612"
    },
    {
      "channel": 3,
      "note": 68,
      "start": 4.2287,
      "duration": 0.0007,
      "velocity": 113,
      "chip": "ym2612"
    },
    {
      "channel": 4,
      "note": 56,
      "start": 4.2289,
      "duration": 0.0629,
      "velocity": 104,
      "chip": "ym2612"
    },
    {
      "channel": 0,
      "note": 56,
      "start": 4.2414,
      "duration": 0.0497,
      "velocity": 117,
      "chip": "ym2612"
    },
    {
      "channel": 1,
      "note": 63,
      "start": 4.2418,
      "duration": 0.0495,
      "velocity": 113,
      "chip": "ym2612"
    },
    {
      "channel": 2,
      "note": 44,
      "start": 4.2422,
      "duration": 0.0493,
      "velocity": 117,
      "chip": "ym2612"
    },
    {
      "channel": 3,
      "note": 68,
      "start": 4.2426,
      "duration": 0.049,
      "velocity": 113,
      "chip": "ym2612"
    },
    {
      "channel": 0,
      "note": 56,
      "start": 4.3414,
      "duration": 0.0019,
      "velocity": 117,
      "chip": "ym2612"
    },
    {
      "channel": 1,
      "note": 63,
      "start": 4.3418,
      "duration": 0.0017,
      "velocity": 113,
      "chip": "ym2612"
    },
    {
      "channel": 2,
      "note": 44,
      "start": 4.3422,
      "duration": 0.0015,
      "velocity": 117,
      "chip": "ym2612"
    },
    {
      "channel": 3,
      "note": 68,
      "start": 4.3426,
      "duration": 0.0012,
      "velocity": 113,
      "chip": "ym2612"
    },
    {
      "channel": 4,
      "note": 54,
      "start": 4.3428,
      "duration": 0.0021,
      "velocity": 104,
      "chip": "ym2612"
    },
    {
      "channel": 0,
      "note": 56,
      "start": 4.3461,
      "duration": 0.0006,
      "velocity": 117,
      "chip": "ym2612"
    },
    {
      "channel": 1,
      "note": 63,
      "start": 4.3462,
      "duration": 0.0007,
      "velocity": 113,
      "chip": "ym2612"
    },
    {
      "channel": 2,
      "note": 44,
      "start": 4.3463,
      "duration": 0.0007,
      "velocity": 117,
      "chip": "ym2612"
    },
    {
      "channel": 3,
      "note": 68,
      "start": 4.3464,
      "duration": 0.0008,
      "velocity": 113,
      "chip": "ym2612"
    },
    {
      "channel": 4,
      "note": 60,
      "start": 4.3466,
      "duration": 0.0165,
      "velocity": 104,
      "chip": "ym2612"
    },
    {
      "channel": 0,
      "note": 56,
      "start": 4.3597,
      "duration": 0.0028,
      "velocity": 117,
      "chip": "ym2612"
    },
    {
      "channel": 1,
      "note": 63,
      "start": 4.36,
      "duration": 0.0025,
      "velocity": 113,
      "chip": "ym2612"
    },
    {
      "channel": 2,
      "note": 44,
      "start": 4.3604,
      "duration": 0.0023,
      "velocity": 117,
      "chip": "ym2612"
    },
    {
      "channel": 3,
      "note": 68,
      "start": 4.3608,
      "duration": 0.002,
      "velocity": 113,
      "chip": "ym2612"
    },
    {
      "channel": 0,
      "note": 56,
      "start": 4.3644,
      "duration": 0.0023,
      "velocity": 117,
      "chip": "ym2612"
    },
    {
      "channel": 1,
      "note": 63,
      "start": 4.3649,
      "duration": 0.002,
      "velocity": 113,
      "chip": "ym2612"
    },
    {
      "channel": 2,
      "note": 44,
      "start": 4.3655,
      "duration": 0.0016,
      "velocity": 117,
      "chip": "ym2612"
    },
    {
      "channel": 3,
      "note": 68,
      "start": 4.366,
      "duration": 0.0012,
      "velocity": 113,
      "chip": "ym2612"
    },
    {
      "channel": 4,
      "note": 61,
      "start": 4.3662,
      "duration": 0.0052,
      "velocity": 104,
      "chip": "ym2612"
    },
    {
      "channel": 0,
      "note": 56,
      "start": 4.3692,
      "duration": 0.0005,
      "velocity": 117,
      "chip": "ym2612"
    },
    {
      "channel": 1,
      "note": 63,
      "start": 4.3693,
      "duration": 0.0006,
      "velocity": 113,
      "chip": "ym2612"
    },
    {
      "channel": 2,
      "note": 44,
      "start": 4.3693,
      "duration": 0.0008,
      "velocity": 117,
      "chip": "ym2612"
    },
    {
      "channel": 3,
      "note": 68,
      "start": 4.3695,
      "duration": 0.0008,
      "velocity": 113,
      "chip": "ym2612"
    },
    {
      "channel": 0,
      "note": 57,
      "start": 4.3728,
      "duration": 0.0033,
      "velocity": 117,
      "chip": "ym2612"
    },
    {
      "channel": 1,
      "note": 64,
      "start": 4.3732,
      "duration": 0.0031,
      "velocity": 113,
      "chip": "ym2612"
    },
    {
      "channel": 2,
      "note": 45,
      "start": 4.3735,
      "duration": 0.0031,
      "velocity": 117,
      "chip": "ym2612"
    },
    {
      "channel": 3,
      "note": 69,
      "start": 4.3739,
      "duration": 0.0033,
      "velocity": 113,
      "chip": "ym2612"
    },
    {
      "channel": 4,
      "note": 57,
      "start": 4.3742,
      "duration": 0.0067,
      "velocity": 104,
      "chip": "ym2612"
    },
    {
      "channel": 0,
      "note": 56,
      "start": 4.378,
      "duration": 0.0014,
      "velocity": 117,
      "chip": "ym2612"
    },
    {
      "channel": 1,
      "note": 63,
      "start": 4.3784,
      "duration": 0.0012,
      "velocity": 113,
      "chip": "ym2612"
    },
    {
      "channel": 2,
      "note": 44,
      "start": 4.3785,
      "duration": 0.0028,
      "velocity": 117,
      "chip": "ym2612"
    },
    {
      "channel": 3,
      "note": 68,
      "start": 4.3788,
      "duration": 0.001,
      "velocity": 113,
      "chip": "ym2612"
    },
    {
      "channel": 0,
      "note": 56,
      "start": 4.3824,
      "duration": 0.0075,
      "velocity": 117,
      "chip": "ym2612"
    },
    {
      "channel": 1,
      "note": 63,
      "start": 4.3828,
      "duration": 0.0073,
      "velocity": 113,
      "chip": "ym2612"
    },
    {
      "channel": 2,
      "note": 44,
      "start": 4.383,
      "duration": 0.0072,
      "velocity": 117,
      "chip": "ym2612"
    },
    {
      "channel": 3,
      "note": 69,
      "start": 4.3837,
      "duration": 0.0057,
      "velocity": 113,
      "chip": "ym2612"
    },
    {
      "channel": 4,
      "note": 56,
      "start": 4.384,
      "duration": 0.0056,
      "velocity": 104,
      "chip": "ym2612"
    },
    {
      "channel": 0,
      "note": 56,
      "start": 4.4007,
      "duration": 0.0163,
      "velocity": 117,
      "chip": "ym2612"
    },
    {
      "channel": 1,
      "note": 63,
      "start": 4.4011,
      "duration": 0.0161,
      "velocity": 113,
      "chip": "ym2612"
    },
    {
      "channel": 2,
      "note": 44,
      "start": 4.4015,
      "duration": 0.0159,
      "velocity": 117,
      "chip": "ym2612"
    },
    {
      "channel": 3,
      "note": 68,
      "start": 4.402,
      "duration": 0.0155,
      "velocity": 113,
      "chip": "ym2612"
    },
    {
      "channel": 4,
      "note": 60,
      "start": 4.4023,
      "duration": 0.0485,
      "velocity": 104,
      "chip": "ym2612"
    },
    {
      "channel": 0,
      "note": 56,
      "start": 4.5005,
      "duration": 0.0012,
      "velocity": 117,
      "chip": "ym2612"
    },
    {
      "channel": 1,
      "note": 63,
      "start": 4.5007,
      "duration": 0.0012,
      "velocity": 113,
      "chip": "ym2612"
    },
    {
      "channel": 2,
      "note": 44,
      "start": 4.5009,
      "duration": 0.0061,
      "velocity": 117,
      "chip": "ym2612"
    },
    {
      "channel": 3,
      "note": 68,
      "start": 4.5011,
      "duration": 0.0011,
      "velocity": 113,
      "chip": "ym2612"
    },
    {
      "channel": 4,
      "note": 56,
      "start": 4.5012,
      "duration": 0.0019,
      "velocity": 104,
      "chip": "ym2612"
    },
    {
      "channel": 0,
      "note": 56,
      "start": 4.5054,
      "duration": 0.0013,
      "velocity": 117,
      "chip": "ym2612"
    },
    {
      "channel": 1,
      "note": 63,
      "start": 4.5056,
      "duration": 0.0012,
      "velocity": 113,
      "chip": "ym2612"
    },
    {
      "channel": 3,
      "note": 68,
      "start": 4.5059,
      "duration": 0.0012,
      "velocity": 113,
      "chip": "ym2612"
    },
    {
      "channel": 4,
      "note": 61,
      "start": 4.5062,
      "duration": 0.0058,
      "velocity": 104,
      "chip": "ym2612"
    },
    {
      "channel": 0,
      "note": 56,
      "start": 4.5094,
      "duration": 0.0015,
      "velocity": 117,
      "chip": "ym2612"
    },
    {
      "channel": 1,
      "note": 63,
      "start": 4.5097,
      "duration": 0.0014,
      "velocity": 113,
      "chip": "ym2612"
    },
    {
      "channel": 2,
      "note": 44,
      "start": 4.51,
      "duration": 0.0013,
      "velocity": 117,
      "chip": "ym2612"
    },
    {
      "channel": 3,
      "note": 68,
      "start": 4.5102,
      "duration": 0.0012,
      "velocity": 113,
      "chip": "ym2612"
    },
    {
      "channel": 0,
      "note": 56,
      "start": 4.5133,
      "duration": 0.0022,
      "velocity": 117,
      "chip": "ym2612"
    },
    {
      "channel": 1,
      "note": 63,
      "start": 4.5136,
      "duration": 0.0021,
      "velocity": 113,
      "chip": "ym2612"
    },
    {
      "channel": 2,
      "note": 45,
      "start": 4.5141,
      "duration": 0.0034,
      "velocity": 117,
      "chip": "ym2612"
    },
    {
      "channel": 3,
      "note": 68,
      "start": 4.5146,
      "duration": 0.0012,
      "velocity": 113,
      "chip": "ym2612"
    },
    {
      "channel": 4,
      "note": 54,
      "start": 4.5149,
      "duration": 0.0022,
      "velocity": 104,
      "chip": "ym2612"
    },
    {
      "channel": 0,
      "note": 56,
      "start": 4.5184,
      "duration": 0.0008,
      "velocity": 117,
      "chip": "ym2612"
    },
    {
      "channel": 1,
      "note": 63,
      "start": 4.5185,
      "duration": 0.0009,
      "velocity": 113,
      "chip": "ym2612"
    },
    {
      "channel": 2,
      "note": 44,
      "start": 4.5187,
      "duration": 0.0023,
      "velocity": 117,
      "chip": "ym2612"
    },
    {
      "channel": 3,
      "note": 68,
      "start": 4.5188,
      "duration": 0.0008,
      "velocity": 113,
      "chip": "ym2612"
    },
    {
      "channel": 4,
      "note": 56,
      "start": 4.519,
      "duration": 0.0631,
      "velocity": 104,
      "chip": "ym2612"
    },
    {
      "channel": 0,
      "note": 56,
      "start": 4.5316,
      "duration": 0.0497,
      "velocity": 117,
      "chip": "ym2612"
    },
    {
      "channel": 1,
      "note": 63,
      "start": 4.532,
      "duration": 0.0495,
      "velocity": 113,
      "chip": "ym2612"
    },
    {
      "channel": 2,
      "note": 44,
      "start": 4.5324,
      "duration": 0.0493,
      "velocity": 117,
      "chip": "ym2612"
    },
    {
      "channel": 3,
      "note": 68,
      "start": 4.5328,
      "duration": 0.049,
      "velocity": 113,
      "chip": "ym2612"
    },
    {
      "channel": 0,
      "note": 56,
      "start": 4.6316,
      "duration": 0.0019,
      "velocity": 117,
      "chip": "ym2612"
    },
    {
      "channel": 1,
      "note": 63,
      "start": 4.632,
      "duration": 0.0017,
      "velocity": 113,
      "chip": "ym2612"
    },
    {
      "channel": 2,
      "note": 44,
      "start": 4.6324,
      "duration": 0.0015,
      "velocity": 117,
      "chip": "ym2612"
    },
    {
      "channel": 3,
      "note": 68,
      "start": 4.6328,
      "duration": 0.0012,
      "velocity": 113,
      "chip": "ym2612"
    },
    {
      "channel": 4,
      "note": 54,
      "start": 4.633,
      "duration": 0.0022,
      "velocity": 104,
      "chip": "ym2612"
    },
    {
      "channel": 0,
      "note": 56,
      "start": 4.6365,
      "duration": 0.0006,
      "velocity": 117,
      "chip": "ym2612"
    },
    {
      "channel": 1,
      "note": 63,
      "start": 4.6365,
      "duration": 0.0007,
      "velocity": 113,
      "chip": "ym2612"
    },
    {
      "channel": 2,
      "note": 44,
      "start": 4.6367,
      "duration": 0.0007,
      "velocity": 117,
      "chip": "ym2612"
    },
    {
      "channel": 3,
      "note": 68,
      "start": 4.6367,
      "duration": 0.0007,
      "velocity": 113,
      "chip": "ym2612"
    },
    {
      "channel": 4,
      "note": 60,
      "start": 4.6369,
      "duration": 0.0164,
      "velocity": 104,
      "chip": "ym2612"
    },
    {
      "channel": 0,
      "note": 56,
      "start": 4.6499,
      "duration": 0.0028,
      "velocity": 117,
      "chip": "ym2612"
    },
    {
      "channel": 1,
      "note": 63,
      "start": 4.6502,
      "duration": 0.0026,
      "velocity": 113,
      "chip": "ym2612"
    },
    {
      "channel": 2,
      "note": 44,
      "start": 4.6506,
      "duration": 0.0024,
      "velocity": 117,
      "chip": "ym2612"
    },
    {
      "channel": 3,
      "note": 68,
      "start": 4.651,
      "duration": 0.0021,
      "velocity": 113,
      "chip": "ym2612"
    },
    {
      "channel": 0,
      "note": 56,
      "start": 4.6546,
      "duration": 0.0023,
      "velocity": 117,
      "chip": "ym2612"
    },
    {
      "channel": 1,
      "note": 63,
      "start": 4.6551,
      "duration": 0.0019,
      "velocity": 113,
      "chip": "ym2612"
    },
    {
      "channel": 2,
      "note": 44,
      "start": 4.6556,
      "duration": 0.0015,
      "velocity": 117,
      "chip": "ym2612"
    },
    {
      "channel": 3,
      "note": 68,
      "start": 4.6562,
      "duration": 0.0012,
      "velocity": 113,
      "chip": "ym2612"
    },
    {
      "channel": 4,
      "note": 61,
      "start": 4.6564,
      "duration": 0.005,
      "velocity": 104,
      "chip": "ym2612"
    },
    {
      "channel": 0,
      "note": 56,
      "start": 4.6593,
      "duration": 0.0005,
      "velocity": 117,
      "chip": "ym2612"
    },
    {
      "channel": 1,
      "note": 63,
      "start": 4.6593,
      "duration": 0.0006,
      "velocity": 113,
      "chip": "ym2612"
    },
    {
      "channel": 2,
      "note": 44,
      "start": 4.6594,
      "duration": 0.0007,
      "velocity": 117,
      "chip": "ym2612"
    },
    {
      "channel": 3,
      "note": 68,
      "start": 4.6595,
      "duration": 0.0008,
      "velocity": 113,
      "chip": "ym2612"
    },
    {
      "channel": 0,
      "note": 57,
      "start": 4.6627,
      "duration": 0.0034,
      "velocity": 117,
      "chip": "ym2612"
    },
    {
      "channel": 1,
      "note": 64,
      "start": 4.663,
      "duration": 0.0033,
      "velocity": 113,
      "chip": "ym2612"
    },
    {
      "channel": 2,
      "note": 45,
      "start": 4.6633,
      "duration": 0.0031,
      "velocity": 117,
      "chip": "ym2612"
    },
    {
      "channel": 3,
      "note": 69,
      "start": 4.6637,
      "duration": 0.0029,
      "velocity": 113,
      "chip": "ym2612"
    },
    {
      "channel": 4,
      "note": 57,
      "start": 4.6639,
      "duration": 0.0062,
      "velocity": 104,
      "chip": "ym2612"
    },
    {
      "channel": 0,
      "note": 56,
      "start": 4.6676,
      "duration": 0.0013,
      "velocity": 117,
      "chip": "ym2612"
    },
    {
      "channel": 1,
      "note": 63,
      "start": 4.6678,
      "duration": 0.0012,
      "velocity": 113,
      "chip": "ym2612"
    },
    {
      "channel": 2,
      "note": 44,
      "start": 4.668,
      "duration": 0.0026,
      "velocity": 117,
      "chip": "ym2612"
    },
    {
      "channel": 3,
      "note": 68,
      "start": 4.6683,
      "duration": 0.0009,
      "velocity": 113,
      "chip": "ym2612"
    },
    {
      "channel": 0,
      "note": 56,
      "start": 4.6715,
      "duration": 0.0071,
      "velocity": 117,
      "chip": "ym2612"
    },
    {
      "channel": 1,
      "note": 63,
      "start": 4.672,
      "duration": 0.0068,
      "velocity": 113,
      "chip": "ym2612"
    },
    {
      "channel": 2,
      "note": 44,
      "start": 4.6723,
      "duration": 0.0066,
      "velocity": 117,
      "chip": "ym2612"
    },
    {
      "channel": 3,
      "note": 68,
      "start": 4.6728,
      "duration": 0.0029,
      "velocity": 113,
      "chip": "ym2612"
    },
    {
      "channel": 4,
      "note": 56,
      "start": 4.6731,
      "duration": 0.0052,
      "velocity": 104,
      "chip": "ym2612"
    },
    {
      "channel": 3,
      "note": 68,
      "start": 4.6768,
      "duration": 0.0003,
      "velocity": 113,
      "chip": "ym2612"
    },
    {
      "channel": 0,
      "note": 56,
      "start": 4.6897,
      "duration": 0.0163,
      "velocity": 117,
      "chip": "ym2612"
    },
    {
      "channel": 1,
      "note": 63,
      "start": 4.6901,
      "duration": 0.0161,
      "velocity": 113,
      "chip": "ym2612"
    },
    {
      "channel": 2,
      "note": 44,
      "start": 4.6905,
      "duration": 0.0159,
      "velocity": 117,
      "chip": "ym2612"
    },
    {
      "channel": 3,
      "note": 68,
      "start": 4.6907,
      "duration": 0.0158,
      "velocity": 113,
      "chip": "ym2612"
    },
    {
      "channel": 4,
      "note": 60,
      "start": 4.6909,
      "duration": 0.0489,
      "velocity": 104,
      "chip": "ym2612"
    },
    {
      "channel": 0,
      "note": 56,
      "start": 4.7895,
      "duration": 0.0012,
      "velocity": 117,
      "chip": "ym2612"
    },
    {
      "channel": 1,
      "note": 63,
      "start": 4.7897,
      "duration": 0.0012,
      "velocity": 113,
      "chip": "ym2612"
    },
    {
      "channel": 2,
      "note": 44,
      "start": 4.7898,
      "duration": 0.0061,
      "velocity": 117,
      "chip": "ym2612"
    },
    {
      "channel": 3,
      "note": 68,
      "start": 4.79,
      "duration": 0.0011,
      "velocity": 113,
      "chip": "ym2612"
    },
    {
      "channel": 4,
      "note": 56,
      "start": 4.7902,
      "duration": 0.0019,
      "velocity": 104,
      "chip": "ym2612"
    },
    {
      "channel": 0,
      "note": 56,
      "start": 4.7943,
      "duration": 0.0013,
      "velocity": 117,
      "chip": "ym2612"
    },
    {
      "channel": 1,
      "note": 63,
      "start": 4.7946,
      "duration": 0.0012,
      "velocity": 113,
      "chip": "ym2612"
    },
    {
      "channel": 3,
      "note": 68,
      "start": 4.7949,
      "duration": 0.0012,
      "velocity": 113,
      "chip": "ym2612"
    },
    {
      "channel": 4,
      "note": 61,
      "start": 4.7952,
      "duration": 0.0058,
      "velocity": 104,
      "chip": "ym2612"
    },
    {
      "channel": 0,
      "note": 56,
      "start": 4.7983,
      "duration": 0.0015,
      "velocity": 117,
      "chip": "ym2612"
    },
    {
      "channel": 1,
      "note": 63,
      "start": 4.7986,
      "duration": 0.0014,
      "velocity": 113,
      "chip": "ym2612"
    },
    {
      "channel": 2,
      "note": 44,
      "start": 4.7989,
      "duration": 0.0013,
      "velocity": 117,
      "chip": "ym2612"
    },
    {
      "channel": 3,
      "note": 68,
      "start": 4.7992,
      "duration": 0.0012,
      "velocity": 113,
      "chip": "ym2612"
    },
    {
      "channel": 0,
      "note": 56,
      "start": 4.8023,
      "duration": 0.0022,
      "velocity": 117,
      "chip": "ym2612"
    },
    {
      "channel": 1,
      "note": 63,
      "start": 4.8026,
      "duration": 0.0021,
      "velocity": 113,
      "chip": "ym2612"
    },
    {
      "channel": 2,
      "note": 45,
      "start": 4.8031,
      "duration": 0.0034,
      "velocity": 117,
      "chip": "ym2612"
    },
    {
      "channel": 3,
      "note": 68,
      "start": 4.8036,
      "duration": 0.0012,
      "velocity": 113,
      "chip": "ym2612"
    },
    {
      "channel": 4,
      "note": 54,
      "start": 4.8038,
      "duration": 0.0022,
      "velocity": 104,
      "chip": "ym2612"
    },
    {
      "channel": 0,
      "note": 56,
      "start": 4.8073,
      "duration": 0.0008,
      "velocity": 117,
      "chip": "ym2612"
    },
    {
      "channel": 1,
      "note": 63,
      "start": 4.8075,
      "duration": 0.0009,
      "velocity": 113,
      "chip": "ym2612"
    },
    {
      "channel": 2,
      "note": 44,
      "start": 4.8076,
      "duration": 0.0023,
      "velocity": 117,
      "chip": "ym2612"
    },
    {
      "channel": 3,
      "note": 68,
      "start": 4.8078,
      "duration": 0.0008,
      "velocity": 113,
      "chip": "ym2612"
    },
    {
      "channel": 4,
      "note": 56,
      "start": 4.8079,
      "duration": 0.0631,
      "velocity": 104,
      "chip": "ym2612"
    },
    {
      "channel": 0,
      "note": 56,
      "start": 4.8206,
      "duration": 0.0497,
      "velocity": 117,
      "chip": "ym2612"
    },
    {
      "channel": 1,
      "note": 63,
      "start": 4.821,
      "duration": 0.0495,
      "velocity": 113,
      "chip": "ym2612"
    },
    {
      "channel": 2,
      "note": 44,
      "start": 4.8214,
      "duration": 0.0493,
      "velocity": 117,
      "chip": "ym2612"
    },
    {
      "channel": 3,
      "note": 68,
      "start": 4.8217,
      "duration": 0.049,
      "velocity": 113,
      "chip": "ym2612"
    },
    {
      "channel": 0,
      "note": 56,
      "start": 4.9206,
      "duration": 0.0019,
      "velocity": 117,
      "chip": "ym2612"
    },
    {
      "channel": 1,
      "note": 63,
      "start": 4.921,
      "duration": 0.0017,
      "velocity": 113,
      "chip": "ym2612"
    },
    {
      "channel": 2,
      "note": 44,
      "start": 4.9214,
      "duration": 0.0015,
      "velocity": 117,
      "chip": "ym2612"
    },
    {
      "channel": 3,
      "note": 68,
      "start": 4.9217,
      "duration": 0.0012,
      "velocity": 113,
      "chip": "ym2612"
    },
    {
      "channel": 4,
      "note": 54,
      "start": 4.922,
      "duration": 0.0022,
      "velocity": 104,
      "chip": "ym2612"
    },
    {
      "channel": 0,
      "note": 56,
      "start": 4.9254,
      "duration": 0.0006,
      "velocity": 117,
      "chip": "ym2612"
    },
    {
      "channel": 1,
      "note": 63,
      "start": 4.9255,
      "duration": 0.0007,
      "velocity": 113,
      "chip": "ym2612"
    },
    {
      "channel": 2,
      "note": 44,
      "start": 4.9256,
      "duration": 0.0007,
      "velocity": 117,
      "chip": "ym2612"
    },
    {
      "channel": 3,
      "note": 68,
      "start": 4.9257,
      "duration": 0.0007,
      "velocity": 113,
      "chip": "ym2612"
    },
    {
      "channel": 4,
      "note": 60,
      "start": 4.9259,
      "duration": 0.0164,
      "velocity": 104,
      "chip": "ym2612"
    },
    {
      "channel": 0,
      "note": 56,
      "start": 4.9388,
      "duration": 0.0028,
      "velocity": 117,
      "chip": "ym2612"
    },
    {
      "channel": 1,
      "note": 63,
      "start": 4.9392,
      "duration": 0.0026,
      "velocity": 113,
      "chip": "ym2612"
    },
    {
      "channel": 2,
      "note": 44,
      "start": 4.9396,
      "duration": 0.0024,
      "velocity": 117,
      "chip": "ym2612"
    },
    {
      "channel": 3,
      "note": 68,
      "start": 4.94,
      "duration": 0.0021,
      "velocity": 113,
      "chip": "ym2612"
    },
    {
      "channel": 0,
      "note": 56,
      "start": 4.9436,
      "duration": 0.0023,
      "velocity": 117,
      "chip": "ym2612"
    },
    {
      "channel": 1,
      "note": 63,
      "start": 4.9441,
      "duration": 0.0019,
      "velocity": 113,
      "chip": "ym2612"
    },
    {
      "channel": 2,
      "note": 44,
      "start": 4.9446,
      "duration": 0.0015,
      "velocity": 117,
      "chip": "ym2612"
    },
    {
      "channel": 3,
      "note": 68,
      "start": 4.9451,
      "duration": 0.0012,
      "velocity": 113,
      "chip": "ym2612"
    },
    {
      "channel": 4,
      "note": 61,
      "start": 4.9454,
      "duration": 0.005,
      "velocity": 104,
      "chip": "ym2612"
    },
    {
      "channel": 0,
      "note": 56,
      "start": 4.9483,
      "duration": 0.0005,
      "velocity": 117,
      "chip": "ym2612"
    },
    {
      "channel": 1,
      "note": 63,
      "start": 4.9483,
      "duration": 0.0006,
      "velocity": 113,
      "chip": "ym2612"
    },
    {
      "channel": 2,
      "note": 44,
      "start": 4.9484,
      "duration": 0.0007,
      "velocity": 117,
      "chip": "ym2612"
    },
    {
      "channel": 3,
      "note": 68,
      "start": 4.9485,
      "duration": 0.0008,
      "velocity": 113,
      "chip": "ym2612"
    },
    {
      "channel": 0,
      "note": 57,
      "start": 4.9517,
      "duration": 0.0034,
      "velocity": 117,
      "chip": "ym2612"
    },
    {
      "channel": 1,
      "note": 64,
      "start": 4.952,
      "duration": 0.0033,
      "velocity": 113,
      "chip": "ym2612"
    },
    {
      "channel": 2,
      "note": 45,
      "start": 4.9523,
      "duration": 0.0031,
      "velocity": 117,
      "chip": "ym2612"
    },
    {
      "channel": 3,
      "note": 69,
      "start": 4.9527,
      "duration": 0.0034,
      "velocity": 113,
      "chip": "ym2612"
    },
    {
      "channel": 4,
      "note": 57,
      "start": 4.9529,
      "duration": 0.0069,
      "velocity": 104,
      "chip": "ym2612"
    },
    {
      "channel": 0,
      "note": 56,
      "start": 4.9569,
      "duration": 0.0015,
      "velocity": 117,
      "chip": "ym2612"
    },
    {
      "channel": 1,
      "note": 63,
      "start": 4.9572,
      "duration": 0.0014,
      "velocity": 113,
      "chip": "ym2612"
    },
    {
      "channel": 2,
      "note": 44,
      "start": 4.9573,
      "duration": 0.0029,
      "velocity": 117,
      "chip": "ym2612"
    },
    {
      "channel": 3,
      "note": 68,
      "start": 4.9578,
      "duration": 0.0011,
      "velocity": 113,
      "chip": "ym2612"
    },
    {
      "channel": 0,
      "note": 56,
      "start": 4.9611,
      "duration": 0.007,
      "velocity": 117,
      "chip": "ym2612"
    },
    {
      "channel": 1,
      "note": 63,
      "start": 4.9615,
      "duration": 0.0068,
      "velocity": 113,
      "chip": "ym2612"
    },
    {
      "channel": 2,
      "note": 44,
      "start": 4.9617,
      "duration": 0.0068,
      "velocity": 117,
      "chip": "ym2612"
    },
    {
      "channel": 3,
      "note": 69,
      "start": 4.9624,
      "duration": 0.0052,
      "velocity": 113,
      "chip": "ym2612"
    },
    {
      "channel": 4,
      "note": 56,
      "start": 4.9627,
      "duration": 0.0051,
      "velocity": 104,
      "chip": "ym2612"
    },
    {
      "channel": 0,
      "note": 56,
      "start": 4.979,
      "duration": 0.0163,
      "velocity": 117,
      "chip": "ym2612"
    },
    {
      "channel": 1,
      "note": 63,
      "start": 4.9794,
      "duration": 0.0161,
      "velocity": 113,
      "chip": "ym2612"
    },
    {
      "channel": 2,
      "note": 44,
      "start": 4.9797,
      "duration": 0.0159,
      "velocity": 117,
      "chip": "ym2612"
    },
    {
      "channel": 3,
      "note": 68,
      "start": 4.9802,
      "duration": 0.0155,
      "velocity": 113,
      "chip": "ym2612"
    },
    {
      "channel": 4,
      "note": 60,
      "start": 4.9805,
      "duration": 0.0485,
      "velocity": 104,
      "chip": "ym2612"
    },
    {
      "channel": 0,
      "note": 56,
      "start": 5.0788,
      "duration": 0.0012,
      "velocity": 117,
      "chip": "ym2612"
    },
    {
      "channel": 1,
      "note": 63,
      "start": 5.0789,
      "duration": 0.0012,
      "velocity": 113,
      "chip": "ym2612"
    },
    {
      "channel": 2,
      "note": 44,
      "start": 5.0791,
      "duration": 0.006,
      "velocity": 117,
      "chip": "ym2612"
    },
    {
      "channel": 3,
      "note": 68,
      "start": 5.0793,
      "duration": 0.001,
      "velocity": 113,
      "chip": "ym2612"
    },
    {
      "channel": 4,
      "note": 56,
      "start": 5.0795,
      "duration": 0.0018,
      "velocity": 104,
      "chip": "ym2612"
    },
    {
      "channel": 0,
      "note": 56,
      "start": 5.0835,
      "duration": 0.0013,
      "velocity": 117,
      "chip": "ym2612"
    },
    {
      "channel": 1,
      "note": 63,
      "start": 5.0838,
      "duration": 0.0012,
      "velocity": 113,
      "chip": "ym2612"
    },
    {
      "channel": 3,
      "note": 68,
      "start": 5.0841,
      "duration": 0.0011,
      "velocity": 113,
      "chip": "ym2612"
    },
    {
      "channel": 4,
      "note": 61,
      "start": 5.0843,
      "duration": 0.0058,
      "velocity": 104,
      "chip": "ym2612"
    },
    {
      "channel": 0,
      "note": 56,
      "start": 5.0873,
      "duration": 0.0017,
      "velocity": 117,
      "chip": "ym2612"
    },
    {
      "channel": 1,
      "note": 63,
      "start": 5.0876,
      "duration": 0.0015,
      "velocity": 113,
      "chip": "ym2612"
    },
    {
      "channel": 2,
      "note": 44,
      "start": 5.0879,
      "duration": 0.0015,
      "velocity": 117,
      "chip": "ym2612"
    },
    {
      "channel": 3,
      "note": 68,
      "start": 5.0882,
      "duration": 0.0013,
      "velocity": 113,
      "chip": "ym2612"
    },
    {
      "channel": 0,
      "note": 56,
      "start": 5.0914,
      "duration": 0.0022,
      "velocity": 117,
      "chip": "ym2612"
    },
    {
      "channel": 1,
      "note": 63,
      "start": 5.0917,
      "duration": 0.002,
      "velocity": 113,
      "chip": "ym2612"
    },
    {
      "channel": 2,
      "note": 45,
      "start": 5.0923,
      "duration": 0.0034,
      "velocity": 117,
      "chip": "ym2612"
    },
    {
      "channel": 3,
      "note": 68,
      "start": 5.0927,
      "duration": 0.0012,
      "velocity": 113,
      "chip": "ym2612"
    },
    {
      "channel": 4,
      "note": 54,
      "start": 5.093,
      "duration": 0.0022,
      "velocity": 104,
      "chip": "ym2612"
    },
    {
      "channel": 0,
      "note": 56,
      "start": 5.0965,
      "duration": 0.0007,
      "velocity": 117,
      "chip": "ym2612"
    },
    {
      "channel": 1,
      "note": 63,
      "start": 5.0967,
      "duration": 0.0007,
      "velocity": 113,
      "chip": "ym2612"
    },
    {
      "channel": 2,
      "note": 44,
      "start": 5.0968,
      "duration": 0.0021,
      "velocity": 117,
      "chip": "ym2612"
    },
    {
      "channel": 3,
      "note": 68,
      "start": 5.0969,
      "duration": 0.0007,
      "velocity": 113,
      "chip": "ym2612"
    },
    {
      "channel": 4,
      "note": 56,
      "start": 5.097,
      "duration": 0.0629,
      "velocity": 104,
      "chip": "ym2612"
    },
    {
      "channel": 0,
      "note": 56,
      "start": 5.1095,
      "duration": 0.0497,
      "velocity": 117,
      "chip": "ym2612"
    },
    {
      "channel": 1,
      "note": 63,
      "start": 5.1099,
      "duration": 0.0495,
      "velocity": 113,
      "chip": "ym2612"
    },
    {
      "channel": 2,
      "note": 44,
      "start": 5.1103,
      "duration": 0.0493,
      "velocity": 117,
      "chip": "ym2612"
    },
    {
      "channel": 3,
      "note": 68,
      "start": 5.1107,
      "duration": 0.049,
      "velocity": 113,
      "chip": "ym2612"
    },
    {
      "channel": 0,
      "note": 56,
      "start": 5.2095,
      "duration": 0.0019,
      "velocity": 117,
      "chip": "ym2612"
    },
    {
      "channel": 1,
      "note": 63,
      "start": 5.2099,
      "duration": 0.0017,
      "velocity": 113,
      "chip": "ym2612"
    },
    {
      "channel": 2,
      "note": 44,
      "start": 5.2103,
      "duration": 0.0015,
      "velocity": 117,
      "chip": "ym2612"
    },
    {
      "channel": 3,
      "note": 68,
      "start": 5.2107,
      "duration": 0.0012,
      "velocity": 113,
      "chip": "ym2612"
    },
    {
      "channel": 4,
      "note": 54,
      "start": 5.2109,
      "duration": 0.0021,
      "velocity": 104,
      "chip": "ym2612"
    },
    {
      "channel": 0,
      "note": 56,
      "start": 5.2142,
      "duration": 0.0006,
      "velocity": 117,
      "chip": "ym2612"
    },
    {
      "channel": 1,
      "note": 63,
      "start": 5.2143,
      "duration": 0.0006,
      "velocity": 113,
      "chip": "ym2612"
    },
    {
      "channel": 2,
      "note": 44,
      "start": 5.2143,
      "duration": 0.0007,
      "velocity": 117,
      "chip": "ym2612"
    },
    {
      "channel": 3,
      "note": 68,
      "start": 5.2144,
      "duration": 0.0007,
      "velocity": 113,
      "chip": "ym2612"
    },
    {
      "channel": 4,
      "note": 60,
      "start": 5.2146,
      "duration": 0.0168,
      "velocity": 104,
      "chip": "ym2612"
    },
    {
      "channel": 0,
      "note": 56,
      "start": 5.2277,
      "duration": 0.003,
      "velocity": 117,
      "chip": "ym2612"
    },
    {
      "channel": 1,
      "note": 63,
      "start": 5.2281,
      "duration": 0.0028,
      "velocity": 113,
      "chip": "ym2612"
    },
    {
      "channel": 2,
      "note": 44,
      "start": 5.2285,
      "duration": 0.0026,
      "velocity": 117,
      "chip": "ym2612"
    },
    {
      "channel": 3,
      "note": 68,
      "start": 5.2288,
      "duration": 0.0024,
      "velocity": 113,
      "chip": "ym2612"
    },
    {
      "channel": 0,
      "note": 56,
      "start": 5.233,
      "duration": 0.0021,
      "velocity": 117,
      "chip": "ym2612"
    },
    {
      "channel": 1,
      "note": 63,
      "start": 5.2335,
      "duration": 0.0018,
      "velocity": 113,
      "chip": "ym2612"
    },
    {
      "channel": 2,
      "note": 44,
      "start": 5.234,
      "duration": 0.0015,
      "velocity": 117,
      "chip": "ym2612"
    },
    {
      "channel": 3,
      "note": 68,
      "start": 5.2344,
      "duration": 0.0012,
      "velocity": 113,
      "chip": "ym2612"
    },
    {
      "channel": 4,
      "note": 61,
      "start": 5.2347,
      "duration": 0.0052,
      "velocity": 104,
      "chip": "ym2612"
    },
    {
      "channel": 0,
      "note": 56,
      "start": 5.2376,
      "duration": 0.0005,
      "velocity": 117,
      "chip": "ym2612"
    },
    {
      "channel": 1,
      "note": 63,
      "start": 5.2377,
      "duration": 0.0006,
      "velocity": 113,
      "chip": "ym2612"
    },
    {
      "channel": 2,
      "note": 44,
      "start": 5.2378,
      "duration": 0.0008,
      "velocity": 117,
      "chip": "ym2612"
    },
    {
      "channel": 3,
      "note": 68,
      "start": 5.2379,
      "duration": 0.0008,
      "velocity": 113,
      "chip": "ym2612"
    },
    {
      "channel": 0,
      "note": 57,
      "start": 5.2412,
      "duration": 0.0034,
      "velocity": 117,
      "chip": "ym2612"
    },
    {
      "channel": 1,
      "note": 64,
      "start": 5.2416,
      "duration": 0.0032,
      "velocity": 113,
      "chip": "ym2612"
    },
    {
      "channel": 2,
      "note": 45,
      "start": 5.2419,
      "duration": 0.0031,
      "velocity": 117,
      "chip": "ym2612"
    },
    {
      "channel": 3,
      "note": 69,
      "start": 5.2423,
      "duration": 0.0028,
      "velocity": 113,
      "chip": "ym2612"
    },
    {
      "channel": 4,
      "note": 57,
      "start": 5.2426,
      "duration": 0.0068,
      "velocity": 104,
      "chip": "ym2612"
    },
    {
      "channel": 0,
      "note": 56,
      "start": 5.2462,
      "duration": 0.0017,
      "velocity": 117,
      "chip": "ym2612"
    },
    {
      "channel": 1,
      "note": 63,
      "start": 5.2467,
      "duration": 0.0014,
      "velocity": 113,
      "chip": "ym2612"
    },
    {
      "channel": 2,
      "note": 44,
      "start": 5.2468,
      "duration": 0.003,
      "velocity": 117,
      "chip": "ym2612"
    },
    {
      "channel": 3,
      "note": 68,
      "start": 5.2473,
      "duration": 0.001,
      "velocity": 113,
      "chip": "ym2612"
    },
    {
      "channel": 0,
      "note": 56,
      "start": 5.2507,
      "duration": 0.0072,
      "velocity": 117,
      "chip": "ym2612"
    },
    {
      "channel": 1,
      "note": 63,
      "start": 5.2511,
      "duration": 0.007,
      "velocity": 113,
      "chip": "ym2612"
    },
    {
      "channel": 2,
      "note": 44,
      "start": 5.2513,
      "duration": 0.0069,
      "velocity": 117,
      "chip": "ym2612"
    },
    {
      "channel": 3,
      "note": 68,
      "start": 5.2517,
      "duration": 0.0031,
      "velocity": 113,
      "chip": "ym2612"
    },
    {
      "channel": 4,
      "note": 56,
      "start": 5.2521,
      "duration": 0.0054,
      "velocity": 104,
      "chip": "ym2612"
    },
    {
      "channel": 3,
      "note": 68,
      "start": 5.2561,
      "duration": 0.0005,
      "velocity": 113,
      "chip": "ym2612"
    },
    {
      "channel": 0,
      "note": 56,
      "start": 5.269,
      "duration": 0.0163,
      "velocity": 117,
      "chip": "ym2612"
    },
    {
      "channel": 1,
      "note": 63,
      "start": 5.2694,
      "duration": 0.0161,
      "velocity": 113,
      "chip": "ym2612"
    },
    {
      "channel": 2,
      "note": 44,
      "start": 5.2698,
      "duration": 0.0159,
      "velocity": 117,
      "chip": "ym2612"
    },
    {
      "channel": 3,
      "note": 68,
      "start": 5.27,
      "duration": 0.0158,
      "velocity": 113,
      "chip": "ym2612"
    },
    {
      "channel": 4,
      "note": 60,
      "start": 5.2702,
      "duration": 0.0489,
      "velocity": 104,
      "chip": "ym2612"
    },
    {
      "channel": 0,
      "note": 56,
      "start": 5.3688,
      "duration": 0.0012,
      "velocity": 117,
      "chip": "ym2612"
    },
    {
      "channel": 1,
      "note": 63,
      "start": 5.3689,
      "duration": 0.0012,
      "velocity": 113,
      "chip": "ym2612"
    },
    {
      "channel": 2,
      "note": 44,
      "start": 5.3691,
      "duration": 0.006,
      "velocity": 117,
      "chip": "ym2612"
    },
    {
      "channel": 3,
      "note": 68,
      "start": 5.3693,
      "duration": 0.0011,
      "velocity": 113,
      "chip": "ym2612"
    },
    {
      "channel": 4,
      "note": 56,
      "start": 5.3695,
      "duration": 0.0019,
      "velocity": 104,
      "chip": "ym2612"
    },
    {
      "channel": 0,
      "note": 56,
      "start": 5.3735,
      "duration": 0.0013,
      "velocity": 117,
      "chip": "ym2612"
    },
    {
      "channel": 1,
      "note": 63,
      "start": 5.3738,
      "duration": 0.0012,
      "velocity": 113,
      "chip": "ym2612"
    },
    {
      "channel": 3,
      "note": 68,
      "start": 5.3741,
      "duration": 0.0012,
      "velocity": 113,
      "chip": "ym2612"
    },
    {
      "channel": 4,
      "note": 61,
      "start": 5.3744,
      "duration": 0.0062,
      "velocity": 104,
      "chip": "ym2612"
    },
    {
      "channel": 0,
      "note": 56,
      "start": 5.3776,
      "duration": 0.0018,
      "velocity": 117,
      "chip": "ym2612"
    },
    {
      "channel": 1,
      "note": 63,
      "start": 5.3779,
      "duration": 0.0017,
      "velocity": 113,
      "chip": "ym2612"
    },
    {
      "channel": 2,
      "note": 44,
      "start": 5.3782,
      "duration": 0.0016,
      "velocity": 117,
      "chip": "ym2612"
    },
    {
      "channel": 3,
      "note": 68,
      "start": 5.3785,
      "duration": 0.0015,
      "velocity": 113,
      "chip": "ym2612"
    },
    {
      "channel": 0,
      "note": 56,
      "start": 5.3818,
      "duration": 0.0022,
      "velocity": 117,
      "chip": "ym2612"
    },
    {
      "channel": 1,
      "note": 63,
      "start": 5.3821,
      "duration": 0.0021,
      "velocity": 113,
      "chip": "ym2612"
    },
    {
      "channel": 2,
      "note": 45,
      "start": 5.3827,
      "duration": 0.0034,
      "velocity": 117,
      "chip": "ym2612"
    },
    {
      "channel": 3,
      "note": 68,
      "start": 5.3832,
      "duration": 0.0012,
      "velocity": 113,
      "chip": "ym2612"
    },
    {
      "channel": 4,
      "note": 54,
      "start": 5.3834,
      "duration": 0.0022,
      "velocity": 104,
      "chip": "ym2612"
    },
    {
      "channel": 0,
      "note": 56,
      "start": 5.3868,
      "duration": 0.0007,
      "velocity": 117,
      "chip": "ym2612"
    },
    {
      "channel": 1,
      "note": 63,
      "start": 5.3869,
      "duration": 0.0008,
      "velocity": 113,
      "chip": "ym2612"
    },
    {
      "channel": 2,
      "note": 44,
      "start": 5.387,
      "duration": 0.0022,
      "velocity": 117,
      "chip": "ym2612"
    },
    {
      "channel": 3,
      "note": 68,
      "start": 5.3872,
      "duration": 0.0007,
      "velocity": 113,
      "chip": "ym2612"
    },
    {
      "channel": 4,
      "note": 56,
      "start": 5.3873,
      "duration": 0.0629,
      "velocity": 104,
      "chip": "ym2612"
    },
    {
      "channel": 0,
      "note": 56,
      "start": 5.3999,
      "duration": 0.0497,
      "velocity": 117,
      "chip": "ym2612"
    },
    {
      "channel": 1,
      "note": 63,
      "start": 5.4003,
      "duration": 0.0495,
      "velocity": 113,
      "chip": "ym2612"
    },
    {
      "channel": 2,
      "note": 44,
      "start": 5.4006,
      "duration": 0.0493,
      "velocity": 117,
      "chip": "ym2612"
    },
    {
      "channel": 3,
      "note": 68,
      "start": 5.401,
      "duration": 0.049,
      "velocity": 113,
      "chip": "ym2612"
    },
    {
      "channel": 0,
      "note": 56,
      "start": 5.4999,
      "duration": 0.0019,
      "velocity": 117,
      "chip": "ym2612"
    },
    {
      "channel": 1,
      "note": 63,
      "start": 5.5003,
      "duration": 0.0017,
      "velocity": 113,
      "chip": "ym2612"
    },
    {
      "channel": 2,
      "note": 44,
      "start": 5.5006,
      "duration": 0.0015,
      "velocity": 117,
      "chip": "ym2612"
    },
    {
      "channel": 3,
      "note": 68,
      "start": 5.501,
      "duration": 0.0012,
      "velocity": 113,
      "chip": "ym2612"
    },
    {
      "channel": 4,
      "note": 54,
      "start": 5.5013,
      "duration": 0.0021,
      "velocity": 104,
      "chip": "ym2612"
    },
    {
      "channel": 0,
      "note": 56,
      "start": 5.5046,
      "duration": 0.0006,
      "velocity": 117,
      "chip": "ym2612"
    },
    {
      "channel": 1,
      "note": 63,
      "start": 5.5046,
      "duration": 0.0007,
      "velocity": 113,
      "chip": "ym2612"
    },
    {
      "channel": 2,
      "note": 44,
      "start": 5.5048,
      "duration": 0.0007,
      "velocity": 117,
      "chip": "ym2612"
    },
    {
      "channel": 3,
      "note": 68,
      "start": 5.5049,
      "duration": 0.0008,
      "velocity": 113,
      "chip": "ym2612"
    },
    {
      "channel": 4,
      "note": 60,
      "start": 5.505,
      "duration": 0.0165,
      "velocity": 104,
      "chip": "ym2612"
    },
    {
      "channel": 0,
      "note": 56,
      "start": 5.5181,
      "duration": 0.0028,
      "velocity": 117,
      "chip": "ym2612"
    },
    {
      "channel": 1,
      "note": 63,
      "start": 5.5185,
      "duration": 0.0025,
      "velocity": 113,
      "chip": "ym2612"
    },
    {
      "channel": 2,
      "note": 44,
      "start": 5.5189,
      "duration": 0.0023,
      "velocity": 117,
      "chip": "ym2612"
    },
    {
      "channel": 3,
      "note": 68,
      "start": 5.5193,
      "duration": 0.002,
      "velocity": 113,
      "chip": "ym2612"
    },
    {
      "channel": 0,
      "note": 56,
      "start": 5.5229,
      "duration": 0.0023,
      "velocity": 117,
      "chip": "ym2612"
    },
    {
      "channel": 1,
      "note": 63,
      "start": 5.5234,
      "duration": 0.002,
      "velocity": 113,
      "chip": "ym2612"
    },
    {
      "channel": 2,
      "note": 44,
      "start": 5.5239,
      "duration": 0.0016,
      "velocity": 117,
      "chip": "ym2612"
    },
    {
      "channel": 3,
      "note": 68,
      "start": 5.5244,
      "duration": 0.0012,
      "velocity": 113,
      "chip": "ym2612"
    },
    {
      "channel": 4,
      "note": 61,
      "start": 5.5247,
      "duration": 0.0052,
      "velocity": 104,
      "chip": "ym2612"
    },
    {
      "channel": 0,
      "note": 56,
      "start": 5.5277,
      "duration": 0.0005,
      "velocity": 117,
      "chip": "ym2612"
    },
    {
      "channel": 1,
      "note": 63,
      "start": 5.5277,
      "duration": 0.0006,
      "velocity": 113,
      "chip": "ym2612"
    },
    {
      "channel": 2,
      "note": 44,
      "start": 5.5278,
      "duration": 0.0008,
      "velocity": 117,
      "chip": "ym2612"
    },
    {
      "channel": 3,
      "note": 68,
      "start": 5.5279,
      "duration": 0.0008,
      "velocity": 113,
      "chip": "ym2612"
    },
    {
      "channel": 0,
      "note": 57,
      "start": 5.5313,
      "duration": 0.0033,
      "velocity": 117,
      "chip": "ym2612"
    },
    {
      "channel": 1,
      "note": 64,
      "start": 5.5317,
      "duration": 0.0031,
      "velocity": 113,
      "chip": "ym2612"
    },
    {
      "channel": 2,
      "note": 45,
      "start": 5.5319,
      "duration": 0.0031,
      "velocity": 117,
      "chip": "ym2612"
    },
    {
      "channel": 3,
      "note": 69,
      "start": 5.5323,
      "duration": 0.0033,
      "velocity": 113,
      "chip": "ym2612"
    },
    {
      "channel": 4,
      "note": 57,
      "start": 5.5326,
      "duration": 0.0067,
      "velocity": 104,
      "chip": "ym2612"
    },
    {
      "channel": 0,
      "note": 56,
      "start": 5.5365,
      "duration": 0.0014,
      "velocity": 117,
      "chip": "ym2612"
    },
    {
      "channel": 1,
      "note": 63,
      "start": 5.5368,
      "duration": 0.0012,
      "velocity": 113,
      "chip": "ym2612"
    },
    {
      "channel": 2,
      "note": 44,
      "start": 5.537,
      "duration": 0.0028,
      "velocity": 117,
      "chip": "ym2612"
    },
    {
      "channel": 3,
      "note": 68,
      "start": 5.5373,
      "duration": 0.001,
      "velocity": 113,
      "chip": "ym2612"
    },
    {
      "channel": 0,
      "note": 56,
      "start": 5.5408,
      "duration": 0.007,
      "velocity": 117,
      "chip": "ym2612"
    },
    {
      "channel": 1,
      "note": 63,
      "start": 5.5412,
      "duration": 0.0068,
      "velocity": 113,
      "chip": "ym2612"
    },
    {
      "channel": 2,
      "note": 44,
      "start": 5.5415,
      "duration": 0.0067,
      "velocity": 117,
      "chip": "ym2612"
    },
    {
      "channel": 3,
      "note": 69,
      "start": 5.5422,
      "duration": 0.0051,
      "velocity": 113,
      "chip": "ym2612"
    },
    {
      "channel": 4,
      "note": 56,
      "start": 5.5425,
      "duration": 0.005,
      "velocity": 104,
      "chip": "ym2612"
    },
    {
      "channel": 0,
      "note": 56,
      "start": 5.5587,
      "duration": 0.0163,
      "velocity": 117,
      "chip": "ym2612"
    },
    {
      "channel": 1,
      "note": 63,
      "start": 5.5591,
      "duration": 0.0161,
      "velocity": 113,
      "chip": "ym2612"
    },
    {
      "channel": 2,
      "note": 44,
      "start": 5.5595,
      "duration": 0.0159,
      "velocity": 117,
      "chip": "ym2612"
    },
    {
      "channel": 3,
      "note": 68,
      "start": 5.56,
      "duration": 0.0155,
      "velocity": 113,
      "chip": "ym2612"
    },
    {
      "channel": 4,
      "note": 60,
      "start": 5.5602,
      "duration": 0.0485,
      "velocity": 104,
      "chip": "ym2612"
    },
    {
      "channel": 0,
      "note": 56,
      "start": 5.6585,
      "duration": 0.0012,
      "velocity": 117,
      "chip": "ym2612"
    },
    {
      "channel": 1,
      "note": 63,
      "start": 5.6586,
      "duration": 0.0012,
      "velocity": 113,
      "chip": "ym2612"
    },
    {
      "channel": 2,
      "note": 44,
      "start": 5.6588,
      "duration": 0.006,
      "velocity": 117,
      "chip": "ym2612"
    },
    {
      "channel": 3,
      "note": 68,
      "start": 5.659,
      "duration": 0.0011,
      "velocity": 113,
      "chip": "ym2612"
    },
    {
      "channel": 4,
      "note": 56,
      "start": 5.6592,
      "duration": 0.0019,
      "velocity": 104,
      "chip": "ym2612"
    },
    {
      "channel": 0,
      "note": 56,
      "start": 5.6632,
      "duration": 0.0013,
      "velocity": 117,
      "chip": "ym2612"
    },
    {
      "channel": 1,
      "note": 63,
      "start": 5.6635,
      "duration": 0.0012,
      "velocity": 113,
      "chip": "ym2612"
    },
    {
      "channel": 3,
      "note": 68,
      "start": 5.6638,
      "duration": 0.0011,
      "velocity": 113,
      "chip": "ym2612"
    },
    {
      "channel": 4,
      "note": 61,
      "start": 5.664,
      "duration": 0.0058,
      "velocity": 104,
      "chip": "ym2612"
    },
    {
      "channel": 0,
      "note": 56,
      "start": 5.6671,
      "duration": 0.0017,
      "velocity": 117,
      "chip": "ym2612"
    },
    {
      "channel": 1,
      "note": 63,
      "start": 5.6673,
      "duration": 0.0015,
      "velocity": 113,
      "chip": "ym2612"
    },
    {
      "channel": 2,
      "note": 44,
      "start": 5.6676,
      "duration": 0.0015,
      "velocity": 117,
      "chip": "ym2612"
    },
    {
      "channel": 3,
      "note": 68,
      "start": 5.6679,
      "duration": 0.0013,
      "velocity": 113,
      "chip": "ym2612"
    },
    {
      "channel": 0,
      "note": 56,
      "start": 5.6711,
      "duration": 0.0022,
      "velocity": 117,
      "chip": "ym2612"
    },
    {
      "channel": 1,
      "note": 63,
      "start": 5.6714,
      "duration": 0.002,
      "velocity": 113,
      "chip": "ym2612"
    },
    {
      "channel": 2,
      "note": 45,
      "start": 5.672,
      "duration": 0.0034,
      "velocity": 117,
      "chip": "ym2612"
    },
    {
      "channel": 3,
      "note": 68,
      "start": 5.6724,
      "duration": 0.0012,
      "velocity": 113,
      "chip": "ym2612"
    },
    {
      "channel": 4,
      "note": 54,
      "start": 5.6727,
      "duration": 0.0022,
      "velocity": 104,
      "chip": "ym2612"
    },
    {
      "channel": 0,
      "note": 56,
      "start": 5.6762,
      "duration": 0.0007,
      "velocity": 117,
      "chip": "ym2612"
    },
    {
      "channel": 1,
      "note": 63,
      "start": 5.6764,
      "duration": 0.0007,
      "velocity": 113,
      "chip": "ym2612"
    },
    {
      "channel": 2,
      "note": 44,
      "start": 5.6765,
      "duration": 0.0021,
      "velocity": 117,
      "chip": "ym2612"
    },
    {
      "channel": 3,
      "note": 68,
      "start": 5.6766,
      "duration": 0.0007,
      "velocity": 113,
      "chip": "ym2612"
    },
    {
      "channel": 4,
      "note": 56,
      "start": 5.6767,
      "duration": 0.0629,
      "velocity": 104,
      "chip": "ym2612"
    },
    {
      "channel": 0,
      "note": 56,
      "start": 5.6893,
      "duration": 0.0497,
      "velocity": 117,
      "chip": "ym2612"
    },
    {
      "channel": 1,
      "note": 63,
      "start": 5.6896,
      "duration": 0.0495,
      "velocity": 113,
      "chip": "ym2612"
    },
    {
      "channel": 2,
      "note": 44,
      "start": 5.69,
      "duration": 0.0493,
      "velocity": 117,
      "chip": "ym2612"
    },
    {
      "channel": 3,
      "note": 68,
      "start": 5.6904,
      "duration": 0.049,
      "velocity": 113,
      "chip": "ym2612"
    },
    {
      "channel": 0,
      "note": 56,
      "start": 5.7893,
      "duration": 0.0019,
      "velocity": 117,
      "chip": "ym2612"
    },
    {
      "channel": 1,
      "note": 63,
      "start": 5.7896,
      "duration": 0.0017,
      "velocity": 113,
      "chip": "ym2612"
    },
    {
      "channel": 2,
      "note": 44,
      "start": 5.79,
      "duration": 0.0015,
      "velocity": 117,
      "chip": "ym2612"
    },
    {
      "channel": 3,
      "note": 68,
      "start": 5.7904,
      "duration": 0.0012,
      "velocity": 113,
      "chip": "ym2612"
    },
    {
      "channel": 4,
      "note": 54,
      "start": 5.7906,
      "duration": 0.0021,
      "velocity": 104,
      "chip": "ym2612"
    },
    {
      "channel": 0,
      "note": 56,
      "start": 5.7939,
      "duration": 0.0006,
      "velocity": 117,
      "chip": "ym2612"
    },
    {
      "channel": 1,
      "note": 63,
      "start": 5.794,
      "duration": 0.0006,
      "velocity": 113,
      "chip": "ym2612"
    },
    {
      "channel": 2,
      "note": 44,
      "start": 5.794,
      "duration": 0.0007,
      "velocity": 117,
      "chip": "ym2612"
    },
    {
      "channel": 3,
      "note": 68,
      "start": 5.7941,
      "duration": 0.0007,
      "velocity": 113,
      "chip": "ym2612"
    },
    {
      "channel": 4,
      "note": 60,
      "start": 5.7944,
      "duration": 0.0168,
      "velocity": 104,
      "chip": "ym2612"
    },
    {
      "channel": 0,
      "note": 56,
      "start": 5.8074,
      "duration": 0.003,
      "velocity": 117,
      "chip": "ym2612"
    },
    {
      "channel": 1,
      "note": 63,
      "start": 5.8078,
      "duration": 0.0028,
      "velocity": 113,
      "chip": "ym2612"
    },
    {
      "channel": 2,
      "note": 44,
      "start": 5.8082,
      "duration": 0.0026,
      "velocity": 117,
      "chip": "ym2612"
    },
    {
      "channel": 3,
      "note": 68,
      "start": 5.8085,
      "duration": 0.0024,
      "velocity": 113,
      "chip": "ym2612"
    },
    {
      "channel": 0,
      "note": 56,
      "start": 5.8127,
      "duration": 0.0021,
      "velocity": 117,
      "chip": "ym2612"
    },
    {
      "channel": 1,
      "note": 63,
      "start": 5.8132,
      "duration": 0.0018,
      "velocity": 113,
      "chip": "ym2612"
    },
    {
      "channel": 2,
      "note": 44,
      "start": 5.8137,
      "duration": 0.0015,
      "velocity": 117,
      "chip": "ym2612"
    },
    {
      "channel": 3,
      "note": 68,
      "start": 5.8141,
      "duration": 0.0012,
      "velocity": 113,
      "chip": "ym2612"
    },
    {
      "channel": 4,
      "note": 61,
      "start": 5.8144,
      "duration": 0.0052,
      "velocity": 104,
      "chip": "ym2612"
    },
    {
      "channel": 0,
      "note": 56,
      "start": 5.8173,
      "duration": 0.0005,
      "velocity": 117,
      "chip": "ym2612"
    },
    {
      "channel": 1,
      "note": 63,
      "start": 5.8174,
      "duration": 0.0006,
      "velocity": 113,
      "chip": "ym2612"
    },
    {
      "channel": 2,
      "note": 44,
      "start": 5.8175,
      "duration": 0.0008,
      "velocity": 117,
      "chip": "ym2612"
    },
    {
      "channel": 3,
      "note": 68,
      "start": 5.8176,
      "duration": 0.0008,
      "velocity": 113,
      "chip": "ym2612"
    },
    {
      "channel": 0,
      "note": 57,
      "start": 5.821,
      "duration": 0.0034,
      "velocity": 117,
      "chip": "ym2612"
    },
    {
      "channel": 1,
      "note": 64,
      "start": 5.8213,
      "duration": 0.0032,
      "velocity": 113,
      "chip": "ym2612"
    },
    {
      "channel": 2,
      "note": 45,
      "start": 5.8216,
      "duration": 0.0031,
      "velocity": 117,
      "chip": "ym2612"
    },
    {
      "channel": 3,
      "note": 69,
      "start": 5.822,
      "duration": 0.0028,
      "velocity": 113,
      "chip": "ym2612"
    },
    {
      "channel": 4,
      "note": 57,
      "start": 5.8223,
      "duration": 0.0068,
      "velocity": 104,
      "chip": "ym2612"
    },
    {
      "channel": 0,
      "note": 56,
      "start": 5.8259,
      "duration": 0.0017,
      "velocity": 117,
      "chip": "ym2612"
    },
    {
      "channel": 1,
      "note": 63,
      "start": 5.8264,
      "duration": 0.0014,
      "velocity": 113,
      "chip": "ym2612"
    },
    {
      "channel": 2,
      "note": 44,
      "start": 5.8265,
      "duration": 0.003,
      "velocity": 117,
      "chip": "ym2612"
    },
    {
      "channel": 3,
      "note": 68,
      "start": 5.827,
      "duration": 0.001,
      "velocity": 113,
      "chip": "ym2612"
    },
    {
      "channel": 0,
      "note": 56,
      "start": 5.8304,
      "duration": 0.0071,
      "velocity": 117,
      "chip": "ym2612"
    },
    {
      "channel": 1,
      "note": 63,
      "start": 5.8308,
      "duration": 0.0069,
      "velocity": 113,
      "chip": "ym2612"
    },
    {
      "channel": 2,
      "note": 44,
      "start": 5.831,
      "duration": 0.0069,
      "velocity": 117,
      "chip": "ym2612"
    },
    {
      "channel": 3,
      "note": 68,
      "start": 5.8314,
      "duration": 0.0027,
      "velocity": 113,
      "chip": "ym2612"
    },
    {
      "channel": 4,
      "note": 56,
      "start": 5.8318,
      "duration": 0.0053,
      "velocity": 104,
      "chip": "ym2612"
    },
    {
      "channel": 3,
      "note": 68,
      "start": 5.8352,
      "duration": 0.0009,
      "velocity": 113,
      "chip": "ym2612"
    },
    {
      "channel": 0,
      "note": 56,
      "start": 5.8388,
      "duration": 0.0011,
      "velocity": 117,
      "chip": "ym2612"
    },
    {
      "channel": 1,
      "note": 63,
      "start": 5.839,
      "duration": 0.001,
      "velocity": 113,
      "chip": "ym2612"
    },
    {
      "channel": 2,
      "note": 44,
      "start": 5.8394,
      "duration": 0.0008,
      "velocity": 117,
      "chip": "ym2612"
    },
    {
      "channel": 3,
      "note": 68,
      "start": 5.8394,
      "duration": 0.001,
      "velocity": 113,
      "chip": "ym2612"
    },
    {
      "channel": 4,
      "note": 60,
      "start": 5.8396,
      "duration": 0.0019,
      "velocity": 104,
      "chip": "ym2612"
    },
    {
      "channel": 0,
      "note": 56,
      "start": 5.8425,
      "duration": 0.001,
      "velocity": 117,
      "chip": "ym2612"
    },
    {
      "channel": 1,
      "note": 63,
      "start": 5.8426,
      "duration": 0.0011,
      "velocity": 113,
      "chip": "ym2612"
    },
    {
      "channel": 2,
      "note": 44,
      "start": 5.8427,
      "duration": 0.006,
      "velocity": 117,
      "chip": "ym2612"
    },
    {
      "channel": 3,
      "note": 68,
      "start": 5.8428,
      "duration": 0.0012,
      "velocity": 113,
      "chip": "ym2612"
    },
    {
      "channel": 4,
      "note": 56,
      "start": 5.843,
      "duration": 0.0021,
      "velocity": 104,
      "chip": "ym2612"
    },
    {
      "channel": 0,
      "note": 56,
      "start": 5.8469,
      "duration": 0.0014,
      "velocity": 117,
      "chip": "ym2612"
    },
    {
      "channel": 1,
      "note": 63,
      "start": 5.8472,
      "duration": 0.0013,
      "velocity": 113,
      "chip": "ym2612"
    },
    {
      "channel": 3,
      "note": 68,
      "start": 5.8475,
      "duration": 0.0014,
      "velocity": 113,
      "chip": "ym2612"
    },
    {
      "channel": 4,
      "note": 61,
      "start": 5.8478,
      "duration": 0.0063,
      "velocity": 104,
      "chip": "ym2612"
    },
    {
      "channel": 0,
      "note": 56,
      "start": 5.8514,
      "duration": 0.0016,
      "velocity": 117,
      "chip": "ym2612"
    },
    {
      "channel": 1,
      "note": 63,
      "start": 5.8517,
      "duration": 0.0015,
      "velocity": 113,
      "chip": "ym2612"
    },
    {
      "channel": 2,
      "note": 44,
      "start": 5.852,
      "duration": 0.0013,
      "velocity": 117,
      "chip": "ym2612"
    },
    {
      "channel": 3,
      "note": 68,
      "start": 5.8523,
      "duration": 0.0012,
      "velocity": 113,
      "chip": "ym2612"
    },
    {
      "channel": 0,
      "note": 56,
      "start": 5.8554,
      "duration": 0.0021,
      "velocity": 117,
      "chip": "ym2612"
    },
    {
      "channel": 1,
      "note": 63,
      "start": 5.8557,
      "duration": 0.002,
      "velocity": 113,
      "chip": "ym2612"
    },
    {
      "channel": 2,
      "note": 45,
      "start": 5.8562,
      "duration": 0.0032,
      "velocity": 117,
      "chip": "ym2612"
    },
    {
      "channel": 3,
      "note": 68,
      "start": 5.8567,
      "duration": 0.0012,
      "velocity": 113,
      "chip": "ym2612"
    },
    {
      "channel": 4,
      "note": 56,
      "start": 5.8569,
      "duration": 0.0019,
      "velocity": 104,
      "chip": "ym2612"
    },
    {
      "channel": 0,
      "note": 56,
      "start": 5.8602,
      "duration": 0.0009,
      "velocity": 117,
      "chip": "ym2612"
    },
    {
      "channel": 1,
      "note": 63,
      "start": 5.8602,
      "duration": 0.001,
      "velocity": 113,
      "chip": "ym2612"
    },
    {
      "channel": 2,
      "note": 44,
      "start": 5.8603,
      "duration": 0.0023,
      "velocity": 117,
      "chip": "ym2612"
    },
    {
      "channel": 3,
      "note": 68,
      "start": 5.8604,
      "duration": 0.0011,
      "velocity": 113,
      "chip": "ym2612"
    },
    {
      "channel": 4,
      "note": 63,
      "start": 5.8605,
      "duration": 0.0066,
      "velocity": 104,
      "chip": "ym2612"
    },
    {
      "channel": 0,
      "note": 56,
      "start": 5.8635,
      "duration": 0.0029,
      "velocity": 117,
      "chip": "ym2612"
    },
    {
      "channel": 1,
      "note": 63,
      "start": 5.8638,
      "duration": 0.0028,
      "velocity": 113,
      "chip": "ym2612"
    },
    {
      "channel": 2,
      "note": 44,
      "start": 5.8641,
      "duration": 0.0026,
      "velocity": 117,
      "chip": "ym2612"
    },
    {
      "channel": 3,
      "note": 68,
      "start": 5.8644,
      "duration": 0.0024,
      "velocity": 113,
      "chip": "ym2612"
    },
    {
      "channel": 0,
      "note": 56,
      "start": 5.8685,
      "duration": 0.0019,
      "velocity": 117,
      "chip": "ym2612"
    },
    {
      "channel": 1,
      "note": 63,
      "start": 5.8688,
      "duration": 0.0018,
      "velocity": 113,
      "chip": "ym2612"
    },
    {
      "channel": 2,
      "note": 44,
      "start": 5.8691,
      "duration": 0.0016,
      "velocity": 117,
      "chip": "ym2612"
    },
    {
      "channel": 3,
      "note": 68,
      "start": 5.8697,
      "duration": 0.0012,
      "velocity": 113,
      "chip": "ym2612"
    },
    {
      "channel": 4,
      "note": 56,
      "start": 5.8698,
      "duration": 0.0021,
      "velocity": 104,
      "chip": "ym2612"
    },
    {
      "channel": 0,
      "note": 56,
      "start": 5.8731,
      "duration": 0.0006,
      "velocity": 117,
      "chip": "ym2612"
    },
    {
      "channel": 1,
      "note": 63,
      "start": 5.8732,
      "duration": 0.0007,
      "velocity": 113,
      "chip": "ym2612"
    },
    {
      "channel": 2,
      "note": 44,
      "start": 5.8733,
      "duration": 0.0008,
      "velocity": 117,
      "chip": "ym2612"
    },
    {
      "channel": 3,
      "note": 68,
      "start": 5.8734,
      "duration": 0.0008,
      "velocity": 113,
      "chip": "ym2612"
    },
    {
      "channel": 4,
      "note": 64,
      "start": 5.8735,
      "duration": 0.0065,
      "velocity": 104,
      "chip": "ym2612"
    },
    {
      "channel": 0,
      "note": 56,
      "start": 5.8766,
      "duration": 0.0027,
      "velocity": 117,
      "chip": "ym2612"
    },
    {
      "channel": 1,
      "note": 63,
      "start": 5.8768,
      "duration": 0.0027,
      "velocity": 113,
      "chip": "ym2612"
    },
    {
      "channel": 2,
      "note": 44,
      "start": 5.8772,
      "duration": 0.0025,
      "velocity": 117,
      "chip": "ym2612"
    },
    {
      "channel": 3,
      "note": 68,
      "start": 5.8775,
      "duration": 0.0024,
      "velocity": 113,
      "chip": "ym2612"
    },
    {
      "channel": 0,
      "note": 56,
      "start": 5.8811,
      "duration": 0.002,
      "velocity": 117,
      "chip": "ym2612"
    },
    {
      "channel": 1,
      "note": 63,
      "start": 5.8815,
      "duration": 0.0018,
      "velocity": 113,
      "chip": "ym2612"
    },
    {
      "channel": 2,
      "note": 44,
      "start": 5.882,
      "duration": 0.0015,
      "velocity": 117,
      "chip": "ym2612"
    },
    {
      "channel": 3,
      "note": 68,
      "start": 5.8824,
      "duration": 0.0012,
      "velocity": 113,
      "chip": "ym2612"
    },
    {
      "channel": 4,
      "note": 65,
      "start": 5.8827,
      "duration": 0.0056,
      "velocity": 104,
      "chip": "ym2612"
    },
    {
      "channel": 0,
      "note": 56,
      "start": 5.8859,
      "duration": 0.0008,
      "velocity": 117,
      "chip": "ym2612"
    },
    {
      "channel": 1,
      "note": 63,
      "start": 5.8861,
      "duration": 0.0008,
      "velocity": 113,
      "chip": "ym2612"
    },
    {
      "channel": 2,
      "note": 44,
      "start": 5.8861,
      "duration": 0.001,
      "velocity": 117,
      "chip": "ym2612"
    },
    {
      "channel": 3,
      "note": 68,
      "start": 5.8863,
      "duration": 0.001,
      "velocity": 113,
      "chip": "ym2612"
    },
    {
      "channel": 0,
      "note": 57,
      "start": 5.8898,
      "duration": 0.0037,
      "velocity": 117,
      "chip": "ym2612"
    },
    {
      "channel": 1,
      "note": 64,
      "start": 5.89,
      "duration": 0.0036,
      "velocity": 113,
      "chip": "ym2612"
    },
    {
      "channel": 2,
      "note": 45,
      "start": 5.8904,
      "duration": 0.0034,
      "velocity": 117,
      "chip": "ym2612"
    },
    {
      "channel": 3,
      "note": 69,
      "start": 5.891,
      "duration": 0.0033,
      "velocity": 113,
      "chip": "ym2612"
    },
    {
      "channel": 4,
      "note": 66,
      "start": 5.8913,
      "duration": 0.0067,
      "velocity": 104,
      "chip": "ym2612"
    },
    {
      "channel": 0,
      "note": 56,
      "start": 5.895,
      "duration": 0.0016,
      "velocity": 117,
      "chip": "ym2612"
    },
    {
      "channel": 1,
      "note": 63,
      "start": 5.8955,
      "duration": 0.0013,
      "velocity": 113,
      "chip": "ym2612"
    },
    {
      "channel": 2,
      "note": 44,
      "start": 5.8956,
      "duration": 0.0027,
      "velocity": 117,
      "chip": "ym2612"
    },
    {
      "channel": 3,
      "note": 68,
      "start": 5.8961,
      "duration": 0.001,
      "velocity": 113,
      "chip": "ym2612"
    },
    {
      "channel": 0,
      "note": 54,
      "start": 5.9002,
      "duration": 0.0093,
      "velocity": 117,
      "chip": "ym2612"
    },
    {
      "channel": 1,
      "note": 61,
      "start": 5.9015,
      "duration": 0.0081,
      "velocity": 113,
      "chip": "ym2612"
    },
    {
      "channel": 2,
      "note": 42,
      "start": 5.902,
      "duration": 0.0078,
      "velocity": 117,
      "chip": "ym2612"
    },
    {
      "channel": 3,
      "note": 67,
      "start": 5.9033,
      "duration": 0.0056,
      "velocity": 113,
      "chip": "ym2612"
    },
    {
      "channel": 4,
      "note": 54,
      "start": 5.9046,
      "duration": 0.0046,
      "velocity": 104,
      "chip": "ym2612"
    },
    {
      "channel": 0,
      "note": 54,
      "start": 5.915,
      "duration": 0.0163,
      "velocity": 117,
      "chip": "ym2612"
    },
    {
      "channel": 1,
      "note": 61,
      "start": 5.9154,
      "duration": 0.0161,
      "velocity": 113,
      "chip": "ym2612"
    },
    {
      "channel": 2,
      "note": 42,
      "start": 5.9158,
      "duration": 0.0159,
      "velocity": 117,
      "chip": "ym2612"
    },
    {
      "channel": 3,
      "note": 66,
      "start": 5.9163,
      "duration": 0.0155,
      "velocity": 113,
      "chip": "ym2612"
    },
    {
      "channel": 4,
      "note": 58,
      "start": 5.9166,
      "duration": 0.0485,
      "velocity": 104,
      "chip": "ym2612"
    },
    {
      "channel": 0,
      "note": 54,
      "start": 6.0148,
      "duration": 0.0012,
      "velocity": 117,
      "chip": "ym2612"
    },
    {
      "channel": 1,
      "note": 61,
      "start": 6.015,
      "duration": 0.0012,
      "velocity": 113,
      "chip": "ym2612"
    },
    {
      "channel": 2,
      "note": 42,
      "start": 6.0151,
      "duration": 0.0061,
      "velocity": 117,
      "chip": "ym2612"
    },
    {
      "channel": 3,
      "note": 66,
      "start": 6.0154,
      "duration": 0.0011,
      "velocity": 113,
      "chip": "ym2612"
    },
    {
      "channel": 4,
      "note": 54,
      "start": 6.0155,
      "duration": 0.0019,
      "velocity": 104,
      "chip": "ym2612"
    },
    {
      "channel": 0,
      "note": 54,
      "start": 6.0195,
      "duration": 0.0013,
      "velocity": 117,
      "chip": "ym2612"
    },
    {
      "channel": 1,
      "note": 61,
      "start": 6.0198,
      "duration": 0.0012,
      "velocity": 113,
      "chip": "ym2612"
    },
    {
      "channel": 3,
      "note": 66,
      "start": 6.0201,
      "duration": 0.0012,
      "velocity": 113,
      "chip": "ym2612"
    },
    {
      "channel": 4,
      "note": 59,
      "start": 6.0204,
      "duration": 0.006,
      "velocity": 104,
      "chip": "ym2612"
    },
    {
      "channel": 0,
      "note": 54,
      "start": 6.0234,
      "duration": 0.0022,
      "velocity": 117,
      "chip": "ym2612"
    },
    {
      "channel": 1,
      "note": 61,
      "start": 6.0237,
      "duration": 0.0021,
      "velocity": 113,
      "chip": "ym2612"
    },
    {
      "channel": 2,
      "note": 42,
      "start": 6.024,
      "duration": 0.002,
      "velocity": 117,
      "chip": "ym2612"
    },
    {
      "channel": 3,
      "note": 66,
      "start": 6.0243,
      "duration": 0.0019,
      "velocity": 113,
      "chip": "ym2612"
    },
    {
      "channel": 0,
      "note": 54,
      "start": 6.0277,
      "duration": 0.0021,
      "velocity": 117,
      "chip": "ym2612"
    },
    {
      "channel": 1,
      "note": 61,
      "start": 6.0279,
      "duration": 0.002,
      "velocity": 113,
      "chip": "ym2612"
    },
    {
      "channel": 2,
      "note": 43,
      "start": 6.0285,
      "duration": 0.0034,
      "velocity": 117,
      "chip": "ym2612"
    },
    {
      "channel": 3,
      "note": 66,
      "start": 6.029,
      "duration": 0.0012,
      "velocity": 113,
      "chip": "ym2612"
    },
    {
      "channel": 4,
      "note": 52,
      "start": 6.0292,
      "duration": 0.0022,
      "velocity": 104,
      "chip": "ym2612"
    },
    {
      "channel": 0,
      "note": 54,
      "start": 6.0327,
      "duration": 0.0007,
      "velocity": 117,
      "chip": "ym2612"
    },
    {
      "channel": 1,
      "note": 61,
      "start": 6.0329,
      "duration": 0.0007,
      "velocity": 113,
      "chip": "ym2612"
    },
    {
      "channel": 2,
      "note": 42,
      "start": 6.033,
      "duration": 0.0021,
      "velocity": 117,
      "chip": "ym2612"
    },
    {
      "channel": 3,
      "note": 66,
      "start": 6.0331,
      "duration": 0.0007,
      "velocity": 113,
      "chip": "ym2612"
    },
    {
      "channel": 4,
      "note": 54,
      "start": 6.0332,
      "duration": 0.0627,
      "velocity": 104,
      "chip": "ym2612"
    },
    {
      "channel": 0,
      "note": 54,
      "start": 6.0458,
      "duration": 0.0663,
      "velocity": 117,
      "chip": "ym2612"
    },
    {
      "channel": 1,
      "note": 61,
      "start": 6.0462,
      "duration": 0.0661,
      "velocity": 113,
      "chip": "ym2612"
    },
    {
      "channel": 2,
      "note": 42,
      "start": 6.0465,
      "duration": 0.0659,
      "velocity": 117,
      "chip": "ym2612"
    },
    {
      "channel": 3,
      "note": 66,
      "start": 6.0469,
      "duration": 0.0656,
      "velocity": 113,
      "chip": "ym2612"
    },
    {
      "channel": 0,
      "note": 54,
      "start": 6.1458,
      "duration": 0.0019,
      "velocity": 117,
      "chip": "ym2612"
    },
    {
      "channel": 1,
      "note": 61,
      "start": 6.1462,
      "duration": 0.0017,
      "velocity": 113,
      "chip": "ym2612"
    },
    {
      "channel": 2,
      "note": 42,
      "start": 6.1465,
      "duration": 0.0015,
      "velocity": 117,
      "chip": "ym2612"
    },
    {
      "channel": 3,
      "note": 66,
      "start": 6.1469,
      "duration": 0.0012,
      "velocity": 113,
      "chip": "ym2612"
    },
    {
      "channel": 4,
      "note": 52,
      "start": 6.1472,
      "duration": 0.0021,
      "velocity": 104,
      "chip": "ym2612"
    },
    {
      "channel": 0,
      "note": 54,
      "start": 6.1505,
      "duration": 0.0007,
      "velocity": 117,
      "chip": "ym2612"
    },
    {
      "channel": 1,
      "note": 61,
      "start": 6.1507,
      "duration": 0.0007,
      "velocity": 113,
      "chip": "ym2612"
    },
    {
      "channel": 2,
      "note": 42,
      "start": 6.1507,
      "duration": 0.0008,
      "velocity": 117,
      "chip": "ym2612"
    },
    {
      "channel": 3,
      "note": 66,
      "start": 6.1509,
      "duration": 0.0008,
      "velocity": 113,
      "chip": "ym2612"
    },
    {
      "channel": 4,
      "note": 58,
      "start": 6.151,
      "duration": 0.0164,
      "velocity": 104,
      "chip": "ym2612"
    },
    {
      "channel": 0,
      "note": 54,
      "start": 6.1641,
      "duration": 0.0037,
      "velocity": 117,
      "chip": "ym2612"
    },
    {
      "channel": 1,
      "note": 61,
      "start": 6.1644,
      "duration": 0.0034,
      "velocity": 113,
      "chip": "ym2612"
    },
    {
      "channel": 2,
      "note": 42,
      "start": 6.1648,
      "duration": 0.0032,
      "velocity": 117,
      "chip": "ym2612"
    },
    {
      "channel": 3,
      "note": 66,
      "start": 6.1652,
      "duration": 0.003,
      "velocity": 113,
      "chip": "ym2612"
    },
    {
      "channel": 0,
      "note": 54,
      "start": 6.1691,
      "duration": 0.0022,
      "velocity": 117,
      "chip": "ym2612"
    },
    {
      "channel": 1,
      "note": 61,
      "start": 6.1697,
      "duration": 0.0018,
      "velocity": 113,
      "chip": "ym2612"
    },
    {
      "channel": 2,
      "note": 42,
      "start": 6.1701,
      "duration": 0.0016,
      "velocity": 117,
      "chip": "ym2612"
    },
    {
      "channel": 3,
      "note": 66,
      "start": 6.1705,
      "duration": 0.0013,
      "velocity": 113,
      "chip": "ym2612"
    },
    {
      "channel": 4,
      "note": 59,
      "start": 6.1708,
      "duration": 0.0055,
      "velocity": 104,
      "chip": "ym2612"
    },
    {
      "channel": 0,
      "note": 54,
      "start": 6.174,
      "duration": 0.0005,
      "velocity": 117,
      "chip": "ym2612"
    },
    {
      "channel": 1,
      "note": 61,
      "start": 6.174,
      "duration": 0.0006,
      "velocity": 113,
      "chip": "ym2612"
    },
    {
      "channel": 2,
      "note": 42,
      "start": 6.1741,
      "duration": 0.0008,
      "velocity": 117,
      "chip": "ym2612"
    },
    {
      "channel": 3,
      "note": 66,
      "start": 6.1743,
      "duration": 0.0008,
      "velocity": 113,
      "chip": "ym2612"
    },
    {
      "channel": 0,
      "note": 55,
      "start": 6.1774,
      "duration": 0.0031,
      "velocity": 117,
      "chip": "ym2612"
    },
    {
      "channel": 1,
      "note": 62,
      "start": 6.1775,
      "duration": 0.0032,
      "velocity": 113,
      "chip": "ym2612"
    },
    {
      "channel": 2,
      "note": 43,
      "start": 6.1779,
      "duration": 0.003,
      "velocity": 117,
      "chip": "ym2612"
    },
    {
      "channel": 3,
      "note": 67,
      "start": 6.1782,
      "duration": 0.0028,
      "velocity": 113,
      "chip": "ym2612"
    },
    {
      "channel": 4,
      "note": 55,
      "start": 6.1784,
      "duration": 0.0066,
      "velocity": 104,
      "chip": "ym2612"
    },
    {
      "channel": 0,
      "note": 54,
      "start": 6.1818,
      "duration": 0.0019,
      "velocity": 117,
      "chip": "ym2612"
    },
    {
      "channel": 1,
      "note": 61,
      "start": 6.182,
      "duration": 0.0018,
      "velocity": 113,
      "chip": "ym2612"
    },
    {
      "channel": 2,
      "note": 42,
      "start": 6.1824,
      "duration": 0.0015,
      "velocity": 117,
      "chip": "ym2612"
    },
    {
      "channel": 3,
      "note": 66,
      "start": 6.183,
      "duration": 0.0011,
      "velocity": 113,
      "chip": "ym2612"
    },
    {
      "channel": 0,
      "note": 54,
      "start": 6.1864,
      "duration": 0.0076,
      "velocity": 117,
      "chip": "ym2612"
    },
    {
      "channel": 1,
      "note": 61,
      "start": 6.187,
      "duration": 0.0072,
      "velocity": 113,
      "chip": "ym2612"
    },
    {
      "channel": 2,
      "note": 42,
      "start": 6.1875,
      "duration": 0.0068,
      "velocity": 117,
      "chip": "ym2612"
    },
    {
      "channel": 3,
      "note": 66,
      "start": 6.188,
      "duration": 0.0023,
      "velocity": 113,
      "chip": "ym2612"
    },
    {
      "channel": 4,
      "note": 54,
      "start": 6.1883,
      "duration": 0.0054,
      "velocity": 104,
      "chip": "ym2612"
    },
    {
      "channel": 3,
      "note": 66,
      "start": 6.1919,
      "duration": 0.0005,
      "velocity": 113,
      "chip": "ym2612"
    },
    {
      "channel": 0,
      "note": 54,
      "start": 6.2048,
      "duration": 0.0163,
      "velocity": 117,
      "chip": "ym2612"
    },
    {
      "channel": 1,
      "note": 61,
      "start": 6.2052,
      "duration": 0.0161,
      "velocity": 113,
      "chip": "ym2612"
    },
    {
      "channel": 2,
      "note": 42,
      "start": 6.2056,
      "duration": 0.0159,
      "velocity": 117,
      "chip": "ym2612"
    },
    {
      "channel": 3,
      "note": 66,
      "start": 6.2058,
      "duration": 0.0158,
      "velocity": 113,
      "chip": "ym2612"
    },
    {
      "channel": 4,
      "note": 58,
      "start": 6.206,
      "duration": 0.0489,
      "velocity": 104,
      "chip": "ym2612"
    },
    {
      "channel": 0,
      "note": 54,
      "start": 6.3046,
      "duration": 0.0012,
      "velocity": 117,
      "chip": "ym2612"
    },
    {
      "channel": 1,
      "note": 61,
      "start": 6.3047,
      "duration": 0.0012,
      "velocity": 113,
      "chip": "ym2612"
    },
    {
      "channel": 2,
      "note": 42,
      "start": 6.3049,
      "duration": 0.006,
      "velocity": 117,
      "chip": "ym2612"
    },
    {
      "channel": 3,
      "note": 66,
      "start": 6.3051,
      "duration": 0.0011,
      "velocity": 113,
      "chip": "ym2612"
    },
    {
      "channel": 4,
      "note": 54,
      "start": 6.3053,
      "duration": 0.0019,
      "velocity": 104,
      "chip": "ym2612"
    },
    {
      "channel": 0,
      "note": 54,
      "start": 6.3093,
      "duration": 0.0013,
      "velocity": 117,
      "chip": "ym2612"
    },
    {
      "channel": 1,
      "note": 61,
      "start": 6.3096,
      "duration": 0.0012,
      "velocity": 113,
      "chip": "ym2612"
    },
    {
      "channel": 3,
      "note": 66,
      "start": 6.3099,
      "duration": 0.0012,
      "velocity": 113,
      "chip": "ym2612"
    },
    {
      "channel": 4,
      "note": 59,
      "start": 6.3102,
      "duration": 0.0062,
      "velocity": 104,
      "chip": "ym2612"
    },
    {
      "channel": 0,
      "note": 54,
      "start": 6.3134,
      "duration": 0.0022,
      "velocity": 117,
      "chip": "ym2612"
    },
    {
      "channel": 1,
      "note": 61,
      "start": 6.3137,
      "duration": 0.0022,
      "velocity": 113,
      "chip": "ym2612"
    },
    {
      "channel": 2,
      "note": 42,
      "start": 6.314,
      "duration": 0.002,
      "velocity": 117,
      "chip": "ym2612"
    },
    {
      "channel": 3,
      "note": 66,
      "start": 6.3144,
      "duration": 0.0018,
      "velocity": 113,
      "chip": "ym2612"
    },
    {
      "channel": 0,
      "note": 54,
      "start": 6.3178,
      "duration": 0.0022,
      "velocity": 117,
      "chip": "ym2612"
    },
    {
      "channel": 1,
      "note": 61,
      "start": 6.3181,
      "duration": 0.002,
      "velocity": 113,
      "chip": "ym2612"
    },
    {
      "channel": 2,
      "note": 43,
      "start": 6.3187,
      "duration": 0.0034,
      "velocity": 117,
      "chip": "ym2612"
    },
    {
      "channel": 3,
      "note": 66,
      "start": 6.3191,
      "duration": 0.0012,
      "velocity": 113,
      "chip": "ym2612"
    },
    {
      "channel": 4,
      "note": 52,
      "start": 6.3194,
      "duration": 0.0022,
      "velocity": 104,
      "chip": "ym2612"
    },
    {
      "channel": 0,
      "note": 54,
      "start": 6.3228,
      "duration": 0.0008,
      "velocity": 117,
      "chip": "ym2612"
    },
    {
      "channel": 1,
      "note": 61,
      "start": 6.323,
      "duration": 0.0008,
      "velocity": 113,
      "chip": "ym2612"
    },
    {
      "channel": 2,
      "note": 42,
      "start": 6.3232,
      "duration": 0.0022,
      "velocity": 117,
      "chip": "ym2612"
    },
    {
      "channel": 3,
      "note": 66,
      "start": 6.3233,
      "duration": 0.0007,
      "velocity": 113,
      "chip": "ym2612"
    },
    {
      "channel": 4,
      "note": 54,
      "start": 6.3235,
      "duration": 0.0628,
      "velocity": 104,
      "chip": "ym2612"
    },
    {
      "channel": 0,
      "note": 54,
      "start": 6.3361,
      "duration": 0.0663,
      "velocity": 117,
      "chip": "ym2612"
    },
    {
      "channel": 1,
      "note": 61,
      "start": 6.3365,
      "duration": 0.0661,
      "velocity": 113,
      "chip": "ym2612"
    },
    {
      "channel": 2,
      "note": 42,
      "start": 6.3369,
      "duration": 0.0659,
      "velocity": 117,
      "chip": "ym2612"
    },
    {
      "channel": 3,
      "note": 66,
      "start": 6.3373,
      "duration": 0.0656,
      "velocity": 113,
      "chip": "ym2612"
    },
    {
      "channel": 0,
      "note": 54,
      "start": 6.4361,
      "duration": 0.0019,
      "velocity": 117,
      "chip": "ym2612"
    },
    {
      "channel": 1,
      "note": 61,
      "start": 6.4365,
      "duration": 0.0017,
      "velocity": 113,
      "chip": "ym2612"
    },
    {
      "channel": 2,
      "note": 42,
      "start": 6.4369,
      "duration": 0.0015,
      "velocity": 117,
      "chip": "ym2612"
    },
    {
      "channel": 3,
      "note": 66,
      "start": 6.4373,
      "duration": 0.0012,
      "velocity": 113,
      "chip": "ym2612"
    },
    {
      "channel": 4,
      "note": 52,
      "start": 6.4375,
      "duration": 0.0022,
      "velocity": 104,
      "chip": "ym2612"
    },
    {
      "channel": 0,
      "note": 54,
      "start": 6.4408,
      "duration": 0.0007,
      "velocity": 117,
      "chip": "ym2612"
    },
    {
      "channel": 1,
      "note": 61,
      "start": 6.441,
      "duration": 0.0007,
      "velocity": 113,
      "chip": "ym2612"
    },
    {
      "channel": 2,
      "note": 42,
      "start": 6.441,
      "duration": 0.0008,
      "velocity": 117,
      "chip": "ym2612"
    },
    {
      "channel": 3,
      "note": 66,
      "start": 6.4412,
      "duration": 0.0008,
      "velocity": 113,
      "chip": "ym2612"
    },
    {
      "channel": 4,
      "note": 58,
      "start": 6.4413,
      "duration": 0.0163,
      "velocity": 104,
      "chip": "ym2612"
    },
    {
      "channel": 0,
      "note": 54,
      "start": 6.4544,
      "duration": 0.0035,
      "velocity": 117,
      "chip": "ym2612"
    },
    {
      "channel": 1,
      "note": 61,
      "start": 6.4548,
      "duration": 0.0033,
      "velocity": 113,
      "chip": "ym2612"
    },
    {
      "channel": 2,
      "note": 42,
      "start": 6.4551,
      "duration": 0.0031,
      "velocity": 117,
      "chip": "ym2612"
    },
    {
      "channel": 3,
      "note": 66,
      "start": 6.4555,
      "duration": 0.0029,
      "velocity": 113,
      "chip": "ym2612"
    },
    {
      "channel": 0,
      "note": 54,
      "start": 6.4594,
      "duration": 0.0021,
      "velocity": 117,
      "chip": "ym2612"
    },
    {
      "channel": 1,
      "note": 61,
      "start": 6.4598,
      "duration": 0.0018,
      "velocity": 113,
      "chip": "ym2612"
    },
    {
      "channel": 2,
      "note": 42,
      "start": 6.4603,
      "duration": 0.0015,
      "velocity": 117,
      "chip": "ym2612"
    },
    {
      "channel": 3,
      "note": 66,
      "start": 6.4608,
      "duration": 0.0012,
      "velocity": 113,
      "chip": "ym2612"
    },
    {
      "channel": 4,
      "note": 59,
      "start": 6.461,
      "duration": 0.0052,
      "velocity": 104,
      "chip": "ym2612"
    },
    {
      "channel": 0,
      "note": 54,
      "start": 6.464,
      "duration": 0.0005,
      "velocity": 117,
      "chip": "ym2612"
    },
    {
      "channel": 1,
      "note": 61,
      "start": 6.464,
      "duration": 0.0006,
      "velocity": 113,
      "chip": "ym2612"
    },
    {
      "channel": 2,
      "note": 42,
      "start": 6.4641,
      "duration": 0.0008,
      "velocity": 117,
      "chip": "ym2612"
    },
    {
      "channel": 3,
      "note": 66,
      "start": 6.4643,
      "duration": 0.0008,
      "velocity": 113,
      "chip": "ym2612"
    },
    {
      "channel": 0,
      "note": 55,
      "start": 6.4675,
      "duration": 0.0034,
      "velocity": 117,
      "chip": "ym2612"
    },
    {
      "channel": 1,
      "note": 62,
      "start": 6.4676,
      "duration": 0.0035,
      "velocity": 113,
      "chip": "ym2612"
    },
    {
      "channel": 2,
      "note": 43,
      "start": 6.468,
      "duration": 0.0033,
      "velocity": 117,
      "chip": "ym2612"
    },
    {
      "channel": 3,
      "note": 67,
      "start": 6.4683,
      "duration": 0.0036,
      "velocity": 113,
      "chip": "ym2612"
    },
    {
      "channel": 4,
      "note": 55,
      "start": 6.4685,
      "duration": 0.0073,
      "velocity": 104,
      "chip": "ym2612"
    },
    {
      "channel": 0,
      "note": 54,
      "start": 6.4725,
      "duration": 0.0018,
      "velocity": 117,
      "chip": "ym2612"
    },
    {
      "channel": 1,
      "note": 61,
      "start": 6.4727,
      "duration": 0.0018,
      "velocity": 113,
      "chip": "ym2612"
    },
    {
      "channel": 2,
      "note": 42,
      "start": 6.473,
      "duration": 0.0016,
      "velocity": 117,
      "chip": "ym2612"
    },
    {
      "channel": 3,
      "note": 66,
      "start": 6.4737,
      "duration": 0.0011,
      "velocity": 113,
      "chip": "ym2612"
    },
    {
      "channel": 0,
      "note": 54,
      "start": 6.477,
      "duration": 0.0075,
      "velocity": 117,
      "chip": "ym2612"
    },
    {
      "channel": 1,
      "note": 61,
      "start": 6.4774,
      "duration": 0.0073,
      "velocity": 113,
      "chip": "ym2612"
    },
    {
      "channel": 2,
      "note": 42,
      "start": 6.4779,
      "duration": 0.0069,
      "velocity": 117,
      "chip": "ym2612"
    },
    {
      "channel": 3,
      "note": 67,
      "start": 6.4787,
      "duration": 0.0054,
      "velocity": 113,
      "chip": "ym2612"
    },
    {
      "channel": 4,
      "note": 54,
      "start": 6.479,
      "duration": 0.0052,
      "velocity": 104,
      "chip": "ym2612"
    },
    {
      "channel": 0,
      "note": 54,
      "start": 6.4949,
      "duration": 0.0163,
      "velocity": 117,
      "chip": "ym2612"
    },
    {
      "channel": 1,
      "note": 61,
      "start": 6.4953,
      "duration": 0.0161,
      "velocity": 113,
      "chip": "ym2612"
    },
    {
      "channel": 2,
      "note": 42,
      "start": 6.4957,
      "duration": 0.0159,
      "velocity": 117,
      "chip": "ym2612"
    },
    {
      "channel": 3,
      "note": 66,
      "start": 6.4962,
      "duration": 0.0155,
      "velocity": 113,
      "chip": "ym2612"
    },
    {
      "channel": 4,
      "note": 58,
      "start": 6.4965,
      "duration": 0.0485,
      "velocity": 104,
      "chip": "ym2612"
    },
    {
      "channel": 0,
      "note": 54,
      "start": 6.5947,
      "duration": 0.0012,
      "velocity": 117,
      "chip": "ym2612"
    },
    {
      "channel": 1,
      "note": 61,
      "start": 6.5949,
      "duration": 0.0012,
      "velocity": 113,
      "chip": "ym2612"
    },
    {
      "channel": 2,
      "note": 42,
      "start": 6.5951,
      "duration": 0.0061,
      "velocity": 117,
      "chip": "ym2612"
    },
    {
      "channel": 3,
      "note": 66,
      "start": 6.5953,
      "duration": 0.0011,
      "velocity": 113,
      "chip": "ym2612"
    },
    {
      "channel": 4,
      "note": 54,
      "start": 6.5954,
      "duration": 0.0019,
      "velocity": 104,
      "chip": "ym2612"
    },
    {
      "channel": 0,
      "note": 54,
      "start": 6.5995,
      "duration": 0.0013,
      "velocity": 117,
      "chip": "ym2612"
    },
    {
      "channel": 1,
      "note": 61,
      "start": 6.5998,
      "duration": 0.0012,
      "velocity": 113,
      "chip": "ym2612"
    },
    {
      "channel": 3,
      "note": 66,
      "start": 6.6001,
      "duration": 0.0012,
      "velocity": 113,
      "chip": "ym2612"
    },
    {
      "channel": 4,
      "note": 59,
      "start": 6.6003,
      "duration": 0.0062,
      "velocity": 104,
      "chip": "ym2612"
    },
    {
      "channel": 0,
      "note": 54,
      "start": 6.6037,
      "duration": 0.0022,
      "velocity": 117,
      "chip": "ym2612"
    },
    {
      "channel": 1,
      "note": 61,
      "start": 6.604,
      "duration": 0.002,
      "velocity": 113,
      "chip": "ym2612"
    },
    {
      "channel": 2,
      "note": 42,
      "start": 6.6042,
      "duration": 0.0019,
      "velocity": 117,
      "chip": "ym2612"
    },
    {
      "channel": 3,
      "note": 66,
      "start": 6.6046,
      "duration": 0.0018,
      "velocity": 113,
      "chip": "ym2612"
    },
    {
      "channel": 0,
      "note": 54,
      "start": 6.6079,
      "duration": 0.0022,
      "velocity": 117,
      "chip": "ym2612"
    },
    {
      "channel": 1,
      "note": 61,
      "start": 6.6082,
      "duration": 0.0021,
      "velocity": 113,
      "chip": "ym2612"
    },
    {
      "channel": 2,
      "note": 43,
      "start": 6.6087,
      "duration": 0.0034,
      "velocity": 117,
      "chip": "ym2612"
    },
    {
      "channel": 3,
      "note": 66,
      "start": 6.6092,
      "duration": 0.0012,
      "velocity": 113,
      "chip": "ym2612"
    },
    {
      "channel": 4,
      "note": 52,
      "start": 6.6094,
      "duration": 0.0022,
      "velocity": 104,
      "chip": "ym2612"
    },
    {
      "channel": 0,
      "note": 54,
      "start": 6.6129,
      "duration": 0.0007,
      "velocity": 117,
      "chip": "ym2612"
    },
    {
      "channel": 1,
      "note": 61,
      "start": 6.6129,
      "duration": 0.0008,
      "velocity": 113,
      "chip": "ym2612"
    },
    {
      "channel": 2,
      "note": 42,
      "start": 6.6131,
      "duration": 0.0022,
      "velocity": 117,
      "chip": "ym2612"
    },
    {
      "channel": 3,
      "note": 66,
      "start": 6.6132,
      "duration": 0.0007,
      "velocity": 113,
      "chip": "ym2612"
    },
    {
      "channel": 4,
      "note": 54,
      "start": 6.6134,
      "duration": 0.0627,
      "velocity": 104,
      "chip": "ym2612"
    },
    {
      "channel": 0,
      "note": 54,
      "start": 6.6259,
      "duration": 0.0663,
      "velocity": 117,
      "chip": "ym2612"
    },
    {
      "channel": 1,
      "note": 61,
      "start": 6.6263,
      "duration": 0.0661,
      "velocity": 113,
      "chip": "ym2612"
    },
    {
      "channel": 2,
      "note": 42,
      "start": 6.6267,
      "duration": 0.0659,
      "velocity": 117,
      "chip": "ym2612"
    },
    {
      "channel": 3,
      "note": 66,
      "start": 6.6271,
      "duration": 0.0656,
      "velocity": 113,
      "chip": "ym2612"
    },
    {
      "channel": 0,
      "note": 54,
      "start": 6.7259,
      "duration": 0.0019,
      "velocity": 117,
      "chip": "ym2612"
    },
    {
      "channel": 1,
      "note": 61,
      "start": 6.7263,
      "duration": 0.0017,
      "velocity": 113,
      "chip": "ym2612"
    },
    {
      "channel": 2,
      "note": 42,
      "start": 6.7267,
      "duration": 0.0015,
      "velocity": 117,
      "chip": "ym2612"
    },
    {
      "channel": 3,
      "note": 66,
      "start": 6.7271,
      "duration": 0.0012,
      "velocity": 113,
      "chip": "ym2612"
    },
    {
      "channel": 4,
      "note": 52,
      "start": 6.7273,
      "duration": 0.0022,
      "velocity": 104,
      "chip": "ym2612"
    },
    {
      "channel": 0,
      "note": 54,
      "start": 6.7308,
      "duration": 0.0006,
      "velocity": 117,
      "chip": "ym2612"
    },
    {
      "channel": 1,
      "note": 61,
      "start": 6.7309,
      "duration": 0.0007,
      "velocity": 113,
      "chip": "ym2612"
    },
    {
      "channel": 2,
      "note": 42,
      "start": 6.731,
      "duration": 0.0007,
      "velocity": 117,
      "chip": "ym2612"
    },
    {
      "channel": 3,
      "note": 66,
      "start": 6.7311,
      "duration": 0.0007,
      "velocity": 113,
      "chip": "ym2612"
    },
    {
      "channel": 4,
      "note": 58,
      "start": 6.7312,
      "duration": 0.0165,
      "velocity": 104,
      "chip": "ym2612"
    },
    {
      "channel": 0,
      "note": 54,
      "start": 6.7442,
      "duration": 0.0037,
      "velocity": 117,
      "chip": "ym2612"
    },
    {
      "channel": 1,
      "note": 61,
      "start": 6.7446,
      "duration": 0.0035,
      "velocity": 113,
      "chip": "ym2612"
    },
    {
      "channel": 2,
      "note": 42,
      "start": 6.7449,
      "duration": 0.0034,
      "velocity": 117,
      "chip": "ym2612"
    },
    {
      "channel": 3,
      "note": 66,
      "start": 6.7453,
      "duration": 0.0032,
      "velocity": 113,
      "chip": "ym2612"
    },
    {
      "channel": 0,
      "note": 54,
      "start": 6.7493,
      "duration": 0.002,
      "velocity": 117,
      "chip": "ym2612"
    },
    {
      "channel": 1,
      "note": 61,
      "start": 6.7497,
      "duration": 0.0018,
      "velocity": 113,
      "chip": "ym2612"
    },
    {
      "channel": 2,
      "note": 42,
      "start": 6.7502,
      "duration": 0.0016,
      "velocity": 117,
      "chip": "ym2612"
    },
    {
      "channel": 3,
      "note": 66,
      "start": 6.7506,
      "duration": 0.0013,
      "velocity": 113,
      "chip": "ym2612"
    },
    {
      "channel": 4,
      "note": 59,
      "start": 6.7509,
      "duration": 0.0051,
      "velocity": 104,
      "chip": "ym2612"
    },
    {
      "channel": 0,
      "note": 54,
      "start": 6.7541,
      "duration": 0.0004,
      "velocity": 117,
      "chip": "ym2612"
    },
    {
      "channel": 1,
      "note": 61,
      "start": 6.7542,
      "duration": 0.0004,
      "velocity": 113,
      "chip": "ym2612"
    },
    {
      "channel": 2,
      "note": 42,
      "start": 6.7543,
      "duration": 0.0005,
      "velocity": 117,
      "chip": "ym2612"
    },
    {
      "channel": 3,
      "note": 66,
      "start": 6.7543,
      "duration": 0.0006,
      "velocity": 113,
      "chip": "ym2612"
    },
    {
      "channel": 0,
      "note": 55,
      "start": 6.757,
      "duration": 0.0033,
      "velocity": 117,
      "chip": "ym2612"
    },
    {
      "channel": 1,
      "note": 62,
      "start": 6.7572,
      "duration": 0.0032,
      "velocity": 113,
      "chip": "ym2612"
    },
    {
      "channel": 2,
      "note": 43,
      "start": 6.7575,
      "duration": 0.0031,
      "velocity": 117,
      "chip": "ym2612"
    },
    {
      "channel": 3,
      "note": 67,
      "start": 6.7579,
      "duration": 0.0028,
      "velocity": 113,
      "chip": "ym2612"
    },
    {
      "channel": 4,
      "note": 55,
      "start": 6.758,
      "duration": 0.007,
      "velocity": 104,
      "chip": "ym2612"
    },
    {
      "channel": 0,
      "note": 54,
      "start": 6.7615,
      "duration": 0.002,
      "velocity": 117,
      "chip": "ym2612"
    },
    {
      "channel": 1,
      "note": 61,
      "start": 6.7617,
      "duration": 0.002,
      "velocity": 113,
      "chip": "ym2612"
    },
    {
      "channel": 2,
      "note": 42,
      "start": 6.7623,
      "duration": 0.0015,
      "velocity": 117,
      "chip": "ym2612"
    },
    {
      "channel": 3,
      "note": 66,
      "start": 6.7629,
      "duration": 0.0011,
      "velocity": 113,
      "chip": "ym2612"
    },
    {
      "channel": 0,
      "note": 54,
      "start": 6.7663,
      "duration": 0.0075,
      "velocity": 117,
      "chip": "ym2612"
    },
    {
      "channel": 1,
      "note": 61,
      "start": 6.7668,
      "duration": 0.0072,
      "velocity": 113,
      "chip": "ym2612"
    },
    {
      "channel": 2,
      "note": 42,
      "start": 6.7673,
      "duration": 0.0068,
      "velocity": 117,
      "chip": "ym2612"
    },
    {
      "channel": 3,
      "note": 66,
      "start": 6.7678,
      "duration": 0.0024,
      "velocity": 113,
      "chip": "ym2612"
    },
    {
      "channel": 4,
      "note": 54,
      "start": 6.7682,
      "duration": 0.0052,
      "velocity": 104,
      "chip": "ym2612"
    },
    {
      "channel": 3,
      "note": 66,
      "start": 6.7719,
      "duration": 0.0005,
      "velocity": 113,
      "chip": "ym2612"
    },
    {
      "channel": 0,
      "note": 54,
      "start": 6.7847,
      "duration": 0.0163,
      "velocity": 117,
      "chip": "ym2612"
    },
    {
      "channel": 1,
      "note": 61,
      "start": 6.7851,
      "duration": 0.0161,
      "velocity": 113,
      "chip": "ym2612"
    },
    {
      "channel": 2,
      "note": 42,
      "start": 6.7854,
      "duration": 0.0159,
      "velocity": 117,
      "chip": "ym2612"
    },
    {
      "channel": 3,
      "note": 66,
      "start": 6.7856,
      "duration": 0.0158,
      "velocity": 113,
      "chip": "ym2612"
    },
    {
      "channel": 4,
      "note": 58,
      "start": 6.7859,
      "duration": 0.0489,
      "velocity": 104,
      "chip": "ym2612"
    },
    {
      "channel": 0,
      "note": 54,
      "start": 6.8845,
      "duration": 0.0012,
      "velocity": 117,
      "chip": "ym2612"
    },
    {
      "channel": 1,
      "note": 61,
      "start": 6.8846,
      "duration": 0.0012,
      "velocity": 113,
      "chip": "ym2612"
    },
    {
      "channel": 2,
      "note": 42,
      "start": 6.8848,
      "duration": 0.0061,
      "velocity": 117,
      "chip": "ym2612"
    },
    {
      "channel": 3,
      "note": 66,
      "start": 6.885,
      "duration": 0.0011,
      "velocity": 113,
      "chip": "ym2612"
    },
    {
      "channel": 4,
      "note": 54,
      "start": 6.8852,
      "duration": 0.0019,
      "velocity": 104,
      "chip": "ym2612"
    },
    {
      "channel": 0,
      "note": 54,
      "start": 6.8892,
      "duration": 0.0013,
      "velocity": 117,
      "chip": "ym2612"
    },
    {
      "channel": 1,
      "note": 61,
      "start": 6.8895,
      "duration": 0.0012,
      "velocity": 113,
      "chip": "ym2612"
    },
    {
      "channel": 3,
      "note": 66,
      "start": 6.8898,
      "duration": 0.0012,
      "velocity": 113,
      "chip": "ym2612"
    },
    {
      "channel": 4,
      "note": 59,
      "start": 6.89,
      "duration": 0.0062,
      "velocity": 104,
      "chip": "ym2612"
    },
    {
      "channel": 0,
      "note": 54,
      "start": 6.8934,
      "duration": 0.0022,
      "velocity": 117,
      "chip": "ym2612"
    },
    {
      "channel": 1,
      "note": 61,
      "start": 6.8937,
      "duration": 0.002,
      "velocity": 113,
      "chip": "ym2612"
    },
    {
      "channel": 2,
      "note": 42,
      "start": 6.894,
      "duration": 0.0019,
      "velocity": 117,
      "chip": "ym2612"
    },
    {
      "channel": 3,
      "note": 66,
      "start": 6.8943,
      "duration": 0.0018,
      "velocity": 113,
      "chip": "ym2612"
    },
    {
      "channel": 0,
      "note": 54,
      "start": 6.8976,
      "duration": 0.0022,
      "velocity": 117,
      "chip": "ym2612"
    },
    {
      "channel": 1,
      "note": 61,
      "start": 6.8979,
      "duration": 0.0021,
      "velocity": 113,
      "chip": "ym2612"
    },
    {
      "channel": 2,
      "note": 43,
      "start": 6.8985,
      "duration": 0.0034,
      "velocity": 117,
      "chip": "ym2612"
    },
    {
      "channel": 3,
      "note": 66,
      "start": 6.8989,
      "duration": 0.0012,
      "velocity": 113,
      "chip": "ym2612"
    },
    {
      "channel": 4,
      "note": 52,
      "start": 6.8992,
      "duration": 0.0022,
      "velocity": 104,
      "chip": "ym2612"
    },
    {
      "channel": 0,
      "note": 54,
      "start": 6.9026,
      "duration": 0.0007,
      "velocity": 117,
      "chip": "ym2612"
    },
    {
      "channel": 1,
      "note": 61,
      "start": 6.9027,
      "duration": 0.0008,
      "velocity": 113,
      "chip": "ym2612"
    },
    {
      "channel": 2,
      "note": 42,
      "start": 6.9028,
      "duration": 0.0022,
      "velocity": 117,
      "chip": "ym2612"
    },
    {
      "channel": 3,
      "note": 66,
      "start": 6.903,
      "duration": 0.0007,
      "velocity": 113,
      "chip": "ym2612"
    },
    {
      "channel": 4,
      "note": 54,
      "start": 6.9031,
      "duration": 0.0627,
      "velocity": 104,
      "chip": "ym2612"
    },
    {
      "channel": 0,
      "note": 54,
      "start": 6.9157,
      "duration": 0.0663,
      "velocity": 117,
      "chip": "ym2612"
    },
    {
      "channel": 1,
      "note": 61,
      "start": 6.9161,
      "duration": 0.0661,
      "velocity": 113,
      "chip": "ym2612"
    },
    {
      "channel": 2,
      "note": 42,
      "start": 6.9164,
      "duration": 0.0659,
      "velocity": 117,
      "chip": "ym2612"
    },
    {
      "channel": 3,
      "note": 66,
      "start": 6.9168,
      "duration": 0.0656,
      "velocity": 113,
      "chip": "ym2612"
    },
    {
      "channel": 0,
      "note": 54,
      "start": 7.0157,
      "duration": 0.0019,
      "velocity": 117,
      "chip": "ym2612"
    },
    {
      "channel": 1,
      "note": 61,
      "start": 7.0161,
      "duration": 0.0017,
      "velocity": 113,
      "chip": "ym2612"
    },
    {
      "channel": 2,
      "note": 42,
      "start": 7.0164,
      "duration": 0.0015,
      "velocity": 117,
      "chip": "ym2612"
    },
    {
      "channel": 3,
      "note": 66,
      "start": 7.0168,
      "duration": 0.0012,
      "velocity": 113,
      "chip": "ym2612"
    },
    {
      "channel": 4,
      "note": 52,
      "start": 7.0171,
      "duration": 0.0022,
      "velocity": 104,
      "chip": "ym2612"
    },
    {
      "channel": 0,
      "note": 54,
      "start": 7.0205,
      "duration": 0.0006,
      "velocity": 117,
      "chip": "ym2612"
    },
    {
      "channel": 1,
      "note": 61,
      "start": 7.0206,
      "duration": 0.0007,
      "velocity": 113,
      "chip": "ym2612"
    },
    {
      "channel": 2,
      "note": 42,
      "start": 7.0207,
      "duration": 0.0007,
      "velocity": 117,
      "chip": "ym2612"
    },
    {
      "channel": 3,
      "note": 66,
      "start": 7.0208,
      "duration": 0.0007,
      "velocity": 113,
      "chip": "ym2612"
    },
    {
      "channel": 4,
      "note": 58,
      "start": 7.0209,
      "duration": 0.0165,
      "velocity": 104,
      "chip": "ym2612"
    },
    {
      "channel": 0,
      "note": 54,
      "start": 7.0339,
      "duration": 0.0037,
      "velocity": 117,
      "chip": "ym2612"
    },
    {
      "channel": 1,
      "note": 61,
      "start": 7.0343,
      "duration": 0.0035,
      "velocity": 113,
      "chip": "ym2612"
    },
    {
      "channel": 2,
      "note": 42,
      "start": 7.0346,
      "duration": 0.0034,
      "velocity": 117,
      "chip": "ym2612"
    },
    {
      "channel": 3,
      "note": 66,
      "start": 7.035,
      "duration": 0.0032,
      "velocity": 113,
      "chip": "ym2612"
    },
    {
      "channel": 0,
      "note": 54,
      "start": 7.039,
      "duration": 0.002,
      "velocity": 117,
      "chip": "ym2612"
    },
    {
      "channel": 1,
      "note": 61,
      "start": 7.0394,
      "duration": 0.0018,
      "velocity": 113,
      "chip": "ym2612"
    },
    {
      "channel": 2,
      "note": 42,
      "start": 7.0399,
      "duration": 0.0016,
      "velocity": 117,
      "chip": "ym2612"
    },
    {
      "channel": 3,
      "note": 66,
      "start": 7.0403,
      "duration": 0.0013,
      "velocity": 113,
      "chip": "ym2612"
    },
    {
      "channel": 4,
      "note": 59,
      "start": 7.0406,
      "duration": 0.0051,
      "velocity": 104,
      "chip": "ym2612"
    },
    {
      "channel": 0,
      "note": 54,
      "start": 7.0438,
      "duration": 0.0004,
      "velocity": 117,
      "chip": "ym2612"
    },
    {
      "channel": 1,
      "note": 61,
      "start": 7.0439,
      "duration": 0.0004,
      "velocity": 113,
      "chip": "ym2612"
    },
    {
      "channel": 2,
      "note": 42,
      "start": 7.044,
      "duration": 0.0005,
      "velocity": 117,
      "chip": "ym2612"
    },
    {
      "channel": 3,
      "note": 66,
      "start": 7.044,
      "duration": 0.0006,
      "velocity": 113,
      "chip": "ym2612"
    },
    {
      "channel": 0,
      "note": 55,
      "start": 7.0468,
      "duration": 0.0033,
      "velocity": 117,
      "chip": "ym2612"
    },
    {
      "channel": 1,
      "note": 62,
      "start": 7.0469,
      "duration": 0.0032,
      "velocity": 113,
      "chip": "ym2612"
    },
    {
      "channel": 2,
      "note": 43,
      "start": 7.0472,
      "duration": 0.0031,
      "velocity": 117,
      "chip": "ym2612"
    },
    {
      "channel": 3,
      "note": 67,
      "start": 7.0476,
      "duration": 0.0032,
      "velocity": 113,
      "chip": "ym2612"
    },
    {
      "channel": 4,
      "note": 55,
      "start": 7.0478,
      "duration": 0.0068,
      "velocity": 104,
      "chip": "ym2612"
    },
    {
      "channel": 0,
      "note": 54,
      "start": 7.0512,
      "duration": 0.0019,
      "velocity": 117,
      "chip": "ym2612"
    },
    {
      "channel": 1,
      "note": 61,
      "start": 7.0514,
      "duration": 0.0019,
      "velocity": 113,
      "chip": "ym2612"
    },
    {
      "channel": 2,
      "note": 42,
      "start": 7.052,
      "duration": 0.0015,
      "velocity": 117,
      "chip": "ym2612"
    },
    {
      "channel": 3,
      "note": 66,
      "start": 7.0526,
      "duration": 0.001,
      "velocity": 113,
      "chip": "ym2612"
    }
  ]
}