{
  "track_name": "07 - Race Results",
  "duration_sec": 46.527,
  "sample_rate": 44100,
  "note_count": 539,
  "unique_pitches": 41,
  "pitch_range": 61,
  "avg_note_duration": 0.2138,
  "reconstruction_stats": {
    "notes_reconstructed": 539,
    "keyon_events": 539,
    "keyoff_events": 539,
    "orphan_keyons": 0,
    "unique_pitches": 41,
    "pitch_range": 61,
    "avg_duration_sec": 0.2138
  },
  "metadata": {
    "source": "R\\Road Rash\\07 - Race Results.vgz"
  },
  "notes": [
    {
      "channel": 0,
      "note": 67,
      "start": 0.0021,
      "duration": 0.148,
      "velocity": 88,
      "chip": "ym2612"
    },
    {
      "channel": 2,
      "note": 42,
      "start": 0.0054,
      "duration": 0.1452,
      "velocity": 127,
      "chip": "ym2612"
    },
    {
      "channel": 0,
      "note": 59,
      "start": 0.1685,
      "duration": 0.3156,
      "velocity": 83,
      "chip": "ym2612"
    },
    {
      "channel": 1,
      "note": 72,
      "start": 0.1688,
      "duration": 0.3155,
      "velocity": 83,
      "chip": "ym2612"
    },
    {
      "channel": 2,
      "note": 30,
      "start": 0.1705,
      "duration": 0.1466,
      "velocity": 127,
      "chip": "ym2612"
    },
    {
      "channel": 3,
      "note": 72,
      "start": 0.1707,
      "duration": 0.3139,
      "velocity": 83,
      "chip": "ym2612"
    },
    {
      "channel": 4,
      "note": 60,
      "start": 0.171,
      "duration": 0.3139,
      "velocity": 83,
      "chip": "ym2612"
    },
    {
      "channel": 2,
      "note": 42,
      "start": 0.3352,
      "duration": 0.0651,
      "velocity": 107,
      "chip": "ym2612"
    },
    {
      "channel": 2,
      "note": 48,
      "start": 0.417,
      "duration": 0.0676,
      "velocity": 107,
      "chip": "ym2612"
    },
    {
      "channel": 0,
      "note": 66,
      "start": 0.5024,
      "duration": 0.1483,
      "velocity": 88,
      "chip": "ym2612"
    },
    {
      "channel": 2,
      "note": 48,
      "start": 0.5042,
      "duration": 0.147,
      "velocity": 127,
      "chip": "ym2612"
    },
    {
      "channel": 0,
      "note": 59,
      "start": 0.6693,
      "duration": 0.3149,
      "velocity": 83,
      "chip": "ym2612"
    },
    {
      "channel": 1,
      "note": 72,
      "start": 0.6695,
      "duration": 0.3149,
      "velocity": 83,
      "chip": "ym2612"
    },
    {
      "channel": 2,
      "note": 42,
      "start": 0.6712,
      "duration": 0.1465,
      "velocity": 127,
      "chip": "ym2612"
    },
    {
      "channel": 3,
      "note": 72,
      "start": 0.6715,
      "duration": 0.3132,
      "velocity": 83,
      "chip": "ym2612"
    },
    {
      "channel": 4,
      "note": 60,
      "start": 0.6717,
      "duration": 0.3132,
      "velocity": 83,
      "chip": "ym2612"
    },
    {
      "channel": 2,
      "note": 30,
      "start": 0.8359,
      "duration": 0.0652,
      "velocity": 107,
      "chip": "ym2612"
    },
    {
      "channel": 2,
      "note": 51,
      "start": 0.9179,
      "duration": 0.0667,
      "velocity": 107,
      "chip": "ym2612"
    },
    {
      "channel": 0,
      "note": 70,
      "start": 1.0024,
      "duration": 0.1483,
      "velocity": 88,
      "chip": "ym2612"
    },
    {
      "channel": 2,
      "note": 51,
      "start": 1.0042,
      "duration": 0.1469,
      "velocity": 127,
      "chip": "ym2612"
    },
    {
      "channel": 0,
      "note": 59,
      "start": 1.1693,
      "duration": 0.3148,
      "velocity": 83,
      "chip": "ym2612"
    },
    {
      "channel": 1,
      "note": 74,
      "start": 1.1696,
      "duration": 0.3147,
      "velocity": 83,
      "chip": "ym2612"
    },
    {
      "channel": 2,
      "note": 30,
      "start": 1.1712,
      "duration": 0.1466,
      "velocity": 127,
      "chip": "ym2612"
    },
    {
      "channel": 3,
      "note": 74,
      "start": 1.1715,
      "duration": 0.3131,
      "velocity": 83,
      "chip": "ym2612"
    },
    {
      "channel": 4,
      "note": 62,
      "start": 1.1717,
      "duration": 0.3131,
      "velocity": 83,
      "chip": "ym2612"
    },
    {
      "channel": 2,
      "note": 42,
      "start": 1.336,
      "duration": 0.0651,
      "velocity": 107,
      "chip": "ym2612"
    },
    {
      "channel": 2,
      "note": 55,
      "start": 1.4178,
      "duration": 0.0667,
      "velocity": 107,
      "chip": "ym2612"
    },
    {
      "channel": 0,
      "note": 72,
      "start": 1.5025,
      "duration": 0.1482,
      "velocity": 88,
      "chip": "ym2612"
    },
    {
      "channel": 2,
      "note": 55,
      "start": 1.5043,
      "duration": 0.1469,
      "velocity": 127,
      "chip": "ym2612"
    },
    {
      "channel": 0,
      "note": 59,
      "start": 1.6693,
      "duration": 0.3148,
      "velocity": 83,
      "chip": "ym2612"
    },
    {
      "channel": 1,
      "note": 76,
      "start": 1.6696,
      "duration": 0.3148,
      "velocity": 83,
      "chip": "ym2612"
    },
    {
      "channel": 2,
      "note": 42,
      "start": 1.6713,
      "duration": 0.1464,
      "velocity": 127,
      "chip": "ym2612"
    },
    {
      "channel": 3,
      "note": 76,
      "start": 1.6715,
      "duration": 0.3132,
      "velocity": 83,
      "chip": "ym2612"
    },
    {
      "channel": 4,
      "note": 64,
      "start": 1.6718,
      "duration": 0.3131,
      "velocity": 83,
      "chip": "ym2612"
    },
    {
      "channel": 2,
      "note": 30,
      "start": 1.836,
      "duration": 0.0651,
      "velocity": 107,
      "chip": "ym2612"
    },
    {
      "channel": 2,
      "note": 58,
      "start": 1.9179,
      "duration": 0.0667,
      "velocity": 107,
      "chip": "ym2612"
    },
    {
      "channel": 0,
      "note": 73,
      "start": 2.0027,
      "duration": 0.3147,
      "velocity": 88,
      "chip": "ym2612"
    },
    {
      "channel": 1,
      "note": 79,
      "start": 2.0044,
      "duration": 0.1464,
      "velocity": 83,
      "chip": "ym2612"
    },
    {
      "channel": 2,
      "note": 58,
      "start": 2.0061,
      "duration": 0.1449,
      "velocity": 127,
      "chip": "ym2612"
    },
    {
      "channel": 1,
      "note": 63,
      "start": 2.1676,
      "duration": 0.15,
      "velocity": 83,
      "chip": "ym2612"
    },
    {
      "channel": 2,
      "note": 30,
      "start": 2.1694,
      "duration": 0.1485,
      "velocity": 127,
      "chip": "ym2612"
    },
    {
      "channel": 0,
      "note": 62,
      "start": 2.3344,
      "duration": 0.1497,
      "velocity": 88,
      "chip": "ym2612"
    },
    {
      "channel": 1,
      "note": 70,
      "start": 2.3346,
      "duration": 0.1497,
      "velocity": 83,
      "chip": "ym2612"
    },
    {
      "channel": 2,
      "note": 42,
      "start": 2.3363,
      "duration": 0.0648,
      "velocity": 107,
      "chip": "ym2612"
    },
    {
      "channel": 3,
      "note": 79,
      "start": 2.3366,
      "duration": 0.148,
      "velocity": 83,
      "chip": "ym2612"
    },
    {
      "channel": 4,
      "note": 67,
      "start": 2.3369,
      "duration": 0.148,
      "velocity": 83,
      "chip": "ym2612"
    },
    {
      "channel": 2,
      "note": 48,
      "start": 2.4177,
      "duration": 0.0668,
      "velocity": 107,
      "chip": "ym2612"
    },
    {
      "channel": 0,
      "note": 79,
      "start": 2.5009,
      "duration": 0.3165,
      "velocity": 88,
      "chip": "ym2612"
    },
    {
      "channel": 1,
      "note": 75,
      "start": 2.5012,
      "duration": 0.1498,
      "velocity": 83,
      "chip": "ym2612"
    },
    {
      "channel": 2,
      "note": 48,
      "start": 2.5029,
      "duration": 0.1482,
      "velocity": 127,
      "chip": "ym2612"
    },
    {
      "channel": 1,
      "note": 65,
      "start": 2.6677,
      "duration": 0.15,
      "velocity": 83,
      "chip": "ym2612"
    },
    {
      "channel": 2,
      "note": 42,
      "start": 2.6694,
      "duration": 0.1485,
      "velocity": 127,
      "chip": "ym2612"
    },
    {
      "channel": 0,
      "note": 64,
      "start": 2.8343,
      "duration": 0.1498,
      "velocity": 88,
      "chip": "ym2612"
    },
    {
      "channel": 1,
      "note": 72,
      "start": 2.8346,
      "duration": 0.1498,
      "velocity": 83,
      "chip": "ym2612"
    },
    {
      "channel": 2,
      "note": 30,
      "start": 2.8363,
      "duration": 0.0647,
      "velocity": 107,
      "chip": "ym2612"
    },
    {
      "channel": 3,
      "note": 70,
      "start": 2.8366,
      "duration": 0.1481,
      "velocity": 83,
      "chip": "ym2612"
    },
    {
      "channel": 4,
      "note": 63,
      "start": 2.8368,
      "duration": 0.1481,
      "velocity": 83,
      "chip": "ym2612"
    },
    {
      "channel": 2,
      "note": 51,
      "start": 2.9178,
      "duration": 0.0668,
      "velocity": 107,
      "chip": "ym2612"
    },
    {
      "channel": 0,
      "note": 80,
      "start": 3.001,
      "duration": 0.3164,
      "velocity": 88,
      "chip": "ym2612"
    },
    {
      "channel": 1,
      "note": 77,
      "start": 3.0012,
      "duration": 0.1497,
      "velocity": 83,
      "chip": "ym2612"
    },
    {
      "channel": 2,
      "note": 51,
      "start": 3.0029,
      "duration": 0.1482,
      "velocity": 127,
      "chip": "ym2612"
    },
    {
      "channel": 1,
      "note": 67,
      "start": 3.1676,
      "duration": 0.15,
      "velocity": 83,
      "chip": "ym2612"
    },
    {
      "channel": 2,
      "note": 30,
      "start": 3.1693,
      "duration": 0.1485,
      "velocity": 127,
      "chip": "ym2612"
    },
    {
      "channel": 0,
      "note": 66,
      "start": 3.3344,
      "duration": 0.1497,
      "velocity": 88,
      "chip": "ym2612"
    },
    {
      "channel": 1,
      "note": 74,
      "start": 3.3346,
      "duration": 0.1497,
      "velocity": 83,
      "chip": "ym2612"
    },
    {
      "channel": 2,
      "note": 42,
      "start": 3.3363,
      "duration": 0.0648,
      "velocity": 107,
      "chip": "ym2612"
    },
    {
      "channel": 3,
      "note": 72,
      "start": 3.3366,
      "duration": 0.148,
      "velocity": 83,
      "chip": "ym2612"
    },
    {
      "channel": 4,
      "note": 65,
      "start": 3.3369,
      "duration": 0.148,
      "velocity": 83,
      "chip": "ym2612"
    },
    {
      "channel": 2,
      "note": 55,
      "start": 3.4177,
      "duration": 0.0668,
      "velocity": 107,
      "chip": "ym2612"
    },
    {
      "channel": 0,
      "note": 82,
      "start": 3.5009,
      "duration": 0.3165,
      "velocity": 88,
      "chip": "ym2612"
    },
    {
      "channel": 1,
      "note": 79,
      "start": 3.5012,
      "duration": 0.1498,
      "velocity": 83,
      "chip": "ym2612"
    },
    {
      "channel": 2,
      "note": 55,
      "start": 3.5029,
      "duration": 0.1482,
      "velocity": 127,
      "chip": "ym2612"
    },
    {
      "channel": 1,
      "note": 70,
      "start": 3.6678,
      "duration": 0.3157,
      "velocity": 83,
      "chip": "ym2612"
    },
    {
      "channel": 2,
      "note": 42,
      "start": 3.6695,
      "duration": 0.1483,
      "velocity": 127,
      "chip": "ym2612"
    },
    {
      "channel": 3,
      "note": 74,
      "start": 3.6698,
      "duration": 0.3141,
      "velocity": 83,
      "chip": "ym2612"
    },
    {
      "channel": 4,
      "note": 67,
      "start": 3.6701,
      "duration": 0.314,
      "velocity": 83,
      "chip": "ym2612"
    },
    {
      "channel": 0,
      "note": 69,
      "start": 3.8343,
      "duration": 0.149,
      "velocity": 88,
      "chip": "ym2612"
    },
    {
      "channel": 2,
      "note": 30,
      "start": 3.8361,
      "duration": 0.0649,
      "velocity": 107,
      "chip": "ym2612"
    },
    {
      "channel": 2,
      "note": 58,
      "start": 3.9177,
      "duration": 0.066,
      "velocity": 107,
      "chip": "ym2612"
    },
    {
      "channel": 0,
      "note": 86,
      "start": 4.0019,
      "duration": 3.9815,
      "velocity": 83,
      "chip": "ym2612"
    },
    {
      "channel": 1,
      "note": 77,
      "start": 4.0021,
      "duration": 3.9814,
      "velocity": 83,
      "chip": "ym2612"
    },
    {
      "channel": 2,
      "note": 58,
      "start": 4.0039,
      "duration": 0.9819,
      "velocity": 127,
      "chip": "ym2612"
    },
    {
      "channel": 3,
      "note": 77,
      "start": 4.0041,
      "duration": 3.9798,
      "velocity": 83,
      "chip": "ym2612"
    },
    {
      "channel": 4,
      "note": 58,
      "start": 4.0044,
      "duration": 3.9798,
      "velocity": 83,
      "chip": "ym2612"
    },
    {
      "channel": 2,
      "note": 42,
      "start": 5.0012,
      "duration": 0.9846,
      "velocity": 127,
      "chip": "ym2612"
    },
    {
      "channel": 2,
      "note": 42,
      "start": 6.004,
      "duration": 0.6484,
      "velocity": 127,
      "chip": "ym2612"
    },
    {
      "channel": 2,
      "note": 42,
      "start": 6.6707,
      "duration": 0.3151,
      "velocity": 107,
      "chip": "ym2612"
    },
    {
      "channel": 2,
      "note": 58,
      "start": 7.004,
      "duration": 0.3137,
      "velocity": 127,
      "chip": "ym2612"
    },
    {
      "channel": 2,
      "note": 42,
      "start": 7.336,
      "duration": 0.3151,
      "velocity": 107,
      "chip": "ym2612"
    },
    {
      "channel": 2,
      "note": 58,
      "start": 7.6692,
      "duration": 0.1499,
      "velocity": 107,
      "chip": "ym2612"
    },
    {
      "channel": 2,
      "note": 58,
      "start": 7.8359,
      "duration": 0.148,
      "velocity": 107,
      "chip": "ym2612"
    },
    {
      "channel": 0,
      "note": 67,
      "start": 8.0021,
      "duration": 3.6488,
      "velocity": 83,
      "chip": "ym2612"
    },
    {
      "channel": 1,
      "note": 84,
      "start": 8.0023,
      "duration": 3.6487,
      "velocity": 83,
      "chip": "ym2612"
    },
    {
      "channel": 2,
      "note": 58,
      "start": 8.004,
      "duration": 0.1463,
      "velocity": 127,
      "chip": "ym2612"
    },
    {
      "channel": 3,
      "note": 91,
      "start": 8.0043,
      "duration": 3.6471,
      "velocity": 83,
      "chip": "ym2612"
    },
    {
      "channel": 4,
      "note": 79,
      "start": 8.0046,
      "duration": 3.6471,
      "velocity": 83,
      "chip": "ym2612"
    },
    {
      "channel": 2,
      "note": 30,
      "start": 8.1686,
      "duration": 0.0651,
      "velocity": 127,
      "chip": "ym2612"
    },
    {
      "channel": 2,
      "note": 42,
      "start": 8.2519,
      "duration": 0.0651,
      "velocity": 107,
      "chip": "ym2612"
    },
    {
      "channel": 2,
      "note": 58,
      "start": 8.3339,
      "duration": 0.1499,
      "velocity": 107,
      "chip": "ym2612"
    },
    {
      "channel": 2,
      "note": 55,
      "start": 8.5026,
      "duration": 0.1485,
      "velocity": 127,
      "chip": "ym2612"
    },
    {
      "channel": 2,
      "note": 42,
      "start": 8.6694,
      "duration": 0.0651,
      "velocity": 127,
      "chip": "ym2612"
    },
    {
      "channel": 2,
      "note": 30,
      "start": 8.7526,
      "duration": 0.0651,
      "velocity": 107,
      "chip": "ym2612"
    },
    {
      "channel": 2,
      "note": 60,
      "start": 8.8346,
      "duration": 0.1497,
      "velocity": 107,
      "chip": "ym2612"
    },
    {
      "channel": 2,
      "note": 58,
      "start": 9.0027,
      "duration": 0.1484,
      "velocity": 127,
      "chip": "ym2612"
    },
    {
      "channel": 2,
      "note": 30,
      "start": 9.1693,
      "duration": 0.0651,
      "velocity": 127,
      "chip": "ym2612"
    },
    {
      "channel": 2,
      "note": 42,
      "start": 9.2527,
      "duration": 0.0651,
      "velocity": 107,
      "chip": "ym2612"
    },
    {
      "channel": 2,
      "note": 55,
      "start": 9.3346,
      "duration": 0.1499,
      "velocity": 107,
      "chip": "ym2612"
    },
    {
      "channel": 2,
      "note": 51,
      "start": 9.5026,
      "duration": 0.0651,
      "velocity": 127,
      "chip": "ym2612"
    },
    {
      "channel": 2,
      "note": 42,
      "start": 9.586,
      "duration": 0.0651,
      "velocity": 107,
      "chip": "ym2612"
    },
    {
      "channel": 2,
      "note": 51,
      "start": 9.6679,
      "duration": 0.1499,
      "velocity": 107,
      "chip": "ym2612"
    },
    {
      "channel": 2,
      "note": 48,
      "start": 9.8346,
      "duration": 0.1499,
      "velocity": 107,
      "chip": "ym2612"
    },
    {
      "channel": 2,
      "note": 48,
      "start": 10.0026,
      "duration": 0.1484,
      "velocity": 127,
      "chip": "ym2612"
    },
    {
      "channel": 2,
      "note": 30,
      "start": 10.1694,
      "duration": 0.0651,
      "velocity": 127,
      "chip": "ym2612"
    },
    {
      "channel": 2,
      "note": 42,
      "start": 10.2526,
      "duration": 0.0652,
      "velocity": 127,
      "chip": "ym2612"
    },
    {
      "channel": 2,
      "note": 60,
      "start": 10.3346,
      "duration": 0.1499,
      "velocity": 127,
      "chip": "ym2612"
    },
    {
      "channel": 2,
      "note": 58,
      "start": 10.5027,
      "duration": 0.1484,
      "velocity": 127,
      "chip": "ym2612"
    },
    {
      "channel": 2,
      "note": 42,
      "start": 10.6693,
      "duration": 0.0652,
      "velocity": 127,
      "chip": "ym2612"
    },
    {
      "channel": 2,
      "note": 30,
      "start": 10.7527,
      "duration": 0.0651,
      "velocity": 127,
      "chip": "ym2612"
    },
    {
      "channel": 2,
      "note": 58,
      "start": 10.8345,
      "duration": 0.1499,
      "velocity": 127,
      "chip": "ym2612"
    },
    {
      "channel": 2,
      "note": 55,
      "start": 11.0026,
      "duration": 0.1484,
      "velocity": 127,
      "chip": "ym2612"
    },
    {
      "channel": 2,
      "note": 30,
      "start": 11.1694,
      "duration": 0.0651,
      "velocity": 127,
      "chip": "ym2612"
    },
    {
      "channel": 2,
      "note": 42,
      "start": 11.2526,
      "duration": 0.0651,
      "velocity": 127,
      "chip": "ym2612"
    },
    {
      "channel": 2,
      "note": 55,
      "start": 11.3344,
      "duration": 0.1501,
      "velocity": 127,
      "chip": "ym2612"
    },
    {
      "channel": 2,
      "note": 51,
      "start": 11.5013,
      "duration": 0.0664,
      "velocity": 127,
      "chip": "ym2612"
    },
    {
      "channel": 2,
      "note": 42,
      "start": 11.5844,
      "duration": 0.0669,
      "velocity": 127,
      "chip": "ym2612"
    },
    {
      "channel": 0,
      "note": 75,
      "start": 11.6693,
      "duration": 0.1482,
      "velocity": 127,
      "chip": "ym2612"
    },
    {
      "channel": 1,
      "note": 78,
      "start": 11.671,
      "duration": 0.1468,
      "velocity": 127,
      "chip": "ym2612"
    },
    {
      "channel": 2,
      "note": 51,
      "start": 11.6712,
      "duration": 0.1467,
      "velocity": 127,
      "chip": "ym2612"
    },
    {
      "channel": 3,
      "note": 78,
      "start": 11.6729,
      "duration": 0.1451,
      "velocity": 127,
      "chip": "ym2612"
    },
    {
      "channel": 4,
      "note": 75,
      "start": 11.6746,
      "duration": 0.1436,
      "velocity": 127,
      "chip": "ym2612"
    },
    {
      "channel": 0,
      "note": 36,
      "start": 11.8342,
      "duration": 0.1499,
      "velocity": 127,
      "chip": "ym2612"
    },
    {
      "channel": 1,
      "note": 48,
      "start": 11.8344,
      "duration": 0.1498,
      "velocity": 127,
      "chip": "ym2612"
    },
    {
      "channel": 2,
      "note": 48,
      "start": 11.8347,
      "duration": 0.1498,
      "velocity": 127,
      "chip": "ym2612"
    },
    {
      "channel": 3,
      "note": 48,
      "start": 11.835,
      "duration": 0.1496,
      "velocity": 127,
      "chip": "ym2612"
    },
    {
      "channel": 4,
      "note": 48,
      "start": 11.8352,
      "duration": 0.1496,
      "velocity": 127,
      "chip": "ym2612"
    },
    {
      "channel": 2,
      "note": 48,
      "start": 12.0035,
      "duration": 0.0133,
      "velocity": 127,
      "chip": "ym2612"
    },
    {
      "channel": 0,
      "note": 36,
      "start": 12.0349,
      "duration": 0.3149,
      "velocity": 88,
      "chip": "ym2612"
    },
    {
      "channel": 1,
      "note": 48,
      "start": 12.0366,
      "duration": 0.1468,
      "velocity": 127,
      "chip": "ym2612"
    },
    {
      "channel": 1,
      "note": 30,
      "start": 12.2015,
      "duration": 0.0651,
      "velocity": 107,
      "chip": "ym2612"
    },
    {
      "channel": 1,
      "note": 48,
      "start": 12.2834,
      "duration": 0.0667,
      "velocity": 107,
      "chip": "ym2612"
    },
    {
      "channel": 0,
      "note": 47,
      "start": 12.3666,
      "duration": 0.1506,
      "velocity": 88,
      "chip": "ym2612"
    },
    {
      "channel": 1,
      "note": 48,
      "start": 12.3669,
      "duration": 0.1506,
      "velocity": 107,
      "chip": "ym2612"
    },
    {
      "channel": 0,
      "note": 47,
      "start": 12.5341,
      "duration": 0.1498,
      "velocity": 88,
      "chip": "ym2612"
    },
    {
      "channel": 1,
      "note": 48,
      "start": 12.5357,
      "duration": 0.1483,
      "velocity": 127,
      "chip": "ym2612"
    },
    {
      "channel": 0,
      "note": 47,
      "start": 12.7007,
      "duration": 0.3165,
      "velocity": 88,
      "chip": "ym2612"
    },
    {
      "channel": 1,
      "note": 42,
      "start": 12.7024,
      "duration": 0.1482,
      "velocity": 107,
      "chip": "ym2612"
    },
    {
      "channel": 1,
      "note": 48,
      "start": 12.8674,
      "duration": 0.1501,
      "velocity": 107,
      "chip": "ym2612"
    },
    {
      "channel": 0,
      "note": 59,
      "start": 13.0341,
      "duration": 0.3164,
      "velocity": 88,
      "chip": "ym2612"
    },
    {
      "channel": 1,
      "note": 51,
      "start": 13.0359,
      "duration": 0.1482,
      "velocity": 127,
      "chip": "ym2612"
    },
    {
      "channel": 1,
      "note": 30,
      "start": 13.2024,
      "duration": 0.065,
      "velocity": 107,
      "chip": "ym2612"
    },
    {
      "channel": 1,
      "note": 48,
      "start": 13.2842,
      "duration": 0.0666,
      "velocity": 107,
      "chip": "ym2612"
    },
    {
      "channel": 0,
      "note": 47,
      "start": 13.3675,
      "duration": 0.1497,
      "velocity": 88,
      "chip": "ym2612"
    },
    {
      "channel": 1,
      "note": 48,
      "start": 13.3677,
      "duration": 0.1497,
      "velocity": 107,
      "chip": "ym2612"
    },
    {
      "channel": 0,
      "note": 47,
      "start": 13.5341,
      "duration": 0.1498,
      "velocity": 88,
      "chip": "ym2612"
    },
    {
      "channel": 1,
      "note": 48,
      "start": 13.5358,
      "duration": 0.1483,
      "velocity": 127,
      "chip": "ym2612"
    },
    {
      "channel": 0,
      "note": 47,
      "start": 13.7008,
      "duration": 0.3165,
      "velocity": 88,
      "chip": "ym2612"
    },
    {
      "channel": 1,
      "note": 42,
      "start": 13.7024,
      "duration": 0.1483,
      "velocity": 107,
      "chip": "ym2612"
    },
    {
      "channel": 1,
      "note": 48,
      "start": 13.8674,
      "duration": 0.1501,
      "velocity": 107,
      "chip": "ym2612"
    },
    {
      "channel": 0,
      "note": 61,
      "start": 14.0342,
      "duration": 0.3164,
      "velocity": 88,
      "chip": "ym2612"
    },
    {
      "channel": 1,
      "note": 55,
      "start": 14.0359,
      "duration": 0.1482,
      "velocity": 127,
      "chip": "ym2612"
    },
    {
      "channel": 1,
      "note": 30,
      "start": 14.2023,
      "duration": 0.0651,
      "velocity": 107,
      "chip": "ym2612"
    },
    {
      "channel": 1,
      "note": 48,
      "start": 14.2841,
      "duration": 0.0667,
      "velocity": 107,
      "chip": "ym2612"
    },
    {
      "channel": 0,
      "note": 47,
      "start": 14.3673,
      "duration": 0.1499,
      "velocity": 88,
      "chip": "ym2612"
    },
    {
      "channel": 1,
      "note": 51,
      "start": 14.3676,
      "duration": 0.1498,
      "velocity": 107,
      "chip": "ym2612"
    },
    {
      "channel": 0,
      "note": 47,
      "start": 14.5341,
      "duration": 0.1498,
      "velocity": 88,
      "chip": "ym2612"
    },
    {
      "channel": 1,
      "note": 55,
      "start": 14.5358,
      "duration": 0.1483,
      "velocity": 127,
      "chip": "ym2612"
    },
    {
      "channel": 0,
      "note": 47,
      "start": 14.7007,
      "duration": 0.3166,
      "velocity": 88,
      "chip": "ym2612"
    },
    {
      "channel": 1,
      "note": 42,
      "start": 14.7024,
      "duration": 0.1483,
      "velocity": 107,
      "chip": "ym2612"
    },
    {
      "channel": 1,
      "note": 48,
      "start": 14.8675,
      "duration": 0.1499,
      "velocity": 107,
      "chip": "ym2612"
    },
    {
      "channel": 0,
      "note": 62,
      "start": 15.0341,
      "duration": 0.3165,
      "velocity": 88,
      "chip": "ym2612"
    },
    {
      "channel": 1,
      "note": 58,
      "start": 15.0358,
      "duration": 0.1483,
      "velocity": 127,
      "chip": "ym2612"
    },
    {
      "channel": 1,
      "note": 30,
      "start": 15.2023,
      "duration": 0.0651,
      "velocity": 107,
      "chip": "ym2612"
    },
    {
      "channel": 1,
      "note": 48,
      "start": 15.2841,
      "duration": 0.0667,
      "velocity": 107,
      "chip": "ym2612"
    },
    {
      "channel": 0,
      "note": 50,
      "start": 15.3674,
      "duration": 0.1498,
      "velocity": 88,
      "chip": "ym2612"
    },
    {
      "channel": 1,
      "note": 51,
      "start": 15.3676,
      "duration": 0.1498,
      "velocity": 107,
      "chip": "ym2612"
    },
    {
      "channel": 0,
      "note": 63,
      "start": 15.5341,
      "duration": 0.3164,
      "velocity": 88,
      "chip": "ym2612"
    },
    {
      "channel": 1,
      "note": 55,
      "start": 15.5359,
      "duration": 0.1482,
      "velocity": 127,
      "chip": "ym2612"
    },
    {
      "channel": 1,
      "note": 42,
      "start": 15.7022,
      "duration": 0.1486,
      "velocity": 107,
      "chip": "ym2612"
    },
    {
      "channel": 0,
      "note": 52,
      "start": 15.8673,
      "duration": 0.1492,
      "velocity": 88,
      "chip": "ym2612"
    },
    {
      "channel": 1,
      "note": 48,
      "start": 15.8676,
      "duration": 0.1491,
      "velocity": 107,
      "chip": "ym2612"
    },
    {
      "channel": 0,
      "note": 65,
      "start": 16.0334,
      "duration": 0.4831,
      "velocity": 88,
      "chip": "ym2612"
    },
    {
      "channel": 1,
      "note": 60,
      "start": 16.0351,
      "duration": 0.1482,
      "velocity": 127,
      "chip": "ym2612"
    },
    {
      "channel": 1,
      "note": 30,
      "start": 16.2016,
      "duration": 0.065,
      "velocity": 107,
      "chip": "ym2612"
    },
    {
      "channel": 1,
      "note": 48,
      "start": 16.2833,
      "duration": 0.0667,
      "velocity": 107,
      "chip": "ym2612"
    },
    {
      "channel": 1,
      "note": 51,
      "start": 16.3668,
      "duration": 0.1499,
      "velocity": 107,
      "chip": "ym2612"
    },
    {
      "channel": 0,
      "note": 54,
      "start": 16.5345,
      "duration": 0.1511,
      "velocity": 88,
      "chip": "ym2612"
    },
    {
      "channel": 1,
      "note": 55,
      "start": 16.5362,
      "duration": 0.1497,
      "velocity": 127,
      "chip": "ym2612"
    },
    {
      "channel": 0,
      "note": 63,
      "start": 16.7026,
      "duration": 0.3165,
      "velocity": 88,
      "chip": "ym2612"
    },
    {
      "channel": 1,
      "note": 42,
      "start": 16.7043,
      "duration": 0.1482,
      "velocity": 107,
      "chip": "ym2612"
    },
    {
      "channel": 1,
      "note": 51,
      "start": 16.8693,
      "duration": 0.15,
      "velocity": 107,
      "chip": "ym2612"
    },
    {
      "channel": 0,
      "note": 50,
      "start": 17.0359,
      "duration": 0.3152,
      "velocity": 88,
      "chip": "ym2612"
    },
    {
      "channel": 1,
      "note": 58,
      "start": 17.0376,
      "duration": 0.1483,
      "velocity": 127,
      "chip": "ym2612"
    },
    {
      "channel": 1,
      "note": 30,
      "start": 17.204,
      "duration": 0.0638,
      "velocity": 107,
      "chip": "ym2612"
    },
    {
      "channel": 1,
      "note": 48,
      "start": 17.2846,
      "duration": 0.0667,
      "velocity": 107,
      "chip": "ym2612"
    },
    {
      "channel": 0,
      "note": 52,
      "start": 17.3678,
      "duration": 0.1498,
      "velocity": 88,
      "chip": "ym2612"
    },
    {
      "channel": 1,
      "note": 51,
      "start": 17.3681,
      "duration": 0.1498,
      "velocity": 107,
      "chip": "ym2612"
    },
    {
      "channel": 0,
      "note": 59,
      "start": 17.5344,
      "duration": 0.1499,
      "velocity": 88,
      "chip": "ym2612"
    },
    {
      "channel": 1,
      "note": 55,
      "start": 17.5361,
      "duration": 0.1485,
      "velocity": 127,
      "chip": "ym2612"
    },
    {
      "channel": 0,
      "note": 57,
      "start": 17.7012,
      "duration": 0.3179,
      "velocity": 88,
      "chip": "ym2612"
    },
    {
      "channel": 1,
      "note": 42,
      "start": 17.7029,
      "duration": 0.1496,
      "velocity": 107,
      "chip": "ym2612"
    },
    {
      "channel": 1,
      "note": 55,
      "start": 17.8693,
      "duration": 0.15,
      "velocity": 107,
      "chip": "ym2612"
    },
    {
      "channel": 0,
      "note": 45,
      "start": 18.0359,
      "duration": 0.3152,
      "velocity": 88,
      "chip": "ym2612"
    },
    {
      "channel": 1,
      "note": 60,
      "start": 18.0376,
      "duration": 0.1483,
      "velocity": 127,
      "chip": "ym2612"
    },
    {
      "channel": 1,
      "note": 30,
      "start": 18.2041,
      "duration": 0.0651,
      "velocity": 107,
      "chip": "ym2612"
    },
    {
      "channel": 1,
      "note": 48,
      "start": 18.2846,
      "duration": 0.0667,
      "velocity": 107,
      "chip": "ym2612"
    },
    {
      "channel": 0,
      "note": 47,
      "start": 18.3678,
      "duration": 0.1498,
      "velocity": 88,
      "chip": "ym2612"
    },
    {
      "channel": 1,
      "note": 48,
      "start": 18.3681,
      "duration": 0.1498,
      "velocity": 107,
      "chip": "ym2612"
    },
    {
      "channel": 0,
      "note": 47,
      "start": 18.5344,
      "duration": 0.1499,
      "velocity": 88,
      "chip": "ym2612"
    },
    {
      "channel": 1,
      "note": 51,
      "start": 18.5362,
      "duration": 0.1484,
      "velocity": 127,
      "chip": "ym2612"
    },
    {
      "channel": 0,
      "note": 47,
      "start": 18.7011,
      "duration": 0.1513,
      "velocity": 88,
      "chip": "ym2612"
    },
    {
      "channel": 1,
      "note": 42,
      "start": 18.7028,
      "duration": 0.065,
      "velocity": 107,
      "chip": "ym2612"
    },
    {
      "channel": 1,
      "note": 51,
      "start": 18.7845,
      "duration": 0.0681,
      "velocity": 107,
      "chip": "ym2612"
    },
    {
      "channel": 0,
      "note": 50,
      "start": 18.8692,
      "duration": 0.1498,
      "velocity": 88,
      "chip": "ym2612"
    },
    {
      "channel": 1,
      "note": 51,
      "start": 18.8694,
      "duration": 0.1498,
      "velocity": 107,
      "chip": "ym2612"
    },
    {
      "channel": 0,
      "note": 51,
      "start": 19.0359,
      "duration": 0.3151,
      "velocity": 88,
      "chip": "ym2612"
    },
    {
      "channel": 1,
      "note": 55,
      "start": 19.0376,
      "duration": 0.0649,
      "velocity": 127,
      "chip": "ym2612"
    },
    {
      "channel": 1,
      "note": 30,
      "start": 19.1208,
      "duration": 0.0651,
      "velocity": 107,
      "chip": "ym2612"
    },
    {
      "channel": 1,
      "note": 51,
      "start": 19.2026,
      "duration": 0.0666,
      "velocity": 107,
      "chip": "ym2612"
    },
    {
      "channel": 1,
      "note": 55,
      "start": 19.286,
      "duration": 0.0652,
      "velocity": 107,
      "chip": "ym2612"
    },
    {
      "channel": 0,
      "note": 52,
      "start": 19.3677,
      "duration": 0.1499,
      "velocity": 88,
      "chip": "ym2612"
    },
    {
      "channel": 1,
      "note": 58,
      "start": 19.368,
      "duration": 0.0665,
      "velocity": 107,
      "chip": "ym2612"
    },
    {
      "channel": 1,
      "note": 58,
      "start": 19.4512,
      "duration": 0.0667,
      "velocity": 107,
      "chip": "ym2612"
    },
    {
      "channel": 0,
      "note": 53,
      "start": 19.5344,
      "duration": 0.1499,
      "velocity": 88,
      "chip": "ym2612"
    },
    {
      "channel": 1,
      "note": 60,
      "start": 19.5361,
      "duration": 0.065,
      "velocity": 127,
      "chip": "ym2612"
    },
    {
      "channel": 1,
      "note": 42,
      "start": 19.6194,
      "duration": 0.0652,
      "velocity": 107,
      "chip": "ym2612"
    },
    {
      "channel": 0,
      "note": 53,
      "start": 19.701,
      "duration": 0.1499,
      "velocity": 88,
      "chip": "ym2612"
    },
    {
      "channel": 1,
      "note": 58,
      "start": 19.7013,
      "duration": 0.0665,
      "velocity": 107,
      "chip": "ym2612"
    },
    {
      "channel": 1,
      "note": 55,
      "start": 19.7845,
      "duration": 0.0667,
      "velocity": 107,
      "chip": "ym2612"
    },
    {
      "channel": 0,
      "note": 55,
      "start": 19.8677,
      "duration": 0.1513,
      "velocity": 88,
      "chip": "ym2612"
    },
    {
      "channel": 1,
      "note": 55,
      "start": 19.8694,
      "duration": 0.0663,
      "velocity": 127,
      "chip": "ym2612"
    },
    {
      "channel": 1,
      "note": 42,
      "start": 19.9541,
      "duration": 0.0652,
      "velocity": 107,
      "chip": "ym2612"
    },
    {
      "channel": 0,
      "note": 57,
      "start": 20.035,
      "duration": 0.3149,
      "velocity": 88,
      "chip": "ym2612"
    },
    {
      "channel": 1,
      "note": 51,
      "start": 20.0367,
      "duration": 0.1466,
      "velocity": 127,
      "chip": "ym2612"
    },
    {
      "channel": 1,
      "note": 30,
      "start": 20.2016,
      "duration": 0.0651,
      "velocity": 107,
      "chip": "ym2612"
    },
    {
      "channel": 1,
      "note": 48,
      "start": 20.2834,
      "duration": 0.0667,
      "velocity": 107,
      "chip": "ym2612"
    },
    {
      "channel": 0,
      "note": 47,
      "start": 20.3666,
      "duration": 0.1498,
      "velocity": 88,
      "chip": "ym2612"
    },
    {
      "channel": 1,
      "note": 48,
      "start": 20.3669,
      "duration": 0.1498,
      "velocity": 107,
      "chip": "ym2612"
    },
    {
      "channel": 0,
      "note": 47,
      "start": 20.5334,
      "duration": 0.1508,
      "velocity": 88,
      "chip": "ym2612"
    },
    {
      "channel": 1,
      "note": 48,
      "start": 20.5351,
      "duration": 0.1492,
      "velocity": 127,
      "chip": "ym2612"
    },
    {
      "channel": 0,
      "note": 47,
      "start": 20.7009,
      "duration": 0.3163,
      "velocity": 88,
      "chip": "ym2612"
    },
    {
      "channel": 1,
      "note": 42,
      "start": 20.7026,
      "duration": 0.1482,
      "velocity": 107,
      "chip": "ym2612"
    },
    {
      "channel": 1,
      "note": 48,
      "start": 20.8676,
      "duration": 0.1498,
      "velocity": 107,
      "chip": "ym2612"
    },
    {
      "channel": 0,
      "note": 59,
      "start": 21.0341,
      "duration": 0.3164,
      "velocity": 88,
      "chip": "ym2612"
    },
    {
      "channel": 1,
      "note": 51,
      "start": 21.0359,
      "duration": 0.1482,
      "velocity": 127,
      "chip": "ym2612"
    },
    {
      "channel": 1,
      "note": 30,
      "start": 21.2022,
      "duration": 0.0651,
      "velocity": 107,
      "chip": "ym2612"
    },
    {
      "channel": 1,
      "note": 48,
      "start": 21.2841,
      "duration": 0.0667,
      "velocity": 107,
      "chip": "ym2612"
    },
    {
      "channel": 0,
      "note": 47,
      "start": 21.3673,
      "duration": 0.1501,
      "velocity": 88,
      "chip": "ym2612"
    },
    {
      "channel": 1,
      "note": 48,
      "start": 21.3676,
      "duration": 0.15,
      "velocity": 107,
      "chip": "ym2612"
    },
    {
      "channel": 0,
      "note": 47,
      "start": 21.5342,
      "duration": 0.1498,
      "velocity": 88,
      "chip": "ym2612"
    },
    {
      "channel": 1,
      "note": 48,
      "start": 21.5359,
      "duration": 0.1483,
      "velocity": 127,
      "chip": "ym2612"
    },
    {
      "channel": 0,
      "note": 47,
      "start": 21.7009,
      "duration": 0.3163,
      "velocity": 88,
      "chip": "ym2612"
    },
    {
      "channel": 1,
      "note": 42,
      "start": 21.7026,
      "duration": 0.1483,
      "velocity": 107,
      "chip": "ym2612"
    },
    {
      "channel": 1,
      "note": 48,
      "start": 21.8675,
      "duration": 0.15,
      "velocity": 107,
      "chip": "ym2612"
    },
    {
      "channel": 0,
      "note": 61,
      "start": 22.0341,
      "duration": 0.3166,
      "velocity": 88,
      "chip": "ym2612"
    },
    {
      "channel": 1,
      "note": 55,
      "start": 22.0357,
      "duration": 0.1483,
      "velocity": 127,
      "chip": "ym2612"
    },
    {
      "channel": 1,
      "note": 30,
      "start": 22.2023,
      "duration": 0.0651,
      "velocity": 107,
      "chip": "ym2612"
    },
    {
      "channel": 1,
      "note": 48,
      "start": 22.2841,
      "duration": 0.0667,
      "velocity": 107,
      "chip": "ym2612"
    },
    {
      "channel": 0,
      "note": 47,
      "start": 22.3674,
      "duration": 0.1498,
      "velocity": 88,
      "chip": "ym2612"
    },
    {
      "channel": 1,
      "note": 51,
      "start": 22.3676,
      "duration": 0.1498,
      "velocity": 107,
      "chip": "ym2612"
    },
    {
      "channel": 0,
      "note": 47,
      "start": 22.5341,
      "duration": 0.1499,
      "velocity": 88,
      "chip": "ym2612"
    },
    {
      "channel": 1,
      "note": 55,
      "start": 22.5359,
      "duration": 0.1484,
      "velocity": 127,
      "chip": "ym2612"
    },
    {
      "channel": 0,
      "note": 47,
      "start": 22.701,
      "duration": 0.3163,
      "velocity": 88,
      "chip": "ym2612"
    },
    {
      "channel": 1,
      "note": 42,
      "start": 22.7026,
      "duration": 0.1483,
      "velocity": 107,
      "chip": "ym2612"
    },
    {
      "channel": 1,
      "note": 48,
      "start": 22.8676,
      "duration": 0.1499,
      "velocity": 107,
      "chip": "ym2612"
    },
    {
      "channel": 0,
      "note": 62,
      "start": 23.0343,
      "duration": 0.3163,
      "velocity": 88,
      "chip": "ym2612"
    },
    {
      "channel": 1,
      "note": 58,
      "start": 23.0359,
      "duration": 0.1481,
      "velocity": 127,
      "chip": "ym2612"
    },
    {
      "channel": 1,
      "note": 30,
      "start": 23.2023,
      "duration": 0.065,
      "velocity": 107,
      "chip": "ym2612"
    },
    {
      "channel": 1,
      "note": 48,
      "start": 23.2842,
      "duration": 0.0665,
      "velocity": 107,
      "chip": "ym2612"
    },
    {
      "channel": 0,
      "note": 50,
      "start": 23.3675,
      "duration": 0.1498,
      "velocity": 88,
      "chip": "ym2612"
    },
    {
      "channel": 1,
      "note": 51,
      "start": 23.3677,
      "duration": 0.1498,
      "velocity": 107,
      "chip": "ym2612"
    },
    {
      "channel": 0,
      "note": 63,
      "start": 23.5341,
      "duration": 0.3167,
      "velocity": 88,
      "chip": "ym2612"
    },
    {
      "channel": 1,
      "note": 55,
      "start": 23.5357,
      "duration": 0.1485,
      "velocity": 127,
      "chip": "ym2612"
    },
    {
      "channel": 1,
      "note": 42,
      "start": 23.7024,
      "duration": 0.1486,
      "velocity": 107,
      "chip": "ym2612"
    },
    {
      "channel": 0,
      "note": 52,
      "start": 23.8675,
      "duration": 0.1498,
      "velocity": 88,
      "chip": "ym2612"
    },
    {
      "channel": 1,
      "note": 48,
      "start": 23.8678,
      "duration": 0.1498,
      "velocity": 107,
      "chip": "ym2612"
    },
    {
      "channel": 0,
      "note": 65,
      "start": 24.0343,
      "duration": 0.4822,
      "velocity": 88,
      "chip": "ym2612"
    },
    {
      "channel": 1,
      "note": 60,
      "start": 24.036,
      "duration": 0.1474,
      "velocity": 127,
      "chip": "ym2612"
    },
    {
      "channel": 1,
      "note": 30,
      "start": 24.2015,
      "duration": 0.0651,
      "velocity": 107,
      "chip": "ym2612"
    },
    {
      "channel": 1,
      "note": 48,
      "start": 24.2834,
      "duration": 0.0667,
      "velocity": 107,
      "chip": "ym2612"
    },
    {
      "channel": 1,
      "note": 51,
      "start": 24.3667,
      "duration": 0.15,
      "velocity": 107,
      "chip": "ym2612"
    },
    {
      "channel": 0,
      "note": 54,
      "start": 24.5334,
      "duration": 0.1506,
      "velocity": 88,
      "chip": "ym2612"
    },
    {
      "channel": 1,
      "note": 55,
      "start": 24.535,
      "duration": 0.1492,
      "velocity": 127,
      "chip": "ym2612"
    },
    {
      "channel": 0,
      "note": 63,
      "start": 24.7007,
      "duration": 0.3165,
      "velocity": 88,
      "chip": "ym2612"
    },
    {
      "channel": 1,
      "note": 42,
      "start": 24.7024,
      "duration": 0.1483,
      "velocity": 107,
      "chip": "ym2612"
    },
    {
      "channel": 1,
      "note": 51,
      "start": 24.8675,
      "duration": 0.1499,
      "velocity": 107,
      "chip": "ym2612"
    },
    {
      "channel": 0,
      "note": 50,
      "start": 25.034,
      "duration": 0.318,
      "velocity": 88,
      "chip": "ym2612"
    },
    {
      "channel": 1,
      "note": 58,
      "start": 25.0357,
      "duration": 0.1498,
      "velocity": 127,
      "chip": "ym2612"
    },
    {
      "channel": 1,
      "note": 30,
      "start": 25.2036,
      "duration": 0.0651,
      "velocity": 107,
      "chip": "ym2612"
    },
    {
      "channel": 1,
      "note": 48,
      "start": 25.2855,
      "duration": 0.0667,
      "velocity": 107,
      "chip": "ym2612"
    },
    {
      "channel": 0,
      "note": 52,
      "start": 25.3687,
      "duration": 0.1498,
      "velocity": 88,
      "chip": "ym2612"
    },
    {
      "channel": 1,
      "note": 51,
      "start": 25.369,
      "duration": 0.1498,
      "velocity": 107,
      "chip": "ym2612"
    },
    {
      "channel": 0,
      "note": 59,
      "start": 25.5355,
      "duration": 0.1498,
      "velocity": 88,
      "chip": "ym2612"
    },
    {
      "channel": 1,
      "note": 55,
      "start": 25.5371,
      "duration": 0.1483,
      "velocity": 127,
      "chip": "ym2612"
    },
    {
      "channel": 0,
      "note": 57,
      "start": 25.7021,
      "duration": 0.3151,
      "velocity": 88,
      "chip": "ym2612"
    },
    {
      "channel": 1,
      "note": 42,
      "start": 25.7038,
      "duration": 0.1469,
      "velocity": 107,
      "chip": "ym2612"
    },
    {
      "channel": 1,
      "note": 55,
      "start": 25.8674,
      "duration": 0.1501,
      "velocity": 107,
      "chip": "ym2612"
    },
    {
      "channel": 0,
      "note": 45,
      "start": 26.0341,
      "duration": 0.3179,
      "velocity": 88,
      "chip": "ym2612"
    },
    {
      "channel": 1,
      "note": 60,
      "start": 26.0359,
      "duration": 0.1482,
      "velocity": 127,
      "chip": "ym2612"
    },
    {
      "channel": 1,
      "note": 30,
      "start": 26.2023,
      "duration": 0.0665,
      "velocity": 107,
      "chip": "ym2612"
    },
    {
      "channel": 1,
      "note": 48,
      "start": 26.2855,
      "duration": 0.0667,
      "velocity": 107,
      "chip": "ym2612"
    },
    {
      "channel": 0,
      "note": 47,
      "start": 26.3687,
      "duration": 0.1499,
      "velocity": 88,
      "chip": "ym2612"
    },
    {
      "channel": 1,
      "note": 48,
      "start": 26.369,
      "duration": 0.1498,
      "velocity": 107,
      "chip": "ym2612"
    },
    {
      "channel": 0,
      "note": 47,
      "start": 26.5353,
      "duration": 0.15,
      "velocity": 88,
      "chip": "ym2612"
    },
    {
      "channel": 1,
      "note": 51,
      "start": 26.5371,
      "duration": 0.1484,
      "velocity": 127,
      "chip": "ym2612"
    },
    {
      "channel": 0,
      "note": 47,
      "start": 26.702,
      "duration": 0.1485,
      "velocity": 88,
      "chip": "ym2612"
    },
    {
      "channel": 1,
      "note": 42,
      "start": 26.7037,
      "duration": 0.065,
      "velocity": 107,
      "chip": "ym2612"
    },
    {
      "channel": 1,
      "note": 51,
      "start": 26.7841,
      "duration": 0.0667,
      "velocity": 107,
      "chip": "ym2612"
    },
    {
      "channel": 0,
      "note": 50,
      "start": 26.8673,
      "duration": 0.15,
      "velocity": 88,
      "chip": "ym2612"
    },
    {
      "channel": 1,
      "note": 51,
      "start": 26.8676,
      "duration": 0.1499,
      "velocity": 107,
      "chip": "ym2612"
    },
    {
      "channel": 0,
      "note": 51,
      "start": 27.0341,
      "duration": 0.3179,
      "velocity": 88,
      "chip": "ym2612"
    },
    {
      "channel": 1,
      "note": 55,
      "start": 27.0357,
      "duration": 0.065,
      "velocity": 127,
      "chip": "ym2612"
    },
    {
      "channel": 1,
      "note": 30,
      "start": 27.1189,
      "duration": 0.0651,
      "velocity": 107,
      "chip": "ym2612"
    },
    {
      "channel": 1,
      "note": 51,
      "start": 27.2008,
      "duration": 0.0666,
      "velocity": 107,
      "chip": "ym2612"
    },
    {
      "channel": 1,
      "note": 55,
      "start": 27.2841,
      "duration": 0.0681,
      "velocity": 107,
      "chip": "ym2612"
    },
    {
      "channel": 0,
      "note": 52,
      "start": 27.3687,
      "duration": 0.1499,
      "velocity": 88,
      "chip": "ym2612"
    },
    {
      "channel": 1,
      "note": 58,
      "start": 27.369,
      "duration": 0.0664,
      "velocity": 107,
      "chip": "ym2612"
    },
    {
      "channel": 1,
      "note": 58,
      "start": 27.4521,
      "duration": 0.0667,
      "velocity": 107,
      "chip": "ym2612"
    },
    {
      "channel": 0,
      "note": 53,
      "start": 27.5353,
      "duration": 0.15,
      "velocity": 88,
      "chip": "ym2612"
    },
    {
      "channel": 1,
      "note": 60,
      "start": 27.5371,
      "duration": 0.065,
      "velocity": 127,
      "chip": "ym2612"
    },
    {
      "channel": 1,
      "note": 42,
      "start": 27.6203,
      "duration": 0.0652,
      "velocity": 107,
      "chip": "ym2612"
    },
    {
      "channel": 0,
      "note": 53,
      "start": 27.702,
      "duration": 0.1486,
      "velocity": 88,
      "chip": "ym2612"
    },
    {
      "channel": 1,
      "note": 58,
      "start": 27.7023,
      "duration": 0.0665,
      "velocity": 107,
      "chip": "ym2612"
    },
    {
      "channel": 1,
      "note": 55,
      "start": 27.7855,
      "duration": 0.0653,
      "velocity": 107,
      "chip": "ym2612"
    },
    {
      "channel": 0,
      "note": 55,
      "start": 27.8673,
      "duration": 0.1499,
      "velocity": 88,
      "chip": "ym2612"
    },
    {
      "channel": 1,
      "note": 55,
      "start": 27.869,
      "duration": 0.065,
      "velocity": 127,
      "chip": "ym2612"
    },
    {
      "channel": 1,
      "note": 42,
      "start": 27.9523,
      "duration": 0.0652,
      "velocity": 107,
      "chip": "ym2612"
    },
    {
      "channel": 0,
      "note": 57,
      "start": 28.0357,
      "duration": 0.9816,
      "velocity": 88,
      "chip": "ym2612"
    },
    {
      "channel": 1,
      "note": 51,
      "start": 28.0374,
      "duration": 0.1459,
      "velocity": 127,
      "chip": "ym2612"
    },
    {
      "channel": 1,
      "note": 30,
      "start": 28.2015,
      "duration": 0.0651,
      "velocity": 107,
      "chip": "ym2612"
    },
    {
      "channel": 1,
      "note": 48,
      "start": 28.2833,
      "duration": 0.0667,
      "velocity": 107,
      "chip": "ym2612"
    },
    {
      "channel": 1,
      "note": 48,
      "start": 28.3668,
      "duration": 0.1499,
      "velocity": 107,
      "chip": "ym2612"
    },
    {
      "channel": 1,
      "note": 48,
      "start": 28.5348,
      "duration": 0.1492,
      "velocity": 127,
      "chip": "ym2612"
    },
    {
      "channel": 1,
      "note": 42,
      "start": 28.7023,
      "duration": 0.1484,
      "velocity": 107,
      "chip": "ym2612"
    },
    {
      "channel": 1,
      "note": 48,
      "start": 28.8674,
      "duration": 0.1501,
      "velocity": 107,
      "chip": "ym2612"
    },
    {
      "channel": 0,
      "note": 51,
      "start": 29.0341,
      "duration": 0.4832,
      "velocity": 88,
      "chip": "ym2612"
    },
    {
      "channel": 1,
      "note": 51,
      "start": 29.0357,
      "duration": 0.1484,
      "velocity": 127,
      "chip": "ym2612"
    },
    {
      "channel": 1,
      "note": 30,
      "start": 29.2023,
      "duration": 0.0651,
      "velocity": 107,
      "chip": "ym2612"
    },
    {
      "channel": 1,
      "note": 48,
      "start": 29.2841,
      "duration": 0.0666,
      "velocity": 107,
      "chip": "ym2612"
    },
    {
      "channel": 1,
      "note": 48,
      "start": 29.3675,
      "duration": 0.1499,
      "velocity": 107,
      "chip": "ym2612"
    },
    {
      "channel": 0,
      "note": 50,
      "start": 29.5341,
      "duration": 0.4832,
      "velocity": 88,
      "chip": "ym2612"
    },
    {
      "channel": 1,
      "note": 48,
      "start": 29.5358,
      "duration": 0.1483,
      "velocity": 127,
      "chip": "ym2612"
    },
    {
      "channel": 1,
      "note": 42,
      "start": 29.7023,
      "duration": 0.1484,
      "velocity": 107,
      "chip": "ym2612"
    },
    {
      "channel": 1,
      "note": 48,
      "start": 29.8674,
      "duration": 0.1501,
      "velocity": 107,
      "chip": "ym2612"
    },
    {
      "channel": 0,
      "note": 42,
      "start": 30.0342,
      "duration": 0.3163,
      "velocity": 88,
      "chip": "ym2612"
    },
    {
      "channel": 1,
      "note": 55,
      "start": 30.0359,
      "duration": 0.1482,
      "velocity": 127,
      "chip": "ym2612"
    },
    {
      "channel": 1,
      "note": 30,
      "start": 30.2024,
      "duration": 0.065,
      "velocity": 107,
      "chip": "ym2612"
    },
    {
      "channel": 1,
      "note": 48,
      "start": 30.2841,
      "duration": 0.0667,
      "velocity": 107,
      "chip": "ym2612"
    },
    {
      "channel": 0,
      "note": 47,
      "start": 30.3675,
      "duration": 0.1497,
      "velocity": 88,
      "chip": "ym2612"
    },
    {
      "channel": 1,
      "note": 51,
      "start": 30.3677,
      "duration": 0.1497,
      "velocity": 107,
      "chip": "ym2612"
    },
    {
      "channel": 0,
      "note": 43,
      "start": 30.5341,
      "duration": 0.1498,
      "velocity": 88,
      "chip": "ym2612"
    },
    {
      "channel": 1,
      "note": 55,
      "start": 30.5358,
      "duration": 0.1483,
      "velocity": 127,
      "chip": "ym2612"
    },
    {
      "channel": 0,
      "note": 47,
      "start": 30.7008,
      "duration": 0.1498,
      "velocity": 88,
      "chip": "ym2612"
    },
    {
      "channel": 1,
      "note": 42,
      "start": 30.7024,
      "duration": 0.1483,
      "velocity": 107,
      "chip": "ym2612"
    },
    {
      "channel": 0,
      "note": 50,
      "start": 30.8673,
      "duration": 0.1498,
      "velocity": 88,
      "chip": "ym2612"
    },
    {
      "channel": 1,
      "note": 48,
      "start": 30.8676,
      "duration": 0.1498,
      "velocity": 107,
      "chip": "ym2612"
    },
    {
      "channel": 0,
      "note": 51,
      "start": 31.0341,
      "duration": 0.1499,
      "velocity": 88,
      "chip": "ym2612"
    },
    {
      "channel": 1,
      "note": 58,
      "start": 31.0358,
      "duration": 0.1484,
      "velocity": 127,
      "chip": "ym2612"
    },
    {
      "channel": 0,
      "note": 50,
      "start": 31.2007,
      "duration": 0.1499,
      "velocity": 88,
      "chip": "ym2612"
    },
    {
      "channel": 1,
      "note": 30,
      "start": 31.2024,
      "duration": 0.0649,
      "velocity": 107,
      "chip": "ym2612"
    },
    {
      "channel": 1,
      "note": 48,
      "start": 31.2841,
      "duration": 0.0667,
      "velocity": 107,
      "chip": "ym2612"
    },
    {
      "channel": 0,
      "note": 51,
      "start": 31.3673,
      "duration": 0.1499,
      "velocity": 88,
      "chip": "ym2612"
    },
    {
      "channel": 1,
      "note": 51,
      "start": 31.3676,
      "duration": 0.1498,
      "velocity": 107,
      "chip": "ym2612"
    },
    {
      "channel": 0,
      "note": 53,
      "start": 31.5341,
      "duration": 0.1498,
      "velocity": 88,
      "chip": "ym2612"
    },
    {
      "channel": 1,
      "note": 55,
      "start": 31.5358,
      "duration": 0.1483,
      "velocity": 127,
      "chip": "ym2612"
    },
    {
      "channel": 0,
      "note": 53,
      "start": 31.7007,
      "duration": 0.3166,
      "velocity": 88,
      "chip": "ym2612"
    },
    {
      "channel": 1,
      "note": 42,
      "start": 31.7024,
      "duration": 0.1483,
      "velocity": 107,
      "chip": "ym2612"
    },
    {
      "channel": 1,
      "note": 48,
      "start": 31.8675,
      "duration": 0.1499,
      "velocity": 107,
      "chip": "ym2612"
    },
    {
      "channel": 0,
      "note": 45,
      "start": 32.0341,
      "duration": 0.9832,
      "velocity": 88,
      "chip": "ym2612"
    },
    {
      "channel": 1,
      "note": 60,
      "start": 32.0358,
      "duration": 0.1476,
      "velocity": 127,
      "chip": "ym2612"
    },
    {
      "channel": 1,
      "note": 30,
      "start": 32.2015,
      "duration": 0.0651,
      "velocity": 107,
      "chip": "ym2612"
    },
    {
      "channel": 1,
      "note": 48,
      "start": 32.2834,
      "duration": 0.0666,
      "velocity": 107,
      "chip": "ym2612"
    },
    {
      "channel": 1,
      "note": 51,
      "start": 32.3667,
      "duration": 0.15,
      "velocity": 107,
      "chip": "ym2612"
    },
    {
      "channel": 1,
      "note": 55,
      "start": 32.5348,
      "duration": 0.1492,
      "velocity": 127,
      "chip": "ym2612"
    },
    {
      "channel": 1,
      "note": 42,
      "start": 32.7023,
      "duration": 0.1484,
      "velocity": 107,
      "chip": "ym2612"
    },
    {
      "channel": 1,
      "note": 51,
      "start": 32.8674,
      "duration": 0.1501,
      "velocity": 107,
      "chip": "ym2612"
    },
    {
      "channel": 0,
      "note": 39,
      "start": 33.0342,
      "duration": 0.483,
      "velocity": 88,
      "chip": "ym2612"
    },
    {
      "channel": 1,
      "note": 58,
      "start": 33.0359,
      "duration": 0.1481,
      "velocity": 127,
      "chip": "ym2612"
    },
    {
      "channel": 1,
      "note": 30,
      "start": 33.2023,
      "duration": 0.0651,
      "velocity": 107,
      "chip": "ym2612"
    },
    {
      "channel": 1,
      "note": 48,
      "start": 33.2841,
      "duration": 0.0667,
      "velocity": 107,
      "chip": "ym2612"
    },
    {
      "channel": 1,
      "note": 51,
      "start": 33.3675,
      "duration": 0.15,
      "velocity": 107,
      "chip": "ym2612"
    },
    {
      "channel": 0,
      "note": 38,
      "start": 33.534,
      "duration": 0.4833,
      "velocity": 88,
      "chip": "ym2612"
    },
    {
      "channel": 1,
      "note": 55,
      "start": 33.5356,
      "duration": 0.1484,
      "velocity": 127,
      "chip": "ym2612"
    },
    {
      "channel": 1,
      "note": 42,
      "start": 33.7023,
      "duration": 0.1484,
      "velocity": 107,
      "chip": "ym2612"
    },
    {
      "channel": 1,
      "note": 55,
      "start": 33.8675,
      "duration": 0.1499,
      "velocity": 107,
      "chip": "ym2612"
    },
    {
      "channel": 0,
      "note": 42,
      "start": 34.0342,
      "duration": 0.1498,
      "velocity": 88,
      "chip": "ym2612"
    },
    {
      "channel": 1,
      "note": 60,
      "start": 34.0359,
      "duration": 0.1483,
      "velocity": 127,
      "chip": "ym2612"
    },
    {
      "channel": 0,
      "note": 47,
      "start": 34.2009,
      "duration": 0.0664,
      "velocity": 88,
      "chip": "ym2612"
    },
    {
      "channel": 1,
      "note": 30,
      "start": 34.2025,
      "duration": 0.0649,
      "velocity": 107,
      "chip": "ym2612"
    },
    {
      "channel": 0,
      "note": 48,
      "start": 34.284,
      "duration": 0.0665,
      "velocity": 88,
      "chip": "ym2612"
    },
    {
      "channel": 1,
      "note": 48,
      "start": 34.2843,
      "duration": 0.0665,
      "velocity": 107,
      "chip": "ym2612"
    },
    {
      "channel": 0,
      "note": 48,
      "start": 34.3674,
      "duration": 0.1498,
      "velocity": 88,
      "chip": "ym2612"
    },
    {
      "channel": 1,
      "note": 48,
      "start": 34.3676,
      "duration": 0.1498,
      "velocity": 107,
      "chip": "ym2612"
    },
    {
      "channel": 0,
      "note": 47,
      "start": 34.534,
      "duration": 0.15,
      "velocity": 88,
      "chip": "ym2612"
    },
    {
      "channel": 1,
      "note": 51,
      "start": 34.5357,
      "duration": 0.1484,
      "velocity": 127,
      "chip": "ym2612"
    },
    {
      "channel": 0,
      "note": 59,
      "start": 34.7007,
      "duration": 0.1499,
      "velocity": 88,
      "chip": "ym2612"
    },
    {
      "channel": 1,
      "note": 42,
      "start": 34.7024,
      "duration": 0.065,
      "velocity": 107,
      "chip": "ym2612"
    },
    {
      "channel": 1,
      "note": 51,
      "start": 34.7841,
      "duration": 0.0667,
      "velocity": 107,
      "chip": "ym2612"
    },
    {
      "channel": 0,
      "note": 57,
      "start": 34.8674,
      "duration": 0.1498,
      "velocity": 88,
      "chip": "ym2612"
    },
    {
      "channel": 1,
      "note": 51,
      "start": 34.8676,
      "duration": 0.1498,
      "velocity": 107,
      "chip": "ym2612"
    },
    {
      "channel": 0,
      "note": 59,
      "start": 35.0341,
      "duration": 0.1498,
      "velocity": 88,
      "chip": "ym2612"
    },
    {
      "channel": 1,
      "note": 55,
      "start": 35.0358,
      "duration": 0.065,
      "velocity": 127,
      "chip": "ym2612"
    },
    {
      "channel": 1,
      "note": 30,
      "start": 35.1189,
      "duration": 0.0652,
      "velocity": 107,
      "chip": "ym2612"
    },
    {
      "channel": 0,
      "note": 47,
      "start": 35.2007,
      "duration": 0.0667,
      "velocity": 88,
      "chip": "ym2612"
    },
    {
      "channel": 1,
      "note": 51,
      "start": 35.2009,
      "duration": 0.0666,
      "velocity": 107,
      "chip": "ym2612"
    },
    {
      "channel": 0,
      "note": 48,
      "start": 35.2839,
      "duration": 0.0666,
      "velocity": 88,
      "chip": "ym2612"
    },
    {
      "channel": 1,
      "note": 55,
      "start": 35.2842,
      "duration": 0.0665,
      "velocity": 107,
      "chip": "ym2612"
    },
    {
      "channel": 0,
      "note": 60,
      "start": 35.3673,
      "duration": 0.15,
      "velocity": 88,
      "chip": "ym2612"
    },
    {
      "channel": 1,
      "note": 58,
      "start": 35.3675,
      "duration": 0.0665,
      "velocity": 107,
      "chip": "ym2612"
    },
    {
      "channel": 1,
      "note": 58,
      "start": 35.4508,
      "duration": 0.0667,
      "velocity": 107,
      "chip": "ym2612"
    },
    {
      "channel": 0,
      "note": 47,
      "start": 35.5341,
      "duration": 0.1498,
      "velocity": 88,
      "chip": "ym2612"
    },
    {
      "channel": 1,
      "note": 60,
      "start": 35.5357,
      "duration": 0.065,
      "velocity": 127,
      "chip": "ym2612"
    },
    {
      "channel": 1,
      "note": 42,
      "start": 35.6189,
      "duration": 0.0652,
      "velocity": 107,
      "chip": "ym2612"
    },
    {
      "channel": 0,
      "note": 59,
      "start": 35.7007,
      "duration": 0.15,
      "velocity": 88,
      "chip": "ym2612"
    },
    {
      "channel": 1,
      "note": 58,
      "start": 35.7009,
      "duration": 0.0665,
      "velocity": 107,
      "chip": "ym2612"
    },
    {
      "channel": 1,
      "note": 55,
      "start": 35.7841,
      "duration": 0.0667,
      "velocity": 107,
      "chip": "ym2612"
    },
    {
      "channel": 0,
      "note": 55,
      "start": 35.8674,
      "duration": 0.1498,
      "velocity": 88,
      "chip": "ym2612"
    },
    {
      "channel": 1,
      "note": 55,
      "start": 35.869,
      "duration": 0.065,
      "velocity": 127,
      "chip": "ym2612"
    },
    {
      "channel": 1,
      "note": 42,
      "start": 35.9523,
      "duration": 0.0652,
      "velocity": 107,
      "chip": "ym2612"
    },
    {
      "channel": 0,
      "note": 53,
      "start": 36.0357,
      "duration": 0.3142,
      "velocity": 88,
      "chip": "ym2612"
    },
    {
      "channel": 1,
      "note": 51,
      "start": 36.0374,
      "duration": 0.1459,
      "velocity": 127,
      "chip": "ym2612"
    },
    {
      "channel": 1,
      "note": 30,
      "start": 36.2016,
      "duration": 0.0651,
      "velocity": 107,
      "chip": "ym2612"
    },
    {
      "channel": 1,
      "note": 48,
      "start": 36.2834,
      "duration": 0.0667,
      "velocity": 107,
      "chip": "ym2612"
    },
    {
      "channel": 0,
      "note": 47,
      "start": 36.3666,
      "duration": 0.1499,
      "velocity": 88,
      "chip": "ym2612"
    },
    {
      "channel": 1,
      "note": 48,
      "start": 36.3669,
      "duration": 0.1498,
      "velocity": 107,
      "chip": "ym2612"
    },
    {
      "channel": 0,
      "note": 47,
      "start": 36.5332,
      "duration": 0.1525,
      "velocity": 88,
      "chip": "ym2612"
    },
    {
      "channel": 1,
      "note": 48,
      "start": 36.535,
      "duration": 0.151,
      "velocity": 127,
      "chip": "ym2612"
    },
    {
      "channel": 0,
      "note": 47,
      "start": 36.7025,
      "duration": 0.3152,
      "velocity": 88,
      "chip": "ym2612"
    },
    {
      "channel": 1,
      "note": 42,
      "start": 36.7042,
      "duration": 0.1483,
      "velocity": 107,
      "chip": "ym2612"
    },
    {
      "channel": 1,
      "note": 48,
      "start": 36.8679,
      "duration": 0.1501,
      "velocity": 107,
      "chip": "ym2612"
    },
    {
      "channel": 0,
      "note": 59,
      "start": 37.0345,
      "duration": 0.3165,
      "velocity": 88,
      "chip": "ym2612"
    },
    {
      "channel": 1,
      "note": 51,
      "start": 37.0362,
      "duration": 0.1482,
      "velocity": 127,
      "chip": "ym2612"
    },
    {
      "channel": 1,
      "note": 30,
      "start": 37.2027,
      "duration": 0.0651,
      "velocity": 107,
      "chip": "ym2612"
    },
    {
      "channel": 1,
      "note": 48,
      "start": 37.2846,
      "duration": 0.0667,
      "velocity": 107,
      "chip": "ym2612"
    },
    {
      "channel": 0,
      "note": 47,
      "start": 37.3678,
      "duration": 0.1512,
      "velocity": 88,
      "chip": "ym2612"
    },
    {
      "channel": 1,
      "note": 48,
      "start": 37.3681,
      "duration": 0.1512,
      "velocity": 107,
      "chip": "ym2612"
    },
    {
      "channel": 0,
      "note": 47,
      "start": 37.5358,
      "duration": 0.1499,
      "velocity": 88,
      "chip": "ym2612"
    },
    {
      "channel": 1,
      "note": 48,
      "start": 37.5375,
      "duration": 0.1484,
      "velocity": 127,
      "chip": "ym2612"
    },
    {
      "channel": 0,
      "note": 47,
      "start": 37.7026,
      "duration": 0.3151,
      "velocity": 88,
      "chip": "ym2612"
    },
    {
      "channel": 1,
      "note": 42,
      "start": 37.7043,
      "duration": 0.1483,
      "velocity": 107,
      "chip": "ym2612"
    },
    {
      "channel": 1,
      "note": 48,
      "start": 37.8693,
      "duration": 0.1487,
      "velocity": 107,
      "chip": "ym2612"
    },
    {
      "channel": 0,
      "note": 61,
      "start": 38.0345,
      "duration": 0.3165,
      "velocity": 88,
      "chip": "ym2612"
    },
    {
      "channel": 1,
      "note": 55,
      "start": 38.0362,
      "duration": 0.1482,
      "velocity": 127,
      "chip": "ym2612"
    },
    {
      "channel": 1,
      "note": 30,
      "start": 38.2027,
      "duration": 0.0651,
      "velocity": 107,
      "chip": "ym2612"
    },
    {
      "channel": 1,
      "note": 48,
      "start": 38.2846,
      "duration": 0.0667,
      "velocity": 107,
      "chip": "ym2612"
    },
    {
      "channel": 0,
      "note": 47,
      "start": 38.3678,
      "duration": 0.1512,
      "velocity": 88,
      "chip": "ym2612"
    },
    {
      "channel": 1,
      "note": 51,
      "start": 38.3681,
      "duration": 0.1512,
      "velocity": 107,
      "chip": "ym2612"
    },
    {
      "channel": 0,
      "note": 47,
      "start": 38.5358,
      "duration": 0.1499,
      "velocity": 88,
      "chip": "ym2612"
    },
    {
      "channel": 1,
      "note": 55,
      "start": 38.5375,
      "duration": 0.1485,
      "velocity": 127,
      "chip": "ym2612"
    },
    {
      "channel": 0,
      "note": 47,
      "start": 38.7026,
      "duration": 0.315,
      "velocity": 88,
      "chip": "ym2612"
    },
    {
      "channel": 1,
      "note": 42,
      "start": 38.7044,
      "duration": 0.1482,
      "velocity": 107,
      "chip": "ym2612"
    },
    {
      "channel": 1,
      "note": 48,
      "start": 38.8693,
      "duration": 0.1486,
      "velocity": 107,
      "chip": "ym2612"
    },
    {
      "channel": 0,
      "note": 62,
      "start": 39.0345,
      "duration": 0.3164,
      "velocity": 88,
      "chip": "ym2612"
    },
    {
      "channel": 1,
      "note": 58,
      "start": 39.0362,
      "duration": 0.1482,
      "velocity": 127,
      "chip": "ym2612"
    },
    {
      "channel": 1,
      "note": 30,
      "start": 39.2028,
      "duration": 0.0651,
      "velocity": 107,
      "chip": "ym2612"
    },
    {
      "channel": 1,
      "note": 48,
      "start": 39.2846,
      "duration": 0.0666,
      "velocity": 107,
      "chip": "ym2612"
    },
    {
      "channel": 0,
      "note": 50,
      "start": 39.3678,
      "duration": 0.1499,
      "velocity": 88,
      "chip": "ym2612"
    },
    {
      "channel": 1,
      "note": 51,
      "start": 39.3681,
      "duration": 0.1498,
      "velocity": 107,
      "chip": "ym2612"
    },
    {
      "channel": 0,
      "note": 63,
      "start": 39.5359,
      "duration": 0.3166,
      "velocity": 88,
      "chip": "ym2612"
    },
    {
      "channel": 1,
      "note": 55,
      "start": 39.5376,
      "duration": 0.1483,
      "velocity": 127,
      "chip": "ym2612"
    },
    {
      "channel": 1,
      "note": 42,
      "start": 39.7041,
      "duration": 0.1485,
      "velocity": 107,
      "chip": "ym2612"
    },
    {
      "channel": 0,
      "note": 52,
      "start": 39.8693,
      "duration": 0.1498,
      "velocity": 88,
      "chip": "ym2612"
    },
    {
      "channel": 1,
      "note": 48,
      "start": 39.8695,
      "duration": 0.1498,
      "velocity": 107,
      "chip": "ym2612"
    },
    {
      "channel": 0,
      "note": 65,
      "start": 40.036,
      "duration": 0.1471,
      "velocity": 88,
      "chip": "ym2612"
    },
    {
      "channel": 1,
      "note": 60,
      "start": 40.0376,
      "duration": 0.1457,
      "velocity": 127,
      "chip": "ym2612"
    },
    {
      "channel": 0,
      "note": 59,
      "start": 40.2,
      "duration": 0.1498,
      "velocity": 88,
      "chip": "ym2612"
    },
    {
      "channel": 1,
      "note": 30,
      "start": 40.2017,
      "duration": 0.0649,
      "velocity": 107,
      "chip": "ym2612"
    },
    {
      "channel": 1,
      "note": 48,
      "start": 40.2834,
      "duration": 0.0666,
      "velocity": 107,
      "chip": "ym2612"
    },
    {
      "channel": 0,
      "note": 57,
      "start": 40.3666,
      "duration": 0.1499,
      "velocity": 88,
      "chip": "ym2612"
    },
    {
      "channel": 1,
      "note": 51,
      "start": 40.3669,
      "duration": 0.1498,
      "velocity": 107,
      "chip": "ym2612"
    },
    {
      "channel": 0,
      "note": 55,
      "start": 40.5332,
      "duration": 0.1506,
      "velocity": 88,
      "chip": "ym2612"
    },
    {
      "channel": 1,
      "note": 55,
      "start": 40.535,
      "duration": 0.1491,
      "velocity": 127,
      "chip": "ym2612"
    },
    {
      "channel": 0,
      "note": 57,
      "start": 40.7008,
      "duration": 0.1498,
      "velocity": 88,
      "chip": "ym2612"
    },
    {
      "channel": 1,
      "note": 42,
      "start": 40.7024,
      "duration": 0.1483,
      "velocity": 107,
      "chip": "ym2612"
    },
    {
      "channel": 0,
      "note": 53,
      "start": 40.8673,
      "duration": 0.1498,
      "velocity": 88,
      "chip": "ym2612"
    },
    {
      "channel": 1,
      "note": 51,
      "start": 40.8676,
      "duration": 0.1498,
      "velocity": 107,
      "chip": "ym2612"
    },
    {
      "channel": 0,
      "note": 50,
      "start": 41.0341,
      "duration": 0.1501,
      "velocity": 88,
      "chip": "ym2612"
    },
    {
      "channel": 1,
      "note": 58,
      "start": 41.0358,
      "duration": 0.1485,
      "velocity": 127,
      "chip": "ym2612"
    },
    {
      "channel": 0,
      "note": 55,
      "start": 41.2009,
      "duration": 0.1497,
      "velocity": 88,
      "chip": "ym2612"
    },
    {
      "channel": 1,
      "note": 30,
      "start": 41.2026,
      "duration": 0.065,
      "velocity": 107,
      "chip": "ym2612"
    },
    {
      "channel": 1,
      "note": 48,
      "start": 41.2843,
      "duration": 0.0666,
      "velocity": 107,
      "chip": "ym2612"
    },
    {
      "channel": 0,
      "note": 51,
      "start": 41.3675,
      "duration": 0.1499,
      "velocity": 88,
      "chip": "ym2612"
    },
    {
      "channel": 1,
      "note": 51,
      "start": 41.3677,
      "duration": 0.1499,
      "velocity": 107,
      "chip": "ym2612"
    },
    {
      "channel": 0,
      "note": 47,
      "start": 41.5342,
      "duration": 0.1497,
      "velocity": 88,
      "chip": "ym2612"
    },
    {
      "channel": 1,
      "note": 55,
      "start": 41.5359,
      "duration": 0.1481,
      "velocity": 127,
      "chip": "ym2612"
    },
    {
      "channel": 0,
      "note": 51,
      "start": 41.7007,
      "duration": 0.1498,
      "velocity": 88,
      "chip": "ym2612"
    },
    {
      "channel": 1,
      "note": 42,
      "start": 41.7024,
      "duration": 0.1483,
      "velocity": 107,
      "chip": "ym2612"
    },
    {
      "channel": 0,
      "note": 45,
      "start": 41.8673,
      "duration": 0.15,
      "velocity": 88,
      "chip": "ym2612"
    },
    {
      "channel": 1,
      "note": 55,
      "start": 41.8675,
      "duration": 0.15,
      "velocity": 107,
      "chip": "ym2612"
    },
    {
      "channel": 0,
      "note": 43,
      "start": 42.0341,
      "duration": 1.9832,
      "velocity": 88,
      "chip": "ym2612"
    },
    {
      "channel": 1,
      "note": 60,
      "start": 42.0357,
      "duration": 0.1485,
      "velocity": 127,
      "chip": "ym2612"
    },
    {
      "channel": 1,
      "note": 30,
      "start": 42.2024,
      "duration": 0.0651,
      "velocity": 107,
      "chip": "ym2612"
    },
    {
      "channel": 1,
      "note": 48,
      "start": 42.2843,
      "duration": 0.0666,
      "velocity": 107,
      "chip": "ym2612"
    },
    {
      "channel": 1,
      "note": 48,
      "start": 42.3677,
      "duration": 0.1499,
      "velocity": 107,
      "chip": "ym2612"
    },
    {
      "channel": 1,
      "note": 51,
      "start": 42.5357,
      "duration": 0.1485,
      "velocity": 127,
      "chip": "ym2612"
    },
    {
      "channel": 1,
      "note": 42,
      "start": 42.7024,
      "duration": 0.065,
      "velocity": 107,
      "chip": "ym2612"
    },
    {
      "channel": 1,
      "note": 51,
      "start": 42.7841,
      "duration": 0.0667,
      "velocity": 107,
      "chip": "ym2612"
    },
    {
      "channel": 1,
      "note": 51,
      "start": 42.8675,
      "duration": 0.1499,
      "velocity": 107,
      "chip": "ym2612"
    },
    {
      "channel": 1,
      "note": 55,
      "start": 43.0356,
      "duration": 0.0651,
      "velocity": 127,
      "chip": "ym2612"
    },
    {
      "channel": 1,
      "note": 30,
      "start": 43.1189,
      "duration": 0.0651,
      "velocity": 107,
      "chip": "ym2612"
    },
    {
      "channel": 1,
      "note": 51,
      "start": 43.2008,
      "duration": 0.0667,
      "velocity": 107,
      "chip": "ym2612"
    },
    {
      "channel": 1,
      "note": 55,
      "start": 43.2843,
      "duration": 0.0667,
      "velocity": 107,
      "chip": "ym2612"
    },
    {
      "channel": 1,
      "note": 58,
      "start": 43.3676,
      "duration": 0.0667,
      "velocity": 107,
      "chip": "ym2612"
    },
    {
      "channel": 1,
      "note": 58,
      "start": 43.451,
      "duration": 0.0666,
      "velocity": 107,
      "chip": "ym2612"
    },
    {
      "channel": 1,
      "note": 60,
      "start": 43.5357,
      "duration": 0.0651,
      "velocity": 127,
      "chip": "ym2612"
    },
    {
      "channel": 1,
      "note": 42,
      "start": 43.619,
      "duration": 0.0652,
      "velocity": 107,
      "chip": "ym2612"
    },
    {
      "channel": 1,
      "note": 58,
      "start": 43.7009,
      "duration": 0.0667,
      "velocity": 107,
      "chip": "ym2612"
    },
    {
      "channel": 1,
      "note": 55,
      "start": 43.7841,
      "duration": 0.0667,
      "velocity": 107,
      "chip": "ym2612"
    },
    {
      "channel": 1,
      "note": 55,
      "start": 43.8689,
      "duration": 0.0651,
      "velocity": 127,
      "chip": "ym2612"
    },
    {
      "channel": 1,
      "note": 42,
      "start": 43.9523,
      "duration": 0.0652,
      "velocity": 107,
      "chip": "ym2612"
    },
    {
      "channel": 0,
      "note": 43,
      "start": 44.0342,
      "duration": 0.3156,
      "velocity": 88,
      "chip": "ym2612"
    },
    {
      "channel": 1,
      "note": 51,
      "start": 44.0359,
      "duration": 0.1474,
      "velocity": 127,
      "chip": "ym2612"
    },
    {
      "channel": 1,
      "note": 30,
      "start": 44.2016,
      "duration": 0.065,
      "velocity": 107,
      "chip": "ym2612"
    },
    {
      "channel": 1,
      "note": 48,
      "start": 44.2834,
      "duration": 0.0666,
      "velocity": 107,
      "chip": "ym2612"
    },
    {
      "channel": 0,
      "note": 47,
      "start": 44.3667,
      "duration": 0.1498,
      "velocity": 88,
      "chip": "ym2612"
    },
    {
      "channel": 1,
      "note": 48,
      "start": 44.367,
      "duration": 0.1498,
      "velocity": 107,
      "chip": "ym2612"
    },
    {
      "channel": 0,
      "note": 47,
      "start": 44.5333,
      "duration": 0.1506,
      "velocity": 88,
      "chip": "ym2612"
    },
    {
      "channel": 1,
      "note": 48,
      "start": 44.535,
      "duration": 0.1491,
      "velocity": 127,
      "chip": "ym2612"
    },
    {
      "channel": 0,
      "note": 47,
      "start": 44.7007,
      "duration": 0.1513,
      "velocity": 88,
      "chip": "ym2612"
    },
    {
      "channel": 1,
      "note": 42,
      "start": 44.7023,
      "duration": 0.1498,
      "velocity": 107,
      "chip": "ym2612"
    },
    {
      "channel": 0,
      "note": 50,
      "start": 44.8687,
      "duration": 0.1498,
      "velocity": 88,
      "chip": "ym2612"
    },
    {
      "channel": 1,
      "note": 48,
      "start": 44.869,
      "duration": 0.1498,
      "velocity": 107,
      "chip": "ym2612"
    },
    {
      "channel": 0,
      "note": 51,
      "start": 45.0355,
      "duration": 0.3165,
      "velocity": 88,
      "chip": "ym2612"
    },
    {
      "channel": 1,
      "note": 51,
      "start": 45.0371,
      "duration": 0.1483,
      "velocity": 127,
      "chip": "ym2612"
    },
    {
      "channel": 1,
      "note": 30,
      "start": 45.2037,
      "duration": 0.0651,
      "velocity": 107,
      "chip": "ym2612"
    },
    {
      "channel": 1,
      "note": 48,
      "start": 45.2855,
      "duration": 0.0667,
      "velocity": 107,
      "chip": "ym2612"
    },
    {
      "channel": 0,
      "note": 52,
      "start": 45.3674,
      "duration": 0.1499,
      "velocity": 88,
      "chip": "ym2612"
    },
    {
      "channel": 1,
      "note": 48,
      "start": 45.3676,
      "duration": 0.1498,
      "velocity": 107,
      "chip": "ym2612"
    },
    {
      "channel": 0,
      "note": 53,
      "start": 45.5341,
      "duration": 0.1498,
      "velocity": 88,
      "chip": "ym2612"
    },
    {
      "channel": 1,
      "note": 48,
      "start": 45.5357,
      "duration": 0.1483,
      "velocity": 127,
      "chip": "ym2612"
    },
    {
      "channel": 0,
      "note": 53,
      "start": 45.7007,
      "duration": 0.1498,
      "velocity": 88,
      "chip": "ym2612"
    },
    {
      "channel": 1,
      "note": 42,
      "start": 45.7024,
      "duration": 0.1483,
      "velocity": 107,
      "chip": "ym2612"
    },
    {
      "channel": 0,
      "note": 55,
      "start": 45.8673,
      "duration": 0.1514,
      "velocity": 88,
      "chip": "ym2612"
    },
    {
      "channel": 1,
      "note": 48,
      "start": 45.8675,
      "duration": 0.1513,
      "velocity": 107,
      "chip": "ym2612"
    },
    {
      "channel": 0,
      "note": 57,
      "start": 46.037,
      "duration": 0.3149,
      "velocity": 88,
      "chip": "ym2612"
    },
    {
      "channel": 1,
      "note": 55,
      "start": 46.0387,
      "duration": 0.1467,
      "velocity": 127,
      "chip": "ym2612"
    },
    {
      "channel": 1,
      "note": 30,
      "start": 46.2037,
      "duration": 0.065,
      "velocity": 107,
      "chip": "ym2612"
    },
    {
      "channel": 1,
      "note": 48,
      "start": 46.2855,
      "duration": 0.0666,
      "velocity": 107,
      "chip": "ym2612"
    },
    {
      "channel": 0,
      "note": 47,
      "start": 46.3688,
      "duration": 0.1485,
      "velocity": 88,
      "chip": "ym2612"
    },
    {
      "channel": 1,
      "note": 51,
      "start": 46.369,
      "duration": 0.1485,
      "velocity": 107,
      "chip": "ym2612"
    }
  ]
}