{
  "track_name": "07 - Time to Escape",
  "duration_sec": 21.499,
  "sample_rate": 44100,
  "note_count": 1530,
  "unique_pitches": 65,
  "pitch_range": 100,
  "avg_note_duration": 0.0822,
  "reconstruction_stats": {
    "notes_reconstructed": 1530,
    "keyon_events": 1530,
    "keyoff_events": 640,
    "orphan_keyons": 5,
    "unique_pitches": 65,
    "pitch_range": 100,
    "avg_duration_sec": 0.0822
  },
  "metadata": {
    "source": "T\\The Terminator\\07 - Time to Escape.vgz"
  },
  "notes": [
    {
      "channel": 0,
      "note": 79,
      "start": 0.0,
      "duration": 0.0817,
      "velocity": 108,
      "chip": "ym2612"
    },
    {
      "channel": 2,
      "note": 62,
      "start": 0.002,
      "duration": 0.1636,
      "velocity": 113,
      "chip": "ym2612"
    },
    {
      "channel": 3,
      "note": 50,
      "start": 0.0039,
      "duration": 0.1622,
      "velocity": 113,
      "chip": "ym2612"
    },
    {
      "channel": 4,
      "note": 67,
      "start": 0.0058,
      "duration": 0.0005,
      "velocity": 121,
      "chip": "ym2612"
    },
    {
      "channel": 4,
      "note": 67,
      "start": 0.0062,
      "duration": 0.0085,
      "velocity": 121,
      "chip": "ym2612"
    },
    {
      "channel": 4,
      "note": 66,
      "start": 0.0147,
      "duration": 0.0167,
      "velocity": 121,
      "chip": "ym2612"
    },
    {
      "channel": 4,
      "note": 66,
      "start": 0.0314,
      "duration": 0.0167,
      "velocity": 121,
      "chip": "ym2612"
    },
    {
      "channel": 4,
      "note": 65,
      "start": 0.048,
      "duration": 0.0167,
      "velocity": 121,
      "chip": "ym2612"
    },
    {
      "channel": 4,
      "note": 65,
      "start": 0.0647,
      "duration": 0.0178,
      "velocity": 121,
      "chip": "ym2612"
    },
    {
      "channel": 0,
      "note": 79,
      "start": 0.0819,
      "duration": 0.0831,
      "velocity": 108,
      "chip": "ym2612"
    },
    {
      "channel": 4,
      "note": 64,
      "start": 0.0825,
      "duration": 0.0155,
      "velocity": 121,
      "chip": "ym2612"
    },
    {
      "channel": 4,
      "note": 64,
      "start": 0.098,
      "duration": 0.0167,
      "velocity": 121,
      "chip": "ym2612"
    },
    {
      "channel": 4,
      "note": 63,
      "start": 0.1147,
      "duration": 0.0167,
      "velocity": 121,
      "chip": "ym2612"
    },
    {
      "channel": 4,
      "note": 63,
      "start": 0.1314,
      "duration": 0.0167,
      "velocity": 121,
      "chip": "ym2612"
    },
    {
      "channel": 4,
      "note": 62,
      "start": 0.148,
      "duration": 0.0186,
      "velocity": 121,
      "chip": "ym2612"
    },
    {
      "channel": 0,
      "note": 79,
      "start": 0.1651,
      "duration": 0.0831,
      "velocity": 108,
      "chip": "ym2612"
    },
    {
      "channel": 2,
      "note": 62,
      "start": 0.1656,
      "duration": 0.8333,
      "velocity": 113,
      "chip": "ym2612"
    },
    {
      "channel": 3,
      "note": 50,
      "start": 0.1662,
      "duration": 0.8333,
      "velocity": 113,
      "chip": "ym2612"
    },
    {
      "channel": 4,
      "note": 62,
      "start": 0.1667,
      "duration": 0.0147,
      "velocity": 121,
      "chip": "ym2612"
    },
    {
      "channel": 4,
      "note": 61,
      "start": 0.1814,
      "duration": 0.0167,
      "velocity": 121,
      "chip": "ym2612"
    },
    {
      "channel": 4,
      "note": 61,
      "start": 0.198,
      "duration": 0.0167,
      "velocity": 121,
      "chip": "ym2612"
    },
    {
      "channel": 4,
      "note": 60,
      "start": 0.2147,
      "duration": 0.0167,
      "velocity": 121,
      "chip": "ym2612"
    },
    {
      "channel": 4,
      "note": 59,
      "start": 0.2314,
      "duration": 0.0178,
      "velocity": 121,
      "chip": "ym2612"
    },
    {
      "channel": 0,
      "note": 79,
      "start": 0.2485,
      "duration": 0.0831,
      "velocity": 108,
      "chip": "ym2612"
    },
    {
      "channel": 4,
      "note": 59,
      "start": 0.2491,
      "duration": 0.0156,
      "velocity": 121,
      "chip": "ym2612"
    },
    {
      "channel": 4,
      "note": 58,
      "start": 0.2647,
      "duration": 0.0167,
      "velocity": 121,
      "chip": "ym2612"
    },
    {
      "channel": 4,
      "note": 57,
      "start": 0.2814,
      "duration": 0.0167,
      "velocity": 121,
      "chip": "ym2612"
    },
    {
      "channel": 4,
      "note": 56,
      "start": 0.298,
      "duration": 0.0167,
      "velocity": 121,
      "chip": "ym2612"
    },
    {
      "channel": 4,
      "note": 56,
      "start": 0.3147,
      "duration": 0.0177,
      "velocity": 121,
      "chip": "ym2612"
    },
    {
      "channel": 0,
      "note": 79,
      "start": 0.3317,
      "duration": 0.0832,
      "velocity": 108,
      "chip": "ym2612"
    },
    {
      "channel": 4,
      "note": 55,
      "start": 0.3324,
      "duration": 0.0156,
      "velocity": 121,
      "chip": "ym2612"
    },
    {
      "channel": 4,
      "note": 54,
      "start": 0.348,
      "duration": 0.0167,
      "velocity": 121,
      "chip": "ym2612"
    },
    {
      "channel": 4,
      "note": 53,
      "start": 0.3647,
      "duration": 0.0167,
      "velocity": 121,
      "chip": "ym2612"
    },
    {
      "channel": 4,
      "note": 52,
      "start": 0.3814,
      "duration": 0.0167,
      "velocity": 121,
      "chip": "ym2612"
    },
    {
      "channel": 4,
      "note": 51,
      "start": 0.398,
      "duration": 0.0177,
      "velocity": 121,
      "chip": "ym2612"
    },
    {
      "channel": 0,
      "note": 79,
      "start": 0.4151,
      "duration": 0.0832,
      "velocity": 108,
      "chip": "ym2612"
    },
    {
      "channel": 4,
      "note": 50,
      "start": 0.4157,
      "duration": 0.0156,
      "velocity": 121,
      "chip": "ym2612"
    },
    {
      "channel": 4,
      "note": 49,
      "start": 0.4314,
      "duration": 0.0167,
      "velocity": 121,
      "chip": "ym2612"
    },
    {
      "channel": 4,
      "note": 48,
      "start": 0.448,
      "duration": 0.0167,
      "velocity": 121,
      "chip": "ym2612"
    },
    {
      "channel": 4,
      "note": 46,
      "start": 0.4647,
      "duration": 0.0167,
      "velocity": 121,
      "chip": "ym2612"
    },
    {
      "channel": 4,
      "note": 45,
      "start": 0.4814,
      "duration": 0.0177,
      "velocity": 121,
      "chip": "ym2612"
    },
    {
      "channel": 0,
      "note": 79,
      "start": 0.4984,
      "duration": 0.0832,
      "velocity": 108,
      "chip": "ym2612"
    },
    {
      "channel": 4,
      "note": 43,
      "start": 0.499,
      "duration": 0.0156,
      "velocity": 121,
      "chip": "ym2612"
    },
    {
      "channel": 4,
      "note": 42,
      "start": 0.5147,
      "duration": 0.0167,
      "velocity": 121,
      "chip": "ym2612"
    },
    {
      "channel": 4,
      "note": 40,
      "start": 0.5314,
      "duration": 0.0167,
      "velocity": 121,
      "chip": "ym2612"
    },
    {
      "channel": 4,
      "note": 38,
      "start": 0.548,
      "duration": 0.0167,
      "velocity": 121,
      "chip": "ym2612"
    },
    {
      "channel": 4,
      "note": 35,
      "start": 0.5647,
      "duration": 0.0177,
      "velocity": 121,
      "chip": "ym2612"
    },
    {
      "channel": 0,
      "note": 79,
      "start": 0.5817,
      "duration": 0.0832,
      "velocity": 108,
      "chip": "ym2612"
    },
    {
      "channel": 4,
      "note": 32,
      "start": 0.5824,
      "duration": 0.0156,
      "velocity": 121,
      "chip": "ym2612"
    },
    {
      "channel": 4,
      "note": 29,
      "start": 0.598,
      "duration": 0.0167,
      "velocity": 121,
      "chip": "ym2612"
    },
    {
      "channel": 4,
      "note": 25,
      "start": 0.6147,
      "duration": 0.0167,
      "velocity": 121,
      "chip": "ym2612"
    },
    {
      "channel": 4,
      "note": 19,
      "start": 0.6314,
      "duration": 0.0167,
      "velocity": 121,
      "chip": "ym2612"
    },
    {
      "channel": 4,
      "note": 10,
      "start": 0.648,
      "duration": 0.0215,
      "velocity": 121,
      "chip": "ym2612"
    },
    {
      "channel": 0,
      "note": 79,
      "start": 0.6651,
      "duration": 0.0831,
      "velocity": 108,
      "chip": "ym2612"
    },
    {
      "channel": 1,
      "note": 62,
      "start": 0.6671,
      "duration": 0.3332,
      "velocity": 47,
      "chip": "ym2612"
    },
    {
      "channel": 5,
      "note": 69,
      "start": 0.6692,
      "duration": 0.3315,
      "velocity": 47,
      "chip": "ym2612"
    },
    {
      "channel": 4,
      "note": 0,
      "start": 0.6695,
      "duration": 0.0118,
      "velocity": 121,
      "chip": "ym2612"
    },
    {
      "channel": 4,
      "note": 65,
      "start": 0.6814,
      "duration": 0.0167,
      "velocity": 121,
      "chip": "ym2612"
    },
    {
      "channel": 4,
      "note": 64,
      "start": 0.698,
      "duration": 0.0167,
      "velocity": 121,
      "chip": "ym2612"
    },
    {
      "channel": 4,
      "note": 64,
      "start": 0.7147,
      "duration": 0.0167,
      "velocity": 121,
      "chip": "ym2612"
    },
    {
      "channel": 4,
      "note": 64,
      "start": 0.7314,
      "duration": 0.0178,
      "velocity": 121,
      "chip": "ym2612"
    },
    {
      "channel": 0,
      "note": 79,
      "start": 0.7485,
      "duration": 0.0831,
      "velocity": 108,
      "chip": "ym2612"
    },
    {
      "channel": 4,
      "note": 64,
      "start": 0.7491,
      "duration": 0.0156,
      "velocity": 121,
      "chip": "ym2612"
    },
    {
      "channel": 4,
      "note": 63,
      "start": 0.7647,
      "duration": 0.0167,
      "velocity": 121,
      "chip": "ym2612"
    },
    {
      "channel": 4,
      "note": 63,
      "start": 0.7814,
      "duration": 0.0167,
      "velocity": 121,
      "chip": "ym2612"
    },
    {
      "channel": 4,
      "note": 63,
      "start": 0.798,
      "duration": 0.0167,
      "velocity": 121,
      "chip": "ym2612"
    },
    {
      "channel": 4,
      "note": 63,
      "start": 0.8147,
      "duration": 0.0177,
      "velocity": 121,
      "chip": "ym2612"
    },
    {
      "channel": 0,
      "note": 79,
      "start": 0.8317,
      "duration": 0.0832,
      "velocity": 108,
      "chip": "ym2612"
    },
    {
      "channel": 4,
      "note": 62,
      "start": 0.8324,
      "duration": 0.0156,
      "velocity": 121,
      "chip": "ym2612"
    },
    {
      "channel": 4,
      "note": 62,
      "start": 0.848,
      "duration": 0.0167,
      "velocity": 121,
      "chip": "ym2612"
    },
    {
      "channel": 4,
      "note": 62,
      "start": 0.8647,
      "duration": 0.0167,
      "velocity": 121,
      "chip": "ym2612"
    },
    {
      "channel": 4,
      "note": 62,
      "start": 0.8814,
      "duration": 0.0167,
      "velocity": 121,
      "chip": "ym2612"
    },
    {
      "channel": 4,
      "note": 61,
      "start": 0.898,
      "duration": 0.0177,
      "velocity": 121,
      "chip": "ym2612"
    },
    {
      "channel": 0,
      "note": 79,
      "start": 0.9151,
      "duration": 0.0833,
      "velocity": 108,
      "chip": "ym2612"
    },
    {
      "channel": 4,
      "note": 61,
      "start": 0.9157,
      "duration": 0.0156,
      "velocity": 121,
      "chip": "ym2612"
    },
    {
      "channel": 4,
      "note": 61,
      "start": 0.9314,
      "duration": 0.0167,
      "velocity": 121,
      "chip": "ym2612"
    },
    {
      "channel": 4,
      "note": 60,
      "start": 0.948,
      "duration": 0.0167,
      "velocity": 121,
      "chip": "ym2612"
    },
    {
      "channel": 4,
      "note": 60,
      "start": 0.9647,
      "duration": 0.0167,
      "velocity": 121,
      "chip": "ym2612"
    },
    {
      "channel": 4,
      "note": 60,
      "start": 0.9814,
      "duration": 0.0191,
      "velocity": 121,
      "chip": "ym2612"
    },
    {
      "channel": 0,
      "note": 79,
      "start": 0.9985,
      "duration": 0.0831,
      "velocity": 108,
      "chip": "ym2612"
    },
    {
      "channel": 2,
      "note": 63,
      "start": 0.9992,
      "duration": 0.1663,
      "velocity": 113,
      "chip": "ym2612"
    },
    {
      "channel": 3,
      "note": 51,
      "start": 0.9997,
      "duration": 0.1663,
      "velocity": 113,
      "chip": "ym2612"
    },
    {
      "channel": 1,
      "note": 62,
      "start": 1.0002,
      "duration": 0.0144,
      "velocity": 47,
      "chip": "ym2612"
    },
    {
      "channel": 4,
      "note": 59,
      "start": 1.0005,
      "duration": 0.0144,
      "velocity": 121,
      "chip": "ym2612"
    },
    {
      "channel": 5,
      "note": 69,
      "start": 1.0007,
      "duration": 0.0144,
      "velocity": 47,
      "chip": "ym2612"
    },
    {
      "channel": 1,
      "note": 62,
      "start": 1.0146,
      "duration": 0.0167,
      "velocity": 47,
      "chip": "ym2612"
    },
    {
      "channel": 4,
      "note": 59,
      "start": 1.0149,
      "duration": 0.0167,
      "velocity": 121,
      "chip": "ym2612"
    },
    {
      "channel": 5,
      "note": 69,
      "start": 1.0151,
      "duration": 0.0167,
      "velocity": 47,
      "chip": "ym2612"
    },
    {
      "channel": 1,
      "note": 62,
      "start": 1.0313,
      "duration": 0.0167,
      "velocity": 47,
      "chip": "ym2612"
    },
    {
      "channel": 4,
      "note": 59,
      "start": 1.0316,
      "duration": 0.0167,
      "velocity": 121,
      "chip": "ym2612"
    },
    {
      "channel": 5,
      "note": 70,
      "start": 1.0318,
      "duration": 0.0167,
      "velocity": 47,
      "chip": "ym2612"
    },
    {
      "channel": 1,
      "note": 63,
      "start": 1.048,
      "duration": 0.0167,
      "velocity": 47,
      "chip": "ym2612"
    },
    {
      "channel": 4,
      "note": 58,
      "start": 1.0482,
      "duration": 0.0167,
      "velocity": 121,
      "chip": "ym2612"
    },
    {
      "channel": 5,
      "note": 70,
      "start": 1.0485,
      "duration": 0.0167,
      "velocity": 47,
      "chip": "ym2612"
    },
    {
      "channel": 1,
      "note": 63,
      "start": 1.0646,
      "duration": 0.0178,
      "velocity": 47,
      "chip": "ym2612"
    },
    {
      "channel": 4,
      "note": 58,
      "start": 1.0649,
      "duration": 0.0178,
      "velocity": 121,
      "chip": "ym2612"
    },
    {
      "channel": 5,
      "note": 70,
      "start": 1.0651,
      "duration": 0.0178,
      "velocity": 47,
      "chip": "ym2612"
    },
    {
      "channel": 0,
      "note": 79,
      "start": 1.0819,
      "duration": 0.0831,
      "velocity": 108,
      "chip": "ym2612"
    },
    {
      "channel": 1,
      "note": 63,
      "start": 1.0824,
      "duration": 0.0155,
      "velocity": 47,
      "chip": "ym2612"
    },
    {
      "channel": 4,
      "note": 58,
      "start": 1.0827,
      "duration": 0.0155,
      "velocity": 121,
      "chip": "ym2612"
    },
    {
      "channel": 5,
      "note": 70,
      "start": 1.0829,
      "duration": 0.0155,
      "velocity": 47,
      "chip": "ym2612"
    },
    {
      "channel": 1,
      "note": 63,
      "start": 1.098,
      "duration": 0.0167,
      "velocity": 47,
      "chip": "ym2612"
    },
    {
      "channel": 4,
      "note": 57,
      "start": 1.0982,
      "duration": 0.0167,
      "velocity": 121,
      "chip": "ym2612"
    },
    {
      "channel": 5,
      "note": 70,
      "start": 1.0985,
      "duration": 0.0167,
      "velocity": 47,
      "chip": "ym2612"
    },
    {
      "channel": 1,
      "note": 63,
      "start": 1.1146,
      "duration": 0.0167,
      "velocity": 47,
      "chip": "ym2612"
    },
    {
      "channel": 4,
      "note": 57,
      "start": 1.1149,
      "duration": 0.0167,
      "velocity": 121,
      "chip": "ym2612"
    },
    {
      "channel": 5,
      "note": 71,
      "start": 1.1151,
      "duration": 0.0167,
      "velocity": 47,
      "chip": "ym2612"
    },
    {
      "channel": 1,
      "note": 63,
      "start": 1.1313,
      "duration": 0.0167,
      "velocity": 47,
      "chip": "ym2612"
    },
    {
      "channel": 4,
      "note": 57,
      "start": 1.1316,
      "duration": 0.0167,
      "velocity": 121,
      "chip": "ym2612"
    },
    {
      "channel": 5,
      "note": 71,
      "start": 1.1318,
      "duration": 0.0167,
      "velocity": 47,
      "chip": "ym2612"
    },
    {
      "channel": 1,
      "note": 64,
      "start": 1.148,
      "duration": 0.0186,
      "velocity": 47,
      "chip": "ym2612"
    },
    {
      "channel": 4,
      "note": 56,
      "start": 1.1482,
      "duration": 0.0186,
      "velocity": 121,
      "chip": "ym2612"
    },
    {
      "channel": 5,
      "note": 71,
      "start": 1.1485,
      "duration": 0.0186,
      "velocity": 47,
      "chip": "ym2612"
    },
    {
      "channel": 0,
      "note": 79,
      "start": 1.1651,
      "duration": 0.0831,
      "velocity": 108,
      "chip": "ym2612"
    },
    {
      "channel": 2,
      "note": 63,
      "start": 1.1657,
      "duration": 0.6665,
      "velocity": 113,
      "chip": "ym2612"
    },
    {
      "channel": 3,
      "note": 51,
      "start": 1.1662,
      "duration": 0.6665,
      "velocity": 113,
      "chip": "ym2612"
    },
    {
      "channel": 1,
      "note": 64,
      "start": 1.1666,
      "duration": 0.0147,
      "velocity": 47,
      "chip": "ym2612"
    },
    {
      "channel": 4,
      "note": 56,
      "start": 1.1669,
      "duration": 0.0147,
      "velocity": 121,
      "chip": "ym2612"
    },
    {
      "channel": 5,
      "note": 71,
      "start": 1.1671,
      "duration": 0.0147,
      "velocity": 47,
      "chip": "ym2612"
    },
    {
      "channel": 1,
      "note": 64,
      "start": 1.1813,
      "duration": 0.0167,
      "velocity": 47,
      "chip": "ym2612"
    },
    {
      "channel": 4,
      "note": 55,
      "start": 1.1816,
      "duration": 0.0167,
      "velocity": 121,
      "chip": "ym2612"
    },
    {
      "channel": 5,
      "note": 71,
      "start": 1.1818,
      "duration": 0.0167,
      "velocity": 47,
      "chip": "ym2612"
    },
    {
      "channel": 1,
      "note": 64,
      "start": 1.198,
      "duration": 0.0167,
      "velocity": 47,
      "chip": "ym2612"
    },
    {
      "channel": 4,
      "note": 55,
      "start": 1.1982,
      "duration": 0.0167,
      "velocity": 121,
      "chip": "ym2612"
    },
    {
      "channel": 5,
      "note": 72,
      "start": 1.1985,
      "duration": 0.0167,
      "velocity": 47,
      "chip": "ym2612"
    },
    {
      "channel": 1,
      "note": 64,
      "start": 1.2146,
      "duration": 0.0167,
      "velocity": 47,
      "chip": "ym2612"
    },
    {
      "channel": 4,
      "note": 55,
      "start": 1.2149,
      "duration": 0.0167,
      "velocity": 121,
      "chip": "ym2612"
    },
    {
      "channel": 5,
      "note": 72,
      "start": 1.2151,
      "duration": 0.0167,
      "velocity": 47,
      "chip": "ym2612"
    },
    {
      "channel": 1,
      "note": 64,
      "start": 1.2313,
      "duration": 0.0178,
      "velocity": 47,
      "chip": "ym2612"
    },
    {
      "channel": 4,
      "note": 54,
      "start": 1.2316,
      "duration": 0.0177,
      "velocity": 121,
      "chip": "ym2612"
    },
    {
      "channel": 5,
      "note": 72,
      "start": 1.2318,
      "duration": 0.0177,
      "velocity": 47,
      "chip": "ym2612"
    },
    {
      "channel": 0,
      "note": 79,
      "start": 1.2485,
      "duration": 0.0831,
      "velocity": 108,
      "chip": "ym2612"
    },
    {
      "channel": 1,
      "note": 64,
      "start": 1.249,
      "duration": 0.0156,
      "velocity": 47,
      "chip": "ym2612"
    },
    {
      "channel": 4,
      "note": 54,
      "start": 1.2493,
      "duration": 0.0156,
      "velocity": 121,
      "chip": "ym2612"
    },
    {
      "channel": 5,
      "note": 72,
      "start": 1.2495,
      "duration": 0.0156,
      "velocity": 47,
      "chip": "ym2612"
    },
    {
      "channel": 1,
      "note": 65,
      "start": 1.2646,
      "duration": 0.0167,
      "velocity": 47,
      "chip": "ym2612"
    },
    {
      "channel": 4,
      "note": 53,
      "start": 1.2649,
      "duration": 0.0167,
      "velocity": 121,
      "chip": "ym2612"
    },
    {
      "channel": 5,
      "note": 72,
      "start": 1.2651,
      "duration": 0.0167,
      "velocity": 47,
      "chip": "ym2612"
    },
    {
      "channel": 1,
      "note": 65,
      "start": 1.2813,
      "duration": 0.0167,
      "velocity": 47,
      "chip": "ym2612"
    },
    {
      "channel": 4,
      "note": 53,
      "start": 1.2816,
      "duration": 0.0167,
      "velocity": 121,
      "chip": "ym2612"
    },
    {
      "channel": 5,
      "note": 72,
      "start": 1.2818,
      "duration": 0.0167,
      "velocity": 47,
      "chip": "ym2612"
    },
    {
      "channel": 1,
      "note": 65,
      "start": 1.298,
      "duration": 0.0167,
      "velocity": 47,
      "chip": "ym2612"
    },
    {
      "channel": 4,
      "note": 52,
      "start": 1.2982,
      "duration": 0.0167,
      "velocity": 121,
      "chip": "ym2612"
    },
    {
      "channel": 5,
      "note": 73,
      "start": 1.2985,
      "duration": 0.0167,
      "velocity": 47,
      "chip": "ym2612"
    },
    {
      "channel": 1,
      "note": 65,
      "start": 1.3146,
      "duration": 0.0182,
      "velocity": 47,
      "chip": "ym2612"
    },
    {
      "channel": 4,
      "note": 52,
      "start": 1.3149,
      "duration": 0.0174,
      "velocity": 121,
      "chip": "ym2612"
    },
    {
      "channel": 5,
      "note": 73,
      "start": 1.3151,
      "duration": 0.0182,
      "velocity": 47,
      "chip": "ym2612"
    },
    {
      "channel": 0,
      "note": 79,
      "start": 1.3318,
      "duration": 0.0831,
      "velocity": 108,
      "chip": "ym2612"
    },
    {
      "channel": 4,
      "note": 74,
      "start": 1.3325,
      "duration": 0.0006,
      "velocity": 121,
      "chip": "ym2612"
    },
    {
      "channel": 1,
      "note": 65,
      "start": 1.3328,
      "duration": 0.0151,
      "velocity": 47,
      "chip": "ym2612"
    },
    {
      "channel": 4,
      "note": 73,
      "start": 1.3332,
      "duration": 0.0151,
      "velocity": 121,
      "chip": "ym2612"
    },
    {
      "channel": 5,
      "note": 73,
      "start": 1.3333,
      "duration": 0.0151,
      "velocity": 47,
      "chip": "ym2612"
    },
    {
      "channel": 1,
      "note": 65,
      "start": 1.348,
      "duration": 0.0167,
      "velocity": 47,
      "chip": "ym2612"
    },
    {
      "channel": 4,
      "note": 73,
      "start": 1.3482,
      "duration": 0.0167,
      "velocity": 121,
      "chip": "ym2612"
    },
    {
      "channel": 5,
      "note": 73,
      "start": 1.3485,
      "duration": 0.0167,
      "velocity": 47,
      "chip": "ym2612"
    },
    {
      "channel": 1,
      "note": 65,
      "start": 1.3646,
      "duration": 0.0167,
      "velocity": 47,
      "chip": "ym2612"
    },
    {
      "channel": 4,
      "note": 72,
      "start": 1.3649,
      "duration": 0.0167,
      "velocity": 121,
      "chip": "ym2612"
    },
    {
      "channel": 5,
      "note": 73,
      "start": 1.3651,
      "duration": 0.0167,
      "velocity": 47,
      "chip": "ym2612"
    },
    {
      "channel": 1,
      "note": 65,
      "start": 1.3813,
      "duration": 0.0167,
      "velocity": 47,
      "chip": "ym2612"
    },
    {
      "channel": 4,
      "note": 72,
      "start": 1.3816,
      "duration": 0.0167,
      "velocity": 121,
      "chip": "ym2612"
    },
    {
      "channel": 5,
      "note": 73,
      "start": 1.3818,
      "duration": 0.0167,
      "velocity": 47,
      "chip": "ym2612"
    },
    {
      "channel": 1,
      "note": 66,
      "start": 1.398,
      "duration": 0.0182,
      "velocity": 47,
      "chip": "ym2612"
    },
    {
      "channel": 4,
      "note": 71,
      "start": 1.3982,
      "duration": 0.0174,
      "velocity": 121,
      "chip": "ym2612"
    },
    {
      "channel": 5,
      "note": 74,
      "start": 1.3985,
      "duration": 0.0182,
      "velocity": 47,
      "chip": "ym2612"
    },
    {
      "channel": 0,
      "note": 79,
      "start": 1.4151,
      "duration": 0.0832,
      "velocity": 108,
      "chip": "ym2612"
    },
    {
      "channel": 4,
      "note": 74,
      "start": 1.4158,
      "duration": 0.0006,
      "velocity": 121,
      "chip": "ym2612"
    },
    {
      "channel": 1,
      "note": 66,
      "start": 1.4162,
      "duration": 0.0151,
      "velocity": 47,
      "chip": "ym2612"
    },
    {
      "channel": 4,
      "note": 73,
      "start": 1.4164,
      "duration": 0.0151,
      "velocity": 121,
      "chip": "ym2612"
    },
    {
      "channel": 5,
      "note": 74,
      "start": 1.4167,
      "duration": 0.0151,
      "velocity": 47,
      "chip": "ym2612"
    },
    {
      "channel": 1,
      "note": 66,
      "start": 1.4313,
      "duration": 0.0167,
      "velocity": 47,
      "chip": "ym2612"
    },
    {
      "channel": 4,
      "note": 73,
      "start": 1.4316,
      "duration": 0.0167,
      "velocity": 121,
      "chip": "ym2612"
    },
    {
      "channel": 5,
      "note": 74,
      "start": 1.4318,
      "duration": 0.0167,
      "velocity": 47,
      "chip": "ym2612"
    },
    {
      "channel": 1,
      "note": 66,
      "start": 1.448,
      "duration": 0.0167,
      "velocity": 47,
      "chip": "ym2612"
    },
    {
      "channel": 4,
      "note": 72,
      "start": 1.4482,
      "duration": 0.0167,
      "velocity": 121,
      "chip": "ym2612"
    },
    {
      "channel": 5,
      "note": 74,
      "start": 1.4485,
      "duration": 0.0167,
      "velocity": 47,
      "chip": "ym2612"
    },
    {
      "channel": 1,
      "note": 66,
      "start": 1.4646,
      "duration": 0.0167,
      "velocity": 47,
      "chip": "ym2612"
    },
    {
      "channel": 4,
      "note": 72,
      "start": 1.4649,
      "duration": 0.0167,
      "velocity": 121,
      "chip": "ym2612"
    },
    {
      "channel": 5,
      "note": 74,
      "start": 1.4651,
      "duration": 0.0167,
      "velocity": 47,
      "chip": "ym2612"
    },
    {
      "channel": 1,
      "note": 66,
      "start": 1.4813,
      "duration": 0.0182,
      "velocity": 47,
      "chip": "ym2612"
    },
    {
      "channel": 4,
      "note": 71,
      "start": 1.4816,
      "duration": 0.0174,
      "velocity": 121,
      "chip": "ym2612"
    },
    {
      "channel": 5,
      "note": 74,
      "start": 1.4818,
      "duration": 0.0182,
      "velocity": 47,
      "chip": "ym2612"
    },
    {
      "channel": 0,
      "note": 79,
      "start": 1.4984,
      "duration": 0.0832,
      "velocity": 108,
      "chip": "ym2612"
    },
    {
      "channel": 4,
      "note": 74,
      "start": 1.4991,
      "duration": 0.0006,
      "velocity": 121,
      "chip": "ym2612"
    },
    {
      "channel": 1,
      "note": 66,
      "start": 1.4995,
      "duration": 0.0151,
      "velocity": 47,
      "chip": "ym2612"
    },
    {
      "channel": 4,
      "note": 73,
      "start": 1.4998,
      "duration": 0.0151,
      "velocity": 121,
      "chip": "ym2612"
    },
    {
      "channel": 5,
      "note": 75,
      "start": 1.5,
      "duration": 0.0151,
      "velocity": 47,
      "chip": "ym2612"
    },
    {
      "channel": 1,
      "note": 66,
      "start": 1.5146,
      "duration": 0.0167,
      "velocity": 47,
      "chip": "ym2612"
    },
    {
      "channel": 4,
      "note": 73,
      "start": 1.5149,
      "duration": 0.0167,
      "velocity": 121,
      "chip": "ym2612"
    },
    {
      "channel": 5,
      "note": 75,
      "start": 1.5151,
      "duration": 0.0167,
      "velocity": 47,
      "chip": "ym2612"
    },
    {
      "channel": 1,
      "note": 67,
      "start": 1.5313,
      "duration": 0.0167,
      "velocity": 47,
      "chip": "ym2612"
    },
    {
      "channel": 4,
      "note": 72,
      "start": 1.5316,
      "duration": 0.0167,
      "velocity": 121,
      "chip": "ym2612"
    },
    {
      "channel": 5,
      "note": 75,
      "start": 1.5318,
      "duration": 0.0167,
      "velocity": 47,
      "chip": "ym2612"
    },
    {
      "channel": 1,
      "note": 67,
      "start": 1.548,
      "duration": 0.0167,
      "velocity": 47,
      "chip": "ym2612"
    },
    {
      "channel": 4,
      "note": 72,
      "start": 1.5482,
      "duration": 0.0167,
      "velocity": 121,
      "chip": "ym2612"
    },
    {
      "channel": 5,
      "note": 75,
      "start": 1.5485,
      "duration": 0.0167,
      "velocity": 47,
      "chip": "ym2612"
    },
    {
      "channel": 1,
      "note": 67,
      "start": 1.5646,
      "duration": 0.0182,
      "velocity": 47,
      "chip": "ym2612"
    },
    {
      "channel": 4,
      "note": 71,
      "start": 1.5649,
      "duration": 0.0174,
      "velocity": 121,
      "chip": "ym2612"
    },
    {
      "channel": 5,
      "note": 75,
      "start": 1.5651,
      "duration": 0.0182,
      "velocity": 47,
      "chip": "ym2612"
    },
    {
      "channel": 0,
      "note": 79,
      "start": 1.5817,
      "duration": 0.0832,
      "velocity": 108,
      "chip": "ym2612"
    },
    {
      "channel": 4,
      "note": 67,
      "start": 1.5824,
      "duration": 0.0006,
      "velocity": 121,
      "chip": "ym2612"
    },
    {
      "channel": 1,
      "note": 67,
      "start": 1.5828,
      "duration": 0.0151,
      "velocity": 47,
      "chip": "ym2612"
    },
    {
      "channel": 4,
      "note": 67,
      "start": 1.5831,
      "duration": 0.0151,
      "velocity": 121,
      "chip": "ym2612"
    },
    {
      "channel": 5,
      "note": 75,
      "start": 1.5833,
      "duration": 0.0151,
      "velocity": 47,
      "chip": "ym2612"
    },
    {
      "channel": 1,
      "note": 67,
      "start": 1.598,
      "duration": 0.0167,
      "velocity": 47,
      "chip": "ym2612"
    },
    {
      "channel": 4,
      "note": 66,
      "start": 1.5982,
      "duration": 0.0167,
      "velocity": 121,
      "chip": "ym2612"
    },
    {
      "channel": 5,
      "note": 75,
      "start": 1.5985,
      "duration": 0.0167,
      "velocity": 47,
      "chip": "ym2612"
    },
    {
      "channel": 1,
      "note": 67,
      "start": 1.6146,
      "duration": 0.0167,
      "velocity": 47,
      "chip": "ym2612"
    },
    {
      "channel": 4,
      "note": 66,
      "start": 1.6149,
      "duration": 0.0167,
      "velocity": 121,
      "chip": "ym2612"
    },
    {
      "channel": 5,
      "note": 76,
      "start": 1.6151,
      "duration": 0.0167,
      "velocity": 47,
      "chip": "ym2612"
    },
    {
      "channel": 1,
      "note": 67,
      "start": 1.6313,
      "duration": 0.0167,
      "velocity": 47,
      "chip": "ym2612"
    },
    {
      "channel": 4,
      "note": 65,
      "start": 1.6316,
      "duration": 0.0167,
      "velocity": 121,
      "chip": "ym2612"
    },
    {
      "channel": 5,
      "note": 76,
      "start": 1.6318,
      "duration": 0.0167,
      "velocity": 47,
      "chip": "ym2612"
    },
    {
      "channel": 1,
      "note": 67,
      "start": 1.648,
      "duration": 0.0177,
      "velocity": 47,
      "chip": "ym2612"
    },
    {
      "channel": 4,
      "note": 65,
      "start": 1.6482,
      "duration": 0.0177,
      "velocity": 121,
      "chip": "ym2612"
    },
    {
      "channel": 5,
      "note": 76,
      "start": 1.6485,
      "duration": 0.0177,
      "velocity": 47,
      "chip": "ym2612"
    },
    {
      "channel": 0,
      "note": 79,
      "start": 1.6651,
      "duration": 0.0832,
      "velocity": 108,
      "chip": "ym2612"
    },
    {
      "channel": 1,
      "note": 68,
      "start": 1.6656,
      "duration": 0.0156,
      "velocity": 47,
      "chip": "ym2612"
    },
    {
      "channel": 4,
      "note": 64,
      "start": 1.666,
      "duration": 0.0156,
      "velocity": 121,
      "chip": "ym2612"
    },
    {
      "channel": 5,
      "note": 76,
      "start": 1.6662,
      "duration": 0.0156,
      "velocity": 47,
      "chip": "ym2612"
    },
    {
      "channel": 1,
      "note": 68,
      "start": 1.6812,
      "duration": 0.0167,
      "velocity": 47,
      "chip": "ym2612"
    },
    {
      "channel": 4,
      "note": 64,
      "start": 1.6816,
      "duration": 0.0167,
      "velocity": 121,
      "chip": "ym2612"
    },
    {
      "channel": 5,
      "note": 76,
      "start": 1.6818,
      "duration": 0.0167,
      "velocity": 47,
      "chip": "ym2612"
    },
    {
      "channel": 1,
      "note": 68,
      "start": 1.698,
      "duration": 0.0167,
      "velocity": 47,
      "chip": "ym2612"
    },
    {
      "channel": 4,
      "note": 63,
      "start": 1.6982,
      "duration": 0.0167,
      "velocity": 121,
      "chip": "ym2612"
    },
    {
      "channel": 5,
      "note": 76,
      "start": 1.6985,
      "duration": 0.0167,
      "velocity": 47,
      "chip": "ym2612"
    },
    {
      "channel": 1,
      "note": 68,
      "start": 1.7146,
      "duration": 0.0167,
      "velocity": 47,
      "chip": "ym2612"
    },
    {
      "channel": 4,
      "note": 63,
      "start": 1.7149,
      "duration": 0.0167,
      "velocity": 121,
      "chip": "ym2612"
    },
    {
      "channel": 5,
      "note": 76,
      "start": 1.7151,
      "duration": 0.0167,
      "velocity": 47,
      "chip": "ym2612"
    },
    {
      "channel": 1,
      "note": 68,
      "start": 1.7313,
      "duration": 0.0177,
      "velocity": 47,
      "chip": "ym2612"
    },
    {
      "channel": 4,
      "note": 62,
      "start": 1.7316,
      "duration": 0.0177,
      "velocity": 121,
      "chip": "ym2612"
    },
    {
      "channel": 5,
      "note": 77,
      "start": 1.7318,
      "duration": 0.0177,
      "velocity": 47,
      "chip": "ym2612"
    },
    {
      "channel": 0,
      "note": 79,
      "start": 1.7484,
      "duration": 0.0832,
      "velocity": 108,
      "chip": "ym2612"
    },
    {
      "channel": 1,
      "note": 68,
      "start": 1.749,
      "duration": 0.0156,
      "velocity": 47,
      "chip": "ym2612"
    },
    {
      "channel": 4,
      "note": 62,
      "start": 1.7492,
      "duration": 0.0157,
      "velocity": 121,
      "chip": "ym2612"
    },
    {
      "channel": 5,
      "note": 77,
      "start": 1.7495,
      "duration": 0.0156,
      "velocity": 47,
      "chip": "ym2612"
    },
    {
      "channel": 1,
      "note": 68,
      "start": 1.7646,
      "duration": 0.0167,
      "velocity": 47,
      "chip": "ym2612"
    },
    {
      "channel": 4,
      "note": 61,
      "start": 1.7649,
      "duration": 0.0167,
      "velocity": 121,
      "chip": "ym2612"
    },
    {
      "channel": 5,
      "note": 77,
      "start": 1.7651,
      "duration": 0.0167,
      "velocity": 47,
      "chip": "ym2612"
    },
    {
      "channel": 1,
      "note": 68,
      "start": 1.7813,
      "duration": 0.0167,
      "velocity": 47,
      "chip": "ym2612"
    },
    {
      "channel": 4,
      "note": 61,
      "start": 1.7816,
      "duration": 0.0167,
      "velocity": 121,
      "chip": "ym2612"
    },
    {
      "channel": 5,
      "note": 77,
      "start": 1.7818,
      "duration": 0.0167,
      "velocity": 47,
      "chip": "ym2612"
    },
    {
      "channel": 1,
      "note": 68,
      "start": 1.798,
      "duration": 0.0167,
      "velocity": 47,
      "chip": "ym2612"
    },
    {
      "channel": 4,
      "note": 60,
      "start": 1.7982,
      "duration": 0.0167,
      "velocity": 121,
      "chip": "ym2612"
    },
    {
      "channel": 5,
      "note": 77,
      "start": 1.7985,
      "duration": 0.0167,
      "velocity": 47,
      "chip": "ym2612"
    },
    {
      "channel": 1,
      "note": 69,
      "start": 1.8146,
      "duration": 0.0186,
      "velocity": 47,
      "chip": "ym2612"
    },
    {
      "channel": 4,
      "note": 59,
      "start": 1.8149,
      "duration": 0.0186,
      "velocity": 121,
      "chip": "ym2612"
    },
    {
      "channel": 5,
      "note": 77,
      "start": 1.8151,
      "duration": 0.0186,
      "velocity": 47,
      "chip": "ym2612"
    },
    {
      "channel": 0,
      "note": 79,
      "start": 1.8318,
      "duration": 0.0831,
      "velocity": 108,
      "chip": "ym2612"
    },
    {
      "channel": 2,
      "note": 60,
      "start": 1.8324,
      "duration": 0.3332,
      "velocity": 113,
      "chip": "ym2612"
    },
    {
      "channel": 3,
      "note": 48,
      "start": 1.8329,
      "duration": 0.3332,
      "velocity": 113,
      "chip": "ym2612"
    },
    {
      "channel": 1,
      "note": 69,
      "start": 1.8333,
      "duration": 0.0147,
      "velocity": 47,
      "chip": "ym2612"
    },
    {
      "channel": 4,
      "note": 59,
      "start": 1.8335,
      "duration": 0.0147,
      "velocity": 121,
      "chip": "ym2612"
    },
    {
      "channel": 5,
      "note": 77,
      "start": 1.8338,
      "duration": 0.0147,
      "velocity": 47,
      "chip": "ym2612"
    },
    {
      "channel": 1,
      "note": 69,
      "start": 1.848,
      "duration": 0.0167,
      "velocity": 47,
      "chip": "ym2612"
    },
    {
      "channel": 4,
      "note": 58,
      "start": 1.8482,
      "duration": 0.0167,
      "velocity": 121,
      "chip": "ym2612"
    },
    {
      "channel": 5,
      "note": 78,
      "start": 1.8485,
      "duration": 0.0167,
      "velocity": 47,
      "chip": "ym2612"
    },
    {
      "channel": 1,
      "note": 69,
      "start": 1.8646,
      "duration": 0.0167,
      "velocity": 47,
      "chip": "ym2612"
    },
    {
      "channel": 4,
      "note": 57,
      "start": 1.8649,
      "duration": 0.0167,
      "velocity": 121,
      "chip": "ym2612"
    },
    {
      "channel": 5,
      "note": 78,
      "start": 1.8651,
      "duration": 0.0167,
      "velocity": 47,
      "chip": "ym2612"
    },
    {
      "channel": 1,
      "note": 69,
      "start": 1.8813,
      "duration": 0.0167,
      "velocity": 47,
      "chip": "ym2612"
    },
    {
      "channel": 4,
      "note": 56,
      "start": 1.8816,
      "duration": 0.0167,
      "velocity": 121,
      "chip": "ym2612"
    },
    {
      "channel": 5,
      "note": 78,
      "start": 1.8818,
      "duration": 0.0167,
      "velocity": 47,
      "chip": "ym2612"
    },
    {
      "channel": 1,
      "note": 69,
      "start": 1.898,
      "duration": 0.0178,
      "velocity": 47,
      "chip": "ym2612"
    },
    {
      "channel": 4,
      "note": 56,
      "start": 1.8982,
      "duration": 0.0177,
      "velocity": 121,
      "chip": "ym2612"
    },
    {
      "channel": 5,
      "note": 78,
      "start": 1.8985,
      "duration": 0.0177,
      "velocity": 47,
      "chip": "ym2612"
    },
    {
      "channel": 0,
      "note": 79,
      "start": 1.9151,
      "duration": 0.0831,
      "velocity": 108,
      "chip": "ym2612"
    },
    {
      "channel": 1,
      "note": 69,
      "start": 1.9157,
      "duration": 0.0156,
      "velocity": 47,
      "chip": "ym2612"
    },
    {
      "channel": 4,
      "note": 55,
      "start": 1.916,
      "duration": 0.0156,
      "velocity": 121,
      "chip": "ym2612"
    },
    {
      "channel": 5,
      "note": 78,
      "start": 1.9162,
      "duration": 0.0156,
      "velocity": 47,
      "chip": "ym2612"
    },
    {
      "channel": 1,
      "note": 69,
      "start": 1.9313,
      "duration": 0.0167,
      "velocity": 47,
      "chip": "ym2612"
    },
    {
      "channel": 4,
      "note": 54,
      "start": 1.9316,
      "duration": 0.0167,
      "velocity": 121,
      "chip": "ym2612"
    },
    {
      "channel": 5,
      "note": 78,
      "start": 1.9318,
      "duration": 0.0167,
      "velocity": 47,
      "chip": "ym2612"
    },
    {
      "channel": 1,
      "note": 69,
      "start": 1.948,
      "duration": 0.0167,
      "velocity": 47,
      "chip": "ym2612"
    },
    {
      "channel": 4,
      "note": 53,
      "start": 1.9482,
      "duration": 0.0167,
      "velocity": 121,
      "chip": "ym2612"
    },
    {
      "channel": 5,
      "note": 78,
      "start": 1.9485,
      "duration": 0.0167,
      "velocity": 47,
      "chip": "ym2612"
    },
    {
      "channel": 1,
      "note": 69,
      "start": 1.9646,
      "duration": 0.0167,
      "velocity": 47,
      "chip": "ym2612"
    },
    {
      "channel": 4,
      "note": 52,
      "start": 1.9649,
      "duration": 0.0167,
      "velocity": 121,
      "chip": "ym2612"
    },
    {
      "channel": 5,
      "note": 78,
      "start": 1.9651,
      "duration": 0.0167,
      "velocity": 47,
      "chip": "ym2612"
    },
    {
      "channel": 1,
      "note": 70,
      "start": 1.9813,
      "duration": 0.0182,
      "velocity": 47,
      "chip": "ym2612"
    },
    {
      "channel": 4,
      "note": 51,
      "start": 1.9816,
      "duration": 0.0174,
      "velocity": 121,
      "chip": "ym2612"
    },
    {
      "channel": 5,
      "note": 79,
      "start": 1.9818,
      "duration": 0.0182,
      "velocity": 47,
      "chip": "ym2612"
    },
    {
      "channel": 0,
      "note": 79,
      "start": 1.9984,
      "duration": 0.0832,
      "velocity": 108,
      "chip": "ym2612"
    },
    {
      "channel": 4,
      "note": 78,
      "start": 1.9991,
      "duration": 0.0006,
      "velocity": 121,
      "chip": "ym2612"
    },
    {
      "channel": 1,
      "note": 70,
      "start": 1.9995,
      "duration": 0.0151,
      "velocity": 47,
      "chip": "ym2612"
    },
    {
      "channel": 4,
      "note": 78,
      "start": 1.9998,
      "duration": 0.0151,
      "velocity": 121,
      "chip": "ym2612"
    },
    {
      "channel": 5,
      "note": 79,
      "start": 2.0,
      "duration": 0.0151,
      "velocity": 47,
      "chip": "ym2612"
    },
    {
      "channel": 1,
      "note": 70,
      "start": 2.0146,
      "duration": 0.0167,
      "velocity": 47,
      "chip": "ym2612"
    },
    {
      "channel": 4,
      "note": 77,
      "start": 2.0149,
      "duration": 0.0167,
      "velocity": 121,
      "chip": "ym2612"
    },
    {
      "channel": 5,
      "note": 79,
      "start": 2.0151,
      "duration": 0.0167,
      "velocity": 47,
      "chip": "ym2612"
    },
    {
      "channel": 1,
      "note": 70,
      "start": 2.0313,
      "duration": 0.0167,
      "velocity": 47,
      "chip": "ym2612"
    },
    {
      "channel": 4,
      "note": 77,
      "start": 2.0316,
      "duration": 0.0167,
      "velocity": 121,
      "chip": "ym2612"
    },
    {
      "channel": 5,
      "note": 79,
      "start": 2.0318,
      "duration": 0.0167,
      "velocity": 47,
      "chip": "ym2612"
    },
    {
      "channel": 1,
      "note": 70,
      "start": 2.048,
      "duration": 0.0167,
      "velocity": 47,
      "chip": "ym2612"
    },
    {
      "channel": 4,
      "note": 76,
      "start": 2.0482,
      "duration": 0.0167,
      "velocity": 121,
      "chip": "ym2612"
    },
    {
      "channel": 5,
      "note": 79,
      "start": 2.0485,
      "duration": 0.0167,
      "velocity": 47,
      "chip": "ym2612"
    },
    {
      "channel": 1,
      "note": 70,
      "start": 2.0646,
      "duration": 0.0182,
      "velocity": 47,
      "chip": "ym2612"
    },
    {
      "channel": 4,
      "note": 76,
      "start": 2.0649,
      "duration": 0.0174,
      "velocity": 121,
      "chip": "ym2612"
    },
    {
      "channel": 5,
      "note": 79,
      "start": 2.0651,
      "duration": 0.0182,
      "velocity": 47,
      "chip": "ym2612"
    },
    {
      "channel": 0,
      "note": 79,
      "start": 2.0817,
      "duration": 0.0832,
      "velocity": 108,
      "chip": "ym2612"
    },
    {
      "channel": 4,
      "note": 78,
      "start": 2.0824,
      "duration": 0.0006,
      "velocity": 121,
      "chip": "ym2612"
    },
    {
      "channel": 1,
      "note": 70,
      "start": 2.0828,
      "duration": 0.0151,
      "velocity": 47,
      "chip": "ym2612"
    },
    {
      "channel": 4,
      "note": 78,
      "start": 2.0831,
      "duration": 0.0151,
      "velocity": 121,
      "chip": "ym2612"
    },
    {
      "channel": 5,
      "note": 79,
      "start": 2.0833,
      "duration": 0.0151,
      "velocity": 47,
      "chip": "ym2612"
    },
    {
      "channel": 1,
      "note": 70,
      "start": 2.098,
      "duration": 0.0167,
      "velocity": 47,
      "chip": "ym2612"
    },
    {
      "channel": 4,
      "note": 77,
      "start": 2.0982,
      "duration": 0.0167,
      "velocity": 121,
      "chip": "ym2612"
    },
    {
      "channel": 5,
      "note": 79,
      "start": 2.0985,
      "duration": 0.0167,
      "velocity": 47,
      "chip": "ym2612"
    },
    {
      "channel": 1,
      "note": 70,
      "start": 2.1146,
      "duration": 0.0167,
      "velocity": 47,
      "chip": "ym2612"
    },
    {
      "channel": 4,
      "note": 77,
      "start": 2.1149,
      "duration": 0.0167,
      "velocity": 121,
      "chip": "ym2612"
    },
    {
      "channel": 5,
      "note": 79,
      "start": 2.1151,
      "duration": 0.0167,
      "velocity": 47,
      "chip": "ym2612"
    },
    {
      "channel": 1,
      "note": 70,
      "start": 2.1313,
      "duration": 0.0167,
      "velocity": 47,
      "chip": "ym2612"
    },
    {
      "channel": 4,
      "note": 76,
      "start": 2.1316,
      "duration": 0.0167,
      "velocity": 121,
      "chip": "ym2612"
    },
    {
      "channel": 5,
      "note": 80,
      "start": 2.1318,
      "duration": 0.0167,
      "velocity": 47,
      "chip": "ym2612"
    },
    {
      "channel": 1,
      "note": 71,
      "start": 2.148,
      "duration": 0.0192,
      "velocity": 47,
      "chip": "ym2612"
    },
    {
      "channel": 4,
      "note": 76,
      "start": 2.1482,
      "duration": 0.0184,
      "velocity": 121,
      "chip": "ym2612"
    },
    {
      "channel": 5,
      "note": 80,
      "start": 2.1485,
      "duration": 0.0191,
      "velocity": 47,
      "chip": "ym2612"
    },
    {
      "channel": 0,
      "note": 79,
      "start": 2.1651,
      "duration": 0.0832,
      "velocity": 108,
      "chip": "ym2612"
    },
    {
      "channel": 2,
      "note": 60,
      "start": 2.1657,
      "duration": 0.3332,
      "velocity": 113,
      "chip": "ym2612"
    },
    {
      "channel": 3,
      "note": 48,
      "start": 2.1662,
      "duration": 0.3332,
      "velocity": 113,
      "chip": "ym2612"
    },
    {
      "channel": 4,
      "note": 78,
      "start": 2.1668,
      "duration": 0.0006,
      "velocity": 121,
      "chip": "ym2612"
    },
    {
      "channel": 1,
      "note": 71,
      "start": 2.1671,
      "duration": 0.0142,
      "velocity": 47,
      "chip": "ym2612"
    },
    {
      "channel": 4,
      "note": 78,
      "start": 2.1674,
      "duration": 0.0141,
      "velocity": 121,
      "chip": "ym2612"
    },
    {
      "channel": 5,
      "note": 80,
      "start": 2.1676,
      "duration": 0.0142,
      "velocity": 47,
      "chip": "ym2612"
    },
    {
      "channel": 1,
      "note": 71,
      "start": 2.1813,
      "duration": 0.0167,
      "velocity": 47,
      "chip": "ym2612"
    },
    {
      "channel": 4,
      "note": 77,
      "start": 2.1816,
      "duration": 0.0167,
      "velocity": 121,
      "chip": "ym2612"
    },
    {
      "channel": 5,
      "note": 80,
      "start": 2.1818,
      "duration": 0.0167,
      "velocity": 47,
      "chip": "ym2612"
    },
    {
      "channel": 1,
      "note": 71,
      "start": 2.198,
      "duration": 0.0167,
      "velocity": 47,
      "chip": "ym2612"
    },
    {
      "channel": 4,
      "note": 77,
      "start": 2.1982,
      "duration": 0.0167,
      "velocity": 121,
      "chip": "ym2612"
    },
    {
      "channel": 5,
      "note": 80,
      "start": 2.1985,
      "duration": 0.0167,
      "velocity": 47,
      "chip": "ym2612"
    },
    {
      "channel": 1,
      "note": 71,
      "start": 2.2146,
      "duration": 0.0167,
      "velocity": 47,
      "chip": "ym2612"
    },
    {
      "channel": 4,
      "note": 76,
      "start": 2.2149,
      "duration": 0.0167,
      "velocity": 121,
      "chip": "ym2612"
    },
    {
      "channel": 5,
      "note": 80,
      "start": 2.2151,
      "duration": 0.0167,
      "velocity": 47,
      "chip": "ym2612"
    },
    {
      "channel": 1,
      "note": 71,
      "start": 2.2313,
      "duration": 0.0178,
      "velocity": 47,
      "chip": "ym2612"
    },
    {
      "channel": 4,
      "note": 76,
      "start": 2.2316,
      "duration": 0.0177,
      "velocity": 121,
      "chip": "ym2612"
    },
    {
      "channel": 5,
      "note": 80,
      "start": 2.2318,
      "duration": 0.0177,
      "velocity": 47,
      "chip": "ym2612"
    },
    {
      "channel": 0,
      "note": 79,
      "start": 2.2485,
      "duration": 0.0831,
      "velocity": 108,
      "chip": "ym2612"
    },
    {
      "channel": 1,
      "note": 71,
      "start": 2.249,
      "duration": 0.0155,
      "velocity": 47,
      "chip": "ym2612"
    },
    {
      "channel": 4,
      "note": 75,
      "start": 2.2493,
      "duration": 0.0156,
      "velocity": 121,
      "chip": "ym2612"
    },
    {
      "channel": 5,
      "note": 80,
      "start": 2.2495,
      "duration": 0.0156,
      "velocity": 47,
      "chip": "ym2612"
    },
    {
      "channel": 1,
      "note": 71,
      "start": 2.2646,
      "duration": 0.0167,
      "velocity": 47,
      "chip": "ym2612"
    },
    {
      "channel": 4,
      "note": 75,
      "start": 2.2649,
      "duration": 0.0167,
      "velocity": 121,
      "chip": "ym2612"
    },
    {
      "channel": 5,
      "note": 81,
      "start": 2.2651,
      "duration": 0.0167,
      "velocity": 47,
      "chip": "ym2612"
    },
    {
      "channel": 1,
      "note": 71,
      "start": 2.2813,
      "duration": 0.0167,
      "velocity": 47,
      "chip": "ym2612"
    },
    {
      "channel": 4,
      "note": 74,
      "start": 2.2816,
      "duration": 0.0167,
      "velocity": 121,
      "chip": "ym2612"
    },
    {
      "channel": 5,
      "note": 81,
      "start": 2.2818,
      "duration": 0.0167,
      "velocity": 47,
      "chip": "ym2612"
    },
    {
      "channel": 1,
      "note": 71,
      "start": 2.298,
      "duration": 0.0166,
      "velocity": 47,
      "chip": "ym2612"
    },
    {
      "channel": 4,
      "note": 74,
      "start": 2.2982,
      "duration": 0.0167,
      "velocity": 121,
      "chip": "ym2612"
    },
    {
      "channel": 5,
      "note": 81,
      "start": 2.2985,
      "duration": 0.0167,
      "velocity": 47,
      "chip": "ym2612"
    },
    {
      "channel": 1,
      "note": 72,
      "start": 2.3146,
      "duration": 0.0183,
      "velocity": 47,
      "chip": "ym2612"
    },
    {
      "channel": 4,
      "note": 73,
      "start": 2.3149,
      "duration": 0.0174,
      "velocity": 121,
      "chip": "ym2612"
    },
    {
      "channel": 5,
      "note": 81,
      "start": 2.3151,
      "duration": 0.0182,
      "velocity": 47,
      "chip": "ym2612"
    },
    {
      "channel": 0,
      "note": 79,
      "start": 2.3317,
      "duration": 0.0832,
      "velocity": 108,
      "chip": "ym2612"
    },
    {
      "channel": 4,
      "note": 72,
      "start": 2.3324,
      "duration": 0.0006,
      "velocity": 121,
      "chip": "ym2612"
    },
    {
      "channel": 1,
      "note": 72,
      "start": 2.3328,
      "duration": 0.0151,
      "velocity": 47,
      "chip": "ym2612"
    },
    {
      "channel": 4,
      "note": 71,
      "start": 2.3331,
      "duration": 0.0151,
      "velocity": 121,
      "chip": "ym2612"
    },
    {
      "channel": 5,
      "note": 81,
      "start": 2.3333,
      "duration": 0.0151,
      "velocity": 47,
      "chip": "ym2612"
    },
    {
      "channel": 1,
      "note": 72,
      "start": 2.348,
      "duration": 0.0167,
      "velocity": 47,
      "chip": "ym2612"
    },
    {
      "channel": 4,
      "note": 71,
      "start": 2.3482,
      "duration": 0.0167,
      "velocity": 121,
      "chip": "ym2612"
    },
    {
      "channel": 5,
      "note": 81,
      "start": 2.3485,
      "duration": 0.0167,
      "velocity": 47,
      "chip": "ym2612"
    },
    {
      "channel": 1,
      "note": 72,
      "start": 2.3646,
      "duration": 0.0167,
      "velocity": 47,
      "chip": "ym2612"
    },
    {
      "channel": 4,
      "note": 70,
      "start": 2.3649,
      "duration": 0.0167,
      "velocity": 121,
      "chip": "ym2612"
    },
    {
      "channel": 5,
      "note": 81,
      "start": 2.3651,
      "duration": 0.0167,
      "velocity": 47,
      "chip": "ym2612"
    },
    {
      "channel": 1,
      "note": 72,
      "start": 2.3813,
      "duration": 0.0167,
      "velocity": 47,
      "chip": "ym2612"
    },
    {
      "channel": 4,
      "note": 69,
      "start": 2.3816,
      "duration": 0.0167,
      "velocity": 121,
      "chip": "ym2612"
    },
    {
      "channel": 5,
      "note": 81,
      "start": 2.3818,
      "duration": 0.0167,
      "velocity": 47,
      "chip": "ym2612"
    },
    {
      "channel": 1,
      "note": 72,
      "start": 2.398,
      "duration": 0.0182,
      "velocity": 47,
      "chip": "ym2612"
    },
    {
      "channel": 4,
      "note": 69,
      "start": 2.3982,
      "duration": 0.0174,
      "velocity": 121,
      "chip": "ym2612"
    },
    {
      "channel": 5,
      "note": 81,
      "start": 2.3985,
      "duration": 0.0182,
      "velocity": 47,
      "chip": "ym2612"
    },
    {
      "channel": 0,
      "note": 79,
      "start": 2.4151,
      "duration": 0.0832,
      "velocity": 108,
      "chip": "ym2612"
    },
    {
      "channel": 4,
      "note": 72,
      "start": 2.4158,
      "duration": 0.0006,
      "velocity": 121,
      "chip": "ym2612"
    },
    {
      "channel": 1,
      "note": 72,
      "start": 2.4162,
      "duration": 0.0151,
      "velocity": 47,
      "chip": "ym2612"
    },
    {
      "channel": 4,
      "note": 71,
      "start": 2.4164,
      "duration": 0.0151,
      "velocity": 121,
      "chip": "ym2612"
    },
    {
      "channel": 5,
      "note": 81,
      "start": 2.4167,
      "duration": 0.0151,
      "velocity": 47,
      "chip": "ym2612"
    },
    {
      "channel": 1,
      "note": 72,
      "start": 2.4313,
      "duration": 0.0167,
      "velocity": 47,
      "chip": "ym2612"
    },
    {
      "channel": 4,
      "note": 71,
      "start": 2.4316,
      "duration": 0.0167,
      "velocity": 121,
      "chip": "ym2612"
    },
    {
      "channel": 5,
      "note": 82,
      "start": 2.4318,
      "duration": 0.0167,
      "velocity": 47,
      "chip": "ym2612"
    },
    {
      "channel": 1,
      "note": 72,
      "start": 2.448,
      "duration": 0.0167,
      "velocity": 47,
      "chip": "ym2612"
    },
    {
      "channel": 4,
      "note": 70,
      "start": 2.4482,
      "duration": 0.0167,
      "velocity": 121,
      "chip": "ym2612"
    },
    {
      "channel": 5,
      "note": 82,
      "start": 2.4485,
      "duration": 0.0167,
      "velocity": 47,
      "chip": "ym2612"
    },
    {
      "channel": 1,
      "note": 72,
      "start": 2.4646,
      "duration": 0.0167,
      "velocity": 47,
      "chip": "ym2612"
    },
    {
      "channel": 4,
      "note": 69,
      "start": 2.4649,
      "duration": 0.0167,
      "velocity": 121,
      "chip": "ym2612"
    },
    {
      "channel": 5,
      "note": 82,
      "start": 2.4651,
      "duration": 0.0167,
      "velocity": 47,
      "chip": "ym2612"
    },
    {
      "channel": 1,
      "note": 72,
      "start": 2.4813,
      "duration": 0.0192,
      "velocity": 47,
      "chip": "ym2612"
    },
    {
      "channel": 4,
      "note": 69,
      "start": 2.4816,
      "duration": 0.0184,
      "velocity": 121,
      "chip": "ym2612"
    },
    {
      "channel": 5,
      "note": 82,
      "start": 2.4818,
      "duration": 0.0191,
      "velocity": 47,
      "chip": "ym2612"
    },
    {
      "channel": 0,
      "note": 79,
      "start": 2.4985,
      "duration": 0.0831,
      "velocity": 108,
      "chip": "ym2612"
    },
    {
      "channel": 2,
      "note": 60,
      "start": 2.499,
      "duration": 0.167,
      "velocity": 113,
      "chip": "ym2612"
    },
    {
      "channel": 3,
      "note": 48,
      "start": 2.4995,
      "duration": 0.1671,
      "velocity": 113,
      "chip": "ym2612"
    },
    {
      "channel": 4,
      "note": 72,
      "start": 2.5001,
      "duration": 0.0006,
      "velocity": 121,
      "chip": "ym2612"
    },
    {
      "channel": 1,
      "note": 73,
      "start": 2.5005,
      "duration": 0.0142,
      "velocity": 47,
      "chip": "ym2612"
    },
    {
      "channel": 4,
      "note": 71,
      "start": 2.5008,
      "duration": 0.0141,
      "velocity": 121,
      "chip": "ym2612"
    },
    {
      "channel": 5,
      "note": 82,
      "start": 2.501,
      "duration": 0.0142,
      "velocity": 47,
      "chip": "ym2612"
    },
    {
      "channel": 1,
      "note": 73,
      "start": 2.5146,
      "duration": 0.0167,
      "velocity": 47,
      "chip": "ym2612"
    },
    {
      "channel": 4,
      "note": 71,
      "start": 2.5149,
      "duration": 0.0167,
      "velocity": 121,
      "chip": "ym2612"
    },
    {
      "channel": 5,
      "note": 82,
      "start": 2.5151,
      "duration": 0.0167,
      "velocity": 47,
      "chip": "ym2612"
    },
    {
      "channel": 1,
      "note": 73,
      "start": 2.5313,
      "duration": 0.0167,
      "velocity": 47,
      "chip": "ym2612"
    },
    {
      "channel": 4,
      "note": 70,
      "start": 2.5316,
      "duration": 0.0167,
      "velocity": 121,
      "chip": "ym2612"
    },
    {
      "channel": 5,
      "note": 82,
      "start": 2.5318,
      "duration": 0.0167,
      "velocity": 47,
      "chip": "ym2612"
    },
    {
      "channel": 1,
      "note": 73,
      "start": 2.548,
      "duration": 0.0167,
      "velocity": 47,
      "chip": "ym2612"
    },
    {
      "channel": 4,
      "note": 69,
      "start": 2.5482,
      "duration": 0.0167,
      "velocity": 121,
      "chip": "ym2612"
    },
    {
      "channel": 5,
      "note": 82,
      "start": 2.5485,
      "duration": 0.0167,
      "velocity": 47,
      "chip": "ym2612"
    },
    {
      "channel": 1,
      "note": 73,
      "start": 2.5646,
      "duration": 0.0178,
      "velocity": 47,
      "chip": "ym2612"
    },
    {
      "channel": 4,
      "note": 69,
      "start": 2.5649,
      "duration": 0.0177,
      "velocity": 121,
      "chip": "ym2612"
    },
    {
      "channel": 5,
      "note": 82,
      "start": 2.5651,
      "duration": 0.0177,
      "velocity": 47,
      "chip": "ym2612"
    },
    {
      "channel": 0,
      "note": 79,
      "start": 2.5818,
      "duration": 0.0833,
      "velocity": 108,
      "chip": "ym2612"
    },
    {
      "channel": 1,
      "note": 73,
      "start": 2.5824,
      "duration": 0.0156,
      "velocity": 47,
      "chip": "ym2612"
    },
    {
      "channel": 4,
      "note": 68,
      "start": 2.5826,
      "duration": 0.0156,
      "velocity": 121,
      "chip": "ym2612"
    },
    {
      "channel": 5,
      "note": 82,
      "start": 2.5829,
      "duration": 0.0156,
      "velocity": 47,
      "chip": "ym2612"
    },
    {
      "channel": 1,
      "note": 73,
      "start": 2.598,
      "duration": 0.0166,
      "velocity": 47,
      "chip": "ym2612"
    },
    {
      "channel": 4,
      "note": 67,
      "start": 2.5982,
      "duration": 0.0167,
      "velocity": 121,
      "chip": "ym2612"
    },
    {
      "channel": 5,
      "note": 83,
      "start": 2.5985,
      "duration": 0.0167,
      "velocity": 47,
      "chip": "ym2612"
    },
    {
      "channel": 1,
      "note": 73,
      "start": 2.6146,
      "duration": 0.0167,
      "velocity": 47,
      "chip": "ym2612"
    },
    {
      "channel": 4,
      "note": 66,
      "start": 2.6149,
      "duration": 0.0167,
      "velocity": 121,
      "chip": "ym2612"
    },
    {
      "channel": 5,
      "note": 83,
      "start": 2.6151,
      "duration": 0.0167,
      "velocity": 47,
      "chip": "ym2612"
    },
    {
      "channel": 1,
      "note": 73,
      "start": 2.6313,
      "duration": 0.0167,
      "velocity": 47,
      "chip": "ym2612"
    },
    {
      "channel": 4,
      "note": 65,
      "start": 2.6316,
      "duration": 0.0167,
      "velocity": 121,
      "chip": "ym2612"
    },
    {
      "channel": 5,
      "note": 83,
      "start": 2.6318,
      "duration": 0.0167,
      "velocity": 47,
      "chip": "ym2612"
    },
    {
      "channel": 1,
      "note": 73,
      "start": 2.648,
      "duration": 0.0176,
      "velocity": 47,
      "chip": "ym2612"
    },
    {
      "channel": 4,
      "note": 64,
      "start": 2.6482,
      "duration": 0.0189,
      "velocity": 121,
      "chip": "ym2612"
    },
    {
      "channel": 5,
      "note": 83,
      "start": 2.6485,
      "duration": 0.0191,
      "velocity": 47,
      "chip": "ym2612"
    },
    {
      "channel": 0,
      "note": 79,
      "start": 2.6652,
      "duration": 0.0832,
      "velocity": 108,
      "chip": "ym2612"
    },
    {
      "channel": 1,
      "note": 74,
      "start": 2.6657,
      "duration": 1.9998,
      "velocity": 47,
      "chip": "ym2612"
    },
    {
      "channel": 2,
      "note": 62,
      "start": 2.6662,
      "duration": 0.166,
      "velocity": 113,
      "chip": "ym2612"
    },
    {
      "channel": 3,
      "note": 50,
      "start": 2.6667,
      "duration": 0.166,
      "velocity": 113,
      "chip": "ym2612"
    },
    {
      "channel": 4,
      "note": 67,
      "start": 2.6673,
      "duration": 0.0009,
      "velocity": 121,
      "chip": "ym2612"
    },
    {
      "channel": 5,
      "note": 81,
      "start": 2.6678,
      "duration": 1.9998,
      "velocity": 47,
      "chip": "ym2612"
    },
    {
      "channel": 4,
      "note": 67,
      "start": 2.6682,
      "duration": 0.0132,
      "velocity": 121,
      "chip": "ym2612"
    },
    {
      "channel": 4,
      "note": 66,
      "start": 2.6814,
      "duration": 0.0167,
      "velocity": 121,
      "chip": "ym2612"
    },
    {
      "channel": 4,
      "note": 66,
      "start": 2.698,
      "duration": 0.0167,
      "velocity": 121,
      "chip": "ym2612"
    },
    {
      "channel": 4,
      "note": 65,
      "start": 2.7147,
      "duration": 0.0167,
      "velocity": 121,
      "chip": "ym2612"
    },
    {
      "channel": 4,
      "note": 65,
      "start": 2.7314,
      "duration": 0.0179,
      "velocity": 121,
      "chip": "ym2612"
    },
    {
      "channel": 0,
      "note": 79,
      "start": 2.7486,
      "duration": 0.083,
      "velocity": 108,
      "chip": "ym2612"
    },
    {
      "channel": 4,
      "note": 64,
      "start": 2.7492,
      "duration": 0.0155,
      "velocity": 121,
      "chip": "ym2612"
    },
    {
      "channel": 4,
      "note": 64,
      "start": 2.7647,
      "duration": 0.0167,
      "velocity": 121,
      "chip": "ym2612"
    },
    {
      "channel": 4,
      "note": 63,
      "start": 2.7814,
      "duration": 0.0167,
      "velocity": 121,
      "chip": "ym2612"
    },
    {
      "channel": 4,
      "note": 63,
      "start": 2.798,
      "duration": 0.0167,
      "velocity": 121,
      "chip": "ym2612"
    },
    {
      "channel": 4,
      "note": 62,
      "start": 2.8147,
      "duration": 0.0186,
      "velocity": 121,
      "chip": "ym2612"
    },
    {
      "channel": 0,
      "note": 79,
      "start": 2.8318,
      "duration": 0.0831,
      "velocity": 108,
      "chip": "ym2612"
    },
    {
      "channel": 2,
      "note": 62,
      "start": 2.8323,
      "duration": 0.8332,
      "velocity": 113,
      "chip": "ym2612"
    },
    {
      "channel": 3,
      "note": 50,
      "start": 2.8328,
      "duration": 0.8333,
      "velocity": 113,
      "chip": "ym2612"
    },
    {
      "channel": 4,
      "note": 62,
      "start": 2.8333,
      "duration": 0.0147,
      "velocity": 121,
      "chip": "ym2612"
    },
    {
      "channel": 4,
      "note": 61,
      "start": 2.848,
      "duration": 0.0167,
      "velocity": 121,
      "chip": "ym2612"
    },
    {
      "channel": 4,
      "note": 61,
      "start": 2.8647,
      "duration": 0.0167,
      "velocity": 121,
      "chip": "ym2612"
    },
    {
      "channel": 4,
      "note": 60,
      "start": 2.8814,
      "duration": 0.0167,
      "velocity": 121,
      "chip": "ym2612"
    },
    {
      "channel": 4,
      "note": 59,
      "start": 2.898,
      "duration": 0.0178,
      "velocity": 121,
      "chip": "ym2612"
    },
    {
      "channel": 0,
      "note": 79,
      "start": 2.9151,
      "duration": 0.0831,
      "velocity": 108,
      "chip": "ym2612"
    },
    {
      "channel": 4,
      "note": 59,
      "start": 2.9158,
      "duration": 0.0156,
      "velocity": 121,
      "chip": "ym2612"
    },
    {
      "channel": 4,
      "note": 58,
      "start": 2.9314,
      "duration": 0.0167,
      "velocity": 121,
      "chip": "ym2612"
    },
    {
      "channel": 4,
      "note": 57,
      "start": 2.948,
      "duration": 0.0167,
      "velocity": 121,
      "chip": "ym2612"
    },
    {
      "channel": 4,
      "note": 56,
      "start": 2.9647,
      "duration": 0.0167,
      "velocity": 121,
      "chip": "ym2612"
    },
    {
      "channel": 4,
      "note": 56,
      "start": 2.9814,
      "duration": 0.0177,
      "velocity": 121,
      "chip": "ym2612"
    },
    {
      "channel": 0,
      "note": 79,
      "start": 2.9984,
      "duration": 0.0832,
      "velocity": 108,
      "chip": "ym2612"
    },
    {
      "channel": 4,
      "note": 55,
      "start": 2.999,
      "duration": 0.0156,
      "velocity": 121,
      "chip": "ym2612"
    },
    {
      "channel": 4,
      "note": 54,
      "start": 3.0147,
      "duration": 0.0167,
      "velocity": 121,
      "chip": "ym2612"
    },
    {
      "channel": 4,
      "note": 53,
      "start": 3.0314,
      "duration": 0.0167,
      "velocity": 121,
      "chip": "ym2612"
    },
    {
      "channel": 4,
      "note": 52,
      "start": 3.048,
      "duration": 0.0167,
      "velocity": 121,
      "chip": "ym2612"
    },
    {
      "channel": 4,
      "note": 51,
      "start": 3.0647,
      "duration": 0.0177,
      "velocity": 121,
      "chip": "ym2612"
    },
    {
      "channel": 0,
      "note": 79,
      "start": 3.0817,
      "duration": 0.0832,
      "velocity": 108,
      "chip": "ym2612"
    },
    {
      "channel": 4,
      "note": 50,
      "start": 3.0824,
      "duration": 0.0156,
      "velocity": 121,
      "chip": "ym2612"
    },
    {
      "channel": 4,
      "note": 49,
      "start": 3.098,
      "duration": 0.0167,
      "velocity": 121,
      "chip": "ym2612"
    },
    {
      "channel": 4,
      "note": 48,
      "start": 3.1147,
      "duration": 0.0167,
      "velocity": 121,
      "chip": "ym2612"
    },
    {
      "channel": 4,
      "note": 46,
      "start": 3.1314,
      "duration": 0.0167,
      "velocity": 121,
      "chip": "ym2612"
    },
    {
      "channel": 4,
      "note": 45,
      "start": 3.148,
      "duration": 0.0177,
      "velocity": 121,
      "chip": "ym2612"
    },
    {
      "channel": 0,
      "note": 79,
      "start": 3.1651,
      "duration": 0.0832,
      "velocity": 108,
      "chip": "ym2612"
    },
    {
      "channel": 4,
      "note": 43,
      "start": 3.1657,
      "duration": 0.0156,
      "velocity": 121,
      "chip": "ym2612"
    },
    {
      "channel": 4,
      "note": 42,
      "start": 3.1814,
      "duration": 0.0167,
      "velocity": 121,
      "chip": "ym2612"
    },
    {
      "channel": 4,
      "note": 40,
      "start": 3.198,
      "duration": 0.0167,
      "velocity": 121,
      "chip": "ym2612"
    },
    {
      "channel": 4,
      "note": 38,
      "start": 3.2147,
      "duration": 0.0167,
      "velocity": 121,
      "chip": "ym2612"
    },
    {
      "channel": 4,
      "note": 35,
      "start": 3.2314,
      "duration": 0.0177,
      "velocity": 121,
      "chip": "ym2612"
    },
    {
      "channel": 0,
      "note": 79,
      "start": 3.2484,
      "duration": 0.0832,
      "velocity": 108,
      "chip": "ym2612"
    },
    {
      "channel": 4,
      "note": 32,
      "start": 3.249,
      "duration": 0.0156,
      "velocity": 121,
      "chip": "ym2612"
    },
    {
      "channel": 4,
      "note": 29,
      "start": 3.2647,
      "duration": 0.0167,
      "velocity": 121,
      "chip": "ym2612"
    },
    {
      "channel": 4,
      "note": 25,
      "start": 3.2814,
      "duration": 0.0167,
      "velocity": 121,
      "chip": "ym2612"
    },
    {
      "channel": 4,
      "note": 19,
      "start": 3.298,
      "duration": 0.0167,
      "velocity": 121,
      "chip": "ym2612"
    },
    {
      "channel": 4,
      "note": 10,
      "start": 3.3147,
      "duration": 0.0176,
      "velocity": 121,
      "chip": "ym2612"
    },
    {
      "channel": 0,
      "note": 79,
      "start": 3.3317,
      "duration": 0.0832,
      "velocity": 108,
      "chip": "ym2612"
    },
    {
      "channel": 4,
      "note": 71,
      "start": 3.3324,
      "duration": 0.0004,
      "velocity": 121,
      "chip": "ym2612"
    },
    {
      "channel": 4,
      "note": 70,
      "start": 3.3329,
      "duration": 0.0151,
      "velocity": 121,
      "chip": "ym2612"
    },
    {
      "channel": 4,
      "note": 70,
      "start": 3.348,
      "duration": 0.0167,
      "velocity": 121,
      "chip": "ym2612"
    },
    {
      "channel": 4,
      "note": 69,
      "start": 3.3647,
      "duration": 0.0167,
      "velocity": 121,
      "chip": "ym2612"
    },
    {
      "channel": 4,
      "note": 68,
      "start": 3.3814,
      "duration": 0.0167,
      "velocity": 121,
      "chip": "ym2612"
    },
    {
      "channel": 4,
      "note": 67,
      "start": 3.398,
      "duration": 0.0176,
      "velocity": 121,
      "chip": "ym2612"
    },
    {
      "channel": 0,
      "note": 79,
      "start": 3.4151,
      "duration": 0.0832,
      "velocity": 108,
      "chip": "ym2612"
    },
    {
      "channel": 4,
      "note": 71,
      "start": 3.4158,
      "duration": 0.0004,
      "velocity": 121,
      "chip": "ym2612"
    },
    {
      "channel": 4,
      "note": 70,
      "start": 3.4162,
      "duration": 0.0151,
      "velocity": 121,
      "chip": "ym2612"
    },
    {
      "channel": 4,
      "note": 70,
      "start": 3.4314,
      "duration": 0.0167,
      "velocity": 121,
      "chip": "ym2612"
    },
    {
      "channel": 4,
      "note": 69,
      "start": 3.448,
      "duration": 0.0167,
      "velocity": 121,
      "chip": "ym2612"
    },
    {
      "channel": 4,
      "note": 68,
      "start": 3.4647,
      "duration": 0.0167,
      "velocity": 121,
      "chip": "ym2612"
    },
    {
      "channel": 4,
      "note": 67,
      "start": 3.4814,
      "duration": 0.0176,
      "velocity": 121,
      "chip": "ym2612"
    },
    {
      "channel": 0,
      "note": 79,
      "start": 3.4984,
      "duration": 0.0832,
      "velocity": 108,
      "chip": "ym2612"
    },
    {
      "channel": 4,
      "note": 71,
      "start": 3.4991,
      "duration": 0.0004,
      "velocity": 121,
      "chip": "ym2612"
    },
    {
      "channel": 4,
      "note": 70,
      "start": 3.4995,
      "duration": 0.0151,
      "velocity": 121,
      "chip": "ym2612"
    },
    {
      "channel": 4,
      "note": 70,
      "start": 3.5147,
      "duration": 0.0167,
      "velocity": 121,
      "chip": "ym2612"
    },
    {
      "channel": 4,
      "note": 69,
      "start": 3.5314,
      "duration": 0.0167,
      "velocity": 121,
      "chip": "ym2612"
    },
    {
      "channel": 4,
      "note": 68,
      "start": 3.548,
      "duration": 0.0167,
      "velocity": 121,
      "chip": "ym2612"
    },
    {
      "channel": 4,
      "note": 67,
      "start": 3.5647,
      "duration": 0.0176,
      "velocity": 121,
      "chip": "ym2612"
    },
    {
      "channel": 0,
      "note": 79,
      "start": 3.5817,
      "duration": 0.0833,
      "velocity": 108,
      "chip": "ym2612"
    },
    {
      "channel": 4,
      "note": 67,
      "start": 3.5824,
      "duration": 0.0004,
      "velocity": 121,
      "chip": "ym2612"
    },
    {
      "channel": 4,
      "note": 67,
      "start": 3.5829,
      "duration": 0.0151,
      "velocity": 121,
      "chip": "ym2612"
    },
    {
      "channel": 4,
      "note": 66,
      "start": 3.598,
      "duration": 0.0167,
      "velocity": 121,
      "chip": "ym2612"
    },
    {
      "channel": 4,
      "note": 66,
      "start": 3.6147,
      "duration": 0.0167,
      "velocity": 121,
      "chip": "ym2612"
    },
    {
      "channel": 4,
      "note": 65,
      "start": 3.6314,
      "duration": 0.0167,
      "velocity": 121,
      "chip": "ym2612"
    },
    {
      "channel": 4,
      "note": 65,
      "start": 3.648,
      "duration": 0.0187,
      "velocity": 121,
      "chip": "ym2612"
    },
    {
      "channel": 0,
      "note": 79,
      "start": 3.6651,
      "duration": 0.0831,
      "velocity": 108,
      "chip": "ym2612"
    },
    {
      "channel": 2,
      "note": 65,
      "start": 3.6657,
      "duration": 0.1665,
      "velocity": 113,
      "chip": "ym2612"
    },
    {
      "channel": 3,
      "note": 53,
      "start": 3.6662,
      "duration": 0.1665,
      "velocity": 113,
      "chip": "ym2612"
    },
    {
      "channel": 4,
      "note": 64,
      "start": 3.6667,
      "duration": 0.0146,
      "velocity": 121,
      "chip": "ym2612"
    },
    {
      "channel": 4,
      "note": 64,
      "start": 3.6814,
      "duration": 0.0167,
      "velocity": 121,
      "chip": "ym2612"
    },
    {
      "channel": 4,
      "note": 63,
      "start": 3.698,
      "duration": 0.0167,
      "velocity": 121,
      "chip": "ym2612"
    },
    {
      "channel": 4,
      "note": 63,
      "start": 3.7147,
      "duration": 0.0167,
      "velocity": 121,
      "chip": "ym2612"
    },
    {
      "channel": 4,
      "note": 62,
      "start": 3.7314,
      "duration": 0.0178,
      "velocity": 121,
      "chip": "ym2612"
    },
    {
      "channel": 0,
      "note": 79,
      "start": 3.7485,
      "duration": 0.0831,
      "velocity": 108,
      "chip": "ym2612"
    },
    {
      "channel": 4,
      "note": 62,
      "start": 3.7491,
      "duration": 0.0156,
      "velocity": 121,
      "chip": "ym2612"
    },
    {
      "channel": 4,
      "note": 61,
      "start": 3.7647,
      "duration": 0.0167,
      "velocity": 121,
      "chip": "ym2612"
    },
    {
      "channel": 4,
      "note": 61,
      "start": 3.7814,
      "duration": 0.0167,
      "velocity": 121,
      "chip": "ym2612"
    },
    {
      "channel": 4,
      "note": 60,
      "start": 3.798,
      "duration": 0.0167,
      "velocity": 121,
      "chip": "ym2612"
    },
    {
      "channel": 4,
      "note": 59,
      "start": 3.8147,
      "duration": 0.0186,
      "velocity": 121,
      "chip": "ym2612"
    },
    {
      "channel": 0,
      "note": 79,
      "start": 3.8318,
      "duration": 0.0831,
      "velocity": 108,
      "chip": "ym2612"
    },
    {
      "channel": 2,
      "note": 65,
      "start": 3.8324,
      "duration": 0.4998,
      "velocity": 113,
      "chip": "ym2612"
    },
    {
      "channel": 3,
      "note": 53,
      "start": 3.8329,
      "duration": 0.4999,
      "velocity": 113,
      "chip": "ym2612"
    },
    {
      "channel": 4,
      "note": 59,
      "start": 3.8333,
      "duration": 0.0147,
      "velocity": 121,
      "chip": "ym2612"
    },
    {
      "channel": 4,
      "note": 58,
      "start": 3.848,
      "duration": 0.0167,
      "velocity": 121,
      "chip": "ym2612"
    },
    {
      "channel": 4,
      "note": 57,
      "start": 3.8647,
      "duration": 0.0167,
      "velocity": 121,
      "chip": "ym2612"
    },
    {
      "channel": 4,
      "note": 56,
      "start": 3.8814,
      "duration": 0.0167,
      "velocity": 121,
      "chip": "ym2612"
    },
    {
      "channel": 4,
      "note": 56,
      "start": 3.898,
      "duration": 0.0178,
      "velocity": 121,
      "chip": "ym2612"
    },
    {
      "channel": 0,
      "note": 79,
      "start": 3.9151,
      "duration": 0.0831,
      "velocity": 108,
      "chip": "ym2612"
    },
    {
      "channel": 4,
      "note": 55,
      "start": 3.9158,
      "duration": 0.0156,
      "velocity": 121,
      "chip": "ym2612"
    },
    {
      "channel": 4,
      "note": 54,
      "start": 3.9314,
      "duration": 0.0167,
      "velocity": 121,
      "chip": "ym2612"
    },
    {
      "channel": 4,
      "note": 53,
      "start": 3.948,
      "duration": 0.0167,
      "velocity": 121,
      "chip": "ym2612"
    },
    {
      "channel": 4,
      "note": 52,
      "start": 3.9647,
      "duration": 0.0167,
      "velocity": 121,
      "chip": "ym2612"
    },
    {
      "channel": 4,
      "note": 51,
      "start": 3.9814,
      "duration": 0.0176,
      "velocity": 121,
      "chip": "ym2612"
    },
    {
      "channel": 0,
      "note": 79,
      "start": 3.9984,
      "duration": 0.0832,
      "velocity": 108,
      "chip": "ym2612"
    },
    {
      "channel": 4,
      "note": 78,
      "start": 3.9991,
      "duration": 0.0004,
      "velocity": 121,
      "chip": "ym2612"
    },
    {
      "channel": 4,
      "note": 78,
      "start": 3.9995,
      "duration": 0.0151,
      "velocity": 121,
      "chip": "ym2612"
    },
    {
      "channel": 4,
      "note": 77,
      "start": 4.0147,
      "duration": 0.0167,
      "velocity": 121,
      "chip": "ym2612"
    },
    {
      "channel": 4,
      "note": 77,
      "start": 4.0314,
      "duration": 0.0167,
      "velocity": 121,
      "chip": "ym2612"
    },
    {
      "channel": 4,
      "note": 76,
      "start": 4.048,
      "duration": 0.0167,
      "velocity": 121,
      "chip": "ym2612"
    },
    {
      "channel": 4,
      "note": 76,
      "start": 4.0647,
      "duration": 0.0177,
      "velocity": 121,
      "chip": "ym2612"
    },
    {
      "channel": 0,
      "note": 79,
      "start": 4.0817,
      "duration": 0.0832,
      "velocity": 108,
      "chip": "ym2612"
    },
    {
      "channel": 4,
      "note": 75,
      "start": 4.0824,
      "duration": 0.0156,
      "velocity": 121,
      "chip": "ym2612"
    },
    {
      "channel": 4,
      "note": 75,
      "start": 4.098,
      "duration": 0.0167,
      "velocity": 121,
      "chip": "ym2612"
    },
    {
      "channel": 4,
      "note": 74,
      "start": 4.1147,
      "duration": 0.0167,
      "velocity": 121,
      "chip": "ym2612"
    },
    {
      "channel": 4,
      "note": 74,
      "start": 4.1314,
      "duration": 0.0167,
      "velocity": 121,
      "chip": "ym2612"
    },
    {
      "channel": 4,
      "note": 73,
      "start": 4.148,
      "duration": 0.0176,
      "velocity": 121,
      "chip": "ym2612"
    },
    {
      "channel": 0,
      "note": 79,
      "start": 4.1651,
      "duration": 0.0831,
      "velocity": 108,
      "chip": "ym2612"
    },
    {
      "channel": 4,
      "note": 78,
      "start": 4.1659,
      "duration": 0.0004,
      "velocity": 121,
      "chip": "ym2612"
    },
    {
      "channel": 4,
      "note": 78,
      "start": 4.1663,
      "duration": 0.0151,
      "velocity": 121,
      "chip": "ym2612"
    },
    {
      "channel": 4,
      "note": 77,
      "start": 4.1814,
      "duration": 0.0167,
      "velocity": 121,
      "chip": "ym2612"
    },
    {
      "channel": 4,
      "note": 77,
      "start": 4.198,
      "duration": 0.0167,
      "velocity": 121,
      "chip": "ym2612"
    },
    {
      "channel": 4,
      "note": 76,
      "start": 4.2147,
      "duration": 0.0167,
      "velocity": 121,
      "chip": "ym2612"
    },
    {
      "channel": 4,
      "note": 76,
      "start": 4.2314,
      "duration": 0.0176,
      "velocity": 121,
      "chip": "ym2612"
    },
    {
      "channel": 0,
      "note": 79,
      "start": 4.2484,
      "duration": 0.0833,
      "velocity": 108,
      "chip": "ym2612"
    },
    {
      "channel": 4,
      "note": 78,
      "start": 4.2491,
      "duration": 0.0004,
      "velocity": 121,
      "chip": "ym2612"
    },
    {
      "channel": 4,
      "note": 78,
      "start": 4.2495,
      "duration": 0.0151,
      "velocity": 121,
      "chip": "ym2612"
    },
    {
      "channel": 4,
      "note": 77,
      "start": 4.2647,
      "duration": 0.0167,
      "velocity": 121,
      "chip": "ym2612"
    },
    {
      "channel": 4,
      "note": 77,
      "start": 4.2814,
      "duration": 0.0167,
      "velocity": 121,
      "chip": "ym2612"
    },
    {
      "channel": 4,
      "note": 76,
      "start": 4.298,
      "duration": 0.0167,
      "velocity": 121,
      "chip": "ym2612"
    },
    {
      "channel": 4,
      "note": 76,
      "start": 4.3147,
      "duration": 0.0186,
      "velocity": 121,
      "chip": "ym2612"
    },
    {
      "channel": 0,
      "note": 79,
      "start": 4.3318,
      "duration": 0.0832,
      "velocity": 108,
      "chip": "ym2612"
    },
    {
      "channel": 2,
      "note": 64,
      "start": 4.3324,
      "duration": 0.3337,
      "velocity": 113,
      "chip": "ym2612"
    },
    {
      "channel": 3,
      "note": 52,
      "start": 4.3329,
      "duration": 0.3337,
      "velocity": 113,
      "chip": "ym2612"
    },
    {
      "channel": 4,
      "note": 74,
      "start": 4.3335,
      "duration": 0.0004,
      "velocity": 121,
      "chip": "ym2612"
    },
    {
      "channel": 4,
      "note": 73,
      "start": 4.3339,
      "duration": 0.0141,
      "velocity": 121,
      "chip": "ym2612"
    },
    {
      "channel": 4,
      "note": 73,
      "start": 4.348,
      "duration": 0.0167,
      "velocity": 121,
      "chip": "ym2612"
    },
    {
      "channel": 4,
      "note": 72,
      "start": 4.3647,
      "duration": 0.0167,
      "velocity": 121,
      "chip": "ym2612"
    },
    {
      "channel": 4,
      "note": 72,
      "start": 4.3814,
      "duration": 0.0167,
      "velocity": 121,
      "chip": "ym2612"
    },
    {
      "channel": 4,
      "note": 71,
      "start": 4.398,
      "duration": 0.0178,
      "velocity": 121,
      "chip": "ym2612"
    },
    {
      "channel": 0,
      "note": 79,
      "start": 4.4151,
      "duration": 0.0831,
      "velocity": 108,
      "chip": "ym2612"
    },
    {
      "channel": 4,
      "note": 70,
      "start": 4.4159,
      "duration": 0.0155,
      "velocity": 121,
      "chip": "ym2612"
    },
    {
      "channel": 4,
      "note": 70,
      "start": 4.4314,
      "duration": 0.0167,
      "velocity": 121,
      "chip": "ym2612"
    },
    {
      "channel": 4,
      "note": 69,
      "start": 4.448,
      "duration": 0.0167,
      "velocity": 121,
      "chip": "ym2612"
    },
    {
      "channel": 4,
      "note": 68,
      "start": 4.4647,
      "duration": 0.0167,
      "velocity": 121,
      "chip": "ym2612"
    },
    {
      "channel": 4,
      "note": 67,
      "start": 4.4814,
      "duration": 0.0176,
      "velocity": 121,
      "chip": "ym2612"
    },
    {
      "channel": 0,
      "note": 79,
      "start": 4.4984,
      "duration": 0.0832,
      "velocity": 108,
      "chip": "ym2612"
    },
    {
      "channel": 4,
      "note": 74,
      "start": 4.4991,
      "duration": 0.0004,
      "velocity": 121,
      "chip": "ym2612"
    },
    {
      "channel": 4,
      "note": 73,
      "start": 4.4995,
      "duration": 0.0151,
      "velocity": 121,
      "chip": "ym2612"
    },
    {
      "channel": 4,
      "note": 73,
      "start": 4.5147,
      "duration": 0.0167,
      "velocity": 121,
      "chip": "ym2612"
    },
    {
      "channel": 4,
      "note": 72,
      "start": 4.5314,
      "duration": 0.0167,
      "velocity": 121,
      "chip": "ym2612"
    },
    {
      "channel": 4,
      "note": 72,
      "start": 4.548,
      "duration": 0.0167,
      "velocity": 121,
      "chip": "ym2612"
    },
    {
      "channel": 4,
      "note": 71,
      "start": 4.5647,
      "duration": 0.0176,
      "velocity": 121,
      "chip": "ym2612"
    },
    {
      "channel": 0,
      "note": 79,
      "start": 4.5818,
      "duration": 0.0832,
      "velocity": 108,
      "chip": "ym2612"
    },
    {
      "channel": 4,
      "note": 74,
      "start": 4.5825,
      "duration": 0.0004,
      "velocity": 121,
      "chip": "ym2612"
    },
    {
      "channel": 4,
      "note": 73,
      "start": 4.5829,
      "duration": 0.0151,
      "velocity": 121,
      "chip": "ym2612"
    },
    {
      "channel": 4,
      "note": 73,
      "start": 4.598,
      "duration": 0.0167,
      "velocity": 121,
      "chip": "ym2612"
    },
    {
      "channel": 4,
      "note": 72,
      "start": 4.6147,
      "duration": 0.0167,
      "velocity": 121,
      "chip": "ym2612"
    },
    {
      "channel": 4,
      "note": 72,
      "start": 4.6314,
      "duration": 0.0167,
      "velocity": 121,
      "chip": "ym2612"
    },
    {
      "channel": 4,
      "note": 71,
      "start": 4.648,
      "duration": 0.0191,
      "velocity": 121,
      "chip": "ym2612"
    },
    {
      "channel": 0,
      "note": 79,
      "start": 4.6652,
      "duration": 0.0832,
      "velocity": 108,
      "chip": "ym2612"
    },
    {
      "channel": 1,
      "note": 65,
      "start": 4.6657,
      "duration": 0.3332,
      "velocity": 47,
      "chip": "ym2612"
    },
    {
      "channel": 2,
      "note": 64,
      "start": 4.6662,
      "duration": 0.3332,
      "velocity": 113,
      "chip": "ym2612"
    },
    {
      "channel": 3,
      "note": 52,
      "start": 4.6667,
      "duration": 0.3332,
      "velocity": 113,
      "chip": "ym2612"
    },
    {
      "channel": 4,
      "note": 71,
      "start": 4.6673,
      "duration": 0.0009,
      "velocity": 121,
      "chip": "ym2612"
    },
    {
      "channel": 5,
      "note": 70,
      "start": 4.6678,
      "duration": 0.3331,
      "velocity": 47,
      "chip": "ym2612"
    },
    {
      "channel": 4,
      "note": 70,
      "start": 4.6682,
      "duration": 0.0132,
      "velocity": 121,
      "chip": "ym2612"
    },
    {
      "channel": 4,
      "note": 70,
      "start": 4.6814,
      "duration": 0.0167,
      "velocity": 121,
      "chip": "ym2612"
    },
    {
      "channel": 4,
      "note": 69,
      "start": 4.698,
      "duration": 0.0167,
      "velocity": 121,
      "chip": "ym2612"
    },
    {
      "channel": 4,
      "note": 68,
      "start": 4.7147,
      "duration": 0.0167,
      "velocity": 121,
      "chip": "ym2612"
    },
    {
      "channel": 4,
      "note": 67,
      "start": 4.7314,
      "duration": 0.0179,
      "velocity": 121,
      "chip": "ym2612"
    },
    {
      "channel": 0,
      "note": 79,
      "start": 4.7485,
      "duration": 0.0831,
      "velocity": 108,
      "chip": "ym2612"
    },
    {
      "channel": 4,
      "note": 66,
      "start": 4.7492,
      "duration": 0.0155,
      "velocity": 121,
      "chip": "ym2612"
    },
    {
      "channel": 4,
      "note": 66,
      "start": 4.7647,
      "duration": 0.0167,
      "velocity": 121,
      "chip": "ym2612"
    },
    {
      "channel": 4,
      "note": 65,
      "start": 4.7814,
      "duration": 0.0167,
      "velocity": 121,
      "chip": "ym2612"
    },
    {
      "channel": 4,
      "note": 64,
      "start": 4.798,
      "duration": 0.0167,
      "velocity": 121,
      "chip": "ym2612"
    },
    {
      "channel": 4,
      "note": 63,
      "start": 4.8147,
      "duration": 0.0176,
      "velocity": 121,
      "chip": "ym2612"
    },
    {
      "channel": 0,
      "note": 79,
      "start": 4.8317,
      "duration": 0.0832,
      "velocity": 108,
      "chip": "ym2612"
    },
    {
      "channel": 4,
      "note": 71,
      "start": 4.8324,
      "duration": 0.0004,
      "velocity": 121,
      "chip": "ym2612"
    },
    {
      "channel": 4,
      "note": 70,
      "start": 4.8329,
      "duration": 0.0151,
      "velocity": 121,
      "chip": "ym2612"
    },
    {
      "channel": 4,
      "note": 70,
      "start": 4.848,
      "duration": 0.0167,
      "velocity": 121,
      "chip": "ym2612"
    },
    {
      "channel": 4,
      "note": 69,
      "start": 4.8647,
      "duration": 0.0167,
      "velocity": 121,
      "chip": "ym2612"
    },
    {
      "channel": 4,
      "note": 68,
      "start": 4.8814,
      "duration": 0.0167,
      "velocity": 121,
      "chip": "ym2612"
    },
    {
      "channel": 4,
      "note": 67,
      "start": 4.898,
      "duration": 0.0176,
      "velocity": 121,
      "chip": "ym2612"
    },
    {
      "channel": 0,
      "note": 79,
      "start": 4.9151,
      "duration": 0.0833,
      "velocity": 108,
      "chip": "ym2612"
    },
    {
      "channel": 4,
      "note": 71,
      "start": 4.9158,
      "duration": 0.0004,
      "velocity": 121,
      "chip": "ym2612"
    },
    {
      "channel": 4,
      "note": 70,
      "start": 4.9162,
      "duration": 0.0151,
      "velocity": 121,
      "chip": "ym2612"
    },
    {
      "channel": 4,
      "note": 70,
      "start": 4.9314,
      "duration": 0.0167,
      "velocity": 121,
      "chip": "ym2612"
    },
    {
      "channel": 4,
      "note": 69,
      "start": 4.948,
      "duration": 0.0167,
      "velocity": 121,
      "chip": "ym2612"
    },
    {
      "channel": 4,
      "note": 68,
      "start": 4.9647,
      "duration": 0.0167,
      "velocity": 121,
      "chip": "ym2612"
    },
    {
      "channel": 4,
      "note": 67,
      "start": 4.9814,
      "duration": 0.0191,
      "velocity": 121,
      "chip": "ym2612"
    },
    {
      "channel": 0,
      "note": 79,
      "start": 4.9985,
      "duration": 0.0832,
      "velocity": 108,
      "chip": "ym2612"
    },
    {
      "channel": 1,
      "note": 67,
      "start": 4.999,
      "duration": 0.3333,
      "velocity": 47,
      "chip": "ym2612"
    },
    {
      "channel": 2,
      "note": 60,
      "start": 4.9995,
      "duration": 0.3333,
      "velocity": 113,
      "chip": "ym2612"
    },
    {
      "channel": 3,
      "note": 48,
      "start": 5.0001,
      "duration": 0.3333,
      "velocity": 113,
      "chip": "ym2612"
    },
    {
      "channel": 4,
      "note": 67,
      "start": 5.0006,
      "duration": 0.0009,
      "velocity": 121,
      "chip": "ym2612"
    },
    {
      "channel": 5,
      "note": 72,
      "start": 5.0012,
      "duration": 0.4844,
      "velocity": 1,
      "chip": "ym2612"
    },
    {
      "channel": 4,
      "note": 67,
      "start": 5.0015,
      "duration": 0.0132,
      "velocity": 121,
      "chip": "ym2612"
    },
    {
      "channel": 4,
      "note": 66,
      "start": 5.0147,
      "duration": 0.0167,
      "velocity": 121,
      "chip": "ym2612"
    },
    {
      "channel": 4,
      "note": 66,
      "start": 5.0314,
      "duration": 0.0167,
      "velocity": 121,
      "chip": "ym2612"
    },
    {
      "channel": 4,
      "note": 65,
      "start": 5.048,
      "duration": 0.0167,
      "velocity": 121,
      "chip": "ym2612"
    },
    {
      "channel": 4,
      "note": 65,
      "start": 5.0647,
      "duration": 0.0179,
      "velocity": 121,
      "chip": "ym2612"
    },
    {
      "channel": 0,
      "note": 79,
      "start": 5.0819,
      "duration": 0.0831,
      "velocity": 108,
      "chip": "ym2612"
    },
    {
      "channel": 4,
      "note": 64,
      "start": 5.0826,
      "duration": 0.0155,
      "velocity": 121,
      "chip": "ym2612"
    },
    {
      "channel": 4,
      "note": 64,
      "start": 5.098,
      "duration": 0.0167,
      "velocity": 121,
      "chip": "ym2612"
    },
    {
      "channel": 4,
      "note": 63,
      "start": 5.1147,
      "duration": 0.0167,
      "velocity": 121,
      "chip": "ym2612"
    },
    {
      "channel": 4,
      "note": 63,
      "start": 5.1314,
      "duration": 0.0167,
      "velocity": 121,
      "chip": "ym2612"
    },
    {
      "channel": 4,
      "note": 62,
      "start": 5.148,
      "duration": 0.0176,
      "velocity": 121,
      "chip": "ym2612"
    },
    {
      "channel": 0,
      "note": 79,
      "start": 5.1651,
      "duration": 0.0832,
      "velocity": 108,
      "chip": "ym2612"
    },
    {
      "channel": 4,
      "note": 67,
      "start": 5.1658,
      "duration": 0.0004,
      "velocity": 121,
      "chip": "ym2612"
    },
    {
      "channel": 4,
      "note": 67,
      "start": 5.1662,
      "duration": 0.0151,
      "velocity": 121,
      "chip": "ym2612"
    },
    {
      "channel": 4,
      "note": 66,
      "start": 5.1814,
      "duration": 0.0167,
      "velocity": 121,
      "chip": "ym2612"
    },
    {
      "channel": 4,
      "note": 66,
      "start": 5.198,
      "duration": 0.0167,
      "velocity": 121,
      "chip": "ym2612"
    },
    {
      "channel": 4,
      "note": 65,
      "start": 5.2147,
      "duration": 0.0167,
      "velocity": 121,
      "chip": "ym2612"
    },
    {
      "channel": 4,
      "note": 65,
      "start": 5.2314,
      "duration": 0.0176,
      "velocity": 121,
      "chip": "ym2612"
    },
    {
      "channel": 0,
      "note": 79,
      "start": 5.2485,
      "duration": 0.0833,
      "velocity": 108,
      "chip": "ym2612"
    },
    {
      "channel": 4,
      "note": 67,
      "start": 5.2492,
      "duration": 0.0004,
      "velocity": 121,
      "chip": "ym2612"
    },
    {
      "channel": 4,
      "note": 67,
      "start": 5.2496,
      "duration": 0.0151,
      "velocity": 121,
      "chip": "ym2612"
    },
    {
      "channel": 4,
      "note": 66,
      "start": 5.2647,
      "duration": 0.0167,
      "velocity": 121,
      "chip": "ym2612"
    },
    {
      "channel": 4,
      "note": 66,
      "start": 5.2814,
      "duration": 0.0167,
      "velocity": 121,
      "chip": "ym2612"
    },
    {
      "channel": 4,
      "note": 65,
      "start": 5.298,
      "duration": 0.0167,
      "velocity": 121,
      "chip": "ym2612"
    },
    {
      "channel": 4,
      "note": 65,
      "start": 5.3147,
      "duration": 0.0205,
      "velocity": 47,
      "chip": "ym2612"
    },
    {
      "channel": 0,
      "note": 79,
      "start": 5.3319,
      "duration": 0.0744,
      "velocity": 108,
      "chip": "ym2612"
    },
    {
      "channel": 1,
      "note": 69,
      "start": 5.3324,
      "duration": 0.903,
      "velocity": 47,
      "chip": "ym2612"
    },
    {
      "channel": 2,
      "note": 62,
      "start": 5.333,
      "duration": 0.1501,
      "velocity": 113,
      "chip": "ym2612"
    },
    {
      "channel": 3,
      "note": 50,
      "start": 5.3335,
      "duration": 0.1501,
      "velocity": 113,
      "chip": "ym2612"
    },
    {
      "channel": 4,
      "note": 74,
      "start": 5.3354,
      "duration": 0.9003,
      "velocity": 47,
      "chip": "ym2612"
    },
    {
      "channel": 0,
      "note": 79,
      "start": 5.4065,
      "duration": 0.076,
      "velocity": 108,
      "chip": "ym2612"
    },
    {
      "channel": 0,
      "note": 79,
      "start": 5.4827,
      "duration": 0.0831,
      "velocity": 108,
      "chip": "ym2612"
    },
    {
      "channel": 2,
      "note": 62,
      "start": 5.4832,
      "duration": 0.7509,
      "velocity": 113,
      "chip": "ym2612"
    },
    {
      "channel": 3,
      "note": 50,
      "start": 5.4837,
      "duration": 0.7509,
      "velocity": 113,
      "chip": "ym2612"
    },
    {
      "channel": 5,
      "note": 31,
      "start": 5.4858,
      "duration": 4.7377,
      "velocity": 1,
      "chip": "ym2612"
    },
    {
      "channel": 0,
      "note": 79,
      "start": 5.566,
      "duration": 0.0743,
      "velocity": 108,
      "chip": "ym2612"
    },
    {
      "channel": 0,
      "note": 79,
      "start": 5.6404,
      "duration": 0.0722,
      "velocity": 108,
      "chip": "ym2612"
    },
    {
      "channel": 0,
      "note": 79,
      "start": 5.7128,
      "duration": 0.0722,
      "velocity": 108,
      "chip": "ym2612"
    },
    {
      "channel": 0,
      "note": 79,
      "start": 5.7852,
      "duration": 0.0745,
      "velocity": 108,
      "chip": "ym2612"
    },
    {
      "channel": 0,
      "note": 79,
      "start": 5.8598,
      "duration": 0.0722,
      "velocity": 108,
      "chip": "ym2612"
    },
    {
      "channel": 0,
      "note": 79,
      "start": 5.9322,
      "duration": 0.0741,
      "velocity": 108,
      "chip": "ym2612"
    },
    {
      "channel": 0,
      "note": 79,
      "start": 6.0065,
      "duration": 0.0741,
      "velocity": 108,
      "chip": "ym2612"
    },
    {
      "channel": 0,
      "note": 79,
      "start": 6.0807,
      "duration": 0.076,
      "velocity": 108,
      "chip": "ym2612"
    },
    {
      "channel": 0,
      "note": 79,
      "start": 6.1569,
      "duration": 0.0766,
      "velocity": 108,
      "chip": "ym2612"
    },
    {
      "channel": 0,
      "note": 79,
      "start": 6.2336,
      "duration": 0.0732,
      "velocity": 108,
      "chip": "ym2612"
    },
    {
      "channel": 2,
      "note": 63,
      "start": 6.2343,
      "duration": 0.146,
      "velocity": 113,
      "chip": "ym2612"
    },
    {
      "channel": 3,
      "note": 51,
      "start": 6.2348,
      "duration": 0.146,
      "velocity": 113,
      "chip": "ym2612"
    },
    {
      "channel": 1,
      "note": 69,
      "start": 6.2355,
      "duration": 0.0119,
      "velocity": 47,
      "chip": "ym2612"
    },
    {
      "channel": 4,
      "note": 74,
      "start": 6.2357,
      "duration": 0.012,
      "velocity": 47,
      "chip": "ym2612"
    },
    {
      "channel": 1,
      "note": 69,
      "start": 6.2474,
      "duration": 0.0157,
      "velocity": 47,
      "chip": "ym2612"
    },
    {
      "channel": 4,
      "note": 74,
      "start": 6.2477,
      "duration": 0.0157,
      "velocity": 47,
      "chip": "ym2612"
    },
    {
      "channel": 1,
      "note": 69,
      "start": 6.2631,
      "duration": 0.0138,
      "velocity": 47,
      "chip": "ym2612"
    },
    {
      "channel": 4,
      "note": 74,
      "start": 6.2634,
      "duration": 0.0137,
      "velocity": 47,
      "chip": "ym2612"
    },
    {
      "channel": 1,
      "note": 69,
      "start": 6.2769,
      "duration": 0.0157,
      "velocity": 47,
      "chip": "ym2612"
    },
    {
      "channel": 4,
      "note": 74,
      "start": 6.2771,
      "duration": 0.0157,
      "velocity": 47,
      "chip": "ym2612"
    },
    {
      "channel": 1,
      "note": 68,
      "start": 6.2926,
      "duration": 0.015,
      "velocity": 47,
      "chip": "ym2612"
    },
    {
      "channel": 4,
      "note": 74,
      "start": 6.2929,
      "duration": 0.0149,
      "velocity": 47,
      "chip": "ym2612"
    },
    {
      "channel": 0,
      "note": 79,
      "start": 6.307,
      "duration": 0.0727,
      "velocity": 108,
      "chip": "ym2612"
    },
    {
      "channel": 1,
      "note": 68,
      "start": 6.3076,
      "duration": 0.0128,
      "velocity": 47,
      "chip": "ym2612"
    },
    {
      "channel": 4,
      "note": 74,
      "start": 6.3078,
      "duration": 0.0128,
      "velocity": 47,
      "chip": "ym2612"
    },
    {
      "channel": 1,
      "note": 68,
      "start": 6.3203,
      "duration": 0.0157,
      "velocity": 47,
      "chip": "ym2612"
    },
    {
      "channel": 4,
      "note": 73,
      "start": 6.3206,
      "duration": 0.0157,
      "velocity": 47,
      "chip": "ym2612"
    },
    {
      "channel": 1,
      "note": 68,
      "start": 6.336,
      "duration": 0.0138,
      "velocity": 47,
      "chip": "ym2612"
    },
    {
      "channel": 4,
      "note": 73,
      "start": 6.3363,
      "duration": 0.0137,
      "velocity": 47,
      "chip": "ym2612"
    },
    {
      "channel": 1,
      "note": 68,
      "start": 6.3498,
      "duration": 0.0157,
      "velocity": 47,
      "chip": "ym2612"
    },
    {
      "channel": 4,
      "note": 73,
      "start": 6.3501,
      "duration": 0.0157,
      "velocity": 47,
      "chip": "ym2612"
    },
    {
      "channel": 1,
      "note": 68,
      "start": 6.3655,
      "duration": 0.0161,
      "velocity": 47,
      "chip": "ym2612"
    },
    {
      "channel": 4,
      "note": 73,
      "start": 6.3658,
      "duration": 0.016,
      "velocity": 47,
      "chip": "ym2612"
    },
    {
      "channel": 0,
      "note": 79,
      "start": 6.3799,
      "duration": 0.0745,
      "velocity": 108,
      "chip": "ym2612"
    },
    {
      "channel": 2,
      "note": 63,
      "start": 6.3805,
      "duration": 0.5823,
      "velocity": 113,
      "chip": "ym2612"
    },
    {
      "channel": 3,
      "note": 51,
      "start": 6.381,
      "duration": 0.5823,
      "velocity": 113,
      "chip": "ym2612"
    },
    {
      "channel": 1,
      "note": 68,
      "start": 6.3816,
      "duration": 0.0136,
      "velocity": 47,
      "chip": "ym2612"
    },
    {
      "channel": 4,
      "note": 73,
      "start": 6.3818,
      "duration": 0.0137,
      "velocity": 47,
      "chip": "ym2612"
    },
    {
      "channel": 1,
      "note": 68,
      "start": 6.3952,
      "duration": 0.0138,
      "velocity": 47,
      "chip": "ym2612"
    },
    {
      "channel": 4,
      "note": 73,
      "start": 6.3955,
      "duration": 0.0137,
      "velocity": 47,
      "chip": "ym2612"
    },
    {
      "channel": 1,
      "note": 68,
      "start": 6.409,
      "duration": 0.0157,
      "velocity": 47,
      "chip": "ym2612"
    },
    {
      "channel": 4,
      "note": 73,
      "start": 6.4093,
      "duration": 0.0157,
      "velocity": 47,
      "chip": "ym2612"
    },
    {
      "channel": 1,
      "note": 67,
      "start": 6.4247,
      "duration": 0.0138,
      "velocity": 47,
      "chip": "ym2612"
    },
    {
      "channel": 4,
      "note": 73,
      "start": 6.425,
      "duration": 0.0137,
      "velocity": 47,
      "chip": "ym2612"
    },
    {
      "channel": 1,
      "note": 67,
      "start": 6.4385,
      "duration": 0.0167,
      "velocity": 47,
      "chip": "ym2612"
    },
    {
      "channel": 4,
      "note": 73,
      "start": 6.4387,
      "duration": 0.0167,
      "velocity": 47,
      "chip": "ym2612"
    },
    {
      "channel": 0,
      "note": 79,
      "start": 6.4546,
      "duration": 0.0746,
      "velocity": 108,
      "chip": "ym2612"
    },
    {
      "channel": 1,
      "note": 67,
      "start": 6.4551,
      "duration": 0.0147,
      "velocity": 47,
      "chip": "ym2612"
    },
    {
      "channel": 4,
      "note": 73,
      "start": 6.4554,
      "duration": 0.0147,
      "velocity": 47,
      "chip": "ym2612"
    },
    {
      "channel": 1,
      "note": 67,
      "start": 6.4698,
      "duration": 0.0138,
      "velocity": 47,
      "chip": "ym2612"
    },
    {
      "channel": 4,
      "note": 73,
      "start": 6.4701,
      "duration": 0.0137,
      "velocity": 47,
      "chip": "ym2612"
    },
    {
      "channel": 1,
      "note": 67,
      "start": 6.4836,
      "duration": 0.0157,
      "velocity": 47,
      "chip": "ym2612"
    },
    {
      "channel": 4,
      "note": 73,
      "start": 6.4839,
      "duration": 0.0157,
      "velocity": 47,
      "chip": "ym2612"
    },
    {
      "channel": 1,
      "note": 67,
      "start": 6.4993,
      "duration": 0.0138,
      "velocity": 47,
      "chip": "ym2612"
    },
    {
      "channel": 4,
      "note": 72,
      "start": 6.4996,
      "duration": 0.0137,
      "velocity": 47,
      "chip": "ym2612"
    },
    {
      "channel": 1,
      "note": 67,
      "start": 6.5131,
      "duration": 0.0169,
      "velocity": 47,
      "chip": "ym2612"
    },
    {
      "channel": 4,
      "note": 72,
      "start": 6.5134,
      "duration": 0.017,
      "velocity": 47,
      "chip": "ym2612"
    },
    {
      "channel": 0,
      "note": 79,
      "start": 6.5293,
      "duration": 0.0724,
      "velocity": 108,
      "chip": "ym2612"
    },
    {
      "channel": 1,
      "note": 67,
      "start": 6.53,
      "duration": 0.0126,
      "velocity": 47,
      "chip": "ym2612"
    },
    {
      "channel": 4,
      "note": 72,
      "start": 6.5303,
      "duration": 0.0126,
      "velocity": 47,
      "chip": "ym2612"
    },
    {
      "channel": 1,
      "note": 66,
      "start": 6.5426,
      "duration": 0.0138,
      "velocity": 47,
      "chip": "ym2612"
    },
    {
      "channel": 4,
      "note": 72,
      "start": 6.5429,
      "duration": 0.0137,
      "velocity": 47,
      "chip": "ym2612"
    },
    {
      "channel": 1,
      "note": 66,
      "start": 6.5564,
      "duration": 0.0156,
      "velocity": 47,
      "chip": "ym2612"
    },
    {
      "channel": 4,
      "note": 72,
      "start": 6.5566,
      "duration": 0.0156,
      "velocity": 47,
      "chip": "ym2612"
    },
    {
      "channel": 1,
      "note": 66,
      "start": 6.572,
      "duration": 0.0157,
      "velocity": 47,
      "chip": "ym2612"
    },
    {
      "channel": 4,
      "note": 72,
      "start": 6.5723,
      "duration": 0.0157,
      "velocity": 47,
      "chip": "ym2612"
    },
    {
      "channel": 1,
      "note": 66,
      "start": 6.5877,
      "duration": 0.0148,
      "velocity": 47,
      "chip": "ym2612"
    },
    {
      "channel": 4,
      "note": 72,
      "start": 6.588,
      "duration": 0.0147,
      "velocity": 47,
      "chip": "ym2612"
    },
    {
      "channel": 0,
      "note": 79,
      "start": 6.6019,
      "duration": 0.0705,
      "velocity": 108,
      "chip": "ym2612"
    },
    {
      "channel": 1,
      "note": 66,
      "start": 6.6024,
      "duration": 0.0127,
      "velocity": 47,
      "chip": "ym2612"
    },
    {
      "channel": 4,
      "note": 72,
      "start": 6.6027,
      "duration": 0.0127,
      "velocity": 47,
      "chip": "ym2612"
    },
    {
      "channel": 1,
      "note": 66,
      "start": 6.6151,
      "duration": 0.0136,
      "velocity": 47,
      "chip": "ym2612"
    },
    {
      "channel": 4,
      "note": 72,
      "start": 6.6154,
      "duration": 0.0137,
      "velocity": 47,
      "chip": "ym2612"
    },
    {
      "channel": 1,
      "note": 66,
      "start": 6.6288,
      "duration": 0.0138,
      "velocity": 47,
      "chip": "ym2612"
    },
    {
      "channel": 4,
      "note": 72,
      "start": 6.6291,
      "duration": 0.0137,
      "velocity": 47,
      "chip": "ym2612"
    },
    {
      "channel": 1,
      "note": 66,
      "start": 6.6426,
      "duration": 0.0157,
      "velocity": 47,
      "chip": "ym2612"
    },
    {
      "channel": 4,
      "note": 72,
      "start": 6.6428,
      "duration": 0.0157,
      "velocity": 47,
      "chip": "ym2612"
    },
    {
      "channel": 1,
      "note": 65,
      "start": 6.6583,
      "duration": 0.0149,
      "velocity": 47,
      "chip": "ym2612"
    },
    {
      "channel": 4,
      "note": 71,
      "start": 6.6586,
      "duration": 0.0149,
      "velocity": 47,
      "chip": "ym2612"
    },
    {
      "channel": 0,
      "note": 79,
      "start": 6.6726,
      "duration": 0.0732,
      "velocity": 108,
      "chip": "ym2612"
    },
    {
      "channel": 1,
      "note": 65,
      "start": 6.6732,
      "duration": 0.0127,
      "velocity": 47,
      "chip": "ym2612"
    },
    {
      "channel": 4,
      "note": 71,
      "start": 6.6734,
      "duration": 0.0127,
      "velocity": 47,
      "chip": "ym2612"
    },
    {
      "channel": 1,
      "note": 65,
      "start": 6.6859,
      "duration": 0.0136,
      "velocity": 47,
      "chip": "ym2612"
    },
    {
      "channel": 4,
      "note": 71,
      "start": 6.6861,
      "duration": 0.0137,
      "velocity": 47,
      "chip": "ym2612"
    },
    {
      "channel": 1,
      "note": 65,
      "start": 6.6995,
      "duration": 0.0138,
      "velocity": 47,
      "chip": "ym2612"
    },
    {
      "channel": 4,
      "note": 71,
      "start": 6.6998,
      "duration": 0.0137,
      "velocity": 47,
      "chip": "ym2612"
    },
    {
      "channel": 1,
      "note": 65,
      "start": 6.7133,
      "duration": 0.0157,
      "velocity": 47,
      "chip": "ym2612"
    },
    {
      "channel": 4,
      "note": 71,
      "start": 6.7136,
      "duration": 0.0157,
      "velocity": 47,
      "chip": "ym2612"
    },
    {
      "channel": 1,
      "note": 65,
      "start": 6.729,
      "duration": 0.0178,
      "velocity": 47,
      "chip": "ym2612"
    },
    {
      "channel": 4,
      "note": 71,
      "start": 6.7293,
      "duration": 0.0177,
      "velocity": 47,
      "chip": "ym2612"
    },
    {
      "channel": 0,
      "note": 79,
      "start": 6.746,
      "duration": 0.0725,
      "velocity": 108,
      "chip": "ym2612"
    },
    {
      "channel": 1,
      "note": 65,
      "start": 6.7468,
      "duration": 0.0146,
      "velocity": 47,
      "chip": "ym2612"
    },
    {
      "channel": 4,
      "note": 71,
      "start": 6.747,
      "duration": 0.0146,
      "velocity": 47,
      "chip": "ym2612"
    },
    {
      "channel": 1,
      "note": 65,
      "start": 6.7613,
      "duration": 0.0137,
      "velocity": 47,
      "chip": "ym2612"
    },
    {
      "channel": 4,
      "note": 71,
      "start": 6.7616,
      "duration": 0.0136,
      "velocity": 47,
      "chip": "ym2612"
    },
    {
      "channel": 1,
      "note": 64,
      "start": 6.775,
      "duration": 0.0136,
      "velocity": 47,
      "chip": "ym2612"
    },
    {
      "channel": 4,
      "note": 71,
      "start": 6.7752,
      "duration": 0.0137,
      "velocity": 47,
      "chip": "ym2612"
    },
    {
      "channel": 1,
      "note": 64,
      "start": 6.7886,
      "duration": 0.0138,
      "velocity": 47,
      "chip": "ym2612"
    },
    {
      "channel": 4,
      "note": 71,
      "start": 6.7889,
      "duration": 0.0137,
      "velocity": 47,
      "chip": "ym2612"
    },
    {
      "channel": 1,
      "note": 64,
      "start": 6.8024,
      "duration": 0.0169,
      "velocity": 47,
      "chip": "ym2612"
    },
    {
      "channel": 4,
      "note": 70,
      "start": 6.8027,
      "duration": 0.017,
      "velocity": 47,
      "chip": "ym2612"
    },
    {
      "channel": 0,
      "note": 79,
      "start": 6.8186,
      "duration": 0.0727,
      "velocity": 108,
      "chip": "ym2612"
    },
    {
      "channel": 1,
      "note": 64,
      "start": 6.8193,
      "duration": 0.0129,
      "velocity": 47,
      "chip": "ym2612"
    },
    {
      "channel": 4,
      "note": 70,
      "start": 6.8196,
      "duration": 0.0129,
      "velocity": 47,
      "chip": "ym2612"
    },
    {
      "channel": 1,
      "note": 64,
      "start": 6.8322,
      "duration": 0.0159,
      "velocity": 47,
      "chip": "ym2612"
    },
    {
      "channel": 4,
      "note": 70,
      "start": 6.8325,
      "duration": 0.0158,
      "velocity": 47,
      "chip": "ym2612"
    },
    {
      "channel": 1,
      "note": 64,
      "start": 6.8481,
      "duration": 0.0135,
      "velocity": 47,
      "chip": "ym2612"
    },
    {
      "channel": 4,
      "note": 70,
      "start": 6.8483,
      "duration": 0.0136,
      "velocity": 47,
      "chip": "ym2612"
    },
    {
      "channel": 1,
      "note": 64,
      "start": 6.8616,
      "duration": 0.0138,
      "velocity": 47,
      "chip": "ym2612"
    },
    {
      "channel": 4,
      "note": 70,
      "start": 6.8619,
      "duration": 0.0137,
      "velocity": 47,
      "chip": "ym2612"
    },
    {
      "channel": 1,
      "note": 63,
      "start": 6.8754,
      "duration": 0.0166,
      "velocity": 47,
      "chip": "ym2612"
    },
    {
      "channel": 4,
      "note": 70,
      "start": 6.8756,
      "duration": 0.0166,
      "velocity": 47,
      "chip": "ym2612"
    },
    {
      "channel": 0,
      "note": 79,
      "start": 6.8915,
      "duration": 0.0708,
      "velocity": 108,
      "chip": "ym2612"
    },
    {
      "channel": 1,
      "note": 63,
      "start": 6.892,
      "duration": 0.0127,
      "velocity": 47,
      "chip": "ym2612"
    },
    {
      "channel": 4,
      "note": 70,
      "start": 6.8923,
      "duration": 0.0127,
      "velocity": 47,
      "chip": "ym2612"
    },
    {
      "channel": 1,
      "note": 63,
      "start": 6.9047,
      "duration": 0.0136,
      "velocity": 47,
      "chip": "ym2612"
    },
    {
      "channel": 4,
      "note": 70,
      "start": 6.905,
      "duration": 0.0137,
      "velocity": 47,
      "chip": "ym2612"
    },
    {
      "channel": 1,
      "note": 63,
      "start": 6.9184,
      "duration": 0.0138,
      "velocity": 47,
      "chip": "ym2612"
    },
    {
      "channel": 4,
      "note": 70,
      "start": 6.9187,
      "duration": 0.0137,
      "velocity": 47,
      "chip": "ym2612"
    },
    {
      "channel": 1,
      "note": 63,
      "start": 6.9322,
      "duration": 0.0157,
      "velocity": 47,
      "chip": "ym2612"
    },
    {
      "channel": 4,
      "note": 70,
      "start": 6.9324,
      "duration": 0.0157,
      "velocity": 47,
      "chip": "ym2612"
    },
    {
      "channel": 1,
      "note": 63,
      "start": 6.9478,
      "duration": 0.0163,
      "velocity": 47,
      "chip": "ym2612"
    },
    {
      "channel": 4,
      "note": 69,
      "start": 6.9482,
      "duration": 0.0162,
      "velocity": 47,
      "chip": "ym2612"
    },
    {
      "channel": 0,
      "note": 79,
      "start": 6.9624,
      "duration": 0.0745,
      "velocity": 108,
      "chip": "ym2612"
    },
    {
      "channel": 2,
      "note": 60,
      "start": 6.963,
      "duration": 0.302,
      "velocity": 113,
      "chip": "ym2612"
    },
    {
      "channel": 3,
      "note": 48,
      "start": 6.9635,
      "duration": 0.302,
      "velocity": 113,
      "chip": "ym2612"
    },
    {
      "channel": 1,
      "note": 63,
      "start": 6.9641,
      "duration": 0.0136,
      "velocity": 47,
      "chip": "ym2612"
    },
    {
      "channel": 4,
      "note": 69,
      "start": 6.9644,
      "duration": 0.0137,
      "velocity": 47,
      "chip": "ym2612"
    },
    {
      "channel": 1,
      "note": 62,
      "start": 6.9777,
      "duration": 0.0138,
      "velocity": 47,
      "chip": "ym2612"
    },
    {
      "channel": 4,
      "note": 69,
      "start": 6.978,
      "duration": 0.0137,
      "velocity": 47,
      "chip": "ym2612"
    },
    {
      "channel": 1,
      "note": 62,
      "start": 6.9915,
      "duration": 0.0157,
      "velocity": 47,
      "chip": "ym2612"
    },
    {
      "channel": 4,
      "note": 69,
      "start": 6.9918,
      "duration": 0.0157,
      "velocity": 47,
      "chip": "ym2612"
    },
    {
      "channel": 1,
      "note": 62,
      "start": 7.0072,
      "duration": 0.0138,
      "velocity": 47,
      "chip": "ym2612"
    },
    {
      "channel": 4,
      "note": 69,
      "start": 7.0075,
      "duration": 0.0137,
      "velocity": 47,
      "chip": "ym2612"
    },
    {
      "channel": 1,
      "note": 62,
      "start": 7.021,
      "duration": 0.0167,
      "velocity": 47,
      "chip": "ym2612"
    },
    {
      "channel": 4,
      "note": 69,
      "start": 7.0212,
      "duration": 0.0167,
      "velocity": 47,
      "chip": "ym2612"
    },
    {
      "channel": 0,
      "note": 79,
      "start": 7.0371,
      "duration": 0.0746,
      "velocity": 108,
      "chip": "ym2612"
    },
    {
      "channel": 1,
      "note": 62,
      "start": 7.0376,
      "duration": 0.0147,
      "velocity": 47,
      "chip": "ym2612"
    },
    {
      "channel": 4,
      "note": 69,
      "start": 7.038,
      "duration": 0.0147,
      "velocity": 47,
      "chip": "ym2612"
    },
    {
      "channel": 1,
      "note": 62,
      "start": 7.0523,
      "duration": 0.0138,
      "velocity": 47,
      "chip": "ym2612"
    },
    {
      "channel": 4,
      "note": 69,
      "start": 7.0527,
      "duration": 0.0137,
      "velocity": 47,
      "chip": "ym2612"
    },
    {
      "channel": 1,
      "note": 61,
      "start": 7.0661,
      "duration": 0.0157,
      "velocity": 47,
      "chip": "ym2612"
    },
    {
      "channel": 4,
      "note": 69,
      "start": 7.0664,
      "duration": 0.0157,
      "velocity": 47,
      "chip": "ym2612"
    },
    {
      "channel": 1,
      "note": 61,
      "start": 7.0818,
      "duration": 0.0138,
      "velocity": 47,
      "chip": "ym2612"
    },
    {
      "channel": 4,
      "note": 69,
      "start": 7.0821,
      "duration": 0.0137,
      "velocity": 47,
      "chip": "ym2612"
    },
    {
      "channel": 1,
      "note": 61,
      "start": 7.0956,
      "duration": 0.0174,
      "velocity": 47,
      "chip": "ym2612"
    },
    {
      "channel": 4,
      "note": 68,
      "start": 7.0959,
      "duration": 0.0164,
      "velocity": 47,
      "chip": "ym2612"
    },
    {
      "channel": 0,
      "note": 79,
      "start": 7.1118,
      "duration": 0.0783,
      "velocity": 108,
      "chip": "ym2612"
    },
    {
      "channel": 4,
      "note": 86,
      "start": 7.1125,
      "duration": 0.1535,
      "velocity": 47,
      "chip": "ym2612"
    },
    {
      "channel": 1,
      "note": 61,
      "start": 7.113,
      "duration": 0.0141,
      "velocity": 47,
      "chip": "ym2612"
    },
    {
      "channel": 1,
      "note": 61,
      "start": 7.1271,
      "duration": 0.0157,
      "velocity": 47,
      "chip": "ym2612"
    },
    {
      "channel": 1,
      "note": 61,
      "start": 7.1428,
      "duration": 0.0157,
      "velocity": 47,
      "chip": "ym2612"
    },
    {
      "channel": 1,
      "note": 60,
      "start": 7.1585,
      "duration": 0.0157,
      "velocity": 47,
      "chip": "ym2612"
    },
    {
      "channel": 1,
      "note": 60,
      "start": 7.1741,
      "duration": 0.0165,
      "velocity": 47,
      "chip": "ym2612"
    },
    {
      "channel": 0,
      "note": 79,
      "start": 7.1904,
      "duration": 0.0741,
      "velocity": 108,
      "chip": "ym2612"
    },
    {
      "channel": 1,
      "note": 81,
      "start": 7.1909,
      "duration": 0.15,
      "velocity": 47,
      "chip": "ym2612"
    },
    {
      "channel": 0,
      "note": 79,
      "start": 7.2646,
      "duration": 0.0758,
      "velocity": 108,
      "chip": "ym2612"
    },
    {
      "channel": 2,
      "note": 60,
      "start": 7.2652,
      "duration": 0.3008,
      "velocity": 113,
      "chip": "ym2612"
    },
    {
      "channel": 3,
      "note": 48,
      "start": 7.2657,
      "duration": 0.3009,
      "velocity": 113,
      "chip": "ym2612"
    },
    {
      "channel": 4,
      "note": 89,
      "start": 7.2662,
      "duration": 0.149,
      "velocity": 47,
      "chip": "ym2612"
    },
    {
      "channel": 0,
      "note": 79,
      "start": 7.3405,
      "duration": 0.0741,
      "velocity": 108,
      "chip": "ym2612"
    },
    {
      "channel": 1,
      "note": 83,
      "start": 7.341,
      "duration": 0.1484,
      "velocity": 47,
      "chip": "ym2612"
    },
    {
      "channel": 0,
      "note": 79,
      "start": 7.4148,
      "duration": 0.0741,
      "velocity": 108,
      "chip": "ym2612"
    },
    {
      "channel": 4,
      "note": 91,
      "start": 7.4154,
      "duration": 0.1516,
      "velocity": 47,
      "chip": "ym2612"
    },
    {
      "channel": 0,
      "note": 79,
      "start": 7.489,
      "duration": 0.0764,
      "velocity": 108,
      "chip": "ym2612"
    },
    {
      "channel": 1,
      "note": 87,
      "start": 7.4895,
      "duration": 0.1508,
      "velocity": 47,
      "chip": "ym2612"
    },
    {
      "channel": 0,
      "note": 79,
      "start": 7.5656,
      "duration": 0.0742,
      "velocity": 108,
      "chip": "ym2612"
    },
    {
      "channel": 2,
      "note": 60,
      "start": 7.5662,
      "duration": 0.1492,
      "velocity": 113,
      "chip": "ym2612"
    },
    {
      "channel": 3,
      "note": 48,
      "start": 7.5667,
      "duration": 0.1492,
      "velocity": 113,
      "chip": "ym2612"
    },
    {
      "channel": 4,
      "note": 96,
      "start": 7.5672,
      "duration": 0.1492,
      "velocity": 47,
      "chip": "ym2612"
    },
    {
      "channel": 0,
      "note": 79,
      "start": 7.64,
      "duration": 0.0743,
      "velocity": 108,
      "chip": "ym2612"
    },
    {
      "channel": 1,
      "note": 91,
      "start": 7.6406,
      "duration": 0.0743,
      "velocity": 47,
      "chip": "ym2612"
    },
    {
      "channel": 0,
      "note": 79,
      "start": 7.7145,
      "duration": 0.0745,
      "velocity": 108,
      "chip": "ym2612"
    },
    {
      "channel": 1,
      "note": 86,
      "start": 7.7151,
      "duration": 1.1854,
      "velocity": 47,
      "chip": "ym2612"
    },
    {
      "channel": 2,
      "note": 62,
      "start": 7.7156,
      "duration": 0.1483,
      "velocity": 113,
      "chip": "ym2612"
    },
    {
      "channel": 3,
      "note": 50,
      "start": 7.7161,
      "duration": 0.1483,
      "velocity": 113,
      "chip": "ym2612"
    },
    {
      "channel": 4,
      "note": 98,
      "start": 7.7166,
      "duration": 1.1841,
      "velocity": 47,
      "chip": "ym2612"
    },
    {
      "channel": 0,
      "note": 79,
      "start": 7.7892,
      "duration": 0.0741,
      "velocity": 108,
      "chip": "ym2612"
    },
    {
      "channel": 0,
      "note": 79,
      "start": 7.8635,
      "duration": 0.0757,
      "velocity": 108,
      "chip": "ym2612"
    },
    {
      "channel": 2,
      "note": 62,
      "start": 7.864,
      "duration": 0.738,
      "velocity": 113,
      "chip": "ym2612"
    },
    {
      "channel": 3,
      "note": 50,
      "start": 7.8645,
      "duration": 0.738,
      "velocity": 113,
      "chip": "ym2612"
    },
    {
      "channel": 0,
      "note": 79,
      "start": 7.9393,
      "duration": 0.074,
      "velocity": 108,
      "chip": "ym2612"
    },
    {
      "channel": 0,
      "note": 79,
      "start": 8.0136,
      "duration": 0.0722,
      "velocity": 108,
      "chip": "ym2612"
    },
    {
      "channel": 0,
      "note": 79,
      "start": 8.086,
      "duration": 0.0721,
      "velocity": 108,
      "chip": "ym2612"
    },
    {
      "channel": 0,
      "note": 79,
      "start": 8.1583,
      "duration": 0.0742,
      "velocity": 108,
      "chip": "ym2612"
    },
    {
      "channel": 0,
      "note": 79,
      "start": 8.2327,
      "duration": 0.0741,
      "velocity": 108,
      "chip": "ym2612"
    },
    {
      "channel": 0,
      "note": 79,
      "start": 8.3069,
      "duration": 0.0725,
      "velocity": 108,
      "chip": "ym2612"
    },
    {
      "channel": 0,
      "note": 79,
      "start": 8.3796,
      "duration": 0.0719,
      "velocity": 108,
      "chip": "ym2612"
    },
    {
      "channel": 0,
      "note": 79,
      "start": 8.4516,
      "duration": 0.0755,
      "velocity": 108,
      "chip": "ym2612"
    },
    {
      "channel": 0,
      "note": 79,
      "start": 8.5273,
      "duration": 0.0741,
      "velocity": 108,
      "chip": "ym2612"
    },
    {
      "channel": 0,
      "note": 79,
      "start": 8.6016,
      "duration": 0.0743,
      "velocity": 108,
      "chip": "ym2612"
    },
    {
      "channel": 2,
      "note": 65,
      "start": 8.6022,
      "duration": 0.1488,
      "velocity": 113,
      "chip": "ym2612"
    },
    {
      "channel": 3,
      "note": 53,
      "start": 8.6027,
      "duration": 0.1488,
      "velocity": 113,
      "chip": "ym2612"
    },
    {
      "channel": 0,
      "note": 79,
      "start": 8.6761,
      "duration": 0.0743,
      "velocity": 108,
      "chip": "ym2612"
    },
    {
      "channel": 0,
      "note": 79,
      "start": 8.7505,
      "duration": 0.0763,
      "velocity": 108,
      "chip": "ym2612"
    },
    {
      "channel": 2,
      "note": 65,
      "start": 8.7511,
      "duration": 0.4429,
      "velocity": 113,
      "chip": "ym2612"
    },
    {
      "channel": 3,
      "note": 53,
      "start": 8.7516,
      "duration": 0.4429,
      "velocity": 113,
      "chip": "ym2612"
    },
    {
      "channel": 0,
      "note": 79,
      "start": 8.827,
      "duration": 0.0723,
      "velocity": 108,
      "chip": "ym2612"
    },
    {
      "channel": 0,
      "note": 79,
      "start": 8.8995,
      "duration": 0.0728,
      "velocity": 108,
      "chip": "ym2612"
    },
    {
      "channel": 1,
      "note": 86,
      "start": 8.9004,
      "duration": 0.0125,
      "velocity": 47,
      "chip": "ym2612"
    },
    {
      "channel": 4,
      "note": 98,
      "start": 8.9007,
      "duration": 0.0125,
      "velocity": 47,
      "chip": "ym2612"
    },
    {
      "channel": 1,
      "note": 86,
      "start": 8.9129,
      "duration": 0.0157,
      "velocity": 47,
      "chip": "ym2612"
    },
    {
      "channel": 4,
      "note": 98,
      "start": 8.9132,
      "duration": 0.0157,
      "velocity": 47,
      "chip": "ym2612"
    },
    {
      "channel": 1,
      "note": 86,
      "start": 8.9286,
      "duration": 0.0138,
      "velocity": 47,
      "chip": "ym2612"
    },
    {
      "channel": 4,
      "note": 98,
      "start": 8.9289,
      "duration": 0.0137,
      "velocity": 47,
      "chip": "ym2612"
    },
    {
      "channel": 1,
      "note": 86,
      "start": 8.9424,
      "duration": 0.0157,
      "velocity": 47,
      "chip": "ym2612"
    },
    {
      "channel": 4,
      "note": 98,
      "start": 8.9427,
      "duration": 0.0157,
      "velocity": 47,
      "chip": "ym2612"
    },
    {
      "channel": 1,
      "note": 86,
      "start": 8.9581,
      "duration": 0.015,
      "velocity": 47,
      "chip": "ym2612"
    },
    {
      "channel": 4,
      "note": 98,
      "start": 8.9584,
      "duration": 0.0149,
      "velocity": 47,
      "chip": "ym2612"
    },
    {
      "channel": 0,
      "note": 79,
      "start": 8.9725,
      "duration": 0.0727,
      "velocity": 108,
      "chip": "ym2612"
    },
    {
      "channel": 1,
      "note": 86,
      "start": 8.9731,
      "duration": 0.0128,
      "velocity": 47,
      "chip": "ym2612"
    },
    {
      "channel": 4,
      "note": 98,
      "start": 8.9733,
      "duration": 0.0128,
      "velocity": 47,
      "chip": "ym2612"
    },
    {
      "channel": 1,
      "note": 85,
      "start": 8.9859,
      "duration": 0.0157,
      "velocity": 47,
      "chip": "ym2612"
    },
    {
      "channel": 4,
      "note": 97,
      "start": 8.9861,
      "duration": 0.0157,
      "velocity": 47,
      "chip": "ym2612"
    },
    {
      "channel": 1,
      "note": 85,
      "start": 9.0015,
      "duration": 0.0138,
      "velocity": 47,
      "chip": "ym2612"
    },
    {
      "channel": 4,
      "note": 97,
      "start": 9.0019,
      "duration": 0.0137,
      "velocity": 47,
      "chip": "ym2612"
    },
    {
      "channel": 1,
      "note": 85,
      "start": 9.0153,
      "duration": 0.0157,
      "velocity": 47,
      "chip": "ym2612"
    },
    {
      "channel": 4,
      "note": 97,
      "start": 9.0156,
      "duration": 0.0157,
      "velocity": 47,
      "chip": "ym2612"
    },
    {
      "channel": 1,
      "note": 85,
      "start": 9.031,
      "duration": 0.0149,
      "velocity": 47,
      "chip": "ym2612"
    },
    {
      "channel": 4,
      "note": 97,
      "start": 9.0313,
      "duration": 0.0149,
      "velocity": 47,
      "chip": "ym2612"
    },
    {
      "channel": 0,
      "note": 79,
      "start": 9.0454,
      "duration": 0.0751,
      "velocity": 108,
      "chip": "ym2612"
    },
    {
      "channel": 1,
      "note": 85,
      "start": 9.0459,
      "duration": 0.0146,
      "velocity": 47,
      "chip": "ym2612"
    },
    {
      "channel": 4,
      "note": 97,
      "start": 9.0462,
      "duration": 0.0147,
      "velocity": 47,
      "chip": "ym2612"
    },
    {
      "channel": 1,
      "note": 85,
      "start": 9.0606,
      "duration": 0.0136,
      "velocity": 47,
      "chip": "ym2612"
    },
    {
      "channel": 4,
      "note": 97,
      "start": 9.0609,
      "duration": 0.0137,
      "velocity": 47,
      "chip": "ym2612"
    },
    {
      "channel": 1,
      "note": 85,
      "start": 9.0742,
      "duration": 0.0138,
      "velocity": 47,
      "chip": "ym2612"
    },
    {
      "channel": 4,
      "note": 97,
      "start": 9.0745,
      "duration": 0.0137,
      "velocity": 47,
      "chip": "ym2612"
    },
    {
      "channel": 1,
      "note": 85,
      "start": 9.088,
      "duration": 0.0157,
      "velocity": 47,
      "chip": "ym2612"
    },
    {
      "channel": 4,
      "note": 97,
      "start": 9.0883,
      "duration": 0.0157,
      "velocity": 47,
      "chip": "ym2612"
    },
    {
      "channel": 1,
      "note": 85,
      "start": 9.1037,
      "duration": 0.0177,
      "velocity": 47,
      "chip": "ym2612"
    },
    {
      "channel": 4,
      "note": 97,
      "start": 9.104,
      "duration": 0.0177,
      "velocity": 47,
      "chip": "ym2612"
    },
    {
      "channel": 0,
      "note": 79,
      "start": 9.1207,
      "duration": 0.0728,
      "velocity": 108,
      "chip": "ym2612"
    },
    {
      "channel": 1,
      "note": 85,
      "start": 9.1214,
      "duration": 0.0127,
      "velocity": 47,
      "chip": "ym2612"
    },
    {
      "channel": 4,
      "note": 97,
      "start": 9.1217,
      "duration": 0.0127,
      "velocity": 47,
      "chip": "ym2612"
    },
    {
      "channel": 1,
      "note": 85,
      "start": 9.1341,
      "duration": 0.0138,
      "velocity": 47,
      "chip": "ym2612"
    },
    {
      "channel": 4,
      "note": 97,
      "start": 9.1344,
      "duration": 0.0137,
      "velocity": 47,
      "chip": "ym2612"
    },
    {
      "channel": 1,
      "note": 85,
      "start": 9.1479,
      "duration": 0.0157,
      "velocity": 47,
      "chip": "ym2612"
    },
    {
      "channel": 4,
      "note": 97,
      "start": 9.1481,
      "duration": 0.0157,
      "velocity": 47,
      "chip": "ym2612"
    },
    {
      "channel": 1,
      "note": 84,
      "start": 9.1636,
      "duration": 0.0138,
      "velocity": 47,
      "chip": "ym2612"
    },
    {
      "channel": 4,
      "note": 96,
      "start": 9.1639,
      "duration": 0.0137,
      "velocity": 47,
      "chip": "ym2612"
    },
    {
      "channel": 1,
      "note": 84,
      "start": 9.1773,
      "duration": 0.0179,
      "velocity": 47,
      "chip": "ym2612"
    },
    {
      "channel": 4,
      "note": 96,
      "start": 9.1776,
      "duration": 0.0179,
      "velocity": 47,
      "chip": "ym2612"
    },
    {
      "channel": 0,
      "note": 79,
      "start": 9.1936,
      "duration": 0.0727,
      "velocity": 108,
      "chip": "ym2612"
    },
    {
      "channel": 2,
      "note": 64,
      "start": 9.1941,
      "duration": 0.289,
      "velocity": 113,
      "chip": "ym2612"
    },
    {
      "channel": 3,
      "note": 52,
      "start": 9.1946,
      "duration": 0.289,
      "velocity": 113,
      "chip": "ym2612"
    },
    {
      "channel": 1,
      "note": 84,
      "start": 9.1952,
      "duration": 0.0122,
      "velocity": 47,
      "chip": "ym2612"
    },
    {
      "channel": 4,
      "note": 96,
      "start": 9.1955,
      "duration": 0.0122,
      "velocity": 47,
      "chip": "ym2612"
    },
    {
      "channel": 1,
      "note": 84,
      "start": 9.2074,
      "duration": 0.0156,
      "velocity": 47,
      "chip": "ym2612"
    },
    {
      "channel": 4,
      "note": 96,
      "start": 9.2077,
      "duration": 0.0156,
      "velocity": 47,
      "chip": "ym2612"
    },
    {
      "channel": 1,
      "note": 84,
      "start": 9.223,
      "duration": 0.0157,
      "velocity": 47,
      "chip": "ym2612"
    },
    {
      "channel": 4,
      "note": 96,
      "start": 9.2233,
      "duration": 0.0157,
      "velocity": 47,
      "chip": "ym2612"
    },
    {
      "channel": 1,
      "note": 84,
      "start": 9.2387,
      "duration": 0.0137,
      "velocity": 47,
      "chip": "ym2612"
    },
    {
      "channel": 4,
      "note": 96,
      "start": 9.239,
      "duration": 0.0136,
      "velocity": 47,
      "chip": "ym2612"
    },
    {
      "channel": 1,
      "note": 84,
      "start": 9.2523,
      "duration": 0.0146,
      "velocity": 47,
      "chip": "ym2612"
    },
    {
      "channel": 4,
      "note": 96,
      "start": 9.2526,
      "duration": 0.0147,
      "velocity": 47,
      "chip": "ym2612"
    },
    {
      "channel": 0,
      "note": 79,
      "start": 9.2665,
      "duration": 0.0726,
      "velocity": 108,
      "chip": "ym2612"
    },
    {
      "channel": 1,
      "note": 84,
      "start": 9.267,
      "duration": 0.0128,
      "velocity": 47,
      "chip": "ym2612"
    },
    {
      "channel": 4,
      "note": 96,
      "start": 9.2673,
      "duration": 0.0128,
      "velocity": 47,
      "chip": "ym2612"
    },
    {
      "channel": 1,
      "note": 84,
      "start": 9.2798,
      "duration": 0.0138,
      "velocity": 47,
      "chip": "ym2612"
    },
    {
      "channel": 4,
      "note": 96,
      "start": 9.2801,
      "duration": 0.0137,
      "velocity": 47,
      "chip": "ym2612"
    },
    {
      "channel": 1,
      "note": 84,
      "start": 9.2936,
      "duration": 0.0157,
      "velocity": 47,
      "chip": "ym2612"
    },
    {
      "channel": 4,
      "note": 96,
      "start": 9.2938,
      "duration": 0.0157,
      "velocity": 47,
      "chip": "ym2612"
    },
    {
      "channel": 1,
      "note": 84,
      "start": 9.3093,
      "duration": 0.0138,
      "velocity": 47,
      "chip": "ym2612"
    },
    {
      "channel": 4,
      "note": 96,
      "start": 9.3096,
      "duration": 0.0137,
      "velocity": 47,
      "chip": "ym2612"
    },
    {
      "channel": 1,
      "note": 83,
      "start": 9.323,
      "duration": 0.0169,
      "velocity": 47,
      "chip": "ym2612"
    },
    {
      "channel": 4,
      "note": 95,
      "start": 9.3233,
      "duration": 0.0169,
      "velocity": 47,
      "chip": "ym2612"
    },
    {
      "channel": 0,
      "note": 79,
      "start": 9.3392,
      "duration": 0.0724,
      "velocity": 108,
      "chip": "ym2612"
    },
    {
      "channel": 1,
      "note": 83,
      "start": 9.3399,
      "duration": 0.0126,
      "velocity": 47,
      "chip": "ym2612"
    },
    {
      "channel": 4,
      "note": 95,
      "start": 9.3402,
      "duration": 0.0126,
      "velocity": 47,
      "chip": "ym2612"
    },
    {
      "channel": 1,
      "note": 83,
      "start": 9.3526,
      "duration": 0.0138,
      "velocity": 47,
      "chip": "ym2612"
    },
    {
      "channel": 4,
      "note": 95,
      "start": 9.3529,
      "duration": 0.0137,
      "velocity": 47,
      "chip": "ym2612"
    },
    {
      "channel": 1,
      "note": 83,
      "start": 9.3663,
      "duration": 0.0156,
      "velocity": 47,
      "chip": "ym2612"
    },
    {
      "channel": 4,
      "note": 95,
      "start": 9.3666,
      "duration": 0.0156,
      "velocity": 47,
      "chip": "ym2612"
    },
    {
      "channel": 1,
      "note": 83,
      "start": 9.3819,
      "duration": 0.0157,
      "velocity": 47,
      "chip": "ym2612"
    },
    {
      "channel": 4,
      "note": 95,
      "start": 9.3822,
      "duration": 0.0157,
      "velocity": 47,
      "chip": "ym2612"
    },
    {
      "channel": 1,
      "note": 83,
      "start": 9.3976,
      "duration": 0.0148,
      "velocity": 47,
      "chip": "ym2612"
    },
    {
      "channel": 4,
      "note": 95,
      "start": 9.3979,
      "duration": 0.0147,
      "velocity": 47,
      "chip": "ym2612"
    },
    {
      "channel": 0,
      "note": 79,
      "start": 9.4118,
      "duration": 0.0708,
      "velocity": 108,
      "chip": "ym2612"
    },
    {
      "channel": 1,
      "note": 83,
      "start": 9.4124,
      "duration": 0.0127,
      "velocity": 47,
      "chip": "ym2612"
    },
    {
      "channel": 4,
      "note": 95,
      "start": 9.4126,
      "duration": 0.0127,
      "velocity": 47,
      "chip": "ym2612"
    },
    {
      "channel": 1,
      "note": 83,
      "start": 9.4251,
      "duration": 0.0136,
      "velocity": 47,
      "chip": "ym2612"
    },
    {
      "channel": 4,
      "note": 95,
      "start": 9.4254,
      "duration": 0.0137,
      "velocity": 47,
      "chip": "ym2612"
    },
    {
      "channel": 1,
      "note": 83,
      "start": 9.4387,
      "duration": 0.0138,
      "velocity": 47,
      "chip": "ym2612"
    },
    {
      "channel": 4,
      "note": 95,
      "start": 9.439,
      "duration": 0.0137,
      "velocity": 47,
      "chip": "ym2612"
    },
    {
      "channel": 1,
      "note": 83,
      "start": 9.4525,
      "duration": 0.0157,
      "velocity": 47,
      "chip": "ym2612"
    },
    {
      "channel": 4,
      "note": 95,
      "start": 9.4528,
      "duration": 0.0157,
      "velocity": 47,
      "chip": "ym2612"
    },
    {
      "channel": 1,
      "note": 82,
      "start": 9.4682,
      "duration": 0.0163,
      "velocity": 47,
      "chip": "ym2612"
    },
    {
      "channel": 4,
      "note": 94,
      "start": 9.4685,
      "duration": 0.0162,
      "velocity": 47,
      "chip": "ym2612"
    },
    {
      "channel": 0,
      "note": 79,
      "start": 9.4828,
      "duration": 0.0746,
      "velocity": 108,
      "chip": "ym2612"
    },
    {
      "channel": 2,
      "note": 64,
      "start": 9.4834,
      "duration": 0.2972,
      "velocity": 113,
      "chip": "ym2612"
    },
    {
      "channel": 3,
      "note": 52,
      "start": 9.4839,
      "duration": 0.2973,
      "velocity": 113,
      "chip": "ym2612"
    },
    {
      "channel": 1,
      "note": 82,
      "start": 9.4844,
      "duration": 0.0136,
      "velocity": 47,
      "chip": "ym2612"
    },
    {
      "channel": 4,
      "note": 94,
      "start": 9.4847,
      "duration": 0.0137,
      "velocity": 47,
      "chip": "ym2612"
    },
    {
      "channel": 1,
      "note": 82,
      "start": 9.498,
      "duration": 0.0138,
      "velocity": 47,
      "chip": "ym2612"
    },
    {
      "channel": 4,
      "note": 94,
      "start": 9.4984,
      "duration": 0.0137,
      "velocity": 47,
      "chip": "ym2612"
    },
    {
      "channel": 1,
      "note": 82,
      "start": 9.5118,
      "duration": 0.0157,
      "velocity": 47,
      "chip": "ym2612"
    },
    {
      "channel": 4,
      "note": 94,
      "start": 9.5121,
      "duration": 0.0157,
      "velocity": 47,
      "chip": "ym2612"
    },
    {
      "channel": 1,
      "note": 82,
      "start": 9.5275,
      "duration": 0.0138,
      "velocity": 47,
      "chip": "ym2612"
    },
    {
      "channel": 4,
      "note": 94,
      "start": 9.5278,
      "duration": 0.0137,
      "velocity": 47,
      "chip": "ym2612"
    },
    {
      "channel": 1,
      "note": 82,
      "start": 9.5413,
      "duration": 0.0168,
      "velocity": 47,
      "chip": "ym2612"
    },
    {
      "channel": 4,
      "note": 94,
      "start": 9.5416,
      "duration": 0.0168,
      "velocity": 47,
      "chip": "ym2612"
    },
    {
      "channel": 0,
      "note": 79,
      "start": 9.5575,
      "duration": 0.0744,
      "velocity": 108,
      "chip": "ym2612"
    },
    {
      "channel": 1,
      "note": 82,
      "start": 9.5581,
      "duration": 0.0147,
      "velocity": 47,
      "chip": "ym2612"
    },
    {
      "channel": 4,
      "note": 94,
      "start": 9.5584,
      "duration": 0.0147,
      "velocity": 47,
      "chip": "ym2612"
    },
    {
      "channel": 1,
      "note": 82,
      "start": 9.5728,
      "duration": 0.0138,
      "velocity": 47,
      "chip": "ym2612"
    },
    {
      "channel": 4,
      "note": 94,
      "start": 9.5731,
      "duration": 0.0137,
      "velocity": 47,
      "chip": "ym2612"
    },
    {
      "channel": 1,
      "note": 82,
      "start": 9.5866,
      "duration": 0.0157,
      "velocity": 47,
      "chip": "ym2612"
    },
    {
      "channel": 4,
      "note": 94,
      "start": 9.5868,
      "duration": 0.0157,
      "velocity": 47,
      "chip": "ym2612"
    },
    {
      "channel": 1,
      "note": 82,
      "start": 9.6022,
      "duration": 0.0138,
      "velocity": 47,
      "chip": "ym2612"
    },
    {
      "channel": 4,
      "note": 94,
      "start": 9.6026,
      "duration": 0.0137,
      "velocity": 47,
      "chip": "ym2612"
    },
    {
      "channel": 1,
      "note": 81,
      "start": 9.616,
      "duration": 0.0166,
      "velocity": 47,
      "chip": "ym2612"
    },
    {
      "channel": 4,
      "note": 93,
      "start": 9.6163,
      "duration": 0.0166,
      "velocity": 47,
      "chip": "ym2612"
    },
    {
      "channel": 0,
      "note": 79,
      "start": 9.6321,
      "duration": 0.0754,
      "velocity": 108,
      "chip": "ym2612"
    },
    {
      "channel": 1,
      "note": 81,
      "start": 9.6327,
      "duration": 0.0128,
      "velocity": 47,
      "chip": "ym2612"
    },
    {
      "channel": 4,
      "note": 93,
      "start": 9.6329,
      "duration": 0.0129,
      "velocity": 47,
      "chip": "ym2612"
    },
    {
      "channel": 1,
      "note": 81,
      "start": 9.6454,
      "duration": 0.0159,
      "velocity": 47,
      "chip": "ym2612"
    },
    {
      "channel": 4,
      "note": 93,
      "start": 9.6458,
      "duration": 0.0158,
      "velocity": 47,
      "chip": "ym2612"
    },
    {
      "channel": 1,
      "note": 81,
      "start": 9.6613,
      "duration": 0.0156,
      "velocity": 47,
      "chip": "ym2612"
    },
    {
      "channel": 4,
      "note": 93,
      "start": 9.6616,
      "duration": 0.0156,
      "velocity": 47,
      "chip": "ym2612"
    },
    {
      "channel": 1,
      "note": 81,
      "start": 9.6769,
      "duration": 0.0138,
      "velocity": 47,
      "chip": "ym2612"
    },
    {
      "channel": 4,
      "note": 93,
      "start": 9.6772,
      "duration": 0.0137,
      "velocity": 47,
      "chip": "ym2612"
    },
    {
      "channel": 1,
      "note": 81,
      "start": 9.6907,
      "duration": 0.0177,
      "velocity": 47,
      "chip": "ym2612"
    },
    {
      "channel": 4,
      "note": 93,
      "start": 9.6909,
      "duration": 0.0177,
      "velocity": 47,
      "chip": "ym2612"
    },
    {
      "channel": 0,
      "note": 79,
      "start": 9.7076,
      "duration": 0.0725,
      "velocity": 108,
      "chip": "ym2612"
    },
    {
      "channel": 1,
      "note": 81,
      "start": 9.7083,
      "duration": 0.0146,
      "velocity": 47,
      "chip": "ym2612"
    },
    {
      "channel": 4,
      "note": 93,
      "start": 9.7086,
      "duration": 0.0146,
      "velocity": 47,
      "chip": "ym2612"
    },
    {
      "channel": 1,
      "note": 81,
      "start": 9.7229,
      "duration": 0.0137,
      "velocity": 47,
      "chip": "ym2612"
    },
    {
      "channel": 4,
      "note": 93,
      "start": 9.7232,
      "duration": 0.0136,
      "velocity": 47,
      "chip": "ym2612"
    },
    {
      "channel": 1,
      "note": 81,
      "start": 9.7366,
      "duration": 0.0136,
      "velocity": 47,
      "chip": "ym2612"
    },
    {
      "channel": 4,
      "note": 93,
      "start": 9.7368,
      "duration": 0.0137,
      "velocity": 47,
      "chip": "ym2612"
    },
    {
      "channel": 1,
      "note": 81,
      "start": 9.7502,
      "duration": 0.0138,
      "velocity": 47,
      "chip": "ym2612"
    },
    {
      "channel": 4,
      "note": 93,
      "start": 9.7505,
      "duration": 0.0137,
      "velocity": 47,
      "chip": "ym2612"
    },
    {
      "channel": 1,
      "note": 80,
      "start": 9.764,
      "duration": 0.0179,
      "velocity": 47,
      "chip": "ym2612"
    },
    {
      "channel": 4,
      "note": 92,
      "start": 9.7642,
      "duration": 0.0179,
      "velocity": 47,
      "chip": "ym2612"
    },
    {
      "channel": 0,
      "note": 79,
      "start": 9.7802,
      "duration": 0.0727,
      "velocity": 108,
      "chip": "ym2612"
    },
    {
      "channel": 2,
      "note": 60,
      "start": 9.7808,
      "duration": 0.2947,
      "velocity": 121,
      "chip": "ym2612"
    },
    {
      "channel": 3,
      "note": 48,
      "start": 9.7813,
      "duration": 0.2961,
      "velocity": 111,
      "chip": "ym2612"
    },
    {
      "channel": 1,
      "note": 80,
      "start": 9.7819,
      "duration": 0.0122,
      "velocity": 47,
      "chip": "ym2612"
    },
    {
      "channel": 4,
      "note": 92,
      "start": 9.7821,
      "duration": 0.0122,
      "velocity": 47,
      "chip": "ym2612"
    },
    {
      "channel": 1,
      "note": 80,
      "start": 9.794,
      "duration": 0.0156,
      "velocity": 47,
      "chip": "ym2612"
    },
    {
      "channel": 4,
      "note": 92,
      "start": 9.7943,
      "duration": 0.0156,
      "velocity": 47,
      "chip": "ym2612"
    },
    {
      "channel": 1,
      "note": 80,
      "start": 9.8096,
      "duration": 0.0157,
      "velocity": 47,
      "chip": "ym2612"
    },
    {
      "channel": 4,
      "note": 92,
      "start": 9.8099,
      "duration": 0.0157,
      "velocity": 47,
      "chip": "ym2612"
    },
    {
      "channel": 1,
      "note": 80,
      "start": 9.8253,
      "duration": 0.0137,
      "velocity": 47,
      "chip": "ym2612"
    },
    {
      "channel": 4,
      "note": 92,
      "start": 9.8256,
      "duration": 0.0136,
      "velocity": 47,
      "chip": "ym2612"
    },
    {
      "channel": 1,
      "note": 80,
      "start": 9.839,
      "duration": 0.0148,
      "velocity": 47,
      "chip": "ym2612"
    },
    {
      "channel": 4,
      "note": 92,
      "start": 9.8392,
      "duration": 0.0148,
      "velocity": 47,
      "chip": "ym2612"
    },
    {
      "channel": 0,
      "note": 79,
      "start": 9.8531,
      "duration": 0.0729,
      "velocity": 108,
      "chip": "ym2612"
    },
    {
      "channel": 1,
      "note": 80,
      "start": 9.8538,
      "duration": 0.0129,
      "velocity": 47,
      "chip": "ym2612"
    },
    {
      "channel": 4,
      "note": 92,
      "start": 9.8541,
      "duration": 0.0129,
      "velocity": 47,
      "chip": "ym2612"
    },
    {
      "channel": 1,
      "note": 80,
      "start": 9.8667,
      "duration": 0.0138,
      "velocity": 47,
      "chip": "ym2612"
    },
    {
      "channel": 4,
      "note": 92,
      "start": 9.867,
      "duration": 0.0137,
      "velocity": 47,
      "chip": "ym2612"
    },
    {
      "channel": 1,
      "note": 80,
      "start": 9.8805,
      "duration": 0.0157,
      "velocity": 47,
      "chip": "ym2612"
    },
    {
      "channel": 4,
      "note": 92,
      "start": 9.8807,
      "duration": 0.0157,
      "velocity": 47,
      "chip": "ym2612"
    },
    {
      "channel": 1,
      "note": 79,
      "start": 9.8961,
      "duration": 0.0138,
      "velocity": 47,
      "chip": "ym2612"
    },
    {
      "channel": 4,
      "note": 91,
      "start": 9.8965,
      "duration": 0.0137,
      "velocity": 47,
      "chip": "ym2612"
    },
    {
      "channel": 1,
      "note": 79,
      "start": 9.9099,
      "duration": 0.017,
      "velocity": 47,
      "chip": "ym2612"
    },
    {
      "channel": 4,
      "note": 91,
      "start": 9.9102,
      "duration": 0.017,
      "velocity": 47,
      "chip": "ym2612"
    },
    {
      "channel": 0,
      "note": 79,
      "start": 9.9262,
      "duration": 0.0745,
      "velocity": 108,
      "chip": "ym2612"
    },
    {
      "channel": 1,
      "note": 79,
      "start": 9.9269,
      "duration": 0.0126,
      "velocity": 47,
      "chip": "ym2612"
    },
    {
      "channel": 4,
      "note": 91,
      "start": 9.9272,
      "duration": 0.0126,
      "velocity": 47,
      "chip": "ym2612"
    },
    {
      "channel": 1,
      "note": 79,
      "start": 9.9395,
      "duration": 0.0159,
      "velocity": 47,
      "chip": "ym2612"
    },
    {
      "channel": 4,
      "note": 91,
      "start": 9.9398,
      "duration": 0.0158,
      "velocity": 47,
      "chip": "ym2612"
    },
    {
      "channel": 1,
      "note": 79,
      "start": 9.9554,
      "duration": 0.0156,
      "velocity": 47,
      "chip": "ym2612"
    },
    {
      "channel": 4,
      "note": 91,
      "start": 9.9556,
      "duration": 0.0156,
      "velocity": 47,
      "chip": "ym2612"
    },
    {
      "channel": 1,
      "note": 79,
      "start": 9.971,
      "duration": 0.0138,
      "velocity": 47,
      "chip": "ym2612"
    },
    {
      "channel": 4,
      "note": 91,
      "start": 9.9713,
      "duration": 0.0137,
      "velocity": 47,
      "chip": "ym2612"
    },
    {
      "channel": 1,
      "note": 79,
      "start": 9.9847,
      "duration": 0.0168,
      "velocity": 47,
      "chip": "ym2612"
    },
    {
      "channel": 4,
      "note": 91,
      "start": 9.985,
      "duration": 0.0169,
      "velocity": 47,
      "chip": "ym2612"
    },
    {
      "channel": 0,
      "note": 79,
      "start": 10.0009,
      "duration": 0.0707,
      "velocity": 108,
      "chip": "ym2612"
    },
    {
      "channel": 1,
      "note": 79,
      "start": 10.0016,
      "duration": 0.0126,
      "velocity": 47,
      "chip": "ym2612"
    },
    {
      "channel": 4,
      "note": 91,
      "start": 10.0019,
      "duration": 0.0126,
      "velocity": 47,
      "chip": "ym2612"
    },
    {
      "channel": 1,
      "note": 78,
      "start": 10.0142,
      "duration": 0.0136,
      "velocity": 47,
      "chip": "ym2612"
    },
    {
      "channel": 4,
      "note": 90,
      "start": 10.0145,
      "duration": 0.0137,
      "velocity": 47,
      "chip": "ym2612"
    },
    {
      "channel": 1,
      "note": 78,
      "start": 10.0278,
      "duration": 0.0138,
      "velocity": 47,
      "chip": "ym2612"
    },
    {
      "channel": 4,
      "note": 90,
      "start": 10.0281,
      "duration": 0.0137,
      "velocity": 47,
      "chip": "ym2612"
    },
    {
      "channel": 1,
      "note": 78,
      "start": 10.0416,
      "duration": 0.0157,
      "velocity": 47,
      "chip": "ym2612"
    },
    {
      "channel": 4,
      "note": 90,
      "start": 10.0419,
      "duration": 0.0157,
      "velocity": 47,
      "chip": "ym2612"
    },
    {
      "channel": 1,
      "note": 78,
      "start": 10.0573,
      "duration": 0.0162,
      "velocity": 113,
      "chip": "ym2612"
    },
    {
      "channel": 4,
      "note": 90,
      "start": 10.0576,
      "duration": 0.0216,
      "velocity": 113,
      "chip": "ym2612"
    },
    {
      "channel": 0,
      "note": 79,
      "start": 10.0718,
      "duration": 0.0743,
      "velocity": 108,
      "chip": "ym2612"
    },
    {
      "channel": 1,
      "note": 69,
      "start": 10.0737,
      "duration": 0.1476,
      "velocity": 113,
      "chip": "ym2612"
    },
    {
      "channel": 2,
      "note": 48,
      "start": 10.0756,
      "duration": 0.0711,
      "velocity": 121,
      "chip": "ym2612"
    },
    {
      "channel": 3,
      "note": 50,
      "start": 10.0775,
      "duration": 0.1449,
      "velocity": 111,
      "chip": "ym2612"
    },
    {
      "channel": 4,
      "note": 74,
      "start": 10.0794,
      "duration": 0.1435,
      "velocity": 113,
      "chip": "ym2612"
    },
    {
      "channel": 0,
      "note": 79,
      "start": 10.1463,
      "duration": 0.0745,
      "velocity": 108,
      "chip": "ym2612"
    },
    {
      "channel": 2,
      "note": 50,
      "start": 10.1468,
      "duration": 0.0751,
      "velocity": 121,
      "chip": "ym2612"
    },
    {
      "channel": 0,
      "note": 79,
      "start": 10.221,
      "duration": 0.0831,
      "velocity": 108,
      "chip": "ym2612"
    },
    {
      "channel": 1,
      "note": 69,
      "start": 10.2216,
      "duration": 0.7487,
      "velocity": 113,
      "chip": "ym2612"
    },
    {
      "channel": 2,
      "note": 60,
      "start": 10.2221,
      "duration": 0.0825,
      "velocity": 121,
      "chip": "ym2612"
    },
    {
      "channel": 3,
      "note": 50,
      "start": 10.2226,
      "duration": 0.0826,
      "velocity": 111,
      "chip": "ym2612"
    },
    {
      "channel": 4,
      "note": 74,
      "start": 10.2231,
      "duration": 0.7483,
      "velocity": 113,
      "chip": "ym2612"
    },
    {
      "channel": 5,
      "note": 31,
      "start": 10.2237,
      "duration": 4.7623,
      "velocity": 1,
      "chip": "ym2612"
    },
    {
      "channel": 0,
      "note": 79,
      "start": 10.3042,
      "duration": 0.0741,
      "velocity": 108,
      "chip": "ym2612"
    },
    {
      "channel": 2,
      "note": 62,
      "start": 10.3048,
      "duration": 0.2188,
      "velocity": 121,
      "chip": "ym2612"
    },
    {
      "channel": 3,
      "note": 50,
      "start": 10.3053,
      "duration": 0.0736,
      "velocity": 111,
      "chip": "ym2612"
    },
    {
      "channel": 0,
      "note": 79,
      "start": 10.3785,
      "duration": 0.0741,
      "velocity": 108,
      "chip": "ym2612"
    },
    {
      "channel": 3,
      "note": 62,
      "start": 10.3791,
      "duration": 0.1451,
      "velocity": 111,
      "chip": "ym2612"
    },
    {
      "channel": 0,
      "note": 79,
      "start": 10.4529,
      "duration": 0.0702,
      "velocity": 108,
      "chip": "ym2612"
    },
    {
      "channel": 0,
      "note": 79,
      "start": 10.5233,
      "duration": 0.0741,
      "velocity": 108,
      "chip": "ym2612"
    },
    {
      "channel": 2,
      "note": 60,
      "start": 10.5238,
      "duration": 0.074,
      "velocity": 121,
      "chip": "ym2612"
    },
    {
      "channel": 3,
      "note": 50,
      "start": 10.5243,
      "duration": 0.074,
      "velocity": 111,
      "chip": "ym2612"
    },
    {
      "channel": 0,
      "note": 79,
      "start": 10.5975,
      "duration": 0.0745,
      "velocity": 108,
      "chip": "ym2612"
    },
    {
      "channel": 2,
      "note": 57,
      "start": 10.598,
      "duration": 0.0745,
      "velocity": 121,
      "chip": "ym2612"
    },
    {
      "channel": 3,
      "note": 62,
      "start": 10.5985,
      "duration": 0.0745,
      "velocity": 111,
      "chip": "ym2612"
    },
    {
      "channel": 0,
      "note": 79,
      "start": 10.6722,
      "duration": 0.0745,
      "velocity": 108,
      "chip": "ym2612"
    },
    {
      "channel": 2,
      "note": 48,
      "start": 10.6727,
      "duration": 0.0745,
      "velocity": 121,
      "chip": "ym2612"
    },
    {
      "channel": 3,
      "note": 50,
      "start": 10.6732,
      "duration": 0.1471,
      "velocity": 111,
      "chip": "ym2612"
    },
    {
      "channel": 0,
      "note": 79,
      "start": 10.7468,
      "duration": 0.0724,
      "velocity": 108,
      "chip": "ym2612"
    },
    {
      "channel": 2,
      "note": 50,
      "start": 10.7474,
      "duration": 0.0724,
      "velocity": 121,
      "chip": "ym2612"
    },
    {
      "channel": 0,
      "note": 79,
      "start": 10.8193,
      "duration": 0.076,
      "velocity": 108,
      "chip": "ym2612"
    },
    {
      "channel": 2,
      "note": 60,
      "start": 10.8199,
      "duration": 0.0759,
      "velocity": 121,
      "chip": "ym2612"
    },
    {
      "channel": 3,
      "note": 50,
      "start": 10.8204,
      "duration": 0.0759,
      "velocity": 111,
      "chip": "ym2612"
    },
    {
      "channel": 0,
      "note": 79,
      "start": 10.8955,
      "duration": 0.0743,
      "velocity": 108,
      "chip": "ym2612"
    },
    {
      "channel": 2,
      "note": 62,
      "start": 10.896,
      "duration": 0.2199,
      "velocity": 121,
      "chip": "ym2612"
    },
    {
      "channel": 3,
      "note": 50,
      "start": 10.8965,
      "duration": 0.0743,
      "velocity": 111,
      "chip": "ym2612"
    },
    {
      "channel": 0,
      "note": 79,
      "start": 10.97,
      "duration": 0.0727,
      "velocity": 108,
      "chip": "ym2612"
    },
    {
      "channel": 1,
      "note": 70,
      "start": 10.9705,
      "duration": 0.1449,
      "velocity": 113,
      "chip": "ym2612"
    },
    {
      "channel": 3,
      "note": 62,
      "start": 10.971,
      "duration": 0.1454,
      "velocity": 111,
      "chip": "ym2612"
    },
    {
      "channel": 4,
      "note": 75,
      "start": 10.9716,
      "duration": 0.1454,
      "velocity": 113,
      "chip": "ym2612"
    },
    {
      "channel": 0,
      "note": 79,
      "start": 11.0428,
      "duration": 0.0721,
      "velocity": 108,
      "chip": "ym2612"
    },
    {
      "channel": 0,
      "note": 79,
      "start": 11.115,
      "duration": 0.0726,
      "velocity": 108,
      "chip": "ym2612"
    },
    {
      "channel": 1,
      "note": 70,
      "start": 11.1155,
      "duration": 0.5907,
      "velocity": 113,
      "chip": "ym2612"
    },
    {
      "channel": 2,
      "note": 60,
      "start": 11.116,
      "duration": 0.0721,
      "velocity": 121,
      "chip": "ym2612"
    },
    {
      "channel": 3,
      "note": 50,
      "start": 11.1166,
      "duration": 0.0721,
      "velocity": 111,
      "chip": "ym2612"
    },
    {
      "channel": 4,
      "note": 75,
      "start": 11.1171,
      "duration": 0.5907,
      "velocity": 113,
      "chip": "ym2612"
    },
    {
      "channel": 0,
      "note": 79,
      "start": 11.1878,
      "duration": 0.0744,
      "velocity": 108,
      "chip": "ym2612"
    },
    {
      "channel": 2,
      "note": 57,
      "start": 11.1884,
      "duration": 0.0744,
      "velocity": 121,
      "chip": "ym2612"
    },
    {
      "channel": 3,
      "note": 62,
      "start": 11.1889,
      "duration": 0.0744,
      "velocity": 111,
      "chip": "ym2612"
    },
    {
      "channel": 0,
      "note": 79,
      "start": 11.2623,
      "duration": 0.0742,
      "velocity": 108,
      "chip": "ym2612"
    },
    {
      "channel": 2,
      "note": 51,
      "start": 11.2629,
      "duration": 0.0742,
      "velocity": 121,
      "chip": "ym2612"
    },
    {
      "channel": 3,
      "note": 51,
      "start": 11.2634,
      "duration": 0.1465,
      "velocity": 111,
      "chip": "ym2612"
    },
    {
      "channel": 0,
      "note": 79,
      "start": 11.3367,
      "duration": 0.0721,
      "velocity": 108,
      "chip": "ym2612"
    },
    {
      "channel": 2,
      "note": 58,
      "start": 11.3373,
      "duration": 0.0721,
      "velocity": 121,
      "chip": "ym2612"
    },
    {
      "channel": 0,
      "note": 79,
      "start": 11.409,
      "duration": 0.0756,
      "velocity": 108,
      "chip": "ym2612"
    },
    {
      "channel": 2,
      "note": 61,
      "start": 11.4096,
      "duration": 0.0756,
      "velocity": 121,
      "chip": "ym2612"
    },
    {
      "channel": 3,
      "note": 51,
      "start": 11.4101,
      "duration": 0.0756,
      "velocity": 111,
      "chip": "ym2612"
    },
    {
      "channel": 0,
      "note": 79,
      "start": 11.4848,
      "duration": 0.0742,
      "velocity": 108,
      "chip": "ym2612"
    },
    {
      "channel": 2,
      "note": 63,
      "start": 11.4853,
      "duration": 0.2214,
      "velocity": 121,
      "chip": "ym2612"
    },
    {
      "channel": 3,
      "note": 51,
      "start": 11.4858,
      "duration": 0.0737,
      "velocity": 111,
      "chip": "ym2612"
    },
    {
      "channel": 0,
      "note": 79,
      "start": 11.5591,
      "duration": 0.0722,
      "velocity": 108,
      "chip": "ym2612"
    },
    {
      "channel": 3,
      "note": 63,
      "start": 11.5598,
      "duration": 0.1475,
      "velocity": 111,
      "chip": "ym2612"
    },
    {
      "channel": 0,
      "note": 79,
      "start": 11.6316,
      "duration": 0.0742,
      "velocity": 108,
      "chip": "ym2612"
    },
    {
      "channel": 0,
      "note": 79,
      "start": 11.7059,
      "duration": 0.0741,
      "velocity": 108,
      "chip": "ym2612"
    },
    {
      "channel": 1,
      "note": 72,
      "start": 11.7064,
      "duration": 0.2961,
      "velocity": 113,
      "chip": "ym2612"
    },
    {
      "channel": 2,
      "note": 61,
      "start": 11.7069,
      "duration": 0.0737,
      "velocity": 121,
      "chip": "ym2612"
    },
    {
      "channel": 3,
      "note": 51,
      "start": 11.7075,
      "duration": 0.0737,
      "velocity": 111,
      "chip": "ym2612"
    },
    {
      "channel": 4,
      "note": 79,
      "start": 11.708,
      "duration": 0.2961,
      "velocity": 113,
      "chip": "ym2612"
    },
    {
      "channel": 0,
      "note": 79,
      "start": 11.7802,
      "duration": 0.0744,
      "velocity": 108,
      "chip": "ym2612"
    },
    {
      "channel": 2,
      "note": 58,
      "start": 11.7807,
      "duration": 0.0744,
      "velocity": 121,
      "chip": "ym2612"
    },
    {
      "channel": 3,
      "note": 63,
      "start": 11.7812,
      "duration": 0.0744,
      "velocity": 111,
      "chip": "ym2612"
    },
    {
      "channel": 0,
      "note": 79,
      "start": 11.8547,
      "duration": 0.0746,
      "velocity": 108,
      "chip": "ym2612"
    },
    {
      "channel": 2,
      "note": 51,
      "start": 11.8552,
      "duration": 0.0747,
      "velocity": 121,
      "chip": "ym2612"
    },
    {
      "channel": 3,
      "note": 51,
      "start": 11.8557,
      "duration": 0.1478,
      "velocity": 111,
      "chip": "ym2612"
    },
    {
      "channel": 0,
      "note": 79,
      "start": 11.9296,
      "duration": 0.0725,
      "velocity": 108,
      "chip": "ym2612"
    },
    {
      "channel": 2,
      "note": 58,
      "start": 11.9301,
      "duration": 0.0729,
      "velocity": 121,
      "chip": "ym2612"
    },
    {
      "channel": 0,
      "note": 79,
      "start": 12.0022,
      "duration": 0.0757,
      "velocity": 108,
      "chip": "ym2612"
    },
    {
      "channel": 1,
      "note": 67,
      "start": 12.0027,
      "duration": 0.3031,
      "velocity": 113,
      "chip": "ym2612"
    },
    {
      "channel": 2,
      "note": 61,
      "start": 12.0032,
      "duration": 0.0752,
      "velocity": 121,
      "chip": "ym2612"
    },
    {
      "channel": 3,
      "note": 51,
      "start": 12.0038,
      "duration": 0.0752,
      "velocity": 111,
      "chip": "ym2612"
    },
    {
      "channel": 4,
      "note": 75,
      "start": 12.0043,
      "duration": 0.3031,
      "velocity": 113,
      "chip": "ym2612"
    },
    {
      "channel": 0,
      "note": 79,
      "start": 12.0781,
      "duration": 0.0743,
      "velocity": 108,
      "chip": "ym2612"
    },
    {
      "channel": 2,
      "note": 63,
      "start": 12.0786,
      "duration": 0.0742,
      "velocity": 121,
      "chip": "ym2612"
    },
    {
      "channel": 3,
      "note": 51,
      "start": 12.0791,
      "duration": 0.0743,
      "velocity": 111,
      "chip": "ym2612"
    },
    {
      "channel": 0,
      "note": 79,
      "start": 12.1525,
      "duration": 0.0762,
      "velocity": 108,
      "chip": "ym2612"
    },
    {
      "channel": 2,
      "note": 58,
      "start": 12.153,
      "duration": 0.0762,
      "velocity": 121,
      "chip": "ym2612"
    },
    {
      "channel": 3,
      "note": 63,
      "start": 12.1535,
      "duration": 0.1533,
      "velocity": 111,
      "chip": "ym2612"
    },
    {
      "channel": 0,
      "note": 79,
      "start": 12.2289,
      "duration": 0.0764,
      "velocity": 108,
      "chip": "ym2612"
    },
    {
      "channel": 2,
      "note": 61,
      "start": 12.2294,
      "duration": 0.0769,
      "velocity": 121,
      "chip": "ym2612"
    },
    {
      "channel": 0,
      "note": 79,
      "start": 12.3055,
      "duration": 0.0749,
      "velocity": 108,
      "chip": "ym2612"
    },
    {
      "channel": 1,
      "note": 68,
      "start": 12.306,
      "duration": 0.1495,
      "velocity": 113,
      "chip": "ym2612"
    },
    {
      "channel": 2,
      "note": 56,
      "start": 12.3065,
      "duration": 0.0744,
      "velocity": 121,
      "chip": "ym2612"
    },
    {
      "channel": 3,
      "note": 51,
      "start": 12.307,
      "duration": 0.0744,
      "velocity": 111,
      "chip": "ym2612"
    },
    {
      "channel": 4,
      "note": 72,
      "start": 12.3075,
      "duration": 0.1495,
      "velocity": 113,
      "chip": "ym2612"
    },
    {
      "channel": 0,
      "note": 79,
      "start": 12.3805,
      "duration": 0.0745,
      "velocity": 108,
      "chip": "ym2612"
    },
    {
      "channel": 2,
      "note": 58,
      "start": 12.3811,
      "duration": 0.0749,
      "velocity": 121,
      "chip": "ym2612"
    },
    {
      "channel": 3,
      "note": 63,
      "start": 12.3816,
      "duration": 0.0749,
      "velocity": 111,
      "chip": "ym2612"
    },
    {
      "channel": 0,
      "note": 79,
      "start": 12.4551,
      "duration": 0.0749,
      "velocity": 108,
      "chip": "ym2612"
    },
    {
      "channel": 1,
      "note": 69,
      "start": 12.4556,
      "duration": 0.1475,
      "velocity": 113,
      "chip": "ym2612"
    },
    {
      "channel": 2,
      "note": 48,
      "start": 12.4561,
      "duration": 0.0744,
      "velocity": 121,
      "chip": "ym2612"
    },
    {
      "channel": 3,
      "note": 50,
      "start": 12.4566,
      "duration": 0.1475,
      "velocity": 111,
      "chip": "ym2612"
    },
    {
      "channel": 4,
      "note": 74,
      "start": 12.4571,
      "duration": 0.1475,
      "velocity": 113,
      "chip": "ym2612"
    },
    {
      "channel": 0,
      "note": 79,
      "start": 12.5302,
      "duration": 0.0724,
      "velocity": 108,
      "chip": "ym2612"
    },
    {
      "channel": 2,
      "note": 50,
      "start": 12.5307,
      "duration": 0.0729,
      "velocity": 121,
      "chip": "ym2612"
    },
    {
      "channel": 0,
      "note": 79,
      "start": 12.6028,
      "duration": 0.0757,
      "velocity": 108,
      "chip": "ym2612"
    },
    {
      "channel": 1,
      "note": 69,
      "start": 12.6033,
      "duration": 0.7471,
      "velocity": 113,
      "chip": "ym2612"
    },
    {
      "channel": 2,
      "note": 60,
      "start": 12.6038,
      "duration": 0.0752,
      "velocity": 121,
      "chip": "ym2612"
    },
    {
      "channel": 3,
      "note": 50,
      "start": 12.6043,
      "duration": 0.0753,
      "velocity": 111,
      "chip": "ym2612"
    },
    {
      "channel": 4,
      "note": 74,
      "start": 12.6048,
      "duration": 0.7467,
      "velocity": 113,
      "chip": "ym2612"
    },
    {
      "channel": 0,
      "note": 79,
      "start": 12.6786,
      "duration": 0.074,
      "velocity": 108,
      "chip": "ym2612"
    },
    {
      "channel": 2,
      "note": 62,
      "start": 12.6792,
      "duration": 0.2208,
      "velocity": 121,
      "chip": "ym2612"
    },
    {
      "channel": 3,
      "note": 50,
      "start": 12.6797,
      "duration": 0.0736,
      "velocity": 111,
      "chip": "ym2612"
    },
    {
      "channel": 0,
      "note": 79,
      "start": 12.7529,
      "duration": 0.072,
      "velocity": 108,
      "chip": "ym2612"
    },
    {
      "channel": 3,
      "note": 62,
      "start": 12.7534,
      "duration": 0.1471,
      "velocity": 111,
      "chip": "ym2612"
    },
    {
      "channel": 0,
      "note": 79,
      "start": 12.8251,
      "duration": 0.0743,
      "velocity": 108,
      "chip": "ym2612"
    },
    {
      "channel": 0,
      "note": 79,
      "start": 12.8996,
      "duration": 0.0763,
      "velocity": 108,
      "chip": "ym2612"
    },
    {
      "channel": 2,
      "note": 60,
      "start": 12.9002,
      "duration": 0.0762,
      "velocity": 121,
      "chip": "ym2612"
    },
    {
      "channel": 3,
      "note": 50,
      "start": 12.9007,
      "duration": 0.0762,
      "velocity": 111,
      "chip": "ym2612"
    },
    {
      "channel": 0,
      "note": 79,
      "start": 12.976,
      "duration": 0.0745,
      "velocity": 108,
      "chip": "ym2612"
    },
    {
      "channel": 2,
      "note": 57,
      "start": 12.9766,
      "duration": 0.0745,
      "velocity": 121,
      "chip": "ym2612"
    },
    {
      "channel": 3,
      "note": 62,
      "start": 12.9771,
      "duration": 0.0745,
      "velocity": 111,
      "chip": "ym2612"
    },
    {
      "channel": 0,
      "note": 79,
      "start": 13.0507,
      "duration": 0.0745,
      "velocity": 108,
      "chip": "ym2612"
    },
    {
      "channel": 2,
      "note": 48,
      "start": 13.0512,
      "duration": 0.0745,
      "velocity": 121,
      "chip": "ym2612"
    },
    {
      "channel": 3,
      "note": 50,
      "start": 13.0517,
      "duration": 0.1491,
      "velocity": 111,
      "chip": "ym2612"
    },
    {
      "channel": 0,
      "note": 79,
      "start": 13.1254,
      "duration": 0.0744,
      "velocity": 108,
      "chip": "ym2612"
    },
    {
      "channel": 2,
      "note": 50,
      "start": 13.1259,
      "duration": 0.0743,
      "velocity": 121,
      "chip": "ym2612"
    },
    {
      "channel": 0,
      "note": 79,
      "start": 13.1999,
      "duration": 0.0756,
      "velocity": 108,
      "chip": "ym2612"
    },
    {
      "channel": 2,
      "note": 60,
      "start": 13.2004,
      "duration": 0.0756,
      "velocity": 121,
      "chip": "ym2612"
    },
    {
      "channel": 3,
      "note": 50,
      "start": 13.2009,
      "duration": 0.0756,
      "velocity": 111,
      "chip": "ym2612"
    },
    {
      "channel": 0,
      "note": 79,
      "start": 13.2756,
      "duration": 0.0743,
      "velocity": 108,
      "chip": "ym2612"
    },
    {
      "channel": 2,
      "note": 62,
      "start": 13.2762,
      "duration": 0.222,
      "velocity": 121,
      "chip": "ym2612"
    },
    {
      "channel": 3,
      "note": 50,
      "start": 13.2767,
      "duration": 0.0743,
      "velocity": 111,
      "chip": "ym2612"
    },
    {
      "channel": 0,
      "note": 79,
      "start": 13.3501,
      "duration": 0.0744,
      "velocity": 108,
      "chip": "ym2612"
    },
    {
      "channel": 1,
      "note": 72,
      "start": 13.3506,
      "duration": 0.1471,
      "velocity": 113,
      "chip": "ym2612"
    },
    {
      "channel": 3,
      "note": 62,
      "start": 13.3512,
      "duration": 0.1476,
      "velocity": 111,
      "chip": "ym2612"
    },
    {
      "channel": 4,
      "note": 77,
      "start": 13.3517,
      "duration": 0.1476,
      "velocity": 113,
      "chip": "ym2612"
    },
    {
      "channel": 0,
      "note": 79,
      "start": 13.4247,
      "duration": 0.0725,
      "velocity": 108,
      "chip": "ym2612"
    },
    {
      "channel": 0,
      "note": 79,
      "start": 13.4974,
      "duration": 0.0763,
      "velocity": 108,
      "chip": "ym2612"
    },
    {
      "channel": 1,
      "note": 72,
      "start": 13.4979,
      "duration": 0.5961,
      "velocity": 47,
      "chip": "ym2612"
    },
    {
      "channel": 2,
      "note": 60,
      "start": 13.4984,
      "duration": 0.0758,
      "velocity": 121,
      "chip": "ym2612"
    },
    {
      "channel": 3,
      "note": 50,
      "start": 13.4989,
      "duration": 0.0758,
      "velocity": 111,
      "chip": "ym2612"
    },
    {
      "channel": 4,
      "note": 77,
      "start": 13.4994,
      "duration": 0.5961,
      "velocity": 113,
      "chip": "ym2612"
    },
    {
      "channel": 0,
      "note": 79,
      "start": 13.5738,
      "duration": 0.0746,
      "velocity": 108,
      "chip": "ym2612"
    },
    {
      "channel": 2,
      "note": 57,
      "start": 13.5744,
      "duration": 0.0746,
      "velocity": 121,
      "chip": "ym2612"
    },
    {
      "channel": 3,
      "note": 62,
      "start": 13.5749,
      "duration": 0.0746,
      "velocity": 111,
      "chip": "ym2612"
    },
    {
      "channel": 0,
      "note": 79,
      "start": 13.6485,
      "duration": 0.0742,
      "velocity": 108,
      "chip": "ym2612"
    },
    {
      "channel": 2,
      "note": 53,
      "start": 13.6491,
      "duration": 0.0742,
      "velocity": 121,
      "chip": "ym2612"
    },
    {
      "channel": 3,
      "note": 53,
      "start": 13.6496,
      "duration": 0.1467,
      "velocity": 111,
      "chip": "ym2612"
    },
    {
      "channel": 0,
      "note": 79,
      "start": 13.7229,
      "duration": 0.0723,
      "velocity": 108,
      "chip": "ym2612"
    },
    {
      "channel": 2,
      "note": 60,
      "start": 13.7235,
      "duration": 0.0723,
      "velocity": 121,
      "chip": "ym2612"
    },
    {
      "channel": 0,
      "note": 79,
      "start": 13.7954,
      "duration": 0.0756,
      "velocity": 108,
      "chip": "ym2612"
    },
    {
      "channel": 2,
      "note": 65,
      "start": 13.7959,
      "duration": 0.0755,
      "velocity": 121,
      "chip": "ym2612"
    },
    {
      "channel": 3,
      "note": 53,
      "start": 13.7964,
      "duration": 0.0755,
      "velocity": 111,
      "chip": "ym2612"
    },
    {
      "channel": 0,
      "note": 79,
      "start": 13.8711,
      "duration": 0.0741,
      "velocity": 108,
      "chip": "ym2612"
    },
    {
      "channel": 2,
      "note": 63,
      "start": 13.8717,
      "duration": 0.2228,
      "velocity": 121,
      "chip": "ym2612"
    },
    {
      "channel": 3,
      "note": 53,
      "start": 13.8722,
      "duration": 0.0737,
      "velocity": 111,
      "chip": "ym2612"
    },
    {
      "channel": 0,
      "note": 79,
      "start": 13.9454,
      "duration": 0.0743,
      "velocity": 108,
      "chip": "ym2612"
    },
    {
      "channel": 3,
      "note": 65,
      "start": 13.946,
      "duration": 0.149,
      "velocity": 111,
      "chip": "ym2612"
    },
    {
      "channel": 0,
      "note": 79,
      "start": 14.0199,
      "duration": 0.0722,
      "velocity": 108,
      "chip": "ym2612"
    },
    {
      "channel": 0,
      "note": 79,
      "start": 14.0922,
      "duration": 0.0744,
      "velocity": 108,
      "chip": "ym2612"
    },
    {
      "channel": 1,
      "note": 89,
      "start": 14.0941,
      "duration": 0.073,
      "velocity": 47,
      "chip": "ym2612"
    },
    {
      "channel": 2,
      "note": 62,
      "start": 14.0946,
      "duration": 0.073,
      "velocity": 121,
      "chip": "ym2612"
    },
    {
      "channel": 3,
      "note": 53,
      "start": 14.0952,
      "duration": 0.073,
      "velocity": 111,
      "chip": "ym2612"
    },
    {
      "channel": 4,
      "note": 73,
      "start": 14.0957,
      "duration": 0.2963,
      "velocity": 113,
      "chip": "ym2612"
    },
    {
      "channel": 0,
      "note": 79,
      "start": 14.1668,
      "duration": 0.0741,
      "velocity": 108,
      "chip": "ym2612"
    },
    {
      "channel": 1,
      "note": 84,
      "start": 14.1673,
      "duration": 0.0741,
      "velocity": 47,
      "chip": "ym2612"
    },
    {
      "channel": 2,
      "note": 58,
      "start": 14.1678,
      "duration": 0.0741,
      "velocity": 121,
      "chip": "ym2612"
    },
    {
      "channel": 3,
      "note": 65,
      "start": 14.1684,
      "duration": 0.074,
      "velocity": 111,
      "chip": "ym2612"
    },
    {
      "channel": 0,
      "note": 79,
      "start": 14.2411,
      "duration": 0.0743,
      "velocity": 108,
      "chip": "ym2612"
    },
    {
      "channel": 1,
      "note": 90,
      "start": 14.2416,
      "duration": 0.0743,
      "velocity": 47,
      "chip": "ym2612"
    },
    {
      "channel": 2,
      "note": 53,
      "start": 14.2421,
      "duration": 0.0744,
      "velocity": 121,
      "chip": "ym2612"
    },
    {
      "channel": 3,
      "note": 49,
      "start": 14.2426,
      "duration": 0.1488,
      "velocity": 111,
      "chip": "ym2612"
    },
    {
      "channel": 0,
      "note": 79,
      "start": 14.3156,
      "duration": 0.0743,
      "velocity": 108,
      "chip": "ym2612"
    },
    {
      "channel": 1,
      "note": 85,
      "start": 14.3161,
      "duration": 0.0743,
      "velocity": 47,
      "chip": "ym2612"
    },
    {
      "channel": 2,
      "note": 60,
      "start": 14.3166,
      "duration": 0.0743,
      "velocity": 121,
      "chip": "ym2612"
    },
    {
      "channel": 0,
      "note": 79,
      "start": 14.3901,
      "duration": 0.076,
      "velocity": 108,
      "chip": "ym2612"
    },
    {
      "channel": 1,
      "note": 91,
      "start": 14.3906,
      "duration": 0.076,
      "velocity": 47,
      "chip": "ym2612"
    },
    {
      "channel": 2,
      "note": 65,
      "start": 14.3911,
      "duration": 0.076,
      "velocity": 121,
      "chip": "ym2612"
    },
    {
      "channel": 3,
      "note": 49,
      "start": 14.3916,
      "duration": 0.076,
      "velocity": 111,
      "chip": "ym2612"
    },
    {
      "channel": 4,
      "note": 70,
      "start": 14.3921,
      "duration": 0.2971,
      "velocity": 113,
      "chip": "ym2612"
    },
    {
      "channel": 0,
      "note": 79,
      "start": 14.4662,
      "duration": 0.0741,
      "velocity": 108,
      "chip": "ym2612"
    },
    {
      "channel": 1,
      "note": 87,
      "start": 14.4667,
      "duration": 0.0741,
      "velocity": 47,
      "chip": "ym2612"
    },
    {
      "channel": 2,
      "note": 63,
      "start": 14.4672,
      "duration": 0.0741,
      "velocity": 121,
      "chip": "ym2612"
    },
    {
      "channel": 3,
      "note": 49,
      "start": 14.4677,
      "duration": 0.0741,
      "velocity": 111,
      "chip": "ym2612"
    },
    {
      "channel": 0,
      "note": 79,
      "start": 14.5405,
      "duration": 0.0741,
      "velocity": 108,
      "chip": "ym2612"
    },
    {
      "channel": 1,
      "note": 94,
      "start": 14.541,
      "duration": 0.0741,
      "velocity": 47,
      "chip": "ym2612"
    },
    {
      "channel": 2,
      "note": 59,
      "start": 14.5415,
      "duration": 0.0741,
      "velocity": 121,
      "chip": "ym2612"
    },
    {
      "channel": 3,
      "note": 61,
      "start": 14.542,
      "duration": 0.1468,
      "velocity": 111,
      "chip": "ym2612"
    },
    {
      "channel": 0,
      "note": 79,
      "start": 14.6147,
      "duration": 0.0725,
      "velocity": 108,
      "chip": "ym2612"
    },
    {
      "channel": 1,
      "note": 91,
      "start": 14.6152,
      "duration": 0.0725,
      "velocity": 47,
      "chip": "ym2612"
    },
    {
      "channel": 2,
      "note": 62,
      "start": 14.6157,
      "duration": 0.0726,
      "velocity": 121,
      "chip": "ym2612"
    },
    {
      "channel": 0,
      "note": 79,
      "start": 14.6874,
      "duration": 0.0765,
      "velocity": 108,
      "chip": "ym2612"
    },
    {
      "channel": 1,
      "note": 96,
      "start": 14.6879,
      "duration": 0.0765,
      "velocity": 47,
      "chip": "ym2612"
    },
    {
      "channel": 2,
      "note": 58,
      "start": 14.6884,
      "duration": 0.0765,
      "velocity": 121,
      "chip": "ym2612"
    },
    {
      "channel": 3,
      "note": 49,
      "start": 14.689,
      "duration": 0.0765,
      "velocity": 111,
      "chip": "ym2612"
    },
    {
      "channel": 4,
      "note": 69,
      "start": 14.6895,
      "duration": 0.1493,
      "velocity": 113,
      "chip": "ym2612"
    },
    {
      "channel": 0,
      "note": 79,
      "start": 14.7641,
      "duration": 0.0724,
      "velocity": 108,
      "chip": "ym2612"
    },
    {
      "channel": 1,
      "note": 94,
      "start": 14.7645,
      "duration": 0.0726,
      "velocity": 47,
      "chip": "ym2612"
    },
    {
      "channel": 2,
      "note": 61,
      "start": 14.765,
      "duration": 0.0726,
      "velocity": 121,
      "chip": "ym2612"
    },
    {
      "channel": 3,
      "note": 61,
      "start": 14.7656,
      "duration": 0.0726,
      "velocity": 111,
      "chip": "ym2612"
    },
    {
      "channel": 0,
      "note": 79,
      "start": 14.8367,
      "duration": 0.0723,
      "velocity": 108,
      "chip": "ym2612"
    },
    {
      "channel": 1,
      "note": 100,
      "start": 14.8373,
      "duration": 0.8994,
      "velocity": 113,
      "chip": "ym2612"
    },
    {
      "channel": 2,
      "note": 50,
      "start": 14.8378,
      "duration": 0.0718,
      "velocity": 121,
      "chip": "ym2612"
    },
    {
      "channel": 3,
      "note": 52,
      "start": 14.8384,
      "duration": 0.1465,
      "velocity": 111,
      "chip": "ym2612"
    },
    {
      "channel": 4,
      "note": 76,
      "start": 14.8389,
      "duration": 0.1465,
      "velocity": 113,
      "chip": "ym2612"
    },
    {
      "channel": 0,
      "note": 79,
      "start": 14.9091,
      "duration": 0.0746,
      "velocity": 108,
      "chip": "ym2612"
    },
    {
      "channel": 2,
      "note": 52,
      "start": 14.9097,
      "duration": 0.0746,
      "velocity": 121,
      "chip": "ym2612"
    },
    {
      "channel": 0,
      "note": 79,
      "start": 14.984,
      "duration": 0.0831,
      "velocity": 108,
      "chip": "ym2612"
    },
    {
      "channel": 2,
      "note": 62,
      "start": 14.9845,
      "duration": 0.0831,
      "velocity": 121,
      "chip": "ym2612"
    },
    {
      "channel": 3,
      "note": 52,
      "start": 14.985,
      "duration": 0.0832,
      "velocity": 111,
      "chip": "ym2612"
    },
    {
      "channel": 4,
      "note": 76,
      "start": 14.9856,
      "duration": 0.7523,
      "velocity": 113,
      "chip": "ym2612"
    },
    {
      "channel": 5,
      "note": 31,
      "start": 14.9861,
      "duration": 6.5125,
      "velocity": 1,
      "chip": "ym2612"
    },
    {
      "channel": 0,
      "note": 79,
      "start": 15.0673,
      "duration": 0.0745,
      "velocity": 108,
      "chip": "ym2612"
    },
    {
      "channel": 2,
      "note": 64,
      "start": 15.0678,
      "duration": 0.221,
      "velocity": 121,
      "chip": "ym2612"
    },
    {
      "channel": 3,
      "note": 52,
      "start": 15.0683,
      "duration": 0.0741,
      "velocity": 111,
      "chip": "ym2612"
    },
    {
      "channel": 0,
      "note": 79,
      "start": 15.142,
      "duration": 0.0739,
      "velocity": 108,
      "chip": "ym2612"
    },
    {
      "channel": 3,
      "note": 64,
      "start": 15.1426,
      "duration": 0.1467,
      "velocity": 111,
      "chip": "ym2612"
    },
    {
      "channel": 0,
      "note": 79,
      "start": 15.2161,
      "duration": 0.0722,
      "velocity": 108,
      "chip": "ym2612"
    },
    {
      "channel": 0,
      "note": 79,
      "start": 15.2885,
      "duration": 0.0742,
      "velocity": 108,
      "chip": "ym2612"
    },
    {
      "channel": 2,
      "note": 62,
      "start": 15.289,
      "duration": 0.0742,
      "velocity": 121,
      "chip": "ym2612"
    },
    {
      "channel": 3,
      "note": 52,
      "start": 15.2895,
      "duration": 0.0742,
      "velocity": 111,
      "chip": "ym2612"
    },
    {
      "channel": 0,
      "note": 79,
      "start": 15.3628,
      "duration": 0.0729,
      "velocity": 108,
      "chip": "ym2612"
    },
    {
      "channel": 2,
      "note": 59,
      "start": 15.3634,
      "duration": 0.0729,
      "velocity": 121,
      "chip": "ym2612"
    },
    {
      "channel": 3,
      "note": 64,
      "start": 15.3639,
      "duration": 0.0729,
      "velocity": 111,
      "chip": "ym2612"
    },
    {
      "channel": 0,
      "note": 79,
      "start": 15.4359,
      "duration": 0.0743,
      "velocity": 108,
      "chip": "ym2612"
    },
    {
      "channel": 2,
      "note": 50,
      "start": 15.4364,
      "duration": 0.0743,
      "velocity": 121,
      "chip": "ym2612"
    },
    {
      "channel": 3,
      "note": 52,
      "start": 15.4369,
      "duration": 0.1466,
      "velocity": 111,
      "chip": "ym2612"
    },
    {
      "channel": 0,
      "note": 79,
      "start": 15.5103,
      "duration": 0.0721,
      "velocity": 108,
      "chip": "ym2612"
    },
    {
      "channel": 2,
      "note": 52,
      "start": 15.5109,
      "duration": 0.0721,
      "velocity": 121,
      "chip": "ym2612"
    },
    {
      "channel": 0,
      "note": 79,
      "start": 15.5826,
      "duration": 0.0778,
      "velocity": 108,
      "chip": "ym2612"
    },
    {
      "channel": 2,
      "note": 62,
      "start": 15.5832,
      "duration": 0.0778,
      "velocity": 121,
      "chip": "ym2612"
    },
    {
      "channel": 3,
      "note": 52,
      "start": 15.5837,
      "duration": 0.0778,
      "velocity": 111,
      "chip": "ym2612"
    },
    {
      "channel": 0,
      "note": 79,
      "start": 15.6606,
      "duration": 0.0743,
      "velocity": 108,
      "chip": "ym2612"
    },
    {
      "channel": 2,
      "note": 64,
      "start": 15.6611,
      "duration": 0.2232,
      "velocity": 121,
      "chip": "ym2612"
    },
    {
      "channel": 3,
      "note": 52,
      "start": 15.6616,
      "duration": 0.0757,
      "velocity": 111,
      "chip": "ym2612"
    },
    {
      "channel": 0,
      "note": 79,
      "start": 15.735,
      "duration": 0.0742,
      "velocity": 108,
      "chip": "ym2612"
    },
    {
      "channel": 1,
      "note": 72,
      "start": 15.7369,
      "duration": 0.1469,
      "velocity": 113,
      "chip": "ym2612"
    },
    {
      "channel": 3,
      "note": 64,
      "start": 15.7375,
      "duration": 0.1473,
      "velocity": 111,
      "chip": "ym2612"
    },
    {
      "channel": 4,
      "note": 77,
      "start": 15.738,
      "duration": 0.1474,
      "velocity": 113,
      "chip": "ym2612"
    },
    {
      "channel": 0,
      "note": 79,
      "start": 15.8094,
      "duration": 0.0739,
      "velocity": 108,
      "chip": "ym2612"
    },
    {
      "channel": 0,
      "note": 79,
      "start": 15.8835,
      "duration": 0.0749,
      "velocity": 108,
      "chip": "ym2612"
    },
    {
      "channel": 1,
      "note": 72,
      "start": 15.884,
      "duration": 0.5952,
      "velocity": 113,
      "chip": "ym2612"
    },
    {
      "channel": 2,
      "note": 62,
      "start": 15.8845,
      "duration": 0.0744,
      "velocity": 121,
      "chip": "ym2612"
    },
    {
      "channel": 3,
      "note": 52,
      "start": 15.885,
      "duration": 0.0744,
      "velocity": 111,
      "chip": "ym2612"
    },
    {
      "channel": 4,
      "note": 77,
      "start": 15.8855,
      "duration": 0.5952,
      "velocity": 113,
      "chip": "ym2612"
    },
    {
      "channel": 0,
      "note": 79,
      "start": 15.9585,
      "duration": 0.0743,
      "velocity": 108,
      "chip": "ym2612"
    },
    {
      "channel": 2,
      "note": 59,
      "start": 15.9591,
      "duration": 0.0743,
      "velocity": 121,
      "chip": "ym2612"
    },
    {
      "channel": 3,
      "note": 64,
      "start": 15.9596,
      "duration": 0.0743,
      "velocity": 111,
      "chip": "ym2612"
    },
    {
      "channel": 0,
      "note": 79,
      "start": 16.033,
      "duration": 0.0742,
      "velocity": 108,
      "chip": "ym2612"
    },
    {
      "channel": 2,
      "note": 53,
      "start": 16.0336,
      "duration": 0.0742,
      "velocity": 121,
      "chip": "ym2612"
    },
    {
      "channel": 3,
      "note": 53,
      "start": 16.0341,
      "duration": 0.1465,
      "velocity": 111,
      "chip": "ym2612"
    },
    {
      "channel": 0,
      "note": 79,
      "start": 16.1074,
      "duration": 0.0722,
      "velocity": 108,
      "chip": "ym2612"
    },
    {
      "channel": 2,
      "note": 60,
      "start": 16.1079,
      "duration": 0.0721,
      "velocity": 121,
      "chip": "ym2612"
    },
    {
      "channel": 0,
      "note": 79,
      "start": 16.1797,
      "duration": 0.0756,
      "velocity": 108,
      "chip": "ym2612"
    },
    {
      "channel": 2,
      "note": 63,
      "start": 16.1802,
      "duration": 0.0756,
      "velocity": 121,
      "chip": "ym2612"
    },
    {
      "channel": 3,
      "note": 53,
      "start": 16.1807,
      "duration": 0.0756,
      "velocity": 111,
      "chip": "ym2612"
    },
    {
      "channel": 0,
      "note": 79,
      "start": 16.2554,
      "duration": 0.0742,
      "velocity": 108,
      "chip": "ym2612"
    },
    {
      "channel": 2,
      "note": 65,
      "start": 16.256,
      "duration": 0.2237,
      "velocity": 121,
      "chip": "ym2612"
    },
    {
      "channel": 3,
      "note": 53,
      "start": 16.2565,
      "duration": 0.0737,
      "velocity": 111,
      "chip": "ym2612"
    },
    {
      "channel": 0,
      "note": 79,
      "start": 16.3298,
      "duration": 0.0743,
      "velocity": 108,
      "chip": "ym2612"
    },
    {
      "channel": 3,
      "note": 65,
      "start": 16.3304,
      "duration": 0.1497,
      "velocity": 111,
      "chip": "ym2612"
    },
    {
      "channel": 0,
      "note": 79,
      "start": 16.4043,
      "duration": 0.0743,
      "velocity": 108,
      "chip": "ym2612"
    },
    {
      "channel": 0,
      "note": 79,
      "start": 16.4788,
      "duration": 0.0741,
      "velocity": 108,
      "chip": "ym2612"
    },
    {
      "channel": 1,
      "note": 74,
      "start": 16.4793,
      "duration": 0.2936,
      "velocity": 113,
      "chip": "ym2612"
    },
    {
      "channel": 2,
      "note": 63,
      "start": 16.4798,
      "duration": 0.0736,
      "velocity": 121,
      "chip": "ym2612"
    },
    {
      "channel": 3,
      "note": 53,
      "start": 16.4804,
      "duration": 0.0737,
      "velocity": 111,
      "chip": "ym2612"
    },
    {
      "channel": 4,
      "note": 81,
      "start": 16.4809,
      "duration": 0.2937,
      "velocity": 113,
      "chip": "ym2612"
    },
    {
      "channel": 0,
      "note": 79,
      "start": 16.5531,
      "duration": 0.0724,
      "velocity": 108,
      "chip": "ym2612"
    },
    {
      "channel": 2,
      "note": 60,
      "start": 16.5537,
      "duration": 0.0724,
      "velocity": 121,
      "chip": "ym2612"
    },
    {
      "channel": 3,
      "note": 65,
      "start": 16.5541,
      "duration": 0.0724,
      "velocity": 111,
      "chip": "ym2612"
    },
    {
      "channel": 0,
      "note": 79,
      "start": 16.6256,
      "duration": 0.0742,
      "velocity": 108,
      "chip": "ym2612"
    },
    {
      "channel": 2,
      "note": 53,
      "start": 16.6262,
      "duration": 0.0742,
      "velocity": 121,
      "chip": "ym2612"
    },
    {
      "channel": 3,
      "note": 53,
      "start": 16.6267,
      "duration": 0.1473,
      "velocity": 111,
      "chip": "ym2612"
    },
    {
      "channel": 0,
      "note": 79,
      "start": 16.7001,
      "duration": 0.0724,
      "velocity": 108,
      "chip": "ym2612"
    },
    {
      "channel": 2,
      "note": 60,
      "start": 16.7007,
      "duration": 0.0728,
      "velocity": 121,
      "chip": "ym2612"
    },
    {
      "channel": 0,
      "note": 79,
      "start": 16.7727,
      "duration": 0.0759,
      "velocity": 108,
      "chip": "ym2612"
    },
    {
      "channel": 1,
      "note": 69,
      "start": 16.7732,
      "duration": 0.3031,
      "velocity": 113,
      "chip": "ym2612"
    },
    {
      "channel": 2,
      "note": 63,
      "start": 16.7737,
      "duration": 0.0753,
      "velocity": 121,
      "chip": "ym2612"
    },
    {
      "channel": 3,
      "note": 53,
      "start": 16.7742,
      "duration": 0.0753,
      "velocity": 111,
      "chip": "ym2612"
    },
    {
      "channel": 4,
      "note": 77,
      "start": 16.7747,
      "duration": 0.3031,
      "velocity": 113,
      "chip": "ym2612"
    },
    {
      "channel": 0,
      "note": 79,
      "start": 16.8486,
      "duration": 0.0762,
      "velocity": 108,
      "chip": "ym2612"
    },
    {
      "channel": 2,
      "note": 65,
      "start": 16.8492,
      "duration": 0.0762,
      "velocity": 121,
      "chip": "ym2612"
    },
    {
      "channel": 3,
      "note": 53,
      "start": 16.8497,
      "duration": 0.0762,
      "velocity": 111,
      "chip": "ym2612"
    },
    {
      "channel": 0,
      "note": 79,
      "start": 16.925,
      "duration": 0.0741,
      "velocity": 108,
      "chip": "ym2612"
    },
    {
      "channel": 2,
      "note": 60,
      "start": 16.9256,
      "duration": 0.0741,
      "velocity": 121,
      "chip": "ym2612"
    },
    {
      "channel": 3,
      "note": 65,
      "start": 16.9261,
      "duration": 0.1512,
      "velocity": 111,
      "chip": "ym2612"
    },
    {
      "channel": 0,
      "note": 79,
      "start": 16.9994,
      "duration": 0.0764,
      "velocity": 108,
      "chip": "ym2612"
    },
    {
      "channel": 2,
      "note": 63,
      "start": 16.9999,
      "duration": 0.0768,
      "velocity": 121,
      "chip": "ym2612"
    },
    {
      "channel": 0,
      "note": 79,
      "start": 17.0759,
      "duration": 0.0749,
      "velocity": 108,
      "chip": "ym2612"
    },
    {
      "channel": 1,
      "note": 70,
      "start": 17.0764,
      "duration": 0.1495,
      "velocity": 113,
      "chip": "ym2612"
    },
    {
      "channel": 2,
      "note": 58,
      "start": 17.0769,
      "duration": 0.0744,
      "velocity": 121,
      "chip": "ym2612"
    },
    {
      "channel": 3,
      "note": 53,
      "start": 17.0774,
      "duration": 0.0744,
      "velocity": 111,
      "chip": "ym2612"
    },
    {
      "channel": 4,
      "note": 74,
      "start": 17.0779,
      "duration": 0.1495,
      "velocity": 113,
      "chip": "ym2612"
    },
    {
      "channel": 0,
      "note": 79,
      "start": 17.1509,
      "duration": 0.0745,
      "velocity": 108,
      "chip": "ym2612"
    },
    {
      "channel": 2,
      "note": 60,
      "start": 17.1515,
      "duration": 0.0749,
      "velocity": 121,
      "chip": "ym2612"
    },
    {
      "channel": 3,
      "note": 65,
      "start": 17.152,
      "duration": 0.0749,
      "velocity": 111,
      "chip": "ym2612"
    },
    {
      "channel": 0,
      "note": 79,
      "start": 17.2255,
      "duration": 0.0726,
      "velocity": 108,
      "chip": "ym2612"
    },
    {
      "channel": 1,
      "note": 71,
      "start": 17.226,
      "duration": 0.1452,
      "velocity": 113,
      "chip": "ym2612"
    },
    {
      "channel": 2,
      "note": 50,
      "start": 17.2265,
      "duration": 0.0721,
      "velocity": 121,
      "chip": "ym2612"
    },
    {
      "channel": 3,
      "note": 52,
      "start": 17.2271,
      "duration": 0.1452,
      "velocity": 111,
      "chip": "ym2612"
    },
    {
      "channel": 4,
      "note": 76,
      "start": 17.2276,
      "duration": 0.1452,
      "velocity": 113,
      "chip": "ym2612"
    },
    {
      "channel": 0,
      "note": 79,
      "start": 17.2983,
      "duration": 0.0724,
      "velocity": 108,
      "chip": "ym2612"
    },
    {
      "channel": 2,
      "note": 52,
      "start": 17.2989,
      "duration": 0.0729,
      "velocity": 121,
      "chip": "ym2612"
    },
    {
      "channel": 0,
      "note": 79,
      "start": 17.3709,
      "duration": 0.0735,
      "velocity": 108,
      "chip": "ym2612"
    },
    {
      "channel": 1,
      "note": 71,
      "start": 17.3714,
      "duration": 0.7418,
      "velocity": 113,
      "chip": "ym2612"
    },
    {
      "channel": 2,
      "note": 62,
      "start": 17.3719,
      "duration": 0.073,
      "velocity": 121,
      "chip": "ym2612"
    },
    {
      "channel": 3,
      "note": 52,
      "start": 17.3724,
      "duration": 0.0731,
      "velocity": 111,
      "chip": "ym2612"
    },
    {
      "channel": 4,
      "note": 76,
      "start": 17.3729,
      "duration": 0.7414,
      "velocity": 113,
      "chip": "ym2612"
    },
    {
      "channel": 0,
      "note": 79,
      "start": 17.4446,
      "duration": 0.0741,
      "velocity": 108,
      "chip": "ym2612"
    },
    {
      "channel": 2,
      "note": 64,
      "start": 17.4451,
      "duration": 0.2205,
      "velocity": 121,
      "chip": "ym2612"
    },
    {
      "channel": 3,
      "note": 52,
      "start": 17.4456,
      "duration": 0.0736,
      "velocity": 111,
      "chip": "ym2612"
    },
    {
      "channel": 0,
      "note": 79,
      "start": 17.5188,
      "duration": 0.072,
      "velocity": 108,
      "chip": "ym2612"
    },
    {
      "channel": 3,
      "note": 64,
      "start": 17.5194,
      "duration": 0.1467,
      "velocity": 111,
      "chip": "ym2612"
    },
    {
      "channel": 0,
      "note": 79,
      "start": 17.591,
      "duration": 0.0741,
      "velocity": 108,
      "chip": "ym2612"
    },
    {
      "channel": 0,
      "note": 79,
      "start": 17.6652,
      "duration": 0.0741,
      "velocity": 108,
      "chip": "ym2612"
    },
    {
      "channel": 2,
      "note": 62,
      "start": 17.6658,
      "duration": 0.0741,
      "velocity": 121,
      "chip": "ym2612"
    },
    {
      "channel": 3,
      "note": 52,
      "start": 17.6663,
      "duration": 0.0741,
      "velocity": 111,
      "chip": "ym2612"
    },
    {
      "channel": 0,
      "note": 79,
      "start": 17.7395,
      "duration": 0.0724,
      "velocity": 108,
      "chip": "ym2612"
    },
    {
      "channel": 2,
      "note": 59,
      "start": 17.74,
      "duration": 0.0724,
      "velocity": 121,
      "chip": "ym2612"
    },
    {
      "channel": 3,
      "note": 64,
      "start": 17.7405,
      "duration": 0.0724,
      "velocity": 111,
      "chip": "ym2612"
    },
    {
      "channel": 0,
      "note": 79,
      "start": 17.8121,
      "duration": 0.0741,
      "velocity": 108,
      "chip": "ym2612"
    },
    {
      "channel": 2,
      "note": 50,
      "start": 17.8127,
      "duration": 0.0741,
      "velocity": 121,
      "chip": "ym2612"
    },
    {
      "channel": 3,
      "note": 52,
      "start": 17.8132,
      "duration": 0.1485,
      "velocity": 111,
      "chip": "ym2612"
    },
    {
      "channel": 0,
      "note": 79,
      "start": 17.8864,
      "duration": 0.0741,
      "velocity": 108,
      "chip": "ym2612"
    },
    {
      "channel": 2,
      "note": 52,
      "start": 17.8869,
      "duration": 0.0742,
      "velocity": 121,
      "chip": "ym2612"
    },
    {
      "channel": 0,
      "note": 79,
      "start": 17.9608,
      "duration": 0.0775,
      "velocity": 108,
      "chip": "ym2612"
    },
    {
      "channel": 2,
      "note": 62,
      "start": 17.9613,
      "duration": 0.0775,
      "velocity": 121,
      "chip": "ym2612"
    },
    {
      "channel": 3,
      "note": 52,
      "start": 17.9618,
      "duration": 0.0775,
      "velocity": 111,
      "chip": "ym2612"
    },
    {
      "channel": 0,
      "note": 79,
      "start": 18.0384,
      "duration": 0.0743,
      "velocity": 108,
      "chip": "ym2612"
    },
    {
      "channel": 2,
      "note": 64,
      "start": 18.039,
      "duration": 0.2215,
      "velocity": 121,
      "chip": "ym2612"
    },
    {
      "channel": 3,
      "note": 52,
      "start": 18.0395,
      "duration": 0.0743,
      "velocity": 111,
      "chip": "ym2612"
    },
    {
      "channel": 0,
      "note": 79,
      "start": 18.1129,
      "duration": 0.0743,
      "velocity": 108,
      "chip": "ym2612"
    },
    {
      "channel": 1,
      "note": 74,
      "start": 18.1134,
      "duration": 0.1466,
      "velocity": 113,
      "chip": "ym2612"
    },
    {
      "channel": 3,
      "note": 64,
      "start": 18.114,
      "duration": 0.147,
      "velocity": 111,
      "chip": "ym2612"
    },
    {
      "channel": 4,
      "note": 79,
      "start": 18.1145,
      "duration": 0.147,
      "velocity": 113,
      "chip": "ym2612"
    },
    {
      "channel": 0,
      "note": 79,
      "start": 18.1874,
      "duration": 0.0721,
      "velocity": 108,
      "chip": "ym2612"
    },
    {
      "channel": 0,
      "note": 79,
      "start": 18.2596,
      "duration": 0.0749,
      "velocity": 108,
      "chip": "ym2612"
    },
    {
      "channel": 1,
      "note": 74,
      "start": 18.2601,
      "duration": 0.1509,
      "velocity": 121,
      "chip": "ym2612"
    },
    {
      "channel": 2,
      "note": 62,
      "start": 18.2606,
      "duration": 0.0744,
      "velocity": 121,
      "chip": "ym2612"
    },
    {
      "channel": 3,
      "note": 52,
      "start": 18.2611,
      "duration": 0.0744,
      "velocity": 111,
      "chip": "ym2612"
    },
    {
      "channel": 4,
      "note": 79,
      "start": 18.2616,
      "duration": 0.5834,
      "velocity": 113,
      "chip": "ym2612"
    },
    {
      "channel": 0,
      "note": 79,
      "start": 18.3346,
      "duration": 0.0744,
      "velocity": 108,
      "chip": "ym2612"
    },
    {
      "channel": 2,
      "note": 59,
      "start": 18.3352,
      "duration": 0.0763,
      "velocity": 121,
      "chip": "ym2612"
    },
    {
      "channel": 3,
      "note": 64,
      "start": 18.3357,
      "duration": 0.0763,
      "velocity": 111,
      "chip": "ym2612"
    },
    {
      "channel": 0,
      "note": 79,
      "start": 18.4092,
      "duration": 0.0727,
      "velocity": 108,
      "chip": "ym2612"
    },
    {
      "channel": 1,
      "note": 79,
      "start": 18.4112,
      "duration": 0.0015,
      "velocity": 121,
      "chip": "ym2612"
    },
    {
      "channel": 2,
      "note": 55,
      "start": 18.4117,
      "duration": 0.0713,
      "velocity": 121,
      "chip": "ym2612"
    },
    {
      "channel": 3,
      "note": 55,
      "start": 18.4122,
      "duration": 0.1434,
      "velocity": 111,
      "chip": "ym2612"
    },
    {
      "channel": 1,
      "note": 79,
      "start": 18.4127,
      "duration": 0.0104,
      "velocity": 121,
      "chip": "ym2612"
    },
    {
      "channel": 1,
      "note": 78,
      "start": 18.4231,
      "duration": 0.0157,
      "velocity": 121,
      "chip": "ym2612"
    },
    {
      "channel": 1,
      "note": 78,
      "start": 18.4388,
      "duration": 0.0136,
      "velocity": 121,
      "chip": "ym2612"
    },
    {
      "channel": 1,
      "note": 77,
      "start": 18.4523,
      "duration": 0.0136,
      "velocity": 121,
      "chip": "ym2612"
    },
    {
      "channel": 1,
      "note": 77,
      "start": 18.4659,
      "duration": 0.0166,
      "velocity": 121,
      "chip": "ym2612"
    },
    {
      "channel": 0,
      "note": 79,
      "start": 18.4821,
      "duration": 0.072,
      "velocity": 108,
      "chip": "ym2612"
    },
    {
      "channel": 1,
      "note": 79,
      "start": 18.4827,
      "duration": 0.001,
      "velocity": 121,
      "chip": "ym2612"
    },
    {
      "channel": 2,
      "note": 62,
      "start": 18.4832,
      "duration": 0.0719,
      "velocity": 121,
      "chip": "ym2612"
    },
    {
      "channel": 1,
      "note": 79,
      "start": 18.4836,
      "duration": 0.0137,
      "velocity": 121,
      "chip": "ym2612"
    },
    {
      "channel": 1,
      "note": 78,
      "start": 18.4973,
      "duration": 0.0136,
      "velocity": 121,
      "chip": "ym2612"
    },
    {
      "channel": 1,
      "note": 78,
      "start": 18.5109,
      "duration": 0.0136,
      "velocity": 121,
      "chip": "ym2612"
    },
    {
      "channel": 1,
      "note": 77,
      "start": 18.5244,
      "duration": 0.0156,
      "velocity": 121,
      "chip": "ym2612"
    },
    {
      "channel": 1,
      "note": 77,
      "start": 18.54,
      "duration": 0.0145,
      "velocity": 121,
      "chip": "ym2612"
    },
    {
      "channel": 0,
      "note": 79,
      "start": 18.5542,
      "duration": 0.0772,
      "velocity": 108,
      "chip": "ym2612"
    },
    {
      "channel": 1,
      "note": 79,
      "start": 18.5548,
      "duration": 0.0014,
      "velocity": 121,
      "chip": "ym2612"
    },
    {
      "channel": 2,
      "note": 67,
      "start": 18.5553,
      "duration": 0.0772,
      "velocity": 121,
      "chip": "ym2612"
    },
    {
      "channel": 3,
      "note": 55,
      "start": 18.5558,
      "duration": 0.0772,
      "velocity": 111,
      "chip": "ym2612"
    },
    {
      "channel": 1,
      "note": 79,
      "start": 18.5562,
      "duration": 0.0133,
      "velocity": 121,
      "chip": "ym2612"
    },
    {
      "channel": 1,
      "note": 78,
      "start": 18.5695,
      "duration": 0.0156,
      "velocity": 121,
      "chip": "ym2612"
    },
    {
      "channel": 1,
      "note": 78,
      "start": 18.5851,
      "duration": 0.0136,
      "velocity": 121,
      "chip": "ym2612"
    },
    {
      "channel": 1,
      "note": 77,
      "start": 18.5987,
      "duration": 0.0157,
      "velocity": 121,
      "chip": "ym2612"
    },
    {
      "channel": 1,
      "note": 77,
      "start": 18.6144,
      "duration": 0.0175,
      "velocity": 121,
      "chip": "ym2612"
    },
    {
      "channel": 0,
      "note": 79,
      "start": 18.6316,
      "duration": 0.0722,
      "velocity": 108,
      "chip": "ym2612"
    },
    {
      "channel": 1,
      "note": 76,
      "start": 18.6321,
      "duration": 0.0016,
      "velocity": 121,
      "chip": "ym2612"
    },
    {
      "channel": 2,
      "note": 65,
      "start": 18.6326,
      "duration": 0.2114,
      "velocity": 121,
      "chip": "ym2612"
    },
    {
      "channel": 3,
      "note": 55,
      "start": 18.6331,
      "duration": 0.0717,
      "velocity": 111,
      "chip": "ym2612"
    },
    {
      "channel": 1,
      "note": 76,
      "start": 18.6337,
      "duration": 0.0132,
      "velocity": 121,
      "chip": "ym2612"
    },
    {
      "channel": 1,
      "note": 75,
      "start": 18.6469,
      "duration": 0.0136,
      "velocity": 121,
      "chip": "ym2612"
    },
    {
      "channel": 1,
      "note": 74,
      "start": 18.6605,
      "duration": 0.0157,
      "velocity": 121,
      "chip": "ym2612"
    },
    {
      "channel": 1,
      "note": 74,
      "start": 18.6762,
      "duration": 0.0136,
      "velocity": 121,
      "chip": "ym2612"
    },
    {
      "channel": 1,
      "note": 73,
      "start": 18.6897,
      "duration": 0.0145,
      "velocity": 121,
      "chip": "ym2612"
    },
    {
      "channel": 0,
      "note": 79,
      "start": 18.7039,
      "duration": 0.0687,
      "velocity": 108,
      "chip": "ym2612"
    },
    {
      "channel": 1,
      "note": 76,
      "start": 18.7044,
      "duration": 0.0011,
      "velocity": 121,
      "chip": "ym2612"
    },
    {
      "channel": 3,
      "note": 67,
      "start": 18.705,
      "duration": 0.1395,
      "velocity": 111,
      "chip": "ym2612"
    },
    {
      "channel": 1,
      "note": 76,
      "start": 18.7056,
      "duration": 0.0121,
      "velocity": 121,
      "chip": "ym2612"
    },
    {
      "channel": 1,
      "note": 75,
      "start": 18.7176,
      "duration": 0.0137,
      "velocity": 121,
      "chip": "ym2612"
    },
    {
      "channel": 1,
      "note": 74,
      "start": 18.7313,
      "duration": 0.0137,
      "velocity": 121,
      "chip": "ym2612"
    },
    {
      "channel": 1,
      "note": 74,
      "start": 18.7449,
      "duration": 0.0137,
      "velocity": 121,
      "chip": "ym2612"
    },
    {
      "channel": 1,
      "note": 73,
      "start": 18.7586,
      "duration": 0.0146,
      "velocity": 121,
      "chip": "ym2612"
    },
    {
      "channel": 0,
      "note": 79,
      "start": 18.7728,
      "duration": 0.0702,
      "velocity": 108,
      "chip": "ym2612"
    },
    {
      "channel": 1,
      "note": 76,
      "start": 18.7733,
      "duration": 0.0005,
      "velocity": 121,
      "chip": "ym2612"
    },
    {
      "channel": 1,
      "note": 76,
      "start": 18.7738,
      "duration": 0.0123,
      "velocity": 121,
      "chip": "ym2612"
    },
    {
      "channel": 1,
      "note": 75,
      "start": 18.7861,
      "duration": 0.0136,
      "velocity": 121,
      "chip": "ym2612"
    },
    {
      "channel": 1,
      "note": 74,
      "start": 18.7997,
      "duration": 0.0136,
      "velocity": 121,
      "chip": "ym2612"
    },
    {
      "channel": 1,
      "note": 74,
      "start": 18.8132,
      "duration": 0.0136,
      "velocity": 121,
      "chip": "ym2612"
    },
    {
      "channel": 1,
      "note": 73,
      "start": 18.8268,
      "duration": 0.0167,
      "velocity": 121,
      "chip": "ym2612"
    },
    {
      "channel": 0,
      "note": 79,
      "start": 18.8431,
      "duration": 0.0691,
      "velocity": 108,
      "chip": "ym2612"
    },
    {
      "channel": 1,
      "note": 74,
      "start": 18.8437,
      "duration": 0.002,
      "velocity": 121,
      "chip": "ym2612"
    },
    {
      "channel": 2,
      "note": 64,
      "start": 18.8442,
      "duration": 0.069,
      "velocity": 121,
      "chip": "ym2612"
    },
    {
      "channel": 3,
      "note": 55,
      "start": 18.8447,
      "duration": 0.069,
      "velocity": 111,
      "chip": "ym2612"
    },
    {
      "channel": 4,
      "note": 75,
      "start": 18.8452,
      "duration": 0.2834,
      "velocity": 113,
      "chip": "ym2612"
    },
    {
      "channel": 1,
      "note": 73,
      "start": 18.8457,
      "duration": 0.011,
      "velocity": 121,
      "chip": "ym2612"
    },
    {
      "channel": 1,
      "note": 73,
      "start": 18.8567,
      "duration": 0.0137,
      "velocity": 121,
      "chip": "ym2612"
    },
    {
      "channel": 1,
      "note": 72,
      "start": 18.8705,
      "duration": 0.0137,
      "velocity": 121,
      "chip": "ym2612"
    },
    {
      "channel": 1,
      "note": 72,
      "start": 18.8842,
      "duration": 0.0137,
      "velocity": 121,
      "chip": "ym2612"
    },
    {
      "channel": 1,
      "note": 71,
      "start": 18.898,
      "duration": 0.0147,
      "velocity": 121,
      "chip": "ym2612"
    },
    {
      "channel": 0,
      "note": 79,
      "start": 18.9123,
      "duration": 0.0726,
      "velocity": 108,
      "chip": "ym2612"
    },
    {
      "channel": 1,
      "note": 74,
      "start": 18.9129,
      "duration": 0.0014,
      "velocity": 121,
      "chip": "ym2612"
    },
    {
      "channel": 2,
      "note": 60,
      "start": 18.9134,
      "duration": 0.0725,
      "velocity": 121,
      "chip": "ym2612"
    },
    {
      "channel": 3,
      "note": 67,
      "start": 18.9139,
      "duration": 0.0725,
      "velocity": 111,
      "chip": "ym2612"
    },
    {
      "channel": 1,
      "note": 73,
      "start": 18.9143,
      "duration": 0.0132,
      "velocity": 121,
      "chip": "ym2612"
    },
    {
      "channel": 1,
      "note": 73,
      "start": 18.9275,
      "duration": 0.0157,
      "velocity": 121,
      "chip": "ym2612"
    },
    {
      "channel": 1,
      "note": 72,
      "start": 18.9432,
      "duration": 0.0138,
      "velocity": 121,
      "chip": "ym2612"
    },
    {
      "channel": 1,
      "note": 72,
      "start": 18.957,
      "duration": 0.0137,
      "velocity": 121,
      "chip": "ym2612"
    },
    {
      "channel": 1,
      "note": 71,
      "start": 18.9707,
      "duration": 0.0147,
      "velocity": 121,
      "chip": "ym2612"
    },
    {
      "channel": 0,
      "note": 79,
      "start": 18.9851,
      "duration": 0.0689,
      "velocity": 108,
      "chip": "ym2612"
    },
    {
      "channel": 1,
      "note": 74,
      "start": 18.9856,
      "duration": 0.0015,
      "velocity": 121,
      "chip": "ym2612"
    },
    {
      "channel": 2,
      "note": 55,
      "start": 18.9861,
      "duration": 0.0689,
      "velocity": 121,
      "chip": "ym2612"
    },
    {
      "channel": 3,
      "note": 51,
      "start": 18.9866,
      "duration": 0.1414,
      "velocity": 111,
      "chip": "ym2612"
    },
    {
      "channel": 1,
      "note": 73,
      "start": 18.9871,
      "duration": 0.0115,
      "velocity": 121,
      "chip": "ym2612"
    },
    {
      "channel": 1,
      "note": 73,
      "start": 18.9986,
      "duration": 0.0137,
      "velocity": 121,
      "chip": "ym2612"
    },
    {
      "channel": 1,
      "note": 72,
      "start": 19.0124,
      "duration": 0.0137,
      "velocity": 121,
      "chip": "ym2612"
    },
    {
      "channel": 1,
      "note": 72,
      "start": 19.0261,
      "duration": 0.0137,
      "velocity": 121,
      "chip": "ym2612"
    },
    {
      "channel": 1,
      "note": 71,
      "start": 19.0398,
      "duration": 0.0147,
      "velocity": 121,
      "chip": "ym2612"
    },
    {
      "channel": 0,
      "note": 79,
      "start": 19.0541,
      "duration": 0.0724,
      "velocity": 108,
      "chip": "ym2612"
    },
    {
      "channel": 1,
      "note": 72,
      "start": 19.0547,
      "duration": 0.001,
      "velocity": 121,
      "chip": "ym2612"
    },
    {
      "channel": 2,
      "note": 62,
      "start": 19.0552,
      "duration": 0.0723,
      "velocity": 121,
      "chip": "ym2612"
    },
    {
      "channel": 1,
      "note": 71,
      "start": 19.0557,
      "duration": 0.0119,
      "velocity": 121,
      "chip": "ym2612"
    },
    {
      "channel": 1,
      "note": 71,
      "start": 19.0676,
      "duration": 0.0136,
      "velocity": 121,
      "chip": "ym2612"
    },
    {
      "channel": 1,
      "note": 70,
      "start": 19.0811,
      "duration": 0.0156,
      "velocity": 121,
      "chip": "ym2612"
    },
    {
      "channel": 1,
      "note": 69,
      "start": 19.0967,
      "duration": 0.0136,
      "velocity": 121,
      "chip": "ym2612"
    },
    {
      "channel": 1,
      "note": 69,
      "start": 19.1103,
      "duration": 0.0167,
      "velocity": 121,
      "chip": "ym2612"
    },
    {
      "channel": 0,
      "note": 79,
      "start": 19.1267,
      "duration": 0.0751,
      "velocity": 108,
      "chip": "ym2612"
    },
    {
      "channel": 1,
      "note": 72,
      "start": 19.1272,
      "duration": 0.0018,
      "velocity": 121,
      "chip": "ym2612"
    },
    {
      "channel": 2,
      "note": 67,
      "start": 19.1277,
      "duration": 0.075,
      "velocity": 121,
      "chip": "ym2612"
    },
    {
      "channel": 3,
      "note": 51,
      "start": 19.1283,
      "duration": 0.075,
      "velocity": 111,
      "chip": "ym2612"
    },
    {
      "channel": 4,
      "note": 72,
      "start": 19.1288,
      "duration": 0.2902,
      "velocity": 113,
      "chip": "ym2612"
    },
    {
      "channel": 1,
      "note": 71,
      "start": 19.1291,
      "duration": 0.013,
      "velocity": 121,
      "chip": "ym2612"
    },
    {
      "channel": 1,
      "note": 71,
      "start": 19.1421,
      "duration": 0.0158,
      "velocity": 121,
      "chip": "ym2612"
    },
    {
      "channel": 1,
      "note": 70,
      "start": 19.1578,
      "duration": 0.0137,
      "velocity": 121,
      "chip": "ym2612"
    },
    {
      "channel": 1,
      "note": 69,
      "start": 19.1715,
      "duration": 0.0137,
      "velocity": 121,
      "chip": "ym2612"
    },
    {
      "channel": 1,
      "note": 69,
      "start": 19.1851,
      "duration": 0.0171,
      "velocity": 121,
      "chip": "ym2612"
    },
    {
      "channel": 0,
      "note": 79,
      "start": 19.2019,
      "duration": 0.069,
      "velocity": 108,
      "chip": "ym2612"
    },
    {
      "channel": 1,
      "note": 72,
      "start": 19.2024,
      "duration": 0.0015,
      "velocity": 121,
      "chip": "ym2612"
    },
    {
      "channel": 2,
      "note": 65,
      "start": 19.2029,
      "duration": 0.069,
      "velocity": 121,
      "chip": "ym2612"
    },
    {
      "channel": 3,
      "note": 51,
      "start": 19.2034,
      "duration": 0.069,
      "velocity": 111,
      "chip": "ym2612"
    },
    {
      "channel": 1,
      "note": 71,
      "start": 19.2039,
      "duration": 0.0115,
      "velocity": 121,
      "chip": "ym2612"
    },
    {
      "channel": 1,
      "note": 71,
      "start": 19.2155,
      "duration": 0.0137,
      "velocity": 121,
      "chip": "ym2612"
    },
    {
      "channel": 1,
      "note": 70,
      "start": 19.2292,
      "duration": 0.0137,
      "velocity": 121,
      "chip": "ym2612"
    },
    {
      "channel": 1,
      "note": 69,
      "start": 19.243,
      "duration": 0.0137,
      "velocity": 121,
      "chip": "ym2612"
    },
    {
      "channel": 1,
      "note": 69,
      "start": 19.2567,
      "duration": 0.0147,
      "velocity": 121,
      "chip": "ym2612"
    },
    {
      "channel": 0,
      "note": 79,
      "start": 19.271,
      "duration": 0.0693,
      "velocity": 108,
      "chip": "ym2612"
    },
    {
      "channel": 1,
      "note": 71,
      "start": 19.2716,
      "duration": 0.0015,
      "velocity": 121,
      "chip": "ym2612"
    },
    {
      "channel": 2,
      "note": 61,
      "start": 19.2721,
      "duration": 0.0692,
      "velocity": 121,
      "chip": "ym2612"
    },
    {
      "channel": 3,
      "note": 63,
      "start": 19.2726,
      "duration": 0.1458,
      "velocity": 111,
      "chip": "ym2612"
    },
    {
      "channel": 1,
      "note": 70,
      "start": 19.2731,
      "duration": 0.0117,
      "velocity": 121,
      "chip": "ym2612"
    },
    {
      "channel": 1,
      "note": 70,
      "start": 19.2848,
      "duration": 0.0137,
      "velocity": 121,
      "chip": "ym2612"
    },
    {
      "channel": 1,
      "note": 69,
      "start": 19.2985,
      "duration": 0.0137,
      "velocity": 121,
      "chip": "ym2612"
    },
    {
      "channel": 1,
      "note": 68,
      "start": 19.3123,
      "duration": 0.0137,
      "velocity": 121,
      "chip": "ym2612"
    },
    {
      "channel": 1,
      "note": 67,
      "start": 19.326,
      "duration": 0.0148,
      "velocity": 121,
      "chip": "ym2612"
    },
    {
      "channel": 0,
      "note": 79,
      "start": 19.3404,
      "duration": 0.0765,
      "velocity": 108,
      "chip": "ym2612"
    },
    {
      "channel": 1,
      "note": 71,
      "start": 19.341,
      "duration": 0.0011,
      "velocity": 121,
      "chip": "ym2612"
    },
    {
      "channel": 2,
      "note": 64,
      "start": 19.3415,
      "duration": 0.0764,
      "velocity": 121,
      "chip": "ym2612"
    },
    {
      "channel": 1,
      "note": 70,
      "start": 19.3421,
      "duration": 0.0136,
      "velocity": 121,
      "chip": "ym2612"
    },
    {
      "channel": 1,
      "note": 70,
      "start": 19.3557,
      "duration": 0.0136,
      "velocity": 121,
      "chip": "ym2612"
    },
    {
      "channel": 1,
      "note": 69,
      "start": 19.3693,
      "duration": 0.0157,
      "velocity": 121,
      "chip": "ym2612"
    },
    {
      "channel": 1,
      "note": 68,
      "start": 19.3851,
      "duration": 0.0157,
      "velocity": 121,
      "chip": "ym2612"
    },
    {
      "channel": 1,
      "note": 67,
      "start": 19.4008,
      "duration": 0.0166,
      "velocity": 121,
      "chip": "ym2612"
    },
    {
      "channel": 0,
      "note": 79,
      "start": 19.417,
      "duration": 0.0687,
      "velocity": 108,
      "chip": "ym2612"
    },
    {
      "channel": 1,
      "note": 71,
      "start": 19.4176,
      "duration": 0.002,
      "velocity": 121,
      "chip": "ym2612"
    },
    {
      "channel": 2,
      "note": 60,
      "start": 19.4181,
      "duration": 0.0687,
      "velocity": 121,
      "chip": "ym2612"
    },
    {
      "channel": 3,
      "note": 51,
      "start": 19.4186,
      "duration": 0.0687,
      "velocity": 111,
      "chip": "ym2612"
    },
    {
      "channel": 4,
      "note": 71,
      "start": 19.4191,
      "duration": 0.139,
      "velocity": 113,
      "chip": "ym2612"
    },
    {
      "channel": 1,
      "note": 70,
      "start": 19.4196,
      "duration": 0.0112,
      "velocity": 121,
      "chip": "ym2612"
    },
    {
      "channel": 1,
      "note": 70,
      "start": 19.4307,
      "duration": 0.0137,
      "velocity": 121,
      "chip": "ym2612"
    },
    {
      "channel": 1,
      "note": 69,
      "start": 19.4444,
      "duration": 0.0137,
      "velocity": 121,
      "chip": "ym2612"
    },
    {
      "channel": 1,
      "note": 68,
      "start": 19.458,
      "duration": 0.0137,
      "velocity": 121,
      "chip": "ym2612"
    },
    {
      "channel": 1,
      "note": 67,
      "start": 19.4717,
      "duration": 0.0146,
      "velocity": 121,
      "chip": "ym2612"
    },
    {
      "channel": 0,
      "note": 79,
      "start": 19.4859,
      "duration": 0.0687,
      "velocity": 108,
      "chip": "ym2612"
    },
    {
      "channel": 1,
      "note": 71,
      "start": 19.4865,
      "duration": 0.0015,
      "velocity": 121,
      "chip": "ym2612"
    },
    {
      "channel": 2,
      "note": 63,
      "start": 19.487,
      "duration": 0.07,
      "velocity": 121,
      "chip": "ym2612"
    },
    {
      "channel": 3,
      "note": 63,
      "start": 19.4875,
      "duration": 0.0701,
      "velocity": 111,
      "chip": "ym2612"
    },
    {
      "channel": 1,
      "note": 70,
      "start": 19.488,
      "duration": 0.0115,
      "velocity": 121,
      "chip": "ym2612"
    },
    {
      "channel": 1,
      "note": 70,
      "start": 19.4995,
      "duration": 0.0137,
      "velocity": 121,
      "chip": "ym2612"
    },
    {
      "channel": 1,
      "note": 69,
      "start": 19.5131,
      "duration": 0.0137,
      "velocity": 121,
      "chip": "ym2612"
    },
    {
      "channel": 1,
      "note": 68,
      "start": 19.5268,
      "duration": 0.0137,
      "velocity": 121,
      "chip": "ym2612"
    },
    {
      "channel": 1,
      "note": 67,
      "start": 19.5404,
      "duration": 0.016,
      "velocity": 113,
      "chip": "ym2612"
    },
    {
      "channel": 0,
      "note": 79,
      "start": 19.5547,
      "duration": 0.0749,
      "velocity": 108,
      "chip": "ym2612"
    },
    {
      "channel": 1,
      "note": 69,
      "start": 19.5566,
      "duration": 1.942,
      "velocity": 113,
      "chip": "ym2612"
    },
    {
      "channel": 2,
      "note": 48,
      "start": 19.5572,
      "duration": 0.073,
      "velocity": 121,
      "chip": "ym2612"
    },
    {
      "channel": 3,
      "note": 50,
      "start": 19.5577,
      "duration": 1.9409,
      "velocity": 111,
      "chip": "ym2612"
    },
    {
      "channel": 4,
      "note": 74,
      "start": 19.5582,
      "duration": 1.9404,
      "velocity": 113,
      "chip": "ym2612"
    },
    {
      "channel": 0,
      "note": 79,
      "start": 19.6298,
      "duration": 0.0726,
      "velocity": 108,
      "chip": "ym2612"
    },
    {
      "channel": 2,
      "note": 50,
      "start": 19.6304,
      "duration": 1.8682,
      "velocity": 121,
      "chip": "ym2612"
    }
  ]
}