{
  "track_name": "08 - Temple Land",
  "duration_sec": 86.449,
  "sample_rate": 44100,
  "note_count": 2361,
  "unique_pitches": 67,
  "pitch_range": 82,
  "avg_note_duration": 0.2102,
  "reconstruction_stats": {
    "notes_reconstructed": 2361,
    "keyon_events": 2361,
    "keyoff_events": 1695,
    "orphan_keyons": 6,
    "unique_pitches": 67,
    "pitch_range": 82,
    "avg_duration_sec": 0.2102
  },
  "metadata": {
    "source": "W\\Wiz 'n' Liz\\08 - Temple Land.vgz"
  },
  "notes": [
    {
      "channel": 1,
      "note": 71,
      "start": 0.0521,
      "duration": 0.1811,
      "velocity": 102,
      "chip": "ym2612"
    },
    {
      "channel": 2,
      "note": 66,
      "start": 0.0543,
      "duration": 0.1795,
      "velocity": 102,
      "chip": "ym2612"
    },
    {
      "channel": 1,
      "note": 75,
      "start": 0.2334,
      "duration": 0.0998,
      "velocity": 102,
      "chip": "ym2612"
    },
    {
      "channel": 2,
      "note": 71,
      "start": 0.234,
      "duration": 0.0998,
      "velocity": 102,
      "chip": "ym2612"
    },
    {
      "channel": 5,
      "note": 103,
      "start": 0.2362,
      "duration": 0.5414,
      "velocity": 127,
      "chip": "ym2612"
    },
    {
      "channel": 1,
      "note": 78,
      "start": 0.3334,
      "duration": 0.185,
      "velocity": 102,
      "chip": "ym2612"
    },
    {
      "channel": 2,
      "note": 75,
      "start": 0.3339,
      "duration": 0.1851,
      "velocity": 102,
      "chip": "ym2612"
    },
    {
      "channel": 1,
      "note": 83,
      "start": 0.5186,
      "duration": 0.2577,
      "velocity": 102,
      "chip": "ym2612"
    },
    {
      "channel": 2,
      "note": 78,
      "start": 0.5192,
      "duration": 0.2577,
      "velocity": 102,
      "chip": "ym2612"
    },
    {
      "channel": 1,
      "note": 78,
      "start": 0.7765,
      "duration": 0.0998,
      "velocity": 102,
      "chip": "ym2612"
    },
    {
      "channel": 2,
      "note": 75,
      "start": 0.7771,
      "duration": 0.0998,
      "velocity": 102,
      "chip": "ym2612"
    },
    {
      "channel": 5,
      "note": 103,
      "start": 0.7778,
      "duration": 0.0998,
      "velocity": 127,
      "chip": "ym2612"
    },
    {
      "channel": 1,
      "note": 75,
      "start": 0.8765,
      "duration": 0.1998,
      "velocity": 102,
      "chip": "ym2612"
    },
    {
      "channel": 2,
      "note": 71,
      "start": 0.877,
      "duration": 0.1999,
      "velocity": 102,
      "chip": "ym2612"
    },
    {
      "channel": 5,
      "note": 103,
      "start": 0.8777,
      "duration": 0.2845,
      "velocity": 127,
      "chip": "ym2612"
    },
    {
      "channel": 1,
      "note": 69,
      "start": 1.0765,
      "duration": 0.2855,
      "velocity": 102,
      "chip": "ym2612"
    },
    {
      "channel": 2,
      "note": 64,
      "start": 1.0771,
      "duration": 0.2855,
      "velocity": 102,
      "chip": "ym2612"
    },
    {
      "channel": 5,
      "note": 103,
      "start": 1.1624,
      "duration": 0.2861,
      "velocity": 127,
      "chip": "ym2612"
    },
    {
      "channel": 1,
      "note": 69,
      "start": 1.3622,
      "duration": 0.0851,
      "velocity": 102,
      "chip": "ym2612"
    },
    {
      "channel": 2,
      "note": 64,
      "start": 1.3627,
      "duration": 0.0851,
      "velocity": 102,
      "chip": "ym2612"
    },
    {
      "channel": 1,
      "note": 73,
      "start": 1.4474,
      "duration": 0.1998,
      "velocity": 102,
      "chip": "ym2612"
    },
    {
      "channel": 2,
      "note": 69,
      "start": 1.4479,
      "duration": 0.1999,
      "velocity": 102,
      "chip": "ym2612"
    },
    {
      "channel": 5,
      "note": 103,
      "start": 1.4486,
      "duration": 0.4548,
      "velocity": 127,
      "chip": "ym2612"
    },
    {
      "channel": 1,
      "note": 76,
      "start": 1.6474,
      "duration": 0.0855,
      "velocity": 102,
      "chip": "ym2612"
    },
    {
      "channel": 2,
      "note": 73,
      "start": 1.648,
      "duration": 0.0855,
      "velocity": 102,
      "chip": "ym2612"
    },
    {
      "channel": 1,
      "note": 81,
      "start": 1.7331,
      "duration": 0.169,
      "velocity": 102,
      "chip": "ym2612"
    },
    {
      "channel": 2,
      "note": 76,
      "start": 1.7337,
      "duration": 0.169,
      "velocity": 102,
      "chip": "ym2612"
    },
    {
      "channel": 1,
      "note": 76,
      "start": 1.9023,
      "duration": 0.0998,
      "velocity": 102,
      "chip": "ym2612"
    },
    {
      "channel": 2,
      "note": 73,
      "start": 1.9029,
      "duration": 0.0999,
      "velocity": 102,
      "chip": "ym2612"
    },
    {
      "channel": 5,
      "note": 103,
      "start": 1.9036,
      "duration": 0.0999,
      "velocity": 127,
      "chip": "ym2612"
    },
    {
      "channel": 1,
      "note": 73,
      "start": 2.0023,
      "duration": 0.0998,
      "velocity": 102,
      "chip": "ym2612"
    },
    {
      "channel": 2,
      "note": 69,
      "start": 2.0029,
      "duration": 0.0999,
      "velocity": 102,
      "chip": "ym2612"
    },
    {
      "channel": 5,
      "note": 103,
      "start": 2.0036,
      "duration": 0.1999,
      "velocity": 127,
      "chip": "ym2612"
    },
    {
      "channel": 1,
      "note": 69,
      "start": 2.1023,
      "duration": 0.0998,
      "velocity": 102,
      "chip": "ym2612"
    },
    {
      "channel": 2,
      "note": 64,
      "start": 2.1029,
      "duration": 0.0998,
      "velocity": 102,
      "chip": "ym2612"
    },
    {
      "channel": 1,
      "note": 64,
      "start": 2.2023,
      "duration": 0.0998,
      "velocity": 102,
      "chip": "ym2612"
    },
    {
      "channel": 2,
      "note": 61,
      "start": 2.2029,
      "duration": 0.0998,
      "velocity": 102,
      "chip": "ym2612"
    },
    {
      "channel": 5,
      "note": 103,
      "start": 2.2036,
      "duration": 0.285,
      "velocity": 127,
      "chip": "ym2612"
    },
    {
      "channel": 1,
      "note": 71,
      "start": 2.3023,
      "duration": 0.185,
      "velocity": 102,
      "chip": "ym2612"
    },
    {
      "channel": 2,
      "note": 66,
      "start": 2.3029,
      "duration": 0.185,
      "velocity": 102,
      "chip": "ym2612"
    },
    {
      "channel": 1,
      "note": 75,
      "start": 2.4876,
      "duration": 0.0998,
      "velocity": 102,
      "chip": "ym2612"
    },
    {
      "channel": 2,
      "note": 71,
      "start": 2.4881,
      "duration": 0.0998,
      "velocity": 102,
      "chip": "ym2612"
    },
    {
      "channel": 5,
      "note": 103,
      "start": 2.4888,
      "duration": 0.5406,
      "velocity": 127,
      "chip": "ym2612"
    },
    {
      "channel": 1,
      "note": 78,
      "start": 2.5876,
      "duration": 0.1855,
      "velocity": 102,
      "chip": "ym2612"
    },
    {
      "channel": 2,
      "note": 75,
      "start": 2.5881,
      "duration": 0.1855,
      "velocity": 102,
      "chip": "ym2612"
    },
    {
      "channel": 1,
      "note": 83,
      "start": 2.7732,
      "duration": 0.2549,
      "velocity": 102,
      "chip": "ym2612"
    },
    {
      "channel": 2,
      "note": 78,
      "start": 2.7738,
      "duration": 0.2549,
      "velocity": 102,
      "chip": "ym2612"
    },
    {
      "channel": 1,
      "note": 78,
      "start": 3.0284,
      "duration": 0.0998,
      "velocity": 102,
      "chip": "ym2612"
    },
    {
      "channel": 2,
      "note": 75,
      "start": 3.0289,
      "duration": 0.0999,
      "velocity": 102,
      "chip": "ym2612"
    },
    {
      "channel": 5,
      "note": 103,
      "start": 3.0296,
      "duration": 0.0999,
      "velocity": 127,
      "chip": "ym2612"
    },
    {
      "channel": 1,
      "note": 75,
      "start": 3.1284,
      "duration": 0.1998,
      "velocity": 102,
      "chip": "ym2612"
    },
    {
      "channel": 2,
      "note": 71,
      "start": 3.1289,
      "duration": 0.1999,
      "velocity": 102,
      "chip": "ym2612"
    },
    {
      "channel": 5,
      "note": 103,
      "start": 3.1296,
      "duration": 0.2841,
      "velocity": 127,
      "chip": "ym2612"
    },
    {
      "channel": 1,
      "note": 69,
      "start": 3.3284,
      "duration": 0.2871,
      "velocity": 102,
      "chip": "ym2612"
    },
    {
      "channel": 2,
      "note": 64,
      "start": 3.3289,
      "duration": 0.2872,
      "velocity": 102,
      "chip": "ym2612"
    },
    {
      "channel": 5,
      "note": 103,
      "start": 3.4139,
      "duration": 0.2876,
      "velocity": 127,
      "chip": "ym2612"
    },
    {
      "channel": 0,
      "note": 59,
      "start": 3.6151,
      "duration": 0.0845,
      "velocity": 117,
      "chip": "ym2612"
    },
    {
      "channel": 1,
      "note": 69,
      "start": 3.6157,
      "duration": 0.0845,
      "velocity": 102,
      "chip": "ym2612"
    },
    {
      "channel": 2,
      "note": 64,
      "start": 3.6162,
      "duration": 0.0845,
      "velocity": 102,
      "chip": "ym2612"
    },
    {
      "channel": 0,
      "note": 57,
      "start": 3.6998,
      "duration": 0.1014,
      "velocity": 1,
      "chip": "ym2612"
    },
    {
      "channel": 1,
      "note": 73,
      "start": 3.7004,
      "duration": 0.1994,
      "velocity": 102,
      "chip": "ym2612"
    },
    {
      "channel": 2,
      "note": 69,
      "start": 3.7009,
      "duration": 0.1993,
      "velocity": 102,
      "chip": "ym2612"
    },
    {
      "channel": 5,
      "note": 103,
      "start": 3.7016,
      "duration": 0.4551,
      "velocity": 127,
      "chip": "ym2612"
    },
    {
      "channel": 0,
      "note": 67,
      "start": 3.8014,
      "duration": 0.1871,
      "velocity": 117,
      "chip": "ym2612"
    },
    {
      "channel": 1,
      "note": 76,
      "start": 3.8998,
      "duration": 0.0891,
      "velocity": 102,
      "chip": "ym2612"
    },
    {
      "channel": 2,
      "note": 73,
      "start": 3.9004,
      "duration": 0.0891,
      "velocity": 102,
      "chip": "ym2612"
    },
    {
      "channel": 0,
      "note": 59,
      "start": 3.9886,
      "duration": 0.0776,
      "velocity": 1,
      "chip": "ym2612"
    },
    {
      "channel": 1,
      "note": 81,
      "start": 3.9891,
      "duration": 0.1663,
      "velocity": 102,
      "chip": "ym2612"
    },
    {
      "channel": 2,
      "note": 76,
      "start": 3.9897,
      "duration": 0.1663,
      "velocity": 102,
      "chip": "ym2612"
    },
    {
      "channel": 0,
      "note": 67,
      "start": 4.0664,
      "duration": 0.1906,
      "velocity": 117,
      "chip": "ym2612"
    },
    {
      "channel": 1,
      "note": 76,
      "start": 4.1556,
      "duration": 0.102,
      "velocity": 102,
      "chip": "ym2612"
    },
    {
      "channel": 2,
      "note": 73,
      "start": 4.1562,
      "duration": 0.102,
      "velocity": 102,
      "chip": "ym2612"
    },
    {
      "channel": 5,
      "note": 103,
      "start": 4.1569,
      "duration": 0.1019,
      "velocity": 127,
      "chip": "ym2612"
    },
    {
      "channel": 0,
      "note": 66,
      "start": 4.2572,
      "duration": 0.0021,
      "velocity": 117,
      "chip": "ym2612"
    },
    {
      "channel": 1,
      "note": 73,
      "start": 4.2578,
      "duration": 0.0977,
      "velocity": 102,
      "chip": "ym2612"
    },
    {
      "channel": 2,
      "note": 69,
      "start": 4.2583,
      "duration": 0.0977,
      "velocity": 102,
      "chip": "ym2612"
    },
    {
      "channel": 5,
      "note": 103,
      "start": 4.259,
      "duration": 0.4625,
      "velocity": 127,
      "chip": "ym2612"
    },
    {
      "channel": 0,
      "note": 65,
      "start": 4.2593,
      "duration": 0.0123,
      "velocity": 117,
      "chip": "ym2612"
    },
    {
      "channel": 0,
      "note": 64,
      "start": 4.2716,
      "duration": 0.0167,
      "velocity": 117,
      "chip": "ym2612"
    },
    {
      "channel": 0,
      "note": 64,
      "start": 4.2883,
      "duration": 0.0333,
      "velocity": 117,
      "chip": "ym2612"
    },
    {
      "channel": 0,
      "note": 63,
      "start": 4.3216,
      "duration": 0.0167,
      "velocity": 117,
      "chip": "ym2612"
    },
    {
      "channel": 0,
      "note": 62,
      "start": 4.3383,
      "duration": 0.0184,
      "velocity": 117,
      "chip": "ym2612"
    },
    {
      "channel": 1,
      "note": 69,
      "start": 4.3556,
      "duration": 0.0999,
      "velocity": 102,
      "chip": "ym2612"
    },
    {
      "channel": 2,
      "note": 64,
      "start": 4.3562,
      "duration": 0.0999,
      "velocity": 102,
      "chip": "ym2612"
    },
    {
      "channel": 0,
      "note": 61,
      "start": 4.3567,
      "duration": 0.0149,
      "velocity": 117,
      "chip": "ym2612"
    },
    {
      "channel": 0,
      "note": 60,
      "start": 4.3716,
      "duration": 0.0167,
      "velocity": 117,
      "chip": "ym2612"
    },
    {
      "channel": 0,
      "note": 59,
      "start": 4.3883,
      "duration": 0.0333,
      "velocity": 117,
      "chip": "ym2612"
    },
    {
      "channel": 0,
      "note": 57,
      "start": 4.4216,
      "duration": 0.0167,
      "velocity": 117,
      "chip": "ym2612"
    },
    {
      "channel": 0,
      "note": 56,
      "start": 4.4383,
      "duration": 0.0188,
      "velocity": 117,
      "chip": "ym2612"
    },
    {
      "channel": 1,
      "note": 64,
      "start": 4.4557,
      "duration": 0.0791,
      "velocity": 102,
      "chip": "ym2612"
    },
    {
      "channel": 2,
      "note": 61,
      "start": 4.4562,
      "duration": 0.0792,
      "velocity": 102,
      "chip": "ym2612"
    },
    {
      "channel": 0,
      "note": 55,
      "start": 4.4571,
      "duration": 0.0109,
      "velocity": 117,
      "chip": "ym2612"
    },
    {
      "channel": 0,
      "note": 55,
      "start": 4.4679,
      "duration": 0.013,
      "velocity": 117,
      "chip": "ym2612"
    },
    {
      "channel": 0,
      "note": 54,
      "start": 4.481,
      "duration": 0.0265,
      "velocity": 117,
      "chip": "ym2612"
    },
    {
      "channel": 0,
      "note": 53,
      "start": 4.5074,
      "duration": 0.0126,
      "velocity": 117,
      "chip": "ym2612"
    },
    {
      "channel": 0,
      "note": 52,
      "start": 4.52,
      "duration": 0.0143,
      "velocity": 117,
      "chip": "ym2612"
    },
    {
      "channel": 0,
      "note": 59,
      "start": 4.5344,
      "duration": 0.2858,
      "velocity": 117,
      "chip": "ym2612"
    },
    {
      "channel": 1,
      "note": 71,
      "start": 4.535,
      "duration": 0.1851,
      "velocity": 102,
      "chip": "ym2612"
    },
    {
      "channel": 2,
      "note": 66,
      "start": 4.5356,
      "duration": 0.1851,
      "velocity": 102,
      "chip": "ym2612"
    },
    {
      "channel": 1,
      "note": 75,
      "start": 4.7203,
      "duration": 0.1004,
      "velocity": 102,
      "chip": "ym2612"
    },
    {
      "channel": 2,
      "note": 71,
      "start": 4.7209,
      "duration": 0.1003,
      "velocity": 102,
      "chip": "ym2612"
    },
    {
      "channel": 5,
      "note": 103,
      "start": 4.7216,
      "duration": 0.5429,
      "velocity": 127,
      "chip": "ym2612"
    },
    {
      "channel": 0,
      "note": 71,
      "start": 4.8203,
      "duration": 0.1883,
      "velocity": 117,
      "chip": "ym2612"
    },
    {
      "channel": 1,
      "note": 78,
      "start": 4.8208,
      "duration": 0.1862,
      "velocity": 102,
      "chip": "ym2612"
    },
    {
      "channel": 2,
      "note": 75,
      "start": 4.8214,
      "duration": 0.1863,
      "velocity": 102,
      "chip": "ym2612"
    },
    {
      "channel": 1,
      "note": 83,
      "start": 5.0073,
      "duration": 0.2559,
      "velocity": 102,
      "chip": "ym2612"
    },
    {
      "channel": 2,
      "note": 78,
      "start": 5.0078,
      "duration": 0.256,
      "velocity": 102,
      "chip": "ym2612"
    },
    {
      "channel": 0,
      "note": 70,
      "start": 5.0086,
      "duration": 0.0114,
      "velocity": 117,
      "chip": "ym2612"
    },
    {
      "channel": 0,
      "note": 68,
      "start": 5.02,
      "duration": 0.0122,
      "velocity": 117,
      "chip": "ym2612"
    },
    {
      "channel": 0,
      "note": 67,
      "start": 5.0322,
      "duration": 0.0268,
      "velocity": 117,
      "chip": "ym2612"
    },
    {
      "channel": 0,
      "note": 66,
      "start": 5.059,
      "duration": 0.0166,
      "velocity": 117,
      "chip": "ym2612"
    },
    {
      "channel": 0,
      "note": 66,
      "start": 5.0757,
      "duration": 0.0171,
      "velocity": 117,
      "chip": "ym2612"
    },
    {
      "channel": 0,
      "note": 56,
      "start": 5.093,
      "duration": 0.1697,
      "velocity": 117,
      "chip": "ym2612"
    },
    {
      "channel": 0,
      "note": 68,
      "start": 5.2628,
      "duration": 0.2999,
      "velocity": 117,
      "chip": "ym2612"
    },
    {
      "channel": 1,
      "note": 78,
      "start": 5.2634,
      "duration": 0.0994,
      "velocity": 102,
      "chip": "ym2612"
    },
    {
      "channel": 2,
      "note": 75,
      "start": 5.264,
      "duration": 0.0993,
      "velocity": 102,
      "chip": "ym2612"
    },
    {
      "channel": 5,
      "note": 103,
      "start": 5.2647,
      "duration": 0.0993,
      "velocity": 127,
      "chip": "ym2612"
    },
    {
      "channel": 1,
      "note": 75,
      "start": 5.3629,
      "duration": 0.2003,
      "velocity": 102,
      "chip": "ym2612"
    },
    {
      "channel": 2,
      "note": 71,
      "start": 5.3634,
      "duration": 0.2003,
      "velocity": 102,
      "chip": "ym2612"
    },
    {
      "channel": 5,
      "note": 103,
      "start": 5.3641,
      "duration": 0.2845,
      "velocity": 127,
      "chip": "ym2612"
    },
    {
      "channel": 0,
      "note": 57,
      "start": 5.5628,
      "duration": 0.2855,
      "velocity": 117,
      "chip": "ym2612"
    },
    {
      "channel": 1,
      "note": 69,
      "start": 5.5634,
      "duration": 0.2855,
      "velocity": 102,
      "chip": "ym2612"
    },
    {
      "channel": 2,
      "note": 64,
      "start": 5.564,
      "duration": 0.2854,
      "velocity": 102,
      "chip": "ym2612"
    },
    {
      "channel": 5,
      "note": 103,
      "start": 5.6488,
      "duration": 0.2866,
      "velocity": 127,
      "chip": "ym2612"
    },
    {
      "channel": 0,
      "note": 69,
      "start": 5.8485,
      "duration": 0.1861,
      "velocity": 117,
      "chip": "ym2612"
    },
    {
      "channel": 1,
      "note": 69,
      "start": 5.849,
      "duration": 0.0852,
      "velocity": 102,
      "chip": "ym2612"
    },
    {
      "channel": 2,
      "note": 64,
      "start": 5.8496,
      "duration": 0.0852,
      "velocity": 102,
      "chip": "ym2612"
    },
    {
      "channel": 1,
      "note": 73,
      "start": 5.9344,
      "duration": 0.2003,
      "velocity": 102,
      "chip": "ym2612"
    },
    {
      "channel": 2,
      "note": 69,
      "start": 5.9349,
      "duration": 0.2003,
      "velocity": 102,
      "chip": "ym2612"
    },
    {
      "channel": 5,
      "note": 103,
      "start": 5.9356,
      "duration": 0.4575,
      "velocity": 127,
      "chip": "ym2612"
    },
    {
      "channel": 0,
      "note": 68,
      "start": 6.0345,
      "duration": 0.0158,
      "velocity": 117,
      "chip": "ym2612"
    },
    {
      "channel": 0,
      "note": 67,
      "start": 6.0504,
      "duration": 0.0167,
      "velocity": 117,
      "chip": "ym2612"
    },
    {
      "channel": 0,
      "note": 66,
      "start": 6.067,
      "duration": 0.0333,
      "velocity": 117,
      "chip": "ym2612"
    },
    {
      "channel": 0,
      "note": 65,
      "start": 6.1004,
      "duration": 0.0167,
      "velocity": 117,
      "chip": "ym2612"
    },
    {
      "channel": 0,
      "note": 64,
      "start": 6.117,
      "duration": 0.0171,
      "velocity": 117,
      "chip": "ym2612"
    },
    {
      "channel": 0,
      "note": 57,
      "start": 6.1343,
      "duration": 0.0866,
      "velocity": 117,
      "chip": "ym2612"
    },
    {
      "channel": 1,
      "note": 76,
      "start": 6.1349,
      "duration": 0.0866,
      "velocity": 102,
      "chip": "ym2612"
    },
    {
      "channel": 2,
      "note": 73,
      "start": 6.1354,
      "duration": 0.0866,
      "velocity": 102,
      "chip": "ym2612"
    },
    {
      "channel": 0,
      "note": 58,
      "start": 6.2211,
      "duration": 0.2707,
      "velocity": 117,
      "chip": "ym2612"
    },
    {
      "channel": 1,
      "note": 81,
      "start": 6.2217,
      "duration": 0.1702,
      "velocity": 102,
      "chip": "ym2612"
    },
    {
      "channel": 2,
      "note": 76,
      "start": 6.2222,
      "duration": 0.1702,
      "velocity": 102,
      "chip": "ym2612"
    },
    {
      "channel": 1,
      "note": 76,
      "start": 6.392,
      "duration": 0.1003,
      "velocity": 102,
      "chip": "ym2612"
    },
    {
      "channel": 2,
      "note": 73,
      "start": 6.3925,
      "duration": 0.1004,
      "velocity": 102,
      "chip": "ym2612"
    },
    {
      "channel": 5,
      "note": 103,
      "start": 6.3932,
      "duration": 0.1004,
      "velocity": 127,
      "chip": "ym2612"
    },
    {
      "channel": 0,
      "note": 70,
      "start": 6.492,
      "duration": 0.2999,
      "velocity": 117,
      "chip": "ym2612"
    },
    {
      "channel": 1,
      "note": 73,
      "start": 6.4925,
      "duration": 0.0994,
      "velocity": 102,
      "chip": "ym2612"
    },
    {
      "channel": 2,
      "note": 69,
      "start": 6.4931,
      "duration": 0.0993,
      "velocity": 102,
      "chip": "ym2612"
    },
    {
      "channel": 5,
      "note": 103,
      "start": 6.4938,
      "duration": 0.1993,
      "velocity": 127,
      "chip": "ym2612"
    },
    {
      "channel": 1,
      "note": 69,
      "start": 6.592,
      "duration": 0.0998,
      "velocity": 102,
      "chip": "ym2612"
    },
    {
      "channel": 2,
      "note": 64,
      "start": 6.5926,
      "duration": 0.0998,
      "velocity": 102,
      "chip": "ym2612"
    },
    {
      "channel": 1,
      "note": 64,
      "start": 6.692,
      "duration": 0.1003,
      "velocity": 102,
      "chip": "ym2612"
    },
    {
      "channel": 2,
      "note": 61,
      "start": 6.6926,
      "duration": 0.1003,
      "velocity": 102,
      "chip": "ym2612"
    },
    {
      "channel": 5,
      "note": 103,
      "start": 6.6933,
      "duration": 0.287,
      "velocity": 127,
      "chip": "ym2612"
    },
    {
      "channel": 0,
      "note": 59,
      "start": 6.792,
      "duration": 0.287,
      "velocity": 117,
      "chip": "ym2612"
    },
    {
      "channel": 1,
      "note": 71,
      "start": 6.7925,
      "duration": 0.1864,
      "velocity": 102,
      "chip": "ym2612"
    },
    {
      "channel": 2,
      "note": 66,
      "start": 6.7931,
      "duration": 0.1864,
      "velocity": 102,
      "chip": "ym2612"
    },
    {
      "channel": 1,
      "note": 75,
      "start": 6.9792,
      "duration": 0.1003,
      "velocity": 102,
      "chip": "ym2612"
    },
    {
      "channel": 2,
      "note": 71,
      "start": 6.9797,
      "duration": 0.1003,
      "velocity": 102,
      "chip": "ym2612"
    },
    {
      "channel": 5,
      "note": 103,
      "start": 6.9804,
      "duration": 0.543,
      "velocity": 127,
      "chip": "ym2612"
    },
    {
      "channel": 0,
      "note": 71,
      "start": 7.0791,
      "duration": 0.1887,
      "velocity": 117,
      "chip": "ym2612"
    },
    {
      "channel": 1,
      "note": 78,
      "start": 7.0797,
      "duration": 0.1866,
      "velocity": 102,
      "chip": "ym2612"
    },
    {
      "channel": 2,
      "note": 75,
      "start": 7.0802,
      "duration": 0.1866,
      "velocity": 102,
      "chip": "ym2612"
    },
    {
      "channel": 1,
      "note": 83,
      "start": 7.2664,
      "duration": 0.2557,
      "velocity": 102,
      "chip": "ym2612"
    },
    {
      "channel": 2,
      "note": 78,
      "start": 7.267,
      "duration": 0.2557,
      "velocity": 102,
      "chip": "ym2612"
    },
    {
      "channel": 0,
      "note": 70,
      "start": 7.2678,
      "duration": 0.0108,
      "velocity": 117,
      "chip": "ym2612"
    },
    {
      "channel": 0,
      "note": 68,
      "start": 7.2786,
      "duration": 0.0134,
      "velocity": 117,
      "chip": "ym2612"
    },
    {
      "channel": 0,
      "note": 67,
      "start": 7.292,
      "duration": 0.026,
      "velocity": 117,
      "chip": "ym2612"
    },
    {
      "channel": 0,
      "note": 66,
      "start": 7.318,
      "duration": 0.0166,
      "velocity": 117,
      "chip": "ym2612"
    },
    {
      "channel": 0,
      "note": 66,
      "start": 7.3346,
      "duration": 0.0171,
      "velocity": 117,
      "chip": "ym2612"
    },
    {
      "channel": 0,
      "note": 56,
      "start": 7.3519,
      "duration": 0.1697,
      "velocity": 117,
      "chip": "ym2612"
    },
    {
      "channel": 0,
      "note": 68,
      "start": 7.5218,
      "duration": 0.2999,
      "velocity": 117,
      "chip": "ym2612"
    },
    {
      "channel": 1,
      "note": 78,
      "start": 7.5224,
      "duration": 0.0994,
      "velocity": 102,
      "chip": "ym2612"
    },
    {
      "channel": 2,
      "note": 75,
      "start": 7.5229,
      "duration": 0.0993,
      "velocity": 102,
      "chip": "ym2612"
    },
    {
      "channel": 5,
      "note": 103,
      "start": 7.5236,
      "duration": 0.0993,
      "velocity": 127,
      "chip": "ym2612"
    },
    {
      "channel": 1,
      "note": 75,
      "start": 7.6218,
      "duration": 0.2003,
      "velocity": 102,
      "chip": "ym2612"
    },
    {
      "channel": 2,
      "note": 71,
      "start": 7.6224,
      "duration": 0.2003,
      "velocity": 102,
      "chip": "ym2612"
    },
    {
      "channel": 5,
      "note": 103,
      "start": 7.6231,
      "duration": 0.2845,
      "velocity": 127,
      "chip": "ym2612"
    },
    {
      "channel": 0,
      "note": 57,
      "start": 7.8218,
      "duration": 0.2855,
      "velocity": 117,
      "chip": "ym2612"
    },
    {
      "channel": 1,
      "note": 69,
      "start": 7.8224,
      "duration": 0.2854,
      "velocity": 102,
      "chip": "ym2612"
    },
    {
      "channel": 2,
      "note": 64,
      "start": 7.8229,
      "duration": 0.2854,
      "velocity": 102,
      "chip": "ym2612"
    },
    {
      "channel": 5,
      "note": 103,
      "start": 7.9078,
      "duration": 0.2854,
      "velocity": 127,
      "chip": "ym2612"
    },
    {
      "channel": 0,
      "note": 69,
      "start": 8.1074,
      "duration": 0.1849,
      "velocity": 117,
      "chip": "ym2612"
    },
    {
      "channel": 1,
      "note": 69,
      "start": 8.108,
      "duration": 0.084,
      "velocity": 102,
      "chip": "ym2612"
    },
    {
      "channel": 2,
      "note": 64,
      "start": 8.1085,
      "duration": 0.084,
      "velocity": 102,
      "chip": "ym2612"
    },
    {
      "channel": 1,
      "note": 73,
      "start": 8.1921,
      "duration": 0.2003,
      "velocity": 102,
      "chip": "ym2612"
    },
    {
      "channel": 2,
      "note": 69,
      "start": 8.1926,
      "duration": 0.2003,
      "velocity": 102,
      "chip": "ym2612"
    },
    {
      "channel": 5,
      "note": 103,
      "start": 8.1933,
      "duration": 0.456,
      "velocity": 127,
      "chip": "ym2612"
    },
    {
      "channel": 0,
      "note": 68,
      "start": 8.2923,
      "duration": 0.0158,
      "velocity": 117,
      "chip": "ym2612"
    },
    {
      "channel": 0,
      "note": 67,
      "start": 8.3081,
      "duration": 0.0167,
      "velocity": 117,
      "chip": "ym2612"
    },
    {
      "channel": 0,
      "note": 66,
      "start": 8.3248,
      "duration": 0.0333,
      "velocity": 117,
      "chip": "ym2612"
    },
    {
      "channel": 0,
      "note": 65,
      "start": 8.3581,
      "duration": 0.0167,
      "velocity": 117,
      "chip": "ym2612"
    },
    {
      "channel": 0,
      "note": 64,
      "start": 8.3748,
      "duration": 0.0171,
      "velocity": 117,
      "chip": "ym2612"
    },
    {
      "channel": 0,
      "note": 57,
      "start": 8.3921,
      "duration": 0.0866,
      "velocity": 117,
      "chip": "ym2612"
    },
    {
      "channel": 1,
      "note": 76,
      "start": 8.3926,
      "duration": 0.0866,
      "velocity": 102,
      "chip": "ym2612"
    },
    {
      "channel": 2,
      "note": 73,
      "start": 8.3932,
      "duration": 0.0866,
      "velocity": 102,
      "chip": "ym2612"
    },
    {
      "channel": 0,
      "note": 58,
      "start": 8.4788,
      "duration": 0.2692,
      "velocity": 117,
      "chip": "ym2612"
    },
    {
      "channel": 1,
      "note": 81,
      "start": 8.4794,
      "duration": 0.1686,
      "velocity": 102,
      "chip": "ym2612"
    },
    {
      "channel": 2,
      "note": 76,
      "start": 8.48,
      "duration": 0.1686,
      "velocity": 102,
      "chip": "ym2612"
    },
    {
      "channel": 1,
      "note": 76,
      "start": 8.6482,
      "duration": 0.1004,
      "velocity": 102,
      "chip": "ym2612"
    },
    {
      "channel": 2,
      "note": 73,
      "start": 8.6488,
      "duration": 0.1003,
      "velocity": 102,
      "chip": "ym2612"
    },
    {
      "channel": 5,
      "note": 103,
      "start": 8.6495,
      "duration": 0.1003,
      "velocity": 127,
      "chip": "ym2612"
    },
    {
      "channel": 0,
      "note": 70,
      "start": 8.7482,
      "duration": 0.2766,
      "velocity": 117,
      "chip": "ym2612"
    },
    {
      "channel": 1,
      "note": 73,
      "start": 8.7487,
      "duration": 0.0994,
      "velocity": 102,
      "chip": "ym2612"
    },
    {
      "channel": 2,
      "note": 69,
      "start": 8.7493,
      "duration": 0.0993,
      "velocity": 102,
      "chip": "ym2612"
    },
    {
      "channel": 5,
      "note": 103,
      "start": 8.75,
      "duration": 0.4642,
      "velocity": 127,
      "chip": "ym2612"
    },
    {
      "channel": 1,
      "note": 69,
      "start": 8.8482,
      "duration": 0.0999,
      "velocity": 102,
      "chip": "ym2612"
    },
    {
      "channel": 2,
      "note": 64,
      "start": 8.8488,
      "duration": 0.1,
      "velocity": 102,
      "chip": "ym2612"
    },
    {
      "channel": 1,
      "note": 64,
      "start": 8.9483,
      "duration": 0.0771,
      "velocity": 102,
      "chip": "ym2612"
    },
    {
      "channel": 2,
      "note": 61,
      "start": 8.9488,
      "duration": 0.0772,
      "velocity": 102,
      "chip": "ym2612"
    },
    {
      "channel": 0,
      "note": 59,
      "start": 9.025,
      "duration": 0.2854,
      "velocity": 117,
      "chip": "ym2612"
    },
    {
      "channel": 1,
      "note": 71,
      "start": 9.0256,
      "duration": 0.1848,
      "velocity": 102,
      "chip": "ym2612"
    },
    {
      "channel": 2,
      "note": 66,
      "start": 9.0262,
      "duration": 0.1847,
      "velocity": 102,
      "chip": "ym2612"
    },
    {
      "channel": 3,
      "note": 74,
      "start": 9.0283,
      "duration": 0.0822,
      "velocity": 74,
      "chip": "ym2612"
    },
    {
      "channel": 3,
      "note": 75,
      "start": 9.1107,
      "duration": 0.1008,
      "velocity": 74,
      "chip": "ym2612"
    },
    {
      "channel": 1,
      "note": 75,
      "start": 9.2105,
      "duration": 0.1003,
      "velocity": 102,
      "chip": "ym2612"
    },
    {
      "channel": 2,
      "note": 71,
      "start": 9.2111,
      "duration": 0.1003,
      "velocity": 102,
      "chip": "ym2612"
    },
    {
      "channel": 3,
      "note": 74,
      "start": 9.2116,
      "duration": 0.1004,
      "velocity": 74,
      "chip": "ym2612"
    },
    {
      "channel": 4,
      "note": 74,
      "start": 9.2138,
      "duration": 0.0988,
      "velocity": 74,
      "chip": "ym2612"
    },
    {
      "channel": 5,
      "note": 103,
      "start": 9.2144,
      "duration": 0.5409,
      "velocity": 127,
      "chip": "ym2612"
    },
    {
      "channel": 0,
      "note": 71,
      "start": 9.3105,
      "duration": 0.1879,
      "velocity": 117,
      "chip": "ym2612"
    },
    {
      "channel": 1,
      "note": 78,
      "start": 9.311,
      "duration": 0.1848,
      "velocity": 102,
      "chip": "ym2612"
    },
    {
      "channel": 2,
      "note": 75,
      "start": 9.3116,
      "duration": 0.1847,
      "velocity": 102,
      "chip": "ym2612"
    },
    {
      "channel": 3,
      "note": 75,
      "start": 9.3122,
      "duration": 0.0837,
      "velocity": 74,
      "chip": "ym2612"
    },
    {
      "channel": 4,
      "note": 75,
      "start": 9.3127,
      "duration": 0.0837,
      "velocity": 74,
      "chip": "ym2612"
    },
    {
      "channel": 3,
      "note": 74,
      "start": 9.396,
      "duration": 0.101,
      "velocity": 74,
      "chip": "ym2612"
    },
    {
      "channel": 4,
      "note": 74,
      "start": 9.3966,
      "duration": 0.101,
      "velocity": 74,
      "chip": "ym2612"
    },
    {
      "channel": 1,
      "note": 83,
      "start": 9.496,
      "duration": 0.2571,
      "velocity": 102,
      "chip": "ym2612"
    },
    {
      "channel": 2,
      "note": 78,
      "start": 9.4966,
      "duration": 0.2571,
      "velocity": 102,
      "chip": "ym2612"
    },
    {
      "channel": 3,
      "note": 75,
      "start": 9.4971,
      "duration": 0.0861,
      "velocity": 74,
      "chip": "ym2612"
    },
    {
      "channel": 4,
      "note": 75,
      "start": 9.4977,
      "duration": 0.0861,
      "velocity": 74,
      "chip": "ym2612"
    },
    {
      "channel": 0,
      "note": 70,
      "start": 9.4983,
      "duration": 0.0106,
      "velocity": 117,
      "chip": "ym2612"
    },
    {
      "channel": 0,
      "note": 68,
      "start": 9.5089,
      "duration": 0.0142,
      "velocity": 117,
      "chip": "ym2612"
    },
    {
      "channel": 0,
      "note": 67,
      "start": 9.5232,
      "duration": 0.0259,
      "velocity": 117,
      "chip": "ym2612"
    },
    {
      "channel": 0,
      "note": 66,
      "start": 9.549,
      "duration": 0.0164,
      "velocity": 117,
      "chip": "ym2612"
    },
    {
      "channel": 0,
      "note": 66,
      "start": 9.5654,
      "duration": 0.0172,
      "velocity": 117,
      "chip": "ym2612"
    },
    {
      "channel": 0,
      "note": 56,
      "start": 9.5828,
      "duration": 0.1698,
      "velocity": 117,
      "chip": "ym2612"
    },
    {
      "channel": 3,
      "note": 74,
      "start": 9.5834,
      "duration": 0.1708,
      "velocity": 74,
      "chip": "ym2612"
    },
    {
      "channel": 4,
      "note": 74,
      "start": 9.584,
      "duration": 0.0761,
      "velocity": 74,
      "chip": "ym2612"
    },
    {
      "channel": 4,
      "note": 75,
      "start": 9.6602,
      "duration": 0.0946,
      "velocity": 74,
      "chip": "ym2612"
    },
    {
      "channel": 0,
      "note": 68,
      "start": 9.7527,
      "duration": 0.2999,
      "velocity": 117,
      "chip": "ym2612"
    },
    {
      "channel": 1,
      "note": 78,
      "start": 9.7532,
      "duration": 0.0994,
      "velocity": 102,
      "chip": "ym2612"
    },
    {
      "channel": 2,
      "note": 75,
      "start": 9.7538,
      "duration": 0.0993,
      "velocity": 102,
      "chip": "ym2612"
    },
    {
      "channel": 3,
      "note": 75,
      "start": 9.7544,
      "duration": 0.0993,
      "velocity": 74,
      "chip": "ym2612"
    },
    {
      "channel": 4,
      "note": 74,
      "start": 9.7549,
      "duration": 0.1983,
      "velocity": 74,
      "chip": "ym2612"
    },
    {
      "channel": 5,
      "note": 103,
      "start": 9.7555,
      "duration": 0.0988,
      "velocity": 127,
      "chip": "ym2612"
    },
    {
      "channel": 1,
      "note": 75,
      "start": 9.8527,
      "duration": 0.2004,
      "velocity": 102,
      "chip": "ym2612"
    },
    {
      "channel": 2,
      "note": 71,
      "start": 9.8533,
      "duration": 0.2003,
      "velocity": 102,
      "chip": "ym2612"
    },
    {
      "channel": 3,
      "note": 71,
      "start": 9.8539,
      "duration": 0.0988,
      "velocity": 74,
      "chip": "ym2612"
    },
    {
      "channel": 5,
      "note": 103,
      "start": 9.8545,
      "duration": 0.2851,
      "velocity": 127,
      "chip": "ym2612"
    },
    {
      "channel": 3,
      "note": 68,
      "start": 9.9529,
      "duration": 0.1013,
      "velocity": 74,
      "chip": "ym2612"
    },
    {
      "channel": 4,
      "note": 75,
      "start": 9.9534,
      "duration": 0.1013,
      "velocity": 74,
      "chip": "ym2612"
    },
    {
      "channel": 0,
      "note": 57,
      "start": 10.0527,
      "duration": 0.2855,
      "velocity": 117,
      "chip": "ym2612"
    },
    {
      "channel": 1,
      "note": 69,
      "start": 10.0532,
      "duration": 0.2856,
      "velocity": 102,
      "chip": "ym2612"
    },
    {
      "channel": 2,
      "note": 64,
      "start": 10.0538,
      "duration": 0.2855,
      "velocity": 102,
      "chip": "ym2612"
    },
    {
      "channel": 3,
      "note": 66,
      "start": 10.0544,
      "duration": 0.0841,
      "velocity": 74,
      "chip": "ym2612"
    },
    {
      "channel": 4,
      "note": 71,
      "start": 10.055,
      "duration": 0.0841,
      "velocity": 74,
      "chip": "ym2612"
    },
    {
      "channel": 3,
      "note": 69,
      "start": 10.1387,
      "duration": 0.2848,
      "velocity": 74,
      "chip": "ym2612"
    },
    {
      "channel": 4,
      "note": 68,
      "start": 10.1392,
      "duration": 0.0992,
      "velocity": 74,
      "chip": "ym2612"
    },
    {
      "channel": 5,
      "note": 103,
      "start": 10.1398,
      "duration": 0.2844,
      "velocity": 127,
      "chip": "ym2612"
    },
    {
      "channel": 4,
      "note": 66,
      "start": 10.2386,
      "duration": 0.1013,
      "velocity": 74,
      "chip": "ym2612"
    },
    {
      "channel": 0,
      "note": 69,
      "start": 10.3384,
      "duration": 0.1843,
      "velocity": 117,
      "chip": "ym2612"
    },
    {
      "channel": 1,
      "note": 69,
      "start": 10.339,
      "duration": 0.0834,
      "velocity": 102,
      "chip": "ym2612"
    },
    {
      "channel": 2,
      "note": 64,
      "start": 10.3395,
      "duration": 0.0834,
      "velocity": 102,
      "chip": "ym2612"
    },
    {
      "channel": 4,
      "note": 69,
      "start": 10.3401,
      "duration": 0.2839,
      "velocity": 74,
      "chip": "ym2612"
    },
    {
      "channel": 1,
      "note": 73,
      "start": 10.4225,
      "duration": 0.2003,
      "velocity": 102,
      "chip": "ym2612"
    },
    {
      "channel": 2,
      "note": 69,
      "start": 10.4231,
      "duration": 0.2003,
      "velocity": 102,
      "chip": "ym2612"
    },
    {
      "channel": 3,
      "note": 68,
      "start": 10.4237,
      "duration": 0.2844,
      "velocity": 74,
      "chip": "ym2612"
    },
    {
      "channel": 5,
      "note": 103,
      "start": 10.4243,
      "duration": 0.4545,
      "velocity": 127,
      "chip": "ym2612"
    },
    {
      "channel": 0,
      "note": 68,
      "start": 10.5227,
      "duration": 0.0158,
      "velocity": 117,
      "chip": "ym2612"
    },
    {
      "channel": 0,
      "note": 67,
      "start": 10.5385,
      "duration": 0.0167,
      "velocity": 117,
      "chip": "ym2612"
    },
    {
      "channel": 0,
      "note": 66,
      "start": 10.5552,
      "duration": 0.0333,
      "velocity": 117,
      "chip": "ym2612"
    },
    {
      "channel": 0,
      "note": 65,
      "start": 10.5885,
      "duration": 0.0167,
      "velocity": 117,
      "chip": "ym2612"
    },
    {
      "channel": 0,
      "note": 64,
      "start": 10.6052,
      "duration": 0.0171,
      "velocity": 117,
      "chip": "ym2612"
    },
    {
      "channel": 0,
      "note": 57,
      "start": 10.6225,
      "duration": 0.0839,
      "velocity": 117,
      "chip": "ym2612"
    },
    {
      "channel": 1,
      "note": 76,
      "start": 10.623,
      "duration": 0.0839,
      "velocity": 102,
      "chip": "ym2612"
    },
    {
      "channel": 2,
      "note": 73,
      "start": 10.6236,
      "duration": 0.0839,
      "velocity": 102,
      "chip": "ym2612"
    },
    {
      "channel": 4,
      "note": 68,
      "start": 10.6242,
      "duration": 0.254,
      "velocity": 74,
      "chip": "ym2612"
    },
    {
      "channel": 0,
      "note": 58,
      "start": 10.7065,
      "duration": 0.27,
      "velocity": 117,
      "chip": "ym2612"
    },
    {
      "channel": 1,
      "note": 81,
      "start": 10.7071,
      "duration": 0.1694,
      "velocity": 102,
      "chip": "ym2612"
    },
    {
      "channel": 2,
      "note": 76,
      "start": 10.7077,
      "duration": 0.1694,
      "velocity": 102,
      "chip": "ym2612"
    },
    {
      "channel": 3,
      "note": 66,
      "start": 10.7083,
      "duration": 0.1694,
      "velocity": 74,
      "chip": "ym2612"
    },
    {
      "channel": 1,
      "note": 76,
      "start": 10.8767,
      "duration": 0.1004,
      "velocity": 102,
      "chip": "ym2612"
    },
    {
      "channel": 2,
      "note": 73,
      "start": 10.8773,
      "duration": 0.1003,
      "velocity": 102,
      "chip": "ym2612"
    },
    {
      "channel": 3,
      "note": 62,
      "start": 10.8778,
      "duration": 0.1004,
      "velocity": 74,
      "chip": "ym2612"
    },
    {
      "channel": 4,
      "note": 66,
      "start": 10.8784,
      "duration": 0.1999,
      "velocity": 74,
      "chip": "ym2612"
    },
    {
      "channel": 5,
      "note": 103,
      "start": 10.8789,
      "duration": 0.0999,
      "velocity": 127,
      "chip": "ym2612"
    },
    {
      "channel": 0,
      "note": 70,
      "start": 10.9767,
      "duration": 0.2998,
      "velocity": 117,
      "chip": "ym2612"
    },
    {
      "channel": 1,
      "note": 73,
      "start": 10.9772,
      "duration": 0.0994,
      "velocity": 102,
      "chip": "ym2612"
    },
    {
      "channel": 2,
      "note": 69,
      "start": 10.9778,
      "duration": 0.0993,
      "velocity": 102,
      "chip": "ym2612"
    },
    {
      "channel": 3,
      "note": 63,
      "start": 10.9784,
      "duration": 0.0993,
      "velocity": 74,
      "chip": "ym2612"
    },
    {
      "channel": 5,
      "note": 103,
      "start": 10.979,
      "duration": 0.1998,
      "velocity": 127,
      "chip": "ym2612"
    },
    {
      "channel": 1,
      "note": 69,
      "start": 11.0767,
      "duration": 0.0998,
      "velocity": 102,
      "chip": "ym2612"
    },
    {
      "channel": 2,
      "note": 64,
      "start": 11.0773,
      "duration": 0.0998,
      "velocity": 102,
      "chip": "ym2612"
    },
    {
      "channel": 3,
      "note": 66,
      "start": 11.0779,
      "duration": 0.0998,
      "velocity": 74,
      "chip": "ym2612"
    },
    {
      "channel": 4,
      "note": 62,
      "start": 11.0784,
      "duration": 0.0998,
      "velocity": 74,
      "chip": "ym2612"
    },
    {
      "channel": 1,
      "note": 64,
      "start": 11.1767,
      "duration": 0.1003,
      "velocity": 102,
      "chip": "ym2612"
    },
    {
      "channel": 2,
      "note": 61,
      "start": 11.1773,
      "duration": 0.1003,
      "velocity": 102,
      "chip": "ym2612"
    },
    {
      "channel": 3,
      "note": 69,
      "start": 11.1778,
      "duration": 0.1004,
      "velocity": 74,
      "chip": "ym2612"
    },
    {
      "channel": 4,
      "note": 63,
      "start": 11.1784,
      "duration": 0.1004,
      "velocity": 74,
      "chip": "ym2612"
    },
    {
      "channel": 5,
      "note": 103,
      "start": 11.1789,
      "duration": 0.2852,
      "velocity": 127,
      "chip": "ym2612"
    },
    {
      "channel": 0,
      "note": 59,
      "start": 11.2766,
      "duration": 0.2852,
      "velocity": 117,
      "chip": "ym2612"
    },
    {
      "channel": 1,
      "note": 71,
      "start": 11.2772,
      "duration": 0.1846,
      "velocity": 102,
      "chip": "ym2612"
    },
    {
      "channel": 2,
      "note": 66,
      "start": 11.2778,
      "duration": 0.1846,
      "velocity": 102,
      "chip": "ym2612"
    },
    {
      "channel": 3,
      "note": 74,
      "start": 11.2784,
      "duration": 0.0837,
      "velocity": 74,
      "chip": "ym2612"
    },
    {
      "channel": 4,
      "note": 66,
      "start": 11.2789,
      "duration": 0.0837,
      "velocity": 74,
      "chip": "ym2612"
    },
    {
      "channel": 3,
      "note": 75,
      "start": 11.3622,
      "duration": 0.1008,
      "velocity": 74,
      "chip": "ym2612"
    },
    {
      "channel": 4,
      "note": 69,
      "start": 11.3627,
      "duration": 0.1008,
      "velocity": 74,
      "chip": "ym2612"
    },
    {
      "channel": 1,
      "note": 75,
      "start": 11.462,
      "duration": 0.1003,
      "velocity": 102,
      "chip": "ym2612"
    },
    {
      "channel": 2,
      "note": 71,
      "start": 11.4626,
      "duration": 0.1003,
      "velocity": 102,
      "chip": "ym2612"
    },
    {
      "channel": 3,
      "note": 74,
      "start": 11.4632,
      "duration": 0.1003,
      "velocity": 74,
      "chip": "ym2612"
    },
    {
      "channel": 4,
      "note": 74,
      "start": 11.4637,
      "duration": 0.1004,
      "velocity": 74,
      "chip": "ym2612"
    },
    {
      "channel": 5,
      "note": 103,
      "start": 11.4643,
      "duration": 0.542,
      "velocity": 127,
      "chip": "ym2612"
    },
    {
      "channel": 0,
      "note": 71,
      "start": 11.562,
      "duration": 0.1879,
      "velocity": 117,
      "chip": "ym2612"
    },
    {
      "channel": 1,
      "note": 78,
      "start": 11.5625,
      "duration": 0.1848,
      "velocity": 102,
      "chip": "ym2612"
    },
    {
      "channel": 2,
      "note": 75,
      "start": 11.5631,
      "duration": 0.1847,
      "velocity": 102,
      "chip": "ym2612"
    },
    {
      "channel": 3,
      "note": 75,
      "start": 11.5637,
      "duration": 0.0837,
      "velocity": 74,
      "chip": "ym2612"
    },
    {
      "channel": 4,
      "note": 75,
      "start": 11.5642,
      "duration": 0.0837,
      "velocity": 74,
      "chip": "ym2612"
    },
    {
      "channel": 3,
      "note": 74,
      "start": 11.6475,
      "duration": 0.101,
      "velocity": 74,
      "chip": "ym2612"
    },
    {
      "channel": 4,
      "note": 74,
      "start": 11.6481,
      "duration": 0.1009,
      "velocity": 74,
      "chip": "ym2612"
    },
    {
      "channel": 1,
      "note": 83,
      "start": 11.7475,
      "duration": 0.2565,
      "velocity": 102,
      "chip": "ym2612"
    },
    {
      "channel": 2,
      "note": 78,
      "start": 11.7481,
      "duration": 0.2565,
      "velocity": 102,
      "chip": "ym2612"
    },
    {
      "channel": 3,
      "note": 75,
      "start": 11.7486,
      "duration": 0.0856,
      "velocity": 74,
      "chip": "ym2612"
    },
    {
      "channel": 4,
      "note": 75,
      "start": 11.7492,
      "duration": 0.0855,
      "velocity": 74,
      "chip": "ym2612"
    },
    {
      "channel": 0,
      "note": 70,
      "start": 11.7498,
      "duration": 0.0101,
      "velocity": 117,
      "chip": "ym2612"
    },
    {
      "channel": 0,
      "note": 68,
      "start": 11.7599,
      "duration": 0.0129,
      "velocity": 117,
      "chip": "ym2612"
    },
    {
      "channel": 0,
      "note": 67,
      "start": 11.7728,
      "duration": 0.0272,
      "velocity": 117,
      "chip": "ym2612"
    },
    {
      "channel": 0,
      "note": 66,
      "start": 11.8,
      "duration": 0.0163,
      "velocity": 117,
      "chip": "ym2612"
    },
    {
      "channel": 0,
      "note": 66,
      "start": 11.8163,
      "duration": 0.0172,
      "velocity": 117,
      "chip": "ym2612"
    },
    {
      "channel": 0,
      "note": 56,
      "start": 11.8337,
      "duration": 0.1698,
      "velocity": 117,
      "chip": "ym2612"
    },
    {
      "channel": 3,
      "note": 74,
      "start": 11.8343,
      "duration": 0.1709,
      "velocity": 74,
      "chip": "ym2612"
    },
    {
      "channel": 4,
      "note": 74,
      "start": 11.8349,
      "duration": 0.0762,
      "velocity": 74,
      "chip": "ym2612"
    },
    {
      "channel": 4,
      "note": 75,
      "start": 11.9112,
      "duration": 0.0946,
      "velocity": 74,
      "chip": "ym2612"
    },
    {
      "channel": 0,
      "note": 68,
      "start": 12.0036,
      "duration": 0.2999,
      "velocity": 117,
      "chip": "ym2612"
    },
    {
      "channel": 1,
      "note": 78,
      "start": 12.0042,
      "duration": 0.0994,
      "velocity": 102,
      "chip": "ym2612"
    },
    {
      "channel": 2,
      "note": 75,
      "start": 12.0048,
      "duration": 0.0993,
      "velocity": 102,
      "chip": "ym2612"
    },
    {
      "channel": 3,
      "note": 76,
      "start": 12.0054,
      "duration": 0.0993,
      "velocity": 74,
      "chip": "ym2612"
    },
    {
      "channel": 4,
      "note": 74,
      "start": 12.0059,
      "duration": 0.1978,
      "velocity": 74,
      "chip": "ym2612"
    },
    {
      "channel": 5,
      "note": 103,
      "start": 12.0064,
      "duration": 0.0988,
      "velocity": 127,
      "chip": "ym2612"
    },
    {
      "channel": 1,
      "note": 75,
      "start": 12.1037,
      "duration": 0.2003,
      "velocity": 102,
      "chip": "ym2612"
    },
    {
      "channel": 2,
      "note": 71,
      "start": 12.1043,
      "duration": 0.2003,
      "velocity": 102,
      "chip": "ym2612"
    },
    {
      "channel": 3,
      "note": 77,
      "start": 12.1049,
      "duration": 0.2003,
      "velocity": 74,
      "chip": "ym2612"
    },
    {
      "channel": 5,
      "note": 103,
      "start": 12.1055,
      "duration": 0.2837,
      "velocity": 127,
      "chip": "ym2612"
    },
    {
      "channel": 4,
      "note": 76,
      "start": 12.2039,
      "duration": 0.1019,
      "velocity": 74,
      "chip": "ym2612"
    },
    {
      "channel": 0,
      "note": 57,
      "start": 12.3036,
      "duration": 0.2853,
      "velocity": 117,
      "chip": "ym2612"
    },
    {
      "channel": 1,
      "note": 69,
      "start": 12.3042,
      "duration": 0.2852,
      "velocity": 102,
      "chip": "ym2612"
    },
    {
      "channel": 2,
      "note": 64,
      "start": 12.3048,
      "duration": 0.2852,
      "velocity": 102,
      "chip": "ym2612"
    },
    {
      "channel": 3,
      "note": 78,
      "start": 12.3054,
      "duration": 1.2032,
      "velocity": 74,
      "chip": "ym2612"
    },
    {
      "channel": 4,
      "note": 77,
      "start": 12.3059,
      "duration": 0.1832,
      "velocity": 74,
      "chip": "ym2612"
    },
    {
      "channel": 5,
      "note": 103,
      "start": 12.3894,
      "duration": 0.2856,
      "velocity": 127,
      "chip": "ym2612"
    },
    {
      "channel": 4,
      "note": 78,
      "start": 12.4892,
      "duration": 1.2046,
      "velocity": 74,
      "chip": "ym2612"
    },
    {
      "channel": 0,
      "note": 69,
      "start": 12.589,
      "duration": 0.1851,
      "velocity": 117,
      "chip": "ym2612"
    },
    {
      "channel": 1,
      "note": 69,
      "start": 12.5896,
      "duration": 0.0842,
      "velocity": 102,
      "chip": "ym2612"
    },
    {
      "channel": 2,
      "note": 64,
      "start": 12.5901,
      "duration": 0.0842,
      "velocity": 102,
      "chip": "ym2612"
    },
    {
      "channel": 1,
      "note": 73,
      "start": 12.6739,
      "duration": 0.2004,
      "velocity": 102,
      "chip": "ym2612"
    },
    {
      "channel": 2,
      "note": 69,
      "start": 12.6745,
      "duration": 0.2003,
      "velocity": 102,
      "chip": "ym2612"
    },
    {
      "channel": 5,
      "note": 103,
      "start": 12.6752,
      "duration": 0.456,
      "velocity": 127,
      "chip": "ym2612"
    },
    {
      "channel": 0,
      "note": 68,
      "start": 12.7741,
      "duration": 0.0158,
      "velocity": 117,
      "chip": "ym2612"
    },
    {
      "channel": 0,
      "note": 67,
      "start": 12.79,
      "duration": 0.0167,
      "velocity": 117,
      "chip": "ym2612"
    },
    {
      "channel": 0,
      "note": 66,
      "start": 12.8066,
      "duration": 0.0333,
      "velocity": 117,
      "chip": "ym2612"
    },
    {
      "channel": 0,
      "note": 65,
      "start": 12.84,
      "duration": 0.0167,
      "velocity": 117,
      "chip": "ym2612"
    },
    {
      "channel": 0,
      "note": 64,
      "start": 12.8566,
      "duration": 0.0171,
      "velocity": 117,
      "chip": "ym2612"
    },
    {
      "channel": 0,
      "note": 57,
      "start": 12.8739,
      "duration": 0.0866,
      "velocity": 117,
      "chip": "ym2612"
    },
    {
      "channel": 1,
      "note": 76,
      "start": 12.8745,
      "duration": 0.0866,
      "velocity": 102,
      "chip": "ym2612"
    },
    {
      "channel": 2,
      "note": 73,
      "start": 12.875,
      "duration": 0.0866,
      "velocity": 102,
      "chip": "ym2612"
    },
    {
      "channel": 0,
      "note": 58,
      "start": 12.9607,
      "duration": 0.2692,
      "velocity": 117,
      "chip": "ym2612"
    },
    {
      "channel": 1,
      "note": 81,
      "start": 12.9613,
      "duration": 0.1686,
      "velocity": 102,
      "chip": "ym2612"
    },
    {
      "channel": 2,
      "note": 76,
      "start": 12.9619,
      "duration": 0.1686,
      "velocity": 102,
      "chip": "ym2612"
    },
    {
      "channel": 1,
      "note": 76,
      "start": 13.1301,
      "duration": 0.1003,
      "velocity": 102,
      "chip": "ym2612"
    },
    {
      "channel": 2,
      "note": 73,
      "start": 13.1307,
      "duration": 0.1003,
      "velocity": 102,
      "chip": "ym2612"
    },
    {
      "channel": 5,
      "note": 103,
      "start": 13.1314,
      "duration": 0.1003,
      "velocity": 127,
      "chip": "ym2612"
    },
    {
      "channel": 0,
      "note": 70,
      "start": 13.23,
      "duration": 0.2767,
      "velocity": 117,
      "chip": "ym2612"
    },
    {
      "channel": 1,
      "note": 73,
      "start": 13.2306,
      "duration": 0.0994,
      "velocity": 102,
      "chip": "ym2612"
    },
    {
      "channel": 2,
      "note": 69,
      "start": 13.2312,
      "duration": 0.0993,
      "velocity": 102,
      "chip": "ym2612"
    },
    {
      "channel": 5,
      "note": 103,
      "start": 13.2319,
      "duration": 0.4625,
      "velocity": 127,
      "chip": "ym2612"
    },
    {
      "channel": 1,
      "note": 69,
      "start": 13.3301,
      "duration": 0.0999,
      "velocity": 102,
      "chip": "ym2612"
    },
    {
      "channel": 2,
      "note": 64,
      "start": 13.3307,
      "duration": 0.1,
      "velocity": 102,
      "chip": "ym2612"
    },
    {
      "channel": 1,
      "note": 64,
      "start": 13.4302,
      "duration": 0.0771,
      "velocity": 102,
      "chip": "ym2612"
    },
    {
      "channel": 2,
      "note": 61,
      "start": 13.4307,
      "duration": 0.0772,
      "velocity": 102,
      "chip": "ym2612"
    },
    {
      "channel": 0,
      "note": 59,
      "start": 13.5069,
      "duration": 0.2852,
      "velocity": 117,
      "chip": "ym2612"
    },
    {
      "channel": 1,
      "note": 71,
      "start": 13.5075,
      "duration": 0.1846,
      "velocity": 102,
      "chip": "ym2612"
    },
    {
      "channel": 2,
      "note": 66,
      "start": 13.5081,
      "duration": 0.1846,
      "velocity": 102,
      "chip": "ym2612"
    },
    {
      "channel": 3,
      "note": 74,
      "start": 13.5087,
      "duration": 0.0835,
      "velocity": 74,
      "chip": "ym2612"
    },
    {
      "channel": 3,
      "note": 75,
      "start": 13.5924,
      "duration": 0.1008,
      "velocity": 74,
      "chip": "ym2612"
    },
    {
      "channel": 1,
      "note": 75,
      "start": 13.6923,
      "duration": 0.1004,
      "velocity": 102,
      "chip": "ym2612"
    },
    {
      "channel": 2,
      "note": 71,
      "start": 13.6928,
      "duration": 0.1004,
      "velocity": 102,
      "chip": "ym2612"
    },
    {
      "channel": 3,
      "note": 74,
      "start": 13.6934,
      "duration": 0.1004,
      "velocity": 74,
      "chip": "ym2612"
    },
    {
      "channel": 4,
      "note": 74,
      "start": 13.694,
      "duration": 0.1003,
      "velocity": 74,
      "chip": "ym2612"
    },
    {
      "channel": 5,
      "note": 103,
      "start": 13.6946,
      "duration": 0.5421,
      "velocity": 127,
      "chip": "ym2612"
    },
    {
      "channel": 0,
      "note": 71,
      "start": 13.7923,
      "duration": 0.1882,
      "velocity": 117,
      "chip": "ym2612"
    },
    {
      "channel": 1,
      "note": 78,
      "start": 13.7928,
      "duration": 0.1852,
      "velocity": 102,
      "chip": "ym2612"
    },
    {
      "channel": 2,
      "note": 75,
      "start": 13.7934,
      "duration": 0.1851,
      "velocity": 102,
      "chip": "ym2612"
    },
    {
      "channel": 3,
      "note": 75,
      "start": 13.7939,
      "duration": 0.0841,
      "velocity": 74,
      "chip": "ym2612"
    },
    {
      "channel": 4,
      "note": 75,
      "start": 13.7945,
      "duration": 0.084,
      "velocity": 74,
      "chip": "ym2612"
    },
    {
      "channel": 3,
      "note": 74,
      "start": 13.8781,
      "duration": 0.101,
      "velocity": 74,
      "chip": "ym2612"
    },
    {
      "channel": 4,
      "note": 74,
      "start": 13.8787,
      "duration": 0.1009,
      "velocity": 74,
      "chip": "ym2612"
    },
    {
      "channel": 1,
      "note": 83,
      "start": 13.9781,
      "duration": 0.2563,
      "velocity": 102,
      "chip": "ym2612"
    },
    {
      "channel": 2,
      "note": 78,
      "start": 13.9787,
      "duration": 0.2563,
      "velocity": 102,
      "chip": "ym2612"
    },
    {
      "channel": 3,
      "note": 75,
      "start": 13.9792,
      "duration": 0.0849,
      "velocity": 74,
      "chip": "ym2612"
    },
    {
      "channel": 4,
      "note": 75,
      "start": 13.9798,
      "duration": 0.0848,
      "velocity": 74,
      "chip": "ym2612"
    },
    {
      "channel": 0,
      "note": 70,
      "start": 13.9805,
      "duration": 0.0101,
      "velocity": 117,
      "chip": "ym2612"
    },
    {
      "channel": 0,
      "note": 68,
      "start": 13.9906,
      "duration": 0.0129,
      "velocity": 117,
      "chip": "ym2612"
    },
    {
      "channel": 0,
      "note": 67,
      "start": 14.0034,
      "duration": 0.0265,
      "velocity": 117,
      "chip": "ym2612"
    },
    {
      "channel": 0,
      "note": 66,
      "start": 14.0299,
      "duration": 0.0163,
      "velocity": 117,
      "chip": "ym2612"
    },
    {
      "channel": 0,
      "note": 66,
      "start": 14.0462,
      "duration": 0.0172,
      "velocity": 117,
      "chip": "ym2612"
    },
    {
      "channel": 0,
      "note": 56,
      "start": 14.0636,
      "duration": 0.1704,
      "velocity": 117,
      "chip": "ym2612"
    },
    {
      "channel": 3,
      "note": 74,
      "start": 14.0642,
      "duration": 0.1714,
      "velocity": 74,
      "chip": "ym2612"
    },
    {
      "channel": 4,
      "note": 74,
      "start": 14.0648,
      "duration": 0.0767,
      "velocity": 74,
      "chip": "ym2612"
    },
    {
      "channel": 4,
      "note": 75,
      "start": 14.1417,
      "duration": 0.0945,
      "velocity": 74,
      "chip": "ym2612"
    },
    {
      "channel": 0,
      "note": 68,
      "start": 14.2341,
      "duration": 0.2999,
      "velocity": 117,
      "chip": "ym2612"
    },
    {
      "channel": 1,
      "note": 78,
      "start": 14.2346,
      "duration": 0.0994,
      "velocity": 102,
      "chip": "ym2612"
    },
    {
      "channel": 2,
      "note": 75,
      "start": 14.2352,
      "duration": 0.0993,
      "velocity": 102,
      "chip": "ym2612"
    },
    {
      "channel": 3,
      "note": 75,
      "start": 14.2358,
      "duration": 0.0993,
      "velocity": 74,
      "chip": "ym2612"
    },
    {
      "channel": 4,
      "note": 74,
      "start": 14.2363,
      "duration": 0.1983,
      "velocity": 74,
      "chip": "ym2612"
    },
    {
      "channel": 5,
      "note": 103,
      "start": 14.2369,
      "duration": 0.0988,
      "velocity": 127,
      "chip": "ym2612"
    },
    {
      "channel": 1,
      "note": 75,
      "start": 14.3341,
      "duration": 0.2004,
      "velocity": 102,
      "chip": "ym2612"
    },
    {
      "channel": 2,
      "note": 71,
      "start": 14.3347,
      "duration": 0.2003,
      "velocity": 102,
      "chip": "ym2612"
    },
    {
      "channel": 3,
      "note": 71,
      "start": 14.3353,
      "duration": 0.0988,
      "velocity": 74,
      "chip": "ym2612"
    },
    {
      "channel": 5,
      "note": 103,
      "start": 14.3359,
      "duration": 0.2851,
      "velocity": 127,
      "chip": "ym2612"
    },
    {
      "channel": 3,
      "note": 68,
      "start": 14.4343,
      "duration": 0.1013,
      "velocity": 74,
      "chip": "ym2612"
    },
    {
      "channel": 4,
      "note": 75,
      "start": 14.4348,
      "duration": 0.1013,
      "velocity": 74,
      "chip": "ym2612"
    },
    {
      "channel": 0,
      "note": 57,
      "start": 14.5341,
      "duration": 0.2855,
      "velocity": 117,
      "chip": "ym2612"
    },
    {
      "channel": 1,
      "note": 69,
      "start": 14.5346,
      "duration": 0.2856,
      "velocity": 102,
      "chip": "ym2612"
    },
    {
      "channel": 2,
      "note": 64,
      "start": 14.5352,
      "duration": 0.2855,
      "velocity": 102,
      "chip": "ym2612"
    },
    {
      "channel": 3,
      "note": 66,
      "start": 14.5358,
      "duration": 0.0841,
      "velocity": 74,
      "chip": "ym2612"
    },
    {
      "channel": 4,
      "note": 71,
      "start": 14.5363,
      "duration": 0.0841,
      "velocity": 74,
      "chip": "ym2612"
    },
    {
      "channel": 3,
      "note": 69,
      "start": 14.62,
      "duration": 0.2848,
      "velocity": 74,
      "chip": "ym2612"
    },
    {
      "channel": 4,
      "note": 68,
      "start": 14.6206,
      "duration": 0.0992,
      "velocity": 74,
      "chip": "ym2612"
    },
    {
      "channel": 5,
      "note": 103,
      "start": 14.6211,
      "duration": 0.2844,
      "velocity": 127,
      "chip": "ym2612"
    },
    {
      "channel": 4,
      "note": 66,
      "start": 14.72,
      "duration": 0.1013,
      "velocity": 74,
      "chip": "ym2612"
    },
    {
      "channel": 0,
      "note": 69,
      "start": 14.8198,
      "duration": 0.1843,
      "velocity": 117,
      "chip": "ym2612"
    },
    {
      "channel": 1,
      "note": 69,
      "start": 14.8204,
      "duration": 0.0834,
      "velocity": 102,
      "chip": "ym2612"
    },
    {
      "channel": 2,
      "note": 64,
      "start": 14.8209,
      "duration": 0.0834,
      "velocity": 102,
      "chip": "ym2612"
    },
    {
      "channel": 4,
      "note": 69,
      "start": 14.8215,
      "duration": 0.2839,
      "velocity": 74,
      "chip": "ym2612"
    },
    {
      "channel": 1,
      "note": 73,
      "start": 14.9039,
      "duration": 0.2003,
      "velocity": 102,
      "chip": "ym2612"
    },
    {
      "channel": 2,
      "note": 69,
      "start": 14.9045,
      "duration": 0.2003,
      "velocity": 102,
      "chip": "ym2612"
    },
    {
      "channel": 3,
      "note": 68,
      "start": 14.9051,
      "duration": 0.2844,
      "velocity": 74,
      "chip": "ym2612"
    },
    {
      "channel": 5,
      "note": 103,
      "start": 14.9057,
      "duration": 0.4545,
      "velocity": 127,
      "chip": "ym2612"
    },
    {
      "channel": 0,
      "note": 68,
      "start": 15.0041,
      "duration": 0.0158,
      "velocity": 117,
      "chip": "ym2612"
    },
    {
      "channel": 0,
      "note": 67,
      "start": 15.0199,
      "duration": 0.0167,
      "velocity": 117,
      "chip": "ym2612"
    },
    {
      "channel": 0,
      "note": 66,
      "start": 15.0366,
      "duration": 0.0333,
      "velocity": 117,
      "chip": "ym2612"
    },
    {
      "channel": 0,
      "note": 65,
      "start": 15.0699,
      "duration": 0.0167,
      "velocity": 117,
      "chip": "ym2612"
    },
    {
      "channel": 0,
      "note": 64,
      "start": 15.0866,
      "duration": 0.0171,
      "velocity": 117,
      "chip": "ym2612"
    },
    {
      "channel": 0,
      "note": 57,
      "start": 15.1039,
      "duration": 0.0839,
      "velocity": 117,
      "chip": "ym2612"
    },
    {
      "channel": 1,
      "note": 76,
      "start": 15.1044,
      "duration": 0.0839,
      "velocity": 102,
      "chip": "ym2612"
    },
    {
      "channel": 2,
      "note": 73,
      "start": 15.1049,
      "duration": 0.0839,
      "velocity": 102,
      "chip": "ym2612"
    },
    {
      "channel": 4,
      "note": 68,
      "start": 15.1056,
      "duration": 0.254,
      "velocity": 74,
      "chip": "ym2612"
    },
    {
      "channel": 0,
      "note": 58,
      "start": 15.188,
      "duration": 0.2699,
      "velocity": 117,
      "chip": "ym2612"
    },
    {
      "channel": 1,
      "note": 81,
      "start": 15.1885,
      "duration": 0.1694,
      "velocity": 102,
      "chip": "ym2612"
    },
    {
      "channel": 2,
      "note": 76,
      "start": 15.1891,
      "duration": 0.1694,
      "velocity": 102,
      "chip": "ym2612"
    },
    {
      "channel": 3,
      "note": 66,
      "start": 15.1896,
      "duration": 0.1694,
      "velocity": 74,
      "chip": "ym2612"
    },
    {
      "channel": 1,
      "note": 76,
      "start": 15.3581,
      "duration": 0.1003,
      "velocity": 102,
      "chip": "ym2612"
    },
    {
      "channel": 2,
      "note": 73,
      "start": 15.3587,
      "duration": 0.1003,
      "velocity": 102,
      "chip": "ym2612"
    },
    {
      "channel": 3,
      "note": 62,
      "start": 15.3593,
      "duration": 0.1003,
      "velocity": 74,
      "chip": "ym2612"
    },
    {
      "channel": 4,
      "note": 66,
      "start": 15.3598,
      "duration": 0.1999,
      "velocity": 74,
      "chip": "ym2612"
    },
    {
      "channel": 5,
      "note": 103,
      "start": 15.3603,
      "duration": 0.0999,
      "velocity": 127,
      "chip": "ym2612"
    },
    {
      "channel": 0,
      "note": 70,
      "start": 15.458,
      "duration": 0.2999,
      "velocity": 117,
      "chip": "ym2612"
    },
    {
      "channel": 1,
      "note": 73,
      "start": 15.4586,
      "duration": 0.0994,
      "velocity": 102,
      "chip": "ym2612"
    },
    {
      "channel": 2,
      "note": 69,
      "start": 15.4592,
      "duration": 0.0993,
      "velocity": 102,
      "chip": "ym2612"
    },
    {
      "channel": 3,
      "note": 63,
      "start": 15.4598,
      "duration": 0.0993,
      "velocity": 74,
      "chip": "ym2612"
    },
    {
      "channel": 5,
      "note": 103,
      "start": 15.4604,
      "duration": 0.1998,
      "velocity": 127,
      "chip": "ym2612"
    },
    {
      "channel": 1,
      "note": 69,
      "start": 15.5581,
      "duration": 0.0998,
      "velocity": 102,
      "chip": "ym2612"
    },
    {
      "channel": 2,
      "note": 64,
      "start": 15.5587,
      "duration": 0.0998,
      "velocity": 102,
      "chip": "ym2612"
    },
    {
      "channel": 3,
      "note": 66,
      "start": 15.5593,
      "duration": 0.0998,
      "velocity": 74,
      "chip": "ym2612"
    },
    {
      "channel": 4,
      "note": 62,
      "start": 15.5598,
      "duration": 0.0998,
      "velocity": 74,
      "chip": "ym2612"
    },
    {
      "channel": 1,
      "note": 64,
      "start": 15.6581,
      "duration": 0.1003,
      "velocity": 102,
      "chip": "ym2612"
    },
    {
      "channel": 2,
      "note": 61,
      "start": 15.6586,
      "duration": 0.1004,
      "velocity": 102,
      "chip": "ym2612"
    },
    {
      "channel": 3,
      "note": 69,
      "start": 15.6592,
      "duration": 0.1004,
      "velocity": 74,
      "chip": "ym2612"
    },
    {
      "channel": 4,
      "note": 63,
      "start": 15.6598,
      "duration": 0.1004,
      "velocity": 74,
      "chip": "ym2612"
    },
    {
      "channel": 5,
      "note": 103,
      "start": 15.6603,
      "duration": 0.2852,
      "velocity": 127,
      "chip": "ym2612"
    },
    {
      "channel": 0,
      "note": 59,
      "start": 15.758,
      "duration": 0.2852,
      "velocity": 117,
      "chip": "ym2612"
    },
    {
      "channel": 1,
      "note": 71,
      "start": 15.7586,
      "duration": 0.1846,
      "velocity": 102,
      "chip": "ym2612"
    },
    {
      "channel": 2,
      "note": 66,
      "start": 15.7592,
      "duration": 0.1846,
      "velocity": 102,
      "chip": "ym2612"
    },
    {
      "channel": 3,
      "note": 74,
      "start": 15.7598,
      "duration": 0.0837,
      "velocity": 74,
      "chip": "ym2612"
    },
    {
      "channel": 4,
      "note": 66,
      "start": 15.7602,
      "duration": 0.0837,
      "velocity": 74,
      "chip": "ym2612"
    },
    {
      "channel": 3,
      "note": 75,
      "start": 15.8436,
      "duration": 0.1008,
      "velocity": 74,
      "chip": "ym2612"
    },
    {
      "channel": 4,
      "note": 69,
      "start": 15.8441,
      "duration": 0.1008,
      "velocity": 74,
      "chip": "ym2612"
    },
    {
      "channel": 1,
      "note": 75,
      "start": 15.9434,
      "duration": 0.1003,
      "velocity": 102,
      "chip": "ym2612"
    },
    {
      "channel": 2,
      "note": 71,
      "start": 15.944,
      "duration": 0.1003,
      "velocity": 102,
      "chip": "ym2612"
    },
    {
      "channel": 3,
      "note": 74,
      "start": 15.9445,
      "duration": 0.1004,
      "velocity": 74,
      "chip": "ym2612"
    },
    {
      "channel": 4,
      "note": 74,
      "start": 15.9451,
      "duration": 0.1004,
      "velocity": 74,
      "chip": "ym2612"
    },
    {
      "channel": 5,
      "note": 103,
      "start": 15.9456,
      "duration": 0.542,
      "velocity": 127,
      "chip": "ym2612"
    },
    {
      "channel": 0,
      "note": 71,
      "start": 16.0434,
      "duration": 0.1879,
      "velocity": 117,
      "chip": "ym2612"
    },
    {
      "channel": 1,
      "note": 78,
      "start": 16.0439,
      "duration": 0.1848,
      "velocity": 102,
      "chip": "ym2612"
    },
    {
      "channel": 2,
      "note": 75,
      "start": 16.0445,
      "duration": 0.1847,
      "velocity": 102,
      "chip": "ym2612"
    },
    {
      "channel": 3,
      "note": 75,
      "start": 16.0451,
      "duration": 0.0837,
      "velocity": 74,
      "chip": "ym2612"
    },
    {
      "channel": 4,
      "note": 75,
      "start": 16.0456,
      "duration": 0.0837,
      "velocity": 74,
      "chip": "ym2612"
    },
    {
      "channel": 3,
      "note": 74,
      "start": 16.1289,
      "duration": 0.101,
      "velocity": 74,
      "chip": "ym2612"
    },
    {
      "channel": 4,
      "note": 74,
      "start": 16.1295,
      "duration": 0.1009,
      "velocity": 74,
      "chip": "ym2612"
    },
    {
      "channel": 1,
      "note": 83,
      "start": 16.2289,
      "duration": 0.2564,
      "velocity": 102,
      "chip": "ym2612"
    },
    {
      "channel": 2,
      "note": 78,
      "start": 16.2295,
      "duration": 0.2564,
      "velocity": 102,
      "chip": "ym2612"
    },
    {
      "channel": 3,
      "note": 75,
      "start": 16.23,
      "duration": 0.0856,
      "velocity": 74,
      "chip": "ym2612"
    },
    {
      "channel": 4,
      "note": 75,
      "start": 16.2305,
      "duration": 0.0855,
      "velocity": 74,
      "chip": "ym2612"
    },
    {
      "channel": 0,
      "note": 70,
      "start": 16.2312,
      "duration": 0.0101,
      "velocity": 117,
      "chip": "ym2612"
    },
    {
      "channel": 0,
      "note": 68,
      "start": 16.2413,
      "duration": 0.0129,
      "velocity": 117,
      "chip": "ym2612"
    },
    {
      "channel": 0,
      "note": 67,
      "start": 16.2542,
      "duration": 0.0272,
      "velocity": 117,
      "chip": "ym2612"
    },
    {
      "channel": 0,
      "note": 66,
      "start": 16.2813,
      "duration": 0.0163,
      "velocity": 117,
      "chip": "ym2612"
    },
    {
      "channel": 0,
      "note": 66,
      "start": 16.2977,
      "duration": 0.0172,
      "velocity": 117,
      "chip": "ym2612"
    },
    {
      "channel": 0,
      "note": 56,
      "start": 16.3151,
      "duration": 0.1698,
      "velocity": 117,
      "chip": "ym2612"
    },
    {
      "channel": 3,
      "note": 74,
      "start": 16.3157,
      "duration": 0.1708,
      "velocity": 74,
      "chip": "ym2612"
    },
    {
      "channel": 4,
      "note": 74,
      "start": 16.3163,
      "duration": 0.0761,
      "velocity": 74,
      "chip": "ym2612"
    },
    {
      "channel": 4,
      "note": 75,
      "start": 16.3925,
      "duration": 0.0946,
      "velocity": 74,
      "chip": "ym2612"
    },
    {
      "channel": 0,
      "note": 68,
      "start": 16.4849,
      "duration": 0.2999,
      "velocity": 117,
      "chip": "ym2612"
    },
    {
      "channel": 1,
      "note": 78,
      "start": 16.4855,
      "duration": 0.0994,
      "velocity": 102,
      "chip": "ym2612"
    },
    {
      "channel": 2,
      "note": 75,
      "start": 16.4861,
      "duration": 0.0993,
      "velocity": 102,
      "chip": "ym2612"
    },
    {
      "channel": 3,
      "note": 76,
      "start": 16.4867,
      "duration": 0.0993,
      "velocity": 74,
      "chip": "ym2612"
    },
    {
      "channel": 4,
      "note": 74,
      "start": 16.4872,
      "duration": 0.1978,
      "velocity": 74,
      "chip": "ym2612"
    },
    {
      "channel": 5,
      "note": 103,
      "start": 16.4878,
      "duration": 0.0988,
      "velocity": 127,
      "chip": "ym2612"
    },
    {
      "channel": 1,
      "note": 75,
      "start": 16.585,
      "duration": 0.2003,
      "velocity": 102,
      "chip": "ym2612"
    },
    {
      "channel": 2,
      "note": 71,
      "start": 16.5856,
      "duration": 0.2003,
      "velocity": 102,
      "chip": "ym2612"
    },
    {
      "channel": 3,
      "note": 77,
      "start": 16.5862,
      "duration": 0.2003,
      "velocity": 74,
      "chip": "ym2612"
    },
    {
      "channel": 5,
      "note": 103,
      "start": 16.5868,
      "duration": 0.2837,
      "velocity": 127,
      "chip": "ym2612"
    },
    {
      "channel": 4,
      "note": 76,
      "start": 16.6852,
      "duration": 0.1019,
      "velocity": 74,
      "chip": "ym2612"
    },
    {
      "channel": 0,
      "note": 57,
      "start": 16.7849,
      "duration": 0.2851,
      "velocity": 117,
      "chip": "ym2612"
    },
    {
      "channel": 1,
      "note": 69,
      "start": 16.7855,
      "duration": 0.2851,
      "velocity": 102,
      "chip": "ym2612"
    },
    {
      "channel": 2,
      "note": 64,
      "start": 16.7861,
      "duration": 0.2851,
      "velocity": 102,
      "chip": "ym2612"
    },
    {
      "channel": 3,
      "note": 78,
      "start": 16.7867,
      "duration": 1.2061,
      "velocity": 74,
      "chip": "ym2612"
    },
    {
      "channel": 4,
      "note": 77,
      "start": 16.7872,
      "duration": 0.183,
      "velocity": 74,
      "chip": "ym2612"
    },
    {
      "channel": 5,
      "note": 103,
      "start": 16.8707,
      "duration": 0.2856,
      "velocity": 127,
      "chip": "ym2612"
    },
    {
      "channel": 4,
      "note": 78,
      "start": 16.9704,
      "duration": 1.0245,
      "velocity": 108,
      "chip": "ym2612"
    },
    {
      "channel": 0,
      "note": 69,
      "start": 17.0703,
      "duration": 0.1851,
      "velocity": 117,
      "chip": "ym2612"
    },
    {
      "channel": 1,
      "note": 69,
      "start": 17.0708,
      "duration": 0.0842,
      "velocity": 102,
      "chip": "ym2612"
    },
    {
      "channel": 2,
      "note": 64,
      "start": 17.0714,
      "duration": 0.0842,
      "velocity": 102,
      "chip": "ym2612"
    },
    {
      "channel": 1,
      "note": 73,
      "start": 17.1552,
      "duration": 0.2004,
      "velocity": 102,
      "chip": "ym2612"
    },
    {
      "channel": 2,
      "note": 69,
      "start": 17.1558,
      "duration": 0.2003,
      "velocity": 102,
      "chip": "ym2612"
    },
    {
      "channel": 5,
      "note": 103,
      "start": 17.1565,
      "duration": 0.456,
      "velocity": 127,
      "chip": "ym2612"
    },
    {
      "channel": 0,
      "note": 68,
      "start": 17.2554,
      "duration": 0.0158,
      "velocity": 117,
      "chip": "ym2612"
    },
    {
      "channel": 0,
      "note": 67,
      "start": 17.2712,
      "duration": 0.0167,
      "velocity": 117,
      "chip": "ym2612"
    },
    {
      "channel": 0,
      "note": 66,
      "start": 17.2879,
      "duration": 0.0333,
      "velocity": 117,
      "chip": "ym2612"
    },
    {
      "channel": 0,
      "note": 65,
      "start": 17.3212,
      "duration": 0.0167,
      "velocity": 117,
      "chip": "ym2612"
    },
    {
      "channel": 0,
      "note": 64,
      "start": 17.3379,
      "duration": 0.0171,
      "velocity": 117,
      "chip": "ym2612"
    },
    {
      "channel": 0,
      "note": 57,
      "start": 17.3552,
      "duration": 0.0866,
      "velocity": 117,
      "chip": "ym2612"
    },
    {
      "channel": 1,
      "note": 76,
      "start": 17.3557,
      "duration": 0.0866,
      "velocity": 102,
      "chip": "ym2612"
    },
    {
      "channel": 2,
      "note": 73,
      "start": 17.3563,
      "duration": 0.0866,
      "velocity": 102,
      "chip": "ym2612"
    },
    {
      "channel": 0,
      "note": 58,
      "start": 17.442,
      "duration": 0.2692,
      "velocity": 117,
      "chip": "ym2612"
    },
    {
      "channel": 1,
      "note": 81,
      "start": 17.4425,
      "duration": 0.1686,
      "velocity": 102,
      "chip": "ym2612"
    },
    {
      "channel": 2,
      "note": 76,
      "start": 17.4431,
      "duration": 0.1686,
      "velocity": 102,
      "chip": "ym2612"
    },
    {
      "channel": 1,
      "note": 76,
      "start": 17.6113,
      "duration": 0.1004,
      "velocity": 102,
      "chip": "ym2612"
    },
    {
      "channel": 2,
      "note": 73,
      "start": 17.6119,
      "duration": 0.1003,
      "velocity": 102,
      "chip": "ym2612"
    },
    {
      "channel": 5,
      "note": 103,
      "start": 17.6126,
      "duration": 0.1003,
      "velocity": 127,
      "chip": "ym2612"
    },
    {
      "channel": 0,
      "note": 70,
      "start": 17.7113,
      "duration": 0.2766,
      "velocity": 117,
      "chip": "ym2612"
    },
    {
      "channel": 1,
      "note": 73,
      "start": 17.7119,
      "duration": 0.0994,
      "velocity": 102,
      "chip": "ym2612"
    },
    {
      "channel": 2,
      "note": 69,
      "start": 17.7124,
      "duration": 0.0993,
      "velocity": 102,
      "chip": "ym2612"
    },
    {
      "channel": 5,
      "note": 103,
      "start": 17.7131,
      "duration": 0.4631,
      "velocity": 127,
      "chip": "ym2612"
    },
    {
      "channel": 1,
      "note": 69,
      "start": 17.8113,
      "duration": 0.0999,
      "velocity": 102,
      "chip": "ym2612"
    },
    {
      "channel": 2,
      "note": 64,
      "start": 17.8119,
      "duration": 0.1,
      "velocity": 102,
      "chip": "ym2612"
    },
    {
      "channel": 1,
      "note": 64,
      "start": 17.9115,
      "duration": 0.0786,
      "velocity": 108,
      "chip": "ym2612"
    },
    {
      "channel": 2,
      "note": 61,
      "start": 17.912,
      "duration": 0.0802,
      "velocity": 108,
      "chip": "ym2612"
    },
    {
      "channel": 0,
      "note": 52,
      "start": 17.9881,
      "duration": 0.2858,
      "velocity": 117,
      "chip": "ym2612"
    },
    {
      "channel": 1,
      "note": 68,
      "start": 17.9902,
      "duration": 0.2843,
      "velocity": 108,
      "chip": "ym2612"
    },
    {
      "channel": 2,
      "note": 71,
      "start": 17.9923,
      "duration": 0.2827,
      "velocity": 108,
      "chip": "ym2612"
    },
    {
      "channel": 3,
      "note": 76,
      "start": 17.993,
      "duration": 0.1825,
      "velocity": 74,
      "chip": "ym2612"
    },
    {
      "channel": 4,
      "note": 76,
      "start": 17.9951,
      "duration": 0.2826,
      "velocity": 108,
      "chip": "ym2612"
    },
    {
      "channel": 3,
      "note": 76,
      "start": 18.1757,
      "duration": 0.1015,
      "velocity": 74,
      "chip": "ym2612"
    },
    {
      "channel": 5,
      "note": 103,
      "start": 18.1764,
      "duration": 0.5417,
      "velocity": 127,
      "chip": "ym2612"
    },
    {
      "channel": 0,
      "note": 64,
      "start": 18.2741,
      "duration": 0.2707,
      "velocity": 117,
      "chip": "ym2612"
    },
    {
      "channel": 1,
      "note": 68,
      "start": 18.2746,
      "duration": 0.1867,
      "velocity": 108,
      "chip": "ym2612"
    },
    {
      "channel": 2,
      "note": 71,
      "start": 18.2752,
      "duration": 0.8279,
      "velocity": 108,
      "chip": "ym2612"
    },
    {
      "channel": 3,
      "note": 80,
      "start": 18.2773,
      "duration": 0.1861,
      "velocity": 74,
      "chip": "ym2612"
    },
    {
      "channel": 4,
      "note": 76,
      "start": 18.2779,
      "duration": 1.968,
      "velocity": 108,
      "chip": "ym2612"
    },
    {
      "channel": 1,
      "note": 52,
      "start": 18.4615,
      "duration": 0.2554,
      "velocity": 108,
      "chip": "ym2612"
    },
    {
      "channel": 3,
      "note": 80,
      "start": 18.4636,
      "duration": 0.0834,
      "velocity": 74,
      "chip": "ym2612"
    },
    {
      "channel": 0,
      "note": 50,
      "start": 18.5449,
      "duration": 0.1715,
      "velocity": 117,
      "chip": "ym2612"
    },
    {
      "channel": 3,
      "note": 76,
      "start": 18.5472,
      "duration": 0.1703,
      "velocity": 74,
      "chip": "ym2612"
    },
    {
      "channel": 0,
      "note": 52,
      "start": 18.7165,
      "duration": 0.2998,
      "velocity": 117,
      "chip": "ym2612"
    },
    {
      "channel": 1,
      "note": 50,
      "start": 18.7171,
      "duration": 0.0994,
      "velocity": 108,
      "chip": "ym2612"
    },
    {
      "channel": 3,
      "note": 73,
      "start": 18.7177,
      "duration": 0.0993,
      "velocity": 74,
      "chip": "ym2612"
    },
    {
      "channel": 5,
      "note": 103,
      "start": 18.7183,
      "duration": 0.0993,
      "velocity": 127,
      "chip": "ym2612"
    },
    {
      "channel": 1,
      "note": 52,
      "start": 18.8165,
      "duration": 0.286,
      "velocity": 120,
      "chip": "ym2612"
    },
    {
      "channel": 3,
      "note": 71,
      "start": 18.8172,
      "duration": 0.1009,
      "velocity": 74,
      "chip": "ym2612"
    },
    {
      "channel": 5,
      "note": 103,
      "start": 18.8178,
      "duration": 0.286,
      "velocity": 127,
      "chip": "ym2612"
    },
    {
      "channel": 3,
      "note": 73,
      "start": 18.9183,
      "duration": 0.1003,
      "velocity": 74,
      "chip": "ym2612"
    },
    {
      "channel": 0,
      "note": 52,
      "start": 19.0165,
      "duration": 0.2844,
      "velocity": 117,
      "chip": "ym2612"
    },
    {
      "channel": 3,
      "note": 76,
      "start": 19.0188,
      "duration": 0.1839,
      "velocity": 74,
      "chip": "ym2612"
    },
    {
      "channel": 1,
      "note": 55,
      "start": 19.1027,
      "duration": 0.1987,
      "velocity": 120,
      "chip": "ym2612"
    },
    {
      "channel": 2,
      "note": 76,
      "start": 19.1032,
      "duration": 0.1988,
      "velocity": 108,
      "chip": "ym2612"
    },
    {
      "channel": 5,
      "note": 103,
      "start": 19.1039,
      "duration": 0.2826,
      "velocity": 127,
      "chip": "ym2612"
    },
    {
      "channel": 3,
      "note": 76,
      "start": 19.2028,
      "duration": 0.1013,
      "velocity": 74,
      "chip": "ym2612"
    },
    {
      "channel": 0,
      "note": 64,
      "start": 19.3011,
      "duration": 0.2836,
      "velocity": 117,
      "chip": "ym2612"
    },
    {
      "channel": 1,
      "note": 55,
      "start": 19.3016,
      "duration": 0.0831,
      "velocity": 120,
      "chip": "ym2612"
    },
    {
      "channel": 2,
      "note": 74,
      "start": 19.3022,
      "duration": 0.0832,
      "velocity": 108,
      "chip": "ym2612"
    },
    {
      "channel": 3,
      "note": 76,
      "start": 19.3043,
      "duration": 0.0816,
      "velocity": 74,
      "chip": "ym2612"
    },
    {
      "channel": 1,
      "note": 55,
      "start": 19.3849,
      "duration": 0.2003,
      "velocity": 120,
      "chip": "ym2612"
    },
    {
      "channel": 2,
      "note": 71,
      "start": 19.3855,
      "duration": 0.2003,
      "velocity": 108,
      "chip": "ym2612"
    },
    {
      "channel": 3,
      "note": 78,
      "start": 19.386,
      "duration": 0.2019,
      "velocity": 74,
      "chip": "ym2612"
    },
    {
      "channel": 5,
      "note": 103,
      "start": 19.3867,
      "duration": 0.4572,
      "velocity": 127,
      "chip": "ym2612"
    },
    {
      "channel": 0,
      "note": 50,
      "start": 19.5849,
      "duration": 0.2556,
      "velocity": 117,
      "chip": "ym2612"
    },
    {
      "channel": 1,
      "note": 55,
      "start": 19.5854,
      "duration": 0.0862,
      "velocity": 108,
      "chip": "ym2612"
    },
    {
      "channel": 2,
      "note": 70,
      "start": 19.586,
      "duration": 0.2551,
      "velocity": 108,
      "chip": "ym2612"
    },
    {
      "channel": 3,
      "note": 78,
      "start": 19.5881,
      "duration": 0.0857,
      "velocity": 74,
      "chip": "ym2612"
    },
    {
      "channel": 1,
      "note": 50,
      "start": 19.6718,
      "duration": 0.2692,
      "velocity": 108,
      "chip": "ym2612"
    },
    {
      "channel": 3,
      "note": 79,
      "start": 19.674,
      "duration": 0.1692,
      "velocity": 74,
      "chip": "ym2612"
    },
    {
      "channel": 0,
      "note": 50,
      "start": 19.8406,
      "duration": 0.0998,
      "velocity": 117,
      "chip": "ym2612"
    },
    {
      "channel": 2,
      "note": 69,
      "start": 19.8412,
      "duration": 0.1004,
      "velocity": 108,
      "chip": "ym2612"
    },
    {
      "channel": 3,
      "note": 79,
      "start": 19.8434,
      "duration": 0.1003,
      "velocity": 74,
      "chip": "ym2612"
    },
    {
      "channel": 5,
      "note": 103,
      "start": 19.844,
      "duration": 0.1003,
      "velocity": 127,
      "chip": "ym2612"
    },
    {
      "channel": 0,
      "note": 52,
      "start": 19.9406,
      "duration": 0.2999,
      "velocity": 117,
      "chip": "ym2612"
    },
    {
      "channel": 1,
      "note": 52,
      "start": 19.9412,
      "duration": 0.3014,
      "velocity": 108,
      "chip": "ym2612"
    },
    {
      "channel": 2,
      "note": 67,
      "start": 19.9417,
      "duration": 0.0988,
      "velocity": 108,
      "chip": "ym2612"
    },
    {
      "channel": 3,
      "note": 80,
      "start": 19.9439,
      "duration": 0.1988,
      "velocity": 74,
      "chip": "ym2612"
    },
    {
      "channel": 5,
      "note": 103,
      "start": 19.9445,
      "duration": 0.1988,
      "velocity": 127,
      "chip": "ym2612"
    },
    {
      "channel": 2,
      "note": 64,
      "start": 20.0408,
      "duration": 0.0998,
      "velocity": 108,
      "chip": "ym2612"
    },
    {
      "channel": 2,
      "note": 62,
      "start": 20.1407,
      "duration": 0.1025,
      "velocity": 108,
      "chip": "ym2612"
    },
    {
      "channel": 3,
      "note": 80,
      "start": 20.1428,
      "duration": 0.1025,
      "velocity": 74,
      "chip": "ym2612"
    },
    {
      "channel": 5,
      "note": 103,
      "start": 20.1434,
      "duration": 0.2832,
      "velocity": 127,
      "chip": "ym2612"
    },
    {
      "channel": 0,
      "note": 54,
      "start": 20.2407,
      "duration": 0.2837,
      "velocity": 117,
      "chip": "ym2612"
    },
    {
      "channel": 1,
      "note": 66,
      "start": 20.2428,
      "duration": 0.2821,
      "velocity": 108,
      "chip": "ym2612"
    },
    {
      "channel": 2,
      "note": 71,
      "start": 20.2434,
      "duration": 0.2821,
      "velocity": 108,
      "chip": "ym2612"
    },
    {
      "channel": 3,
      "note": 78,
      "start": 20.2455,
      "duration": 0.1805,
      "velocity": 74,
      "chip": "ym2612"
    },
    {
      "channel": 4,
      "note": 73,
      "start": 20.2461,
      "duration": 0.2821,
      "velocity": 108,
      "chip": "ym2612"
    },
    {
      "channel": 3,
      "note": 78,
      "start": 20.4261,
      "duration": 0.1015,
      "velocity": 74,
      "chip": "ym2612"
    },
    {
      "channel": 5,
      "note": 103,
      "start": 20.4268,
      "duration": 0.5391,
      "velocity": 127,
      "chip": "ym2612"
    },
    {
      "channel": 0,
      "note": 66,
      "start": 20.5245,
      "duration": 0.2681,
      "velocity": 117,
      "chip": "ym2612"
    },
    {
      "channel": 1,
      "note": 66,
      "start": 20.5251,
      "duration": 0.1847,
      "velocity": 108,
      "chip": "ym2612"
    },
    {
      "channel": 2,
      "note": 71,
      "start": 20.5256,
      "duration": 1.6701,
      "velocity": 93,
      "chip": "ym2612"
    },
    {
      "channel": 3,
      "note": 82,
      "start": 20.5277,
      "duration": 0.1841,
      "velocity": 74,
      "chip": "ym2612"
    },
    {
      "channel": 4,
      "note": 73,
      "start": 20.5283,
      "duration": 2.1296,
      "velocity": 74,
      "chip": "ym2612"
    },
    {
      "channel": 1,
      "note": 54,
      "start": 20.7099,
      "duration": 0.2531,
      "velocity": 108,
      "chip": "ym2612"
    },
    {
      "channel": 3,
      "note": 82,
      "start": 20.7121,
      "duration": 0.0827,
      "velocity": 74,
      "chip": "ym2612"
    },
    {
      "channel": 0,
      "note": 52,
      "start": 20.7928,
      "duration": 0.1697,
      "velocity": 117,
      "chip": "ym2612"
    },
    {
      "channel": 3,
      "note": 78,
      "start": 20.795,
      "duration": 0.0767,
      "velocity": 74,
      "chip": "ym2612"
    },
    {
      "channel": 3,
      "note": 82,
      "start": 20.8719,
      "duration": 0.0933,
      "velocity": 74,
      "chip": "ym2612"
    },
    {
      "channel": 0,
      "note": 54,
      "start": 20.9626,
      "duration": 0.2998,
      "velocity": 117,
      "chip": "ym2612"
    },
    {
      "channel": 1,
      "note": 52,
      "start": 20.9632,
      "duration": 0.0994,
      "velocity": 108,
      "chip": "ym2612"
    },
    {
      "channel": 3,
      "note": 75,
      "start": 20.9654,
      "duration": 0.0977,
      "velocity": 74,
      "chip": "ym2612"
    },
    {
      "channel": 5,
      "note": 103,
      "start": 20.9661,
      "duration": 0.0977,
      "velocity": 127,
      "chip": "ym2612"
    },
    {
      "channel": 1,
      "note": 54,
      "start": 21.0627,
      "duration": 0.2868,
      "velocity": 120,
      "chip": "ym2612"
    },
    {
      "channel": 3,
      "note": 73,
      "start": 21.0633,
      "duration": 0.1009,
      "velocity": 74,
      "chip": "ym2612"
    },
    {
      "channel": 5,
      "note": 103,
      "start": 21.0639,
      "duration": 0.2883,
      "velocity": 127,
      "chip": "ym2612"
    },
    {
      "channel": 3,
      "note": 75,
      "start": 21.1644,
      "duration": 0.1003,
      "velocity": 74,
      "chip": "ym2612"
    },
    {
      "channel": 0,
      "note": 54,
      "start": 21.2626,
      "duration": 0.2852,
      "velocity": 117,
      "chip": "ym2612"
    },
    {
      "channel": 3,
      "note": 78,
      "start": 21.2649,
      "duration": 0.0868,
      "velocity": 74,
      "chip": "ym2612"
    },
    {
      "channel": 1,
      "note": 43,
      "start": 21.3496,
      "duration": 0.1988,
      "velocity": 120,
      "chip": "ym2612"
    },
    {
      "channel": 3,
      "note": 75,
      "start": 21.3518,
      "duration": 0.0962,
      "velocity": 74,
      "chip": "ym2612"
    },
    {
      "channel": 5,
      "note": 103,
      "start": 21.3525,
      "duration": 0.2837,
      "velocity": 127,
      "chip": "ym2612"
    },
    {
      "channel": 3,
      "note": 78,
      "start": 21.4482,
      "duration": 0.1023,
      "velocity": 74,
      "chip": "ym2612"
    },
    {
      "channel": 0,
      "note": 66,
      "start": 21.548,
      "duration": 0.2869,
      "velocity": 117,
      "chip": "ym2612"
    },
    {
      "channel": 1,
      "note": 55,
      "start": 21.5485,
      "duration": 0.0865,
      "velocity": 120,
      "chip": "ym2612"
    },
    {
      "channel": 3,
      "note": 78,
      "start": 21.5507,
      "duration": 0.0848,
      "velocity": 74,
      "chip": "ym2612"
    },
    {
      "channel": 1,
      "note": 43,
      "start": 21.6351,
      "duration": 0.2004,
      "velocity": 120,
      "chip": "ym2612"
    },
    {
      "channel": 3,
      "note": 80,
      "start": 21.6358,
      "duration": 0.1009,
      "velocity": 74,
      "chip": "ym2612"
    },
    {
      "channel": 5,
      "note": 103,
      "start": 21.6364,
      "duration": 0.4595,
      "velocity": 127,
      "chip": "ym2612"
    },
    {
      "channel": 3,
      "note": 78,
      "start": 21.7368,
      "duration": 0.1008,
      "velocity": 74,
      "chip": "ym2612"
    },
    {
      "channel": 0,
      "note": 52,
      "start": 21.8351,
      "duration": 0.2579,
      "velocity": 117,
      "chip": "ym2612"
    },
    {
      "channel": 1,
      "note": 55,
      "start": 21.8356,
      "duration": 0.0881,
      "velocity": 108,
      "chip": "ym2612"
    },
    {
      "channel": 3,
      "note": 78,
      "start": 21.8379,
      "duration": 0.0864,
      "velocity": 74,
      "chip": "ym2612"
    },
    {
      "channel": 1,
      "note": 52,
      "start": 21.9238,
      "duration": 0.2698,
      "velocity": 108,
      "chip": "ym2612"
    },
    {
      "channel": 3,
      "note": 81,
      "start": 21.9245,
      "duration": 0.0778,
      "velocity": 74,
      "chip": "ym2612"
    },
    {
      "channel": 3,
      "note": 78,
      "start": 22.0024,
      "duration": 0.0928,
      "velocity": 74,
      "chip": "ym2612"
    },
    {
      "channel": 0,
      "note": 52,
      "start": 22.0932,
      "duration": 0.0999,
      "velocity": 117,
      "chip": "ym2612"
    },
    {
      "channel": 3,
      "note": 78,
      "start": 22.0954,
      "duration": 0.101,
      "velocity": 74,
      "chip": "ym2612"
    },
    {
      "channel": 5,
      "note": 103,
      "start": 22.0961,
      "duration": 0.101,
      "velocity": 127,
      "chip": "ym2612"
    },
    {
      "channel": 0,
      "note": 54,
      "start": 22.1932,
      "duration": 0.2772,
      "velocity": 117,
      "chip": "ym2612"
    },
    {
      "channel": 1,
      "note": 54,
      "start": 22.1938,
      "duration": 0.2788,
      "velocity": 102,
      "chip": "ym2612"
    },
    {
      "channel": 2,
      "note": 21,
      "start": 22.196,
      "duration": 0.0015,
      "velocity": 93,
      "chip": "ym2612"
    },
    {
      "channel": 3,
      "note": 82,
      "start": 22.1965,
      "duration": 0.0983,
      "velocity": 74,
      "chip": "ym2612"
    },
    {
      "channel": 5,
      "note": 103,
      "start": 22.1971,
      "duration": 0.4615,
      "velocity": 127,
      "chip": "ym2612"
    },
    {
      "channel": 2,
      "note": 22,
      "start": 22.1975,
      "duration": 0.0118,
      "velocity": 93,
      "chip": "ym2612"
    },
    {
      "channel": 2,
      "note": 24,
      "start": 22.2093,
      "duration": 0.0167,
      "velocity": 93,
      "chip": "ym2612"
    },
    {
      "channel": 2,
      "note": 25,
      "start": 22.2261,
      "duration": 0.0333,
      "velocity": 93,
      "chip": "ym2612"
    },
    {
      "channel": 2,
      "note": 26,
      "start": 22.2593,
      "duration": 0.0167,
      "velocity": 93,
      "chip": "ym2612"
    },
    {
      "channel": 2,
      "note": 27,
      "start": 22.276,
      "duration": 0.0195,
      "velocity": 93,
      "chip": "ym2612"
    },
    {
      "channel": 3,
      "note": 78,
      "start": 22.295,
      "duration": 0.0982,
      "velocity": 74,
      "chip": "ym2612"
    },
    {
      "channel": 2,
      "note": 28,
      "start": 22.2955,
      "duration": 0.0139,
      "velocity": 93,
      "chip": "ym2612"
    },
    {
      "channel": 2,
      "note": 29,
      "start": 22.3094,
      "duration": 0.0167,
      "velocity": 93,
      "chip": "ym2612"
    },
    {
      "channel": 2,
      "note": 30,
      "start": 22.3261,
      "duration": 0.0333,
      "velocity": 93,
      "chip": "ym2612"
    },
    {
      "channel": 2,
      "note": 31,
      "start": 22.3593,
      "duration": 0.0167,
      "velocity": 93,
      "chip": "ym2612"
    },
    {
      "channel": 2,
      "note": 32,
      "start": 22.376,
      "duration": 0.0183,
      "velocity": 93,
      "chip": "ym2612"
    },
    {
      "channel": 3,
      "note": 82,
      "start": 22.3934,
      "duration": 0.0834,
      "velocity": 74,
      "chip": "ym2612"
    },
    {
      "channel": 2,
      "note": 33,
      "start": 22.3943,
      "duration": 0.0118,
      "velocity": 93,
      "chip": "ym2612"
    },
    {
      "channel": 2,
      "note": 34,
      "start": 22.4061,
      "duration": 0.0128,
      "velocity": 93,
      "chip": "ym2612"
    },
    {
      "channel": 2,
      "note": 36,
      "start": 22.4189,
      "duration": 0.0248,
      "velocity": 93,
      "chip": "ym2612"
    },
    {
      "channel": 2,
      "note": 37,
      "start": 22.4437,
      "duration": 0.0136,
      "velocity": 93,
      "chip": "ym2612"
    },
    {
      "channel": 2,
      "note": 38,
      "start": 22.4573,
      "duration": 0.0174,
      "velocity": 102,
      "chip": "ym2612"
    },
    {
      "channel": 0,
      "note": 59,
      "start": 22.4706,
      "duration": 0.2846,
      "velocity": 117,
      "chip": "ym2612"
    },
    {
      "channel": 1,
      "note": 71,
      "start": 22.4727,
      "duration": 0.1825,
      "velocity": 102,
      "chip": "ym2612"
    },
    {
      "channel": 2,
      "note": 66,
      "start": 22.4749,
      "duration": 0.1809,
      "velocity": 102,
      "chip": "ym2612"
    },
    {
      "channel": 3,
      "note": 83,
      "start": 22.477,
      "duration": 0.2799,
      "velocity": 74,
      "chip": "ym2612"
    },
    {
      "channel": 1,
      "note": 75,
      "start": 22.6553,
      "duration": 0.1004,
      "velocity": 102,
      "chip": "ym2612"
    },
    {
      "channel": 2,
      "note": 71,
      "start": 22.6559,
      "duration": 0.1004,
      "velocity": 102,
      "chip": "ym2612"
    },
    {
      "channel": 4,
      "note": 83,
      "start": 22.6581,
      "duration": 0.2841,
      "velocity": 74,
      "chip": "ym2612"
    },
    {
      "channel": 5,
      "note": 103,
      "start": 22.6588,
      "duration": 0.5407,
      "velocity": 127,
      "chip": "ym2612"
    },
    {
      "channel": 0,
      "note": 71,
      "start": 22.7553,
      "duration": 0.1877,
      "velocity": 117,
      "chip": "ym2612"
    },
    {
      "channel": 1,
      "note": 78,
      "start": 22.7559,
      "duration": 0.1852,
      "velocity": 102,
      "chip": "ym2612"
    },
    {
      "channel": 2,
      "note": 75,
      "start": 22.7565,
      "duration": 0.1851,
      "velocity": 102,
      "chip": "ym2612"
    },
    {
      "channel": 3,
      "note": 87,
      "start": 22.7571,
      "duration": 0.27,
      "velocity": 74,
      "chip": "ym2612"
    },
    {
      "channel": 1,
      "note": 83,
      "start": 22.9412,
      "duration": 0.256,
      "velocity": 102,
      "chip": "ym2612"
    },
    {
      "channel": 2,
      "note": 78,
      "start": 22.9418,
      "duration": 0.256,
      "velocity": 102,
      "chip": "ym2612"
    },
    {
      "channel": 4,
      "note": 87,
      "start": 22.9424,
      "duration": 0.2565,
      "velocity": 74,
      "chip": "ym2612"
    },
    {
      "channel": 0,
      "note": 70,
      "start": 22.943,
      "duration": 0.0103,
      "velocity": 117,
      "chip": "ym2612"
    },
    {
      "channel": 0,
      "note": 68,
      "start": 22.9533,
      "duration": 0.0131,
      "velocity": 117,
      "chip": "ym2612"
    },
    {
      "channel": 0,
      "note": 67,
      "start": 22.9664,
      "duration": 0.0264,
      "velocity": 117,
      "chip": "ym2612"
    },
    {
      "channel": 0,
      "note": 66,
      "start": 22.9928,
      "duration": 0.0163,
      "velocity": 117,
      "chip": "ym2612"
    },
    {
      "channel": 0,
      "note": 66,
      "start": 23.0092,
      "duration": 0.0172,
      "velocity": 117,
      "chip": "ym2612"
    },
    {
      "channel": 0,
      "note": 56,
      "start": 23.0265,
      "duration": 0.1701,
      "velocity": 117,
      "chip": "ym2612"
    },
    {
      "channel": 3,
      "note": 83,
      "start": 23.0272,
      "duration": 0.1712,
      "velocity": 74,
      "chip": "ym2612"
    },
    {
      "channel": 0,
      "note": 68,
      "start": 23.1968,
      "duration": 0.2999,
      "velocity": 117,
      "chip": "ym2612"
    },
    {
      "channel": 1,
      "note": 78,
      "start": 23.1973,
      "duration": 0.0994,
      "velocity": 102,
      "chip": "ym2612"
    },
    {
      "channel": 2,
      "note": 75,
      "start": 23.1979,
      "duration": 0.0993,
      "velocity": 102,
      "chip": "ym2612"
    },
    {
      "channel": 3,
      "note": 80,
      "start": 23.1985,
      "duration": 0.0993,
      "velocity": 74,
      "chip": "ym2612"
    },
    {
      "channel": 4,
      "note": 83,
      "start": 23.199,
      "duration": 0.1983,
      "velocity": 74,
      "chip": "ym2612"
    },
    {
      "channel": 5,
      "note": 103,
      "start": 23.1996,
      "duration": 0.0988,
      "velocity": 127,
      "chip": "ym2612"
    },
    {
      "channel": 1,
      "note": 75,
      "start": 23.2968,
      "duration": 0.2003,
      "velocity": 102,
      "chip": "ym2612"
    },
    {
      "channel": 2,
      "note": 71,
      "start": 23.2974,
      "duration": 0.2003,
      "velocity": 102,
      "chip": "ym2612"
    },
    {
      "channel": 3,
      "note": 78,
      "start": 23.298,
      "duration": 0.0988,
      "velocity": 74,
      "chip": "ym2612"
    },
    {
      "channel": 5,
      "note": 103,
      "start": 23.2986,
      "duration": 0.2842,
      "velocity": 127,
      "chip": "ym2612"
    },
    {
      "channel": 3,
      "note": 80,
      "start": 23.397,
      "duration": 0.1013,
      "velocity": 74,
      "chip": "ym2612"
    },
    {
      "channel": 4,
      "note": 80,
      "start": 23.3976,
      "duration": 0.1013,
      "velocity": 74,
      "chip": "ym2612"
    },
    {
      "channel": 0,
      "note": 57,
      "start": 23.4968,
      "duration": 0.2852,
      "velocity": 117,
      "chip": "ym2612"
    },
    {
      "channel": 1,
      "note": 69,
      "start": 23.4973,
      "duration": 0.2852,
      "velocity": 102,
      "chip": "ym2612"
    },
    {
      "channel": 2,
      "note": 64,
      "start": 23.4979,
      "duration": 0.2851,
      "velocity": 102,
      "chip": "ym2612"
    },
    {
      "channel": 3,
      "note": 81,
      "start": 23.4985,
      "duration": 0.2851,
      "velocity": 74,
      "chip": "ym2612"
    },
    {
      "channel": 4,
      "note": 78,
      "start": 23.499,
      "duration": 0.0832,
      "velocity": 74,
      "chip": "ym2612"
    },
    {
      "channel": 4,
      "note": 80,
      "start": 23.5824,
      "duration": 0.0996,
      "velocity": 74,
      "chip": "ym2612"
    },
    {
      "channel": 5,
      "note": 103,
      "start": 23.583,
      "duration": 0.2865,
      "velocity": 127,
      "chip": "ym2612"
    },
    {
      "channel": 4,
      "note": 81,
      "start": 23.6822,
      "duration": 0.2858,
      "velocity": 74,
      "chip": "ym2612"
    },
    {
      "channel": 0,
      "note": 69,
      "start": 23.7822,
      "duration": 0.1864,
      "velocity": 117,
      "chip": "ym2612"
    },
    {
      "channel": 1,
      "note": 69,
      "start": 23.7827,
      "duration": 0.0851,
      "velocity": 102,
      "chip": "ym2612"
    },
    {
      "channel": 2,
      "note": 64,
      "start": 23.7833,
      "duration": 0.085,
      "velocity": 102,
      "chip": "ym2612"
    },
    {
      "channel": 3,
      "note": 81,
      "start": 23.7838,
      "duration": 0.085,
      "velocity": 74,
      "chip": "ym2612"
    },
    {
      "channel": 1,
      "note": 73,
      "start": 23.8679,
      "duration": 0.2004,
      "velocity": 102,
      "chip": "ym2612"
    },
    {
      "channel": 2,
      "note": 69,
      "start": 23.8685,
      "duration": 0.2003,
      "velocity": 102,
      "chip": "ym2612"
    },
    {
      "channel": 3,
      "note": 80,
      "start": 23.869,
      "duration": 0.2004,
      "velocity": 74,
      "chip": "ym2612"
    },
    {
      "channel": 5,
      "note": 103,
      "start": 23.8696,
      "duration": 0.4562,
      "velocity": 127,
      "chip": "ym2612"
    },
    {
      "channel": 4,
      "note": 81,
      "start": 23.9682,
      "duration": 0.1017,
      "velocity": 74,
      "chip": "ym2612"
    },
    {
      "channel": 0,
      "note": 68,
      "start": 23.9686,
      "duration": 0.0153,
      "velocity": 117,
      "chip": "ym2612"
    },
    {
      "channel": 0,
      "note": 67,
      "start": 23.9839,
      "duration": 0.0167,
      "velocity": 117,
      "chip": "ym2612"
    },
    {
      "channel": 0,
      "note": 66,
      "start": 24.0005,
      "duration": 0.0333,
      "velocity": 117,
      "chip": "ym2612"
    },
    {
      "channel": 0,
      "note": 65,
      "start": 24.0339,
      "duration": 0.0167,
      "velocity": 117,
      "chip": "ym2612"
    },
    {
      "channel": 0,
      "note": 64,
      "start": 24.0505,
      "duration": 0.0172,
      "velocity": 117,
      "chip": "ym2612"
    },
    {
      "channel": 0,
      "note": 57,
      "start": 24.0679,
      "duration": 0.0858,
      "velocity": 117,
      "chip": "ym2612"
    },
    {
      "channel": 1,
      "note": 76,
      "start": 24.0684,
      "duration": 0.0859,
      "velocity": 102,
      "chip": "ym2612"
    },
    {
      "channel": 2,
      "note": 73,
      "start": 24.069,
      "duration": 0.0858,
      "velocity": 102,
      "chip": "ym2612"
    },
    {
      "channel": 3,
      "note": 78,
      "start": 24.0696,
      "duration": 0.0858,
      "velocity": 74,
      "chip": "ym2612"
    },
    {
      "channel": 4,
      "note": 80,
      "start": 24.0701,
      "duration": 0.1611,
      "velocity": 74,
      "chip": "ym2612"
    },
    {
      "channel": 0,
      "note": 58,
      "start": 24.1539,
      "duration": 0.2696,
      "velocity": 117,
      "chip": "ym2612"
    },
    {
      "channel": 1,
      "note": 81,
      "start": 24.1544,
      "duration": 0.1691,
      "velocity": 102,
      "chip": "ym2612"
    },
    {
      "channel": 2,
      "note": 76,
      "start": 24.155,
      "duration": 0.1691,
      "velocity": 102,
      "chip": "ym2612"
    },
    {
      "channel": 3,
      "note": 80,
      "start": 24.1556,
      "duration": 0.1691,
      "velocity": 74,
      "chip": "ym2612"
    },
    {
      "channel": 4,
      "note": 78,
      "start": 24.2314,
      "duration": 0.0937,
      "velocity": 74,
      "chip": "ym2612"
    },
    {
      "channel": 1,
      "note": 76,
      "start": 24.3237,
      "duration": 0.1004,
      "velocity": 102,
      "chip": "ym2612"
    },
    {
      "channel": 2,
      "note": 73,
      "start": 24.3243,
      "duration": 0.1003,
      "velocity": 102,
      "chip": "ym2612"
    },
    {
      "channel": 3,
      "note": 74,
      "start": 24.3248,
      "duration": 0.1004,
      "velocity": 74,
      "chip": "ym2612"
    },
    {
      "channel": 4,
      "note": 80,
      "start": 24.3254,
      "duration": 0.1994,
      "velocity": 74,
      "chip": "ym2612"
    },
    {
      "channel": 5,
      "note": 103,
      "start": 24.3259,
      "duration": 0.0999,
      "velocity": 127,
      "chip": "ym2612"
    },
    {
      "channel": 0,
      "note": 70,
      "start": 24.4237,
      "duration": 0.2998,
      "velocity": 117,
      "chip": "ym2612"
    },
    {
      "channel": 1,
      "note": 73,
      "start": 24.4242,
      "duration": 0.0994,
      "velocity": 102,
      "chip": "ym2612"
    },
    {
      "channel": 2,
      "note": 69,
      "start": 24.4248,
      "duration": 0.0993,
      "velocity": 102,
      "chip": "ym2612"
    },
    {
      "channel": 3,
      "note": 75,
      "start": 24.4254,
      "duration": 0.1993,
      "velocity": 74,
      "chip": "ym2612"
    },
    {
      "channel": 5,
      "note": 103,
      "start": 24.426,
      "duration": 0.1998,
      "velocity": 127,
      "chip": "ym2612"
    },
    {
      "channel": 1,
      "note": 69,
      "start": 24.5237,
      "duration": 0.0998,
      "velocity": 102,
      "chip": "ym2612"
    },
    {
      "channel": 2,
      "note": 64,
      "start": 24.5243,
      "duration": 0.0998,
      "velocity": 102,
      "chip": "ym2612"
    },
    {
      "channel": 4,
      "note": 74,
      "start": 24.5249,
      "duration": 0.1003,
      "velocity": 74,
      "chip": "ym2612"
    },
    {
      "channel": 1,
      "note": 64,
      "start": 24.6237,
      "duration": 0.1003,
      "velocity": 102,
      "chip": "ym2612"
    },
    {
      "channel": 2,
      "note": 61,
      "start": 24.6243,
      "duration": 0.1003,
      "velocity": 102,
      "chip": "ym2612"
    },
    {
      "channel": 3,
      "note": 78,
      "start": 24.6248,
      "duration": 0.1004,
      "velocity": 74,
      "chip": "ym2612"
    },
    {
      "channel": 4,
      "note": 75,
      "start": 24.6254,
      "duration": 0.1841,
      "velocity": 74,
      "chip": "ym2612"
    },
    {
      "channel": 5,
      "note": 103,
      "start": 24.6259,
      "duration": 0.285,
      "velocity": 127,
      "chip": "ym2612"
    },
    {
      "channel": 0,
      "note": 59,
      "start": 24.7236,
      "duration": 0.2856,
      "velocity": 117,
      "chip": "ym2612"
    },
    {
      "channel": 1,
      "note": 71,
      "start": 24.7242,
      "duration": 0.1851,
      "velocity": 102,
      "chip": "ym2612"
    },
    {
      "channel": 2,
      "note": 66,
      "start": 24.7248,
      "duration": 0.185,
      "velocity": 102,
      "chip": "ym2612"
    },
    {
      "channel": 3,
      "note": 83,
      "start": 24.7254,
      "duration": 0.2856,
      "velocity": 74,
      "chip": "ym2612"
    },
    {
      "channel": 4,
      "note": 78,
      "start": 24.8096,
      "duration": 0.1008,
      "velocity": 74,
      "chip": "ym2612"
    },
    {
      "channel": 1,
      "note": 75,
      "start": 24.9094,
      "duration": 0.1005,
      "velocity": 102,
      "chip": "ym2612"
    },
    {
      "channel": 2,
      "note": 71,
      "start": 24.9099,
      "duration": 0.1004,
      "velocity": 102,
      "chip": "ym2612"
    },
    {
      "channel": 4,
      "note": 83,
      "start": 24.9106,
      "duration": 0.2857,
      "velocity": 74,
      "chip": "ym2612"
    },
    {
      "channel": 5,
      "note": 103,
      "start": 24.9112,
      "duration": 0.5419,
      "velocity": 127,
      "chip": "ym2612"
    },
    {
      "channel": 0,
      "note": 71,
      "start": 25.0094,
      "duration": 0.1876,
      "velocity": 117,
      "chip": "ym2612"
    },
    {
      "channel": 1,
      "note": 78,
      "start": 25.0099,
      "duration": 0.1852,
      "velocity": 102,
      "chip": "ym2612"
    },
    {
      "channel": 2,
      "note": 75,
      "start": 25.0105,
      "duration": 0.1851,
      "velocity": 102,
      "chip": "ym2612"
    },
    {
      "channel": 3,
      "note": 87,
      "start": 25.0111,
      "duration": 0.2695,
      "velocity": 74,
      "chip": "ym2612"
    },
    {
      "channel": 1,
      "note": 83,
      "start": 25.1952,
      "duration": 0.2556,
      "velocity": 102,
      "chip": "ym2612"
    },
    {
      "channel": 2,
      "note": 78,
      "start": 25.1958,
      "duration": 0.2555,
      "velocity": 102,
      "chip": "ym2612"
    },
    {
      "channel": 4,
      "note": 87,
      "start": 25.1964,
      "duration": 0.256,
      "velocity": 74,
      "chip": "ym2612"
    },
    {
      "channel": 0,
      "note": 70,
      "start": 25.1971,
      "duration": 0.0103,
      "velocity": 117,
      "chip": "ym2612"
    },
    {
      "channel": 0,
      "note": 68,
      "start": 25.2074,
      "duration": 0.0134,
      "velocity": 117,
      "chip": "ym2612"
    },
    {
      "channel": 0,
      "note": 67,
      "start": 25.2207,
      "duration": 0.0256,
      "velocity": 117,
      "chip": "ym2612"
    },
    {
      "channel": 0,
      "note": 66,
      "start": 25.2464,
      "duration": 0.0163,
      "velocity": 117,
      "chip": "ym2612"
    },
    {
      "channel": 0,
      "note": 66,
      "start": 25.2627,
      "duration": 0.0172,
      "velocity": 117,
      "chip": "ym2612"
    },
    {
      "channel": 0,
      "note": 56,
      "start": 25.2801,
      "duration": 0.1701,
      "velocity": 117,
      "chip": "ym2612"
    },
    {
      "channel": 3,
      "note": 83,
      "start": 25.2807,
      "duration": 0.1712,
      "velocity": 74,
      "chip": "ym2612"
    },
    {
      "channel": 0,
      "note": 68,
      "start": 25.4504,
      "duration": 0.2998,
      "velocity": 117,
      "chip": "ym2612"
    },
    {
      "channel": 1,
      "note": 78,
      "start": 25.4509,
      "duration": 0.0994,
      "velocity": 102,
      "chip": "ym2612"
    },
    {
      "channel": 2,
      "note": 75,
      "start": 25.4515,
      "duration": 0.0993,
      "velocity": 102,
      "chip": "ym2612"
    },
    {
      "channel": 3,
      "note": 80,
      "start": 25.4521,
      "duration": 0.0993,
      "velocity": 74,
      "chip": "ym2612"
    },
    {
      "channel": 4,
      "note": 83,
      "start": 25.4526,
      "duration": 0.1978,
      "velocity": 74,
      "chip": "ym2612"
    },
    {
      "channel": 5,
      "note": 103,
      "start": 25.4532,
      "duration": 0.0988,
      "velocity": 127,
      "chip": "ym2612"
    },
    {
      "channel": 1,
      "note": 75,
      "start": 25.5504,
      "duration": 0.2004,
      "velocity": 102,
      "chip": "ym2612"
    },
    {
      "channel": 2,
      "note": 71,
      "start": 25.551,
      "duration": 0.2003,
      "velocity": 102,
      "chip": "ym2612"
    },
    {
      "channel": 3,
      "note": 78,
      "start": 25.5516,
      "duration": 0.2003,
      "velocity": 74,
      "chip": "ym2612"
    },
    {
      "channel": 5,
      "note": 103,
      "start": 25.5522,
      "duration": 0.2841,
      "velocity": 127,
      "chip": "ym2612"
    },
    {
      "channel": 4,
      "note": 80,
      "start": 25.6506,
      "duration": 0.2855,
      "velocity": 74,
      "chip": "ym2612"
    },
    {
      "channel": 0,
      "note": 57,
      "start": 25.7504,
      "duration": 0.2855,
      "velocity": 117,
      "chip": "ym2612"
    },
    {
      "channel": 1,
      "note": 69,
      "start": 25.7509,
      "duration": 0.2856,
      "velocity": 102,
      "chip": "ym2612"
    },
    {
      "channel": 2,
      "note": 64,
      "start": 25.7515,
      "duration": 0.2855,
      "velocity": 102,
      "chip": "ym2612"
    },
    {
      "channel": 3,
      "note": 81,
      "start": 25.7521,
      "duration": 1.2058,
      "velocity": 74,
      "chip": "ym2612"
    },
    {
      "channel": 5,
      "note": 103,
      "start": 25.8364,
      "duration": 0.2857,
      "velocity": 127,
      "chip": "ym2612"
    },
    {
      "channel": 4,
      "note": 81,
      "start": 25.9362,
      "duration": 1.2073,
      "velocity": 74,
      "chip": "ym2612"
    },
    {
      "channel": 0,
      "note": 69,
      "start": 26.0361,
      "duration": 0.1851,
      "velocity": 117,
      "chip": "ym2612"
    },
    {
      "channel": 1,
      "note": 69,
      "start": 26.0366,
      "duration": 0.0842,
      "velocity": 102,
      "chip": "ym2612"
    },
    {
      "channel": 2,
      "note": 64,
      "start": 26.0372,
      "duration": 0.0842,
      "velocity": 102,
      "chip": "ym2612"
    },
    {
      "channel": 1,
      "note": 73,
      "start": 26.121,
      "duration": 0.2004,
      "velocity": 102,
      "chip": "ym2612"
    },
    {
      "channel": 2,
      "note": 69,
      "start": 26.1216,
      "duration": 0.2003,
      "velocity": 102,
      "chip": "ym2612"
    },
    {
      "channel": 5,
      "note": 103,
      "start": 26.1223,
      "duration": 0.4563,
      "velocity": 127,
      "chip": "ym2612"
    },
    {
      "channel": 0,
      "note": 68,
      "start": 26.2212,
      "duration": 0.0158,
      "velocity": 117,
      "chip": "ym2612"
    },
    {
      "channel": 0,
      "note": 67,
      "start": 26.237,
      "duration": 0.0167,
      "velocity": 117,
      "chip": "ym2612"
    },
    {
      "channel": 0,
      "note": 66,
      "start": 26.2537,
      "duration": 0.0333,
      "velocity": 117,
      "chip": "ym2612"
    },
    {
      "channel": 0,
      "note": 65,
      "start": 26.287,
      "duration": 0.0167,
      "velocity": 117,
      "chip": "ym2612"
    },
    {
      "channel": 0,
      "note": 64,
      "start": 26.3037,
      "duration": 0.0171,
      "velocity": 117,
      "chip": "ym2612"
    },
    {
      "channel": 0,
      "note": 57,
      "start": 26.321,
      "duration": 0.0857,
      "velocity": 117,
      "chip": "ym2612"
    },
    {
      "channel": 1,
      "note": 76,
      "start": 26.3215,
      "duration": 0.0856,
      "velocity": 102,
      "chip": "ym2612"
    },
    {
      "channel": 2,
      "note": 73,
      "start": 26.3221,
      "duration": 0.0857,
      "velocity": 102,
      "chip": "ym2612"
    },
    {
      "channel": 0,
      "note": 58,
      "start": 26.4068,
      "duration": 0.2705,
      "velocity": 117,
      "chip": "ym2612"
    },
    {
      "channel": 1,
      "note": 81,
      "start": 26.4074,
      "duration": 0.1699,
      "velocity": 102,
      "chip": "ym2612"
    },
    {
      "channel": 2,
      "note": 76,
      "start": 26.4079,
      "duration": 0.1699,
      "velocity": 102,
      "chip": "ym2612"
    },
    {
      "channel": 1,
      "note": 76,
      "start": 26.5775,
      "duration": 0.1004,
      "velocity": 102,
      "chip": "ym2612"
    },
    {
      "channel": 2,
      "note": 73,
      "start": 26.578,
      "duration": 0.1003,
      "velocity": 102,
      "chip": "ym2612"
    },
    {
      "channel": 5,
      "note": 103,
      "start": 26.5787,
      "duration": 0.1003,
      "velocity": 127,
      "chip": "ym2612"
    },
    {
      "channel": 0,
      "note": 70,
      "start": 26.6775,
      "duration": 0.2785,
      "velocity": 117,
      "chip": "ym2612"
    },
    {
      "channel": 1,
      "note": 73,
      "start": 26.678,
      "duration": 0.0994,
      "velocity": 102,
      "chip": "ym2612"
    },
    {
      "channel": 2,
      "note": 69,
      "start": 26.6785,
      "duration": 0.0993,
      "velocity": 102,
      "chip": "ym2612"
    },
    {
      "channel": 5,
      "note": 103,
      "start": 26.6793,
      "duration": 0.4649,
      "velocity": 127,
      "chip": "ym2612"
    },
    {
      "channel": 1,
      "note": 69,
      "start": 26.7775,
      "duration": 0.0999,
      "velocity": 102,
      "chip": "ym2612"
    },
    {
      "channel": 2,
      "note": 64,
      "start": 26.778,
      "duration": 0.0999,
      "velocity": 102,
      "chip": "ym2612"
    },
    {
      "channel": 1,
      "note": 64,
      "start": 26.8775,
      "duration": 0.079,
      "velocity": 102,
      "chip": "ym2612"
    },
    {
      "channel": 2,
      "note": 61,
      "start": 26.8781,
      "duration": 0.0791,
      "velocity": 102,
      "chip": "ym2612"
    },
    {
      "channel": 0,
      "note": 59,
      "start": 26.9561,
      "duration": 0.2862,
      "velocity": 117,
      "chip": "ym2612"
    },
    {
      "channel": 1,
      "note": 71,
      "start": 26.9567,
      "duration": 0.1856,
      "velocity": 102,
      "chip": "ym2612"
    },
    {
      "channel": 2,
      "note": 66,
      "start": 26.9574,
      "duration": 0.1854,
      "velocity": 102,
      "chip": "ym2612"
    },
    {
      "channel": 3,
      "note": 83,
      "start": 26.9579,
      "duration": 0.286,
      "velocity": 74,
      "chip": "ym2612"
    },
    {
      "channel": 1,
      "note": 75,
      "start": 27.1424,
      "duration": 0.1004,
      "velocity": 102,
      "chip": "ym2612"
    },
    {
      "channel": 2,
      "note": 71,
      "start": 27.143,
      "duration": 0.1004,
      "velocity": 102,
      "chip": "ym2612"
    },
    {
      "channel": 4,
      "note": 83,
      "start": 27.1437,
      "duration": 0.2856,
      "velocity": 74,
      "chip": "ym2612"
    },
    {
      "channel": 5,
      "note": 103,
      "start": 27.1443,
      "duration": 0.5434,
      "velocity": 127,
      "chip": "ym2612"
    },
    {
      "channel": 0,
      "note": 71,
      "start": 27.2424,
      "duration": 0.1877,
      "velocity": 117,
      "chip": "ym2612"
    },
    {
      "channel": 1,
      "note": 78,
      "start": 27.243,
      "duration": 0.1852,
      "velocity": 102,
      "chip": "ym2612"
    },
    {
      "channel": 2,
      "note": 75,
      "start": 27.2436,
      "duration": 0.1851,
      "velocity": 102,
      "chip": "ym2612"
    },
    {
      "channel": 3,
      "note": 87,
      "start": 27.2441,
      "duration": 0.27,
      "velocity": 74,
      "chip": "ym2612"
    },
    {
      "channel": 1,
      "note": 83,
      "start": 27.4283,
      "duration": 0.2572,
      "velocity": 102,
      "chip": "ym2612"
    },
    {
      "channel": 2,
      "note": 78,
      "start": 27.4289,
      "duration": 0.2572,
      "velocity": 102,
      "chip": "ym2612"
    },
    {
      "channel": 4,
      "note": 87,
      "start": 27.4295,
      "duration": 0.2577,
      "velocity": 74,
      "chip": "ym2612"
    },
    {
      "channel": 0,
      "note": 70,
      "start": 27.4301,
      "duration": 0.0103,
      "velocity": 117,
      "chip": "ym2612"
    },
    {
      "channel": 0,
      "note": 68,
      "start": 27.4404,
      "duration": 0.0131,
      "velocity": 117,
      "chip": "ym2612"
    },
    {
      "channel": 0,
      "note": 67,
      "start": 27.4535,
      "duration": 0.0264,
      "velocity": 117,
      "chip": "ym2612"
    },
    {
      "channel": 0,
      "note": 66,
      "start": 27.4799,
      "duration": 0.0163,
      "velocity": 117,
      "chip": "ym2612"
    },
    {
      "channel": 0,
      "note": 66,
      "start": 27.4963,
      "duration": 0.0172,
      "velocity": 117,
      "chip": "ym2612"
    },
    {
      "channel": 0,
      "note": 56,
      "start": 27.5136,
      "duration": 0.1713,
      "velocity": 117,
      "chip": "ym2612"
    },
    {
      "channel": 3,
      "note": 83,
      "start": 27.5143,
      "duration": 0.1724,
      "velocity": 74,
      "chip": "ym2612"
    },
    {
      "channel": 0,
      "note": 68,
      "start": 27.6851,
      "duration": 0.2999,
      "velocity": 117,
      "chip": "ym2612"
    },
    {
      "channel": 1,
      "note": 78,
      "start": 27.6856,
      "duration": 0.0994,
      "velocity": 102,
      "chip": "ym2612"
    },
    {
      "channel": 2,
      "note": 75,
      "start": 27.6862,
      "duration": 0.0993,
      "velocity": 102,
      "chip": "ym2612"
    },
    {
      "channel": 3,
      "note": 80,
      "start": 27.6868,
      "duration": 0.0993,
      "velocity": 74,
      "chip": "ym2612"
    },
    {
      "channel": 4,
      "note": 83,
      "start": 27.6873,
      "duration": 0.1983,
      "velocity": 74,
      "chip": "ym2612"
    },
    {
      "channel": 5,
      "note": 103,
      "start": 27.6879,
      "duration": 0.0988,
      "velocity": 127,
      "chip": "ym2612"
    },
    {
      "channel": 1,
      "note": 75,
      "start": 27.7851,
      "duration": 0.2003,
      "velocity": 102,
      "chip": "ym2612"
    },
    {
      "channel": 2,
      "note": 71,
      "start": 27.7857,
      "duration": 0.2003,
      "velocity": 102,
      "chip": "ym2612"
    },
    {
      "channel": 3,
      "note": 78,
      "start": 27.7863,
      "duration": 0.0988,
      "velocity": 74,
      "chip": "ym2612"
    },
    {
      "channel": 5,
      "note": 103,
      "start": 27.7869,
      "duration": 0.2842,
      "velocity": 127,
      "chip": "ym2612"
    },
    {
      "channel": 3,
      "note": 80,
      "start": 27.8853,
      "duration": 0.1013,
      "velocity": 74,
      "chip": "ym2612"
    },
    {
      "channel": 4,
      "note": 80,
      "start": 27.8859,
      "duration": 0.1013,
      "velocity": 74,
      "chip": "ym2612"
    },
    {
      "channel": 0,
      "note": 57,
      "start": 27.9851,
      "duration": 0.2853,
      "velocity": 117,
      "chip": "ym2612"
    },
    {
      "channel": 1,
      "note": 69,
      "start": 27.9856,
      "duration": 0.2852,
      "velocity": 102,
      "chip": "ym2612"
    },
    {
      "channel": 2,
      "note": 64,
      "start": 27.9862,
      "duration": 0.2852,
      "velocity": 102,
      "chip": "ym2612"
    },
    {
      "channel": 3,
      "note": 81,
      "start": 27.9868,
      "duration": 0.2852,
      "velocity": 74,
      "chip": "ym2612"
    },
    {
      "channel": 4,
      "note": 78,
      "start": 27.9873,
      "duration": 0.0833,
      "velocity": 74,
      "chip": "ym2612"
    },
    {
      "channel": 4,
      "note": 80,
      "start": 28.0708,
      "duration": 0.0996,
      "velocity": 74,
      "chip": "ym2612"
    },
    {
      "channel": 5,
      "note": 103,
      "start": 28.0714,
      "duration": 0.2865,
      "velocity": 127,
      "chip": "ym2612"
    },
    {
      "channel": 4,
      "note": 81,
      "start": 28.1706,
      "duration": 0.2858,
      "velocity": 74,
      "chip": "ym2612"
    },
    {
      "channel": 0,
      "note": 69,
      "start": 28.2705,
      "duration": 0.1865,
      "velocity": 117,
      "chip": "ym2612"
    },
    {
      "channel": 1,
      "note": 69,
      "start": 28.271,
      "duration": 0.0851,
      "velocity": 102,
      "chip": "ym2612"
    },
    {
      "channel": 2,
      "note": 64,
      "start": 28.2716,
      "duration": 0.085,
      "velocity": 102,
      "chip": "ym2612"
    },
    {
      "channel": 3,
      "note": 81,
      "start": 28.2722,
      "duration": 0.085,
      "velocity": 74,
      "chip": "ym2612"
    },
    {
      "channel": 1,
      "note": 73,
      "start": 28.3563,
      "duration": 0.2004,
      "velocity": 102,
      "chip": "ym2612"
    },
    {
      "channel": 2,
      "note": 69,
      "start": 28.3568,
      "duration": 0.2003,
      "velocity": 102,
      "chip": "ym2612"
    },
    {
      "channel": 3,
      "note": 80,
      "start": 28.3574,
      "duration": 0.2004,
      "velocity": 74,
      "chip": "ym2612"
    },
    {
      "channel": 5,
      "note": 103,
      "start": 28.358,
      "duration": 0.4559,
      "velocity": 127,
      "chip": "ym2612"
    },
    {
      "channel": 4,
      "note": 81,
      "start": 28.4566,
      "duration": 0.1017,
      "velocity": 74,
      "chip": "ym2612"
    },
    {
      "channel": 0,
      "note": 68,
      "start": 28.457,
      "duration": 0.0153,
      "velocity": 117,
      "chip": "ym2612"
    },
    {
      "channel": 0,
      "note": 67,
      "start": 28.4722,
      "duration": 0.0167,
      "velocity": 117,
      "chip": "ym2612"
    },
    {
      "channel": 0,
      "note": 66,
      "start": 28.4889,
      "duration": 0.0333,
      "velocity": 117,
      "chip": "ym2612"
    },
    {
      "channel": 0,
      "note": 65,
      "start": 28.5222,
      "duration": 0.0167,
      "velocity": 117,
      "chip": "ym2612"
    },
    {
      "channel": 0,
      "note": 64,
      "start": 28.5389,
      "duration": 0.0172,
      "velocity": 117,
      "chip": "ym2612"
    },
    {
      "channel": 0,
      "note": 57,
      "start": 28.5563,
      "duration": 0.0856,
      "velocity": 117,
      "chip": "ym2612"
    },
    {
      "channel": 1,
      "note": 76,
      "start": 28.5568,
      "duration": 0.0856,
      "velocity": 102,
      "chip": "ym2612"
    },
    {
      "channel": 2,
      "note": 73,
      "start": 28.5574,
      "duration": 0.0855,
      "velocity": 102,
      "chip": "ym2612"
    },
    {
      "channel": 3,
      "note": 78,
      "start": 28.5579,
      "duration": 0.0856,
      "velocity": 74,
      "chip": "ym2612"
    },
    {
      "channel": 4,
      "note": 80,
      "start": 28.5585,
      "duration": 0.1608,
      "velocity": 74,
      "chip": "ym2612"
    },
    {
      "channel": 0,
      "note": 58,
      "start": 28.642,
      "duration": 0.2696,
      "velocity": 117,
      "chip": "ym2612"
    },
    {
      "channel": 1,
      "note": 81,
      "start": 28.6425,
      "duration": 0.1691,
      "velocity": 102,
      "chip": "ym2612"
    },
    {
      "channel": 2,
      "note": 76,
      "start": 28.6431,
      "duration": 0.169,
      "velocity": 102,
      "chip": "ym2612"
    },
    {
      "channel": 3,
      "note": 80,
      "start": 28.6437,
      "duration": 0.169,
      "velocity": 74,
      "chip": "ym2612"
    },
    {
      "channel": 4,
      "note": 78,
      "start": 28.7195,
      "duration": 0.0937,
      "velocity": 74,
      "chip": "ym2612"
    },
    {
      "channel": 1,
      "note": 76,
      "start": 28.8118,
      "duration": 0.1003,
      "velocity": 102,
      "chip": "ym2612"
    },
    {
      "channel": 2,
      "note": 73,
      "start": 28.8123,
      "duration": 0.1003,
      "velocity": 102,
      "chip": "ym2612"
    },
    {
      "channel": 3,
      "note": 74,
      "start": 28.8129,
      "duration": 0.1004,
      "velocity": 74,
      "chip": "ym2612"
    },
    {
      "channel": 4,
      "note": 80,
      "start": 28.8134,
      "duration": 0.1994,
      "velocity": 74,
      "chip": "ym2612"
    },
    {
      "channel": 5,
      "note": 103,
      "start": 28.814,
      "duration": 0.0999,
      "velocity": 127,
      "chip": "ym2612"
    },
    {
      "channel": 0,
      "note": 70,
      "start": 28.9117,
      "duration": 0.2999,
      "velocity": 117,
      "chip": "ym2612"
    },
    {
      "channel": 1,
      "note": 73,
      "start": 28.9123,
      "duration": 0.0994,
      "velocity": 102,
      "chip": "ym2612"
    },
    {
      "channel": 2,
      "note": 69,
      "start": 28.9129,
      "duration": 0.0993,
      "velocity": 102,
      "chip": "ym2612"
    },
    {
      "channel": 3,
      "note": 75,
      "start": 28.9134,
      "duration": 0.1993,
      "velocity": 74,
      "chip": "ym2612"
    },
    {
      "channel": 5,
      "note": 103,
      "start": 28.9141,
      "duration": 0.1998,
      "velocity": 127,
      "chip": "ym2612"
    },
    {
      "channel": 1,
      "note": 69,
      "start": 29.0118,
      "duration": 0.0998,
      "velocity": 102,
      "chip": "ym2612"
    },
    {
      "channel": 2,
      "note": 64,
      "start": 29.0123,
      "duration": 0.0998,
      "velocity": 102,
      "chip": "ym2612"
    },
    {
      "channel": 4,
      "note": 74,
      "start": 29.013,
      "duration": 0.1003,
      "velocity": 74,
      "chip": "ym2612"
    },
    {
      "channel": 1,
      "note": 64,
      "start": 29.1118,
      "duration": 0.1004,
      "velocity": 102,
      "chip": "ym2612"
    },
    {
      "channel": 2,
      "note": 61,
      "start": 29.1123,
      "duration": 0.1004,
      "velocity": 102,
      "chip": "ym2612"
    },
    {
      "channel": 3,
      "note": 78,
      "start": 29.1129,
      "duration": 0.1004,
      "velocity": 74,
      "chip": "ym2612"
    },
    {
      "channel": 4,
      "note": 75,
      "start": 29.1134,
      "duration": 0.1841,
      "velocity": 74,
      "chip": "ym2612"
    },
    {
      "channel": 5,
      "note": 103,
      "start": 29.114,
      "duration": 0.285,
      "velocity": 127,
      "chip": "ym2612"
    },
    {
      "channel": 0,
      "note": 59,
      "start": 29.2118,
      "duration": 0.2856,
      "velocity": 117,
      "chip": "ym2612"
    },
    {
      "channel": 1,
      "note": 71,
      "start": 29.2123,
      "duration": 0.1851,
      "velocity": 102,
      "chip": "ym2612"
    },
    {
      "channel": 2,
      "note": 66,
      "start": 29.2129,
      "duration": 0.185,
      "velocity": 102,
      "chip": "ym2612"
    },
    {
      "channel": 3,
      "note": 83,
      "start": 29.2134,
      "duration": 0.2856,
      "velocity": 74,
      "chip": "ym2612"
    },
    {
      "channel": 4,
      "note": 78,
      "start": 29.2978,
      "duration": 0.1007,
      "velocity": 74,
      "chip": "ym2612"
    },
    {
      "channel": 1,
      "note": 75,
      "start": 29.3974,
      "duration": 0.1005,
      "velocity": 102,
      "chip": "ym2612"
    },
    {
      "channel": 2,
      "note": 71,
      "start": 29.398,
      "duration": 0.1004,
      "velocity": 102,
      "chip": "ym2612"
    },
    {
      "channel": 4,
      "note": 83,
      "start": 29.3987,
      "duration": 0.2857,
      "velocity": 74,
      "chip": "ym2612"
    },
    {
      "channel": 5,
      "note": 103,
      "start": 29.3992,
      "duration": 0.5419,
      "velocity": 127,
      "chip": "ym2612"
    },
    {
      "channel": 0,
      "note": 71,
      "start": 29.4975,
      "duration": 0.1876,
      "velocity": 117,
      "chip": "ym2612"
    },
    {
      "channel": 1,
      "note": 78,
      "start": 29.498,
      "duration": 0.1852,
      "velocity": 102,
      "chip": "ym2612"
    },
    {
      "channel": 2,
      "note": 75,
      "start": 29.4986,
      "duration": 0.1851,
      "velocity": 102,
      "chip": "ym2612"
    },
    {
      "channel": 3,
      "note": 87,
      "start": 29.4992,
      "duration": 0.2695,
      "velocity": 74,
      "chip": "ym2612"
    },
    {
      "channel": 1,
      "note": 83,
      "start": 29.6833,
      "duration": 0.2555,
      "velocity": 102,
      "chip": "ym2612"
    },
    {
      "channel": 2,
      "note": 78,
      "start": 29.6839,
      "duration": 0.2555,
      "velocity": 102,
      "chip": "ym2612"
    },
    {
      "channel": 4,
      "note": 87,
      "start": 29.6845,
      "duration": 0.256,
      "velocity": 74,
      "chip": "ym2612"
    },
    {
      "channel": 0,
      "note": 70,
      "start": 29.6851,
      "duration": 0.0103,
      "velocity": 117,
      "chip": "ym2612"
    },
    {
      "channel": 0,
      "note": 68,
      "start": 29.6954,
      "duration": 0.0134,
      "velocity": 117,
      "chip": "ym2612"
    },
    {
      "channel": 0,
      "note": 67,
      "start": 29.7088,
      "duration": 0.0256,
      "velocity": 117,
      "chip": "ym2612"
    },
    {
      "channel": 0,
      "note": 66,
      "start": 29.7344,
      "duration": 0.0163,
      "velocity": 117,
      "chip": "ym2612"
    },
    {
      "channel": 0,
      "note": 66,
      "start": 29.7508,
      "duration": 0.0172,
      "velocity": 117,
      "chip": "ym2612"
    },
    {
      "channel": 0,
      "note": 56,
      "start": 29.7682,
      "duration": 0.1701,
      "velocity": 117,
      "chip": "ym2612"
    },
    {
      "channel": 3,
      "note": 83,
      "start": 29.7688,
      "duration": 0.1712,
      "velocity": 74,
      "chip": "ym2612"
    },
    {
      "channel": 0,
      "note": 68,
      "start": 29.9384,
      "duration": 0.2999,
      "velocity": 117,
      "chip": "ym2612"
    },
    {
      "channel": 1,
      "note": 78,
      "start": 29.939,
      "duration": 0.0994,
      "velocity": 102,
      "chip": "ym2612"
    },
    {
      "channel": 2,
      "note": 75,
      "start": 29.9396,
      "duration": 0.0994,
      "velocity": 102,
      "chip": "ym2612"
    },
    {
      "channel": 3,
      "note": 80,
      "start": 29.9401,
      "duration": 0.0993,
      "velocity": 74,
      "chip": "ym2612"
    },
    {
      "channel": 4,
      "note": 83,
      "start": 29.9406,
      "duration": 0.1978,
      "velocity": 74,
      "chip": "ym2612"
    },
    {
      "channel": 5,
      "note": 103,
      "start": 29.9412,
      "duration": 0.0988,
      "velocity": 127,
      "chip": "ym2612"
    },
    {
      "channel": 1,
      "note": 75,
      "start": 30.0385,
      "duration": 0.2003,
      "velocity": 102,
      "chip": "ym2612"
    },
    {
      "channel": 2,
      "note": 71,
      "start": 30.039,
      "duration": 0.2003,
      "velocity": 102,
      "chip": "ym2612"
    },
    {
      "channel": 3,
      "note": 78,
      "start": 30.0396,
      "duration": 0.2003,
      "velocity": 74,
      "chip": "ym2612"
    },
    {
      "channel": 5,
      "note": 103,
      "start": 30.0403,
      "duration": 0.284,
      "velocity": 127,
      "chip": "ym2612"
    },
    {
      "channel": 4,
      "note": 80,
      "start": 30.1387,
      "duration": 0.2854,
      "velocity": 74,
      "chip": "ym2612"
    },
    {
      "channel": 0,
      "note": 57,
      "start": 30.2385,
      "duration": 0.2855,
      "velocity": 117,
      "chip": "ym2612"
    },
    {
      "channel": 1,
      "note": 69,
      "start": 30.239,
      "duration": 0.2856,
      "velocity": 102,
      "chip": "ym2612"
    },
    {
      "channel": 2,
      "note": 64,
      "start": 30.2396,
      "duration": 0.2855,
      "velocity": 102,
      "chip": "ym2612"
    },
    {
      "channel": 3,
      "note": 81,
      "start": 30.2401,
      "duration": 1.2065,
      "velocity": 74,
      "chip": "ym2612"
    },
    {
      "channel": 5,
      "note": 103,
      "start": 30.3245,
      "duration": 0.2857,
      "velocity": 127,
      "chip": "ym2612"
    },
    {
      "channel": 4,
      "note": 81,
      "start": 30.4243,
      "duration": 1.0245,
      "velocity": 108,
      "chip": "ym2612"
    },
    {
      "channel": 0,
      "note": 69,
      "start": 30.5241,
      "duration": 0.1851,
      "velocity": 117,
      "chip": "ym2612"
    },
    {
      "channel": 1,
      "note": 69,
      "start": 30.5247,
      "duration": 0.0842,
      "velocity": 102,
      "chip": "ym2612"
    },
    {
      "channel": 2,
      "note": 64,
      "start": 30.5252,
      "duration": 0.0843,
      "velocity": 102,
      "chip": "ym2612"
    },
    {
      "channel": 1,
      "note": 73,
      "start": 30.6091,
      "duration": 0.2003,
      "velocity": 102,
      "chip": "ym2612"
    },
    {
      "channel": 2,
      "note": 69,
      "start": 30.6096,
      "duration": 0.2003,
      "velocity": 102,
      "chip": "ym2612"
    },
    {
      "channel": 5,
      "note": 103,
      "start": 30.6103,
      "duration": 0.456,
      "velocity": 127,
      "chip": "ym2612"
    },
    {
      "channel": 0,
      "note": 68,
      "start": 30.7093,
      "duration": 0.0158,
      "velocity": 117,
      "chip": "ym2612"
    },
    {
      "channel": 0,
      "note": 67,
      "start": 30.7251,
      "duration": 0.0167,
      "velocity": 117,
      "chip": "ym2612"
    },
    {
      "channel": 0,
      "note": 66,
      "start": 30.7418,
      "duration": 0.0333,
      "velocity": 117,
      "chip": "ym2612"
    },
    {
      "channel": 0,
      "note": 65,
      "start": 30.7751,
      "duration": 0.0167,
      "velocity": 117,
      "chip": "ym2612"
    },
    {
      "channel": 0,
      "note": 64,
      "start": 30.7918,
      "duration": 0.0171,
      "velocity": 117,
      "chip": "ym2612"
    },
    {
      "channel": 0,
      "note": 57,
      "start": 30.8091,
      "duration": 0.0866,
      "velocity": 117,
      "chip": "ym2612"
    },
    {
      "channel": 1,
      "note": 76,
      "start": 30.8096,
      "duration": 0.0866,
      "velocity": 102,
      "chip": "ym2612"
    },
    {
      "channel": 2,
      "note": 73,
      "start": 30.8102,
      "duration": 0.0866,
      "velocity": 102,
      "chip": "ym2612"
    },
    {
      "channel": 0,
      "note": 58,
      "start": 30.8958,
      "duration": 0.2692,
      "velocity": 117,
      "chip": "ym2612"
    },
    {
      "channel": 1,
      "note": 81,
      "start": 30.8964,
      "duration": 0.1686,
      "velocity": 102,
      "chip": "ym2612"
    },
    {
      "channel": 2,
      "note": 76,
      "start": 30.897,
      "duration": 0.1686,
      "velocity": 102,
      "chip": "ym2612"
    },
    {
      "channel": 1,
      "note": 76,
      "start": 31.0652,
      "duration": 0.1004,
      "velocity": 102,
      "chip": "ym2612"
    },
    {
      "channel": 2,
      "note": 73,
      "start": 31.0658,
      "duration": 0.1003,
      "velocity": 102,
      "chip": "ym2612"
    },
    {
      "channel": 5,
      "note": 103,
      "start": 31.0665,
      "duration": 0.1003,
      "velocity": 127,
      "chip": "ym2612"
    },
    {
      "channel": 0,
      "note": 70,
      "start": 31.1652,
      "duration": 0.2766,
      "velocity": 117,
      "chip": "ym2612"
    },
    {
      "channel": 1,
      "note": 73,
      "start": 31.1657,
      "duration": 0.0994,
      "velocity": 102,
      "chip": "ym2612"
    },
    {
      "channel": 2,
      "note": 69,
      "start": 31.1663,
      "duration": 0.0993,
      "velocity": 102,
      "chip": "ym2612"
    },
    {
      "channel": 5,
      "note": 103,
      "start": 31.167,
      "duration": 0.4631,
      "velocity": 127,
      "chip": "ym2612"
    },
    {
      "channel": 1,
      "note": 69,
      "start": 31.2652,
      "duration": 0.0999,
      "velocity": 102,
      "chip": "ym2612"
    },
    {
      "channel": 2,
      "note": 64,
      "start": 31.2658,
      "duration": 0.1,
      "velocity": 102,
      "chip": "ym2612"
    },
    {
      "channel": 1,
      "note": 64,
      "start": 31.3654,
      "duration": 0.0786,
      "velocity": 108,
      "chip": "ym2612"
    },
    {
      "channel": 2,
      "note": 61,
      "start": 31.3659,
      "duration": 0.0802,
      "velocity": 108,
      "chip": "ym2612"
    },
    {
      "channel": 0,
      "note": 52,
      "start": 31.442,
      "duration": 0.2858,
      "velocity": 117,
      "chip": "ym2612"
    },
    {
      "channel": 1,
      "note": 68,
      "start": 31.4441,
      "duration": 0.2843,
      "velocity": 108,
      "chip": "ym2612"
    },
    {
      "channel": 2,
      "note": 71,
      "start": 31.4462,
      "duration": 0.2827,
      "velocity": 108,
      "chip": "ym2612"
    },
    {
      "channel": 3,
      "note": 76,
      "start": 31.4468,
      "duration": 0.1825,
      "velocity": 74,
      "chip": "ym2612"
    },
    {
      "channel": 4,
      "note": 76,
      "start": 31.449,
      "duration": 0.2826,
      "velocity": 108,
      "chip": "ym2612"
    },
    {
      "channel": 3,
      "note": 76,
      "start": 31.6296,
      "duration": 0.1015,
      "velocity": 74,
      "chip": "ym2612"
    },
    {
      "channel": 5,
      "note": 103,
      "start": 31.6303,
      "duration": 0.5387,
      "velocity": 127,
      "chip": "ym2612"
    },
    {
      "channel": 0,
      "note": 64,
      "start": 31.728,
      "duration": 0.2681,
      "velocity": 117,
      "chip": "ym2612"
    },
    {
      "channel": 1,
      "note": 68,
      "start": 31.7285,
      "duration": 0.1848,
      "velocity": 108,
      "chip": "ym2612"
    },
    {
      "channel": 2,
      "note": 71,
      "start": 31.7291,
      "duration": 0.8249,
      "velocity": 108,
      "chip": "ym2612"
    },
    {
      "channel": 3,
      "note": 80,
      "start": 31.7312,
      "duration": 0.1842,
      "velocity": 74,
      "chip": "ym2612"
    },
    {
      "channel": 4,
      "note": 76,
      "start": 31.7317,
      "duration": 1.9648,
      "velocity": 108,
      "chip": "ym2612"
    },
    {
      "channel": 1,
      "note": 52,
      "start": 31.9134,
      "duration": 0.2543,
      "velocity": 108,
      "chip": "ym2612"
    },
    {
      "channel": 3,
      "note": 80,
      "start": 31.9156,
      "duration": 0.0827,
      "velocity": 74,
      "chip": "ym2612"
    },
    {
      "channel": 0,
      "note": 50,
      "start": 31.9963,
      "duration": 0.1709,
      "velocity": 117,
      "chip": "ym2612"
    },
    {
      "channel": 3,
      "note": 76,
      "start": 31.9985,
      "duration": 0.1698,
      "velocity": 74,
      "chip": "ym2612"
    },
    {
      "channel": 0,
      "note": 52,
      "start": 32.1673,
      "duration": 0.2998,
      "velocity": 117,
      "chip": "ym2612"
    },
    {
      "channel": 1,
      "note": 50,
      "start": 32.1679,
      "duration": 0.0994,
      "velocity": 108,
      "chip": "ym2612"
    },
    {
      "channel": 3,
      "note": 73,
      "start": 32.1685,
      "duration": 0.0993,
      "velocity": 74,
      "chip": "ym2612"
    },
    {
      "channel": 5,
      "note": 103,
      "start": 32.1692,
      "duration": 0.0993,
      "velocity": 127,
      "chip": "ym2612"
    },
    {
      "channel": 1,
      "note": 52,
      "start": 32.2674,
      "duration": 0.2861,
      "velocity": 120,
      "chip": "ym2612"
    },
    {
      "channel": 3,
      "note": 71,
      "start": 32.268,
      "duration": 0.1009,
      "velocity": 74,
      "chip": "ym2612"
    },
    {
      "channel": 5,
      "note": 103,
      "start": 32.2686,
      "duration": 0.2861,
      "velocity": 127,
      "chip": "ym2612"
    },
    {
      "channel": 3,
      "note": 73,
      "start": 32.3691,
      "duration": 0.1003,
      "velocity": 74,
      "chip": "ym2612"
    },
    {
      "channel": 0,
      "note": 52,
      "start": 32.4673,
      "duration": 0.2845,
      "velocity": 117,
      "chip": "ym2612"
    },
    {
      "channel": 3,
      "note": 76,
      "start": 32.4696,
      "duration": 0.1839,
      "velocity": 74,
      "chip": "ym2612"
    },
    {
      "channel": 1,
      "note": 55,
      "start": 32.5536,
      "duration": 0.1987,
      "velocity": 120,
      "chip": "ym2612"
    },
    {
      "channel": 2,
      "note": 76,
      "start": 32.5541,
      "duration": 0.1988,
      "velocity": 108,
      "chip": "ym2612"
    },
    {
      "channel": 5,
      "note": 103,
      "start": 32.5548,
      "duration": 0.2841,
      "velocity": 127,
      "chip": "ym2612"
    },
    {
      "channel": 3,
      "note": 76,
      "start": 32.6537,
      "duration": 0.1013,
      "velocity": 74,
      "chip": "ym2612"
    },
    {
      "channel": 0,
      "note": 64,
      "start": 32.752,
      "duration": 0.2851,
      "velocity": 117,
      "chip": "ym2612"
    },
    {
      "channel": 1,
      "note": 55,
      "start": 32.7525,
      "duration": 0.0846,
      "velocity": 120,
      "chip": "ym2612"
    },
    {
      "channel": 2,
      "note": 74,
      "start": 32.753,
      "duration": 0.0846,
      "velocity": 108,
      "chip": "ym2612"
    },
    {
      "channel": 3,
      "note": 76,
      "start": 32.7552,
      "duration": 0.0831,
      "velocity": 74,
      "chip": "ym2612"
    },
    {
      "channel": 1,
      "note": 55,
      "start": 32.8373,
      "duration": 0.2003,
      "velocity": 120,
      "chip": "ym2612"
    },
    {
      "channel": 2,
      "note": 71,
      "start": 32.8379,
      "duration": 0.2003,
      "velocity": 108,
      "chip": "ym2612"
    },
    {
      "channel": 3,
      "note": 78,
      "start": 32.8385,
      "duration": 0.2018,
      "velocity": 74,
      "chip": "ym2612"
    },
    {
      "channel": 5,
      "note": 103,
      "start": 32.8391,
      "duration": 0.4554,
      "velocity": 127,
      "chip": "ym2612"
    },
    {
      "channel": 0,
      "note": 50,
      "start": 33.0372,
      "duration": 0.2539,
      "velocity": 117,
      "chip": "ym2612"
    },
    {
      "channel": 1,
      "note": 55,
      "start": 33.0378,
      "duration": 0.0862,
      "velocity": 108,
      "chip": "ym2612"
    },
    {
      "channel": 2,
      "note": 70,
      "start": 33.0383,
      "duration": 0.2534,
      "velocity": 108,
      "chip": "ym2612"
    },
    {
      "channel": 3,
      "note": 78,
      "start": 33.0405,
      "duration": 0.0858,
      "velocity": 74,
      "chip": "ym2612"
    },
    {
      "channel": 1,
      "note": 50,
      "start": 33.1242,
      "duration": 0.2675,
      "velocity": 108,
      "chip": "ym2612"
    },
    {
      "channel": 3,
      "note": 79,
      "start": 33.1264,
      "duration": 0.1674,
      "velocity": 74,
      "chip": "ym2612"
    },
    {
      "channel": 0,
      "note": 50,
      "start": 33.2912,
      "duration": 0.0999,
      "velocity": 117,
      "chip": "ym2612"
    },
    {
      "channel": 2,
      "note": 69,
      "start": 33.2919,
      "duration": 0.1004,
      "velocity": 108,
      "chip": "ym2612"
    },
    {
      "channel": 3,
      "note": 79,
      "start": 33.294,
      "duration": 0.1003,
      "velocity": 74,
      "chip": "ym2612"
    },
    {
      "channel": 5,
      "note": 103,
      "start": 33.2947,
      "duration": 0.1003,
      "velocity": 127,
      "chip": "ym2612"
    },
    {
      "channel": 0,
      "note": 52,
      "start": 33.3913,
      "duration": 0.2999,
      "velocity": 117,
      "chip": "ym2612"
    },
    {
      "channel": 1,
      "note": 52,
      "start": 33.3919,
      "duration": 0.3014,
      "velocity": 108,
      "chip": "ym2612"
    },
    {
      "channel": 2,
      "note": 67,
      "start": 33.3924,
      "duration": 0.0988,
      "velocity": 108,
      "chip": "ym2612"
    },
    {
      "channel": 3,
      "note": 80,
      "start": 33.3945,
      "duration": 0.1987,
      "velocity": 74,
      "chip": "ym2612"
    },
    {
      "channel": 5,
      "note": 103,
      "start": 33.3952,
      "duration": 0.1987,
      "velocity": 127,
      "chip": "ym2612"
    },
    {
      "channel": 2,
      "note": 64,
      "start": 33.4914,
      "duration": 0.0998,
      "velocity": 108,
      "chip": "ym2612"
    },
    {
      "channel": 2,
      "note": 62,
      "start": 33.5914,
      "duration": 0.1025,
      "velocity": 108,
      "chip": "ym2612"
    },
    {
      "channel": 3,
      "note": 80,
      "start": 33.5935,
      "duration": 0.1025,
      "velocity": 74,
      "chip": "ym2612"
    },
    {
      "channel": 5,
      "note": 103,
      "start": 33.5941,
      "duration": 0.2832,
      "velocity": 127,
      "chip": "ym2612"
    },
    {
      "channel": 0,
      "note": 54,
      "start": 33.6913,
      "duration": 0.2837,
      "velocity": 117,
      "chip": "ym2612"
    },
    {
      "channel": 1,
      "note": 66,
      "start": 33.6935,
      "duration": 0.2821,
      "velocity": 108,
      "chip": "ym2612"
    },
    {
      "channel": 2,
      "note": 71,
      "start": 33.694,
      "duration": 0.2821,
      "velocity": 108,
      "chip": "ym2612"
    },
    {
      "channel": 3,
      "note": 78,
      "start": 33.6961,
      "duration": 0.1805,
      "velocity": 74,
      "chip": "ym2612"
    },
    {
      "channel": 4,
      "note": 73,
      "start": 33.6967,
      "duration": 0.2821,
      "velocity": 108,
      "chip": "ym2612"
    },
    {
      "channel": 3,
      "note": 78,
      "start": 33.8768,
      "duration": 0.1015,
      "velocity": 74,
      "chip": "ym2612"
    },
    {
      "channel": 5,
      "note": 103,
      "start": 33.8774,
      "duration": 0.5388,
      "velocity": 127,
      "chip": "ym2612"
    },
    {
      "channel": 0,
      "note": 66,
      "start": 33.9751,
      "duration": 0.2681,
      "velocity": 117,
      "chip": "ym2612"
    },
    {
      "channel": 1,
      "note": 66,
      "start": 33.9757,
      "duration": 0.1847,
      "velocity": 108,
      "chip": "ym2612"
    },
    {
      "channel": 2,
      "note": 71,
      "start": 33.9763,
      "duration": 1.6675,
      "velocity": 93,
      "chip": "ym2612"
    },
    {
      "channel": 3,
      "note": 82,
      "start": 33.9784,
      "duration": 0.1841,
      "velocity": 74,
      "chip": "ym2612"
    },
    {
      "channel": 4,
      "note": 73,
      "start": 33.979,
      "duration": 1.9472,
      "velocity": 108,
      "chip": "ym2612"
    },
    {
      "channel": 1,
      "note": 54,
      "start": 34.1606,
      "duration": 0.2528,
      "velocity": 108,
      "chip": "ym2612"
    },
    {
      "channel": 3,
      "note": 82,
      "start": 34.1627,
      "duration": 0.0827,
      "velocity": 74,
      "chip": "ym2612"
    },
    {
      "channel": 0,
      "note": 52,
      "start": 34.2434,
      "duration": 0.1695,
      "velocity": 117,
      "chip": "ym2612"
    },
    {
      "channel": 3,
      "note": 78,
      "start": 34.2456,
      "duration": 0.0764,
      "velocity": 74,
      "chip": "ym2612"
    },
    {
      "channel": 3,
      "note": 82,
      "start": 34.3223,
      "duration": 0.0933,
      "velocity": 74,
      "chip": "ym2612"
    },
    {
      "channel": 0,
      "note": 54,
      "start": 34.413,
      "duration": 0.2998,
      "velocity": 117,
      "chip": "ym2612"
    },
    {
      "channel": 1,
      "note": 52,
      "start": 34.4136,
      "duration": 0.0994,
      "velocity": 108,
      "chip": "ym2612"
    },
    {
      "channel": 3,
      "note": 75,
      "start": 34.4158,
      "duration": 0.0977,
      "velocity": 74,
      "chip": "ym2612"
    },
    {
      "channel": 5,
      "note": 103,
      "start": 34.4164,
      "duration": 0.0977,
      "velocity": 127,
      "chip": "ym2612"
    },
    {
      "channel": 1,
      "note": 54,
      "start": 34.5131,
      "duration": 0.2869,
      "velocity": 120,
      "chip": "ym2612"
    },
    {
      "channel": 3,
      "note": 73,
      "start": 34.5137,
      "duration": 0.1009,
      "velocity": 74,
      "chip": "ym2612"
    },
    {
      "channel": 5,
      "note": 103,
      "start": 34.5143,
      "duration": 0.2884,
      "velocity": 127,
      "chip": "ym2612"
    },
    {
      "channel": 3,
      "note": 75,
      "start": 34.6148,
      "duration": 0.1003,
      "velocity": 74,
      "chip": "ym2612"
    },
    {
      "channel": 0,
      "note": 54,
      "start": 34.713,
      "duration": 0.2853,
      "velocity": 117,
      "chip": "ym2612"
    },
    {
      "channel": 3,
      "note": 78,
      "start": 34.7152,
      "duration": 0.0869,
      "velocity": 74,
      "chip": "ym2612"
    },
    {
      "channel": 1,
      "note": 43,
      "start": 34.8001,
      "duration": 0.1987,
      "velocity": 120,
      "chip": "ym2612"
    },
    {
      "channel": 3,
      "note": 75,
      "start": 34.8023,
      "duration": 0.0962,
      "velocity": 74,
      "chip": "ym2612"
    },
    {
      "channel": 5,
      "note": 103,
      "start": 34.8029,
      "duration": 0.2813,
      "velocity": 127,
      "chip": "ym2612"
    },
    {
      "channel": 3,
      "note": 78,
      "start": 34.8987,
      "duration": 0.1023,
      "velocity": 74,
      "chip": "ym2612"
    },
    {
      "channel": 0,
      "note": 66,
      "start": 34.9984,
      "duration": 0.2846,
      "velocity": 117,
      "chip": "ym2612"
    },
    {
      "channel": 1,
      "note": 55,
      "start": 34.999,
      "duration": 0.084,
      "velocity": 120,
      "chip": "ym2612"
    },
    {
      "channel": 3,
      "note": 78,
      "start": 35.0012,
      "duration": 0.0824,
      "velocity": 74,
      "chip": "ym2612"
    },
    {
      "channel": 1,
      "note": 43,
      "start": 35.0832,
      "duration": 0.2004,
      "velocity": 120,
      "chip": "ym2612"
    },
    {
      "channel": 3,
      "note": 80,
      "start": 35.0838,
      "duration": 0.1009,
      "velocity": 74,
      "chip": "ym2612"
    },
    {
      "channel": 5,
      "note": 103,
      "start": 35.0844,
      "duration": 0.4595,
      "velocity": 127,
      "chip": "ym2612"
    },
    {
      "channel": 3,
      "note": 78,
      "start": 35.1849,
      "duration": 0.1008,
      "velocity": 74,
      "chip": "ym2612"
    },
    {
      "channel": 0,
      "note": 52,
      "start": 35.2832,
      "duration": 0.2579,
      "velocity": 117,
      "chip": "ym2612"
    },
    {
      "channel": 1,
      "note": 55,
      "start": 35.2837,
      "duration": 0.0881,
      "velocity": 108,
      "chip": "ym2612"
    },
    {
      "channel": 3,
      "note": 78,
      "start": 35.2859,
      "duration": 0.0864,
      "velocity": 74,
      "chip": "ym2612"
    },
    {
      "channel": 1,
      "note": 52,
      "start": 35.3719,
      "duration": 0.2698,
      "velocity": 108,
      "chip": "ym2612"
    },
    {
      "channel": 3,
      "note": 81,
      "start": 35.3725,
      "duration": 0.0778,
      "velocity": 74,
      "chip": "ym2612"
    },
    {
      "channel": 3,
      "note": 78,
      "start": 35.4505,
      "duration": 0.0928,
      "velocity": 74,
      "chip": "ym2612"
    },
    {
      "channel": 0,
      "note": 52,
      "start": 35.5412,
      "duration": 0.0999,
      "velocity": 117,
      "chip": "ym2612"
    },
    {
      "channel": 3,
      "note": 78,
      "start": 35.5434,
      "duration": 0.101,
      "velocity": 74,
      "chip": "ym2612"
    },
    {
      "channel": 5,
      "note": 103,
      "start": 35.5441,
      "duration": 0.101,
      "velocity": 127,
      "chip": "ym2612"
    },
    {
      "channel": 0,
      "note": 54,
      "start": 35.6413,
      "duration": 0.2779,
      "velocity": 117,
      "chip": "ym2612"
    },
    {
      "channel": 1,
      "note": 54,
      "start": 35.6418,
      "duration": 0.2794,
      "velocity": 108,
      "chip": "ym2612"
    },
    {
      "channel": 2,
      "note": 21,
      "start": 35.644,
      "duration": 0.0015,
      "velocity": 93,
      "chip": "ym2612"
    },
    {
      "channel": 3,
      "note": 82,
      "start": 35.6445,
      "duration": 0.0983,
      "velocity": 74,
      "chip": "ym2612"
    },
    {
      "channel": 5,
      "note": 103,
      "start": 35.6451,
      "duration": 0.4603,
      "velocity": 127,
      "chip": "ym2612"
    },
    {
      "channel": 2,
      "note": 22,
      "start": 35.6455,
      "duration": 0.0119,
      "velocity": 93,
      "chip": "ym2612"
    },
    {
      "channel": 2,
      "note": 24,
      "start": 35.6574,
      "duration": 0.0167,
      "velocity": 93,
      "chip": "ym2612"
    },
    {
      "channel": 2,
      "note": 25,
      "start": 35.6741,
      "duration": 0.0333,
      "velocity": 93,
      "chip": "ym2612"
    },
    {
      "channel": 2,
      "note": 26,
      "start": 35.7074,
      "duration": 0.0167,
      "velocity": 93,
      "chip": "ym2612"
    },
    {
      "channel": 2,
      "note": 27,
      "start": 35.724,
      "duration": 0.0195,
      "velocity": 93,
      "chip": "ym2612"
    },
    {
      "channel": 3,
      "note": 78,
      "start": 35.7431,
      "duration": 0.0982,
      "velocity": 74,
      "chip": "ym2612"
    },
    {
      "channel": 2,
      "note": 28,
      "start": 35.7436,
      "duration": 0.0138,
      "velocity": 93,
      "chip": "ym2612"
    },
    {
      "channel": 2,
      "note": 29,
      "start": 35.7574,
      "duration": 0.0167,
      "velocity": 93,
      "chip": "ym2612"
    },
    {
      "channel": 2,
      "note": 30,
      "start": 35.7741,
      "duration": 0.0333,
      "velocity": 93,
      "chip": "ym2612"
    },
    {
      "channel": 2,
      "note": 31,
      "start": 35.8074,
      "duration": 0.0167,
      "velocity": 93,
      "chip": "ym2612"
    },
    {
      "channel": 2,
      "note": 32,
      "start": 35.8241,
      "duration": 0.0182,
      "velocity": 93,
      "chip": "ym2612"
    },
    {
      "channel": 3,
      "note": 82,
      "start": 35.8415,
      "duration": 0.084,
      "velocity": 74,
      "chip": "ym2612"
    },
    {
      "channel": 2,
      "note": 33,
      "start": 35.8423,
      "duration": 0.0124,
      "velocity": 93,
      "chip": "ym2612"
    },
    {
      "channel": 2,
      "note": 34,
      "start": 35.8547,
      "duration": 0.0128,
      "velocity": 93,
      "chip": "ym2612"
    },
    {
      "channel": 2,
      "note": 36,
      "start": 35.8676,
      "duration": 0.0248,
      "velocity": 93,
      "chip": "ym2612"
    },
    {
      "channel": 2,
      "note": 37,
      "start": 35.8924,
      "duration": 0.0136,
      "velocity": 93,
      "chip": "ym2612"
    },
    {
      "channel": 2,
      "note": 38,
      "start": 35.9059,
      "duration": 0.0174,
      "velocity": 108,
      "chip": "ym2612"
    },
    {
      "channel": 0,
      "note": 52,
      "start": 35.9193,
      "duration": 0.2839,
      "velocity": 117,
      "chip": "ym2612"
    },
    {
      "channel": 1,
      "note": 68,
      "start": 35.9214,
      "duration": 0.2823,
      "velocity": 108,
      "chip": "ym2612"
    },
    {
      "channel": 2,
      "note": 71,
      "start": 35.9235,
      "duration": 0.2807,
      "velocity": 108,
      "chip": "ym2612"
    },
    {
      "channel": 3,
      "note": 76,
      "start": 35.9257,
      "duration": 0.1791,
      "velocity": 74,
      "chip": "ym2612"
    },
    {
      "channel": 4,
      "note": 76,
      "start": 35.9263,
      "duration": 0.2807,
      "velocity": 108,
      "chip": "ym2612"
    },
    {
      "channel": 3,
      "note": 76,
      "start": 36.1049,
      "duration": 0.1015,
      "velocity": 74,
      "chip": "ym2612"
    },
    {
      "channel": 5,
      "note": 103,
      "start": 36.1056,
      "duration": 0.5417,
      "velocity": 127,
      "chip": "ym2612"
    },
    {
      "channel": 0,
      "note": 64,
      "start": 36.2034,
      "duration": 0.2707,
      "velocity": 117,
      "chip": "ym2612"
    },
    {
      "channel": 1,
      "note": 68,
      "start": 36.2039,
      "duration": 0.1867,
      "velocity": 108,
      "chip": "ym2612"
    },
    {
      "channel": 2,
      "note": 71,
      "start": 36.2044,
      "duration": 0.8287,
      "velocity": 108,
      "chip": "ym2612"
    },
    {
      "channel": 3,
      "note": 80,
      "start": 36.2066,
      "duration": 0.1861,
      "velocity": 74,
      "chip": "ym2612"
    },
    {
      "channel": 4,
      "note": 76,
      "start": 36.2071,
      "duration": 1.9702,
      "velocity": 108,
      "chip": "ym2612"
    },
    {
      "channel": 1,
      "note": 52,
      "start": 36.3907,
      "duration": 0.2554,
      "velocity": 108,
      "chip": "ym2612"
    },
    {
      "channel": 3,
      "note": 80,
      "start": 36.3929,
      "duration": 0.0834,
      "velocity": 74,
      "chip": "ym2612"
    },
    {
      "channel": 0,
      "note": 50,
      "start": 36.4741,
      "duration": 0.1715,
      "velocity": 117,
      "chip": "ym2612"
    },
    {
      "channel": 3,
      "note": 76,
      "start": 36.4764,
      "duration": 0.1703,
      "velocity": 74,
      "chip": "ym2612"
    },
    {
      "channel": 0,
      "note": 52,
      "start": 36.6457,
      "duration": 0.2998,
      "velocity": 117,
      "chip": "ym2612"
    },
    {
      "channel": 1,
      "note": 50,
      "start": 36.6463,
      "duration": 0.0994,
      "velocity": 108,
      "chip": "ym2612"
    },
    {
      "channel": 3,
      "note": 73,
      "start": 36.6469,
      "duration": 0.0993,
      "velocity": 74,
      "chip": "ym2612"
    },
    {
      "channel": 5,
      "note": 103,
      "start": 36.6476,
      "duration": 0.0993,
      "velocity": 127,
      "chip": "ym2612"
    },
    {
      "channel": 1,
      "note": 52,
      "start": 36.7458,
      "duration": 0.2868,
      "velocity": 120,
      "chip": "ym2612"
    },
    {
      "channel": 3,
      "note": 71,
      "start": 36.7464,
      "duration": 0.1009,
      "velocity": 74,
      "chip": "ym2612"
    },
    {
      "channel": 5,
      "note": 103,
      "start": 36.7471,
      "duration": 0.2868,
      "velocity": 127,
      "chip": "ym2612"
    },
    {
      "channel": 3,
      "note": 73,
      "start": 36.8475,
      "duration": 0.1003,
      "velocity": 74,
      "chip": "ym2612"
    },
    {
      "channel": 0,
      "note": 52,
      "start": 36.9457,
      "duration": 0.2852,
      "velocity": 117,
      "chip": "ym2612"
    },
    {
      "channel": 3,
      "note": 76,
      "start": 36.948,
      "duration": 0.1847,
      "velocity": 74,
      "chip": "ym2612"
    },
    {
      "channel": 1,
      "note": 55,
      "start": 37.0328,
      "duration": 0.1987,
      "velocity": 120,
      "chip": "ym2612"
    },
    {
      "channel": 2,
      "note": 76,
      "start": 37.0333,
      "duration": 0.1988,
      "velocity": 108,
      "chip": "ym2612"
    },
    {
      "channel": 5,
      "note": 103,
      "start": 37.034,
      "duration": 0.2841,
      "velocity": 127,
      "chip": "ym2612"
    },
    {
      "channel": 3,
      "note": 76,
      "start": 37.1328,
      "duration": 0.1013,
      "velocity": 74,
      "chip": "ym2612"
    },
    {
      "channel": 0,
      "note": 64,
      "start": 37.2311,
      "duration": 0.2851,
      "velocity": 117,
      "chip": "ym2612"
    },
    {
      "channel": 1,
      "note": 55,
      "start": 37.2317,
      "duration": 0.0846,
      "velocity": 120,
      "chip": "ym2612"
    },
    {
      "channel": 2,
      "note": 74,
      "start": 37.2322,
      "duration": 0.0846,
      "velocity": 108,
      "chip": "ym2612"
    },
    {
      "channel": 3,
      "note": 76,
      "start": 37.2344,
      "duration": 0.0831,
      "velocity": 74,
      "chip": "ym2612"
    },
    {
      "channel": 1,
      "note": 55,
      "start": 37.3165,
      "duration": 0.2003,
      "velocity": 120,
      "chip": "ym2612"
    },
    {
      "channel": 2,
      "note": 71,
      "start": 37.317,
      "duration": 0.2003,
      "velocity": 108,
      "chip": "ym2612"
    },
    {
      "channel": 3,
      "note": 78,
      "start": 37.3176,
      "duration": 0.2019,
      "velocity": 74,
      "chip": "ym2612"
    },
    {
      "channel": 5,
      "note": 103,
      "start": 37.3182,
      "duration": 0.4572,
      "velocity": 127,
      "chip": "ym2612"
    },
    {
      "channel": 0,
      "note": 50,
      "start": 37.5164,
      "duration": 0.2556,
      "velocity": 117,
      "chip": "ym2612"
    },
    {
      "channel": 1,
      "note": 55,
      "start": 37.517,
      "duration": 0.0862,
      "velocity": 108,
      "chip": "ym2612"
    },
    {
      "channel": 2,
      "note": 70,
      "start": 37.5175,
      "duration": 0.2551,
      "velocity": 108,
      "chip": "ym2612"
    },
    {
      "channel": 3,
      "note": 78,
      "start": 37.5196,
      "duration": 0.0857,
      "velocity": 74,
      "chip": "ym2612"
    },
    {
      "channel": 1,
      "note": 50,
      "start": 37.6033,
      "duration": 0.2692,
      "velocity": 108,
      "chip": "ym2612"
    },
    {
      "channel": 3,
      "note": 79,
      "start": 37.6055,
      "duration": 0.1692,
      "velocity": 74,
      "chip": "ym2612"
    },
    {
      "channel": 0,
      "note": 50,
      "start": 37.7722,
      "duration": 0.0998,
      "velocity": 117,
      "chip": "ym2612"
    },
    {
      "channel": 2,
      "note": 69,
      "start": 37.7727,
      "duration": 0.1004,
      "velocity": 108,
      "chip": "ym2612"
    },
    {
      "channel": 3,
      "note": 79,
      "start": 37.7749,
      "duration": 0.1003,
      "velocity": 74,
      "chip": "ym2612"
    },
    {
      "channel": 5,
      "note": 103,
      "start": 37.7755,
      "duration": 0.1003,
      "velocity": 127,
      "chip": "ym2612"
    },
    {
      "channel": 0,
      "note": 52,
      "start": 37.8722,
      "duration": 0.2999,
      "velocity": 117,
      "chip": "ym2612"
    },
    {
      "channel": 1,
      "note": 52,
      "start": 37.8727,
      "duration": 0.3014,
      "velocity": 108,
      "chip": "ym2612"
    },
    {
      "channel": 2,
      "note": 67,
      "start": 37.8732,
      "duration": 0.0988,
      "velocity": 108,
      "chip": "ym2612"
    },
    {
      "channel": 3,
      "note": 80,
      "start": 37.8754,
      "duration": 0.1988,
      "velocity": 74,
      "chip": "ym2612"
    },
    {
      "channel": 5,
      "note": 103,
      "start": 37.876,
      "duration": 0.1988,
      "velocity": 127,
      "chip": "ym2612"
    },
    {
      "channel": 2,
      "note": 64,
      "start": 37.9723,
      "duration": 0.0998,
      "velocity": 108,
      "chip": "ym2612"
    },
    {
      "channel": 2,
      "note": 62,
      "start": 38.0722,
      "duration": 0.1025,
      "velocity": 108,
      "chip": "ym2612"
    },
    {
      "channel": 3,
      "note": 80,
      "start": 38.0743,
      "duration": 0.1025,
      "velocity": 74,
      "chip": "ym2612"
    },
    {
      "channel": 5,
      "note": 103,
      "start": 38.075,
      "duration": 0.2832,
      "velocity": 127,
      "chip": "ym2612"
    },
    {
      "channel": 0,
      "note": 54,
      "start": 38.1722,
      "duration": 0.2837,
      "velocity": 117,
      "chip": "ym2612"
    },
    {
      "channel": 1,
      "note": 66,
      "start": 38.1743,
      "duration": 0.2821,
      "velocity": 108,
      "chip": "ym2612"
    },
    {
      "channel": 2,
      "note": 71,
      "start": 38.1749,
      "duration": 0.2821,
      "velocity": 108,
      "chip": "ym2612"
    },
    {
      "channel": 3,
      "note": 78,
      "start": 38.177,
      "duration": 0.1805,
      "velocity": 74,
      "chip": "ym2612"
    },
    {
      "channel": 4,
      "note": 73,
      "start": 38.1776,
      "duration": 0.2821,
      "velocity": 108,
      "chip": "ym2612"
    },
    {
      "channel": 3,
      "note": 78,
      "start": 38.3577,
      "duration": 0.1015,
      "velocity": 74,
      "chip": "ym2612"
    },
    {
      "channel": 5,
      "note": 103,
      "start": 38.3583,
      "duration": 0.5391,
      "velocity": 127,
      "chip": "ym2612"
    },
    {
      "channel": 0,
      "note": 66,
      "start": 38.456,
      "duration": 0.2681,
      "velocity": 117,
      "chip": "ym2612"
    },
    {
      "channel": 1,
      "note": 66,
      "start": 38.4566,
      "duration": 0.1847,
      "velocity": 108,
      "chip": "ym2612"
    },
    {
      "channel": 2,
      "note": 71,
      "start": 38.4572,
      "duration": 1.5627,
      "velocity": 93,
      "chip": "ym2612"
    },
    {
      "channel": 3,
      "note": 82,
      "start": 38.4593,
      "duration": 0.1841,
      "velocity": 74,
      "chip": "ym2612"
    },
    {
      "channel": 4,
      "note": 73,
      "start": 38.4598,
      "duration": 1.8149,
      "velocity": 74,
      "chip": "ym2612"
    },
    {
      "channel": 1,
      "note": 54,
      "start": 38.6414,
      "duration": 0.2531,
      "velocity": 108,
      "chip": "ym2612"
    },
    {
      "channel": 3,
      "note": 82,
      "start": 38.6436,
      "duration": 0.0827,
      "velocity": 74,
      "chip": "ym2612"
    },
    {
      "channel": 0,
      "note": 52,
      "start": 38.7243,
      "duration": 0.1697,
      "velocity": 117,
      "chip": "ym2612"
    },
    {
      "channel": 3,
      "note": 78,
      "start": 38.7265,
      "duration": 0.0767,
      "velocity": 74,
      "chip": "ym2612"
    },
    {
      "channel": 3,
      "note": 82,
      "start": 38.8034,
      "duration": 0.0933,
      "velocity": 74,
      "chip": "ym2612"
    },
    {
      "channel": 0,
      "note": 54,
      "start": 38.8941,
      "duration": 0.2998,
      "velocity": 117,
      "chip": "ym2612"
    },
    {
      "channel": 1,
      "note": 52,
      "start": 38.8947,
      "duration": 0.0994,
      "velocity": 108,
      "chip": "ym2612"
    },
    {
      "channel": 3,
      "note": 75,
      "start": 38.8969,
      "duration": 0.0977,
      "velocity": 74,
      "chip": "ym2612"
    },
    {
      "channel": 5,
      "note": 103,
      "start": 38.8976,
      "duration": 0.0977,
      "velocity": 127,
      "chip": "ym2612"
    },
    {
      "channel": 1,
      "note": 54,
      "start": 38.9942,
      "duration": 0.2869,
      "velocity": 120,
      "chip": "ym2612"
    },
    {
      "channel": 3,
      "note": 73,
      "start": 38.9948,
      "duration": 0.1009,
      "velocity": 74,
      "chip": "ym2612"
    },
    {
      "channel": 5,
      "note": 103,
      "start": 38.9955,
      "duration": 1.4593,
      "velocity": 127,
      "chip": "ym2612"
    },
    {
      "channel": 3,
      "note": 75,
      "start": 39.0959,
      "duration": 0.1003,
      "velocity": 74,
      "chip": "ym2612"
    },
    {
      "channel": 0,
      "note": 54,
      "start": 39.1941,
      "duration": 0.2385,
      "velocity": 117,
      "chip": "ym2612"
    },
    {
      "channel": 3,
      "note": 78,
      "start": 39.1964,
      "duration": 0.0869,
      "velocity": 74,
      "chip": "ym2612"
    },
    {
      "channel": 1,
      "note": 43,
      "start": 39.2812,
      "duration": 0.152,
      "velocity": 120,
      "chip": "ym2612"
    },
    {
      "channel": 3,
      "note": 75,
      "start": 39.2834,
      "duration": 0.0721,
      "velocity": 74,
      "chip": "ym2612"
    },
    {
      "channel": 3,
      "note": 78,
      "start": 39.3557,
      "duration": 0.0797,
      "velocity": 74,
      "chip": "ym2612"
    },
    {
      "channel": 0,
      "note": 66,
      "start": 39.4329,
      "duration": 0.2608,
      "velocity": 117,
      "chip": "ym2612"
    },
    {
      "channel": 1,
      "note": 55,
      "start": 39.4334,
      "duration": 0.0839,
      "velocity": 120,
      "chip": "ym2612"
    },
    {
      "channel": 3,
      "note": 78,
      "start": 39.4356,
      "duration": 0.0823,
      "velocity": 74,
      "chip": "ym2612"
    },
    {
      "channel": 1,
      "note": 43,
      "start": 39.5174,
      "duration": 0.1768,
      "velocity": 120,
      "chip": "ym2612"
    },
    {
      "channel": 3,
      "note": 80,
      "start": 39.518,
      "duration": 0.0834,
      "velocity": 74,
      "chip": "ym2612"
    },
    {
      "channel": 3,
      "note": 78,
      "start": 39.6016,
      "duration": 0.0948,
      "velocity": 74,
      "chip": "ym2612"
    },
    {
      "channel": 0,
      "note": 52,
      "start": 39.6938,
      "duration": 0.2453,
      "velocity": 117,
      "chip": "ym2612"
    },
    {
      "channel": 1,
      "note": 55,
      "start": 39.6944,
      "duration": 0.0859,
      "velocity": 108,
      "chip": "ym2612"
    },
    {
      "channel": 3,
      "note": 78,
      "start": 39.6966,
      "duration": 0.0843,
      "velocity": 74,
      "chip": "ym2612"
    },
    {
      "channel": 1,
      "note": 52,
      "start": 39.7805,
      "duration": 0.2373,
      "velocity": 108,
      "chip": "ym2612"
    },
    {
      "channel": 3,
      "note": 81,
      "start": 39.7811,
      "duration": 0.0767,
      "velocity": 74,
      "chip": "ym2612"
    },
    {
      "channel": 3,
      "note": 78,
      "start": 39.858,
      "duration": 0.0833,
      "velocity": 74,
      "chip": "ym2612"
    },
    {
      "channel": 0,
      "note": 52,
      "start": 39.9392,
      "duration": 0.078,
      "velocity": 117,
      "chip": "ym2612"
    },
    {
      "channel": 3,
      "note": 78,
      "start": 39.9415,
      "duration": 0.079,
      "velocity": 74,
      "chip": "ym2612"
    },
    {
      "channel": 0,
      "note": 54,
      "start": 40.0173,
      "duration": 0.251,
      "velocity": 112,
      "chip": "ym2612"
    },
    {
      "channel": 1,
      "note": 54,
      "start": 40.0179,
      "duration": 0.2525,
      "velocity": 107,
      "chip": "ym2612"
    },
    {
      "channel": 2,
      "note": 21,
      "start": 40.0201,
      "duration": 0.0013,
      "velocity": 93,
      "chip": "ym2612"
    },
    {
      "channel": 3,
      "note": 82,
      "start": 40.0206,
      "duration": 0.0776,
      "velocity": 74,
      "chip": "ym2612"
    },
    {
      "channel": 2,
      "note": 22,
      "start": 40.0214,
      "duration": 0.0093,
      "velocity": 93,
      "chip": "ym2612"
    },
    {
      "channel": 2,
      "note": 24,
      "start": 40.0307,
      "duration": 0.0112,
      "velocity": 93,
      "chip": "ym2612"
    },
    {
      "channel": 2,
      "note": 25,
      "start": 40.0418,
      "duration": 0.029,
      "velocity": 93,
      "chip": "ym2612"
    },
    {
      "channel": 2,
      "note": 26,
      "start": 40.0709,
      "duration": 0.0107,
      "velocity": 93,
      "chip": "ym2612"
    },
    {
      "channel": 2,
      "note": 27,
      "start": 40.0816,
      "duration": 0.0173,
      "velocity": 93,
      "chip": "ym2612"
    },
    {
      "channel": 3,
      "note": 78,
      "start": 40.0984,
      "duration": 0.093,
      "velocity": 74,
      "chip": "ym2612"
    },
    {
      "channel": 2,
      "note": 28,
      "start": 40.0989,
      "duration": 0.0121,
      "velocity": 93,
      "chip": "ym2612"
    },
    {
      "channel": 2,
      "note": 29,
      "start": 40.111,
      "duration": 0.0131,
      "velocity": 93,
      "chip": "ym2612"
    },
    {
      "channel": 2,
      "note": 30,
      "start": 40.1242,
      "duration": 0.0333,
      "velocity": 93,
      "chip": "ym2612"
    },
    {
      "channel": 2,
      "note": 31,
      "start": 40.1575,
      "duration": 0.0167,
      "velocity": 93,
      "chip": "ym2612"
    },
    {
      "channel": 2,
      "note": 32,
      "start": 40.1742,
      "duration": 0.0183,
      "velocity": 93,
      "chip": "ym2612"
    },
    {
      "channel": 3,
      "note": 82,
      "start": 40.1916,
      "duration": 0.0809,
      "velocity": 99,
      "chip": "ym2612"
    },
    {
      "channel": 2,
      "note": 33,
      "start": 40.1924,
      "duration": 0.0107,
      "velocity": 93,
      "chip": "ym2612"
    },
    {
      "channel": 2,
      "note": 34,
      "start": 40.2032,
      "duration": 0.0143,
      "velocity": 93,
      "chip": "ym2612"
    },
    {
      "channel": 2,
      "note": 36,
      "start": 40.2175,
      "duration": 0.0233,
      "velocity": 93,
      "chip": "ym2612"
    },
    {
      "channel": 2,
      "note": 37,
      "start": 40.2408,
      "duration": 0.0143,
      "velocity": 93,
      "chip": "ym2612"
    },
    {
      "channel": 2,
      "note": 38,
      "start": 40.2551,
      "duration": 0.0205,
      "velocity": 93,
      "chip": "ym2612"
    },
    {
      "channel": 0,
      "note": 47,
      "start": 40.2684,
      "duration": 0.2818,
      "velocity": 112,
      "chip": "ym2612"
    },
    {
      "channel": 1,
      "note": 75,
      "start": 40.2706,
      "duration": 1.1014,
      "velocity": 107,
      "chip": "ym2612"
    },
    {
      "channel": 3,
      "note": 75,
      "start": 40.2727,
      "duration": 1.0998,
      "velocity": 99,
      "chip": "ym2612"
    },
    {
      "channel": 4,
      "note": 83,
      "start": 40.2749,
      "duration": 0.1792,
      "velocity": 74,
      "chip": "ym2612"
    },
    {
      "channel": 2,
      "note": 39,
      "start": 40.2756,
      "duration": 0.0062,
      "velocity": 93,
      "chip": "ym2612"
    },
    {
      "channel": 2,
      "note": 40,
      "start": 40.2818,
      "duration": 0.0123,
      "velocity": 93,
      "chip": "ym2612"
    },
    {
      "channel": 2,
      "note": 41,
      "start": 40.2941,
      "duration": 0.0244,
      "velocity": 93,
      "chip": "ym2612"
    },
    {
      "channel": 2,
      "note": 42,
      "start": 40.3185,
      "duration": 0.0147,
      "velocity": 93,
      "chip": "ym2612"
    },
    {
      "channel": 2,
      "note": 43,
      "start": 40.3332,
      "duration": 0.0174,
      "velocity": 93,
      "chip": "ym2612"
    },
    {
      "channel": 2,
      "note": 44,
      "start": 40.3506,
      "duration": 0.0159,
      "velocity": 93,
      "chip": "ym2612"
    },
    {
      "channel": 2,
      "note": 45,
      "start": 40.3666,
      "duration": 0.0167,
      "velocity": 93,
      "chip": "ym2612"
    },
    {
      "channel": 2,
      "note": 46,
      "start": 40.3832,
      "duration": 0.0333,
      "velocity": 93,
      "chip": "ym2612"
    },
    {
      "channel": 2,
      "note": 48,
      "start": 40.4166,
      "duration": 0.0167,
      "velocity": 93,
      "chip": "ym2612"
    },
    {
      "channel": 2,
      "note": 49,
      "start": 40.4332,
      "duration": 0.0187,
      "velocity": 107,
      "chip": "ym2612"
    },
    {
      "channel": 2,
      "note": 75,
      "start": 40.452,
      "duration": 1.1204,
      "velocity": 107,
      "chip": "ym2612"
    },
    {
      "channel": 4,
      "note": 83,
      "start": 40.4543,
      "duration": 0.0983,
      "velocity": 100,
      "chip": "ym2612"
    },
    {
      "channel": 5,
      "note": 103,
      "start": 40.4549,
      "duration": 0.5332,
      "velocity": 127,
      "chip": "ym2612"
    },
    {
      "channel": 0,
      "note": 47,
      "start": 40.5504,
      "duration": 0.2698,
      "velocity": 112,
      "chip": "ym2612"
    },
    {
      "channel": 4,
      "note": 75,
      "start": 40.5527,
      "duration": 1.1059,
      "velocity": 100,
      "chip": "ym2612"
    },
    {
      "channel": 0,
      "note": 59,
      "start": 40.8204,
      "duration": 0.1669,
      "velocity": 112,
      "chip": "ym2612"
    },
    {
      "channel": 0,
      "note": 47,
      "start": 40.9875,
      "duration": 0.2998,
      "velocity": 112,
      "chip": "ym2612"
    },
    {
      "channel": 5,
      "note": 103,
      "start": 40.9883,
      "duration": 0.0994,
      "velocity": 127,
      "chip": "ym2612"
    },
    {
      "channel": 5,
      "note": 103,
      "start": 41.0878,
      "duration": 0.2853,
      "velocity": 127,
      "chip": "ym2612"
    },
    {
      "channel": 0,
      "note": 45,
      "start": 41.2875,
      "duration": 0.2843,
      "velocity": 112,
      "chip": "ym2612"
    },
    {
      "channel": 1,
      "note": 75,
      "start": 41.3721,
      "duration": 0.0016,
      "velocity": 107,
      "chip": "ym2612"
    },
    {
      "channel": 3,
      "note": 73,
      "start": 41.3727,
      "duration": 0.2853,
      "velocity": 99,
      "chip": "ym2612"
    },
    {
      "channel": 5,
      "note": 103,
      "start": 41.3733,
      "duration": 0.2858,
      "velocity": 127,
      "chip": "ym2612"
    },
    {
      "channel": 1,
      "note": 74,
      "start": 41.3737,
      "duration": 0.0144,
      "velocity": 107,
      "chip": "ym2612"
    },
    {
      "channel": 1,
      "note": 73,
      "start": 41.3881,
      "duration": 0.0167,
      "velocity": 107,
      "chip": "ym2612"
    },
    {
      "channel": 1,
      "note": 73,
      "start": 41.4048,
      "duration": 0.2526,
      "velocity": 107,
      "chip": "ym2612"
    },
    {
      "channel": 0,
      "note": 57,
      "start": 41.572,
      "duration": 0.2852,
      "velocity": 112,
      "chip": "ym2612"
    },
    {
      "channel": 2,
      "note": 75,
      "start": 41.5726,
      "duration": 0.001,
      "velocity": 107,
      "chip": "ym2612"
    },
    {
      "channel": 2,
      "note": 74,
      "start": 41.5735,
      "duration": 0.0119,
      "velocity": 107,
      "chip": "ym2612"
    },
    {
      "channel": 2,
      "note": 73,
      "start": 41.5854,
      "duration": 0.0134,
      "velocity": 107,
      "chip": "ym2612"
    },
    {
      "channel": 2,
      "note": 73,
      "start": 41.5988,
      "duration": 0.259,
      "velocity": 107,
      "chip": "ym2612"
    },
    {
      "channel": 1,
      "note": 73,
      "start": 41.6576,
      "duration": 0.0021,
      "velocity": 107,
      "chip": "ym2612"
    },
    {
      "channel": 3,
      "note": 71,
      "start": 41.6582,
      "duration": 0.2854,
      "velocity": 99,
      "chip": "ym2612"
    },
    {
      "channel": 4,
      "note": 73,
      "start": 41.6587,
      "duration": 0.2854,
      "velocity": 100,
      "chip": "ym2612"
    },
    {
      "channel": 5,
      "note": 103,
      "start": 41.6593,
      "duration": 0.4524,
      "velocity": 127,
      "chip": "ym2612"
    },
    {
      "channel": 1,
      "note": 72,
      "start": 41.6597,
      "duration": 0.0139,
      "velocity": 107,
      "chip": "ym2612"
    },
    {
      "channel": 1,
      "note": 71,
      "start": 41.6736,
      "duration": 0.2694,
      "velocity": 107,
      "chip": "ym2612"
    },
    {
      "channel": 0,
      "note": 45,
      "start": 41.8574,
      "duration": 0.0851,
      "velocity": 112,
      "chip": "ym2612"
    },
    {
      "channel": 2,
      "note": 73,
      "start": 41.858,
      "duration": 0.001,
      "velocity": 107,
      "chip": "ym2612"
    },
    {
      "channel": 2,
      "note": 72,
      "start": 41.8589,
      "duration": 0.0119,
      "velocity": 107,
      "chip": "ym2612"
    },
    {
      "channel": 2,
      "note": 71,
      "start": 41.8708,
      "duration": 0.2397,
      "velocity": 107,
      "chip": "ym2612"
    },
    {
      "channel": 0,
      "note": 57,
      "start": 41.9426,
      "duration": 0.1668,
      "velocity": 112,
      "chip": "ym2612"
    },
    {
      "channel": 1,
      "note": 71,
      "start": 41.9431,
      "duration": 0.002,
      "velocity": 107,
      "chip": "ym2612"
    },
    {
      "channel": 3,
      "note": 68,
      "start": 41.9438,
      "duration": 0.1673,
      "velocity": 99,
      "chip": "ym2612"
    },
    {
      "channel": 4,
      "note": 71,
      "start": 41.9444,
      "duration": 0.2668,
      "velocity": 100,
      "chip": "ym2612"
    },
    {
      "channel": 1,
      "note": 70,
      "start": 41.9451,
      "duration": 0.01,
      "velocity": 107,
      "chip": "ym2612"
    },
    {
      "channel": 1,
      "note": 69,
      "start": 41.9551,
      "duration": 0.013,
      "velocity": 107,
      "chip": "ym2612"
    },
    {
      "channel": 1,
      "note": 68,
      "start": 41.9681,
      "duration": 0.1419,
      "velocity": 107,
      "chip": "ym2612"
    },
    {
      "channel": 0,
      "note": 45,
      "start": 42.1096,
      "duration": 0.0999,
      "velocity": 112,
      "chip": "ym2612"
    },
    {
      "channel": 1,
      "note": 68,
      "start": 42.1102,
      "duration": 0.0021,
      "velocity": 107,
      "chip": "ym2612"
    },
    {
      "channel": 2,
      "note": 71,
      "start": 42.1107,
      "duration": 0.0019,
      "velocity": 107,
      "chip": "ym2612"
    },
    {
      "channel": 3,
      "note": 66,
      "start": 42.1112,
      "duration": 0.0994,
      "velocity": 99,
      "chip": "ym2612"
    },
    {
      "channel": 5,
      "note": 103,
      "start": 42.1119,
      "duration": 0.0999,
      "velocity": 127,
      "chip": "ym2612"
    },
    {
      "channel": 1,
      "note": 67,
      "start": 42.1123,
      "duration": 0.0134,
      "velocity": 107,
      "chip": "ym2612"
    },
    {
      "channel": 2,
      "note": 70,
      "start": 42.1126,
      "duration": 0.0135,
      "velocity": 107,
      "chip": "ym2612"
    },
    {
      "channel": 1,
      "note": 67,
      "start": 42.1257,
      "duration": 0.0167,
      "velocity": 107,
      "chip": "ym2612"
    },
    {
      "channel": 2,
      "note": 69,
      "start": 42.1261,
      "duration": 0.0167,
      "velocity": 107,
      "chip": "ym2612"
    },
    {
      "channel": 1,
      "note": 66,
      "start": 42.1424,
      "duration": 0.0676,
      "velocity": 107,
      "chip": "ym2612"
    },
    {
      "channel": 2,
      "note": 68,
      "start": 42.1427,
      "duration": 0.1673,
      "velocity": 107,
      "chip": "ym2612"
    },
    {
      "channel": 0,
      "note": 46,
      "start": 42.2096,
      "duration": 0.1999,
      "velocity": 112,
      "chip": "ym2612"
    },
    {
      "channel": 1,
      "note": 66,
      "start": 42.2102,
      "duration": 0.0022,
      "velocity": 107,
      "chip": "ym2612"
    },
    {
      "channel": 3,
      "note": 68,
      "start": 42.2108,
      "duration": 0.0998,
      "velocity": 99,
      "chip": "ym2612"
    },
    {
      "channel": 4,
      "note": 68,
      "start": 42.2113,
      "duration": 0.2003,
      "velocity": 100,
      "chip": "ym2612"
    },
    {
      "channel": 5,
      "note": 103,
      "start": 42.2119,
      "duration": 0.2003,
      "velocity": 127,
      "chip": "ym2612"
    },
    {
      "channel": 1,
      "note": 67,
      "start": 42.2123,
      "duration": 0.0134,
      "velocity": 107,
      "chip": "ym2612"
    },
    {
      "channel": 1,
      "note": 67,
      "start": 42.2257,
      "duration": 0.0167,
      "velocity": 107,
      "chip": "ym2612"
    },
    {
      "channel": 1,
      "note": 68,
      "start": 42.2424,
      "duration": 0.0671,
      "velocity": 107,
      "chip": "ym2612"
    },
    {
      "channel": 1,
      "note": 68,
      "start": 42.3097,
      "duration": 0.0016,
      "velocity": 107,
      "chip": "ym2612"
    },
    {
      "channel": 2,
      "note": 68,
      "start": 42.3102,
      "duration": 0.0014,
      "velocity": 107,
      "chip": "ym2612"
    },
    {
      "channel": 3,
      "note": 71,
      "start": 42.3108,
      "duration": 0.1003,
      "velocity": 99,
      "chip": "ym2612"
    },
    {
      "channel": 1,
      "note": 69,
      "start": 42.3112,
      "duration": 0.0144,
      "velocity": 107,
      "chip": "ym2612"
    },
    {
      "channel": 2,
      "note": 67,
      "start": 42.3116,
      "duration": 0.0144,
      "velocity": 107,
      "chip": "ym2612"
    },
    {
      "channel": 1,
      "note": 71,
      "start": 42.3257,
      "duration": 0.0167,
      "velocity": 107,
      "chip": "ym2612"
    },
    {
      "channel": 2,
      "note": 67,
      "start": 42.326,
      "duration": 0.0167,
      "velocity": 107,
      "chip": "ym2612"
    },
    {
      "channel": 1,
      "note": 71,
      "start": 42.3424,
      "duration": 0.0676,
      "velocity": 107,
      "chip": "ym2612"
    },
    {
      "channel": 2,
      "note": 66,
      "start": 42.3427,
      "duration": 0.0678,
      "velocity": 107,
      "chip": "ym2612"
    },
    {
      "channel": 0,
      "note": 58,
      "start": 42.4096,
      "duration": 0.0999,
      "velocity": 112,
      "chip": "ym2612"
    },
    {
      "channel": 1,
      "note": 71,
      "start": 42.4102,
      "duration": 0.0026,
      "velocity": 107,
      "chip": "ym2612"
    },
    {
      "channel": 2,
      "note": 66,
      "start": 42.4107,
      "duration": 0.0024,
      "velocity": 107,
      "chip": "ym2612"
    },
    {
      "channel": 3,
      "note": 74,
      "start": 42.4112,
      "duration": 0.0999,
      "velocity": 99,
      "chip": "ym2612"
    },
    {
      "channel": 4,
      "note": 66,
      "start": 42.4118,
      "duration": 0.0998,
      "velocity": 100,
      "chip": "ym2612"
    },
    {
      "channel": 5,
      "note": 103,
      "start": 42.4124,
      "duration": 0.2844,
      "velocity": 127,
      "chip": "ym2612"
    },
    {
      "channel": 1,
      "note": 72,
      "start": 42.4128,
      "duration": 0.0129,
      "velocity": 107,
      "chip": "ym2612"
    },
    {
      "channel": 2,
      "note": 67,
      "start": 42.4131,
      "duration": 0.0129,
      "velocity": 107,
      "chip": "ym2612"
    },
    {
      "channel": 1,
      "note": 73,
      "start": 42.4257,
      "duration": 0.0167,
      "velocity": 107,
      "chip": "ym2612"
    },
    {
      "channel": 2,
      "note": 67,
      "start": 42.426,
      "duration": 0.0167,
      "velocity": 107,
      "chip": "ym2612"
    },
    {
      "channel": 1,
      "note": 74,
      "start": 42.4424,
      "duration": 0.0676,
      "velocity": 107,
      "chip": "ym2612"
    },
    {
      "channel": 2,
      "note": 68,
      "start": 42.4427,
      "duration": 0.0678,
      "velocity": 107,
      "chip": "ym2612"
    },
    {
      "channel": 0,
      "note": 47,
      "start": 42.5096,
      "duration": 0.286,
      "velocity": 112,
      "chip": "ym2612"
    },
    {
      "channel": 1,
      "note": 74,
      "start": 42.5102,
      "duration": 0.0024,
      "velocity": 107,
      "chip": "ym2612"
    },
    {
      "channel": 2,
      "note": 68,
      "start": 42.5107,
      "duration": 0.0022,
      "velocity": 107,
      "chip": "ym2612"
    },
    {
      "channel": 3,
      "note": 75,
      "start": 42.5112,
      "duration": 1.11,
      "velocity": 99,
      "chip": "ym2612"
    },
    {
      "channel": 4,
      "note": 68,
      "start": 42.5118,
      "duration": 0.0845,
      "velocity": 100,
      "chip": "ym2612"
    },
    {
      "channel": 1,
      "note": 75,
      "start": 42.5126,
      "duration": 0.0108,
      "velocity": 107,
      "chip": "ym2612"
    },
    {
      "channel": 2,
      "note": 69,
      "start": 42.5129,
      "duration": 0.0108,
      "velocity": 107,
      "chip": "ym2612"
    },
    {
      "channel": 1,
      "note": 75,
      "start": 42.5234,
      "duration": 1.0973,
      "velocity": 107,
      "chip": "ym2612"
    },
    {
      "channel": 2,
      "note": 71,
      "start": 42.5237,
      "duration": 0.0125,
      "velocity": 107,
      "chip": "ym2612"
    },
    {
      "channel": 2,
      "note": 71,
      "start": 42.5362,
      "duration": 0.0596,
      "velocity": 107,
      "chip": "ym2612"
    },
    {
      "channel": 2,
      "note": 71,
      "start": 42.5959,
      "duration": 0.0011,
      "velocity": 107,
      "chip": "ym2612"
    },
    {
      "channel": 4,
      "note": 71,
      "start": 42.5965,
      "duration": 0.0998,
      "velocity": 100,
      "chip": "ym2612"
    },
    {
      "channel": 2,
      "note": 72,
      "start": 42.597,
      "duration": 0.0149,
      "velocity": 107,
      "chip": "ym2612"
    },
    {
      "channel": 2,
      "note": 73,
      "start": 42.6119,
      "duration": 0.0167,
      "velocity": 107,
      "chip": "ym2612"
    },
    {
      "channel": 2,
      "note": 74,
      "start": 42.6287,
      "duration": 0.067,
      "velocity": 107,
      "chip": "ym2612"
    },
    {
      "channel": 2,
      "note": 74,
      "start": 42.6958,
      "duration": 0.0016,
      "velocity": 107,
      "chip": "ym2612"
    },
    {
      "channel": 4,
      "note": 74,
      "start": 42.6964,
      "duration": 0.0999,
      "velocity": 100,
      "chip": "ym2612"
    },
    {
      "channel": 5,
      "note": 103,
      "start": 42.697,
      "duration": 0.5393,
      "velocity": 127,
      "chip": "ym2612"
    },
    {
      "channel": 2,
      "note": 75,
      "start": 42.6974,
      "duration": 0.0146,
      "velocity": 107,
      "chip": "ym2612"
    },
    {
      "channel": 2,
      "note": 75,
      "start": 42.712,
      "duration": 1.1097,
      "velocity": 107,
      "chip": "ym2612"
    },
    {
      "channel": 0,
      "note": 47,
      "start": 42.7958,
      "duration": 0.2722,
      "velocity": 112,
      "chip": "ym2612"
    },
    {
      "channel": 4,
      "note": 75,
      "start": 42.7965,
      "duration": 1.1085,
      "velocity": 100,
      "chip": "ym2612"
    },
    {
      "channel": 0,
      "note": 59,
      "start": 43.068,
      "duration": 0.1675,
      "velocity": 112,
      "chip": "ym2612"
    },
    {
      "channel": 0,
      "note": 47,
      "start": 43.2356,
      "duration": 0.2999,
      "velocity": 112,
      "chip": "ym2612"
    },
    {
      "channel": 5,
      "note": 103,
      "start": 43.2365,
      "duration": 0.0994,
      "velocity": 127,
      "chip": "ym2612"
    },
    {
      "channel": 5,
      "note": 103,
      "start": 43.336,
      "duration": 0.2859,
      "velocity": 127,
      "chip": "ym2612"
    },
    {
      "channel": 0,
      "note": 45,
      "start": 43.5356,
      "duration": 0.285,
      "velocity": 112,
      "chip": "ym2612"
    },
    {
      "channel": 1,
      "note": 75,
      "start": 43.6208,
      "duration": 0.0017,
      "velocity": 107,
      "chip": "ym2612"
    },
    {
      "channel": 3,
      "note": 78,
      "start": 43.6214,
      "duration": 0.2008,
      "velocity": 99,
      "chip": "ym2612"
    },
    {
      "channel": 5,
      "note": 103,
      "start": 43.6221,
      "duration": 0.2834,
      "velocity": 127,
      "chip": "ym2612"
    },
    {
      "channel": 1,
      "note": 76,
      "start": 43.6224,
      "duration": 0.0144,
      "velocity": 107,
      "chip": "ym2612"
    },
    {
      "channel": 1,
      "note": 77,
      "start": 43.6369,
      "duration": 0.0167,
      "velocity": 107,
      "chip": "ym2612"
    },
    {
      "channel": 1,
      "note": 78,
      "start": 43.6536,
      "duration": 0.0334,
      "velocity": 107,
      "chip": "ym2612"
    },
    {
      "channel": 1,
      "note": 78,
      "start": 43.687,
      "duration": 0.1342,
      "velocity": 107,
      "chip": "ym2612"
    },
    {
      "channel": 0,
      "note": 57,
      "start": 43.8208,
      "duration": 0.2839,
      "velocity": 112,
      "chip": "ym2612"
    },
    {
      "channel": 1,
      "note": 78,
      "start": 43.8214,
      "duration": 0.0019,
      "velocity": 107,
      "chip": "ym2612"
    },
    {
      "channel": 2,
      "note": 75,
      "start": 43.8219,
      "duration": 0.0017,
      "velocity": 107,
      "chip": "ym2612"
    },
    {
      "channel": 3,
      "note": 80,
      "start": 43.8224,
      "duration": 0.2834,
      "velocity": 99,
      "chip": "ym2612"
    },
    {
      "channel": 1,
      "note": 79,
      "start": 43.8233,
      "duration": 0.0099,
      "velocity": 107,
      "chip": "ym2612"
    },
    {
      "channel": 2,
      "note": 76,
      "start": 43.8236,
      "duration": 0.0099,
      "velocity": 107,
      "chip": "ym2612"
    },
    {
      "channel": 1,
      "note": 79,
      "start": 43.8332,
      "duration": 0.0134,
      "velocity": 107,
      "chip": "ym2612"
    },
    {
      "channel": 2,
      "note": 77,
      "start": 43.8335,
      "duration": 0.0134,
      "velocity": 107,
      "chip": "ym2612"
    },
    {
      "channel": 1,
      "note": 80,
      "start": 43.8466,
      "duration": 0.2587,
      "velocity": 107,
      "chip": "ym2612"
    },
    {
      "channel": 2,
      "note": 78,
      "start": 43.8469,
      "duration": 0.0249,
      "velocity": 107,
      "chip": "ym2612"
    },
    {
      "channel": 2,
      "note": 78,
      "start": 43.8717,
      "duration": 0.1329,
      "velocity": 107,
      "chip": "ym2612"
    },
    {
      "channel": 4,
      "note": 78,
      "start": 43.9051,
      "duration": 0.2013,
      "velocity": 100,
      "chip": "ym2612"
    },
    {
      "channel": 5,
      "note": 103,
      "start": 43.9057,
      "duration": 0.4535,
      "velocity": 127,
      "chip": "ym2612"
    },
    {
      "channel": 2,
      "note": 78,
      "start": 44.0049,
      "duration": 0.0006,
      "velocity": 107,
      "chip": "ym2612"
    },
    {
      "channel": 2,
      "note": 79,
      "start": 44.0054,
      "duration": 0.0155,
      "velocity": 107,
      "chip": "ym2612"
    },
    {
      "channel": 2,
      "note": 79,
      "start": 44.021,
      "duration": 0.0167,
      "velocity": 107,
      "chip": "ym2612"
    },
    {
      "channel": 2,
      "note": 80,
      "start": 44.0377,
      "duration": 0.2248,
      "velocity": 107,
      "chip": "ym2612"
    },
    {
      "channel": 0,
      "note": 45,
      "start": 44.1049,
      "duration": 0.0829,
      "velocity": 112,
      "chip": "ym2612"
    },
    {
      "channel": 1,
      "note": 80,
      "start": 44.1054,
      "duration": 0.002,
      "velocity": 107,
      "chip": "ym2612"
    },
    {
      "channel": 3,
      "note": 83,
      "start": 44.106,
      "duration": 0.252,
      "velocity": 99,
      "chip": "ym2612"
    },
    {
      "channel": 4,
      "note": 80,
      "start": 44.1066,
      "duration": 0.252,
      "velocity": 100,
      "chip": "ym2612"
    },
    {
      "channel": 1,
      "note": 81,
      "start": 44.1073,
      "duration": 0.01,
      "velocity": 107,
      "chip": "ym2612"
    },
    {
      "channel": 1,
      "note": 83,
      "start": 44.1173,
      "duration": 0.012,
      "velocity": 107,
      "chip": "ym2612"
    },
    {
      "channel": 1,
      "note": 83,
      "start": 44.1293,
      "duration": 0.2281,
      "velocity": 107,
      "chip": "ym2612"
    },
    {
      "channel": 0,
      "note": 57,
      "start": 44.1878,
      "duration": 0.169,
      "velocity": 112,
      "chip": "ym2612"
    },
    {
      "channel": 2,
      "note": 80,
      "start": 44.2627,
      "duration": 0.0006,
      "velocity": 107,
      "chip": "ym2612"
    },
    {
      "channel": 2,
      "note": 81,
      "start": 44.2634,
      "duration": 0.0125,
      "velocity": 107,
      "chip": "ym2612"
    },
    {
      "channel": 2,
      "note": 83,
      "start": 44.2759,
      "duration": 0.0141,
      "velocity": 107,
      "chip": "ym2612"
    },
    {
      "channel": 2,
      "note": 83,
      "start": 44.29,
      "duration": 0.2669,
      "velocity": 107,
      "chip": "ym2612"
    },
    {
      "channel": 0,
      "note": 45,
      "start": 44.357,
      "duration": 0.0999,
      "velocity": 112,
      "chip": "ym2612"
    },
    {
      "channel": 1,
      "note": 83,
      "start": 44.3576,
      "duration": 0.0022,
      "velocity": 107,
      "chip": "ym2612"
    },
    {
      "channel": 3,
      "note": 80,
      "start": 44.3582,
      "duration": 0.0999,
      "velocity": 99,
      "chip": "ym2612"
    },
    {
      "channel": 4,
      "note": 83,
      "start": 44.3587,
      "duration": 0.2994,
      "velocity": 100,
      "chip": "ym2612"
    },
    {
      "channel": 5,
      "note": 103,
      "start": 44.3593,
      "duration": 0.0994,
      "velocity": 127,
      "chip": "ym2612"
    },
    {
      "channel": 1,
      "note": 82,
      "start": 44.3598,
      "duration": 0.0134,
      "velocity": 107,
      "chip": "ym2612"
    },
    {
      "channel": 1,
      "note": 81,
      "start": 44.3731,
      "duration": 0.0167,
      "velocity": 107,
      "chip": "ym2612"
    },
    {
      "channel": 1,
      "note": 80,
      "start": 44.3898,
      "duration": 0.0676,
      "velocity": 107,
      "chip": "ym2612"
    },
    {
      "channel": 0,
      "note": 46,
      "start": 44.4571,
      "duration": 0.1999,
      "velocity": 112,
      "chip": "ym2612"
    },
    {
      "channel": 1,
      "note": 80,
      "start": 44.4576,
      "duration": 0.0017,
      "velocity": 107,
      "chip": "ym2612"
    },
    {
      "channel": 3,
      "note": 78,
      "start": 44.4582,
      "duration": 0.2768,
      "velocity": 99,
      "chip": "ym2612"
    },
    {
      "channel": 5,
      "note": 103,
      "start": 44.4589,
      "duration": 0.4641,
      "velocity": 127,
      "chip": "ym2612"
    },
    {
      "channel": 1,
      "note": 79,
      "start": 44.4593,
      "duration": 0.0138,
      "velocity": 107,
      "chip": "ym2612"
    },
    {
      "channel": 1,
      "note": 79,
      "start": 44.4731,
      "duration": 0.0167,
      "velocity": 107,
      "chip": "ym2612"
    },
    {
      "channel": 1,
      "note": 78,
      "start": 44.4898,
      "duration": 0.2445,
      "velocity": 107,
      "chip": "ym2612"
    },
    {
      "channel": 2,
      "note": 80,
      "start": 44.5571,
      "duration": 0.1004,
      "velocity": 107,
      "chip": "ym2612"
    },
    {
      "channel": 0,
      "note": 58,
      "start": 44.6571,
      "duration": 0.0766,
      "velocity": 112,
      "chip": "ym2612"
    },
    {
      "channel": 2,
      "note": 78,
      "start": 44.6577,
      "duration": 0.2625,
      "velocity": 107,
      "chip": "ym2612"
    },
    {
      "channel": 4,
      "note": 80,
      "start": 44.6583,
      "duration": 0.0788,
      "velocity": 74,
      "chip": "ym2612"
    },
    {
      "channel": 0,
      "note": 47,
      "start": 44.7339,
      "duration": 0.2861,
      "velocity": 112,
      "chip": "ym2612"
    },
    {
      "channel": 1,
      "note": 75,
      "start": 44.7345,
      "duration": 1.1072,
      "velocity": 107,
      "chip": "ym2612"
    },
    {
      "channel": 3,
      "note": 75,
      "start": 44.7352,
      "duration": 1.1071,
      "velocity": 99,
      "chip": "ym2612"
    },
    {
      "channel": 4,
      "note": 83,
      "start": 44.7373,
      "duration": 0.185,
      "velocity": 74,
      "chip": "ym2612"
    },
    {
      "channel": 2,
      "note": 75,
      "start": 44.9203,
      "duration": 1.1219,
      "velocity": 107,
      "chip": "ym2612"
    },
    {
      "channel": 4,
      "note": 83,
      "start": 44.9225,
      "duration": 0.0998,
      "velocity": 100,
      "chip": "ym2612"
    },
    {
      "channel": 5,
      "note": 103,
      "start": 44.9232,
      "duration": 0.5347,
      "velocity": 127,
      "chip": "ym2612"
    },
    {
      "channel": 0,
      "note": 47,
      "start": 45.0202,
      "duration": 0.2698,
      "velocity": 112,
      "chip": "ym2612"
    },
    {
      "channel": 4,
      "note": 75,
      "start": 45.0225,
      "duration": 1.1059,
      "velocity": 100,
      "chip": "ym2612"
    },
    {
      "channel": 0,
      "note": 59,
      "start": 45.2902,
      "duration": 0.1669,
      "velocity": 112,
      "chip": "ym2612"
    },
    {
      "channel": 0,
      "note": 47,
      "start": 45.4573,
      "duration": 0.2998,
      "velocity": 112,
      "chip": "ym2612"
    },
    {
      "channel": 5,
      "note": 103,
      "start": 45.458,
      "duration": 0.0994,
      "velocity": 127,
      "chip": "ym2612"
    },
    {
      "channel": 5,
      "note": 103,
      "start": 45.5576,
      "duration": 0.2853,
      "velocity": 127,
      "chip": "ym2612"
    },
    {
      "channel": 0,
      "note": 45,
      "start": 45.7573,
      "duration": 0.2843,
      "velocity": 112,
      "chip": "ym2612"
    },
    {
      "channel": 1,
      "note": 75,
      "start": 45.8419,
      "duration": 0.0016,
      "velocity": 107,
      "chip": "ym2612"
    },
    {
      "channel": 3,
      "note": 73,
      "start": 45.8424,
      "duration": 0.2854,
      "velocity": 99,
      "chip": "ym2612"
    },
    {
      "channel": 5,
      "note": 103,
      "start": 45.8431,
      "duration": 0.2858,
      "velocity": 127,
      "chip": "ym2612"
    },
    {
      "channel": 1,
      "note": 74,
      "start": 45.8435,
      "duration": 0.0144,
      "velocity": 107,
      "chip": "ym2612"
    },
    {
      "channel": 1,
      "note": 73,
      "start": 45.8579,
      "duration": 0.0167,
      "velocity": 107,
      "chip": "ym2612"
    },
    {
      "channel": 1,
      "note": 73,
      "start": 45.8746,
      "duration": 0.2526,
      "velocity": 107,
      "chip": "ym2612"
    },
    {
      "channel": 0,
      "note": 57,
      "start": 46.0417,
      "duration": 0.2852,
      "velocity": 112,
      "chip": "ym2612"
    },
    {
      "channel": 2,
      "note": 75,
      "start": 46.0423,
      "duration": 0.001,
      "velocity": 107,
      "chip": "ym2612"
    },
    {
      "channel": 2,
      "note": 74,
      "start": 46.0433,
      "duration": 0.0119,
      "velocity": 107,
      "chip": "ym2612"
    },
    {
      "channel": 2,
      "note": 73,
      "start": 46.0552,
      "duration": 0.0134,
      "velocity": 107,
      "chip": "ym2612"
    },
    {
      "channel": 2,
      "note": 73,
      "start": 46.0686,
      "duration": 0.259,
      "velocity": 107,
      "chip": "ym2612"
    },
    {
      "channel": 1,
      "note": 73,
      "start": 46.1274,
      "duration": 0.0021,
      "velocity": 107,
      "chip": "ym2612"
    },
    {
      "channel": 3,
      "note": 71,
      "start": 46.1279,
      "duration": 0.2854,
      "velocity": 99,
      "chip": "ym2612"
    },
    {
      "channel": 4,
      "note": 73,
      "start": 46.1285,
      "duration": 0.2854,
      "velocity": 100,
      "chip": "ym2612"
    },
    {
      "channel": 5,
      "note": 103,
      "start": 46.1291,
      "duration": 0.4519,
      "velocity": 127,
      "chip": "ym2612"
    },
    {
      "channel": 1,
      "note": 72,
      "start": 46.1295,
      "duration": 0.0139,
      "velocity": 107,
      "chip": "ym2612"
    },
    {
      "channel": 1,
      "note": 71,
      "start": 46.1434,
      "duration": 0.2693,
      "velocity": 107,
      "chip": "ym2612"
    },
    {
      "channel": 0,
      "note": 45,
      "start": 46.3272,
      "duration": 0.0851,
      "velocity": 112,
      "chip": "ym2612"
    },
    {
      "channel": 2,
      "note": 73,
      "start": 46.3278,
      "duration": 0.001,
      "velocity": 107,
      "chip": "ym2612"
    },
    {
      "channel": 2,
      "note": 72,
      "start": 46.3287,
      "duration": 0.0119,
      "velocity": 107,
      "chip": "ym2612"
    },
    {
      "channel": 2,
      "note": 71,
      "start": 46.3406,
      "duration": 0.2392,
      "velocity": 107,
      "chip": "ym2612"
    },
    {
      "channel": 0,
      "note": 57,
      "start": 46.4123,
      "duration": 0.1664,
      "velocity": 112,
      "chip": "ym2612"
    },
    {
      "channel": 1,
      "note": 71,
      "start": 46.4129,
      "duration": 0.0019,
      "velocity": 107,
      "chip": "ym2612"
    },
    {
      "channel": 3,
      "note": 68,
      "start": 46.4136,
      "duration": 0.1668,
      "velocity": 99,
      "chip": "ym2612"
    },
    {
      "channel": 4,
      "note": 71,
      "start": 46.4141,
      "duration": 0.2663,
      "velocity": 100,
      "chip": "ym2612"
    },
    {
      "channel": 1,
      "note": 70,
      "start": 46.4148,
      "duration": 0.0098,
      "velocity": 107,
      "chip": "ym2612"
    },
    {
      "channel": 1,
      "note": 69,
      "start": 46.4247,
      "duration": 0.0128,
      "velocity": 107,
      "chip": "ym2612"
    },
    {
      "channel": 1,
      "note": 68,
      "start": 46.4374,
      "duration": 0.1418,
      "velocity": 107,
      "chip": "ym2612"
    },
    {
      "channel": 0,
      "note": 45,
      "start": 46.5789,
      "duration": 0.0999,
      "velocity": 112,
      "chip": "ym2612"
    },
    {
      "channel": 1,
      "note": 68,
      "start": 46.5795,
      "duration": 0.0021,
      "velocity": 107,
      "chip": "ym2612"
    },
    {
      "channel": 2,
      "note": 71,
      "start": 46.58,
      "duration": 0.0019,
      "velocity": 107,
      "chip": "ym2612"
    },
    {
      "channel": 3,
      "note": 66,
      "start": 46.5805,
      "duration": 0.0994,
      "velocity": 99,
      "chip": "ym2612"
    },
    {
      "channel": 5,
      "note": 103,
      "start": 46.5812,
      "duration": 0.0999,
      "velocity": 127,
      "chip": "ym2612"
    },
    {
      "channel": 1,
      "note": 67,
      "start": 46.5816,
      "duration": 0.0134,
      "velocity": 107,
      "chip": "ym2612"
    },
    {
      "channel": 2,
      "note": 70,
      "start": 46.5819,
      "duration": 0.0135,
      "velocity": 107,
      "chip": "ym2612"
    },
    {
      "channel": 1,
      "note": 67,
      "start": 46.595,
      "duration": 0.0167,
      "velocity": 107,
      "chip": "ym2612"
    },
    {
      "channel": 2,
      "note": 69,
      "start": 46.5954,
      "duration": 0.0167,
      "velocity": 107,
      "chip": "ym2612"
    },
    {
      "channel": 1,
      "note": 66,
      "start": 46.6117,
      "duration": 0.0676,
      "velocity": 107,
      "chip": "ym2612"
    },
    {
      "channel": 2,
      "note": 68,
      "start": 46.612,
      "duration": 0.1673,
      "velocity": 107,
      "chip": "ym2612"
    },
    {
      "channel": 0,
      "note": 46,
      "start": 46.6789,
      "duration": 0.1999,
      "velocity": 112,
      "chip": "ym2612"
    },
    {
      "channel": 1,
      "note": 66,
      "start": 46.6795,
      "duration": 0.0022,
      "velocity": 107,
      "chip": "ym2612"
    },
    {
      "channel": 3,
      "note": 68,
      "start": 46.6801,
      "duration": 0.0998,
      "velocity": 99,
      "chip": "ym2612"
    },
    {
      "channel": 4,
      "note": 68,
      "start": 46.6807,
      "duration": 0.2002,
      "velocity": 100,
      "chip": "ym2612"
    },
    {
      "channel": 5,
      "note": 103,
      "start": 46.6812,
      "duration": 0.2002,
      "velocity": 127,
      "chip": "ym2612"
    },
    {
      "channel": 1,
      "note": 67,
      "start": 46.6816,
      "duration": 0.0134,
      "velocity": 107,
      "chip": "ym2612"
    },
    {
      "channel": 1,
      "note": 67,
      "start": 46.695,
      "duration": 0.0167,
      "velocity": 107,
      "chip": "ym2612"
    },
    {
      "channel": 1,
      "note": 68,
      "start": 46.7117,
      "duration": 0.0671,
      "velocity": 107,
      "chip": "ym2612"
    },
    {
      "channel": 1,
      "note": 68,
      "start": 46.779,
      "duration": 0.0016,
      "velocity": 107,
      "chip": "ym2612"
    },
    {
      "channel": 2,
      "note": 68,
      "start": 46.7795,
      "duration": 0.0014,
      "velocity": 107,
      "chip": "ym2612"
    },
    {
      "channel": 3,
      "note": 71,
      "start": 46.7801,
      "duration": 0.1003,
      "velocity": 99,
      "chip": "ym2612"
    },
    {
      "channel": 1,
      "note": 69,
      "start": 46.7805,
      "duration": 0.0144,
      "velocity": 107,
      "chip": "ym2612"
    },
    {
      "channel": 2,
      "note": 67,
      "start": 46.7809,
      "duration": 0.0144,
      "velocity": 107,
      "chip": "ym2612"
    },
    {
      "channel": 1,
      "note": 71,
      "start": 46.795,
      "duration": 0.0167,
      "velocity": 107,
      "chip": "ym2612"
    },
    {
      "channel": 2,
      "note": 67,
      "start": 46.7953,
      "duration": 0.0167,
      "velocity": 107,
      "chip": "ym2612"
    },
    {
      "channel": 1,
      "note": 71,
      "start": 46.8117,
      "duration": 0.0676,
      "velocity": 107,
      "chip": "ym2612"
    },
    {
      "channel": 2,
      "note": 66,
      "start": 46.812,
      "duration": 0.0678,
      "velocity": 107,
      "chip": "ym2612"
    },
    {
      "channel": 0,
      "note": 58,
      "start": 46.8789,
      "duration": 0.0999,
      "velocity": 112,
      "chip": "ym2612"
    },
    {
      "channel": 1,
      "note": 71,
      "start": 46.8795,
      "duration": 0.0026,
      "velocity": 107,
      "chip": "ym2612"
    },
    {
      "channel": 2,
      "note": 66,
      "start": 46.88,
      "duration": 0.0024,
      "velocity": 107,
      "chip": "ym2612"
    },
    {
      "channel": 3,
      "note": 74,
      "start": 46.8805,
      "duration": 0.0999,
      "velocity": 99,
      "chip": "ym2612"
    },
    {
      "channel": 4,
      "note": 66,
      "start": 46.8811,
      "duration": 0.0998,
      "velocity": 100,
      "chip": "ym2612"
    },
    {
      "channel": 5,
      "note": 103,
      "start": 46.8817,
      "duration": 0.2844,
      "velocity": 127,
      "chip": "ym2612"
    },
    {
      "channel": 1,
      "note": 72,
      "start": 46.8821,
      "duration": 0.0129,
      "velocity": 107,
      "chip": "ym2612"
    },
    {
      "channel": 2,
      "note": 67,
      "start": 46.8824,
      "duration": 0.0129,
      "velocity": 107,
      "chip": "ym2612"
    },
    {
      "channel": 1,
      "note": 73,
      "start": 46.895,
      "duration": 0.0167,
      "velocity": 107,
      "chip": "ym2612"
    },
    {
      "channel": 2,
      "note": 67,
      "start": 46.8953,
      "duration": 0.0167,
      "velocity": 107,
      "chip": "ym2612"
    },
    {
      "channel": 1,
      "note": 74,
      "start": 46.9117,
      "duration": 0.0676,
      "velocity": 107,
      "chip": "ym2612"
    },
    {
      "channel": 2,
      "note": 68,
      "start": 46.912,
      "duration": 0.0678,
      "velocity": 107,
      "chip": "ym2612"
    },
    {
      "channel": 0,
      "note": 47,
      "start": 46.9789,
      "duration": 0.286,
      "velocity": 112,
      "chip": "ym2612"
    },
    {
      "channel": 1,
      "note": 74,
      "start": 46.9795,
      "duration": 0.0024,
      "velocity": 107,
      "chip": "ym2612"
    },
    {
      "channel": 2,
      "note": 68,
      "start": 46.98,
      "duration": 0.0022,
      "velocity": 107,
      "chip": "ym2612"
    },
    {
      "channel": 3,
      "note": 75,
      "start": 46.9805,
      "duration": 1.1089,
      "velocity": 99,
      "chip": "ym2612"
    },
    {
      "channel": 4,
      "note": 68,
      "start": 46.9811,
      "duration": 0.0845,
      "velocity": 100,
      "chip": "ym2612"
    },
    {
      "channel": 1,
      "note": 75,
      "start": 46.9819,
      "duration": 0.0108,
      "velocity": 107,
      "chip": "ym2612"
    },
    {
      "channel": 2,
      "note": 69,
      "start": 46.9822,
      "duration": 0.0108,
      "velocity": 107,
      "chip": "ym2612"
    },
    {
      "channel": 1,
      "note": 75,
      "start": 46.9927,
      "duration": 1.0962,
      "velocity": 107,
      "chip": "ym2612"
    },
    {
      "channel": 2,
      "note": 71,
      "start": 46.993,
      "duration": 0.0125,
      "velocity": 107,
      "chip": "ym2612"
    },
    {
      "channel": 2,
      "note": 71,
      "start": 47.0055,
      "duration": 0.0596,
      "velocity": 107,
      "chip": "ym2612"
    },
    {
      "channel": 2,
      "note": 71,
      "start": 47.0652,
      "duration": 0.0011,
      "velocity": 107,
      "chip": "ym2612"
    },
    {
      "channel": 4,
      "note": 71,
      "start": 47.0658,
      "duration": 0.0998,
      "velocity": 100,
      "chip": "ym2612"
    },
    {
      "channel": 2,
      "note": 72,
      "start": 47.0663,
      "duration": 0.0149,
      "velocity": 107,
      "chip": "ym2612"
    },
    {
      "channel": 2,
      "note": 73,
      "start": 47.0812,
      "duration": 0.0167,
      "velocity": 107,
      "chip": "ym2612"
    },
    {
      "channel": 2,
      "note": 74,
      "start": 47.098,
      "duration": 0.067,
      "velocity": 107,
      "chip": "ym2612"
    },
    {
      "channel": 2,
      "note": 74,
      "start": 47.1651,
      "duration": 0.0016,
      "velocity": 107,
      "chip": "ym2612"
    },
    {
      "channel": 4,
      "note": 74,
      "start": 47.1657,
      "duration": 0.0999,
      "velocity": 100,
      "chip": "ym2612"
    },
    {
      "channel": 5,
      "note": 103,
      "start": 47.1663,
      "duration": 0.5388,
      "velocity": 127,
      "chip": "ym2612"
    },
    {
      "channel": 2,
      "note": 75,
      "start": 47.1667,
      "duration": 0.0146,
      "velocity": 107,
      "chip": "ym2612"
    },
    {
      "channel": 2,
      "note": 75,
      "start": 47.1813,
      "duration": 1.1086,
      "velocity": 107,
      "chip": "ym2612"
    },
    {
      "channel": 0,
      "note": 47,
      "start": 47.2651,
      "duration": 0.2722,
      "velocity": 112,
      "chip": "ym2612"
    },
    {
      "channel": 4,
      "note": 75,
      "start": 47.2658,
      "duration": 1.1085,
      "velocity": 100,
      "chip": "ym2612"
    },
    {
      "channel": 0,
      "note": 59,
      "start": 47.5374,
      "duration": 0.1669,
      "velocity": 112,
      "chip": "ym2612"
    },
    {
      "channel": 0,
      "note": 47,
      "start": 47.7045,
      "duration": 0.2998,
      "velocity": 112,
      "chip": "ym2612"
    },
    {
      "channel": 5,
      "note": 103,
      "start": 47.7052,
      "duration": 0.0994,
      "velocity": 127,
      "chip": "ym2612"
    },
    {
      "channel": 5,
      "note": 103,
      "start": 47.8048,
      "duration": 0.2853,
      "velocity": 127,
      "chip": "ym2612"
    },
    {
      "channel": 0,
      "note": 45,
      "start": 48.0045,
      "duration": 0.2844,
      "velocity": 112,
      "chip": "ym2612"
    },
    {
      "channel": 1,
      "note": 75,
      "start": 48.0891,
      "duration": 0.0016,
      "velocity": 107,
      "chip": "ym2612"
    },
    {
      "channel": 3,
      "note": 78,
      "start": 48.0897,
      "duration": 0.2008,
      "velocity": 99,
      "chip": "ym2612"
    },
    {
      "channel": 5,
      "note": 103,
      "start": 48.0903,
      "duration": 0.2845,
      "velocity": 127,
      "chip": "ym2612"
    },
    {
      "channel": 1,
      "note": 76,
      "start": 48.0907,
      "duration": 0.0144,
      "velocity": 107,
      "chip": "ym2612"
    },
    {
      "channel": 1,
      "note": 77,
      "start": 48.1051,
      "duration": 0.0167,
      "velocity": 107,
      "chip": "ym2612"
    },
    {
      "channel": 1,
      "note": 78,
      "start": 48.1218,
      "duration": 0.0333,
      "velocity": 107,
      "chip": "ym2612"
    },
    {
      "channel": 1,
      "note": 78,
      "start": 48.1551,
      "duration": 0.1343,
      "velocity": 107,
      "chip": "ym2612"
    },
    {
      "channel": 0,
      "note": 57,
      "start": 48.289,
      "duration": 0.285,
      "velocity": 112,
      "chip": "ym2612"
    },
    {
      "channel": 1,
      "note": 78,
      "start": 48.2896,
      "duration": 0.0019,
      "velocity": 107,
      "chip": "ym2612"
    },
    {
      "channel": 2,
      "note": 75,
      "start": 48.2901,
      "duration": 0.0017,
      "velocity": 107,
      "chip": "ym2612"
    },
    {
      "channel": 3,
      "note": 80,
      "start": 48.2907,
      "duration": 0.2844,
      "velocity": 99,
      "chip": "ym2612"
    },
    {
      "channel": 1,
      "note": 79,
      "start": 48.2915,
      "duration": 0.0112,
      "velocity": 107,
      "chip": "ym2612"
    },
    {
      "channel": 2,
      "note": 76,
      "start": 48.2918,
      "duration": 0.0112,
      "velocity": 107,
      "chip": "ym2612"
    },
    {
      "channel": 1,
      "note": 79,
      "start": 48.3027,
      "duration": 0.0118,
      "velocity": 107,
      "chip": "ym2612"
    },
    {
      "channel": 2,
      "note": 77,
      "start": 48.303,
      "duration": 0.0118,
      "velocity": 107,
      "chip": "ym2612"
    },
    {
      "channel": 1,
      "note": 80,
      "start": 48.3145,
      "duration": 0.2601,
      "velocity": 107,
      "chip": "ym2612"
    },
    {
      "channel": 2,
      "note": 78,
      "start": 48.3148,
      "duration": 0.0262,
      "velocity": 107,
      "chip": "ym2612"
    },
    {
      "channel": 2,
      "note": 78,
      "start": 48.341,
      "duration": 0.133,
      "velocity": 107,
      "chip": "ym2612"
    },
    {
      "channel": 4,
      "note": 78,
      "start": 48.3744,
      "duration": 0.2013,
      "velocity": 100,
      "chip": "ym2612"
    },
    {
      "channel": 5,
      "note": 103,
      "start": 48.375,
      "duration": 0.4535,
      "velocity": 127,
      "chip": "ym2612"
    },
    {
      "channel": 2,
      "note": 78,
      "start": 48.4742,
      "duration": 0.0006,
      "velocity": 107,
      "chip": "ym2612"
    },
    {
      "channel": 2,
      "note": 79,
      "start": 48.4747,
      "duration": 0.0155,
      "velocity": 107,
      "chip": "ym2612"
    },
    {
      "channel": 2,
      "note": 79,
      "start": 48.4903,
      "duration": 0.0167,
      "velocity": 107,
      "chip": "ym2612"
    },
    {
      "channel": 2,
      "note": 80,
      "start": 48.507,
      "duration": 0.2248,
      "velocity": 107,
      "chip": "ym2612"
    },
    {
      "channel": 0,
      "note": 45,
      "start": 48.5742,
      "duration": 0.0829,
      "velocity": 112,
      "chip": "ym2612"
    },
    {
      "channel": 1,
      "note": 80,
      "start": 48.5747,
      "duration": 0.002,
      "velocity": 107,
      "chip": "ym2612"
    },
    {
      "channel": 3,
      "note": 83,
      "start": 48.5753,
      "duration": 0.252,
      "velocity": 99,
      "chip": "ym2612"
    },
    {
      "channel": 4,
      "note": 80,
      "start": 48.5759,
      "duration": 0.252,
      "velocity": 100,
      "chip": "ym2612"
    },
    {
      "channel": 1,
      "note": 81,
      "start": 48.5766,
      "duration": 0.01,
      "velocity": 107,
      "chip": "ym2612"
    },
    {
      "channel": 1,
      "note": 83,
      "start": 48.5866,
      "duration": 0.012,
      "velocity": 107,
      "chip": "ym2612"
    },
    {
      "channel": 1,
      "note": 83,
      "start": 48.5986,
      "duration": 0.2281,
      "velocity": 107,
      "chip": "ym2612"
    },
    {
      "channel": 0,
      "note": 57,
      "start": 48.6571,
      "duration": 0.169,
      "velocity": 112,
      "chip": "ym2612"
    },
    {
      "channel": 2,
      "note": 80,
      "start": 48.732,
      "duration": 0.0006,
      "velocity": 107,
      "chip": "ym2612"
    },
    {
      "channel": 2,
      "note": 81,
      "start": 48.7327,
      "duration": 0.0125,
      "velocity": 107,
      "chip": "ym2612"
    },
    {
      "channel": 2,
      "note": 83,
      "start": 48.7452,
      "duration": 0.0141,
      "velocity": 107,
      "chip": "ym2612"
    },
    {
      "channel": 2,
      "note": 83,
      "start": 48.7593,
      "duration": 0.2669,
      "velocity": 107,
      "chip": "ym2612"
    },
    {
      "channel": 0,
      "note": 45,
      "start": 48.8263,
      "duration": 0.0999,
      "velocity": 112,
      "chip": "ym2612"
    },
    {
      "channel": 1,
      "note": 83,
      "start": 48.8269,
      "duration": 0.0022,
      "velocity": 107,
      "chip": "ym2612"
    },
    {
      "channel": 3,
      "note": 80,
      "start": 48.8275,
      "duration": 0.0999,
      "velocity": 99,
      "chip": "ym2612"
    },
    {
      "channel": 4,
      "note": 83,
      "start": 48.828,
      "duration": 0.2995,
      "velocity": 100,
      "chip": "ym2612"
    },
    {
      "channel": 5,
      "note": 103,
      "start": 48.8286,
      "duration": 0.0994,
      "velocity": 127,
      "chip": "ym2612"
    },
    {
      "channel": 1,
      "note": 82,
      "start": 48.829,
      "duration": 0.0134,
      "velocity": 107,
      "chip": "ym2612"
    },
    {
      "channel": 1,
      "note": 81,
      "start": 48.8424,
      "duration": 0.0167,
      "velocity": 107,
      "chip": "ym2612"
    },
    {
      "channel": 1,
      "note": 80,
      "start": 48.8591,
      "duration": 0.0676,
      "velocity": 107,
      "chip": "ym2612"
    },
    {
      "channel": 0,
      "note": 46,
      "start": 48.9264,
      "duration": 0.1999,
      "velocity": 112,
      "chip": "ym2612"
    },
    {
      "channel": 1,
      "note": 80,
      "start": 48.9269,
      "duration": 0.0017,
      "velocity": 107,
      "chip": "ym2612"
    },
    {
      "channel": 3,
      "note": 78,
      "start": 48.9275,
      "duration": 0.278,
      "velocity": 99,
      "chip": "ym2612"
    },
    {
      "channel": 5,
      "note": 103,
      "start": 48.9282,
      "duration": 0.4628,
      "velocity": 127,
      "chip": "ym2612"
    },
    {
      "channel": 1,
      "note": 79,
      "start": 48.9286,
      "duration": 0.0138,
      "velocity": 107,
      "chip": "ym2612"
    },
    {
      "channel": 1,
      "note": 79,
      "start": 48.9424,
      "duration": 0.0167,
      "velocity": 107,
      "chip": "ym2612"
    },
    {
      "channel": 1,
      "note": 78,
      "start": 48.9591,
      "duration": 0.2457,
      "velocity": 107,
      "chip": "ym2612"
    },
    {
      "channel": 2,
      "note": 80,
      "start": 49.0264,
      "duration": 0.1004,
      "velocity": 107,
      "chip": "ym2612"
    },
    {
      "channel": 0,
      "note": 58,
      "start": 49.1264,
      "duration": 0.0778,
      "velocity": 112,
      "chip": "ym2612"
    },
    {
      "channel": 2,
      "note": 78,
      "start": 49.127,
      "duration": 0.2632,
      "velocity": 107,
      "chip": "ym2612"
    },
    {
      "channel": 4,
      "note": 80,
      "start": 49.1276,
      "duration": 0.0785,
      "velocity": 100,
      "chip": "ym2612"
    },
    {
      "channel": 0,
      "note": 47,
      "start": 49.2044,
      "duration": 0.2857,
      "velocity": 112,
      "chip": "ym2612"
    },
    {
      "channel": 1,
      "note": 75,
      "start": 49.2051,
      "duration": 1.1056,
      "velocity": 107,
      "chip": "ym2612"
    },
    {
      "channel": 3,
      "note": 78,
      "start": 49.2057,
      "duration": 1.1055,
      "velocity": 99,
      "chip": "ym2612"
    },
    {
      "channel": 4,
      "note": 78,
      "start": 49.2063,
      "duration": 0.2845,
      "velocity": 100,
      "chip": "ym2612"
    },
    {
      "channel": 2,
      "note": 75,
      "start": 49.3904,
      "duration": 1.1207,
      "velocity": 107,
      "chip": "ym2612"
    },
    {
      "channel": 5,
      "note": 103,
      "start": 49.3911,
      "duration": 0.5357,
      "velocity": 127,
      "chip": "ym2612"
    },
    {
      "channel": 0,
      "note": 47,
      "start": 49.4903,
      "duration": 0.2684,
      "velocity": 112,
      "chip": "ym2612"
    },
    {
      "channel": 4,
      "note": 78,
      "start": 49.4911,
      "duration": 1.1062,
      "velocity": 100,
      "chip": "ym2612"
    },
    {
      "channel": 0,
      "note": 59,
      "start": 49.7588,
      "duration": 0.1671,
      "velocity": 112,
      "chip": "ym2612"
    },
    {
      "channel": 0,
      "note": 47,
      "start": 49.9262,
      "duration": 0.2998,
      "velocity": 112,
      "chip": "ym2612"
    },
    {
      "channel": 5,
      "note": 103,
      "start": 49.9269,
      "duration": 0.0994,
      "velocity": 127,
      "chip": "ym2612"
    },
    {
      "channel": 5,
      "note": 103,
      "start": 50.0265,
      "duration": 0.2853,
      "velocity": 127,
      "chip": "ym2612"
    },
    {
      "channel": 0,
      "note": 45,
      "start": 50.2262,
      "duration": 0.2843,
      "velocity": 112,
      "chip": "ym2612"
    },
    {
      "channel": 1,
      "note": 75,
      "start": 50.3108,
      "duration": 0.0016,
      "velocity": 107,
      "chip": "ym2612"
    },
    {
      "channel": 3,
      "note": 76,
      "start": 50.3114,
      "duration": 0.2853,
      "velocity": 99,
      "chip": "ym2612"
    },
    {
      "channel": 5,
      "note": 103,
      "start": 50.312,
      "duration": 0.2858,
      "velocity": 127,
      "chip": "ym2612"
    },
    {
      "channel": 1,
      "note": 74,
      "start": 50.3124,
      "duration": 0.0144,
      "velocity": 107,
      "chip": "ym2612"
    },
    {
      "channel": 1,
      "note": 73,
      "start": 50.3268,
      "duration": 0.0167,
      "velocity": 107,
      "chip": "ym2612"
    },
    {
      "channel": 1,
      "note": 73,
      "start": 50.3436,
      "duration": 0.2525,
      "velocity": 107,
      "chip": "ym2612"
    },
    {
      "channel": 0,
      "note": 57,
      "start": 50.5107,
      "duration": 0.2852,
      "velocity": 112,
      "chip": "ym2612"
    },
    {
      "channel": 2,
      "note": 75,
      "start": 50.5112,
      "duration": 0.001,
      "velocity": 107,
      "chip": "ym2612"
    },
    {
      "channel": 2,
      "note": 74,
      "start": 50.5122,
      "duration": 0.0119,
      "velocity": 107,
      "chip": "ym2612"
    },
    {
      "channel": 2,
      "note": 73,
      "start": 50.5241,
      "duration": 0.0134,
      "velocity": 107,
      "chip": "ym2612"
    },
    {
      "channel": 2,
      "note": 73,
      "start": 50.5375,
      "duration": 0.259,
      "velocity": 107,
      "chip": "ym2612"
    },
    {
      "channel": 1,
      "note": 73,
      "start": 50.5963,
      "duration": 0.0021,
      "velocity": 107,
      "chip": "ym2612"
    },
    {
      "channel": 3,
      "note": 75,
      "start": 50.5968,
      "duration": 0.2854,
      "velocity": 99,
      "chip": "ym2612"
    },
    {
      "channel": 4,
      "note": 76,
      "start": 50.5974,
      "duration": 0.2854,
      "velocity": 100,
      "chip": "ym2612"
    },
    {
      "channel": 5,
      "note": 103,
      "start": 50.598,
      "duration": 0.4507,
      "velocity": 127,
      "chip": "ym2612"
    },
    {
      "channel": 1,
      "note": 72,
      "start": 50.5984,
      "duration": 0.0139,
      "velocity": 107,
      "chip": "ym2612"
    },
    {
      "channel": 1,
      "note": 71,
      "start": 50.6123,
      "duration": 0.2694,
      "velocity": 107,
      "chip": "ym2612"
    },
    {
      "channel": 0,
      "note": 45,
      "start": 50.7961,
      "duration": 0.0851,
      "velocity": 112,
      "chip": "ym2612"
    },
    {
      "channel": 2,
      "note": 73,
      "start": 50.7967,
      "duration": 0.001,
      "velocity": 107,
      "chip": "ym2612"
    },
    {
      "channel": 2,
      "note": 72,
      "start": 50.7976,
      "duration": 0.0119,
      "velocity": 107,
      "chip": "ym2612"
    },
    {
      "channel": 2,
      "note": 71,
      "start": 50.8095,
      "duration": 0.238,
      "velocity": 107,
      "chip": "ym2612"
    },
    {
      "channel": 0,
      "note": 57,
      "start": 50.8813,
      "duration": 0.1651,
      "velocity": 112,
      "chip": "ym2612"
    },
    {
      "channel": 1,
      "note": 71,
      "start": 50.8818,
      "duration": 0.002,
      "velocity": 107,
      "chip": "ym2612"
    },
    {
      "channel": 3,
      "note": 73,
      "start": 50.8825,
      "duration": 0.1656,
      "velocity": 99,
      "chip": "ym2612"
    },
    {
      "channel": 4,
      "note": 75,
      "start": 50.883,
      "duration": 0.2651,
      "velocity": 100,
      "chip": "ym2612"
    },
    {
      "channel": 1,
      "note": 70,
      "start": 50.8838,
      "duration": 0.01,
      "velocity": 107,
      "chip": "ym2612"
    },
    {
      "channel": 1,
      "note": 69,
      "start": 50.8938,
      "duration": 0.013,
      "velocity": 107,
      "chip": "ym2612"
    },
    {
      "channel": 1,
      "note": 68,
      "start": 50.9068,
      "duration": 0.1401,
      "velocity": 107,
      "chip": "ym2612"
    },
    {
      "channel": 0,
      "note": 45,
      "start": 51.0466,
      "duration": 0.0999,
      "velocity": 112,
      "chip": "ym2612"
    },
    {
      "channel": 1,
      "note": 68,
      "start": 51.0471,
      "duration": 0.0021,
      "velocity": 107,
      "chip": "ym2612"
    },
    {
      "channel": 2,
      "note": 71,
      "start": 51.0476,
      "duration": 0.0019,
      "velocity": 107,
      "chip": "ym2612"
    },
    {
      "channel": 3,
      "note": 71,
      "start": 51.0482,
      "duration": 0.0994,
      "velocity": 99,
      "chip": "ym2612"
    },
    {
      "channel": 5,
      "note": 103,
      "start": 51.0488,
      "duration": 0.0999,
      "velocity": 127,
      "chip": "ym2612"
    },
    {
      "channel": 1,
      "note": 67,
      "start": 51.0492,
      "duration": 0.0134,
      "velocity": 107,
      "chip": "ym2612"
    },
    {
      "channel": 2,
      "note": 70,
      "start": 51.0495,
      "duration": 0.0135,
      "velocity": 107,
      "chip": "ym2612"
    },
    {
      "channel": 1,
      "note": 67,
      "start": 51.0627,
      "duration": 0.0167,
      "velocity": 107,
      "chip": "ym2612"
    },
    {
      "channel": 2,
      "note": 69,
      "start": 51.063,
      "duration": 0.0167,
      "velocity": 107,
      "chip": "ym2612"
    },
    {
      "channel": 1,
      "note": 66,
      "start": 51.0794,
      "duration": 0.0676,
      "velocity": 107,
      "chip": "ym2612"
    },
    {
      "channel": 2,
      "note": 68,
      "start": 51.0797,
      "duration": 0.1673,
      "velocity": 107,
      "chip": "ym2612"
    },
    {
      "channel": 0,
      "note": 46,
      "start": 51.1466,
      "duration": 0.1999,
      "velocity": 112,
      "chip": "ym2612"
    },
    {
      "channel": 1,
      "note": 66,
      "start": 51.1471,
      "duration": 0.0022,
      "velocity": 107,
      "chip": "ym2612"
    },
    {
      "channel": 3,
      "note": 73,
      "start": 51.1478,
      "duration": 0.0998,
      "velocity": 99,
      "chip": "ym2612"
    },
    {
      "channel": 4,
      "note": 73,
      "start": 51.1483,
      "duration": 0.2003,
      "velocity": 100,
      "chip": "ym2612"
    },
    {
      "channel": 5,
      "note": 103,
      "start": 51.1488,
      "duration": 0.2003,
      "velocity": 127,
      "chip": "ym2612"
    },
    {
      "channel": 1,
      "note": 67,
      "start": 51.1493,
      "duration": 0.0134,
      "velocity": 107,
      "chip": "ym2612"
    },
    {
      "channel": 1,
      "note": 67,
      "start": 51.1627,
      "duration": 0.0167,
      "velocity": 107,
      "chip": "ym2612"
    },
    {
      "channel": 1,
      "note": 68,
      "start": 51.1794,
      "duration": 0.0671,
      "velocity": 107,
      "chip": "ym2612"
    },
    {
      "channel": 1,
      "note": 68,
      "start": 51.2466,
      "duration": 0.0016,
      "velocity": 107,
      "chip": "ym2612"
    },
    {
      "channel": 2,
      "note": 68,
      "start": 51.2472,
      "duration": 0.0014,
      "velocity": 107,
      "chip": "ym2612"
    },
    {
      "channel": 3,
      "note": 74,
      "start": 51.2478,
      "duration": 0.1003,
      "velocity": 99,
      "chip": "ym2612"
    },
    {
      "channel": 1,
      "note": 69,
      "start": 51.2482,
      "duration": 0.0144,
      "velocity": 107,
      "chip": "ym2612"
    },
    {
      "channel": 2,
      "note": 67,
      "start": 51.2486,
      "duration": 0.0144,
      "velocity": 107,
      "chip": "ym2612"
    },
    {
      "channel": 1,
      "note": 71,
      "start": 51.2627,
      "duration": 0.0167,
      "velocity": 107,
      "chip": "ym2612"
    },
    {
      "channel": 2,
      "note": 67,
      "start": 51.263,
      "duration": 0.0167,
      "velocity": 107,
      "chip": "ym2612"
    },
    {
      "channel": 1,
      "note": 71,
      "start": 51.2794,
      "duration": 0.0676,
      "velocity": 107,
      "chip": "ym2612"
    },
    {
      "channel": 2,
      "note": 66,
      "start": 51.2797,
      "duration": 0.0678,
      "velocity": 107,
      "chip": "ym2612"
    },
    {
      "channel": 0,
      "note": 58,
      "start": 51.3466,
      "duration": 0.0999,
      "velocity": 112,
      "chip": "ym2612"
    },
    {
      "channel": 1,
      "note": 71,
      "start": 51.3471,
      "duration": 0.0026,
      "velocity": 107,
      "chip": "ym2612"
    },
    {
      "channel": 2,
      "note": 66,
      "start": 51.3477,
      "duration": 0.0024,
      "velocity": 107,
      "chip": "ym2612"
    },
    {
      "channel": 3,
      "note": 77,
      "start": 51.3482,
      "duration": 0.0999,
      "velocity": 99,
      "chip": "ym2612"
    },
    {
      "channel": 4,
      "note": 71,
      "start": 51.3488,
      "duration": 0.0998,
      "velocity": 100,
      "chip": "ym2612"
    },
    {
      "channel": 5,
      "note": 103,
      "start": 51.3494,
      "duration": 0.2844,
      "velocity": 127,
      "chip": "ym2612"
    },
    {
      "channel": 1,
      "note": 72,
      "start": 51.3498,
      "duration": 0.0129,
      "velocity": 107,
      "chip": "ym2612"
    },
    {
      "channel": 2,
      "note": 67,
      "start": 51.3501,
      "duration": 0.0129,
      "velocity": 107,
      "chip": "ym2612"
    },
    {
      "channel": 1,
      "note": 73,
      "start": 51.3627,
      "duration": 0.0167,
      "velocity": 107,
      "chip": "ym2612"
    },
    {
      "channel": 2,
      "note": 67,
      "start": 51.363,
      "duration": 0.0167,
      "velocity": 107,
      "chip": "ym2612"
    },
    {
      "channel": 1,
      "note": 74,
      "start": 51.3793,
      "duration": 0.0676,
      "velocity": 107,
      "chip": "ym2612"
    },
    {
      "channel": 2,
      "note": 68,
      "start": 51.3797,
      "duration": 0.0678,
      "velocity": 107,
      "chip": "ym2612"
    },
    {
      "channel": 0,
      "note": 47,
      "start": 51.4466,
      "duration": 0.286,
      "velocity": 112,
      "chip": "ym2612"
    },
    {
      "channel": 1,
      "note": 74,
      "start": 51.4471,
      "duration": 0.0024,
      "velocity": 107,
      "chip": "ym2612"
    },
    {
      "channel": 2,
      "note": 68,
      "start": 51.4477,
      "duration": 0.0022,
      "velocity": 107,
      "chip": "ym2612"
    },
    {
      "channel": 3,
      "note": 78,
      "start": 51.4482,
      "duration": 1.1111,
      "velocity": 99,
      "chip": "ym2612"
    },
    {
      "channel": 4,
      "note": 73,
      "start": 51.4488,
      "duration": 0.0845,
      "velocity": 100,
      "chip": "ym2612"
    },
    {
      "channel": 1,
      "note": 75,
      "start": 51.4495,
      "duration": 0.0108,
      "velocity": 107,
      "chip": "ym2612"
    },
    {
      "channel": 2,
      "note": 69,
      "start": 51.4499,
      "duration": 0.0108,
      "velocity": 107,
      "chip": "ym2612"
    },
    {
      "channel": 1,
      "note": 75,
      "start": 51.4603,
      "duration": 1.0984,
      "velocity": 107,
      "chip": "ym2612"
    },
    {
      "channel": 2,
      "note": 71,
      "start": 51.4607,
      "duration": 0.0125,
      "velocity": 107,
      "chip": "ym2612"
    },
    {
      "channel": 2,
      "note": 71,
      "start": 51.4731,
      "duration": 0.0596,
      "velocity": 107,
      "chip": "ym2612"
    },
    {
      "channel": 2,
      "note": 71,
      "start": 51.5329,
      "duration": 0.0011,
      "velocity": 107,
      "chip": "ym2612"
    },
    {
      "channel": 4,
      "note": 74,
      "start": 51.5335,
      "duration": 0.0998,
      "velocity": 100,
      "chip": "ym2612"
    },
    {
      "channel": 2,
      "note": 72,
      "start": 51.534,
      "duration": 0.0149,
      "velocity": 107,
      "chip": "ym2612"
    },
    {
      "channel": 2,
      "note": 73,
      "start": 51.5489,
      "duration": 0.0167,
      "velocity": 107,
      "chip": "ym2612"
    },
    {
      "channel": 2,
      "note": 74,
      "start": 51.5656,
      "duration": 0.067,
      "velocity": 107,
      "chip": "ym2612"
    },
    {
      "channel": 2,
      "note": 74,
      "start": 51.6328,
      "duration": 0.0016,
      "velocity": 107,
      "chip": "ym2612"
    },
    {
      "channel": 4,
      "note": 75,
      "start": 51.6334,
      "duration": 0.0999,
      "velocity": 100,
      "chip": "ym2612"
    },
    {
      "channel": 5,
      "note": 103,
      "start": 51.6339,
      "duration": 0.5404,
      "velocity": 127,
      "chip": "ym2612"
    },
    {
      "channel": 2,
      "note": 75,
      "start": 51.6344,
      "duration": 0.0146,
      "velocity": 107,
      "chip": "ym2612"
    },
    {
      "channel": 2,
      "note": 75,
      "start": 51.649,
      "duration": 1.1108,
      "velocity": 107,
      "chip": "ym2612"
    },
    {
      "channel": 0,
      "note": 47,
      "start": 51.7327,
      "duration": 0.2722,
      "velocity": 112,
      "chip": "ym2612"
    },
    {
      "channel": 4,
      "note": 78,
      "start": 51.7334,
      "duration": 1.1095,
      "velocity": 100,
      "chip": "ym2612"
    },
    {
      "channel": 0,
      "note": 59,
      "start": 52.0051,
      "duration": 0.1685,
      "velocity": 112,
      "chip": "ym2612"
    },
    {
      "channel": 0,
      "note": 47,
      "start": 52.1737,
      "duration": 0.2999,
      "velocity": 112,
      "chip": "ym2612"
    },
    {
      "channel": 5,
      "note": 103,
      "start": 52.1745,
      "duration": 0.0994,
      "velocity": 127,
      "chip": "ym2612"
    },
    {
      "channel": 5,
      "note": 103,
      "start": 52.274,
      "duration": 0.2859,
      "velocity": 127,
      "chip": "ym2612"
    },
    {
      "channel": 0,
      "note": 45,
      "start": 52.4737,
      "duration": 0.285,
      "velocity": 112,
      "chip": "ym2612"
    },
    {
      "channel": 1,
      "note": 75,
      "start": 52.5589,
      "duration": 0.0016,
      "velocity": 107,
      "chip": "ym2612"
    },
    {
      "channel": 3,
      "note": 80,
      "start": 52.5595,
      "duration": 0.2008,
      "velocity": 99,
      "chip": "ym2612"
    },
    {
      "channel": 5,
      "note": 103,
      "start": 52.5601,
      "duration": 0.2834,
      "velocity": 127,
      "chip": "ym2612"
    },
    {
      "channel": 1,
      "note": 76,
      "start": 52.5605,
      "duration": 0.0144,
      "velocity": 107,
      "chip": "ym2612"
    },
    {
      "channel": 1,
      "note": 77,
      "start": 52.5749,
      "duration": 0.0167,
      "velocity": 107,
      "chip": "ym2612"
    },
    {
      "channel": 1,
      "note": 78,
      "start": 52.5916,
      "duration": 0.0333,
      "velocity": 107,
      "chip": "ym2612"
    },
    {
      "channel": 1,
      "note": 78,
      "start": 52.6249,
      "duration": 0.1343,
      "velocity": 107,
      "chip": "ym2612"
    },
    {
      "channel": 0,
      "note": 57,
      "start": 52.7588,
      "duration": 0.2839,
      "velocity": 112,
      "chip": "ym2612"
    },
    {
      "channel": 1,
      "note": 78,
      "start": 52.7594,
      "duration": 0.0019,
      "velocity": 107,
      "chip": "ym2612"
    },
    {
      "channel": 2,
      "note": 75,
      "start": 52.7599,
      "duration": 0.0017,
      "velocity": 107,
      "chip": "ym2612"
    },
    {
      "channel": 3,
      "note": 83,
      "start": 52.7605,
      "duration": 0.2834,
      "velocity": 99,
      "chip": "ym2612"
    },
    {
      "channel": 1,
      "note": 79,
      "start": 52.7613,
      "duration": 0.0099,
      "velocity": 107,
      "chip": "ym2612"
    },
    {
      "channel": 2,
      "note": 76,
      "start": 52.7616,
      "duration": 0.0099,
      "velocity": 107,
      "chip": "ym2612"
    },
    {
      "channel": 1,
      "note": 79,
      "start": 52.7712,
      "duration": 0.0134,
      "velocity": 107,
      "chip": "ym2612"
    },
    {
      "channel": 2,
      "note": 77,
      "start": 52.7715,
      "duration": 0.0134,
      "velocity": 107,
      "chip": "ym2612"
    },
    {
      "channel": 1,
      "note": 80,
      "start": 52.7846,
      "duration": 0.2587,
      "velocity": 107,
      "chip": "ym2612"
    },
    {
      "channel": 2,
      "note": 78,
      "start": 52.7849,
      "duration": 0.0248,
      "velocity": 107,
      "chip": "ym2612"
    },
    {
      "channel": 2,
      "note": 78,
      "start": 52.8098,
      "duration": 0.1329,
      "velocity": 107,
      "chip": "ym2612"
    },
    {
      "channel": 4,
      "note": 80,
      "start": 52.8431,
      "duration": 0.2013,
      "velocity": 100,
      "chip": "ym2612"
    },
    {
      "channel": 5,
      "note": 103,
      "start": 52.8437,
      "duration": 0.4535,
      "velocity": 127,
      "chip": "ym2612"
    },
    {
      "channel": 2,
      "note": 78,
      "start": 52.9429,
      "duration": 0.0006,
      "velocity": 107,
      "chip": "ym2612"
    },
    {
      "channel": 2,
      "note": 79,
      "start": 52.9434,
      "duration": 0.0155,
      "velocity": 107,
      "chip": "ym2612"
    },
    {
      "channel": 2,
      "note": 79,
      "start": 52.959,
      "duration": 0.0167,
      "velocity": 107,
      "chip": "ym2612"
    },
    {
      "channel": 2,
      "note": 80,
      "start": 52.9757,
      "duration": 0.2248,
      "velocity": 107,
      "chip": "ym2612"
    },
    {
      "channel": 0,
      "note": 45,
      "start": 53.0429,
      "duration": 0.0829,
      "velocity": 112,
      "chip": "ym2612"
    },
    {
      "channel": 1,
      "note": 80,
      "start": 53.0434,
      "duration": 0.002,
      "velocity": 107,
      "chip": "ym2612"
    },
    {
      "channel": 3,
      "note": 87,
      "start": 53.044,
      "duration": 0.252,
      "velocity": 99,
      "chip": "ym2612"
    },
    {
      "channel": 4,
      "note": 83,
      "start": 53.0446,
      "duration": 0.252,
      "velocity": 100,
      "chip": "ym2612"
    },
    {
      "channel": 1,
      "note": 81,
      "start": 53.0454,
      "duration": 0.01,
      "velocity": 107,
      "chip": "ym2612"
    },
    {
      "channel": 1,
      "note": 83,
      "start": 53.0553,
      "duration": 0.012,
      "velocity": 107,
      "chip": "ym2612"
    },
    {
      "channel": 1,
      "note": 83,
      "start": 53.0673,
      "duration": 0.2281,
      "velocity": 107,
      "chip": "ym2612"
    },
    {
      "channel": 0,
      "note": 57,
      "start": 53.1259,
      "duration": 0.169,
      "velocity": 112,
      "chip": "ym2612"
    },
    {
      "channel": 2,
      "note": 80,
      "start": 53.2007,
      "duration": 0.0006,
      "velocity": 107,
      "chip": "ym2612"
    },
    {
      "channel": 2,
      "note": 81,
      "start": 53.2014,
      "duration": 0.0125,
      "velocity": 107,
      "chip": "ym2612"
    },
    {
      "channel": 2,
      "note": 83,
      "start": 53.2139,
      "duration": 0.0141,
      "velocity": 107,
      "chip": "ym2612"
    },
    {
      "channel": 2,
      "note": 83,
      "start": 53.228,
      "duration": 0.2669,
      "velocity": 107,
      "chip": "ym2612"
    },
    {
      "channel": 0,
      "note": 45,
      "start": 53.295,
      "duration": 0.0999,
      "velocity": 112,
      "chip": "ym2612"
    },
    {
      "channel": 1,
      "note": 83,
      "start": 53.2956,
      "duration": 0.0022,
      "velocity": 107,
      "chip": "ym2612"
    },
    {
      "channel": 3,
      "note": 83,
      "start": 53.2962,
      "duration": 0.0999,
      "velocity": 99,
      "chip": "ym2612"
    },
    {
      "channel": 4,
      "note": 87,
      "start": 53.2967,
      "duration": 0.2994,
      "velocity": 100,
      "chip": "ym2612"
    },
    {
      "channel": 5,
      "note": 103,
      "start": 53.2973,
      "duration": 0.0994,
      "velocity": 127,
      "chip": "ym2612"
    },
    {
      "channel": 1,
      "note": 82,
      "start": 53.2978,
      "duration": 0.0134,
      "velocity": 107,
      "chip": "ym2612"
    },
    {
      "channel": 1,
      "note": 81,
      "start": 53.3111,
      "duration": 0.0167,
      "velocity": 107,
      "chip": "ym2612"
    },
    {
      "channel": 1,
      "note": 80,
      "start": 53.3278,
      "duration": 0.0676,
      "velocity": 107,
      "chip": "ym2612"
    },
    {
      "channel": 0,
      "note": 46,
      "start": 53.3951,
      "duration": 0.1999,
      "velocity": 112,
      "chip": "ym2612"
    },
    {
      "channel": 1,
      "note": 80,
      "start": 53.3956,
      "duration": 0.0017,
      "velocity": 107,
      "chip": "ym2612"
    },
    {
      "channel": 3,
      "note": 80,
      "start": 53.3962,
      "duration": 0.2768,
      "velocity": 99,
      "chip": "ym2612"
    },
    {
      "channel": 5,
      "note": 103,
      "start": 53.3969,
      "duration": 0.462,
      "velocity": 127,
      "chip": "ym2612"
    },
    {
      "channel": 1,
      "note": 79,
      "start": 53.3973,
      "duration": 0.0138,
      "velocity": 107,
      "chip": "ym2612"
    },
    {
      "channel": 1,
      "note": 79,
      "start": 53.4111,
      "duration": 0.0167,
      "velocity": 107,
      "chip": "ym2612"
    },
    {
      "channel": 1,
      "note": 78,
      "start": 53.4278,
      "duration": 0.2445,
      "velocity": 107,
      "chip": "ym2612"
    },
    {
      "channel": 2,
      "note": 80,
      "start": 53.4951,
      "duration": 0.1004,
      "velocity": 107,
      "chip": "ym2612"
    },
    {
      "channel": 0,
      "note": 58,
      "start": 53.5951,
      "duration": 0.0766,
      "velocity": 112,
      "chip": "ym2612"
    },
    {
      "channel": 2,
      "note": 78,
      "start": 53.5957,
      "duration": 0.2624,
      "velocity": 107,
      "chip": "ym2612"
    },
    {
      "channel": 4,
      "note": 83,
      "start": 53.5963,
      "duration": 0.0788,
      "velocity": 99,
      "chip": "ym2612"
    },
    {
      "channel": 0,
      "note": 47,
      "start": 53.6719,
      "duration": 0.286,
      "velocity": 112,
      "chip": "ym2612"
    },
    {
      "channel": 1,
      "note": 75,
      "start": 53.6725,
      "duration": 1.1094,
      "velocity": 107,
      "chip": "ym2612"
    },
    {
      "channel": 3,
      "note": 83,
      "start": 53.6732,
      "duration": 1.1093,
      "velocity": 99,
      "chip": "ym2612"
    },
    {
      "channel": 4,
      "note": 78,
      "start": 53.6754,
      "duration": 1.1077,
      "velocity": 99,
      "chip": "ym2612"
    },
    {
      "channel": 2,
      "note": 75,
      "start": 53.8583,
      "duration": 1.124,
      "velocity": 107,
      "chip": "ym2612"
    },
    {
      "channel": 5,
      "note": 103,
      "start": 53.8591,
      "duration": 0.539,
      "velocity": 127,
      "chip": "ym2612"
    },
    {
      "channel": 0,
      "note": 47,
      "start": 53.9581,
      "duration": 0.272,
      "velocity": 112,
      "chip": "ym2612"
    },
    {
      "channel": 0,
      "note": 59,
      "start": 54.2303,
      "duration": 0.1669,
      "velocity": 112,
      "chip": "ym2612"
    },
    {
      "channel": 0,
      "note": 47,
      "start": 54.3974,
      "duration": 0.2998,
      "velocity": 112,
      "chip": "ym2612"
    },
    {
      "channel": 5,
      "note": 103,
      "start": 54.3982,
      "duration": 0.0994,
      "velocity": 127,
      "chip": "ym2612"
    },
    {
      "channel": 5,
      "note": 103,
      "start": 54.4977,
      "duration": 0.2859,
      "velocity": 127,
      "chip": "ym2612"
    },
    {
      "channel": 0,
      "note": 45,
      "start": 54.6974,
      "duration": 0.2843,
      "velocity": 112,
      "chip": "ym2612"
    },
    {
      "channel": 1,
      "note": 75,
      "start": 54.782,
      "duration": 0.0021,
      "velocity": 107,
      "chip": "ym2612"
    },
    {
      "channel": 3,
      "note": 80,
      "start": 54.7827,
      "duration": 0.2852,
      "velocity": 99,
      "chip": "ym2612"
    },
    {
      "channel": 4,
      "note": 76,
      "start": 54.7832,
      "duration": 0.2853,
      "velocity": 99,
      "chip": "ym2612"
    },
    {
      "channel": 5,
      "note": 103,
      "start": 54.7838,
      "duration": 0.2853,
      "velocity": 127,
      "chip": "ym2612"
    },
    {
      "channel": 1,
      "note": 74,
      "start": 54.7841,
      "duration": 0.0139,
      "velocity": 107,
      "chip": "ym2612"
    },
    {
      "channel": 1,
      "note": 73,
      "start": 54.7981,
      "duration": 0.0167,
      "velocity": 107,
      "chip": "ym2612"
    },
    {
      "channel": 1,
      "note": 73,
      "start": 54.8148,
      "duration": 0.2525,
      "velocity": 107,
      "chip": "ym2612"
    },
    {
      "channel": 0,
      "note": 57,
      "start": 54.9819,
      "duration": 0.2852,
      "velocity": 112,
      "chip": "ym2612"
    },
    {
      "channel": 2,
      "note": 75,
      "start": 54.9825,
      "duration": 0.001,
      "velocity": 107,
      "chip": "ym2612"
    },
    {
      "channel": 2,
      "note": 74,
      "start": 54.9834,
      "duration": 0.0119,
      "velocity": 107,
      "chip": "ym2612"
    },
    {
      "channel": 2,
      "note": 73,
      "start": 54.9953,
      "duration": 0.0134,
      "velocity": 107,
      "chip": "ym2612"
    },
    {
      "channel": 2,
      "note": 73,
      "start": 55.0088,
      "duration": 0.259,
      "velocity": 107,
      "chip": "ym2612"
    },
    {
      "channel": 1,
      "note": 73,
      "start": 55.0675,
      "duration": 0.0021,
      "velocity": 107,
      "chip": "ym2612"
    },
    {
      "channel": 3,
      "note": 83,
      "start": 55.0681,
      "duration": 0.2854,
      "velocity": 99,
      "chip": "ym2612"
    },
    {
      "channel": 4,
      "note": 75,
      "start": 55.0687,
      "duration": 0.2854,
      "velocity": 99,
      "chip": "ym2612"
    },
    {
      "channel": 5,
      "note": 103,
      "start": 55.0693,
      "duration": 0.4524,
      "velocity": 127,
      "chip": "ym2612"
    },
    {
      "channel": 1,
      "note": 72,
      "start": 55.0696,
      "duration": 0.0139,
      "velocity": 107,
      "chip": "ym2612"
    },
    {
      "channel": 1,
      "note": 71,
      "start": 55.0836,
      "duration": 0.2693,
      "velocity": 107,
      "chip": "ym2612"
    },
    {
      "channel": 0,
      "note": 45,
      "start": 55.2673,
      "duration": 0.0851,
      "velocity": 112,
      "chip": "ym2612"
    },
    {
      "channel": 2,
      "note": 73,
      "start": 55.2679,
      "duration": 0.001,
      "velocity": 107,
      "chip": "ym2612"
    },
    {
      "channel": 2,
      "note": 72,
      "start": 55.2689,
      "duration": 0.0119,
      "velocity": 107,
      "chip": "ym2612"
    },
    {
      "channel": 2,
      "note": 71,
      "start": 55.2807,
      "duration": 0.2393,
      "velocity": 107,
      "chip": "ym2612"
    },
    {
      "channel": 0,
      "note": 57,
      "start": 55.3525,
      "duration": 0.1664,
      "velocity": 112,
      "chip": "ym2612"
    },
    {
      "channel": 1,
      "note": 71,
      "start": 55.3531,
      "duration": 0.0019,
      "velocity": 107,
      "chip": "ym2612"
    },
    {
      "channel": 3,
      "note": 87,
      "start": 55.3537,
      "duration": 0.1669,
      "velocity": 99,
      "chip": "ym2612"
    },
    {
      "channel": 4,
      "note": 73,
      "start": 55.3543,
      "duration": 0.1668,
      "velocity": 99,
      "chip": "ym2612"
    },
    {
      "channel": 1,
      "note": 70,
      "start": 55.355,
      "duration": 0.0098,
      "velocity": 107,
      "chip": "ym2612"
    },
    {
      "channel": 1,
      "note": 69,
      "start": 55.3648,
      "duration": 0.0128,
      "velocity": 107,
      "chip": "ym2612"
    },
    {
      "channel": 1,
      "note": 68,
      "start": 55.3776,
      "duration": 0.1418,
      "velocity": 107,
      "chip": "ym2612"
    },
    {
      "channel": 0,
      "note": 45,
      "start": 55.519,
      "duration": 0.0999,
      "velocity": 112,
      "chip": "ym2612"
    },
    {
      "channel": 1,
      "note": 68,
      "start": 55.5196,
      "duration": 0.0026,
      "velocity": 107,
      "chip": "ym2612"
    },
    {
      "channel": 2,
      "note": 71,
      "start": 55.5202,
      "duration": 0.0024,
      "velocity": 107,
      "chip": "ym2612"
    },
    {
      "channel": 3,
      "note": 88,
      "start": 55.5207,
      "duration": 0.0994,
      "velocity": 99,
      "chip": "ym2612"
    },
    {
      "channel": 4,
      "note": 71,
      "start": 55.5213,
      "duration": 0.0994,
      "velocity": 99,
      "chip": "ym2612"
    },
    {
      "channel": 5,
      "note": 103,
      "start": 55.5219,
      "duration": 0.0994,
      "velocity": 127,
      "chip": "ym2612"
    },
    {
      "channel": 1,
      "note": 67,
      "start": 55.5222,
      "duration": 0.0129,
      "velocity": 107,
      "chip": "ym2612"
    },
    {
      "channel": 2,
      "note": 70,
      "start": 55.5226,
      "duration": 0.0129,
      "velocity": 107,
      "chip": "ym2612"
    },
    {
      "channel": 1,
      "note": 67,
      "start": 55.5351,
      "duration": 0.0167,
      "velocity": 107,
      "chip": "ym2612"
    },
    {
      "channel": 2,
      "note": 69,
      "start": 55.5355,
      "duration": 0.0167,
      "velocity": 107,
      "chip": "ym2612"
    },
    {
      "channel": 1,
      "note": 66,
      "start": 55.5519,
      "duration": 0.0676,
      "velocity": 107,
      "chip": "ym2612"
    },
    {
      "channel": 2,
      "note": 68,
      "start": 55.5522,
      "duration": 0.1673,
      "velocity": 107,
      "chip": "ym2612"
    },
    {
      "channel": 0,
      "note": 46,
      "start": 55.619,
      "duration": 0.1999,
      "velocity": 112,
      "chip": "ym2612"
    },
    {
      "channel": 1,
      "note": 66,
      "start": 55.6196,
      "duration": 0.0022,
      "velocity": 107,
      "chip": "ym2612"
    },
    {
      "channel": 3,
      "note": 89,
      "start": 55.6203,
      "duration": 0.2003,
      "velocity": 99,
      "chip": "ym2612"
    },
    {
      "channel": 4,
      "note": 73,
      "start": 55.6208,
      "duration": 0.0993,
      "velocity": 99,
      "chip": "ym2612"
    },
    {
      "channel": 5,
      "note": 103,
      "start": 55.6214,
      "duration": 0.2002,
      "velocity": 127,
      "chip": "ym2612"
    },
    {
      "channel": 1,
      "note": 67,
      "start": 55.6218,
      "duration": 0.0134,
      "velocity": 107,
      "chip": "ym2612"
    },
    {
      "channel": 1,
      "note": 67,
      "start": 55.6351,
      "duration": 0.0167,
      "velocity": 107,
      "chip": "ym2612"
    },
    {
      "channel": 1,
      "note": 68,
      "start": 55.6519,
      "duration": 0.0671,
      "velocity": 107,
      "chip": "ym2612"
    },
    {
      "channel": 1,
      "note": 68,
      "start": 55.7191,
      "duration": 0.0016,
      "velocity": 107,
      "chip": "ym2612"
    },
    {
      "channel": 2,
      "note": 68,
      "start": 55.7197,
      "duration": 0.0013,
      "velocity": 107,
      "chip": "ym2612"
    },
    {
      "channel": 4,
      "note": 74,
      "start": 55.7203,
      "duration": 0.1008,
      "velocity": 99,
      "chip": "ym2612"
    },
    {
      "channel": 1,
      "note": 69,
      "start": 55.7207,
      "duration": 0.0144,
      "velocity": 107,
      "chip": "ym2612"
    },
    {
      "channel": 2,
      "note": 67,
      "start": 55.721,
      "duration": 0.0144,
      "velocity": 107,
      "chip": "ym2612"
    },
    {
      "channel": 1,
      "note": 71,
      "start": 55.7351,
      "duration": 0.0167,
      "velocity": 107,
      "chip": "ym2612"
    },
    {
      "channel": 2,
      "note": 67,
      "start": 55.7355,
      "duration": 0.0167,
      "velocity": 107,
      "chip": "ym2612"
    },
    {
      "channel": 1,
      "note": 71,
      "start": 55.7519,
      "duration": 0.0676,
      "velocity": 107,
      "chip": "ym2612"
    },
    {
      "channel": 2,
      "note": 66,
      "start": 55.7522,
      "duration": 0.0678,
      "velocity": 107,
      "chip": "ym2612"
    },
    {
      "channel": 0,
      "note": 58,
      "start": 55.819,
      "duration": 0.0999,
      "velocity": 112,
      "chip": "ym2612"
    },
    {
      "channel": 1,
      "note": 71,
      "start": 55.8196,
      "duration": 0.0026,
      "velocity": 107,
      "chip": "ym2612"
    },
    {
      "channel": 2,
      "note": 66,
      "start": 55.8202,
      "duration": 0.0024,
      "velocity": 107,
      "chip": "ym2612"
    },
    {
      "channel": 3,
      "note": 90,
      "start": 55.8207,
      "duration": 0.385,
      "velocity": 100,
      "chip": "ym2612"
    },
    {
      "channel": 4,
      "note": 77,
      "start": 55.8213,
      "duration": 0.0993,
      "velocity": 99,
      "chip": "ym2612"
    },
    {
      "channel": 5,
      "note": 103,
      "start": 55.8219,
      "duration": 0.2823,
      "velocity": 127,
      "chip": "ym2612"
    },
    {
      "channel": 1,
      "note": 72,
      "start": 55.8222,
      "duration": 0.0129,
      "velocity": 107,
      "chip": "ym2612"
    },
    {
      "channel": 2,
      "note": 67,
      "start": 55.8226,
      "duration": 0.0129,
      "velocity": 107,
      "chip": "ym2612"
    },
    {
      "channel": 1,
      "note": 73,
      "start": 55.8351,
      "duration": 0.0167,
      "velocity": 107,
      "chip": "ym2612"
    },
    {
      "channel": 2,
      "note": 67,
      "start": 55.8355,
      "duration": 0.0167,
      "velocity": 107,
      "chip": "ym2612"
    },
    {
      "channel": 1,
      "note": 74,
      "start": 55.8518,
      "duration": 0.0676,
      "velocity": 107,
      "chip": "ym2612"
    },
    {
      "channel": 2,
      "note": 68,
      "start": 55.8522,
      "duration": 0.0678,
      "velocity": 107,
      "chip": "ym2612"
    },
    {
      "channel": 0,
      "note": 47,
      "start": 55.919,
      "duration": 0.2844,
      "velocity": 112,
      "chip": "ym2612"
    },
    {
      "channel": 1,
      "note": 74,
      "start": 55.9196,
      "duration": 0.0019,
      "velocity": 107,
      "chip": "ym2612"
    },
    {
      "channel": 2,
      "note": 68,
      "start": 55.9202,
      "duration": 0.0017,
      "velocity": 107,
      "chip": "ym2612"
    },
    {
      "channel": 4,
      "note": 78,
      "start": 55.9208,
      "duration": 1.1062,
      "velocity": 99,
      "chip": "ym2612"
    },
    {
      "channel": 1,
      "note": 75,
      "start": 55.9215,
      "duration": 0.0113,
      "velocity": 107,
      "chip": "ym2612"
    },
    {
      "channel": 2,
      "note": 69,
      "start": 55.9219,
      "duration": 0.0112,
      "velocity": 107,
      "chip": "ym2612"
    },
    {
      "channel": 1,
      "note": 75,
      "start": 55.9329,
      "duration": 1.0934,
      "velocity": 107,
      "chip": "ym2612"
    },
    {
      "channel": 2,
      "note": 71,
      "start": 55.9331,
      "duration": 0.0123,
      "velocity": 107,
      "chip": "ym2612"
    },
    {
      "channel": 2,
      "note": 71,
      "start": 55.9454,
      "duration": 0.0582,
      "velocity": 107,
      "chip": "ym2612"
    },
    {
      "channel": 2,
      "note": 71,
      "start": 56.0038,
      "duration": 0.0006,
      "velocity": 107,
      "chip": "ym2612"
    },
    {
      "channel": 2,
      "note": 72,
      "start": 56.0044,
      "duration": 0.0154,
      "velocity": 107,
      "chip": "ym2612"
    },
    {
      "channel": 2,
      "note": 73,
      "start": 56.0198,
      "duration": 0.0167,
      "velocity": 107,
      "chip": "ym2612"
    },
    {
      "channel": 2,
      "note": 74,
      "start": 56.0366,
      "duration": 0.0669,
      "velocity": 107,
      "chip": "ym2612"
    },
    {
      "channel": 2,
      "note": 74,
      "start": 56.1037,
      "duration": 0.0012,
      "velocity": 107,
      "chip": "ym2612"
    },
    {
      "channel": 5,
      "note": 103,
      "start": 56.1044,
      "duration": 0.5381,
      "velocity": 127,
      "chip": "ym2612"
    },
    {
      "channel": 2,
      "note": 75,
      "start": 56.1048,
      "duration": 0.0151,
      "velocity": 107,
      "chip": "ym2612"
    },
    {
      "channel": 2,
      "note": 75,
      "start": 56.1199,
      "duration": 1.1074,
      "velocity": 107,
      "chip": "ym2612"
    },
    {
      "channel": 0,
      "note": 47,
      "start": 56.2037,
      "duration": 0.2711,
      "velocity": 112,
      "chip": "ym2612"
    },
    {
      "channel": 3,
      "note": 87,
      "start": 56.2059,
      "duration": 0.2695,
      "velocity": 100,
      "chip": "ym2612"
    },
    {
      "channel": 0,
      "note": 59,
      "start": 56.4749,
      "duration": 0.1668,
      "velocity": 112,
      "chip": "ym2612"
    },
    {
      "channel": 3,
      "note": 83,
      "start": 56.4756,
      "duration": 0.2662,
      "velocity": 100,
      "chip": "ym2612"
    },
    {
      "channel": 0,
      "note": 47,
      "start": 56.6419,
      "duration": 0.2998,
      "velocity": 112,
      "chip": "ym2612"
    },
    {
      "channel": 5,
      "note": 103,
      "start": 56.6426,
      "duration": 0.0999,
      "velocity": 127,
      "chip": "ym2612"
    },
    {
      "channel": 3,
      "note": 78,
      "start": 56.7421,
      "duration": 0.5684,
      "velocity": 100,
      "chip": "ym2612"
    },
    {
      "channel": 5,
      "note": 103,
      "start": 56.7427,
      "duration": 0.2848,
      "velocity": 127,
      "chip": "ym2612"
    },
    {
      "channel": 0,
      "note": 45,
      "start": 56.9419,
      "duration": 0.2844,
      "velocity": 112,
      "chip": "ym2612"
    },
    {
      "channel": 1,
      "note": 75,
      "start": 57.0265,
      "duration": 0.0016,
      "velocity": 107,
      "chip": "ym2612"
    },
    {
      "channel": 4,
      "note": 80,
      "start": 57.0271,
      "duration": 0.2008,
      "velocity": 99,
      "chip": "ym2612"
    },
    {
      "channel": 5,
      "note": 103,
      "start": 57.0277,
      "duration": 0.2834,
      "velocity": 127,
      "chip": "ym2612"
    },
    {
      "channel": 1,
      "note": 76,
      "start": 57.0281,
      "duration": 0.0144,
      "velocity": 107,
      "chip": "ym2612"
    },
    {
      "channel": 1,
      "note": 77,
      "start": 57.0425,
      "duration": 0.0167,
      "velocity": 107,
      "chip": "ym2612"
    },
    {
      "channel": 1,
      "note": 78,
      "start": 57.0592,
      "duration": 0.0333,
      "velocity": 107,
      "chip": "ym2612"
    },
    {
      "channel": 1,
      "note": 78,
      "start": 57.0925,
      "duration": 0.1343,
      "velocity": 107,
      "chip": "ym2612"
    },
    {
      "channel": 0,
      "note": 57,
      "start": 57.2264,
      "duration": 0.2838,
      "velocity": 112,
      "chip": "ym2612"
    },
    {
      "channel": 1,
      "note": 78,
      "start": 57.227,
      "duration": 0.0019,
      "velocity": 107,
      "chip": "ym2612"
    },
    {
      "channel": 2,
      "note": 75,
      "start": 57.2275,
      "duration": 0.0017,
      "velocity": 107,
      "chip": "ym2612"
    },
    {
      "channel": 4,
      "note": 83,
      "start": 57.2281,
      "duration": 0.2833,
      "velocity": 99,
      "chip": "ym2612"
    },
    {
      "channel": 1,
      "note": 79,
      "start": 57.2289,
      "duration": 0.0099,
      "velocity": 107,
      "chip": "ym2612"
    },
    {
      "channel": 2,
      "note": 76,
      "start": 57.2292,
      "duration": 0.0099,
      "velocity": 107,
      "chip": "ym2612"
    },
    {
      "channel": 1,
      "note": 79,
      "start": 57.2388,
      "duration": 0.0134,
      "velocity": 107,
      "chip": "ym2612"
    },
    {
      "channel": 2,
      "note": 77,
      "start": 57.2391,
      "duration": 0.0134,
      "velocity": 107,
      "chip": "ym2612"
    },
    {
      "channel": 1,
      "note": 80,
      "start": 57.2522,
      "duration": 0.2586,
      "velocity": 107,
      "chip": "ym2612"
    },
    {
      "channel": 2,
      "note": 78,
      "start": 57.2525,
      "duration": 0.0248,
      "velocity": 107,
      "chip": "ym2612"
    },
    {
      "channel": 2,
      "note": 78,
      "start": 57.2773,
      "duration": 0.1329,
      "velocity": 107,
      "chip": "ym2612"
    },
    {
      "channel": 3,
      "note": 88,
      "start": 57.3107,
      "duration": 0.2841,
      "velocity": 100,
      "chip": "ym2612"
    },
    {
      "channel": 5,
      "note": 103,
      "start": 57.3113,
      "duration": 0.4531,
      "velocity": 127,
      "chip": "ym2612"
    },
    {
      "channel": 2,
      "note": 78,
      "start": 57.4105,
      "duration": 0.0006,
      "velocity": 107,
      "chip": "ym2612"
    },
    {
      "channel": 2,
      "note": 79,
      "start": 57.411,
      "duration": 0.0155,
      "velocity": 107,
      "chip": "ym2612"
    },
    {
      "channel": 2,
      "note": 79,
      "start": 57.4266,
      "duration": 0.0167,
      "velocity": 107,
      "chip": "ym2612"
    },
    {
      "channel": 2,
      "note": 80,
      "start": 57.4433,
      "duration": 0.2258,
      "velocity": 107,
      "chip": "ym2612"
    },
    {
      "channel": 0,
      "note": 45,
      "start": 57.5104,
      "duration": 0.0836,
      "velocity": 112,
      "chip": "ym2612"
    },
    {
      "channel": 1,
      "note": 80,
      "start": 57.511,
      "duration": 0.0014,
      "velocity": 107,
      "chip": "ym2612"
    },
    {
      "channel": 4,
      "note": 87,
      "start": 57.5116,
      "duration": 0.2522,
      "velocity": 99,
      "chip": "ym2612"
    },
    {
      "channel": 1,
      "note": 81,
      "start": 57.5124,
      "duration": 0.0105,
      "velocity": 107,
      "chip": "ym2612"
    },
    {
      "channel": 1,
      "note": 83,
      "start": 57.5229,
      "duration": 0.0132,
      "velocity": 107,
      "chip": "ym2612"
    },
    {
      "channel": 1,
      "note": 83,
      "start": 57.5361,
      "duration": 0.2271,
      "velocity": 107,
      "chip": "ym2612"
    },
    {
      "channel": 0,
      "note": 57,
      "start": 57.5942,
      "duration": 0.1684,
      "velocity": 112,
      "chip": "ym2612"
    },
    {
      "channel": 3,
      "note": 87,
      "start": 57.5949,
      "duration": 0.2689,
      "velocity": 100,
      "chip": "ym2612"
    },
    {
      "channel": 2,
      "note": 80,
      "start": 57.6693,
      "duration": 0.0006,
      "velocity": 107,
      "chip": "ym2612"
    },
    {
      "channel": 2,
      "note": 81,
      "start": 57.6699,
      "duration": 0.0122,
      "velocity": 107,
      "chip": "ym2612"
    },
    {
      "channel": 2,
      "note": 83,
      "start": 57.6822,
      "duration": 0.0137,
      "velocity": 107,
      "chip": "ym2612"
    },
    {
      "channel": 2,
      "note": 83,
      "start": 57.6959,
      "duration": 0.2669,
      "velocity": 107,
      "chip": "ym2612"
    },
    {
      "channel": 0,
      "note": 45,
      "start": 57.7628,
      "duration": 0.0999,
      "velocity": 112,
      "chip": "ym2612"
    },
    {
      "channel": 1,
      "note": 83,
      "start": 57.7634,
      "duration": 0.0016,
      "velocity": 107,
      "chip": "ym2612"
    },
    {
      "channel": 4,
      "note": 83,
      "start": 57.764,
      "duration": 0.1004,
      "velocity": 99,
      "chip": "ym2612"
    },
    {
      "channel": 5,
      "note": 103,
      "start": 57.7646,
      "duration": 0.1004,
      "velocity": 127,
      "chip": "ym2612"
    },
    {
      "channel": 1,
      "note": 82,
      "start": 57.765,
      "duration": 0.0139,
      "velocity": 107,
      "chip": "ym2612"
    },
    {
      "channel": 1,
      "note": 81,
      "start": 57.7789,
      "duration": 0.0167,
      "velocity": 107,
      "chip": "ym2612"
    },
    {
      "channel": 1,
      "note": 80,
      "start": 57.7956,
      "duration": 0.0676,
      "velocity": 107,
      "chip": "ym2612"
    },
    {
      "channel": 0,
      "note": 46,
      "start": 57.8628,
      "duration": 0.1999,
      "velocity": 112,
      "chip": "ym2612"
    },
    {
      "channel": 1,
      "note": 80,
      "start": 57.8634,
      "duration": 0.0022,
      "velocity": 107,
      "chip": "ym2612"
    },
    {
      "channel": 3,
      "note": 78,
      "start": 57.864,
      "duration": 0.281,
      "velocity": 107,
      "chip": "ym2612"
    },
    {
      "channel": 4,
      "note": 80,
      "start": 57.8646,
      "duration": 0.2826,
      "velocity": 107,
      "chip": "ym2612"
    },
    {
      "channel": 5,
      "note": 103,
      "start": 57.8652,
      "duration": 0.4608,
      "velocity": 127,
      "chip": "ym2612"
    },
    {
      "channel": 1,
      "note": 79,
      "start": 57.8656,
      "duration": 0.0134,
      "velocity": 107,
      "chip": "ym2612"
    },
    {
      "channel": 1,
      "note": 79,
      "start": 57.8789,
      "duration": 0.0167,
      "velocity": 107,
      "chip": "ym2612"
    },
    {
      "channel": 1,
      "note": 78,
      "start": 57.8956,
      "duration": 0.2467,
      "velocity": 107,
      "chip": "ym2612"
    },
    {
      "channel": 2,
      "note": 80,
      "start": 57.9629,
      "duration": 0.1004,
      "velocity": 107,
      "chip": "ym2612"
    },
    {
      "channel": 0,
      "note": 58,
      "start": 58.0629,
      "duration": 0.0788,
      "velocity": 112,
      "chip": "ym2612"
    },
    {
      "channel": 2,
      "note": 78,
      "start": 58.0634,
      "duration": 0.0795,
      "velocity": 107,
      "chip": "ym2612"
    },
    {
      "channel": 0,
      "note": 47,
      "start": 58.1419,
      "duration": 0.2838,
      "velocity": 112,
      "chip": "ym2612"
    },
    {
      "channel": 1,
      "note": 81,
      "start": 58.1425,
      "duration": 1.9542,
      "velocity": 107,
      "chip": "ym2612"
    },
    {
      "channel": 2,
      "note": 78,
      "start": 58.1431,
      "duration": 1.9539,
      "velocity": 107,
      "chip": "ym2612"
    },
    {
      "channel": 3,
      "note": 75,
      "start": 58.1453,
      "duration": 1.9521,
      "velocity": 107,
      "chip": "ym2612"
    },
    {
      "channel": 4,
      "note": 71,
      "start": 58.1473,
      "duration": 1.9502,
      "velocity": 107,
      "chip": "ym2612"
    },
    {
      "channel": 5,
      "note": 103,
      "start": 58.3262,
      "duration": 0.5419,
      "velocity": 127,
      "chip": "ym2612"
    },
    {
      "channel": 0,
      "note": 47,
      "start": 58.4258,
      "duration": 0.2695,
      "velocity": 112,
      "chip": "ym2612"
    },
    {
      "channel": 0,
      "note": 59,
      "start": 58.6955,
      "duration": 0.1718,
      "velocity": 112,
      "chip": "ym2612"
    },
    {
      "channel": 0,
      "note": 47,
      "start": 58.8674,
      "duration": 0.2998,
      "velocity": 112,
      "chip": "ym2612"
    },
    {
      "channel": 5,
      "note": 103,
      "start": 58.8682,
      "duration": 0.0994,
      "velocity": 127,
      "chip": "ym2612"
    },
    {
      "channel": 5,
      "note": 103,
      "start": 58.9677,
      "duration": 0.2851,
      "velocity": 127,
      "chip": "ym2612"
    },
    {
      "channel": 0,
      "note": 45,
      "start": 59.1674,
      "duration": 0.2851,
      "velocity": 112,
      "chip": "ym2612"
    },
    {
      "channel": 5,
      "note": 103,
      "start": 59.2529,
      "duration": 0.2851,
      "velocity": 127,
      "chip": "ym2612"
    },
    {
      "channel": 0,
      "note": 57,
      "start": 59.4526,
      "duration": 0.2851,
      "velocity": 112,
      "chip": "ym2612"
    },
    {
      "channel": 5,
      "note": 103,
      "start": 59.5382,
      "duration": 0.4576,
      "velocity": 127,
      "chip": "ym2612"
    },
    {
      "channel": 0,
      "note": 45,
      "start": 59.7378,
      "duration": 0.0851,
      "velocity": 112,
      "chip": "ym2612"
    },
    {
      "channel": 0,
      "note": 57,
      "start": 59.8231,
      "duration": 0.1718,
      "velocity": 112,
      "chip": "ym2612"
    },
    {
      "channel": 0,
      "note": 45,
      "start": 59.9951,
      "duration": 0.1,
      "velocity": 112,
      "chip": "ym2612"
    },
    {
      "channel": 5,
      "note": 103,
      "start": 59.9959,
      "duration": 0.1004,
      "velocity": 127,
      "chip": "ym2612"
    },
    {
      "channel": 0,
      "note": 46,
      "start": 60.0951,
      "duration": 0.1998,
      "velocity": 112,
      "chip": "ym2612"
    },
    {
      "channel": 5,
      "note": 103,
      "start": 60.0964,
      "duration": 0.1993,
      "velocity": 127,
      "chip": "ym2612"
    },
    {
      "channel": 1,
      "note": 81,
      "start": 60.0967,
      "duration": 0.0145,
      "velocity": 107,
      "chip": "ym2612"
    },
    {
      "channel": 2,
      "note": 78,
      "start": 60.097,
      "duration": 0.0145,
      "velocity": 107,
      "chip": "ym2612"
    },
    {
      "channel": 3,
      "note": 75,
      "start": 60.0973,
      "duration": 0.0145,
      "velocity": 107,
      "chip": "ym2612"
    },
    {
      "channel": 4,
      "note": 71,
      "start": 60.0976,
      "duration": 0.0145,
      "velocity": 107,
      "chip": "ym2612"
    },
    {
      "channel": 1,
      "note": 81,
      "start": 60.1112,
      "duration": 0.0167,
      "velocity": 107,
      "chip": "ym2612"
    },
    {
      "channel": 2,
      "note": 78,
      "start": 60.1115,
      "duration": 0.0167,
      "velocity": 107,
      "chip": "ym2612"
    },
    {
      "channel": 3,
      "note": 75,
      "start": 60.1118,
      "duration": 0.0167,
      "velocity": 107,
      "chip": "ym2612"
    },
    {
      "channel": 4,
      "note": 71,
      "start": 60.1121,
      "duration": 0.0167,
      "velocity": 107,
      "chip": "ym2612"
    },
    {
      "channel": 1,
      "note": 82,
      "start": 60.1279,
      "duration": 0.0333,
      "velocity": 107,
      "chip": "ym2612"
    },
    {
      "channel": 2,
      "note": 78,
      "start": 60.1282,
      "duration": 0.0333,
      "velocity": 107,
      "chip": "ym2612"
    },
    {
      "channel": 3,
      "note": 75,
      "start": 60.1285,
      "duration": 0.0333,
      "velocity": 107,
      "chip": "ym2612"
    },
    {
      "channel": 4,
      "note": 72,
      "start": 60.1287,
      "duration": 0.0333,
      "velocity": 107,
      "chip": "ym2612"
    },
    {
      "channel": 1,
      "note": 82,
      "start": 60.1612,
      "duration": 0.0167,
      "velocity": 107,
      "chip": "ym2612"
    },
    {
      "channel": 2,
      "note": 79,
      "start": 60.1615,
      "duration": 0.0167,
      "velocity": 107,
      "chip": "ym2612"
    },
    {
      "channel": 3,
      "note": 76,
      "start": 60.1618,
      "duration": 0.0167,
      "velocity": 107,
      "chip": "ym2612"
    },
    {
      "channel": 4,
      "note": 72,
      "start": 60.1621,
      "duration": 0.0167,
      "velocity": 107,
      "chip": "ym2612"
    },
    {
      "channel": 1,
      "note": 82,
      "start": 60.1779,
      "duration": 0.0174,
      "velocity": 107,
      "chip": "ym2612"
    },
    {
      "channel": 2,
      "note": 79,
      "start": 60.1782,
      "duration": 0.0174,
      "velocity": 107,
      "chip": "ym2612"
    },
    {
      "channel": 3,
      "note": 76,
      "start": 60.1785,
      "duration": 0.0174,
      "velocity": 107,
      "chip": "ym2612"
    },
    {
      "channel": 4,
      "note": 72,
      "start": 60.1787,
      "duration": 0.0174,
      "velocity": 107,
      "chip": "ym2612"
    },
    {
      "channel": 1,
      "note": 82,
      "start": 60.1954,
      "duration": 0.0159,
      "velocity": 107,
      "chip": "ym2612"
    },
    {
      "channel": 2,
      "note": 79,
      "start": 60.1956,
      "duration": 0.0159,
      "velocity": 107,
      "chip": "ym2612"
    },
    {
      "channel": 3,
      "note": 76,
      "start": 60.1959,
      "duration": 0.0159,
      "velocity": 107,
      "chip": "ym2612"
    },
    {
      "channel": 4,
      "note": 72,
      "start": 60.1962,
      "duration": 0.0159,
      "velocity": 107,
      "chip": "ym2612"
    },
    {
      "channel": 1,
      "note": 82,
      "start": 60.2112,
      "duration": 0.0167,
      "velocity": 107,
      "chip": "ym2612"
    },
    {
      "channel": 2,
      "note": 79,
      "start": 60.2115,
      "duration": 0.0167,
      "velocity": 107,
      "chip": "ym2612"
    },
    {
      "channel": 3,
      "note": 76,
      "start": 60.2118,
      "duration": 0.0167,
      "velocity": 107,
      "chip": "ym2612"
    },
    {
      "channel": 4,
      "note": 72,
      "start": 60.2121,
      "duration": 0.0167,
      "velocity": 107,
      "chip": "ym2612"
    },
    {
      "channel": 1,
      "note": 83,
      "start": 60.2279,
      "duration": 0.0333,
      "velocity": 107,
      "chip": "ym2612"
    },
    {
      "channel": 2,
      "note": 79,
      "start": 60.2282,
      "duration": 0.0333,
      "velocity": 107,
      "chip": "ym2612"
    },
    {
      "channel": 3,
      "note": 76,
      "start": 60.2285,
      "duration": 0.0333,
      "velocity": 107,
      "chip": "ym2612"
    },
    {
      "channel": 4,
      "note": 72,
      "start": 60.2287,
      "duration": 0.0333,
      "velocity": 107,
      "chip": "ym2612"
    },
    {
      "channel": 1,
      "note": 83,
      "start": 60.2612,
      "duration": 0.0167,
      "velocity": 107,
      "chip": "ym2612"
    },
    {
      "channel": 2,
      "note": 79,
      "start": 60.2615,
      "duration": 0.0167,
      "velocity": 107,
      "chip": "ym2612"
    },
    {
      "channel": 3,
      "note": 76,
      "start": 60.2618,
      "duration": 0.0167,
      "velocity": 107,
      "chip": "ym2612"
    },
    {
      "channel": 4,
      "note": 73,
      "start": 60.2621,
      "duration": 0.0167,
      "velocity": 107,
      "chip": "ym2612"
    },
    {
      "channel": 1,
      "note": 83,
      "start": 60.2779,
      "duration": 0.0183,
      "velocity": 107,
      "chip": "ym2612"
    },
    {
      "channel": 2,
      "note": 79,
      "start": 60.2782,
      "duration": 0.0183,
      "velocity": 107,
      "chip": "ym2612"
    },
    {
      "channel": 3,
      "note": 76,
      "start": 60.2785,
      "duration": 0.0183,
      "velocity": 107,
      "chip": "ym2612"
    },
    {
      "channel": 4,
      "note": 73,
      "start": 60.2787,
      "duration": 0.0183,
      "velocity": 107,
      "chip": "ym2612"
    },
    {
      "channel": 0,
      "note": 58,
      "start": 60.295,
      "duration": 0.1,
      "velocity": 112,
      "chip": "ym2612"
    },
    {
      "channel": 5,
      "note": 103,
      "start": 60.2959,
      "duration": 0.2846,
      "velocity": 127,
      "chip": "ym2612"
    },
    {
      "channel": 1,
      "note": 83,
      "start": 60.2962,
      "duration": 0.015,
      "velocity": 107,
      "chip": "ym2612"
    },
    {
      "channel": 2,
      "note": 79,
      "start": 60.2965,
      "duration": 0.015,
      "velocity": 107,
      "chip": "ym2612"
    },
    {
      "channel": 3,
      "note": 77,
      "start": 60.2968,
      "duration": 0.015,
      "velocity": 107,
      "chip": "ym2612"
    },
    {
      "channel": 4,
      "note": 73,
      "start": 60.2971,
      "duration": 0.015,
      "velocity": 107,
      "chip": "ym2612"
    },
    {
      "channel": 1,
      "note": 83,
      "start": 60.3112,
      "duration": 0.0167,
      "velocity": 107,
      "chip": "ym2612"
    },
    {
      "channel": 2,
      "note": 79,
      "start": 60.3115,
      "duration": 0.0167,
      "velocity": 107,
      "chip": "ym2612"
    },
    {
      "channel": 3,
      "note": 77,
      "start": 60.3118,
      "duration": 0.0167,
      "velocity": 107,
      "chip": "ym2612"
    },
    {
      "channel": 4,
      "note": 73,
      "start": 60.3121,
      "duration": 0.0167,
      "velocity": 107,
      "chip": "ym2612"
    },
    {
      "channel": 1,
      "note": 84,
      "start": 60.3279,
      "duration": 0.0333,
      "velocity": 107,
      "chip": "ym2612"
    },
    {
      "channel": 2,
      "note": 80,
      "start": 60.3282,
      "duration": 0.0333,
      "velocity": 107,
      "chip": "ym2612"
    },
    {
      "channel": 3,
      "note": 77,
      "start": 60.3285,
      "duration": 0.0333,
      "velocity": 107,
      "chip": "ym2612"
    },
    {
      "channel": 4,
      "note": 73,
      "start": 60.3287,
      "duration": 0.0333,
      "velocity": 107,
      "chip": "ym2612"
    },
    {
      "channel": 1,
      "note": 84,
      "start": 60.3612,
      "duration": 0.0167,
      "velocity": 107,
      "chip": "ym2612"
    },
    {
      "channel": 2,
      "note": 80,
      "start": 60.3615,
      "duration": 0.0167,
      "velocity": 107,
      "chip": "ym2612"
    },
    {
      "channel": 3,
      "note": 77,
      "start": 60.3618,
      "duration": 0.0167,
      "velocity": 107,
      "chip": "ym2612"
    },
    {
      "channel": 4,
      "note": 73,
      "start": 60.3621,
      "duration": 0.0167,
      "velocity": 107,
      "chip": "ym2612"
    },
    {
      "channel": 1,
      "note": 84,
      "start": 60.3779,
      "duration": 0.0176,
      "velocity": 107,
      "chip": "ym2612"
    },
    {
      "channel": 2,
      "note": 80,
      "start": 60.3782,
      "duration": 0.0179,
      "velocity": 107,
      "chip": "ym2612"
    },
    {
      "channel": 3,
      "note": 77,
      "start": 60.3785,
      "duration": 0.0182,
      "velocity": 107,
      "chip": "ym2612"
    },
    {
      "channel": 4,
      "note": 74,
      "start": 60.3787,
      "duration": 0.0185,
      "velocity": 107,
      "chip": "ym2612"
    },
    {
      "channel": 0,
      "note": 47,
      "start": 60.3951,
      "duration": 0.2851,
      "velocity": 112,
      "chip": "ym2612"
    },
    {
      "channel": 1,
      "note": 83,
      "start": 60.3957,
      "duration": 1.9535,
      "velocity": 107,
      "chip": "ym2612"
    },
    {
      "channel": 2,
      "note": 78,
      "start": 60.3963,
      "duration": 1.9532,
      "velocity": 107,
      "chip": "ym2612"
    },
    {
      "channel": 3,
      "note": 75,
      "start": 60.3969,
      "duration": 1.9529,
      "velocity": 107,
      "chip": "ym2612"
    },
    {
      "channel": 4,
      "note": 71,
      "start": 60.3974,
      "duration": 1.9527,
      "velocity": 107,
      "chip": "ym2612"
    },
    {
      "channel": 5,
      "note": 103,
      "start": 60.5807,
      "duration": 0.5413,
      "velocity": 127,
      "chip": "ym2612"
    },
    {
      "channel": 0,
      "note": 47,
      "start": 60.6804,
      "duration": 0.2686,
      "velocity": 112,
      "chip": "ym2612"
    },
    {
      "channel": 0,
      "note": 59,
      "start": 60.9492,
      "duration": 0.172,
      "velocity": 112,
      "chip": "ym2612"
    },
    {
      "channel": 0,
      "note": 47,
      "start": 61.1214,
      "duration": 0.2998,
      "velocity": 112,
      "chip": "ym2612"
    },
    {
      "channel": 5,
      "note": 103,
      "start": 61.1222,
      "duration": 0.0994,
      "velocity": 127,
      "chip": "ym2612"
    },
    {
      "channel": 5,
      "note": 103,
      "start": 61.2217,
      "duration": 0.2842,
      "velocity": 127,
      "chip": "ym2612"
    },
    {
      "channel": 0,
      "note": 45,
      "start": 61.4214,
      "duration": 0.2842,
      "velocity": 112,
      "chip": "ym2612"
    },
    {
      "channel": 5,
      "note": 103,
      "start": 61.5061,
      "duration": 0.2842,
      "velocity": 127,
      "chip": "ym2612"
    },
    {
      "channel": 0,
      "note": 57,
      "start": 61.7058,
      "duration": 0.2842,
      "velocity": 112,
      "chip": "ym2612"
    },
    {
      "channel": 5,
      "note": 103,
      "start": 61.7905,
      "duration": 0.4576,
      "velocity": 127,
      "chip": "ym2612"
    },
    {
      "channel": 0,
      "note": 45,
      "start": 61.9902,
      "duration": 0.0851,
      "velocity": 112,
      "chip": "ym2612"
    },
    {
      "channel": 0,
      "note": 57,
      "start": 62.0754,
      "duration": 0.172,
      "velocity": 112,
      "chip": "ym2612"
    },
    {
      "channel": 0,
      "note": 45,
      "start": 62.2476,
      "duration": 0.1,
      "velocity": 112,
      "chip": "ym2612"
    },
    {
      "channel": 5,
      "note": 103,
      "start": 62.2483,
      "duration": 0.1004,
      "velocity": 127,
      "chip": "ym2612"
    },
    {
      "channel": 0,
      "note": 46,
      "start": 62.3477,
      "duration": 0.1998,
      "velocity": 112,
      "chip": "ym2612"
    },
    {
      "channel": 5,
      "note": 103,
      "start": 62.3489,
      "duration": 0.4622,
      "velocity": 127,
      "chip": "ym2612"
    },
    {
      "channel": 1,
      "note": 83,
      "start": 62.3492,
      "duration": 0.0145,
      "velocity": 107,
      "chip": "ym2612"
    },
    {
      "channel": 2,
      "note": 78,
      "start": 62.3495,
      "duration": 0.0144,
      "velocity": 107,
      "chip": "ym2612"
    },
    {
      "channel": 3,
      "note": 75,
      "start": 62.3498,
      "duration": 0.0145,
      "velocity": 107,
      "chip": "ym2612"
    },
    {
      "channel": 4,
      "note": 71,
      "start": 62.3501,
      "duration": 0.0144,
      "velocity": 107,
      "chip": "ym2612"
    },
    {
      "channel": 1,
      "note": 83,
      "start": 62.3637,
      "duration": 0.0167,
      "velocity": 107,
      "chip": "ym2612"
    },
    {
      "channel": 2,
      "note": 78,
      "start": 62.364,
      "duration": 0.0167,
      "velocity": 107,
      "chip": "ym2612"
    },
    {
      "channel": 3,
      "note": 75,
      "start": 62.3643,
      "duration": 0.0167,
      "velocity": 107,
      "chip": "ym2612"
    },
    {
      "channel": 4,
      "note": 71,
      "start": 62.3645,
      "duration": 0.0167,
      "velocity": 107,
      "chip": "ym2612"
    },
    {
      "channel": 1,
      "note": 82,
      "start": 62.3804,
      "duration": 0.0333,
      "velocity": 107,
      "chip": "ym2612"
    },
    {
      "channel": 2,
      "note": 78,
      "start": 62.3806,
      "duration": 0.0333,
      "velocity": 107,
      "chip": "ym2612"
    },
    {
      "channel": 3,
      "note": 75,
      "start": 62.381,
      "duration": 0.0333,
      "velocity": 107,
      "chip": "ym2612"
    },
    {
      "channel": 4,
      "note": 70,
      "start": 62.3812,
      "duration": 0.0333,
      "velocity": 107,
      "chip": "ym2612"
    },
    {
      "channel": 1,
      "note": 82,
      "start": 62.4137,
      "duration": 0.0167,
      "velocity": 107,
      "chip": "ym2612"
    },
    {
      "channel": 2,
      "note": 78,
      "start": 62.414,
      "duration": 0.0167,
      "velocity": 107,
      "chip": "ym2612"
    },
    {
      "channel": 3,
      "note": 74,
      "start": 62.4143,
      "duration": 0.0167,
      "velocity": 107,
      "chip": "ym2612"
    },
    {
      "channel": 4,
      "note": 70,
      "start": 62.4145,
      "duration": 0.0167,
      "velocity": 107,
      "chip": "ym2612"
    },
    {
      "channel": 1,
      "note": 82,
      "start": 62.4304,
      "duration": 0.0174,
      "velocity": 107,
      "chip": "ym2612"
    },
    {
      "channel": 2,
      "note": 77,
      "start": 62.4306,
      "duration": 0.0174,
      "velocity": 107,
      "chip": "ym2612"
    },
    {
      "channel": 3,
      "note": 74,
      "start": 62.431,
      "duration": 0.0174,
      "velocity": 107,
      "chip": "ym2612"
    },
    {
      "channel": 4,
      "note": 70,
      "start": 62.4312,
      "duration": 0.0174,
      "velocity": 107,
      "chip": "ym2612"
    },
    {
      "channel": 1,
      "note": 82,
      "start": 62.4478,
      "duration": 0.0159,
      "velocity": 107,
      "chip": "ym2612"
    },
    {
      "channel": 2,
      "note": 77,
      "start": 62.4481,
      "duration": 0.0159,
      "velocity": 107,
      "chip": "ym2612"
    },
    {
      "channel": 3,
      "note": 74,
      "start": 62.4484,
      "duration": 0.0159,
      "velocity": 107,
      "chip": "ym2612"
    },
    {
      "channel": 4,
      "note": 70,
      "start": 62.4486,
      "duration": 0.0159,
      "velocity": 107,
      "chip": "ym2612"
    },
    {
      "channel": 1,
      "note": 82,
      "start": 62.4637,
      "duration": 0.0167,
      "velocity": 107,
      "chip": "ym2612"
    },
    {
      "channel": 2,
      "note": 77,
      "start": 62.464,
      "duration": 0.0167,
      "velocity": 107,
      "chip": "ym2612"
    },
    {
      "channel": 3,
      "note": 74,
      "start": 62.4643,
      "duration": 0.0167,
      "velocity": 107,
      "chip": "ym2612"
    },
    {
      "channel": 4,
      "note": 70,
      "start": 62.4645,
      "duration": 0.0167,
      "velocity": 107,
      "chip": "ym2612"
    },
    {
      "channel": 1,
      "note": 81,
      "start": 62.4804,
      "duration": 0.0333,
      "velocity": 107,
      "chip": "ym2612"
    },
    {
      "channel": 2,
      "note": 77,
      "start": 62.4806,
      "duration": 0.0333,
      "velocity": 107,
      "chip": "ym2612"
    },
    {
      "channel": 3,
      "note": 74,
      "start": 62.481,
      "duration": 0.0333,
      "velocity": 107,
      "chip": "ym2612"
    },
    {
      "channel": 4,
      "note": 69,
      "start": 62.4812,
      "duration": 0.0333,
      "velocity": 107,
      "chip": "ym2612"
    },
    {
      "channel": 1,
      "note": 81,
      "start": 62.5137,
      "duration": 0.0167,
      "velocity": 107,
      "chip": "ym2612"
    },
    {
      "channel": 2,
      "note": 77,
      "start": 62.514,
      "duration": 0.0167,
      "velocity": 107,
      "chip": "ym2612"
    },
    {
      "channel": 3,
      "note": 74,
      "start": 62.5143,
      "duration": 0.0167,
      "velocity": 107,
      "chip": "ym2612"
    },
    {
      "channel": 4,
      "note": 69,
      "start": 62.5145,
      "duration": 0.0167,
      "velocity": 107,
      "chip": "ym2612"
    },
    {
      "channel": 1,
      "note": 81,
      "start": 62.5304,
      "duration": 0.0182,
      "velocity": 107,
      "chip": "ym2612"
    },
    {
      "channel": 2,
      "note": 77,
      "start": 62.5306,
      "duration": 0.0182,
      "velocity": 107,
      "chip": "ym2612"
    },
    {
      "channel": 3,
      "note": 73,
      "start": 62.531,
      "duration": 0.0182,
      "velocity": 107,
      "chip": "ym2612"
    },
    {
      "channel": 4,
      "note": 69,
      "start": 62.5312,
      "duration": 0.0182,
      "velocity": 107,
      "chip": "ym2612"
    },
    {
      "channel": 0,
      "note": 58,
      "start": 62.5476,
      "duration": 0.0778,
      "velocity": 112,
      "chip": "ym2612"
    },
    {
      "channel": 1,
      "note": 81,
      "start": 62.5486,
      "duration": 0.0128,
      "velocity": 107,
      "chip": "ym2612"
    },
    {
      "channel": 2,
      "note": 77,
      "start": 62.5488,
      "duration": 0.0128,
      "velocity": 107,
      "chip": "ym2612"
    },
    {
      "channel": 3,
      "note": 73,
      "start": 62.5492,
      "duration": 0.0128,
      "velocity": 107,
      "chip": "ym2612"
    },
    {
      "channel": 4,
      "note": 69,
      "start": 62.5494,
      "duration": 0.0128,
      "velocity": 107,
      "chip": "ym2612"
    },
    {
      "channel": 1,
      "note": 81,
      "start": 62.5614,
      "duration": 0.0121,
      "velocity": 107,
      "chip": "ym2612"
    },
    {
      "channel": 2,
      "note": 76,
      "start": 62.5617,
      "duration": 0.0121,
      "velocity": 107,
      "chip": "ym2612"
    },
    {
      "channel": 3,
      "note": 73,
      "start": 62.562,
      "duration": 0.0121,
      "velocity": 107,
      "chip": "ym2612"
    },
    {
      "channel": 4,
      "note": 69,
      "start": 62.5622,
      "duration": 0.0121,
      "velocity": 107,
      "chip": "ym2612"
    },
    {
      "channel": 1,
      "note": 80,
      "start": 62.5735,
      "duration": 0.0243,
      "velocity": 107,
      "chip": "ym2612"
    },
    {
      "channel": 2,
      "note": 76,
      "start": 62.5737,
      "duration": 0.0243,
      "velocity": 107,
      "chip": "ym2612"
    },
    {
      "channel": 3,
      "note": 73,
      "start": 62.574,
      "duration": 0.0243,
      "velocity": 107,
      "chip": "ym2612"
    },
    {
      "channel": 4,
      "note": 68,
      "start": 62.5743,
      "duration": 0.0243,
      "velocity": 107,
      "chip": "ym2612"
    },
    {
      "channel": 1,
      "note": 80,
      "start": 62.5978,
      "duration": 0.014,
      "velocity": 107,
      "chip": "ym2612"
    },
    {
      "channel": 2,
      "note": 76,
      "start": 62.598,
      "duration": 0.014,
      "velocity": 107,
      "chip": "ym2612"
    },
    {
      "channel": 3,
      "note": 73,
      "start": 62.5984,
      "duration": 0.014,
      "velocity": 107,
      "chip": "ym2612"
    },
    {
      "channel": 4,
      "note": 68,
      "start": 62.5986,
      "duration": 0.014,
      "velocity": 107,
      "chip": "ym2612"
    },
    {
      "channel": 1,
      "note": 80,
      "start": 62.6118,
      "duration": 0.0143,
      "velocity": 107,
      "chip": "ym2612"
    },
    {
      "channel": 2,
      "note": 76,
      "start": 62.6121,
      "duration": 0.0146,
      "velocity": 107,
      "chip": "ym2612"
    },
    {
      "channel": 3,
      "note": 73,
      "start": 62.6123,
      "duration": 0.015,
      "velocity": 107,
      "chip": "ym2612"
    },
    {
      "channel": 4,
      "note": 68,
      "start": 62.6127,
      "duration": 0.0153,
      "velocity": 107,
      "chip": "ym2612"
    },
    {
      "channel": 0,
      "note": 52,
      "start": 62.6256,
      "duration": 0.2851,
      "velocity": 112,
      "chip": "ym2612"
    },
    {
      "channel": 1,
      "note": 76,
      "start": 62.6263,
      "duration": 2.2521,
      "velocity": 107,
      "chip": "ym2612"
    },
    {
      "channel": 2,
      "note": 80,
      "start": 62.6268,
      "duration": 2.5387,
      "velocity": 107,
      "chip": "ym2612"
    },
    {
      "channel": 3,
      "note": 83,
      "start": 62.6275,
      "duration": 2.81,
      "velocity": 107,
      "chip": "ym2612"
    },
    {
      "channel": 4,
      "note": 71,
      "start": 62.6281,
      "duration": 2.2525,
      "velocity": 100,
      "chip": "ym2612"
    },
    {
      "channel": 5,
      "note": 103,
      "start": 62.8113,
      "duration": 0.541,
      "velocity": 127,
      "chip": "ym2612"
    },
    {
      "channel": 0,
      "note": 52,
      "start": 62.9109,
      "duration": 0.2686,
      "velocity": 112,
      "chip": "ym2612"
    },
    {
      "channel": 0,
      "note": 64,
      "start": 63.1797,
      "duration": 0.1718,
      "velocity": 112,
      "chip": "ym2612"
    },
    {
      "channel": 0,
      "note": 52,
      "start": 63.3517,
      "duration": 0.2998,
      "velocity": 112,
      "chip": "ym2612"
    },
    {
      "channel": 5,
      "note": 103,
      "start": 63.3524,
      "duration": 0.0994,
      "velocity": 127,
      "chip": "ym2612"
    },
    {
      "channel": 5,
      "note": 103,
      "start": 63.452,
      "duration": 0.2848,
      "velocity": 127,
      "chip": "ym2612"
    },
    {
      "channel": 0,
      "note": 50,
      "start": 63.6516,
      "duration": 0.2848,
      "velocity": 112,
      "chip": "ym2612"
    },
    {
      "channel": 5,
      "note": 103,
      "start": 63.737,
      "duration": 0.2842,
      "velocity": 127,
      "chip": "ym2612"
    },
    {
      "channel": 0,
      "note": 62,
      "start": 63.9366,
      "duration": 0.2842,
      "velocity": 112,
      "chip": "ym2612"
    },
    {
      "channel": 5,
      "note": 103,
      "start": 64.0214,
      "duration": 0.4572,
      "velocity": 127,
      "chip": "ym2612"
    },
    {
      "channel": 0,
      "note": 50,
      "start": 64.221,
      "duration": 0.0848,
      "velocity": 112,
      "chip": "ym2612"
    },
    {
      "channel": 0,
      "note": 62,
      "start": 64.306,
      "duration": 0.1718,
      "velocity": 112,
      "chip": "ym2612"
    },
    {
      "channel": 0,
      "note": 50,
      "start": 64.478,
      "duration": 0.0998,
      "velocity": 112,
      "chip": "ym2612"
    },
    {
      "channel": 5,
      "note": 103,
      "start": 64.4788,
      "duration": 0.0998,
      "velocity": 127,
      "chip": "ym2612"
    },
    {
      "channel": 0,
      "note": 51,
      "start": 64.5779,
      "duration": 0.1999,
      "velocity": 112,
      "chip": "ym2612"
    },
    {
      "channel": 5,
      "note": 103,
      "start": 64.5788,
      "duration": 0.1998,
      "velocity": 127,
      "chip": "ym2612"
    },
    {
      "channel": 0,
      "note": 63,
      "start": 64.7779,
      "duration": 0.0999,
      "velocity": 112,
      "chip": "ym2612"
    },
    {
      "channel": 5,
      "note": 103,
      "start": 64.7788,
      "duration": 0.2864,
      "velocity": 127,
      "chip": "ym2612"
    },
    {
      "channel": 0,
      "note": 52,
      "start": 64.878,
      "duration": 0.287,
      "velocity": 112,
      "chip": "ym2612"
    },
    {
      "channel": 1,
      "note": 83,
      "start": 64.8786,
      "duration": 0.8283,
      "velocity": 107,
      "chip": "ym2612"
    },
    {
      "channel": 4,
      "note": 83,
      "start": 64.8809,
      "duration": 0.2853,
      "velocity": 100,
      "chip": "ym2612"
    },
    {
      "channel": 5,
      "note": 103,
      "start": 65.0654,
      "duration": 0.5422,
      "velocity": 127,
      "chip": "ym2612"
    },
    {
      "channel": 0,
      "note": 52,
      "start": 65.1651,
      "duration": 0.2717,
      "velocity": 112,
      "chip": "ym2612"
    },
    {
      "channel": 2,
      "note": 80,
      "start": 65.1657,
      "duration": 0.7416,
      "velocity": 107,
      "chip": "ym2612"
    },
    {
      "channel": 4,
      "note": 80,
      "start": 65.1664,
      "duration": 0.2716,
      "velocity": 100,
      "chip": "ym2612"
    },
    {
      "channel": 0,
      "note": 64,
      "start": 65.4369,
      "duration": 0.1698,
      "velocity": 112,
      "chip": "ym2612"
    },
    {
      "channel": 3,
      "note": 76,
      "start": 65.4376,
      "duration": 1.2983,
      "velocity": 107,
      "chip": "ym2612"
    },
    {
      "channel": 4,
      "note": 76,
      "start": 65.4382,
      "duration": 0.2693,
      "velocity": 100,
      "chip": "ym2612"
    },
    {
      "channel": 0,
      "note": 52,
      "start": 65.6069,
      "duration": 0.2999,
      "velocity": 112,
      "chip": "ym2612"
    },
    {
      "channel": 5,
      "note": 103,
      "start": 65.6077,
      "duration": 0.1004,
      "velocity": 127,
      "chip": "ym2612"
    },
    {
      "channel": 1,
      "note": 71,
      "start": 65.707,
      "duration": 1.0283,
      "velocity": 107,
      "chip": "ym2612"
    },
    {
      "channel": 4,
      "note": 71,
      "start": 65.7077,
      "duration": 0.2003,
      "velocity": 100,
      "chip": "ym2612"
    },
    {
      "channel": 5,
      "note": 103,
      "start": 65.7082,
      "duration": 0.2855,
      "velocity": 127,
      "chip": "ym2612"
    },
    {
      "channel": 0,
      "note": 52,
      "start": 65.9069,
      "duration": 0.0861,
      "velocity": 112,
      "chip": "ym2612"
    },
    {
      "channel": 2,
      "note": 74,
      "start": 65.9075,
      "duration": 0.828,
      "velocity": 107,
      "chip": "ym2612"
    },
    {
      "channel": 4,
      "note": 74,
      "start": 65.9082,
      "duration": 1.2085,
      "velocity": 107,
      "chip": "ym2612"
    },
    {
      "channel": 0,
      "note": 50,
      "start": 65.9931,
      "duration": 0.2844,
      "velocity": 112,
      "chip": "ym2612"
    },
    {
      "channel": 5,
      "note": 103,
      "start": 65.9939,
      "duration": 0.2844,
      "velocity": 127,
      "chip": "ym2612"
    },
    {
      "channel": 0,
      "note": 51,
      "start": 66.2776,
      "duration": 0.2845,
      "velocity": 112,
      "chip": "ym2612"
    },
    {
      "channel": 5,
      "note": 103,
      "start": 66.2785,
      "duration": 0.4563,
      "velocity": 127,
      "chip": "ym2612"
    },
    {
      "channel": 0,
      "note": 52,
      "start": 66.5623,
      "duration": 0.2719,
      "velocity": 112,
      "chip": "ym2612"
    },
    {
      "channel": 5,
      "note": 103,
      "start": 66.7349,
      "duration": 0.1001,
      "velocity": 127,
      "chip": "ym2612"
    },
    {
      "channel": 1,
      "note": 71,
      "start": 66.7353,
      "duration": 0.0151,
      "velocity": 107,
      "chip": "ym2612"
    },
    {
      "channel": 2,
      "note": 74,
      "start": 66.7356,
      "duration": 0.0151,
      "velocity": 107,
      "chip": "ym2612"
    },
    {
      "channel": 3,
      "note": 76,
      "start": 66.7359,
      "duration": 0.0151,
      "velocity": 107,
      "chip": "ym2612"
    },
    {
      "channel": 1,
      "note": 71,
      "start": 66.7504,
      "duration": 0.0167,
      "velocity": 107,
      "chip": "ym2612"
    },
    {
      "channel": 2,
      "note": 74,
      "start": 66.7507,
      "duration": 0.0167,
      "velocity": 107,
      "chip": "ym2612"
    },
    {
      "channel": 3,
      "note": 76,
      "start": 66.751,
      "duration": 0.0167,
      "velocity": 107,
      "chip": "ym2612"
    },
    {
      "channel": 1,
      "note": 70,
      "start": 66.7671,
      "duration": 0.0333,
      "velocity": 107,
      "chip": "ym2612"
    },
    {
      "channel": 2,
      "note": 74,
      "start": 66.7673,
      "duration": 0.0333,
      "velocity": 107,
      "chip": "ym2612"
    },
    {
      "channel": 3,
      "note": 76,
      "start": 66.7677,
      "duration": 0.0333,
      "velocity": 107,
      "chip": "ym2612"
    },
    {
      "channel": 1,
      "note": 70,
      "start": 66.8004,
      "duration": 0.0167,
      "velocity": 107,
      "chip": "ym2612"
    },
    {
      "channel": 2,
      "note": 73,
      "start": 66.8007,
      "duration": 0.0167,
      "velocity": 107,
      "chip": "ym2612"
    },
    {
      "channel": 3,
      "note": 75,
      "start": 66.801,
      "duration": 0.0167,
      "velocity": 107,
      "chip": "ym2612"
    },
    {
      "channel": 1,
      "note": 70,
      "start": 66.8171,
      "duration": 0.0184,
      "velocity": 107,
      "chip": "ym2612"
    },
    {
      "channel": 2,
      "note": 73,
      "start": 66.8173,
      "duration": 0.0185,
      "velocity": 107,
      "chip": "ym2612"
    },
    {
      "channel": 3,
      "note": 75,
      "start": 66.8177,
      "duration": 0.0184,
      "velocity": 107,
      "chip": "ym2612"
    },
    {
      "channel": 0,
      "note": 57,
      "start": 66.8343,
      "duration": 0.2784,
      "velocity": 112,
      "chip": "ym2612"
    },
    {
      "channel": 5,
      "note": 103,
      "start": 66.8352,
      "duration": 0.4631,
      "velocity": 127,
      "chip": "ym2612"
    },
    {
      "channel": 1,
      "note": 70,
      "start": 66.8355,
      "duration": 0.0149,
      "velocity": 107,
      "chip": "ym2612"
    },
    {
      "channel": 2,
      "note": 73,
      "start": 66.8358,
      "duration": 0.0149,
      "velocity": 107,
      "chip": "ym2612"
    },
    {
      "channel": 3,
      "note": 75,
      "start": 66.8361,
      "duration": 0.0149,
      "velocity": 107,
      "chip": "ym2612"
    },
    {
      "channel": 1,
      "note": 70,
      "start": 66.8504,
      "duration": 0.0167,
      "velocity": 107,
      "chip": "ym2612"
    },
    {
      "channel": 2,
      "note": 73,
      "start": 66.8507,
      "duration": 0.0167,
      "velocity": 107,
      "chip": "ym2612"
    },
    {
      "channel": 3,
      "note": 75,
      "start": 66.851,
      "duration": 0.0167,
      "velocity": 107,
      "chip": "ym2612"
    },
    {
      "channel": 1,
      "note": 69,
      "start": 66.8671,
      "duration": 0.0333,
      "velocity": 107,
      "chip": "ym2612"
    },
    {
      "channel": 2,
      "note": 73,
      "start": 66.8673,
      "duration": 0.0333,
      "velocity": 107,
      "chip": "ym2612"
    },
    {
      "channel": 3,
      "note": 75,
      "start": 66.8677,
      "duration": 0.0333,
      "velocity": 107,
      "chip": "ym2612"
    },
    {
      "channel": 1,
      "note": 69,
      "start": 66.9004,
      "duration": 0.0167,
      "velocity": 107,
      "chip": "ym2612"
    },
    {
      "channel": 2,
      "note": 73,
      "start": 66.9007,
      "duration": 0.0167,
      "velocity": 107,
      "chip": "ym2612"
    },
    {
      "channel": 3,
      "note": 75,
      "start": 66.901,
      "duration": 0.0167,
      "velocity": 107,
      "chip": "ym2612"
    },
    {
      "channel": 1,
      "note": 69,
      "start": 66.9171,
      "duration": 0.0173,
      "velocity": 107,
      "chip": "ym2612"
    },
    {
      "channel": 2,
      "note": 72,
      "start": 66.9173,
      "duration": 0.0173,
      "velocity": 107,
      "chip": "ym2612"
    },
    {
      "channel": 3,
      "note": 75,
      "start": 66.9177,
      "duration": 0.0173,
      "velocity": 107,
      "chip": "ym2612"
    },
    {
      "channel": 1,
      "note": 69,
      "start": 66.9344,
      "duration": 0.016,
      "velocity": 107,
      "chip": "ym2612"
    },
    {
      "channel": 2,
      "note": 72,
      "start": 66.9346,
      "duration": 0.016,
      "velocity": 107,
      "chip": "ym2612"
    },
    {
      "channel": 3,
      "note": 74,
      "start": 66.935,
      "duration": 0.016,
      "velocity": 107,
      "chip": "ym2612"
    },
    {
      "channel": 1,
      "note": 69,
      "start": 66.9504,
      "duration": 0.0167,
      "velocity": 107,
      "chip": "ym2612"
    },
    {
      "channel": 2,
      "note": 72,
      "start": 66.9507,
      "duration": 0.0167,
      "velocity": 107,
      "chip": "ym2612"
    },
    {
      "channel": 3,
      "note": 74,
      "start": 66.951,
      "duration": 0.0167,
      "velocity": 107,
      "chip": "ym2612"
    },
    {
      "channel": 1,
      "note": 68,
      "start": 66.9671,
      "duration": 0.0333,
      "velocity": 107,
      "chip": "ym2612"
    },
    {
      "channel": 2,
      "note": 72,
      "start": 66.9673,
      "duration": 0.0333,
      "velocity": 107,
      "chip": "ym2612"
    },
    {
      "channel": 3,
      "note": 74,
      "start": 66.9677,
      "duration": 0.0333,
      "velocity": 107,
      "chip": "ym2612"
    },
    {
      "channel": 1,
      "note": 68,
      "start": 67.0004,
      "duration": 0.0167,
      "velocity": 107,
      "chip": "ym2612"
    },
    {
      "channel": 2,
      "note": 72,
      "start": 67.0007,
      "duration": 0.0167,
      "velocity": 107,
      "chip": "ym2612"
    },
    {
      "channel": 3,
      "note": 74,
      "start": 67.001,
      "duration": 0.0167,
      "velocity": 107,
      "chip": "ym2612"
    },
    {
      "channel": 1,
      "note": 68,
      "start": 67.0171,
      "duration": 0.0177,
      "velocity": 107,
      "chip": "ym2612"
    },
    {
      "channel": 2,
      "note": 71,
      "start": 67.0173,
      "duration": 0.0177,
      "velocity": 107,
      "chip": "ym2612"
    },
    {
      "channel": 3,
      "note": 74,
      "start": 67.0177,
      "duration": 0.0177,
      "velocity": 107,
      "chip": "ym2612"
    },
    {
      "channel": 1,
      "note": 68,
      "start": 67.0348,
      "duration": 0.0128,
      "velocity": 107,
      "chip": "ym2612"
    },
    {
      "channel": 2,
      "note": 71,
      "start": 67.035,
      "duration": 0.0128,
      "velocity": 107,
      "chip": "ym2612"
    },
    {
      "channel": 3,
      "note": 74,
      "start": 67.0354,
      "duration": 0.0128,
      "velocity": 107,
      "chip": "ym2612"
    },
    {
      "channel": 1,
      "note": 68,
      "start": 67.0476,
      "duration": 0.0139,
      "velocity": 107,
      "chip": "ym2612"
    },
    {
      "channel": 2,
      "note": 71,
      "start": 67.0478,
      "duration": 0.0139,
      "velocity": 107,
      "chip": "ym2612"
    },
    {
      "channel": 3,
      "note": 73,
      "start": 67.0481,
      "duration": 0.0139,
      "velocity": 107,
      "chip": "ym2612"
    },
    {
      "channel": 1,
      "note": 68,
      "start": 67.0615,
      "duration": 0.0261,
      "velocity": 107,
      "chip": "ym2612"
    },
    {
      "channel": 2,
      "note": 71,
      "start": 67.0618,
      "duration": 0.0261,
      "velocity": 107,
      "chip": "ym2612"
    },
    {
      "channel": 3,
      "note": 73,
      "start": 67.0621,
      "duration": 0.0261,
      "velocity": 107,
      "chip": "ym2612"
    },
    {
      "channel": 1,
      "note": 68,
      "start": 67.0876,
      "duration": 0.0127,
      "velocity": 107,
      "chip": "ym2612"
    },
    {
      "channel": 2,
      "note": 71,
      "start": 67.0879,
      "duration": 0.0127,
      "velocity": 107,
      "chip": "ym2612"
    },
    {
      "channel": 3,
      "note": 73,
      "start": 67.0882,
      "duration": 0.0127,
      "velocity": 107,
      "chip": "ym2612"
    },
    {
      "channel": 1,
      "note": 67,
      "start": 67.1003,
      "duration": 0.013,
      "velocity": 107,
      "chip": "ym2612"
    },
    {
      "channel": 2,
      "note": 70,
      "start": 67.1005,
      "duration": 0.0134,
      "velocity": 107,
      "chip": "ym2612"
    },
    {
      "channel": 3,
      "note": 73,
      "start": 67.1009,
      "duration": 0.0137,
      "velocity": 107,
      "chip": "ym2612"
    },
    {
      "channel": 0,
      "note": 47,
      "start": 67.1129,
      "duration": 0.285,
      "velocity": 112,
      "chip": "ym2612"
    },
    {
      "channel": 1,
      "note": 71,
      "start": 67.1135,
      "duration": 8.9651,
      "velocity": 102,
      "chip": "ym2612"
    },
    {
      "channel": 2,
      "note": 75,
      "start": 67.1141,
      "duration": 8.9665,
      "velocity": 102,
      "chip": "ym2612"
    },
    {
      "channel": 3,
      "note": 78,
      "start": 67.1147,
      "duration": 19.3346,
      "velocity": 107,
      "chip": "ym2612"
    },
    {
      "channel": 4,
      "note": 66,
      "start": 67.1169,
      "duration": 19.3324,
      "velocity": 107,
      "chip": "ym2612"
    },
    {
      "channel": 5,
      "note": 103,
      "start": 67.2984,
      "duration": 0.5403,
      "velocity": 127,
      "chip": "ym2612"
    },
    {
      "channel": 0,
      "note": 47,
      "start": 67.398,
      "duration": 0.2686,
      "velocity": 112,
      "chip": "ym2612"
    },
    {
      "channel": 0,
      "note": 59,
      "start": 67.6668,
      "duration": 0.1711,
      "velocity": 112,
      "chip": "ym2612"
    },
    {
      "channel": 0,
      "note": 47,
      "start": 67.8381,
      "duration": 0.2998,
      "velocity": 112,
      "chip": "ym2612"
    },
    {
      "channel": 5,
      "note": 103,
      "start": 67.8389,
      "duration": 0.0994,
      "velocity": 127,
      "chip": "ym2612"
    },
    {
      "channel": 5,
      "note": 103,
      "start": 67.9384,
      "duration": 0.2848,
      "velocity": 127,
      "chip": "ym2612"
    },
    {
      "channel": 0,
      "note": 45,
      "start": 68.1381,
      "duration": 0.2848,
      "velocity": 112,
      "chip": "ym2612"
    },
    {
      "channel": 5,
      "note": 103,
      "start": 68.2234,
      "duration": 0.2842,
      "velocity": 127,
      "chip": "ym2612"
    },
    {
      "channel": 0,
      "note": 57,
      "start": 68.4231,
      "duration": 0.2842,
      "velocity": 112,
      "chip": "ym2612"
    },
    {
      "channel": 5,
      "note": 103,
      "start": 68.5078,
      "duration": 0.4572,
      "velocity": 127,
      "chip": "ym2612"
    },
    {
      "channel": 0,
      "note": 45,
      "start": 68.7075,
      "duration": 0.0848,
      "velocity": 112,
      "chip": "ym2612"
    },
    {
      "channel": 0,
      "note": 57,
      "start": 68.7925,
      "duration": 0.1718,
      "velocity": 112,
      "chip": "ym2612"
    },
    {
      "channel": 0,
      "note": 45,
      "start": 68.9644,
      "duration": 0.0998,
      "velocity": 112,
      "chip": "ym2612"
    },
    {
      "channel": 5,
      "note": 103,
      "start": 68.9652,
      "duration": 0.0998,
      "velocity": 127,
      "chip": "ym2612"
    },
    {
      "channel": 0,
      "note": 46,
      "start": 69.0644,
      "duration": 0.1999,
      "velocity": 112,
      "chip": "ym2612"
    },
    {
      "channel": 5,
      "note": 103,
      "start": 69.0652,
      "duration": 0.1999,
      "velocity": 127,
      "chip": "ym2612"
    },
    {
      "channel": 0,
      "note": 58,
      "start": 69.2644,
      "duration": 0.0999,
      "velocity": 112,
      "chip": "ym2612"
    },
    {
      "channel": 5,
      "note": 103,
      "start": 69.2652,
      "duration": 0.2845,
      "velocity": 127,
      "chip": "ym2612"
    },
    {
      "channel": 0,
      "note": 47,
      "start": 69.3644,
      "duration": 0.2851,
      "velocity": 112,
      "chip": "ym2612"
    },
    {
      "channel": 5,
      "note": 103,
      "start": 69.5499,
      "duration": 0.5411,
      "velocity": 127,
      "chip": "ym2612"
    },
    {
      "channel": 0,
      "note": 47,
      "start": 69.6496,
      "duration": 0.2686,
      "velocity": 112,
      "chip": "ym2612"
    },
    {
      "channel": 0,
      "note": 59,
      "start": 69.9184,
      "duration": 0.1718,
      "velocity": 112,
      "chip": "ym2612"
    },
    {
      "channel": 0,
      "note": 47,
      "start": 70.0904,
      "duration": 0.2998,
      "velocity": 112,
      "chip": "ym2612"
    },
    {
      "channel": 5,
      "note": 103,
      "start": 70.0911,
      "duration": 0.0994,
      "velocity": 127,
      "chip": "ym2612"
    },
    {
      "channel": 5,
      "note": 103,
      "start": 70.1907,
      "duration": 0.2839,
      "velocity": 127,
      "chip": "ym2612"
    },
    {
      "channel": 0,
      "note": 45,
      "start": 70.3903,
      "duration": 0.284,
      "velocity": 112,
      "chip": "ym2612"
    },
    {
      "channel": 5,
      "note": 103,
      "start": 70.4748,
      "duration": 0.2842,
      "velocity": 127,
      "chip": "ym2612"
    },
    {
      "channel": 0,
      "note": 57,
      "start": 70.6745,
      "duration": 0.2842,
      "velocity": 112,
      "chip": "ym2612"
    },
    {
      "channel": 5,
      "note": 103,
      "start": 70.7592,
      "duration": 0.4572,
      "velocity": 127,
      "chip": "ym2612"
    },
    {
      "channel": 0,
      "note": 45,
      "start": 70.9589,
      "duration": 0.0848,
      "velocity": 112,
      "chip": "ym2612"
    },
    {
      "channel": 0,
      "note": 57,
      "start": 71.0439,
      "duration": 0.1718,
      "velocity": 112,
      "chip": "ym2612"
    },
    {
      "channel": 0,
      "note": 45,
      "start": 71.2158,
      "duration": 0.0998,
      "velocity": 112,
      "chip": "ym2612"
    },
    {
      "channel": 5,
      "note": 103,
      "start": 71.2166,
      "duration": 0.0998,
      "velocity": 127,
      "chip": "ym2612"
    },
    {
      "channel": 0,
      "note": 46,
      "start": 71.3158,
      "duration": 0.1999,
      "velocity": 112,
      "chip": "ym2612"
    },
    {
      "channel": 5,
      "note": 103,
      "start": 71.3166,
      "duration": 0.4616,
      "velocity": 127,
      "chip": "ym2612"
    },
    {
      "channel": 0,
      "note": 58,
      "start": 71.5159,
      "duration": 0.0778,
      "velocity": 112,
      "chip": "ym2612"
    },
    {
      "channel": 0,
      "note": 47,
      "start": 71.5939,
      "duration": 0.2841,
      "velocity": 112,
      "chip": "ym2612"
    },
    {
      "channel": 5,
      "note": 103,
      "start": 71.7784,
      "duration": 0.5414,
      "velocity": 127,
      "chip": "ym2612"
    },
    {
      "channel": 0,
      "note": 47,
      "start": 71.878,
      "duration": 0.2689,
      "velocity": 112,
      "chip": "ym2612"
    },
    {
      "channel": 0,
      "note": 59,
      "start": 72.1471,
      "duration": 0.172,
      "velocity": 112,
      "chip": "ym2612"
    },
    {
      "channel": 0,
      "note": 47,
      "start": 72.3192,
      "duration": 0.2999,
      "velocity": 112,
      "chip": "ym2612"
    },
    {
      "channel": 5,
      "note": 103,
      "start": 72.32,
      "duration": 0.0994,
      "velocity": 127,
      "chip": "ym2612"
    },
    {
      "channel": 5,
      "note": 103,
      "start": 72.4195,
      "duration": 0.284,
      "velocity": 127,
      "chip": "ym2612"
    },
    {
      "channel": 0,
      "note": 45,
      "start": 72.6192,
      "duration": 0.284,
      "velocity": 112,
      "chip": "ym2612"
    },
    {
      "channel": 5,
      "note": 103,
      "start": 72.7037,
      "duration": 0.2842,
      "velocity": 127,
      "chip": "ym2612"
    },
    {
      "channel": 0,
      "note": 57,
      "start": 72.9033,
      "duration": 0.2842,
      "velocity": 112,
      "chip": "ym2612"
    },
    {
      "channel": 5,
      "note": 103,
      "start": 72.9881,
      "duration": 0.456,
      "velocity": 127,
      "chip": "ym2612"
    },
    {
      "channel": 0,
      "note": 45,
      "start": 73.1878,
      "duration": 0.0842,
      "velocity": 112,
      "chip": "ym2612"
    },
    {
      "channel": 0,
      "note": 57,
      "start": 73.2722,
      "duration": 0.1711,
      "velocity": 112,
      "chip": "ym2612"
    },
    {
      "channel": 0,
      "note": 45,
      "start": 73.4434,
      "duration": 0.0998,
      "velocity": 112,
      "chip": "ym2612"
    },
    {
      "channel": 5,
      "note": 103,
      "start": 73.4442,
      "duration": 0.0998,
      "velocity": 127,
      "chip": "ym2612"
    },
    {
      "channel": 0,
      "note": 46,
      "start": 73.5434,
      "duration": 0.1999,
      "velocity": 112,
      "chip": "ym2612"
    },
    {
      "channel": 5,
      "note": 103,
      "start": 73.5442,
      "duration": 0.1998,
      "velocity": 127,
      "chip": "ym2612"
    },
    {
      "channel": 0,
      "note": 58,
      "start": 73.7434,
      "duration": 0.0999,
      "velocity": 112,
      "chip": "ym2612"
    },
    {
      "channel": 5,
      "note": 103,
      "start": 73.7442,
      "duration": 0.2834,
      "velocity": 127,
      "chip": "ym2612"
    },
    {
      "channel": 0,
      "note": 47,
      "start": 73.8434,
      "duration": 0.284,
      "velocity": 112,
      "chip": "ym2612"
    },
    {
      "channel": 5,
      "note": 103,
      "start": 74.0278,
      "duration": 0.5419,
      "velocity": 127,
      "chip": "ym2612"
    },
    {
      "channel": 0,
      "note": 47,
      "start": 74.1275,
      "duration": 0.2695,
      "velocity": 112,
      "chip": "ym2612"
    },
    {
      "channel": 0,
      "note": 59,
      "start": 74.3972,
      "duration": 0.1718,
      "velocity": 112,
      "chip": "ym2612"
    },
    {
      "channel": 0,
      "note": 47,
      "start": 74.5691,
      "duration": 0.2999,
      "velocity": 112,
      "chip": "ym2612"
    },
    {
      "channel": 5,
      "note": 103,
      "start": 74.5699,
      "duration": 0.0994,
      "velocity": 127,
      "chip": "ym2612"
    },
    {
      "channel": 5,
      "note": 103,
      "start": 74.6694,
      "duration": 0.2851,
      "velocity": 127,
      "chip": "ym2612"
    },
    {
      "channel": 0,
      "note": 45,
      "start": 74.8691,
      "duration": 0.2867,
      "velocity": 117,
      "chip": "ym2612"
    },
    {
      "channel": 5,
      "note": 103,
      "start": 74.9547,
      "duration": 0.2844,
      "velocity": 127,
      "chip": "ym2612"
    },
    {
      "channel": 0,
      "note": 54,
      "start": 75.1559,
      "duration": 0.0823,
      "velocity": 117,
      "chip": "ym2612"
    },
    {
      "channel": 0,
      "note": 57,
      "start": 75.2384,
      "duration": 0.2858,
      "velocity": 117,
      "chip": "ym2612"
    },
    {
      "channel": 5,
      "note": 103,
      "start": 75.2392,
      "duration": 0.4572,
      "velocity": 127,
      "chip": "ym2612"
    },
    {
      "channel": 0,
      "note": 59,
      "start": 75.5244,
      "duration": 0.2718,
      "velocity": 117,
      "chip": "ym2612"
    },
    {
      "channel": 5,
      "note": 103,
      "start": 75.6966,
      "duration": 0.1003,
      "velocity": 127,
      "chip": "ym2612"
    },
    {
      "channel": 0,
      "note": 63,
      "start": 75.7963,
      "duration": 0.1002,
      "velocity": 117,
      "chip": "ym2612"
    },
    {
      "channel": 5,
      "note": 103,
      "start": 75.7971,
      "duration": 0.4659,
      "velocity": 127,
      "chip": "ym2612"
    },
    {
      "channel": 0,
      "note": 62,
      "start": 75.8965,
      "duration": 0.0159,
      "velocity": 117,
      "chip": "ym2612"
    },
    {
      "channel": 0,
      "note": 61,
      "start": 75.9124,
      "duration": 0.0167,
      "velocity": 117,
      "chip": "ym2612"
    },
    {
      "channel": 0,
      "note": 61,
      "start": 75.9291,
      "duration": 0.0333,
      "velocity": 117,
      "chip": "ym2612"
    },
    {
      "channel": 0,
      "note": 60,
      "start": 75.9624,
      "duration": 0.0167,
      "velocity": 117,
      "chip": "ym2612"
    },
    {
      "channel": 0,
      "note": 59,
      "start": 75.9791,
      "duration": 0.0177,
      "velocity": 117,
      "chip": "ym2612"
    },
    {
      "channel": 0,
      "note": 58,
      "start": 75.9968,
      "duration": 0.0123,
      "velocity": 117,
      "chip": "ym2612"
    },
    {
      "channel": 0,
      "note": 57,
      "start": 76.0091,
      "duration": 0.0143,
      "velocity": 117,
      "chip": "ym2612"
    },
    {
      "channel": 0,
      "note": 56,
      "start": 76.0233,
      "duration": 0.0256,
      "velocity": 117,
      "chip": "ym2612"
    },
    {
      "channel": 0,
      "note": 55,
      "start": 76.0489,
      "duration": 0.013,
      "velocity": 117,
      "chip": "ym2612"
    },
    {
      "channel": 0,
      "note": 55,
      "start": 76.0619,
      "duration": 0.0146,
      "velocity": 117,
      "chip": "ym2612"
    },
    {
      "channel": 0,
      "note": 59,
      "start": 76.0766,
      "duration": 0.2851,
      "velocity": 117,
      "chip": "ym2612"
    },
    {
      "channel": 1,
      "note": 71,
      "start": 76.0788,
      "duration": 0.1829,
      "velocity": 102,
      "chip": "ym2612"
    },
    {
      "channel": 2,
      "note": 66,
      "start": 76.0809,
      "duration": 0.1814,
      "velocity": 102,
      "chip": "ym2612"
    },
    {
      "channel": 1,
      "note": 75,
      "start": 76.2619,
      "duration": 0.1004,
      "velocity": 102,
      "chip": "ym2612"
    },
    {
      "channel": 2,
      "note": 71,
      "start": 76.2624,
      "duration": 0.1003,
      "velocity": 102,
      "chip": "ym2612"
    },
    {
      "channel": 5,
      "note": 103,
      "start": 76.2631,
      "duration": 0.5429,
      "velocity": 127,
      "chip": "ym2612"
    },
    {
      "channel": 0,
      "note": 71,
      "start": 76.3619,
      "duration": 0.1883,
      "velocity": 117,
      "chip": "ym2612"
    },
    {
      "channel": 1,
      "note": 78,
      "start": 76.3624,
      "duration": 0.1862,
      "velocity": 102,
      "chip": "ym2612"
    },
    {
      "channel": 2,
      "note": 75,
      "start": 76.3629,
      "duration": 0.1863,
      "velocity": 102,
      "chip": "ym2612"
    },
    {
      "channel": 1,
      "note": 83,
      "start": 76.5488,
      "duration": 0.2559,
      "velocity": 102,
      "chip": "ym2612"
    },
    {
      "channel": 2,
      "note": 78,
      "start": 76.5493,
      "duration": 0.256,
      "velocity": 102,
      "chip": "ym2612"
    },
    {
      "channel": 0,
      "note": 70,
      "start": 76.5502,
      "duration": 0.0114,
      "velocity": 117,
      "chip": "ym2612"
    },
    {
      "channel": 0,
      "note": 68,
      "start": 76.5616,
      "duration": 0.0122,
      "velocity": 117,
      "chip": "ym2612"
    },
    {
      "channel": 0,
      "note": 67,
      "start": 76.5738,
      "duration": 0.0268,
      "velocity": 117,
      "chip": "ym2612"
    },
    {
      "channel": 0,
      "note": 66,
      "start": 76.6006,
      "duration": 0.0166,
      "velocity": 117,
      "chip": "ym2612"
    },
    {
      "channel": 0,
      "note": 66,
      "start": 76.6172,
      "duration": 0.0171,
      "velocity": 117,
      "chip": "ym2612"
    },
    {
      "channel": 0,
      "note": 56,
      "start": 76.6345,
      "duration": 0.1697,
      "velocity": 117,
      "chip": "ym2612"
    },
    {
      "channel": 0,
      "note": 68,
      "start": 76.8044,
      "duration": 0.2999,
      "velocity": 117,
      "chip": "ym2612"
    },
    {
      "channel": 1,
      "note": 78,
      "start": 76.8049,
      "duration": 0.0994,
      "velocity": 102,
      "chip": "ym2612"
    },
    {
      "channel": 2,
      "note": 75,
      "start": 76.8055,
      "duration": 0.0993,
      "velocity": 102,
      "chip": "ym2612"
    },
    {
      "channel": 5,
      "note": 103,
      "start": 76.8062,
      "duration": 0.0993,
      "velocity": 127,
      "chip": "ym2612"
    },
    {
      "channel": 1,
      "note": 75,
      "start": 76.9044,
      "duration": 0.2003,
      "velocity": 102,
      "chip": "ym2612"
    },
    {
      "channel": 2,
      "note": 71,
      "start": 76.905,
      "duration": 0.2003,
      "velocity": 102,
      "chip": "ym2612"
    },
    {
      "channel": 5,
      "note": 103,
      "start": 76.9057,
      "duration": 0.286,
      "velocity": 127,
      "chip": "ym2612"
    },
    {
      "channel": 0,
      "note": 57,
      "start": 77.1044,
      "duration": 0.287,
      "velocity": 117,
      "chip": "ym2612"
    },
    {
      "channel": 1,
      "note": 69,
      "start": 77.1049,
      "duration": 0.2869,
      "velocity": 102,
      "chip": "ym2612"
    },
    {
      "channel": 2,
      "note": 64,
      "start": 77.1055,
      "duration": 0.287,
      "velocity": 102,
      "chip": "ym2612"
    },
    {
      "channel": 5,
      "note": 103,
      "start": 77.1919,
      "duration": 0.2854,
      "velocity": 127,
      "chip": "ym2612"
    },
    {
      "channel": 0,
      "note": 69,
      "start": 77.3915,
      "duration": 0.1849,
      "velocity": 117,
      "chip": "ym2612"
    },
    {
      "channel": 1,
      "note": 69,
      "start": 77.3921,
      "duration": 0.084,
      "velocity": 102,
      "chip": "ym2612"
    },
    {
      "channel": 2,
      "note": 64,
      "start": 77.3927,
      "duration": 0.084,
      "velocity": 102,
      "chip": "ym2612"
    },
    {
      "channel": 1,
      "note": 73,
      "start": 77.4763,
      "duration": 0.2003,
      "velocity": 102,
      "chip": "ym2612"
    },
    {
      "channel": 2,
      "note": 69,
      "start": 77.4768,
      "duration": 0.2003,
      "velocity": 102,
      "chip": "ym2612"
    },
    {
      "channel": 5,
      "note": 103,
      "start": 77.4775,
      "duration": 0.4583,
      "velocity": 127,
      "chip": "ym2612"
    },
    {
      "channel": 0,
      "note": 68,
      "start": 77.5764,
      "duration": 0.0158,
      "velocity": 117,
      "chip": "ym2612"
    },
    {
      "channel": 0,
      "note": 67,
      "start": 77.5922,
      "duration": 0.0167,
      "velocity": 117,
      "chip": "ym2612"
    },
    {
      "channel": 0,
      "note": 66,
      "start": 77.6089,
      "duration": 0.0333,
      "velocity": 117,
      "chip": "ym2612"
    },
    {
      "channel": 0,
      "note": 65,
      "start": 77.6422,
      "duration": 0.0167,
      "velocity": 117,
      "chip": "ym2612"
    },
    {
      "channel": 0,
      "note": 64,
      "start": 77.6589,
      "duration": 0.0171,
      "velocity": 117,
      "chip": "ym2612"
    },
    {
      "channel": 0,
      "note": 57,
      "start": 77.6762,
      "duration": 0.0857,
      "velocity": 117,
      "chip": "ym2612"
    },
    {
      "channel": 1,
      "note": 76,
      "start": 77.6767,
      "duration": 0.0856,
      "velocity": 102,
      "chip": "ym2612"
    },
    {
      "channel": 2,
      "note": 73,
      "start": 77.6773,
      "duration": 0.0857,
      "velocity": 102,
      "chip": "ym2612"
    },
    {
      "channel": 0,
      "note": 58,
      "start": 77.762,
      "duration": 0.2725,
      "velocity": 117,
      "chip": "ym2612"
    },
    {
      "channel": 1,
      "note": 81,
      "start": 77.7626,
      "duration": 0.1719,
      "velocity": 102,
      "chip": "ym2612"
    },
    {
      "channel": 2,
      "note": 76,
      "start": 77.7631,
      "duration": 0.1719,
      "velocity": 102,
      "chip": "ym2612"
    },
    {
      "channel": 1,
      "note": 76,
      "start": 77.9347,
      "duration": 0.1003,
      "velocity": 102,
      "chip": "ym2612"
    },
    {
      "channel": 2,
      "note": 73,
      "start": 77.9352,
      "duration": 0.1004,
      "velocity": 102,
      "chip": "ym2612"
    },
    {
      "channel": 5,
      "note": 103,
      "start": 77.9359,
      "duration": 0.1004,
      "velocity": 127,
      "chip": "ym2612"
    },
    {
      "channel": 0,
      "note": 70,
      "start": 78.0346,
      "duration": 0.2999,
      "velocity": 117,
      "chip": "ym2612"
    },
    {
      "channel": 1,
      "note": 73,
      "start": 78.0352,
      "duration": 0.0994,
      "velocity": 102,
      "chip": "ym2612"
    },
    {
      "channel": 2,
      "note": 69,
      "start": 78.0358,
      "duration": 0.0993,
      "velocity": 102,
      "chip": "ym2612"
    },
    {
      "channel": 5,
      "note": 103,
      "start": 78.0365,
      "duration": 0.1993,
      "velocity": 127,
      "chip": "ym2612"
    },
    {
      "channel": 1,
      "note": 69,
      "start": 78.1347,
      "duration": 0.0998,
      "velocity": 102,
      "chip": "ym2612"
    },
    {
      "channel": 2,
      "note": 64,
      "start": 78.1352,
      "duration": 0.0998,
      "velocity": 102,
      "chip": "ym2612"
    },
    {
      "channel": 1,
      "note": 64,
      "start": 78.2347,
      "duration": 0.1004,
      "velocity": 102,
      "chip": "ym2612"
    },
    {
      "channel": 2,
      "note": 61,
      "start": 78.2352,
      "duration": 0.1004,
      "velocity": 102,
      "chip": "ym2612"
    },
    {
      "channel": 5,
      "note": 103,
      "start": 78.2359,
      "duration": 0.2865,
      "velocity": 127,
      "chip": "ym2612"
    },
    {
      "channel": 0,
      "note": 59,
      "start": 78.3347,
      "duration": 0.2864,
      "velocity": 117,
      "chip": "ym2612"
    },
    {
      "channel": 1,
      "note": 71,
      "start": 78.3352,
      "duration": 0.1859,
      "velocity": 102,
      "chip": "ym2612"
    },
    {
      "channel": 2,
      "note": 66,
      "start": 78.3358,
      "duration": 0.1859,
      "velocity": 102,
      "chip": "ym2612"
    },
    {
      "channel": 1,
      "note": 75,
      "start": 78.5213,
      "duration": 0.1003,
      "velocity": 102,
      "chip": "ym2612"
    },
    {
      "channel": 2,
      "note": 71,
      "start": 78.5218,
      "duration": 0.1003,
      "velocity": 102,
      "chip": "ym2612"
    },
    {
      "channel": 5,
      "note": 103,
      "start": 78.5225,
      "duration": 0.5436,
      "velocity": 127,
      "chip": "ym2612"
    },
    {
      "channel": 0,
      "note": 71,
      "start": 78.6212,
      "duration": 0.1887,
      "velocity": 117,
      "chip": "ym2612"
    },
    {
      "channel": 1,
      "note": 78,
      "start": 78.6218,
      "duration": 0.1866,
      "velocity": 102,
      "chip": "ym2612"
    },
    {
      "channel": 2,
      "note": 75,
      "start": 78.6224,
      "duration": 0.1866,
      "velocity": 102,
      "chip": "ym2612"
    },
    {
      "channel": 1,
      "note": 83,
      "start": 78.8085,
      "duration": 0.2564,
      "velocity": 102,
      "chip": "ym2612"
    },
    {
      "channel": 2,
      "note": 78,
      "start": 78.8091,
      "duration": 0.2564,
      "velocity": 102,
      "chip": "ym2612"
    },
    {
      "channel": 0,
      "note": 70,
      "start": 78.8099,
      "duration": 0.0119,
      "velocity": 117,
      "chip": "ym2612"
    },
    {
      "channel": 0,
      "note": 68,
      "start": 78.8218,
      "duration": 0.0121,
      "velocity": 117,
      "chip": "ym2612"
    },
    {
      "channel": 0,
      "note": 67,
      "start": 78.8339,
      "duration": 0.0268,
      "velocity": 117,
      "chip": "ym2612"
    },
    {
      "channel": 0,
      "note": 66,
      "start": 78.8607,
      "duration": 0.0166,
      "velocity": 117,
      "chip": "ym2612"
    },
    {
      "channel": 0,
      "note": 66,
      "start": 78.8774,
      "duration": 0.0171,
      "velocity": 117,
      "chip": "ym2612"
    },
    {
      "channel": 0,
      "note": 56,
      "start": 78.8947,
      "duration": 0.1697,
      "velocity": 117,
      "chip": "ym2612"
    },
    {
      "channel": 0,
      "note": 68,
      "start": 79.0646,
      "duration": 0.2998,
      "velocity": 117,
      "chip": "ym2612"
    },
    {
      "channel": 1,
      "note": 78,
      "start": 79.0651,
      "duration": 0.0994,
      "velocity": 102,
      "chip": "ym2612"
    },
    {
      "channel": 2,
      "note": 75,
      "start": 79.0657,
      "duration": 0.0993,
      "velocity": 102,
      "chip": "ym2612"
    },
    {
      "channel": 5,
      "note": 103,
      "start": 79.0664,
      "duration": 0.0993,
      "velocity": 127,
      "chip": "ym2612"
    },
    {
      "channel": 1,
      "note": 75,
      "start": 79.1646,
      "duration": 0.2003,
      "velocity": 102,
      "chip": "ym2612"
    },
    {
      "channel": 2,
      "note": 71,
      "start": 79.1651,
      "duration": 0.2003,
      "velocity": 102,
      "chip": "ym2612"
    },
    {
      "channel": 5,
      "note": 103,
      "start": 79.1659,
      "duration": 0.2845,
      "velocity": 127,
      "chip": "ym2612"
    },
    {
      "channel": 0,
      "note": 57,
      "start": 79.3645,
      "duration": 0.2855,
      "velocity": 117,
      "chip": "ym2612"
    },
    {
      "channel": 1,
      "note": 69,
      "start": 79.3651,
      "duration": 0.2854,
      "velocity": 102,
      "chip": "ym2612"
    },
    {
      "channel": 2,
      "note": 64,
      "start": 79.3657,
      "duration": 0.2854,
      "velocity": 102,
      "chip": "ym2612"
    },
    {
      "channel": 5,
      "note": 103,
      "start": 79.4505,
      "duration": 0.287,
      "velocity": 127,
      "chip": "ym2612"
    },
    {
      "channel": 0,
      "note": 69,
      "start": 79.6501,
      "duration": 0.1865,
      "velocity": 117,
      "chip": "ym2612"
    },
    {
      "channel": 1,
      "note": 69,
      "start": 79.6507,
      "duration": 0.0856,
      "velocity": 102,
      "chip": "ym2612"
    },
    {
      "channel": 2,
      "note": 64,
      "start": 79.6513,
      "duration": 0.0855,
      "velocity": 102,
      "chip": "ym2612"
    },
    {
      "channel": 1,
      "note": 73,
      "start": 79.7364,
      "duration": 0.2004,
      "velocity": 102,
      "chip": "ym2612"
    },
    {
      "channel": 2,
      "note": 69,
      "start": 79.7369,
      "duration": 0.2003,
      "velocity": 102,
      "chip": "ym2612"
    },
    {
      "channel": 5,
      "note": 103,
      "start": 79.7376,
      "duration": 0.456,
      "velocity": 127,
      "chip": "ym2612"
    },
    {
      "channel": 0,
      "note": 68,
      "start": 79.8366,
      "duration": 0.0158,
      "velocity": 117,
      "chip": "ym2612"
    },
    {
      "channel": 0,
      "note": 67,
      "start": 79.8524,
      "duration": 0.0167,
      "velocity": 117,
      "chip": "ym2612"
    },
    {
      "channel": 0,
      "note": 66,
      "start": 79.8691,
      "duration": 0.0333,
      "velocity": 117,
      "chip": "ym2612"
    },
    {
      "channel": 0,
      "note": 65,
      "start": 79.9024,
      "duration": 0.0167,
      "velocity": 117,
      "chip": "ym2612"
    },
    {
      "channel": 0,
      "note": 64,
      "start": 79.9191,
      "duration": 0.0171,
      "velocity": 117,
      "chip": "ym2612"
    },
    {
      "channel": 0,
      "note": 57,
      "start": 79.9364,
      "duration": 0.0866,
      "velocity": 117,
      "chip": "ym2612"
    },
    {
      "channel": 1,
      "note": 76,
      "start": 79.9369,
      "duration": 0.0866,
      "velocity": 102,
      "chip": "ym2612"
    },
    {
      "channel": 2,
      "note": 73,
      "start": 79.9375,
      "duration": 0.0866,
      "velocity": 102,
      "chip": "ym2612"
    },
    {
      "channel": 0,
      "note": 58,
      "start": 80.0231,
      "duration": 0.2692,
      "velocity": 117,
      "chip": "ym2612"
    },
    {
      "channel": 1,
      "note": 81,
      "start": 80.0237,
      "duration": 0.1686,
      "velocity": 102,
      "chip": "ym2612"
    },
    {
      "channel": 2,
      "note": 76,
      "start": 80.0243,
      "duration": 0.1686,
      "velocity": 102,
      "chip": "ym2612"
    },
    {
      "channel": 1,
      "note": 76,
      "start": 80.1925,
      "duration": 0.1003,
      "velocity": 102,
      "chip": "ym2612"
    },
    {
      "channel": 2,
      "note": 73,
      "start": 80.1931,
      "duration": 0.1003,
      "velocity": 102,
      "chip": "ym2612"
    },
    {
      "channel": 5,
      "note": 103,
      "start": 80.1938,
      "duration": 0.1003,
      "velocity": 127,
      "chip": "ym2612"
    },
    {
      "channel": 0,
      "note": 70,
      "start": 80.2924,
      "duration": 6.1569,
      "velocity": 117,
      "chip": "ym2612"
    },
    {
      "channel": 1,
      "note": 73,
      "start": 80.293,
      "duration": 0.0994,
      "velocity": 102,
      "chip": "ym2612"
    },
    {
      "channel": 2,
      "note": 69,
      "start": 80.2936,
      "duration": 0.0993,
      "velocity": 102,
      "chip": "ym2612"
    },
    {
      "channel": 5,
      "note": 103,
      "start": 80.2943,
      "duration": 6.155,
      "velocity": 127,
      "chip": "ym2612"
    },
    {
      "channel": 1,
      "note": 69,
      "start": 80.3925,
      "duration": 0.0999,
      "velocity": 102,
      "chip": "ym2612"
    },
    {
      "channel": 2,
      "note": 64,
      "start": 80.3931,
      "duration": 0.1,
      "velocity": 102,
      "chip": "ym2612"
    },
    {
      "channel": 1,
      "note": 64,
      "start": 80.4927,
      "duration": 5.9567,
      "velocity": 102,
      "chip": "ym2612"
    },
    {
      "channel": 2,
      "note": 61,
      "start": 80.4932,
      "duration": 5.9562,
      "velocity": 102,
      "chip": "ym2612"
    }
  ]
}