{
  "track_name": "08 - Round 5",
  "duration_sec": 32.373,
  "sample_rate": 44100,
  "note_count": 855,
  "unique_pitches": 46,
  "pitch_range": 75,
  "avg_note_duration": 0.202,
  "reconstruction_stats": {
    "notes_reconstructed": 855,
    "keyon_events": 855,
    "keyoff_events": 851,
    "orphan_keyons": 4,
    "unique_pitches": 46,
    "pitch_range": 75,
    "avg_duration_sec": 0.202
  },
  "metadata": {
    "source": "M\\Mystic Defender\\08 - Round 5.vgz"
  },
  "notes": [
    {
      "channel": 0,
      "note": 65,
      "start": 0.0,
      "duration": 0.7476,
      "velocity": 83,
      "chip": "ym2612"
    },
    {
      "channel": 1,
      "note": 34,
      "start": 0.0028,
      "duration": 0.3639,
      "velocity": 86,
      "chip": "ym2612"
    },
    {
      "channel": 3,
      "note": 61,
      "start": 0.0058,
      "duration": 0.7431,
      "velocity": 83,
      "chip": "ym2612"
    },
    {
      "channel": 2,
      "note": 35,
      "start": 0.0119,
      "duration": 0.0361,
      "velocity": 120,
      "chip": "ym2612"
    },
    {
      "channel": 5,
      "note": 65,
      "start": 0.0205,
      "duration": 0.758,
      "velocity": 83,
      "chip": "ym2612"
    },
    {
      "channel": 2,
      "note": 35,
      "start": 0.1798,
      "duration": 0.0588,
      "velocity": 120,
      "chip": "ym2612"
    },
    {
      "channel": 1,
      "note": 34,
      "start": 0.3673,
      "duration": 0.19,
      "velocity": 86,
      "chip": "ym2612"
    },
    {
      "channel": 2,
      "note": 54,
      "start": 0.3693,
      "duration": 0.0929,
      "velocity": 117,
      "chip": "ym2612"
    },
    {
      "channel": 1,
      "note": 34,
      "start": 0.5578,
      "duration": 0.1905,
      "velocity": 86,
      "chip": "ym2612"
    },
    {
      "channel": 2,
      "note": 35,
      "start": 0.5612,
      "duration": 0.0583,
      "velocity": 120,
      "chip": "ym2612"
    },
    {
      "channel": 0,
      "note": 66,
      "start": 0.748,
      "duration": 0.763,
      "velocity": 83,
      "chip": "ym2612"
    },
    {
      "channel": 3,
      "note": 63,
      "start": 0.7493,
      "duration": 0.7631,
      "velocity": 83,
      "chip": "ym2612"
    },
    {
      "channel": 2,
      "note": 35,
      "start": 0.751,
      "duration": 0.0606,
      "velocity": 120,
      "chip": "ym2612"
    },
    {
      "channel": 5,
      "note": 66,
      "start": 0.779,
      "duration": 0.761,
      "velocity": 83,
      "chip": "ym2612"
    },
    {
      "channel": 1,
      "note": 34,
      "start": 0.9386,
      "duration": 0.1914,
      "velocity": 86,
      "chip": "ym2612"
    },
    {
      "channel": 2,
      "note": 35,
      "start": 0.9407,
      "duration": 0.0599,
      "velocity": 120,
      "chip": "ym2612"
    },
    {
      "channel": 1,
      "note": 34,
      "start": 1.1304,
      "duration": 0.3814,
      "velocity": 86,
      "chip": "ym2612"
    },
    {
      "channel": 2,
      "note": 54,
      "start": 1.1325,
      "duration": 0.0903,
      "velocity": 117,
      "chip": "ym2612"
    },
    {
      "channel": 2,
      "note": 35,
      "start": 1.3214,
      "duration": 0.0602,
      "velocity": 120,
      "chip": "ym2612"
    },
    {
      "channel": 0,
      "note": 68,
      "start": 1.5115,
      "duration": 0.76,
      "velocity": 83,
      "chip": "ym2612"
    },
    {
      "channel": 1,
      "note": 34,
      "start": 1.5122,
      "duration": 0.3785,
      "velocity": 86,
      "chip": "ym2612"
    },
    {
      "channel": 3,
      "note": 65,
      "start": 1.5129,
      "duration": 0.7599,
      "velocity": 83,
      "chip": "ym2612"
    },
    {
      "channel": 2,
      "note": 35,
      "start": 1.5149,
      "duration": 0.0573,
      "velocity": 120,
      "chip": "ym2612"
    },
    {
      "channel": 5,
      "note": 68,
      "start": 1.5404,
      "duration": 0.7616,
      "velocity": 83,
      "chip": "ym2612"
    },
    {
      "channel": 2,
      "note": 35,
      "start": 1.7024,
      "duration": 0.0602,
      "velocity": 120,
      "chip": "ym2612"
    },
    {
      "channel": 1,
      "note": 34,
      "start": 1.8912,
      "duration": 0.1901,
      "velocity": 86,
      "chip": "ym2612"
    },
    {
      "channel": 2,
      "note": 54,
      "start": 1.8948,
      "duration": 0.09,
      "velocity": 117,
      "chip": "ym2612"
    },
    {
      "channel": 1,
      "note": 34,
      "start": 2.0818,
      "duration": 0.1905,
      "velocity": 86,
      "chip": "ym2612"
    },
    {
      "channel": 2,
      "note": 35,
      "start": 2.0838,
      "duration": 0.0613,
      "velocity": 120,
      "chip": "ym2612"
    },
    {
      "channel": 0,
      "note": 66,
      "start": 2.272,
      "duration": 0.7639,
      "velocity": 83,
      "chip": "ym2612"
    },
    {
      "channel": 3,
      "note": 63,
      "start": 2.2732,
      "duration": 0.7665,
      "velocity": 83,
      "chip": "ym2612"
    },
    {
      "channel": 2,
      "note": 35,
      "start": 2.275,
      "duration": 0.0592,
      "velocity": 120,
      "chip": "ym2612"
    },
    {
      "channel": 5,
      "note": 66,
      "start": 2.3024,
      "duration": 0.7617,
      "velocity": 83,
      "chip": "ym2612"
    },
    {
      "channel": 1,
      "note": 34,
      "start": 2.4639,
      "duration": 0.1889,
      "velocity": 86,
      "chip": "ym2612"
    },
    {
      "channel": 2,
      "note": 35,
      "start": 2.4659,
      "duration": 0.0588,
      "velocity": 120,
      "chip": "ym2612"
    },
    {
      "channel": 1,
      "note": 34,
      "start": 2.6533,
      "duration": 0.3833,
      "velocity": 86,
      "chip": "ym2612"
    },
    {
      "channel": 2,
      "note": 54,
      "start": 2.6554,
      "duration": 0.0915,
      "velocity": 117,
      "chip": "ym2612"
    },
    {
      "channel": 2,
      "note": 35,
      "start": 2.8468,
      "duration": 0.0588,
      "velocity": 120,
      "chip": "ym2612"
    },
    {
      "channel": 0,
      "note": 65,
      "start": 3.0365,
      "duration": 0.7601,
      "velocity": 83,
      "chip": "ym2612"
    },
    {
      "channel": 1,
      "note": 34,
      "start": 3.0372,
      "duration": 0.3777,
      "velocity": 86,
      "chip": "ym2612"
    },
    {
      "channel": 3,
      "note": 61,
      "start": 3.0402,
      "duration": 0.7576,
      "velocity": 83,
      "chip": "ym2612"
    },
    {
      "channel": 4,
      "note": 89,
      "start": 3.041,
      "duration": 0.0873,
      "velocity": 101,
      "chip": "ym2612"
    },
    {
      "channel": 2,
      "note": 35,
      "start": 3.0439,
      "duration": 0.0549,
      "velocity": 120,
      "chip": "ym2612"
    },
    {
      "channel": 5,
      "note": 66,
      "start": 3.0645,
      "duration": 0.0336,
      "velocity": 83,
      "chip": "ym2612"
    },
    {
      "channel": 5,
      "note": 65,
      "start": 3.0986,
      "duration": 0.7592,
      "velocity": 83,
      "chip": "ym2612"
    },
    {
      "channel": 4,
      "note": 90,
      "start": 3.1288,
      "duration": 0.0966,
      "velocity": 101,
      "chip": "ym2612"
    },
    {
      "channel": 4,
      "note": 89,
      "start": 3.2274,
      "duration": 0.0905,
      "velocity": 101,
      "chip": "ym2612"
    },
    {
      "channel": 2,
      "note": 35,
      "start": 3.2289,
      "duration": 0.0577,
      "velocity": 120,
      "chip": "ym2612"
    },
    {
      "channel": 4,
      "note": 90,
      "start": 3.3184,
      "duration": 0.0979,
      "velocity": 101,
      "chip": "ym2612"
    },
    {
      "channel": 1,
      "note": 34,
      "start": 3.4153,
      "duration": 0.19,
      "velocity": 86,
      "chip": "ym2612"
    },
    {
      "channel": 4,
      "note": 89,
      "start": 3.4168,
      "duration": 0.0917,
      "velocity": 101,
      "chip": "ym2612"
    },
    {
      "channel": 2,
      "note": 54,
      "start": 3.4183,
      "duration": 0.0926,
      "velocity": 117,
      "chip": "ym2612"
    },
    {
      "channel": 4,
      "note": 90,
      "start": 3.5104,
      "duration": 0.0964,
      "velocity": 101,
      "chip": "ym2612"
    },
    {
      "channel": 1,
      "note": 34,
      "start": 3.6058,
      "duration": 0.1915,
      "velocity": 86,
      "chip": "ym2612"
    },
    {
      "channel": 4,
      "note": 89,
      "start": 3.6073,
      "duration": 0.0917,
      "velocity": 101,
      "chip": "ym2612"
    },
    {
      "channel": 2,
      "note": 35,
      "start": 3.6088,
      "duration": 0.0588,
      "velocity": 120,
      "chip": "ym2612"
    },
    {
      "channel": 4,
      "note": 90,
      "start": 3.6995,
      "duration": 0.0995,
      "velocity": 101,
      "chip": "ym2612"
    },
    {
      "channel": 0,
      "note": 66,
      "start": 3.7971,
      "duration": 0.7606,
      "velocity": 83,
      "chip": "ym2612"
    },
    {
      "channel": 3,
      "note": 63,
      "start": 3.7983,
      "duration": 0.7622,
      "velocity": 83,
      "chip": "ym2612"
    },
    {
      "channel": 4,
      "note": 89,
      "start": 3.7995,
      "duration": 0.09,
      "velocity": 101,
      "chip": "ym2612"
    },
    {
      "channel": 2,
      "note": 35,
      "start": 3.801,
      "duration": 0.0575,
      "velocity": 120,
      "chip": "ym2612"
    },
    {
      "channel": 5,
      "note": 66,
      "start": 3.8583,
      "duration": 0.7616,
      "velocity": 83,
      "chip": "ym2612"
    },
    {
      "channel": 4,
      "note": 90,
      "start": 3.89,
      "duration": 0.0978,
      "velocity": 101,
      "chip": "ym2612"
    },
    {
      "channel": 1,
      "note": 34,
      "start": 3.9868,
      "duration": 0.1915,
      "velocity": 86,
      "chip": "ym2612"
    },
    {
      "channel": 4,
      "note": 89,
      "start": 3.9883,
      "duration": 0.0916,
      "velocity": 101,
      "chip": "ym2612"
    },
    {
      "channel": 2,
      "note": 35,
      "start": 3.9897,
      "duration": 0.0589,
      "velocity": 120,
      "chip": "ym2612"
    },
    {
      "channel": 4,
      "note": 90,
      "start": 4.0804,
      "duration": 0.0994,
      "velocity": 101,
      "chip": "ym2612"
    },
    {
      "channel": 1,
      "note": 34,
      "start": 4.1788,
      "duration": 0.3796,
      "velocity": 86,
      "chip": "ym2612"
    },
    {
      "channel": 4,
      "note": 89,
      "start": 4.1803,
      "duration": 0.0901,
      "velocity": 101,
      "chip": "ym2612"
    },
    {
      "channel": 2,
      "note": 54,
      "start": 4.1818,
      "duration": 0.0896,
      "velocity": 117,
      "chip": "ym2612"
    },
    {
      "channel": 4,
      "note": 90,
      "start": 4.271,
      "duration": 0.0975,
      "velocity": 101,
      "chip": "ym2612"
    },
    {
      "channel": 4,
      "note": 89,
      "start": 4.3689,
      "duration": 0.0928,
      "velocity": 101,
      "chip": "ym2612"
    },
    {
      "channel": 2,
      "note": 35,
      "start": 4.3704,
      "duration": 0.0592,
      "velocity": 120,
      "chip": "ym2612"
    },
    {
      "channel": 4,
      "note": 90,
      "start": 4.4622,
      "duration": 0.0994,
      "velocity": 101,
      "chip": "ym2612"
    },
    {
      "channel": 0,
      "note": 68,
      "start": 4.5581,
      "duration": 0.7616,
      "velocity": 83,
      "chip": "ym2612"
    },
    {
      "channel": 1,
      "note": 34,
      "start": 4.5588,
      "duration": 0.3801,
      "velocity": 86,
      "chip": "ym2612"
    },
    {
      "channel": 3,
      "note": 65,
      "start": 4.5609,
      "duration": 0.7599,
      "velocity": 83,
      "chip": "ym2612"
    },
    {
      "channel": 4,
      "note": 89,
      "start": 4.5622,
      "duration": 0.0893,
      "velocity": 101,
      "chip": "ym2612"
    },
    {
      "channel": 2,
      "note": 35,
      "start": 4.5637,
      "duration": 0.0569,
      "velocity": 120,
      "chip": "ym2612"
    },
    {
      "channel": 5,
      "note": 68,
      "start": 4.6203,
      "duration": 0.7615,
      "velocity": 83,
      "chip": "ym2612"
    },
    {
      "channel": 4,
      "note": 90,
      "start": 4.652,
      "duration": 0.0975,
      "velocity": 101,
      "chip": "ym2612"
    },
    {
      "channel": 4,
      "note": 89,
      "start": 4.75,
      "duration": 0.0919,
      "velocity": 101,
      "chip": "ym2612"
    },
    {
      "channel": 2,
      "note": 35,
      "start": 4.7514,
      "duration": 0.0607,
      "velocity": 120,
      "chip": "ym2612"
    },
    {
      "channel": 4,
      "note": 90,
      "start": 4.8439,
      "duration": 0.0965,
      "velocity": 101,
      "chip": "ym2612"
    },
    {
      "channel": 1,
      "note": 34,
      "start": 4.9393,
      "duration": 0.1911,
      "velocity": 86,
      "chip": "ym2612"
    },
    {
      "channel": 4,
      "note": 89,
      "start": 4.9409,
      "duration": 0.0916,
      "velocity": 101,
      "chip": "ym2612"
    },
    {
      "channel": 2,
      "note": 54,
      "start": 4.9439,
      "duration": 0.0896,
      "velocity": 117,
      "chip": "ym2612"
    },
    {
      "channel": 4,
      "note": 90,
      "start": 5.033,
      "duration": 0.0989,
      "velocity": 101,
      "chip": "ym2612"
    },
    {
      "channel": 1,
      "note": 34,
      "start": 5.1309,
      "duration": 0.1894,
      "velocity": 86,
      "chip": "ym2612"
    },
    {
      "channel": 4,
      "note": 89,
      "start": 5.1324,
      "duration": 0.0905,
      "velocity": 101,
      "chip": "ym2612"
    },
    {
      "channel": 2,
      "note": 35,
      "start": 5.1339,
      "duration": 0.0578,
      "velocity": 120,
      "chip": "ym2612"
    },
    {
      "channel": 4,
      "note": 90,
      "start": 5.2234,
      "duration": 0.0987,
      "velocity": 101,
      "chip": "ym2612"
    },
    {
      "channel": 0,
      "note": 66,
      "start": 5.3201,
      "duration": 0.7616,
      "velocity": 83,
      "chip": "ym2612"
    },
    {
      "channel": 3,
      "note": 63,
      "start": 5.3213,
      "duration": 0.7618,
      "velocity": 83,
      "chip": "ym2612"
    },
    {
      "channel": 4,
      "note": 89,
      "start": 5.3225,
      "duration": 0.091,
      "velocity": 101,
      "chip": "ym2612"
    },
    {
      "channel": 2,
      "note": 35,
      "start": 5.3241,
      "duration": 0.0585,
      "velocity": 120,
      "chip": "ym2612"
    },
    {
      "channel": 5,
      "note": 66,
      "start": 5.3823,
      "duration": 0.7634,
      "velocity": 83,
      "chip": "ym2612"
    },
    {
      "channel": 4,
      "note": 90,
      "start": 5.414,
      "duration": 0.0993,
      "velocity": 101,
      "chip": "ym2612"
    },
    {
      "channel": 1,
      "note": 34,
      "start": 5.5123,
      "duration": 0.1886,
      "velocity": 86,
      "chip": "ym2612"
    },
    {
      "channel": 4,
      "note": 89,
      "start": 5.5138,
      "duration": 0.0902,
      "velocity": 101,
      "chip": "ym2612"
    },
    {
      "channel": 2,
      "note": 35,
      "start": 5.5153,
      "duration": 0.0573,
      "velocity": 120,
      "chip": "ym2612"
    },
    {
      "channel": 4,
      "note": 90,
      "start": 5.6045,
      "duration": 0.0979,
      "velocity": 101,
      "chip": "ym2612"
    },
    {
      "channel": 1,
      "note": 34,
      "start": 5.7014,
      "duration": 0.3811,
      "velocity": 86,
      "chip": "ym2612"
    },
    {
      "channel": 4,
      "note": 89,
      "start": 5.7029,
      "duration": 0.0922,
      "velocity": 101,
      "chip": "ym2612"
    },
    {
      "channel": 2,
      "note": 54,
      "start": 5.7044,
      "duration": 0.0917,
      "velocity": 117,
      "chip": "ym2612"
    },
    {
      "channel": 4,
      "note": 90,
      "start": 5.7956,
      "duration": 0.0983,
      "velocity": 101,
      "chip": "ym2612"
    },
    {
      "channel": 4,
      "note": 89,
      "start": 5.8944,
      "duration": 0.0906,
      "velocity": 101,
      "chip": "ym2612"
    },
    {
      "channel": 2,
      "note": 35,
      "start": 5.8959,
      "duration": 0.0578,
      "velocity": 120,
      "chip": "ym2612"
    },
    {
      "channel": 4,
      "note": 90,
      "start": 5.9855,
      "duration": 0.0988,
      "velocity": 101,
      "chip": "ym2612"
    },
    {
      "channel": 0,
      "note": 77,
      "start": 6.0822,
      "duration": 0.0923,
      "velocity": 83,
      "chip": "ym2612"
    },
    {
      "channel": 1,
      "note": 41,
      "start": 6.0829,
      "duration": 0.759,
      "velocity": 86,
      "chip": "ym2612"
    },
    {
      "channel": 3,
      "note": 73,
      "start": 6.0837,
      "duration": 0.0917,
      "velocity": 83,
      "chip": "ym2612"
    },
    {
      "channel": 2,
      "note": 47,
      "start": 6.0863,
      "duration": 0.1215,
      "velocity": 95,
      "chip": "ym2612"
    },
    {
      "channel": 5,
      "note": 77,
      "start": 6.1463,
      "duration": 0.0928,
      "velocity": 83,
      "chip": "ym2612"
    },
    {
      "channel": 0,
      "note": 76,
      "start": 6.175,
      "duration": 0.0971,
      "velocity": 83,
      "chip": "ym2612"
    },
    {
      "channel": 3,
      "note": 72,
      "start": 6.1773,
      "duration": 0.0956,
      "velocity": 83,
      "chip": "ym2612"
    },
    {
      "channel": 5,
      "note": 76,
      "start": 6.2399,
      "duration": 0.0944,
      "velocity": 83,
      "chip": "ym2612"
    },
    {
      "channel": 0,
      "note": 73,
      "start": 6.2725,
      "duration": 0.0926,
      "velocity": 83,
      "chip": "ym2612"
    },
    {
      "channel": 3,
      "note": 69,
      "start": 6.2734,
      "duration": 0.0925,
      "velocity": 83,
      "chip": "ym2612"
    },
    {
      "channel": 2,
      "note": 47,
      "start": 6.2752,
      "duration": 0.123,
      "velocity": 95,
      "chip": "ym2612"
    },
    {
      "channel": 5,
      "note": 73,
      "start": 6.335,
      "duration": 0.0945,
      "velocity": 83,
      "chip": "ym2612"
    },
    {
      "channel": 0,
      "note": 72,
      "start": 6.3656,
      "duration": 0.0954,
      "velocity": 83,
      "chip": "ym2612"
    },
    {
      "channel": 3,
      "note": 68,
      "start": 6.3664,
      "duration": 0.0954,
      "velocity": 83,
      "chip": "ym2612"
    },
    {
      "channel": 5,
      "note": 72,
      "start": 6.4302,
      "duration": 0.0946,
      "velocity": 83,
      "chip": "ym2612"
    },
    {
      "channel": 0,
      "note": 70,
      "start": 6.4614,
      "duration": 0.0943,
      "velocity": 83,
      "chip": "ym2612"
    },
    {
      "channel": 3,
      "note": 66,
      "start": 6.4622,
      "duration": 0.0942,
      "velocity": 83,
      "chip": "ym2612"
    },
    {
      "channel": 5,
      "note": 70,
      "start": 6.5255,
      "duration": 0.0946,
      "velocity": 83,
      "chip": "ym2612"
    },
    {
      "channel": 0,
      "note": 69,
      "start": 6.5561,
      "duration": 0.0947,
      "velocity": 83,
      "chip": "ym2612"
    },
    {
      "channel": 3,
      "note": 65,
      "start": 6.5569,
      "duration": 0.0948,
      "velocity": 83,
      "chip": "ym2612"
    },
    {
      "channel": 5,
      "note": 69,
      "start": 6.6208,
      "duration": 0.0945,
      "velocity": 83,
      "chip": "ym2612"
    },
    {
      "channel": 0,
      "note": 66,
      "start": 6.6512,
      "duration": 0.0948,
      "velocity": 83,
      "chip": "ym2612"
    },
    {
      "channel": 3,
      "note": 62,
      "start": 6.6521,
      "duration": 0.0948,
      "velocity": 83,
      "chip": "ym2612"
    },
    {
      "channel": 5,
      "note": 66,
      "start": 6.716,
      "duration": 0.0959,
      "velocity": 83,
      "chip": "ym2612"
    },
    {
      "channel": 0,
      "note": 65,
      "start": 6.7465,
      "duration": 0.0948,
      "velocity": 83,
      "chip": "ym2612"
    },
    {
      "channel": 3,
      "note": 61,
      "start": 6.7474,
      "duration": 0.0966,
      "velocity": 83,
      "chip": "ym2612"
    },
    {
      "channel": 5,
      "note": 65,
      "start": 6.8126,
      "duration": 0.0933,
      "velocity": 83,
      "chip": "ym2612"
    },
    {
      "channel": 0,
      "note": 64,
      "start": 6.8418,
      "duration": 0.0948,
      "velocity": 83,
      "chip": "ym2612"
    },
    {
      "channel": 1,
      "note": 29,
      "start": 6.8439,
      "duration": 0.7627,
      "velocity": 86,
      "chip": "ym2612"
    },
    {
      "channel": 3,
      "note": 60,
      "start": 6.8445,
      "duration": 0.0929,
      "velocity": 83,
      "chip": "ym2612"
    },
    {
      "channel": 5,
      "note": 64,
      "start": 6.9065,
      "duration": 0.0946,
      "velocity": 83,
      "chip": "ym2612"
    },
    {
      "channel": 0,
      "note": 61,
      "start": 6.9371,
      "duration": 0.0948,
      "velocity": 83,
      "chip": "ym2612"
    },
    {
      "channel": 3,
      "note": 57,
      "start": 6.9379,
      "duration": 0.0948,
      "velocity": 83,
      "chip": "ym2612"
    },
    {
      "channel": 5,
      "note": 61,
      "start": 7.0018,
      "duration": 0.0945,
      "velocity": 83,
      "chip": "ym2612"
    },
    {
      "channel": 0,
      "note": 60,
      "start": 7.0323,
      "duration": 0.0951,
      "velocity": 83,
      "chip": "ym2612"
    },
    {
      "channel": 3,
      "note": 56,
      "start": 7.0331,
      "duration": 0.0952,
      "velocity": 83,
      "chip": "ym2612"
    },
    {
      "channel": 5,
      "note": 60,
      "start": 7.0971,
      "duration": 0.0945,
      "velocity": 83,
      "chip": "ym2612"
    },
    {
      "channel": 0,
      "note": 58,
      "start": 7.128,
      "duration": 0.0945,
      "velocity": 83,
      "chip": "ym2612"
    },
    {
      "channel": 3,
      "note": 54,
      "start": 7.1288,
      "duration": 0.0945,
      "velocity": 83,
      "chip": "ym2612"
    },
    {
      "channel": 5,
      "note": 58,
      "start": 7.1937,
      "duration": 0.0932,
      "velocity": 83,
      "chip": "ym2612"
    },
    {
      "channel": 0,
      "note": 57,
      "start": 7.2229,
      "duration": 0.0948,
      "velocity": 83,
      "chip": "ym2612"
    },
    {
      "channel": 3,
      "note": 53,
      "start": 7.2238,
      "duration": 0.0948,
      "velocity": 83,
      "chip": "ym2612"
    },
    {
      "channel": 5,
      "note": 57,
      "start": 7.2876,
      "duration": 0.0946,
      "velocity": 83,
      "chip": "ym2612"
    },
    {
      "channel": 0,
      "note": 54,
      "start": 7.3181,
      "duration": 0.0948,
      "velocity": 83,
      "chip": "ym2612"
    },
    {
      "channel": 3,
      "note": 50,
      "start": 7.319,
      "duration": 0.0948,
      "velocity": 83,
      "chip": "ym2612"
    },
    {
      "channel": 5,
      "note": 54,
      "start": 7.3829,
      "duration": 0.0956,
      "velocity": 83,
      "chip": "ym2612"
    },
    {
      "channel": 0,
      "note": 53,
      "start": 7.4134,
      "duration": 0.0947,
      "velocity": 83,
      "chip": "ym2612"
    },
    {
      "channel": 3,
      "note": 49,
      "start": 7.4142,
      "duration": 0.0962,
      "velocity": 83,
      "chip": "ym2612"
    },
    {
      "channel": 5,
      "note": 53,
      "start": 7.4791,
      "duration": 0.0935,
      "velocity": 83,
      "chip": "ym2612"
    },
    {
      "channel": 0,
      "note": 60,
      "start": 7.5085,
      "duration": 0.0973,
      "velocity": 83,
      "chip": "ym2612"
    },
    {
      "channel": 3,
      "note": 56,
      "start": 7.5109,
      "duration": 0.0963,
      "velocity": 83,
      "chip": "ym2612"
    },
    {
      "channel": 5,
      "note": 60,
      "start": 7.5733,
      "duration": 0.0975,
      "velocity": 83,
      "chip": "ym2612"
    },
    {
      "channel": 0,
      "note": 58,
      "start": 7.6063,
      "duration": 0.7619,
      "velocity": 83,
      "chip": "ym2612"
    },
    {
      "channel": 1,
      "note": 34,
      "start": 7.607,
      "duration": 0.38,
      "velocity": 86,
      "chip": "ym2612"
    },
    {
      "channel": 3,
      "note": 49,
      "start": 7.6077,
      "duration": 0.7616,
      "velocity": 83,
      "chip": "ym2612"
    },
    {
      "channel": 4,
      "note": 65,
      "start": 7.6128,
      "duration": 0.0865,
      "velocity": 101,
      "chip": "ym2612"
    },
    {
      "channel": 2,
      "note": 35,
      "start": 7.6144,
      "duration": 0.0571,
      "velocity": 120,
      "chip": "ym2612"
    },
    {
      "channel": 5,
      "note": 58,
      "start": 7.6712,
      "duration": 0.7587,
      "velocity": 83,
      "chip": "ym2612"
    },
    {
      "channel": 4,
      "note": 70,
      "start": 7.6998,
      "duration": 0.0974,
      "velocity": 101,
      "chip": "ym2612"
    },
    {
      "channel": 4,
      "note": 72,
      "start": 7.7977,
      "duration": 0.0945,
      "velocity": 101,
      "chip": "ym2612"
    },
    {
      "channel": 2,
      "note": 103,
      "start": 7.7991,
      "duration": 0.09,
      "velocity": 103,
      "chip": "ym2612"
    },
    {
      "channel": 4,
      "note": 73,
      "start": 7.8941,
      "duration": 0.0937,
      "velocity": 101,
      "chip": "ym2612"
    },
    {
      "channel": 2,
      "note": 103,
      "start": 7.8956,
      "duration": 0.0888,
      "velocity": 103,
      "chip": "ym2612"
    },
    {
      "channel": 1,
      "note": 46,
      "start": 7.9874,
      "duration": 0.1915,
      "velocity": 86,
      "chip": "ym2612"
    },
    {
      "channel": 4,
      "note": 77,
      "start": 7.9883,
      "duration": 0.0921,
      "velocity": 101,
      "chip": "ym2612"
    },
    {
      "channel": 2,
      "note": 54,
      "start": 7.9899,
      "duration": 0.0915,
      "velocity": 117,
      "chip": "ym2612"
    },
    {
      "channel": 4,
      "note": 73,
      "start": 8.0808,
      "duration": 0.099,
      "velocity": 101,
      "chip": "ym2612"
    },
    {
      "channel": 1,
      "note": 34,
      "start": 8.1794,
      "duration": 0.1894,
      "velocity": 86,
      "chip": "ym2612"
    },
    {
      "channel": 4,
      "note": 72,
      "start": 8.1803,
      "duration": 0.0928,
      "velocity": 101,
      "chip": "ym2612"
    },
    {
      "channel": 2,
      "note": 103,
      "start": 8.1818,
      "duration": 0.0882,
      "velocity": 103,
      "chip": "ym2612"
    },
    {
      "channel": 4,
      "note": 70,
      "start": 8.2736,
      "duration": 0.0964,
      "velocity": 101,
      "chip": "ym2612"
    },
    {
      "channel": 2,
      "note": 103,
      "start": 8.275,
      "duration": 0.0908,
      "velocity": 103,
      "chip": "ym2612"
    },
    {
      "channel": 0,
      "note": 60,
      "start": 8.3686,
      "duration": 0.7613,
      "velocity": 83,
      "chip": "ym2612"
    },
    {
      "channel": 1,
      "note": 34,
      "start": 8.3693,
      "duration": 0.3798,
      "velocity": 86,
      "chip": "ym2612"
    },
    {
      "channel": 3,
      "note": 51,
      "start": 8.3699,
      "duration": 0.7614,
      "velocity": 83,
      "chip": "ym2612"
    },
    {
      "channel": 4,
      "note": 65,
      "start": 8.3705,
      "duration": 0.0911,
      "velocity": 101,
      "chip": "ym2612"
    },
    {
      "channel": 2,
      "note": 35,
      "start": 8.372,
      "duration": 0.0587,
      "velocity": 120,
      "chip": "ym2612"
    },
    {
      "channel": 5,
      "note": 60,
      "start": 8.4304,
      "duration": 0.7615,
      "velocity": 83,
      "chip": "ym2612"
    },
    {
      "channel": 4,
      "note": 70,
      "start": 8.4621,
      "duration": 0.0983,
      "velocity": 101,
      "chip": "ym2612"
    },
    {
      "channel": 4,
      "note": 72,
      "start": 8.5608,
      "duration": 0.0933,
      "velocity": 101,
      "chip": "ym2612"
    },
    {
      "channel": 2,
      "note": 103,
      "start": 8.5624,
      "duration": 0.0887,
      "velocity": 103,
      "chip": "ym2612"
    },
    {
      "channel": 4,
      "note": 73,
      "start": 8.6547,
      "duration": 0.0952,
      "velocity": 101,
      "chip": "ym2612"
    },
    {
      "channel": 2,
      "note": 103,
      "start": 8.6561,
      "duration": 0.0902,
      "velocity": 103,
      "chip": "ym2612"
    },
    {
      "channel": 1,
      "note": 46,
      "start": 8.7495,
      "duration": 0.19,
      "velocity": 86,
      "chip": "ym2612"
    },
    {
      "channel": 4,
      "note": 77,
      "start": 8.7503,
      "duration": 0.0935,
      "velocity": 101,
      "chip": "ym2612"
    },
    {
      "channel": 2,
      "note": 54,
      "start": 8.7519,
      "duration": 0.0929,
      "velocity": 117,
      "chip": "ym2612"
    },
    {
      "channel": 4,
      "note": 73,
      "start": 8.8443,
      "duration": 0.0959,
      "velocity": 101,
      "chip": "ym2612"
    },
    {
      "channel": 1,
      "note": 34,
      "start": 8.9399,
      "duration": 0.1908,
      "velocity": 86,
      "chip": "ym2612"
    },
    {
      "channel": 4,
      "note": 72,
      "start": 8.9407,
      "duration": 0.0944,
      "velocity": 101,
      "chip": "ym2612"
    },
    {
      "channel": 2,
      "note": 103,
      "start": 8.9422,
      "duration": 0.0899,
      "velocity": 103,
      "chip": "ym2612"
    },
    {
      "channel": 4,
      "note": 70,
      "start": 9.0356,
      "duration": 0.0963,
      "velocity": 101,
      "chip": "ym2612"
    },
    {
      "channel": 2,
      "note": 103,
      "start": 9.0371,
      "duration": 0.0905,
      "velocity": 103,
      "chip": "ym2612"
    },
    {
      "channel": 0,
      "note": 61,
      "start": 9.1304,
      "duration": 1.1424,
      "velocity": 83,
      "chip": "ym2612"
    },
    {
      "channel": 1,
      "note": 34,
      "start": 9.1311,
      "duration": 0.3813,
      "velocity": 86,
      "chip": "ym2612"
    },
    {
      "channel": 3,
      "note": 53,
      "start": 9.1318,
      "duration": 1.1422,
      "velocity": 83,
      "chip": "ym2612"
    },
    {
      "channel": 4,
      "note": 65,
      "start": 9.1325,
      "duration": 0.0909,
      "velocity": 101,
      "chip": "ym2612"
    },
    {
      "channel": 2,
      "note": 35,
      "start": 9.1339,
      "duration": 0.0601,
      "velocity": 120,
      "chip": "ym2612"
    },
    {
      "channel": 5,
      "note": 61,
      "start": 9.1939,
      "duration": 1.1411,
      "velocity": 83,
      "chip": "ym2612"
    },
    {
      "channel": 4,
      "note": 70,
      "start": 9.2238,
      "duration": 0.0971,
      "velocity": 101,
      "chip": "ym2612"
    },
    {
      "channel": 4,
      "note": 72,
      "start": 9.3215,
      "duration": 0.0948,
      "velocity": 101,
      "chip": "ym2612"
    },
    {
      "channel": 2,
      "note": 103,
      "start": 9.3229,
      "duration": 0.0903,
      "velocity": 103,
      "chip": "ym2612"
    },
    {
      "channel": 4,
      "note": 73,
      "start": 9.4167,
      "duration": 0.0966,
      "velocity": 101,
      "chip": "ym2612"
    },
    {
      "channel": 2,
      "note": 103,
      "start": 9.4182,
      "duration": 0.0903,
      "velocity": 103,
      "chip": "ym2612"
    },
    {
      "channel": 1,
      "note": 46,
      "start": 9.5129,
      "duration": 0.1885,
      "velocity": 86,
      "chip": "ym2612"
    },
    {
      "channel": 4,
      "note": 77,
      "start": 9.5138,
      "duration": 0.0907,
      "velocity": 101,
      "chip": "ym2612"
    },
    {
      "channel": 2,
      "note": 54,
      "start": 9.5154,
      "duration": 0.0901,
      "velocity": 117,
      "chip": "ym2612"
    },
    {
      "channel": 4,
      "note": 73,
      "start": 9.6049,
      "duration": 0.0973,
      "velocity": 101,
      "chip": "ym2612"
    },
    {
      "channel": 1,
      "note": 34,
      "start": 9.7019,
      "duration": 0.1901,
      "velocity": 86,
      "chip": "ym2612"
    },
    {
      "channel": 4,
      "note": 72,
      "start": 9.7028,
      "duration": 0.0945,
      "velocity": 101,
      "chip": "ym2612"
    },
    {
      "channel": 2,
      "note": 103,
      "start": 9.7042,
      "duration": 0.0899,
      "velocity": 103,
      "chip": "ym2612"
    },
    {
      "channel": 4,
      "note": 70,
      "start": 9.7977,
      "duration": 0.0966,
      "velocity": 101,
      "chip": "ym2612"
    },
    {
      "channel": 2,
      "note": 103,
      "start": 9.7992,
      "duration": 0.0903,
      "velocity": 103,
      "chip": "ym2612"
    },
    {
      "channel": 1,
      "note": 34,
      "start": 9.894,
      "duration": 0.3793,
      "velocity": 86,
      "chip": "ym2612"
    },
    {
      "channel": 4,
      "note": 65,
      "start": 9.8948,
      "duration": 0.0906,
      "velocity": 101,
      "chip": "ym2612"
    },
    {
      "channel": 2,
      "note": 35,
      "start": 9.8963,
      "duration": 0.0579,
      "velocity": 120,
      "chip": "ym2612"
    },
    {
      "channel": 4,
      "note": 70,
      "start": 9.9859,
      "duration": 0.0971,
      "velocity": 101,
      "chip": "ym2612"
    },
    {
      "channel": 4,
      "note": 72,
      "start": 10.0835,
      "duration": 0.0961,
      "velocity": 101,
      "chip": "ym2612"
    },
    {
      "channel": 2,
      "note": 103,
      "start": 10.0849,
      "duration": 0.0902,
      "velocity": 103,
      "chip": "ym2612"
    },
    {
      "channel": 4,
      "note": 73,
      "start": 10.1801,
      "duration": 0.0945,
      "velocity": 101,
      "chip": "ym2612"
    },
    {
      "channel": 2,
      "note": 103,
      "start": 10.1816,
      "duration": 0.0888,
      "velocity": 103,
      "chip": "ym2612"
    },
    {
      "channel": 0,
      "note": 63,
      "start": 10.2732,
      "duration": 0.3807,
      "velocity": 83,
      "chip": "ym2612"
    },
    {
      "channel": 1,
      "note": 46,
      "start": 10.2738,
      "duration": 0.1897,
      "velocity": 86,
      "chip": "ym2612"
    },
    {
      "channel": 3,
      "note": 54,
      "start": 10.2745,
      "duration": 0.3807,
      "velocity": 83,
      "chip": "ym2612"
    },
    {
      "channel": 4,
      "note": 77,
      "start": 10.275,
      "duration": 0.0914,
      "velocity": 101,
      "chip": "ym2612"
    },
    {
      "channel": 2,
      "note": 54,
      "start": 10.2781,
      "duration": 0.0893,
      "velocity": 117,
      "chip": "ym2612"
    },
    {
      "channel": 5,
      "note": 63,
      "start": 10.3354,
      "duration": 0.3805,
      "velocity": 83,
      "chip": "ym2612"
    },
    {
      "channel": 4,
      "note": 73,
      "start": 10.3669,
      "duration": 0.0975,
      "velocity": 101,
      "chip": "ym2612"
    },
    {
      "channel": 1,
      "note": 34,
      "start": 10.464,
      "duration": 0.1906,
      "velocity": 86,
      "chip": "ym2612"
    },
    {
      "channel": 4,
      "note": 72,
      "start": 10.4649,
      "duration": 0.0959,
      "velocity": 101,
      "chip": "ym2612"
    },
    {
      "channel": 2,
      "note": 103,
      "start": 10.4663,
      "duration": 0.0899,
      "velocity": 103,
      "chip": "ym2612"
    },
    {
      "channel": 4,
      "note": 70,
      "start": 10.5612,
      "duration": 0.0946,
      "velocity": 101,
      "chip": "ym2612"
    },
    {
      "channel": 2,
      "note": 103,
      "start": 10.5627,
      "duration": 0.0888,
      "velocity": 103,
      "chip": "ym2612"
    },
    {
      "channel": 0,
      "note": 65,
      "start": 10.6543,
      "duration": 1.1426,
      "velocity": 83,
      "chip": "ym2612"
    },
    {
      "channel": 1,
      "note": 34,
      "start": 10.655,
      "duration": 0.38,
      "velocity": 86,
      "chip": "ym2612"
    },
    {
      "channel": 3,
      "note": 58,
      "start": 10.6556,
      "duration": 1.1424,
      "velocity": 83,
      "chip": "ym2612"
    },
    {
      "channel": 4,
      "note": 65,
      "start": 10.6563,
      "duration": 0.0911,
      "velocity": 101,
      "chip": "ym2612"
    },
    {
      "channel": 2,
      "note": 35,
      "start": 10.6578,
      "duration": 0.0588,
      "velocity": 120,
      "chip": "ym2612"
    },
    {
      "channel": 5,
      "note": 65,
      "start": 10.7164,
      "duration": 1.144,
      "velocity": 83,
      "chip": "ym2612"
    },
    {
      "channel": 4,
      "note": 70,
      "start": 10.7479,
      "duration": 0.0986,
      "velocity": 101,
      "chip": "ym2612"
    },
    {
      "channel": 4,
      "note": 72,
      "start": 10.847,
      "duration": 0.0932,
      "velocity": 101,
      "chip": "ym2612"
    },
    {
      "channel": 2,
      "note": 103,
      "start": 10.8484,
      "duration": 0.0887,
      "velocity": 103,
      "chip": "ym2612"
    },
    {
      "channel": 4,
      "note": 73,
      "start": 10.9407,
      "duration": 0.0952,
      "velocity": 101,
      "chip": "ym2612"
    },
    {
      "channel": 2,
      "note": 103,
      "start": 10.9422,
      "duration": 0.0903,
      "velocity": 103,
      "chip": "ym2612"
    },
    {
      "channel": 1,
      "note": 46,
      "start": 11.0355,
      "duration": 0.19,
      "velocity": 86,
      "chip": "ym2612"
    },
    {
      "channel": 4,
      "note": 77,
      "start": 11.0363,
      "duration": 0.0922,
      "velocity": 101,
      "chip": "ym2612"
    },
    {
      "channel": 2,
      "note": 54,
      "start": 11.0379,
      "duration": 0.0916,
      "velocity": 117,
      "chip": "ym2612"
    },
    {
      "channel": 4,
      "note": 73,
      "start": 11.129,
      "duration": 0.0988,
      "velocity": 101,
      "chip": "ym2612"
    },
    {
      "channel": 1,
      "note": 34,
      "start": 11.2274,
      "duration": 0.1887,
      "velocity": 86,
      "chip": "ym2612"
    },
    {
      "channel": 4,
      "note": 72,
      "start": 11.2283,
      "duration": 0.0929,
      "velocity": 101,
      "chip": "ym2612"
    },
    {
      "channel": 2,
      "note": 103,
      "start": 11.2297,
      "duration": 0.0884,
      "velocity": 103,
      "chip": "ym2612"
    },
    {
      "channel": 4,
      "note": 70,
      "start": 11.3217,
      "duration": 0.0953,
      "velocity": 101,
      "chip": "ym2612"
    },
    {
      "channel": 2,
      "note": 103,
      "start": 11.3231,
      "duration": 0.0904,
      "velocity": 103,
      "chip": "ym2612"
    },
    {
      "channel": 1,
      "note": 34,
      "start": 11.4165,
      "duration": 0.3809,
      "velocity": 86,
      "chip": "ym2612"
    },
    {
      "channel": 4,
      "note": 65,
      "start": 11.4174,
      "duration": 0.0935,
      "velocity": 101,
      "chip": "ym2612"
    },
    {
      "channel": 2,
      "note": 35,
      "start": 11.4189,
      "duration": 0.06,
      "velocity": 120,
      "chip": "ym2612"
    },
    {
      "channel": 4,
      "note": 70,
      "start": 11.5114,
      "duration": 0.0955,
      "velocity": 101,
      "chip": "ym2612"
    },
    {
      "channel": 4,
      "note": 72,
      "start": 11.6075,
      "duration": 0.0949,
      "velocity": 101,
      "chip": "ym2612"
    },
    {
      "channel": 2,
      "note": 103,
      "start": 11.6104,
      "duration": 0.0889,
      "velocity": 103,
      "chip": "ym2612"
    },
    {
      "channel": 4,
      "note": 73,
      "start": 11.7029,
      "duration": 0.0958,
      "velocity": 101,
      "chip": "ym2612"
    },
    {
      "channel": 2,
      "note": 103,
      "start": 11.7044,
      "duration": 0.0901,
      "velocity": 103,
      "chip": "ym2612"
    },
    {
      "channel": 0,
      "note": 66,
      "start": 11.7973,
      "duration": 0.3821,
      "velocity": 83,
      "chip": "ym2612"
    },
    {
      "channel": 1,
      "note": 46,
      "start": 11.7979,
      "duration": 0.1896,
      "velocity": 86,
      "chip": "ym2612"
    },
    {
      "channel": 3,
      "note": 60,
      "start": 11.7986,
      "duration": 0.3821,
      "velocity": 83,
      "chip": "ym2612"
    },
    {
      "channel": 4,
      "note": 77,
      "start": 11.7991,
      "duration": 0.0913,
      "velocity": 101,
      "chip": "ym2612"
    },
    {
      "channel": 2,
      "note": 54,
      "start": 11.8007,
      "duration": 0.0907,
      "velocity": 117,
      "chip": "ym2612"
    },
    {
      "channel": 5,
      "note": 66,
      "start": 11.8609,
      "duration": 0.3791,
      "velocity": 83,
      "chip": "ym2612"
    },
    {
      "channel": 4,
      "note": 73,
      "start": 11.8909,
      "duration": 0.0975,
      "velocity": 101,
      "chip": "ym2612"
    },
    {
      "channel": 1,
      "note": 34,
      "start": 11.988,
      "duration": 0.1921,
      "velocity": 86,
      "chip": "ym2612"
    },
    {
      "channel": 4,
      "note": 72,
      "start": 11.9889,
      "duration": 0.0944,
      "velocity": 101,
      "chip": "ym2612"
    },
    {
      "channel": 2,
      "note": 103,
      "start": 11.9904,
      "duration": 0.0898,
      "velocity": 103,
      "chip": "ym2612"
    },
    {
      "channel": 4,
      "note": 70,
      "start": 12.0837,
      "duration": 0.0977,
      "velocity": 101,
      "chip": "ym2612"
    },
    {
      "channel": 2,
      "note": 103,
      "start": 12.0852,
      "duration": 0.0919,
      "velocity": 103,
      "chip": "ym2612"
    },
    {
      "channel": 0,
      "note": 65,
      "start": 12.1799,
      "duration": 1.1409,
      "velocity": 83,
      "chip": "ym2612"
    },
    {
      "channel": 1,
      "note": 34,
      "start": 12.1806,
      "duration": 0.38,
      "velocity": 86,
      "chip": "ym2612"
    },
    {
      "channel": 3,
      "note": 58,
      "start": 12.1812,
      "duration": 1.1408,
      "velocity": 83,
      "chip": "ym2612"
    },
    {
      "channel": 4,
      "note": 65,
      "start": 12.1819,
      "duration": 0.0896,
      "velocity": 101,
      "chip": "ym2612"
    },
    {
      "channel": 2,
      "note": 35,
      "start": 12.1834,
      "duration": 0.0573,
      "velocity": 120,
      "chip": "ym2612"
    },
    {
      "channel": 5,
      "note": 65,
      "start": 12.2405,
      "duration": 1.1425,
      "velocity": 83,
      "chip": "ym2612"
    },
    {
      "channel": 4,
      "note": 70,
      "start": 12.2719,
      "duration": 0.0971,
      "velocity": 101,
      "chip": "ym2612"
    },
    {
      "channel": 4,
      "note": 72,
      "start": 12.3695,
      "duration": 0.0947,
      "velocity": 101,
      "chip": "ym2612"
    },
    {
      "channel": 2,
      "note": 103,
      "start": 12.371,
      "duration": 0.0902,
      "velocity": 103,
      "chip": "ym2612"
    },
    {
      "channel": 4,
      "note": 73,
      "start": 12.4647,
      "duration": 0.0967,
      "velocity": 101,
      "chip": "ym2612"
    },
    {
      "channel": 2,
      "note": 103,
      "start": 12.4662,
      "duration": 0.0903,
      "velocity": 103,
      "chip": "ym2612"
    },
    {
      "channel": 1,
      "note": 46,
      "start": 12.561,
      "duration": 0.1885,
      "velocity": 86,
      "chip": "ym2612"
    },
    {
      "channel": 4,
      "note": 77,
      "start": 12.5619,
      "duration": 0.0907,
      "velocity": 101,
      "chip": "ym2612"
    },
    {
      "channel": 2,
      "note": 54,
      "start": 12.5634,
      "duration": 0.0901,
      "velocity": 117,
      "chip": "ym2612"
    },
    {
      "channel": 4,
      "note": 73,
      "start": 12.6529,
      "duration": 0.0974,
      "velocity": 101,
      "chip": "ym2612"
    },
    {
      "channel": 1,
      "note": 34,
      "start": 12.75,
      "duration": 0.1902,
      "velocity": 86,
      "chip": "ym2612"
    },
    {
      "channel": 4,
      "note": 72,
      "start": 12.7509,
      "duration": 0.0959,
      "velocity": 101,
      "chip": "ym2612"
    },
    {
      "channel": 2,
      "note": 103,
      "start": 12.7523,
      "duration": 0.0899,
      "velocity": 103,
      "chip": "ym2612"
    },
    {
      "channel": 4,
      "note": 70,
      "start": 12.8472,
      "duration": 0.0938,
      "velocity": 101,
      "chip": "ym2612"
    },
    {
      "channel": 2,
      "note": 103,
      "start": 12.8487,
      "duration": 0.0889,
      "velocity": 103,
      "chip": "ym2612"
    },
    {
      "channel": 1,
      "note": 34,
      "start": 12.9406,
      "duration": 0.3807,
      "velocity": 86,
      "chip": "ym2612"
    },
    {
      "channel": 4,
      "note": 65,
      "start": 12.9415,
      "duration": 0.092,
      "velocity": 101,
      "chip": "ym2612"
    },
    {
      "channel": 2,
      "note": 35,
      "start": 12.9444,
      "duration": 0.0578,
      "velocity": 120,
      "chip": "ym2612"
    },
    {
      "channel": 4,
      "note": 70,
      "start": 13.0339,
      "duration": 0.0971,
      "velocity": 101,
      "chip": "ym2612"
    },
    {
      "channel": 4,
      "note": 72,
      "start": 13.1315,
      "duration": 0.0963,
      "velocity": 101,
      "chip": "ym2612"
    },
    {
      "channel": 2,
      "note": 103,
      "start": 13.1329,
      "duration": 0.0903,
      "velocity": 103,
      "chip": "ym2612"
    },
    {
      "channel": 4,
      "note": 73,
      "start": 13.2282,
      "duration": 0.0943,
      "velocity": 101,
      "chip": "ym2612"
    },
    {
      "channel": 2,
      "note": 103,
      "start": 13.2297,
      "duration": 0.0888,
      "velocity": 103,
      "chip": "ym2612"
    },
    {
      "channel": 1,
      "note": 46,
      "start": 13.3218,
      "duration": 0.1913,
      "velocity": 86,
      "chip": "ym2612"
    },
    {
      "channel": 4,
      "note": 77,
      "start": 13.323,
      "duration": 0.0915,
      "velocity": 101,
      "chip": "ym2612"
    },
    {
      "channel": 2,
      "note": 54,
      "start": 13.3246,
      "duration": 0.0909,
      "velocity": 117,
      "chip": "ym2612"
    },
    {
      "channel": 4,
      "note": 73,
      "start": 13.415,
      "duration": 0.099,
      "velocity": 101,
      "chip": "ym2612"
    },
    {
      "channel": 1,
      "note": 34,
      "start": 13.5135,
      "duration": 0.1894,
      "velocity": 86,
      "chip": "ym2612"
    },
    {
      "channel": 4,
      "note": 72,
      "start": 13.5144,
      "duration": 0.0929,
      "velocity": 101,
      "chip": "ym2612"
    },
    {
      "channel": 2,
      "note": 103,
      "start": 13.5159,
      "duration": 0.0884,
      "velocity": 103,
      "chip": "ym2612"
    },
    {
      "channel": 4,
      "note": 70,
      "start": 13.6078,
      "duration": 0.0967,
      "velocity": 101,
      "chip": "ym2612"
    },
    {
      "channel": 2,
      "note": 103,
      "start": 13.6108,
      "duration": 0.0888,
      "velocity": 103,
      "chip": "ym2612"
    },
    {
      "channel": 0,
      "note": 66,
      "start": 13.7024,
      "duration": 0.7615,
      "velocity": 83,
      "chip": "ym2612"
    },
    {
      "channel": 1,
      "note": 35,
      "start": 13.7033,
      "duration": 0.3797,
      "velocity": 86,
      "chip": "ym2612"
    },
    {
      "channel": 3,
      "note": 61,
      "start": 13.704,
      "duration": 0.7611,
      "velocity": 83,
      "chip": "ym2612"
    },
    {
      "channel": 4,
      "note": 66,
      "start": 13.7049,
      "duration": 0.0906,
      "velocity": 101,
      "chip": "ym2612"
    },
    {
      "channel": 2,
      "note": 35,
      "start": 13.7065,
      "duration": 0.0583,
      "velocity": 120,
      "chip": "ym2612"
    },
    {
      "channel": 5,
      "note": 66,
      "start": 13.7645,
      "duration": 0.763,
      "velocity": 83,
      "chip": "ym2612"
    },
    {
      "channel": 4,
      "note": 71,
      "start": 13.796,
      "duration": 0.0985,
      "velocity": 101,
      "chip": "ym2612"
    },
    {
      "channel": 4,
      "note": 73,
      "start": 13.8949,
      "duration": 0.0933,
      "velocity": 101,
      "chip": "ym2612"
    },
    {
      "channel": 2,
      "note": 103,
      "start": 13.8965,
      "duration": 0.0888,
      "velocity": 103,
      "chip": "ym2612"
    },
    {
      "channel": 4,
      "note": 74,
      "start": 13.9888,
      "duration": 0.0951,
      "velocity": 101,
      "chip": "ym2612"
    },
    {
      "channel": 2,
      "note": 103,
      "start": 13.9902,
      "duration": 0.0902,
      "velocity": 103,
      "chip": "ym2612"
    },
    {
      "channel": 1,
      "note": 47,
      "start": 14.0835,
      "duration": 0.1901,
      "velocity": 86,
      "chip": "ym2612"
    },
    {
      "channel": 4,
      "note": 78,
      "start": 14.0844,
      "duration": 0.0937,
      "velocity": 101,
      "chip": "ym2612"
    },
    {
      "channel": 2,
      "note": 54,
      "start": 14.0859,
      "duration": 0.0931,
      "velocity": 117,
      "chip": "ym2612"
    },
    {
      "channel": 4,
      "note": 74,
      "start": 14.1785,
      "duration": 0.0959,
      "velocity": 101,
      "chip": "ym2612"
    },
    {
      "channel": 1,
      "note": 35,
      "start": 14.274,
      "duration": 0.1905,
      "velocity": 86,
      "chip": "ym2612"
    },
    {
      "channel": 4,
      "note": 73,
      "start": 14.2749,
      "duration": 0.0944,
      "velocity": 101,
      "chip": "ym2612"
    },
    {
      "channel": 2,
      "note": 103,
      "start": 14.2778,
      "duration": 0.0884,
      "velocity": 103,
      "chip": "ym2612"
    },
    {
      "channel": 4,
      "note": 71,
      "start": 14.3698,
      "duration": 0.0959,
      "velocity": 101,
      "chip": "ym2612"
    },
    {
      "channel": 2,
      "note": 103,
      "start": 14.3713,
      "duration": 0.0903,
      "velocity": 103,
      "chip": "ym2612"
    },
    {
      "channel": 0,
      "note": 67,
      "start": 14.4644,
      "duration": 0.3819,
      "velocity": 83,
      "chip": "ym2612"
    },
    {
      "channel": 1,
      "note": 35,
      "start": 14.465,
      "duration": 0.3819,
      "velocity": 86,
      "chip": "ym2612"
    },
    {
      "channel": 3,
      "note": 61,
      "start": 14.4656,
      "duration": 0.3819,
      "velocity": 83,
      "chip": "ym2612"
    },
    {
      "channel": 4,
      "note": 66,
      "start": 14.4662,
      "duration": 0.0914,
      "velocity": 101,
      "chip": "ym2612"
    },
    {
      "channel": 2,
      "note": 35,
      "start": 14.4677,
      "duration": 0.0605,
      "velocity": 120,
      "chip": "ym2612"
    },
    {
      "channel": 5,
      "note": 67,
      "start": 14.528,
      "duration": 0.3791,
      "velocity": 83,
      "chip": "ym2612"
    },
    {
      "channel": 4,
      "note": 71,
      "start": 14.558,
      "duration": 0.097,
      "velocity": 101,
      "chip": "ym2612"
    },
    {
      "channel": 4,
      "note": 73,
      "start": 14.6556,
      "duration": 0.0948,
      "velocity": 101,
      "chip": "ym2612"
    },
    {
      "channel": 2,
      "note": 103,
      "start": 14.657,
      "duration": 0.0903,
      "velocity": 103,
      "chip": "ym2612"
    },
    {
      "channel": 4,
      "note": 74,
      "start": 14.7509,
      "duration": 0.0973,
      "velocity": 101,
      "chip": "ym2612"
    },
    {
      "channel": 2,
      "note": 103,
      "start": 14.7523,
      "duration": 0.0916,
      "velocity": 103,
      "chip": "ym2612"
    },
    {
      "channel": 0,
      "note": 69,
      "start": 14.8467,
      "duration": 0.2839,
      "velocity": 83,
      "chip": "ym2612"
    },
    {
      "channel": 1,
      "note": 47,
      "start": 14.8474,
      "duration": 0.1883,
      "velocity": 86,
      "chip": "ym2612"
    },
    {
      "channel": 3,
      "note": 61,
      "start": 14.848,
      "duration": 0.2834,
      "velocity": 83,
      "chip": "ym2612"
    },
    {
      "channel": 4,
      "note": 78,
      "start": 14.8486,
      "duration": 0.09,
      "velocity": 101,
      "chip": "ym2612"
    },
    {
      "channel": 2,
      "note": 54,
      "start": 14.8502,
      "duration": 0.0893,
      "velocity": 117,
      "chip": "ym2612"
    },
    {
      "channel": 5,
      "note": 69,
      "start": 14.9076,
      "duration": 0.2867,
      "velocity": 83,
      "chip": "ym2612"
    },
    {
      "channel": 4,
      "note": 74,
      "start": 14.939,
      "duration": 0.0975,
      "velocity": 101,
      "chip": "ym2612"
    },
    {
      "channel": 1,
      "note": 35,
      "start": 15.0361,
      "duration": 0.1921,
      "velocity": 86,
      "chip": "ym2612"
    },
    {
      "channel": 4,
      "note": 73,
      "start": 15.0369,
      "duration": 0.0951,
      "velocity": 101,
      "chip": "ym2612"
    },
    {
      "channel": 2,
      "note": 103,
      "start": 15.0385,
      "duration": 0.0898,
      "velocity": 103,
      "chip": "ym2612"
    },
    {
      "channel": 0,
      "note": 71,
      "start": 15.131,
      "duration": 0.0964,
      "velocity": 83,
      "chip": "ym2612"
    },
    {
      "channel": 3,
      "note": 61,
      "start": 15.1319,
      "duration": 0.0969,
      "velocity": 83,
      "chip": "ym2612"
    },
    {
      "channel": 4,
      "note": 71,
      "start": 15.1325,
      "duration": 0.097,
      "velocity": 101,
      "chip": "ym2612"
    },
    {
      "channel": 2,
      "note": 103,
      "start": 15.134,
      "duration": 0.0896,
      "velocity": 103,
      "chip": "ym2612"
    },
    {
      "channel": 5,
      "note": 71,
      "start": 15.1948,
      "duration": 0.0932,
      "velocity": 83,
      "chip": "ym2612"
    },
    {
      "channel": 0,
      "note": 71,
      "start": 15.228,
      "duration": 0.76,
      "velocity": 83,
      "chip": "ym2612"
    },
    {
      "channel": 1,
      "note": 35,
      "start": 15.2287,
      "duration": 0.3784,
      "velocity": 86,
      "chip": "ym2612"
    },
    {
      "channel": 3,
      "note": 66,
      "start": 15.2293,
      "duration": 0.7599,
      "velocity": 83,
      "chip": "ym2612"
    },
    {
      "channel": 4,
      "note": 66,
      "start": 15.23,
      "duration": 0.0896,
      "velocity": 101,
      "chip": "ym2612"
    },
    {
      "channel": 2,
      "note": 35,
      "start": 15.2315,
      "duration": 0.0573,
      "velocity": 120,
      "chip": "ym2612"
    },
    {
      "channel": 5,
      "note": 71,
      "start": 15.2885,
      "duration": 0.7616,
      "velocity": 83,
      "chip": "ym2612"
    },
    {
      "channel": 4,
      "note": 71,
      "start": 15.32,
      "duration": 0.0971,
      "velocity": 101,
      "chip": "ym2612"
    },
    {
      "channel": 4,
      "note": 73,
      "start": 15.4176,
      "duration": 0.0962,
      "velocity": 101,
      "chip": "ym2612"
    },
    {
      "channel": 2,
      "note": 103,
      "start": 15.419,
      "duration": 0.0917,
      "velocity": 103,
      "chip": "ym2612"
    },
    {
      "channel": 4,
      "note": 74,
      "start": 15.5143,
      "duration": 0.0936,
      "velocity": 101,
      "chip": "ym2612"
    },
    {
      "channel": 2,
      "note": 103,
      "start": 15.5157,
      "duration": 0.0888,
      "velocity": 103,
      "chip": "ym2612"
    },
    {
      "channel": 1,
      "note": 47,
      "start": 15.6075,
      "duration": 0.19,
      "velocity": 86,
      "chip": "ym2612"
    },
    {
      "channel": 4,
      "note": 78,
      "start": 15.6084,
      "duration": 0.0922,
      "velocity": 101,
      "chip": "ym2612"
    },
    {
      "channel": 2,
      "note": 54,
      "start": 15.6114,
      "duration": 0.0901,
      "velocity": 117,
      "chip": "ym2612"
    },
    {
      "channel": 4,
      "note": 74,
      "start": 15.701,
      "duration": 0.0973,
      "velocity": 101,
      "chip": "ym2612"
    },
    {
      "channel": 1,
      "note": 35,
      "start": 15.798,
      "duration": 0.1906,
      "velocity": 86,
      "chip": "ym2612"
    },
    {
      "channel": 4,
      "note": 73,
      "start": 15.7989,
      "duration": 0.096,
      "velocity": 101,
      "chip": "ym2612"
    },
    {
      "channel": 2,
      "note": 103,
      "start": 15.8003,
      "duration": 0.09,
      "velocity": 103,
      "chip": "ym2612"
    },
    {
      "channel": 4,
      "note": 71,
      "start": 15.8953,
      "duration": 0.0945,
      "velocity": 101,
      "chip": "ym2612"
    },
    {
      "channel": 2,
      "note": 103,
      "start": 15.8968,
      "duration": 0.0889,
      "velocity": 103,
      "chip": "ym2612"
    },
    {
      "channel": 0,
      "note": 66,
      "start": 15.9885,
      "duration": 1.714,
      "velocity": 83,
      "chip": "ym2612"
    },
    {
      "channel": 1,
      "note": 35,
      "start": 15.9891,
      "duration": 0.38,
      "velocity": 86,
      "chip": "ym2612"
    },
    {
      "channel": 3,
      "note": 59,
      "start": 15.9897,
      "duration": 1.7135,
      "velocity": 83,
      "chip": "ym2612"
    },
    {
      "channel": 4,
      "note": 66,
      "start": 15.9903,
      "duration": 0.0913,
      "velocity": 101,
      "chip": "ym2612"
    },
    {
      "channel": 2,
      "note": 35,
      "start": 15.9918,
      "duration": 0.059,
      "velocity": 120,
      "chip": "ym2612"
    },
    {
      "channel": 5,
      "note": 66,
      "start": 16.0505,
      "duration": 1.714,
      "velocity": 83,
      "chip": "ym2612"
    },
    {
      "channel": 4,
      "note": 71,
      "start": 16.0821,
      "duration": 0.0985,
      "velocity": 101,
      "chip": "ym2612"
    },
    {
      "channel": 4,
      "note": 73,
      "start": 16.1811,
      "duration": 0.0933,
      "velocity": 101,
      "chip": "ym2612"
    },
    {
      "channel": 2,
      "note": 103,
      "start": 16.1825,
      "duration": 0.0888,
      "velocity": 103,
      "chip": "ym2612"
    },
    {
      "channel": 4,
      "note": 74,
      "start": 16.2749,
      "duration": 0.0951,
      "velocity": 101,
      "chip": "ym2612"
    },
    {
      "channel": 2,
      "note": 103,
      "start": 16.2778,
      "duration": 0.0888,
      "velocity": 103,
      "chip": "ym2612"
    },
    {
      "channel": 1,
      "note": 47,
      "start": 16.3696,
      "duration": 0.1915,
      "velocity": 86,
      "chip": "ym2612"
    },
    {
      "channel": 4,
      "note": 78,
      "start": 16.3705,
      "duration": 0.0921,
      "velocity": 101,
      "chip": "ym2612"
    },
    {
      "channel": 2,
      "note": 54,
      "start": 16.372,
      "duration": 0.0915,
      "velocity": 117,
      "chip": "ym2612"
    },
    {
      "channel": 4,
      "note": 74,
      "start": 16.463,
      "duration": 0.099,
      "velocity": 101,
      "chip": "ym2612"
    },
    {
      "channel": 1,
      "note": 35,
      "start": 16.5616,
      "duration": 0.189,
      "velocity": 86,
      "chip": "ym2612"
    },
    {
      "channel": 4,
      "note": 73,
      "start": 16.5624,
      "duration": 0.0929,
      "velocity": 101,
      "chip": "ym2612"
    },
    {
      "channel": 2,
      "note": 103,
      "start": 16.564,
      "duration": 0.0883,
      "velocity": 103,
      "chip": "ym2612"
    },
    {
      "channel": 4,
      "note": 71,
      "start": 16.6559,
      "duration": 0.0961,
      "velocity": 101,
      "chip": "ym2612"
    },
    {
      "channel": 2,
      "note": 103,
      "start": 16.6573,
      "duration": 0.0903,
      "velocity": 103,
      "chip": "ym2612"
    },
    {
      "channel": 1,
      "note": 28,
      "start": 16.7511,
      "duration": 0.3801,
      "velocity": 86,
      "chip": "ym2612"
    },
    {
      "channel": 4,
      "note": 65,
      "start": 16.7524,
      "duration": 0.0924,
      "velocity": 101,
      "chip": "ym2612"
    },
    {
      "channel": 2,
      "note": 35,
      "start": 16.7539,
      "duration": 0.0587,
      "velocity": 120,
      "chip": "ym2612"
    },
    {
      "channel": 4,
      "note": 70,
      "start": 16.8453,
      "duration": 0.0958,
      "velocity": 101,
      "chip": "ym2612"
    },
    {
      "channel": 4,
      "note": 72,
      "start": 16.9416,
      "duration": 0.0948,
      "velocity": 101,
      "chip": "ym2612"
    },
    {
      "channel": 2,
      "note": 103,
      "start": 16.9446,
      "duration": 0.0888,
      "velocity": 103,
      "chip": "ym2612"
    },
    {
      "channel": 4,
      "note": 73,
      "start": 17.0369,
      "duration": 0.0951,
      "velocity": 101,
      "chip": "ym2612"
    },
    {
      "channel": 2,
      "note": 103,
      "start": 17.0383,
      "duration": 0.0903,
      "velocity": 103,
      "chip": "ym2612"
    },
    {
      "channel": 1,
      "note": 40,
      "start": 17.1317,
      "duration": 0.1899,
      "velocity": 86,
      "chip": "ym2612"
    },
    {
      "channel": 4,
      "note": 77,
      "start": 17.1325,
      "duration": 0.092,
      "velocity": 101,
      "chip": "ym2612"
    },
    {
      "channel": 2,
      "note": 54,
      "start": 17.1341,
      "duration": 0.0915,
      "velocity": 117,
      "chip": "ym2612"
    },
    {
      "channel": 4,
      "note": 73,
      "start": 17.225,
      "duration": 0.0974,
      "velocity": 101,
      "chip": "ym2612"
    },
    {
      "channel": 1,
      "note": 28,
      "start": 17.322,
      "duration": 0.1917,
      "velocity": 86,
      "chip": "ym2612"
    },
    {
      "channel": 4,
      "note": 72,
      "start": 17.3229,
      "duration": 0.0945,
      "velocity": 101,
      "chip": "ym2612"
    },
    {
      "channel": 2,
      "note": 103,
      "start": 17.3244,
      "duration": 0.09,
      "velocity": 103,
      "chip": "ym2612"
    },
    {
      "channel": 4,
      "note": 70,
      "start": 17.4179,
      "duration": 0.097,
      "velocity": 101,
      "chip": "ym2612"
    },
    {
      "channel": 2,
      "note": 103,
      "start": 17.4194,
      "duration": 0.0915,
      "velocity": 103,
      "chip": "ym2612"
    },
    {
      "channel": 1,
      "note": 28,
      "start": 17.5142,
      "duration": 0.3808,
      "velocity": 86,
      "chip": "ym2612"
    },
    {
      "channel": 4,
      "note": 64,
      "start": 17.5154,
      "duration": 0.0903,
      "velocity": 101,
      "chip": "ym2612"
    },
    {
      "channel": 2,
      "note": 35,
      "start": 17.5168,
      "duration": 0.0578,
      "velocity": 120,
      "chip": "ym2612"
    },
    {
      "channel": 4,
      "note": 69,
      "start": 17.6061,
      "duration": 0.0978,
      "velocity": 101,
      "chip": "ym2612"
    },
    {
      "channel": 0,
      "note": 61,
      "start": 17.7029,
      "duration": 0.1915,
      "velocity": 83,
      "chip": "ym2612"
    },
    {
      "channel": 3,
      "note": 55,
      "start": 17.7038,
      "duration": 0.1918,
      "velocity": 83,
      "chip": "ym2612"
    },
    {
      "channel": 4,
      "note": 71,
      "start": 17.7044,
      "duration": 0.0941,
      "velocity": 101,
      "chip": "ym2612"
    },
    {
      "channel": 2,
      "note": 103,
      "start": 17.7058,
      "duration": 0.0896,
      "velocity": 103,
      "chip": "ym2612"
    },
    {
      "channel": 5,
      "note": 61,
      "start": 17.765,
      "duration": 0.1901,
      "velocity": 83,
      "chip": "ym2612"
    },
    {
      "channel": 4,
      "note": 72,
      "start": 17.7989,
      "duration": 0.0973,
      "velocity": 101,
      "chip": "ym2612"
    },
    {
      "channel": 2,
      "note": 103,
      "start": 17.8003,
      "duration": 0.0902,
      "velocity": 103,
      "chip": "ym2612"
    },
    {
      "channel": 0,
      "note": 60,
      "start": 17.8948,
      "duration": 0.1885,
      "velocity": 83,
      "chip": "ym2612"
    },
    {
      "channel": 1,
      "note": 40,
      "start": 17.8954,
      "duration": 0.1885,
      "velocity": 86,
      "chip": "ym2612"
    },
    {
      "channel": 3,
      "note": 55,
      "start": 17.8961,
      "duration": 0.1885,
      "velocity": 83,
      "chip": "ym2612"
    },
    {
      "channel": 4,
      "note": 76,
      "start": 17.8967,
      "duration": 0.09,
      "velocity": 101,
      "chip": "ym2612"
    },
    {
      "channel": 2,
      "note": 54,
      "start": 17.8983,
      "duration": 0.0894,
      "velocity": 117,
      "chip": "ym2612"
    },
    {
      "channel": 5,
      "note": 60,
      "start": 17.9556,
      "duration": 0.19,
      "velocity": 83,
      "chip": "ym2612"
    },
    {
      "channel": 4,
      "note": 72,
      "start": 17.9871,
      "duration": 0.098,
      "velocity": 101,
      "chip": "ym2612"
    },
    {
      "channel": 0,
      "note": 58,
      "start": 18.0838,
      "duration": 0.1901,
      "velocity": 83,
      "chip": "ym2612"
    },
    {
      "channel": 1,
      "note": 28,
      "start": 18.0844,
      "duration": 0.1902,
      "velocity": 86,
      "chip": "ym2612"
    },
    {
      "channel": 3,
      "note": 55,
      "start": 18.085,
      "duration": 0.1901,
      "velocity": 83,
      "chip": "ym2612"
    },
    {
      "channel": 4,
      "note": 71,
      "start": 18.0856,
      "duration": 0.0949,
      "velocity": 101,
      "chip": "ym2612"
    },
    {
      "channel": 2,
      "note": 103,
      "start": 18.0871,
      "duration": 0.0903,
      "velocity": 103,
      "chip": "ym2612"
    },
    {
      "channel": 5,
      "note": 58,
      "start": 18.146,
      "duration": 0.1901,
      "velocity": 83,
      "chip": "ym2612"
    },
    {
      "channel": 4,
      "note": 69,
      "start": 18.181,
      "duration": 0.0962,
      "velocity": 101,
      "chip": "ym2612"
    },
    {
      "channel": 2,
      "note": 103,
      "start": 18.1825,
      "duration": 0.0891,
      "velocity": 103,
      "chip": "ym2612"
    },
    {
      "channel": 0,
      "note": 58,
      "start": 18.2744,
      "duration": 0.7616,
      "velocity": 83,
      "chip": "ym2612"
    },
    {
      "channel": 1,
      "note": 29,
      "start": 18.275,
      "duration": 0.3802,
      "velocity": 86,
      "chip": "ym2612"
    },
    {
      "channel": 3,
      "note": 53,
      "start": 18.2771,
      "duration": 0.7601,
      "velocity": 83,
      "chip": "ym2612"
    },
    {
      "channel": 4,
      "note": 65,
      "start": 18.2778,
      "duration": 0.0898,
      "velocity": 101,
      "chip": "ym2612"
    },
    {
      "channel": 2,
      "note": 35,
      "start": 18.2792,
      "duration": 0.0576,
      "velocity": 120,
      "chip": "ym2612"
    },
    {
      "channel": 5,
      "note": 58,
      "start": 18.3367,
      "duration": 0.7615,
      "velocity": 83,
      "chip": "ym2612"
    },
    {
      "channel": 4,
      "note": 70,
      "start": 18.368,
      "duration": 0.0974,
      "velocity": 101,
      "chip": "ym2612"
    },
    {
      "channel": 4,
      "note": 72,
      "start": 18.4659,
      "duration": 0.0959,
      "velocity": 101,
      "chip": "ym2612"
    },
    {
      "channel": 2,
      "note": 103,
      "start": 18.4674,
      "duration": 0.0899,
      "velocity": 103,
      "chip": "ym2612"
    },
    {
      "channel": 4,
      "note": 73,
      "start": 18.5623,
      "duration": 0.0938,
      "velocity": 101,
      "chip": "ym2612"
    },
    {
      "channel": 2,
      "note": 103,
      "start": 18.5638,
      "duration": 0.0889,
      "velocity": 103,
      "chip": "ym2612"
    },
    {
      "channel": 1,
      "note": 41,
      "start": 18.6556,
      "duration": 0.1911,
      "velocity": 86,
      "chip": "ym2612"
    },
    {
      "channel": 4,
      "note": 77,
      "start": 18.6565,
      "duration": 0.0922,
      "velocity": 101,
      "chip": "ym2612"
    },
    {
      "channel": 2,
      "note": 54,
      "start": 18.658,
      "duration": 0.0916,
      "velocity": 117,
      "chip": "ym2612"
    },
    {
      "channel": 4,
      "note": 73,
      "start": 18.7491,
      "duration": 0.0984,
      "velocity": 101,
      "chip": "ym2612"
    },
    {
      "channel": 1,
      "note": 29,
      "start": 18.8472,
      "duration": 0.1894,
      "velocity": 86,
      "chip": "ym2612"
    },
    {
      "channel": 4,
      "note": 72,
      "start": 18.848,
      "duration": 0.0933,
      "velocity": 101,
      "chip": "ym2612"
    },
    {
      "channel": 2,
      "note": 103,
      "start": 18.8495,
      "duration": 0.0887,
      "velocity": 103,
      "chip": "ym2612"
    },
    {
      "channel": 4,
      "note": 70,
      "start": 18.9418,
      "duration": 0.096,
      "velocity": 101,
      "chip": "ym2612"
    },
    {
      "channel": 2,
      "note": 103,
      "start": 18.9448,
      "duration": 0.0889,
      "velocity": 103,
      "chip": "ym2612"
    },
    {
      "channel": 0,
      "note": 57,
      "start": 19.0364,
      "duration": 0.7618,
      "velocity": 83,
      "chip": "ym2612"
    },
    {
      "channel": 1,
      "note": 29,
      "start": 19.0371,
      "duration": 0.3802,
      "velocity": 86,
      "chip": "ym2612"
    },
    {
      "channel": 3,
      "note": 53,
      "start": 19.0377,
      "duration": 0.7619,
      "velocity": 83,
      "chip": "ym2612"
    },
    {
      "channel": 4,
      "note": 65,
      "start": 19.0383,
      "duration": 0.0914,
      "velocity": 101,
      "chip": "ym2612"
    },
    {
      "channel": 2,
      "note": 35,
      "start": 19.0398,
      "duration": 0.059,
      "velocity": 120,
      "chip": "ym2612"
    },
    {
      "channel": 5,
      "note": 57,
      "start": 19.0986,
      "duration": 0.7632,
      "velocity": 83,
      "chip": "ym2612"
    },
    {
      "channel": 4,
      "note": 72,
      "start": 19.1301,
      "duration": 0.0986,
      "velocity": 101,
      "chip": "ym2612"
    },
    {
      "channel": 4,
      "note": 73,
      "start": 19.2292,
      "duration": 0.091,
      "velocity": 101,
      "chip": "ym2612"
    },
    {
      "channel": 2,
      "note": 35,
      "start": 19.2306,
      "duration": 0.0583,
      "velocity": 120,
      "chip": "ym2612"
    },
    {
      "channel": 4,
      "note": 75,
      "start": 19.3206,
      "duration": 0.0975,
      "velocity": 101,
      "chip": "ym2612"
    },
    {
      "channel": 1,
      "note": 41,
      "start": 19.4176,
      "duration": 0.19,
      "velocity": 86,
      "chip": "ym2612"
    },
    {
      "channel": 4,
      "note": 77,
      "start": 19.4185,
      "duration": 0.0954,
      "velocity": 101,
      "chip": "ym2612"
    },
    {
      "channel": 2,
      "note": 57,
      "start": 19.4201,
      "duration": 0.0907,
      "velocity": 111,
      "chip": "ym2612"
    },
    {
      "channel": 4,
      "note": 75,
      "start": 19.5144,
      "duration": 0.0941,
      "velocity": 101,
      "chip": "ym2612"
    },
    {
      "channel": 2,
      "note": 57,
      "start": 19.5159,
      "duration": 0.0892,
      "velocity": 111,
      "chip": "ym2612"
    },
    {
      "channel": 1,
      "note": 29,
      "start": 19.6081,
      "duration": 0.1908,
      "velocity": 86,
      "chip": "ym2612"
    },
    {
      "channel": 4,
      "note": 73,
      "start": 19.6105,
      "duration": 0.093,
      "velocity": 101,
      "chip": "ym2612"
    },
    {
      "channel": 2,
      "note": 55,
      "start": 19.612,
      "duration": 0.0883,
      "velocity": 111,
      "chip": "ym2612"
    },
    {
      "channel": 4,
      "note": 72,
      "start": 19.7039,
      "duration": 0.0964,
      "velocity": 101,
      "chip": "ym2612"
    },
    {
      "channel": 2,
      "note": 45,
      "start": 19.7054,
      "duration": 0.0903,
      "velocity": 111,
      "chip": "ym2612"
    },
    {
      "channel": 0,
      "note": 58,
      "start": 19.7986,
      "duration": 0.7629,
      "velocity": 83,
      "chip": "ym2612"
    },
    {
      "channel": 1,
      "note": 34,
      "start": 19.7993,
      "duration": 0.3807,
      "velocity": 86,
      "chip": "ym2612"
    },
    {
      "channel": 3,
      "note": 49,
      "start": 19.8001,
      "duration": 0.7627,
      "velocity": 83,
      "chip": "ym2612"
    },
    {
      "channel": 4,
      "note": 65,
      "start": 19.8008,
      "duration": 0.0908,
      "velocity": 101,
      "chip": "ym2612"
    },
    {
      "channel": 2,
      "note": 35,
      "start": 19.8023,
      "duration": 0.0601,
      "velocity": 120,
      "chip": "ym2612"
    },
    {
      "channel": 5,
      "note": 58,
      "start": 19.8622,
      "duration": 0.7599,
      "velocity": 83,
      "chip": "ym2612"
    },
    {
      "channel": 4,
      "note": 70,
      "start": 19.8921,
      "duration": 0.0971,
      "velocity": 101,
      "chip": "ym2612"
    },
    {
      "channel": 4,
      "note": 72,
      "start": 19.9897,
      "duration": 0.0947,
      "velocity": 101,
      "chip": "ym2612"
    },
    {
      "channel": 2,
      "note": 103,
      "start": 19.9911,
      "duration": 0.0902,
      "velocity": 103,
      "chip": "ym2612"
    },
    {
      "channel": 4,
      "note": 73,
      "start": 20.0849,
      "duration": 0.096,
      "velocity": 101,
      "chip": "ym2612"
    },
    {
      "channel": 2,
      "note": 103,
      "start": 20.0863,
      "duration": 0.0911,
      "velocity": 103,
      "chip": "ym2612"
    },
    {
      "channel": 1,
      "note": 46,
      "start": 20.1805,
      "duration": 0.1892,
      "velocity": 86,
      "chip": "ym2612"
    },
    {
      "channel": 4,
      "note": 77,
      "start": 20.1814,
      "duration": 0.0913,
      "velocity": 101,
      "chip": "ym2612"
    },
    {
      "channel": 2,
      "note": 54,
      "start": 20.1829,
      "duration": 0.0908,
      "velocity": 117,
      "chip": "ym2612"
    },
    {
      "channel": 4,
      "note": 73,
      "start": 20.2731,
      "duration": 0.0974,
      "velocity": 101,
      "chip": "ym2612"
    },
    {
      "channel": 1,
      "note": 34,
      "start": 20.3701,
      "duration": 0.192,
      "velocity": 86,
      "chip": "ym2612"
    },
    {
      "channel": 4,
      "note": 72,
      "start": 20.371,
      "duration": 0.0945,
      "velocity": 101,
      "chip": "ym2612"
    },
    {
      "channel": 2,
      "note": 103,
      "start": 20.3725,
      "duration": 0.0899,
      "velocity": 103,
      "chip": "ym2612"
    },
    {
      "channel": 4,
      "note": 70,
      "start": 20.4659,
      "duration": 0.0974,
      "velocity": 101,
      "chip": "ym2612"
    },
    {
      "channel": 2,
      "note": 103,
      "start": 20.4674,
      "duration": 0.0903,
      "velocity": 103,
      "chip": "ym2612"
    },
    {
      "channel": 0,
      "note": 60,
      "start": 20.562,
      "duration": 0.7601,
      "velocity": 83,
      "chip": "ym2612"
    },
    {
      "channel": 1,
      "note": 34,
      "start": 20.5626,
      "duration": 0.3786,
      "velocity": 86,
      "chip": "ym2612"
    },
    {
      "channel": 3,
      "note": 51,
      "start": 20.5633,
      "duration": 0.7602,
      "velocity": 83,
      "chip": "ym2612"
    },
    {
      "channel": 4,
      "note": 65,
      "start": 20.5638,
      "duration": 0.0898,
      "velocity": 101,
      "chip": "ym2612"
    },
    {
      "channel": 2,
      "note": 35,
      "start": 20.5654,
      "duration": 0.0575,
      "velocity": 120,
      "chip": "ym2612"
    },
    {
      "channel": 5,
      "note": 60,
      "start": 20.6225,
      "duration": 0.7617,
      "velocity": 83,
      "chip": "ym2612"
    },
    {
      "channel": 4,
      "note": 70,
      "start": 20.6541,
      "duration": 0.0971,
      "velocity": 101,
      "chip": "ym2612"
    },
    {
      "channel": 4,
      "note": 72,
      "start": 20.7516,
      "duration": 0.0956,
      "velocity": 101,
      "chip": "ym2612"
    },
    {
      "channel": 2,
      "note": 103,
      "start": 20.7531,
      "duration": 0.0911,
      "velocity": 103,
      "chip": "ym2612"
    },
    {
      "channel": 4,
      "note": 73,
      "start": 20.8477,
      "duration": 0.0944,
      "velocity": 101,
      "chip": "ym2612"
    },
    {
      "channel": 2,
      "note": 103,
      "start": 20.8492,
      "duration": 0.0894,
      "velocity": 103,
      "chip": "ym2612"
    },
    {
      "channel": 1,
      "note": 46,
      "start": 20.9417,
      "duration": 0.19,
      "velocity": 86,
      "chip": "ym2612"
    },
    {
      "channel": 4,
      "note": 77,
      "start": 20.9441,
      "duration": 0.0906,
      "velocity": 101,
      "chip": "ym2612"
    },
    {
      "channel": 2,
      "note": 54,
      "start": 20.9456,
      "duration": 0.09,
      "velocity": 117,
      "chip": "ym2612"
    },
    {
      "channel": 4,
      "note": 73,
      "start": 21.0351,
      "duration": 0.0975,
      "velocity": 101,
      "chip": "ym2612"
    },
    {
      "channel": 1,
      "note": 34,
      "start": 21.1322,
      "duration": 0.1907,
      "velocity": 86,
      "chip": "ym2612"
    },
    {
      "channel": 4,
      "note": 72,
      "start": 21.133,
      "duration": 0.0959,
      "velocity": 101,
      "chip": "ym2612"
    },
    {
      "channel": 2,
      "note": 103,
      "start": 21.1345,
      "duration": 0.0899,
      "velocity": 103,
      "chip": "ym2612"
    },
    {
      "channel": 4,
      "note": 70,
      "start": 21.2294,
      "duration": 0.0947,
      "velocity": 101,
      "chip": "ym2612"
    },
    {
      "channel": 2,
      "note": 103,
      "start": 21.2309,
      "duration": 0.0889,
      "velocity": 103,
      "chip": "ym2612"
    },
    {
      "channel": 0,
      "note": 61,
      "start": 21.3225,
      "duration": 1.1425,
      "velocity": 83,
      "chip": "ym2612"
    },
    {
      "channel": 1,
      "note": 34,
      "start": 21.3233,
      "duration": 0.38,
      "velocity": 86,
      "chip": "ym2612"
    },
    {
      "channel": 3,
      "note": 53,
      "start": 21.3239,
      "duration": 1.1423,
      "velocity": 83,
      "chip": "ym2612"
    },
    {
      "channel": 4,
      "note": 65,
      "start": 21.3246,
      "duration": 0.091,
      "velocity": 101,
      "chip": "ym2612"
    },
    {
      "channel": 2,
      "note": 35,
      "start": 21.3276,
      "duration": 0.0573,
      "velocity": 120,
      "chip": "ym2612"
    },
    {
      "channel": 5,
      "note": 61,
      "start": 21.3847,
      "duration": 1.1438,
      "velocity": 83,
      "chip": "ym2612"
    },
    {
      "channel": 4,
      "note": 70,
      "start": 21.4162,
      "duration": 0.0977,
      "velocity": 101,
      "chip": "ym2612"
    },
    {
      "channel": 4,
      "note": 72,
      "start": 21.5144,
      "duration": 0.0941,
      "velocity": 101,
      "chip": "ym2612"
    },
    {
      "channel": 2,
      "note": 103,
      "start": 21.5159,
      "duration": 0.0896,
      "velocity": 103,
      "chip": "ym2612"
    },
    {
      "channel": 4,
      "note": 73,
      "start": 21.6105,
      "duration": 0.0937,
      "velocity": 101,
      "chip": "ym2612"
    },
    {
      "channel": 2,
      "note": 103,
      "start": 21.6119,
      "duration": 0.0887,
      "velocity": 103,
      "chip": "ym2612"
    },
    {
      "channel": 1,
      "note": 46,
      "start": 21.7037,
      "duration": 0.1915,
      "velocity": 86,
      "chip": "ym2612"
    },
    {
      "channel": 4,
      "note": 77,
      "start": 21.7046,
      "duration": 0.0923,
      "velocity": 101,
      "chip": "ym2612"
    },
    {
      "channel": 2,
      "note": 54,
      "start": 21.7061,
      "duration": 0.0918,
      "velocity": 117,
      "chip": "ym2612"
    },
    {
      "channel": 4,
      "note": 73,
      "start": 21.7974,
      "duration": 0.0986,
      "velocity": 101,
      "chip": "ym2612"
    },
    {
      "channel": 1,
      "note": 34,
      "start": 21.8956,
      "duration": 0.1887,
      "velocity": 86,
      "chip": "ym2612"
    },
    {
      "channel": 4,
      "note": 72,
      "start": 21.8965,
      "duration": 0.093,
      "velocity": 101,
      "chip": "ym2612"
    },
    {
      "channel": 2,
      "note": 103,
      "start": 21.898,
      "duration": 0.0885,
      "velocity": 103,
      "chip": "ym2612"
    },
    {
      "channel": 4,
      "note": 70,
      "start": 21.99,
      "duration": 0.0952,
      "velocity": 101,
      "chip": "ym2612"
    },
    {
      "channel": 2,
      "note": 103,
      "start": 21.9915,
      "duration": 0.0903,
      "velocity": 103,
      "chip": "ym2612"
    },
    {
      "channel": 1,
      "note": 34,
      "start": 22.0848,
      "duration": 0.3808,
      "velocity": 86,
      "chip": "ym2612"
    },
    {
      "channel": 4,
      "note": 65,
      "start": 22.0857,
      "duration": 0.0926,
      "velocity": 101,
      "chip": "ym2612"
    },
    {
      "channel": 2,
      "note": 35,
      "start": 22.0872,
      "duration": 0.0593,
      "velocity": 120,
      "chip": "ym2612"
    },
    {
      "channel": 4,
      "note": 70,
      "start": 22.1787,
      "duration": 0.0965,
      "velocity": 101,
      "chip": "ym2612"
    },
    {
      "channel": 4,
      "note": 72,
      "start": 22.2771,
      "duration": 0.0933,
      "velocity": 101,
      "chip": "ym2612"
    },
    {
      "channel": 2,
      "note": 103,
      "start": 22.2786,
      "duration": 0.0888,
      "velocity": 103,
      "chip": "ym2612"
    },
    {
      "channel": 4,
      "note": 73,
      "start": 22.371,
      "duration": 0.0959,
      "velocity": 101,
      "chip": "ym2612"
    },
    {
      "channel": 2,
      "note": 103,
      "start": 22.3724,
      "duration": 0.0903,
      "velocity": 103,
      "chip": "ym2612"
    },
    {
      "channel": 0,
      "note": 63,
      "start": 22.4655,
      "duration": 0.3811,
      "velocity": 83,
      "chip": "ym2612"
    },
    {
      "channel": 1,
      "note": 46,
      "start": 22.4661,
      "duration": 0.1896,
      "velocity": 86,
      "chip": "ym2612"
    },
    {
      "channel": 3,
      "note": 54,
      "start": 22.4668,
      "duration": 0.3811,
      "velocity": 83,
      "chip": "ym2612"
    },
    {
      "channel": 4,
      "note": 77,
      "start": 22.4673,
      "duration": 0.0914,
      "velocity": 101,
      "chip": "ym2612"
    },
    {
      "channel": 2,
      "note": 54,
      "start": 22.4689,
      "duration": 0.0922,
      "velocity": 117,
      "chip": "ym2612"
    },
    {
      "channel": 5,
      "note": 63,
      "start": 22.5289,
      "duration": 0.3793,
      "velocity": 83,
      "chip": "ym2612"
    },
    {
      "channel": 4,
      "note": 73,
      "start": 22.5606,
      "duration": 0.0959,
      "velocity": 101,
      "chip": "ym2612"
    },
    {
      "channel": 1,
      "note": 34,
      "start": 22.6561,
      "duration": 0.1912,
      "velocity": 86,
      "chip": "ym2612"
    },
    {
      "channel": 4,
      "note": 72,
      "start": 22.657,
      "duration": 0.0944,
      "velocity": 101,
      "chip": "ym2612"
    },
    {
      "channel": 2,
      "note": 103,
      "start": 22.6585,
      "duration": 0.0899,
      "velocity": 103,
      "chip": "ym2612"
    },
    {
      "channel": 4,
      "note": 70,
      "start": 22.752,
      "duration": 0.0967,
      "velocity": 101,
      "chip": "ym2612"
    },
    {
      "channel": 2,
      "note": 103,
      "start": 22.7534,
      "duration": 0.0908,
      "velocity": 103,
      "chip": "ym2612"
    },
    {
      "channel": 0,
      "note": 65,
      "start": 22.8471,
      "duration": 1.142,
      "velocity": 83,
      "chip": "ym2612"
    },
    {
      "channel": 1,
      "note": 34,
      "start": 22.8477,
      "duration": 0.381,
      "velocity": 86,
      "chip": "ym2612"
    },
    {
      "channel": 3,
      "note": 58,
      "start": 22.8484,
      "duration": 1.1419,
      "velocity": 83,
      "chip": "ym2612"
    },
    {
      "channel": 4,
      "note": 65,
      "start": 22.8491,
      "duration": 0.0907,
      "velocity": 101,
      "chip": "ym2612"
    },
    {
      "channel": 2,
      "note": 35,
      "start": 22.8505,
      "duration": 0.0599,
      "velocity": 120,
      "chip": "ym2612"
    },
    {
      "channel": 5,
      "note": 65,
      "start": 22.9088,
      "duration": 1.1425,
      "velocity": 83,
      "chip": "ym2612"
    },
    {
      "channel": 4,
      "note": 70,
      "start": 22.9402,
      "duration": 0.0971,
      "velocity": 101,
      "chip": "ym2612"
    },
    {
      "channel": 4,
      "note": 72,
      "start": 23.0377,
      "duration": 0.0948,
      "velocity": 101,
      "chip": "ym2612"
    },
    {
      "channel": 2,
      "note": 103,
      "start": 23.0392,
      "duration": 0.0902,
      "velocity": 103,
      "chip": "ym2612"
    },
    {
      "channel": 4,
      "note": 73,
      "start": 23.133,
      "duration": 0.0966,
      "velocity": 101,
      "chip": "ym2612"
    },
    {
      "channel": 2,
      "note": 103,
      "start": 23.1344,
      "duration": 0.0903,
      "velocity": 103,
      "chip": "ym2612"
    },
    {
      "channel": 1,
      "note": 46,
      "start": 23.2292,
      "duration": 0.1885,
      "velocity": 86,
      "chip": "ym2612"
    },
    {
      "channel": 4,
      "note": 77,
      "start": 23.2301,
      "duration": 0.0907,
      "velocity": 101,
      "chip": "ym2612"
    },
    {
      "channel": 2,
      "note": 54,
      "start": 23.2317,
      "duration": 0.0901,
      "velocity": 117,
      "chip": "ym2612"
    },
    {
      "channel": 4,
      "note": 73,
      "start": 23.3212,
      "duration": 0.0974,
      "velocity": 101,
      "chip": "ym2612"
    },
    {
      "channel": 1,
      "note": 34,
      "start": 23.4182,
      "duration": 0.1902,
      "velocity": 86,
      "chip": "ym2612"
    },
    {
      "channel": 4,
      "note": 72,
      "start": 23.419,
      "duration": 0.0949,
      "velocity": 101,
      "chip": "ym2612"
    },
    {
      "channel": 2,
      "note": 103,
      "start": 23.4206,
      "duration": 0.0902,
      "velocity": 103,
      "chip": "ym2612"
    },
    {
      "channel": 4,
      "note": 70,
      "start": 23.5144,
      "duration": 0.0964,
      "velocity": 101,
      "chip": "ym2612"
    },
    {
      "channel": 2,
      "note": 103,
      "start": 23.5158,
      "duration": 0.09,
      "velocity": 103,
      "chip": "ym2612"
    },
    {
      "channel": 1,
      "note": 34,
      "start": 23.6104,
      "duration": 0.3793,
      "velocity": 86,
      "chip": "ym2612"
    },
    {
      "channel": 4,
      "note": 65,
      "start": 23.6112,
      "duration": 0.0905,
      "velocity": 101,
      "chip": "ym2612"
    },
    {
      "channel": 2,
      "note": 35,
      "start": 23.6127,
      "duration": 0.0579,
      "velocity": 120,
      "chip": "ym2612"
    },
    {
      "channel": 4,
      "note": 70,
      "start": 23.7023,
      "duration": 0.0971,
      "velocity": 101,
      "chip": "ym2612"
    },
    {
      "channel": 4,
      "note": 72,
      "start": 23.7998,
      "duration": 0.0963,
      "velocity": 101,
      "chip": "ym2612"
    },
    {
      "channel": 2,
      "note": 103,
      "start": 23.8012,
      "duration": 0.0902,
      "velocity": 103,
      "chip": "ym2612"
    },
    {
      "channel": 4,
      "note": 73,
      "start": 23.8965,
      "duration": 0.0945,
      "velocity": 101,
      "chip": "ym2612"
    },
    {
      "channel": 2,
      "note": 103,
      "start": 23.898,
      "duration": 0.0887,
      "velocity": 103,
      "chip": "ym2612"
    },
    {
      "channel": 0,
      "note": 66,
      "start": 23.9895,
      "duration": 0.3805,
      "velocity": 83,
      "chip": "ym2612"
    },
    {
      "channel": 1,
      "note": 46,
      "start": 23.9902,
      "duration": 0.1899,
      "velocity": 86,
      "chip": "ym2612"
    },
    {
      "channel": 3,
      "note": 60,
      "start": 23.9908,
      "duration": 0.3806,
      "velocity": 83,
      "chip": "ym2612"
    },
    {
      "channel": 4,
      "note": 77,
      "start": 23.9914,
      "duration": 0.0913,
      "velocity": 101,
      "chip": "ym2612"
    },
    {
      "channel": 2,
      "note": 54,
      "start": 23.9944,
      "duration": 0.0893,
      "velocity": 117,
      "chip": "ym2612"
    },
    {
      "channel": 5,
      "note": 66,
      "start": 24.0517,
      "duration": 0.3805,
      "velocity": 83,
      "chip": "ym2612"
    },
    {
      "channel": 4,
      "note": 73,
      "start": 24.0832,
      "duration": 0.0977,
      "velocity": 101,
      "chip": "ym2612"
    },
    {
      "channel": 1,
      "note": 34,
      "start": 24.1805,
      "duration": 0.1903,
      "velocity": 86,
      "chip": "ym2612"
    },
    {
      "channel": 4,
      "note": 72,
      "start": 24.1813,
      "duration": 0.0942,
      "velocity": 101,
      "chip": "ym2612"
    },
    {
      "channel": 2,
      "note": 103,
      "start": 24.1829,
      "duration": 0.0896,
      "velocity": 103,
      "chip": "ym2612"
    },
    {
      "channel": 4,
      "note": 70,
      "start": 24.2774,
      "duration": 0.0947,
      "velocity": 101,
      "chip": "ym2612"
    },
    {
      "channel": 2,
      "note": 103,
      "start": 24.2789,
      "duration": 0.0889,
      "velocity": 103,
      "chip": "ym2612"
    },
    {
      "channel": 0,
      "note": 65,
      "start": 24.3705,
      "duration": 1.1427,
      "velocity": 83,
      "chip": "ym2612"
    },
    {
      "channel": 1,
      "note": 34,
      "start": 24.3712,
      "duration": 0.3801,
      "velocity": 86,
      "chip": "ym2612"
    },
    {
      "channel": 3,
      "note": 58,
      "start": 24.3719,
      "duration": 1.1425,
      "velocity": 83,
      "chip": "ym2612"
    },
    {
      "channel": 4,
      "note": 65,
      "start": 24.3725,
      "duration": 0.0912,
      "velocity": 101,
      "chip": "ym2612"
    },
    {
      "channel": 2,
      "note": 35,
      "start": 24.3741,
      "duration": 0.0588,
      "velocity": 120,
      "chip": "ym2612"
    },
    {
      "channel": 5,
      "note": 65,
      "start": 24.4327,
      "duration": 1.1426,
      "velocity": 83,
      "chip": "ym2612"
    },
    {
      "channel": 4,
      "note": 70,
      "start": 24.4642,
      "duration": 0.0985,
      "velocity": 101,
      "chip": "ym2612"
    },
    {
      "channel": 4,
      "note": 72,
      "start": 24.5632,
      "duration": 0.0933,
      "velocity": 101,
      "chip": "ym2612"
    },
    {
      "channel": 2,
      "note": 103,
      "start": 24.5647,
      "duration": 0.0888,
      "velocity": 103,
      "chip": "ym2612"
    },
    {
      "channel": 4,
      "note": 73,
      "start": 24.657,
      "duration": 0.0951,
      "velocity": 101,
      "chip": "ym2612"
    },
    {
      "channel": 2,
      "note": 103,
      "start": 24.6585,
      "duration": 0.0902,
      "velocity": 103,
      "chip": "ym2612"
    },
    {
      "channel": 1,
      "note": 46,
      "start": 24.7517,
      "duration": 0.1901,
      "velocity": 86,
      "chip": "ym2612"
    },
    {
      "channel": 4,
      "note": 77,
      "start": 24.7526,
      "duration": 0.0923,
      "velocity": 101,
      "chip": "ym2612"
    },
    {
      "channel": 2,
      "note": 54,
      "start": 24.7542,
      "duration": 0.0917,
      "velocity": 117,
      "chip": "ym2612"
    },
    {
      "channel": 4,
      "note": 73,
      "start": 24.8454,
      "duration": 0.0987,
      "velocity": 101,
      "chip": "ym2612"
    },
    {
      "channel": 1,
      "note": 34,
      "start": 24.9437,
      "duration": 0.1888,
      "velocity": 86,
      "chip": "ym2612"
    },
    {
      "channel": 4,
      "note": 72,
      "start": 24.9446,
      "duration": 0.0929,
      "velocity": 101,
      "chip": "ym2612"
    },
    {
      "channel": 2,
      "note": 103,
      "start": 24.9461,
      "duration": 0.0884,
      "velocity": 103,
      "chip": "ym2612"
    },
    {
      "channel": 4,
      "note": 70,
      "start": 25.038,
      "duration": 0.0954,
      "velocity": 101,
      "chip": "ym2612"
    },
    {
      "channel": 2,
      "note": 103,
      "start": 25.0395,
      "duration": 0.0905,
      "velocity": 103,
      "chip": "ym2612"
    },
    {
      "channel": 1,
      "note": 34,
      "start": 25.133,
      "duration": 0.3808,
      "velocity": 86,
      "chip": "ym2612"
    },
    {
      "channel": 4,
      "note": 65,
      "start": 25.1339,
      "duration": 0.0933,
      "velocity": 101,
      "chip": "ym2612"
    },
    {
      "channel": 2,
      "note": 35,
      "start": 25.1353,
      "duration": 0.0605,
      "velocity": 120,
      "chip": "ym2612"
    },
    {
      "channel": 4,
      "note": 70,
      "start": 25.2276,
      "duration": 0.0956,
      "velocity": 101,
      "chip": "ym2612"
    },
    {
      "channel": 4,
      "note": 72,
      "start": 25.3238,
      "duration": 0.0949,
      "velocity": 101,
      "chip": "ym2612"
    },
    {
      "channel": 2,
      "note": 103,
      "start": 25.3252,
      "duration": 0.0903,
      "velocity": 103,
      "chip": "ym2612"
    },
    {
      "channel": 4,
      "note": 73,
      "start": 25.4191,
      "duration": 0.0959,
      "velocity": 101,
      "chip": "ym2612"
    },
    {
      "channel": 2,
      "note": 103,
      "start": 25.4206,
      "duration": 0.0903,
      "velocity": 103,
      "chip": "ym2612"
    },
    {
      "channel": 1,
      "note": 46,
      "start": 25.5142,
      "duration": 0.1896,
      "velocity": 86,
      "chip": "ym2612"
    },
    {
      "channel": 4,
      "note": 77,
      "start": 25.5154,
      "duration": 0.0914,
      "velocity": 101,
      "chip": "ym2612"
    },
    {
      "channel": 2,
      "note": 54,
      "start": 25.517,
      "duration": 0.0908,
      "velocity": 117,
      "chip": "ym2612"
    },
    {
      "channel": 4,
      "note": 73,
      "start": 25.6072,
      "duration": 0.0975,
      "velocity": 101,
      "chip": "ym2612"
    },
    {
      "channel": 1,
      "note": 34,
      "start": 25.7042,
      "duration": 0.1924,
      "velocity": 86,
      "chip": "ym2612"
    },
    {
      "channel": 4,
      "note": 72,
      "start": 25.7051,
      "duration": 0.0945,
      "velocity": 101,
      "chip": "ym2612"
    },
    {
      "channel": 2,
      "note": 103,
      "start": 25.7066,
      "duration": 0.0898,
      "velocity": 103,
      "chip": "ym2612"
    },
    {
      "channel": 4,
      "note": 70,
      "start": 25.8,
      "duration": 0.0983,
      "velocity": 101,
      "chip": "ym2612"
    },
    {
      "channel": 2,
      "note": 103,
      "start": 25.8016,
      "duration": 0.0903,
      "velocity": 103,
      "chip": "ym2612"
    },
    {
      "channel": 0,
      "note": 66,
      "start": 25.8963,
      "duration": 0.76,
      "velocity": 83,
      "chip": "ym2612"
    },
    {
      "channel": 1,
      "note": 35,
      "start": 25.8972,
      "duration": 0.3782,
      "velocity": 86,
      "chip": "ym2612"
    },
    {
      "channel": 3,
      "note": 62,
      "start": 25.8979,
      "duration": 0.7596,
      "velocity": 83,
      "chip": "ym2612"
    },
    {
      "channel": 4,
      "note": 66,
      "start": 25.8988,
      "duration": 0.0891,
      "velocity": 101,
      "chip": "ym2612"
    },
    {
      "channel": 2,
      "note": 35,
      "start": 25.9003,
      "duration": 0.0568,
      "velocity": 120,
      "chip": "ym2612"
    },
    {
      "channel": 5,
      "note": 66,
      "start": 25.9569,
      "duration": 0.7614,
      "velocity": 83,
      "chip": "ym2612"
    },
    {
      "channel": 4,
      "note": 71,
      "start": 25.9883,
      "duration": 0.0971,
      "velocity": 101,
      "chip": "ym2612"
    },
    {
      "channel": 4,
      "note": 73,
      "start": 26.0858,
      "duration": 0.0948,
      "velocity": 101,
      "chip": "ym2612"
    },
    {
      "channel": 2,
      "note": 103,
      "start": 26.0872,
      "duration": 0.0903,
      "velocity": 103,
      "chip": "ym2612"
    },
    {
      "channel": 4,
      "note": 74,
      "start": 26.181,
      "duration": 0.0967,
      "velocity": 101,
      "chip": "ym2612"
    },
    {
      "channel": 2,
      "note": 103,
      "start": 26.1825,
      "duration": 0.0903,
      "velocity": 103,
      "chip": "ym2612"
    },
    {
      "channel": 1,
      "note": 47,
      "start": 26.2773,
      "duration": 0.1886,
      "velocity": 86,
      "chip": "ym2612"
    },
    {
      "channel": 4,
      "note": 78,
      "start": 26.2781,
      "duration": 0.0907,
      "velocity": 101,
      "chip": "ym2612"
    },
    {
      "channel": 2,
      "note": 54,
      "start": 26.2797,
      "duration": 0.0901,
      "velocity": 117,
      "chip": "ym2612"
    },
    {
      "channel": 4,
      "note": 74,
      "start": 26.3693,
      "duration": 0.0974,
      "velocity": 101,
      "chip": "ym2612"
    },
    {
      "channel": 1,
      "note": 35,
      "start": 26.4663,
      "duration": 0.1906,
      "velocity": 86,
      "chip": "ym2612"
    },
    {
      "channel": 4,
      "note": 73,
      "start": 26.4672,
      "duration": 0.0958,
      "velocity": 101,
      "chip": "ym2612"
    },
    {
      "channel": 2,
      "note": 103,
      "start": 26.4687,
      "duration": 0.0898,
      "velocity": 103,
      "chip": "ym2612"
    },
    {
      "channel": 4,
      "note": 71,
      "start": 26.5635,
      "duration": 0.0946,
      "velocity": 101,
      "chip": "ym2612"
    },
    {
      "channel": 2,
      "note": 103,
      "start": 26.565,
      "duration": 0.0889,
      "velocity": 103,
      "chip": "ym2612"
    },
    {
      "channel": 0,
      "note": 67,
      "start": 26.6567,
      "duration": 0.5723,
      "velocity": 83,
      "chip": "ym2612"
    },
    {
      "channel": 1,
      "note": 35,
      "start": 26.6573,
      "duration": 0.38,
      "velocity": 86,
      "chip": "ym2612"
    },
    {
      "channel": 3,
      "note": 62,
      "start": 26.658,
      "duration": 0.5723,
      "velocity": 83,
      "chip": "ym2612"
    },
    {
      "channel": 4,
      "note": 66,
      "start": 26.6585,
      "duration": 0.0912,
      "velocity": 101,
      "chip": "ym2612"
    },
    {
      "channel": 2,
      "note": 35,
      "start": 26.6615,
      "duration": 0.0574,
      "velocity": 120,
      "chip": "ym2612"
    },
    {
      "channel": 5,
      "note": 67,
      "start": 26.7187,
      "duration": 0.5711,
      "velocity": 83,
      "chip": "ym2612"
    },
    {
      "channel": 4,
      "note": 71,
      "start": 26.7503,
      "duration": 0.0971,
      "velocity": 101,
      "chip": "ym2612"
    },
    {
      "channel": 4,
      "note": 73,
      "start": 26.8478,
      "duration": 0.0963,
      "velocity": 101,
      "chip": "ym2612"
    },
    {
      "channel": 2,
      "note": 103,
      "start": 26.8493,
      "duration": 0.0902,
      "velocity": 103,
      "chip": "ym2612"
    },
    {
      "channel": 4,
      "note": 74,
      "start": 26.9446,
      "duration": 0.0937,
      "velocity": 101,
      "chip": "ym2612"
    },
    {
      "channel": 2,
      "note": 103,
      "start": 26.946,
      "duration": 0.0887,
      "velocity": 103,
      "chip": "ym2612"
    },
    {
      "channel": 1,
      "note": 47,
      "start": 27.0378,
      "duration": 0.1919,
      "velocity": 86,
      "chip": "ym2612"
    },
    {
      "channel": 4,
      "note": 78,
      "start": 27.0387,
      "duration": 0.0922,
      "velocity": 101,
      "chip": "ym2612"
    },
    {
      "channel": 2,
      "note": 54,
      "start": 27.0402,
      "duration": 0.0916,
      "velocity": 117,
      "chip": "ym2612"
    },
    {
      "channel": 4,
      "note": 74,
      "start": 27.1313,
      "duration": 0.0995,
      "velocity": 101,
      "chip": "ym2612"
    },
    {
      "channel": 0,
      "note": 70,
      "start": 27.2295,
      "duration": 0.1888,
      "velocity": 83,
      "chip": "ym2612"
    },
    {
      "channel": 1,
      "note": 35,
      "start": 27.2301,
      "duration": 0.1888,
      "velocity": 86,
      "chip": "ym2612"
    },
    {
      "channel": 3,
      "note": 62,
      "start": 27.2307,
      "duration": 0.1888,
      "velocity": 83,
      "chip": "ym2612"
    },
    {
      "channel": 4,
      "note": 73,
      "start": 27.2313,
      "duration": 0.0923,
      "velocity": 101,
      "chip": "ym2612"
    },
    {
      "channel": 2,
      "note": 103,
      "start": 27.2329,
      "duration": 0.0877,
      "velocity": 103,
      "chip": "ym2612"
    },
    {
      "channel": 5,
      "note": 70,
      "start": 27.2904,
      "duration": 0.19,
      "velocity": 83,
      "chip": "ym2612"
    },
    {
      "channel": 4,
      "note": 71,
      "start": 27.3241,
      "duration": 0.0961,
      "velocity": 101,
      "chip": "ym2612"
    },
    {
      "channel": 2,
      "note": 103,
      "start": 27.3271,
      "duration": 0.0888,
      "velocity": 103,
      "chip": "ym2612"
    },
    {
      "channel": 0,
      "note": 71,
      "start": 27.4187,
      "duration": 0.2512,
      "velocity": 83,
      "chip": "ym2612"
    },
    {
      "channel": 1,
      "note": 35,
      "start": 27.4194,
      "duration": 0.38,
      "velocity": 86,
      "chip": "ym2612"
    },
    {
      "channel": 3,
      "note": 62,
      "start": 27.4201,
      "duration": 0.2506,
      "velocity": 83,
      "chip": "ym2612"
    },
    {
      "channel": 4,
      "note": 66,
      "start": 27.4208,
      "duration": 0.091,
      "velocity": 101,
      "chip": "ym2612"
    },
    {
      "channel": 2,
      "note": 35,
      "start": 27.4222,
      "duration": 0.0588,
      "velocity": 120,
      "chip": "ym2612"
    },
    {
      "channel": 5,
      "note": 71,
      "start": 27.4808,
      "duration": 0.2535,
      "velocity": 83,
      "chip": "ym2612"
    },
    {
      "channel": 4,
      "note": 71,
      "start": 27.5123,
      "duration": 0.0985,
      "velocity": 101,
      "chip": "ym2612"
    },
    {
      "channel": 4,
      "note": 73,
      "start": 27.6113,
      "duration": 0.0933,
      "velocity": 101,
      "chip": "ym2612"
    },
    {
      "channel": 2,
      "note": 103,
      "start": 27.6127,
      "duration": 0.0888,
      "velocity": 103,
      "chip": "ym2612"
    },
    {
      "channel": 0,
      "note": 73,
      "start": 27.6702,
      "duration": 0.2536,
      "velocity": 83,
      "chip": "ym2612"
    },
    {
      "channel": 3,
      "note": 64,
      "start": 27.6712,
      "duration": 0.2536,
      "velocity": 83,
      "chip": "ym2612"
    },
    {
      "channel": 4,
      "note": 74,
      "start": 27.7051,
      "duration": 0.0952,
      "velocity": 101,
      "chip": "ym2612"
    },
    {
      "channel": 2,
      "note": 103,
      "start": 27.7065,
      "duration": 0.0902,
      "velocity": 103,
      "chip": "ym2612"
    },
    {
      "channel": 5,
      "note": 73,
      "start": 27.7348,
      "duration": 0.2566,
      "velocity": 83,
      "chip": "ym2612"
    },
    {
      "channel": 1,
      "note": 47,
      "start": 27.7998,
      "duration": 0.1901,
      "velocity": 86,
      "chip": "ym2612"
    },
    {
      "channel": 4,
      "note": 78,
      "start": 27.8007,
      "duration": 0.0937,
      "velocity": 101,
      "chip": "ym2612"
    },
    {
      "channel": 2,
      "note": 54,
      "start": 27.8023,
      "duration": 0.0931,
      "velocity": 117,
      "chip": "ym2612"
    },
    {
      "channel": 4,
      "note": 74,
      "start": 27.8948,
      "duration": 0.0959,
      "velocity": 101,
      "chip": "ym2612"
    },
    {
      "channel": 0,
      "note": 74,
      "start": 27.9243,
      "duration": 0.256,
      "velocity": 83,
      "chip": "ym2612"
    },
    {
      "channel": 3,
      "note": 66,
      "start": 27.9251,
      "duration": 0.2564,
      "velocity": 83,
      "chip": "ym2612"
    },
    {
      "channel": 1,
      "note": 35,
      "start": 27.9904,
      "duration": 0.1905,
      "velocity": 86,
      "chip": "ym2612"
    },
    {
      "channel": 4,
      "note": 73,
      "start": 27.9912,
      "duration": 0.0944,
      "velocity": 101,
      "chip": "ym2612"
    },
    {
      "channel": 5,
      "note": 74,
      "start": 27.9918,
      "duration": 0.2519,
      "velocity": 83,
      "chip": "ym2612"
    },
    {
      "channel": 2,
      "note": 103,
      "start": 27.9946,
      "duration": 0.088,
      "velocity": 103,
      "chip": "ym2612"
    },
    {
      "channel": 4,
      "note": 71,
      "start": 28.0861,
      "duration": 0.0961,
      "velocity": 101,
      "chip": "ym2612"
    },
    {
      "channel": 2,
      "note": 103,
      "start": 28.0876,
      "duration": 0.0904,
      "velocity": 103,
      "chip": "ym2612"
    },
    {
      "channel": 0,
      "note": 78,
      "start": 28.1807,
      "duration": 0.251,
      "velocity": 83,
      "chip": "ym2612"
    },
    {
      "channel": 1,
      "note": 35,
      "start": 28.1814,
      "duration": 0.3819,
      "velocity": 86,
      "chip": "ym2612"
    },
    {
      "channel": 3,
      "note": 71,
      "start": 28.182,
      "duration": 0.2507,
      "velocity": 83,
      "chip": "ym2612"
    },
    {
      "channel": 4,
      "note": 66,
      "start": 28.1826,
      "duration": 0.0912,
      "velocity": 101,
      "chip": "ym2612"
    },
    {
      "channel": 2,
      "note": 35,
      "start": 28.1841,
      "duration": 0.0604,
      "velocity": 120,
      "chip": "ym2612"
    },
    {
      "channel": 5,
      "note": 78,
      "start": 28.2442,
      "duration": 0.2522,
      "velocity": 83,
      "chip": "ym2612"
    },
    {
      "channel": 4,
      "note": 71,
      "start": 28.2743,
      "duration": 0.0971,
      "velocity": 101,
      "chip": "ym2612"
    },
    {
      "channel": 4,
      "note": 73,
      "start": 28.3719,
      "duration": 0.0947,
      "velocity": 101,
      "chip": "ym2612"
    },
    {
      "channel": 2,
      "note": 103,
      "start": 28.3733,
      "duration": 0.0901,
      "velocity": 103,
      "chip": "ym2612"
    },
    {
      "channel": 0,
      "note": 82,
      "start": 28.4323,
      "duration": 0.2536,
      "velocity": 83,
      "chip": "ym2612"
    },
    {
      "channel": 3,
      "note": 73,
      "start": 28.4331,
      "duration": 0.2536,
      "velocity": 83,
      "chip": "ym2612"
    },
    {
      "channel": 4,
      "note": 74,
      "start": 28.467,
      "duration": 0.0971,
      "velocity": 101,
      "chip": "ym2612"
    },
    {
      "channel": 2,
      "note": 103,
      "start": 28.4685,
      "duration": 0.0922,
      "velocity": 103,
      "chip": "ym2612"
    },
    {
      "channel": 5,
      "note": 82,
      "start": 28.4968,
      "duration": 0.2565,
      "velocity": 83,
      "chip": "ym2612"
    },
    {
      "channel": 1,
      "note": 47,
      "start": 28.5637,
      "duration": 0.1882,
      "velocity": 86,
      "chip": "ym2612"
    },
    {
      "channel": 4,
      "note": 78,
      "start": 28.5646,
      "duration": 0.0903,
      "velocity": 101,
      "chip": "ym2612"
    },
    {
      "channel": 2,
      "note": 54,
      "start": 28.5661,
      "duration": 0.0898,
      "velocity": 117,
      "chip": "ym2612"
    },
    {
      "channel": 4,
      "note": 74,
      "start": 28.6553,
      "duration": 0.0974,
      "velocity": 101,
      "chip": "ym2612"
    },
    {
      "channel": 0,
      "note": 83,
      "start": 28.6863,
      "duration": 0.2559,
      "velocity": 83,
      "chip": "ym2612"
    },
    {
      "channel": 3,
      "note": 74,
      "start": 28.6872,
      "duration": 0.2579,
      "velocity": 83,
      "chip": "ym2612"
    },
    {
      "channel": 1,
      "note": 35,
      "start": 28.7523,
      "duration": 0.1921,
      "velocity": 86,
      "chip": "ym2612"
    },
    {
      "channel": 4,
      "note": 73,
      "start": 28.7532,
      "duration": 0.0945,
      "velocity": 101,
      "chip": "ym2612"
    },
    {
      "channel": 5,
      "note": 83,
      "start": 28.7538,
      "duration": 0.2505,
      "velocity": 83,
      "chip": "ym2612"
    },
    {
      "channel": 2,
      "note": 103,
      "start": 28.755,
      "duration": 0.0896,
      "velocity": 103,
      "chip": "ym2612"
    },
    {
      "channel": 4,
      "note": 71,
      "start": 28.8481,
      "duration": 0.0978,
      "velocity": 101,
      "chip": "ym2612"
    },
    {
      "channel": 2,
      "note": 103,
      "start": 28.8496,
      "duration": 0.0903,
      "velocity": 103,
      "chip": "ym2612"
    },
    {
      "channel": 0,
      "note": 83,
      "start": 28.9441,
      "duration": 1.5222,
      "velocity": 83,
      "chip": "ym2612"
    },
    {
      "channel": 1,
      "note": 29,
      "start": 28.9449,
      "duration": 0.3785,
      "velocity": 86,
      "chip": "ym2612"
    },
    {
      "channel": 3,
      "note": 74,
      "start": 28.9456,
      "duration": 1.522,
      "velocity": 83,
      "chip": "ym2612"
    },
    {
      "channel": 4,
      "note": 62,
      "start": 28.9463,
      "duration": 0.0896,
      "velocity": 101,
      "chip": "ym2612"
    },
    {
      "channel": 2,
      "note": 35,
      "start": 28.9479,
      "duration": 0.0571,
      "velocity": 120,
      "chip": "ym2612"
    },
    {
      "channel": 5,
      "note": 83,
      "start": 29.0048,
      "duration": 1.5241,
      "velocity": 83,
      "chip": "ym2612"
    },
    {
      "channel": 4,
      "note": 71,
      "start": 29.0363,
      "duration": 0.0971,
      "velocity": 101,
      "chip": "ym2612"
    },
    {
      "channel": 4,
      "note": 73,
      "start": 29.1339,
      "duration": 0.0962,
      "velocity": 101,
      "chip": "ym2612"
    },
    {
      "channel": 2,
      "note": 103,
      "start": 29.1353,
      "duration": 0.0917,
      "velocity": 103,
      "chip": "ym2612"
    },
    {
      "channel": 4,
      "note": 74,
      "start": 29.2306,
      "duration": 0.0937,
      "velocity": 101,
      "chip": "ym2612"
    },
    {
      "channel": 2,
      "note": 103,
      "start": 29.232,
      "duration": 0.0888,
      "velocity": 103,
      "chip": "ym2612"
    },
    {
      "channel": 1,
      "note": 41,
      "start": 29.3239,
      "duration": 0.1901,
      "velocity": 86,
      "chip": "ym2612"
    },
    {
      "channel": 4,
      "note": 76,
      "start": 29.3248,
      "duration": 0.092,
      "velocity": 101,
      "chip": "ym2612"
    },
    {
      "channel": 2,
      "note": 54,
      "start": 29.3278,
      "duration": 0.09,
      "velocity": 117,
      "chip": "ym2612"
    },
    {
      "channel": 4,
      "note": 74,
      "start": 29.4173,
      "duration": 0.0975,
      "velocity": 101,
      "chip": "ym2612"
    },
    {
      "channel": 1,
      "note": 29,
      "start": 29.5144,
      "duration": 0.1901,
      "velocity": 86,
      "chip": "ym2612"
    },
    {
      "channel": 4,
      "note": 73,
      "start": 29.5152,
      "duration": 0.0959,
      "velocity": 101,
      "chip": "ym2612"
    },
    {
      "channel": 2,
      "note": 103,
      "start": 29.5168,
      "duration": 0.0898,
      "velocity": 103,
      "chip": "ym2612"
    },
    {
      "channel": 4,
      "note": 71,
      "start": 29.6115,
      "duration": 0.0938,
      "velocity": 101,
      "chip": "ym2612"
    },
    {
      "channel": 2,
      "note": 103,
      "start": 29.613,
      "duration": 0.0889,
      "velocity": 103,
      "chip": "ym2612"
    },
    {
      "channel": 1,
      "note": 29,
      "start": 29.7049,
      "duration": 0.3805,
      "velocity": 86,
      "chip": "ym2612"
    },
    {
      "channel": 4,
      "note": 62,
      "start": 29.7058,
      "duration": 0.0921,
      "velocity": 101,
      "chip": "ym2612"
    },
    {
      "channel": 2,
      "note": 35,
      "start": 29.7073,
      "duration": 0.0594,
      "velocity": 120,
      "chip": "ym2612"
    },
    {
      "channel": 4,
      "note": 71,
      "start": 29.7984,
      "duration": 0.0985,
      "velocity": 101,
      "chip": "ym2612"
    },
    {
      "channel": 4,
      "note": 73,
      "start": 29.8974,
      "duration": 0.0932,
      "velocity": 101,
      "chip": "ym2612"
    },
    {
      "channel": 2,
      "note": 103,
      "start": 29.8989,
      "duration": 0.0887,
      "velocity": 103,
      "chip": "ym2612"
    },
    {
      "channel": 4,
      "note": 74,
      "start": 29.9911,
      "duration": 0.0951,
      "velocity": 101,
      "chip": "ym2612"
    },
    {
      "channel": 2,
      "note": 103,
      "start": 29.9941,
      "duration": 0.0888,
      "velocity": 103,
      "chip": "ym2612"
    },
    {
      "channel": 1,
      "note": 41,
      "start": 30.0859,
      "duration": 0.1915,
      "velocity": 86,
      "chip": "ym2612"
    },
    {
      "channel": 4,
      "note": 76,
      "start": 30.0868,
      "duration": 0.092,
      "velocity": 101,
      "chip": "ym2612"
    },
    {
      "channel": 2,
      "note": 54,
      "start": 30.0883,
      "duration": 0.0915,
      "velocity": 117,
      "chip": "ym2612"
    },
    {
      "channel": 4,
      "note": 74,
      "start": 30.1793,
      "duration": 0.0989,
      "velocity": 101,
      "chip": "ym2612"
    },
    {
      "channel": 1,
      "note": 29,
      "start": 30.2778,
      "duration": 0.1891,
      "velocity": 86,
      "chip": "ym2612"
    },
    {
      "channel": 4,
      "note": 73,
      "start": 30.2787,
      "duration": 0.0929,
      "velocity": 101,
      "chip": "ym2612"
    },
    {
      "channel": 2,
      "note": 103,
      "start": 30.2802,
      "duration": 0.0884,
      "velocity": 103,
      "chip": "ym2612"
    },
    {
      "channel": 4,
      "note": 71,
      "start": 30.3722,
      "duration": 0.0964,
      "velocity": 101,
      "chip": "ym2612"
    },
    {
      "channel": 2,
      "note": 103,
      "start": 30.3736,
      "duration": 0.0903,
      "velocity": 103,
      "chip": "ym2612"
    },
    {
      "channel": 0,
      "note": 82,
      "start": 30.4667,
      "duration": 1.5238,
      "velocity": 83,
      "chip": "ym2612"
    },
    {
      "channel": 1,
      "note": 29,
      "start": 30.4674,
      "duration": 0.3801,
      "velocity": 86,
      "chip": "ym2612"
    },
    {
      "channel": 3,
      "note": 73,
      "start": 30.468,
      "duration": 0.093,
      "velocity": 83,
      "chip": "ym2612"
    },
    {
      "channel": 4,
      "note": 54,
      "start": 30.469,
      "duration": 0.0926,
      "velocity": 101,
      "chip": "ym2612"
    },
    {
      "channel": 2,
      "note": 35,
      "start": 30.4705,
      "duration": 0.0591,
      "velocity": 120,
      "chip": "ym2612"
    },
    {
      "channel": 5,
      "note": 82,
      "start": 30.5294,
      "duration": 0.0942,
      "velocity": 83,
      "chip": "ym2612"
    },
    {
      "channel": 3,
      "note": 72,
      "start": 30.5615,
      "duration": 0.0956,
      "velocity": 83,
      "chip": "ym2612"
    },
    {
      "channel": 4,
      "note": 60,
      "start": 30.5621,
      "duration": 0.0956,
      "velocity": 101,
      "chip": "ym2612"
    },
    {
      "channel": 5,
      "note": 81,
      "start": 30.6241,
      "duration": 0.0947,
      "velocity": 83,
      "chip": "ym2612"
    },
    {
      "channel": 3,
      "note": 69,
      "start": 30.6576,
      "duration": 0.0948,
      "velocity": 83,
      "chip": "ym2612"
    },
    {
      "channel": 4,
      "note": 63,
      "start": 30.6582,
      "duration": 0.0949,
      "velocity": 101,
      "chip": "ym2612"
    },
    {
      "channel": 2,
      "note": 103,
      "start": 30.6612,
      "duration": 0.0884,
      "velocity": 103,
      "chip": "ym2612"
    },
    {
      "channel": 5,
      "note": 78,
      "start": 30.7194,
      "duration": 0.0948,
      "velocity": 83,
      "chip": "ym2612"
    },
    {
      "channel": 3,
      "note": 68,
      "start": 30.7529,
      "duration": 0.0951,
      "velocity": 83,
      "chip": "ym2612"
    },
    {
      "channel": 4,
      "note": 61,
      "start": 30.7535,
      "duration": 0.0952,
      "velocity": 101,
      "chip": "ym2612"
    },
    {
      "channel": 2,
      "note": 103,
      "start": 30.755,
      "duration": 0.0899,
      "velocity": 103,
      "chip": "ym2612"
    },
    {
      "channel": 5,
      "note": 77,
      "start": 30.8147,
      "duration": 0.0962,
      "velocity": 83,
      "chip": "ym2612"
    },
    {
      "channel": 1,
      "note": 41,
      "start": 30.8479,
      "duration": 0.1901,
      "velocity": 86,
      "chip": "ym2612"
    },
    {
      "channel": 3,
      "note": 61,
      "start": 30.8486,
      "duration": 0.0921,
      "velocity": 83,
      "chip": "ym2612"
    },
    {
      "channel": 4,
      "note": 54,
      "start": 30.8491,
      "duration": 0.0922,
      "velocity": 101,
      "chip": "ym2612"
    },
    {
      "channel": 2,
      "note": 54,
      "start": 30.8507,
      "duration": 0.093,
      "velocity": 117,
      "chip": "ym2612"
    },
    {
      "channel": 5,
      "note": 70,
      "start": 30.9113,
      "duration": 0.0933,
      "velocity": 83,
      "chip": "ym2612"
    },
    {
      "channel": 3,
      "note": 60,
      "start": 30.9411,
      "duration": 0.0974,
      "velocity": 83,
      "chip": "ym2612"
    },
    {
      "channel": 4,
      "note": 60,
      "start": 30.9418,
      "duration": 0.0974,
      "velocity": 101,
      "chip": "ym2612"
    },
    {
      "channel": 5,
      "note": 69,
      "start": 31.0051,
      "duration": 0.0947,
      "velocity": 83,
      "chip": "ym2612"
    },
    {
      "channel": 1,
      "note": 29,
      "start": 31.0385,
      "duration": 0.1917,
      "velocity": 86,
      "chip": "ym2612"
    },
    {
      "channel": 3,
      "note": 57,
      "start": 31.039,
      "duration": 0.0943,
      "velocity": 83,
      "chip": "ym2612"
    },
    {
      "channel": 4,
      "note": 63,
      "start": 31.0397,
      "duration": 0.0943,
      "velocity": 101,
      "chip": "ym2612"
    },
    {
      "channel": 2,
      "note": 103,
      "start": 31.0411,
      "duration": 0.0894,
      "velocity": 103,
      "chip": "ym2612"
    },
    {
      "channel": 5,
      "note": 66,
      "start": 31.1003,
      "duration": 0.0948,
      "velocity": 83,
      "chip": "ym2612"
    },
    {
      "channel": 3,
      "note": 56,
      "start": 31.1339,
      "duration": 0.0968,
      "velocity": 83,
      "chip": "ym2612"
    },
    {
      "channel": 4,
      "note": 61,
      "start": 31.1344,
      "duration": 0.0969,
      "velocity": 101,
      "chip": "ym2612"
    },
    {
      "channel": 2,
      "note": 103,
      "start": 31.136,
      "duration": 0.0915,
      "velocity": 103,
      "chip": "ym2612"
    },
    {
      "channel": 5,
      "note": 65,
      "start": 31.1956,
      "duration": 0.0947,
      "velocity": 83,
      "chip": "ym2612"
    },
    {
      "channel": 1,
      "note": 29,
      "start": 31.2306,
      "duration": 0.3803,
      "velocity": 86,
      "chip": "ym2612"
    },
    {
      "channel": 3,
      "note": 49,
      "start": 31.2312,
      "duration": 0.0904,
      "velocity": 83,
      "chip": "ym2612"
    },
    {
      "channel": 4,
      "note": 54,
      "start": 31.2318,
      "duration": 0.0905,
      "velocity": 101,
      "chip": "ym2612"
    },
    {
      "channel": 2,
      "note": 35,
      "start": 31.2333,
      "duration": 0.0577,
      "velocity": 120,
      "chip": "ym2612"
    },
    {
      "channel": 5,
      "note": 58,
      "start": 31.2908,
      "duration": 0.0948,
      "velocity": 83,
      "chip": "ym2612"
    },
    {
      "channel": 3,
      "note": 48,
      "start": 31.3221,
      "duration": 0.0971,
      "velocity": 83,
      "chip": "ym2612"
    },
    {
      "channel": 4,
      "note": 60,
      "start": 31.3227,
      "duration": 0.0971,
      "velocity": 101,
      "chip": "ym2612"
    },
    {
      "channel": 5,
      "note": 57,
      "start": 31.3861,
      "duration": 0.0948,
      "velocity": 83,
      "chip": "ym2612"
    },
    {
      "channel": 3,
      "note": 45,
      "start": 31.4196,
      "duration": 0.0926,
      "velocity": 83,
      "chip": "ym2612"
    },
    {
      "channel": 4,
      "note": 63,
      "start": 31.4202,
      "duration": 0.0925,
      "velocity": 101,
      "chip": "ym2612"
    },
    {
      "channel": 2,
      "note": 35,
      "start": 31.4217,
      "duration": 0.0599,
      "velocity": 120,
      "chip": "ym2612"
    },
    {
      "channel": 5,
      "note": 54,
      "start": 31.4814,
      "duration": 0.0963,
      "velocity": 83,
      "chip": "ym2612"
    },
    {
      "channel": 3,
      "note": 44,
      "start": 31.5126,
      "duration": 0.0989,
      "velocity": 83,
      "chip": "ym2612"
    },
    {
      "channel": 4,
      "note": 61,
      "start": 31.5133,
      "duration": 0.0989,
      "velocity": 101,
      "chip": "ym2612"
    },
    {
      "channel": 5,
      "note": 53,
      "start": 31.5781,
      "duration": 0.0933,
      "velocity": 83,
      "chip": "ym2612"
    },
    {
      "channel": 1,
      "note": 41,
      "start": 31.6114,
      "duration": 0.1885,
      "velocity": 86,
      "chip": "ym2612"
    },
    {
      "channel": 3,
      "note": 49,
      "start": 31.612,
      "duration": 0.093,
      "velocity": 83,
      "chip": "ym2612"
    },
    {
      "channel": 4,
      "note": 54,
      "start": 31.6126,
      "duration": 0.0929,
      "velocity": 101,
      "chip": "ym2612"
    },
    {
      "channel": 2,
      "note": 57,
      "start": 31.6142,
      "duration": 0.0879,
      "velocity": 111,
      "chip": "ym2612"
    },
    {
      "channel": 5,
      "note": 58,
      "start": 31.6719,
      "duration": 0.0948,
      "velocity": 83,
      "chip": "ym2612"
    },
    {
      "channel": 3,
      "note": 44,
      "start": 31.7054,
      "duration": 0.095,
      "velocity": 83,
      "chip": "ym2612"
    },
    {
      "channel": 4,
      "note": 60,
      "start": 31.706,
      "duration": 0.0951,
      "velocity": 101,
      "chip": "ym2612"
    },
    {
      "channel": 2,
      "note": 57,
      "start": 31.7076,
      "duration": 0.0897,
      "velocity": 111,
      "chip": "ym2612"
    },
    {
      "channel": 5,
      "note": 53,
      "start": 31.7671,
      "duration": 0.0951,
      "velocity": 83,
      "chip": "ym2612"
    },
    {
      "channel": 1,
      "note": 29,
      "start": 31.8003,
      "duration": 0.191,
      "velocity": 86,
      "chip": "ym2612"
    },
    {
      "channel": 3,
      "note": 45,
      "start": 31.801,
      "duration": 0.0961,
      "velocity": 83,
      "chip": "ym2612"
    },
    {
      "channel": 4,
      "note": 63,
      "start": 31.8016,
      "duration": 0.0961,
      "velocity": 101,
      "chip": "ym2612"
    },
    {
      "channel": 2,
      "note": 55,
      "start": 31.8032,
      "duration": 0.0911,
      "velocity": 111,
      "chip": "ym2612"
    },
    {
      "channel": 5,
      "note": 54,
      "start": 31.8627,
      "duration": 0.0944,
      "velocity": 83,
      "chip": "ym2612"
    },
    {
      "channel": 3,
      "note": 48,
      "start": 31.8976,
      "duration": 0.0946,
      "velocity": 83,
      "chip": "ym2612"
    },
    {
      "channel": 4,
      "note": 61,
      "start": 31.8982,
      "duration": 0.0966,
      "velocity": 101,
      "chip": "ym2612"
    },
    {
      "channel": 2,
      "note": 45,
      "start": 31.8997,
      "duration": 0.0883,
      "velocity": 111,
      "chip": "ym2612"
    },
    {
      "channel": 5,
      "note": 57,
      "start": 31.9576,
      "duration": 0.0954,
      "velocity": 83,
      "chip": "ym2612"
    },
    {
      "channel": 0,
      "note": 58,
      "start": 31.991,
      "duration": 0.3818,
      "velocity": 83,
      "chip": "ym2612"
    },
    {
      "channel": 1,
      "note": 34,
      "start": 31.9918,
      "duration": 0.3797,
      "velocity": 86,
      "chip": "ym2612"
    },
    {
      "channel": 3,
      "note": 49,
      "start": 31.9941,
      "duration": 0.3787,
      "velocity": 83,
      "chip": "ym2612"
    },
    {
      "channel": 4,
      "note": 65,
      "start": 31.9953,
      "duration": 0.0886,
      "velocity": 101,
      "chip": "ym2612"
    },
    {
      "channel": 2,
      "note": 35,
      "start": 31.9968,
      "duration": 0.0569,
      "velocity": 120,
      "chip": "ym2612"
    },
    {
      "channel": 5,
      "note": 58,
      "start": 32.0535,
      "duration": 0.3193,
      "velocity": 83,
      "chip": "ym2612"
    },
    {
      "channel": 4,
      "note": 70,
      "start": 32.0844,
      "duration": 0.097,
      "velocity": 101,
      "chip": "ym2612"
    },
    {
      "channel": 4,
      "note": 72,
      "start": 32.1819,
      "duration": 0.0963,
      "velocity": 101,
      "chip": "ym2612"
    },
    {
      "channel": 2,
      "note": 103,
      "start": 32.1834,
      "duration": 0.0903,
      "velocity": 103,
      "chip": "ym2612"
    },
    {
      "channel": 4,
      "note": 73,
      "start": 32.2787,
      "duration": 0.0936,
      "velocity": 101,
      "chip": "ym2612"
    },
    {
      "channel": 2,
      "note": 103,
      "start": 32.2801,
      "duration": 0.0888,
      "velocity": 103,
      "chip": "ym2612"
    },
    {
      "channel": 1,
      "note": 46,
      "start": 32.3719,
      "duration": 0.0009,
      "velocity": 86,
      "chip": "ym2612"
    }
  ]
}