{
  "track_name": "08 - Shutdown 2",
  "duration_sec": 69.334,
  "sample_rate": 44100,
  "note_count": 1685,
  "unique_pitches": 29,
  "pitch_range": 44,
  "avg_note_duration": 0.1639,
  "reconstruction_stats": {
    "notes_reconstructed": 1685,
    "keyon_events": 1685,
    "keyoff_events": 1681,
    "orphan_keyons": 4,
    "unique_pitches": 29,
    "pitch_range": 44,
    "avg_duration_sec": 0.1639
  },
  "metadata": {
    "source": "P\\Pulseman\\08 - Shutdown 2.vgz"
  },
  "notes": [
    {
      "channel": 0,
      "note": 43,
      "start": 0.0,
      "duration": 0.004,
      "velocity": 115,
      "chip": "ym2612"
    },
    {
      "channel": 1,
      "note": 38,
      "start": 0.0009,
      "duration": 0.003,
      "velocity": 127,
      "chip": "ym2612"
    },
    {
      "channel": 0,
      "note": 55,
      "start": 0.0042,
      "duration": 0.0009,
      "velocity": 115,
      "chip": "ym2612"
    },
    {
      "channel": 1,
      "note": 38,
      "start": 0.0045,
      "duration": 0.0003,
      "velocity": 127,
      "chip": "ym2612"
    },
    {
      "channel": 1,
      "note": 38,
      "start": 0.0049,
      "duration": 0.0005,
      "velocity": 127,
      "chip": "ym2612"
    },
    {
      "channel": 0,
      "note": 43,
      "start": 0.0053,
      "duration": 0.002,
      "velocity": 115,
      "chip": "ym2612"
    },
    {
      "channel": 1,
      "note": 38,
      "start": 0.0056,
      "duration": 0.001,
      "velocity": 127,
      "chip": "ym2612"
    },
    {
      "channel": 0,
      "note": 56,
      "start": 0.0075,
      "duration": 0.0015,
      "velocity": 115,
      "chip": "ym2612"
    },
    {
      "channel": 1,
      "note": 38,
      "start": 0.0078,
      "duration": 0.0009,
      "velocity": 127,
      "chip": "ym2612"
    },
    {
      "channel": 0,
      "note": 43,
      "start": 0.0092,
      "duration": 0.002,
      "velocity": 115,
      "chip": "ym2612"
    },
    {
      "channel": 1,
      "note": 38,
      "start": 0.0095,
      "duration": 0.001,
      "velocity": 127,
      "chip": "ym2612"
    },
    {
      "channel": 1,
      "note": 38,
      "start": 0.0107,
      "duration": 0.0009,
      "velocity": 127,
      "chip": "ym2612"
    },
    {
      "channel": 0,
      "note": 55,
      "start": 0.0114,
      "duration": 0.0015,
      "velocity": 115,
      "chip": "ym2612"
    },
    {
      "channel": 1,
      "note": 38,
      "start": 0.0117,
      "duration": 0.0009,
      "velocity": 127,
      "chip": "ym2612"
    },
    {
      "channel": 1,
      "note": 38,
      "start": 0.0128,
      "duration": 0.0004,
      "velocity": 127,
      "chip": "ym2612"
    },
    {
      "channel": 0,
      "note": 43,
      "start": 0.0132,
      "duration": 0.0019,
      "velocity": 115,
      "chip": "ym2612"
    },
    {
      "channel": 1,
      "note": 38,
      "start": 0.0135,
      "duration": 0.0011,
      "velocity": 127,
      "chip": "ym2612"
    },
    {
      "channel": 0,
      "note": 53,
      "start": 0.0153,
      "duration": 0.0015,
      "velocity": 115,
      "chip": "ym2612"
    },
    {
      "channel": 1,
      "note": 38,
      "start": 0.0156,
      "duration": 0.0009,
      "velocity": 127,
      "chip": "ym2612"
    },
    {
      "channel": 1,
      "note": 38,
      "start": 0.0166,
      "duration": 0.0004,
      "velocity": 127,
      "chip": "ym2612"
    },
    {
      "channel": 0,
      "note": 43,
      "start": 0.017,
      "duration": 0.002,
      "velocity": 115,
      "chip": "ym2612"
    },
    {
      "channel": 1,
      "note": 38,
      "start": 0.0173,
      "duration": 0.0014,
      "velocity": 127,
      "chip": "ym2612"
    },
    {
      "channel": 1,
      "note": 38,
      "start": 0.0188,
      "duration": 0.0006,
      "velocity": 127,
      "chip": "ym2612"
    },
    {
      "channel": 0,
      "note": 55,
      "start": 0.0193,
      "duration": 0.0015,
      "velocity": 115,
      "chip": "ym2612"
    },
    {
      "channel": 1,
      "note": 38,
      "start": 0.0204,
      "duration": 0.0007,
      "velocity": 127,
      "chip": "ym2612"
    },
    {
      "channel": 0,
      "note": 43,
      "start": 0.021,
      "duration": 0.002,
      "velocity": 115,
      "chip": "ym2612"
    },
    {
      "channel": 1,
      "note": 38,
      "start": 0.0213,
      "duration": 0.001,
      "velocity": 127,
      "chip": "ym2612"
    },
    {
      "channel": 0,
      "note": 56,
      "start": 0.0232,
      "duration": 0.0015,
      "velocity": 115,
      "chip": "ym2612"
    },
    {
      "channel": 1,
      "note": 38,
      "start": 0.0235,
      "duration": 0.0009,
      "velocity": 127,
      "chip": "ym2612"
    },
    {
      "channel": 0,
      "note": 43,
      "start": 0.0249,
      "duration": 0.0021,
      "velocity": 115,
      "chip": "ym2612"
    },
    {
      "channel": 1,
      "note": 38,
      "start": 0.0252,
      "duration": 0.0011,
      "velocity": 127,
      "chip": "ym2612"
    },
    {
      "channel": 1,
      "note": 38,
      "start": 0.0264,
      "duration": 0.0008,
      "velocity": 127,
      "chip": "ym2612"
    },
    {
      "channel": 0,
      "note": 55,
      "start": 0.0272,
      "duration": 0.0015,
      "velocity": 115,
      "chip": "ym2612"
    },
    {
      "channel": 1,
      "note": 38,
      "start": 0.0275,
      "duration": 0.0009,
      "velocity": 127,
      "chip": "ym2612"
    },
    {
      "channel": 0,
      "note": 43,
      "start": 0.0289,
      "duration": 0.0021,
      "velocity": 115,
      "chip": "ym2612"
    },
    {
      "channel": 1,
      "note": 38,
      "start": 0.0292,
      "duration": 0.001,
      "velocity": 127,
      "chip": "ym2612"
    },
    {
      "channel": 1,
      "note": 38,
      "start": 0.0303,
      "duration": 0.001,
      "velocity": 127,
      "chip": "ym2612"
    },
    {
      "channel": 0,
      "note": 58,
      "start": 0.0312,
      "duration": 0.0029,
      "velocity": 115,
      "chip": "ym2612"
    },
    {
      "channel": 1,
      "note": 38,
      "start": 0.0315,
      "duration": 0.0015,
      "velocity": 127,
      "chip": "ym2612"
    },
    {
      "channel": 1,
      "note": 38,
      "start": 0.0333,
      "duration": 0.001,
      "velocity": 127,
      "chip": "ym2612"
    },
    {
      "channel": 0,
      "note": 43,
      "start": 0.0342,
      "duration": 0.0019,
      "velocity": 115,
      "chip": "ym2612"
    },
    {
      "channel": 1,
      "note": 38,
      "start": 0.0346,
      "duration": 0.0015,
      "velocity": 127,
      "chip": "ym2612"
    },
    {
      "channel": 0,
      "note": 55,
      "start": 0.0363,
      "duration": 0.0015,
      "velocity": 115,
      "chip": "ym2612"
    },
    {
      "channel": 1,
      "note": 38,
      "start": 0.0367,
      "duration": 0.001,
      "velocity": 127,
      "chip": "ym2612"
    },
    {
      "channel": 1,
      "note": 38,
      "start": 0.0378,
      "duration": 0.0004,
      "velocity": 127,
      "chip": "ym2612"
    },
    {
      "channel": 0,
      "note": 43,
      "start": 0.0381,
      "duration": 0.002,
      "velocity": 115,
      "chip": "ym2612"
    },
    {
      "channel": 1,
      "note": 38,
      "start": 0.0383,
      "duration": 0.001,
      "velocity": 127,
      "chip": "ym2612"
    },
    {
      "channel": 0,
      "note": 56,
      "start": 0.0403,
      "duration": 0.0014,
      "velocity": 115,
      "chip": "ym2612"
    },
    {
      "channel": 1,
      "note": 38,
      "start": 0.0406,
      "duration": 0.0009,
      "velocity": 127,
      "chip": "ym2612"
    },
    {
      "channel": 0,
      "note": 43,
      "start": 0.0419,
      "duration": 0.0021,
      "velocity": 115,
      "chip": "ym2612"
    },
    {
      "channel": 1,
      "note": 38,
      "start": 0.0421,
      "duration": 0.001,
      "velocity": 127,
      "chip": "ym2612"
    },
    {
      "channel": 1,
      "note": 38,
      "start": 0.0434,
      "duration": 0.0009,
      "velocity": 127,
      "chip": "ym2612"
    },
    {
      "channel": 0,
      "note": 55,
      "start": 0.0442,
      "duration": 0.0015,
      "velocity": 115,
      "chip": "ym2612"
    },
    {
      "channel": 1,
      "note": 38,
      "start": 0.0445,
      "duration": 0.0009,
      "velocity": 127,
      "chip": "ym2612"
    },
    {
      "channel": 1,
      "note": 38,
      "start": 0.0455,
      "duration": 0.0004,
      "velocity": 127,
      "chip": "ym2612"
    },
    {
      "channel": 0,
      "note": 43,
      "start": 0.0459,
      "duration": 0.002,
      "velocity": 115,
      "chip": "ym2612"
    },
    {
      "channel": 1,
      "note": 38,
      "start": 0.0462,
      "duration": 0.0011,
      "velocity": 127,
      "chip": "ym2612"
    },
    {
      "channel": 0,
      "note": 53,
      "start": 0.048,
      "duration": 0.0015,
      "velocity": 115,
      "chip": "ym2612"
    },
    {
      "channel": 1,
      "note": 38,
      "start": 0.0483,
      "duration": 0.0008,
      "velocity": 127,
      "chip": "ym2612"
    },
    {
      "channel": 1,
      "note": 38,
      "start": 0.0493,
      "duration": 0.0005,
      "velocity": 127,
      "chip": "ym2612"
    },
    {
      "channel": 0,
      "note": 43,
      "start": 0.0497,
      "duration": 0.0021,
      "velocity": 115,
      "chip": "ym2612"
    },
    {
      "channel": 1,
      "note": 38,
      "start": 0.05,
      "duration": 0.0013,
      "velocity": 127,
      "chip": "ym2612"
    },
    {
      "channel": 1,
      "note": 38,
      "start": 0.0514,
      "duration": 0.0006,
      "velocity": 127,
      "chip": "ym2612"
    },
    {
      "channel": 0,
      "note": 55,
      "start": 0.052,
      "duration": 0.0015,
      "velocity": 115,
      "chip": "ym2612"
    },
    {
      "channel": 1,
      "note": 38,
      "start": 0.0532,
      "duration": 0.0006,
      "velocity": 127,
      "chip": "ym2612"
    },
    {
      "channel": 0,
      "note": 43,
      "start": 0.0537,
      "duration": 0.002,
      "velocity": 115,
      "chip": "ym2612"
    },
    {
      "channel": 1,
      "note": 38,
      "start": 0.0539,
      "duration": 0.001,
      "velocity": 127,
      "chip": "ym2612"
    },
    {
      "channel": 0,
      "note": 56,
      "start": 0.0559,
      "duration": 0.0015,
      "velocity": 115,
      "chip": "ym2612"
    },
    {
      "channel": 1,
      "note": 38,
      "start": 0.0562,
      "duration": 0.0009,
      "velocity": 127,
      "chip": "ym2612"
    },
    {
      "channel": 0,
      "note": 43,
      "start": 0.0576,
      "duration": 0.002,
      "velocity": 115,
      "chip": "ym2612"
    },
    {
      "channel": 1,
      "note": 38,
      "start": 0.058,
      "duration": 0.0009,
      "velocity": 127,
      "chip": "ym2612"
    },
    {
      "channel": 1,
      "note": 38,
      "start": 0.059,
      "duration": 0.001,
      "velocity": 127,
      "chip": "ym2612"
    },
    {
      "channel": 0,
      "note": 55,
      "start": 0.0599,
      "duration": 0.0015,
      "velocity": 115,
      "chip": "ym2612"
    },
    {
      "channel": 1,
      "note": 38,
      "start": 0.0602,
      "duration": 0.001,
      "velocity": 127,
      "chip": "ym2612"
    },
    {
      "channel": 0,
      "note": 43,
      "start": 0.0616,
      "duration": 0.002,
      "velocity": 115,
      "chip": "ym2612"
    },
    {
      "channel": 1,
      "note": 38,
      "start": 0.0619,
      "duration": 0.0011,
      "velocity": 127,
      "chip": "ym2612"
    },
    {
      "channel": 1,
      "note": 38,
      "start": 0.0631,
      "duration": 0.0008,
      "velocity": 127,
      "chip": "ym2612"
    },
    {
      "channel": 0,
      "note": 58,
      "start": 0.0638,
      "duration": 0.0016,
      "velocity": 115,
      "chip": "ym2612"
    },
    {
      "channel": 1,
      "note": 38,
      "start": 0.0641,
      "duration": 0.001,
      "velocity": 127,
      "chip": "ym2612"
    },
    {
      "channel": 1,
      "note": 38,
      "start": 0.0653,
      "duration": 0.0004,
      "velocity": 127,
      "chip": "ym2612"
    },
    {
      "channel": 0,
      "note": 43,
      "start": 0.0656,
      "duration": 0.0025,
      "velocity": 115,
      "chip": "ym2612"
    },
    {
      "channel": 1,
      "note": 38,
      "start": 0.0659,
      "duration": 0.0018,
      "velocity": 127,
      "chip": "ym2612"
    },
    {
      "channel": 3,
      "note": 74,
      "start": 0.0664,
      "duration": 0.0063,
      "velocity": 123,
      "chip": "ym2612"
    },
    {
      "channel": 4,
      "note": 67,
      "start": 0.0668,
      "duration": 0.0011,
      "velocity": 111,
      "chip": "ym2612"
    },
    {
      "channel": 4,
      "note": 62,
      "start": 0.068,
      "duration": 0.0006,
      "velocity": 111,
      "chip": "ym2612"
    },
    {
      "channel": 0,
      "note": 55,
      "start": 0.0682,
      "duration": 0.0018,
      "velocity": 115,
      "chip": "ym2612"
    },
    {
      "channel": 1,
      "note": 38,
      "start": 0.0684,
      "duration": 0.0012,
      "velocity": 127,
      "chip": "ym2612"
    },
    {
      "channel": 4,
      "note": 67,
      "start": 0.0687,
      "duration": 0.001,
      "velocity": 111,
      "chip": "ym2612"
    },
    {
      "channel": 1,
      "note": 38,
      "start": 0.0696,
      "duration": 0.0005,
      "velocity": 127,
      "chip": "ym2612"
    },
    {
      "channel": 4,
      "note": 63,
      "start": 0.0699,
      "duration": 0.0006,
      "velocity": 111,
      "chip": "ym2612"
    },
    {
      "channel": 0,
      "note": 43,
      "start": 0.0701,
      "duration": 0.002,
      "velocity": 115,
      "chip": "ym2612"
    },
    {
      "channel": 1,
      "note": 38,
      "start": 0.0703,
      "duration": 0.0013,
      "velocity": 127,
      "chip": "ym2612"
    },
    {
      "channel": 4,
      "note": 67,
      "start": 0.0707,
      "duration": 0.001,
      "velocity": 111,
      "chip": "ym2612"
    },
    {
      "channel": 4,
      "note": 61,
      "start": 0.0719,
      "duration": 0.0012,
      "velocity": 111,
      "chip": "ym2612"
    },
    {
      "channel": 0,
      "note": 56,
      "start": 0.0724,
      "duration": 0.002,
      "velocity": 115,
      "chip": "ym2612"
    },
    {
      "channel": 1,
      "note": 38,
      "start": 0.0726,
      "duration": 0.0014,
      "velocity": 127,
      "chip": "ym2612"
    },
    {
      "channel": 3,
      "note": 73,
      "start": 0.073,
      "duration": 0.0063,
      "velocity": 123,
      "chip": "ym2612"
    },
    {
      "channel": 4,
      "note": 67,
      "start": 0.0732,
      "duration": 0.0008,
      "velocity": 111,
      "chip": "ym2612"
    },
    {
      "channel": 4,
      "note": 63,
      "start": 0.0743,
      "duration": 0.0005,
      "velocity": 111,
      "chip": "ym2612"
    },
    {
      "channel": 0,
      "note": 43,
      "start": 0.0745,
      "duration": 0.0021,
      "velocity": 115,
      "chip": "ym2612"
    },
    {
      "channel": 1,
      "note": 38,
      "start": 0.0747,
      "duration": 0.0013,
      "velocity": 127,
      "chip": "ym2612"
    },
    {
      "channel": 4,
      "note": 67,
      "start": 0.075,
      "duration": 0.0012,
      "velocity": 111,
      "chip": "ym2612"
    },
    {
      "channel": 1,
      "note": 38,
      "start": 0.0762,
      "duration": 0.0007,
      "velocity": 127,
      "chip": "ym2612"
    },
    {
      "channel": 4,
      "note": 61,
      "start": 0.0765,
      "duration": 0.0008,
      "velocity": 111,
      "chip": "ym2612"
    },
    {
      "channel": 0,
      "note": 55,
      "start": 0.0768,
      "duration": 0.0019,
      "velocity": 115,
      "chip": "ym2612"
    },
    {
      "channel": 1,
      "note": 38,
      "start": 0.0771,
      "duration": 0.0011,
      "velocity": 127,
      "chip": "ym2612"
    },
    {
      "channel": 4,
      "note": 67,
      "start": 0.0775,
      "duration": 0.001,
      "velocity": 111,
      "chip": "ym2612"
    },
    {
      "channel": 1,
      "note": 38,
      "start": 0.0783,
      "duration": 0.0006,
      "velocity": 127,
      "chip": "ym2612"
    },
    {
      "channel": 4,
      "note": 62,
      "start": 0.0786,
      "duration": 0.001,
      "velocity": 111,
      "chip": "ym2612"
    },
    {
      "channel": 0,
      "note": 43,
      "start": 0.0789,
      "duration": 0.002,
      "velocity": 115,
      "chip": "ym2612"
    },
    {
      "channel": 1,
      "note": 38,
      "start": 0.0792,
      "duration": 0.0014,
      "velocity": 127,
      "chip": "ym2612"
    },
    {
      "channel": 3,
      "note": 72,
      "start": 0.0795,
      "duration": 0.0062,
      "velocity": 123,
      "chip": "ym2612"
    },
    {
      "channel": 4,
      "note": 67,
      "start": 0.0798,
      "duration": 0.0009,
      "velocity": 111,
      "chip": "ym2612"
    },
    {
      "channel": 4,
      "note": 61,
      "start": 0.0808,
      "duration": 0.0007,
      "velocity": 111,
      "chip": "ym2612"
    },
    {
      "channel": 0,
      "note": 53,
      "start": 0.0811,
      "duration": 0.0018,
      "velocity": 115,
      "chip": "ym2612"
    },
    {
      "channel": 1,
      "note": 38,
      "start": 0.0814,
      "duration": 0.0012,
      "velocity": 127,
      "chip": "ym2612"
    },
    {
      "channel": 4,
      "note": 67,
      "start": 0.0817,
      "duration": 0.001,
      "velocity": 111,
      "chip": "ym2612"
    },
    {
      "channel": 1,
      "note": 38,
      "start": 0.0826,
      "duration": 0.0005,
      "velocity": 127,
      "chip": "ym2612"
    },
    {
      "channel": 4,
      "note": 61,
      "start": 0.0829,
      "duration": 0.0007,
      "velocity": 111,
      "chip": "ym2612"
    },
    {
      "channel": 0,
      "note": 43,
      "start": 0.0831,
      "duration": 0.0022,
      "velocity": 115,
      "chip": "ym2612"
    },
    {
      "channel": 1,
      "note": 38,
      "start": 0.0834,
      "duration": 0.0013,
      "velocity": 127,
      "chip": "ym2612"
    },
    {
      "channel": 4,
      "note": 67,
      "start": 0.0838,
      "duration": 0.0012,
      "velocity": 111,
      "chip": "ym2612"
    },
    {
      "channel": 1,
      "note": 38,
      "start": 0.0849,
      "duration": 0.0006,
      "velocity": 127,
      "chip": "ym2612"
    },
    {
      "channel": 4,
      "note": 64,
      "start": 0.0852,
      "duration": 0.0009,
      "velocity": 111,
      "chip": "ym2612"
    },
    {
      "channel": 0,
      "note": 55,
      "start": 0.0855,
      "duration": 0.0021,
      "velocity": 115,
      "chip": "ym2612"
    },
    {
      "channel": 3,
      "note": 71,
      "start": 0.086,
      "duration": 0.0061,
      "velocity": 123,
      "chip": "ym2612"
    },
    {
      "channel": 4,
      "note": 67,
      "start": 0.0862,
      "duration": 0.0011,
      "velocity": 111,
      "chip": "ym2612"
    },
    {
      "channel": 1,
      "note": 38,
      "start": 0.0873,
      "duration": 0.0005,
      "velocity": 127,
      "chip": "ym2612"
    },
    {
      "channel": 4,
      "note": 62,
      "start": 0.0875,
      "duration": 0.0005,
      "velocity": 111,
      "chip": "ym2612"
    },
    {
      "channel": 0,
      "note": 43,
      "start": 0.0877,
      "duration": 0.002,
      "velocity": 115,
      "chip": "ym2612"
    },
    {
      "channel": 1,
      "note": 38,
      "start": 0.0879,
      "duration": 0.0012,
      "velocity": 127,
      "chip": "ym2612"
    },
    {
      "channel": 4,
      "note": 67,
      "start": 0.0882,
      "duration": 0.0009,
      "velocity": 111,
      "chip": "ym2612"
    },
    {
      "channel": 4,
      "note": 63,
      "start": 0.0894,
      "duration": 0.001,
      "velocity": 111,
      "chip": "ym2612"
    },
    {
      "channel": 0,
      "note": 56,
      "start": 0.0899,
      "duration": 0.0017,
      "velocity": 115,
      "chip": "ym2612"
    },
    {
      "channel": 1,
      "note": 38,
      "start": 0.0902,
      "duration": 0.0011,
      "velocity": 127,
      "chip": "ym2612"
    },
    {
      "channel": 4,
      "note": 67,
      "start": 0.0906,
      "duration": 0.0007,
      "velocity": 111,
      "chip": "ym2612"
    },
    {
      "channel": 4,
      "note": 61,
      "start": 0.0916,
      "duration": 0.0009,
      "velocity": 111,
      "chip": "ym2612"
    },
    {
      "channel": 0,
      "note": 43,
      "start": 0.0917,
      "duration": 0.0023,
      "velocity": 115,
      "chip": "ym2612"
    },
    {
      "channel": 1,
      "note": 38,
      "start": 0.092,
      "duration": 0.0015,
      "velocity": 127,
      "chip": "ym2612"
    },
    {
      "channel": 3,
      "note": 70,
      "start": 0.0923,
      "duration": 0.004,
      "velocity": 123,
      "chip": "ym2612"
    },
    {
      "channel": 4,
      "note": 67,
      "start": 0.0927,
      "duration": 0.001,
      "velocity": 111,
      "chip": "ym2612"
    },
    {
      "channel": 1,
      "note": 38,
      "start": 0.0936,
      "duration": 0.0005,
      "velocity": 127,
      "chip": "ym2612"
    },
    {
      "channel": 4,
      "note": 64,
      "start": 0.0939,
      "duration": 0.0007,
      "velocity": 111,
      "chip": "ym2612"
    },
    {
      "channel": 0,
      "note": 55,
      "start": 0.0941,
      "duration": 0.0017,
      "velocity": 115,
      "chip": "ym2612"
    },
    {
      "channel": 1,
      "note": 38,
      "start": 0.0944,
      "duration": 0.0011,
      "velocity": 127,
      "chip": "ym2612"
    },
    {
      "channel": 4,
      "note": 67,
      "start": 0.0947,
      "duration": 0.0008,
      "velocity": 111,
      "chip": "ym2612"
    },
    {
      "channel": 4,
      "note": 63,
      "start": 0.0958,
      "duration": 0.001,
      "velocity": 111,
      "chip": "ym2612"
    },
    {
      "channel": 0,
      "note": 43,
      "start": 0.0959,
      "duration": 0.0024,
      "velocity": 115,
      "chip": "ym2612"
    },
    {
      "channel": 1,
      "note": 38,
      "start": 0.0963,
      "duration": 0.0016,
      "velocity": 127,
      "chip": "ym2612"
    },
    {
      "channel": 3,
      "note": 69,
      "start": 0.0966,
      "duration": 0.006,
      "velocity": 123,
      "chip": "ym2612"
    },
    {
      "channel": 4,
      "note": 67,
      "start": 0.0969,
      "duration": 0.0011,
      "velocity": 111,
      "chip": "ym2612"
    },
    {
      "channel": 1,
      "note": 38,
      "start": 0.098,
      "duration": 0.0006,
      "velocity": 127,
      "chip": "ym2612"
    },
    {
      "channel": 4,
      "note": 62,
      "start": 0.0983,
      "duration": 0.0007,
      "velocity": 111,
      "chip": "ym2612"
    },
    {
      "channel": 0,
      "note": 58,
      "start": 0.0985,
      "duration": 0.0035,
      "velocity": 115,
      "chip": "ym2612"
    },
    {
      "channel": 1,
      "note": 38,
      "start": 0.0988,
      "duration": 0.0017,
      "velocity": 127,
      "chip": "ym2612"
    },
    {
      "channel": 4,
      "note": 67,
      "start": 0.0992,
      "duration": 0.0017,
      "velocity": 111,
      "chip": "ym2612"
    },
    {
      "channel": 1,
      "note": 38,
      "start": 0.1008,
      "duration": 0.0014,
      "velocity": 127,
      "chip": "ym2612"
    },
    {
      "channel": 4,
      "note": 64,
      "start": 0.1012,
      "duration": 0.0017,
      "velocity": 111,
      "chip": "ym2612"
    },
    {
      "channel": 0,
      "note": 43,
      "start": 0.1021,
      "duration": 0.0022,
      "velocity": 115,
      "chip": "ym2612"
    },
    {
      "channel": 1,
      "note": 38,
      "start": 0.1024,
      "duration": 0.0016,
      "velocity": 127,
      "chip": "ym2612"
    },
    {
      "channel": 3,
      "note": 74,
      "start": 0.1028,
      "duration": 0.0062,
      "velocity": 123,
      "chip": "ym2612"
    },
    {
      "channel": 4,
      "note": 68,
      "start": 0.1031,
      "duration": 0.0011,
      "velocity": 111,
      "chip": "ym2612"
    },
    {
      "channel": 4,
      "note": 63,
      "start": 0.1043,
      "duration": 0.0006,
      "velocity": 111,
      "chip": "ym2612"
    },
    {
      "channel": 0,
      "note": 55,
      "start": 0.1045,
      "duration": 0.0018,
      "velocity": 115,
      "chip": "ym2612"
    },
    {
      "channel": 1,
      "note": 38,
      "start": 0.1047,
      "duration": 0.0012,
      "velocity": 127,
      "chip": "ym2612"
    },
    {
      "channel": 4,
      "note": 68,
      "start": 0.105,
      "duration": 0.001,
      "velocity": 111,
      "chip": "ym2612"
    },
    {
      "channel": 1,
      "note": 38,
      "start": 0.1059,
      "duration": 0.0005,
      "velocity": 127,
      "chip": "ym2612"
    },
    {
      "channel": 4,
      "note": 64,
      "start": 0.1062,
      "duration": 0.0006,
      "velocity": 111,
      "chip": "ym2612"
    },
    {
      "channel": 0,
      "note": 43,
      "start": 0.1064,
      "duration": 0.002,
      "velocity": 115,
      "chip": "ym2612"
    },
    {
      "channel": 1,
      "note": 38,
      "start": 0.1066,
      "duration": 0.0013,
      "velocity": 127,
      "chip": "ym2612"
    },
    {
      "channel": 4,
      "note": 68,
      "start": 0.107,
      "duration": 0.001,
      "velocity": 111,
      "chip": "ym2612"
    },
    {
      "channel": 4,
      "note": 62,
      "start": 0.1082,
      "duration": 0.0012,
      "velocity": 111,
      "chip": "ym2612"
    },
    {
      "channel": 0,
      "note": 56,
      "start": 0.1087,
      "duration": 0.002,
      "velocity": 115,
      "chip": "ym2612"
    },
    {
      "channel": 1,
      "note": 38,
      "start": 0.1089,
      "duration": 0.0014,
      "velocity": 127,
      "chip": "ym2612"
    },
    {
      "channel": 3,
      "note": 73,
      "start": 0.1093,
      "duration": 0.0063,
      "velocity": 123,
      "chip": "ym2612"
    },
    {
      "channel": 4,
      "note": 68,
      "start": 0.1095,
      "duration": 0.0008,
      "velocity": 111,
      "chip": "ym2612"
    },
    {
      "channel": 4,
      "note": 64,
      "start": 0.1106,
      "duration": 0.0005,
      "velocity": 111,
      "chip": "ym2612"
    },
    {
      "channel": 0,
      "note": 43,
      "start": 0.1108,
      "duration": 0.0021,
      "velocity": 115,
      "chip": "ym2612"
    },
    {
      "channel": 1,
      "note": 38,
      "start": 0.111,
      "duration": 0.0013,
      "velocity": 127,
      "chip": "ym2612"
    },
    {
      "channel": 4,
      "note": 68,
      "start": 0.1113,
      "duration": 0.0012,
      "velocity": 111,
      "chip": "ym2612"
    },
    {
      "channel": 1,
      "note": 38,
      "start": 0.1125,
      "duration": 0.0007,
      "velocity": 127,
      "chip": "ym2612"
    },
    {
      "channel": 4,
      "note": 62,
      "start": 0.1128,
      "duration": 0.0008,
      "velocity": 111,
      "chip": "ym2612"
    },
    {
      "channel": 0,
      "note": 55,
      "start": 0.1131,
      "duration": 0.0019,
      "velocity": 115,
      "chip": "ym2612"
    },
    {
      "channel": 1,
      "note": 38,
      "start": 0.1134,
      "duration": 0.0011,
      "velocity": 127,
      "chip": "ym2612"
    },
    {
      "channel": 4,
      "note": 68,
      "start": 0.1138,
      "duration": 0.001,
      "velocity": 111,
      "chip": "ym2612"
    },
    {
      "channel": 1,
      "note": 38,
      "start": 0.1146,
      "duration": 0.0006,
      "velocity": 127,
      "chip": "ym2612"
    },
    {
      "channel": 4,
      "note": 63,
      "start": 0.1149,
      "duration": 0.001,
      "velocity": 111,
      "chip": "ym2612"
    },
    {
      "channel": 0,
      "note": 43,
      "start": 0.1152,
      "duration": 0.002,
      "velocity": 115,
      "chip": "ym2612"
    },
    {
      "channel": 1,
      "note": 38,
      "start": 0.1155,
      "duration": 0.0014,
      "velocity": 127,
      "chip": "ym2612"
    },
    {
      "channel": 3,
      "note": 72,
      "start": 0.1159,
      "duration": 0.0062,
      "velocity": 123,
      "chip": "ym2612"
    },
    {
      "channel": 4,
      "note": 68,
      "start": 0.1161,
      "duration": 0.0009,
      "velocity": 111,
      "chip": "ym2612"
    },
    {
      "channel": 4,
      "note": 62,
      "start": 0.1171,
      "duration": 0.0007,
      "velocity": 111,
      "chip": "ym2612"
    },
    {
      "channel": 0,
      "note": 53,
      "start": 0.1174,
      "duration": 0.0018,
      "velocity": 115,
      "chip": "ym2612"
    },
    {
      "channel": 1,
      "note": 38,
      "start": 0.1177,
      "duration": 0.0012,
      "velocity": 127,
      "chip": "ym2612"
    },
    {
      "channel": 4,
      "note": 68,
      "start": 0.118,
      "duration": 0.001,
      "velocity": 111,
      "chip": "ym2612"
    },
    {
      "channel": 1,
      "note": 38,
      "start": 0.1189,
      "duration": 0.0005,
      "velocity": 127,
      "chip": "ym2612"
    },
    {
      "channel": 4,
      "note": 62,
      "start": 0.1192,
      "duration": 0.0007,
      "velocity": 111,
      "chip": "ym2612"
    },
    {
      "channel": 0,
      "note": 43,
      "start": 0.1194,
      "duration": 0.0022,
      "velocity": 115,
      "chip": "ym2612"
    },
    {
      "channel": 1,
      "note": 38,
      "start": 0.1197,
      "duration": 0.0013,
      "velocity": 127,
      "chip": "ym2612"
    },
    {
      "channel": 4,
      "note": 68,
      "start": 0.1201,
      "duration": 0.0012,
      "velocity": 111,
      "chip": "ym2612"
    },
    {
      "channel": 1,
      "note": 38,
      "start": 0.1212,
      "duration": 0.0006,
      "velocity": 127,
      "chip": "ym2612"
    },
    {
      "channel": 4,
      "note": 65,
      "start": 0.1215,
      "duration": 0.0009,
      "velocity": 111,
      "chip": "ym2612"
    },
    {
      "channel": 0,
      "note": 55,
      "start": 0.1218,
      "duration": 0.0021,
      "velocity": 115,
      "chip": "ym2612"
    },
    {
      "channel": 3,
      "note": 71,
      "start": 0.1223,
      "duration": 0.0061,
      "velocity": 123,
      "chip": "ym2612"
    },
    {
      "channel": 4,
      "note": 68,
      "start": 0.1225,
      "duration": 0.0011,
      "velocity": 111,
      "chip": "ym2612"
    },
    {
      "channel": 1,
      "note": 38,
      "start": 0.1236,
      "duration": 0.0005,
      "velocity": 127,
      "chip": "ym2612"
    },
    {
      "channel": 4,
      "note": 63,
      "start": 0.1238,
      "duration": 0.0005,
      "velocity": 111,
      "chip": "ym2612"
    },
    {
      "channel": 0,
      "note": 43,
      "start": 0.124,
      "duration": 0.002,
      "velocity": 115,
      "chip": "ym2612"
    },
    {
      "channel": 1,
      "note": 38,
      "start": 0.1242,
      "duration": 0.0012,
      "velocity": 127,
      "chip": "ym2612"
    },
    {
      "channel": 4,
      "note": 68,
      "start": 0.1245,
      "duration": 0.0009,
      "velocity": 111,
      "chip": "ym2612"
    },
    {
      "channel": 4,
      "note": 64,
      "start": 0.1257,
      "duration": 0.001,
      "velocity": 111,
      "chip": "ym2612"
    },
    {
      "channel": 0,
      "note": 56,
      "start": 0.1262,
      "duration": 0.0017,
      "velocity": 115,
      "chip": "ym2612"
    },
    {
      "channel": 1,
      "note": 38,
      "start": 0.1265,
      "duration": 0.0011,
      "velocity": 127,
      "chip": "ym2612"
    },
    {
      "channel": 4,
      "note": 68,
      "start": 0.1269,
      "duration": 0.0007,
      "velocity": 111,
      "chip": "ym2612"
    },
    {
      "channel": 4,
      "note": 62,
      "start": 0.1279,
      "duration": 0.0009,
      "velocity": 111,
      "chip": "ym2612"
    },
    {
      "channel": 0,
      "note": 43,
      "start": 0.128,
      "duration": 0.0023,
      "velocity": 115,
      "chip": "ym2612"
    },
    {
      "channel": 1,
      "note": 38,
      "start": 0.1283,
      "duration": 0.0015,
      "velocity": 127,
      "chip": "ym2612"
    },
    {
      "channel": 3,
      "note": 70,
      "start": 0.1286,
      "duration": 0.004,
      "velocity": 123,
      "chip": "ym2612"
    },
    {
      "channel": 4,
      "note": 68,
      "start": 0.129,
      "duration": 0.001,
      "velocity": 111,
      "chip": "ym2612"
    },
    {
      "channel": 1,
      "note": 38,
      "start": 0.1299,
      "duration": 0.0005,
      "velocity": 127,
      "chip": "ym2612"
    },
    {
      "channel": 4,
      "note": 65,
      "start": 0.1302,
      "duration": 0.0007,
      "velocity": 111,
      "chip": "ym2612"
    },
    {
      "channel": 0,
      "note": 55,
      "start": 0.1304,
      "duration": 0.0017,
      "velocity": 115,
      "chip": "ym2612"
    },
    {
      "channel": 1,
      "note": 38,
      "start": 0.1307,
      "duration": 0.0011,
      "velocity": 127,
      "chip": "ym2612"
    },
    {
      "channel": 4,
      "note": 68,
      "start": 0.131,
      "duration": 0.0008,
      "velocity": 111,
      "chip": "ym2612"
    },
    {
      "channel": 4,
      "note": 64,
      "start": 0.1321,
      "duration": 0.001,
      "velocity": 111,
      "chip": "ym2612"
    },
    {
      "channel": 0,
      "note": 55,
      "start": 0.1322,
      "duration": 0.0024,
      "velocity": 115,
      "chip": "ym2612"
    },
    {
      "channel": 1,
      "note": 38,
      "start": 0.1326,
      "duration": 0.0016,
      "velocity": 127,
      "chip": "ym2612"
    },
    {
      "channel": 3,
      "note": 69,
      "start": 0.1329,
      "duration": 0.0045,
      "velocity": 123,
      "chip": "ym2612"
    },
    {
      "channel": 4,
      "note": 68,
      "start": 0.1332,
      "duration": 0.0011,
      "velocity": 111,
      "chip": "ym2612"
    },
    {
      "channel": 1,
      "note": 38,
      "start": 0.1343,
      "duration": 0.0007,
      "velocity": 127,
      "chip": "ym2612"
    },
    {
      "channel": 4,
      "note": 63,
      "start": 0.1346,
      "duration": 0.0007,
      "velocity": 111,
      "chip": "ym2612"
    },
    {
      "channel": 0,
      "note": 58,
      "start": 0.1349,
      "duration": 0.002,
      "velocity": 115,
      "chip": "ym2612"
    },
    {
      "channel": 1,
      "note": 38,
      "start": 0.1352,
      "duration": 0.0012,
      "velocity": 127,
      "chip": "ym2612"
    },
    {
      "channel": 4,
      "note": 68,
      "start": 0.1356,
      "duration": 0.001,
      "velocity": 111,
      "chip": "ym2612"
    },
    {
      "channel": 1,
      "note": 38,
      "start": 0.1365,
      "duration": 0.0006,
      "velocity": 127,
      "chip": "ym2612"
    },
    {
      "channel": 4,
      "note": 65,
      "start": 0.1368,
      "duration": 0.001,
      "velocity": 111,
      "chip": "ym2612"
    },
    {
      "channel": 0,
      "note": 48,
      "start": 0.137,
      "duration": 0.0022,
      "velocity": 115,
      "chip": "ym2612"
    },
    {
      "channel": 1,
      "note": 38,
      "start": 0.1372,
      "duration": 0.0017,
      "velocity": 127,
      "chip": "ym2612"
    },
    {
      "channel": 3,
      "note": 74,
      "start": 0.1377,
      "duration": 0.0063,
      "velocity": 123,
      "chip": "ym2612"
    },
    {
      "channel": 4,
      "note": 67,
      "start": 0.138,
      "duration": 0.001,
      "velocity": 111,
      "chip": "ym2612"
    },
    {
      "channel": 4,
      "note": 62,
      "start": 0.1391,
      "duration": 0.0007,
      "velocity": 111,
      "chip": "ym2612"
    },
    {
      "channel": 0,
      "note": 60,
      "start": 0.1393,
      "duration": 0.0019,
      "velocity": 115,
      "chip": "ym2612"
    },
    {
      "channel": 1,
      "note": 38,
      "start": 0.1396,
      "duration": 0.0012,
      "velocity": 127,
      "chip": "ym2612"
    },
    {
      "channel": 4,
      "note": 67,
      "start": 0.14,
      "duration": 0.001,
      "velocity": 111,
      "chip": "ym2612"
    },
    {
      "channel": 1,
      "note": 38,
      "start": 0.1409,
      "duration": 0.0005,
      "velocity": 127,
      "chip": "ym2612"
    },
    {
      "channel": 4,
      "note": 63,
      "start": 0.1412,
      "duration": 0.0006,
      "velocity": 111,
      "chip": "ym2612"
    },
    {
      "channel": 0,
      "note": 48,
      "start": 0.1414,
      "duration": 0.002,
      "velocity": 115,
      "chip": "ym2612"
    },
    {
      "channel": 1,
      "note": 38,
      "start": 0.1417,
      "duration": 0.0012,
      "velocity": 127,
      "chip": "ym2612"
    },
    {
      "channel": 4,
      "note": 67,
      "start": 0.142,
      "duration": 0.0009,
      "velocity": 111,
      "chip": "ym2612"
    },
    {
      "channel": 4,
      "note": 61,
      "start": 0.1432,
      "duration": 0.0012,
      "velocity": 111,
      "chip": "ym2612"
    },
    {
      "channel": 0,
      "note": 61,
      "start": 0.1437,
      "duration": 0.002,
      "velocity": 115,
      "chip": "ym2612"
    },
    {
      "channel": 1,
      "note": 38,
      "start": 0.1439,
      "duration": 0.0014,
      "velocity": 127,
      "chip": "ym2612"
    },
    {
      "channel": 3,
      "note": 73,
      "start": 0.1443,
      "duration": 0.0063,
      "velocity": 123,
      "chip": "ym2612"
    },
    {
      "channel": 4,
      "note": 67,
      "start": 0.1446,
      "duration": 0.0008,
      "velocity": 111,
      "chip": "ym2612"
    },
    {
      "channel": 4,
      "note": 63,
      "start": 0.1456,
      "duration": 0.0005,
      "velocity": 111,
      "chip": "ym2612"
    },
    {
      "channel": 0,
      "note": 48,
      "start": 0.1458,
      "duration": 0.0021,
      "velocity": 115,
      "chip": "ym2612"
    },
    {
      "channel": 1,
      "note": 38,
      "start": 0.146,
      "duration": 0.0013,
      "velocity": 127,
      "chip": "ym2612"
    },
    {
      "channel": 4,
      "note": 67,
      "start": 0.1463,
      "duration": 0.0012,
      "velocity": 111,
      "chip": "ym2612"
    },
    {
      "channel": 1,
      "note": 38,
      "start": 0.1475,
      "duration": 0.0007,
      "velocity": 127,
      "chip": "ym2612"
    },
    {
      "channel": 4,
      "note": 61,
      "start": 0.1478,
      "duration": 0.0008,
      "velocity": 111,
      "chip": "ym2612"
    },
    {
      "channel": 0,
      "note": 60,
      "start": 0.1481,
      "duration": 0.0019,
      "velocity": 115,
      "chip": "ym2612"
    },
    {
      "channel": 1,
      "note": 38,
      "start": 0.1484,
      "duration": 0.0011,
      "velocity": 127,
      "chip": "ym2612"
    },
    {
      "channel": 4,
      "note": 67,
      "start": 0.1488,
      "duration": 0.001,
      "velocity": 111,
      "chip": "ym2612"
    },
    {
      "channel": 1,
      "note": 38,
      "start": 0.1496,
      "duration": 0.0006,
      "velocity": 127,
      "chip": "ym2612"
    },
    {
      "channel": 4,
      "note": 62,
      "start": 0.15,
      "duration": 0.001,
      "velocity": 111,
      "chip": "ym2612"
    },
    {
      "channel": 0,
      "note": 48,
      "start": 0.1502,
      "duration": 0.002,
      "velocity": 115,
      "chip": "ym2612"
    },
    {
      "channel": 1,
      "note": 38,
      "start": 0.1505,
      "duration": 0.0014,
      "velocity": 127,
      "chip": "ym2612"
    },
    {
      "channel": 3,
      "note": 72,
      "start": 0.1509,
      "duration": 0.0062,
      "velocity": 123,
      "chip": "ym2612"
    },
    {
      "channel": 4,
      "note": 67,
      "start": 0.1511,
      "duration": 0.0009,
      "velocity": 111,
      "chip": "ym2612"
    },
    {
      "channel": 4,
      "note": 61,
      "start": 0.1522,
      "duration": 0.0007,
      "velocity": 111,
      "chip": "ym2612"
    },
    {
      "channel": 0,
      "note": 58,
      "start": 0.1524,
      "duration": 0.0018,
      "velocity": 115,
      "chip": "ym2612"
    },
    {
      "channel": 1,
      "note": 38,
      "start": 0.1527,
      "duration": 0.0012,
      "velocity": 127,
      "chip": "ym2612"
    },
    {
      "channel": 4,
      "note": 67,
      "start": 0.1531,
      "duration": 0.001,
      "velocity": 111,
      "chip": "ym2612"
    },
    {
      "channel": 1,
      "note": 38,
      "start": 0.1539,
      "duration": 0.0005,
      "velocity": 127,
      "chip": "ym2612"
    },
    {
      "channel": 4,
      "note": 61,
      "start": 0.1542,
      "duration": 0.0007,
      "velocity": 111,
      "chip": "ym2612"
    },
    {
      "channel": 0,
      "note": 48,
      "start": 0.1544,
      "duration": 0.0022,
      "velocity": 115,
      "chip": "ym2612"
    },
    {
      "channel": 1,
      "note": 38,
      "start": 0.1547,
      "duration": 0.0013,
      "velocity": 127,
      "chip": "ym2612"
    },
    {
      "channel": 4,
      "note": 67,
      "start": 0.1551,
      "duration": 0.0012,
      "velocity": 111,
      "chip": "ym2612"
    },
    {
      "channel": 1,
      "note": 38,
      "start": 0.1562,
      "duration": 0.0006,
      "velocity": 127,
      "chip": "ym2612"
    },
    {
      "channel": 4,
      "note": 64,
      "start": 0.1565,
      "duration": 0.0009,
      "velocity": 111,
      "chip": "ym2612"
    },
    {
      "channel": 0,
      "note": 60,
      "start": 0.1568,
      "duration": 0.0021,
      "velocity": 115,
      "chip": "ym2612"
    },
    {
      "channel": 3,
      "note": 71,
      "start": 0.1573,
      "duration": 0.0061,
      "velocity": 123,
      "chip": "ym2612"
    },
    {
      "channel": 4,
      "note": 67,
      "start": 0.1576,
      "duration": 0.0011,
      "velocity": 111,
      "chip": "ym2612"
    },
    {
      "channel": 1,
      "note": 38,
      "start": 0.1586,
      "duration": 0.0005,
      "velocity": 127,
      "chip": "ym2612"
    },
    {
      "channel": 4,
      "note": 62,
      "start": 0.1588,
      "duration": 0.0005,
      "velocity": 111,
      "chip": "ym2612"
    },
    {
      "channel": 0,
      "note": 48,
      "start": 0.159,
      "duration": 0.002,
      "velocity": 115,
      "chip": "ym2612"
    },
    {
      "channel": 1,
      "note": 38,
      "start": 0.1593,
      "duration": 0.0012,
      "velocity": 127,
      "chip": "ym2612"
    },
    {
      "channel": 4,
      "note": 67,
      "start": 0.1595,
      "duration": 0.0009,
      "velocity": 111,
      "chip": "ym2612"
    },
    {
      "channel": 4,
      "note": 63,
      "start": 0.1607,
      "duration": 0.001,
      "velocity": 111,
      "chip": "ym2612"
    },
    {
      "channel": 0,
      "note": 61,
      "start": 0.1612,
      "duration": 0.0017,
      "velocity": 115,
      "chip": "ym2612"
    },
    {
      "channel": 1,
      "note": 38,
      "start": 0.1615,
      "duration": 0.0011,
      "velocity": 127,
      "chip": "ym2612"
    },
    {
      "channel": 4,
      "note": 67,
      "start": 0.1619,
      "duration": 0.0007,
      "velocity": 111,
      "chip": "ym2612"
    },
    {
      "channel": 4,
      "note": 61,
      "start": 0.1629,
      "duration": 0.0009,
      "velocity": 111,
      "chip": "ym2612"
    },
    {
      "channel": 0,
      "note": 48,
      "start": 0.163,
      "duration": 0.0023,
      "velocity": 115,
      "chip": "ym2612"
    },
    {
      "channel": 1,
      "note": 38,
      "start": 0.1633,
      "duration": 0.0015,
      "velocity": 127,
      "chip": "ym2612"
    },
    {
      "channel": 3,
      "note": 70,
      "start": 0.1637,
      "duration": 0.004,
      "velocity": 123,
      "chip": "ym2612"
    },
    {
      "channel": 4,
      "note": 67,
      "start": 0.164,
      "duration": 0.001,
      "velocity": 111,
      "chip": "ym2612"
    },
    {
      "channel": 1,
      "note": 38,
      "start": 0.1649,
      "duration": 0.0005,
      "velocity": 127,
      "chip": "ym2612"
    },
    {
      "channel": 4,
      "note": 64,
      "start": 0.1652,
      "duration": 0.0007,
      "velocity": 111,
      "chip": "ym2612"
    },
    {
      "channel": 0,
      "note": 60,
      "start": 0.1654,
      "duration": 0.0017,
      "velocity": 115,
      "chip": "ym2612"
    },
    {
      "channel": 1,
      "note": 38,
      "start": 0.1657,
      "duration": 0.0011,
      "velocity": 127,
      "chip": "ym2612"
    },
    {
      "channel": 4,
      "note": 67,
      "start": 0.1661,
      "duration": 0.0008,
      "velocity": 111,
      "chip": "ym2612"
    },
    {
      "channel": 4,
      "note": 63,
      "start": 0.1671,
      "duration": 0.001,
      "velocity": 111,
      "chip": "ym2612"
    },
    {
      "channel": 0,
      "note": 48,
      "start": 0.1673,
      "duration": 0.0024,
      "velocity": 115,
      "chip": "ym2612"
    },
    {
      "channel": 1,
      "note": 38,
      "start": 0.1676,
      "duration": 0.0016,
      "velocity": 127,
      "chip": "ym2612"
    },
    {
      "channel": 3,
      "note": 69,
      "start": 0.1679,
      "duration": 0.0045,
      "velocity": 123,
      "chip": "ym2612"
    },
    {
      "channel": 4,
      "note": 67,
      "start": 0.1683,
      "duration": 0.0011,
      "velocity": 111,
      "chip": "ym2612"
    },
    {
      "channel": 1,
      "note": 38,
      "start": 0.1693,
      "duration": 0.0007,
      "velocity": 127,
      "chip": "ym2612"
    },
    {
      "channel": 4,
      "note": 62,
      "start": 0.1696,
      "duration": 0.0007,
      "velocity": 111,
      "chip": "ym2612"
    },
    {
      "channel": 0,
      "note": 63,
      "start": 0.1699,
      "duration": 0.002,
      "velocity": 115,
      "chip": "ym2612"
    },
    {
      "channel": 1,
      "note": 38,
      "start": 0.1702,
      "duration": 0.0012,
      "velocity": 127,
      "chip": "ym2612"
    },
    {
      "channel": 4,
      "note": 67,
      "start": 0.1706,
      "duration": 0.001,
      "velocity": 111,
      "chip": "ym2612"
    },
    {
      "channel": 1,
      "note": 38,
      "start": 0.1715,
      "duration": 0.0006,
      "velocity": 127,
      "chip": "ym2612"
    },
    {
      "channel": 4,
      "note": 64,
      "start": 0.1718,
      "duration": 0.001,
      "velocity": 111,
      "chip": "ym2612"
    },
    {
      "channel": 0,
      "note": 48,
      "start": 0.172,
      "duration": 0.0022,
      "velocity": 115,
      "chip": "ym2612"
    },
    {
      "channel": 1,
      "note": 38,
      "start": 0.1722,
      "duration": 0.0017,
      "velocity": 127,
      "chip": "ym2612"
    },
    {
      "channel": 3,
      "note": 74,
      "start": 0.1727,
      "duration": 0.0063,
      "velocity": 123,
      "chip": "ym2612"
    },
    {
      "channel": 4,
      "note": 66,
      "start": 0.173,
      "duration": 0.001,
      "velocity": 111,
      "chip": "ym2612"
    },
    {
      "channel": 4,
      "note": 61,
      "start": 0.1741,
      "duration": 0.0007,
      "velocity": 111,
      "chip": "ym2612"
    },
    {
      "channel": 0,
      "note": 60,
      "start": 0.1744,
      "duration": 0.0019,
      "velocity": 115,
      "chip": "ym2612"
    },
    {
      "channel": 1,
      "note": 38,
      "start": 0.1746,
      "duration": 0.0012,
      "velocity": 127,
      "chip": "ym2612"
    },
    {
      "channel": 4,
      "note": 66,
      "start": 0.175,
      "duration": 0.001,
      "velocity": 111,
      "chip": "ym2612"
    },
    {
      "channel": 1,
      "note": 38,
      "start": 0.1759,
      "duration": 0.0005,
      "velocity": 127,
      "chip": "ym2612"
    },
    {
      "channel": 4,
      "note": 62,
      "start": 0.1762,
      "duration": 0.0006,
      "velocity": 111,
      "chip": "ym2612"
    },
    {
      "channel": 0,
      "note": 48,
      "start": 0.1764,
      "duration": 0.002,
      "velocity": 115,
      "chip": "ym2612"
    },
    {
      "channel": 1,
      "note": 38,
      "start": 0.1767,
      "duration": 0.0012,
      "velocity": 127,
      "chip": "ym2612"
    },
    {
      "channel": 4,
      "note": 66,
      "start": 0.1771,
      "duration": 0.0009,
      "velocity": 111,
      "chip": "ym2612"
    },
    {
      "channel": 4,
      "note": 60,
      "start": 0.1782,
      "duration": 0.0012,
      "velocity": 111,
      "chip": "ym2612"
    },
    {
      "channel": 0,
      "note": 61,
      "start": 0.1787,
      "duration": 0.002,
      "velocity": 115,
      "chip": "ym2612"
    },
    {
      "channel": 1,
      "note": 38,
      "start": 0.1789,
      "duration": 0.0014,
      "velocity": 127,
      "chip": "ym2612"
    },
    {
      "channel": 3,
      "note": 73,
      "start": 0.1793,
      "duration": 0.0063,
      "velocity": 123,
      "chip": "ym2612"
    },
    {
      "channel": 4,
      "note": 66,
      "start": 0.1796,
      "duration": 0.0008,
      "velocity": 111,
      "chip": "ym2612"
    },
    {
      "channel": 4,
      "note": 62,
      "start": 0.1806,
      "duration": 0.0005,
      "velocity": 111,
      "chip": "ym2612"
    },
    {
      "channel": 0,
      "note": 48,
      "start": 0.1808,
      "duration": 0.0021,
      "velocity": 115,
      "chip": "ym2612"
    },
    {
      "channel": 1,
      "note": 38,
      "start": 0.181,
      "duration": 0.0013,
      "velocity": 127,
      "chip": "ym2612"
    },
    {
      "channel": 4,
      "note": 66,
      "start": 0.1814,
      "duration": 0.0012,
      "velocity": 111,
      "chip": "ym2612"
    },
    {
      "channel": 1,
      "note": 38,
      "start": 0.1825,
      "duration": 0.0007,
      "velocity": 127,
      "chip": "ym2612"
    },
    {
      "channel": 4,
      "note": 60,
      "start": 0.1828,
      "duration": 0.0008,
      "velocity": 111,
      "chip": "ym2612"
    },
    {
      "channel": 0,
      "note": 60,
      "start": 0.1832,
      "duration": 0.0019,
      "velocity": 115,
      "chip": "ym2612"
    },
    {
      "channel": 1,
      "note": 38,
      "start": 0.1834,
      "duration": 0.0011,
      "velocity": 127,
      "chip": "ym2612"
    },
    {
      "channel": 4,
      "note": 66,
      "start": 0.1838,
      "duration": 0.001,
      "velocity": 111,
      "chip": "ym2612"
    },
    {
      "channel": 1,
      "note": 38,
      "start": 0.1846,
      "duration": 0.0006,
      "velocity": 127,
      "chip": "ym2612"
    },
    {
      "channel": 4,
      "note": 61,
      "start": 0.185,
      "duration": 0.001,
      "velocity": 111,
      "chip": "ym2612"
    },
    {
      "channel": 0,
      "note": 48,
      "start": 0.1852,
      "duration": 0.002,
      "velocity": 115,
      "chip": "ym2612"
    },
    {
      "channel": 1,
      "note": 38,
      "start": 0.1855,
      "duration": 0.0014,
      "velocity": 127,
      "chip": "ym2612"
    },
    {
      "channel": 3,
      "note": 72,
      "start": 0.1859,
      "duration": 0.0062,
      "velocity": 123,
      "chip": "ym2612"
    },
    {
      "channel": 4,
      "note": 66,
      "start": 0.1861,
      "duration": 0.0009,
      "velocity": 111,
      "chip": "ym2612"
    },
    {
      "channel": 4,
      "note": 60,
      "start": 0.1872,
      "duration": 0.0007,
      "velocity": 111,
      "chip": "ym2612"
    },
    {
      "channel": 0,
      "note": 58,
      "start": 0.1874,
      "duration": 0.0018,
      "velocity": 115,
      "chip": "ym2612"
    },
    {
      "channel": 1,
      "note": 38,
      "start": 0.1877,
      "duration": 0.0012,
      "velocity": 127,
      "chip": "ym2612"
    },
    {
      "channel": 4,
      "note": 66,
      "start": 0.1881,
      "duration": 0.001,
      "velocity": 111,
      "chip": "ym2612"
    },
    {
      "channel": 1,
      "note": 38,
      "start": 0.1889,
      "duration": 0.0005,
      "velocity": 127,
      "chip": "ym2612"
    },
    {
      "channel": 4,
      "note": 60,
      "start": 0.1892,
      "duration": 0.0007,
      "velocity": 111,
      "chip": "ym2612"
    },
    {
      "channel": 0,
      "note": 48,
      "start": 0.1894,
      "duration": 0.0022,
      "velocity": 115,
      "chip": "ym2612"
    },
    {
      "channel": 1,
      "note": 38,
      "start": 0.1897,
      "duration": 0.0013,
      "velocity": 127,
      "chip": "ym2612"
    },
    {
      "channel": 4,
      "note": 66,
      "start": 0.1901,
      "duration": 0.0012,
      "velocity": 111,
      "chip": "ym2612"
    },
    {
      "channel": 1,
      "note": 38,
      "start": 0.1912,
      "duration": 0.0006,
      "velocity": 127,
      "chip": "ym2612"
    },
    {
      "channel": 4,
      "note": 63,
      "start": 0.1915,
      "duration": 0.0009,
      "velocity": 111,
      "chip": "ym2612"
    },
    {
      "channel": 0,
      "note": 60,
      "start": 0.1918,
      "duration": 0.0021,
      "velocity": 115,
      "chip": "ym2612"
    },
    {
      "channel": 3,
      "note": 71,
      "start": 0.1923,
      "duration": 0.0061,
      "velocity": 123,
      "chip": "ym2612"
    },
    {
      "channel": 4,
      "note": 66,
      "start": 0.1926,
      "duration": 0.0011,
      "velocity": 111,
      "chip": "ym2612"
    },
    {
      "channel": 1,
      "note": 38,
      "start": 0.1936,
      "duration": 0.0005,
      "velocity": 127,
      "chip": "ym2612"
    },
    {
      "channel": 4,
      "note": 61,
      "start": 0.1938,
      "duration": 0.0005,
      "velocity": 111,
      "chip": "ym2612"
    },
    {
      "channel": 0,
      "note": 48,
      "start": 0.194,
      "duration": 0.002,
      "velocity": 115,
      "chip": "ym2612"
    },
    {
      "channel": 1,
      "note": 38,
      "start": 0.1943,
      "duration": 0.0012,
      "velocity": 127,
      "chip": "ym2612"
    },
    {
      "channel": 4,
      "note": 66,
      "start": 0.1945,
      "duration": 0.0009,
      "velocity": 111,
      "chip": "ym2612"
    },
    {
      "channel": 4,
      "note": 62,
      "start": 0.1957,
      "duration": 0.001,
      "velocity": 111,
      "chip": "ym2612"
    },
    {
      "channel": 0,
      "note": 61,
      "start": 0.1962,
      "duration": 0.0017,
      "velocity": 115,
      "chip": "ym2612"
    },
    {
      "channel": 1,
      "note": 38,
      "start": 0.1966,
      "duration": 0.0011,
      "velocity": 127,
      "chip": "ym2612"
    },
    {
      "channel": 4,
      "note": 66,
      "start": 0.1969,
      "duration": 0.0007,
      "velocity": 111,
      "chip": "ym2612"
    },
    {
      "channel": 4,
      "note": 60,
      "start": 0.1979,
      "duration": 0.0009,
      "velocity": 111,
      "chip": "ym2612"
    },
    {
      "channel": 0,
      "note": 48,
      "start": 0.198,
      "duration": 0.0023,
      "velocity": 115,
      "chip": "ym2612"
    },
    {
      "channel": 1,
      "note": 38,
      "start": 0.1983,
      "duration": 0.0015,
      "velocity": 127,
      "chip": "ym2612"
    },
    {
      "channel": 3,
      "note": 70,
      "start": 0.1987,
      "duration": 0.004,
      "velocity": 123,
      "chip": "ym2612"
    },
    {
      "channel": 4,
      "note": 66,
      "start": 0.199,
      "duration": 0.001,
      "velocity": 111,
      "chip": "ym2612"
    },
    {
      "channel": 1,
      "note": 38,
      "start": 0.2,
      "duration": 0.0005,
      "velocity": 127,
      "chip": "ym2612"
    },
    {
      "channel": 4,
      "note": 63,
      "start": 0.2002,
      "duration": 0.0007,
      "velocity": 111,
      "chip": "ym2612"
    },
    {
      "channel": 0,
      "note": 63,
      "start": 0.2004,
      "duration": 0.0017,
      "velocity": 115,
      "chip": "ym2612"
    },
    {
      "channel": 1,
      "note": 38,
      "start": 0.2007,
      "duration": 0.0011,
      "velocity": 127,
      "chip": "ym2612"
    },
    {
      "channel": 4,
      "note": 66,
      "start": 0.2011,
      "duration": 0.0008,
      "velocity": 111,
      "chip": "ym2612"
    },
    {
      "channel": 4,
      "note": 62,
      "start": 0.2021,
      "duration": 0.001,
      "velocity": 111,
      "chip": "ym2612"
    },
    {
      "channel": 0,
      "note": 63,
      "start": 0.2023,
      "duration": 0.1665,
      "velocity": 115,
      "chip": "ym2612"
    },
    {
      "channel": 1,
      "note": 38,
      "start": 0.2026,
      "duration": 0.0828,
      "velocity": 127,
      "chip": "ym2612"
    },
    {
      "channel": 3,
      "note": 69,
      "start": 0.2029,
      "duration": 0.1697,
      "velocity": 123,
      "chip": "ym2612"
    },
    {
      "channel": 4,
      "note": 66,
      "start": 0.2033,
      "duration": 0.0825,
      "velocity": 111,
      "chip": "ym2612"
    },
    {
      "channel": 1,
      "note": 38,
      "start": 0.2856,
      "duration": 0.0834,
      "velocity": 127,
      "chip": "ym2612"
    },
    {
      "channel": 4,
      "note": 61,
      "start": 0.286,
      "duration": 0.0834,
      "velocity": 111,
      "chip": "ym2612"
    },
    {
      "channel": 0,
      "note": 61,
      "start": 0.3689,
      "duration": 0.0032,
      "velocity": 115,
      "chip": "ym2612"
    },
    {
      "channel": 1,
      "note": 38,
      "start": 0.3692,
      "duration": 0.0016,
      "velocity": 127,
      "chip": "ym2612"
    },
    {
      "channel": 4,
      "note": 66,
      "start": 0.3696,
      "duration": 0.0016,
      "velocity": 111,
      "chip": "ym2612"
    },
    {
      "channel": 1,
      "note": 38,
      "start": 0.371,
      "duration": 0.0013,
      "velocity": 127,
      "chip": "ym2612"
    },
    {
      "channel": 4,
      "note": 63,
      "start": 0.3714,
      "duration": 0.0015,
      "velocity": 111,
      "chip": "ym2612"
    },
    {
      "channel": 0,
      "note": 43,
      "start": 0.3722,
      "duration": 0.0022,
      "velocity": 115,
      "chip": "ym2612"
    },
    {
      "channel": 1,
      "note": 38,
      "start": 0.3725,
      "duration": 0.0016,
      "velocity": 127,
      "chip": "ym2612"
    },
    {
      "channel": 3,
      "note": 74,
      "start": 0.3728,
      "duration": 0.0064,
      "velocity": 123,
      "chip": "ym2612"
    },
    {
      "channel": 4,
      "note": 65,
      "start": 0.3732,
      "duration": 0.0011,
      "velocity": 111,
      "chip": "ym2612"
    },
    {
      "channel": 4,
      "note": 60,
      "start": 0.3743,
      "duration": 0.0006,
      "velocity": 111,
      "chip": "ym2612"
    },
    {
      "channel": 0,
      "note": 55,
      "start": 0.3746,
      "duration": 0.0019,
      "velocity": 115,
      "chip": "ym2612"
    },
    {
      "channel": 1,
      "note": 38,
      "start": 0.3748,
      "duration": 0.0012,
      "velocity": 127,
      "chip": "ym2612"
    },
    {
      "channel": 4,
      "note": 65,
      "start": 0.3752,
      "duration": 0.001,
      "velocity": 111,
      "chip": "ym2612"
    },
    {
      "channel": 1,
      "note": 38,
      "start": 0.3761,
      "duration": 0.0005,
      "velocity": 127,
      "chip": "ym2612"
    },
    {
      "channel": 4,
      "note": 61,
      "start": 0.3763,
      "duration": 0.0006,
      "velocity": 111,
      "chip": "ym2612"
    },
    {
      "channel": 0,
      "note": 43,
      "start": 0.3766,
      "duration": 0.002,
      "velocity": 115,
      "chip": "ym2612"
    },
    {
      "channel": 1,
      "note": 38,
      "start": 0.3768,
      "duration": 0.0012,
      "velocity": 127,
      "chip": "ym2612"
    },
    {
      "channel": 4,
      "note": 65,
      "start": 0.3772,
      "duration": 0.0009,
      "velocity": 111,
      "chip": "ym2612"
    },
    {
      "channel": 4,
      "note": 59,
      "start": 0.3784,
      "duration": 0.0012,
      "velocity": 111,
      "chip": "ym2612"
    },
    {
      "channel": 0,
      "note": 56,
      "start": 0.3788,
      "duration": 0.002,
      "velocity": 115,
      "chip": "ym2612"
    },
    {
      "channel": 1,
      "note": 38,
      "start": 0.3791,
      "duration": 0.0014,
      "velocity": 127,
      "chip": "ym2612"
    },
    {
      "channel": 3,
      "note": 73,
      "start": 0.3795,
      "duration": 0.0063,
      "velocity": 123,
      "chip": "ym2612"
    },
    {
      "channel": 4,
      "note": 65,
      "start": 0.3797,
      "duration": 0.0008,
      "velocity": 111,
      "chip": "ym2612"
    },
    {
      "channel": 4,
      "note": 61,
      "start": 0.3808,
      "duration": 0.0005,
      "velocity": 111,
      "chip": "ym2612"
    },
    {
      "channel": 0,
      "note": 43,
      "start": 0.381,
      "duration": 0.0021,
      "velocity": 115,
      "chip": "ym2612"
    },
    {
      "channel": 1,
      "note": 38,
      "start": 0.3812,
      "duration": 0.0013,
      "velocity": 127,
      "chip": "ym2612"
    },
    {
      "channel": 4,
      "note": 65,
      "start": 0.3815,
      "duration": 0.0012,
      "velocity": 111,
      "chip": "ym2612"
    },
    {
      "channel": 1,
      "note": 38,
      "start": 0.3827,
      "duration": 0.0007,
      "velocity": 127,
      "chip": "ym2612"
    },
    {
      "channel": 4,
      "note": 59,
      "start": 0.3829,
      "duration": 0.0008,
      "velocity": 111,
      "chip": "ym2612"
    },
    {
      "channel": 0,
      "note": 55,
      "start": 0.3833,
      "duration": 0.0019,
      "velocity": 115,
      "chip": "ym2612"
    },
    {
      "channel": 1,
      "note": 38,
      "start": 0.3836,
      "duration": 0.0011,
      "velocity": 127,
      "chip": "ym2612"
    },
    {
      "channel": 4,
      "note": 65,
      "start": 0.3839,
      "duration": 0.001,
      "velocity": 111,
      "chip": "ym2612"
    },
    {
      "channel": 1,
      "note": 38,
      "start": 0.3848,
      "duration": 0.0006,
      "velocity": 127,
      "chip": "ym2612"
    },
    {
      "channel": 4,
      "note": 60,
      "start": 0.3851,
      "duration": 0.001,
      "velocity": 111,
      "chip": "ym2612"
    },
    {
      "channel": 0,
      "note": 43,
      "start": 0.3854,
      "duration": 0.002,
      "velocity": 115,
      "chip": "ym2612"
    },
    {
      "channel": 1,
      "note": 38,
      "start": 0.3857,
      "duration": 0.0014,
      "velocity": 127,
      "chip": "ym2612"
    },
    {
      "channel": 3,
      "note": 72,
      "start": 0.386,
      "duration": 0.0062,
      "velocity": 123,
      "chip": "ym2612"
    },
    {
      "channel": 4,
      "note": 65,
      "start": 0.3863,
      "duration": 0.0009,
      "velocity": 111,
      "chip": "ym2612"
    },
    {
      "channel": 4,
      "note": 59,
      "start": 0.3873,
      "duration": 0.0007,
      "velocity": 111,
      "chip": "ym2612"
    },
    {
      "channel": 0,
      "note": 53,
      "start": 0.3876,
      "duration": 0.0018,
      "velocity": 115,
      "chip": "ym2612"
    },
    {
      "channel": 1,
      "note": 38,
      "start": 0.3878,
      "duration": 0.0012,
      "velocity": 127,
      "chip": "ym2612"
    },
    {
      "channel": 4,
      "note": 65,
      "start": 0.3882,
      "duration": 0.001,
      "velocity": 111,
      "chip": "ym2612"
    },
    {
      "channel": 1,
      "note": 38,
      "start": 0.3891,
      "duration": 0.0005,
      "velocity": 127,
      "chip": "ym2612"
    },
    {
      "channel": 4,
      "note": 59,
      "start": 0.3894,
      "duration": 0.0007,
      "velocity": 111,
      "chip": "ym2612"
    },
    {
      "channel": 0,
      "note": 43,
      "start": 0.3895,
      "duration": 0.0022,
      "velocity": 115,
      "chip": "ym2612"
    },
    {
      "channel": 1,
      "note": 38,
      "start": 0.3899,
      "duration": 0.0013,
      "velocity": 127,
      "chip": "ym2612"
    },
    {
      "channel": 4,
      "note": 65,
      "start": 0.3903,
      "duration": 0.0012,
      "velocity": 111,
      "chip": "ym2612"
    },
    {
      "channel": 1,
      "note": 38,
      "start": 0.3914,
      "duration": 0.0006,
      "velocity": 127,
      "chip": "ym2612"
    },
    {
      "channel": 4,
      "note": 62,
      "start": 0.3917,
      "duration": 0.0009,
      "velocity": 111,
      "chip": "ym2612"
    },
    {
      "channel": 0,
      "note": 55,
      "start": 0.392,
      "duration": 0.0021,
      "velocity": 115,
      "chip": "ym2612"
    },
    {
      "channel": 3,
      "note": 71,
      "start": 0.3925,
      "duration": 0.0061,
      "velocity": 123,
      "chip": "ym2612"
    },
    {
      "channel": 4,
      "note": 65,
      "start": 0.3927,
      "duration": 0.0011,
      "velocity": 111,
      "chip": "ym2612"
    },
    {
      "channel": 1,
      "note": 38,
      "start": 0.3938,
      "duration": 0.0005,
      "velocity": 127,
      "chip": "ym2612"
    },
    {
      "channel": 4,
      "note": 60,
      "start": 0.394,
      "duration": 0.0005,
      "velocity": 111,
      "chip": "ym2612"
    },
    {
      "channel": 0,
      "note": 43,
      "start": 0.3941,
      "duration": 0.002,
      "velocity": 115,
      "chip": "ym2612"
    },
    {
      "channel": 1,
      "note": 38,
      "start": 0.3944,
      "duration": 0.0012,
      "velocity": 127,
      "chip": "ym2612"
    },
    {
      "channel": 4,
      "note": 65,
      "start": 0.3947,
      "duration": 0.0009,
      "velocity": 111,
      "chip": "ym2612"
    },
    {
      "channel": 4,
      "note": 61,
      "start": 0.3959,
      "duration": 0.001,
      "velocity": 111,
      "chip": "ym2612"
    },
    {
      "channel": 0,
      "note": 56,
      "start": 0.3964,
      "duration": 0.0017,
      "velocity": 115,
      "chip": "ym2612"
    },
    {
      "channel": 1,
      "note": 38,
      "start": 0.3967,
      "duration": 0.0011,
      "velocity": 127,
      "chip": "ym2612"
    },
    {
      "channel": 4,
      "note": 65,
      "start": 0.3971,
      "duration": 0.0007,
      "velocity": 111,
      "chip": "ym2612"
    },
    {
      "channel": 4,
      "note": 59,
      "start": 0.398,
      "duration": 0.0009,
      "velocity": 111,
      "chip": "ym2612"
    },
    {
      "channel": 0,
      "note": 43,
      "start": 0.3982,
      "duration": 0.0023,
      "velocity": 115,
      "chip": "ym2612"
    },
    {
      "channel": 1,
      "note": 38,
      "start": 0.3985,
      "duration": 0.0015,
      "velocity": 127,
      "chip": "ym2612"
    },
    {
      "channel": 3,
      "note": 70,
      "start": 0.3988,
      "duration": 0.004,
      "velocity": 123,
      "chip": "ym2612"
    },
    {
      "channel": 4,
      "note": 65,
      "start": 0.3992,
      "duration": 0.001,
      "velocity": 111,
      "chip": "ym2612"
    },
    {
      "channel": 1,
      "note": 38,
      "start": 0.4001,
      "duration": 0.0005,
      "velocity": 127,
      "chip": "ym2612"
    },
    {
      "channel": 4,
      "note": 62,
      "start": 0.4004,
      "duration": 0.0007,
      "velocity": 111,
      "chip": "ym2612"
    },
    {
      "channel": 0,
      "note": 55,
      "start": 0.4006,
      "duration": 0.0017,
      "velocity": 115,
      "chip": "ym2612"
    },
    {
      "channel": 1,
      "note": 38,
      "start": 0.4009,
      "duration": 0.0011,
      "velocity": 127,
      "chip": "ym2612"
    },
    {
      "channel": 4,
      "note": 65,
      "start": 0.4012,
      "duration": 0.0008,
      "velocity": 111,
      "chip": "ym2612"
    },
    {
      "channel": 4,
      "note": 61,
      "start": 0.4023,
      "duration": 0.001,
      "velocity": 111,
      "chip": "ym2612"
    },
    {
      "channel": 0,
      "note": 43,
      "start": 0.4024,
      "duration": 0.0024,
      "velocity": 115,
      "chip": "ym2612"
    },
    {
      "channel": 1,
      "note": 38,
      "start": 0.4027,
      "duration": 0.0016,
      "velocity": 127,
      "chip": "ym2612"
    },
    {
      "channel": 3,
      "note": 69,
      "start": 0.4031,
      "duration": 0.0045,
      "velocity": 123,
      "chip": "ym2612"
    },
    {
      "channel": 4,
      "note": 65,
      "start": 0.4034,
      "duration": 0.0011,
      "velocity": 111,
      "chip": "ym2612"
    },
    {
      "channel": 1,
      "note": 38,
      "start": 0.4045,
      "duration": 0.0007,
      "velocity": 127,
      "chip": "ym2612"
    },
    {
      "channel": 4,
      "note": 60,
      "start": 0.4047,
      "duration": 0.0007,
      "velocity": 111,
      "chip": "ym2612"
    },
    {
      "channel": 0,
      "note": 58,
      "start": 0.405,
      "duration": 0.002,
      "velocity": 115,
      "chip": "ym2612"
    },
    {
      "channel": 1,
      "note": 38,
      "start": 0.4054,
      "duration": 0.0012,
      "velocity": 127,
      "chip": "ym2612"
    },
    {
      "channel": 4,
      "note": 65,
      "start": 0.4057,
      "duration": 0.001,
      "velocity": 111,
      "chip": "ym2612"
    },
    {
      "channel": 1,
      "note": 38,
      "start": 0.4067,
      "duration": 0.0006,
      "velocity": 127,
      "chip": "ym2612"
    },
    {
      "channel": 4,
      "note": 62,
      "start": 0.4069,
      "duration": 0.001,
      "velocity": 111,
      "chip": "ym2612"
    },
    {
      "channel": 0,
      "note": 43,
      "start": 0.4072,
      "duration": 0.0022,
      "velocity": 115,
      "chip": "ym2612"
    },
    {
      "channel": 1,
      "note": 38,
      "start": 0.4074,
      "duration": 0.0017,
      "velocity": 127,
      "chip": "ym2612"
    },
    {
      "channel": 3,
      "note": 74,
      "start": 0.4079,
      "duration": 0.0063,
      "velocity": 123,
      "chip": "ym2612"
    },
    {
      "channel": 4,
      "note": 66,
      "start": 0.4082,
      "duration": 0.001,
      "velocity": 111,
      "chip": "ym2612"
    },
    {
      "channel": 4,
      "note": 61,
      "start": 0.4093,
      "duration": 0.0007,
      "velocity": 111,
      "chip": "ym2612"
    },
    {
      "channel": 0,
      "note": 55,
      "start": 0.4095,
      "duration": 0.0019,
      "velocity": 115,
      "chip": "ym2612"
    },
    {
      "channel": 1,
      "note": 38,
      "start": 0.4098,
      "duration": 0.0012,
      "velocity": 127,
      "chip": "ym2612"
    },
    {
      "channel": 4,
      "note": 66,
      "start": 0.4102,
      "duration": 0.001,
      "velocity": 111,
      "chip": "ym2612"
    },
    {
      "channel": 1,
      "note": 38,
      "start": 0.4111,
      "duration": 0.0005,
      "velocity": 127,
      "chip": "ym2612"
    },
    {
      "channel": 4,
      "note": 62,
      "start": 0.4113,
      "duration": 0.0006,
      "velocity": 111,
      "chip": "ym2612"
    },
    {
      "channel": 0,
      "note": 43,
      "start": 0.4116,
      "duration": 0.002,
      "velocity": 115,
      "chip": "ym2612"
    },
    {
      "channel": 1,
      "note": 38,
      "start": 0.4119,
      "duration": 0.0012,
      "velocity": 127,
      "chip": "ym2612"
    },
    {
      "channel": 4,
      "note": 66,
      "start": 0.4122,
      "duration": 0.0009,
      "velocity": 111,
      "chip": "ym2612"
    },
    {
      "channel": 4,
      "note": 60,
      "start": 0.4134,
      "duration": 0.0012,
      "velocity": 111,
      "chip": "ym2612"
    },
    {
      "channel": 0,
      "note": 56,
      "start": 0.4139,
      "duration": 0.002,
      "velocity": 115,
      "chip": "ym2612"
    },
    {
      "channel": 1,
      "note": 38,
      "start": 0.4141,
      "duration": 0.0014,
      "velocity": 127,
      "chip": "ym2612"
    },
    {
      "channel": 3,
      "note": 73,
      "start": 0.4145,
      "duration": 0.0063,
      "velocity": 123,
      "chip": "ym2612"
    },
    {
      "channel": 4,
      "note": 66,
      "start": 0.4147,
      "duration": 0.0008,
      "velocity": 111,
      "chip": "ym2612"
    },
    {
      "channel": 4,
      "note": 62,
      "start": 0.4158,
      "duration": 0.0005,
      "velocity": 111,
      "chip": "ym2612"
    },
    {
      "channel": 0,
      "note": 43,
      "start": 0.416,
      "duration": 0.0021,
      "velocity": 115,
      "chip": "ym2612"
    },
    {
      "channel": 1,
      "note": 38,
      "start": 0.4162,
      "duration": 0.0013,
      "velocity": 127,
      "chip": "ym2612"
    },
    {
      "channel": 4,
      "note": 66,
      "start": 0.4165,
      "duration": 0.0012,
      "velocity": 111,
      "chip": "ym2612"
    },
    {
      "channel": 1,
      "note": 38,
      "start": 0.4177,
      "duration": 0.0007,
      "velocity": 127,
      "chip": "ym2612"
    },
    {
      "channel": 4,
      "note": 60,
      "start": 0.418,
      "duration": 0.0008,
      "velocity": 111,
      "chip": "ym2612"
    },
    {
      "channel": 0,
      "note": 55,
      "start": 0.4183,
      "duration": 0.0019,
      "velocity": 115,
      "chip": "ym2612"
    },
    {
      "channel": 1,
      "note": 38,
      "start": 0.4186,
      "duration": 0.0011,
      "velocity": 127,
      "chip": "ym2612"
    },
    {
      "channel": 4,
      "note": 66,
      "start": 0.419,
      "duration": 0.001,
      "velocity": 111,
      "chip": "ym2612"
    },
    {
      "channel": 1,
      "note": 38,
      "start": 0.4198,
      "duration": 0.0006,
      "velocity": 127,
      "chip": "ym2612"
    },
    {
      "channel": 4,
      "note": 61,
      "start": 0.4201,
      "duration": 0.001,
      "velocity": 111,
      "chip": "ym2612"
    },
    {
      "channel": 0,
      "note": 43,
      "start": 0.4204,
      "duration": 0.002,
      "velocity": 115,
      "chip": "ym2612"
    },
    {
      "channel": 1,
      "note": 38,
      "start": 0.4207,
      "duration": 0.0014,
      "velocity": 127,
      "chip": "ym2612"
    },
    {
      "channel": 3,
      "note": 72,
      "start": 0.421,
      "duration": 0.0062,
      "velocity": 123,
      "chip": "ym2612"
    },
    {
      "channel": 4,
      "note": 66,
      "start": 0.4213,
      "duration": 0.0009,
      "velocity": 111,
      "chip": "ym2612"
    },
    {
      "channel": 4,
      "note": 60,
      "start": 0.4223,
      "duration": 0.0007,
      "velocity": 111,
      "chip": "ym2612"
    },
    {
      "channel": 0,
      "note": 53,
      "start": 0.4226,
      "duration": 0.0018,
      "velocity": 115,
      "chip": "ym2612"
    },
    {
      "channel": 1,
      "note": 38,
      "start": 0.4229,
      "duration": 0.0012,
      "velocity": 127,
      "chip": "ym2612"
    },
    {
      "channel": 4,
      "note": 66,
      "start": 0.4232,
      "duration": 0.001,
      "velocity": 111,
      "chip": "ym2612"
    },
    {
      "channel": 1,
      "note": 38,
      "start": 0.4241,
      "duration": 0.0005,
      "velocity": 127,
      "chip": "ym2612"
    },
    {
      "channel": 4,
      "note": 60,
      "start": 0.4244,
      "duration": 0.0007,
      "velocity": 111,
      "chip": "ym2612"
    },
    {
      "channel": 0,
      "note": 43,
      "start": 0.4246,
      "duration": 0.0022,
      "velocity": 115,
      "chip": "ym2612"
    },
    {
      "channel": 1,
      "note": 38,
      "start": 0.4249,
      "duration": 0.0013,
      "velocity": 127,
      "chip": "ym2612"
    },
    {
      "channel": 4,
      "note": 66,
      "start": 0.4253,
      "duration": 0.0012,
      "velocity": 111,
      "chip": "ym2612"
    },
    {
      "channel": 1,
      "note": 38,
      "start": 0.4264,
      "duration": 0.0006,
      "velocity": 127,
      "chip": "ym2612"
    },
    {
      "channel": 4,
      "note": 63,
      "start": 0.4267,
      "duration": 0.0009,
      "velocity": 111,
      "chip": "ym2612"
    },
    {
      "channel": 0,
      "note": 55,
      "start": 0.427,
      "duration": 0.0021,
      "velocity": 115,
      "chip": "ym2612"
    },
    {
      "channel": 3,
      "note": 71,
      "start": 0.4275,
      "duration": 0.0061,
      "velocity": 123,
      "chip": "ym2612"
    },
    {
      "channel": 4,
      "note": 66,
      "start": 0.4277,
      "duration": 0.0011,
      "velocity": 111,
      "chip": "ym2612"
    },
    {
      "channel": 1,
      "note": 38,
      "start": 0.4288,
      "duration": 0.0005,
      "velocity": 127,
      "chip": "ym2612"
    },
    {
      "channel": 4,
      "note": 61,
      "start": 0.429,
      "duration": 0.0005,
      "velocity": 111,
      "chip": "ym2612"
    },
    {
      "channel": 0,
      "note": 43,
      "start": 0.4292,
      "duration": 0.002,
      "velocity": 115,
      "chip": "ym2612"
    },
    {
      "channel": 1,
      "note": 38,
      "start": 0.4294,
      "duration": 0.0012,
      "velocity": 127,
      "chip": "ym2612"
    },
    {
      "channel": 4,
      "note": 66,
      "start": 0.4297,
      "duration": 0.0009,
      "velocity": 111,
      "chip": "ym2612"
    },
    {
      "channel": 4,
      "note": 62,
      "start": 0.4309,
      "duration": 0.001,
      "velocity": 111,
      "chip": "ym2612"
    },
    {
      "channel": 0,
      "note": 56,
      "start": 0.4314,
      "duration": 0.0017,
      "velocity": 115,
      "chip": "ym2612"
    },
    {
      "channel": 1,
      "note": 38,
      "start": 0.4317,
      "duration": 0.0011,
      "velocity": 127,
      "chip": "ym2612"
    },
    {
      "channel": 4,
      "note": 66,
      "start": 0.4321,
      "duration": 0.0007,
      "velocity": 111,
      "chip": "ym2612"
    },
    {
      "channel": 4,
      "note": 60,
      "start": 0.4331,
      "duration": 0.0009,
      "velocity": 111,
      "chip": "ym2612"
    },
    {
      "channel": 0,
      "note": 43,
      "start": 0.4332,
      "duration": 0.0023,
      "velocity": 115,
      "chip": "ym2612"
    },
    {
      "channel": 1,
      "note": 38,
      "start": 0.4335,
      "duration": 0.0015,
      "velocity": 127,
      "chip": "ym2612"
    },
    {
      "channel": 3,
      "note": 70,
      "start": 0.4338,
      "duration": 0.004,
      "velocity": 123,
      "chip": "ym2612"
    },
    {
      "channel": 4,
      "note": 66,
      "start": 0.4342,
      "duration": 0.001,
      "velocity": 111,
      "chip": "ym2612"
    },
    {
      "channel": 1,
      "note": 38,
      "start": 0.4351,
      "duration": 0.0005,
      "velocity": 127,
      "chip": "ym2612"
    },
    {
      "channel": 4,
      "note": 63,
      "start": 0.4354,
      "duration": 0.0007,
      "velocity": 111,
      "chip": "ym2612"
    },
    {
      "channel": 0,
      "note": 55,
      "start": 0.4356,
      "duration": 0.0017,
      "velocity": 115,
      "chip": "ym2612"
    },
    {
      "channel": 1,
      "note": 38,
      "start": 0.4359,
      "duration": 0.0011,
      "velocity": 127,
      "chip": "ym2612"
    },
    {
      "channel": 4,
      "note": 66,
      "start": 0.4362,
      "duration": 0.0008,
      "velocity": 111,
      "chip": "ym2612"
    },
    {
      "channel": 4,
      "note": 62,
      "start": 0.4373,
      "duration": 0.001,
      "velocity": 111,
      "chip": "ym2612"
    },
    {
      "channel": 0,
      "note": 55,
      "start": 0.4374,
      "duration": 0.0024,
      "velocity": 115,
      "chip": "ym2612"
    },
    {
      "channel": 1,
      "note": 38,
      "start": 0.4378,
      "duration": 0.0016,
      "velocity": 127,
      "chip": "ym2612"
    },
    {
      "channel": 3,
      "note": 69,
      "start": 0.4381,
      "duration": 0.0067,
      "velocity": 123,
      "chip": "ym2612"
    },
    {
      "channel": 4,
      "note": 66,
      "start": 0.4384,
      "duration": 0.0011,
      "velocity": 111,
      "chip": "ym2612"
    },
    {
      "channel": 1,
      "note": 38,
      "start": 0.4395,
      "duration": 0.0006,
      "velocity": 127,
      "chip": "ym2612"
    },
    {
      "channel": 4,
      "note": 61,
      "start": 0.4398,
      "duration": 0.0007,
      "velocity": 111,
      "chip": "ym2612"
    },
    {
      "channel": 0,
      "note": 58,
      "start": 0.44,
      "duration": 0.0035,
      "velocity": 115,
      "chip": "ym2612"
    },
    {
      "channel": 1,
      "note": 38,
      "start": 0.4403,
      "duration": 0.0017,
      "velocity": 127,
      "chip": "ym2612"
    },
    {
      "channel": 4,
      "note": 66,
      "start": 0.4407,
      "duration": 0.0017,
      "velocity": 111,
      "chip": "ym2612"
    },
    {
      "channel": 1,
      "note": 38,
      "start": 0.4423,
      "duration": 0.0014,
      "velocity": 127,
      "chip": "ym2612"
    },
    {
      "channel": 4,
      "note": 63,
      "start": 0.4427,
      "duration": 0.0023,
      "velocity": 111,
      "chip": "ym2612"
    },
    {
      "channel": 0,
      "note": 43,
      "start": 0.4436,
      "duration": 0.0027,
      "velocity": 115,
      "chip": "ym2612"
    },
    {
      "channel": 1,
      "note": 38,
      "start": 0.4439,
      "duration": 0.0021,
      "velocity": 127,
      "chip": "ym2612"
    },
    {
      "channel": 2,
      "note": 67,
      "start": 0.4447,
      "duration": 0.0013,
      "velocity": 97,
      "chip": "ym2612"
    },
    {
      "channel": 3,
      "note": 65,
      "start": 0.4449,
      "duration": 0.0164,
      "velocity": 123,
      "chip": "ym2612"
    },
    {
      "channel": 2,
      "note": 62,
      "start": 0.4461,
      "duration": 0.0005,
      "velocity": 97,
      "chip": "ym2612"
    },
    {
      "channel": 0,
      "note": 55,
      "start": 0.4463,
      "duration": 0.0013,
      "velocity": 115,
      "chip": "ym2612"
    },
    {
      "channel": 1,
      "note": 38,
      "start": 0.4466,
      "duration": 0.0007,
      "velocity": 127,
      "chip": "ym2612"
    },
    {
      "channel": 2,
      "note": 67,
      "start": 0.4469,
      "duration": 0.0005,
      "velocity": 97,
      "chip": "ym2612"
    },
    {
      "channel": 1,
      "note": 38,
      "start": 0.4473,
      "duration": 0.0005,
      "velocity": 127,
      "chip": "ym2612"
    },
    {
      "channel": 2,
      "note": 62,
      "start": 0.4476,
      "duration": 0.0005,
      "velocity": 97,
      "chip": "ym2612"
    },
    {
      "channel": 0,
      "note": 43,
      "start": 0.4478,
      "duration": 0.0021,
      "velocity": 115,
      "chip": "ym2612"
    },
    {
      "channel": 1,
      "note": 38,
      "start": 0.448,
      "duration": 0.0013,
      "velocity": 127,
      "chip": "ym2612"
    },
    {
      "channel": 2,
      "note": 67,
      "start": 0.4483,
      "duration": 0.0012,
      "velocity": 97,
      "chip": "ym2612"
    },
    {
      "channel": 2,
      "note": 62,
      "start": 0.4497,
      "duration": 0.0008,
      "velocity": 97,
      "chip": "ym2612"
    },
    {
      "channel": 0,
      "note": 56,
      "start": 0.4501,
      "duration": 0.0019,
      "velocity": 115,
      "chip": "ym2612"
    },
    {
      "channel": 1,
      "note": 38,
      "start": 0.4503,
      "duration": 0.0012,
      "velocity": 127,
      "chip": "ym2612"
    },
    {
      "channel": 2,
      "note": 67,
      "start": 0.4506,
      "duration": 0.001,
      "velocity": 97,
      "chip": "ym2612"
    },
    {
      "channel": 2,
      "note": 62,
      "start": 0.4518,
      "duration": 0.0007,
      "velocity": 97,
      "chip": "ym2612"
    },
    {
      "channel": 0,
      "note": 43,
      "start": 0.4521,
      "duration": 0.0021,
      "velocity": 115,
      "chip": "ym2612"
    },
    {
      "channel": 1,
      "note": 38,
      "start": 0.4524,
      "duration": 0.0013,
      "velocity": 127,
      "chip": "ym2612"
    },
    {
      "channel": 2,
      "note": 67,
      "start": 0.4527,
      "duration": 0.0012,
      "velocity": 97,
      "chip": "ym2612"
    },
    {
      "channel": 1,
      "note": 38,
      "start": 0.4538,
      "duration": 0.0006,
      "velocity": 127,
      "chip": "ym2612"
    },
    {
      "channel": 2,
      "note": 62,
      "start": 0.454,
      "duration": 0.0007,
      "velocity": 97,
      "chip": "ym2612"
    },
    {
      "channel": 0,
      "note": 55,
      "start": 0.4544,
      "duration": 0.0018,
      "velocity": 115,
      "chip": "ym2612"
    },
    {
      "channel": 1,
      "note": 38,
      "start": 0.4546,
      "duration": 0.0011,
      "velocity": 127,
      "chip": "ym2612"
    },
    {
      "channel": 2,
      "note": 67,
      "start": 0.4549,
      "duration": 0.001,
      "velocity": 97,
      "chip": "ym2612"
    },
    {
      "channel": 1,
      "note": 38,
      "start": 0.4559,
      "duration": 0.0006,
      "velocity": 127,
      "chip": "ym2612"
    },
    {
      "channel": 2,
      "note": 62,
      "start": 0.4561,
      "duration": 0.0006,
      "velocity": 97,
      "chip": "ym2612"
    },
    {
      "channel": 0,
      "note": 43,
      "start": 0.4564,
      "duration": 0.002,
      "velocity": 115,
      "chip": "ym2612"
    },
    {
      "channel": 1,
      "note": 38,
      "start": 0.4567,
      "duration": 0.0013,
      "velocity": 127,
      "chip": "ym2612"
    },
    {
      "channel": 2,
      "note": 67,
      "start": 0.457,
      "duration": 0.0012,
      "velocity": 97,
      "chip": "ym2612"
    },
    {
      "channel": 2,
      "note": 62,
      "start": 0.4583,
      "duration": 0.0007,
      "velocity": 97,
      "chip": "ym2612"
    },
    {
      "channel": 0,
      "note": 53,
      "start": 0.4586,
      "duration": 0.002,
      "velocity": 115,
      "chip": "ym2612"
    },
    {
      "channel": 1,
      "note": 38,
      "start": 0.4589,
      "duration": 0.0012,
      "velocity": 127,
      "chip": "ym2612"
    },
    {
      "channel": 2,
      "note": 67,
      "start": 0.4593,
      "duration": 0.0012,
      "velocity": 97,
      "chip": "ym2612"
    },
    {
      "channel": 1,
      "note": 38,
      "start": 0.4603,
      "duration": 0.0004,
      "velocity": 127,
      "chip": "ym2612"
    },
    {
      "channel": 2,
      "note": 62,
      "start": 0.4605,
      "duration": 0.0005,
      "velocity": 97,
      "chip": "ym2612"
    },
    {
      "channel": 0,
      "note": 43,
      "start": 0.4607,
      "duration": 0.0022,
      "velocity": 115,
      "chip": "ym2612"
    },
    {
      "channel": 1,
      "note": 38,
      "start": 0.4609,
      "duration": 0.0016,
      "velocity": 127,
      "chip": "ym2612"
    },
    {
      "channel": 2,
      "note": 68,
      "start": 0.4612,
      "duration": 0.0016,
      "velocity": 97,
      "chip": "ym2612"
    },
    {
      "channel": 3,
      "note": 66,
      "start": 0.4615,
      "duration": 0.0168,
      "velocity": 123,
      "chip": "ym2612"
    },
    {
      "channel": 1,
      "note": 38,
      "start": 0.4627,
      "duration": 0.0005,
      "velocity": 127,
      "chip": "ym2612"
    },
    {
      "channel": 2,
      "note": 63,
      "start": 0.4629,
      "duration": 0.0005,
      "velocity": 97,
      "chip": "ym2612"
    },
    {
      "channel": 0,
      "note": 55,
      "start": 0.4631,
      "duration": 0.0017,
      "velocity": 115,
      "chip": "ym2612"
    },
    {
      "channel": 2,
      "note": 68,
      "start": 0.4635,
      "duration": 0.001,
      "velocity": 97,
      "chip": "ym2612"
    },
    {
      "channel": 1,
      "note": 38,
      "start": 0.4644,
      "duration": 0.0006,
      "velocity": 127,
      "chip": "ym2612"
    },
    {
      "channel": 2,
      "note": 63,
      "start": 0.4647,
      "duration": 0.0007,
      "velocity": 97,
      "chip": "ym2612"
    },
    {
      "channel": 0,
      "note": 43,
      "start": 0.4649,
      "duration": 0.0021,
      "velocity": 115,
      "chip": "ym2612"
    },
    {
      "channel": 1,
      "note": 38,
      "start": 0.4653,
      "duration": 0.0014,
      "velocity": 127,
      "chip": "ym2612"
    },
    {
      "channel": 2,
      "note": 68,
      "start": 0.4656,
      "duration": 0.0012,
      "velocity": 97,
      "chip": "ym2612"
    },
    {
      "channel": 2,
      "note": 63,
      "start": 0.4669,
      "duration": 0.0007,
      "velocity": 97,
      "chip": "ym2612"
    },
    {
      "channel": 0,
      "note": 56,
      "start": 0.4672,
      "duration": 0.0018,
      "velocity": 115,
      "chip": "ym2612"
    },
    {
      "channel": 1,
      "note": 38,
      "start": 0.4676,
      "duration": 0.0011,
      "velocity": 127,
      "chip": "ym2612"
    },
    {
      "channel": 2,
      "note": 68,
      "start": 0.4679,
      "duration": 0.0008,
      "velocity": 97,
      "chip": "ym2612"
    },
    {
      "channel": 2,
      "note": 63,
      "start": 0.4689,
      "duration": 0.0006,
      "velocity": 97,
      "chip": "ym2612"
    },
    {
      "channel": 0,
      "note": 43,
      "start": 0.4691,
      "duration": 0.0021,
      "velocity": 115,
      "chip": "ym2612"
    },
    {
      "channel": 1,
      "note": 38,
      "start": 0.4694,
      "duration": 0.0013,
      "velocity": 127,
      "chip": "ym2612"
    },
    {
      "channel": 2,
      "note": 70,
      "start": 0.4698,
      "duration": 0.0011,
      "velocity": 97,
      "chip": "ym2612"
    },
    {
      "channel": 1,
      "note": 38,
      "start": 0.4708,
      "duration": 0.0006,
      "velocity": 127,
      "chip": "ym2612"
    },
    {
      "channel": 2,
      "note": 63,
      "start": 0.471,
      "duration": 0.0009,
      "velocity": 97,
      "chip": "ym2612"
    },
    {
      "channel": 0,
      "note": 55,
      "start": 0.4714,
      "duration": 0.0018,
      "velocity": 115,
      "chip": "ym2612"
    },
    {
      "channel": 1,
      "note": 38,
      "start": 0.4717,
      "duration": 0.0012,
      "velocity": 127,
      "chip": "ym2612"
    },
    {
      "channel": 2,
      "note": 70,
      "start": 0.4721,
      "duration": 0.0009,
      "velocity": 97,
      "chip": "ym2612"
    },
    {
      "channel": 2,
      "note": 63,
      "start": 0.4732,
      "duration": 0.0005,
      "velocity": 97,
      "chip": "ym2612"
    },
    {
      "channel": 0,
      "note": 43,
      "start": 0.4733,
      "duration": 0.0021,
      "velocity": 115,
      "chip": "ym2612"
    },
    {
      "channel": 1,
      "note": 38,
      "start": 0.4736,
      "duration": 0.0012,
      "velocity": 127,
      "chip": "ym2612"
    },
    {
      "channel": 2,
      "note": 68,
      "start": 0.4739,
      "duration": 0.0011,
      "velocity": 97,
      "chip": "ym2612"
    },
    {
      "channel": 1,
      "note": 38,
      "start": 0.475,
      "duration": 0.0007,
      "velocity": 127,
      "chip": "ym2612"
    },
    {
      "channel": 2,
      "note": 63,
      "start": 0.4752,
      "duration": 0.0008,
      "velocity": 97,
      "chip": "ym2612"
    },
    {
      "channel": 0,
      "note": 58,
      "start": 0.4756,
      "duration": 0.0018,
      "velocity": 115,
      "chip": "ym2612"
    },
    {
      "channel": 1,
      "note": 38,
      "start": 0.4759,
      "duration": 0.0012,
      "velocity": 127,
      "chip": "ym2612"
    },
    {
      "channel": 2,
      "note": 68,
      "start": 0.4762,
      "duration": 0.001,
      "velocity": 97,
      "chip": "ym2612"
    },
    {
      "channel": 1,
      "note": 38,
      "start": 0.4772,
      "duration": 0.0005,
      "velocity": 127,
      "chip": "ym2612"
    },
    {
      "channel": 2,
      "note": 63,
      "start": 0.4774,
      "duration": 0.0006,
      "velocity": 97,
      "chip": "ym2612"
    },
    {
      "channel": 0,
      "note": 43,
      "start": 0.4776,
      "duration": 0.0024,
      "velocity": 115,
      "chip": "ym2612"
    },
    {
      "channel": 1,
      "note": 38,
      "start": 0.4779,
      "duration": 0.0017,
      "velocity": 127,
      "chip": "ym2612"
    },
    {
      "channel": 2,
      "note": 67,
      "start": 0.4782,
      "duration": 0.0015,
      "velocity": 97,
      "chip": "ym2612"
    },
    {
      "channel": 3,
      "note": 65,
      "start": 0.4785,
      "duration": 0.0168,
      "velocity": 123,
      "chip": "ym2612"
    },
    {
      "channel": 2,
      "note": 62,
      "start": 0.4799,
      "duration": 0.0006,
      "velocity": 97,
      "chip": "ym2612"
    },
    {
      "channel": 0,
      "note": 55,
      "start": 0.4801,
      "duration": 0.002,
      "velocity": 115,
      "chip": "ym2612"
    },
    {
      "channel": 1,
      "note": 38,
      "start": 0.4804,
      "duration": 0.0013,
      "velocity": 127,
      "chip": "ym2612"
    },
    {
      "channel": 2,
      "note": 67,
      "start": 0.4807,
      "duration": 0.0011,
      "velocity": 97,
      "chip": "ym2612"
    },
    {
      "channel": 1,
      "note": 38,
      "start": 0.4818,
      "duration": 0.0005,
      "velocity": 127,
      "chip": "ym2612"
    },
    {
      "channel": 2,
      "note": 62,
      "start": 0.482,
      "duration": 0.0005,
      "velocity": 97,
      "chip": "ym2612"
    },
    {
      "channel": 0,
      "note": 43,
      "start": 0.4822,
      "duration": 0.002,
      "velocity": 115,
      "chip": "ym2612"
    },
    {
      "channel": 1,
      "note": 38,
      "start": 0.4824,
      "duration": 0.0013,
      "velocity": 127,
      "chip": "ym2612"
    },
    {
      "channel": 2,
      "note": 67,
      "start": 0.4827,
      "duration": 0.0012,
      "velocity": 97,
      "chip": "ym2612"
    },
    {
      "channel": 2,
      "note": 62,
      "start": 0.484,
      "duration": 0.0009,
      "velocity": 97,
      "chip": "ym2612"
    },
    {
      "channel": 0,
      "note": 56,
      "start": 0.4844,
      "duration": 0.0018,
      "velocity": 115,
      "chip": "ym2612"
    },
    {
      "channel": 1,
      "note": 38,
      "start": 0.4847,
      "duration": 0.0012,
      "velocity": 127,
      "chip": "ym2612"
    },
    {
      "channel": 2,
      "note": 67,
      "start": 0.4851,
      "duration": 0.0009,
      "velocity": 97,
      "chip": "ym2612"
    },
    {
      "channel": 2,
      "note": 62,
      "start": 0.4862,
      "duration": 0.0004,
      "velocity": 97,
      "chip": "ym2612"
    },
    {
      "channel": 0,
      "note": 43,
      "start": 0.4863,
      "duration": 0.002,
      "velocity": 115,
      "chip": "ym2612"
    },
    {
      "channel": 1,
      "note": 38,
      "start": 0.4865,
      "duration": 0.0012,
      "velocity": 127,
      "chip": "ym2612"
    },
    {
      "channel": 2,
      "note": 67,
      "start": 0.4868,
      "duration": 0.0012,
      "velocity": 97,
      "chip": "ym2612"
    },
    {
      "channel": 1,
      "note": 38,
      "start": 0.4879,
      "duration": 0.0007,
      "velocity": 127,
      "chip": "ym2612"
    },
    {
      "channel": 2,
      "note": 62,
      "start": 0.4881,
      "duration": 0.0008,
      "velocity": 97,
      "chip": "ym2612"
    },
    {
      "channel": 0,
      "note": 55,
      "start": 0.4885,
      "duration": 0.0019,
      "velocity": 115,
      "chip": "ym2612"
    },
    {
      "channel": 1,
      "note": 38,
      "start": 0.4888,
      "duration": 0.0011,
      "velocity": 127,
      "chip": "ym2612"
    },
    {
      "channel": 2,
      "note": 67,
      "start": 0.4891,
      "duration": 0.0011,
      "velocity": 97,
      "chip": "ym2612"
    },
    {
      "channel": 1,
      "note": 38,
      "start": 0.4901,
      "duration": 0.0004,
      "velocity": 127,
      "chip": "ym2612"
    },
    {
      "channel": 2,
      "note": 62,
      "start": 0.4904,
      "duration": 0.0004,
      "velocity": 97,
      "chip": "ym2612"
    },
    {
      "channel": 0,
      "note": 43,
      "start": 0.4905,
      "duration": 0.002,
      "velocity": 115,
      "chip": "ym2612"
    },
    {
      "channel": 1,
      "note": 38,
      "start": 0.4907,
      "duration": 0.0012,
      "velocity": 127,
      "chip": "ym2612"
    },
    {
      "channel": 2,
      "note": 67,
      "start": 0.4909,
      "duration": 0.0011,
      "velocity": 97,
      "chip": "ym2612"
    },
    {
      "channel": 2,
      "note": 62,
      "start": 0.4921,
      "duration": 0.0009,
      "velocity": 97,
      "chip": "ym2612"
    },
    {
      "channel": 0,
      "note": 53,
      "start": 0.4927,
      "duration": 0.0019,
      "velocity": 115,
      "chip": "ym2612"
    },
    {
      "channel": 1,
      "note": 38,
      "start": 0.493,
      "duration": 0.0012,
      "velocity": 127,
      "chip": "ym2612"
    },
    {
      "channel": 2,
      "note": 67,
      "start": 0.4933,
      "duration": 0.0011,
      "velocity": 97,
      "chip": "ym2612"
    },
    {
      "channel": 1,
      "note": 38,
      "start": 0.4944,
      "duration": 0.0005,
      "velocity": 127,
      "chip": "ym2612"
    },
    {
      "channel": 2,
      "note": 62,
      "start": 0.4946,
      "duration": 0.0005,
      "velocity": 97,
      "chip": "ym2612"
    },
    {
      "channel": 0,
      "note": 43,
      "start": 0.4948,
      "duration": 0.0022,
      "velocity": 115,
      "chip": "ym2612"
    },
    {
      "channel": 1,
      "note": 38,
      "start": 0.495,
      "duration": 0.0016,
      "velocity": 127,
      "chip": "ym2612"
    },
    {
      "channel": 2,
      "note": 66,
      "start": 0.4953,
      "duration": 0.0015,
      "velocity": 97,
      "chip": "ym2612"
    },
    {
      "channel": 3,
      "note": 64,
      "start": 0.4956,
      "duration": 0.0182,
      "velocity": 123,
      "chip": "ym2612"
    },
    {
      "channel": 1,
      "note": 38,
      "start": 0.4967,
      "duration": 0.0004,
      "velocity": 127,
      "chip": "ym2612"
    },
    {
      "channel": 2,
      "note": 61,
      "start": 0.4969,
      "duration": 0.0005,
      "velocity": 97,
      "chip": "ym2612"
    },
    {
      "channel": 0,
      "note": 55,
      "start": 0.4971,
      "duration": 0.0017,
      "velocity": 115,
      "chip": "ym2612"
    },
    {
      "channel": 2,
      "note": 66,
      "start": 0.4976,
      "duration": 0.0011,
      "velocity": 97,
      "chip": "ym2612"
    },
    {
      "channel": 1,
      "note": 38,
      "start": 0.4985,
      "duration": 0.0006,
      "velocity": 127,
      "chip": "ym2612"
    },
    {
      "channel": 2,
      "note": 61,
      "start": 0.4988,
      "duration": 0.0007,
      "velocity": 97,
      "chip": "ym2612"
    },
    {
      "channel": 0,
      "note": 43,
      "start": 0.499,
      "duration": 0.0021,
      "velocity": 115,
      "chip": "ym2612"
    },
    {
      "channel": 1,
      "note": 38,
      "start": 0.4994,
      "duration": 0.0014,
      "velocity": 127,
      "chip": "ym2612"
    },
    {
      "channel": 2,
      "note": 66,
      "start": 0.4997,
      "duration": 0.0012,
      "velocity": 97,
      "chip": "ym2612"
    },
    {
      "channel": 2,
      "note": 61,
      "start": 0.501,
      "duration": 0.0007,
      "velocity": 97,
      "chip": "ym2612"
    },
    {
      "channel": 0,
      "note": 56,
      "start": 0.5013,
      "duration": 0.0018,
      "velocity": 115,
      "chip": "ym2612"
    },
    {
      "channel": 1,
      "note": 38,
      "start": 0.5017,
      "duration": 0.0011,
      "velocity": 127,
      "chip": "ym2612"
    },
    {
      "channel": 2,
      "note": 66,
      "start": 0.502,
      "duration": 0.0008,
      "velocity": 97,
      "chip": "ym2612"
    },
    {
      "channel": 2,
      "note": 61,
      "start": 0.503,
      "duration": 0.0007,
      "velocity": 97,
      "chip": "ym2612"
    },
    {
      "channel": 0,
      "note": 43,
      "start": 0.5033,
      "duration": 0.0021,
      "velocity": 115,
      "chip": "ym2612"
    },
    {
      "channel": 1,
      "note": 38,
      "start": 0.5036,
      "duration": 0.0013,
      "velocity": 127,
      "chip": "ym2612"
    },
    {
      "channel": 2,
      "note": 66,
      "start": 0.5039,
      "duration": 0.0011,
      "velocity": 97,
      "chip": "ym2612"
    },
    {
      "channel": 1,
      "note": 38,
      "start": 0.505,
      "duration": 0.0007,
      "velocity": 127,
      "chip": "ym2612"
    },
    {
      "channel": 2,
      "note": 61,
      "start": 0.5052,
      "duration": 0.0009,
      "velocity": 97,
      "chip": "ym2612"
    },
    {
      "channel": 0,
      "note": 55,
      "start": 0.5056,
      "duration": 0.0018,
      "velocity": 115,
      "chip": "ym2612"
    },
    {
      "channel": 1,
      "note": 38,
      "start": 0.5059,
      "duration": 0.0012,
      "velocity": 127,
      "chip": "ym2612"
    },
    {
      "channel": 2,
      "note": 66,
      "start": 0.5062,
      "duration": 0.0009,
      "velocity": 97,
      "chip": "ym2612"
    },
    {
      "channel": 2,
      "note": 61,
      "start": 0.5073,
      "duration": 0.0006,
      "velocity": 97,
      "chip": "ym2612"
    },
    {
      "channel": 0,
      "note": 43,
      "start": 0.5076,
      "duration": 0.0021,
      "velocity": 115,
      "chip": "ym2612"
    },
    {
      "channel": 1,
      "note": 38,
      "start": 0.5079,
      "duration": 0.0013,
      "velocity": 127,
      "chip": "ym2612"
    },
    {
      "channel": 2,
      "note": 66,
      "start": 0.5081,
      "duration": 0.0012,
      "velocity": 97,
      "chip": "ym2612"
    },
    {
      "channel": 1,
      "note": 38,
      "start": 0.5093,
      "duration": 0.0007,
      "velocity": 127,
      "chip": "ym2612"
    },
    {
      "channel": 2,
      "note": 61,
      "start": 0.5095,
      "duration": 0.0007,
      "velocity": 97,
      "chip": "ym2612"
    },
    {
      "channel": 0,
      "note": 58,
      "start": 0.5099,
      "duration": 0.0032,
      "velocity": 115,
      "chip": "ym2612"
    },
    {
      "channel": 1,
      "note": 38,
      "start": 0.5101,
      "duration": 0.0016,
      "velocity": 127,
      "chip": "ym2612"
    },
    {
      "channel": 2,
      "note": 66,
      "start": 0.5104,
      "duration": 0.0017,
      "velocity": 97,
      "chip": "ym2612"
    },
    {
      "channel": 1,
      "note": 38,
      "start": 0.512,
      "duration": 0.0013,
      "velocity": 127,
      "chip": "ym2612"
    },
    {
      "channel": 2,
      "note": 61,
      "start": 0.5122,
      "duration": 0.0013,
      "velocity": 97,
      "chip": "ym2612"
    },
    {
      "channel": 0,
      "note": 43,
      "start": 0.5132,
      "duration": 0.0022,
      "velocity": 115,
      "chip": "ym2612"
    },
    {
      "channel": 1,
      "note": 38,
      "start": 0.5134,
      "duration": 0.0015,
      "velocity": 127,
      "chip": "ym2612"
    },
    {
      "channel": 2,
      "note": 67,
      "start": 0.5136,
      "duration": 0.0015,
      "velocity": 97,
      "chip": "ym2612"
    },
    {
      "channel": 3,
      "note": 65,
      "start": 0.5139,
      "duration": 0.017,
      "velocity": 123,
      "chip": "ym2612"
    },
    {
      "channel": 2,
      "note": 62,
      "start": 0.5152,
      "duration": 0.0005,
      "velocity": 97,
      "chip": "ym2612"
    },
    {
      "channel": 0,
      "note": 55,
      "start": 0.5154,
      "duration": 0.0018,
      "velocity": 115,
      "chip": "ym2612"
    },
    {
      "channel": 1,
      "note": 38,
      "start": 0.5156,
      "duration": 0.0011,
      "velocity": 127,
      "chip": "ym2612"
    },
    {
      "channel": 2,
      "note": 67,
      "start": 0.5159,
      "duration": 0.0011,
      "velocity": 97,
      "chip": "ym2612"
    },
    {
      "channel": 1,
      "note": 38,
      "start": 0.5168,
      "duration": 0.0006,
      "velocity": 127,
      "chip": "ym2612"
    },
    {
      "channel": 2,
      "note": 62,
      "start": 0.5172,
      "duration": 0.0006,
      "velocity": 97,
      "chip": "ym2612"
    },
    {
      "channel": 0,
      "note": 43,
      "start": 0.5174,
      "duration": 0.0021,
      "velocity": 115,
      "chip": "ym2612"
    },
    {
      "channel": 1,
      "note": 38,
      "start": 0.5177,
      "duration": 0.0014,
      "velocity": 127,
      "chip": "ym2612"
    },
    {
      "channel": 2,
      "note": 67,
      "start": 0.518,
      "duration": 0.0012,
      "velocity": 97,
      "chip": "ym2612"
    },
    {
      "channel": 2,
      "note": 62,
      "start": 0.5193,
      "duration": 0.0007,
      "velocity": 97,
      "chip": "ym2612"
    },
    {
      "channel": 0,
      "note": 56,
      "start": 0.5197,
      "duration": 0.0019,
      "velocity": 115,
      "chip": "ym2612"
    },
    {
      "channel": 1,
      "note": 38,
      "start": 0.52,
      "duration": 0.0013,
      "velocity": 127,
      "chip": "ym2612"
    },
    {
      "channel": 2,
      "note": 67,
      "start": 0.5203,
      "duration": 0.001,
      "velocity": 97,
      "chip": "ym2612"
    },
    {
      "channel": 2,
      "note": 62,
      "start": 0.5215,
      "duration": 0.0005,
      "velocity": 97,
      "chip": "ym2612"
    },
    {
      "channel": 0,
      "note": 43,
      "start": 0.5217,
      "duration": 0.002,
      "velocity": 115,
      "chip": "ym2612"
    },
    {
      "channel": 1,
      "note": 38,
      "start": 0.5219,
      "duration": 0.0013,
      "velocity": 127,
      "chip": "ym2612"
    },
    {
      "channel": 2,
      "note": 67,
      "start": 0.5222,
      "duration": 0.0012,
      "velocity": 97,
      "chip": "ym2612"
    },
    {
      "channel": 1,
      "note": 38,
      "start": 0.5233,
      "duration": 0.0008,
      "velocity": 127,
      "chip": "ym2612"
    },
    {
      "channel": 2,
      "note": 62,
      "start": 0.5236,
      "duration": 0.0008,
      "velocity": 97,
      "chip": "ym2612"
    },
    {
      "channel": 0,
      "note": 55,
      "start": 0.524,
      "duration": 0.0018,
      "velocity": 115,
      "chip": "ym2612"
    },
    {
      "channel": 1,
      "note": 38,
      "start": 0.5243,
      "duration": 0.0011,
      "velocity": 127,
      "chip": "ym2612"
    },
    {
      "channel": 2,
      "note": 67,
      "start": 0.5246,
      "duration": 0.001,
      "velocity": 97,
      "chip": "ym2612"
    },
    {
      "channel": 1,
      "note": 38,
      "start": 0.5256,
      "duration": 0.0005,
      "velocity": 127,
      "chip": "ym2612"
    },
    {
      "channel": 2,
      "note": 62,
      "start": 0.5258,
      "duration": 0.0005,
      "velocity": 97,
      "chip": "ym2612"
    },
    {
      "channel": 0,
      "note": 43,
      "start": 0.526,
      "duration": 0.0021,
      "velocity": 115,
      "chip": "ym2612"
    },
    {
      "channel": 1,
      "note": 38,
      "start": 0.5262,
      "duration": 0.0013,
      "velocity": 127,
      "chip": "ym2612"
    },
    {
      "channel": 2,
      "note": 67,
      "start": 0.5265,
      "duration": 0.001,
      "velocity": 97,
      "chip": "ym2612"
    },
    {
      "channel": 2,
      "note": 62,
      "start": 0.5277,
      "duration": 0.0009,
      "velocity": 97,
      "chip": "ym2612"
    },
    {
      "channel": 0,
      "note": 53,
      "start": 0.5283,
      "duration": 0.0019,
      "velocity": 115,
      "chip": "ym2612"
    },
    {
      "channel": 1,
      "note": 38,
      "start": 0.5286,
      "duration": 0.0012,
      "velocity": 127,
      "chip": "ym2612"
    },
    {
      "channel": 2,
      "note": 67,
      "start": 0.5289,
      "duration": 0.0011,
      "velocity": 97,
      "chip": "ym2612"
    },
    {
      "channel": 1,
      "note": 38,
      "start": 0.5299,
      "duration": 0.0005,
      "velocity": 127,
      "chip": "ym2612"
    },
    {
      "channel": 2,
      "note": 62,
      "start": 0.5301,
      "duration": 0.0005,
      "velocity": 97,
      "chip": "ym2612"
    },
    {
      "channel": 0,
      "note": 43,
      "start": 0.5304,
      "duration": 0.0022,
      "velocity": 115,
      "chip": "ym2612"
    },
    {
      "channel": 1,
      "note": 38,
      "start": 0.5306,
      "duration": 0.0016,
      "velocity": 127,
      "chip": "ym2612"
    },
    {
      "channel": 2,
      "note": 68,
      "start": 0.5309,
      "duration": 0.0015,
      "velocity": 97,
      "chip": "ym2612"
    },
    {
      "channel": 3,
      "note": 66,
      "start": 0.5311,
      "duration": 0.017,
      "velocity": 123,
      "chip": "ym2612"
    },
    {
      "channel": 1,
      "note": 38,
      "start": 0.5323,
      "duration": 0.0004,
      "velocity": 127,
      "chip": "ym2612"
    },
    {
      "channel": 2,
      "note": 63,
      "start": 0.5325,
      "duration": 0.0005,
      "velocity": 97,
      "chip": "ym2612"
    },
    {
      "channel": 0,
      "note": 55,
      "start": 0.5327,
      "duration": 0.0017,
      "velocity": 115,
      "chip": "ym2612"
    },
    {
      "channel": 2,
      "note": 68,
      "start": 0.5331,
      "duration": 0.0011,
      "velocity": 97,
      "chip": "ym2612"
    },
    {
      "channel": 1,
      "note": 38,
      "start": 0.534,
      "duration": 0.0006,
      "velocity": 127,
      "chip": "ym2612"
    },
    {
      "channel": 2,
      "note": 63,
      "start": 0.5344,
      "duration": 0.0007,
      "velocity": 97,
      "chip": "ym2612"
    },
    {
      "channel": 0,
      "note": 43,
      "start": 0.5346,
      "duration": 0.0021,
      "velocity": 115,
      "chip": "ym2612"
    },
    {
      "channel": 1,
      "note": 38,
      "start": 0.5349,
      "duration": 0.0014,
      "velocity": 127,
      "chip": "ym2612"
    },
    {
      "channel": 2,
      "note": 68,
      "start": 0.5353,
      "duration": 0.0012,
      "velocity": 97,
      "chip": "ym2612"
    },
    {
      "channel": 2,
      "note": 63,
      "start": 0.5366,
      "duration": 0.0007,
      "velocity": 97,
      "chip": "ym2612"
    },
    {
      "channel": 0,
      "note": 56,
      "start": 0.5369,
      "duration": 0.0018,
      "velocity": 115,
      "chip": "ym2612"
    },
    {
      "channel": 1,
      "note": 38,
      "start": 0.5372,
      "duration": 0.0011,
      "velocity": 127,
      "chip": "ym2612"
    },
    {
      "channel": 2,
      "note": 68,
      "start": 0.5376,
      "duration": 0.0008,
      "velocity": 97,
      "chip": "ym2612"
    },
    {
      "channel": 2,
      "note": 63,
      "start": 0.5386,
      "duration": 0.0007,
      "velocity": 97,
      "chip": "ym2612"
    },
    {
      "channel": 0,
      "note": 43,
      "start": 0.5388,
      "duration": 0.0021,
      "velocity": 115,
      "chip": "ym2612"
    },
    {
      "channel": 1,
      "note": 38,
      "start": 0.5391,
      "duration": 0.0013,
      "velocity": 127,
      "chip": "ym2612"
    },
    {
      "channel": 2,
      "note": 70,
      "start": 0.5395,
      "duration": 0.0011,
      "velocity": 97,
      "chip": "ym2612"
    },
    {
      "channel": 1,
      "note": 38,
      "start": 0.5405,
      "duration": 0.0007,
      "velocity": 127,
      "chip": "ym2612"
    },
    {
      "channel": 2,
      "note": 63,
      "start": 0.5407,
      "duration": 0.0009,
      "velocity": 97,
      "chip": "ym2612"
    },
    {
      "channel": 0,
      "note": 55,
      "start": 0.5412,
      "duration": 0.0018,
      "velocity": 115,
      "chip": "ym2612"
    },
    {
      "channel": 1,
      "note": 38,
      "start": 0.5415,
      "duration": 0.0012,
      "velocity": 127,
      "chip": "ym2612"
    },
    {
      "channel": 2,
      "note": 70,
      "start": 0.5418,
      "duration": 0.0009,
      "velocity": 97,
      "chip": "ym2612"
    },
    {
      "channel": 2,
      "note": 63,
      "start": 0.5429,
      "duration": 0.0006,
      "velocity": 97,
      "chip": "ym2612"
    },
    {
      "channel": 0,
      "note": 43,
      "start": 0.5431,
      "duration": 0.0021,
      "velocity": 115,
      "chip": "ym2612"
    },
    {
      "channel": 1,
      "note": 38,
      "start": 0.5434,
      "duration": 0.0013,
      "velocity": 127,
      "chip": "ym2612"
    },
    {
      "channel": 2,
      "note": 68,
      "start": 0.5437,
      "duration": 0.0012,
      "velocity": 97,
      "chip": "ym2612"
    },
    {
      "channel": 1,
      "note": 38,
      "start": 0.5449,
      "duration": 0.0006,
      "velocity": 127,
      "chip": "ym2612"
    },
    {
      "channel": 2,
      "note": 63,
      "start": 0.545,
      "duration": 0.0007,
      "velocity": 97,
      "chip": "ym2612"
    },
    {
      "channel": 0,
      "note": 58,
      "start": 0.5454,
      "duration": 0.0018,
      "velocity": 115,
      "chip": "ym2612"
    },
    {
      "channel": 1,
      "note": 38,
      "start": 0.5457,
      "duration": 0.0011,
      "velocity": 127,
      "chip": "ym2612"
    },
    {
      "channel": 2,
      "note": 68,
      "start": 0.546,
      "duration": 0.001,
      "velocity": 97,
      "chip": "ym2612"
    },
    {
      "channel": 1,
      "note": 38,
      "start": 0.5469,
      "duration": 0.0006,
      "velocity": 127,
      "chip": "ym2612"
    },
    {
      "channel": 2,
      "note": 63,
      "start": 0.5472,
      "duration": 0.0007,
      "velocity": 97,
      "chip": "ym2612"
    },
    {
      "channel": 0,
      "note": 43,
      "start": 0.5474,
      "duration": 0.0022,
      "velocity": 115,
      "chip": "ym2612"
    },
    {
      "channel": 1,
      "note": 38,
      "start": 0.5478,
      "duration": 0.0016,
      "velocity": 127,
      "chip": "ym2612"
    },
    {
      "channel": 2,
      "note": 69,
      "start": 0.5481,
      "duration": 0.0013,
      "velocity": 97,
      "chip": "ym2612"
    },
    {
      "channel": 3,
      "note": 67,
      "start": 0.5483,
      "duration": 0.0165,
      "velocity": 123,
      "chip": "ym2612"
    },
    {
      "channel": 2,
      "note": 64,
      "start": 0.5496,
      "duration": 0.0006,
      "velocity": 97,
      "chip": "ym2612"
    },
    {
      "channel": 0,
      "note": 55,
      "start": 0.5498,
      "duration": 0.0017,
      "velocity": 115,
      "chip": "ym2612"
    },
    {
      "channel": 1,
      "note": 38,
      "start": 0.55,
      "duration": 0.0011,
      "velocity": 127,
      "chip": "ym2612"
    },
    {
      "channel": 2,
      "note": 69,
      "start": 0.5504,
      "duration": 0.001,
      "velocity": 97,
      "chip": "ym2612"
    },
    {
      "channel": 1,
      "note": 38,
      "start": 0.5512,
      "duration": 0.0004,
      "velocity": 127,
      "chip": "ym2612"
    },
    {
      "channel": 2,
      "note": 64,
      "start": 0.5515,
      "duration": 0.0005,
      "velocity": 97,
      "chip": "ym2612"
    },
    {
      "channel": 0,
      "note": 43,
      "start": 0.5516,
      "duration": 0.0021,
      "velocity": 115,
      "chip": "ym2612"
    },
    {
      "channel": 1,
      "note": 38,
      "start": 0.552,
      "duration": 0.0013,
      "velocity": 127,
      "chip": "ym2612"
    },
    {
      "channel": 2,
      "note": 69,
      "start": 0.5522,
      "duration": 0.0012,
      "velocity": 97,
      "chip": "ym2612"
    },
    {
      "channel": 2,
      "note": 64,
      "start": 0.5535,
      "duration": 0.0009,
      "velocity": 97,
      "chip": "ym2612"
    },
    {
      "channel": 0,
      "note": 56,
      "start": 0.5539,
      "duration": 0.0018,
      "velocity": 115,
      "chip": "ym2612"
    },
    {
      "channel": 1,
      "note": 38,
      "start": 0.5543,
      "duration": 0.0012,
      "velocity": 127,
      "chip": "ym2612"
    },
    {
      "channel": 2,
      "note": 69,
      "start": 0.5546,
      "duration": 0.0009,
      "velocity": 97,
      "chip": "ym2612"
    },
    {
      "channel": 2,
      "note": 64,
      "start": 0.5557,
      "duration": 0.0004,
      "velocity": 97,
      "chip": "ym2612"
    },
    {
      "channel": 0,
      "note": 43,
      "start": 0.5559,
      "duration": 0.002,
      "velocity": 115,
      "chip": "ym2612"
    },
    {
      "channel": 1,
      "note": 38,
      "start": 0.5561,
      "duration": 0.0012,
      "velocity": 127,
      "chip": "ym2612"
    },
    {
      "channel": 2,
      "note": 69,
      "start": 0.5563,
      "duration": 0.0012,
      "velocity": 97,
      "chip": "ym2612"
    },
    {
      "channel": 1,
      "note": 38,
      "start": 0.5574,
      "duration": 0.0007,
      "velocity": 127,
      "chip": "ym2612"
    },
    {
      "channel": 2,
      "note": 64,
      "start": 0.5576,
      "duration": 0.0008,
      "velocity": 97,
      "chip": "ym2612"
    },
    {
      "channel": 0,
      "note": 55,
      "start": 0.5581,
      "duration": 0.0019,
      "velocity": 115,
      "chip": "ym2612"
    },
    {
      "channel": 1,
      "note": 38,
      "start": 0.5583,
      "duration": 0.0011,
      "velocity": 127,
      "chip": "ym2612"
    },
    {
      "channel": 2,
      "note": 69,
      "start": 0.5587,
      "duration": 0.0011,
      "velocity": 97,
      "chip": "ym2612"
    },
    {
      "channel": 1,
      "note": 38,
      "start": 0.5597,
      "duration": 0.0004,
      "velocity": 127,
      "chip": "ym2612"
    },
    {
      "channel": 2,
      "note": 64,
      "start": 0.5599,
      "duration": 0.0004,
      "velocity": 97,
      "chip": "ym2612"
    },
    {
      "channel": 0,
      "note": 43,
      "start": 0.56,
      "duration": 0.002,
      "velocity": 115,
      "chip": "ym2612"
    },
    {
      "channel": 1,
      "note": 38,
      "start": 0.5602,
      "duration": 0.0012,
      "velocity": 127,
      "chip": "ym2612"
    },
    {
      "channel": 2,
      "note": 69,
      "start": 0.5605,
      "duration": 0.0011,
      "velocity": 97,
      "chip": "ym2612"
    },
    {
      "channel": 2,
      "note": 64,
      "start": 0.5617,
      "duration": 0.0009,
      "velocity": 97,
      "chip": "ym2612"
    },
    {
      "channel": 0,
      "note": 53,
      "start": 0.5622,
      "duration": 0.0019,
      "velocity": 115,
      "chip": "ym2612"
    },
    {
      "channel": 1,
      "note": 38,
      "start": 0.5625,
      "duration": 0.0012,
      "velocity": 127,
      "chip": "ym2612"
    },
    {
      "channel": 2,
      "note": 69,
      "start": 0.5628,
      "duration": 0.0011,
      "velocity": 97,
      "chip": "ym2612"
    },
    {
      "channel": 1,
      "note": 38,
      "start": 0.5639,
      "duration": 0.0005,
      "velocity": 127,
      "chip": "ym2612"
    },
    {
      "channel": 2,
      "note": 64,
      "start": 0.5641,
      "duration": 0.0005,
      "velocity": 97,
      "chip": "ym2612"
    },
    {
      "channel": 0,
      "note": 43,
      "start": 0.5643,
      "duration": 0.0022,
      "velocity": 115,
      "chip": "ym2612"
    },
    {
      "channel": 1,
      "note": 38,
      "start": 0.5645,
      "duration": 0.0016,
      "velocity": 127,
      "chip": "ym2612"
    },
    {
      "channel": 2,
      "note": 70,
      "start": 0.5648,
      "duration": 0.0015,
      "velocity": 97,
      "chip": "ym2612"
    },
    {
      "channel": 3,
      "note": 68,
      "start": 0.5651,
      "duration": 0.0086,
      "velocity": 123,
      "chip": "ym2612"
    },
    {
      "channel": 1,
      "note": 38,
      "start": 0.5662,
      "duration": 0.0007,
      "velocity": 127,
      "chip": "ym2612"
    },
    {
      "channel": 2,
      "note": 65,
      "start": 0.5665,
      "duration": 0.0006,
      "velocity": 97,
      "chip": "ym2612"
    },
    {
      "channel": 0,
      "note": 55,
      "start": 0.5668,
      "duration": 0.0019,
      "velocity": 115,
      "chip": "ym2612"
    },
    {
      "channel": 2,
      "note": 70,
      "start": 0.5673,
      "duration": 0.0011,
      "velocity": 97,
      "chip": "ym2612"
    },
    {
      "channel": 1,
      "note": 38,
      "start": 0.5683,
      "duration": 0.0006,
      "velocity": 127,
      "chip": "ym2612"
    },
    {
      "channel": 2,
      "note": 65,
      "start": 0.5686,
      "duration": 0.0006,
      "velocity": 97,
      "chip": "ym2612"
    },
    {
      "channel": 0,
      "note": 43,
      "start": 0.5689,
      "duration": 0.0021,
      "velocity": 115,
      "chip": "ym2612"
    },
    {
      "channel": 1,
      "note": 38,
      "start": 0.5691,
      "duration": 0.0012,
      "velocity": 127,
      "chip": "ym2612"
    },
    {
      "channel": 2,
      "note": 70,
      "start": 0.5694,
      "duration": 0.001,
      "velocity": 97,
      "chip": "ym2612"
    },
    {
      "channel": 2,
      "note": 65,
      "start": 0.5706,
      "duration": 0.001,
      "velocity": 97,
      "chip": "ym2612"
    },
    {
      "channel": 0,
      "note": 56,
      "start": 0.5711,
      "duration": 0.0017,
      "velocity": 115,
      "chip": "ym2612"
    },
    {
      "channel": 1,
      "note": 38,
      "start": 0.5715,
      "duration": 0.0012,
      "velocity": 127,
      "chip": "ym2612"
    },
    {
      "channel": 2,
      "note": 70,
      "start": 0.5718,
      "duration": 0.0009,
      "velocity": 97,
      "chip": "ym2612"
    },
    {
      "channel": 2,
      "note": 65,
      "start": 0.5728,
      "duration": 0.0007,
      "velocity": 97,
      "chip": "ym2612"
    },
    {
      "channel": 0,
      "note": 43,
      "start": 0.573,
      "duration": 0.0023,
      "velocity": 115,
      "chip": "ym2612"
    },
    {
      "channel": 1,
      "note": 38,
      "start": 0.5733,
      "duration": 0.0015,
      "velocity": 127,
      "chip": "ym2612"
    },
    {
      "channel": 2,
      "note": 70,
      "start": 0.5737,
      "duration": 0.0014,
      "velocity": 97,
      "chip": "ym2612"
    },
    {
      "channel": 3,
      "note": 69,
      "start": 0.574,
      "duration": 0.0096,
      "velocity": 123,
      "chip": "ym2612"
    },
    {
      "channel": 1,
      "note": 38,
      "start": 0.575,
      "duration": 0.0004,
      "velocity": 127,
      "chip": "ym2612"
    },
    {
      "channel": 2,
      "note": 65,
      "start": 0.5752,
      "duration": 0.0005,
      "velocity": 97,
      "chip": "ym2612"
    },
    {
      "channel": 0,
      "note": 55,
      "start": 0.5754,
      "duration": 0.0017,
      "velocity": 115,
      "chip": "ym2612"
    },
    {
      "channel": 1,
      "note": 38,
      "start": 0.5757,
      "duration": 0.0011,
      "velocity": 127,
      "chip": "ym2612"
    },
    {
      "channel": 2,
      "note": 70,
      "start": 0.576,
      "duration": 0.0008,
      "velocity": 97,
      "chip": "ym2612"
    },
    {
      "channel": 2,
      "note": 65,
      "start": 0.577,
      "duration": 0.0006,
      "velocity": 97,
      "chip": "ym2612"
    },
    {
      "channel": 0,
      "note": 55,
      "start": 0.5773,
      "duration": 0.002,
      "velocity": 115,
      "chip": "ym2612"
    },
    {
      "channel": 1,
      "note": 38,
      "start": 0.5776,
      "duration": 0.0012,
      "velocity": 127,
      "chip": "ym2612"
    },
    {
      "channel": 2,
      "note": 70,
      "start": 0.5779,
      "duration": 0.0011,
      "velocity": 97,
      "chip": "ym2612"
    },
    {
      "channel": 1,
      "note": 38,
      "start": 0.5789,
      "duration": 0.0007,
      "velocity": 127,
      "chip": "ym2612"
    },
    {
      "channel": 2,
      "note": 65,
      "start": 0.5791,
      "duration": 0.0008,
      "velocity": 97,
      "chip": "ym2612"
    },
    {
      "channel": 0,
      "note": 58,
      "start": 0.5795,
      "duration": 0.0032,
      "velocity": 115,
      "chip": "ym2612"
    },
    {
      "channel": 1,
      "note": 38,
      "start": 0.5799,
      "duration": 0.0017,
      "velocity": 127,
      "chip": "ym2612"
    },
    {
      "channel": 2,
      "note": 70,
      "start": 0.5801,
      "duration": 0.0017,
      "velocity": 97,
      "chip": "ym2612"
    },
    {
      "channel": 1,
      "note": 38,
      "start": 0.5818,
      "duration": 0.0012,
      "velocity": 127,
      "chip": "ym2612"
    },
    {
      "channel": 2,
      "note": 65,
      "start": 0.582,
      "duration": 0.0013,
      "velocity": 97,
      "chip": "ym2612"
    },
    {
      "channel": 0,
      "note": 48,
      "start": 0.5829,
      "duration": 0.0022,
      "velocity": 115,
      "chip": "ym2612"
    },
    {
      "channel": 1,
      "note": 38,
      "start": 0.5832,
      "duration": 0.0017,
      "velocity": 127,
      "chip": "ym2612"
    },
    {
      "channel": 2,
      "note": 72,
      "start": 0.5834,
      "duration": 0.0015,
      "velocity": 97,
      "chip": "ym2612"
    },
    {
      "channel": 3,
      "note": 70,
      "start": 0.5838,
      "duration": 0.0167,
      "velocity": 123,
      "chip": "ym2612"
    },
    {
      "channel": 2,
      "note": 67,
      "start": 0.5851,
      "duration": 0.0005,
      "velocity": 97,
      "chip": "ym2612"
    },
    {
      "channel": 0,
      "note": 60,
      "start": 0.5853,
      "duration": 0.0017,
      "velocity": 115,
      "chip": "ym2612"
    },
    {
      "channel": 1,
      "note": 38,
      "start": 0.5855,
      "duration": 0.0012,
      "velocity": 127,
      "chip": "ym2612"
    },
    {
      "channel": 2,
      "note": 72,
      "start": 0.5858,
      "duration": 0.001,
      "velocity": 97,
      "chip": "ym2612"
    },
    {
      "channel": 1,
      "note": 38,
      "start": 0.5868,
      "duration": 0.0005,
      "velocity": 127,
      "chip": "ym2612"
    },
    {
      "channel": 2,
      "note": 67,
      "start": 0.5869,
      "duration": 0.0005,
      "velocity": 97,
      "chip": "ym2612"
    },
    {
      "channel": 0,
      "note": 48,
      "start": 0.5871,
      "duration": 0.0021,
      "velocity": 115,
      "chip": "ym2612"
    },
    {
      "channel": 1,
      "note": 38,
      "start": 0.5874,
      "duration": 0.0012,
      "velocity": 127,
      "chip": "ym2612"
    },
    {
      "channel": 2,
      "note": 72,
      "start": 0.5877,
      "duration": 0.001,
      "velocity": 97,
      "chip": "ym2612"
    },
    {
      "channel": 2,
      "note": 67,
      "start": 0.5889,
      "duration": 0.0009,
      "velocity": 97,
      "chip": "ym2612"
    },
    {
      "channel": 0,
      "note": 61,
      "start": 0.5894,
      "duration": 0.0019,
      "velocity": 115,
      "chip": "ym2612"
    },
    {
      "channel": 1,
      "note": 38,
      "start": 0.5897,
      "duration": 0.0012,
      "velocity": 127,
      "chip": "ym2612"
    },
    {
      "channel": 2,
      "note": 72,
      "start": 0.59,
      "duration": 0.001,
      "velocity": 97,
      "chip": "ym2612"
    },
    {
      "channel": 2,
      "note": 67,
      "start": 0.5912,
      "duration": 0.0005,
      "velocity": 97,
      "chip": "ym2612"
    },
    {
      "channel": 0,
      "note": 48,
      "start": 0.5914,
      "duration": 0.002,
      "velocity": 115,
      "chip": "ym2612"
    },
    {
      "channel": 1,
      "note": 38,
      "start": 0.5916,
      "duration": 0.0013,
      "velocity": 127,
      "chip": "ym2612"
    },
    {
      "channel": 2,
      "note": 72,
      "start": 0.5919,
      "duration": 0.0012,
      "velocity": 97,
      "chip": "ym2612"
    },
    {
      "channel": 1,
      "note": 38,
      "start": 0.593,
      "duration": 0.0006,
      "velocity": 127,
      "chip": "ym2612"
    },
    {
      "channel": 2,
      "note": 67,
      "start": 0.5932,
      "duration": 0.0007,
      "velocity": 97,
      "chip": "ym2612"
    },
    {
      "channel": 0,
      "note": 60,
      "start": 0.5936,
      "duration": 0.0019,
      "velocity": 115,
      "chip": "ym2612"
    },
    {
      "channel": 1,
      "note": 38,
      "start": 0.5939,
      "duration": 0.0011,
      "velocity": 127,
      "chip": "ym2612"
    },
    {
      "channel": 2,
      "note": 72,
      "start": 0.5941,
      "duration": 0.0012,
      "velocity": 97,
      "chip": "ym2612"
    },
    {
      "channel": 1,
      "note": 38,
      "start": 0.5952,
      "duration": 0.0005,
      "velocity": 127,
      "chip": "ym2612"
    },
    {
      "channel": 2,
      "note": 67,
      "start": 0.5954,
      "duration": 0.0005,
      "velocity": 97,
      "chip": "ym2612"
    },
    {
      "channel": 0,
      "note": 48,
      "start": 0.5956,
      "duration": 0.0021,
      "velocity": 115,
      "chip": "ym2612"
    },
    {
      "channel": 1,
      "note": 38,
      "start": 0.5959,
      "duration": 0.0012,
      "velocity": 127,
      "chip": "ym2612"
    },
    {
      "channel": 2,
      "note": 72,
      "start": 0.5962,
      "duration": 0.001,
      "velocity": 97,
      "chip": "ym2612"
    },
    {
      "channel": 2,
      "note": 67,
      "start": 0.5974,
      "duration": 0.001,
      "velocity": 97,
      "chip": "ym2612"
    },
    {
      "channel": 0,
      "note": 58,
      "start": 0.5979,
      "duration": 0.0018,
      "velocity": 115,
      "chip": "ym2612"
    },
    {
      "channel": 1,
      "note": 38,
      "start": 0.5982,
      "duration": 0.0011,
      "velocity": 127,
      "chip": "ym2612"
    },
    {
      "channel": 2,
      "note": 72,
      "start": 0.5985,
      "duration": 0.001,
      "velocity": 97,
      "chip": "ym2612"
    },
    {
      "channel": 1,
      "note": 38,
      "start": 0.5994,
      "duration": 0.0004,
      "velocity": 127,
      "chip": "ym2612"
    },
    {
      "channel": 2,
      "note": 67,
      "start": 0.5996,
      "duration": 0.0007,
      "velocity": 97,
      "chip": "ym2612"
    },
    {
      "channel": 0,
      "note": 48,
      "start": 0.5998,
      "duration": 0.0023,
      "velocity": 115,
      "chip": "ym2612"
    },
    {
      "channel": 1,
      "note": 38,
      "start": 0.6001,
      "duration": 0.0016,
      "velocity": 127,
      "chip": "ym2612"
    },
    {
      "channel": 2,
      "note": 73,
      "start": 0.6005,
      "duration": 0.0015,
      "velocity": 97,
      "chip": "ym2612"
    },
    {
      "channel": 3,
      "note": 69,
      "start": 0.6007,
      "duration": 0.0169,
      "velocity": 123,
      "chip": "ym2612"
    },
    {
      "channel": 1,
      "note": 38,
      "start": 0.6019,
      "duration": 0.0005,
      "velocity": 127,
      "chip": "ym2612"
    },
    {
      "channel": 2,
      "note": 68,
      "start": 0.6021,
      "duration": 0.0005,
      "velocity": 97,
      "chip": "ym2612"
    },
    {
      "channel": 0,
      "note": 60,
      "start": 0.6023,
      "duration": 0.0017,
      "velocity": 115,
      "chip": "ym2612"
    },
    {
      "channel": 2,
      "note": 73,
      "start": 0.6027,
      "duration": 0.0011,
      "velocity": 97,
      "chip": "ym2612"
    },
    {
      "channel": 1,
      "note": 38,
      "start": 0.6036,
      "duration": 0.0006,
      "velocity": 127,
      "chip": "ym2612"
    },
    {
      "channel": 2,
      "note": 68,
      "start": 0.604,
      "duration": 0.0007,
      "velocity": 97,
      "chip": "ym2612"
    },
    {
      "channel": 0,
      "note": 48,
      "start": 0.6042,
      "duration": 0.0021,
      "velocity": 115,
      "chip": "ym2612"
    },
    {
      "channel": 1,
      "note": 38,
      "start": 0.6045,
      "duration": 0.0014,
      "velocity": 127,
      "chip": "ym2612"
    },
    {
      "channel": 2,
      "note": 73,
      "start": 0.6049,
      "duration": 0.0012,
      "velocity": 97,
      "chip": "ym2612"
    },
    {
      "channel": 2,
      "note": 68,
      "start": 0.6061,
      "duration": 0.0007,
      "velocity": 97,
      "chip": "ym2612"
    },
    {
      "channel": 0,
      "note": 61,
      "start": 0.6065,
      "duration": 0.0017,
      "velocity": 115,
      "chip": "ym2612"
    },
    {
      "channel": 1,
      "note": 38,
      "start": 0.6068,
      "duration": 0.0011,
      "velocity": 127,
      "chip": "ym2612"
    },
    {
      "channel": 2,
      "note": 73,
      "start": 0.6071,
      "duration": 0.0008,
      "velocity": 97,
      "chip": "ym2612"
    },
    {
      "channel": 2,
      "note": 68,
      "start": 0.6081,
      "duration": 0.0007,
      "velocity": 97,
      "chip": "ym2612"
    },
    {
      "channel": 0,
      "note": 48,
      "start": 0.6084,
      "duration": 0.0021,
      "velocity": 115,
      "chip": "ym2612"
    },
    {
      "channel": 1,
      "note": 38,
      "start": 0.6087,
      "duration": 0.0013,
      "velocity": 127,
      "chip": "ym2612"
    },
    {
      "channel": 2,
      "note": 75,
      "start": 0.609,
      "duration": 0.0011,
      "velocity": 97,
      "chip": "ym2612"
    },
    {
      "channel": 1,
      "note": 38,
      "start": 0.6101,
      "duration": 0.0006,
      "velocity": 127,
      "chip": "ym2612"
    },
    {
      "channel": 2,
      "note": 70,
      "start": 0.6103,
      "duration": 0.0008,
      "velocity": 97,
      "chip": "ym2612"
    },
    {
      "channel": 0,
      "note": 60,
      "start": 0.6107,
      "duration": 0.0017,
      "velocity": 115,
      "chip": "ym2612"
    },
    {
      "channel": 1,
      "note": 38,
      "start": 0.611,
      "duration": 0.0012,
      "velocity": 127,
      "chip": "ym2612"
    },
    {
      "channel": 2,
      "note": 75,
      "start": 0.6113,
      "duration": 0.0009,
      "velocity": 97,
      "chip": "ym2612"
    },
    {
      "channel": 2,
      "note": 70,
      "start": 0.6123,
      "duration": 0.0005,
      "velocity": 97,
      "chip": "ym2612"
    },
    {
      "channel": 0,
      "note": 48,
      "start": 0.6125,
      "duration": 0.0022,
      "velocity": 115,
      "chip": "ym2612"
    },
    {
      "channel": 1,
      "note": 38,
      "start": 0.6128,
      "duration": 0.0013,
      "velocity": 127,
      "chip": "ym2612"
    },
    {
      "channel": 2,
      "note": 73,
      "start": 0.6131,
      "duration": 0.0013,
      "velocity": 97,
      "chip": "ym2612"
    },
    {
      "channel": 1,
      "note": 38,
      "start": 0.6143,
      "duration": 0.0007,
      "velocity": 127,
      "chip": "ym2612"
    },
    {
      "channel": 2,
      "note": 68,
      "start": 0.6146,
      "duration": 0.0007,
      "velocity": 97,
      "chip": "ym2612"
    },
    {
      "channel": 0,
      "note": 63,
      "start": 0.6149,
      "duration": 0.002,
      "velocity": 115,
      "chip": "ym2612"
    },
    {
      "channel": 1,
      "note": 38,
      "start": 0.6152,
      "duration": 0.0012,
      "velocity": 127,
      "chip": "ym2612"
    },
    {
      "channel": 2,
      "note": 73,
      "start": 0.6155,
      "duration": 0.0011,
      "velocity": 97,
      "chip": "ym2612"
    },
    {
      "channel": 1,
      "note": 38,
      "start": 0.6166,
      "duration": 0.0006,
      "velocity": 127,
      "chip": "ym2612"
    },
    {
      "channel": 2,
      "note": 68,
      "start": 0.6168,
      "duration": 0.0005,
      "velocity": 97,
      "chip": "ym2612"
    },
    {
      "channel": 0,
      "note": 48,
      "start": 0.6171,
      "duration": 0.0022,
      "velocity": 115,
      "chip": "ym2612"
    },
    {
      "channel": 1,
      "note": 38,
      "start": 0.6173,
      "duration": 0.0017,
      "velocity": 127,
      "chip": "ym2612"
    },
    {
      "channel": 2,
      "note": 72,
      "start": 0.6176,
      "duration": 0.0015,
      "velocity": 97,
      "chip": "ym2612"
    },
    {
      "channel": 3,
      "note": 68,
      "start": 0.6179,
      "duration": 0.0168,
      "velocity": 123,
      "chip": "ym2612"
    },
    {
      "channel": 2,
      "note": 67,
      "start": 0.6193,
      "duration": 0.0005,
      "velocity": 97,
      "chip": "ym2612"
    },
    {
      "channel": 0,
      "note": 60,
      "start": 0.6195,
      "duration": 0.0018,
      "velocity": 115,
      "chip": "ym2612"
    },
    {
      "channel": 1,
      "note": 38,
      "start": 0.6197,
      "duration": 0.0012,
      "velocity": 127,
      "chip": "ym2612"
    },
    {
      "channel": 2,
      "note": 72,
      "start": 0.6201,
      "duration": 0.001,
      "velocity": 97,
      "chip": "ym2612"
    },
    {
      "channel": 1,
      "note": 38,
      "start": 0.621,
      "duration": 0.0004,
      "velocity": 127,
      "chip": "ym2612"
    },
    {
      "channel": 2,
      "note": 67,
      "start": 0.6212,
      "duration": 0.0005,
      "velocity": 97,
      "chip": "ym2612"
    },
    {
      "channel": 0,
      "note": 48,
      "start": 0.6214,
      "duration": 0.002,
      "velocity": 115,
      "chip": "ym2612"
    },
    {
      "channel": 1,
      "note": 38,
      "start": 0.6215,
      "duration": 0.0013,
      "velocity": 127,
      "chip": "ym2612"
    },
    {
      "channel": 2,
      "note": 72,
      "start": 0.6219,
      "duration": 0.001,
      "velocity": 97,
      "chip": "ym2612"
    },
    {
      "channel": 2,
      "note": 67,
      "start": 0.6231,
      "duration": 0.0009,
      "velocity": 97,
      "chip": "ym2612"
    },
    {
      "channel": 0,
      "note": 61,
      "start": 0.6236,
      "duration": 0.0017,
      "velocity": 115,
      "chip": "ym2612"
    },
    {
      "channel": 1,
      "note": 38,
      "start": 0.6239,
      "duration": 0.0011,
      "velocity": 127,
      "chip": "ym2612"
    },
    {
      "channel": 2,
      "note": 72,
      "start": 0.6242,
      "duration": 0.0008,
      "velocity": 97,
      "chip": "ym2612"
    },
    {
      "channel": 2,
      "note": 67,
      "start": 0.6252,
      "duration": 0.0006,
      "velocity": 97,
      "chip": "ym2612"
    },
    {
      "channel": 0,
      "note": 48,
      "start": 0.6254,
      "duration": 0.0021,
      "velocity": 115,
      "chip": "ym2612"
    },
    {
      "channel": 1,
      "note": 38,
      "start": 0.6258,
      "duration": 0.0012,
      "velocity": 127,
      "chip": "ym2612"
    },
    {
      "channel": 2,
      "note": 72,
      "start": 0.6261,
      "duration": 0.0011,
      "velocity": 97,
      "chip": "ym2612"
    },
    {
      "channel": 1,
      "note": 38,
      "start": 0.6271,
      "duration": 0.0007,
      "velocity": 127,
      "chip": "ym2612"
    },
    {
      "channel": 2,
      "note": 67,
      "start": 0.6273,
      "duration": 0.0008,
      "velocity": 97,
      "chip": "ym2612"
    },
    {
      "channel": 0,
      "note": 60,
      "start": 0.6277,
      "duration": 0.002,
      "velocity": 115,
      "chip": "ym2612"
    },
    {
      "channel": 1,
      "note": 38,
      "start": 0.628,
      "duration": 0.0012,
      "velocity": 127,
      "chip": "ym2612"
    },
    {
      "channel": 2,
      "note": 72,
      "start": 0.6284,
      "duration": 0.0011,
      "velocity": 97,
      "chip": "ym2612"
    },
    {
      "channel": 1,
      "note": 38,
      "start": 0.6293,
      "duration": 0.0006,
      "velocity": 127,
      "chip": "ym2612"
    },
    {
      "channel": 2,
      "note": 67,
      "start": 0.6296,
      "duration": 0.0005,
      "velocity": 97,
      "chip": "ym2612"
    },
    {
      "channel": 0,
      "note": 48,
      "start": 0.6298,
      "duration": 0.0021,
      "velocity": 115,
      "chip": "ym2612"
    },
    {
      "channel": 1,
      "note": 38,
      "start": 0.63,
      "duration": 0.0013,
      "velocity": 127,
      "chip": "ym2612"
    },
    {
      "channel": 2,
      "note": 72,
      "start": 0.6304,
      "duration": 0.0011,
      "velocity": 97,
      "chip": "ym2612"
    },
    {
      "channel": 2,
      "note": 67,
      "start": 0.6316,
      "duration": 0.0009,
      "velocity": 97,
      "chip": "ym2612"
    },
    {
      "channel": 0,
      "note": 58,
      "start": 0.6322,
      "duration": 0.0018,
      "velocity": 115,
      "chip": "ym2612"
    },
    {
      "channel": 1,
      "note": 38,
      "start": 0.6324,
      "duration": 0.0011,
      "velocity": 127,
      "chip": "ym2612"
    },
    {
      "channel": 2,
      "note": 72,
      "start": 0.6328,
      "duration": 0.001,
      "velocity": 97,
      "chip": "ym2612"
    },
    {
      "channel": 1,
      "note": 38,
      "start": 0.6337,
      "duration": 0.0004,
      "velocity": 127,
      "chip": "ym2612"
    },
    {
      "channel": 2,
      "note": 67,
      "start": 0.6338,
      "duration": 0.0006,
      "velocity": 97,
      "chip": "ym2612"
    },
    {
      "channel": 0,
      "note": 48,
      "start": 0.6341,
      "duration": 0.0026,
      "velocity": 115,
      "chip": "ym2612"
    },
    {
      "channel": 1,
      "note": 38,
      "start": 0.6343,
      "duration": 0.0017,
      "velocity": 127,
      "chip": "ym2612"
    },
    {
      "channel": 2,
      "note": 71,
      "start": 0.6346,
      "duration": 0.0016,
      "velocity": 97,
      "chip": "ym2612"
    },
    {
      "channel": 3,
      "note": 67,
      "start": 0.6349,
      "duration": 0.0186,
      "velocity": 123,
      "chip": "ym2612"
    },
    {
      "channel": 1,
      "note": 38,
      "start": 0.6362,
      "duration": 0.0007,
      "velocity": 127,
      "chip": "ym2612"
    },
    {
      "channel": 2,
      "note": 66,
      "start": 0.6365,
      "duration": 0.0006,
      "velocity": 97,
      "chip": "ym2612"
    },
    {
      "channel": 0,
      "note": 60,
      "start": 0.6368,
      "duration": 0.0018,
      "velocity": 115,
      "chip": "ym2612"
    },
    {
      "channel": 2,
      "note": 71,
      "start": 0.6373,
      "duration": 0.0011,
      "velocity": 97,
      "chip": "ym2612"
    },
    {
      "channel": 1,
      "note": 38,
      "start": 0.6383,
      "duration": 0.0005,
      "velocity": 127,
      "chip": "ym2612"
    },
    {
      "channel": 2,
      "note": 66,
      "start": 0.6385,
      "duration": 0.0005,
      "velocity": 97,
      "chip": "ym2612"
    },
    {
      "channel": 0,
      "note": 48,
      "start": 0.6387,
      "duration": 0.0021,
      "velocity": 115,
      "chip": "ym2612"
    },
    {
      "channel": 1,
      "note": 38,
      "start": 0.639,
      "duration": 0.0012,
      "velocity": 127,
      "chip": "ym2612"
    },
    {
      "channel": 2,
      "note": 71,
      "start": 0.6393,
      "duration": 0.001,
      "velocity": 97,
      "chip": "ym2612"
    },
    {
      "channel": 2,
      "note": 66,
      "start": 0.6405,
      "duration": 0.0009,
      "velocity": 97,
      "chip": "ym2612"
    },
    {
      "channel": 0,
      "note": 61,
      "start": 0.641,
      "duration": 0.0017,
      "velocity": 115,
      "chip": "ym2612"
    },
    {
      "channel": 1,
      "note": 38,
      "start": 0.6413,
      "duration": 0.0011,
      "velocity": 127,
      "chip": "ym2612"
    },
    {
      "channel": 2,
      "note": 71,
      "start": 0.6417,
      "duration": 0.0008,
      "velocity": 97,
      "chip": "ym2612"
    },
    {
      "channel": 2,
      "note": 66,
      "start": 0.6427,
      "duration": 0.0006,
      "velocity": 97,
      "chip": "ym2612"
    },
    {
      "channel": 0,
      "note": 48,
      "start": 0.6429,
      "duration": 0.0021,
      "velocity": 115,
      "chip": "ym2612"
    },
    {
      "channel": 1,
      "note": 38,
      "start": 0.6432,
      "duration": 0.0012,
      "velocity": 127,
      "chip": "ym2612"
    },
    {
      "channel": 2,
      "note": 71,
      "start": 0.6435,
      "duration": 0.0011,
      "velocity": 97,
      "chip": "ym2612"
    },
    {
      "channel": 1,
      "note": 38,
      "start": 0.6446,
      "duration": 0.0007,
      "velocity": 127,
      "chip": "ym2612"
    },
    {
      "channel": 2,
      "note": 66,
      "start": 0.6448,
      "duration": 0.0008,
      "velocity": 97,
      "chip": "ym2612"
    },
    {
      "channel": 0,
      "note": 63,
      "start": 0.6452,
      "duration": 0.0017,
      "velocity": 115,
      "chip": "ym2612"
    },
    {
      "channel": 1,
      "note": 38,
      "start": 0.6455,
      "duration": 0.0012,
      "velocity": 127,
      "chip": "ym2612"
    },
    {
      "channel": 2,
      "note": 71,
      "start": 0.6458,
      "duration": 0.0009,
      "velocity": 97,
      "chip": "ym2612"
    },
    {
      "channel": 2,
      "note": 66,
      "start": 0.6469,
      "duration": 0.0006,
      "velocity": 97,
      "chip": "ym2612"
    },
    {
      "channel": 0,
      "note": 48,
      "start": 0.6471,
      "duration": 0.0022,
      "velocity": 115,
      "chip": "ym2612"
    },
    {
      "channel": 1,
      "note": 38,
      "start": 0.6474,
      "duration": 0.0014,
      "velocity": 127,
      "chip": "ym2612"
    },
    {
      "channel": 2,
      "note": 71,
      "start": 0.6477,
      "duration": 0.0013,
      "velocity": 97,
      "chip": "ym2612"
    },
    {
      "channel": 1,
      "note": 38,
      "start": 0.6489,
      "duration": 0.0006,
      "velocity": 127,
      "chip": "ym2612"
    },
    {
      "channel": 2,
      "note": 66,
      "start": 0.6491,
      "duration": 0.0006,
      "velocity": 97,
      "chip": "ym2612"
    },
    {
      "channel": 0,
      "note": 61,
      "start": 0.6495,
      "duration": 0.0034,
      "velocity": 115,
      "chip": "ym2612"
    },
    {
      "channel": 1,
      "note": 38,
      "start": 0.6497,
      "duration": 0.0017,
      "velocity": 127,
      "chip": "ym2612"
    },
    {
      "channel": 2,
      "note": 71,
      "start": 0.65,
      "duration": 0.0017,
      "velocity": 97,
      "chip": "ym2612"
    },
    {
      "channel": 1,
      "note": 38,
      "start": 0.6517,
      "duration": 0.0014,
      "velocity": 127,
      "chip": "ym2612"
    },
    {
      "channel": 2,
      "note": 66,
      "start": 0.652,
      "duration": 0.0013,
      "velocity": 97,
      "chip": "ym2612"
    },
    {
      "channel": 0,
      "note": 48,
      "start": 0.653,
      "duration": 0.0022,
      "velocity": 115,
      "chip": "ym2612"
    },
    {
      "channel": 1,
      "note": 38,
      "start": 0.6532,
      "duration": 0.0016,
      "velocity": 127,
      "chip": "ym2612"
    },
    {
      "channel": 2,
      "note": 72,
      "start": 0.6535,
      "duration": 0.0014,
      "velocity": 97,
      "chip": "ym2612"
    },
    {
      "channel": 3,
      "note": 70,
      "start": 0.6537,
      "duration": 0.0172,
      "velocity": 123,
      "chip": "ym2612"
    },
    {
      "channel": 2,
      "note": 67,
      "start": 0.6551,
      "duration": 0.0006,
      "velocity": 97,
      "chip": "ym2612"
    },
    {
      "channel": 0,
      "note": 60,
      "start": 0.6553,
      "duration": 0.002,
      "velocity": 115,
      "chip": "ym2612"
    },
    {
      "channel": 1,
      "note": 38,
      "start": 0.6556,
      "duration": 0.0012,
      "velocity": 127,
      "chip": "ym2612"
    },
    {
      "channel": 2,
      "note": 72,
      "start": 0.6559,
      "duration": 0.0012,
      "velocity": 97,
      "chip": "ym2612"
    },
    {
      "channel": 1,
      "note": 38,
      "start": 0.657,
      "duration": 0.0004,
      "velocity": 127,
      "chip": "ym2612"
    },
    {
      "channel": 2,
      "note": 67,
      "start": 0.6572,
      "duration": 0.0005,
      "velocity": 97,
      "chip": "ym2612"
    },
    {
      "channel": 0,
      "note": 48,
      "start": 0.6573,
      "duration": 0.002,
      "velocity": 115,
      "chip": "ym2612"
    },
    {
      "channel": 1,
      "note": 38,
      "start": 0.6576,
      "duration": 0.0013,
      "velocity": 127,
      "chip": "ym2612"
    },
    {
      "channel": 2,
      "note": 72,
      "start": 0.6578,
      "duration": 0.0012,
      "velocity": 97,
      "chip": "ym2612"
    },
    {
      "channel": 2,
      "note": 67,
      "start": 0.6591,
      "duration": 0.0008,
      "velocity": 97,
      "chip": "ym2612"
    },
    {
      "channel": 0,
      "note": 61,
      "start": 0.6595,
      "duration": 0.0019,
      "velocity": 115,
      "chip": "ym2612"
    },
    {
      "channel": 1,
      "note": 38,
      "start": 0.6599,
      "duration": 0.0012,
      "velocity": 127,
      "chip": "ym2612"
    },
    {
      "channel": 2,
      "note": 72,
      "start": 0.6602,
      "duration": 0.001,
      "velocity": 97,
      "chip": "ym2612"
    },
    {
      "channel": 2,
      "note": 67,
      "start": 0.6613,
      "duration": 0.0007,
      "velocity": 97,
      "chip": "ym2612"
    },
    {
      "channel": 0,
      "note": 48,
      "start": 0.6615,
      "duration": 0.0022,
      "velocity": 115,
      "chip": "ym2612"
    },
    {
      "channel": 1,
      "note": 38,
      "start": 0.6619,
      "duration": 0.0014,
      "velocity": 127,
      "chip": "ym2612"
    },
    {
      "channel": 2,
      "note": 72,
      "start": 0.6622,
      "duration": 0.0013,
      "velocity": 97,
      "chip": "ym2612"
    },
    {
      "channel": 1,
      "note": 38,
      "start": 0.6634,
      "duration": 0.0006,
      "velocity": 127,
      "chip": "ym2612"
    },
    {
      "channel": 2,
      "note": 67,
      "start": 0.6636,
      "duration": 0.0006,
      "velocity": 97,
      "chip": "ym2612"
    },
    {
      "channel": 0,
      "note": 60,
      "start": 0.6639,
      "duration": 0.0019,
      "velocity": 115,
      "chip": "ym2612"
    },
    {
      "channel": 1,
      "note": 38,
      "start": 0.6642,
      "duration": 0.0012,
      "velocity": 127,
      "chip": "ym2612"
    },
    {
      "channel": 2,
      "note": 72,
      "start": 0.6645,
      "duration": 0.0011,
      "velocity": 97,
      "chip": "ym2612"
    },
    {
      "channel": 1,
      "note": 38,
      "start": 0.6655,
      "duration": 0.0005,
      "velocity": 127,
      "chip": "ym2612"
    },
    {
      "channel": 2,
      "note": 67,
      "start": 0.6658,
      "duration": 0.0005,
      "velocity": 97,
      "chip": "ym2612"
    },
    {
      "channel": 0,
      "note": 48,
      "start": 0.6659,
      "duration": 0.0021,
      "velocity": 115,
      "chip": "ym2612"
    },
    {
      "channel": 1,
      "note": 38,
      "start": 0.6662,
      "duration": 0.0012,
      "velocity": 127,
      "chip": "ym2612"
    },
    {
      "channel": 2,
      "note": 72,
      "start": 0.6665,
      "duration": 0.001,
      "velocity": 97,
      "chip": "ym2612"
    },
    {
      "channel": 2,
      "note": 67,
      "start": 0.6676,
      "duration": 0.0009,
      "velocity": 97,
      "chip": "ym2612"
    },
    {
      "channel": 0,
      "note": 58,
      "start": 0.6682,
      "duration": 0.0019,
      "velocity": 115,
      "chip": "ym2612"
    },
    {
      "channel": 1,
      "note": 38,
      "start": 0.6685,
      "duration": 0.0011,
      "velocity": 127,
      "chip": "ym2612"
    },
    {
      "channel": 2,
      "note": 72,
      "start": 0.6688,
      "duration": 0.001,
      "velocity": 97,
      "chip": "ym2612"
    },
    {
      "channel": 1,
      "note": 38,
      "start": 0.6697,
      "duration": 0.0006,
      "velocity": 127,
      "chip": "ym2612"
    },
    {
      "channel": 2,
      "note": 67,
      "start": 0.67,
      "duration": 0.0006,
      "velocity": 97,
      "chip": "ym2612"
    },
    {
      "channel": 0,
      "note": 48,
      "start": 0.6702,
      "duration": 0.0024,
      "velocity": 115,
      "chip": "ym2612"
    },
    {
      "channel": 1,
      "note": 38,
      "start": 0.6705,
      "duration": 0.0017,
      "velocity": 127,
      "chip": "ym2612"
    },
    {
      "channel": 2,
      "note": 73,
      "start": 0.6709,
      "duration": 0.0015,
      "velocity": 97,
      "chip": "ym2612"
    },
    {
      "channel": 3,
      "note": 71,
      "start": 0.6711,
      "duration": 0.0169,
      "velocity": 123,
      "chip": "ym2612"
    },
    {
      "channel": 1,
      "note": 38,
      "start": 0.6723,
      "duration": 0.0005,
      "velocity": 127,
      "chip": "ym2612"
    },
    {
      "channel": 2,
      "note": 68,
      "start": 0.6726,
      "duration": 0.0003,
      "velocity": 97,
      "chip": "ym2612"
    },
    {
      "channel": 0,
      "note": 60,
      "start": 0.6728,
      "duration": 0.0016,
      "velocity": 115,
      "chip": "ym2612"
    },
    {
      "channel": 2,
      "note": 73,
      "start": 0.6731,
      "duration": 0.0012,
      "velocity": 97,
      "chip": "ym2612"
    },
    {
      "channel": 1,
      "note": 38,
      "start": 0.6741,
      "duration": 0.0005,
      "velocity": 127,
      "chip": "ym2612"
    },
    {
      "channel": 2,
      "note": 68,
      "start": 0.6744,
      "duration": 0.0005,
      "velocity": 97,
      "chip": "ym2612"
    },
    {
      "channel": 0,
      "note": 48,
      "start": 0.6745,
      "duration": 0.0021,
      "velocity": 115,
      "chip": "ym2612"
    },
    {
      "channel": 1,
      "note": 38,
      "start": 0.6748,
      "duration": 0.0012,
      "velocity": 127,
      "chip": "ym2612"
    },
    {
      "channel": 2,
      "note": 73,
      "start": 0.6751,
      "duration": 0.001,
      "velocity": 97,
      "chip": "ym2612"
    },
    {
      "channel": 2,
      "note": 68,
      "start": 0.6763,
      "duration": 0.0009,
      "velocity": 97,
      "chip": "ym2612"
    },
    {
      "channel": 0,
      "note": 61,
      "start": 0.6768,
      "duration": 0.0017,
      "velocity": 115,
      "chip": "ym2612"
    },
    {
      "channel": 1,
      "note": 38,
      "start": 0.6771,
      "duration": 0.0011,
      "velocity": 127,
      "chip": "ym2612"
    },
    {
      "channel": 2,
      "note": 73,
      "start": 0.6774,
      "duration": 0.0008,
      "velocity": 97,
      "chip": "ym2612"
    },
    {
      "channel": 2,
      "note": 68,
      "start": 0.6784,
      "duration": 0.0006,
      "velocity": 97,
      "chip": "ym2612"
    },
    {
      "channel": 0,
      "note": 48,
      "start": 0.6786,
      "duration": 0.0022,
      "velocity": 115,
      "chip": "ym2612"
    },
    {
      "channel": 1,
      "note": 38,
      "start": 0.679,
      "duration": 0.0013,
      "velocity": 127,
      "chip": "ym2612"
    },
    {
      "channel": 2,
      "note": 75,
      "start": 0.6792,
      "duration": 0.0013,
      "velocity": 97,
      "chip": "ym2612"
    },
    {
      "channel": 1,
      "note": 38,
      "start": 0.6803,
      "duration": 0.0007,
      "velocity": 127,
      "chip": "ym2612"
    },
    {
      "channel": 2,
      "note": 70,
      "start": 0.6807,
      "duration": 0.0008,
      "velocity": 97,
      "chip": "ym2612"
    },
    {
      "channel": 0,
      "note": 60,
      "start": 0.681,
      "duration": 0.0018,
      "velocity": 115,
      "chip": "ym2612"
    },
    {
      "channel": 1,
      "note": 38,
      "start": 0.6813,
      "duration": 0.0012,
      "velocity": 127,
      "chip": "ym2612"
    },
    {
      "channel": 2,
      "note": 75,
      "start": 0.6817,
      "duration": 0.0009,
      "velocity": 97,
      "chip": "ym2612"
    },
    {
      "channel": 2,
      "note": 70,
      "start": 0.6828,
      "duration": 0.0006,
      "velocity": 97,
      "chip": "ym2612"
    },
    {
      "channel": 0,
      "note": 48,
      "start": 0.6829,
      "duration": 0.0022,
      "velocity": 115,
      "chip": "ym2612"
    },
    {
      "channel": 1,
      "note": 38,
      "start": 0.6832,
      "duration": 0.0014,
      "velocity": 127,
      "chip": "ym2612"
    },
    {
      "channel": 2,
      "note": 73,
      "start": 0.6836,
      "duration": 0.0013,
      "velocity": 97,
      "chip": "ym2612"
    },
    {
      "channel": 1,
      "note": 38,
      "start": 0.6848,
      "duration": 0.0006,
      "velocity": 127,
      "chip": "ym2612"
    },
    {
      "channel": 2,
      "note": 68,
      "start": 0.685,
      "duration": 0.0006,
      "velocity": 97,
      "chip": "ym2612"
    },
    {
      "channel": 0,
      "note": 63,
      "start": 0.6853,
      "duration": 0.0019,
      "velocity": 115,
      "chip": "ym2612"
    },
    {
      "channel": 1,
      "note": 38,
      "start": 0.6856,
      "duration": 0.0011,
      "velocity": 127,
      "chip": "ym2612"
    },
    {
      "channel": 2,
      "note": 73,
      "start": 0.6859,
      "duration": 0.0011,
      "velocity": 97,
      "chip": "ym2612"
    },
    {
      "channel": 1,
      "note": 38,
      "start": 0.6869,
      "duration": 0.0005,
      "velocity": 127,
      "chip": "ym2612"
    },
    {
      "channel": 2,
      "note": 68,
      "start": 0.6871,
      "duration": 0.0006,
      "velocity": 97,
      "chip": "ym2612"
    },
    {
      "channel": 0,
      "note": 48,
      "start": 0.6873,
      "duration": 0.0024,
      "velocity": 115,
      "chip": "ym2612"
    },
    {
      "channel": 1,
      "note": 38,
      "start": 0.6877,
      "duration": 0.0017,
      "velocity": 127,
      "chip": "ym2612"
    },
    {
      "channel": 2,
      "note": 74,
      "start": 0.688,
      "duration": 0.0014,
      "velocity": 97,
      "chip": "ym2612"
    },
    {
      "channel": 3,
      "note": 72,
      "start": 0.6883,
      "duration": 0.0171,
      "velocity": 123,
      "chip": "ym2612"
    },
    {
      "channel": 2,
      "note": 68,
      "start": 0.6896,
      "duration": 0.0005,
      "velocity": 97,
      "chip": "ym2612"
    },
    {
      "channel": 0,
      "note": 60,
      "start": 0.6898,
      "duration": 0.0017,
      "velocity": 115,
      "chip": "ym2612"
    },
    {
      "channel": 1,
      "note": 38,
      "start": 0.69,
      "duration": 0.0011,
      "velocity": 127,
      "chip": "ym2612"
    },
    {
      "channel": 2,
      "note": 74,
      "start": 0.6904,
      "duration": 0.001,
      "velocity": 97,
      "chip": "ym2612"
    },
    {
      "channel": 1,
      "note": 38,
      "start": 0.6912,
      "duration": 0.0005,
      "velocity": 127,
      "chip": "ym2612"
    },
    {
      "channel": 2,
      "note": 68,
      "start": 0.6915,
      "duration": 0.0005,
      "velocity": 97,
      "chip": "ym2612"
    },
    {
      "channel": 0,
      "note": 48,
      "start": 0.6917,
      "duration": 0.0021,
      "velocity": 115,
      "chip": "ym2612"
    },
    {
      "channel": 1,
      "note": 38,
      "start": 0.692,
      "duration": 0.0014,
      "velocity": 127,
      "chip": "ym2612"
    },
    {
      "channel": 2,
      "note": 74,
      "start": 0.6923,
      "duration": 0.0012,
      "velocity": 97,
      "chip": "ym2612"
    },
    {
      "channel": 2,
      "note": 68,
      "start": 0.6936,
      "duration": 0.0008,
      "velocity": 97,
      "chip": "ym2612"
    },
    {
      "channel": 0,
      "note": 61,
      "start": 0.694,
      "duration": 0.0018,
      "velocity": 115,
      "chip": "ym2612"
    },
    {
      "channel": 1,
      "note": 38,
      "start": 0.6943,
      "duration": 0.0012,
      "velocity": 127,
      "chip": "ym2612"
    },
    {
      "channel": 2,
      "note": 74,
      "start": 0.6946,
      "duration": 0.0009,
      "velocity": 97,
      "chip": "ym2612"
    },
    {
      "channel": 2,
      "note": 68,
      "start": 0.6958,
      "duration": 0.0007,
      "velocity": 97,
      "chip": "ym2612"
    },
    {
      "channel": 0,
      "note": 48,
      "start": 0.696,
      "duration": 0.0021,
      "velocity": 115,
      "chip": "ym2612"
    },
    {
      "channel": 1,
      "note": 38,
      "start": 0.6963,
      "duration": 0.0014,
      "velocity": 127,
      "chip": "ym2612"
    },
    {
      "channel": 2,
      "note": 74,
      "start": 0.6967,
      "duration": 0.0013,
      "velocity": 97,
      "chip": "ym2612"
    },
    {
      "channel": 1,
      "note": 38,
      "start": 0.6978,
      "duration": 0.0005,
      "velocity": 127,
      "chip": "ym2612"
    },
    {
      "channel": 2,
      "note": 68,
      "start": 0.698,
      "duration": 0.0006,
      "velocity": 97,
      "chip": "ym2612"
    },
    {
      "channel": 0,
      "note": 60,
      "start": 0.6983,
      "duration": 0.0019,
      "velocity": 115,
      "chip": "ym2612"
    },
    {
      "channel": 1,
      "note": 38,
      "start": 0.6986,
      "duration": 0.0011,
      "velocity": 127,
      "chip": "ym2612"
    },
    {
      "channel": 2,
      "note": 74,
      "start": 0.6989,
      "duration": 0.0012,
      "velocity": 97,
      "chip": "ym2612"
    },
    {
      "channel": 1,
      "note": 38,
      "start": 0.7,
      "duration": 0.0005,
      "velocity": 127,
      "chip": "ym2612"
    },
    {
      "channel": 2,
      "note": 68,
      "start": 0.7002,
      "duration": 0.0005,
      "velocity": 97,
      "chip": "ym2612"
    },
    {
      "channel": 0,
      "note": 48,
      "start": 0.7003,
      "duration": 0.0021,
      "velocity": 115,
      "chip": "ym2612"
    },
    {
      "channel": 1,
      "note": 38,
      "start": 0.7006,
      "duration": 0.0012,
      "velocity": 127,
      "chip": "ym2612"
    },
    {
      "channel": 2,
      "note": 74,
      "start": 0.7009,
      "duration": 0.001,
      "velocity": 97,
      "chip": "ym2612"
    },
    {
      "channel": 2,
      "note": 68,
      "start": 0.7021,
      "duration": 0.0009,
      "velocity": 97,
      "chip": "ym2612"
    },
    {
      "channel": 0,
      "note": 58,
      "start": 0.7026,
      "duration": 0.0019,
      "velocity": 115,
      "chip": "ym2612"
    },
    {
      "channel": 1,
      "note": 38,
      "start": 0.7029,
      "duration": 0.0011,
      "velocity": 127,
      "chip": "ym2612"
    },
    {
      "channel": 2,
      "note": 74,
      "start": 0.7032,
      "duration": 0.001,
      "velocity": 97,
      "chip": "ym2612"
    },
    {
      "channel": 1,
      "note": 38,
      "start": 0.7041,
      "duration": 0.0006,
      "velocity": 127,
      "chip": "ym2612"
    },
    {
      "channel": 2,
      "note": 68,
      "start": 0.7044,
      "duration": 0.0006,
      "velocity": 97,
      "chip": "ym2612"
    },
    {
      "channel": 0,
      "note": 48,
      "start": 0.7046,
      "duration": 0.0024,
      "velocity": 115,
      "chip": "ym2612"
    },
    {
      "channel": 1,
      "note": 38,
      "start": 0.705,
      "duration": 0.0017,
      "velocity": 127,
      "chip": "ym2612"
    },
    {
      "channel": 2,
      "note": 80,
      "start": 0.7053,
      "duration": 0.0015,
      "velocity": 97,
      "chip": "ym2612"
    },
    {
      "channel": 3,
      "note": 80,
      "start": 0.7055,
      "duration": 0.0197,
      "velocity": 104,
      "chip": "ym2612"
    },
    {
      "channel": 1,
      "note": 38,
      "start": 0.7068,
      "duration": 0.0005,
      "velocity": 127,
      "chip": "ym2612"
    },
    {
      "channel": 2,
      "note": 75,
      "start": 0.707,
      "duration": 0.0003,
      "velocity": 97,
      "chip": "ym2612"
    },
    {
      "channel": 0,
      "note": 60,
      "start": 0.7072,
      "duration": 0.0016,
      "velocity": 115,
      "chip": "ym2612"
    },
    {
      "channel": 2,
      "note": 80,
      "start": 0.7075,
      "duration": 0.0012,
      "velocity": 97,
      "chip": "ym2612"
    },
    {
      "channel": 1,
      "note": 38,
      "start": 0.7086,
      "duration": 0.0005,
      "velocity": 127,
      "chip": "ym2612"
    },
    {
      "channel": 2,
      "note": 75,
      "start": 0.7088,
      "duration": 0.0005,
      "velocity": 97,
      "chip": "ym2612"
    },
    {
      "channel": 0,
      "note": 48,
      "start": 0.7089,
      "duration": 0.0021,
      "velocity": 115,
      "chip": "ym2612"
    },
    {
      "channel": 1,
      "note": 38,
      "start": 0.7093,
      "duration": 0.0012,
      "velocity": 127,
      "chip": "ym2612"
    },
    {
      "channel": 2,
      "note": 80,
      "start": 0.7096,
      "duration": 0.001,
      "velocity": 97,
      "chip": "ym2612"
    },
    {
      "channel": 2,
      "note": 75,
      "start": 0.7107,
      "duration": 0.0009,
      "velocity": 97,
      "chip": "ym2612"
    },
    {
      "channel": 0,
      "note": 61,
      "start": 0.7112,
      "duration": 0.0017,
      "velocity": 115,
      "chip": "ym2612"
    },
    {
      "channel": 1,
      "note": 38,
      "start": 0.7115,
      "duration": 0.0011,
      "velocity": 127,
      "chip": "ym2612"
    },
    {
      "channel": 2,
      "note": 80,
      "start": 0.7118,
      "duration": 0.0008,
      "velocity": 97,
      "chip": "ym2612"
    },
    {
      "channel": 2,
      "note": 75,
      "start": 0.7128,
      "duration": 0.0006,
      "velocity": 97,
      "chip": "ym2612"
    },
    {
      "channel": 0,
      "note": 48,
      "start": 0.7131,
      "duration": 0.0022,
      "velocity": 115,
      "chip": "ym2612"
    },
    {
      "channel": 1,
      "note": 38,
      "start": 0.7134,
      "duration": 0.0013,
      "velocity": 127,
      "chip": "ym2612"
    },
    {
      "channel": 2,
      "note": 80,
      "start": 0.7136,
      "duration": 0.0013,
      "velocity": 97,
      "chip": "ym2612"
    },
    {
      "channel": 1,
      "note": 38,
      "start": 0.7147,
      "duration": 0.0007,
      "velocity": 127,
      "chip": "ym2612"
    },
    {
      "channel": 2,
      "note": 75,
      "start": 0.7151,
      "duration": 0.0008,
      "velocity": 97,
      "chip": "ym2612"
    },
    {
      "channel": 0,
      "note": 63,
      "start": 0.7154,
      "duration": 0.0018,
      "velocity": 115,
      "chip": "ym2612"
    },
    {
      "channel": 1,
      "note": 38,
      "start": 0.7158,
      "duration": 0.0012,
      "velocity": 127,
      "chip": "ym2612"
    },
    {
      "channel": 2,
      "note": 80,
      "start": 0.7161,
      "duration": 0.0009,
      "velocity": 97,
      "chip": "ym2612"
    },
    {
      "channel": 2,
      "note": 75,
      "start": 0.7172,
      "duration": 0.0006,
      "velocity": 97,
      "chip": "ym2612"
    },
    {
      "channel": 0,
      "note": 63,
      "start": 0.7173,
      "duration": 0.0022,
      "velocity": 115,
      "chip": "ym2612"
    },
    {
      "channel": 1,
      "note": 38,
      "start": 0.7177,
      "duration": 0.0014,
      "velocity": 127,
      "chip": "ym2612"
    },
    {
      "channel": 2,
      "note": 80,
      "start": 0.718,
      "duration": 0.0013,
      "velocity": 97,
      "chip": "ym2612"
    },
    {
      "channel": 1,
      "note": 38,
      "start": 0.7192,
      "duration": 0.0006,
      "velocity": 127,
      "chip": "ym2612"
    },
    {
      "channel": 2,
      "note": 75,
      "start": 0.7194,
      "duration": 0.0006,
      "velocity": 97,
      "chip": "ym2612"
    },
    {
      "channel": 0,
      "note": 61,
      "start": 0.7198,
      "duration": 0.0033,
      "velocity": 115,
      "chip": "ym2612"
    },
    {
      "channel": 1,
      "note": 38,
      "start": 0.72,
      "duration": 0.0017,
      "velocity": 127,
      "chip": "ym2612"
    },
    {
      "channel": 2,
      "note": 80,
      "start": 0.7203,
      "duration": 0.0017,
      "velocity": 97,
      "chip": "ym2612"
    },
    {
      "channel": 1,
      "note": 38,
      "start": 0.7219,
      "duration": 0.0012,
      "velocity": 127,
      "chip": "ym2612"
    },
    {
      "channel": 2,
      "note": 75,
      "start": 0.7222,
      "duration": 0.0019,
      "velocity": 104,
      "chip": "ym2612"
    },
    {
      "channel": 0,
      "note": 43,
      "start": 0.7231,
      "duration": 0.0037,
      "velocity": 115,
      "chip": "ym2612"
    },
    {
      "channel": 1,
      "note": 38,
      "start": 0.7233,
      "duration": 0.0033,
      "velocity": 127,
      "chip": "ym2612"
    },
    {
      "channel": 2,
      "note": 79,
      "start": 0.7243,
      "duration": 0.0081,
      "velocity": 104,
      "chip": "ym2612"
    },
    {
      "channel": 3,
      "note": 74,
      "start": 0.7255,
      "duration": 0.0072,
      "velocity": 104,
      "chip": "ym2612"
    },
    {
      "channel": 4,
      "note": 67,
      "start": 0.7257,
      "duration": 0.0073,
      "velocity": 111,
      "chip": "ym2612"
    },
    {
      "channel": 0,
      "note": 55,
      "start": 0.7271,
      "duration": 0.003,
      "velocity": 115,
      "chip": "ym2612"
    },
    {
      "channel": 1,
      "note": 38,
      "start": 0.7274,
      "duration": 0.0015,
      "velocity": 127,
      "chip": "ym2612"
    },
    {
      "channel": 1,
      "note": 38,
      "start": 0.7292,
      "duration": 0.0011,
      "velocity": 127,
      "chip": "ym2612"
    },
    {
      "channel": 0,
      "note": 43,
      "start": 0.7302,
      "duration": 0.0016,
      "velocity": 115,
      "chip": "ym2612"
    },
    {
      "channel": 1,
      "note": 38,
      "start": 0.7304,
      "duration": 0.0008,
      "velocity": 127,
      "chip": "ym2612"
    },
    {
      "channel": 0,
      "note": 56,
      "start": 0.7321,
      "duration": 0.0023,
      "velocity": 115,
      "chip": "ym2612"
    },
    {
      "channel": 1,
      "note": 38,
      "start": 0.7323,
      "duration": 0.0017,
      "velocity": 127,
      "chip": "ym2612"
    },
    {
      "channel": 2,
      "note": 80,
      "start": 0.7327,
      "duration": 0.0015,
      "velocity": 104,
      "chip": "ym2612"
    },
    {
      "channel": 3,
      "note": 75,
      "start": 0.733,
      "duration": 0.0012,
      "velocity": 104,
      "chip": "ym2612"
    },
    {
      "channel": 4,
      "note": 68,
      "start": 0.7333,
      "duration": 0.0009,
      "velocity": 111,
      "chip": "ym2612"
    },
    {
      "channel": 1,
      "note": 38,
      "start": 0.7346,
      "duration": 0.0007,
      "velocity": 127,
      "chip": "ym2612"
    },
    {
      "channel": 1,
      "note": 38,
      "start": 0.7356,
      "duration": 0.0006,
      "velocity": 127,
      "chip": "ym2612"
    },
    {
      "channel": 1,
      "note": 38,
      "start": 0.7364,
      "duration": 0.0008,
      "velocity": 127,
      "chip": "ym2612"
    },
    {
      "channel": 1,
      "note": 38,
      "start": 0.7374,
      "duration": 0.0014,
      "velocity": 127,
      "chip": "ym2612"
    },
    {
      "channel": 0,
      "note": 43,
      "start": 0.7388,
      "duration": 0.0019,
      "velocity": 115,
      "chip": "ym2612"
    },
    {
      "channel": 1,
      "note": 38,
      "start": 0.7391,
      "duration": 0.0015,
      "velocity": 127,
      "chip": "ym2612"
    },
    {
      "channel": 2,
      "note": 79,
      "start": 0.7393,
      "duration": 0.0049,
      "velocity": 104,
      "chip": "ym2612"
    },
    {
      "channel": 3,
      "note": 74,
      "start": 0.7395,
      "duration": 0.005,
      "velocity": 104,
      "chip": "ym2612"
    },
    {
      "channel": 4,
      "note": 67,
      "start": 0.7398,
      "duration": 0.0049,
      "velocity": 111,
      "chip": "ym2612"
    },
    {
      "channel": 0,
      "note": 55,
      "start": 0.7407,
      "duration": 0.0014,
      "velocity": 115,
      "chip": "ym2612"
    },
    {
      "channel": 1,
      "note": 38,
      "start": 0.7409,
      "duration": 0.001,
      "velocity": 127,
      "chip": "ym2612"
    },
    {
      "channel": 1,
      "note": 38,
      "start": 0.7421,
      "duration": 0.0003,
      "velocity": 127,
      "chip": "ym2612"
    },
    {
      "channel": 0,
      "note": 43,
      "start": 0.7423,
      "duration": 0.0015,
      "velocity": 115,
      "chip": "ym2612"
    },
    {
      "channel": 1,
      "note": 38,
      "start": 0.7427,
      "duration": 0.001,
      "velocity": 127,
      "chip": "ym2612"
    },
    {
      "channel": 1,
      "note": 38,
      "start": 0.7438,
      "duration": 0.0003,
      "velocity": 127,
      "chip": "ym2612"
    },
    {
      "channel": 0,
      "note": 56,
      "start": 0.744,
      "duration": 0.002,
      "velocity": 115,
      "chip": "ym2612"
    },
    {
      "channel": 2,
      "note": 80,
      "start": 0.7444,
      "duration": 0.001,
      "velocity": 104,
      "chip": "ym2612"
    },
    {
      "channel": 3,
      "note": 75,
      "start": 0.7447,
      "duration": 0.0009,
      "velocity": 104,
      "chip": "ym2612"
    },
    {
      "channel": 4,
      "note": 68,
      "start": 0.7449,
      "duration": 0.0007,
      "velocity": 111,
      "chip": "ym2612"
    },
    {
      "channel": 1,
      "note": 38,
      "start": 0.7454,
      "duration": 0.0006,
      "velocity": 127,
      "chip": "ym2612"
    },
    {
      "channel": 1,
      "note": 38,
      "start": 0.7462,
      "duration": 0.0003,
      "velocity": 127,
      "chip": "ym2612"
    },
    {
      "channel": 1,
      "note": 38,
      "start": 0.7475,
      "duration": 0.0009,
      "velocity": 127,
      "chip": "ym2612"
    },
    {
      "channel": 0,
      "note": 43,
      "start": 0.7493,
      "duration": 0.0024,
      "velocity": 115,
      "chip": "ym2612"
    },
    {
      "channel": 1,
      "note": 38,
      "start": 0.7495,
      "duration": 0.0018,
      "velocity": 127,
      "chip": "ym2612"
    },
    {
      "channel": 2,
      "note": 82,
      "start": 0.7498,
      "duration": 0.0017,
      "velocity": 104,
      "chip": "ym2612"
    },
    {
      "channel": 3,
      "note": 77,
      "start": 0.7502,
      "duration": 0.0014,
      "velocity": 104,
      "chip": "ym2612"
    },
    {
      "channel": 4,
      "note": 70,
      "start": 0.7505,
      "duration": 0.0012,
      "velocity": 111,
      "chip": "ym2612"
    },
    {
      "channel": 1,
      "note": 38,
      "start": 0.7515,
      "duration": 0.0005,
      "velocity": 127,
      "chip": "ym2612"
    },
    {
      "channel": 0,
      "note": 58,
      "start": 0.7519,
      "duration": 0.003,
      "velocity": 115,
      "chip": "ym2612"
    },
    {
      "channel": 1,
      "note": 38,
      "start": 0.7522,
      "duration": 0.0021,
      "velocity": 127,
      "chip": "ym2612"
    },
    {
      "channel": 2,
      "note": 82,
      "start": 0.7524,
      "duration": 0.002,
      "velocity": 104,
      "chip": "ym2612"
    },
    {
      "channel": 3,
      "note": 77,
      "start": 0.7527,
      "duration": 0.0017,
      "velocity": 104,
      "chip": "ym2612"
    },
    {
      "channel": 4,
      "note": 70,
      "start": 0.7531,
      "duration": 0.0015,
      "velocity": 111,
      "chip": "ym2612"
    },
    {
      "channel": 0,
      "note": 56,
      "start": 0.755,
      "duration": 0.0024,
      "velocity": 115,
      "chip": "ym2612"
    },
    {
      "channel": 1,
      "note": 38,
      "start": 0.7553,
      "duration": 0.0018,
      "velocity": 127,
      "chip": "ym2612"
    },
    {
      "channel": 2,
      "note": 80,
      "start": 0.7556,
      "duration": 0.0017,
      "velocity": 104,
      "chip": "ym2612"
    },
    {
      "channel": 3,
      "note": 75,
      "start": 0.7559,
      "duration": 0.0014,
      "velocity": 104,
      "chip": "ym2612"
    },
    {
      "channel": 4,
      "note": 68,
      "start": 0.7562,
      "duration": 0.0012,
      "velocity": 111,
      "chip": "ym2612"
    },
    {
      "channel": 1,
      "note": 38,
      "start": 0.7572,
      "duration": 0.0004,
      "velocity": 127,
      "chip": "ym2612"
    },
    {
      "channel": 0,
      "note": 56,
      "start": 0.7576,
      "duration": 0.0018,
      "velocity": 115,
      "chip": "ym2612"
    },
    {
      "channel": 1,
      "note": 38,
      "start": 0.7578,
      "duration": 0.0007,
      "velocity": 127,
      "chip": "ym2612"
    },
    {
      "channel": 1,
      "note": 38,
      "start": 0.7587,
      "duration": 0.0009,
      "velocity": 127,
      "chip": "ym2612"
    },
    {
      "channel": 0,
      "note": 43,
      "start": 0.7595,
      "duration": 0.0021,
      "velocity": 115,
      "chip": "ym2612"
    },
    {
      "channel": 1,
      "note": 38,
      "start": 0.7597,
      "duration": 0.0018,
      "velocity": 127,
      "chip": "ym2612"
    },
    {
      "channel": 2,
      "note": 79,
      "start": 0.76,
      "duration": 0.0069,
      "velocity": 104,
      "chip": "ym2612"
    },
    {
      "channel": 3,
      "note": 74,
      "start": 0.7604,
      "duration": 0.0069,
      "velocity": 104,
      "chip": "ym2612"
    },
    {
      "channel": 4,
      "note": 67,
      "start": 0.7606,
      "duration": 0.0069,
      "velocity": 111,
      "chip": "ym2612"
    },
    {
      "channel": 0,
      "note": 55,
      "start": 0.7618,
      "duration": 0.0027,
      "velocity": 115,
      "chip": "ym2612"
    },
    {
      "channel": 1,
      "note": 38,
      "start": 0.7619,
      "duration": 0.0015,
      "velocity": 127,
      "chip": "ym2612"
    },
    {
      "channel": 1,
      "note": 38,
      "start": 0.7636,
      "duration": 0.001,
      "velocity": 127,
      "chip": "ym2612"
    },
    {
      "channel": 0,
      "note": 43,
      "start": 0.7646,
      "duration": 0.0018,
      "velocity": 115,
      "chip": "ym2612"
    },
    {
      "channel": 1,
      "note": 38,
      "start": 0.7648,
      "duration": 0.0011,
      "velocity": 127,
      "chip": "ym2612"
    },
    {
      "channel": 0,
      "note": 56,
      "start": 0.7666,
      "duration": 0.0024,
      "velocity": 115,
      "chip": "ym2612"
    },
    {
      "channel": 1,
      "note": 38,
      "start": 0.7668,
      "duration": 0.0018,
      "velocity": 127,
      "chip": "ym2612"
    },
    {
      "channel": 2,
      "note": 80,
      "start": 0.7672,
      "duration": 0.0016,
      "velocity": 104,
      "chip": "ym2612"
    },
    {
      "channel": 3,
      "note": 75,
      "start": 0.7675,
      "duration": 0.0014,
      "velocity": 104,
      "chip": "ym2612"
    },
    {
      "channel": 4,
      "note": 68,
      "start": 0.7679,
      "duration": 0.001,
      "velocity": 111,
      "chip": "ym2612"
    },
    {
      "channel": 1,
      "note": 38,
      "start": 0.7692,
      "duration": 0.0007,
      "velocity": 127,
      "chip": "ym2612"
    },
    {
      "channel": 1,
      "note": 38,
      "start": 0.7701,
      "duration": 0.0006,
      "velocity": 127,
      "chip": "ym2612"
    },
    {
      "channel": 1,
      "note": 38,
      "start": 0.771,
      "duration": 0.0009,
      "velocity": 127,
      "chip": "ym2612"
    },
    {
      "channel": 1,
      "note": 38,
      "start": 0.7721,
      "duration": 0.0013,
      "velocity": 127,
      "chip": "ym2612"
    },
    {
      "channel": 0,
      "note": 43,
      "start": 0.7734,
      "duration": 0.002,
      "velocity": 115,
      "chip": "ym2612"
    },
    {
      "channel": 1,
      "note": 38,
      "start": 0.7736,
      "duration": 0.0017,
      "velocity": 127,
      "chip": "ym2612"
    },
    {
      "channel": 2,
      "note": 79,
      "start": 0.7739,
      "duration": 0.0051,
      "velocity": 104,
      "chip": "ym2612"
    },
    {
      "channel": 3,
      "note": 74,
      "start": 0.7741,
      "duration": 0.0052,
      "velocity": 104,
      "chip": "ym2612"
    },
    {
      "channel": 4,
      "note": 67,
      "start": 0.7744,
      "duration": 0.0051,
      "velocity": 111,
      "chip": "ym2612"
    },
    {
      "channel": 0,
      "note": 55,
      "start": 0.7756,
      "duration": 0.0014,
      "velocity": 115,
      "chip": "ym2612"
    },
    {
      "channel": 1,
      "note": 38,
      "start": 0.7758,
      "duration": 0.0008,
      "velocity": 127,
      "chip": "ym2612"
    },
    {
      "channel": 1,
      "note": 38,
      "start": 0.7767,
      "duration": 0.0006,
      "velocity": 127,
      "chip": "ym2612"
    },
    {
      "channel": 0,
      "note": 43,
      "start": 0.7771,
      "duration": 0.0015,
      "velocity": 115,
      "chip": "ym2612"
    },
    {
      "channel": 1,
      "note": 38,
      "start": 0.7775,
      "duration": 0.001,
      "velocity": 127,
      "chip": "ym2612"
    },
    {
      "channel": 1,
      "note": 38,
      "start": 0.7786,
      "duration": 0.0002,
      "velocity": 127,
      "chip": "ym2612"
    },
    {
      "channel": 0,
      "note": 56,
      "start": 0.7788,
      "duration": 0.0021,
      "velocity": 115,
      "chip": "ym2612"
    },
    {
      "channel": 2,
      "note": 80,
      "start": 0.7792,
      "duration": 0.0012,
      "velocity": 104,
      "chip": "ym2612"
    },
    {
      "channel": 3,
      "note": 75,
      "start": 0.7794,
      "duration": 0.0011,
      "velocity": 104,
      "chip": "ym2612"
    },
    {
      "channel": 4,
      "note": 68,
      "start": 0.7798,
      "duration": 0.0008,
      "velocity": 111,
      "chip": "ym2612"
    },
    {
      "channel": 1,
      "note": 38,
      "start": 0.7803,
      "duration": 0.0007,
      "velocity": 127,
      "chip": "ym2612"
    },
    {
      "channel": 1,
      "note": 38,
      "start": 0.7812,
      "duration": 0.0003,
      "velocity": 127,
      "chip": "ym2612"
    },
    {
      "channel": 1,
      "note": 38,
      "start": 0.7824,
      "duration": 0.0009,
      "velocity": 127,
      "chip": "ym2612"
    },
    {
      "channel": 0,
      "note": 43,
      "start": 0.7842,
      "duration": 0.0026,
      "velocity": 115,
      "chip": "ym2612"
    },
    {
      "channel": 1,
      "note": 38,
      "start": 0.7845,
      "duration": 0.0018,
      "velocity": 127,
      "chip": "ym2612"
    },
    {
      "channel": 2,
      "note": 82,
      "start": 0.7848,
      "duration": 0.0018,
      "velocity": 104,
      "chip": "ym2612"
    },
    {
      "channel": 3,
      "note": 77,
      "start": 0.7851,
      "duration": 0.0015,
      "velocity": 104,
      "chip": "ym2612"
    },
    {
      "channel": 4,
      "note": 70,
      "start": 0.7854,
      "duration": 0.0013,
      "velocity": 111,
      "chip": "ym2612"
    },
    {
      "channel": 1,
      "note": 38,
      "start": 0.7865,
      "duration": 0.0006,
      "velocity": 127,
      "chip": "ym2612"
    },
    {
      "channel": 0,
      "note": 58,
      "start": 0.787,
      "duration": 0.0032,
      "velocity": 115,
      "chip": "ym2612"
    },
    {
      "channel": 1,
      "note": 38,
      "start": 0.7872,
      "duration": 0.0021,
      "velocity": 127,
      "chip": "ym2612"
    },
    {
      "channel": 2,
      "note": 82,
      "start": 0.7875,
      "duration": 0.0019,
      "velocity": 104,
      "chip": "ym2612"
    },
    {
      "channel": 3,
      "note": 77,
      "start": 0.7878,
      "duration": 0.0017,
      "velocity": 104,
      "chip": "ym2612"
    },
    {
      "channel": 4,
      "note": 70,
      "start": 0.7881,
      "duration": 0.0015,
      "velocity": 111,
      "chip": "ym2612"
    },
    {
      "channel": 0,
      "note": 55,
      "start": 0.7903,
      "duration": 0.0022,
      "velocity": 115,
      "chip": "ym2612"
    },
    {
      "channel": 1,
      "note": 38,
      "start": 0.7906,
      "duration": 0.0015,
      "velocity": 127,
      "chip": "ym2612"
    },
    {
      "channel": 2,
      "note": 82,
      "start": 0.7908,
      "duration": 0.0015,
      "velocity": 104,
      "chip": "ym2612"
    },
    {
      "channel": 3,
      "note": 77,
      "start": 0.791,
      "duration": 0.0013,
      "velocity": 104,
      "chip": "ym2612"
    },
    {
      "channel": 4,
      "note": 70,
      "start": 0.7913,
      "duration": 0.0012,
      "velocity": 111,
      "chip": "ym2612"
    },
    {
      "channel": 1,
      "note": 38,
      "start": 0.7923,
      "duration": 0.0005,
      "velocity": 127,
      "chip": "ym2612"
    },
    {
      "channel": 0,
      "note": 56,
      "start": 0.7926,
      "duration": 0.0032,
      "velocity": 115,
      "chip": "ym2612"
    },
    {
      "channel": 1,
      "note": 38,
      "start": 0.7929,
      "duration": 0.0023,
      "velocity": 127,
      "chip": "ym2612"
    },
    {
      "channel": 2,
      "note": 80,
      "start": 0.7931,
      "duration": 0.0023,
      "velocity": 104,
      "chip": "ym2612"
    },
    {
      "channel": 3,
      "note": 75,
      "start": 0.7934,
      "duration": 0.002,
      "velocity": 104,
      "chip": "ym2612"
    },
    {
      "channel": 4,
      "note": 68,
      "start": 0.7938,
      "duration": 0.0017,
      "velocity": 111,
      "chip": "ym2612"
    },
    {
      "channel": 1,
      "note": 38,
      "start": 0.7954,
      "duration": 0.0007,
      "velocity": 127,
      "chip": "ym2612"
    },
    {
      "channel": 0,
      "note": 43,
      "start": 0.796,
      "duration": 0.0021,
      "velocity": 115,
      "chip": "ym2612"
    },
    {
      "channel": 1,
      "note": 38,
      "start": 0.7962,
      "duration": 0.0018,
      "velocity": 127,
      "chip": "ym2612"
    },
    {
      "channel": 2,
      "note": 79,
      "start": 0.7965,
      "duration": 0.0069,
      "velocity": 104,
      "chip": "ym2612"
    },
    {
      "channel": 3,
      "note": 74,
      "start": 0.7967,
      "duration": 0.007,
      "velocity": 104,
      "chip": "ym2612"
    },
    {
      "channel": 4,
      "note": 67,
      "start": 0.7971,
      "duration": 0.007,
      "velocity": 111,
      "chip": "ym2612"
    },
    {
      "channel": 0,
      "note": 55,
      "start": 0.7982,
      "duration": 0.0027,
      "velocity": 115,
      "chip": "ym2612"
    },
    {
      "channel": 1,
      "note": 38,
      "start": 0.7984,
      "duration": 0.0015,
      "velocity": 127,
      "chip": "ym2612"
    },
    {
      "channel": 1,
      "note": 38,
      "start": 0.8,
      "duration": 0.0011,
      "velocity": 127,
      "chip": "ym2612"
    },
    {
      "channel": 0,
      "note": 43,
      "start": 0.801,
      "duration": 0.0018,
      "velocity": 115,
      "chip": "ym2612"
    },
    {
      "channel": 1,
      "note": 38,
      "start": 0.8013,
      "duration": 0.0009,
      "velocity": 127,
      "chip": "ym2612"
    },
    {
      "channel": 0,
      "note": 56,
      "start": 0.803,
      "duration": 0.0024,
      "velocity": 115,
      "chip": "ym2612"
    },
    {
      "channel": 1,
      "note": 38,
      "start": 0.8033,
      "duration": 0.0019,
      "velocity": 127,
      "chip": "ym2612"
    },
    {
      "channel": 2,
      "note": 80,
      "start": 0.8037,
      "duration": 0.0016,
      "velocity": 104,
      "chip": "ym2612"
    },
    {
      "channel": 3,
      "note": 75,
      "start": 0.804,
      "duration": 0.0013,
      "velocity": 104,
      "chip": "ym2612"
    },
    {
      "channel": 4,
      "note": 68,
      "start": 0.8044,
      "duration": 0.001,
      "velocity": 111,
      "chip": "ym2612"
    },
    {
      "channel": 1,
      "note": 38,
      "start": 0.8057,
      "duration": 0.0014,
      "velocity": 127,
      "chip": "ym2612"
    },
    {
      "channel": 2,
      "note": 55,
      "start": 0.806,
      "duration": 0.004,
      "velocity": 104,
      "chip": "ym2612"
    },
    {
      "channel": 3,
      "note": 55,
      "start": 0.8062,
      "duration": 0.004,
      "velocity": 104,
      "chip": "ym2612"
    },
    {
      "channel": 1,
      "note": 38,
      "start": 0.8073,
      "duration": 0.0001,
      "velocity": 127,
      "chip": "ym2612"
    },
    {
      "channel": 1,
      "note": 38,
      "start": 0.8076,
      "duration": 0.0009,
      "velocity": 127,
      "chip": "ym2612"
    },
    {
      "channel": 1,
      "note": 38,
      "start": 0.8086,
      "duration": 0.0012,
      "velocity": 127,
      "chip": "ym2612"
    },
    {
      "channel": 0,
      "note": 43,
      "start": 0.8097,
      "duration": 0.002,
      "velocity": 115,
      "chip": "ym2612"
    },
    {
      "channel": 1,
      "note": 38,
      "start": 0.81,
      "duration": 0.0017,
      "velocity": 127,
      "chip": "ym2612"
    },
    {
      "channel": 2,
      "note": 79,
      "start": 0.8102,
      "duration": 0.0051,
      "velocity": 104,
      "chip": "ym2612"
    },
    {
      "channel": 3,
      "note": 74,
      "start": 0.8104,
      "duration": 0.0052,
      "velocity": 104,
      "chip": "ym2612"
    },
    {
      "channel": 4,
      "note": 67,
      "start": 0.8107,
      "duration": 0.0052,
      "velocity": 111,
      "chip": "ym2612"
    },
    {
      "channel": 0,
      "note": 55,
      "start": 0.8118,
      "duration": 0.0014,
      "velocity": 115,
      "chip": "ym2612"
    },
    {
      "channel": 1,
      "note": 38,
      "start": 0.812,
      "duration": 0.0009,
      "velocity": 127,
      "chip": "ym2612"
    },
    {
      "channel": 1,
      "note": 38,
      "start": 0.813,
      "duration": 0.0004,
      "velocity": 127,
      "chip": "ym2612"
    },
    {
      "channel": 0,
      "note": 43,
      "start": 0.8134,
      "duration": 0.0015,
      "velocity": 115,
      "chip": "ym2612"
    },
    {
      "channel": 1,
      "note": 38,
      "start": 0.8137,
      "duration": 0.0011,
      "velocity": 127,
      "chip": "ym2612"
    },
    {
      "channel": 1,
      "note": 38,
      "start": 0.8149,
      "duration": 0.0004,
      "velocity": 127,
      "chip": "ym2612"
    },
    {
      "channel": 0,
      "note": 56,
      "start": 0.8152,
      "duration": 0.0023,
      "velocity": 115,
      "chip": "ym2612"
    },
    {
      "channel": 2,
      "note": 80,
      "start": 0.8156,
      "duration": 0.0011,
      "velocity": 104,
      "chip": "ym2612"
    },
    {
      "channel": 3,
      "note": 75,
      "start": 0.8158,
      "duration": 0.001,
      "velocity": 104,
      "chip": "ym2612"
    },
    {
      "channel": 4,
      "note": 68,
      "start": 0.8162,
      "duration": 0.0007,
      "velocity": 111,
      "chip": "ym2612"
    },
    {
      "channel": 1,
      "note": 38,
      "start": 0.8166,
      "duration": 0.001,
      "velocity": 127,
      "chip": "ym2612"
    },
    {
      "channel": 1,
      "note": 38,
      "start": 0.8178,
      "duration": 0.0012,
      "velocity": 127,
      "chip": "ym2612"
    },
    {
      "channel": 2,
      "note": 55,
      "start": 0.818,
      "duration": 0.0034,
      "velocity": 104,
      "chip": "ym2612"
    },
    {
      "channel": 3,
      "note": 55,
      "start": 0.8183,
      "duration": 0.0035,
      "velocity": 104,
      "chip": "ym2612"
    },
    {
      "channel": 1,
      "note": 38,
      "start": 0.8194,
      "duration": 0.0009,
      "velocity": 127,
      "chip": "ym2612"
    },
    {
      "channel": 0,
      "note": 43,
      "start": 0.8211,
      "duration": 0.0025,
      "velocity": 115,
      "chip": "ym2612"
    },
    {
      "channel": 1,
      "note": 38,
      "start": 0.8214,
      "duration": 0.0018,
      "velocity": 127,
      "chip": "ym2612"
    },
    {
      "channel": 2,
      "note": 82,
      "start": 0.8217,
      "duration": 0.0017,
      "velocity": 104,
      "chip": "ym2612"
    },
    {
      "channel": 3,
      "note": 77,
      "start": 0.822,
      "duration": 0.0014,
      "velocity": 104,
      "chip": "ym2612"
    },
    {
      "channel": 4,
      "note": 70,
      "start": 0.8224,
      "duration": 0.0011,
      "velocity": 111,
      "chip": "ym2612"
    },
    {
      "channel": 1,
      "note": 38,
      "start": 0.8232,
      "duration": 0.0006,
      "velocity": 127,
      "chip": "ym2612"
    },
    {
      "channel": 0,
      "note": 58,
      "start": 0.8237,
      "duration": 0.0034,
      "velocity": 115,
      "chip": "ym2612"
    },
    {
      "channel": 1,
      "note": 38,
      "start": 0.8239,
      "duration": 0.0023,
      "velocity": 127,
      "chip": "ym2612"
    },
    {
      "channel": 2,
      "note": 82,
      "start": 0.8242,
      "duration": 0.0021,
      "velocity": 104,
      "chip": "ym2612"
    },
    {
      "channel": 3,
      "note": 77,
      "start": 0.8245,
      "duration": 0.0018,
      "velocity": 104,
      "chip": "ym2612"
    },
    {
      "channel": 4,
      "note": 70,
      "start": 0.8248,
      "duration": 0.0016,
      "velocity": 111,
      "chip": "ym2612"
    },
    {
      "channel": 0,
      "note": 56,
      "start": 0.8273,
      "duration": 0.0025,
      "velocity": 115,
      "chip": "ym2612"
    },
    {
      "channel": 1,
      "note": 38,
      "start": 0.8275,
      "duration": 0.0017,
      "velocity": 127,
      "chip": "ym2612"
    },
    {
      "channel": 2,
      "note": 80,
      "start": 0.8278,
      "duration": 0.0017,
      "velocity": 104,
      "chip": "ym2612"
    },
    {
      "channel": 3,
      "note": 75,
      "start": 0.828,
      "duration": 0.0015,
      "velocity": 104,
      "chip": "ym2612"
    },
    {
      "channel": 4,
      "note": 68,
      "start": 0.8283,
      "duration": 0.0014,
      "velocity": 111,
      "chip": "ym2612"
    },
    {
      "channel": 1,
      "note": 38,
      "start": 0.8294,
      "duration": 0.0006,
      "velocity": 127,
      "chip": "ym2612"
    },
    {
      "channel": 0,
      "note": 54,
      "start": 0.83,
      "duration": 0.0028,
      "velocity": 115,
      "chip": "ym2612"
    },
    {
      "channel": 1,
      "note": 38,
      "start": 0.8302,
      "duration": 0.0015,
      "velocity": 127,
      "chip": "ym2612"
    },
    {
      "channel": 1,
      "note": 38,
      "start": 0.8319,
      "duration": 0.0012,
      "velocity": 127,
      "chip": "ym2612"
    },
    {
      "channel": 0,
      "note": 43,
      "start": 0.8329,
      "duration": 0.0022,
      "velocity": 115,
      "chip": "ym2612"
    },
    {
      "channel": 1,
      "note": 38,
      "start": 0.8332,
      "duration": 0.0018,
      "velocity": 127,
      "chip": "ym2612"
    },
    {
      "channel": 2,
      "note": 79,
      "start": 0.8334,
      "duration": 0.0071,
      "velocity": 104,
      "chip": "ym2612"
    },
    {
      "channel": 3,
      "note": 74,
      "start": 0.8338,
      "duration": 0.0072,
      "velocity": 104,
      "chip": "ym2612"
    },
    {
      "channel": 4,
      "note": 67,
      "start": 0.8341,
      "duration": 0.0072,
      "velocity": 111,
      "chip": "ym2612"
    },
    {
      "channel": 0,
      "note": 55,
      "start": 0.8352,
      "duration": 0.0028,
      "velocity": 115,
      "chip": "ym2612"
    },
    {
      "channel": 1,
      "note": 38,
      "start": 0.8355,
      "duration": 0.0014,
      "velocity": 127,
      "chip": "ym2612"
    },
    {
      "channel": 1,
      "note": 38,
      "start": 0.8371,
      "duration": 0.0011,
      "velocity": 127,
      "chip": "ym2612"
    },
    {
      "channel": 0,
      "note": 43,
      "start": 0.8382,
      "duration": 0.0018,
      "velocity": 115,
      "chip": "ym2612"
    },
    {
      "channel": 1,
      "note": 38,
      "start": 0.8384,
      "duration": 0.0009,
      "velocity": 127,
      "chip": "ym2612"
    },
    {
      "channel": 0,
      "note": 56,
      "start": 0.8402,
      "duration": 0.0024,
      "velocity": 115,
      "chip": "ym2612"
    },
    {
      "channel": 1,
      "note": 38,
      "start": 0.8405,
      "duration": 0.0018,
      "velocity": 127,
      "chip": "ym2612"
    },
    {
      "channel": 2,
      "note": 80,
      "start": 0.8408,
      "duration": 0.0016,
      "velocity": 104,
      "chip": "ym2612"
    },
    {
      "channel": 3,
      "note": 75,
      "start": 0.8412,
      "duration": 0.0013,
      "velocity": 104,
      "chip": "ym2612"
    },
    {
      "channel": 4,
      "note": 68,
      "start": 0.8416,
      "duration": 0.001,
      "velocity": 111,
      "chip": "ym2612"
    },
    {
      "channel": 0,
      "note": 43,
      "start": 0.8428,
      "duration": 0.0042,
      "velocity": 115,
      "chip": "ym2612"
    },
    {
      "channel": 1,
      "note": 38,
      "start": 0.843,
      "duration": 0.0014,
      "velocity": 127,
      "chip": "ym2612"
    },
    {
      "channel": 2,
      "note": 55,
      "start": 0.8433,
      "duration": 0.0041,
      "velocity": 104,
      "chip": "ym2612"
    },
    {
      "channel": 3,
      "note": 55,
      "start": 0.8436,
      "duration": 0.0042,
      "velocity": 104,
      "chip": "ym2612"
    },
    {
      "channel": 1,
      "note": 38,
      "start": 0.8445,
      "duration": 0.0002,
      "velocity": 127,
      "chip": "ym2612"
    },
    {
      "channel": 1,
      "note": 38,
      "start": 0.845,
      "duration": 0.0008,
      "velocity": 127,
      "chip": "ym2612"
    },
    {
      "channel": 1,
      "note": 38,
      "start": 0.846,
      "duration": 0.0012,
      "velocity": 127,
      "chip": "ym2612"
    },
    {
      "channel": 0,
      "note": 43,
      "start": 0.8471,
      "duration": 0.0021,
      "velocity": 115,
      "chip": "ym2612"
    },
    {
      "channel": 1,
      "note": 38,
      "start": 0.8473,
      "duration": 0.0019,
      "velocity": 127,
      "chip": "ym2612"
    },
    {
      "channel": 2,
      "note": 79,
      "start": 0.8477,
      "duration": 0.0052,
      "velocity": 104,
      "chip": "ym2612"
    },
    {
      "channel": 3,
      "note": 74,
      "start": 0.848,
      "duration": 0.0052,
      "velocity": 104,
      "chip": "ym2612"
    },
    {
      "channel": 4,
      "note": 67,
      "start": 0.8483,
      "duration": 0.0052,
      "velocity": 111,
      "chip": "ym2612"
    },
    {
      "channel": 0,
      "note": 55,
      "start": 0.8494,
      "duration": 0.0014,
      "velocity": 115,
      "chip": "ym2612"
    },
    {
      "channel": 1,
      "note": 38,
      "start": 0.8496,
      "duration": 0.0009,
      "velocity": 127,
      "chip": "ym2612"
    },
    {
      "channel": 1,
      "note": 38,
      "start": 0.8506,
      "duration": 0.0004,
      "velocity": 127,
      "chip": "ym2612"
    },
    {
      "channel": 0,
      "note": 43,
      "start": 0.851,
      "duration": 0.0015,
      "velocity": 115,
      "chip": "ym2612"
    },
    {
      "channel": 1,
      "note": 38,
      "start": 0.8513,
      "duration": 0.001,
      "velocity": 127,
      "chip": "ym2612"
    },
    {
      "channel": 1,
      "note": 38,
      "start": 0.8524,
      "duration": 0.0004,
      "velocity": 127,
      "chip": "ym2612"
    },
    {
      "channel": 0,
      "note": 56,
      "start": 0.8527,
      "duration": 0.0024,
      "velocity": 115,
      "chip": "ym2612"
    },
    {
      "channel": 2,
      "note": 80,
      "start": 0.853,
      "duration": 0.0011,
      "velocity": 104,
      "chip": "ym2612"
    },
    {
      "channel": 3,
      "note": 75,
      "start": 0.8534,
      "duration": 0.0009,
      "velocity": 104,
      "chip": "ym2612"
    },
    {
      "channel": 4,
      "note": 68,
      "start": 0.8536,
      "duration": 0.0007,
      "velocity": 111,
      "chip": "ym2612"
    },
    {
      "channel": 1,
      "note": 38,
      "start": 0.8541,
      "duration": 0.0011,
      "velocity": 127,
      "chip": "ym2612"
    },
    {
      "channel": 0,
      "note": 43,
      "start": 0.8551,
      "duration": 0.0034,
      "velocity": 115,
      "chip": "ym2612"
    },
    {
      "channel": 1,
      "note": 38,
      "start": 0.8554,
      "duration": 0.0012,
      "velocity": 127,
      "chip": "ym2612"
    },
    {
      "channel": 2,
      "note": 55,
      "start": 0.8556,
      "duration": 0.0035,
      "velocity": 104,
      "chip": "ym2612"
    },
    {
      "channel": 3,
      "note": 55,
      "start": 0.8558,
      "duration": 0.0037,
      "velocity": 104,
      "chip": "ym2612"
    },
    {
      "channel": 1,
      "note": 38,
      "start": 0.8571,
      "duration": 0.0009,
      "velocity": 127,
      "chip": "ym2612"
    },
    {
      "channel": 0,
      "note": 43,
      "start": 0.8588,
      "duration": 0.0027,
      "velocity": 115,
      "chip": "ym2612"
    },
    {
      "channel": 1,
      "note": 38,
      "start": 0.8591,
      "duration": 0.0018,
      "velocity": 127,
      "chip": "ym2612"
    },
    {
      "channel": 2,
      "note": 82,
      "start": 0.8594,
      "duration": 0.0018,
      "velocity": 104,
      "chip": "ym2612"
    },
    {
      "channel": 3,
      "note": 77,
      "start": 0.8597,
      "duration": 0.0015,
      "velocity": 104,
      "chip": "ym2612"
    },
    {
      "channel": 4,
      "note": 70,
      "start": 0.86,
      "duration": 0.0013,
      "velocity": 111,
      "chip": "ym2612"
    },
    {
      "channel": 1,
      "note": 38,
      "start": 0.8611,
      "duration": 0.0006,
      "velocity": 127,
      "chip": "ym2612"
    },
    {
      "channel": 0,
      "note": 58,
      "start": 0.8616,
      "duration": 0.0033,
      "velocity": 115,
      "chip": "ym2612"
    },
    {
      "channel": 1,
      "note": 38,
      "start": 0.8619,
      "duration": 0.0021,
      "velocity": 127,
      "chip": "ym2612"
    },
    {
      "channel": 2,
      "note": 82,
      "start": 0.8622,
      "duration": 0.002,
      "velocity": 104,
      "chip": "ym2612"
    },
    {
      "channel": 3,
      "note": 77,
      "start": 0.8625,
      "duration": 0.0017,
      "velocity": 104,
      "chip": "ym2612"
    },
    {
      "channel": 4,
      "note": 70,
      "start": 0.8627,
      "duration": 0.0016,
      "velocity": 111,
      "chip": "ym2612"
    },
    {
      "channel": 0,
      "note": 58,
      "start": 0.865,
      "duration": 0.0026,
      "velocity": 115,
      "chip": "ym2612"
    },
    {
      "channel": 1,
      "note": 38,
      "start": 0.8653,
      "duration": 0.0018,
      "velocity": 127,
      "chip": "ym2612"
    },
    {
      "channel": 2,
      "note": 82,
      "start": 0.8656,
      "duration": 0.0017,
      "velocity": 104,
      "chip": "ym2612"
    },
    {
      "channel": 3,
      "note": 77,
      "start": 0.8659,
      "duration": 0.0015,
      "velocity": 104,
      "chip": "ym2612"
    },
    {
      "channel": 4,
      "note": 70,
      "start": 0.8662,
      "duration": 0.0013,
      "velocity": 111,
      "chip": "ym2612"
    },
    {
      "channel": 1,
      "note": 38,
      "start": 0.8673,
      "duration": 0.0005,
      "velocity": 127,
      "chip": "ym2612"
    },
    {
      "channel": 0,
      "note": 56,
      "start": 0.8678,
      "duration": 0.003,
      "velocity": 115,
      "chip": "ym2612"
    },
    {
      "channel": 1,
      "note": 38,
      "start": 0.868,
      "duration": 0.0021,
      "velocity": 127,
      "chip": "ym2612"
    },
    {
      "channel": 2,
      "note": 80,
      "start": 0.8681,
      "duration": 0.0022,
      "velocity": 104,
      "chip": "ym2612"
    },
    {
      "channel": 3,
      "note": 75,
      "start": 0.8684,
      "duration": 0.002,
      "velocity": 104,
      "chip": "ym2612"
    },
    {
      "channel": 4,
      "note": 68,
      "start": 0.8687,
      "duration": 0.0018,
      "velocity": 111,
      "chip": "ym2612"
    },
    {
      "channel": 1,
      "note": 38,
      "start": 0.8702,
      "duration": 0.0006,
      "velocity": 127,
      "chip": "ym2612"
    },
    {
      "channel": 1,
      "note": 38,
      "start": 0.871,
      "duration": 0.0056,
      "velocity": 127,
      "chip": "ym2612"
    },
    {
      "channel": 2,
      "note": 79,
      "start": 0.8712,
      "duration": 0.0055,
      "velocity": 104,
      "chip": "ym2612"
    },
    {
      "channel": 3,
      "note": 74,
      "start": 0.8723,
      "duration": 0.0079,
      "velocity": 123,
      "chip": "ym2612"
    },
    {
      "channel": 2,
      "note": 74,
      "start": 0.8769,
      "duration": 0.0005,
      "velocity": 104,
      "chip": "ym2612"
    },
    {
      "channel": 1,
      "note": 38,
      "start": 0.8774,
      "duration": 0.0005,
      "velocity": 127,
      "chip": "ym2612"
    },
    {
      "channel": 2,
      "note": 79,
      "start": 0.8777,
      "duration": 0.0004,
      "velocity": 104,
      "chip": "ym2612"
    },
    {
      "channel": 1,
      "note": 38,
      "start": 0.8781,
      "duration": 0.0005,
      "velocity": 127,
      "chip": "ym2612"
    },
    {
      "channel": 2,
      "note": 74,
      "start": 0.8784,
      "duration": 0.0003,
      "velocity": 104,
      "chip": "ym2612"
    },
    {
      "channel": 1,
      "note": 38,
      "start": 0.8787,
      "duration": 0.0003,
      "velocity": 127,
      "chip": "ym2612"
    },
    {
      "channel": 2,
      "note": 79,
      "start": 0.8789,
      "duration": 0.0002,
      "velocity": 104,
      "chip": "ym2612"
    },
    {
      "channel": 2,
      "note": 74,
      "start": 0.8794,
      "duration": 0.0005,
      "velocity": 104,
      "chip": "ym2612"
    },
    {
      "channel": 1,
      "note": 38,
      "start": 0.8798,
      "duration": 0.0009,
      "velocity": 127,
      "chip": "ym2612"
    },
    {
      "channel": 2,
      "note": 79,
      "start": 0.8801,
      "duration": 0.0007,
      "velocity": 104,
      "chip": "ym2612"
    },
    {
      "channel": 3,
      "note": 73,
      "start": 0.8804,
      "duration": 0.0037,
      "velocity": 123,
      "chip": "ym2612"
    },
    {
      "channel": 2,
      "note": 74,
      "start": 0.881,
      "duration": 0.0004,
      "velocity": 104,
      "chip": "ym2612"
    },
    {
      "channel": 1,
      "note": 38,
      "start": 0.8813,
      "duration": 0.0004,
      "velocity": 127,
      "chip": "ym2612"
    },
    {
      "channel": 2,
      "note": 79,
      "start": 0.8816,
      "duration": 0.0005,
      "velocity": 104,
      "chip": "ym2612"
    },
    {
      "channel": 1,
      "note": 38,
      "start": 0.882,
      "duration": 0.0005,
      "velocity": 127,
      "chip": "ym2612"
    },
    {
      "channel": 2,
      "note": 74,
      "start": 0.8823,
      "duration": 0.0005,
      "velocity": 104,
      "chip": "ym2612"
    },
    {
      "channel": 1,
      "note": 38,
      "start": 0.8827,
      "duration": 0.0004,
      "velocity": 127,
      "chip": "ym2612"
    },
    {
      "channel": 2,
      "note": 79,
      "start": 0.883,
      "duration": 0.0003,
      "velocity": 104,
      "chip": "ym2612"
    },
    {
      "channel": 1,
      "note": 38,
      "start": 0.8833,
      "duration": 0.0003,
      "velocity": 127,
      "chip": "ym2612"
    },
    {
      "channel": 2,
      "note": 74,
      "start": 0.8834,
      "duration": 0.0004,
      "velocity": 104,
      "chip": "ym2612"
    },
    {
      "channel": 1,
      "note": 38,
      "start": 0.8838,
      "duration": 0.0007,
      "velocity": 127,
      "chip": "ym2612"
    },
    {
      "channel": 2,
      "note": 79,
      "start": 0.884,
      "duration": 0.0006,
      "velocity": 104,
      "chip": "ym2612"
    },
    {
      "channel": 3,
      "note": 72,
      "start": 0.8843,
      "duration": 0.007,
      "velocity": 123,
      "chip": "ym2612"
    },
    {
      "channel": 2,
      "note": 74,
      "start": 0.8848,
      "duration": 0.0004,
      "velocity": 104,
      "chip": "ym2612"
    },
    {
      "channel": 1,
      "note": 38,
      "start": 0.8851,
      "duration": 0.0005,
      "velocity": 127,
      "chip": "ym2612"
    },
    {
      "channel": 2,
      "note": 79,
      "start": 0.8854,
      "duration": 0.0004,
      "velocity": 104,
      "chip": "ym2612"
    },
    {
      "channel": 1,
      "note": 38,
      "start": 0.8858,
      "duration": 0.0005,
      "velocity": 127,
      "chip": "ym2612"
    },
    {
      "channel": 2,
      "note": 74,
      "start": 0.8861,
      "duration": 0.0005,
      "velocity": 104,
      "chip": "ym2612"
    },
    {
      "channel": 1,
      "note": 38,
      "start": 0.8865,
      "duration": 0.0044,
      "velocity": 127,
      "chip": "ym2612"
    },
    {
      "channel": 1,
      "note": 38,
      "start": 0.891,
      "duration": 0.0001,
      "velocity": 127,
      "chip": "ym2612"
    },
    {
      "channel": 3,
      "note": 71,
      "start": 0.8915,
      "duration": 0.0014,
      "velocity": 123,
      "chip": "ym2612"
    },
    {
      "channel": 1,
      "note": 38,
      "start": 0.8919,
      "duration": 0.0001,
      "velocity": 127,
      "chip": "ym2612"
    },
    {
      "channel": 1,
      "note": 38,
      "start": 0.8921,
      "duration": 0.0001,
      "velocity": 127,
      "chip": "ym2612"
    },
    {
      "channel": 1,
      "note": 38,
      "start": 0.8925,
      "duration": 0.0,
      "velocity": 127,
      "chip": "ym2612"
    },
    {
      "channel": 1,
      "note": 38,
      "start": 0.8928,
      "duration": 0.0004,
      "velocity": 127,
      "chip": "ym2612"
    },
    {
      "channel": 3,
      "note": 70,
      "start": 0.8932,
      "duration": 0.0013,
      "velocity": 123,
      "chip": "ym2612"
    },
    {
      "channel": 1,
      "note": 38,
      "start": 0.8935,
      "duration": 0.0002,
      "velocity": 127,
      "chip": "ym2612"
    },
    {
      "channel": 1,
      "note": 38,
      "start": 0.8939,
      "duration": 0.0001,
      "velocity": 127,
      "chip": "ym2612"
    },
    {
      "channel": 1,
      "note": 38,
      "start": 0.8944,
      "duration": 0.0004,
      "velocity": 127,
      "chip": "ym2612"
    },
    {
      "channel": 3,
      "note": 69,
      "start": 0.8946,
      "duration": 0.0016,
      "velocity": 123,
      "chip": "ym2612"
    },
    {
      "channel": 1,
      "note": 38,
      "start": 0.895,
      "duration": 0.0,
      "velocity": 127,
      "chip": "ym2612"
    },
    {
      "channel": 1,
      "note": 38,
      "start": 0.8953,
      "duration": 0.0,
      "velocity": 127,
      "chip": "ym2612"
    },
    {
      "channel": 1,
      "note": 38,
      "start": 0.8955,
      "duration": 0.0002,
      "velocity": 127,
      "chip": "ym2612"
    },
    {
      "channel": 1,
      "note": 38,
      "start": 0.8959,
      "duration": 0.0015,
      "velocity": 127,
      "chip": "ym2612"
    },
    {
      "channel": 2,
      "note": 79,
      "start": 0.8962,
      "duration": 0.0013,
      "velocity": 104,
      "chip": "ym2612"
    },
    {
      "channel": 3,
      "note": 74,
      "start": 0.8965,
      "duration": 0.0039,
      "velocity": 123,
      "chip": "ym2612"
    },
    {
      "channel": 2,
      "note": 74,
      "start": 0.8976,
      "duration": 0.0003,
      "velocity": 104,
      "chip": "ym2612"
    },
    {
      "channel": 1,
      "note": 38,
      "start": 0.8979,
      "duration": 0.0003,
      "velocity": 127,
      "chip": "ym2612"
    },
    {
      "channel": 2,
      "note": 79,
      "start": 0.8981,
      "duration": 0.0003,
      "velocity": 104,
      "chip": "ym2612"
    },
    {
      "channel": 1,
      "note": 38,
      "start": 0.8984,
      "duration": 0.0004,
      "velocity": 127,
      "chip": "ym2612"
    },
    {
      "channel": 2,
      "note": 74,
      "start": 0.8986,
      "duration": 0.0004,
      "velocity": 104,
      "chip": "ym2612"
    },
    {
      "channel": 1,
      "note": 38,
      "start": 0.899,
      "duration": 0.0005,
      "velocity": 127,
      "chip": "ym2612"
    },
    {
      "channel": 2,
      "note": 79,
      "start": 0.8993,
      "duration": 0.0002,
      "velocity": 104,
      "chip": "ym2612"
    },
    {
      "channel": 2,
      "note": 74,
      "start": 0.8998,
      "duration": 0.0004,
      "velocity": 104,
      "chip": "ym2612"
    },
    {
      "channel": 1,
      "note": 38,
      "start": 0.9001,
      "duration": 0.0007,
      "velocity": 127,
      "chip": "ym2612"
    },
    {
      "channel": 2,
      "note": 79,
      "start": 0.9004,
      "duration": 0.0006,
      "velocity": 104,
      "chip": "ym2612"
    },
    {
      "channel": 3,
      "note": 73,
      "start": 0.9007,
      "duration": 0.0037,
      "velocity": 123,
      "chip": "ym2612"
    },
    {
      "channel": 2,
      "note": 74,
      "start": 0.9012,
      "duration": 0.0004,
      "velocity": 104,
      "chip": "ym2612"
    },
    {
      "channel": 1,
      "note": 38,
      "start": 0.9015,
      "duration": 0.0003,
      "velocity": 127,
      "chip": "ym2612"
    },
    {
      "channel": 2,
      "note": 79,
      "start": 0.9018,
      "duration": 0.0004,
      "velocity": 104,
      "chip": "ym2612"
    },
    {
      "channel": 1,
      "note": 38,
      "start": 0.9021,
      "duration": 0.0005,
      "velocity": 127,
      "chip": "ym2612"
    },
    {
      "channel": 2,
      "note": 74,
      "start": 0.9024,
      "duration": 0.0004,
      "velocity": 104,
      "chip": "ym2612"
    },
    {
      "channel": 1,
      "note": 38,
      "start": 0.9027,
      "duration": 0.0003,
      "velocity": 127,
      "chip": "ym2612"
    },
    {
      "channel": 2,
      "note": 79,
      "start": 0.9029,
      "duration": 0.0005,
      "velocity": 104,
      "chip": "ym2612"
    },
    {
      "channel": 1,
      "note": 38,
      "start": 0.9033,
      "duration": 0.0005,
      "velocity": 127,
      "chip": "ym2612"
    },
    {
      "channel": 2,
      "note": 74,
      "start": 0.9035,
      "duration": 0.0005,
      "velocity": 104,
      "chip": "ym2612"
    },
    {
      "channel": 1,
      "note": 38,
      "start": 0.904,
      "duration": 0.0007,
      "velocity": 127,
      "chip": "ym2612"
    },
    {
      "channel": 2,
      "note": 79,
      "start": 0.9043,
      "duration": 0.0006,
      "velocity": 104,
      "chip": "ym2612"
    },
    {
      "channel": 3,
      "note": 72,
      "start": 0.9046,
      "duration": 0.007,
      "velocity": 123,
      "chip": "ym2612"
    },
    {
      "channel": 2,
      "note": 74,
      "start": 0.9051,
      "duration": 0.0003,
      "velocity": 104,
      "chip": "ym2612"
    },
    {
      "channel": 1,
      "note": 38,
      "start": 0.9054,
      "duration": 0.0004,
      "velocity": 127,
      "chip": "ym2612"
    },
    {
      "channel": 2,
      "note": 79,
      "start": 0.9056,
      "duration": 0.0003,
      "velocity": 104,
      "chip": "ym2612"
    },
    {
      "channel": 1,
      "note": 38,
      "start": 0.9059,
      "duration": 0.0006,
      "velocity": 127,
      "chip": "ym2612"
    },
    {
      "channel": 2,
      "note": 74,
      "start": 0.9061,
      "duration": 0.0006,
      "velocity": 104,
      "chip": "ym2612"
    },
    {
      "channel": 1,
      "note": 38,
      "start": 0.9066,
      "duration": 0.0047,
      "velocity": 127,
      "chip": "ym2612"
    },
    {
      "channel": 1,
      "note": 38,
      "start": 0.9114,
      "duration": 0.0001,
      "velocity": 127,
      "chip": "ym2612"
    },
    {
      "channel": 3,
      "note": 71,
      "start": 0.9118,
      "duration": 0.0017,
      "velocity": 123,
      "chip": "ym2612"
    },
    {
      "channel": 1,
      "note": 38,
      "start": 0.9122,
      "duration": 0.0,
      "velocity": 127,
      "chip": "ym2612"
    },
    {
      "channel": 1,
      "note": 38,
      "start": 0.9124,
      "duration": 0.0,
      "velocity": 127,
      "chip": "ym2612"
    },
    {
      "channel": 1,
      "note": 38,
      "start": 0.9129,
      "duration": 0.0002,
      "velocity": 127,
      "chip": "ym2612"
    },
    {
      "channel": 1,
      "note": 38,
      "start": 0.9134,
      "duration": 0.0004,
      "velocity": 127,
      "chip": "ym2612"
    },
    {
      "channel": 3,
      "note": 70,
      "start": 0.9138,
      "duration": 0.0013,
      "velocity": 123,
      "chip": "ym2612"
    },
    {
      "channel": 1,
      "note": 38,
      "start": 0.914,
      "duration": 0.0,
      "velocity": 127,
      "chip": "ym2612"
    },
    {
      "channel": 1,
      "note": 38,
      "start": 0.9143,
      "duration": 0.0002,
      "velocity": 127,
      "chip": "ym2612"
    },
    {
      "channel": 1,
      "note": 38,
      "start": 0.9149,
      "duration": 0.0004,
      "velocity": 127,
      "chip": "ym2612"
    },
    {
      "channel": 3,
      "note": 69,
      "start": 0.9152,
      "duration": 0.0038,
      "velocity": 123,
      "chip": "ym2612"
    },
    {
      "channel": 1,
      "note": 38,
      "start": 0.9155,
      "duration": 0.0,
      "velocity": 127,
      "chip": "ym2612"
    },
    {
      "channel": 1,
      "note": 38,
      "start": 0.9158,
      "duration": 0.0002,
      "velocity": 127,
      "chip": "ym2612"
    },
    {
      "channel": 1,
      "note": 38,
      "start": 0.9162,
      "duration": 0.0021,
      "velocity": 127,
      "chip": "ym2612"
    },
    {
      "channel": 1,
      "note": 38,
      "start": 0.9185,
      "duration": 0.0829,
      "velocity": 127,
      "chip": "ym2612"
    },
    {
      "channel": 2,
      "note": 79,
      "start": 0.9189,
      "duration": 0.0827,
      "velocity": 104,
      "chip": "ym2612"
    },
    {
      "channel": 3,
      "note": 74,
      "start": 0.9192,
      "duration": 0.1687,
      "velocity": 123,
      "chip": "ym2612"
    },
    {
      "channel": 2,
      "note": 74,
      "start": 1.0017,
      "duration": 0.0833,
      "velocity": 104,
      "chip": "ym2612"
    },
    {
      "channel": 1,
      "note": 38,
      "start": 1.085,
      "duration": 0.001,
      "velocity": 127,
      "chip": "ym2612"
    },
    {
      "channel": 2,
      "note": 79,
      "start": 1.0853,
      "duration": 0.0009,
      "velocity": 104,
      "chip": "ym2612"
    },
    {
      "channel": 1,
      "note": 38,
      "start": 1.0862,
      "duration": 0.0003,
      "velocity": 127,
      "chip": "ym2612"
    },
    {
      "channel": 2,
      "note": 74,
      "start": 1.0863,
      "duration": 0.0003,
      "velocity": 104,
      "chip": "ym2612"
    },
    {
      "channel": 1,
      "note": 38,
      "start": 1.0866,
      "duration": 0.0003,
      "velocity": 127,
      "chip": "ym2612"
    },
    {
      "channel": 2,
      "note": 79,
      "start": 1.0868,
      "duration": 0.0002,
      "velocity": 104,
      "chip": "ym2612"
    },
    {
      "channel": 2,
      "note": 74,
      "start": 1.0872,
      "duration": 0.0003,
      "velocity": 104,
      "chip": "ym2612"
    },
    {
      "channel": 1,
      "note": 38,
      "start": 1.0874,
      "duration": 0.0015,
      "velocity": 127,
      "chip": "ym2612"
    },
    {
      "channel": 2,
      "note": 79,
      "start": 1.0878,
      "duration": 0.0012,
      "velocity": 104,
      "chip": "ym2612"
    },
    {
      "channel": 3,
      "note": 73,
      "start": 1.0881,
      "duration": 0.0036,
      "velocity": 123,
      "chip": "ym2612"
    },
    {
      "channel": 2,
      "note": 74,
      "start": 1.0891,
      "duration": 0.0004,
      "velocity": 104,
      "chip": "ym2612"
    },
    {
      "channel": 1,
      "note": 38,
      "start": 1.0895,
      "duration": 0.0003,
      "velocity": 127,
      "chip": "ym2612"
    },
    {
      "channel": 2,
      "note": 79,
      "start": 1.0897,
      "duration": 0.0003,
      "velocity": 104,
      "chip": "ym2612"
    },
    {
      "channel": 1,
      "note": 38,
      "start": 1.0899,
      "duration": 0.0003,
      "velocity": 127,
      "chip": "ym2612"
    },
    {
      "channel": 2,
      "note": 74,
      "start": 1.0901,
      "duration": 0.0002,
      "velocity": 104,
      "chip": "ym2612"
    },
    {
      "channel": 1,
      "note": 38,
      "start": 1.0903,
      "duration": 0.0005,
      "velocity": 127,
      "chip": "ym2612"
    },
    {
      "channel": 2,
      "note": 79,
      "start": 1.0905,
      "duration": 0.0004,
      "velocity": 104,
      "chip": "ym2612"
    },
    {
      "channel": 1,
      "note": 38,
      "start": 1.0909,
      "duration": 0.0003,
      "velocity": 127,
      "chip": "ym2612"
    },
    {
      "channel": 2,
      "note": 74,
      "start": 1.0912,
      "duration": 0.0003,
      "velocity": 104,
      "chip": "ym2612"
    },
    {
      "channel": 1,
      "note": 38,
      "start": 1.0914,
      "duration": 0.0006,
      "velocity": 127,
      "chip": "ym2612"
    },
    {
      "channel": 2,
      "note": 79,
      "start": 1.0917,
      "duration": 0.0004,
      "velocity": 104,
      "chip": "ym2612"
    },
    {
      "channel": 3,
      "note": 72,
      "start": 1.0919,
      "duration": 0.003,
      "velocity": 123,
      "chip": "ym2612"
    },
    {
      "channel": 2,
      "note": 74,
      "start": 1.0922,
      "duration": 0.0004,
      "velocity": 104,
      "chip": "ym2612"
    },
    {
      "channel": 1,
      "note": 38,
      "start": 1.0926,
      "duration": 0.0012,
      "velocity": 127,
      "chip": "ym2612"
    },
    {
      "channel": 2,
      "note": 79,
      "start": 1.0928,
      "duration": 0.0012,
      "velocity": 104,
      "chip": "ym2612"
    },
    {
      "channel": 1,
      "note": 38,
      "start": 1.0939,
      "duration": 0.0004,
      "velocity": 127,
      "chip": "ym2612"
    },
    {
      "channel": 2,
      "note": 74,
      "start": 1.0941,
      "duration": 0.0003,
      "velocity": 104,
      "chip": "ym2612"
    },
    {
      "channel": 1,
      "note": 38,
      "start": 1.0944,
      "duration": 0.0002,
      "velocity": 127,
      "chip": "ym2612"
    },
    {
      "channel": 1,
      "note": 38,
      "start": 1.0948,
      "duration": 0.0,
      "velocity": 127,
      "chip": "ym2612"
    },
    {
      "channel": 3,
      "note": 71,
      "start": 1.0951,
      "duration": 0.003,
      "velocity": 123,
      "chip": "ym2612"
    },
    {
      "channel": 1,
      "note": 38,
      "start": 1.096,
      "duration": 0.0001,
      "velocity": 127,
      "chip": "ym2612"
    },
    {
      "channel": 1,
      "note": 38,
      "start": 1.0963,
      "duration": 0.0,
      "velocity": 127,
      "chip": "ym2612"
    },
    {
      "channel": 1,
      "note": 38,
      "start": 1.0968,
      "duration": 0.0009,
      "velocity": 127,
      "chip": "ym2612"
    },
    {
      "channel": 1,
      "note": 38,
      "start": 1.098,
      "duration": 0.0003,
      "velocity": 127,
      "chip": "ym2612"
    },
    {
      "channel": 3,
      "note": 70,
      "start": 1.0982,
      "duration": 0.002,
      "velocity": 123,
      "chip": "ym2612"
    },
    {
      "channel": 1,
      "note": 38,
      "start": 1.0985,
      "duration": 0.0002,
      "velocity": 127,
      "chip": "ym2612"
    },
    {
      "channel": 1,
      "note": 38,
      "start": 1.099,
      "duration": 0.0008,
      "velocity": 127,
      "chip": "ym2612"
    },
    {
      "channel": 1,
      "note": 38,
      "start": 1.1,
      "duration": 0.0004,
      "velocity": 127,
      "chip": "ym2612"
    },
    {
      "channel": 3,
      "note": 69,
      "start": 1.1004,
      "duration": 0.003,
      "velocity": 123,
      "chip": "ym2612"
    },
    {
      "channel": 1,
      "note": 38,
      "start": 1.1007,
      "duration": 0.0002,
      "velocity": 127,
      "chip": "ym2612"
    },
    {
      "channel": 1,
      "note": 38,
      "start": 1.1011,
      "duration": 0.0008,
      "velocity": 127,
      "chip": "ym2612"
    },
    {
      "channel": 1,
      "note": 38,
      "start": 1.1021,
      "duration": 0.0007,
      "velocity": 127,
      "chip": "ym2612"
    },
    {
      "channel": 1,
      "note": 38,
      "start": 1.103,
      "duration": 0.0017,
      "velocity": 127,
      "chip": "ym2612"
    },
    {
      "channel": 2,
      "note": 79,
      "start": 1.1033,
      "duration": 0.0014,
      "velocity": 104,
      "chip": "ym2612"
    },
    {
      "channel": 3,
      "note": 74,
      "start": 1.1036,
      "duration": 0.0061,
      "velocity": 123,
      "chip": "ym2612"
    },
    {
      "channel": 2,
      "note": 74,
      "start": 1.1049,
      "duration": 0.0003,
      "velocity": 104,
      "chip": "ym2612"
    },
    {
      "channel": 1,
      "note": 38,
      "start": 1.1052,
      "duration": 0.0013,
      "velocity": 127,
      "chip": "ym2612"
    },
    {
      "channel": 2,
      "note": 79,
      "start": 1.1056,
      "duration": 0.0011,
      "velocity": 104,
      "chip": "ym2612"
    },
    {
      "channel": 1,
      "note": 38,
      "start": 1.1066,
      "duration": 0.0002,
      "velocity": 127,
      "chip": "ym2612"
    },
    {
      "channel": 2,
      "note": 74,
      "start": 1.1067,
      "duration": 0.0004,
      "velocity": 104,
      "chip": "ym2612"
    },
    {
      "channel": 1,
      "note": 38,
      "start": 1.1071,
      "duration": 0.0012,
      "velocity": 127,
      "chip": "ym2612"
    },
    {
      "channel": 2,
      "note": 79,
      "start": 1.1073,
      "duration": 0.001,
      "velocity": 104,
      "chip": "ym2612"
    },
    {
      "channel": 2,
      "note": 74,
      "start": 1.1085,
      "duration": 0.001,
      "velocity": 104,
      "chip": "ym2612"
    },
    {
      "channel": 1,
      "note": 38,
      "start": 1.1094,
      "duration": 0.0014,
      "velocity": 127,
      "chip": "ym2612"
    },
    {
      "channel": 2,
      "note": 79,
      "start": 1.1097,
      "duration": 0.0011,
      "velocity": 104,
      "chip": "ym2612"
    },
    {
      "channel": 3,
      "note": 73,
      "start": 1.11,
      "duration": 0.0059,
      "velocity": 123,
      "chip": "ym2612"
    },
    {
      "channel": 2,
      "note": 74,
      "start": 1.111,
      "duration": 0.0004,
      "velocity": 104,
      "chip": "ym2612"
    },
    {
      "channel": 1,
      "note": 38,
      "start": 1.1113,
      "duration": 0.0012,
      "velocity": 127,
      "chip": "ym2612"
    },
    {
      "channel": 2,
      "note": 79,
      "start": 1.1116,
      "duration": 0.0011,
      "velocity": 104,
      "chip": "ym2612"
    },
    {
      "channel": 1,
      "note": 38,
      "start": 1.1127,
      "duration": 0.0007,
      "velocity": 127,
      "chip": "ym2612"
    },
    {
      "channel": 2,
      "note": 74,
      "start": 1.113,
      "duration": 0.0008,
      "velocity": 104,
      "chip": "ym2612"
    },
    {
      "channel": 1,
      "note": 38,
      "start": 1.1137,
      "duration": 0.0012,
      "velocity": 127,
      "chip": "ym2612"
    },
    {
      "channel": 2,
      "note": 79,
      "start": 1.114,
      "duration": 0.0011,
      "velocity": 104,
      "chip": "ym2612"
    },
    {
      "channel": 1,
      "note": 38,
      "start": 1.115,
      "duration": 0.0004,
      "velocity": 127,
      "chip": "ym2612"
    },
    {
      "channel": 2,
      "note": 74,
      "start": 1.1152,
      "duration": 0.0003,
      "velocity": 104,
      "chip": "ym2612"
    },
    {
      "channel": 1,
      "note": 38,
      "start": 1.1155,
      "duration": 0.0016,
      "velocity": 127,
      "chip": "ym2612"
    },
    {
      "channel": 2,
      "note": 79,
      "start": 1.1158,
      "duration": 0.0014,
      "velocity": 104,
      "chip": "ym2612"
    },
    {
      "channel": 3,
      "note": 72,
      "start": 1.1161,
      "duration": 0.0057,
      "velocity": 123,
      "chip": "ym2612"
    },
    {
      "channel": 2,
      "note": 74,
      "start": 1.1173,
      "duration": 0.0005,
      "velocity": 104,
      "chip": "ym2612"
    },
    {
      "channel": 1,
      "note": 38,
      "start": 1.1178,
      "duration": 0.0012,
      "velocity": 127,
      "chip": "ym2612"
    },
    {
      "channel": 2,
      "note": 79,
      "start": 1.118,
      "duration": 0.0012,
      "velocity": 104,
      "chip": "ym2612"
    },
    {
      "channel": 1,
      "note": 38,
      "start": 1.1191,
      "duration": 0.0004,
      "velocity": 127,
      "chip": "ym2612"
    },
    {
      "channel": 2,
      "note": 74,
      "start": 1.1193,
      "duration": 0.0005,
      "velocity": 104,
      "chip": "ym2612"
    },
    {
      "channel": 1,
      "note": 38,
      "start": 1.1197,
      "duration": 0.0014,
      "velocity": 127,
      "chip": "ym2612"
    },
    {
      "channel": 1,
      "note": 38,
      "start": 1.1212,
      "duration": 0.0004,
      "velocity": 127,
      "chip": "ym2612"
    },
    {
      "channel": 3,
      "note": 71,
      "start": 1.1221,
      "duration": 0.0054,
      "velocity": 123,
      "chip": "ym2612"
    },
    {
      "channel": 1,
      "note": 38,
      "start": 1.1231,
      "duration": 0.0003,
      "velocity": 127,
      "chip": "ym2612"
    },
    {
      "channel": 1,
      "note": 38,
      "start": 1.1235,
      "duration": 0.001,
      "velocity": 127,
      "chip": "ym2612"
    },
    {
      "channel": 1,
      "note": 38,
      "start": 1.1257,
      "duration": 0.001,
      "velocity": 127,
      "chip": "ym2612"
    },
    {
      "channel": 1,
      "note": 38,
      "start": 1.1273,
      "duration": 0.0014,
      "velocity": 127,
      "chip": "ym2612"
    },
    {
      "channel": 3,
      "note": 70,
      "start": 1.1277,
      "duration": 0.0037,
      "velocity": 123,
      "chip": "ym2612"
    },
    {
      "channel": 1,
      "note": 38,
      "start": 1.1289,
      "duration": 0.0004,
      "velocity": 127,
      "chip": "ym2612"
    },
    {
      "channel": 1,
      "note": 38,
      "start": 1.1296,
      "duration": 0.0008,
      "velocity": 127,
      "chip": "ym2612"
    },
    {
      "channel": 1,
      "note": 38,
      "start": 1.1312,
      "duration": 0.0013,
      "velocity": 127,
      "chip": "ym2612"
    },
    {
      "channel": 3,
      "note": 69,
      "start": 1.1316,
      "duration": 0.0043,
      "velocity": 123,
      "chip": "ym2612"
    },
    {
      "channel": 1,
      "note": 38,
      "start": 1.1326,
      "duration": 0.0006,
      "velocity": 127,
      "chip": "ym2612"
    },
    {
      "channel": 1,
      "note": 38,
      "start": 1.1335,
      "duration": 0.0008,
      "velocity": 127,
      "chip": "ym2612"
    },
    {
      "channel": 1,
      "note": 38,
      "start": 1.1344,
      "duration": 0.0008,
      "velocity": 127,
      "chip": "ym2612"
    },
    {
      "channel": 0,
      "note": 43,
      "start": 1.1351,
      "duration": 0.0022,
      "velocity": 115,
      "chip": "ym2612"
    },
    {
      "channel": 1,
      "note": 38,
      "start": 1.1355,
      "duration": 0.0016,
      "velocity": 127,
      "chip": "ym2612"
    },
    {
      "channel": 2,
      "note": 79,
      "start": 1.1358,
      "duration": 0.0014,
      "velocity": 104,
      "chip": "ym2612"
    },
    {
      "channel": 2,
      "note": 74,
      "start": 1.1373,
      "duration": 0.0005,
      "velocity": 104,
      "chip": "ym2612"
    },
    {
      "channel": 0,
      "note": 55,
      "start": 1.1375,
      "duration": 0.002,
      "velocity": 115,
      "chip": "ym2612"
    },
    {
      "channel": 1,
      "note": 38,
      "start": 1.1378,
      "duration": 0.0011,
      "velocity": 127,
      "chip": "ym2612"
    },
    {
      "channel": 2,
      "note": 79,
      "start": 1.1381,
      "duration": 0.0011,
      "velocity": 104,
      "chip": "ym2612"
    },
    {
      "channel": 1,
      "note": 38,
      "start": 1.1391,
      "duration": 0.0007,
      "velocity": 127,
      "chip": "ym2612"
    },
    {
      "channel": 2,
      "note": 74,
      "start": 1.1394,
      "duration": 0.0007,
      "velocity": 104,
      "chip": "ym2612"
    },
    {
      "channel": 0,
      "note": 43,
      "start": 1.1398,
      "duration": 0.002,
      "velocity": 115,
      "chip": "ym2612"
    },
    {
      "channel": 1,
      "note": 38,
      "start": 1.1401,
      "duration": 0.0012,
      "velocity": 127,
      "chip": "ym2612"
    },
    {
      "channel": 2,
      "note": 79,
      "start": 1.1403,
      "duration": 0.001,
      "velocity": 104,
      "chip": "ym2612"
    },
    {
      "channel": 2,
      "note": 74,
      "start": 1.1415,
      "duration": 0.0009,
      "velocity": 104,
      "chip": "ym2612"
    },
    {
      "channel": 0,
      "note": 56,
      "start": 1.142,
      "duration": 0.0017,
      "velocity": 115,
      "chip": "ym2612"
    },
    {
      "channel": 1,
      "note": 38,
      "start": 1.1423,
      "duration": 0.0011,
      "velocity": 127,
      "chip": "ym2612"
    },
    {
      "channel": 2,
      "note": 79,
      "start": 1.1426,
      "duration": 0.0008,
      "velocity": 104,
      "chip": "ym2612"
    },
    {
      "channel": 2,
      "note": 74,
      "start": 1.1436,
      "duration": 0.0007,
      "velocity": 104,
      "chip": "ym2612"
    },
    {
      "channel": 0,
      "note": 43,
      "start": 1.1439,
      "duration": 0.0021,
      "velocity": 115,
      "chip": "ym2612"
    },
    {
      "channel": 1,
      "note": 38,
      "start": 1.1442,
      "duration": 0.0012,
      "velocity": 127,
      "chip": "ym2612"
    },
    {
      "channel": 2,
      "note": 79,
      "start": 1.1445,
      "duration": 0.0011,
      "velocity": 104,
      "chip": "ym2612"
    },
    {
      "channel": 1,
      "note": 38,
      "start": 1.1455,
      "duration": 0.0007,
      "velocity": 127,
      "chip": "ym2612"
    },
    {
      "channel": 2,
      "note": 74,
      "start": 1.1457,
      "duration": 0.0008,
      "velocity": 104,
      "chip": "ym2612"
    },
    {
      "channel": 0,
      "note": 55,
      "start": 1.1462,
      "duration": 0.0018,
      "velocity": 115,
      "chip": "ym2612"
    },
    {
      "channel": 1,
      "note": 38,
      "start": 1.1465,
      "duration": 0.0011,
      "velocity": 127,
      "chip": "ym2612"
    },
    {
      "channel": 2,
      "note": 79,
      "start": 1.1467,
      "duration": 0.001,
      "velocity": 104,
      "chip": "ym2612"
    },
    {
      "channel": 1,
      "note": 38,
      "start": 1.1477,
      "duration": 0.0004,
      "velocity": 127,
      "chip": "ym2612"
    },
    {
      "channel": 2,
      "note": 74,
      "start": 1.1478,
      "duration": 0.0007,
      "velocity": 104,
      "chip": "ym2612"
    },
    {
      "channel": 0,
      "note": 43,
      "start": 1.1481,
      "duration": 0.002,
      "velocity": 115,
      "chip": "ym2612"
    },
    {
      "channel": 1,
      "note": 38,
      "start": 1.1484,
      "duration": 0.0014,
      "velocity": 127,
      "chip": "ym2612"
    },
    {
      "channel": 2,
      "note": 79,
      "start": 1.1487,
      "duration": 0.0011,
      "velocity": 104,
      "chip": "ym2612"
    },
    {
      "channel": 2,
      "note": 74,
      "start": 1.15,
      "duration": 0.0007,
      "velocity": 104,
      "chip": "ym2612"
    },
    {
      "channel": 0,
      "note": 53,
      "start": 1.1503,
      "duration": 0.002,
      "velocity": 115,
      "chip": "ym2612"
    },
    {
      "channel": 1,
      "note": 38,
      "start": 1.1506,
      "duration": 0.0013,
      "velocity": 127,
      "chip": "ym2612"
    },
    {
      "channel": 2,
      "note": 79,
      "start": 1.1509,
      "duration": 0.0011,
      "velocity": 104,
      "chip": "ym2612"
    },
    {
      "channel": 1,
      "note": 38,
      "start": 1.152,
      "duration": 0.0006,
      "velocity": 127,
      "chip": "ym2612"
    },
    {
      "channel": 2,
      "note": 74,
      "start": 1.1522,
      "duration": 0.0006,
      "velocity": 104,
      "chip": "ym2612"
    },
    {
      "channel": 0,
      "note": 43,
      "start": 1.1525,
      "duration": 0.0018,
      "velocity": 115,
      "chip": "ym2612"
    },
    {
      "channel": 1,
      "note": 38,
      "start": 1.1527,
      "duration": 0.0015,
      "velocity": 127,
      "chip": "ym2612"
    },
    {
      "channel": 1,
      "note": 38,
      "start": 1.1543,
      "duration": 0.0003,
      "velocity": 127,
      "chip": "ym2612"
    },
    {
      "channel": 0,
      "note": 55,
      "start": 1.1546,
      "duration": 0.0015,
      "velocity": 115,
      "chip": "ym2612"
    },
    {
      "channel": 1,
      "note": 38,
      "start": 1.1557,
      "duration": 0.0007,
      "velocity": 127,
      "chip": "ym2612"
    },
    {
      "channel": 0,
      "note": 43,
      "start": 1.1563,
      "duration": 0.002,
      "velocity": 115,
      "chip": "ym2612"
    },
    {
      "channel": 1,
      "note": 38,
      "start": 1.1566,
      "duration": 0.001,
      "velocity": 127,
      "chip": "ym2612"
    },
    {
      "channel": 0,
      "note": 56,
      "start": 1.1585,
      "duration": 0.0014,
      "velocity": 115,
      "chip": "ym2612"
    },
    {
      "channel": 1,
      "note": 38,
      "start": 1.1588,
      "duration": 0.0009,
      "velocity": 127,
      "chip": "ym2612"
    },
    {
      "channel": 0,
      "note": 43,
      "start": 1.1601,
      "duration": 0.0021,
      "velocity": 115,
      "chip": "ym2612"
    },
    {
      "channel": 1,
      "note": 38,
      "start": 1.1604,
      "duration": 0.001,
      "velocity": 127,
      "chip": "ym2612"
    },
    {
      "channel": 1,
      "note": 38,
      "start": 1.1616,
      "duration": 0.0009,
      "velocity": 127,
      "chip": "ym2612"
    },
    {
      "channel": 0,
      "note": 55,
      "start": 1.1624,
      "duration": 0.0015,
      "velocity": 115,
      "chip": "ym2612"
    },
    {
      "channel": 1,
      "note": 38,
      "start": 1.1627,
      "duration": 0.0009,
      "velocity": 127,
      "chip": "ym2612"
    },
    {
      "channel": 0,
      "note": 43,
      "start": 1.1641,
      "duration": 0.002,
      "velocity": 115,
      "chip": "ym2612"
    },
    {
      "channel": 1,
      "note": 38,
      "start": 1.1644,
      "duration": 0.001,
      "velocity": 127,
      "chip": "ym2612"
    },
    {
      "channel": 1,
      "note": 38,
      "start": 1.1655,
      "duration": 0.0009,
      "velocity": 127,
      "chip": "ym2612"
    },
    {
      "channel": 0,
      "note": 58,
      "start": 1.1663,
      "duration": 0.0015,
      "velocity": 115,
      "chip": "ym2612"
    },
    {
      "channel": 1,
      "note": 38,
      "start": 1.1666,
      "duration": 0.0009,
      "velocity": 127,
      "chip": "ym2612"
    },
    {
      "channel": 1,
      "note": 38,
      "start": 1.1676,
      "duration": 0.0004,
      "velocity": 127,
      "chip": "ym2612"
    },
    {
      "channel": 0,
      "note": 43,
      "start": 1.168,
      "duration": 0.0022,
      "velocity": 115,
      "chip": "ym2612"
    },
    {
      "channel": 1,
      "note": 38,
      "start": 1.1683,
      "duration": 0.0016,
      "velocity": 127,
      "chip": "ym2612"
    },
    {
      "channel": 2,
      "note": 79,
      "start": 1.1686,
      "duration": 0.0013,
      "velocity": 104,
      "chip": "ym2612"
    },
    {
      "channel": 2,
      "note": 74,
      "start": 1.1701,
      "duration": 0.0007,
      "velocity": 104,
      "chip": "ym2612"
    },
    {
      "channel": 0,
      "note": 55,
      "start": 1.1704,
      "duration": 0.002,
      "velocity": 115,
      "chip": "ym2612"
    },
    {
      "channel": 1,
      "note": 38,
      "start": 1.1707,
      "duration": 0.0013,
      "velocity": 127,
      "chip": "ym2612"
    },
    {
      "channel": 2,
      "note": 79,
      "start": 1.171,
      "duration": 0.0011,
      "velocity": 104,
      "chip": "ym2612"
    },
    {
      "channel": 1,
      "note": 38,
      "start": 1.1721,
      "duration": 0.0006,
      "velocity": 127,
      "chip": "ym2612"
    },
    {
      "channel": 2,
      "note": 74,
      "start": 1.1723,
      "duration": 0.0005,
      "velocity": 104,
      "chip": "ym2612"
    },
    {
      "channel": 0,
      "note": 43,
      "start": 1.1726,
      "duration": 0.002,
      "velocity": 115,
      "chip": "ym2612"
    },
    {
      "channel": 1,
      "note": 38,
      "start": 1.1728,
      "duration": 0.0013,
      "velocity": 127,
      "chip": "ym2612"
    },
    {
      "channel": 2,
      "note": 79,
      "start": 1.1731,
      "duration": 0.0011,
      "velocity": 104,
      "chip": "ym2612"
    },
    {
      "channel": 2,
      "note": 74,
      "start": 1.1744,
      "duration": 0.0009,
      "velocity": 104,
      "chip": "ym2612"
    },
    {
      "channel": 0,
      "note": 56,
      "start": 1.1748,
      "duration": 0.0017,
      "velocity": 115,
      "chip": "ym2612"
    },
    {
      "channel": 1,
      "note": 38,
      "start": 1.1751,
      "duration": 0.0012,
      "velocity": 127,
      "chip": "ym2612"
    },
    {
      "channel": 2,
      "note": 79,
      "start": 1.1754,
      "duration": 0.0009,
      "velocity": 104,
      "chip": "ym2612"
    },
    {
      "channel": 2,
      "note": 74,
      "start": 1.1765,
      "duration": 0.0006,
      "velocity": 104,
      "chip": "ym2612"
    },
    {
      "channel": 0,
      "note": 43,
      "start": 1.1766,
      "duration": 0.0022,
      "velocity": 115,
      "chip": "ym2612"
    },
    {
      "channel": 1,
      "note": 38,
      "start": 1.177,
      "duration": 0.0014,
      "velocity": 127,
      "chip": "ym2612"
    },
    {
      "channel": 2,
      "note": 79,
      "start": 1.1773,
      "duration": 0.0013,
      "velocity": 104,
      "chip": "ym2612"
    },
    {
      "channel": 1,
      "note": 38,
      "start": 1.1784,
      "duration": 0.0007,
      "velocity": 127,
      "chip": "ym2612"
    },
    {
      "channel": 2,
      "note": 74,
      "start": 1.1787,
      "duration": 0.0007,
      "velocity": 104,
      "chip": "ym2612"
    },
    {
      "channel": 0,
      "note": 55,
      "start": 1.179,
      "duration": 0.0018,
      "velocity": 115,
      "chip": "ym2612"
    },
    {
      "channel": 1,
      "note": 38,
      "start": 1.1794,
      "duration": 0.0011,
      "velocity": 127,
      "chip": "ym2612"
    },
    {
      "channel": 2,
      "note": 79,
      "start": 1.1796,
      "duration": 0.001,
      "velocity": 104,
      "chip": "ym2612"
    },
    {
      "channel": 1,
      "note": 38,
      "start": 1.1806,
      "duration": 0.0004,
      "velocity": 127,
      "chip": "ym2612"
    },
    {
      "channel": 2,
      "note": 74,
      "start": 1.1807,
      "duration": 0.0007,
      "velocity": 104,
      "chip": "ym2612"
    },
    {
      "channel": 0,
      "note": 43,
      "start": 1.181,
      "duration": 0.002,
      "velocity": 115,
      "chip": "ym2612"
    },
    {
      "channel": 1,
      "note": 38,
      "start": 1.1813,
      "duration": 0.0014,
      "velocity": 127,
      "chip": "ym2612"
    },
    {
      "channel": 2,
      "note": 79,
      "start": 1.1816,
      "duration": 0.0011,
      "velocity": 104,
      "chip": "ym2612"
    },
    {
      "channel": 2,
      "note": 74,
      "start": 1.1829,
      "duration": 0.0007,
      "velocity": 104,
      "chip": "ym2612"
    },
    {
      "channel": 0,
      "note": 53,
      "start": 1.1832,
      "duration": 0.002,
      "velocity": 115,
      "chip": "ym2612"
    },
    {
      "channel": 1,
      "note": 38,
      "start": 1.1834,
      "duration": 0.0013,
      "velocity": 127,
      "chip": "ym2612"
    },
    {
      "channel": 2,
      "note": 79,
      "start": 1.1838,
      "duration": 0.0011,
      "velocity": 104,
      "chip": "ym2612"
    },
    {
      "channel": 1,
      "note": 38,
      "start": 1.1848,
      "duration": 0.0006,
      "velocity": 127,
      "chip": "ym2612"
    },
    {
      "channel": 2,
      "note": 74,
      "start": 1.1851,
      "duration": 0.0006,
      "velocity": 104,
      "chip": "ym2612"
    },
    {
      "channel": 0,
      "note": 43,
      "start": 1.1854,
      "duration": 0.0018,
      "velocity": 115,
      "chip": "ym2612"
    },
    {
      "channel": 1,
      "note": 38,
      "start": 1.1856,
      "duration": 0.0015,
      "velocity": 127,
      "chip": "ym2612"
    },
    {
      "channel": 1,
      "note": 38,
      "start": 1.1872,
      "duration": 0.0003,
      "velocity": 127,
      "chip": "ym2612"
    },
    {
      "channel": 0,
      "note": 55,
      "start": 1.1875,
      "duration": 0.0015,
      "velocity": 115,
      "chip": "ym2612"
    },
    {
      "channel": 1,
      "note": 38,
      "start": 1.1886,
      "duration": 0.0007,
      "velocity": 127,
      "chip": "ym2612"
    },
    {
      "channel": 0,
      "note": 43,
      "start": 1.1892,
      "duration": 0.002,
      "velocity": 115,
      "chip": "ym2612"
    },
    {
      "channel": 1,
      "note": 38,
      "start": 1.1895,
      "duration": 0.001,
      "velocity": 127,
      "chip": "ym2612"
    },
    {
      "channel": 0,
      "note": 56,
      "start": 1.1914,
      "duration": 0.0014,
      "velocity": 115,
      "chip": "ym2612"
    },
    {
      "channel": 1,
      "note": 38,
      "start": 1.1917,
      "duration": 0.0009,
      "velocity": 127,
      "chip": "ym2612"
    },
    {
      "channel": 0,
      "note": 43,
      "start": 1.193,
      "duration": 0.0021,
      "velocity": 115,
      "chip": "ym2612"
    },
    {
      "channel": 1,
      "note": 38,
      "start": 1.1932,
      "duration": 0.001,
      "velocity": 127,
      "chip": "ym2612"
    },
    {
      "channel": 1,
      "note": 38,
      "start": 1.1945,
      "duration": 0.0009,
      "velocity": 127,
      "chip": "ym2612"
    },
    {
      "channel": 0,
      "note": 55,
      "start": 1.1953,
      "duration": 0.0015,
      "velocity": 115,
      "chip": "ym2612"
    },
    {
      "channel": 1,
      "note": 38,
      "start": 1.1956,
      "duration": 0.0009,
      "velocity": 127,
      "chip": "ym2612"
    },
    {
      "channel": 0,
      "note": 43,
      "start": 1.197,
      "duration": 0.002,
      "velocity": 115,
      "chip": "ym2612"
    },
    {
      "channel": 1,
      "note": 38,
      "start": 1.1973,
      "duration": 0.001,
      "velocity": 127,
      "chip": "ym2612"
    },
    {
      "channel": 1,
      "note": 38,
      "start": 1.1984,
      "duration": 0.0009,
      "velocity": 127,
      "chip": "ym2612"
    },
    {
      "channel": 0,
      "note": 58,
      "start": 1.1992,
      "duration": 0.0015,
      "velocity": 115,
      "chip": "ym2612"
    },
    {
      "channel": 1,
      "note": 38,
      "start": 1.1995,
      "duration": 0.0009,
      "velocity": 127,
      "chip": "ym2612"
    },
    {
      "channel": 1,
      "note": 38,
      "start": 1.2005,
      "duration": 0.0004,
      "velocity": 127,
      "chip": "ym2612"
    },
    {
      "channel": 0,
      "note": 43,
      "start": 1.2009,
      "duration": 68.133,
      "velocity": 115,
      "chip": "ym2612"
    },
    {
      "channel": 1,
      "note": 38,
      "start": 1.2012,
      "duration": 68.1327,
      "velocity": 127,
      "chip": "ym2612"
    },
    {
      "channel": 3,
      "note": 74,
      "start": 1.2017,
      "duration": 68.1322,
      "velocity": 123,
      "chip": "ym2612"
    },
    {
      "channel": 4,
      "note": 67,
      "start": 1.202,
      "duration": 68.1319,
      "velocity": 111,
      "chip": "ym2612"
    }
  ]
}