{
  "track_name": "08 - Garu no Tou",
  "duration_sec": 36.251,
  "sample_rate": 44100,
  "note_count": 678,
  "unique_pitches": 49,
  "pitch_range": 104,
  "avg_note_duration": 0.2081,
  "reconstruction_stats": {
    "notes_reconstructed": 678,
    "keyon_events": 678,
    "keyoff_events": 673,
    "orphan_keyons": 5,
    "unique_pitches": 49,
    "pitch_range": 104,
    "avg_duration_sec": 0.2081
  },
  "metadata": {
    "source": "V\\Valis III\\08 - Garu no Tou.vgz"
  },
  "notes": [
    {
      "channel": 5,
      "note": -1,
      "start": 0.0159,
      "duration": 0.1183,
      "velocity": 112,
      "chip": "ym2612"
    },
    {
      "channel": 5,
      "note": 45,
      "start": 0.138,
      "duration": 0.1153,
      "velocity": 112,
      "chip": "ym2612"
    },
    {
      "channel": 5,
      "note": 45,
      "start": 0.2572,
      "duration": 0.1153,
      "velocity": 112,
      "chip": "ym2612"
    },
    {
      "channel": 5,
      "note": 37,
      "start": 0.3764,
      "duration": 0.1154,
      "velocity": 112,
      "chip": "ym2612"
    },
    {
      "channel": 5,
      "note": 33,
      "start": 0.4956,
      "duration": 0.1153,
      "velocity": 112,
      "chip": "ym2612"
    },
    {
      "channel": 5,
      "note": 59,
      "start": 0.6147,
      "duration": 0.1155,
      "velocity": 126,
      "chip": "ym2612"
    },
    {
      "channel": 5,
      "note": 16,
      "start": 0.7339,
      "duration": 0.117,
      "velocity": 112,
      "chip": "ym2612"
    },
    {
      "channel": 5,
      "note": 59,
      "start": 0.8548,
      "duration": 0.1137,
      "velocity": 112,
      "chip": "ym2612"
    },
    {
      "channel": 5,
      "note": 59,
      "start": 0.9723,
      "duration": 0.1153,
      "velocity": 112,
      "chip": "ym2612"
    },
    {
      "channel": 5,
      "note": 37,
      "start": 1.0914,
      "duration": 0.1154,
      "velocity": 112,
      "chip": "ym2612"
    },
    {
      "channel": 5,
      "note": 33,
      "start": 1.2107,
      "duration": 0.1153,
      "velocity": 112,
      "chip": "ym2612"
    },
    {
      "channel": 5,
      "note": 59,
      "start": 1.3297,
      "duration": 0.1155,
      "velocity": 126,
      "chip": "ym2612"
    },
    {
      "channel": 5,
      "note": 16,
      "start": 1.449,
      "duration": 0.1174,
      "velocity": 112,
      "chip": "ym2612"
    },
    {
      "channel": 0,
      "note": -1,
      "start": 1.5653,
      "duration": 0.1966,
      "velocity": 79,
      "chip": "ym2612"
    },
    {
      "channel": 5,
      "note": 59,
      "start": 1.5702,
      "duration": 0.2338,
      "velocity": 126,
      "chip": "ym2612"
    },
    {
      "channel": 0,
      "note": 99,
      "start": 1.8028,
      "duration": 0.0981,
      "velocity": 79,
      "chip": "ym2612"
    },
    {
      "channel": 5,
      "note": 5,
      "start": 1.8077,
      "duration": 0.1205,
      "velocity": 126,
      "chip": "ym2612"
    },
    {
      "channel": 0,
      "note": 99,
      "start": 1.9223,
      "duration": 0.5149,
      "velocity": 79,
      "chip": "ym2612"
    },
    {
      "channel": 1,
      "note": -1,
      "start": 1.9241,
      "duration": 0.8907,
      "velocity": 63,
      "chip": "ym2612"
    },
    {
      "channel": 3,
      "note": -1,
      "start": 1.926,
      "duration": 0.8893,
      "velocity": 63,
      "chip": "ym2612"
    },
    {
      "channel": 4,
      "note": -1,
      "start": 1.9277,
      "duration": 0.1953,
      "velocity": 77,
      "chip": "ym2612"
    },
    {
      "channel": 5,
      "note": 16,
      "start": 1.9323,
      "duration": 0.3483,
      "velocity": 112,
      "chip": "ym2612"
    },
    {
      "channel": 4,
      "note": 53,
      "start": 2.2802,
      "duration": 0.0982,
      "velocity": 77,
      "chip": "ym2612"
    },
    {
      "channel": 5,
      "note": 51,
      "start": 2.2845,
      "duration": 0.2357,
      "velocity": 112,
      "chip": "ym2612"
    },
    {
      "channel": 0,
      "note": 96,
      "start": 2.5179,
      "duration": 0.0981,
      "velocity": 79,
      "chip": "ym2612"
    },
    {
      "channel": 4,
      "note": 53,
      "start": 2.5198,
      "duration": 0.0971,
      "velocity": 77,
      "chip": "ym2612"
    },
    {
      "channel": 5,
      "note": 56,
      "start": 2.524,
      "duration": 0.1153,
      "velocity": 112,
      "chip": "ym2612"
    },
    {
      "channel": 0,
      "note": 92,
      "start": 2.6371,
      "duration": 0.0981,
      "velocity": 79,
      "chip": "ym2612"
    },
    {
      "channel": 4,
      "note": 53,
      "start": 2.639,
      "duration": 0.0971,
      "velocity": 77,
      "chip": "ym2612"
    },
    {
      "channel": 5,
      "note": 59,
      "start": 2.643,
      "duration": 0.1155,
      "velocity": 126,
      "chip": "ym2612"
    },
    {
      "channel": 0,
      "note": 94,
      "start": 2.7562,
      "duration": 0.0982,
      "velocity": 79,
      "chip": "ym2612"
    },
    {
      "channel": 4,
      "note": 51,
      "start": 2.7581,
      "duration": 0.0971,
      "velocity": 77,
      "chip": "ym2612"
    },
    {
      "channel": 5,
      "note": 16,
      "start": 2.7623,
      "duration": 0.1179,
      "velocity": 112,
      "chip": "ym2612"
    },
    {
      "channel": 0,
      "note": 96,
      "start": 2.8754,
      "duration": 0.1,
      "velocity": 79,
      "chip": "ym2612"
    },
    {
      "channel": 1,
      "note": 68,
      "start": 2.8769,
      "duration": 0.8914,
      "velocity": 63,
      "chip": "ym2612"
    },
    {
      "channel": 3,
      "note": 60,
      "start": 2.8783,
      "duration": 0.8904,
      "velocity": 63,
      "chip": "ym2612"
    },
    {
      "channel": 4,
      "note": 53,
      "start": 2.8798,
      "duration": 0.1939,
      "velocity": 77,
      "chip": "ym2612"
    },
    {
      "channel": 5,
      "note": 59,
      "start": 2.884,
      "duration": 0.3499,
      "velocity": 112,
      "chip": "ym2612"
    },
    {
      "channel": 0,
      "note": 95,
      "start": 2.9946,
      "duration": 0.0981,
      "velocity": 79,
      "chip": "ym2612"
    },
    {
      "channel": 0,
      "note": 91,
      "start": 3.1158,
      "duration": 0.4342,
      "velocity": 79,
      "chip": "ym2612"
    },
    {
      "channel": 4,
      "note": 53,
      "start": 3.2336,
      "duration": 0.0983,
      "velocity": 77,
      "chip": "ym2612"
    },
    {
      "channel": 5,
      "note": 51,
      "start": 3.2378,
      "duration": 0.2345,
      "velocity": 112,
      "chip": "ym2612"
    },
    {
      "channel": 4,
      "note": 53,
      "start": 3.4719,
      "duration": 0.0983,
      "velocity": 77,
      "chip": "ym2612"
    },
    {
      "channel": 5,
      "note": 55,
      "start": 3.4761,
      "duration": 0.1158,
      "velocity": 112,
      "chip": "ym2612"
    },
    {
      "channel": 0,
      "note": 98,
      "start": 3.5904,
      "duration": 0.0989,
      "velocity": 79,
      "chip": "ym2612"
    },
    {
      "channel": 5,
      "note": 59,
      "start": 3.5956,
      "duration": 0.1163,
      "velocity": 126,
      "chip": "ym2612"
    },
    {
      "channel": 0,
      "note": 96,
      "start": 3.7097,
      "duration": 0.0981,
      "velocity": 79,
      "chip": "ym2612"
    },
    {
      "channel": 4,
      "note": 53,
      "start": 3.7116,
      "duration": 0.0971,
      "velocity": 77,
      "chip": "ym2612"
    },
    {
      "channel": 5,
      "note": 16,
      "start": 3.7158,
      "duration": 0.1186,
      "velocity": 112,
      "chip": "ym2612"
    },
    {
      "channel": 0,
      "note": 98,
      "start": 3.8296,
      "duration": 0.5144,
      "velocity": 79,
      "chip": "ym2612"
    },
    {
      "channel": 1,
      "note": 71,
      "start": 3.8312,
      "duration": 0.8906,
      "velocity": 63,
      "chip": "ym2612"
    },
    {
      "channel": 3,
      "note": 67,
      "start": 3.8326,
      "duration": 0.8895,
      "velocity": 63,
      "chip": "ym2612"
    },
    {
      "channel": 4,
      "note": 53,
      "start": 3.834,
      "duration": 0.1931,
      "velocity": 77,
      "chip": "ym2612"
    },
    {
      "channel": 5,
      "note": 59,
      "start": 3.8383,
      "duration": 0.3492,
      "velocity": 112,
      "chip": "ym2612"
    },
    {
      "channel": 4,
      "note": 58,
      "start": 4.187,
      "duration": 0.0983,
      "velocity": 77,
      "chip": "ym2612"
    },
    {
      "channel": 5,
      "note": 51,
      "start": 4.1913,
      "duration": 0.2358,
      "velocity": 112,
      "chip": "ym2612"
    },
    {
      "channel": 0,
      "note": 100,
      "start": 4.4247,
      "duration": 0.0981,
      "velocity": 79,
      "chip": "ym2612"
    },
    {
      "channel": 4,
      "note": 58,
      "start": 4.4267,
      "duration": 0.097,
      "velocity": 77,
      "chip": "ym2612"
    },
    {
      "channel": 5,
      "note": 55,
      "start": 4.431,
      "duration": 0.1154,
      "velocity": 112,
      "chip": "ym2612"
    },
    {
      "channel": 0,
      "note": 100,
      "start": 4.5439,
      "duration": 0.0982,
      "velocity": 79,
      "chip": "ym2612"
    },
    {
      "channel": 4,
      "note": 58,
      "start": 4.5459,
      "duration": 0.097,
      "velocity": 77,
      "chip": "ym2612"
    },
    {
      "channel": 5,
      "note": 59,
      "start": 4.55,
      "duration": 0.1155,
      "velocity": 126,
      "chip": "ym2612"
    },
    {
      "channel": 0,
      "note": 101,
      "start": 4.6631,
      "duration": 0.0981,
      "velocity": 79,
      "chip": "ym2612"
    },
    {
      "channel": 4,
      "note": 60,
      "start": 4.6651,
      "duration": 0.0969,
      "velocity": 77,
      "chip": "ym2612"
    },
    {
      "channel": 5,
      "note": 18,
      "start": 4.6693,
      "duration": 0.1178,
      "velocity": 112,
      "chip": "ym2612"
    },
    {
      "channel": 0,
      "note": 100,
      "start": 4.7822,
      "duration": 0.0981,
      "velocity": 79,
      "chip": "ym2612"
    },
    {
      "channel": 1,
      "note": 72,
      "start": 4.7837,
      "duration": 0.8916,
      "velocity": 63,
      "chip": "ym2612"
    },
    {
      "channel": 3,
      "note": 64,
      "start": 4.7852,
      "duration": 0.8905,
      "velocity": 63,
      "chip": "ym2612"
    },
    {
      "channel": 4,
      "note": 58,
      "start": 4.7866,
      "duration": 0.0946,
      "velocity": 77,
      "chip": "ym2612"
    },
    {
      "channel": 5,
      "note": 59,
      "start": 4.7909,
      "duration": 0.3499,
      "velocity": 112,
      "chip": "ym2612"
    },
    {
      "channel": 0,
      "note": 101,
      "start": 4.9015,
      "duration": 0.0981,
      "velocity": 79,
      "chip": "ym2612"
    },
    {
      "channel": 4,
      "note": 56,
      "start": 4.9034,
      "duration": 0.0971,
      "velocity": 77,
      "chip": "ym2612"
    },
    {
      "channel": 0,
      "note": 96,
      "start": 5.0206,
      "duration": 0.1975,
      "velocity": 79,
      "chip": "ym2612"
    },
    {
      "channel": 4,
      "note": 53,
      "start": 5.1404,
      "duration": 0.0998,
      "velocity": 77,
      "chip": "ym2612"
    },
    {
      "channel": 5,
      "note": 51,
      "start": 5.1446,
      "duration": 0.2364,
      "velocity": 112,
      "chip": "ym2612"
    },
    {
      "channel": 0,
      "note": 92,
      "start": 5.2589,
      "duration": 0.1578,
      "velocity": 79,
      "chip": "ym2612"
    },
    {
      "channel": 4,
      "note": 53,
      "start": 5.3807,
      "duration": 0.0964,
      "velocity": 77,
      "chip": "ym2612"
    },
    {
      "channel": 5,
      "note": 55,
      "start": 5.3849,
      "duration": 0.1148,
      "velocity": 112,
      "chip": "ym2612"
    },
    {
      "channel": 0,
      "note": 89,
      "start": 5.4974,
      "duration": 0.098,
      "velocity": 79,
      "chip": "ym2612"
    },
    {
      "channel": 4,
      "note": 53,
      "start": 5.4993,
      "duration": 0.0971,
      "velocity": 77,
      "chip": "ym2612"
    },
    {
      "channel": 5,
      "note": 59,
      "start": 5.5034,
      "duration": 0.1155,
      "velocity": 126,
      "chip": "ym2612"
    },
    {
      "channel": 0,
      "note": 92,
      "start": 5.6165,
      "duration": 0.0981,
      "velocity": 79,
      "chip": "ym2612"
    },
    {
      "channel": 4,
      "note": 51,
      "start": 5.6184,
      "duration": 0.0971,
      "velocity": 77,
      "chip": "ym2612"
    },
    {
      "channel": 5,
      "note": 16,
      "start": 5.6225,
      "duration": 0.1186,
      "velocity": 126,
      "chip": "ym2612"
    },
    {
      "channel": 0,
      "note": 94,
      "start": 5.7359,
      "duration": 0.5151,
      "velocity": 79,
      "chip": "ym2612"
    },
    {
      "channel": 1,
      "note": 72,
      "start": 5.7375,
      "duration": 0.8911,
      "velocity": 63,
      "chip": "ym2612"
    },
    {
      "channel": 3,
      "note": 63,
      "start": 5.7391,
      "duration": 0.8898,
      "velocity": 63,
      "chip": "ym2612"
    },
    {
      "channel": 4,
      "note": 53,
      "start": 5.7407,
      "duration": 0.1932,
      "velocity": 77,
      "chip": "ym2612"
    },
    {
      "channel": 5,
      "note": 16,
      "start": 5.745,
      "duration": 0.3501,
      "velocity": 112,
      "chip": "ym2612"
    },
    {
      "channel": 4,
      "note": 53,
      "start": 6.0948,
      "duration": 0.0974,
      "velocity": 77,
      "chip": "ym2612"
    },
    {
      "channel": 5,
      "note": 51,
      "start": 6.099,
      "duration": 0.2349,
      "velocity": 112,
      "chip": "ym2612"
    },
    {
      "channel": 0,
      "note": 96,
      "start": 6.3316,
      "duration": 0.0981,
      "velocity": 79,
      "chip": "ym2612"
    },
    {
      "channel": 4,
      "note": 53,
      "start": 6.3335,
      "duration": 0.0971,
      "velocity": 77,
      "chip": "ym2612"
    },
    {
      "channel": 5,
      "note": 56,
      "start": 6.3377,
      "duration": 0.1153,
      "velocity": 112,
      "chip": "ym2612"
    },
    {
      "channel": 0,
      "note": 92,
      "start": 6.4507,
      "duration": 0.0981,
      "velocity": 79,
      "chip": "ym2612"
    },
    {
      "channel": 4,
      "note": 53,
      "start": 6.4527,
      "duration": 0.0971,
      "velocity": 77,
      "chip": "ym2612"
    },
    {
      "channel": 5,
      "note": 59,
      "start": 6.4567,
      "duration": 0.1155,
      "velocity": 126,
      "chip": "ym2612"
    },
    {
      "channel": 0,
      "note": 94,
      "start": 6.5699,
      "duration": 0.0982,
      "velocity": 79,
      "chip": "ym2612"
    },
    {
      "channel": 4,
      "note": 51,
      "start": 6.5719,
      "duration": 0.0971,
      "velocity": 77,
      "chip": "ym2612"
    },
    {
      "channel": 5,
      "note": 16,
      "start": 6.5761,
      "duration": 0.1178,
      "velocity": 112,
      "chip": "ym2612"
    },
    {
      "channel": 0,
      "note": 96,
      "start": 6.6891,
      "duration": 0.0981,
      "velocity": 79,
      "chip": "ym2612"
    },
    {
      "channel": 1,
      "note": 68,
      "start": 6.6906,
      "duration": 0.8914,
      "velocity": 63,
      "chip": "ym2612"
    },
    {
      "channel": 3,
      "note": 60,
      "start": 6.692,
      "duration": 0.8904,
      "velocity": 63,
      "chip": "ym2612"
    },
    {
      "channel": 4,
      "note": 53,
      "start": 6.6934,
      "duration": 0.1939,
      "velocity": 77,
      "chip": "ym2612"
    },
    {
      "channel": 5,
      "note": 59,
      "start": 6.6977,
      "duration": 0.35,
      "velocity": 112,
      "chip": "ym2612"
    },
    {
      "channel": 0,
      "note": 95,
      "start": 6.8083,
      "duration": 0.0982,
      "velocity": 79,
      "chip": "ym2612"
    },
    {
      "channel": 0,
      "note": 91,
      "start": 6.9275,
      "duration": 0.4372,
      "velocity": 79,
      "chip": "ym2612"
    },
    {
      "channel": 4,
      "note": 53,
      "start": 7.0473,
      "duration": 0.0982,
      "velocity": 77,
      "chip": "ym2612"
    },
    {
      "channel": 5,
      "note": 51,
      "start": 7.0515,
      "duration": 0.2345,
      "velocity": 112,
      "chip": "ym2612"
    },
    {
      "channel": 4,
      "note": 53,
      "start": 7.2856,
      "duration": 0.0983,
      "velocity": 77,
      "chip": "ym2612"
    },
    {
      "channel": 5,
      "note": 55,
      "start": 7.2898,
      "duration": 0.1158,
      "velocity": 112,
      "chip": "ym2612"
    },
    {
      "channel": 0,
      "note": 98,
      "start": 7.4042,
      "duration": 0.0996,
      "velocity": 79,
      "chip": "ym2612"
    },
    {
      "channel": 5,
      "note": 59,
      "start": 7.4093,
      "duration": 0.1164,
      "velocity": 126,
      "chip": "ym2612"
    },
    {
      "channel": 0,
      "note": 100,
      "start": 7.5233,
      "duration": 0.0981,
      "velocity": 79,
      "chip": "ym2612"
    },
    {
      "channel": 4,
      "note": 53,
      "start": 7.5253,
      "duration": 0.0971,
      "velocity": 77,
      "chip": "ym2612"
    },
    {
      "channel": 5,
      "note": 16,
      "start": 7.5295,
      "duration": 0.1195,
      "velocity": 112,
      "chip": "ym2612"
    },
    {
      "channel": 0,
      "note": 98,
      "start": 7.6441,
      "duration": 0.5136,
      "velocity": 79,
      "chip": "ym2612"
    },
    {
      "channel": 1,
      "note": 71,
      "start": 7.6456,
      "duration": 0.8898,
      "velocity": 63,
      "chip": "ym2612"
    },
    {
      "channel": 3,
      "note": 67,
      "start": 7.6471,
      "duration": 0.8887,
      "velocity": 63,
      "chip": "ym2612"
    },
    {
      "channel": 4,
      "note": 53,
      "start": 7.6486,
      "duration": 0.1922,
      "velocity": 77,
      "chip": "ym2612"
    },
    {
      "channel": 5,
      "note": 59,
      "start": 7.6528,
      "duration": 0.3483,
      "velocity": 112,
      "chip": "ym2612"
    },
    {
      "channel": 4,
      "note": 58,
      "start": 8.0007,
      "duration": 0.0982,
      "velocity": 77,
      "chip": "ym2612"
    },
    {
      "channel": 5,
      "note": 51,
      "start": 8.0049,
      "duration": 0.2358,
      "velocity": 112,
      "chip": "ym2612"
    },
    {
      "channel": 0,
      "note": 100,
      "start": 8.2384,
      "duration": 0.0981,
      "velocity": 79,
      "chip": "ym2612"
    },
    {
      "channel": 4,
      "note": 58,
      "start": 8.2404,
      "duration": 0.0971,
      "velocity": 77,
      "chip": "ym2612"
    },
    {
      "channel": 5,
      "note": 55,
      "start": 8.2446,
      "duration": 0.1161,
      "velocity": 112,
      "chip": "ym2612"
    },
    {
      "channel": 0,
      "note": 100,
      "start": 8.3583,
      "duration": 0.0974,
      "velocity": 79,
      "chip": "ym2612"
    },
    {
      "channel": 4,
      "note": 58,
      "start": 8.3603,
      "duration": 0.0963,
      "velocity": 77,
      "chip": "ym2612"
    },
    {
      "channel": 5,
      "note": 59,
      "start": 8.3644,
      "duration": 0.1148,
      "velocity": 126,
      "chip": "ym2612"
    },
    {
      "channel": 0,
      "note": 101,
      "start": 8.4768,
      "duration": 0.0981,
      "velocity": 79,
      "chip": "ym2612"
    },
    {
      "channel": 4,
      "note": 60,
      "start": 8.4787,
      "duration": 0.0971,
      "velocity": 77,
      "chip": "ym2612"
    },
    {
      "channel": 5,
      "note": 18,
      "start": 8.483,
      "duration": 0.1178,
      "velocity": 112,
      "chip": "ym2612"
    },
    {
      "channel": 0,
      "note": 100,
      "start": 8.596,
      "duration": 0.0981,
      "velocity": 79,
      "chip": "ym2612"
    },
    {
      "channel": 1,
      "note": 72,
      "start": 8.5975,
      "duration": 0.8923,
      "velocity": 63,
      "chip": "ym2612"
    },
    {
      "channel": 3,
      "note": 64,
      "start": 8.599,
      "duration": 0.8912,
      "velocity": 63,
      "chip": "ym2612"
    },
    {
      "channel": 4,
      "note": 58,
      "start": 8.6004,
      "duration": 0.0946,
      "velocity": 77,
      "chip": "ym2612"
    },
    {
      "channel": 5,
      "note": 59,
      "start": 8.6046,
      "duration": 0.3499,
      "velocity": 112,
      "chip": "ym2612"
    },
    {
      "channel": 0,
      "note": 104,
      "start": 8.7151,
      "duration": 0.0982,
      "velocity": 79,
      "chip": "ym2612"
    },
    {
      "channel": 4,
      "note": 56,
      "start": 8.7171,
      "duration": 0.0971,
      "velocity": 77,
      "chip": "ym2612"
    },
    {
      "channel": 0,
      "note": 101,
      "start": 8.8343,
      "duration": 0.1975,
      "velocity": 79,
      "chip": "ym2612"
    },
    {
      "channel": 4,
      "note": 53,
      "start": 8.9541,
      "duration": 0.0983,
      "velocity": 77,
      "chip": "ym2612"
    },
    {
      "channel": 5,
      "note": 51,
      "start": 8.9583,
      "duration": 0.2345,
      "velocity": 112,
      "chip": "ym2612"
    },
    {
      "channel": 0,
      "note": 96,
      "start": 9.0727,
      "duration": 0.1576,
      "velocity": 79,
      "chip": "ym2612"
    },
    {
      "channel": 4,
      "note": 53,
      "start": 9.1925,
      "duration": 0.0983,
      "velocity": 77,
      "chip": "ym2612"
    },
    {
      "channel": 5,
      "note": 56,
      "start": 9.1966,
      "duration": 0.1168,
      "velocity": 126,
      "chip": "ym2612"
    },
    {
      "channel": 0,
      "note": 92,
      "start": 9.311,
      "duration": 0.0981,
      "velocity": 79,
      "chip": "ym2612"
    },
    {
      "channel": 4,
      "note": 53,
      "start": 9.313,
      "duration": 0.0971,
      "velocity": 77,
      "chip": "ym2612"
    },
    {
      "channel": 5,
      "note": 16,
      "start": 9.3171,
      "duration": 0.1155,
      "velocity": 126,
      "chip": "ym2612"
    },
    {
      "channel": 0,
      "note": 94,
      "start": 9.4303,
      "duration": 0.098,
      "velocity": 79,
      "chip": "ym2612"
    },
    {
      "channel": 4,
      "note": 55,
      "start": 9.4322,
      "duration": 0.0969,
      "velocity": 77,
      "chip": "ym2612"
    },
    {
      "channel": 5,
      "note": 16,
      "start": 9.4363,
      "duration": 0.1185,
      "velocity": 126,
      "chip": "ym2612"
    },
    {
      "channel": 0,
      "note": 96,
      "start": 9.5495,
      "duration": 0.098,
      "velocity": 79,
      "chip": "ym2612"
    },
    {
      "channel": 1,
      "note": 72,
      "start": 9.5512,
      "duration": 0.0966,
      "velocity": 63,
      "chip": "ym2612"
    },
    {
      "channel": 3,
      "note": 63,
      "start": 9.5528,
      "duration": 0.0954,
      "velocity": 63,
      "chip": "ym2612"
    },
    {
      "channel": 4,
      "note": 56,
      "start": 9.5544,
      "duration": 0.2925,
      "velocity": 77,
      "chip": "ym2612"
    },
    {
      "channel": 5,
      "note": 16,
      "start": 9.5588,
      "duration": 0.2325,
      "velocity": 112,
      "chip": "ym2612"
    },
    {
      "channel": 0,
      "note": 97,
      "start": 9.6685,
      "duration": 0.0998,
      "velocity": 79,
      "chip": "ym2612"
    },
    {
      "channel": 1,
      "note": 73,
      "start": 9.67,
      "duration": 0.0987,
      "velocity": 63,
      "chip": "ym2612"
    },
    {
      "channel": 3,
      "note": 68,
      "start": 9.6715,
      "duration": 0.0975,
      "velocity": 63,
      "chip": "ym2612"
    },
    {
      "channel": 0,
      "note": 99,
      "start": 9.7877,
      "duration": 0.0981,
      "velocity": 79,
      "chip": "ym2612"
    },
    {
      "channel": 1,
      "note": 75,
      "start": 9.7892,
      "duration": 0.0969,
      "velocity": 63,
      "chip": "ym2612"
    },
    {
      "channel": 3,
      "note": 68,
      "start": 9.7907,
      "duration": 0.0959,
      "velocity": 63,
      "chip": "ym2612"
    },
    {
      "channel": 5,
      "note": 55,
      "start": 9.7951,
      "duration": 0.1181,
      "velocity": 112,
      "chip": "ym2612"
    },
    {
      "channel": 0,
      "note": 97,
      "start": 9.9084,
      "duration": 0.5137,
      "velocity": 79,
      "chip": "ym2612"
    },
    {
      "channel": 1,
      "note": 73,
      "start": 9.9098,
      "duration": 0.5127,
      "velocity": 63,
      "chip": "ym2612"
    },
    {
      "channel": 3,
      "note": 68,
      "start": 9.9113,
      "duration": 0.5116,
      "velocity": 63,
      "chip": "ym2612"
    },
    {
      "channel": 4,
      "note": 58,
      "start": 9.9128,
      "duration": 0.5104,
      "velocity": 77,
      "chip": "ym2612"
    },
    {
      "channel": 5,
      "note": 59,
      "start": 9.9169,
      "duration": 0.2283,
      "velocity": 126,
      "chip": "ym2612"
    },
    {
      "channel": 5,
      "note": 5,
      "start": 10.1489,
      "duration": 0.1154,
      "velocity": 126,
      "chip": "ym2612"
    },
    {
      "channel": 5,
      "note": 16,
      "start": 10.2682,
      "duration": 0.1153,
      "velocity": 112,
      "chip": "ym2612"
    },
    {
      "channel": 5,
      "note": 37,
      "start": 10.3873,
      "duration": 0.1202,
      "velocity": 112,
      "chip": "ym2612"
    },
    {
      "channel": 0,
      "note": 96,
      "start": 10.5028,
      "duration": 0.0981,
      "velocity": 79,
      "chip": "ym2612"
    },
    {
      "channel": 1,
      "note": 72,
      "start": 10.5042,
      "duration": 0.097,
      "velocity": 63,
      "chip": "ym2612"
    },
    {
      "channel": 3,
      "note": 65,
      "start": 10.5057,
      "duration": 0.0959,
      "velocity": 63,
      "chip": "ym2612"
    },
    {
      "channel": 4,
      "note": 56,
      "start": 10.5071,
      "duration": 0.2933,
      "velocity": 77,
      "chip": "ym2612"
    },
    {
      "channel": 5,
      "note": 33,
      "start": 10.5114,
      "duration": 0.2333,
      "velocity": 112,
      "chip": "ym2612"
    },
    {
      "channel": 0,
      "note": 94,
      "start": 10.6226,
      "duration": 0.0975,
      "velocity": 79,
      "chip": "ym2612"
    },
    {
      "channel": 1,
      "note": 70,
      "start": 10.624,
      "duration": 0.0964,
      "velocity": 63,
      "chip": "ym2612"
    },
    {
      "channel": 3,
      "note": 65,
      "start": 10.6255,
      "duration": 0.0953,
      "velocity": 63,
      "chip": "ym2612"
    },
    {
      "channel": 0,
      "note": 96,
      "start": 10.7411,
      "duration": 0.0982,
      "velocity": 79,
      "chip": "ym2612"
    },
    {
      "channel": 1,
      "note": 72,
      "start": 10.7426,
      "duration": 0.097,
      "velocity": 63,
      "chip": "ym2612"
    },
    {
      "channel": 3,
      "note": 65,
      "start": 10.7441,
      "duration": 0.0959,
      "velocity": 63,
      "chip": "ym2612"
    },
    {
      "channel": 5,
      "note": 56,
      "start": 10.7486,
      "duration": 0.1164,
      "velocity": 112,
      "chip": "ym2612"
    },
    {
      "channel": 0,
      "note": 94,
      "start": 10.8604,
      "duration": 0.5152,
      "velocity": 79,
      "chip": "ym2612"
    },
    {
      "channel": 1,
      "note": 70,
      "start": 10.8618,
      "duration": 0.5141,
      "velocity": 63,
      "chip": "ym2612"
    },
    {
      "channel": 3,
      "note": 65,
      "start": 10.8633,
      "duration": 0.513,
      "velocity": 63,
      "chip": "ym2612"
    },
    {
      "channel": 4,
      "note": 55,
      "start": 10.8647,
      "duration": 0.512,
      "velocity": 77,
      "chip": "ym2612"
    },
    {
      "channel": 5,
      "note": 59,
      "start": 10.8688,
      "duration": 0.2298,
      "velocity": 126,
      "chip": "ym2612"
    },
    {
      "channel": 5,
      "note": 2,
      "start": 11.1023,
      "duration": 0.1155,
      "velocity": 126,
      "chip": "ym2612"
    },
    {
      "channel": 5,
      "note": 16,
      "start": 11.2216,
      "duration": 0.1156,
      "velocity": 112,
      "chip": "ym2612"
    },
    {
      "channel": 5,
      "note": 37,
      "start": 11.341,
      "duration": 0.12,
      "velocity": 112,
      "chip": "ym2612"
    },
    {
      "channel": 0,
      "note": 92,
      "start": 11.4562,
      "duration": 0.0981,
      "velocity": 79,
      "chip": "ym2612"
    },
    {
      "channel": 1,
      "note": 68,
      "start": 11.4577,
      "duration": 0.6332,
      "velocity": 63,
      "chip": "ym2612"
    },
    {
      "channel": 3,
      "note": 63,
      "start": 11.4591,
      "duration": 0.6322,
      "velocity": 63,
      "chip": "ym2612"
    },
    {
      "channel": 4,
      "note": 53,
      "start": 11.4605,
      "duration": 0.0747,
      "velocity": 77,
      "chip": "ym2612"
    },
    {
      "channel": 5,
      "note": 33,
      "start": 11.4649,
      "duration": 0.7126,
      "velocity": 112,
      "chip": "ym2612"
    },
    {
      "channel": 0,
      "note": 94,
      "start": 11.5754,
      "duration": 0.0981,
      "velocity": 79,
      "chip": "ym2612"
    },
    {
      "channel": 4,
      "note": 60,
      "start": 11.5773,
      "duration": 0.0971,
      "velocity": 77,
      "chip": "ym2612"
    },
    {
      "channel": 0,
      "note": 86,
      "start": 11.6945,
      "duration": 0.0982,
      "velocity": 79,
      "chip": "ym2612"
    },
    {
      "channel": 0,
      "note": 89,
      "start": 11.8138,
      "duration": 0.0981,
      "velocity": 79,
      "chip": "ym2612"
    },
    {
      "channel": 4,
      "note": 60,
      "start": 11.8158,
      "duration": 0.097,
      "velocity": 77,
      "chip": "ym2612"
    },
    {
      "channel": 0,
      "note": 94,
      "start": 11.9329,
      "duration": 0.0996,
      "velocity": 79,
      "chip": "ym2612"
    },
    {
      "channel": 0,
      "note": 98,
      "start": 12.0522,
      "duration": 0.0981,
      "velocity": 79,
      "chip": "ym2612"
    },
    {
      "channel": 4,
      "note": 48,
      "start": 12.0541,
      "duration": 0.0771,
      "velocity": 77,
      "chip": "ym2612"
    },
    {
      "channel": 0,
      "note": 101,
      "start": 12.1728,
      "duration": 0.0966,
      "velocity": 79,
      "chip": "ym2612"
    },
    {
      "channel": 1,
      "note": 70,
      "start": 12.1742,
      "duration": 0.0956,
      "velocity": 63,
      "chip": "ym2612"
    },
    {
      "channel": 3,
      "note": 62,
      "start": 12.1756,
      "duration": 0.0945,
      "velocity": 63,
      "chip": "ym2612"
    },
    {
      "channel": 4,
      "note": 48,
      "start": 12.1771,
      "duration": 0.0733,
      "velocity": 77,
      "chip": "ym2612"
    },
    {
      "channel": 5,
      "note": 6,
      "start": 12.1813,
      "duration": 0.1138,
      "velocity": 112,
      "chip": "ym2612"
    },
    {
      "channel": 0,
      "note": 103,
      "start": 12.2904,
      "duration": 0.0982,
      "velocity": 79,
      "chip": "ym2612"
    },
    {
      "channel": 1,
      "note": 72,
      "start": 12.2919,
      "duration": 0.097,
      "velocity": 63,
      "chip": "ym2612"
    },
    {
      "channel": 3,
      "note": 64,
      "start": 12.2934,
      "duration": 0.0959,
      "velocity": 63,
      "chip": "ym2612"
    },
    {
      "channel": 4,
      "note": 60,
      "start": 12.2948,
      "duration": 0.0949,
      "velocity": 77,
      "chip": "ym2612"
    },
    {
      "channel": 5,
      "note": 59,
      "start": 12.299,
      "duration": 0.2296,
      "velocity": 112,
      "chip": "ym2612"
    },
    {
      "channel": 5,
      "note": 55,
      "start": 12.5324,
      "duration": 0.1155,
      "velocity": 126,
      "chip": "ym2612"
    },
    {
      "channel": 5,
      "note": 16,
      "start": 12.6516,
      "duration": 0.0758,
      "velocity": 126,
      "chip": "ym2612"
    },
    {
      "channel": 5,
      "note": 20,
      "start": 12.731,
      "duration": 0.0758,
      "velocity": 126,
      "chip": "ym2612"
    },
    {
      "channel": 5,
      "note": 19,
      "start": 12.8105,
      "duration": 0.0761,
      "velocity": 126,
      "chip": "ym2612"
    },
    {
      "channel": 5,
      "note": 19,
      "start": 12.8904,
      "duration": 0.115,
      "velocity": 112,
      "chip": "ym2612"
    },
    {
      "channel": 5,
      "note": 38,
      "start": 13.0091,
      "duration": 0.1155,
      "velocity": 112,
      "chip": "ym2612"
    },
    {
      "channel": 5,
      "note": 37,
      "start": 13.1284,
      "duration": 0.1153,
      "velocity": 112,
      "chip": "ym2612"
    },
    {
      "channel": 5,
      "note": 33,
      "start": 13.2476,
      "duration": 0.1209,
      "velocity": 112,
      "chip": "ym2612"
    },
    {
      "channel": 0,
      "note": 100,
      "start": 13.3633,
      "duration": 0.5155,
      "velocity": 79,
      "chip": "ym2612"
    },
    {
      "channel": 1,
      "note": 72,
      "start": 13.3649,
      "duration": 0.891,
      "velocity": 63,
      "chip": "ym2612"
    },
    {
      "channel": 3,
      "note": 64,
      "start": 13.3666,
      "duration": 0.8898,
      "velocity": 63,
      "chip": "ym2612"
    },
    {
      "channel": 4,
      "note": 48,
      "start": 13.3682,
      "duration": 0.1931,
      "velocity": 77,
      "chip": "ym2612"
    },
    {
      "channel": 5,
      "note": 33,
      "start": 13.3725,
      "duration": 0.3491,
      "velocity": 112,
      "chip": "ym2612"
    },
    {
      "channel": 4,
      "note": 53,
      "start": 13.7212,
      "duration": 0.0983,
      "velocity": 77,
      "chip": "ym2612"
    },
    {
      "channel": 5,
      "note": 51,
      "start": 13.7254,
      "duration": 0.2359,
      "velocity": 112,
      "chip": "ym2612"
    },
    {
      "channel": 0,
      "note": 96,
      "start": 13.959,
      "duration": 0.0981,
      "velocity": 79,
      "chip": "ym2612"
    },
    {
      "channel": 4,
      "note": 53,
      "start": 13.9609,
      "duration": 0.0971,
      "velocity": 77,
      "chip": "ym2612"
    },
    {
      "channel": 5,
      "note": 55,
      "start": 13.9652,
      "duration": 0.1153,
      "velocity": 112,
      "chip": "ym2612"
    },
    {
      "channel": 0,
      "note": 92,
      "start": 14.0782,
      "duration": 0.0981,
      "velocity": 79,
      "chip": "ym2612"
    },
    {
      "channel": 4,
      "note": 51,
      "start": 14.0801,
      "duration": 0.1962,
      "velocity": 77,
      "chip": "ym2612"
    },
    {
      "channel": 5,
      "note": 59,
      "start": 14.0842,
      "duration": 0.1144,
      "velocity": 126,
      "chip": "ym2612"
    },
    {
      "channel": 0,
      "note": 94,
      "start": 14.1974,
      "duration": 0.0994,
      "velocity": 79,
      "chip": "ym2612"
    },
    {
      "channel": 5,
      "note": 16,
      "start": 14.2024,
      "duration": 0.1188,
      "velocity": 112,
      "chip": "ym2612"
    },
    {
      "channel": 0,
      "note": 96,
      "start": 14.3165,
      "duration": 0.0981,
      "velocity": 79,
      "chip": "ym2612"
    },
    {
      "channel": 1,
      "note": 72,
      "start": 14.318,
      "duration": 0.8914,
      "velocity": 63,
      "chip": "ym2612"
    },
    {
      "channel": 3,
      "note": 63,
      "start": 14.3194,
      "duration": 0.8904,
      "velocity": 63,
      "chip": "ym2612"
    },
    {
      "channel": 4,
      "note": 53,
      "start": 14.3208,
      "duration": 0.1939,
      "velocity": 77,
      "chip": "ym2612"
    },
    {
      "channel": 5,
      "note": 59,
      "start": 14.3251,
      "duration": 0.35,
      "velocity": 112,
      "chip": "ym2612"
    },
    {
      "channel": 0,
      "note": 95,
      "start": 14.4371,
      "duration": 0.0967,
      "velocity": 79,
      "chip": "ym2612"
    },
    {
      "channel": 0,
      "note": 91,
      "start": 14.5548,
      "duration": 0.4358,
      "velocity": 79,
      "chip": "ym2612"
    },
    {
      "channel": 4,
      "note": 53,
      "start": 14.6747,
      "duration": 0.0983,
      "velocity": 77,
      "chip": "ym2612"
    },
    {
      "channel": 5,
      "note": 51,
      "start": 14.6789,
      "duration": 0.2346,
      "velocity": 112,
      "chip": "ym2612"
    },
    {
      "channel": 4,
      "note": 53,
      "start": 14.913,
      "duration": 0.0989,
      "velocity": 77,
      "chip": "ym2612"
    },
    {
      "channel": 5,
      "note": 55,
      "start": 14.9173,
      "duration": 0.1166,
      "velocity": 112,
      "chip": "ym2612"
    },
    {
      "channel": 0,
      "note": 86,
      "start": 15.0315,
      "duration": 0.0981,
      "velocity": 79,
      "chip": "ym2612"
    },
    {
      "channel": 4,
      "note": 51,
      "start": 15.0334,
      "duration": 0.1964,
      "velocity": 77,
      "chip": "ym2612"
    },
    {
      "channel": 5,
      "note": 59,
      "start": 15.0375,
      "duration": 0.1151,
      "velocity": 126,
      "chip": "ym2612"
    },
    {
      "channel": 0,
      "note": 91,
      "start": 15.1515,
      "duration": 0.0974,
      "velocity": 79,
      "chip": "ym2612"
    },
    {
      "channel": 5,
      "note": 16,
      "start": 15.1565,
      "duration": 0.1182,
      "velocity": 112,
      "chip": "ym2612"
    },
    {
      "channel": 0,
      "note": 95,
      "start": 15.27,
      "duration": 0.6344,
      "velocity": 79,
      "chip": "ym2612"
    },
    {
      "channel": 1,
      "note": 71,
      "start": 15.2714,
      "duration": 0.8914,
      "velocity": 63,
      "chip": "ym2612"
    },
    {
      "channel": 3,
      "note": 62,
      "start": 15.2728,
      "duration": 0.8904,
      "velocity": 63,
      "chip": "ym2612"
    },
    {
      "channel": 4,
      "note": 53,
      "start": 15.2743,
      "duration": 0.1939,
      "velocity": 77,
      "chip": "ym2612"
    },
    {
      "channel": 5,
      "note": 59,
      "start": 15.2785,
      "duration": 0.35,
      "velocity": 112,
      "chip": "ym2612"
    },
    {
      "channel": 4,
      "note": 53,
      "start": 15.6281,
      "duration": 0.0983,
      "velocity": 77,
      "chip": "ym2612"
    },
    {
      "channel": 5,
      "note": 51,
      "start": 15.6324,
      "duration": 0.2344,
      "velocity": 112,
      "chip": "ym2612"
    },
    {
      "channel": 4,
      "note": 53,
      "start": 15.8664,
      "duration": 0.0983,
      "velocity": 77,
      "chip": "ym2612"
    },
    {
      "channel": 5,
      "note": 55,
      "start": 15.8706,
      "duration": 0.1167,
      "velocity": 112,
      "chip": "ym2612"
    },
    {
      "channel": 0,
      "note": 96,
      "start": 15.985,
      "duration": 0.0981,
      "velocity": 79,
      "chip": "ym2612"
    },
    {
      "channel": 4,
      "note": 51,
      "start": 15.9869,
      "duration": 0.1963,
      "velocity": 77,
      "chip": "ym2612"
    },
    {
      "channel": 5,
      "note": 59,
      "start": 15.991,
      "duration": 0.1144,
      "velocity": 126,
      "chip": "ym2612"
    },
    {
      "channel": 0,
      "note": 99,
      "start": 16.1042,
      "duration": 0.0981,
      "velocity": 79,
      "chip": "ym2612"
    },
    {
      "channel": 5,
      "note": 16,
      "start": 16.1092,
      "duration": 0.1189,
      "velocity": 112,
      "chip": "ym2612"
    },
    {
      "channel": 0,
      "note": 96,
      "start": 16.2233,
      "duration": 0.0981,
      "velocity": 79,
      "chip": "ym2612"
    },
    {
      "channel": 1,
      "note": 72,
      "start": 16.2248,
      "duration": 0.8914,
      "velocity": 63,
      "chip": "ym2612"
    },
    {
      "channel": 3,
      "note": 63,
      "start": 16.2263,
      "duration": 0.8903,
      "velocity": 63,
      "chip": "ym2612"
    },
    {
      "channel": 4,
      "note": 53,
      "start": 16.2277,
      "duration": 0.195,
      "velocity": 77,
      "chip": "ym2612"
    },
    {
      "channel": 5,
      "note": 59,
      "start": 16.232,
      "duration": 0.35,
      "velocity": 112,
      "chip": "ym2612"
    },
    {
      "channel": 0,
      "note": 95,
      "start": 16.3425,
      "duration": 0.0982,
      "velocity": 79,
      "chip": "ym2612"
    },
    {
      "channel": 0,
      "note": 91,
      "start": 16.4617,
      "duration": 0.4358,
      "velocity": 79,
      "chip": "ym2612"
    },
    {
      "channel": 4,
      "note": 55,
      "start": 16.5815,
      "duration": 0.0983,
      "velocity": 77,
      "chip": "ym2612"
    },
    {
      "channel": 5,
      "note": 51,
      "start": 16.5857,
      "duration": 0.2345,
      "velocity": 112,
      "chip": "ym2612"
    },
    {
      "channel": 4,
      "note": 55,
      "start": 16.8199,
      "duration": 0.1204,
      "velocity": 77,
      "chip": "ym2612"
    },
    {
      "channel": 5,
      "note": 56,
      "start": 16.8241,
      "duration": 0.1167,
      "velocity": 112,
      "chip": "ym2612"
    },
    {
      "channel": 0,
      "note": 98,
      "start": 16.9384,
      "duration": 0.0981,
      "velocity": 79,
      "chip": "ym2612"
    },
    {
      "channel": 4,
      "note": 53,
      "start": 16.9404,
      "duration": 0.1962,
      "velocity": 77,
      "chip": "ym2612"
    },
    {
      "channel": 5,
      "note": 59,
      "start": 16.9444,
      "duration": 0.1144,
      "velocity": 126,
      "chip": "ym2612"
    },
    {
      "channel": 0,
      "note": 96,
      "start": 17.0576,
      "duration": 0.0981,
      "velocity": 79,
      "chip": "ym2612"
    },
    {
      "channel": 5,
      "note": 16,
      "start": 17.0625,
      "duration": 0.1197,
      "velocity": 126,
      "chip": "ym2612"
    },
    {
      "channel": 0,
      "note": 98,
      "start": 17.177,
      "duration": 0.5163,
      "velocity": 79,
      "chip": "ym2612"
    },
    {
      "channel": 1,
      "note": 71,
      "start": 17.1786,
      "duration": 0.8911,
      "velocity": 63,
      "chip": "ym2612"
    },
    {
      "channel": 3,
      "note": 62,
      "start": 17.1803,
      "duration": 0.8898,
      "velocity": 63,
      "chip": "ym2612"
    },
    {
      "channel": 4,
      "note": 55,
      "start": 17.1818,
      "duration": 0.1932,
      "velocity": 77,
      "chip": "ym2612"
    },
    {
      "channel": 5,
      "note": 16,
      "start": 17.1862,
      "duration": 0.3491,
      "velocity": 112,
      "chip": "ym2612"
    },
    {
      "channel": 4,
      "note": 53,
      "start": 17.5349,
      "duration": 0.0983,
      "velocity": 77,
      "chip": "ym2612"
    },
    {
      "channel": 5,
      "note": 51,
      "start": 17.5391,
      "duration": 0.2359,
      "velocity": 112,
      "chip": "ym2612"
    },
    {
      "channel": 0,
      "note": 96,
      "start": 17.7726,
      "duration": 0.0982,
      "velocity": 79,
      "chip": "ym2612"
    },
    {
      "channel": 4,
      "note": 53,
      "start": 17.7746,
      "duration": 0.0971,
      "velocity": 77,
      "chip": "ym2612"
    },
    {
      "channel": 5,
      "note": 55,
      "start": 17.7788,
      "duration": 0.1154,
      "velocity": 112,
      "chip": "ym2612"
    },
    {
      "channel": 0,
      "note": 92,
      "start": 17.8918,
      "duration": 0.0981,
      "velocity": 79,
      "chip": "ym2612"
    },
    {
      "channel": 4,
      "note": 51,
      "start": 17.8938,
      "duration": 0.1963,
      "velocity": 77,
      "chip": "ym2612"
    },
    {
      "channel": 5,
      "note": 59,
      "start": 17.8979,
      "duration": 0.1143,
      "velocity": 126,
      "chip": "ym2612"
    },
    {
      "channel": 0,
      "note": 94,
      "start": 18.011,
      "duration": 0.1001,
      "velocity": 79,
      "chip": "ym2612"
    },
    {
      "channel": 5,
      "note": 16,
      "start": 18.0161,
      "duration": 0.1189,
      "velocity": 112,
      "chip": "ym2612"
    },
    {
      "channel": 0,
      "note": 96,
      "start": 18.1303,
      "duration": 0.098,
      "velocity": 79,
      "chip": "ym2612"
    },
    {
      "channel": 1,
      "note": 72,
      "start": 18.1317,
      "duration": 0.8914,
      "velocity": 63,
      "chip": "ym2612"
    },
    {
      "channel": 3,
      "note": 63,
      "start": 18.1331,
      "duration": 0.8903,
      "velocity": 63,
      "chip": "ym2612"
    },
    {
      "channel": 4,
      "note": 53,
      "start": 18.1346,
      "duration": 0.1938,
      "velocity": 77,
      "chip": "ym2612"
    },
    {
      "channel": 5,
      "note": 59,
      "start": 18.1388,
      "duration": 0.35,
      "velocity": 112,
      "chip": "ym2612"
    },
    {
      "channel": 0,
      "note": 95,
      "start": 18.2493,
      "duration": 0.0981,
      "velocity": 79,
      "chip": "ym2612"
    },
    {
      "channel": 0,
      "note": 91,
      "start": 18.3685,
      "duration": 0.2968,
      "velocity": 79,
      "chip": "ym2612"
    },
    {
      "channel": 4,
      "note": 55,
      "start": 18.4883,
      "duration": 0.0983,
      "velocity": 77,
      "chip": "ym2612"
    },
    {
      "channel": 5,
      "note": 51,
      "start": 18.4925,
      "duration": 0.2358,
      "velocity": 112,
      "chip": "ym2612"
    },
    {
      "channel": 0,
      "note": 86,
      "start": 18.7261,
      "duration": 0.0996,
      "velocity": 79,
      "chip": "ym2612"
    },
    {
      "channel": 4,
      "note": 55,
      "start": 18.728,
      "duration": 0.0986,
      "velocity": 77,
      "chip": "ym2612"
    },
    {
      "channel": 5,
      "note": 55,
      "start": 18.7322,
      "duration": 0.1154,
      "velocity": 112,
      "chip": "ym2612"
    },
    {
      "channel": 0,
      "note": 91,
      "start": 18.8453,
      "duration": 0.0981,
      "velocity": 79,
      "chip": "ym2612"
    },
    {
      "channel": 4,
      "note": 53,
      "start": 18.8473,
      "duration": 0.1962,
      "velocity": 77,
      "chip": "ym2612"
    },
    {
      "channel": 5,
      "note": 59,
      "start": 18.8513,
      "duration": 0.1159,
      "velocity": 126,
      "chip": "ym2612"
    },
    {
      "channel": 0,
      "note": 95,
      "start": 18.9659,
      "duration": 0.0966,
      "velocity": 79,
      "chip": "ym2612"
    },
    {
      "channel": 5,
      "note": 16,
      "start": 18.971,
      "duration": 0.1174,
      "velocity": 112,
      "chip": "ym2612"
    },
    {
      "channel": 0,
      "note": 98,
      "start": 19.0836,
      "duration": 0.5152,
      "velocity": 79,
      "chip": "ym2612"
    },
    {
      "channel": 1,
      "note": 71,
      "start": 19.0851,
      "duration": 0.8914,
      "velocity": 63,
      "chip": "ym2612"
    },
    {
      "channel": 3,
      "note": 62,
      "start": 19.0865,
      "duration": 0.8904,
      "velocity": 63,
      "chip": "ym2612"
    },
    {
      "channel": 4,
      "note": 55,
      "start": 19.088,
      "duration": 0.1939,
      "velocity": 77,
      "chip": "ym2612"
    },
    {
      "channel": 5,
      "note": 59,
      "start": 19.0922,
      "duration": 0.35,
      "velocity": 112,
      "chip": "ym2612"
    },
    {
      "channel": 4,
      "note": 58,
      "start": 19.4418,
      "duration": 0.0985,
      "velocity": 77,
      "chip": "ym2612"
    },
    {
      "channel": 5,
      "note": 51,
      "start": 19.446,
      "duration": 0.2361,
      "velocity": 112,
      "chip": "ym2612"
    },
    {
      "channel": 0,
      "note": 100,
      "start": 19.6797,
      "duration": 0.0979,
      "velocity": 79,
      "chip": "ym2612"
    },
    {
      "channel": 4,
      "note": 58,
      "start": 19.6817,
      "duration": 0.0968,
      "velocity": 77,
      "chip": "ym2612"
    },
    {
      "channel": 5,
      "note": 55,
      "start": 19.6859,
      "duration": 0.1151,
      "velocity": 112,
      "chip": "ym2612"
    },
    {
      "channel": 0,
      "note": 100,
      "start": 19.7987,
      "duration": 0.0981,
      "velocity": 79,
      "chip": "ym2612"
    },
    {
      "channel": 4,
      "note": 56,
      "start": 19.8007,
      "duration": 0.1963,
      "velocity": 77,
      "chip": "ym2612"
    },
    {
      "channel": 5,
      "note": 59,
      "start": 19.8048,
      "duration": 0.1143,
      "velocity": 126,
      "chip": "ym2612"
    },
    {
      "channel": 0,
      "note": 101,
      "start": 19.9179,
      "duration": 0.0981,
      "velocity": 79,
      "chip": "ym2612"
    },
    {
      "channel": 5,
      "note": 16,
      "start": 19.9229,
      "duration": 0.1189,
      "velocity": 112,
      "chip": "ym2612"
    },
    {
      "channel": 0,
      "note": 100,
      "start": 20.037,
      "duration": 0.0982,
      "velocity": 79,
      "chip": "ym2612"
    },
    {
      "channel": 1,
      "note": 72,
      "start": 20.0385,
      "duration": 0.5141,
      "velocity": 63,
      "chip": "ym2612"
    },
    {
      "channel": 3,
      "note": 64,
      "start": 20.0399,
      "duration": 0.513,
      "velocity": 63,
      "chip": "ym2612"
    },
    {
      "channel": 4,
      "note": 58,
      "start": 20.0414,
      "duration": 0.1958,
      "velocity": 77,
      "chip": "ym2612"
    },
    {
      "channel": 5,
      "note": 59,
      "start": 20.0456,
      "duration": 0.35,
      "velocity": 112,
      "chip": "ym2612"
    },
    {
      "channel": 0,
      "note": 101,
      "start": 20.1562,
      "duration": 0.0981,
      "velocity": 79,
      "chip": "ym2612"
    },
    {
      "channel": 0,
      "note": 96,
      "start": 20.2754,
      "duration": 0.2967,
      "velocity": 79,
      "chip": "ym2612"
    },
    {
      "channel": 4,
      "note": 53,
      "start": 20.3952,
      "duration": 0.0983,
      "velocity": 77,
      "chip": "ym2612"
    },
    {
      "channel": 5,
      "note": 51,
      "start": 20.3995,
      "duration": 0.2381,
      "velocity": 112,
      "chip": "ym2612"
    },
    {
      "channel": 0,
      "note": 104,
      "start": 20.6329,
      "duration": 0.0981,
      "velocity": 79,
      "chip": "ym2612"
    },
    {
      "channel": 1,
      "note": 72,
      "start": 20.6343,
      "duration": 0.0971,
      "velocity": 63,
      "chip": "ym2612"
    },
    {
      "channel": 3,
      "note": 63,
      "start": 20.6358,
      "duration": 0.096,
      "velocity": 63,
      "chip": "ym2612"
    },
    {
      "channel": 4,
      "note": 53,
      "start": 20.6372,
      "duration": 0.1192,
      "velocity": 77,
      "chip": "ym2612"
    },
    {
      "channel": 5,
      "note": 56,
      "start": 20.6413,
      "duration": 0.1156,
      "velocity": 126,
      "chip": "ym2612"
    },
    {
      "channel": 0,
      "note": 96,
      "start": 20.7521,
      "duration": 0.0981,
      "velocity": 79,
      "chip": "ym2612"
    },
    {
      "channel": 1,
      "note": 63,
      "start": 20.7536,
      "duration": 0.0969,
      "velocity": 63,
      "chip": "ym2612"
    },
    {
      "channel": 3,
      "note": 63,
      "start": 20.7551,
      "duration": 0.0959,
      "velocity": 63,
      "chip": "ym2612"
    },
    {
      "channel": 4,
      "note": 51,
      "start": 20.7565,
      "duration": 0.1947,
      "velocity": 77,
      "chip": "ym2612"
    },
    {
      "channel": 5,
      "note": 16,
      "start": 20.7605,
      "duration": 0.1144,
      "velocity": 126,
      "chip": "ym2612"
    },
    {
      "channel": 0,
      "note": 101,
      "start": 20.8713,
      "duration": 0.0981,
      "velocity": 79,
      "chip": "ym2612"
    },
    {
      "channel": 1,
      "note": 68,
      "start": 20.8728,
      "duration": 0.097,
      "velocity": 63,
      "chip": "ym2612"
    },
    {
      "channel": 3,
      "note": 68,
      "start": 20.8743,
      "duration": 0.0958,
      "velocity": 63,
      "chip": "ym2612"
    },
    {
      "channel": 5,
      "note": 16,
      "start": 20.8786,
      "duration": 0.1173,
      "velocity": 126,
      "chip": "ym2612"
    },
    {
      "channel": 0,
      "note": 104,
      "start": 20.9906,
      "duration": 0.0992,
      "velocity": 79,
      "chip": "ym2612"
    },
    {
      "channel": 1,
      "note": 72,
      "start": 20.9923,
      "duration": 0.2952,
      "velocity": 63,
      "chip": "ym2612"
    },
    {
      "channel": 3,
      "note": 72,
      "start": 20.9939,
      "duration": 0.2939,
      "velocity": 63,
      "chip": "ym2612"
    },
    {
      "channel": 4,
      "note": 53,
      "start": 20.9955,
      "duration": 0.1932,
      "velocity": 77,
      "chip": "ym2612"
    },
    {
      "channel": 5,
      "note": 16,
      "start": 21.0,
      "duration": 0.2317,
      "velocity": 112,
      "chip": "ym2612"
    },
    {
      "channel": 0,
      "note": 103,
      "start": 21.1097,
      "duration": 0.098,
      "velocity": 79,
      "chip": "ym2612"
    },
    {
      "channel": 0,
      "note": 104,
      "start": 21.2303,
      "duration": 0.0966,
      "velocity": 79,
      "chip": "ym2612"
    },
    {
      "channel": 5,
      "note": 55,
      "start": 21.2355,
      "duration": 0.1173,
      "velocity": 112,
      "chip": "ym2612"
    },
    {
      "channel": 0,
      "note": 106,
      "start": 21.348,
      "duration": 0.2993,
      "velocity": 79,
      "chip": "ym2612"
    },
    {
      "channel": 1,
      "note": 72,
      "start": 21.3495,
      "duration": 0.5141,
      "velocity": 63,
      "chip": "ym2612"
    },
    {
      "channel": 3,
      "note": 67,
      "start": 21.3509,
      "duration": 0.513,
      "velocity": 63,
      "chip": "ym2612"
    },
    {
      "channel": 4,
      "note": 58,
      "start": 21.3523,
      "duration": 0.0946,
      "velocity": 77,
      "chip": "ym2612"
    },
    {
      "channel": 5,
      "note": 59,
      "start": 21.3566,
      "duration": 0.2309,
      "velocity": 112,
      "chip": "ym2612"
    },
    {
      "channel": 4,
      "note": 58,
      "start": 21.587,
      "duration": 0.0983,
      "velocity": 77,
      "chip": "ym2612"
    },
    {
      "channel": 5,
      "note": 55,
      "start": 21.5913,
      "duration": 0.1166,
      "velocity": 112,
      "chip": "ym2612"
    },
    {
      "channel": 0,
      "note": 100,
      "start": 21.7056,
      "duration": 0.0983,
      "velocity": 79,
      "chip": "ym2612"
    },
    {
      "channel": 4,
      "note": 58,
      "start": 21.7075,
      "duration": 0.0973,
      "velocity": 77,
      "chip": "ym2612"
    },
    {
      "channel": 5,
      "note": 37,
      "start": 21.7117,
      "duration": 0.1154,
      "velocity": 126,
      "chip": "ym2612"
    },
    {
      "channel": 0,
      "note": 106,
      "start": 21.8247,
      "duration": 0.0981,
      "velocity": 79,
      "chip": "ym2612"
    },
    {
      "channel": 4,
      "note": 55,
      "start": 21.8267,
      "duration": 0.097,
      "velocity": 77,
      "chip": "ym2612"
    },
    {
      "channel": 5,
      "note": 16,
      "start": 21.831,
      "duration": 0.118,
      "velocity": 112,
      "chip": "ym2612"
    },
    {
      "channel": 0,
      "note": 103,
      "start": 21.9441,
      "duration": 0.0978,
      "velocity": 79,
      "chip": "ym2612"
    },
    {
      "channel": 1,
      "note": 72,
      "start": 21.9456,
      "duration": 0.8713,
      "velocity": 63,
      "chip": "ym2612"
    },
    {
      "channel": 3,
      "note": 67,
      "start": 21.9471,
      "duration": 0.8702,
      "velocity": 63,
      "chip": "ym2612"
    },
    {
      "channel": 4,
      "note": 58,
      "start": 21.9486,
      "duration": 0.0943,
      "velocity": 77,
      "chip": "ym2612"
    },
    {
      "channel": 5,
      "note": 59,
      "start": 21.9528,
      "duration": 0.2309,
      "velocity": 112,
      "chip": "ym2612"
    },
    {
      "channel": 0,
      "note": 104,
      "start": 22.0631,
      "duration": 0.0981,
      "velocity": 79,
      "chip": "ym2612"
    },
    {
      "channel": 4,
      "note": 60,
      "start": 22.0651,
      "duration": 0.097,
      "velocity": 77,
      "chip": "ym2612"
    },
    {
      "channel": 0,
      "note": 101,
      "start": 22.1822,
      "duration": 0.0981,
      "velocity": 79,
      "chip": "ym2612"
    },
    {
      "channel": 5,
      "note": 56,
      "start": 22.1875,
      "duration": 0.1174,
      "velocity": 112,
      "chip": "ym2612"
    },
    {
      "channel": 0,
      "note": 96,
      "start": 22.3015,
      "duration": 0.2967,
      "velocity": 79,
      "chip": "ym2612"
    },
    {
      "channel": 4,
      "note": 48,
      "start": 22.3045,
      "duration": 0.0959,
      "velocity": 77,
      "chip": "ym2612"
    },
    {
      "channel": 5,
      "note": 59,
      "start": 22.3087,
      "duration": 0.232,
      "velocity": 112,
      "chip": "ym2612"
    },
    {
      "channel": 4,
      "note": 48,
      "start": 22.5404,
      "duration": 0.1002,
      "velocity": 77,
      "chip": "ym2612"
    },
    {
      "channel": 5,
      "note": 55,
      "start": 22.5446,
      "duration": 0.1166,
      "velocity": 112,
      "chip": "ym2612"
    },
    {
      "channel": 0,
      "note": 92,
      "start": 22.659,
      "duration": 0.0981,
      "velocity": 79,
      "chip": "ym2612"
    },
    {
      "channel": 4,
      "note": 48,
      "start": 22.6609,
      "duration": 0.0971,
      "velocity": 77,
      "chip": "ym2612"
    },
    {
      "channel": 5,
      "note": 37,
      "start": 22.6651,
      "duration": 0.1178,
      "velocity": 126,
      "chip": "ym2612"
    },
    {
      "channel": 0,
      "note": 94,
      "start": 22.7805,
      "duration": 0.0958,
      "velocity": 79,
      "chip": "ym2612"
    },
    {
      "channel": 4,
      "note": 53,
      "start": 22.7824,
      "duration": 0.0947,
      "velocity": 77,
      "chip": "ym2612"
    },
    {
      "channel": 5,
      "note": 16,
      "start": 22.7866,
      "duration": 0.1155,
      "velocity": 112,
      "chip": "ym2612"
    },
    {
      "channel": 0,
      "note": 96,
      "start": 22.8974,
      "duration": 0.098,
      "velocity": 79,
      "chip": "ym2612"
    },
    {
      "channel": 1,
      "note": 72,
      "start": 22.8988,
      "duration": 0.2955,
      "velocity": 63,
      "chip": "ym2612"
    },
    {
      "channel": 3,
      "note": 68,
      "start": 22.9003,
      "duration": 0.2944,
      "velocity": 63,
      "chip": "ym2612"
    },
    {
      "channel": 4,
      "note": 56,
      "start": 22.9018,
      "duration": 0.0946,
      "velocity": 77,
      "chip": "ym2612"
    },
    {
      "channel": 5,
      "note": 59,
      "start": 22.906,
      "duration": 0.2309,
      "velocity": 112,
      "chip": "ym2612"
    },
    {
      "channel": 0,
      "note": 97,
      "start": 23.0165,
      "duration": 0.0981,
      "velocity": 79,
      "chip": "ym2612"
    },
    {
      "channel": 4,
      "note": 58,
      "start": 23.0185,
      "duration": 0.1969,
      "velocity": 77,
      "chip": "ym2612"
    },
    {
      "channel": 0,
      "note": 99,
      "start": 23.1357,
      "duration": 0.0981,
      "velocity": 79,
      "chip": "ym2612"
    },
    {
      "channel": 5,
      "note": 55,
      "start": 23.1407,
      "duration": 0.119,
      "velocity": 112,
      "chip": "ym2612"
    },
    {
      "channel": 0,
      "note": 97,
      "start": 23.2549,
      "duration": 0.5174,
      "velocity": 79,
      "chip": "ym2612"
    },
    {
      "channel": 1,
      "note": 73,
      "start": 23.2563,
      "duration": 0.5163,
      "velocity": 63,
      "chip": "ym2612"
    },
    {
      "channel": 3,
      "note": 70,
      "start": 23.2578,
      "duration": 0.5151,
      "velocity": 63,
      "chip": "ym2612"
    },
    {
      "channel": 4,
      "note": 58,
      "start": 23.2593,
      "duration": 0.1938,
      "velocity": 77,
      "chip": "ym2612"
    },
    {
      "channel": 5,
      "note": 59,
      "start": 23.2633,
      "duration": 0.2323,
      "velocity": 126,
      "chip": "ym2612"
    },
    {
      "channel": 4,
      "note": 56,
      "start": 23.4953,
      "duration": 0.0969,
      "velocity": 77,
      "chip": "ym2612"
    },
    {
      "channel": 5,
      "note": 2,
      "start": 23.4995,
      "duration": 0.114,
      "velocity": 112,
      "chip": "ym2612"
    },
    {
      "channel": 4,
      "note": 53,
      "start": 23.6131,
      "duration": 0.1975,
      "velocity": 77,
      "chip": "ym2612"
    },
    {
      "channel": 5,
      "note": 59,
      "start": 23.6172,
      "duration": 0.1142,
      "velocity": 126,
      "chip": "ym2612"
    },
    {
      "channel": 5,
      "note": 16,
      "start": 23.7352,
      "duration": 0.1202,
      "velocity": 112,
      "chip": "ym2612"
    },
    {
      "channel": 0,
      "note": 96,
      "start": 23.8507,
      "duration": 0.0981,
      "velocity": 79,
      "chip": "ym2612"
    },
    {
      "channel": 1,
      "note": 72,
      "start": 23.8522,
      "duration": 0.2956,
      "velocity": 63,
      "chip": "ym2612"
    },
    {
      "channel": 3,
      "note": 68,
      "start": 23.8536,
      "duration": 0.2945,
      "velocity": 63,
      "chip": "ym2612"
    },
    {
      "channel": 4,
      "note": 56,
      "start": 23.8551,
      "duration": 0.0946,
      "velocity": 77,
      "chip": "ym2612"
    },
    {
      "channel": 5,
      "note": 59,
      "start": 23.8593,
      "duration": 0.231,
      "velocity": 112,
      "chip": "ym2612"
    },
    {
      "channel": 0,
      "note": 94,
      "start": 23.9699,
      "duration": 0.0983,
      "velocity": 79,
      "chip": "ym2612"
    },
    {
      "channel": 4,
      "note": 55,
      "start": 23.9719,
      "duration": 0.1963,
      "velocity": 77,
      "chip": "ym2612"
    },
    {
      "channel": 0,
      "note": 96,
      "start": 24.0891,
      "duration": 0.0981,
      "velocity": 79,
      "chip": "ym2612"
    },
    {
      "channel": 5,
      "note": 55,
      "start": 24.0941,
      "duration": 0.1191,
      "velocity": 112,
      "chip": "ym2612"
    },
    {
      "channel": 0,
      "note": 94,
      "start": 24.2084,
      "duration": 0.5151,
      "velocity": 79,
      "chip": "ym2612"
    },
    {
      "channel": 1,
      "note": 70,
      "start": 24.2098,
      "duration": 0.514,
      "velocity": 63,
      "chip": "ym2612"
    },
    {
      "channel": 3,
      "note": 67,
      "start": 24.2114,
      "duration": 0.5129,
      "velocity": 63,
      "chip": "ym2612"
    },
    {
      "channel": 4,
      "note": 55,
      "start": 24.2128,
      "duration": 0.1937,
      "velocity": 77,
      "chip": "ym2612"
    },
    {
      "channel": 5,
      "note": 59,
      "start": 24.2169,
      "duration": 0.2308,
      "velocity": 126,
      "chip": "ym2612"
    },
    {
      "channel": 4,
      "note": 56,
      "start": 24.4473,
      "duration": 0.0982,
      "velocity": 77,
      "chip": "ym2612"
    },
    {
      "channel": 5,
      "note": 5,
      "start": 24.4515,
      "duration": 0.1154,
      "velocity": 112,
      "chip": "ym2612"
    },
    {
      "channel": 4,
      "note": 48,
      "start": 24.5665,
      "duration": 0.1989,
      "velocity": 77,
      "chip": "ym2612"
    },
    {
      "channel": 5,
      "note": 59,
      "start": 24.5705,
      "duration": 0.1143,
      "velocity": 126,
      "chip": "ym2612"
    },
    {
      "channel": 5,
      "note": 16,
      "start": 24.6887,
      "duration": 0.1209,
      "velocity": 112,
      "chip": "ym2612"
    },
    {
      "channel": 0,
      "note": 96,
      "start": 24.8043,
      "duration": 0.5956,
      "velocity": 79,
      "chip": "ym2612"
    },
    {
      "channel": 1,
      "note": 72,
      "start": 24.8059,
      "duration": 0.8912,
      "velocity": 63,
      "chip": "ym2612"
    },
    {
      "channel": 3,
      "note": 68,
      "start": 24.8076,
      "duration": 0.8899,
      "velocity": 63,
      "chip": "ym2612"
    },
    {
      "channel": 4,
      "note": 56,
      "start": 24.8091,
      "duration": 0.1933,
      "velocity": 77,
      "chip": "ym2612"
    },
    {
      "channel": 5,
      "note": 59,
      "start": 24.8136,
      "duration": 0.3492,
      "velocity": 112,
      "chip": "ym2612"
    },
    {
      "channel": 4,
      "note": 58,
      "start": 25.1624,
      "duration": 0.0982,
      "velocity": 77,
      "chip": "ym2612"
    },
    {
      "channel": 5,
      "note": 51,
      "start": 25.1666,
      "duration": 0.2357,
      "velocity": 112,
      "chip": "ym2612"
    },
    {
      "channel": 0,
      "note": 96,
      "start": 25.4,
      "duration": 0.0981,
      "velocity": 79,
      "chip": "ym2612"
    },
    {
      "channel": 4,
      "note": 58,
      "start": 25.402,
      "duration": 0.0971,
      "velocity": 77,
      "chip": "ym2612"
    },
    {
      "channel": 5,
      "note": 55,
      "start": 25.4061,
      "duration": 0.1154,
      "velocity": 112,
      "chip": "ym2612"
    },
    {
      "channel": 0,
      "note": 91,
      "start": 25.5192,
      "duration": 0.0992,
      "velocity": 79,
      "chip": "ym2612"
    },
    {
      "channel": 4,
      "note": 55,
      "start": 25.5212,
      "duration": 0.1963,
      "velocity": 77,
      "chip": "ym2612"
    },
    {
      "channel": 5,
      "note": 59,
      "start": 25.5252,
      "duration": 0.1143,
      "velocity": 126,
      "chip": "ym2612"
    },
    {
      "channel": 0,
      "note": 88,
      "start": 25.6384,
      "duration": 0.0981,
      "velocity": 79,
      "chip": "ym2612"
    },
    {
      "channel": 5,
      "note": 16,
      "start": 25.6434,
      "duration": 0.12,
      "velocity": 112,
      "chip": "ym2612"
    },
    {
      "channel": 0,
      "note": 84,
      "start": 25.7586,
      "duration": 0.0971,
      "velocity": 79,
      "chip": "ym2612"
    },
    {
      "channel": 1,
      "note": 67,
      "start": 25.76,
      "duration": 0.8905,
      "velocity": 63,
      "chip": "ym2612"
    },
    {
      "channel": 3,
      "note": 64,
      "start": 25.7614,
      "duration": 0.8895,
      "velocity": 63,
      "chip": "ym2612"
    },
    {
      "channel": 4,
      "note": 58,
      "start": 25.7629,
      "duration": 0.0937,
      "velocity": 77,
      "chip": "ym2612"
    },
    {
      "channel": 5,
      "note": 59,
      "start": 25.7672,
      "duration": 0.3502,
      "velocity": 112,
      "chip": "ym2612"
    },
    {
      "channel": 0,
      "note": 89,
      "start": 25.8768,
      "duration": 0.0981,
      "velocity": 79,
      "chip": "ym2612"
    },
    {
      "channel": 4,
      "note": 60,
      "start": 25.8787,
      "duration": 0.0971,
      "velocity": 77,
      "chip": "ym2612"
    },
    {
      "channel": 0,
      "note": 88,
      "start": 25.9959,
      "duration": 0.0981,
      "velocity": 79,
      "chip": "ym2612"
    },
    {
      "channel": 0,
      "note": 89,
      "start": 26.1151,
      "duration": 0.0982,
      "velocity": 79,
      "chip": "ym2612"
    },
    {
      "channel": 4,
      "note": 48,
      "start": 26.117,
      "duration": 0.0971,
      "velocity": 77,
      "chip": "ym2612"
    },
    {
      "channel": 5,
      "note": 51,
      "start": 26.1212,
      "duration": 0.2346,
      "velocity": 112,
      "chip": "ym2612"
    },
    {
      "channel": 0,
      "note": 92,
      "start": 26.2343,
      "duration": 0.0981,
      "velocity": 79,
      "chip": "ym2612"
    },
    {
      "channel": 0,
      "note": 96,
      "start": 26.3535,
      "duration": 0.0981,
      "velocity": 79,
      "chip": "ym2612"
    },
    {
      "channel": 4,
      "note": 48,
      "start": 26.3554,
      "duration": 0.097,
      "velocity": 77,
      "chip": "ym2612"
    },
    {
      "channel": 5,
      "note": 55,
      "start": 26.3597,
      "duration": 0.1154,
      "velocity": 112,
      "chip": "ym2612"
    },
    {
      "channel": 0,
      "note": 92,
      "start": 26.4728,
      "duration": 0.098,
      "velocity": 79,
      "chip": "ym2612"
    },
    {
      "channel": 4,
      "note": 48,
      "start": 26.4747,
      "duration": 0.1962,
      "velocity": 77,
      "chip": "ym2612"
    },
    {
      "channel": 5,
      "note": 59,
      "start": 26.4788,
      "duration": 0.1142,
      "velocity": 126,
      "chip": "ym2612"
    },
    {
      "channel": 0,
      "note": 94,
      "start": 26.5918,
      "duration": 0.0981,
      "velocity": 79,
      "chip": "ym2612"
    },
    {
      "channel": 5,
      "note": 18,
      "start": 26.5969,
      "duration": 0.1188,
      "velocity": 112,
      "chip": "ym2612"
    },
    {
      "channel": 0,
      "note": 96,
      "start": 26.711,
      "duration": 0.2967,
      "velocity": 79,
      "chip": "ym2612"
    },
    {
      "channel": 1,
      "note": 68,
      "start": 26.7124,
      "duration": 0.2957,
      "velocity": 63,
      "chip": "ym2612"
    },
    {
      "channel": 3,
      "note": 65,
      "start": 26.714,
      "duration": 0.2945,
      "velocity": 63,
      "chip": "ym2612"
    },
    {
      "channel": 4,
      "note": 60,
      "start": 26.7154,
      "duration": 0.1939,
      "velocity": 77,
      "chip": "ym2612"
    },
    {
      "channel": 5,
      "note": 59,
      "start": 26.7196,
      "duration": 0.3536,
      "velocity": 112,
      "chip": "ym2612"
    },
    {
      "channel": 0,
      "note": 95,
      "start": 27.0685,
      "duration": 0.2968,
      "velocity": 79,
      "chip": "ym2612"
    },
    {
      "channel": 1,
      "note": 71,
      "start": 27.07,
      "duration": 0.2957,
      "velocity": 63,
      "chip": "ym2612"
    },
    {
      "channel": 3,
      "note": 67,
      "start": 27.0714,
      "duration": 0.2946,
      "velocity": 63,
      "chip": "ym2612"
    },
    {
      "channel": 4,
      "note": 55,
      "start": 27.0728,
      "duration": 0.0967,
      "velocity": 77,
      "chip": "ym2612"
    },
    {
      "channel": 5,
      "note": 51,
      "start": 27.077,
      "duration": 0.2331,
      "velocity": 112,
      "chip": "ym2612"
    },
    {
      "channel": 4,
      "note": 55,
      "start": 27.3098,
      "duration": 0.0961,
      "velocity": 77,
      "chip": "ym2612"
    },
    {
      "channel": 5,
      "note": 55,
      "start": 27.314,
      "duration": 0.1168,
      "velocity": 112,
      "chip": "ym2612"
    },
    {
      "channel": 0,
      "note": 86,
      "start": 27.4261,
      "duration": 0.1974,
      "velocity": 79,
      "chip": "ym2612"
    },
    {
      "channel": 1,
      "note": 71,
      "start": 27.4275,
      "duration": 0.1963,
      "velocity": 63,
      "chip": "ym2612"
    },
    {
      "channel": 3,
      "note": 67,
      "start": 27.4289,
      "duration": 0.1953,
      "velocity": 63,
      "chip": "ym2612"
    },
    {
      "channel": 4,
      "note": 53,
      "start": 27.4304,
      "duration": 0.1941,
      "velocity": 77,
      "chip": "ym2612"
    },
    {
      "channel": 5,
      "note": 59,
      "start": 27.4345,
      "duration": 0.1107,
      "velocity": 126,
      "chip": "ym2612"
    },
    {
      "channel": 5,
      "note": 16,
      "start": 27.549,
      "duration": 0.1202,
      "velocity": 112,
      "chip": "ym2612"
    },
    {
      "channel": 0,
      "note": 89,
      "start": 27.6644,
      "duration": 0.0981,
      "velocity": 79,
      "chip": "ym2612"
    },
    {
      "channel": 1,
      "note": 71,
      "start": 27.6659,
      "duration": 0.097,
      "velocity": 63,
      "chip": "ym2612"
    },
    {
      "channel": 3,
      "note": 67,
      "start": 27.6673,
      "duration": 0.0959,
      "velocity": 63,
      "chip": "ym2612"
    },
    {
      "channel": 4,
      "note": 55,
      "start": 27.6688,
      "duration": 0.1939,
      "velocity": 77,
      "chip": "ym2612"
    },
    {
      "channel": 5,
      "note": 59,
      "start": 27.673,
      "duration": 0.3522,
      "velocity": 112,
      "chip": "ym2612"
    },
    {
      "channel": 0,
      "note": 88,
      "start": 27.7836,
      "duration": 0.099,
      "velocity": 79,
      "chip": "ym2612"
    },
    {
      "channel": 0,
      "note": 89,
      "start": 27.9027,
      "duration": 0.0982,
      "velocity": 79,
      "chip": "ym2612"
    },
    {
      "channel": 0,
      "note": 91,
      "start": 28.0229,
      "duration": 0.5143,
      "velocity": 79,
      "chip": "ym2612"
    },
    {
      "channel": 4,
      "note": 48,
      "start": 28.0248,
      "duration": 0.0961,
      "velocity": 77,
      "chip": "ym2612"
    },
    {
      "channel": 5,
      "note": 51,
      "start": 28.029,
      "duration": 0.1123,
      "velocity": 112,
      "chip": "ym2612"
    },
    {
      "channel": 5,
      "note": 59,
      "start": 28.1451,
      "duration": 0.1162,
      "velocity": 112,
      "chip": "ym2612"
    },
    {
      "channel": 4,
      "note": 48,
      "start": 28.2609,
      "duration": 0.0983,
      "velocity": 77,
      "chip": "ym2612"
    },
    {
      "channel": 5,
      "note": 37,
      "start": 28.2653,
      "duration": 0.1153,
      "velocity": 112,
      "chip": "ym2612"
    },
    {
      "channel": 4,
      "note": 48,
      "start": 28.3802,
      "duration": 0.1976,
      "velocity": 77,
      "chip": "ym2612"
    },
    {
      "channel": 5,
      "note": 37,
      "start": 28.3844,
      "duration": 0.1142,
      "velocity": 112,
      "chip": "ym2612"
    },
    {
      "channel": 5,
      "note": 33,
      "start": 28.5023,
      "duration": 0.121,
      "velocity": 112,
      "chip": "ym2612"
    },
    {
      "channel": 0,
      "note": 84,
      "start": 28.618,
      "duration": 0.6342,
      "velocity": 79,
      "chip": "ym2612"
    },
    {
      "channel": 1,
      "note": 72,
      "start": 28.6196,
      "duration": 0.8911,
      "velocity": 63,
      "chip": "ym2612"
    },
    {
      "channel": 3,
      "note": 64,
      "start": 28.6213,
      "duration": 0.8898,
      "velocity": 63,
      "chip": "ym2612"
    },
    {
      "channel": 4,
      "note": 48,
      "start": 28.6229,
      "duration": 0.1932,
      "velocity": 77,
      "chip": "ym2612"
    },
    {
      "channel": 5,
      "note": 33,
      "start": 28.6272,
      "duration": 0.3492,
      "velocity": 112,
      "chip": "ym2612"
    },
    {
      "channel": 4,
      "note": 49,
      "start": 28.976,
      "duration": 0.0983,
      "velocity": 77,
      "chip": "ym2612"
    },
    {
      "channel": 5,
      "note": 51,
      "start": 28.9803,
      "duration": 0.2345,
      "velocity": 112,
      "chip": "ym2612"
    },
    {
      "channel": 4,
      "note": 49,
      "start": 29.2144,
      "duration": 0.0983,
      "velocity": 77,
      "chip": "ym2612"
    },
    {
      "channel": 5,
      "note": 55,
      "start": 29.2186,
      "duration": 0.1166,
      "velocity": 112,
      "chip": "ym2612"
    },
    {
      "channel": 0,
      "note": 92,
      "start": 29.3329,
      "duration": 0.1974,
      "velocity": 79,
      "chip": "ym2612"
    },
    {
      "channel": 4,
      "note": 48,
      "start": 29.3349,
      "duration": 0.1964,
      "velocity": 77,
      "chip": "ym2612"
    },
    {
      "channel": 5,
      "note": 59,
      "start": 29.3389,
      "duration": 0.1131,
      "velocity": 126,
      "chip": "ym2612"
    },
    {
      "channel": 5,
      "note": 16,
      "start": 29.4558,
      "duration": 0.1218,
      "velocity": 112,
      "chip": "ym2612"
    },
    {
      "channel": 0,
      "note": 96,
      "start": 29.5729,
      "duration": 0.2953,
      "velocity": 79,
      "chip": "ym2612"
    },
    {
      "channel": 1,
      "note": 68,
      "start": 29.5744,
      "duration": 0.6316,
      "velocity": 63,
      "chip": "ym2612"
    },
    {
      "channel": 3,
      "note": 61,
      "start": 29.5758,
      "duration": 0.6305,
      "velocity": 63,
      "chip": "ym2612"
    },
    {
      "channel": 4,
      "note": 49,
      "start": 29.5773,
      "duration": 0.1922,
      "velocity": 77,
      "chip": "ym2612"
    },
    {
      "channel": 5,
      "note": 59,
      "start": 29.5815,
      "duration": 0.3496,
      "velocity": 112,
      "chip": "ym2612"
    },
    {
      "channel": 0,
      "note": 94,
      "start": 29.9288,
      "duration": 0.2968,
      "velocity": 79,
      "chip": "ym2612"
    },
    {
      "channel": 4,
      "note": 51,
      "start": 29.9308,
      "duration": 0.2957,
      "velocity": 77,
      "chip": "ym2612"
    },
    {
      "channel": 5,
      "note": 51,
      "start": 29.935,
      "duration": 0.2321,
      "velocity": 112,
      "chip": "ym2612"
    },
    {
      "channel": 5,
      "note": 55,
      "start": 30.1708,
      "duration": 0.1209,
      "velocity": 112,
      "chip": "ym2612"
    },
    {
      "channel": 0,
      "note": 91,
      "start": 30.287,
      "duration": 0.1968,
      "velocity": 79,
      "chip": "ym2612"
    },
    {
      "channel": 1,
      "note": 70,
      "start": 30.2885,
      "duration": 0.1957,
      "velocity": 63,
      "chip": "ym2612"
    },
    {
      "channel": 3,
      "note": 63,
      "start": 30.2899,
      "duration": 0.1946,
      "velocity": 63,
      "chip": "ym2612"
    },
    {
      "channel": 4,
      "note": 51,
      "start": 30.2913,
      "duration": 0.0939,
      "velocity": 77,
      "chip": "ym2612"
    },
    {
      "channel": 5,
      "note": 59,
      "start": 30.2954,
      "duration": 0.1111,
      "velocity": 126,
      "chip": "ym2612"
    },
    {
      "channel": 4,
      "note": 51,
      "start": 30.4061,
      "duration": 0.0983,
      "velocity": 77,
      "chip": "ym2612"
    },
    {
      "channel": 5,
      "note": 18,
      "start": 30.4104,
      "duration": 0.1191,
      "velocity": 112,
      "chip": "ym2612"
    },
    {
      "channel": 0,
      "note": 94,
      "start": 30.5247,
      "duration": 0.6343,
      "velocity": 79,
      "chip": "ym2612"
    },
    {
      "channel": 1,
      "note": 70,
      "start": 30.5262,
      "duration": 0.8926,
      "velocity": 63,
      "chip": "ym2612"
    },
    {
      "channel": 3,
      "note": 63,
      "start": 30.5276,
      "duration": 0.8915,
      "velocity": 63,
      "chip": "ym2612"
    },
    {
      "channel": 4,
      "note": 51,
      "start": 30.529,
      "duration": 0.1939,
      "velocity": 77,
      "chip": "ym2612"
    },
    {
      "channel": 5,
      "note": 59,
      "start": 30.5333,
      "duration": 0.3499,
      "velocity": 112,
      "chip": "ym2612"
    },
    {
      "channel": 4,
      "note": 49,
      "start": 30.8829,
      "duration": 0.0983,
      "velocity": 77,
      "chip": "ym2612"
    },
    {
      "channel": 5,
      "note": 51,
      "start": 30.8871,
      "duration": 0.2345,
      "velocity": 112,
      "chip": "ym2612"
    },
    {
      "channel": 4,
      "note": 49,
      "start": 31.1212,
      "duration": 0.0983,
      "velocity": 77,
      "chip": "ym2612"
    },
    {
      "channel": 5,
      "note": 56,
      "start": 31.1254,
      "duration": 0.1167,
      "velocity": 112,
      "chip": "ym2612"
    },
    {
      "channel": 0,
      "note": 96,
      "start": 31.2398,
      "duration": 0.0981,
      "velocity": 79,
      "chip": "ym2612"
    },
    {
      "channel": 4,
      "note": 48,
      "start": 31.2417,
      "duration": 0.1963,
      "velocity": 77,
      "chip": "ym2612"
    },
    {
      "channel": 5,
      "note": 59,
      "start": 31.2458,
      "duration": 0.1144,
      "velocity": 126,
      "chip": "ym2612"
    },
    {
      "channel": 0,
      "note": 97,
      "start": 31.359,
      "duration": 0.0981,
      "velocity": 79,
      "chip": "ym2612"
    },
    {
      "channel": 5,
      "note": 16,
      "start": 31.364,
      "duration": 0.1189,
      "velocity": 112,
      "chip": "ym2612"
    },
    {
      "channel": 0,
      "note": 96,
      "start": 31.4782,
      "duration": 0.2967,
      "velocity": 79,
      "chip": "ym2612"
    },
    {
      "channel": 1,
      "note": 68,
      "start": 31.4796,
      "duration": 0.6332,
      "velocity": 63,
      "chip": "ym2612"
    },
    {
      "channel": 3,
      "note": 61,
      "start": 31.4811,
      "duration": 0.6321,
      "velocity": 63,
      "chip": "ym2612"
    },
    {
      "channel": 4,
      "note": 49,
      "start": 31.4826,
      "duration": 0.1938,
      "velocity": 77,
      "chip": "ym2612"
    },
    {
      "channel": 5,
      "note": 59,
      "start": 31.4868,
      "duration": 0.2298,
      "velocity": 112,
      "chip": "ym2612"
    },
    {
      "channel": 5,
      "note": 55,
      "start": 31.7203,
      "duration": 0.2344,
      "velocity": 126,
      "chip": "ym2612"
    },
    {
      "channel": 0,
      "note": 94,
      "start": 31.8373,
      "duration": 0.2952,
      "velocity": 79,
      "chip": "ym2612"
    },
    {
      "channel": 4,
      "note": 51,
      "start": 31.8392,
      "duration": 0.2941,
      "velocity": 77,
      "chip": "ym2612"
    },
    {
      "channel": 5,
      "note": 5,
      "start": 31.9585,
      "duration": 0.1154,
      "velocity": 112,
      "chip": "ym2612"
    },
    {
      "channel": 5,
      "note": 59,
      "start": 32.0776,
      "duration": 0.2359,
      "velocity": 126,
      "chip": "ym2612"
    },
    {
      "channel": 0,
      "note": 99,
      "start": 32.1932,
      "duration": 0.1975,
      "velocity": 79,
      "chip": "ym2612"
    },
    {
      "channel": 1,
      "note": 70,
      "start": 32.1946,
      "duration": 0.1964,
      "velocity": 63,
      "chip": "ym2612"
    },
    {
      "channel": 3,
      "note": 63,
      "start": 32.1961,
      "duration": 0.1952,
      "velocity": 63,
      "chip": "ym2612"
    },
    {
      "channel": 4,
      "note": 51,
      "start": 32.1976,
      "duration": 0.0945,
      "velocity": 77,
      "chip": "ym2612"
    },
    {
      "channel": 4,
      "note": 51,
      "start": 32.313,
      "duration": 0.099,
      "velocity": 77,
      "chip": "ym2612"
    },
    {
      "channel": 5,
      "note": 2,
      "start": 32.3172,
      "duration": 0.1198,
      "velocity": 126,
      "chip": "ym2612"
    },
    {
      "channel": 0,
      "note": 94,
      "start": 32.4317,
      "duration": 0.098,
      "velocity": 79,
      "chip": "ym2612"
    },
    {
      "channel": 1,
      "note": 70,
      "start": 32.4334,
      "duration": 0.0967,
      "velocity": 63,
      "chip": "ym2612"
    },
    {
      "channel": 3,
      "note": 63,
      "start": 32.435,
      "duration": 0.0955,
      "velocity": 63,
      "chip": "ym2612"
    },
    {
      "channel": 4,
      "note": 58,
      "start": 32.4366,
      "duration": 0.1933,
      "velocity": 77,
      "chip": "ym2612"
    },
    {
      "channel": 5,
      "note": 16,
      "start": 32.4409,
      "duration": 0.1141,
      "velocity": 112,
      "chip": "ym2612"
    },
    {
      "channel": 0,
      "note": 92,
      "start": 32.5515,
      "duration": 0.0973,
      "velocity": 79,
      "chip": "ym2612"
    },
    {
      "channel": 1,
      "note": 68,
      "start": 32.5529,
      "duration": 0.0963,
      "velocity": 63,
      "chip": "ym2612"
    },
    {
      "channel": 3,
      "note": 65,
      "start": 32.5544,
      "duration": 0.0952,
      "velocity": 63,
      "chip": "ym2612"
    },
    {
      "channel": 5,
      "note": 59,
      "start": 32.5588,
      "duration": 0.1149,
      "velocity": 112,
      "chip": "ym2612"
    },
    {
      "channel": 0,
      "note": 91,
      "start": 32.6699,
      "duration": 0.0981,
      "velocity": 79,
      "chip": "ym2612"
    },
    {
      "channel": 1,
      "note": 67,
      "start": 32.6714,
      "duration": 0.097,
      "velocity": 63,
      "chip": "ym2612"
    },
    {
      "channel": 3,
      "note": 67,
      "start": 32.6728,
      "duration": 0.0959,
      "velocity": 63,
      "chip": "ym2612"
    },
    {
      "channel": 5,
      "note": 59,
      "start": 32.6775,
      "duration": 0.2345,
      "velocity": 126,
      "chip": "ym2612"
    },
    {
      "channel": 4,
      "note": 53,
      "start": 32.7904,
      "duration": 0.0976,
      "velocity": 77,
      "chip": "ym2612"
    },
    {
      "channel": 0,
      "note": 92,
      "start": 32.9083,
      "duration": 0.0981,
      "velocity": 79,
      "chip": "ym2612"
    },
    {
      "channel": 1,
      "note": 68,
      "start": 32.9098,
      "duration": 0.097,
      "velocity": 63,
      "chip": "ym2612"
    },
    {
      "channel": 3,
      "note": 65,
      "start": 32.9112,
      "duration": 0.0959,
      "velocity": 63,
      "chip": "ym2612"
    },
    {
      "channel": 5,
      "note": 2,
      "start": 32.9161,
      "duration": 0.116,
      "velocity": 112,
      "chip": "ym2612"
    },
    {
      "channel": 0,
      "note": 95,
      "start": 33.0274,
      "duration": 0.0982,
      "velocity": 79,
      "chip": "ym2612"
    },
    {
      "channel": 1,
      "note": 71,
      "start": 33.0289,
      "duration": 0.0971,
      "velocity": 63,
      "chip": "ym2612"
    },
    {
      "channel": 3,
      "note": 67,
      "start": 33.0303,
      "duration": 0.0959,
      "velocity": 63,
      "chip": "ym2612"
    },
    {
      "channel": 4,
      "note": 53,
      "start": 33.0317,
      "duration": 0.0949,
      "velocity": 77,
      "chip": "ym2612"
    },
    {
      "channel": 5,
      "note": 59,
      "start": 33.0359,
      "duration": 0.1155,
      "velocity": 112,
      "chip": "ym2612"
    },
    {
      "channel": 0,
      "note": 91,
      "start": 33.1467,
      "duration": 0.0981,
      "velocity": 79,
      "chip": "ym2612"
    },
    {
      "channel": 1,
      "note": 67,
      "start": 33.1481,
      "duration": 0.0969,
      "velocity": 63,
      "chip": "ym2612"
    },
    {
      "channel": 3,
      "note": 62,
      "start": 33.1495,
      "duration": 0.0959,
      "velocity": 63,
      "chip": "ym2612"
    },
    {
      "channel": 4,
      "note": 53,
      "start": 33.151,
      "duration": 0.1939,
      "velocity": 77,
      "chip": "ym2612"
    },
    {
      "channel": 5,
      "note": 59,
      "start": 33.1551,
      "duration": 0.2346,
      "velocity": 126,
      "chip": "ym2612"
    },
    {
      "channel": 0,
      "note": 95,
      "start": 33.385,
      "duration": 0.0981,
      "velocity": 79,
      "chip": "ym2612"
    },
    {
      "channel": 1,
      "note": 71,
      "start": 33.3864,
      "duration": 0.097,
      "velocity": 63,
      "chip": "ym2612"
    },
    {
      "channel": 3,
      "note": 67,
      "start": 33.3879,
      "duration": 0.0959,
      "velocity": 63,
      "chip": "ym2612"
    },
    {
      "channel": 4,
      "note": 53,
      "start": 33.3893,
      "duration": 0.1939,
      "velocity": 77,
      "chip": "ym2612"
    },
    {
      "channel": 5,
      "note": 5,
      "start": 33.3936,
      "duration": 0.1141,
      "velocity": 112,
      "chip": "ym2612"
    },
    {
      "channel": 0,
      "note": 96,
      "start": 33.5041,
      "duration": 0.0981,
      "velocity": 79,
      "chip": "ym2612"
    },
    {
      "channel": 1,
      "note": 72,
      "start": 33.5056,
      "duration": 0.0971,
      "velocity": 63,
      "chip": "ym2612"
    },
    {
      "channel": 3,
      "note": 68,
      "start": 33.507,
      "duration": 0.096,
      "velocity": 63,
      "chip": "ym2612"
    },
    {
      "channel": 5,
      "note": 59,
      "start": 33.5115,
      "duration": 0.1157,
      "velocity": 112,
      "chip": "ym2612"
    },
    {
      "channel": 0,
      "note": 89,
      "start": 33.6233,
      "duration": 0.0981,
      "velocity": 79,
      "chip": "ym2612"
    },
    {
      "channel": 1,
      "note": 68,
      "start": 33.6248,
      "duration": 0.097,
      "velocity": 63,
      "chip": "ym2612"
    },
    {
      "channel": 3,
      "note": 65,
      "start": 33.6263,
      "duration": 0.0959,
      "velocity": 63,
      "chip": "ym2612"
    },
    {
      "channel": 5,
      "note": 59,
      "start": 33.631,
      "duration": 0.2345,
      "velocity": 126,
      "chip": "ym2612"
    },
    {
      "channel": 4,
      "note": 53,
      "start": 33.7437,
      "duration": 0.0977,
      "velocity": 77,
      "chip": "ym2612"
    },
    {
      "channel": 0,
      "note": 96,
      "start": 33.8617,
      "duration": 0.0998,
      "velocity": 79,
      "chip": "ym2612"
    },
    {
      "channel": 1,
      "note": 72,
      "start": 33.8632,
      "duration": 0.0987,
      "velocity": 63,
      "chip": "ym2612"
    },
    {
      "channel": 3,
      "note": 68,
      "start": 33.8646,
      "duration": 0.0976,
      "velocity": 63,
      "chip": "ym2612"
    },
    {
      "channel": 5,
      "note": 2,
      "start": 33.8695,
      "duration": 0.1161,
      "velocity": 112,
      "chip": "ym2612"
    },
    {
      "channel": 0,
      "note": 98,
      "start": 33.9809,
      "duration": 0.0981,
      "velocity": 79,
      "chip": "ym2612"
    },
    {
      "channel": 1,
      "note": 71,
      "start": 33.9823,
      "duration": 0.0971,
      "velocity": 63,
      "chip": "ym2612"
    },
    {
      "channel": 3,
      "note": 67,
      "start": 33.9838,
      "duration": 0.0959,
      "velocity": 63,
      "chip": "ym2612"
    },
    {
      "channel": 4,
      "note": 53,
      "start": 33.9852,
      "duration": 0.095,
      "velocity": 77,
      "chip": "ym2612"
    },
    {
      "channel": 5,
      "note": 59,
      "start": 33.9894,
      "duration": 0.1171,
      "velocity": 112,
      "chip": "ym2612"
    },
    {
      "channel": 0,
      "note": 91,
      "start": 34.1017,
      "duration": 0.0964,
      "velocity": 79,
      "chip": "ym2612"
    },
    {
      "channel": 1,
      "note": 67,
      "start": 34.1032,
      "duration": 0.0954,
      "velocity": 63,
      "chip": "ym2612"
    },
    {
      "channel": 3,
      "note": 62,
      "start": 34.1046,
      "duration": 0.0944,
      "velocity": 63,
      "chip": "ym2612"
    },
    {
      "channel": 4,
      "note": 53,
      "start": 34.106,
      "duration": 0.1922,
      "velocity": 77,
      "chip": "ym2612"
    },
    {
      "channel": 5,
      "note": 59,
      "start": 34.1102,
      "duration": 0.2329,
      "velocity": 126,
      "chip": "ym2612"
    },
    {
      "channel": 0,
      "note": 98,
      "start": 34.3384,
      "duration": 0.0981,
      "velocity": 79,
      "chip": "ym2612"
    },
    {
      "channel": 1,
      "note": 71,
      "start": 34.3399,
      "duration": 0.097,
      "velocity": 63,
      "chip": "ym2612"
    },
    {
      "channel": 3,
      "note": 67,
      "start": 34.3413,
      "duration": 0.0959,
      "velocity": 63,
      "chip": "ym2612"
    },
    {
      "channel": 4,
      "note": 53,
      "start": 34.3427,
      "duration": 0.1942,
      "velocity": 77,
      "chip": "ym2612"
    },
    {
      "channel": 5,
      "note": 5,
      "start": 34.3471,
      "duration": 0.114,
      "velocity": 112,
      "chip": "ym2612"
    },
    {
      "channel": 0,
      "note": 96,
      "start": 34.4576,
      "duration": 0.0982,
      "velocity": 79,
      "chip": "ym2612"
    },
    {
      "channel": 1,
      "note": 72,
      "start": 34.459,
      "duration": 0.097,
      "velocity": 63,
      "chip": "ym2612"
    },
    {
      "channel": 3,
      "note": 68,
      "start": 34.4604,
      "duration": 0.096,
      "velocity": 63,
      "chip": "ym2612"
    },
    {
      "channel": 5,
      "note": 59,
      "start": 34.465,
      "duration": 0.1156,
      "velocity": 112,
      "chip": "ym2612"
    },
    {
      "channel": 0,
      "note": 89,
      "start": 34.5768,
      "duration": 0.0989,
      "velocity": 79,
      "chip": "ym2612"
    },
    {
      "channel": 1,
      "note": 68,
      "start": 34.5782,
      "duration": 0.0978,
      "velocity": 63,
      "chip": "ym2612"
    },
    {
      "channel": 3,
      "note": 65,
      "start": 34.5797,
      "duration": 0.0966,
      "velocity": 63,
      "chip": "ym2612"
    },
    {
      "channel": 5,
      "note": 59,
      "start": 34.5844,
      "duration": 0.2351,
      "velocity": 126,
      "chip": "ym2612"
    },
    {
      "channel": 4,
      "note": 53,
      "start": 34.6973,
      "duration": 0.0976,
      "velocity": 77,
      "chip": "ym2612"
    },
    {
      "channel": 0,
      "note": 96,
      "start": 34.8157,
      "duration": 0.0976,
      "velocity": 79,
      "chip": "ym2612"
    },
    {
      "channel": 1,
      "note": 72,
      "start": 34.8172,
      "duration": 0.0964,
      "velocity": 63,
      "chip": "ym2612"
    },
    {
      "channel": 3,
      "note": 68,
      "start": 34.8185,
      "duration": 0.0954,
      "velocity": 63,
      "chip": "ym2612"
    },
    {
      "channel": 5,
      "note": 2,
      "start": 34.8234,
      "duration": 0.1155,
      "velocity": 112,
      "chip": "ym2612"
    },
    {
      "channel": 0,
      "note": 98,
      "start": 34.9343,
      "duration": 0.0982,
      "velocity": 79,
      "chip": "ym2612"
    },
    {
      "channel": 1,
      "note": 71,
      "start": 34.9357,
      "duration": 0.0971,
      "velocity": 63,
      "chip": "ym2612"
    },
    {
      "channel": 3,
      "note": 67,
      "start": 34.9371,
      "duration": 0.096,
      "velocity": 63,
      "chip": "ym2612"
    },
    {
      "channel": 4,
      "note": 53,
      "start": 34.9385,
      "duration": 0.095,
      "velocity": 77,
      "chip": "ym2612"
    },
    {
      "channel": 5,
      "note": 59,
      "start": 34.9427,
      "duration": 0.1155,
      "velocity": 112,
      "chip": "ym2612"
    },
    {
      "channel": 0,
      "note": 91,
      "start": 35.0535,
      "duration": 0.0981,
      "velocity": 79,
      "chip": "ym2612"
    },
    {
      "channel": 1,
      "note": 67,
      "start": 35.0549,
      "duration": 0.097,
      "velocity": 63,
      "chip": "ym2612"
    },
    {
      "channel": 3,
      "note": 62,
      "start": 35.0563,
      "duration": 0.0959,
      "velocity": 63,
      "chip": "ym2612"
    },
    {
      "channel": 4,
      "note": 55,
      "start": 35.0578,
      "duration": 0.1939,
      "velocity": 77,
      "chip": "ym2612"
    },
    {
      "channel": 5,
      "note": 59,
      "start": 35.062,
      "duration": 0.2347,
      "velocity": 126,
      "chip": "ym2612"
    },
    {
      "channel": 0,
      "note": 98,
      "start": 35.2918,
      "duration": 0.0803,
      "velocity": 79,
      "chip": "ym2612"
    },
    {
      "channel": 1,
      "note": 71,
      "start": 35.2933,
      "duration": 0.0969,
      "velocity": 63,
      "chip": "ym2612"
    },
    {
      "channel": 3,
      "note": 67,
      "start": 35.2947,
      "duration": 0.0959,
      "velocity": 63,
      "chip": "ym2612"
    },
    {
      "channel": 4,
      "note": 55,
      "start": 35.2962,
      "duration": 0.1939,
      "velocity": 77,
      "chip": "ym2612"
    },
    {
      "channel": 5,
      "note": 2,
      "start": 35.3005,
      "duration": 0.1141,
      "velocity": 112,
      "chip": "ym2612"
    },
    {
      "channel": 0,
      "note": 100,
      "start": 35.411,
      "duration": 0.1577,
      "velocity": 79,
      "chip": "ym2612"
    },
    {
      "channel": 1,
      "note": 72,
      "start": 35.4124,
      "duration": 0.0969,
      "velocity": 63,
      "chip": "ym2612"
    },
    {
      "channel": 3,
      "note": 64,
      "start": 35.4139,
      "duration": 0.0958,
      "velocity": 63,
      "chip": "ym2612"
    },
    {
      "channel": 5,
      "note": 59,
      "start": 35.4183,
      "duration": 0.2358,
      "velocity": 126,
      "chip": "ym2612"
    },
    {
      "channel": 4,
      "note": 60,
      "start": 35.5313,
      "duration": 0.0978,
      "velocity": 77,
      "chip": "ym2612"
    },
    {
      "channel": 0,
      "note": 100,
      "start": 35.6493,
      "duration": 0.0783,
      "velocity": 79,
      "chip": "ym2612"
    },
    {
      "channel": 1,
      "note": 72,
      "start": 35.6508,
      "duration": 0.0969,
      "velocity": 63,
      "chip": "ym2612"
    },
    {
      "channel": 3,
      "note": 64,
      "start": 35.6522,
      "duration": 0.0959,
      "velocity": 63,
      "chip": "ym2612"
    },
    {
      "channel": 4,
      "note": 60,
      "start": 35.6537,
      "duration": 0.0948,
      "velocity": 77,
      "chip": "ym2612"
    },
    {
      "channel": 5,
      "note": 5,
      "start": 35.6577,
      "duration": 0.1155,
      "velocity": 126,
      "chip": "ym2612"
    },
    {
      "channel": 0,
      "note": 100,
      "start": 35.7685,
      "duration": 0.0783,
      "velocity": 79,
      "chip": "ym2612"
    },
    {
      "channel": 1,
      "note": 72,
      "start": 35.77,
      "duration": 0.0969,
      "velocity": 63,
      "chip": "ym2612"
    },
    {
      "channel": 3,
      "note": 64,
      "start": 35.7714,
      "duration": 0.0959,
      "velocity": 63,
      "chip": "ym2612"
    },
    {
      "channel": 4,
      "note": 60,
      "start": 35.7729,
      "duration": 0.0948,
      "velocity": 77,
      "chip": "ym2612"
    },
    {
      "channel": 5,
      "note": 16,
      "start": 35.7771,
      "duration": 0.1153,
      "velocity": 112,
      "chip": "ym2612"
    },
    {
      "channel": 0,
      "note": 100,
      "start": 35.8877,
      "duration": 0.1577,
      "velocity": 79,
      "chip": "ym2612"
    },
    {
      "channel": 1,
      "note": 72,
      "start": 35.8892,
      "duration": 0.097,
      "velocity": 63,
      "chip": "ym2612"
    },
    {
      "channel": 3,
      "note": 64,
      "start": 35.8906,
      "duration": 0.0959,
      "velocity": 63,
      "chip": "ym2612"
    },
    {
      "channel": 4,
      "note": 60,
      "start": 35.892,
      "duration": 0.0948,
      "velocity": 77,
      "chip": "ym2612"
    },
    {
      "channel": 5,
      "note": 59,
      "start": 35.8961,
      "duration": 0.2348,
      "velocity": 126,
      "chip": "ym2612"
    },
    {
      "channel": 0,
      "note": 98,
      "start": 36.1261,
      "duration": 0.0999,
      "velocity": 79,
      "chip": "ym2612"
    },
    {
      "channel": 1,
      "note": 70,
      "start": 36.1275,
      "duration": 0.0987,
      "velocity": 63,
      "chip": "ym2612"
    },
    {
      "channel": 3,
      "note": 62,
      "start": 36.129,
      "duration": 0.0977,
      "velocity": 63,
      "chip": "ym2612"
    },
    {
      "channel": 4,
      "note": 48,
      "start": 36.1305,
      "duration": 0.0966,
      "velocity": 77,
      "chip": "ym2612"
    },
    {
      "channel": 5,
      "note": 2,
      "start": 36.1345,
      "duration": 0.1169,
      "velocity": 126,
      "chip": "ym2612"
    },
    {
      "channel": 0,
      "note": 98,
      "start": 36.2456,
      "duration": 0.0059,
      "velocity": 79,
      "chip": "ym2612"
    },
    {
      "channel": 1,
      "note": 70,
      "start": 36.2476,
      "duration": 0.0039,
      "velocity": 63,
      "chip": "ym2612"
    },
    {
      "channel": 3,
      "note": 62,
      "start": 36.2494,
      "duration": 0.0021,
      "velocity": 63,
      "chip": "ym2612"
    },
    {
      "channel": 4,
      "note": 48,
      "start": 36.2512,
      "duration": 0.0003,
      "velocity": 77,
      "chip": "ym2612"
    }
  ]
}