{
  "track_name": "08 - The German Soviet Armored Campaign",
  "duration_sec": 88.126,
  "sample_rate": 44100,
  "note_count": 1183,
  "unique_pitches": 42,
  "pitch_range": 53,
  "avg_note_duration": 0.1925,
  "reconstruction_stats": {
    "notes_reconstructed": 1183,
    "keyon_events": 1183,
    "keyoff_events": 1183,
    "orphan_keyons": 0,
    "unique_pitches": 42,
    "pitch_range": 53,
    "avg_duration_sec": 0.1925
  },
  "metadata": {
    "source": "O\\Operation Europe\\08 - The German Soviet Armored Campaign.vgz"
  },
  "notes": [
    {
      "channel": 1,
      "note": 59,
      "start": 0.0068,
      "duration": 0.2588,
      "velocity": 91,
      "chip": "ym2612"
    },
    {
      "channel": 3,
      "note": 83,
      "start": 0.0145,
      "duration": 0.0524,
      "velocity": 119,
      "chip": "ym2612"
    },
    {
      "channel": 3,
      "note": 83,
      "start": 0.0672,
      "duration": 0.0663,
      "velocity": 119,
      "chip": "ym2612"
    },
    {
      "channel": 3,
      "note": 83,
      "start": 0.1338,
      "duration": 0.3153,
      "velocity": 119,
      "chip": "ym2612"
    },
    {
      "channel": 1,
      "note": 60,
      "start": 0.3161,
      "duration": 0.2662,
      "velocity": 91,
      "chip": "ym2612"
    },
    {
      "channel": 1,
      "note": 59,
      "start": 0.6327,
      "duration": 0.2662,
      "velocity": 91,
      "chip": "ym2612"
    },
    {
      "channel": 1,
      "note": 60,
      "start": 0.9494,
      "duration": 0.2506,
      "velocity": 91,
      "chip": "ym2612"
    },
    {
      "channel": 1,
      "note": 59,
      "start": 1.2504,
      "duration": 0.2652,
      "velocity": 91,
      "chip": "ym2612"
    },
    {
      "channel": 1,
      "note": 60,
      "start": 1.5661,
      "duration": 0.2662,
      "velocity": 91,
      "chip": "ym2612"
    },
    {
      "channel": 1,
      "note": 59,
      "start": 1.8827,
      "duration": 0.2662,
      "velocity": 91,
      "chip": "ym2612"
    },
    {
      "channel": 1,
      "note": 60,
      "start": 2.1994,
      "duration": 0.2506,
      "velocity": 91,
      "chip": "ym2612"
    },
    {
      "channel": 1,
      "note": 59,
      "start": 2.5009,
      "duration": 0.2648,
      "velocity": 91,
      "chip": "ym2612"
    },
    {
      "channel": 3,
      "note": 83,
      "start": 2.5024,
      "duration": 0.0801,
      "velocity": 119,
      "chip": "ym2612"
    },
    {
      "channel": 3,
      "note": 83,
      "start": 2.5827,
      "duration": 0.2174,
      "velocity": 119,
      "chip": "ym2612"
    },
    {
      "channel": 1,
      "note": 60,
      "start": 2.8163,
      "duration": 0.2661,
      "velocity": 91,
      "chip": "ym2612"
    },
    {
      "channel": 3,
      "note": 83,
      "start": 2.817,
      "duration": 0.0659,
      "velocity": 119,
      "chip": "ym2612"
    },
    {
      "channel": 3,
      "note": 83,
      "start": 2.883,
      "duration": 0.0665,
      "velocity": 119,
      "chip": "ym2612"
    },
    {
      "channel": 3,
      "note": 83,
      "start": 2.9497,
      "duration": 0.3161,
      "velocity": 119,
      "chip": "ym2612"
    },
    {
      "channel": 1,
      "note": 59,
      "start": 3.1327,
      "duration": 0.2662,
      "velocity": 91,
      "chip": "ym2612"
    },
    {
      "channel": 1,
      "note": 60,
      "start": 3.4494,
      "duration": 0.2506,
      "velocity": 91,
      "chip": "ym2612"
    },
    {
      "channel": 1,
      "note": 59,
      "start": 3.7507,
      "duration": 0.2649,
      "velocity": 91,
      "chip": "ym2612"
    },
    {
      "channel": 1,
      "note": 60,
      "start": 4.0661,
      "duration": 0.2662,
      "velocity": 91,
      "chip": "ym2612"
    },
    {
      "channel": 1,
      "note": 59,
      "start": 4.3827,
      "duration": 0.2662,
      "velocity": 91,
      "chip": "ym2612"
    },
    {
      "channel": 1,
      "note": 60,
      "start": 4.6994,
      "duration": 0.2508,
      "velocity": 91,
      "chip": "ym2612"
    },
    {
      "channel": 1,
      "note": 59,
      "start": 5.0008,
      "duration": 0.2648,
      "velocity": 91,
      "chip": "ym2612"
    },
    {
      "channel": 3,
      "note": 83,
      "start": 5.0024,
      "duration": 0.0804,
      "velocity": 119,
      "chip": "ym2612"
    },
    {
      "channel": 3,
      "note": 83,
      "start": 5.0831,
      "duration": 0.2171,
      "velocity": 119,
      "chip": "ym2612"
    },
    {
      "channel": 1,
      "note": 60,
      "start": 5.3161,
      "duration": 0.2662,
      "velocity": 91,
      "chip": "ym2612"
    },
    {
      "channel": 3,
      "note": 83,
      "start": 5.3168,
      "duration": 0.0658,
      "velocity": 119,
      "chip": "ym2612"
    },
    {
      "channel": 3,
      "note": 83,
      "start": 5.3827,
      "duration": 0.0665,
      "velocity": 119,
      "chip": "ym2612"
    },
    {
      "channel": 3,
      "note": 83,
      "start": 5.4494,
      "duration": 0.1665,
      "velocity": 119,
      "chip": "ym2612"
    },
    {
      "channel": 1,
      "note": 59,
      "start": 5.6327,
      "duration": 0.2662,
      "velocity": 91,
      "chip": "ym2612"
    },
    {
      "channel": 3,
      "note": 83,
      "start": 5.6334,
      "duration": 0.0658,
      "velocity": 119,
      "chip": "ym2612"
    },
    {
      "channel": 3,
      "note": 83,
      "start": 5.6994,
      "duration": 0.0665,
      "velocity": 119,
      "chip": "ym2612"
    },
    {
      "channel": 3,
      "note": 83,
      "start": 5.7661,
      "duration": 0.3165,
      "velocity": 119,
      "chip": "ym2612"
    },
    {
      "channel": 1,
      "note": 60,
      "start": 5.9497,
      "duration": 0.2504,
      "velocity": 91,
      "chip": "ym2612"
    },
    {
      "channel": 1,
      "note": 59,
      "start": 6.2505,
      "duration": 0.2651,
      "velocity": 91,
      "chip": "ym2612"
    },
    {
      "channel": 1,
      "note": 60,
      "start": 6.5661,
      "duration": 0.2662,
      "velocity": 91,
      "chip": "ym2612"
    },
    {
      "channel": 1,
      "note": 59,
      "start": 6.883,
      "duration": 0.266,
      "velocity": 91,
      "chip": "ym2612"
    },
    {
      "channel": 1,
      "note": 60,
      "start": 7.1994,
      "duration": 0.2506,
      "velocity": 91,
      "chip": "ym2612"
    },
    {
      "channel": 1,
      "note": 59,
      "start": 7.501,
      "duration": 0.2646,
      "velocity": 91,
      "chip": "ym2612"
    },
    {
      "channel": 3,
      "note": 83,
      "start": 7.5025,
      "duration": 0.0644,
      "velocity": 119,
      "chip": "ym2612"
    },
    {
      "channel": 3,
      "note": 83,
      "start": 7.5672,
      "duration": 0.0653,
      "velocity": 119,
      "chip": "ym2612"
    },
    {
      "channel": 3,
      "note": 83,
      "start": 7.6327,
      "duration": 0.3165,
      "velocity": 119,
      "chip": "ym2612"
    },
    {
      "channel": 1,
      "note": 60,
      "start": 7.8163,
      "duration": 0.2661,
      "velocity": 91,
      "chip": "ym2612"
    },
    {
      "channel": 1,
      "note": 59,
      "start": 8.1327,
      "duration": 0.2662,
      "velocity": 91,
      "chip": "ym2612"
    },
    {
      "channel": 1,
      "note": 60,
      "start": 8.4494,
      "duration": 0.2506,
      "velocity": 91,
      "chip": "ym2612"
    },
    {
      "channel": 1,
      "note": 59,
      "start": 8.7509,
      "duration": 0.2647,
      "velocity": 91,
      "chip": "ym2612"
    },
    {
      "channel": 1,
      "note": 60,
      "start": 9.0661,
      "duration": 0.2662,
      "velocity": 91,
      "chip": "ym2612"
    },
    {
      "channel": 1,
      "note": 59,
      "start": 9.3827,
      "duration": 0.2662,
      "velocity": 91,
      "chip": "ym2612"
    },
    {
      "channel": 1,
      "note": 60,
      "start": 9.6994,
      "duration": 0.2509,
      "velocity": 91,
      "chip": "ym2612"
    },
    {
      "channel": 1,
      "note": 59,
      "start": 10.001,
      "duration": 0.2646,
      "velocity": 91,
      "chip": "ym2612"
    },
    {
      "channel": 3,
      "note": 83,
      "start": 10.0055,
      "duration": 0.0615,
      "velocity": 119,
      "chip": "ym2612"
    },
    {
      "channel": 3,
      "note": 83,
      "start": 10.0672,
      "duration": 0.0653,
      "velocity": 119,
      "chip": "ym2612"
    },
    {
      "channel": 3,
      "note": 83,
      "start": 10.1327,
      "duration": 0.3163,
      "velocity": 119,
      "chip": "ym2612"
    },
    {
      "channel": 1,
      "note": 60,
      "start": 10.3161,
      "duration": 0.2662,
      "velocity": 91,
      "chip": "ym2612"
    },
    {
      "channel": 1,
      "note": 59,
      "start": 10.6327,
      "duration": 0.2662,
      "velocity": 91,
      "chip": "ym2612"
    },
    {
      "channel": 1,
      "note": 60,
      "start": 10.9497,
      "duration": 0.2504,
      "velocity": 91,
      "chip": "ym2612"
    },
    {
      "channel": 1,
      "note": 59,
      "start": 11.253,
      "duration": 0.2627,
      "velocity": 91,
      "chip": "ym2612"
    },
    {
      "channel": 1,
      "note": 60,
      "start": 11.5661,
      "duration": 0.2662,
      "velocity": 91,
      "chip": "ym2612"
    },
    {
      "channel": 1,
      "note": 59,
      "start": 11.883,
      "duration": 0.266,
      "velocity": 91,
      "chip": "ym2612"
    },
    {
      "channel": 1,
      "note": 60,
      "start": 12.1994,
      "duration": 0.2531,
      "velocity": 91,
      "chip": "ym2612"
    },
    {
      "channel": 1,
      "note": 59,
      "start": 12.5024,
      "duration": 0.2632,
      "velocity": 91,
      "chip": "ym2612"
    },
    {
      "channel": 3,
      "note": 83,
      "start": 12.5039,
      "duration": 0.0786,
      "velocity": 119,
      "chip": "ym2612"
    },
    {
      "channel": 3,
      "note": 83,
      "start": 12.5827,
      "duration": 0.2189,
      "velocity": 119,
      "chip": "ym2612"
    },
    {
      "channel": 1,
      "note": 60,
      "start": 12.8163,
      "duration": 0.2661,
      "velocity": 91,
      "chip": "ym2612"
    },
    {
      "channel": 3,
      "note": 83,
      "start": 12.817,
      "duration": 0.0659,
      "velocity": 119,
      "chip": "ym2612"
    },
    {
      "channel": 3,
      "note": 83,
      "start": 12.883,
      "duration": 0.0665,
      "velocity": 119,
      "chip": "ym2612"
    },
    {
      "channel": 3,
      "note": 83,
      "start": 12.9497,
      "duration": 0.3161,
      "velocity": 119,
      "chip": "ym2612"
    },
    {
      "channel": 1,
      "note": 59,
      "start": 13.1327,
      "duration": 0.2662,
      "velocity": 91,
      "chip": "ym2612"
    },
    {
      "channel": 1,
      "note": 60,
      "start": 13.4494,
      "duration": 0.2521,
      "velocity": 91,
      "chip": "ym2612"
    },
    {
      "channel": 1,
      "note": 65,
      "start": 13.7534,
      "duration": 0.2622,
      "velocity": 91,
      "chip": "ym2612"
    },
    {
      "channel": 1,
      "note": 66,
      "start": 14.0661,
      "duration": 0.2662,
      "velocity": 91,
      "chip": "ym2612"
    },
    {
      "channel": 1,
      "note": 65,
      "start": 14.3827,
      "duration": 0.2662,
      "velocity": 91,
      "chip": "ym2612"
    },
    {
      "channel": 1,
      "note": 66,
      "start": 14.6994,
      "duration": 0.2534,
      "velocity": 91,
      "chip": "ym2612"
    },
    {
      "channel": 1,
      "note": 59,
      "start": 15.0034,
      "duration": 0.2623,
      "velocity": 91,
      "chip": "ym2612"
    },
    {
      "channel": 3,
      "note": 83,
      "start": 15.0049,
      "duration": 0.0779,
      "velocity": 119,
      "chip": "ym2612"
    },
    {
      "channel": 3,
      "note": 83,
      "start": 15.0831,
      "duration": 0.2171,
      "velocity": 119,
      "chip": "ym2612"
    },
    {
      "channel": 1,
      "note": 60,
      "start": 15.3161,
      "duration": 0.2662,
      "velocity": 91,
      "chip": "ym2612"
    },
    {
      "channel": 3,
      "note": 83,
      "start": 15.3167,
      "duration": 0.0658,
      "velocity": 119,
      "chip": "ym2612"
    },
    {
      "channel": 3,
      "note": 83,
      "start": 15.3827,
      "duration": 0.0665,
      "velocity": 119,
      "chip": "ym2612"
    },
    {
      "channel": 3,
      "note": 83,
      "start": 15.4494,
      "duration": 0.1665,
      "velocity": 119,
      "chip": "ym2612"
    },
    {
      "channel": 1,
      "note": 59,
      "start": 15.6327,
      "duration": 0.2662,
      "velocity": 91,
      "chip": "ym2612"
    },
    {
      "channel": 3,
      "note": 83,
      "start": 15.6334,
      "duration": 0.0658,
      "velocity": 119,
      "chip": "ym2612"
    },
    {
      "channel": 3,
      "note": 83,
      "start": 15.6994,
      "duration": 0.0665,
      "velocity": 119,
      "chip": "ym2612"
    },
    {
      "channel": 3,
      "note": 83,
      "start": 15.7661,
      "duration": 0.3008,
      "velocity": 119,
      "chip": "ym2612"
    },
    {
      "channel": 1,
      "note": 60,
      "start": 15.9497,
      "duration": 0.2504,
      "velocity": 91,
      "chip": "ym2612"
    },
    {
      "channel": 1,
      "note": 59,
      "start": 16.2505,
      "duration": 0.2651,
      "velocity": 91,
      "chip": "ym2612"
    },
    {
      "channel": 1,
      "note": 60,
      "start": 16.5661,
      "duration": 0.2662,
      "velocity": 91,
      "chip": "ym2612"
    },
    {
      "channel": 1,
      "note": 59,
      "start": 16.883,
      "duration": 0.266,
      "velocity": 91,
      "chip": "ym2612"
    },
    {
      "channel": 1,
      "note": 60,
      "start": 17.1994,
      "duration": 0.2495,
      "velocity": 91,
      "chip": "ym2612"
    },
    {
      "channel": 1,
      "note": 59,
      "start": 17.501,
      "duration": 0.2646,
      "velocity": 91,
      "chip": "ym2612"
    },
    {
      "channel": 3,
      "note": 83,
      "start": 17.5025,
      "duration": 0.0644,
      "velocity": 119,
      "chip": "ym2612"
    },
    {
      "channel": 3,
      "note": 83,
      "start": 17.5672,
      "duration": 0.0653,
      "velocity": 119,
      "chip": "ym2612"
    },
    {
      "channel": 3,
      "note": 83,
      "start": 17.6327,
      "duration": 0.3165,
      "velocity": 119,
      "chip": "ym2612"
    },
    {
      "channel": 1,
      "note": 60,
      "start": 17.8163,
      "duration": 0.2661,
      "velocity": 91,
      "chip": "ym2612"
    },
    {
      "channel": 1,
      "note": 59,
      "start": 18.1327,
      "duration": 0.2662,
      "velocity": 91,
      "chip": "ym2612"
    },
    {
      "channel": 1,
      "note": 60,
      "start": 18.4494,
      "duration": 0.2495,
      "velocity": 91,
      "chip": "ym2612"
    },
    {
      "channel": 1,
      "note": 59,
      "start": 18.7509,
      "duration": 0.2647,
      "velocity": 91,
      "chip": "ym2612"
    },
    {
      "channel": 1,
      "note": 60,
      "start": 19.0661,
      "duration": 0.2662,
      "velocity": 91,
      "chip": "ym2612"
    },
    {
      "channel": 1,
      "note": 59,
      "start": 19.3827,
      "duration": 0.2662,
      "velocity": 91,
      "chip": "ym2612"
    },
    {
      "channel": 1,
      "note": 60,
      "start": 19.6994,
      "duration": 0.2495,
      "velocity": 91,
      "chip": "ym2612"
    },
    {
      "channel": 0,
      "note": 71,
      "start": 20.0006,
      "duration": 2.4378,
      "velocity": 87,
      "chip": "ym2612"
    },
    {
      "channel": 1,
      "note": 59,
      "start": 20.0021,
      "duration": 0.2635,
      "velocity": 91,
      "chip": "ym2612"
    },
    {
      "channel": 2,
      "note": 66,
      "start": 20.0029,
      "duration": 2.4358,
      "velocity": 87,
      "chip": "ym2612"
    },
    {
      "channel": 3,
      "note": 38,
      "start": 20.0071,
      "duration": 0.06,
      "velocity": 101,
      "chip": "ym2612"
    },
    {
      "channel": 3,
      "note": 38,
      "start": 20.1661,
      "duration": 0.0664,
      "velocity": 101,
      "chip": "ym2612"
    },
    {
      "channel": 1,
      "note": 60,
      "start": 20.3161,
      "duration": 0.2662,
      "velocity": 91,
      "chip": "ym2612"
    },
    {
      "channel": 3,
      "note": 34,
      "start": 20.3169,
      "duration": 0.1657,
      "velocity": 101,
      "chip": "ym2612"
    },
    {
      "channel": 1,
      "note": 59,
      "start": 20.6327,
      "duration": 0.2662,
      "velocity": 91,
      "chip": "ym2612"
    },
    {
      "channel": 3,
      "note": 34,
      "start": 20.7827,
      "duration": 0.1673,
      "velocity": 101,
      "chip": "ym2612"
    },
    {
      "channel": 1,
      "note": 60,
      "start": 20.9497,
      "duration": 0.2493,
      "velocity": 91,
      "chip": "ym2612"
    },
    {
      "channel": 1,
      "note": 59,
      "start": 21.254,
      "duration": 0.2616,
      "velocity": 91,
      "chip": "ym2612"
    },
    {
      "channel": 3,
      "note": 34,
      "start": 21.2546,
      "duration": 0.1613,
      "velocity": 101,
      "chip": "ym2612"
    },
    {
      "channel": 1,
      "note": 60,
      "start": 21.5661,
      "duration": 0.2662,
      "velocity": 91,
      "chip": "ym2612"
    },
    {
      "channel": 3,
      "note": 34,
      "start": 21.7327,
      "duration": 0.1506,
      "velocity": 101,
      "chip": "ym2612"
    },
    {
      "channel": 1,
      "note": 59,
      "start": 21.883,
      "duration": 0.258,
      "velocity": 91,
      "chip": "ym2612"
    },
    {
      "channel": 1,
      "note": 60,
      "start": 22.1994,
      "duration": 0.2495,
      "velocity": 91,
      "chip": "ym2612"
    },
    {
      "channel": 3,
      "note": 34,
      "start": 22.2,
      "duration": 0.4159,
      "velocity": 101,
      "chip": "ym2612"
    },
    {
      "channel": 0,
      "note": 65,
      "start": 22.509,
      "duration": 2.4294,
      "velocity": 87,
      "chip": "ym2612"
    },
    {
      "channel": 1,
      "note": 59,
      "start": 22.5098,
      "duration": 0.2558,
      "velocity": 91,
      "chip": "ym2612"
    },
    {
      "channel": 2,
      "note": 57,
      "start": 22.5111,
      "duration": 2.4276,
      "velocity": 87,
      "chip": "ym2612"
    },
    {
      "channel": 3,
      "note": 34,
      "start": 22.6661,
      "duration": 0.4168,
      "velocity": 101,
      "chip": "ym2612"
    },
    {
      "channel": 1,
      "note": 60,
      "start": 22.8163,
      "duration": 0.2661,
      "velocity": 91,
      "chip": "ym2612"
    },
    {
      "channel": 1,
      "note": 59,
      "start": 23.1327,
      "duration": 0.2541,
      "velocity": 91,
      "chip": "ym2612"
    },
    {
      "channel": 3,
      "note": 34,
      "start": 23.1334,
      "duration": 0.8491,
      "velocity": 101,
      "chip": "ym2612"
    },
    {
      "channel": 1,
      "note": 60,
      "start": 23.4494,
      "duration": 0.2495,
      "velocity": 91,
      "chip": "ym2612"
    },
    {
      "channel": 1,
      "note": 59,
      "start": 23.7543,
      "duration": 0.2613,
      "velocity": 91,
      "chip": "ym2612"
    },
    {
      "channel": 1,
      "note": 60,
      "start": 24.0661,
      "duration": 0.2662,
      "velocity": 91,
      "chip": "ym2612"
    },
    {
      "channel": 1,
      "note": 59,
      "start": 24.3827,
      "duration": 0.2582,
      "velocity": 91,
      "chip": "ym2612"
    },
    {
      "channel": 1,
      "note": 60,
      "start": 24.6994,
      "duration": 0.2495,
      "velocity": 91,
      "chip": "ym2612"
    },
    {
      "channel": 0,
      "note": 77,
      "start": 25.0084,
      "duration": 2.43,
      "velocity": 87,
      "chip": "ym2612"
    },
    {
      "channel": 1,
      "note": 59,
      "start": 25.0093,
      "duration": 0.2563,
      "velocity": 91,
      "chip": "ym2612"
    },
    {
      "channel": 2,
      "note": 73,
      "start": 25.0105,
      "duration": 2.4281,
      "velocity": 87,
      "chip": "ym2612"
    },
    {
      "channel": 3,
      "note": 38,
      "start": 25.0147,
      "duration": 0.0512,
      "velocity": 101,
      "chip": "ym2612"
    },
    {
      "channel": 3,
      "note": 38,
      "start": 25.1661,
      "duration": 0.0664,
      "velocity": 101,
      "chip": "ym2612"
    },
    {
      "channel": 1,
      "note": 60,
      "start": 25.3161,
      "duration": 0.2662,
      "velocity": 91,
      "chip": "ym2612"
    },
    {
      "channel": 3,
      "note": 34,
      "start": 25.3168,
      "duration": 0.1503,
      "velocity": 101,
      "chip": "ym2612"
    },
    {
      "channel": 1,
      "note": 59,
      "start": 25.6327,
      "duration": 0.2544,
      "velocity": 91,
      "chip": "ym2612"
    },
    {
      "channel": 3,
      "note": 34,
      "start": 25.7827,
      "duration": 0.1673,
      "velocity": 101,
      "chip": "ym2612"
    },
    {
      "channel": 1,
      "note": 60,
      "start": 25.9497,
      "duration": 0.2493,
      "velocity": 91,
      "chip": "ym2612"
    },
    {
      "channel": 1,
      "note": 59,
      "start": 26.254,
      "duration": 0.2616,
      "velocity": 91,
      "chip": "ym2612"
    },
    {
      "channel": 3,
      "note": 34,
      "start": 26.2546,
      "duration": 0.1613,
      "velocity": 101,
      "chip": "ym2612"
    },
    {
      "channel": 1,
      "note": 60,
      "start": 26.5661,
      "duration": 0.2662,
      "velocity": 91,
      "chip": "ym2612"
    },
    {
      "channel": 3,
      "note": 34,
      "start": 26.725,
      "duration": 0.1583,
      "velocity": 101,
      "chip": "ym2612"
    },
    {
      "channel": 1,
      "note": 59,
      "start": 26.883,
      "duration": 0.258,
      "velocity": 91,
      "chip": "ym2612"
    },
    {
      "channel": 1,
      "note": 60,
      "start": 27.1994,
      "duration": 0.2495,
      "velocity": 91,
      "chip": "ym2612"
    },
    {
      "channel": 3,
      "note": 34,
      "start": 27.2,
      "duration": 0.4159,
      "velocity": 101,
      "chip": "ym2612"
    },
    {
      "channel": 0,
      "note": 71,
      "start": 27.509,
      "duration": 2.4294,
      "velocity": 87,
      "chip": "ym2612"
    },
    {
      "channel": 1,
      "note": 59,
      "start": 27.5098,
      "duration": 0.2558,
      "velocity": 91,
      "chip": "ym2612"
    },
    {
      "channel": 2,
      "note": 63,
      "start": 27.5111,
      "duration": 2.4276,
      "velocity": 87,
      "chip": "ym2612"
    },
    {
      "channel": 3,
      "note": 34,
      "start": 27.6661,
      "duration": 0.4168,
      "velocity": 101,
      "chip": "ym2612"
    },
    {
      "channel": 1,
      "note": 60,
      "start": 27.8163,
      "duration": 0.2661,
      "velocity": 91,
      "chip": "ym2612"
    },
    {
      "channel": 1,
      "note": 59,
      "start": 28.1327,
      "duration": 0.2541,
      "velocity": 91,
      "chip": "ym2612"
    },
    {
      "channel": 3,
      "note": 34,
      "start": 28.1334,
      "duration": 0.8491,
      "velocity": 101,
      "chip": "ym2612"
    },
    {
      "channel": 1,
      "note": 60,
      "start": 28.4494,
      "duration": 0.2495,
      "velocity": 91,
      "chip": "ym2612"
    },
    {
      "channel": 1,
      "note": 59,
      "start": 28.7543,
      "duration": 0.2613,
      "velocity": 91,
      "chip": "ym2612"
    },
    {
      "channel": 1,
      "note": 60,
      "start": 29.0661,
      "duration": 0.2662,
      "velocity": 91,
      "chip": "ym2612"
    },
    {
      "channel": 1,
      "note": 59,
      "start": 29.3827,
      "duration": 0.2583,
      "velocity": 91,
      "chip": "ym2612"
    },
    {
      "channel": 1,
      "note": 60,
      "start": 29.6994,
      "duration": 0.2495,
      "velocity": 91,
      "chip": "ym2612"
    },
    {
      "channel": 0,
      "note": 63,
      "start": 30.0092,
      "duration": 0.1397,
      "velocity": 87,
      "chip": "ym2612"
    },
    {
      "channel": 1,
      "note": 59,
      "start": 30.01,
      "duration": 0.2556,
      "velocity": 91,
      "chip": "ym2612"
    },
    {
      "channel": 3,
      "note": 83,
      "start": 30.015,
      "duration": 0.0679,
      "velocity": 119,
      "chip": "ym2612"
    },
    {
      "channel": 2,
      "note": 75,
      "start": 30.0328,
      "duration": 0.1356,
      "velocity": 87,
      "chip": "ym2612"
    },
    {
      "channel": 3,
      "note": 83,
      "start": 30.0831,
      "duration": 0.2173,
      "velocity": 119,
      "chip": "ym2612"
    },
    {
      "channel": 0,
      "note": 69,
      "start": 30.1662,
      "duration": 0.1327,
      "velocity": 87,
      "chip": "ym2612"
    },
    {
      "channel": 2,
      "note": 81,
      "start": 30.1829,
      "duration": 0.1343,
      "velocity": 87,
      "chip": "ym2612"
    },
    {
      "channel": 0,
      "note": 74,
      "start": 30.3162,
      "duration": 0.1494,
      "velocity": 87,
      "chip": "ym2612"
    },
    {
      "channel": 1,
      "note": 60,
      "start": 30.3169,
      "duration": 0.2654,
      "velocity": 91,
      "chip": "ym2612"
    },
    {
      "channel": 3,
      "note": 83,
      "start": 30.3177,
      "duration": 0.0482,
      "velocity": 119,
      "chip": "ym2612"
    },
    {
      "channel": 2,
      "note": 86,
      "start": 30.3498,
      "duration": 0.1326,
      "velocity": 87,
      "chip": "ym2612"
    },
    {
      "channel": 3,
      "note": 83,
      "start": 30.3661,
      "duration": 0.0664,
      "velocity": 119,
      "chip": "ym2612"
    },
    {
      "channel": 3,
      "note": 83,
      "start": 30.4328,
      "duration": 0.1664,
      "velocity": 119,
      "chip": "ym2612"
    },
    {
      "channel": 0,
      "note": 63,
      "start": 30.4676,
      "duration": 0.1313,
      "velocity": 87,
      "chip": "ym2612"
    },
    {
      "channel": 2,
      "note": 75,
      "start": 30.4995,
      "duration": 0.1343,
      "velocity": 87,
      "chip": "ym2612"
    },
    {
      "channel": 0,
      "note": 69,
      "start": 30.6329,
      "duration": 0.1345,
      "velocity": 87,
      "chip": "ym2612"
    },
    {
      "channel": 1,
      "note": 59,
      "start": 30.6336,
      "duration": 0.2502,
      "velocity": 91,
      "chip": "ym2612"
    },
    {
      "channel": 3,
      "note": 83,
      "start": 30.6343,
      "duration": 0.0649,
      "velocity": 119,
      "chip": "ym2612"
    },
    {
      "channel": 2,
      "note": 81,
      "start": 30.6508,
      "duration": 0.1482,
      "velocity": 87,
      "chip": "ym2612"
    },
    {
      "channel": 3,
      "note": 83,
      "start": 30.6995,
      "duration": 0.0665,
      "velocity": 119,
      "chip": "ym2612"
    },
    {
      "channel": 3,
      "note": 83,
      "start": 30.7661,
      "duration": 0.301,
      "velocity": 119,
      "chip": "ym2612"
    },
    {
      "channel": 0,
      "note": 74,
      "start": 30.7829,
      "duration": 0.1327,
      "velocity": 87,
      "chip": "ym2612"
    },
    {
      "channel": 2,
      "note": 86,
      "start": 30.8164,
      "duration": 0.1344,
      "velocity": 87,
      "chip": "ym2612"
    },
    {
      "channel": 0,
      "note": 63,
      "start": 30.9497,
      "duration": 0.1326,
      "velocity": 87,
      "chip": "ym2612"
    },
    {
      "channel": 1,
      "note": 60,
      "start": 30.9505,
      "duration": 0.2485,
      "velocity": 91,
      "chip": "ym2612"
    },
    {
      "channel": 2,
      "note": 75,
      "start": 30.9661,
      "duration": 0.1495,
      "velocity": 87,
      "chip": "ym2612"
    },
    {
      "channel": 0,
      "note": 69,
      "start": 31.0995,
      "duration": 0.1327,
      "velocity": 87,
      "chip": "ym2612"
    },
    {
      "channel": 2,
      "note": 81,
      "start": 31.1329,
      "duration": 0.119,
      "velocity": 87,
      "chip": "ym2612"
    },
    {
      "channel": 0,
      "note": 74,
      "start": 31.2508,
      "duration": 0.1481,
      "velocity": 87,
      "chip": "ym2612"
    },
    {
      "channel": 1,
      "note": 59,
      "start": 31.2515,
      "duration": 0.2641,
      "velocity": 91,
      "chip": "ym2612"
    },
    {
      "channel": 2,
      "note": 86,
      "start": 31.2831,
      "duration": 0.1356,
      "velocity": 87,
      "chip": "ym2612"
    },
    {
      "channel": 0,
      "note": 63,
      "start": 31.4165,
      "duration": 0.1324,
      "velocity": 87,
      "chip": "ym2612"
    },
    {
      "channel": 2,
      "note": 75,
      "start": 31.4329,
      "duration": 0.1343,
      "velocity": 87,
      "chip": "ym2612"
    },
    {
      "channel": 0,
      "note": 69,
      "start": 31.5662,
      "duration": 0.1494,
      "velocity": 87,
      "chip": "ym2612"
    },
    {
      "channel": 1,
      "note": 60,
      "start": 31.5669,
      "duration": 0.2654,
      "velocity": 91,
      "chip": "ym2612"
    },
    {
      "channel": 2,
      "note": 81,
      "start": 31.5995,
      "duration": 0.1328,
      "velocity": 87,
      "chip": "ym2612"
    },
    {
      "channel": 0,
      "note": 74,
      "start": 31.7176,
      "duration": 0.1313,
      "velocity": 87,
      "chip": "ym2612"
    },
    {
      "channel": 2,
      "note": 86,
      "start": 31.7498,
      "duration": 0.1342,
      "velocity": 87,
      "chip": "ym2612"
    },
    {
      "channel": 0,
      "note": 63,
      "start": 31.8831,
      "duration": 0.134,
      "velocity": 87,
      "chip": "ym2612"
    },
    {
      "channel": 1,
      "note": 59,
      "start": 31.8838,
      "duration": 0.2498,
      "velocity": 91,
      "chip": "ym2612"
    },
    {
      "channel": 2,
      "note": 75,
      "start": 31.9007,
      "duration": 0.1483,
      "velocity": 87,
      "chip": "ym2612"
    },
    {
      "channel": 0,
      "note": 69,
      "start": 32.0329,
      "duration": 0.1327,
      "velocity": 87,
      "chip": "ym2612"
    },
    {
      "channel": 2,
      "note": 81,
      "start": 32.0662,
      "duration": 0.1343,
      "velocity": 87,
      "chip": "ym2612"
    },
    {
      "channel": 0,
      "note": 74,
      "start": 32.1995,
      "duration": 0.1327,
      "velocity": 87,
      "chip": "ym2612"
    },
    {
      "channel": 1,
      "note": 60,
      "start": 32.2002,
      "duration": 0.2487,
      "velocity": 91,
      "chip": "ym2612"
    },
    {
      "channel": 2,
      "note": 86,
      "start": 32.2165,
      "duration": 0.1492,
      "velocity": 87,
      "chip": "ym2612"
    },
    {
      "channel": 0,
      "note": 63,
      "start": 32.3497,
      "duration": 0.1325,
      "velocity": 87,
      "chip": "ym2612"
    },
    {
      "channel": 2,
      "note": 75,
      "start": 32.3829,
      "duration": 0.1196,
      "velocity": 87,
      "chip": "ym2612"
    },
    {
      "channel": 0,
      "note": 69,
      "start": 32.5008,
      "duration": 0.1481,
      "velocity": 87,
      "chip": "ym2612"
    },
    {
      "channel": 1,
      "note": 59,
      "start": 32.5022,
      "duration": 0.2634,
      "velocity": 91,
      "chip": "ym2612"
    },
    {
      "channel": 3,
      "note": 83,
      "start": 32.5035,
      "duration": 0.079,
      "velocity": 119,
      "chip": "ym2612"
    },
    {
      "channel": 2,
      "note": 81,
      "start": 32.5329,
      "duration": 0.1355,
      "velocity": 87,
      "chip": "ym2612"
    },
    {
      "channel": 3,
      "note": 83,
      "start": 32.5828,
      "duration": 0.283,
      "velocity": 119,
      "chip": "ym2612"
    },
    {
      "channel": 0,
      "note": 74,
      "start": 32.6662,
      "duration": 0.1327,
      "velocity": 87,
      "chip": "ym2612"
    },
    {
      "channel": 2,
      "note": 86,
      "start": 32.6831,
      "duration": 0.1344,
      "velocity": 87,
      "chip": "ym2612"
    },
    {
      "channel": 0,
      "note": 63,
      "start": 32.8164,
      "duration": 0.1492,
      "velocity": 87,
      "chip": "ym2612"
    },
    {
      "channel": 1,
      "note": 60,
      "start": 32.8171,
      "duration": 0.2653,
      "velocity": 91,
      "chip": "ym2612"
    },
    {
      "channel": 2,
      "note": 75,
      "start": 32.8495,
      "duration": 0.1328,
      "velocity": 87,
      "chip": "ym2612"
    },
    {
      "channel": 0,
      "note": 69,
      "start": 32.9676,
      "duration": 0.1313,
      "velocity": 87,
      "chip": "ym2612"
    },
    {
      "channel": 2,
      "note": 81,
      "start": 32.9995,
      "duration": 0.1343,
      "velocity": 87,
      "chip": "ym2612"
    },
    {
      "channel": 0,
      "note": 74,
      "start": 33.1329,
      "duration": 0.134,
      "velocity": 87,
      "chip": "ym2612"
    },
    {
      "channel": 1,
      "note": 59,
      "start": 33.1336,
      "duration": 0.25,
      "velocity": 91,
      "chip": "ym2612"
    },
    {
      "channel": 2,
      "note": 86,
      "start": 33.151,
      "duration": 0.148,
      "velocity": 87,
      "chip": "ym2612"
    },
    {
      "channel": 0,
      "note": 63,
      "start": 33.2831,
      "duration": 0.1326,
      "velocity": 87,
      "chip": "ym2612"
    },
    {
      "channel": 2,
      "note": 75,
      "start": 33.3161,
      "duration": 0.1343,
      "velocity": 87,
      "chip": "ym2612"
    },
    {
      "channel": 0,
      "note": 69,
      "start": 33.4495,
      "duration": 0.1327,
      "velocity": 87,
      "chip": "ym2612"
    },
    {
      "channel": 1,
      "note": 60,
      "start": 33.4502,
      "duration": 0.2487,
      "velocity": 91,
      "chip": "ym2612"
    },
    {
      "channel": 2,
      "note": 81,
      "start": 33.4662,
      "duration": 0.2663,
      "velocity": 87,
      "chip": "ym2612"
    },
    {
      "channel": 0,
      "note": 74,
      "start": 33.5995,
      "duration": 0.1327,
      "velocity": 87,
      "chip": "ym2612"
    },
    {
      "channel": 1,
      "note": 65,
      "start": 33.7516,
      "duration": 0.264,
      "velocity": 91,
      "chip": "ym2612"
    },
    {
      "channel": 1,
      "note": 66,
      "start": 34.0661,
      "duration": 0.2662,
      "velocity": 91,
      "chip": "ym2612"
    },
    {
      "channel": 1,
      "note": 65,
      "start": 34.3827,
      "duration": 0.256,
      "velocity": 91,
      "chip": "ym2612"
    },
    {
      "channel": 3,
      "note": 33,
      "start": 34.3868,
      "duration": 0.1457,
      "velocity": 101,
      "chip": "ym2612"
    },
    {
      "channel": 3,
      "note": 33,
      "start": 34.5327,
      "duration": 0.1672,
      "velocity": 101,
      "chip": "ym2612"
    },
    {
      "channel": 1,
      "note": 66,
      "start": 34.6994,
      "duration": 0.2495,
      "velocity": 91,
      "chip": "ym2612"
    },
    {
      "channel": 3,
      "note": 83,
      "start": 34.7035,
      "duration": 0.0623,
      "velocity": 119,
      "chip": "ym2612"
    },
    {
      "channel": 3,
      "note": 83,
      "start": 34.7661,
      "duration": 0.0831,
      "velocity": 119,
      "chip": "ym2612"
    },
    {
      "channel": 0,
      "note": 52,
      "start": 35.0073,
      "duration": 0.2749,
      "velocity": 98,
      "chip": "ym2612"
    },
    {
      "channel": 1,
      "note": 52,
      "start": 35.0086,
      "duration": 0.257,
      "velocity": 91,
      "chip": "ym2612"
    },
    {
      "channel": 2,
      "note": 40,
      "start": 35.0127,
      "duration": 0.27,
      "velocity": 98,
      "chip": "ym2612"
    },
    {
      "channel": 3,
      "note": 33,
      "start": 35.0173,
      "duration": 0.3003,
      "velocity": 101,
      "chip": "ym2612"
    },
    {
      "channel": 0,
      "note": 54,
      "start": 35.316,
      "duration": 0.2728,
      "velocity": 98,
      "chip": "ym2612"
    },
    {
      "channel": 1,
      "note": 52,
      "start": 35.3166,
      "duration": 0.2657,
      "velocity": 91,
      "chip": "ym2612"
    },
    {
      "channel": 2,
      "note": 42,
      "start": 35.3172,
      "duration": 0.2719,
      "velocity": 98,
      "chip": "ym2612"
    },
    {
      "channel": 3,
      "note": 33,
      "start": 35.3178,
      "duration": 0.3165,
      "velocity": 101,
      "chip": "ym2612"
    },
    {
      "channel": 0,
      "note": 55,
      "start": 35.6327,
      "duration": 0.8495,
      "velocity": 98,
      "chip": "ym2612"
    },
    {
      "channel": 1,
      "note": 52,
      "start": 35.6332,
      "duration": 0.2559,
      "velocity": 91,
      "chip": "ym2612"
    },
    {
      "channel": 2,
      "note": 43,
      "start": 35.6339,
      "duration": 0.8488,
      "velocity": 98,
      "chip": "ym2612"
    },
    {
      "channel": 3,
      "note": 84,
      "start": 35.638,
      "duration": 0.0612,
      "velocity": 127,
      "chip": "ym2612"
    },
    {
      "channel": 3,
      "note": 84,
      "start": 35.7008,
      "duration": 0.0695,
      "velocity": 127,
      "chip": "ym2612"
    },
    {
      "channel": 3,
      "note": 84,
      "start": 35.7827,
      "duration": 0.0664,
      "velocity": 127,
      "chip": "ym2612"
    },
    {
      "channel": 3,
      "note": 84,
      "start": 35.8661,
      "duration": 0.0663,
      "velocity": 127,
      "chip": "ym2612"
    },
    {
      "channel": 1,
      "note": 52,
      "start": 35.9495,
      "duration": 0.2494,
      "velocity": 91,
      "chip": "ym2612"
    },
    {
      "channel": 3,
      "note": 84,
      "start": 35.9502,
      "duration": 0.0554,
      "velocity": 127,
      "chip": "ym2612"
    },
    {
      "channel": 3,
      "note": 84,
      "start": 36.0163,
      "duration": 0.0662,
      "velocity": 127,
      "chip": "ym2612"
    },
    {
      "channel": 3,
      "note": 84,
      "start": 36.0995,
      "duration": 0.0663,
      "velocity": 127,
      "chip": "ym2612"
    },
    {
      "channel": 3,
      "note": 84,
      "start": 36.1828,
      "duration": 0.0663,
      "velocity": 127,
      "chip": "ym2612"
    },
    {
      "channel": 1,
      "note": 52,
      "start": 36.258,
      "duration": 0.2576,
      "velocity": 91,
      "chip": "ym2612"
    },
    {
      "channel": 3,
      "note": 84,
      "start": 36.2587,
      "duration": 0.0906,
      "velocity": 127,
      "chip": "ym2612"
    },
    {
      "channel": 3,
      "note": 84,
      "start": 36.3661,
      "duration": 0.083,
      "velocity": 127,
      "chip": "ym2612"
    },
    {
      "channel": 3,
      "note": 84,
      "start": 36.4661,
      "duration": 0.0831,
      "velocity": 127,
      "chip": "ym2612"
    },
    {
      "channel": 0,
      "note": 57,
      "start": 36.566,
      "duration": 0.1495,
      "velocity": 98,
      "chip": "ym2612"
    },
    {
      "channel": 1,
      "note": 52,
      "start": 36.5666,
      "duration": 0.2657,
      "velocity": 91,
      "chip": "ym2612"
    },
    {
      "channel": 2,
      "note": 45,
      "start": 36.5673,
      "duration": 0.1485,
      "velocity": 98,
      "chip": "ym2612"
    },
    {
      "channel": 0,
      "note": 55,
      "start": 36.8829,
      "duration": 0.14,
      "velocity": 98,
      "chip": "ym2612"
    },
    {
      "channel": 1,
      "note": 52,
      "start": 36.8835,
      "duration": 0.2568,
      "velocity": 91,
      "chip": "ym2612"
    },
    {
      "channel": 2,
      "note": 43,
      "start": 36.8841,
      "duration": 0.139,
      "velocity": 98,
      "chip": "ym2612"
    },
    {
      "channel": 0,
      "note": 54,
      "start": 37.1993,
      "duration": 0.1329,
      "velocity": 98,
      "chip": "ym2612"
    },
    {
      "channel": 1,
      "note": 52,
      "start": 37.1999,
      "duration": 0.249,
      "velocity": 91,
      "chip": "ym2612"
    },
    {
      "channel": 2,
      "note": 42,
      "start": 37.2006,
      "duration": 0.1319,
      "velocity": 98,
      "chip": "ym2612"
    },
    {
      "channel": 3,
      "note": 33,
      "start": 37.2046,
      "duration": 0.3043,
      "velocity": 101,
      "chip": "ym2612"
    },
    {
      "channel": 0,
      "note": 52,
      "start": 37.5073,
      "duration": 1.1815,
      "velocity": 98,
      "chip": "ym2612"
    },
    {
      "channel": 1,
      "note": 52,
      "start": 37.5079,
      "duration": 0.2578,
      "velocity": 91,
      "chip": "ym2612"
    },
    {
      "channel": 2,
      "note": 40,
      "start": 37.5086,
      "duration": 1.1805,
      "velocity": 98,
      "chip": "ym2612"
    },
    {
      "channel": 3,
      "note": 33,
      "start": 37.5091,
      "duration": 0.14,
      "velocity": 101,
      "chip": "ym2612"
    },
    {
      "channel": 3,
      "note": 33,
      "start": 37.6661,
      "duration": 0.1241,
      "velocity": 101,
      "chip": "ym2612"
    },
    {
      "channel": 1,
      "note": 52,
      "start": 37.8162,
      "duration": 0.2662,
      "velocity": 91,
      "chip": "ym2612"
    },
    {
      "channel": 1,
      "note": 52,
      "start": 38.1326,
      "duration": 0.2564,
      "velocity": 91,
      "chip": "ym2612"
    },
    {
      "channel": 3,
      "note": 84,
      "start": 38.1367,
      "duration": 0.0625,
      "velocity": 127,
      "chip": "ym2612"
    },
    {
      "channel": 3,
      "note": 84,
      "start": 38.2075,
      "duration": 0.0653,
      "velocity": 127,
      "chip": "ym2612"
    },
    {
      "channel": 3,
      "note": 84,
      "start": 38.283,
      "duration": 0.0663,
      "velocity": 127,
      "chip": "ym2612"
    },
    {
      "channel": 3,
      "note": 84,
      "start": 38.3661,
      "duration": 0.0663,
      "velocity": 127,
      "chip": "ym2612"
    },
    {
      "channel": 1,
      "note": 52,
      "start": 38.4493,
      "duration": 0.2497,
      "velocity": 91,
      "chip": "ym2612"
    },
    {
      "channel": 3,
      "note": 84,
      "start": 38.4499,
      "duration": 0.0581,
      "velocity": 127,
      "chip": "ym2612"
    },
    {
      "channel": 3,
      "note": 84,
      "start": 38.5161,
      "duration": 0.0664,
      "velocity": 127,
      "chip": "ym2612"
    },
    {
      "channel": 3,
      "note": 84,
      "start": 38.5994,
      "duration": 0.0664,
      "velocity": 127,
      "chip": "ym2612"
    },
    {
      "channel": 3,
      "note": 84,
      "start": 38.6831,
      "duration": 0.0551,
      "velocity": 127,
      "chip": "ym2612"
    },
    {
      "channel": 1,
      "note": 52,
      "start": 38.7496,
      "duration": 0.266,
      "velocity": 91,
      "chip": "ym2612"
    },
    {
      "channel": 3,
      "note": 84,
      "start": 38.7503,
      "duration": 0.0988,
      "velocity": 127,
      "chip": "ym2612"
    },
    {
      "channel": 3,
      "note": 84,
      "start": 38.8661,
      "duration": 0.0831,
      "velocity": 127,
      "chip": "ym2612"
    },
    {
      "channel": 3,
      "note": 84,
      "start": 38.9661,
      "duration": 0.083,
      "velocity": 127,
      "chip": "ym2612"
    },
    {
      "channel": 0,
      "note": 54,
      "start": 39.066,
      "duration": 0.1495,
      "velocity": 98,
      "chip": "ym2612"
    },
    {
      "channel": 1,
      "note": 52,
      "start": 39.0666,
      "duration": 0.2657,
      "velocity": 91,
      "chip": "ym2612"
    },
    {
      "channel": 2,
      "note": 42,
      "start": 39.0673,
      "duration": 0.1488,
      "velocity": 98,
      "chip": "ym2612"
    },
    {
      "channel": 0,
      "note": 52,
      "start": 39.3827,
      "duration": 0.1386,
      "velocity": 98,
      "chip": "ym2612"
    },
    {
      "channel": 1,
      "note": 52,
      "start": 39.3832,
      "duration": 0.2571,
      "velocity": 91,
      "chip": "ym2612"
    },
    {
      "channel": 2,
      "note": 40,
      "start": 39.3839,
      "duration": 0.1377,
      "velocity": 98,
      "chip": "ym2612"
    },
    {
      "channel": 0,
      "note": 50,
      "start": 39.6993,
      "duration": 0.1329,
      "velocity": 98,
      "chip": "ym2612"
    },
    {
      "channel": 1,
      "note": 50,
      "start": 39.7,
      "duration": 0.2489,
      "velocity": 91,
      "chip": "ym2612"
    },
    {
      "channel": 2,
      "note": 38,
      "start": 39.7007,
      "duration": 0.1317,
      "velocity": 98,
      "chip": "ym2612"
    },
    {
      "channel": 0,
      "note": 48,
      "start": 39.9993,
      "duration": 1.1901,
      "velocity": 98,
      "chip": "ym2612"
    },
    {
      "channel": 1,
      "note": 48,
      "start": 40.0,
      "duration": 0.2656,
      "velocity": 91,
      "chip": "ym2612"
    },
    {
      "channel": 2,
      "note": 36,
      "start": 40.0007,
      "duration": 1.189,
      "velocity": 98,
      "chip": "ym2612"
    },
    {
      "channel": 3,
      "note": 33,
      "start": 40.0049,
      "duration": 0.3115,
      "velocity": 101,
      "chip": "ym2612"
    },
    {
      "channel": 1,
      "note": 48,
      "start": 40.3159,
      "duration": 0.2663,
      "velocity": 91,
      "chip": "ym2612"
    },
    {
      "channel": 3,
      "note": 33,
      "start": 40.3166,
      "duration": 0.3165,
      "velocity": 101,
      "chip": "ym2612"
    },
    {
      "channel": 1,
      "note": 48,
      "start": 40.6326,
      "duration": 0.2568,
      "velocity": 91,
      "chip": "ym2612"
    },
    {
      "channel": 3,
      "note": 84,
      "start": 40.6367,
      "duration": 0.0625,
      "velocity": 127,
      "chip": "ym2612"
    },
    {
      "channel": 3,
      "note": 84,
      "start": 40.7072,
      "duration": 0.0653,
      "velocity": 127,
      "chip": "ym2612"
    },
    {
      "channel": 3,
      "note": 84,
      "start": 40.7827,
      "duration": 0.0664,
      "velocity": 127,
      "chip": "ym2612"
    },
    {
      "channel": 3,
      "note": 84,
      "start": 40.8661,
      "duration": 0.0663,
      "velocity": 127,
      "chip": "ym2612"
    },
    {
      "channel": 1,
      "note": 48,
      "start": 40.9495,
      "duration": 0.2494,
      "velocity": 91,
      "chip": "ym2612"
    },
    {
      "channel": 3,
      "note": 84,
      "start": 40.9502,
      "duration": 0.0566,
      "velocity": 127,
      "chip": "ym2612"
    },
    {
      "channel": 3,
      "note": 84,
      "start": 41.0163,
      "duration": 0.0662,
      "velocity": 127,
      "chip": "ym2612"
    },
    {
      "channel": 3,
      "note": 84,
      "start": 41.0995,
      "duration": 0.0663,
      "velocity": 127,
      "chip": "ym2612"
    },
    {
      "channel": 3,
      "note": 84,
      "start": 41.1828,
      "duration": 0.0553,
      "velocity": 127,
      "chip": "ym2612"
    },
    {
      "channel": 1,
      "note": 48,
      "start": 41.2493,
      "duration": 0.2663,
      "velocity": 91,
      "chip": "ym2612"
    },
    {
      "channel": 3,
      "note": 84,
      "start": 41.2499,
      "duration": 0.0993,
      "velocity": 127,
      "chip": "ym2612"
    },
    {
      "channel": 3,
      "note": 84,
      "start": 41.3661,
      "duration": 0.0829,
      "velocity": 127,
      "chip": "ym2612"
    },
    {
      "channel": 3,
      "note": 84,
      "start": 41.4661,
      "duration": 0.0831,
      "velocity": 127,
      "chip": "ym2612"
    },
    {
      "channel": 0,
      "note": 50,
      "start": 41.566,
      "duration": 0.1495,
      "velocity": 98,
      "chip": "ym2612"
    },
    {
      "channel": 1,
      "note": 48,
      "start": 41.5666,
      "duration": 0.2657,
      "velocity": 91,
      "chip": "ym2612"
    },
    {
      "channel": 2,
      "note": 38,
      "start": 41.5673,
      "duration": 0.1485,
      "velocity": 98,
      "chip": "ym2612"
    },
    {
      "channel": 0,
      "note": 51,
      "start": 41.8829,
      "duration": 0.1387,
      "velocity": 98,
      "chip": "ym2612"
    },
    {
      "channel": 1,
      "note": 48,
      "start": 41.8834,
      "duration": 0.2578,
      "velocity": 91,
      "chip": "ym2612"
    },
    {
      "channel": 2,
      "note": 39,
      "start": 41.8841,
      "duration": 0.1377,
      "velocity": 98,
      "chip": "ym2612"
    },
    {
      "channel": 0,
      "note": 53,
      "start": 42.1993,
      "duration": 0.1329,
      "velocity": 98,
      "chip": "ym2612"
    },
    {
      "channel": 2,
      "note": 41,
      "start": 42.2001,
      "duration": 0.1324,
      "velocity": 98,
      "chip": "ym2612"
    },
    {
      "channel": 3,
      "note": 33,
      "start": 42.2041,
      "duration": 0.297,
      "velocity": 101,
      "chip": "ym2612"
    },
    {
      "channel": 1,
      "note": 48,
      "start": 42.2073,
      "duration": 0.2416,
      "velocity": 91,
      "chip": "ym2612"
    },
    {
      "channel": 0,
      "note": 54,
      "start": 42.4993,
      "duration": 2.4396,
      "velocity": 98,
      "chip": "ym2612"
    },
    {
      "channel": 1,
      "note": 54,
      "start": 42.5,
      "duration": 0.2656,
      "velocity": 91,
      "chip": "ym2612"
    },
    {
      "channel": 2,
      "note": 42,
      "start": 42.5007,
      "duration": 2.4384,
      "velocity": 98,
      "chip": "ym2612"
    },
    {
      "channel": 3,
      "note": 33,
      "start": 42.5013,
      "duration": 0.1478,
      "velocity": 101,
      "chip": "ym2612"
    },
    {
      "channel": 3,
      "note": 33,
      "start": 42.6661,
      "duration": 0.1251,
      "velocity": 101,
      "chip": "ym2612"
    },
    {
      "channel": 1,
      "note": 54,
      "start": 42.8162,
      "duration": 0.2662,
      "velocity": 91,
      "chip": "ym2612"
    },
    {
      "channel": 1,
      "note": 54,
      "start": 43.1326,
      "duration": 0.2554,
      "velocity": 91,
      "chip": "ym2612"
    },
    {
      "channel": 3,
      "note": 84,
      "start": 43.1367,
      "duration": 0.0625,
      "velocity": 127,
      "chip": "ym2612"
    },
    {
      "channel": 3,
      "note": 84,
      "start": 43.2085,
      "duration": 0.063,
      "velocity": 127,
      "chip": "ym2612"
    },
    {
      "channel": 3,
      "note": 84,
      "start": 43.283,
      "duration": 0.0663,
      "velocity": 127,
      "chip": "ym2612"
    },
    {
      "channel": 3,
      "note": 84,
      "start": 43.3661,
      "duration": 0.0663,
      "velocity": 127,
      "chip": "ym2612"
    },
    {
      "channel": 1,
      "note": 54,
      "start": 43.4493,
      "duration": 0.2497,
      "velocity": 91,
      "chip": "ym2612"
    },
    {
      "channel": 3,
      "note": 84,
      "start": 43.4499,
      "duration": 0.0569,
      "velocity": 127,
      "chip": "ym2612"
    },
    {
      "channel": 3,
      "note": 84,
      "start": 43.5161,
      "duration": 0.0663,
      "velocity": 127,
      "chip": "ym2612"
    },
    {
      "channel": 3,
      "note": 84,
      "start": 43.5995,
      "duration": 0.0663,
      "velocity": 127,
      "chip": "ym2612"
    },
    {
      "channel": 3,
      "note": 84,
      "start": 43.6831,
      "duration": 0.0561,
      "velocity": 127,
      "chip": "ym2612"
    },
    {
      "channel": 1,
      "note": 54,
      "start": 43.7496,
      "duration": 0.266,
      "velocity": 91,
      "chip": "ym2612"
    },
    {
      "channel": 3,
      "note": 84,
      "start": 43.7503,
      "duration": 0.0989,
      "velocity": 127,
      "chip": "ym2612"
    },
    {
      "channel": 3,
      "note": 84,
      "start": 43.8661,
      "duration": 0.0831,
      "velocity": 127,
      "chip": "ym2612"
    },
    {
      "channel": 3,
      "note": 84,
      "start": 43.9661,
      "duration": 0.083,
      "velocity": 127,
      "chip": "ym2612"
    },
    {
      "channel": 1,
      "note": 54,
      "start": 44.0659,
      "duration": 0.2663,
      "velocity": 91,
      "chip": "ym2612"
    },
    {
      "channel": 1,
      "note": 54,
      "start": 44.3826,
      "duration": 0.2566,
      "velocity": 91,
      "chip": "ym2612"
    },
    {
      "channel": 1,
      "note": 54,
      "start": 44.6887,
      "duration": 0.2603,
      "velocity": 91,
      "chip": "ym2612"
    },
    {
      "channel": 0,
      "note": 59,
      "start": 45.0026,
      "duration": 0.1463,
      "velocity": 88,
      "chip": "ym2612"
    },
    {
      "channel": 1,
      "note": 59,
      "start": 45.0033,
      "duration": 0.2623,
      "velocity": 91,
      "chip": "ym2612"
    },
    {
      "channel": 2,
      "note": 47,
      "start": 45.0072,
      "duration": 0.142,
      "velocity": 88,
      "chip": "ym2612"
    },
    {
      "channel": 3,
      "note": 33,
      "start": 45.0114,
      "duration": 0.1382,
      "velocity": 101,
      "chip": "ym2612"
    },
    {
      "channel": 0,
      "note": 57,
      "start": 45.166,
      "duration": 0.1207,
      "velocity": 88,
      "chip": "ym2612"
    },
    {
      "channel": 2,
      "note": 45,
      "start": 45.1668,
      "duration": 0.1201,
      "velocity": 88,
      "chip": "ym2612"
    },
    {
      "channel": 3,
      "note": 33,
      "start": 45.1673,
      "duration": 0.1198,
      "velocity": 101,
      "chip": "ym2612"
    },
    {
      "channel": 0,
      "note": 63,
      "start": 45.316,
      "duration": 0.1495,
      "velocity": 88,
      "chip": "ym2612"
    },
    {
      "channel": 1,
      "note": 59,
      "start": 45.3166,
      "duration": 0.2657,
      "velocity": 91,
      "chip": "ym2612"
    },
    {
      "channel": 2,
      "note": 51,
      "start": 45.3173,
      "duration": 0.1485,
      "velocity": 88,
      "chip": "ym2612"
    },
    {
      "channel": 3,
      "note": 83,
      "start": 45.3214,
      "duration": 0.1446,
      "velocity": 119,
      "chip": "ym2612"
    },
    {
      "channel": 0,
      "note": 57,
      "start": 45.4705,
      "duration": 0.1284,
      "velocity": 88,
      "chip": "ym2612"
    },
    {
      "channel": 2,
      "note": 45,
      "start": 45.4714,
      "duration": 0.1278,
      "velocity": 88,
      "chip": "ym2612"
    },
    {
      "channel": 0,
      "note": 59,
      "start": 45.6327,
      "duration": 0.1371,
      "velocity": 88,
      "chip": "ym2612"
    },
    {
      "channel": 1,
      "note": 59,
      "start": 45.6332,
      "duration": 0.2536,
      "velocity": 91,
      "chip": "ym2612"
    },
    {
      "channel": 2,
      "note": 47,
      "start": 45.6339,
      "duration": 0.1361,
      "velocity": 88,
      "chip": "ym2612"
    },
    {
      "channel": 3,
      "note": 84,
      "start": 45.638,
      "duration": 0.0611,
      "velocity": 127,
      "chip": "ym2612"
    },
    {
      "channel": 3,
      "note": 84,
      "start": 45.7038,
      "duration": 0.0664,
      "velocity": 127,
      "chip": "ym2612"
    },
    {
      "channel": 0,
      "note": 57,
      "start": 45.7827,
      "duration": 0.1329,
      "velocity": 88,
      "chip": "ym2612"
    },
    {
      "channel": 2,
      "note": 45,
      "start": 45.7834,
      "duration": 0.1324,
      "velocity": 88,
      "chip": "ym2612"
    },
    {
      "channel": 3,
      "note": 84,
      "start": 45.7841,
      "duration": 0.0651,
      "velocity": 127,
      "chip": "ym2612"
    },
    {
      "channel": 3,
      "note": 84,
      "start": 45.8661,
      "duration": 0.0663,
      "velocity": 127,
      "chip": "ym2612"
    },
    {
      "channel": 0,
      "note": 63,
      "start": 45.937,
      "duration": 0.1454,
      "velocity": 88,
      "chip": "ym2612"
    },
    {
      "channel": 1,
      "note": 59,
      "start": 45.9376,
      "duration": 0.2614,
      "velocity": 91,
      "chip": "ym2612"
    },
    {
      "channel": 2,
      "note": 51,
      "start": 45.9383,
      "duration": 0.1443,
      "velocity": 88,
      "chip": "ym2612"
    },
    {
      "channel": 3,
      "note": 84,
      "start": 45.9389,
      "duration": 0.0644,
      "velocity": 127,
      "chip": "ym2612"
    },
    {
      "channel": 3,
      "note": 84,
      "start": 46.0163,
      "duration": 0.0667,
      "velocity": 127,
      "chip": "ym2612"
    },
    {
      "channel": 0,
      "note": 57,
      "start": 46.0993,
      "duration": 0.1329,
      "velocity": 88,
      "chip": "ym2612"
    },
    {
      "channel": 2,
      "note": 45,
      "start": 46.1002,
      "duration": 0.1323,
      "velocity": 88,
      "chip": "ym2612"
    },
    {
      "channel": 3,
      "note": 84,
      "start": 46.1007,
      "duration": 0.0651,
      "velocity": 127,
      "chip": "ym2612"
    },
    {
      "channel": 3,
      "note": 84,
      "start": 46.1828,
      "duration": 0.0541,
      "velocity": 127,
      "chip": "ym2612"
    },
    {
      "channel": 0,
      "note": 59,
      "start": 46.2493,
      "duration": 0.1495,
      "velocity": 88,
      "chip": "ym2612"
    },
    {
      "channel": 1,
      "note": 53,
      "start": 46.25,
      "duration": 0.2656,
      "velocity": 91,
      "chip": "ym2612"
    },
    {
      "channel": 2,
      "note": 47,
      "start": 46.2507,
      "duration": 0.1484,
      "velocity": 88,
      "chip": "ym2612"
    },
    {
      "channel": 3,
      "note": 84,
      "start": 46.2514,
      "duration": 0.0979,
      "velocity": 127,
      "chip": "ym2612"
    },
    {
      "channel": 3,
      "note": 84,
      "start": 46.3541,
      "duration": 0.0951,
      "velocity": 127,
      "chip": "ym2612"
    },
    {
      "channel": 0,
      "note": 57,
      "start": 46.4164,
      "duration": 0.12,
      "velocity": 88,
      "chip": "ym2612"
    },
    {
      "channel": 2,
      "note": 45,
      "start": 46.4171,
      "duration": 0.1195,
      "velocity": 88,
      "chip": "ym2612"
    },
    {
      "channel": 3,
      "note": 84,
      "start": 46.4661,
      "duration": 0.0831,
      "velocity": 127,
      "chip": "ym2612"
    },
    {
      "channel": 0,
      "note": 63,
      "start": 46.566,
      "duration": 0.1495,
      "velocity": 88,
      "chip": "ym2612"
    },
    {
      "channel": 1,
      "note": 53,
      "start": 46.5666,
      "duration": 0.2657,
      "velocity": 91,
      "chip": "ym2612"
    },
    {
      "channel": 2,
      "note": 51,
      "start": 46.5673,
      "duration": 0.1485,
      "velocity": 88,
      "chip": "ym2612"
    },
    {
      "channel": 0,
      "note": 57,
      "start": 46.7205,
      "duration": 0.1284,
      "velocity": 88,
      "chip": "ym2612"
    },
    {
      "channel": 2,
      "note": 45,
      "start": 46.7212,
      "duration": 0.1279,
      "velocity": 88,
      "chip": "ym2612"
    },
    {
      "channel": 0,
      "note": 59,
      "start": 46.8829,
      "duration": 0.1371,
      "velocity": 88,
      "chip": "ym2612"
    },
    {
      "channel": 1,
      "note": 53,
      "start": 46.8835,
      "duration": 0.2531,
      "velocity": 91,
      "chip": "ym2612"
    },
    {
      "channel": 2,
      "note": 47,
      "start": 46.8842,
      "duration": 0.1361,
      "velocity": 88,
      "chip": "ym2612"
    },
    {
      "channel": 3,
      "note": 83,
      "start": 46.8882,
      "duration": 0.1322,
      "velocity": 119,
      "chip": "ym2612"
    },
    {
      "channel": 0,
      "note": 57,
      "start": 47.0327,
      "duration": 0.1329,
      "velocity": 88,
      "chip": "ym2612"
    },
    {
      "channel": 2,
      "note": 45,
      "start": 47.0335,
      "duration": 0.1323,
      "velocity": 88,
      "chip": "ym2612"
    },
    {
      "channel": 0,
      "note": 63,
      "start": 47.1869,
      "duration": 0.1454,
      "velocity": 88,
      "chip": "ym2612"
    },
    {
      "channel": 1,
      "note": 53,
      "start": 47.1874,
      "duration": 0.2615,
      "velocity": 91,
      "chip": "ym2612"
    },
    {
      "channel": 2,
      "note": 51,
      "start": 47.1881,
      "duration": 0.1444,
      "velocity": 88,
      "chip": "ym2612"
    },
    {
      "channel": 3,
      "note": 33,
      "start": 47.1922,
      "duration": 0.1405,
      "velocity": 101,
      "chip": "ym2612"
    },
    {
      "channel": 0,
      "note": 57,
      "start": 47.3496,
      "duration": 0.1326,
      "velocity": 88,
      "chip": "ym2612"
    },
    {
      "channel": 2,
      "note": 45,
      "start": 47.3504,
      "duration": 0.1324,
      "velocity": 88,
      "chip": "ym2612"
    },
    {
      "channel": 0,
      "note": 58,
      "start": 47.4999,
      "duration": 0.149,
      "velocity": 88,
      "chip": "ym2612"
    },
    {
      "channel": 1,
      "note": 48,
      "start": 47.5012,
      "duration": 0.2644,
      "velocity": 91,
      "chip": "ym2612"
    },
    {
      "channel": 2,
      "note": 46,
      "start": 47.5024,
      "duration": 0.1467,
      "velocity": 88,
      "chip": "ym2612"
    },
    {
      "channel": 3,
      "note": 33,
      "start": 47.503,
      "duration": 0.1463,
      "velocity": 101,
      "chip": "ym2612"
    },
    {
      "channel": 0,
      "note": 52,
      "start": 47.666,
      "duration": 0.1329,
      "velocity": 88,
      "chip": "ym2612"
    },
    {
      "channel": 2,
      "note": 40,
      "start": 47.6668,
      "duration": 0.1324,
      "velocity": 88,
      "chip": "ym2612"
    },
    {
      "channel": 3,
      "note": 33,
      "start": 47.6673,
      "duration": 0.1193,
      "velocity": 101,
      "chip": "ym2612"
    },
    {
      "channel": 0,
      "note": 54,
      "start": 47.8163,
      "duration": 0.1493,
      "velocity": 88,
      "chip": "ym2612"
    },
    {
      "channel": 1,
      "note": 48,
      "start": 47.8168,
      "duration": 0.2656,
      "velocity": 91,
      "chip": "ym2612"
    },
    {
      "channel": 2,
      "note": 42,
      "start": 47.8175,
      "duration": 0.1484,
      "velocity": 88,
      "chip": "ym2612"
    },
    {
      "channel": 3,
      "note": 83,
      "start": 47.8215,
      "duration": 0.1445,
      "velocity": 119,
      "chip": "ym2612"
    },
    {
      "channel": 0,
      "note": 52,
      "start": 47.9706,
      "duration": 0.1283,
      "velocity": 88,
      "chip": "ym2612"
    },
    {
      "channel": 2,
      "note": 40,
      "start": 47.9714,
      "duration": 0.1278,
      "velocity": 88,
      "chip": "ym2612"
    },
    {
      "channel": 0,
      "note": 58,
      "start": 48.1327,
      "duration": 0.1371,
      "velocity": 88,
      "chip": "ym2612"
    },
    {
      "channel": 1,
      "note": 48,
      "start": 48.1332,
      "duration": 0.2532,
      "velocity": 91,
      "chip": "ym2612"
    },
    {
      "channel": 2,
      "note": 46,
      "start": 48.1339,
      "duration": 0.1361,
      "velocity": 88,
      "chip": "ym2612"
    },
    {
      "channel": 3,
      "note": 84,
      "start": 48.138,
      "duration": 0.0612,
      "velocity": 127,
      "chip": "ym2612"
    },
    {
      "channel": 3,
      "note": 84,
      "start": 48.2038,
      "duration": 0.0664,
      "velocity": 127,
      "chip": "ym2612"
    },
    {
      "channel": 0,
      "note": 52,
      "start": 48.2829,
      "duration": 0.1328,
      "velocity": 88,
      "chip": "ym2612"
    },
    {
      "channel": 2,
      "note": 40,
      "start": 48.2837,
      "duration": 0.1322,
      "velocity": 88,
      "chip": "ym2612"
    },
    {
      "channel": 3,
      "note": 84,
      "start": 48.2843,
      "duration": 0.065,
      "velocity": 127,
      "chip": "ym2612"
    },
    {
      "channel": 3,
      "note": 84,
      "start": 48.3661,
      "duration": 0.0663,
      "velocity": 127,
      "chip": "ym2612"
    },
    {
      "channel": 0,
      "note": 54,
      "start": 48.437,
      "duration": 0.1452,
      "velocity": 88,
      "chip": "ym2612"
    },
    {
      "channel": 1,
      "note": 48,
      "start": 48.4376,
      "duration": 0.2614,
      "velocity": 91,
      "chip": "ym2612"
    },
    {
      "channel": 2,
      "note": 42,
      "start": 48.4383,
      "duration": 0.1442,
      "velocity": 88,
      "chip": "ym2612"
    },
    {
      "channel": 3,
      "note": 84,
      "start": 48.4388,
      "duration": 0.0645,
      "velocity": 127,
      "chip": "ym2612"
    },
    {
      "channel": 3,
      "note": 84,
      "start": 48.5161,
      "duration": 0.0666,
      "velocity": 127,
      "chip": "ym2612"
    },
    {
      "channel": 0,
      "note": 52,
      "start": 48.5993,
      "duration": 0.1329,
      "velocity": 88,
      "chip": "ym2612"
    },
    {
      "channel": 2,
      "note": 40,
      "start": 48.6001,
      "duration": 0.1324,
      "velocity": 88,
      "chip": "ym2612"
    },
    {
      "channel": 3,
      "note": 84,
      "start": 48.6007,
      "duration": 0.0651,
      "velocity": 127,
      "chip": "ym2612"
    },
    {
      "channel": 3,
      "note": 84,
      "start": 48.6831,
      "duration": 0.0538,
      "velocity": 127,
      "chip": "ym2612"
    },
    {
      "channel": 0,
      "note": 58,
      "start": 48.7497,
      "duration": 0.1492,
      "velocity": 88,
      "chip": "ym2612"
    },
    {
      "channel": 1,
      "note": 54,
      "start": 48.7504,
      "duration": 0.2652,
      "velocity": 91,
      "chip": "ym2612"
    },
    {
      "channel": 2,
      "note": 46,
      "start": 48.7511,
      "duration": 0.148,
      "velocity": 88,
      "chip": "ym2612"
    },
    {
      "channel": 3,
      "note": 84,
      "start": 48.7517,
      "duration": 0.0975,
      "velocity": 127,
      "chip": "ym2612"
    },
    {
      "channel": 3,
      "note": 84,
      "start": 48.8538,
      "duration": 0.0955,
      "velocity": 127,
      "chip": "ym2612"
    },
    {
      "channel": 0,
      "note": 52,
      "start": 48.916,
      "duration": 0.1204,
      "velocity": 88,
      "chip": "ym2612"
    },
    {
      "channel": 2,
      "note": 40,
      "start": 48.9168,
      "duration": 0.1199,
      "velocity": 88,
      "chip": "ym2612"
    },
    {
      "channel": 3,
      "note": 84,
      "start": 48.9661,
      "duration": 0.0829,
      "velocity": 127,
      "chip": "ym2612"
    },
    {
      "channel": 0,
      "note": 54,
      "start": 49.066,
      "duration": 0.1495,
      "velocity": 88,
      "chip": "ym2612"
    },
    {
      "channel": 1,
      "note": 54,
      "start": 49.0666,
      "duration": 0.2657,
      "velocity": 91,
      "chip": "ym2612"
    },
    {
      "channel": 2,
      "note": 42,
      "start": 49.0673,
      "duration": 0.1488,
      "velocity": 88,
      "chip": "ym2612"
    },
    {
      "channel": 0,
      "note": 52,
      "start": 49.2207,
      "duration": 0.1282,
      "velocity": 88,
      "chip": "ym2612"
    },
    {
      "channel": 2,
      "note": 40,
      "start": 49.2215,
      "duration": 0.1278,
      "velocity": 88,
      "chip": "ym2612"
    },
    {
      "channel": 0,
      "note": 58,
      "start": 49.3827,
      "duration": 0.1371,
      "velocity": 88,
      "chip": "ym2612"
    },
    {
      "channel": 1,
      "note": 54,
      "start": 49.3832,
      "duration": 0.2533,
      "velocity": 91,
      "chip": "ym2612"
    },
    {
      "channel": 2,
      "note": 46,
      "start": 49.3839,
      "duration": 0.1361,
      "velocity": 88,
      "chip": "ym2612"
    },
    {
      "channel": 3,
      "note": 83,
      "start": 49.388,
      "duration": 0.1323,
      "velocity": 119,
      "chip": "ym2612"
    },
    {
      "channel": 0,
      "note": 52,
      "start": 49.5327,
      "duration": 0.1329,
      "velocity": 88,
      "chip": "ym2612"
    },
    {
      "channel": 2,
      "note": 40,
      "start": 49.5334,
      "duration": 0.1324,
      "velocity": 88,
      "chip": "ym2612"
    },
    {
      "channel": 3,
      "note": 83,
      "start": 49.5341,
      "duration": 0.1319,
      "velocity": 119,
      "chip": "ym2612"
    },
    {
      "channel": 0,
      "note": 54,
      "start": 49.6871,
      "duration": 0.1451,
      "velocity": 88,
      "chip": "ym2612"
    },
    {
      "channel": 1,
      "note": 54,
      "start": 49.6877,
      "duration": 0.2612,
      "velocity": 91,
      "chip": "ym2612"
    },
    {
      "channel": 2,
      "note": 42,
      "start": 49.6884,
      "duration": 0.1441,
      "velocity": 88,
      "chip": "ym2612"
    },
    {
      "channel": 3,
      "note": 33,
      "start": 49.6924,
      "duration": 0.1403,
      "velocity": 101,
      "chip": "ym2612"
    },
    {
      "channel": 0,
      "note": 52,
      "start": 49.8493,
      "duration": 0.1329,
      "velocity": 88,
      "chip": "ym2612"
    },
    {
      "channel": 2,
      "note": 40,
      "start": 49.8501,
      "duration": 0.1324,
      "velocity": 88,
      "chip": "ym2612"
    },
    {
      "channel": 0,
      "note": 59,
      "start": 49.9999,
      "duration": 0.149,
      "velocity": 88,
      "chip": "ym2612"
    },
    {
      "channel": 1,
      "note": 59,
      "start": 50.0012,
      "duration": 0.2644,
      "velocity": 91,
      "chip": "ym2612"
    },
    {
      "channel": 2,
      "note": 47,
      "start": 50.0024,
      "duration": 0.1468,
      "velocity": 88,
      "chip": "ym2612"
    },
    {
      "channel": 3,
      "note": 83,
      "start": 50.0065,
      "duration": 0.1431,
      "velocity": 119,
      "chip": "ym2612"
    },
    {
      "channel": 0,
      "note": 60,
      "start": 50.166,
      "duration": 0.1207,
      "velocity": 88,
      "chip": "ym2612"
    },
    {
      "channel": 2,
      "note": 48,
      "start": 50.1668,
      "duration": 0.1201,
      "velocity": 88,
      "chip": "ym2612"
    },
    {
      "channel": 0,
      "note": 59,
      "start": 50.316,
      "duration": 0.1495,
      "velocity": 88,
      "chip": "ym2612"
    },
    {
      "channel": 1,
      "note": 60,
      "start": 50.3167,
      "duration": 0.2656,
      "velocity": 91,
      "chip": "ym2612"
    },
    {
      "channel": 2,
      "note": 47,
      "start": 50.3174,
      "duration": 0.1484,
      "velocity": 88,
      "chip": "ym2612"
    },
    {
      "channel": 3,
      "note": 33,
      "start": 50.3214,
      "duration": 0.1446,
      "velocity": 101,
      "chip": "ym2612"
    },
    {
      "channel": 0,
      "note": 60,
      "start": 50.4706,
      "duration": 0.1283,
      "velocity": 88,
      "chip": "ym2612"
    },
    {
      "channel": 2,
      "note": 48,
      "start": 50.4714,
      "duration": 0.1278,
      "velocity": 88,
      "chip": "ym2612"
    },
    {
      "channel": 3,
      "note": 84,
      "start": 50.4754,
      "duration": 0.1239,
      "velocity": 127,
      "chip": "ym2612"
    },
    {
      "channel": 0,
      "note": 59,
      "start": 50.6327,
      "duration": 0.1371,
      "velocity": 88,
      "chip": "ym2612"
    },
    {
      "channel": 1,
      "note": 59,
      "start": 50.6334,
      "duration": 0.2534,
      "velocity": 91,
      "chip": "ym2612"
    },
    {
      "channel": 2,
      "note": 47,
      "start": 50.6341,
      "duration": 0.136,
      "velocity": 88,
      "chip": "ym2612"
    },
    {
      "channel": 3,
      "note": 83,
      "start": 50.6381,
      "duration": 0.1321,
      "velocity": 119,
      "chip": "ym2612"
    },
    {
      "channel": 0,
      "note": 60,
      "start": 50.7827,
      "duration": 0.1329,
      "velocity": 88,
      "chip": "ym2612"
    },
    {
      "channel": 2,
      "note": 48,
      "start": 50.7834,
      "duration": 0.1324,
      "velocity": 88,
      "chip": "ym2612"
    },
    {
      "channel": 0,
      "note": 59,
      "start": 50.9369,
      "duration": 0.1455,
      "velocity": 88,
      "chip": "ym2612"
    },
    {
      "channel": 1,
      "note": 60,
      "start": 50.9376,
      "duration": 0.2614,
      "velocity": 91,
      "chip": "ym2612"
    },
    {
      "channel": 2,
      "note": 47,
      "start": 50.9383,
      "duration": 0.1443,
      "velocity": 88,
      "chip": "ym2612"
    },
    {
      "channel": 3,
      "note": 33,
      "start": 50.9423,
      "duration": 0.1407,
      "velocity": 101,
      "chip": "ym2612"
    },
    {
      "channel": 0,
      "note": 60,
      "start": 51.0993,
      "duration": 0.1329,
      "velocity": 88,
      "chip": "ym2612"
    },
    {
      "channel": 2,
      "note": 48,
      "start": 51.1002,
      "duration": 0.1323,
      "velocity": 88,
      "chip": "ym2612"
    },
    {
      "channel": 3,
      "note": 84,
      "start": 51.1042,
      "duration": 0.1285,
      "velocity": 127,
      "chip": "ym2612"
    },
    {
      "channel": 0,
      "note": 59,
      "start": 51.2499,
      "duration": 0.149,
      "velocity": 88,
      "chip": "ym2612"
    },
    {
      "channel": 1,
      "note": 59,
      "start": 51.2512,
      "duration": 0.2644,
      "velocity": 91,
      "chip": "ym2612"
    },
    {
      "channel": 2,
      "note": 47,
      "start": 51.2524,
      "duration": 0.1467,
      "velocity": 88,
      "chip": "ym2612"
    },
    {
      "channel": 3,
      "note": 83,
      "start": 51.2565,
      "duration": 0.1428,
      "velocity": 119,
      "chip": "ym2612"
    },
    {
      "channel": 0,
      "note": 60,
      "start": 51.4164,
      "duration": 0.1216,
      "velocity": 88,
      "chip": "ym2612"
    },
    {
      "channel": 2,
      "note": 48,
      "start": 51.4171,
      "duration": 0.1211,
      "velocity": 88,
      "chip": "ym2612"
    },
    {
      "channel": 0,
      "note": 59,
      "start": 51.566,
      "duration": 0.1495,
      "velocity": 88,
      "chip": "ym2612"
    },
    {
      "channel": 2,
      "note": 47,
      "start": 51.5668,
      "duration": 0.149,
      "velocity": 88,
      "chip": "ym2612"
    },
    {
      "channel": 3,
      "note": 33,
      "start": 51.5708,
      "duration": 0.1452,
      "velocity": 101,
      "chip": "ym2612"
    },
    {
      "channel": 1,
      "note": 60,
      "start": 51.5827,
      "duration": 0.2495,
      "velocity": 91,
      "chip": "ym2612"
    },
    {
      "channel": 0,
      "note": 60,
      "start": 51.7206,
      "duration": 0.1283,
      "velocity": 88,
      "chip": "ym2612"
    },
    {
      "channel": 2,
      "note": 48,
      "start": 51.7214,
      "duration": 0.1278,
      "velocity": 88,
      "chip": "ym2612"
    },
    {
      "channel": 3,
      "note": 84,
      "start": 51.7254,
      "duration": 0.1239,
      "velocity": 127,
      "chip": "ym2612"
    },
    {
      "channel": 0,
      "note": 59,
      "start": 51.8829,
      "duration": 0.1371,
      "velocity": 88,
      "chip": "ym2612"
    },
    {
      "channel": 2,
      "note": 47,
      "start": 51.8837,
      "duration": 0.1366,
      "velocity": 88,
      "chip": "ym2612"
    },
    {
      "channel": 3,
      "note": 83,
      "start": 51.8878,
      "duration": 0.1327,
      "velocity": 119,
      "chip": "ym2612"
    },
    {
      "channel": 1,
      "note": 59,
      "start": 51.8932,
      "duration": 0.2433,
      "velocity": 91,
      "chip": "ym2612"
    },
    {
      "channel": 0,
      "note": 60,
      "start": 52.0327,
      "duration": 0.1329,
      "velocity": 88,
      "chip": "ym2612"
    },
    {
      "channel": 2,
      "note": 48,
      "start": 52.0334,
      "duration": 0.1324,
      "velocity": 88,
      "chip": "ym2612"
    },
    {
      "channel": 0,
      "note": 59,
      "start": 52.1869,
      "duration": 0.1454,
      "velocity": 88,
      "chip": "ym2612"
    },
    {
      "channel": 2,
      "note": 47,
      "start": 52.1877,
      "duration": 0.1448,
      "velocity": 88,
      "chip": "ym2612"
    },
    {
      "channel": 3,
      "note": 33,
      "start": 52.1917,
      "duration": 0.141,
      "velocity": 101,
      "chip": "ym2612"
    },
    {
      "channel": 1,
      "note": 60,
      "start": 52.1994,
      "duration": 0.2495,
      "velocity": 91,
      "chip": "ym2612"
    },
    {
      "channel": 0,
      "note": 60,
      "start": 52.3496,
      "duration": 0.1326,
      "velocity": 88,
      "chip": "ym2612"
    },
    {
      "channel": 2,
      "note": 48,
      "start": 52.3504,
      "duration": 0.1324,
      "velocity": 88,
      "chip": "ym2612"
    },
    {
      "channel": 3,
      "note": 84,
      "start": 52.3544,
      "duration": 0.1285,
      "velocity": 127,
      "chip": "ym2612"
    },
    {
      "channel": 0,
      "note": 59,
      "start": 52.4999,
      "duration": 0.149,
      "velocity": 88,
      "chip": "ym2612"
    },
    {
      "channel": 1,
      "note": 59,
      "start": 52.5012,
      "duration": 0.2644,
      "velocity": 91,
      "chip": "ym2612"
    },
    {
      "channel": 2,
      "note": 47,
      "start": 52.5024,
      "duration": 0.1467,
      "velocity": 88,
      "chip": "ym2612"
    },
    {
      "channel": 3,
      "note": 83,
      "start": 52.5065,
      "duration": 0.1428,
      "velocity": 119,
      "chip": "ym2612"
    },
    {
      "channel": 0,
      "note": 60,
      "start": 52.666,
      "duration": 0.1329,
      "velocity": 88,
      "chip": "ym2612"
    },
    {
      "channel": 2,
      "note": 48,
      "start": 52.6668,
      "duration": 0.1324,
      "velocity": 88,
      "chip": "ym2612"
    },
    {
      "channel": 3,
      "note": 33,
      "start": 52.6708,
      "duration": 0.116,
      "velocity": 101,
      "chip": "ym2612"
    },
    {
      "channel": 0,
      "note": 59,
      "start": 52.8163,
      "duration": 0.1493,
      "velocity": 88,
      "chip": "ym2612"
    },
    {
      "channel": 1,
      "note": 60,
      "start": 52.817,
      "duration": 0.2655,
      "velocity": 91,
      "chip": "ym2612"
    },
    {
      "channel": 2,
      "note": 47,
      "start": 52.8177,
      "duration": 0.1482,
      "velocity": 88,
      "chip": "ym2612"
    },
    {
      "channel": 3,
      "note": 33,
      "start": 52.8182,
      "duration": 0.1478,
      "velocity": 101,
      "chip": "ym2612"
    },
    {
      "channel": 0,
      "note": 60,
      "start": 52.9706,
      "duration": 0.1283,
      "velocity": 88,
      "chip": "ym2612"
    },
    {
      "channel": 2,
      "note": 48,
      "start": 52.9714,
      "duration": 0.1278,
      "velocity": 88,
      "chip": "ym2612"
    },
    {
      "channel": 3,
      "note": 84,
      "start": 52.9754,
      "duration": 0.1239,
      "velocity": 127,
      "chip": "ym2612"
    },
    {
      "channel": 0,
      "note": 59,
      "start": 53.1327,
      "duration": 0.1371,
      "velocity": 88,
      "chip": "ym2612"
    },
    {
      "channel": 1,
      "note": 59,
      "start": 53.1334,
      "duration": 0.2532,
      "velocity": 91,
      "chip": "ym2612"
    },
    {
      "channel": 2,
      "note": 47,
      "start": 53.1341,
      "duration": 0.136,
      "velocity": 88,
      "chip": "ym2612"
    },
    {
      "channel": 3,
      "note": 83,
      "start": 53.1381,
      "duration": 0.1321,
      "velocity": 119,
      "chip": "ym2612"
    },
    {
      "channel": 0,
      "note": 60,
      "start": 53.2829,
      "duration": 0.1493,
      "velocity": 88,
      "chip": "ym2612"
    },
    {
      "channel": 2,
      "note": 48,
      "start": 53.2837,
      "duration": 0.1488,
      "velocity": 88,
      "chip": "ym2612"
    },
    {
      "channel": 3,
      "note": 33,
      "start": 53.2877,
      "duration": 0.1282,
      "velocity": 101,
      "chip": "ym2612"
    },
    {
      "channel": 0,
      "note": 59,
      "start": 53.4371,
      "duration": 0.1451,
      "velocity": 88,
      "chip": "ym2612"
    },
    {
      "channel": 1,
      "note": 60,
      "start": 53.4378,
      "duration": 0.2611,
      "velocity": 91,
      "chip": "ym2612"
    },
    {
      "channel": 2,
      "note": 47,
      "start": 53.4385,
      "duration": 0.144,
      "velocity": 88,
      "chip": "ym2612"
    },
    {
      "channel": 3,
      "note": 33,
      "start": 53.439,
      "duration": 0.1436,
      "velocity": 101,
      "chip": "ym2612"
    },
    {
      "channel": 0,
      "note": 60,
      "start": 53.5993,
      "duration": 0.1329,
      "velocity": 88,
      "chip": "ym2612"
    },
    {
      "channel": 2,
      "note": 48,
      "start": 53.6002,
      "duration": 0.1323,
      "velocity": 88,
      "chip": "ym2612"
    },
    {
      "channel": 3,
      "note": 84,
      "start": 53.6042,
      "duration": 0.1285,
      "velocity": 127,
      "chip": "ym2612"
    },
    {
      "channel": 0,
      "note": 59,
      "start": 53.7503,
      "duration": 0.1486,
      "velocity": 88,
      "chip": "ym2612"
    },
    {
      "channel": 1,
      "note": 59,
      "start": 53.7516,
      "duration": 0.2641,
      "velocity": 91,
      "chip": "ym2612"
    },
    {
      "channel": 2,
      "note": 47,
      "start": 53.7528,
      "duration": 0.1463,
      "velocity": 88,
      "chip": "ym2612"
    },
    {
      "channel": 3,
      "note": 83,
      "start": 53.7568,
      "duration": 0.1425,
      "velocity": 119,
      "chip": "ym2612"
    },
    {
      "channel": 0,
      "note": 60,
      "start": 53.916,
      "duration": 0.1329,
      "velocity": 88,
      "chip": "ym2612"
    },
    {
      "channel": 2,
      "note": 48,
      "start": 53.9168,
      "duration": 0.1324,
      "velocity": 88,
      "chip": "ym2612"
    },
    {
      "channel": 3,
      "note": 33,
      "start": 53.9208,
      "duration": 0.1174,
      "velocity": 101,
      "chip": "ym2612"
    },
    {
      "channel": 0,
      "note": 59,
      "start": 54.066,
      "duration": 0.1495,
      "velocity": 88,
      "chip": "ym2612"
    },
    {
      "channel": 1,
      "note": 60,
      "start": 54.0667,
      "duration": 0.2656,
      "velocity": 91,
      "chip": "ym2612"
    },
    {
      "channel": 2,
      "note": 47,
      "start": 54.0674,
      "duration": 0.1487,
      "velocity": 88,
      "chip": "ym2612"
    },
    {
      "channel": 3,
      "note": 33,
      "start": 54.068,
      "duration": 0.1483,
      "velocity": 101,
      "chip": "ym2612"
    },
    {
      "channel": 0,
      "note": 60,
      "start": 54.2233,
      "duration": 0.1423,
      "velocity": 88,
      "chip": "ym2612"
    },
    {
      "channel": 2,
      "note": 48,
      "start": 54.224,
      "duration": 0.1418,
      "velocity": 88,
      "chip": "ym2612"
    },
    {
      "channel": 3,
      "note": 84,
      "start": 54.228,
      "duration": 0.1212,
      "velocity": 127,
      "chip": "ym2612"
    },
    {
      "channel": 0,
      "note": 71,
      "start": 54.3832,
      "duration": 0.0823,
      "velocity": 88,
      "chip": "ym2612"
    },
    {
      "channel": 1,
      "note": 59,
      "start": 54.384,
      "duration": 0.255,
      "velocity": 91,
      "chip": "ym2612"
    },
    {
      "channel": 2,
      "note": 59,
      "start": 54.3853,
      "duration": 0.0805,
      "velocity": 88,
      "chip": "ym2612"
    },
    {
      "channel": 3,
      "note": 84,
      "start": 54.3859,
      "duration": 0.0802,
      "velocity": 127,
      "chip": "ym2612"
    },
    {
      "channel": 0,
      "note": 72,
      "start": 54.4829,
      "duration": 0.0884,
      "velocity": 88,
      "chip": "ym2612"
    },
    {
      "channel": 2,
      "note": 60,
      "start": 54.4837,
      "duration": 0.0878,
      "velocity": 88,
      "chip": "ym2612"
    },
    {
      "channel": 3,
      "note": 84,
      "start": 54.4843,
      "duration": 0.0875,
      "velocity": 127,
      "chip": "ym2612"
    },
    {
      "channel": 0,
      "note": 71,
      "start": 54.5827,
      "duration": 0.0995,
      "velocity": 88,
      "chip": "ym2612"
    },
    {
      "channel": 2,
      "note": 59,
      "start": 54.5835,
      "duration": 0.0993,
      "velocity": 88,
      "chip": "ym2612"
    },
    {
      "channel": 3,
      "note": 84,
      "start": 54.5841,
      "duration": 0.0988,
      "velocity": 127,
      "chip": "ym2612"
    },
    {
      "channel": 0,
      "note": 69,
      "start": 54.6889,
      "duration": 0.0671,
      "velocity": 88,
      "chip": "ym2612"
    },
    {
      "channel": 1,
      "note": 60,
      "start": 54.6896,
      "duration": 0.2593,
      "velocity": 91,
      "chip": "ym2612"
    },
    {
      "channel": 2,
      "note": 57,
      "start": 54.6904,
      "duration": 0.0659,
      "velocity": 88,
      "chip": "ym2612"
    },
    {
      "channel": 3,
      "note": 84,
      "start": 54.691,
      "duration": 0.0654,
      "velocity": 127,
      "chip": "ym2612"
    },
    {
      "channel": 0,
      "note": 67,
      "start": 54.766,
      "duration": 0.0662,
      "velocity": 88,
      "chip": "ym2612"
    },
    {
      "channel": 2,
      "note": 55,
      "start": 54.7668,
      "duration": 0.0657,
      "velocity": 88,
      "chip": "ym2612"
    },
    {
      "channel": 3,
      "note": 84,
      "start": 54.7673,
      "duration": 0.0653,
      "velocity": 127,
      "chip": "ym2612"
    },
    {
      "channel": 0,
      "note": 65,
      "start": 54.8493,
      "duration": 0.0662,
      "velocity": 88,
      "chip": "ym2612"
    },
    {
      "channel": 2,
      "note": 53,
      "start": 54.8501,
      "duration": 0.0657,
      "velocity": 88,
      "chip": "ym2612"
    },
    {
      "channel": 3,
      "note": 84,
      "start": 54.8507,
      "duration": 0.0653,
      "velocity": 127,
      "chip": "ym2612"
    },
    {
      "channel": 0,
      "note": 63,
      "start": 54.9327,
      "duration": 0.0563,
      "velocity": 88,
      "chip": "ym2612"
    },
    {
      "channel": 2,
      "note": 51,
      "start": 54.9334,
      "duration": 0.0558,
      "velocity": 88,
      "chip": "ym2612"
    },
    {
      "channel": 3,
      "note": 84,
      "start": 54.934,
      "duration": 0.0554,
      "velocity": 127,
      "chip": "ym2612"
    },
    {
      "channel": 0,
      "note": 52,
      "start": 55.0026,
      "duration": 0.2888,
      "velocity": 98,
      "chip": "ym2612"
    },
    {
      "channel": 1,
      "note": 52,
      "start": 55.0039,
      "duration": 0.2618,
      "velocity": 91,
      "chip": "ym2612"
    },
    {
      "channel": 2,
      "note": 40,
      "start": 55.0077,
      "duration": 0.2839,
      "velocity": 98,
      "chip": "ym2612"
    },
    {
      "channel": 3,
      "note": 33,
      "start": 55.0119,
      "duration": 0.1374,
      "velocity": 101,
      "chip": "ym2612"
    },
    {
      "channel": 3,
      "note": 33,
      "start": 55.1661,
      "duration": 0.1257,
      "velocity": 101,
      "chip": "ym2612"
    },
    {
      "channel": 0,
      "note": 54,
      "start": 55.316,
      "duration": 0.2744,
      "velocity": 98,
      "chip": "ym2612"
    },
    {
      "channel": 1,
      "note": 52,
      "start": 55.3166,
      "duration": 0.2657,
      "velocity": 91,
      "chip": "ym2612"
    },
    {
      "channel": 2,
      "note": 42,
      "start": 55.3173,
      "duration": 0.2734,
      "velocity": 98,
      "chip": "ym2612"
    },
    {
      "channel": 0,
      "note": 55,
      "start": 55.6327,
      "duration": 0.8401,
      "velocity": 98,
      "chip": "ym2612"
    },
    {
      "channel": 2,
      "note": 43,
      "start": 55.6334,
      "duration": 0.8396,
      "velocity": 98,
      "chip": "ym2612"
    },
    {
      "channel": 3,
      "note": 84,
      "start": 55.6375,
      "duration": 0.0617,
      "velocity": 127,
      "chip": "ym2612"
    },
    {
      "channel": 1,
      "note": 52,
      "start": 55.6408,
      "duration": 0.2498,
      "velocity": 91,
      "chip": "ym2612"
    },
    {
      "channel": 3,
      "note": 84,
      "start": 55.7032,
      "duration": 0.0626,
      "velocity": 127,
      "chip": "ym2612"
    },
    {
      "channel": 3,
      "note": 84,
      "start": 55.7827,
      "duration": 0.0664,
      "velocity": 127,
      "chip": "ym2612"
    },
    {
      "channel": 3,
      "note": 84,
      "start": 55.8661,
      "duration": 0.0663,
      "velocity": 127,
      "chip": "ym2612"
    },
    {
      "channel": 1,
      "note": 52,
      "start": 55.9417,
      "duration": 0.2573,
      "velocity": 91,
      "chip": "ym2612"
    },
    {
      "channel": 3,
      "note": 84,
      "start": 55.9423,
      "duration": 0.0647,
      "velocity": 127,
      "chip": "ym2612"
    },
    {
      "channel": 3,
      "note": 84,
      "start": 56.0163,
      "duration": 0.0662,
      "velocity": 127,
      "chip": "ym2612"
    },
    {
      "channel": 3,
      "note": 84,
      "start": 56.0995,
      "duration": 0.0663,
      "velocity": 127,
      "chip": "ym2612"
    },
    {
      "channel": 3,
      "note": 84,
      "start": 56.1722,
      "duration": 0.0691,
      "velocity": 127,
      "chip": "ym2612"
    },
    {
      "channel": 1,
      "note": 52,
      "start": 56.2493,
      "duration": 0.2663,
      "velocity": 91,
      "chip": "ym2612"
    },
    {
      "channel": 3,
      "note": 84,
      "start": 56.25,
      "duration": 0.0993,
      "velocity": 127,
      "chip": "ym2612"
    },
    {
      "channel": 3,
      "note": 84,
      "start": 56.3584,
      "duration": 0.0907,
      "velocity": 127,
      "chip": "ym2612"
    },
    {
      "channel": 3,
      "note": 84,
      "start": 56.4661,
      "duration": 0.0831,
      "velocity": 127,
      "chip": "ym2612"
    },
    {
      "channel": 0,
      "note": 54,
      "start": 56.566,
      "duration": 0.1495,
      "velocity": 98,
      "chip": "ym2612"
    },
    {
      "channel": 1,
      "note": 52,
      "start": 56.5666,
      "duration": 0.2657,
      "velocity": 91,
      "chip": "ym2612"
    },
    {
      "channel": 2,
      "note": 42,
      "start": 56.5673,
      "duration": 0.1485,
      "velocity": 98,
      "chip": "ym2612"
    },
    {
      "channel": 0,
      "note": 52,
      "start": 56.8829,
      "duration": 0.1326,
      "velocity": 98,
      "chip": "ym2612"
    },
    {
      "channel": 1,
      "note": 52,
      "start": 56.8835,
      "duration": 0.2578,
      "velocity": 91,
      "chip": "ym2612"
    },
    {
      "channel": 2,
      "note": 40,
      "start": 56.8841,
      "duration": 0.1318,
      "velocity": 98,
      "chip": "ym2612"
    },
    {
      "channel": 0,
      "note": 50,
      "start": 57.1904,
      "duration": 0.1419,
      "velocity": 98,
      "chip": "ym2612"
    },
    {
      "channel": 1,
      "note": 52,
      "start": 57.191,
      "duration": 0.258,
      "velocity": 91,
      "chip": "ym2612"
    },
    {
      "channel": 2,
      "note": 38,
      "start": 57.1917,
      "duration": 0.1408,
      "velocity": 98,
      "chip": "ym2612"
    },
    {
      "channel": 3,
      "note": 33,
      "start": 57.1956,
      "duration": 0.137,
      "velocity": 101,
      "chip": "ym2612"
    },
    {
      "channel": 0,
      "note": 49,
      "start": 57.4993,
      "duration": 0.8495,
      "velocity": 98,
      "chip": "ym2612"
    },
    {
      "channel": 1,
      "note": 49,
      "start": 57.5,
      "duration": 0.2656,
      "velocity": 91,
      "chip": "ym2612"
    },
    {
      "channel": 2,
      "note": 37,
      "start": 57.5007,
      "duration": 0.8485,
      "velocity": 98,
      "chip": "ym2612"
    },
    {
      "channel": 3,
      "note": 33,
      "start": 57.5013,
      "duration": 0.1478,
      "velocity": 101,
      "chip": "ym2612"
    },
    {
      "channel": 3,
      "note": 33,
      "start": 57.6661,
      "duration": 0.1254,
      "velocity": 101,
      "chip": "ym2612"
    },
    {
      "channel": 1,
      "note": 49,
      "start": 57.8162,
      "duration": 0.2662,
      "velocity": 91,
      "chip": "ym2612"
    },
    {
      "channel": 1,
      "note": 49,
      "start": 58.1326,
      "duration": 0.2555,
      "velocity": 91,
      "chip": "ym2612"
    },
    {
      "channel": 3,
      "note": 84,
      "start": 58.1368,
      "duration": 0.0624,
      "velocity": 127,
      "chip": "ym2612"
    },
    {
      "channel": 3,
      "note": 84,
      "start": 58.2082,
      "duration": 0.0576,
      "velocity": 127,
      "chip": "ym2612"
    },
    {
      "channel": 3,
      "note": 84,
      "start": 58.283,
      "duration": 0.0666,
      "velocity": 127,
      "chip": "ym2612"
    },
    {
      "channel": 3,
      "note": 84,
      "start": 58.3661,
      "duration": 0.0663,
      "velocity": 127,
      "chip": "ym2612"
    },
    {
      "channel": 0,
      "note": 51,
      "start": 58.4404,
      "duration": 0.2751,
      "velocity": 98,
      "chip": "ym2612"
    },
    {
      "channel": 2,
      "note": 39,
      "start": 58.4412,
      "duration": 0.2746,
      "velocity": 98,
      "chip": "ym2612"
    },
    {
      "channel": 3,
      "note": 84,
      "start": 58.4418,
      "duration": 0.0611,
      "velocity": 127,
      "chip": "ym2612"
    },
    {
      "channel": 1,
      "note": 49,
      "start": 58.4493,
      "duration": 0.2497,
      "velocity": 91,
      "chip": "ym2612"
    },
    {
      "channel": 3,
      "note": 84,
      "start": 58.5161,
      "duration": 0.0664,
      "velocity": 127,
      "chip": "ym2612"
    },
    {
      "channel": 3,
      "note": 84,
      "start": 58.5994,
      "duration": 0.0664,
      "velocity": 127,
      "chip": "ym2612"
    },
    {
      "channel": 3,
      "note": 84,
      "start": 58.6719,
      "duration": 0.0694,
      "velocity": 127,
      "chip": "ym2612"
    },
    {
      "channel": 0,
      "note": 52,
      "start": 58.7497,
      "duration": 1.1826,
      "velocity": 98,
      "chip": "ym2612"
    },
    {
      "channel": 1,
      "note": 49,
      "start": 58.7502,
      "duration": 0.2654,
      "velocity": 91,
      "chip": "ym2612"
    },
    {
      "channel": 2,
      "note": 40,
      "start": 58.7509,
      "duration": 1.1816,
      "velocity": 98,
      "chip": "ym2612"
    },
    {
      "channel": 3,
      "note": 84,
      "start": 58.7516,
      "duration": 0.0976,
      "velocity": 127,
      "chip": "ym2612"
    },
    {
      "channel": 3,
      "note": 84,
      "start": 58.8563,
      "duration": 0.0929,
      "velocity": 127,
      "chip": "ym2612"
    },
    {
      "channel": 3,
      "note": 84,
      "start": 58.9661,
      "duration": 0.0829,
      "velocity": 127,
      "chip": "ym2612"
    },
    {
      "channel": 1,
      "note": 49,
      "start": 59.0659,
      "duration": 0.2663,
      "velocity": 91,
      "chip": "ym2612"
    },
    {
      "channel": 1,
      "note": 49,
      "start": 59.3826,
      "duration": 0.2554,
      "velocity": 91,
      "chip": "ym2612"
    },
    {
      "channel": 1,
      "note": 49,
      "start": 59.6915,
      "duration": 0.2574,
      "velocity": 91,
      "chip": "ym2612"
    },
    {
      "channel": 0,
      "note": 48,
      "start": 59.9993,
      "duration": 0.2829,
      "velocity": 98,
      "chip": "ym2612"
    },
    {
      "channel": 1,
      "note": 48,
      "start": 60.0,
      "duration": 0.2656,
      "velocity": 91,
      "chip": "ym2612"
    },
    {
      "channel": 2,
      "note": 36,
      "start": 60.0007,
      "duration": 0.282,
      "velocity": 98,
      "chip": "ym2612"
    },
    {
      "channel": 3,
      "note": 33,
      "start": 60.0049,
      "duration": 0.1444,
      "velocity": 101,
      "chip": "ym2612"
    },
    {
      "channel": 3,
      "note": 33,
      "start": 60.1661,
      "duration": 0.1247,
      "velocity": 101,
      "chip": "ym2612"
    },
    {
      "channel": 0,
      "note": 50,
      "start": 60.316,
      "duration": 0.2829,
      "velocity": 98,
      "chip": "ym2612"
    },
    {
      "channel": 1,
      "note": 48,
      "start": 60.3166,
      "duration": 0.2657,
      "velocity": 91,
      "chip": "ym2612"
    },
    {
      "channel": 2,
      "note": 38,
      "start": 60.3173,
      "duration": 0.2819,
      "velocity": 98,
      "chip": "ym2612"
    },
    {
      "channel": 0,
      "note": 51,
      "start": 60.6327,
      "duration": 0.8391,
      "velocity": 98,
      "chip": "ym2612"
    },
    {
      "channel": 1,
      "note": 48,
      "start": 60.6332,
      "duration": 0.249,
      "velocity": 91,
      "chip": "ym2612"
    },
    {
      "channel": 2,
      "note": 39,
      "start": 60.6339,
      "duration": 0.8381,
      "velocity": 98,
      "chip": "ym2612"
    },
    {
      "channel": 3,
      "note": 84,
      "start": 60.638,
      "duration": 0.0612,
      "velocity": 127,
      "chip": "ym2612"
    },
    {
      "channel": 3,
      "note": 84,
      "start": 60.7023,
      "duration": 0.0636,
      "velocity": 127,
      "chip": "ym2612"
    },
    {
      "channel": 3,
      "note": 84,
      "start": 60.7827,
      "duration": 0.0664,
      "velocity": 127,
      "chip": "ym2612"
    },
    {
      "channel": 3,
      "note": 84,
      "start": 60.8661,
      "duration": 0.0663,
      "velocity": 127,
      "chip": "ym2612"
    },
    {
      "channel": 1,
      "note": 48,
      "start": 60.9404,
      "duration": 0.2586,
      "velocity": 91,
      "chip": "ym2612"
    },
    {
      "channel": 3,
      "note": 84,
      "start": 60.941,
      "duration": 0.0667,
      "velocity": 127,
      "chip": "ym2612"
    },
    {
      "channel": 3,
      "note": 84,
      "start": 61.0163,
      "duration": 0.0662,
      "velocity": 127,
      "chip": "ym2612"
    },
    {
      "channel": 3,
      "note": 84,
      "start": 61.0995,
      "duration": 0.0663,
      "velocity": 127,
      "chip": "ym2612"
    },
    {
      "channel": 3,
      "note": 84,
      "start": 61.1729,
      "duration": 0.0672,
      "velocity": 127,
      "chip": "ym2612"
    },
    {
      "channel": 1,
      "note": 48,
      "start": 61.2493,
      "duration": 0.2663,
      "velocity": 91,
      "chip": "ym2612"
    },
    {
      "channel": 3,
      "note": 84,
      "start": 61.25,
      "duration": 0.0993,
      "velocity": 127,
      "chip": "ym2612"
    },
    {
      "channel": 3,
      "note": 84,
      "start": 61.3577,
      "duration": 0.0914,
      "velocity": 127,
      "chip": "ym2612"
    },
    {
      "channel": 3,
      "note": 84,
      "start": 61.4661,
      "duration": 0.0831,
      "velocity": 127,
      "chip": "ym2612"
    },
    {
      "channel": 0,
      "note": 50,
      "start": 61.566,
      "duration": 0.1396,
      "velocity": 98,
      "chip": "ym2612"
    },
    {
      "channel": 1,
      "note": 48,
      "start": 61.5666,
      "duration": 0.2657,
      "velocity": 91,
      "chip": "ym2612"
    },
    {
      "channel": 2,
      "note": 38,
      "start": 61.5673,
      "duration": 0.1385,
      "velocity": 98,
      "chip": "ym2612"
    },
    {
      "channel": 0,
      "note": 48,
      "start": 61.8829,
      "duration": 0.1326,
      "velocity": 98,
      "chip": "ym2612"
    },
    {
      "channel": 1,
      "note": 48,
      "start": 61.8835,
      "duration": 0.2488,
      "velocity": 91,
      "chip": "ym2612"
    },
    {
      "channel": 2,
      "note": 36,
      "start": 61.8842,
      "duration": 0.1317,
      "velocity": 98,
      "chip": "ym2612"
    },
    {
      "channel": 0,
      "note": 46,
      "start": 62.1913,
      "duration": 0.1409,
      "velocity": 98,
      "chip": "ym2612"
    },
    {
      "channel": 2,
      "note": 34,
      "start": 62.1921,
      "duration": 0.1404,
      "velocity": 98,
      "chip": "ym2612"
    },
    {
      "channel": 3,
      "note": 33,
      "start": 62.1961,
      "duration": 0.1366,
      "velocity": 101,
      "chip": "ym2612"
    },
    {
      "channel": 1,
      "note": 48,
      "start": 62.1993,
      "duration": 0.2497,
      "velocity": 91,
      "chip": "ym2612"
    },
    {
      "channel": 0,
      "note": 45,
      "start": 62.4993,
      "duration": 2.4329,
      "velocity": 98,
      "chip": "ym2612"
    },
    {
      "channel": 1,
      "note": 57,
      "start": 62.5,
      "duration": 0.2656,
      "velocity": 91,
      "chip": "ym2612"
    },
    {
      "channel": 2,
      "note": 33,
      "start": 62.5007,
      "duration": 2.4317,
      "velocity": 98,
      "chip": "ym2612"
    },
    {
      "channel": 3,
      "note": 33,
      "start": 62.5013,
      "duration": 0.1478,
      "velocity": 101,
      "chip": "ym2612"
    },
    {
      "channel": 3,
      "note": 33,
      "start": 62.6661,
      "duration": 0.1242,
      "velocity": 101,
      "chip": "ym2612"
    },
    {
      "channel": 1,
      "note": 57,
      "start": 62.8162,
      "duration": 0.2662,
      "velocity": 91,
      "chip": "ym2612"
    },
    {
      "channel": 1,
      "note": 57,
      "start": 63.1326,
      "duration": 0.2497,
      "velocity": 91,
      "chip": "ym2612"
    },
    {
      "channel": 3,
      "note": 84,
      "start": 63.1368,
      "duration": 0.0624,
      "velocity": 127,
      "chip": "ym2612"
    },
    {
      "channel": 3,
      "note": 84,
      "start": 63.2076,
      "duration": 0.0583,
      "velocity": 127,
      "chip": "ym2612"
    },
    {
      "channel": 3,
      "note": 84,
      "start": 63.283,
      "duration": 0.0663,
      "velocity": 127,
      "chip": "ym2612"
    },
    {
      "channel": 3,
      "note": 84,
      "start": 63.3661,
      "duration": 0.0663,
      "velocity": 127,
      "chip": "ym2612"
    },
    {
      "channel": 1,
      "note": 57,
      "start": 63.4414,
      "duration": 0.2576,
      "velocity": 91,
      "chip": "ym2612"
    },
    {
      "channel": 3,
      "note": 84,
      "start": 63.442,
      "duration": 0.0649,
      "velocity": 127,
      "chip": "ym2612"
    },
    {
      "channel": 3,
      "note": 84,
      "start": 63.5161,
      "duration": 0.0663,
      "velocity": 127,
      "chip": "ym2612"
    },
    {
      "channel": 3,
      "note": 84,
      "start": 63.5995,
      "duration": 0.0663,
      "velocity": 127,
      "chip": "ym2612"
    },
    {
      "channel": 3,
      "note": 84,
      "start": 63.6729,
      "duration": 0.0653,
      "velocity": 127,
      "chip": "ym2612"
    },
    {
      "channel": 1,
      "note": 57,
      "start": 63.7497,
      "duration": 0.266,
      "velocity": 91,
      "chip": "ym2612"
    },
    {
      "channel": 3,
      "note": 84,
      "start": 63.7503,
      "duration": 0.0989,
      "velocity": 127,
      "chip": "ym2612"
    },
    {
      "channel": 3,
      "note": 84,
      "start": 63.8574,
      "duration": 0.0919,
      "velocity": 127,
      "chip": "ym2612"
    },
    {
      "channel": 3,
      "note": 84,
      "start": 63.9661,
      "duration": 0.083,
      "velocity": 127,
      "chip": "ym2612"
    },
    {
      "channel": 1,
      "note": 57,
      "start": 64.0659,
      "duration": 0.2663,
      "velocity": 91,
      "chip": "ym2612"
    },
    {
      "channel": 1,
      "note": 57,
      "start": 64.3826,
      "duration": 0.2497,
      "velocity": 91,
      "chip": "ym2612"
    },
    {
      "channel": 1,
      "note": 57,
      "start": 64.6885,
      "duration": 0.2604,
      "velocity": 91,
      "chip": "ym2612"
    },
    {
      "channel": 1,
      "note": 47,
      "start": 64.9997,
      "duration": 0.1492,
      "velocity": 91,
      "chip": "ym2612"
    },
    {
      "channel": 3,
      "note": 33,
      "start": 65.0042,
      "duration": 0.1453,
      "velocity": 101,
      "chip": "ym2612"
    },
    {
      "channel": 1,
      "note": 59,
      "start": 65.1661,
      "duration": 0.1329,
      "velocity": 91,
      "chip": "ym2612"
    },
    {
      "channel": 3,
      "note": 33,
      "start": 65.1667,
      "duration": 0.1202,
      "velocity": 101,
      "chip": "ym2612"
    },
    {
      "channel": 1,
      "note": 48,
      "start": 65.3161,
      "duration": 0.1391,
      "velocity": 91,
      "chip": "ym2612"
    },
    {
      "channel": 1,
      "note": 60,
      "start": 65.4661,
      "duration": 0.1495,
      "velocity": 91,
      "chip": "ym2612"
    },
    {
      "channel": 1,
      "note": 47,
      "start": 65.6327,
      "duration": 0.1329,
      "velocity": 91,
      "chip": "ym2612"
    },
    {
      "channel": 3,
      "note": 84,
      "start": 65.6368,
      "duration": 0.0624,
      "velocity": 127,
      "chip": "ym2612"
    },
    {
      "channel": 3,
      "note": 84,
      "start": 65.7039,
      "duration": 0.062,
      "velocity": 127,
      "chip": "ym2612"
    },
    {
      "channel": 1,
      "note": 59,
      "start": 65.7827,
      "duration": 0.1495,
      "velocity": 91,
      "chip": "ym2612"
    },
    {
      "channel": 3,
      "note": 84,
      "start": 65.7834,
      "duration": 0.0657,
      "velocity": 127,
      "chip": "ym2612"
    },
    {
      "channel": 3,
      "note": 84,
      "start": 65.8661,
      "duration": 0.0664,
      "velocity": 127,
      "chip": "ym2612"
    },
    {
      "channel": 1,
      "note": 48,
      "start": 65.9373,
      "duration": 0.1284,
      "velocity": 91,
      "chip": "ym2612"
    },
    {
      "channel": 3,
      "note": 84,
      "start": 65.938,
      "duration": 0.0654,
      "velocity": 127,
      "chip": "ym2612"
    },
    {
      "channel": 3,
      "note": 84,
      "start": 66.0163,
      "duration": 0.0662,
      "velocity": 127,
      "chip": "ym2612"
    },
    {
      "channel": 1,
      "note": 60,
      "start": 66.0994,
      "duration": 0.1392,
      "velocity": 91,
      "chip": "ym2612"
    },
    {
      "channel": 3,
      "note": 84,
      "start": 66.1001,
      "duration": 0.0657,
      "velocity": 127,
      "chip": "ym2612"
    },
    {
      "channel": 3,
      "note": 84,
      "start": 66.1726,
      "duration": 0.0662,
      "velocity": 127,
      "chip": "ym2612"
    },
    {
      "channel": 1,
      "note": 47,
      "start": 66.2494,
      "duration": 0.1495,
      "velocity": 91,
      "chip": "ym2612"
    },
    {
      "channel": 3,
      "note": 84,
      "start": 66.25,
      "duration": 0.0992,
      "velocity": 127,
      "chip": "ym2612"
    },
    {
      "channel": 3,
      "note": 84,
      "start": 66.3541,
      "duration": 0.095,
      "velocity": 127,
      "chip": "ym2612"
    },
    {
      "channel": 1,
      "note": 59,
      "start": 66.4038,
      "duration": 0.1452,
      "velocity": 91,
      "chip": "ym2612"
    },
    {
      "channel": 3,
      "note": 84,
      "start": 66.4661,
      "duration": 0.0833,
      "velocity": 127,
      "chip": "ym2612"
    },
    {
      "channel": 1,
      "note": 48,
      "start": 66.5661,
      "duration": 0.1371,
      "velocity": 91,
      "chip": "ym2612"
    },
    {
      "channel": 1,
      "note": 60,
      "start": 66.7161,
      "duration": 0.1495,
      "velocity": 91,
      "chip": "ym2612"
    },
    {
      "channel": 1,
      "note": 47,
      "start": 66.883,
      "duration": 0.1326,
      "velocity": 91,
      "chip": "ym2612"
    },
    {
      "channel": 1,
      "note": 59,
      "start": 67.0327,
      "duration": 0.1495,
      "velocity": 91,
      "chip": "ym2612"
    },
    {
      "channel": 1,
      "note": 48,
      "start": 67.1892,
      "duration": 0.1431,
      "velocity": 91,
      "chip": "ym2612"
    },
    {
      "channel": 3,
      "note": 33,
      "start": 67.1932,
      "duration": 0.1393,
      "velocity": 101,
      "chip": "ym2612"
    },
    {
      "channel": 1,
      "note": 60,
      "start": 67.3497,
      "duration": 0.1391,
      "velocity": 91,
      "chip": "ym2612"
    },
    {
      "channel": 1,
      "note": 47,
      "start": 67.5003,
      "duration": 0.1487,
      "velocity": 91,
      "chip": "ym2612"
    },
    {
      "channel": 3,
      "note": 33,
      "start": 67.5012,
      "duration": 0.148,
      "velocity": 101,
      "chip": "ym2612"
    },
    {
      "channel": 1,
      "note": 59,
      "start": 67.6539,
      "duration": 0.145,
      "velocity": 91,
      "chip": "ym2612"
    },
    {
      "channel": 3,
      "note": 33,
      "start": 67.6546,
      "duration": 0.1341,
      "velocity": 101,
      "chip": "ym2612"
    },
    {
      "channel": 1,
      "note": 48,
      "start": 67.8163,
      "duration": 0.1371,
      "velocity": 91,
      "chip": "ym2612"
    },
    {
      "channel": 1,
      "note": 60,
      "start": 67.9661,
      "duration": 0.1495,
      "velocity": 91,
      "chip": "ym2612"
    },
    {
      "channel": 1,
      "note": 47,
      "start": 68.1327,
      "duration": 0.1329,
      "velocity": 91,
      "chip": "ym2612"
    },
    {
      "channel": 3,
      "note": 84,
      "start": 68.1368,
      "duration": 0.0624,
      "velocity": 127,
      "chip": "ym2612"
    },
    {
      "channel": 3,
      "note": 84,
      "start": 68.2061,
      "duration": 0.0597,
      "velocity": 127,
      "chip": "ym2612"
    },
    {
      "channel": 1,
      "note": 59,
      "start": 68.283,
      "duration": 0.1493,
      "velocity": 91,
      "chip": "ym2612"
    },
    {
      "channel": 3,
      "note": 84,
      "start": 68.2836,
      "duration": 0.0656,
      "velocity": 127,
      "chip": "ym2612"
    },
    {
      "channel": 3,
      "note": 84,
      "start": 68.3661,
      "duration": 0.0664,
      "velocity": 127,
      "chip": "ym2612"
    },
    {
      "channel": 1,
      "note": 48,
      "start": 68.4392,
      "duration": 0.1431,
      "velocity": 91,
      "chip": "ym2612"
    },
    {
      "channel": 3,
      "note": 84,
      "start": 68.4399,
      "duration": 0.0592,
      "velocity": 127,
      "chip": "ym2612"
    },
    {
      "channel": 3,
      "note": 84,
      "start": 68.5161,
      "duration": 0.0665,
      "velocity": 127,
      "chip": "ym2612"
    },
    {
      "channel": 1,
      "note": 60,
      "start": 68.5994,
      "duration": 0.1371,
      "velocity": 91,
      "chip": "ym2612"
    },
    {
      "channel": 3,
      "note": 84,
      "start": 68.6,
      "duration": 0.0658,
      "velocity": 127,
      "chip": "ym2612"
    },
    {
      "channel": 3,
      "note": 84,
      "start": 68.6705,
      "duration": 0.0663,
      "velocity": 127,
      "chip": "ym2612"
    },
    {
      "channel": 1,
      "note": 53,
      "start": 68.7497,
      "duration": 0.1492,
      "velocity": 91,
      "chip": "ym2612"
    },
    {
      "channel": 3,
      "note": 84,
      "start": 68.7504,
      "duration": 0.0987,
      "velocity": 127,
      "chip": "ym2612"
    },
    {
      "channel": 3,
      "note": 84,
      "start": 68.8558,
      "duration": 0.0934,
      "velocity": 127,
      "chip": "ym2612"
    },
    {
      "channel": 1,
      "note": 65,
      "start": 68.9058,
      "duration": 0.1431,
      "velocity": 91,
      "chip": "ym2612"
    },
    {
      "channel": 3,
      "note": 84,
      "start": 68.9661,
      "duration": 0.0831,
      "velocity": 127,
      "chip": "ym2612"
    },
    {
      "channel": 1,
      "note": 54,
      "start": 69.0661,
      "duration": 0.1394,
      "velocity": 91,
      "chip": "ym2612"
    },
    {
      "channel": 1,
      "note": 66,
      "start": 69.2163,
      "duration": 0.1326,
      "velocity": 91,
      "chip": "ym2612"
    },
    {
      "channel": 1,
      "note": 53,
      "start": 69.3827,
      "duration": 0.1329,
      "velocity": 91,
      "chip": "ym2612"
    },
    {
      "channel": 1,
      "note": 65,
      "start": 69.5327,
      "duration": 0.1495,
      "velocity": 91,
      "chip": "ym2612"
    },
    {
      "channel": 1,
      "note": 54,
      "start": 69.6874,
      "duration": 0.1449,
      "velocity": 91,
      "chip": "ym2612"
    },
    {
      "channel": 1,
      "note": 66,
      "start": 69.8494,
      "duration": 0.1371,
      "velocity": 91,
      "chip": "ym2612"
    },
    {
      "channel": 0,
      "note": 59,
      "start": 70.0027,
      "duration": 0.1462,
      "velocity": 88,
      "chip": "ym2612"
    },
    {
      "channel": 1,
      "note": 47,
      "start": 70.0039,
      "duration": 0.1452,
      "velocity": 91,
      "chip": "ym2612"
    },
    {
      "channel": 2,
      "note": 47,
      "start": 70.008,
      "duration": 0.1415,
      "velocity": 88,
      "chip": "ym2612"
    },
    {
      "channel": 3,
      "note": 33,
      "start": 70.0121,
      "duration": 0.1375,
      "velocity": 101,
      "chip": "ym2612"
    },
    {
      "channel": 0,
      "note": 57,
      "start": 70.1543,
      "duration": 0.1446,
      "velocity": 88,
      "chip": "ym2612"
    },
    {
      "channel": 1,
      "note": 59,
      "start": 70.1551,
      "duration": 0.144,
      "velocity": 91,
      "chip": "ym2612"
    },
    {
      "channel": 2,
      "note": 45,
      "start": 70.1558,
      "duration": 0.1435,
      "velocity": 88,
      "chip": "ym2612"
    },
    {
      "channel": 3,
      "note": 33,
      "start": 70.1563,
      "duration": 0.1431,
      "velocity": 101,
      "chip": "ym2612"
    },
    {
      "channel": 0,
      "note": 63,
      "start": 70.316,
      "duration": 0.1371,
      "velocity": 88,
      "chip": "ym2612"
    },
    {
      "channel": 1,
      "note": 48,
      "start": 70.3167,
      "duration": 0.1366,
      "velocity": 91,
      "chip": "ym2612"
    },
    {
      "channel": 2,
      "note": 51,
      "start": 70.3174,
      "duration": 0.1361,
      "velocity": 88,
      "chip": "ym2612"
    },
    {
      "channel": 3,
      "note": 83,
      "start": 70.3214,
      "duration": 0.1323,
      "velocity": 119,
      "chip": "ym2612"
    },
    {
      "channel": 0,
      "note": 57,
      "start": 70.466,
      "duration": 0.1495,
      "velocity": 88,
      "chip": "ym2612"
    },
    {
      "channel": 1,
      "note": 60,
      "start": 70.4667,
      "duration": 0.149,
      "velocity": 91,
      "chip": "ym2612"
    },
    {
      "channel": 2,
      "note": 45,
      "start": 70.4674,
      "duration": 0.1487,
      "velocity": 88,
      "chip": "ym2612"
    },
    {
      "channel": 0,
      "note": 59,
      "start": 70.6327,
      "duration": 0.1329,
      "velocity": 88,
      "chip": "ym2612"
    },
    {
      "channel": 1,
      "note": 47,
      "start": 70.6334,
      "duration": 0.1324,
      "velocity": 91,
      "chip": "ym2612"
    },
    {
      "channel": 2,
      "note": 47,
      "start": 70.6341,
      "duration": 0.1319,
      "velocity": 88,
      "chip": "ym2612"
    },
    {
      "channel": 3,
      "note": 84,
      "start": 70.6381,
      "duration": 0.0611,
      "velocity": 127,
      "chip": "ym2612"
    },
    {
      "channel": 3,
      "note": 84,
      "start": 70.7039,
      "duration": 0.0622,
      "velocity": 127,
      "chip": "ym2612"
    },
    {
      "channel": 0,
      "note": 57,
      "start": 70.7827,
      "duration": 0.1495,
      "velocity": 88,
      "chip": "ym2612"
    },
    {
      "channel": 1,
      "note": 59,
      "start": 70.7834,
      "duration": 0.149,
      "velocity": 91,
      "chip": "ym2612"
    },
    {
      "channel": 2,
      "note": 45,
      "start": 70.7841,
      "duration": 0.1485,
      "velocity": 88,
      "chip": "ym2612"
    },
    {
      "channel": 3,
      "note": 84,
      "start": 70.7846,
      "duration": 0.0645,
      "velocity": 127,
      "chip": "ym2612"
    },
    {
      "channel": 3,
      "note": 84,
      "start": 70.8661,
      "duration": 0.0497,
      "velocity": 127,
      "chip": "ym2612"
    },
    {
      "channel": 3,
      "note": 84,
      "start": 70.9331,
      "duration": 0.066,
      "velocity": 127,
      "chip": "ym2612"
    },
    {
      "channel": 0,
      "note": 63,
      "start": 70.9378,
      "duration": 0.1445,
      "velocity": 88,
      "chip": "ym2612"
    },
    {
      "channel": 1,
      "note": 48,
      "start": 70.9385,
      "duration": 0.144,
      "velocity": 91,
      "chip": "ym2612"
    },
    {
      "channel": 2,
      "note": 51,
      "start": 70.9392,
      "duration": 0.1437,
      "velocity": 88,
      "chip": "ym2612"
    },
    {
      "channel": 3,
      "note": 84,
      "start": 71.0164,
      "duration": 0.0667,
      "velocity": 127,
      "chip": "ym2612"
    },
    {
      "channel": 0,
      "note": 57,
      "start": 71.0993,
      "duration": 0.1371,
      "velocity": 88,
      "chip": "ym2612"
    },
    {
      "channel": 1,
      "note": 60,
      "start": 71.1,
      "duration": 0.1366,
      "velocity": 91,
      "chip": "ym2612"
    },
    {
      "channel": 2,
      "note": 45,
      "start": 71.1007,
      "duration": 0.1361,
      "velocity": 88,
      "chip": "ym2612"
    },
    {
      "channel": 3,
      "note": 84,
      "start": 71.1013,
      "duration": 0.0645,
      "velocity": 127,
      "chip": "ym2612"
    },
    {
      "channel": 3,
      "note": 84,
      "start": 71.1705,
      "duration": 0.0665,
      "velocity": 127,
      "chip": "ym2612"
    },
    {
      "channel": 0,
      "note": 59,
      "start": 71.2493,
      "duration": 0.1495,
      "velocity": 88,
      "chip": "ym2612"
    },
    {
      "channel": 1,
      "note": 47,
      "start": 71.2506,
      "duration": 0.1485,
      "velocity": 91,
      "chip": "ym2612"
    },
    {
      "channel": 2,
      "note": 47,
      "start": 71.2513,
      "duration": 0.148,
      "velocity": 88,
      "chip": "ym2612"
    },
    {
      "channel": 3,
      "note": 84,
      "start": 71.2519,
      "duration": 0.0974,
      "velocity": 127,
      "chip": "ym2612"
    },
    {
      "channel": 3,
      "note": 84,
      "start": 71.3541,
      "duration": 0.0951,
      "velocity": 127,
      "chip": "ym2612"
    },
    {
      "channel": 0,
      "note": 57,
      "start": 71.4046,
      "duration": 0.1443,
      "velocity": 88,
      "chip": "ym2612"
    },
    {
      "channel": 1,
      "note": 59,
      "start": 71.4053,
      "duration": 0.1438,
      "velocity": 91,
      "chip": "ym2612"
    },
    {
      "channel": 2,
      "note": 45,
      "start": 71.4066,
      "duration": 0.1429,
      "velocity": 88,
      "chip": "ym2612"
    },
    {
      "channel": 3,
      "note": 84,
      "start": 71.4661,
      "duration": 0.0835,
      "velocity": 127,
      "chip": "ym2612"
    },
    {
      "channel": 0,
      "note": 63,
      "start": 71.566,
      "duration": 0.1372,
      "velocity": 88,
      "chip": "ym2612"
    },
    {
      "channel": 1,
      "note": 48,
      "start": 71.5667,
      "duration": 0.1322,
      "velocity": 91,
      "chip": "ym2612"
    },
    {
      "channel": 2,
      "note": 51,
      "start": 71.5674,
      "duration": 0.1361,
      "velocity": 88,
      "chip": "ym2612"
    },
    {
      "channel": 0,
      "note": 57,
      "start": 71.716,
      "duration": 0.1495,
      "velocity": 88,
      "chip": "ym2612"
    },
    {
      "channel": 1,
      "note": 60,
      "start": 71.7167,
      "duration": 0.1322,
      "velocity": 91,
      "chip": "ym2612"
    },
    {
      "channel": 2,
      "note": 45,
      "start": 71.7174,
      "duration": 0.1484,
      "velocity": 88,
      "chip": "ym2612"
    },
    {
      "channel": 0,
      "note": 59,
      "start": 71.8829,
      "duration": 0.1326,
      "velocity": 88,
      "chip": "ym2612"
    },
    {
      "channel": 1,
      "note": 47,
      "start": 71.8836,
      "duration": 0.1321,
      "velocity": 91,
      "chip": "ym2612"
    },
    {
      "channel": 2,
      "note": 47,
      "start": 71.8843,
      "duration": 0.1318,
      "velocity": 88,
      "chip": "ym2612"
    },
    {
      "channel": 3,
      "note": 83,
      "start": 71.8883,
      "duration": 0.128,
      "velocity": 119,
      "chip": "ym2612"
    },
    {
      "channel": 0,
      "note": 57,
      "start": 72.0327,
      "duration": 0.1495,
      "velocity": 88,
      "chip": "ym2612"
    },
    {
      "channel": 1,
      "note": 59,
      "start": 72.0334,
      "duration": 0.149,
      "velocity": 91,
      "chip": "ym2612"
    },
    {
      "channel": 2,
      "note": 45,
      "start": 72.0341,
      "duration": 0.1485,
      "velocity": 88,
      "chip": "ym2612"
    },
    {
      "channel": 0,
      "note": 63,
      "start": 72.1873,
      "duration": 0.145,
      "velocity": 88,
      "chip": "ym2612"
    },
    {
      "channel": 1,
      "note": 48,
      "start": 72.188,
      "duration": 0.1445,
      "velocity": 91,
      "chip": "ym2612"
    },
    {
      "channel": 2,
      "note": 51,
      "start": 72.1887,
      "duration": 0.1439,
      "velocity": 88,
      "chip": "ym2612"
    },
    {
      "channel": 3,
      "note": 33,
      "start": 72.1927,
      "duration": 0.1401,
      "velocity": 101,
      "chip": "ym2612"
    },
    {
      "channel": 0,
      "note": 57,
      "start": 72.3496,
      "duration": 0.1372,
      "velocity": 88,
      "chip": "ym2612"
    },
    {
      "channel": 1,
      "note": 60,
      "start": 72.3503,
      "duration": 0.132,
      "velocity": 91,
      "chip": "ym2612"
    },
    {
      "channel": 2,
      "note": 45,
      "start": 72.351,
      "duration": 0.1361,
      "velocity": 88,
      "chip": "ym2612"
    },
    {
      "channel": 0,
      "note": 63,
      "start": 72.4999,
      "duration": 0.149,
      "velocity": 88,
      "chip": "ym2612"
    },
    {
      "channel": 1,
      "note": 47,
      "start": 72.5012,
      "duration": 0.1479,
      "velocity": 91,
      "chip": "ym2612"
    },
    {
      "channel": 2,
      "note": 51,
      "start": 72.5024,
      "duration": 0.1468,
      "velocity": 88,
      "chip": "ym2612"
    },
    {
      "channel": 3,
      "note": 33,
      "start": 72.5036,
      "duration": 0.1459,
      "velocity": 101,
      "chip": "ym2612"
    },
    {
      "channel": 0,
      "note": 59,
      "start": 72.6541,
      "duration": 0.1448,
      "velocity": 88,
      "chip": "ym2612"
    },
    {
      "channel": 1,
      "note": 59,
      "start": 72.6547,
      "duration": 0.1444,
      "velocity": 91,
      "chip": "ym2612"
    },
    {
      "channel": 2,
      "note": 47,
      "start": 72.6554,
      "duration": 0.1438,
      "velocity": 88,
      "chip": "ym2612"
    },
    {
      "channel": 3,
      "note": 33,
      "start": 72.656,
      "duration": 0.1434,
      "velocity": 101,
      "chip": "ym2612"
    },
    {
      "channel": 0,
      "note": 65,
      "start": 72.8163,
      "duration": 0.1372,
      "velocity": 88,
      "chip": "ym2612"
    },
    {
      "channel": 1,
      "note": 48,
      "start": 72.817,
      "duration": 0.1366,
      "velocity": 91,
      "chip": "ym2612"
    },
    {
      "channel": 2,
      "note": 53,
      "start": 72.8177,
      "duration": 0.1361,
      "velocity": 88,
      "chip": "ym2612"
    },
    {
      "channel": 3,
      "note": 83,
      "start": 72.8217,
      "duration": 0.1323,
      "velocity": 119,
      "chip": "ym2612"
    },
    {
      "channel": 0,
      "note": 59,
      "start": 72.966,
      "duration": 0.1495,
      "velocity": 88,
      "chip": "ym2612"
    },
    {
      "channel": 1,
      "note": 60,
      "start": 72.9667,
      "duration": 0.149,
      "velocity": 91,
      "chip": "ym2612"
    },
    {
      "channel": 2,
      "note": 47,
      "start": 72.9674,
      "duration": 0.1485,
      "velocity": 88,
      "chip": "ym2612"
    },
    {
      "channel": 0,
      "note": 63,
      "start": 73.1327,
      "duration": 0.1329,
      "velocity": 88,
      "chip": "ym2612"
    },
    {
      "channel": 1,
      "note": 47,
      "start": 73.1334,
      "duration": 0.1324,
      "velocity": 91,
      "chip": "ym2612"
    },
    {
      "channel": 2,
      "note": 51,
      "start": 73.1341,
      "duration": 0.1319,
      "velocity": 88,
      "chip": "ym2612"
    },
    {
      "channel": 3,
      "note": 84,
      "start": 73.1381,
      "duration": 0.0486,
      "velocity": 127,
      "chip": "ym2612"
    },
    {
      "channel": 3,
      "note": 84,
      "start": 73.1994,
      "duration": 0.0667,
      "velocity": 127,
      "chip": "ym2612"
    },
    {
      "channel": 0,
      "note": 59,
      "start": 73.2829,
      "duration": 0.1493,
      "velocity": 88,
      "chip": "ym2612"
    },
    {
      "channel": 1,
      "note": 59,
      "start": 73.2836,
      "duration": 0.1488,
      "velocity": 91,
      "chip": "ym2612"
    },
    {
      "channel": 2,
      "note": 47,
      "start": 73.2843,
      "duration": 0.1483,
      "velocity": 88,
      "chip": "ym2612"
    },
    {
      "channel": 3,
      "note": 84,
      "start": 73.2849,
      "duration": 0.0644,
      "velocity": 127,
      "chip": "ym2612"
    },
    {
      "channel": 3,
      "note": 84,
      "start": 73.3661,
      "duration": 0.0667,
      "velocity": 127,
      "chip": "ym2612"
    },
    {
      "channel": 0,
      "note": 65,
      "start": 73.4374,
      "duration": 0.1448,
      "velocity": 88,
      "chip": "ym2612"
    },
    {
      "channel": 1,
      "note": 48,
      "start": 73.4381,
      "duration": 0.1276,
      "velocity": 91,
      "chip": "ym2612"
    },
    {
      "channel": 2,
      "note": 53,
      "start": 73.4388,
      "duration": 0.1437,
      "velocity": 88,
      "chip": "ym2612"
    },
    {
      "channel": 3,
      "note": 84,
      "start": 73.4394,
      "duration": 0.0598,
      "velocity": 127,
      "chip": "ym2612"
    },
    {
      "channel": 3,
      "note": 84,
      "start": 73.5161,
      "duration": 0.0665,
      "velocity": 127,
      "chip": "ym2612"
    },
    {
      "channel": 0,
      "note": 59,
      "start": 73.5993,
      "duration": 0.1373,
      "velocity": 88,
      "chip": "ym2612"
    },
    {
      "channel": 1,
      "note": 60,
      "start": 73.6,
      "duration": 0.1322,
      "velocity": 91,
      "chip": "ym2612"
    },
    {
      "channel": 2,
      "note": 47,
      "start": 73.6007,
      "duration": 0.1361,
      "velocity": 88,
      "chip": "ym2612"
    },
    {
      "channel": 3,
      "note": 84,
      "start": 73.6013,
      "duration": 0.0645,
      "velocity": 127,
      "chip": "ym2612"
    },
    {
      "channel": 3,
      "note": 84,
      "start": 73.6705,
      "duration": 0.0665,
      "velocity": 127,
      "chip": "ym2612"
    },
    {
      "channel": 0,
      "note": 63,
      "start": 73.7502,
      "duration": 0.1487,
      "velocity": 88,
      "chip": "ym2612"
    },
    {
      "channel": 1,
      "note": 53,
      "start": 73.7516,
      "duration": 0.1475,
      "velocity": 91,
      "chip": "ym2612"
    },
    {
      "channel": 2,
      "note": 51,
      "start": 73.7528,
      "duration": 0.1464,
      "velocity": 88,
      "chip": "ym2612"
    },
    {
      "channel": 3,
      "note": 84,
      "start": 73.7534,
      "duration": 0.0957,
      "velocity": 127,
      "chip": "ym2612"
    },
    {
      "channel": 3,
      "note": 84,
      "start": 73.8538,
      "duration": 0.0955,
      "velocity": 127,
      "chip": "ym2612"
    },
    {
      "channel": 0,
      "note": 59,
      "start": 73.904,
      "duration": 0.1449,
      "velocity": 88,
      "chip": "ym2612"
    },
    {
      "channel": 1,
      "note": 65,
      "start": 73.9047,
      "duration": 0.1444,
      "velocity": 91,
      "chip": "ym2612"
    },
    {
      "channel": 2,
      "note": 47,
      "start": 73.9054,
      "duration": 0.1439,
      "velocity": 88,
      "chip": "ym2612"
    },
    {
      "channel": 3,
      "note": 84,
      "start": 73.9661,
      "duration": 0.0833,
      "velocity": 127,
      "chip": "ym2612"
    },
    {
      "channel": 0,
      "note": 65,
      "start": 74.066,
      "duration": 0.1371,
      "velocity": 88,
      "chip": "ym2612"
    },
    {
      "channel": 1,
      "note": 54,
      "start": 74.0667,
      "duration": 0.1366,
      "velocity": 91,
      "chip": "ym2612"
    },
    {
      "channel": 2,
      "note": 53,
      "start": 74.0674,
      "duration": 0.1361,
      "velocity": 88,
      "chip": "ym2612"
    },
    {
      "channel": 0,
      "note": 59,
      "start": 74.2163,
      "duration": 0.1493,
      "velocity": 88,
      "chip": "ym2612"
    },
    {
      "channel": 1,
      "note": 66,
      "start": 74.217,
      "duration": 0.1488,
      "velocity": 91,
      "chip": "ym2612"
    },
    {
      "channel": 2,
      "note": 47,
      "start": 74.2177,
      "duration": 0.1483,
      "velocity": 88,
      "chip": "ym2612"
    },
    {
      "channel": 0,
      "note": 63,
      "start": 74.3827,
      "duration": 0.1329,
      "velocity": 88,
      "chip": "ym2612"
    },
    {
      "channel": 1,
      "note": 53,
      "start": 74.3834,
      "duration": 0.1324,
      "velocity": 91,
      "chip": "ym2612"
    },
    {
      "channel": 2,
      "note": 51,
      "start": 74.3841,
      "duration": 0.1319,
      "velocity": 88,
      "chip": "ym2612"
    },
    {
      "channel": 3,
      "note": 83,
      "start": 74.3881,
      "duration": 0.128,
      "velocity": 119,
      "chip": "ym2612"
    },
    {
      "channel": 0,
      "note": 59,
      "start": 74.5327,
      "duration": 0.1495,
      "velocity": 88,
      "chip": "ym2612"
    },
    {
      "channel": 1,
      "note": 65,
      "start": 74.5334,
      "duration": 0.149,
      "velocity": 91,
      "chip": "ym2612"
    },
    {
      "channel": 2,
      "note": 47,
      "start": 74.5341,
      "duration": 0.1488,
      "velocity": 88,
      "chip": "ym2612"
    },
    {
      "channel": 3,
      "note": 83,
      "start": 74.5346,
      "duration": 0.1483,
      "velocity": 119,
      "chip": "ym2612"
    },
    {
      "channel": 0,
      "note": 65,
      "start": 74.6876,
      "duration": 0.1446,
      "velocity": 88,
      "chip": "ym2612"
    },
    {
      "channel": 1,
      "note": 54,
      "start": 74.6883,
      "duration": 0.1441,
      "velocity": 91,
      "chip": "ym2612"
    },
    {
      "channel": 2,
      "note": 53,
      "start": 74.689,
      "duration": 0.1436,
      "velocity": 88,
      "chip": "ym2612"
    },
    {
      "channel": 3,
      "note": 33,
      "start": 74.693,
      "duration": 0.1397,
      "velocity": 101,
      "chip": "ym2612"
    },
    {
      "channel": 0,
      "note": 59,
      "start": 74.8493,
      "duration": 0.1371,
      "velocity": 88,
      "chip": "ym2612"
    },
    {
      "channel": 1,
      "note": 66,
      "start": 74.85,
      "duration": 0.1366,
      "velocity": 91,
      "chip": "ym2612"
    },
    {
      "channel": 2,
      "note": 47,
      "start": 74.8507,
      "duration": 0.1361,
      "velocity": 88,
      "chip": "ym2612"
    },
    {
      "channel": 0,
      "note": 71,
      "start": 75.0,
      "duration": 0.1488,
      "velocity": 88,
      "chip": "ym2612"
    },
    {
      "channel": 1,
      "note": 52,
      "start": 75.0014,
      "duration": 0.1309,
      "velocity": 91,
      "chip": "ym2612"
    },
    {
      "channel": 2,
      "note": 59,
      "start": 75.0028,
      "duration": 0.1466,
      "velocity": 88,
      "chip": "ym2612"
    },
    {
      "channel": 3,
      "note": 33,
      "start": 75.0034,
      "duration": 0.1462,
      "velocity": 101,
      "chip": "ym2612"
    },
    {
      "channel": 0,
      "note": 55,
      "start": 75.1542,
      "duration": 0.1447,
      "velocity": 88,
      "chip": "ym2612"
    },
    {
      "channel": 1,
      "note": 64,
      "start": 75.1549,
      "duration": 0.1442,
      "velocity": 91,
      "chip": "ym2612"
    },
    {
      "channel": 2,
      "note": 43,
      "start": 75.1556,
      "duration": 0.1437,
      "velocity": 88,
      "chip": "ym2612"
    },
    {
      "channel": 3,
      "note": 33,
      "start": 75.1561,
      "duration": 0.1433,
      "velocity": 101,
      "chip": "ym2612"
    },
    {
      "channel": 0,
      "note": 71,
      "start": 75.316,
      "duration": 0.1371,
      "velocity": 88,
      "chip": "ym2612"
    },
    {
      "channel": 1,
      "note": 52,
      "start": 75.3167,
      "duration": 0.1366,
      "velocity": 91,
      "chip": "ym2612"
    },
    {
      "channel": 2,
      "note": 59,
      "start": 75.3174,
      "duration": 0.1361,
      "velocity": 88,
      "chip": "ym2612"
    },
    {
      "channel": 3,
      "note": 83,
      "start": 75.3215,
      "duration": 0.1323,
      "velocity": 119,
      "chip": "ym2612"
    },
    {
      "channel": 0,
      "note": 55,
      "start": 75.466,
      "duration": 0.1495,
      "velocity": 88,
      "chip": "ym2612"
    },
    {
      "channel": 1,
      "note": 64,
      "start": 75.4667,
      "duration": 0.149,
      "velocity": 91,
      "chip": "ym2612"
    },
    {
      "channel": 2,
      "note": 43,
      "start": 75.4674,
      "duration": 0.1487,
      "velocity": 88,
      "chip": "ym2612"
    },
    {
      "channel": 3,
      "note": 83,
      "start": 75.468,
      "duration": 0.1483,
      "velocity": 119,
      "chip": "ym2612"
    },
    {
      "channel": 0,
      "note": 55,
      "start": 75.6325,
      "duration": 0.133,
      "velocity": 88,
      "chip": "ym2612"
    },
    {
      "channel": 1,
      "note": 52,
      "start": 75.6332,
      "duration": 0.1325,
      "velocity": 91,
      "chip": "ym2612"
    },
    {
      "channel": 2,
      "note": 43,
      "start": 75.6338,
      "duration": 0.1321,
      "velocity": 88,
      "chip": "ym2612"
    },
    {
      "channel": 3,
      "note": 33,
      "start": 75.6378,
      "duration": 0.1283,
      "velocity": 101,
      "chip": "ym2612"
    },
    {
      "channel": 0,
      "note": 55,
      "start": 75.7825,
      "duration": 0.1497,
      "velocity": 88,
      "chip": "ym2612"
    },
    {
      "channel": 1,
      "note": 64,
      "start": 75.7832,
      "duration": 0.1492,
      "velocity": 91,
      "chip": "ym2612"
    },
    {
      "channel": 2,
      "note": 43,
      "start": 75.7838,
      "duration": 0.1488,
      "velocity": 88,
      "chip": "ym2612"
    },
    {
      "channel": 3,
      "note": 33,
      "start": 75.7843,
      "duration": 0.1485,
      "velocity": 101,
      "chip": "ym2612"
    },
    {
      "channel": 0,
      "note": 71,
      "start": 75.9374,
      "duration": 0.1449,
      "velocity": 88,
      "chip": "ym2612"
    },
    {
      "channel": 1,
      "note": 52,
      "start": 75.9381,
      "duration": 0.1444,
      "velocity": 91,
      "chip": "ym2612"
    },
    {
      "channel": 2,
      "note": 59,
      "start": 75.9388,
      "duration": 0.1441,
      "velocity": 88,
      "chip": "ym2612"
    },
    {
      "channel": 3,
      "note": 83,
      "start": 75.9429,
      "duration": 0.1403,
      "velocity": 119,
      "chip": "ym2612"
    },
    {
      "channel": 0,
      "note": 55,
      "start": 76.0993,
      "duration": 0.1371,
      "velocity": 88,
      "chip": "ym2612"
    },
    {
      "channel": 1,
      "note": 64,
      "start": 76.1,
      "duration": 0.1366,
      "velocity": 91,
      "chip": "ym2612"
    },
    {
      "channel": 2,
      "note": 43,
      "start": 76.1007,
      "duration": 0.1361,
      "velocity": 88,
      "chip": "ym2612"
    },
    {
      "channel": 3,
      "note": 33,
      "start": 76.1047,
      "duration": 0.1323,
      "velocity": 101,
      "chip": "ym2612"
    },
    {
      "channel": 0,
      "note": 72,
      "start": 76.2499,
      "duration": 0.149,
      "velocity": 88,
      "chip": "ym2612"
    },
    {
      "channel": 1,
      "note": 52,
      "start": 76.2506,
      "duration": 0.1485,
      "velocity": 91,
      "chip": "ym2612"
    },
    {
      "channel": 2,
      "note": 60,
      "start": 76.2519,
      "duration": 0.1474,
      "velocity": 88,
      "chip": "ym2612"
    },
    {
      "channel": 3,
      "note": 33,
      "start": 76.2524,
      "duration": 0.147,
      "velocity": 101,
      "chip": "ym2612"
    },
    {
      "channel": 0,
      "note": 57,
      "start": 76.4041,
      "duration": 0.1448,
      "velocity": 88,
      "chip": "ym2612"
    },
    {
      "channel": 1,
      "note": 65,
      "start": 76.4047,
      "duration": 0.1444,
      "velocity": 91,
      "chip": "ym2612"
    },
    {
      "channel": 2,
      "note": 45,
      "start": 76.4054,
      "duration": 0.144,
      "velocity": 88,
      "chip": "ym2612"
    },
    {
      "channel": 3,
      "note": 33,
      "start": 76.406,
      "duration": 0.1436,
      "velocity": 101,
      "chip": "ym2612"
    },
    {
      "channel": 0,
      "note": 72,
      "start": 76.566,
      "duration": 0.1371,
      "velocity": 88,
      "chip": "ym2612"
    },
    {
      "channel": 1,
      "note": 52,
      "start": 76.5667,
      "duration": 0.1366,
      "velocity": 91,
      "chip": "ym2612"
    },
    {
      "channel": 2,
      "note": 60,
      "start": 76.5674,
      "duration": 0.1361,
      "velocity": 88,
      "chip": "ym2612"
    },
    {
      "channel": 3,
      "note": 83,
      "start": 76.5715,
      "duration": 0.1323,
      "velocity": 119,
      "chip": "ym2612"
    },
    {
      "channel": 0,
      "note": 57,
      "start": 76.716,
      "duration": 0.1495,
      "velocity": 88,
      "chip": "ym2612"
    },
    {
      "channel": 1,
      "note": 65,
      "start": 76.7167,
      "duration": 0.149,
      "velocity": 91,
      "chip": "ym2612"
    },
    {
      "channel": 2,
      "note": 45,
      "start": 76.7174,
      "duration": 0.1485,
      "velocity": 88,
      "chip": "ym2612"
    },
    {
      "channel": 3,
      "note": 33,
      "start": 76.7214,
      "duration": 0.1447,
      "velocity": 101,
      "chip": "ym2612"
    },
    {
      "channel": 0,
      "note": 57,
      "start": 76.8828,
      "duration": 0.1327,
      "velocity": 88,
      "chip": "ym2612"
    },
    {
      "channel": 1,
      "note": 52,
      "start": 76.8835,
      "duration": 0.1323,
      "velocity": 91,
      "chip": "ym2612"
    },
    {
      "channel": 2,
      "note": 45,
      "start": 76.8841,
      "duration": 0.1321,
      "velocity": 88,
      "chip": "ym2612"
    },
    {
      "channel": 3,
      "note": 33,
      "start": 76.8846,
      "duration": 0.1317,
      "velocity": 101,
      "chip": "ym2612"
    },
    {
      "channel": 0,
      "note": 57,
      "start": 77.0325,
      "duration": 0.1497,
      "velocity": 88,
      "chip": "ym2612"
    },
    {
      "channel": 1,
      "note": 65,
      "start": 77.0332,
      "duration": 0.1492,
      "velocity": 91,
      "chip": "ym2612"
    },
    {
      "channel": 2,
      "note": 45,
      "start": 77.0338,
      "duration": 0.1488,
      "velocity": 88,
      "chip": "ym2612"
    },
    {
      "channel": 3,
      "note": 83,
      "start": 77.0378,
      "duration": 0.145,
      "velocity": 119,
      "chip": "ym2612"
    },
    {
      "channel": 0,
      "note": 72,
      "start": 77.1874,
      "duration": 0.1448,
      "velocity": 88,
      "chip": "ym2612"
    },
    {
      "channel": 1,
      "note": 52,
      "start": 77.1881,
      "duration": 0.1443,
      "velocity": 91,
      "chip": "ym2612"
    },
    {
      "channel": 2,
      "note": 60,
      "start": 77.1888,
      "duration": 0.1438,
      "velocity": 88,
      "chip": "ym2612"
    },
    {
      "channel": 3,
      "note": 83,
      "start": 77.1894,
      "duration": 0.1433,
      "velocity": 119,
      "chip": "ym2612"
    },
    {
      "channel": 0,
      "note": 57,
      "start": 77.3496,
      "duration": 0.1326,
      "velocity": 88,
      "chip": "ym2612"
    },
    {
      "channel": 1,
      "note": 65,
      "start": 77.3503,
      "duration": 0.1321,
      "velocity": 91,
      "chip": "ym2612"
    },
    {
      "channel": 2,
      "note": 45,
      "start": 77.351,
      "duration": 0.1318,
      "velocity": 88,
      "chip": "ym2612"
    },
    {
      "channel": 3,
      "note": 33,
      "start": 77.355,
      "duration": 0.128,
      "velocity": 101,
      "chip": "ym2612"
    },
    {
      "channel": 0,
      "note": 74,
      "start": 77.4999,
      "duration": 0.149,
      "velocity": 88,
      "chip": "ym2612"
    },
    {
      "channel": 1,
      "note": 52,
      "start": 77.5006,
      "duration": 0.1485,
      "velocity": 91,
      "chip": "ym2612"
    },
    {
      "channel": 2,
      "note": 62,
      "start": 77.5019,
      "duration": 0.1474,
      "velocity": 88,
      "chip": "ym2612"
    },
    {
      "channel": 3,
      "note": 33,
      "start": 77.503,
      "duration": 0.1464,
      "velocity": 101,
      "chip": "ym2612"
    },
    {
      "channel": 0,
      "note": 59,
      "start": 77.6541,
      "duration": 0.1448,
      "velocity": 88,
      "chip": "ym2612"
    },
    {
      "channel": 1,
      "note": 67,
      "start": 77.6547,
      "duration": 0.1444,
      "velocity": 91,
      "chip": "ym2612"
    },
    {
      "channel": 2,
      "note": 47,
      "start": 77.6554,
      "duration": 0.1438,
      "velocity": 88,
      "chip": "ym2612"
    },
    {
      "channel": 3,
      "note": 33,
      "start": 77.656,
      "duration": 0.1434,
      "velocity": 101,
      "chip": "ym2612"
    },
    {
      "channel": 0,
      "note": 74,
      "start": 77.8163,
      "duration": 0.1371,
      "velocity": 88,
      "chip": "ym2612"
    },
    {
      "channel": 1,
      "note": 52,
      "start": 77.817,
      "duration": 0.1366,
      "velocity": 91,
      "chip": "ym2612"
    },
    {
      "channel": 2,
      "note": 62,
      "start": 77.8177,
      "duration": 0.1361,
      "velocity": 88,
      "chip": "ym2612"
    },
    {
      "channel": 3,
      "note": 83,
      "start": 77.8217,
      "duration": 0.1322,
      "velocity": 119,
      "chip": "ym2612"
    },
    {
      "channel": 0,
      "note": 59,
      "start": 77.966,
      "duration": 0.1495,
      "velocity": 88,
      "chip": "ym2612"
    },
    {
      "channel": 1,
      "note": 67,
      "start": 77.9667,
      "duration": 0.149,
      "velocity": 91,
      "chip": "ym2612"
    },
    {
      "channel": 2,
      "note": 47,
      "start": 77.9674,
      "duration": 0.1485,
      "velocity": 88,
      "chip": "ym2612"
    },
    {
      "channel": 3,
      "note": 83,
      "start": 77.968,
      "duration": 0.1481,
      "velocity": 119,
      "chip": "ym2612"
    },
    {
      "channel": 0,
      "note": 59,
      "start": 78.1325,
      "duration": 0.133,
      "velocity": 88,
      "chip": "ym2612"
    },
    {
      "channel": 1,
      "note": 52,
      "start": 78.1332,
      "duration": 0.1325,
      "velocity": 91,
      "chip": "ym2612"
    },
    {
      "channel": 2,
      "note": 47,
      "start": 78.1338,
      "duration": 0.1321,
      "velocity": 88,
      "chip": "ym2612"
    },
    {
      "channel": 3,
      "note": 33,
      "start": 78.1378,
      "duration": 0.1283,
      "velocity": 101,
      "chip": "ym2612"
    },
    {
      "channel": 0,
      "note": 59,
      "start": 78.2828,
      "duration": 0.1494,
      "velocity": 88,
      "chip": "ym2612"
    },
    {
      "channel": 1,
      "note": 67,
      "start": 78.2835,
      "duration": 0.1489,
      "velocity": 91,
      "chip": "ym2612"
    },
    {
      "channel": 2,
      "note": 47,
      "start": 78.284,
      "duration": 0.1486,
      "velocity": 88,
      "chip": "ym2612"
    },
    {
      "channel": 3,
      "note": 33,
      "start": 78.2846,
      "duration": 0.1482,
      "velocity": 101,
      "chip": "ym2612"
    },
    {
      "channel": 0,
      "note": 74,
      "start": 78.4374,
      "duration": 0.1448,
      "velocity": 88,
      "chip": "ym2612"
    },
    {
      "channel": 1,
      "note": 52,
      "start": 78.4381,
      "duration": 0.1444,
      "velocity": 91,
      "chip": "ym2612"
    },
    {
      "channel": 2,
      "note": 62,
      "start": 78.4388,
      "duration": 0.1438,
      "velocity": 88,
      "chip": "ym2612"
    },
    {
      "channel": 3,
      "note": 83,
      "start": 78.4428,
      "duration": 0.14,
      "velocity": 119,
      "chip": "ym2612"
    },
    {
      "channel": 0,
      "note": 59,
      "start": 78.5993,
      "duration": 0.1329,
      "velocity": 88,
      "chip": "ym2612"
    },
    {
      "channel": 1,
      "note": 67,
      "start": 78.6,
      "duration": 0.1324,
      "velocity": 91,
      "chip": "ym2612"
    },
    {
      "channel": 2,
      "note": 47,
      "start": 78.6007,
      "duration": 0.1319,
      "velocity": 88,
      "chip": "ym2612"
    },
    {
      "channel": 3,
      "note": 33,
      "start": 78.6047,
      "duration": 0.128,
      "velocity": 101,
      "chip": "ym2612"
    },
    {
      "channel": 0,
      "note": 72,
      "start": 78.7503,
      "duration": 0.1486,
      "velocity": 88,
      "chip": "ym2612"
    },
    {
      "channel": 1,
      "note": 52,
      "start": 78.751,
      "duration": 0.1481,
      "velocity": 91,
      "chip": "ym2612"
    },
    {
      "channel": 2,
      "note": 60,
      "start": 78.7523,
      "duration": 0.147,
      "velocity": 88,
      "chip": "ym2612"
    },
    {
      "channel": 3,
      "note": 33,
      "start": 78.7528,
      "duration": 0.1467,
      "velocity": 101,
      "chip": "ym2612"
    },
    {
      "channel": 0,
      "note": 57,
      "start": 78.9041,
      "duration": 0.1448,
      "velocity": 88,
      "chip": "ym2612"
    },
    {
      "channel": 1,
      "note": 65,
      "start": 78.9047,
      "duration": 0.1444,
      "velocity": 91,
      "chip": "ym2612"
    },
    {
      "channel": 2,
      "note": 45,
      "start": 78.9054,
      "duration": 0.1438,
      "velocity": 88,
      "chip": "ym2612"
    },
    {
      "channel": 3,
      "note": 33,
      "start": 78.906,
      "duration": 0.1434,
      "velocity": 101,
      "chip": "ym2612"
    },
    {
      "channel": 0,
      "note": 72,
      "start": 79.066,
      "duration": 0.1372,
      "velocity": 88,
      "chip": "ym2612"
    },
    {
      "channel": 1,
      "note": 52,
      "start": 79.0667,
      "duration": 0.1322,
      "velocity": 91,
      "chip": "ym2612"
    },
    {
      "channel": 2,
      "note": 60,
      "start": 79.0674,
      "duration": 0.1361,
      "velocity": 88,
      "chip": "ym2612"
    },
    {
      "channel": 3,
      "note": 83,
      "start": 79.0715,
      "duration": 0.1322,
      "velocity": 119,
      "chip": "ym2612"
    },
    {
      "channel": 0,
      "note": 57,
      "start": 79.2163,
      "duration": 0.1493,
      "velocity": 88,
      "chip": "ym2612"
    },
    {
      "channel": 1,
      "note": 65,
      "start": 79.217,
      "duration": 0.1488,
      "velocity": 91,
      "chip": "ym2612"
    },
    {
      "channel": 2,
      "note": 45,
      "start": 79.2177,
      "duration": 0.1483,
      "velocity": 88,
      "chip": "ym2612"
    },
    {
      "channel": 3,
      "note": 33,
      "start": 79.2216,
      "duration": 0.1445,
      "velocity": 101,
      "chip": "ym2612"
    },
    {
      "channel": 0,
      "note": 57,
      "start": 79.3825,
      "duration": 0.133,
      "velocity": 88,
      "chip": "ym2612"
    },
    {
      "channel": 1,
      "note": 52,
      "start": 79.3832,
      "duration": 0.1325,
      "velocity": 91,
      "chip": "ym2612"
    },
    {
      "channel": 2,
      "note": 45,
      "start": 79.3838,
      "duration": 0.1321,
      "velocity": 88,
      "chip": "ym2612"
    },
    {
      "channel": 3,
      "note": 33,
      "start": 79.3844,
      "duration": 0.1317,
      "velocity": 101,
      "chip": "ym2612"
    },
    {
      "channel": 0,
      "note": 57,
      "start": 79.5325,
      "duration": 0.1497,
      "velocity": 88,
      "chip": "ym2612"
    },
    {
      "channel": 1,
      "note": 65,
      "start": 79.5332,
      "duration": 0.1492,
      "velocity": 91,
      "chip": "ym2612"
    },
    {
      "channel": 2,
      "note": 45,
      "start": 79.5338,
      "duration": 0.149,
      "velocity": 88,
      "chip": "ym2612"
    },
    {
      "channel": 3,
      "note": 83,
      "start": 79.5378,
      "duration": 0.1452,
      "velocity": 119,
      "chip": "ym2612"
    },
    {
      "channel": 0,
      "note": 72,
      "start": 79.6876,
      "duration": 0.1446,
      "velocity": 88,
      "chip": "ym2612"
    },
    {
      "channel": 1,
      "note": 52,
      "start": 79.6883,
      "duration": 0.1441,
      "velocity": 91,
      "chip": "ym2612"
    },
    {
      "channel": 2,
      "note": 60,
      "start": 79.6891,
      "duration": 0.1435,
      "velocity": 88,
      "chip": "ym2612"
    },
    {
      "channel": 3,
      "note": 83,
      "start": 79.6897,
      "duration": 0.1431,
      "velocity": 119,
      "chip": "ym2612"
    },
    {
      "channel": 0,
      "note": 57,
      "start": 79.8493,
      "duration": 0.1329,
      "velocity": 88,
      "chip": "ym2612"
    },
    {
      "channel": 1,
      "note": 65,
      "start": 79.85,
      "duration": 0.1324,
      "velocity": 91,
      "chip": "ym2612"
    },
    {
      "channel": 2,
      "note": 45,
      "start": 79.8507,
      "duration": 0.1319,
      "velocity": 88,
      "chip": "ym2612"
    },
    {
      "channel": 3,
      "note": 33,
      "start": 79.8547,
      "duration": 0.128,
      "velocity": 101,
      "chip": "ym2612"
    },
    {
      "channel": 0,
      "note": 71,
      "start": 80.0,
      "duration": 0.1488,
      "velocity": 88,
      "chip": "ym2612"
    },
    {
      "channel": 1,
      "note": 52,
      "start": 80.0009,
      "duration": 0.1314,
      "velocity": 91,
      "chip": "ym2612"
    },
    {
      "channel": 2,
      "note": 59,
      "start": 80.0023,
      "duration": 0.1471,
      "velocity": 88,
      "chip": "ym2612"
    },
    {
      "channel": 3,
      "note": 33,
      "start": 80.003,
      "duration": 0.1466,
      "velocity": 101,
      "chip": "ym2612"
    },
    {
      "channel": 0,
      "note": 55,
      "start": 80.1542,
      "duration": 0.1447,
      "velocity": 88,
      "chip": "ym2612"
    },
    {
      "channel": 1,
      "note": 64,
      "start": 80.1549,
      "duration": 0.1441,
      "velocity": 91,
      "chip": "ym2612"
    },
    {
      "channel": 2,
      "note": 43,
      "start": 80.1556,
      "duration": 0.1437,
      "velocity": 88,
      "chip": "ym2612"
    },
    {
      "channel": 3,
      "note": 33,
      "start": 80.1561,
      "duration": 0.1433,
      "velocity": 101,
      "chip": "ym2612"
    },
    {
      "channel": 0,
      "note": 71,
      "start": 80.316,
      "duration": 0.1371,
      "velocity": 88,
      "chip": "ym2612"
    },
    {
      "channel": 1,
      "note": 52,
      "start": 80.3167,
      "duration": 0.1366,
      "velocity": 91,
      "chip": "ym2612"
    },
    {
      "channel": 2,
      "note": 59,
      "start": 80.3174,
      "duration": 0.1361,
      "velocity": 88,
      "chip": "ym2612"
    },
    {
      "channel": 3,
      "note": 83,
      "start": 80.3215,
      "duration": 0.1322,
      "velocity": 119,
      "chip": "ym2612"
    },
    {
      "channel": 0,
      "note": 55,
      "start": 80.466,
      "duration": 0.1495,
      "velocity": 88,
      "chip": "ym2612"
    },
    {
      "channel": 1,
      "note": 64,
      "start": 80.4667,
      "duration": 0.149,
      "velocity": 91,
      "chip": "ym2612"
    },
    {
      "channel": 2,
      "note": 43,
      "start": 80.4674,
      "duration": 0.1487,
      "velocity": 88,
      "chip": "ym2612"
    },
    {
      "channel": 3,
      "note": 83,
      "start": 80.468,
      "duration": 0.1483,
      "velocity": 119,
      "chip": "ym2612"
    },
    {
      "channel": 0,
      "note": 55,
      "start": 80.6325,
      "duration": 0.133,
      "velocity": 88,
      "chip": "ym2612"
    },
    {
      "channel": 1,
      "note": 52,
      "start": 80.6332,
      "duration": 0.1325,
      "velocity": 91,
      "chip": "ym2612"
    },
    {
      "channel": 2,
      "note": 43,
      "start": 80.6338,
      "duration": 0.1321,
      "velocity": 88,
      "chip": "ym2612"
    },
    {
      "channel": 3,
      "note": 33,
      "start": 80.6378,
      "duration": 0.1283,
      "velocity": 101,
      "chip": "ym2612"
    },
    {
      "channel": 0,
      "note": 55,
      "start": 80.7825,
      "duration": 0.1497,
      "velocity": 88,
      "chip": "ym2612"
    },
    {
      "channel": 1,
      "note": 64,
      "start": 80.7832,
      "duration": 0.1492,
      "velocity": 91,
      "chip": "ym2612"
    },
    {
      "channel": 2,
      "note": 43,
      "start": 80.7838,
      "duration": 0.1488,
      "velocity": 88,
      "chip": "ym2612"
    },
    {
      "channel": 3,
      "note": 33,
      "start": 80.7843,
      "duration": 0.1485,
      "velocity": 101,
      "chip": "ym2612"
    },
    {
      "channel": 0,
      "note": 71,
      "start": 80.9374,
      "duration": 0.145,
      "velocity": 88,
      "chip": "ym2612"
    },
    {
      "channel": 1,
      "note": 52,
      "start": 80.9381,
      "duration": 0.1445,
      "velocity": 91,
      "chip": "ym2612"
    },
    {
      "channel": 2,
      "note": 59,
      "start": 80.9388,
      "duration": 0.1441,
      "velocity": 88,
      "chip": "ym2612"
    },
    {
      "channel": 3,
      "note": 83,
      "start": 80.9429,
      "duration": 0.1403,
      "velocity": 119,
      "chip": "ym2612"
    },
    {
      "channel": 0,
      "note": 55,
      "start": 81.0993,
      "duration": 0.1329,
      "velocity": 88,
      "chip": "ym2612"
    },
    {
      "channel": 1,
      "note": 64,
      "start": 81.1,
      "duration": 0.1324,
      "velocity": 91,
      "chip": "ym2612"
    },
    {
      "channel": 2,
      "note": 43,
      "start": 81.1007,
      "duration": 0.1319,
      "velocity": 88,
      "chip": "ym2612"
    },
    {
      "channel": 3,
      "note": 33,
      "start": 81.1047,
      "duration": 0.128,
      "velocity": 101,
      "chip": "ym2612"
    },
    {
      "channel": 0,
      "note": 72,
      "start": 81.2499,
      "duration": 0.149,
      "velocity": 88,
      "chip": "ym2612"
    },
    {
      "channel": 1,
      "note": 52,
      "start": 81.2506,
      "duration": 0.1485,
      "velocity": 91,
      "chip": "ym2612"
    },
    {
      "channel": 2,
      "note": 60,
      "start": 81.2519,
      "duration": 0.1474,
      "velocity": 88,
      "chip": "ym2612"
    },
    {
      "channel": 3,
      "note": 33,
      "start": 81.2524,
      "duration": 0.147,
      "velocity": 101,
      "chip": "ym2612"
    },
    {
      "channel": 0,
      "note": 57,
      "start": 81.4041,
      "duration": 0.1448,
      "velocity": 88,
      "chip": "ym2612"
    },
    {
      "channel": 1,
      "note": 65,
      "start": 81.4047,
      "duration": 0.1444,
      "velocity": 91,
      "chip": "ym2612"
    },
    {
      "channel": 2,
      "note": 45,
      "start": 81.4054,
      "duration": 0.144,
      "velocity": 88,
      "chip": "ym2612"
    },
    {
      "channel": 3,
      "note": 33,
      "start": 81.406,
      "duration": 0.1436,
      "velocity": 101,
      "chip": "ym2612"
    },
    {
      "channel": 0,
      "note": 72,
      "start": 81.566,
      "duration": 0.1371,
      "velocity": 88,
      "chip": "ym2612"
    },
    {
      "channel": 1,
      "note": 52,
      "start": 81.5667,
      "duration": 0.1366,
      "velocity": 91,
      "chip": "ym2612"
    },
    {
      "channel": 2,
      "note": 60,
      "start": 81.5674,
      "duration": 0.1361,
      "velocity": 88,
      "chip": "ym2612"
    },
    {
      "channel": 3,
      "note": 83,
      "start": 81.5715,
      "duration": 0.1322,
      "velocity": 119,
      "chip": "ym2612"
    },
    {
      "channel": 0,
      "note": 57,
      "start": 81.716,
      "duration": 0.1495,
      "velocity": 88,
      "chip": "ym2612"
    },
    {
      "channel": 1,
      "note": 65,
      "start": 81.7167,
      "duration": 0.149,
      "velocity": 91,
      "chip": "ym2612"
    },
    {
      "channel": 2,
      "note": 45,
      "start": 81.7174,
      "duration": 0.1485,
      "velocity": 88,
      "chip": "ym2612"
    },
    {
      "channel": 3,
      "note": 33,
      "start": 81.7214,
      "duration": 0.1447,
      "velocity": 101,
      "chip": "ym2612"
    },
    {
      "channel": 0,
      "note": 57,
      "start": 81.8828,
      "duration": 0.1327,
      "velocity": 88,
      "chip": "ym2612"
    },
    {
      "channel": 1,
      "note": 52,
      "start": 81.8835,
      "duration": 0.1323,
      "velocity": 91,
      "chip": "ym2612"
    },
    {
      "channel": 2,
      "note": 45,
      "start": 81.8841,
      "duration": 0.1321,
      "velocity": 88,
      "chip": "ym2612"
    },
    {
      "channel": 3,
      "note": 33,
      "start": 81.8846,
      "duration": 0.1317,
      "velocity": 101,
      "chip": "ym2612"
    },
    {
      "channel": 0,
      "note": 57,
      "start": 82.0325,
      "duration": 0.1497,
      "velocity": 88,
      "chip": "ym2612"
    },
    {
      "channel": 1,
      "note": 65,
      "start": 82.0332,
      "duration": 0.1492,
      "velocity": 91,
      "chip": "ym2612"
    },
    {
      "channel": 2,
      "note": 45,
      "start": 82.0338,
      "duration": 0.1488,
      "velocity": 88,
      "chip": "ym2612"
    },
    {
      "channel": 3,
      "note": 83,
      "start": 82.0378,
      "duration": 0.145,
      "velocity": 119,
      "chip": "ym2612"
    },
    {
      "channel": 0,
      "note": 72,
      "start": 82.1874,
      "duration": 0.1448,
      "velocity": 88,
      "chip": "ym2612"
    },
    {
      "channel": 1,
      "note": 52,
      "start": 82.1881,
      "duration": 0.1444,
      "velocity": 91,
      "chip": "ym2612"
    },
    {
      "channel": 2,
      "note": 60,
      "start": 82.1888,
      "duration": 0.1438,
      "velocity": 88,
      "chip": "ym2612"
    },
    {
      "channel": 3,
      "note": 83,
      "start": 82.1894,
      "duration": 0.1433,
      "velocity": 119,
      "chip": "ym2612"
    },
    {
      "channel": 0,
      "note": 57,
      "start": 82.3496,
      "duration": 0.1326,
      "velocity": 88,
      "chip": "ym2612"
    },
    {
      "channel": 1,
      "note": 65,
      "start": 82.3503,
      "duration": 0.1321,
      "velocity": 91,
      "chip": "ym2612"
    },
    {
      "channel": 2,
      "note": 45,
      "start": 82.351,
      "duration": 0.1318,
      "velocity": 88,
      "chip": "ym2612"
    },
    {
      "channel": 3,
      "note": 33,
      "start": 82.355,
      "duration": 0.128,
      "velocity": 101,
      "chip": "ym2612"
    },
    {
      "channel": 0,
      "note": 74,
      "start": 82.4999,
      "duration": 0.149,
      "velocity": 88,
      "chip": "ym2612"
    },
    {
      "channel": 1,
      "note": 52,
      "start": 82.5006,
      "duration": 0.1485,
      "velocity": 91,
      "chip": "ym2612"
    },
    {
      "channel": 2,
      "note": 62,
      "start": 82.5019,
      "duration": 0.1474,
      "velocity": 88,
      "chip": "ym2612"
    },
    {
      "channel": 3,
      "note": 33,
      "start": 82.503,
      "duration": 0.1464,
      "velocity": 101,
      "chip": "ym2612"
    },
    {
      "channel": 0,
      "note": 59,
      "start": 82.6541,
      "duration": 0.1448,
      "velocity": 88,
      "chip": "ym2612"
    },
    {
      "channel": 1,
      "note": 67,
      "start": 82.6547,
      "duration": 0.1444,
      "velocity": 91,
      "chip": "ym2612"
    },
    {
      "channel": 2,
      "note": 47,
      "start": 82.6554,
      "duration": 0.1438,
      "velocity": 88,
      "chip": "ym2612"
    },
    {
      "channel": 3,
      "note": 33,
      "start": 82.656,
      "duration": 0.1434,
      "velocity": 101,
      "chip": "ym2612"
    },
    {
      "channel": 0,
      "note": 74,
      "start": 82.8163,
      "duration": 0.1371,
      "velocity": 88,
      "chip": "ym2612"
    },
    {
      "channel": 1,
      "note": 52,
      "start": 82.817,
      "duration": 0.1366,
      "velocity": 91,
      "chip": "ym2612"
    },
    {
      "channel": 2,
      "note": 62,
      "start": 82.8177,
      "duration": 0.1361,
      "velocity": 88,
      "chip": "ym2612"
    },
    {
      "channel": 3,
      "note": 83,
      "start": 82.8217,
      "duration": 0.1322,
      "velocity": 119,
      "chip": "ym2612"
    },
    {
      "channel": 0,
      "note": 59,
      "start": 82.966,
      "duration": 0.1495,
      "velocity": 88,
      "chip": "ym2612"
    },
    {
      "channel": 1,
      "note": 67,
      "start": 82.9667,
      "duration": 0.149,
      "velocity": 91,
      "chip": "ym2612"
    },
    {
      "channel": 2,
      "note": 47,
      "start": 82.9674,
      "duration": 0.1485,
      "velocity": 88,
      "chip": "ym2612"
    },
    {
      "channel": 3,
      "note": 83,
      "start": 82.968,
      "duration": 0.1481,
      "velocity": 119,
      "chip": "ym2612"
    },
    {
      "channel": 0,
      "note": 59,
      "start": 83.1325,
      "duration": 0.133,
      "velocity": 88,
      "chip": "ym2612"
    },
    {
      "channel": 1,
      "note": 52,
      "start": 83.1332,
      "duration": 0.1325,
      "velocity": 91,
      "chip": "ym2612"
    },
    {
      "channel": 2,
      "note": 47,
      "start": 83.1338,
      "duration": 0.1321,
      "velocity": 88,
      "chip": "ym2612"
    },
    {
      "channel": 3,
      "note": 33,
      "start": 83.1378,
      "duration": 0.1283,
      "velocity": 101,
      "chip": "ym2612"
    },
    {
      "channel": 0,
      "note": 59,
      "start": 83.2828,
      "duration": 0.1373,
      "velocity": 88,
      "chip": "ym2612"
    },
    {
      "channel": 1,
      "note": 67,
      "start": 83.2835,
      "duration": 0.1368,
      "velocity": 91,
      "chip": "ym2612"
    },
    {
      "channel": 2,
      "note": 47,
      "start": 83.284,
      "duration": 0.1365,
      "velocity": 88,
      "chip": "ym2612"
    },
    {
      "channel": 3,
      "note": 33,
      "start": 83.2846,
      "duration": 0.1361,
      "velocity": 101,
      "chip": "ym2612"
    },
    {
      "channel": 0,
      "note": 74,
      "start": 83.4327,
      "duration": 0.1495,
      "velocity": 88,
      "chip": "ym2612"
    },
    {
      "channel": 1,
      "note": 52,
      "start": 83.4334,
      "duration": 0.149,
      "velocity": 91,
      "chip": "ym2612"
    },
    {
      "channel": 2,
      "note": 62,
      "start": 83.4341,
      "duration": 0.1485,
      "velocity": 88,
      "chip": "ym2612"
    },
    {
      "channel": 3,
      "note": 83,
      "start": 83.4381,
      "duration": 0.1446,
      "velocity": 119,
      "chip": "ym2612"
    },
    {
      "channel": 0,
      "note": 59,
      "start": 83.5993,
      "duration": 0.1329,
      "velocity": 88,
      "chip": "ym2612"
    },
    {
      "channel": 1,
      "note": 67,
      "start": 83.6,
      "duration": 0.1324,
      "velocity": 91,
      "chip": "ym2612"
    },
    {
      "channel": 2,
      "note": 47,
      "start": 83.6007,
      "duration": 0.1319,
      "velocity": 88,
      "chip": "ym2612"
    },
    {
      "channel": 3,
      "note": 33,
      "start": 83.6047,
      "duration": 0.128,
      "velocity": 101,
      "chip": "ym2612"
    },
    {
      "channel": 0,
      "note": 72,
      "start": 83.7503,
      "duration": 0.1486,
      "velocity": 88,
      "chip": "ym2612"
    },
    {
      "channel": 1,
      "note": 52,
      "start": 83.751,
      "duration": 0.1481,
      "velocity": 91,
      "chip": "ym2612"
    },
    {
      "channel": 2,
      "note": 60,
      "start": 83.7523,
      "duration": 0.147,
      "velocity": 88,
      "chip": "ym2612"
    },
    {
      "channel": 3,
      "note": 33,
      "start": 83.7528,
      "duration": 0.1467,
      "velocity": 101,
      "chip": "ym2612"
    },
    {
      "channel": 0,
      "note": 57,
      "start": 83.9041,
      "duration": 0.1448,
      "velocity": 88,
      "chip": "ym2612"
    },
    {
      "channel": 1,
      "note": 65,
      "start": 83.9047,
      "duration": 0.1444,
      "velocity": 91,
      "chip": "ym2612"
    },
    {
      "channel": 2,
      "note": 45,
      "start": 83.9054,
      "duration": 0.1438,
      "velocity": 88,
      "chip": "ym2612"
    },
    {
      "channel": 3,
      "note": 33,
      "start": 83.906,
      "duration": 0.1434,
      "velocity": 101,
      "chip": "ym2612"
    },
    {
      "channel": 0,
      "note": 72,
      "start": 84.066,
      "duration": 0.1373,
      "velocity": 88,
      "chip": "ym2612"
    },
    {
      "channel": 1,
      "note": 52,
      "start": 84.0667,
      "duration": 0.1322,
      "velocity": 91,
      "chip": "ym2612"
    },
    {
      "channel": 2,
      "note": 60,
      "start": 84.0674,
      "duration": 0.1361,
      "velocity": 88,
      "chip": "ym2612"
    },
    {
      "channel": 3,
      "note": 83,
      "start": 84.0715,
      "duration": 0.1322,
      "velocity": 119,
      "chip": "ym2612"
    },
    {
      "channel": 0,
      "note": 57,
      "start": 84.2163,
      "duration": 0.1493,
      "velocity": 88,
      "chip": "ym2612"
    },
    {
      "channel": 1,
      "note": 65,
      "start": 84.217,
      "duration": 0.1488,
      "velocity": 91,
      "chip": "ym2612"
    },
    {
      "channel": 2,
      "note": 45,
      "start": 84.2177,
      "duration": 0.1483,
      "velocity": 88,
      "chip": "ym2612"
    },
    {
      "channel": 3,
      "note": 33,
      "start": 84.2216,
      "duration": 0.1445,
      "velocity": 101,
      "chip": "ym2612"
    },
    {
      "channel": 0,
      "note": 57,
      "start": 84.3825,
      "duration": 0.133,
      "velocity": 88,
      "chip": "ym2612"
    },
    {
      "channel": 1,
      "note": 52,
      "start": 84.3832,
      "duration": 0.1325,
      "velocity": 91,
      "chip": "ym2612"
    },
    {
      "channel": 2,
      "note": 45,
      "start": 84.3838,
      "duration": 0.1321,
      "velocity": 88,
      "chip": "ym2612"
    },
    {
      "channel": 3,
      "note": 33,
      "start": 84.3844,
      "duration": 0.1317,
      "velocity": 101,
      "chip": "ym2612"
    },
    {
      "channel": 0,
      "note": 57,
      "start": 84.5325,
      "duration": 0.1373,
      "velocity": 88,
      "chip": "ym2612"
    },
    {
      "channel": 1,
      "note": 65,
      "start": 84.5332,
      "duration": 0.1368,
      "velocity": 91,
      "chip": "ym2612"
    },
    {
      "channel": 2,
      "note": 45,
      "start": 84.5338,
      "duration": 0.1364,
      "velocity": 88,
      "chip": "ym2612"
    },
    {
      "channel": 3,
      "note": 83,
      "start": 84.5378,
      "duration": 0.1326,
      "velocity": 119,
      "chip": "ym2612"
    },
    {
      "channel": 0,
      "note": 72,
      "start": 84.6829,
      "duration": 0.1493,
      "velocity": 88,
      "chip": "ym2612"
    },
    {
      "channel": 1,
      "note": 52,
      "start": 84.6836,
      "duration": 0.1488,
      "velocity": 91,
      "chip": "ym2612"
    },
    {
      "channel": 2,
      "note": 60,
      "start": 84.6843,
      "duration": 0.1483,
      "velocity": 88,
      "chip": "ym2612"
    },
    {
      "channel": 3,
      "note": 83,
      "start": 84.6849,
      "duration": 0.1478,
      "velocity": 119,
      "chip": "ym2612"
    },
    {
      "channel": 0,
      "note": 57,
      "start": 84.8493,
      "duration": 0.1329,
      "velocity": 88,
      "chip": "ym2612"
    },
    {
      "channel": 1,
      "note": 65,
      "start": 84.85,
      "duration": 0.1324,
      "velocity": 91,
      "chip": "ym2612"
    },
    {
      "channel": 2,
      "note": 45,
      "start": 84.8507,
      "duration": 0.1319,
      "velocity": 88,
      "chip": "ym2612"
    },
    {
      "channel": 3,
      "note": 33,
      "start": 84.8547,
      "duration": 0.128,
      "velocity": 101,
      "chip": "ym2612"
    },
    {
      "channel": 0,
      "note": 71,
      "start": 85.0,
      "duration": 2.4322,
      "velocity": 88,
      "chip": "ym2612"
    },
    {
      "channel": 1,
      "note": 53,
      "start": 85.0009,
      "duration": 2.4316,
      "velocity": 91,
      "chip": "ym2612"
    },
    {
      "channel": 2,
      "note": 57,
      "start": 85.0023,
      "duration": 2.4303,
      "velocity": 88,
      "chip": "ym2612"
    },
    {
      "channel": 3,
      "note": 83,
      "start": 85.0064,
      "duration": 0.0428,
      "velocity": 119,
      "chip": "ym2612"
    },
    {
      "channel": 3,
      "note": 83,
      "start": 85.0494,
      "duration": 0.0504,
      "velocity": 119,
      "chip": "ym2612"
    },
    {
      "channel": 3,
      "note": 83,
      "start": 85.1,
      "duration": 0.0537,
      "velocity": 119,
      "chip": "ym2612"
    },
    {
      "channel": 3,
      "note": 83,
      "start": 85.154,
      "duration": 0.0627,
      "velocity": 119,
      "chip": "ym2612"
    },
    {
      "channel": 3,
      "note": 83,
      "start": 85.217,
      "duration": 0.0489,
      "velocity": 119,
      "chip": "ym2612"
    },
    {
      "channel": 3,
      "note": 83,
      "start": 85.2661,
      "duration": 0.0503,
      "velocity": 119,
      "chip": "ym2612"
    },
    {
      "channel": 3,
      "note": 83,
      "start": 85.3167,
      "duration": 0.0492,
      "velocity": 119,
      "chip": "ym2612"
    },
    {
      "channel": 3,
      "note": 83,
      "start": 85.3661,
      "duration": 0.0507,
      "velocity": 119,
      "chip": "ym2612"
    },
    {
      "channel": 3,
      "note": 83,
      "start": 85.417,
      "duration": 0.0488,
      "velocity": 119,
      "chip": "ym2612"
    },
    {
      "channel": 3,
      "note": 83,
      "start": 85.4661,
      "duration": 0.0504,
      "velocity": 119,
      "chip": "ym2612"
    },
    {
      "channel": 3,
      "note": 83,
      "start": 85.5167,
      "duration": 0.0534,
      "velocity": 119,
      "chip": "ym2612"
    },
    {
      "channel": 3,
      "note": 83,
      "start": 85.5704,
      "duration": 0.0628,
      "velocity": 119,
      "chip": "ym2612"
    },
    {
      "channel": 3,
      "note": 83,
      "start": 85.6334,
      "duration": 0.0494,
      "velocity": 119,
      "chip": "ym2612"
    },
    {
      "channel": 3,
      "note": 83,
      "start": 85.6831,
      "duration": 0.0501,
      "velocity": 119,
      "chip": "ym2612"
    },
    {
      "channel": 3,
      "note": 83,
      "start": 85.7334,
      "duration": 0.0492,
      "velocity": 119,
      "chip": "ym2612"
    },
    {
      "channel": 3,
      "note": 83,
      "start": 85.7827,
      "duration": 0.0504,
      "velocity": 119,
      "chip": "ym2612"
    },
    {
      "channel": 3,
      "note": 83,
      "start": 85.8334,
      "duration": 0.0494,
      "velocity": 119,
      "chip": "ym2612"
    },
    {
      "channel": 3,
      "note": 83,
      "start": 85.883,
      "duration": 0.0502,
      "velocity": 119,
      "chip": "ym2612"
    },
    {
      "channel": 3,
      "note": 83,
      "start": 85.9334,
      "duration": 0.0534,
      "velocity": 119,
      "chip": "ym2612"
    },
    {
      "channel": 3,
      "note": 83,
      "start": 85.987,
      "duration": 0.0628,
      "velocity": 119,
      "chip": "ym2612"
    },
    {
      "channel": 3,
      "note": 83,
      "start": 86.05,
      "duration": 0.0492,
      "velocity": 119,
      "chip": "ym2612"
    },
    {
      "channel": 3,
      "note": 83,
      "start": 86.0995,
      "duration": 0.0506,
      "velocity": 119,
      "chip": "ym2612"
    },
    {
      "channel": 3,
      "note": 83,
      "start": 86.1503,
      "duration": 0.0489,
      "velocity": 119,
      "chip": "ym2612"
    },
    {
      "channel": 3,
      "note": 83,
      "start": 86.1995,
      "duration": 0.0504,
      "velocity": 119,
      "chip": "ym2612"
    },
    {
      "channel": 3,
      "note": 83,
      "start": 86.25,
      "duration": 0.0492,
      "velocity": 119,
      "chip": "ym2612"
    },
    {
      "channel": 3,
      "note": 83,
      "start": 86.2994,
      "duration": 0.0501,
      "velocity": 119,
      "chip": "ym2612"
    },
    {
      "channel": 3,
      "note": 83,
      "start": 86.3497,
      "duration": 0.0539,
      "velocity": 119,
      "chip": "ym2612"
    },
    {
      "channel": 3,
      "note": 83,
      "start": 86.4038,
      "duration": 0.0622,
      "velocity": 119,
      "chip": "ym2612"
    },
    {
      "channel": 3,
      "note": 83,
      "start": 86.4661,
      "duration": 0.0546,
      "velocity": 119,
      "chip": "ym2612"
    },
    {
      "channel": 3,
      "note": 83,
      "start": 86.521,
      "duration": 0.3115,
      "velocity": 119,
      "chip": "ym2612"
    },
    {
      "channel": 1,
      "note": 59,
      "start": 87.5076,
      "duration": 0.2581,
      "velocity": 91,
      "chip": "ym2612"
    },
    {
      "channel": 3,
      "note": 83,
      "start": 87.5163,
      "duration": 0.0506,
      "velocity": 119,
      "chip": "ym2612"
    },
    {
      "channel": 3,
      "note": 83,
      "start": 87.5672,
      "duration": 0.0664,
      "velocity": 119,
      "chip": "ym2612"
    },
    {
      "channel": 3,
      "note": 83,
      "start": 87.6339,
      "duration": 0.3153,
      "velocity": 119,
      "chip": "ym2612"
    },
    {
      "channel": 1,
      "note": 60,
      "start": 87.8163,
      "duration": 0.2661,
      "velocity": 91,
      "chip": "ym2612"
    }
  ]
}