{
  "track_name": "08 - Bam Bam Bigelow",
  "duration_sec": 42.25,
  "sample_rate": 44100,
  "note_count": 141,
  "unique_pitches": 21,
  "pitch_range": 67,
  "avg_note_duration": 0.9222,
  "reconstruction_stats": {
    "notes_reconstructed": 141,
    "keyon_events": 141,
    "keyoff_events": 140,
    "orphan_keyons": 1,
    "unique_pitches": 21,
    "pitch_range": 67,
    "avg_duration_sec": 0.9222
  },
  "metadata": {
    "source": "W\\WWF Raw\\08 - Bam Bam Bigelow.vgz"
  },
  "notes": [
    {
      "channel": 1,
      "note": 61,
      "start": 0.0,
      "duration": 0.0,
      "velocity": 1,
      "chip": "ym2612"
    },
    {
      "channel": 3,
      "note": 78,
      "start": 0.0135,
      "duration": 4.2662,
      "velocity": 115,
      "chip": "ym2612"
    },
    {
      "channel": 0,
      "note": 63,
      "start": 0.0164,
      "duration": 4.3263,
      "velocity": 115,
      "chip": "ym2612"
    },
    {
      "channel": 1,
      "note": 73,
      "start": 0.019,
      "duration": 4.3239,
      "velocity": 115,
      "chip": "ym2612"
    },
    {
      "channel": 4,
      "note": 58,
      "start": 0.0222,
      "duration": 4.3208,
      "velocity": 115,
      "chip": "ym2612"
    },
    {
      "channel": 2,
      "note": 51,
      "start": 4.3645,
      "duration": 4.2454,
      "velocity": 118,
      "chip": "ym2612"
    },
    {
      "channel": 3,
      "note": 61,
      "start": 4.3697,
      "duration": 0.1048,
      "velocity": 124,
      "chip": "ym2612"
    },
    {
      "channel": 0,
      "note": 61,
      "start": 4.48,
      "duration": 0.1276,
      "velocity": 124,
      "chip": "ym2612"
    },
    {
      "channel": 1,
      "note": 61,
      "start": 4.6134,
      "duration": 0.1277,
      "velocity": 124,
      "chip": "ym2612"
    },
    {
      "channel": 4,
      "note": 80,
      "start": 4.6972,
      "duration": 3.244,
      "velocity": 93,
      "chip": "ym2612"
    },
    {
      "channel": 5,
      "note": 82,
      "start": 4.7453,
      "duration": 3.1793,
      "velocity": 93,
      "chip": "ym2612"
    },
    {
      "channel": 3,
      "note": 97,
      "start": 4.7485,
      "duration": 3.1593,
      "velocity": 93,
      "chip": "ym2612"
    },
    {
      "channel": 0,
      "note": 61,
      "start": 5.4277,
      "duration": 0.13,
      "velocity": 124,
      "chip": "ym2612"
    },
    {
      "channel": 1,
      "note": 61,
      "start": 5.5617,
      "duration": 0.1293,
      "velocity": 124,
      "chip": "ym2612"
    },
    {
      "channel": 0,
      "note": 61,
      "start": 5.6952,
      "duration": 0.1292,
      "velocity": 124,
      "chip": "ym2612"
    },
    {
      "channel": 1,
      "note": 61,
      "start": 6.5115,
      "duration": 0.1296,
      "velocity": 124,
      "chip": "ym2612"
    },
    {
      "channel": 0,
      "note": 61,
      "start": 6.6447,
      "duration": 0.1296,
      "velocity": 124,
      "chip": "ym2612"
    },
    {
      "channel": 1,
      "note": 61,
      "start": 6.7781,
      "duration": 0.1296,
      "velocity": 124,
      "chip": "ym2612"
    },
    {
      "channel": 0,
      "note": 61,
      "start": 7.5944,
      "duration": 0.13,
      "velocity": 124,
      "chip": "ym2612"
    },
    {
      "channel": 1,
      "note": 61,
      "start": 7.728,
      "duration": 0.1298,
      "velocity": 124,
      "chip": "ym2612"
    },
    {
      "channel": 0,
      "note": 61,
      "start": 7.8615,
      "duration": 0.1295,
      "velocity": 124,
      "chip": "ym2612"
    },
    {
      "channel": 2,
      "note": 49,
      "start": 8.6822,
      "duration": 4.2611,
      "velocity": 118,
      "chip": "ym2612"
    },
    {
      "channel": 1,
      "note": 61,
      "start": 8.6867,
      "duration": 0.1211,
      "velocity": 124,
      "chip": "ym2612"
    },
    {
      "channel": 3,
      "note": 61,
      "start": 8.8114,
      "duration": 0.1298,
      "velocity": 124,
      "chip": "ym2612"
    },
    {
      "channel": 4,
      "note": 104,
      "start": 8.895,
      "duration": 3.4295,
      "velocity": 93,
      "chip": "ym2612"
    },
    {
      "channel": 0,
      "note": 61,
      "start": 8.9446,
      "duration": 0.1298,
      "velocity": 124,
      "chip": "ym2612"
    },
    {
      "channel": 5,
      "note": 97,
      "start": 8.9622,
      "duration": 3.4124,
      "velocity": 93,
      "chip": "ym2612"
    },
    {
      "channel": 1,
      "note": 82,
      "start": 8.9651,
      "duration": 3.4093,
      "velocity": 93,
      "chip": "ym2612"
    },
    {
      "channel": 3,
      "note": 61,
      "start": 9.7611,
      "duration": 0.13,
      "velocity": 124,
      "chip": "ym2612"
    },
    {
      "channel": 0,
      "note": 61,
      "start": 9.8946,
      "duration": 0.1298,
      "velocity": 124,
      "chip": "ym2612"
    },
    {
      "channel": 3,
      "note": 61,
      "start": 10.0281,
      "duration": 0.1297,
      "velocity": 124,
      "chip": "ym2612"
    },
    {
      "channel": 0,
      "note": 61,
      "start": 10.8444,
      "duration": 0.13,
      "velocity": 124,
      "chip": "ym2612"
    },
    {
      "channel": 3,
      "note": 61,
      "start": 10.978,
      "duration": 0.1297,
      "velocity": 124,
      "chip": "ym2612"
    },
    {
      "channel": 0,
      "note": 61,
      "start": 11.1114,
      "duration": 0.1296,
      "velocity": 124,
      "chip": "ym2612"
    },
    {
      "channel": 3,
      "note": 61,
      "start": 11.9277,
      "duration": 0.1301,
      "velocity": 124,
      "chip": "ym2612"
    },
    {
      "channel": 0,
      "note": 61,
      "start": 12.0614,
      "duration": 0.1297,
      "velocity": 124,
      "chip": "ym2612"
    },
    {
      "channel": 3,
      "note": 61,
      "start": 12.1948,
      "duration": 0.1296,
      "velocity": 124,
      "chip": "ym2612"
    },
    {
      "channel": 2,
      "note": 46,
      "start": 13.0155,
      "duration": 4.2611,
      "velocity": 118,
      "chip": "ym2612"
    },
    {
      "channel": 0,
      "note": 61,
      "start": 13.02,
      "duration": 0.121,
      "velocity": 124,
      "chip": "ym2612"
    },
    {
      "channel": 3,
      "note": 61,
      "start": 13.1447,
      "duration": 0.1297,
      "velocity": 124,
      "chip": "ym2612"
    },
    {
      "channel": 4,
      "note": 61,
      "start": 13.2781,
      "duration": 0.1297,
      "velocity": 124,
      "chip": "ym2612"
    },
    {
      "channel": 1,
      "note": 87,
      "start": 13.2808,
      "duration": 3.4103,
      "velocity": 93,
      "chip": "ym2612"
    },
    {
      "channel": 5,
      "note": 94,
      "start": 13.2836,
      "duration": 3.3743,
      "velocity": 93,
      "chip": "ym2612"
    },
    {
      "channel": 0,
      "note": 104,
      "start": 13.2868,
      "duration": 3.2875,
      "velocity": 93,
      "chip": "ym2612"
    },
    {
      "channel": 3,
      "note": 61,
      "start": 14.0944,
      "duration": 0.1301,
      "velocity": 124,
      "chip": "ym2612"
    },
    {
      "channel": 4,
      "note": 61,
      "start": 14.228,
      "duration": 0.1299,
      "velocity": 124,
      "chip": "ym2612"
    },
    {
      "channel": 3,
      "note": 61,
      "start": 14.3615,
      "duration": 0.1296,
      "velocity": 124,
      "chip": "ym2612"
    },
    {
      "channel": 4,
      "note": 61,
      "start": 15.1778,
      "duration": 0.13,
      "velocity": 124,
      "chip": "ym2612"
    },
    {
      "channel": 3,
      "note": 61,
      "start": 15.3113,
      "duration": 0.1298,
      "velocity": 124,
      "chip": "ym2612"
    },
    {
      "channel": 4,
      "note": 61,
      "start": 15.4448,
      "duration": 0.1296,
      "velocity": 124,
      "chip": "ym2612"
    },
    {
      "channel": 3,
      "note": 61,
      "start": 16.261,
      "duration": 0.1301,
      "velocity": 124,
      "chip": "ym2612"
    },
    {
      "channel": 4,
      "note": 61,
      "start": 16.3946,
      "duration": 0.1299,
      "velocity": 124,
      "chip": "ym2612"
    },
    {
      "channel": 3,
      "note": 61,
      "start": 16.5282,
      "duration": 0.1296,
      "velocity": 124,
      "chip": "ym2612"
    },
    {
      "channel": 2,
      "note": 44,
      "start": 17.3509,
      "duration": 4.2426,
      "velocity": 118,
      "chip": "ym2612"
    },
    {
      "channel": 4,
      "note": 61,
      "start": 17.3536,
      "duration": 0.1209,
      "velocity": 124,
      "chip": "ym2612"
    },
    {
      "channel": 0,
      "note": 61,
      "start": 17.478,
      "duration": 0.1296,
      "velocity": 124,
      "chip": "ym2612"
    },
    {
      "channel": 3,
      "note": 61,
      "start": 17.6112,
      "duration": 0.1299,
      "velocity": 124,
      "chip": "ym2612"
    },
    {
      "channel": 1,
      "note": 109,
      "start": 17.6146,
      "duration": 3.2431,
      "velocity": 93,
      "chip": "ym2612"
    },
    {
      "channel": 5,
      "note": 99,
      "start": 17.6172,
      "duration": 3.241,
      "velocity": 93,
      "chip": "ym2612"
    },
    {
      "channel": 4,
      "note": 95,
      "start": 17.6201,
      "duration": 3.238,
      "velocity": 93,
      "chip": "ym2612"
    },
    {
      "channel": 0,
      "note": 61,
      "start": 18.4278,
      "duration": 0.13,
      "velocity": 124,
      "chip": "ym2612"
    },
    {
      "channel": 3,
      "note": 61,
      "start": 18.5614,
      "duration": 0.1297,
      "velocity": 124,
      "chip": "ym2612"
    },
    {
      "channel": 0,
      "note": 61,
      "start": 18.6948,
      "duration": 0.1296,
      "velocity": 124,
      "chip": "ym2612"
    },
    {
      "channel": 3,
      "note": 61,
      "start": 19.511,
      "duration": 0.1301,
      "velocity": 124,
      "chip": "ym2612"
    },
    {
      "channel": 0,
      "note": 61,
      "start": 19.6447,
      "duration": 0.1297,
      "velocity": 124,
      "chip": "ym2612"
    },
    {
      "channel": 3,
      "note": 61,
      "start": 19.7782,
      "duration": 0.1296,
      "velocity": 124,
      "chip": "ym2612"
    },
    {
      "channel": 0,
      "note": 61,
      "start": 20.5944,
      "duration": 0.13,
      "velocity": 124,
      "chip": "ym2612"
    },
    {
      "channel": 3,
      "note": 61,
      "start": 20.728,
      "duration": 0.13,
      "velocity": 124,
      "chip": "ym2612"
    },
    {
      "channel": 0,
      "note": 61,
      "start": 20.8617,
      "duration": 0.1292,
      "velocity": 124,
      "chip": "ym2612"
    },
    {
      "channel": 1,
      "note": 61,
      "start": 21.6824,
      "duration": 0.1253,
      "velocity": 124,
      "chip": "ym2612"
    },
    {
      "channel": 2,
      "note": 42,
      "start": 21.6949,
      "duration": 4.265,
      "velocity": 118,
      "chip": "ym2612"
    },
    {
      "channel": 3,
      "note": 61,
      "start": 21.8112,
      "duration": 0.13,
      "velocity": 124,
      "chip": "ym2612"
    },
    {
      "channel": 0,
      "note": 61,
      "start": 21.9445,
      "duration": 0.1299,
      "velocity": 124,
      "chip": "ym2612"
    },
    {
      "channel": 4,
      "note": 100,
      "start": 21.9472,
      "duration": 3.2441,
      "velocity": 93,
      "chip": "ym2612"
    },
    {
      "channel": 5,
      "note": 85,
      "start": 21.9498,
      "duration": 3.2416,
      "velocity": 93,
      "chip": "ym2612"
    },
    {
      "channel": 1,
      "note": 95,
      "start": 21.9527,
      "duration": 3.2384,
      "velocity": 93,
      "chip": "ym2612"
    },
    {
      "channel": 3,
      "note": 61,
      "start": 22.7611,
      "duration": 0.13,
      "velocity": 124,
      "chip": "ym2612"
    },
    {
      "channel": 0,
      "note": 61,
      "start": 22.895,
      "duration": 0.1293,
      "velocity": 124,
      "chip": "ym2612"
    },
    {
      "channel": 3,
      "note": 61,
      "start": 23.0285,
      "duration": 0.1293,
      "velocity": 124,
      "chip": "ym2612"
    },
    {
      "channel": 0,
      "note": 61,
      "start": 23.8448,
      "duration": 0.1295,
      "velocity": 124,
      "chip": "ym2612"
    },
    {
      "channel": 3,
      "note": 61,
      "start": 23.978,
      "duration": 0.1298,
      "velocity": 124,
      "chip": "ym2612"
    },
    {
      "channel": 0,
      "note": 61,
      "start": 24.1115,
      "duration": 0.1295,
      "velocity": 124,
      "chip": "ym2612"
    },
    {
      "channel": 3,
      "note": 61,
      "start": 24.9278,
      "duration": 0.1299,
      "velocity": 124,
      "chip": "ym2612"
    },
    {
      "channel": 0,
      "note": 61,
      "start": 25.0613,
      "duration": 0.1297,
      "velocity": 124,
      "chip": "ym2612"
    },
    {
      "channel": 3,
      "note": 61,
      "start": 25.1951,
      "duration": 0.1295,
      "velocity": 124,
      "chip": "ym2612"
    },
    {
      "channel": 2,
      "note": 44,
      "start": 26.0212,
      "duration": 4.2394,
      "velocity": 118,
      "chip": "ym2612"
    },
    {
      "channel": 0,
      "note": 61,
      "start": 26.0257,
      "duration": 0.1152,
      "velocity": 124,
      "chip": "ym2612"
    },
    {
      "channel": 1,
      "note": 61,
      "start": 26.1446,
      "duration": 0.1298,
      "velocity": 124,
      "chip": "ym2612"
    },
    {
      "channel": 3,
      "note": 61,
      "start": 26.278,
      "duration": 0.1298,
      "velocity": 124,
      "chip": "ym2612"
    },
    {
      "channel": 4,
      "note": 109,
      "start": 26.2807,
      "duration": 3.2439,
      "velocity": 93,
      "chip": "ym2612"
    },
    {
      "channel": 5,
      "note": 99,
      "start": 26.2833,
      "duration": 3.2415,
      "velocity": 93,
      "chip": "ym2612"
    },
    {
      "channel": 0,
      "note": 95,
      "start": 26.2866,
      "duration": 3.2378,
      "velocity": 93,
      "chip": "ym2612"
    },
    {
      "channel": 1,
      "note": 61,
      "start": 27.0944,
      "duration": 0.13,
      "velocity": 124,
      "chip": "ym2612"
    },
    {
      "channel": 3,
      "note": 61,
      "start": 27.228,
      "duration": 0.1298,
      "velocity": 124,
      "chip": "ym2612"
    },
    {
      "channel": 1,
      "note": 61,
      "start": 27.3615,
      "duration": 0.1296,
      "velocity": 124,
      "chip": "ym2612"
    },
    {
      "channel": 3,
      "note": 61,
      "start": 28.1777,
      "duration": 0.1301,
      "velocity": 124,
      "chip": "ym2612"
    },
    {
      "channel": 1,
      "note": 61,
      "start": 28.3114,
      "duration": 0.1298,
      "velocity": 124,
      "chip": "ym2612"
    },
    {
      "channel": 3,
      "note": 61,
      "start": 28.4448,
      "duration": 0.1296,
      "velocity": 124,
      "chip": "ym2612"
    },
    {
      "channel": 1,
      "note": 61,
      "start": 29.261,
      "duration": 0.13,
      "velocity": 124,
      "chip": "ym2612"
    },
    {
      "channel": 3,
      "note": 61,
      "start": 29.3946,
      "duration": 0.1299,
      "velocity": 124,
      "chip": "ym2612"
    },
    {
      "channel": 1,
      "note": 61,
      "start": 29.5284,
      "duration": 0.1294,
      "velocity": 124,
      "chip": "ym2612"
    },
    {
      "channel": 0,
      "note": 61,
      "start": 30.3539,
      "duration": 0.1224,
      "velocity": 124,
      "chip": "ym2612"
    },
    {
      "channel": 3,
      "note": 61,
      "start": 30.4829,
      "duration": 0.1272,
      "velocity": 124,
      "chip": "ym2612"
    },
    {
      "channel": 1,
      "note": 61,
      "start": 30.6166,
      "duration": 0.1268,
      "velocity": 124,
      "chip": "ym2612"
    },
    {
      "channel": 0,
      "note": 61,
      "start": 31.4362,
      "duration": 0.1215,
      "velocity": 124,
      "chip": "ym2612"
    },
    {
      "channel": 3,
      "note": 61,
      "start": 31.5612,
      "duration": 0.1299,
      "velocity": 124,
      "chip": "ym2612"
    },
    {
      "channel": 1,
      "note": 61,
      "start": 31.6945,
      "duration": 0.1466,
      "velocity": 124,
      "chip": "ym2612"
    },
    {
      "channel": 0,
      "note": 61,
      "start": 32.5197,
      "duration": 0.1233,
      "velocity": 124,
      "chip": "ym2612"
    },
    {
      "channel": 3,
      "note": 61,
      "start": 32.6496,
      "duration": 0.1272,
      "velocity": 124,
      "chip": "ym2612"
    },
    {
      "channel": 1,
      "note": 61,
      "start": 32.7832,
      "duration": 0.1456,
      "velocity": 124,
      "chip": "ym2612"
    },
    {
      "channel": 0,
      "note": 61,
      "start": 33.6028,
      "duration": 0.1215,
      "velocity": 124,
      "chip": "ym2612"
    },
    {
      "channel": 3,
      "note": 61,
      "start": 33.7278,
      "duration": 0.1299,
      "velocity": 124,
      "chip": "ym2612"
    },
    {
      "channel": 1,
      "note": 61,
      "start": 33.8612,
      "duration": 0.1466,
      "velocity": 124,
      "chip": "ym2612"
    },
    {
      "channel": 0,
      "note": 61,
      "start": 34.6864,
      "duration": 0.1233,
      "velocity": 124,
      "chip": "ym2612"
    },
    {
      "channel": 3,
      "note": 61,
      "start": 34.8163,
      "duration": 0.1272,
      "velocity": 124,
      "chip": "ym2612"
    },
    {
      "channel": 1,
      "note": 61,
      "start": 34.9499,
      "duration": 0.1456,
      "velocity": 124,
      "chip": "ym2612"
    },
    {
      "channel": 0,
      "note": 61,
      "start": 35.7695,
      "duration": 0.1215,
      "velocity": 124,
      "chip": "ym2612"
    },
    {
      "channel": 3,
      "note": 61,
      "start": 35.8944,
      "duration": 0.13,
      "velocity": 124,
      "chip": "ym2612"
    },
    {
      "channel": 1,
      "note": 61,
      "start": 36.0278,
      "duration": 0.1466,
      "velocity": 124,
      "chip": "ym2612"
    },
    {
      "channel": 0,
      "note": 61,
      "start": 36.853,
      "duration": 0.1233,
      "velocity": 124,
      "chip": "ym2612"
    },
    {
      "channel": 3,
      "note": 61,
      "start": 36.9829,
      "duration": 0.1272,
      "velocity": 124,
      "chip": "ym2612"
    },
    {
      "channel": 1,
      "note": 61,
      "start": 37.1166,
      "duration": 0.1456,
      "velocity": 124,
      "chip": "ym2612"
    },
    {
      "channel": 0,
      "note": 61,
      "start": 37.9419,
      "duration": 0.1177,
      "velocity": 124,
      "chip": "ym2612"
    },
    {
      "channel": 3,
      "note": 61,
      "start": 38.0659,
      "duration": 0.1306,
      "velocity": 124,
      "chip": "ym2612"
    },
    {
      "channel": 1,
      "note": 61,
      "start": 38.2027,
      "duration": 0.1401,
      "velocity": 124,
      "chip": "ym2612"
    },
    {
      "channel": 2,
      "note": 51,
      "start": 38.4968,
      "duration": 3.7532,
      "velocity": 118,
      "chip": "ym2612"
    },
    {
      "channel": 0,
      "note": 61,
      "start": 38.5043,
      "duration": 0.1034,
      "velocity": 124,
      "chip": "ym2612"
    },
    {
      "channel": 3,
      "note": 61,
      "start": 38.6132,
      "duration": 0.128,
      "velocity": 124,
      "chip": "ym2612"
    },
    {
      "channel": 1,
      "note": 61,
      "start": 38.7465,
      "duration": 0.1279,
      "velocity": 124,
      "chip": "ym2612"
    },
    {
      "channel": 4,
      "note": 80,
      "start": 38.83,
      "duration": 3.2445,
      "velocity": 93,
      "chip": "ym2612"
    },
    {
      "channel": 5,
      "note": 82,
      "start": 38.8787,
      "duration": 3.1792,
      "velocity": 93,
      "chip": "ym2612"
    },
    {
      "channel": 0,
      "note": 97,
      "start": 38.8822,
      "duration": 3.1588,
      "velocity": 93,
      "chip": "ym2612"
    },
    {
      "channel": 3,
      "note": 61,
      "start": 39.561,
      "duration": 0.1301,
      "velocity": 124,
      "chip": "ym2612"
    },
    {
      "channel": 1,
      "note": 61,
      "start": 39.6947,
      "duration": 0.1298,
      "velocity": 124,
      "chip": "ym2612"
    },
    {
      "channel": 3,
      "note": 61,
      "start": 39.8282,
      "duration": 0.1296,
      "velocity": 124,
      "chip": "ym2612"
    },
    {
      "channel": 1,
      "note": 61,
      "start": 40.6444,
      "duration": 0.13,
      "velocity": 124,
      "chip": "ym2612"
    },
    {
      "channel": 3,
      "note": 61,
      "start": 40.778,
      "duration": 0.1298,
      "velocity": 124,
      "chip": "ym2612"
    },
    {
      "channel": 1,
      "note": 61,
      "start": 40.9115,
      "duration": 0.1295,
      "velocity": 124,
      "chip": "ym2612"
    },
    {
      "channel": 3,
      "note": 61,
      "start": 41.7278,
      "duration": 0.1299,
      "velocity": 124,
      "chip": "ym2612"
    },
    {
      "channel": 1,
      "note": 61,
      "start": 41.8613,
      "duration": 0.1298,
      "velocity": 124,
      "chip": "ym2612"
    },
    {
      "channel": 3,
      "note": 61,
      "start": 41.9948,
      "duration": 0.1296,
      "velocity": 124,
      "chip": "ym2612"
    }
  ]
}