{
  "track_name": "08 - Monty's Playroom",
  "duration_sec": 42.523,
  "sample_rate": 44100,
  "note_count": 932,
  "unique_pitches": 51,
  "pitch_range": 60,
  "avg_note_duration": 0.0239,
  "reconstruction_stats": {
    "notes_reconstructed": 932,
    "keyon_events": 932,
    "keyoff_events": 932,
    "orphan_keyons": 0,
    "unique_pitches": 51,
    "pitch_range": 60,
    "avg_duration_sec": 0.0239
  },
  "metadata": {
    "source": "T\\Tiny Toon Adventures - Acme All Stars\\08 - Monty's Playroom.vgm"
  },
  "notes": [
    {
      "channel": 0,
      "note": 57,
      "start": 0.0018,
      "duration": 0.0295,
      "velocity": 119,
      "chip": "ym2612"
    },
    {
      "channel": 1,
      "note": 105,
      "start": 0.0046,
      "duration": 0.0421,
      "velocity": 87,
      "chip": "ym2612"
    },
    {
      "channel": 2,
      "note": 105,
      "start": 0.0075,
      "duration": 0.0497,
      "velocity": 87,
      "chip": "ym2612"
    },
    {
      "channel": 3,
      "note": 57,
      "start": 0.0102,
      "duration": 0.2255,
      "velocity": 127,
      "chip": "ym2612"
    },
    {
      "channel": 0,
      "note": 85,
      "start": 0.0367,
      "duration": 0.0044,
      "velocity": 119,
      "chip": "ym2612"
    },
    {
      "channel": 0,
      "note": 88,
      "start": 0.0465,
      "duration": 0.0044,
      "velocity": 119,
      "chip": "ym2612"
    },
    {
      "channel": 1,
      "note": 85,
      "start": 0.0537,
      "duration": 0.0032,
      "velocity": 119,
      "chip": "ym2612"
    },
    {
      "channel": 0,
      "note": 90,
      "start": 0.0566,
      "duration": 0.0045,
      "velocity": 119,
      "chip": "ym2612"
    },
    {
      "channel": 1,
      "note": 88,
      "start": 0.0624,
      "duration": 0.0085,
      "velocity": 119,
      "chip": "ym2612"
    },
    {
      "channel": 0,
      "note": 93,
      "start": 0.0706,
      "duration": 0.0128,
      "velocity": 119,
      "chip": "ym2612"
    },
    {
      "channel": 2,
      "note": 85,
      "start": 0.074,
      "duration": 0.0054,
      "velocity": 119,
      "chip": "ym2612"
    },
    {
      "channel": 1,
      "note": 90,
      "start": 0.0792,
      "duration": 0.0045,
      "velocity": 119,
      "chip": "ym2612"
    },
    {
      "channel": 2,
      "note": 88,
      "start": 0.085,
      "duration": 0.0063,
      "velocity": 119,
      "chip": "ym2612"
    },
    {
      "channel": 0,
      "note": 93,
      "start": 0.0898,
      "duration": 0.0106,
      "velocity": 119,
      "chip": "ym2612"
    },
    {
      "channel": 1,
      "note": 93,
      "start": 0.091,
      "duration": 0.0097,
      "velocity": 119,
      "chip": "ym2612"
    },
    {
      "channel": 2,
      "note": 90,
      "start": 0.0966,
      "duration": 0.0044,
      "velocity": 119,
      "chip": "ym2612"
    },
    {
      "channel": 0,
      "note": 92,
      "start": 0.1059,
      "duration": 0.0085,
      "velocity": 119,
      "chip": "ym2612"
    },
    {
      "channel": 1,
      "note": 93,
      "start": 0.1071,
      "duration": 0.0076,
      "velocity": 119,
      "chip": "ym2612"
    },
    {
      "channel": 2,
      "note": 93,
      "start": 0.1087,
      "duration": 0.0063,
      "velocity": 119,
      "chip": "ym2612"
    },
    {
      "channel": 0,
      "note": 92,
      "start": 0.1199,
      "duration": 0.0105,
      "velocity": 119,
      "chip": "ym2612"
    },
    {
      "channel": 1,
      "note": 92,
      "start": 0.1211,
      "duration": 0.0097,
      "velocity": 119,
      "chip": "ym2612"
    },
    {
      "channel": 2,
      "note": 93,
      "start": 0.1227,
      "duration": 0.0084,
      "velocity": 119,
      "chip": "ym2612"
    },
    {
      "channel": 0,
      "note": 90,
      "start": 0.1376,
      "duration": 0.0111,
      "velocity": 119,
      "chip": "ym2612"
    },
    {
      "channel": 1,
      "note": 92,
      "start": 0.1389,
      "duration": 0.0101,
      "velocity": 119,
      "chip": "ym2612"
    },
    {
      "channel": 2,
      "note": 92,
      "start": 0.1405,
      "duration": 0.0088,
      "velocity": 119,
      "chip": "ym2612"
    },
    {
      "channel": 0,
      "note": 90,
      "start": 0.1543,
      "duration": 0.0085,
      "velocity": 119,
      "chip": "ym2612"
    },
    {
      "channel": 1,
      "note": 90,
      "start": 0.1555,
      "duration": 0.0076,
      "velocity": 119,
      "chip": "ym2612"
    },
    {
      "channel": 2,
      "note": 92,
      "start": 0.1571,
      "duration": 0.0063,
      "velocity": 119,
      "chip": "ym2612"
    },
    {
      "channel": 0,
      "note": 88,
      "start": 0.1682,
      "duration": 0.0106,
      "velocity": 119,
      "chip": "ym2612"
    },
    {
      "channel": 1,
      "note": 90,
      "start": 0.1695,
      "duration": 0.0096,
      "velocity": 119,
      "chip": "ym2612"
    },
    {
      "channel": 2,
      "note": 90,
      "start": 0.1711,
      "duration": 0.0084,
      "velocity": 119,
      "chip": "ym2612"
    },
    {
      "channel": 0,
      "note": 88,
      "start": 0.1843,
      "duration": 0.0105,
      "velocity": 119,
      "chip": "ym2612"
    },
    {
      "channel": 1,
      "note": 88,
      "start": 0.1855,
      "duration": 0.0096,
      "velocity": 119,
      "chip": "ym2612"
    },
    {
      "channel": 2,
      "note": 90,
      "start": 0.1872,
      "duration": 0.0083,
      "velocity": 119,
      "chip": "ym2612"
    },
    {
      "channel": 0,
      "note": 85,
      "start": 0.2021,
      "duration": 0.011,
      "velocity": 119,
      "chip": "ym2612"
    },
    {
      "channel": 1,
      "note": 88,
      "start": 0.2033,
      "duration": 0.01,
      "velocity": 119,
      "chip": "ym2612"
    },
    {
      "channel": 2,
      "note": 88,
      "start": 0.2049,
      "duration": 0.0088,
      "velocity": 119,
      "chip": "ym2612"
    },
    {
      "channel": 0,
      "note": 85,
      "start": 0.2165,
      "duration": 0.0105,
      "velocity": 119,
      "chip": "ym2612"
    },
    {
      "channel": 1,
      "note": 85,
      "start": 0.2182,
      "duration": 0.0092,
      "velocity": 119,
      "chip": "ym2612"
    },
    {
      "channel": 2,
      "note": 88,
      "start": 0.2194,
      "duration": 0.0083,
      "velocity": 119,
      "chip": "ym2612"
    },
    {
      "channel": 0,
      "note": 88,
      "start": 0.2325,
      "duration": 0.0106,
      "velocity": 119,
      "chip": "ym2612"
    },
    {
      "channel": 1,
      "note": 85,
      "start": 0.2341,
      "duration": 0.0093,
      "velocity": 119,
      "chip": "ym2612"
    },
    {
      "channel": 2,
      "note": 85,
      "start": 0.2354,
      "duration": 0.0084,
      "velocity": 119,
      "chip": "ym2612"
    },
    {
      "channel": 0,
      "note": 88,
      "start": 0.2487,
      "duration": 0.0105,
      "velocity": 119,
      "chip": "ym2612"
    },
    {
      "channel": 1,
      "note": 88,
      "start": 0.2504,
      "duration": 0.0092,
      "velocity": 119,
      "chip": "ym2612"
    },
    {
      "channel": 2,
      "note": 85,
      "start": 0.2516,
      "duration": 0.0083,
      "velocity": 119,
      "chip": "ym2612"
    },
    {
      "channel": 0,
      "note": 88,
      "start": 0.2648,
      "duration": 0.0115,
      "velocity": 119,
      "chip": "ym2612"
    },
    {
      "channel": 1,
      "note": 84,
      "start": 0.2666,
      "duration": 0.01,
      "velocity": 119,
      "chip": "ym2612"
    },
    {
      "channel": 2,
      "note": 91,
      "start": 0.268,
      "duration": 0.0089,
      "velocity": 119,
      "chip": "ym2612"
    },
    {
      "channel": 3,
      "note": 62,
      "start": 0.2705,
      "duration": 0.0067,
      "velocity": 109,
      "chip": "ym2612"
    },
    {
      "channel": 0,
      "note": 88,
      "start": 0.2818,
      "duration": 0.0137,
      "velocity": 119,
      "chip": "ym2612"
    },
    {
      "channel": 1,
      "note": 84,
      "start": 0.2834,
      "duration": 0.0123,
      "velocity": 119,
      "chip": "ym2612"
    },
    {
      "channel": 2,
      "note": 91,
      "start": 0.2846,
      "duration": 0.0114,
      "velocity": 119,
      "chip": "ym2612"
    },
    {
      "channel": 3,
      "note": 62,
      "start": 0.2858,
      "duration": 0.0106,
      "velocity": 109,
      "chip": "ym2612"
    },
    {
      "channel": 0,
      "note": 88,
      "start": 0.3009,
      "duration": 0.012,
      "velocity": 119,
      "chip": "ym2612"
    },
    {
      "channel": 1,
      "note": 84,
      "start": 0.3026,
      "duration": 0.0107,
      "velocity": 119,
      "chip": "ym2612"
    },
    {
      "channel": 2,
      "note": 91,
      "start": 0.3038,
      "duration": 0.0098,
      "velocity": 119,
      "chip": "ym2612"
    },
    {
      "channel": 3,
      "note": 50,
      "start": 0.3051,
      "duration": 0.0576,
      "velocity": 109,
      "chip": "ym2612"
    },
    {
      "channel": 0,
      "note": 88,
      "start": 0.3187,
      "duration": 0.0117,
      "velocity": 119,
      "chip": "ym2612"
    },
    {
      "channel": 1,
      "note": 84,
      "start": 0.3204,
      "duration": 0.0103,
      "velocity": 119,
      "chip": "ym2612"
    },
    {
      "channel": 2,
      "note": 91,
      "start": 0.3216,
      "duration": 0.0095,
      "velocity": 119,
      "chip": "ym2612"
    },
    {
      "channel": 0,
      "note": 88,
      "start": 0.3359,
      "duration": 0.0109,
      "velocity": 119,
      "chip": "ym2612"
    },
    {
      "channel": 1,
      "note": 84,
      "start": 0.3376,
      "duration": 0.0095,
      "velocity": 119,
      "chip": "ym2612"
    },
    {
      "channel": 2,
      "note": 91,
      "start": 0.3388,
      "duration": 0.0085,
      "velocity": 119,
      "chip": "ym2612"
    },
    {
      "channel": 0,
      "note": 88,
      "start": 0.3535,
      "duration": 0.0127,
      "velocity": 119,
      "chip": "ym2612"
    },
    {
      "channel": 1,
      "note": 84,
      "start": 0.3551,
      "duration": 0.0114,
      "velocity": 119,
      "chip": "ym2612"
    },
    {
      "channel": 2,
      "note": 91,
      "start": 0.3564,
      "duration": 0.0105,
      "velocity": 119,
      "chip": "ym2612"
    },
    {
      "channel": 0,
      "note": 86,
      "start": 0.3731,
      "duration": 0.0259,
      "velocity": 119,
      "chip": "ym2612"
    },
    {
      "channel": 1,
      "note": 83,
      "start": 0.3747,
      "duration": 0.0246,
      "velocity": 119,
      "chip": "ym2612"
    },
    {
      "channel": 2,
      "note": 90,
      "start": 0.3759,
      "duration": 0.0237,
      "velocity": 119,
      "chip": "ym2612"
    },
    {
      "channel": 3,
      "note": 52,
      "start": 0.3772,
      "duration": 0.0228,
      "velocity": 109,
      "chip": "ym2612"
    },
    {
      "channel": 0,
      "note": 86,
      "start": 0.4045,
      "duration": 0.0238,
      "velocity": 119,
      "chip": "ym2612"
    },
    {
      "channel": 1,
      "note": 83,
      "start": 0.4061,
      "duration": 0.0225,
      "velocity": 119,
      "chip": "ym2612"
    },
    {
      "channel": 2,
      "note": 90,
      "start": 0.4073,
      "duration": 0.0216,
      "velocity": 119,
      "chip": "ym2612"
    },
    {
      "channel": 3,
      "note": 52,
      "start": 0.4085,
      "duration": 0.0212,
      "velocity": 109,
      "chip": "ym2612"
    },
    {
      "channel": 0,
      "note": 98,
      "start": 0.4343,
      "duration": 0.0749,
      "velocity": 119,
      "chip": "ym2612"
    },
    {
      "channel": 1,
      "note": 83,
      "start": 0.4356,
      "duration": 0.0232,
      "velocity": 119,
      "chip": "ym2612"
    },
    {
      "channel": 2,
      "note": 90,
      "start": 0.4368,
      "duration": 0.0223,
      "velocity": 119,
      "chip": "ym2612"
    },
    {
      "channel": 3,
      "note": 52,
      "start": 0.438,
      "duration": 0.0219,
      "velocity": 109,
      "chip": "ym2612"
    },
    {
      "channel": 1,
      "note": 83,
      "start": 0.4648,
      "duration": 0.0205,
      "velocity": 119,
      "chip": "ym2612"
    },
    {
      "channel": 2,
      "note": 90,
      "start": 0.466,
      "duration": 0.0201,
      "velocity": 119,
      "chip": "ym2612"
    },
    {
      "channel": 3,
      "note": 52,
      "start": 0.4673,
      "duration": 0.0192,
      "velocity": 109,
      "chip": "ym2612"
    },
    {
      "channel": 1,
      "note": 83,
      "start": 0.4912,
      "duration": 0.0226,
      "velocity": 119,
      "chip": "ym2612"
    },
    {
      "channel": 2,
      "note": 90,
      "start": 0.4924,
      "duration": 0.0221,
      "velocity": 119,
      "chip": "ym2612"
    },
    {
      "channel": 3,
      "note": 52,
      "start": 0.4937,
      "duration": 0.0212,
      "velocity": 109,
      "chip": "ym2612"
    },
    {
      "channel": 0,
      "note": 57,
      "start": 0.5207,
      "duration": 0.0268,
      "velocity": 119,
      "chip": "ym2612"
    },
    {
      "channel": 1,
      "note": 105,
      "start": 0.5233,
      "duration": 0.0394,
      "velocity": 87,
      "chip": "ym2612"
    },
    {
      "channel": 2,
      "note": 105,
      "start": 0.526,
      "duration": 0.0488,
      "velocity": 87,
      "chip": "ym2612"
    },
    {
      "channel": 3,
      "note": 57,
      "start": 0.5285,
      "duration": 0.2263,
      "velocity": 127,
      "chip": "ym2612"
    },
    {
      "channel": 0,
      "note": 85,
      "start": 0.5531,
      "duration": 0.0042,
      "velocity": 119,
      "chip": "ym2612"
    },
    {
      "channel": 0,
      "note": 88,
      "start": 0.5624,
      "duration": 0.0042,
      "velocity": 119,
      "chip": "ym2612"
    },
    {
      "channel": 1,
      "note": 85,
      "start": 0.5694,
      "duration": 0.0051,
      "velocity": 119,
      "chip": "ym2612"
    },
    {
      "channel": 0,
      "note": 90,
      "start": 0.5742,
      "duration": 0.0024,
      "velocity": 119,
      "chip": "ym2612"
    },
    {
      "channel": 1,
      "note": 88,
      "start": 0.5779,
      "duration": 0.0051,
      "velocity": 119,
      "chip": "ym2612"
    },
    {
      "channel": 0,
      "note": 93,
      "start": 0.5827,
      "duration": 0.0144,
      "velocity": 119,
      "chip": "ym2612"
    },
    {
      "channel": 2,
      "note": 85,
      "start": 0.5857,
      "duration": 0.0078,
      "velocity": 119,
      "chip": "ym2612"
    },
    {
      "channel": 1,
      "note": 90,
      "start": 0.5932,
      "duration": 0.0043,
      "velocity": 119,
      "chip": "ym2612"
    },
    {
      "channel": 2,
      "note": 88,
      "start": 0.5988,
      "duration": 0.0061,
      "velocity": 119,
      "chip": "ym2612"
    },
    {
      "channel": 0,
      "note": 93,
      "start": 0.6034,
      "duration": 0.0135,
      "velocity": 119,
      "chip": "ym2612"
    },
    {
      "channel": 1,
      "note": 93,
      "start": 0.6047,
      "duration": 0.0126,
      "velocity": 119,
      "chip": "ym2612"
    },
    {
      "channel": 2,
      "note": 90,
      "start": 0.6101,
      "duration": 0.0075,
      "velocity": 119,
      "chip": "ym2612"
    },
    {
      "channel": 0,
      "note": 92,
      "start": 0.6224,
      "duration": 0.0086,
      "velocity": 119,
      "chip": "ym2612"
    },
    {
      "channel": 1,
      "note": 93,
      "start": 0.6236,
      "duration": 0.0077,
      "velocity": 119,
      "chip": "ym2612"
    },
    {
      "channel": 2,
      "note": 93,
      "start": 0.6248,
      "duration": 0.0069,
      "velocity": 119,
      "chip": "ym2612"
    },
    {
      "channel": 0,
      "note": 92,
      "start": 0.6365,
      "duration": 0.0106,
      "velocity": 119,
      "chip": "ym2612"
    },
    {
      "channel": 1,
      "note": 92,
      "start": 0.6378,
      "duration": 0.0097,
      "velocity": 119,
      "chip": "ym2612"
    },
    {
      "channel": 2,
      "note": 93,
      "start": 0.639,
      "duration": 0.0088,
      "velocity": 119,
      "chip": "ym2612"
    },
    {
      "channel": 0,
      "note": 90,
      "start": 0.6526,
      "duration": 0.0109,
      "velocity": 119,
      "chip": "ym2612"
    },
    {
      "channel": 1,
      "note": 92,
      "start": 0.6538,
      "duration": 0.01,
      "velocity": 119,
      "chip": "ym2612"
    },
    {
      "channel": 2,
      "note": 92,
      "start": 0.655,
      "duration": 0.0091,
      "velocity": 119,
      "chip": "ym2612"
    },
    {
      "channel": 0,
      "note": 90,
      "start": 0.6689,
      "duration": 0.0135,
      "velocity": 119,
      "chip": "ym2612"
    },
    {
      "channel": 1,
      "note": 90,
      "start": 0.6701,
      "duration": 0.0127,
      "velocity": 119,
      "chip": "ym2612"
    },
    {
      "channel": 2,
      "note": 92,
      "start": 0.6713,
      "duration": 0.0118,
      "velocity": 119,
      "chip": "ym2612"
    },
    {
      "channel": 0,
      "note": 88,
      "start": 0.686,
      "duration": 0.0107,
      "velocity": 119,
      "chip": "ym2612"
    },
    {
      "channel": 1,
      "note": 90,
      "start": 0.6872,
      "duration": 0.0097,
      "velocity": 119,
      "chip": "ym2612"
    },
    {
      "channel": 2,
      "note": 90,
      "start": 0.6884,
      "duration": 0.0089,
      "velocity": 119,
      "chip": "ym2612"
    },
    {
      "channel": 0,
      "note": 88,
      "start": 0.7022,
      "duration": 0.0106,
      "velocity": 119,
      "chip": "ym2612"
    },
    {
      "channel": 1,
      "note": 88,
      "start": 0.7034,
      "duration": 0.0097,
      "velocity": 119,
      "chip": "ym2612"
    },
    {
      "channel": 2,
      "note": 90,
      "start": 0.7046,
      "duration": 0.0088,
      "velocity": 119,
      "chip": "ym2612"
    },
    {
      "channel": 0,
      "note": 85,
      "start": 0.7185,
      "duration": 0.011,
      "velocity": 119,
      "chip": "ym2612"
    },
    {
      "channel": 1,
      "note": 88,
      "start": 0.7198,
      "duration": 0.0102,
      "velocity": 119,
      "chip": "ym2612"
    },
    {
      "channel": 2,
      "note": 88,
      "start": 0.721,
      "duration": 0.0093,
      "velocity": 119,
      "chip": "ym2612"
    },
    {
      "channel": 0,
      "note": 85,
      "start": 0.7331,
      "duration": 0.0137,
      "velocity": 119,
      "chip": "ym2612"
    },
    {
      "channel": 1,
      "note": 85,
      "start": 0.7343,
      "duration": 0.0127,
      "velocity": 119,
      "chip": "ym2612"
    },
    {
      "channel": 2,
      "note": 88,
      "start": 0.7356,
      "duration": 0.0118,
      "velocity": 119,
      "chip": "ym2612"
    },
    {
      "channel": 0,
      "note": 88,
      "start": 0.7521,
      "duration": 0.0107,
      "velocity": 119,
      "chip": "ym2612"
    },
    {
      "channel": 1,
      "note": 85,
      "start": 0.7533,
      "duration": 0.0098,
      "velocity": 119,
      "chip": "ym2612"
    },
    {
      "channel": 2,
      "note": 85,
      "start": 0.7545,
      "duration": 0.0089,
      "velocity": 119,
      "chip": "ym2612"
    },
    {
      "channel": 0,
      "note": 88,
      "start": 0.7683,
      "duration": 0.0106,
      "velocity": 119,
      "chip": "ym2612"
    },
    {
      "channel": 1,
      "note": 88,
      "start": 0.7695,
      "duration": 0.0097,
      "velocity": 119,
      "chip": "ym2612"
    },
    {
      "channel": 2,
      "note": 85,
      "start": 0.7707,
      "duration": 0.0088,
      "velocity": 119,
      "chip": "ym2612"
    },
    {
      "channel": 0,
      "note": 82,
      "start": 0.7849,
      "duration": 0.0118,
      "velocity": 119,
      "chip": "ym2612"
    },
    {
      "channel": 1,
      "note": 87,
      "start": 0.7864,
      "duration": 0.0107,
      "velocity": 119,
      "chip": "ym2612"
    },
    {
      "channel": 2,
      "note": 91,
      "start": 0.7879,
      "duration": 0.0095,
      "velocity": 119,
      "chip": "ym2612"
    },
    {
      "channel": 3,
      "note": 61,
      "start": 0.7906,
      "duration": 0.0254,
      "velocity": 109,
      "chip": "ym2612"
    },
    {
      "channel": 0,
      "note": 82,
      "start": 0.8022,
      "duration": 0.0127,
      "velocity": 119,
      "chip": "ym2612"
    },
    {
      "channel": 1,
      "note": 87,
      "start": 0.8034,
      "duration": 0.0118,
      "velocity": 119,
      "chip": "ym2612"
    },
    {
      "channel": 2,
      "note": 91,
      "start": 0.8046,
      "duration": 0.0109,
      "velocity": 119,
      "chip": "ym2612"
    },
    {
      "channel": 0,
      "note": 82,
      "start": 0.8209,
      "duration": 0.012,
      "velocity": 119,
      "chip": "ym2612"
    },
    {
      "channel": 1,
      "note": 87,
      "start": 0.8221,
      "duration": 0.0111,
      "velocity": 119,
      "chip": "ym2612"
    },
    {
      "channel": 2,
      "note": 91,
      "start": 0.8233,
      "duration": 0.0102,
      "velocity": 119,
      "chip": "ym2612"
    },
    {
      "channel": 3,
      "note": 61,
      "start": 0.8246,
      "duration": 0.027,
      "velocity": 109,
      "chip": "ym2612"
    },
    {
      "channel": 0,
      "note": 82,
      "start": 0.8392,
      "duration": 0.0113,
      "velocity": 119,
      "chip": "ym2612"
    },
    {
      "channel": 1,
      "note": 87,
      "start": 0.8404,
      "duration": 0.0105,
      "velocity": 119,
      "chip": "ym2612"
    },
    {
      "channel": 2,
      "note": 91,
      "start": 0.8416,
      "duration": 0.0095,
      "velocity": 119,
      "chip": "ym2612"
    },
    {
      "channel": 0,
      "note": 82,
      "start": 0.8563,
      "duration": 0.0119,
      "velocity": 119,
      "chip": "ym2612"
    },
    {
      "channel": 1,
      "note": 87,
      "start": 0.8575,
      "duration": 0.011,
      "velocity": 119,
      "chip": "ym2612"
    },
    {
      "channel": 2,
      "note": 91,
      "start": 0.8588,
      "duration": 0.0101,
      "velocity": 119,
      "chip": "ym2612"
    },
    {
      "channel": 3,
      "note": 58,
      "start": 0.86,
      "duration": 0.029,
      "velocity": 109,
      "chip": "ym2612"
    },
    {
      "channel": 0,
      "note": 82,
      "start": 0.8745,
      "duration": 0.0134,
      "velocity": 119,
      "chip": "ym2612"
    },
    {
      "channel": 1,
      "note": 87,
      "start": 0.8757,
      "duration": 0.0126,
      "velocity": 119,
      "chip": "ym2612"
    },
    {
      "channel": 2,
      "note": 91,
      "start": 0.8769,
      "duration": 0.0117,
      "velocity": 119,
      "chip": "ym2612"
    },
    {
      "channel": 0,
      "note": 84,
      "start": 0.8936,
      "duration": 0.0276,
      "velocity": 119,
      "chip": "ym2612"
    },
    {
      "channel": 1,
      "note": 87,
      "start": 0.8948,
      "duration": 0.0267,
      "velocity": 119,
      "chip": "ym2612"
    },
    {
      "channel": 2,
      "note": 92,
      "start": 0.896,
      "duration": 0.0259,
      "velocity": 119,
      "chip": "ym2612"
    },
    {
      "channel": 3,
      "note": 60,
      "start": 0.8972,
      "duration": 0.0072,
      "velocity": 109,
      "chip": "ym2612"
    },
    {
      "channel": 0,
      "note": 84,
      "start": 0.9266,
      "duration": 0.025,
      "velocity": 119,
      "chip": "ym2612"
    },
    {
      "channel": 1,
      "note": 87,
      "start": 0.928,
      "duration": 0.0239,
      "velocity": 119,
      "chip": "ym2612"
    },
    {
      "channel": 2,
      "note": 92,
      "start": 0.9292,
      "duration": 0.0231,
      "velocity": 119,
      "chip": "ym2612"
    },
    {
      "channel": 3,
      "note": 60,
      "start": 0.9304,
      "duration": 0.0088,
      "velocity": 109,
      "chip": "ym2612"
    },
    {
      "channel": 0,
      "note": 84,
      "start": 0.9553,
      "duration": 0.0294,
      "velocity": 119,
      "chip": "ym2612"
    },
    {
      "channel": 1,
      "note": 87,
      "start": 0.9565,
      "duration": 0.0285,
      "velocity": 119,
      "chip": "ym2612"
    },
    {
      "channel": 2,
      "note": 92,
      "start": 0.9577,
      "duration": 0.0276,
      "velocity": 119,
      "chip": "ym2612"
    },
    {
      "channel": 3,
      "note": 56,
      "start": 0.9589,
      "duration": 0.0879,
      "velocity": 109,
      "chip": "ym2612"
    },
    {
      "channel": 0,
      "note": 84,
      "start": 0.9907,
      "duration": 0.0271,
      "velocity": 119,
      "chip": "ym2612"
    },
    {
      "channel": 1,
      "note": 87,
      "start": 0.992,
      "duration": 0.0262,
      "velocity": 119,
      "chip": "ym2612"
    },
    {
      "channel": 2,
      "note": 92,
      "start": 0.9932,
      "duration": 0.0253,
      "velocity": 119,
      "chip": "ym2612"
    },
    {
      "channel": 0,
      "note": 84,
      "start": 1.0238,
      "duration": 0.0272,
      "velocity": 119,
      "chip": "ym2612"
    },
    {
      "channel": 1,
      "note": 87,
      "start": 1.025,
      "duration": 0.0263,
      "velocity": 119,
      "chip": "ym2612"
    },
    {
      "channel": 2,
      "note": 92,
      "start": 1.0262,
      "duration": 0.0254,
      "velocity": 119,
      "chip": "ym2612"
    },
    {
      "channel": 0,
      "note": 57,
      "start": 1.0572,
      "duration": 0.028,
      "velocity": 119,
      "chip": "ym2612"
    },
    {
      "channel": 1,
      "note": 105,
      "start": 1.0601,
      "duration": 0.0407,
      "velocity": 87,
      "chip": "ym2612"
    },
    {
      "channel": 2,
      "note": 105,
      "start": 1.0629,
      "duration": 0.0505,
      "velocity": 87,
      "chip": "ym2612"
    },
    {
      "channel": 3,
      "note": 57,
      "start": 1.0655,
      "duration": 0.2206,
      "velocity": 127,
      "chip": "ym2612"
    },
    {
      "channel": 0,
      "note": 85,
      "start": 1.0907,
      "duration": 0.0044,
      "velocity": 119,
      "chip": "ym2612"
    },
    {
      "channel": 0,
      "note": 88,
      "start": 1.1005,
      "duration": 0.0045,
      "velocity": 119,
      "chip": "ym2612"
    },
    {
      "channel": 1,
      "note": 85,
      "start": 1.1078,
      "duration": 0.0053,
      "velocity": 119,
      "chip": "ym2612"
    },
    {
      "channel": 0,
      "note": 90,
      "start": 1.1128,
      "duration": 0.0025,
      "velocity": 119,
      "chip": "ym2612"
    },
    {
      "channel": 1,
      "note": 88,
      "start": 1.1167,
      "duration": 0.0053,
      "velocity": 119,
      "chip": "ym2612"
    },
    {
      "channel": 0,
      "note": 93,
      "start": 1.1217,
      "duration": 0.0127,
      "velocity": 119,
      "chip": "ym2612"
    },
    {
      "channel": 2,
      "note": 85,
      "start": 1.1248,
      "duration": 0.0057,
      "velocity": 119,
      "chip": "ym2612"
    },
    {
      "channel": 1,
      "note": 90,
      "start": 1.1302,
      "duration": 0.0045,
      "velocity": 119,
      "chip": "ym2612"
    },
    {
      "channel": 2,
      "note": 88,
      "start": 1.1361,
      "duration": 0.0062,
      "velocity": 119,
      "chip": "ym2612"
    },
    {
      "channel": 0,
      "note": 93,
      "start": 1.1408,
      "duration": 0.0107,
      "velocity": 119,
      "chip": "ym2612"
    },
    {
      "channel": 1,
      "note": 93,
      "start": 1.142,
      "duration": 0.0098,
      "velocity": 119,
      "chip": "ym2612"
    },
    {
      "channel": 2,
      "note": 90,
      "start": 1.1477,
      "duration": 0.0044,
      "velocity": 119,
      "chip": "ym2612"
    },
    {
      "channel": 0,
      "note": 92,
      "start": 1.157,
      "duration": 0.0106,
      "velocity": 119,
      "chip": "ym2612"
    },
    {
      "channel": 1,
      "note": 93,
      "start": 1.1582,
      "duration": 0.0098,
      "velocity": 119,
      "chip": "ym2612"
    },
    {
      "channel": 2,
      "note": 93,
      "start": 1.1595,
      "duration": 0.0088,
      "velocity": 119,
      "chip": "ym2612"
    },
    {
      "channel": 0,
      "note": 92,
      "start": 1.1712,
      "duration": 0.0107,
      "velocity": 119,
      "chip": "ym2612"
    },
    {
      "channel": 1,
      "note": 92,
      "start": 1.1724,
      "duration": 0.0098,
      "velocity": 119,
      "chip": "ym2612"
    },
    {
      "channel": 2,
      "note": 93,
      "start": 1.1737,
      "duration": 0.0089,
      "velocity": 119,
      "chip": "ym2612"
    },
    {
      "channel": 0,
      "note": 90,
      "start": 1.1877,
      "duration": 0.0111,
      "velocity": 119,
      "chip": "ym2612"
    },
    {
      "channel": 1,
      "note": 92,
      "start": 1.189,
      "duration": 0.0102,
      "velocity": 119,
      "chip": "ym2612"
    },
    {
      "channel": 2,
      "note": 92,
      "start": 1.1902,
      "duration": 0.0094,
      "velocity": 119,
      "chip": "ym2612"
    },
    {
      "channel": 0,
      "note": 90,
      "start": 1.2043,
      "duration": 0.0107,
      "velocity": 119,
      "chip": "ym2612"
    },
    {
      "channel": 1,
      "note": 90,
      "start": 1.2056,
      "duration": 0.0098,
      "velocity": 119,
      "chip": "ym2612"
    },
    {
      "channel": 2,
      "note": 92,
      "start": 1.2068,
      "duration": 0.0089,
      "velocity": 119,
      "chip": "ym2612"
    },
    {
      "channel": 0,
      "note": 88,
      "start": 1.2185,
      "duration": 0.0107,
      "velocity": 119,
      "chip": "ym2612"
    },
    {
      "channel": 1,
      "note": 90,
      "start": 1.2198,
      "duration": 0.0098,
      "velocity": 119,
      "chip": "ym2612"
    },
    {
      "channel": 2,
      "note": 90,
      "start": 1.221,
      "duration": 0.0089,
      "velocity": 119,
      "chip": "ym2612"
    },
    {
      "channel": 0,
      "note": 88,
      "start": 1.2347,
      "duration": 0.0105,
      "velocity": 119,
      "chip": "ym2612"
    },
    {
      "channel": 1,
      "note": 88,
      "start": 1.2359,
      "duration": 0.0096,
      "velocity": 119,
      "chip": "ym2612"
    },
    {
      "channel": 2,
      "note": 90,
      "start": 1.2371,
      "duration": 0.0087,
      "velocity": 119,
      "chip": "ym2612"
    },
    {
      "channel": 0,
      "note": 85,
      "start": 1.2526,
      "duration": 0.0111,
      "velocity": 119,
      "chip": "ym2612"
    },
    {
      "channel": 1,
      "note": 88,
      "start": 1.2538,
      "duration": 0.0102,
      "velocity": 119,
      "chip": "ym2612"
    },
    {
      "channel": 2,
      "note": 88,
      "start": 1.255,
      "duration": 0.0094,
      "velocity": 119,
      "chip": "ym2612"
    },
    {
      "channel": 0,
      "note": 85,
      "start": 1.2693,
      "duration": 0.0086,
      "velocity": 119,
      "chip": "ym2612"
    },
    {
      "channel": 1,
      "note": 85,
      "start": 1.2705,
      "duration": 0.0077,
      "velocity": 119,
      "chip": "ym2612"
    },
    {
      "channel": 2,
      "note": 88,
      "start": 1.2717,
      "duration": 0.0068,
      "velocity": 119,
      "chip": "ym2612"
    },
    {
      "channel": 0,
      "note": 88,
      "start": 1.2833,
      "duration": 0.0107,
      "velocity": 119,
      "chip": "ym2612"
    },
    {
      "channel": 1,
      "note": 85,
      "start": 1.2846,
      "duration": 0.0097,
      "velocity": 119,
      "chip": "ym2612"
    },
    {
      "channel": 2,
      "note": 85,
      "start": 1.2858,
      "duration": 0.0089,
      "velocity": 119,
      "chip": "ym2612"
    },
    {
      "channel": 0,
      "note": 88,
      "start": 1.2994,
      "duration": 0.0107,
      "velocity": 119,
      "chip": "ym2612"
    },
    {
      "channel": 1,
      "note": 88,
      "start": 1.3007,
      "duration": 0.0098,
      "velocity": 119,
      "chip": "ym2612"
    },
    {
      "channel": 2,
      "note": 85,
      "start": 1.3019,
      "duration": 0.0089,
      "velocity": 119,
      "chip": "ym2612"
    },
    {
      "channel": 0,
      "note": 88,
      "start": 1.3156,
      "duration": 0.0115,
      "velocity": 119,
      "chip": "ym2612"
    },
    {
      "channel": 1,
      "note": 84,
      "start": 1.3171,
      "duration": 0.0104,
      "velocity": 119,
      "chip": "ym2612"
    },
    {
      "channel": 2,
      "note": 91,
      "start": 1.3183,
      "duration": 0.0094,
      "velocity": 119,
      "chip": "ym2612"
    },
    {
      "channel": 3,
      "note": 62,
      "start": 1.321,
      "duration": 0.0072,
      "velocity": 109,
      "chip": "ym2612"
    },
    {
      "channel": 0,
      "note": 88,
      "start": 1.3328,
      "duration": 0.0138,
      "velocity": 119,
      "chip": "ym2612"
    },
    {
      "channel": 1,
      "note": 84,
      "start": 1.334,
      "duration": 0.0129,
      "velocity": 119,
      "chip": "ym2612"
    },
    {
      "channel": 2,
      "note": 91,
      "start": 1.3352,
      "duration": 0.012,
      "velocity": 119,
      "chip": "ym2612"
    },
    {
      "channel": 3,
      "note": 62,
      "start": 1.3365,
      "duration": 0.0111,
      "velocity": 109,
      "chip": "ym2612"
    },
    {
      "channel": 0,
      "note": 88,
      "start": 1.3521,
      "duration": 0.0122,
      "velocity": 119,
      "chip": "ym2612"
    },
    {
      "channel": 1,
      "note": 84,
      "start": 1.3534,
      "duration": 0.0113,
      "velocity": 119,
      "chip": "ym2612"
    },
    {
      "channel": 2,
      "note": 91,
      "start": 1.3546,
      "duration": 0.0104,
      "velocity": 119,
      "chip": "ym2612"
    },
    {
      "channel": 3,
      "note": 50,
      "start": 1.3559,
      "duration": 0.027,
      "velocity": 109,
      "chip": "ym2612"
    },
    {
      "channel": 0,
      "note": 88,
      "start": 1.3702,
      "duration": 0.0117,
      "velocity": 119,
      "chip": "ym2612"
    },
    {
      "channel": 1,
      "note": 84,
      "start": 1.3715,
      "duration": 0.0108,
      "velocity": 119,
      "chip": "ym2612"
    },
    {
      "channel": 2,
      "note": 91,
      "start": 1.3727,
      "duration": 0.0099,
      "velocity": 119,
      "chip": "ym2612"
    },
    {
      "channel": 0,
      "note": 88,
      "start": 1.3875,
      "duration": 0.012,
      "velocity": 119,
      "chip": "ym2612"
    },
    {
      "channel": 1,
      "note": 84,
      "start": 1.3889,
      "duration": 0.0109,
      "velocity": 119,
      "chip": "ym2612"
    },
    {
      "channel": 2,
      "note": 91,
      "start": 1.3901,
      "duration": 0.01,
      "velocity": 119,
      "chip": "ym2612"
    },
    {
      "channel": 3,
      "note": 50,
      "start": 1.3913,
      "duration": 0.0287,
      "velocity": 109,
      "chip": "ym2612"
    },
    {
      "channel": 0,
      "note": 88,
      "start": 1.4056,
      "duration": 0.0134,
      "velocity": 119,
      "chip": "ym2612"
    },
    {
      "channel": 1,
      "note": 84,
      "start": 1.4068,
      "duration": 0.0126,
      "velocity": 119,
      "chip": "ym2612"
    },
    {
      "channel": 2,
      "note": 91,
      "start": 1.408,
      "duration": 0.0117,
      "velocity": 119,
      "chip": "ym2612"
    },
    {
      "channel": 0,
      "note": 86,
      "start": 1.425,
      "duration": 0.0266,
      "velocity": 119,
      "chip": "ym2612"
    },
    {
      "channel": 1,
      "note": 83,
      "start": 1.4262,
      "duration": 0.0257,
      "velocity": 119,
      "chip": "ym2612"
    },
    {
      "channel": 2,
      "note": 90,
      "start": 1.4274,
      "duration": 0.0248,
      "velocity": 119,
      "chip": "ym2612"
    },
    {
      "channel": 3,
      "note": 52,
      "start": 1.4287,
      "duration": 0.0239,
      "velocity": 109,
      "chip": "ym2612"
    },
    {
      "channel": 0,
      "note": 86,
      "start": 1.4571,
      "duration": 0.0246,
      "velocity": 119,
      "chip": "ym2612"
    },
    {
      "channel": 1,
      "note": 83,
      "start": 1.4583,
      "duration": 0.0237,
      "velocity": 119,
      "chip": "ym2612"
    },
    {
      "channel": 2,
      "note": 90,
      "start": 1.4596,
      "duration": 0.0228,
      "velocity": 119,
      "chip": "ym2612"
    },
    {
      "channel": 3,
      "note": 52,
      "start": 1.4608,
      "duration": 0.022,
      "velocity": 109,
      "chip": "ym2612"
    },
    {
      "channel": 0,
      "note": 100,
      "start": 1.4874,
      "duration": 0.0852,
      "velocity": 119,
      "chip": "ym2612"
    },
    {
      "channel": 1,
      "note": 83,
      "start": 1.4887,
      "duration": 0.0274,
      "velocity": 119,
      "chip": "ym2612"
    },
    {
      "channel": 2,
      "note": 90,
      "start": 1.4899,
      "duration": 0.0266,
      "velocity": 119,
      "chip": "ym2612"
    },
    {
      "channel": 3,
      "note": 52,
      "start": 1.4911,
      "duration": 0.0257,
      "velocity": 109,
      "chip": "ym2612"
    },
    {
      "channel": 1,
      "note": 83,
      "start": 1.5219,
      "duration": 0.0259,
      "velocity": 119,
      "chip": "ym2612"
    },
    {
      "channel": 2,
      "note": 90,
      "start": 1.5231,
      "duration": 0.025,
      "velocity": 119,
      "chip": "ym2612"
    },
    {
      "channel": 3,
      "note": 52,
      "start": 1.5243,
      "duration": 0.0241,
      "velocity": 109,
      "chip": "ym2612"
    },
    {
      "channel": 1,
      "note": 83,
      "start": 1.5534,
      "duration": 0.0239,
      "velocity": 119,
      "chip": "ym2612"
    },
    {
      "channel": 2,
      "note": 90,
      "start": 1.5546,
      "duration": 0.023,
      "velocity": 119,
      "chip": "ym2612"
    },
    {
      "channel": 3,
      "note": 52,
      "start": 1.5558,
      "duration": 0.0222,
      "velocity": 109,
      "chip": "ym2612"
    },
    {
      "channel": 0,
      "note": 57,
      "start": 1.5829,
      "duration": 0.0275,
      "velocity": 119,
      "chip": "ym2612"
    },
    {
      "channel": 1,
      "note": 105,
      "start": 1.5855,
      "duration": 0.0404,
      "velocity": 87,
      "chip": "ym2612"
    },
    {
      "channel": 2,
      "note": 105,
      "start": 1.5882,
      "duration": 0.0502,
      "velocity": 87,
      "chip": "ym2612"
    },
    {
      "channel": 3,
      "note": 57,
      "start": 1.5908,
      "duration": 0.2215,
      "velocity": 127,
      "chip": "ym2612"
    },
    {
      "channel": 0,
      "note": 85,
      "start": 1.6159,
      "duration": 0.0043,
      "velocity": 119,
      "chip": "ym2612"
    },
    {
      "channel": 0,
      "note": 88,
      "start": 1.6256,
      "duration": 0.0044,
      "velocity": 119,
      "chip": "ym2612"
    },
    {
      "channel": 1,
      "note": 85,
      "start": 1.6328,
      "duration": 0.0053,
      "velocity": 119,
      "chip": "ym2612"
    },
    {
      "channel": 0,
      "note": 90,
      "start": 1.6378,
      "duration": 0.0025,
      "velocity": 119,
      "chip": "ym2612"
    },
    {
      "channel": 1,
      "note": 88,
      "start": 1.6417,
      "duration": 0.0054,
      "velocity": 119,
      "chip": "ym2612"
    },
    {
      "channel": 0,
      "note": 93,
      "start": 1.6468,
      "duration": 0.0125,
      "velocity": 119,
      "chip": "ym2612"
    },
    {
      "channel": 2,
      "note": 85,
      "start": 1.6498,
      "duration": 0.0057,
      "velocity": 119,
      "chip": "ym2612"
    },
    {
      "channel": 1,
      "note": 90,
      "start": 1.6552,
      "duration": 0.0045,
      "velocity": 119,
      "chip": "ym2612"
    },
    {
      "channel": 2,
      "note": 88,
      "start": 1.661,
      "duration": 0.0063,
      "velocity": 119,
      "chip": "ym2612"
    },
    {
      "channel": 0,
      "note": 93,
      "start": 1.6658,
      "duration": 0.0107,
      "velocity": 119,
      "chip": "ym2612"
    },
    {
      "channel": 1,
      "note": 93,
      "start": 1.667,
      "duration": 0.0098,
      "velocity": 119,
      "chip": "ym2612"
    },
    {
      "channel": 2,
      "note": 90,
      "start": 1.6727,
      "duration": 0.0044,
      "velocity": 119,
      "chip": "ym2612"
    },
    {
      "channel": 0,
      "note": 92,
      "start": 1.6819,
      "duration": 0.0107,
      "velocity": 119,
      "chip": "ym2612"
    },
    {
      "channel": 1,
      "note": 93,
      "start": 1.6831,
      "duration": 0.0098,
      "velocity": 119,
      "chip": "ym2612"
    },
    {
      "channel": 2,
      "note": 93,
      "start": 1.6844,
      "duration": 0.0088,
      "velocity": 119,
      "chip": "ym2612"
    },
    {
      "channel": 0,
      "note": 92,
      "start": 1.6961,
      "duration": 0.0106,
      "velocity": 119,
      "chip": "ym2612"
    },
    {
      "channel": 1,
      "note": 92,
      "start": 1.6973,
      "duration": 0.0097,
      "velocity": 119,
      "chip": "ym2612"
    },
    {
      "channel": 2,
      "note": 93,
      "start": 1.6985,
      "duration": 0.0088,
      "velocity": 119,
      "chip": "ym2612"
    },
    {
      "channel": 0,
      "note": 90,
      "start": 1.7139,
      "duration": 0.0111,
      "velocity": 119,
      "chip": "ym2612"
    },
    {
      "channel": 1,
      "note": 92,
      "start": 1.7151,
      "duration": 0.0102,
      "velocity": 119,
      "chip": "ym2612"
    },
    {
      "channel": 2,
      "note": 92,
      "start": 1.7163,
      "duration": 0.0094,
      "velocity": 119,
      "chip": "ym2612"
    },
    {
      "channel": 0,
      "note": 90,
      "start": 1.7305,
      "duration": 0.0106,
      "velocity": 119,
      "chip": "ym2612"
    },
    {
      "channel": 1,
      "note": 90,
      "start": 1.7318,
      "duration": 0.0097,
      "velocity": 119,
      "chip": "ym2612"
    },
    {
      "channel": 2,
      "note": 92,
      "start": 1.733,
      "duration": 0.0088,
      "velocity": 119,
      "chip": "ym2612"
    },
    {
      "channel": 0,
      "note": 88,
      "start": 1.7467,
      "duration": 0.0087,
      "velocity": 119,
      "chip": "ym2612"
    },
    {
      "channel": 1,
      "note": 90,
      "start": 1.7479,
      "duration": 0.0078,
      "velocity": 119,
      "chip": "ym2612"
    },
    {
      "channel": 2,
      "note": 90,
      "start": 1.7491,
      "duration": 0.007,
      "velocity": 119,
      "chip": "ym2612"
    },
    {
      "channel": 0,
      "note": 88,
      "start": 1.7609,
      "duration": 0.0106,
      "velocity": 119,
      "chip": "ym2612"
    },
    {
      "channel": 1,
      "note": 88,
      "start": 1.7621,
      "duration": 0.0097,
      "velocity": 119,
      "chip": "ym2612"
    },
    {
      "channel": 2,
      "note": 90,
      "start": 1.7633,
      "duration": 0.0088,
      "velocity": 119,
      "chip": "ym2612"
    },
    {
      "channel": 0,
      "note": 85,
      "start": 1.7789,
      "duration": 0.0111,
      "velocity": 119,
      "chip": "ym2612"
    },
    {
      "channel": 1,
      "note": 88,
      "start": 1.7801,
      "duration": 0.0102,
      "velocity": 119,
      "chip": "ym2612"
    },
    {
      "channel": 2,
      "note": 88,
      "start": 1.7813,
      "duration": 0.0093,
      "velocity": 119,
      "chip": "ym2612"
    },
    {
      "channel": 0,
      "note": 85,
      "start": 1.7955,
      "duration": 0.0086,
      "velocity": 119,
      "chip": "ym2612"
    },
    {
      "channel": 1,
      "note": 85,
      "start": 1.7967,
      "duration": 0.0077,
      "velocity": 119,
      "chip": "ym2612"
    },
    {
      "channel": 2,
      "note": 88,
      "start": 1.7979,
      "duration": 0.0068,
      "velocity": 119,
      "chip": "ym2612"
    },
    {
      "channel": 0,
      "note": 88,
      "start": 1.8097,
      "duration": 0.0106,
      "velocity": 119,
      "chip": "ym2612"
    },
    {
      "channel": 1,
      "note": 85,
      "start": 1.8109,
      "duration": 0.0098,
      "velocity": 119,
      "chip": "ym2612"
    },
    {
      "channel": 2,
      "note": 85,
      "start": 1.8121,
      "duration": 0.0089,
      "velocity": 119,
      "chip": "ym2612"
    },
    {
      "channel": 0,
      "note": 88,
      "start": 1.826,
      "duration": 0.0106,
      "velocity": 119,
      "chip": "ym2612"
    },
    {
      "channel": 1,
      "note": 88,
      "start": 1.8272,
      "duration": 0.0098,
      "velocity": 119,
      "chip": "ym2612"
    },
    {
      "channel": 2,
      "note": 85,
      "start": 1.8284,
      "duration": 0.0089,
      "velocity": 119,
      "chip": "ym2612"
    },
    {
      "channel": 0,
      "note": 84,
      "start": 1.8423,
      "duration": 0.0117,
      "velocity": 119,
      "chip": "ym2612"
    },
    {
      "channel": 1,
      "note": 87,
      "start": 1.8438,
      "duration": 0.0106,
      "velocity": 119,
      "chip": "ym2612"
    },
    {
      "channel": 2,
      "note": 92,
      "start": 1.8451,
      "duration": 0.0096,
      "velocity": 119,
      "chip": "ym2612"
    },
    {
      "channel": 3,
      "note": 56,
      "start": 1.8478,
      "duration": 0.0256,
      "velocity": 109,
      "chip": "ym2612"
    },
    {
      "channel": 0,
      "note": 84,
      "start": 1.8596,
      "duration": 0.0128,
      "velocity": 119,
      "chip": "ym2612"
    },
    {
      "channel": 1,
      "note": 87,
      "start": 1.8608,
      "duration": 0.012,
      "velocity": 119,
      "chip": "ym2612"
    },
    {
      "channel": 2,
      "note": 92,
      "start": 1.862,
      "duration": 0.0111,
      "velocity": 119,
      "chip": "ym2612"
    },
    {
      "channel": 0,
      "note": 84,
      "start": 1.8786,
      "duration": 0.012,
      "velocity": 119,
      "chip": "ym2612"
    },
    {
      "channel": 1,
      "note": 87,
      "start": 1.8798,
      "duration": 0.0112,
      "velocity": 119,
      "chip": "ym2612"
    },
    {
      "channel": 2,
      "note": 90,
      "start": 1.881,
      "duration": 0.0102,
      "velocity": 119,
      "chip": "ym2612"
    },
    {
      "channel": 3,
      "note": 58,
      "start": 1.8822,
      "duration": 0.0282,
      "velocity": 109,
      "chip": "ym2612"
    },
    {
      "channel": 0,
      "note": 84,
      "start": 1.8962,
      "duration": 0.0132,
      "velocity": 119,
      "chip": "ym2612"
    },
    {
      "channel": 1,
      "note": 87,
      "start": 1.8974,
      "duration": 0.0123,
      "velocity": 119,
      "chip": "ym2612"
    },
    {
      "channel": 2,
      "note": 90,
      "start": 1.8986,
      "duration": 0.0115,
      "velocity": 119,
      "chip": "ym2612"
    },
    {
      "channel": 0,
      "note": 80,
      "start": 1.9132,
      "duration": 0.012,
      "velocity": 119,
      "chip": "ym2612"
    },
    {
      "channel": 1,
      "note": 84,
      "start": 1.9144,
      "duration": 0.011,
      "velocity": 119,
      "chip": "ym2612"
    },
    {
      "channel": 2,
      "note": 89,
      "start": 1.9156,
      "duration": 0.0102,
      "velocity": 119,
      "chip": "ym2612"
    },
    {
      "channel": 3,
      "note": 60,
      "start": 1.9169,
      "duration": 0.0292,
      "velocity": 109,
      "chip": "ym2612"
    },
    {
      "channel": 0,
      "note": 80,
      "start": 1.9307,
      "duration": 0.0144,
      "velocity": 119,
      "chip": "ym2612"
    },
    {
      "channel": 1,
      "note": 84,
      "start": 1.9319,
      "duration": 0.0135,
      "velocity": 119,
      "chip": "ym2612"
    },
    {
      "channel": 2,
      "note": 89,
      "start": 1.9332,
      "duration": 0.0126,
      "velocity": 119,
      "chip": "ym2612"
    },
    {
      "channel": 0,
      "note": 77,
      "start": 1.9506,
      "duration": 0.0261,
      "velocity": 119,
      "chip": "ym2612"
    },
    {
      "channel": 1,
      "note": 80,
      "start": 1.9519,
      "duration": 0.0252,
      "velocity": 119,
      "chip": "ym2612"
    },
    {
      "channel": 2,
      "note": 85,
      "start": 1.9531,
      "duration": 0.0243,
      "velocity": 119,
      "chip": "ym2612"
    },
    {
      "channel": 3,
      "note": 61,
      "start": 1.9543,
      "duration": 0.0235,
      "velocity": 109,
      "chip": "ym2612"
    },
    {
      "channel": 0,
      "note": 77,
      "start": 1.9823,
      "duration": 0.0246,
      "velocity": 119,
      "chip": "ym2612"
    },
    {
      "channel": 1,
      "note": 80,
      "start": 1.9836,
      "duration": 0.0237,
      "velocity": 119,
      "chip": "ym2612"
    },
    {
      "channel": 2,
      "note": 85,
      "start": 1.9848,
      "duration": 0.0228,
      "velocity": 119,
      "chip": "ym2612"
    },
    {
      "channel": 3,
      "note": 61,
      "start": 1.986,
      "duration": 0.022,
      "velocity": 109,
      "chip": "ym2612"
    },
    {
      "channel": 0,
      "note": 77,
      "start": 2.0138,
      "duration": 0.0265,
      "velocity": 119,
      "chip": "ym2612"
    },
    {
      "channel": 1,
      "note": 80,
      "start": 2.0151,
      "duration": 0.0256,
      "velocity": 119,
      "chip": "ym2612"
    },
    {
      "channel": 2,
      "note": 85,
      "start": 2.0163,
      "duration": 0.0247,
      "velocity": 119,
      "chip": "ym2612"
    },
    {
      "channel": 3,
      "note": 61,
      "start": 2.0175,
      "duration": 0.0239,
      "velocity": 109,
      "chip": "ym2612"
    },
    {
      "channel": 0,
      "note": 77,
      "start": 2.0459,
      "duration": 0.0263,
      "velocity": 119,
      "chip": "ym2612"
    },
    {
      "channel": 1,
      "note": 80,
      "start": 2.0471,
      "duration": 0.0254,
      "velocity": 119,
      "chip": "ym2612"
    },
    {
      "channel": 2,
      "note": 85,
      "start": 2.0483,
      "duration": 0.0245,
      "velocity": 119,
      "chip": "ym2612"
    },
    {
      "channel": 3,
      "note": 61,
      "start": 2.0496,
      "duration": 0.0236,
      "velocity": 109,
      "chip": "ym2612"
    },
    {
      "channel": 0,
      "note": 77,
      "start": 2.0783,
      "duration": 0.0285,
      "velocity": 119,
      "chip": "ym2612"
    },
    {
      "channel": 1,
      "note": 80,
      "start": 2.0795,
      "duration": 0.0276,
      "velocity": 119,
      "chip": "ym2612"
    },
    {
      "channel": 2,
      "note": 85,
      "start": 2.0807,
      "duration": 0.0268,
      "velocity": 119,
      "chip": "ym2612"
    },
    {
      "channel": 3,
      "note": 61,
      "start": 2.0819,
      "duration": 0.0259,
      "velocity": 109,
      "chip": "ym2612"
    },
    {
      "channel": 0,
      "note": 92,
      "start": 2.1151,
      "duration": 0.0481,
      "velocity": 127,
      "chip": "ym2612"
    },
    {
      "channel": 1,
      "note": 80,
      "start": 2.1163,
      "duration": 0.0222,
      "velocity": 119,
      "chip": "ym2612"
    },
    {
      "channel": 2,
      "note": 85,
      "start": 2.1176,
      "duration": 0.0213,
      "velocity": 119,
      "chip": "ym2612"
    },
    {
      "channel": 3,
      "note": 54,
      "start": 2.1188,
      "duration": 0.0205,
      "velocity": 109,
      "chip": "ym2612"
    },
    {
      "channel": 1,
      "note": 85,
      "start": 2.1441,
      "duration": 0.0466,
      "velocity": 119,
      "chip": "ym2612"
    },
    {
      "channel": 2,
      "note": 88,
      "start": 2.1454,
      "duration": 0.0457,
      "velocity": 119,
      "chip": "ym2612"
    },
    {
      "channel": 3,
      "note": 54,
      "start": 2.1466,
      "duration": 0.0219,
      "velocity": 109,
      "chip": "ym2612"
    },
    {
      "channel": 0,
      "note": 90,
      "start": 2.1714,
      "duration": 0.0483,
      "velocity": 127,
      "chip": "ym2612"
    },
    {
      "channel": 3,
      "note": 61,
      "start": 2.1732,
      "duration": 0.0226,
      "velocity": 109,
      "chip": "ym2612"
    },
    {
      "channel": 1,
      "note": 81,
      "start": 2.2006,
      "duration": 0.0106,
      "velocity": 119,
      "chip": "ym2612"
    },
    {
      "channel": 2,
      "note": 85,
      "start": 2.2018,
      "duration": 0.0097,
      "velocity": 119,
      "chip": "ym2612"
    },
    {
      "channel": 3,
      "note": 61,
      "start": 2.2031,
      "duration": 0.022,
      "velocity": 109,
      "chip": "ym2612"
    },
    {
      "channel": 1,
      "note": 81,
      "start": 2.2147,
      "duration": 0.0097,
      "velocity": 119,
      "chip": "ym2612"
    },
    {
      "channel": 2,
      "note": 85,
      "start": 2.2159,
      "duration": 0.0088,
      "velocity": 119,
      "chip": "ym2612"
    },
    {
      "channel": 0,
      "note": 88,
      "start": 2.2308,
      "duration": 0.0494,
      "velocity": 127,
      "chip": "ym2612"
    },
    {
      "channel": 1,
      "note": 81,
      "start": 2.2321,
      "duration": 0.0486,
      "velocity": 119,
      "chip": "ym2612"
    },
    {
      "channel": 2,
      "note": 84,
      "start": 2.2333,
      "duration": 0.0477,
      "velocity": 119,
      "chip": "ym2612"
    },
    {
      "channel": 3,
      "note": 59,
      "start": 2.2345,
      "duration": 0.0228,
      "velocity": 109,
      "chip": "ym2612"
    },
    {
      "channel": 3,
      "note": 59,
      "start": 2.2628,
      "duration": 0.0251,
      "velocity": 109,
      "chip": "ym2612"
    },
    {
      "channel": 0,
      "note": 90,
      "start": 2.2931,
      "duration": 0.0463,
      "velocity": 127,
      "chip": "ym2612"
    },
    {
      "channel": 1,
      "note": 84,
      "start": 2.2943,
      "duration": 0.0455,
      "velocity": 119,
      "chip": "ym2612"
    },
    {
      "channel": 2,
      "note": 87,
      "start": 2.2955,
      "duration": 0.0446,
      "velocity": 119,
      "chip": "ym2612"
    },
    {
      "channel": 3,
      "note": 54,
      "start": 2.2967,
      "duration": 0.0203,
      "velocity": 109,
      "chip": "ym2612"
    },
    {
      "channel": 3,
      "note": 54,
      "start": 2.3224,
      "duration": 0.0223,
      "velocity": 109,
      "chip": "ym2612"
    },
    {
      "channel": 0,
      "note": 92,
      "start": 2.35,
      "duration": 0.0842,
      "velocity": 127,
      "chip": "ym2612"
    },
    {
      "channel": 2,
      "note": 83,
      "start": 2.3552,
      "duration": 0.0238,
      "velocity": 127,
      "chip": "ym2612"
    },
    {
      "channel": 3,
      "note": 52,
      "start": 2.3564,
      "duration": 0.0458,
      "velocity": 109,
      "chip": "ym2612"
    },
    {
      "channel": 2,
      "note": 83,
      "start": 2.3844,
      "duration": 0.0219,
      "velocity": 127,
      "chip": "ym2612"
    },
    {
      "channel": 1,
      "note": 92,
      "start": 2.4109,
      "duration": 0.0798,
      "velocity": 127,
      "chip": "ym2612"
    },
    {
      "channel": 2,
      "note": 83,
      "start": 2.4121,
      "duration": 0.0272,
      "velocity": 127,
      "chip": "ym2612"
    },
    {
      "channel": 3,
      "note": 52,
      "start": 2.4133,
      "duration": 0.0263,
      "velocity": 109,
      "chip": "ym2612"
    },
    {
      "channel": 0,
      "note": 95,
      "start": 2.4442,
      "duration": 0.0462,
      "velocity": 127,
      "chip": "ym2612"
    },
    {
      "channel": 2,
      "note": 87,
      "start": 2.4458,
      "duration": 0.0209,
      "velocity": 127,
      "chip": "ym2612"
    },
    {
      "channel": 3,
      "note": 52,
      "start": 2.447,
      "duration": 0.02,
      "velocity": 109,
      "chip": "ym2612"
    },
    {
      "channel": 2,
      "note": 87,
      "start": 2.4722,
      "duration": 0.0234,
      "velocity": 127,
      "chip": "ym2612"
    },
    {
      "channel": 3,
      "note": 52,
      "start": 2.4734,
      "duration": 0.0225,
      "velocity": 109,
      "chip": "ym2612"
    },
    {
      "channel": 0,
      "note": 93,
      "start": 2.502,
      "duration": 0.0516,
      "velocity": 127,
      "chip": "ym2612"
    },
    {
      "channel": 1,
      "note": 95,
      "start": 2.5033,
      "duration": 0.0507,
      "velocity": 127,
      "chip": "ym2612"
    },
    {
      "channel": 2,
      "note": 87,
      "start": 2.5045,
      "duration": 0.025,
      "velocity": 127,
      "chip": "ym2612"
    },
    {
      "channel": 3,
      "note": 59,
      "start": 2.5057,
      "duration": 0.0489,
      "velocity": 109,
      "chip": "ym2612"
    },
    {
      "channel": 2,
      "note": 87,
      "start": 2.5351,
      "duration": 0.0237,
      "velocity": 127,
      "chip": "ym2612"
    },
    {
      "channel": 0,
      "note": 92,
      "start": 2.564,
      "duration": 0.0287,
      "velocity": 127,
      "chip": "ym2612"
    },
    {
      "channel": 1,
      "note": 93,
      "start": 2.5652,
      "duration": 0.0535,
      "velocity": 127,
      "chip": "ym2612"
    },
    {
      "channel": 2,
      "note": 87,
      "start": 2.5664,
      "duration": 0.027,
      "velocity": 127,
      "chip": "ym2612"
    },
    {
      "channel": 3,
      "note": 59,
      "start": 2.568,
      "duration": 0.0256,
      "velocity": 109,
      "chip": "ym2612"
    },
    {
      "channel": 0,
      "note": 91,
      "start": 2.5992,
      "duration": 0.0862,
      "velocity": 127,
      "chip": "ym2612"
    },
    {
      "channel": 2,
      "note": 86,
      "start": 2.6008,
      "duration": 0.0249,
      "velocity": 127,
      "chip": "ym2612"
    },
    {
      "channel": 3,
      "note": 57,
      "start": 2.602,
      "duration": 0.0583,
      "velocity": 109,
      "chip": "ym2612"
    },
    {
      "channel": 1,
      "note": 92,
      "start": 2.6323,
      "duration": 0.0272,
      "velocity": 127,
      "chip": "ym2612"
    },
    {
      "channel": 2,
      "note": 86,
      "start": 2.6335,
      "duration": 0.0263,
      "velocity": 127,
      "chip": "ym2612"
    },
    {
      "channel": 1,
      "note": 91,
      "start": 2.6631,
      "duration": 0.0855,
      "velocity": 127,
      "chip": "ym2612"
    },
    {
      "channel": 2,
      "note": 86,
      "start": 2.6643,
      "duration": 0.0287,
      "velocity": 127,
      "chip": "ym2612"
    },
    {
      "channel": 3,
      "note": 52,
      "start": 2.6655,
      "duration": 0.0278,
      "velocity": 109,
      "chip": "ym2612"
    },
    {
      "channel": 0,
      "note": 95,
      "start": 2.6992,
      "duration": 0.049,
      "velocity": 127,
      "chip": "ym2612"
    },
    {
      "channel": 2,
      "note": 83,
      "start": 2.7008,
      "duration": 0.0249,
      "velocity": 127,
      "chip": "ym2612"
    },
    {
      "channel": 3,
      "note": 45,
      "start": 2.7024,
      "duration": 0.0467,
      "velocity": 109,
      "chip": "ym2612"
    },
    {
      "channel": 2,
      "note": 83,
      "start": 2.7311,
      "duration": 0.0225,
      "velocity": 127,
      "chip": "ym2612"
    },
    {
      "channel": 0,
      "note": 93,
      "start": 2.7592,
      "duration": 0.0523,
      "velocity": 127,
      "chip": "ym2612"
    },
    {
      "channel": 1,
      "note": 95,
      "start": 2.7604,
      "duration": 0.0514,
      "velocity": 127,
      "chip": "ym2612"
    },
    {
      "channel": 2,
      "note": 83,
      "start": 2.762,
      "duration": 0.0244,
      "velocity": 127,
      "chip": "ym2612"
    },
    {
      "channel": 3,
      "note": 45,
      "start": 2.7632,
      "duration": 0.0235,
      "velocity": 109,
      "chip": "ym2612"
    },
    {
      "channel": 2,
      "note": 83,
      "start": 2.7923,
      "duration": 0.0244,
      "velocity": 127,
      "chip": "ym2612"
    },
    {
      "channel": 3,
      "note": 45,
      "start": 2.7935,
      "duration": 0.0236,
      "velocity": 109,
      "chip": "ym2612"
    },
    {
      "channel": 0,
      "note": 91,
      "start": 2.8233,
      "duration": 0.0261,
      "velocity": 127,
      "chip": "ym2612"
    },
    {
      "channel": 1,
      "note": 93,
      "start": 2.8245,
      "duration": 0.0504,
      "velocity": 127,
      "chip": "ym2612"
    },
    {
      "channel": 2,
      "note": 83,
      "start": 2.8261,
      "duration": 0.0239,
      "velocity": 127,
      "chip": "ym2612"
    },
    {
      "channel": 3,
      "note": 45,
      "start": 2.8273,
      "duration": 0.023,
      "velocity": 109,
      "chip": "ym2612"
    },
    {
      "channel": 0,
      "note": 92,
      "start": 2.855,
      "duration": 0.0845,
      "velocity": 127,
      "chip": "ym2612"
    },
    {
      "channel": 2,
      "note": 83,
      "start": 2.8572,
      "duration": 0.0248,
      "velocity": 127,
      "chip": "ym2612"
    },
    {
      "channel": 3,
      "note": 52,
      "start": 2.8584,
      "duration": 0.0551,
      "velocity": 109,
      "chip": "ym2612"
    },
    {
      "channel": 1,
      "note": 91,
      "start": 2.8872,
      "duration": 0.0257,
      "velocity": 127,
      "chip": "ym2612"
    },
    {
      "channel": 2,
      "note": 83,
      "start": 2.8888,
      "duration": 0.0244,
      "velocity": 127,
      "chip": "ym2612"
    },
    {
      "channel": 1,
      "note": 92,
      "start": 2.9164,
      "duration": 0.0815,
      "velocity": 127,
      "chip": "ym2612"
    },
    {
      "channel": 2,
      "note": 83,
      "start": 2.9181,
      "duration": 0.0264,
      "velocity": 127,
      "chip": "ym2612"
    },
    {
      "channel": 3,
      "note": 64,
      "start": 2.9193,
      "duration": 0.0551,
      "velocity": 109,
      "chip": "ym2612"
    },
    {
      "channel": 0,
      "note": 95,
      "start": 2.9498,
      "duration": 0.0477,
      "velocity": 127,
      "chip": "ym2612"
    },
    {
      "channel": 2,
      "note": 87,
      "start": 2.9517,
      "duration": 0.0223,
      "velocity": 127,
      "chip": "ym2612"
    },
    {
      "channel": 2,
      "note": 87,
      "start": 2.9796,
      "duration": 0.023,
      "velocity": 127,
      "chip": "ym2612"
    },
    {
      "channel": 3,
      "note": 64,
      "start": 2.9813,
      "duration": 0.0217,
      "velocity": 109,
      "chip": "ym2612"
    },
    {
      "channel": 0,
      "note": 100,
      "start": 3.008,
      "duration": 0.0505,
      "velocity": 127,
      "chip": "ym2612"
    },
    {
      "channel": 1,
      "note": 95,
      "start": 3.0097,
      "duration": 0.0493,
      "velocity": 127,
      "chip": "ym2612"
    },
    {
      "channel": 2,
      "note": 87,
      "start": 3.0109,
      "duration": 0.0243,
      "velocity": 127,
      "chip": "ym2612"
    },
    {
      "channel": 3,
      "note": 59,
      "start": 3.0121,
      "duration": 0.052,
      "velocity": 109,
      "chip": "ym2612"
    },
    {
      "channel": 2,
      "note": 87,
      "start": 3.041,
      "duration": 0.0227,
      "velocity": 127,
      "chip": "ym2612"
    },
    {
      "channel": 0,
      "note": 99,
      "start": 3.0689,
      "duration": 0.0279,
      "velocity": 127,
      "chip": "ym2612"
    },
    {
      "channel": 1,
      "note": 100,
      "start": 3.0706,
      "duration": 0.0513,
      "velocity": 127,
      "chip": "ym2612"
    },
    {
      "channel": 2,
      "note": 87,
      "start": 3.0718,
      "duration": 0.0258,
      "velocity": 127,
      "chip": "ym2612"
    },
    {
      "channel": 3,
      "note": 56,
      "start": 3.073,
      "duration": 0.0254,
      "velocity": 109,
      "chip": "ym2612"
    },
    {
      "channel": 0,
      "note": 98,
      "start": 3.1035,
      "duration": 0.0788,
      "velocity": 127,
      "chip": "ym2612"
    },
    {
      "channel": 2,
      "note": 86,
      "start": 3.1051,
      "duration": 0.0237,
      "velocity": 127,
      "chip": "ym2612"
    },
    {
      "channel": 3,
      "note": 57,
      "start": 3.1063,
      "duration": 0.0232,
      "velocity": 109,
      "chip": "ym2612"
    },
    {
      "channel": 1,
      "note": 99,
      "start": 3.1357,
      "duration": 0.024,
      "velocity": 127,
      "chip": "ym2612"
    },
    {
      "channel": 2,
      "note": 86,
      "start": 3.1369,
      "duration": 0.0236,
      "velocity": 127,
      "chip": "ym2612"
    },
    {
      "channel": 3,
      "note": 52,
      "start": 3.1381,
      "duration": 0.0227,
      "velocity": 109,
      "chip": "ym2612"
    },
    {
      "channel": 1,
      "note": 98,
      "start": 3.1655,
      "duration": 0.0784,
      "velocity": 127,
      "chip": "ym2612"
    },
    {
      "channel": 2,
      "note": 86,
      "start": 3.1667,
      "duration": 0.024,
      "velocity": 127,
      "chip": "ym2612"
    },
    {
      "channel": 3,
      "note": 45,
      "start": 3.168,
      "duration": 0.0459,
      "velocity": 109,
      "chip": "ym2612"
    },
    {
      "channel": 0,
      "note": 95,
      "start": 3.1966,
      "duration": 0.0749,
      "velocity": 127,
      "chip": "ym2612"
    },
    {
      "channel": 2,
      "note": 83,
      "start": 3.1982,
      "duration": 0.0229,
      "velocity": 127,
      "chip": "ym2612"
    },
    {
      "channel": 2,
      "note": 83,
      "start": 3.2263,
      "duration": 0.0222,
      "velocity": 127,
      "chip": "ym2612"
    },
    {
      "channel": 3,
      "note": 45,
      "start": 3.2275,
      "duration": 0.0213,
      "velocity": 109,
      "chip": "ym2612"
    },
    {
      "channel": 1,
      "note": 95,
      "start": 3.2534,
      "duration": 0.0856,
      "velocity": 127,
      "chip": "ym2612"
    },
    {
      "channel": 2,
      "note": 83,
      "start": 3.2546,
      "duration": 0.024,
      "velocity": 127,
      "chip": "ym2612"
    },
    {
      "channel": 3,
      "note": 45,
      "start": 3.2558,
      "duration": 0.0232,
      "velocity": 109,
      "chip": "ym2612"
    },
    {
      "channel": 0,
      "note": 98,
      "start": 3.2851,
      "duration": 0.0536,
      "velocity": 127,
      "chip": "ym2612"
    },
    {
      "channel": 2,
      "note": 83,
      "start": 3.2866,
      "duration": 0.0266,
      "velocity": 127,
      "chip": "ym2612"
    },
    {
      "channel": 3,
      "note": 57,
      "start": 3.2878,
      "duration": 0.0518,
      "velocity": 109,
      "chip": "ym2612"
    },
    {
      "channel": 2,
      "note": 83,
      "start": 3.3177,
      "duration": 0.026,
      "velocity": 127,
      "chip": "ym2612"
    },
    {
      "channel": 0,
      "note": 92,
      "start": 3.35,
      "duration": 0.0129,
      "velocity": 127,
      "chip": "ym2612"
    },
    {
      "channel": 2,
      "note": 85,
      "start": 3.3534,
      "duration": 0.0262,
      "velocity": 98,
      "chip": "ym2612"
    },
    {
      "channel": 3,
      "note": 61,
      "start": 3.3546,
      "duration": 0.0856,
      "velocity": 109,
      "chip": "ym2612"
    },
    {
      "channel": 0,
      "note": 95,
      "start": 3.3664,
      "duration": 0.0125,
      "velocity": 127,
      "chip": "ym2612"
    },
    {
      "channel": 0,
      "note": 99,
      "start": 3.3848,
      "duration": 0.0114,
      "velocity": 127,
      "chip": "ym2612"
    },
    {
      "channel": 1,
      "note": 92,
      "start": 3.3863,
      "duration": 0.0103,
      "velocity": 127,
      "chip": "ym2612"
    },
    {
      "channel": 2,
      "note": 85,
      "start": 3.3876,
      "duration": 0.0252,
      "velocity": 93,
      "chip": "ym2612"
    },
    {
      "channel": 0,
      "note": 99,
      "start": 3.4018,
      "duration": 0.0102,
      "velocity": 127,
      "chip": "ym2612"
    },
    {
      "channel": 1,
      "note": 95,
      "start": 3.4031,
      "duration": 0.0093,
      "velocity": 127,
      "chip": "ym2612"
    },
    {
      "channel": 0,
      "note": 99,
      "start": 3.4176,
      "duration": 0.0092,
      "velocity": 127,
      "chip": "ym2612"
    },
    {
      "channel": 1,
      "note": 99,
      "start": 3.4189,
      "duration": 0.0083,
      "velocity": 127,
      "chip": "ym2612"
    },
    {
      "channel": 2,
      "note": 85,
      "start": 3.4202,
      "duration": 0.0269,
      "velocity": 87,
      "chip": "ym2612"
    },
    {
      "channel": 0,
      "note": 99,
      "start": 3.4326,
      "duration": 0.0137,
      "velocity": 127,
      "chip": "ym2612"
    },
    {
      "channel": 1,
      "note": 99,
      "start": 3.4338,
      "duration": 0.0129,
      "velocity": 127,
      "chip": "ym2612"
    },
    {
      "channel": 0,
      "note": 99,
      "start": 3.453,
      "duration": 0.0121,
      "velocity": 127,
      "chip": "ym2612"
    },
    {
      "channel": 1,
      "note": 99,
      "start": 3.4542,
      "duration": 0.0112,
      "velocity": 127,
      "chip": "ym2612"
    },
    {
      "channel": 2,
      "note": 85,
      "start": 3.4555,
      "duration": 0.0273,
      "velocity": 82,
      "chip": "ym2612"
    },
    {
      "channel": 3,
      "note": 56,
      "start": 3.4567,
      "duration": 0.0572,
      "velocity": 109,
      "chip": "ym2612"
    },
    {
      "channel": 0,
      "note": 99,
      "start": 3.4711,
      "duration": 0.0109,
      "velocity": 127,
      "chip": "ym2612"
    },
    {
      "channel": 1,
      "note": 99,
      "start": 3.4723,
      "duration": 0.0102,
      "velocity": 127,
      "chip": "ym2612"
    },
    {
      "channel": 0,
      "note": 99,
      "start": 3.4884,
      "duration": 0.0291,
      "velocity": 127,
      "chip": "ym2612"
    },
    {
      "channel": 1,
      "note": 99,
      "start": 3.4896,
      "duration": 0.0102,
      "velocity": 127,
      "chip": "ym2612"
    },
    {
      "channel": 2,
      "note": 88,
      "start": 3.4909,
      "duration": 0.0273,
      "velocity": 98,
      "chip": "ym2612"
    },
    {
      "channel": 1,
      "note": 99,
      "start": 3.5065,
      "duration": 0.0114,
      "velocity": 127,
      "chip": "ym2612"
    },
    {
      "channel": 0,
      "note": 95,
      "start": 3.5237,
      "duration": 0.024,
      "velocity": 127,
      "chip": "ym2612"
    },
    {
      "channel": 1,
      "note": 99,
      "start": 3.5249,
      "duration": 0.0232,
      "velocity": 127,
      "chip": "ym2612"
    },
    {
      "channel": 2,
      "note": 88,
      "start": 3.5262,
      "duration": 0.0223,
      "velocity": 93,
      "chip": "ym2612"
    },
    {
      "channel": 3,
      "note": 59,
      "start": 3.5274,
      "duration": 0.0514,
      "velocity": 109,
      "chip": "ym2612"
    },
    {
      "channel": 0,
      "note": 92,
      "start": 3.5548,
      "duration": 0.0285,
      "velocity": 127,
      "chip": "ym2612"
    },
    {
      "channel": 1,
      "note": 95,
      "start": 3.556,
      "duration": 0.0276,
      "velocity": 127,
      "chip": "ym2612"
    },
    {
      "channel": 2,
      "note": 88,
      "start": 3.5573,
      "duration": 0.0266,
      "velocity": 87,
      "chip": "ym2612"
    },
    {
      "channel": 0,
      "note": 99,
      "start": 3.5878,
      "duration": 0.0291,
      "velocity": 127,
      "chip": "ym2612"
    },
    {
      "channel": 1,
      "note": 92,
      "start": 3.589,
      "duration": 0.0283,
      "velocity": 127,
      "chip": "ym2612"
    },
    {
      "channel": 2,
      "note": 88,
      "start": 3.5903,
      "duration": 0.0273,
      "velocity": 82,
      "chip": "ym2612"
    },
    {
      "channel": 3,
      "note": 59,
      "start": 3.5915,
      "duration": 0.0264,
      "velocity": 109,
      "chip": "ym2612"
    },
    {
      "channel": 0,
      "note": 98,
      "start": 3.6234,
      "duration": 0.0525,
      "velocity": 127,
      "chip": "ym2612"
    },
    {
      "channel": 1,
      "note": 99,
      "start": 3.6246,
      "duration": 0.0262,
      "velocity": 127,
      "chip": "ym2612"
    },
    {
      "channel": 2,
      "note": 84,
      "start": 3.6259,
      "duration": 0.0254,
      "velocity": 98,
      "chip": "ym2612"
    },
    {
      "channel": 3,
      "note": 60,
      "start": 3.6271,
      "duration": 0.0808,
      "velocity": 109,
      "chip": "ym2612"
    },
    {
      "channel": 1,
      "note": 98,
      "start": 3.6566,
      "duration": 0.0505,
      "velocity": 127,
      "chip": "ym2612"
    },
    {
      "channel": 2,
      "note": 84,
      "start": 3.6579,
      "duration": 0.023,
      "velocity": 93,
      "chip": "ym2612"
    },
    {
      "channel": 0,
      "note": 94,
      "start": 3.6871,
      "duration": 0.0084,
      "velocity": 127,
      "chip": "ym2612"
    },
    {
      "channel": 2,
      "note": 84,
      "start": 3.6889,
      "duration": 0.0257,
      "velocity": 87,
      "chip": "ym2612"
    },
    {
      "channel": 0,
      "note": 94,
      "start": 3.7011,
      "duration": 0.0128,
      "velocity": 127,
      "chip": "ym2612"
    },
    {
      "channel": 0,
      "note": 103,
      "start": 3.7202,
      "duration": 0.0547,
      "velocity": 127,
      "chip": "ym2612"
    },
    {
      "channel": 1,
      "note": 94,
      "start": 3.7215,
      "duration": 0.0113,
      "velocity": 127,
      "chip": "ym2612"
    },
    {
      "channel": 2,
      "note": 84,
      "start": 3.7227,
      "duration": 0.0264,
      "velocity": 82,
      "chip": "ym2612"
    },
    {
      "channel": 3,
      "note": 55,
      "start": 3.7239,
      "duration": 0.0518,
      "velocity": 109,
      "chip": "ym2612"
    },
    {
      "channel": 1,
      "note": 94,
      "start": 3.7384,
      "duration": 0.0102,
      "velocity": 127,
      "chip": "ym2612"
    },
    {
      "channel": 1,
      "note": 103,
      "start": 3.7558,
      "duration": 0.0519,
      "velocity": 127,
      "chip": "ym2612"
    },
    {
      "channel": 2,
      "note": 87,
      "start": 3.757,
      "duration": 0.0228,
      "velocity": 98,
      "chip": "ym2612"
    },
    {
      "channel": 0,
      "note": 101,
      "start": 3.7861,
      "duration": 0.0855,
      "velocity": 127,
      "chip": "ym2612"
    },
    {
      "channel": 2,
      "note": 87,
      "start": 3.7877,
      "duration": 0.0254,
      "velocity": 93,
      "chip": "ym2612"
    },
    {
      "channel": 3,
      "note": 55,
      "start": 3.7889,
      "duration": 0.0244,
      "velocity": 109,
      "chip": "ym2612"
    },
    {
      "channel": 1,
      "note": 101,
      "start": 3.8182,
      "duration": 0.0882,
      "velocity": 127,
      "chip": "ym2612"
    },
    {
      "channel": 2,
      "note": 87,
      "start": 3.8195,
      "duration": 0.0295,
      "velocity": 87,
      "chip": "ym2612"
    },
    {
      "channel": 3,
      "note": 48,
      "start": 3.8207,
      "duration": 0.0519,
      "velocity": 109,
      "chip": "ym2612"
    },
    {
      "channel": 2,
      "note": 87,
      "start": 3.8537,
      "duration": 0.0232,
      "velocity": 82,
      "chip": "ym2612"
    },
    {
      "channel": 0,
      "note": 92,
      "start": 3.883,
      "duration": 0.0137,
      "velocity": 127,
      "chip": "ym2612"
    },
    {
      "channel": 2,
      "note": 85,
      "start": 3.8845,
      "duration": 0.0292,
      "velocity": 98,
      "chip": "ym2612"
    },
    {
      "channel": 3,
      "note": 61,
      "start": 3.8857,
      "duration": 0.0885,
      "velocity": 109,
      "chip": "ym2612"
    },
    {
      "channel": 0,
      "note": 95,
      "start": 3.9021,
      "duration": 0.011,
      "velocity": 127,
      "chip": "ym2612"
    },
    {
      "channel": 0,
      "note": 99,
      "start": 3.9191,
      "duration": 0.0112,
      "velocity": 127,
      "chip": "ym2612"
    },
    {
      "channel": 1,
      "note": 92,
      "start": 3.9203,
      "duration": 0.0103,
      "velocity": 127,
      "chip": "ym2612"
    },
    {
      "channel": 2,
      "note": 85,
      "start": 3.9216,
      "duration": 0.0252,
      "velocity": 93,
      "chip": "ym2612"
    },
    {
      "channel": 0,
      "note": 99,
      "start": 3.9359,
      "duration": 0.01,
      "velocity": 127,
      "chip": "ym2612"
    },
    {
      "channel": 1,
      "note": 95,
      "start": 3.9371,
      "duration": 0.0092,
      "velocity": 127,
      "chip": "ym2612"
    },
    {
      "channel": 0,
      "note": 99,
      "start": 3.9517,
      "duration": 0.0093,
      "velocity": 127,
      "chip": "ym2612"
    },
    {
      "channel": 1,
      "note": 99,
      "start": 3.9529,
      "duration": 0.0083,
      "velocity": 127,
      "chip": "ym2612"
    },
    {
      "channel": 2,
      "note": 85,
      "start": 3.9541,
      "duration": 0.0268,
      "velocity": 87,
      "chip": "ym2612"
    },
    {
      "channel": 0,
      "note": 99,
      "start": 3.9665,
      "duration": 0.0138,
      "velocity": 127,
      "chip": "ym2612"
    },
    {
      "channel": 1,
      "note": 99,
      "start": 3.9677,
      "duration": 0.0129,
      "velocity": 127,
      "chip": "ym2612"
    },
    {
      "channel": 0,
      "note": 99,
      "start": 3.9873,
      "duration": 0.0122,
      "velocity": 127,
      "chip": "ym2612"
    },
    {
      "channel": 1,
      "note": 99,
      "start": 3.9885,
      "duration": 0.0113,
      "velocity": 127,
      "chip": "ym2612"
    },
    {
      "channel": 2,
      "note": 85,
      "start": 3.9898,
      "duration": 0.0274,
      "velocity": 82,
      "chip": "ym2612"
    },
    {
      "channel": 3,
      "note": 56,
      "start": 3.991,
      "duration": 0.0569,
      "velocity": 109,
      "chip": "ym2612"
    },
    {
      "channel": 0,
      "note": 99,
      "start": 4.0053,
      "duration": 0.0112,
      "velocity": 127,
      "chip": "ym2612"
    },
    {
      "channel": 1,
      "note": 99,
      "start": 4.0066,
      "duration": 0.0102,
      "velocity": 127,
      "chip": "ym2612"
    },
    {
      "channel": 0,
      "note": 99,
      "start": 4.0225,
      "duration": 0.029,
      "velocity": 127,
      "chip": "ym2612"
    },
    {
      "channel": 1,
      "note": 99,
      "start": 4.0237,
      "duration": 0.0101,
      "velocity": 127,
      "chip": "ym2612"
    },
    {
      "channel": 2,
      "note": 88,
      "start": 4.025,
      "duration": 0.0273,
      "velocity": 98,
      "chip": "ym2612"
    },
    {
      "channel": 1,
      "note": 99,
      "start": 4.0406,
      "duration": 0.0113,
      "velocity": 127,
      "chip": "ym2612"
    },
    {
      "channel": 0,
      "note": 95,
      "start": 4.0579,
      "duration": 0.024,
      "velocity": 127,
      "chip": "ym2612"
    },
    {
      "channel": 1,
      "note": 99,
      "start": 4.0591,
      "duration": 0.0231,
      "velocity": 127,
      "chip": "ym2612"
    },
    {
      "channel": 2,
      "note": 88,
      "start": 4.0604,
      "duration": 0.0221,
      "velocity": 93,
      "chip": "ym2612"
    },
    {
      "channel": 3,
      "note": 59,
      "start": 4.0616,
      "duration": 0.0537,
      "velocity": 109,
      "chip": "ym2612"
    },
    {
      "channel": 0,
      "note": 92,
      "start": 4.0888,
      "duration": 0.0309,
      "velocity": 127,
      "chip": "ym2612"
    },
    {
      "channel": 1,
      "note": 95,
      "start": 4.09,
      "duration": 0.03,
      "velocity": 127,
      "chip": "ym2612"
    },
    {
      "channel": 2,
      "note": 88,
      "start": 4.0912,
      "duration": 0.029,
      "velocity": 87,
      "chip": "ym2612"
    },
    {
      "channel": 0,
      "note": 99,
      "start": 4.124,
      "duration": 0.0291,
      "velocity": 127,
      "chip": "ym2612"
    },
    {
      "channel": 1,
      "note": 92,
      "start": 4.1253,
      "duration": 0.0282,
      "velocity": 127,
      "chip": "ym2612"
    },
    {
      "channel": 2,
      "note": 88,
      "start": 4.1266,
      "duration": 0.0273,
      "velocity": 82,
      "chip": "ym2612"
    },
    {
      "channel": 3,
      "note": 59,
      "start": 4.1278,
      "duration": 0.0265,
      "velocity": 109,
      "chip": "ym2612"
    },
    {
      "channel": 0,
      "note": 100,
      "start": 4.1593,
      "duration": 0.0568,
      "velocity": 127,
      "chip": "ym2612"
    },
    {
      "channel": 1,
      "note": 99,
      "start": 4.1605,
      "duration": 0.026,
      "velocity": 127,
      "chip": "ym2612"
    },
    {
      "channel": 2,
      "note": 86,
      "start": 4.1618,
      "duration": 0.0251,
      "velocity": 98,
      "chip": "ym2612"
    },
    {
      "channel": 3,
      "note": 62,
      "start": 4.163,
      "duration": 0.0495,
      "velocity": 109,
      "chip": "ym2612"
    },
    {
      "channel": 1,
      "note": 100,
      "start": 4.1925,
      "duration": 0.0609,
      "velocity": 127,
      "chip": "ym2612"
    },
    {
      "channel": 2,
      "note": 86,
      "start": 4.1938,
      "duration": 0.0231,
      "velocity": 93,
      "chip": "ym2612"
    },
    {
      "channel": 0,
      "note": 96,
      "start": 4.223,
      "duration": 0.0115,
      "velocity": 127,
      "chip": "ym2612"
    },
    {
      "channel": 2,
      "note": 86,
      "start": 4.2246,
      "duration": 0.0292,
      "velocity": 87,
      "chip": "ym2612"
    },
    {
      "channel": 3,
      "note": 57,
      "start": 4.2258,
      "duration": 0.0097,
      "velocity": 109,
      "chip": "ym2612"
    },
    {
      "channel": 3,
      "note": 57,
      "start": 4.2411,
      "duration": 0.013,
      "velocity": 109,
      "chip": "ym2612"
    },
    {
      "channel": 0,
      "note": 105,
      "start": 4.2592,
      "duration": 0.0562,
      "velocity": 127,
      "chip": "ym2612"
    },
    {
      "channel": 1,
      "note": 96,
      "start": 4.2604,
      "duration": 0.0112,
      "velocity": 127,
      "chip": "ym2612"
    },
    {
      "channel": 2,
      "note": 86,
      "start": 4.2617,
      "duration": 0.0238,
      "velocity": 82,
      "chip": "ym2612"
    },
    {
      "channel": 3,
      "note": 60,
      "start": 4.263,
      "duration": 0.0483,
      "velocity": 109,
      "chip": "ym2612"
    },
    {
      "channel": 1,
      "note": 105,
      "start": 4.291,
      "duration": 0.0537,
      "velocity": 127,
      "chip": "ym2612"
    },
    {
      "channel": 2,
      "note": 89,
      "start": 4.2922,
      "duration": 0.0237,
      "velocity": 98,
      "chip": "ym2612"
    },
    {
      "channel": 0,
      "note": 103,
      "start": 4.3209,
      "duration": 0.0566,
      "velocity": 127,
      "chip": "ym2612"
    },
    {
      "channel": 2,
      "note": 89,
      "start": 4.3224,
      "duration": 0.0228,
      "velocity": 93,
      "chip": "ym2612"
    },
    {
      "channel": 3,
      "note": 62,
      "start": 4.3237,
      "duration": 0.0502,
      "velocity": 109,
      "chip": "ym2612"
    },
    {
      "channel": 1,
      "note": 103,
      "start": 4.3504,
      "duration": 0.0563,
      "velocity": 127,
      "chip": "ym2612"
    },
    {
      "channel": 2,
      "note": 89,
      "start": 4.3517,
      "duration": 0.0264,
      "velocity": 87,
      "chip": "ym2612"
    },
    {
      "channel": 0,
      "note": 96,
      "start": 4.3813,
      "duration": 0.025,
      "velocity": 127,
      "chip": "ym2612"
    },
    {
      "channel": 2,
      "note": 89,
      "start": 4.3829,
      "duration": 0.0241,
      "velocity": 82,
      "chip": "ym2612"
    },
    {
      "channel": 3,
      "note": 62,
      "start": 4.3841,
      "duration": 0.0232,
      "velocity": 109,
      "chip": "ym2612"
    },
    {
      "channel": 0,
      "note": 80,
      "start": 4.4146,
      "duration": 0.0151,
      "velocity": 108,
      "chip": "ym2612"
    },
    {
      "channel": 2,
      "note": 85,
      "start": 4.4176,
      "duration": 0.0289,
      "velocity": 98,
      "chip": "ym2612"
    },
    {
      "channel": 3,
      "note": 61,
      "start": 4.4188,
      "duration": 0.0883,
      "velocity": 109,
      "chip": "ym2612"
    },
    {
      "channel": 0,
      "note": 83,
      "start": 4.4354,
      "duration": 0.0105,
      "velocity": 108,
      "chip": "ym2612"
    },
    {
      "channel": 0,
      "note": 87,
      "start": 4.4518,
      "duration": 0.0114,
      "velocity": 108,
      "chip": "ym2612"
    },
    {
      "channel": 1,
      "note": 80,
      "start": 4.4534,
      "duration": 0.0102,
      "velocity": 108,
      "chip": "ym2612"
    },
    {
      "channel": 2,
      "note": 85,
      "start": 4.4546,
      "duration": 0.025,
      "velocity": 93,
      "chip": "ym2612"
    },
    {
      "channel": 0,
      "note": 87,
      "start": 4.4687,
      "duration": 0.0102,
      "velocity": 108,
      "chip": "ym2612"
    },
    {
      "channel": 1,
      "note": 83,
      "start": 4.4699,
      "duration": 0.0093,
      "velocity": 108,
      "chip": "ym2612"
    },
    {
      "channel": 0,
      "note": 87,
      "start": 4.4846,
      "duration": 0.0092,
      "velocity": 108,
      "chip": "ym2612"
    },
    {
      "channel": 1,
      "note": 87,
      "start": 4.4858,
      "duration": 0.0084,
      "velocity": 108,
      "chip": "ym2612"
    },
    {
      "channel": 2,
      "note": 85,
      "start": 4.487,
      "duration": 0.0268,
      "velocity": 87,
      "chip": "ym2612"
    },
    {
      "channel": 0,
      "note": 87,
      "start": 4.4995,
      "duration": 0.0138,
      "velocity": 108,
      "chip": "ym2612"
    },
    {
      "channel": 1,
      "note": 87,
      "start": 4.5007,
      "duration": 0.0129,
      "velocity": 108,
      "chip": "ym2612"
    },
    {
      "channel": 0,
      "note": 87,
      "start": 4.5201,
      "duration": 0.012,
      "velocity": 108,
      "chip": "ym2612"
    },
    {
      "channel": 1,
      "note": 87,
      "start": 4.5213,
      "duration": 0.0111,
      "velocity": 108,
      "chip": "ym2612"
    },
    {
      "channel": 2,
      "note": 85,
      "start": 4.5226,
      "duration": 0.0274,
      "velocity": 82,
      "chip": "ym2612"
    },
    {
      "channel": 3,
      "note": 56,
      "start": 4.5238,
      "duration": 0.0569,
      "velocity": 109,
      "chip": "ym2612"
    },
    {
      "channel": 0,
      "note": 87,
      "start": 4.5381,
      "duration": 0.0109,
      "velocity": 108,
      "chip": "ym2612"
    },
    {
      "channel": 1,
      "note": 87,
      "start": 4.5393,
      "duration": 0.0102,
      "velocity": 108,
      "chip": "ym2612"
    },
    {
      "channel": 0,
      "note": 87,
      "start": 4.5553,
      "duration": 0.029,
      "velocity": 108,
      "chip": "ym2612"
    },
    {
      "channel": 1,
      "note": 87,
      "start": 4.5566,
      "duration": 0.0101,
      "velocity": 108,
      "chip": "ym2612"
    },
    {
      "channel": 2,
      "note": 88,
      "start": 4.5578,
      "duration": 0.0271,
      "velocity": 98,
      "chip": "ym2612"
    },
    {
      "channel": 1,
      "note": 87,
      "start": 4.5733,
      "duration": 0.0113,
      "velocity": 108,
      "chip": "ym2612"
    },
    {
      "channel": 0,
      "note": 83,
      "start": 4.5907,
      "duration": 0.0241,
      "velocity": 108,
      "chip": "ym2612"
    },
    {
      "channel": 1,
      "note": 87,
      "start": 4.5919,
      "duration": 0.0232,
      "velocity": 108,
      "chip": "ym2612"
    },
    {
      "channel": 2,
      "note": 88,
      "start": 4.5932,
      "duration": 0.0223,
      "velocity": 93,
      "chip": "ym2612"
    },
    {
      "channel": 3,
      "note": 59,
      "start": 4.5944,
      "duration": 0.0514,
      "velocity": 109,
      "chip": "ym2612"
    },
    {
      "channel": 0,
      "note": 80,
      "start": 4.6217,
      "duration": 0.0284,
      "velocity": 108,
      "chip": "ym2612"
    },
    {
      "channel": 1,
      "note": 83,
      "start": 4.6229,
      "duration": 0.0275,
      "velocity": 108,
      "chip": "ym2612"
    },
    {
      "channel": 2,
      "note": 88,
      "start": 4.6241,
      "duration": 0.0267,
      "velocity": 87,
      "chip": "ym2612"
    },
    {
      "channel": 0,
      "note": 87,
      "start": 4.657,
      "duration": 0.0271,
      "velocity": 108,
      "chip": "ym2612"
    },
    {
      "channel": 1,
      "note": 80,
      "start": 4.6583,
      "duration": 0.0262,
      "velocity": 108,
      "chip": "ym2612"
    },
    {
      "channel": 2,
      "note": 88,
      "start": 4.6595,
      "duration": 0.0253,
      "velocity": 82,
      "chip": "ym2612"
    },
    {
      "channel": 3,
      "note": 59,
      "start": 4.6607,
      "duration": 0.0245,
      "velocity": 109,
      "chip": "ym2612"
    },
    {
      "channel": 0,
      "note": 86,
      "start": 4.69,
      "duration": 0.0523,
      "velocity": 108,
      "chip": "ym2612"
    },
    {
      "channel": 1,
      "note": 87,
      "start": 4.6912,
      "duration": 0.0262,
      "velocity": 108,
      "chip": "ym2612"
    },
    {
      "channel": 2,
      "note": 84,
      "start": 4.6924,
      "duration": 0.0253,
      "velocity": 98,
      "chip": "ym2612"
    },
    {
      "channel": 3,
      "note": 60,
      "start": 4.6937,
      "duration": 0.0831,
      "velocity": 109,
      "chip": "ym2612"
    },
    {
      "channel": 1,
      "note": 86,
      "start": 4.7231,
      "duration": 0.053,
      "velocity": 108,
      "chip": "ym2612"
    },
    {
      "channel": 2,
      "note": 84,
      "start": 4.7244,
      "duration": 0.023,
      "velocity": 93,
      "chip": "ym2612"
    },
    {
      "channel": 0,
      "note": 82,
      "start": 4.7536,
      "duration": 0.0107,
      "velocity": 108,
      "chip": "ym2612"
    },
    {
      "channel": 2,
      "note": 84,
      "start": 4.7552,
      "duration": 0.0281,
      "velocity": 87,
      "chip": "ym2612"
    },
    {
      "channel": 0,
      "note": 82,
      "start": 4.7699,
      "duration": 0.0129,
      "velocity": 108,
      "chip": "ym2612"
    },
    {
      "channel": 0,
      "note": 91,
      "start": 4.7891,
      "duration": 0.0561,
      "velocity": 108,
      "chip": "ym2612"
    },
    {
      "channel": 1,
      "note": 82,
      "start": 4.7903,
      "duration": 0.0114,
      "velocity": 108,
      "chip": "ym2612"
    },
    {
      "channel": 2,
      "note": 84,
      "start": 4.7916,
      "duration": 0.0283,
      "velocity": 82,
      "chip": "ym2612"
    },
    {
      "channel": 3,
      "note": 55,
      "start": 4.7928,
      "duration": 0.0817,
      "velocity": 109,
      "chip": "ym2612"
    },
    {
      "channel": 1,
      "note": 82,
      "start": 4.8074,
      "duration": 0.0121,
      "velocity": 108,
      "chip": "ym2612"
    },
    {
      "channel": 1,
      "note": 91,
      "start": 4.8247,
      "duration": 0.0491,
      "velocity": 108,
      "chip": "ym2612"
    },
    {
      "channel": 2,
      "note": 87,
      "start": 4.8259,
      "duration": 0.0247,
      "velocity": 98,
      "chip": "ym2612"
    },
    {
      "channel": 0,
      "note": 89,
      "start": 4.8556,
      "duration": 0.0776,
      "velocity": 108,
      "chip": "ym2612"
    },
    {
      "channel": 2,
      "note": 87,
      "start": 4.8572,
      "duration": 0.0219,
      "velocity": 93,
      "chip": "ym2612"
    },
    {
      "channel": 1,
      "note": 89,
      "start": 4.8845,
      "duration": 0.0848,
      "velocity": 108,
      "chip": "ym2612"
    },
    {
      "channel": 2,
      "note": 87,
      "start": 4.8858,
      "duration": 0.0247,
      "velocity": 87,
      "chip": "ym2612"
    },
    {
      "channel": 3,
      "note": 58,
      "start": 4.887,
      "duration": 0.0473,
      "velocity": 109,
      "chip": "ym2612"
    },
    {
      "channel": 2,
      "note": 87,
      "start": 4.917,
      "duration": 0.022,
      "velocity": 82,
      "chip": "ym2612"
    },
    {
      "channel": 0,
      "note": 80,
      "start": 4.9441,
      "duration": 0.0112,
      "velocity": 108,
      "chip": "ym2612"
    },
    {
      "channel": 2,
      "note": 85,
      "start": 4.9457,
      "duration": 0.0265,
      "velocity": 98,
      "chip": "ym2612"
    },
    {
      "channel": 3,
      "note": 61,
      "start": 4.9469,
      "duration": 0.0861,
      "velocity": 109,
      "chip": "ym2612"
    },
    {
      "channel": 0,
      "note": 83,
      "start": 4.9609,
      "duration": 0.0107,
      "velocity": 108,
      "chip": "ym2612"
    },
    {
      "channel": 0,
      "note": 87,
      "start": 4.9776,
      "duration": 0.0115,
      "velocity": 108,
      "chip": "ym2612"
    },
    {
      "channel": 1,
      "note": 80,
      "start": 4.9792,
      "duration": 0.0104,
      "velocity": 108,
      "chip": "ym2612"
    },
    {
      "channel": 2,
      "note": 85,
      "start": 4.9804,
      "duration": 0.0252,
      "velocity": 93,
      "chip": "ym2612"
    },
    {
      "channel": 0,
      "note": 87,
      "start": 4.9948,
      "duration": 0.0102,
      "velocity": 108,
      "chip": "ym2612"
    },
    {
      "channel": 1,
      "note": 83,
      "start": 4.996,
      "duration": 0.0093,
      "velocity": 108,
      "chip": "ym2612"
    },
    {
      "channel": 0,
      "note": 87,
      "start": 5.0105,
      "duration": 0.0093,
      "velocity": 108,
      "chip": "ym2612"
    },
    {
      "channel": 1,
      "note": 87,
      "start": 5.0117,
      "duration": 0.0084,
      "velocity": 108,
      "chip": "ym2612"
    },
    {
      "channel": 2,
      "note": 85,
      "start": 5.013,
      "duration": 0.0269,
      "velocity": 87,
      "chip": "ym2612"
    },
    {
      "channel": 0,
      "note": 87,
      "start": 5.0254,
      "duration": 0.0137,
      "velocity": 108,
      "chip": "ym2612"
    },
    {
      "channel": 1,
      "note": 87,
      "start": 5.0266,
      "duration": 0.0129,
      "velocity": 108,
      "chip": "ym2612"
    },
    {
      "channel": 0,
      "note": 87,
      "start": 5.0459,
      "duration": 0.012,
      "velocity": 108,
      "chip": "ym2612"
    },
    {
      "channel": 1,
      "note": 87,
      "start": 5.0472,
      "duration": 0.0111,
      "velocity": 108,
      "chip": "ym2612"
    },
    {
      "channel": 2,
      "note": 85,
      "start": 5.0484,
      "duration": 0.0291,
      "velocity": 82,
      "chip": "ym2612"
    },
    {
      "channel": 3,
      "note": 56,
      "start": 5.0496,
      "duration": 0.0571,
      "velocity": 109,
      "chip": "ym2612"
    },
    {
      "channel": 0,
      "note": 87,
      "start": 5.064,
      "duration": 0.0129,
      "velocity": 108,
      "chip": "ym2612"
    },
    {
      "channel": 1,
      "note": 87,
      "start": 5.0652,
      "duration": 0.0121,
      "velocity": 108,
      "chip": "ym2612"
    },
    {
      "channel": 0,
      "note": 87,
      "start": 5.0812,
      "duration": 0.0292,
      "velocity": 108,
      "chip": "ym2612"
    },
    {
      "channel": 1,
      "note": 87,
      "start": 5.0824,
      "duration": 0.0102,
      "velocity": 108,
      "chip": "ym2612"
    },
    {
      "channel": 2,
      "note": 88,
      "start": 5.0836,
      "duration": 0.0274,
      "velocity": 98,
      "chip": "ym2612"
    },
    {
      "channel": 1,
      "note": 87,
      "start": 5.0993,
      "duration": 0.0114,
      "velocity": 108,
      "chip": "ym2612"
    },
    {
      "channel": 0,
      "note": 83,
      "start": 5.1165,
      "duration": 0.0238,
      "velocity": 108,
      "chip": "ym2612"
    },
    {
      "channel": 1,
      "note": 87,
      "start": 5.1177,
      "duration": 0.0229,
      "velocity": 108,
      "chip": "ym2612"
    },
    {
      "channel": 2,
      "note": 88,
      "start": 5.119,
      "duration": 0.0221,
      "velocity": 93,
      "chip": "ym2612"
    },
    {
      "channel": 3,
      "note": 56,
      "start": 5.1202,
      "duration": 0.0212,
      "velocity": 109,
      "chip": "ym2612"
    },
    {
      "channel": 0,
      "note": 80,
      "start": 5.1475,
      "duration": 0.0319,
      "velocity": 108,
      "chip": "ym2612"
    },
    {
      "channel": 1,
      "note": 83,
      "start": 5.1487,
      "duration": 0.031,
      "velocity": 108,
      "chip": "ym2612"
    },
    {
      "channel": 2,
      "note": 88,
      "start": 5.15,
      "duration": 0.0301,
      "velocity": 87,
      "chip": "ym2612"
    },
    {
      "channel": 3,
      "note": 59,
      "start": 5.1512,
      "duration": 0.0292,
      "velocity": 109,
      "chip": "ym2612"
    },
    {
      "channel": 0,
      "note": 87,
      "start": 5.1854,
      "duration": 0.0271,
      "velocity": 108,
      "chip": "ym2612"
    },
    {
      "channel": 1,
      "note": 80,
      "start": 5.1866,
      "duration": 0.0262,
      "velocity": 108,
      "chip": "ym2612"
    },
    {
      "channel": 2,
      "note": 88,
      "start": 5.1878,
      "duration": 0.0253,
      "velocity": 82,
      "chip": "ym2612"
    },
    {
      "channel": 3,
      "note": 61,
      "start": 5.189,
      "duration": 0.0244,
      "velocity": 109,
      "chip": "ym2612"
    },
    {
      "channel": 0,
      "note": 88,
      "start": 5.2182,
      "duration": 0.0524,
      "velocity": 108,
      "chip": "ym2612"
    },
    {
      "channel": 1,
      "note": 87,
      "start": 5.2194,
      "duration": 0.026,
      "velocity": 108,
      "chip": "ym2612"
    },
    {
      "channel": 2,
      "note": 86,
      "start": 5.2207,
      "duration": 0.0252,
      "velocity": 98,
      "chip": "ym2612"
    },
    {
      "channel": 3,
      "note": 62,
      "start": 5.2219,
      "duration": 0.0496,
      "velocity": 109,
      "chip": "ym2612"
    },
    {
      "channel": 1,
      "note": 88,
      "start": 5.2513,
      "duration": 0.055,
      "velocity": 108,
      "chip": "ym2612"
    },
    {
      "channel": 2,
      "note": 86,
      "start": 5.2526,
      "duration": 0.0232,
      "velocity": 93,
      "chip": "ym2612"
    },
    {
      "channel": 0,
      "note": 84,
      "start": 5.2821,
      "duration": 0.0116,
      "velocity": 108,
      "chip": "ym2612"
    },
    {
      "channel": 2,
      "note": 86,
      "start": 5.2837,
      "duration": 0.03,
      "velocity": 87,
      "chip": "ym2612"
    },
    {
      "channel": 3,
      "note": 57,
      "start": 5.2849,
      "duration": 0.0097,
      "velocity": 109,
      "chip": "ym2612"
    },
    {
      "channel": 0,
      "note": 84,
      "start": 5.2992,
      "duration": 0.0137,
      "velocity": 108,
      "chip": "ym2612"
    },
    {
      "channel": 3,
      "note": 57,
      "start": 5.3011,
      "duration": 0.013,
      "velocity": 109,
      "chip": "ym2612"
    },
    {
      "channel": 0,
      "note": 93,
      "start": 5.3197,
      "duration": 0.0536,
      "velocity": 108,
      "chip": "ym2612"
    },
    {
      "channel": 1,
      "note": 84,
      "start": 5.321,
      "duration": 0.028,
      "velocity": 108,
      "chip": "ym2612"
    },
    {
      "channel": 2,
      "note": 83,
      "start": 5.3223,
      "duration": 0.0272,
      "velocity": 98,
      "chip": "ym2612"
    },
    {
      "channel": 3,
      "note": 55,
      "start": 5.3239,
      "duration": 0.0503,
      "velocity": 109,
      "chip": "ym2612"
    },
    {
      "channel": 1,
      "note": 93,
      "start": 5.3527,
      "duration": 0.0546,
      "velocity": 108,
      "chip": "ym2612"
    },
    {
      "channel": 2,
      "note": 83,
      "start": 5.3539,
      "duration": 0.0275,
      "velocity": 93,
      "chip": "ym2612"
    },
    {
      "channel": 0,
      "note": 91,
      "start": 5.3869,
      "duration": 0.0568,
      "velocity": 108,
      "chip": "ym2612"
    },
    {
      "channel": 2,
      "note": 83,
      "start": 5.3885,
      "duration": 0.0267,
      "velocity": 87,
      "chip": "ym2612"
    },
    {
      "channel": 3,
      "note": 50,
      "start": 5.3897,
      "duration": 0.0549,
      "velocity": 109,
      "chip": "ym2612"
    },
    {
      "channel": 1,
      "note": 91,
      "start": 5.421,
      "duration": 0.052,
      "velocity": 108,
      "chip": "ym2612"
    },
    {
      "channel": 2,
      "note": 83,
      "start": 5.4223,
      "duration": 0.0267,
      "velocity": 82,
      "chip": "ym2612"
    },
    {
      "channel": 0,
      "note": 93,
      "start": 5.4544,
      "duration": 0.0228,
      "velocity": 108,
      "chip": "ym2612"
    },
    {
      "channel": 2,
      "note": 86,
      "start": 5.4559,
      "duration": 0.0219,
      "velocity": 98,
      "chip": "ym2612"
    },
    {
      "channel": 3,
      "note": 55,
      "start": 5.4576,
      "duration": 0.0206,
      "velocity": 109,
      "chip": "ym2612"
    },
    {
      "channel": 0,
      "note": 94,
      "start": 5.4842,
      "duration": 0.1369,
      "velocity": 108,
      "chip": "ym2612"
    },
    {
      "channel": 2,
      "note": 78,
      "start": 5.4877,
      "duration": 0.0273,
      "velocity": 108,
      "chip": "ym2612"
    },
    {
      "channel": 3,
      "note": 64,
      "start": 5.4893,
      "duration": 0.0262,
      "velocity": 109,
      "chip": "ym2612"
    },
    {
      "channel": 1,
      "note": 94,
      "start": 5.5204,
      "duration": 0.1347,
      "velocity": 108,
      "chip": "ym2612"
    },
    {
      "channel": 2,
      "note": 66,
      "start": 5.5216,
      "duration": 0.0098,
      "velocity": 108,
      "chip": "ym2612"
    },
    {
      "channel": 3,
      "note": 64,
      "start": 5.5234,
      "duration": 0.0227,
      "velocity": 109,
      "chip": "ym2612"
    },
    {
      "channel": 2,
      "note": 70,
      "start": 5.537,
      "duration": 0.0088,
      "velocity": 108,
      "chip": "ym2612"
    },
    {
      "channel": 2,
      "note": 73,
      "start": 5.5515,
      "duration": 0.0102,
      "velocity": 108,
      "chip": "ym2612"
    },
    {
      "channel": 3,
      "note": 64,
      "start": 5.5533,
      "duration": 0.0244,
      "velocity": 109,
      "chip": "ym2612"
    },
    {
      "channel": 2,
      "note": 73,
      "start": 5.5651,
      "duration": 0.0123,
      "velocity": 108,
      "chip": "ym2612"
    },
    {
      "channel": 2,
      "note": 70,
      "start": 5.5829,
      "duration": 0.0099,
      "velocity": 108,
      "chip": "ym2612"
    },
    {
      "channel": 3,
      "note": 64,
      "start": 5.5846,
      "duration": 0.0228,
      "velocity": 109,
      "chip": "ym2612"
    },
    {
      "channel": 2,
      "note": 73,
      "start": 5.5982,
      "duration": 0.0088,
      "velocity": 108,
      "chip": "ym2612"
    },
    {
      "channel": 2,
      "note": 78,
      "start": 5.6112,
      "duration": 0.1163,
      "velocity": 108,
      "chip": "ym2612"
    },
    {
      "channel": 3,
      "note": 64,
      "start": 5.6132,
      "duration": 0.0256,
      "velocity": 109,
      "chip": "ym2612"
    },
    {
      "channel": 0,
      "note": 94,
      "start": 5.6435,
      "duration": 0.0057,
      "velocity": 108,
      "chip": "ym2612"
    },
    {
      "channel": 3,
      "note": 64,
      "start": 5.6459,
      "duration": 0.0236,
      "velocity": 109,
      "chip": "ym2612"
    },
    {
      "channel": 0,
      "note": 95,
      "start": 5.6548,
      "duration": 0.0056,
      "velocity": 108,
      "chip": "ym2612"
    },
    {
      "channel": 0,
      "note": 94,
      "start": 5.6642,
      "duration": 0.0043,
      "velocity": 108,
      "chip": "ym2612"
    },
    {
      "channel": 0,
      "note": 92,
      "start": 5.674,
      "duration": 0.0287,
      "velocity": 108,
      "chip": "ym2612"
    },
    {
      "channel": 1,
      "note": 94,
      "start": 5.6757,
      "duration": 0.0056,
      "velocity": 108,
      "chip": "ym2612"
    },
    {
      "channel": 3,
      "note": 64,
      "start": 5.6774,
      "duration": 0.0263,
      "velocity": 109,
      "chip": "ym2612"
    },
    {
      "channel": 1,
      "note": 95,
      "start": 5.6871,
      "duration": 0.0049,
      "velocity": 108,
      "chip": "ym2612"
    },
    {
      "channel": 1,
      "note": 94,
      "start": 5.698,
      "duration": 0.005,
      "velocity": 108,
      "chip": "ym2612"
    },
    {
      "channel": 0,
      "note": 94,
      "start": 5.7124,
      "duration": 0.0246,
      "velocity": 108,
      "chip": "ym2612"
    },
    {
      "channel": 1,
      "note": 92,
      "start": 5.714,
      "duration": 0.0234,
      "velocity": 108,
      "chip": "ym2612"
    },
    {
      "channel": 3,
      "note": 64,
      "start": 5.7156,
      "duration": 0.0224,
      "velocity": 109,
      "chip": "ym2612"
    },
    {
      "channel": 0,
      "note": 95,
      "start": 5.7468,
      "duration": 0.0868,
      "velocity": 108,
      "chip": "ym2612"
    },
    {
      "channel": 1,
      "note": 94,
      "start": 5.7485,
      "duration": 0.0256,
      "velocity": 108,
      "chip": "ym2612"
    },
    {
      "channel": 2,
      "note": 78,
      "start": 5.7497,
      "duration": 0.0248,
      "velocity": 108,
      "chip": "ym2612"
    },
    {
      "channel": 3,
      "note": 63,
      "start": 5.7512,
      "duration": 0.0235,
      "velocity": 109,
      "chip": "ym2612"
    },
    {
      "channel": 1,
      "note": 95,
      "start": 5.7811,
      "duration": 0.0845,
      "velocity": 108,
      "chip": "ym2612"
    },
    {
      "channel": 2,
      "note": 71,
      "start": 5.7827,
      "duration": 0.0098,
      "velocity": 108,
      "chip": "ym2612"
    },
    {
      "channel": 3,
      "note": 63,
      "start": 5.7841,
      "duration": 0.0264,
      "velocity": 109,
      "chip": "ym2612"
    },
    {
      "channel": 2,
      "note": 75,
      "start": 5.7997,
      "duration": 0.0105,
      "velocity": 108,
      "chip": "ym2612"
    },
    {
      "channel": 2,
      "note": 78,
      "start": 5.8167,
      "duration": 0.0097,
      "velocity": 108,
      "chip": "ym2612"
    },
    {
      "channel": 3,
      "note": 63,
      "start": 5.8181,
      "duration": 0.0208,
      "velocity": 109,
      "chip": "ym2612"
    },
    {
      "channel": 2,
      "note": 78,
      "start": 5.8302,
      "duration": 0.0084,
      "velocity": 108,
      "chip": "ym2612"
    },
    {
      "channel": 0,
      "note": 90,
      "start": 5.8433,
      "duration": 0.0111,
      "velocity": 108,
      "chip": "ym2612"
    },
    {
      "channel": 2,
      "note": 75,
      "start": 5.8452,
      "duration": 0.0098,
      "velocity": 108,
      "chip": "ym2612"
    },
    {
      "channel": 3,
      "note": 63,
      "start": 5.8466,
      "duration": 0.0261,
      "velocity": 109,
      "chip": "ym2612"
    },
    {
      "channel": 0,
      "note": 90,
      "start": 5.8602,
      "duration": 0.0111,
      "velocity": 108,
      "chip": "ym2612"
    },
    {
      "channel": 2,
      "note": 78,
      "start": 5.8617,
      "duration": 0.0102,
      "velocity": 108,
      "chip": "ym2612"
    },
    {
      "channel": 0,
      "note": 90,
      "start": 5.8753,
      "duration": 0.0513,
      "velocity": 108,
      "chip": "ym2612"
    },
    {
      "channel": 1,
      "note": 90,
      "start": 5.8765,
      "duration": 0.011,
      "velocity": 108,
      "chip": "ym2612"
    },
    {
      "channel": 2,
      "note": 83,
      "start": 5.8777,
      "duration": 0.05,
      "velocity": 108,
      "chip": "ym2612"
    },
    {
      "channel": 3,
      "note": 63,
      "start": 5.8792,
      "duration": 0.0265,
      "velocity": 109,
      "chip": "ym2612"
    },
    {
      "channel": 1,
      "note": 90,
      "start": 5.8934,
      "duration": 0.0113,
      "velocity": 108,
      "chip": "ym2612"
    },
    {
      "channel": 1,
      "note": 90,
      "start": 5.9108,
      "duration": 0.0544,
      "velocity": 108,
      "chip": "ym2612"
    },
    {
      "channel": 3,
      "note": 63,
      "start": 5.9124,
      "duration": 0.0222,
      "velocity": 109,
      "chip": "ym2612"
    },
    {
      "channel": 0,
      "note": 95,
      "start": 5.941,
      "duration": 0.0556,
      "velocity": 108,
      "chip": "ym2612"
    },
    {
      "channel": 2,
      "note": 78,
      "start": 5.9426,
      "duration": 0.0551,
      "velocity": 108,
      "chip": "ym2612"
    },
    {
      "channel": 3,
      "note": 63,
      "start": 5.9439,
      "duration": 0.0285,
      "velocity": 109,
      "chip": "ym2612"
    },
    {
      "channel": 1,
      "note": 95,
      "start": 5.9777,
      "duration": 0.0605,
      "velocity": 108,
      "chip": "ym2612"
    },
    {
      "channel": 3,
      "note": 63,
      "start": 5.9793,
      "duration": 0.028,
      "velocity": 109,
      "chip": "ym2612"
    },
    {
      "channel": 0,
      "note": 92,
      "start": 6.0122,
      "duration": 0.1364,
      "velocity": 108,
      "chip": "ym2612"
    },
    {
      "channel": 2,
      "note": 76,
      "start": 6.0138,
      "duration": 0.0271,
      "velocity": 108,
      "chip": "ym2612"
    },
    {
      "channel": 3,
      "note": 62,
      "start": 6.0153,
      "duration": 0.026,
      "velocity": 109,
      "chip": "ym2612"
    },
    {
      "channel": 1,
      "note": 92,
      "start": 6.0475,
      "duration": 0.1355,
      "velocity": 108,
      "chip": "ym2612"
    },
    {
      "channel": 2,
      "note": 64,
      "start": 6.0488,
      "duration": 0.0099,
      "velocity": 108,
      "chip": "ym2612"
    },
    {
      "channel": 3,
      "note": 62,
      "start": 6.0501,
      "duration": 0.0228,
      "velocity": 109,
      "chip": "ym2612"
    },
    {
      "channel": 2,
      "note": 68,
      "start": 6.0639,
      "duration": 0.0086,
      "velocity": 108,
      "chip": "ym2612"
    },
    {
      "channel": 2,
      "note": 71,
      "start": 6.078,
      "duration": 0.0101,
      "velocity": 108,
      "chip": "ym2612"
    },
    {
      "channel": 3,
      "note": 62,
      "start": 6.0794,
      "duration": 0.0251,
      "velocity": 109,
      "chip": "ym2612"
    },
    {
      "channel": 2,
      "note": 71,
      "start": 6.0916,
      "duration": 0.0125,
      "velocity": 108,
      "chip": "ym2612"
    },
    {
      "channel": 2,
      "note": 68,
      "start": 6.1106,
      "duration": 0.0103,
      "velocity": 108,
      "chip": "ym2612"
    },
    {
      "channel": 3,
      "note": 62,
      "start": 6.112,
      "duration": 0.0237,
      "velocity": 109,
      "chip": "ym2612"
    },
    {
      "channel": 2,
      "note": 71,
      "start": 6.1262,
      "duration": 0.0091,
      "velocity": 108,
      "chip": "ym2612"
    },
    {
      "channel": 2,
      "note": 76,
      "start": 6.1409,
      "duration": 0.1202,
      "velocity": 108,
      "chip": "ym2612"
    },
    {
      "channel": 3,
      "note": 62,
      "start": 6.1424,
      "duration": 0.0241,
      "velocity": 109,
      "chip": "ym2612"
    },
    {
      "channel": 0,
      "note": 92,
      "start": 6.1713,
      "duration": 0.006,
      "velocity": 108,
      "chip": "ym2612"
    },
    {
      "channel": 3,
      "note": 62,
      "start": 6.1733,
      "duration": 0.025,
      "velocity": 109,
      "chip": "ym2612"
    },
    {
      "channel": 0,
      "note": 93,
      "start": 6.1828,
      "duration": 0.0045,
      "velocity": 108,
      "chip": "ym2612"
    },
    {
      "channel": 0,
      "note": 92,
      "start": 6.1907,
      "duration": 0.0066,
      "velocity": 108,
      "chip": "ym2612"
    },
    {
      "channel": 0,
      "note": 90,
      "start": 6.2029,
      "duration": 0.0365,
      "velocity": 108,
      "chip": "ym2612"
    },
    {
      "channel": 1,
      "note": 92,
      "start": 6.2041,
      "duration": 0.0115,
      "velocity": 108,
      "chip": "ym2612"
    },
    {
      "channel": 3,
      "note": 62,
      "start": 6.2058,
      "duration": 0.0346,
      "velocity": 109,
      "chip": "ym2612"
    },
    {
      "channel": 1,
      "note": 93,
      "start": 6.2214,
      "duration": 0.0049,
      "velocity": 108,
      "chip": "ym2612"
    },
    {
      "channel": 1,
      "note": 92,
      "start": 6.2323,
      "duration": 0.0074,
      "velocity": 108,
      "chip": "ym2612"
    },
    {
      "channel": 0,
      "note": 92,
      "start": 6.2456,
      "duration": 0.0281,
      "velocity": 108,
      "chip": "ym2612"
    },
    {
      "channel": 1,
      "note": 90,
      "start": 6.2468,
      "duration": 0.0272,
      "velocity": 108,
      "chip": "ym2612"
    },
    {
      "channel": 3,
      "note": 62,
      "start": 6.2485,
      "duration": 0.0261,
      "velocity": 109,
      "chip": "ym2612"
    },
    {
      "channel": 0,
      "note": 93,
      "start": 6.2798,
      "duration": 0.0872,
      "velocity": 108,
      "chip": "ym2612"
    },
    {
      "channel": 1,
      "note": 92,
      "start": 6.281,
      "duration": 0.0283,
      "velocity": 108,
      "chip": "ym2612"
    },
    {
      "channel": 2,
      "note": 76,
      "start": 6.2822,
      "duration": 0.0273,
      "velocity": 108,
      "chip": "ym2612"
    },
    {
      "channel": 3,
      "note": 61,
      "start": 6.2838,
      "duration": 0.0262,
      "velocity": 109,
      "chip": "ym2612"
    },
    {
      "channel": 1,
      "note": 93,
      "start": 6.3136,
      "duration": 0.0861,
      "velocity": 108,
      "chip": "ym2612"
    },
    {
      "channel": 2,
      "note": 64,
      "start": 6.3149,
      "duration": 0.0102,
      "velocity": 108,
      "chip": "ym2612"
    },
    {
      "channel": 3,
      "note": 61,
      "start": 6.3162,
      "duration": 0.0268,
      "velocity": 109,
      "chip": "ym2612"
    },
    {
      "channel": 2,
      "note": 69,
      "start": 6.3317,
      "duration": 0.011,
      "velocity": 108,
      "chip": "ym2612"
    },
    {
      "channel": 2,
      "note": 73,
      "start": 6.3491,
      "duration": 0.0102,
      "velocity": 108,
      "chip": "ym2612"
    },
    {
      "channel": 3,
      "note": 61,
      "start": 6.3505,
      "duration": 0.0217,
      "velocity": 109,
      "chip": "ym2612"
    },
    {
      "channel": 2,
      "note": 73,
      "start": 6.3628,
      "duration": 0.0091,
      "velocity": 108,
      "chip": "ym2612"
    },
    {
      "channel": 0,
      "note": 95,
      "start": 6.3768,
      "duration": 0.0114,
      "velocity": 108,
      "chip": "ym2612"
    },
    {
      "channel": 2,
      "note": 69,
      "start": 6.3785,
      "duration": 0.0104,
      "velocity": 108,
      "chip": "ym2612"
    },
    {
      "channel": 3,
      "note": 61,
      "start": 6.3798,
      "duration": 0.0268,
      "velocity": 109,
      "chip": "ym2612"
    },
    {
      "channel": 0,
      "note": 95,
      "start": 6.3938,
      "duration": 0.0119,
      "velocity": 108,
      "chip": "ym2612"
    },
    {
      "channel": 2,
      "note": 73,
      "start": 6.3954,
      "duration": 0.011,
      "velocity": 108,
      "chip": "ym2612"
    },
    {
      "channel": 0,
      "note": 97,
      "start": 6.4112,
      "duration": 0.0602,
      "velocity": 108,
      "chip": "ym2612"
    },
    {
      "channel": 1,
      "note": 95,
      "start": 6.4125,
      "duration": 0.0117,
      "velocity": 108,
      "chip": "ym2612"
    },
    {
      "channel": 2,
      "note": 76,
      "start": 6.4137,
      "duration": 0.0583,
      "velocity": 108,
      "chip": "ym2612"
    },
    {
      "channel": 3,
      "note": 61,
      "start": 6.4152,
      "duration": 0.0271,
      "velocity": 109,
      "chip": "ym2612"
    },
    {
      "channel": 1,
      "note": 95,
      "start": 6.4295,
      "duration": 0.0122,
      "velocity": 108,
      "chip": "ym2612"
    },
    {
      "channel": 1,
      "note": 97,
      "start": 6.4488,
      "duration": 0.057,
      "velocity": 108,
      "chip": "ym2612"
    },
    {
      "channel": 3,
      "note": 61,
      "start": 6.4505,
      "duration": 0.0243,
      "velocity": 109,
      "chip": "ym2612"
    },
    {
      "channel": 0,
      "note": 100,
      "start": 6.4814,
      "duration": 0.0641,
      "velocity": 108,
      "chip": "ym2612"
    },
    {
      "channel": 2,
      "note": 81,
      "start": 6.4829,
      "duration": 0.0633,
      "velocity": 108,
      "chip": "ym2612"
    },
    {
      "channel": 3,
      "note": 61,
      "start": 6.4842,
      "duration": 0.0332,
      "velocity": 109,
      "chip": "ym2612"
    },
    {
      "channel": 1,
      "note": 100,
      "start": 6.5229,
      "duration": 0.0324,
      "velocity": 108,
      "chip": "ym2612"
    },
    {
      "channel": 3,
      "note": 61,
      "start": 6.5245,
      "duration": 0.0314,
      "velocity": 109,
      "chip": "ym2612"
    },
    {
      "channel": 0,
      "note": 98,
      "start": 6.5612,
      "duration": 0.031,
      "velocity": 108,
      "chip": "ym2612"
    },
    {
      "channel": 2,
      "note": 98,
      "start": 6.5632,
      "duration": 0.0297,
      "velocity": 108,
      "chip": "ym2612"
    },
    {
      "channel": 3,
      "note": 59,
      "start": 6.5647,
      "duration": 0.0284,
      "velocity": 109,
      "chip": "ym2612"
    },
    {
      "channel": 0,
      "note": 97,
      "start": 6.5971,
      "duration": 0.0078,
      "velocity": 108,
      "chip": "ym2612"
    },
    {
      "channel": 1,
      "note": 98,
      "start": 6.5983,
      "duration": 0.0321,
      "velocity": 108,
      "chip": "ym2612"
    },
    {
      "channel": 2,
      "note": 97,
      "start": 6.5995,
      "duration": 0.006,
      "velocity": 108,
      "chip": "ym2612"
    },
    {
      "channel": 3,
      "note": 59,
      "start": 6.6009,
      "duration": 0.0301,
      "velocity": 109,
      "chip": "ym2612"
    },
    {
      "channel": 0,
      "note": 98,
      "start": 6.6105,
      "duration": 0.0053,
      "velocity": 108,
      "chip": "ym2612"
    },
    {
      "channel": 2,
      "note": 98,
      "start": 6.612,
      "duration": 0.0044,
      "velocity": 108,
      "chip": "ym2612"
    },
    {
      "channel": 0,
      "note": 97,
      "start": 6.6247,
      "duration": 0.0053,
      "velocity": 108,
      "chip": "ym2612"
    },
    {
      "channel": 2,
      "note": 97,
      "start": 6.6262,
      "duration": 0.0045,
      "velocity": 108,
      "chip": "ym2612"
    },
    {
      "channel": 0,
      "note": 95,
      "start": 6.6371,
      "duration": 0.0262,
      "velocity": 108,
      "chip": "ym2612"
    },
    {
      "channel": 1,
      "note": 97,
      "start": 6.6385,
      "duration": 0.0068,
      "velocity": 108,
      "chip": "ym2612"
    },
    {
      "channel": 2,
      "note": 95,
      "start": 6.6397,
      "duration": 0.0244,
      "velocity": 108,
      "chip": "ym2612"
    },
    {
      "channel": 3,
      "note": 59,
      "start": 6.641,
      "duration": 0.0233,
      "velocity": 109,
      "chip": "ym2612"
    },
    {
      "channel": 1,
      "note": 98,
      "start": 6.6506,
      "duration": 0.0025,
      "velocity": 108,
      "chip": "ym2612"
    },
    {
      "channel": 1,
      "note": 97,
      "start": 6.6589,
      "duration": 0.0048,
      "velocity": 108,
      "chip": "ym2612"
    },
    {
      "channel": 0,
      "note": 90,
      "start": 6.6689,
      "duration": 0.0571,
      "velocity": 108,
      "chip": "ym2612"
    },
    {
      "channel": 1,
      "note": 95,
      "start": 6.6701,
      "duration": 0.0312,
      "velocity": 108,
      "chip": "ym2612"
    },
    {
      "channel": 2,
      "note": 85,
      "start": 6.6714,
      "duration": 0.0302,
      "velocity": 108,
      "chip": "ym2612"
    },
    {
      "channel": 3,
      "note": 59,
      "start": 6.6727,
      "duration": 0.0292,
      "velocity": 109,
      "chip": "ym2612"
    },
    {
      "channel": 1,
      "note": 90,
      "start": 6.7069,
      "duration": 0.0568,
      "velocity": 108,
      "chip": "ym2612"
    },
    {
      "channel": 2,
      "note": 86,
      "start": 6.7081,
      "duration": 0.0251,
      "velocity": 108,
      "chip": "ym2612"
    },
    {
      "channel": 3,
      "note": 59,
      "start": 6.7096,
      "duration": 0.0239,
      "velocity": 109,
      "chip": "ym2612"
    },
    {
      "channel": 0,
      "note": 93,
      "start": 6.7395,
      "duration": 0.058,
      "velocity": 108,
      "chip": "ym2612"
    },
    {
      "channel": 2,
      "note": 85,
      "start": 6.7411,
      "duration": 0.006,
      "velocity": 108,
      "chip": "ym2612"
    },
    {
      "channel": 3,
      "note": 59,
      "start": 6.7425,
      "duration": 0.0251,
      "velocity": 109,
      "chip": "ym2612"
    },
    {
      "channel": 2,
      "note": 86,
      "start": 6.7525,
      "duration": 0.0044,
      "velocity": 108,
      "chip": "ym2612"
    },
    {
      "channel": 2,
      "note": 85,
      "start": 6.765,
      "duration": 0.0023,
      "velocity": 108,
      "chip": "ym2612"
    },
    {
      "channel": 1,
      "note": 93,
      "start": 6.7725,
      "duration": 0.0541,
      "velocity": 108,
      "chip": "ym2612"
    },
    {
      "channel": 2,
      "note": 78,
      "start": 6.7737,
      "duration": 0.0295,
      "velocity": 108,
      "chip": "ym2612"
    },
    {
      "channel": 3,
      "note": 59,
      "start": 6.7751,
      "duration": 0.0285,
      "velocity": 109,
      "chip": "ym2612"
    },
    {
      "channel": 0,
      "note": 95,
      "start": 6.8082,
      "duration": 0.0248,
      "velocity": 108,
      "chip": "ym2612"
    },
    {
      "channel": 2,
      "note": 74,
      "start": 6.8098,
      "duration": 0.0239,
      "velocity": 108,
      "chip": "ym2612"
    },
    {
      "channel": 3,
      "note": 59,
      "start": 6.8111,
      "duration": 0.0228,
      "velocity": 109,
      "chip": "ym2612"
    },
    {
      "channel": 0,
      "note": 100,
      "start": 6.8398,
      "duration": 0.0124,
      "velocity": 108,
      "chip": "ym2612"
    },
    {
      "channel": 1,
      "note": 95,
      "start": 6.8411,
      "duration": 0.007,
      "velocity": 108,
      "chip": "ym2612"
    },
    {
      "channel": 2,
      "note": 59,
      "start": 6.8423,
      "duration": 0.0171,
      "velocity": 108,
      "chip": "ym2612"
    },
    {
      "channel": 3,
      "note": 64,
      "start": 6.8439,
      "duration": 0.0293,
      "velocity": 109,
      "chip": "ym2612"
    },
    {
      "channel": 1,
      "note": 64,
      "start": 6.8538,
      "duration": 0.0188,
      "velocity": 108,
      "chip": "ym2612"
    },
    {
      "channel": 0,
      "note": 100,
      "start": 6.8589,
      "duration": 0.0133,
      "velocity": 108,
      "chip": "ym2612"
    },
    {
      "channel": 2,
      "note": 69,
      "start": 6.8685,
      "duration": 0.0164,
      "velocity": 108,
      "chip": "ym2612"
    },
    {
      "channel": 0,
      "note": 100,
      "start": 6.8774,
      "duration": 0.0068,
      "velocity": 108,
      "chip": "ym2612"
    },
    {
      "channel": 1,
      "note": 71,
      "start": 6.8786,
      "duration": 0.0172,
      "velocity": 108,
      "chip": "ym2612"
    },
    {
      "channel": 3,
      "note": 64,
      "start": 6.8803,
      "duration": 0.0274,
      "velocity": 109,
      "chip": "ym2612"
    },
    {
      "channel": 0,
      "note": 95,
      "start": 6.8898,
      "duration": 0.0056,
      "velocity": 108,
      "chip": "ym2612"
    },
    {
      "channel": 2,
      "note": 76,
      "start": 6.8913,
      "duration": 0.016,
      "velocity": 108,
      "chip": "ym2612"
    },
    {
      "channel": 0,
      "note": 93,
      "start": 6.9011,
      "duration": 0.0056,
      "velocity": 108,
      "chip": "ym2612"
    },
    {
      "channel": 1,
      "note": 81,
      "start": 6.9023,
      "duration": 0.0172,
      "velocity": 108,
      "chip": "ym2612"
    },
    {
      "channel": 0,
      "note": 88,
      "start": 6.9122,
      "duration": 0.0116,
      "velocity": 108,
      "chip": "ym2612"
    },
    {
      "channel": 2,
      "note": 83,
      "start": 6.9139,
      "duration": 0.0169,
      "velocity": 108,
      "chip": "ym2612"
    },
    {
      "channel": 3,
      "note": 52,
      "start": 6.9153,
      "duration": 0.0273,
      "velocity": 109,
      "chip": "ym2612"
    },
    {
      "channel": 1,
      "note": 81,
      "start": 6.9251,
      "duration": 0.017,
      "velocity": 108,
      "chip": "ym2612"
    },
    {
      "channel": 0,
      "note": 88,
      "start": 6.9302,
      "duration": 0.0113,
      "velocity": 108,
      "chip": "ym2612"
    },
    {
      "channel": 2,
      "note": 76,
      "start": 6.9355,
      "duration": 0.0202,
      "velocity": 108,
      "chip": "ym2612"
    },
    {
      "channel": 0,
      "note": 88,
      "start": 6.9482,
      "duration": 0.0068,
      "velocity": 108,
      "chip": "ym2612"
    },
    {
      "channel": 1,
      "note": 71,
      "start": 6.9494,
      "duration": 0.0172,
      "velocity": 108,
      "chip": "ym2612"
    },
    {
      "channel": 3,
      "note": 52,
      "start": 6.951,
      "duration": 0.0274,
      "velocity": 109,
      "chip": "ym2612"
    },
    {
      "channel": 0,
      "note": 93,
      "start": 6.9606,
      "duration": 0.0056,
      "velocity": 108,
      "chip": "ym2612"
    },
    {
      "channel": 2,
      "note": 69,
      "start": 6.9622,
      "duration": 0.016,
      "velocity": 108,
      "chip": "ym2612"
    },
    {
      "channel": 0,
      "note": 95,
      "start": 6.9718,
      "duration": 0.0056,
      "velocity": 108,
      "chip": "ym2612"
    },
    {
      "channel": 1,
      "note": 64,
      "start": 6.973,
      "duration": 0.0156,
      "velocity": 108,
      "chip": "ym2612"
    },
    {
      "channel": 0,
      "note": 100,
      "start": 6.9831,
      "duration": 0.0097,
      "velocity": 108,
      "chip": "ym2612"
    },
    {
      "channel": 2,
      "note": 59,
      "start": 6.9847,
      "duration": 0.0151,
      "velocity": 108,
      "chip": "ym2612"
    },
    {
      "channel": 3,
      "note": 64,
      "start": 6.9863,
      "duration": 0.0275,
      "velocity": 109,
      "chip": "ym2612"
    },
    {
      "channel": 1,
      "note": 64,
      "start": 6.9941,
      "duration": 0.019,
      "velocity": 108,
      "chip": "ym2612"
    },
    {
      "channel": 0,
      "note": 100,
      "start": 6.9992,
      "duration": 0.0135,
      "velocity": 108,
      "chip": "ym2612"
    },
    {
      "channel": 2,
      "note": 69,
      "start": 7.0066,
      "duration": 0.0201,
      "velocity": 108,
      "chip": "ym2612"
    },
    {
      "channel": 0,
      "note": 100,
      "start": 7.0193,
      "duration": 0.0068,
      "velocity": 108,
      "chip": "ym2612"
    },
    {
      "channel": 1,
      "note": 71,
      "start": 7.0205,
      "duration": 0.0173,
      "velocity": 108,
      "chip": "ym2612"
    },
    {
      "channel": 3,
      "note": 64,
      "start": 7.0222,
      "duration": 0.0254,
      "velocity": 109,
      "chip": "ym2612"
    },
    {
      "channel": 0,
      "note": 95,
      "start": 7.0316,
      "duration": 0.0057,
      "velocity": 108,
      "chip": "ym2612"
    },
    {
      "channel": 2,
      "note": 76,
      "start": 7.0331,
      "duration": 0.0142,
      "velocity": 108,
      "chip": "ym2612"
    },
    {
      "channel": 0,
      "note": 93,
      "start": 7.0429,
      "duration": 0.0036,
      "velocity": 108,
      "chip": "ym2612"
    },
    {
      "channel": 1,
      "note": 81,
      "start": 7.0441,
      "duration": 0.0154,
      "velocity": 108,
      "chip": "ym2612"
    },
    {
      "channel": 0,
      "note": 88,
      "start": 7.0522,
      "duration": 0.0114,
      "velocity": 108,
      "chip": "ym2612"
    },
    {
      "channel": 2,
      "note": 83,
      "start": 7.0537,
      "duration": 0.0169,
      "velocity": 108,
      "chip": "ym2612"
    },
    {
      "channel": 3,
      "note": 52,
      "start": 7.0552,
      "duration": 0.0294,
      "velocity": 109,
      "chip": "ym2612"
    },
    {
      "channel": 1,
      "note": 81,
      "start": 7.0649,
      "duration": 0.0189,
      "velocity": 108,
      "chip": "ym2612"
    },
    {
      "channel": 0,
      "note": 88,
      "start": 7.07,
      "duration": 0.0135,
      "velocity": 108,
      "chip": "ym2612"
    },
    {
      "channel": 2,
      "note": 76,
      "start": 7.0782,
      "duration": 0.019,
      "velocity": 108,
      "chip": "ym2612"
    },
    {
      "channel": 0,
      "note": 88,
      "start": 7.0898,
      "duration": 0.0068,
      "velocity": 108,
      "chip": "ym2612"
    },
    {
      "channel": 1,
      "note": 71,
      "start": 7.091,
      "duration": 0.0152,
      "velocity": 108,
      "chip": "ym2612"
    },
    {
      "channel": 3,
      "note": 52,
      "start": 7.0927,
      "duration": 0.0255,
      "velocity": 109,
      "chip": "ym2612"
    },
    {
      "channel": 0,
      "note": 93,
      "start": 7.1021,
      "duration": 0.0037,
      "velocity": 108,
      "chip": "ym2612"
    },
    {
      "channel": 2,
      "note": 69,
      "start": 7.1037,
      "duration": 0.0141,
      "velocity": 108,
      "chip": "ym2612"
    },
    {
      "channel": 0,
      "note": 95,
      "start": 7.1114,
      "duration": 0.0058,
      "velocity": 108,
      "chip": "ym2612"
    },
    {
      "channel": 1,
      "note": 64,
      "start": 7.1126,
      "duration": 0.0181,
      "velocity": 108,
      "chip": "ym2612"
    },
    {
      "channel": 0,
      "note": 100,
      "start": 7.1229,
      "duration": 0.0194,
      "velocity": 108,
      "chip": "ym2612"
    },
    {
      "channel": 2,
      "note": 93,
      "start": 7.1245,
      "duration": 0.0185,
      "velocity": 108,
      "chip": "ym2612"
    },
    {
      "channel": 1,
      "note": 88,
      "start": 7.1367,
      "duration": 0.0206,
      "velocity": 108,
      "chip": "ym2612"
    },
    {
      "channel": 3,
      "note": 95,
      "start": 7.1383,
      "duration": 0.0197,
      "velocity": 108,
      "chip": "ym2612"
    },
    {
      "channel": 0,
      "note": 93,
      "start": 7.1486,
      "duration": 0.0185,
      "velocity": 108,
      "chip": "ym2612"
    },
    {
      "channel": 2,
      "note": 83,
      "start": 7.1501,
      "duration": 0.0177,
      "velocity": 108,
      "chip": "ym2612"
    },
    {
      "channel": 1,
      "note": 81,
      "start": 7.1612,
      "duration": 0.0183,
      "velocity": 108,
      "chip": "ym2612"
    },
    {
      "channel": 3,
      "note": 88,
      "start": 7.1629,
      "duration": 0.0174,
      "velocity": 108,
      "chip": "ym2612"
    },
    {
      "channel": 0,
      "note": 83,
      "start": 7.1734,
      "duration": 0.0229,
      "velocity": 108,
      "chip": "ym2612"
    },
    {
      "channel": 2,
      "note": 76,
      "start": 7.1749,
      "duration": 0.022,
      "velocity": 108,
      "chip": "ym2612"
    },
    {
      "channel": 1,
      "note": 71,
      "start": 7.1882,
      "duration": 0.0302,
      "velocity": 108,
      "chip": "ym2612"
    },
    {
      "channel": 3,
      "note": 81,
      "start": 7.1897,
      "duration": 0.0292,
      "velocity": 108,
      "chip": "ym2612"
    },
    {
      "channel": 0,
      "note": 76,
      "start": 7.2071,
      "duration": 0.0231,
      "velocity": 108,
      "chip": "ym2612"
    },
    {
      "channel": 2,
      "note": 69,
      "start": 7.2087,
      "duration": 0.022,
      "velocity": 108,
      "chip": "ym2612"
    },
    {
      "channel": 1,
      "note": 64,
      "start": 7.2243,
      "duration": 0.0198,
      "velocity": 108,
      "chip": "ym2612"
    },
    {
      "channel": 3,
      "note": 71,
      "start": 7.2259,
      "duration": 0.0188,
      "velocity": 108,
      "chip": "ym2612"
    },
    {
      "channel": 0,
      "note": 69,
      "start": 7.2343,
      "duration": 0.0239,
      "velocity": 108,
      "chip": "ym2612"
    },
    {
      "channel": 2,
      "note": 59,
      "start": 7.2357,
      "duration": 0.0232,
      "velocity": 108,
      "chip": "ym2612"
    },
    {
      "channel": 1,
      "note": 57,
      "start": 7.2525,
      "duration": 0.018,
      "velocity": 108,
      "chip": "ym2612"
    },
    {
      "channel": 3,
      "note": 64,
      "start": 7.2539,
      "duration": 0.0172,
      "velocity": 108,
      "chip": "ym2612"
    },
    {
      "channel": 0,
      "note": 59,
      "start": 7.2643,
      "duration": 0.0201,
      "velocity": 108,
      "chip": "ym2612"
    },
    {
      "channel": 2,
      "note": 52,
      "start": 7.2657,
      "duration": 0.0193,
      "velocity": 108,
      "chip": "ym2612"
    },
    {
      "channel": 1,
      "note": 47,
      "start": 7.2787,
      "duration": 0.0229,
      "velocity": 108,
      "chip": "ym2612"
    },
    {
      "channel": 3,
      "note": 57,
      "start": 7.2802,
      "duration": 0.0222,
      "velocity": 108,
      "chip": "ym2612"
    },
    {
      "channel": 0,
      "note": 52,
      "start": 7.2954,
      "duration": 0.0163,
      "velocity": 108,
      "chip": "ym2612"
    },
    {
      "channel": 2,
      "note": 45,
      "start": 7.2969,
      "duration": 0.0154,
      "velocity": 108,
      "chip": "ym2612"
    },
    {
      "channel": 1,
      "note": 47,
      "start": 7.3058,
      "duration": 0.0184,
      "velocity": 108,
      "chip": "ym2612"
    },
    {
      "channel": 3,
      "note": 57,
      "start": 7.3075,
      "duration": 0.0173,
      "velocity": 108,
      "chip": "ym2612"
    },
    {
      "channel": 0,
      "note": 59,
      "start": 7.318,
      "duration": 0.018,
      "velocity": 108,
      "chip": "ym2612"
    },
    {
      "channel": 2,
      "note": 52,
      "start": 7.3197,
      "duration": 0.017,
      "velocity": 108,
      "chip": "ym2612"
    },
    {
      "channel": 1,
      "note": 57,
      "start": 7.3304,
      "duration": 0.023,
      "velocity": 108,
      "chip": "ym2612"
    },
    {
      "channel": 3,
      "note": 64,
      "start": 7.332,
      "duration": 0.0221,
      "velocity": 108,
      "chip": "ym2612"
    },
    {
      "channel": 0,
      "note": 69,
      "start": 7.3446,
      "duration": 0.0185,
      "velocity": 108,
      "chip": "ym2612"
    },
    {
      "channel": 2,
      "note": 59,
      "start": 7.3462,
      "duration": 0.0177,
      "velocity": 108,
      "chip": "ym2612"
    },
    {
      "channel": 1,
      "note": 64,
      "start": 7.3595,
      "duration": 0.016,
      "velocity": 108,
      "chip": "ym2612"
    },
    {
      "channel": 3,
      "note": 71,
      "start": 7.361,
      "duration": 0.0151,
      "velocity": 108,
      "chip": "ym2612"
    },
    {
      "channel": 0,
      "note": 76,
      "start": 7.3694,
      "duration": 0.0212,
      "velocity": 108,
      "chip": "ym2612"
    },
    {
      "channel": 2,
      "note": 69,
      "start": 7.3709,
      "duration": 0.0205,
      "velocity": 108,
      "chip": "ym2612"
    },
    {
      "channel": 1,
      "note": 71,
      "start": 7.3842,
      "duration": 0.0234,
      "velocity": 108,
      "chip": "ym2612"
    },
    {
      "channel": 3,
      "note": 81,
      "start": 7.3856,
      "duration": 0.0227,
      "velocity": 108,
      "chip": "ym2612"
    },
    {
      "channel": 0,
      "note": 83,
      "start": 7.4014,
      "duration": 0.0229,
      "velocity": 108,
      "chip": "ym2612"
    },
    {
      "channel": 2,
      "note": 76,
      "start": 7.403,
      "duration": 0.022,
      "velocity": 108,
      "chip": "ym2612"
    },
    {
      "channel": 1,
      "note": 81,
      "start": 7.4137,
      "duration": 0.0249,
      "velocity": 108,
      "chip": "ym2612"
    },
    {
      "channel": 3,
      "note": 88,
      "start": 7.4153,
      "duration": 0.024,
      "velocity": 108,
      "chip": "ym2612"
    },
    {
      "channel": 0,
      "note": 93,
      "start": 7.4344,
      "duration": 0.0163,
      "velocity": 108,
      "chip": "ym2612"
    },
    {
      "channel": 2,
      "note": 83,
      "start": 7.436,
      "duration": 0.0153,
      "velocity": 108,
      "chip": "ym2612"
    },
    {
      "channel": 1,
      "note": 88,
      "start": 7.4449,
      "duration": 0.0062,
      "velocity": 108,
      "chip": "ym2612"
    },
    {
      "channel": 3,
      "note": 95,
      "start": 7.4465,
      "duration": 0.0053,
      "velocity": 108,
      "chip": "ym2612"
    }
  ]
}