{
  "track_name": "08 - Mission 3 Boss",
  "duration_sec": 50.837,
  "sample_rate": 44100,
  "note_count": 1073,
  "unique_pitches": 29,
  "pitch_range": 41,
  "avg_note_duration": 0.2654,
  "reconstruction_stats": {
    "notes_reconstructed": 1073,
    "keyon_events": 1073,
    "keyoff_events": 1068,
    "orphan_keyons": 5,
    "unique_pitches": 29,
    "pitch_range": 41,
    "avg_duration_sec": 0.2654
  },
  "metadata": {
    "source": "D\\Double Dragon II - The Revenge\\08 - Mission 3 Boss.vgm"
  },
  "notes": [
    {
      "channel": 0,
      "note": 40,
      "start": 0.0,
      "duration": 0.2325,
      "velocity": 104,
      "chip": "ym2612"
    },
    {
      "channel": 1,
      "note": 57,
      "start": 0.0021,
      "duration": 0.4913,
      "velocity": 127,
      "chip": "ym2612"
    },
    {
      "channel": 2,
      "note": 71,
      "start": 0.0049,
      "duration": 0.2156,
      "velocity": 95,
      "chip": "ym2612"
    },
    {
      "channel": 3,
      "note": 64,
      "start": 0.0084,
      "duration": 0.2396,
      "velocity": 121,
      "chip": "ym2612"
    },
    {
      "channel": 4,
      "note": 59,
      "start": 0.0106,
      "duration": 0.2379,
      "velocity": 121,
      "chip": "ym2612"
    },
    {
      "channel": 5,
      "note": 64,
      "start": 0.0638,
      "duration": 0.2452,
      "velocity": 121,
      "chip": "ym2612"
    },
    {
      "channel": 0,
      "note": 40,
      "start": 0.2451,
      "duration": 0.2341,
      "velocity": 104,
      "chip": "ym2612"
    },
    {
      "channel": 2,
      "note": 71,
      "start": 0.2467,
      "duration": 0.2207,
      "velocity": 95,
      "chip": "ym2612"
    },
    {
      "channel": 3,
      "note": 64,
      "start": 0.2481,
      "duration": 0.248,
      "velocity": 121,
      "chip": "ym2612"
    },
    {
      "channel": 4,
      "note": 59,
      "start": 0.2487,
      "duration": 0.248,
      "velocity": 121,
      "chip": "ym2612"
    },
    {
      "channel": 5,
      "note": 64,
      "start": 0.3092,
      "duration": 0.2464,
      "velocity": 121,
      "chip": "ym2612"
    },
    {
      "channel": 0,
      "note": 40,
      "start": 0.4918,
      "duration": 0.2342,
      "velocity": 104,
      "chip": "ym2612"
    },
    {
      "channel": 1,
      "note": 68,
      "start": 0.4937,
      "duration": 0.2465,
      "velocity": 123,
      "chip": "ym2612"
    },
    {
      "channel": 2,
      "note": 69,
      "start": 0.4948,
      "duration": 0.2195,
      "velocity": 95,
      "chip": "ym2612"
    },
    {
      "channel": 3,
      "note": 62,
      "start": 0.4963,
      "duration": 0.2469,
      "velocity": 121,
      "chip": "ym2612"
    },
    {
      "channel": 4,
      "note": 57,
      "start": 0.4968,
      "duration": 0.2469,
      "velocity": 121,
      "chip": "ym2612"
    },
    {
      "channel": 5,
      "note": 62,
      "start": 0.5558,
      "duration": 0.2466,
      "velocity": 121,
      "chip": "ym2612"
    },
    {
      "channel": 0,
      "note": 40,
      "start": 0.7386,
      "duration": 0.2342,
      "velocity": 104,
      "chip": "ym2612"
    },
    {
      "channel": 1,
      "note": 57,
      "start": 0.7407,
      "duration": 0.2463,
      "velocity": 127,
      "chip": "ym2612"
    },
    {
      "channel": 2,
      "note": 71,
      "start": 0.7419,
      "duration": 0.2192,
      "velocity": 95,
      "chip": "ym2612"
    },
    {
      "channel": 3,
      "note": 64,
      "start": 0.7434,
      "duration": 0.2462,
      "velocity": 121,
      "chip": "ym2612"
    },
    {
      "channel": 4,
      "note": 59,
      "start": 0.7439,
      "duration": 0.2463,
      "velocity": 121,
      "chip": "ym2612"
    },
    {
      "channel": 5,
      "note": 64,
      "start": 0.8026,
      "duration": 0.2466,
      "velocity": 121,
      "chip": "ym2612"
    },
    {
      "channel": 0,
      "note": 40,
      "start": 0.9854,
      "duration": 0.2342,
      "velocity": 104,
      "chip": "ym2612"
    },
    {
      "channel": 1,
      "note": 64,
      "start": 0.9872,
      "duration": 0.2466,
      "velocity": 123,
      "chip": "ym2612"
    },
    {
      "channel": 2,
      "note": 74,
      "start": 0.9883,
      "duration": 0.2198,
      "velocity": 95,
      "chip": "ym2612"
    },
    {
      "channel": 3,
      "note": 67,
      "start": 0.9898,
      "duration": 0.2466,
      "velocity": 121,
      "chip": "ym2612"
    },
    {
      "channel": 4,
      "note": 62,
      "start": 0.9907,
      "duration": 0.2463,
      "velocity": 121,
      "chip": "ym2612"
    },
    {
      "channel": 5,
      "note": 67,
      "start": 1.0493,
      "duration": 0.2466,
      "velocity": 121,
      "chip": "ym2612"
    },
    {
      "channel": 0,
      "note": 40,
      "start": 1.2322,
      "duration": 0.2341,
      "velocity": 104,
      "chip": "ym2612"
    },
    {
      "channel": 1,
      "note": 57,
      "start": 1.2339,
      "duration": 0.2466,
      "velocity": 127,
      "chip": "ym2612"
    },
    {
      "channel": 2,
      "note": 71,
      "start": 1.2351,
      "duration": 0.2196,
      "velocity": 95,
      "chip": "ym2612"
    },
    {
      "channel": 3,
      "note": 64,
      "start": 1.2366,
      "duration": 0.2465,
      "velocity": 121,
      "chip": "ym2612"
    },
    {
      "channel": 4,
      "note": 59,
      "start": 1.2372,
      "duration": 0.2465,
      "velocity": 121,
      "chip": "ym2612"
    },
    {
      "channel": 5,
      "note": 64,
      "start": 1.2961,
      "duration": 0.2469,
      "velocity": 121,
      "chip": "ym2612"
    },
    {
      "channel": 0,
      "note": 40,
      "start": 1.479,
      "duration": 0.2341,
      "velocity": 104,
      "chip": "ym2612"
    },
    {
      "channel": 1,
      "note": 68,
      "start": 1.4807,
      "duration": 0.2466,
      "velocity": 123,
      "chip": "ym2612"
    },
    {
      "channel": 2,
      "note": 69,
      "start": 1.4818,
      "duration": 0.2196,
      "velocity": 95,
      "chip": "ym2612"
    },
    {
      "channel": 3,
      "note": 62,
      "start": 1.4834,
      "duration": 0.2468,
      "velocity": 121,
      "chip": "ym2612"
    },
    {
      "channel": 4,
      "note": 57,
      "start": 1.4839,
      "duration": 0.2469,
      "velocity": 121,
      "chip": "ym2612"
    },
    {
      "channel": 5,
      "note": 62,
      "start": 1.5432,
      "duration": 0.2463,
      "velocity": 121,
      "chip": "ym2612"
    },
    {
      "channel": 0,
      "note": 40,
      "start": 1.7258,
      "duration": 0.2341,
      "velocity": 104,
      "chip": "ym2612"
    },
    {
      "channel": 1,
      "note": 57,
      "start": 1.7275,
      "duration": 0.247,
      "velocity": 127,
      "chip": "ym2612"
    },
    {
      "channel": 2,
      "note": 76,
      "start": 1.7288,
      "duration": 0.713,
      "velocity": 95,
      "chip": "ym2612"
    },
    {
      "channel": 3,
      "note": 69,
      "start": 1.7304,
      "duration": 0.4923,
      "velocity": 121,
      "chip": "ym2612"
    },
    {
      "channel": 4,
      "note": 64,
      "start": 1.731,
      "duration": 0.4923,
      "velocity": 121,
      "chip": "ym2612"
    },
    {
      "channel": 5,
      "note": 69,
      "start": 1.7897,
      "duration": 0.4933,
      "velocity": 121,
      "chip": "ym2612"
    },
    {
      "channel": 0,
      "note": 40,
      "start": 1.9725,
      "duration": 0.2342,
      "velocity": 104,
      "chip": "ym2612"
    },
    {
      "channel": 1,
      "note": 64,
      "start": 1.9747,
      "duration": 0.2462,
      "velocity": 123,
      "chip": "ym2612"
    },
    {
      "channel": 0,
      "note": 40,
      "start": 2.2194,
      "duration": 0.2342,
      "velocity": 104,
      "chip": "ym2612"
    },
    {
      "channel": 1,
      "note": 57,
      "start": 2.2211,
      "duration": 0.2466,
      "velocity": 127,
      "chip": "ym2612"
    },
    {
      "channel": 3,
      "note": 69,
      "start": 2.2229,
      "duration": 0.2475,
      "velocity": 121,
      "chip": "ym2612"
    },
    {
      "channel": 4,
      "note": 64,
      "start": 2.2234,
      "duration": 0.2475,
      "velocity": 121,
      "chip": "ym2612"
    },
    {
      "channel": 5,
      "note": 69,
      "start": 2.2832,
      "duration": 0.2466,
      "velocity": 121,
      "chip": "ym2612"
    },
    {
      "channel": 0,
      "note": 40,
      "start": 2.4661,
      "duration": 0.2342,
      "velocity": 104,
      "chip": "ym2612"
    },
    {
      "channel": 1,
      "note": 68,
      "start": 2.4678,
      "duration": 0.2466,
      "velocity": 123,
      "chip": "ym2612"
    },
    {
      "channel": 2,
      "note": 74,
      "start": 2.469,
      "duration": 0.2196,
      "velocity": 95,
      "chip": "ym2612"
    },
    {
      "channel": 3,
      "note": 67,
      "start": 2.4706,
      "duration": 0.2461,
      "velocity": 121,
      "chip": "ym2612"
    },
    {
      "channel": 4,
      "note": 62,
      "start": 2.4711,
      "duration": 0.2459,
      "velocity": 121,
      "chip": "ym2612"
    },
    {
      "channel": 5,
      "note": 67,
      "start": 2.53,
      "duration": 0.2466,
      "velocity": 121,
      "chip": "ym2612"
    },
    {
      "channel": 0,
      "note": 40,
      "start": 2.7129,
      "duration": 0.2342,
      "velocity": 104,
      "chip": "ym2612"
    },
    {
      "channel": 1,
      "note": 57,
      "start": 2.7147,
      "duration": 0.2466,
      "velocity": 127,
      "chip": "ym2612"
    },
    {
      "channel": 0,
      "note": 40,
      "start": 2.9597,
      "duration": 0.2341,
      "velocity": 104,
      "chip": "ym2612"
    },
    {
      "channel": 1,
      "note": 64,
      "start": 2.9614,
      "duration": 0.247,
      "velocity": 123,
      "chip": "ym2612"
    },
    {
      "channel": 2,
      "note": 74,
      "start": 2.9626,
      "duration": 0.2196,
      "velocity": 95,
      "chip": "ym2612"
    },
    {
      "channel": 3,
      "note": 67,
      "start": 2.9641,
      "duration": 0.247,
      "velocity": 121,
      "chip": "ym2612"
    },
    {
      "channel": 4,
      "note": 62,
      "start": 2.9646,
      "duration": 0.247,
      "velocity": 121,
      "chip": "ym2612"
    },
    {
      "channel": 5,
      "note": 67,
      "start": 3.0239,
      "duration": 0.2463,
      "velocity": 121,
      "chip": "ym2612"
    },
    {
      "channel": 0,
      "note": 40,
      "start": 3.2065,
      "duration": 0.2344,
      "velocity": 104,
      "chip": "ym2612"
    },
    {
      "channel": 1,
      "note": 57,
      "start": 3.2086,
      "duration": 0.2462,
      "velocity": 127,
      "chip": "ym2612"
    },
    {
      "channel": 2,
      "note": 71,
      "start": 3.2098,
      "duration": 0.2191,
      "velocity": 95,
      "chip": "ym2612"
    },
    {
      "channel": 3,
      "note": 64,
      "start": 3.2112,
      "duration": 0.2466,
      "velocity": 121,
      "chip": "ym2612"
    },
    {
      "channel": 4,
      "note": 59,
      "start": 3.2118,
      "duration": 0.2466,
      "velocity": 121,
      "chip": "ym2612"
    },
    {
      "channel": 5,
      "note": 64,
      "start": 3.2703,
      "duration": 0.2466,
      "velocity": 121,
      "chip": "ym2612"
    },
    {
      "channel": 0,
      "note": 40,
      "start": 3.4533,
      "duration": 0.2342,
      "velocity": 104,
      "chip": "ym2612"
    },
    {
      "channel": 1,
      "note": 68,
      "start": 3.455,
      "duration": 0.2466,
      "velocity": 123,
      "chip": "ym2612"
    },
    {
      "channel": 2,
      "note": 69,
      "start": 3.4561,
      "duration": 0.2196,
      "velocity": 95,
      "chip": "ym2612"
    },
    {
      "channel": 3,
      "note": 62,
      "start": 3.458,
      "duration": 0.2462,
      "velocity": 121,
      "chip": "ym2612"
    },
    {
      "channel": 4,
      "note": 57,
      "start": 3.4585,
      "duration": 0.2462,
      "velocity": 121,
      "chip": "ym2612"
    },
    {
      "channel": 5,
      "note": 62,
      "start": 3.5171,
      "duration": 0.2466,
      "velocity": 121,
      "chip": "ym2612"
    },
    {
      "channel": 0,
      "note": 40,
      "start": 3.7,
      "duration": 0.2342,
      "velocity": 104,
      "chip": "ym2612"
    },
    {
      "channel": 1,
      "note": 57,
      "start": 3.7017,
      "duration": 0.2466,
      "velocity": 127,
      "chip": "ym2612"
    },
    {
      "channel": 2,
      "note": 71,
      "start": 3.7029,
      "duration": 0.2196,
      "velocity": 95,
      "chip": "ym2612"
    },
    {
      "channel": 3,
      "note": 64,
      "start": 3.7044,
      "duration": 0.2466,
      "velocity": 121,
      "chip": "ym2612"
    },
    {
      "channel": 4,
      "note": 59,
      "start": 3.7049,
      "duration": 0.2466,
      "velocity": 121,
      "chip": "ym2612"
    },
    {
      "channel": 5,
      "note": 64,
      "start": 3.7639,
      "duration": 0.2466,
      "velocity": 121,
      "chip": "ym2612"
    },
    {
      "channel": 0,
      "note": 40,
      "start": 3.9468,
      "duration": 0.2342,
      "velocity": 104,
      "chip": "ym2612"
    },
    {
      "channel": 1,
      "note": 64,
      "start": 3.9486,
      "duration": 0.2466,
      "velocity": 123,
      "chip": "ym2612"
    },
    {
      "channel": 2,
      "note": 71,
      "start": 3.9497,
      "duration": 0.2196,
      "velocity": 95,
      "chip": "ym2612"
    },
    {
      "channel": 3,
      "note": 64,
      "start": 3.9512,
      "duration": 0.2466,
      "velocity": 121,
      "chip": "ym2612"
    },
    {
      "channel": 4,
      "note": 59,
      "start": 3.9517,
      "duration": 0.2466,
      "velocity": 121,
      "chip": "ym2612"
    },
    {
      "channel": 5,
      "note": 64,
      "start": 4.0107,
      "duration": 0.2469,
      "velocity": 121,
      "chip": "ym2612"
    },
    {
      "channel": 0,
      "note": 40,
      "start": 4.1936,
      "duration": 0.2341,
      "velocity": 104,
      "chip": "ym2612"
    },
    {
      "channel": 1,
      "note": 57,
      "start": 4.1953,
      "duration": 0.2469,
      "velocity": 127,
      "chip": "ym2612"
    },
    {
      "channel": 2,
      "note": 71,
      "start": 4.1965,
      "duration": 0.2196,
      "velocity": 95,
      "chip": "ym2612"
    },
    {
      "channel": 3,
      "note": 64,
      "start": 4.198,
      "duration": 0.2469,
      "velocity": 121,
      "chip": "ym2612"
    },
    {
      "channel": 4,
      "note": 59,
      "start": 4.1986,
      "duration": 0.2469,
      "velocity": 121,
      "chip": "ym2612"
    },
    {
      "channel": 5,
      "note": 64,
      "start": 4.2578,
      "duration": 0.2463,
      "velocity": 121,
      "chip": "ym2612"
    },
    {
      "channel": 0,
      "note": 40,
      "start": 4.4407,
      "duration": 0.2338,
      "velocity": 104,
      "chip": "ym2612"
    },
    {
      "channel": 1,
      "note": 68,
      "start": 4.4425,
      "duration": 0.2462,
      "velocity": 123,
      "chip": "ym2612"
    },
    {
      "channel": 2,
      "note": 69,
      "start": 4.4436,
      "duration": 0.2192,
      "velocity": 95,
      "chip": "ym2612"
    },
    {
      "channel": 3,
      "note": 62,
      "start": 4.4451,
      "duration": 0.2466,
      "velocity": 121,
      "chip": "ym2612"
    },
    {
      "channel": 4,
      "note": 57,
      "start": 4.4456,
      "duration": 0.2466,
      "velocity": 121,
      "chip": "ym2612"
    },
    {
      "channel": 5,
      "note": 62,
      "start": 4.5043,
      "duration": 0.2466,
      "velocity": 121,
      "chip": "ym2612"
    },
    {
      "channel": 0,
      "note": 40,
      "start": 4.6872,
      "duration": 0.2341,
      "velocity": 104,
      "chip": "ym2612"
    },
    {
      "channel": 1,
      "note": 57,
      "start": 4.6889,
      "duration": 0.2466,
      "velocity": 127,
      "chip": "ym2612"
    },
    {
      "channel": 2,
      "note": 71,
      "start": 4.69,
      "duration": 0.2196,
      "velocity": 95,
      "chip": "ym2612"
    },
    {
      "channel": 3,
      "note": 64,
      "start": 4.6919,
      "duration": 0.2463,
      "velocity": 121,
      "chip": "ym2612"
    },
    {
      "channel": 4,
      "note": 59,
      "start": 4.6925,
      "duration": 0.2462,
      "velocity": 121,
      "chip": "ym2612"
    },
    {
      "channel": 5,
      "note": 64,
      "start": 4.751,
      "duration": 0.2466,
      "velocity": 121,
      "chip": "ym2612"
    },
    {
      "channel": 0,
      "note": 40,
      "start": 4.9339,
      "duration": 0.2341,
      "velocity": 104,
      "chip": "ym2612"
    },
    {
      "channel": 1,
      "note": 64,
      "start": 4.9357,
      "duration": 0.2466,
      "velocity": 123,
      "chip": "ym2612"
    },
    {
      "channel": 2,
      "note": 74,
      "start": 4.9368,
      "duration": 0.2196,
      "velocity": 95,
      "chip": "ym2612"
    },
    {
      "channel": 3,
      "note": 67,
      "start": 4.9383,
      "duration": 0.2466,
      "velocity": 121,
      "chip": "ym2612"
    },
    {
      "channel": 4,
      "note": 62,
      "start": 4.9389,
      "duration": 0.2466,
      "velocity": 121,
      "chip": "ym2612"
    },
    {
      "channel": 5,
      "note": 67,
      "start": 4.9979,
      "duration": 0.2466,
      "velocity": 121,
      "chip": "ym2612"
    },
    {
      "channel": 0,
      "note": 40,
      "start": 5.1807,
      "duration": 0.2342,
      "velocity": 104,
      "chip": "ym2612"
    },
    {
      "channel": 1,
      "note": 57,
      "start": 5.1825,
      "duration": 0.2466,
      "velocity": 127,
      "chip": "ym2612"
    },
    {
      "channel": 2,
      "note": 71,
      "start": 5.1836,
      "duration": 0.2196,
      "velocity": 95,
      "chip": "ym2612"
    },
    {
      "channel": 3,
      "note": 64,
      "start": 5.1851,
      "duration": 0.2466,
      "velocity": 121,
      "chip": "ym2612"
    },
    {
      "channel": 4,
      "note": 59,
      "start": 5.1856,
      "duration": 0.2466,
      "velocity": 121,
      "chip": "ym2612"
    },
    {
      "channel": 5,
      "note": 64,
      "start": 5.2446,
      "duration": 0.2469,
      "velocity": 121,
      "chip": "ym2612"
    },
    {
      "channel": 0,
      "note": 40,
      "start": 5.4275,
      "duration": 0.2342,
      "velocity": 104,
      "chip": "ym2612"
    },
    {
      "channel": 1,
      "note": 68,
      "start": 5.4292,
      "duration": 0.2468,
      "velocity": 123,
      "chip": "ym2612"
    },
    {
      "channel": 2,
      "note": 69,
      "start": 5.4304,
      "duration": 0.2196,
      "velocity": 95,
      "chip": "ym2612"
    },
    {
      "channel": 3,
      "note": 62,
      "start": 5.4319,
      "duration": 0.2468,
      "velocity": 121,
      "chip": "ym2612"
    },
    {
      "channel": 4,
      "note": 57,
      "start": 5.4325,
      "duration": 0.2468,
      "velocity": 121,
      "chip": "ym2612"
    },
    {
      "channel": 5,
      "note": 62,
      "start": 5.4918,
      "duration": 0.2462,
      "velocity": 121,
      "chip": "ym2612"
    },
    {
      "channel": 0,
      "note": 40,
      "start": 5.6745,
      "duration": 0.234,
      "velocity": 104,
      "chip": "ym2612"
    },
    {
      "channel": 1,
      "note": 57,
      "start": 5.6762,
      "duration": 0.2464,
      "velocity": 127,
      "chip": "ym2612"
    },
    {
      "channel": 2,
      "note": 71,
      "start": 5.6774,
      "duration": 0.7132,
      "velocity": 95,
      "chip": "ym2612"
    },
    {
      "channel": 3,
      "note": 64,
      "start": 5.6788,
      "duration": 0.4924,
      "velocity": 121,
      "chip": "ym2612"
    },
    {
      "channel": 4,
      "note": 59,
      "start": 5.6794,
      "duration": 0.4923,
      "velocity": 121,
      "chip": "ym2612"
    },
    {
      "channel": 5,
      "note": 64,
      "start": 5.7382,
      "duration": 0.4934,
      "velocity": 121,
      "chip": "ym2612"
    },
    {
      "channel": 0,
      "note": 40,
      "start": 5.9211,
      "duration": 0.2341,
      "velocity": 104,
      "chip": "ym2612"
    },
    {
      "channel": 1,
      "note": 64,
      "start": 5.9229,
      "duration": 0.2465,
      "velocity": 123,
      "chip": "ym2612"
    },
    {
      "channel": 0,
      "note": 40,
      "start": 6.1678,
      "duration": 0.2341,
      "velocity": 104,
      "chip": "ym2612"
    },
    {
      "channel": 1,
      "note": 57,
      "start": 6.1696,
      "duration": 0.2466,
      "velocity": 127,
      "chip": "ym2612"
    },
    {
      "channel": 3,
      "note": 64,
      "start": 6.1714,
      "duration": 0.2475,
      "velocity": 121,
      "chip": "ym2612"
    },
    {
      "channel": 4,
      "note": 59,
      "start": 6.1719,
      "duration": 0.2475,
      "velocity": 121,
      "chip": "ym2612"
    },
    {
      "channel": 5,
      "note": 64,
      "start": 6.2318,
      "duration": 0.2466,
      "velocity": 121,
      "chip": "ym2612"
    },
    {
      "channel": 0,
      "note": 40,
      "start": 6.4147,
      "duration": 0.2341,
      "velocity": 104,
      "chip": "ym2612"
    },
    {
      "channel": 1,
      "note": 68,
      "start": 6.4164,
      "duration": 0.2466,
      "velocity": 123,
      "chip": "ym2612"
    },
    {
      "channel": 2,
      "note": 69,
      "start": 6.4175,
      "duration": 0.2196,
      "velocity": 95,
      "chip": "ym2612"
    },
    {
      "channel": 3,
      "note": 62,
      "start": 6.419,
      "duration": 0.2465,
      "velocity": 121,
      "chip": "ym2612"
    },
    {
      "channel": 4,
      "note": 57,
      "start": 6.4196,
      "duration": 0.2465,
      "velocity": 121,
      "chip": "ym2612"
    },
    {
      "channel": 5,
      "note": 62,
      "start": 6.4785,
      "duration": 0.2469,
      "velocity": 121,
      "chip": "ym2612"
    },
    {
      "channel": 0,
      "note": 40,
      "start": 6.6614,
      "duration": 0.2341,
      "velocity": 104,
      "chip": "ym2612"
    },
    {
      "channel": 1,
      "note": 57,
      "start": 6.6631,
      "duration": 0.2466,
      "velocity": 127,
      "chip": "ym2612"
    },
    {
      "channel": 2,
      "note": 69,
      "start": 6.6643,
      "duration": 0.2196,
      "velocity": 95,
      "chip": "ym2612"
    },
    {
      "channel": 3,
      "note": 62,
      "start": 6.6657,
      "duration": 0.2466,
      "velocity": 121,
      "chip": "ym2612"
    },
    {
      "channel": 4,
      "note": 57,
      "start": 6.6663,
      "duration": 0.2466,
      "velocity": 121,
      "chip": "ym2612"
    },
    {
      "channel": 5,
      "note": 62,
      "start": 6.7257,
      "duration": 0.2462,
      "velocity": 121,
      "chip": "ym2612"
    },
    {
      "channel": 0,
      "note": 40,
      "start": 6.9082,
      "duration": 0.2342,
      "velocity": 104,
      "chip": "ym2612"
    },
    {
      "channel": 1,
      "note": 64,
      "start": 6.91,
      "duration": 0.2466,
      "velocity": 123,
      "chip": "ym2612"
    },
    {
      "channel": 2,
      "note": 70,
      "start": 6.9111,
      "duration": 0.2195,
      "velocity": 95,
      "chip": "ym2612"
    },
    {
      "channel": 3,
      "note": 63,
      "start": 6.9126,
      "duration": 0.2469,
      "velocity": 121,
      "chip": "ym2612"
    },
    {
      "channel": 4,
      "note": 58,
      "start": 6.9131,
      "duration": 0.247,
      "velocity": 121,
      "chip": "ym2612"
    },
    {
      "channel": 5,
      "note": 63,
      "start": 6.9721,
      "duration": 0.2466,
      "velocity": 121,
      "chip": "ym2612"
    },
    {
      "channel": 0,
      "note": 40,
      "start": 7.155,
      "duration": 0.2342,
      "velocity": 104,
      "chip": "ym2612"
    },
    {
      "channel": 1,
      "note": 57,
      "start": 7.1567,
      "duration": 0.2466,
      "velocity": 127,
      "chip": "ym2612"
    },
    {
      "channel": 2,
      "note": 70,
      "start": 7.1582,
      "duration": 0.2192,
      "velocity": 95,
      "chip": "ym2612"
    },
    {
      "channel": 3,
      "note": 63,
      "start": 7.1597,
      "duration": 0.2462,
      "velocity": 121,
      "chip": "ym2612"
    },
    {
      "channel": 4,
      "note": 58,
      "start": 7.1603,
      "duration": 0.2463,
      "velocity": 121,
      "chip": "ym2612"
    },
    {
      "channel": 5,
      "note": 63,
      "start": 7.2189,
      "duration": 0.2466,
      "velocity": 121,
      "chip": "ym2612"
    },
    {
      "channel": 0,
      "note": 40,
      "start": 7.4017,
      "duration": 0.2342,
      "velocity": 104,
      "chip": "ym2612"
    },
    {
      "channel": 1,
      "note": 68,
      "start": 7.4035,
      "duration": 0.2466,
      "velocity": 123,
      "chip": "ym2612"
    },
    {
      "channel": 2,
      "note": 71,
      "start": 7.4046,
      "duration": 0.22,
      "velocity": 95,
      "chip": "ym2612"
    },
    {
      "channel": 3,
      "note": 64,
      "start": 7.4061,
      "duration": 0.2466,
      "velocity": 121,
      "chip": "ym2612"
    },
    {
      "channel": 4,
      "note": 59,
      "start": 7.4067,
      "duration": 0.2466,
      "velocity": 121,
      "chip": "ym2612"
    },
    {
      "channel": 5,
      "note": 64,
      "start": 7.4657,
      "duration": 0.2466,
      "velocity": 121,
      "chip": "ym2612"
    },
    {
      "channel": 0,
      "note": 40,
      "start": 7.6486,
      "duration": 0.2341,
      "velocity": 104,
      "chip": "ym2612"
    },
    {
      "channel": 1,
      "note": 57,
      "start": 7.6503,
      "duration": 0.2467,
      "velocity": 115,
      "chip": "ym2612"
    },
    {
      "channel": 2,
      "note": 71,
      "start": 7.6514,
      "duration": 0.2196,
      "velocity": 95,
      "chip": "ym2612"
    },
    {
      "channel": 3,
      "note": 64,
      "start": 7.6529,
      "duration": 0.2468,
      "velocity": 121,
      "chip": "ym2612"
    },
    {
      "channel": 4,
      "note": 59,
      "start": 7.6535,
      "duration": 0.2468,
      "velocity": 121,
      "chip": "ym2612"
    },
    {
      "channel": 5,
      "note": 64,
      "start": 7.7124,
      "duration": 0.2469,
      "velocity": 121,
      "chip": "ym2612"
    },
    {
      "channel": 0,
      "note": 40,
      "start": 7.8953,
      "duration": 0.2341,
      "velocity": 104,
      "chip": "ym2612"
    },
    {
      "channel": 1,
      "note": 57,
      "start": 7.8972,
      "duration": 0.4938,
      "velocity": 127,
      "chip": "ym2612"
    },
    {
      "channel": 2,
      "note": 71,
      "start": 7.8983,
      "duration": 0.2194,
      "velocity": 95,
      "chip": "ym2612"
    },
    {
      "channel": 3,
      "note": 64,
      "start": 7.8998,
      "duration": 0.2451,
      "velocity": 121,
      "chip": "ym2612"
    },
    {
      "channel": 4,
      "note": 59,
      "start": 7.9005,
      "duration": 0.245,
      "velocity": 121,
      "chip": "ym2612"
    },
    {
      "channel": 5,
      "note": 64,
      "start": 7.9595,
      "duration": 0.2462,
      "velocity": 121,
      "chip": "ym2612"
    },
    {
      "channel": 0,
      "note": 40,
      "start": 8.1421,
      "duration": 0.2342,
      "velocity": 104,
      "chip": "ym2612"
    },
    {
      "channel": 2,
      "note": 71,
      "start": 8.1437,
      "duration": 0.2207,
      "velocity": 95,
      "chip": "ym2612"
    },
    {
      "channel": 3,
      "note": 64,
      "start": 8.1451,
      "duration": 0.2484,
      "velocity": 121,
      "chip": "ym2612"
    },
    {
      "channel": 4,
      "note": 59,
      "start": 8.1457,
      "duration": 0.2484,
      "velocity": 121,
      "chip": "ym2612"
    },
    {
      "channel": 5,
      "note": 64,
      "start": 8.2059,
      "duration": 0.2467,
      "velocity": 121,
      "chip": "ym2612"
    },
    {
      "channel": 0,
      "note": 40,
      "start": 8.3889,
      "duration": 0.2342,
      "velocity": 104,
      "chip": "ym2612"
    },
    {
      "channel": 1,
      "note": 68,
      "start": 8.3911,
      "duration": 0.2461,
      "velocity": 123,
      "chip": "ym2612"
    },
    {
      "channel": 2,
      "note": 69,
      "start": 8.3923,
      "duration": 0.2191,
      "velocity": 95,
      "chip": "ym2612"
    },
    {
      "channel": 3,
      "note": 62,
      "start": 8.3937,
      "duration": 0.2461,
      "velocity": 121,
      "chip": "ym2612"
    },
    {
      "channel": 4,
      "note": 57,
      "start": 8.3943,
      "duration": 0.2464,
      "velocity": 121,
      "chip": "ym2612"
    },
    {
      "channel": 5,
      "note": 62,
      "start": 8.4528,
      "duration": 0.2466,
      "velocity": 121,
      "chip": "ym2612"
    },
    {
      "channel": 0,
      "note": 40,
      "start": 8.6357,
      "duration": 0.2342,
      "velocity": 104,
      "chip": "ym2612"
    },
    {
      "channel": 1,
      "note": 57,
      "start": 8.6374,
      "duration": 0.2466,
      "velocity": 127,
      "chip": "ym2612"
    },
    {
      "channel": 2,
      "note": 71,
      "start": 8.6386,
      "duration": 0.2197,
      "velocity": 95,
      "chip": "ym2612"
    },
    {
      "channel": 3,
      "note": 64,
      "start": 8.64,
      "duration": 0.2466,
      "velocity": 121,
      "chip": "ym2612"
    },
    {
      "channel": 4,
      "note": 59,
      "start": 8.641,
      "duration": 0.2462,
      "velocity": 121,
      "chip": "ym2612"
    },
    {
      "channel": 5,
      "note": 64,
      "start": 8.6996,
      "duration": 0.2466,
      "velocity": 121,
      "chip": "ym2612"
    },
    {
      "channel": 0,
      "note": 40,
      "start": 8.8825,
      "duration": 0.2342,
      "velocity": 104,
      "chip": "ym2612"
    },
    {
      "channel": 1,
      "note": 64,
      "start": 8.8843,
      "duration": 0.2466,
      "velocity": 123,
      "chip": "ym2612"
    },
    {
      "channel": 2,
      "note": 74,
      "start": 8.8854,
      "duration": 0.2195,
      "velocity": 95,
      "chip": "ym2612"
    },
    {
      "channel": 3,
      "note": 67,
      "start": 8.8869,
      "duration": 0.2466,
      "velocity": 121,
      "chip": "ym2612"
    },
    {
      "channel": 4,
      "note": 62,
      "start": 8.8874,
      "duration": 0.2466,
      "velocity": 121,
      "chip": "ym2612"
    },
    {
      "channel": 5,
      "note": 67,
      "start": 8.9464,
      "duration": 0.2468,
      "velocity": 121,
      "chip": "ym2612"
    },
    {
      "channel": 0,
      "note": 40,
      "start": 9.1292,
      "duration": 0.2342,
      "velocity": 104,
      "chip": "ym2612"
    },
    {
      "channel": 1,
      "note": 57,
      "start": 9.131,
      "duration": 0.2466,
      "velocity": 127,
      "chip": "ym2612"
    },
    {
      "channel": 2,
      "note": 71,
      "start": 9.1322,
      "duration": 0.2195,
      "velocity": 95,
      "chip": "ym2612"
    },
    {
      "channel": 3,
      "note": 64,
      "start": 9.1336,
      "duration": 0.2466,
      "velocity": 121,
      "chip": "ym2612"
    },
    {
      "channel": 4,
      "note": 59,
      "start": 9.1342,
      "duration": 0.2466,
      "velocity": 121,
      "chip": "ym2612"
    },
    {
      "channel": 5,
      "note": 64,
      "start": 9.1934,
      "duration": 0.2464,
      "velocity": 121,
      "chip": "ym2612"
    },
    {
      "channel": 0,
      "note": 40,
      "start": 9.3761,
      "duration": 0.2341,
      "velocity": 104,
      "chip": "ym2612"
    },
    {
      "channel": 1,
      "note": 68,
      "start": 9.3778,
      "duration": 0.247,
      "velocity": 123,
      "chip": "ym2612"
    },
    {
      "channel": 2,
      "note": 69,
      "start": 9.3789,
      "duration": 0.2196,
      "velocity": 95,
      "chip": "ym2612"
    },
    {
      "channel": 3,
      "note": 62,
      "start": 9.3804,
      "duration": 0.2471,
      "velocity": 121,
      "chip": "ym2612"
    },
    {
      "channel": 4,
      "note": 57,
      "start": 9.381,
      "duration": 0.2472,
      "velocity": 121,
      "chip": "ym2612"
    },
    {
      "channel": 5,
      "note": 62,
      "start": 9.4399,
      "duration": 0.2466,
      "velocity": 121,
      "chip": "ym2612"
    },
    {
      "channel": 0,
      "note": 40,
      "start": 9.6228,
      "duration": 0.2345,
      "velocity": 104,
      "chip": "ym2612"
    },
    {
      "channel": 1,
      "note": 57,
      "start": 9.625,
      "duration": 0.2462,
      "velocity": 127,
      "chip": "ym2612"
    },
    {
      "channel": 2,
      "note": 76,
      "start": 9.6262,
      "duration": 0.7127,
      "velocity": 95,
      "chip": "ym2612"
    },
    {
      "channel": 3,
      "note": 69,
      "start": 9.6278,
      "duration": 0.4919,
      "velocity": 121,
      "chip": "ym2612"
    },
    {
      "channel": 4,
      "note": 64,
      "start": 9.6283,
      "duration": 0.4919,
      "velocity": 121,
      "chip": "ym2612"
    },
    {
      "channel": 5,
      "note": 69,
      "start": 9.6868,
      "duration": 0.4933,
      "velocity": 121,
      "chip": "ym2612"
    },
    {
      "channel": 0,
      "note": 40,
      "start": 9.8696,
      "duration": 0.2342,
      "velocity": 104,
      "chip": "ym2612"
    },
    {
      "channel": 1,
      "note": 64,
      "start": 9.8713,
      "duration": 0.2466,
      "velocity": 123,
      "chip": "ym2612"
    },
    {
      "channel": 0,
      "note": 40,
      "start": 10.1164,
      "duration": 0.2342,
      "velocity": 104,
      "chip": "ym2612"
    },
    {
      "channel": 1,
      "note": 57,
      "start": 10.1181,
      "duration": 0.2466,
      "velocity": 127,
      "chip": "ym2612"
    },
    {
      "channel": 3,
      "note": 69,
      "start": 10.1199,
      "duration": 0.2476,
      "velocity": 121,
      "chip": "ym2612"
    },
    {
      "channel": 4,
      "note": 64,
      "start": 10.1205,
      "duration": 0.2475,
      "velocity": 121,
      "chip": "ym2612"
    },
    {
      "channel": 5,
      "note": 69,
      "start": 10.1803,
      "duration": 0.2466,
      "velocity": 121,
      "chip": "ym2612"
    },
    {
      "channel": 0,
      "note": 40,
      "start": 10.3632,
      "duration": 0.2342,
      "velocity": 104,
      "chip": "ym2612"
    },
    {
      "channel": 1,
      "note": 68,
      "start": 10.3649,
      "duration": 0.2466,
      "velocity": 123,
      "chip": "ym2612"
    },
    {
      "channel": 2,
      "note": 74,
      "start": 10.3661,
      "duration": 0.2195,
      "velocity": 95,
      "chip": "ym2612"
    },
    {
      "channel": 3,
      "note": 67,
      "start": 10.3676,
      "duration": 0.246,
      "velocity": 121,
      "chip": "ym2612"
    },
    {
      "channel": 4,
      "note": 62,
      "start": 10.3682,
      "duration": 0.2459,
      "velocity": 121,
      "chip": "ym2612"
    },
    {
      "channel": 5,
      "note": 67,
      "start": 10.4271,
      "duration": 0.2468,
      "velocity": 121,
      "chip": "ym2612"
    },
    {
      "channel": 0,
      "note": 40,
      "start": 10.61,
      "duration": 0.2341,
      "velocity": 104,
      "chip": "ym2612"
    },
    {
      "channel": 1,
      "note": 57,
      "start": 10.6117,
      "duration": 0.247,
      "velocity": 127,
      "chip": "ym2612"
    },
    {
      "channel": 0,
      "note": 40,
      "start": 10.8567,
      "duration": 0.2342,
      "velocity": 104,
      "chip": "ym2612"
    },
    {
      "channel": 1,
      "note": 64,
      "start": 10.8589,
      "duration": 0.2462,
      "velocity": 123,
      "chip": "ym2612"
    },
    {
      "channel": 2,
      "note": 74,
      "start": 10.86,
      "duration": 0.2192,
      "velocity": 95,
      "chip": "ym2612"
    },
    {
      "channel": 3,
      "note": 67,
      "start": 10.8615,
      "duration": 0.2466,
      "velocity": 121,
      "chip": "ym2612"
    },
    {
      "channel": 4,
      "note": 62,
      "start": 10.8621,
      "duration": 0.2466,
      "velocity": 121,
      "chip": "ym2612"
    },
    {
      "channel": 5,
      "note": 67,
      "start": 10.9206,
      "duration": 0.2466,
      "velocity": 121,
      "chip": "ym2612"
    },
    {
      "channel": 0,
      "note": 40,
      "start": 11.1035,
      "duration": 0.2341,
      "velocity": 104,
      "chip": "ym2612"
    },
    {
      "channel": 1,
      "note": 57,
      "start": 11.1052,
      "duration": 0.2466,
      "velocity": 127,
      "chip": "ym2612"
    },
    {
      "channel": 2,
      "note": 71,
      "start": 11.1064,
      "duration": 0.2196,
      "velocity": 95,
      "chip": "ym2612"
    },
    {
      "channel": 3,
      "note": 64,
      "start": 11.1082,
      "duration": 0.2463,
      "velocity": 121,
      "chip": "ym2612"
    },
    {
      "channel": 4,
      "note": 59,
      "start": 11.1088,
      "duration": 0.2462,
      "velocity": 121,
      "chip": "ym2612"
    },
    {
      "channel": 5,
      "note": 64,
      "start": 11.1674,
      "duration": 0.2466,
      "velocity": 121,
      "chip": "ym2612"
    },
    {
      "channel": 0,
      "note": 40,
      "start": 11.3503,
      "duration": 0.2341,
      "velocity": 104,
      "chip": "ym2612"
    },
    {
      "channel": 1,
      "note": 68,
      "start": 11.352,
      "duration": 0.2466,
      "velocity": 123,
      "chip": "ym2612"
    },
    {
      "channel": 2,
      "note": 69,
      "start": 11.3532,
      "duration": 0.2196,
      "velocity": 95,
      "chip": "ym2612"
    },
    {
      "channel": 3,
      "note": 62,
      "start": 11.3547,
      "duration": 0.2466,
      "velocity": 121,
      "chip": "ym2612"
    },
    {
      "channel": 4,
      "note": 57,
      "start": 11.3552,
      "duration": 0.2467,
      "velocity": 121,
      "chip": "ym2612"
    },
    {
      "channel": 5,
      "note": 62,
      "start": 11.4142,
      "duration": 0.2466,
      "velocity": 121,
      "chip": "ym2612"
    },
    {
      "channel": 0,
      "note": 40,
      "start": 11.5971,
      "duration": 0.2342,
      "velocity": 104,
      "chip": "ym2612"
    },
    {
      "channel": 1,
      "note": 57,
      "start": 11.5988,
      "duration": 0.2466,
      "velocity": 127,
      "chip": "ym2612"
    },
    {
      "channel": 2,
      "note": 71,
      "start": 11.6,
      "duration": 0.2196,
      "velocity": 95,
      "chip": "ym2612"
    },
    {
      "channel": 3,
      "note": 64,
      "start": 11.6015,
      "duration": 0.2466,
      "velocity": 121,
      "chip": "ym2612"
    },
    {
      "channel": 4,
      "note": 59,
      "start": 11.6021,
      "duration": 0.2466,
      "velocity": 121,
      "chip": "ym2612"
    },
    {
      "channel": 5,
      "note": 64,
      "start": 11.661,
      "duration": 0.2469,
      "velocity": 121,
      "chip": "ym2612"
    },
    {
      "channel": 0,
      "note": 40,
      "start": 11.8439,
      "duration": 0.2342,
      "velocity": 104,
      "chip": "ym2612"
    },
    {
      "channel": 1,
      "note": 64,
      "start": 11.8456,
      "duration": 0.2469,
      "velocity": 123,
      "chip": "ym2612"
    },
    {
      "channel": 2,
      "note": 71,
      "start": 11.8467,
      "duration": 0.2196,
      "velocity": 95,
      "chip": "ym2612"
    },
    {
      "channel": 3,
      "note": 64,
      "start": 11.8483,
      "duration": 0.2469,
      "velocity": 121,
      "chip": "ym2612"
    },
    {
      "channel": 4,
      "note": 59,
      "start": 11.8488,
      "duration": 0.2469,
      "velocity": 121,
      "chip": "ym2612"
    },
    {
      "channel": 5,
      "note": 64,
      "start": 11.9081,
      "duration": 0.2462,
      "velocity": 121,
      "chip": "ym2612"
    },
    {
      "channel": 0,
      "note": 40,
      "start": 12.091,
      "duration": 0.2338,
      "velocity": 104,
      "chip": "ym2612"
    },
    {
      "channel": 1,
      "note": 57,
      "start": 12.0928,
      "duration": 0.2462,
      "velocity": 127,
      "chip": "ym2612"
    },
    {
      "channel": 2,
      "note": 71,
      "start": 12.0939,
      "duration": 0.2191,
      "velocity": 95,
      "chip": "ym2612"
    },
    {
      "channel": 3,
      "note": 64,
      "start": 12.0954,
      "duration": 0.2466,
      "velocity": 121,
      "chip": "ym2612"
    },
    {
      "channel": 4,
      "note": 59,
      "start": 12.096,
      "duration": 0.2466,
      "velocity": 121,
      "chip": "ym2612"
    },
    {
      "channel": 5,
      "note": 64,
      "start": 12.1546,
      "duration": 0.2466,
      "velocity": 121,
      "chip": "ym2612"
    },
    {
      "channel": 0,
      "note": 40,
      "start": 12.3374,
      "duration": 0.2341,
      "velocity": 104,
      "chip": "ym2612"
    },
    {
      "channel": 1,
      "note": 68,
      "start": 12.3392,
      "duration": 0.2466,
      "velocity": 123,
      "chip": "ym2612"
    },
    {
      "channel": 2,
      "note": 69,
      "start": 12.3406,
      "duration": 0.2193,
      "velocity": 95,
      "chip": "ym2612"
    },
    {
      "channel": 3,
      "note": 62,
      "start": 12.3421,
      "duration": 0.2463,
      "velocity": 121,
      "chip": "ym2612"
    },
    {
      "channel": 4,
      "note": 57,
      "start": 12.3427,
      "duration": 0.2462,
      "velocity": 121,
      "chip": "ym2612"
    },
    {
      "channel": 5,
      "note": 62,
      "start": 12.4013,
      "duration": 0.2466,
      "velocity": 121,
      "chip": "ym2612"
    },
    {
      "channel": 0,
      "note": 40,
      "start": 12.5842,
      "duration": 0.2341,
      "velocity": 104,
      "chip": "ym2612"
    },
    {
      "channel": 1,
      "note": 57,
      "start": 12.5859,
      "duration": 0.2466,
      "velocity": 127,
      "chip": "ym2612"
    },
    {
      "channel": 2,
      "note": 71,
      "start": 12.5871,
      "duration": 0.2196,
      "velocity": 95,
      "chip": "ym2612"
    },
    {
      "channel": 3,
      "note": 64,
      "start": 12.5886,
      "duration": 0.2466,
      "velocity": 121,
      "chip": "ym2612"
    },
    {
      "channel": 4,
      "note": 59,
      "start": 12.5892,
      "duration": 0.2466,
      "velocity": 121,
      "chip": "ym2612"
    },
    {
      "channel": 5,
      "note": 64,
      "start": 12.6481,
      "duration": 0.2466,
      "velocity": 121,
      "chip": "ym2612"
    },
    {
      "channel": 0,
      "note": 40,
      "start": 12.831,
      "duration": 0.2341,
      "velocity": 104,
      "chip": "ym2612"
    },
    {
      "channel": 1,
      "note": 64,
      "start": 12.8327,
      "duration": 0.2466,
      "velocity": 123,
      "chip": "ym2612"
    },
    {
      "channel": 2,
      "note": 74,
      "start": 12.8339,
      "duration": 0.2196,
      "velocity": 95,
      "chip": "ym2612"
    },
    {
      "channel": 3,
      "note": 67,
      "start": 12.8353,
      "duration": 0.2466,
      "velocity": 121,
      "chip": "ym2612"
    },
    {
      "channel": 4,
      "note": 62,
      "start": 12.8359,
      "duration": 0.2466,
      "velocity": 121,
      "chip": "ym2612"
    },
    {
      "channel": 5,
      "note": 67,
      "start": 12.8949,
      "duration": 0.2469,
      "velocity": 121,
      "chip": "ym2612"
    },
    {
      "channel": 0,
      "note": 40,
      "start": 13.0778,
      "duration": 0.2342,
      "velocity": 104,
      "chip": "ym2612"
    },
    {
      "channel": 1,
      "note": 57,
      "start": 13.0795,
      "duration": 0.2467,
      "velocity": 127,
      "chip": "ym2612"
    },
    {
      "channel": 2,
      "note": 71,
      "start": 13.0806,
      "duration": 0.2196,
      "velocity": 95,
      "chip": "ym2612"
    },
    {
      "channel": 3,
      "note": 64,
      "start": 13.0821,
      "duration": 0.2467,
      "velocity": 121,
      "chip": "ym2612"
    },
    {
      "channel": 4,
      "note": 59,
      "start": 13.0827,
      "duration": 0.2467,
      "velocity": 121,
      "chip": "ym2612"
    },
    {
      "channel": 5,
      "note": 64,
      "start": 13.142,
      "duration": 0.2462,
      "velocity": 121,
      "chip": "ym2612"
    },
    {
      "channel": 0,
      "note": 40,
      "start": 13.3246,
      "duration": 0.2341,
      "velocity": 104,
      "chip": "ym2612"
    },
    {
      "channel": 1,
      "note": 68,
      "start": 13.3264,
      "duration": 0.2465,
      "velocity": 123,
      "chip": "ym2612"
    },
    {
      "channel": 2,
      "note": 69,
      "start": 13.3275,
      "duration": 0.2195,
      "velocity": 95,
      "chip": "ym2612"
    },
    {
      "channel": 3,
      "note": 62,
      "start": 13.329,
      "duration": 0.2469,
      "velocity": 121,
      "chip": "ym2612"
    },
    {
      "channel": 4,
      "note": 57,
      "start": 13.3295,
      "duration": 0.2469,
      "velocity": 121,
      "chip": "ym2612"
    },
    {
      "channel": 5,
      "note": 62,
      "start": 13.3885,
      "duration": 0.2466,
      "velocity": 121,
      "chip": "ym2612"
    },
    {
      "channel": 0,
      "note": 40,
      "start": 13.5713,
      "duration": 0.2342,
      "velocity": 104,
      "chip": "ym2612"
    },
    {
      "channel": 1,
      "note": 57,
      "start": 13.5731,
      "duration": 0.2466,
      "velocity": 127,
      "chip": "ym2612"
    },
    {
      "channel": 2,
      "note": 71,
      "start": 13.5746,
      "duration": 0.7128,
      "velocity": 95,
      "chip": "ym2612"
    },
    {
      "channel": 3,
      "note": 64,
      "start": 13.5761,
      "duration": 0.4922,
      "velocity": 121,
      "chip": "ym2612"
    },
    {
      "channel": 4,
      "note": 59,
      "start": 13.5766,
      "duration": 0.4922,
      "velocity": 121,
      "chip": "ym2612"
    },
    {
      "channel": 5,
      "note": 64,
      "start": 13.6352,
      "duration": 0.4934,
      "velocity": 121,
      "chip": "ym2612"
    },
    {
      "channel": 0,
      "note": 40,
      "start": 13.8181,
      "duration": 0.2342,
      "velocity": 104,
      "chip": "ym2612"
    },
    {
      "channel": 1,
      "note": 64,
      "start": 13.8199,
      "duration": 0.2466,
      "velocity": 123,
      "chip": "ym2612"
    },
    {
      "channel": 0,
      "note": 40,
      "start": 14.0649,
      "duration": 0.2341,
      "velocity": 104,
      "chip": "ym2612"
    },
    {
      "channel": 1,
      "note": 57,
      "start": 14.0666,
      "duration": 0.2466,
      "velocity": 127,
      "chip": "ym2612"
    },
    {
      "channel": 3,
      "note": 64,
      "start": 14.0684,
      "duration": 0.2475,
      "velocity": 121,
      "chip": "ym2612"
    },
    {
      "channel": 4,
      "note": 59,
      "start": 14.069,
      "duration": 0.2475,
      "velocity": 121,
      "chip": "ym2612"
    },
    {
      "channel": 5,
      "note": 64,
      "start": 14.1288,
      "duration": 0.247,
      "velocity": 121,
      "chip": "ym2612"
    },
    {
      "channel": 0,
      "note": 40,
      "start": 14.3117,
      "duration": 0.2342,
      "velocity": 104,
      "chip": "ym2612"
    },
    {
      "channel": 1,
      "note": 68,
      "start": 14.3134,
      "duration": 0.2466,
      "velocity": 123,
      "chip": "ym2612"
    },
    {
      "channel": 2,
      "note": 69,
      "start": 14.3145,
      "duration": 0.2196,
      "velocity": 95,
      "chip": "ym2612"
    },
    {
      "channel": 3,
      "note": 62,
      "start": 14.3161,
      "duration": 0.2466,
      "velocity": 121,
      "chip": "ym2612"
    },
    {
      "channel": 4,
      "note": 57,
      "start": 14.3166,
      "duration": 0.2466,
      "velocity": 121,
      "chip": "ym2612"
    },
    {
      "channel": 5,
      "note": 62,
      "start": 14.376,
      "duration": 0.2462,
      "velocity": 121,
      "chip": "ym2612"
    },
    {
      "channel": 0,
      "note": 40,
      "start": 14.5585,
      "duration": 0.2342,
      "velocity": 104,
      "chip": "ym2612"
    },
    {
      "channel": 1,
      "note": 57,
      "start": 14.5602,
      "duration": 0.2466,
      "velocity": 127,
      "chip": "ym2612"
    },
    {
      "channel": 2,
      "note": 69,
      "start": 14.5614,
      "duration": 0.2196,
      "velocity": 95,
      "chip": "ym2612"
    },
    {
      "channel": 3,
      "note": 62,
      "start": 14.5629,
      "duration": 0.2469,
      "velocity": 121,
      "chip": "ym2612"
    },
    {
      "channel": 4,
      "note": 57,
      "start": 14.5634,
      "duration": 0.247,
      "velocity": 121,
      "chip": "ym2612"
    },
    {
      "channel": 5,
      "note": 62,
      "start": 14.6224,
      "duration": 0.2466,
      "velocity": 121,
      "chip": "ym2612"
    },
    {
      "channel": 0,
      "note": 40,
      "start": 14.8052,
      "duration": 0.2342,
      "velocity": 104,
      "chip": "ym2612"
    },
    {
      "channel": 1,
      "note": 64,
      "start": 14.8073,
      "duration": 0.2462,
      "velocity": 123,
      "chip": "ym2612"
    },
    {
      "channel": 2,
      "note": 70,
      "start": 14.8085,
      "duration": 0.2192,
      "velocity": 95,
      "chip": "ym2612"
    },
    {
      "channel": 3,
      "note": 63,
      "start": 14.81,
      "duration": 0.2462,
      "velocity": 121,
      "chip": "ym2612"
    },
    {
      "channel": 4,
      "note": 58,
      "start": 14.8106,
      "duration": 0.2462,
      "velocity": 121,
      "chip": "ym2612"
    },
    {
      "channel": 5,
      "note": 63,
      "start": 14.8692,
      "duration": 0.2466,
      "velocity": 121,
      "chip": "ym2612"
    },
    {
      "channel": 0,
      "note": 40,
      "start": 15.0521,
      "duration": 0.2342,
      "velocity": 104,
      "chip": "ym2612"
    },
    {
      "channel": 1,
      "note": 57,
      "start": 15.0538,
      "duration": 0.2466,
      "velocity": 127,
      "chip": "ym2612"
    },
    {
      "channel": 2,
      "note": 70,
      "start": 15.0549,
      "duration": 0.2199,
      "velocity": 95,
      "chip": "ym2612"
    },
    {
      "channel": 3,
      "note": 63,
      "start": 15.0564,
      "duration": 0.2466,
      "velocity": 121,
      "chip": "ym2612"
    },
    {
      "channel": 4,
      "note": 58,
      "start": 15.0573,
      "duration": 0.2463,
      "velocity": 121,
      "chip": "ym2612"
    },
    {
      "channel": 5,
      "note": 63,
      "start": 15.1159,
      "duration": 0.2466,
      "velocity": 121,
      "chip": "ym2612"
    },
    {
      "channel": 0,
      "note": 40,
      "start": 15.2988,
      "duration": 0.2342,
      "velocity": 104,
      "chip": "ym2612"
    },
    {
      "channel": 1,
      "note": 68,
      "start": 15.3005,
      "duration": 0.2466,
      "velocity": 123,
      "chip": "ym2612"
    },
    {
      "channel": 2,
      "note": 71,
      "start": 15.3017,
      "duration": 0.2196,
      "velocity": 95,
      "chip": "ym2612"
    },
    {
      "channel": 3,
      "note": 64,
      "start": 15.3032,
      "duration": 0.2466,
      "velocity": 121,
      "chip": "ym2612"
    },
    {
      "channel": 4,
      "note": 59,
      "start": 15.3038,
      "duration": 0.2466,
      "velocity": 121,
      "chip": "ym2612"
    },
    {
      "channel": 5,
      "note": 64,
      "start": 15.3627,
      "duration": 0.247,
      "velocity": 121,
      "chip": "ym2612"
    },
    {
      "channel": 0,
      "note": 40,
      "start": 15.5456,
      "duration": 0.2342,
      "velocity": 104,
      "chip": "ym2612"
    },
    {
      "channel": 1,
      "note": 57,
      "start": 15.5474,
      "duration": 0.2467,
      "velocity": 115,
      "chip": "ym2612"
    },
    {
      "channel": 2,
      "note": 71,
      "start": 15.5485,
      "duration": 0.2195,
      "velocity": 95,
      "chip": "ym2612"
    },
    {
      "channel": 3,
      "note": 64,
      "start": 15.55,
      "duration": 0.2471,
      "velocity": 121,
      "chip": "ym2612"
    },
    {
      "channel": 4,
      "note": 59,
      "start": 15.5505,
      "duration": 0.2471,
      "velocity": 121,
      "chip": "ym2612"
    },
    {
      "channel": 5,
      "note": 64,
      "start": 15.6099,
      "duration": 0.2462,
      "velocity": 121,
      "chip": "ym2612"
    },
    {
      "channel": 0,
      "note": 45,
      "start": 15.7925,
      "duration": 0.2341,
      "velocity": 104,
      "chip": "ym2612"
    },
    {
      "channel": 1,
      "note": 57,
      "start": 15.7942,
      "duration": 0.4933,
      "velocity": 127,
      "chip": "ym2612"
    },
    {
      "channel": 2,
      "note": 76,
      "start": 15.7956,
      "duration": 0.2191,
      "velocity": 95,
      "chip": "ym2612"
    },
    {
      "channel": 3,
      "note": 69,
      "start": 15.7972,
      "duration": 0.2453,
      "velocity": 121,
      "chip": "ym2612"
    },
    {
      "channel": 4,
      "note": 64,
      "start": 15.7979,
      "duration": 0.2452,
      "velocity": 121,
      "chip": "ym2612"
    },
    {
      "channel": 5,
      "note": 69,
      "start": 15.8563,
      "duration": 0.2464,
      "velocity": 121,
      "chip": "ym2612"
    },
    {
      "channel": 0,
      "note": 45,
      "start": 16.0391,
      "duration": 0.2343,
      "velocity": 104,
      "chip": "ym2612"
    },
    {
      "channel": 2,
      "note": 76,
      "start": 16.0412,
      "duration": 0.2202,
      "velocity": 95,
      "chip": "ym2612"
    },
    {
      "channel": 3,
      "note": 69,
      "start": 16.0427,
      "duration": 0.248,
      "velocity": 121,
      "chip": "ym2612"
    },
    {
      "channel": 4,
      "note": 64,
      "start": 16.0433,
      "duration": 0.248,
      "velocity": 121,
      "chip": "ym2612"
    },
    {
      "channel": 5,
      "note": 69,
      "start": 16.1029,
      "duration": 0.2468,
      "velocity": 121,
      "chip": "ym2612"
    },
    {
      "channel": 0,
      "note": 45,
      "start": 16.2859,
      "duration": 0.2342,
      "velocity": 104,
      "chip": "ym2612"
    },
    {
      "channel": 1,
      "note": 68,
      "start": 16.2877,
      "duration": 0.2466,
      "velocity": 123,
      "chip": "ym2612"
    },
    {
      "channel": 2,
      "note": 76,
      "start": 16.289,
      "duration": 0.2194,
      "velocity": 95,
      "chip": "ym2612"
    },
    {
      "channel": 3,
      "note": 69,
      "start": 16.2909,
      "duration": 0.2461,
      "velocity": 121,
      "chip": "ym2612"
    },
    {
      "channel": 4,
      "note": 64,
      "start": 16.2915,
      "duration": 0.2461,
      "velocity": 121,
      "chip": "ym2612"
    },
    {
      "channel": 5,
      "note": 69,
      "start": 16.3498,
      "duration": 0.2466,
      "velocity": 121,
      "chip": "ym2612"
    },
    {
      "channel": 0,
      "note": 45,
      "start": 16.5327,
      "duration": 0.2342,
      "velocity": 104,
      "chip": "ym2612"
    },
    {
      "channel": 1,
      "note": 57,
      "start": 16.5344,
      "duration": 0.2466,
      "velocity": 127,
      "chip": "ym2612"
    },
    {
      "channel": 2,
      "note": 76,
      "start": 16.5358,
      "duration": 0.2194,
      "velocity": 95,
      "chip": "ym2612"
    },
    {
      "channel": 3,
      "note": 69,
      "start": 16.5372,
      "duration": 0.2466,
      "velocity": 121,
      "chip": "ym2612"
    },
    {
      "channel": 4,
      "note": 64,
      "start": 16.5378,
      "duration": 0.2466,
      "velocity": 121,
      "chip": "ym2612"
    },
    {
      "channel": 5,
      "note": 69,
      "start": 16.5967,
      "duration": 0.2466,
      "velocity": 121,
      "chip": "ym2612"
    },
    {
      "channel": 0,
      "note": 45,
      "start": 16.7795,
      "duration": 0.2342,
      "velocity": 104,
      "chip": "ym2612"
    },
    {
      "channel": 1,
      "note": 64,
      "start": 16.7813,
      "duration": 0.2466,
      "velocity": 123,
      "chip": "ym2612"
    },
    {
      "channel": 2,
      "note": 76,
      "start": 16.7825,
      "duration": 0.2194,
      "velocity": 95,
      "chip": "ym2612"
    },
    {
      "channel": 3,
      "note": 69,
      "start": 16.7841,
      "duration": 0.2466,
      "velocity": 121,
      "chip": "ym2612"
    },
    {
      "channel": 4,
      "note": 64,
      "start": 16.7846,
      "duration": 0.2466,
      "velocity": 121,
      "chip": "ym2612"
    },
    {
      "channel": 5,
      "note": 69,
      "start": 16.8435,
      "duration": 0.2466,
      "velocity": 121,
      "chip": "ym2612"
    },
    {
      "channel": 0,
      "note": 43,
      "start": 17.0263,
      "duration": 0.4812,
      "velocity": 104,
      "chip": "ym2612"
    },
    {
      "channel": 1,
      "note": 57,
      "start": 17.028,
      "duration": 0.2468,
      "velocity": 127,
      "chip": "ym2612"
    },
    {
      "channel": 2,
      "note": 74,
      "start": 17.0292,
      "duration": 0.2195,
      "velocity": 95,
      "chip": "ym2612"
    },
    {
      "channel": 3,
      "note": 67,
      "start": 17.0308,
      "duration": 0.2466,
      "velocity": 121,
      "chip": "ym2612"
    },
    {
      "channel": 4,
      "note": 62,
      "start": 17.0314,
      "duration": 0.2466,
      "velocity": 121,
      "chip": "ym2612"
    },
    {
      "channel": 5,
      "note": 67,
      "start": 17.0905,
      "duration": 0.2463,
      "velocity": 121,
      "chip": "ym2612"
    },
    {
      "channel": 1,
      "note": 68,
      "start": 17.275,
      "duration": 0.2463,
      "velocity": 123,
      "chip": "ym2612"
    },
    {
      "channel": 2,
      "note": 74,
      "start": 17.2762,
      "duration": 0.2193,
      "velocity": 95,
      "chip": "ym2612"
    },
    {
      "channel": 3,
      "note": 67,
      "start": 17.2776,
      "duration": 0.2467,
      "velocity": 121,
      "chip": "ym2612"
    },
    {
      "channel": 4,
      "note": 62,
      "start": 17.2782,
      "duration": 0.2467,
      "velocity": 121,
      "chip": "ym2612"
    },
    {
      "channel": 5,
      "note": 67,
      "start": 17.337,
      "duration": 0.2466,
      "velocity": 121,
      "chip": "ym2612"
    },
    {
      "channel": 0,
      "note": 40,
      "start": 17.5198,
      "duration": 0.481,
      "velocity": 104,
      "chip": "ym2612"
    },
    {
      "channel": 1,
      "note": 57,
      "start": 17.5215,
      "duration": 0.2466,
      "velocity": 127,
      "chip": "ym2612"
    },
    {
      "channel": 2,
      "note": 71,
      "start": 17.5227,
      "duration": 0.4664,
      "velocity": 95,
      "chip": "ym2612"
    },
    {
      "channel": 3,
      "note": 64,
      "start": 17.5245,
      "duration": 0.4931,
      "velocity": 121,
      "chip": "ym2612"
    },
    {
      "channel": 4,
      "note": 59,
      "start": 17.5251,
      "duration": 0.4931,
      "velocity": 121,
      "chip": "ym2612"
    },
    {
      "channel": 5,
      "note": 64,
      "start": 17.5837,
      "duration": 0.4934,
      "velocity": 121,
      "chip": "ym2612"
    },
    {
      "channel": 1,
      "note": 64,
      "start": 17.7683,
      "duration": 0.2466,
      "velocity": 123,
      "chip": "ym2612"
    },
    {
      "channel": 0,
      "note": 40,
      "start": 18.0134,
      "duration": 0.2342,
      "velocity": 104,
      "chip": "ym2612"
    },
    {
      "channel": 1,
      "note": 57,
      "start": 18.0151,
      "duration": 0.2466,
      "velocity": 127,
      "chip": "ym2612"
    },
    {
      "channel": 2,
      "note": 71,
      "start": 18.0163,
      "duration": 0.2196,
      "velocity": 95,
      "chip": "ym2612"
    },
    {
      "channel": 3,
      "note": 64,
      "start": 18.0178,
      "duration": 0.2466,
      "velocity": 121,
      "chip": "ym2612"
    },
    {
      "channel": 4,
      "note": 59,
      "start": 18.0184,
      "duration": 0.2465,
      "velocity": 121,
      "chip": "ym2612"
    },
    {
      "channel": 5,
      "note": 64,
      "start": 18.0773,
      "duration": 0.2469,
      "velocity": 121,
      "chip": "ym2612"
    },
    {
      "channel": 0,
      "note": 40,
      "start": 18.2601,
      "duration": 0.2342,
      "velocity": 104,
      "chip": "ym2612"
    },
    {
      "channel": 1,
      "note": 68,
      "start": 18.2619,
      "duration": 0.247,
      "velocity": 123,
      "chip": "ym2612"
    },
    {
      "channel": 2,
      "note": 71,
      "start": 18.2631,
      "duration": 0.2196,
      "velocity": 95,
      "chip": "ym2612"
    },
    {
      "channel": 3,
      "note": 64,
      "start": 18.2646,
      "duration": 0.2469,
      "velocity": 121,
      "chip": "ym2612"
    },
    {
      "channel": 4,
      "note": 59,
      "start": 18.2651,
      "duration": 0.247,
      "velocity": 121,
      "chip": "ym2612"
    },
    {
      "channel": 5,
      "note": 64,
      "start": 18.3245,
      "duration": 0.2462,
      "velocity": 121,
      "chip": "ym2612"
    },
    {
      "channel": 0,
      "note": 40,
      "start": 18.5072,
      "duration": 0.234,
      "velocity": 104,
      "chip": "ym2612"
    },
    {
      "channel": 1,
      "note": 57,
      "start": 18.5091,
      "duration": 0.2462,
      "velocity": 127,
      "chip": "ym2612"
    },
    {
      "channel": 2,
      "note": 71,
      "start": 18.5103,
      "duration": 0.2192,
      "velocity": 95,
      "chip": "ym2612"
    },
    {
      "channel": 3,
      "note": 64,
      "start": 18.5117,
      "duration": 0.2466,
      "velocity": 121,
      "chip": "ym2612"
    },
    {
      "channel": 4,
      "note": 59,
      "start": 18.5123,
      "duration": 0.2466,
      "velocity": 121,
      "chip": "ym2612"
    },
    {
      "channel": 5,
      "note": 64,
      "start": 18.5709,
      "duration": 0.2466,
      "velocity": 121,
      "chip": "ym2612"
    },
    {
      "channel": 0,
      "note": 40,
      "start": 18.7537,
      "duration": 0.2342,
      "velocity": 104,
      "chip": "ym2612"
    },
    {
      "channel": 1,
      "note": 64,
      "start": 18.7555,
      "duration": 0.2466,
      "velocity": 123,
      "chip": "ym2612"
    },
    {
      "channel": 2,
      "note": 71,
      "start": 18.7566,
      "duration": 0.2196,
      "velocity": 95,
      "chip": "ym2612"
    },
    {
      "channel": 3,
      "note": 64,
      "start": 18.7585,
      "duration": 0.2463,
      "velocity": 121,
      "chip": "ym2612"
    },
    {
      "channel": 4,
      "note": 59,
      "start": 18.7591,
      "duration": 0.2462,
      "velocity": 121,
      "chip": "ym2612"
    },
    {
      "channel": 5,
      "note": 64,
      "start": 18.8176,
      "duration": 0.2466,
      "velocity": 121,
      "chip": "ym2612"
    },
    {
      "channel": 0,
      "note": 43,
      "start": 19.0005,
      "duration": 0.2343,
      "velocity": 104,
      "chip": "ym2612"
    },
    {
      "channel": 1,
      "note": 57,
      "start": 19.0023,
      "duration": 0.2466,
      "velocity": 127,
      "chip": "ym2612"
    },
    {
      "channel": 2,
      "note": 74,
      "start": 19.0035,
      "duration": 0.2195,
      "velocity": 95,
      "chip": "ym2612"
    },
    {
      "channel": 3,
      "note": 67,
      "start": 19.005,
      "duration": 0.2466,
      "velocity": 121,
      "chip": "ym2612"
    },
    {
      "channel": 4,
      "note": 62,
      "start": 19.0056,
      "duration": 0.2465,
      "velocity": 121,
      "chip": "ym2612"
    },
    {
      "channel": 5,
      "note": 67,
      "start": 19.0645,
      "duration": 0.2466,
      "velocity": 121,
      "chip": "ym2612"
    },
    {
      "channel": 0,
      "note": 43,
      "start": 19.2473,
      "duration": 0.2342,
      "velocity": 104,
      "chip": "ym2612"
    },
    {
      "channel": 1,
      "note": 68,
      "start": 19.249,
      "duration": 0.2466,
      "velocity": 123,
      "chip": "ym2612"
    },
    {
      "channel": 2,
      "note": 74,
      "start": 19.2502,
      "duration": 0.2196,
      "velocity": 95,
      "chip": "ym2612"
    },
    {
      "channel": 3,
      "note": 67,
      "start": 19.2517,
      "duration": 0.2466,
      "velocity": 121,
      "chip": "ym2612"
    },
    {
      "channel": 4,
      "note": 62,
      "start": 19.2523,
      "duration": 0.2466,
      "velocity": 121,
      "chip": "ym2612"
    },
    {
      "channel": 5,
      "note": 67,
      "start": 19.3112,
      "duration": 0.2469,
      "velocity": 121,
      "chip": "ym2612"
    },
    {
      "channel": 0,
      "note": 43,
      "start": 19.4941,
      "duration": 0.2342,
      "velocity": 104,
      "chip": "ym2612"
    },
    {
      "channel": 1,
      "note": 57,
      "start": 19.4958,
      "duration": 0.2469,
      "velocity": 127,
      "chip": "ym2612"
    },
    {
      "channel": 2,
      "note": 74,
      "start": 19.4971,
      "duration": 0.2195,
      "velocity": 95,
      "chip": "ym2612"
    },
    {
      "channel": 3,
      "note": 67,
      "start": 19.4985,
      "duration": 0.2472,
      "velocity": 121,
      "chip": "ym2612"
    },
    {
      "channel": 4,
      "note": 62,
      "start": 19.4991,
      "duration": 0.2472,
      "velocity": 121,
      "chip": "ym2612"
    },
    {
      "channel": 5,
      "note": 67,
      "start": 19.5584,
      "duration": 0.2463,
      "velocity": 121,
      "chip": "ym2612"
    },
    {
      "channel": 0,
      "note": 45,
      "start": 19.7411,
      "duration": 0.234,
      "velocity": 104,
      "chip": "ym2612"
    },
    {
      "channel": 1,
      "note": 64,
      "start": 19.7429,
      "duration": 0.2463,
      "velocity": 123,
      "chip": "ym2612"
    },
    {
      "channel": 2,
      "note": 76,
      "start": 19.7443,
      "duration": 0.2191,
      "velocity": 95,
      "chip": "ym2612"
    },
    {
      "channel": 3,
      "note": 69,
      "start": 19.7459,
      "duration": 0.2465,
      "velocity": 121,
      "chip": "ym2612"
    },
    {
      "channel": 4,
      "note": 64,
      "start": 19.7465,
      "duration": 0.2465,
      "velocity": 121,
      "chip": "ym2612"
    },
    {
      "channel": 5,
      "note": 69,
      "start": 19.8049,
      "duration": 0.2465,
      "velocity": 121,
      "chip": "ym2612"
    },
    {
      "channel": 0,
      "note": 45,
      "start": 19.9876,
      "duration": 0.2342,
      "velocity": 104,
      "chip": "ym2612"
    },
    {
      "channel": 1,
      "note": 57,
      "start": 19.9894,
      "duration": 0.2466,
      "velocity": 127,
      "chip": "ym2612"
    },
    {
      "channel": 2,
      "note": 76,
      "start": 19.9911,
      "duration": 0.219,
      "velocity": 95,
      "chip": "ym2612"
    },
    {
      "channel": 3,
      "note": 69,
      "start": 19.9926,
      "duration": 0.2463,
      "velocity": 121,
      "chip": "ym2612"
    },
    {
      "channel": 4,
      "note": 64,
      "start": 19.9932,
      "duration": 0.2462,
      "velocity": 121,
      "chip": "ym2612"
    },
    {
      "channel": 5,
      "note": 69,
      "start": 20.0516,
      "duration": 0.2466,
      "velocity": 121,
      "chip": "ym2612"
    },
    {
      "channel": 0,
      "note": 45,
      "start": 20.2344,
      "duration": 0.2342,
      "velocity": 104,
      "chip": "ym2612"
    },
    {
      "channel": 1,
      "note": 68,
      "start": 20.2362,
      "duration": 0.2466,
      "velocity": 123,
      "chip": "ym2612"
    },
    {
      "channel": 2,
      "note": 76,
      "start": 20.2375,
      "duration": 0.2197,
      "velocity": 95,
      "chip": "ym2612"
    },
    {
      "channel": 3,
      "note": 69,
      "start": 20.239,
      "duration": 0.2466,
      "velocity": 121,
      "chip": "ym2612"
    },
    {
      "channel": 4,
      "note": 64,
      "start": 20.2395,
      "duration": 0.2466,
      "velocity": 121,
      "chip": "ym2612"
    },
    {
      "channel": 5,
      "note": 69,
      "start": 20.2984,
      "duration": 0.2466,
      "velocity": 121,
      "chip": "ym2612"
    },
    {
      "channel": 0,
      "note": 45,
      "start": 20.4812,
      "duration": 0.2342,
      "velocity": 104,
      "chip": "ym2612"
    },
    {
      "channel": 1,
      "note": 57,
      "start": 20.4829,
      "duration": 0.2466,
      "velocity": 127,
      "chip": "ym2612"
    },
    {
      "channel": 2,
      "note": 76,
      "start": 20.4843,
      "duration": 0.2195,
      "velocity": 95,
      "chip": "ym2612"
    },
    {
      "channel": 3,
      "note": 69,
      "start": 20.4858,
      "duration": 0.2466,
      "velocity": 121,
      "chip": "ym2612"
    },
    {
      "channel": 4,
      "note": 64,
      "start": 20.4863,
      "duration": 0.2466,
      "velocity": 121,
      "chip": "ym2612"
    },
    {
      "channel": 5,
      "note": 69,
      "start": 20.5451,
      "duration": 0.247,
      "velocity": 121,
      "chip": "ym2612"
    },
    {
      "channel": 0,
      "note": 45,
      "start": 20.728,
      "duration": 0.2343,
      "velocity": 104,
      "chip": "ym2612"
    },
    {
      "channel": 1,
      "note": 64,
      "start": 20.7297,
      "duration": 0.2466,
      "velocity": 123,
      "chip": "ym2612"
    },
    {
      "channel": 2,
      "note": 76,
      "start": 20.7311,
      "duration": 0.2194,
      "velocity": 95,
      "chip": "ym2612"
    },
    {
      "channel": 3,
      "note": 69,
      "start": 20.7325,
      "duration": 0.2466,
      "velocity": 121,
      "chip": "ym2612"
    },
    {
      "channel": 4,
      "note": 64,
      "start": 20.7331,
      "duration": 0.2466,
      "velocity": 121,
      "chip": "ym2612"
    },
    {
      "channel": 5,
      "note": 69,
      "start": 20.7923,
      "duration": 0.2462,
      "velocity": 121,
      "chip": "ym2612"
    },
    {
      "channel": 0,
      "note": 43,
      "start": 20.9748,
      "duration": 0.4809,
      "velocity": 104,
      "chip": "ym2612"
    },
    {
      "channel": 1,
      "note": 57,
      "start": 20.9766,
      "duration": 0.2464,
      "velocity": 127,
      "chip": "ym2612"
    },
    {
      "channel": 2,
      "note": 74,
      "start": 20.9778,
      "duration": 0.2195,
      "velocity": 95,
      "chip": "ym2612"
    },
    {
      "channel": 3,
      "note": 67,
      "start": 20.9793,
      "duration": 0.2467,
      "velocity": 121,
      "chip": "ym2612"
    },
    {
      "channel": 4,
      "note": 62,
      "start": 20.9799,
      "duration": 0.2467,
      "velocity": 121,
      "chip": "ym2612"
    },
    {
      "channel": 5,
      "note": 67,
      "start": 21.0388,
      "duration": 0.2466,
      "velocity": 121,
      "chip": "ym2612"
    },
    {
      "channel": 1,
      "note": 68,
      "start": 21.2232,
      "duration": 0.2467,
      "velocity": 123,
      "chip": "ym2612"
    },
    {
      "channel": 2,
      "note": 74,
      "start": 21.2247,
      "duration": 0.2193,
      "velocity": 95,
      "chip": "ym2612"
    },
    {
      "channel": 3,
      "note": 67,
      "start": 21.2262,
      "duration": 0.2464,
      "velocity": 121,
      "chip": "ym2612"
    },
    {
      "channel": 4,
      "note": 62,
      "start": 21.2268,
      "duration": 0.2464,
      "velocity": 121,
      "chip": "ym2612"
    },
    {
      "channel": 5,
      "note": 67,
      "start": 21.2855,
      "duration": 0.2466,
      "velocity": 121,
      "chip": "ym2612"
    },
    {
      "channel": 0,
      "note": 40,
      "start": 21.4683,
      "duration": 0.2342,
      "velocity": 104,
      "chip": "ym2612"
    },
    {
      "channel": 1,
      "note": 57,
      "start": 21.4701,
      "duration": 0.2466,
      "velocity": 127,
      "chip": "ym2612"
    },
    {
      "channel": 2,
      "note": 71,
      "start": 21.4713,
      "duration": 0.22,
      "velocity": 95,
      "chip": "ym2612"
    },
    {
      "channel": 3,
      "note": 64,
      "start": 21.4728,
      "duration": 0.2466,
      "velocity": 121,
      "chip": "ym2612"
    },
    {
      "channel": 4,
      "note": 59,
      "start": 21.4734,
      "duration": 0.2466,
      "velocity": 121,
      "chip": "ym2612"
    },
    {
      "channel": 5,
      "note": 64,
      "start": 21.5323,
      "duration": 0.2466,
      "velocity": 121,
      "chip": "ym2612"
    },
    {
      "channel": 0,
      "note": 40,
      "start": 21.7151,
      "duration": 0.2342,
      "velocity": 104,
      "chip": "ym2612"
    },
    {
      "channel": 1,
      "note": 64,
      "start": 21.7169,
      "duration": 0.2466,
      "velocity": 123,
      "chip": "ym2612"
    },
    {
      "channel": 2,
      "note": 71,
      "start": 21.718,
      "duration": 0.2196,
      "velocity": 95,
      "chip": "ym2612"
    },
    {
      "channel": 3,
      "note": 64,
      "start": 21.7196,
      "duration": 0.2466,
      "velocity": 121,
      "chip": "ym2612"
    },
    {
      "channel": 4,
      "note": 59,
      "start": 21.7201,
      "duration": 0.2466,
      "velocity": 121,
      "chip": "ym2612"
    },
    {
      "channel": 5,
      "note": 64,
      "start": 21.7791,
      "duration": 0.247,
      "velocity": 121,
      "chip": "ym2612"
    },
    {
      "channel": 0,
      "note": 40,
      "start": 21.9619,
      "duration": 0.2343,
      "velocity": 104,
      "chip": "ym2612"
    },
    {
      "channel": 1,
      "note": 57,
      "start": 21.9637,
      "duration": 0.2466,
      "velocity": 127,
      "chip": "ym2612"
    },
    {
      "channel": 2,
      "note": 71,
      "start": 21.9649,
      "duration": 0.2195,
      "velocity": 95,
      "chip": "ym2612"
    },
    {
      "channel": 3,
      "note": 64,
      "start": 21.9663,
      "duration": 0.2466,
      "velocity": 121,
      "chip": "ym2612"
    },
    {
      "channel": 4,
      "note": 59,
      "start": 21.9669,
      "duration": 0.2466,
      "velocity": 121,
      "chip": "ym2612"
    },
    {
      "channel": 5,
      "note": 64,
      "start": 22.0262,
      "duration": 0.2462,
      "velocity": 121,
      "chip": "ym2612"
    },
    {
      "channel": 0,
      "note": 40,
      "start": 22.2087,
      "duration": 0.2342,
      "velocity": 104,
      "chip": "ym2612"
    },
    {
      "channel": 1,
      "note": 68,
      "start": 22.2104,
      "duration": 0.2469,
      "velocity": 123,
      "chip": "ym2612"
    },
    {
      "channel": 2,
      "note": 71,
      "start": 22.2116,
      "duration": 0.2196,
      "velocity": 95,
      "chip": "ym2612"
    },
    {
      "channel": 3,
      "note": 64,
      "start": 22.2131,
      "duration": 0.247,
      "velocity": 121,
      "chip": "ym2612"
    },
    {
      "channel": 4,
      "note": 59,
      "start": 22.2137,
      "duration": 0.247,
      "velocity": 121,
      "chip": "ym2612"
    },
    {
      "channel": 5,
      "note": 64,
      "start": 22.2726,
      "duration": 0.2466,
      "velocity": 121,
      "chip": "ym2612"
    },
    {
      "channel": 0,
      "note": 40,
      "start": 22.4554,
      "duration": 0.2342,
      "velocity": 104,
      "chip": "ym2612"
    },
    {
      "channel": 1,
      "note": 57,
      "start": 22.4576,
      "duration": 0.2463,
      "velocity": 127,
      "chip": "ym2612"
    },
    {
      "channel": 2,
      "note": 71,
      "start": 22.4588,
      "duration": 0.2192,
      "velocity": 95,
      "chip": "ym2612"
    },
    {
      "channel": 3,
      "note": 64,
      "start": 22.4603,
      "duration": 0.2463,
      "velocity": 121,
      "chip": "ym2612"
    },
    {
      "channel": 4,
      "note": 59,
      "start": 22.4608,
      "duration": 0.2465,
      "velocity": 121,
      "chip": "ym2612"
    },
    {
      "channel": 5,
      "note": 64,
      "start": 22.5194,
      "duration": 0.2466,
      "velocity": 121,
      "chip": "ym2612"
    },
    {
      "channel": 0,
      "note": 40,
      "start": 22.7023,
      "duration": 0.2342,
      "velocity": 104,
      "chip": "ym2612"
    },
    {
      "channel": 1,
      "note": 64,
      "start": 22.704,
      "duration": 0.2466,
      "velocity": 123,
      "chip": "ym2612"
    },
    {
      "channel": 2,
      "note": 71,
      "start": 22.7052,
      "duration": 0.2197,
      "velocity": 95,
      "chip": "ym2612"
    },
    {
      "channel": 3,
      "note": 64,
      "start": 22.7067,
      "duration": 0.2466,
      "velocity": 121,
      "chip": "ym2612"
    },
    {
      "channel": 4,
      "note": 59,
      "start": 22.7077,
      "duration": 0.2462,
      "velocity": 121,
      "chip": "ym2612"
    },
    {
      "channel": 5,
      "note": 64,
      "start": 22.7662,
      "duration": 0.2466,
      "velocity": 121,
      "chip": "ym2612"
    },
    {
      "channel": 0,
      "note": 40,
      "start": 22.949,
      "duration": 0.2342,
      "velocity": 104,
      "chip": "ym2612"
    },
    {
      "channel": 1,
      "note": 57,
      "start": 22.9508,
      "duration": 0.2466,
      "velocity": 127,
      "chip": "ym2612"
    },
    {
      "channel": 2,
      "note": 71,
      "start": 22.952,
      "duration": 0.2196,
      "velocity": 95,
      "chip": "ym2612"
    },
    {
      "channel": 3,
      "note": 64,
      "start": 22.9535,
      "duration": 0.2466,
      "velocity": 121,
      "chip": "ym2612"
    },
    {
      "channel": 4,
      "note": 59,
      "start": 22.954,
      "duration": 0.2466,
      "velocity": 121,
      "chip": "ym2612"
    },
    {
      "channel": 5,
      "note": 64,
      "start": 23.013,
      "duration": 0.2468,
      "velocity": 121,
      "chip": "ym2612"
    },
    {
      "channel": 0,
      "note": 40,
      "start": 23.1958,
      "duration": 0.2343,
      "velocity": 104,
      "chip": "ym2612"
    },
    {
      "channel": 1,
      "note": 68,
      "start": 23.1976,
      "duration": 0.2466,
      "velocity": 123,
      "chip": "ym2612"
    },
    {
      "channel": 2,
      "note": 71,
      "start": 23.1988,
      "duration": 0.2195,
      "velocity": 95,
      "chip": "ym2612"
    },
    {
      "channel": 3,
      "note": 64,
      "start": 23.2002,
      "duration": 0.2466,
      "velocity": 121,
      "chip": "ym2612"
    },
    {
      "channel": 4,
      "note": 59,
      "start": 23.2008,
      "duration": 0.2466,
      "velocity": 121,
      "chip": "ym2612"
    },
    {
      "channel": 5,
      "note": 64,
      "start": 23.26,
      "duration": 0.2464,
      "velocity": 121,
      "chip": "ym2612"
    },
    {
      "channel": 0,
      "note": 40,
      "start": 23.4426,
      "duration": 0.2342,
      "velocity": 104,
      "chip": "ym2612"
    },
    {
      "channel": 1,
      "note": 57,
      "start": 23.4443,
      "duration": 0.2471,
      "velocity": 115,
      "chip": "ym2612"
    },
    {
      "channel": 2,
      "note": 71,
      "start": 23.4455,
      "duration": 0.2196,
      "velocity": 95,
      "chip": "ym2612"
    },
    {
      "channel": 3,
      "note": 64,
      "start": 23.4471,
      "duration": 0.2473,
      "velocity": 121,
      "chip": "ym2612"
    },
    {
      "channel": 4,
      "note": 59,
      "start": 23.4476,
      "duration": 0.2473,
      "velocity": 121,
      "chip": "ym2612"
    },
    {
      "channel": 5,
      "note": 64,
      "start": 23.5066,
      "duration": 0.2464,
      "velocity": 121,
      "chip": "ym2612"
    },
    {
      "channel": 0,
      "note": 45,
      "start": 23.6894,
      "duration": 0.2345,
      "velocity": 104,
      "chip": "ym2612"
    },
    {
      "channel": 1,
      "note": 57,
      "start": 23.6916,
      "duration": 0.4929,
      "velocity": 127,
      "chip": "ym2612"
    },
    {
      "channel": 2,
      "note": 76,
      "start": 23.693,
      "duration": 0.2188,
      "velocity": 95,
      "chip": "ym2612"
    },
    {
      "channel": 3,
      "note": 69,
      "start": 23.6945,
      "duration": 0.2447,
      "velocity": 121,
      "chip": "ym2612"
    },
    {
      "channel": 4,
      "note": 64,
      "start": 23.6951,
      "duration": 0.2447,
      "velocity": 121,
      "chip": "ym2612"
    },
    {
      "channel": 5,
      "note": 69,
      "start": 23.7532,
      "duration": 0.2466,
      "velocity": 121,
      "chip": "ym2612"
    },
    {
      "channel": 0,
      "note": 45,
      "start": 23.9362,
      "duration": 0.2342,
      "velocity": 104,
      "chip": "ym2612"
    },
    {
      "channel": 2,
      "note": 76,
      "start": 23.9379,
      "duration": 0.2206,
      "velocity": 95,
      "chip": "ym2612"
    },
    {
      "channel": 3,
      "note": 69,
      "start": 23.9394,
      "duration": 0.248,
      "velocity": 121,
      "chip": "ym2612"
    },
    {
      "channel": 4,
      "note": 64,
      "start": 23.94,
      "duration": 0.248,
      "velocity": 121,
      "chip": "ym2612"
    },
    {
      "channel": 5,
      "note": 69,
      "start": 24.0,
      "duration": 0.2467,
      "velocity": 121,
      "chip": "ym2612"
    },
    {
      "channel": 0,
      "note": 45,
      "start": 24.1829,
      "duration": 0.2343,
      "velocity": 104,
      "chip": "ym2612"
    },
    {
      "channel": 1,
      "note": 68,
      "start": 24.1848,
      "duration": 0.2465,
      "velocity": 123,
      "chip": "ym2612"
    },
    {
      "channel": 2,
      "note": 76,
      "start": 24.1861,
      "duration": 0.2193,
      "velocity": 95,
      "chip": "ym2612"
    },
    {
      "channel": 3,
      "note": 69,
      "start": 24.1876,
      "duration": 0.2466,
      "velocity": 121,
      "chip": "ym2612"
    },
    {
      "channel": 4,
      "note": 64,
      "start": 24.1881,
      "duration": 0.2465,
      "velocity": 121,
      "chip": "ym2612"
    },
    {
      "channel": 5,
      "note": 69,
      "start": 24.2469,
      "duration": 0.2466,
      "velocity": 121,
      "chip": "ym2612"
    },
    {
      "channel": 0,
      "note": 45,
      "start": 24.4297,
      "duration": 0.2342,
      "velocity": 104,
      "chip": "ym2612"
    },
    {
      "channel": 1,
      "note": 57,
      "start": 24.4315,
      "duration": 0.2466,
      "velocity": 127,
      "chip": "ym2612"
    },
    {
      "channel": 2,
      "note": 76,
      "start": 24.4328,
      "duration": 0.2195,
      "velocity": 95,
      "chip": "ym2612"
    },
    {
      "channel": 3,
      "note": 69,
      "start": 24.4343,
      "duration": 0.2466,
      "velocity": 121,
      "chip": "ym2612"
    },
    {
      "channel": 4,
      "note": 64,
      "start": 24.4348,
      "duration": 0.2466,
      "velocity": 121,
      "chip": "ym2612"
    },
    {
      "channel": 5,
      "note": 69,
      "start": 24.4937,
      "duration": 0.2469,
      "velocity": 121,
      "chip": "ym2612"
    },
    {
      "channel": 0,
      "note": 45,
      "start": 24.6765,
      "duration": 0.2342,
      "velocity": 104,
      "chip": "ym2612"
    },
    {
      "channel": 1,
      "note": 64,
      "start": 24.6783,
      "duration": 0.247,
      "velocity": 123,
      "chip": "ym2612"
    },
    {
      "channel": 2,
      "note": 76,
      "start": 24.6796,
      "duration": 0.2194,
      "velocity": 95,
      "chip": "ym2612"
    },
    {
      "channel": 3,
      "note": 69,
      "start": 24.6811,
      "duration": 0.247,
      "velocity": 121,
      "chip": "ym2612"
    },
    {
      "channel": 4,
      "note": 64,
      "start": 24.6817,
      "duration": 0.2469,
      "velocity": 121,
      "chip": "ym2612"
    },
    {
      "channel": 5,
      "note": 69,
      "start": 24.7408,
      "duration": 0.2463,
      "velocity": 121,
      "chip": "ym2612"
    },
    {
      "channel": 0,
      "note": 43,
      "start": 24.9234,
      "duration": 0.4809,
      "velocity": 104,
      "chip": "ym2612"
    },
    {
      "channel": 1,
      "note": 57,
      "start": 24.9255,
      "duration": 0.2461,
      "velocity": 127,
      "chip": "ym2612"
    },
    {
      "channel": 2,
      "note": 74,
      "start": 24.9267,
      "duration": 0.2191,
      "velocity": 95,
      "chip": "ym2612"
    },
    {
      "channel": 3,
      "note": 67,
      "start": 24.9282,
      "duration": 0.2463,
      "velocity": 121,
      "chip": "ym2612"
    },
    {
      "channel": 4,
      "note": 62,
      "start": 24.9288,
      "duration": 0.2463,
      "velocity": 121,
      "chip": "ym2612"
    },
    {
      "channel": 5,
      "note": 67,
      "start": 24.9873,
      "duration": 0.2466,
      "velocity": 121,
      "chip": "ym2612"
    },
    {
      "channel": 1,
      "note": 68,
      "start": 25.1717,
      "duration": 0.2467,
      "velocity": 123,
      "chip": "ym2612"
    },
    {
      "channel": 2,
      "note": 74,
      "start": 25.1729,
      "duration": 0.2197,
      "velocity": 95,
      "chip": "ym2612"
    },
    {
      "channel": 3,
      "note": 67,
      "start": 25.1747,
      "duration": 0.2463,
      "velocity": 121,
      "chip": "ym2612"
    },
    {
      "channel": 4,
      "note": 62,
      "start": 25.1753,
      "duration": 0.2463,
      "velocity": 121,
      "chip": "ym2612"
    },
    {
      "channel": 5,
      "note": 67,
      "start": 25.2341,
      "duration": 0.2466,
      "velocity": 121,
      "chip": "ym2612"
    },
    {
      "channel": 0,
      "note": 40,
      "start": 25.4168,
      "duration": 0.2343,
      "velocity": 104,
      "chip": "ym2612"
    },
    {
      "channel": 1,
      "note": 57,
      "start": 25.4186,
      "duration": 0.2466,
      "velocity": 127,
      "chip": "ym2612"
    },
    {
      "channel": 2,
      "note": 71,
      "start": 25.4198,
      "duration": 0.4664,
      "velocity": 95,
      "chip": "ym2612"
    },
    {
      "channel": 3,
      "note": 64,
      "start": 25.4212,
      "duration": 0.4934,
      "velocity": 121,
      "chip": "ym2612"
    },
    {
      "channel": 4,
      "note": 59,
      "start": 25.4218,
      "duration": 0.4934,
      "velocity": 121,
      "chip": "ym2612"
    },
    {
      "channel": 5,
      "note": 64,
      "start": 25.4808,
      "duration": 0.4937,
      "velocity": 121,
      "chip": "ym2612"
    },
    {
      "channel": 0,
      "note": 40,
      "start": 25.6637,
      "duration": 0.2342,
      "velocity": 104,
      "chip": "ym2612"
    },
    {
      "channel": 1,
      "note": 64,
      "start": 25.6654,
      "duration": 0.2466,
      "velocity": 123,
      "chip": "ym2612"
    },
    {
      "channel": 0,
      "note": 40,
      "start": 25.9104,
      "duration": 0.2342,
      "velocity": 104,
      "chip": "ym2612"
    },
    {
      "channel": 1,
      "note": 57,
      "start": 25.9122,
      "duration": 0.247,
      "velocity": 127,
      "chip": "ym2612"
    },
    {
      "channel": 2,
      "note": 71,
      "start": 25.9134,
      "duration": 0.2195,
      "velocity": 95,
      "chip": "ym2612"
    },
    {
      "channel": 3,
      "note": 64,
      "start": 25.9149,
      "duration": 0.2469,
      "velocity": 121,
      "chip": "ym2612"
    },
    {
      "channel": 4,
      "note": 59,
      "start": 25.9154,
      "duration": 0.247,
      "velocity": 121,
      "chip": "ym2612"
    },
    {
      "channel": 5,
      "note": 64,
      "start": 25.9747,
      "duration": 0.2462,
      "velocity": 121,
      "chip": "ym2612"
    },
    {
      "channel": 0,
      "note": 40,
      "start": 26.1576,
      "duration": 0.2339,
      "velocity": 104,
      "chip": "ym2612"
    },
    {
      "channel": 1,
      "note": 68,
      "start": 26.1593,
      "duration": 0.2462,
      "velocity": 123,
      "chip": "ym2612"
    },
    {
      "channel": 2,
      "note": 71,
      "start": 26.1605,
      "duration": 0.2192,
      "velocity": 95,
      "chip": "ym2612"
    },
    {
      "channel": 3,
      "note": 64,
      "start": 26.162,
      "duration": 0.2466,
      "velocity": 121,
      "chip": "ym2612"
    },
    {
      "channel": 4,
      "note": 59,
      "start": 26.1626,
      "duration": 0.2466,
      "velocity": 121,
      "chip": "ym2612"
    },
    {
      "channel": 5,
      "note": 64,
      "start": 26.2212,
      "duration": 0.2466,
      "velocity": 121,
      "chip": "ym2612"
    },
    {
      "channel": 0,
      "note": 40,
      "start": 26.404,
      "duration": 0.2342,
      "velocity": 104,
      "chip": "ym2612"
    },
    {
      "channel": 1,
      "note": 57,
      "start": 26.4057,
      "duration": 0.2466,
      "velocity": 127,
      "chip": "ym2612"
    },
    {
      "channel": 2,
      "note": 71,
      "start": 26.4072,
      "duration": 0.2193,
      "velocity": 95,
      "chip": "ym2612"
    },
    {
      "channel": 3,
      "note": 64,
      "start": 26.4088,
      "duration": 0.2462,
      "velocity": 121,
      "chip": "ym2612"
    },
    {
      "channel": 4,
      "note": 59,
      "start": 26.4093,
      "duration": 0.2462,
      "velocity": 121,
      "chip": "ym2612"
    },
    {
      "channel": 5,
      "note": 64,
      "start": 26.468,
      "duration": 0.2466,
      "velocity": 121,
      "chip": "ym2612"
    },
    {
      "channel": 0,
      "note": 40,
      "start": 26.6508,
      "duration": 0.2342,
      "velocity": 104,
      "chip": "ym2612"
    },
    {
      "channel": 1,
      "note": 64,
      "start": 26.6525,
      "duration": 0.2466,
      "velocity": 123,
      "chip": "ym2612"
    },
    {
      "channel": 2,
      "note": 71,
      "start": 26.6537,
      "duration": 0.2195,
      "velocity": 95,
      "chip": "ym2612"
    },
    {
      "channel": 3,
      "note": 64,
      "start": 26.6552,
      "duration": 0.2467,
      "velocity": 121,
      "chip": "ym2612"
    },
    {
      "channel": 4,
      "note": 59,
      "start": 26.6558,
      "duration": 0.2467,
      "velocity": 121,
      "chip": "ym2612"
    },
    {
      "channel": 5,
      "note": 64,
      "start": 26.7147,
      "duration": 0.2466,
      "velocity": 121,
      "chip": "ym2612"
    },
    {
      "channel": 0,
      "note": 43,
      "start": 26.8976,
      "duration": 0.2342,
      "velocity": 104,
      "chip": "ym2612"
    },
    {
      "channel": 1,
      "note": 57,
      "start": 26.8993,
      "duration": 0.2466,
      "velocity": 127,
      "chip": "ym2612"
    },
    {
      "channel": 2,
      "note": 74,
      "start": 26.9006,
      "duration": 0.2195,
      "velocity": 95,
      "chip": "ym2612"
    },
    {
      "channel": 3,
      "note": 67,
      "start": 26.9021,
      "duration": 0.2465,
      "velocity": 121,
      "chip": "ym2612"
    },
    {
      "channel": 4,
      "note": 62,
      "start": 26.9026,
      "duration": 0.2465,
      "velocity": 121,
      "chip": "ym2612"
    },
    {
      "channel": 5,
      "note": 67,
      "start": 26.9615,
      "duration": 0.247,
      "velocity": 121,
      "chip": "ym2612"
    },
    {
      "channel": 0,
      "note": 43,
      "start": 27.1443,
      "duration": 0.2342,
      "velocity": 104,
      "chip": "ym2612"
    },
    {
      "channel": 1,
      "note": 68,
      "start": 27.1461,
      "duration": 0.2466,
      "velocity": 123,
      "chip": "ym2612"
    },
    {
      "channel": 2,
      "note": 74,
      "start": 27.1473,
      "duration": 0.2195,
      "velocity": 95,
      "chip": "ym2612"
    },
    {
      "channel": 3,
      "note": 67,
      "start": 27.1488,
      "duration": 0.2466,
      "velocity": 121,
      "chip": "ym2612"
    },
    {
      "channel": 4,
      "note": 62,
      "start": 27.1493,
      "duration": 0.2466,
      "velocity": 121,
      "chip": "ym2612"
    },
    {
      "channel": 5,
      "note": 67,
      "start": 27.2087,
      "duration": 0.2462,
      "velocity": 121,
      "chip": "ym2612"
    },
    {
      "channel": 0,
      "note": 43,
      "start": 27.3912,
      "duration": 0.2342,
      "velocity": 104,
      "chip": "ym2612"
    },
    {
      "channel": 1,
      "note": 57,
      "start": 27.3929,
      "duration": 0.2466,
      "velocity": 127,
      "chip": "ym2612"
    },
    {
      "channel": 2,
      "note": 74,
      "start": 27.3941,
      "duration": 0.2195,
      "velocity": 95,
      "chip": "ym2612"
    },
    {
      "channel": 3,
      "note": 67,
      "start": 27.3956,
      "duration": 0.2473,
      "velocity": 121,
      "chip": "ym2612"
    },
    {
      "channel": 4,
      "note": 62,
      "start": 27.3961,
      "duration": 0.2473,
      "velocity": 121,
      "chip": "ym2612"
    },
    {
      "channel": 5,
      "note": 67,
      "start": 27.4551,
      "duration": 0.2467,
      "velocity": 121,
      "chip": "ym2612"
    },
    {
      "channel": 0,
      "note": 45,
      "start": 27.6379,
      "duration": 0.2342,
      "velocity": 104,
      "chip": "ym2612"
    },
    {
      "channel": 1,
      "note": 64,
      "start": 27.6397,
      "duration": 0.2465,
      "velocity": 123,
      "chip": "ym2612"
    },
    {
      "channel": 2,
      "note": 76,
      "start": 27.6415,
      "duration": 0.2189,
      "velocity": 95,
      "chip": "ym2612"
    },
    {
      "channel": 3,
      "note": 69,
      "start": 27.643,
      "duration": 0.246,
      "velocity": 121,
      "chip": "ym2612"
    },
    {
      "channel": 4,
      "note": 64,
      "start": 27.6436,
      "duration": 0.246,
      "velocity": 121,
      "chip": "ym2612"
    },
    {
      "channel": 5,
      "note": 69,
      "start": 27.702,
      "duration": 0.2465,
      "velocity": 121,
      "chip": "ym2612"
    },
    {
      "channel": 0,
      "note": 45,
      "start": 27.8847,
      "duration": 0.2342,
      "velocity": 104,
      "chip": "ym2612"
    },
    {
      "channel": 1,
      "note": 57,
      "start": 27.8864,
      "duration": 0.2466,
      "velocity": 127,
      "chip": "ym2612"
    },
    {
      "channel": 2,
      "note": 76,
      "start": 27.8878,
      "duration": 0.2198,
      "velocity": 95,
      "chip": "ym2612"
    },
    {
      "channel": 3,
      "note": 69,
      "start": 27.8892,
      "duration": 0.2466,
      "velocity": 121,
      "chip": "ym2612"
    },
    {
      "channel": 4,
      "note": 64,
      "start": 27.8898,
      "duration": 0.2466,
      "velocity": 121,
      "chip": "ym2612"
    },
    {
      "channel": 5,
      "note": 69,
      "start": 27.9486,
      "duration": 0.2466,
      "velocity": 121,
      "chip": "ym2612"
    },
    {
      "channel": 0,
      "note": 45,
      "start": 28.1315,
      "duration": 0.2342,
      "velocity": 104,
      "chip": "ym2612"
    },
    {
      "channel": 1,
      "note": 68,
      "start": 28.1332,
      "duration": 0.2466,
      "velocity": 123,
      "chip": "ym2612"
    },
    {
      "channel": 2,
      "note": 76,
      "start": 28.1345,
      "duration": 0.2195,
      "velocity": 95,
      "chip": "ym2612"
    },
    {
      "channel": 3,
      "note": 69,
      "start": 28.136,
      "duration": 0.2466,
      "velocity": 121,
      "chip": "ym2612"
    },
    {
      "channel": 4,
      "note": 64,
      "start": 28.1366,
      "duration": 0.2466,
      "velocity": 121,
      "chip": "ym2612"
    },
    {
      "channel": 5,
      "note": 69,
      "start": 28.1954,
      "duration": 0.247,
      "velocity": 121,
      "chip": "ym2612"
    },
    {
      "channel": 0,
      "note": 45,
      "start": 28.3782,
      "duration": 0.2343,
      "velocity": 104,
      "chip": "ym2612"
    },
    {
      "channel": 1,
      "note": 57,
      "start": 28.38,
      "duration": 0.2466,
      "velocity": 127,
      "chip": "ym2612"
    },
    {
      "channel": 2,
      "note": 76,
      "start": 28.3813,
      "duration": 0.2195,
      "velocity": 95,
      "chip": "ym2612"
    },
    {
      "channel": 3,
      "note": 69,
      "start": 28.3828,
      "duration": 0.2466,
      "velocity": 121,
      "chip": "ym2612"
    },
    {
      "channel": 4,
      "note": 64,
      "start": 28.3834,
      "duration": 0.2466,
      "velocity": 121,
      "chip": "ym2612"
    },
    {
      "channel": 5,
      "note": 69,
      "start": 28.4426,
      "duration": 0.2462,
      "velocity": 121,
      "chip": "ym2612"
    },
    {
      "channel": 0,
      "note": 45,
      "start": 28.625,
      "duration": 0.2342,
      "velocity": 104,
      "chip": "ym2612"
    },
    {
      "channel": 1,
      "note": 64,
      "start": 28.6268,
      "duration": 0.2465,
      "velocity": 123,
      "chip": "ym2612"
    },
    {
      "channel": 2,
      "note": 76,
      "start": 28.6281,
      "duration": 0.2195,
      "velocity": 95,
      "chip": "ym2612"
    },
    {
      "channel": 3,
      "note": 69,
      "start": 28.6296,
      "duration": 0.2469,
      "velocity": 121,
      "chip": "ym2612"
    },
    {
      "channel": 4,
      "note": 64,
      "start": 28.6302,
      "duration": 0.2469,
      "velocity": 121,
      "chip": "ym2612"
    },
    {
      "channel": 5,
      "note": 69,
      "start": 28.689,
      "duration": 0.2466,
      "velocity": 121,
      "chip": "ym2612"
    },
    {
      "channel": 0,
      "note": 48,
      "start": 28.8718,
      "duration": 0.481,
      "velocity": 104,
      "chip": "ym2612"
    },
    {
      "channel": 1,
      "note": 57,
      "start": 28.8735,
      "duration": 0.2466,
      "velocity": 127,
      "chip": "ym2612"
    },
    {
      "channel": 2,
      "note": 79,
      "start": 28.8752,
      "duration": 0.4663,
      "velocity": 95,
      "chip": "ym2612"
    },
    {
      "channel": 3,
      "note": 72,
      "start": 28.8767,
      "duration": 0.4929,
      "velocity": 121,
      "chip": "ym2612"
    },
    {
      "channel": 4,
      "note": 67,
      "start": 28.8773,
      "duration": 0.4929,
      "velocity": 121,
      "chip": "ym2612"
    },
    {
      "channel": 5,
      "note": 72,
      "start": 28.9358,
      "duration": 0.4933,
      "velocity": 121,
      "chip": "ym2612"
    },
    {
      "channel": 1,
      "note": 68,
      "start": 29.1202,
      "duration": 0.2466,
      "velocity": 123,
      "chip": "ym2612"
    },
    {
      "channel": 0,
      "note": 47,
      "start": 29.3654,
      "duration": 0.481,
      "velocity": 104,
      "chip": "ym2612"
    },
    {
      "channel": 1,
      "note": 57,
      "start": 29.3671,
      "duration": 0.2466,
      "velocity": 127,
      "chip": "ym2612"
    },
    {
      "channel": 2,
      "note": 78,
      "start": 29.3683,
      "duration": 0.4663,
      "velocity": 95,
      "chip": "ym2612"
    },
    {
      "channel": 3,
      "note": 71,
      "start": 29.3698,
      "duration": 0.4935,
      "velocity": 121,
      "chip": "ym2612"
    },
    {
      "channel": 4,
      "note": 66,
      "start": 29.3704,
      "duration": 0.4935,
      "velocity": 121,
      "chip": "ym2612"
    },
    {
      "channel": 5,
      "note": 71,
      "start": 29.4293,
      "duration": 0.4934,
      "velocity": 121,
      "chip": "ym2612"
    },
    {
      "channel": 1,
      "note": 64,
      "start": 29.6138,
      "duration": 0.2466,
      "velocity": 123,
      "chip": "ym2612"
    },
    {
      "channel": 0,
      "note": 47,
      "start": 29.8589,
      "duration": 0.2342,
      "velocity": 104,
      "chip": "ym2612"
    },
    {
      "channel": 1,
      "note": 57,
      "start": 29.8607,
      "duration": 0.247,
      "velocity": 127,
      "chip": "ym2612"
    },
    {
      "channel": 2,
      "note": 78,
      "start": 29.862,
      "duration": 0.2195,
      "velocity": 95,
      "chip": "ym2612"
    },
    {
      "channel": 3,
      "note": 71,
      "start": 29.8635,
      "duration": 0.2469,
      "velocity": 121,
      "chip": "ym2612"
    },
    {
      "channel": 4,
      "note": 66,
      "start": 29.8641,
      "duration": 0.247,
      "velocity": 121,
      "chip": "ym2612"
    },
    {
      "channel": 5,
      "note": 71,
      "start": 29.9229,
      "duration": 0.2466,
      "velocity": 121,
      "chip": "ym2612"
    },
    {
      "channel": 0,
      "note": 47,
      "start": 30.1058,
      "duration": 0.2342,
      "velocity": 104,
      "chip": "ym2612"
    },
    {
      "channel": 1,
      "note": 68,
      "start": 30.1078,
      "duration": 0.2462,
      "velocity": 123,
      "chip": "ym2612"
    },
    {
      "channel": 2,
      "note": 78,
      "start": 30.1092,
      "duration": 0.2191,
      "velocity": 95,
      "chip": "ym2612"
    },
    {
      "channel": 3,
      "note": 71,
      "start": 30.1107,
      "duration": 0.2462,
      "velocity": 121,
      "chip": "ym2612"
    },
    {
      "channel": 4,
      "note": 66,
      "start": 30.1112,
      "duration": 0.2466,
      "velocity": 121,
      "chip": "ym2612"
    },
    {
      "channel": 5,
      "note": 71,
      "start": 30.1697,
      "duration": 0.2466,
      "velocity": 121,
      "chip": "ym2612"
    },
    {
      "channel": 0,
      "note": 47,
      "start": 30.3525,
      "duration": 0.2342,
      "velocity": 104,
      "chip": "ym2612"
    },
    {
      "channel": 1,
      "note": 57,
      "start": 30.3542,
      "duration": 0.2466,
      "velocity": 127,
      "chip": "ym2612"
    },
    {
      "channel": 2,
      "note": 78,
      "start": 30.3556,
      "duration": 0.2195,
      "velocity": 95,
      "chip": "ym2612"
    },
    {
      "channel": 3,
      "note": 71,
      "start": 30.3573,
      "duration": 0.2463,
      "velocity": 121,
      "chip": "ym2612"
    },
    {
      "channel": 4,
      "note": 66,
      "start": 30.358,
      "duration": 0.2463,
      "velocity": 121,
      "chip": "ym2612"
    },
    {
      "channel": 5,
      "note": 71,
      "start": 30.4164,
      "duration": 0.2466,
      "velocity": 121,
      "chip": "ym2612"
    },
    {
      "channel": 0,
      "note": 47,
      "start": 30.5993,
      "duration": 0.2343,
      "velocity": 104,
      "chip": "ym2612"
    },
    {
      "channel": 1,
      "note": 64,
      "start": 30.601,
      "duration": 0.2466,
      "velocity": 123,
      "chip": "ym2612"
    },
    {
      "channel": 2,
      "note": 78,
      "start": 30.6024,
      "duration": 0.2194,
      "velocity": 95,
      "chip": "ym2612"
    },
    {
      "channel": 3,
      "note": 71,
      "start": 30.6039,
      "duration": 0.2466,
      "velocity": 121,
      "chip": "ym2612"
    },
    {
      "channel": 4,
      "note": 66,
      "start": 30.6044,
      "duration": 0.2466,
      "velocity": 121,
      "chip": "ym2612"
    },
    {
      "channel": 5,
      "note": 71,
      "start": 30.6633,
      "duration": 0.2466,
      "velocity": 121,
      "chip": "ym2612"
    },
    {
      "channel": 0,
      "note": 47,
      "start": 30.8461,
      "duration": 0.2342,
      "velocity": 104,
      "chip": "ym2612"
    },
    {
      "channel": 1,
      "note": 57,
      "start": 30.8478,
      "duration": 0.2466,
      "velocity": 127,
      "chip": "ym2612"
    },
    {
      "channel": 2,
      "note": 78,
      "start": 30.8491,
      "duration": 0.2195,
      "velocity": 95,
      "chip": "ym2612"
    },
    {
      "channel": 3,
      "note": 71,
      "start": 30.8507,
      "duration": 0.2466,
      "velocity": 121,
      "chip": "ym2612"
    },
    {
      "channel": 4,
      "note": 66,
      "start": 30.8512,
      "duration": 0.2466,
      "velocity": 121,
      "chip": "ym2612"
    },
    {
      "channel": 5,
      "note": 71,
      "start": 30.9101,
      "duration": 0.2465,
      "velocity": 121,
      "chip": "ym2612"
    },
    {
      "channel": 0,
      "note": 47,
      "start": 31.0928,
      "duration": 0.2342,
      "velocity": 104,
      "chip": "ym2612"
    },
    {
      "channel": 1,
      "note": 68,
      "start": 31.0946,
      "duration": 0.247,
      "velocity": 123,
      "chip": "ym2612"
    },
    {
      "channel": 2,
      "note": 78,
      "start": 31.0959,
      "duration": 0.2195,
      "velocity": 95,
      "chip": "ym2612"
    },
    {
      "channel": 3,
      "note": 71,
      "start": 31.0974,
      "duration": 0.247,
      "velocity": 121,
      "chip": "ym2612"
    },
    {
      "channel": 4,
      "note": 66,
      "start": 31.0979,
      "duration": 0.247,
      "velocity": 121,
      "chip": "ym2612"
    },
    {
      "channel": 5,
      "note": 71,
      "start": 31.1568,
      "duration": 0.2466,
      "velocity": 121,
      "chip": "ym2612"
    },
    {
      "channel": 0,
      "note": 47,
      "start": 31.3397,
      "duration": 0.2345,
      "velocity": 104,
      "chip": "ym2612"
    },
    {
      "channel": 1,
      "note": 57,
      "start": 31.3418,
      "duration": 0.2462,
      "velocity": 127,
      "chip": "ym2612"
    },
    {
      "channel": 2,
      "note": 78,
      "start": 31.3431,
      "duration": 0.2191,
      "velocity": 95,
      "chip": "ym2612"
    },
    {
      "channel": 3,
      "note": 71,
      "start": 31.3446,
      "duration": 0.2468,
      "velocity": 121,
      "chip": "ym2612"
    },
    {
      "channel": 4,
      "note": 66,
      "start": 31.3451,
      "duration": 0.2468,
      "velocity": 121,
      "chip": "ym2612"
    },
    {
      "channel": 5,
      "note": 71,
      "start": 31.4036,
      "duration": 0.2466,
      "velocity": 121,
      "chip": "ym2612"
    },
    {
      "channel": 0,
      "note": 47,
      "start": 31.5864,
      "duration": 0.2342,
      "velocity": 104,
      "chip": "ym2612"
    },
    {
      "channel": 1,
      "note": 64,
      "start": 31.5882,
      "duration": 0.2466,
      "velocity": 127,
      "chip": "ym2612"
    },
    {
      "channel": 2,
      "note": 78,
      "start": 31.5896,
      "duration": 0.2193,
      "velocity": 95,
      "chip": "ym2612"
    },
    {
      "channel": 3,
      "note": 71,
      "start": 31.5915,
      "duration": 0.2461,
      "velocity": 121,
      "chip": "ym2612"
    },
    {
      "channel": 4,
      "note": 66,
      "start": 31.5921,
      "duration": 0.2461,
      "velocity": 121,
      "chip": "ym2612"
    },
    {
      "channel": 5,
      "note": 71,
      "start": 31.6504,
      "duration": 0.2466,
      "velocity": 121,
      "chip": "ym2612"
    },
    {
      "channel": 0,
      "note": 47,
      "start": 31.8332,
      "duration": 0.2342,
      "velocity": 104,
      "chip": "ym2612"
    },
    {
      "channel": 1,
      "note": 68,
      "start": 31.8349,
      "duration": 0.2454,
      "velocity": 127,
      "chip": "ym2612"
    },
    {
      "channel": 2,
      "note": 78,
      "start": 31.8363,
      "duration": 0.2194,
      "velocity": 95,
      "chip": "ym2612"
    },
    {
      "channel": 3,
      "note": 71,
      "start": 31.8378,
      "duration": 0.2454,
      "velocity": 121,
      "chip": "ym2612"
    },
    {
      "channel": 4,
      "note": 59,
      "start": 31.8383,
      "duration": 0.2454,
      "velocity": 121,
      "chip": "ym2612"
    },
    {
      "channel": 5,
      "note": 71,
      "start": 31.8972,
      "duration": 0.2466,
      "velocity": 121,
      "chip": "ym2612"
    },
    {
      "channel": 0,
      "note": 50,
      "start": 32.08,
      "duration": 0.2342,
      "velocity": 104,
      "chip": "ym2612"
    },
    {
      "channel": 1,
      "note": 68,
      "start": 32.0806,
      "duration": 0.2466,
      "velocity": 127,
      "chip": "ym2612"
    },
    {
      "channel": 2,
      "note": 78,
      "start": 32.0819,
      "duration": 0.2206,
      "velocity": 95,
      "chip": "ym2612"
    },
    {
      "channel": 3,
      "note": 74,
      "start": 32.0834,
      "duration": 0.2466,
      "velocity": 121,
      "chip": "ym2612"
    },
    {
      "channel": 4,
      "note": 62,
      "start": 32.0839,
      "duration": 0.2466,
      "velocity": 121,
      "chip": "ym2612"
    },
    {
      "channel": 5,
      "note": 74,
      "start": 32.1439,
      "duration": 0.247,
      "velocity": 121,
      "chip": "ym2612"
    },
    {
      "channel": 0,
      "note": 47,
      "start": 32.3268,
      "duration": 0.2342,
      "velocity": 104,
      "chip": "ym2612"
    },
    {
      "channel": 1,
      "note": 68,
      "start": 32.3273,
      "duration": 0.2481,
      "velocity": 127,
      "chip": "ym2612"
    },
    {
      "channel": 2,
      "note": 78,
      "start": 32.3287,
      "duration": 0.2206,
      "velocity": 95,
      "chip": "ym2612"
    },
    {
      "channel": 3,
      "note": 71,
      "start": 32.3302,
      "duration": 0.2481,
      "velocity": 121,
      "chip": "ym2612"
    },
    {
      "channel": 4,
      "note": 59,
      "start": 32.3307,
      "duration": 0.2481,
      "velocity": 121,
      "chip": "ym2612"
    },
    {
      "channel": 5,
      "note": 71,
      "start": 32.3911,
      "duration": 0.2462,
      "velocity": 121,
      "chip": "ym2612"
    },
    {
      "channel": 0,
      "note": 50,
      "start": 32.5738,
      "duration": 0.234,
      "velocity": 104,
      "chip": "ym2612"
    },
    {
      "channel": 1,
      "note": 66,
      "start": 32.5757,
      "duration": 0.245,
      "velocity": 127,
      "chip": "ym2612"
    },
    {
      "channel": 2,
      "note": 78,
      "start": 32.577,
      "duration": 0.2191,
      "velocity": 95,
      "chip": "ym2612"
    },
    {
      "channel": 3,
      "note": 74,
      "start": 32.5785,
      "duration": 0.2451,
      "velocity": 121,
      "chip": "ym2612"
    },
    {
      "channel": 4,
      "note": 62,
      "start": 32.579,
      "duration": 0.2454,
      "velocity": 121,
      "chip": "ym2612"
    },
    {
      "channel": 5,
      "note": 74,
      "start": 32.6375,
      "duration": 0.2466,
      "velocity": 121,
      "chip": "ym2612"
    },
    {
      "channel": 0,
      "note": 47,
      "start": 32.8203,
      "duration": 0.2342,
      "velocity": 104,
      "chip": "ym2612"
    },
    {
      "channel": 1,
      "note": 63,
      "start": 32.8209,
      "duration": 0.2466,
      "velocity": 127,
      "chip": "ym2612"
    },
    {
      "channel": 2,
      "note": 78,
      "start": 32.8222,
      "duration": 0.2206,
      "velocity": 95,
      "chip": "ym2612"
    },
    {
      "channel": 3,
      "note": 71,
      "start": 32.824,
      "duration": 0.2463,
      "velocity": 121,
      "chip": "ym2612"
    },
    {
      "channel": 4,
      "note": 59,
      "start": 32.8246,
      "duration": 0.2463,
      "velocity": 121,
      "chip": "ym2612"
    },
    {
      "channel": 5,
      "note": 71,
      "start": 32.8843,
      "duration": 0.2466,
      "velocity": 121,
      "chip": "ym2612"
    },
    {
      "channel": 0,
      "note": 50,
      "start": 33.0671,
      "duration": 0.2342,
      "velocity": 104,
      "chip": "ym2612"
    },
    {
      "channel": 1,
      "note": 61,
      "start": 33.0677,
      "duration": 0.2466,
      "velocity": 127,
      "chip": "ym2612"
    },
    {
      "channel": 2,
      "note": 78,
      "start": 33.069,
      "duration": 0.2205,
      "velocity": 95,
      "chip": "ym2612"
    },
    {
      "channel": 3,
      "note": 74,
      "start": 33.0705,
      "duration": 0.2466,
      "velocity": 121,
      "chip": "ym2612"
    },
    {
      "channel": 4,
      "note": 62,
      "start": 33.0711,
      "duration": 0.2466,
      "velocity": 121,
      "chip": "ym2612"
    },
    {
      "channel": 5,
      "note": 74,
      "start": 33.1311,
      "duration": 0.2466,
      "velocity": 121,
      "chip": "ym2612"
    },
    {
      "channel": 0,
      "note": 54,
      "start": 33.3139,
      "duration": 0.2342,
      "velocity": 104,
      "chip": "ym2612"
    },
    {
      "channel": 1,
      "note": 57,
      "start": 33.3145,
      "duration": 0.2478,
      "velocity": 115,
      "chip": "ym2612"
    },
    {
      "channel": 2,
      "note": 78,
      "start": 33.3158,
      "duration": 0.2206,
      "velocity": 95,
      "chip": "ym2612"
    },
    {
      "channel": 3,
      "note": 78,
      "start": 33.3173,
      "duration": 0.249,
      "velocity": 121,
      "chip": "ym2612"
    },
    {
      "channel": 4,
      "note": 66,
      "start": 33.3178,
      "duration": 0.249,
      "velocity": 121,
      "chip": "ym2612"
    },
    {
      "channel": 5,
      "note": 78,
      "start": 33.3779,
      "duration": 0.2468,
      "velocity": 121,
      "chip": "ym2612"
    },
    {
      "channel": 0,
      "note": 40,
      "start": 33.5608,
      "duration": 0.2342,
      "velocity": 104,
      "chip": "ym2612"
    },
    {
      "channel": 1,
      "note": 57,
      "start": 33.5625,
      "duration": 0.4934,
      "velocity": 127,
      "chip": "ym2612"
    },
    {
      "channel": 2,
      "note": 67,
      "start": 33.5649,
      "duration": 0.465,
      "velocity": 111,
      "chip": "ym2612"
    },
    {
      "channel": 3,
      "note": 64,
      "start": 33.5664,
      "duration": 0.2433,
      "velocity": 121,
      "chip": "ym2612"
    },
    {
      "channel": 4,
      "note": 59,
      "start": 33.567,
      "duration": 0.2433,
      "velocity": 121,
      "chip": "ym2612"
    },
    {
      "channel": 5,
      "note": 64,
      "start": 33.6249,
      "duration": 0.2462,
      "velocity": 121,
      "chip": "ym2612"
    },
    {
      "channel": 0,
      "note": 40,
      "start": 33.8077,
      "duration": 0.234,
      "velocity": 104,
      "chip": "ym2612"
    },
    {
      "channel": 3,
      "note": 64,
      "start": 33.81,
      "duration": 0.249,
      "velocity": 121,
      "chip": "ym2612"
    },
    {
      "channel": 4,
      "note": 59,
      "start": 33.8105,
      "duration": 0.249,
      "velocity": 121,
      "chip": "ym2612"
    },
    {
      "channel": 5,
      "note": 64,
      "start": 33.8713,
      "duration": 0.2468,
      "velocity": 121,
      "chip": "ym2612"
    },
    {
      "channel": 0,
      "note": 38,
      "start": 34.0542,
      "duration": 0.2342,
      "velocity": 104,
      "chip": "ym2612"
    },
    {
      "channel": 1,
      "note": 68,
      "start": 34.0561,
      "duration": 0.2463,
      "velocity": 123,
      "chip": "ym2612"
    },
    {
      "channel": 2,
      "note": 66,
      "start": 34.0577,
      "duration": 0.7126,
      "velocity": 111,
      "chip": "ym2612"
    },
    {
      "channel": 3,
      "note": 62,
      "start": 34.0592,
      "duration": 0.245,
      "velocity": 121,
      "chip": "ym2612"
    },
    {
      "channel": 4,
      "note": 57,
      "start": 34.0598,
      "duration": 0.2448,
      "velocity": 121,
      "chip": "ym2612"
    },
    {
      "channel": 5,
      "note": 62,
      "start": 34.1182,
      "duration": 0.2466,
      "velocity": 121,
      "chip": "ym2612"
    },
    {
      "channel": 1,
      "note": 57,
      "start": 34.3026,
      "duration": 0.2466,
      "velocity": 127,
      "chip": "ym2612"
    },
    {
      "channel": 1,
      "note": 64,
      "start": 34.5494,
      "duration": 0.2468,
      "velocity": 123,
      "chip": "ym2612"
    },
    {
      "channel": 0,
      "note": 45,
      "start": 34.7946,
      "duration": 0.2342,
      "velocity": 104,
      "chip": "ym2612"
    },
    {
      "channel": 1,
      "note": 57,
      "start": 34.7964,
      "duration": 0.2464,
      "velocity": 127,
      "chip": "ym2612"
    },
    {
      "channel": 2,
      "note": 73,
      "start": 34.7977,
      "duration": 0.4662,
      "velocity": 111,
      "chip": "ym2612"
    },
    {
      "channel": 3,
      "note": 69,
      "start": 34.7993,
      "duration": 0.2453,
      "velocity": 121,
      "chip": "ym2612"
    },
    {
      "channel": 4,
      "note": 64,
      "start": 34.7998,
      "duration": 0.2451,
      "velocity": 121,
      "chip": "ym2612"
    },
    {
      "channel": 5,
      "note": 69,
      "start": 34.859,
      "duration": 0.2461,
      "velocity": 121,
      "chip": "ym2612"
    },
    {
      "channel": 1,
      "note": 68,
      "start": 35.043,
      "duration": 0.2468,
      "velocity": 123,
      "chip": "ym2612"
    },
    {
      "channel": 0,
      "note": 43,
      "start": 35.2882,
      "duration": 0.481,
      "velocity": 104,
      "chip": "ym2612"
    },
    {
      "channel": 1,
      "note": 57,
      "start": 35.2899,
      "duration": 0.2465,
      "velocity": 127,
      "chip": "ym2612"
    },
    {
      "channel": 2,
      "note": 71,
      "start": 35.2915,
      "duration": 1.2063,
      "velocity": 111,
      "chip": "ym2612"
    },
    {
      "channel": 3,
      "note": 67,
      "start": 35.293,
      "duration": 0.4921,
      "velocity": 121,
      "chip": "ym2612"
    },
    {
      "channel": 4,
      "note": 62,
      "start": 35.2935,
      "duration": 0.4921,
      "velocity": 121,
      "chip": "ym2612"
    },
    {
      "channel": 5,
      "note": 67,
      "start": 35.3521,
      "duration": 0.4934,
      "velocity": 121,
      "chip": "ym2612"
    },
    {
      "channel": 1,
      "note": 64,
      "start": 35.5366,
      "duration": 0.2467,
      "velocity": 123,
      "chip": "ym2612"
    },
    {
      "channel": 0,
      "note": 43,
      "start": 35.7817,
      "duration": 0.2342,
      "velocity": 104,
      "chip": "ym2612"
    },
    {
      "channel": 1,
      "note": 57,
      "start": 35.7835,
      "duration": 0.2466,
      "velocity": 127,
      "chip": "ym2612"
    },
    {
      "channel": 3,
      "note": 67,
      "start": 35.7853,
      "duration": 0.2466,
      "velocity": 121,
      "chip": "ym2612"
    },
    {
      "channel": 4,
      "note": 62,
      "start": 35.7859,
      "duration": 0.2466,
      "velocity": 121,
      "chip": "ym2612"
    },
    {
      "channel": 5,
      "note": 67,
      "start": 35.8457,
      "duration": 0.2469,
      "velocity": 121,
      "chip": "ym2612"
    },
    {
      "channel": 0,
      "note": 43,
      "start": 36.0285,
      "duration": 0.2342,
      "velocity": 104,
      "chip": "ym2612"
    },
    {
      "channel": 1,
      "note": 68,
      "start": 36.0302,
      "duration": 0.2466,
      "velocity": 123,
      "chip": "ym2612"
    },
    {
      "channel": 3,
      "note": 67,
      "start": 36.032,
      "duration": 0.2466,
      "velocity": 121,
      "chip": "ym2612"
    },
    {
      "channel": 4,
      "note": 62,
      "start": 36.0326,
      "duration": 0.2466,
      "velocity": 121,
      "chip": "ym2612"
    },
    {
      "channel": 5,
      "note": 67,
      "start": 36.0928,
      "duration": 0.2462,
      "velocity": 121,
      "chip": "ym2612"
    },
    {
      "channel": 0,
      "note": 43,
      "start": 36.2753,
      "duration": 0.2342,
      "velocity": 104,
      "chip": "ym2612"
    },
    {
      "channel": 1,
      "note": 57,
      "start": 36.277,
      "duration": 0.247,
      "velocity": 127,
      "chip": "ym2612"
    },
    {
      "channel": 3,
      "note": 67,
      "start": 36.2788,
      "duration": 0.2481,
      "velocity": 121,
      "chip": "ym2612"
    },
    {
      "channel": 4,
      "note": 62,
      "start": 36.2794,
      "duration": 0.2481,
      "velocity": 121,
      "chip": "ym2612"
    },
    {
      "channel": 5,
      "note": 67,
      "start": 36.3392,
      "duration": 0.2467,
      "velocity": 121,
      "chip": "ym2612"
    },
    {
      "channel": 0,
      "note": 45,
      "start": 36.5222,
      "duration": 0.2341,
      "velocity": 104,
      "chip": "ym2612"
    },
    {
      "channel": 1,
      "note": 64,
      "start": 36.5243,
      "duration": 0.2462,
      "velocity": 123,
      "chip": "ym2612"
    },
    {
      "channel": 2,
      "note": 73,
      "start": 36.5255,
      "duration": 0.2191,
      "velocity": 111,
      "chip": "ym2612"
    },
    {
      "channel": 3,
      "note": 69,
      "start": 36.5271,
      "duration": 0.2461,
      "velocity": 121,
      "chip": "ym2612"
    },
    {
      "channel": 4,
      "note": 64,
      "start": 36.5276,
      "duration": 0.2464,
      "velocity": 121,
      "chip": "ym2612"
    },
    {
      "channel": 5,
      "note": 69,
      "start": 36.5861,
      "duration": 0.2466,
      "velocity": 121,
      "chip": "ym2612"
    },
    {
      "channel": 0,
      "note": 38,
      "start": 36.7689,
      "duration": 0.2341,
      "velocity": 104,
      "chip": "ym2612"
    },
    {
      "channel": 1,
      "note": 57,
      "start": 36.7706,
      "duration": 0.2466,
      "velocity": 127,
      "chip": "ym2612"
    },
    {
      "channel": 2,
      "note": 66,
      "start": 36.7719,
      "duration": 0.4663,
      "velocity": 111,
      "chip": "ym2612"
    },
    {
      "channel": 3,
      "note": 62,
      "start": 36.7734,
      "duration": 0.2456,
      "velocity": 121,
      "chip": "ym2612"
    },
    {
      "channel": 4,
      "note": 57,
      "start": 36.7743,
      "duration": 0.2452,
      "velocity": 121,
      "chip": "ym2612"
    },
    {
      "channel": 5,
      "note": 62,
      "start": 36.8329,
      "duration": 0.2466,
      "velocity": 121,
      "chip": "ym2612"
    },
    {
      "channel": 0,
      "note": 38,
      "start": 37.0156,
      "duration": 0.2343,
      "velocity": 104,
      "chip": "ym2612"
    },
    {
      "channel": 1,
      "note": 68,
      "start": 37.0174,
      "duration": 0.2466,
      "velocity": 123,
      "chip": "ym2612"
    },
    {
      "channel": 3,
      "note": 62,
      "start": 37.0192,
      "duration": 0.2475,
      "velocity": 121,
      "chip": "ym2612"
    },
    {
      "channel": 4,
      "note": 57,
      "start": 37.0198,
      "duration": 0.2475,
      "velocity": 121,
      "chip": "ym2612"
    },
    {
      "channel": 5,
      "note": 62,
      "start": 37.0796,
      "duration": 0.2469,
      "velocity": 121,
      "chip": "ym2612"
    },
    {
      "channel": 0,
      "note": 39,
      "start": 37.2624,
      "duration": 0.2342,
      "velocity": 104,
      "chip": "ym2612"
    },
    {
      "channel": 1,
      "note": 57,
      "start": 37.2641,
      "duration": 0.2467,
      "velocity": 115,
      "chip": "ym2612"
    },
    {
      "channel": 2,
      "note": 67,
      "start": 37.2654,
      "duration": 0.2195,
      "velocity": 111,
      "chip": "ym2612"
    },
    {
      "channel": 3,
      "note": 63,
      "start": 37.2669,
      "duration": 0.2466,
      "velocity": 121,
      "chip": "ym2612"
    },
    {
      "channel": 4,
      "note": 58,
      "start": 37.2675,
      "duration": 0.2466,
      "velocity": 121,
      "chip": "ym2612"
    },
    {
      "channel": 5,
      "note": 63,
      "start": 37.3267,
      "duration": 0.2461,
      "velocity": 121,
      "chip": "ym2612"
    },
    {
      "channel": 0,
      "note": 40,
      "start": 37.5092,
      "duration": 0.2342,
      "velocity": 104,
      "chip": "ym2612"
    },
    {
      "channel": 1,
      "note": 57,
      "start": 37.511,
      "duration": 0.4934,
      "velocity": 127,
      "chip": "ym2612"
    },
    {
      "channel": 2,
      "note": 67,
      "start": 37.5122,
      "duration": 0.4662,
      "velocity": 111,
      "chip": "ym2612"
    },
    {
      "channel": 3,
      "note": 64,
      "start": 37.5137,
      "duration": 0.2446,
      "velocity": 121,
      "chip": "ym2612"
    },
    {
      "channel": 4,
      "note": 59,
      "start": 37.5143,
      "duration": 0.2446,
      "velocity": 121,
      "chip": "ym2612"
    },
    {
      "channel": 5,
      "note": 64,
      "start": 37.573,
      "duration": 0.2466,
      "velocity": 121,
      "chip": "ym2612"
    },
    {
      "channel": 0,
      "note": 40,
      "start": 37.756,
      "duration": 0.2345,
      "velocity": 104,
      "chip": "ym2612"
    },
    {
      "channel": 3,
      "note": 64,
      "start": 37.7585,
      "duration": 0.249,
      "velocity": 121,
      "chip": "ym2612"
    },
    {
      "channel": 4,
      "note": 59,
      "start": 37.7591,
      "duration": 0.249,
      "velocity": 121,
      "chip": "ym2612"
    },
    {
      "channel": 5,
      "note": 64,
      "start": 37.8198,
      "duration": 0.2467,
      "velocity": 121,
      "chip": "ym2612"
    },
    {
      "channel": 0,
      "note": 38,
      "start": 38.0028,
      "duration": 0.2342,
      "velocity": 104,
      "chip": "ym2612"
    },
    {
      "channel": 1,
      "note": 68,
      "start": 38.0047,
      "duration": 0.2463,
      "velocity": 123,
      "chip": "ym2612"
    },
    {
      "channel": 2,
      "note": 66,
      "start": 38.0059,
      "duration": 0.713,
      "velocity": 111,
      "chip": "ym2612"
    },
    {
      "channel": 3,
      "note": 62,
      "start": 38.0078,
      "duration": 0.2449,
      "velocity": 121,
      "chip": "ym2612"
    },
    {
      "channel": 4,
      "note": 57,
      "start": 38.0083,
      "duration": 0.2448,
      "velocity": 121,
      "chip": "ym2612"
    },
    {
      "channel": 5,
      "note": 62,
      "start": 38.0668,
      "duration": 0.2466,
      "velocity": 121,
      "chip": "ym2612"
    },
    {
      "channel": 1,
      "note": 57,
      "start": 38.2511,
      "duration": 0.2466,
      "velocity": 127,
      "chip": "ym2612"
    },
    {
      "channel": 1,
      "note": 64,
      "start": 38.4979,
      "duration": 0.2468,
      "velocity": 123,
      "chip": "ym2612"
    },
    {
      "channel": 0,
      "note": 45,
      "start": 38.7432,
      "duration": 0.2342,
      "velocity": 104,
      "chip": "ym2612"
    },
    {
      "channel": 1,
      "note": 57,
      "start": 38.7449,
      "duration": 0.2467,
      "velocity": 127,
      "chip": "ym2612"
    },
    {
      "channel": 2,
      "note": 73,
      "start": 38.7463,
      "duration": 0.4661,
      "velocity": 111,
      "chip": "ym2612"
    },
    {
      "channel": 3,
      "note": 69,
      "start": 38.7478,
      "duration": 0.2456,
      "velocity": 121,
      "chip": "ym2612"
    },
    {
      "channel": 4,
      "note": 64,
      "start": 38.7484,
      "duration": 0.2454,
      "velocity": 121,
      "chip": "ym2612"
    },
    {
      "channel": 5,
      "note": 69,
      "start": 38.8075,
      "duration": 0.2461,
      "velocity": 121,
      "chip": "ym2612"
    },
    {
      "channel": 1,
      "note": 68,
      "start": 38.9918,
      "duration": 0.2465,
      "velocity": 123,
      "chip": "ym2612"
    },
    {
      "channel": 0,
      "note": 43,
      "start": 39.2367,
      "duration": 0.481,
      "velocity": 104,
      "chip": "ym2612"
    },
    {
      "channel": 1,
      "note": 57,
      "start": 39.2385,
      "duration": 0.2464,
      "velocity": 127,
      "chip": "ym2612"
    },
    {
      "channel": 2,
      "note": 71,
      "start": 39.2397,
      "duration": 0.9599,
      "velocity": 111,
      "chip": "ym2612"
    },
    {
      "channel": 3,
      "note": 67,
      "start": 39.2416,
      "duration": 0.492,
      "velocity": 121,
      "chip": "ym2612"
    },
    {
      "channel": 4,
      "note": 62,
      "start": 39.2421,
      "duration": 0.492,
      "velocity": 121,
      "chip": "ym2612"
    },
    {
      "channel": 5,
      "note": 67,
      "start": 39.3007,
      "duration": 0.4934,
      "velocity": 121,
      "chip": "ym2612"
    },
    {
      "channel": 1,
      "note": 64,
      "start": 39.4851,
      "duration": 0.2466,
      "velocity": 123,
      "chip": "ym2612"
    },
    {
      "channel": 0,
      "note": 43,
      "start": 39.7302,
      "duration": 0.2342,
      "velocity": 104,
      "chip": "ym2612"
    },
    {
      "channel": 1,
      "note": 57,
      "start": 39.732,
      "duration": 0.2466,
      "velocity": 127,
      "chip": "ym2612"
    },
    {
      "channel": 3,
      "note": 67,
      "start": 39.7337,
      "duration": 0.2466,
      "velocity": 121,
      "chip": "ym2612"
    },
    {
      "channel": 4,
      "note": 62,
      "start": 39.7343,
      "duration": 0.2466,
      "velocity": 121,
      "chip": "ym2612"
    },
    {
      "channel": 5,
      "note": 67,
      "start": 39.7942,
      "duration": 0.2469,
      "velocity": 121,
      "chip": "ym2612"
    },
    {
      "channel": 0,
      "note": 43,
      "start": 39.977,
      "duration": 0.2342,
      "velocity": 104,
      "chip": "ym2612"
    },
    {
      "channel": 1,
      "note": 68,
      "start": 39.9788,
      "duration": 0.247,
      "velocity": 123,
      "chip": "ym2612"
    },
    {
      "channel": 3,
      "note": 67,
      "start": 39.9806,
      "duration": 0.248,
      "velocity": 121,
      "chip": "ym2612"
    },
    {
      "channel": 4,
      "note": 62,
      "start": 39.9811,
      "duration": 0.248,
      "velocity": 121,
      "chip": "ym2612"
    },
    {
      "channel": 5,
      "note": 67,
      "start": 40.0414,
      "duration": 0.2462,
      "velocity": 121,
      "chip": "ym2612"
    },
    {
      "channel": 0,
      "note": 47,
      "start": 40.2243,
      "duration": 0.4805,
      "velocity": 104,
      "chip": "ym2612"
    },
    {
      "channel": 1,
      "note": 57,
      "start": 40.226,
      "duration": 0.2461,
      "velocity": 127,
      "chip": "ym2612"
    },
    {
      "channel": 2,
      "note": 75,
      "start": 40.2273,
      "duration": 1.2062,
      "velocity": 111,
      "chip": "ym2612"
    },
    {
      "channel": 3,
      "note": 71,
      "start": 40.2288,
      "duration": 0.4919,
      "velocity": 121,
      "chip": "ym2612"
    },
    {
      "channel": 4,
      "note": 66,
      "start": 40.2294,
      "duration": 0.4919,
      "velocity": 121,
      "chip": "ym2612"
    },
    {
      "channel": 5,
      "note": 71,
      "start": 40.2878,
      "duration": 0.4933,
      "velocity": 121,
      "chip": "ym2612"
    },
    {
      "channel": 1,
      "note": 64,
      "start": 40.4723,
      "duration": 0.2466,
      "velocity": 123,
      "chip": "ym2612"
    },
    {
      "channel": 0,
      "note": 47,
      "start": 40.7174,
      "duration": 0.2342,
      "velocity": 104,
      "chip": "ym2612"
    },
    {
      "channel": 1,
      "note": 57,
      "start": 40.7191,
      "duration": 0.2466,
      "velocity": 127,
      "chip": "ym2612"
    },
    {
      "channel": 3,
      "note": 71,
      "start": 40.7209,
      "duration": 0.2466,
      "velocity": 121,
      "chip": "ym2612"
    },
    {
      "channel": 4,
      "note": 66,
      "start": 40.7215,
      "duration": 0.2466,
      "velocity": 121,
      "chip": "ym2612"
    },
    {
      "channel": 5,
      "note": 71,
      "start": 40.7813,
      "duration": 0.2466,
      "velocity": 121,
      "chip": "ym2612"
    },
    {
      "channel": 0,
      "note": 47,
      "start": 40.9641,
      "duration": 0.2342,
      "velocity": 104,
      "chip": "ym2612"
    },
    {
      "channel": 1,
      "note": 63,
      "start": 40.9659,
      "duration": 0.0477,
      "velocity": 127,
      "chip": "ym2612"
    },
    {
      "channel": 3,
      "note": 71,
      "start": 40.9677,
      "duration": 0.2454,
      "velocity": 121,
      "chip": "ym2612"
    },
    {
      "channel": 4,
      "note": 66,
      "start": 40.9683,
      "duration": 0.2454,
      "velocity": 121,
      "chip": "ym2612"
    },
    {
      "channel": 1,
      "note": 63,
      "start": 41.0138,
      "duration": 0.1976,
      "velocity": 127,
      "chip": "ym2612"
    },
    {
      "channel": 5,
      "note": 71,
      "start": 41.0281,
      "duration": 0.247,
      "velocity": 121,
      "chip": "ym2612"
    },
    {
      "channel": 0,
      "note": 47,
      "start": 41.211,
      "duration": 0.2342,
      "velocity": 104,
      "chip": "ym2612"
    },
    {
      "channel": 1,
      "note": 57,
      "start": 41.2115,
      "duration": 0.0488,
      "velocity": 127,
      "chip": "ym2612"
    },
    {
      "channel": 3,
      "note": 71,
      "start": 41.2133,
      "duration": 0.2488,
      "velocity": 121,
      "chip": "ym2612"
    },
    {
      "channel": 4,
      "note": 66,
      "start": 41.2139,
      "duration": 0.2488,
      "velocity": 121,
      "chip": "ym2612"
    },
    {
      "channel": 1,
      "note": 57,
      "start": 41.2605,
      "duration": 0.1989,
      "velocity": 115,
      "chip": "ym2612"
    },
    {
      "channel": 5,
      "note": 71,
      "start": 41.2753,
      "duration": 0.2461,
      "velocity": 121,
      "chip": "ym2612"
    },
    {
      "channel": 0,
      "note": 40,
      "start": 41.4578,
      "duration": 0.2341,
      "velocity": 104,
      "chip": "ym2612"
    },
    {
      "channel": 1,
      "note": 57,
      "start": 41.4596,
      "duration": 0.4933,
      "velocity": 127,
      "chip": "ym2612"
    },
    {
      "channel": 2,
      "note": 67,
      "start": 41.4607,
      "duration": 0.4661,
      "velocity": 111,
      "chip": "ym2612"
    },
    {
      "channel": 3,
      "note": 64,
      "start": 41.4623,
      "duration": 0.2442,
      "velocity": 121,
      "chip": "ym2612"
    },
    {
      "channel": 4,
      "note": 59,
      "start": 41.4629,
      "duration": 0.2445,
      "velocity": 121,
      "chip": "ym2612"
    },
    {
      "channel": 5,
      "note": 64,
      "start": 41.5216,
      "duration": 0.2466,
      "velocity": 121,
      "chip": "ym2612"
    },
    {
      "channel": 0,
      "note": 40,
      "start": 41.7045,
      "duration": 0.2343,
      "velocity": 104,
      "chip": "ym2612"
    },
    {
      "channel": 3,
      "note": 64,
      "start": 41.7067,
      "duration": 0.249,
      "velocity": 121,
      "chip": "ym2612"
    },
    {
      "channel": 4,
      "note": 59,
      "start": 41.7077,
      "duration": 0.2486,
      "velocity": 121,
      "chip": "ym2612"
    },
    {
      "channel": 5,
      "note": 64,
      "start": 41.7683,
      "duration": 0.2467,
      "velocity": 121,
      "chip": "ym2612"
    },
    {
      "channel": 0,
      "note": 38,
      "start": 41.9513,
      "duration": 0.2342,
      "velocity": 104,
      "chip": "ym2612"
    },
    {
      "channel": 1,
      "note": 68,
      "start": 41.9532,
      "duration": 0.2463,
      "velocity": 123,
      "chip": "ym2612"
    },
    {
      "channel": 2,
      "note": 66,
      "start": 41.9544,
      "duration": 0.713,
      "velocity": 111,
      "chip": "ym2612"
    },
    {
      "channel": 3,
      "note": 62,
      "start": 41.9559,
      "duration": 0.2454,
      "velocity": 121,
      "chip": "ym2612"
    },
    {
      "channel": 4,
      "note": 57,
      "start": 41.9565,
      "duration": 0.2451,
      "velocity": 121,
      "chip": "ym2612"
    },
    {
      "channel": 5,
      "note": 62,
      "start": 42.0152,
      "duration": 0.2466,
      "velocity": 121,
      "chip": "ym2612"
    },
    {
      "channel": 1,
      "note": 57,
      "start": 42.1997,
      "duration": 0.2466,
      "velocity": 127,
      "chip": "ym2612"
    },
    {
      "channel": 1,
      "note": 64,
      "start": 42.4465,
      "duration": 0.2468,
      "velocity": 123,
      "chip": "ym2612"
    },
    {
      "channel": 0,
      "note": 45,
      "start": 42.6917,
      "duration": 0.2341,
      "velocity": 104,
      "chip": "ym2612"
    },
    {
      "channel": 1,
      "note": 57,
      "start": 42.6934,
      "duration": 0.2464,
      "velocity": 127,
      "chip": "ym2612"
    },
    {
      "channel": 2,
      "note": 73,
      "start": 42.6948,
      "duration": 0.4662,
      "velocity": 111,
      "chip": "ym2612"
    },
    {
      "channel": 3,
      "note": 69,
      "start": 42.6963,
      "duration": 0.2457,
      "velocity": 121,
      "chip": "ym2612"
    },
    {
      "channel": 4,
      "note": 64,
      "start": 42.6968,
      "duration": 0.2455,
      "velocity": 121,
      "chip": "ym2612"
    },
    {
      "channel": 5,
      "note": 69,
      "start": 42.7556,
      "duration": 0.2466,
      "velocity": 121,
      "chip": "ym2612"
    },
    {
      "channel": 1,
      "note": 68,
      "start": 42.94,
      "duration": 0.2468,
      "velocity": 123,
      "chip": "ym2612"
    },
    {
      "channel": 0,
      "note": 43,
      "start": 43.1853,
      "duration": 0.4809,
      "velocity": 104,
      "chip": "ym2612"
    },
    {
      "channel": 1,
      "note": 57,
      "start": 43.187,
      "duration": 0.2465,
      "velocity": 127,
      "chip": "ym2612"
    },
    {
      "channel": 2,
      "note": 71,
      "start": 43.1881,
      "duration": 1.2067,
      "velocity": 111,
      "chip": "ym2612"
    },
    {
      "channel": 3,
      "note": 67,
      "start": 43.1897,
      "duration": 0.4924,
      "velocity": 121,
      "chip": "ym2612"
    },
    {
      "channel": 4,
      "note": 62,
      "start": 43.1905,
      "duration": 0.4921,
      "velocity": 121,
      "chip": "ym2612"
    },
    {
      "channel": 5,
      "note": 67,
      "start": 43.2492,
      "duration": 0.4937,
      "velocity": 121,
      "chip": "ym2612"
    },
    {
      "channel": 1,
      "note": 64,
      "start": 43.4337,
      "duration": 0.2466,
      "velocity": 123,
      "chip": "ym2612"
    },
    {
      "channel": 0,
      "note": 43,
      "start": 43.6788,
      "duration": 0.2342,
      "velocity": 104,
      "chip": "ym2612"
    },
    {
      "channel": 1,
      "note": 57,
      "start": 43.6805,
      "duration": 0.2466,
      "velocity": 127,
      "chip": "ym2612"
    },
    {
      "channel": 3,
      "note": 67,
      "start": 43.6823,
      "duration": 0.2466,
      "velocity": 121,
      "chip": "ym2612"
    },
    {
      "channel": 4,
      "note": 62,
      "start": 43.6829,
      "duration": 0.2466,
      "velocity": 121,
      "chip": "ym2612"
    },
    {
      "channel": 5,
      "note": 67,
      "start": 43.7431,
      "duration": 0.2462,
      "velocity": 121,
      "chip": "ym2612"
    },
    {
      "channel": 0,
      "note": 43,
      "start": 43.9255,
      "duration": 0.2342,
      "velocity": 104,
      "chip": "ym2612"
    },
    {
      "channel": 1,
      "note": 68,
      "start": 43.9273,
      "duration": 0.2469,
      "velocity": 123,
      "chip": "ym2612"
    },
    {
      "channel": 3,
      "note": 67,
      "start": 43.9291,
      "duration": 0.247,
      "velocity": 121,
      "chip": "ym2612"
    },
    {
      "channel": 4,
      "note": 62,
      "start": 43.9297,
      "duration": 0.2469,
      "velocity": 121,
      "chip": "ym2612"
    },
    {
      "channel": 5,
      "note": 67,
      "start": 43.9895,
      "duration": 0.2466,
      "velocity": 121,
      "chip": "ym2612"
    },
    {
      "channel": 0,
      "note": 43,
      "start": 44.1724,
      "duration": 0.2342,
      "velocity": 104,
      "chip": "ym2612"
    },
    {
      "channel": 1,
      "note": 57,
      "start": 44.1745,
      "duration": 0.2463,
      "velocity": 127,
      "chip": "ym2612"
    },
    {
      "channel": 3,
      "note": 67,
      "start": 44.1762,
      "duration": 0.2476,
      "velocity": 121,
      "chip": "ym2612"
    },
    {
      "channel": 4,
      "note": 62,
      "start": 44.1768,
      "duration": 0.2477,
      "velocity": 121,
      "chip": "ym2612"
    },
    {
      "channel": 5,
      "note": 67,
      "start": 44.2363,
      "duration": 0.2466,
      "velocity": 121,
      "chip": "ym2612"
    },
    {
      "channel": 0,
      "note": 45,
      "start": 44.4192,
      "duration": 0.2341,
      "velocity": 104,
      "chip": "ym2612"
    },
    {
      "channel": 1,
      "note": 64,
      "start": 44.421,
      "duration": 0.2466,
      "velocity": 123,
      "chip": "ym2612"
    },
    {
      "channel": 2,
      "note": 73,
      "start": 44.4222,
      "duration": 0.2195,
      "velocity": 111,
      "chip": "ym2612"
    },
    {
      "channel": 3,
      "note": 69,
      "start": 44.4241,
      "duration": 0.2461,
      "velocity": 121,
      "chip": "ym2612"
    },
    {
      "channel": 4,
      "note": 64,
      "start": 44.4247,
      "duration": 0.2461,
      "velocity": 121,
      "chip": "ym2612"
    },
    {
      "channel": 5,
      "note": 69,
      "start": 44.4831,
      "duration": 0.2466,
      "velocity": 121,
      "chip": "ym2612"
    },
    {
      "channel": 0,
      "note": 38,
      "start": 44.666,
      "duration": 0.2342,
      "velocity": 104,
      "chip": "ym2612"
    },
    {
      "channel": 1,
      "note": 57,
      "start": 44.6677,
      "duration": 0.2465,
      "velocity": 127,
      "chip": "ym2612"
    },
    {
      "channel": 2,
      "note": 66,
      "start": 44.6689,
      "duration": 0.4663,
      "velocity": 111,
      "chip": "ym2612"
    },
    {
      "channel": 3,
      "note": 62,
      "start": 44.6705,
      "duration": 0.2455,
      "velocity": 121,
      "chip": "ym2612"
    },
    {
      "channel": 4,
      "note": 57,
      "start": 44.671,
      "duration": 0.2456,
      "velocity": 121,
      "chip": "ym2612"
    },
    {
      "channel": 5,
      "note": 62,
      "start": 44.7299,
      "duration": 0.2466,
      "velocity": 121,
      "chip": "ym2612"
    },
    {
      "channel": 0,
      "note": 38,
      "start": 44.9127,
      "duration": 0.2342,
      "velocity": 104,
      "chip": "ym2612"
    },
    {
      "channel": 1,
      "note": 68,
      "start": 44.9144,
      "duration": 0.2466,
      "velocity": 123,
      "chip": "ym2612"
    },
    {
      "channel": 3,
      "note": 62,
      "start": 44.9162,
      "duration": 0.2476,
      "velocity": 121,
      "chip": "ym2612"
    },
    {
      "channel": 4,
      "note": 57,
      "start": 44.9168,
      "duration": 0.2476,
      "velocity": 121,
      "chip": "ym2612"
    },
    {
      "channel": 5,
      "note": 62,
      "start": 44.9768,
      "duration": 0.2465,
      "velocity": 121,
      "chip": "ym2612"
    },
    {
      "channel": 0,
      "note": 39,
      "start": 45.1595,
      "duration": 0.2343,
      "velocity": 104,
      "chip": "ym2612"
    },
    {
      "channel": 1,
      "note": 57,
      "start": 45.1612,
      "duration": 0.247,
      "velocity": 115,
      "chip": "ym2612"
    },
    {
      "channel": 2,
      "note": 67,
      "start": 45.1625,
      "duration": 0.2195,
      "velocity": 111,
      "chip": "ym2612"
    },
    {
      "channel": 3,
      "note": 63,
      "start": 45.164,
      "duration": 0.2469,
      "velocity": 121,
      "chip": "ym2612"
    },
    {
      "channel": 4,
      "note": 58,
      "start": 45.1645,
      "duration": 0.2469,
      "velocity": 121,
      "chip": "ym2612"
    },
    {
      "channel": 5,
      "note": 63,
      "start": 45.2234,
      "duration": 0.2464,
      "velocity": 121,
      "chip": "ym2612"
    },
    {
      "channel": 0,
      "note": 40,
      "start": 45.4063,
      "duration": 0.2346,
      "velocity": 104,
      "chip": "ym2612"
    },
    {
      "channel": 1,
      "note": 57,
      "start": 45.4084,
      "duration": 0.493,
      "velocity": 127,
      "chip": "ym2612"
    },
    {
      "channel": 2,
      "note": 67,
      "start": 45.4096,
      "duration": 0.4658,
      "velocity": 111,
      "chip": "ym2612"
    },
    {
      "channel": 3,
      "note": 64,
      "start": 45.4111,
      "duration": 0.244,
      "velocity": 121,
      "chip": "ym2612"
    },
    {
      "channel": 4,
      "note": 59,
      "start": 45.4117,
      "duration": 0.2439,
      "velocity": 121,
      "chip": "ym2612"
    },
    {
      "channel": 5,
      "note": 64,
      "start": 45.4701,
      "duration": 0.2466,
      "velocity": 121,
      "chip": "ym2612"
    },
    {
      "channel": 0,
      "note": 40,
      "start": 45.653,
      "duration": 0.2342,
      "velocity": 104,
      "chip": "ym2612"
    },
    {
      "channel": 3,
      "note": 64,
      "start": 45.6552,
      "duration": 0.2489,
      "velocity": 121,
      "chip": "ym2612"
    },
    {
      "channel": 4,
      "note": 59,
      "start": 45.6558,
      "duration": 0.2489,
      "velocity": 121,
      "chip": "ym2612"
    },
    {
      "channel": 5,
      "note": 64,
      "start": 45.7168,
      "duration": 0.2468,
      "velocity": 121,
      "chip": "ym2612"
    },
    {
      "channel": 0,
      "note": 38,
      "start": 45.8998,
      "duration": 0.481,
      "velocity": 104,
      "chip": "ym2612"
    },
    {
      "channel": 1,
      "note": 68,
      "start": 45.9016,
      "duration": 0.2464,
      "velocity": 123,
      "chip": "ym2612"
    },
    {
      "channel": 2,
      "note": 66,
      "start": 45.9029,
      "duration": 0.713,
      "velocity": 111,
      "chip": "ym2612"
    },
    {
      "channel": 3,
      "note": 62,
      "start": 45.9044,
      "duration": 0.2455,
      "velocity": 121,
      "chip": "ym2612"
    },
    {
      "channel": 4,
      "note": 57,
      "start": 45.9049,
      "duration": 0.2454,
      "velocity": 121,
      "chip": "ym2612"
    },
    {
      "channel": 5,
      "note": 62,
      "start": 45.9638,
      "duration": 0.2466,
      "velocity": 121,
      "chip": "ym2612"
    },
    {
      "channel": 1,
      "note": 57,
      "start": 46.1483,
      "duration": 0.2464,
      "velocity": 127,
      "chip": "ym2612"
    },
    {
      "channel": 1,
      "note": 64,
      "start": 46.3949,
      "duration": 0.2473,
      "velocity": 123,
      "chip": "ym2612"
    },
    {
      "channel": 0,
      "note": 45,
      "start": 46.6405,
      "duration": 0.2339,
      "velocity": 104,
      "chip": "ym2612"
    },
    {
      "channel": 1,
      "note": 57,
      "start": 46.6423,
      "duration": 0.246,
      "velocity": 127,
      "chip": "ym2612"
    },
    {
      "channel": 2,
      "note": 73,
      "start": 46.6437,
      "duration": 0.4658,
      "velocity": 111,
      "chip": "ym2612"
    },
    {
      "channel": 3,
      "note": 69,
      "start": 46.6452,
      "duration": 0.2449,
      "velocity": 121,
      "chip": "ym2612"
    },
    {
      "channel": 4,
      "note": 64,
      "start": 46.6458,
      "duration": 0.2451,
      "velocity": 121,
      "chip": "ym2612"
    },
    {
      "channel": 5,
      "note": 69,
      "start": 46.7042,
      "duration": 0.2465,
      "velocity": 121,
      "chip": "ym2612"
    },
    {
      "channel": 1,
      "note": 68,
      "start": 46.8885,
      "duration": 0.2468,
      "velocity": 123,
      "chip": "ym2612"
    },
    {
      "channel": 0,
      "note": 47,
      "start": 47.1337,
      "duration": 0.481,
      "velocity": 104,
      "chip": "ym2612"
    },
    {
      "channel": 1,
      "note": 57,
      "start": 47.1355,
      "duration": 0.2465,
      "velocity": 127,
      "chip": "ym2612"
    },
    {
      "channel": 2,
      "note": 75,
      "start": 47.1367,
      "duration": 2.1938,
      "velocity": 111,
      "chip": "ym2612"
    },
    {
      "channel": 3,
      "note": 71,
      "start": 47.1383,
      "duration": 0.4925,
      "velocity": 121,
      "chip": "ym2612"
    },
    {
      "channel": 4,
      "note": 66,
      "start": 47.1388,
      "duration": 0.4926,
      "velocity": 121,
      "chip": "ym2612"
    },
    {
      "channel": 5,
      "note": 71,
      "start": 47.1977,
      "duration": 0.4938,
      "velocity": 121,
      "chip": "ym2612"
    },
    {
      "channel": 1,
      "note": 64,
      "start": 47.3822,
      "duration": 0.2468,
      "velocity": 127,
      "chip": "ym2612"
    },
    {
      "channel": 0,
      "note": 47,
      "start": 47.6273,
      "duration": 0.2342,
      "velocity": 104,
      "chip": "ym2612"
    },
    {
      "channel": 1,
      "note": 68,
      "start": 47.6291,
      "duration": 0.2458,
      "velocity": 127,
      "chip": "ym2612"
    },
    {
      "channel": 3,
      "note": 71,
      "start": 47.631,
      "duration": 0.2457,
      "velocity": 121,
      "chip": "ym2612"
    },
    {
      "channel": 4,
      "note": 66,
      "start": 47.6315,
      "duration": 0.2457,
      "velocity": 121,
      "chip": "ym2612"
    },
    {
      "channel": 5,
      "note": 71,
      "start": 47.6916,
      "duration": 0.2463,
      "velocity": 121,
      "chip": "ym2612"
    },
    {
      "channel": 0,
      "note": 47,
      "start": 47.8745,
      "duration": 0.2338,
      "velocity": 104,
      "chip": "ym2612"
    },
    {
      "channel": 1,
      "note": 68,
      "start": 47.8751,
      "duration": 0.2462,
      "velocity": 127,
      "chip": "ym2612"
    },
    {
      "channel": 3,
      "note": 71,
      "start": 47.8769,
      "duration": 0.2463,
      "velocity": 121,
      "chip": "ym2612"
    },
    {
      "channel": 4,
      "note": 66,
      "start": 47.8774,
      "duration": 0.2465,
      "velocity": 121,
      "chip": "ym2612"
    },
    {
      "channel": 5,
      "note": 71,
      "start": 47.9381,
      "duration": 0.2466,
      "velocity": 121,
      "chip": "ym2612"
    },
    {
      "channel": 0,
      "note": 47,
      "start": 48.1209,
      "duration": 0.2342,
      "velocity": 104,
      "chip": "ym2612"
    },
    {
      "channel": 1,
      "note": 68,
      "start": 48.1215,
      "duration": 0.2466,
      "velocity": 127,
      "chip": "ym2612"
    },
    {
      "channel": 3,
      "note": 71,
      "start": 48.1233,
      "duration": 0.2466,
      "velocity": 121,
      "chip": "ym2612"
    },
    {
      "channel": 4,
      "note": 66,
      "start": 48.1243,
      "duration": 0.2462,
      "velocity": 121,
      "chip": "ym2612"
    },
    {
      "channel": 5,
      "note": 71,
      "start": 48.1848,
      "duration": 0.2466,
      "velocity": 121,
      "chip": "ym2612"
    },
    {
      "channel": 0,
      "note": 47,
      "start": 48.3676,
      "duration": 0.2342,
      "velocity": 104,
      "chip": "ym2612"
    },
    {
      "channel": 1,
      "note": 68,
      "start": 48.3683,
      "duration": 0.2466,
      "velocity": 127,
      "chip": "ym2612"
    },
    {
      "channel": 3,
      "note": 71,
      "start": 48.3701,
      "duration": 0.2466,
      "velocity": 121,
      "chip": "ym2612"
    },
    {
      "channel": 4,
      "note": 66,
      "start": 48.3706,
      "duration": 0.2466,
      "velocity": 121,
      "chip": "ym2612"
    },
    {
      "channel": 5,
      "note": 71,
      "start": 48.4316,
      "duration": 0.2466,
      "velocity": 121,
      "chip": "ym2612"
    },
    {
      "channel": 0,
      "note": 47,
      "start": 48.6144,
      "duration": 0.2342,
      "velocity": 104,
      "chip": "ym2612"
    },
    {
      "channel": 1,
      "note": 68,
      "start": 48.615,
      "duration": 0.2466,
      "velocity": 127,
      "chip": "ym2612"
    },
    {
      "channel": 3,
      "note": 71,
      "start": 48.6168,
      "duration": 0.2466,
      "velocity": 121,
      "chip": "ym2612"
    },
    {
      "channel": 4,
      "note": 66,
      "start": 48.6174,
      "duration": 0.2466,
      "velocity": 121,
      "chip": "ym2612"
    },
    {
      "channel": 5,
      "note": 71,
      "start": 48.6784,
      "duration": 0.2469,
      "velocity": 121,
      "chip": "ym2612"
    },
    {
      "channel": 0,
      "note": 47,
      "start": 48.8612,
      "duration": 0.2342,
      "velocity": 104,
      "chip": "ym2612"
    },
    {
      "channel": 1,
      "note": 68,
      "start": 48.8619,
      "duration": 0.2466,
      "velocity": 127,
      "chip": "ym2612"
    },
    {
      "channel": 3,
      "note": 71,
      "start": 48.8637,
      "duration": 0.2466,
      "velocity": 121,
      "chip": "ym2612"
    },
    {
      "channel": 4,
      "note": 66,
      "start": 48.8642,
      "duration": 0.2466,
      "velocity": 121,
      "chip": "ym2612"
    },
    {
      "channel": 5,
      "note": 71,
      "start": 48.9255,
      "duration": 0.2462,
      "velocity": 121,
      "chip": "ym2612"
    },
    {
      "channel": 0,
      "note": 47,
      "start": 49.108,
      "duration": 0.2341,
      "velocity": 104,
      "chip": "ym2612"
    },
    {
      "channel": 1,
      "note": 68,
      "start": 49.1087,
      "duration": 0.1228,
      "velocity": 127,
      "chip": "ym2612"
    },
    {
      "channel": 3,
      "note": 71,
      "start": 49.1105,
      "duration": 0.2507,
      "velocity": 121,
      "chip": "ym2612"
    },
    {
      "channel": 4,
      "note": 66,
      "start": 49.111,
      "duration": 0.2509,
      "velocity": 121,
      "chip": "ym2612"
    },
    {
      "channel": 5,
      "note": 71,
      "start": 49.1719,
      "duration": 0.2467,
      "velocity": 121,
      "chip": "ym2612"
    },
    {
      "channel": 1,
      "note": 68,
      "start": 49.2317,
      "duration": 0.125,
      "velocity": 115,
      "chip": "ym2612"
    },
    {
      "channel": 0,
      "note": 40,
      "start": 49.355,
      "duration": 0.234,
      "velocity": 104,
      "chip": "ym2612"
    },
    {
      "channel": 1,
      "note": 57,
      "start": 49.3568,
      "duration": 0.4932,
      "velocity": 127,
      "chip": "ym2612"
    },
    {
      "channel": 2,
      "note": 71,
      "start": 49.3596,
      "duration": 0.2175,
      "velocity": 95,
      "chip": "ym2612"
    },
    {
      "channel": 3,
      "note": 64,
      "start": 49.3614,
      "duration": 0.2431,
      "velocity": 121,
      "chip": "ym2612"
    },
    {
      "channel": 4,
      "note": 59,
      "start": 49.3621,
      "duration": 0.2429,
      "velocity": 121,
      "chip": "ym2612"
    },
    {
      "channel": 5,
      "note": 64,
      "start": 49.4188,
      "duration": 0.2464,
      "velocity": 121,
      "chip": "ym2612"
    },
    {
      "channel": 0,
      "note": 40,
      "start": 49.6016,
      "duration": 0.2342,
      "velocity": 104,
      "chip": "ym2612"
    },
    {
      "channel": 2,
      "note": 71,
      "start": 49.6032,
      "duration": 0.2212,
      "velocity": 95,
      "chip": "ym2612"
    },
    {
      "channel": 3,
      "note": 64,
      "start": 49.6047,
      "duration": 0.248,
      "velocity": 121,
      "chip": "ym2612"
    },
    {
      "channel": 4,
      "note": 59,
      "start": 49.6052,
      "duration": 0.248,
      "velocity": 121,
      "chip": "ym2612"
    },
    {
      "channel": 5,
      "note": 64,
      "start": 49.6654,
      "duration": 0.2468,
      "velocity": 121,
      "chip": "ym2612"
    },
    {
      "channel": 0,
      "note": 40,
      "start": 49.8484,
      "duration": 0.2342,
      "velocity": 104,
      "chip": "ym2612"
    },
    {
      "channel": 1,
      "note": 68,
      "start": 49.8502,
      "duration": 0.2465,
      "velocity": 123,
      "chip": "ym2612"
    },
    {
      "channel": 2,
      "note": 69,
      "start": 49.8514,
      "duration": 0.2195,
      "velocity": 95,
      "chip": "ym2612"
    },
    {
      "channel": 3,
      "note": 62,
      "start": 49.8528,
      "duration": 0.2465,
      "velocity": 121,
      "chip": "ym2612"
    },
    {
      "channel": 4,
      "note": 57,
      "start": 49.8534,
      "duration": 0.2465,
      "velocity": 121,
      "chip": "ym2612"
    },
    {
      "channel": 5,
      "note": 62,
      "start": 49.9123,
      "duration": 0.2469,
      "velocity": 121,
      "chip": "ym2612"
    },
    {
      "channel": 0,
      "note": 40,
      "start": 50.0952,
      "duration": 0.2342,
      "velocity": 104,
      "chip": "ym2612"
    },
    {
      "channel": 1,
      "note": 57,
      "start": 50.0969,
      "duration": 0.2466,
      "velocity": 127,
      "chip": "ym2612"
    },
    {
      "channel": 2,
      "note": 71,
      "start": 50.098,
      "duration": 0.2196,
      "velocity": 95,
      "chip": "ym2612"
    },
    {
      "channel": 3,
      "note": 64,
      "start": 50.0995,
      "duration": 0.2466,
      "velocity": 121,
      "chip": "ym2612"
    },
    {
      "channel": 4,
      "note": 59,
      "start": 50.1001,
      "duration": 0.2466,
      "velocity": 121,
      "chip": "ym2612"
    },
    {
      "channel": 5,
      "note": 64,
      "start": 50.1595,
      "duration": 0.2462,
      "velocity": 121,
      "chip": "ym2612"
    },
    {
      "channel": 0,
      "note": 40,
      "start": 50.342,
      "duration": 0.2342,
      "velocity": 104,
      "chip": "ym2612"
    },
    {
      "channel": 1,
      "note": 64,
      "start": 50.3437,
      "duration": 0.2469,
      "velocity": 123,
      "chip": "ym2612"
    },
    {
      "channel": 2,
      "note": 74,
      "start": 50.3449,
      "duration": 0.2195,
      "velocity": 95,
      "chip": "ym2612"
    },
    {
      "channel": 3,
      "note": 67,
      "start": 50.3463,
      "duration": 0.2469,
      "velocity": 121,
      "chip": "ym2612"
    },
    {
      "channel": 4,
      "note": 62,
      "start": 50.3469,
      "duration": 0.2469,
      "velocity": 121,
      "chip": "ym2612"
    },
    {
      "channel": 5,
      "note": 67,
      "start": 50.4059,
      "duration": 0.2466,
      "velocity": 121,
      "chip": "ym2612"
    },
    {
      "channel": 0,
      "note": 40,
      "start": 50.5888,
      "duration": 0.2341,
      "velocity": 104,
      "chip": "ym2612"
    },
    {
      "channel": 1,
      "note": 57,
      "start": 50.5909,
      "duration": 0.2462,
      "velocity": 127,
      "chip": "ym2612"
    },
    {
      "channel": 2,
      "note": 71,
      "start": 50.592,
      "duration": 0.2192,
      "velocity": 95,
      "chip": "ym2612"
    },
    {
      "channel": 3,
      "note": 64,
      "start": 50.5935,
      "duration": 0.2438,
      "velocity": 121,
      "chip": "ym2612"
    },
    {
      "channel": 4,
      "note": 59,
      "start": 50.5941,
      "duration": 0.2432,
      "velocity": 121,
      "chip": "ym2612"
    },
    {
      "channel": 5,
      "note": 64,
      "start": 50.6526,
      "duration": 0.1846,
      "velocity": 121,
      "chip": "ym2612"
    },
    {
      "channel": 0,
      "note": 40,
      "start": 50.8355,
      "duration": 0.0017,
      "velocity": 104,
      "chip": "ym2612"
    },
    {
      "channel": 1,
      "note": 68,
      "start": 50.8372,
      "duration": 0.0,
      "velocity": 127,
      "chip": "ym2612"
    }
  ]
}