{
  "track_name": "08 - Restoration",
  "duration_sec": 63.681,
  "sample_rate": 44100,
  "note_count": 629,
  "unique_pitches": 23,
  "pitch_range": 47,
  "avg_note_duration": 0.1928,
  "reconstruction_stats": {
    "notes_reconstructed": 629,
    "keyon_events": 629,
    "keyoff_events": 629,
    "orphan_keyons": 0,
    "unique_pitches": 23,
    "pitch_range": 47,
    "avg_duration_sec": 0.1928
  },
  "metadata": {
    "source": "P\\Phantasy Star II\\08 - Restoration.vgz"
  },
  "notes": [
    {
      "channel": 1,
      "note": 51,
      "start": 0.1039,
      "duration": 0.1146,
      "velocity": 103,
      "chip": "ym2612"
    },
    {
      "channel": 2,
      "note": 80,
      "start": 0.1088,
      "duration": 0.1098,
      "velocity": 99,
      "chip": "ym2612"
    },
    {
      "channel": 3,
      "note": 75,
      "start": 0.1088,
      "duration": 0.1098,
      "velocity": 99,
      "chip": "ym2612"
    },
    {
      "channel": 4,
      "note": 72,
      "start": 0.1089,
      "duration": 0.1099,
      "velocity": 99,
      "chip": "ym2612"
    },
    {
      "channel": 1,
      "note": 51,
      "start": 0.2688,
      "duration": 0.1098,
      "velocity": 103,
      "chip": "ym2612"
    },
    {
      "channel": 1,
      "note": 51,
      "start": 0.4288,
      "duration": 0.0014,
      "velocity": 103,
      "chip": "ym2612"
    },
    {
      "channel": 1,
      "note": 51,
      "start": 0.4606,
      "duration": 0.1094,
      "velocity": 103,
      "chip": "ym2612"
    },
    {
      "channel": 1,
      "note": 51,
      "start": 0.6202,
      "duration": 0.1189,
      "velocity": 103,
      "chip": "ym2612"
    },
    {
      "channel": 2,
      "note": 70,
      "start": 0.6211,
      "duration": 0.1182,
      "velocity": 99,
      "chip": "ym2612"
    },
    {
      "channel": 3,
      "note": 79,
      "start": 0.6212,
      "duration": 0.1181,
      "velocity": 99,
      "chip": "ym2612"
    },
    {
      "channel": 4,
      "note": 75,
      "start": 0.6213,
      "duration": 0.1181,
      "velocity": 99,
      "chip": "ym2612"
    },
    {
      "channel": 1,
      "note": 51,
      "start": 0.7895,
      "duration": 0.1265,
      "velocity": 103,
      "chip": "ym2612"
    },
    {
      "channel": 1,
      "note": 51,
      "start": 0.9662,
      "duration": 0.0013,
      "velocity": 103,
      "chip": "ym2612"
    },
    {
      "channel": 1,
      "note": 51,
      "start": 0.9815,
      "duration": 0.126,
      "velocity": 103,
      "chip": "ym2612"
    },
    {
      "channel": 1,
      "note": 51,
      "start": 1.1577,
      "duration": 0.1186,
      "velocity": 103,
      "chip": "ym2612"
    },
    {
      "channel": 2,
      "note": 68,
      "start": 1.1583,
      "duration": 0.1181,
      "velocity": 99,
      "chip": "ym2612"
    },
    {
      "channel": 3,
      "note": 77,
      "start": 1.1584,
      "duration": 0.1181,
      "velocity": 99,
      "chip": "ym2612"
    },
    {
      "channel": 4,
      "note": 73,
      "start": 1.1584,
      "duration": 0.1181,
      "velocity": 99,
      "chip": "ym2612"
    },
    {
      "channel": 1,
      "note": 51,
      "start": 1.3265,
      "duration": 0.1098,
      "velocity": 103,
      "chip": "ym2612"
    },
    {
      "channel": 1,
      "note": 51,
      "start": 1.4865,
      "duration": 0.0015,
      "velocity": 103,
      "chip": "ym2612"
    },
    {
      "channel": 1,
      "note": 51,
      "start": 1.5184,
      "duration": 0.1187,
      "velocity": 103,
      "chip": "ym2612"
    },
    {
      "channel": 2,
      "note": 68,
      "start": 1.5191,
      "duration": 0.2779,
      "velocity": 99,
      "chip": "ym2612"
    },
    {
      "channel": 3,
      "note": 72,
      "start": 1.5192,
      "duration": 0.2779,
      "velocity": 99,
      "chip": "ym2612"
    },
    {
      "channel": 4,
      "note": 75,
      "start": 1.5192,
      "duration": 0.2779,
      "velocity": 99,
      "chip": "ym2612"
    },
    {
      "channel": 1,
      "note": 51,
      "start": 1.6875,
      "duration": 0.1094,
      "velocity": 103,
      "chip": "ym2612"
    },
    {
      "channel": 1,
      "note": 51,
      "start": 1.8638,
      "duration": 0.1185,
      "velocity": 103,
      "chip": "ym2612"
    },
    {
      "channel": 1,
      "note": 51,
      "start": 2.0325,
      "duration": 0.0012,
      "velocity": 103,
      "chip": "ym2612"
    },
    {
      "channel": 1,
      "note": 51,
      "start": 2.0475,
      "duration": 0.1261,
      "velocity": 103,
      "chip": "ym2612"
    },
    {
      "channel": 1,
      "note": 51,
      "start": 2.2238,
      "duration": 0.1188,
      "velocity": 103,
      "chip": "ym2612"
    },
    {
      "channel": 2,
      "note": 72,
      "start": 2.2245,
      "duration": 0.1183,
      "velocity": 99,
      "chip": "ym2612"
    },
    {
      "channel": 3,
      "note": 75,
      "start": 2.2245,
      "duration": 0.1183,
      "velocity": 99,
      "chip": "ym2612"
    },
    {
      "channel": 4,
      "note": 80,
      "start": 2.2246,
      "duration": 0.1182,
      "velocity": 99,
      "chip": "ym2612"
    },
    {
      "channel": 1,
      "note": 51,
      "start": 2.3929,
      "duration": 0.1098,
      "velocity": 103,
      "chip": "ym2612"
    },
    {
      "channel": 1,
      "note": 51,
      "start": 2.5529,
      "duration": 0.0015,
      "velocity": 103,
      "chip": "ym2612"
    },
    {
      "channel": 1,
      "note": 51,
      "start": 2.5847,
      "duration": 0.1094,
      "velocity": 103,
      "chip": "ym2612"
    },
    {
      "channel": 1,
      "note": 51,
      "start": 2.7444,
      "duration": 0.1354,
      "velocity": 103,
      "chip": "ym2612"
    },
    {
      "channel": 2,
      "note": 70,
      "start": 2.7451,
      "duration": 0.1348,
      "velocity": 99,
      "chip": "ym2612"
    },
    {
      "channel": 3,
      "note": 79,
      "start": 2.7451,
      "duration": 0.1348,
      "velocity": 99,
      "chip": "ym2612"
    },
    {
      "channel": 4,
      "note": 75,
      "start": 2.7452,
      "duration": 0.1348,
      "velocity": 99,
      "chip": "ym2612"
    },
    {
      "channel": 1,
      "note": 51,
      "start": 2.9301,
      "duration": 0.1097,
      "velocity": 103,
      "chip": "ym2612"
    },
    {
      "channel": 1,
      "note": 51,
      "start": 3.09,
      "duration": 0.0013,
      "velocity": 103,
      "chip": "ym2612"
    },
    {
      "channel": 0,
      "note": 85,
      "start": 3.1049,
      "duration": 0.3856,
      "velocity": 71,
      "chip": "ym2612"
    },
    {
      "channel": 1,
      "note": 49,
      "start": 3.1053,
      "duration": 0.1353,
      "velocity": 103,
      "chip": "ym2612"
    },
    {
      "channel": 2,
      "note": 68,
      "start": 3.106,
      "duration": 0.7448,
      "velocity": 99,
      "chip": "ym2612"
    },
    {
      "channel": 3,
      "note": 73,
      "start": 3.1061,
      "duration": 0.7447,
      "velocity": 99,
      "chip": "ym2612"
    },
    {
      "channel": 4,
      "note": 77,
      "start": 3.1061,
      "duration": 0.7448,
      "velocity": 99,
      "chip": "ym2612"
    },
    {
      "channel": 1,
      "note": 49,
      "start": 3.2909,
      "duration": 0.1497,
      "velocity": 103,
      "chip": "ym2612"
    },
    {
      "channel": 0,
      "note": 80,
      "start": 3.4906,
      "duration": 0.118,
      "velocity": 71,
      "chip": "ym2612"
    },
    {
      "channel": 1,
      "note": 49,
      "start": 3.491,
      "duration": 0.118,
      "velocity": 103,
      "chip": "ym2612"
    },
    {
      "channel": 0,
      "note": 77,
      "start": 3.6756,
      "duration": 0.2831,
      "velocity": 71,
      "chip": "ym2612"
    },
    {
      "channel": 1,
      "note": 49,
      "start": 3.6759,
      "duration": 0.0013,
      "velocity": 103,
      "chip": "ym2612"
    },
    {
      "channel": 1,
      "note": 49,
      "start": 3.691,
      "duration": 0.1094,
      "velocity": 103,
      "chip": "ym2612"
    },
    {
      "channel": 1,
      "note": 49,
      "start": 3.8507,
      "duration": 0.0024,
      "velocity": 103,
      "chip": "ym2612"
    },
    {
      "channel": 1,
      "note": 49,
      "start": 3.8543,
      "duration": 0.0015,
      "velocity": 103,
      "chip": "ym2612"
    },
    {
      "channel": 1,
      "note": 49,
      "start": 3.8582,
      "duration": 0.0012,
      "velocity": 103,
      "chip": "ym2612"
    },
    {
      "channel": 1,
      "note": 49,
      "start": 3.89,
      "duration": 0.0691,
      "velocity": 103,
      "chip": "ym2612"
    },
    {
      "channel": 1,
      "note": 51,
      "start": 4.0093,
      "duration": 0.1183,
      "velocity": 103,
      "chip": "ym2612"
    },
    {
      "channel": 2,
      "note": 80,
      "start": 4.01,
      "duration": 0.1177,
      "velocity": 99,
      "chip": "ym2612"
    },
    {
      "channel": 3,
      "note": 75,
      "start": 4.01,
      "duration": 0.1178,
      "velocity": 99,
      "chip": "ym2612"
    },
    {
      "channel": 4,
      "note": 72,
      "start": 4.0101,
      "duration": 0.1177,
      "velocity": 99,
      "chip": "ym2612"
    },
    {
      "channel": 1,
      "note": 51,
      "start": 4.1779,
      "duration": 0.1265,
      "velocity": 103,
      "chip": "ym2612"
    },
    {
      "channel": 1,
      "note": 51,
      "start": 4.3546,
      "duration": 0.0013,
      "velocity": 103,
      "chip": "ym2612"
    },
    {
      "channel": 1,
      "note": 51,
      "start": 4.3697,
      "duration": 0.1094,
      "velocity": 103,
      "chip": "ym2612"
    },
    {
      "channel": 1,
      "note": 51,
      "start": 4.5293,
      "duration": 0.1355,
      "velocity": 103,
      "chip": "ym2612"
    },
    {
      "channel": 2,
      "note": 70,
      "start": 4.5301,
      "duration": 0.1348,
      "velocity": 99,
      "chip": "ym2612"
    },
    {
      "channel": 3,
      "note": 79,
      "start": 4.5302,
      "duration": 0.1348,
      "velocity": 99,
      "chip": "ym2612"
    },
    {
      "channel": 4,
      "note": 75,
      "start": 4.5303,
      "duration": 0.1348,
      "velocity": 99,
      "chip": "ym2612"
    },
    {
      "channel": 1,
      "note": 51,
      "start": 4.7151,
      "duration": 0.1098,
      "velocity": 103,
      "chip": "ym2612"
    },
    {
      "channel": 1,
      "note": 51,
      "start": 4.8751,
      "duration": 0.0013,
      "velocity": 103,
      "chip": "ym2612"
    },
    {
      "channel": 1,
      "note": 51,
      "start": 4.9068,
      "duration": 0.1093,
      "velocity": 103,
      "chip": "ym2612"
    },
    {
      "channel": 1,
      "note": 51,
      "start": 5.0664,
      "duration": 0.1186,
      "velocity": 103,
      "chip": "ym2612"
    },
    {
      "channel": 2,
      "note": 68,
      "start": 5.0671,
      "duration": 0.1181,
      "velocity": 99,
      "chip": "ym2612"
    },
    {
      "channel": 3,
      "note": 77,
      "start": 5.0672,
      "duration": 0.1181,
      "velocity": 99,
      "chip": "ym2612"
    },
    {
      "channel": 4,
      "note": 73,
      "start": 5.0672,
      "duration": 0.1181,
      "velocity": 99,
      "chip": "ym2612"
    },
    {
      "channel": 1,
      "note": 51,
      "start": 5.2353,
      "duration": 0.1265,
      "velocity": 103,
      "chip": "ym2612"
    },
    {
      "channel": 1,
      "note": 51,
      "start": 5.412,
      "duration": 0.0012,
      "velocity": 103,
      "chip": "ym2612"
    },
    {
      "channel": 1,
      "note": 51,
      "start": 5.4271,
      "duration": 0.1188,
      "velocity": 103,
      "chip": "ym2612"
    },
    {
      "channel": 2,
      "note": 68,
      "start": 5.4278,
      "duration": 0.2945,
      "velocity": 99,
      "chip": "ym2612"
    },
    {
      "channel": 3,
      "note": 72,
      "start": 5.4278,
      "duration": 0.2945,
      "velocity": 99,
      "chip": "ym2612"
    },
    {
      "channel": 4,
      "note": 75,
      "start": 5.4279,
      "duration": 0.2945,
      "velocity": 99,
      "chip": "ym2612"
    },
    {
      "channel": 1,
      "note": 51,
      "start": 5.6127,
      "duration": 0.1094,
      "velocity": 103,
      "chip": "ym2612"
    },
    {
      "channel": 1,
      "note": 51,
      "start": 5.7724,
      "duration": 0.1185,
      "velocity": 103,
      "chip": "ym2612"
    },
    {
      "channel": 1,
      "note": 51,
      "start": 5.9412,
      "duration": 0.0014,
      "velocity": 103,
      "chip": "ym2612"
    },
    {
      "channel": 1,
      "note": 51,
      "start": 5.973,
      "duration": 0.1094,
      "velocity": 103,
      "chip": "ym2612"
    },
    {
      "channel": 1,
      "note": 51,
      "start": 6.1327,
      "duration": 0.1186,
      "velocity": 103,
      "chip": "ym2612"
    },
    {
      "channel": 2,
      "note": 72,
      "start": 6.1334,
      "duration": 0.1181,
      "velocity": 99,
      "chip": "ym2612"
    },
    {
      "channel": 3,
      "note": 75,
      "start": 6.1334,
      "duration": 0.1182,
      "velocity": 99,
      "chip": "ym2612"
    },
    {
      "channel": 4,
      "note": 80,
      "start": 6.1334,
      "duration": 0.1182,
      "velocity": 99,
      "chip": "ym2612"
    },
    {
      "channel": 1,
      "note": 51,
      "start": 6.3017,
      "duration": 0.1265,
      "velocity": 103,
      "chip": "ym2612"
    },
    {
      "channel": 1,
      "note": 51,
      "start": 6.4784,
      "duration": 0.0013,
      "velocity": 103,
      "chip": "ym2612"
    },
    {
      "channel": 1,
      "note": 51,
      "start": 6.4935,
      "duration": 0.126,
      "velocity": 103,
      "chip": "ym2612"
    },
    {
      "channel": 1,
      "note": 51,
      "start": 6.6697,
      "duration": 0.119,
      "velocity": 103,
      "chip": "ym2612"
    },
    {
      "channel": 2,
      "note": 70,
      "start": 6.6705,
      "duration": 0.1183,
      "velocity": 99,
      "chip": "ym2612"
    },
    {
      "channel": 3,
      "note": 79,
      "start": 6.6706,
      "duration": 0.1182,
      "velocity": 99,
      "chip": "ym2612"
    },
    {
      "channel": 4,
      "note": 75,
      "start": 6.6707,
      "duration": 0.1182,
      "velocity": 99,
      "chip": "ym2612"
    },
    {
      "channel": 1,
      "note": 51,
      "start": 6.8389,
      "duration": 0.1098,
      "velocity": 103,
      "chip": "ym2612"
    },
    {
      "channel": 1,
      "note": 51,
      "start": 6.9989,
      "duration": 0.0013,
      "velocity": 103,
      "chip": "ym2612"
    },
    {
      "channel": 0,
      "note": 77,
      "start": 7.0304,
      "duration": 0.3854,
      "velocity": 71,
      "chip": "ym2612"
    },
    {
      "channel": 1,
      "note": 49,
      "start": 7.0307,
      "duration": 0.1185,
      "velocity": 103,
      "chip": "ym2612"
    },
    {
      "channel": 2,
      "note": 68,
      "start": 7.0314,
      "duration": 0.7446,
      "velocity": 99,
      "chip": "ym2612"
    },
    {
      "channel": 3,
      "note": 73,
      "start": 7.0314,
      "duration": 0.7446,
      "velocity": 99,
      "chip": "ym2612"
    },
    {
      "channel": 4,
      "note": 77,
      "start": 7.0314,
      "duration": 0.7447,
      "velocity": 99,
      "chip": "ym2612"
    },
    {
      "channel": 1,
      "note": 49,
      "start": 7.1996,
      "duration": 0.1497,
      "velocity": 103,
      "chip": "ym2612"
    },
    {
      "channel": 0,
      "note": 75,
      "start": 7.4161,
      "duration": 0.118,
      "velocity": 71,
      "chip": "ym2612"
    },
    {
      "channel": 1,
      "note": 49,
      "start": 7.4164,
      "duration": 0.118,
      "velocity": 103,
      "chip": "ym2612"
    },
    {
      "channel": 0,
      "note": 72,
      "start": 7.5843,
      "duration": 0.0016,
      "velocity": 71,
      "chip": "ym2612"
    },
    {
      "channel": 1,
      "note": 49,
      "start": 7.5847,
      "duration": 0.0014,
      "velocity": 103,
      "chip": "ym2612"
    },
    {
      "channel": 0,
      "note": 84,
      "start": 7.5995,
      "duration": 0.3145,
      "velocity": 71,
      "chip": "ym2612"
    },
    {
      "channel": 1,
      "note": 49,
      "start": 7.5998,
      "duration": 0.1259,
      "velocity": 103,
      "chip": "ym2612"
    },
    {
      "channel": 1,
      "note": 49,
      "start": 7.7759,
      "duration": 0.0183,
      "velocity": 103,
      "chip": "ym2612"
    },
    {
      "channel": 1,
      "note": 46,
      "start": 7.8445,
      "duration": 0.0181,
      "velocity": 103,
      "chip": "ym2612"
    },
    {
      "channel": 1,
      "note": 47,
      "start": 7.9128,
      "duration": 0.0015,
      "velocity": 103,
      "chip": "ym2612"
    },
    {
      "channel": 0,
      "note": 82,
      "start": 7.9446,
      "duration": 0.3634,
      "velocity": 71,
      "chip": "ym2612"
    },
    {
      "channel": 1,
      "note": 48,
      "start": 7.9449,
      "duration": 0.0015,
      "velocity": 103,
      "chip": "ym2612"
    },
    {
      "channel": 1,
      "note": 49,
      "start": 7.9601,
      "duration": 0.0021,
      "velocity": 103,
      "chip": "ym2612"
    },
    {
      "channel": 1,
      "note": 51,
      "start": 7.9632,
      "duration": 0.135,
      "velocity": 103,
      "chip": "ym2612"
    },
    {
      "channel": 2,
      "note": 80,
      "start": 7.964,
      "duration": 0.1344,
      "velocity": 99,
      "chip": "ym2612"
    },
    {
      "channel": 3,
      "note": 75,
      "start": 7.9641,
      "duration": 0.1343,
      "velocity": 99,
      "chip": "ym2612"
    },
    {
      "channel": 4,
      "note": 72,
      "start": 7.9641,
      "duration": 0.1344,
      "velocity": 99,
      "chip": "ym2612"
    },
    {
      "channel": 1,
      "note": 51,
      "start": 8.1484,
      "duration": 0.1097,
      "velocity": 103,
      "chip": "ym2612"
    },
    {
      "channel": 0,
      "note": 84,
      "start": 8.3082,
      "duration": 0.0014,
      "velocity": 71,
      "chip": "ym2612"
    },
    {
      "channel": 1,
      "note": 51,
      "start": 8.3085,
      "duration": 0.0014,
      "velocity": 103,
      "chip": "ym2612"
    },
    {
      "channel": 0,
      "note": 77,
      "start": 8.3234,
      "duration": 0.4719,
      "velocity": 71,
      "chip": "ym2612"
    },
    {
      "channel": 1,
      "note": 51,
      "start": 8.3237,
      "duration": 0.1259,
      "velocity": 103,
      "chip": "ym2612"
    },
    {
      "channel": 1,
      "note": 51,
      "start": 8.4999,
      "duration": 0.1188,
      "velocity": 103,
      "chip": "ym2612"
    },
    {
      "channel": 2,
      "note": 70,
      "start": 8.5007,
      "duration": 0.1182,
      "velocity": 99,
      "chip": "ym2612"
    },
    {
      "channel": 3,
      "note": 79,
      "start": 8.5008,
      "duration": 0.1182,
      "velocity": 99,
      "chip": "ym2612"
    },
    {
      "channel": 4,
      "note": 75,
      "start": 8.5008,
      "duration": 0.1182,
      "velocity": 99,
      "chip": "ym2612"
    },
    {
      "channel": 1,
      "note": 51,
      "start": 8.669,
      "duration": 0.1265,
      "velocity": 103,
      "chip": "ym2612"
    },
    {
      "channel": 0,
      "note": 89,
      "start": 8.8456,
      "duration": 0.1245,
      "velocity": 71,
      "chip": "ym2612"
    },
    {
      "channel": 1,
      "note": 51,
      "start": 8.8459,
      "duration": 0.0014,
      "velocity": 103,
      "chip": "ym2612"
    },
    {
      "channel": 1,
      "note": 51,
      "start": 8.861,
      "duration": 0.1094,
      "velocity": 103,
      "chip": "ym2612"
    },
    {
      "channel": 0,
      "note": 87,
      "start": 9.0204,
      "duration": 0.3471,
      "velocity": 71,
      "chip": "ym2612"
    },
    {
      "channel": 1,
      "note": 51,
      "start": 9.0207,
      "duration": 0.1354,
      "velocity": 103,
      "chip": "ym2612"
    },
    {
      "channel": 2,
      "note": 67,
      "start": 9.0215,
      "duration": 0.1348,
      "velocity": 99,
      "chip": "ym2612"
    },
    {
      "channel": 3,
      "note": 75,
      "start": 9.0215,
      "duration": 0.1348,
      "velocity": 99,
      "chip": "ym2612"
    },
    {
      "channel": 4,
      "note": 70,
      "start": 9.0216,
      "duration": 0.1348,
      "velocity": 99,
      "chip": "ym2612"
    },
    {
      "channel": 1,
      "note": 51,
      "start": 9.2065,
      "duration": 0.1097,
      "velocity": 103,
      "chip": "ym2612"
    },
    {
      "channel": 1,
      "note": 51,
      "start": 9.3665,
      "duration": 0.0013,
      "velocity": 103,
      "chip": "ym2612"
    },
    {
      "channel": 0,
      "note": 84,
      "start": 9.398,
      "duration": 0.4633,
      "velocity": 71,
      "chip": "ym2612"
    },
    {
      "channel": 1,
      "note": 51,
      "start": 9.3983,
      "duration": 0.1182,
      "velocity": 103,
      "chip": "ym2612"
    },
    {
      "channel": 2,
      "note": 68,
      "start": 9.3989,
      "duration": 0.2774,
      "velocity": 99,
      "chip": "ym2612"
    },
    {
      "channel": 3,
      "note": 72,
      "start": 9.399,
      "duration": 0.2774,
      "velocity": 99,
      "chip": "ym2612"
    },
    {
      "channel": 4,
      "note": 75,
      "start": 9.3991,
      "duration": 0.2774,
      "velocity": 99,
      "chip": "ym2612"
    },
    {
      "channel": 1,
      "note": 51,
      "start": 9.5668,
      "duration": 0.1094,
      "velocity": 103,
      "chip": "ym2612"
    },
    {
      "channel": 1,
      "note": 51,
      "start": 9.7264,
      "duration": 0.1352,
      "velocity": 103,
      "chip": "ym2612"
    },
    {
      "channel": 0,
      "note": 87,
      "start": 9.9117,
      "duration": 0.1245,
      "velocity": 71,
      "chip": "ym2612"
    },
    {
      "channel": 1,
      "note": 51,
      "start": 9.912,
      "duration": 0.0012,
      "velocity": 103,
      "chip": "ym2612"
    },
    {
      "channel": 1,
      "note": 51,
      "start": 9.927,
      "duration": 0.1095,
      "velocity": 103,
      "chip": "ym2612"
    },
    {
      "channel": 0,
      "note": 85,
      "start": 10.0864,
      "duration": 0.3468,
      "velocity": 71,
      "chip": "ym2612"
    },
    {
      "channel": 1,
      "note": 51,
      "start": 10.0868,
      "duration": 0.1351,
      "velocity": 103,
      "chip": "ym2612"
    },
    {
      "channel": 2,
      "note": 77,
      "start": 10.0874,
      "duration": 0.1345,
      "velocity": 99,
      "chip": "ym2612"
    },
    {
      "channel": 3,
      "note": 73,
      "start": 10.0875,
      "duration": 0.1345,
      "velocity": 99,
      "chip": "ym2612"
    },
    {
      "channel": 4,
      "note": 80,
      "start": 10.0876,
      "duration": 0.1345,
      "velocity": 99,
      "chip": "ym2612"
    },
    {
      "channel": 1,
      "note": 51,
      "start": 10.2721,
      "duration": 0.1098,
      "velocity": 103,
      "chip": "ym2612"
    },
    {
      "channel": 1,
      "note": 51,
      "start": 10.4321,
      "duration": 0.0015,
      "velocity": 103,
      "chip": "ym2612"
    },
    {
      "channel": 0,
      "note": 84,
      "start": 10.4637,
      "duration": 0.4551,
      "velocity": 71,
      "chip": "ym2612"
    },
    {
      "channel": 1,
      "note": 51,
      "start": 10.464,
      "duration": 0.1094,
      "velocity": 103,
      "chip": "ym2612"
    },
    {
      "channel": 1,
      "note": 51,
      "start": 10.6237,
      "duration": 0.1186,
      "velocity": 103,
      "chip": "ym2612"
    },
    {
      "channel": 2,
      "note": 70,
      "start": 10.6244,
      "duration": 0.1181,
      "velocity": 99,
      "chip": "ym2612"
    },
    {
      "channel": 3,
      "note": 79,
      "start": 10.6244,
      "duration": 0.1181,
      "velocity": 99,
      "chip": "ym2612"
    },
    {
      "channel": 4,
      "note": 75,
      "start": 10.6244,
      "duration": 0.1181,
      "velocity": 99,
      "chip": "ym2612"
    },
    {
      "channel": 1,
      "note": 51,
      "start": 10.7926,
      "duration": 0.1265,
      "velocity": 103,
      "chip": "ym2612"
    },
    {
      "channel": 0,
      "note": 85,
      "start": 10.969,
      "duration": 0.0014,
      "velocity": 71,
      "chip": "ym2612"
    },
    {
      "channel": 1,
      "note": 51,
      "start": 10.9693,
      "duration": 0.0015,
      "velocity": 103,
      "chip": "ym2612"
    },
    {
      "channel": 0,
      "note": 84,
      "start": 10.9842,
      "duration": 0.3853,
      "velocity": 71,
      "chip": "ym2612"
    },
    {
      "channel": 1,
      "note": 49,
      "start": 10.9846,
      "duration": 0.1183,
      "velocity": 103,
      "chip": "ym2612"
    },
    {
      "channel": 2,
      "note": 68,
      "start": 10.9854,
      "duration": 0.7444,
      "velocity": 99,
      "chip": "ym2612"
    },
    {
      "channel": 3,
      "note": 73,
      "start": 10.9855,
      "duration": 0.7444,
      "velocity": 99,
      "chip": "ym2612"
    },
    {
      "channel": 4,
      "note": 77,
      "start": 10.9855,
      "duration": 0.7445,
      "velocity": 99,
      "chip": "ym2612"
    },
    {
      "channel": 1,
      "note": 49,
      "start": 11.1699,
      "duration": 0.1497,
      "velocity": 103,
      "chip": "ym2612"
    },
    {
      "channel": 0,
      "note": 82,
      "start": 11.3697,
      "duration": 0.1181,
      "velocity": 71,
      "chip": "ym2612"
    },
    {
      "channel": 1,
      "note": 49,
      "start": 11.37,
      "duration": 0.1181,
      "velocity": 103,
      "chip": "ym2612"
    },
    {
      "channel": 0,
      "note": 80,
      "start": 11.5381,
      "duration": 0.1412,
      "velocity": 71,
      "chip": "ym2612"
    },
    {
      "channel": 1,
      "note": 49,
      "start": 11.5384,
      "duration": 0.0014,
      "velocity": 103,
      "chip": "ym2612"
    },
    {
      "channel": 1,
      "note": 49,
      "start": 11.5701,
      "duration": 0.1095,
      "velocity": 103,
      "chip": "ym2612"
    },
    {
      "channel": 0,
      "note": 82,
      "start": 11.7296,
      "duration": 0.0069,
      "velocity": 71,
      "chip": "ym2612"
    },
    {
      "channel": 1,
      "note": 49,
      "start": 11.7298,
      "duration": 0.0043,
      "velocity": 103,
      "chip": "ym2612"
    },
    {
      "channel": 1,
      "note": 49,
      "start": 11.7352,
      "duration": 0.0015,
      "velocity": 103,
      "chip": "ym2612"
    },
    {
      "channel": 0,
      "note": 80,
      "start": 11.7391,
      "duration": 0.1007,
      "velocity": 71,
      "chip": "ym2612"
    },
    {
      "channel": 1,
      "note": 49,
      "start": 11.7394,
      "duration": 0.0013,
      "velocity": 103,
      "chip": "ym2612"
    },
    {
      "channel": 1,
      "note": 49,
      "start": 11.7545,
      "duration": 0.0856,
      "velocity": 103,
      "chip": "ym2612"
    },
    {
      "channel": 0,
      "note": 77,
      "start": 11.8902,
      "duration": 0.2782,
      "velocity": 71,
      "chip": "ym2612"
    },
    {
      "channel": 1,
      "note": 51,
      "start": 11.8904,
      "duration": 0.1182,
      "velocity": 103,
      "chip": "ym2612"
    },
    {
      "channel": 2,
      "note": 80,
      "start": 11.8911,
      "duration": 0.1176,
      "velocity": 99,
      "chip": "ym2612"
    },
    {
      "channel": 3,
      "note": 75,
      "start": 11.8911,
      "duration": 0.1177,
      "velocity": 99,
      "chip": "ym2612"
    },
    {
      "channel": 4,
      "note": 72,
      "start": 11.8912,
      "duration": 0.1177,
      "velocity": 99,
      "chip": "ym2612"
    },
    {
      "channel": 1,
      "note": 51,
      "start": 12.0589,
      "duration": 0.1099,
      "velocity": 103,
      "chip": "ym2612"
    },
    {
      "channel": 0,
      "note": 75,
      "start": 12.2188,
      "duration": 0.0018,
      "velocity": 71,
      "chip": "ym2612"
    },
    {
      "channel": 1,
      "note": 51,
      "start": 12.2191,
      "duration": 0.0017,
      "velocity": 103,
      "chip": "ym2612"
    },
    {
      "channel": 0,
      "note": 77,
      "start": 12.2507,
      "duration": 0.2951,
      "velocity": 71,
      "chip": "ym2612"
    },
    {
      "channel": 1,
      "note": 51,
      "start": 12.2511,
      "duration": 0.1093,
      "velocity": 103,
      "chip": "ym2612"
    },
    {
      "channel": 1,
      "note": 51,
      "start": 12.4106,
      "duration": 0.1356,
      "velocity": 103,
      "chip": "ym2612"
    },
    {
      "channel": 2,
      "note": 70,
      "start": 12.4114,
      "duration": 0.1349,
      "velocity": 99,
      "chip": "ym2612"
    },
    {
      "channel": 3,
      "note": 79,
      "start": 12.4114,
      "duration": 0.135,
      "velocity": 99,
      "chip": "ym2612"
    },
    {
      "channel": 4,
      "note": 75,
      "start": 12.4115,
      "duration": 0.135,
      "velocity": 99,
      "chip": "ym2612"
    },
    {
      "channel": 0,
      "note": 75,
      "start": 12.5961,
      "duration": 0.1614,
      "velocity": 71,
      "chip": "ym2612"
    },
    {
      "channel": 1,
      "note": 51,
      "start": 12.5965,
      "duration": 0.1097,
      "velocity": 103,
      "chip": "ym2612"
    },
    {
      "channel": 1,
      "note": 51,
      "start": 12.7564,
      "duration": 0.0014,
      "velocity": 103,
      "chip": "ym2612"
    },
    {
      "channel": 0,
      "note": 72,
      "start": 12.7713,
      "duration": 0.1259,
      "velocity": 71,
      "chip": "ym2612"
    },
    {
      "channel": 1,
      "note": 51,
      "start": 12.7716,
      "duration": 0.126,
      "velocity": 103,
      "chip": "ym2612"
    },
    {
      "channel": 0,
      "note": 70,
      "start": 12.9476,
      "duration": 0.2785,
      "velocity": 71,
      "chip": "ym2612"
    },
    {
      "channel": 1,
      "note": 51,
      "start": 12.9479,
      "duration": 0.1184,
      "velocity": 103,
      "chip": "ym2612"
    },
    {
      "channel": 2,
      "note": 67,
      "start": 12.9487,
      "duration": 0.1178,
      "velocity": 99,
      "chip": "ym2612"
    },
    {
      "channel": 3,
      "note": 75,
      "start": 12.9487,
      "duration": 0.1178,
      "velocity": 99,
      "chip": "ym2612"
    },
    {
      "channel": 4,
      "note": 70,
      "start": 12.9487,
      "duration": 0.1178,
      "velocity": 99,
      "chip": "ym2612"
    },
    {
      "channel": 1,
      "note": 51,
      "start": 13.1166,
      "duration": 0.1099,
      "velocity": 103,
      "chip": "ym2612"
    },
    {
      "channel": 0,
      "note": 72,
      "start": 13.2931,
      "duration": 0.0014,
      "velocity": 71,
      "chip": "ym2612"
    },
    {
      "channel": 1,
      "note": 51,
      "start": 13.2934,
      "duration": 0.0012,
      "velocity": 103,
      "chip": "ym2612"
    },
    {
      "channel": 0,
      "note": 70,
      "start": 13.3082,
      "duration": 0.2951,
      "velocity": 71,
      "chip": "ym2612"
    },
    {
      "channel": 1,
      "note": 51,
      "start": 13.3085,
      "duration": 0.1187,
      "velocity": 103,
      "chip": "ym2612"
    },
    {
      "channel": 2,
      "note": 68,
      "start": 13.3093,
      "duration": 0.2945,
      "velocity": 99,
      "chip": "ym2612"
    },
    {
      "channel": 3,
      "note": 72,
      "start": 13.3093,
      "duration": 0.2945,
      "velocity": 99,
      "chip": "ym2612"
    },
    {
      "channel": 4,
      "note": 75,
      "start": 13.3094,
      "duration": 0.2945,
      "velocity": 99,
      "chip": "ym2612"
    },
    {
      "channel": 1,
      "note": 51,
      "start": 13.4775,
      "duration": 0.1262,
      "velocity": 103,
      "chip": "ym2612"
    },
    {
      "channel": 0,
      "note": 68,
      "start": 13.6536,
      "duration": 0.1701,
      "velocity": 71,
      "chip": "ym2612"
    },
    {
      "channel": 1,
      "note": 51,
      "start": 13.654,
      "duration": 0.1184,
      "velocity": 103,
      "chip": "ym2612"
    },
    {
      "channel": 1,
      "note": 51,
      "start": 13.8226,
      "duration": 0.0014,
      "velocity": 103,
      "chip": "ym2612"
    },
    {
      "channel": 0,
      "note": 67,
      "start": 13.8375,
      "duration": 0.1261,
      "velocity": 71,
      "chip": "ym2612"
    },
    {
      "channel": 1,
      "note": 51,
      "start": 13.8378,
      "duration": 0.1261,
      "velocity": 103,
      "chip": "ym2612"
    },
    {
      "channel": 0,
      "note": 68,
      "start": 14.0138,
      "duration": 0.2955,
      "velocity": 71,
      "chip": "ym2612"
    },
    {
      "channel": 1,
      "note": 51,
      "start": 14.0142,
      "duration": 0.1186,
      "velocity": 103,
      "chip": "ym2612"
    },
    {
      "channel": 2,
      "note": 80,
      "start": 14.0149,
      "duration": 0.1181,
      "velocity": 99,
      "chip": "ym2612"
    },
    {
      "channel": 3,
      "note": 75,
      "start": 14.0149,
      "duration": 0.1181,
      "velocity": 99,
      "chip": "ym2612"
    },
    {
      "channel": 4,
      "note": 72,
      "start": 14.015,
      "duration": 0.1181,
      "velocity": 99,
      "chip": "ym2612"
    },
    {
      "channel": 1,
      "note": 51,
      "start": 14.1831,
      "duration": 0.1266,
      "velocity": 103,
      "chip": "ym2612"
    },
    {
      "channel": 0,
      "note": 67,
      "start": 14.3597,
      "duration": 0.0014,
      "velocity": 71,
      "chip": "ym2612"
    },
    {
      "channel": 1,
      "note": 51,
      "start": 14.36,
      "duration": 0.0014,
      "velocity": 103,
      "chip": "ym2612"
    },
    {
      "channel": 0,
      "note": 68,
      "start": 14.3748,
      "duration": 0.2952,
      "velocity": 71,
      "chip": "ym2612"
    },
    {
      "channel": 1,
      "note": 51,
      "start": 14.3751,
      "duration": 0.1093,
      "velocity": 103,
      "chip": "ym2612"
    },
    {
      "channel": 1,
      "note": 51,
      "start": 14.5347,
      "duration": 0.1356,
      "velocity": 103,
      "chip": "ym2612"
    },
    {
      "channel": 2,
      "note": 79,
      "start": 14.5355,
      "duration": 0.1349,
      "velocity": 99,
      "chip": "ym2612"
    },
    {
      "channel": 3,
      "note": 70,
      "start": 14.5356,
      "duration": 0.1349,
      "velocity": 99,
      "chip": "ym2612"
    },
    {
      "channel": 4,
      "note": 75,
      "start": 14.5356,
      "duration": 0.1349,
      "velocity": 99,
      "chip": "ym2612"
    },
    {
      "channel": 0,
      "note": 70,
      "start": 14.7202,
      "duration": 0.1097,
      "velocity": 71,
      "chip": "ym2612"
    },
    {
      "channel": 1,
      "note": 51,
      "start": 14.7206,
      "duration": 0.1097,
      "velocity": 103,
      "chip": "ym2612"
    },
    {
      "channel": 0,
      "note": 72,
      "start": 14.8802,
      "duration": 0.0015,
      "velocity": 71,
      "chip": "ym2612"
    },
    {
      "channel": 1,
      "note": 51,
      "start": 14.8806,
      "duration": 0.0015,
      "velocity": 103,
      "chip": "ym2612"
    },
    {
      "channel": 0,
      "note": 70,
      "start": 14.9122,
      "duration": 0.3687,
      "velocity": 71,
      "chip": "ym2612"
    },
    {
      "channel": 1,
      "note": 49,
      "start": 14.9124,
      "duration": 0.1185,
      "velocity": 103,
      "chip": "ym2612"
    },
    {
      "channel": 2,
      "note": 73,
      "start": 14.913,
      "duration": 0.8893,
      "velocity": 99,
      "chip": "ym2612"
    },
    {
      "channel": 3,
      "note": 80,
      "start": 14.9131,
      "duration": 0.8893,
      "velocity": 99,
      "chip": "ym2612"
    },
    {
      "channel": 4,
      "note": 77,
      "start": 14.9132,
      "duration": 0.8893,
      "velocity": 99,
      "chip": "ym2612"
    },
    {
      "channel": 1,
      "note": 49,
      "start": 15.0813,
      "duration": 0.1497,
      "velocity": 103,
      "chip": "ym2612"
    },
    {
      "channel": 0,
      "note": 72,
      "start": 15.2811,
      "duration": 0.1347,
      "velocity": 71,
      "chip": "ym2612"
    },
    {
      "channel": 1,
      "note": 49,
      "start": 15.2814,
      "duration": 0.1347,
      "velocity": 103,
      "chip": "ym2612"
    },
    {
      "channel": 0,
      "note": 70,
      "start": 15.4661,
      "duration": 0.0016,
      "velocity": 71,
      "chip": "ym2612"
    },
    {
      "channel": 1,
      "note": 49,
      "start": 15.4665,
      "duration": 0.0014,
      "velocity": 103,
      "chip": "ym2612"
    },
    {
      "channel": 0,
      "note": 68,
      "start": 15.4813,
      "duration": 0.1094,
      "velocity": 71,
      "chip": "ym2612"
    },
    {
      "channel": 1,
      "note": 49,
      "start": 15.4815,
      "duration": 0.1094,
      "velocity": 103,
      "chip": "ym2612"
    },
    {
      "channel": 0,
      "note": 70,
      "start": 15.6576,
      "duration": 0.0051,
      "velocity": 71,
      "chip": "ym2612"
    },
    {
      "channel": 1,
      "note": 49,
      "start": 15.6579,
      "duration": 0.0022,
      "velocity": 103,
      "chip": "ym2612"
    },
    {
      "channel": 1,
      "note": 49,
      "start": 15.6612,
      "duration": 0.0017,
      "velocity": 103,
      "chip": "ym2612"
    },
    {
      "channel": 0,
      "note": 68,
      "start": 15.6636,
      "duration": 0.1371,
      "velocity": 71,
      "chip": "ym2612"
    },
    {
      "channel": 1,
      "note": 49,
      "start": 15.6639,
      "duration": 0.0686,
      "velocity": 103,
      "chip": "ym2612"
    },
    {
      "channel": 1,
      "note": 48,
      "start": 15.7332,
      "duration": 0.0678,
      "velocity": 103,
      "chip": "ym2612"
    },
    {
      "channel": 0,
      "note": 72,
      "start": 15.8019,
      "duration": 0.0519,
      "velocity": 71,
      "chip": "ym2612"
    },
    {
      "channel": 1,
      "note": 44,
      "start": 15.8022,
      "duration": 0.1186,
      "velocity": 103,
      "chip": "ym2612"
    },
    {
      "channel": 2,
      "note": 75,
      "start": 15.8029,
      "duration": 0.118,
      "velocity": 99,
      "chip": "ym2612"
    },
    {
      "channel": 3,
      "note": 68,
      "start": 15.8029,
      "duration": 0.118,
      "velocity": 99,
      "chip": "ym2612"
    },
    {
      "channel": 4,
      "note": 72,
      "start": 15.803,
      "duration": 0.118,
      "velocity": 99,
      "chip": "ym2612"
    },
    {
      "channel": 0,
      "note": 75,
      "start": 15.9041,
      "duration": 0.0676,
      "velocity": 71,
      "chip": "ym2612"
    },
    {
      "channel": 1,
      "note": 44,
      "start": 15.971,
      "duration": 0.1265,
      "velocity": 103,
      "chip": "ym2612"
    },
    {
      "channel": 0,
      "note": 77,
      "start": 16.0141,
      "duration": 0.083,
      "velocity": 71,
      "chip": "ym2612"
    },
    {
      "channel": 0,
      "note": 75,
      "start": 16.1475,
      "duration": 0.0012,
      "velocity": 71,
      "chip": "ym2612"
    },
    {
      "channel": 1,
      "note": 44,
      "start": 16.1478,
      "duration": 0.0021,
      "velocity": 103,
      "chip": "ym2612"
    },
    {
      "channel": 0,
      "note": 79,
      "start": 16.1495,
      "duration": 0.0141,
      "velocity": 71,
      "chip": "ym2612"
    },
    {
      "channel": 1,
      "note": 44,
      "start": 16.1635,
      "duration": 0.1263,
      "velocity": 103,
      "chip": "ym2612"
    },
    {
      "channel": 0,
      "note": 80,
      "start": 16.1898,
      "duration": 0.0997,
      "velocity": 71,
      "chip": "ym2612"
    },
    {
      "channel": 0,
      "note": 77,
      "start": 16.3397,
      "duration": 0.0519,
      "velocity": 71,
      "chip": "ym2612"
    },
    {
      "channel": 1,
      "note": 44,
      "start": 16.3401,
      "duration": 0.1184,
      "velocity": 103,
      "chip": "ym2612"
    },
    {
      "channel": 2,
      "note": 73,
      "start": 16.3408,
      "duration": 0.1178,
      "velocity": 99,
      "chip": "ym2612"
    },
    {
      "channel": 3,
      "note": 77,
      "start": 16.3408,
      "duration": 0.1179,
      "velocity": 99,
      "chip": "ym2612"
    },
    {
      "channel": 4,
      "note": 80,
      "start": 16.3409,
      "duration": 0.1179,
      "velocity": 99,
      "chip": "ym2612"
    },
    {
      "channel": 0,
      "note": 82,
      "start": 16.4419,
      "duration": 0.0675,
      "velocity": 71,
      "chip": "ym2612"
    },
    {
      "channel": 1,
      "note": 44,
      "start": 16.5087,
      "duration": 0.1098,
      "velocity": 103,
      "chip": "ym2612"
    },
    {
      "channel": 0,
      "note": 80,
      "start": 16.5352,
      "duration": 0.083,
      "velocity": 71,
      "chip": "ym2612"
    },
    {
      "channel": 0,
      "note": 75,
      "start": 16.6685,
      "duration": 0.0014,
      "velocity": 71,
      "chip": "ym2612"
    },
    {
      "channel": 1,
      "note": 44,
      "start": 16.6689,
      "duration": 0.0024,
      "velocity": 103,
      "chip": "ym2612"
    },
    {
      "channel": 0,
      "note": 80,
      "start": 16.6708,
      "duration": 0.0306,
      "velocity": 71,
      "chip": "ym2612"
    },
    {
      "channel": 1,
      "note": 44,
      "start": 16.7013,
      "duration": 0.1096,
      "velocity": 103,
      "chip": "ym2612"
    },
    {
      "channel": 0,
      "note": 79,
      "start": 16.7276,
      "duration": 0.083,
      "velocity": 71,
      "chip": "ym2612"
    },
    {
      "channel": 0,
      "note": 72,
      "start": 16.8608,
      "duration": 0.052,
      "velocity": 71,
      "chip": "ym2612"
    },
    {
      "channel": 1,
      "note": 44,
      "start": 16.8612,
      "duration": 0.1186,
      "velocity": 103,
      "chip": "ym2612"
    },
    {
      "channel": 2,
      "note": 75,
      "start": 16.862,
      "duration": 0.118,
      "velocity": 99,
      "chip": "ym2612"
    },
    {
      "channel": 3,
      "note": 84,
      "start": 16.862,
      "duration": 0.118,
      "velocity": 99,
      "chip": "ym2612"
    },
    {
      "channel": 4,
      "note": 80,
      "start": 16.8621,
      "duration": 0.118,
      "velocity": 99,
      "chip": "ym2612"
    },
    {
      "channel": 0,
      "note": 77,
      "start": 16.9632,
      "duration": 0.0842,
      "velocity": 71,
      "chip": "ym2612"
    },
    {
      "channel": 1,
      "note": 44,
      "start": 17.0467,
      "duration": 0.1099,
      "velocity": 103,
      "chip": "ym2612"
    },
    {
      "channel": 0,
      "note": 79,
      "start": 17.0732,
      "duration": 0.083,
      "velocity": 71,
      "chip": "ym2612"
    },
    {
      "channel": 0,
      "note": 75,
      "start": 17.2065,
      "duration": 0.0012,
      "velocity": 71,
      "chip": "ym2612"
    },
    {
      "channel": 1,
      "note": 44,
      "start": 17.2069,
      "duration": 0.0021,
      "velocity": 103,
      "chip": "ym2612"
    },
    {
      "channel": 0,
      "note": 82,
      "start": 17.2086,
      "duration": 0.0151,
      "velocity": 71,
      "chip": "ym2612"
    },
    {
      "channel": 1,
      "note": 44,
      "start": 17.2227,
      "duration": 0.1354,
      "velocity": 103,
      "chip": "ym2612"
    },
    {
      "channel": 2,
      "note": 75,
      "start": 17.2234,
      "duration": 0.4632,
      "velocity": 99,
      "chip": "ym2612"
    },
    {
      "channel": 3,
      "note": 79,
      "start": 17.2234,
      "duration": 0.4632,
      "velocity": 99,
      "chip": "ym2612"
    },
    {
      "channel": 4,
      "note": 82,
      "start": 17.2235,
      "duration": 0.4632,
      "velocity": 99,
      "chip": "ym2612"
    },
    {
      "channel": 0,
      "note": 80,
      "start": 17.2581,
      "duration": 0.0997,
      "velocity": 71,
      "chip": "ym2612"
    },
    {
      "channel": 0,
      "note": 79,
      "start": 17.4081,
      "duration": 0.0429,
      "velocity": 71,
      "chip": "ym2612"
    },
    {
      "channel": 1,
      "note": 44,
      "start": 17.4085,
      "duration": 0.1095,
      "velocity": 103,
      "chip": "ym2612"
    },
    {
      "channel": 0,
      "note": 77,
      "start": 17.5013,
      "duration": 0.067,
      "velocity": 71,
      "chip": "ym2612"
    },
    {
      "channel": 1,
      "note": 44,
      "start": 17.5682,
      "duration": 0.1182,
      "velocity": 103,
      "chip": "ym2612"
    },
    {
      "channel": 0,
      "note": 80,
      "start": 17.6031,
      "duration": 0.083,
      "velocity": 71,
      "chip": "ym2612"
    },
    {
      "channel": 0,
      "note": 84,
      "start": 17.7364,
      "duration": 0.0028,
      "velocity": 71,
      "chip": "ym2612"
    },
    {
      "channel": 1,
      "note": 44,
      "start": 17.7367,
      "duration": 0.0036,
      "velocity": 103,
      "chip": "ym2612"
    },
    {
      "channel": 2,
      "note": 73,
      "start": 17.7375,
      "duration": 0.142,
      "velocity": 99,
      "chip": "ym2612"
    },
    {
      "channel": 3,
      "note": 77,
      "start": 17.7376,
      "duration": 0.142,
      "velocity": 99,
      "chip": "ym2612"
    },
    {
      "channel": 4,
      "note": 80,
      "start": 17.7376,
      "duration": 0.1421,
      "velocity": 99,
      "chip": "ym2612"
    },
    {
      "channel": 0,
      "note": 82,
      "start": 17.7399,
      "duration": 0.03,
      "velocity": 71,
      "chip": "ym2612"
    },
    {
      "channel": 1,
      "note": 44,
      "start": 17.7698,
      "duration": 0.1097,
      "velocity": 103,
      "chip": "ym2612"
    },
    {
      "channel": 0,
      "note": 80,
      "start": 17.7961,
      "duration": 0.083,
      "velocity": 71,
      "chip": "ym2612"
    },
    {
      "channel": 0,
      "note": 82,
      "start": 17.9294,
      "duration": 0.1352,
      "velocity": 71,
      "chip": "ym2612"
    },
    {
      "channel": 1,
      "note": 44,
      "start": 17.9298,
      "duration": 0.1352,
      "velocity": 103,
      "chip": "ym2612"
    },
    {
      "channel": 2,
      "note": 73,
      "start": 17.9305,
      "duration": 0.1346,
      "velocity": 99,
      "chip": "ym2612"
    },
    {
      "channel": 3,
      "note": 80,
      "start": 17.9306,
      "duration": 0.1346,
      "velocity": 99,
      "chip": "ym2612"
    },
    {
      "channel": 4,
      "note": 77,
      "start": 17.9306,
      "duration": 0.1347,
      "velocity": 99,
      "chip": "ym2612"
    },
    {
      "channel": 1,
      "note": 44,
      "start": 18.1152,
      "duration": 0.1097,
      "velocity": 103,
      "chip": "ym2612"
    },
    {
      "channel": 1,
      "note": 44,
      "start": 18.275,
      "duration": 0.0012,
      "velocity": 103,
      "chip": "ym2612"
    },
    {
      "channel": 0,
      "note": 79,
      "start": 18.2898,
      "duration": 1.7611,
      "velocity": 71,
      "chip": "ym2612"
    },
    {
      "channel": 1,
      "note": 51,
      "start": 18.2902,
      "duration": 0.1352,
      "velocity": 103,
      "chip": "ym2612"
    },
    {
      "channel": 2,
      "note": 70,
      "start": 18.2909,
      "duration": 1.4091,
      "velocity": 99,
      "chip": "ym2612"
    },
    {
      "channel": 3,
      "note": 79,
      "start": 18.291,
      "duration": 1.4091,
      "velocity": 99,
      "chip": "ym2612"
    },
    {
      "channel": 4,
      "note": 75,
      "start": 18.291,
      "duration": 1.4091,
      "velocity": 99,
      "chip": "ym2612"
    },
    {
      "channel": 1,
      "note": 51,
      "start": 18.4756,
      "duration": 0.1094,
      "velocity": 103,
      "chip": "ym2612"
    },
    {
      "channel": 1,
      "note": 51,
      "start": 18.6353,
      "duration": 0.1181,
      "velocity": 103,
      "chip": "ym2612"
    },
    {
      "channel": 1,
      "note": 51,
      "start": 18.8202,
      "duration": 0.0015,
      "velocity": 103,
      "chip": "ym2612"
    },
    {
      "channel": 1,
      "note": 51,
      "start": 18.8356,
      "duration": 0.1094,
      "velocity": 103,
      "chip": "ym2612"
    },
    {
      "channel": 1,
      "note": 51,
      "start": 18.9953,
      "duration": 0.1349,
      "velocity": 103,
      "chip": "ym2612"
    },
    {
      "channel": 1,
      "note": 51,
      "start": 19.1805,
      "duration": 0.1094,
      "velocity": 103,
      "chip": "ym2612"
    },
    {
      "channel": 1,
      "note": 51,
      "start": 19.3401,
      "duration": 0.0015,
      "velocity": 103,
      "chip": "ym2612"
    },
    {
      "channel": 1,
      "note": 51,
      "start": 19.372,
      "duration": 0.1094,
      "velocity": 103,
      "chip": "ym2612"
    },
    {
      "channel": 1,
      "note": 51,
      "start": 19.5316,
      "duration": 0.118,
      "velocity": 103,
      "chip": "ym2612"
    },
    {
      "channel": 1,
      "note": 51,
      "start": 19.7,
      "duration": 0.1263,
      "velocity": 103,
      "chip": "ym2612"
    },
    {
      "channel": 1,
      "note": 51,
      "start": 19.8764,
      "duration": 0.0015,
      "velocity": 103,
      "chip": "ym2612"
    },
    {
      "channel": 1,
      "note": 51,
      "start": 19.8917,
      "duration": 0.1094,
      "velocity": 103,
      "chip": "ym2612"
    },
    {
      "channel": 0,
      "note": 72,
      "start": 20.0511,
      "duration": 0.0685,
      "velocity": 71,
      "chip": "ym2612"
    },
    {
      "channel": 1,
      "note": 44,
      "start": 20.0515,
      "duration": 0.1351,
      "velocity": 103,
      "chip": "ym2612"
    },
    {
      "channel": 2,
      "note": 75,
      "start": 20.0521,
      "duration": 0.1346,
      "velocity": 99,
      "chip": "ym2612"
    },
    {
      "channel": 3,
      "note": 68,
      "start": 20.0522,
      "duration": 0.1346,
      "velocity": 99,
      "chip": "ym2612"
    },
    {
      "channel": 4,
      "note": 72,
      "start": 20.0523,
      "duration": 0.1346,
      "velocity": 99,
      "chip": "ym2612"
    },
    {
      "channel": 0,
      "note": 82,
      "start": 20.17,
      "duration": 0.0676,
      "velocity": 71,
      "chip": "ym2612"
    },
    {
      "channel": 1,
      "note": 44,
      "start": 20.2368,
      "duration": 0.1101,
      "velocity": 103,
      "chip": "ym2612"
    },
    {
      "channel": 0,
      "note": 80,
      "start": 20.2635,
      "duration": 0.083,
      "velocity": 71,
      "chip": "ym2612"
    },
    {
      "channel": 0,
      "note": 75,
      "start": 20.3968,
      "duration": 0.0012,
      "velocity": 71,
      "chip": "ym2612"
    },
    {
      "channel": 1,
      "note": 44,
      "start": 20.3972,
      "duration": 0.0023,
      "velocity": 103,
      "chip": "ym2612"
    },
    {
      "channel": 0,
      "note": 80,
      "start": 20.3988,
      "duration": 0.0308,
      "velocity": 71,
      "chip": "ym2612"
    },
    {
      "channel": 1,
      "note": 44,
      "start": 20.4295,
      "duration": 0.1096,
      "velocity": 103,
      "chip": "ym2612"
    },
    {
      "channel": 0,
      "note": 79,
      "start": 20.4559,
      "duration": 0.083,
      "velocity": 71,
      "chip": "ym2612"
    },
    {
      "channel": 0,
      "note": 77,
      "start": 20.5892,
      "duration": 0.052,
      "velocity": 71,
      "chip": "ym2612"
    },
    {
      "channel": 1,
      "note": 44,
      "start": 20.5896,
      "duration": 0.1186,
      "velocity": 103,
      "chip": "ym2612"
    },
    {
      "channel": 2,
      "note": 73,
      "start": 20.5903,
      "duration": 0.118,
      "velocity": 99,
      "chip": "ym2612"
    },
    {
      "channel": 3,
      "note": 77,
      "start": 20.5903,
      "duration": 0.118,
      "velocity": 99,
      "chip": "ym2612"
    },
    {
      "channel": 4,
      "note": 80,
      "start": 20.5905,
      "duration": 0.118,
      "velocity": 99,
      "chip": "ym2612"
    },
    {
      "channel": 0,
      "note": 82,
      "start": 20.6915,
      "duration": 0.0676,
      "velocity": 71,
      "chip": "ym2612"
    },
    {
      "channel": 1,
      "note": 44,
      "start": 20.7584,
      "duration": 0.1267,
      "velocity": 103,
      "chip": "ym2612"
    },
    {
      "channel": 0,
      "note": 80,
      "start": 20.8017,
      "duration": 0.083,
      "velocity": 71,
      "chip": "ym2612"
    },
    {
      "channel": 0,
      "note": 75,
      "start": 20.935,
      "duration": 0.001,
      "velocity": 71,
      "chip": "ym2612"
    },
    {
      "channel": 1,
      "note": 44,
      "start": 20.9354,
      "duration": 0.0017,
      "velocity": 103,
      "chip": "ym2612"
    },
    {
      "channel": 0,
      "note": 84,
      "start": 20.9367,
      "duration": 0.0141,
      "velocity": 71,
      "chip": "ym2612"
    },
    {
      "channel": 1,
      "note": 44,
      "start": 20.9507,
      "duration": 0.1097,
      "velocity": 103,
      "chip": "ym2612"
    },
    {
      "channel": 0,
      "note": 82,
      "start": 20.9771,
      "duration": 0.083,
      "velocity": 71,
      "chip": "ym2612"
    },
    {
      "channel": 0,
      "note": 77,
      "start": 21.1271,
      "duration": 0.0519,
      "velocity": 71,
      "chip": "ym2612"
    },
    {
      "channel": 1,
      "note": 44,
      "start": 21.1274,
      "duration": 0.1185,
      "velocity": 103,
      "chip": "ym2612"
    },
    {
      "channel": 2,
      "note": 75,
      "start": 21.1281,
      "duration": 0.1179,
      "velocity": 99,
      "chip": "ym2612"
    },
    {
      "channel": 3,
      "note": 84,
      "start": 21.1282,
      "duration": 0.1179,
      "velocity": 99,
      "chip": "ym2612"
    },
    {
      "channel": 4,
      "note": 80,
      "start": 21.1282,
      "duration": 0.1179,
      "velocity": 99,
      "chip": "ym2612"
    },
    {
      "channel": 0,
      "note": 85,
      "start": 21.2293,
      "duration": 0.0675,
      "velocity": 71,
      "chip": "ym2612"
    },
    {
      "channel": 1,
      "note": 44,
      "start": 21.2961,
      "duration": 0.1099,
      "velocity": 103,
      "chip": "ym2612"
    },
    {
      "channel": 0,
      "note": 84,
      "start": 21.3226,
      "duration": 0.083,
      "velocity": 71,
      "chip": "ym2612"
    },
    {
      "channel": 0,
      "note": 79,
      "start": 21.4559,
      "duration": 0.0012,
      "velocity": 71,
      "chip": "ym2612"
    },
    {
      "channel": 1,
      "note": 44,
      "start": 21.4563,
      "duration": 0.0022,
      "velocity": 103,
      "chip": "ym2612"
    },
    {
      "channel": 0,
      "note": 84,
      "start": 21.4581,
      "duration": 0.0313,
      "velocity": 71,
      "chip": "ym2612"
    },
    {
      "channel": 1,
      "note": 44,
      "start": 21.4884,
      "duration": 0.1188,
      "velocity": 103,
      "chip": "ym2612"
    },
    {
      "channel": 2,
      "note": 75,
      "start": 21.4891,
      "duration": 0.4632,
      "velocity": 99,
      "chip": "ym2612"
    },
    {
      "channel": 3,
      "note": 79,
      "start": 21.4892,
      "duration": 0.4632,
      "velocity": 99,
      "chip": "ym2612"
    },
    {
      "channel": 4,
      "note": 82,
      "start": 21.4892,
      "duration": 0.4633,
      "velocity": 99,
      "chip": "ym2612"
    },
    {
      "channel": 0,
      "note": 82,
      "start": 21.5239,
      "duration": 0.083,
      "velocity": 71,
      "chip": "ym2612"
    },
    {
      "channel": 0,
      "note": 77,
      "start": 21.6571,
      "duration": 0.043,
      "velocity": 71,
      "chip": "ym2612"
    },
    {
      "channel": 1,
      "note": 44,
      "start": 21.6576,
      "duration": 0.1096,
      "velocity": 103,
      "chip": "ym2612"
    },
    {
      "channel": 0,
      "note": 82,
      "start": 21.7505,
      "duration": 0.0681,
      "velocity": 71,
      "chip": "ym2612"
    },
    {
      "channel": 1,
      "note": 44,
      "start": 21.8173,
      "duration": 0.1349,
      "velocity": 103,
      "chip": "ym2612"
    },
    {
      "channel": 0,
      "note": 80,
      "start": 21.8689,
      "duration": 0.083,
      "velocity": 71,
      "chip": "ym2612"
    },
    {
      "channel": 0,
      "note": 79,
      "start": 22.0022,
      "duration": 0.0028,
      "velocity": 71,
      "chip": "ym2612"
    },
    {
      "channel": 1,
      "note": 44,
      "start": 22.0026,
      "duration": 0.0035,
      "velocity": 103,
      "chip": "ym2612"
    },
    {
      "channel": 2,
      "note": 73,
      "start": 22.0034,
      "duration": 0.1419,
      "velocity": 99,
      "chip": "ym2612"
    },
    {
      "channel": 3,
      "note": 77,
      "start": 22.0034,
      "duration": 0.142,
      "velocity": 99,
      "chip": "ym2612"
    },
    {
      "channel": 4,
      "note": 80,
      "start": 22.0034,
      "duration": 0.142,
      "velocity": 99,
      "chip": "ym2612"
    },
    {
      "channel": 0,
      "note": 85,
      "start": 22.0058,
      "duration": 0.0132,
      "velocity": 71,
      "chip": "ym2612"
    },
    {
      "channel": 1,
      "note": 44,
      "start": 22.0188,
      "duration": 0.1263,
      "velocity": 103,
      "chip": "ym2612"
    },
    {
      "channel": 0,
      "note": 84,
      "start": 22.0451,
      "duration": 0.0997,
      "velocity": 71,
      "chip": "ym2612"
    },
    {
      "channel": 0,
      "note": 87,
      "start": 22.1951,
      "duration": 0.1188,
      "velocity": 71,
      "chip": "ym2612"
    },
    {
      "channel": 1,
      "note": 46,
      "start": 22.1956,
      "duration": 0.1186,
      "velocity": 103,
      "chip": "ym2612"
    },
    {
      "channel": 2,
      "note": 80,
      "start": 22.1963,
      "duration": 0.118,
      "velocity": 99,
      "chip": "ym2612"
    },
    {
      "channel": 3,
      "note": 84,
      "start": 22.1965,
      "duration": 0.1179,
      "velocity": 99,
      "chip": "ym2612"
    },
    {
      "channel": 4,
      "note": 87,
      "start": 22.1965,
      "duration": 0.118,
      "velocity": 99,
      "chip": "ym2612"
    },
    {
      "channel": 1,
      "note": 46,
      "start": 22.3644,
      "duration": 0.1097,
      "velocity": 103,
      "chip": "ym2612"
    },
    {
      "channel": 1,
      "note": 46,
      "start": 22.5243,
      "duration": 0.0015,
      "velocity": 103,
      "chip": "ym2612"
    },
    {
      "channel": 0,
      "note": 82,
      "start": 22.5559,
      "duration": 1.4142,
      "velocity": 71,
      "chip": "ym2612"
    },
    {
      "channel": 1,
      "note": 51,
      "start": 22.5564,
      "duration": 0.1185,
      "velocity": 103,
      "chip": "ym2612"
    },
    {
      "channel": 2,
      "note": 75,
      "start": 22.5571,
      "duration": 0.9411,
      "velocity": 99,
      "chip": "ym2612"
    },
    {
      "channel": 3,
      "note": 79,
      "start": 22.5572,
      "duration": 0.9411,
      "velocity": 99,
      "chip": "ym2612"
    },
    {
      "channel": 4,
      "note": 82,
      "start": 22.5573,
      "duration": 0.9411,
      "velocity": 99,
      "chip": "ym2612"
    },
    {
      "channel": 1,
      "note": 51,
      "start": 22.7252,
      "duration": 0.1094,
      "velocity": 103,
      "chip": "ym2612"
    },
    {
      "channel": 1,
      "note": 51,
      "start": 22.9015,
      "duration": 0.1181,
      "velocity": 103,
      "chip": "ym2612"
    },
    {
      "channel": 1,
      "note": 51,
      "start": 23.0698,
      "duration": 0.0013,
      "velocity": 103,
      "chip": "ym2612"
    },
    {
      "channel": 1,
      "note": 51,
      "start": 23.0849,
      "duration": 0.1261,
      "velocity": 103,
      "chip": "ym2612"
    },
    {
      "channel": 1,
      "note": 51,
      "start": 23.2612,
      "duration": 0.1184,
      "velocity": 103,
      "chip": "ym2612"
    },
    {
      "channel": 1,
      "note": 51,
      "start": 23.4299,
      "duration": 0.0014,
      "velocity": 103,
      "chip": "ym2612"
    },
    {
      "channel": 1,
      "note": 51,
      "start": 23.4981,
      "duration": 0.002,
      "velocity": 103,
      "chip": "ym2612"
    },
    {
      "channel": 1,
      "note": 51,
      "start": 23.5365,
      "duration": 0.0016,
      "velocity": 103,
      "chip": "ym2612"
    },
    {
      "channel": 1,
      "note": 51,
      "start": 23.5459,
      "duration": 0.0022,
      "velocity": 103,
      "chip": "ym2612"
    },
    {
      "channel": 1,
      "note": 51,
      "start": 23.5488,
      "duration": 0.0684,
      "velocity": 103,
      "chip": "ym2612"
    },
    {
      "channel": 2,
      "note": 79,
      "start": 23.5494,
      "duration": 0.0679,
      "velocity": 99,
      "chip": "ym2612"
    },
    {
      "channel": 3,
      "note": 75,
      "start": 23.5495,
      "duration": 0.0679,
      "velocity": 99,
      "chip": "ym2612"
    },
    {
      "channel": 4,
      "note": 82,
      "start": 23.5495,
      "duration": 0.0679,
      "velocity": 99,
      "chip": "ym2612"
    },
    {
      "channel": 1,
      "note": 49,
      "start": 23.6183,
      "duration": 0.0028,
      "velocity": 103,
      "chip": "ym2612"
    },
    {
      "channel": 2,
      "note": 75,
      "start": 23.619,
      "duration": 0.0054,
      "velocity": 99,
      "chip": "ym2612"
    },
    {
      "channel": 3,
      "note": 80,
      "start": 23.619,
      "duration": 0.0054,
      "velocity": 99,
      "chip": "ym2612"
    },
    {
      "channel": 4,
      "note": 84,
      "start": 23.6191,
      "duration": 0.0054,
      "velocity": 99,
      "chip": "ym2612"
    },
    {
      "channel": 1,
      "note": 49,
      "start": 23.6224,
      "duration": 0.0019,
      "velocity": 103,
      "chip": "ym2612"
    },
    {
      "channel": 1,
      "note": 49,
      "start": 23.6257,
      "duration": 0.1183,
      "velocity": 103,
      "chip": "ym2612"
    },
    {
      "channel": 2,
      "note": 77,
      "start": 23.6264,
      "duration": 0.2939,
      "velocity": 99,
      "chip": "ym2612"
    },
    {
      "channel": 3,
      "note": 82,
      "start": 23.6264,
      "duration": 0.2939,
      "velocity": 99,
      "chip": "ym2612"
    },
    {
      "channel": 4,
      "note": 85,
      "start": 23.6265,
      "duration": 0.2939,
      "velocity": 99,
      "chip": "ym2612"
    },
    {
      "channel": 1,
      "note": 49,
      "start": 23.7942,
      "duration": 0.126,
      "velocity": 103,
      "chip": "ym2612"
    },
    {
      "channel": 0,
      "note": 84,
      "start": 23.9703,
      "duration": 0.003,
      "velocity": 71,
      "chip": "ym2612"
    },
    {
      "channel": 1,
      "note": 49,
      "start": 23.9706,
      "duration": 0.003,
      "velocity": 103,
      "chip": "ym2612"
    },
    {
      "channel": 2,
      "note": 77,
      "start": 23.9714,
      "duration": 0.0022,
      "velocity": 99,
      "chip": "ym2612"
    },
    {
      "channel": 3,
      "note": 82,
      "start": 23.9716,
      "duration": 0.0021,
      "velocity": 99,
      "chip": "ym2612"
    },
    {
      "channel": 4,
      "note": 85,
      "start": 23.9716,
      "duration": 0.0022,
      "velocity": 99,
      "chip": "ym2612"
    },
    {
      "channel": 0,
      "note": 77,
      "start": 23.9864,
      "duration": 0.4632,
      "velocity": 71,
      "chip": "ym2612"
    },
    {
      "channel": 1,
      "note": 49,
      "start": 23.9867,
      "duration": 0.1186,
      "velocity": 103,
      "chip": "ym2612"
    },
    {
      "channel": 2,
      "note": 77,
      "start": 23.9874,
      "duration": 0.4626,
      "velocity": 99,
      "chip": "ym2612"
    },
    {
      "channel": 3,
      "note": 80,
      "start": 23.9875,
      "duration": 0.4626,
      "velocity": 99,
      "chip": "ym2612"
    },
    {
      "channel": 4,
      "note": 84,
      "start": 23.9875,
      "duration": 0.4627,
      "velocity": 99,
      "chip": "ym2612"
    },
    {
      "channel": 1,
      "note": 49,
      "start": 24.1555,
      "duration": 0.126,
      "velocity": 103,
      "chip": "ym2612"
    },
    {
      "channel": 1,
      "note": 49,
      "start": 24.3318,
      "duration": 0.1181,
      "velocity": 103,
      "chip": "ym2612"
    },
    {
      "channel": 0,
      "note": 89,
      "start": 24.4999,
      "duration": 0.1419,
      "velocity": 71,
      "chip": "ym2612"
    },
    {
      "channel": 1,
      "note": 49,
      "start": 24.5002,
      "duration": 0.0027,
      "velocity": 103,
      "chip": "ym2612"
    },
    {
      "channel": 2,
      "note": 79,
      "start": 24.501,
      "duration": 0.1413,
      "velocity": 99,
      "chip": "ym2612"
    },
    {
      "channel": 3,
      "note": 75,
      "start": 24.501,
      "duration": 0.1413,
      "velocity": 99,
      "chip": "ym2612"
    },
    {
      "channel": 4,
      "note": 82,
      "start": 24.5011,
      "duration": 0.1413,
      "velocity": 99,
      "chip": "ym2612"
    },
    {
      "channel": 1,
      "note": 49,
      "start": 24.5327,
      "duration": 0.1094,
      "velocity": 103,
      "chip": "ym2612"
    },
    {
      "channel": 0,
      "note": 87,
      "start": 24.6921,
      "duration": 0.1186,
      "velocity": 71,
      "chip": "ym2612"
    },
    {
      "channel": 1,
      "note": 48,
      "start": 24.6925,
      "duration": 0.1186,
      "velocity": 103,
      "chip": "ym2612"
    },
    {
      "channel": 2,
      "note": 75,
      "start": 24.6931,
      "duration": 0.2943,
      "velocity": 99,
      "chip": "ym2612"
    },
    {
      "channel": 3,
      "note": 84,
      "start": 24.6931,
      "duration": 0.2943,
      "velocity": 99,
      "chip": "ym2612"
    },
    {
      "channel": 4,
      "note": 80,
      "start": 24.6932,
      "duration": 0.2943,
      "velocity": 99,
      "chip": "ym2612"
    },
    {
      "channel": 1,
      "note": 48,
      "start": 24.8612,
      "duration": 0.1261,
      "velocity": 103,
      "chip": "ym2612"
    },
    {
      "channel": 1,
      "note": 48,
      "start": 25.0375,
      "duration": 0.0027,
      "velocity": 103,
      "chip": "ym2612"
    },
    {
      "channel": 2,
      "note": 75,
      "start": 25.0382,
      "duration": 0.0021,
      "velocity": 99,
      "chip": "ym2612"
    },
    {
      "channel": 3,
      "note": 84,
      "start": 25.0382,
      "duration": 0.0021,
      "velocity": 99,
      "chip": "ym2612"
    },
    {
      "channel": 4,
      "note": 80,
      "start": 25.0383,
      "duration": 0.0021,
      "velocity": 99,
      "chip": "ym2612"
    },
    {
      "channel": 0,
      "note": 84,
      "start": 25.053,
      "duration": 0.4632,
      "velocity": 71,
      "chip": "ym2612"
    },
    {
      "channel": 1,
      "note": 48,
      "start": 25.0533,
      "duration": 0.1186,
      "velocity": 103,
      "chip": "ym2612"
    },
    {
      "channel": 2,
      "note": 75,
      "start": 25.054,
      "duration": 0.4627,
      "velocity": 99,
      "chip": "ym2612"
    },
    {
      "channel": 3,
      "note": 82,
      "start": 25.0541,
      "duration": 0.4627,
      "velocity": 99,
      "chip": "ym2612"
    },
    {
      "channel": 4,
      "note": 79,
      "start": 25.0541,
      "duration": 0.4627,
      "velocity": 99,
      "chip": "ym2612"
    },
    {
      "channel": 1,
      "note": 48,
      "start": 25.2222,
      "duration": 0.126,
      "velocity": 103,
      "chip": "ym2612"
    },
    {
      "channel": 1,
      "note": 48,
      "start": 25.3985,
      "duration": 0.1181,
      "velocity": 103,
      "chip": "ym2612"
    },
    {
      "channel": 0,
      "note": 87,
      "start": 25.5666,
      "duration": 0.1418,
      "velocity": 71,
      "chip": "ym2612"
    },
    {
      "channel": 1,
      "note": 48,
      "start": 25.5669,
      "duration": 0.0029,
      "velocity": 103,
      "chip": "ym2612"
    },
    {
      "channel": 2,
      "note": 75,
      "start": 25.5677,
      "duration": 0.1412,
      "velocity": 99,
      "chip": "ym2612"
    },
    {
      "channel": 3,
      "note": 79,
      "start": 25.5677,
      "duration": 0.1412,
      "velocity": 99,
      "chip": "ym2612"
    },
    {
      "channel": 4,
      "note": 82,
      "start": 25.5677,
      "duration": 0.1412,
      "velocity": 99,
      "chip": "ym2612"
    },
    {
      "channel": 1,
      "note": 48,
      "start": 25.5993,
      "duration": 0.1094,
      "velocity": 103,
      "chip": "ym2612"
    },
    {
      "channel": 0,
      "note": 85,
      "start": 25.7588,
      "duration": 0.8748,
      "velocity": 71,
      "chip": "ym2612"
    },
    {
      "channel": 1,
      "note": 53,
      "start": 25.759,
      "duration": 0.1187,
      "velocity": 103,
      "chip": "ym2612"
    },
    {
      "channel": 2,
      "note": 73,
      "start": 25.7598,
      "duration": 0.8741,
      "velocity": 99,
      "chip": "ym2612"
    },
    {
      "channel": 3,
      "note": 77,
      "start": 25.7598,
      "duration": 0.8741,
      "velocity": 99,
      "chip": "ym2612"
    },
    {
      "channel": 4,
      "note": 68,
      "start": 25.7599,
      "duration": 0.874,
      "velocity": 99,
      "chip": "ym2612"
    },
    {
      "channel": 1,
      "note": 53,
      "start": 25.928,
      "duration": 0.126,
      "velocity": 103,
      "chip": "ym2612"
    },
    {
      "channel": 1,
      "note": 53,
      "start": 26.1042,
      "duration": 0.0012,
      "velocity": 103,
      "chip": "ym2612"
    },
    {
      "channel": 1,
      "note": 53,
      "start": 26.1194,
      "duration": 0.1181,
      "velocity": 103,
      "chip": "ym2612"
    },
    {
      "channel": 1,
      "note": 53,
      "start": 26.3044,
      "duration": 0.1093,
      "velocity": 103,
      "chip": "ym2612"
    },
    {
      "channel": 1,
      "note": 53,
      "start": 26.4639,
      "duration": 0.1181,
      "velocity": 103,
      "chip": "ym2612"
    },
    {
      "channel": 1,
      "note": 53,
      "start": 26.6321,
      "duration": 0.0017,
      "velocity": 103,
      "chip": "ym2612"
    },
    {
      "channel": 0,
      "note": 84,
      "start": 26.6639,
      "duration": 1.2818,
      "velocity": 71,
      "chip": "ym2612"
    },
    {
      "channel": 1,
      "note": 51,
      "start": 26.6642,
      "duration": 0.3854,
      "velocity": 103,
      "chip": "ym2612"
    },
    {
      "channel": 2,
      "note": 68,
      "start": 26.6649,
      "duration": 1.2814,
      "velocity": 99,
      "chip": "ym2612"
    },
    {
      "channel": 3,
      "note": 75,
      "start": 26.665,
      "duration": 1.2814,
      "velocity": 99,
      "chip": "ym2612"
    },
    {
      "channel": 4,
      "note": 72,
      "start": 26.6651,
      "duration": 1.2813,
      "velocity": 99,
      "chip": "ym2612"
    },
    {
      "channel": 1,
      "note": 51,
      "start": 27.0499,
      "duration": 0.1181,
      "velocity": 103,
      "chip": "ym2612"
    },
    {
      "channel": 1,
      "note": 51,
      "start": 27.2182,
      "duration": 0.0013,
      "velocity": 103,
      "chip": "ym2612"
    },
    {
      "channel": 1,
      "note": 51,
      "start": 27.2333,
      "duration": 0.126,
      "velocity": 103,
      "chip": "ym2612"
    },
    {
      "channel": 1,
      "note": 51,
      "start": 27.4097,
      "duration": 0.0863,
      "velocity": 103,
      "chip": "ym2612"
    },
    {
      "channel": 1,
      "note": 48,
      "start": 27.5461,
      "duration": 0.118,
      "velocity": 103,
      "chip": "ym2612"
    },
    {
      "channel": 1,
      "note": 49,
      "start": 27.7144,
      "duration": 0.0013,
      "velocity": 103,
      "chip": "ym2612"
    },
    {
      "channel": 1,
      "note": 51,
      "start": 27.7461,
      "duration": 0.1498,
      "velocity": 103,
      "chip": "ym2612"
    },
    {
      "channel": 0,
      "note": 82,
      "start": 27.9459,
      "duration": 0.2947,
      "velocity": 71,
      "chip": "ym2612"
    },
    {
      "channel": 1,
      "note": 49,
      "start": 27.9462,
      "duration": 0.1349,
      "velocity": 103,
      "chip": "ym2612"
    },
    {
      "channel": 2,
      "note": 77,
      "start": 27.947,
      "duration": 0.2941,
      "velocity": 99,
      "chip": "ym2612"
    },
    {
      "channel": 3,
      "note": 82,
      "start": 27.947,
      "duration": 0.2941,
      "velocity": 99,
      "chip": "ym2612"
    },
    {
      "channel": 4,
      "note": 85,
      "start": 27.9471,
      "duration": 0.2941,
      "velocity": 99,
      "chip": "ym2612"
    },
    {
      "channel": 1,
      "note": 49,
      "start": 28.1315,
      "duration": 0.1095,
      "velocity": 103,
      "chip": "ym2612"
    },
    {
      "channel": 0,
      "note": 84,
      "start": 28.2909,
      "duration": 0.003,
      "velocity": 71,
      "chip": "ym2612"
    },
    {
      "channel": 1,
      "note": 49,
      "start": 28.2912,
      "duration": 0.003,
      "velocity": 103,
      "chip": "ym2612"
    },
    {
      "channel": 2,
      "note": 77,
      "start": 28.292,
      "duration": 0.0023,
      "velocity": 99,
      "chip": "ym2612"
    },
    {
      "channel": 3,
      "note": 82,
      "start": 28.2921,
      "duration": 0.0022,
      "velocity": 99,
      "chip": "ym2612"
    },
    {
      "channel": 4,
      "note": 85,
      "start": 28.2922,
      "duration": 0.0022,
      "velocity": 99,
      "chip": "ym2612"
    },
    {
      "channel": 0,
      "note": 77,
      "start": 28.307,
      "duration": 0.4631,
      "velocity": 71,
      "chip": "ym2612"
    },
    {
      "channel": 1,
      "note": 49,
      "start": 28.3073,
      "duration": 0.1352,
      "velocity": 103,
      "chip": "ym2612"
    },
    {
      "channel": 2,
      "note": 77,
      "start": 28.3079,
      "duration": 0.4626,
      "velocity": 99,
      "chip": "ym2612"
    },
    {
      "channel": 3,
      "note": 80,
      "start": 28.308,
      "duration": 0.4626,
      "velocity": 99,
      "chip": "ym2612"
    },
    {
      "channel": 4,
      "note": 84,
      "start": 28.308,
      "duration": 0.4627,
      "velocity": 99,
      "chip": "ym2612"
    },
    {
      "channel": 1,
      "note": 49,
      "start": 28.4927,
      "duration": 0.1094,
      "velocity": 103,
      "chip": "ym2612"
    },
    {
      "channel": 1,
      "note": 49,
      "start": 28.6523,
      "duration": 0.1181,
      "velocity": 103,
      "chip": "ym2612"
    },
    {
      "channel": 0,
      "note": 91,
      "start": 28.8371,
      "duration": 0.1252,
      "velocity": 71,
      "chip": "ym2612"
    },
    {
      "channel": 1,
      "note": 49,
      "start": 28.8374,
      "duration": 0.0027,
      "velocity": 103,
      "chip": "ym2612"
    },
    {
      "channel": 2,
      "note": 79,
      "start": 28.8382,
      "duration": 0.1245,
      "velocity": 99,
      "chip": "ym2612"
    },
    {
      "channel": 3,
      "note": 75,
      "start": 28.8382,
      "duration": 0.1246,
      "velocity": 99,
      "chip": "ym2612"
    },
    {
      "channel": 4,
      "note": 82,
      "start": 28.8383,
      "duration": 0.1246,
      "velocity": 99,
      "chip": "ym2612"
    },
    {
      "channel": 1,
      "note": 49,
      "start": 28.8532,
      "duration": 0.1094,
      "velocity": 103,
      "chip": "ym2612"
    },
    {
      "channel": 0,
      "note": 87,
      "start": 29.0126,
      "duration": 0.348,
      "velocity": 71,
      "chip": "ym2612"
    },
    {
      "channel": 1,
      "note": 48,
      "start": 29.0129,
      "duration": 0.1353,
      "velocity": 103,
      "chip": "ym2612"
    },
    {
      "channel": 2,
      "note": 75,
      "start": 29.0137,
      "duration": 0.2942,
      "velocity": 99,
      "chip": "ym2612"
    },
    {
      "channel": 3,
      "note": 84,
      "start": 29.0137,
      "duration": 0.2943,
      "velocity": 99,
      "chip": "ym2612"
    },
    {
      "channel": 4,
      "note": 80,
      "start": 29.0137,
      "duration": 0.2943,
      "velocity": 99,
      "chip": "ym2612"
    },
    {
      "channel": 1,
      "note": 48,
      "start": 29.1985,
      "duration": 0.1093,
      "velocity": 103,
      "chip": "ym2612"
    },
    {
      "channel": 1,
      "note": 48,
      "start": 29.3579,
      "duration": 0.003,
      "velocity": 103,
      "chip": "ym2612"
    },
    {
      "channel": 2,
      "note": 75,
      "start": 29.3587,
      "duration": 0.0023,
      "velocity": 99,
      "chip": "ym2612"
    },
    {
      "channel": 3,
      "note": 84,
      "start": 29.3588,
      "duration": 0.0024,
      "velocity": 99,
      "chip": "ym2612"
    },
    {
      "channel": 4,
      "note": 80,
      "start": 29.3588,
      "duration": 0.0024,
      "velocity": 99,
      "chip": "ym2612"
    },
    {
      "channel": 0,
      "note": 84,
      "start": 29.374,
      "duration": 0.4796,
      "velocity": 71,
      "chip": "ym2612"
    },
    {
      "channel": 1,
      "note": 48,
      "start": 29.3743,
      "duration": 0.1351,
      "velocity": 103,
      "chip": "ym2612"
    },
    {
      "channel": 2,
      "note": 75,
      "start": 29.375,
      "duration": 0.479,
      "velocity": 99,
      "chip": "ym2612"
    },
    {
      "channel": 3,
      "note": 82,
      "start": 29.3751,
      "duration": 0.479,
      "velocity": 99,
      "chip": "ym2612"
    },
    {
      "channel": 4,
      "note": 79,
      "start": 29.3752,
      "duration": 0.479,
      "velocity": 99,
      "chip": "ym2612"
    },
    {
      "channel": 1,
      "note": 48,
      "start": 29.5595,
      "duration": 0.1094,
      "velocity": 103,
      "chip": "ym2612"
    },
    {
      "channel": 1,
      "note": 48,
      "start": 29.7192,
      "duration": 0.1348,
      "velocity": 103,
      "chip": "ym2612"
    },
    {
      "channel": 0,
      "note": 85,
      "start": 29.9039,
      "duration": 0.1249,
      "velocity": 71,
      "chip": "ym2612"
    },
    {
      "channel": 1,
      "note": 48,
      "start": 29.9043,
      "duration": 0.0024,
      "velocity": 103,
      "chip": "ym2612"
    },
    {
      "channel": 2,
      "note": 73,
      "start": 29.905,
      "duration": 0.1746,
      "velocity": 99,
      "chip": "ym2612"
    },
    {
      "channel": 3,
      "note": 77,
      "start": 29.9051,
      "duration": 0.1747,
      "velocity": 99,
      "chip": "ym2612"
    },
    {
      "channel": 4,
      "note": 80,
      "start": 29.9051,
      "duration": 0.1746,
      "velocity": 99,
      "chip": "ym2612"
    },
    {
      "channel": 1,
      "note": 48,
      "start": 29.9198,
      "duration": 0.1094,
      "velocity": 103,
      "chip": "ym2612"
    },
    {
      "channel": 0,
      "note": 87,
      "start": 30.0792,
      "duration": 0.891,
      "velocity": 71,
      "chip": "ym2612"
    },
    {
      "channel": 1,
      "note": 53,
      "start": 30.0795,
      "duration": 0.135,
      "velocity": 103,
      "chip": "ym2612"
    },
    {
      "channel": 2,
      "note": 75,
      "start": 30.0803,
      "duration": 0.8902,
      "velocity": 99,
      "chip": "ym2612"
    },
    {
      "channel": 3,
      "note": 79,
      "start": 30.0804,
      "duration": 0.8902,
      "velocity": 99,
      "chip": "ym2612"
    },
    {
      "channel": 4,
      "note": 70,
      "start": 30.0804,
      "duration": 0.8902,
      "velocity": 99,
      "chip": "ym2612"
    },
    {
      "channel": 1,
      "note": 53,
      "start": 30.2647,
      "duration": 0.1093,
      "velocity": 103,
      "chip": "ym2612"
    },
    {
      "channel": 1,
      "note": 53,
      "start": 30.4243,
      "duration": 0.0013,
      "velocity": 103,
      "chip": "ym2612"
    },
    {
      "channel": 1,
      "note": 53,
      "start": 30.4562,
      "duration": 0.1181,
      "velocity": 103,
      "chip": "ym2612"
    },
    {
      "channel": 1,
      "note": 53,
      "start": 30.6245,
      "duration": 0.1094,
      "velocity": 103,
      "chip": "ym2612"
    },
    {
      "channel": 1,
      "note": 53,
      "start": 30.7841,
      "duration": 0.1347,
      "velocity": 103,
      "chip": "ym2612"
    },
    {
      "channel": 1,
      "note": 53,
      "start": 30.969,
      "duration": 0.0015,
      "velocity": 103,
      "chip": "ym2612"
    },
    {
      "channel": 0,
      "note": 84,
      "start": 30.9841,
      "duration": 1.3293,
      "velocity": 71,
      "chip": "ym2612"
    },
    {
      "channel": 1,
      "note": 55,
      "start": 30.9845,
      "duration": 0.4163,
      "velocity": 103,
      "chip": "ym2612"
    },
    {
      "channel": 2,
      "note": 75,
      "start": 30.9853,
      "duration": 1.3287,
      "velocity": 99,
      "chip": "ym2612"
    },
    {
      "channel": 3,
      "note": 79,
      "start": 30.9853,
      "duration": 1.3287,
      "velocity": 99,
      "chip": "ym2612"
    },
    {
      "channel": 4,
      "note": 70,
      "start": 30.9854,
      "duration": 1.3287,
      "velocity": 99,
      "chip": "ym2612"
    },
    {
      "channel": 1,
      "note": 55,
      "start": 31.4009,
      "duration": 0.118,
      "velocity": 103,
      "chip": "ym2612"
    },
    {
      "channel": 1,
      "note": 55,
      "start": 31.5693,
      "duration": 0.0013,
      "velocity": 103,
      "chip": "ym2612"
    },
    {
      "channel": 1,
      "note": 55,
      "start": 31.6009,
      "duration": 0.1093,
      "velocity": 103,
      "chip": "ym2612"
    },
    {
      "channel": 1,
      "note": 55,
      "start": 31.7606,
      "duration": 0.0863,
      "velocity": 103,
      "chip": "ym2612"
    },
    {
      "channel": 1,
      "note": 51,
      "start": 31.8972,
      "duration": 0.1346,
      "velocity": 103,
      "chip": "ym2612"
    },
    {
      "channel": 1,
      "note": 55,
      "start": 32.0821,
      "duration": 0.0014,
      "velocity": 103,
      "chip": "ym2612"
    },
    {
      "channel": 1,
      "note": 51,
      "start": 32.0971,
      "duration": 0.1665,
      "velocity": 103,
      "chip": "ym2612"
    },
    {
      "channel": 0,
      "note": 80,
      "start": 32.3136,
      "duration": 4.6964,
      "velocity": 71,
      "chip": "ym2612"
    },
    {
      "channel": 1,
      "note": 44,
      "start": 32.3139,
      "duration": 0.2778,
      "velocity": 103,
      "chip": "ym2612"
    },
    {
      "channel": 2,
      "note": 84,
      "start": 32.3145,
      "duration": 1.4421,
      "velocity": 99,
      "chip": "ym2612"
    },
    {
      "channel": 3,
      "note": 75,
      "start": 32.3146,
      "duration": 1.4421,
      "velocity": 99,
      "chip": "ym2612"
    },
    {
      "channel": 4,
      "note": 80,
      "start": 32.3147,
      "duration": 1.442,
      "velocity": 99,
      "chip": "ym2612"
    },
    {
      "channel": 1,
      "note": 44,
      "start": 32.6419,
      "duration": 0.0014,
      "velocity": 103,
      "chip": "ym2612"
    },
    {
      "channel": 1,
      "note": 44,
      "start": 32.6736,
      "duration": 1.3175,
      "velocity": 103,
      "chip": "ym2612"
    },
    {
      "channel": 1,
      "note": 51,
      "start": 33.9913,
      "duration": 0.1166,
      "velocity": 103,
      "chip": "ym2612"
    },
    {
      "channel": 2,
      "note": 80,
      "start": 33.996,
      "duration": 0.112,
      "velocity": 99,
      "chip": "ym2612"
    },
    {
      "channel": 3,
      "note": 75,
      "start": 33.9961,
      "duration": 0.112,
      "velocity": 99,
      "chip": "ym2612"
    },
    {
      "channel": 4,
      "note": 72,
      "start": 33.9961,
      "duration": 0.1121,
      "velocity": 99,
      "chip": "ym2612"
    },
    {
      "channel": 1,
      "note": 51,
      "start": 34.1581,
      "duration": 0.1097,
      "velocity": 103,
      "chip": "ym2612"
    },
    {
      "channel": 1,
      "note": 51,
      "start": 34.3347,
      "duration": 0.0012,
      "velocity": 103,
      "chip": "ym2612"
    },
    {
      "channel": 1,
      "note": 51,
      "start": 34.3498,
      "duration": 0.1093,
      "velocity": 103,
      "chip": "ym2612"
    },
    {
      "channel": 1,
      "note": 51,
      "start": 34.5094,
      "duration": 0.1353,
      "velocity": 103,
      "chip": "ym2612"
    },
    {
      "channel": 2,
      "note": 70,
      "start": 34.5101,
      "duration": 0.1348,
      "velocity": 99,
      "chip": "ym2612"
    },
    {
      "channel": 3,
      "note": 79,
      "start": 34.5101,
      "duration": 0.1348,
      "velocity": 99,
      "chip": "ym2612"
    },
    {
      "channel": 4,
      "note": 75,
      "start": 34.5102,
      "duration": 0.1348,
      "velocity": 99,
      "chip": "ym2612"
    },
    {
      "channel": 1,
      "note": 51,
      "start": 34.695,
      "duration": 0.1097,
      "velocity": 103,
      "chip": "ym2612"
    },
    {
      "channel": 1,
      "note": 51,
      "start": 34.8549,
      "duration": 0.0013,
      "velocity": 103,
      "chip": "ym2612"
    },
    {
      "channel": 1,
      "note": 51,
      "start": 34.8866,
      "duration": 0.1094,
      "velocity": 103,
      "chip": "ym2612"
    },
    {
      "channel": 1,
      "note": 51,
      "start": 35.0463,
      "duration": 0.1189,
      "velocity": 103,
      "chip": "ym2612"
    },
    {
      "channel": 2,
      "note": 68,
      "start": 35.0472,
      "duration": 0.1182,
      "velocity": 99,
      "chip": "ym2612"
    },
    {
      "channel": 3,
      "note": 77,
      "start": 35.0472,
      "duration": 0.1181,
      "velocity": 99,
      "chip": "ym2612"
    },
    {
      "channel": 4,
      "note": 73,
      "start": 35.0473,
      "duration": 0.1181,
      "velocity": 99,
      "chip": "ym2612"
    },
    {
      "channel": 1,
      "note": 51,
      "start": 35.2155,
      "duration": 0.1264,
      "velocity": 103,
      "chip": "ym2612"
    },
    {
      "channel": 1,
      "note": 51,
      "start": 35.3921,
      "duration": 0.0013,
      "velocity": 103,
      "chip": "ym2612"
    },
    {
      "channel": 1,
      "note": 51,
      "start": 35.4072,
      "duration": 0.1188,
      "velocity": 103,
      "chip": "ym2612"
    },
    {
      "channel": 2,
      "note": 68,
      "start": 35.4079,
      "duration": 0.2945,
      "velocity": 99,
      "chip": "ym2612"
    },
    {
      "channel": 3,
      "note": 72,
      "start": 35.408,
      "duration": 0.2944,
      "velocity": 99,
      "chip": "ym2612"
    },
    {
      "channel": 4,
      "note": 75,
      "start": 35.408,
      "duration": 0.2945,
      "velocity": 99,
      "chip": "ym2612"
    },
    {
      "channel": 1,
      "note": 51,
      "start": 35.5762,
      "duration": 0.1261,
      "velocity": 103,
      "chip": "ym2612"
    },
    {
      "channel": 1,
      "note": 51,
      "start": 35.7525,
      "duration": 0.1184,
      "velocity": 103,
      "chip": "ym2612"
    },
    {
      "channel": 1,
      "note": 51,
      "start": 35.9212,
      "duration": 0.0016,
      "velocity": 103,
      "chip": "ym2612"
    },
    {
      "channel": 1,
      "note": 51,
      "start": 35.9531,
      "duration": 0.1094,
      "velocity": 103,
      "chip": "ym2612"
    },
    {
      "channel": 1,
      "note": 51,
      "start": 36.1128,
      "duration": 0.1187,
      "velocity": 103,
      "chip": "ym2612"
    },
    {
      "channel": 2,
      "note": 72,
      "start": 36.1134,
      "duration": 0.1182,
      "velocity": 99,
      "chip": "ym2612"
    },
    {
      "channel": 3,
      "note": 75,
      "start": 36.1134,
      "duration": 0.1182,
      "velocity": 99,
      "chip": "ym2612"
    },
    {
      "channel": 4,
      "note": 80,
      "start": 36.1135,
      "duration": 0.1182,
      "velocity": 99,
      "chip": "ym2612"
    },
    {
      "channel": 1,
      "note": 51,
      "start": 36.2817,
      "duration": 0.1265,
      "velocity": 103,
      "chip": "ym2612"
    },
    {
      "channel": 1,
      "note": 51,
      "start": 36.4584,
      "duration": 0.0011,
      "velocity": 103,
      "chip": "ym2612"
    },
    {
      "channel": 1,
      "note": 51,
      "start": 36.4732,
      "duration": 0.1094,
      "velocity": 103,
      "chip": "ym2612"
    },
    {
      "channel": 1,
      "note": 51,
      "start": 36.6496,
      "duration": 0.1188,
      "velocity": 103,
      "chip": "ym2612"
    },
    {
      "channel": 2,
      "note": 70,
      "start": 36.6503,
      "duration": 0.1182,
      "velocity": 99,
      "chip": "ym2612"
    },
    {
      "channel": 3,
      "note": 79,
      "start": 36.6504,
      "duration": 0.1182,
      "velocity": 99,
      "chip": "ym2612"
    },
    {
      "channel": 4,
      "note": 75,
      "start": 36.6504,
      "duration": 0.1182,
      "velocity": 99,
      "chip": "ym2612"
    },
    {
      "channel": 1,
      "note": 51,
      "start": 36.8186,
      "duration": 0.1098,
      "velocity": 103,
      "chip": "ym2612"
    },
    {
      "channel": 1,
      "note": 51,
      "start": 36.9787,
      "duration": 0.0014,
      "velocity": 103,
      "chip": "ym2612"
    },
    {
      "channel": 0,
      "note": 85,
      "start": 37.0102,
      "duration": 0.369,
      "velocity": 71,
      "chip": "ym2612"
    },
    {
      "channel": 1,
      "note": 49,
      "start": 37.0106,
      "duration": 0.1187,
      "velocity": 103,
      "chip": "ym2612"
    },
    {
      "channel": 2,
      "note": 68,
      "start": 37.0113,
      "duration": 0.745,
      "velocity": 99,
      "chip": "ym2612"
    },
    {
      "channel": 3,
      "note": 73,
      "start": 37.0113,
      "duration": 0.745,
      "velocity": 99,
      "chip": "ym2612"
    },
    {
      "channel": 4,
      "note": 77,
      "start": 37.0114,
      "duration": 0.745,
      "velocity": 99,
      "chip": "ym2612"
    },
    {
      "channel": 1,
      "note": 49,
      "start": 37.1796,
      "duration": 0.1497,
      "velocity": 103,
      "chip": "ym2612"
    },
    {
      "channel": 0,
      "note": 80,
      "start": 37.3794,
      "duration": 0.1347,
      "velocity": 71,
      "chip": "ym2612"
    },
    {
      "channel": 1,
      "note": 49,
      "start": 37.3797,
      "duration": 0.1347,
      "velocity": 103,
      "chip": "ym2612"
    },
    {
      "channel": 0,
      "note": 77,
      "start": 37.5644,
      "duration": 0.2997,
      "velocity": 71,
      "chip": "ym2612"
    },
    {
      "channel": 1,
      "note": 49,
      "start": 37.5647,
      "duration": 0.0014,
      "velocity": 103,
      "chip": "ym2612"
    },
    {
      "channel": 1,
      "note": 49,
      "start": 37.5798,
      "duration": 0.1261,
      "velocity": 103,
      "chip": "ym2612"
    },
    {
      "channel": 1,
      "note": 49,
      "start": 37.7562,
      "duration": 0.0023,
      "velocity": 103,
      "chip": "ym2612"
    },
    {
      "channel": 1,
      "note": 49,
      "start": 37.7598,
      "duration": 0.0015,
      "velocity": 103,
      "chip": "ym2612"
    },
    {
      "channel": 1,
      "note": 49,
      "start": 37.7637,
      "duration": 0.0014,
      "velocity": 103,
      "chip": "ym2612"
    },
    {
      "channel": 1,
      "note": 49,
      "start": 37.7955,
      "duration": 0.0689,
      "velocity": 103,
      "chip": "ym2612"
    },
    {
      "channel": 1,
      "note": 51,
      "start": 37.9148,
      "duration": 0.1185,
      "velocity": 103,
      "chip": "ym2612"
    },
    {
      "channel": 2,
      "note": 80,
      "start": 37.9155,
      "duration": 0.1179,
      "velocity": 99,
      "chip": "ym2612"
    },
    {
      "channel": 3,
      "note": 75,
      "start": 37.9155,
      "duration": 0.118,
      "velocity": 99,
      "chip": "ym2612"
    },
    {
      "channel": 4,
      "note": 72,
      "start": 37.9156,
      "duration": 0.118,
      "velocity": 99,
      "chip": "ym2612"
    },
    {
      "channel": 1,
      "note": 51,
      "start": 38.1002,
      "duration": 0.1098,
      "velocity": 103,
      "chip": "ym2612"
    },
    {
      "channel": 1,
      "note": 51,
      "start": 38.2602,
      "duration": 0.0014,
      "velocity": 103,
      "chip": "ym2612"
    },
    {
      "channel": 1,
      "note": 51,
      "start": 38.2755,
      "duration": 0.1261,
      "velocity": 103,
      "chip": "ym2612"
    }
  ]
}