{
  "track_name": "08 - Ryuukaku San's Theme, Honshougi BGM 2",
  "duration_sec": 25.75,
  "sample_rate": 44100,
  "note_count": 632,
  "unique_pitches": 35,
  "pitch_range": 66,
  "avg_note_duration": 0.2273,
  "reconstruction_stats": {
    "notes_reconstructed": 632,
    "keyon_events": 632,
    "keyoff_events": 626,
    "orphan_keyons": 6,
    "unique_pitches": 35,
    "pitch_range": 66,
    "avg_duration_sec": 0.2273
  },
  "metadata": {
    "source": "S\\Shougi no Hoshi\\08 - Ryuukaku San's Theme, Honshougi BGM 2.vgz"
  },
  "notes": [
    {
      "channel": 0,
      "note": 50,
      "start": 0.0198,
      "duration": 0.2153,
      "velocity": 90,
      "chip": "ym2612"
    },
    {
      "channel": 1,
      "note": 88,
      "start": 0.0235,
      "duration": 0.6128,
      "velocity": 101,
      "chip": "ym2612"
    },
    {
      "channel": 4,
      "note": 72,
      "start": 0.0306,
      "duration": 0.6068,
      "velocity": 116,
      "chip": "ym2612"
    },
    {
      "channel": 5,
      "note": 69,
      "start": 0.0352,
      "duration": 0.603,
      "velocity": 91,
      "chip": "ym2612"
    },
    {
      "channel": 2,
      "note": 30,
      "start": 0.036,
      "duration": 0.1314,
      "velocity": 119,
      "chip": "ym2612"
    },
    {
      "channel": 3,
      "note": 88,
      "start": 0.1336,
      "duration": 0.6032,
      "velocity": 101,
      "chip": "ym2612"
    },
    {
      "channel": 0,
      "note": 62,
      "start": 0.2356,
      "duration": 0.0995,
      "velocity": 90,
      "chip": "ym2612"
    },
    {
      "channel": 2,
      "note": 69,
      "start": 0.238,
      "duration": 0.0944,
      "velocity": 127,
      "chip": "ym2612"
    },
    {
      "channel": 0,
      "note": 62,
      "start": 0.3357,
      "duration": 0.0996,
      "velocity": 90,
      "chip": "ym2612"
    },
    {
      "channel": 2,
      "note": 69,
      "start": 0.3381,
      "duration": 0.0944,
      "velocity": 127,
      "chip": "ym2612"
    },
    {
      "channel": 0,
      "note": 50,
      "start": 0.4359,
      "duration": 0.1997,
      "velocity": 90,
      "chip": "ym2612"
    },
    {
      "channel": 2,
      "note": 78,
      "start": 0.4383,
      "duration": 0.1945,
      "velocity": 127,
      "chip": "ym2612"
    },
    {
      "channel": 0,
      "note": 62,
      "start": 0.6361,
      "duration": 0.0995,
      "velocity": 90,
      "chip": "ym2612"
    },
    {
      "channel": 1,
      "note": 86,
      "start": 0.6369,
      "duration": 0.1997,
      "velocity": 101,
      "chip": "ym2612"
    },
    {
      "channel": 4,
      "note": 69,
      "start": 0.638,
      "duration": 0.1997,
      "velocity": 116,
      "chip": "ym2612"
    },
    {
      "channel": 5,
      "note": 69,
      "start": 0.639,
      "duration": 0.1995,
      "velocity": 91,
      "chip": "ym2612"
    },
    {
      "channel": 2,
      "note": 69,
      "start": 0.6398,
      "duration": 0.093,
      "velocity": 127,
      "chip": "ym2612"
    },
    {
      "channel": 0,
      "note": 62,
      "start": 0.7363,
      "duration": 0.0996,
      "velocity": 90,
      "chip": "ym2612"
    },
    {
      "channel": 3,
      "note": 86,
      "start": 0.7374,
      "duration": 0.1965,
      "velocity": 101,
      "chip": "ym2612"
    },
    {
      "channel": 2,
      "note": 69,
      "start": 0.739,
      "duration": 0.094,
      "velocity": 127,
      "chip": "ym2612"
    },
    {
      "channel": 0,
      "note": 50,
      "start": 0.8365,
      "duration": 0.1996,
      "velocity": 90,
      "chip": "ym2612"
    },
    {
      "channel": 1,
      "note": 86,
      "start": 0.8372,
      "duration": 0.6001,
      "velocity": 101,
      "chip": "ym2612"
    },
    {
      "channel": 4,
      "note": 69,
      "start": 0.8383,
      "duration": 0.6001,
      "velocity": 116,
      "chip": "ym2612"
    },
    {
      "channel": 5,
      "note": 69,
      "start": 0.8393,
      "duration": 0.3988,
      "velocity": 91,
      "chip": "ym2612"
    },
    {
      "channel": 2,
      "note": 30,
      "start": 0.8401,
      "duration": 0.1283,
      "velocity": 119,
      "chip": "ym2612"
    },
    {
      "channel": 3,
      "note": 86,
      "start": 0.9345,
      "duration": 0.6033,
      "velocity": 101,
      "chip": "ym2612"
    },
    {
      "channel": 0,
      "note": 62,
      "start": 1.0367,
      "duration": 0.0995,
      "velocity": 90,
      "chip": "ym2612"
    },
    {
      "channel": 2,
      "note": 69,
      "start": 1.039,
      "duration": 0.0944,
      "velocity": 127,
      "chip": "ym2612"
    },
    {
      "channel": 0,
      "note": 62,
      "start": 1.1368,
      "duration": 0.0995,
      "velocity": 90,
      "chip": "ym2612"
    },
    {
      "channel": 2,
      "note": 69,
      "start": 1.1391,
      "duration": 0.0944,
      "velocity": 127,
      "chip": "ym2612"
    },
    {
      "channel": 0,
      "note": 50,
      "start": 1.2369,
      "duration": 0.1997,
      "velocity": 90,
      "chip": "ym2612"
    },
    {
      "channel": 2,
      "note": 78,
      "start": 1.2392,
      "duration": 0.1946,
      "velocity": 127,
      "chip": "ym2612"
    },
    {
      "channel": 0,
      "note": 62,
      "start": 1.4372,
      "duration": 0.0995,
      "velocity": 90,
      "chip": "ym2612"
    },
    {
      "channel": 1,
      "note": 88,
      "start": 1.438,
      "duration": 0.3999,
      "velocity": 101,
      "chip": "ym2612"
    },
    {
      "channel": 4,
      "note": 73,
      "start": 1.439,
      "duration": 0.3999,
      "velocity": 116,
      "chip": "ym2612"
    },
    {
      "channel": 2,
      "note": 69,
      "start": 1.44,
      "duration": 0.0939,
      "velocity": 127,
      "chip": "ym2612"
    },
    {
      "channel": 0,
      "note": 62,
      "start": 1.5373,
      "duration": 0.0998,
      "velocity": 90,
      "chip": "ym2612"
    },
    {
      "channel": 3,
      "note": 88,
      "start": 1.5384,
      "duration": 0.3999,
      "velocity": 101,
      "chip": "ym2612"
    },
    {
      "channel": 2,
      "note": 69,
      "start": 1.5397,
      "duration": 0.0944,
      "velocity": 127,
      "chip": "ym2612"
    },
    {
      "channel": 0,
      "note": 50,
      "start": 1.6377,
      "duration": 0.1994,
      "velocity": 90,
      "chip": "ym2612"
    },
    {
      "channel": 2,
      "note": 30,
      "start": 1.6399,
      "duration": 0.1292,
      "velocity": 119,
      "chip": "ym2612"
    },
    {
      "channel": 0,
      "note": 62,
      "start": 1.8377,
      "duration": 0.0995,
      "velocity": 90,
      "chip": "ym2612"
    },
    {
      "channel": 1,
      "note": 88,
      "start": 1.8385,
      "duration": 0.3999,
      "velocity": 101,
      "chip": "ym2612"
    },
    {
      "channel": 4,
      "note": 73,
      "start": 1.8395,
      "duration": 0.3999,
      "velocity": 116,
      "chip": "ym2612"
    },
    {
      "channel": 2,
      "note": 69,
      "start": 1.8405,
      "duration": 0.0939,
      "velocity": 127,
      "chip": "ym2612"
    },
    {
      "channel": 0,
      "note": 62,
      "start": 1.9378,
      "duration": 0.0996,
      "velocity": 90,
      "chip": "ym2612"
    },
    {
      "channel": 3,
      "note": 88,
      "start": 1.9389,
      "duration": 0.3999,
      "velocity": 101,
      "chip": "ym2612"
    },
    {
      "channel": 2,
      "note": 69,
      "start": 1.9402,
      "duration": 0.0944,
      "velocity": 127,
      "chip": "ym2612"
    },
    {
      "channel": 0,
      "note": 50,
      "start": 2.038,
      "duration": 0.1997,
      "velocity": 90,
      "chip": "ym2612"
    },
    {
      "channel": 2,
      "note": 78,
      "start": 2.04,
      "duration": 0.1949,
      "velocity": 127,
      "chip": "ym2612"
    },
    {
      "channel": 0,
      "note": 62,
      "start": 2.2382,
      "duration": 0.0995,
      "velocity": 90,
      "chip": "ym2612"
    },
    {
      "channel": 1,
      "note": 86,
      "start": 2.239,
      "duration": 0.1997,
      "velocity": 101,
      "chip": "ym2612"
    },
    {
      "channel": 4,
      "note": 69,
      "start": 2.2401,
      "duration": 0.1997,
      "velocity": 116,
      "chip": "ym2612"
    },
    {
      "channel": 2,
      "note": 69,
      "start": 2.241,
      "duration": 0.0939,
      "velocity": 127,
      "chip": "ym2612"
    },
    {
      "channel": 0,
      "note": 62,
      "start": 2.3383,
      "duration": 0.0996,
      "velocity": 90,
      "chip": "ym2612"
    },
    {
      "channel": 3,
      "note": 86,
      "start": 2.3394,
      "duration": 0.1965,
      "velocity": 101,
      "chip": "ym2612"
    },
    {
      "channel": 2,
      "note": 69,
      "start": 2.3407,
      "duration": 0.0944,
      "velocity": 127,
      "chip": "ym2612"
    },
    {
      "channel": 0,
      "note": 50,
      "start": 2.4385,
      "duration": 0.1996,
      "velocity": 90,
      "chip": "ym2612"
    },
    {
      "channel": 1,
      "note": 86,
      "start": 2.4393,
      "duration": 0.3998,
      "velocity": 101,
      "chip": "ym2612"
    },
    {
      "channel": 4,
      "note": 69,
      "start": 2.4404,
      "duration": 0.8006,
      "velocity": 116,
      "chip": "ym2612"
    },
    {
      "channel": 2,
      "note": 30,
      "start": 2.4413,
      "duration": 0.1288,
      "velocity": 119,
      "chip": "ym2612"
    },
    {
      "channel": 3,
      "note": 86,
      "start": 2.5366,
      "duration": 0.3999,
      "velocity": 101,
      "chip": "ym2612"
    },
    {
      "channel": 0,
      "note": 62,
      "start": 2.6387,
      "duration": 0.0995,
      "velocity": 90,
      "chip": "ym2612"
    },
    {
      "channel": 2,
      "note": 69,
      "start": 2.6407,
      "duration": 0.0947,
      "velocity": 127,
      "chip": "ym2612"
    },
    {
      "channel": 0,
      "note": 62,
      "start": 2.7388,
      "duration": 0.0996,
      "velocity": 90,
      "chip": "ym2612"
    },
    {
      "channel": 2,
      "note": 69,
      "start": 2.7408,
      "duration": 0.0948,
      "velocity": 127,
      "chip": "ym2612"
    },
    {
      "channel": 0,
      "note": 50,
      "start": 2.839,
      "duration": 0.1997,
      "velocity": 90,
      "chip": "ym2612"
    },
    {
      "channel": 1,
      "note": 86,
      "start": 2.8397,
      "duration": 0.4002,
      "velocity": 101,
      "chip": "ym2612"
    },
    {
      "channel": 2,
      "note": 78,
      "start": 2.8414,
      "duration": 0.1945,
      "velocity": 127,
      "chip": "ym2612"
    },
    {
      "channel": 3,
      "note": 86,
      "start": 2.9371,
      "duration": 0.3999,
      "velocity": 101,
      "chip": "ym2612"
    },
    {
      "channel": 0,
      "note": 62,
      "start": 3.0393,
      "duration": 0.0995,
      "velocity": 90,
      "chip": "ym2612"
    },
    {
      "channel": 2,
      "note": 69,
      "start": 3.0412,
      "duration": 0.0948,
      "velocity": 127,
      "chip": "ym2612"
    },
    {
      "channel": 0,
      "note": 62,
      "start": 3.1393,
      "duration": 0.0998,
      "velocity": 90,
      "chip": "ym2612"
    },
    {
      "channel": 2,
      "note": 69,
      "start": 3.1413,
      "duration": 0.0949,
      "velocity": 127,
      "chip": "ym2612"
    },
    {
      "channel": 0,
      "note": 53,
      "start": 3.2398,
      "duration": 0.1994,
      "velocity": 90,
      "chip": "ym2612"
    },
    {
      "channel": 1,
      "note": 88,
      "start": 3.2405,
      "duration": 0.5999,
      "velocity": 101,
      "chip": "ym2612"
    },
    {
      "channel": 4,
      "note": 72,
      "start": 3.2416,
      "duration": 0.5999,
      "velocity": 116,
      "chip": "ym2612"
    },
    {
      "channel": 5,
      "note": 69,
      "start": 3.2426,
      "duration": 0.5997,
      "velocity": 91,
      "chip": "ym2612"
    },
    {
      "channel": 2,
      "note": 30,
      "start": 3.2434,
      "duration": 0.1281,
      "velocity": 119,
      "chip": "ym2612"
    },
    {
      "channel": 3,
      "note": 88,
      "start": 3.3376,
      "duration": 0.6033,
      "velocity": 101,
      "chip": "ym2612"
    },
    {
      "channel": 0,
      "note": 65,
      "start": 3.4398,
      "duration": 0.0995,
      "velocity": 90,
      "chip": "ym2612"
    },
    {
      "channel": 2,
      "note": 69,
      "start": 3.4421,
      "duration": 0.0944,
      "velocity": 127,
      "chip": "ym2612"
    },
    {
      "channel": 0,
      "note": 65,
      "start": 3.5399,
      "duration": 0.0996,
      "velocity": 90,
      "chip": "ym2612"
    },
    {
      "channel": 2,
      "note": 69,
      "start": 3.5422,
      "duration": 0.0944,
      "velocity": 127,
      "chip": "ym2612"
    },
    {
      "channel": 0,
      "note": 53,
      "start": 3.64,
      "duration": 0.1997,
      "velocity": 90,
      "chip": "ym2612"
    },
    {
      "channel": 2,
      "note": 78,
      "start": 3.6424,
      "duration": 0.1945,
      "velocity": 127,
      "chip": "ym2612"
    },
    {
      "channel": 0,
      "note": 65,
      "start": 3.8403,
      "duration": 0.0995,
      "velocity": 90,
      "chip": "ym2612"
    },
    {
      "channel": 1,
      "note": 86,
      "start": 3.841,
      "duration": 0.1997,
      "velocity": 101,
      "chip": "ym2612"
    },
    {
      "channel": 4,
      "note": 69,
      "start": 3.8422,
      "duration": 0.1997,
      "velocity": 116,
      "chip": "ym2612"
    },
    {
      "channel": 5,
      "note": 69,
      "start": 3.8431,
      "duration": 0.1995,
      "velocity": 91,
      "chip": "ym2612"
    },
    {
      "channel": 2,
      "note": 69,
      "start": 3.844,
      "duration": 0.093,
      "velocity": 127,
      "chip": "ym2612"
    },
    {
      "channel": 0,
      "note": 65,
      "start": 3.9404,
      "duration": 0.0996,
      "velocity": 90,
      "chip": "ym2612"
    },
    {
      "channel": 3,
      "note": 86,
      "start": 3.9415,
      "duration": 0.1965,
      "velocity": 101,
      "chip": "ym2612"
    },
    {
      "channel": 2,
      "note": 69,
      "start": 3.9432,
      "duration": 0.094,
      "velocity": 127,
      "chip": "ym2612"
    },
    {
      "channel": 0,
      "note": 53,
      "start": 4.0406,
      "duration": 0.1996,
      "velocity": 90,
      "chip": "ym2612"
    },
    {
      "channel": 1,
      "note": 86,
      "start": 4.0414,
      "duration": 0.6001,
      "velocity": 101,
      "chip": "ym2612"
    },
    {
      "channel": 4,
      "note": 69,
      "start": 4.0425,
      "duration": 0.6001,
      "velocity": 116,
      "chip": "ym2612"
    },
    {
      "channel": 5,
      "note": 69,
      "start": 4.0434,
      "duration": 0.3988,
      "velocity": 91,
      "chip": "ym2612"
    },
    {
      "channel": 2,
      "note": 30,
      "start": 4.0442,
      "duration": 0.1283,
      "velocity": 119,
      "chip": "ym2612"
    },
    {
      "channel": 3,
      "note": 86,
      "start": 4.1386,
      "duration": 0.6033,
      "velocity": 101,
      "chip": "ym2612"
    },
    {
      "channel": 0,
      "note": 65,
      "start": 4.2408,
      "duration": 0.0995,
      "velocity": 90,
      "chip": "ym2612"
    },
    {
      "channel": 2,
      "note": 69,
      "start": 4.2432,
      "duration": 0.0944,
      "velocity": 127,
      "chip": "ym2612"
    },
    {
      "channel": 0,
      "note": 65,
      "start": 4.3409,
      "duration": 0.0996,
      "velocity": 90,
      "chip": "ym2612"
    },
    {
      "channel": 2,
      "note": 69,
      "start": 4.3433,
      "duration": 0.0944,
      "velocity": 127,
      "chip": "ym2612"
    },
    {
      "channel": 0,
      "note": 53,
      "start": 4.441,
      "duration": 0.1997,
      "velocity": 90,
      "chip": "ym2612"
    },
    {
      "channel": 2,
      "note": 78,
      "start": 4.4433,
      "duration": 0.1946,
      "velocity": 127,
      "chip": "ym2612"
    },
    {
      "channel": 0,
      "note": 65,
      "start": 4.6413,
      "duration": 0.0995,
      "velocity": 90,
      "chip": "ym2612"
    },
    {
      "channel": 1,
      "note": 88,
      "start": 4.6421,
      "duration": 0.6002,
      "velocity": 101,
      "chip": "ym2612"
    },
    {
      "channel": 4,
      "note": 72,
      "start": 4.6432,
      "duration": 0.6002,
      "velocity": 116,
      "chip": "ym2612"
    },
    {
      "channel": 2,
      "note": 69,
      "start": 4.6441,
      "duration": 0.0939,
      "velocity": 127,
      "chip": "ym2612"
    },
    {
      "channel": 0,
      "note": 65,
      "start": 4.7414,
      "duration": 0.0998,
      "velocity": 90,
      "chip": "ym2612"
    },
    {
      "channel": 3,
      "note": 88,
      "start": 4.7425,
      "duration": 0.597,
      "velocity": 101,
      "chip": "ym2612"
    },
    {
      "channel": 2,
      "note": 69,
      "start": 4.7438,
      "duration": 0.0944,
      "velocity": 127,
      "chip": "ym2612"
    },
    {
      "channel": 0,
      "note": 55,
      "start": 4.8418,
      "duration": 0.1994,
      "velocity": 90,
      "chip": "ym2612"
    },
    {
      "channel": 5,
      "note": 69,
      "start": 4.8438,
      "duration": 0.0959,
      "velocity": 91,
      "chip": "ym2612"
    },
    {
      "channel": 2,
      "note": 30,
      "start": 4.8446,
      "duration": 0.129,
      "velocity": 119,
      "chip": "ym2612"
    },
    {
      "channel": 5,
      "note": 69,
      "start": 4.9405,
      "duration": 0.1025,
      "velocity": 91,
      "chip": "ym2612"
    },
    {
      "channel": 0,
      "note": 67,
      "start": 5.0418,
      "duration": 0.0995,
      "velocity": 90,
      "chip": "ym2612"
    },
    {
      "channel": 5,
      "note": 69,
      "start": 5.0438,
      "duration": 0.0993,
      "velocity": 91,
      "chip": "ym2612"
    },
    {
      "channel": 2,
      "note": 69,
      "start": 5.0447,
      "duration": 0.0939,
      "velocity": 127,
      "chip": "ym2612"
    },
    {
      "channel": 0,
      "note": 67,
      "start": 5.1419,
      "duration": 0.0996,
      "velocity": 90,
      "chip": "ym2612"
    },
    {
      "channel": 5,
      "note": 69,
      "start": 5.1439,
      "duration": 0.1002,
      "velocity": 91,
      "chip": "ym2612"
    },
    {
      "channel": 2,
      "note": 69,
      "start": 5.1448,
      "duration": 0.0939,
      "velocity": 127,
      "chip": "ym2612"
    },
    {
      "channel": 0,
      "note": 55,
      "start": 5.2421,
      "duration": 0.1997,
      "velocity": 90,
      "chip": "ym2612"
    },
    {
      "channel": 1,
      "note": 86,
      "start": 5.2428,
      "duration": 0.4,
      "velocity": 101,
      "chip": "ym2612"
    },
    {
      "channel": 4,
      "note": 71,
      "start": 5.2439,
      "duration": 0.4,
      "velocity": 116,
      "chip": "ym2612"
    },
    {
      "channel": 2,
      "note": 78,
      "start": 5.2452,
      "duration": 0.1938,
      "velocity": 127,
      "chip": "ym2612"
    },
    {
      "channel": 3,
      "note": 86,
      "start": 5.3402,
      "duration": 0.3999,
      "velocity": 101,
      "chip": "ym2612"
    },
    {
      "channel": 0,
      "note": 67,
      "start": 5.4423,
      "duration": 0.0995,
      "velocity": 90,
      "chip": "ym2612"
    },
    {
      "channel": 5,
      "note": 71,
      "start": 5.4443,
      "duration": 0.2003,
      "velocity": 91,
      "chip": "ym2612"
    },
    {
      "channel": 2,
      "note": 69,
      "start": 5.4452,
      "duration": 0.0939,
      "velocity": 127,
      "chip": "ym2612"
    },
    {
      "channel": 0,
      "note": 67,
      "start": 5.5424,
      "duration": 0.0996,
      "velocity": 90,
      "chip": "ym2612"
    },
    {
      "channel": 2,
      "note": 69,
      "start": 5.5448,
      "duration": 0.0945,
      "velocity": 127,
      "chip": "ym2612"
    },
    {
      "channel": 0,
      "note": 55,
      "start": 5.6427,
      "duration": 0.1996,
      "velocity": 90,
      "chip": "ym2612"
    },
    {
      "channel": 1,
      "note": 84,
      "start": 5.6434,
      "duration": 0.3999,
      "velocity": 101,
      "chip": "ym2612"
    },
    {
      "channel": 4,
      "note": 69,
      "start": 5.6445,
      "duration": 0.3998,
      "velocity": 116,
      "chip": "ym2612"
    },
    {
      "channel": 5,
      "note": 72,
      "start": 5.6454,
      "duration": 0.1986,
      "velocity": 91,
      "chip": "ym2612"
    },
    {
      "channel": 2,
      "note": 30,
      "start": 5.6463,
      "duration": 0.1284,
      "velocity": 119,
      "chip": "ym2612"
    },
    {
      "channel": 3,
      "note": 84,
      "start": 5.7407,
      "duration": 0.3999,
      "velocity": 101,
      "chip": "ym2612"
    },
    {
      "channel": 0,
      "note": 67,
      "start": 5.8429,
      "duration": 0.0995,
      "velocity": 90,
      "chip": "ym2612"
    },
    {
      "channel": 5,
      "note": 72,
      "start": 5.8448,
      "duration": 0.2003,
      "velocity": 91,
      "chip": "ym2612"
    },
    {
      "channel": 2,
      "note": 69,
      "start": 5.8457,
      "duration": 0.0939,
      "velocity": 127,
      "chip": "ym2612"
    },
    {
      "channel": 0,
      "note": 67,
      "start": 5.943,
      "duration": 0.0995,
      "velocity": 90,
      "chip": "ym2612"
    },
    {
      "channel": 2,
      "note": 69,
      "start": 5.9453,
      "duration": 0.0944,
      "velocity": 127,
      "chip": "ym2612"
    },
    {
      "channel": 0,
      "note": 55,
      "start": 6.0431,
      "duration": 0.1997,
      "velocity": 90,
      "chip": "ym2612"
    },
    {
      "channel": 1,
      "note": 86,
      "start": 6.0439,
      "duration": 0.4002,
      "velocity": 101,
      "chip": "ym2612"
    },
    {
      "channel": 4,
      "note": 71,
      "start": 6.045,
      "duration": 0.4002,
      "velocity": 116,
      "chip": "ym2612"
    },
    {
      "channel": 5,
      "note": 71,
      "start": 6.0459,
      "duration": 0.4,
      "velocity": 91,
      "chip": "ym2612"
    },
    {
      "channel": 2,
      "note": 78,
      "start": 6.0468,
      "duration": 0.1932,
      "velocity": 127,
      "chip": "ym2612"
    },
    {
      "channel": 3,
      "note": 86,
      "start": 6.1412,
      "duration": 0.3999,
      "velocity": 101,
      "chip": "ym2612"
    },
    {
      "channel": 0,
      "note": 67,
      "start": 6.2434,
      "duration": 0.0995,
      "velocity": 90,
      "chip": "ym2612"
    },
    {
      "channel": 2,
      "note": 69,
      "start": 6.2457,
      "duration": 0.0944,
      "velocity": 127,
      "chip": "ym2612"
    },
    {
      "channel": 0,
      "note": 67,
      "start": 6.3435,
      "duration": 0.0998,
      "velocity": 90,
      "chip": "ym2612"
    },
    {
      "channel": 2,
      "note": 69,
      "start": 6.3459,
      "duration": 0.0945,
      "velocity": 127,
      "chip": "ym2612"
    },
    {
      "channel": 0,
      "note": 57,
      "start": 6.4439,
      "duration": 0.1994,
      "velocity": 90,
      "chip": "ym2612"
    },
    {
      "channel": 1,
      "note": 91,
      "start": 6.4447,
      "duration": 0.5999,
      "velocity": 101,
      "chip": "ym2612"
    },
    {
      "channel": 4,
      "note": 72,
      "start": 6.4458,
      "duration": 1.601,
      "velocity": 116,
      "chip": "ym2612"
    },
    {
      "channel": 5,
      "note": 76,
      "start": 6.4467,
      "duration": 0.3986,
      "velocity": 91,
      "chip": "ym2612"
    },
    {
      "channel": 2,
      "note": 30,
      "start": 6.4476,
      "duration": 0.1281,
      "velocity": 119,
      "chip": "ym2612"
    },
    {
      "channel": 3,
      "note": 91,
      "start": 6.5417,
      "duration": 0.6033,
      "velocity": 101,
      "chip": "ym2612"
    },
    {
      "channel": 0,
      "note": 69,
      "start": 6.6439,
      "duration": 0.0995,
      "velocity": 90,
      "chip": "ym2612"
    },
    {
      "channel": 2,
      "note": 69,
      "start": 6.6463,
      "duration": 0.0944,
      "velocity": 127,
      "chip": "ym2612"
    },
    {
      "channel": 0,
      "note": 69,
      "start": 6.744,
      "duration": 0.0995,
      "velocity": 90,
      "chip": "ym2612"
    },
    {
      "channel": 2,
      "note": 69,
      "start": 6.7464,
      "duration": 0.0944,
      "velocity": 127,
      "chip": "ym2612"
    },
    {
      "channel": 0,
      "note": 57,
      "start": 6.8441,
      "duration": 0.1997,
      "velocity": 90,
      "chip": "ym2612"
    },
    {
      "channel": 5,
      "note": 69,
      "start": 6.8461,
      "duration": 0.1999,
      "velocity": 91,
      "chip": "ym2612"
    },
    {
      "channel": 2,
      "note": 78,
      "start": 6.847,
      "duration": 0.194,
      "velocity": 127,
      "chip": "ym2612"
    },
    {
      "channel": 0,
      "note": 69,
      "start": 7.0444,
      "duration": 0.0995,
      "velocity": 90,
      "chip": "ym2612"
    },
    {
      "channel": 1,
      "note": 84,
      "start": 7.0452,
      "duration": 0.1997,
      "velocity": 101,
      "chip": "ym2612"
    },
    {
      "channel": 5,
      "note": 64,
      "start": 7.0468,
      "duration": 0.3993,
      "velocity": 91,
      "chip": "ym2612"
    },
    {
      "channel": 2,
      "note": 69,
      "start": 7.0477,
      "duration": 0.0935,
      "velocity": 127,
      "chip": "ym2612"
    },
    {
      "channel": 0,
      "note": 69,
      "start": 7.1445,
      "duration": 0.0996,
      "velocity": 90,
      "chip": "ym2612"
    },
    {
      "channel": 3,
      "note": 84,
      "start": 7.1456,
      "duration": 0.1965,
      "velocity": 101,
      "chip": "ym2612"
    },
    {
      "channel": 2,
      "note": 69,
      "start": 7.1473,
      "duration": 0.094,
      "velocity": 127,
      "chip": "ym2612"
    },
    {
      "channel": 0,
      "note": 57,
      "start": 7.2447,
      "duration": 0.1996,
      "velocity": 90,
      "chip": "ym2612"
    },
    {
      "channel": 1,
      "note": 84,
      "start": 7.2455,
      "duration": 0.6001,
      "velocity": 101,
      "chip": "ym2612"
    },
    {
      "channel": 2,
      "note": 30,
      "start": 7.2475,
      "duration": 0.1292,
      "velocity": 119,
      "chip": "ym2612"
    },
    {
      "channel": 3,
      "note": 84,
      "start": 7.3427,
      "duration": 0.6033,
      "velocity": 101,
      "chip": "ym2612"
    },
    {
      "channel": 0,
      "note": 69,
      "start": 7.4449,
      "duration": 0.0995,
      "velocity": 90,
      "chip": "ym2612"
    },
    {
      "channel": 2,
      "note": 69,
      "start": 7.4471,
      "duration": 0.0945,
      "velocity": 127,
      "chip": "ym2612"
    },
    {
      "channel": 0,
      "note": 69,
      "start": 7.545,
      "duration": 0.0995,
      "velocity": 90,
      "chip": "ym2612"
    },
    {
      "channel": 2,
      "note": 69,
      "start": 7.547,
      "duration": 0.0948,
      "velocity": 127,
      "chip": "ym2612"
    },
    {
      "channel": 0,
      "note": 57,
      "start": 7.6452,
      "duration": 0.1997,
      "velocity": 90,
      "chip": "ym2612"
    },
    {
      "channel": 2,
      "note": 78,
      "start": 7.6472,
      "duration": 0.1949,
      "velocity": 127,
      "chip": "ym2612"
    },
    {
      "channel": 0,
      "note": 69,
      "start": 7.8454,
      "duration": 0.0995,
      "velocity": 90,
      "chip": "ym2612"
    },
    {
      "channel": 1,
      "note": 93,
      "start": 7.8462,
      "duration": 0.3999,
      "velocity": 101,
      "chip": "ym2612"
    },
    {
      "channel": 5,
      "note": 76,
      "start": 7.8478,
      "duration": 0.5996,
      "velocity": 91,
      "chip": "ym2612"
    },
    {
      "channel": 2,
      "note": 69,
      "start": 7.8487,
      "duration": 0.0934,
      "velocity": 127,
      "chip": "ym2612"
    },
    {
      "channel": 0,
      "note": 69,
      "start": 7.9456,
      "duration": 0.0998,
      "velocity": 90,
      "chip": "ym2612"
    },
    {
      "channel": 3,
      "note": 93,
      "start": 7.9467,
      "duration": 0.3999,
      "velocity": 101,
      "chip": "ym2612"
    },
    {
      "channel": 2,
      "note": 69,
      "start": 7.9483,
      "duration": 0.094,
      "velocity": 127,
      "chip": "ym2612"
    },
    {
      "channel": 0,
      "note": 57,
      "start": 8.046,
      "duration": 0.1994,
      "velocity": 90,
      "chip": "ym2612"
    },
    {
      "channel": 4,
      "note": 72,
      "start": 8.0474,
      "duration": 1.4013,
      "velocity": 116,
      "chip": "ym2612"
    },
    {
      "channel": 2,
      "note": 30,
      "start": 8.0487,
      "duration": 0.129,
      "velocity": 119,
      "chip": "ym2612"
    },
    {
      "channel": 0,
      "note": 69,
      "start": 8.246,
      "duration": 0.0995,
      "velocity": 90,
      "chip": "ym2612"
    },
    {
      "channel": 1,
      "note": 91,
      "start": 8.2467,
      "duration": 0.3999,
      "velocity": 101,
      "chip": "ym2612"
    },
    {
      "channel": 2,
      "note": 69,
      "start": 8.2488,
      "duration": 0.0939,
      "velocity": 127,
      "chip": "ym2612"
    },
    {
      "channel": 0,
      "note": 69,
      "start": 8.3461,
      "duration": 0.0996,
      "velocity": 90,
      "chip": "ym2612"
    },
    {
      "channel": 3,
      "note": 91,
      "start": 8.3472,
      "duration": 0.3999,
      "velocity": 101,
      "chip": "ym2612"
    },
    {
      "channel": 2,
      "note": 69,
      "start": 8.3489,
      "duration": 0.0939,
      "velocity": 127,
      "chip": "ym2612"
    },
    {
      "channel": 0,
      "note": 57,
      "start": 8.4462,
      "duration": 0.1997,
      "velocity": 90,
      "chip": "ym2612"
    },
    {
      "channel": 5,
      "note": 74,
      "start": 8.4482,
      "duration": 0.3998,
      "velocity": 91,
      "chip": "ym2612"
    },
    {
      "channel": 2,
      "note": 78,
      "start": 8.4491,
      "duration": 0.194,
      "velocity": 127,
      "chip": "ym2612"
    },
    {
      "channel": 0,
      "note": 69,
      "start": 8.6465,
      "duration": 0.0995,
      "velocity": 90,
      "chip": "ym2612"
    },
    {
      "channel": 1,
      "note": 88,
      "start": 8.6472,
      "duration": 0.3999,
      "velocity": 101,
      "chip": "ym2612"
    },
    {
      "channel": 2,
      "note": 69,
      "start": 8.6493,
      "duration": 0.0939,
      "velocity": 127,
      "chip": "ym2612"
    },
    {
      "channel": 0,
      "note": 69,
      "start": 8.7466,
      "duration": 0.0996,
      "velocity": 90,
      "chip": "ym2612"
    },
    {
      "channel": 3,
      "note": 88,
      "start": 8.7477,
      "duration": 0.3999,
      "velocity": 101,
      "chip": "ym2612"
    },
    {
      "channel": 2,
      "note": 69,
      "start": 8.7494,
      "duration": 0.094,
      "velocity": 127,
      "chip": "ym2612"
    },
    {
      "channel": 0,
      "note": 57,
      "start": 8.8468,
      "duration": 0.1996,
      "velocity": 90,
      "chip": "ym2612"
    },
    {
      "channel": 5,
      "note": 72,
      "start": 8.8488,
      "duration": 0.4001,
      "velocity": 91,
      "chip": "ym2612"
    },
    {
      "channel": 2,
      "note": 30,
      "start": 8.8496,
      "duration": 0.1292,
      "velocity": 119,
      "chip": "ym2612"
    },
    {
      "channel": 0,
      "note": 69,
      "start": 9.047,
      "duration": 0.0995,
      "velocity": 90,
      "chip": "ym2612"
    },
    {
      "channel": 1,
      "note": 89,
      "start": 9.0478,
      "duration": 0.1996,
      "velocity": 101,
      "chip": "ym2612"
    },
    {
      "channel": 2,
      "note": 69,
      "start": 9.0498,
      "duration": 0.0939,
      "velocity": 127,
      "chip": "ym2612"
    },
    {
      "channel": 0,
      "note": 69,
      "start": 9.1471,
      "duration": 0.0995,
      "velocity": 90,
      "chip": "ym2612"
    },
    {
      "channel": 3,
      "note": 89,
      "start": 9.1482,
      "duration": 0.1965,
      "velocity": 101,
      "chip": "ym2612"
    },
    {
      "channel": 2,
      "note": 69,
      "start": 9.1499,
      "duration": 0.094,
      "velocity": 127,
      "chip": "ym2612"
    },
    {
      "channel": 0,
      "note": 57,
      "start": 9.2472,
      "duration": 0.1997,
      "velocity": 90,
      "chip": "ym2612"
    },
    {
      "channel": 1,
      "note": 88,
      "start": 9.248,
      "duration": 0.1997,
      "velocity": 101,
      "chip": "ym2612"
    },
    {
      "channel": 5,
      "note": 74,
      "start": 9.2496,
      "duration": 0.1999,
      "velocity": 91,
      "chip": "ym2612"
    },
    {
      "channel": 2,
      "note": 78,
      "start": 9.2505,
      "duration": 0.1936,
      "velocity": 127,
      "chip": "ym2612"
    },
    {
      "channel": 3,
      "note": 88,
      "start": 9.3453,
      "duration": 0.2028,
      "velocity": 101,
      "chip": "ym2612"
    },
    {
      "channel": 0,
      "note": 69,
      "start": 9.4475,
      "duration": 0.0995,
      "velocity": 90,
      "chip": "ym2612"
    },
    {
      "channel": 1,
      "note": 91,
      "start": 9.4483,
      "duration": 0.8004,
      "velocity": 101,
      "chip": "ym2612"
    },
    {
      "channel": 4,
      "note": 69,
      "start": 9.4494,
      "duration": 1.8015,
      "velocity": 116,
      "chip": "ym2612"
    },
    {
      "channel": 5,
      "note": 72,
      "start": 9.4503,
      "duration": 0.1996,
      "velocity": 91,
      "chip": "ym2612"
    },
    {
      "channel": 2,
      "note": 69,
      "start": 9.4512,
      "duration": 0.0931,
      "velocity": 127,
      "chip": "ym2612"
    },
    {
      "channel": 0,
      "note": 69,
      "start": 9.5476,
      "duration": 0.0998,
      "velocity": 90,
      "chip": "ym2612"
    },
    {
      "channel": 3,
      "note": 91,
      "start": 9.5487,
      "duration": 0.8004,
      "velocity": 101,
      "chip": "ym2612"
    },
    {
      "channel": 2,
      "note": 69,
      "start": 9.5504,
      "duration": 0.094,
      "velocity": 127,
      "chip": "ym2612"
    },
    {
      "channel": 0,
      "note": 53,
      "start": 9.648,
      "duration": 0.1994,
      "velocity": 90,
      "chip": "ym2612"
    },
    {
      "channel": 5,
      "note": 79,
      "start": 9.6507,
      "duration": 0.5994,
      "velocity": 91,
      "chip": "ym2612"
    },
    {
      "channel": 2,
      "note": 30,
      "start": 9.6516,
      "duration": 0.1282,
      "velocity": 119,
      "chip": "ym2612"
    },
    {
      "channel": 0,
      "note": 65,
      "start": 9.848,
      "duration": 0.0995,
      "velocity": 90,
      "chip": "ym2612"
    },
    {
      "channel": 2,
      "note": 69,
      "start": 9.8504,
      "duration": 0.0944,
      "velocity": 127,
      "chip": "ym2612"
    },
    {
      "channel": 0,
      "note": 65,
      "start": 9.9481,
      "duration": 0.0996,
      "velocity": 90,
      "chip": "ym2612"
    },
    {
      "channel": 2,
      "note": 69,
      "start": 9.9505,
      "duration": 0.0944,
      "velocity": 127,
      "chip": "ym2612"
    },
    {
      "channel": 0,
      "note": 53,
      "start": 10.0483,
      "duration": 0.1997,
      "velocity": 90,
      "chip": "ym2612"
    },
    {
      "channel": 2,
      "note": 78,
      "start": 10.0506,
      "duration": 0.1945,
      "velocity": 127,
      "chip": "ym2612"
    },
    {
      "channel": 0,
      "note": 65,
      "start": 10.2485,
      "duration": 0.0995,
      "velocity": 90,
      "chip": "ym2612"
    },
    {
      "channel": 1,
      "note": 84,
      "start": 10.2493,
      "duration": 0.1997,
      "velocity": 101,
      "chip": "ym2612"
    },
    {
      "channel": 5,
      "note": 72,
      "start": 10.2509,
      "duration": 0.1995,
      "velocity": 91,
      "chip": "ym2612"
    },
    {
      "channel": 2,
      "note": 69,
      "start": 10.2518,
      "duration": 0.0935,
      "velocity": 127,
      "chip": "ym2612"
    },
    {
      "channel": 0,
      "note": 65,
      "start": 10.3486,
      "duration": 0.0996,
      "velocity": 90,
      "chip": "ym2612"
    },
    {
      "channel": 3,
      "note": 84,
      "start": 10.3498,
      "duration": 0.1965,
      "velocity": 101,
      "chip": "ym2612"
    },
    {
      "channel": 2,
      "note": 69,
      "start": 10.3514,
      "duration": 0.094,
      "velocity": 127,
      "chip": "ym2612"
    },
    {
      "channel": 0,
      "note": 53,
      "start": 10.4488,
      "duration": 0.1996,
      "velocity": 90,
      "chip": "ym2612"
    },
    {
      "channel": 1,
      "note": 84,
      "start": 10.4496,
      "duration": 0.3998,
      "velocity": 101,
      "chip": "ym2612"
    },
    {
      "channel": 5,
      "note": 72,
      "start": 10.4512,
      "duration": 0.3997,
      "velocity": 91,
      "chip": "ym2612"
    },
    {
      "channel": 2,
      "note": 30,
      "start": 10.4521,
      "duration": 0.1288,
      "velocity": 119,
      "chip": "ym2612"
    },
    {
      "channel": 3,
      "note": 84,
      "start": 10.5469,
      "duration": 0.3999,
      "velocity": 101,
      "chip": "ym2612"
    },
    {
      "channel": 0,
      "note": 65,
      "start": 10.649,
      "duration": 0.0995,
      "velocity": 90,
      "chip": "ym2612"
    },
    {
      "channel": 2,
      "note": 69,
      "start": 10.6514,
      "duration": 0.0944,
      "velocity": 127,
      "chip": "ym2612"
    },
    {
      "channel": 0,
      "note": 65,
      "start": 10.7492,
      "duration": 0.0995,
      "velocity": 90,
      "chip": "ym2612"
    },
    {
      "channel": 2,
      "note": 69,
      "start": 10.7515,
      "duration": 0.0944,
      "velocity": 127,
      "chip": "ym2612"
    },
    {
      "channel": 0,
      "note": 53,
      "start": 10.8493,
      "duration": 0.1997,
      "velocity": 90,
      "chip": "ym2612"
    },
    {
      "channel": 1,
      "note": 84,
      "start": 10.8501,
      "duration": 0.1996,
      "velocity": 101,
      "chip": "ym2612"
    },
    {
      "channel": 5,
      "note": 72,
      "start": 10.8517,
      "duration": 0.1995,
      "velocity": 91,
      "chip": "ym2612"
    },
    {
      "channel": 2,
      "note": 78,
      "start": 10.8526,
      "duration": 0.1936,
      "velocity": 127,
      "chip": "ym2612"
    },
    {
      "channel": 3,
      "note": 84,
      "start": 10.9474,
      "duration": 0.2028,
      "velocity": 101,
      "chip": "ym2612"
    },
    {
      "channel": 0,
      "note": 65,
      "start": 11.0496,
      "duration": 0.0995,
      "velocity": 90,
      "chip": "ym2612"
    },
    {
      "channel": 1,
      "note": 91,
      "start": 11.0503,
      "duration": 0.1999,
      "velocity": 101,
      "chip": "ym2612"
    },
    {
      "channel": 5,
      "note": 79,
      "start": 11.0519,
      "duration": 0.1997,
      "velocity": 91,
      "chip": "ym2612"
    },
    {
      "channel": 2,
      "note": 69,
      "start": 11.0528,
      "duration": 0.0935,
      "velocity": 127,
      "chip": "ym2612"
    },
    {
      "channel": 0,
      "note": 65,
      "start": 11.1497,
      "duration": 0.0998,
      "velocity": 90,
      "chip": "ym2612"
    },
    {
      "channel": 3,
      "note": 91,
      "start": 11.1508,
      "duration": 0.1963,
      "velocity": 101,
      "chip": "ym2612"
    },
    {
      "channel": 2,
      "note": 69,
      "start": 11.1524,
      "duration": 0.094,
      "velocity": 127,
      "chip": "ym2612"
    },
    {
      "channel": 0,
      "note": 50,
      "start": 11.2501,
      "duration": 0.1994,
      "velocity": 90,
      "chip": "ym2612"
    },
    {
      "channel": 4,
      "note": 69,
      "start": 11.2515,
      "duration": 0.8007,
      "velocity": 116,
      "chip": "ym2612"
    },
    {
      "channel": 2,
      "note": 30,
      "start": 11.2527,
      "duration": 0.1283,
      "velocity": 119,
      "chip": "ym2612"
    },
    {
      "channel": 0,
      "note": 62,
      "start": 11.4501,
      "duration": 0.0995,
      "velocity": 90,
      "chip": "ym2612"
    },
    {
      "channel": 1,
      "note": 89,
      "start": 11.4508,
      "duration": 0.1997,
      "velocity": 101,
      "chip": "ym2612"
    },
    {
      "channel": 5,
      "note": 74,
      "start": 11.4522,
      "duration": 0.1993,
      "velocity": 91,
      "chip": "ym2612"
    },
    {
      "channel": 2,
      "note": 69,
      "start": 11.4531,
      "duration": 0.0937,
      "velocity": 127,
      "chip": "ym2612"
    },
    {
      "channel": 0,
      "note": 62,
      "start": 11.5502,
      "duration": 0.0996,
      "velocity": 90,
      "chip": "ym2612"
    },
    {
      "channel": 3,
      "note": 89,
      "start": 11.5513,
      "duration": 0.1962,
      "velocity": 101,
      "chip": "ym2612"
    },
    {
      "channel": 2,
      "note": 69,
      "start": 11.553,
      "duration": 0.094,
      "velocity": 127,
      "chip": "ym2612"
    },
    {
      "channel": 0,
      "note": 50,
      "start": 11.6503,
      "duration": 0.1997,
      "velocity": 90,
      "chip": "ym2612"
    },
    {
      "channel": 2,
      "note": 78,
      "start": 11.6525,
      "duration": 0.1947,
      "velocity": 127,
      "chip": "ym2612"
    },
    {
      "channel": 0,
      "note": 62,
      "start": 11.8506,
      "duration": 0.0995,
      "velocity": 90,
      "chip": "ym2612"
    },
    {
      "channel": 1,
      "note": 88,
      "start": 11.8513,
      "duration": 0.1997,
      "velocity": 101,
      "chip": "ym2612"
    },
    {
      "channel": 5,
      "note": 72,
      "start": 11.8527,
      "duration": 0.2002,
      "velocity": 91,
      "chip": "ym2612"
    },
    {
      "channel": 2,
      "note": 69,
      "start": 11.8536,
      "duration": 0.0938,
      "velocity": 127,
      "chip": "ym2612"
    },
    {
      "channel": 0,
      "note": 62,
      "start": 11.9507,
      "duration": 0.0996,
      "velocity": 90,
      "chip": "ym2612"
    },
    {
      "channel": 3,
      "note": 88,
      "start": 11.9518,
      "duration": 0.1965,
      "velocity": 101,
      "chip": "ym2612"
    },
    {
      "channel": 2,
      "note": 69,
      "start": 11.9535,
      "duration": 0.0941,
      "velocity": 127,
      "chip": "ym2612"
    },
    {
      "channel": 0,
      "note": 55,
      "start": 12.0509,
      "duration": 0.1996,
      "velocity": 90,
      "chip": "ym2612"
    },
    {
      "channel": 1,
      "note": 89,
      "start": 12.0517,
      "duration": 0.1996,
      "velocity": 101,
      "chip": "ym2612"
    },
    {
      "channel": 4,
      "note": 77,
      "start": 12.0528,
      "duration": 0.8006,
      "velocity": 116,
      "chip": "ym2612"
    },
    {
      "channel": 5,
      "note": 74,
      "start": 12.0537,
      "duration": 0.199,
      "velocity": 91,
      "chip": "ym2612"
    },
    {
      "channel": 2,
      "note": 30,
      "start": 12.0545,
      "duration": 0.1284,
      "velocity": 119,
      "chip": "ym2612"
    },
    {
      "channel": 3,
      "note": 89,
      "start": 12.1489,
      "duration": 0.2028,
      "velocity": 101,
      "chip": "ym2612"
    },
    {
      "channel": 0,
      "note": 67,
      "start": 12.2511,
      "duration": 0.0995,
      "velocity": 90,
      "chip": "ym2612"
    },
    {
      "channel": 1,
      "note": 88,
      "start": 12.2519,
      "duration": 0.1997,
      "velocity": 101,
      "chip": "ym2612"
    },
    {
      "channel": 5,
      "note": 72,
      "start": 12.2535,
      "duration": 0.1995,
      "velocity": 91,
      "chip": "ym2612"
    },
    {
      "channel": 2,
      "note": 69,
      "start": 12.2544,
      "duration": 0.0935,
      "velocity": 127,
      "chip": "ym2612"
    },
    {
      "channel": 0,
      "note": 67,
      "start": 12.3512,
      "duration": 0.0996,
      "velocity": 90,
      "chip": "ym2612"
    },
    {
      "channel": 3,
      "note": 88,
      "start": 12.3523,
      "duration": 0.1965,
      "velocity": 101,
      "chip": "ym2612"
    },
    {
      "channel": 2,
      "note": 69,
      "start": 12.354,
      "duration": 0.094,
      "velocity": 127,
      "chip": "ym2612"
    },
    {
      "channel": 0,
      "note": 55,
      "start": 12.4514,
      "duration": 0.1997,
      "velocity": 90,
      "chip": "ym2612"
    },
    {
      "channel": 1,
      "note": 84,
      "start": 12.4521,
      "duration": 0.1997,
      "velocity": 101,
      "chip": "ym2612"
    },
    {
      "channel": 5,
      "note": 69,
      "start": 12.4537,
      "duration": 0.1995,
      "velocity": 91,
      "chip": "ym2612"
    },
    {
      "channel": 2,
      "note": 78,
      "start": 12.4546,
      "duration": 0.1936,
      "velocity": 127,
      "chip": "ym2612"
    },
    {
      "channel": 3,
      "note": 84,
      "start": 12.5494,
      "duration": 0.2028,
      "velocity": 101,
      "chip": "ym2612"
    },
    {
      "channel": 0,
      "note": 67,
      "start": 12.6516,
      "duration": 0.0995,
      "velocity": 90,
      "chip": "ym2612"
    },
    {
      "channel": 1,
      "note": 83,
      "start": 12.6524,
      "duration": 0.1999,
      "velocity": 101,
      "chip": "ym2612"
    },
    {
      "channel": 5,
      "note": 67,
      "start": 12.654,
      "duration": 0.2002,
      "velocity": 91,
      "chip": "ym2612"
    },
    {
      "channel": 2,
      "note": 69,
      "start": 12.6549,
      "duration": 0.0935,
      "velocity": 127,
      "chip": "ym2612"
    },
    {
      "channel": 0,
      "note": 67,
      "start": 12.7517,
      "duration": 0.0998,
      "velocity": 90,
      "chip": "ym2612"
    },
    {
      "channel": 3,
      "note": 83,
      "start": 12.7528,
      "duration": 0.1965,
      "velocity": 101,
      "chip": "ym2612"
    },
    {
      "channel": 2,
      "note": 69,
      "start": 12.7545,
      "duration": 0.094,
      "velocity": 127,
      "chip": "ym2612"
    },
    {
      "channel": 0,
      "note": 48,
      "start": 12.8521,
      "duration": 0.1994,
      "velocity": 90,
      "chip": "ym2612"
    },
    {
      "channel": 1,
      "note": 88,
      "start": 12.8529,
      "duration": 0.1994,
      "velocity": 101,
      "chip": "ym2612"
    },
    {
      "channel": 4,
      "note": 79,
      "start": 12.854,
      "duration": 1.601,
      "velocity": 116,
      "chip": "ym2612"
    },
    {
      "channel": 5,
      "note": 88,
      "start": 12.855,
      "duration": 1.6008,
      "velocity": 91,
      "chip": "ym2612"
    },
    {
      "channel": 2,
      "note": 30,
      "start": 12.8558,
      "duration": 0.1281,
      "velocity": 119,
      "chip": "ym2612"
    },
    {
      "channel": 3,
      "note": 88,
      "start": 12.95,
      "duration": 0.2028,
      "velocity": 101,
      "chip": "ym2612"
    },
    {
      "channel": 0,
      "note": 60,
      "start": 13.0521,
      "duration": 0.0995,
      "velocity": 90,
      "chip": "ym2612"
    },
    {
      "channel": 1,
      "note": 89,
      "start": 13.0529,
      "duration": 0.1996,
      "velocity": 101,
      "chip": "ym2612"
    },
    {
      "channel": 2,
      "note": 69,
      "start": 13.0549,
      "duration": 0.0939,
      "velocity": 127,
      "chip": "ym2612"
    },
    {
      "channel": 0,
      "note": 60,
      "start": 13.1522,
      "duration": 0.0996,
      "velocity": 90,
      "chip": "ym2612"
    },
    {
      "channel": 3,
      "note": 89,
      "start": 13.1534,
      "duration": 0.1965,
      "velocity": 101,
      "chip": "ym2612"
    },
    {
      "channel": 2,
      "note": 69,
      "start": 13.155,
      "duration": 0.094,
      "velocity": 127,
      "chip": "ym2612"
    },
    {
      "channel": 0,
      "note": 48,
      "start": 13.2524,
      "duration": 0.1997,
      "velocity": 90,
      "chip": "ym2612"
    },
    {
      "channel": 1,
      "note": 91,
      "start": 13.2532,
      "duration": 0.1997,
      "velocity": 101,
      "chip": "ym2612"
    },
    {
      "channel": 2,
      "note": 78,
      "start": 13.2552,
      "duration": 0.1941,
      "velocity": 127,
      "chip": "ym2612"
    },
    {
      "channel": 3,
      "note": 91,
      "start": 13.3505,
      "duration": 0.2028,
      "velocity": 101,
      "chip": "ym2612"
    },
    {
      "channel": 0,
      "note": 60,
      "start": 13.4527,
      "duration": 0.0995,
      "velocity": 90,
      "chip": "ym2612"
    },
    {
      "channel": 1,
      "note": 88,
      "start": 13.4534,
      "duration": 0.1997,
      "velocity": 101,
      "chip": "ym2612"
    },
    {
      "channel": 2,
      "note": 69,
      "start": 13.4554,
      "duration": 0.0939,
      "velocity": 127,
      "chip": "ym2612"
    },
    {
      "channel": 0,
      "note": 60,
      "start": 13.5528,
      "duration": 0.0996,
      "velocity": 90,
      "chip": "ym2612"
    },
    {
      "channel": 3,
      "note": 88,
      "start": 13.5539,
      "duration": 0.1965,
      "velocity": 101,
      "chip": "ym2612"
    },
    {
      "channel": 2,
      "note": 69,
      "start": 13.5555,
      "duration": 0.0941,
      "velocity": 127,
      "chip": "ym2612"
    },
    {
      "channel": 0,
      "note": 48,
      "start": 13.653,
      "duration": 0.1996,
      "velocity": 90,
      "chip": "ym2612"
    },
    {
      "channel": 1,
      "note": 89,
      "start": 13.6537,
      "duration": 0.1996,
      "velocity": 101,
      "chip": "ym2612"
    },
    {
      "channel": 2,
      "note": 30,
      "start": 13.6557,
      "duration": 0.1293,
      "velocity": 119,
      "chip": "ym2612"
    },
    {
      "channel": 3,
      "note": 89,
      "start": 13.751,
      "duration": 0.2028,
      "velocity": 101,
      "chip": "ym2612"
    },
    {
      "channel": 0,
      "note": 60,
      "start": 13.8532,
      "duration": 0.0995,
      "velocity": 90,
      "chip": "ym2612"
    },
    {
      "channel": 1,
      "note": 91,
      "start": 13.8539,
      "duration": 0.1997,
      "velocity": 101,
      "chip": "ym2612"
    },
    {
      "channel": 2,
      "note": 69,
      "start": 13.8559,
      "duration": 0.094,
      "velocity": 127,
      "chip": "ym2612"
    },
    {
      "channel": 0,
      "note": 60,
      "start": 13.9533,
      "duration": 0.0996,
      "velocity": 90,
      "chip": "ym2612"
    },
    {
      "channel": 3,
      "note": 91,
      "start": 13.9544,
      "duration": 0.1963,
      "velocity": 101,
      "chip": "ym2612"
    },
    {
      "channel": 2,
      "note": 69,
      "start": 13.9561,
      "duration": 0.094,
      "velocity": 127,
      "chip": "ym2612"
    },
    {
      "channel": 0,
      "note": 48,
      "start": 14.0534,
      "duration": 0.1997,
      "velocity": 90,
      "chip": "ym2612"
    },
    {
      "channel": 2,
      "note": 78,
      "start": 14.0558,
      "duration": 0.1945,
      "velocity": 127,
      "chip": "ym2612"
    },
    {
      "channel": 0,
      "note": 60,
      "start": 14.2537,
      "duration": 0.0995,
      "velocity": 90,
      "chip": "ym2612"
    },
    {
      "channel": 1,
      "note": 88,
      "start": 14.2544,
      "duration": 0.3999,
      "velocity": 101,
      "chip": "ym2612"
    },
    {
      "channel": 2,
      "note": 69,
      "start": 14.2562,
      "duration": 0.0942,
      "velocity": 127,
      "chip": "ym2612"
    },
    {
      "channel": 0,
      "note": 60,
      "start": 14.3538,
      "duration": 0.0998,
      "velocity": 90,
      "chip": "ym2612"
    },
    {
      "channel": 3,
      "note": 88,
      "start": 14.3549,
      "duration": 0.3999,
      "velocity": 101,
      "chip": "ym2612"
    },
    {
      "channel": 2,
      "note": 69,
      "start": 14.3566,
      "duration": 0.0941,
      "velocity": 127,
      "chip": "ym2612"
    },
    {
      "channel": 0,
      "note": 47,
      "start": 14.4542,
      "duration": 0.1994,
      "velocity": 90,
      "chip": "ym2612"
    },
    {
      "channel": 4,
      "note": 79,
      "start": 14.4556,
      "duration": 1.0008,
      "velocity": 116,
      "chip": "ym2612"
    },
    {
      "channel": 5,
      "note": 86,
      "start": 14.4566,
      "duration": 1.2005,
      "velocity": 91,
      "chip": "ym2612"
    },
    {
      "channel": 2,
      "note": 30,
      "start": 14.4574,
      "duration": 0.1285,
      "velocity": 119,
      "chip": "ym2612"
    },
    {
      "channel": 0,
      "note": 59,
      "start": 14.6542,
      "duration": 0.0995,
      "velocity": 90,
      "chip": "ym2612"
    },
    {
      "channel": 1,
      "note": 89,
      "start": 14.655,
      "duration": 0.1996,
      "velocity": 101,
      "chip": "ym2612"
    },
    {
      "channel": 2,
      "note": 69,
      "start": 14.657,
      "duration": 0.0939,
      "velocity": 127,
      "chip": "ym2612"
    },
    {
      "channel": 0,
      "note": 59,
      "start": 14.7543,
      "duration": 0.0996,
      "velocity": 90,
      "chip": "ym2612"
    },
    {
      "channel": 3,
      "note": 89,
      "start": 14.7554,
      "duration": 0.1965,
      "velocity": 101,
      "chip": "ym2612"
    },
    {
      "channel": 2,
      "note": 69,
      "start": 14.7571,
      "duration": 0.094,
      "velocity": 127,
      "chip": "ym2612"
    },
    {
      "channel": 0,
      "note": 47,
      "start": 14.8544,
      "duration": 0.1997,
      "velocity": 90,
      "chip": "ym2612"
    },
    {
      "channel": 1,
      "note": 91,
      "start": 14.8552,
      "duration": 0.1997,
      "velocity": 101,
      "chip": "ym2612"
    },
    {
      "channel": 2,
      "note": 78,
      "start": 14.8572,
      "duration": 0.1941,
      "velocity": 127,
      "chip": "ym2612"
    },
    {
      "channel": 3,
      "note": 91,
      "start": 14.9525,
      "duration": 0.2028,
      "velocity": 101,
      "chip": "ym2612"
    },
    {
      "channel": 0,
      "note": 59,
      "start": 15.0547,
      "duration": 0.0995,
      "velocity": 90,
      "chip": "ym2612"
    },
    {
      "channel": 1,
      "note": 88,
      "start": 15.0555,
      "duration": 0.1997,
      "velocity": 101,
      "chip": "ym2612"
    },
    {
      "channel": 2,
      "note": 69,
      "start": 15.0575,
      "duration": 0.094,
      "velocity": 127,
      "chip": "ym2612"
    },
    {
      "channel": 0,
      "note": 59,
      "start": 15.1548,
      "duration": 0.0996,
      "velocity": 90,
      "chip": "ym2612"
    },
    {
      "channel": 3,
      "note": 88,
      "start": 15.1559,
      "duration": 0.1965,
      "velocity": 101,
      "chip": "ym2612"
    },
    {
      "channel": 2,
      "note": 69,
      "start": 15.1576,
      "duration": 0.0941,
      "velocity": 127,
      "chip": "ym2612"
    },
    {
      "channel": 0,
      "note": 47,
      "start": 15.255,
      "duration": 0.1996,
      "velocity": 90,
      "chip": "ym2612"
    },
    {
      "channel": 1,
      "note": 89,
      "start": 15.2558,
      "duration": 0.1996,
      "velocity": 101,
      "chip": "ym2612"
    },
    {
      "channel": 2,
      "note": 30,
      "start": 15.2578,
      "duration": 0.1292,
      "velocity": 119,
      "chip": "ym2612"
    },
    {
      "channel": 3,
      "note": 89,
      "start": 15.353,
      "duration": 0.2028,
      "velocity": 101,
      "chip": "ym2612"
    },
    {
      "channel": 0,
      "note": 59,
      "start": 15.4552,
      "duration": 0.0995,
      "velocity": 90,
      "chip": "ym2612"
    },
    {
      "channel": 1,
      "note": 91,
      "start": 15.456,
      "duration": 0.1997,
      "velocity": 101,
      "chip": "ym2612"
    },
    {
      "channel": 4,
      "note": 74,
      "start": 15.4571,
      "duration": 0.1992,
      "velocity": 116,
      "chip": "ym2612"
    },
    {
      "channel": 2,
      "note": 69,
      "start": 15.4584,
      "duration": 0.0936,
      "velocity": 127,
      "chip": "ym2612"
    },
    {
      "channel": 0,
      "note": 59,
      "start": 15.5553,
      "duration": 0.0996,
      "velocity": 90,
      "chip": "ym2612"
    },
    {
      "channel": 3,
      "note": 91,
      "start": 15.5564,
      "duration": 0.1963,
      "velocity": 101,
      "chip": "ym2612"
    },
    {
      "channel": 2,
      "note": 69,
      "start": 15.5581,
      "duration": 0.094,
      "velocity": 127,
      "chip": "ym2612"
    },
    {
      "channel": 0,
      "note": 47,
      "start": 15.6555,
      "duration": 0.1997,
      "velocity": 90,
      "chip": "ym2612"
    },
    {
      "channel": 4,
      "note": 83,
      "start": 15.6569,
      "duration": 0.1994,
      "velocity": 116,
      "chip": "ym2612"
    },
    {
      "channel": 5,
      "note": 91,
      "start": 15.6578,
      "duration": 0.1992,
      "velocity": 91,
      "chip": "ym2612"
    },
    {
      "channel": 2,
      "note": 78,
      "start": 15.6587,
      "duration": 0.1936,
      "velocity": 127,
      "chip": "ym2612"
    },
    {
      "channel": 0,
      "note": 59,
      "start": 15.8558,
      "duration": 0.0995,
      "velocity": 90,
      "chip": "ym2612"
    },
    {
      "channel": 4,
      "note": 79,
      "start": 15.8569,
      "duration": 1.4015,
      "velocity": 116,
      "chip": "ym2612"
    },
    {
      "channel": 5,
      "note": 84,
      "start": 15.8578,
      "duration": 1.4013,
      "velocity": 91,
      "chip": "ym2612"
    },
    {
      "channel": 2,
      "note": 69,
      "start": 15.8587,
      "duration": 0.0938,
      "velocity": 127,
      "chip": "ym2612"
    },
    {
      "channel": 0,
      "note": 59,
      "start": 15.9559,
      "duration": 0.0998,
      "velocity": 90,
      "chip": "ym2612"
    },
    {
      "channel": 2,
      "note": 69,
      "start": 15.9579,
      "duration": 0.0947,
      "velocity": 127,
      "chip": "ym2612"
    },
    {
      "channel": 0,
      "note": 45,
      "start": 16.0563,
      "duration": 0.1994,
      "velocity": 90,
      "chip": "ym2612"
    },
    {
      "channel": 1,
      "note": 88,
      "start": 16.057,
      "duration": 0.1994,
      "velocity": 101,
      "chip": "ym2612"
    },
    {
      "channel": 2,
      "note": 30,
      "start": 16.0588,
      "duration": 0.1293,
      "velocity": 119,
      "chip": "ym2612"
    },
    {
      "channel": 3,
      "note": 88,
      "start": 16.1541,
      "duration": 0.2028,
      "velocity": 101,
      "chip": "ym2612"
    },
    {
      "channel": 0,
      "note": 57,
      "start": 16.2563,
      "duration": 0.0995,
      "velocity": 90,
      "chip": "ym2612"
    },
    {
      "channel": 1,
      "note": 89,
      "start": 16.257,
      "duration": 0.1997,
      "velocity": 101,
      "chip": "ym2612"
    },
    {
      "channel": 2,
      "note": 69,
      "start": 16.259,
      "duration": 0.0939,
      "velocity": 127,
      "chip": "ym2612"
    },
    {
      "channel": 0,
      "note": 57,
      "start": 16.3564,
      "duration": 0.0996,
      "velocity": 90,
      "chip": "ym2612"
    },
    {
      "channel": 3,
      "note": 89,
      "start": 16.3575,
      "duration": 0.1965,
      "velocity": 101,
      "chip": "ym2612"
    },
    {
      "channel": 2,
      "note": 69,
      "start": 16.3591,
      "duration": 0.094,
      "velocity": 127,
      "chip": "ym2612"
    },
    {
      "channel": 0,
      "note": 45,
      "start": 16.4565,
      "duration": 0.1997,
      "velocity": 90,
      "chip": "ym2612"
    },
    {
      "channel": 1,
      "note": 91,
      "start": 16.4573,
      "duration": 0.1997,
      "velocity": 101,
      "chip": "ym2612"
    },
    {
      "channel": 2,
      "note": 78,
      "start": 16.4593,
      "duration": 0.1941,
      "velocity": 127,
      "chip": "ym2612"
    },
    {
      "channel": 3,
      "note": 91,
      "start": 16.5546,
      "duration": 0.2028,
      "velocity": 101,
      "chip": "ym2612"
    },
    {
      "channel": 0,
      "note": 57,
      "start": 16.6568,
      "duration": 0.0995,
      "velocity": 90,
      "chip": "ym2612"
    },
    {
      "channel": 1,
      "note": 88,
      "start": 16.6575,
      "duration": 0.1997,
      "velocity": 101,
      "chip": "ym2612"
    },
    {
      "channel": 2,
      "note": 69,
      "start": 16.6595,
      "duration": 0.094,
      "velocity": 127,
      "chip": "ym2612"
    },
    {
      "channel": 0,
      "note": 57,
      "start": 16.7569,
      "duration": 0.0996,
      "velocity": 90,
      "chip": "ym2612"
    },
    {
      "channel": 3,
      "note": 88,
      "start": 16.758,
      "duration": 0.1965,
      "velocity": 101,
      "chip": "ym2612"
    },
    {
      "channel": 2,
      "note": 69,
      "start": 16.7597,
      "duration": 0.0941,
      "velocity": 127,
      "chip": "ym2612"
    },
    {
      "channel": 0,
      "note": 45,
      "start": 16.8571,
      "duration": 0.1996,
      "velocity": 90,
      "chip": "ym2612"
    },
    {
      "channel": 1,
      "note": 89,
      "start": 16.8578,
      "duration": 0.1996,
      "velocity": 101,
      "chip": "ym2612"
    },
    {
      "channel": 2,
      "note": 30,
      "start": 16.8598,
      "duration": 0.1292,
      "velocity": 119,
      "chip": "ym2612"
    },
    {
      "channel": 3,
      "note": 89,
      "start": 16.9551,
      "duration": 0.2028,
      "velocity": 101,
      "chip": "ym2612"
    },
    {
      "channel": 0,
      "note": 57,
      "start": 17.0573,
      "duration": 0.0995,
      "velocity": 90,
      "chip": "ym2612"
    },
    {
      "channel": 1,
      "note": 91,
      "start": 17.058,
      "duration": 0.1997,
      "velocity": 101,
      "chip": "ym2612"
    },
    {
      "channel": 2,
      "note": 69,
      "start": 17.0601,
      "duration": 0.094,
      "velocity": 127,
      "chip": "ym2612"
    },
    {
      "channel": 0,
      "note": 57,
      "start": 17.1574,
      "duration": 0.0996,
      "velocity": 90,
      "chip": "ym2612"
    },
    {
      "channel": 3,
      "note": 91,
      "start": 17.1585,
      "duration": 0.1963,
      "velocity": 101,
      "chip": "ym2612"
    },
    {
      "channel": 2,
      "note": 69,
      "start": 17.1602,
      "duration": 0.094,
      "velocity": 127,
      "chip": "ym2612"
    },
    {
      "channel": 0,
      "note": 45,
      "start": 17.2576,
      "duration": 0.1997,
      "velocity": 90,
      "chip": "ym2612"
    },
    {
      "channel": 4,
      "note": 76,
      "start": 17.259,
      "duration": 0.1998,
      "velocity": 116,
      "chip": "ym2612"
    },
    {
      "channel": 5,
      "note": 79,
      "start": 17.2599,
      "duration": 0.1997,
      "velocity": 91,
      "chip": "ym2612"
    },
    {
      "channel": 2,
      "note": 78,
      "start": 17.2608,
      "duration": 0.1936,
      "velocity": 127,
      "chip": "ym2612"
    },
    {
      "channel": 0,
      "note": 57,
      "start": 17.4578,
      "duration": 0.0995,
      "velocity": 90,
      "chip": "ym2612"
    },
    {
      "channel": 1,
      "note": 95,
      "start": 17.4586,
      "duration": 0.6001,
      "velocity": 101,
      "chip": "ym2612"
    },
    {
      "channel": 4,
      "note": 79,
      "start": 17.4594,
      "duration": 0.6004,
      "velocity": 116,
      "chip": "ym2612"
    },
    {
      "channel": 5,
      "note": 84,
      "start": 17.4604,
      "duration": 1.0008,
      "velocity": 91,
      "chip": "ym2612"
    },
    {
      "channel": 2,
      "note": 69,
      "start": 17.4612,
      "duration": 0.0933,
      "velocity": 127,
      "chip": "ym2612"
    },
    {
      "channel": 0,
      "note": 57,
      "start": 17.5579,
      "duration": 0.0998,
      "velocity": 90,
      "chip": "ym2612"
    },
    {
      "channel": 3,
      "note": 95,
      "start": 17.559,
      "duration": 0.597,
      "velocity": 101,
      "chip": "ym2612"
    },
    {
      "channel": 2,
      "note": 69,
      "start": 17.5607,
      "duration": 0.094,
      "velocity": 127,
      "chip": "ym2612"
    },
    {
      "channel": 0,
      "note": 45,
      "start": 17.6583,
      "duration": 0.1994,
      "velocity": 90,
      "chip": "ym2612"
    },
    {
      "channel": 2,
      "note": 30,
      "start": 17.661,
      "duration": 0.1291,
      "velocity": 119,
      "chip": "ym2612"
    },
    {
      "channel": 0,
      "note": 57,
      "start": 17.8583,
      "duration": 0.0995,
      "velocity": 90,
      "chip": "ym2612"
    },
    {
      "channel": 2,
      "note": 69,
      "start": 17.8607,
      "duration": 0.0944,
      "velocity": 127,
      "chip": "ym2612"
    },
    {
      "channel": 0,
      "note": 57,
      "start": 17.9584,
      "duration": 0.0996,
      "velocity": 90,
      "chip": "ym2612"
    },
    {
      "channel": 2,
      "note": 69,
      "start": 17.9608,
      "duration": 0.0944,
      "velocity": 127,
      "chip": "ym2612"
    },
    {
      "channel": 0,
      "note": 45,
      "start": 18.0586,
      "duration": 0.1997,
      "velocity": 90,
      "chip": "ym2612"
    },
    {
      "channel": 1,
      "note": 96,
      "start": 18.0594,
      "duration": 0.3999,
      "velocity": 101,
      "chip": "ym2612"
    },
    {
      "channel": 4,
      "note": 76,
      "start": 18.0605,
      "duration": 0.3999,
      "velocity": 116,
      "chip": "ym2612"
    },
    {
      "channel": 2,
      "note": 78,
      "start": 18.0618,
      "duration": 0.1936,
      "velocity": 127,
      "chip": "ym2612"
    },
    {
      "channel": 3,
      "note": 96,
      "start": 18.1567,
      "duration": 0.3999,
      "velocity": 101,
      "chip": "ym2612"
    },
    {
      "channel": 0,
      "note": 57,
      "start": 18.2588,
      "duration": 0.0995,
      "velocity": 90,
      "chip": "ym2612"
    },
    {
      "channel": 2,
      "note": 69,
      "start": 18.2612,
      "duration": 0.0944,
      "velocity": 127,
      "chip": "ym2612"
    },
    {
      "channel": 0,
      "note": 57,
      "start": 18.3589,
      "duration": 0.0996,
      "velocity": 90,
      "chip": "ym2612"
    },
    {
      "channel": 2,
      "note": 69,
      "start": 18.3613,
      "duration": 0.0945,
      "velocity": 127,
      "chip": "ym2612"
    },
    {
      "channel": 0,
      "note": 43,
      "start": 18.4591,
      "duration": 0.1996,
      "velocity": 90,
      "chip": "ym2612"
    },
    {
      "channel": 1,
      "note": 91,
      "start": 18.4599,
      "duration": 0.3998,
      "velocity": 101,
      "chip": "ym2612"
    },
    {
      "channel": 4,
      "note": 74,
      "start": 18.461,
      "duration": 0.3999,
      "velocity": 116,
      "chip": "ym2612"
    },
    {
      "channel": 5,
      "note": 83,
      "start": 18.4619,
      "duration": 0.8005,
      "velocity": 91,
      "chip": "ym2612"
    },
    {
      "channel": 2,
      "note": 30,
      "start": 18.4628,
      "duration": 0.1284,
      "velocity": 119,
      "chip": "ym2612"
    },
    {
      "channel": 3,
      "note": 91,
      "start": 18.5572,
      "duration": 0.3999,
      "velocity": 101,
      "chip": "ym2612"
    },
    {
      "channel": 0,
      "note": 55,
      "start": 18.6593,
      "duration": 0.0995,
      "velocity": 90,
      "chip": "ym2612"
    },
    {
      "channel": 2,
      "note": 69,
      "start": 18.6617,
      "duration": 0.0944,
      "velocity": 127,
      "chip": "ym2612"
    },
    {
      "channel": 0,
      "note": 55,
      "start": 18.7595,
      "duration": 0.0996,
      "velocity": 90,
      "chip": "ym2612"
    },
    {
      "channel": 2,
      "note": 69,
      "start": 18.7618,
      "duration": 0.0944,
      "velocity": 127,
      "chip": "ym2612"
    },
    {
      "channel": 0,
      "note": 43,
      "start": 18.8596,
      "duration": 0.1997,
      "velocity": 90,
      "chip": "ym2612"
    },
    {
      "channel": 1,
      "note": 88,
      "start": 18.8604,
      "duration": 0.4002,
      "velocity": 101,
      "chip": "ym2612"
    },
    {
      "channel": 4,
      "note": 71,
      "start": 18.8615,
      "duration": 0.4002,
      "velocity": 116,
      "chip": "ym2612"
    },
    {
      "channel": 2,
      "note": 78,
      "start": 18.8628,
      "duration": 0.1937,
      "velocity": 127,
      "chip": "ym2612"
    },
    {
      "channel": 3,
      "note": 88,
      "start": 18.9577,
      "duration": 0.3999,
      "velocity": 101,
      "chip": "ym2612"
    },
    {
      "channel": 0,
      "note": 55,
      "start": 19.0599,
      "duration": 0.0995,
      "velocity": 90,
      "chip": "ym2612"
    },
    {
      "channel": 2,
      "note": 69,
      "start": 19.0622,
      "duration": 0.0944,
      "velocity": 127,
      "chip": "ym2612"
    },
    {
      "channel": 0,
      "note": 55,
      "start": 19.16,
      "duration": 0.0998,
      "velocity": 90,
      "chip": "ym2612"
    },
    {
      "channel": 2,
      "note": 69,
      "start": 19.1623,
      "duration": 0.0945,
      "velocity": 127,
      "chip": "ym2612"
    },
    {
      "channel": 0,
      "note": 41,
      "start": 19.2604,
      "duration": 0.1994,
      "velocity": 90,
      "chip": "ym2612"
    },
    {
      "channel": 1,
      "note": 91,
      "start": 19.2611,
      "duration": 0.5999,
      "velocity": 101,
      "chip": "ym2612"
    },
    {
      "channel": 4,
      "note": 72,
      "start": 19.2622,
      "duration": 1.601,
      "velocity": 116,
      "chip": "ym2612"
    },
    {
      "channel": 5,
      "note": 69,
      "start": 19.2632,
      "duration": 0.3986,
      "velocity": 91,
      "chip": "ym2612"
    },
    {
      "channel": 2,
      "note": 30,
      "start": 19.264,
      "duration": 0.1281,
      "velocity": 119,
      "chip": "ym2612"
    },
    {
      "channel": 3,
      "note": 91,
      "start": 19.3582,
      "duration": 0.6033,
      "velocity": 101,
      "chip": "ym2612"
    },
    {
      "channel": 0,
      "note": 53,
      "start": 19.4604,
      "duration": 0.0995,
      "velocity": 90,
      "chip": "ym2612"
    },
    {
      "channel": 2,
      "note": 69,
      "start": 19.4627,
      "duration": 0.0944,
      "velocity": 127,
      "chip": "ym2612"
    },
    {
      "channel": 0,
      "note": 53,
      "start": 19.5605,
      "duration": 0.0996,
      "velocity": 90,
      "chip": "ym2612"
    },
    {
      "channel": 2,
      "note": 69,
      "start": 19.5629,
      "duration": 0.0944,
      "velocity": 127,
      "chip": "ym2612"
    },
    {
      "channel": 0,
      "note": 41,
      "start": 19.6606,
      "duration": 0.1997,
      "velocity": 90,
      "chip": "ym2612"
    },
    {
      "channel": 5,
      "note": 69,
      "start": 19.6626,
      "duration": 0.4002,
      "velocity": 91,
      "chip": "ym2612"
    },
    {
      "channel": 2,
      "note": 78,
      "start": 19.6635,
      "duration": 0.194,
      "velocity": 127,
      "chip": "ym2612"
    },
    {
      "channel": 0,
      "note": 53,
      "start": 19.8609,
      "duration": 0.0995,
      "velocity": 90,
      "chip": "ym2612"
    },
    {
      "channel": 1,
      "note": 84,
      "start": 19.8617,
      "duration": 0.1997,
      "velocity": 101,
      "chip": "ym2612"
    },
    {
      "channel": 2,
      "note": 69,
      "start": 19.8637,
      "duration": 0.094,
      "velocity": 127,
      "chip": "ym2612"
    },
    {
      "channel": 0,
      "note": 53,
      "start": 19.961,
      "duration": 0.0996,
      "velocity": 90,
      "chip": "ym2612"
    },
    {
      "channel": 3,
      "note": 84,
      "start": 19.9621,
      "duration": 0.1965,
      "velocity": 101,
      "chip": "ym2612"
    },
    {
      "channel": 2,
      "note": 69,
      "start": 19.9638,
      "duration": 0.0941,
      "velocity": 127,
      "chip": "ym2612"
    },
    {
      "channel": 0,
      "note": 41,
      "start": 20.0612,
      "duration": 0.1996,
      "velocity": 90,
      "chip": "ym2612"
    },
    {
      "channel": 1,
      "note": 84,
      "start": 20.062,
      "duration": 0.3998,
      "velocity": 101,
      "chip": "ym2612"
    },
    {
      "channel": 5,
      "note": 69,
      "start": 20.0636,
      "duration": 0.3997,
      "velocity": 91,
      "chip": "ym2612"
    },
    {
      "channel": 2,
      "note": 30,
      "start": 20.0644,
      "duration": 0.1288,
      "velocity": 119,
      "chip": "ym2612"
    },
    {
      "channel": 3,
      "note": 84,
      "start": 20.1593,
      "duration": 0.3999,
      "velocity": 101,
      "chip": "ym2612"
    },
    {
      "channel": 0,
      "note": 53,
      "start": 20.2614,
      "duration": 0.0995,
      "velocity": 90,
      "chip": "ym2612"
    },
    {
      "channel": 2,
      "note": 69,
      "start": 20.2638,
      "duration": 0.0944,
      "velocity": 127,
      "chip": "ym2612"
    },
    {
      "channel": 0,
      "note": 53,
      "start": 20.3615,
      "duration": 0.0996,
      "velocity": 90,
      "chip": "ym2612"
    },
    {
      "channel": 2,
      "note": 69,
      "start": 20.3639,
      "duration": 0.0944,
      "velocity": 127,
      "chip": "ym2612"
    },
    {
      "channel": 0,
      "note": 41,
      "start": 20.4617,
      "duration": 0.1997,
      "velocity": 90,
      "chip": "ym2612"
    },
    {
      "channel": 1,
      "note": 84,
      "start": 20.4624,
      "duration": 0.1997,
      "velocity": 101,
      "chip": "ym2612"
    },
    {
      "channel": 5,
      "note": 69,
      "start": 20.4641,
      "duration": 0.1995,
      "velocity": 91,
      "chip": "ym2612"
    },
    {
      "channel": 2,
      "note": 78,
      "start": 20.4649,
      "duration": 0.1936,
      "velocity": 127,
      "chip": "ym2612"
    },
    {
      "channel": 3,
      "note": 84,
      "start": 20.5598,
      "duration": 0.2028,
      "velocity": 101,
      "chip": "ym2612"
    },
    {
      "channel": 0,
      "note": 53,
      "start": 20.6619,
      "duration": 0.0995,
      "velocity": 90,
      "chip": "ym2612"
    },
    {
      "channel": 1,
      "note": 91,
      "start": 20.6627,
      "duration": 0.6002,
      "velocity": 101,
      "chip": "ym2612"
    },
    {
      "channel": 5,
      "note": 76,
      "start": 20.6643,
      "duration": 0.1997,
      "velocity": 91,
      "chip": "ym2612"
    },
    {
      "channel": 2,
      "note": 69,
      "start": 20.6652,
      "duration": 0.0935,
      "velocity": 127,
      "chip": "ym2612"
    },
    {
      "channel": 0,
      "note": 53,
      "start": 20.762,
      "duration": 0.0998,
      "velocity": 90,
      "chip": "ym2612"
    },
    {
      "channel": 3,
      "note": 91,
      "start": 20.7632,
      "duration": 0.597,
      "velocity": 101,
      "chip": "ym2612"
    },
    {
      "channel": 2,
      "note": 69,
      "start": 20.7648,
      "duration": 0.094,
      "velocity": 127,
      "chip": "ym2612"
    },
    {
      "channel": 0,
      "note": 43,
      "start": 20.8624,
      "duration": 0.1994,
      "velocity": 90,
      "chip": "ym2612"
    },
    {
      "channel": 4,
      "note": 74,
      "start": 20.8639,
      "duration": 1.6019,
      "velocity": 116,
      "chip": "ym2612"
    },
    {
      "channel": 2,
      "note": 30,
      "start": 20.865,
      "duration": 0.1288,
      "velocity": 119,
      "chip": "ym2612"
    },
    {
      "channel": 0,
      "note": 55,
      "start": 21.0624,
      "duration": 0.0995,
      "velocity": 90,
      "chip": "ym2612"
    },
    {
      "channel": 5,
      "note": 71,
      "start": 21.0644,
      "duration": 0.1999,
      "velocity": 91,
      "chip": "ym2612"
    },
    {
      "channel": 2,
      "note": 69,
      "start": 21.0653,
      "duration": 0.0939,
      "velocity": 127,
      "chip": "ym2612"
    },
    {
      "channel": 0,
      "note": 55,
      "start": 21.1625,
      "duration": 0.0996,
      "velocity": 90,
      "chip": "ym2612"
    },
    {
      "channel": 2,
      "note": 69,
      "start": 21.1649,
      "duration": 0.0944,
      "velocity": 127,
      "chip": "ym2612"
    },
    {
      "channel": 0,
      "note": 43,
      "start": 21.2627,
      "duration": 0.1997,
      "velocity": 90,
      "chip": "ym2612"
    },
    {
      "channel": 1,
      "note": 91,
      "start": 21.2635,
      "duration": 0.1996,
      "velocity": 101,
      "chip": "ym2612"
    },
    {
      "channel": 2,
      "note": 78,
      "start": 21.2654,
      "duration": 0.1942,
      "velocity": 127,
      "chip": "ym2612"
    },
    {
      "channel": 3,
      "note": 91,
      "start": 21.3608,
      "duration": 0.2028,
      "velocity": 101,
      "chip": "ym2612"
    },
    {
      "channel": 0,
      "note": 55,
      "start": 21.463,
      "duration": 0.0995,
      "velocity": 90,
      "chip": "ym2612"
    },
    {
      "channel": 1,
      "note": 84,
      "start": 21.4637,
      "duration": 0.1997,
      "velocity": 101,
      "chip": "ym2612"
    },
    {
      "channel": 5,
      "note": 71,
      "start": 21.4653,
      "duration": 0.1996,
      "velocity": 91,
      "chip": "ym2612"
    },
    {
      "channel": 2,
      "note": 69,
      "start": 21.4662,
      "duration": 0.0935,
      "velocity": 127,
      "chip": "ym2612"
    },
    {
      "channel": 0,
      "note": 55,
      "start": 21.5631,
      "duration": 0.0996,
      "velocity": 90,
      "chip": "ym2612"
    },
    {
      "channel": 3,
      "note": 84,
      "start": 21.5642,
      "duration": 0.1965,
      "velocity": 101,
      "chip": "ym2612"
    },
    {
      "channel": 2,
      "note": 69,
      "start": 21.5659,
      "duration": 0.0941,
      "velocity": 127,
      "chip": "ym2612"
    },
    {
      "channel": 0,
      "note": 43,
      "start": 21.6633,
      "duration": 0.1996,
      "velocity": 90,
      "chip": "ym2612"
    },
    {
      "channel": 1,
      "note": 84,
      "start": 21.664,
      "duration": 0.3998,
      "velocity": 101,
      "chip": "ym2612"
    },
    {
      "channel": 2,
      "note": 30,
      "start": 21.6659,
      "duration": 0.129,
      "velocity": 119,
      "chip": "ym2612"
    },
    {
      "channel": 3,
      "note": 84,
      "start": 21.7613,
      "duration": 0.3999,
      "velocity": 101,
      "chip": "ym2612"
    },
    {
      "channel": 0,
      "note": 55,
      "start": 21.8635,
      "duration": 0.0995,
      "velocity": 90,
      "chip": "ym2612"
    },
    {
      "channel": 2,
      "note": 69,
      "start": 21.8657,
      "duration": 0.0945,
      "velocity": 127,
      "chip": "ym2612"
    },
    {
      "channel": 0,
      "note": 55,
      "start": 21.9636,
      "duration": 0.0996,
      "velocity": 90,
      "chip": "ym2612"
    },
    {
      "channel": 2,
      "note": 69,
      "start": 21.9656,
      "duration": 0.0948,
      "velocity": 127,
      "chip": "ym2612"
    },
    {
      "channel": 0,
      "note": 43,
      "start": 22.0637,
      "duration": 0.1997,
      "velocity": 90,
      "chip": "ym2612"
    },
    {
      "channel": 1,
      "note": 84,
      "start": 22.0645,
      "duration": 0.4002,
      "velocity": 101,
      "chip": "ym2612"
    },
    {
      "channel": 5,
      "note": 72,
      "start": 22.0661,
      "duration": 0.1991,
      "velocity": 91,
      "chip": "ym2612"
    },
    {
      "channel": 2,
      "note": 78,
      "start": 22.067,
      "duration": 0.1936,
      "velocity": 127,
      "chip": "ym2612"
    },
    {
      "channel": 3,
      "note": 84,
      "start": 22.1618,
      "duration": 0.3999,
      "velocity": 101,
      "chip": "ym2612"
    },
    {
      "channel": 0,
      "note": 55,
      "start": 22.264,
      "duration": 0.0995,
      "velocity": 90,
      "chip": "ym2612"
    },
    {
      "channel": 5,
      "note": 71,
      "start": 22.266,
      "duration": 0.2006,
      "velocity": 91,
      "chip": "ym2612"
    },
    {
      "channel": 2,
      "note": 69,
      "start": 22.2668,
      "duration": 0.0939,
      "velocity": 127,
      "chip": "ym2612"
    },
    {
      "channel": 0,
      "note": 55,
      "start": 22.3641,
      "duration": 0.0998,
      "velocity": 90,
      "chip": "ym2612"
    },
    {
      "channel": 2,
      "note": 69,
      "start": 22.3665,
      "duration": 0.0945,
      "velocity": 127,
      "chip": "ym2612"
    },
    {
      "channel": 0,
      "note": 45,
      "start": 22.4645,
      "duration": 0.1994,
      "velocity": 90,
      "chip": "ym2612"
    },
    {
      "channel": 1,
      "note": 88,
      "start": 22.4653,
      "duration": 0.1994,
      "velocity": 101,
      "chip": "ym2612"
    },
    {
      "channel": 4,
      "note": 76,
      "start": 22.4664,
      "duration": 1.601,
      "velocity": 116,
      "chip": "ym2612"
    },
    {
      "channel": 5,
      "note": 72,
      "start": 22.4673,
      "duration": 0.399,
      "velocity": 91,
      "chip": "ym2612"
    },
    {
      "channel": 2,
      "note": 30,
      "start": 22.4682,
      "duration": 0.1281,
      "velocity": 119,
      "chip": "ym2612"
    },
    {
      "channel": 3,
      "note": 88,
      "start": 22.5623,
      "duration": 0.2028,
      "velocity": 101,
      "chip": "ym2612"
    },
    {
      "channel": 0,
      "note": 57,
      "start": 22.6645,
      "duration": 0.0995,
      "velocity": 90,
      "chip": "ym2612"
    },
    {
      "channel": 1,
      "note": 89,
      "start": 22.6653,
      "duration": 0.1997,
      "velocity": 101,
      "chip": "ym2612"
    },
    {
      "channel": 2,
      "note": 69,
      "start": 22.6673,
      "duration": 0.0939,
      "velocity": 127,
      "chip": "ym2612"
    },
    {
      "channel": 0,
      "note": 57,
      "start": 22.7646,
      "duration": 0.0995,
      "velocity": 90,
      "chip": "ym2612"
    },
    {
      "channel": 3,
      "note": 89,
      "start": 22.7657,
      "duration": 0.1965,
      "velocity": 101,
      "chip": "ym2612"
    },
    {
      "channel": 2,
      "note": 69,
      "start": 22.7674,
      "duration": 0.094,
      "velocity": 127,
      "chip": "ym2612"
    },
    {
      "channel": 0,
      "note": 45,
      "start": 22.8648,
      "duration": 0.1997,
      "velocity": 90,
      "chip": "ym2612"
    },
    {
      "channel": 1,
      "note": 91,
      "start": 22.8655,
      "duration": 0.1997,
      "velocity": 101,
      "chip": "ym2612"
    },
    {
      "channel": 5,
      "note": 72,
      "start": 22.8671,
      "duration": 0.3998,
      "velocity": 91,
      "chip": "ym2612"
    },
    {
      "channel": 2,
      "note": 78,
      "start": 22.868,
      "duration": 0.1936,
      "velocity": 127,
      "chip": "ym2612"
    },
    {
      "channel": 3,
      "note": 91,
      "start": 22.9628,
      "duration": 0.2028,
      "velocity": 101,
      "chip": "ym2612"
    },
    {
      "channel": 0,
      "note": 57,
      "start": 23.065,
      "duration": 0.0995,
      "velocity": 90,
      "chip": "ym2612"
    },
    {
      "channel": 1,
      "note": 88,
      "start": 23.0658,
      "duration": 0.1997,
      "velocity": 101,
      "chip": "ym2612"
    },
    {
      "channel": 2,
      "note": 69,
      "start": 23.0678,
      "duration": 0.094,
      "velocity": 127,
      "chip": "ym2612"
    },
    {
      "channel": 0,
      "note": 57,
      "start": 23.1651,
      "duration": 0.0996,
      "velocity": 90,
      "chip": "ym2612"
    },
    {
      "channel": 3,
      "note": 88,
      "start": 23.1662,
      "duration": 0.1965,
      "velocity": 101,
      "chip": "ym2612"
    },
    {
      "channel": 2,
      "note": 69,
      "start": 23.1679,
      "duration": 0.0941,
      "velocity": 127,
      "chip": "ym2612"
    },
    {
      "channel": 0,
      "note": 45,
      "start": 23.2654,
      "duration": 0.1996,
      "velocity": 90,
      "chip": "ym2612"
    },
    {
      "channel": 1,
      "note": 89,
      "start": 23.2661,
      "duration": 0.1996,
      "velocity": 101,
      "chip": "ym2612"
    },
    {
      "channel": 5,
      "note": 72,
      "start": 23.2677,
      "duration": 0.3992,
      "velocity": 91,
      "chip": "ym2612"
    },
    {
      "channel": 2,
      "note": 30,
      "start": 23.2686,
      "duration": 0.1288,
      "velocity": 119,
      "chip": "ym2612"
    },
    {
      "channel": 3,
      "note": 89,
      "start": 23.3634,
      "duration": 0.2028,
      "velocity": 101,
      "chip": "ym2612"
    },
    {
      "channel": 0,
      "note": 57,
      "start": 23.4656,
      "duration": 0.0995,
      "velocity": 90,
      "chip": "ym2612"
    },
    {
      "channel": 1,
      "note": 91,
      "start": 23.4663,
      "duration": 0.1997,
      "velocity": 101,
      "chip": "ym2612"
    },
    {
      "channel": 2,
      "note": 69,
      "start": 23.4683,
      "duration": 0.094,
      "velocity": 127,
      "chip": "ym2612"
    },
    {
      "channel": 0,
      "note": 57,
      "start": 23.5656,
      "duration": 0.0996,
      "velocity": 90,
      "chip": "ym2612"
    },
    {
      "channel": 3,
      "note": 91,
      "start": 23.5668,
      "duration": 0.1963,
      "velocity": 101,
      "chip": "ym2612"
    },
    {
      "channel": 2,
      "note": 69,
      "start": 23.5684,
      "duration": 0.094,
      "velocity": 127,
      "chip": "ym2612"
    },
    {
      "channel": 0,
      "note": 45,
      "start": 23.6658,
      "duration": 0.1997,
      "velocity": 90,
      "chip": "ym2612"
    },
    {
      "channel": 5,
      "note": 72,
      "start": 23.6678,
      "duration": 0.1997,
      "velocity": 91,
      "chip": "ym2612"
    },
    {
      "channel": 2,
      "note": 78,
      "start": 23.6686,
      "duration": 0.194,
      "velocity": 127,
      "chip": "ym2612"
    },
    {
      "channel": 0,
      "note": 57,
      "start": 23.8661,
      "duration": 0.0995,
      "velocity": 90,
      "chip": "ym2612"
    },
    {
      "channel": 1,
      "note": 88,
      "start": 23.8668,
      "duration": 0.3999,
      "velocity": 101,
      "chip": "ym2612"
    },
    {
      "channel": 5,
      "note": 69,
      "start": 23.8682,
      "duration": 0.4,
      "velocity": 91,
      "chip": "ym2612"
    },
    {
      "channel": 2,
      "note": 69,
      "start": 23.8691,
      "duration": 0.0937,
      "velocity": 127,
      "chip": "ym2612"
    },
    {
      "channel": 0,
      "note": 57,
      "start": 23.9662,
      "duration": 0.0998,
      "velocity": 90,
      "chip": "ym2612"
    },
    {
      "channel": 3,
      "note": 88,
      "start": 23.9673,
      "duration": 0.3999,
      "velocity": 101,
      "chip": "ym2612"
    },
    {
      "channel": 2,
      "note": 69,
      "start": 23.969,
      "duration": 0.094,
      "velocity": 127,
      "chip": "ym2612"
    },
    {
      "channel": 0,
      "note": 47,
      "start": 24.0666,
      "duration": 0.1994,
      "velocity": 90,
      "chip": "ym2612"
    },
    {
      "channel": 4,
      "note": 74,
      "start": 24.068,
      "duration": 1.6023,
      "velocity": 116,
      "chip": "ym2612"
    },
    {
      "channel": 2,
      "note": 30,
      "start": 24.0693,
      "duration": 0.129,
      "velocity": 119,
      "chip": "ym2612"
    },
    {
      "channel": 0,
      "note": 59,
      "start": 24.2666,
      "duration": 0.0995,
      "velocity": 90,
      "chip": "ym2612"
    },
    {
      "channel": 1,
      "note": 89,
      "start": 24.2673,
      "duration": 0.1996,
      "velocity": 101,
      "chip": "ym2612"
    },
    {
      "channel": 5,
      "note": 71,
      "start": 24.269,
      "duration": 0.1995,
      "velocity": 91,
      "chip": "ym2612"
    },
    {
      "channel": 2,
      "note": 69,
      "start": 24.2698,
      "duration": 0.0935,
      "velocity": 127,
      "chip": "ym2612"
    },
    {
      "channel": 0,
      "note": 59,
      "start": 24.3667,
      "duration": 0.0996,
      "velocity": 90,
      "chip": "ym2612"
    },
    {
      "channel": 3,
      "note": 89,
      "start": 24.3678,
      "duration": 0.1965,
      "velocity": 101,
      "chip": "ym2612"
    },
    {
      "channel": 2,
      "note": 69,
      "start": 24.3695,
      "duration": 0.094,
      "velocity": 127,
      "chip": "ym2612"
    },
    {
      "channel": 0,
      "note": 47,
      "start": 24.4668,
      "duration": 0.1997,
      "velocity": 90,
      "chip": "ym2612"
    },
    {
      "channel": 1,
      "note": 91,
      "start": 24.4676,
      "duration": 0.4,
      "velocity": 101,
      "chip": "ym2612"
    },
    {
      "channel": 5,
      "note": 76,
      "start": 24.4692,
      "duration": 0.3998,
      "velocity": 91,
      "chip": "ym2612"
    },
    {
      "channel": 2,
      "note": 78,
      "start": 24.4701,
      "duration": 0.1936,
      "velocity": 127,
      "chip": "ym2612"
    },
    {
      "channel": 3,
      "note": 91,
      "start": 24.5649,
      "duration": 0.3999,
      "velocity": 101,
      "chip": "ym2612"
    },
    {
      "channel": 0,
      "note": 59,
      "start": 24.6671,
      "duration": 0.0995,
      "velocity": 90,
      "chip": "ym2612"
    },
    {
      "channel": 2,
      "note": 69,
      "start": 24.6695,
      "duration": 0.0944,
      "velocity": 127,
      "chip": "ym2612"
    },
    {
      "channel": 0,
      "note": 59,
      "start": 24.7672,
      "duration": 0.0996,
      "velocity": 90,
      "chip": "ym2612"
    },
    {
      "channel": 2,
      "note": 69,
      "start": 24.7696,
      "duration": 0.0945,
      "velocity": 127,
      "chip": "ym2612"
    },
    {
      "channel": 0,
      "note": 47,
      "start": 24.8674,
      "duration": 0.1996,
      "velocity": 90,
      "chip": "ym2612"
    },
    {
      "channel": 1,
      "note": 95,
      "start": 24.8682,
      "duration": 0.3998,
      "velocity": 101,
      "chip": "ym2612"
    },
    {
      "channel": 5,
      "note": 79,
      "start": 24.8698,
      "duration": 0.3997,
      "velocity": 91,
      "chip": "ym2612"
    },
    {
      "channel": 2,
      "note": 30,
      "start": 24.8706,
      "duration": 0.1288,
      "velocity": 119,
      "chip": "ym2612"
    },
    {
      "channel": 3,
      "note": 95,
      "start": 24.9654,
      "duration": 0.3999,
      "velocity": 101,
      "chip": "ym2612"
    },
    {
      "channel": 0,
      "note": 59,
      "start": 25.0676,
      "duration": 0.0995,
      "velocity": 90,
      "chip": "ym2612"
    },
    {
      "channel": 2,
      "note": 69,
      "start": 25.07,
      "duration": 0.0944,
      "velocity": 127,
      "chip": "ym2612"
    },
    {
      "channel": 0,
      "note": 59,
      "start": 25.1677,
      "duration": 0.0996,
      "velocity": 90,
      "chip": "ym2612"
    },
    {
      "channel": 2,
      "note": 69,
      "start": 25.1701,
      "duration": 0.0944,
      "velocity": 127,
      "chip": "ym2612"
    },
    {
      "channel": 0,
      "note": 47,
      "start": 25.2679,
      "duration": 0.1997,
      "velocity": 90,
      "chip": "ym2612"
    },
    {
      "channel": 1,
      "note": 96,
      "start": 25.2686,
      "duration": 0.4005,
      "velocity": 101,
      "chip": "ym2612"
    },
    {
      "channel": 5,
      "note": 81,
      "start": 25.2702,
      "duration": 0.4009,
      "velocity": 91,
      "chip": "ym2612"
    },
    {
      "channel": 2,
      "note": 78,
      "start": 25.2711,
      "duration": 0.1936,
      "velocity": 127,
      "chip": "ym2612"
    },
    {
      "channel": 3,
      "note": 96,
      "start": 25.3659,
      "duration": 0.3837,
      "velocity": 101,
      "chip": "ym2612"
    },
    {
      "channel": 0,
      "note": 59,
      "start": 25.4681,
      "duration": 0.0995,
      "velocity": 90,
      "chip": "ym2612"
    },
    {
      "channel": 2,
      "note": 69,
      "start": 25.4705,
      "duration": 0.0944,
      "velocity": 127,
      "chip": "ym2612"
    },
    {
      "channel": 0,
      "note": 59,
      "start": 25.5682,
      "duration": 0.0999,
      "velocity": 90,
      "chip": "ym2612"
    },
    {
      "channel": 2,
      "note": 69,
      "start": 25.5706,
      "duration": 0.0945,
      "velocity": 127,
      "chip": "ym2612"
    },
    {
      "channel": 0,
      "note": 50,
      "start": 25.6687,
      "duration": 0.0809,
      "velocity": 90,
      "chip": "ym2612"
    },
    {
      "channel": 1,
      "note": 88,
      "start": 25.6697,
      "duration": 0.0799,
      "velocity": 101,
      "chip": "ym2612"
    },
    {
      "channel": 4,
      "note": 72,
      "start": 25.6709,
      "duration": 0.0787,
      "velocity": 116,
      "chip": "ym2612"
    },
    {
      "channel": 5,
      "note": 69,
      "start": 25.6719,
      "duration": 0.0777,
      "velocity": 91,
      "chip": "ym2612"
    },
    {
      "channel": 2,
      "note": 30,
      "start": 25.6728,
      "duration": 0.0769,
      "velocity": 119,
      "chip": "ym2612"
    }
  ]
}