{
  "track_name": "08 - Track 19",
  "duration_sec": 48.001,
  "sample_rate": 44100,
  "note_count": 1448,
  "unique_pitches": 47,
  "pitch_range": 87,
  "avg_note_duration": 0.1488,
  "reconstruction_stats": {
    "notes_reconstructed": 1448,
    "keyon_events": 1448,
    "keyoff_events": 1423,
    "orphan_keyons": 0,
    "unique_pitches": 47,
    "pitch_range": 87,
    "avg_duration_sec": 0.1488
  },
  "metadata": {
    "source": "T\\Tecmo Super Bowl III\\08 - Track 19.vgz"
  },
  "notes": [
    {
      "channel": 3,
      "note": 57,
      "start": 0.0022,
      "duration": 0.0149,
      "velocity": 122,
      "chip": "ym2612"
    },
    {
      "channel": 4,
      "note": 54,
      "start": 0.0026,
      "duration": 0.3999,
      "velocity": 89,
      "chip": "ym2612"
    },
    {
      "channel": 3,
      "note": 57,
      "start": 0.0174,
      "duration": 0.0831,
      "velocity": 122,
      "chip": "ym2612"
    },
    {
      "channel": 3,
      "note": 57,
      "start": 0.1008,
      "duration": 0.0999,
      "velocity": 122,
      "chip": "ym2612"
    },
    {
      "channel": 1,
      "note": 54,
      "start": 0.2006,
      "duration": 0.0498,
      "velocity": 122,
      "chip": "ym2612"
    },
    {
      "channel": 3,
      "note": 45,
      "start": 0.2022,
      "duration": 0.1988,
      "velocity": 118,
      "chip": "ym2612"
    },
    {
      "channel": 1,
      "note": 54,
      "start": 0.3006,
      "duration": 0.0498,
      "velocity": 122,
      "chip": "ym2612"
    },
    {
      "channel": 1,
      "note": 54,
      "start": 0.4006,
      "duration": 1.6,
      "velocity": 122,
      "chip": "ym2612"
    },
    {
      "channel": 2,
      "note": 54,
      "start": 0.401,
      "duration": 0.1996,
      "velocity": 97,
      "chip": "ym2612"
    },
    {
      "channel": 3,
      "note": 69,
      "start": 0.4024,
      "duration": 0.1983,
      "velocity": 127,
      "chip": "ym2612"
    },
    {
      "channel": 4,
      "note": 54,
      "start": 0.4027,
      "duration": 0.3994,
      "velocity": 89,
      "chip": "ym2612"
    },
    {
      "channel": 3,
      "note": 69,
      "start": 0.6019,
      "duration": 0.1988,
      "velocity": 127,
      "chip": "ym2612"
    },
    {
      "channel": 2,
      "note": 54,
      "start": 0.8007,
      "duration": 0.1998,
      "velocity": 97,
      "chip": "ym2612"
    },
    {
      "channel": 3,
      "note": 69,
      "start": 0.802,
      "duration": 0.1987,
      "velocity": 127,
      "chip": "ym2612"
    },
    {
      "channel": 4,
      "note": 54,
      "start": 0.8023,
      "duration": 0.3998,
      "velocity": 89,
      "chip": "ym2612"
    },
    {
      "channel": 3,
      "note": 69,
      "start": 1.0019,
      "duration": 0.1988,
      "velocity": 127,
      "chip": "ym2612"
    },
    {
      "channel": 2,
      "note": 54,
      "start": 1.2007,
      "duration": 0.1998,
      "velocity": 97,
      "chip": "ym2612"
    },
    {
      "channel": 3,
      "note": 69,
      "start": 1.202,
      "duration": 0.1989,
      "velocity": 127,
      "chip": "ym2612"
    },
    {
      "channel": 4,
      "note": 54,
      "start": 1.2024,
      "duration": 0.2986,
      "velocity": 89,
      "chip": "ym2612"
    },
    {
      "channel": 2,
      "note": 54,
      "start": 1.4008,
      "duration": 0.0497,
      "velocity": 97,
      "chip": "ym2612"
    },
    {
      "channel": 3,
      "note": 69,
      "start": 1.4021,
      "duration": 0.1986,
      "velocity": 127,
      "chip": "ym2612"
    },
    {
      "channel": 2,
      "note": 54,
      "start": 1.5008,
      "duration": 0.0498,
      "velocity": 97,
      "chip": "ym2612"
    },
    {
      "channel": 4,
      "note": 54,
      "start": 1.5012,
      "duration": 0.1008,
      "velocity": 89,
      "chip": "ym2612"
    },
    {
      "channel": 3,
      "note": 69,
      "start": 1.602,
      "duration": 0.1988,
      "velocity": 127,
      "chip": "ym2612"
    },
    {
      "channel": 4,
      "note": 54,
      "start": 1.6023,
      "duration": 0.1998,
      "velocity": 89,
      "chip": "ym2612"
    },
    {
      "channel": 2,
      "note": 52,
      "start": 1.8007,
      "duration": 0.2002,
      "velocity": 97,
      "chip": "ym2612"
    },
    {
      "channel": 3,
      "note": 69,
      "start": 1.802,
      "duration": 0.1993,
      "velocity": 127,
      "chip": "ym2612"
    },
    {
      "channel": 4,
      "note": 54,
      "start": 1.8023,
      "duration": 0.2003,
      "velocity": 89,
      "chip": "ym2612"
    },
    {
      "channel": 1,
      "note": 56,
      "start": 2.0009,
      "duration": 0.9995,
      "velocity": 122,
      "chip": "ym2612"
    },
    {
      "channel": 2,
      "note": 54,
      "start": 2.0012,
      "duration": 0.1993,
      "velocity": 97,
      "chip": "ym2612"
    },
    {
      "channel": 3,
      "note": 69,
      "start": 2.0025,
      "duration": 0.1982,
      "velocity": 127,
      "chip": "ym2612"
    },
    {
      "channel": 4,
      "note": 54,
      "start": 2.0028,
      "duration": 0.3993,
      "velocity": 89,
      "chip": "ym2612"
    },
    {
      "channel": 3,
      "note": 69,
      "start": 2.2019,
      "duration": 0.1988,
      "velocity": 127,
      "chip": "ym2612"
    },
    {
      "channel": 2,
      "note": 54,
      "start": 2.4007,
      "duration": 0.1998,
      "velocity": 97,
      "chip": "ym2612"
    },
    {
      "channel": 3,
      "note": 69,
      "start": 2.402,
      "duration": 0.1987,
      "velocity": 127,
      "chip": "ym2612"
    },
    {
      "channel": 4,
      "note": 54,
      "start": 2.4023,
      "duration": 0.3998,
      "velocity": 89,
      "chip": "ym2612"
    },
    {
      "channel": 3,
      "note": 69,
      "start": 2.6019,
      "duration": 0.1988,
      "velocity": 127,
      "chip": "ym2612"
    },
    {
      "channel": 2,
      "note": 54,
      "start": 2.8007,
      "duration": 0.2,
      "velocity": 97,
      "chip": "ym2612"
    },
    {
      "channel": 3,
      "note": 69,
      "start": 2.802,
      "duration": 0.199,
      "velocity": 127,
      "chip": "ym2612"
    },
    {
      "channel": 4,
      "note": 54,
      "start": 2.8023,
      "duration": 0.4003,
      "velocity": 89,
      "chip": "ym2612"
    },
    {
      "channel": 1,
      "note": 54,
      "start": 3.0006,
      "duration": 0.4,
      "velocity": 122,
      "chip": "ym2612"
    },
    {
      "channel": 2,
      "note": 54,
      "start": 3.001,
      "duration": 0.0495,
      "velocity": 97,
      "chip": "ym2612"
    },
    {
      "channel": 3,
      "note": 57,
      "start": 3.0026,
      "duration": 0.0646,
      "velocity": 118,
      "chip": "ym2612"
    },
    {
      "channel": 3,
      "note": 52,
      "start": 3.0678,
      "duration": 0.0662,
      "velocity": 118,
      "chip": "ym2612"
    },
    {
      "channel": 2,
      "note": 54,
      "start": 3.1008,
      "duration": 0.0498,
      "velocity": 97,
      "chip": "ym2612"
    },
    {
      "channel": 3,
      "note": 45,
      "start": 3.1345,
      "duration": 0.0665,
      "velocity": 118,
      "chip": "ym2612"
    },
    {
      "channel": 0,
      "note": 59,
      "start": 3.2006,
      "duration": 0.0498,
      "velocity": 103,
      "chip": "ym2612"
    },
    {
      "channel": 3,
      "note": 52,
      "start": 3.2025,
      "duration": 0.3988,
      "velocity": 122,
      "chip": "ym2612"
    },
    {
      "channel": 4,
      "note": 54,
      "start": 3.2028,
      "duration": 0.1985,
      "velocity": 89,
      "chip": "ym2612"
    },
    {
      "channel": 0,
      "note": 61,
      "start": 3.2506,
      "duration": 0.0498,
      "velocity": 103,
      "chip": "ym2612"
    },
    {
      "channel": 0,
      "note": 62,
      "start": 3.3006,
      "duration": 0.0498,
      "velocity": 103,
      "chip": "ym2612"
    },
    {
      "channel": 0,
      "note": 64,
      "start": 3.3506,
      "duration": 0.0498,
      "velocity": 103,
      "chip": "ym2612"
    },
    {
      "channel": 5,
      "note": 59,
      "start": 3.3846,
      "duration": 0.0498,
      "velocity": 103,
      "chip": "ym2612"
    },
    {
      "channel": 0,
      "note": 66,
      "start": 3.4006,
      "duration": 0.0498,
      "velocity": 103,
      "chip": "ym2612"
    },
    {
      "channel": 1,
      "note": 56,
      "start": 3.4009,
      "duration": 0.1998,
      "velocity": 122,
      "chip": "ym2612"
    },
    {
      "channel": 2,
      "note": 52,
      "start": 3.4012,
      "duration": 0.1999,
      "velocity": 97,
      "chip": "ym2612"
    },
    {
      "channel": 4,
      "note": 54,
      "start": 3.4016,
      "duration": 0.2011,
      "velocity": 89,
      "chip": "ym2612"
    },
    {
      "channel": 5,
      "note": 61,
      "start": 3.4346,
      "duration": 0.0498,
      "velocity": 103,
      "chip": "ym2612"
    },
    {
      "channel": 0,
      "note": 68,
      "start": 3.4506,
      "duration": 0.0498,
      "velocity": 103,
      "chip": "ym2612"
    },
    {
      "channel": 5,
      "note": 62,
      "start": 3.4846,
      "duration": 0.0498,
      "velocity": 103,
      "chip": "ym2612"
    },
    {
      "channel": 0,
      "note": 69,
      "start": 3.5006,
      "duration": 0.0498,
      "velocity": 103,
      "chip": "ym2612"
    },
    {
      "channel": 5,
      "note": 64,
      "start": 3.5346,
      "duration": 0.0498,
      "velocity": 103,
      "chip": "ym2612"
    },
    {
      "channel": 0,
      "note": 71,
      "start": 3.5506,
      "duration": 0.0498,
      "velocity": 103,
      "chip": "ym2612"
    },
    {
      "channel": 5,
      "note": 66,
      "start": 3.5846,
      "duration": 0.0498,
      "velocity": 103,
      "chip": "ym2612"
    },
    {
      "channel": 0,
      "note": 73,
      "start": 3.6006,
      "duration": 1.1998,
      "velocity": 103,
      "chip": "ym2612"
    },
    {
      "channel": 1,
      "note": 56,
      "start": 3.6008,
      "duration": 0.05,
      "velocity": 122,
      "chip": "ym2612"
    },
    {
      "channel": 2,
      "note": 54,
      "start": 3.6013,
      "duration": 0.1994,
      "velocity": 97,
      "chip": "ym2612"
    },
    {
      "channel": 3,
      "note": 69,
      "start": 3.6027,
      "duration": 0.0981,
      "velocity": 127,
      "chip": "ym2612"
    },
    {
      "channel": 4,
      "note": 54,
      "start": 3.6042,
      "duration": 0.1979,
      "velocity": 89,
      "chip": "ym2612"
    },
    {
      "channel": 5,
      "note": 68,
      "start": 3.6346,
      "duration": 0.0498,
      "velocity": 103,
      "chip": "ym2612"
    },
    {
      "channel": 1,
      "note": 58,
      "start": 3.6508,
      "duration": 1.5499,
      "velocity": 122,
      "chip": "ym2612"
    },
    {
      "channel": 5,
      "note": 69,
      "start": 3.6846,
      "duration": 0.0498,
      "velocity": 103,
      "chip": "ym2612"
    },
    {
      "channel": 3,
      "note": 57,
      "start": 3.7022,
      "duration": 0.0985,
      "velocity": 122,
      "chip": "ym2612"
    },
    {
      "channel": 5,
      "note": 71,
      "start": 3.7346,
      "duration": 0.0498,
      "velocity": 103,
      "chip": "ym2612"
    },
    {
      "channel": 5,
      "note": 73,
      "start": 3.7846,
      "duration": 1.1996,
      "velocity": 103,
      "chip": "ym2612"
    },
    {
      "channel": 3,
      "note": 69,
      "start": 3.802,
      "duration": 0.1989,
      "velocity": 127,
      "chip": "ym2612"
    },
    {
      "channel": 4,
      "note": 57,
      "start": 3.8036,
      "duration": 0.1987,
      "velocity": 122,
      "chip": "ym2612"
    },
    {
      "channel": 2,
      "note": 54,
      "start": 4.0008,
      "duration": 0.1998,
      "velocity": 97,
      "chip": "ym2612"
    },
    {
      "channel": 3,
      "note": 57,
      "start": 4.0022,
      "duration": 0.1985,
      "velocity": 122,
      "chip": "ym2612"
    },
    {
      "channel": 4,
      "note": 54,
      "start": 4.0036,
      "duration": 0.2971,
      "velocity": 89,
      "chip": "ym2612"
    },
    {
      "channel": 3,
      "note": 69,
      "start": 4.202,
      "duration": 0.1989,
      "velocity": 127,
      "chip": "ym2612"
    },
    {
      "channel": 4,
      "note": 57,
      "start": 4.3023,
      "duration": 0.1,
      "velocity": 122,
      "chip": "ym2612"
    },
    {
      "channel": 2,
      "note": 54,
      "start": 4.4008,
      "duration": 0.1998,
      "velocity": 97,
      "chip": "ym2612"
    },
    {
      "channel": 3,
      "note": 69,
      "start": 4.4021,
      "duration": 0.0987,
      "velocity": 127,
      "chip": "ym2612"
    },
    {
      "channel": 4,
      "note": 54,
      "start": 4.4036,
      "duration": 0.2975,
      "velocity": 89,
      "chip": "ym2612"
    },
    {
      "channel": 3,
      "note": 57,
      "start": 4.5022,
      "duration": 0.0988,
      "velocity": 122,
      "chip": "ym2612"
    },
    {
      "channel": 2,
      "note": 54,
      "start": 4.601,
      "duration": 0.0497,
      "velocity": 97,
      "chip": "ym2612"
    },
    {
      "channel": 3,
      "note": 69,
      "start": 4.6022,
      "duration": 0.1987,
      "velocity": 127,
      "chip": "ym2612"
    },
    {
      "channel": 2,
      "note": 54,
      "start": 4.7009,
      "duration": 0.0497,
      "velocity": 97,
      "chip": "ym2612"
    },
    {
      "channel": 4,
      "note": 57,
      "start": 4.7026,
      "duration": 0.0483,
      "velocity": 122,
      "chip": "ym2612"
    },
    {
      "channel": 4,
      "note": 57,
      "start": 4.7513,
      "duration": 0.0511,
      "velocity": 122,
      "chip": "ym2612"
    },
    {
      "channel": 3,
      "note": 57,
      "start": 4.8023,
      "duration": 0.1988,
      "velocity": 122,
      "chip": "ym2612"
    },
    {
      "channel": 4,
      "note": 54,
      "start": 4.8038,
      "duration": 0.1986,
      "velocity": 89,
      "chip": "ym2612"
    },
    {
      "channel": 0,
      "note": 71,
      "start": 5.0006,
      "duration": 0.0998,
      "velocity": 103,
      "chip": "ym2612"
    },
    {
      "channel": 2,
      "note": 52,
      "start": 5.001,
      "duration": 0.2,
      "velocity": 97,
      "chip": "ym2612"
    },
    {
      "channel": 3,
      "note": 69,
      "start": 5.0023,
      "duration": 0.199,
      "velocity": 127,
      "chip": "ym2612"
    },
    {
      "channel": 4,
      "note": 54,
      "start": 5.0026,
      "duration": 0.0984,
      "velocity": 89,
      "chip": "ym2612"
    },
    {
      "channel": 0,
      "note": 73,
      "start": 5.1006,
      "duration": 0.0998,
      "velocity": 103,
      "chip": "ym2612"
    },
    {
      "channel": 4,
      "note": 57,
      "start": 5.1025,
      "duration": 0.1002,
      "velocity": 122,
      "chip": "ym2612"
    },
    {
      "channel": 5,
      "note": 71,
      "start": 5.1846,
      "duration": 0.0998,
      "velocity": 103,
      "chip": "ym2612"
    },
    {
      "channel": 0,
      "note": 76,
      "start": 5.2006,
      "duration": 0.2998,
      "velocity": 103,
      "chip": "ym2612"
    },
    {
      "channel": 1,
      "note": 59,
      "start": 5.201,
      "duration": 0.3998,
      "velocity": 122,
      "chip": "ym2612"
    },
    {
      "channel": 2,
      "note": 54,
      "start": 5.2013,
      "duration": 0.1994,
      "velocity": 97,
      "chip": "ym2612"
    },
    {
      "channel": 3,
      "note": 69,
      "start": 5.2026,
      "duration": 0.0982,
      "velocity": 127,
      "chip": "ym2612"
    },
    {
      "channel": 4,
      "note": 54,
      "start": 5.2041,
      "duration": 0.198,
      "velocity": 89,
      "chip": "ym2612"
    },
    {
      "channel": 5,
      "note": 73,
      "start": 5.2846,
      "duration": 0.0998,
      "velocity": 103,
      "chip": "ym2612"
    },
    {
      "channel": 3,
      "note": 57,
      "start": 5.3022,
      "duration": 0.0985,
      "velocity": 122,
      "chip": "ym2612"
    },
    {
      "channel": 5,
      "note": 76,
      "start": 5.3846,
      "duration": 0.2998,
      "velocity": 103,
      "chip": "ym2612"
    },
    {
      "channel": 3,
      "note": 69,
      "start": 5.402,
      "duration": 0.1992,
      "velocity": 127,
      "chip": "ym2612"
    },
    {
      "channel": 4,
      "note": 57,
      "start": 5.4036,
      "duration": 0.1991,
      "velocity": 122,
      "chip": "ym2612"
    },
    {
      "channel": 0,
      "note": 73,
      "start": 5.6006,
      "duration": 0.2998,
      "velocity": 103,
      "chip": "ym2612"
    },
    {
      "channel": 1,
      "note": 54,
      "start": 5.601,
      "duration": 0.1996,
      "velocity": 122,
      "chip": "ym2612"
    },
    {
      "channel": 2,
      "note": 54,
      "start": 5.6012,
      "duration": 0.1996,
      "velocity": 97,
      "chip": "ym2612"
    },
    {
      "channel": 3,
      "note": 57,
      "start": 5.6026,
      "duration": 0.1984,
      "velocity": 122,
      "chip": "ym2612"
    },
    {
      "channel": 4,
      "note": 54,
      "start": 5.604,
      "duration": 0.2969,
      "velocity": 89,
      "chip": "ym2612"
    },
    {
      "channel": 5,
      "note": 73,
      "start": 5.7846,
      "duration": 0.2998,
      "velocity": 103,
      "chip": "ym2612"
    },
    {
      "channel": 1,
      "note": 52,
      "start": 5.8008,
      "duration": 0.9999,
      "velocity": 122,
      "chip": "ym2612"
    },
    {
      "channel": 3,
      "note": 69,
      "start": 5.8022,
      "duration": 0.1988,
      "velocity": 127,
      "chip": "ym2612"
    },
    {
      "channel": 4,
      "note": 57,
      "start": 5.9024,
      "duration": 0.1,
      "velocity": 122,
      "chip": "ym2612"
    },
    {
      "channel": 0,
      "note": 71,
      "start": 6.0006,
      "duration": 0.2998,
      "velocity": 103,
      "chip": "ym2612"
    },
    {
      "channel": 2,
      "note": 54,
      "start": 6.001,
      "duration": 0.1996,
      "velocity": 97,
      "chip": "ym2612"
    },
    {
      "channel": 3,
      "note": 69,
      "start": 6.0023,
      "duration": 0.0985,
      "velocity": 127,
      "chip": "ym2612"
    },
    {
      "channel": 4,
      "note": 54,
      "start": 6.0038,
      "duration": 0.2975,
      "velocity": 89,
      "chip": "ym2612"
    },
    {
      "channel": 3,
      "note": 57,
      "start": 6.1022,
      "duration": 0.0988,
      "velocity": 122,
      "chip": "ym2612"
    },
    {
      "channel": 5,
      "note": 71,
      "start": 6.1846,
      "duration": 0.2997,
      "velocity": 103,
      "chip": "ym2612"
    },
    {
      "channel": 2,
      "note": 54,
      "start": 6.201,
      "duration": 0.0497,
      "velocity": 97,
      "chip": "ym2612"
    },
    {
      "channel": 3,
      "note": 69,
      "start": 6.2022,
      "duration": 0.1988,
      "velocity": 127,
      "chip": "ym2612"
    },
    {
      "channel": 2,
      "note": 54,
      "start": 6.301,
      "duration": 0.0496,
      "velocity": 97,
      "chip": "ym2612"
    },
    {
      "channel": 4,
      "note": 57,
      "start": 6.3027,
      "duration": 0.0482,
      "velocity": 122,
      "chip": "ym2612"
    },
    {
      "channel": 4,
      "note": 57,
      "start": 6.3512,
      "duration": 0.0513,
      "velocity": 122,
      "chip": "ym2612"
    },
    {
      "channel": 0,
      "note": 68,
      "start": 6.4006,
      "duration": 0.2998,
      "velocity": 103,
      "chip": "ym2612"
    },
    {
      "channel": 3,
      "note": 57,
      "start": 6.4024,
      "duration": 0.1985,
      "velocity": 122,
      "chip": "ym2612"
    },
    {
      "channel": 4,
      "note": 54,
      "start": 6.4038,
      "duration": 0.2972,
      "velocity": 89,
      "chip": "ym2612"
    },
    {
      "channel": 5,
      "note": 68,
      "start": 6.5846,
      "duration": 0.2998,
      "velocity": 103,
      "chip": "ym2612"
    },
    {
      "channel": 2,
      "note": 52,
      "start": 6.6008,
      "duration": 0.2002,
      "velocity": 97,
      "chip": "ym2612"
    },
    {
      "channel": 3,
      "note": 69,
      "start": 6.6021,
      "duration": 0.1992,
      "velocity": 127,
      "chip": "ym2612"
    },
    {
      "channel": 4,
      "note": 57,
      "start": 6.7025,
      "duration": 0.1002,
      "velocity": 122,
      "chip": "ym2612"
    },
    {
      "channel": 0,
      "note": 66,
      "start": 6.8006,
      "duration": 0.3998,
      "velocity": 103,
      "chip": "ym2612"
    },
    {
      "channel": 1,
      "note": 51,
      "start": 6.801,
      "duration": 1.1996,
      "velocity": 122,
      "chip": "ym2612"
    },
    {
      "channel": 2,
      "note": 54,
      "start": 6.8013,
      "duration": 0.1994,
      "velocity": 97,
      "chip": "ym2612"
    },
    {
      "channel": 3,
      "note": 69,
      "start": 6.8026,
      "duration": 0.0982,
      "velocity": 127,
      "chip": "ym2612"
    },
    {
      "channel": 4,
      "note": 54,
      "start": 6.8041,
      "duration": 0.198,
      "velocity": 89,
      "chip": "ym2612"
    },
    {
      "channel": 3,
      "note": 57,
      "start": 6.9022,
      "duration": 0.0985,
      "velocity": 122,
      "chip": "ym2612"
    },
    {
      "channel": 5,
      "note": 66,
      "start": 6.9846,
      "duration": 0.3997,
      "velocity": 103,
      "chip": "ym2612"
    },
    {
      "channel": 3,
      "note": 69,
      "start": 7.002,
      "duration": 0.1989,
      "velocity": 127,
      "chip": "ym2612"
    },
    {
      "channel": 4,
      "note": 57,
      "start": 7.0036,
      "duration": 0.1988,
      "velocity": 122,
      "chip": "ym2612"
    },
    {
      "channel": 2,
      "note": 54,
      "start": 7.2009,
      "duration": 0.1999,
      "velocity": 97,
      "chip": "ym2612"
    },
    {
      "channel": 3,
      "note": 57,
      "start": 7.2023,
      "duration": 0.1987,
      "velocity": 122,
      "chip": "ym2612"
    },
    {
      "channel": 4,
      "note": 54,
      "start": 7.2038,
      "duration": 0.297,
      "velocity": 89,
      "chip": "ym2612"
    },
    {
      "channel": 0,
      "note": 61,
      "start": 7.4006,
      "duration": 0.9998,
      "velocity": 103,
      "chip": "ym2612"
    },
    {
      "channel": 3,
      "note": 69,
      "start": 7.4022,
      "duration": 0.1987,
      "velocity": 127,
      "chip": "ym2612"
    },
    {
      "channel": 4,
      "note": 57,
      "start": 7.5023,
      "duration": 0.1,
      "velocity": 122,
      "chip": "ym2612"
    },
    {
      "channel": 5,
      "note": 61,
      "start": 7.5845,
      "duration": 0.9998,
      "velocity": 103,
      "chip": "ym2612"
    },
    {
      "channel": 2,
      "note": 54,
      "start": 7.6008,
      "duration": 0.1998,
      "velocity": 97,
      "chip": "ym2612"
    },
    {
      "channel": 3,
      "note": 69,
      "start": 7.6021,
      "duration": 0.0987,
      "velocity": 127,
      "chip": "ym2612"
    },
    {
      "channel": 4,
      "note": 54,
      "start": 7.6036,
      "duration": 0.2975,
      "velocity": 89,
      "chip": "ym2612"
    },
    {
      "channel": 3,
      "note": 57,
      "start": 7.7022,
      "duration": 0.0988,
      "velocity": 122,
      "chip": "ym2612"
    },
    {
      "channel": 2,
      "note": 54,
      "start": 7.801,
      "duration": 0.0497,
      "velocity": 97,
      "chip": "ym2612"
    },
    {
      "channel": 3,
      "note": 69,
      "start": 7.8022,
      "duration": 0.1987,
      "velocity": 127,
      "chip": "ym2612"
    },
    {
      "channel": 2,
      "note": 54,
      "start": 7.9009,
      "duration": 0.0497,
      "velocity": 97,
      "chip": "ym2612"
    },
    {
      "channel": 4,
      "note": 57,
      "start": 7.9026,
      "duration": 0.0483,
      "velocity": 122,
      "chip": "ym2612"
    },
    {
      "channel": 4,
      "note": 57,
      "start": 7.9513,
      "duration": 0.0511,
      "velocity": 122,
      "chip": "ym2612"
    },
    {
      "channel": 3,
      "note": 57,
      "start": 8.0022,
      "duration": 0.1988,
      "velocity": 122,
      "chip": "ym2612"
    },
    {
      "channel": 4,
      "note": 54,
      "start": 8.0038,
      "duration": 0.1986,
      "velocity": 89,
      "chip": "ym2612"
    },
    {
      "channel": 1,
      "note": 51,
      "start": 8.2008,
      "duration": 0.0498,
      "velocity": 122,
      "chip": "ym2612"
    },
    {
      "channel": 2,
      "note": 52,
      "start": 8.201,
      "duration": 0.1999,
      "velocity": 97,
      "chip": "ym2612"
    },
    {
      "channel": 3,
      "note": 69,
      "start": 8.2023,
      "duration": 0.1989,
      "velocity": 127,
      "chip": "ym2612"
    },
    {
      "channel": 4,
      "note": 54,
      "start": 8.2026,
      "duration": 0.0984,
      "velocity": 89,
      "chip": "ym2612"
    },
    {
      "channel": 1,
      "note": 51,
      "start": 8.3007,
      "duration": 0.0498,
      "velocity": 122,
      "chip": "ym2612"
    },
    {
      "channel": 4,
      "note": 57,
      "start": 8.3025,
      "duration": 0.1001,
      "velocity": 122,
      "chip": "ym2612"
    },
    {
      "channel": 1,
      "note": 52,
      "start": 8.4008,
      "duration": 1.5999,
      "velocity": 122,
      "chip": "ym2612"
    },
    {
      "channel": 2,
      "note": 54,
      "start": 8.4012,
      "duration": 0.1994,
      "velocity": 97,
      "chip": "ym2612"
    },
    {
      "channel": 3,
      "note": 69,
      "start": 8.4026,
      "duration": 0.0981,
      "velocity": 127,
      "chip": "ym2612"
    },
    {
      "channel": 4,
      "note": 54,
      "start": 8.4039,
      "duration": 0.3975,
      "velocity": 89,
      "chip": "ym2612"
    },
    {
      "channel": 3,
      "note": 57,
      "start": 8.5021,
      "duration": 0.0986,
      "velocity": 122,
      "chip": "ym2612"
    },
    {
      "channel": 3,
      "note": 57,
      "start": 8.601,
      "duration": 0.2001,
      "velocity": 122,
      "chip": "ym2612"
    },
    {
      "channel": 0,
      "note": 64,
      "start": 8.8006,
      "duration": 0.0998,
      "velocity": 103,
      "chip": "ym2612"
    },
    {
      "channel": 2,
      "note": 54,
      "start": 8.801,
      "duration": 0.1998,
      "velocity": 97,
      "chip": "ym2612"
    },
    {
      "channel": 3,
      "note": 57,
      "start": 8.8014,
      "duration": 0.1995,
      "velocity": 122,
      "chip": "ym2612"
    },
    {
      "channel": 4,
      "note": 54,
      "start": 8.8017,
      "duration": 0.3996,
      "velocity": 89,
      "chip": "ym2612"
    },
    {
      "channel": 0,
      "note": 63,
      "start": 8.9006,
      "duration": 0.0498,
      "velocity": 103,
      "chip": "ym2612"
    },
    {
      "channel": 5,
      "note": 64,
      "start": 8.9846,
      "duration": 0.0996,
      "velocity": 103,
      "chip": "ym2612"
    },
    {
      "channel": 0,
      "note": 64,
      "start": 9.0006,
      "duration": 0.0498,
      "velocity": 103,
      "chip": "ym2612"
    },
    {
      "channel": 3,
      "note": 57,
      "start": 9.0013,
      "duration": 0.0659,
      "velocity": 122,
      "chip": "ym2612"
    },
    {
      "channel": 3,
      "note": 57,
      "start": 9.0675,
      "duration": 0.0665,
      "velocity": 122,
      "chip": "ym2612"
    },
    {
      "channel": 5,
      "note": 63,
      "start": 9.0844,
      "duration": 0.0501,
      "velocity": 103,
      "chip": "ym2612"
    },
    {
      "channel": 0,
      "note": 66,
      "start": 9.1006,
      "duration": 0.1998,
      "velocity": 103,
      "chip": "ym2612"
    },
    {
      "channel": 3,
      "note": 57,
      "start": 9.1343,
      "duration": 0.0666,
      "velocity": 122,
      "chip": "ym2612"
    },
    {
      "channel": 5,
      "note": 64,
      "start": 9.1845,
      "duration": 0.0499,
      "velocity": 103,
      "chip": "ym2612"
    },
    {
      "channel": 2,
      "note": 54,
      "start": 9.2008,
      "duration": 0.2,
      "velocity": 97,
      "chip": "ym2612"
    },
    {
      "channel": 3,
      "note": 57,
      "start": 9.2012,
      "duration": 0.0997,
      "velocity": 122,
      "chip": "ym2612"
    },
    {
      "channel": 4,
      "note": 54,
      "start": 9.2015,
      "duration": 0.3997,
      "velocity": 89,
      "chip": "ym2612"
    },
    {
      "channel": 5,
      "note": 66,
      "start": 9.2846,
      "duration": 0.1996,
      "velocity": 103,
      "chip": "ym2612"
    },
    {
      "channel": 0,
      "note": 64,
      "start": 9.3006,
      "duration": 0.0998,
      "velocity": 103,
      "chip": "ym2612"
    },
    {
      "channel": 3,
      "note": 57,
      "start": 9.3018,
      "duration": 0.0994,
      "velocity": 122,
      "chip": "ym2612"
    },
    {
      "channel": 0,
      "note": 66,
      "start": 9.4006,
      "duration": 0.0498,
      "velocity": 103,
      "chip": "ym2612"
    },
    {
      "channel": 2,
      "note": 54,
      "start": 9.4011,
      "duration": 0.0496,
      "velocity": 97,
      "chip": "ym2612"
    },
    {
      "channel": 3,
      "note": 57,
      "start": 9.4015,
      "duration": 0.0996,
      "velocity": 122,
      "chip": "ym2612"
    },
    {
      "channel": 5,
      "note": 64,
      "start": 9.4844,
      "duration": 0.0999,
      "velocity": 103,
      "chip": "ym2612"
    },
    {
      "channel": 0,
      "note": 68,
      "start": 9.5006,
      "duration": 0.1998,
      "velocity": 103,
      "chip": "ym2612"
    },
    {
      "channel": 2,
      "note": 54,
      "start": 9.5011,
      "duration": 0.0495,
      "velocity": 97,
      "chip": "ym2612"
    },
    {
      "channel": 3,
      "note": 57,
      "start": 9.5015,
      "duration": 0.0994,
      "velocity": 122,
      "chip": "ym2612"
    },
    {
      "channel": 5,
      "note": 66,
      "start": 9.5846,
      "duration": 0.0497,
      "velocity": 103,
      "chip": "ym2612"
    },
    {
      "channel": 3,
      "note": 57,
      "start": 9.6012,
      "duration": 0.0997,
      "velocity": 122,
      "chip": "ym2612"
    },
    {
      "channel": 4,
      "note": 54,
      "start": 9.6015,
      "duration": 0.2,
      "velocity": 89,
      "chip": "ym2612"
    },
    {
      "channel": 5,
      "note": 68,
      "start": 9.6846,
      "duration": 0.1997,
      "velocity": 103,
      "chip": "ym2612"
    },
    {
      "channel": 0,
      "note": 66,
      "start": 9.7006,
      "duration": 0.0998,
      "velocity": 103,
      "chip": "ym2612"
    },
    {
      "channel": 3,
      "note": 57,
      "start": 9.7012,
      "duration": 0.0999,
      "velocity": 122,
      "chip": "ym2612"
    },
    {
      "channel": 0,
      "note": 68,
      "start": 9.8006,
      "duration": 0.0498,
      "velocity": 103,
      "chip": "ym2612"
    },
    {
      "channel": 2,
      "note": 52,
      "start": 9.801,
      "duration": 0.2,
      "velocity": 97,
      "chip": "ym2612"
    },
    {
      "channel": 3,
      "note": 57,
      "start": 9.8014,
      "duration": 0.0995,
      "velocity": 122,
      "chip": "ym2612"
    },
    {
      "channel": 4,
      "note": 54,
      "start": 9.8017,
      "duration": 0.201,
      "velocity": 89,
      "chip": "ym2612"
    },
    {
      "channel": 5,
      "note": 66,
      "start": 9.8846,
      "duration": 0.0998,
      "velocity": 103,
      "chip": "ym2612"
    },
    {
      "channel": 0,
      "note": 71,
      "start": 9.9006,
      "duration": 0.0998,
      "velocity": 103,
      "chip": "ym2612"
    },
    {
      "channel": 3,
      "note": 57,
      "start": 9.9012,
      "duration": 0.1002,
      "velocity": 122,
      "chip": "ym2612"
    },
    {
      "channel": 5,
      "note": 68,
      "start": 9.9846,
      "duration": 0.0498,
      "velocity": 103,
      "chip": "ym2612"
    },
    {
      "channel": 0,
      "note": 70,
      "start": 10.0006,
      "duration": 0.3998,
      "velocity": 103,
      "chip": "ym2612"
    },
    {
      "channel": 1,
      "note": 54,
      "start": 10.001,
      "duration": 0.3996,
      "velocity": 122,
      "chip": "ym2612"
    },
    {
      "channel": 2,
      "note": 54,
      "start": 10.0013,
      "duration": 0.1993,
      "velocity": 97,
      "chip": "ym2612"
    },
    {
      "channel": 3,
      "note": 69,
      "start": 10.0027,
      "duration": 0.0981,
      "velocity": 127,
      "chip": "ym2612"
    },
    {
      "channel": 4,
      "note": 54,
      "start": 10.0041,
      "duration": 0.3983,
      "velocity": 89,
      "chip": "ym2612"
    },
    {
      "channel": 5,
      "note": 71,
      "start": 10.0846,
      "duration": 0.0998,
      "velocity": 103,
      "chip": "ym2612"
    },
    {
      "channel": 3,
      "note": 57,
      "start": 10.1022,
      "duration": 0.0985,
      "velocity": 122,
      "chip": "ym2612"
    },
    {
      "channel": 5,
      "note": 70,
      "start": 10.1846,
      "duration": 0.3996,
      "velocity": 103,
      "chip": "ym2612"
    },
    {
      "channel": 3,
      "note": 69,
      "start": 10.202,
      "duration": 0.199,
      "velocity": 127,
      "chip": "ym2612"
    },
    {
      "channel": 2,
      "note": 54,
      "start": 10.401,
      "duration": 0.2001,
      "velocity": 97,
      "chip": "ym2612"
    },
    {
      "channel": 3,
      "note": 57,
      "start": 10.4024,
      "duration": 0.1988,
      "velocity": 122,
      "chip": "ym2612"
    },
    {
      "channel": 4,
      "note": 54,
      "start": 10.4027,
      "duration": 0.298,
      "velocity": 89,
      "chip": "ym2612"
    },
    {
      "channel": 0,
      "note": 70,
      "start": 10.6005,
      "duration": 0.0501,
      "velocity": 103,
      "chip": "ym2612"
    },
    {
      "channel": 1,
      "note": 54,
      "start": 10.6008,
      "duration": 0.0501,
      "velocity": 122,
      "chip": "ym2612"
    },
    {
      "channel": 3,
      "note": 69,
      "start": 10.6025,
      "duration": 0.1984,
      "velocity": 127,
      "chip": "ym2612"
    },
    {
      "channel": 0,
      "note": 78,
      "start": 10.6506,
      "duration": 0.9498,
      "velocity": 103,
      "chip": "ym2612"
    },
    {
      "channel": 1,
      "note": 58,
      "start": 10.651,
      "duration": 0.9498,
      "velocity": 122,
      "chip": "ym2612"
    },
    {
      "channel": 4,
      "note": 57,
      "start": 10.7023,
      "duration": 0.1,
      "velocity": 122,
      "chip": "ym2612"
    },
    {
      "channel": 5,
      "note": 70,
      "start": 10.7844,
      "duration": 0.0502,
      "velocity": 103,
      "chip": "ym2612"
    },
    {
      "channel": 2,
      "note": 54,
      "start": 10.8008,
      "duration": 0.1998,
      "velocity": 97,
      "chip": "ym2612"
    },
    {
      "channel": 3,
      "note": 69,
      "start": 10.8021,
      "duration": 0.0987,
      "velocity": 127,
      "chip": "ym2612"
    },
    {
      "channel": 4,
      "note": 54,
      "start": 10.8036,
      "duration": 0.1989,
      "velocity": 89,
      "chip": "ym2612"
    },
    {
      "channel": 5,
      "note": 78,
      "start": 10.8346,
      "duration": 0.9498,
      "velocity": 103,
      "chip": "ym2612"
    },
    {
      "channel": 3,
      "note": 57,
      "start": 10.9022,
      "duration": 0.0988,
      "velocity": 122,
      "chip": "ym2612"
    },
    {
      "channel": 2,
      "note": 49,
      "start": 11.001,
      "duration": 0.0996,
      "velocity": 97,
      "chip": "ym2612"
    },
    {
      "channel": 3,
      "note": 69,
      "start": 11.0024,
      "duration": 0.1986,
      "velocity": 127,
      "chip": "ym2612"
    },
    {
      "channel": 4,
      "note": 57,
      "start": 11.0039,
      "duration": 0.1985,
      "velocity": 122,
      "chip": "ym2612"
    },
    {
      "channel": 2,
      "note": 52,
      "start": 11.1009,
      "duration": 0.0997,
      "velocity": 97,
      "chip": "ym2612"
    },
    {
      "channel": 2,
      "note": 54,
      "start": 11.2009,
      "duration": 0.0997,
      "velocity": 97,
      "chip": "ym2612"
    },
    {
      "channel": 3,
      "note": 57,
      "start": 11.2023,
      "duration": 0.1987,
      "velocity": 122,
      "chip": "ym2612"
    },
    {
      "channel": 4,
      "note": 54,
      "start": 11.2038,
      "duration": 0.2971,
      "velocity": 89,
      "chip": "ym2612"
    },
    {
      "channel": 2,
      "note": 52,
      "start": 11.4009,
      "duration": 0.2001,
      "velocity": 97,
      "chip": "ym2612"
    },
    {
      "channel": 3,
      "note": 69,
      "start": 11.4022,
      "duration": 0.1992,
      "velocity": 127,
      "chip": "ym2612"
    },
    {
      "channel": 4,
      "note": 57,
      "start": 11.5024,
      "duration": 0.1003,
      "velocity": 122,
      "chip": "ym2612"
    },
    {
      "channel": 0,
      "note": 76,
      "start": 11.6006,
      "duration": 0.2998,
      "velocity": 103,
      "chip": "ym2612"
    },
    {
      "channel": 1,
      "note": 56,
      "start": 11.601,
      "duration": 0.3998,
      "velocity": 122,
      "chip": "ym2612"
    },
    {
      "channel": 2,
      "note": 54,
      "start": 11.6013,
      "duration": 0.1993,
      "velocity": 97,
      "chip": "ym2612"
    },
    {
      "channel": 3,
      "note": 69,
      "start": 11.6027,
      "duration": 0.0981,
      "velocity": 127,
      "chip": "ym2612"
    },
    {
      "channel": 4,
      "note": 54,
      "start": 11.6041,
      "duration": 0.3985,
      "velocity": 89,
      "chip": "ym2612"
    },
    {
      "channel": 3,
      "note": 57,
      "start": 11.7022,
      "duration": 0.0985,
      "velocity": 122,
      "chip": "ym2612"
    },
    {
      "channel": 5,
      "note": 76,
      "start": 11.7846,
      "duration": 0.2998,
      "velocity": 103,
      "chip": "ym2612"
    },
    {
      "channel": 3,
      "note": 69,
      "start": 11.802,
      "duration": 0.1992,
      "velocity": 127,
      "chip": "ym2612"
    },
    {
      "channel": 0,
      "note": 78,
      "start": 12.0006,
      "duration": 0.2998,
      "velocity": 103,
      "chip": "ym2612"
    },
    {
      "channel": 1,
      "note": 59,
      "start": 12.0009,
      "duration": 0.3998,
      "velocity": 122,
      "chip": "ym2612"
    },
    {
      "channel": 2,
      "note": 54,
      "start": 12.0012,
      "duration": 0.1995,
      "velocity": 97,
      "chip": "ym2612"
    },
    {
      "channel": 3,
      "note": 57,
      "start": 12.0026,
      "duration": 0.1982,
      "velocity": 122,
      "chip": "ym2612"
    },
    {
      "channel": 4,
      "note": 54,
      "start": 12.0029,
      "duration": 0.298,
      "velocity": 89,
      "chip": "ym2612"
    },
    {
      "channel": 5,
      "note": 78,
      "start": 12.1846,
      "duration": 0.2998,
      "velocity": 103,
      "chip": "ym2612"
    },
    {
      "channel": 3,
      "note": 69,
      "start": 12.202,
      "duration": 0.1993,
      "velocity": 127,
      "chip": "ym2612"
    },
    {
      "channel": 4,
      "note": 57,
      "start": 12.3024,
      "duration": 0.1002,
      "velocity": 122,
      "chip": "ym2612"
    },
    {
      "channel": 0,
      "note": 80,
      "start": 12.4006,
      "duration": 0.2998,
      "velocity": 103,
      "chip": "ym2612"
    },
    {
      "channel": 1,
      "note": 64,
      "start": 12.4009,
      "duration": 0.3998,
      "velocity": 122,
      "chip": "ym2612"
    },
    {
      "channel": 2,
      "note": 54,
      "start": 12.4012,
      "duration": 0.1995,
      "velocity": 97,
      "chip": "ym2612"
    },
    {
      "channel": 3,
      "note": 69,
      "start": 12.4025,
      "duration": 0.0983,
      "velocity": 127,
      "chip": "ym2612"
    },
    {
      "channel": 4,
      "note": 54,
      "start": 12.4039,
      "duration": 0.1985,
      "velocity": 89,
      "chip": "ym2612"
    },
    {
      "channel": 3,
      "note": 57,
      "start": 12.5022,
      "duration": 0.0988,
      "velocity": 122,
      "chip": "ym2612"
    },
    {
      "channel": 5,
      "note": 80,
      "start": 12.5846,
      "duration": 0.2998,
      "velocity": 103,
      "chip": "ym2612"
    },
    {
      "channel": 2,
      "note": 49,
      "start": 12.601,
      "duration": 0.0997,
      "velocity": 97,
      "chip": "ym2612"
    },
    {
      "channel": 3,
      "note": 69,
      "start": 12.6024,
      "duration": 0.199,
      "velocity": 127,
      "chip": "ym2612"
    },
    {
      "channel": 4,
      "note": 57,
      "start": 12.6039,
      "duration": 0.1989,
      "velocity": 122,
      "chip": "ym2612"
    },
    {
      "channel": 2,
      "note": 52,
      "start": 12.701,
      "duration": 0.1001,
      "velocity": 97,
      "chip": "ym2612"
    },
    {
      "channel": 0,
      "note": 80,
      "start": 12.8005,
      "duration": 0.0501,
      "velocity": 103,
      "chip": "ym2612"
    },
    {
      "channel": 1,
      "note": 64,
      "start": 12.8008,
      "duration": 0.0501,
      "velocity": 122,
      "chip": "ym2612"
    },
    {
      "channel": 2,
      "note": 54,
      "start": 12.8013,
      "duration": 0.0993,
      "velocity": 97,
      "chip": "ym2612"
    },
    {
      "channel": 3,
      "note": 57,
      "start": 12.8027,
      "duration": 0.1982,
      "velocity": 122,
      "chip": "ym2612"
    },
    {
      "channel": 4,
      "note": 54,
      "start": 12.8041,
      "duration": 0.1981,
      "velocity": 89,
      "chip": "ym2612"
    },
    {
      "channel": 0,
      "note": 83,
      "start": 12.8506,
      "duration": 0.2498,
      "velocity": 103,
      "chip": "ym2612"
    },
    {
      "channel": 1,
      "note": 68,
      "start": 12.8509,
      "duration": 0.3498,
      "velocity": 122,
      "chip": "ym2612"
    },
    {
      "channel": 5,
      "note": 80,
      "start": 12.9844,
      "duration": 0.0502,
      "velocity": 103,
      "chip": "ym2612"
    },
    {
      "channel": 2,
      "note": 52,
      "start": 13.0008,
      "duration": 0.2002,
      "velocity": 97,
      "chip": "ym2612"
    },
    {
      "channel": 3,
      "note": 69,
      "start": 13.0021,
      "duration": 0.1993,
      "velocity": 127,
      "chip": "ym2612"
    },
    {
      "channel": 4,
      "note": 54,
      "start": 13.0024,
      "duration": 0.0985,
      "velocity": 89,
      "chip": "ym2612"
    },
    {
      "channel": 5,
      "note": 83,
      "start": 13.0346,
      "duration": 0.2498,
      "velocity": 103,
      "chip": "ym2612"
    },
    {
      "channel": 4,
      "note": 57,
      "start": 13.1024,
      "duration": 0.1003,
      "velocity": 122,
      "chip": "ym2612"
    },
    {
      "channel": 0,
      "note": 82,
      "start": 13.2006,
      "duration": 0.2998,
      "velocity": 103,
      "chip": "ym2612"
    },
    {
      "channel": 1,
      "note": 66,
      "start": 13.201,
      "duration": 0.3997,
      "velocity": 122,
      "chip": "ym2612"
    },
    {
      "channel": 2,
      "note": 54,
      "start": 13.2013,
      "duration": 0.1993,
      "velocity": 97,
      "chip": "ym2612"
    },
    {
      "channel": 3,
      "note": 69,
      "start": 13.2027,
      "duration": 0.0981,
      "velocity": 127,
      "chip": "ym2612"
    },
    {
      "channel": 4,
      "note": 54,
      "start": 13.2041,
      "duration": 0.3984,
      "velocity": 89,
      "chip": "ym2612"
    },
    {
      "channel": 3,
      "note": 57,
      "start": 13.3022,
      "duration": 0.0985,
      "velocity": 122,
      "chip": "ym2612"
    },
    {
      "channel": 5,
      "note": 82,
      "start": 13.3846,
      "duration": 0.2997,
      "velocity": 103,
      "chip": "ym2612"
    },
    {
      "channel": 3,
      "note": 69,
      "start": 13.402,
      "duration": 0.199,
      "velocity": 127,
      "chip": "ym2612"
    },
    {
      "channel": 0,
      "note": 78,
      "start": 13.6006,
      "duration": 0.0998,
      "velocity": 103,
      "chip": "ym2612"
    },
    {
      "channel": 2,
      "note": 54,
      "start": 13.601,
      "duration": 0.2,
      "velocity": 97,
      "chip": "ym2612"
    },
    {
      "channel": 3,
      "note": 57,
      "start": 13.6024,
      "duration": 0.1988,
      "velocity": 122,
      "chip": "ym2612"
    },
    {
      "channel": 4,
      "note": 54,
      "start": 13.6027,
      "duration": 0.298,
      "velocity": 89,
      "chip": "ym2612"
    },
    {
      "channel": 5,
      "note": 78,
      "start": 13.7844,
      "duration": 0.0999,
      "velocity": 103,
      "chip": "ym2612"
    },
    {
      "channel": 0,
      "note": 78,
      "start": 13.8005,
      "duration": 0.0501,
      "velocity": 103,
      "chip": "ym2612"
    },
    {
      "channel": 1,
      "note": 54,
      "start": 13.801,
      "duration": 1.0008,
      "velocity": 122,
      "chip": "ym2612"
    },
    {
      "channel": 3,
      "note": 69,
      "start": 13.8024,
      "duration": 0.1985,
      "velocity": 127,
      "chip": "ym2612"
    },
    {
      "channel": 0,
      "note": 90,
      "start": 13.8506,
      "duration": 0.9498,
      "velocity": 103,
      "chip": "ym2612"
    },
    {
      "channel": 4,
      "note": 57,
      "start": 13.9023,
      "duration": 0.1,
      "velocity": 122,
      "chip": "ym2612"
    },
    {
      "channel": 5,
      "note": 78,
      "start": 13.9844,
      "duration": 0.0502,
      "velocity": 103,
      "chip": "ym2612"
    },
    {
      "channel": 2,
      "note": 54,
      "start": 14.0008,
      "duration": 0.1998,
      "velocity": 97,
      "chip": "ym2612"
    },
    {
      "channel": 3,
      "note": 69,
      "start": 14.0021,
      "duration": 0.0987,
      "velocity": 127,
      "chip": "ym2612"
    },
    {
      "channel": 4,
      "note": 54,
      "start": 14.0036,
      "duration": 0.1989,
      "velocity": 89,
      "chip": "ym2612"
    },
    {
      "channel": 5,
      "note": 90,
      "start": 14.0346,
      "duration": 0.9495,
      "velocity": 103,
      "chip": "ym2612"
    },
    {
      "channel": 3,
      "note": 57,
      "start": 14.1022,
      "duration": 0.0988,
      "velocity": 122,
      "chip": "ym2612"
    },
    {
      "channel": 2,
      "note": 49,
      "start": 14.201,
      "duration": 0.0996,
      "velocity": 97,
      "chip": "ym2612"
    },
    {
      "channel": 3,
      "note": 69,
      "start": 14.2024,
      "duration": 0.1986,
      "velocity": 127,
      "chip": "ym2612"
    },
    {
      "channel": 4,
      "note": 57,
      "start": 14.2039,
      "duration": 0.1985,
      "velocity": 122,
      "chip": "ym2612"
    },
    {
      "channel": 2,
      "note": 52,
      "start": 14.3009,
      "duration": 0.0997,
      "velocity": 97,
      "chip": "ym2612"
    },
    {
      "channel": 2,
      "note": 54,
      "start": 14.4009,
      "duration": 0.0997,
      "velocity": 97,
      "chip": "ym2612"
    },
    {
      "channel": 3,
      "note": 57,
      "start": 14.4023,
      "duration": 0.1987,
      "velocity": 122,
      "chip": "ym2612"
    },
    {
      "channel": 4,
      "note": 54,
      "start": 14.4038,
      "duration": 0.2971,
      "velocity": 89,
      "chip": "ym2612"
    },
    {
      "channel": 2,
      "note": 52,
      "start": 14.6009,
      "duration": 0.2014,
      "velocity": 97,
      "chip": "ym2612"
    },
    {
      "channel": 3,
      "note": 69,
      "start": 14.6022,
      "duration": 0.2005,
      "velocity": 127,
      "chip": "ym2612"
    },
    {
      "channel": 4,
      "note": 57,
      "start": 14.7024,
      "duration": 0.1019,
      "velocity": 122,
      "chip": "ym2612"
    },
    {
      "channel": 0,
      "note": 64,
      "start": 14.8017,
      "duration": 0.0487,
      "velocity": 122,
      "chip": "ym2612"
    },
    {
      "channel": 1,
      "note": 59,
      "start": 14.8022,
      "duration": 0.0483,
      "velocity": 122,
      "chip": "ym2612"
    },
    {
      "channel": 2,
      "note": 54,
      "start": 14.8026,
      "duration": 0.0481,
      "velocity": 97,
      "chip": "ym2612"
    },
    {
      "channel": 3,
      "note": 57,
      "start": 14.8043,
      "duration": 0.0969,
      "velocity": 122,
      "chip": "ym2612"
    },
    {
      "channel": 4,
      "note": 54,
      "start": 14.8057,
      "duration": 0.3962,
      "velocity": 89,
      "chip": "ym2612"
    },
    {
      "channel": 0,
      "note": 64,
      "start": 14.9006,
      "duration": 0.0498,
      "velocity": 122,
      "chip": "ym2612"
    },
    {
      "channel": 1,
      "note": 59,
      "start": 14.9008,
      "duration": 0.0497,
      "velocity": 122,
      "chip": "ym2612"
    },
    {
      "channel": 2,
      "note": 54,
      "start": 14.9011,
      "duration": 0.0496,
      "velocity": 97,
      "chip": "ym2612"
    },
    {
      "channel": 3,
      "note": 57,
      "start": 14.9015,
      "duration": 0.0995,
      "velocity": 122,
      "chip": "ym2612"
    },
    {
      "channel": 5,
      "note": 64,
      "start": 14.9855,
      "duration": 0.0485,
      "velocity": 122,
      "chip": "ym2612"
    },
    {
      "channel": 5,
      "note": 64,
      "start": 15.0842,
      "duration": 0.0498,
      "velocity": 122,
      "chip": "ym2612"
    },
    {
      "channel": 0,
      "note": 64,
      "start": 15.2006,
      "duration": 0.0498,
      "velocity": 122,
      "chip": "ym2612"
    },
    {
      "channel": 1,
      "note": 59,
      "start": 15.201,
      "duration": 0.0496,
      "velocity": 122,
      "chip": "ym2612"
    },
    {
      "channel": 2,
      "note": 54,
      "start": 15.2013,
      "duration": 0.0494,
      "velocity": 97,
      "chip": "ym2612"
    },
    {
      "channel": 3,
      "note": 57,
      "start": 15.2018,
      "duration": 0.0994,
      "velocity": 122,
      "chip": "ym2612"
    },
    {
      "channel": 4,
      "note": 54,
      "start": 15.202,
      "duration": 0.3998,
      "velocity": 89,
      "chip": "ym2612"
    },
    {
      "channel": 0,
      "note": 64,
      "start": 15.3006,
      "duration": 0.0498,
      "velocity": 122,
      "chip": "ym2612"
    },
    {
      "channel": 1,
      "note": 59,
      "start": 15.3008,
      "duration": 0.0497,
      "velocity": 122,
      "chip": "ym2612"
    },
    {
      "channel": 2,
      "note": 54,
      "start": 15.3011,
      "duration": 0.0496,
      "velocity": 97,
      "chip": "ym2612"
    },
    {
      "channel": 3,
      "note": 57,
      "start": 15.3015,
      "duration": 0.0995,
      "velocity": 122,
      "chip": "ym2612"
    },
    {
      "channel": 5,
      "note": 64,
      "start": 15.3844,
      "duration": 0.0496,
      "velocity": 122,
      "chip": "ym2612"
    },
    {
      "channel": 5,
      "note": 64,
      "start": 15.4842,
      "duration": 0.0498,
      "velocity": 122,
      "chip": "ym2612"
    },
    {
      "channel": 0,
      "note": 64,
      "start": 15.6006,
      "duration": 0.0498,
      "velocity": 122,
      "chip": "ym2612"
    },
    {
      "channel": 1,
      "note": 59,
      "start": 15.601,
      "duration": 0.0496,
      "velocity": 122,
      "chip": "ym2612"
    },
    {
      "channel": 2,
      "note": 49,
      "start": 15.6013,
      "duration": 0.0494,
      "velocity": 97,
      "chip": "ym2612"
    },
    {
      "channel": 3,
      "note": 57,
      "start": 15.6018,
      "duration": 0.0994,
      "velocity": 122,
      "chip": "ym2612"
    },
    {
      "channel": 4,
      "note": 54,
      "start": 15.602,
      "duration": 0.3994,
      "velocity": 89,
      "chip": "ym2612"
    },
    {
      "channel": 0,
      "note": 64,
      "start": 15.7006,
      "duration": 0.0498,
      "velocity": 122,
      "chip": "ym2612"
    },
    {
      "channel": 1,
      "note": 59,
      "start": 15.7008,
      "duration": 0.0498,
      "velocity": 122,
      "chip": "ym2612"
    },
    {
      "channel": 2,
      "note": 49,
      "start": 15.7011,
      "duration": 0.0497,
      "velocity": 97,
      "chip": "ym2612"
    },
    {
      "channel": 3,
      "note": 57,
      "start": 15.7015,
      "duration": 0.1997,
      "velocity": 122,
      "chip": "ym2612"
    },
    {
      "channel": 5,
      "note": 64,
      "start": 15.7844,
      "duration": 0.0498,
      "velocity": 122,
      "chip": "ym2612"
    },
    {
      "channel": 5,
      "note": 64,
      "start": 15.8843,
      "duration": 0.0501,
      "velocity": 122,
      "chip": "ym2612"
    },
    {
      "channel": 0,
      "note": 64,
      "start": 15.9006,
      "duration": 0.0498,
      "velocity": 122,
      "chip": "ym2612"
    },
    {
      "channel": 1,
      "note": 59,
      "start": 15.9009,
      "duration": 0.0496,
      "velocity": 122,
      "chip": "ym2612"
    },
    {
      "channel": 2,
      "note": 49,
      "start": 15.9012,
      "duration": 0.0995,
      "velocity": 97,
      "chip": "ym2612"
    },
    {
      "channel": 3,
      "note": 57,
      "start": 15.9015,
      "duration": 0.0995,
      "velocity": 122,
      "chip": "ym2612"
    },
    {
      "channel": 3,
      "note": 57,
      "start": 16.0013,
      "duration": 0.1999,
      "velocity": 122,
      "chip": "ym2612"
    },
    {
      "channel": 4,
      "note": 54,
      "start": 16.0017,
      "duration": 0.2001,
      "velocity": 89,
      "chip": "ym2612"
    },
    {
      "channel": 5,
      "note": 64,
      "start": 16.0843,
      "duration": 0.0498,
      "velocity": 122,
      "chip": "ym2612"
    },
    {
      "channel": 0,
      "note": 64,
      "start": 16.2006,
      "duration": 0.0998,
      "velocity": 122,
      "chip": "ym2612"
    },
    {
      "channel": 1,
      "note": 59,
      "start": 16.2009,
      "duration": 0.0996,
      "velocity": 122,
      "chip": "ym2612"
    },
    {
      "channel": 2,
      "note": 52,
      "start": 16.2012,
      "duration": 0.2011,
      "velocity": 97,
      "chip": "ym2612"
    },
    {
      "channel": 3,
      "note": 57,
      "start": 16.2017,
      "duration": 0.0991,
      "velocity": 122,
      "chip": "ym2612"
    },
    {
      "channel": 4,
      "note": 54,
      "start": 16.202,
      "duration": 0.201,
      "velocity": 89,
      "chip": "ym2612"
    },
    {
      "channel": 3,
      "note": 57,
      "start": 16.3012,
      "duration": 0.1015,
      "velocity": 122,
      "chip": "ym2612"
    },
    {
      "channel": 5,
      "note": 64,
      "start": 16.3844,
      "duration": 0.0998,
      "velocity": 122,
      "chip": "ym2612"
    },
    {
      "channel": 1,
      "note": 66,
      "start": 16.4023,
      "duration": 0.0981,
      "velocity": 122,
      "chip": "ym2612"
    },
    {
      "channel": 3,
      "note": 57,
      "start": 16.4029,
      "duration": 0.098,
      "velocity": 122,
      "chip": "ym2612"
    },
    {
      "channel": 4,
      "note": 54,
      "start": 16.4032,
      "duration": 0.4,
      "velocity": 89,
      "chip": "ym2612"
    },
    {
      "channel": 1,
      "note": 78,
      "start": 16.5009,
      "duration": 0.0495,
      "velocity": 122,
      "chip": "ym2612"
    },
    {
      "channel": 3,
      "note": 57,
      "start": 16.5013,
      "duration": 0.0995,
      "velocity": 122,
      "chip": "ym2612"
    },
    {
      "channel": 1,
      "note": 78,
      "start": 16.6007,
      "duration": 0.0497,
      "velocity": 122,
      "chip": "ym2612"
    },
    {
      "channel": 3,
      "note": 52,
      "start": 16.6024,
      "duration": 0.0986,
      "velocity": 118,
      "chip": "ym2612"
    },
    {
      "channel": 1,
      "note": 66,
      "start": 16.7009,
      "duration": 0.0998,
      "velocity": 122,
      "chip": "ym2612"
    },
    {
      "channel": 3,
      "note": 45,
      "start": 16.7015,
      "duration": 0.1,
      "velocity": 118,
      "chip": "ym2612"
    },
    {
      "channel": 0,
      "note": 85,
      "start": 16.8006,
      "duration": 0.0998,
      "velocity": 113,
      "chip": "ym2612"
    },
    {
      "channel": 1,
      "note": 78,
      "start": 16.8012,
      "duration": 0.0494,
      "velocity": 122,
      "chip": "ym2612"
    },
    {
      "channel": 2,
      "note": 54,
      "start": 16.8015,
      "duration": 0.1998,
      "velocity": 97,
      "chip": "ym2612"
    },
    {
      "channel": 3,
      "note": 81,
      "start": 16.8031,
      "duration": 0.7985,
      "velocity": 127,
      "chip": "ym2612"
    },
    {
      "channel": 4,
      "note": 54,
      "start": 16.8034,
      "duration": 0.1981,
      "velocity": 89,
      "chip": "ym2612"
    },
    {
      "channel": 0,
      "note": 90,
      "start": 16.9006,
      "duration": 0.0998,
      "velocity": 113,
      "chip": "ym2612"
    },
    {
      "channel": 1,
      "note": 78,
      "start": 16.9009,
      "duration": 0.0496,
      "velocity": 122,
      "chip": "ym2612"
    },
    {
      "channel": 5,
      "note": 85,
      "start": 16.9846,
      "duration": 0.0997,
      "velocity": 113,
      "chip": "ym2612"
    },
    {
      "channel": 0,
      "note": 92,
      "start": 17.0006,
      "duration": 0.0998,
      "velocity": 113,
      "chip": "ym2612"
    },
    {
      "channel": 1,
      "note": 66,
      "start": 17.0012,
      "duration": 0.0995,
      "velocity": 122,
      "chip": "ym2612"
    },
    {
      "channel": 4,
      "note": 69,
      "start": 17.0027,
      "duration": 0.0986,
      "velocity": 127,
      "chip": "ym2612"
    },
    {
      "channel": 5,
      "note": 90,
      "start": 17.0844,
      "duration": 0.0998,
      "velocity": 113,
      "chip": "ym2612"
    },
    {
      "channel": 0,
      "note": 95,
      "start": 17.1006,
      "duration": 0.0998,
      "velocity": 113,
      "chip": "ym2612"
    },
    {
      "channel": 1,
      "note": 78,
      "start": 17.1012,
      "duration": 0.0494,
      "velocity": 122,
      "chip": "ym2612"
    },
    {
      "channel": 4,
      "note": 57,
      "start": 17.1028,
      "duration": 0.0985,
      "velocity": 122,
      "chip": "ym2612"
    },
    {
      "channel": 5,
      "note": 92,
      "start": 17.1844,
      "duration": 0.0998,
      "velocity": 113,
      "chip": "ym2612"
    },
    {
      "channel": 1,
      "note": 78,
      "start": 17.2008,
      "duration": 0.0495,
      "velocity": 122,
      "chip": "ym2612"
    },
    {
      "channel": 2,
      "note": 54,
      "start": 17.2011,
      "duration": 0.2002,
      "velocity": 97,
      "chip": "ym2612"
    },
    {
      "channel": 4,
      "note": 54,
      "start": 17.2026,
      "duration": 0.0987,
      "velocity": 89,
      "chip": "ym2612"
    },
    {
      "channel": 5,
      "note": 95,
      "start": 17.2844,
      "duration": 0.0999,
      "velocity": 113,
      "chip": "ym2612"
    },
    {
      "channel": 0,
      "note": 95,
      "start": 17.3006,
      "duration": 0.0998,
      "velocity": 113,
      "chip": "ym2612"
    },
    {
      "channel": 1,
      "note": 66,
      "start": 17.301,
      "duration": 0.0495,
      "velocity": 122,
      "chip": "ym2612"
    },
    {
      "channel": 4,
      "note": 57,
      "start": 17.3028,
      "duration": 0.099,
      "velocity": 122,
      "chip": "ym2612"
    },
    {
      "channel": 0,
      "note": 94,
      "start": 17.4006,
      "duration": 0.1998,
      "velocity": 113,
      "chip": "ym2612"
    },
    {
      "channel": 1,
      "note": 73,
      "start": 17.4012,
      "duration": 0.0994,
      "velocity": 122,
      "chip": "ym2612"
    },
    {
      "channel": 2,
      "note": 49,
      "start": 17.4017,
      "duration": 0.0994,
      "velocity": 97,
      "chip": "ym2612"
    },
    {
      "channel": 4,
      "note": 69,
      "start": 17.4031,
      "duration": 0.1999,
      "velocity": 127,
      "chip": "ym2612"
    },
    {
      "channel": 5,
      "note": 95,
      "start": 17.4846,
      "duration": 0.0997,
      "velocity": 113,
      "chip": "ym2612"
    },
    {
      "channel": 1,
      "note": 78,
      "start": 17.501,
      "duration": 0.0496,
      "velocity": 122,
      "chip": "ym2612"
    },
    {
      "channel": 2,
      "note": 52,
      "start": 17.5013,
      "duration": 0.0999,
      "velocity": 97,
      "chip": "ym2612"
    },
    {
      "channel": 5,
      "note": 94,
      "start": 17.5845,
      "duration": 0.1997,
      "velocity": 113,
      "chip": "ym2612"
    },
    {
      "channel": 0,
      "note": 92,
      "start": 17.6006,
      "duration": 0.0664,
      "velocity": 113,
      "chip": "ym2612"
    },
    {
      "channel": 1,
      "note": 73,
      "start": 17.6012,
      "duration": 0.0994,
      "velocity": 122,
      "chip": "ym2612"
    },
    {
      "channel": 2,
      "note": 54,
      "start": 17.6015,
      "duration": 0.0995,
      "velocity": 97,
      "chip": "ym2612"
    },
    {
      "channel": 3,
      "note": 57,
      "start": 17.6029,
      "duration": 0.1986,
      "velocity": 122,
      "chip": "ym2612"
    },
    {
      "channel": 4,
      "note": 54,
      "start": 17.6043,
      "duration": 0.1985,
      "velocity": 89,
      "chip": "ym2612"
    },
    {
      "channel": 0,
      "note": 94,
      "start": 17.6673,
      "duration": 0.0665,
      "velocity": 113,
      "chip": "ym2612"
    },
    {
      "channel": 1,
      "note": 78,
      "start": 17.701,
      "duration": 0.0496,
      "velocity": 122,
      "chip": "ym2612"
    },
    {
      "channel": 0,
      "note": 92,
      "start": 17.7339,
      "duration": 0.0665,
      "velocity": 113,
      "chip": "ym2612"
    },
    {
      "channel": 5,
      "note": 92,
      "start": 17.7844,
      "duration": 0.0666,
      "velocity": 113,
      "chip": "ym2612"
    },
    {
      "channel": 0,
      "note": 90,
      "start": 17.8006,
      "duration": 0.1998,
      "velocity": 113,
      "chip": "ym2612"
    },
    {
      "channel": 1,
      "note": 64,
      "start": 17.8012,
      "duration": 0.0994,
      "velocity": 122,
      "chip": "ym2612"
    },
    {
      "channel": 2,
      "note": 52,
      "start": 17.8015,
      "duration": 0.1999,
      "velocity": 97,
      "chip": "ym2612"
    },
    {
      "channel": 3,
      "note": 69,
      "start": 17.8027,
      "duration": 0.1989,
      "velocity": 127,
      "chip": "ym2612"
    },
    {
      "channel": 4,
      "note": 54,
      "start": 17.8031,
      "duration": 0.0982,
      "velocity": 89,
      "chip": "ym2612"
    },
    {
      "channel": 5,
      "note": 94,
      "start": 17.8513,
      "duration": 0.0664,
      "velocity": 113,
      "chip": "ym2612"
    },
    {
      "channel": 1,
      "note": 78,
      "start": 17.901,
      "duration": 0.0496,
      "velocity": 122,
      "chip": "ym2612"
    },
    {
      "channel": 4,
      "note": 57,
      "start": 17.9028,
      "duration": 0.1002,
      "velocity": 122,
      "chip": "ym2612"
    },
    {
      "channel": 5,
      "note": 92,
      "start": 17.9179,
      "duration": 0.0663,
      "velocity": 113,
      "chip": "ym2612"
    },
    {
      "channel": 5,
      "note": 90,
      "start": 17.9845,
      "duration": 0.1998,
      "velocity": 113,
      "chip": "ym2612"
    },
    {
      "channel": 0,
      "note": 88,
      "start": 18.0006,
      "duration": 0.7998,
      "velocity": 113,
      "chip": "ym2612"
    },
    {
      "channel": 1,
      "note": 66,
      "start": 18.0013,
      "duration": 0.0993,
      "velocity": 122,
      "chip": "ym2612"
    },
    {
      "channel": 2,
      "note": 54,
      "start": 18.0016,
      "duration": 0.1992,
      "velocity": 97,
      "chip": "ym2612"
    },
    {
      "channel": 3,
      "note": 69,
      "start": 18.0029,
      "duration": 0.0982,
      "velocity": 127,
      "chip": "ym2612"
    },
    {
      "channel": 4,
      "note": 54,
      "start": 18.0044,
      "duration": 0.3983,
      "velocity": 89,
      "chip": "ym2612"
    },
    {
      "channel": 1,
      "note": 78,
      "start": 18.101,
      "duration": 0.0496,
      "velocity": 122,
      "chip": "ym2612"
    },
    {
      "channel": 3,
      "note": 57,
      "start": 18.1026,
      "duration": 0.0984,
      "velocity": 122,
      "chip": "ym2612"
    },
    {
      "channel": 5,
      "note": 88,
      "start": 18.1846,
      "duration": 0.7996,
      "velocity": 113,
      "chip": "ym2612"
    },
    {
      "channel": 1,
      "note": 78,
      "start": 18.2008,
      "duration": 0.0498,
      "velocity": 122,
      "chip": "ym2612"
    },
    {
      "channel": 3,
      "note": 69,
      "start": 18.2023,
      "duration": 0.199,
      "velocity": 127,
      "chip": "ym2612"
    },
    {
      "channel": 1,
      "note": 66,
      "start": 18.301,
      "duration": 0.0996,
      "velocity": 122,
      "chip": "ym2612"
    },
    {
      "channel": 1,
      "note": 78,
      "start": 18.401,
      "duration": 0.0496,
      "velocity": 122,
      "chip": "ym2612"
    },
    {
      "channel": 2,
      "note": 54,
      "start": 18.4012,
      "duration": 0.1999,
      "velocity": 97,
      "chip": "ym2612"
    },
    {
      "channel": 3,
      "note": 57,
      "start": 18.4027,
      "duration": 0.1986,
      "velocity": 122,
      "chip": "ym2612"
    },
    {
      "channel": 4,
      "note": 54,
      "start": 18.403,
      "duration": 0.2982,
      "velocity": 89,
      "chip": "ym2612"
    },
    {
      "channel": 1,
      "note": 78,
      "start": 18.5008,
      "duration": 0.0497,
      "velocity": 122,
      "chip": "ym2612"
    },
    {
      "channel": 1,
      "note": 66,
      "start": 18.601,
      "duration": 0.0995,
      "velocity": 122,
      "chip": "ym2612"
    },
    {
      "channel": 3,
      "note": 69,
      "start": 18.6025,
      "duration": 0.1987,
      "velocity": 127,
      "chip": "ym2612"
    },
    {
      "channel": 1,
      "note": 78,
      "start": 18.701,
      "duration": 0.0496,
      "velocity": 122,
      "chip": "ym2612"
    },
    {
      "channel": 4,
      "note": 57,
      "start": 18.7027,
      "duration": 0.0998,
      "velocity": 122,
      "chip": "ym2612"
    },
    {
      "channel": 1,
      "note": 78,
      "start": 18.8009,
      "duration": 0.0495,
      "velocity": 122,
      "chip": "ym2612"
    },
    {
      "channel": 2,
      "note": 54,
      "start": 18.8012,
      "duration": 0.2001,
      "velocity": 97,
      "chip": "ym2612"
    },
    {
      "channel": 3,
      "note": 69,
      "start": 18.8025,
      "duration": 0.0985,
      "velocity": 127,
      "chip": "ym2612"
    },
    {
      "channel": 4,
      "note": 54,
      "start": 18.8039,
      "duration": 0.1992,
      "velocity": 89,
      "chip": "ym2612"
    },
    {
      "channel": 1,
      "note": 66,
      "start": 18.9008,
      "duration": 0.0496,
      "velocity": 122,
      "chip": "ym2612"
    },
    {
      "channel": 3,
      "note": 57,
      "start": 18.9024,
      "duration": 0.0993,
      "velocity": 122,
      "chip": "ym2612"
    },
    {
      "channel": 0,
      "note": 88,
      "start": 19.0006,
      "duration": 0.0998,
      "velocity": 113,
      "chip": "ym2612"
    },
    {
      "channel": 1,
      "note": 73,
      "start": 19.0012,
      "duration": 0.0994,
      "velocity": 122,
      "chip": "ym2612"
    },
    {
      "channel": 2,
      "note": 49,
      "start": 19.0017,
      "duration": 0.0994,
      "velocity": 97,
      "chip": "ym2612"
    },
    {
      "channel": 3,
      "note": 69,
      "start": 19.003,
      "duration": 0.1985,
      "velocity": 127,
      "chip": "ym2612"
    },
    {
      "channel": 4,
      "note": 57,
      "start": 19.0045,
      "duration": 0.1984,
      "velocity": 122,
      "chip": "ym2612"
    },
    {
      "channel": 1,
      "note": 78,
      "start": 19.101,
      "duration": 0.0494,
      "velocity": 122,
      "chip": "ym2612"
    },
    {
      "channel": 2,
      "note": 52,
      "start": 19.1014,
      "duration": 0.0998,
      "velocity": 97,
      "chip": "ym2612"
    },
    {
      "channel": 5,
      "note": 88,
      "start": 19.1844,
      "duration": 0.1,
      "velocity": 113,
      "chip": "ym2612"
    },
    {
      "channel": 0,
      "note": 95,
      "start": 19.2006,
      "duration": 0.0998,
      "velocity": 113,
      "chip": "ym2612"
    },
    {
      "channel": 1,
      "note": 73,
      "start": 19.2012,
      "duration": 0.0995,
      "velocity": 122,
      "chip": "ym2612"
    },
    {
      "channel": 2,
      "note": 54,
      "start": 19.2015,
      "duration": 0.0998,
      "velocity": 97,
      "chip": "ym2612"
    },
    {
      "channel": 3,
      "note": 57,
      "start": 19.2029,
      "duration": 0.1986,
      "velocity": 122,
      "chip": "ym2612"
    },
    {
      "channel": 4,
      "note": 54,
      "start": 19.2043,
      "duration": 0.1985,
      "velocity": 89,
      "chip": "ym2612"
    },
    {
      "channel": 0,
      "note": 88,
      "start": 19.3006,
      "duration": 0.0998,
      "velocity": 113,
      "chip": "ym2612"
    },
    {
      "channel": 1,
      "note": 78,
      "start": 19.3012,
      "duration": 0.0494,
      "velocity": 122,
      "chip": "ym2612"
    },
    {
      "channel": 5,
      "note": 95,
      "start": 19.3844,
      "duration": 0.0999,
      "velocity": 113,
      "chip": "ym2612"
    },
    {
      "channel": 1,
      "note": 64,
      "start": 19.4011,
      "duration": 0.0993,
      "velocity": 122,
      "chip": "ym2612"
    },
    {
      "channel": 2,
      "note": 52,
      "start": 19.4014,
      "duration": 0.2,
      "velocity": 97,
      "chip": "ym2612"
    },
    {
      "channel": 3,
      "note": 69,
      "start": 19.4027,
      "duration": 0.1991,
      "velocity": 127,
      "chip": "ym2612"
    },
    {
      "channel": 4,
      "note": 54,
      "start": 19.403,
      "duration": 0.0982,
      "velocity": 89,
      "chip": "ym2612"
    },
    {
      "channel": 5,
      "note": 88,
      "start": 19.4845,
      "duration": 0.0996,
      "velocity": 113,
      "chip": "ym2612"
    },
    {
      "channel": 1,
      "note": 78,
      "start": 19.5009,
      "duration": 0.0495,
      "velocity": 122,
      "chip": "ym2612"
    },
    {
      "channel": 4,
      "note": 57,
      "start": 19.5027,
      "duration": 0.1005,
      "velocity": 122,
      "chip": "ym2612"
    },
    {
      "channel": 0,
      "note": 88,
      "start": 19.6006,
      "duration": 0.2,
      "velocity": 113,
      "chip": "ym2612"
    },
    {
      "channel": 1,
      "note": 66,
      "start": 19.6013,
      "duration": 0.0992,
      "velocity": 122,
      "chip": "ym2612"
    },
    {
      "channel": 2,
      "note": 54,
      "start": 19.6017,
      "duration": 0.1993,
      "velocity": 97,
      "chip": "ym2612"
    },
    {
      "channel": 3,
      "note": 69,
      "start": 19.6031,
      "duration": 0.098,
      "velocity": 127,
      "chip": "ym2612"
    },
    {
      "channel": 4,
      "note": 54,
      "start": 19.6046,
      "duration": 0.3982,
      "velocity": 89,
      "chip": "ym2612"
    },
    {
      "channel": 1,
      "note": 78,
      "start": 19.701,
      "duration": 0.0496,
      "velocity": 122,
      "chip": "ym2612"
    },
    {
      "channel": 3,
      "note": 57,
      "start": 19.7026,
      "duration": 0.0986,
      "velocity": 122,
      "chip": "ym2612"
    },
    {
      "channel": 5,
      "note": 88,
      "start": 19.7844,
      "duration": 0.2001,
      "velocity": 113,
      "chip": "ym2612"
    },
    {
      "channel": 0,
      "note": 88,
      "start": 19.8006,
      "duration": 0.0498,
      "velocity": 113,
      "chip": "ym2612"
    },
    {
      "channel": 1,
      "note": 78,
      "start": 19.801,
      "duration": 0.0496,
      "velocity": 122,
      "chip": "ym2612"
    },
    {
      "channel": 3,
      "note": 69,
      "start": 19.8024,
      "duration": 0.199,
      "velocity": 127,
      "chip": "ym2612"
    },
    {
      "channel": 0,
      "note": 90,
      "start": 19.9006,
      "duration": 0.0998,
      "velocity": 113,
      "chip": "ym2612"
    },
    {
      "channel": 1,
      "note": 66,
      "start": 19.9012,
      "duration": 0.0994,
      "velocity": 122,
      "chip": "ym2612"
    },
    {
      "channel": 5,
      "note": 88,
      "start": 19.9845,
      "duration": 0.0498,
      "velocity": 113,
      "chip": "ym2612"
    },
    {
      "channel": 1,
      "note": 78,
      "start": 20.0011,
      "duration": 0.0493,
      "velocity": 122,
      "chip": "ym2612"
    },
    {
      "channel": 2,
      "note": 54,
      "start": 20.0013,
      "duration": 0.1999,
      "velocity": 97,
      "chip": "ym2612"
    },
    {
      "channel": 3,
      "note": 57,
      "start": 20.0027,
      "duration": 0.1987,
      "velocity": 122,
      "chip": "ym2612"
    },
    {
      "channel": 4,
      "note": 54,
      "start": 20.0031,
      "duration": 0.2982,
      "velocity": 89,
      "chip": "ym2612"
    },
    {
      "channel": 5,
      "note": 90,
      "start": 20.0844,
      "duration": 0.0998,
      "velocity": 113,
      "chip": "ym2612"
    },
    {
      "channel": 1,
      "note": 78,
      "start": 20.1007,
      "duration": 0.0497,
      "velocity": 122,
      "chip": "ym2612"
    },
    {
      "channel": 0,
      "note": 90,
      "start": 20.2005,
      "duration": 0.0501,
      "velocity": 113,
      "chip": "ym2612"
    },
    {
      "channel": 1,
      "note": 66,
      "start": 20.2012,
      "duration": 0.0993,
      "velocity": 122,
      "chip": "ym2612"
    },
    {
      "channel": 3,
      "note": 69,
      "start": 20.2027,
      "duration": 0.1984,
      "velocity": 127,
      "chip": "ym2612"
    },
    {
      "channel": 0,
      "note": 94,
      "start": 20.2506,
      "duration": 0.5498,
      "velocity": 113,
      "chip": "ym2612"
    },
    {
      "channel": 1,
      "note": 78,
      "start": 20.301,
      "duration": 0.0496,
      "velocity": 122,
      "chip": "ym2612"
    },
    {
      "channel": 4,
      "note": 57,
      "start": 20.3027,
      "duration": 0.0997,
      "velocity": 122,
      "chip": "ym2612"
    },
    {
      "channel": 5,
      "note": 90,
      "start": 20.3843,
      "duration": 0.0503,
      "velocity": 113,
      "chip": "ym2612"
    },
    {
      "channel": 1,
      "note": 78,
      "start": 20.4008,
      "duration": 0.0498,
      "velocity": 122,
      "chip": "ym2612"
    },
    {
      "channel": 2,
      "note": 54,
      "start": 20.401,
      "duration": 0.2001,
      "velocity": 97,
      "chip": "ym2612"
    },
    {
      "channel": 3,
      "note": 69,
      "start": 20.4024,
      "duration": 0.0987,
      "velocity": 127,
      "chip": "ym2612"
    },
    {
      "channel": 4,
      "note": 54,
      "start": 20.4038,
      "duration": 0.1991,
      "velocity": 89,
      "chip": "ym2612"
    },
    {
      "channel": 5,
      "note": 94,
      "start": 20.4346,
      "duration": 0.5495,
      "velocity": 113,
      "chip": "ym2612"
    },
    {
      "channel": 1,
      "note": 66,
      "start": 20.5008,
      "duration": 0.0497,
      "velocity": 122,
      "chip": "ym2612"
    },
    {
      "channel": 3,
      "note": 57,
      "start": 20.5025,
      "duration": 0.099,
      "velocity": 122,
      "chip": "ym2612"
    },
    {
      "channel": 1,
      "note": 73,
      "start": 20.601,
      "duration": 0.0995,
      "velocity": 122,
      "chip": "ym2612"
    },
    {
      "channel": 2,
      "note": 49,
      "start": 20.6015,
      "duration": 0.0996,
      "velocity": 97,
      "chip": "ym2612"
    },
    {
      "channel": 3,
      "note": 69,
      "start": 20.6028,
      "duration": 0.1987,
      "velocity": 127,
      "chip": "ym2612"
    },
    {
      "channel": 4,
      "note": 57,
      "start": 20.6043,
      "duration": 0.1985,
      "velocity": 122,
      "chip": "ym2612"
    },
    {
      "channel": 1,
      "note": 78,
      "start": 20.701,
      "duration": 0.0495,
      "velocity": 122,
      "chip": "ym2612"
    },
    {
      "channel": 2,
      "note": 52,
      "start": 20.7013,
      "duration": 0.0998,
      "velocity": 97,
      "chip": "ym2612"
    },
    {
      "channel": 1,
      "note": 73,
      "start": 20.8011,
      "duration": 0.0993,
      "velocity": 122,
      "chip": "ym2612"
    },
    {
      "channel": 2,
      "note": 54,
      "start": 20.8014,
      "duration": 0.0995,
      "velocity": 97,
      "chip": "ym2612"
    },
    {
      "channel": 3,
      "note": 57,
      "start": 20.8028,
      "duration": 0.1987,
      "velocity": 122,
      "chip": "ym2612"
    },
    {
      "channel": 4,
      "note": 54,
      "start": 20.8043,
      "duration": 0.2972,
      "velocity": 89,
      "chip": "ym2612"
    },
    {
      "channel": 1,
      "note": 78,
      "start": 20.9009,
      "duration": 0.0495,
      "velocity": 122,
      "chip": "ym2612"
    },
    {
      "channel": 0,
      "note": 90,
      "start": 21.0006,
      "duration": 0.0998,
      "velocity": 113,
      "chip": "ym2612"
    },
    {
      "channel": 1,
      "note": 64,
      "start": 21.0012,
      "duration": 0.0995,
      "velocity": 122,
      "chip": "ym2612"
    },
    {
      "channel": 2,
      "note": 52,
      "start": 21.0015,
      "duration": 0.1999,
      "velocity": 97,
      "chip": "ym2612"
    },
    {
      "channel": 3,
      "note": 69,
      "start": 21.0027,
      "duration": 0.1989,
      "velocity": 127,
      "chip": "ym2612"
    },
    {
      "channel": 0,
      "note": 92,
      "start": 21.1006,
      "duration": 0.0498,
      "velocity": 113,
      "chip": "ym2612"
    },
    {
      "channel": 1,
      "note": 78,
      "start": 21.1012,
      "duration": 0.0494,
      "velocity": 122,
      "chip": "ym2612"
    },
    {
      "channel": 4,
      "note": 57,
      "start": 21.103,
      "duration": 0.1002,
      "velocity": 122,
      "chip": "ym2612"
    },
    {
      "channel": 5,
      "note": 90,
      "start": 21.1844,
      "duration": 0.1,
      "velocity": 113,
      "chip": "ym2612"
    },
    {
      "channel": 0,
      "note": 92,
      "start": 21.2005,
      "duration": 0.3501,
      "velocity": 113,
      "chip": "ym2612"
    },
    {
      "channel": 1,
      "note": 66,
      "start": 21.2013,
      "duration": 0.0993,
      "velocity": 122,
      "chip": "ym2612"
    },
    {
      "channel": 2,
      "note": 54,
      "start": 21.2016,
      "duration": 0.1991,
      "velocity": 97,
      "chip": "ym2612"
    },
    {
      "channel": 3,
      "note": 57,
      "start": 21.2031,
      "duration": 0.3994,
      "velocity": 122,
      "chip": "ym2612"
    },
    {
      "channel": 4,
      "note": 54,
      "start": 21.2045,
      "duration": 0.3981,
      "velocity": 89,
      "chip": "ym2612"
    },
    {
      "channel": 5,
      "note": 92,
      "start": 21.2846,
      "duration": 0.0497,
      "velocity": 113,
      "chip": "ym2612"
    },
    {
      "channel": 5,
      "note": 92,
      "start": 21.3844,
      "duration": 0.3505,
      "velocity": 113,
      "chip": "ym2612"
    },
    {
      "channel": 0,
      "note": 85,
      "start": 21.5506,
      "duration": 0.0498,
      "velocity": 113,
      "chip": "ym2612"
    },
    {
      "channel": 0,
      "note": 69,
      "start": 21.6017,
      "duration": 0.0654,
      "velocity": 127,
      "chip": "ym2612"
    },
    {
      "channel": 1,
      "note": 41,
      "start": 21.602,
      "duration": 0.0653,
      "velocity": 122,
      "chip": "ym2612"
    },
    {
      "channel": 2,
      "note": 53,
      "start": 21.6024,
      "duration": 0.0981,
      "velocity": 97,
      "chip": "ym2612"
    },
    {
      "channel": 0,
      "note": 69,
      "start": 21.6673,
      "duration": 0.0664,
      "velocity": 127,
      "chip": "ym2612"
    },
    {
      "channel": 0,
      "note": 69,
      "start": 21.734,
      "duration": 0.0664,
      "velocity": 127,
      "chip": "ym2612"
    },
    {
      "channel": 1,
      "note": 46,
      "start": 21.7343,
      "duration": 0.0665,
      "velocity": 122,
      "chip": "ym2612"
    },
    {
      "channel": 2,
      "note": 58,
      "start": 21.7346,
      "duration": 0.0993,
      "velocity": 97,
      "chip": "ym2612"
    },
    {
      "channel": 5,
      "note": 85,
      "start": 21.7349,
      "duration": 0.0492,
      "velocity": 113,
      "chip": "ym2612"
    },
    {
      "channel": 0,
      "note": 69,
      "start": 21.8007,
      "duration": 0.1997,
      "velocity": 127,
      "chip": "ym2612"
    },
    {
      "channel": 1,
      "note": 51,
      "start": 21.8674,
      "duration": 0.0664,
      "velocity": 122,
      "chip": "ym2612"
    },
    {
      "channel": 2,
      "note": 63,
      "start": 21.8678,
      "duration": 0.0994,
      "velocity": 97,
      "chip": "ym2612"
    },
    {
      "channel": 0,
      "note": 69,
      "start": 22.0007,
      "duration": 0.0997,
      "velocity": 127,
      "chip": "ym2612"
    },
    {
      "channel": 1,
      "note": 55,
      "start": 22.001,
      "duration": 0.0662,
      "velocity": 122,
      "chip": "ym2612"
    },
    {
      "channel": 2,
      "note": 55,
      "start": 22.0013,
      "duration": 0.0995,
      "velocity": 97,
      "chip": "ym2612"
    },
    {
      "channel": 0,
      "note": 69,
      "start": 22.1007,
      "duration": 0.1997,
      "velocity": 127,
      "chip": "ym2612"
    },
    {
      "channel": 1,
      "note": 60,
      "start": 22.1341,
      "duration": 0.0664,
      "velocity": 122,
      "chip": "ym2612"
    },
    {
      "channel": 2,
      "note": 60,
      "start": 22.1344,
      "duration": 0.0994,
      "velocity": 97,
      "chip": "ym2612"
    },
    {
      "channel": 1,
      "note": 65,
      "start": 22.2674,
      "duration": 0.0665,
      "velocity": 122,
      "chip": "ym2612"
    },
    {
      "channel": 2,
      "note": 65,
      "start": 22.2677,
      "duration": 0.0995,
      "velocity": 97,
      "chip": "ym2612"
    },
    {
      "channel": 0,
      "note": 69,
      "start": 22.3006,
      "duration": 0.0998,
      "velocity": 127,
      "chip": "ym2612"
    },
    {
      "channel": 0,
      "note": 69,
      "start": 22.4007,
      "duration": 0.1997,
      "velocity": 127,
      "chip": "ym2612"
    },
    {
      "channel": 1,
      "note": 68,
      "start": 22.401,
      "duration": 0.0662,
      "velocity": 122,
      "chip": "ym2612"
    },
    {
      "channel": 2,
      "note": 56,
      "start": 22.4013,
      "duration": 0.0992,
      "velocity": 97,
      "chip": "ym2612"
    },
    {
      "channel": 3,
      "note": 57,
      "start": 22.4018,
      "duration": 0.0489,
      "velocity": 122,
      "chip": "ym2612"
    },
    {
      "channel": 4,
      "note": 54,
      "start": 22.4021,
      "duration": 0.402,
      "velocity": 89,
      "chip": "ym2612"
    },
    {
      "channel": 3,
      "note": 57,
      "start": 22.4511,
      "duration": 0.0496,
      "velocity": 122,
      "chip": "ym2612"
    },
    {
      "channel": 3,
      "note": 57,
      "start": 22.5011,
      "duration": 0.0496,
      "velocity": 122,
      "chip": "ym2612"
    },
    {
      "channel": 1,
      "note": 73,
      "start": 22.534,
      "duration": 0.0667,
      "velocity": 122,
      "chip": "ym2612"
    },
    {
      "channel": 2,
      "note": 61,
      "start": 22.5344,
      "duration": 0.0995,
      "velocity": 97,
      "chip": "ym2612"
    },
    {
      "channel": 3,
      "note": 57,
      "start": 22.5511,
      "duration": 0.0499,
      "velocity": 122,
      "chip": "ym2612"
    },
    {
      "channel": 0,
      "note": 69,
      "start": 22.6006,
      "duration": 0.1998,
      "velocity": 127,
      "chip": "ym2612"
    },
    {
      "channel": 3,
      "note": 57,
      "start": 22.6013,
      "duration": 0.0492,
      "velocity": 122,
      "chip": "ym2612"
    },
    {
      "channel": 3,
      "note": 57,
      "start": 22.6509,
      "duration": 0.0498,
      "velocity": 122,
      "chip": "ym2612"
    },
    {
      "channel": 1,
      "note": 80,
      "start": 22.6674,
      "duration": 0.0664,
      "velocity": 122,
      "chip": "ym2612"
    },
    {
      "channel": 2,
      "note": 68,
      "start": 22.6678,
      "duration": 0.0994,
      "velocity": 97,
      "chip": "ym2612"
    },
    {
      "channel": 3,
      "note": 57,
      "start": 22.7011,
      "duration": 0.0495,
      "velocity": 122,
      "chip": "ym2612"
    },
    {
      "channel": 3,
      "note": 57,
      "start": 22.751,
      "duration": 0.0517,
      "velocity": 122,
      "chip": "ym2612"
    },
    {
      "channel": 1,
      "note": 66,
      "start": 22.8021,
      "duration": 0.0983,
      "velocity": 122,
      "chip": "ym2612"
    },
    {
      "channel": 2,
      "note": 54,
      "start": 22.8026,
      "duration": 0.1982,
      "velocity": 97,
      "chip": "ym2612"
    },
    {
      "channel": 3,
      "note": 69,
      "start": 22.8041,
      "duration": 0.097,
      "velocity": 127,
      "chip": "ym2612"
    },
    {
      "channel": 4,
      "note": 54,
      "start": 22.8055,
      "duration": 0.3974,
      "velocity": 89,
      "chip": "ym2612"
    },
    {
      "channel": 1,
      "note": 78,
      "start": 22.9009,
      "duration": 0.0495,
      "velocity": 122,
      "chip": "ym2612"
    },
    {
      "channel": 3,
      "note": 57,
      "start": 22.9026,
      "duration": 0.0983,
      "velocity": 122,
      "chip": "ym2612"
    },
    {
      "channel": 1,
      "note": 78,
      "start": 23.0007,
      "duration": 0.0497,
      "velocity": 122,
      "chip": "ym2612"
    },
    {
      "channel": 3,
      "note": 69,
      "start": 23.0022,
      "duration": 0.1993,
      "velocity": 127,
      "chip": "ym2612"
    },
    {
      "channel": 1,
      "note": 66,
      "start": 23.1009,
      "duration": 0.0998,
      "velocity": 122,
      "chip": "ym2612"
    },
    {
      "channel": 0,
      "note": 85,
      "start": 23.2006,
      "duration": 0.0998,
      "velocity": 113,
      "chip": "ym2612"
    },
    {
      "channel": 1,
      "note": 78,
      "start": 23.2012,
      "duration": 0.0494,
      "velocity": 122,
      "chip": "ym2612"
    },
    {
      "channel": 2,
      "note": 54,
      "start": 23.2014,
      "duration": 0.1998,
      "velocity": 97,
      "chip": "ym2612"
    },
    {
      "channel": 3,
      "note": 57,
      "start": 23.2028,
      "duration": 0.1986,
      "velocity": 122,
      "chip": "ym2612"
    },
    {
      "channel": 4,
      "note": 54,
      "start": 23.2031,
      "duration": 0.2982,
      "velocity": 89,
      "chip": "ym2612"
    },
    {
      "channel": 0,
      "note": 90,
      "start": 23.3006,
      "duration": 0.0998,
      "velocity": 113,
      "chip": "ym2612"
    },
    {
      "channel": 1,
      "note": 78,
      "start": 23.3009,
      "duration": 0.0496,
      "velocity": 122,
      "chip": "ym2612"
    },
    {
      "channel": 5,
      "note": 85,
      "start": 23.3846,
      "duration": 0.0997,
      "velocity": 113,
      "chip": "ym2612"
    },
    {
      "channel": 0,
      "note": 92,
      "start": 23.4006,
      "duration": 0.0998,
      "velocity": 113,
      "chip": "ym2612"
    },
    {
      "channel": 1,
      "note": 66,
      "start": 23.4012,
      "duration": 0.0995,
      "velocity": 122,
      "chip": "ym2612"
    },
    {
      "channel": 3,
      "note": 69,
      "start": 23.4026,
      "duration": 0.1985,
      "velocity": 127,
      "chip": "ym2612"
    },
    {
      "channel": 5,
      "note": 90,
      "start": 23.4845,
      "duration": 0.0997,
      "velocity": 113,
      "chip": "ym2612"
    },
    {
      "channel": 0,
      "note": 95,
      "start": 23.5006,
      "duration": 0.0998,
      "velocity": 113,
      "chip": "ym2612"
    },
    {
      "channel": 1,
      "note": 78,
      "start": 23.5012,
      "duration": 0.0494,
      "velocity": 122,
      "chip": "ym2612"
    },
    {
      "channel": 4,
      "note": 57,
      "start": 23.5029,
      "duration": 0.0996,
      "velocity": 122,
      "chip": "ym2612"
    },
    {
      "channel": 5,
      "note": 92,
      "start": 23.5844,
      "duration": 0.0998,
      "velocity": 113,
      "chip": "ym2612"
    },
    {
      "channel": 1,
      "note": 78,
      "start": 23.6008,
      "duration": 0.0495,
      "velocity": 122,
      "chip": "ym2612"
    },
    {
      "channel": 2,
      "note": 54,
      "start": 23.6011,
      "duration": 0.2002,
      "velocity": 97,
      "chip": "ym2612"
    },
    {
      "channel": 3,
      "note": 69,
      "start": 23.6024,
      "duration": 0.0988,
      "velocity": 127,
      "chip": "ym2612"
    },
    {
      "channel": 4,
      "note": 54,
      "start": 23.6038,
      "duration": 0.1992,
      "velocity": 89,
      "chip": "ym2612"
    },
    {
      "channel": 5,
      "note": 95,
      "start": 23.6844,
      "duration": 0.0999,
      "velocity": 113,
      "chip": "ym2612"
    },
    {
      "channel": 0,
      "note": 95,
      "start": 23.7006,
      "duration": 0.0998,
      "velocity": 113,
      "chip": "ym2612"
    },
    {
      "channel": 1,
      "note": 66,
      "start": 23.701,
      "duration": 0.0495,
      "velocity": 122,
      "chip": "ym2612"
    },
    {
      "channel": 3,
      "note": 57,
      "start": 23.7027,
      "duration": 0.099,
      "velocity": 122,
      "chip": "ym2612"
    },
    {
      "channel": 0,
      "note": 94,
      "start": 23.8006,
      "duration": 0.1998,
      "velocity": 113,
      "chip": "ym2612"
    },
    {
      "channel": 1,
      "note": 73,
      "start": 23.8012,
      "duration": 0.0994,
      "velocity": 122,
      "chip": "ym2612"
    },
    {
      "channel": 2,
      "note": 49,
      "start": 23.8017,
      "duration": 0.0994,
      "velocity": 97,
      "chip": "ym2612"
    },
    {
      "channel": 3,
      "note": 69,
      "start": 23.803,
      "duration": 0.1986,
      "velocity": 127,
      "chip": "ym2612"
    },
    {
      "channel": 4,
      "note": 57,
      "start": 23.8045,
      "duration": 0.1985,
      "velocity": 122,
      "chip": "ym2612"
    },
    {
      "channel": 5,
      "note": 95,
      "start": 23.8846,
      "duration": 0.0997,
      "velocity": 113,
      "chip": "ym2612"
    },
    {
      "channel": 1,
      "note": 78,
      "start": 23.901,
      "duration": 0.0496,
      "velocity": 122,
      "chip": "ym2612"
    },
    {
      "channel": 2,
      "note": 52,
      "start": 23.9013,
      "duration": 0.0999,
      "velocity": 97,
      "chip": "ym2612"
    },
    {
      "channel": 5,
      "note": 94,
      "start": 23.9845,
      "duration": 0.1997,
      "velocity": 113,
      "chip": "ym2612"
    },
    {
      "channel": 0,
      "note": 92,
      "start": 24.0006,
      "duration": 0.0664,
      "velocity": 113,
      "chip": "ym2612"
    },
    {
      "channel": 1,
      "note": 73,
      "start": 24.0012,
      "duration": 0.0994,
      "velocity": 122,
      "chip": "ym2612"
    },
    {
      "channel": 2,
      "note": 54,
      "start": 24.0015,
      "duration": 0.0995,
      "velocity": 97,
      "chip": "ym2612"
    },
    {
      "channel": 3,
      "note": 57,
      "start": 24.0029,
      "duration": 0.1986,
      "velocity": 122,
      "chip": "ym2612"
    },
    {
      "channel": 4,
      "note": 54,
      "start": 24.0043,
      "duration": 0.2969,
      "velocity": 89,
      "chip": "ym2612"
    },
    {
      "channel": 0,
      "note": 94,
      "start": 24.0673,
      "duration": 0.0665,
      "velocity": 113,
      "chip": "ym2612"
    },
    {
      "channel": 1,
      "note": 78,
      "start": 24.101,
      "duration": 0.0496,
      "velocity": 122,
      "chip": "ym2612"
    },
    {
      "channel": 0,
      "note": 92,
      "start": 24.1339,
      "duration": 0.0665,
      "velocity": 113,
      "chip": "ym2612"
    },
    {
      "channel": 5,
      "note": 92,
      "start": 24.1844,
      "duration": 0.0666,
      "velocity": 113,
      "chip": "ym2612"
    },
    {
      "channel": 0,
      "note": 90,
      "start": 24.2006,
      "duration": 0.1998,
      "velocity": 113,
      "chip": "ym2612"
    },
    {
      "channel": 1,
      "note": 64,
      "start": 24.2012,
      "duration": 0.0994,
      "velocity": 122,
      "chip": "ym2612"
    },
    {
      "channel": 2,
      "note": 52,
      "start": 24.2015,
      "duration": 0.1999,
      "velocity": 97,
      "chip": "ym2612"
    },
    {
      "channel": 3,
      "note": 69,
      "start": 24.2027,
      "duration": 0.199,
      "velocity": 127,
      "chip": "ym2612"
    },
    {
      "channel": 5,
      "note": 94,
      "start": 24.2513,
      "duration": 0.0664,
      "velocity": 113,
      "chip": "ym2612"
    },
    {
      "channel": 1,
      "note": 78,
      "start": 24.301,
      "duration": 0.0496,
      "velocity": 122,
      "chip": "ym2612"
    },
    {
      "channel": 4,
      "note": 57,
      "start": 24.3028,
      "duration": 0.1002,
      "velocity": 122,
      "chip": "ym2612"
    },
    {
      "channel": 5,
      "note": 92,
      "start": 24.3179,
      "duration": 0.0663,
      "velocity": 113,
      "chip": "ym2612"
    },
    {
      "channel": 5,
      "note": 90,
      "start": 24.3845,
      "duration": 0.1998,
      "velocity": 113,
      "chip": "ym2612"
    },
    {
      "channel": 0,
      "note": 88,
      "start": 24.4006,
      "duration": 0.7998,
      "velocity": 113,
      "chip": "ym2612"
    },
    {
      "channel": 1,
      "note": 66,
      "start": 24.4013,
      "duration": 0.0993,
      "velocity": 122,
      "chip": "ym2612"
    },
    {
      "channel": 2,
      "note": 54,
      "start": 24.4017,
      "duration": 0.1992,
      "velocity": 97,
      "chip": "ym2612"
    },
    {
      "channel": 3,
      "note": 69,
      "start": 24.403,
      "duration": 0.0982,
      "velocity": 127,
      "chip": "ym2612"
    },
    {
      "channel": 4,
      "note": 54,
      "start": 24.4045,
      "duration": 0.3983,
      "velocity": 89,
      "chip": "ym2612"
    },
    {
      "channel": 1,
      "note": 78,
      "start": 24.501,
      "duration": 0.0496,
      "velocity": 122,
      "chip": "ym2612"
    },
    {
      "channel": 3,
      "note": 57,
      "start": 24.5026,
      "duration": 0.0984,
      "velocity": 122,
      "chip": "ym2612"
    },
    {
      "channel": 5,
      "note": 88,
      "start": 24.5846,
      "duration": 0.7996,
      "velocity": 113,
      "chip": "ym2612"
    },
    {
      "channel": 1,
      "note": 78,
      "start": 24.6008,
      "duration": 0.0498,
      "velocity": 122,
      "chip": "ym2612"
    },
    {
      "channel": 3,
      "note": 69,
      "start": 24.6023,
      "duration": 0.199,
      "velocity": 127,
      "chip": "ym2612"
    },
    {
      "channel": 1,
      "note": 66,
      "start": 24.701,
      "duration": 0.0996,
      "velocity": 122,
      "chip": "ym2612"
    },
    {
      "channel": 1,
      "note": 78,
      "start": 24.801,
      "duration": 0.0496,
      "velocity": 122,
      "chip": "ym2612"
    },
    {
      "channel": 2,
      "note": 54,
      "start": 24.8012,
      "duration": 0.1999,
      "velocity": 97,
      "chip": "ym2612"
    },
    {
      "channel": 3,
      "note": 57,
      "start": 24.8027,
      "duration": 0.1986,
      "velocity": 122,
      "chip": "ym2612"
    },
    {
      "channel": 4,
      "note": 54,
      "start": 24.803,
      "duration": 0.2982,
      "velocity": 89,
      "chip": "ym2612"
    },
    {
      "channel": 1,
      "note": 78,
      "start": 24.9008,
      "duration": 0.0497,
      "velocity": 122,
      "chip": "ym2612"
    },
    {
      "channel": 1,
      "note": 66,
      "start": 25.001,
      "duration": 0.0995,
      "velocity": 122,
      "chip": "ym2612"
    },
    {
      "channel": 3,
      "note": 69,
      "start": 25.0025,
      "duration": 0.1987,
      "velocity": 127,
      "chip": "ym2612"
    },
    {
      "channel": 1,
      "note": 78,
      "start": 25.101,
      "duration": 0.0496,
      "velocity": 122,
      "chip": "ym2612"
    },
    {
      "channel": 4,
      "note": 57,
      "start": 25.1027,
      "duration": 0.0998,
      "velocity": 122,
      "chip": "ym2612"
    },
    {
      "channel": 1,
      "note": 78,
      "start": 25.2009,
      "duration": 0.0495,
      "velocity": 122,
      "chip": "ym2612"
    },
    {
      "channel": 2,
      "note": 54,
      "start": 25.2012,
      "duration": 0.2001,
      "velocity": 97,
      "chip": "ym2612"
    },
    {
      "channel": 3,
      "note": 69,
      "start": 25.2025,
      "duration": 0.0985,
      "velocity": 127,
      "chip": "ym2612"
    },
    {
      "channel": 4,
      "note": 54,
      "start": 25.2039,
      "duration": 0.1992,
      "velocity": 89,
      "chip": "ym2612"
    },
    {
      "channel": 1,
      "note": 66,
      "start": 25.3008,
      "duration": 0.0496,
      "velocity": 122,
      "chip": "ym2612"
    },
    {
      "channel": 3,
      "note": 57,
      "start": 25.3024,
      "duration": 0.0993,
      "velocity": 122,
      "chip": "ym2612"
    },
    {
      "channel": 0,
      "note": 88,
      "start": 25.4006,
      "duration": 0.0998,
      "velocity": 113,
      "chip": "ym2612"
    },
    {
      "channel": 1,
      "note": 73,
      "start": 25.4012,
      "duration": 0.0994,
      "velocity": 122,
      "chip": "ym2612"
    },
    {
      "channel": 2,
      "note": 49,
      "start": 25.4017,
      "duration": 0.0994,
      "velocity": 97,
      "chip": "ym2612"
    },
    {
      "channel": 3,
      "note": 69,
      "start": 25.403,
      "duration": 0.1985,
      "velocity": 127,
      "chip": "ym2612"
    },
    {
      "channel": 4,
      "note": 57,
      "start": 25.4045,
      "duration": 0.1984,
      "velocity": 122,
      "chip": "ym2612"
    },
    {
      "channel": 1,
      "note": 78,
      "start": 25.501,
      "duration": 0.0494,
      "velocity": 122,
      "chip": "ym2612"
    },
    {
      "channel": 2,
      "note": 52,
      "start": 25.5014,
      "duration": 0.0998,
      "velocity": 97,
      "chip": "ym2612"
    },
    {
      "channel": 5,
      "note": 88,
      "start": 25.5844,
      "duration": 0.1,
      "velocity": 113,
      "chip": "ym2612"
    },
    {
      "channel": 0,
      "note": 95,
      "start": 25.6006,
      "duration": 0.0998,
      "velocity": 113,
      "chip": "ym2612"
    },
    {
      "channel": 1,
      "note": 73,
      "start": 25.6012,
      "duration": 0.0995,
      "velocity": 122,
      "chip": "ym2612"
    },
    {
      "channel": 2,
      "note": 54,
      "start": 25.6015,
      "duration": 0.0998,
      "velocity": 97,
      "chip": "ym2612"
    },
    {
      "channel": 3,
      "note": 57,
      "start": 25.6029,
      "duration": 0.1986,
      "velocity": 122,
      "chip": "ym2612"
    },
    {
      "channel": 4,
      "note": 54,
      "start": 25.6043,
      "duration": 0.1985,
      "velocity": 89,
      "chip": "ym2612"
    },
    {
      "channel": 0,
      "note": 88,
      "start": 25.7006,
      "duration": 0.0998,
      "velocity": 113,
      "chip": "ym2612"
    },
    {
      "channel": 1,
      "note": 78,
      "start": 25.7012,
      "duration": 0.0494,
      "velocity": 122,
      "chip": "ym2612"
    },
    {
      "channel": 5,
      "note": 95,
      "start": 25.7844,
      "duration": 0.0999,
      "velocity": 113,
      "chip": "ym2612"
    },
    {
      "channel": 1,
      "note": 64,
      "start": 25.8011,
      "duration": 0.0993,
      "velocity": 122,
      "chip": "ym2612"
    },
    {
      "channel": 2,
      "note": 52,
      "start": 25.8014,
      "duration": 0.2,
      "velocity": 97,
      "chip": "ym2612"
    },
    {
      "channel": 3,
      "note": 69,
      "start": 25.8027,
      "duration": 0.1991,
      "velocity": 127,
      "chip": "ym2612"
    },
    {
      "channel": 4,
      "note": 54,
      "start": 25.803,
      "duration": 0.0982,
      "velocity": 89,
      "chip": "ym2612"
    },
    {
      "channel": 5,
      "note": 88,
      "start": 25.8845,
      "duration": 0.0996,
      "velocity": 113,
      "chip": "ym2612"
    },
    {
      "channel": 1,
      "note": 78,
      "start": 25.9009,
      "duration": 0.0495,
      "velocity": 122,
      "chip": "ym2612"
    },
    {
      "channel": 4,
      "note": 57,
      "start": 25.9027,
      "duration": 0.1005,
      "velocity": 122,
      "chip": "ym2612"
    },
    {
      "channel": 0,
      "note": 88,
      "start": 26.0006,
      "duration": 0.05,
      "velocity": 113,
      "chip": "ym2612"
    },
    {
      "channel": 1,
      "note": 66,
      "start": 26.0013,
      "duration": 0.0992,
      "velocity": 122,
      "chip": "ym2612"
    },
    {
      "channel": 2,
      "note": 54,
      "start": 26.0017,
      "duration": 0.1993,
      "velocity": 97,
      "chip": "ym2612"
    },
    {
      "channel": 3,
      "note": 69,
      "start": 26.0031,
      "duration": 0.098,
      "velocity": 127,
      "chip": "ym2612"
    },
    {
      "channel": 4,
      "note": 54,
      "start": 26.0046,
      "duration": 0.3983,
      "velocity": 89,
      "chip": "ym2612"
    },
    {
      "channel": 0,
      "note": 93,
      "start": 26.0506,
      "duration": 0.1498,
      "velocity": 113,
      "chip": "ym2612"
    },
    {
      "channel": 1,
      "note": 78,
      "start": 26.101,
      "duration": 0.0496,
      "velocity": 122,
      "chip": "ym2612"
    },
    {
      "channel": 3,
      "note": 57,
      "start": 26.1026,
      "duration": 0.0986,
      "velocity": 122,
      "chip": "ym2612"
    },
    {
      "channel": 5,
      "note": 88,
      "start": 26.1845,
      "duration": 0.05,
      "velocity": 113,
      "chip": "ym2612"
    },
    {
      "channel": 0,
      "note": 88,
      "start": 26.2006,
      "duration": 0.0998,
      "velocity": 113,
      "chip": "ym2612"
    },
    {
      "channel": 1,
      "note": 78,
      "start": 26.201,
      "duration": 0.0496,
      "velocity": 122,
      "chip": "ym2612"
    },
    {
      "channel": 3,
      "note": 69,
      "start": 26.2025,
      "duration": 0.199,
      "velocity": 127,
      "chip": "ym2612"
    },
    {
      "channel": 5,
      "note": 93,
      "start": 26.2345,
      "duration": 0.1497,
      "velocity": 113,
      "chip": "ym2612"
    },
    {
      "channel": 1,
      "note": 66,
      "start": 26.301,
      "duration": 0.0996,
      "velocity": 122,
      "chip": "ym2612"
    },
    {
      "channel": 5,
      "note": 88,
      "start": 26.3844,
      "duration": 0.0999,
      "velocity": 113,
      "chip": "ym2612"
    },
    {
      "channel": 0,
      "note": 87,
      "start": 26.4006,
      "duration": 0.0998,
      "velocity": 113,
      "chip": "ym2612"
    },
    {
      "channel": 1,
      "note": 78,
      "start": 26.4012,
      "duration": 0.0494,
      "velocity": 122,
      "chip": "ym2612"
    },
    {
      "channel": 2,
      "note": 54,
      "start": 26.4014,
      "duration": 0.1998,
      "velocity": 97,
      "chip": "ym2612"
    },
    {
      "channel": 3,
      "note": 57,
      "start": 26.4028,
      "duration": 0.1986,
      "velocity": 122,
      "chip": "ym2612"
    },
    {
      "channel": 4,
      "note": 54,
      "start": 26.4031,
      "duration": 0.2981,
      "velocity": 89,
      "chip": "ym2612"
    },
    {
      "channel": 1,
      "note": 78,
      "start": 26.5008,
      "duration": 0.0495,
      "velocity": 122,
      "chip": "ym2612"
    },
    {
      "channel": 5,
      "note": 87,
      "start": 26.5844,
      "duration": 0.0999,
      "velocity": 113,
      "chip": "ym2612"
    },
    {
      "channel": 0,
      "note": 90,
      "start": 26.6006,
      "duration": 0.7998,
      "velocity": 113,
      "chip": "ym2612"
    },
    {
      "channel": 1,
      "note": 66,
      "start": 26.6012,
      "duration": 0.0994,
      "velocity": 122,
      "chip": "ym2612"
    },
    {
      "channel": 3,
      "note": 69,
      "start": 26.6026,
      "duration": 0.1985,
      "velocity": 127,
      "chip": "ym2612"
    },
    {
      "channel": 1,
      "note": 78,
      "start": 26.701,
      "duration": 0.0496,
      "velocity": 122,
      "chip": "ym2612"
    },
    {
      "channel": 4,
      "note": 57,
      "start": 26.7027,
      "duration": 0.0997,
      "velocity": 122,
      "chip": "ym2612"
    },
    {
      "channel": 5,
      "note": 90,
      "start": 26.7844,
      "duration": 0.7998,
      "velocity": 113,
      "chip": "ym2612"
    },
    {
      "channel": 1,
      "note": 78,
      "start": 26.8008,
      "duration": 0.0498,
      "velocity": 122,
      "chip": "ym2612"
    },
    {
      "channel": 2,
      "note": 54,
      "start": 26.801,
      "duration": 0.2001,
      "velocity": 97,
      "chip": "ym2612"
    },
    {
      "channel": 3,
      "note": 69,
      "start": 26.8024,
      "duration": 0.0987,
      "velocity": 127,
      "chip": "ym2612"
    },
    {
      "channel": 4,
      "note": 54,
      "start": 26.8038,
      "duration": 0.1991,
      "velocity": 89,
      "chip": "ym2612"
    },
    {
      "channel": 1,
      "note": 66,
      "start": 26.9008,
      "duration": 0.0497,
      "velocity": 122,
      "chip": "ym2612"
    },
    {
      "channel": 3,
      "note": 57,
      "start": 26.9025,
      "duration": 0.099,
      "velocity": 122,
      "chip": "ym2612"
    },
    {
      "channel": 1,
      "note": 73,
      "start": 27.001,
      "duration": 0.0995,
      "velocity": 122,
      "chip": "ym2612"
    },
    {
      "channel": 2,
      "note": 49,
      "start": 27.0015,
      "duration": 0.0996,
      "velocity": 97,
      "chip": "ym2612"
    },
    {
      "channel": 3,
      "note": 69,
      "start": 27.0028,
      "duration": 0.1986,
      "velocity": 127,
      "chip": "ym2612"
    },
    {
      "channel": 4,
      "note": 57,
      "start": 27.0043,
      "duration": 0.1985,
      "velocity": 122,
      "chip": "ym2612"
    },
    {
      "channel": 1,
      "note": 78,
      "start": 27.101,
      "duration": 0.0495,
      "velocity": 122,
      "chip": "ym2612"
    },
    {
      "channel": 2,
      "note": 52,
      "start": 27.1013,
      "duration": 0.0998,
      "velocity": 97,
      "chip": "ym2612"
    },
    {
      "channel": 1,
      "note": 73,
      "start": 27.201,
      "duration": 0.0995,
      "velocity": 122,
      "chip": "ym2612"
    },
    {
      "channel": 2,
      "note": 54,
      "start": 27.2013,
      "duration": 0.0997,
      "velocity": 97,
      "chip": "ym2612"
    },
    {
      "channel": 3,
      "note": 57,
      "start": 27.2027,
      "duration": 0.1987,
      "velocity": 122,
      "chip": "ym2612"
    },
    {
      "channel": 4,
      "note": 54,
      "start": 27.2041,
      "duration": 0.2971,
      "velocity": 89,
      "chip": "ym2612"
    },
    {
      "channel": 1,
      "note": 78,
      "start": 27.301,
      "duration": 0.0496,
      "velocity": 122,
      "chip": "ym2612"
    },
    {
      "channel": 1,
      "note": 64,
      "start": 27.4011,
      "duration": 0.0993,
      "velocity": 122,
      "chip": "ym2612"
    },
    {
      "channel": 2,
      "note": 52,
      "start": 27.4014,
      "duration": 0.2009,
      "velocity": 97,
      "chip": "ym2612"
    },
    {
      "channel": 3,
      "note": 69,
      "start": 27.4027,
      "duration": 0.2,
      "velocity": 127,
      "chip": "ym2612"
    },
    {
      "channel": 1,
      "note": 78,
      "start": 27.5009,
      "duration": 0.0495,
      "velocity": 122,
      "chip": "ym2612"
    },
    {
      "channel": 4,
      "note": 57,
      "start": 27.5027,
      "duration": 0.1013,
      "velocity": 122,
      "chip": "ym2612"
    },
    {
      "channel": 1,
      "note": 66,
      "start": 27.6022,
      "duration": 0.0981,
      "velocity": 122,
      "chip": "ym2612"
    },
    {
      "channel": 2,
      "note": 54,
      "start": 27.6026,
      "duration": 0.0479,
      "velocity": 97,
      "chip": "ym2612"
    },
    {
      "channel": 3,
      "note": 69,
      "start": 27.604,
      "duration": 0.0972,
      "velocity": 127,
      "chip": "ym2612"
    },
    {
      "channel": 4,
      "note": 54,
      "start": 27.6055,
      "duration": 0.1968,
      "velocity": 89,
      "chip": "ym2612"
    },
    {
      "channel": 1,
      "note": 78,
      "start": 27.7009,
      "duration": 0.0495,
      "velocity": 122,
      "chip": "ym2612"
    },
    {
      "channel": 2,
      "note": 54,
      "start": 27.7012,
      "duration": 0.0494,
      "velocity": 97,
      "chip": "ym2612"
    },
    {
      "channel": 3,
      "note": 57,
      "start": 27.7027,
      "duration": 0.0983,
      "velocity": 122,
      "chip": "ym2612"
    },
    {
      "channel": 1,
      "note": 78,
      "start": 27.8007,
      "duration": 0.0497,
      "velocity": 122,
      "chip": "ym2612"
    },
    {
      "channel": 3,
      "note": 69,
      "start": 27.8022,
      "duration": 0.1993,
      "velocity": 127,
      "chip": "ym2612"
    },
    {
      "channel": 4,
      "note": 57,
      "start": 27.8038,
      "duration": 0.0973,
      "velocity": 122,
      "chip": "ym2612"
    },
    {
      "channel": 1,
      "note": 66,
      "start": 27.9009,
      "duration": 0.0997,
      "velocity": 122,
      "chip": "ym2612"
    },
    {
      "channel": 4,
      "note": 57,
      "start": 27.9014,
      "duration": 0.1016,
      "velocity": 122,
      "chip": "ym2612"
    },
    {
      "channel": 0,
      "note": 76,
      "start": 28.0006,
      "duration": 0.0998,
      "velocity": 92,
      "chip": "ym2612"
    },
    {
      "channel": 1,
      "note": 78,
      "start": 28.0012,
      "duration": 0.0494,
      "velocity": 122,
      "chip": "ym2612"
    },
    {
      "channel": 2,
      "note": 54,
      "start": 28.0015,
      "duration": 0.0492,
      "velocity": 97,
      "chip": "ym2612"
    },
    {
      "channel": 3,
      "note": 57,
      "start": 28.0029,
      "duration": 0.0984,
      "velocity": 122,
      "chip": "ym2612"
    },
    {
      "channel": 4,
      "note": 54,
      "start": 28.0044,
      "duration": 0.1984,
      "velocity": 89,
      "chip": "ym2612"
    },
    {
      "channel": 0,
      "note": 78,
      "start": 28.1006,
      "duration": 0.0998,
      "velocity": 92,
      "chip": "ym2612"
    },
    {
      "channel": 1,
      "note": 78,
      "start": 28.101,
      "duration": 0.0495,
      "velocity": 122,
      "chip": "ym2612"
    },
    {
      "channel": 2,
      "note": 54,
      "start": 28.1013,
      "duration": 0.0494,
      "velocity": 97,
      "chip": "ym2612"
    },
    {
      "channel": 3,
      "note": 57,
      "start": 28.1017,
      "duration": 0.0998,
      "velocity": 122,
      "chip": "ym2612"
    },
    {
      "channel": 5,
      "note": 76,
      "start": 28.1844,
      "duration": 0.0998,
      "velocity": 92,
      "chip": "ym2612"
    },
    {
      "channel": 0,
      "note": 80,
      "start": 28.2006,
      "duration": 0.0998,
      "velocity": 92,
      "chip": "ym2612"
    },
    {
      "channel": 1,
      "note": 66,
      "start": 28.2012,
      "duration": 0.0995,
      "velocity": 122,
      "chip": "ym2612"
    },
    {
      "channel": 3,
      "note": 69,
      "start": 28.2027,
      "duration": 0.1987,
      "velocity": 127,
      "chip": "ym2612"
    },
    {
      "channel": 4,
      "note": 57,
      "start": 28.2043,
      "duration": 0.0971,
      "velocity": 122,
      "chip": "ym2612"
    },
    {
      "channel": 5,
      "note": 78,
      "start": 28.2845,
      "duration": 0.0996,
      "velocity": 92,
      "chip": "ym2612"
    },
    {
      "channel": 0,
      "note": 83,
      "start": 28.3006,
      "duration": 0.0998,
      "velocity": 92,
      "chip": "ym2612"
    },
    {
      "channel": 1,
      "note": 78,
      "start": 28.3012,
      "duration": 0.0493,
      "velocity": 122,
      "chip": "ym2612"
    },
    {
      "channel": 4,
      "note": 57,
      "start": 28.3017,
      "duration": 0.101,
      "velocity": 122,
      "chip": "ym2612"
    },
    {
      "channel": 5,
      "note": 80,
      "start": 28.3844,
      "duration": 0.0998,
      "velocity": 92,
      "chip": "ym2612"
    },
    {
      "channel": 0,
      "note": 80,
      "start": 28.4006,
      "duration": 0.0998,
      "velocity": 92,
      "chip": "ym2612"
    },
    {
      "channel": 1,
      "note": 78,
      "start": 28.401,
      "duration": 0.0495,
      "velocity": 122,
      "chip": "ym2612"
    },
    {
      "channel": 2,
      "note": 49,
      "start": 28.4013,
      "duration": 0.0493,
      "velocity": 97,
      "chip": "ym2612"
    },
    {
      "channel": 3,
      "note": 69,
      "start": 28.4027,
      "duration": 0.0987,
      "velocity": 127,
      "chip": "ym2612"
    },
    {
      "channel": 4,
      "note": 54,
      "start": 28.4041,
      "duration": 0.1987,
      "velocity": 89,
      "chip": "ym2612"
    },
    {
      "channel": 5,
      "note": 83,
      "start": 28.4845,
      "duration": 0.0997,
      "velocity": 92,
      "chip": "ym2612"
    },
    {
      "channel": 0,
      "note": 78,
      "start": 28.5006,
      "duration": 0.0998,
      "velocity": 92,
      "chip": "ym2612"
    },
    {
      "channel": 1,
      "note": 66,
      "start": 28.5011,
      "duration": 0.0494,
      "velocity": 122,
      "chip": "ym2612"
    },
    {
      "channel": 2,
      "note": 49,
      "start": 28.5013,
      "duration": 0.0493,
      "velocity": 97,
      "chip": "ym2612"
    },
    {
      "channel": 3,
      "note": 57,
      "start": 28.5029,
      "duration": 0.0986,
      "velocity": 122,
      "chip": "ym2612"
    },
    {
      "channel": 5,
      "note": 80,
      "start": 28.5845,
      "duration": 0.0998,
      "velocity": 92,
      "chip": "ym2612"
    },
    {
      "channel": 0,
      "note": 80,
      "start": 28.6006,
      "duration": 0.0998,
      "velocity": 92,
      "chip": "ym2612"
    },
    {
      "channel": 1,
      "note": 73,
      "start": 28.6012,
      "duration": 0.0994,
      "velocity": 122,
      "chip": "ym2612"
    },
    {
      "channel": 3,
      "note": 69,
      "start": 28.6027,
      "duration": 0.1987,
      "velocity": 127,
      "chip": "ym2612"
    },
    {
      "channel": 4,
      "note": 57,
      "start": 28.6043,
      "duration": 0.0973,
      "velocity": 122,
      "chip": "ym2612"
    },
    {
      "channel": 5,
      "note": 78,
      "start": 28.6845,
      "duration": 0.0998,
      "velocity": 92,
      "chip": "ym2612"
    },
    {
      "channel": 0,
      "note": 83,
      "start": 28.7006,
      "duration": 0.0998,
      "velocity": 92,
      "chip": "ym2612"
    },
    {
      "channel": 1,
      "note": 78,
      "start": 28.7011,
      "duration": 0.0494,
      "velocity": 122,
      "chip": "ym2612"
    },
    {
      "channel": 2,
      "note": 49,
      "start": 28.7014,
      "duration": 0.0999,
      "velocity": 97,
      "chip": "ym2612"
    },
    {
      "channel": 4,
      "note": 57,
      "start": 28.7019,
      "duration": 0.101,
      "velocity": 122,
      "chip": "ym2612"
    },
    {
      "channel": 5,
      "note": 80,
      "start": 28.7845,
      "duration": 0.0998,
      "velocity": 92,
      "chip": "ym2612"
    },
    {
      "channel": 0,
      "note": 86,
      "start": 28.8006,
      "duration": 0.0998,
      "velocity": 92,
      "chip": "ym2612"
    },
    {
      "channel": 1,
      "note": 73,
      "start": 28.8012,
      "duration": 0.0994,
      "velocity": 122,
      "chip": "ym2612"
    },
    {
      "channel": 3,
      "note": 57,
      "start": 28.8029,
      "duration": 0.0983,
      "velocity": 122,
      "chip": "ym2612"
    },
    {
      "channel": 4,
      "note": 54,
      "start": 28.8043,
      "duration": 0.2971,
      "velocity": 89,
      "chip": "ym2612"
    },
    {
      "channel": 5,
      "note": 83,
      "start": 28.8845,
      "duration": 0.0997,
      "velocity": 92,
      "chip": "ym2612"
    },
    {
      "channel": 0,
      "note": 88,
      "start": 28.9006,
      "duration": 0.0998,
      "velocity": 92,
      "chip": "ym2612"
    },
    {
      "channel": 1,
      "note": 78,
      "start": 28.9011,
      "duration": 0.0494,
      "velocity": 122,
      "chip": "ym2612"
    },
    {
      "channel": 3,
      "note": 57,
      "start": 28.9014,
      "duration": 0.1001,
      "velocity": 122,
      "chip": "ym2612"
    },
    {
      "channel": 5,
      "note": 86,
      "start": 28.9845,
      "duration": 0.0999,
      "velocity": 92,
      "chip": "ym2612"
    },
    {
      "channel": 0,
      "note": 90,
      "start": 29.0006,
      "duration": 0.0998,
      "velocity": 92,
      "chip": "ym2612"
    },
    {
      "channel": 1,
      "note": 64,
      "start": 29.0012,
      "duration": 0.0994,
      "velocity": 122,
      "chip": "ym2612"
    },
    {
      "channel": 2,
      "note": 52,
      "start": 29.0015,
      "duration": 0.1999,
      "velocity": 97,
      "chip": "ym2612"
    },
    {
      "channel": 3,
      "note": 69,
      "start": 29.0028,
      "duration": 0.199,
      "velocity": 127,
      "chip": "ym2612"
    },
    {
      "channel": 5,
      "note": 88,
      "start": 29.0846,
      "duration": 0.0997,
      "velocity": 92,
      "chip": "ym2612"
    },
    {
      "channel": 0,
      "note": 92,
      "start": 29.1006,
      "duration": 0.0998,
      "velocity": 92,
      "chip": "ym2612"
    },
    {
      "channel": 1,
      "note": 78,
      "start": 29.1011,
      "duration": 0.0494,
      "velocity": 122,
      "chip": "ym2612"
    },
    {
      "channel": 4,
      "note": 57,
      "start": 29.1029,
      "duration": 0.1002,
      "velocity": 122,
      "chip": "ym2612"
    },
    {
      "channel": 5,
      "note": 90,
      "start": 29.1845,
      "duration": 0.0999,
      "velocity": 92,
      "chip": "ym2612"
    },
    {
      "channel": 0,
      "note": 92,
      "start": 29.2007,
      "duration": 0.0163,
      "velocity": 92,
      "chip": "ym2612"
    },
    {
      "channel": 1,
      "note": 66,
      "start": 29.2013,
      "duration": 0.0992,
      "velocity": 122,
      "chip": "ym2612"
    },
    {
      "channel": 2,
      "note": 54,
      "start": 29.2017,
      "duration": 0.1993,
      "velocity": 97,
      "chip": "ym2612"
    },
    {
      "channel": 3,
      "note": 69,
      "start": 29.2031,
      "duration": 0.0981,
      "velocity": 127,
      "chip": "ym2612"
    },
    {
      "channel": 4,
      "note": 54,
      "start": 29.2045,
      "duration": 0.3982,
      "velocity": 89,
      "chip": "ym2612"
    },
    {
      "channel": 0,
      "note": 94,
      "start": 29.2174,
      "duration": 0.183,
      "velocity": 92,
      "chip": "ym2612"
    },
    {
      "channel": 5,
      "note": 92,
      "start": 29.2846,
      "duration": 0.0997,
      "velocity": 92,
      "chip": "ym2612"
    },
    {
      "channel": 1,
      "note": 78,
      "start": 29.301,
      "duration": 0.0496,
      "velocity": 122,
      "chip": "ym2612"
    },
    {
      "channel": 3,
      "note": 57,
      "start": 29.3026,
      "duration": 0.0986,
      "velocity": 122,
      "chip": "ym2612"
    },
    {
      "channel": 5,
      "note": 92,
      "start": 29.3846,
      "duration": 0.0181,
      "velocity": 92,
      "chip": "ym2612"
    },
    {
      "channel": 0,
      "note": 85,
      "start": 29.4006,
      "duration": 0.0498,
      "velocity": 92,
      "chip": "ym2612"
    },
    {
      "channel": 1,
      "note": 78,
      "start": 29.401,
      "duration": 0.0496,
      "velocity": 122,
      "chip": "ym2612"
    },
    {
      "channel": 3,
      "note": 69,
      "start": 29.4024,
      "duration": 0.1988,
      "velocity": 127,
      "chip": "ym2612"
    },
    {
      "channel": 5,
      "note": 94,
      "start": 29.403,
      "duration": 0.1813,
      "velocity": 92,
      "chip": "ym2612"
    },
    {
      "channel": 0,
      "note": 92,
      "start": 29.5007,
      "duration": 0.0163,
      "velocity": 92,
      "chip": "ym2612"
    },
    {
      "channel": 1,
      "note": 66,
      "start": 29.5012,
      "duration": 0.0993,
      "velocity": 122,
      "chip": "ym2612"
    },
    {
      "channel": 0,
      "note": 94,
      "start": 29.5174,
      "duration": 0.1497,
      "velocity": 92,
      "chip": "ym2612"
    },
    {
      "channel": 5,
      "note": 85,
      "start": 29.5845,
      "duration": 0.0499,
      "velocity": 92,
      "chip": "ym2612"
    },
    {
      "channel": 1,
      "note": 78,
      "start": 29.601,
      "duration": 0.0496,
      "velocity": 122,
      "chip": "ym2612"
    },
    {
      "channel": 2,
      "note": 54,
      "start": 29.6012,
      "duration": 0.1998,
      "velocity": 97,
      "chip": "ym2612"
    },
    {
      "channel": 3,
      "note": 57,
      "start": 29.6027,
      "duration": 0.1985,
      "velocity": 122,
      "chip": "ym2612"
    },
    {
      "channel": 4,
      "note": 54,
      "start": 29.6029,
      "duration": 0.2985,
      "velocity": 89,
      "chip": "ym2612"
    },
    {
      "channel": 5,
      "note": 92,
      "start": 29.6845,
      "duration": 0.017,
      "velocity": 92,
      "chip": "ym2612"
    },
    {
      "channel": 0,
      "note": 94,
      "start": 29.7006,
      "duration": 0.1998,
      "velocity": 92,
      "chip": "ym2612"
    },
    {
      "channel": 1,
      "note": 78,
      "start": 29.701,
      "duration": 0.0496,
      "velocity": 122,
      "chip": "ym2612"
    },
    {
      "channel": 5,
      "note": 94,
      "start": 29.7018,
      "duration": 0.1492,
      "velocity": 92,
      "chip": "ym2612"
    },
    {
      "channel": 1,
      "note": 66,
      "start": 29.801,
      "duration": 0.0997,
      "velocity": 122,
      "chip": "ym2612"
    },
    {
      "channel": 3,
      "note": 69,
      "start": 29.8024,
      "duration": 0.1988,
      "velocity": 127,
      "chip": "ym2612"
    },
    {
      "channel": 5,
      "note": 94,
      "start": 29.8845,
      "duration": 0.1997,
      "velocity": 92,
      "chip": "ym2612"
    },
    {
      "channel": 0,
      "note": 90,
      "start": 29.9006,
      "duration": 0.0998,
      "velocity": 92,
      "chip": "ym2612"
    },
    {
      "channel": 1,
      "note": 78,
      "start": 29.9012,
      "duration": 0.0494,
      "velocity": 122,
      "chip": "ym2612"
    },
    {
      "channel": 4,
      "note": 57,
      "start": 29.9029,
      "duration": 0.0997,
      "velocity": 122,
      "chip": "ym2612"
    },
    {
      "channel": 0,
      "note": 92,
      "start": 30.0006,
      "duration": 0.0498,
      "velocity": 92,
      "chip": "ym2612"
    },
    {
      "channel": 1,
      "note": 78,
      "start": 30.001,
      "duration": 0.0496,
      "velocity": 122,
      "chip": "ym2612"
    },
    {
      "channel": 2,
      "note": 54,
      "start": 30.0012,
      "duration": 0.1999,
      "velocity": 97,
      "chip": "ym2612"
    },
    {
      "channel": 3,
      "note": 69,
      "start": 30.0026,
      "duration": 0.0987,
      "velocity": 127,
      "chip": "ym2612"
    },
    {
      "channel": 4,
      "note": 54,
      "start": 30.0039,
      "duration": 0.1989,
      "velocity": 89,
      "chip": "ym2612"
    },
    {
      "channel": 5,
      "note": 90,
      "start": 30.0844,
      "duration": 0.0999,
      "velocity": 92,
      "chip": "ym2612"
    },
    {
      "channel": 0,
      "note": 95,
      "start": 30.1007,
      "duration": 0.0163,
      "velocity": 92,
      "chip": "ym2612"
    },
    {
      "channel": 1,
      "note": 66,
      "start": 30.1011,
      "duration": 0.0494,
      "velocity": 122,
      "chip": "ym2612"
    },
    {
      "channel": 3,
      "note": 57,
      "start": 30.1027,
      "duration": 0.0988,
      "velocity": 122,
      "chip": "ym2612"
    },
    {
      "channel": 0,
      "note": 97,
      "start": 30.1174,
      "duration": 0.183,
      "velocity": 92,
      "chip": "ym2612"
    },
    {
      "channel": 5,
      "note": 92,
      "start": 30.1845,
      "duration": 0.0499,
      "velocity": 92,
      "chip": "ym2612"
    },
    {
      "channel": 1,
      "note": 73,
      "start": 30.201,
      "duration": 0.0998,
      "velocity": 122,
      "chip": "ym2612"
    },
    {
      "channel": 2,
      "note": 49,
      "start": 30.2015,
      "duration": 0.0998,
      "velocity": 97,
      "chip": "ym2612"
    },
    {
      "channel": 3,
      "note": 69,
      "start": 30.2028,
      "duration": 0.1988,
      "velocity": 127,
      "chip": "ym2612"
    },
    {
      "channel": 4,
      "note": 57,
      "start": 30.2043,
      "duration": 0.1987,
      "velocity": 122,
      "chip": "ym2612"
    },
    {
      "channel": 5,
      "note": 95,
      "start": 30.2847,
      "duration": 0.0173,
      "velocity": 92,
      "chip": "ym2612"
    },
    {
      "channel": 0,
      "note": 94,
      "start": 30.3007,
      "duration": 0.0997,
      "velocity": 92,
      "chip": "ym2612"
    },
    {
      "channel": 1,
      "note": 78,
      "start": 30.3012,
      "duration": 0.0493,
      "velocity": 122,
      "chip": "ym2612"
    },
    {
      "channel": 2,
      "note": 52,
      "start": 30.3016,
      "duration": 0.0997,
      "velocity": 97,
      "chip": "ym2612"
    },
    {
      "channel": 5,
      "note": 97,
      "start": 30.3022,
      "duration": 0.1821,
      "velocity": 92,
      "chip": "ym2612"
    },
    {
      "channel": 0,
      "note": 92,
      "start": 30.4007,
      "duration": 0.0663,
      "velocity": 92,
      "chip": "ym2612"
    },
    {
      "channel": 1,
      "note": 73,
      "start": 30.4012,
      "duration": 0.0993,
      "velocity": 122,
      "chip": "ym2612"
    },
    {
      "channel": 2,
      "note": 54,
      "start": 30.4016,
      "duration": 0.0994,
      "velocity": 97,
      "chip": "ym2612"
    },
    {
      "channel": 3,
      "note": 57,
      "start": 30.403,
      "duration": 0.1986,
      "velocity": 122,
      "chip": "ym2612"
    },
    {
      "channel": 4,
      "note": 54,
      "start": 30.4044,
      "duration": 0.2969,
      "velocity": 89,
      "chip": "ym2612"
    },
    {
      "channel": 0,
      "note": 93,
      "start": 30.4673,
      "duration": 0.0664,
      "velocity": 92,
      "chip": "ym2612"
    },
    {
      "channel": 5,
      "note": 94,
      "start": 30.4847,
      "duration": 0.0995,
      "velocity": 92,
      "chip": "ym2612"
    },
    {
      "channel": 1,
      "note": 78,
      "start": 30.501,
      "duration": 0.0496,
      "velocity": 122,
      "chip": "ym2612"
    },
    {
      "channel": 0,
      "note": 92,
      "start": 30.5339,
      "duration": 0.0665,
      "velocity": 92,
      "chip": "ym2612"
    },
    {
      "channel": 5,
      "note": 92,
      "start": 30.5845,
      "duration": 0.0665,
      "velocity": 92,
      "chip": "ym2612"
    },
    {
      "channel": 0,
      "note": 90,
      "start": 30.6007,
      "duration": 0.1997,
      "velocity": 92,
      "chip": "ym2612"
    },
    {
      "channel": 1,
      "note": 64,
      "start": 30.6012,
      "duration": 0.0993,
      "velocity": 122,
      "chip": "ym2612"
    },
    {
      "channel": 2,
      "note": 52,
      "start": 30.6015,
      "duration": 0.1999,
      "velocity": 97,
      "chip": "ym2612"
    },
    {
      "channel": 3,
      "note": 69,
      "start": 30.6028,
      "duration": 0.199,
      "velocity": 127,
      "chip": "ym2612"
    },
    {
      "channel": 5,
      "note": 93,
      "start": 30.6513,
      "duration": 0.0663,
      "velocity": 92,
      "chip": "ym2612"
    },
    {
      "channel": 1,
      "note": 78,
      "start": 30.701,
      "duration": 0.0496,
      "velocity": 122,
      "chip": "ym2612"
    },
    {
      "channel": 4,
      "note": 57,
      "start": 30.7028,
      "duration": 0.1004,
      "velocity": 122,
      "chip": "ym2612"
    },
    {
      "channel": 5,
      "note": 92,
      "start": 30.7179,
      "duration": 0.0663,
      "velocity": 92,
      "chip": "ym2612"
    },
    {
      "channel": 5,
      "note": 90,
      "start": 30.7846,
      "duration": 0.1996,
      "velocity": 92,
      "chip": "ym2612"
    },
    {
      "channel": 0,
      "note": 92,
      "start": 30.8008,
      "duration": 0.0996,
      "velocity": 92,
      "chip": "ym2612"
    },
    {
      "channel": 1,
      "note": 66,
      "start": 30.8014,
      "duration": 0.0994,
      "velocity": 122,
      "chip": "ym2612"
    },
    {
      "channel": 2,
      "note": 54,
      "start": 30.8018,
      "duration": 0.1993,
      "velocity": 97,
      "chip": "ym2612"
    },
    {
      "channel": 3,
      "note": 69,
      "start": 30.8032,
      "duration": 0.0982,
      "velocity": 127,
      "chip": "ym2612"
    },
    {
      "channel": 4,
      "note": 54,
      "start": 30.8046,
      "duration": 0.3981,
      "velocity": 89,
      "chip": "ym2612"
    },
    {
      "channel": 0,
      "note": 90,
      "start": 30.9007,
      "duration": 0.0497,
      "velocity": 92,
      "chip": "ym2612"
    },
    {
      "channel": 1,
      "note": 78,
      "start": 30.9012,
      "duration": 0.0493,
      "velocity": 122,
      "chip": "ym2612"
    },
    {
      "channel": 3,
      "note": 57,
      "start": 30.9029,
      "duration": 0.0983,
      "velocity": 122,
      "chip": "ym2612"
    },
    {
      "channel": 5,
      "note": 92,
      "start": 30.9846,
      "duration": 0.0995,
      "velocity": 92,
      "chip": "ym2612"
    },
    {
      "channel": 0,
      "note": 88,
      "start": 31.0006,
      "duration": 0.0498,
      "velocity": 92,
      "chip": "ym2612"
    },
    {
      "channel": 1,
      "note": 78,
      "start": 31.001,
      "duration": 0.0495,
      "velocity": 122,
      "chip": "ym2612"
    },
    {
      "channel": 3,
      "note": 69,
      "start": 31.0025,
      "duration": 0.1988,
      "velocity": 127,
      "chip": "ym2612"
    },
    {
      "channel": 5,
      "note": 90,
      "start": 31.0844,
      "duration": 0.0499,
      "velocity": 92,
      "chip": "ym2612"
    },
    {
      "channel": 0,
      "note": 92,
      "start": 31.1007,
      "duration": 0.0997,
      "velocity": 92,
      "chip": "ym2612"
    },
    {
      "channel": 1,
      "note": 66,
      "start": 31.1012,
      "duration": 0.0993,
      "velocity": 122,
      "chip": "ym2612"
    },
    {
      "channel": 5,
      "note": 88,
      "start": 31.1846,
      "duration": 0.0497,
      "velocity": 92,
      "chip": "ym2612"
    },
    {
      "channel": 1,
      "note": 78,
      "start": 31.201,
      "duration": 0.0494,
      "velocity": 122,
      "chip": "ym2612"
    },
    {
      "channel": 2,
      "note": 54,
      "start": 31.2013,
      "duration": 0.2,
      "velocity": 97,
      "chip": "ym2612"
    },
    {
      "channel": 3,
      "note": 57,
      "start": 31.2027,
      "duration": 0.1988,
      "velocity": 122,
      "chip": "ym2612"
    },
    {
      "channel": 4,
      "note": 54,
      "start": 31.203,
      "duration": 0.2985,
      "velocity": 89,
      "chip": "ym2612"
    },
    {
      "channel": 5,
      "note": 92,
      "start": 31.2845,
      "duration": 0.0997,
      "velocity": 92,
      "chip": "ym2612"
    },
    {
      "channel": 0,
      "note": 76,
      "start": 31.3007,
      "duration": 0.0497,
      "velocity": 92,
      "chip": "ym2612"
    },
    {
      "channel": 1,
      "note": 78,
      "start": 31.301,
      "duration": 0.0496,
      "velocity": 122,
      "chip": "ym2612"
    },
    {
      "channel": 0,
      "note": 83,
      "start": 31.4007,
      "duration": 0.0997,
      "velocity": 92,
      "chip": "ym2612"
    },
    {
      "channel": 1,
      "note": 66,
      "start": 31.4012,
      "duration": 0.0995,
      "velocity": 122,
      "chip": "ym2612"
    },
    {
      "channel": 3,
      "note": 69,
      "start": 31.4027,
      "duration": 0.1987,
      "velocity": 127,
      "chip": "ym2612"
    },
    {
      "channel": 5,
      "note": 76,
      "start": 31.4846,
      "duration": 0.0496,
      "velocity": 92,
      "chip": "ym2612"
    },
    {
      "channel": 0,
      "note": 76,
      "start": 31.5007,
      "duration": 0.0497,
      "velocity": 92,
      "chip": "ym2612"
    },
    {
      "channel": 1,
      "note": 78,
      "start": 31.5012,
      "duration": 0.0493,
      "velocity": 122,
      "chip": "ym2612"
    },
    {
      "channel": 4,
      "note": 57,
      "start": 31.503,
      "duration": 0.0997,
      "velocity": 122,
      "chip": "ym2612"
    },
    {
      "channel": 5,
      "note": 83,
      "start": 31.5844,
      "duration": 0.0999,
      "velocity": 92,
      "chip": "ym2612"
    },
    {
      "channel": 0,
      "note": 86,
      "start": 31.6007,
      "duration": 0.0163,
      "velocity": 92,
      "chip": "ym2612"
    },
    {
      "channel": 1,
      "note": 78,
      "start": 31.601,
      "duration": 0.0495,
      "velocity": 122,
      "chip": "ym2612"
    },
    {
      "channel": 2,
      "note": 54,
      "start": 31.6013,
      "duration": 0.2001,
      "velocity": 97,
      "chip": "ym2612"
    },
    {
      "channel": 3,
      "note": 69,
      "start": 31.6026,
      "duration": 0.0987,
      "velocity": 127,
      "chip": "ym2612"
    },
    {
      "channel": 4,
      "note": 54,
      "start": 31.604,
      "duration": 0.1992,
      "velocity": 89,
      "chip": "ym2612"
    },
    {
      "channel": 0,
      "note": 88,
      "start": 31.6173,
      "duration": 0.0831,
      "velocity": 92,
      "chip": "ym2612"
    },
    {
      "channel": 5,
      "note": 76,
      "start": 31.6846,
      "duration": 0.0498,
      "velocity": 92,
      "chip": "ym2612"
    },
    {
      "channel": 0,
      "note": 76,
      "start": 31.7007,
      "duration": 0.0497,
      "velocity": 92,
      "chip": "ym2612"
    },
    {
      "channel": 1,
      "note": 66,
      "start": 31.7011,
      "duration": 0.0494,
      "velocity": 122,
      "chip": "ym2612"
    },
    {
      "channel": 3,
      "note": 57,
      "start": 31.7027,
      "duration": 0.0991,
      "velocity": 122,
      "chip": "ym2612"
    },
    {
      "channel": 5,
      "note": 86,
      "start": 31.7845,
      "duration": 0.0202,
      "velocity": 92,
      "chip": "ym2612"
    },
    {
      "channel": 0,
      "note": 92,
      "start": 31.8008,
      "duration": 0.0996,
      "velocity": 92,
      "chip": "ym2612"
    },
    {
      "channel": 1,
      "note": 73,
      "start": 31.8013,
      "duration": 0.0995,
      "velocity": 122,
      "chip": "ym2612"
    },
    {
      "channel": 2,
      "note": 49,
      "start": 31.8018,
      "duration": 0.0996,
      "velocity": 97,
      "chip": "ym2612"
    },
    {
      "channel": 3,
      "note": 69,
      "start": 31.8031,
      "duration": 0.1985,
      "velocity": 127,
      "chip": "ym2612"
    },
    {
      "channel": 4,
      "note": 57,
      "start": 31.8046,
      "duration": 0.1984,
      "velocity": 122,
      "chip": "ym2612"
    },
    {
      "channel": 5,
      "note": 88,
      "start": 31.805,
      "duration": 0.0794,
      "velocity": 92,
      "chip": "ym2612"
    },
    {
      "channel": 5,
      "note": 76,
      "start": 31.8847,
      "duration": 0.0497,
      "velocity": 92,
      "chip": "ym2612"
    },
    {
      "channel": 0,
      "note": 76,
      "start": 31.9008,
      "duration": 0.0496,
      "velocity": 92,
      "chip": "ym2612"
    },
    {
      "channel": 1,
      "note": 78,
      "start": 31.9013,
      "duration": 0.0492,
      "velocity": 122,
      "chip": "ym2612"
    },
    {
      "channel": 2,
      "note": 52,
      "start": 31.9017,
      "duration": 0.0996,
      "velocity": 97,
      "chip": "ym2612"
    },
    {
      "channel": 5,
      "note": 92,
      "start": 31.9846,
      "duration": 0.0998,
      "velocity": 92,
      "chip": "ym2612"
    },
    {
      "channel": 0,
      "note": 90,
      "start": 32.0007,
      "duration": 0.0997,
      "velocity": 92,
      "chip": "ym2612"
    },
    {
      "channel": 1,
      "note": 73,
      "start": 32.0012,
      "duration": 0.0995,
      "velocity": 122,
      "chip": "ym2612"
    },
    {
      "channel": 2,
      "note": 54,
      "start": 32.0016,
      "duration": 0.0997,
      "velocity": 97,
      "chip": "ym2612"
    },
    {
      "channel": 3,
      "note": 57,
      "start": 32.003,
      "duration": 0.1985,
      "velocity": 122,
      "chip": "ym2612"
    },
    {
      "channel": 4,
      "note": 54,
      "start": 32.0044,
      "duration": 0.1984,
      "velocity": 89,
      "chip": "ym2612"
    },
    {
      "channel": 5,
      "note": 76,
      "start": 32.0848,
      "duration": 0.0495,
      "velocity": 92,
      "chip": "ym2612"
    },
    {
      "channel": 0,
      "note": 88,
      "start": 32.1006,
      "duration": 0.0998,
      "velocity": 92,
      "chip": "ym2612"
    },
    {
      "channel": 1,
      "note": 78,
      "start": 32.1012,
      "duration": 0.0493,
      "velocity": 122,
      "chip": "ym2612"
    },
    {
      "channel": 5,
      "note": 90,
      "start": 32.1845,
      "duration": 0.0999,
      "velocity": 92,
      "chip": "ym2612"
    },
    {
      "channel": 0,
      "note": 80,
      "start": 32.2006,
      "duration": 0.1998,
      "velocity": 92,
      "chip": "ym2612"
    },
    {
      "channel": 1,
      "note": 64,
      "start": 32.2012,
      "duration": 0.0994,
      "velocity": 122,
      "chip": "ym2612"
    },
    {
      "channel": 2,
      "note": 52,
      "start": 32.2015,
      "duration": 0.2,
      "velocity": 97,
      "chip": "ym2612"
    },
    {
      "channel": 3,
      "note": 69,
      "start": 32.2027,
      "duration": 0.1991,
      "velocity": 127,
      "chip": "ym2612"
    },
    {
      "channel": 4,
      "note": 54,
      "start": 32.2031,
      "duration": 0.0982,
      "velocity": 89,
      "chip": "ym2612"
    },
    {
      "channel": 5,
      "note": 88,
      "start": 32.2847,
      "duration": 0.0996,
      "velocity": 92,
      "chip": "ym2612"
    },
    {
      "channel": 1,
      "note": 78,
      "start": 32.301,
      "duration": 0.0496,
      "velocity": 122,
      "chip": "ym2612"
    },
    {
      "channel": 4,
      "note": 57,
      "start": 32.3028,
      "duration": 0.1004,
      "velocity": 122,
      "chip": "ym2612"
    },
    {
      "channel": 5,
      "note": 80,
      "start": 32.3845,
      "duration": 0.1997,
      "velocity": 92,
      "chip": "ym2612"
    },
    {
      "channel": 0,
      "note": 82,
      "start": 32.4008,
      "duration": 0.0996,
      "velocity": 92,
      "chip": "ym2612"
    },
    {
      "channel": 1,
      "note": 66,
      "start": 32.4014,
      "duration": 0.0994,
      "velocity": 122,
      "chip": "ym2612"
    },
    {
      "channel": 2,
      "note": 54,
      "start": 32.4018,
      "duration": 0.1992,
      "velocity": 97,
      "chip": "ym2612"
    },
    {
      "channel": 3,
      "note": 69,
      "start": 32.4032,
      "duration": 0.0982,
      "velocity": 127,
      "chip": "ym2612"
    },
    {
      "channel": 4,
      "note": 54,
      "start": 32.4046,
      "duration": 0.3982,
      "velocity": 89,
      "chip": "ym2612"
    },
    {
      "channel": 0,
      "note": 78,
      "start": 32.5007,
      "duration": 0.0497,
      "velocity": 92,
      "chip": "ym2612"
    },
    {
      "channel": 1,
      "note": 78,
      "start": 32.5012,
      "duration": 0.0493,
      "velocity": 122,
      "chip": "ym2612"
    },
    {
      "channel": 3,
      "note": 57,
      "start": 32.5029,
      "duration": 0.0983,
      "velocity": 122,
      "chip": "ym2612"
    },
    {
      "channel": 5,
      "note": 82,
      "start": 32.5846,
      "duration": 0.0995,
      "velocity": 92,
      "chip": "ym2612"
    },
    {
      "channel": 0,
      "note": 82,
      "start": 32.6006,
      "duration": 0.0498,
      "velocity": 92,
      "chip": "ym2612"
    },
    {
      "channel": 1,
      "note": 78,
      "start": 32.6009,
      "duration": 0.0496,
      "velocity": 122,
      "chip": "ym2612"
    },
    {
      "channel": 3,
      "note": 69,
      "start": 32.6024,
      "duration": 0.199,
      "velocity": 127,
      "chip": "ym2612"
    },
    {
      "channel": 5,
      "note": 78,
      "start": 32.6844,
      "duration": 0.0499,
      "velocity": 92,
      "chip": "ym2612"
    },
    {
      "channel": 0,
      "note": 88,
      "start": 32.7006,
      "duration": 0.0165,
      "velocity": 92,
      "chip": "ym2612"
    },
    {
      "channel": 1,
      "note": 66,
      "start": 32.7012,
      "duration": 0.0994,
      "velocity": 122,
      "chip": "ym2612"
    },
    {
      "channel": 0,
      "note": 90,
      "start": 32.7174,
      "duration": 0.083,
      "velocity": 92,
      "chip": "ym2612"
    },
    {
      "channel": 5,
      "note": 82,
      "start": 32.7845,
      "duration": 0.0498,
      "velocity": 92,
      "chip": "ym2612"
    },
    {
      "channel": 1,
      "note": 78,
      "start": 32.8011,
      "duration": 0.0493,
      "velocity": 122,
      "chip": "ym2612"
    },
    {
      "channel": 2,
      "note": 54,
      "start": 32.8013,
      "duration": 0.1999,
      "velocity": 97,
      "chip": "ym2612"
    },
    {
      "channel": 3,
      "note": 57,
      "start": 32.8027,
      "duration": 0.1987,
      "velocity": 122,
      "chip": "ym2612"
    },
    {
      "channel": 4,
      "note": 54,
      "start": 32.8031,
      "duration": 0.2983,
      "velocity": 89,
      "chip": "ym2612"
    },
    {
      "channel": 5,
      "note": 88,
      "start": 32.8844,
      "duration": 0.017,
      "velocity": 92,
      "chip": "ym2612"
    },
    {
      "channel": 0,
      "note": 81,
      "start": 32.9006,
      "duration": 0.0998,
      "velocity": 92,
      "chip": "ym2612"
    },
    {
      "channel": 1,
      "note": 78,
      "start": 32.9009,
      "duration": 0.0496,
      "velocity": 122,
      "chip": "ym2612"
    },
    {
      "channel": 5,
      "note": 90,
      "start": 32.9017,
      "duration": 0.0826,
      "velocity": 92,
      "chip": "ym2612"
    },
    {
      "channel": 0,
      "note": 78,
      "start": 33.0007,
      "duration": 0.0497,
      "velocity": 92,
      "chip": "ym2612"
    },
    {
      "channel": 1,
      "note": 66,
      "start": 33.0012,
      "duration": 0.0994,
      "velocity": 122,
      "chip": "ym2612"
    },
    {
      "channel": 3,
      "note": 69,
      "start": 33.0027,
      "duration": 0.1987,
      "velocity": 127,
      "chip": "ym2612"
    },
    {
      "channel": 5,
      "note": 81,
      "start": 33.0844,
      "duration": 0.0997,
      "velocity": 92,
      "chip": "ym2612"
    },
    {
      "channel": 0,
      "note": 82,
      "start": 33.1006,
      "duration": 0.0498,
      "velocity": 92,
      "chip": "ym2612"
    },
    {
      "channel": 1,
      "note": 78,
      "start": 33.1011,
      "duration": 0.0494,
      "velocity": 122,
      "chip": "ym2612"
    },
    {
      "channel": 4,
      "note": 57,
      "start": 33.1029,
      "duration": 0.0998,
      "velocity": 122,
      "chip": "ym2612"
    },
    {
      "channel": 5,
      "note": 78,
      "start": 33.1844,
      "duration": 0.05,
      "velocity": 92,
      "chip": "ym2612"
    },
    {
      "channel": 0,
      "note": 88,
      "start": 33.2007,
      "duration": 0.0997,
      "velocity": 92,
      "chip": "ym2612"
    },
    {
      "channel": 1,
      "note": 78,
      "start": 33.201,
      "duration": 0.0495,
      "velocity": 122,
      "chip": "ym2612"
    },
    {
      "channel": 2,
      "note": 54,
      "start": 33.2013,
      "duration": 0.2,
      "velocity": 97,
      "chip": "ym2612"
    },
    {
      "channel": 3,
      "note": 69,
      "start": 33.2026,
      "duration": 0.0987,
      "velocity": 127,
      "chip": "ym2612"
    },
    {
      "channel": 4,
      "note": 54,
      "start": 33.204,
      "duration": 0.199,
      "velocity": 89,
      "chip": "ym2612"
    },
    {
      "channel": 5,
      "note": 82,
      "start": 33.2845,
      "duration": 0.0499,
      "velocity": 92,
      "chip": "ym2612"
    },
    {
      "channel": 0,
      "note": 87,
      "start": 33.3007,
      "duration": 0.0497,
      "velocity": 92,
      "chip": "ym2612"
    },
    {
      "channel": 1,
      "note": 66,
      "start": 33.3012,
      "duration": 0.0494,
      "velocity": 122,
      "chip": "ym2612"
    },
    {
      "channel": 3,
      "note": 57,
      "start": 33.3028,
      "duration": 0.0988,
      "velocity": 122,
      "chip": "ym2612"
    },
    {
      "channel": 5,
      "note": 88,
      "start": 33.3845,
      "duration": 0.0998,
      "velocity": 92,
      "chip": "ym2612"
    },
    {
      "channel": 0,
      "note": 88,
      "start": 33.4006,
      "duration": 0.0498,
      "velocity": 92,
      "chip": "ym2612"
    },
    {
      "channel": 1,
      "note": 73,
      "start": 33.4012,
      "duration": 0.0995,
      "velocity": 122,
      "chip": "ym2612"
    },
    {
      "channel": 2,
      "note": 49,
      "start": 33.4016,
      "duration": 0.0996,
      "velocity": 97,
      "chip": "ym2612"
    },
    {
      "channel": 3,
      "note": 69,
      "start": 33.4029,
      "duration": 0.1985,
      "velocity": 127,
      "chip": "ym2612"
    },
    {
      "channel": 4,
      "note": 57,
      "start": 33.4045,
      "duration": 0.1983,
      "velocity": 122,
      "chip": "ym2612"
    },
    {
      "channel": 5,
      "note": 87,
      "start": 33.4846,
      "duration": 0.0498,
      "velocity": 92,
      "chip": "ym2612"
    },
    {
      "channel": 0,
      "note": 92,
      "start": 33.5006,
      "duration": 0.0165,
      "velocity": 92,
      "chip": "ym2612"
    },
    {
      "channel": 1,
      "note": 78,
      "start": 33.5012,
      "duration": 0.0494,
      "velocity": 122,
      "chip": "ym2612"
    },
    {
      "channel": 2,
      "note": 52,
      "start": 33.5015,
      "duration": 0.0995,
      "velocity": 97,
      "chip": "ym2612"
    },
    {
      "channel": 0,
      "note": 93,
      "start": 33.5174,
      "duration": 0.183,
      "velocity": 92,
      "chip": "ym2612"
    },
    {
      "channel": 5,
      "note": 88,
      "start": 33.5844,
      "duration": 0.0499,
      "velocity": 92,
      "chip": "ym2612"
    },
    {
      "channel": 1,
      "note": 73,
      "start": 33.601,
      "duration": 0.0998,
      "velocity": 122,
      "chip": "ym2612"
    },
    {
      "channel": 2,
      "note": 54,
      "start": 33.6013,
      "duration": 0.0999,
      "velocity": 97,
      "chip": "ym2612"
    },
    {
      "channel": 3,
      "note": 57,
      "start": 33.6027,
      "duration": 0.1988,
      "velocity": 122,
      "chip": "ym2612"
    },
    {
      "channel": 4,
      "note": 54,
      "start": 33.6041,
      "duration": 0.2974,
      "velocity": 89,
      "chip": "ym2612"
    },
    {
      "channel": 5,
      "note": 92,
      "start": 33.6846,
      "duration": 0.0172,
      "velocity": 92,
      "chip": "ym2612"
    },
    {
      "channel": 0,
      "note": 92,
      "start": 33.7007,
      "duration": 0.0997,
      "velocity": 92,
      "chip": "ym2612"
    },
    {
      "channel": 1,
      "note": 78,
      "start": 33.7012,
      "duration": 0.0493,
      "velocity": 122,
      "chip": "ym2612"
    },
    {
      "channel": 5,
      "note": 93,
      "start": 33.7021,
      "duration": 0.1822,
      "velocity": 92,
      "chip": "ym2612"
    },
    {
      "channel": 0,
      "note": 90,
      "start": 33.8006,
      "duration": 0.0498,
      "velocity": 92,
      "chip": "ym2612"
    },
    {
      "channel": 1,
      "note": 64,
      "start": 33.8012,
      "duration": 0.0995,
      "velocity": 122,
      "chip": "ym2612"
    },
    {
      "channel": 2,
      "note": 52,
      "start": 33.8015,
      "duration": 0.2001,
      "velocity": 97,
      "chip": "ym2612"
    },
    {
      "channel": 3,
      "note": 69,
      "start": 33.8027,
      "duration": 0.199,
      "velocity": 127,
      "chip": "ym2612"
    },
    {
      "channel": 5,
      "note": 92,
      "start": 33.8846,
      "duration": 0.0995,
      "velocity": 92,
      "chip": "ym2612"
    },
    {
      "channel": 0,
      "note": 88,
      "start": 33.9006,
      "duration": 0.0498,
      "velocity": 92,
      "chip": "ym2612"
    },
    {
      "channel": 1,
      "note": 78,
      "start": 33.9012,
      "duration": 0.0493,
      "velocity": 122,
      "chip": "ym2612"
    },
    {
      "channel": 4,
      "note": 57,
      "start": 33.9031,
      "duration": 0.1002,
      "velocity": 122,
      "chip": "ym2612"
    },
    {
      "channel": 5,
      "note": 90,
      "start": 33.9844,
      "duration": 0.0499,
      "velocity": 92,
      "chip": "ym2612"
    },
    {
      "channel": 0,
      "note": 80,
      "start": 34.0008,
      "duration": 0.0996,
      "velocity": 92,
      "chip": "ym2612"
    },
    {
      "channel": 1,
      "note": 66,
      "start": 34.0015,
      "duration": 0.0993,
      "velocity": 122,
      "chip": "ym2612"
    },
    {
      "channel": 3,
      "note": 57,
      "start": 34.0032,
      "duration": 0.3979,
      "velocity": 122,
      "chip": "ym2612"
    },
    {
      "channel": 4,
      "note": 54,
      "start": 34.0046,
      "duration": 0.3966,
      "velocity": 89,
      "chip": "ym2612"
    },
    {
      "channel": 5,
      "note": 88,
      "start": 34.0846,
      "duration": 0.0497,
      "velocity": 92,
      "chip": "ym2612"
    },
    {
      "channel": 0,
      "note": 83,
      "start": 34.1007,
      "duration": 0.0497,
      "velocity": 92,
      "chip": "ym2612"
    },
    {
      "channel": 1,
      "note": 78,
      "start": 34.1012,
      "duration": 0.0493,
      "velocity": 122,
      "chip": "ym2612"
    },
    {
      "channel": 5,
      "note": 80,
      "start": 34.1845,
      "duration": 0.0996,
      "velocity": 92,
      "chip": "ym2612"
    },
    {
      "channel": 0,
      "note": 86,
      "start": 34.2006,
      "duration": 0.0498,
      "velocity": 92,
      "chip": "ym2612"
    },
    {
      "channel": 1,
      "note": 78,
      "start": 34.201,
      "duration": 0.0495,
      "velocity": 122,
      "chip": "ym2612"
    },
    {
      "channel": 5,
      "note": 83,
      "start": 34.2844,
      "duration": 0.0499,
      "velocity": 92,
      "chip": "ym2612"
    },
    {
      "channel": 0,
      "note": 88,
      "start": 34.3008,
      "duration": 0.0996,
      "velocity": 92,
      "chip": "ym2612"
    },
    {
      "channel": 1,
      "note": 66,
      "start": 34.3013,
      "duration": 0.0992,
      "velocity": 122,
      "chip": "ym2612"
    },
    {
      "channel": 5,
      "note": 86,
      "start": 34.3846,
      "duration": 0.0494,
      "velocity": 92,
      "chip": "ym2612"
    },
    {
      "channel": 1,
      "note": 78,
      "start": 34.401,
      "duration": 0.0494,
      "velocity": 122,
      "chip": "ym2612"
    },
    {
      "channel": 5,
      "note": 88,
      "start": 34.4842,
      "duration": 0.0997,
      "velocity": 92,
      "chip": "ym2612"
    },
    {
      "channel": 0,
      "note": 90,
      "start": 34.5007,
      "duration": 0.0163,
      "velocity": 92,
      "chip": "ym2612"
    },
    {
      "channel": 1,
      "note": 78,
      "start": 34.5011,
      "duration": 0.0494,
      "velocity": 122,
      "chip": "ym2612"
    },
    {
      "channel": 0,
      "note": 91,
      "start": 34.5174,
      "duration": 0.183,
      "velocity": 92,
      "chip": "ym2612"
    },
    {
      "channel": 1,
      "note": 66,
      "start": 34.601,
      "duration": 0.0998,
      "velocity": 122,
      "chip": "ym2612"
    },
    {
      "channel": 5,
      "note": 90,
      "start": 34.6844,
      "duration": 0.0171,
      "velocity": 92,
      "chip": "ym2612"
    },
    {
      "channel": 0,
      "note": 90,
      "start": 34.7007,
      "duration": 0.0163,
      "velocity": 92,
      "chip": "ym2612"
    },
    {
      "channel": 1,
      "note": 78,
      "start": 34.7013,
      "duration": 0.0493,
      "velocity": 122,
      "chip": "ym2612"
    },
    {
      "channel": 5,
      "note": 91,
      "start": 34.7017,
      "duration": 0.1822,
      "velocity": 92,
      "chip": "ym2612"
    },
    {
      "channel": 0,
      "note": 91,
      "start": 34.7174,
      "duration": 0.183,
      "velocity": 92,
      "chip": "ym2612"
    },
    {
      "channel": 1,
      "note": 78,
      "start": 34.8008,
      "duration": 0.0498,
      "velocity": 122,
      "chip": "ym2612"
    },
    {
      "channel": 5,
      "note": 90,
      "start": 34.8843,
      "duration": 0.0169,
      "velocity": 92,
      "chip": "ym2612"
    },
    {
      "channel": 0,
      "note": 90,
      "start": 34.9006,
      "duration": 0.0998,
      "velocity": 92,
      "chip": "ym2612"
    },
    {
      "channel": 1,
      "note": 66,
      "start": 34.9011,
      "duration": 0.0494,
      "velocity": 122,
      "chip": "ym2612"
    },
    {
      "channel": 5,
      "note": 91,
      "start": 34.9015,
      "duration": 0.1826,
      "velocity": 92,
      "chip": "ym2612"
    },
    {
      "channel": 0,
      "note": 88,
      "start": 35.0007,
      "duration": 0.0497,
      "velocity": 92,
      "chip": "ym2612"
    },
    {
      "channel": 1,
      "note": 69,
      "start": 35.0013,
      "duration": 0.0994,
      "velocity": 122,
      "chip": "ym2612"
    },
    {
      "channel": 2,
      "note": 52,
      "start": 35.0015,
      "duration": 0.1999,
      "velocity": 97,
      "chip": "ym2612"
    },
    {
      "channel": 3,
      "note": 45,
      "start": 35.0031,
      "duration": 0.0143,
      "velocity": 118,
      "chip": "ym2612"
    },
    {
      "channel": 3,
      "note": 45,
      "start": 35.0176,
      "duration": 0.184,
      "velocity": 118,
      "chip": "ym2612"
    },
    {
      "channel": 5,
      "note": 90,
      "start": 35.0844,
      "duration": 0.0996,
      "velocity": 92,
      "chip": "ym2612"
    },
    {
      "channel": 0,
      "note": 83,
      "start": 35.1006,
      "duration": 0.0498,
      "velocity": 92,
      "chip": "ym2612"
    },
    {
      "channel": 1,
      "note": 78,
      "start": 35.1012,
      "duration": 0.0493,
      "velocity": 122,
      "chip": "ym2612"
    },
    {
      "channel": 5,
      "note": 88,
      "start": 35.1844,
      "duration": 0.0499,
      "velocity": 92,
      "chip": "ym2612"
    },
    {
      "channel": 0,
      "note": 76,
      "start": 35.2008,
      "duration": 0.0996,
      "velocity": 92,
      "chip": "ym2612"
    },
    {
      "channel": 1,
      "note": 69,
      "start": 35.2013,
      "duration": 0.0994,
      "velocity": 122,
      "chip": "ym2612"
    },
    {
      "channel": 2,
      "note": 53,
      "start": 35.2016,
      "duration": 0.0997,
      "velocity": 97,
      "chip": "ym2612"
    },
    {
      "channel": 4,
      "note": 54,
      "start": 35.2034,
      "duration": 0.1987,
      "velocity": 89,
      "chip": "ym2612"
    },
    {
      "channel": 5,
      "note": 83,
      "start": 35.2846,
      "duration": 0.0496,
      "velocity": 92,
      "chip": "ym2612"
    },
    {
      "channel": 0,
      "note": 80,
      "start": 35.3007,
      "duration": 0.0497,
      "velocity": 92,
      "chip": "ym2612"
    },
    {
      "channel": 1,
      "note": 78,
      "start": 35.3012,
      "duration": 0.0494,
      "velocity": 122,
      "chip": "ym2612"
    },
    {
      "channel": 5,
      "note": 76,
      "start": 35.3844,
      "duration": 0.0999,
      "velocity": 92,
      "chip": "ym2612"
    },
    {
      "channel": 0,
      "note": 90,
      "start": 35.4007,
      "duration": 0.2997,
      "velocity": 92,
      "chip": "ym2612"
    },
    {
      "channel": 1,
      "note": 54,
      "start": 35.4013,
      "duration": 0.0492,
      "velocity": 122,
      "chip": "ym2612"
    },
    {
      "channel": 2,
      "note": 54,
      "start": 35.4017,
      "duration": 0.3991,
      "velocity": 97,
      "chip": "ym2612"
    },
    {
      "channel": 3,
      "note": 57,
      "start": 35.4019,
      "duration": 0.199,
      "velocity": 122,
      "chip": "ym2612"
    },
    {
      "channel": 4,
      "note": 15,
      "start": 35.4033,
      "duration": 0.381,
      "velocity": 127,
      "chip": "ym2612"
    },
    {
      "channel": 5,
      "note": 80,
      "start": 35.4846,
      "duration": 0.0497,
      "velocity": 92,
      "chip": "ym2612"
    },
    {
      "channel": 1,
      "note": 54,
      "start": 35.5007,
      "duration": 0.0498,
      "velocity": 122,
      "chip": "ym2612"
    },
    {
      "channel": 5,
      "note": 90,
      "start": 35.5846,
      "duration": 0.2998,
      "velocity": 92,
      "chip": "ym2612"
    },
    {
      "channel": 1,
      "note": 54,
      "start": 35.6008,
      "duration": 1.5999,
      "velocity": 122,
      "chip": "ym2612"
    },
    {
      "channel": 4,
      "note": 81,
      "start": 35.7844,
      "duration": 0.0171,
      "velocity": 127,
      "chip": "ym2612"
    },
    {
      "channel": 0,
      "note": 90,
      "start": 35.8006,
      "duration": 0.0998,
      "velocity": 92,
      "chip": "ym2612"
    },
    {
      "channel": 2,
      "note": 54,
      "start": 35.8011,
      "duration": 0.1997,
      "velocity": 97,
      "chip": "ym2612"
    },
    {
      "channel": 3,
      "note": 57,
      "start": 35.8013,
      "duration": 0.1998,
      "velocity": 122,
      "chip": "ym2612"
    },
    {
      "channel": 4,
      "note": 54,
      "start": 35.8027,
      "duration": 0.3985,
      "velocity": 89,
      "chip": "ym2612"
    },
    {
      "channel": 5,
      "note": 90,
      "start": 35.9845,
      "duration": 0.0998,
      "velocity": 92,
      "chip": "ym2612"
    },
    {
      "channel": 0,
      "note": 92,
      "start": 36.0006,
      "duration": 0.0998,
      "velocity": 92,
      "chip": "ym2612"
    },
    {
      "channel": 2,
      "note": 54,
      "start": 36.001,
      "duration": 0.1998,
      "velocity": 97,
      "chip": "ym2612"
    },
    {
      "channel": 0,
      "note": 90,
      "start": 36.1007,
      "duration": 0.0497,
      "velocity": 92,
      "chip": "ym2612"
    },
    {
      "channel": 5,
      "note": 92,
      "start": 36.1844,
      "duration": 0.0998,
      "velocity": 92,
      "chip": "ym2612"
    },
    {
      "channel": 0,
      "note": 88,
      "start": 36.2006,
      "duration": 0.0498,
      "velocity": 92,
      "chip": "ym2612"
    },
    {
      "channel": 2,
      "note": 54,
      "start": 36.2012,
      "duration": 0.1998,
      "velocity": 97,
      "chip": "ym2612"
    },
    {
      "channel": 4,
      "note": 54,
      "start": 36.2015,
      "duration": 0.0658,
      "velocity": 89,
      "chip": "ym2612"
    },
    {
      "channel": 4,
      "note": 54,
      "start": 36.2676,
      "duration": 0.0665,
      "velocity": 89,
      "chip": "ym2612"
    },
    {
      "channel": 5,
      "note": 90,
      "start": 36.2845,
      "duration": 0.0499,
      "velocity": 92,
      "chip": "ym2612"
    },
    {
      "channel": 0,
      "note": 92,
      "start": 36.3008,
      "duration": 0.0996,
      "velocity": 92,
      "chip": "ym2612"
    },
    {
      "channel": 4,
      "note": 54,
      "start": 36.3344,
      "duration": 0.2671,
      "velocity": 89,
      "chip": "ym2612"
    },
    {
      "channel": 5,
      "note": 88,
      "start": 36.3846,
      "duration": 0.0498,
      "velocity": 92,
      "chip": "ym2612"
    },
    {
      "channel": 0,
      "note": 90,
      "start": 36.4007,
      "duration": 0.0497,
      "velocity": 92,
      "chip": "ym2612"
    },
    {
      "channel": 2,
      "note": 54,
      "start": 36.4012,
      "duration": 0.1998,
      "velocity": 97,
      "chip": "ym2612"
    },
    {
      "channel": 3,
      "note": 57,
      "start": 36.4015,
      "duration": 0.016,
      "velocity": 122,
      "chip": "ym2612"
    },
    {
      "channel": 3,
      "note": 45,
      "start": 36.4178,
      "duration": 0.3834,
      "velocity": 122,
      "chip": "ym2612"
    },
    {
      "channel": 5,
      "note": 92,
      "start": 36.4847,
      "duration": 0.0996,
      "velocity": 92,
      "chip": "ym2612"
    },
    {
      "channel": 0,
      "note": 88,
      "start": 36.5006,
      "duration": 0.0498,
      "velocity": 92,
      "chip": "ym2612"
    },
    {
      "channel": 5,
      "note": 90,
      "start": 36.5846,
      "duration": 0.0498,
      "velocity": 92,
      "chip": "ym2612"
    },
    {
      "channel": 0,
      "note": 86,
      "start": 36.6008,
      "duration": 0.0996,
      "velocity": 92,
      "chip": "ym2612"
    },
    {
      "channel": 2,
      "note": 54,
      "start": 36.6013,
      "duration": 0.1995,
      "velocity": 97,
      "chip": "ym2612"
    },
    {
      "channel": 4,
      "note": 54,
      "start": 36.6017,
      "duration": 0.4019,
      "velocity": 89,
      "chip": "ym2612"
    },
    {
      "channel": 5,
      "note": 88,
      "start": 36.6847,
      "duration": 0.0497,
      "velocity": 92,
      "chip": "ym2612"
    },
    {
      "channel": 0,
      "note": 85,
      "start": 36.7007,
      "duration": 0.0497,
      "velocity": 92,
      "chip": "ym2612"
    },
    {
      "channel": 5,
      "note": 86,
      "start": 36.7847,
      "duration": 0.0997,
      "velocity": 92,
      "chip": "ym2612"
    },
    {
      "channel": 0,
      "note": 78,
      "start": 36.8006,
      "duration": 0.1998,
      "velocity": 92,
      "chip": "ym2612"
    },
    {
      "channel": 2,
      "note": 54,
      "start": 36.8011,
      "duration": 0.2008,
      "velocity": 97,
      "chip": "ym2612"
    },
    {
      "channel": 3,
      "note": 69,
      "start": 36.8026,
      "duration": 0.0981,
      "velocity": 127,
      "chip": "ym2612"
    },
    {
      "channel": 5,
      "note": 85,
      "start": 36.8847,
      "duration": 0.0497,
      "velocity": 92,
      "chip": "ym2612"
    },
    {
      "channel": 3,
      "note": 69,
      "start": 36.9011,
      "duration": 0.1012,
      "velocity": 127,
      "chip": "ym2612"
    },
    {
      "channel": 5,
      "note": 78,
      "start": 36.9846,
      "duration": 0.1997,
      "velocity": 92,
      "chip": "ym2612"
    },
    {
      "channel": 0,
      "note": 75,
      "start": 37.0017,
      "duration": 0.0487,
      "velocity": 103,
      "chip": "ym2612"
    },
    {
      "channel": 2,
      "note": 54,
      "start": 37.0022,
      "duration": 0.1988,
      "velocity": 97,
      "chip": "ym2612"
    },
    {
      "channel": 3,
      "note": 69,
      "start": 37.0036,
      "duration": 0.1978,
      "velocity": 127,
      "chip": "ym2612"
    },
    {
      "channel": 4,
      "note": 54,
      "start": 37.0039,
      "duration": 0.1988,
      "velocity": 89,
      "chip": "ym2612"
    },
    {
      "channel": 0,
      "note": 78,
      "start": 37.1006,
      "duration": 0.0498,
      "velocity": 103,
      "chip": "ym2612"
    },
    {
      "channel": 5,
      "note": 75,
      "start": 37.1857,
      "duration": 0.0487,
      "velocity": 103,
      "chip": "ym2612"
    },
    {
      "channel": 0,
      "note": 76,
      "start": 37.2006,
      "duration": 0.0664,
      "velocity": 103,
      "chip": "ym2612"
    },
    {
      "channel": 1,
      "note": 56,
      "start": 37.201,
      "duration": 0.801,
      "velocity": 122,
      "chip": "ym2612"
    },
    {
      "channel": 2,
      "note": 64,
      "start": 37.2013,
      "duration": 0.0993,
      "velocity": 97,
      "chip": "ym2612"
    },
    {
      "channel": 3,
      "note": 69,
      "start": 37.2027,
      "duration": 0.1984,
      "velocity": 127,
      "chip": "ym2612"
    },
    {
      "channel": 4,
      "note": 54,
      "start": 37.203,
      "duration": 0.5985,
      "velocity": 89,
      "chip": "ym2612"
    },
    {
      "channel": 0,
      "note": 78,
      "start": 37.2673,
      "duration": 0.0665,
      "velocity": 103,
      "chip": "ym2612"
    },
    {
      "channel": 5,
      "note": 78,
      "start": 37.2846,
      "duration": 0.0498,
      "velocity": 103,
      "chip": "ym2612"
    },
    {
      "channel": 0,
      "note": 76,
      "start": 37.3339,
      "duration": 0.0665,
      "velocity": 103,
      "chip": "ym2612"
    },
    {
      "channel": 5,
      "note": 76,
      "start": 37.3846,
      "duration": 0.0665,
      "velocity": 103,
      "chip": "ym2612"
    },
    {
      "channel": 0,
      "note": 75,
      "start": 37.4006,
      "duration": 0.1498,
      "velocity": 103,
      "chip": "ym2612"
    },
    {
      "channel": 2,
      "note": 63,
      "start": 37.401,
      "duration": 0.0996,
      "velocity": 97,
      "chip": "ym2612"
    },
    {
      "channel": 3,
      "note": 69,
      "start": 37.4014,
      "duration": 0.1997,
      "velocity": 127,
      "chip": "ym2612"
    },
    {
      "channel": 5,
      "note": 78,
      "start": 37.4513,
      "duration": 0.0663,
      "velocity": 103,
      "chip": "ym2612"
    },
    {
      "channel": 5,
      "note": 76,
      "start": 37.5178,
      "duration": 0.0663,
      "velocity": 103,
      "chip": "ym2612"
    },
    {
      "channel": 5,
      "note": 75,
      "start": 37.5844,
      "duration": 0.1498,
      "velocity": 103,
      "chip": "ym2612"
    },
    {
      "channel": 0,
      "note": 76,
      "start": 37.6006,
      "duration": 0.0998,
      "velocity": 103,
      "chip": "ym2612"
    },
    {
      "channel": 2,
      "note": 64,
      "start": 37.601,
      "duration": 0.0997,
      "velocity": 97,
      "chip": "ym2612"
    },
    {
      "channel": 3,
      "note": 57,
      "start": 37.6024,
      "duration": 0.1987,
      "velocity": 122,
      "chip": "ym2612"
    },
    {
      "channel": 5,
      "note": 76,
      "start": 37.7844,
      "duration": 0.0999,
      "velocity": 103,
      "chip": "ym2612"
    },
    {
      "channel": 0,
      "note": 78,
      "start": 37.8006,
      "duration": 0.0998,
      "velocity": 103,
      "chip": "ym2612"
    },
    {
      "channel": 2,
      "note": 64,
      "start": 37.8009,
      "duration": 0.0499,
      "velocity": 97,
      "chip": "ym2612"
    },
    {
      "channel": 3,
      "note": 57,
      "start": 37.8014,
      "duration": 0.2009,
      "velocity": 122,
      "chip": "ym2612"
    },
    {
      "channel": 4,
      "note": 54,
      "start": 37.8017,
      "duration": 0.2009,
      "velocity": 89,
      "chip": "ym2612"
    },
    {
      "channel": 2,
      "note": 66,
      "start": 37.8508,
      "duration": 0.3498,
      "velocity": 97,
      "chip": "ym2612"
    },
    {
      "channel": 5,
      "note": 78,
      "start": 37.9845,
      "duration": 0.0998,
      "velocity": 103,
      "chip": "ym2612"
    },
    {
      "channel": 0,
      "note": 86,
      "start": 38.0019,
      "duration": 0.0152,
      "velocity": 92,
      "chip": "ym2612"
    },
    {
      "channel": 1,
      "note": 61,
      "start": 38.0021,
      "duration": 0.7997,
      "velocity": 122,
      "chip": "ym2612"
    },
    {
      "channel": 4,
      "note": 54,
      "start": 38.0029,
      "duration": 0.0981,
      "velocity": 89,
      "chip": "ym2612"
    },
    {
      "channel": 0,
      "note": 88,
      "start": 38.0174,
      "duration": 0.083,
      "velocity": 92,
      "chip": "ym2612"
    },
    {
      "channel": 0,
      "note": 83,
      "start": 38.1007,
      "duration": 0.0997,
      "velocity": 92,
      "chip": "ym2612"
    },
    {
      "channel": 4,
      "note": 54,
      "start": 38.1013,
      "duration": 0.5,
      "velocity": 89,
      "chip": "ym2612"
    },
    {
      "channel": 5,
      "note": 86,
      "start": 38.1858,
      "duration": 0.0157,
      "velocity": 92,
      "chip": "ym2612"
    },
    {
      "channel": 2,
      "note": 54,
      "start": 38.2009,
      "duration": 0.0999,
      "velocity": 97,
      "chip": "ym2612"
    },
    {
      "channel": 3,
      "note": 57,
      "start": 38.2012,
      "duration": 0.0997,
      "velocity": 122,
      "chip": "ym2612"
    },
    {
      "channel": 5,
      "note": 88,
      "start": 38.2018,
      "duration": 0.0825,
      "velocity": 92,
      "chip": "ym2612"
    },
    {
      "channel": 5,
      "note": 83,
      "start": 38.2846,
      "duration": 0.0997,
      "velocity": 92,
      "chip": "ym2612"
    },
    {
      "channel": 0,
      "note": 84,
      "start": 38.3006,
      "duration": 0.0998,
      "velocity": 92,
      "chip": "ym2612"
    },
    {
      "channel": 3,
      "note": 57,
      "start": 38.3013,
      "duration": 0.0998,
      "velocity": 122,
      "chip": "ym2612"
    },
    {
      "channel": 2,
      "note": 54,
      "start": 38.4008,
      "duration": 0.3835,
      "velocity": 97,
      "chip": "ym2612"
    },
    {
      "channel": 3,
      "note": 57,
      "start": 38.4013,
      "duration": 0.0996,
      "velocity": 122,
      "chip": "ym2612"
    },
    {
      "channel": 5,
      "note": 84,
      "start": 38.4845,
      "duration": 0.0999,
      "velocity": 92,
      "chip": "ym2612"
    },
    {
      "channel": 0,
      "note": 85,
      "start": 38.5006,
      "duration": 0.0998,
      "velocity": 92,
      "chip": "ym2612"
    },
    {
      "channel": 3,
      "note": 57,
      "start": 38.5013,
      "duration": 0.0997,
      "velocity": 122,
      "chip": "ym2612"
    },
    {
      "channel": 0,
      "note": 86,
      "start": 38.6007,
      "duration": 0.0163,
      "velocity": 92,
      "chip": "ym2612"
    },
    {
      "channel": 3,
      "note": 57,
      "start": 38.6012,
      "duration": 0.0996,
      "velocity": 122,
      "chip": "ym2612"
    },
    {
      "channel": 4,
      "note": 54,
      "start": 38.6015,
      "duration": 0.2026,
      "velocity": 89,
      "chip": "ym2612"
    },
    {
      "channel": 0,
      "note": 88,
      "start": 38.6173,
      "duration": 0.1831,
      "velocity": 92,
      "chip": "ym2612"
    },
    {
      "channel": 5,
      "note": 85,
      "start": 38.6846,
      "duration": 0.1,
      "velocity": 92,
      "chip": "ym2612"
    },
    {
      "channel": 3,
      "note": 57,
      "start": 38.7013,
      "duration": 0.1014,
      "velocity": 122,
      "chip": "ym2612"
    },
    {
      "channel": 2,
      "note": 58,
      "start": 38.7842,
      "duration": 0.0179,
      "velocity": 97,
      "chip": "ym2612"
    },
    {
      "channel": 5,
      "note": 86,
      "start": 38.7849,
      "duration": 0.0207,
      "velocity": 92,
      "chip": "ym2612"
    },
    {
      "channel": 0,
      "note": 78,
      "start": 38.8017,
      "duration": 0.0987,
      "velocity": 103,
      "chip": "ym2612"
    },
    {
      "channel": 1,
      "note": 62,
      "start": 38.802,
      "duration": 1.5998,
      "velocity": 122,
      "chip": "ym2612"
    },
    {
      "channel": 2,
      "note": 50,
      "start": 38.8026,
      "duration": 0.1982,
      "velocity": 97,
      "chip": "ym2612"
    },
    {
      "channel": 3,
      "note": 69,
      "start": 38.8041,
      "duration": 0.197,
      "velocity": 127,
      "chip": "ym2612"
    },
    {
      "channel": 4,
      "note": 57,
      "start": 38.8055,
      "duration": 0.196,
      "velocity": 122,
      "chip": "ym2612"
    },
    {
      "channel": 5,
      "note": 88,
      "start": 38.8058,
      "duration": 0.1784,
      "velocity": 92,
      "chip": "ym2612"
    },
    {
      "channel": 5,
      "note": 78,
      "start": 38.9856,
      "duration": 0.0987,
      "velocity": 103,
      "chip": "ym2612"
    },
    {
      "channel": 0,
      "note": 78,
      "start": 39.0006,
      "duration": 0.0998,
      "velocity": 103,
      "chip": "ym2612"
    },
    {
      "channel": 2,
      "note": 50,
      "start": 39.001,
      "duration": 0.2008,
      "velocity": 97,
      "chip": "ym2612"
    },
    {
      "channel": 3,
      "note": 69,
      "start": 39.0014,
      "duration": 0.2008,
      "velocity": 127,
      "chip": "ym2612"
    },
    {
      "channel": 4,
      "note": 54,
      "start": 39.0028,
      "duration": 0.1998,
      "velocity": 89,
      "chip": "ym2612"
    },
    {
      "channel": 5,
      "note": 78,
      "start": 39.1845,
      "duration": 0.0998,
      "velocity": 103,
      "chip": "ym2612"
    },
    {
      "channel": 2,
      "note": 50,
      "start": 39.2021,
      "duration": 0.1987,
      "velocity": 97,
      "chip": "ym2612"
    },
    {
      "channel": 3,
      "note": 69,
      "start": 39.2026,
      "duration": 0.1986,
      "velocity": 127,
      "chip": "ym2612"
    },
    {
      "channel": 4,
      "note": 57,
      "start": 39.204,
      "duration": 0.1975,
      "velocity": 122,
      "chip": "ym2612"
    },
    {
      "channel": 0,
      "note": 90,
      "start": 39.3006,
      "duration": 0.0498,
      "velocity": 92,
      "chip": "ym2612"
    },
    {
      "channel": 0,
      "note": 102,
      "start": 39.4006,
      "duration": 0.0998,
      "velocity": 92,
      "chip": "ym2612"
    },
    {
      "channel": 2,
      "note": 50,
      "start": 39.4011,
      "duration": 0.2008,
      "velocity": 97,
      "chip": "ym2612"
    },
    {
      "channel": 3,
      "note": 69,
      "start": 39.4015,
      "duration": 0.2008,
      "velocity": 127,
      "chip": "ym2612"
    },
    {
      "channel": 4,
      "note": 54,
      "start": 39.4028,
      "duration": 0.1999,
      "velocity": 89,
      "chip": "ym2612"
    },
    {
      "channel": 5,
      "note": 90,
      "start": 39.4846,
      "duration": 0.0498,
      "velocity": 92,
      "chip": "ym2612"
    },
    {
      "channel": 0,
      "note": 90,
      "start": 39.5006,
      "duration": 0.0498,
      "velocity": 92,
      "chip": "ym2612"
    },
    {
      "channel": 5,
      "note": 102,
      "start": 39.5845,
      "duration": 0.0999,
      "velocity": 92,
      "chip": "ym2612"
    },
    {
      "channel": 0,
      "note": 78,
      "start": 39.6017,
      "duration": 0.0987,
      "velocity": 103,
      "chip": "ym2612"
    },
    {
      "channel": 2,
      "note": 50,
      "start": 39.6022,
      "duration": 0.1985,
      "velocity": 97,
      "chip": "ym2612"
    },
    {
      "channel": 3,
      "note": 69,
      "start": 39.6026,
      "duration": 0.1985,
      "velocity": 127,
      "chip": "ym2612"
    },
    {
      "channel": 4,
      "note": 57,
      "start": 39.6041,
      "duration": 0.1974,
      "velocity": 122,
      "chip": "ym2612"
    },
    {
      "channel": 5,
      "note": 90,
      "start": 39.6846,
      "duration": 0.0497,
      "velocity": 92,
      "chip": "ym2612"
    },
    {
      "channel": 5,
      "note": 78,
      "start": 39.7856,
      "duration": 0.0987,
      "velocity": 103,
      "chip": "ym2612"
    },
    {
      "channel": 0,
      "note": 78,
      "start": 39.8006,
      "duration": 0.0998,
      "velocity": 103,
      "chip": "ym2612"
    },
    {
      "channel": 2,
      "note": 50,
      "start": 39.801,
      "duration": 0.2008,
      "velocity": 97,
      "chip": "ym2612"
    },
    {
      "channel": 3,
      "note": 69,
      "start": 39.8014,
      "duration": 0.2008,
      "velocity": 127,
      "chip": "ym2612"
    },
    {
      "channel": 4,
      "note": 54,
      "start": 39.8028,
      "duration": 0.1998,
      "velocity": 89,
      "chip": "ym2612"
    },
    {
      "channel": 5,
      "note": 78,
      "start": 39.9845,
      "duration": 0.0998,
      "velocity": 103,
      "chip": "ym2612"
    },
    {
      "channel": 2,
      "note": 50,
      "start": 40.0021,
      "duration": 0.1987,
      "velocity": 97,
      "chip": "ym2612"
    },
    {
      "channel": 3,
      "note": 69,
      "start": 40.0026,
      "duration": 0.1986,
      "velocity": 127,
      "chip": "ym2612"
    },
    {
      "channel": 4,
      "note": 57,
      "start": 40.004,
      "duration": 0.097,
      "velocity": 122,
      "chip": "ym2612"
    },
    {
      "channel": 0,
      "note": 90,
      "start": 40.1006,
      "duration": 0.0498,
      "velocity": 92,
      "chip": "ym2612"
    },
    {
      "channel": 4,
      "note": 57,
      "start": 40.1013,
      "duration": 0.1002,
      "velocity": 122,
      "chip": "ym2612"
    },
    {
      "channel": 0,
      "note": 102,
      "start": 40.2006,
      "duration": 0.0998,
      "velocity": 92,
      "chip": "ym2612"
    },
    {
      "channel": 2,
      "note": 50,
      "start": 40.2011,
      "duration": 0.2011,
      "velocity": 97,
      "chip": "ym2612"
    },
    {
      "channel": 3,
      "note": 69,
      "start": 40.2015,
      "duration": 0.2011,
      "velocity": 127,
      "chip": "ym2612"
    },
    {
      "channel": 4,
      "note": 54,
      "start": 40.2029,
      "duration": 0.2002,
      "velocity": 89,
      "chip": "ym2612"
    },
    {
      "channel": 5,
      "note": 90,
      "start": 40.2846,
      "duration": 0.0498,
      "velocity": 92,
      "chip": "ym2612"
    },
    {
      "channel": 0,
      "note": 90,
      "start": 40.3006,
      "duration": 0.0498,
      "velocity": 92,
      "chip": "ym2612"
    },
    {
      "channel": 5,
      "note": 102,
      "start": 40.3845,
      "duration": 0.0999,
      "velocity": 92,
      "chip": "ym2612"
    },
    {
      "channel": 0,
      "note": 76,
      "start": 40.4018,
      "duration": 0.0653,
      "velocity": 103,
      "chip": "ym2612"
    },
    {
      "channel": 1,
      "note": 64,
      "start": 40.4021,
      "duration": 0.7998,
      "velocity": 122,
      "chip": "ym2612"
    },
    {
      "channel": 2,
      "note": 52,
      "start": 40.4026,
      "duration": 0.1983,
      "velocity": 97,
      "chip": "ym2612"
    },
    {
      "channel": 3,
      "note": 69,
      "start": 40.403,
      "duration": 0.1982,
      "velocity": 127,
      "chip": "ym2612"
    },
    {
      "channel": 4,
      "note": 57,
      "start": 40.4045,
      "duration": 0.0131,
      "velocity": 122,
      "chip": "ym2612"
    },
    {
      "channel": 4,
      "note": 57,
      "start": 40.4178,
      "duration": 0.1837,
      "velocity": 122,
      "chip": "ym2612"
    },
    {
      "channel": 0,
      "note": 78,
      "start": 40.4673,
      "duration": 0.0665,
      "velocity": 103,
      "chip": "ym2612"
    },
    {
      "channel": 5,
      "note": 90,
      "start": 40.4846,
      "duration": 0.0499,
      "velocity": 92,
      "chip": "ym2612"
    },
    {
      "channel": 0,
      "note": 76,
      "start": 40.5339,
      "duration": 0.0665,
      "velocity": 103,
      "chip": "ym2612"
    },
    {
      "channel": 5,
      "note": 76,
      "start": 40.5858,
      "duration": 0.0653,
      "velocity": 103,
      "chip": "ym2612"
    },
    {
      "channel": 0,
      "note": 75,
      "start": 40.6006,
      "duration": 0.1498,
      "velocity": 103,
      "chip": "ym2612"
    },
    {
      "channel": 2,
      "note": 52,
      "start": 40.6011,
      "duration": 0.1997,
      "velocity": 97,
      "chip": "ym2612"
    },
    {
      "channel": 3,
      "note": 69,
      "start": 40.6015,
      "duration": 0.1998,
      "velocity": 127,
      "chip": "ym2612"
    },
    {
      "channel": 4,
      "note": 54,
      "start": 40.6029,
      "duration": 0.2,
      "velocity": 89,
      "chip": "ym2612"
    },
    {
      "channel": 5,
      "note": 78,
      "start": 40.6513,
      "duration": 0.0664,
      "velocity": 103,
      "chip": "ym2612"
    },
    {
      "channel": 5,
      "note": 76,
      "start": 40.7179,
      "duration": 0.0663,
      "velocity": 103,
      "chip": "ym2612"
    },
    {
      "channel": 5,
      "note": 75,
      "start": 40.7846,
      "duration": 0.1497,
      "velocity": 103,
      "chip": "ym2612"
    },
    {
      "channel": 0,
      "note": 76,
      "start": 40.8006,
      "duration": 0.0998,
      "velocity": 103,
      "chip": "ym2612"
    },
    {
      "channel": 2,
      "note": 52,
      "start": 40.8012,
      "duration": 0.1996,
      "velocity": 97,
      "chip": "ym2612"
    },
    {
      "channel": 3,
      "note": 57,
      "start": 40.8028,
      "duration": 0.0646,
      "velocity": 118,
      "chip": "ym2612"
    },
    {
      "channel": 3,
      "note": 57,
      "start": 40.8676,
      "duration": 0.0663,
      "velocity": 118,
      "chip": "ym2612"
    },
    {
      "channel": 3,
      "note": 57,
      "start": 40.9342,
      "duration": 0.067,
      "velocity": 118,
      "chip": "ym2612"
    },
    {
      "channel": 5,
      "note": 76,
      "start": 40.9844,
      "duration": 0.0999,
      "velocity": 103,
      "chip": "ym2612"
    },
    {
      "channel": 0,
      "note": 78,
      "start": 41.0006,
      "duration": 0.0998,
      "velocity": 103,
      "chip": "ym2612"
    },
    {
      "channel": 2,
      "note": 52,
      "start": 41.0011,
      "duration": 0.2012,
      "velocity": 97,
      "chip": "ym2612"
    },
    {
      "channel": 3,
      "note": 57,
      "start": 41.0014,
      "duration": 0.0994,
      "velocity": 118,
      "chip": "ym2612"
    },
    {
      "channel": 3,
      "note": 57,
      "start": 41.101,
      "duration": 0.1016,
      "velocity": 118,
      "chip": "ym2612"
    },
    {
      "channel": 5,
      "note": 78,
      "start": 41.1844,
      "duration": 0.0999,
      "velocity": 103,
      "chip": "ym2612"
    },
    {
      "channel": 0,
      "note": 86,
      "start": 41.2019,
      "duration": 0.0152,
      "velocity": 92,
      "chip": "ym2612"
    },
    {
      "channel": 1,
      "note": 64,
      "start": 41.202,
      "duration": 0.0487,
      "velocity": 122,
      "chip": "ym2612"
    },
    {
      "channel": 2,
      "note": 52,
      "start": 41.2026,
      "duration": 0.1981,
      "velocity": 97,
      "chip": "ym2612"
    },
    {
      "channel": 3,
      "note": 52,
      "start": 41.2032,
      "duration": 0.0978,
      "velocity": 118,
      "chip": "ym2612"
    },
    {
      "channel": 0,
      "note": 88,
      "start": 41.2174,
      "duration": 0.083,
      "velocity": 92,
      "chip": "ym2612"
    },
    {
      "channel": 1,
      "note": 71,
      "start": 41.2508,
      "duration": 0.751,
      "velocity": 122,
      "chip": "ym2612"
    },
    {
      "channel": 0,
      "note": 83,
      "start": 41.3007,
      "duration": 0.0997,
      "velocity": 92,
      "chip": "ym2612"
    },
    {
      "channel": 3,
      "note": 52,
      "start": 41.3012,
      "duration": 0.1997,
      "velocity": 118,
      "chip": "ym2612"
    },
    {
      "channel": 5,
      "note": 86,
      "start": 41.3858,
      "duration": 0.0155,
      "velocity": 92,
      "chip": "ym2612"
    },
    {
      "channel": 2,
      "note": 52,
      "start": 41.401,
      "duration": 0.1997,
      "velocity": 97,
      "chip": "ym2612"
    },
    {
      "channel": 5,
      "note": 88,
      "start": 41.4015,
      "duration": 0.0826,
      "velocity": 92,
      "chip": "ym2612"
    },
    {
      "channel": 5,
      "note": 83,
      "start": 41.4845,
      "duration": 0.0998,
      "velocity": 92,
      "chip": "ym2612"
    },
    {
      "channel": 0,
      "note": 84,
      "start": 41.5006,
      "duration": 0.0998,
      "velocity": 92,
      "chip": "ym2612"
    },
    {
      "channel": 3,
      "note": 52,
      "start": 41.5011,
      "duration": 0.1999,
      "velocity": 118,
      "chip": "ym2612"
    },
    {
      "channel": 2,
      "note": 52,
      "start": 41.601,
      "duration": 0.1999,
      "velocity": 97,
      "chip": "ym2612"
    },
    {
      "channel": 4,
      "note": 54,
      "start": 41.6015,
      "duration": 0.4025,
      "velocity": 89,
      "chip": "ym2612"
    },
    {
      "channel": 5,
      "note": 84,
      "start": 41.6845,
      "duration": 0.0999,
      "velocity": 92,
      "chip": "ym2612"
    },
    {
      "channel": 0,
      "note": 85,
      "start": 41.7006,
      "duration": 0.0998,
      "velocity": 92,
      "chip": "ym2612"
    },
    {
      "channel": 3,
      "note": 45,
      "start": 41.7015,
      "duration": 0.0997,
      "velocity": 118,
      "chip": "ym2612"
    },
    {
      "channel": 0,
      "note": 86,
      "start": 41.8007,
      "duration": 0.0163,
      "velocity": 92,
      "chip": "ym2612"
    },
    {
      "channel": 2,
      "note": 52,
      "start": 41.8012,
      "duration": 0.201,
      "velocity": 97,
      "chip": "ym2612"
    },
    {
      "channel": 3,
      "note": 45,
      "start": 41.8015,
      "duration": 0.2011,
      "velocity": 118,
      "chip": "ym2612"
    },
    {
      "channel": 0,
      "note": 88,
      "start": 41.8173,
      "duration": 0.1831,
      "velocity": 92,
      "chip": "ym2612"
    },
    {
      "channel": 5,
      "note": 85,
      "start": 41.8847,
      "duration": 0.0998,
      "velocity": 92,
      "chip": "ym2612"
    },
    {
      "channel": 5,
      "note": 86,
      "start": 41.9847,
      "duration": 0.0196,
      "velocity": 92,
      "chip": "ym2612"
    },
    {
      "channel": 0,
      "note": 78,
      "start": 42.0017,
      "duration": 0.0987,
      "velocity": 103,
      "chip": "ym2612"
    },
    {
      "channel": 1,
      "note": 70,
      "start": 42.002,
      "duration": 0.0985,
      "velocity": 122,
      "chip": "ym2612"
    },
    {
      "channel": 2,
      "note": 54,
      "start": 42.0026,
      "duration": 0.1983,
      "velocity": 97,
      "chip": "ym2612"
    },
    {
      "channel": 3,
      "note": 69,
      "start": 42.0039,
      "duration": 0.1973,
      "velocity": 127,
      "chip": "ym2612"
    },
    {
      "channel": 4,
      "note": 54,
      "start": 42.0043,
      "duration": 0.0967,
      "velocity": 89,
      "chip": "ym2612"
    },
    {
      "channel": 5,
      "note": 88,
      "start": 42.0046,
      "duration": 0.1796,
      "velocity": 92,
      "chip": "ym2612"
    },
    {
      "channel": 4,
      "note": 54,
      "start": 42.1012,
      "duration": 0.1004,
      "velocity": 89,
      "chip": "ym2612"
    },
    {
      "channel": 5,
      "note": 78,
      "start": 42.1856,
      "duration": 0.0987,
      "velocity": 103,
      "chip": "ym2612"
    },
    {
      "channel": 0,
      "note": 78,
      "start": 42.2006,
      "duration": 0.0998,
      "velocity": 103,
      "chip": "ym2612"
    },
    {
      "channel": 1,
      "note": 70,
      "start": 42.2008,
      "duration": 0.0997,
      "velocity": 122,
      "chip": "ym2612"
    },
    {
      "channel": 2,
      "note": 54,
      "start": 42.2012,
      "duration": 0.0495,
      "velocity": 97,
      "chip": "ym2612"
    },
    {
      "channel": 3,
      "note": 69,
      "start": 42.2016,
      "duration": 0.2003,
      "velocity": 127,
      "chip": "ym2612"
    },
    {
      "channel": 4,
      "note": 54,
      "start": 42.2019,
      "duration": 0.0993,
      "velocity": 89,
      "chip": "ym2612"
    },
    {
      "channel": 2,
      "note": 54,
      "start": 42.301,
      "duration": 0.0494,
      "velocity": 97,
      "chip": "ym2612"
    },
    {
      "channel": 4,
      "note": 54,
      "start": 42.3014,
      "duration": 0.1007,
      "velocity": 89,
      "chip": "ym2612"
    },
    {
      "channel": 5,
      "note": 78,
      "start": 42.3843,
      "duration": 0.0996,
      "velocity": 103,
      "chip": "ym2612"
    },
    {
      "channel": 4,
      "note": 45,
      "start": 42.4034,
      "duration": 0.381,
      "velocity": 127,
      "chip": "ym2612"
    },
    {
      "channel": 0,
      "note": 90,
      "start": 42.5006,
      "duration": 0.0498,
      "velocity": 92,
      "chip": "ym2612"
    },
    {
      "channel": 2,
      "note": 54,
      "start": 42.5008,
      "duration": 0.1002,
      "velocity": 97,
      "chip": "ym2612"
    },
    {
      "channel": 0,
      "note": 102,
      "start": 42.6006,
      "duration": 0.0998,
      "velocity": 92,
      "chip": "ym2612"
    },
    {
      "channel": 2,
      "note": 66,
      "start": 42.601,
      "duration": 0.2012,
      "velocity": 97,
      "chip": "ym2612"
    },
    {
      "channel": 3,
      "note": 57,
      "start": 42.6024,
      "duration": 0.0985,
      "velocity": 122,
      "chip": "ym2612"
    },
    {
      "channel": 5,
      "note": 90,
      "start": 42.6845,
      "duration": 0.0498,
      "velocity": 92,
      "chip": "ym2612"
    },
    {
      "channel": 0,
      "note": 90,
      "start": 42.7006,
      "duration": 0.0498,
      "velocity": 92,
      "chip": "ym2612"
    },
    {
      "channel": 3,
      "note": 57,
      "start": 42.7012,
      "duration": 0.1013,
      "velocity": 122,
      "chip": "ym2612"
    },
    {
      "channel": 4,
      "note": 81,
      "start": 42.7844,
      "duration": 0.0194,
      "velocity": 127,
      "chip": "ym2612"
    },
    {
      "channel": 5,
      "note": 102,
      "start": 42.7847,
      "duration": 0.0997,
      "velocity": 92,
      "chip": "ym2612"
    },
    {
      "channel": 0,
      "note": 78,
      "start": 42.8017,
      "duration": 0.0987,
      "velocity": 103,
      "chip": "ym2612"
    },
    {
      "channel": 1,
      "note": 58,
      "start": 42.802,
      "duration": 0.0985,
      "velocity": 122,
      "chip": "ym2612"
    },
    {
      "channel": 2,
      "note": 54,
      "start": 42.8024,
      "duration": 0.1985,
      "velocity": 97,
      "chip": "ym2612"
    },
    {
      "channel": 3,
      "note": 69,
      "start": 42.8037,
      "duration": 0.1975,
      "velocity": 127,
      "chip": "ym2612"
    },
    {
      "channel": 4,
      "note": 54,
      "start": 42.8051,
      "duration": 0.1977,
      "velocity": 89,
      "chip": "ym2612"
    },
    {
      "channel": 5,
      "note": 90,
      "start": 42.8846,
      "duration": 0.0496,
      "velocity": 92,
      "chip": "ym2612"
    },
    {
      "channel": 5,
      "note": 78,
      "start": 42.9856,
      "duration": 0.0987,
      "velocity": 103,
      "chip": "ym2612"
    },
    {
      "channel": 0,
      "note": 78,
      "start": 43.0006,
      "duration": 0.0998,
      "velocity": 103,
      "chip": "ym2612"
    },
    {
      "channel": 1,
      "note": 58,
      "start": 43.0008,
      "duration": 0.0997,
      "velocity": 122,
      "chip": "ym2612"
    },
    {
      "channel": 2,
      "note": 54,
      "start": 43.0012,
      "duration": 0.0495,
      "velocity": 97,
      "chip": "ym2612"
    },
    {
      "channel": 3,
      "note": 57,
      "start": 43.0027,
      "duration": 0.0646,
      "velocity": 122,
      "chip": "ym2612"
    },
    {
      "channel": 4,
      "note": 54,
      "start": 43.0031,
      "duration": 0.3995,
      "velocity": 89,
      "chip": "ym2612"
    },
    {
      "channel": 3,
      "note": 57,
      "start": 43.0676,
      "duration": 0.0662,
      "velocity": 122,
      "chip": "ym2612"
    },
    {
      "channel": 2,
      "note": 54,
      "start": 43.101,
      "duration": 0.0494,
      "velocity": 97,
      "chip": "ym2612"
    },
    {
      "channel": 3,
      "note": 57,
      "start": 43.1342,
      "duration": 0.0678,
      "velocity": 122,
      "chip": "ym2612"
    },
    {
      "channel": 5,
      "note": 78,
      "start": 43.1843,
      "duration": 0.0998,
      "velocity": 103,
      "chip": "ym2612"
    },
    {
      "channel": 3,
      "note": 57,
      "start": 43.2023,
      "duration": 0.0987,
      "velocity": 122,
      "chip": "ym2612"
    },
    {
      "channel": 0,
      "note": 90,
      "start": 43.3006,
      "duration": 0.0498,
      "velocity": 92,
      "chip": "ym2612"
    },
    {
      "channel": 2,
      "note": 52,
      "start": 43.3009,
      "duration": 0.0998,
      "velocity": 97,
      "chip": "ym2612"
    },
    {
      "channel": 3,
      "note": 57,
      "start": 43.3013,
      "duration": 0.0998,
      "velocity": 122,
      "chip": "ym2612"
    },
    {
      "channel": 0,
      "note": 102,
      "start": 43.4006,
      "duration": 0.0998,
      "velocity": 92,
      "chip": "ym2612"
    },
    {
      "channel": 2,
      "note": 51,
      "start": 43.401,
      "duration": 0.2012,
      "velocity": 97,
      "chip": "ym2612"
    },
    {
      "channel": 3,
      "note": 45,
      "start": 43.4025,
      "duration": 0.2,
      "velocity": 118,
      "chip": "ym2612"
    },
    {
      "channel": 4,
      "note": 54,
      "start": 43.4028,
      "duration": 0.2001,
      "velocity": 89,
      "chip": "ym2612"
    },
    {
      "channel": 5,
      "note": 90,
      "start": 43.4846,
      "duration": 0.0497,
      "velocity": 92,
      "chip": "ym2612"
    },
    {
      "channel": 0,
      "note": 90,
      "start": 43.5006,
      "duration": 0.0498,
      "velocity": 92,
      "chip": "ym2612"
    },
    {
      "channel": 5,
      "note": 102,
      "start": 43.5844,
      "duration": 0.1,
      "velocity": 92,
      "chip": "ym2612"
    },
    {
      "channel": 0,
      "note": 76,
      "start": 43.6018,
      "duration": 0.0653,
      "velocity": 103,
      "chip": "ym2612"
    },
    {
      "channel": 1,
      "note": 68,
      "start": 43.6021,
      "duration": 0.0984,
      "velocity": 122,
      "chip": "ym2612"
    },
    {
      "channel": 2,
      "note": 52,
      "start": 43.6024,
      "duration": 0.0982,
      "velocity": 97,
      "chip": "ym2612"
    },
    {
      "channel": 3,
      "note": 57,
      "start": 43.6028,
      "duration": 0.0146,
      "velocity": 118,
      "chip": "ym2612"
    },
    {
      "channel": 4,
      "note": 54,
      "start": 43.6031,
      "duration": 0.1988,
      "velocity": 89,
      "chip": "ym2612"
    },
    {
      "channel": 3,
      "note": 57,
      "start": 43.6177,
      "duration": 0.1836,
      "velocity": 118,
      "chip": "ym2612"
    },
    {
      "channel": 0,
      "note": 78,
      "start": 43.6673,
      "duration": 0.0665,
      "velocity": 103,
      "chip": "ym2612"
    },
    {
      "channel": 5,
      "note": 90,
      "start": 43.6847,
      "duration": 0.0497,
      "velocity": 92,
      "chip": "ym2612"
    },
    {
      "channel": 0,
      "note": 76,
      "start": 43.7339,
      "duration": 0.0665,
      "velocity": 103,
      "chip": "ym2612"
    },
    {
      "channel": 5,
      "note": 76,
      "start": 43.7856,
      "duration": 0.0653,
      "velocity": 103,
      "chip": "ym2612"
    },
    {
      "channel": 0,
      "note": 75,
      "start": 43.8006,
      "duration": 0.1498,
      "velocity": 103,
      "chip": "ym2612"
    },
    {
      "channel": 1,
      "note": 66,
      "start": 43.8009,
      "duration": 0.0996,
      "velocity": 122,
      "chip": "ym2612"
    },
    {
      "channel": 2,
      "note": 51,
      "start": 43.8012,
      "duration": 0.0994,
      "velocity": 97,
      "chip": "ym2612"
    },
    {
      "channel": 3,
      "note": 52,
      "start": 43.8019,
      "duration": 0.1994,
      "velocity": 118,
      "chip": "ym2612"
    },
    {
      "channel": 5,
      "note": 78,
      "start": 43.8512,
      "duration": 0.0662,
      "velocity": 103,
      "chip": "ym2612"
    },
    {
      "channel": 5,
      "note": 76,
      "start": 43.9176,
      "duration": 0.0663,
      "velocity": 103,
      "chip": "ym2612"
    },
    {
      "channel": 5,
      "note": 75,
      "start": 43.9842,
      "duration": 0.1497,
      "velocity": 103,
      "chip": "ym2612"
    },
    {
      "channel": 0,
      "note": 76,
      "start": 44.0006,
      "duration": 0.0998,
      "velocity": 103,
      "chip": "ym2612"
    },
    {
      "channel": 1,
      "note": 68,
      "start": 44.0009,
      "duration": 0.0997,
      "velocity": 122,
      "chip": "ym2612"
    },
    {
      "channel": 2,
      "note": 52,
      "start": 44.0012,
      "duration": 0.0995,
      "velocity": 97,
      "chip": "ym2612"
    },
    {
      "channel": 3,
      "note": 45,
      "start": 44.0018,
      "duration": 0.1994,
      "velocity": 118,
      "chip": "ym2612"
    },
    {
      "channel": 5,
      "note": 76,
      "start": 44.1842,
      "duration": 0.1,
      "velocity": 103,
      "chip": "ym2612"
    },
    {
      "channel": 0,
      "note": 78,
      "start": 44.2006,
      "duration": 0.0998,
      "velocity": 103,
      "chip": "ym2612"
    },
    {
      "channel": 1,
      "note": 70,
      "start": 44.2008,
      "duration": 0.0998,
      "velocity": 122,
      "chip": "ym2612"
    },
    {
      "channel": 2,
      "note": 54,
      "start": 44.2012,
      "duration": 0.0996,
      "velocity": 97,
      "chip": "ym2612"
    },
    {
      "channel": 3,
      "note": 57,
      "start": 44.2027,
      "duration": 0.1994,
      "velocity": 122,
      "chip": "ym2612"
    },
    {
      "channel": 4,
      "note": 15,
      "start": 44.204,
      "duration": 0.7804,
      "velocity": 127,
      "chip": "ym2612"
    },
    {
      "channel": 5,
      "note": 78,
      "start": 44.3842,
      "duration": 0.0999,
      "velocity": 103,
      "chip": "ym2612"
    },
    {
      "channel": 0,
      "note": 90,
      "start": 44.4017,
      "duration": 0.0987,
      "velocity": 92,
      "chip": "ym2612"
    },
    {
      "channel": 3,
      "note": 57,
      "start": 44.4027,
      "duration": 0.0645,
      "velocity": 122,
      "chip": "ym2612"
    },
    {
      "channel": 3,
      "note": 57,
      "start": 44.4675,
      "duration": 0.0663,
      "velocity": 122,
      "chip": "ym2612"
    },
    {
      "channel": 0,
      "note": 102,
      "start": 44.5006,
      "duration": 0.0498,
      "velocity": 92,
      "chip": "ym2612"
    },
    {
      "channel": 3,
      "note": 57,
      "start": 44.5342,
      "duration": 0.0668,
      "velocity": 122,
      "chip": "ym2612"
    },
    {
      "channel": 5,
      "note": 90,
      "start": 44.5854,
      "duration": 0.0988,
      "velocity": 92,
      "chip": "ym2612"
    },
    {
      "channel": 0,
      "note": 102,
      "start": 44.6006,
      "duration": 0.0998,
      "velocity": 92,
      "chip": "ym2612"
    },
    {
      "channel": 2,
      "note": 61,
      "start": 44.6009,
      "duration": 0.2013,
      "velocity": 97,
      "chip": "ym2612"
    },
    {
      "channel": 3,
      "note": 57,
      "start": 44.6013,
      "duration": 0.0995,
      "velocity": 122,
      "chip": "ym2612"
    },
    {
      "channel": 5,
      "note": 102,
      "start": 44.6845,
      "duration": 0.0498,
      "velocity": 92,
      "chip": "ym2612"
    },
    {
      "channel": 0,
      "note": 90,
      "start": 44.7006,
      "duration": 0.0498,
      "velocity": 92,
      "chip": "ym2612"
    },
    {
      "channel": 3,
      "note": 57,
      "start": 44.7012,
      "duration": 0.1013,
      "velocity": 122,
      "chip": "ym2612"
    },
    {
      "channel": 5,
      "note": 102,
      "start": 44.7844,
      "duration": 0.1,
      "velocity": 92,
      "chip": "ym2612"
    },
    {
      "channel": 0,
      "note": 76,
      "start": 44.8017,
      "duration": 0.0653,
      "velocity": 103,
      "chip": "ym2612"
    },
    {
      "channel": 1,
      "note": 68,
      "start": 44.8021,
      "duration": 0.0984,
      "velocity": 122,
      "chip": "ym2612"
    },
    {
      "channel": 2,
      "note": 52,
      "start": 44.8024,
      "duration": 0.0982,
      "velocity": 97,
      "chip": "ym2612"
    },
    {
      "channel": 3,
      "note": 57,
      "start": 44.8039,
      "duration": 0.0135,
      "velocity": 118,
      "chip": "ym2612"
    },
    {
      "channel": 3,
      "note": 57,
      "start": 44.8177,
      "duration": 0.0832,
      "velocity": 118,
      "chip": "ym2612"
    },
    {
      "channel": 0,
      "note": 78,
      "start": 44.8673,
      "duration": 0.0665,
      "velocity": 103,
      "chip": "ym2612"
    },
    {
      "channel": 5,
      "note": 90,
      "start": 44.8846,
      "duration": 0.0497,
      "velocity": 92,
      "chip": "ym2612"
    },
    {
      "channel": 3,
      "note": 57,
      "start": 44.9012,
      "duration": 0.1,
      "velocity": 118,
      "chip": "ym2612"
    },
    {
      "channel": 0,
      "note": 76,
      "start": 44.9339,
      "duration": 0.0665,
      "velocity": 103,
      "chip": "ym2612"
    },
    {
      "channel": 4,
      "note": 81,
      "start": 44.9844,
      "duration": 0.0174,
      "velocity": 127,
      "chip": "ym2612"
    },
    {
      "channel": 5,
      "note": 76,
      "start": 44.9859,
      "duration": 0.0652,
      "velocity": 103,
      "chip": "ym2612"
    },
    {
      "channel": 0,
      "note": 75,
      "start": 45.0006,
      "duration": 0.1498,
      "velocity": 103,
      "chip": "ym2612"
    },
    {
      "channel": 1,
      "note": 66,
      "start": 45.0009,
      "duration": 0.0996,
      "velocity": 122,
      "chip": "ym2612"
    },
    {
      "channel": 2,
      "note": 51,
      "start": 45.0012,
      "duration": 0.0994,
      "velocity": 97,
      "chip": "ym2612"
    },
    {
      "channel": 3,
      "note": 52,
      "start": 45.0017,
      "duration": 0.1995,
      "velocity": 118,
      "chip": "ym2612"
    },
    {
      "channel": 4,
      "note": 54,
      "start": 45.0031,
      "duration": 0.1987,
      "velocity": 89,
      "chip": "ym2612"
    },
    {
      "channel": 5,
      "note": 78,
      "start": 45.0513,
      "duration": 0.0663,
      "velocity": 103,
      "chip": "ym2612"
    },
    {
      "channel": 5,
      "note": 76,
      "start": 45.1178,
      "duration": 0.0663,
      "velocity": 103,
      "chip": "ym2612"
    },
    {
      "channel": 5,
      "note": 75,
      "start": 45.1844,
      "duration": 0.1498,
      "velocity": 103,
      "chip": "ym2612"
    },
    {
      "channel": 0,
      "note": 76,
      "start": 45.2006,
      "duration": 0.0998,
      "velocity": 103,
      "chip": "ym2612"
    },
    {
      "channel": 1,
      "note": 68,
      "start": 45.2009,
      "duration": 0.0997,
      "velocity": 122,
      "chip": "ym2612"
    },
    {
      "channel": 2,
      "note": 52,
      "start": 45.2012,
      "duration": 0.0995,
      "velocity": 97,
      "chip": "ym2612"
    },
    {
      "channel": 3,
      "note": 45,
      "start": 45.2018,
      "duration": 0.1994,
      "velocity": 118,
      "chip": "ym2612"
    },
    {
      "channel": 4,
      "note": 54,
      "start": 45.2021,
      "duration": 0.4002,
      "velocity": 89,
      "chip": "ym2612"
    },
    {
      "channel": 5,
      "note": 76,
      "start": 45.3844,
      "duration": 0.1,
      "velocity": 103,
      "chip": "ym2612"
    },
    {
      "channel": 0,
      "note": 78,
      "start": 45.4006,
      "duration": 0.0998,
      "velocity": 103,
      "chip": "ym2612"
    },
    {
      "channel": 1,
      "note": 70,
      "start": 45.4008,
      "duration": 0.0998,
      "velocity": 122,
      "chip": "ym2612"
    },
    {
      "channel": 2,
      "note": 54,
      "start": 45.4012,
      "duration": 0.0996,
      "velocity": 97,
      "chip": "ym2612"
    },
    {
      "channel": 3,
      "note": 57,
      "start": 45.4026,
      "duration": 0.1995,
      "velocity": 122,
      "chip": "ym2612"
    },
    {
      "channel": 5,
      "note": 78,
      "start": 45.5843,
      "duration": 0.0996,
      "velocity": 103,
      "chip": "ym2612"
    },
    {
      "channel": 0,
      "note": 92,
      "start": 45.6019,
      "duration": 0.0152,
      "velocity": 92,
      "chip": "ym2612"
    },
    {
      "channel": 0,
      "note": 93,
      "start": 45.6174,
      "duration": 0.083,
      "velocity": 92,
      "chip": "ym2612"
    },
    {
      "channel": 0,
      "note": 87,
      "start": 45.7007,
      "duration": 0.0997,
      "velocity": 92,
      "chip": "ym2612"
    },
    {
      "channel": 5,
      "note": 92,
      "start": 45.7854,
      "duration": 0.0167,
      "velocity": 92,
      "chip": "ym2612"
    },
    {
      "channel": 0,
      "note": 88,
      "start": 45.8007,
      "duration": 0.1997,
      "velocity": 92,
      "chip": "ym2612"
    },
    {
      "channel": 3,
      "note": 69,
      "start": 45.802,
      "duration": 0.0985,
      "velocity": 127,
      "chip": "ym2612"
    },
    {
      "channel": 5,
      "note": 93,
      "start": 45.8025,
      "duration": 0.0815,
      "velocity": 92,
      "chip": "ym2612"
    },
    {
      "channel": 5,
      "note": 87,
      "start": 45.8844,
      "duration": 0.0997,
      "velocity": 92,
      "chip": "ym2612"
    },
    {
      "channel": 3,
      "note": 69,
      "start": 45.9018,
      "duration": 0.1007,
      "velocity": 127,
      "chip": "ym2612"
    },
    {
      "channel": 5,
      "note": 88,
      "start": 45.9844,
      "duration": 0.1998,
      "velocity": 92,
      "chip": "ym2612"
    },
    {
      "channel": 0,
      "note": 76,
      "start": 46.0017,
      "duration": 0.0653,
      "velocity": 103,
      "chip": "ym2612"
    },
    {
      "channel": 1,
      "note": 56,
      "start": 46.0021,
      "duration": 0.0984,
      "velocity": 122,
      "chip": "ym2612"
    },
    {
      "channel": 2,
      "note": 64,
      "start": 46.0024,
      "duration": 0.0982,
      "velocity": 97,
      "chip": "ym2612"
    },
    {
      "channel": 3,
      "note": 57,
      "start": 46.0039,
      "duration": 0.0969,
      "velocity": 122,
      "chip": "ym2612"
    },
    {
      "channel": 4,
      "note": 54,
      "start": 46.0041,
      "duration": 0.3988,
      "velocity": 89,
      "chip": "ym2612"
    },
    {
      "channel": 0,
      "note": 78,
      "start": 46.0673,
      "duration": 0.0665,
      "velocity": 103,
      "chip": "ym2612"
    },
    {
      "channel": 3,
      "note": 57,
      "start": 46.1012,
      "duration": 0.1001,
      "velocity": 122,
      "chip": "ym2612"
    },
    {
      "channel": 0,
      "note": 76,
      "start": 46.1339,
      "duration": 0.0665,
      "velocity": 103,
      "chip": "ym2612"
    },
    {
      "channel": 5,
      "note": 76,
      "start": 46.1856,
      "duration": 0.0655,
      "velocity": 103,
      "chip": "ym2612"
    },
    {
      "channel": 0,
      "note": 75,
      "start": 46.2006,
      "duration": 0.1498,
      "velocity": 103,
      "chip": "ym2612"
    },
    {
      "channel": 1,
      "note": 54,
      "start": 46.2009,
      "duration": 0.0996,
      "velocity": 122,
      "chip": "ym2612"
    },
    {
      "channel": 2,
      "note": 63,
      "start": 46.2012,
      "duration": 0.0994,
      "velocity": 97,
      "chip": "ym2612"
    },
    {
      "channel": 3,
      "note": 45,
      "start": 46.2027,
      "duration": 0.1986,
      "velocity": 118,
      "chip": "ym2612"
    },
    {
      "channel": 5,
      "note": 78,
      "start": 46.2513,
      "duration": 0.0663,
      "velocity": 103,
      "chip": "ym2612"
    },
    {
      "channel": 5,
      "note": 76,
      "start": 46.3178,
      "duration": 0.0663,
      "velocity": 103,
      "chip": "ym2612"
    },
    {
      "channel": 5,
      "note": 75,
      "start": 46.3844,
      "duration": 0.1496,
      "velocity": 103,
      "chip": "ym2612"
    },
    {
      "channel": 0,
      "note": 76,
      "start": 46.4006,
      "duration": 0.0998,
      "velocity": 103,
      "chip": "ym2612"
    },
    {
      "channel": 1,
      "note": 56,
      "start": 46.4009,
      "duration": 0.0997,
      "velocity": 122,
      "chip": "ym2612"
    },
    {
      "channel": 2,
      "note": 64,
      "start": 46.4012,
      "duration": 0.0995,
      "velocity": 97,
      "chip": "ym2612"
    },
    {
      "channel": 3,
      "note": 57,
      "start": 46.4029,
      "duration": 0.0146,
      "velocity": 122,
      "chip": "ym2612"
    },
    {
      "channel": 3,
      "note": 57,
      "start": 46.4178,
      "duration": 0.1834,
      "velocity": 122,
      "chip": "ym2612"
    },
    {
      "channel": 5,
      "note": 76,
      "start": 46.5842,
      "duration": 0.1002,
      "velocity": 103,
      "chip": "ym2612"
    },
    {
      "channel": 0,
      "note": 78,
      "start": 46.6006,
      "duration": 0.0998,
      "velocity": 103,
      "chip": "ym2612"
    },
    {
      "channel": 1,
      "note": 58,
      "start": 46.6008,
      "duration": 0.0998,
      "velocity": 122,
      "chip": "ym2612"
    },
    {
      "channel": 2,
      "note": 66,
      "start": 46.6012,
      "duration": 0.0996,
      "velocity": 97,
      "chip": "ym2612"
    },
    {
      "channel": 3,
      "note": 57,
      "start": 46.6016,
      "duration": 0.1993,
      "velocity": 122,
      "chip": "ym2612"
    },
    {
      "channel": 4,
      "note": 54,
      "start": 46.6019,
      "duration": 0.1993,
      "velocity": 89,
      "chip": "ym2612"
    },
    {
      "channel": 5,
      "note": 78,
      "start": 46.7843,
      "duration": 0.0996,
      "velocity": 103,
      "chip": "ym2612"
    },
    {
      "channel": 0,
      "note": 88,
      "start": 47.0007,
      "duration": 0.0163,
      "velocity": 103,
      "chip": "ym2612"
    },
    {
      "channel": 1,
      "note": 54,
      "start": 47.001,
      "duration": 0.1998,
      "velocity": 122,
      "chip": "ym2612"
    },
    {
      "channel": 2,
      "note": 54,
      "start": 47.0013,
      "duration": 0.2001,
      "velocity": 97,
      "chip": "ym2612"
    },
    {
      "channel": 3,
      "note": 57,
      "start": 47.0016,
      "duration": 0.2002,
      "velocity": 122,
      "chip": "ym2612"
    },
    {
      "channel": 4,
      "note": 15,
      "start": 47.0029,
      "duration": 0.9812,
      "velocity": 127,
      "chip": "ym2612"
    },
    {
      "channel": 0,
      "note": 90,
      "start": 47.0174,
      "duration": 0.183,
      "velocity": 103,
      "chip": "ym2612"
    },
    {
      "channel": 5,
      "note": 88,
      "start": 47.1847,
      "duration": 0.0178,
      "velocity": 103,
      "chip": "ym2612"
    },
    {
      "channel": 0,
      "note": 88,
      "start": 47.2008,
      "duration": 0.0496,
      "velocity": 103,
      "chip": "ym2612"
    },
    {
      "channel": 5,
      "note": 90,
      "start": 47.2027,
      "duration": 0.1812,
      "velocity": 103,
      "chip": "ym2612"
    },
    {
      "channel": 0,
      "note": 85,
      "start": 47.2506,
      "duration": 0.0498,
      "velocity": 103,
      "chip": "ym2612"
    },
    {
      "channel": 0,
      "note": 82,
      "start": 47.3006,
      "duration": 0.0498,
      "velocity": 103,
      "chip": "ym2612"
    },
    {
      "channel": 0,
      "note": 78,
      "start": 47.3506,
      "duration": 0.0498,
      "velocity": 103,
      "chip": "ym2612"
    },
    {
      "channel": 5,
      "note": 88,
      "start": 47.3844,
      "duration": 0.0494,
      "velocity": 103,
      "chip": "ym2612"
    },
    {
      "channel": 5,
      "note": 85,
      "start": 47.4342,
      "duration": 0.0497,
      "velocity": 103,
      "chip": "ym2612"
    },
    {
      "channel": 5,
      "note": 82,
      "start": 47.4842,
      "duration": 0.0497,
      "velocity": 103,
      "chip": "ym2612"
    },
    {
      "channel": 5,
      "note": 78,
      "start": 47.5342,
      "duration": 0.0497,
      "velocity": 103,
      "chip": "ym2612"
    },
    {
      "channel": 4,
      "note": 81,
      "start": 47.9841,
      "duration": 0.0163,
      "velocity": 127,
      "chip": "ym2612"
    }
  ]
}