{
  "track_name": "08 - Sound Test 11",
  "duration_sec": 91.644,
  "sample_rate": 44100,
  "note_count": 835,
  "unique_pitches": 27,
  "pitch_range": 67,
  "avg_note_duration": 0.3453,
  "reconstruction_stats": {
    "notes_reconstructed": 835,
    "keyon_events": 835,
    "keyoff_events": 835,
    "orphan_keyons": 0,
    "unique_pitches": 27,
    "pitch_range": 67,
    "avg_duration_sec": 0.3453
  },
  "metadata": {
    "source": "F\\Flashback - The Quest for Identity\\08 - Sound Test 11.vgz"
  },
  "notes": [
    {
      "channel": 0,
      "note": 61,
      "start": 0.002,
      "duration": 0.1426,
      "velocity": 94,
      "chip": "ym2612"
    },
    {
      "channel": 1,
      "note": 68,
      "start": 0.0155,
      "duration": 8.5458,
      "velocity": 107,
      "chip": "ym2612"
    },
    {
      "channel": 3,
      "note": 73,
      "start": 0.0186,
      "duration": 5.6761,
      "velocity": 107,
      "chip": "ym2612"
    },
    {
      "channel": 0,
      "note": 56,
      "start": 0.1807,
      "duration": 0.1472,
      "velocity": 94,
      "chip": "ym2612"
    },
    {
      "channel": 0,
      "note": 59,
      "start": 0.3473,
      "duration": 0.1473,
      "velocity": 94,
      "chip": "ym2612"
    },
    {
      "channel": 0,
      "note": 49,
      "start": 0.5308,
      "duration": 0.1471,
      "velocity": 94,
      "chip": "ym2612"
    },
    {
      "channel": 0,
      "note": 47,
      "start": 0.8976,
      "duration": 0.047,
      "velocity": 94,
      "chip": "ym2612"
    },
    {
      "channel": 0,
      "note": 49,
      "start": 1.0647,
      "duration": 0.5132,
      "velocity": 94,
      "chip": "ym2612"
    },
    {
      "channel": 0,
      "note": 56,
      "start": 1.5976,
      "duration": 0.0637,
      "velocity": 94,
      "chip": "ym2612"
    },
    {
      "channel": 0,
      "note": 56,
      "start": 1.7807,
      "duration": 0.0639,
      "velocity": 94,
      "chip": "ym2612"
    },
    {
      "channel": 0,
      "note": 56,
      "start": 1.9642,
      "duration": 0.1471,
      "velocity": 94,
      "chip": "ym2612"
    },
    {
      "channel": 0,
      "note": 59,
      "start": 2.1477,
      "duration": 0.3136,
      "velocity": 94,
      "chip": "ym2612"
    },
    {
      "channel": 0,
      "note": 56,
      "start": 2.4976,
      "duration": 0.147,
      "velocity": 94,
      "chip": "ym2612"
    },
    {
      "channel": 0,
      "note": 54,
      "start": 2.6807,
      "duration": 0.1472,
      "velocity": 94,
      "chip": "ym2612"
    },
    {
      "channel": 0,
      "note": 49,
      "start": 2.8647,
      "duration": 0.4132,
      "velocity": 94,
      "chip": "ym2612"
    },
    {
      "channel": 0,
      "note": 49,
      "start": 3.3976,
      "duration": 0.1469,
      "velocity": 94,
      "chip": "ym2612"
    },
    {
      "channel": 0,
      "note": 47,
      "start": 3.7476,
      "duration": 0.0969,
      "velocity": 94,
      "chip": "ym2612"
    },
    {
      "channel": 0,
      "note": 49,
      "start": 3.931,
      "duration": 0.4137,
      "velocity": 94,
      "chip": "ym2612"
    },
    {
      "channel": 0,
      "note": 56,
      "start": 4.4643,
      "duration": 0.0636,
      "velocity": 94,
      "chip": "ym2612"
    },
    {
      "channel": 0,
      "note": 56,
      "start": 4.6474,
      "duration": 0.0639,
      "velocity": 94,
      "chip": "ym2612"
    },
    {
      "channel": 0,
      "note": 56,
      "start": 4.8308,
      "duration": 0.1471,
      "velocity": 94,
      "chip": "ym2612"
    },
    {
      "channel": 0,
      "note": 59,
      "start": 5.0147,
      "duration": 0.3132,
      "velocity": 94,
      "chip": "ym2612"
    },
    {
      "channel": 0,
      "note": 56,
      "start": 5.3643,
      "duration": 0.1469,
      "velocity": 94,
      "chip": "ym2612"
    },
    {
      "channel": 0,
      "note": 54,
      "start": 5.5474,
      "duration": 0.1472,
      "velocity": 94,
      "chip": "ym2612"
    },
    {
      "channel": 0,
      "note": 61,
      "start": 5.7307,
      "duration": 0.1307,
      "velocity": 94,
      "chip": "ym2612"
    },
    {
      "channel": 3,
      "note": 71,
      "start": 5.7346,
      "duration": 2.8768,
      "velocity": 107,
      "chip": "ym2612"
    },
    {
      "channel": 0,
      "note": 56,
      "start": 5.8973,
      "duration": 0.1473,
      "velocity": 94,
      "chip": "ym2612"
    },
    {
      "channel": 0,
      "note": 59,
      "start": 6.0808,
      "duration": 0.1138,
      "velocity": 94,
      "chip": "ym2612"
    },
    {
      "channel": 0,
      "note": 56,
      "start": 6.2644,
      "duration": 0.1636,
      "velocity": 94,
      "chip": "ym2612"
    },
    {
      "channel": 0,
      "note": 54,
      "start": 6.6147,
      "duration": 0.0966,
      "velocity": 94,
      "chip": "ym2612"
    },
    {
      "channel": 0,
      "note": 56,
      "start": 6.7976,
      "duration": 0.4469,
      "velocity": 94,
      "chip": "ym2612"
    },
    {
      "channel": 0,
      "note": 56,
      "start": 7.331,
      "duration": 0.0637,
      "velocity": 94,
      "chip": "ym2612"
    },
    {
      "channel": 0,
      "note": 56,
      "start": 7.5139,
      "duration": 0.0641,
      "velocity": 94,
      "chip": "ym2612"
    },
    {
      "channel": 0,
      "note": 56,
      "start": 7.6975,
      "duration": 0.1471,
      "velocity": 94,
      "chip": "ym2612"
    },
    {
      "channel": 0,
      "note": 59,
      "start": 7.8642,
      "duration": 0.3304,
      "velocity": 94,
      "chip": "ym2612"
    },
    {
      "channel": 0,
      "note": 56,
      "start": 8.231,
      "duration": 0.1469,
      "velocity": 94,
      "chip": "ym2612"
    },
    {
      "channel": 0,
      "note": 54,
      "start": 8.4146,
      "duration": 0.0801,
      "velocity": 94,
      "chip": "ym2612"
    },
    {
      "channel": 0,
      "note": 54,
      "start": 8.581,
      "duration": 0.4137,
      "velocity": 94,
      "chip": "ym2612"
    },
    {
      "channel": 1,
      "note": 66,
      "start": 8.5844,
      "duration": 2.7435,
      "velocity": 107,
      "chip": "ym2612"
    },
    {
      "channel": 4,
      "note": 70,
      "start": 8.5872,
      "duration": 2.7409,
      "velocity": 107,
      "chip": "ym2612"
    },
    {
      "channel": 0,
      "note": 54,
      "start": 9.131,
      "duration": 0.197,
      "velocity": 94,
      "chip": "ym2612"
    },
    {
      "channel": 0,
      "note": 52,
      "start": 9.481,
      "duration": 0.0803,
      "velocity": 94,
      "chip": "ym2612"
    },
    {
      "channel": 0,
      "note": 54,
      "start": 9.6642,
      "duration": 0.3471,
      "velocity": 94,
      "chip": "ym2612"
    },
    {
      "channel": 0,
      "note": 54,
      "start": 10.198,
      "duration": 0.0633,
      "velocity": 94,
      "chip": "ym2612"
    },
    {
      "channel": 0,
      "note": 54,
      "start": 10.3806,
      "duration": 0.0473,
      "velocity": 94,
      "chip": "ym2612"
    },
    {
      "channel": 0,
      "note": 54,
      "start": 10.5641,
      "duration": 0.1138,
      "velocity": 94,
      "chip": "ym2612"
    },
    {
      "channel": 0,
      "note": 56,
      "start": 10.731,
      "duration": 0.3303,
      "velocity": 94,
      "chip": "ym2612"
    },
    {
      "channel": 0,
      "note": 59,
      "start": 11.0977,
      "duration": 0.1469,
      "velocity": 94,
      "chip": "ym2612"
    },
    {
      "channel": 0,
      "note": 61,
      "start": 11.2807,
      "duration": 0.1305,
      "velocity": 94,
      "chip": "ym2612"
    },
    {
      "channel": 0,
      "note": 61,
      "start": 11.4488,
      "duration": 0.1458,
      "velocity": 94,
      "chip": "ym2612"
    },
    {
      "channel": 5,
      "note": 45,
      "start": 11.452,
      "duration": 0.2428,
      "velocity": 125,
      "chip": "ym2612"
    },
    {
      "channel": 2,
      "note": 99,
      "start": 11.455,
      "duration": 0.1732,
      "velocity": 103,
      "chip": "ym2612"
    },
    {
      "channel": 1,
      "note": 68,
      "start": 11.4592,
      "duration": 8.552,
      "velocity": 107,
      "chip": "ym2612"
    },
    {
      "channel": 3,
      "note": 73,
      "start": 11.4621,
      "duration": 5.6827,
      "velocity": 107,
      "chip": "ym2612"
    },
    {
      "channel": 0,
      "note": 56,
      "start": 11.6308,
      "duration": 0.1471,
      "velocity": 94,
      "chip": "ym2612"
    },
    {
      "channel": 0,
      "note": 59,
      "start": 11.814,
      "duration": 0.1472,
      "velocity": 94,
      "chip": "ym2612"
    },
    {
      "channel": 0,
      "note": 49,
      "start": 11.9808,
      "duration": 0.1472,
      "velocity": 94,
      "chip": "ym2612"
    },
    {
      "channel": 2,
      "note": 99,
      "start": 12.1647,
      "duration": 0.1134,
      "velocity": 103,
      "chip": "ym2612"
    },
    {
      "channel": 0,
      "note": 47,
      "start": 12.3476,
      "duration": 0.0637,
      "velocity": 94,
      "chip": "ym2612"
    },
    {
      "channel": 0,
      "note": 49,
      "start": 12.5309,
      "duration": 0.4971,
      "velocity": 94,
      "chip": "ym2612"
    },
    {
      "channel": 2,
      "note": 99,
      "start": 12.8815,
      "duration": 0.0967,
      "velocity": 103,
      "chip": "ym2612"
    },
    {
      "channel": 0,
      "note": 56,
      "start": 13.0646,
      "duration": 0.0633,
      "velocity": 94,
      "chip": "ym2612"
    },
    {
      "channel": 0,
      "note": 56,
      "start": 13.2473,
      "duration": 0.0473,
      "velocity": 94,
      "chip": "ym2612"
    },
    {
      "channel": 0,
      "note": 56,
      "start": 13.4142,
      "duration": 0.1471,
      "velocity": 94,
      "chip": "ym2612"
    },
    {
      "channel": 0,
      "note": 59,
      "start": 13.5976,
      "duration": 0.3303,
      "velocity": 94,
      "chip": "ym2612"
    },
    {
      "channel": 2,
      "note": 99,
      "start": 13.6006,
      "duration": 0.0609,
      "velocity": 103,
      "chip": "ym2612"
    },
    {
      "channel": 5,
      "note": 45,
      "start": 13.7812,
      "duration": 0.0802,
      "velocity": 125,
      "chip": "ym2612"
    },
    {
      "channel": 0,
      "note": 56,
      "start": 13.9644,
      "duration": 0.1469,
      "velocity": 94,
      "chip": "ym2612"
    },
    {
      "channel": 0,
      "note": 54,
      "start": 14.1307,
      "duration": 0.1473,
      "velocity": 94,
      "chip": "ym2612"
    },
    {
      "channel": 5,
      "note": 45,
      "start": 14.1335,
      "duration": 0.028,
      "velocity": 125,
      "chip": "ym2612"
    },
    {
      "channel": 0,
      "note": 49,
      "start": 14.3143,
      "duration": 0.4137,
      "velocity": 94,
      "chip": "ym2612"
    },
    {
      "channel": 5,
      "note": 45,
      "start": 14.3176,
      "duration": 0.0772,
      "velocity": 125,
      "chip": "ym2612"
    },
    {
      "channel": 2,
      "note": 99,
      "start": 14.3205,
      "duration": 0.0745,
      "velocity": 103,
      "chip": "ym2612"
    },
    {
      "channel": 0,
      "note": 49,
      "start": 14.848,
      "duration": 0.1466,
      "velocity": 94,
      "chip": "ym2612"
    },
    {
      "channel": 2,
      "note": 99,
      "start": 15.0313,
      "duration": 0.0802,
      "velocity": 103,
      "chip": "ym2612"
    },
    {
      "channel": 0,
      "note": 47,
      "start": 15.2144,
      "duration": 0.0802,
      "velocity": 94,
      "chip": "ym2612"
    },
    {
      "channel": 0,
      "note": 49,
      "start": 15.3976,
      "duration": 0.4137,
      "velocity": 94,
      "chip": "ym2612"
    },
    {
      "channel": 2,
      "note": 99,
      "start": 15.7484,
      "duration": 0.0632,
      "velocity": 103,
      "chip": "ym2612"
    },
    {
      "channel": 0,
      "note": 56,
      "start": 15.9309,
      "duration": 0.047,
      "velocity": 94,
      "chip": "ym2612"
    },
    {
      "channel": 0,
      "note": 56,
      "start": 16.1139,
      "duration": 0.0473,
      "velocity": 94,
      "chip": "ym2612"
    },
    {
      "channel": 0,
      "note": 56,
      "start": 16.2808,
      "duration": 0.1471,
      "velocity": 94,
      "chip": "ym2612"
    },
    {
      "channel": 0,
      "note": 59,
      "start": 16.4647,
      "duration": 0.3299,
      "velocity": 94,
      "chip": "ym2612"
    },
    {
      "channel": 2,
      "note": 99,
      "start": 16.4676,
      "duration": 0.0606,
      "velocity": 103,
      "chip": "ym2612"
    },
    {
      "channel": 0,
      "note": 56,
      "start": 16.8143,
      "duration": 0.147,
      "velocity": 94,
      "chip": "ym2612"
    },
    {
      "channel": 0,
      "note": 54,
      "start": 16.9973,
      "duration": 0.1473,
      "velocity": 94,
      "chip": "ym2612"
    },
    {
      "channel": 0,
      "note": 61,
      "start": 17.1806,
      "duration": 0.1473,
      "velocity": 94,
      "chip": "ym2612"
    },
    {
      "channel": 5,
      "note": 45,
      "start": 17.1834,
      "duration": 0.078,
      "velocity": 125,
      "chip": "ym2612"
    },
    {
      "channel": 2,
      "note": 99,
      "start": 17.1862,
      "duration": 0.0586,
      "velocity": 103,
      "chip": "ym2612"
    },
    {
      "channel": 3,
      "note": 71,
      "start": 17.1895,
      "duration": 2.8885,
      "velocity": 107,
      "chip": "ym2612"
    },
    {
      "channel": 0,
      "note": 56,
      "start": 17.364,
      "duration": 0.1472,
      "velocity": 94,
      "chip": "ym2612"
    },
    {
      "channel": 0,
      "note": 59,
      "start": 17.5308,
      "duration": 0.1305,
      "velocity": 94,
      "chip": "ym2612"
    },
    {
      "channel": 0,
      "note": 56,
      "start": 17.7143,
      "duration": 0.1803,
      "velocity": 94,
      "chip": "ym2612"
    },
    {
      "channel": 2,
      "note": 99,
      "start": 17.8981,
      "duration": 0.08,
      "velocity": 103,
      "chip": "ym2612"
    },
    {
      "channel": 0,
      "note": 54,
      "start": 18.081,
      "duration": 0.0802,
      "velocity": 94,
      "chip": "ym2612"
    },
    {
      "channel": 0,
      "note": 56,
      "start": 18.248,
      "duration": 0.4466,
      "velocity": 94,
      "chip": "ym2612"
    },
    {
      "channel": 2,
      "note": 99,
      "start": 18.6147,
      "duration": 0.0468,
      "velocity": 103,
      "chip": "ym2612"
    },
    {
      "channel": 0,
      "note": 56,
      "start": 18.7976,
      "duration": 0.047,
      "velocity": 94,
      "chip": "ym2612"
    },
    {
      "channel": 0,
      "note": 56,
      "start": 18.964,
      "duration": 0.0639,
      "velocity": 94,
      "chip": "ym2612"
    },
    {
      "channel": 0,
      "note": 56,
      "start": 19.1475,
      "duration": 0.1471,
      "velocity": 94,
      "chip": "ym2612"
    },
    {
      "channel": 0,
      "note": 59,
      "start": 19.331,
      "duration": 0.3302,
      "velocity": 94,
      "chip": "ym2612"
    },
    {
      "channel": 2,
      "note": 99,
      "start": 19.3339,
      "duration": 0.0443,
      "velocity": 103,
      "chip": "ym2612"
    },
    {
      "channel": 5,
      "note": 45,
      "start": 19.5144,
      "duration": 0.0804,
      "velocity": 125,
      "chip": "ym2612"
    },
    {
      "channel": 0,
      "note": 56,
      "start": 19.6809,
      "duration": 0.1471,
      "velocity": 94,
      "chip": "ym2612"
    },
    {
      "channel": 0,
      "note": 54,
      "start": 19.8641,
      "duration": 0.0805,
      "velocity": 94,
      "chip": "ym2612"
    },
    {
      "channel": 5,
      "note": 45,
      "start": 19.867,
      "duration": 0.0611,
      "velocity": 125,
      "chip": "ym2612"
    },
    {
      "channel": 0,
      "note": 54,
      "start": 20.048,
      "duration": 0.4132,
      "velocity": 94,
      "chip": "ym2612"
    },
    {
      "channel": 5,
      "note": 45,
      "start": 20.0511,
      "duration": 0.0772,
      "velocity": 125,
      "chip": "ym2612"
    },
    {
      "channel": 2,
      "note": 99,
      "start": 20.0539,
      "duration": 0.0744,
      "velocity": 103,
      "chip": "ym2612"
    },
    {
      "channel": 1,
      "note": 66,
      "start": 20.0574,
      "duration": 2.7371,
      "velocity": 107,
      "chip": "ym2612"
    },
    {
      "channel": 4,
      "note": 70,
      "start": 20.06,
      "duration": 2.7347,
      "velocity": 107,
      "chip": "ym2612"
    },
    {
      "channel": 0,
      "note": 54,
      "start": 20.581,
      "duration": 0.2137,
      "velocity": 94,
      "chip": "ym2612"
    },
    {
      "channel": 2,
      "note": 99,
      "start": 20.7647,
      "duration": 0.0468,
      "velocity": 103,
      "chip": "ym2612"
    },
    {
      "channel": 0,
      "note": 52,
      "start": 20.9476,
      "duration": 0.0803,
      "velocity": 94,
      "chip": "ym2612"
    },
    {
      "channel": 0,
      "note": 54,
      "start": 21.1143,
      "duration": 0.3636,
      "velocity": 94,
      "chip": "ym2612"
    },
    {
      "channel": 2,
      "note": 99,
      "start": 21.4813,
      "duration": 0.0468,
      "velocity": 103,
      "chip": "ym2612"
    },
    {
      "channel": 0,
      "note": 54,
      "start": 21.6642,
      "duration": 0.047,
      "velocity": 94,
      "chip": "ym2612"
    },
    {
      "channel": 0,
      "note": 54,
      "start": 21.8307,
      "duration": 0.0639,
      "velocity": 94,
      "chip": "ym2612"
    },
    {
      "channel": 0,
      "note": 54,
      "start": 22.0146,
      "duration": 0.1134,
      "velocity": 94,
      "chip": "ym2612"
    },
    {
      "channel": 0,
      "note": 56,
      "start": 22.1977,
      "duration": 0.3136,
      "velocity": 94,
      "chip": "ym2612"
    },
    {
      "channel": 2,
      "note": 99,
      "start": 22.2006,
      "duration": 0.0443,
      "velocity": 103,
      "chip": "ym2612"
    },
    {
      "channel": 5,
      "note": 45,
      "start": 22.365,
      "duration": 0.13,
      "velocity": 125,
      "chip": "ym2612"
    },
    {
      "channel": 3,
      "note": 112,
      "start": 22.3681,
      "duration": 0.1266,
      "velocity": 121,
      "chip": "ym2612"
    },
    {
      "channel": 0,
      "note": 59,
      "start": 22.5476,
      "duration": 0.147,
      "velocity": 94,
      "chip": "ym2612"
    },
    {
      "channel": 2,
      "note": 50,
      "start": 22.5507,
      "duration": 0.0943,
      "velocity": 119,
      "chip": "ym2612"
    },
    {
      "channel": 3,
      "note": 52,
      "start": 22.5533,
      "duration": 0.0914,
      "velocity": 119,
      "chip": "ym2612"
    },
    {
      "channel": 0,
      "note": 61,
      "start": 22.7307,
      "duration": 0.1473,
      "velocity": 94,
      "chip": "ym2612"
    },
    {
      "channel": 3,
      "note": 50,
      "start": 22.7335,
      "duration": 0.1112,
      "velocity": 119,
      "chip": "ym2612"
    },
    {
      "channel": 2,
      "note": 52,
      "start": 22.7361,
      "duration": 0.1088,
      "velocity": 119,
      "chip": "ym2612"
    },
    {
      "channel": 0,
      "note": 61,
      "start": 22.9155,
      "duration": 0.1458,
      "velocity": 94,
      "chip": "ym2612"
    },
    {
      "channel": 5,
      "note": 45,
      "start": 22.9182,
      "duration": 0.11,
      "velocity": 125,
      "chip": "ym2612"
    },
    {
      "channel": 1,
      "note": 68,
      "start": 22.9247,
      "duration": 8.5366,
      "velocity": 107,
      "chip": "ym2612"
    },
    {
      "channel": 4,
      "note": 73,
      "start": 22.9277,
      "duration": 5.6839,
      "velocity": 107,
      "chip": "ym2612"
    },
    {
      "channel": 0,
      "note": 56,
      "start": 23.0807,
      "duration": 0.1473,
      "velocity": 94,
      "chip": "ym2612"
    },
    {
      "channel": 0,
      "note": 59,
      "start": 23.264,
      "duration": 0.1473,
      "velocity": 94,
      "chip": "ym2612"
    },
    {
      "channel": 3,
      "note": 81,
      "start": 23.2672,
      "duration": 0.0941,
      "velocity": 103,
      "chip": "ym2612"
    },
    {
      "channel": 0,
      "note": 49,
      "start": 23.4475,
      "duration": 0.1471,
      "velocity": 94,
      "chip": "ym2612"
    },
    {
      "channel": 5,
      "note": 45,
      "start": 23.4502,
      "duration": 0.0781,
      "velocity": 125,
      "chip": "ym2612"
    },
    {
      "channel": 3,
      "note": 81,
      "start": 23.4529,
      "duration": 0.0752,
      "velocity": 103,
      "chip": "ym2612"
    },
    {
      "channel": 2,
      "note": 57,
      "start": 23.6319,
      "duration": 0.163,
      "velocity": 119,
      "chip": "ym2612"
    },
    {
      "channel": 0,
      "note": 47,
      "start": 23.7977,
      "duration": 0.0636,
      "velocity": 94,
      "chip": "ym2612"
    },
    {
      "channel": 0,
      "note": 49,
      "start": 23.981,
      "duration": 0.5136,
      "velocity": 94,
      "chip": "ym2612"
    },
    {
      "channel": 5,
      "note": 45,
      "start": 23.9837,
      "duration": 0.0946,
      "velocity": 125,
      "chip": "ym2612"
    },
    {
      "channel": 3,
      "note": 81,
      "start": 23.9864,
      "duration": 0.0917,
      "velocity": 103,
      "chip": "ym2612"
    },
    {
      "channel": 0,
      "note": 56,
      "start": 24.5146,
      "duration": 0.0633,
      "velocity": 94,
      "chip": "ym2612"
    },
    {
      "channel": 0,
      "note": 56,
      "start": 24.6974,
      "duration": 0.0639,
      "velocity": 94,
      "chip": "ym2612"
    },
    {
      "channel": 5,
      "note": 45,
      "start": 24.7,
      "duration": 0.0782,
      "velocity": 125,
      "chip": "ym2612"
    },
    {
      "channel": 3,
      "note": 81,
      "start": 24.7028,
      "duration": 0.0753,
      "velocity": 103,
      "chip": "ym2612"
    },
    {
      "channel": 2,
      "note": 92,
      "start": 24.7059,
      "duration": 0.0725,
      "velocity": 119,
      "chip": "ym2612"
    },
    {
      "channel": 0,
      "note": 56,
      "start": 24.8808,
      "duration": 0.1471,
      "velocity": 94,
      "chip": "ym2612"
    },
    {
      "channel": 3,
      "note": 81,
      "start": 24.8836,
      "duration": 0.0777,
      "velocity": 103,
      "chip": "ym2612"
    },
    {
      "channel": 0,
      "note": 59,
      "start": 25.0644,
      "duration": 0.3136,
      "velocity": 94,
      "chip": "ym2612"
    },
    {
      "channel": 5,
      "note": 57,
      "start": 25.0672,
      "duration": 0.2276,
      "velocity": 119,
      "chip": "ym2612"
    },
    {
      "channel": 3,
      "note": 81,
      "start": 25.2313,
      "duration": 0.0633,
      "velocity": 103,
      "chip": "ym2612"
    },
    {
      "channel": 2,
      "note": 90,
      "start": 25.234,
      "duration": 0.0942,
      "velocity": 119,
      "chip": "ym2612"
    },
    {
      "channel": 0,
      "note": 56,
      "start": 25.4144,
      "duration": 0.1469,
      "velocity": 94,
      "chip": "ym2612"
    },
    {
      "channel": 3,
      "note": 97,
      "start": 25.4177,
      "duration": 0.327,
      "velocity": 121,
      "chip": "ym2612"
    },
    {
      "channel": 0,
      "note": 54,
      "start": 25.5973,
      "duration": 0.1473,
      "velocity": 94,
      "chip": "ym2612"
    },
    {
      "channel": 0,
      "note": 49,
      "start": 25.781,
      "duration": 0.4137,
      "velocity": 94,
      "chip": "ym2612"
    },
    {
      "channel": 5,
      "note": 45,
      "start": 25.7838,
      "duration": 0.0777,
      "velocity": 125,
      "chip": "ym2612"
    },
    {
      "channel": 2,
      "note": 92,
      "start": 25.7869,
      "duration": 0.1413,
      "velocity": 119,
      "chip": "ym2612"
    },
    {
      "channel": 3,
      "note": 81,
      "start": 26.1319,
      "duration": 0.1128,
      "velocity": 103,
      "chip": "ym2612"
    },
    {
      "channel": 0,
      "note": 49,
      "start": 26.3146,
      "duration": 0.1467,
      "velocity": 94,
      "chip": "ym2612"
    },
    {
      "channel": 5,
      "note": 45,
      "start": 26.3172,
      "duration": 0.0777,
      "velocity": 125,
      "chip": "ym2612"
    },
    {
      "channel": 3,
      "note": 81,
      "start": 26.32,
      "duration": 0.0747,
      "velocity": 103,
      "chip": "ym2612"
    },
    {
      "channel": 2,
      "note": 85,
      "start": 26.3232,
      "duration": 0.0719,
      "velocity": 119,
      "chip": "ym2612"
    },
    {
      "channel": 3,
      "note": 57,
      "start": 26.498,
      "duration": 0.1134,
      "velocity": 119,
      "chip": "ym2612"
    },
    {
      "channel": 0,
      "note": 47,
      "start": 26.6643,
      "duration": 0.0969,
      "velocity": 94,
      "chip": "ym2612"
    },
    {
      "channel": 0,
      "note": 49,
      "start": 26.8476,
      "duration": 0.4136,
      "velocity": 94,
      "chip": "ym2612"
    },
    {
      "channel": 5,
      "note": 45,
      "start": 26.8503,
      "duration": 0.0779,
      "velocity": 125,
      "chip": "ym2612"
    },
    {
      "channel": 2,
      "note": 81,
      "start": 26.8532,
      "duration": 0.0751,
      "velocity": 103,
      "chip": "ym2612"
    },
    {
      "channel": 0,
      "note": 56,
      "start": 27.381,
      "duration": 0.0637,
      "velocity": 94,
      "chip": "ym2612"
    },
    {
      "channel": 0,
      "note": 56,
      "start": 27.5639,
      "duration": 0.064,
      "velocity": 94,
      "chip": "ym2612"
    },
    {
      "channel": 5,
      "note": 45,
      "start": 27.567,
      "duration": 0.0778,
      "velocity": 125,
      "chip": "ym2612"
    },
    {
      "channel": 2,
      "note": 81,
      "start": 27.5699,
      "duration": 0.0751,
      "velocity": 103,
      "chip": "ym2612"
    },
    {
      "channel": 0,
      "note": 56,
      "start": 27.7474,
      "duration": 0.1472,
      "velocity": 94,
      "chip": "ym2612"
    },
    {
      "channel": 2,
      "note": 81,
      "start": 27.7506,
      "duration": 0.1609,
      "velocity": 103,
      "chip": "ym2612"
    },
    {
      "channel": 0,
      "note": 59,
      "start": 27.9147,
      "duration": 0.33,
      "velocity": 94,
      "chip": "ym2612"
    },
    {
      "channel": 3,
      "note": 57,
      "start": 27.9173,
      "duration": 0.1774,
      "velocity": 119,
      "chip": "ym2612"
    },
    {
      "channel": 2,
      "note": 81,
      "start": 28.0983,
      "duration": 0.0632,
      "velocity": 103,
      "chip": "ym2612"
    },
    {
      "channel": 0,
      "note": 56,
      "start": 28.281,
      "duration": 0.1469,
      "velocity": 94,
      "chip": "ym2612"
    },
    {
      "channel": 5,
      "note": 97,
      "start": 28.2839,
      "duration": 0.3278,
      "velocity": 121,
      "chip": "ym2612"
    },
    {
      "channel": 0,
      "note": 54,
      "start": 28.4639,
      "duration": 0.1474,
      "velocity": 94,
      "chip": "ym2612"
    },
    {
      "channel": 3,
      "note": 85,
      "start": 28.4676,
      "duration": 0.0772,
      "velocity": 119,
      "chip": "ym2612"
    },
    {
      "channel": 0,
      "note": 61,
      "start": 28.6306,
      "duration": 0.1473,
      "velocity": 94,
      "chip": "ym2612"
    },
    {
      "channel": 2,
      "note": 45,
      "start": 28.6334,
      "duration": 0.0948,
      "velocity": 125,
      "chip": "ym2612"
    },
    {
      "channel": 3,
      "note": 87,
      "start": 28.6364,
      "duration": 0.0584,
      "velocity": 119,
      "chip": "ym2612"
    },
    {
      "channel": 4,
      "note": 71,
      "start": 28.6394,
      "duration": 2.8887,
      "velocity": 107,
      "chip": "ym2612"
    },
    {
      "channel": 0,
      "note": 56,
      "start": 28.8139,
      "duration": 0.1474,
      "velocity": 94,
      "chip": "ym2612"
    },
    {
      "channel": 3,
      "note": 88,
      "start": 28.8168,
      "duration": 0.0612,
      "velocity": 119,
      "chip": "ym2612"
    },
    {
      "channel": 0,
      "note": 59,
      "start": 28.9974,
      "duration": 0.1138,
      "velocity": 94,
      "chip": "ym2612"
    },
    {
      "channel": 5,
      "note": 81,
      "start": 29.001,
      "duration": 0.1106,
      "velocity": 103,
      "chip": "ym2612"
    },
    {
      "channel": 3,
      "note": 90,
      "start": 29.0039,
      "duration": 0.6076,
      "velocity": 119,
      "chip": "ym2612"
    },
    {
      "channel": 0,
      "note": 56,
      "start": 29.1809,
      "duration": 0.1637,
      "velocity": 94,
      "chip": "ym2612"
    },
    {
      "channel": 2,
      "note": 45,
      "start": 29.1837,
      "duration": 0.0445,
      "velocity": 125,
      "chip": "ym2612"
    },
    {
      "channel": 5,
      "note": 81,
      "start": 29.1866,
      "duration": 0.0749,
      "velocity": 103,
      "chip": "ym2612"
    },
    {
      "channel": 2,
      "note": 57,
      "start": 29.3481,
      "duration": 0.1467,
      "velocity": 119,
      "chip": "ym2612"
    },
    {
      "channel": 0,
      "note": 54,
      "start": 29.5309,
      "duration": 0.0804,
      "velocity": 94,
      "chip": "ym2612"
    },
    {
      "channel": 0,
      "note": 56,
      "start": 29.7146,
      "duration": 0.4466,
      "velocity": 94,
      "chip": "ym2612"
    },
    {
      "channel": 5,
      "note": 45,
      "start": 29.7176,
      "duration": 0.0772,
      "velocity": 125,
      "chip": "ym2612"
    },
    {
      "channel": 2,
      "note": 81,
      "start": 29.7205,
      "duration": 0.0744,
      "velocity": 103,
      "chip": "ym2612"
    },
    {
      "channel": 0,
      "note": 56,
      "start": 30.2476,
      "duration": 0.0636,
      "velocity": 94,
      "chip": "ym2612"
    },
    {
      "channel": 0,
      "note": 56,
      "start": 30.4307,
      "duration": 0.0473,
      "velocity": 94,
      "chip": "ym2612"
    },
    {
      "channel": 5,
      "note": 45,
      "start": 30.4336,
      "duration": 0.0446,
      "velocity": 125,
      "chip": "ym2612"
    },
    {
      "channel": 2,
      "note": 81,
      "start": 30.4366,
      "duration": 0.1082,
      "velocity": 103,
      "chip": "ym2612"
    },
    {
      "channel": 3,
      "note": 92,
      "start": 30.4395,
      "duration": 0.0718,
      "velocity": 119,
      "chip": "ym2612"
    },
    {
      "channel": 0,
      "note": 56,
      "start": 30.6141,
      "duration": 0.1472,
      "velocity": 94,
      "chip": "ym2612"
    },
    {
      "channel": 5,
      "note": 45,
      "start": 30.6168,
      "duration": 0.0447,
      "velocity": 125,
      "chip": "ym2612"
    },
    {
      "channel": 2,
      "note": 81,
      "start": 30.6198,
      "duration": 0.075,
      "velocity": 103,
      "chip": "ym2612"
    },
    {
      "channel": 0,
      "note": 59,
      "start": 30.781,
      "duration": 0.3303,
      "velocity": 94,
      "chip": "ym2612"
    },
    {
      "channel": 3,
      "note": 57,
      "start": 30.7838,
      "duration": 0.1109,
      "velocity": 119,
      "chip": "ym2612"
    },
    {
      "channel": 2,
      "note": 81,
      "start": 30.9649,
      "duration": 0.0633,
      "velocity": 103,
      "chip": "ym2612"
    },
    {
      "channel": 5,
      "note": 90,
      "start": 30.9676,
      "duration": 0.0772,
      "velocity": 119,
      "chip": "ym2612"
    },
    {
      "channel": 0,
      "note": 56,
      "start": 31.1477,
      "duration": 0.1469,
      "velocity": 94,
      "chip": "ym2612"
    },
    {
      "channel": 3,
      "note": 97,
      "start": 31.1511,
      "duration": 0.2936,
      "velocity": 121,
      "chip": "ym2612"
    },
    {
      "channel": 0,
      "note": 54,
      "start": 31.3309,
      "duration": 0.0803,
      "velocity": 94,
      "chip": "ym2612"
    },
    {
      "channel": 0,
      "note": 54,
      "start": 31.498,
      "duration": 0.4133,
      "velocity": 94,
      "chip": "ym2612"
    },
    {
      "channel": 2,
      "note": 45,
      "start": 31.5013,
      "duration": 0.0937,
      "velocity": 125,
      "chip": "ym2612"
    },
    {
      "channel": 5,
      "note": 85,
      "start": 31.5046,
      "duration": 0.0903,
      "velocity": 119,
      "chip": "ym2612"
    },
    {
      "channel": 1,
      "note": 66,
      "start": 31.5078,
      "duration": 2.7369,
      "velocity": 107,
      "chip": "ym2612"
    },
    {
      "channel": 3,
      "note": 70,
      "start": 31.5106,
      "duration": 2.7341,
      "velocity": 107,
      "chip": "ym2612"
    },
    {
      "channel": 4,
      "note": 81,
      "start": 31.8652,
      "duration": 0.0796,
      "velocity": 103,
      "chip": "ym2612"
    },
    {
      "channel": 0,
      "note": 54,
      "start": 32.031,
      "duration": 0.2137,
      "velocity": 94,
      "chip": "ym2612"
    },
    {
      "channel": 2,
      "note": 45,
      "start": 32.0338,
      "duration": 0.0611,
      "velocity": 125,
      "chip": "ym2612"
    },
    {
      "channel": 4,
      "note": 81,
      "start": 32.0367,
      "duration": 0.1748,
      "velocity": 103,
      "chip": "ym2612"
    },
    {
      "channel": 5,
      "note": 57,
      "start": 32.2146,
      "duration": 0.1135,
      "velocity": 119,
      "chip": "ym2612"
    },
    {
      "channel": 0,
      "note": 52,
      "start": 32.3976,
      "duration": 0.0803,
      "velocity": 94,
      "chip": "ym2612"
    },
    {
      "channel": 0,
      "note": 54,
      "start": 32.581,
      "duration": 0.347,
      "velocity": 94,
      "chip": "ym2612"
    },
    {
      "channel": 2,
      "note": 45,
      "start": 32.5839,
      "duration": 0.0776,
      "velocity": 125,
      "chip": "ym2612"
    },
    {
      "channel": 4,
      "note": 81,
      "start": 32.5868,
      "duration": 0.0746,
      "velocity": 103,
      "chip": "ym2612"
    },
    {
      "channel": 0,
      "note": 54,
      "start": 33.1142,
      "duration": 0.0637,
      "velocity": 94,
      "chip": "ym2612"
    },
    {
      "channel": 0,
      "note": 54,
      "start": 33.2973,
      "duration": 0.0474,
      "velocity": 94,
      "chip": "ym2612"
    },
    {
      "channel": 2,
      "note": 45,
      "start": 33.3,
      "duration": 0.0783,
      "velocity": 125,
      "chip": "ym2612"
    },
    {
      "channel": 4,
      "note": 81,
      "start": 33.3028,
      "duration": 0.0753,
      "velocity": 103,
      "chip": "ym2612"
    },
    {
      "channel": 0,
      "note": 54,
      "start": 33.4646,
      "duration": 0.13,
      "velocity": 94,
      "chip": "ym2612"
    },
    {
      "channel": 4,
      "note": 81,
      "start": 33.4676,
      "duration": 0.1772,
      "velocity": 103,
      "chip": "ym2612"
    },
    {
      "channel": 0,
      "note": 56,
      "start": 33.6477,
      "duration": 0.3302,
      "velocity": 94,
      "chip": "ym2612"
    },
    {
      "channel": 5,
      "note": 57,
      "start": 33.651,
      "duration": 0.0938,
      "velocity": 119,
      "chip": "ym2612"
    },
    {
      "channel": 2,
      "note": 45,
      "start": 33.8313,
      "duration": 0.047,
      "velocity": 125,
      "chip": "ym2612"
    },
    {
      "channel": 4,
      "note": 81,
      "start": 33.8346,
      "duration": 0.0435,
      "velocity": 103,
      "chip": "ym2612"
    },
    {
      "channel": 0,
      "note": 59,
      "start": 34.0144,
      "duration": 0.147,
      "velocity": 94,
      "chip": "ym2612"
    },
    {
      "channel": 5,
      "note": 97,
      "start": 34.0176,
      "duration": 0.3105,
      "velocity": 121,
      "chip": "ym2612"
    },
    {
      "channel": 0,
      "note": 61,
      "start": 34.1807,
      "duration": 0.1473,
      "velocity": 94,
      "chip": "ym2612"
    },
    {
      "channel": 2,
      "note": 45,
      "start": 34.1834,
      "duration": 0.0617,
      "velocity": 125,
      "chip": "ym2612"
    },
    {
      "channel": 0,
      "note": 61,
      "start": 34.3655,
      "duration": 0.1457,
      "velocity": 94,
      "chip": "ym2612"
    },
    {
      "channel": 2,
      "note": 45,
      "start": 34.3685,
      "duration": 0.0931,
      "velocity": 125,
      "chip": "ym2612"
    },
    {
      "channel": 1,
      "note": 68,
      "start": 34.3783,
      "duration": 8.5497,
      "velocity": 107,
      "chip": "ym2612"
    },
    {
      "channel": 3,
      "note": 73,
      "start": 34.3813,
      "duration": 5.6801,
      "velocity": 107,
      "chip": "ym2612"
    },
    {
      "channel": 0,
      "note": 56,
      "start": 34.5474,
      "duration": 0.1472,
      "velocity": 94,
      "chip": "ym2612"
    },
    {
      "channel": 0,
      "note": 59,
      "start": 34.7307,
      "duration": 0.1472,
      "velocity": 94,
      "chip": "ym2612"
    },
    {
      "channel": 4,
      "note": 81,
      "start": 34.7337,
      "duration": 0.0778,
      "velocity": 103,
      "chip": "ym2612"
    },
    {
      "channel": 0,
      "note": 49,
      "start": 34.8974,
      "duration": 0.1472,
      "velocity": 94,
      "chip": "ym2612"
    },
    {
      "channel": 2,
      "note": 45,
      "start": 34.9002,
      "duration": 0.0947,
      "velocity": 125,
      "chip": "ym2612"
    },
    {
      "channel": 4,
      "note": 81,
      "start": 34.903,
      "duration": 0.0917,
      "velocity": 103,
      "chip": "ym2612"
    },
    {
      "channel": 5,
      "note": 57,
      "start": 35.0814,
      "duration": 0.1801,
      "velocity": 119,
      "chip": "ym2612"
    },
    {
      "channel": 0,
      "note": 47,
      "start": 35.2644,
      "duration": 0.0469,
      "velocity": 94,
      "chip": "ym2612"
    },
    {
      "channel": 0,
      "note": 49,
      "start": 35.4476,
      "duration": 0.497,
      "velocity": 94,
      "chip": "ym2612"
    },
    {
      "channel": 2,
      "note": 45,
      "start": 35.4504,
      "duration": 0.0779,
      "velocity": 125,
      "chip": "ym2612"
    },
    {
      "channel": 4,
      "note": 81,
      "start": 35.4531,
      "duration": 0.0749,
      "velocity": 103,
      "chip": "ym2612"
    },
    {
      "channel": 0,
      "note": 56,
      "start": 35.9813,
      "duration": 0.0466,
      "velocity": 94,
      "chip": "ym2612"
    },
    {
      "channel": 0,
      "note": 56,
      "start": 36.1639,
      "duration": 0.0473,
      "velocity": 94,
      "chip": "ym2612"
    },
    {
      "channel": 2,
      "note": 45,
      "start": 36.1667,
      "duration": 0.0782,
      "velocity": 125,
      "chip": "ym2612"
    },
    {
      "channel": 4,
      "note": 81,
      "start": 36.1695,
      "duration": 0.0753,
      "velocity": 103,
      "chip": "ym2612"
    },
    {
      "channel": 5,
      "note": 92,
      "start": 36.1729,
      "duration": 0.1053,
      "velocity": 119,
      "chip": "ym2612"
    },
    {
      "channel": 0,
      "note": 56,
      "start": 36.3308,
      "duration": 0.1471,
      "velocity": 94,
      "chip": "ym2612"
    },
    {
      "channel": 4,
      "note": 81,
      "start": 36.3336,
      "duration": 0.0945,
      "velocity": 103,
      "chip": "ym2612"
    },
    {
      "channel": 0,
      "note": 59,
      "start": 36.5144,
      "duration": 0.3302,
      "velocity": 94,
      "chip": "ym2612"
    },
    {
      "channel": 2,
      "note": 57,
      "start": 36.5173,
      "duration": 0.2277,
      "velocity": 119,
      "chip": "ym2612"
    },
    {
      "channel": 4,
      "note": 81,
      "start": 36.698,
      "duration": 0.0468,
      "velocity": 103,
      "chip": "ym2612"
    },
    {
      "channel": 5,
      "note": 90,
      "start": 36.7007,
      "duration": 0.1107,
      "velocity": 119,
      "chip": "ym2612"
    },
    {
      "channel": 0,
      "note": 56,
      "start": 36.881,
      "duration": 0.1303,
      "velocity": 94,
      "chip": "ym2612"
    },
    {
      "channel": 4,
      "note": 97,
      "start": 36.8844,
      "duration": 0.3104,
      "velocity": 121,
      "chip": "ym2612"
    },
    {
      "channel": 0,
      "note": 54,
      "start": 37.0474,
      "duration": 0.1472,
      "velocity": 94,
      "chip": "ym2612"
    },
    {
      "channel": 0,
      "note": 49,
      "start": 37.231,
      "duration": 0.4136,
      "velocity": 94,
      "chip": "ym2612"
    },
    {
      "channel": 2,
      "note": 45,
      "start": 37.2338,
      "duration": 0.0777,
      "velocity": 125,
      "chip": "ym2612"
    },
    {
      "channel": 5,
      "note": 92,
      "start": 37.2367,
      "duration": 0.1081,
      "velocity": 119,
      "chip": "ym2612"
    },
    {
      "channel": 4,
      "note": 81,
      "start": 37.5819,
      "duration": 0.1295,
      "velocity": 103,
      "chip": "ym2612"
    },
    {
      "channel": 0,
      "note": 49,
      "start": 37.7647,
      "duration": 0.1466,
      "velocity": 94,
      "chip": "ym2612"
    },
    {
      "channel": 2,
      "note": 45,
      "start": 37.7673,
      "duration": 0.0944,
      "velocity": 125,
      "chip": "ym2612"
    },
    {
      "channel": 4,
      "note": 81,
      "start": 37.7702,
      "duration": 0.0913,
      "velocity": 103,
      "chip": "ym2612"
    },
    {
      "channel": 5,
      "note": 85,
      "start": 37.7732,
      "duration": 0.105,
      "velocity": 119,
      "chip": "ym2612"
    },
    {
      "channel": 4,
      "note": 57,
      "start": 37.948,
      "duration": 0.1134,
      "velocity": 119,
      "chip": "ym2612"
    },
    {
      "channel": 0,
      "note": 47,
      "start": 38.1309,
      "duration": 0.0803,
      "velocity": 94,
      "chip": "ym2612"
    },
    {
      "channel": 0,
      "note": 49,
      "start": 38.2976,
      "duration": 0.4303,
      "velocity": 94,
      "chip": "ym2612"
    },
    {
      "channel": 2,
      "note": 45,
      "start": 38.3004,
      "duration": 0.0946,
      "velocity": 125,
      "chip": "ym2612"
    },
    {
      "channel": 5,
      "note": 81,
      "start": 38.3034,
      "duration": 0.0915,
      "velocity": 103,
      "chip": "ym2612"
    },
    {
      "channel": 0,
      "note": 56,
      "start": 38.8476,
      "duration": 0.047,
      "velocity": 94,
      "chip": "ym2612"
    },
    {
      "channel": 0,
      "note": 56,
      "start": 39.014,
      "duration": 0.0639,
      "velocity": 94,
      "chip": "ym2612"
    },
    {
      "channel": 2,
      "note": 45,
      "start": 39.0168,
      "duration": 0.0948,
      "velocity": 125,
      "chip": "ym2612"
    },
    {
      "channel": 5,
      "note": 81,
      "start": 39.0196,
      "duration": 0.0918,
      "velocity": 103,
      "chip": "ym2612"
    },
    {
      "channel": 0,
      "note": 56,
      "start": 39.1975,
      "duration": 0.1471,
      "velocity": 94,
      "chip": "ym2612"
    },
    {
      "channel": 5,
      "note": 81,
      "start": 39.2006,
      "duration": 0.1776,
      "velocity": 103,
      "chip": "ym2612"
    },
    {
      "channel": 0,
      "note": 59,
      "start": 39.3815,
      "duration": 0.3298,
      "velocity": 94,
      "chip": "ym2612"
    },
    {
      "channel": 4,
      "note": 57,
      "start": 39.3842,
      "duration": 0.1773,
      "velocity": 119,
      "chip": "ym2612"
    },
    {
      "channel": 5,
      "note": 81,
      "start": 39.5649,
      "duration": 0.0465,
      "velocity": 103,
      "chip": "ym2612"
    },
    {
      "channel": 0,
      "note": 56,
      "start": 39.731,
      "duration": 0.1469,
      "velocity": 94,
      "chip": "ym2612"
    },
    {
      "channel": 2,
      "note": 97,
      "start": 39.7339,
      "duration": 0.3278,
      "velocity": 121,
      "chip": "ym2612"
    },
    {
      "channel": 0,
      "note": 54,
      "start": 39.914,
      "duration": 0.1473,
      "velocity": 94,
      "chip": "ym2612"
    },
    {
      "channel": 4,
      "note": 85,
      "start": 39.9172,
      "duration": 0.1109,
      "velocity": 119,
      "chip": "ym2612"
    },
    {
      "channel": 0,
      "note": 61,
      "start": 40.0973,
      "duration": 0.1473,
      "velocity": 94,
      "chip": "ym2612"
    },
    {
      "channel": 5,
      "note": 45,
      "start": 40.1005,
      "duration": 0.0777,
      "velocity": 125,
      "chip": "ym2612"
    },
    {
      "channel": 4,
      "note": 87,
      "start": 40.1035,
      "duration": 0.0746,
      "velocity": 119,
      "chip": "ym2612"
    },
    {
      "channel": 3,
      "note": 71,
      "start": 40.1065,
      "duration": 2.8882,
      "velocity": 107,
      "chip": "ym2612"
    },
    {
      "channel": 0,
      "note": 56,
      "start": 40.2807,
      "duration": 0.1472,
      "velocity": 94,
      "chip": "ym2612"
    },
    {
      "channel": 4,
      "note": 88,
      "start": 40.2836,
      "duration": 0.0779,
      "velocity": 119,
      "chip": "ym2612"
    },
    {
      "channel": 0,
      "note": 59,
      "start": 40.4474,
      "duration": 0.1138,
      "velocity": 94,
      "chip": "ym2612"
    },
    {
      "channel": 2,
      "note": 81,
      "start": 40.451,
      "duration": 0.1106,
      "velocity": 103,
      "chip": "ym2612"
    },
    {
      "channel": 4,
      "note": 90,
      "start": 40.4539,
      "duration": 0.1408,
      "velocity": 119,
      "chip": "ym2612"
    },
    {
      "channel": 0,
      "note": 56,
      "start": 40.631,
      "duration": 0.1803,
      "velocity": 94,
      "chip": "ym2612"
    },
    {
      "channel": 5,
      "note": 45,
      "start": 40.6336,
      "duration": 0.0612,
      "velocity": 125,
      "chip": "ym2612"
    },
    {
      "channel": 2,
      "note": 81,
      "start": 40.6367,
      "duration": 0.0749,
      "velocity": 103,
      "chip": "ym2612"
    },
    {
      "channel": 4,
      "note": 57,
      "start": 40.8146,
      "duration": 0.1468,
      "velocity": 119,
      "chip": "ym2612"
    },
    {
      "channel": 0,
      "note": 54,
      "start": 40.9976,
      "duration": 0.0803,
      "velocity": 94,
      "chip": "ym2612"
    },
    {
      "channel": 0,
      "note": 56,
      "start": 41.1647,
      "duration": 0.4466,
      "velocity": 94,
      "chip": "ym2612"
    },
    {
      "channel": 5,
      "note": 45,
      "start": 41.1676,
      "duration": 0.0939,
      "velocity": 125,
      "chip": "ym2612"
    },
    {
      "channel": 2,
      "note": 81,
      "start": 41.1704,
      "duration": 0.0912,
      "velocity": 103,
      "chip": "ym2612"
    },
    {
      "channel": 0,
      "note": 56,
      "start": 41.7142,
      "duration": 0.047,
      "velocity": 94,
      "chip": "ym2612"
    },
    {
      "channel": 0,
      "note": 56,
      "start": 41.8807,
      "duration": 0.0639,
      "velocity": 94,
      "chip": "ym2612"
    },
    {
      "channel": 5,
      "note": 45,
      "start": 41.8836,
      "duration": 0.0613,
      "velocity": 125,
      "chip": "ym2612"
    },
    {
      "channel": 2,
      "note": 81,
      "start": 41.8866,
      "duration": 0.1083,
      "velocity": 103,
      "chip": "ym2612"
    },
    {
      "channel": 4,
      "note": 92,
      "start": 41.8898,
      "duration": 0.1383,
      "velocity": 119,
      "chip": "ym2612"
    },
    {
      "channel": 0,
      "note": 56,
      "start": 42.0641,
      "duration": 0.1471,
      "velocity": 94,
      "chip": "ym2612"
    },
    {
      "channel": 5,
      "note": 45,
      "start": 42.0668,
      "duration": 0.0613,
      "velocity": 125,
      "chip": "ym2612"
    },
    {
      "channel": 2,
      "note": 81,
      "start": 42.0698,
      "duration": 0.0751,
      "velocity": 103,
      "chip": "ym2612"
    },
    {
      "channel": 0,
      "note": 59,
      "start": 42.2477,
      "duration": 0.3135,
      "velocity": 94,
      "chip": "ym2612"
    },
    {
      "channel": 4,
      "note": 57,
      "start": 42.2506,
      "duration": 0.1109,
      "velocity": 119,
      "chip": "ym2612"
    },
    {
      "channel": 2,
      "note": 81,
      "start": 42.4153,
      "duration": 0.0629,
      "velocity": 103,
      "chip": "ym2612"
    },
    {
      "channel": 5,
      "note": 90,
      "start": 42.4182,
      "duration": 0.0933,
      "velocity": 119,
      "chip": "ym2612"
    },
    {
      "channel": 0,
      "note": 56,
      "start": 42.5977,
      "duration": 0.1469,
      "velocity": 94,
      "chip": "ym2612"
    },
    {
      "channel": 4,
      "note": 97,
      "start": 42.6008,
      "duration": 0.2939,
      "velocity": 121,
      "chip": "ym2612"
    },
    {
      "channel": 0,
      "note": 54,
      "start": 42.7808,
      "duration": 0.0805,
      "velocity": 94,
      "chip": "ym2612"
    },
    {
      "channel": 0,
      "note": 54,
      "start": 42.9646,
      "duration": 0.4134,
      "velocity": 94,
      "chip": "ym2612"
    },
    {
      "channel": 2,
      "note": 45,
      "start": 42.9676,
      "duration": 0.0773,
      "velocity": 125,
      "chip": "ym2612"
    },
    {
      "channel": 5,
      "note": 85,
      "start": 42.9705,
      "duration": 0.0743,
      "velocity": 119,
      "chip": "ym2612"
    },
    {
      "channel": 1,
      "note": 66,
      "start": 42.9737,
      "duration": 2.721,
      "velocity": 107,
      "chip": "ym2612"
    },
    {
      "channel": 4,
      "note": 70,
      "start": 42.9765,
      "duration": 2.7184,
      "velocity": 107,
      "chip": "ym2612"
    },
    {
      "channel": 3,
      "note": 81,
      "start": 43.3149,
      "duration": 0.0965,
      "velocity": 103,
      "chip": "ym2612"
    },
    {
      "channel": 0,
      "note": 54,
      "start": 43.4976,
      "duration": 0.1971,
      "velocity": 94,
      "chip": "ym2612"
    },
    {
      "channel": 2,
      "note": 45,
      "start": 43.5004,
      "duration": 0.0611,
      "velocity": 125,
      "chip": "ym2612"
    },
    {
      "channel": 3,
      "note": 81,
      "start": 43.5032,
      "duration": 0.1748,
      "velocity": 103,
      "chip": "ym2612"
    },
    {
      "channel": 5,
      "note": 87,
      "start": 43.5059,
      "duration": 0.0723,
      "velocity": 119,
      "chip": "ym2612"
    },
    {
      "channel": 2,
      "note": 57,
      "start": 43.6812,
      "duration": 0.1135,
      "velocity": 119,
      "chip": "ym2612"
    },
    {
      "channel": 0,
      "note": 52,
      "start": 43.8476,
      "duration": 0.0969,
      "velocity": 94,
      "chip": "ym2612"
    },
    {
      "channel": 0,
      "note": 54,
      "start": 44.031,
      "duration": 0.3636,
      "velocity": 94,
      "chip": "ym2612"
    },
    {
      "channel": 5,
      "note": 45,
      "start": 44.0343,
      "duration": 0.0939,
      "velocity": 125,
      "chip": "ym2612"
    },
    {
      "channel": 3,
      "note": 81,
      "start": 44.0371,
      "duration": 0.0909,
      "velocity": 103,
      "chip": "ym2612"
    },
    {
      "channel": 2,
      "note": 83,
      "start": 44.0402,
      "duration": 0.1047,
      "velocity": 119,
      "chip": "ym2612"
    },
    {
      "channel": 0,
      "note": 54,
      "start": 44.5643,
      "duration": 0.0637,
      "velocity": 94,
      "chip": "ym2612"
    },
    {
      "channel": 0,
      "note": 54,
      "start": 44.7473,
      "duration": 0.0641,
      "velocity": 94,
      "chip": "ym2612"
    },
    {
      "channel": 5,
      "note": 45,
      "start": 44.75,
      "duration": 0.0783,
      "velocity": 125,
      "chip": "ym2612"
    },
    {
      "channel": 3,
      "note": 81,
      "start": 44.7527,
      "duration": 0.0754,
      "velocity": 103,
      "chip": "ym2612"
    },
    {
      "channel": 2,
      "note": 80,
      "start": 44.7557,
      "duration": 0.056,
      "velocity": 119,
      "chip": "ym2612"
    },
    {
      "channel": 0,
      "note": 54,
      "start": 44.9311,
      "duration": 0.1136,
      "velocity": 94,
      "chip": "ym2612"
    },
    {
      "channel": 3,
      "note": 81,
      "start": 44.9341,
      "duration": 0.1772,
      "velocity": 103,
      "chip": "ym2612"
    },
    {
      "channel": 0,
      "note": 56,
      "start": 45.1143,
      "duration": 0.3137,
      "velocity": 94,
      "chip": "ym2612"
    },
    {
      "channel": 2,
      "note": 57,
      "start": 45.1178,
      "duration": 0.077,
      "velocity": 119,
      "chip": "ym2612"
    },
    {
      "channel": 5,
      "note": 83,
      "start": 45.1208,
      "duration": 0.1073,
      "velocity": 119,
      "chip": "ym2612"
    },
    {
      "channel": 3,
      "note": 45,
      "start": 45.2813,
      "duration": 0.0634,
      "velocity": 125,
      "chip": "ym2612"
    },
    {
      "channel": 2,
      "note": 81,
      "start": 45.2848,
      "duration": 0.0602,
      "velocity": 103,
      "chip": "ym2612"
    },
    {
      "channel": 0,
      "note": 59,
      "start": 45.4643,
      "duration": 0.1469,
      "velocity": 94,
      "chip": "ym2612"
    },
    {
      "channel": 5,
      "note": 97,
      "start": 45.4676,
      "duration": 0.3273,
      "velocity": 121,
      "chip": "ym2612"
    },
    {
      "channel": 3,
      "note": 85,
      "start": 45.4705,
      "duration": 0.0575,
      "velocity": 119,
      "chip": "ym2612"
    },
    {
      "channel": 0,
      "note": 61,
      "start": 45.6473,
      "duration": 0.1473,
      "velocity": 94,
      "chip": "ym2612"
    },
    {
      "channel": 2,
      "note": 45,
      "start": 45.6501,
      "duration": 0.045,
      "velocity": 125,
      "chip": "ym2612"
    },
    {
      "channel": 0,
      "note": 61,
      "start": 45.8322,
      "duration": 0.1457,
      "velocity": 94,
      "chip": "ym2612"
    },
    {
      "channel": 2,
      "note": 45,
      "start": 45.8351,
      "duration": 0.0765,
      "velocity": 125,
      "chip": "ym2612"
    },
    {
      "channel": 1,
      "note": 68,
      "start": 45.8453,
      "duration": 8.5327,
      "velocity": 107,
      "chip": "ym2612"
    },
    {
      "channel": 4,
      "note": 73,
      "start": 45.8483,
      "duration": 5.6799,
      "velocity": 107,
      "chip": "ym2612"
    },
    {
      "channel": 0,
      "note": 56,
      "start": 45.9973,
      "duration": 0.1473,
      "velocity": 94,
      "chip": "ym2612"
    },
    {
      "channel": 0,
      "note": 59,
      "start": 46.1807,
      "duration": 0.1472,
      "velocity": 94,
      "chip": "ym2612"
    },
    {
      "channel": 3,
      "note": 81,
      "start": 46.1838,
      "duration": 0.0775,
      "velocity": 103,
      "chip": "ym2612"
    },
    {
      "channel": 5,
      "note": 73,
      "start": 46.1871,
      "duration": 0.0578,
      "velocity": 119,
      "chip": "ym2612"
    },
    {
      "channel": 0,
      "note": 49,
      "start": 46.3642,
      "duration": 0.1471,
      "velocity": 94,
      "chip": "ym2612"
    },
    {
      "channel": 2,
      "note": 45,
      "start": 46.367,
      "duration": 0.0781,
      "velocity": 125,
      "chip": "ym2612"
    },
    {
      "channel": 3,
      "note": 81,
      "start": 46.3697,
      "duration": 0.0751,
      "velocity": 103,
      "chip": "ym2612"
    },
    {
      "channel": 5,
      "note": 57,
      "start": 46.5481,
      "duration": 0.1634,
      "velocity": 119,
      "chip": "ym2612"
    },
    {
      "channel": 3,
      "note": 73,
      "start": 46.5513,
      "duration": 0.0768,
      "velocity": 119,
      "chip": "ym2612"
    },
    {
      "channel": 0,
      "note": 47,
      "start": 46.7143,
      "duration": 0.0637,
      "velocity": 94,
      "chip": "ym2612"
    },
    {
      "channel": 0,
      "note": 49,
      "start": 46.8976,
      "duration": 0.4971,
      "velocity": 94,
      "chip": "ym2612"
    },
    {
      "channel": 2,
      "note": 45,
      "start": 46.9004,
      "duration": 0.0779,
      "velocity": 125,
      "chip": "ym2612"
    },
    {
      "channel": 3,
      "note": 81,
      "start": 46.9032,
      "duration": 0.0748,
      "velocity": 103,
      "chip": "ym2612"
    },
    {
      "channel": 5,
      "note": 73,
      "start": 47.0817,
      "duration": 0.0464,
      "velocity": 119,
      "chip": "ym2612"
    },
    {
      "channel": 0,
      "note": 56,
      "start": 47.4313,
      "duration": 0.0633,
      "velocity": 94,
      "chip": "ym2612"
    },
    {
      "channel": 5,
      "note": 73,
      "start": 47.4343,
      "duration": 0.0606,
      "velocity": 119,
      "chip": "ym2612"
    },
    {
      "channel": 0,
      "note": 56,
      "start": 47.614,
      "duration": 0.0639,
      "velocity": 94,
      "chip": "ym2612"
    },
    {
      "channel": 2,
      "note": 45,
      "start": 47.6168,
      "duration": 0.0781,
      "velocity": 125,
      "chip": "ym2612"
    },
    {
      "channel": 3,
      "note": 81,
      "start": 47.6195,
      "duration": 0.0751,
      "velocity": 103,
      "chip": "ym2612"
    },
    {
      "channel": 0,
      "note": 56,
      "start": 47.7974,
      "duration": 0.1472,
      "velocity": 94,
      "chip": "ym2612"
    },
    {
      "channel": 3,
      "note": 81,
      "start": 47.8002,
      "duration": 0.0778,
      "velocity": 103,
      "chip": "ym2612"
    },
    {
      "channel": 5,
      "note": 73,
      "start": 47.803,
      "duration": 0.0419,
      "velocity": 119,
      "chip": "ym2612"
    },
    {
      "channel": 0,
      "note": 59,
      "start": 47.9644,
      "duration": 0.3303,
      "velocity": 94,
      "chip": "ym2612"
    },
    {
      "channel": 2,
      "note": 57,
      "start": 47.9673,
      "duration": 0.2444,
      "velocity": 119,
      "chip": "ym2612"
    },
    {
      "channel": 5,
      "note": 76,
      "start": 47.9703,
      "duration": 0.0912,
      "velocity": 119,
      "chip": "ym2612"
    },
    {
      "channel": 3,
      "note": 81,
      "start": 48.1481,
      "duration": 0.0633,
      "velocity": 103,
      "chip": "ym2612"
    },
    {
      "channel": 0,
      "note": 56,
      "start": 48.331,
      "duration": 0.147,
      "velocity": 94,
      "chip": "ym2612"
    },
    {
      "channel": 5,
      "note": 97,
      "start": 48.3343,
      "duration": 0.3272,
      "velocity": 121,
      "chip": "ym2612"
    },
    {
      "channel": 3,
      "note": 73,
      "start": 48.3376,
      "duration": 0.0571,
      "velocity": 119,
      "chip": "ym2612"
    },
    {
      "channel": 0,
      "note": 54,
      "start": 48.514,
      "duration": 0.1472,
      "velocity": 94,
      "chip": "ym2612"
    },
    {
      "channel": 0,
      "note": 49,
      "start": 48.681,
      "duration": 0.4136,
      "velocity": 94,
      "chip": "ym2612"
    },
    {
      "channel": 2,
      "note": 45,
      "start": 48.6838,
      "duration": 0.0944,
      "velocity": 125,
      "chip": "ym2612"
    },
    {
      "channel": 3,
      "note": 81,
      "start": 49.0485,
      "duration": 0.1128,
      "velocity": 103,
      "chip": "ym2612"
    },
    {
      "channel": 5,
      "note": 73,
      "start": 49.0514,
      "duration": 0.0434,
      "velocity": 119,
      "chip": "ym2612"
    },
    {
      "channel": 0,
      "note": 49,
      "start": 49.2313,
      "duration": 0.1466,
      "velocity": 94,
      "chip": "ym2612"
    },
    {
      "channel": 2,
      "note": 45,
      "start": 49.2339,
      "duration": 0.0777,
      "velocity": 125,
      "chip": "ym2612"
    },
    {
      "channel": 3,
      "note": 81,
      "start": 49.2368,
      "duration": 0.0745,
      "velocity": 103,
      "chip": "ym2612"
    },
    {
      "channel": 5,
      "note": 57,
      "start": 49.398,
      "duration": 0.1302,
      "velocity": 119,
      "chip": "ym2612"
    },
    {
      "channel": 3,
      "note": 73,
      "start": 49.401,
      "duration": 0.0604,
      "velocity": 119,
      "chip": "ym2612"
    },
    {
      "channel": 0,
      "note": 47,
      "start": 49.581,
      "duration": 0.0969,
      "velocity": 94,
      "chip": "ym2612"
    },
    {
      "channel": 0,
      "note": 49,
      "start": 49.7643,
      "duration": 0.4136,
      "velocity": 94,
      "chip": "ym2612"
    },
    {
      "channel": 2,
      "note": 45,
      "start": 49.7671,
      "duration": 0.0779,
      "velocity": 125,
      "chip": "ym2612"
    },
    {
      "channel": 3,
      "note": 81,
      "start": 49.77,
      "duration": 0.0748,
      "velocity": 103,
      "chip": "ym2612"
    },
    {
      "channel": 5,
      "note": 73,
      "start": 49.9485,
      "duration": 0.0797,
      "velocity": 119,
      "chip": "ym2612"
    },
    {
      "channel": 0,
      "note": 56,
      "start": 50.2976,
      "duration": 0.0636,
      "velocity": 94,
      "chip": "ym2612"
    },
    {
      "channel": 5,
      "note": 73,
      "start": 50.3008,
      "duration": 0.0607,
      "velocity": 119,
      "chip": "ym2612"
    },
    {
      "channel": 0,
      "note": 56,
      "start": 50.4807,
      "duration": 0.0472,
      "velocity": 94,
      "chip": "ym2612"
    },
    {
      "channel": 2,
      "note": 45,
      "start": 50.4835,
      "duration": 0.078,
      "velocity": 125,
      "chip": "ym2612"
    },
    {
      "channel": 3,
      "note": 81,
      "start": 50.4862,
      "duration": 0.0752,
      "velocity": 103,
      "chip": "ym2612"
    },
    {
      "channel": 0,
      "note": 56,
      "start": 50.6641,
      "duration": 0.1472,
      "velocity": 94,
      "chip": "ym2612"
    },
    {
      "channel": 3,
      "note": 81,
      "start": 50.6671,
      "duration": 0.1609,
      "velocity": 103,
      "chip": "ym2612"
    },
    {
      "channel": 5,
      "note": 73,
      "start": 50.6698,
      "duration": 0.0416,
      "velocity": 119,
      "chip": "ym2612"
    },
    {
      "channel": 0,
      "note": 59,
      "start": 50.8313,
      "duration": 0.3299,
      "velocity": 94,
      "chip": "ym2612"
    },
    {
      "channel": 2,
      "note": 57,
      "start": 50.8343,
      "duration": 0.1773,
      "velocity": 119,
      "chip": "ym2612"
    },
    {
      "channel": 5,
      "note": 81,
      "start": 50.8373,
      "duration": 0.0909,
      "velocity": 119,
      "chip": "ym2612"
    },
    {
      "channel": 3,
      "note": 81,
      "start": 51.0149,
      "duration": 0.0631,
      "velocity": 103,
      "chip": "ym2612"
    },
    {
      "channel": 0,
      "note": 56,
      "start": 51.1977,
      "duration": 0.1469,
      "velocity": 94,
      "chip": "ym2612"
    },
    {
      "channel": 5,
      "note": 97,
      "start": 51.2006,
      "duration": 0.3278,
      "velocity": 121,
      "chip": "ym2612"
    },
    {
      "channel": 2,
      "note": 80,
      "start": 51.2038,
      "duration": 0.0744,
      "velocity": 119,
      "chip": "ym2612"
    },
    {
      "channel": 0,
      "note": 54,
      "start": 51.3807,
      "duration": 0.1473,
      "velocity": 94,
      "chip": "ym2612"
    },
    {
      "channel": 0,
      "note": 61,
      "start": 51.5473,
      "duration": 0.1474,
      "velocity": 94,
      "chip": "ym2612"
    },
    {
      "channel": 3,
      "note": 45,
      "start": 51.5504,
      "duration": 0.0943,
      "velocity": 125,
      "chip": "ym2612"
    },
    {
      "channel": 4,
      "note": 71,
      "start": 51.5539,
      "duration": 2.8908,
      "velocity": 107,
      "chip": "ym2612"
    },
    {
      "channel": 0,
      "note": 56,
      "start": 51.7307,
      "duration": 0.1473,
      "velocity": 94,
      "chip": "ym2612"
    },
    {
      "channel": 0,
      "note": 59,
      "start": 51.9142,
      "duration": 0.1137,
      "velocity": 94,
      "chip": "ym2612"
    },
    {
      "channel": 2,
      "note": 81,
      "start": 51.9177,
      "duration": 0.1105,
      "velocity": 103,
      "chip": "ym2612"
    },
    {
      "channel": 5,
      "note": 73,
      "start": 51.9208,
      "duration": 0.0407,
      "velocity": 119,
      "chip": "ym2612"
    },
    {
      "channel": 0,
      "note": 56,
      "start": 52.0976,
      "duration": 0.1637,
      "velocity": 94,
      "chip": "ym2612"
    },
    {
      "channel": 3,
      "note": 45,
      "start": 52.1002,
      "duration": 0.0444,
      "velocity": 125,
      "chip": "ym2612"
    },
    {
      "channel": 2,
      "note": 81,
      "start": 52.1032,
      "duration": 0.0749,
      "velocity": 103,
      "chip": "ym2612"
    },
    {
      "channel": 5,
      "note": 57,
      "start": 52.2647,
      "duration": 0.1468,
      "velocity": 119,
      "chip": "ym2612"
    },
    {
      "channel": 3,
      "note": 73,
      "start": 52.2677,
      "duration": 0.0603,
      "velocity": 119,
      "chip": "ym2612"
    },
    {
      "channel": 0,
      "note": 54,
      "start": 52.4476,
      "duration": 0.0803,
      "velocity": 94,
      "chip": "ym2612"
    },
    {
      "channel": 0,
      "note": 56,
      "start": 52.6313,
      "duration": 0.4466,
      "velocity": 94,
      "chip": "ym2612"
    },
    {
      "channel": 2,
      "note": 45,
      "start": 52.6342,
      "duration": 0.0773,
      "velocity": 125,
      "chip": "ym2612"
    },
    {
      "channel": 3,
      "note": 81,
      "start": 52.6371,
      "duration": 0.0742,
      "velocity": 103,
      "chip": "ym2612"
    },
    {
      "channel": 5,
      "note": 73,
      "start": 52.7983,
      "duration": 0.0632,
      "velocity": 119,
      "chip": "ym2612"
    },
    {
      "channel": 0,
      "note": 56,
      "start": 53.1643,
      "duration": 0.0636,
      "velocity": 94,
      "chip": "ym2612"
    },
    {
      "channel": 5,
      "note": 73,
      "start": 53.1673,
      "duration": 0.0609,
      "velocity": 119,
      "chip": "ym2612"
    },
    {
      "channel": 0,
      "note": 56,
      "start": 53.3473,
      "duration": 0.0474,
      "velocity": 94,
      "chip": "ym2612"
    },
    {
      "channel": 2,
      "note": 45,
      "start": 53.3502,
      "duration": 0.0449,
      "velocity": 125,
      "chip": "ym2612"
    },
    {
      "channel": 3,
      "note": 81,
      "start": 53.3531,
      "duration": 0.1083,
      "velocity": 103,
      "chip": "ym2612"
    },
    {
      "channel": 0,
      "note": 56,
      "start": 53.514,
      "duration": 0.1472,
      "velocity": 94,
      "chip": "ym2612"
    },
    {
      "channel": 2,
      "note": 45,
      "start": 53.5168,
      "duration": 0.0614,
      "velocity": 125,
      "chip": "ym2612"
    },
    {
      "channel": 3,
      "note": 81,
      "start": 53.5198,
      "duration": 0.0917,
      "velocity": 103,
      "chip": "ym2612"
    },
    {
      "channel": 5,
      "note": 73,
      "start": 53.5225,
      "duration": 0.0556,
      "velocity": 119,
      "chip": "ym2612"
    },
    {
      "channel": 0,
      "note": 59,
      "start": 53.6977,
      "duration": 0.3302,
      "velocity": 94,
      "chip": "ym2612"
    },
    {
      "channel": 5,
      "note": 57,
      "start": 53.7006,
      "duration": 0.1109,
      "velocity": 119,
      "chip": "ym2612"
    },
    {
      "channel": 2,
      "note": 76,
      "start": 53.7037,
      "duration": 0.0911,
      "velocity": 119,
      "chip": "ym2612"
    },
    {
      "channel": 3,
      "note": 81,
      "start": 53.8817,
      "duration": 0.063,
      "velocity": 103,
      "chip": "ym2612"
    },
    {
      "channel": 0,
      "note": 56,
      "start": 54.0644,
      "duration": 0.1469,
      "velocity": 94,
      "chip": "ym2612"
    },
    {
      "channel": 2,
      "note": 97,
      "start": 54.0675,
      "duration": 0.2939,
      "velocity": 121,
      "chip": "ym2612"
    },
    {
      "channel": 5,
      "note": 73,
      "start": 54.0708,
      "duration": 0.0408,
      "velocity": 119,
      "chip": "ym2612"
    },
    {
      "channel": 0,
      "note": 54,
      "start": 54.2308,
      "duration": 0.0971,
      "velocity": 94,
      "chip": "ym2612"
    },
    {
      "channel": 0,
      "note": 54,
      "start": 54.4146,
      "duration": 0.4134,
      "velocity": 94,
      "chip": "ym2612"
    },
    {
      "channel": 3,
      "note": 45,
      "start": 54.4176,
      "duration": 0.0938,
      "velocity": 125,
      "chip": "ym2612"
    },
    {
      "channel": 1,
      "note": 66,
      "start": 54.4212,
      "duration": 2.7401,
      "velocity": 107,
      "chip": "ym2612"
    },
    {
      "channel": 5,
      "note": 70,
      "start": 54.424,
      "duration": 2.7376,
      "velocity": 107,
      "chip": "ym2612"
    },
    {
      "channel": 2,
      "note": 81,
      "start": 54.7815,
      "duration": 0.08,
      "velocity": 103,
      "chip": "ym2612"
    },
    {
      "channel": 4,
      "note": 73,
      "start": 54.7845,
      "duration": 0.0436,
      "velocity": 119,
      "chip": "ym2612"
    },
    {
      "channel": 0,
      "note": 54,
      "start": 54.9476,
      "duration": 0.2136,
      "velocity": 94,
      "chip": "ym2612"
    },
    {
      "channel": 3,
      "note": 45,
      "start": 54.9502,
      "duration": 0.0612,
      "velocity": 125,
      "chip": "ym2612"
    },
    {
      "channel": 2,
      "note": 81,
      "start": 54.9532,
      "duration": 0.1749,
      "velocity": 103,
      "chip": "ym2612"
    },
    {
      "channel": 4,
      "note": 57,
      "start": 55.1312,
      "duration": 0.1136,
      "velocity": 119,
      "chip": "ym2612"
    },
    {
      "channel": 3,
      "note": 73,
      "start": 55.1341,
      "duration": 0.0605,
      "velocity": 119,
      "chip": "ym2612"
    },
    {
      "channel": 0,
      "note": 52,
      "start": 55.3143,
      "duration": 0.0803,
      "velocity": 94,
      "chip": "ym2612"
    },
    {
      "channel": 0,
      "note": 54,
      "start": 55.4976,
      "duration": 0.3471,
      "velocity": 94,
      "chip": "ym2612"
    },
    {
      "channel": 2,
      "note": 45,
      "start": 55.501,
      "duration": 0.0773,
      "velocity": 125,
      "chip": "ym2612"
    },
    {
      "channel": 3,
      "note": 81,
      "start": 55.5039,
      "duration": 0.0741,
      "velocity": 103,
      "chip": "ym2612"
    },
    {
      "channel": 4,
      "note": 73,
      "start": 55.665,
      "duration": 0.0631,
      "velocity": 119,
      "chip": "ym2612"
    },
    {
      "channel": 0,
      "note": 54,
      "start": 56.031,
      "duration": 0.047,
      "velocity": 94,
      "chip": "ym2612"
    },
    {
      "channel": 4,
      "note": 73,
      "start": 56.0339,
      "duration": 0.0442,
      "velocity": 119,
      "chip": "ym2612"
    },
    {
      "channel": 0,
      "note": 54,
      "start": 56.2139,
      "duration": 0.0474,
      "velocity": 94,
      "chip": "ym2612"
    },
    {
      "channel": 2,
      "note": 45,
      "start": 56.2167,
      "duration": 0.0783,
      "velocity": 125,
      "chip": "ym2612"
    },
    {
      "channel": 3,
      "note": 81,
      "start": 56.2195,
      "duration": 0.0753,
      "velocity": 103,
      "chip": "ym2612"
    },
    {
      "channel": 0,
      "note": 54,
      "start": 56.3812,
      "duration": 0.1134,
      "velocity": 94,
      "chip": "ym2612"
    },
    {
      "channel": 3,
      "note": 81,
      "start": 56.3842,
      "duration": 0.1771,
      "velocity": 103,
      "chip": "ym2612"
    },
    {
      "channel": 4,
      "note": 73,
      "start": 56.3869,
      "duration": 0.0578,
      "velocity": 119,
      "chip": "ym2612"
    },
    {
      "channel": 0,
      "note": 56,
      "start": 56.5643,
      "duration": 0.3303,
      "velocity": 94,
      "chip": "ym2612"
    },
    {
      "channel": 2,
      "note": 57,
      "start": 56.5678,
      "duration": 0.0771,
      "velocity": 119,
      "chip": "ym2612"
    },
    {
      "channel": 4,
      "note": 71,
      "start": 56.5707,
      "duration": 0.0574,
      "velocity": 119,
      "chip": "ym2612"
    },
    {
      "channel": 3,
      "note": 45,
      "start": 56.748,
      "duration": 0.0468,
      "velocity": 125,
      "chip": "ym2612"
    },
    {
      "channel": 4,
      "note": 81,
      "start": 56.7513,
      "duration": 0.0435,
      "velocity": 103,
      "chip": "ym2612"
    },
    {
      "channel": 0,
      "note": 59,
      "start": 56.931,
      "duration": 0.1302,
      "velocity": 94,
      "chip": "ym2612"
    },
    {
      "channel": 2,
      "note": 97,
      "start": 56.9343,
      "duration": 0.3106,
      "velocity": 121,
      "chip": "ym2612"
    },
    {
      "channel": 3,
      "note": 73,
      "start": 56.9371,
      "duration": 0.0409,
      "velocity": 119,
      "chip": "ym2612"
    },
    {
      "channel": 0,
      "note": 61,
      "start": 57.0974,
      "duration": 0.1473,
      "velocity": 94,
      "chip": "ym2612"
    },
    {
      "channel": 4,
      "note": 45,
      "start": 57.1002,
      "duration": 0.0612,
      "velocity": 125,
      "chip": "ym2612"
    },
    {
      "channel": 0,
      "note": 61,
      "start": 57.2821,
      "duration": 0.1459,
      "velocity": 94,
      "chip": "ym2612"
    },
    {
      "channel": 4,
      "note": 45,
      "start": 57.2849,
      "duration": 0.0765,
      "velocity": 125,
      "chip": "ym2612"
    },
    {
      "channel": 1,
      "note": 68,
      "start": 57.2951,
      "duration": 8.5496,
      "velocity": 107,
      "chip": "ym2612"
    },
    {
      "channel": 5,
      "note": 73,
      "start": 57.2981,
      "duration": 5.68,
      "velocity": 107,
      "chip": "ym2612"
    },
    {
      "channel": 0,
      "note": 56,
      "start": 57.464,
      "duration": 0.1473,
      "velocity": 94,
      "chip": "ym2612"
    },
    {
      "channel": 0,
      "note": 59,
      "start": 57.6307,
      "duration": 0.1473,
      "velocity": 94,
      "chip": "ym2612"
    },
    {
      "channel": 3,
      "note": 81,
      "start": 57.6338,
      "duration": 0.0942,
      "velocity": 103,
      "chip": "ym2612"
    },
    {
      "channel": 2,
      "note": 73,
      "start": 57.6368,
      "duration": 0.0581,
      "velocity": 119,
      "chip": "ym2612"
    },
    {
      "channel": 0,
      "note": 49,
      "start": 57.8141,
      "duration": 0.1471,
      "velocity": 94,
      "chip": "ym2612"
    },
    {
      "channel": 4,
      "note": 45,
      "start": 57.8168,
      "duration": 0.0946,
      "velocity": 125,
      "chip": "ym2612"
    },
    {
      "channel": 3,
      "note": 81,
      "start": 57.8195,
      "duration": 0.0918,
      "velocity": 103,
      "chip": "ym2612"
    },
    {
      "channel": 2,
      "note": 57,
      "start": 57.9982,
      "duration": 0.1799,
      "velocity": 119,
      "chip": "ym2612"
    },
    {
      "channel": 3,
      "note": 73,
      "start": 58.0017,
      "duration": 0.0764,
      "velocity": 119,
      "chip": "ym2612"
    },
    {
      "channel": 0,
      "note": 47,
      "start": 58.181,
      "duration": 0.0469,
      "velocity": 94,
      "chip": "ym2612"
    },
    {
      "channel": 0,
      "note": 49,
      "start": 58.3476,
      "duration": 0.5136,
      "velocity": 94,
      "chip": "ym2612"
    },
    {
      "channel": 4,
      "note": 45,
      "start": 58.3503,
      "duration": 0.0945,
      "velocity": 125,
      "chip": "ym2612"
    },
    {
      "channel": 3,
      "note": 81,
      "start": 58.3532,
      "duration": 0.0915,
      "velocity": 103,
      "chip": "ym2612"
    },
    {
      "channel": 2,
      "note": 73,
      "start": 58.5319,
      "duration": 0.063,
      "velocity": 119,
      "chip": "ym2612"
    },
    {
      "channel": 0,
      "note": 56,
      "start": 58.898,
      "duration": 0.0466,
      "velocity": 94,
      "chip": "ym2612"
    },
    {
      "channel": 2,
      "note": 73,
      "start": 58.9011,
      "duration": 0.0438,
      "velocity": 119,
      "chip": "ym2612"
    },
    {
      "channel": 0,
      "note": 56,
      "start": 59.064,
      "duration": 0.0639,
      "velocity": 94,
      "chip": "ym2612"
    },
    {
      "channel": 4,
      "note": 45,
      "start": 59.0666,
      "duration": 0.0949,
      "velocity": 125,
      "chip": "ym2612"
    },
    {
      "channel": 3,
      "note": 81,
      "start": 59.0693,
      "duration": 0.0921,
      "velocity": 103,
      "chip": "ym2612"
    },
    {
      "channel": 0,
      "note": 56,
      "start": 59.2475,
      "duration": 0.1471,
      "velocity": 94,
      "chip": "ym2612"
    },
    {
      "channel": 3,
      "note": 81,
      "start": 59.2503,
      "duration": 0.0945,
      "velocity": 103,
      "chip": "ym2612"
    },
    {
      "channel": 2,
      "note": 73,
      "start": 59.2532,
      "duration": 0.0584,
      "velocity": 119,
      "chip": "ym2612"
    },
    {
      "channel": 0,
      "note": 59,
      "start": 59.431,
      "duration": 0.3303,
      "velocity": 94,
      "chip": "ym2612"
    },
    {
      "channel": 4,
      "note": 57,
      "start": 59.4339,
      "duration": 0.2277,
      "velocity": 119,
      "chip": "ym2612"
    },
    {
      "channel": 2,
      "note": 76,
      "start": 59.4369,
      "duration": 0.0413,
      "velocity": 119,
      "chip": "ym2612"
    },
    {
      "channel": 3,
      "note": 81,
      "start": 59.6147,
      "duration": 0.0467,
      "velocity": 103,
      "chip": "ym2612"
    },
    {
      "channel": 0,
      "note": 56,
      "start": 59.781,
      "duration": 0.1469,
      "velocity": 94,
      "chip": "ym2612"
    },
    {
      "channel": 2,
      "note": 97,
      "start": 59.7845,
      "duration": 0.3272,
      "velocity": 121,
      "chip": "ym2612"
    },
    {
      "channel": 3,
      "note": 73,
      "start": 59.7872,
      "duration": 0.0575,
      "velocity": 119,
      "chip": "ym2612"
    },
    {
      "channel": 0,
      "note": 54,
      "start": 59.964,
      "duration": 0.1473,
      "velocity": 94,
      "chip": "ym2612"
    },
    {
      "channel": 0,
      "note": 49,
      "start": 60.1477,
      "duration": 0.4136,
      "velocity": 94,
      "chip": "ym2612"
    },
    {
      "channel": 4,
      "note": 45,
      "start": 60.1505,
      "duration": 0.0777,
      "velocity": 125,
      "chip": "ym2612"
    },
    {
      "channel": 3,
      "note": 81,
      "start": 60.4986,
      "duration": 0.1294,
      "velocity": 103,
      "chip": "ym2612"
    },
    {
      "channel": 2,
      "note": 73,
      "start": 60.5015,
      "duration": 0.0601,
      "velocity": 119,
      "chip": "ym2612"
    },
    {
      "channel": 0,
      "note": 49,
      "start": 60.6813,
      "duration": 0.1466,
      "velocity": 94,
      "chip": "ym2612"
    },
    {
      "channel": 4,
      "note": 45,
      "start": 60.6838,
      "duration": 0.0776,
      "velocity": 125,
      "chip": "ym2612"
    },
    {
      "channel": 3,
      "note": 81,
      "start": 60.6867,
      "duration": 0.0746,
      "velocity": 103,
      "chip": "ym2612"
    },
    {
      "channel": 2,
      "note": 57,
      "start": 60.8647,
      "duration": 0.1134,
      "velocity": 119,
      "chip": "ym2612"
    },
    {
      "channel": 3,
      "note": 73,
      "start": 60.8681,
      "duration": 0.0433,
      "velocity": 119,
      "chip": "ym2612"
    },
    {
      "channel": 0,
      "note": 47,
      "start": 61.0476,
      "duration": 0.0803,
      "velocity": 94,
      "chip": "ym2612"
    },
    {
      "channel": 0,
      "note": 49,
      "start": 61.2143,
      "duration": 0.4137,
      "velocity": 94,
      "chip": "ym2612"
    },
    {
      "channel": 4,
      "note": 45,
      "start": 61.217,
      "duration": 0.0945,
      "velocity": 125,
      "chip": "ym2612"
    },
    {
      "channel": 3,
      "note": 81,
      "start": 61.2198,
      "duration": 0.0915,
      "velocity": 103,
      "chip": "ym2612"
    },
    {
      "channel": 2,
      "note": 73,
      "start": 61.3983,
      "duration": 0.0632,
      "velocity": 119,
      "chip": "ym2612"
    },
    {
      "channel": 0,
      "note": 56,
      "start": 61.7644,
      "duration": 0.0469,
      "velocity": 94,
      "chip": "ym2612"
    },
    {
      "channel": 2,
      "note": 73,
      "start": 61.7674,
      "duration": 0.0441,
      "velocity": 119,
      "chip": "ym2612"
    },
    {
      "channel": 0,
      "note": 56,
      "start": 61.9307,
      "duration": 0.064,
      "velocity": 94,
      "chip": "ym2612"
    },
    {
      "channel": 4,
      "note": 45,
      "start": 61.9333,
      "duration": 0.0949,
      "velocity": 125,
      "chip": "ym2612"
    },
    {
      "channel": 3,
      "note": 81,
      "start": 61.9361,
      "duration": 0.092,
      "velocity": 103,
      "chip": "ym2612"
    },
    {
      "channel": 0,
      "note": 56,
      "start": 62.1142,
      "duration": 0.1471,
      "velocity": 94,
      "chip": "ym2612"
    },
    {
      "channel": 3,
      "note": 81,
      "start": 62.1172,
      "duration": 0.1776,
      "velocity": 103,
      "chip": "ym2612"
    },
    {
      "channel": 2,
      "note": 73,
      "start": 62.12,
      "duration": 0.0581,
      "velocity": 119,
      "chip": "ym2612"
    },
    {
      "channel": 0,
      "note": 59,
      "start": 62.2981,
      "duration": 0.3131,
      "velocity": 94,
      "chip": "ym2612"
    },
    {
      "channel": 4,
      "note": 57,
      "start": 62.301,
      "duration": 0.1771,
      "velocity": 119,
      "chip": "ym2612"
    },
    {
      "channel": 2,
      "note": 81,
      "start": 62.3041,
      "duration": 0.1074,
      "velocity": 119,
      "chip": "ym2612"
    },
    {
      "channel": 3,
      "note": 81,
      "start": 62.4815,
      "duration": 0.0465,
      "velocity": 103,
      "chip": "ym2612"
    },
    {
      "channel": 0,
      "note": 56,
      "start": 62.6476,
      "duration": 0.147,
      "velocity": 94,
      "chip": "ym2612"
    },
    {
      "channel": 2,
      "note": 97,
      "start": 62.6506,
      "duration": 0.3277,
      "velocity": 121,
      "chip": "ym2612"
    },
    {
      "channel": 4,
      "note": 80,
      "start": 62.6535,
      "duration": 0.0913,
      "velocity": 119,
      "chip": "ym2612"
    },
    {
      "channel": 0,
      "note": 54,
      "start": 62.8307,
      "duration": 0.1472,
      "velocity": 94,
      "chip": "ym2612"
    },
    {
      "channel": 0,
      "note": 61,
      "start": 63.0139,
      "duration": 0.1473,
      "velocity": 94,
      "chip": "ym2612"
    },
    {
      "channel": 3,
      "note": 45,
      "start": 63.0171,
      "duration": 0.0776,
      "velocity": 125,
      "chip": "ym2612"
    },
    {
      "channel": 5,
      "note": 71,
      "start": 63.0207,
      "duration": 2.8741,
      "velocity": 107,
      "chip": "ym2612"
    },
    {
      "channel": 0,
      "note": 56,
      "start": 63.1807,
      "duration": 0.1473,
      "velocity": 94,
      "chip": "ym2612"
    },
    {
      "channel": 0,
      "note": 59,
      "start": 63.3641,
      "duration": 0.1138,
      "velocity": 94,
      "chip": "ym2612"
    },
    {
      "channel": 4,
      "note": 81,
      "start": 63.3677,
      "duration": 0.1105,
      "velocity": 103,
      "chip": "ym2612"
    },
    {
      "channel": 2,
      "note": 73,
      "start": 63.3707,
      "duration": 0.0575,
      "velocity": 119,
      "chip": "ym2612"
    },
    {
      "channel": 0,
      "note": 56,
      "start": 63.5476,
      "duration": 0.1804,
      "velocity": 94,
      "chip": "ym2612"
    },
    {
      "channel": 3,
      "note": 45,
      "start": 63.5502,
      "duration": 0.0611,
      "velocity": 125,
      "chip": "ym2612"
    },
    {
      "channel": 4,
      "note": 81,
      "start": 63.553,
      "duration": 0.0751,
      "velocity": 103,
      "chip": "ym2612"
    },
    {
      "channel": 2,
      "note": 57,
      "start": 63.7315,
      "duration": 0.1466,
      "velocity": 119,
      "chip": "ym2612"
    },
    {
      "channel": 3,
      "note": 73,
      "start": 63.7349,
      "duration": 0.0432,
      "velocity": 119,
      "chip": "ym2612"
    },
    {
      "channel": 0,
      "note": 54,
      "start": 63.8976,
      "duration": 0.097,
      "velocity": 94,
      "chip": "ym2612"
    },
    {
      "channel": 0,
      "note": 56,
      "start": 64.0813,
      "duration": 0.4466,
      "velocity": 94,
      "chip": "ym2612"
    },
    {
      "channel": 4,
      "note": 45,
      "start": 64.0843,
      "duration": 0.0938,
      "velocity": 125,
      "chip": "ym2612"
    },
    {
      "channel": 3,
      "note": 81,
      "start": 64.0871,
      "duration": 0.0908,
      "velocity": 103,
      "chip": "ym2612"
    },
    {
      "channel": 2,
      "note": 73,
      "start": 64.2649,
      "duration": 0.0632,
      "velocity": 119,
      "chip": "ym2612"
    },
    {
      "channel": 0,
      "note": 56,
      "start": 64.6143,
      "duration": 0.0636,
      "velocity": 94,
      "chip": "ym2612"
    },
    {
      "channel": 2,
      "note": 73,
      "start": 64.6174,
      "duration": 0.0608,
      "velocity": 119,
      "chip": "ym2612"
    },
    {
      "channel": 0,
      "note": 56,
      "start": 64.7973,
      "duration": 0.064,
      "velocity": 94,
      "chip": "ym2612"
    },
    {
      "channel": 4,
      "note": 45,
      "start": 64.8,
      "duration": 0.0615,
      "velocity": 125,
      "chip": "ym2612"
    },
    {
      "channel": 3,
      "note": 81,
      "start": 64.803,
      "duration": 0.1084,
      "velocity": 103,
      "chip": "ym2612"
    },
    {
      "channel": 0,
      "note": 56,
      "start": 64.9808,
      "duration": 0.1471,
      "velocity": 94,
      "chip": "ym2612"
    },
    {
      "channel": 4,
      "note": 45,
      "start": 64.9834,
      "duration": 0.0446,
      "velocity": 125,
      "chip": "ym2612"
    },
    {
      "channel": 3,
      "note": 81,
      "start": 64.9864,
      "duration": 0.0749,
      "velocity": 103,
      "chip": "ym2612"
    },
    {
      "channel": 2,
      "note": 73,
      "start": 64.9892,
      "duration": 0.0391,
      "velocity": 119,
      "chip": "ym2612"
    },
    {
      "channel": 0,
      "note": 59,
      "start": 65.1644,
      "duration": 0.3136,
      "velocity": 94,
      "chip": "ym2612"
    },
    {
      "channel": 4,
      "note": 57,
      "start": 65.1672,
      "duration": 0.1109,
      "velocity": 119,
      "chip": "ym2612"
    },
    {
      "channel": 2,
      "note": 76,
      "start": 65.1703,
      "duration": 0.0745,
      "velocity": 119,
      "chip": "ym2612"
    },
    {
      "channel": 3,
      "note": 81,
      "start": 65.3318,
      "duration": 0.0629,
      "velocity": 103,
      "chip": "ym2612"
    },
    {
      "channel": 0,
      "note": 56,
      "start": 65.5143,
      "duration": 0.1469,
      "velocity": 94,
      "chip": "ym2612"
    },
    {
      "channel": 2,
      "note": 97,
      "start": 65.5174,
      "duration": 0.2941,
      "velocity": 121,
      "chip": "ym2612"
    },
    {
      "channel": 4,
      "note": 73,
      "start": 65.5203,
      "duration": 0.0578,
      "velocity": 119,
      "chip": "ym2612"
    },
    {
      "channel": 0,
      "note": 54,
      "start": 65.6974,
      "duration": 0.0805,
      "velocity": 94,
      "chip": "ym2612"
    },
    {
      "channel": 0,
      "note": 54,
      "start": 65.8813,
      "duration": 0.4134,
      "velocity": 94,
      "chip": "ym2612"
    },
    {
      "channel": 3,
      "note": 45,
      "start": 65.8843,
      "duration": 0.0771,
      "velocity": 125,
      "chip": "ym2612"
    },
    {
      "channel": 1,
      "note": 66,
      "start": 65.8879,
      "duration": 2.7235,
      "velocity": 107,
      "chip": "ym2612"
    },
    {
      "channel": 4,
      "note": 70,
      "start": 65.8907,
      "duration": 2.7209,
      "velocity": 107,
      "chip": "ym2612"
    },
    {
      "channel": 2,
      "note": 81,
      "start": 66.2315,
      "duration": 0.08,
      "velocity": 103,
      "chip": "ym2612"
    },
    {
      "channel": 5,
      "note": 73,
      "start": 66.2345,
      "duration": 0.0605,
      "velocity": 119,
      "chip": "ym2612"
    },
    {
      "channel": 0,
      "note": 54,
      "start": 66.4142,
      "duration": 0.1971,
      "velocity": 94,
      "chip": "ym2612"
    },
    {
      "channel": 3,
      "note": 45,
      "start": 66.4168,
      "duration": 0.0445,
      "velocity": 125,
      "chip": "ym2612"
    },
    {
      "channel": 2,
      "note": 81,
      "start": 66.4198,
      "duration": 0.175,
      "velocity": 103,
      "chip": "ym2612"
    },
    {
      "channel": 5,
      "note": 57,
      "start": 66.5979,
      "duration": 0.1135,
      "velocity": 119,
      "chip": "ym2612"
    },
    {
      "channel": 3,
      "note": 73,
      "start": 66.6014,
      "duration": 0.0766,
      "velocity": 119,
      "chip": "ym2612"
    },
    {
      "channel": 0,
      "note": 52,
      "start": 66.7643,
      "duration": 0.0969,
      "velocity": 94,
      "chip": "ym2612"
    },
    {
      "channel": 0,
      "note": 54,
      "start": 66.9476,
      "duration": 0.3636,
      "velocity": 94,
      "chip": "ym2612"
    },
    {
      "channel": 2,
      "note": 45,
      "start": 66.951,
      "duration": 0.0772,
      "velocity": 125,
      "chip": "ym2612"
    },
    {
      "channel": 3,
      "note": 81,
      "start": 66.9541,
      "duration": 0.0739,
      "velocity": 103,
      "chip": "ym2612"
    },
    {
      "channel": 5,
      "note": 73,
      "start": 67.1317,
      "duration": 0.0464,
      "velocity": 119,
      "chip": "ym2612"
    },
    {
      "channel": 0,
      "note": 54,
      "start": 67.481,
      "duration": 0.0636,
      "velocity": 94,
      "chip": "ym2612"
    },
    {
      "channel": 5,
      "note": 73,
      "start": 67.4839,
      "duration": 0.0609,
      "velocity": 119,
      "chip": "ym2612"
    },
    {
      "channel": 0,
      "note": 54,
      "start": 67.6639,
      "duration": 0.064,
      "velocity": 94,
      "chip": "ym2612"
    },
    {
      "channel": 2,
      "note": 45,
      "start": 67.6667,
      "duration": 0.0783,
      "velocity": 125,
      "chip": "ym2612"
    },
    {
      "channel": 3,
      "note": 81,
      "start": 67.6695,
      "duration": 0.0753,
      "velocity": 103,
      "chip": "ym2612"
    },
    {
      "channel": 0,
      "note": 54,
      "start": 67.8478,
      "duration": 0.1136,
      "velocity": 94,
      "chip": "ym2612"
    },
    {
      "channel": 3,
      "note": 81,
      "start": 67.8507,
      "duration": 0.1606,
      "velocity": 103,
      "chip": "ym2612"
    },
    {
      "channel": 5,
      "note": 73,
      "start": 67.8536,
      "duration": 0.0413,
      "velocity": 119,
      "chip": "ym2612"
    },
    {
      "channel": 0,
      "note": 56,
      "start": 68.0144,
      "duration": 0.3303,
      "velocity": 94,
      "chip": "ym2612"
    },
    {
      "channel": 2,
      "note": 57,
      "start": 68.0179,
      "duration": 0.0938,
      "velocity": 119,
      "chip": "ym2612"
    },
    {
      "channel": 5,
      "note": 71,
      "start": 68.0209,
      "duration": 0.0906,
      "velocity": 119,
      "chip": "ym2612"
    },
    {
      "channel": 3,
      "note": 45,
      "start": 68.1981,
      "duration": 0.0634,
      "velocity": 125,
      "chip": "ym2612"
    },
    {
      "channel": 5,
      "note": 81,
      "start": 68.2015,
      "duration": 0.0602,
      "velocity": 103,
      "chip": "ym2612"
    },
    {
      "channel": 0,
      "note": 59,
      "start": 68.381,
      "duration": 0.1469,
      "velocity": 94,
      "chip": "ym2612"
    },
    {
      "channel": 2,
      "note": 97,
      "start": 68.3843,
      "duration": 0.3273,
      "velocity": 121,
      "chip": "ym2612"
    },
    {
      "channel": 3,
      "note": 73,
      "start": 68.3872,
      "duration": 0.0741,
      "velocity": 119,
      "chip": "ym2612"
    },
    {
      "channel": 0,
      "note": 61,
      "start": 68.564,
      "duration": 0.1473,
      "velocity": 94,
      "chip": "ym2612"
    },
    {
      "channel": 5,
      "note": 45,
      "start": 68.5667,
      "duration": 0.045,
      "velocity": 125,
      "chip": "ym2612"
    },
    {
      "channel": 0,
      "note": 61,
      "start": 68.7322,
      "duration": 0.1456,
      "velocity": 94,
      "chip": "ym2612"
    },
    {
      "channel": 5,
      "note": 45,
      "start": 68.7351,
      "duration": 0.0931,
      "velocity": 125,
      "chip": "ym2612"
    },
    {
      "channel": 1,
      "note": 68,
      "start": 68.7453,
      "duration": 8.5494,
      "velocity": 107,
      "chip": "ym2612"
    },
    {
      "channel": 4,
      "note": 73,
      "start": 68.7483,
      "duration": 5.6799,
      "velocity": 107,
      "chip": "ym2612"
    },
    {
      "channel": 0,
      "note": 56,
      "start": 68.914,
      "duration": 0.1473,
      "velocity": 94,
      "chip": "ym2612"
    },
    {
      "channel": 0,
      "note": 59,
      "start": 69.0974,
      "duration": 0.1473,
      "velocity": 94,
      "chip": "ym2612"
    },
    {
      "channel": 3,
      "note": 81,
      "start": 69.1005,
      "duration": 0.0776,
      "velocity": 103,
      "chip": "ym2612"
    },
    {
      "channel": 0,
      "note": 49,
      "start": 69.2808,
      "duration": 0.1471,
      "velocity": 94,
      "chip": "ym2612"
    },
    {
      "channel": 5,
      "note": 45,
      "start": 69.2835,
      "duration": 0.0781,
      "velocity": 125,
      "chip": "ym2612"
    },
    {
      "channel": 3,
      "note": 81,
      "start": 69.2862,
      "duration": 0.0752,
      "velocity": 103,
      "chip": "ym2612"
    },
    {
      "channel": 2,
      "note": 57,
      "start": 69.4481,
      "duration": 0.1802,
      "velocity": 119,
      "chip": "ym2612"
    },
    {
      "channel": 0,
      "note": 47,
      "start": 69.6311,
      "duration": 0.0635,
      "velocity": 94,
      "chip": "ym2612"
    },
    {
      "channel": 0,
      "note": 49,
      "start": 69.8144,
      "duration": 0.497,
      "velocity": 94,
      "chip": "ym2612"
    },
    {
      "channel": 5,
      "note": 45,
      "start": 69.817,
      "duration": 0.0778,
      "velocity": 125,
      "chip": "ym2612"
    },
    {
      "channel": 3,
      "note": 81,
      "start": 69.8198,
      "duration": 0.0749,
      "velocity": 103,
      "chip": "ym2612"
    },
    {
      "channel": 0,
      "note": 56,
      "start": 70.348,
      "duration": 0.0632,
      "velocity": 94,
      "chip": "ym2612"
    },
    {
      "channel": 0,
      "note": 56,
      "start": 70.5307,
      "duration": 0.0473,
      "velocity": 94,
      "chip": "ym2612"
    },
    {
      "channel": 5,
      "note": 45,
      "start": 70.5334,
      "duration": 0.0782,
      "velocity": 125,
      "chip": "ym2612"
    },
    {
      "channel": 3,
      "note": 81,
      "start": 70.5361,
      "duration": 0.0753,
      "velocity": 103,
      "chip": "ym2612"
    },
    {
      "channel": 0,
      "note": 56,
      "start": 70.7141,
      "duration": 0.1472,
      "velocity": 94,
      "chip": "ym2612"
    },
    {
      "channel": 3,
      "note": 81,
      "start": 70.7169,
      "duration": 0.0778,
      "velocity": 103,
      "chip": "ym2612"
    },
    {
      "channel": 0,
      "note": 59,
      "start": 70.881,
      "duration": 0.3303,
      "velocity": 94,
      "chip": "ym2612"
    },
    {
      "channel": 2,
      "note": 57,
      "start": 70.8839,
      "duration": 0.2444,
      "velocity": 119,
      "chip": "ym2612"
    },
    {
      "channel": 3,
      "note": 81,
      "start": 71.0647,
      "duration": 0.0633,
      "velocity": 103,
      "chip": "ym2612"
    },
    {
      "channel": 0,
      "note": 56,
      "start": 71.2476,
      "duration": 0.1469,
      "velocity": 94,
      "chip": "ym2612"
    },
    {
      "channel": 5,
      "note": 97,
      "start": 71.251,
      "duration": 0.3272,
      "velocity": 121,
      "chip": "ym2612"
    },
    {
      "channel": 0,
      "note": 54,
      "start": 71.4306,
      "duration": 0.1473,
      "velocity": 94,
      "chip": "ym2612"
    },
    {
      "channel": 0,
      "note": 49,
      "start": 71.5977,
      "duration": 0.4136,
      "velocity": 94,
      "chip": "ym2612"
    },
    {
      "channel": 3,
      "note": 45,
      "start": 71.6004,
      "duration": 0.0943,
      "velocity": 125,
      "chip": "ym2612"
    },
    {
      "channel": 2,
      "note": 81,
      "start": 71.9653,
      "duration": 0.1129,
      "velocity": 103,
      "chip": "ym2612"
    },
    {
      "channel": 0,
      "note": 49,
      "start": 72.148,
      "duration": 0.1299,
      "velocity": 94,
      "chip": "ym2612"
    },
    {
      "channel": 3,
      "note": 45,
      "start": 72.1504,
      "duration": 0.0776,
      "velocity": 125,
      "chip": "ym2612"
    },
    {
      "channel": 2,
      "note": 81,
      "start": 72.1535,
      "duration": 0.0747,
      "velocity": 103,
      "chip": "ym2612"
    },
    {
      "channel": 5,
      "note": 57,
      "start": 72.3146,
      "duration": 0.1136,
      "velocity": 119,
      "chip": "ym2612"
    },
    {
      "channel": 0,
      "note": 47,
      "start": 72.4976,
      "duration": 0.0803,
      "velocity": 94,
      "chip": "ym2612"
    },
    {
      "channel": 0,
      "note": 49,
      "start": 72.681,
      "duration": 0.4136,
      "velocity": 94,
      "chip": "ym2612"
    },
    {
      "channel": 3,
      "note": 45,
      "start": 72.6836,
      "duration": 0.0778,
      "velocity": 125,
      "chip": "ym2612"
    },
    {
      "channel": 2,
      "note": 81,
      "start": 72.6865,
      "duration": 0.0751,
      "velocity": 103,
      "chip": "ym2612"
    },
    {
      "channel": 0,
      "note": 56,
      "start": 73.2143,
      "duration": 0.0637,
      "velocity": 94,
      "chip": "ym2612"
    },
    {
      "channel": 0,
      "note": 56,
      "start": 73.3973,
      "duration": 0.0474,
      "velocity": 94,
      "chip": "ym2612"
    },
    {
      "channel": 3,
      "note": 45,
      "start": 73.3999,
      "duration": 0.0782,
      "velocity": 125,
      "chip": "ym2612"
    },
    {
      "channel": 2,
      "note": 81,
      "start": 73.4028,
      "duration": 0.0755,
      "velocity": 103,
      "chip": "ym2612"
    },
    {
      "channel": 0,
      "note": 56,
      "start": 73.5642,
      "duration": 0.1471,
      "velocity": 94,
      "chip": "ym2612"
    },
    {
      "channel": 2,
      "note": 81,
      "start": 73.5673,
      "duration": 0.1775,
      "velocity": 103,
      "chip": "ym2612"
    },
    {
      "channel": 0,
      "note": 59,
      "start": 73.748,
      "duration": 0.3299,
      "velocity": 94,
      "chip": "ym2612"
    },
    {
      "channel": 5,
      "note": 57,
      "start": 73.7508,
      "duration": 0.1773,
      "velocity": 119,
      "chip": "ym2612"
    },
    {
      "channel": 2,
      "note": 81,
      "start": 73.9317,
      "duration": 0.0632,
      "velocity": 103,
      "chip": "ym2612"
    },
    {
      "channel": 0,
      "note": 56,
      "start": 74.1144,
      "duration": 0.1469,
      "velocity": 94,
      "chip": "ym2612"
    },
    {
      "channel": 3,
      "note": 97,
      "start": 74.1173,
      "duration": 0.3108,
      "velocity": 121,
      "chip": "ym2612"
    },
    {
      "channel": 0,
      "note": 54,
      "start": 74.2807,
      "duration": 0.1472,
      "velocity": 94,
      "chip": "ym2612"
    },
    {
      "channel": 0,
      "note": 61,
      "start": 74.4639,
      "duration": 0.1473,
      "velocity": 94,
      "chip": "ym2612"
    },
    {
      "channel": 5,
      "note": 45,
      "start": 74.4671,
      "duration": 0.0944,
      "velocity": 125,
      "chip": "ym2612"
    },
    {
      "channel": 4,
      "note": 71,
      "start": 74.4706,
      "duration": 2.8908,
      "velocity": 107,
      "chip": "ym2612"
    },
    {
      "channel": 0,
      "note": 56,
      "start": 74.6474,
      "duration": 0.1472,
      "velocity": 94,
      "chip": "ym2612"
    },
    {
      "channel": 0,
      "note": 59,
      "start": 74.8308,
      "duration": 0.1138,
      "velocity": 94,
      "chip": "ym2612"
    },
    {
      "channel": 2,
      "note": 81,
      "start": 74.8344,
      "duration": 0.1106,
      "velocity": 103,
      "chip": "ym2612"
    },
    {
      "channel": 0,
      "note": 56,
      "start": 74.9976,
      "duration": 0.1803,
      "velocity": 94,
      "chip": "ym2612"
    },
    {
      "channel": 5,
      "note": 45,
      "start": 75.0004,
      "duration": 0.0611,
      "velocity": 125,
      "chip": "ym2612"
    },
    {
      "channel": 2,
      "note": 81,
      "start": 75.0034,
      "duration": 0.0915,
      "velocity": 103,
      "chip": "ym2612"
    },
    {
      "channel": 3,
      "note": 57,
      "start": 75.1813,
      "duration": 0.1468,
      "velocity": 119,
      "chip": "ym2612"
    },
    {
      "channel": 0,
      "note": 54,
      "start": 75.3643,
      "duration": 0.0803,
      "velocity": 94,
      "chip": "ym2612"
    },
    {
      "channel": 0,
      "note": 56,
      "start": 75.548,
      "duration": 0.43,
      "velocity": 94,
      "chip": "ym2612"
    },
    {
      "channel": 5,
      "note": 45,
      "start": 75.5507,
      "duration": 0.0774,
      "velocity": 125,
      "chip": "ym2612"
    },
    {
      "channel": 2,
      "note": 81,
      "start": 75.5537,
      "duration": 0.0746,
      "velocity": 103,
      "chip": "ym2612"
    },
    {
      "channel": 0,
      "note": 56,
      "start": 76.081,
      "duration": 0.0469,
      "velocity": 94,
      "chip": "ym2612"
    },
    {
      "channel": 0,
      "note": 56,
      "start": 76.2639,
      "duration": 0.0473,
      "velocity": 94,
      "chip": "ym2612"
    },
    {
      "channel": 5,
      "note": 45,
      "start": 76.2668,
      "duration": 0.0448,
      "velocity": 125,
      "chip": "ym2612"
    },
    {
      "channel": 2,
      "note": 81,
      "start": 76.2698,
      "duration": 0.1083,
      "velocity": 103,
      "chip": "ym2612"
    },
    {
      "channel": 0,
      "note": 56,
      "start": 76.4308,
      "duration": 0.1471,
      "velocity": 94,
      "chip": "ym2612"
    },
    {
      "channel": 5,
      "note": 45,
      "start": 76.4335,
      "duration": 0.0613,
      "velocity": 125,
      "chip": "ym2612"
    },
    {
      "channel": 2,
      "note": 81,
      "start": 76.4366,
      "duration": 0.0916,
      "velocity": 103,
      "chip": "ym2612"
    },
    {
      "channel": 0,
      "note": 59,
      "start": 76.6144,
      "duration": 0.3302,
      "velocity": 94,
      "chip": "ym2612"
    },
    {
      "channel": 3,
      "note": 57,
      "start": 76.617,
      "duration": 0.1111,
      "velocity": 119,
      "chip": "ym2612"
    },
    {
      "channel": 2,
      "note": 81,
      "start": 76.7987,
      "duration": 0.0462,
      "velocity": 103,
      "chip": "ym2612"
    },
    {
      "channel": 0,
      "note": 56,
      "start": 76.981,
      "duration": 0.1469,
      "velocity": 94,
      "chip": "ym2612"
    },
    {
      "channel": 5,
      "note": 97,
      "start": 76.9841,
      "duration": 0.2773,
      "velocity": 121,
      "chip": "ym2612"
    },
    {
      "channel": 0,
      "note": 54,
      "start": 77.1475,
      "duration": 0.0971,
      "velocity": 94,
      "chip": "ym2612"
    },
    {
      "channel": 0,
      "note": 54,
      "start": 77.3312,
      "duration": 0.4134,
      "velocity": 94,
      "chip": "ym2612"
    },
    {
      "channel": 3,
      "note": 45,
      "start": 77.3342,
      "duration": 0.0771,
      "velocity": 125,
      "chip": "ym2612"
    },
    {
      "channel": 1,
      "note": 66,
      "start": 77.3378,
      "duration": 2.7401,
      "velocity": 107,
      "chip": "ym2612"
    },
    {
      "channel": 2,
      "note": 70,
      "start": 77.3407,
      "duration": 2.7377,
      "velocity": 107,
      "chip": "ym2612"
    },
    {
      "channel": 5,
      "note": 81,
      "start": 77.6982,
      "duration": 0.08,
      "velocity": 103,
      "chip": "ym2612"
    },
    {
      "channel": 0,
      "note": 54,
      "start": 77.8642,
      "duration": 0.2137,
      "velocity": 94,
      "chip": "ym2612"
    },
    {
      "channel": 3,
      "note": 45,
      "start": 77.8668,
      "duration": 0.0612,
      "velocity": 125,
      "chip": "ym2612"
    },
    {
      "channel": 5,
      "note": 81,
      "start": 77.8698,
      "duration": 0.175,
      "velocity": 103,
      "chip": "ym2612"
    },
    {
      "channel": 4,
      "note": 57,
      "start": 78.0478,
      "duration": 0.1137,
      "velocity": 119,
      "chip": "ym2612"
    },
    {
      "channel": 0,
      "note": 52,
      "start": 78.231,
      "duration": 0.0803,
      "velocity": 94,
      "chip": "ym2612"
    },
    {
      "channel": 0,
      "note": 54,
      "start": 78.3976,
      "duration": 0.3636,
      "velocity": 94,
      "chip": "ym2612"
    },
    {
      "channel": 3,
      "note": 45,
      "start": 78.4007,
      "duration": 0.094,
      "velocity": 125,
      "chip": "ym2612"
    },
    {
      "channel": 5,
      "note": 81,
      "start": 78.4037,
      "duration": 0.0912,
      "velocity": 103,
      "chip": "ym2612"
    },
    {
      "channel": 0,
      "note": 54,
      "start": 78.9476,
      "duration": 0.047,
      "velocity": 94,
      "chip": "ym2612"
    },
    {
      "channel": 0,
      "note": 54,
      "start": 79.114,
      "duration": 0.0639,
      "velocity": 94,
      "chip": "ym2612"
    },
    {
      "channel": 3,
      "note": 45,
      "start": 79.1166,
      "duration": 0.0948,
      "velocity": 125,
      "chip": "ym2612"
    },
    {
      "channel": 5,
      "note": 81,
      "start": 79.1195,
      "duration": 0.0921,
      "velocity": 103,
      "chip": "ym2612"
    },
    {
      "channel": 0,
      "note": 54,
      "start": 79.2978,
      "duration": 0.1134,
      "velocity": 94,
      "chip": "ym2612"
    },
    {
      "channel": 5,
      "note": 81,
      "start": 79.301,
      "duration": 0.1771,
      "velocity": 103,
      "chip": "ym2612"
    },
    {
      "channel": 0,
      "note": 56,
      "start": 79.481,
      "duration": 0.3303,
      "velocity": 94,
      "chip": "ym2612"
    },
    {
      "channel": 4,
      "note": 57,
      "start": 79.4843,
      "duration": 0.0771,
      "velocity": 119,
      "chip": "ym2612"
    },
    {
      "channel": 3,
      "note": 45,
      "start": 79.6644,
      "duration": 0.047,
      "velocity": 125,
      "chip": "ym2612"
    },
    {
      "channel": 5,
      "note": 81,
      "start": 79.6677,
      "duration": 0.0438,
      "velocity": 103,
      "chip": "ym2612"
    },
    {
      "channel": 0,
      "note": 59,
      "start": 79.8309,
      "duration": 0.1471,
      "velocity": 94,
      "chip": "ym2612"
    },
    {
      "channel": 4,
      "note": 97,
      "start": 79.8342,
      "duration": 0.3272,
      "velocity": 121,
      "chip": "ym2612"
    },
    {
      "channel": 0,
      "note": 61,
      "start": 80.014,
      "duration": 0.1472,
      "velocity": 94,
      "chip": "ym2612"
    },
    {
      "channel": 3,
      "note": 45,
      "start": 80.0166,
      "duration": 0.0615,
      "velocity": 125,
      "chip": "ym2612"
    },
    {
      "channel": 0,
      "note": 61,
      "start": 80.1988,
      "duration": 0.1458,
      "velocity": 94,
      "chip": "ym2612"
    },
    {
      "channel": 3,
      "note": 45,
      "start": 80.2016,
      "duration": 0.0765,
      "velocity": 125,
      "chip": "ym2612"
    },
    {
      "channel": 1,
      "note": 68,
      "start": 80.2117,
      "duration": 8.5496,
      "velocity": 107,
      "chip": "ym2612"
    },
    {
      "channel": 2,
      "note": 73,
      "start": 80.2149,
      "duration": 5.6801,
      "velocity": 107,
      "chip": "ym2612"
    },
    {
      "channel": 0,
      "note": 56,
      "start": 80.3807,
      "duration": 0.1473,
      "velocity": 94,
      "chip": "ym2612"
    },
    {
      "channel": 0,
      "note": 59,
      "start": 80.5473,
      "duration": 0.1473,
      "velocity": 94,
      "chip": "ym2612"
    },
    {
      "channel": 5,
      "note": 81,
      "start": 80.5504,
      "duration": 0.0943,
      "velocity": 103,
      "chip": "ym2612"
    },
    {
      "channel": 0,
      "note": 49,
      "start": 80.7309,
      "duration": 0.147,
      "velocity": 94,
      "chip": "ym2612"
    },
    {
      "channel": 3,
      "note": 45,
      "start": 80.7335,
      "duration": 0.0779,
      "velocity": 125,
      "chip": "ym2612"
    },
    {
      "channel": 5,
      "note": 81,
      "start": 80.7363,
      "duration": 0.0753,
      "velocity": 103,
      "chip": "ym2612"
    },
    {
      "channel": 4,
      "note": 57,
      "start": 80.9148,
      "duration": 0.1799,
      "velocity": 119,
      "chip": "ym2612"
    },
    {
      "channel": 0,
      "note": 47,
      "start": 81.0976,
      "duration": 0.0469,
      "velocity": 94,
      "chip": "ym2612"
    },
    {
      "channel": 0,
      "note": 49,
      "start": 81.2643,
      "duration": 0.5136,
      "velocity": 94,
      "chip": "ym2612"
    },
    {
      "channel": 3,
      "note": 45,
      "start": 81.2669,
      "duration": 0.0945,
      "velocity": 125,
      "chip": "ym2612"
    },
    {
      "channel": 5,
      "note": 81,
      "start": 81.2698,
      "duration": 0.0918,
      "velocity": 103,
      "chip": "ym2612"
    },
    {
      "channel": 0,
      "note": 56,
      "start": 81.8147,
      "duration": 0.0466,
      "velocity": 94,
      "chip": "ym2612"
    },
    {
      "channel": 0,
      "note": 56,
      "start": 81.9807,
      "duration": 0.0639,
      "velocity": 94,
      "chip": "ym2612"
    },
    {
      "channel": 3,
      "note": 45,
      "start": 81.9833,
      "duration": 0.0948,
      "velocity": 125,
      "chip": "ym2612"
    },
    {
      "channel": 5,
      "note": 81,
      "start": 81.9861,
      "duration": 0.0921,
      "velocity": 103,
      "chip": "ym2612"
    },
    {
      "channel": 0,
      "note": 56,
      "start": 82.1641,
      "duration": 0.1471,
      "velocity": 94,
      "chip": "ym2612"
    },
    {
      "channel": 5,
      "note": 81,
      "start": 82.167,
      "duration": 0.0778,
      "velocity": 103,
      "chip": "ym2612"
    },
    {
      "channel": 0,
      "note": 59,
      "start": 82.3477,
      "duration": 0.3136,
      "velocity": 94,
      "chip": "ym2612"
    },
    {
      "channel": 4,
      "note": 57,
      "start": 82.3504,
      "duration": 0.2276,
      "velocity": 119,
      "chip": "ym2612"
    },
    {
      "channel": 5,
      "note": 81,
      "start": 82.5314,
      "duration": 0.0468,
      "velocity": 103,
      "chip": "ym2612"
    },
    {
      "channel": 0,
      "note": 56,
      "start": 82.6976,
      "duration": 0.1471,
      "velocity": 94,
      "chip": "ym2612"
    },
    {
      "channel": 3,
      "note": 97,
      "start": 82.701,
      "duration": 0.3271,
      "velocity": 121,
      "chip": "ym2612"
    },
    {
      "channel": 0,
      "note": 54,
      "start": 82.8807,
      "duration": 0.1472,
      "velocity": 94,
      "chip": "ym2612"
    },
    {
      "channel": 0,
      "note": 49,
      "start": 83.0643,
      "duration": 0.4136,
      "velocity": 94,
      "chip": "ym2612"
    },
    {
      "channel": 4,
      "note": 45,
      "start": 83.0671,
      "duration": 0.0777,
      "velocity": 125,
      "chip": "ym2612"
    },
    {
      "channel": 5,
      "note": 81,
      "start": 83.4153,
      "duration": 0.1129,
      "velocity": 103,
      "chip": "ym2612"
    },
    {
      "channel": 0,
      "note": 49,
      "start": 83.598,
      "duration": 0.1466,
      "velocity": 94,
      "chip": "ym2612"
    },
    {
      "channel": 4,
      "note": 45,
      "start": 83.6005,
      "duration": 0.0776,
      "velocity": 125,
      "chip": "ym2612"
    },
    {
      "channel": 5,
      "note": 81,
      "start": 83.6035,
      "duration": 0.0747,
      "velocity": 103,
      "chip": "ym2612"
    },
    {
      "channel": 3,
      "note": 57,
      "start": 83.7813,
      "duration": 0.1134,
      "velocity": 119,
      "chip": "ym2612"
    },
    {
      "channel": 0,
      "note": 47,
      "start": 83.9476,
      "duration": 0.0969,
      "velocity": 94,
      "chip": "ym2612"
    },
    {
      "channel": 0,
      "note": 49,
      "start": 84.131,
      "duration": 0.4137,
      "velocity": 94,
      "chip": "ym2612"
    },
    {
      "channel": 4,
      "note": 45,
      "start": 84.1336,
      "duration": 0.0945,
      "velocity": 125,
      "chip": "ym2612"
    },
    {
      "channel": 5,
      "note": 81,
      "start": 84.1364,
      "duration": 0.0918,
      "velocity": 103,
      "chip": "ym2612"
    },
    {
      "channel": 0,
      "note": 56,
      "start": 84.6643,
      "duration": 0.0637,
      "velocity": 94,
      "chip": "ym2612"
    },
    {
      "channel": 0,
      "note": 56,
      "start": 84.8473,
      "duration": 0.0639,
      "velocity": 94,
      "chip": "ym2612"
    },
    {
      "channel": 4,
      "note": 45,
      "start": 84.85,
      "duration": 0.0948,
      "velocity": 125,
      "chip": "ym2612"
    },
    {
      "channel": 5,
      "note": 81,
      "start": 84.8528,
      "duration": 0.0921,
      "velocity": 103,
      "chip": "ym2612"
    },
    {
      "channel": 0,
      "note": 56,
      "start": 85.0308,
      "duration": 0.1471,
      "velocity": 94,
      "chip": "ym2612"
    },
    {
      "channel": 5,
      "note": 81,
      "start": 85.0338,
      "duration": 0.1776,
      "velocity": 103,
      "chip": "ym2612"
    },
    {
      "channel": 0,
      "note": 59,
      "start": 85.2147,
      "duration": 0.3132,
      "velocity": 94,
      "chip": "ym2612"
    },
    {
      "channel": 3,
      "note": 57,
      "start": 85.2174,
      "duration": 0.1606,
      "velocity": 119,
      "chip": "ym2612"
    },
    {
      "channel": 5,
      "note": 81,
      "start": 85.3816,
      "duration": 0.0632,
      "velocity": 103,
      "chip": "ym2612"
    },
    {
      "channel": 0,
      "note": 56,
      "start": 85.5643,
      "duration": 0.1469,
      "velocity": 94,
      "chip": "ym2612"
    },
    {
      "channel": 4,
      "note": 97,
      "start": 85.5673,
      "duration": 0.3276,
      "velocity": 121,
      "chip": "ym2612"
    },
    {
      "channel": 0,
      "note": 54,
      "start": 85.7473,
      "duration": 0.1473,
      "velocity": 94,
      "chip": "ym2612"
    },
    {
      "channel": 0,
      "note": 61,
      "start": 85.9307,
      "duration": 0.1473,
      "velocity": 94,
      "chip": "ym2612"
    },
    {
      "channel": 3,
      "note": 45,
      "start": 85.9338,
      "duration": 0.0776,
      "velocity": 125,
      "chip": "ym2612"
    },
    {
      "channel": 2,
      "note": 71,
      "start": 85.9375,
      "duration": 2.8741,
      "velocity": 107,
      "chip": "ym2612"
    },
    {
      "channel": 0,
      "note": 56,
      "start": 86.0974,
      "duration": 0.1473,
      "velocity": 94,
      "chip": "ym2612"
    },
    {
      "channel": 0,
      "note": 59,
      "start": 86.2808,
      "duration": 0.1137,
      "velocity": 94,
      "chip": "ym2612"
    },
    {
      "channel": 5,
      "note": 81,
      "start": 86.2843,
      "duration": 0.1105,
      "velocity": 103,
      "chip": "ym2612"
    },
    {
      "channel": 0,
      "note": 56,
      "start": 86.4643,
      "duration": 0.1803,
      "velocity": 94,
      "chip": "ym2612"
    },
    {
      "channel": 3,
      "note": 45,
      "start": 86.4669,
      "duration": 0.0445,
      "velocity": 125,
      "chip": "ym2612"
    },
    {
      "channel": 5,
      "note": 81,
      "start": 86.4699,
      "duration": 0.0749,
      "velocity": 103,
      "chip": "ym2612"
    },
    {
      "channel": 4,
      "note": 57,
      "start": 86.648,
      "duration": 0.1468,
      "velocity": 119,
      "chip": "ym2612"
    },
    {
      "channel": 0,
      "note": 54,
      "start": 86.8143,
      "duration": 0.0969,
      "velocity": 94,
      "chip": "ym2612"
    },
    {
      "channel": 0,
      "note": 56,
      "start": 86.998,
      "duration": 0.4466,
      "velocity": 94,
      "chip": "ym2612"
    },
    {
      "channel": 3,
      "note": 45,
      "start": 87.0008,
      "duration": 0.0772,
      "velocity": 125,
      "chip": "ym2612"
    },
    {
      "channel": 5,
      "note": 81,
      "start": 87.0036,
      "duration": 0.0746,
      "velocity": 103,
      "chip": "ym2612"
    },
    {
      "channel": 0,
      "note": 56,
      "start": 87.531,
      "duration": 0.0637,
      "velocity": 94,
      "chip": "ym2612"
    },
    {
      "channel": 0,
      "note": 56,
      "start": 87.7139,
      "duration": 0.0641,
      "velocity": 94,
      "chip": "ym2612"
    },
    {
      "channel": 3,
      "note": 45,
      "start": 87.7167,
      "duration": 0.0615,
      "velocity": 125,
      "chip": "ym2612"
    },
    {
      "channel": 5,
      "note": 81,
      "start": 87.7196,
      "duration": 0.1085,
      "velocity": 103,
      "chip": "ym2612"
    },
    {
      "channel": 0,
      "note": 56,
      "start": 87.8976,
      "duration": 0.147,
      "velocity": 94,
      "chip": "ym2612"
    },
    {
      "channel": 3,
      "note": 45,
      "start": 87.9002,
      "duration": 0.0445,
      "velocity": 125,
      "chip": "ym2612"
    },
    {
      "channel": 5,
      "note": 81,
      "start": 87.9031,
      "duration": 0.075,
      "velocity": 103,
      "chip": "ym2612"
    },
    {
      "channel": 0,
      "note": 59,
      "start": 88.081,
      "duration": 0.3136,
      "velocity": 94,
      "chip": "ym2612"
    },
    {
      "channel": 4,
      "note": 57,
      "start": 88.0838,
      "duration": 0.111,
      "velocity": 119,
      "chip": "ym2612"
    },
    {
      "channel": 5,
      "note": 81,
      "start": 88.2485,
      "duration": 0.063,
      "velocity": 103,
      "chip": "ym2612"
    },
    {
      "channel": 0,
      "note": 56,
      "start": 88.431,
      "duration": 0.1469,
      "velocity": 94,
      "chip": "ym2612"
    },
    {
      "channel": 3,
      "note": 97,
      "start": 88.4341,
      "duration": 0.294,
      "velocity": 121,
      "chip": "ym2612"
    },
    {
      "channel": 0,
      "note": 54,
      "start": 88.6142,
      "duration": 0.0804,
      "velocity": 94,
      "chip": "ym2612"
    },
    {
      "channel": 0,
      "note": 54,
      "start": 88.7813,
      "duration": 0.4299,
      "velocity": 94,
      "chip": "ym2612"
    },
    {
      "channel": 4,
      "note": 45,
      "start": 88.7843,
      "duration": 0.0938,
      "velocity": 125,
      "chip": "ym2612"
    },
    {
      "channel": 1,
      "note": 66,
      "start": 88.788,
      "duration": 2.74,
      "velocity": 107,
      "chip": "ym2612"
    },
    {
      "channel": 5,
      "note": 70,
      "start": 88.7907,
      "duration": 2.7376,
      "velocity": 107,
      "chip": "ym2612"
    },
    {
      "channel": 3,
      "note": 81,
      "start": 89.1481,
      "duration": 0.0799,
      "velocity": 103,
      "chip": "ym2612"
    },
    {
      "channel": 0,
      "note": 54,
      "start": 89.3309,
      "duration": 0.1971,
      "velocity": 94,
      "chip": "ym2612"
    },
    {
      "channel": 4,
      "note": 45,
      "start": 89.3336,
      "duration": 0.0446,
      "velocity": 125,
      "chip": "ym2612"
    },
    {
      "channel": 3,
      "note": 81,
      "start": 89.3364,
      "duration": 0.1582,
      "velocity": 103,
      "chip": "ym2612"
    },
    {
      "channel": 2,
      "note": 57,
      "start": 89.4979,
      "duration": 0.1303,
      "velocity": 119,
      "chip": "ym2612"
    },
    {
      "channel": 0,
      "note": 52,
      "start": 89.6809,
      "duration": 0.097,
      "velocity": 94,
      "chip": "ym2612"
    },
    {
      "channel": 0,
      "note": 54,
      "start": 89.8643,
      "duration": 0.347,
      "velocity": 94,
      "chip": "ym2612"
    },
    {
      "channel": 4,
      "note": 45,
      "start": 89.8675,
      "duration": 0.0774,
      "velocity": 125,
      "chip": "ym2612"
    },
    {
      "channel": 3,
      "note": 81,
      "start": 89.8704,
      "duration": 0.0744,
      "velocity": 103,
      "chip": "ym2612"
    },
    {
      "channel": 0,
      "note": 54,
      "start": 90.3976,
      "duration": 0.0636,
      "velocity": 94,
      "chip": "ym2612"
    },
    {
      "channel": 0,
      "note": 54,
      "start": 90.5807,
      "duration": 0.0472,
      "velocity": 94,
      "chip": "ym2612"
    },
    {
      "channel": 4,
      "note": 45,
      "start": 90.5833,
      "duration": 0.0782,
      "velocity": 125,
      "chip": "ym2612"
    },
    {
      "channel": 3,
      "note": 81,
      "start": 90.5861,
      "duration": 0.0753,
      "velocity": 103,
      "chip": "ym2612"
    },
    {
      "channel": 0,
      "note": 54,
      "start": 90.7644,
      "duration": 0.1136,
      "velocity": 94,
      "chip": "ym2612"
    },
    {
      "channel": 3,
      "note": 81,
      "start": 90.7674,
      "duration": 0.1606,
      "velocity": 103,
      "chip": "ym2612"
    },
    {
      "channel": 0,
      "note": 56,
      "start": 90.931,
      "duration": 0.3302,
      "velocity": 94,
      "chip": "ym2612"
    },
    {
      "channel": 2,
      "note": 57,
      "start": 90.9345,
      "duration": 0.0937,
      "velocity": 119,
      "chip": "ym2612"
    },
    {
      "channel": 4,
      "note": 45,
      "start": 91.1145,
      "duration": 0.0637,
      "velocity": 125,
      "chip": "ym2612"
    },
    {
      "channel": 3,
      "note": 81,
      "start": 91.1177,
      "duration": 0.0604,
      "velocity": 103,
      "chip": "ym2612"
    },
    {
      "channel": 0,
      "note": 59,
      "start": 91.2977,
      "duration": 0.147,
      "velocity": 94,
      "chip": "ym2612"
    },
    {
      "channel": 2,
      "note": 97,
      "start": 91.301,
      "duration": 0.3273,
      "velocity": 121,
      "chip": "ym2612"
    },
    {
      "channel": 0,
      "note": 61,
      "start": 91.4807,
      "duration": 0.1473,
      "velocity": 94,
      "chip": "ym2612"
    },
    {
      "channel": 4,
      "note": 45,
      "start": 91.4834,
      "duration": 0.0448,
      "velocity": 125,
      "chip": "ym2612"
    }
  ]
}