{
  "track_name": "08 - Fresh Melon",
  "duration_sec": 69.553,
  "sample_rate": 44100,
  "note_count": 22182,
  "unique_pitches": 51,
  "pitch_range": 54,
  "avg_note_duration": 0.016,
  "reconstruction_stats": {
    "notes_reconstructed": 22182,
    "keyon_events": 22182,
    "keyoff_events": 1612,
    "orphan_keyons": 2,
    "unique_pitches": 51,
    "pitch_range": 54,
    "avg_duration_sec": 0.016
  },
  "metadata": {
    "source": "S\\Super Fantasy Zone\\08 - Fresh Melon.vgz"
  },
  "notes": [
    {
      "channel": 0,
      "note": 36,
      "start": 0.0,
      "duration": 0.0,
      "velocity": 115,
      "chip": "ym2612"
    },
    {
      "channel": 0,
      "note": 36,
      "start": 0.0,
      "duration": 0.0,
      "velocity": 115,
      "chip": "ym2612"
    },
    {
      "channel": 0,
      "note": 37,
      "start": 0.0,
      "duration": 0.0,
      "velocity": 115,
      "chip": "ym2612"
    },
    {
      "channel": 0,
      "note": 37,
      "start": 0.0,
      "duration": 0.0,
      "velocity": 115,
      "chip": "ym2612"
    },
    {
      "channel": 0,
      "note": 38,
      "start": 0.0,
      "duration": 0.0,
      "velocity": 115,
      "chip": "ym2612"
    },
    {
      "channel": 0,
      "note": 38,
      "start": 0.0,
      "duration": 0.0,
      "velocity": 115,
      "chip": "ym2612"
    },
    {
      "channel": 0,
      "note": 39,
      "start": 0.0,
      "duration": 0.0,
      "velocity": 124,
      "chip": "ym2612"
    },
    {
      "channel": 0,
      "note": 84,
      "start": 0.0,
      "duration": 0.0,
      "velocity": 124,
      "chip": "ym2612"
    },
    {
      "channel": 0,
      "note": 82,
      "start": 0.0,
      "duration": 0.0,
      "velocity": 124,
      "chip": "ym2612"
    },
    {
      "channel": 0,
      "note": 80,
      "start": 0.0,
      "duration": 0.0,
      "velocity": 124,
      "chip": "ym2612"
    },
    {
      "channel": 0,
      "note": 77,
      "start": 0.0,
      "duration": 0.0,
      "velocity": 124,
      "chip": "ym2612"
    },
    {
      "channel": 0,
      "note": 75,
      "start": 0.0,
      "duration": 0.0,
      "velocity": 124,
      "chip": "ym2612"
    },
    {
      "channel": 0,
      "note": 72,
      "start": 0.0,
      "duration": 0.0,
      "velocity": 124,
      "chip": "ym2612"
    },
    {
      "channel": 0,
      "note": 70,
      "start": 0.0,
      "duration": 0.0,
      "velocity": 1,
      "chip": "ym2612"
    },
    {
      "channel": 0,
      "note": 36,
      "start": 0.0,
      "duration": 0.0189,
      "velocity": 115,
      "chip": "ym2612"
    },
    {
      "channel": 1,
      "note": 79,
      "start": 0.0,
      "duration": 0.0,
      "velocity": 127,
      "chip": "ym2612"
    },
    {
      "channel": 1,
      "note": 79,
      "start": 0.0,
      "duration": 0.0,
      "velocity": 127,
      "chip": "ym2612"
    },
    {
      "channel": 1,
      "note": 79,
      "start": 0.0,
      "duration": 0.0,
      "velocity": 127,
      "chip": "ym2612"
    },
    {
      "channel": 1,
      "note": 79,
      "start": 0.0,
      "duration": 0.0,
      "velocity": 127,
      "chip": "ym2612"
    },
    {
      "channel": 1,
      "note": 79,
      "start": 0.0,
      "duration": 0.0,
      "velocity": 127,
      "chip": "ym2612"
    },
    {
      "channel": 1,
      "note": 79,
      "start": 0.0,
      "duration": 0.0,
      "velocity": 127,
      "chip": "ym2612"
    },
    {
      "channel": 1,
      "note": 79,
      "start": 0.0,
      "duration": 0.0,
      "velocity": 127,
      "chip": "ym2612"
    },
    {
      "channel": 1,
      "note": 79,
      "start": 0.0,
      "duration": 0.0,
      "velocity": 127,
      "chip": "ym2612"
    },
    {
      "channel": 1,
      "note": 79,
      "start": 0.0,
      "duration": 0.0,
      "velocity": 127,
      "chip": "ym2612"
    },
    {
      "channel": 1,
      "note": 79,
      "start": 0.0,
      "duration": 0.0,
      "velocity": 127,
      "chip": "ym2612"
    },
    {
      "channel": 1,
      "note": 79,
      "start": 0.0,
      "duration": 0.0,
      "velocity": 1,
      "chip": "ym2612"
    },
    {
      "channel": 2,
      "note": 62,
      "start": 0.0,
      "duration": 0.0,
      "velocity": 100,
      "chip": "ym2612"
    },
    {
      "channel": 2,
      "note": 62,
      "start": 0.0,
      "duration": 0.0,
      "velocity": 100,
      "chip": "ym2612"
    },
    {
      "channel": 2,
      "note": 62,
      "start": 0.0,
      "duration": 0.0,
      "velocity": 100,
      "chip": "ym2612"
    },
    {
      "channel": 2,
      "note": 62,
      "start": 0.0,
      "duration": 0.0,
      "velocity": 100,
      "chip": "ym2612"
    },
    {
      "channel": 2,
      "note": 62,
      "start": 0.0,
      "duration": 0.0,
      "velocity": 100,
      "chip": "ym2612"
    },
    {
      "channel": 2,
      "note": 62,
      "start": 0.0,
      "duration": 0.0,
      "velocity": 100,
      "chip": "ym2612"
    },
    {
      "channel": 2,
      "note": 62,
      "start": 0.0,
      "duration": 0.0,
      "velocity": 100,
      "chip": "ym2612"
    },
    {
      "channel": 2,
      "note": 57,
      "start": 0.0,
      "duration": 0.0,
      "velocity": 100,
      "chip": "ym2612"
    },
    {
      "channel": 2,
      "note": 57,
      "start": 0.0,
      "duration": 0.0,
      "velocity": 100,
      "chip": "ym2612"
    },
    {
      "channel": 2,
      "note": 57,
      "start": 0.0,
      "duration": 0.0,
      "velocity": 100,
      "chip": "ym2612"
    },
    {
      "channel": 2,
      "note": 57,
      "start": 0.0,
      "duration": 0.0,
      "velocity": 100,
      "chip": "ym2612"
    },
    {
      "channel": 2,
      "note": 57,
      "start": 0.0,
      "duration": 0.0,
      "velocity": 100,
      "chip": "ym2612"
    },
    {
      "channel": 2,
      "note": 57,
      "start": 0.0,
      "duration": 0.0,
      "velocity": 100,
      "chip": "ym2612"
    },
    {
      "channel": 2,
      "note": 57,
      "start": 0.0,
      "duration": 0.0108,
      "velocity": 93,
      "chip": "ym2612"
    },
    {
      "channel": 3,
      "note": 74,
      "start": 0.0,
      "duration": 0.0,
      "velocity": 102,
      "chip": "ym2612"
    },
    {
      "channel": 3,
      "note": 74,
      "start": 0.0,
      "duration": 0.0,
      "velocity": 102,
      "chip": "ym2612"
    },
    {
      "channel": 3,
      "note": 74,
      "start": 0.0,
      "duration": 0.0,
      "velocity": 102,
      "chip": "ym2612"
    },
    {
      "channel": 3,
      "note": 74,
      "start": 0.0,
      "duration": 0.0,
      "velocity": 102,
      "chip": "ym2612"
    },
    {
      "channel": 3,
      "note": 74,
      "start": 0.0,
      "duration": 0.0,
      "velocity": 102,
      "chip": "ym2612"
    },
    {
      "channel": 3,
      "note": 74,
      "start": 0.0,
      "duration": 0.0,
      "velocity": 102,
      "chip": "ym2612"
    },
    {
      "channel": 3,
      "note": 74,
      "start": 0.0,
      "duration": 0.0,
      "velocity": 102,
      "chip": "ym2612"
    },
    {
      "channel": 3,
      "note": 74,
      "start": 0.0,
      "duration": 0.0,
      "velocity": 102,
      "chip": "ym2612"
    },
    {
      "channel": 3,
      "note": 74,
      "start": 0.0,
      "duration": 0.0,
      "velocity": 102,
      "chip": "ym2612"
    },
    {
      "channel": 3,
      "note": 74,
      "start": 0.0,
      "duration": 0.0,
      "velocity": 102,
      "chip": "ym2612"
    },
    {
      "channel": 3,
      "note": 74,
      "start": 0.0,
      "duration": 0.0,
      "velocity": 102,
      "chip": "ym2612"
    },
    {
      "channel": 3,
      "note": 74,
      "start": 0.0,
      "duration": 0.0,
      "velocity": 102,
      "chip": "ym2612"
    },
    {
      "channel": 3,
      "note": 74,
      "start": 0.0,
      "duration": 0.0,
      "velocity": 102,
      "chip": "ym2612"
    },
    {
      "channel": 3,
      "note": 74,
      "start": 0.0,
      "duration": 0.0077,
      "velocity": 98,
      "chip": "ym2612"
    },
    {
      "channel": 4,
      "note": 81,
      "start": 0.0,
      "duration": 0.0,
      "velocity": 99,
      "chip": "ym2612"
    },
    {
      "channel": 4,
      "note": 81,
      "start": 0.0,
      "duration": 0.0,
      "velocity": 99,
      "chip": "ym2612"
    },
    {
      "channel": 4,
      "note": 81,
      "start": 0.0,
      "duration": 0.0,
      "velocity": 99,
      "chip": "ym2612"
    },
    {
      "channel": 4,
      "note": 81,
      "start": 0.0,
      "duration": 0.0,
      "velocity": 99,
      "chip": "ym2612"
    },
    {
      "channel": 4,
      "note": 81,
      "start": 0.0,
      "duration": 0.0,
      "velocity": 99,
      "chip": "ym2612"
    },
    {
      "channel": 4,
      "note": 81,
      "start": 0.0,
      "duration": 0.0,
      "velocity": 99,
      "chip": "ym2612"
    },
    {
      "channel": 4,
      "note": 78,
      "start": 0.0,
      "duration": 0.0,
      "velocity": 99,
      "chip": "ym2612"
    },
    {
      "channel": 4,
      "note": 78,
      "start": 0.0,
      "duration": 0.0,
      "velocity": 99,
      "chip": "ym2612"
    },
    {
      "channel": 4,
      "note": 78,
      "start": 0.0,
      "duration": 0.0,
      "velocity": 99,
      "chip": "ym2612"
    },
    {
      "channel": 4,
      "note": 78,
      "start": 0.0,
      "duration": 0.0,
      "velocity": 99,
      "chip": "ym2612"
    },
    {
      "channel": 4,
      "note": 78,
      "start": 0.0,
      "duration": 0.0,
      "velocity": 99,
      "chip": "ym2612"
    },
    {
      "channel": 4,
      "note": 78,
      "start": 0.0,
      "duration": 0.0,
      "velocity": 99,
      "chip": "ym2612"
    },
    {
      "channel": 5,
      "note": 78,
      "start": 0.0,
      "duration": 0.0,
      "velocity": 99,
      "chip": "ym2612"
    },
    {
      "channel": 5,
      "note": 78,
      "start": 0.0,
      "duration": 0.0,
      "velocity": 99,
      "chip": "ym2612"
    },
    {
      "channel": 5,
      "note": 78,
      "start": 0.0,
      "duration": 0.0,
      "velocity": 99,
      "chip": "ym2612"
    },
    {
      "channel": 5,
      "note": 78,
      "start": 0.0,
      "duration": 0.0,
      "velocity": 99,
      "chip": "ym2612"
    },
    {
      "channel": 5,
      "note": 78,
      "start": 0.0,
      "duration": 0.0,
      "velocity": 99,
      "chip": "ym2612"
    },
    {
      "channel": 5,
      "note": 78,
      "start": 0.0,
      "duration": 0.0,
      "velocity": 99,
      "chip": "ym2612"
    },
    {
      "channel": 5,
      "note": 81,
      "start": 0.0,
      "duration": 0.0,
      "velocity": 99,
      "chip": "ym2612"
    },
    {
      "channel": 5,
      "note": 81,
      "start": 0.0,
      "duration": 0.0,
      "velocity": 99,
      "chip": "ym2612"
    },
    {
      "channel": 5,
      "note": 81,
      "start": 0.0,
      "duration": 0.0,
      "velocity": 99,
      "chip": "ym2612"
    },
    {
      "channel": 5,
      "note": 81,
      "start": 0.0,
      "duration": 0.0,
      "velocity": 99,
      "chip": "ym2612"
    },
    {
      "channel": 5,
      "note": 81,
      "start": 0.0,
      "duration": 0.0,
      "velocity": 99,
      "chip": "ym2612"
    },
    {
      "channel": 5,
      "note": 81,
      "start": 0.0,
      "duration": 0.0,
      "velocity": 99,
      "chip": "ym2612"
    },
    {
      "channel": 4,
      "note": 80,
      "start": 0.0047,
      "duration": 0.0165,
      "velocity": 98,
      "chip": "ym2612"
    },
    {
      "channel": 3,
      "note": 83,
      "start": 0.0078,
      "duration": 0.0147,
      "velocity": 98,
      "chip": "ym2612"
    },
    {
      "channel": 2,
      "note": 64,
      "start": 0.0108,
      "duration": 0.0129,
      "velocity": 93,
      "chip": "ym2612"
    },
    {
      "channel": 1,
      "note": 76,
      "start": 0.0138,
      "duration": 0.0111,
      "velocity": 103,
      "chip": "ym2612"
    },
    {
      "channel": 0,
      "note": 36,
      "start": 0.0189,
      "duration": 0.0097,
      "velocity": 115,
      "chip": "ym2612"
    },
    {
      "channel": 4,
      "note": 80,
      "start": 0.0212,
      "duration": 0.0097,
      "velocity": 98,
      "chip": "ym2612"
    },
    {
      "channel": 3,
      "note": 83,
      "start": 0.0225,
      "duration": 0.0096,
      "velocity": 98,
      "chip": "ym2612"
    },
    {
      "channel": 2,
      "note": 64,
      "start": 0.0237,
      "duration": 0.0096,
      "velocity": 93,
      "chip": "ym2612"
    },
    {
      "channel": 1,
      "note": 76,
      "start": 0.0249,
      "duration": 0.0101,
      "velocity": 103,
      "chip": "ym2612"
    },
    {
      "channel": 0,
      "note": 37,
      "start": 0.0287,
      "duration": 0.013,
      "velocity": 115,
      "chip": "ym2612"
    },
    {
      "channel": 4,
      "note": 80,
      "start": 0.031,
      "duration": 0.013,
      "velocity": 98,
      "chip": "ym2612"
    },
    {
      "channel": 3,
      "note": 83,
      "start": 0.0321,
      "duration": 0.0131,
      "velocity": 98,
      "chip": "ym2612"
    },
    {
      "channel": 2,
      "note": 64,
      "start": 0.0333,
      "duration": 0.013,
      "velocity": 93,
      "chip": "ym2612"
    },
    {
      "channel": 1,
      "note": 76,
      "start": 0.035,
      "duration": 0.0125,
      "velocity": 103,
      "chip": "ym2612"
    },
    {
      "channel": 0,
      "note": 37,
      "start": 0.0417,
      "duration": 0.0161,
      "velocity": 115,
      "chip": "ym2612"
    },
    {
      "channel": 4,
      "note": 80,
      "start": 0.044,
      "duration": 0.0161,
      "velocity": 98,
      "chip": "ym2612"
    },
    {
      "channel": 3,
      "note": 83,
      "start": 0.0451,
      "duration": 0.0161,
      "velocity": 98,
      "chip": "ym2612"
    },
    {
      "channel": 2,
      "note": 64,
      "start": 0.0463,
      "duration": 0.0161,
      "velocity": 93,
      "chip": "ym2612"
    },
    {
      "channel": 1,
      "note": 76,
      "start": 0.0475,
      "duration": 0.0161,
      "velocity": 103,
      "chip": "ym2612"
    },
    {
      "channel": 0,
      "note": 38,
      "start": 0.0578,
      "duration": 0.0161,
      "velocity": 115,
      "chip": "ym2612"
    },
    {
      "channel": 4,
      "note": 80,
      "start": 0.0601,
      "duration": 0.0161,
      "velocity": 98,
      "chip": "ym2612"
    },
    {
      "channel": 3,
      "note": 83,
      "start": 0.0612,
      "duration": 0.0162,
      "velocity": 98,
      "chip": "ym2612"
    },
    {
      "channel": 2,
      "note": 64,
      "start": 0.0624,
      "duration": 0.0161,
      "velocity": 93,
      "chip": "ym2612"
    },
    {
      "channel": 1,
      "note": 76,
      "start": 0.0636,
      "duration": 0.0161,
      "velocity": 103,
      "chip": "ym2612"
    },
    {
      "channel": 0,
      "note": 38,
      "start": 0.0739,
      "duration": 0.0161,
      "velocity": 115,
      "chip": "ym2612"
    },
    {
      "channel": 4,
      "note": 80,
      "start": 0.0762,
      "duration": 0.0181,
      "velocity": 98,
      "chip": "ym2612"
    },
    {
      "channel": 3,
      "note": 83,
      "start": 0.0774,
      "duration": 0.0181,
      "velocity": 98,
      "chip": "ym2612"
    },
    {
      "channel": 2,
      "note": 64,
      "start": 0.0785,
      "duration": 0.0181,
      "velocity": 93,
      "chip": "ym2612"
    },
    {
      "channel": 1,
      "note": 76,
      "start": 0.0797,
      "duration": 0.0182,
      "velocity": 103,
      "chip": "ym2612"
    },
    {
      "channel": 0,
      "note": 39,
      "start": 0.09,
      "duration": 0.0161,
      "velocity": 115,
      "chip": "ym2612"
    },
    {
      "channel": 5,
      "note": 76,
      "start": 0.0932,
      "duration": 0.0142,
      "velocity": 102,
      "chip": "ym2612"
    },
    {
      "channel": 4,
      "note": 80,
      "start": 0.0943,
      "duration": 0.0142,
      "velocity": 98,
      "chip": "ym2612"
    },
    {
      "channel": 3,
      "note": 83,
      "start": 0.0955,
      "duration": 0.0142,
      "velocity": 98,
      "chip": "ym2612"
    },
    {
      "channel": 2,
      "note": 64,
      "start": 0.0966,
      "duration": 0.0142,
      "velocity": 93,
      "chip": "ym2612"
    },
    {
      "channel": 1,
      "note": 76,
      "start": 0.0979,
      "duration": 0.0141,
      "velocity": 103,
      "chip": "ym2612"
    },
    {
      "channel": 0,
      "note": 39,
      "start": 0.1061,
      "duration": 0.0161,
      "velocity": 115,
      "chip": "ym2612"
    },
    {
      "channel": 5,
      "note": 76,
      "start": 0.1073,
      "duration": 0.016,
      "velocity": 102,
      "chip": "ym2612"
    },
    {
      "channel": 4,
      "note": 80,
      "start": 0.1085,
      "duration": 0.016,
      "velocity": 98,
      "chip": "ym2612"
    },
    {
      "channel": 3,
      "note": 83,
      "start": 0.1096,
      "duration": 0.016,
      "velocity": 98,
      "chip": "ym2612"
    },
    {
      "channel": 2,
      "note": 64,
      "start": 0.1108,
      "duration": 0.0161,
      "velocity": 93,
      "chip": "ym2612"
    },
    {
      "channel": 1,
      "note": 76,
      "start": 0.112,
      "duration": 0.0161,
      "velocity": 103,
      "chip": "ym2612"
    },
    {
      "channel": 0,
      "note": 40,
      "start": 0.1222,
      "duration": 0.0161,
      "velocity": 115,
      "chip": "ym2612"
    },
    {
      "channel": 5,
      "note": 76,
      "start": 0.1234,
      "duration": 0.0161,
      "velocity": 102,
      "chip": "ym2612"
    },
    {
      "channel": 4,
      "note": 80,
      "start": 0.1245,
      "duration": 0.0162,
      "velocity": 98,
      "chip": "ym2612"
    },
    {
      "channel": 3,
      "note": 83,
      "start": 0.1257,
      "duration": 0.0163,
      "velocity": 98,
      "chip": "ym2612"
    },
    {
      "channel": 2,
      "note": 64,
      "start": 0.1269,
      "duration": 0.0163,
      "velocity": 93,
      "chip": "ym2612"
    },
    {
      "channel": 1,
      "note": 76,
      "start": 0.1281,
      "duration": 0.0163,
      "velocity": 103,
      "chip": "ym2612"
    },
    {
      "channel": 0,
      "note": 40,
      "start": 0.1383,
      "duration": 0.0161,
      "velocity": 115,
      "chip": "ym2612"
    },
    {
      "channel": 5,
      "note": 76,
      "start": 0.1395,
      "duration": 0.0161,
      "velocity": 102,
      "chip": "ym2612"
    },
    {
      "channel": 4,
      "note": 80,
      "start": 0.1407,
      "duration": 0.016,
      "velocity": 98,
      "chip": "ym2612"
    },
    {
      "channel": 3,
      "note": 83,
      "start": 0.142,
      "duration": 0.016,
      "velocity": 98,
      "chip": "ym2612"
    },
    {
      "channel": 2,
      "note": 64,
      "start": 0.1432,
      "duration": 0.016,
      "velocity": 93,
      "chip": "ym2612"
    },
    {
      "channel": 1,
      "note": 76,
      "start": 0.1444,
      "duration": 0.016,
      "velocity": 103,
      "chip": "ym2612"
    },
    {
      "channel": 0,
      "note": 40,
      "start": 0.1544,
      "duration": 0.0162,
      "velocity": 115,
      "chip": "ym2612"
    },
    {
      "channel": 5,
      "note": 76,
      "start": 0.1556,
      "duration": 0.0161,
      "velocity": 102,
      "chip": "ym2612"
    },
    {
      "channel": 4,
      "note": 80,
      "start": 0.1568,
      "duration": 0.0162,
      "velocity": 98,
      "chip": "ym2612"
    },
    {
      "channel": 3,
      "note": 83,
      "start": 0.158,
      "duration": 0.0162,
      "velocity": 98,
      "chip": "ym2612"
    },
    {
      "channel": 2,
      "note": 64,
      "start": 0.1592,
      "duration": 0.0162,
      "velocity": 93,
      "chip": "ym2612"
    },
    {
      "channel": 0,
      "note": 41,
      "start": 0.1706,
      "duration": 0.0163,
      "velocity": 115,
      "chip": "ym2612"
    },
    {
      "channel": 5,
      "note": 76,
      "start": 0.1717,
      "duration": 0.0163,
      "velocity": 102,
      "chip": "ym2612"
    },
    {
      "channel": 4,
      "note": 80,
      "start": 0.173,
      "duration": 0.0162,
      "velocity": 98,
      "chip": "ym2612"
    },
    {
      "channel": 3,
      "note": 83,
      "start": 0.1742,
      "duration": 0.0162,
      "velocity": 98,
      "chip": "ym2612"
    },
    {
      "channel": 2,
      "note": 64,
      "start": 0.1754,
      "duration": 0.0161,
      "velocity": 93,
      "chip": "ym2612"
    },
    {
      "channel": 0,
      "note": 41,
      "start": 0.1869,
      "duration": 0.0163,
      "velocity": 115,
      "chip": "ym2612"
    },
    {
      "channel": 5,
      "note": 76,
      "start": 0.1881,
      "duration": 0.0163,
      "velocity": 102,
      "chip": "ym2612"
    },
    {
      "channel": 4,
      "note": 80,
      "start": 0.1892,
      "duration": 0.0163,
      "velocity": 98,
      "chip": "ym2612"
    },
    {
      "channel": 3,
      "note": 83,
      "start": 0.1904,
      "duration": 0.0163,
      "velocity": 98,
      "chip": "ym2612"
    },
    {
      "channel": 2,
      "note": 64,
      "start": 0.1916,
      "duration": 0.0163,
      "velocity": 93,
      "chip": "ym2612"
    },
    {
      "channel": 0,
      "note": 42,
      "start": 0.2032,
      "duration": 0.0163,
      "velocity": 115,
      "chip": "ym2612"
    },
    {
      "channel": 5,
      "note": 76,
      "start": 0.2044,
      "duration": 0.0162,
      "velocity": 102,
      "chip": "ym2612"
    },
    {
      "channel": 4,
      "note": 80,
      "start": 0.2056,
      "duration": 0.0161,
      "velocity": 98,
      "chip": "ym2612"
    },
    {
      "channel": 3,
      "note": 83,
      "start": 0.2067,
      "duration": 0.0162,
      "velocity": 98,
      "chip": "ym2612"
    },
    {
      "channel": 2,
      "note": 64,
      "start": 0.2079,
      "duration": 0.0162,
      "velocity": 93,
      "chip": "ym2612"
    },
    {
      "channel": 0,
      "note": 42,
      "start": 0.2194,
      "duration": 0.0161,
      "velocity": 115,
      "chip": "ym2612"
    },
    {
      "channel": 5,
      "note": 76,
      "start": 0.2206,
      "duration": 0.0161,
      "velocity": 102,
      "chip": "ym2612"
    },
    {
      "channel": 4,
      "note": 80,
      "start": 0.2217,
      "duration": 0.0162,
      "velocity": 98,
      "chip": "ym2612"
    },
    {
      "channel": 3,
      "note": 83,
      "start": 0.2229,
      "duration": 0.0161,
      "velocity": 98,
      "chip": "ym2612"
    },
    {
      "channel": 2,
      "note": 64,
      "start": 0.2241,
      "duration": 0.0161,
      "velocity": 93,
      "chip": "ym2612"
    },
    {
      "channel": 0,
      "note": 43,
      "start": 0.2355,
      "duration": 0.016,
      "velocity": 115,
      "chip": "ym2612"
    },
    {
      "channel": 5,
      "note": 76,
      "start": 0.2367,
      "duration": 0.0161,
      "velocity": 102,
      "chip": "ym2612"
    },
    {
      "channel": 4,
      "note": 80,
      "start": 0.2379,
      "duration": 0.0161,
      "velocity": 98,
      "chip": "ym2612"
    },
    {
      "channel": 3,
      "note": 83,
      "start": 0.239,
      "duration": 0.0162,
      "velocity": 98,
      "chip": "ym2612"
    },
    {
      "channel": 2,
      "note": 64,
      "start": 0.2402,
      "duration": 0.0163,
      "velocity": 93,
      "chip": "ym2612"
    },
    {
      "channel": 0,
      "note": 43,
      "start": 0.2516,
      "duration": 0.0156,
      "velocity": 115,
      "chip": "ym2612"
    },
    {
      "channel": 4,
      "note": 80,
      "start": 0.254,
      "duration": 0.0161,
      "velocity": 98,
      "chip": "ym2612"
    },
    {
      "channel": 3,
      "note": 83,
      "start": 0.2553,
      "duration": 0.0161,
      "velocity": 98,
      "chip": "ym2612"
    },
    {
      "channel": 2,
      "note": 64,
      "start": 0.2565,
      "duration": 0.0161,
      "velocity": 93,
      "chip": "ym2612"
    },
    {
      "channel": 0,
      "note": 44,
      "start": 0.2671,
      "duration": 0.0185,
      "velocity": 124,
      "chip": "ym2612"
    },
    {
      "channel": 2,
      "note": 64,
      "start": 0.2726,
      "duration": 0.0187,
      "velocity": 93,
      "chip": "ym2612"
    },
    {
      "channel": 0,
      "note": 84,
      "start": 0.2857,
      "duration": 0.0137,
      "velocity": 124,
      "chip": "ym2612"
    },
    {
      "channel": 4,
      "note": 80,
      "start": 0.2885,
      "duration": 0.014,
      "velocity": 98,
      "chip": "ym2612"
    },
    {
      "channel": 3,
      "note": 83,
      "start": 0.2899,
      "duration": 0.0138,
      "velocity": 98,
      "chip": "ym2612"
    },
    {
      "channel": 2,
      "note": 59,
      "start": 0.2914,
      "duration": 0.0136,
      "velocity": 93,
      "chip": "ym2612"
    },
    {
      "channel": 1,
      "note": 78,
      "start": 0.2929,
      "duration": 0.0132,
      "velocity": 103,
      "chip": "ym2612"
    },
    {
      "channel": 0,
      "note": 82,
      "start": 0.2994,
      "duration": 0.016,
      "velocity": 124,
      "chip": "ym2612"
    },
    {
      "channel": 4,
      "note": 80,
      "start": 0.3024,
      "duration": 0.016,
      "velocity": 98,
      "chip": "ym2612"
    },
    {
      "channel": 3,
      "note": 83,
      "start": 0.3037,
      "duration": 0.0159,
      "velocity": 98,
      "chip": "ym2612"
    },
    {
      "channel": 2,
      "note": 59,
      "start": 0.3049,
      "duration": 0.0158,
      "velocity": 93,
      "chip": "ym2612"
    },
    {
      "channel": 1,
      "note": 78,
      "start": 0.3061,
      "duration": 0.0158,
      "velocity": 103,
      "chip": "ym2612"
    },
    {
      "channel": 0,
      "note": 80,
      "start": 0.3154,
      "duration": 0.0161,
      "velocity": 124,
      "chip": "ym2612"
    },
    {
      "channel": 4,
      "note": 80,
      "start": 0.3184,
      "duration": 0.0158,
      "velocity": 98,
      "chip": "ym2612"
    },
    {
      "channel": 3,
      "note": 83,
      "start": 0.3196,
      "duration": 0.0161,
      "velocity": 98,
      "chip": "ym2612"
    },
    {
      "channel": 2,
      "note": 59,
      "start": 0.3208,
      "duration": 0.0161,
      "velocity": 93,
      "chip": "ym2612"
    },
    {
      "channel": 1,
      "note": 78,
      "start": 0.3219,
      "duration": 0.0161,
      "velocity": 103,
      "chip": "ym2612"
    },
    {
      "channel": 0,
      "note": 77,
      "start": 0.3315,
      "duration": 0.0161,
      "velocity": 124,
      "chip": "ym2612"
    },
    {
      "channel": 4,
      "note": 80,
      "start": 0.3342,
      "duration": 0.0159,
      "velocity": 98,
      "chip": "ym2612"
    },
    {
      "channel": 3,
      "note": 83,
      "start": 0.3357,
      "duration": 0.016,
      "velocity": 98,
      "chip": "ym2612"
    },
    {
      "channel": 2,
      "note": 59,
      "start": 0.3369,
      "duration": 0.0161,
      "velocity": 93,
      "chip": "ym2612"
    },
    {
      "channel": 1,
      "note": 78,
      "start": 0.338,
      "duration": 0.0161,
      "velocity": 103,
      "chip": "ym2612"
    },
    {
      "channel": 0,
      "note": 75,
      "start": 0.3476,
      "duration": 0.0161,
      "velocity": 124,
      "chip": "ym2612"
    },
    {
      "channel": 4,
      "note": 80,
      "start": 0.35,
      "duration": 0.0161,
      "velocity": 98,
      "chip": "ym2612"
    },
    {
      "channel": 3,
      "note": 83,
      "start": 0.3517,
      "duration": 0.0158,
      "velocity": 98,
      "chip": "ym2612"
    },
    {
      "channel": 2,
      "note": 59,
      "start": 0.353,
      "duration": 0.0161,
      "velocity": 93,
      "chip": "ym2612"
    },
    {
      "channel": 1,
      "note": 78,
      "start": 0.3541,
      "duration": 0.0161,
      "velocity": 103,
      "chip": "ym2612"
    },
    {
      "channel": 0,
      "note": 72,
      "start": 0.3638,
      "duration": 0.0161,
      "velocity": 124,
      "chip": "ym2612"
    },
    {
      "channel": 4,
      "note": 80,
      "start": 0.3661,
      "duration": 0.0163,
      "velocity": 98,
      "chip": "ym2612"
    },
    {
      "channel": 3,
      "note": 83,
      "start": 0.3675,
      "duration": 0.0161,
      "velocity": 98,
      "chip": "ym2612"
    },
    {
      "channel": 2,
      "note": 59,
      "start": 0.369,
      "duration": 0.0163,
      "velocity": 93,
      "chip": "ym2612"
    },
    {
      "channel": 1,
      "note": 78,
      "start": 0.3702,
      "duration": 0.0163,
      "velocity": 103,
      "chip": "ym2612"
    },
    {
      "channel": 0,
      "note": 70,
      "start": 0.3799,
      "duration": 0.0161,
      "velocity": 124,
      "chip": "ym2612"
    },
    {
      "channel": 5,
      "note": 78,
      "start": 0.3813,
      "duration": 0.0158,
      "velocity": 102,
      "chip": "ym2612"
    },
    {
      "channel": 4,
      "note": 80,
      "start": 0.3825,
      "duration": 0.0159,
      "velocity": 98,
      "chip": "ym2612"
    },
    {
      "channel": 3,
      "note": 83,
      "start": 0.3836,
      "duration": 0.0158,
      "velocity": 98,
      "chip": "ym2612"
    },
    {
      "channel": 2,
      "note": 59,
      "start": 0.3853,
      "duration": 0.0155,
      "velocity": 93,
      "chip": "ym2612"
    },
    {
      "channel": 1,
      "note": 78,
      "start": 0.3866,
      "duration": 0.0158,
      "velocity": 103,
      "chip": "ym2612"
    },
    {
      "channel": 0,
      "note": 68,
      "start": 0.396,
      "duration": 0.0161,
      "velocity": 124,
      "chip": "ym2612"
    },
    {
      "channel": 5,
      "note": 78,
      "start": 0.3972,
      "duration": 0.016,
      "velocity": 102,
      "chip": "ym2612"
    },
    {
      "channel": 4,
      "note": 80,
      "start": 0.3983,
      "duration": 0.016,
      "velocity": 98,
      "chip": "ym2612"
    },
    {
      "channel": 3,
      "note": 83,
      "start": 0.3995,
      "duration": 0.016,
      "velocity": 98,
      "chip": "ym2612"
    },
    {
      "channel": 2,
      "note": 59,
      "start": 0.4009,
      "duration": 0.0159,
      "velocity": 93,
      "chip": "ym2612"
    },
    {
      "channel": 1,
      "note": 78,
      "start": 0.4024,
      "duration": 0.016,
      "velocity": 103,
      "chip": "ym2612"
    },
    {
      "channel": 0,
      "note": 65,
      "start": 0.4121,
      "duration": 0.0161,
      "velocity": 124,
      "chip": "ym2612"
    },
    {
      "channel": 5,
      "note": 78,
      "start": 0.4132,
      "duration": 0.0161,
      "velocity": 102,
      "chip": "ym2612"
    },
    {
      "channel": 4,
      "note": 80,
      "start": 0.4144,
      "duration": 0.0161,
      "velocity": 98,
      "chip": "ym2612"
    },
    {
      "channel": 3,
      "note": 83,
      "start": 0.4155,
      "duration": 0.0163,
      "velocity": 98,
      "chip": "ym2612"
    },
    {
      "channel": 2,
      "note": 59,
      "start": 0.4167,
      "duration": 0.0163,
      "velocity": 93,
      "chip": "ym2612"
    },
    {
      "channel": 1,
      "note": 78,
      "start": 0.4183,
      "duration": 0.0161,
      "velocity": 103,
      "chip": "ym2612"
    },
    {
      "channel": 0,
      "note": 63,
      "start": 0.4281,
      "duration": 0.0153,
      "velocity": 1,
      "chip": "ym2612"
    },
    {
      "channel": 5,
      "note": 78,
      "start": 0.4293,
      "duration": 0.0153,
      "velocity": 102,
      "chip": "ym2612"
    },
    {
      "channel": 4,
      "note": 80,
      "start": 0.4305,
      "duration": 0.0153,
      "velocity": 98,
      "chip": "ym2612"
    },
    {
      "channel": 3,
      "note": 83,
      "start": 0.4318,
      "duration": 0.0152,
      "velocity": 98,
      "chip": "ym2612"
    },
    {
      "channel": 2,
      "note": 59,
      "start": 0.433,
      "duration": 0.0152,
      "velocity": 93,
      "chip": "ym2612"
    },
    {
      "channel": 1,
      "note": 78,
      "start": 0.4344,
      "duration": 0.0149,
      "velocity": 103,
      "chip": "ym2612"
    },
    {
      "channel": 5,
      "note": 78,
      "start": 0.4446,
      "duration": 0.0153,
      "velocity": 102,
      "chip": "ym2612"
    },
    {
      "channel": 4,
      "note": 80,
      "start": 0.4458,
      "duration": 0.0153,
      "velocity": 98,
      "chip": "ym2612"
    },
    {
      "channel": 3,
      "note": 83,
      "start": 0.447,
      "duration": 0.0153,
      "velocity": 98,
      "chip": "ym2612"
    },
    {
      "channel": 2,
      "note": 59,
      "start": 0.4482,
      "duration": 0.0153,
      "velocity": 93,
      "chip": "ym2612"
    },
    {
      "channel": 5,
      "note": 78,
      "start": 0.4598,
      "duration": 0.0161,
      "velocity": 102,
      "chip": "ym2612"
    },
    {
      "channel": 4,
      "note": 80,
      "start": 0.461,
      "duration": 0.016,
      "velocity": 98,
      "chip": "ym2612"
    },
    {
      "channel": 3,
      "note": 83,
      "start": 0.4622,
      "duration": 0.016,
      "velocity": 98,
      "chip": "ym2612"
    },
    {
      "channel": 2,
      "note": 59,
      "start": 0.4635,
      "duration": 0.0159,
      "velocity": 93,
      "chip": "ym2612"
    },
    {
      "channel": 5,
      "note": 78,
      "start": 0.4759,
      "duration": 0.0161,
      "velocity": 102,
      "chip": "ym2612"
    },
    {
      "channel": 4,
      "note": 80,
      "start": 0.4771,
      "duration": 0.0161,
      "velocity": 98,
      "chip": "ym2612"
    },
    {
      "channel": 3,
      "note": 83,
      "start": 0.4783,
      "duration": 0.0161,
      "velocity": 98,
      "chip": "ym2612"
    },
    {
      "channel": 2,
      "note": 59,
      "start": 0.4794,
      "duration": 0.0161,
      "velocity": 93,
      "chip": "ym2612"
    },
    {
      "channel": 1,
      "note": 76,
      "start": 0.4809,
      "duration": 0.0159,
      "velocity": 103,
      "chip": "ym2612"
    },
    {
      "channel": 5,
      "note": 78,
      "start": 0.492,
      "duration": 0.0161,
      "velocity": 102,
      "chip": "ym2612"
    },
    {
      "channel": 4,
      "note": 80,
      "start": 0.4932,
      "duration": 0.0161,
      "velocity": 98,
      "chip": "ym2612"
    },
    {
      "channel": 3,
      "note": 83,
      "start": 0.4944,
      "duration": 0.0161,
      "velocity": 98,
      "chip": "ym2612"
    },
    {
      "channel": 2,
      "note": 59,
      "start": 0.4955,
      "duration": 0.0161,
      "velocity": 93,
      "chip": "ym2612"
    },
    {
      "channel": 1,
      "note": 76,
      "start": 0.4967,
      "duration": 0.016,
      "velocity": 103,
      "chip": "ym2612"
    },
    {
      "channel": 5,
      "note": 78,
      "start": 0.5081,
      "duration": 0.0162,
      "velocity": 102,
      "chip": "ym2612"
    },
    {
      "channel": 4,
      "note": 80,
      "start": 0.5093,
      "duration": 0.0162,
      "velocity": 98,
      "chip": "ym2612"
    },
    {
      "channel": 3,
      "note": 83,
      "start": 0.5105,
      "duration": 0.0161,
      "velocity": 98,
      "chip": "ym2612"
    },
    {
      "channel": 2,
      "note": 59,
      "start": 0.5116,
      "duration": 0.0162,
      "velocity": 93,
      "chip": "ym2612"
    },
    {
      "channel": 1,
      "note": 76,
      "start": 0.5128,
      "duration": 0.0161,
      "velocity": 103,
      "chip": "ym2612"
    },
    {
      "channel": 5,
      "note": 78,
      "start": 0.5243,
      "duration": 0.0161,
      "velocity": 102,
      "chip": "ym2612"
    },
    {
      "channel": 4,
      "note": 80,
      "start": 0.5255,
      "duration": 0.0161,
      "velocity": 98,
      "chip": "ym2612"
    },
    {
      "channel": 3,
      "note": 83,
      "start": 0.5266,
      "duration": 0.0162,
      "velocity": 98,
      "chip": "ym2612"
    },
    {
      "channel": 2,
      "note": 59,
      "start": 0.5278,
      "duration": 0.0163,
      "velocity": 93,
      "chip": "ym2612"
    },
    {
      "channel": 1,
      "note": 76,
      "start": 0.5289,
      "duration": 0.0163,
      "velocity": 103,
      "chip": "ym2612"
    },
    {
      "channel": 4,
      "note": 80,
      "start": 0.5416,
      "duration": 0.016,
      "velocity": 98,
      "chip": "ym2612"
    },
    {
      "channel": 3,
      "note": 83,
      "start": 0.5429,
      "duration": 0.0161,
      "velocity": 98,
      "chip": "ym2612"
    },
    {
      "channel": 2,
      "note": 59,
      "start": 0.5441,
      "duration": 0.0161,
      "velocity": 93,
      "chip": "ym2612"
    },
    {
      "channel": 2,
      "note": 59,
      "start": 0.5602,
      "duration": 0.0206,
      "velocity": 93,
      "chip": "ym2612"
    },
    {
      "channel": 0,
      "note": 36,
      "start": 0.5749,
      "duration": 0.0143,
      "velocity": 115,
      "chip": "ym2612"
    },
    {
      "channel": 5,
      "note": 76,
      "start": 0.5764,
      "duration": 0.0141,
      "velocity": 102,
      "chip": "ym2612"
    },
    {
      "channel": 4,
      "note": 80,
      "start": 0.5779,
      "duration": 0.0137,
      "velocity": 98,
      "chip": "ym2612"
    },
    {
      "channel": 3,
      "note": 83,
      "start": 0.5794,
      "duration": 0.0135,
      "velocity": 98,
      "chip": "ym2612"
    },
    {
      "channel": 2,
      "note": 64,
      "start": 0.5809,
      "duration": 0.0132,
      "velocity": 93,
      "chip": "ym2612"
    },
    {
      "channel": 1,
      "note": 80,
      "start": 0.5824,
      "duration": 0.013,
      "velocity": 103,
      "chip": "ym2612"
    },
    {
      "channel": 0,
      "note": 36,
      "start": 0.5892,
      "duration": 0.016,
      "velocity": 115,
      "chip": "ym2612"
    },
    {
      "channel": 5,
      "note": 76,
      "start": 0.5904,
      "duration": 0.016,
      "velocity": 102,
      "chip": "ym2612"
    },
    {
      "channel": 4,
      "note": 80,
      "start": 0.5916,
      "duration": 0.016,
      "velocity": 98,
      "chip": "ym2612"
    },
    {
      "channel": 3,
      "note": 83,
      "start": 0.5929,
      "duration": 0.0159,
      "velocity": 98,
      "chip": "ym2612"
    },
    {
      "channel": 2,
      "note": 64,
      "start": 0.5941,
      "duration": 0.0158,
      "velocity": 93,
      "chip": "ym2612"
    },
    {
      "channel": 1,
      "note": 80,
      "start": 0.5953,
      "duration": 0.0157,
      "velocity": 103,
      "chip": "ym2612"
    },
    {
      "channel": 0,
      "note": 37,
      "start": 0.6053,
      "duration": 0.0161,
      "velocity": 115,
      "chip": "ym2612"
    },
    {
      "channel": 5,
      "note": 76,
      "start": 0.6064,
      "duration": 0.0161,
      "velocity": 102,
      "chip": "ym2612"
    },
    {
      "channel": 4,
      "note": 80,
      "start": 0.6076,
      "duration": 0.0161,
      "velocity": 98,
      "chip": "ym2612"
    },
    {
      "channel": 3,
      "note": 83,
      "start": 0.6088,
      "duration": 0.0161,
      "velocity": 98,
      "chip": "ym2612"
    },
    {
      "channel": 2,
      "note": 64,
      "start": 0.6099,
      "duration": 0.0161,
      "velocity": 93,
      "chip": "ym2612"
    },
    {
      "channel": 1,
      "note": 80,
      "start": 0.611,
      "duration": 0.0161,
      "velocity": 103,
      "chip": "ym2612"
    },
    {
      "channel": 0,
      "note": 37,
      "start": 0.6213,
      "duration": 0.0161,
      "velocity": 115,
      "chip": "ym2612"
    },
    {
      "channel": 5,
      "note": 76,
      "start": 0.6225,
      "duration": 0.0161,
      "velocity": 102,
      "chip": "ym2612"
    },
    {
      "channel": 4,
      "note": 80,
      "start": 0.6237,
      "duration": 0.0161,
      "velocity": 98,
      "chip": "ym2612"
    },
    {
      "channel": 3,
      "note": 83,
      "start": 0.6249,
      "duration": 0.0161,
      "velocity": 98,
      "chip": "ym2612"
    },
    {
      "channel": 2,
      "note": 64,
      "start": 0.626,
      "duration": 0.0161,
      "velocity": 93,
      "chip": "ym2612"
    },
    {
      "channel": 1,
      "note": 80,
      "start": 0.6271,
      "duration": 0.0161,
      "velocity": 103,
      "chip": "ym2612"
    },
    {
      "channel": 0,
      "note": 38,
      "start": 0.6374,
      "duration": 0.0162,
      "velocity": 115,
      "chip": "ym2612"
    },
    {
      "channel": 4,
      "note": 80,
      "start": 0.6398,
      "duration": 0.0161,
      "velocity": 98,
      "chip": "ym2612"
    },
    {
      "channel": 3,
      "note": 83,
      "start": 0.6409,
      "duration": 0.0162,
      "velocity": 98,
      "chip": "ym2612"
    },
    {
      "channel": 2,
      "note": 64,
      "start": 0.6421,
      "duration": 0.0161,
      "velocity": 93,
      "chip": "ym2612"
    },
    {
      "channel": 1,
      "note": 80,
      "start": 0.6433,
      "duration": 0.0161,
      "velocity": 103,
      "chip": "ym2612"
    },
    {
      "channel": 0,
      "note": 38,
      "start": 0.6536,
      "duration": 0.0165,
      "velocity": 115,
      "chip": "ym2612"
    },
    {
      "channel": 4,
      "note": 80,
      "start": 0.6559,
      "duration": 0.0167,
      "velocity": 98,
      "chip": "ym2612"
    },
    {
      "channel": 3,
      "note": 83,
      "start": 0.6571,
      "duration": 0.0168,
      "velocity": 98,
      "chip": "ym2612"
    },
    {
      "channel": 2,
      "note": 64,
      "start": 0.6582,
      "duration": 0.0168,
      "velocity": 93,
      "chip": "ym2612"
    },
    {
      "channel": 1,
      "note": 80,
      "start": 0.6594,
      "duration": 0.0168,
      "velocity": 103,
      "chip": "ym2612"
    },
    {
      "channel": 0,
      "note": 39,
      "start": 0.6701,
      "duration": 0.0163,
      "velocity": 115,
      "chip": "ym2612"
    },
    {
      "channel": 5,
      "note": 80,
      "start": 0.6715,
      "duration": 0.016,
      "velocity": 102,
      "chip": "ym2612"
    },
    {
      "channel": 4,
      "note": 80,
      "start": 0.6727,
      "duration": 0.016,
      "velocity": 98,
      "chip": "ym2612"
    },
    {
      "channel": 3,
      "note": 83,
      "start": 0.6739,
      "duration": 0.016,
      "velocity": 98,
      "chip": "ym2612"
    },
    {
      "channel": 2,
      "note": 64,
      "start": 0.675,
      "duration": 0.016,
      "velocity": 93,
      "chip": "ym2612"
    },
    {
      "channel": 1,
      "note": 80,
      "start": 0.6762,
      "duration": 0.016,
      "velocity": 103,
      "chip": "ym2612"
    },
    {
      "channel": 0,
      "note": 39,
      "start": 0.6863,
      "duration": 0.0161,
      "velocity": 115,
      "chip": "ym2612"
    },
    {
      "channel": 5,
      "note": 80,
      "start": 0.6876,
      "duration": 0.016,
      "velocity": 102,
      "chip": "ym2612"
    },
    {
      "channel": 4,
      "note": 80,
      "start": 0.6887,
      "duration": 0.016,
      "velocity": 98,
      "chip": "ym2612"
    },
    {
      "channel": 3,
      "note": 83,
      "start": 0.6899,
      "duration": 0.016,
      "velocity": 98,
      "chip": "ym2612"
    },
    {
      "channel": 2,
      "note": 64,
      "start": 0.6911,
      "duration": 0.016,
      "velocity": 93,
      "chip": "ym2612"
    },
    {
      "channel": 1,
      "note": 80,
      "start": 0.6922,
      "duration": 0.016,
      "velocity": 103,
      "chip": "ym2612"
    },
    {
      "channel": 0,
      "note": 40,
      "start": 0.7024,
      "duration": 0.016,
      "velocity": 115,
      "chip": "ym2612"
    },
    {
      "channel": 5,
      "note": 80,
      "start": 0.7036,
      "duration": 0.0161,
      "velocity": 102,
      "chip": "ym2612"
    },
    {
      "channel": 4,
      "note": 80,
      "start": 0.7047,
      "duration": 0.0162,
      "velocity": 98,
      "chip": "ym2612"
    },
    {
      "channel": 3,
      "note": 83,
      "start": 0.7059,
      "duration": 0.0162,
      "velocity": 98,
      "chip": "ym2612"
    },
    {
      "channel": 2,
      "note": 64,
      "start": 0.7071,
      "duration": 0.0163,
      "velocity": 93,
      "chip": "ym2612"
    },
    {
      "channel": 1,
      "note": 80,
      "start": 0.7082,
      "duration": 0.0163,
      "velocity": 103,
      "chip": "ym2612"
    },
    {
      "channel": 0,
      "note": 40,
      "start": 0.7185,
      "duration": 0.0158,
      "velocity": 115,
      "chip": "ym2612"
    },
    {
      "channel": 5,
      "note": 80,
      "start": 0.7197,
      "duration": 0.0161,
      "velocity": 102,
      "chip": "ym2612"
    },
    {
      "channel": 4,
      "note": 80,
      "start": 0.721,
      "duration": 0.016,
      "velocity": 98,
      "chip": "ym2612"
    },
    {
      "channel": 3,
      "note": 83,
      "start": 0.7222,
      "duration": 0.016,
      "velocity": 98,
      "chip": "ym2612"
    },
    {
      "channel": 2,
      "note": 64,
      "start": 0.7234,
      "duration": 0.016,
      "velocity": 93,
      "chip": "ym2612"
    },
    {
      "channel": 1,
      "note": 80,
      "start": 0.7246,
      "duration": 0.016,
      "velocity": 103,
      "chip": "ym2612"
    },
    {
      "channel": 0,
      "note": 40,
      "start": 0.7343,
      "duration": 0.0159,
      "velocity": 115,
      "chip": "ym2612"
    },
    {
      "channel": 5,
      "note": 80,
      "start": 0.7358,
      "duration": 0.0161,
      "velocity": 102,
      "chip": "ym2612"
    },
    {
      "channel": 4,
      "note": 80,
      "start": 0.737,
      "duration": 0.0162,
      "velocity": 98,
      "chip": "ym2612"
    },
    {
      "channel": 3,
      "note": 83,
      "start": 0.7382,
      "duration": 0.0161,
      "velocity": 98,
      "chip": "ym2612"
    },
    {
      "channel": 2,
      "note": 64,
      "start": 0.7394,
      "duration": 0.0162,
      "velocity": 93,
      "chip": "ym2612"
    },
    {
      "channel": 1,
      "note": 80,
      "start": 0.7406,
      "duration": 0.0161,
      "velocity": 103,
      "chip": "ym2612"
    },
    {
      "channel": 0,
      "note": 41,
      "start": 0.7502,
      "duration": 0.0185,
      "velocity": 115,
      "chip": "ym2612"
    },
    {
      "channel": 5,
      "note": 80,
      "start": 0.7519,
      "duration": 0.018,
      "velocity": 102,
      "chip": "ym2612"
    },
    {
      "channel": 4,
      "note": 80,
      "start": 0.7532,
      "duration": 0.0179,
      "velocity": 98,
      "chip": "ym2612"
    },
    {
      "channel": 3,
      "note": 83,
      "start": 0.7544,
      "duration": 0.0178,
      "velocity": 98,
      "chip": "ym2612"
    },
    {
      "channel": 2,
      "note": 64,
      "start": 0.7556,
      "duration": 0.0177,
      "velocity": 93,
      "chip": "ym2612"
    },
    {
      "channel": 1,
      "note": 80,
      "start": 0.7567,
      "duration": 0.0178,
      "velocity": 103,
      "chip": "ym2612"
    },
    {
      "channel": 0,
      "note": 36,
      "start": 0.7687,
      "duration": 0.0137,
      "velocity": 115,
      "chip": "ym2612"
    },
    {
      "channel": 5,
      "note": 80,
      "start": 0.7699,
      "duration": 0.0137,
      "velocity": 102,
      "chip": "ym2612"
    },
    {
      "channel": 4,
      "note": 80,
      "start": 0.771,
      "duration": 0.0143,
      "velocity": 98,
      "chip": "ym2612"
    },
    {
      "channel": 3,
      "note": 83,
      "start": 0.7722,
      "duration": 0.0143,
      "velocity": 98,
      "chip": "ym2612"
    },
    {
      "channel": 2,
      "note": 64,
      "start": 0.7733,
      "duration": 0.0144,
      "velocity": 93,
      "chip": "ym2612"
    },
    {
      "channel": 1,
      "note": 80,
      "start": 0.7745,
      "duration": 0.0143,
      "velocity": 103,
      "chip": "ym2612"
    },
    {
      "channel": 0,
      "note": 36,
      "start": 0.7824,
      "duration": 0.016,
      "velocity": 115,
      "chip": "ym2612"
    },
    {
      "channel": 5,
      "note": 80,
      "start": 0.7836,
      "duration": 0.016,
      "velocity": 102,
      "chip": "ym2612"
    },
    {
      "channel": 4,
      "note": 80,
      "start": 0.7853,
      "duration": 0.0157,
      "velocity": 98,
      "chip": "ym2612"
    },
    {
      "channel": 3,
      "note": 83,
      "start": 0.7865,
      "duration": 0.016,
      "velocity": 98,
      "chip": "ym2612"
    },
    {
      "channel": 2,
      "note": 64,
      "start": 0.7877,
      "duration": 0.016,
      "velocity": 93,
      "chip": "ym2612"
    },
    {
      "channel": 1,
      "note": 80,
      "start": 0.7888,
      "duration": 0.016,
      "velocity": 103,
      "chip": "ym2612"
    },
    {
      "channel": 0,
      "note": 37,
      "start": 0.7984,
      "duration": 0.0161,
      "velocity": 115,
      "chip": "ym2612"
    },
    {
      "channel": 5,
      "note": 80,
      "start": 0.7997,
      "duration": 0.0161,
      "velocity": 102,
      "chip": "ym2612"
    },
    {
      "channel": 4,
      "note": 80,
      "start": 0.801,
      "duration": 0.0159,
      "velocity": 98,
      "chip": "ym2612"
    },
    {
      "channel": 3,
      "note": 83,
      "start": 0.8025,
      "duration": 0.016,
      "velocity": 98,
      "chip": "ym2612"
    },
    {
      "channel": 2,
      "note": 64,
      "start": 0.8037,
      "duration": 0.016,
      "velocity": 93,
      "chip": "ym2612"
    },
    {
      "channel": 1,
      "note": 80,
      "start": 0.8049,
      "duration": 0.0161,
      "velocity": 103,
      "chip": "ym2612"
    },
    {
      "channel": 0,
      "note": 37,
      "start": 0.8145,
      "duration": 0.0162,
      "velocity": 115,
      "chip": "ym2612"
    },
    {
      "channel": 5,
      "note": 80,
      "start": 0.8157,
      "duration": 0.0161,
      "velocity": 102,
      "chip": "ym2612"
    },
    {
      "channel": 4,
      "note": 80,
      "start": 0.8169,
      "duration": 0.0162,
      "velocity": 98,
      "chip": "ym2612"
    },
    {
      "channel": 3,
      "note": 83,
      "start": 0.8185,
      "duration": 0.0159,
      "velocity": 98,
      "chip": "ym2612"
    },
    {
      "channel": 2,
      "note": 64,
      "start": 0.8198,
      "duration": 0.0163,
      "velocity": 93,
      "chip": "ym2612"
    },
    {
      "channel": 1,
      "note": 80,
      "start": 0.821,
      "duration": 0.0162,
      "velocity": 103,
      "chip": "ym2612"
    },
    {
      "channel": 0,
      "note": 38,
      "start": 0.8307,
      "duration": 0.0161,
      "velocity": 115,
      "chip": "ym2612"
    },
    {
      "channel": 5,
      "note": 80,
      "start": 0.8318,
      "duration": 0.0161,
      "velocity": 102,
      "chip": "ym2612"
    },
    {
      "channel": 4,
      "note": 80,
      "start": 0.8331,
      "duration": 0.0161,
      "velocity": 98,
      "chip": "ym2612"
    },
    {
      "channel": 3,
      "note": 83,
      "start": 0.8344,
      "duration": 0.016,
      "velocity": 98,
      "chip": "ym2612"
    },
    {
      "channel": 2,
      "note": 64,
      "start": 0.836,
      "duration": 0.0162,
      "velocity": 93,
      "chip": "ym2612"
    },
    {
      "channel": 0,
      "note": 38,
      "start": 0.8468,
      "duration": 0.0179,
      "velocity": 124,
      "chip": "ym2612"
    },
    {
      "channel": 5,
      "note": 80,
      "start": 0.8479,
      "duration": 0.0179,
      "velocity": 102,
      "chip": "ym2612"
    },
    {
      "channel": 2,
      "note": 64,
      "start": 0.8522,
      "duration": 0.0188,
      "velocity": 93,
      "chip": "ym2612"
    },
    {
      "channel": 0,
      "note": 84,
      "start": 0.8647,
      "duration": 0.0143,
      "velocity": 124,
      "chip": "ym2612"
    },
    {
      "channel": 5,
      "note": 80,
      "start": 0.8659,
      "duration": 0.0143,
      "velocity": 102,
      "chip": "ym2612"
    },
    {
      "channel": 4,
      "note": 80,
      "start": 0.8677,
      "duration": 0.0137,
      "velocity": 98,
      "chip": "ym2612"
    },
    {
      "channel": 3,
      "note": 83,
      "start": 0.8696,
      "duration": 0.013,
      "velocity": 98,
      "chip": "ym2612"
    },
    {
      "channel": 2,
      "note": 64,
      "start": 0.8711,
      "duration": 0.0128,
      "velocity": 93,
      "chip": "ym2612"
    },
    {
      "channel": 1,
      "note": 78,
      "start": 0.8726,
      "duration": 0.0131,
      "velocity": 103,
      "chip": "ym2612"
    },
    {
      "channel": 0,
      "note": 82,
      "start": 0.879,
      "duration": 0.016,
      "velocity": 124,
      "chip": "ym2612"
    },
    {
      "channel": 5,
      "note": 80,
      "start": 0.8802,
      "duration": 0.016,
      "velocity": 102,
      "chip": "ym2612"
    },
    {
      "channel": 4,
      "note": 80,
      "start": 0.8814,
      "duration": 0.016,
      "velocity": 98,
      "chip": "ym2612"
    },
    {
      "channel": 3,
      "note": 83,
      "start": 0.8826,
      "duration": 0.016,
      "velocity": 98,
      "chip": "ym2612"
    },
    {
      "channel": 2,
      "note": 64,
      "start": 0.8839,
      "duration": 0.0159,
      "velocity": 93,
      "chip": "ym2612"
    },
    {
      "channel": 1,
      "note": 78,
      "start": 0.8857,
      "duration": 0.0154,
      "velocity": 103,
      "chip": "ym2612"
    },
    {
      "channel": 0,
      "note": 80,
      "start": 0.8951,
      "duration": 0.0161,
      "velocity": 124,
      "chip": "ym2612"
    },
    {
      "channel": 5,
      "note": 80,
      "start": 0.8962,
      "duration": 0.0162,
      "velocity": 102,
      "chip": "ym2612"
    },
    {
      "channel": 4,
      "note": 80,
      "start": 0.8974,
      "duration": 0.0162,
      "velocity": 98,
      "chip": "ym2612"
    },
    {
      "channel": 3,
      "note": 83,
      "start": 0.8986,
      "duration": 0.0162,
      "velocity": 98,
      "chip": "ym2612"
    },
    {
      "channel": 2,
      "note": 64,
      "start": 0.8997,
      "duration": 0.0161,
      "velocity": 93,
      "chip": "ym2612"
    },
    {
      "channel": 1,
      "note": 78,
      "start": 0.901,
      "duration": 0.016,
      "velocity": 103,
      "chip": "ym2612"
    },
    {
      "channel": 0,
      "note": 77,
      "start": 0.9112,
      "duration": 0.0161,
      "velocity": 124,
      "chip": "ym2612"
    },
    {
      "channel": 5,
      "note": 80,
      "start": 0.9124,
      "duration": 0.0161,
      "velocity": 102,
      "chip": "ym2612"
    },
    {
      "channel": 4,
      "note": 80,
      "start": 0.9136,
      "duration": 0.0161,
      "velocity": 98,
      "chip": "ym2612"
    },
    {
      "channel": 3,
      "note": 83,
      "start": 0.9147,
      "duration": 0.0161,
      "velocity": 98,
      "chip": "ym2612"
    },
    {
      "channel": 2,
      "note": 64,
      "start": 0.9159,
      "duration": 0.0161,
      "velocity": 93,
      "chip": "ym2612"
    },
    {
      "channel": 1,
      "note": 78,
      "start": 0.9171,
      "duration": 0.0161,
      "velocity": 103,
      "chip": "ym2612"
    },
    {
      "channel": 0,
      "note": 75,
      "start": 0.9273,
      "duration": 0.0161,
      "velocity": 124,
      "chip": "ym2612"
    },
    {
      "channel": 4,
      "note": 80,
      "start": 0.9297,
      "duration": 0.016,
      "velocity": 98,
      "chip": "ym2612"
    },
    {
      "channel": 3,
      "note": 83,
      "start": 0.9308,
      "duration": 0.016,
      "velocity": 98,
      "chip": "ym2612"
    },
    {
      "channel": 2,
      "note": 64,
      "start": 0.932,
      "duration": 0.016,
      "velocity": 93,
      "chip": "ym2612"
    },
    {
      "channel": 1,
      "note": 78,
      "start": 0.9332,
      "duration": 0.016,
      "velocity": 103,
      "chip": "ym2612"
    },
    {
      "channel": 0,
      "note": 72,
      "start": 0.9434,
      "duration": 0.0161,
      "velocity": 124,
      "chip": "ym2612"
    },
    {
      "channel": 4,
      "note": 80,
      "start": 0.9457,
      "duration": 0.0163,
      "velocity": 98,
      "chip": "ym2612"
    },
    {
      "channel": 3,
      "note": 83,
      "start": 0.9468,
      "duration": 0.0164,
      "velocity": 98,
      "chip": "ym2612"
    },
    {
      "channel": 2,
      "note": 64,
      "start": 0.948,
      "duration": 0.0164,
      "velocity": 93,
      "chip": "ym2612"
    },
    {
      "channel": 1,
      "note": 78,
      "start": 0.9491,
      "duration": 0.0164,
      "velocity": 103,
      "chip": "ym2612"
    },
    {
      "channel": 0,
      "note": 70,
      "start": 0.9595,
      "duration": 0.0161,
      "velocity": 124,
      "chip": "ym2612"
    },
    {
      "channel": 5,
      "note": 78,
      "start": 0.9609,
      "duration": 0.0159,
      "velocity": 102,
      "chip": "ym2612"
    },
    {
      "channel": 4,
      "note": 80,
      "start": 0.9621,
      "duration": 0.0159,
      "velocity": 98,
      "chip": "ym2612"
    },
    {
      "channel": 3,
      "note": 83,
      "start": 0.9633,
      "duration": 0.0159,
      "velocity": 98,
      "chip": "ym2612"
    },
    {
      "channel": 2,
      "note": 64,
      "start": 0.9644,
      "duration": 0.0158,
      "velocity": 93,
      "chip": "ym2612"
    },
    {
      "channel": 1,
      "note": 78,
      "start": 0.9656,
      "duration": 0.0159,
      "velocity": 103,
      "chip": "ym2612"
    },
    {
      "channel": 0,
      "note": 68,
      "start": 0.9756,
      "duration": 0.0161,
      "velocity": 124,
      "chip": "ym2612"
    },
    {
      "channel": 5,
      "note": 78,
      "start": 0.9768,
      "duration": 0.016,
      "velocity": 102,
      "chip": "ym2612"
    },
    {
      "channel": 4,
      "note": 80,
      "start": 0.978,
      "duration": 0.016,
      "velocity": 98,
      "chip": "ym2612"
    },
    {
      "channel": 3,
      "note": 83,
      "start": 0.9791,
      "duration": 0.016,
      "velocity": 98,
      "chip": "ym2612"
    },
    {
      "channel": 2,
      "note": 64,
      "start": 0.9802,
      "duration": 0.0161,
      "velocity": 93,
      "chip": "ym2612"
    },
    {
      "channel": 1,
      "note": 78,
      "start": 0.9814,
      "duration": 0.0161,
      "velocity": 103,
      "chip": "ym2612"
    },
    {
      "channel": 0,
      "note": 65,
      "start": 0.9917,
      "duration": 0.0161,
      "velocity": 124,
      "chip": "ym2612"
    },
    {
      "channel": 5,
      "note": 78,
      "start": 0.9929,
      "duration": 0.0161,
      "velocity": 102,
      "chip": "ym2612"
    },
    {
      "channel": 4,
      "note": 80,
      "start": 0.994,
      "duration": 0.0161,
      "velocity": 98,
      "chip": "ym2612"
    },
    {
      "channel": 3,
      "note": 83,
      "start": 0.9951,
      "duration": 0.0161,
      "velocity": 98,
      "chip": "ym2612"
    },
    {
      "channel": 2,
      "note": 64,
      "start": 0.9963,
      "duration": 0.0161,
      "velocity": 93,
      "chip": "ym2612"
    },
    {
      "channel": 1,
      "note": 78,
      "start": 0.9975,
      "duration": 0.0162,
      "velocity": 103,
      "chip": "ym2612"
    },
    {
      "channel": 0,
      "note": 63,
      "start": 1.0078,
      "duration": 0.0153,
      "velocity": 1,
      "chip": "ym2612"
    },
    {
      "channel": 5,
      "note": 78,
      "start": 1.0089,
      "duration": 0.0153,
      "velocity": 102,
      "chip": "ym2612"
    },
    {
      "channel": 4,
      "note": 80,
      "start": 1.0101,
      "duration": 0.0153,
      "velocity": 98,
      "chip": "ym2612"
    },
    {
      "channel": 3,
      "note": 83,
      "start": 1.0112,
      "duration": 0.0153,
      "velocity": 98,
      "chip": "ym2612"
    },
    {
      "channel": 2,
      "note": 64,
      "start": 1.0124,
      "duration": 0.0153,
      "velocity": 93,
      "chip": "ym2612"
    },
    {
      "channel": 1,
      "note": 78,
      "start": 1.0137,
      "duration": 0.0153,
      "velocity": 103,
      "chip": "ym2612"
    },
    {
      "channel": 5,
      "note": 78,
      "start": 1.0242,
      "duration": 0.0153,
      "velocity": 102,
      "chip": "ym2612"
    },
    {
      "channel": 4,
      "note": 80,
      "start": 1.0254,
      "duration": 0.0153,
      "velocity": 98,
      "chip": "ym2612"
    },
    {
      "channel": 3,
      "note": 83,
      "start": 1.0265,
      "duration": 0.0153,
      "velocity": 98,
      "chip": "ym2612"
    },
    {
      "channel": 2,
      "note": 64,
      "start": 1.0277,
      "duration": 0.0153,
      "velocity": 93,
      "chip": "ym2612"
    },
    {
      "channel": 5,
      "note": 78,
      "start": 1.0395,
      "duration": 0.0161,
      "velocity": 102,
      "chip": "ym2612"
    },
    {
      "channel": 2,
      "note": 64,
      "start": 1.043,
      "duration": 0.0172,
      "velocity": 93,
      "chip": "ym2612"
    },
    {
      "channel": 5,
      "note": 78,
      "start": 1.0556,
      "duration": 0.0161,
      "velocity": 102,
      "chip": "ym2612"
    },
    {
      "channel": 4,
      "note": 80,
      "start": 1.0572,
      "duration": 0.0157,
      "velocity": 98,
      "chip": "ym2612"
    },
    {
      "channel": 3,
      "note": 83,
      "start": 1.0587,
      "duration": 0.0155,
      "velocity": 98,
      "chip": "ym2612"
    },
    {
      "channel": 2,
      "note": 64,
      "start": 1.0602,
      "duration": 0.0151,
      "velocity": 93,
      "chip": "ym2612"
    },
    {
      "channel": 1,
      "note": 76,
      "start": 1.0617,
      "duration": 0.0149,
      "velocity": 103,
      "chip": "ym2612"
    },
    {
      "channel": 5,
      "note": 78,
      "start": 1.0717,
      "duration": 0.0161,
      "velocity": 102,
      "chip": "ym2612"
    },
    {
      "channel": 4,
      "note": 80,
      "start": 1.0729,
      "duration": 0.016,
      "velocity": 98,
      "chip": "ym2612"
    },
    {
      "channel": 3,
      "note": 83,
      "start": 1.0741,
      "duration": 0.016,
      "velocity": 98,
      "chip": "ym2612"
    },
    {
      "channel": 2,
      "note": 64,
      "start": 1.0754,
      "duration": 0.0159,
      "velocity": 93,
      "chip": "ym2612"
    },
    {
      "channel": 1,
      "note": 76,
      "start": 1.0766,
      "duration": 0.0159,
      "velocity": 103,
      "chip": "ym2612"
    },
    {
      "channel": 5,
      "note": 78,
      "start": 1.0878,
      "duration": 0.0162,
      "velocity": 102,
      "chip": "ym2612"
    },
    {
      "channel": 4,
      "note": 80,
      "start": 1.0889,
      "duration": 0.0162,
      "velocity": 98,
      "chip": "ym2612"
    },
    {
      "channel": 3,
      "note": 83,
      "start": 1.0901,
      "duration": 0.0161,
      "velocity": 98,
      "chip": "ym2612"
    },
    {
      "channel": 2,
      "note": 64,
      "start": 1.0912,
      "duration": 0.0162,
      "velocity": 93,
      "chip": "ym2612"
    },
    {
      "channel": 1,
      "note": 76,
      "start": 1.0924,
      "duration": 0.0161,
      "velocity": 103,
      "chip": "ym2612"
    },
    {
      "channel": 5,
      "note": 78,
      "start": 1.104,
      "duration": 0.0162,
      "velocity": 102,
      "chip": "ym2612"
    },
    {
      "channel": 4,
      "note": 80,
      "start": 1.1051,
      "duration": 0.0162,
      "velocity": 98,
      "chip": "ym2612"
    },
    {
      "channel": 3,
      "note": 83,
      "start": 1.1063,
      "duration": 0.0162,
      "velocity": 98,
      "chip": "ym2612"
    },
    {
      "channel": 2,
      "note": 64,
      "start": 1.1074,
      "duration": 0.0162,
      "velocity": 93,
      "chip": "ym2612"
    },
    {
      "channel": 1,
      "note": 76,
      "start": 1.1085,
      "duration": 0.0162,
      "velocity": 103,
      "chip": "ym2612"
    },
    {
      "channel": 4,
      "note": 80,
      "start": 1.1213,
      "duration": 0.0163,
      "velocity": 98,
      "chip": "ym2612"
    },
    {
      "channel": 3,
      "note": 83,
      "start": 1.1224,
      "duration": 0.0163,
      "velocity": 98,
      "chip": "ym2612"
    },
    {
      "channel": 2,
      "note": 64,
      "start": 1.1236,
      "duration": 0.0163,
      "velocity": 93,
      "chip": "ym2612"
    },
    {
      "channel": 1,
      "note": 76,
      "start": 1.1247,
      "duration": 0.0164,
      "velocity": 103,
      "chip": "ym2612"
    },
    {
      "channel": 4,
      "note": 80,
      "start": 1.1376,
      "duration": 0.0202,
      "velocity": 98,
      "chip": "ym2612"
    },
    {
      "channel": 3,
      "note": 83,
      "start": 1.1388,
      "duration": 0.0204,
      "velocity": 98,
      "chip": "ym2612"
    },
    {
      "channel": 2,
      "note": 64,
      "start": 1.1399,
      "duration": 0.0204,
      "velocity": 93,
      "chip": "ym2612"
    },
    {
      "channel": 1,
      "note": 76,
      "start": 1.1411,
      "duration": 0.0204,
      "velocity": 103,
      "chip": "ym2612"
    },
    {
      "channel": 0,
      "note": 36,
      "start": 1.1551,
      "duration": 0.0143,
      "velocity": 115,
      "chip": "ym2612"
    },
    {
      "channel": 5,
      "note": 76,
      "start": 1.1566,
      "duration": 0.014,
      "velocity": 102,
      "chip": "ym2612"
    },
    {
      "channel": 4,
      "note": 80,
      "start": 1.1579,
      "duration": 0.014,
      "velocity": 98,
      "chip": "ym2612"
    },
    {
      "channel": 3,
      "note": 83,
      "start": 1.1591,
      "duration": 0.0139,
      "velocity": 98,
      "chip": "ym2612"
    },
    {
      "channel": 2,
      "note": 64,
      "start": 1.1603,
      "duration": 0.0139,
      "velocity": 93,
      "chip": "ym2612"
    },
    {
      "channel": 1,
      "note": 76,
      "start": 1.1615,
      "duration": 0.0139,
      "velocity": 103,
      "chip": "ym2612"
    },
    {
      "channel": 0,
      "note": 36,
      "start": 1.1694,
      "duration": 0.016,
      "velocity": 115,
      "chip": "ym2612"
    },
    {
      "channel": 5,
      "note": 76,
      "start": 1.1706,
      "duration": 0.016,
      "velocity": 102,
      "chip": "ym2612"
    },
    {
      "channel": 4,
      "note": 80,
      "start": 1.1719,
      "duration": 0.016,
      "velocity": 98,
      "chip": "ym2612"
    },
    {
      "channel": 3,
      "note": 83,
      "start": 1.1731,
      "duration": 0.016,
      "velocity": 98,
      "chip": "ym2612"
    },
    {
      "channel": 2,
      "note": 64,
      "start": 1.1743,
      "duration": 0.016,
      "velocity": 93,
      "chip": "ym2612"
    },
    {
      "channel": 1,
      "note": 76,
      "start": 1.1755,
      "duration": 0.016,
      "velocity": 103,
      "chip": "ym2612"
    },
    {
      "channel": 0,
      "note": 37,
      "start": 1.1855,
      "duration": 0.0157,
      "velocity": 115,
      "chip": "ym2612"
    },
    {
      "channel": 5,
      "note": 76,
      "start": 1.1867,
      "duration": 0.0161,
      "velocity": 102,
      "chip": "ym2612"
    },
    {
      "channel": 4,
      "note": 80,
      "start": 1.1879,
      "duration": 0.016,
      "velocity": 98,
      "chip": "ym2612"
    },
    {
      "channel": 3,
      "note": 83,
      "start": 1.1891,
      "duration": 0.016,
      "velocity": 98,
      "chip": "ym2612"
    },
    {
      "channel": 2,
      "note": 64,
      "start": 1.1903,
      "duration": 0.0159,
      "velocity": 93,
      "chip": "ym2612"
    },
    {
      "channel": 1,
      "note": 76,
      "start": 1.1915,
      "duration": 0.0158,
      "velocity": 103,
      "chip": "ym2612"
    },
    {
      "channel": 0,
      "note": 37,
      "start": 1.2012,
      "duration": 0.0159,
      "velocity": 115,
      "chip": "ym2612"
    },
    {
      "channel": 5,
      "note": 76,
      "start": 1.2028,
      "duration": 0.016,
      "velocity": 102,
      "chip": "ym2612"
    },
    {
      "channel": 4,
      "note": 80,
      "start": 1.2039,
      "duration": 0.0161,
      "velocity": 98,
      "chip": "ym2612"
    },
    {
      "channel": 3,
      "note": 83,
      "start": 1.2051,
      "duration": 0.0161,
      "velocity": 98,
      "chip": "ym2612"
    },
    {
      "channel": 2,
      "note": 64,
      "start": 1.2062,
      "duration": 0.0161,
      "velocity": 93,
      "chip": "ym2612"
    },
    {
      "channel": 1,
      "note": 76,
      "start": 1.2073,
      "duration": 0.0162,
      "velocity": 103,
      "chip": "ym2612"
    },
    {
      "channel": 0,
      "note": 38,
      "start": 1.2171,
      "duration": 0.0161,
      "velocity": 115,
      "chip": "ym2612"
    },
    {
      "channel": 5,
      "note": 76,
      "start": 1.2188,
      "duration": 0.0158,
      "velocity": 102,
      "chip": "ym2612"
    },
    {
      "channel": 4,
      "note": 80,
      "start": 1.22,
      "duration": 0.0161,
      "velocity": 98,
      "chip": "ym2612"
    },
    {
      "channel": 3,
      "note": 83,
      "start": 1.2212,
      "duration": 0.0161,
      "velocity": 98,
      "chip": "ym2612"
    },
    {
      "channel": 2,
      "note": 64,
      "start": 1.2223,
      "duration": 0.0162,
      "velocity": 93,
      "chip": "ym2612"
    },
    {
      "channel": 0,
      "note": 38,
      "start": 1.2332,
      "duration": 0.0161,
      "velocity": 115,
      "chip": "ym2612"
    },
    {
      "channel": 5,
      "note": 76,
      "start": 1.2346,
      "duration": 0.016,
      "velocity": 102,
      "chip": "ym2612"
    },
    {
      "channel": 2,
      "note": 64,
      "start": 1.2385,
      "duration": 0.0165,
      "velocity": 93,
      "chip": "ym2612"
    },
    {
      "channel": 0,
      "note": 39,
      "start": 1.2493,
      "duration": 0.0161,
      "velocity": 115,
      "chip": "ym2612"
    },
    {
      "channel": 5,
      "note": 76,
      "start": 1.2505,
      "duration": 0.0161,
      "velocity": 102,
      "chip": "ym2612"
    },
    {
      "channel": 2,
      "note": 64,
      "start": 1.255,
      "duration": 0.0159,
      "velocity": 93,
      "chip": "ym2612"
    },
    {
      "channel": 0,
      "note": 39,
      "start": 1.2654,
      "duration": 0.0161,
      "velocity": 115,
      "chip": "ym2612"
    },
    {
      "channel": 5,
      "note": 76,
      "start": 1.2666,
      "duration": 0.016,
      "velocity": 102,
      "chip": "ym2612"
    },
    {
      "channel": 2,
      "note": 64,
      "start": 1.2709,
      "duration": 0.0161,
      "velocity": 93,
      "chip": "ym2612"
    },
    {
      "channel": 0,
      "note": 40,
      "start": 1.2815,
      "duration": 0.0161,
      "velocity": 115,
      "chip": "ym2612"
    },
    {
      "channel": 5,
      "note": 76,
      "start": 1.2827,
      "duration": 0.0161,
      "velocity": 102,
      "chip": "ym2612"
    },
    {
      "channel": 2,
      "note": 64,
      "start": 1.287,
      "duration": 0.0161,
      "velocity": 93,
      "chip": "ym2612"
    },
    {
      "channel": 0,
      "note": 40,
      "start": 1.2976,
      "duration": 0.0161,
      "velocity": 115,
      "chip": "ym2612"
    },
    {
      "channel": 5,
      "note": 76,
      "start": 1.2988,
      "duration": 0.0161,
      "velocity": 102,
      "chip": "ym2612"
    },
    {
      "channel": 2,
      "note": 64,
      "start": 1.3031,
      "duration": 0.016,
      "velocity": 93,
      "chip": "ym2612"
    },
    {
      "channel": 0,
      "note": 40,
      "start": 1.3137,
      "duration": 0.0161,
      "velocity": 115,
      "chip": "ym2612"
    },
    {
      "channel": 2,
      "note": 64,
      "start": 1.319,
      "duration": 0.0162,
      "velocity": 93,
      "chip": "ym2612"
    },
    {
      "channel": 0,
      "note": 41,
      "start": 1.3298,
      "duration": 0.0161,
      "velocity": 115,
      "chip": "ym2612"
    },
    {
      "channel": 2,
      "note": 64,
      "start": 1.3352,
      "duration": 0.0172,
      "velocity": 93,
      "chip": "ym2612"
    },
    {
      "channel": 0,
      "note": 41,
      "start": 1.3459,
      "duration": 0.0161,
      "velocity": 115,
      "chip": "ym2612"
    },
    {
      "channel": 4,
      "note": 80,
      "start": 1.3488,
      "duration": 0.0156,
      "velocity": 98,
      "chip": "ym2612"
    },
    {
      "channel": 3,
      "note": 83,
      "start": 1.3504,
      "duration": 0.0153,
      "velocity": 98,
      "chip": "ym2612"
    },
    {
      "channel": 2,
      "note": 64,
      "start": 1.3524,
      "duration": 0.0144,
      "velocity": 93,
      "chip": "ym2612"
    },
    {
      "channel": 1,
      "note": 76,
      "start": 1.3539,
      "duration": 0.0147,
      "velocity": 103,
      "chip": "ym2612"
    },
    {
      "channel": 0,
      "note": 42,
      "start": 1.362,
      "duration": 0.0161,
      "velocity": 115,
      "chip": "ym2612"
    },
    {
      "channel": 4,
      "note": 80,
      "start": 1.3645,
      "duration": 0.016,
      "velocity": 98,
      "chip": "ym2612"
    },
    {
      "channel": 3,
      "note": 83,
      "start": 1.3657,
      "duration": 0.016,
      "velocity": 98,
      "chip": "ym2612"
    },
    {
      "channel": 2,
      "note": 64,
      "start": 1.3669,
      "duration": 0.0159,
      "velocity": 93,
      "chip": "ym2612"
    },
    {
      "channel": 1,
      "note": 76,
      "start": 1.3686,
      "duration": 0.0154,
      "velocity": 103,
      "chip": "ym2612"
    },
    {
      "channel": 0,
      "note": 42,
      "start": 1.3781,
      "duration": 0.0161,
      "velocity": 115,
      "chip": "ym2612"
    },
    {
      "channel": 4,
      "note": 80,
      "start": 1.3805,
      "duration": 0.0161,
      "velocity": 98,
      "chip": "ym2612"
    },
    {
      "channel": 3,
      "note": 83,
      "start": 1.3817,
      "duration": 0.0161,
      "velocity": 98,
      "chip": "ym2612"
    },
    {
      "channel": 2,
      "note": 64,
      "start": 1.3828,
      "duration": 0.0162,
      "velocity": 93,
      "chip": "ym2612"
    },
    {
      "channel": 1,
      "note": 76,
      "start": 1.384,
      "duration": 0.0161,
      "velocity": 103,
      "chip": "ym2612"
    },
    {
      "channel": 0,
      "note": 43,
      "start": 1.3942,
      "duration": 0.0162,
      "velocity": 115,
      "chip": "ym2612"
    },
    {
      "channel": 4,
      "note": 80,
      "start": 1.3966,
      "duration": 0.0161,
      "velocity": 98,
      "chip": "ym2612"
    },
    {
      "channel": 3,
      "note": 83,
      "start": 1.3978,
      "duration": 0.0161,
      "velocity": 98,
      "chip": "ym2612"
    },
    {
      "channel": 2,
      "note": 64,
      "start": 1.399,
      "duration": 0.0161,
      "velocity": 93,
      "chip": "ym2612"
    },
    {
      "channel": 1,
      "note": 76,
      "start": 1.4001,
      "duration": 0.0161,
      "velocity": 103,
      "chip": "ym2612"
    },
    {
      "channel": 0,
      "note": 43,
      "start": 1.4103,
      "duration": 0.0161,
      "velocity": 115,
      "chip": "ym2612"
    },
    {
      "channel": 4,
      "note": 80,
      "start": 1.4127,
      "duration": 0.0161,
      "velocity": 98,
      "chip": "ym2612"
    },
    {
      "channel": 3,
      "note": 83,
      "start": 1.4139,
      "duration": 0.0161,
      "velocity": 98,
      "chip": "ym2612"
    },
    {
      "channel": 2,
      "note": 64,
      "start": 1.4151,
      "duration": 0.0161,
      "velocity": 93,
      "chip": "ym2612"
    },
    {
      "channel": 0,
      "note": 44,
      "start": 1.4264,
      "duration": 0.0179,
      "velocity": 124,
      "chip": "ym2612"
    },
    {
      "channel": 2,
      "note": 64,
      "start": 1.4311,
      "duration": 0.0192,
      "velocity": 93,
      "chip": "ym2612"
    },
    {
      "channel": 0,
      "note": 84,
      "start": 1.4444,
      "duration": 0.0143,
      "velocity": 124,
      "chip": "ym2612"
    },
    {
      "channel": 5,
      "note": 76,
      "start": 1.4458,
      "duration": 0.0141,
      "velocity": 102,
      "chip": "ym2612"
    },
    {
      "channel": 4,
      "note": 80,
      "start": 1.4474,
      "duration": 0.0137,
      "velocity": 98,
      "chip": "ym2612"
    },
    {
      "channel": 3,
      "note": 83,
      "start": 1.4488,
      "duration": 0.0135,
      "velocity": 98,
      "chip": "ym2612"
    },
    {
      "channel": 2,
      "note": 64,
      "start": 1.4504,
      "duration": 0.0132,
      "velocity": 93,
      "chip": "ym2612"
    },
    {
      "channel": 1,
      "note": 68,
      "start": 1.4524,
      "duration": 0.0124,
      "velocity": 103,
      "chip": "ym2612"
    },
    {
      "channel": 0,
      "note": 82,
      "start": 1.4587,
      "duration": 0.016,
      "velocity": 124,
      "chip": "ym2612"
    },
    {
      "channel": 5,
      "note": 76,
      "start": 1.4599,
      "duration": 0.016,
      "velocity": 102,
      "chip": "ym2612"
    },
    {
      "channel": 4,
      "note": 80,
      "start": 1.4611,
      "duration": 0.0159,
      "velocity": 98,
      "chip": "ym2612"
    },
    {
      "channel": 3,
      "note": 83,
      "start": 1.4623,
      "duration": 0.0159,
      "velocity": 98,
      "chip": "ym2612"
    },
    {
      "channel": 2,
      "note": 64,
      "start": 1.4635,
      "duration": 0.0159,
      "velocity": 93,
      "chip": "ym2612"
    },
    {
      "channel": 1,
      "note": 68,
      "start": 1.4647,
      "duration": 0.0158,
      "velocity": 103,
      "chip": "ym2612"
    },
    {
      "channel": 0,
      "note": 80,
      "start": 1.4747,
      "duration": 0.0161,
      "velocity": 124,
      "chip": "ym2612"
    },
    {
      "channel": 5,
      "note": 76,
      "start": 1.4759,
      "duration": 0.0161,
      "velocity": 102,
      "chip": "ym2612"
    },
    {
      "channel": 4,
      "note": 80,
      "start": 1.477,
      "duration": 0.0162,
      "velocity": 98,
      "chip": "ym2612"
    },
    {
      "channel": 3,
      "note": 83,
      "start": 1.4782,
      "duration": 0.0161,
      "velocity": 98,
      "chip": "ym2612"
    },
    {
      "channel": 2,
      "note": 64,
      "start": 1.4794,
      "duration": 0.0161,
      "velocity": 93,
      "chip": "ym2612"
    },
    {
      "channel": 1,
      "note": 68,
      "start": 1.4805,
      "duration": 0.0161,
      "velocity": 103,
      "chip": "ym2612"
    },
    {
      "channel": 0,
      "note": 77,
      "start": 1.4908,
      "duration": 0.0161,
      "velocity": 124,
      "chip": "ym2612"
    },
    {
      "channel": 5,
      "note": 76,
      "start": 1.492,
      "duration": 0.0162,
      "velocity": 102,
      "chip": "ym2612"
    },
    {
      "channel": 4,
      "note": 80,
      "start": 1.4932,
      "duration": 0.0161,
      "velocity": 98,
      "chip": "ym2612"
    },
    {
      "channel": 3,
      "note": 83,
      "start": 1.4943,
      "duration": 0.0161,
      "velocity": 98,
      "chip": "ym2612"
    },
    {
      "channel": 2,
      "note": 64,
      "start": 1.4955,
      "duration": 0.0161,
      "velocity": 93,
      "chip": "ym2612"
    },
    {
      "channel": 1,
      "note": 68,
      "start": 1.4966,
      "duration": 0.0162,
      "velocity": 103,
      "chip": "ym2612"
    },
    {
      "channel": 0,
      "note": 75,
      "start": 1.5069,
      "duration": 0.0161,
      "velocity": 124,
      "chip": "ym2612"
    },
    {
      "channel": 4,
      "note": 80,
      "start": 1.5093,
      "duration": 0.0161,
      "velocity": 98,
      "chip": "ym2612"
    },
    {
      "channel": 3,
      "note": 83,
      "start": 1.5104,
      "duration": 0.0161,
      "velocity": 98,
      "chip": "ym2612"
    },
    {
      "channel": 2,
      "note": 64,
      "start": 1.5115,
      "duration": 0.0161,
      "velocity": 93,
      "chip": "ym2612"
    },
    {
      "channel": 1,
      "note": 68,
      "start": 1.5128,
      "duration": 0.016,
      "velocity": 103,
      "chip": "ym2612"
    },
    {
      "channel": 0,
      "note": 72,
      "start": 1.523,
      "duration": 0.0161,
      "velocity": 124,
      "chip": "ym2612"
    },
    {
      "channel": 4,
      "note": 80,
      "start": 1.5254,
      "duration": 0.0165,
      "velocity": 98,
      "chip": "ym2612"
    },
    {
      "channel": 3,
      "note": 83,
      "start": 1.5265,
      "duration": 0.0165,
      "velocity": 98,
      "chip": "ym2612"
    },
    {
      "channel": 2,
      "note": 64,
      "start": 1.5276,
      "duration": 0.0165,
      "velocity": 93,
      "chip": "ym2612"
    },
    {
      "channel": 1,
      "note": 68,
      "start": 1.5288,
      "duration": 0.0165,
      "velocity": 103,
      "chip": "ym2612"
    },
    {
      "channel": 0,
      "note": 70,
      "start": 1.5391,
      "duration": 0.0162,
      "velocity": 124,
      "chip": "ym2612"
    },
    {
      "channel": 5,
      "note": 68,
      "start": 1.5407,
      "duration": 0.0157,
      "velocity": 102,
      "chip": "ym2612"
    },
    {
      "channel": 4,
      "note": 80,
      "start": 1.5419,
      "duration": 0.0157,
      "velocity": 98,
      "chip": "ym2612"
    },
    {
      "channel": 3,
      "note": 83,
      "start": 1.543,
      "duration": 0.0157,
      "velocity": 98,
      "chip": "ym2612"
    },
    {
      "channel": 2,
      "note": 64,
      "start": 1.5442,
      "duration": 0.0157,
      "velocity": 93,
      "chip": "ym2612"
    },
    {
      "channel": 1,
      "note": 68,
      "start": 1.5453,
      "duration": 0.0157,
      "velocity": 103,
      "chip": "ym2612"
    },
    {
      "channel": 0,
      "note": 68,
      "start": 1.5553,
      "duration": 0.0161,
      "velocity": 124,
      "chip": "ym2612"
    },
    {
      "channel": 5,
      "note": 68,
      "start": 1.5565,
      "duration": 0.016,
      "velocity": 102,
      "chip": "ym2612"
    },
    {
      "channel": 4,
      "note": 80,
      "start": 1.5576,
      "duration": 0.016,
      "velocity": 98,
      "chip": "ym2612"
    },
    {
      "channel": 3,
      "note": 83,
      "start": 1.5588,
      "duration": 0.016,
      "velocity": 98,
      "chip": "ym2612"
    },
    {
      "channel": 2,
      "note": 64,
      "start": 1.5599,
      "duration": 0.016,
      "velocity": 93,
      "chip": "ym2612"
    },
    {
      "channel": 1,
      "note": 68,
      "start": 1.561,
      "duration": 0.016,
      "velocity": 103,
      "chip": "ym2612"
    },
    {
      "channel": 0,
      "note": 65,
      "start": 1.5713,
      "duration": 0.0162,
      "velocity": 124,
      "chip": "ym2612"
    },
    {
      "channel": 5,
      "note": 68,
      "start": 1.5725,
      "duration": 0.0161,
      "velocity": 102,
      "chip": "ym2612"
    },
    {
      "channel": 4,
      "note": 80,
      "start": 1.5736,
      "duration": 0.0162,
      "velocity": 98,
      "chip": "ym2612"
    },
    {
      "channel": 3,
      "note": 83,
      "start": 1.5748,
      "duration": 0.0161,
      "velocity": 98,
      "chip": "ym2612"
    },
    {
      "channel": 2,
      "note": 64,
      "start": 1.5759,
      "duration": 0.0162,
      "velocity": 93,
      "chip": "ym2612"
    },
    {
      "channel": 1,
      "note": 68,
      "start": 1.5771,
      "duration": 0.0163,
      "velocity": 103,
      "chip": "ym2612"
    },
    {
      "channel": 0,
      "note": 63,
      "start": 1.5875,
      "duration": 0.0153,
      "velocity": 1,
      "chip": "ym2612"
    },
    {
      "channel": 5,
      "note": 68,
      "start": 1.5886,
      "duration": 0.0153,
      "velocity": 102,
      "chip": "ym2612"
    },
    {
      "channel": 4,
      "note": 80,
      "start": 1.5898,
      "duration": 0.0153,
      "velocity": 98,
      "chip": "ym2612"
    },
    {
      "channel": 3,
      "note": 83,
      "start": 1.5909,
      "duration": 0.0153,
      "velocity": 98,
      "chip": "ym2612"
    },
    {
      "channel": 2,
      "note": 64,
      "start": 1.5921,
      "duration": 0.0153,
      "velocity": 93,
      "chip": "ym2612"
    },
    {
      "channel": 1,
      "note": 68,
      "start": 1.5934,
      "duration": 0.0153,
      "velocity": 103,
      "chip": "ym2612"
    },
    {
      "channel": 5,
      "note": 68,
      "start": 1.604,
      "duration": 0.0155,
      "velocity": 102,
      "chip": "ym2612"
    },
    {
      "channel": 4,
      "note": 80,
      "start": 1.6051,
      "duration": 0.0155,
      "velocity": 98,
      "chip": "ym2612"
    },
    {
      "channel": 3,
      "note": 83,
      "start": 1.6063,
      "duration": 0.0155,
      "velocity": 98,
      "chip": "ym2612"
    },
    {
      "channel": 2,
      "note": 64,
      "start": 1.6074,
      "duration": 0.0155,
      "velocity": 93,
      "chip": "ym2612"
    },
    {
      "channel": 5,
      "note": 68,
      "start": 1.6195,
      "duration": 0.0198,
      "velocity": 102,
      "chip": "ym2612"
    },
    {
      "channel": 4,
      "note": 80,
      "start": 1.6206,
      "duration": 0.0199,
      "velocity": 98,
      "chip": "ym2612"
    },
    {
      "channel": 3,
      "note": 83,
      "start": 1.6218,
      "duration": 0.0198,
      "velocity": 98,
      "chip": "ym2612"
    },
    {
      "channel": 2,
      "note": 64,
      "start": 1.6229,
      "duration": 0.0199,
      "velocity": 93,
      "chip": "ym2612"
    },
    {
      "channel": 0,
      "note": 36,
      "start": 1.6382,
      "duration": 0.0143,
      "velocity": 115,
      "chip": "ym2612"
    },
    {
      "channel": 5,
      "note": 68,
      "start": 1.6393,
      "duration": 0.0143,
      "velocity": 102,
      "chip": "ym2612"
    },
    {
      "channel": 4,
      "note": 80,
      "start": 1.6405,
      "duration": 0.0143,
      "velocity": 98,
      "chip": "ym2612"
    },
    {
      "channel": 3,
      "note": 83,
      "start": 1.6416,
      "duration": 0.0143,
      "velocity": 98,
      "chip": "ym2612"
    },
    {
      "channel": 2,
      "note": 64,
      "start": 1.6428,
      "duration": 0.0143,
      "velocity": 93,
      "chip": "ym2612"
    },
    {
      "channel": 1,
      "note": 71,
      "start": 1.6443,
      "duration": 0.0141,
      "velocity": 103,
      "chip": "ym2612"
    },
    {
      "channel": 0,
      "note": 36,
      "start": 1.6525,
      "duration": 0.016,
      "velocity": 115,
      "chip": "ym2612"
    },
    {
      "channel": 5,
      "note": 68,
      "start": 1.6537,
      "duration": 0.016,
      "velocity": 102,
      "chip": "ym2612"
    },
    {
      "channel": 4,
      "note": 80,
      "start": 1.6548,
      "duration": 0.0161,
      "velocity": 98,
      "chip": "ym2612"
    },
    {
      "channel": 3,
      "note": 83,
      "start": 1.6559,
      "duration": 0.0162,
      "velocity": 98,
      "chip": "ym2612"
    },
    {
      "channel": 2,
      "note": 64,
      "start": 1.6571,
      "duration": 0.0163,
      "velocity": 93,
      "chip": "ym2612"
    },
    {
      "channel": 1,
      "note": 71,
      "start": 1.6584,
      "duration": 0.0162,
      "velocity": 103,
      "chip": "ym2612"
    },
    {
      "channel": 0,
      "note": 37,
      "start": 1.6685,
      "duration": 0.0158,
      "velocity": 115,
      "chip": "ym2612"
    },
    {
      "channel": 5,
      "note": 68,
      "start": 1.6697,
      "duration": 0.0162,
      "velocity": 102,
      "chip": "ym2612"
    },
    {
      "channel": 4,
      "note": 80,
      "start": 1.6709,
      "duration": 0.0161,
      "velocity": 98,
      "chip": "ym2612"
    },
    {
      "channel": 3,
      "note": 83,
      "start": 1.6722,
      "duration": 0.0161,
      "velocity": 98,
      "chip": "ym2612"
    },
    {
      "channel": 2,
      "note": 64,
      "start": 1.6734,
      "duration": 0.0161,
      "velocity": 93,
      "chip": "ym2612"
    },
    {
      "channel": 1,
      "note": 71,
      "start": 1.6745,
      "duration": 0.0161,
      "velocity": 103,
      "chip": "ym2612"
    },
    {
      "channel": 0,
      "note": 37,
      "start": 1.6843,
      "duration": 0.0158,
      "velocity": 115,
      "chip": "ym2612"
    },
    {
      "channel": 5,
      "note": 68,
      "start": 1.6859,
      "duration": 0.016,
      "velocity": 102,
      "chip": "ym2612"
    },
    {
      "channel": 4,
      "note": 80,
      "start": 1.6871,
      "duration": 0.0161,
      "velocity": 98,
      "chip": "ym2612"
    },
    {
      "channel": 3,
      "note": 83,
      "start": 1.6883,
      "duration": 0.0161,
      "velocity": 98,
      "chip": "ym2612"
    },
    {
      "channel": 2,
      "note": 64,
      "start": 1.6895,
      "duration": 0.0161,
      "velocity": 93,
      "chip": "ym2612"
    },
    {
      "channel": 1,
      "note": 71,
      "start": 1.6906,
      "duration": 0.0162,
      "velocity": 103,
      "chip": "ym2612"
    },
    {
      "channel": 0,
      "note": 38,
      "start": 1.7001,
      "duration": 0.0162,
      "velocity": 115,
      "chip": "ym2612"
    },
    {
      "channel": 4,
      "note": 80,
      "start": 1.7032,
      "duration": 0.0159,
      "velocity": 98,
      "chip": "ym2612"
    },
    {
      "channel": 3,
      "note": 83,
      "start": 1.7044,
      "duration": 0.0159,
      "velocity": 98,
      "chip": "ym2612"
    },
    {
      "channel": 2,
      "note": 64,
      "start": 1.7056,
      "duration": 0.0159,
      "velocity": 93,
      "chip": "ym2612"
    },
    {
      "channel": 0,
      "note": 38,
      "start": 1.7163,
      "duration": 0.0181,
      "velocity": 124,
      "chip": "ym2612"
    },
    {
      "channel": 2,
      "note": 64,
      "start": 1.7215,
      "duration": 0.0194,
      "velocity": 93,
      "chip": "ym2612"
    },
    {
      "channel": 0,
      "note": 84,
      "start": 1.7344,
      "duration": 0.0141,
      "velocity": 124,
      "chip": "ym2612"
    },
    {
      "channel": 5,
      "note": 71,
      "start": 1.7363,
      "duration": 0.0134,
      "velocity": 102,
      "chip": "ym2612"
    },
    {
      "channel": 4,
      "note": 80,
      "start": 1.7378,
      "duration": 0.0136,
      "velocity": 98,
      "chip": "ym2612"
    },
    {
      "channel": 3,
      "note": 83,
      "start": 1.7394,
      "duration": 0.0134,
      "velocity": 98,
      "chip": "ym2612"
    },
    {
      "channel": 2,
      "note": 64,
      "start": 1.7409,
      "duration": 0.0131,
      "velocity": 93,
      "chip": "ym2612"
    },
    {
      "channel": 1,
      "note": 76,
      "start": 1.7424,
      "duration": 0.0128,
      "velocity": 103,
      "chip": "ym2612"
    },
    {
      "channel": 0,
      "note": 82,
      "start": 1.7485,
      "duration": 0.016,
      "velocity": 124,
      "chip": "ym2612"
    },
    {
      "channel": 5,
      "note": 71,
      "start": 1.7497,
      "duration": 0.016,
      "velocity": 102,
      "chip": "ym2612"
    },
    {
      "channel": 4,
      "note": 80,
      "start": 1.7514,
      "duration": 0.0154,
      "velocity": 98,
      "chip": "ym2612"
    },
    {
      "channel": 3,
      "note": 83,
      "start": 1.7528,
      "duration": 0.0158,
      "velocity": 98,
      "chip": "ym2612"
    },
    {
      "channel": 2,
      "note": 64,
      "start": 1.754,
      "duration": 0.0158,
      "velocity": 93,
      "chip": "ym2612"
    },
    {
      "channel": 1,
      "note": 76,
      "start": 1.7552,
      "duration": 0.0157,
      "velocity": 103,
      "chip": "ym2612"
    },
    {
      "channel": 0,
      "note": 80,
      "start": 1.7645,
      "duration": 0.0161,
      "velocity": 124,
      "chip": "ym2612"
    },
    {
      "channel": 5,
      "note": 71,
      "start": 1.7657,
      "duration": 0.0161,
      "velocity": 102,
      "chip": "ym2612"
    },
    {
      "channel": 4,
      "note": 80,
      "start": 1.7668,
      "duration": 0.0162,
      "velocity": 98,
      "chip": "ym2612"
    },
    {
      "channel": 3,
      "note": 83,
      "start": 1.7685,
      "duration": 0.0158,
      "velocity": 98,
      "chip": "ym2612"
    },
    {
      "channel": 2,
      "note": 64,
      "start": 1.7698,
      "duration": 0.0161,
      "velocity": 93,
      "chip": "ym2612"
    },
    {
      "channel": 1,
      "note": 76,
      "start": 1.7709,
      "duration": 0.0161,
      "velocity": 103,
      "chip": "ym2612"
    },
    {
      "channel": 0,
      "note": 77,
      "start": 1.7806,
      "duration": 0.0161,
      "velocity": 124,
      "chip": "ym2612"
    },
    {
      "channel": 5,
      "note": 71,
      "start": 1.7818,
      "duration": 0.0162,
      "velocity": 102,
      "chip": "ym2612"
    },
    {
      "channel": 4,
      "note": 80,
      "start": 1.783,
      "duration": 0.0161,
      "velocity": 98,
      "chip": "ym2612"
    },
    {
      "channel": 3,
      "note": 83,
      "start": 1.7843,
      "duration": 0.0159,
      "velocity": 98,
      "chip": "ym2612"
    },
    {
      "channel": 2,
      "note": 64,
      "start": 1.7859,
      "duration": 0.0161,
      "velocity": 93,
      "chip": "ym2612"
    },
    {
      "channel": 1,
      "note": 76,
      "start": 1.787,
      "duration": 0.0162,
      "velocity": 103,
      "chip": "ym2612"
    },
    {
      "channel": 0,
      "note": 75,
      "start": 1.7967,
      "duration": 0.0161,
      "velocity": 124,
      "chip": "ym2612"
    },
    {
      "channel": 4,
      "note": 80,
      "start": 1.7991,
      "duration": 0.0161,
      "velocity": 98,
      "chip": "ym2612"
    },
    {
      "channel": 3,
      "note": 83,
      "start": 1.8002,
      "duration": 0.0161,
      "velocity": 98,
      "chip": "ym2612"
    },
    {
      "channel": 2,
      "note": 64,
      "start": 1.802,
      "duration": 0.0157,
      "velocity": 93,
      "chip": "ym2612"
    },
    {
      "channel": 1,
      "note": 76,
      "start": 1.8032,
      "duration": 0.016,
      "velocity": 103,
      "chip": "ym2612"
    },
    {
      "channel": 0,
      "note": 72,
      "start": 1.8128,
      "duration": 0.0161,
      "velocity": 124,
      "chip": "ym2612"
    },
    {
      "channel": 4,
      "note": 80,
      "start": 1.8152,
      "duration": 0.0164,
      "velocity": 98,
      "chip": "ym2612"
    },
    {
      "channel": 3,
      "note": 83,
      "start": 1.8163,
      "duration": 0.0165,
      "velocity": 98,
      "chip": "ym2612"
    },
    {
      "channel": 2,
      "note": 64,
      "start": 1.8177,
      "duration": 0.0163,
      "velocity": 93,
      "chip": "ym2612"
    },
    {
      "channel": 1,
      "note": 76,
      "start": 1.8192,
      "duration": 0.0165,
      "velocity": 103,
      "chip": "ym2612"
    },
    {
      "channel": 0,
      "note": 70,
      "start": 1.8289,
      "duration": 0.0162,
      "velocity": 124,
      "chip": "ym2612"
    },
    {
      "channel": 5,
      "note": 76,
      "start": 1.8304,
      "duration": 0.0159,
      "velocity": 102,
      "chip": "ym2612"
    },
    {
      "channel": 4,
      "note": 80,
      "start": 1.8316,
      "duration": 0.0159,
      "velocity": 98,
      "chip": "ym2612"
    },
    {
      "channel": 3,
      "note": 83,
      "start": 1.8328,
      "duration": 0.0158,
      "velocity": 98,
      "chip": "ym2612"
    },
    {
      "channel": 2,
      "note": 64,
      "start": 1.8339,
      "duration": 0.0158,
      "velocity": 93,
      "chip": "ym2612"
    },
    {
      "channel": 1,
      "note": 76,
      "start": 1.8357,
      "duration": 0.0154,
      "velocity": 103,
      "chip": "ym2612"
    },
    {
      "channel": 0,
      "note": 68,
      "start": 1.8451,
      "duration": 0.0161,
      "velocity": 124,
      "chip": "ym2612"
    },
    {
      "channel": 5,
      "note": 76,
      "start": 1.8463,
      "duration": 0.016,
      "velocity": 102,
      "chip": "ym2612"
    },
    {
      "channel": 4,
      "note": 80,
      "start": 1.8474,
      "duration": 0.016,
      "velocity": 98,
      "chip": "ym2612"
    },
    {
      "channel": 3,
      "note": 83,
      "start": 1.8486,
      "duration": 0.016,
      "velocity": 98,
      "chip": "ym2612"
    },
    {
      "channel": 2,
      "note": 64,
      "start": 1.8497,
      "duration": 0.0161,
      "velocity": 93,
      "chip": "ym2612"
    },
    {
      "channel": 1,
      "note": 76,
      "start": 1.8511,
      "duration": 0.0159,
      "velocity": 103,
      "chip": "ym2612"
    },
    {
      "channel": 0,
      "note": 65,
      "start": 1.8612,
      "duration": 0.0161,
      "velocity": 124,
      "chip": "ym2612"
    },
    {
      "channel": 5,
      "note": 76,
      "start": 1.8623,
      "duration": 0.0161,
      "velocity": 102,
      "chip": "ym2612"
    },
    {
      "channel": 4,
      "note": 80,
      "start": 1.8634,
      "duration": 0.0162,
      "velocity": 98,
      "chip": "ym2612"
    },
    {
      "channel": 3,
      "note": 83,
      "start": 1.8646,
      "duration": 0.0163,
      "velocity": 98,
      "chip": "ym2612"
    },
    {
      "channel": 2,
      "note": 64,
      "start": 1.8658,
      "duration": 0.0163,
      "velocity": 93,
      "chip": "ym2612"
    },
    {
      "channel": 1,
      "note": 76,
      "start": 1.867,
      "duration": 0.0162,
      "velocity": 103,
      "chip": "ym2612"
    },
    {
      "channel": 0,
      "note": 63,
      "start": 1.8773,
      "duration": 0.0153,
      "velocity": 1,
      "chip": "ym2612"
    },
    {
      "channel": 5,
      "note": 76,
      "start": 1.8784,
      "duration": 0.0153,
      "velocity": 102,
      "chip": "ym2612"
    },
    {
      "channel": 4,
      "note": 80,
      "start": 1.8796,
      "duration": 0.0153,
      "velocity": 98,
      "chip": "ym2612"
    },
    {
      "channel": 3,
      "note": 83,
      "start": 1.8809,
      "duration": 0.0152,
      "velocity": 98,
      "chip": "ym2612"
    },
    {
      "channel": 2,
      "note": 64,
      "start": 1.8821,
      "duration": 0.0152,
      "velocity": 93,
      "chip": "ym2612"
    },
    {
      "channel": 1,
      "note": 76,
      "start": 1.8832,
      "duration": 0.0152,
      "velocity": 103,
      "chip": "ym2612"
    },
    {
      "channel": 5,
      "note": 76,
      "start": 1.8937,
      "duration": 0.0153,
      "velocity": 102,
      "chip": "ym2612"
    },
    {
      "channel": 4,
      "note": 80,
      "start": 1.8949,
      "duration": 0.0153,
      "velocity": 98,
      "chip": "ym2612"
    },
    {
      "channel": 3,
      "note": 83,
      "start": 1.8961,
      "duration": 0.0153,
      "velocity": 98,
      "chip": "ym2612"
    },
    {
      "channel": 2,
      "note": 64,
      "start": 1.8973,
      "duration": 0.0153,
      "velocity": 93,
      "chip": "ym2612"
    },
    {
      "channel": 5,
      "note": 76,
      "start": 1.9089,
      "duration": 0.0197,
      "velocity": 102,
      "chip": "ym2612"
    },
    {
      "channel": 4,
      "note": 80,
      "start": 1.9102,
      "duration": 0.0196,
      "velocity": 98,
      "chip": "ym2612"
    },
    {
      "channel": 3,
      "note": 83,
      "start": 1.9114,
      "duration": 0.0196,
      "velocity": 98,
      "chip": "ym2612"
    },
    {
      "channel": 2,
      "note": 64,
      "start": 1.9126,
      "duration": 0.0195,
      "velocity": 93,
      "chip": "ym2612"
    },
    {
      "channel": 0,
      "note": 36,
      "start": 1.9274,
      "duration": 0.0143,
      "velocity": 115,
      "chip": "ym2612"
    },
    {
      "channel": 5,
      "note": 76,
      "start": 1.9287,
      "duration": 0.0142,
      "velocity": 102,
      "chip": "ym2612"
    },
    {
      "channel": 4,
      "note": 80,
      "start": 1.9298,
      "duration": 0.0143,
      "velocity": 98,
      "chip": "ym2612"
    },
    {
      "channel": 3,
      "note": 83,
      "start": 1.931,
      "duration": 0.0143,
      "velocity": 98,
      "chip": "ym2612"
    },
    {
      "channel": 2,
      "note": 64,
      "start": 1.9321,
      "duration": 0.0143,
      "velocity": 93,
      "chip": "ym2612"
    },
    {
      "channel": 0,
      "note": 36,
      "start": 1.9417,
      "duration": 0.016,
      "velocity": 115,
      "chip": "ym2612"
    },
    {
      "channel": 5,
      "note": 76,
      "start": 1.9429,
      "duration": 0.016,
      "velocity": 102,
      "chip": "ym2612"
    },
    {
      "channel": 4,
      "note": 80,
      "start": 1.9441,
      "duration": 0.016,
      "velocity": 98,
      "chip": "ym2612"
    },
    {
      "channel": 3,
      "note": 83,
      "start": 1.9453,
      "duration": 0.016,
      "velocity": 98,
      "chip": "ym2612"
    },
    {
      "channel": 2,
      "note": 64,
      "start": 1.9464,
      "duration": 0.016,
      "velocity": 93,
      "chip": "ym2612"
    },
    {
      "channel": 0,
      "note": 37,
      "start": 1.9577,
      "duration": 0.0161,
      "velocity": 115,
      "chip": "ym2612"
    },
    {
      "channel": 5,
      "note": 76,
      "start": 1.9589,
      "duration": 0.0162,
      "velocity": 102,
      "chip": "ym2612"
    },
    {
      "channel": 4,
      "note": 80,
      "start": 1.9601,
      "duration": 0.0161,
      "velocity": 98,
      "chip": "ym2612"
    },
    {
      "channel": 3,
      "note": 83,
      "start": 1.9612,
      "duration": 0.0161,
      "velocity": 98,
      "chip": "ym2612"
    },
    {
      "channel": 2,
      "note": 64,
      "start": 1.9624,
      "duration": 0.0161,
      "velocity": 93,
      "chip": "ym2612"
    },
    {
      "channel": 0,
      "note": 37,
      "start": 1.9738,
      "duration": 0.0161,
      "velocity": 115,
      "chip": "ym2612"
    },
    {
      "channel": 5,
      "note": 76,
      "start": 1.975,
      "duration": 0.0161,
      "velocity": 102,
      "chip": "ym2612"
    },
    {
      "channel": 4,
      "note": 80,
      "start": 1.9762,
      "duration": 0.0161,
      "velocity": 98,
      "chip": "ym2612"
    },
    {
      "channel": 3,
      "note": 83,
      "start": 1.9773,
      "duration": 0.0162,
      "velocity": 98,
      "chip": "ym2612"
    },
    {
      "channel": 2,
      "note": 64,
      "start": 1.9785,
      "duration": 0.0163,
      "velocity": 93,
      "chip": "ym2612"
    },
    {
      "channel": 0,
      "note": 38,
      "start": 1.9899,
      "duration": 0.0162,
      "velocity": 115,
      "chip": "ym2612"
    },
    {
      "channel": 4,
      "note": 80,
      "start": 1.9923,
      "duration": 0.0161,
      "velocity": 98,
      "chip": "ym2612"
    },
    {
      "channel": 3,
      "note": 83,
      "start": 1.9935,
      "duration": 0.0162,
      "velocity": 98,
      "chip": "ym2612"
    },
    {
      "channel": 2,
      "note": 64,
      "start": 1.9948,
      "duration": 0.0162,
      "velocity": 93,
      "chip": "ym2612"
    },
    {
      "channel": 0,
      "note": 38,
      "start": 2.0061,
      "duration": 0.0179,
      "velocity": 124,
      "chip": "ym2612"
    },
    {
      "channel": 2,
      "note": 64,
      "start": 2.011,
      "duration": 0.0188,
      "velocity": 93,
      "chip": "ym2612"
    },
    {
      "channel": 0,
      "note": 84,
      "start": 2.024,
      "duration": 0.0143,
      "velocity": 124,
      "chip": "ym2612"
    },
    {
      "channel": 4,
      "note": 78,
      "start": 2.0269,
      "duration": 0.0139,
      "velocity": 98,
      "chip": "ym2612"
    },
    {
      "channel": 3,
      "note": 83,
      "start": 2.0284,
      "duration": 0.0136,
      "velocity": 98,
      "chip": "ym2612"
    },
    {
      "channel": 2,
      "note": 63,
      "start": 2.0298,
      "duration": 0.0134,
      "velocity": 93,
      "chip": "ym2612"
    },
    {
      "channel": 1,
      "note": 78,
      "start": 2.0313,
      "duration": 0.0131,
      "velocity": 103,
      "chip": "ym2612"
    },
    {
      "channel": 0,
      "note": 82,
      "start": 2.0383,
      "duration": 0.016,
      "velocity": 124,
      "chip": "ym2612"
    },
    {
      "channel": 4,
      "note": 78,
      "start": 2.0407,
      "duration": 0.016,
      "velocity": 98,
      "chip": "ym2612"
    },
    {
      "channel": 3,
      "note": 83,
      "start": 2.042,
      "duration": 0.0159,
      "velocity": 98,
      "chip": "ym2612"
    },
    {
      "channel": 2,
      "note": 63,
      "start": 2.0432,
      "duration": 0.0159,
      "velocity": 93,
      "chip": "ym2612"
    },
    {
      "channel": 1,
      "note": 78,
      "start": 2.0444,
      "duration": 0.0158,
      "velocity": 103,
      "chip": "ym2612"
    },
    {
      "channel": 0,
      "note": 80,
      "start": 2.0544,
      "duration": 0.0162,
      "velocity": 124,
      "chip": "ym2612"
    },
    {
      "channel": 4,
      "note": 78,
      "start": 2.0568,
      "duration": 0.0161,
      "velocity": 98,
      "chip": "ym2612"
    },
    {
      "channel": 3,
      "note": 83,
      "start": 2.0579,
      "duration": 0.0162,
      "velocity": 98,
      "chip": "ym2612"
    },
    {
      "channel": 2,
      "note": 63,
      "start": 2.0591,
      "duration": 0.0161,
      "velocity": 93,
      "chip": "ym2612"
    },
    {
      "channel": 1,
      "note": 78,
      "start": 2.0602,
      "duration": 0.0162,
      "velocity": 103,
      "chip": "ym2612"
    },
    {
      "channel": 0,
      "note": 77,
      "start": 2.0705,
      "duration": 0.0163,
      "velocity": 124,
      "chip": "ym2612"
    },
    {
      "channel": 4,
      "note": 78,
      "start": 2.0729,
      "duration": 0.0163,
      "velocity": 98,
      "chip": "ym2612"
    },
    {
      "channel": 3,
      "note": 83,
      "start": 2.0741,
      "duration": 0.0163,
      "velocity": 98,
      "chip": "ym2612"
    },
    {
      "channel": 2,
      "note": 63,
      "start": 2.0752,
      "duration": 0.0163,
      "velocity": 93,
      "chip": "ym2612"
    },
    {
      "channel": 1,
      "note": 78,
      "start": 2.0764,
      "duration": 0.0163,
      "velocity": 103,
      "chip": "ym2612"
    },
    {
      "channel": 0,
      "note": 75,
      "start": 2.0869,
      "duration": 0.0163,
      "velocity": 124,
      "chip": "ym2612"
    },
    {
      "channel": 4,
      "note": 78,
      "start": 2.0893,
      "duration": 0.0163,
      "velocity": 98,
      "chip": "ym2612"
    },
    {
      "channel": 3,
      "note": 83,
      "start": 2.0904,
      "duration": 0.0163,
      "velocity": 98,
      "chip": "ym2612"
    },
    {
      "channel": 2,
      "note": 63,
      "start": 2.0916,
      "duration": 0.0163,
      "velocity": 93,
      "chip": "ym2612"
    },
    {
      "channel": 1,
      "note": 78,
      "start": 2.0927,
      "duration": 0.0163,
      "velocity": 103,
      "chip": "ym2612"
    },
    {
      "channel": 0,
      "note": 72,
      "start": 2.1032,
      "duration": 0.0162,
      "velocity": 124,
      "chip": "ym2612"
    },
    {
      "channel": 4,
      "note": 78,
      "start": 2.1056,
      "duration": 0.0164,
      "velocity": 98,
      "chip": "ym2612"
    },
    {
      "channel": 3,
      "note": 83,
      "start": 2.1067,
      "duration": 0.0165,
      "velocity": 98,
      "chip": "ym2612"
    },
    {
      "channel": 2,
      "note": 63,
      "start": 2.1079,
      "duration": 0.0164,
      "velocity": 93,
      "chip": "ym2612"
    },
    {
      "channel": 1,
      "note": 78,
      "start": 2.1091,
      "duration": 0.0165,
      "velocity": 103,
      "chip": "ym2612"
    },
    {
      "channel": 0,
      "note": 70,
      "start": 2.1194,
      "duration": 0.0161,
      "velocity": 124,
      "chip": "ym2612"
    },
    {
      "channel": 5,
      "note": 78,
      "start": 2.1208,
      "duration": 0.0158,
      "velocity": 102,
      "chip": "ym2612"
    },
    {
      "channel": 4,
      "note": 78,
      "start": 2.122,
      "duration": 0.0159,
      "velocity": 98,
      "chip": "ym2612"
    },
    {
      "channel": 3,
      "note": 83,
      "start": 2.1232,
      "duration": 0.0158,
      "velocity": 98,
      "chip": "ym2612"
    },
    {
      "channel": 2,
      "note": 63,
      "start": 2.1243,
      "duration": 0.0158,
      "velocity": 93,
      "chip": "ym2612"
    },
    {
      "channel": 1,
      "note": 78,
      "start": 2.1255,
      "duration": 0.0158,
      "velocity": 103,
      "chip": "ym2612"
    },
    {
      "channel": 0,
      "note": 68,
      "start": 2.1355,
      "duration": 0.016,
      "velocity": 124,
      "chip": "ym2612"
    },
    {
      "channel": 5,
      "note": 78,
      "start": 2.1367,
      "duration": 0.016,
      "velocity": 102,
      "chip": "ym2612"
    },
    {
      "channel": 4,
      "note": 78,
      "start": 2.1378,
      "duration": 0.016,
      "velocity": 98,
      "chip": "ym2612"
    },
    {
      "channel": 3,
      "note": 83,
      "start": 2.139,
      "duration": 0.016,
      "velocity": 98,
      "chip": "ym2612"
    },
    {
      "channel": 2,
      "note": 63,
      "start": 2.1401,
      "duration": 0.0161,
      "velocity": 93,
      "chip": "ym2612"
    },
    {
      "channel": 1,
      "note": 78,
      "start": 2.1413,
      "duration": 0.0161,
      "velocity": 103,
      "chip": "ym2612"
    },
    {
      "channel": 0,
      "note": 65,
      "start": 2.1515,
      "duration": 0.0156,
      "velocity": 124,
      "chip": "ym2612"
    },
    {
      "channel": 5,
      "note": 78,
      "start": 2.1527,
      "duration": 0.0161,
      "velocity": 102,
      "chip": "ym2612"
    },
    {
      "channel": 4,
      "note": 78,
      "start": 2.1539,
      "duration": 0.0161,
      "velocity": 98,
      "chip": "ym2612"
    },
    {
      "channel": 3,
      "note": 83,
      "start": 2.155,
      "duration": 0.0163,
      "velocity": 98,
      "chip": "ym2612"
    },
    {
      "channel": 2,
      "note": 63,
      "start": 2.1562,
      "duration": 0.0163,
      "velocity": 93,
      "chip": "ym2612"
    },
    {
      "channel": 1,
      "note": 78,
      "start": 2.1574,
      "duration": 0.0162,
      "velocity": 103,
      "chip": "ym2612"
    },
    {
      "channel": 0,
      "note": 63,
      "start": 2.1671,
      "duration": 0.0153,
      "velocity": 1,
      "chip": "ym2612"
    },
    {
      "channel": 5,
      "note": 78,
      "start": 2.1688,
      "duration": 0.0147,
      "velocity": 102,
      "chip": "ym2612"
    },
    {
      "channel": 4,
      "note": 78,
      "start": 2.17,
      "duration": 0.0152,
      "velocity": 98,
      "chip": "ym2612"
    },
    {
      "channel": 3,
      "note": 83,
      "start": 2.1713,
      "duration": 0.0152,
      "velocity": 98,
      "chip": "ym2612"
    },
    {
      "channel": 2,
      "note": 63,
      "start": 2.1725,
      "duration": 0.0152,
      "velocity": 93,
      "chip": "ym2612"
    },
    {
      "channel": 1,
      "note": 78,
      "start": 2.1736,
      "duration": 0.0153,
      "velocity": 103,
      "chip": "ym2612"
    },
    {
      "channel": 5,
      "note": 78,
      "start": 2.1835,
      "duration": 0.0153,
      "velocity": 102,
      "chip": "ym2612"
    },
    {
      "channel": 4,
      "note": 78,
      "start": 2.1852,
      "duration": 0.0148,
      "velocity": 98,
      "chip": "ym2612"
    },
    {
      "channel": 3,
      "note": 83,
      "start": 2.1865,
      "duration": 0.0152,
      "velocity": 98,
      "chip": "ym2612"
    },
    {
      "channel": 2,
      "note": 63,
      "start": 2.1877,
      "duration": 0.0153,
      "velocity": 93,
      "chip": "ym2612"
    },
    {
      "channel": 5,
      "note": 78,
      "start": 2.1988,
      "duration": 0.0162,
      "velocity": 102,
      "chip": "ym2612"
    },
    {
      "channel": 4,
      "note": 78,
      "start": 2.2,
      "duration": 0.0161,
      "velocity": 98,
      "chip": "ym2612"
    },
    {
      "channel": 3,
      "note": 83,
      "start": 2.2017,
      "duration": 0.0158,
      "velocity": 98,
      "chip": "ym2612"
    },
    {
      "channel": 2,
      "note": 63,
      "start": 2.203,
      "duration": 0.016,
      "velocity": 93,
      "chip": "ym2612"
    },
    {
      "channel": 5,
      "note": 78,
      "start": 2.2149,
      "duration": 0.0161,
      "velocity": 102,
      "chip": "ym2612"
    },
    {
      "channel": 4,
      "note": 78,
      "start": 2.2161,
      "duration": 0.0161,
      "velocity": 98,
      "chip": "ym2612"
    },
    {
      "channel": 3,
      "note": 83,
      "start": 2.2175,
      "duration": 0.0159,
      "velocity": 98,
      "chip": "ym2612"
    },
    {
      "channel": 2,
      "note": 63,
      "start": 2.219,
      "duration": 0.016,
      "velocity": 93,
      "chip": "ym2612"
    },
    {
      "channel": 5,
      "note": 78,
      "start": 2.231,
      "duration": 0.016,
      "velocity": 102,
      "chip": "ym2612"
    },
    {
      "channel": 4,
      "note": 78,
      "start": 2.2322,
      "duration": 0.016,
      "velocity": 98,
      "chip": "ym2612"
    },
    {
      "channel": 3,
      "note": 83,
      "start": 2.2333,
      "duration": 0.016,
      "velocity": 98,
      "chip": "ym2612"
    },
    {
      "channel": 2,
      "note": 63,
      "start": 2.235,
      "duration": 0.0155,
      "velocity": 93,
      "chip": "ym2612"
    },
    {
      "channel": 5,
      "note": 78,
      "start": 2.2471,
      "duration": 0.0161,
      "velocity": 102,
      "chip": "ym2612"
    },
    {
      "channel": 4,
      "note": 78,
      "start": 2.2482,
      "duration": 0.0161,
      "velocity": 98,
      "chip": "ym2612"
    },
    {
      "channel": 3,
      "note": 83,
      "start": 2.2493,
      "duration": 0.0161,
      "velocity": 98,
      "chip": "ym2612"
    },
    {
      "channel": 2,
      "note": 63,
      "start": 2.2505,
      "duration": 0.0161,
      "velocity": 93,
      "chip": "ym2612"
    },
    {
      "channel": 5,
      "note": 78,
      "start": 2.2631,
      "duration": 0.0161,
      "velocity": 102,
      "chip": "ym2612"
    },
    {
      "channel": 4,
      "note": 78,
      "start": 2.2643,
      "duration": 0.0162,
      "velocity": 98,
      "chip": "ym2612"
    },
    {
      "channel": 3,
      "note": 83,
      "start": 2.2655,
      "duration": 0.0162,
      "velocity": 98,
      "chip": "ym2612"
    },
    {
      "channel": 2,
      "note": 63,
      "start": 2.2666,
      "duration": 0.0163,
      "velocity": 93,
      "chip": "ym2612"
    },
    {
      "channel": 4,
      "note": 78,
      "start": 2.2805,
      "duration": 0.0161,
      "velocity": 98,
      "chip": "ym2612"
    },
    {
      "channel": 3,
      "note": 83,
      "start": 2.2817,
      "duration": 0.0161,
      "velocity": 98,
      "chip": "ym2612"
    },
    {
      "channel": 2,
      "note": 63,
      "start": 2.2829,
      "duration": 0.0161,
      "velocity": 93,
      "chip": "ym2612"
    },
    {
      "channel": 2,
      "note": 63,
      "start": 2.2991,
      "duration": 0.0212,
      "velocity": 93,
      "chip": "ym2612"
    },
    {
      "channel": 0,
      "note": 36,
      "start": 2.3138,
      "duration": 0.0143,
      "velocity": 115,
      "chip": "ym2612"
    },
    {
      "channel": 4,
      "note": 80,
      "start": 2.3167,
      "duration": 0.0139,
      "velocity": 98,
      "chip": "ym2612"
    },
    {
      "channel": 3,
      "note": 85,
      "start": 2.3189,
      "duration": 0.013,
      "velocity": 98,
      "chip": "ym2612"
    },
    {
      "channel": 2,
      "note": 61,
      "start": 2.3203,
      "duration": 0.0127,
      "velocity": 93,
      "chip": "ym2612"
    },
    {
      "channel": 1,
      "note": 76,
      "start": 2.3219,
      "duration": 0.0125,
      "velocity": 103,
      "chip": "ym2612"
    },
    {
      "channel": 0,
      "note": 36,
      "start": 2.3281,
      "duration": 0.016,
      "velocity": 115,
      "chip": "ym2612"
    },
    {
      "channel": 4,
      "note": 80,
      "start": 2.3306,
      "duration": 0.016,
      "velocity": 98,
      "chip": "ym2612"
    },
    {
      "channel": 3,
      "note": 85,
      "start": 2.3318,
      "duration": 0.0159,
      "velocity": 98,
      "chip": "ym2612"
    },
    {
      "channel": 2,
      "note": 61,
      "start": 2.3331,
      "duration": 0.0158,
      "velocity": 93,
      "chip": "ym2612"
    },
    {
      "channel": 1,
      "note": 76,
      "start": 2.3344,
      "duration": 0.0156,
      "velocity": 103,
      "chip": "ym2612"
    },
    {
      "channel": 0,
      "note": 37,
      "start": 2.3442,
      "duration": 0.0161,
      "velocity": 115,
      "chip": "ym2612"
    },
    {
      "channel": 4,
      "note": 80,
      "start": 2.3465,
      "duration": 0.0162,
      "velocity": 98,
      "chip": "ym2612"
    },
    {
      "channel": 3,
      "note": 85,
      "start": 2.3478,
      "duration": 0.0161,
      "velocity": 98,
      "chip": "ym2612"
    },
    {
      "channel": 2,
      "note": 61,
      "start": 2.3489,
      "duration": 0.0161,
      "velocity": 93,
      "chip": "ym2612"
    },
    {
      "channel": 1,
      "note": 76,
      "start": 2.35,
      "duration": 0.0161,
      "velocity": 103,
      "chip": "ym2612"
    },
    {
      "channel": 0,
      "note": 37,
      "start": 2.3603,
      "duration": 0.0161,
      "velocity": 115,
      "chip": "ym2612"
    },
    {
      "channel": 4,
      "note": 80,
      "start": 2.3627,
      "duration": 0.0161,
      "velocity": 98,
      "chip": "ym2612"
    },
    {
      "channel": 3,
      "note": 85,
      "start": 2.3638,
      "duration": 0.0161,
      "velocity": 98,
      "chip": "ym2612"
    },
    {
      "channel": 2,
      "note": 61,
      "start": 2.365,
      "duration": 0.0161,
      "velocity": 93,
      "chip": "ym2612"
    },
    {
      "channel": 1,
      "note": 76,
      "start": 2.3661,
      "duration": 0.0162,
      "velocity": 103,
      "chip": "ym2612"
    },
    {
      "channel": 0,
      "note": 38,
      "start": 2.3764,
      "duration": 0.0161,
      "velocity": 115,
      "chip": "ym2612"
    },
    {
      "channel": 4,
      "note": 80,
      "start": 2.3788,
      "duration": 0.0161,
      "velocity": 98,
      "chip": "ym2612"
    },
    {
      "channel": 3,
      "note": 85,
      "start": 2.3799,
      "duration": 0.0161,
      "velocity": 98,
      "chip": "ym2612"
    },
    {
      "channel": 2,
      "note": 61,
      "start": 2.3811,
      "duration": 0.016,
      "velocity": 93,
      "chip": "ym2612"
    },
    {
      "channel": 1,
      "note": 76,
      "start": 2.3823,
      "duration": 0.0161,
      "velocity": 103,
      "chip": "ym2612"
    },
    {
      "channel": 0,
      "note": 38,
      "start": 2.3925,
      "duration": 0.0161,
      "velocity": 115,
      "chip": "ym2612"
    },
    {
      "channel": 4,
      "note": 80,
      "start": 2.3949,
      "duration": 0.0165,
      "velocity": 98,
      "chip": "ym2612"
    },
    {
      "channel": 3,
      "note": 85,
      "start": 2.396,
      "duration": 0.0165,
      "velocity": 98,
      "chip": "ym2612"
    },
    {
      "channel": 2,
      "note": 61,
      "start": 2.3972,
      "duration": 0.0166,
      "velocity": 93,
      "chip": "ym2612"
    },
    {
      "channel": 1,
      "note": 76,
      "start": 2.3984,
      "duration": 0.0165,
      "velocity": 103,
      "chip": "ym2612"
    },
    {
      "channel": 0,
      "note": 39,
      "start": 2.4085,
      "duration": 0.0161,
      "velocity": 115,
      "chip": "ym2612"
    },
    {
      "channel": 5,
      "note": 76,
      "start": 2.4102,
      "duration": 0.0157,
      "velocity": 102,
      "chip": "ym2612"
    },
    {
      "channel": 4,
      "note": 80,
      "start": 2.4114,
      "duration": 0.0157,
      "velocity": 98,
      "chip": "ym2612"
    },
    {
      "channel": 3,
      "note": 85,
      "start": 2.4126,
      "duration": 0.0156,
      "velocity": 98,
      "chip": "ym2612"
    },
    {
      "channel": 2,
      "note": 61,
      "start": 2.4137,
      "duration": 0.0156,
      "velocity": 93,
      "chip": "ym2612"
    },
    {
      "channel": 1,
      "note": 76,
      "start": 2.4149,
      "duration": 0.0156,
      "velocity": 103,
      "chip": "ym2612"
    },
    {
      "channel": 0,
      "note": 39,
      "start": 2.4246,
      "duration": 0.0161,
      "velocity": 115,
      "chip": "ym2612"
    },
    {
      "channel": 5,
      "note": 76,
      "start": 2.4259,
      "duration": 0.016,
      "velocity": 102,
      "chip": "ym2612"
    },
    {
      "channel": 4,
      "note": 80,
      "start": 2.4271,
      "duration": 0.016,
      "velocity": 98,
      "chip": "ym2612"
    },
    {
      "channel": 3,
      "note": 85,
      "start": 2.4282,
      "duration": 0.016,
      "velocity": 98,
      "chip": "ym2612"
    },
    {
      "channel": 2,
      "note": 61,
      "start": 2.4294,
      "duration": 0.016,
      "velocity": 93,
      "chip": "ym2612"
    },
    {
      "channel": 1,
      "note": 76,
      "start": 2.4306,
      "duration": 0.016,
      "velocity": 103,
      "chip": "ym2612"
    },
    {
      "channel": 0,
      "note": 40,
      "start": 2.4407,
      "duration": 0.0162,
      "velocity": 115,
      "chip": "ym2612"
    },
    {
      "channel": 5,
      "note": 76,
      "start": 2.442,
      "duration": 0.0161,
      "velocity": 102,
      "chip": "ym2612"
    },
    {
      "channel": 4,
      "note": 80,
      "start": 2.4431,
      "duration": 0.0161,
      "velocity": 98,
      "chip": "ym2612"
    },
    {
      "channel": 3,
      "note": 85,
      "start": 2.4442,
      "duration": 0.0162,
      "velocity": 98,
      "chip": "ym2612"
    },
    {
      "channel": 2,
      "note": 61,
      "start": 2.4454,
      "duration": 0.0163,
      "velocity": 93,
      "chip": "ym2612"
    },
    {
      "channel": 1,
      "note": 76,
      "start": 2.4466,
      "duration": 0.0163,
      "velocity": 103,
      "chip": "ym2612"
    },
    {
      "channel": 0,
      "note": 40,
      "start": 2.4569,
      "duration": 0.0161,
      "velocity": 115,
      "chip": "ym2612"
    },
    {
      "channel": 5,
      "note": 76,
      "start": 2.458,
      "duration": 0.0161,
      "velocity": 102,
      "chip": "ym2612"
    },
    {
      "channel": 4,
      "note": 80,
      "start": 2.4593,
      "duration": 0.0161,
      "velocity": 98,
      "chip": "ym2612"
    },
    {
      "channel": 3,
      "note": 85,
      "start": 2.4605,
      "duration": 0.0161,
      "velocity": 98,
      "chip": "ym2612"
    },
    {
      "channel": 2,
      "note": 61,
      "start": 2.4617,
      "duration": 0.016,
      "velocity": 93,
      "chip": "ym2612"
    },
    {
      "channel": 1,
      "note": 76,
      "start": 2.4629,
      "duration": 0.016,
      "velocity": 103,
      "chip": "ym2612"
    },
    {
      "channel": 0,
      "note": 40,
      "start": 2.473,
      "duration": 0.0161,
      "velocity": 115,
      "chip": "ym2612"
    },
    {
      "channel": 5,
      "note": 76,
      "start": 2.4741,
      "duration": 0.0161,
      "velocity": 102,
      "chip": "ym2612"
    },
    {
      "channel": 4,
      "note": 80,
      "start": 2.4754,
      "duration": 0.0161,
      "velocity": 98,
      "chip": "ym2612"
    },
    {
      "channel": 3,
      "note": 85,
      "start": 2.4766,
      "duration": 0.0162,
      "velocity": 98,
      "chip": "ym2612"
    },
    {
      "channel": 2,
      "note": 61,
      "start": 2.4778,
      "duration": 0.0161,
      "velocity": 93,
      "chip": "ym2612"
    },
    {
      "channel": 0,
      "note": 41,
      "start": 2.4891,
      "duration": 0.0161,
      "velocity": 115,
      "chip": "ym2612"
    },
    {
      "channel": 5,
      "note": 76,
      "start": 2.4902,
      "duration": 0.0161,
      "velocity": 102,
      "chip": "ym2612"
    },
    {
      "channel": 4,
      "note": 80,
      "start": 2.4915,
      "duration": 0.0161,
      "velocity": 98,
      "chip": "ym2612"
    },
    {
      "channel": 3,
      "note": 85,
      "start": 2.4927,
      "duration": 0.016,
      "velocity": 98,
      "chip": "ym2612"
    },
    {
      "channel": 2,
      "note": 61,
      "start": 2.4939,
      "duration": 0.016,
      "velocity": 93,
      "chip": "ym2612"
    },
    {
      "channel": 0,
      "note": 41,
      "start": 2.5052,
      "duration": 0.0161,
      "velocity": 115,
      "chip": "ym2612"
    },
    {
      "channel": 5,
      "note": 76,
      "start": 2.5064,
      "duration": 0.0161,
      "velocity": 102,
      "chip": "ym2612"
    },
    {
      "channel": 4,
      "note": 80,
      "start": 2.5076,
      "duration": 0.0161,
      "velocity": 98,
      "chip": "ym2612"
    },
    {
      "channel": 3,
      "note": 85,
      "start": 2.5088,
      "duration": 0.0161,
      "velocity": 98,
      "chip": "ym2612"
    },
    {
      "channel": 2,
      "note": 61,
      "start": 2.5099,
      "duration": 0.0161,
      "velocity": 93,
      "chip": "ym2612"
    },
    {
      "channel": 0,
      "note": 42,
      "start": 2.5213,
      "duration": 0.0161,
      "velocity": 115,
      "chip": "ym2612"
    },
    {
      "channel": 5,
      "note": 76,
      "start": 2.5225,
      "duration": 0.0161,
      "velocity": 102,
      "chip": "ym2612"
    },
    {
      "channel": 4,
      "note": 80,
      "start": 2.5237,
      "duration": 0.016,
      "velocity": 98,
      "chip": "ym2612"
    },
    {
      "channel": 3,
      "note": 85,
      "start": 2.5249,
      "duration": 0.0161,
      "velocity": 98,
      "chip": "ym2612"
    },
    {
      "channel": 2,
      "note": 61,
      "start": 2.526,
      "duration": 0.0161,
      "velocity": 93,
      "chip": "ym2612"
    },
    {
      "channel": 0,
      "note": 42,
      "start": 2.5374,
      "duration": 0.0161,
      "velocity": 115,
      "chip": "ym2612"
    },
    {
      "channel": 5,
      "note": 76,
      "start": 2.5386,
      "duration": 0.0161,
      "velocity": 102,
      "chip": "ym2612"
    },
    {
      "channel": 4,
      "note": 80,
      "start": 2.5397,
      "duration": 0.0162,
      "velocity": 98,
      "chip": "ym2612"
    },
    {
      "channel": 3,
      "note": 85,
      "start": 2.5409,
      "duration": 0.0161,
      "velocity": 98,
      "chip": "ym2612"
    },
    {
      "channel": 2,
      "note": 61,
      "start": 2.5421,
      "duration": 0.0161,
      "velocity": 93,
      "chip": "ym2612"
    },
    {
      "channel": 0,
      "note": 43,
      "start": 2.5535,
      "duration": 0.0165,
      "velocity": 115,
      "chip": "ym2612"
    },
    {
      "channel": 5,
      "note": 76,
      "start": 2.5547,
      "duration": 0.0164,
      "velocity": 102,
      "chip": "ym2612"
    },
    {
      "channel": 4,
      "note": 80,
      "start": 2.5559,
      "duration": 0.0165,
      "velocity": 98,
      "chip": "ym2612"
    },
    {
      "channel": 3,
      "note": 85,
      "start": 2.557,
      "duration": 0.0166,
      "velocity": 98,
      "chip": "ym2612"
    },
    {
      "channel": 2,
      "note": 61,
      "start": 2.5582,
      "duration": 0.0166,
      "velocity": 93,
      "chip": "ym2612"
    },
    {
      "channel": 0,
      "note": 43,
      "start": 2.57,
      "duration": 0.0163,
      "velocity": 115,
      "chip": "ym2612"
    },
    {
      "channel": 4,
      "note": 80,
      "start": 2.5724,
      "duration": 0.0163,
      "velocity": 98,
      "chip": "ym2612"
    },
    {
      "channel": 3,
      "note": 85,
      "start": 2.5736,
      "duration": 0.0163,
      "velocity": 98,
      "chip": "ym2612"
    },
    {
      "channel": 2,
      "note": 61,
      "start": 2.5748,
      "duration": 0.0164,
      "velocity": 93,
      "chip": "ym2612"
    },
    {
      "channel": 0,
      "note": 44,
      "start": 2.5863,
      "duration": 0.0179,
      "velocity": 124,
      "chip": "ym2612"
    },
    {
      "channel": 2,
      "note": 61,
      "start": 2.5912,
      "duration": 0.0187,
      "velocity": 93,
      "chip": "ym2612"
    },
    {
      "channel": 0,
      "note": 84,
      "start": 2.6042,
      "duration": 0.0142,
      "velocity": 124,
      "chip": "ym2612"
    },
    {
      "channel": 4,
      "note": 80,
      "start": 2.607,
      "duration": 0.014,
      "velocity": 98,
      "chip": "ym2612"
    },
    {
      "channel": 3,
      "note": 85,
      "start": 2.6085,
      "duration": 0.0137,
      "velocity": 98,
      "chip": "ym2612"
    },
    {
      "channel": 2,
      "note": 56,
      "start": 2.6099,
      "duration": 0.0136,
      "velocity": 93,
      "chip": "ym2612"
    },
    {
      "channel": 1,
      "note": 78,
      "start": 2.6114,
      "duration": 0.0132,
      "velocity": 103,
      "chip": "ym2612"
    },
    {
      "channel": 0,
      "note": 82,
      "start": 2.6185,
      "duration": 0.0155,
      "velocity": 124,
      "chip": "ym2612"
    },
    {
      "channel": 4,
      "note": 80,
      "start": 2.621,
      "duration": 0.016,
      "velocity": 98,
      "chip": "ym2612"
    },
    {
      "channel": 3,
      "note": 85,
      "start": 2.6222,
      "duration": 0.0159,
      "velocity": 98,
      "chip": "ym2612"
    },
    {
      "channel": 2,
      "note": 56,
      "start": 2.6234,
      "duration": 0.0158,
      "velocity": 93,
      "chip": "ym2612"
    },
    {
      "channel": 1,
      "note": 78,
      "start": 2.6246,
      "duration": 0.0158,
      "velocity": 103,
      "chip": "ym2612"
    },
    {
      "channel": 0,
      "note": 80,
      "start": 2.634,
      "duration": 0.0161,
      "velocity": 124,
      "chip": "ym2612"
    },
    {
      "channel": 4,
      "note": 80,
      "start": 2.637,
      "duration": 0.0161,
      "velocity": 98,
      "chip": "ym2612"
    },
    {
      "channel": 3,
      "note": 85,
      "start": 2.6381,
      "duration": 0.0161,
      "velocity": 98,
      "chip": "ym2612"
    },
    {
      "channel": 2,
      "note": 56,
      "start": 2.6393,
      "duration": 0.0161,
      "velocity": 93,
      "chip": "ym2612"
    },
    {
      "channel": 1,
      "note": 78,
      "start": 2.6404,
      "duration": 0.0161,
      "velocity": 103,
      "chip": "ym2612"
    },
    {
      "channel": 0,
      "note": 77,
      "start": 2.6501,
      "duration": 0.0161,
      "velocity": 124,
      "chip": "ym2612"
    },
    {
      "channel": 4,
      "note": 80,
      "start": 2.6531,
      "duration": 0.0162,
      "velocity": 98,
      "chip": "ym2612"
    },
    {
      "channel": 3,
      "note": 85,
      "start": 2.6542,
      "duration": 0.0161,
      "velocity": 98,
      "chip": "ym2612"
    },
    {
      "channel": 2,
      "note": 56,
      "start": 2.6554,
      "duration": 0.0162,
      "velocity": 93,
      "chip": "ym2612"
    },
    {
      "channel": 1,
      "note": 78,
      "start": 2.6565,
      "duration": 0.0161,
      "velocity": 103,
      "chip": "ym2612"
    },
    {
      "channel": 0,
      "note": 75,
      "start": 2.6662,
      "duration": 0.0161,
      "velocity": 124,
      "chip": "ym2612"
    },
    {
      "channel": 4,
      "note": 80,
      "start": 2.6693,
      "duration": 0.016,
      "velocity": 98,
      "chip": "ym2612"
    },
    {
      "channel": 3,
      "note": 85,
      "start": 2.6704,
      "duration": 0.0161,
      "velocity": 98,
      "chip": "ym2612"
    },
    {
      "channel": 2,
      "note": 56,
      "start": 2.6715,
      "duration": 0.0161,
      "velocity": 93,
      "chip": "ym2612"
    },
    {
      "channel": 1,
      "note": 78,
      "start": 2.6727,
      "duration": 0.0161,
      "velocity": 103,
      "chip": "ym2612"
    },
    {
      "channel": 0,
      "note": 72,
      "start": 2.6823,
      "duration": 0.0161,
      "velocity": 124,
      "chip": "ym2612"
    },
    {
      "channel": 4,
      "note": 80,
      "start": 2.6853,
      "duration": 0.0163,
      "velocity": 98,
      "chip": "ym2612"
    },
    {
      "channel": 3,
      "note": 85,
      "start": 2.6865,
      "duration": 0.0163,
      "velocity": 98,
      "chip": "ym2612"
    },
    {
      "channel": 2,
      "note": 56,
      "start": 2.6876,
      "duration": 0.0163,
      "velocity": 93,
      "chip": "ym2612"
    },
    {
      "channel": 1,
      "note": 78,
      "start": 2.6888,
      "duration": 0.0163,
      "velocity": 103,
      "chip": "ym2612"
    },
    {
      "channel": 0,
      "note": 70,
      "start": 2.6984,
      "duration": 0.0161,
      "velocity": 124,
      "chip": "ym2612"
    },
    {
      "channel": 5,
      "note": 78,
      "start": 2.6999,
      "duration": 0.0158,
      "velocity": 102,
      "chip": "ym2612"
    },
    {
      "channel": 4,
      "note": 80,
      "start": 2.7016,
      "duration": 0.0153,
      "velocity": 98,
      "chip": "ym2612"
    },
    {
      "channel": 3,
      "note": 85,
      "start": 2.7028,
      "duration": 0.0157,
      "velocity": 98,
      "chip": "ym2612"
    },
    {
      "channel": 2,
      "note": 56,
      "start": 2.704,
      "duration": 0.0158,
      "velocity": 93,
      "chip": "ym2612"
    },
    {
      "channel": 1,
      "note": 78,
      "start": 2.7051,
      "duration": 0.0158,
      "velocity": 103,
      "chip": "ym2612"
    },
    {
      "channel": 0,
      "note": 68,
      "start": 2.7145,
      "duration": 0.0161,
      "velocity": 124,
      "chip": "ym2612"
    },
    {
      "channel": 5,
      "note": 78,
      "start": 2.7157,
      "duration": 0.016,
      "velocity": 102,
      "chip": "ym2612"
    },
    {
      "channel": 4,
      "note": 80,
      "start": 2.7169,
      "duration": 0.016,
      "velocity": 98,
      "chip": "ym2612"
    },
    {
      "channel": 3,
      "note": 85,
      "start": 2.7185,
      "duration": 0.0157,
      "velocity": 98,
      "chip": "ym2612"
    },
    {
      "channel": 2,
      "note": 56,
      "start": 2.7198,
      "duration": 0.016,
      "velocity": 93,
      "chip": "ym2612"
    },
    {
      "channel": 1,
      "note": 78,
      "start": 2.721,
      "duration": 0.016,
      "velocity": 103,
      "chip": "ym2612"
    },
    {
      "channel": 0,
      "note": 65,
      "start": 2.7306,
      "duration": 0.0162,
      "velocity": 124,
      "chip": "ym2612"
    },
    {
      "channel": 5,
      "note": 78,
      "start": 2.7318,
      "duration": 0.0161,
      "velocity": 102,
      "chip": "ym2612"
    },
    {
      "channel": 4,
      "note": 80,
      "start": 2.7329,
      "duration": 0.0161,
      "velocity": 98,
      "chip": "ym2612"
    },
    {
      "channel": 3,
      "note": 85,
      "start": 2.7343,
      "duration": 0.016,
      "velocity": 98,
      "chip": "ym2612"
    },
    {
      "channel": 2,
      "note": 56,
      "start": 2.7358,
      "duration": 0.0163,
      "velocity": 93,
      "chip": "ym2612"
    },
    {
      "channel": 1,
      "note": 78,
      "start": 2.737,
      "duration": 0.0164,
      "velocity": 103,
      "chip": "ym2612"
    },
    {
      "channel": 0,
      "note": 63,
      "start": 2.7467,
      "duration": 0.0153,
      "velocity": 1,
      "chip": "ym2612"
    },
    {
      "channel": 5,
      "note": 78,
      "start": 2.7479,
      "duration": 0.0153,
      "velocity": 102,
      "chip": "ym2612"
    },
    {
      "channel": 4,
      "note": 80,
      "start": 2.7491,
      "duration": 0.0153,
      "velocity": 98,
      "chip": "ym2612"
    },
    {
      "channel": 3,
      "note": 85,
      "start": 2.7503,
      "duration": 0.0153,
      "velocity": 98,
      "chip": "ym2612"
    },
    {
      "channel": 2,
      "note": 56,
      "start": 2.7521,
      "duration": 0.0147,
      "velocity": 93,
      "chip": "ym2612"
    },
    {
      "channel": 1,
      "note": 78,
      "start": 2.7534,
      "duration": 0.0151,
      "velocity": 103,
      "chip": "ym2612"
    },
    {
      "channel": 5,
      "note": 78,
      "start": 2.7631,
      "duration": 0.0153,
      "velocity": 102,
      "chip": "ym2612"
    },
    {
      "channel": 4,
      "note": 80,
      "start": 2.7644,
      "duration": 0.0153,
      "velocity": 98,
      "chip": "ym2612"
    },
    {
      "channel": 3,
      "note": 85,
      "start": 2.7656,
      "duration": 0.0153,
      "velocity": 98,
      "chip": "ym2612"
    },
    {
      "channel": 2,
      "note": 56,
      "start": 2.7668,
      "duration": 0.0153,
      "velocity": 93,
      "chip": "ym2612"
    },
    {
      "channel": 5,
      "note": 78,
      "start": 2.7784,
      "duration": 0.0161,
      "velocity": 102,
      "chip": "ym2612"
    },
    {
      "channel": 4,
      "note": 80,
      "start": 2.7796,
      "duration": 0.016,
      "velocity": 98,
      "chip": "ym2612"
    },
    {
      "channel": 3,
      "note": 85,
      "start": 2.7808,
      "duration": 0.016,
      "velocity": 98,
      "chip": "ym2612"
    },
    {
      "channel": 2,
      "note": 56,
      "start": 2.782,
      "duration": 0.0159,
      "velocity": 93,
      "chip": "ym2612"
    },
    {
      "channel": 5,
      "note": 78,
      "start": 2.7945,
      "duration": 0.0161,
      "velocity": 102,
      "chip": "ym2612"
    },
    {
      "channel": 4,
      "note": 80,
      "start": 2.7956,
      "duration": 0.0161,
      "velocity": 98,
      "chip": "ym2612"
    },
    {
      "channel": 3,
      "note": 85,
      "start": 2.7968,
      "duration": 0.0161,
      "velocity": 98,
      "chip": "ym2612"
    },
    {
      "channel": 2,
      "note": 56,
      "start": 2.7979,
      "duration": 0.0162,
      "velocity": 93,
      "chip": "ym2612"
    },
    {
      "channel": 1,
      "note": 76,
      "start": 2.7994,
      "duration": 0.0159,
      "velocity": 103,
      "chip": "ym2612"
    },
    {
      "channel": 5,
      "note": 78,
      "start": 2.8106,
      "duration": 0.0161,
      "velocity": 102,
      "chip": "ym2612"
    },
    {
      "channel": 4,
      "note": 80,
      "start": 2.8117,
      "duration": 0.0161,
      "velocity": 98,
      "chip": "ym2612"
    },
    {
      "channel": 3,
      "note": 85,
      "start": 2.8129,
      "duration": 0.0161,
      "velocity": 98,
      "chip": "ym2612"
    },
    {
      "channel": 2,
      "note": 56,
      "start": 2.8141,
      "duration": 0.0161,
      "velocity": 93,
      "chip": "ym2612"
    },
    {
      "channel": 1,
      "note": 76,
      "start": 2.8153,
      "duration": 0.016,
      "velocity": 103,
      "chip": "ym2612"
    },
    {
      "channel": 5,
      "note": 78,
      "start": 2.8267,
      "duration": 0.0162,
      "velocity": 102,
      "chip": "ym2612"
    },
    {
      "channel": 4,
      "note": 80,
      "start": 2.8278,
      "duration": 0.0162,
      "velocity": 98,
      "chip": "ym2612"
    },
    {
      "channel": 3,
      "note": 85,
      "start": 2.829,
      "duration": 0.0162,
      "velocity": 98,
      "chip": "ym2612"
    },
    {
      "channel": 2,
      "note": 56,
      "start": 2.8302,
      "duration": 0.0162,
      "velocity": 93,
      "chip": "ym2612"
    },
    {
      "channel": 1,
      "note": 76,
      "start": 2.8313,
      "duration": 0.0161,
      "velocity": 103,
      "chip": "ym2612"
    },
    {
      "channel": 5,
      "note": 78,
      "start": 2.8429,
      "duration": 0.0161,
      "velocity": 102,
      "chip": "ym2612"
    },
    {
      "channel": 4,
      "note": 80,
      "start": 2.844,
      "duration": 0.0162,
      "velocity": 98,
      "chip": "ym2612"
    },
    {
      "channel": 3,
      "note": 85,
      "start": 2.8452,
      "duration": 0.0162,
      "velocity": 98,
      "chip": "ym2612"
    },
    {
      "channel": 2,
      "note": 56,
      "start": 2.8463,
      "duration": 0.0163,
      "velocity": 93,
      "chip": "ym2612"
    },
    {
      "channel": 1,
      "note": 76,
      "start": 2.8475,
      "duration": 0.0163,
      "velocity": 103,
      "chip": "ym2612"
    },
    {
      "channel": 4,
      "note": 80,
      "start": 2.8602,
      "duration": 0.016,
      "velocity": 98,
      "chip": "ym2612"
    },
    {
      "channel": 3,
      "note": 85,
      "start": 2.8614,
      "duration": 0.016,
      "velocity": 98,
      "chip": "ym2612"
    },
    {
      "channel": 2,
      "note": 56,
      "start": 2.8626,
      "duration": 0.0161,
      "velocity": 93,
      "chip": "ym2612"
    },
    {
      "channel": 2,
      "note": 56,
      "start": 2.8787,
      "duration": 0.0207,
      "velocity": 93,
      "chip": "ym2612"
    },
    {
      "channel": 0,
      "note": 36,
      "start": 2.8935,
      "duration": 0.0143,
      "velocity": 115,
      "chip": "ym2612"
    },
    {
      "channel": 5,
      "note": 76,
      "start": 2.8949,
      "duration": 0.0141,
      "velocity": 102,
      "chip": "ym2612"
    },
    {
      "channel": 4,
      "note": 80,
      "start": 2.8965,
      "duration": 0.0137,
      "velocity": 98,
      "chip": "ym2612"
    },
    {
      "channel": 3,
      "note": 85,
      "start": 2.898,
      "duration": 0.0134,
      "velocity": 98,
      "chip": "ym2612"
    },
    {
      "channel": 2,
      "note": 61,
      "start": 2.8995,
      "duration": 0.0132,
      "velocity": 93,
      "chip": "ym2612"
    },
    {
      "channel": 1,
      "note": 80,
      "start": 2.9012,
      "duration": 0.0127,
      "velocity": 103,
      "chip": "ym2612"
    },
    {
      "channel": 0,
      "note": 36,
      "start": 2.9078,
      "duration": 0.016,
      "velocity": 115,
      "chip": "ym2612"
    },
    {
      "channel": 5,
      "note": 76,
      "start": 2.909,
      "duration": 0.016,
      "velocity": 102,
      "chip": "ym2612"
    },
    {
      "channel": 4,
      "note": 80,
      "start": 2.9102,
      "duration": 0.0159,
      "velocity": 98,
      "chip": "ym2612"
    },
    {
      "channel": 3,
      "note": 85,
      "start": 2.9114,
      "duration": 0.0158,
      "velocity": 98,
      "chip": "ym2612"
    },
    {
      "channel": 2,
      "note": 61,
      "start": 2.9126,
      "duration": 0.0159,
      "velocity": 93,
      "chip": "ym2612"
    },
    {
      "channel": 1,
      "note": 80,
      "start": 2.9138,
      "duration": 0.0158,
      "velocity": 103,
      "chip": "ym2612"
    },
    {
      "channel": 0,
      "note": 37,
      "start": 2.9238,
      "duration": 0.0161,
      "velocity": 115,
      "chip": "ym2612"
    },
    {
      "channel": 5,
      "note": 76,
      "start": 2.925,
      "duration": 0.0161,
      "velocity": 102,
      "chip": "ym2612"
    },
    {
      "channel": 4,
      "note": 80,
      "start": 2.9261,
      "duration": 0.0161,
      "velocity": 98,
      "chip": "ym2612"
    },
    {
      "channel": 3,
      "note": 85,
      "start": 2.9273,
      "duration": 0.0162,
      "velocity": 98,
      "chip": "ym2612"
    },
    {
      "channel": 2,
      "note": 61,
      "start": 2.9285,
      "duration": 0.0161,
      "velocity": 93,
      "chip": "ym2612"
    },
    {
      "channel": 1,
      "note": 80,
      "start": 2.9296,
      "duration": 0.0161,
      "velocity": 103,
      "chip": "ym2612"
    },
    {
      "channel": 0,
      "note": 37,
      "start": 2.9399,
      "duration": 0.0161,
      "velocity": 115,
      "chip": "ym2612"
    },
    {
      "channel": 5,
      "note": 76,
      "start": 2.9411,
      "duration": 0.0161,
      "velocity": 102,
      "chip": "ym2612"
    },
    {
      "channel": 4,
      "note": 80,
      "start": 2.9422,
      "duration": 0.0162,
      "velocity": 98,
      "chip": "ym2612"
    },
    {
      "channel": 3,
      "note": 85,
      "start": 2.9434,
      "duration": 0.0161,
      "velocity": 98,
      "chip": "ym2612"
    },
    {
      "channel": 2,
      "note": 61,
      "start": 2.9446,
      "duration": 0.0161,
      "velocity": 93,
      "chip": "ym2612"
    },
    {
      "channel": 1,
      "note": 80,
      "start": 2.9457,
      "duration": 0.0161,
      "velocity": 103,
      "chip": "ym2612"
    },
    {
      "channel": 0,
      "note": 38,
      "start": 2.956,
      "duration": 0.0161,
      "velocity": 115,
      "chip": "ym2612"
    },
    {
      "channel": 4,
      "note": 80,
      "start": 2.9584,
      "duration": 0.0161,
      "velocity": 98,
      "chip": "ym2612"
    },
    {
      "channel": 3,
      "note": 85,
      "start": 2.9595,
      "duration": 0.0161,
      "velocity": 98,
      "chip": "ym2612"
    },
    {
      "channel": 2,
      "note": 61,
      "start": 2.9607,
      "duration": 0.0161,
      "velocity": 93,
      "chip": "ym2612"
    },
    {
      "channel": 1,
      "note": 80,
      "start": 2.9618,
      "duration": 0.0161,
      "velocity": 103,
      "chip": "ym2612"
    },
    {
      "channel": 0,
      "note": 38,
      "start": 2.9721,
      "duration": 0.0161,
      "velocity": 115,
      "chip": "ym2612"
    },
    {
      "channel": 4,
      "note": 80,
      "start": 2.9745,
      "duration": 0.0164,
      "velocity": 98,
      "chip": "ym2612"
    },
    {
      "channel": 3,
      "note": 85,
      "start": 2.9756,
      "duration": 0.0164,
      "velocity": 98,
      "chip": "ym2612"
    },
    {
      "channel": 2,
      "note": 61,
      "start": 2.9768,
      "duration": 0.0164,
      "velocity": 93,
      "chip": "ym2612"
    },
    {
      "channel": 1,
      "note": 80,
      "start": 2.9779,
      "duration": 0.0165,
      "velocity": 103,
      "chip": "ym2612"
    },
    {
      "channel": 0,
      "note": 39,
      "start": 2.9882,
      "duration": 0.0161,
      "velocity": 115,
      "chip": "ym2612"
    },
    {
      "channel": 5,
      "note": 80,
      "start": 2.9897,
      "duration": 0.0159,
      "velocity": 102,
      "chip": "ym2612"
    },
    {
      "channel": 4,
      "note": 80,
      "start": 2.9909,
      "duration": 0.0158,
      "velocity": 98,
      "chip": "ym2612"
    },
    {
      "channel": 3,
      "note": 85,
      "start": 2.992,
      "duration": 0.0159,
      "velocity": 98,
      "chip": "ym2612"
    },
    {
      "channel": 2,
      "note": 61,
      "start": 2.9932,
      "duration": 0.0158,
      "velocity": 93,
      "chip": "ym2612"
    },
    {
      "channel": 1,
      "note": 80,
      "start": 2.9944,
      "duration": 0.0158,
      "velocity": 103,
      "chip": "ym2612"
    },
    {
      "channel": 0,
      "note": 39,
      "start": 3.0044,
      "duration": 0.0161,
      "velocity": 115,
      "chip": "ym2612"
    },
    {
      "channel": 5,
      "note": 80,
      "start": 3.0056,
      "duration": 0.0161,
      "velocity": 102,
      "chip": "ym2612"
    },
    {
      "channel": 4,
      "note": 80,
      "start": 3.0067,
      "duration": 0.0161,
      "velocity": 98,
      "chip": "ym2612"
    },
    {
      "channel": 3,
      "note": 85,
      "start": 3.0079,
      "duration": 0.0161,
      "velocity": 98,
      "chip": "ym2612"
    },
    {
      "channel": 2,
      "note": 61,
      "start": 3.009,
      "duration": 0.0161,
      "velocity": 93,
      "chip": "ym2612"
    },
    {
      "channel": 1,
      "note": 80,
      "start": 3.0102,
      "duration": 0.0161,
      "velocity": 103,
      "chip": "ym2612"
    },
    {
      "channel": 0,
      "note": 40,
      "start": 3.0205,
      "duration": 0.0165,
      "velocity": 115,
      "chip": "ym2612"
    },
    {
      "channel": 5,
      "note": 80,
      "start": 3.0217,
      "duration": 0.0164,
      "velocity": 102,
      "chip": "ym2612"
    },
    {
      "channel": 4,
      "note": 80,
      "start": 3.0228,
      "duration": 0.0165,
      "velocity": 98,
      "chip": "ym2612"
    },
    {
      "channel": 3,
      "note": 85,
      "start": 3.0239,
      "duration": 0.0166,
      "velocity": 98,
      "chip": "ym2612"
    },
    {
      "channel": 2,
      "note": 61,
      "start": 3.0251,
      "duration": 0.0167,
      "velocity": 93,
      "chip": "ym2612"
    },
    {
      "channel": 1,
      "note": 80,
      "start": 3.0262,
      "duration": 0.0167,
      "velocity": 103,
      "chip": "ym2612"
    },
    {
      "channel": 0,
      "note": 40,
      "start": 3.0369,
      "duration": 0.0163,
      "velocity": 115,
      "chip": "ym2612"
    },
    {
      "channel": 5,
      "note": 80,
      "start": 3.0381,
      "duration": 0.0163,
      "velocity": 102,
      "chip": "ym2612"
    },
    {
      "channel": 4,
      "note": 80,
      "start": 3.0393,
      "duration": 0.0163,
      "velocity": 98,
      "chip": "ym2612"
    },
    {
      "channel": 3,
      "note": 85,
      "start": 3.0406,
      "duration": 0.0162,
      "velocity": 98,
      "chip": "ym2612"
    },
    {
      "channel": 2,
      "note": 61,
      "start": 3.0418,
      "duration": 0.0162,
      "velocity": 93,
      "chip": "ym2612"
    },
    {
      "channel": 1,
      "note": 80,
      "start": 3.0429,
      "duration": 0.0162,
      "velocity": 103,
      "chip": "ym2612"
    },
    {
      "channel": 0,
      "note": 40,
      "start": 3.0532,
      "duration": 0.0161,
      "velocity": 115,
      "chip": "ym2612"
    },
    {
      "channel": 5,
      "note": 80,
      "start": 3.0544,
      "duration": 0.0161,
      "velocity": 102,
      "chip": "ym2612"
    },
    {
      "channel": 4,
      "note": 80,
      "start": 3.0556,
      "duration": 0.0161,
      "velocity": 98,
      "chip": "ym2612"
    },
    {
      "channel": 3,
      "note": 85,
      "start": 3.0568,
      "duration": 0.0161,
      "velocity": 98,
      "chip": "ym2612"
    },
    {
      "channel": 2,
      "note": 61,
      "start": 3.058,
      "duration": 0.0162,
      "velocity": 93,
      "chip": "ym2612"
    },
    {
      "channel": 1,
      "note": 80,
      "start": 3.0591,
      "duration": 0.0161,
      "velocity": 103,
      "chip": "ym2612"
    },
    {
      "channel": 0,
      "note": 41,
      "start": 3.0693,
      "duration": 0.0179,
      "velocity": 115,
      "chip": "ym2612"
    },
    {
      "channel": 5,
      "note": 80,
      "start": 3.0705,
      "duration": 0.018,
      "velocity": 102,
      "chip": "ym2612"
    },
    {
      "channel": 4,
      "note": 80,
      "start": 3.0717,
      "duration": 0.0179,
      "velocity": 98,
      "chip": "ym2612"
    },
    {
      "channel": 3,
      "note": 85,
      "start": 3.0729,
      "duration": 0.0178,
      "velocity": 98,
      "chip": "ym2612"
    },
    {
      "channel": 2,
      "note": 61,
      "start": 3.0741,
      "duration": 0.0177,
      "velocity": 93,
      "chip": "ym2612"
    },
    {
      "channel": 1,
      "note": 80,
      "start": 3.0753,
      "duration": 0.0178,
      "velocity": 103,
      "chip": "ym2612"
    },
    {
      "channel": 0,
      "note": 36,
      "start": 3.0873,
      "duration": 0.0139,
      "velocity": 115,
      "chip": "ym2612"
    },
    {
      "channel": 5,
      "note": 80,
      "start": 3.0885,
      "duration": 0.0142,
      "velocity": 102,
      "chip": "ym2612"
    },
    {
      "channel": 4,
      "note": 80,
      "start": 3.0896,
      "duration": 0.0143,
      "velocity": 98,
      "chip": "ym2612"
    },
    {
      "channel": 3,
      "note": 85,
      "start": 3.0907,
      "duration": 0.0143,
      "velocity": 98,
      "chip": "ym2612"
    },
    {
      "channel": 2,
      "note": 61,
      "start": 3.0919,
      "duration": 0.0143,
      "velocity": 93,
      "chip": "ym2612"
    },
    {
      "channel": 1,
      "note": 80,
      "start": 3.093,
      "duration": 0.0143,
      "velocity": 103,
      "chip": "ym2612"
    },
    {
      "channel": 0,
      "note": 36,
      "start": 3.1012,
      "duration": 0.0159,
      "velocity": 115,
      "chip": "ym2612"
    },
    {
      "channel": 5,
      "note": 80,
      "start": 3.1027,
      "duration": 0.016,
      "velocity": 102,
      "chip": "ym2612"
    },
    {
      "channel": 4,
      "note": 80,
      "start": 3.1039,
      "duration": 0.016,
      "velocity": 98,
      "chip": "ym2612"
    },
    {
      "channel": 3,
      "note": 85,
      "start": 3.1051,
      "duration": 0.016,
      "velocity": 98,
      "chip": "ym2612"
    },
    {
      "channel": 2,
      "note": 61,
      "start": 3.1062,
      "duration": 0.0161,
      "velocity": 93,
      "chip": "ym2612"
    },
    {
      "channel": 1,
      "note": 80,
      "start": 3.1073,
      "duration": 0.0161,
      "velocity": 103,
      "chip": "ym2612"
    },
    {
      "channel": 0,
      "note": 37,
      "start": 3.117,
      "duration": 0.0161,
      "velocity": 115,
      "chip": "ym2612"
    },
    {
      "channel": 5,
      "note": 80,
      "start": 3.1187,
      "duration": 0.0158,
      "velocity": 102,
      "chip": "ym2612"
    },
    {
      "channel": 4,
      "note": 80,
      "start": 3.12,
      "duration": 0.0161,
      "velocity": 98,
      "chip": "ym2612"
    },
    {
      "channel": 3,
      "note": 85,
      "start": 3.1211,
      "duration": 0.0161,
      "velocity": 98,
      "chip": "ym2612"
    },
    {
      "channel": 2,
      "note": 61,
      "start": 3.1223,
      "duration": 0.016,
      "velocity": 93,
      "chip": "ym2612"
    },
    {
      "channel": 1,
      "note": 80,
      "start": 3.1234,
      "duration": 0.0161,
      "velocity": 103,
      "chip": "ym2612"
    },
    {
      "channel": 0,
      "note": 37,
      "start": 3.1331,
      "duration": 0.0161,
      "velocity": 115,
      "chip": "ym2612"
    },
    {
      "channel": 5,
      "note": 80,
      "start": 3.1345,
      "duration": 0.0159,
      "velocity": 102,
      "chip": "ym2612"
    },
    {
      "channel": 4,
      "note": 80,
      "start": 3.136,
      "duration": 0.0161,
      "velocity": 98,
      "chip": "ym2612"
    },
    {
      "channel": 3,
      "note": 85,
      "start": 3.1372,
      "duration": 0.0162,
      "velocity": 98,
      "chip": "ym2612"
    },
    {
      "channel": 2,
      "note": 61,
      "start": 3.1383,
      "duration": 0.0163,
      "velocity": 93,
      "chip": "ym2612"
    },
    {
      "channel": 1,
      "note": 80,
      "start": 3.1396,
      "duration": 0.0162,
      "velocity": 103,
      "chip": "ym2612"
    },
    {
      "channel": 0,
      "note": 38,
      "start": 3.1492,
      "duration": 0.0161,
      "velocity": 115,
      "chip": "ym2612"
    },
    {
      "channel": 5,
      "note": 80,
      "start": 3.1504,
      "duration": 0.0161,
      "velocity": 102,
      "chip": "ym2612"
    },
    {
      "channel": 4,
      "note": 80,
      "start": 3.1521,
      "duration": 0.0162,
      "velocity": 98,
      "chip": "ym2612"
    },
    {
      "channel": 3,
      "note": 85,
      "start": 3.1534,
      "duration": 0.0162,
      "velocity": 98,
      "chip": "ym2612"
    },
    {
      "channel": 2,
      "note": 61,
      "start": 3.1546,
      "duration": 0.0162,
      "velocity": 93,
      "chip": "ym2612"
    },
    {
      "channel": 0,
      "note": 38,
      "start": 3.1653,
      "duration": 0.0179,
      "velocity": 124,
      "chip": "ym2612"
    },
    {
      "channel": 5,
      "note": 80,
      "start": 3.1665,
      "duration": 0.0185,
      "velocity": 102,
      "chip": "ym2612"
    },
    {
      "channel": 2,
      "note": 61,
      "start": 3.1708,
      "duration": 0.0188,
      "velocity": 93,
      "chip": "ym2612"
    },
    {
      "channel": 0,
      "note": 84,
      "start": 3.1833,
      "duration": 0.0143,
      "velocity": 124,
      "chip": "ym2612"
    },
    {
      "channel": 5,
      "note": 80,
      "start": 3.185,
      "duration": 0.0138,
      "velocity": 102,
      "chip": "ym2612"
    },
    {
      "channel": 4,
      "note": 80,
      "start": 3.1866,
      "duration": 0.0134,
      "velocity": 98,
      "chip": "ym2612"
    },
    {
      "channel": 3,
      "note": 85,
      "start": 3.1881,
      "duration": 0.0135,
      "velocity": 98,
      "chip": "ym2612"
    },
    {
      "channel": 2,
      "note": 61,
      "start": 3.1897,
      "duration": 0.0133,
      "velocity": 93,
      "chip": "ym2612"
    },
    {
      "channel": 1,
      "note": 78,
      "start": 3.1911,
      "duration": 0.0131,
      "velocity": 103,
      "chip": "ym2612"
    },
    {
      "channel": 0,
      "note": 82,
      "start": 3.1976,
      "duration": 0.016,
      "velocity": 124,
      "chip": "ym2612"
    },
    {
      "channel": 5,
      "note": 80,
      "start": 3.1988,
      "duration": 0.016,
      "velocity": 102,
      "chip": "ym2612"
    },
    {
      "channel": 4,
      "note": 80,
      "start": 3.2,
      "duration": 0.016,
      "velocity": 98,
      "chip": "ym2612"
    },
    {
      "channel": 3,
      "note": 85,
      "start": 3.2017,
      "duration": 0.0155,
      "velocity": 98,
      "chip": "ym2612"
    },
    {
      "channel": 2,
      "note": 61,
      "start": 3.203,
      "duration": 0.0158,
      "velocity": 93,
      "chip": "ym2612"
    },
    {
      "channel": 1,
      "note": 78,
      "start": 3.2042,
      "duration": 0.0158,
      "velocity": 103,
      "chip": "ym2612"
    },
    {
      "channel": 0,
      "note": 80,
      "start": 3.2137,
      "duration": 0.0161,
      "velocity": 124,
      "chip": "ym2612"
    },
    {
      "channel": 5,
      "note": 80,
      "start": 3.2148,
      "duration": 0.0162,
      "velocity": 102,
      "chip": "ym2612"
    },
    {
      "channel": 4,
      "note": 80,
      "start": 3.2159,
      "duration": 0.0161,
      "velocity": 98,
      "chip": "ym2612"
    },
    {
      "channel": 3,
      "note": 85,
      "start": 3.2171,
      "duration": 0.0162,
      "velocity": 98,
      "chip": "ym2612"
    },
    {
      "channel": 2,
      "note": 61,
      "start": 3.2188,
      "duration": 0.0162,
      "velocity": 93,
      "chip": "ym2612"
    },
    {
      "channel": 1,
      "note": 78,
      "start": 3.22,
      "duration": 0.0162,
      "velocity": 103,
      "chip": "ym2612"
    },
    {
      "channel": 0,
      "note": 77,
      "start": 3.2298,
      "duration": 0.0161,
      "velocity": 124,
      "chip": "ym2612"
    },
    {
      "channel": 5,
      "note": 80,
      "start": 3.231,
      "duration": 0.0161,
      "velocity": 102,
      "chip": "ym2612"
    },
    {
      "channel": 4,
      "note": 80,
      "start": 3.2321,
      "duration": 0.0162,
      "velocity": 98,
      "chip": "ym2612"
    },
    {
      "channel": 3,
      "note": 85,
      "start": 3.2333,
      "duration": 0.0161,
      "velocity": 98,
      "chip": "ym2612"
    },
    {
      "channel": 2,
      "note": 61,
      "start": 3.235,
      "duration": 0.0156,
      "velocity": 93,
      "chip": "ym2612"
    },
    {
      "channel": 1,
      "note": 78,
      "start": 3.2362,
      "duration": 0.016,
      "velocity": 103,
      "chip": "ym2612"
    },
    {
      "channel": 0,
      "note": 75,
      "start": 3.2458,
      "duration": 0.0161,
      "velocity": 124,
      "chip": "ym2612"
    },
    {
      "channel": 4,
      "note": 80,
      "start": 3.2483,
      "duration": 0.016,
      "velocity": 98,
      "chip": "ym2612"
    },
    {
      "channel": 3,
      "note": 85,
      "start": 3.2494,
      "duration": 0.016,
      "velocity": 98,
      "chip": "ym2612"
    },
    {
      "channel": 2,
      "note": 61,
      "start": 3.2505,
      "duration": 0.016,
      "velocity": 93,
      "chip": "ym2612"
    },
    {
      "channel": 1,
      "note": 78,
      "start": 3.2522,
      "duration": 0.016,
      "velocity": 103,
      "chip": "ym2612"
    },
    {
      "channel": 0,
      "note": 72,
      "start": 3.2619,
      "duration": 0.0161,
      "velocity": 124,
      "chip": "ym2612"
    },
    {
      "channel": 4,
      "note": 80,
      "start": 3.2643,
      "duration": 0.0163,
      "velocity": 98,
      "chip": "ym2612"
    },
    {
      "channel": 3,
      "note": 85,
      "start": 3.2654,
      "duration": 0.0164,
      "velocity": 98,
      "chip": "ym2612"
    },
    {
      "channel": 2,
      "note": 61,
      "start": 3.2666,
      "duration": 0.0164,
      "velocity": 93,
      "chip": "ym2612"
    },
    {
      "channel": 1,
      "note": 78,
      "start": 3.2682,
      "duration": 0.0161,
      "velocity": 103,
      "chip": "ym2612"
    },
    {
      "channel": 0,
      "note": 70,
      "start": 3.278,
      "duration": 0.0161,
      "velocity": 124,
      "chip": "ym2612"
    },
    {
      "channel": 5,
      "note": 78,
      "start": 3.2795,
      "duration": 0.0159,
      "velocity": 102,
      "chip": "ym2612"
    },
    {
      "channel": 4,
      "note": 80,
      "start": 3.2806,
      "duration": 0.0159,
      "velocity": 98,
      "chip": "ym2612"
    },
    {
      "channel": 3,
      "note": 85,
      "start": 3.2818,
      "duration": 0.0159,
      "velocity": 98,
      "chip": "ym2612"
    },
    {
      "channel": 2,
      "note": 61,
      "start": 3.283,
      "duration": 0.0158,
      "velocity": 93,
      "chip": "ym2612"
    },
    {
      "channel": 1,
      "note": 78,
      "start": 3.2843,
      "duration": 0.0156,
      "velocity": 103,
      "chip": "ym2612"
    },
    {
      "channel": 0,
      "note": 68,
      "start": 3.2941,
      "duration": 0.0161,
      "velocity": 124,
      "chip": "ym2612"
    },
    {
      "channel": 5,
      "note": 78,
      "start": 3.2953,
      "duration": 0.016,
      "velocity": 102,
      "chip": "ym2612"
    },
    {
      "channel": 4,
      "note": 80,
      "start": 3.2965,
      "duration": 0.016,
      "velocity": 98,
      "chip": "ym2612"
    },
    {
      "channel": 3,
      "note": 85,
      "start": 3.2977,
      "duration": 0.016,
      "velocity": 98,
      "chip": "ym2612"
    },
    {
      "channel": 2,
      "note": 61,
      "start": 3.2988,
      "duration": 0.016,
      "velocity": 93,
      "chip": "ym2612"
    },
    {
      "channel": 1,
      "note": 78,
      "start": 3.3,
      "duration": 0.016,
      "velocity": 103,
      "chip": "ym2612"
    },
    {
      "channel": 0,
      "note": 65,
      "start": 3.3102,
      "duration": 0.0161,
      "velocity": 124,
      "chip": "ym2612"
    },
    {
      "channel": 5,
      "note": 78,
      "start": 3.3114,
      "duration": 0.0161,
      "velocity": 102,
      "chip": "ym2612"
    },
    {
      "channel": 4,
      "note": 80,
      "start": 3.3126,
      "duration": 0.0161,
      "velocity": 98,
      "chip": "ym2612"
    },
    {
      "channel": 3,
      "note": 85,
      "start": 3.3137,
      "duration": 0.0161,
      "velocity": 98,
      "chip": "ym2612"
    },
    {
      "channel": 2,
      "note": 61,
      "start": 3.3149,
      "duration": 0.0161,
      "velocity": 93,
      "chip": "ym2612"
    },
    {
      "channel": 1,
      "note": 78,
      "start": 3.316,
      "duration": 0.0161,
      "velocity": 103,
      "chip": "ym2612"
    },
    {
      "channel": 0,
      "note": 63,
      "start": 3.3263,
      "duration": 0.0153,
      "velocity": 1,
      "chip": "ym2612"
    },
    {
      "channel": 5,
      "note": 78,
      "start": 3.3275,
      "duration": 0.0153,
      "velocity": 102,
      "chip": "ym2612"
    },
    {
      "channel": 4,
      "note": 80,
      "start": 3.3287,
      "duration": 0.0153,
      "velocity": 98,
      "chip": "ym2612"
    },
    {
      "channel": 3,
      "note": 85,
      "start": 3.3298,
      "duration": 0.0153,
      "velocity": 98,
      "chip": "ym2612"
    },
    {
      "channel": 2,
      "note": 61,
      "start": 3.331,
      "duration": 0.0153,
      "velocity": 93,
      "chip": "ym2612"
    },
    {
      "channel": 1,
      "note": 78,
      "start": 3.3322,
      "duration": 0.0153,
      "velocity": 103,
      "chip": "ym2612"
    },
    {
      "channel": 5,
      "note": 78,
      "start": 3.3428,
      "duration": 0.0153,
      "velocity": 102,
      "chip": "ym2612"
    },
    {
      "channel": 4,
      "note": 80,
      "start": 3.3439,
      "duration": 0.0153,
      "velocity": 98,
      "chip": "ym2612"
    },
    {
      "channel": 3,
      "note": 85,
      "start": 3.3451,
      "duration": 0.0153,
      "velocity": 98,
      "chip": "ym2612"
    },
    {
      "channel": 2,
      "note": 61,
      "start": 3.3462,
      "duration": 0.0153,
      "velocity": 93,
      "chip": "ym2612"
    },
    {
      "channel": 5,
      "note": 78,
      "start": 3.358,
      "duration": 0.0161,
      "velocity": 102,
      "chip": "ym2612"
    },
    {
      "channel": 2,
      "note": 61,
      "start": 3.3615,
      "duration": 0.0171,
      "velocity": 93,
      "chip": "ym2612"
    },
    {
      "channel": 5,
      "note": 78,
      "start": 3.3741,
      "duration": 0.0161,
      "velocity": 102,
      "chip": "ym2612"
    },
    {
      "channel": 4,
      "note": 80,
      "start": 3.3757,
      "duration": 0.0158,
      "velocity": 98,
      "chip": "ym2612"
    },
    {
      "channel": 3,
      "note": 85,
      "start": 3.3773,
      "duration": 0.0154,
      "velocity": 98,
      "chip": "ym2612"
    },
    {
      "channel": 2,
      "note": 61,
      "start": 3.3787,
      "duration": 0.0151,
      "velocity": 93,
      "chip": "ym2612"
    },
    {
      "channel": 1,
      "note": 76,
      "start": 3.3802,
      "duration": 0.0148,
      "velocity": 103,
      "chip": "ym2612"
    },
    {
      "channel": 5,
      "note": 78,
      "start": 3.3902,
      "duration": 0.0161,
      "velocity": 102,
      "chip": "ym2612"
    },
    {
      "channel": 4,
      "note": 80,
      "start": 3.3915,
      "duration": 0.016,
      "velocity": 98,
      "chip": "ym2612"
    },
    {
      "channel": 3,
      "note": 85,
      "start": 3.3927,
      "duration": 0.016,
      "velocity": 98,
      "chip": "ym2612"
    },
    {
      "channel": 2,
      "note": 61,
      "start": 3.3939,
      "duration": 0.0159,
      "velocity": 93,
      "chip": "ym2612"
    },
    {
      "channel": 1,
      "note": 76,
      "start": 3.3951,
      "duration": 0.0159,
      "velocity": 103,
      "chip": "ym2612"
    },
    {
      "channel": 5,
      "note": 78,
      "start": 3.4063,
      "duration": 0.0162,
      "velocity": 102,
      "chip": "ym2612"
    },
    {
      "channel": 4,
      "note": 80,
      "start": 3.4075,
      "duration": 0.0161,
      "velocity": 98,
      "chip": "ym2612"
    },
    {
      "channel": 3,
      "note": 85,
      "start": 3.4086,
      "duration": 0.0162,
      "velocity": 98,
      "chip": "ym2612"
    },
    {
      "channel": 2,
      "note": 61,
      "start": 3.4098,
      "duration": 0.0162,
      "velocity": 93,
      "chip": "ym2612"
    },
    {
      "channel": 1,
      "note": 76,
      "start": 3.411,
      "duration": 0.0162,
      "velocity": 103,
      "chip": "ym2612"
    },
    {
      "channel": 5,
      "note": 78,
      "start": 3.4225,
      "duration": 0.0161,
      "velocity": 102,
      "chip": "ym2612"
    },
    {
      "channel": 4,
      "note": 80,
      "start": 3.4236,
      "duration": 0.0162,
      "velocity": 98,
      "chip": "ym2612"
    },
    {
      "channel": 3,
      "note": 85,
      "start": 3.4249,
      "duration": 0.0161,
      "velocity": 98,
      "chip": "ym2612"
    },
    {
      "channel": 2,
      "note": 61,
      "start": 3.426,
      "duration": 0.0161,
      "velocity": 93,
      "chip": "ym2612"
    },
    {
      "channel": 1,
      "note": 76,
      "start": 3.4271,
      "duration": 0.0161,
      "velocity": 103,
      "chip": "ym2612"
    },
    {
      "channel": 4,
      "note": 80,
      "start": 3.4398,
      "duration": 0.016,
      "velocity": 98,
      "chip": "ym2612"
    },
    {
      "channel": 3,
      "note": 85,
      "start": 3.4409,
      "duration": 0.016,
      "velocity": 98,
      "chip": "ym2612"
    },
    {
      "channel": 2,
      "note": 61,
      "start": 3.4421,
      "duration": 0.016,
      "velocity": 93,
      "chip": "ym2612"
    },
    {
      "channel": 1,
      "note": 76,
      "start": 3.4432,
      "duration": 0.016,
      "velocity": 103,
      "chip": "ym2612"
    },
    {
      "channel": 4,
      "note": 80,
      "start": 3.4558,
      "duration": 0.0201,
      "velocity": 98,
      "chip": "ym2612"
    },
    {
      "channel": 3,
      "note": 85,
      "start": 3.457,
      "duration": 0.0201,
      "velocity": 98,
      "chip": "ym2612"
    },
    {
      "channel": 2,
      "note": 61,
      "start": 3.4581,
      "duration": 0.0202,
      "velocity": 93,
      "chip": "ym2612"
    },
    {
      "channel": 1,
      "note": 76,
      "start": 3.4593,
      "duration": 0.0203,
      "velocity": 103,
      "chip": "ym2612"
    },
    {
      "channel": 0,
      "note": 36,
      "start": 3.4731,
      "duration": 0.0144,
      "velocity": 115,
      "chip": "ym2612"
    },
    {
      "channel": 5,
      "note": 76,
      "start": 3.4746,
      "duration": 0.0141,
      "velocity": 102,
      "chip": "ym2612"
    },
    {
      "channel": 4,
      "note": 80,
      "start": 3.4759,
      "duration": 0.0141,
      "velocity": 98,
      "chip": "ym2612"
    },
    {
      "channel": 3,
      "note": 85,
      "start": 3.4771,
      "duration": 0.0141,
      "velocity": 98,
      "chip": "ym2612"
    },
    {
      "channel": 2,
      "note": 61,
      "start": 3.4783,
      "duration": 0.0141,
      "velocity": 93,
      "chip": "ym2612"
    },
    {
      "channel": 1,
      "note": 76,
      "start": 3.4795,
      "duration": 0.0139,
      "velocity": 103,
      "chip": "ym2612"
    },
    {
      "channel": 0,
      "note": 36,
      "start": 3.4875,
      "duration": 0.0161,
      "velocity": 115,
      "chip": "ym2612"
    },
    {
      "channel": 5,
      "note": 76,
      "start": 3.4887,
      "duration": 0.0161,
      "velocity": 102,
      "chip": "ym2612"
    },
    {
      "channel": 4,
      "note": 80,
      "start": 3.4899,
      "duration": 0.0162,
      "velocity": 98,
      "chip": "ym2612"
    },
    {
      "channel": 3,
      "note": 85,
      "start": 3.4911,
      "duration": 0.0161,
      "velocity": 98,
      "chip": "ym2612"
    },
    {
      "channel": 2,
      "note": 61,
      "start": 3.4923,
      "duration": 0.0162,
      "velocity": 93,
      "chip": "ym2612"
    },
    {
      "channel": 1,
      "note": 76,
      "start": 3.4935,
      "duration": 0.0162,
      "velocity": 103,
      "chip": "ym2612"
    },
    {
      "channel": 0,
      "note": 37,
      "start": 3.5037,
      "duration": 0.0163,
      "velocity": 115,
      "chip": "ym2612"
    },
    {
      "channel": 5,
      "note": 76,
      "start": 3.5048,
      "duration": 0.0163,
      "velocity": 102,
      "chip": "ym2612"
    },
    {
      "channel": 4,
      "note": 80,
      "start": 3.5061,
      "duration": 0.0162,
      "velocity": 98,
      "chip": "ym2612"
    },
    {
      "channel": 3,
      "note": 85,
      "start": 3.5073,
      "duration": 0.0162,
      "velocity": 98,
      "chip": "ym2612"
    },
    {
      "channel": 2,
      "note": 61,
      "start": 3.5085,
      "duration": 0.0161,
      "velocity": 93,
      "chip": "ym2612"
    },
    {
      "channel": 1,
      "note": 76,
      "start": 3.5097,
      "duration": 0.0161,
      "velocity": 103,
      "chip": "ym2612"
    },
    {
      "channel": 0,
      "note": 37,
      "start": 3.52,
      "duration": 0.0162,
      "velocity": 115,
      "chip": "ym2612"
    },
    {
      "channel": 5,
      "note": 76,
      "start": 3.5212,
      "duration": 0.0162,
      "velocity": 102,
      "chip": "ym2612"
    },
    {
      "channel": 4,
      "note": 80,
      "start": 3.5223,
      "duration": 0.0163,
      "velocity": 98,
      "chip": "ym2612"
    },
    {
      "channel": 3,
      "note": 85,
      "start": 3.5235,
      "duration": 0.0162,
      "velocity": 98,
      "chip": "ym2612"
    },
    {
      "channel": 2,
      "note": 61,
      "start": 3.5246,
      "duration": 0.0162,
      "velocity": 93,
      "chip": "ym2612"
    },
    {
      "channel": 1,
      "note": 76,
      "start": 3.5258,
      "duration": 0.0162,
      "velocity": 103,
      "chip": "ym2612"
    },
    {
      "channel": 0,
      "note": 38,
      "start": 3.5362,
      "duration": 0.0161,
      "velocity": 115,
      "chip": "ym2612"
    },
    {
      "channel": 5,
      "note": 76,
      "start": 3.5374,
      "duration": 0.0161,
      "velocity": 102,
      "chip": "ym2612"
    },
    {
      "channel": 4,
      "note": 80,
      "start": 3.5386,
      "duration": 0.0161,
      "velocity": 98,
      "chip": "ym2612"
    },
    {
      "channel": 3,
      "note": 85,
      "start": 3.5397,
      "duration": 0.0161,
      "velocity": 98,
      "chip": "ym2612"
    },
    {
      "channel": 2,
      "note": 61,
      "start": 3.5409,
      "duration": 0.0161,
      "velocity": 93,
      "chip": "ym2612"
    },
    {
      "channel": 0,
      "note": 38,
      "start": 3.5523,
      "duration": 0.0161,
      "velocity": 115,
      "chip": "ym2612"
    },
    {
      "channel": 5,
      "note": 76,
      "start": 3.5535,
      "duration": 0.0162,
      "velocity": 102,
      "chip": "ym2612"
    },
    {
      "channel": 2,
      "note": 61,
      "start": 3.557,
      "duration": 0.0166,
      "velocity": 93,
      "chip": "ym2612"
    },
    {
      "channel": 0,
      "note": 39,
      "start": 3.5684,
      "duration": 0.0155,
      "velocity": 115,
      "chip": "ym2612"
    },
    {
      "channel": 5,
      "note": 76,
      "start": 3.5697,
      "duration": 0.016,
      "velocity": 102,
      "chip": "ym2612"
    },
    {
      "channel": 2,
      "note": 61,
      "start": 3.5736,
      "duration": 0.0159,
      "velocity": 93,
      "chip": "ym2612"
    },
    {
      "channel": 0,
      "note": 39,
      "start": 3.5839,
      "duration": 0.0161,
      "velocity": 115,
      "chip": "ym2612"
    },
    {
      "channel": 5,
      "note": 76,
      "start": 3.5857,
      "duration": 0.016,
      "velocity": 102,
      "chip": "ym2612"
    },
    {
      "channel": 2,
      "note": 61,
      "start": 3.5895,
      "duration": 0.016,
      "velocity": 93,
      "chip": "ym2612"
    },
    {
      "channel": 0,
      "note": 40,
      "start": 3.6,
      "duration": 0.0161,
      "velocity": 115,
      "chip": "ym2612"
    },
    {
      "channel": 5,
      "note": 76,
      "start": 3.6017,
      "duration": 0.0156,
      "velocity": 102,
      "chip": "ym2612"
    },
    {
      "channel": 2,
      "note": 61,
      "start": 3.6055,
      "duration": 0.0161,
      "velocity": 93,
      "chip": "ym2612"
    },
    {
      "channel": 0,
      "note": 40,
      "start": 3.6161,
      "duration": 0.0162,
      "velocity": 115,
      "chip": "ym2612"
    },
    {
      "channel": 5,
      "note": 76,
      "start": 3.6173,
      "duration": 0.0161,
      "velocity": 102,
      "chip": "ym2612"
    },
    {
      "channel": 2,
      "note": 61,
      "start": 3.6216,
      "duration": 0.0161,
      "velocity": 93,
      "chip": "ym2612"
    },
    {
      "channel": 0,
      "note": 40,
      "start": 3.6323,
      "duration": 0.0161,
      "velocity": 115,
      "chip": "ym2612"
    },
    {
      "channel": 2,
      "note": 61,
      "start": 3.6377,
      "duration": 0.0162,
      "velocity": 93,
      "chip": "ym2612"
    },
    {
      "channel": 0,
      "note": 41,
      "start": 3.6484,
      "duration": 0.0161,
      "velocity": 115,
      "chip": "ym2612"
    },
    {
      "channel": 2,
      "note": 61,
      "start": 3.6539,
      "duration": 0.0171,
      "velocity": 93,
      "chip": "ym2612"
    },
    {
      "channel": 0,
      "note": 41,
      "start": 3.6645,
      "duration": 0.0161,
      "velocity": 115,
      "chip": "ym2612"
    },
    {
      "channel": 4,
      "note": 80,
      "start": 3.6673,
      "duration": 0.0157,
      "velocity": 98,
      "chip": "ym2612"
    },
    {
      "channel": 3,
      "note": 85,
      "start": 3.6695,
      "duration": 0.0149,
      "velocity": 98,
      "chip": "ym2612"
    },
    {
      "channel": 2,
      "note": 61,
      "start": 3.671,
      "duration": 0.0151,
      "velocity": 93,
      "chip": "ym2612"
    },
    {
      "channel": 1,
      "note": 76,
      "start": 3.6724,
      "duration": 0.0148,
      "velocity": 103,
      "chip": "ym2612"
    },
    {
      "channel": 0,
      "note": 42,
      "start": 3.6806,
      "duration": 0.0161,
      "velocity": 115,
      "chip": "ym2612"
    },
    {
      "channel": 4,
      "note": 80,
      "start": 3.6831,
      "duration": 0.016,
      "velocity": 98,
      "chip": "ym2612"
    },
    {
      "channel": 3,
      "note": 85,
      "start": 3.6844,
      "duration": 0.0158,
      "velocity": 98,
      "chip": "ym2612"
    },
    {
      "channel": 2,
      "note": 61,
      "start": 3.686,
      "duration": 0.0159,
      "velocity": 93,
      "chip": "ym2612"
    },
    {
      "channel": 1,
      "note": 76,
      "start": 3.6873,
      "duration": 0.0158,
      "velocity": 103,
      "chip": "ym2612"
    },
    {
      "channel": 0,
      "note": 42,
      "start": 3.6967,
      "duration": 0.0161,
      "velocity": 115,
      "chip": "ym2612"
    },
    {
      "channel": 4,
      "note": 80,
      "start": 3.6991,
      "duration": 0.0161,
      "velocity": 98,
      "chip": "ym2612"
    },
    {
      "channel": 3,
      "note": 85,
      "start": 3.7002,
      "duration": 0.0161,
      "velocity": 98,
      "chip": "ym2612"
    },
    {
      "channel": 2,
      "note": 61,
      "start": 3.7019,
      "duration": 0.0158,
      "velocity": 93,
      "chip": "ym2612"
    },
    {
      "channel": 1,
      "note": 76,
      "start": 3.7031,
      "duration": 0.0162,
      "velocity": 103,
      "chip": "ym2612"
    },
    {
      "channel": 0,
      "note": 43,
      "start": 3.7128,
      "duration": 0.0161,
      "velocity": 115,
      "chip": "ym2612"
    },
    {
      "channel": 4,
      "note": 80,
      "start": 3.7152,
      "duration": 0.0161,
      "velocity": 98,
      "chip": "ym2612"
    },
    {
      "channel": 3,
      "note": 85,
      "start": 3.7163,
      "duration": 0.0161,
      "velocity": 98,
      "chip": "ym2612"
    },
    {
      "channel": 2,
      "note": 61,
      "start": 3.7177,
      "duration": 0.0159,
      "velocity": 93,
      "chip": "ym2612"
    },
    {
      "channel": 1,
      "note": 76,
      "start": 3.7193,
      "duration": 0.016,
      "velocity": 103,
      "chip": "ym2612"
    },
    {
      "channel": 0,
      "note": 43,
      "start": 3.7288,
      "duration": 0.0161,
      "velocity": 115,
      "chip": "ym2612"
    },
    {
      "channel": 4,
      "note": 80,
      "start": 3.7313,
      "duration": 0.0161,
      "velocity": 98,
      "chip": "ym2612"
    },
    {
      "channel": 3,
      "note": 85,
      "start": 3.7324,
      "duration": 0.0162,
      "velocity": 98,
      "chip": "ym2612"
    },
    {
      "channel": 2,
      "note": 61,
      "start": 3.7336,
      "duration": 0.0161,
      "velocity": 93,
      "chip": "ym2612"
    },
    {
      "channel": 0,
      "note": 44,
      "start": 3.7449,
      "duration": 0.0179,
      "velocity": 124,
      "chip": "ym2612"
    },
    {
      "channel": 2,
      "note": 61,
      "start": 3.7497,
      "duration": 0.0197,
      "velocity": 93,
      "chip": "ym2612"
    },
    {
      "channel": 0,
      "note": 84,
      "start": 3.7629,
      "duration": 0.0143,
      "velocity": 124,
      "chip": "ym2612"
    },
    {
      "channel": 5,
      "note": 76,
      "start": 3.7644,
      "duration": 0.0141,
      "velocity": 102,
      "chip": "ym2612"
    },
    {
      "channel": 4,
      "note": 80,
      "start": 3.7659,
      "duration": 0.0137,
      "velocity": 98,
      "chip": "ym2612"
    },
    {
      "channel": 3,
      "note": 85,
      "start": 3.7677,
      "duration": 0.0132,
      "velocity": 98,
      "chip": "ym2612"
    },
    {
      "channel": 2,
      "note": 61,
      "start": 3.7695,
      "duration": 0.0126,
      "velocity": 93,
      "chip": "ym2612"
    },
    {
      "channel": 1,
      "note": 68,
      "start": 3.771,
      "duration": 0.0123,
      "velocity": 103,
      "chip": "ym2612"
    },
    {
      "channel": 0,
      "note": 82,
      "start": 3.7773,
      "duration": 0.016,
      "velocity": 124,
      "chip": "ym2612"
    },
    {
      "channel": 5,
      "note": 76,
      "start": 3.7785,
      "duration": 0.016,
      "velocity": 102,
      "chip": "ym2612"
    },
    {
      "channel": 4,
      "note": 80,
      "start": 3.7797,
      "duration": 0.0159,
      "velocity": 98,
      "chip": "ym2612"
    },
    {
      "channel": 3,
      "note": 85,
      "start": 3.7809,
      "duration": 0.0159,
      "velocity": 98,
      "chip": "ym2612"
    },
    {
      "channel": 2,
      "note": 61,
      "start": 3.7821,
      "duration": 0.0159,
      "velocity": 93,
      "chip": "ym2612"
    },
    {
      "channel": 1,
      "note": 68,
      "start": 3.7833,
      "duration": 0.0158,
      "velocity": 103,
      "chip": "ym2612"
    },
    {
      "channel": 0,
      "note": 80,
      "start": 3.7933,
      "duration": 0.0161,
      "velocity": 124,
      "chip": "ym2612"
    },
    {
      "channel": 5,
      "note": 76,
      "start": 3.7944,
      "duration": 0.0161,
      "velocity": 102,
      "chip": "ym2612"
    },
    {
      "channel": 4,
      "note": 80,
      "start": 3.7956,
      "duration": 0.0161,
      "velocity": 98,
      "chip": "ym2612"
    },
    {
      "channel": 3,
      "note": 85,
      "start": 3.7968,
      "duration": 0.0161,
      "velocity": 98,
      "chip": "ym2612"
    },
    {
      "channel": 2,
      "note": 61,
      "start": 3.7979,
      "duration": 0.0161,
      "velocity": 93,
      "chip": "ym2612"
    },
    {
      "channel": 1,
      "note": 68,
      "start": 3.7991,
      "duration": 0.0161,
      "velocity": 103,
      "chip": "ym2612"
    },
    {
      "channel": 0,
      "note": 77,
      "start": 3.8094,
      "duration": 0.0161,
      "velocity": 124,
      "chip": "ym2612"
    },
    {
      "channel": 5,
      "note": 76,
      "start": 3.8105,
      "duration": 0.0161,
      "velocity": 102,
      "chip": "ym2612"
    },
    {
      "channel": 4,
      "note": 80,
      "start": 3.8117,
      "duration": 0.0161,
      "velocity": 98,
      "chip": "ym2612"
    },
    {
      "channel": 3,
      "note": 85,
      "start": 3.8129,
      "duration": 0.0161,
      "velocity": 98,
      "chip": "ym2612"
    },
    {
      "channel": 2,
      "note": 61,
      "start": 3.814,
      "duration": 0.0161,
      "velocity": 93,
      "chip": "ym2612"
    },
    {
      "channel": 1,
      "note": 68,
      "start": 3.8152,
      "duration": 0.0161,
      "velocity": 103,
      "chip": "ym2612"
    },
    {
      "channel": 0,
      "note": 75,
      "start": 3.8255,
      "duration": 0.0161,
      "velocity": 124,
      "chip": "ym2612"
    },
    {
      "channel": 4,
      "note": 80,
      "start": 3.8278,
      "duration": 0.016,
      "velocity": 98,
      "chip": "ym2612"
    },
    {
      "channel": 3,
      "note": 85,
      "start": 3.829,
      "duration": 0.0161,
      "velocity": 98,
      "chip": "ym2612"
    },
    {
      "channel": 2,
      "note": 61,
      "start": 3.8301,
      "duration": 0.0161,
      "velocity": 93,
      "chip": "ym2612"
    },
    {
      "channel": 1,
      "note": 68,
      "start": 3.8313,
      "duration": 0.0161,
      "velocity": 103,
      "chip": "ym2612"
    },
    {
      "channel": 0,
      "note": 72,
      "start": 3.8416,
      "duration": 0.0161,
      "velocity": 124,
      "chip": "ym2612"
    },
    {
      "channel": 4,
      "note": 80,
      "start": 3.8439,
      "duration": 0.0166,
      "velocity": 98,
      "chip": "ym2612"
    },
    {
      "channel": 3,
      "note": 85,
      "start": 3.8451,
      "duration": 0.0165,
      "velocity": 98,
      "chip": "ym2612"
    },
    {
      "channel": 2,
      "note": 61,
      "start": 3.8462,
      "duration": 0.0166,
      "velocity": 93,
      "chip": "ym2612"
    },
    {
      "channel": 1,
      "note": 68,
      "start": 3.8474,
      "duration": 0.0165,
      "velocity": 103,
      "chip": "ym2612"
    },
    {
      "channel": 0,
      "note": 70,
      "start": 3.8577,
      "duration": 0.0161,
      "velocity": 124,
      "chip": "ym2612"
    },
    {
      "channel": 5,
      "note": 68,
      "start": 3.8593,
      "duration": 0.0157,
      "velocity": 102,
      "chip": "ym2612"
    },
    {
      "channel": 4,
      "note": 80,
      "start": 3.8605,
      "duration": 0.0157,
      "velocity": 98,
      "chip": "ym2612"
    },
    {
      "channel": 3,
      "note": 85,
      "start": 3.8616,
      "duration": 0.0157,
      "velocity": 98,
      "chip": "ym2612"
    },
    {
      "channel": 2,
      "note": 61,
      "start": 3.8628,
      "duration": 0.0157,
      "velocity": 93,
      "chip": "ym2612"
    },
    {
      "channel": 1,
      "note": 68,
      "start": 3.8639,
      "duration": 0.0157,
      "velocity": 103,
      "chip": "ym2612"
    },
    {
      "channel": 0,
      "note": 68,
      "start": 3.8738,
      "duration": 0.0161,
      "velocity": 124,
      "chip": "ym2612"
    },
    {
      "channel": 5,
      "note": 68,
      "start": 3.875,
      "duration": 0.016,
      "velocity": 102,
      "chip": "ym2612"
    },
    {
      "channel": 4,
      "note": 80,
      "start": 3.8762,
      "duration": 0.016,
      "velocity": 98,
      "chip": "ym2612"
    },
    {
      "channel": 3,
      "note": 85,
      "start": 3.8773,
      "duration": 0.016,
      "velocity": 98,
      "chip": "ym2612"
    },
    {
      "channel": 2,
      "note": 61,
      "start": 3.8785,
      "duration": 0.016,
      "velocity": 93,
      "chip": "ym2612"
    },
    {
      "channel": 1,
      "note": 68,
      "start": 3.8796,
      "duration": 0.016,
      "velocity": 103,
      "chip": "ym2612"
    },
    {
      "channel": 0,
      "note": 65,
      "start": 3.8899,
      "duration": 0.0161,
      "velocity": 124,
      "chip": "ym2612"
    },
    {
      "channel": 5,
      "note": 68,
      "start": 3.891,
      "duration": 0.0162,
      "velocity": 102,
      "chip": "ym2612"
    },
    {
      "channel": 4,
      "note": 80,
      "start": 3.8922,
      "duration": 0.0161,
      "velocity": 98,
      "chip": "ym2612"
    },
    {
      "channel": 3,
      "note": 85,
      "start": 3.8934,
      "duration": 0.0161,
      "velocity": 98,
      "chip": "ym2612"
    },
    {
      "channel": 2,
      "note": 61,
      "start": 3.8945,
      "duration": 0.0161,
      "velocity": 93,
      "chip": "ym2612"
    },
    {
      "channel": 1,
      "note": 68,
      "start": 3.8956,
      "duration": 0.0162,
      "velocity": 103,
      "chip": "ym2612"
    },
    {
      "channel": 0,
      "note": 63,
      "start": 3.9059,
      "duration": 0.0154,
      "velocity": 1,
      "chip": "ym2612"
    },
    {
      "channel": 5,
      "note": 68,
      "start": 3.9072,
      "duration": 0.0153,
      "velocity": 102,
      "chip": "ym2612"
    },
    {
      "channel": 4,
      "note": 80,
      "start": 3.9083,
      "duration": 0.0153,
      "velocity": 98,
      "chip": "ym2612"
    },
    {
      "channel": 3,
      "note": 85,
      "start": 3.9095,
      "duration": 0.0153,
      "velocity": 98,
      "chip": "ym2612"
    },
    {
      "channel": 2,
      "note": 61,
      "start": 3.9106,
      "duration": 0.0153,
      "velocity": 93,
      "chip": "ym2612"
    },
    {
      "channel": 1,
      "note": 68,
      "start": 3.9118,
      "duration": 0.0153,
      "velocity": 103,
      "chip": "ym2612"
    },
    {
      "channel": 5,
      "note": 68,
      "start": 3.9224,
      "duration": 0.0152,
      "velocity": 102,
      "chip": "ym2612"
    },
    {
      "channel": 4,
      "note": 80,
      "start": 3.9236,
      "duration": 0.0153,
      "velocity": 98,
      "chip": "ym2612"
    },
    {
      "channel": 3,
      "note": 85,
      "start": 3.9247,
      "duration": 0.0153,
      "velocity": 98,
      "chip": "ym2612"
    },
    {
      "channel": 2,
      "note": 61,
      "start": 3.9259,
      "duration": 0.0153,
      "velocity": 93,
      "chip": "ym2612"
    },
    {
      "channel": 5,
      "note": 68,
      "start": 3.9376,
      "duration": 0.0197,
      "velocity": 102,
      "chip": "ym2612"
    },
    {
      "channel": 4,
      "note": 80,
      "start": 3.9388,
      "duration": 0.0196,
      "velocity": 98,
      "chip": "ym2612"
    },
    {
      "channel": 3,
      "note": 85,
      "start": 3.94,
      "duration": 0.0196,
      "velocity": 98,
      "chip": "ym2612"
    },
    {
      "channel": 2,
      "note": 61,
      "start": 3.9411,
      "duration": 0.0196,
      "velocity": 93,
      "chip": "ym2612"
    },
    {
      "channel": 0,
      "note": 36,
      "start": 3.9561,
      "duration": 0.0144,
      "velocity": 115,
      "chip": "ym2612"
    },
    {
      "channel": 5,
      "note": 68,
      "start": 3.9573,
      "duration": 0.0144,
      "velocity": 102,
      "chip": "ym2612"
    },
    {
      "channel": 4,
      "note": 80,
      "start": 3.9584,
      "duration": 0.0144,
      "velocity": 98,
      "chip": "ym2612"
    },
    {
      "channel": 3,
      "note": 85,
      "start": 3.9596,
      "duration": 0.0144,
      "velocity": 98,
      "chip": "ym2612"
    },
    {
      "channel": 2,
      "note": 61,
      "start": 3.9607,
      "duration": 0.0144,
      "velocity": 93,
      "chip": "ym2612"
    },
    {
      "channel": 1,
      "note": 73,
      "start": 3.9622,
      "duration": 0.0141,
      "velocity": 103,
      "chip": "ym2612"
    },
    {
      "channel": 0,
      "note": 36,
      "start": 3.9705,
      "duration": 0.0163,
      "velocity": 115,
      "chip": "ym2612"
    },
    {
      "channel": 5,
      "note": 68,
      "start": 3.9717,
      "duration": 0.0163,
      "velocity": 102,
      "chip": "ym2612"
    },
    {
      "channel": 4,
      "note": 80,
      "start": 3.9728,
      "duration": 0.0164,
      "velocity": 98,
      "chip": "ym2612"
    },
    {
      "channel": 3,
      "note": 85,
      "start": 3.9739,
      "duration": 0.0166,
      "velocity": 98,
      "chip": "ym2612"
    },
    {
      "channel": 2,
      "note": 61,
      "start": 3.9752,
      "duration": 0.0165,
      "velocity": 93,
      "chip": "ym2612"
    },
    {
      "channel": 1,
      "note": 73,
      "start": 3.9764,
      "duration": 0.0165,
      "velocity": 103,
      "chip": "ym2612"
    },
    {
      "channel": 0,
      "note": 37,
      "start": 3.9869,
      "duration": 0.0163,
      "velocity": 115,
      "chip": "ym2612"
    },
    {
      "channel": 5,
      "note": 68,
      "start": 3.988,
      "duration": 0.0164,
      "velocity": 102,
      "chip": "ym2612"
    },
    {
      "channel": 4,
      "note": 80,
      "start": 3.9892,
      "duration": 0.0164,
      "velocity": 98,
      "chip": "ym2612"
    },
    {
      "channel": 3,
      "note": 85,
      "start": 3.9905,
      "duration": 0.0163,
      "velocity": 98,
      "chip": "ym2612"
    },
    {
      "channel": 2,
      "note": 61,
      "start": 3.9917,
      "duration": 0.0163,
      "velocity": 93,
      "chip": "ym2612"
    },
    {
      "channel": 1,
      "note": 73,
      "start": 3.9929,
      "duration": 0.0163,
      "velocity": 103,
      "chip": "ym2612"
    },
    {
      "channel": 0,
      "note": 37,
      "start": 4.0032,
      "duration": 0.0162,
      "velocity": 115,
      "chip": "ym2612"
    },
    {
      "channel": 5,
      "note": 68,
      "start": 4.0044,
      "duration": 0.0161,
      "velocity": 102,
      "chip": "ym2612"
    },
    {
      "channel": 4,
      "note": 80,
      "start": 4.0056,
      "duration": 0.0161,
      "velocity": 98,
      "chip": "ym2612"
    },
    {
      "channel": 3,
      "note": 85,
      "start": 4.0068,
      "duration": 0.0161,
      "velocity": 98,
      "chip": "ym2612"
    },
    {
      "channel": 2,
      "note": 61,
      "start": 4.008,
      "duration": 0.0161,
      "velocity": 93,
      "chip": "ym2612"
    },
    {
      "channel": 1,
      "note": 73,
      "start": 4.0092,
      "duration": 0.0161,
      "velocity": 103,
      "chip": "ym2612"
    },
    {
      "channel": 0,
      "note": 38,
      "start": 4.0193,
      "duration": 0.016,
      "velocity": 115,
      "chip": "ym2612"
    },
    {
      "channel": 4,
      "note": 80,
      "start": 4.0217,
      "duration": 0.016,
      "velocity": 98,
      "chip": "ym2612"
    },
    {
      "channel": 3,
      "note": 85,
      "start": 4.0229,
      "duration": 0.0159,
      "velocity": 98,
      "chip": "ym2612"
    },
    {
      "channel": 2,
      "note": 61,
      "start": 4.0241,
      "duration": 0.0159,
      "velocity": 93,
      "chip": "ym2612"
    },
    {
      "channel": 0,
      "note": 38,
      "start": 4.0353,
      "duration": 0.018,
      "velocity": 124,
      "chip": "ym2612"
    },
    {
      "channel": 2,
      "note": 61,
      "start": 4.04,
      "duration": 0.0193,
      "velocity": 93,
      "chip": "ym2612"
    },
    {
      "channel": 0,
      "note": 84,
      "start": 4.0533,
      "duration": 0.0137,
      "velocity": 124,
      "chip": "ym2612"
    },
    {
      "channel": 5,
      "note": 73,
      "start": 4.0548,
      "duration": 0.0141,
      "velocity": 102,
      "chip": "ym2612"
    },
    {
      "channel": 4,
      "note": 80,
      "start": 4.0564,
      "duration": 0.0137,
      "velocity": 98,
      "chip": "ym2612"
    },
    {
      "channel": 3,
      "note": 85,
      "start": 4.058,
      "duration": 0.0133,
      "velocity": 98,
      "chip": "ym2612"
    },
    {
      "channel": 2,
      "note": 61,
      "start": 4.0595,
      "duration": 0.013,
      "velocity": 93,
      "chip": "ym2612"
    },
    {
      "channel": 1,
      "note": 76,
      "start": 4.061,
      "duration": 0.0127,
      "velocity": 103,
      "chip": "ym2612"
    },
    {
      "channel": 0,
      "note": 82,
      "start": 4.067,
      "duration": 0.0161,
      "velocity": 124,
      "chip": "ym2612"
    },
    {
      "channel": 5,
      "note": 73,
      "start": 4.0689,
      "duration": 0.016,
      "velocity": 102,
      "chip": "ym2612"
    },
    {
      "channel": 4,
      "note": 80,
      "start": 4.0701,
      "duration": 0.016,
      "velocity": 98,
      "chip": "ym2612"
    },
    {
      "channel": 3,
      "note": 85,
      "start": 4.0713,
      "duration": 0.0159,
      "velocity": 98,
      "chip": "ym2612"
    },
    {
      "channel": 2,
      "note": 61,
      "start": 4.0725,
      "duration": 0.0158,
      "velocity": 93,
      "chip": "ym2612"
    },
    {
      "channel": 1,
      "note": 76,
      "start": 4.0737,
      "duration": 0.0158,
      "velocity": 103,
      "chip": "ym2612"
    },
    {
      "channel": 0,
      "note": 80,
      "start": 4.0831,
      "duration": 0.0161,
      "velocity": 124,
      "chip": "ym2612"
    },
    {
      "channel": 5,
      "note": 73,
      "start": 4.0848,
      "duration": 0.0155,
      "velocity": 102,
      "chip": "ym2612"
    },
    {
      "channel": 4,
      "note": 80,
      "start": 4.086,
      "duration": 0.0161,
      "velocity": 98,
      "chip": "ym2612"
    },
    {
      "channel": 3,
      "note": 85,
      "start": 4.0872,
      "duration": 0.0161,
      "velocity": 98,
      "chip": "ym2612"
    },
    {
      "channel": 2,
      "note": 61,
      "start": 4.0883,
      "duration": 0.0161,
      "velocity": 93,
      "chip": "ym2612"
    },
    {
      "channel": 1,
      "note": 76,
      "start": 4.0895,
      "duration": 0.0161,
      "velocity": 103,
      "chip": "ym2612"
    },
    {
      "channel": 0,
      "note": 77,
      "start": 4.0992,
      "duration": 0.0161,
      "velocity": 124,
      "chip": "ym2612"
    },
    {
      "channel": 5,
      "note": 73,
      "start": 4.1004,
      "duration": 0.0161,
      "velocity": 102,
      "chip": "ym2612"
    },
    {
      "channel": 4,
      "note": 80,
      "start": 4.1021,
      "duration": 0.016,
      "velocity": 98,
      "chip": "ym2612"
    },
    {
      "channel": 3,
      "note": 85,
      "start": 4.1033,
      "duration": 0.0161,
      "velocity": 98,
      "chip": "ym2612"
    },
    {
      "channel": 2,
      "note": 61,
      "start": 4.1044,
      "duration": 0.0161,
      "velocity": 93,
      "chip": "ym2612"
    },
    {
      "channel": 1,
      "note": 76,
      "start": 4.1056,
      "duration": 0.0161,
      "velocity": 103,
      "chip": "ym2612"
    },
    {
      "channel": 0,
      "note": 75,
      "start": 4.1153,
      "duration": 0.0161,
      "velocity": 124,
      "chip": "ym2612"
    },
    {
      "channel": 4,
      "note": 80,
      "start": 4.1182,
      "duration": 0.0155,
      "velocity": 98,
      "chip": "ym2612"
    },
    {
      "channel": 3,
      "note": 85,
      "start": 4.1194,
      "duration": 0.0161,
      "velocity": 98,
      "chip": "ym2612"
    },
    {
      "channel": 2,
      "note": 61,
      "start": 4.1205,
      "duration": 0.0161,
      "velocity": 93,
      "chip": "ym2612"
    },
    {
      "channel": 1,
      "note": 76,
      "start": 4.1217,
      "duration": 0.016,
      "velocity": 103,
      "chip": "ym2612"
    },
    {
      "channel": 0,
      "note": 72,
      "start": 4.1314,
      "duration": 0.0161,
      "velocity": 124,
      "chip": "ym2612"
    },
    {
      "channel": 4,
      "note": 80,
      "start": 4.1337,
      "duration": 0.0165,
      "velocity": 98,
      "chip": "ym2612"
    },
    {
      "channel": 3,
      "note": 85,
      "start": 4.1355,
      "duration": 0.0163,
      "velocity": 98,
      "chip": "ym2612"
    },
    {
      "channel": 2,
      "note": 61,
      "start": 4.1366,
      "duration": 0.0164,
      "velocity": 93,
      "chip": "ym2612"
    },
    {
      "channel": 1,
      "note": 76,
      "start": 4.1378,
      "duration": 0.0165,
      "velocity": 103,
      "chip": "ym2612"
    },
    {
      "channel": 0,
      "note": 70,
      "start": 4.1475,
      "duration": 0.0161,
      "velocity": 124,
      "chip": "ym2612"
    },
    {
      "channel": 5,
      "note": 76,
      "start": 4.149,
      "duration": 0.0158,
      "velocity": 102,
      "chip": "ym2612"
    },
    {
      "channel": 4,
      "note": 80,
      "start": 4.1502,
      "duration": 0.0159,
      "velocity": 98,
      "chip": "ym2612"
    },
    {
      "channel": 3,
      "note": 85,
      "start": 4.1518,
      "duration": 0.0153,
      "velocity": 98,
      "chip": "ym2612"
    },
    {
      "channel": 2,
      "note": 61,
      "start": 4.153,
      "duration": 0.0159,
      "velocity": 93,
      "chip": "ym2612"
    },
    {
      "channel": 1,
      "note": 76,
      "start": 4.1543,
      "duration": 0.0158,
      "velocity": 103,
      "chip": "ym2612"
    },
    {
      "channel": 0,
      "note": 68,
      "start": 4.1636,
      "duration": 0.0161,
      "velocity": 124,
      "chip": "ym2612"
    },
    {
      "channel": 5,
      "note": 76,
      "start": 4.1648,
      "duration": 0.016,
      "velocity": 102,
      "chip": "ym2612"
    },
    {
      "channel": 4,
      "note": 80,
      "start": 4.166,
      "duration": 0.016,
      "velocity": 98,
      "chip": "ym2612"
    },
    {
      "channel": 3,
      "note": 85,
      "start": 4.1671,
      "duration": 0.016,
      "velocity": 98,
      "chip": "ym2612"
    },
    {
      "channel": 2,
      "note": 61,
      "start": 4.1689,
      "duration": 0.016,
      "velocity": 93,
      "chip": "ym2612"
    },
    {
      "channel": 1,
      "note": 76,
      "start": 4.1701,
      "duration": 0.016,
      "velocity": 103,
      "chip": "ym2612"
    },
    {
      "channel": 0,
      "note": 65,
      "start": 4.1797,
      "duration": 0.0161,
      "velocity": 124,
      "chip": "ym2612"
    },
    {
      "channel": 5,
      "note": 76,
      "start": 4.1808,
      "duration": 0.0162,
      "velocity": 102,
      "chip": "ym2612"
    },
    {
      "channel": 4,
      "note": 80,
      "start": 4.182,
      "duration": 0.0161,
      "velocity": 98,
      "chip": "ym2612"
    },
    {
      "channel": 3,
      "note": 85,
      "start": 4.1832,
      "duration": 0.0162,
      "velocity": 98,
      "chip": "ym2612"
    },
    {
      "channel": 2,
      "note": 61,
      "start": 4.1848,
      "duration": 0.016,
      "velocity": 93,
      "chip": "ym2612"
    },
    {
      "channel": 1,
      "note": 76,
      "start": 4.1861,
      "duration": 0.0163,
      "velocity": 103,
      "chip": "ym2612"
    },
    {
      "channel": 0,
      "note": 63,
      "start": 4.1958,
      "duration": 0.0153,
      "velocity": 1,
      "chip": "ym2612"
    },
    {
      "channel": 5,
      "note": 76,
      "start": 4.197,
      "duration": 0.0153,
      "velocity": 102,
      "chip": "ym2612"
    },
    {
      "channel": 4,
      "note": 80,
      "start": 4.1982,
      "duration": 0.0153,
      "velocity": 98,
      "chip": "ym2612"
    },
    {
      "channel": 3,
      "note": 85,
      "start": 4.1994,
      "duration": 0.0153,
      "velocity": 98,
      "chip": "ym2612"
    },
    {
      "channel": 2,
      "note": 61,
      "start": 4.2009,
      "duration": 0.015,
      "velocity": 93,
      "chip": "ym2612"
    },
    {
      "channel": 1,
      "note": 76,
      "start": 4.2024,
      "duration": 0.0146,
      "velocity": 103,
      "chip": "ym2612"
    },
    {
      "channel": 5,
      "note": 76,
      "start": 4.2122,
      "duration": 0.0152,
      "velocity": 102,
      "chip": "ym2612"
    },
    {
      "channel": 4,
      "note": 80,
      "start": 4.2134,
      "duration": 0.0153,
      "velocity": 98,
      "chip": "ym2612"
    },
    {
      "channel": 3,
      "note": 85,
      "start": 4.2147,
      "duration": 0.0153,
      "velocity": 98,
      "chip": "ym2612"
    },
    {
      "channel": 2,
      "note": 61,
      "start": 4.2159,
      "duration": 0.0153,
      "velocity": 93,
      "chip": "ym2612"
    },
    {
      "channel": 5,
      "note": 76,
      "start": 4.2275,
      "duration": 0.0197,
      "velocity": 102,
      "chip": "ym2612"
    },
    {
      "channel": 4,
      "note": 80,
      "start": 4.2287,
      "duration": 0.0196,
      "velocity": 98,
      "chip": "ym2612"
    },
    {
      "channel": 3,
      "note": 85,
      "start": 4.2299,
      "duration": 0.0195,
      "velocity": 98,
      "chip": "ym2612"
    },
    {
      "channel": 2,
      "note": 61,
      "start": 4.2311,
      "duration": 0.0197,
      "velocity": 93,
      "chip": "ym2612"
    },
    {
      "channel": 0,
      "note": 36,
      "start": 4.246,
      "duration": 0.0143,
      "velocity": 115,
      "chip": "ym2612"
    },
    {
      "channel": 5,
      "note": 76,
      "start": 4.2472,
      "duration": 0.0143,
      "velocity": 102,
      "chip": "ym2612"
    },
    {
      "channel": 4,
      "note": 80,
      "start": 4.2483,
      "duration": 0.0143,
      "velocity": 98,
      "chip": "ym2612"
    },
    {
      "channel": 3,
      "note": 85,
      "start": 4.2495,
      "duration": 0.0144,
      "velocity": 98,
      "chip": "ym2612"
    },
    {
      "channel": 2,
      "note": 61,
      "start": 4.2509,
      "duration": 0.0141,
      "velocity": 93,
      "chip": "ym2612"
    },
    {
      "channel": 0,
      "note": 36,
      "start": 4.2603,
      "duration": 0.016,
      "velocity": 115,
      "chip": "ym2612"
    },
    {
      "channel": 5,
      "note": 76,
      "start": 4.2615,
      "duration": 0.016,
      "velocity": 102,
      "chip": "ym2612"
    },
    {
      "channel": 4,
      "note": 80,
      "start": 4.2626,
      "duration": 0.016,
      "velocity": 98,
      "chip": "ym2612"
    },
    {
      "channel": 3,
      "note": 85,
      "start": 4.2638,
      "duration": 0.0159,
      "velocity": 98,
      "chip": "ym2612"
    },
    {
      "channel": 2,
      "note": 61,
      "start": 4.265,
      "duration": 0.016,
      "velocity": 93,
      "chip": "ym2612"
    },
    {
      "channel": 0,
      "note": 37,
      "start": 4.2763,
      "duration": 0.0161,
      "velocity": 115,
      "chip": "ym2612"
    },
    {
      "channel": 5,
      "note": 76,
      "start": 4.2775,
      "duration": 0.0161,
      "velocity": 102,
      "chip": "ym2612"
    },
    {
      "channel": 4,
      "note": 80,
      "start": 4.2786,
      "duration": 0.0162,
      "velocity": 98,
      "chip": "ym2612"
    },
    {
      "channel": 3,
      "note": 85,
      "start": 4.2798,
      "duration": 0.0161,
      "velocity": 98,
      "chip": "ym2612"
    },
    {
      "channel": 2,
      "note": 61,
      "start": 4.281,
      "duration": 0.0161,
      "velocity": 93,
      "chip": "ym2612"
    },
    {
      "channel": 0,
      "note": 37,
      "start": 4.2924,
      "duration": 0.0161,
      "velocity": 115,
      "chip": "ym2612"
    },
    {
      "channel": 5,
      "note": 76,
      "start": 4.2935,
      "duration": 0.0162,
      "velocity": 102,
      "chip": "ym2612"
    },
    {
      "channel": 4,
      "note": 80,
      "start": 4.2948,
      "duration": 0.0161,
      "velocity": 98,
      "chip": "ym2612"
    },
    {
      "channel": 3,
      "note": 85,
      "start": 4.2959,
      "duration": 0.0162,
      "velocity": 98,
      "chip": "ym2612"
    },
    {
      "channel": 2,
      "note": 61,
      "start": 4.2971,
      "duration": 0.0163,
      "velocity": 93,
      "chip": "ym2612"
    },
    {
      "channel": 0,
      "note": 38,
      "start": 4.3085,
      "duration": 0.0161,
      "velocity": 115,
      "chip": "ym2612"
    },
    {
      "channel": 4,
      "note": 80,
      "start": 4.3109,
      "duration": 0.0161,
      "velocity": 98,
      "chip": "ym2612"
    },
    {
      "channel": 3,
      "note": 85,
      "start": 4.3121,
      "duration": 0.0161,
      "velocity": 98,
      "chip": "ym2612"
    },
    {
      "channel": 2,
      "note": 61,
      "start": 4.3133,
      "duration": 0.0161,
      "velocity": 93,
      "chip": "ym2612"
    },
    {
      "channel": 0,
      "note": 38,
      "start": 4.3246,
      "duration": 0.0179,
      "velocity": 124,
      "chip": "ym2612"
    },
    {
      "channel": 2,
      "note": 61,
      "start": 4.3295,
      "duration": 0.0188,
      "velocity": 93,
      "chip": "ym2612"
    },
    {
      "channel": 0,
      "note": 84,
      "start": 4.3426,
      "duration": 0.0143,
      "velocity": 124,
      "chip": "ym2612"
    },
    {
      "channel": 4,
      "note": 83,
      "start": 4.3454,
      "duration": 0.0139,
      "velocity": 98,
      "chip": "ym2612"
    },
    {
      "channel": 3,
      "note": 87,
      "start": 4.3469,
      "duration": 0.0136,
      "velocity": 98,
      "chip": "ym2612"
    },
    {
      "channel": 2,
      "note": 59,
      "start": 4.3484,
      "duration": 0.0134,
      "velocity": 93,
      "chip": "ym2612"
    },
    {
      "channel": 1,
      "note": 78,
      "start": 4.3498,
      "duration": 0.0131,
      "velocity": 103,
      "chip": "ym2612"
    },
    {
      "channel": 0,
      "note": 82,
      "start": 4.3568,
      "duration": 0.0161,
      "velocity": 124,
      "chip": "ym2612"
    },
    {
      "channel": 4,
      "note": 83,
      "start": 4.3593,
      "duration": 0.016,
      "velocity": 98,
      "chip": "ym2612"
    },
    {
      "channel": 3,
      "note": 87,
      "start": 4.3605,
      "duration": 0.0159,
      "velocity": 98,
      "chip": "ym2612"
    },
    {
      "channel": 2,
      "note": 59,
      "start": 4.3617,
      "duration": 0.0159,
      "velocity": 93,
      "chip": "ym2612"
    },
    {
      "channel": 1,
      "note": 78,
      "start": 4.3629,
      "duration": 0.0159,
      "velocity": 103,
      "chip": "ym2612"
    },
    {
      "channel": 0,
      "note": 80,
      "start": 4.3729,
      "duration": 0.0161,
      "velocity": 124,
      "chip": "ym2612"
    },
    {
      "channel": 4,
      "note": 83,
      "start": 4.3753,
      "duration": 0.0162,
      "velocity": 98,
      "chip": "ym2612"
    },
    {
      "channel": 3,
      "note": 87,
      "start": 4.3764,
      "duration": 0.0161,
      "velocity": 98,
      "chip": "ym2612"
    },
    {
      "channel": 2,
      "note": 59,
      "start": 4.3776,
      "duration": 0.0161,
      "velocity": 93,
      "chip": "ym2612"
    },
    {
      "channel": 1,
      "note": 78,
      "start": 4.3788,
      "duration": 0.0161,
      "velocity": 103,
      "chip": "ym2612"
    },
    {
      "channel": 0,
      "note": 77,
      "start": 4.389,
      "duration": 0.0161,
      "velocity": 124,
      "chip": "ym2612"
    },
    {
      "channel": 4,
      "note": 83,
      "start": 4.3915,
      "duration": 0.0161,
      "velocity": 98,
      "chip": "ym2612"
    },
    {
      "channel": 3,
      "note": 87,
      "start": 4.3926,
      "duration": 0.0161,
      "velocity": 98,
      "chip": "ym2612"
    },
    {
      "channel": 2,
      "note": 59,
      "start": 4.3937,
      "duration": 0.0161,
      "velocity": 93,
      "chip": "ym2612"
    },
    {
      "channel": 1,
      "note": 78,
      "start": 4.3949,
      "duration": 0.0161,
      "velocity": 103,
      "chip": "ym2612"
    },
    {
      "channel": 0,
      "note": 75,
      "start": 4.4051,
      "duration": 0.0161,
      "velocity": 124,
      "chip": "ym2612"
    },
    {
      "channel": 4,
      "note": 83,
      "start": 4.4076,
      "duration": 0.0161,
      "velocity": 98,
      "chip": "ym2612"
    },
    {
      "channel": 3,
      "note": 87,
      "start": 4.4087,
      "duration": 0.0161,
      "velocity": 98,
      "chip": "ym2612"
    },
    {
      "channel": 2,
      "note": 59,
      "start": 4.4098,
      "duration": 0.0161,
      "velocity": 93,
      "chip": "ym2612"
    },
    {
      "channel": 1,
      "note": 78,
      "start": 4.411,
      "duration": 0.0161,
      "velocity": 103,
      "chip": "ym2612"
    },
    {
      "channel": 0,
      "note": 72,
      "start": 4.4212,
      "duration": 0.0161,
      "velocity": 124,
      "chip": "ym2612"
    },
    {
      "channel": 4,
      "note": 83,
      "start": 4.4236,
      "duration": 0.0164,
      "velocity": 98,
      "chip": "ym2612"
    },
    {
      "channel": 3,
      "note": 87,
      "start": 4.4248,
      "duration": 0.0164,
      "velocity": 98,
      "chip": "ym2612"
    },
    {
      "channel": 2,
      "note": 59,
      "start": 4.4259,
      "duration": 0.0164,
      "velocity": 93,
      "chip": "ym2612"
    },
    {
      "channel": 1,
      "note": 78,
      "start": 4.4271,
      "duration": 0.0165,
      "velocity": 103,
      "chip": "ym2612"
    },
    {
      "channel": 0,
      "note": 70,
      "start": 4.4374,
      "duration": 0.0162,
      "velocity": 124,
      "chip": "ym2612"
    },
    {
      "channel": 5,
      "note": 78,
      "start": 4.4388,
      "duration": 0.0159,
      "velocity": 102,
      "chip": "ym2612"
    },
    {
      "channel": 4,
      "note": 83,
      "start": 4.44,
      "duration": 0.0159,
      "velocity": 98,
      "chip": "ym2612"
    },
    {
      "channel": 3,
      "note": 87,
      "start": 4.4412,
      "duration": 0.0158,
      "velocity": 98,
      "chip": "ym2612"
    },
    {
      "channel": 2,
      "note": 59,
      "start": 4.4423,
      "duration": 0.0159,
      "velocity": 93,
      "chip": "ym2612"
    },
    {
      "channel": 1,
      "note": 78,
      "start": 4.4435,
      "duration": 0.0159,
      "velocity": 103,
      "chip": "ym2612"
    },
    {
      "channel": 0,
      "note": 68,
      "start": 4.4535,
      "duration": 0.0163,
      "velocity": 124,
      "chip": "ym2612"
    },
    {
      "channel": 5,
      "note": 78,
      "start": 4.4547,
      "duration": 0.0163,
      "velocity": 102,
      "chip": "ym2612"
    },
    {
      "channel": 4,
      "note": 83,
      "start": 4.4559,
      "duration": 0.0163,
      "velocity": 98,
      "chip": "ym2612"
    },
    {
      "channel": 3,
      "note": 87,
      "start": 4.457,
      "duration": 0.0163,
      "velocity": 98,
      "chip": "ym2612"
    },
    {
      "channel": 2,
      "note": 59,
      "start": 4.4582,
      "duration": 0.0163,
      "velocity": 93,
      "chip": "ym2612"
    },
    {
      "channel": 1,
      "note": 78,
      "start": 4.4594,
      "duration": 0.0163,
      "velocity": 103,
      "chip": "ym2612"
    },
    {
      "channel": 0,
      "note": 65,
      "start": 4.4699,
      "duration": 0.0163,
      "velocity": 124,
      "chip": "ym2612"
    },
    {
      "channel": 5,
      "note": 78,
      "start": 4.4711,
      "duration": 0.0163,
      "velocity": 102,
      "chip": "ym2612"
    },
    {
      "channel": 4,
      "note": 83,
      "start": 4.4722,
      "duration": 0.0163,
      "velocity": 98,
      "chip": "ym2612"
    },
    {
      "channel": 3,
      "note": 87,
      "start": 4.4734,
      "duration": 0.0165,
      "velocity": 98,
      "chip": "ym2612"
    },
    {
      "channel": 2,
      "note": 59,
      "start": 4.4745,
      "duration": 0.0165,
      "velocity": 93,
      "chip": "ym2612"
    },
    {
      "channel": 1,
      "note": 78,
      "start": 4.4757,
      "duration": 0.0165,
      "velocity": 103,
      "chip": "ym2612"
    },
    {
      "channel": 0,
      "note": 63,
      "start": 4.4862,
      "duration": 0.0149,
      "velocity": 1,
      "chip": "ym2612"
    },
    {
      "channel": 5,
      "note": 78,
      "start": 4.4874,
      "duration": 0.0153,
      "velocity": 102,
      "chip": "ym2612"
    },
    {
      "channel": 4,
      "note": 83,
      "start": 4.4886,
      "duration": 0.0153,
      "velocity": 98,
      "chip": "ym2612"
    },
    {
      "channel": 3,
      "note": 87,
      "start": 4.4899,
      "duration": 0.0152,
      "velocity": 98,
      "chip": "ym2612"
    },
    {
      "channel": 2,
      "note": 59,
      "start": 4.4911,
      "duration": 0.0152,
      "velocity": 93,
      "chip": "ym2612"
    },
    {
      "channel": 1,
      "note": 78,
      "start": 4.4922,
      "duration": 0.0152,
      "velocity": 103,
      "chip": "ym2612"
    },
    {
      "channel": 5,
      "note": 78,
      "start": 4.5027,
      "duration": 0.0149,
      "velocity": 102,
      "chip": "ym2612"
    },
    {
      "channel": 4,
      "note": 83,
      "start": 4.5039,
      "duration": 0.0153,
      "velocity": 98,
      "chip": "ym2612"
    },
    {
      "channel": 3,
      "note": 87,
      "start": 4.5051,
      "duration": 0.0153,
      "velocity": 98,
      "chip": "ym2612"
    },
    {
      "channel": 2,
      "note": 59,
      "start": 4.5063,
      "duration": 0.0153,
      "velocity": 93,
      "chip": "ym2612"
    },
    {
      "channel": 5,
      "note": 78,
      "start": 4.5175,
      "duration": 0.016,
      "velocity": 102,
      "chip": "ym2612"
    },
    {
      "channel": 4,
      "note": 83,
      "start": 4.5191,
      "duration": 0.016,
      "velocity": 98,
      "chip": "ym2612"
    },
    {
      "channel": 3,
      "note": 87,
      "start": 4.5203,
      "duration": 0.016,
      "velocity": 98,
      "chip": "ym2612"
    },
    {
      "channel": 2,
      "note": 59,
      "start": 4.5215,
      "duration": 0.016,
      "velocity": 93,
      "chip": "ym2612"
    },
    {
      "channel": 5,
      "note": 78,
      "start": 4.5335,
      "duration": 0.0161,
      "velocity": 102,
      "chip": "ym2612"
    },
    {
      "channel": 4,
      "note": 83,
      "start": 4.5351,
      "duration": 0.0158,
      "velocity": 98,
      "chip": "ym2612"
    },
    {
      "channel": 3,
      "note": 87,
      "start": 4.5363,
      "duration": 0.0161,
      "velocity": 98,
      "chip": "ym2612"
    },
    {
      "channel": 2,
      "note": 59,
      "start": 4.5376,
      "duration": 0.016,
      "velocity": 93,
      "chip": "ym2612"
    },
    {
      "channel": 5,
      "note": 78,
      "start": 4.5496,
      "duration": 0.016,
      "velocity": 102,
      "chip": "ym2612"
    },
    {
      "channel": 4,
      "note": 83,
      "start": 4.5509,
      "duration": 0.0158,
      "velocity": 98,
      "chip": "ym2612"
    },
    {
      "channel": 3,
      "note": 87,
      "start": 4.5524,
      "duration": 0.016,
      "velocity": 98,
      "chip": "ym2612"
    },
    {
      "channel": 2,
      "note": 59,
      "start": 4.5536,
      "duration": 0.016,
      "velocity": 93,
      "chip": "ym2612"
    },
    {
      "channel": 5,
      "note": 78,
      "start": 4.5656,
      "duration": 0.0161,
      "velocity": 102,
      "chip": "ym2612"
    },
    {
      "channel": 4,
      "note": 83,
      "start": 4.5668,
      "duration": 0.0161,
      "velocity": 98,
      "chip": "ym2612"
    },
    {
      "channel": 3,
      "note": 87,
      "start": 4.5684,
      "duration": 0.0159,
      "velocity": 98,
      "chip": "ym2612"
    },
    {
      "channel": 2,
      "note": 59,
      "start": 4.5696,
      "duration": 0.0161,
      "velocity": 93,
      "chip": "ym2612"
    },
    {
      "channel": 5,
      "note": 78,
      "start": 4.5817,
      "duration": 0.0161,
      "velocity": 102,
      "chip": "ym2612"
    },
    {
      "channel": 4,
      "note": 83,
      "start": 4.5829,
      "duration": 0.0162,
      "velocity": 98,
      "chip": "ym2612"
    },
    {
      "channel": 3,
      "note": 87,
      "start": 4.5843,
      "duration": 0.016,
      "velocity": 98,
      "chip": "ym2612"
    },
    {
      "channel": 2,
      "note": 59,
      "start": 4.5858,
      "duration": 0.0162,
      "velocity": 93,
      "chip": "ym2612"
    },
    {
      "channel": 4,
      "note": 83,
      "start": 4.599,
      "duration": 0.0161,
      "velocity": 98,
      "chip": "ym2612"
    },
    {
      "channel": 3,
      "note": 87,
      "start": 4.6002,
      "duration": 0.0162,
      "velocity": 98,
      "chip": "ym2612"
    },
    {
      "channel": 2,
      "note": 59,
      "start": 4.602,
      "duration": 0.0162,
      "velocity": 93,
      "chip": "ym2612"
    },
    {
      "channel": 2,
      "note": 59,
      "start": 4.6182,
      "duration": 0.0207,
      "velocity": 93,
      "chip": "ym2612"
    },
    {
      "channel": 0,
      "note": 36,
      "start": 4.6324,
      "duration": 0.0143,
      "velocity": 115,
      "chip": "ym2612"
    },
    {
      "channel": 4,
      "note": 85,
      "start": 4.6359,
      "duration": 0.0133,
      "velocity": 98,
      "chip": "ym2612"
    },
    {
      "channel": 3,
      "note": 88,
      "start": 4.6374,
      "duration": 0.0129,
      "velocity": 98,
      "chip": "ym2612"
    },
    {
      "channel": 2,
      "note": 57,
      "start": 4.6388,
      "duration": 0.0133,
      "velocity": 93,
      "chip": "ym2612"
    },
    {
      "channel": 1,
      "note": 76,
      "start": 4.6405,
      "duration": 0.0129,
      "velocity": 103,
      "chip": "ym2612"
    },
    {
      "channel": 0,
      "note": 36,
      "start": 4.6467,
      "duration": 0.0161,
      "velocity": 115,
      "chip": "ym2612"
    },
    {
      "channel": 4,
      "note": 85,
      "start": 4.6491,
      "duration": 0.016,
      "velocity": 98,
      "chip": "ym2612"
    },
    {
      "channel": 3,
      "note": 88,
      "start": 4.6504,
      "duration": 0.0159,
      "velocity": 98,
      "chip": "ym2612"
    },
    {
      "channel": 2,
      "note": 57,
      "start": 4.6521,
      "duration": 0.0155,
      "velocity": 93,
      "chip": "ym2612"
    },
    {
      "channel": 1,
      "note": 76,
      "start": 4.6534,
      "duration": 0.0158,
      "velocity": 103,
      "chip": "ym2612"
    },
    {
      "channel": 0,
      "note": 37,
      "start": 4.6628,
      "duration": 0.0161,
      "velocity": 115,
      "chip": "ym2612"
    },
    {
      "channel": 4,
      "note": 85,
      "start": 4.6651,
      "duration": 0.0161,
      "velocity": 98,
      "chip": "ym2612"
    },
    {
      "channel": 3,
      "note": 88,
      "start": 4.6663,
      "duration": 0.0161,
      "velocity": 98,
      "chip": "ym2612"
    },
    {
      "channel": 2,
      "note": 57,
      "start": 4.6677,
      "duration": 0.0159,
      "velocity": 93,
      "chip": "ym2612"
    },
    {
      "channel": 1,
      "note": 76,
      "start": 4.6692,
      "duration": 0.016,
      "velocity": 103,
      "chip": "ym2612"
    },
    {
      "channel": 0,
      "note": 37,
      "start": 4.6788,
      "duration": 0.0161,
      "velocity": 115,
      "chip": "ym2612"
    },
    {
      "channel": 4,
      "note": 85,
      "start": 4.6812,
      "duration": 0.0162,
      "velocity": 98,
      "chip": "ym2612"
    },
    {
      "channel": 3,
      "note": 88,
      "start": 4.6824,
      "duration": 0.0161,
      "velocity": 98,
      "chip": "ym2612"
    },
    {
      "channel": 2,
      "note": 57,
      "start": 4.6836,
      "duration": 0.0161,
      "velocity": 93,
      "chip": "ym2612"
    },
    {
      "channel": 1,
      "note": 76,
      "start": 4.6852,
      "duration": 0.0158,
      "velocity": 103,
      "chip": "ym2612"
    },
    {
      "channel": 0,
      "note": 38,
      "start": 4.6949,
      "duration": 0.0161,
      "velocity": 115,
      "chip": "ym2612"
    },
    {
      "channel": 4,
      "note": 85,
      "start": 4.6974,
      "duration": 0.0161,
      "velocity": 98,
      "chip": "ym2612"
    },
    {
      "channel": 3,
      "note": 88,
      "start": 4.6985,
      "duration": 0.0161,
      "velocity": 98,
      "chip": "ym2612"
    },
    {
      "channel": 2,
      "note": 57,
      "start": 4.6997,
      "duration": 0.0161,
      "velocity": 93,
      "chip": "ym2612"
    },
    {
      "channel": 1,
      "note": 76,
      "start": 4.701,
      "duration": 0.0159,
      "velocity": 103,
      "chip": "ym2612"
    },
    {
      "channel": 0,
      "note": 38,
      "start": 4.711,
      "duration": 0.0161,
      "velocity": 115,
      "chip": "ym2612"
    },
    {
      "channel": 4,
      "note": 85,
      "start": 4.7134,
      "duration": 0.0165,
      "velocity": 98,
      "chip": "ym2612"
    },
    {
      "channel": 3,
      "note": 88,
      "start": 4.7146,
      "duration": 0.0165,
      "velocity": 98,
      "chip": "ym2612"
    },
    {
      "channel": 2,
      "note": 57,
      "start": 4.7157,
      "duration": 0.0165,
      "velocity": 93,
      "chip": "ym2612"
    },
    {
      "channel": 1,
      "note": 76,
      "start": 4.7169,
      "duration": 0.0165,
      "velocity": 103,
      "chip": "ym2612"
    },
    {
      "channel": 0,
      "note": 39,
      "start": 4.7271,
      "duration": 0.0161,
      "velocity": 115,
      "chip": "ym2612"
    },
    {
      "channel": 5,
      "note": 76,
      "start": 4.7288,
      "duration": 0.0156,
      "velocity": 102,
      "chip": "ym2612"
    },
    {
      "channel": 4,
      "note": 85,
      "start": 4.7299,
      "duration": 0.0157,
      "velocity": 98,
      "chip": "ym2612"
    },
    {
      "channel": 3,
      "note": 88,
      "start": 4.7311,
      "duration": 0.0157,
      "velocity": 98,
      "chip": "ym2612"
    },
    {
      "channel": 2,
      "note": 57,
      "start": 4.7322,
      "duration": 0.0157,
      "velocity": 93,
      "chip": "ym2612"
    },
    {
      "channel": 1,
      "note": 76,
      "start": 4.7334,
      "duration": 0.0157,
      "velocity": 103,
      "chip": "ym2612"
    },
    {
      "channel": 0,
      "note": 39,
      "start": 4.7432,
      "duration": 0.0161,
      "velocity": 115,
      "chip": "ym2612"
    },
    {
      "channel": 5,
      "note": 76,
      "start": 4.7444,
      "duration": 0.016,
      "velocity": 102,
      "chip": "ym2612"
    },
    {
      "channel": 4,
      "note": 85,
      "start": 4.7456,
      "duration": 0.016,
      "velocity": 98,
      "chip": "ym2612"
    },
    {
      "channel": 3,
      "note": 88,
      "start": 4.7468,
      "duration": 0.016,
      "velocity": 98,
      "chip": "ym2612"
    },
    {
      "channel": 2,
      "note": 57,
      "start": 4.7479,
      "duration": 0.016,
      "velocity": 93,
      "chip": "ym2612"
    },
    {
      "channel": 1,
      "note": 76,
      "start": 4.7491,
      "duration": 0.016,
      "velocity": 103,
      "chip": "ym2612"
    },
    {
      "channel": 0,
      "note": 40,
      "start": 4.7593,
      "duration": 0.0161,
      "velocity": 115,
      "chip": "ym2612"
    },
    {
      "channel": 5,
      "note": 76,
      "start": 4.7605,
      "duration": 0.0161,
      "velocity": 102,
      "chip": "ym2612"
    },
    {
      "channel": 4,
      "note": 85,
      "start": 4.7617,
      "duration": 0.0161,
      "velocity": 98,
      "chip": "ym2612"
    },
    {
      "channel": 3,
      "note": 88,
      "start": 4.7628,
      "duration": 0.0162,
      "velocity": 98,
      "chip": "ym2612"
    },
    {
      "channel": 2,
      "note": 57,
      "start": 4.764,
      "duration": 0.0163,
      "velocity": 93,
      "chip": "ym2612"
    },
    {
      "channel": 1,
      "note": 76,
      "start": 4.7652,
      "duration": 0.0163,
      "velocity": 103,
      "chip": "ym2612"
    },
    {
      "channel": 0,
      "note": 40,
      "start": 4.7754,
      "duration": 0.0161,
      "velocity": 115,
      "chip": "ym2612"
    },
    {
      "channel": 5,
      "note": 76,
      "start": 4.7766,
      "duration": 0.0161,
      "velocity": 102,
      "chip": "ym2612"
    },
    {
      "channel": 4,
      "note": 85,
      "start": 4.7778,
      "duration": 0.0161,
      "velocity": 98,
      "chip": "ym2612"
    },
    {
      "channel": 3,
      "note": 88,
      "start": 4.779,
      "duration": 0.0161,
      "velocity": 98,
      "chip": "ym2612"
    },
    {
      "channel": 2,
      "note": 57,
      "start": 4.7803,
      "duration": 0.016,
      "velocity": 93,
      "chip": "ym2612"
    },
    {
      "channel": 1,
      "note": 76,
      "start": 4.7815,
      "duration": 0.016,
      "velocity": 103,
      "chip": "ym2612"
    },
    {
      "channel": 0,
      "note": 40,
      "start": 4.7915,
      "duration": 0.0161,
      "velocity": 115,
      "chip": "ym2612"
    },
    {
      "channel": 5,
      "note": 76,
      "start": 4.7927,
      "duration": 0.0161,
      "velocity": 102,
      "chip": "ym2612"
    },
    {
      "channel": 4,
      "note": 85,
      "start": 4.7939,
      "duration": 0.0161,
      "velocity": 98,
      "chip": "ym2612"
    },
    {
      "channel": 3,
      "note": 88,
      "start": 4.7951,
      "duration": 0.0161,
      "velocity": 98,
      "chip": "ym2612"
    },
    {
      "channel": 2,
      "note": 57,
      "start": 4.7963,
      "duration": 0.0161,
      "velocity": 93,
      "chip": "ym2612"
    },
    {
      "channel": 0,
      "note": 41,
      "start": 4.8076,
      "duration": 0.0162,
      "velocity": 115,
      "chip": "ym2612"
    },
    {
      "channel": 5,
      "note": 76,
      "start": 4.8088,
      "duration": 0.0161,
      "velocity": 102,
      "chip": "ym2612"
    },
    {
      "channel": 4,
      "note": 85,
      "start": 4.81,
      "duration": 0.0161,
      "velocity": 98,
      "chip": "ym2612"
    },
    {
      "channel": 3,
      "note": 88,
      "start": 4.8112,
      "duration": 0.016,
      "velocity": 98,
      "chip": "ym2612"
    },
    {
      "channel": 2,
      "note": 57,
      "start": 4.8124,
      "duration": 0.016,
      "velocity": 93,
      "chip": "ym2612"
    },
    {
      "channel": 0,
      "note": 41,
      "start": 4.8238,
      "duration": 0.0161,
      "velocity": 115,
      "chip": "ym2612"
    },
    {
      "channel": 5,
      "note": 76,
      "start": 4.825,
      "duration": 0.0161,
      "velocity": 102,
      "chip": "ym2612"
    },
    {
      "channel": 4,
      "note": 85,
      "start": 4.8261,
      "duration": 0.0161,
      "velocity": 98,
      "chip": "ym2612"
    },
    {
      "channel": 3,
      "note": 88,
      "start": 4.8273,
      "duration": 0.0161,
      "velocity": 98,
      "chip": "ym2612"
    },
    {
      "channel": 2,
      "note": 57,
      "start": 4.8284,
      "duration": 0.0161,
      "velocity": 93,
      "chip": "ym2612"
    },
    {
      "channel": 0,
      "note": 42,
      "start": 4.8399,
      "duration": 0.0161,
      "velocity": 115,
      "chip": "ym2612"
    },
    {
      "channel": 5,
      "note": 76,
      "start": 4.8411,
      "duration": 0.016,
      "velocity": 102,
      "chip": "ym2612"
    },
    {
      "channel": 4,
      "note": 85,
      "start": 4.8422,
      "duration": 0.016,
      "velocity": 98,
      "chip": "ym2612"
    },
    {
      "channel": 3,
      "note": 88,
      "start": 4.8434,
      "duration": 0.016,
      "velocity": 98,
      "chip": "ym2612"
    },
    {
      "channel": 2,
      "note": 57,
      "start": 4.8445,
      "duration": 0.0161,
      "velocity": 93,
      "chip": "ym2612"
    },
    {
      "channel": 0,
      "note": 42,
      "start": 4.8559,
      "duration": 0.0161,
      "velocity": 115,
      "chip": "ym2612"
    },
    {
      "channel": 5,
      "note": 76,
      "start": 4.8571,
      "duration": 0.0161,
      "velocity": 102,
      "chip": "ym2612"
    },
    {
      "channel": 4,
      "note": 85,
      "start": 4.8582,
      "duration": 0.0161,
      "velocity": 98,
      "chip": "ym2612"
    },
    {
      "channel": 3,
      "note": 88,
      "start": 4.8594,
      "duration": 0.0161,
      "velocity": 98,
      "chip": "ym2612"
    },
    {
      "channel": 2,
      "note": 57,
      "start": 4.8606,
      "duration": 0.0161,
      "velocity": 93,
      "chip": "ym2612"
    },
    {
      "channel": 0,
      "note": 43,
      "start": 4.872,
      "duration": 0.0161,
      "velocity": 115,
      "chip": "ym2612"
    },
    {
      "channel": 5,
      "note": 76,
      "start": 4.8732,
      "duration": 0.0161,
      "velocity": 102,
      "chip": "ym2612"
    },
    {
      "channel": 4,
      "note": 85,
      "start": 4.8743,
      "duration": 0.0162,
      "velocity": 98,
      "chip": "ym2612"
    },
    {
      "channel": 3,
      "note": 88,
      "start": 4.8755,
      "duration": 0.0163,
      "velocity": 98,
      "chip": "ym2612"
    },
    {
      "channel": 2,
      "note": 57,
      "start": 4.8767,
      "duration": 0.0163,
      "velocity": 93,
      "chip": "ym2612"
    },
    {
      "channel": 0,
      "note": 43,
      "start": 4.8881,
      "duration": 0.0161,
      "velocity": 115,
      "chip": "ym2612"
    },
    {
      "channel": 4,
      "note": 85,
      "start": 4.8906,
      "duration": 0.0161,
      "velocity": 98,
      "chip": "ym2612"
    },
    {
      "channel": 3,
      "note": 88,
      "start": 4.8918,
      "duration": 0.0161,
      "velocity": 98,
      "chip": "ym2612"
    },
    {
      "channel": 2,
      "note": 57,
      "start": 4.893,
      "duration": 0.0162,
      "velocity": 93,
      "chip": "ym2612"
    },
    {
      "channel": 0,
      "note": 44,
      "start": 4.9042,
      "duration": 0.018,
      "velocity": 124,
      "chip": "ym2612"
    },
    {
      "channel": 2,
      "note": 57,
      "start": 4.9091,
      "duration": 0.0188,
      "velocity": 93,
      "chip": "ym2612"
    },
    {
      "channel": 0,
      "note": 84,
      "start": 4.9223,
      "duration": 0.0146,
      "velocity": 124,
      "chip": "ym2612"
    },
    {
      "channel": 4,
      "note": 85,
      "start": 4.925,
      "duration": 0.0143,
      "velocity": 98,
      "chip": "ym2612"
    },
    {
      "channel": 3,
      "note": 88,
      "start": 4.9265,
      "duration": 0.0141,
      "velocity": 98,
      "chip": "ym2612"
    },
    {
      "channel": 2,
      "note": 52,
      "start": 4.928,
      "duration": 0.0138,
      "velocity": 93,
      "chip": "ym2612"
    },
    {
      "channel": 1,
      "note": 78,
      "start": 4.9295,
      "duration": 0.0135,
      "velocity": 103,
      "chip": "ym2612"
    },
    {
      "channel": 0,
      "note": 82,
      "start": 4.9369,
      "duration": 0.0163,
      "velocity": 124,
      "chip": "ym2612"
    },
    {
      "channel": 4,
      "note": 85,
      "start": 4.9393,
      "duration": 0.0162,
      "velocity": 98,
      "chip": "ym2612"
    },
    {
      "channel": 3,
      "note": 88,
      "start": 4.9406,
      "duration": 0.0161,
      "velocity": 98,
      "chip": "ym2612"
    },
    {
      "channel": 2,
      "note": 52,
      "start": 4.9418,
      "duration": 0.0161,
      "velocity": 93,
      "chip": "ym2612"
    },
    {
      "channel": 1,
      "note": 78,
      "start": 4.943,
      "duration": 0.016,
      "velocity": 103,
      "chip": "ym2612"
    },
    {
      "channel": 0,
      "note": 80,
      "start": 4.9532,
      "duration": 0.0161,
      "velocity": 124,
      "chip": "ym2612"
    },
    {
      "channel": 4,
      "note": 85,
      "start": 4.9556,
      "duration": 0.0161,
      "velocity": 98,
      "chip": "ym2612"
    },
    {
      "channel": 3,
      "note": 88,
      "start": 4.9567,
      "duration": 0.0161,
      "velocity": 98,
      "chip": "ym2612"
    },
    {
      "channel": 2,
      "note": 52,
      "start": 4.9579,
      "duration": 0.0161,
      "velocity": 93,
      "chip": "ym2612"
    },
    {
      "channel": 1,
      "note": 78,
      "start": 4.959,
      "duration": 0.0161,
      "velocity": 103,
      "chip": "ym2612"
    },
    {
      "channel": 0,
      "note": 77,
      "start": 4.9693,
      "duration": 0.016,
      "velocity": 124,
      "chip": "ym2612"
    },
    {
      "channel": 4,
      "note": 85,
      "start": 4.9717,
      "duration": 0.0161,
      "velocity": 98,
      "chip": "ym2612"
    },
    {
      "channel": 3,
      "note": 88,
      "start": 4.9728,
      "duration": 0.0161,
      "velocity": 98,
      "chip": "ym2612"
    },
    {
      "channel": 2,
      "note": 52,
      "start": 4.9739,
      "duration": 0.0162,
      "velocity": 93,
      "chip": "ym2612"
    },
    {
      "channel": 1,
      "note": 78,
      "start": 4.9751,
      "duration": 0.0161,
      "velocity": 103,
      "chip": "ym2612"
    },
    {
      "channel": 0,
      "note": 75,
      "start": 4.9853,
      "duration": 0.0158,
      "velocity": 124,
      "chip": "ym2612"
    },
    {
      "channel": 4,
      "note": 85,
      "start": 4.9878,
      "duration": 0.0161,
      "velocity": 98,
      "chip": "ym2612"
    },
    {
      "channel": 3,
      "note": 88,
      "start": 4.9889,
      "duration": 0.0161,
      "velocity": 98,
      "chip": "ym2612"
    },
    {
      "channel": 2,
      "note": 52,
      "start": 4.9901,
      "duration": 0.016,
      "velocity": 93,
      "chip": "ym2612"
    },
    {
      "channel": 1,
      "note": 78,
      "start": 4.9912,
      "duration": 0.016,
      "velocity": 103,
      "chip": "ym2612"
    },
    {
      "channel": 0,
      "note": 72,
      "start": 5.001,
      "duration": 0.0159,
      "velocity": 124,
      "chip": "ym2612"
    },
    {
      "channel": 4,
      "note": 85,
      "start": 5.0039,
      "duration": 0.0163,
      "velocity": 98,
      "chip": "ym2612"
    },
    {
      "channel": 3,
      "note": 88,
      "start": 5.005,
      "duration": 0.0163,
      "velocity": 98,
      "chip": "ym2612"
    },
    {
      "channel": 2,
      "note": 52,
      "start": 5.0061,
      "duration": 0.0163,
      "velocity": 93,
      "chip": "ym2612"
    },
    {
      "channel": 1,
      "note": 78,
      "start": 5.0073,
      "duration": 0.0164,
      "velocity": 103,
      "chip": "ym2612"
    },
    {
      "channel": 0,
      "note": 70,
      "start": 5.017,
      "duration": 0.0161,
      "velocity": 124,
      "chip": "ym2612"
    },
    {
      "channel": 5,
      "note": 78,
      "start": 5.019,
      "duration": 0.0158,
      "velocity": 102,
      "chip": "ym2612"
    },
    {
      "channel": 4,
      "note": 85,
      "start": 5.0202,
      "duration": 0.0158,
      "velocity": 98,
      "chip": "ym2612"
    },
    {
      "channel": 3,
      "note": 88,
      "start": 5.0213,
      "duration": 0.0159,
      "velocity": 98,
      "chip": "ym2612"
    },
    {
      "channel": 2,
      "note": 52,
      "start": 5.0225,
      "duration": 0.0158,
      "velocity": 93,
      "chip": "ym2612"
    },
    {
      "channel": 1,
      "note": 78,
      "start": 5.0237,
      "duration": 0.0158,
      "velocity": 103,
      "chip": "ym2612"
    },
    {
      "channel": 0,
      "note": 68,
      "start": 5.0331,
      "duration": 0.0161,
      "velocity": 124,
      "chip": "ym2612"
    },
    {
      "channel": 5,
      "note": 78,
      "start": 5.0348,
      "duration": 0.0155,
      "velocity": 102,
      "chip": "ym2612"
    },
    {
      "channel": 4,
      "note": 85,
      "start": 5.036,
      "duration": 0.016,
      "velocity": 98,
      "chip": "ym2612"
    },
    {
      "channel": 3,
      "note": 88,
      "start": 5.0372,
      "duration": 0.016,
      "velocity": 98,
      "chip": "ym2612"
    },
    {
      "channel": 2,
      "note": 52,
      "start": 5.0383,
      "duration": 0.016,
      "velocity": 93,
      "chip": "ym2612"
    },
    {
      "channel": 1,
      "note": 78,
      "start": 5.0395,
      "duration": 0.016,
      "velocity": 103,
      "chip": "ym2612"
    },
    {
      "channel": 0,
      "note": 65,
      "start": 5.0491,
      "duration": 0.0161,
      "velocity": 124,
      "chip": "ym2612"
    },
    {
      "channel": 5,
      "note": 78,
      "start": 5.0503,
      "duration": 0.0161,
      "velocity": 102,
      "chip": "ym2612"
    },
    {
      "channel": 4,
      "note": 85,
      "start": 5.052,
      "duration": 0.0162,
      "velocity": 98,
      "chip": "ym2612"
    },
    {
      "channel": 3,
      "note": 88,
      "start": 5.0532,
      "duration": 0.0162,
      "velocity": 98,
      "chip": "ym2612"
    },
    {
      "channel": 2,
      "note": 52,
      "start": 5.0544,
      "duration": 0.0163,
      "velocity": 93,
      "chip": "ym2612"
    },
    {
      "channel": 1,
      "note": 78,
      "start": 5.0555,
      "duration": 0.0164,
      "velocity": 103,
      "chip": "ym2612"
    },
    {
      "channel": 0,
      "note": 63,
      "start": 5.0652,
      "duration": 0.0153,
      "velocity": 1,
      "chip": "ym2612"
    },
    {
      "channel": 5,
      "note": 78,
      "start": 5.0664,
      "duration": 0.0153,
      "velocity": 102,
      "chip": "ym2612"
    },
    {
      "channel": 4,
      "note": 85,
      "start": 5.0682,
      "duration": 0.0148,
      "velocity": 98,
      "chip": "ym2612"
    },
    {
      "channel": 3,
      "note": 88,
      "start": 5.0694,
      "duration": 0.0149,
      "velocity": 98,
      "chip": "ym2612"
    },
    {
      "channel": 2,
      "note": 52,
      "start": 5.0707,
      "duration": 0.0152,
      "velocity": 93,
      "chip": "ym2612"
    },
    {
      "channel": 1,
      "note": 78,
      "start": 5.0719,
      "duration": 0.0152,
      "velocity": 103,
      "chip": "ym2612"
    },
    {
      "channel": 5,
      "note": 78,
      "start": 5.0817,
      "duration": 0.0152,
      "velocity": 102,
      "chip": "ym2612"
    },
    {
      "channel": 4,
      "note": 85,
      "start": 5.0829,
      "duration": 0.0153,
      "velocity": 98,
      "chip": "ym2612"
    },
    {
      "channel": 3,
      "note": 88,
      "start": 5.0843,
      "duration": 0.0151,
      "velocity": 98,
      "chip": "ym2612"
    },
    {
      "channel": 2,
      "note": 52,
      "start": 5.0859,
      "duration": 0.0149,
      "velocity": 93,
      "chip": "ym2612"
    },
    {
      "channel": 5,
      "note": 78,
      "start": 5.0969,
      "duration": 0.0161,
      "velocity": 102,
      "chip": "ym2612"
    },
    {
      "channel": 4,
      "note": 85,
      "start": 5.0982,
      "duration": 0.016,
      "velocity": 98,
      "chip": "ym2612"
    },
    {
      "channel": 3,
      "note": 88,
      "start": 5.0994,
      "duration": 0.016,
      "velocity": 98,
      "chip": "ym2612"
    },
    {
      "channel": 2,
      "note": 52,
      "start": 5.1008,
      "duration": 0.0157,
      "velocity": 93,
      "chip": "ym2612"
    },
    {
      "channel": 5,
      "note": 78,
      "start": 5.113,
      "duration": 0.0161,
      "velocity": 102,
      "chip": "ym2612"
    },
    {
      "channel": 4,
      "note": 85,
      "start": 5.1142,
      "duration": 0.0161,
      "velocity": 98,
      "chip": "ym2612"
    },
    {
      "channel": 3,
      "note": 88,
      "start": 5.1154,
      "duration": 0.0161,
      "velocity": 98,
      "chip": "ym2612"
    },
    {
      "channel": 2,
      "note": 52,
      "start": 5.1165,
      "duration": 0.0161,
      "velocity": 93,
      "chip": "ym2612"
    },
    {
      "channel": 1,
      "note": 76,
      "start": 5.1185,
      "duration": 0.0153,
      "velocity": 103,
      "chip": "ym2612"
    },
    {
      "channel": 5,
      "note": 78,
      "start": 5.1292,
      "duration": 0.0161,
      "velocity": 102,
      "chip": "ym2612"
    },
    {
      "channel": 4,
      "note": 85,
      "start": 5.1303,
      "duration": 0.0161,
      "velocity": 98,
      "chip": "ym2612"
    },
    {
      "channel": 3,
      "note": 88,
      "start": 5.1315,
      "duration": 0.0161,
      "velocity": 98,
      "chip": "ym2612"
    },
    {
      "channel": 2,
      "note": 52,
      "start": 5.1326,
      "duration": 0.0161,
      "velocity": 93,
      "chip": "ym2612"
    },
    {
      "channel": 1,
      "note": 76,
      "start": 5.1338,
      "duration": 0.016,
      "velocity": 103,
      "chip": "ym2612"
    },
    {
      "channel": 5,
      "note": 78,
      "start": 5.1453,
      "duration": 0.0162,
      "velocity": 102,
      "chip": "ym2612"
    },
    {
      "channel": 4,
      "note": 85,
      "start": 5.1464,
      "duration": 0.0161,
      "velocity": 98,
      "chip": "ym2612"
    },
    {
      "channel": 3,
      "note": 88,
      "start": 5.1476,
      "duration": 0.0162,
      "velocity": 98,
      "chip": "ym2612"
    },
    {
      "channel": 2,
      "note": 52,
      "start": 5.1487,
      "duration": 0.0161,
      "velocity": 93,
      "chip": "ym2612"
    },
    {
      "channel": 1,
      "note": 76,
      "start": 5.1498,
      "duration": 0.0162,
      "velocity": 103,
      "chip": "ym2612"
    },
    {
      "channel": 5,
      "note": 78,
      "start": 5.1614,
      "duration": 0.0161,
      "velocity": 102,
      "chip": "ym2612"
    },
    {
      "channel": 4,
      "note": 85,
      "start": 5.1626,
      "duration": 0.0162,
      "velocity": 98,
      "chip": "ym2612"
    },
    {
      "channel": 3,
      "note": 88,
      "start": 5.1637,
      "duration": 0.0162,
      "velocity": 98,
      "chip": "ym2612"
    },
    {
      "channel": 2,
      "note": 52,
      "start": 5.1649,
      "duration": 0.0163,
      "velocity": 93,
      "chip": "ym2612"
    },
    {
      "channel": 1,
      "note": 76,
      "start": 5.166,
      "duration": 0.0163,
      "velocity": 103,
      "chip": "ym2612"
    },
    {
      "channel": 4,
      "note": 85,
      "start": 5.1787,
      "duration": 0.0161,
      "velocity": 98,
      "chip": "ym2612"
    },
    {
      "channel": 3,
      "note": 88,
      "start": 5.1799,
      "duration": 0.0161,
      "velocity": 98,
      "chip": "ym2612"
    },
    {
      "channel": 2,
      "note": 52,
      "start": 5.1812,
      "duration": 0.0161,
      "velocity": 93,
      "chip": "ym2612"
    },
    {
      "channel": 2,
      "note": 52,
      "start": 5.1973,
      "duration": 0.0212,
      "velocity": 93,
      "chip": "ym2612"
    },
    {
      "channel": 0,
      "note": 36,
      "start": 5.212,
      "duration": 0.0143,
      "velocity": 115,
      "chip": "ym2612"
    },
    {
      "channel": 5,
      "note": 76,
      "start": 5.2135,
      "duration": 0.0141,
      "velocity": 102,
      "chip": "ym2612"
    },
    {
      "channel": 4,
      "note": 85,
      "start": 5.2151,
      "duration": 0.0137,
      "velocity": 98,
      "chip": "ym2612"
    },
    {
      "channel": 3,
      "note": 88,
      "start": 5.2166,
      "duration": 0.0134,
      "velocity": 98,
      "chip": "ym2612"
    },
    {
      "channel": 2,
      "note": 57,
      "start": 5.2185,
      "duration": 0.0127,
      "velocity": 93,
      "chip": "ym2612"
    },
    {
      "channel": 1,
      "note": 80,
      "start": 5.2201,
      "duration": 0.0123,
      "velocity": 103,
      "chip": "ym2612"
    },
    {
      "channel": 0,
      "note": 36,
      "start": 5.2263,
      "duration": 0.016,
      "velocity": 115,
      "chip": "ym2612"
    },
    {
      "channel": 5,
      "note": 76,
      "start": 5.2276,
      "duration": 0.016,
      "velocity": 102,
      "chip": "ym2612"
    },
    {
      "channel": 4,
      "note": 85,
      "start": 5.2288,
      "duration": 0.0159,
      "velocity": 98,
      "chip": "ym2612"
    },
    {
      "channel": 3,
      "note": 88,
      "start": 5.23,
      "duration": 0.0158,
      "velocity": 98,
      "chip": "ym2612"
    },
    {
      "channel": 2,
      "note": 57,
      "start": 5.2312,
      "duration": 0.0158,
      "velocity": 93,
      "chip": "ym2612"
    },
    {
      "channel": 1,
      "note": 80,
      "start": 5.2324,
      "duration": 0.0157,
      "velocity": 103,
      "chip": "ym2612"
    },
    {
      "channel": 0,
      "note": 37,
      "start": 5.2423,
      "duration": 0.0162,
      "velocity": 115,
      "chip": "ym2612"
    },
    {
      "channel": 5,
      "note": 76,
      "start": 5.2435,
      "duration": 0.0161,
      "velocity": 102,
      "chip": "ym2612"
    },
    {
      "channel": 4,
      "note": 85,
      "start": 5.2447,
      "duration": 0.0161,
      "velocity": 98,
      "chip": "ym2612"
    },
    {
      "channel": 3,
      "note": 88,
      "start": 5.2458,
      "duration": 0.0161,
      "velocity": 98,
      "chip": "ym2612"
    },
    {
      "channel": 2,
      "note": 57,
      "start": 5.247,
      "duration": 0.0161,
      "velocity": 93,
      "chip": "ym2612"
    },
    {
      "channel": 1,
      "note": 80,
      "start": 5.2481,
      "duration": 0.0161,
      "velocity": 103,
      "chip": "ym2612"
    },
    {
      "channel": 0,
      "note": 37,
      "start": 5.2585,
      "duration": 0.0161,
      "velocity": 115,
      "chip": "ym2612"
    },
    {
      "channel": 5,
      "note": 76,
      "start": 5.2596,
      "duration": 0.0161,
      "velocity": 102,
      "chip": "ym2612"
    },
    {
      "channel": 4,
      "note": 85,
      "start": 5.2608,
      "duration": 0.0161,
      "velocity": 98,
      "chip": "ym2612"
    },
    {
      "channel": 3,
      "note": 88,
      "start": 5.2619,
      "duration": 0.0161,
      "velocity": 98,
      "chip": "ym2612"
    },
    {
      "channel": 2,
      "note": 57,
      "start": 5.2631,
      "duration": 0.0161,
      "velocity": 93,
      "chip": "ym2612"
    },
    {
      "channel": 1,
      "note": 80,
      "start": 5.2642,
      "duration": 0.0162,
      "velocity": 103,
      "chip": "ym2612"
    },
    {
      "channel": 0,
      "note": 38,
      "start": 5.2746,
      "duration": 0.0161,
      "velocity": 115,
      "chip": "ym2612"
    },
    {
      "channel": 4,
      "note": 85,
      "start": 5.2769,
      "duration": 0.0161,
      "velocity": 98,
      "chip": "ym2612"
    },
    {
      "channel": 3,
      "note": 88,
      "start": 5.278,
      "duration": 0.0161,
      "velocity": 98,
      "chip": "ym2612"
    },
    {
      "channel": 2,
      "note": 57,
      "start": 5.2792,
      "duration": 0.0161,
      "velocity": 93,
      "chip": "ym2612"
    },
    {
      "channel": 1,
      "note": 80,
      "start": 5.2804,
      "duration": 0.0161,
      "velocity": 103,
      "chip": "ym2612"
    },
    {
      "channel": 0,
      "note": 38,
      "start": 5.2907,
      "duration": 0.0161,
      "velocity": 115,
      "chip": "ym2612"
    },
    {
      "channel": 4,
      "note": 85,
      "start": 5.293,
      "duration": 0.0165,
      "velocity": 98,
      "chip": "ym2612"
    },
    {
      "channel": 3,
      "note": 88,
      "start": 5.2941,
      "duration": 0.0165,
      "velocity": 98,
      "chip": "ym2612"
    },
    {
      "channel": 2,
      "note": 57,
      "start": 5.2953,
      "duration": 0.0165,
      "velocity": 93,
      "chip": "ym2612"
    },
    {
      "channel": 1,
      "note": 80,
      "start": 5.2965,
      "duration": 0.0164,
      "velocity": 103,
      "chip": "ym2612"
    },
    {
      "channel": 0,
      "note": 39,
      "start": 5.3068,
      "duration": 0.0161,
      "velocity": 115,
      "chip": "ym2612"
    },
    {
      "channel": 5,
      "note": 80,
      "start": 5.3082,
      "duration": 0.0159,
      "velocity": 102,
      "chip": "ym2612"
    },
    {
      "channel": 4,
      "note": 85,
      "start": 5.3095,
      "duration": 0.0158,
      "velocity": 98,
      "chip": "ym2612"
    },
    {
      "channel": 3,
      "note": 88,
      "start": 5.3106,
      "duration": 0.0158,
      "velocity": 98,
      "chip": "ym2612"
    },
    {
      "channel": 2,
      "note": 57,
      "start": 5.3117,
      "duration": 0.0158,
      "velocity": 93,
      "chip": "ym2612"
    },
    {
      "channel": 1,
      "note": 80,
      "start": 5.3129,
      "duration": 0.0159,
      "velocity": 103,
      "chip": "ym2612"
    },
    {
      "channel": 0,
      "note": 39,
      "start": 5.3229,
      "duration": 0.0161,
      "velocity": 115,
      "chip": "ym2612"
    },
    {
      "channel": 5,
      "note": 80,
      "start": 5.3241,
      "duration": 0.016,
      "velocity": 102,
      "chip": "ym2612"
    },
    {
      "channel": 4,
      "note": 85,
      "start": 5.3252,
      "duration": 0.0161,
      "velocity": 98,
      "chip": "ym2612"
    },
    {
      "channel": 3,
      "note": 88,
      "start": 5.3264,
      "duration": 0.0161,
      "velocity": 98,
      "chip": "ym2612"
    },
    {
      "channel": 2,
      "note": 57,
      "start": 5.3276,
      "duration": 0.016,
      "velocity": 93,
      "chip": "ym2612"
    },
    {
      "channel": 1,
      "note": 80,
      "start": 5.3287,
      "duration": 0.016,
      "velocity": 103,
      "chip": "ym2612"
    },
    {
      "channel": 0,
      "note": 40,
      "start": 5.339,
      "duration": 0.0161,
      "velocity": 115,
      "chip": "ym2612"
    },
    {
      "channel": 5,
      "note": 80,
      "start": 5.3401,
      "duration": 0.0161,
      "velocity": 102,
      "chip": "ym2612"
    },
    {
      "channel": 4,
      "note": 85,
      "start": 5.3413,
      "duration": 0.0162,
      "velocity": 98,
      "chip": "ym2612"
    },
    {
      "channel": 3,
      "note": 88,
      "start": 5.3425,
      "duration": 0.0162,
      "velocity": 98,
      "chip": "ym2612"
    },
    {
      "channel": 2,
      "note": 57,
      "start": 5.3436,
      "duration": 0.0163,
      "velocity": 93,
      "chip": "ym2612"
    },
    {
      "channel": 1,
      "note": 80,
      "start": 5.3448,
      "duration": 0.0163,
      "velocity": 103,
      "chip": "ym2612"
    },
    {
      "channel": 0,
      "note": 40,
      "start": 5.3551,
      "duration": 0.0161,
      "velocity": 115,
      "chip": "ym2612"
    },
    {
      "channel": 5,
      "note": 80,
      "start": 5.3562,
      "duration": 0.0161,
      "velocity": 102,
      "chip": "ym2612"
    },
    {
      "channel": 4,
      "note": 85,
      "start": 5.3575,
      "duration": 0.016,
      "velocity": 98,
      "chip": "ym2612"
    },
    {
      "channel": 3,
      "note": 88,
      "start": 5.3587,
      "duration": 0.016,
      "velocity": 98,
      "chip": "ym2612"
    },
    {
      "channel": 2,
      "note": 57,
      "start": 5.3599,
      "duration": 0.016,
      "velocity": 93,
      "chip": "ym2612"
    },
    {
      "channel": 1,
      "note": 80,
      "start": 5.3611,
      "duration": 0.016,
      "velocity": 103,
      "chip": "ym2612"
    },
    {
      "channel": 0,
      "note": 40,
      "start": 5.3712,
      "duration": 0.0161,
      "velocity": 115,
      "chip": "ym2612"
    },
    {
      "channel": 5,
      "note": 80,
      "start": 5.3723,
      "duration": 0.0162,
      "velocity": 102,
      "chip": "ym2612"
    },
    {
      "channel": 4,
      "note": 85,
      "start": 5.3735,
      "duration": 0.0162,
      "velocity": 98,
      "chip": "ym2612"
    },
    {
      "channel": 3,
      "note": 88,
      "start": 5.3747,
      "duration": 0.0162,
      "velocity": 98,
      "chip": "ym2612"
    },
    {
      "channel": 2,
      "note": 57,
      "start": 5.3759,
      "duration": 0.0162,
      "velocity": 93,
      "chip": "ym2612"
    },
    {
      "channel": 1,
      "note": 80,
      "start": 5.3771,
      "duration": 0.0162,
      "velocity": 103,
      "chip": "ym2612"
    },
    {
      "channel": 0,
      "note": 41,
      "start": 5.3873,
      "duration": 0.018,
      "velocity": 115,
      "chip": "ym2612"
    },
    {
      "channel": 5,
      "note": 80,
      "start": 5.3885,
      "duration": 0.018,
      "velocity": 102,
      "chip": "ym2612"
    },
    {
      "channel": 4,
      "note": 85,
      "start": 5.3897,
      "duration": 0.0179,
      "velocity": 98,
      "chip": "ym2612"
    },
    {
      "channel": 3,
      "note": 88,
      "start": 5.3909,
      "duration": 0.0179,
      "velocity": 98,
      "chip": "ym2612"
    },
    {
      "channel": 2,
      "note": 57,
      "start": 5.3922,
      "duration": 0.0178,
      "velocity": 93,
      "chip": "ym2612"
    },
    {
      "channel": 1,
      "note": 80,
      "start": 5.3933,
      "duration": 0.0178,
      "velocity": 103,
      "chip": "ym2612"
    },
    {
      "channel": 0,
      "note": 36,
      "start": 5.4054,
      "duration": 0.0146,
      "velocity": 115,
      "chip": "ym2612"
    },
    {
      "channel": 5,
      "note": 80,
      "start": 5.4065,
      "duration": 0.0146,
      "velocity": 102,
      "chip": "ym2612"
    },
    {
      "channel": 4,
      "note": 85,
      "start": 5.4077,
      "duration": 0.0146,
      "velocity": 98,
      "chip": "ym2612"
    },
    {
      "channel": 3,
      "note": 88,
      "start": 5.4088,
      "duration": 0.0146,
      "velocity": 98,
      "chip": "ym2612"
    },
    {
      "channel": 2,
      "note": 57,
      "start": 5.41,
      "duration": 0.0146,
      "velocity": 93,
      "chip": "ym2612"
    },
    {
      "channel": 1,
      "note": 80,
      "start": 5.4111,
      "duration": 0.0146,
      "velocity": 103,
      "chip": "ym2612"
    },
    {
      "channel": 0,
      "note": 36,
      "start": 5.42,
      "duration": 0.0162,
      "velocity": 115,
      "chip": "ym2612"
    },
    {
      "channel": 5,
      "note": 80,
      "start": 5.4211,
      "duration": 0.0162,
      "velocity": 102,
      "chip": "ym2612"
    },
    {
      "channel": 4,
      "note": 85,
      "start": 5.4222,
      "duration": 0.0162,
      "velocity": 98,
      "chip": "ym2612"
    },
    {
      "channel": 3,
      "note": 88,
      "start": 5.4234,
      "duration": 0.0163,
      "velocity": 98,
      "chip": "ym2612"
    },
    {
      "channel": 2,
      "note": 57,
      "start": 5.4246,
      "duration": 0.0162,
      "velocity": 93,
      "chip": "ym2612"
    },
    {
      "channel": 1,
      "note": 80,
      "start": 5.4257,
      "duration": 0.0162,
      "velocity": 103,
      "chip": "ym2612"
    },
    {
      "channel": 0,
      "note": 37,
      "start": 5.4362,
      "duration": 0.016,
      "velocity": 115,
      "chip": "ym2612"
    },
    {
      "channel": 5,
      "note": 80,
      "start": 5.4373,
      "duration": 0.0161,
      "velocity": 102,
      "chip": "ym2612"
    },
    {
      "channel": 4,
      "note": 85,
      "start": 5.4385,
      "duration": 0.0162,
      "velocity": 98,
      "chip": "ym2612"
    },
    {
      "channel": 3,
      "note": 88,
      "start": 5.4397,
      "duration": 0.0161,
      "velocity": 98,
      "chip": "ym2612"
    },
    {
      "channel": 2,
      "note": 57,
      "start": 5.4408,
      "duration": 0.0161,
      "velocity": 93,
      "chip": "ym2612"
    },
    {
      "channel": 1,
      "note": 80,
      "start": 5.442,
      "duration": 0.0162,
      "velocity": 103,
      "chip": "ym2612"
    },
    {
      "channel": 0,
      "note": 37,
      "start": 5.4522,
      "duration": 0.0161,
      "velocity": 115,
      "chip": "ym2612"
    },
    {
      "channel": 5,
      "note": 80,
      "start": 5.4534,
      "duration": 0.0161,
      "velocity": 102,
      "chip": "ym2612"
    },
    {
      "channel": 4,
      "note": 85,
      "start": 5.4546,
      "duration": 0.0161,
      "velocity": 98,
      "chip": "ym2612"
    },
    {
      "channel": 3,
      "note": 88,
      "start": 5.4558,
      "duration": 0.0162,
      "velocity": 98,
      "chip": "ym2612"
    },
    {
      "channel": 2,
      "note": 57,
      "start": 5.4569,
      "duration": 0.0163,
      "velocity": 93,
      "chip": "ym2612"
    },
    {
      "channel": 1,
      "note": 80,
      "start": 5.4581,
      "duration": 0.0163,
      "velocity": 103,
      "chip": "ym2612"
    },
    {
      "channel": 0,
      "note": 38,
      "start": 5.4683,
      "duration": 0.0158,
      "velocity": 115,
      "chip": "ym2612"
    },
    {
      "channel": 5,
      "note": 80,
      "start": 5.4695,
      "duration": 0.0162,
      "velocity": 102,
      "chip": "ym2612"
    },
    {
      "channel": 4,
      "note": 85,
      "start": 5.4708,
      "duration": 0.0161,
      "velocity": 98,
      "chip": "ym2612"
    },
    {
      "channel": 3,
      "note": 88,
      "start": 5.472,
      "duration": 0.0162,
      "velocity": 98,
      "chip": "ym2612"
    },
    {
      "channel": 2,
      "note": 57,
      "start": 5.4732,
      "duration": 0.0162,
      "velocity": 93,
      "chip": "ym2612"
    },
    {
      "channel": 0,
      "note": 38,
      "start": 5.4841,
      "duration": 0.0183,
      "velocity": 124,
      "chip": "ym2612"
    },
    {
      "channel": 5,
      "note": 80,
      "start": 5.4857,
      "duration": 0.0179,
      "velocity": 102,
      "chip": "ym2612"
    },
    {
      "channel": 2,
      "note": 57,
      "start": 5.4894,
      "duration": 0.0188,
      "velocity": 93,
      "chip": "ym2612"
    },
    {
      "channel": 0,
      "note": 84,
      "start": 5.5024,
      "duration": 0.0137,
      "velocity": 124,
      "chip": "ym2612"
    },
    {
      "channel": 5,
      "note": 80,
      "start": 5.5036,
      "duration": 0.0139,
      "velocity": 102,
      "chip": "ym2612"
    },
    {
      "channel": 4,
      "note": 85,
      "start": 5.5052,
      "duration": 0.0139,
      "velocity": 98,
      "chip": "ym2612"
    },
    {
      "channel": 3,
      "note": 88,
      "start": 5.5067,
      "duration": 0.0136,
      "velocity": 98,
      "chip": "ym2612"
    },
    {
      "channel": 2,
      "note": 57,
      "start": 5.5082,
      "duration": 0.0133,
      "velocity": 93,
      "chip": "ym2612"
    },
    {
      "channel": 1,
      "note": 78,
      "start": 5.5096,
      "duration": 0.0131,
      "velocity": 103,
      "chip": "ym2612"
    },
    {
      "channel": 0,
      "note": 82,
      "start": 5.5161,
      "duration": 0.0161,
      "velocity": 124,
      "chip": "ym2612"
    },
    {
      "channel": 5,
      "note": 80,
      "start": 5.5175,
      "duration": 0.0159,
      "velocity": 102,
      "chip": "ym2612"
    },
    {
      "channel": 4,
      "note": 85,
      "start": 5.5191,
      "duration": 0.0159,
      "velocity": 98,
      "chip": "ym2612"
    },
    {
      "channel": 3,
      "note": 88,
      "start": 5.5203,
      "duration": 0.0159,
      "velocity": 98,
      "chip": "ym2612"
    },
    {
      "channel": 2,
      "note": 57,
      "start": 5.5215,
      "duration": 0.0158,
      "velocity": 93,
      "chip": "ym2612"
    },
    {
      "channel": 1,
      "note": 78,
      "start": 5.5227,
      "duration": 0.0159,
      "velocity": 103,
      "chip": "ym2612"
    },
    {
      "channel": 0,
      "note": 80,
      "start": 5.5322,
      "duration": 0.0161,
      "velocity": 124,
      "chip": "ym2612"
    },
    {
      "channel": 5,
      "note": 80,
      "start": 5.5334,
      "duration": 0.0161,
      "velocity": 102,
      "chip": "ym2612"
    },
    {
      "channel": 4,
      "note": 85,
      "start": 5.535,
      "duration": 0.0159,
      "velocity": 98,
      "chip": "ym2612"
    },
    {
      "channel": 3,
      "note": 88,
      "start": 5.5362,
      "duration": 0.0162,
      "velocity": 98,
      "chip": "ym2612"
    },
    {
      "channel": 2,
      "note": 57,
      "start": 5.5374,
      "duration": 0.0162,
      "velocity": 93,
      "chip": "ym2612"
    },
    {
      "channel": 1,
      "note": 78,
      "start": 5.5386,
      "duration": 0.0161,
      "velocity": 103,
      "chip": "ym2612"
    },
    {
      "channel": 0,
      "note": 77,
      "start": 5.5483,
      "duration": 0.0161,
      "velocity": 124,
      "chip": "ym2612"
    },
    {
      "channel": 5,
      "note": 80,
      "start": 5.5495,
      "duration": 0.0161,
      "velocity": 102,
      "chip": "ym2612"
    },
    {
      "channel": 4,
      "note": 85,
      "start": 5.5509,
      "duration": 0.0158,
      "velocity": 98,
      "chip": "ym2612"
    },
    {
      "channel": 3,
      "note": 88,
      "start": 5.5524,
      "duration": 0.016,
      "velocity": 98,
      "chip": "ym2612"
    },
    {
      "channel": 2,
      "note": 57,
      "start": 5.5536,
      "duration": 0.0161,
      "velocity": 93,
      "chip": "ym2612"
    },
    {
      "channel": 1,
      "note": 78,
      "start": 5.5547,
      "duration": 0.0161,
      "velocity": 103,
      "chip": "ym2612"
    },
    {
      "channel": 0,
      "note": 75,
      "start": 5.5644,
      "duration": 0.0161,
      "velocity": 124,
      "chip": "ym2612"
    },
    {
      "channel": 4,
      "note": 85,
      "start": 5.5668,
      "duration": 0.016,
      "velocity": 98,
      "chip": "ym2612"
    },
    {
      "channel": 3,
      "note": 88,
      "start": 5.5685,
      "duration": 0.0157,
      "velocity": 98,
      "chip": "ym2612"
    },
    {
      "channel": 2,
      "note": 57,
      "start": 5.5697,
      "duration": 0.016,
      "velocity": 93,
      "chip": "ym2612"
    },
    {
      "channel": 1,
      "note": 78,
      "start": 5.5708,
      "duration": 0.016,
      "velocity": 103,
      "chip": "ym2612"
    },
    {
      "channel": 0,
      "note": 72,
      "start": 5.5805,
      "duration": 0.0161,
      "velocity": 124,
      "chip": "ym2612"
    },
    {
      "channel": 4,
      "note": 85,
      "start": 5.5828,
      "duration": 0.0164,
      "velocity": 98,
      "chip": "ym2612"
    },
    {
      "channel": 3,
      "note": 88,
      "start": 5.5842,
      "duration": 0.0162,
      "velocity": 98,
      "chip": "ym2612"
    },
    {
      "channel": 2,
      "note": 57,
      "start": 5.5857,
      "duration": 0.0164,
      "velocity": 93,
      "chip": "ym2612"
    },
    {
      "channel": 1,
      "note": 78,
      "start": 5.5869,
      "duration": 0.0164,
      "velocity": 103,
      "chip": "ym2612"
    },
    {
      "channel": 0,
      "note": 70,
      "start": 5.5966,
      "duration": 0.0161,
      "velocity": 124,
      "chip": "ym2612"
    },
    {
      "channel": 5,
      "note": 78,
      "start": 5.5981,
      "duration": 0.0158,
      "velocity": 102,
      "chip": "ym2612"
    },
    {
      "channel": 4,
      "note": 85,
      "start": 5.5992,
      "duration": 0.0159,
      "velocity": 98,
      "chip": "ym2612"
    },
    {
      "channel": 3,
      "note": 88,
      "start": 5.6004,
      "duration": 0.0158,
      "velocity": 98,
      "chip": "ym2612"
    },
    {
      "channel": 2,
      "note": 57,
      "start": 5.6021,
      "duration": 0.0154,
      "velocity": 93,
      "chip": "ym2612"
    },
    {
      "channel": 1,
      "note": 78,
      "start": 5.6033,
      "duration": 0.0158,
      "velocity": 103,
      "chip": "ym2612"
    },
    {
      "channel": 0,
      "note": 68,
      "start": 5.6127,
      "duration": 0.0161,
      "velocity": 124,
      "chip": "ym2612"
    },
    {
      "channel": 5,
      "note": 78,
      "start": 5.6139,
      "duration": 0.016,
      "velocity": 102,
      "chip": "ym2612"
    },
    {
      "channel": 4,
      "note": 85,
      "start": 5.6151,
      "duration": 0.0161,
      "velocity": 98,
      "chip": "ym2612"
    },
    {
      "channel": 3,
      "note": 88,
      "start": 5.6162,
      "duration": 0.0161,
      "velocity": 98,
      "chip": "ym2612"
    },
    {
      "channel": 2,
      "note": 57,
      "start": 5.6175,
      "duration": 0.0159,
      "velocity": 93,
      "chip": "ym2612"
    },
    {
      "channel": 1,
      "note": 78,
      "start": 5.619,
      "duration": 0.016,
      "velocity": 103,
      "chip": "ym2612"
    },
    {
      "channel": 0,
      "note": 65,
      "start": 5.6288,
      "duration": 0.0161,
      "velocity": 124,
      "chip": "ym2612"
    },
    {
      "channel": 5,
      "note": 78,
      "start": 5.6299,
      "duration": 0.0161,
      "velocity": 102,
      "chip": "ym2612"
    },
    {
      "channel": 4,
      "note": 85,
      "start": 5.6311,
      "duration": 0.0161,
      "velocity": 98,
      "chip": "ym2612"
    },
    {
      "channel": 3,
      "note": 88,
      "start": 5.6323,
      "duration": 0.0161,
      "velocity": 98,
      "chip": "ym2612"
    },
    {
      "channel": 2,
      "note": 57,
      "start": 5.6334,
      "duration": 0.0161,
      "velocity": 93,
      "chip": "ym2612"
    },
    {
      "channel": 1,
      "note": 78,
      "start": 5.6351,
      "duration": 0.0159,
      "velocity": 103,
      "chip": "ym2612"
    },
    {
      "channel": 0,
      "note": 63,
      "start": 5.6449,
      "duration": 0.0153,
      "velocity": 1,
      "chip": "ym2612"
    },
    {
      "channel": 5,
      "note": 78,
      "start": 5.646,
      "duration": 0.0153,
      "velocity": 102,
      "chip": "ym2612"
    },
    {
      "channel": 4,
      "note": 85,
      "start": 5.6472,
      "duration": 0.0153,
      "velocity": 98,
      "chip": "ym2612"
    },
    {
      "channel": 3,
      "note": 88,
      "start": 5.6484,
      "duration": 0.0153,
      "velocity": 98,
      "chip": "ym2612"
    },
    {
      "channel": 2,
      "note": 57,
      "start": 5.6495,
      "duration": 0.0153,
      "velocity": 93,
      "chip": "ym2612"
    },
    {
      "channel": 1,
      "note": 78,
      "start": 5.6509,
      "duration": 0.0151,
      "velocity": 103,
      "chip": "ym2612"
    },
    {
      "channel": 5,
      "note": 78,
      "start": 5.6614,
      "duration": 0.0152,
      "velocity": 102,
      "chip": "ym2612"
    },
    {
      "channel": 4,
      "note": 85,
      "start": 5.6625,
      "duration": 0.0153,
      "velocity": 98,
      "chip": "ym2612"
    },
    {
      "channel": 3,
      "note": 88,
      "start": 5.6637,
      "duration": 0.0153,
      "velocity": 98,
      "chip": "ym2612"
    },
    {
      "channel": 2,
      "note": 57,
      "start": 5.6648,
      "duration": 0.0153,
      "velocity": 93,
      "chip": "ym2612"
    },
    {
      "channel": 5,
      "note": 78,
      "start": 5.6766,
      "duration": 0.0161,
      "velocity": 102,
      "chip": "ym2612"
    },
    {
      "channel": 2,
      "note": 57,
      "start": 5.6801,
      "duration": 0.0172,
      "velocity": 93,
      "chip": "ym2612"
    },
    {
      "channel": 5,
      "note": 78,
      "start": 5.6927,
      "duration": 0.0162,
      "velocity": 102,
      "chip": "ym2612"
    },
    {
      "channel": 4,
      "note": 85,
      "start": 5.6942,
      "duration": 0.0158,
      "velocity": 98,
      "chip": "ym2612"
    },
    {
      "channel": 3,
      "note": 88,
      "start": 5.6958,
      "duration": 0.0154,
      "velocity": 98,
      "chip": "ym2612"
    },
    {
      "channel": 2,
      "note": 57,
      "start": 5.6973,
      "duration": 0.0151,
      "velocity": 93,
      "chip": "ym2612"
    },
    {
      "channel": 1,
      "note": 76,
      "start": 5.6988,
      "duration": 0.0148,
      "velocity": 103,
      "chip": "ym2612"
    },
    {
      "channel": 5,
      "note": 78,
      "start": 5.7088,
      "duration": 0.0161,
      "velocity": 102,
      "chip": "ym2612"
    },
    {
      "channel": 4,
      "note": 85,
      "start": 5.71,
      "duration": 0.016,
      "velocity": 98,
      "chip": "ym2612"
    },
    {
      "channel": 3,
      "note": 88,
      "start": 5.7112,
      "duration": 0.016,
      "velocity": 98,
      "chip": "ym2612"
    },
    {
      "channel": 2,
      "note": 57,
      "start": 5.7124,
      "duration": 0.0159,
      "velocity": 93,
      "chip": "ym2612"
    },
    {
      "channel": 1,
      "note": 76,
      "start": 5.7137,
      "duration": 0.0158,
      "velocity": 103,
      "chip": "ym2612"
    },
    {
      "channel": 5,
      "note": 78,
      "start": 5.7249,
      "duration": 0.0162,
      "velocity": 102,
      "chip": "ym2612"
    },
    {
      "channel": 4,
      "note": 85,
      "start": 5.7261,
      "duration": 0.0161,
      "velocity": 98,
      "chip": "ym2612"
    },
    {
      "channel": 3,
      "note": 88,
      "start": 5.7272,
      "duration": 0.0162,
      "velocity": 98,
      "chip": "ym2612"
    },
    {
      "channel": 2,
      "note": 57,
      "start": 5.7283,
      "duration": 0.0161,
      "velocity": 93,
      "chip": "ym2612"
    },
    {
      "channel": 1,
      "note": 76,
      "start": 5.7295,
      "duration": 0.0162,
      "velocity": 103,
      "chip": "ym2612"
    },
    {
      "channel": 5,
      "note": 78,
      "start": 5.7411,
      "duration": 0.0161,
      "velocity": 102,
      "chip": "ym2612"
    },
    {
      "channel": 4,
      "note": 85,
      "start": 5.7422,
      "duration": 0.0161,
      "velocity": 98,
      "chip": "ym2612"
    },
    {
      "channel": 3,
      "note": 88,
      "start": 5.7434,
      "duration": 0.0161,
      "velocity": 98,
      "chip": "ym2612"
    },
    {
      "channel": 2,
      "note": 57,
      "start": 5.7445,
      "duration": 0.0162,
      "velocity": 93,
      "chip": "ym2612"
    },
    {
      "channel": 1,
      "note": 76,
      "start": 5.7456,
      "duration": 0.0162,
      "velocity": 103,
      "chip": "ym2612"
    },
    {
      "channel": 4,
      "note": 85,
      "start": 5.7583,
      "duration": 0.016,
      "velocity": 98,
      "chip": "ym2612"
    },
    {
      "channel": 3,
      "note": 88,
      "start": 5.7595,
      "duration": 0.016,
      "velocity": 98,
      "chip": "ym2612"
    },
    {
      "channel": 2,
      "note": 57,
      "start": 5.7607,
      "duration": 0.016,
      "velocity": 93,
      "chip": "ym2612"
    },
    {
      "channel": 1,
      "note": 76,
      "start": 5.7618,
      "duration": 0.016,
      "velocity": 103,
      "chip": "ym2612"
    },
    {
      "channel": 4,
      "note": 85,
      "start": 5.7743,
      "duration": 0.02,
      "velocity": 98,
      "chip": "ym2612"
    },
    {
      "channel": 3,
      "note": 88,
      "start": 5.7755,
      "duration": 0.0202,
      "velocity": 98,
      "chip": "ym2612"
    },
    {
      "channel": 2,
      "note": 57,
      "start": 5.7766,
      "duration": 0.0202,
      "velocity": 93,
      "chip": "ym2612"
    },
    {
      "channel": 1,
      "note": 76,
      "start": 5.7778,
      "duration": 0.0202,
      "velocity": 103,
      "chip": "ym2612"
    },
    {
      "channel": 0,
      "note": 36,
      "start": 5.7916,
      "duration": 0.0143,
      "velocity": 115,
      "chip": "ym2612"
    },
    {
      "channel": 5,
      "note": 76,
      "start": 5.7932,
      "duration": 0.0141,
      "velocity": 102,
      "chip": "ym2612"
    },
    {
      "channel": 4,
      "note": 85,
      "start": 5.7944,
      "duration": 0.0141,
      "velocity": 98,
      "chip": "ym2612"
    },
    {
      "channel": 3,
      "note": 88,
      "start": 5.7956,
      "duration": 0.014,
      "velocity": 98,
      "chip": "ym2612"
    },
    {
      "channel": 2,
      "note": 57,
      "start": 5.7968,
      "duration": 0.014,
      "velocity": 93,
      "chip": "ym2612"
    },
    {
      "channel": 1,
      "note": 76,
      "start": 5.7981,
      "duration": 0.0139,
      "velocity": 103,
      "chip": "ym2612"
    },
    {
      "channel": 0,
      "note": 36,
      "start": 5.8059,
      "duration": 0.016,
      "velocity": 115,
      "chip": "ym2612"
    },
    {
      "channel": 5,
      "note": 76,
      "start": 5.8072,
      "duration": 0.016,
      "velocity": 102,
      "chip": "ym2612"
    },
    {
      "channel": 4,
      "note": 85,
      "start": 5.8084,
      "duration": 0.016,
      "velocity": 98,
      "chip": "ym2612"
    },
    {
      "channel": 3,
      "note": 88,
      "start": 5.8096,
      "duration": 0.016,
      "velocity": 98,
      "chip": "ym2612"
    },
    {
      "channel": 2,
      "note": 57,
      "start": 5.8108,
      "duration": 0.016,
      "velocity": 93,
      "chip": "ym2612"
    },
    {
      "channel": 1,
      "note": 76,
      "start": 5.812,
      "duration": 0.016,
      "velocity": 103,
      "chip": "ym2612"
    },
    {
      "channel": 0,
      "note": 37,
      "start": 5.822,
      "duration": 0.0161,
      "velocity": 115,
      "chip": "ym2612"
    },
    {
      "channel": 5,
      "note": 76,
      "start": 5.8232,
      "duration": 0.0161,
      "velocity": 102,
      "chip": "ym2612"
    },
    {
      "channel": 4,
      "note": 85,
      "start": 5.8244,
      "duration": 0.016,
      "velocity": 98,
      "chip": "ym2612"
    },
    {
      "channel": 3,
      "note": 88,
      "start": 5.8256,
      "duration": 0.016,
      "velocity": 98,
      "chip": "ym2612"
    },
    {
      "channel": 2,
      "note": 57,
      "start": 5.8268,
      "duration": 0.0159,
      "velocity": 93,
      "chip": "ym2612"
    },
    {
      "channel": 1,
      "note": 76,
      "start": 5.828,
      "duration": 0.0158,
      "velocity": 103,
      "chip": "ym2612"
    },
    {
      "channel": 0,
      "note": 37,
      "start": 5.8381,
      "duration": 0.0162,
      "velocity": 115,
      "chip": "ym2612"
    },
    {
      "channel": 5,
      "note": 76,
      "start": 5.8393,
      "duration": 0.0162,
      "velocity": 102,
      "chip": "ym2612"
    },
    {
      "channel": 4,
      "note": 85,
      "start": 5.8404,
      "duration": 0.0161,
      "velocity": 98,
      "chip": "ym2612"
    },
    {
      "channel": 3,
      "note": 88,
      "start": 5.8416,
      "duration": 0.0162,
      "velocity": 98,
      "chip": "ym2612"
    },
    {
      "channel": 2,
      "note": 57,
      "start": 5.8427,
      "duration": 0.0161,
      "velocity": 93,
      "chip": "ym2612"
    },
    {
      "channel": 1,
      "note": 76,
      "start": 5.8439,
      "duration": 0.0162,
      "velocity": 103,
      "chip": "ym2612"
    },
    {
      "channel": 0,
      "note": 38,
      "start": 5.8542,
      "duration": 0.0161,
      "velocity": 115,
      "chip": "ym2612"
    },
    {
      "channel": 5,
      "note": 76,
      "start": 5.8554,
      "duration": 0.0161,
      "velocity": 102,
      "chip": "ym2612"
    },
    {
      "channel": 4,
      "note": 85,
      "start": 5.8566,
      "duration": 0.0161,
      "velocity": 98,
      "chip": "ym2612"
    },
    {
      "channel": 3,
      "note": 88,
      "start": 5.8577,
      "duration": 0.0161,
      "velocity": 98,
      "chip": "ym2612"
    },
    {
      "channel": 2,
      "note": 57,
      "start": 5.8589,
      "duration": 0.0162,
      "velocity": 93,
      "chip": "ym2612"
    },
    {
      "channel": 0,
      "note": 38,
      "start": 5.8704,
      "duration": 0.0164,
      "velocity": 115,
      "chip": "ym2612"
    },
    {
      "channel": 5,
      "note": 76,
      "start": 5.8715,
      "duration": 0.0165,
      "velocity": 102,
      "chip": "ym2612"
    },
    {
      "channel": 2,
      "note": 57,
      "start": 5.875,
      "duration": 0.0168,
      "velocity": 93,
      "chip": "ym2612"
    },
    {
      "channel": 0,
      "note": 39,
      "start": 5.8868,
      "duration": 0.0163,
      "velocity": 115,
      "chip": "ym2612"
    },
    {
      "channel": 5,
      "note": 76,
      "start": 5.888,
      "duration": 0.0163,
      "velocity": 102,
      "chip": "ym2612"
    },
    {
      "channel": 2,
      "note": 57,
      "start": 5.8919,
      "duration": 0.0161,
      "velocity": 93,
      "chip": "ym2612"
    },
    {
      "channel": 0,
      "note": 39,
      "start": 5.9031,
      "duration": 0.0162,
      "velocity": 115,
      "chip": "ym2612"
    },
    {
      "channel": 5,
      "note": 76,
      "start": 5.9043,
      "duration": 0.0161,
      "velocity": 102,
      "chip": "ym2612"
    },
    {
      "channel": 2,
      "note": 57,
      "start": 5.908,
      "duration": 0.0161,
      "velocity": 93,
      "chip": "ym2612"
    },
    {
      "channel": 0,
      "note": 40,
      "start": 5.9193,
      "duration": 0.016,
      "velocity": 115,
      "chip": "ym2612"
    },
    {
      "channel": 5,
      "note": 76,
      "start": 5.9204,
      "duration": 0.0161,
      "velocity": 102,
      "chip": "ym2612"
    },
    {
      "channel": 2,
      "note": 57,
      "start": 5.9241,
      "duration": 0.0161,
      "velocity": 93,
      "chip": "ym2612"
    },
    {
      "channel": 0,
      "note": 40,
      "start": 5.9353,
      "duration": 0.0158,
      "velocity": 115,
      "chip": "ym2612"
    },
    {
      "channel": 5,
      "note": 76,
      "start": 5.9365,
      "duration": 0.0161,
      "velocity": 102,
      "chip": "ym2612"
    },
    {
      "channel": 2,
      "note": 57,
      "start": 5.9402,
      "duration": 0.0161,
      "velocity": 93,
      "chip": "ym2612"
    },
    {
      "channel": 0,
      "note": 40,
      "start": 5.951,
      "duration": 0.0159,
      "velocity": 115,
      "chip": "ym2612"
    },
    {
      "channel": 2,
      "note": 57,
      "start": 5.9563,
      "duration": 0.0161,
      "velocity": 93,
      "chip": "ym2612"
    },
    {
      "channel": 0,
      "note": 41,
      "start": 5.9669,
      "duration": 0.0161,
      "velocity": 115,
      "chip": "ym2612"
    },
    {
      "channel": 2,
      "note": 57,
      "start": 5.9724,
      "duration": 0.0171,
      "velocity": 93,
      "chip": "ym2612"
    },
    {
      "channel": 0,
      "note": 41,
      "start": 5.983,
      "duration": 0.0161,
      "velocity": 115,
      "chip": "ym2612"
    },
    {
      "channel": 4,
      "note": 85,
      "start": 5.9865,
      "duration": 0.0157,
      "velocity": 98,
      "chip": "ym2612"
    },
    {
      "channel": 3,
      "note": 88,
      "start": 5.9881,
      "duration": 0.0153,
      "velocity": 98,
      "chip": "ym2612"
    },
    {
      "channel": 2,
      "note": 57,
      "start": 5.9895,
      "duration": 0.0151,
      "velocity": 93,
      "chip": "ym2612"
    },
    {
      "channel": 1,
      "note": 76,
      "start": 5.991,
      "duration": 0.0148,
      "velocity": 103,
      "chip": "ym2612"
    },
    {
      "channel": 0,
      "note": 42,
      "start": 5.9991,
      "duration": 0.0161,
      "velocity": 115,
      "chip": "ym2612"
    },
    {
      "channel": 4,
      "note": 85,
      "start": 6.0022,
      "duration": 0.016,
      "velocity": 98,
      "chip": "ym2612"
    },
    {
      "channel": 3,
      "note": 88,
      "start": 6.0034,
      "duration": 0.016,
      "velocity": 98,
      "chip": "ym2612"
    },
    {
      "channel": 2,
      "note": 57,
      "start": 6.0046,
      "duration": 0.0159,
      "velocity": 93,
      "chip": "ym2612"
    },
    {
      "channel": 1,
      "note": 76,
      "start": 6.0058,
      "duration": 0.0158,
      "velocity": 103,
      "chip": "ym2612"
    },
    {
      "channel": 0,
      "note": 42,
      "start": 6.0152,
      "duration": 0.0161,
      "velocity": 115,
      "chip": "ym2612"
    },
    {
      "channel": 4,
      "note": 85,
      "start": 6.0182,
      "duration": 0.0155,
      "velocity": 98,
      "chip": "ym2612"
    },
    {
      "channel": 3,
      "note": 88,
      "start": 6.0194,
      "duration": 0.0161,
      "velocity": 98,
      "chip": "ym2612"
    },
    {
      "channel": 2,
      "note": 57,
      "start": 6.0205,
      "duration": 0.0161,
      "velocity": 93,
      "chip": "ym2612"
    },
    {
      "channel": 1,
      "note": 76,
      "start": 6.0217,
      "duration": 0.0161,
      "velocity": 103,
      "chip": "ym2612"
    },
    {
      "channel": 0,
      "note": 43,
      "start": 6.0313,
      "duration": 0.0161,
      "velocity": 115,
      "chip": "ym2612"
    },
    {
      "channel": 4,
      "note": 85,
      "start": 6.0337,
      "duration": 0.0161,
      "velocity": 98,
      "chip": "ym2612"
    },
    {
      "channel": 3,
      "note": 88,
      "start": 6.0355,
      "duration": 0.016,
      "velocity": 98,
      "chip": "ym2612"
    },
    {
      "channel": 2,
      "note": 57,
      "start": 6.0366,
      "duration": 0.0161,
      "velocity": 93,
      "chip": "ym2612"
    },
    {
      "channel": 1,
      "note": 76,
      "start": 6.0378,
      "duration": 0.0162,
      "velocity": 103,
      "chip": "ym2612"
    },
    {
      "channel": 0,
      "note": 43,
      "start": 6.0474,
      "duration": 0.0161,
      "velocity": 115,
      "chip": "ym2612"
    },
    {
      "channel": 4,
      "note": 85,
      "start": 6.0498,
      "duration": 0.0161,
      "velocity": 98,
      "chip": "ym2612"
    },
    {
      "channel": 3,
      "note": 88,
      "start": 6.0515,
      "duration": 0.0156,
      "velocity": 98,
      "chip": "ym2612"
    },
    {
      "channel": 2,
      "note": 57,
      "start": 6.0527,
      "duration": 0.0161,
      "velocity": 93,
      "chip": "ym2612"
    },
    {
      "channel": 0,
      "note": 44,
      "start": 6.0635,
      "duration": 0.0179,
      "velocity": 124,
      "chip": "ym2612"
    },
    {
      "channel": 2,
      "note": 57,
      "start": 6.0688,
      "duration": 0.0192,
      "velocity": 93,
      "chip": "ym2612"
    },
    {
      "channel": 0,
      "note": 84,
      "start": 6.0815,
      "duration": 0.0143,
      "velocity": 124,
      "chip": "ym2612"
    },
    {
      "channel": 5,
      "note": 76,
      "start": 6.083,
      "duration": 0.0141,
      "velocity": 102,
      "chip": "ym2612"
    },
    {
      "channel": 4,
      "note": 85,
      "start": 6.085,
      "duration": 0.0132,
      "velocity": 98,
      "chip": "ym2612"
    },
    {
      "channel": 3,
      "note": 88,
      "start": 6.0866,
      "duration": 0.0129,
      "velocity": 98,
      "chip": "ym2612"
    },
    {
      "channel": 2,
      "note": 57,
      "start": 6.0881,
      "duration": 0.0126,
      "velocity": 93,
      "chip": "ym2612"
    },
    {
      "channel": 1,
      "note": 69,
      "start": 6.0896,
      "duration": 0.0129,
      "velocity": 103,
      "chip": "ym2612"
    },
    {
      "channel": 0,
      "note": 82,
      "start": 6.0958,
      "duration": 0.016,
      "velocity": 124,
      "chip": "ym2612"
    },
    {
      "channel": 5,
      "note": 76,
      "start": 6.0971,
      "duration": 0.016,
      "velocity": 102,
      "chip": "ym2612"
    },
    {
      "channel": 4,
      "note": 85,
      "start": 6.0983,
      "duration": 0.0159,
      "velocity": 98,
      "chip": "ym2612"
    },
    {
      "channel": 3,
      "note": 88,
      "start": 6.0995,
      "duration": 0.0159,
      "velocity": 98,
      "chip": "ym2612"
    },
    {
      "channel": 2,
      "note": 57,
      "start": 6.1007,
      "duration": 0.0158,
      "velocity": 93,
      "chip": "ym2612"
    },
    {
      "channel": 1,
      "note": 69,
      "start": 6.1024,
      "duration": 0.0153,
      "velocity": 103,
      "chip": "ym2612"
    },
    {
      "channel": 0,
      "note": 80,
      "start": 6.1118,
      "duration": 0.0161,
      "velocity": 124,
      "chip": "ym2612"
    },
    {
      "channel": 5,
      "note": 76,
      "start": 6.113,
      "duration": 0.0161,
      "velocity": 102,
      "chip": "ym2612"
    },
    {
      "channel": 4,
      "note": 85,
      "start": 6.1141,
      "duration": 0.0161,
      "velocity": 98,
      "chip": "ym2612"
    },
    {
      "channel": 3,
      "note": 88,
      "start": 6.1153,
      "duration": 0.0161,
      "velocity": 98,
      "chip": "ym2612"
    },
    {
      "channel": 2,
      "note": 57,
      "start": 6.1164,
      "duration": 0.0161,
      "velocity": 93,
      "chip": "ym2612"
    },
    {
      "channel": 1,
      "note": 69,
      "start": 6.1178,
      "duration": 0.0159,
      "velocity": 103,
      "chip": "ym2612"
    },
    {
      "channel": 0,
      "note": 77,
      "start": 6.128,
      "duration": 0.0161,
      "velocity": 124,
      "chip": "ym2612"
    },
    {
      "channel": 5,
      "note": 76,
      "start": 6.1291,
      "duration": 0.0161,
      "velocity": 102,
      "chip": "ym2612"
    },
    {
      "channel": 4,
      "note": 85,
      "start": 6.1302,
      "duration": 0.0161,
      "velocity": 98,
      "chip": "ym2612"
    },
    {
      "channel": 3,
      "note": 88,
      "start": 6.1314,
      "duration": 0.0161,
      "velocity": 98,
      "chip": "ym2612"
    },
    {
      "channel": 2,
      "note": 57,
      "start": 6.1325,
      "duration": 0.0162,
      "velocity": 93,
      "chip": "ym2612"
    },
    {
      "channel": 1,
      "note": 69,
      "start": 6.1337,
      "duration": 0.0161,
      "velocity": 103,
      "chip": "ym2612"
    },
    {
      "channel": 0,
      "note": 75,
      "start": 6.1441,
      "duration": 0.0161,
      "velocity": 124,
      "chip": "ym2612"
    },
    {
      "channel": 4,
      "note": 85,
      "start": 6.1463,
      "duration": 0.0161,
      "velocity": 98,
      "chip": "ym2612"
    },
    {
      "channel": 3,
      "note": 88,
      "start": 6.1475,
      "duration": 0.0161,
      "velocity": 98,
      "chip": "ym2612"
    },
    {
      "channel": 2,
      "note": 57,
      "start": 6.1487,
      "duration": 0.0161,
      "velocity": 93,
      "chip": "ym2612"
    },
    {
      "channel": 1,
      "note": 69,
      "start": 6.1498,
      "duration": 0.0161,
      "velocity": 103,
      "chip": "ym2612"
    },
    {
      "channel": 0,
      "note": 72,
      "start": 6.1602,
      "duration": 0.0161,
      "velocity": 124,
      "chip": "ym2612"
    },
    {
      "channel": 4,
      "note": 85,
      "start": 6.1624,
      "duration": 0.0165,
      "velocity": 98,
      "chip": "ym2612"
    },
    {
      "channel": 3,
      "note": 88,
      "start": 6.1636,
      "duration": 0.0165,
      "velocity": 98,
      "chip": "ym2612"
    },
    {
      "channel": 2,
      "note": 57,
      "start": 6.1648,
      "duration": 0.0166,
      "velocity": 93,
      "chip": "ym2612"
    },
    {
      "channel": 1,
      "note": 69,
      "start": 6.1659,
      "duration": 0.0165,
      "velocity": 103,
      "chip": "ym2612"
    },
    {
      "channel": 0,
      "note": 70,
      "start": 6.1762,
      "duration": 0.0161,
      "velocity": 124,
      "chip": "ym2612"
    },
    {
      "channel": 5,
      "note": 69,
      "start": 6.1778,
      "duration": 0.0157,
      "velocity": 102,
      "chip": "ym2612"
    },
    {
      "channel": 4,
      "note": 85,
      "start": 6.179,
      "duration": 0.0157,
      "velocity": 98,
      "chip": "ym2612"
    },
    {
      "channel": 3,
      "note": 88,
      "start": 6.1801,
      "duration": 0.0157,
      "velocity": 98,
      "chip": "ym2612"
    },
    {
      "channel": 2,
      "note": 57,
      "start": 6.1813,
      "duration": 0.0156,
      "velocity": 93,
      "chip": "ym2612"
    },
    {
      "channel": 1,
      "note": 69,
      "start": 6.1825,
      "duration": 0.0156,
      "velocity": 103,
      "chip": "ym2612"
    },
    {
      "channel": 0,
      "note": 68,
      "start": 6.1923,
      "duration": 0.0161,
      "velocity": 124,
      "chip": "ym2612"
    },
    {
      "channel": 5,
      "note": 69,
      "start": 6.1935,
      "duration": 0.016,
      "velocity": 102,
      "chip": "ym2612"
    },
    {
      "channel": 4,
      "note": 85,
      "start": 6.1947,
      "duration": 0.016,
      "velocity": 98,
      "chip": "ym2612"
    },
    {
      "channel": 3,
      "note": 88,
      "start": 6.1958,
      "duration": 0.016,
      "velocity": 98,
      "chip": "ym2612"
    },
    {
      "channel": 2,
      "note": 57,
      "start": 6.197,
      "duration": 0.0161,
      "velocity": 93,
      "chip": "ym2612"
    },
    {
      "channel": 1,
      "note": 69,
      "start": 6.1981,
      "duration": 0.0161,
      "velocity": 103,
      "chip": "ym2612"
    },
    {
      "channel": 0,
      "note": 65,
      "start": 6.2084,
      "duration": 0.0161,
      "velocity": 124,
      "chip": "ym2612"
    },
    {
      "channel": 5,
      "note": 69,
      "start": 6.2096,
      "duration": 0.0161,
      "velocity": 102,
      "chip": "ym2612"
    },
    {
      "channel": 4,
      "note": 85,
      "start": 6.2107,
      "duration": 0.0161,
      "velocity": 98,
      "chip": "ym2612"
    },
    {
      "channel": 3,
      "note": 88,
      "start": 6.2119,
      "duration": 0.0162,
      "velocity": 98,
      "chip": "ym2612"
    },
    {
      "channel": 2,
      "note": 57,
      "start": 6.2131,
      "duration": 0.0161,
      "velocity": 93,
      "chip": "ym2612"
    },
    {
      "channel": 1,
      "note": 69,
      "start": 6.2142,
      "duration": 0.0162,
      "velocity": 103,
      "chip": "ym2612"
    },
    {
      "channel": 0,
      "note": 63,
      "start": 6.2245,
      "duration": 0.0153,
      "velocity": 1,
      "chip": "ym2612"
    },
    {
      "channel": 5,
      "note": 69,
      "start": 6.2257,
      "duration": 0.0153,
      "velocity": 102,
      "chip": "ym2612"
    },
    {
      "channel": 4,
      "note": 85,
      "start": 6.2269,
      "duration": 0.0153,
      "velocity": 98,
      "chip": "ym2612"
    },
    {
      "channel": 3,
      "note": 88,
      "start": 6.228,
      "duration": 0.0153,
      "velocity": 98,
      "chip": "ym2612"
    },
    {
      "channel": 2,
      "note": 57,
      "start": 6.2292,
      "duration": 0.0153,
      "velocity": 93,
      "chip": "ym2612"
    },
    {
      "channel": 1,
      "note": 69,
      "start": 6.2304,
      "duration": 0.0153,
      "velocity": 103,
      "chip": "ym2612"
    },
    {
      "channel": 5,
      "note": 69,
      "start": 6.241,
      "duration": 0.0152,
      "velocity": 102,
      "chip": "ym2612"
    },
    {
      "channel": 4,
      "note": 85,
      "start": 6.2422,
      "duration": 0.0152,
      "velocity": 98,
      "chip": "ym2612"
    },
    {
      "channel": 3,
      "note": 88,
      "start": 6.2433,
      "duration": 0.0152,
      "velocity": 98,
      "chip": "ym2612"
    },
    {
      "channel": 2,
      "note": 57,
      "start": 6.2444,
      "duration": 0.0153,
      "velocity": 93,
      "chip": "ym2612"
    },
    {
      "channel": 5,
      "note": 69,
      "start": 6.2562,
      "duration": 0.0196,
      "velocity": 102,
      "chip": "ym2612"
    },
    {
      "channel": 4,
      "note": 85,
      "start": 6.2573,
      "duration": 0.0197,
      "velocity": 98,
      "chip": "ym2612"
    },
    {
      "channel": 3,
      "note": 88,
      "start": 6.2585,
      "duration": 0.0196,
      "velocity": 98,
      "chip": "ym2612"
    },
    {
      "channel": 2,
      "note": 57,
      "start": 6.2597,
      "duration": 0.0196,
      "velocity": 93,
      "chip": "ym2612"
    },
    {
      "channel": 0,
      "note": 36,
      "start": 6.2747,
      "duration": 0.0142,
      "velocity": 115,
      "chip": "ym2612"
    },
    {
      "channel": 5,
      "note": 69,
      "start": 6.2759,
      "duration": 0.0143,
      "velocity": 102,
      "chip": "ym2612"
    },
    {
      "channel": 4,
      "note": 85,
      "start": 6.277,
      "duration": 0.0143,
      "velocity": 98,
      "chip": "ym2612"
    },
    {
      "channel": 3,
      "note": 88,
      "start": 6.2781,
      "duration": 0.0143,
      "velocity": 98,
      "chip": "ym2612"
    },
    {
      "channel": 2,
      "note": 57,
      "start": 6.2793,
      "duration": 0.0143,
      "velocity": 93,
      "chip": "ym2612"
    },
    {
      "channel": 1,
      "note": 73,
      "start": 6.2808,
      "duration": 0.014,
      "velocity": 103,
      "chip": "ym2612"
    },
    {
      "channel": 0,
      "note": 36,
      "start": 6.289,
      "duration": 0.0161,
      "velocity": 115,
      "chip": "ym2612"
    },
    {
      "channel": 5,
      "note": 69,
      "start": 6.2902,
      "duration": 0.016,
      "velocity": 102,
      "chip": "ym2612"
    },
    {
      "channel": 4,
      "note": 85,
      "start": 6.2913,
      "duration": 0.0161,
      "velocity": 98,
      "chip": "ym2612"
    },
    {
      "channel": 3,
      "note": 88,
      "start": 6.2925,
      "duration": 0.0161,
      "velocity": 98,
      "chip": "ym2612"
    },
    {
      "channel": 2,
      "note": 57,
      "start": 6.2936,
      "duration": 0.0163,
      "velocity": 93,
      "chip": "ym2612"
    },
    {
      "channel": 1,
      "note": 73,
      "start": 6.2948,
      "duration": 0.0162,
      "velocity": 103,
      "chip": "ym2612"
    },
    {
      "channel": 0,
      "note": 37,
      "start": 6.3051,
      "duration": 0.0161,
      "velocity": 115,
      "chip": "ym2612"
    },
    {
      "channel": 5,
      "note": 69,
      "start": 6.3062,
      "duration": 0.0161,
      "velocity": 102,
      "chip": "ym2612"
    },
    {
      "channel": 4,
      "note": 85,
      "start": 6.3074,
      "duration": 0.0162,
      "velocity": 98,
      "chip": "ym2612"
    },
    {
      "channel": 3,
      "note": 88,
      "start": 6.3086,
      "duration": 0.0162,
      "velocity": 98,
      "chip": "ym2612"
    },
    {
      "channel": 2,
      "note": 57,
      "start": 6.3099,
      "duration": 0.0161,
      "velocity": 93,
      "chip": "ym2612"
    },
    {
      "channel": 1,
      "note": 73,
      "start": 6.311,
      "duration": 0.0161,
      "velocity": 103,
      "chip": "ym2612"
    },
    {
      "channel": 0,
      "note": 37,
      "start": 6.3212,
      "duration": 0.0161,
      "velocity": 115,
      "chip": "ym2612"
    },
    {
      "channel": 5,
      "note": 69,
      "start": 6.3224,
      "duration": 0.0162,
      "velocity": 102,
      "chip": "ym2612"
    },
    {
      "channel": 4,
      "note": 85,
      "start": 6.3236,
      "duration": 0.0161,
      "velocity": 98,
      "chip": "ym2612"
    },
    {
      "channel": 3,
      "note": 88,
      "start": 6.3248,
      "duration": 0.0161,
      "velocity": 98,
      "chip": "ym2612"
    },
    {
      "channel": 2,
      "note": 57,
      "start": 6.326,
      "duration": 0.0162,
      "velocity": 93,
      "chip": "ym2612"
    },
    {
      "channel": 1,
      "note": 73,
      "start": 6.3271,
      "duration": 0.0162,
      "velocity": 103,
      "chip": "ym2612"
    },
    {
      "channel": 0,
      "note": 38,
      "start": 6.3373,
      "duration": 0.0163,
      "velocity": 115,
      "chip": "ym2612"
    },
    {
      "channel": 4,
      "note": 85,
      "start": 6.3397,
      "duration": 0.0162,
      "velocity": 98,
      "chip": "ym2612"
    },
    {
      "channel": 3,
      "note": 88,
      "start": 6.3409,
      "duration": 0.0162,
      "velocity": 98,
      "chip": "ym2612"
    },
    {
      "channel": 2,
      "note": 57,
      "start": 6.3422,
      "duration": 0.0161,
      "velocity": 93,
      "chip": "ym2612"
    },
    {
      "channel": 0,
      "note": 38,
      "start": 6.3537,
      "duration": 0.0181,
      "velocity": 124,
      "chip": "ym2612"
    },
    {
      "channel": 2,
      "note": 57,
      "start": 6.3583,
      "duration": 0.0196,
      "velocity": 93,
      "chip": "ym2612"
    },
    {
      "channel": 0,
      "note": 84,
      "start": 6.3719,
      "duration": 0.0144,
      "velocity": 124,
      "chip": "ym2612"
    },
    {
      "channel": 5,
      "note": 73,
      "start": 6.3733,
      "duration": 0.0141,
      "velocity": 102,
      "chip": "ym2612"
    },
    {
      "channel": 4,
      "note": 85,
      "start": 6.3749,
      "duration": 0.0137,
      "velocity": 98,
      "chip": "ym2612"
    },
    {
      "channel": 3,
      "note": 88,
      "start": 6.3764,
      "duration": 0.0134,
      "velocity": 98,
      "chip": "ym2612"
    },
    {
      "channel": 2,
      "note": 57,
      "start": 6.378,
      "duration": 0.0131,
      "velocity": 93,
      "chip": "ym2612"
    },
    {
      "channel": 1,
      "note": 76,
      "start": 6.3794,
      "duration": 0.0128,
      "velocity": 103,
      "chip": "ym2612"
    },
    {
      "channel": 0,
      "note": 82,
      "start": 6.3862,
      "duration": 0.016,
      "velocity": 124,
      "chip": "ym2612"
    },
    {
      "channel": 5,
      "note": 73,
      "start": 6.3874,
      "duration": 0.016,
      "velocity": 102,
      "chip": "ym2612"
    },
    {
      "channel": 4,
      "note": 85,
      "start": 6.3886,
      "duration": 0.0159,
      "velocity": 98,
      "chip": "ym2612"
    },
    {
      "channel": 3,
      "note": 88,
      "start": 6.3899,
      "duration": 0.0158,
      "velocity": 98,
      "chip": "ym2612"
    },
    {
      "channel": 2,
      "note": 57,
      "start": 6.3911,
      "duration": 0.0159,
      "velocity": 93,
      "chip": "ym2612"
    },
    {
      "channel": 1,
      "note": 76,
      "start": 6.3923,
      "duration": 0.0158,
      "velocity": 103,
      "chip": "ym2612"
    },
    {
      "channel": 0,
      "note": 80,
      "start": 6.4022,
      "duration": 0.0161,
      "velocity": 124,
      "chip": "ym2612"
    },
    {
      "channel": 5,
      "note": 73,
      "start": 6.4034,
      "duration": 0.0161,
      "velocity": 102,
      "chip": "ym2612"
    },
    {
      "channel": 4,
      "note": 85,
      "start": 6.4046,
      "duration": 0.0161,
      "velocity": 98,
      "chip": "ym2612"
    },
    {
      "channel": 3,
      "note": 88,
      "start": 6.4057,
      "duration": 0.0161,
      "velocity": 98,
      "chip": "ym2612"
    },
    {
      "channel": 2,
      "note": 57,
      "start": 6.4069,
      "duration": 0.016,
      "velocity": 93,
      "chip": "ym2612"
    },
    {
      "channel": 1,
      "note": 76,
      "start": 6.408,
      "duration": 0.016,
      "velocity": 103,
      "chip": "ym2612"
    },
    {
      "channel": 0,
      "note": 77,
      "start": 6.4183,
      "duration": 0.0156,
      "velocity": 124,
      "chip": "ym2612"
    },
    {
      "channel": 5,
      "note": 73,
      "start": 6.4195,
      "duration": 0.016,
      "velocity": 102,
      "chip": "ym2612"
    },
    {
      "channel": 4,
      "note": 85,
      "start": 6.4206,
      "duration": 0.0161,
      "velocity": 98,
      "chip": "ym2612"
    },
    {
      "channel": 3,
      "note": 88,
      "start": 6.4218,
      "duration": 0.0162,
      "velocity": 98,
      "chip": "ym2612"
    },
    {
      "channel": 2,
      "note": 57,
      "start": 6.4229,
      "duration": 0.0162,
      "velocity": 93,
      "chip": "ym2612"
    },
    {
      "channel": 1,
      "note": 76,
      "start": 6.4241,
      "duration": 0.0162,
      "velocity": 103,
      "chip": "ym2612"
    },
    {
      "channel": 0,
      "note": 75,
      "start": 6.4339,
      "duration": 0.0161,
      "velocity": 124,
      "chip": "ym2612"
    },
    {
      "channel": 4,
      "note": 85,
      "start": 6.4367,
      "duration": 0.0161,
      "velocity": 98,
      "chip": "ym2612"
    },
    {
      "channel": 3,
      "note": 88,
      "start": 6.438,
      "duration": 0.016,
      "velocity": 98,
      "chip": "ym2612"
    },
    {
      "channel": 2,
      "note": 57,
      "start": 6.4391,
      "duration": 0.0161,
      "velocity": 93,
      "chip": "ym2612"
    },
    {
      "channel": 1,
      "note": 76,
      "start": 6.4402,
      "duration": 0.0161,
      "velocity": 103,
      "chip": "ym2612"
    },
    {
      "channel": 0,
      "note": 72,
      "start": 6.45,
      "duration": 0.0161,
      "velocity": 124,
      "chip": "ym2612"
    },
    {
      "channel": 4,
      "note": 85,
      "start": 6.4528,
      "duration": 0.0165,
      "velocity": 98,
      "chip": "ym2612"
    },
    {
      "channel": 3,
      "note": 88,
      "start": 6.454,
      "duration": 0.0165,
      "velocity": 98,
      "chip": "ym2612"
    },
    {
      "channel": 2,
      "note": 57,
      "start": 6.4552,
      "duration": 0.0164,
      "velocity": 93,
      "chip": "ym2612"
    },
    {
      "channel": 1,
      "note": 76,
      "start": 6.4563,
      "duration": 0.0165,
      "velocity": 103,
      "chip": "ym2612"
    },
    {
      "channel": 0,
      "note": 70,
      "start": 6.4661,
      "duration": 0.0161,
      "velocity": 124,
      "chip": "ym2612"
    },
    {
      "channel": 5,
      "note": 76,
      "start": 6.4678,
      "duration": 0.0156,
      "velocity": 102,
      "chip": "ym2612"
    },
    {
      "channel": 4,
      "note": 85,
      "start": 6.4693,
      "duration": 0.0157,
      "velocity": 98,
      "chip": "ym2612"
    },
    {
      "channel": 3,
      "note": 88,
      "start": 6.4705,
      "duration": 0.0158,
      "velocity": 98,
      "chip": "ym2612"
    },
    {
      "channel": 2,
      "note": 57,
      "start": 6.4716,
      "duration": 0.0158,
      "velocity": 93,
      "chip": "ym2612"
    },
    {
      "channel": 1,
      "note": 76,
      "start": 6.4728,
      "duration": 0.0158,
      "velocity": 103,
      "chip": "ym2612"
    },
    {
      "channel": 0,
      "note": 68,
      "start": 6.4822,
      "duration": 0.0161,
      "velocity": 124,
      "chip": "ym2612"
    },
    {
      "channel": 5,
      "note": 76,
      "start": 6.4834,
      "duration": 0.016,
      "velocity": 102,
      "chip": "ym2612"
    },
    {
      "channel": 4,
      "note": 85,
      "start": 6.485,
      "duration": 0.0155,
      "velocity": 98,
      "chip": "ym2612"
    },
    {
      "channel": 3,
      "note": 88,
      "start": 6.4862,
      "duration": 0.016,
      "velocity": 98,
      "chip": "ym2612"
    },
    {
      "channel": 2,
      "note": 57,
      "start": 6.4874,
      "duration": 0.016,
      "velocity": 93,
      "chip": "ym2612"
    },
    {
      "channel": 1,
      "note": 76,
      "start": 6.4886,
      "duration": 0.0161,
      "velocity": 103,
      "chip": "ym2612"
    },
    {
      "channel": 0,
      "note": 65,
      "start": 6.4983,
      "duration": 0.0161,
      "velocity": 124,
      "chip": "ym2612"
    },
    {
      "channel": 5,
      "note": 76,
      "start": 6.4994,
      "duration": 0.0161,
      "velocity": 102,
      "chip": "ym2612"
    },
    {
      "channel": 4,
      "note": 85,
      "start": 6.5005,
      "duration": 0.0162,
      "velocity": 98,
      "chip": "ym2612"
    },
    {
      "channel": 3,
      "note": 88,
      "start": 6.5023,
      "duration": 0.0163,
      "velocity": 98,
      "chip": "ym2612"
    },
    {
      "channel": 2,
      "note": 57,
      "start": 6.5035,
      "duration": 0.0163,
      "velocity": 93,
      "chip": "ym2612"
    },
    {
      "channel": 1,
      "note": 76,
      "start": 6.5047,
      "duration": 0.0163,
      "velocity": 103,
      "chip": "ym2612"
    },
    {
      "channel": 0,
      "note": 63,
      "start": 6.5144,
      "duration": 0.0153,
      "velocity": 1,
      "chip": "ym2612"
    },
    {
      "channel": 5,
      "note": 76,
      "start": 6.5155,
      "duration": 0.0153,
      "velocity": 102,
      "chip": "ym2612"
    },
    {
      "channel": 4,
      "note": 85,
      "start": 6.5168,
      "duration": 0.0153,
      "velocity": 98,
      "chip": "ym2612"
    },
    {
      "channel": 3,
      "note": 88,
      "start": 6.5185,
      "duration": 0.0147,
      "velocity": 98,
      "chip": "ym2612"
    },
    {
      "channel": 2,
      "note": 57,
      "start": 6.5198,
      "duration": 0.0151,
      "velocity": 93,
      "chip": "ym2612"
    },
    {
      "channel": 1,
      "note": 76,
      "start": 6.521,
      "duration": 0.0152,
      "velocity": 103,
      "chip": "ym2612"
    },
    {
      "channel": 5,
      "note": 76,
      "start": 6.5308,
      "duration": 0.0152,
      "velocity": 102,
      "chip": "ym2612"
    },
    {
      "channel": 4,
      "note": 85,
      "start": 6.532,
      "duration": 0.0152,
      "velocity": 98,
      "chip": "ym2612"
    },
    {
      "channel": 3,
      "note": 88,
      "start": 6.5332,
      "duration": 0.0153,
      "velocity": 98,
      "chip": "ym2612"
    },
    {
      "channel": 2,
      "note": 57,
      "start": 6.535,
      "duration": 0.0148,
      "velocity": 93,
      "chip": "ym2612"
    },
    {
      "channel": 5,
      "note": 76,
      "start": 6.546,
      "duration": 0.0197,
      "velocity": 102,
      "chip": "ym2612"
    },
    {
      "channel": 4,
      "note": 85,
      "start": 6.5472,
      "duration": 0.0197,
      "velocity": 98,
      "chip": "ym2612"
    },
    {
      "channel": 3,
      "note": 88,
      "start": 6.5485,
      "duration": 0.0201,
      "velocity": 98,
      "chip": "ym2612"
    },
    {
      "channel": 2,
      "note": 57,
      "start": 6.5497,
      "duration": 0.0201,
      "velocity": 93,
      "chip": "ym2612"
    },
    {
      "channel": 0,
      "note": 36,
      "start": 6.5645,
      "duration": 0.0143,
      "velocity": 115,
      "chip": "ym2612"
    },
    {
      "channel": 5,
      "note": 76,
      "start": 6.5657,
      "duration": 0.0143,
      "velocity": 102,
      "chip": "ym2612"
    },
    {
      "channel": 4,
      "note": 85,
      "start": 6.5669,
      "duration": 0.0143,
      "velocity": 98,
      "chip": "ym2612"
    },
    {
      "channel": 3,
      "note": 88,
      "start": 6.5686,
      "duration": 0.0137,
      "velocity": 98,
      "chip": "ym2612"
    },
    {
      "channel": 2,
      "note": 57,
      "start": 6.5698,
      "duration": 0.0137,
      "velocity": 93,
      "chip": "ym2612"
    },
    {
      "channel": 0,
      "note": 36,
      "start": 6.5788,
      "duration": 0.0161,
      "velocity": 115,
      "chip": "ym2612"
    },
    {
      "channel": 5,
      "note": 76,
      "start": 6.5801,
      "duration": 0.016,
      "velocity": 102,
      "chip": "ym2612"
    },
    {
      "channel": 4,
      "note": 85,
      "start": 6.5812,
      "duration": 0.016,
      "velocity": 98,
      "chip": "ym2612"
    },
    {
      "channel": 3,
      "note": 88,
      "start": 6.5824,
      "duration": 0.016,
      "velocity": 98,
      "chip": "ym2612"
    },
    {
      "channel": 2,
      "note": 57,
      "start": 6.5835,
      "duration": 0.016,
      "velocity": 93,
      "chip": "ym2612"
    },
    {
      "channel": 0,
      "note": 37,
      "start": 6.5949,
      "duration": 0.0161,
      "velocity": 115,
      "chip": "ym2612"
    },
    {
      "channel": 5,
      "note": 76,
      "start": 6.596,
      "duration": 0.0161,
      "velocity": 102,
      "chip": "ym2612"
    },
    {
      "channel": 4,
      "note": 85,
      "start": 6.5972,
      "duration": 0.0161,
      "velocity": 98,
      "chip": "ym2612"
    },
    {
      "channel": 3,
      "note": 88,
      "start": 6.5983,
      "duration": 0.0161,
      "velocity": 98,
      "chip": "ym2612"
    },
    {
      "channel": 2,
      "note": 57,
      "start": 6.5995,
      "duration": 0.0162,
      "velocity": 93,
      "chip": "ym2612"
    },
    {
      "channel": 0,
      "note": 37,
      "start": 6.611,
      "duration": 0.0161,
      "velocity": 115,
      "chip": "ym2612"
    },
    {
      "channel": 5,
      "note": 76,
      "start": 6.6121,
      "duration": 0.0161,
      "velocity": 102,
      "chip": "ym2612"
    },
    {
      "channel": 4,
      "note": 85,
      "start": 6.6133,
      "duration": 0.0162,
      "velocity": 98,
      "chip": "ym2612"
    },
    {
      "channel": 3,
      "note": 88,
      "start": 6.6144,
      "duration": 0.0162,
      "velocity": 98,
      "chip": "ym2612"
    },
    {
      "channel": 2,
      "note": 57,
      "start": 6.6156,
      "duration": 0.0163,
      "velocity": 93,
      "chip": "ym2612"
    },
    {
      "channel": 0,
      "note": 38,
      "start": 6.6271,
      "duration": 0.0161,
      "velocity": 115,
      "chip": "ym2612"
    },
    {
      "channel": 4,
      "note": 85,
      "start": 6.6294,
      "duration": 0.0161,
      "velocity": 98,
      "chip": "ym2612"
    },
    {
      "channel": 3,
      "note": 88,
      "start": 6.6306,
      "duration": 0.0161,
      "velocity": 98,
      "chip": "ym2612"
    },
    {
      "channel": 2,
      "note": 57,
      "start": 6.6319,
      "duration": 0.0162,
      "velocity": 93,
      "chip": "ym2612"
    },
    {
      "channel": 0,
      "note": 38,
      "start": 6.6432,
      "duration": 0.0179,
      "velocity": 124,
      "chip": "ym2612"
    },
    {
      "channel": 2,
      "note": 57,
      "start": 6.6481,
      "duration": 0.0189,
      "velocity": 93,
      "chip": "ym2612"
    },
    {
      "channel": 0,
      "note": 84,
      "start": 6.6611,
      "duration": 0.0143,
      "velocity": 124,
      "chip": "ym2612"
    },
    {
      "channel": 4,
      "note": 83,
      "start": 6.664,
      "duration": 0.0139,
      "velocity": 98,
      "chip": "ym2612"
    },
    {
      "channel": 3,
      "note": 88,
      "start": 6.6656,
      "duration": 0.0136,
      "velocity": 98,
      "chip": "ym2612"
    },
    {
      "channel": 2,
      "note": 56,
      "start": 6.667,
      "duration": 0.0133,
      "velocity": 93,
      "chip": "ym2612"
    },
    {
      "channel": 1,
      "note": 78,
      "start": 6.6691,
      "duration": 0.0124,
      "velocity": 103,
      "chip": "ym2612"
    },
    {
      "channel": 0,
      "note": 82,
      "start": 6.6754,
      "duration": 0.016,
      "velocity": 124,
      "chip": "ym2612"
    },
    {
      "channel": 4,
      "note": 83,
      "start": 6.6779,
      "duration": 0.016,
      "velocity": 98,
      "chip": "ym2612"
    },
    {
      "channel": 3,
      "note": 88,
      "start": 6.6791,
      "duration": 0.0159,
      "velocity": 98,
      "chip": "ym2612"
    },
    {
      "channel": 2,
      "note": 56,
      "start": 6.6803,
      "duration": 0.0159,
      "velocity": 93,
      "chip": "ym2612"
    },
    {
      "channel": 1,
      "note": 78,
      "start": 6.6815,
      "duration": 0.0159,
      "velocity": 103,
      "chip": "ym2612"
    },
    {
      "channel": 0,
      "note": 80,
      "start": 6.6915,
      "duration": 0.0161,
      "velocity": 124,
      "chip": "ym2612"
    },
    {
      "channel": 4,
      "note": 83,
      "start": 6.6939,
      "duration": 0.0161,
      "velocity": 98,
      "chip": "ym2612"
    },
    {
      "channel": 3,
      "note": 88,
      "start": 6.695,
      "duration": 0.0161,
      "velocity": 98,
      "chip": "ym2612"
    },
    {
      "channel": 2,
      "note": 56,
      "start": 6.6962,
      "duration": 0.0161,
      "velocity": 93,
      "chip": "ym2612"
    },
    {
      "channel": 1,
      "note": 78,
      "start": 6.6974,
      "duration": 0.0161,
      "velocity": 103,
      "chip": "ym2612"
    },
    {
      "channel": 0,
      "note": 77,
      "start": 6.7076,
      "duration": 0.0161,
      "velocity": 124,
      "chip": "ym2612"
    },
    {
      "channel": 4,
      "note": 83,
      "start": 6.71,
      "duration": 0.0161,
      "velocity": 98,
      "chip": "ym2612"
    },
    {
      "channel": 3,
      "note": 88,
      "start": 6.7111,
      "duration": 0.0161,
      "velocity": 98,
      "chip": "ym2612"
    },
    {
      "channel": 2,
      "note": 56,
      "start": 6.7123,
      "duration": 0.0161,
      "velocity": 93,
      "chip": "ym2612"
    },
    {
      "channel": 1,
      "note": 78,
      "start": 6.7134,
      "duration": 0.0161,
      "velocity": 103,
      "chip": "ym2612"
    },
    {
      "channel": 0,
      "note": 75,
      "start": 6.7237,
      "duration": 0.0161,
      "velocity": 124,
      "chip": "ym2612"
    },
    {
      "channel": 4,
      "note": 83,
      "start": 6.7261,
      "duration": 0.0161,
      "velocity": 98,
      "chip": "ym2612"
    },
    {
      "channel": 3,
      "note": 88,
      "start": 6.7273,
      "duration": 0.016,
      "velocity": 98,
      "chip": "ym2612"
    },
    {
      "channel": 2,
      "note": 56,
      "start": 6.7284,
      "duration": 0.0161,
      "velocity": 93,
      "chip": "ym2612"
    },
    {
      "channel": 1,
      "note": 78,
      "start": 6.7295,
      "duration": 0.0161,
      "velocity": 103,
      "chip": "ym2612"
    },
    {
      "channel": 0,
      "note": 72,
      "start": 6.7398,
      "duration": 0.0161,
      "velocity": 124,
      "chip": "ym2612"
    },
    {
      "channel": 4,
      "note": 83,
      "start": 6.7422,
      "duration": 0.0164,
      "velocity": 98,
      "chip": "ym2612"
    },
    {
      "channel": 3,
      "note": 88,
      "start": 6.7433,
      "duration": 0.0164,
      "velocity": 98,
      "chip": "ym2612"
    },
    {
      "channel": 2,
      "note": 56,
      "start": 6.7445,
      "duration": 0.0163,
      "velocity": 93,
      "chip": "ym2612"
    },
    {
      "channel": 1,
      "note": 78,
      "start": 6.7456,
      "duration": 0.0163,
      "velocity": 103,
      "chip": "ym2612"
    },
    {
      "channel": 0,
      "note": 70,
      "start": 6.7559,
      "duration": 0.0161,
      "velocity": 124,
      "chip": "ym2612"
    },
    {
      "channel": 5,
      "note": 78,
      "start": 6.7573,
      "duration": 0.0159,
      "velocity": 102,
      "chip": "ym2612"
    },
    {
      "channel": 4,
      "note": 83,
      "start": 6.7585,
      "duration": 0.0158,
      "velocity": 98,
      "chip": "ym2612"
    },
    {
      "channel": 3,
      "note": 88,
      "start": 6.7597,
      "duration": 0.0158,
      "velocity": 98,
      "chip": "ym2612"
    },
    {
      "channel": 2,
      "note": 56,
      "start": 6.7608,
      "duration": 0.0158,
      "velocity": 93,
      "chip": "ym2612"
    },
    {
      "channel": 1,
      "note": 78,
      "start": 6.762,
      "duration": 0.0158,
      "velocity": 103,
      "chip": "ym2612"
    },
    {
      "channel": 0,
      "note": 68,
      "start": 6.772,
      "duration": 0.0161,
      "velocity": 124,
      "chip": "ym2612"
    },
    {
      "channel": 5,
      "note": 78,
      "start": 6.7732,
      "duration": 0.0161,
      "velocity": 102,
      "chip": "ym2612"
    },
    {
      "channel": 4,
      "note": 83,
      "start": 6.7743,
      "duration": 0.0161,
      "velocity": 98,
      "chip": "ym2612"
    },
    {
      "channel": 3,
      "note": 88,
      "start": 6.7755,
      "duration": 0.0161,
      "velocity": 98,
      "chip": "ym2612"
    },
    {
      "channel": 2,
      "note": 56,
      "start": 6.7766,
      "duration": 0.0161,
      "velocity": 93,
      "chip": "ym2612"
    },
    {
      "channel": 1,
      "note": 78,
      "start": 6.7778,
      "duration": 0.0161,
      "velocity": 103,
      "chip": "ym2612"
    },
    {
      "channel": 0,
      "note": 65,
      "start": 6.7881,
      "duration": 0.0162,
      "velocity": 124,
      "chip": "ym2612"
    },
    {
      "channel": 5,
      "note": 78,
      "start": 6.7893,
      "duration": 0.0161,
      "velocity": 102,
      "chip": "ym2612"
    },
    {
      "channel": 4,
      "note": 83,
      "start": 6.7904,
      "duration": 0.0161,
      "velocity": 98,
      "chip": "ym2612"
    },
    {
      "channel": 3,
      "note": 88,
      "start": 6.7916,
      "duration": 0.0161,
      "velocity": 98,
      "chip": "ym2612"
    },
    {
      "channel": 2,
      "note": 56,
      "start": 6.7927,
      "duration": 0.0162,
      "velocity": 93,
      "chip": "ym2612"
    },
    {
      "channel": 1,
      "note": 78,
      "start": 6.7939,
      "duration": 0.0163,
      "velocity": 103,
      "chip": "ym2612"
    },
    {
      "channel": 0,
      "note": 63,
      "start": 6.8042,
      "duration": 0.0153,
      "velocity": 1,
      "chip": "ym2612"
    },
    {
      "channel": 5,
      "note": 78,
      "start": 6.8054,
      "duration": 0.0153,
      "velocity": 102,
      "chip": "ym2612"
    },
    {
      "channel": 4,
      "note": 83,
      "start": 6.8065,
      "duration": 0.0153,
      "velocity": 98,
      "chip": "ym2612"
    },
    {
      "channel": 3,
      "note": 88,
      "start": 6.8077,
      "duration": 0.0153,
      "velocity": 98,
      "chip": "ym2612"
    },
    {
      "channel": 2,
      "note": 56,
      "start": 6.8089,
      "duration": 0.0153,
      "velocity": 93,
      "chip": "ym2612"
    },
    {
      "channel": 1,
      "note": 78,
      "start": 6.8102,
      "duration": 0.0153,
      "velocity": 103,
      "chip": "ym2612"
    },
    {
      "channel": 5,
      "note": 78,
      "start": 6.8206,
      "duration": 0.0156,
      "velocity": 102,
      "chip": "ym2612"
    },
    {
      "channel": 4,
      "note": 83,
      "start": 6.8219,
      "duration": 0.0155,
      "velocity": 98,
      "chip": "ym2612"
    },
    {
      "channel": 3,
      "note": 88,
      "start": 6.823,
      "duration": 0.0156,
      "velocity": 98,
      "chip": "ym2612"
    },
    {
      "channel": 2,
      "note": 56,
      "start": 6.8242,
      "duration": 0.0156,
      "velocity": 93,
      "chip": "ym2612"
    },
    {
      "channel": 5,
      "note": 78,
      "start": 6.8362,
      "duration": 0.0163,
      "velocity": 102,
      "chip": "ym2612"
    },
    {
      "channel": 2,
      "note": 56,
      "start": 6.8398,
      "duration": 0.0169,
      "velocity": 93,
      "chip": "ym2612"
    },
    {
      "channel": 5,
      "note": 78,
      "start": 6.8525,
      "duration": 0.0161,
      "velocity": 102,
      "chip": "ym2612"
    },
    {
      "channel": 4,
      "note": 83,
      "start": 6.854,
      "duration": 0.0159,
      "velocity": 98,
      "chip": "ym2612"
    },
    {
      "channel": 3,
      "note": 88,
      "start": 6.8556,
      "duration": 0.0155,
      "velocity": 98,
      "chip": "ym2612"
    },
    {
      "channel": 2,
      "note": 56,
      "start": 6.8567,
      "duration": 0.0155,
      "velocity": 93,
      "chip": "ym2612"
    },
    {
      "channel": 1,
      "note": 76,
      "start": 6.8582,
      "duration": 0.0153,
      "velocity": 103,
      "chip": "ym2612"
    },
    {
      "channel": 5,
      "note": 78,
      "start": 6.8686,
      "duration": 0.0158,
      "velocity": 102,
      "chip": "ym2612"
    },
    {
      "channel": 4,
      "note": 83,
      "start": 6.8699,
      "duration": 0.016,
      "velocity": 98,
      "chip": "ym2612"
    },
    {
      "channel": 3,
      "note": 88,
      "start": 6.8711,
      "duration": 0.016,
      "velocity": 98,
      "chip": "ym2612"
    },
    {
      "channel": 2,
      "note": 56,
      "start": 6.8722,
      "duration": 0.016,
      "velocity": 93,
      "chip": "ym2612"
    },
    {
      "channel": 1,
      "note": 76,
      "start": 6.8734,
      "duration": 0.0159,
      "velocity": 103,
      "chip": "ym2612"
    },
    {
      "channel": 5,
      "note": 78,
      "start": 6.8844,
      "duration": 0.016,
      "velocity": 102,
      "chip": "ym2612"
    },
    {
      "channel": 4,
      "note": 83,
      "start": 6.8859,
      "duration": 0.0161,
      "velocity": 98,
      "chip": "ym2612"
    },
    {
      "channel": 3,
      "note": 88,
      "start": 6.8871,
      "duration": 0.0162,
      "velocity": 98,
      "chip": "ym2612"
    },
    {
      "channel": 2,
      "note": 56,
      "start": 6.8882,
      "duration": 0.0161,
      "velocity": 93,
      "chip": "ym2612"
    },
    {
      "channel": 1,
      "note": 76,
      "start": 6.8893,
      "duration": 0.0162,
      "velocity": 103,
      "chip": "ym2612"
    },
    {
      "channel": 5,
      "note": 78,
      "start": 6.9004,
      "duration": 0.0161,
      "velocity": 102,
      "chip": "ym2612"
    },
    {
      "channel": 4,
      "note": 83,
      "start": 6.902,
      "duration": 0.0158,
      "velocity": 98,
      "chip": "ym2612"
    },
    {
      "channel": 3,
      "note": 88,
      "start": 6.9032,
      "duration": 0.0161,
      "velocity": 98,
      "chip": "ym2612"
    },
    {
      "channel": 2,
      "note": 56,
      "start": 6.9044,
      "duration": 0.0162,
      "velocity": 93,
      "chip": "ym2612"
    },
    {
      "channel": 1,
      "note": 76,
      "start": 6.9056,
      "duration": 0.0161,
      "velocity": 103,
      "chip": "ym2612"
    },
    {
      "channel": 4,
      "note": 83,
      "start": 6.9178,
      "duration": 0.0159,
      "velocity": 98,
      "chip": "ym2612"
    },
    {
      "channel": 3,
      "note": 88,
      "start": 6.9193,
      "duration": 0.016,
      "velocity": 98,
      "chip": "ym2612"
    },
    {
      "channel": 2,
      "note": 56,
      "start": 6.9205,
      "duration": 0.0161,
      "velocity": 93,
      "chip": "ym2612"
    },
    {
      "channel": 1,
      "note": 76,
      "start": 6.9217,
      "duration": 0.016,
      "velocity": 103,
      "chip": "ym2612"
    },
    {
      "channel": 4,
      "note": 83,
      "start": 6.9336,
      "duration": 0.0207,
      "velocity": 98,
      "chip": "ym2612"
    },
    {
      "channel": 3,
      "note": 88,
      "start": 6.9353,
      "duration": 0.0202,
      "velocity": 98,
      "chip": "ym2612"
    },
    {
      "channel": 2,
      "note": 56,
      "start": 6.9366,
      "duration": 0.0202,
      "velocity": 93,
      "chip": "ym2612"
    },
    {
      "channel": 1,
      "note": 76,
      "start": 6.9378,
      "duration": 0.0203,
      "velocity": 103,
      "chip": "ym2612"
    },
    {
      "channel": 0,
      "note": 36,
      "start": 6.9511,
      "duration": 0.0141,
      "velocity": 115,
      "chip": "ym2612"
    },
    {
      "channel": 5,
      "note": 76,
      "start": 6.953,
      "duration": 0.0135,
      "velocity": 102,
      "chip": "ym2612"
    },
    {
      "channel": 4,
      "note": 83,
      "start": 6.9543,
      "duration": 0.0136,
      "velocity": 98,
      "chip": "ym2612"
    },
    {
      "channel": 3,
      "note": 88,
      "start": 6.9555,
      "duration": 0.014,
      "velocity": 98,
      "chip": "ym2612"
    },
    {
      "channel": 2,
      "note": 56,
      "start": 6.9568,
      "duration": 0.0139,
      "velocity": 93,
      "chip": "ym2612"
    },
    {
      "channel": 1,
      "note": 76,
      "start": 6.958,
      "duration": 0.0139,
      "velocity": 103,
      "chip": "ym2612"
    },
    {
      "channel": 0,
      "note": 36,
      "start": 6.9652,
      "duration": 0.016,
      "velocity": 115,
      "chip": "ym2612"
    },
    {
      "channel": 5,
      "note": 76,
      "start": 6.9665,
      "duration": 0.0159,
      "velocity": 102,
      "chip": "ym2612"
    },
    {
      "channel": 4,
      "note": 83,
      "start": 6.9679,
      "duration": 0.0158,
      "velocity": 98,
      "chip": "ym2612"
    },
    {
      "channel": 3,
      "note": 88,
      "start": 6.9695,
      "duration": 0.0159,
      "velocity": 98,
      "chip": "ym2612"
    },
    {
      "channel": 2,
      "note": 56,
      "start": 6.9707,
      "duration": 0.016,
      "velocity": 93,
      "chip": "ym2612"
    },
    {
      "channel": 1,
      "note": 76,
      "start": 6.9719,
      "duration": 0.016,
      "velocity": 103,
      "chip": "ym2612"
    },
    {
      "channel": 0,
      "note": 37,
      "start": 6.9813,
      "duration": 0.0161,
      "velocity": 115,
      "chip": "ym2612"
    },
    {
      "channel": 5,
      "note": 76,
      "start": 6.9824,
      "duration": 0.0162,
      "velocity": 102,
      "chip": "ym2612"
    },
    {
      "channel": 4,
      "note": 83,
      "start": 6.9837,
      "duration": 0.016,
      "velocity": 98,
      "chip": "ym2612"
    },
    {
      "channel": 3,
      "note": 88,
      "start": 6.9854,
      "duration": 0.0156,
      "velocity": 98,
      "chip": "ym2612"
    },
    {
      "channel": 2,
      "note": 56,
      "start": 6.9867,
      "duration": 0.016,
      "velocity": 93,
      "chip": "ym2612"
    },
    {
      "channel": 1,
      "note": 76,
      "start": 6.988,
      "duration": 0.0159,
      "velocity": 103,
      "chip": "ym2612"
    },
    {
      "channel": 0,
      "note": 37,
      "start": 6.9974,
      "duration": 0.0161,
      "velocity": 115,
      "chip": "ym2612"
    },
    {
      "channel": 5,
      "note": 76,
      "start": 6.9986,
      "duration": 0.0161,
      "velocity": 102,
      "chip": "ym2612"
    },
    {
      "channel": 4,
      "note": 83,
      "start": 6.9997,
      "duration": 0.0161,
      "velocity": 98,
      "chip": "ym2612"
    },
    {
      "channel": 3,
      "note": 88,
      "start": 7.001,
      "duration": 0.0159,
      "velocity": 98,
      "chip": "ym2612"
    },
    {
      "channel": 2,
      "note": 56,
      "start": 7.0027,
      "duration": 0.016,
      "velocity": 93,
      "chip": "ym2612"
    },
    {
      "channel": 1,
      "note": 76,
      "start": 7.0039,
      "duration": 0.0161,
      "velocity": 103,
      "chip": "ym2612"
    },
    {
      "channel": 0,
      "note": 38,
      "start": 7.0134,
      "duration": 0.0162,
      "velocity": 115,
      "chip": "ym2612"
    },
    {
      "channel": 5,
      "note": 76,
      "start": 7.0147,
      "duration": 0.0161,
      "velocity": 102,
      "chip": "ym2612"
    },
    {
      "channel": 4,
      "note": 83,
      "start": 7.0158,
      "duration": 0.0161,
      "velocity": 98,
      "chip": "ym2612"
    },
    {
      "channel": 3,
      "note": 88,
      "start": 7.017,
      "duration": 0.0161,
      "velocity": 98,
      "chip": "ym2612"
    },
    {
      "channel": 2,
      "note": 56,
      "start": 7.0187,
      "duration": 0.0158,
      "velocity": 93,
      "chip": "ym2612"
    },
    {
      "channel": 0,
      "note": 38,
      "start": 7.0296,
      "duration": 0.0161,
      "velocity": 115,
      "chip": "ym2612"
    },
    {
      "channel": 5,
      "note": 76,
      "start": 7.0308,
      "duration": 0.0161,
      "velocity": 102,
      "chip": "ym2612"
    },
    {
      "channel": 2,
      "note": 56,
      "start": 7.0345,
      "duration": 0.0165,
      "velocity": 93,
      "chip": "ym2612"
    },
    {
      "channel": 0,
      "note": 39,
      "start": 7.0457,
      "duration": 0.0161,
      "velocity": 115,
      "chip": "ym2612"
    },
    {
      "channel": 5,
      "note": 76,
      "start": 7.0469,
      "duration": 0.0161,
      "velocity": 102,
      "chip": "ym2612"
    },
    {
      "channel": 2,
      "note": 56,
      "start": 7.051,
      "duration": 0.0157,
      "velocity": 93,
      "chip": "ym2612"
    },
    {
      "channel": 0,
      "note": 39,
      "start": 7.0618,
      "duration": 0.0161,
      "velocity": 115,
      "chip": "ym2612"
    },
    {
      "channel": 5,
      "note": 76,
      "start": 7.063,
      "duration": 0.016,
      "velocity": 102,
      "chip": "ym2612"
    },
    {
      "channel": 2,
      "note": 56,
      "start": 7.0667,
      "duration": 0.016,
      "velocity": 93,
      "chip": "ym2612"
    },
    {
      "channel": 0,
      "note": 40,
      "start": 7.0779,
      "duration": 0.0161,
      "velocity": 115,
      "chip": "ym2612"
    },
    {
      "channel": 5,
      "note": 76,
      "start": 7.079,
      "duration": 0.0161,
      "velocity": 102,
      "chip": "ym2612"
    },
    {
      "channel": 2,
      "note": 56,
      "start": 7.0827,
      "duration": 0.016,
      "velocity": 93,
      "chip": "ym2612"
    },
    {
      "channel": 0,
      "note": 40,
      "start": 7.094,
      "duration": 0.0161,
      "velocity": 115,
      "chip": "ym2612"
    },
    {
      "channel": 5,
      "note": 76,
      "start": 7.0951,
      "duration": 0.0161,
      "velocity": 102,
      "chip": "ym2612"
    },
    {
      "channel": 2,
      "note": 56,
      "start": 7.0988,
      "duration": 0.0161,
      "velocity": 93,
      "chip": "ym2612"
    },
    {
      "channel": 0,
      "note": 40,
      "start": 7.1101,
      "duration": 0.0161,
      "velocity": 115,
      "chip": "ym2612"
    },
    {
      "channel": 2,
      "note": 56,
      "start": 7.1149,
      "duration": 0.0162,
      "velocity": 93,
      "chip": "ym2612"
    },
    {
      "channel": 0,
      "note": 41,
      "start": 7.1262,
      "duration": 0.0179,
      "velocity": 124,
      "chip": "ym2612"
    },
    {
      "channel": 2,
      "note": 56,
      "start": 7.131,
      "duration": 0.019,
      "velocity": 93,
      "chip": "ym2612"
    },
    {
      "channel": 0,
      "note": 84,
      "start": 7.1442,
      "duration": 0.0143,
      "velocity": 124,
      "chip": "ym2612"
    },
    {
      "channel": 4,
      "note": 85,
      "start": 7.1471,
      "duration": 0.0139,
      "velocity": 98,
      "chip": "ym2612"
    },
    {
      "channel": 3,
      "note": 88,
      "start": 7.1486,
      "duration": 0.0136,
      "velocity": 98,
      "chip": "ym2612"
    },
    {
      "channel": 2,
      "note": 54,
      "start": 7.1501,
      "duration": 0.0132,
      "velocity": 93,
      "chip": "ym2612"
    },
    {
      "channel": 1,
      "note": 81,
      "start": 7.1522,
      "duration": 0.0123,
      "velocity": 103,
      "chip": "ym2612"
    },
    {
      "channel": 0,
      "note": 82,
      "start": 7.1584,
      "duration": 0.0161,
      "velocity": 124,
      "chip": "ym2612"
    },
    {
      "channel": 4,
      "note": 85,
      "start": 7.1609,
      "duration": 0.016,
      "velocity": 98,
      "chip": "ym2612"
    },
    {
      "channel": 3,
      "note": 88,
      "start": 7.1621,
      "duration": 0.0159,
      "velocity": 98,
      "chip": "ym2612"
    },
    {
      "channel": 2,
      "note": 54,
      "start": 7.1633,
      "duration": 0.0159,
      "velocity": 93,
      "chip": "ym2612"
    },
    {
      "channel": 1,
      "note": 81,
      "start": 7.1645,
      "duration": 0.0159,
      "velocity": 103,
      "chip": "ym2612"
    },
    {
      "channel": 0,
      "note": 80,
      "start": 7.1745,
      "duration": 0.0161,
      "velocity": 124,
      "chip": "ym2612"
    },
    {
      "channel": 4,
      "note": 85,
      "start": 7.1769,
      "duration": 0.0162,
      "velocity": 98,
      "chip": "ym2612"
    },
    {
      "channel": 3,
      "note": 88,
      "start": 7.178,
      "duration": 0.0161,
      "velocity": 98,
      "chip": "ym2612"
    },
    {
      "channel": 2,
      "note": 54,
      "start": 7.1792,
      "duration": 0.0161,
      "velocity": 93,
      "chip": "ym2612"
    },
    {
      "channel": 1,
      "note": 81,
      "start": 7.1804,
      "duration": 0.0161,
      "velocity": 103,
      "chip": "ym2612"
    },
    {
      "channel": 0,
      "note": 77,
      "start": 7.1906,
      "duration": 0.0161,
      "velocity": 124,
      "chip": "ym2612"
    },
    {
      "channel": 4,
      "note": 85,
      "start": 7.193,
      "duration": 0.0161,
      "velocity": 98,
      "chip": "ym2612"
    },
    {
      "channel": 3,
      "note": 88,
      "start": 7.1942,
      "duration": 0.0161,
      "velocity": 98,
      "chip": "ym2612"
    },
    {
      "channel": 2,
      "note": 54,
      "start": 7.1953,
      "duration": 0.0161,
      "velocity": 93,
      "chip": "ym2612"
    },
    {
      "channel": 1,
      "note": 81,
      "start": 7.1965,
      "duration": 0.0161,
      "velocity": 103,
      "chip": "ym2612"
    },
    {
      "channel": 0,
      "note": 75,
      "start": 7.2067,
      "duration": 0.0161,
      "velocity": 124,
      "chip": "ym2612"
    },
    {
      "channel": 4,
      "note": 85,
      "start": 7.2091,
      "duration": 0.0161,
      "velocity": 98,
      "chip": "ym2612"
    },
    {
      "channel": 3,
      "note": 88,
      "start": 7.2103,
      "duration": 0.0161,
      "velocity": 98,
      "chip": "ym2612"
    },
    {
      "channel": 2,
      "note": 54,
      "start": 7.2114,
      "duration": 0.0161,
      "velocity": 93,
      "chip": "ym2612"
    },
    {
      "channel": 1,
      "note": 81,
      "start": 7.2126,
      "duration": 0.0161,
      "velocity": 103,
      "chip": "ym2612"
    },
    {
      "channel": 0,
      "note": 72,
      "start": 7.2228,
      "duration": 0.0161,
      "velocity": 124,
      "chip": "ym2612"
    },
    {
      "channel": 4,
      "note": 85,
      "start": 7.2252,
      "duration": 0.0163,
      "velocity": 98,
      "chip": "ym2612"
    },
    {
      "channel": 3,
      "note": 88,
      "start": 7.2264,
      "duration": 0.0163,
      "velocity": 98,
      "chip": "ym2612"
    },
    {
      "channel": 2,
      "note": 54,
      "start": 7.2275,
      "duration": 0.0163,
      "velocity": 93,
      "chip": "ym2612"
    },
    {
      "channel": 1,
      "note": 81,
      "start": 7.2287,
      "duration": 0.0163,
      "velocity": 103,
      "chip": "ym2612"
    },
    {
      "channel": 0,
      "note": 70,
      "start": 7.2389,
      "duration": 0.0161,
      "velocity": 124,
      "chip": "ym2612"
    },
    {
      "channel": 5,
      "note": 81,
      "start": 7.2404,
      "duration": 0.0159,
      "velocity": 102,
      "chip": "ym2612"
    },
    {
      "channel": 4,
      "note": 85,
      "start": 7.2416,
      "duration": 0.0159,
      "velocity": 98,
      "chip": "ym2612"
    },
    {
      "channel": 3,
      "note": 88,
      "start": 7.2427,
      "duration": 0.0158,
      "velocity": 98,
      "chip": "ym2612"
    },
    {
      "channel": 2,
      "note": 54,
      "start": 7.2439,
      "duration": 0.0159,
      "velocity": 93,
      "chip": "ym2612"
    },
    {
      "channel": 1,
      "note": 81,
      "start": 7.245,
      "duration": 0.0158,
      "velocity": 103,
      "chip": "ym2612"
    },
    {
      "channel": 0,
      "note": 68,
      "start": 7.255,
      "duration": 0.0161,
      "velocity": 124,
      "chip": "ym2612"
    },
    {
      "channel": 5,
      "note": 81,
      "start": 7.2562,
      "duration": 0.016,
      "velocity": 102,
      "chip": "ym2612"
    },
    {
      "channel": 4,
      "note": 85,
      "start": 7.2574,
      "duration": 0.016,
      "velocity": 98,
      "chip": "ym2612"
    },
    {
      "channel": 3,
      "note": 88,
      "start": 7.2585,
      "duration": 0.016,
      "velocity": 98,
      "chip": "ym2612"
    },
    {
      "channel": 2,
      "note": 54,
      "start": 7.2597,
      "duration": 0.016,
      "velocity": 93,
      "chip": "ym2612"
    },
    {
      "channel": 1,
      "note": 81,
      "start": 7.2608,
      "duration": 0.016,
      "velocity": 103,
      "chip": "ym2612"
    },
    {
      "channel": 0,
      "note": 65,
      "start": 7.2711,
      "duration": 0.0162,
      "velocity": 124,
      "chip": "ym2612"
    },
    {
      "channel": 5,
      "note": 81,
      "start": 7.2722,
      "duration": 0.0161,
      "velocity": 102,
      "chip": "ym2612"
    },
    {
      "channel": 4,
      "note": 85,
      "start": 7.2734,
      "duration": 0.0161,
      "velocity": 98,
      "chip": "ym2612"
    },
    {
      "channel": 3,
      "note": 88,
      "start": 7.2746,
      "duration": 0.0162,
      "velocity": 98,
      "chip": "ym2612"
    },
    {
      "channel": 2,
      "note": 54,
      "start": 7.2757,
      "duration": 0.0161,
      "velocity": 93,
      "chip": "ym2612"
    },
    {
      "channel": 1,
      "note": 81,
      "start": 7.2769,
      "duration": 0.0162,
      "velocity": 103,
      "chip": "ym2612"
    },
    {
      "channel": 0,
      "note": 63,
      "start": 7.2873,
      "duration": 0.0154,
      "velocity": 1,
      "chip": "ym2612"
    },
    {
      "channel": 5,
      "note": 81,
      "start": 7.2884,
      "duration": 0.0155,
      "velocity": 102,
      "chip": "ym2612"
    },
    {
      "channel": 4,
      "note": 85,
      "start": 7.2896,
      "duration": 0.0154,
      "velocity": 98,
      "chip": "ym2612"
    },
    {
      "channel": 3,
      "note": 88,
      "start": 7.2907,
      "duration": 0.0154,
      "velocity": 98,
      "chip": "ym2612"
    },
    {
      "channel": 2,
      "note": 54,
      "start": 7.2919,
      "duration": 0.0154,
      "velocity": 93,
      "chip": "ym2612"
    },
    {
      "channel": 1,
      "note": 81,
      "start": 7.293,
      "duration": 0.0154,
      "velocity": 103,
      "chip": "ym2612"
    },
    {
      "channel": 5,
      "note": 81,
      "start": 7.3039,
      "duration": 0.0155,
      "velocity": 102,
      "chip": "ym2612"
    },
    {
      "channel": 4,
      "note": 85,
      "start": 7.305,
      "duration": 0.0155,
      "velocity": 98,
      "chip": "ym2612"
    },
    {
      "channel": 3,
      "note": 88,
      "start": 7.3061,
      "duration": 0.0155,
      "velocity": 98,
      "chip": "ym2612"
    },
    {
      "channel": 2,
      "note": 54,
      "start": 7.3073,
      "duration": 0.0155,
      "velocity": 93,
      "chip": "ym2612"
    },
    {
      "channel": 1,
      "note": 81,
      "start": 7.3084,
      "duration": 0.0155,
      "velocity": 103,
      "chip": "ym2612"
    },
    {
      "channel": 5,
      "note": 81,
      "start": 7.3193,
      "duration": 0.0163,
      "velocity": 102,
      "chip": "ym2612"
    },
    {
      "channel": 4,
      "note": 85,
      "start": 7.3205,
      "duration": 0.0163,
      "velocity": 98,
      "chip": "ym2612"
    },
    {
      "channel": 3,
      "note": 88,
      "start": 7.3216,
      "duration": 0.0163,
      "velocity": 98,
      "chip": "ym2612"
    },
    {
      "channel": 2,
      "note": 54,
      "start": 7.3228,
      "duration": 0.0162,
      "velocity": 93,
      "chip": "ym2612"
    },
    {
      "channel": 1,
      "note": 81,
      "start": 7.3239,
      "duration": 0.0162,
      "velocity": 103,
      "chip": "ym2612"
    },
    {
      "channel": 5,
      "note": 81,
      "start": 7.3356,
      "duration": 0.016,
      "velocity": 102,
      "chip": "ym2612"
    },
    {
      "channel": 4,
      "note": 85,
      "start": 7.3367,
      "duration": 0.0161,
      "velocity": 98,
      "chip": "ym2612"
    },
    {
      "channel": 3,
      "note": 88,
      "start": 7.3379,
      "duration": 0.0161,
      "velocity": 98,
      "chip": "ym2612"
    },
    {
      "channel": 2,
      "note": 54,
      "start": 7.339,
      "duration": 0.0162,
      "velocity": 93,
      "chip": "ym2612"
    },
    {
      "channel": 1,
      "note": 81,
      "start": 7.3402,
      "duration": 0.0161,
      "velocity": 103,
      "chip": "ym2612"
    },
    {
      "channel": 5,
      "note": 81,
      "start": 7.3516,
      "duration": 0.0156,
      "velocity": 102,
      "chip": "ym2612"
    },
    {
      "channel": 4,
      "note": 85,
      "start": 7.3528,
      "duration": 0.0162,
      "velocity": 98,
      "chip": "ym2612"
    },
    {
      "channel": 3,
      "note": 88,
      "start": 7.354,
      "duration": 0.0163,
      "velocity": 98,
      "chip": "ym2612"
    },
    {
      "channel": 2,
      "note": 54,
      "start": 7.3552,
      "duration": 0.0163,
      "velocity": 93,
      "chip": "ym2612"
    },
    {
      "channel": 1,
      "note": 81,
      "start": 7.3563,
      "duration": 0.0163,
      "velocity": 103,
      "chip": "ym2612"
    },
    {
      "channel": 5,
      "note": 81,
      "start": 7.3672,
      "duration": 0.0161,
      "velocity": 102,
      "chip": "ym2612"
    },
    {
      "channel": 4,
      "note": 85,
      "start": 7.369,
      "duration": 0.016,
      "velocity": 98,
      "chip": "ym2612"
    },
    {
      "channel": 3,
      "note": 88,
      "start": 7.3703,
      "duration": 0.016,
      "velocity": 98,
      "chip": "ym2612"
    },
    {
      "channel": 2,
      "note": 54,
      "start": 7.3715,
      "duration": 0.016,
      "velocity": 93,
      "chip": "ym2612"
    },
    {
      "channel": 1,
      "note": 81,
      "start": 7.3727,
      "duration": 0.016,
      "velocity": 103,
      "chip": "ym2612"
    },
    {
      "channel": 5,
      "note": 81,
      "start": 7.3833,
      "duration": 0.0161,
      "velocity": 102,
      "chip": "ym2612"
    },
    {
      "channel": 4,
      "note": 85,
      "start": 7.385,
      "duration": 0.0158,
      "velocity": 98,
      "chip": "ym2612"
    },
    {
      "channel": 3,
      "note": 88,
      "start": 7.3863,
      "duration": 0.0161,
      "velocity": 98,
      "chip": "ym2612"
    },
    {
      "channel": 2,
      "note": 54,
      "start": 7.3875,
      "duration": 0.0161,
      "velocity": 93,
      "chip": "ym2612"
    },
    {
      "channel": 1,
      "note": 81,
      "start": 7.3887,
      "duration": 0.0162,
      "velocity": 103,
      "chip": "ym2612"
    },
    {
      "channel": 5,
      "note": 81,
      "start": 7.3994,
      "duration": 0.0161,
      "velocity": 102,
      "chip": "ym2612"
    },
    {
      "channel": 4,
      "note": 85,
      "start": 7.4008,
      "duration": 0.0159,
      "velocity": 98,
      "chip": "ym2612"
    },
    {
      "channel": 3,
      "note": 88,
      "start": 7.4024,
      "duration": 0.016,
      "velocity": 98,
      "chip": "ym2612"
    },
    {
      "channel": 2,
      "note": 54,
      "start": 7.4036,
      "duration": 0.016,
      "velocity": 93,
      "chip": "ym2612"
    },
    {
      "channel": 5,
      "note": 81,
      "start": 7.4155,
      "duration": 0.0202,
      "velocity": 102,
      "chip": "ym2612"
    },
    {
      "channel": 2,
      "note": 54,
      "start": 7.4196,
      "duration": 0.0206,
      "velocity": 93,
      "chip": "ym2612"
    },
    {
      "channel": 0,
      "note": 84,
      "start": 7.4342,
      "duration": 0.0141,
      "velocity": 124,
      "chip": "ym2612"
    },
    {
      "channel": 5,
      "note": 81,
      "start": 7.4357,
      "duration": 0.0137,
      "velocity": 102,
      "chip": "ym2612"
    },
    {
      "channel": 4,
      "note": 85,
      "start": 7.4372,
      "duration": 0.0137,
      "velocity": 98,
      "chip": "ym2612"
    },
    {
      "channel": 3,
      "note": 88,
      "start": 7.4387,
      "duration": 0.0137,
      "velocity": 98,
      "chip": "ym2612"
    },
    {
      "channel": 2,
      "note": 54,
      "start": 7.4402,
      "duration": 0.0135,
      "velocity": 93,
      "chip": "ym2612"
    },
    {
      "channel": 1,
      "note": 81,
      "start": 7.4417,
      "duration": 0.0132,
      "velocity": 103,
      "chip": "ym2612"
    },
    {
      "channel": 0,
      "note": 82,
      "start": 7.4483,
      "duration": 0.0161,
      "velocity": 124,
      "chip": "ym2612"
    },
    {
      "channel": 5,
      "note": 81,
      "start": 7.4495,
      "duration": 0.0161,
      "velocity": 102,
      "chip": "ym2612"
    },
    {
      "channel": 4,
      "note": 85,
      "start": 7.4509,
      "duration": 0.0159,
      "velocity": 98,
      "chip": "ym2612"
    },
    {
      "channel": 3,
      "note": 88,
      "start": 7.4524,
      "duration": 0.0159,
      "velocity": 98,
      "chip": "ym2612"
    },
    {
      "channel": 2,
      "note": 54,
      "start": 7.4537,
      "duration": 0.0159,
      "velocity": 93,
      "chip": "ym2612"
    },
    {
      "channel": 1,
      "note": 81,
      "start": 7.4549,
      "duration": 0.0158,
      "velocity": 103,
      "chip": "ym2612"
    },
    {
      "channel": 0,
      "note": 80,
      "start": 7.4644,
      "duration": 0.0161,
      "velocity": 124,
      "chip": "ym2612"
    },
    {
      "channel": 5,
      "note": 81,
      "start": 7.4656,
      "duration": 0.0161,
      "velocity": 102,
      "chip": "ym2612"
    },
    {
      "channel": 4,
      "note": 85,
      "start": 7.4667,
      "duration": 0.0161,
      "velocity": 98,
      "chip": "ym2612"
    },
    {
      "channel": 3,
      "note": 88,
      "start": 7.4683,
      "duration": 0.0158,
      "velocity": 98,
      "chip": "ym2612"
    },
    {
      "channel": 2,
      "note": 54,
      "start": 7.4696,
      "duration": 0.0161,
      "velocity": 93,
      "chip": "ym2612"
    },
    {
      "channel": 1,
      "note": 81,
      "start": 7.4708,
      "duration": 0.0161,
      "velocity": 103,
      "chip": "ym2612"
    },
    {
      "channel": 0,
      "note": 77,
      "start": 7.4804,
      "duration": 0.0161,
      "velocity": 124,
      "chip": "ym2612"
    },
    {
      "channel": 5,
      "note": 81,
      "start": 7.4817,
      "duration": 0.016,
      "velocity": 102,
      "chip": "ym2612"
    },
    {
      "channel": 4,
      "note": 85,
      "start": 7.4828,
      "duration": 0.016,
      "velocity": 98,
      "chip": "ym2612"
    },
    {
      "channel": 3,
      "note": 88,
      "start": 7.4841,
      "duration": 0.0159,
      "velocity": 98,
      "chip": "ym2612"
    },
    {
      "channel": 2,
      "note": 54,
      "start": 7.4857,
      "duration": 0.016,
      "velocity": 93,
      "chip": "ym2612"
    },
    {
      "channel": 1,
      "note": 81,
      "start": 7.4869,
      "duration": 0.016,
      "velocity": 103,
      "chip": "ym2612"
    },
    {
      "channel": 0,
      "note": 75,
      "start": 7.4965,
      "duration": 0.0161,
      "velocity": 124,
      "chip": "ym2612"
    },
    {
      "channel": 4,
      "note": 85,
      "start": 7.4988,
      "duration": 0.0161,
      "velocity": 98,
      "chip": "ym2612"
    },
    {
      "channel": 3,
      "note": 88,
      "start": 7.5,
      "duration": 0.0161,
      "velocity": 98,
      "chip": "ym2612"
    },
    {
      "channel": 2,
      "note": 54,
      "start": 7.5017,
      "duration": 0.0158,
      "velocity": 93,
      "chip": "ym2612"
    },
    {
      "channel": 0,
      "note": 72,
      "start": 7.5126,
      "duration": 0.0179,
      "velocity": 124,
      "chip": "ym2612"
    },
    {
      "channel": 2,
      "note": 54,
      "start": 7.5175,
      "duration": 0.0198,
      "velocity": 93,
      "chip": "ym2612"
    },
    {
      "channel": 0,
      "note": 84,
      "start": 7.5306,
      "duration": 0.0143,
      "velocity": 124,
      "chip": "ym2612"
    },
    {
      "channel": 5,
      "note": 81,
      "start": 7.532,
      "duration": 0.0141,
      "velocity": 102,
      "chip": "ym2612"
    },
    {
      "channel": 4,
      "note": 85,
      "start": 7.5336,
      "duration": 0.0137,
      "velocity": 98,
      "chip": "ym2612"
    },
    {
      "channel": 3,
      "note": 88,
      "start": 7.5358,
      "duration": 0.0127,
      "velocity": 98,
      "chip": "ym2612"
    },
    {
      "channel": 2,
      "note": 54,
      "start": 7.5373,
      "duration": 0.0125,
      "velocity": 93,
      "chip": "ym2612"
    },
    {
      "channel": 1,
      "note": 80,
      "start": 7.5388,
      "duration": 0.0127,
      "velocity": 103,
      "chip": "ym2612"
    },
    {
      "channel": 0,
      "note": 82,
      "start": 7.5449,
      "duration": 0.016,
      "velocity": 124,
      "chip": "ym2612"
    },
    {
      "channel": 5,
      "note": 81,
      "start": 7.5461,
      "duration": 0.016,
      "velocity": 102,
      "chip": "ym2612"
    },
    {
      "channel": 4,
      "note": 85,
      "start": 7.5473,
      "duration": 0.016,
      "velocity": 98,
      "chip": "ym2612"
    },
    {
      "channel": 3,
      "note": 88,
      "start": 7.5485,
      "duration": 0.0159,
      "velocity": 98,
      "chip": "ym2612"
    },
    {
      "channel": 2,
      "note": 54,
      "start": 7.5497,
      "duration": 0.0158,
      "velocity": 93,
      "chip": "ym2612"
    },
    {
      "channel": 1,
      "note": 80,
      "start": 7.5514,
      "duration": 0.0153,
      "velocity": 103,
      "chip": "ym2612"
    },
    {
      "channel": 0,
      "note": 80,
      "start": 7.5609,
      "duration": 0.0161,
      "velocity": 124,
      "chip": "ym2612"
    },
    {
      "channel": 5,
      "note": 81,
      "start": 7.5621,
      "duration": 0.0161,
      "velocity": 102,
      "chip": "ym2612"
    },
    {
      "channel": 4,
      "note": 85,
      "start": 7.5633,
      "duration": 0.0161,
      "velocity": 98,
      "chip": "ym2612"
    },
    {
      "channel": 3,
      "note": 88,
      "start": 7.5644,
      "duration": 0.0161,
      "velocity": 98,
      "chip": "ym2612"
    },
    {
      "channel": 2,
      "note": 54,
      "start": 7.5656,
      "duration": 0.0161,
      "velocity": 93,
      "chip": "ym2612"
    },
    {
      "channel": 1,
      "note": 80,
      "start": 7.5667,
      "duration": 0.0161,
      "velocity": 103,
      "chip": "ym2612"
    },
    {
      "channel": 0,
      "note": 77,
      "start": 7.577,
      "duration": 0.0161,
      "velocity": 124,
      "chip": "ym2612"
    },
    {
      "channel": 5,
      "note": 81,
      "start": 7.5782,
      "duration": 0.0161,
      "velocity": 102,
      "chip": "ym2612"
    },
    {
      "channel": 4,
      "note": 85,
      "start": 7.5794,
      "duration": 0.0161,
      "velocity": 98,
      "chip": "ym2612"
    },
    {
      "channel": 3,
      "note": 88,
      "start": 7.5805,
      "duration": 0.0161,
      "velocity": 98,
      "chip": "ym2612"
    },
    {
      "channel": 2,
      "note": 54,
      "start": 7.5817,
      "duration": 0.0161,
      "velocity": 93,
      "chip": "ym2612"
    },
    {
      "channel": 1,
      "note": 80,
      "start": 7.5828,
      "duration": 0.0161,
      "velocity": 103,
      "chip": "ym2612"
    },
    {
      "channel": 0,
      "note": 75,
      "start": 7.5931,
      "duration": 0.0161,
      "velocity": 124,
      "chip": "ym2612"
    },
    {
      "channel": 4,
      "note": 85,
      "start": 7.5955,
      "duration": 0.0161,
      "velocity": 98,
      "chip": "ym2612"
    },
    {
      "channel": 3,
      "note": 88,
      "start": 7.5966,
      "duration": 0.0161,
      "velocity": 98,
      "chip": "ym2612"
    },
    {
      "channel": 2,
      "note": 54,
      "start": 7.5978,
      "duration": 0.0161,
      "velocity": 93,
      "chip": "ym2612"
    },
    {
      "channel": 1,
      "note": 80,
      "start": 7.5989,
      "duration": 0.0161,
      "velocity": 103,
      "chip": "ym2612"
    },
    {
      "channel": 0,
      "note": 72,
      "start": 7.6093,
      "duration": 0.0161,
      "velocity": 124,
      "chip": "ym2612"
    },
    {
      "channel": 4,
      "note": 85,
      "start": 7.6115,
      "duration": 0.0164,
      "velocity": 98,
      "chip": "ym2612"
    },
    {
      "channel": 3,
      "note": 88,
      "start": 7.6127,
      "duration": 0.0164,
      "velocity": 98,
      "chip": "ym2612"
    },
    {
      "channel": 2,
      "note": 54,
      "start": 7.6138,
      "duration": 0.0165,
      "velocity": 93,
      "chip": "ym2612"
    },
    {
      "channel": 1,
      "note": 80,
      "start": 7.615,
      "duration": 0.0165,
      "velocity": 103,
      "chip": "ym2612"
    },
    {
      "channel": 0,
      "note": 70,
      "start": 7.6254,
      "duration": 0.0161,
      "velocity": 124,
      "chip": "ym2612"
    },
    {
      "channel": 5,
      "note": 80,
      "start": 7.6268,
      "duration": 0.0158,
      "velocity": 102,
      "chip": "ym2612"
    },
    {
      "channel": 4,
      "note": 85,
      "start": 7.628,
      "duration": 0.0159,
      "velocity": 98,
      "chip": "ym2612"
    },
    {
      "channel": 3,
      "note": 88,
      "start": 7.6291,
      "duration": 0.0158,
      "velocity": 98,
      "chip": "ym2612"
    },
    {
      "channel": 2,
      "note": 54,
      "start": 7.6303,
      "duration": 0.0158,
      "velocity": 93,
      "chip": "ym2612"
    },
    {
      "channel": 1,
      "note": 80,
      "start": 7.6315,
      "duration": 0.0158,
      "velocity": 103,
      "chip": "ym2612"
    },
    {
      "channel": 0,
      "note": 68,
      "start": 7.6415,
      "duration": 0.0161,
      "velocity": 124,
      "chip": "ym2612"
    },
    {
      "channel": 5,
      "note": 80,
      "start": 7.6427,
      "duration": 0.016,
      "velocity": 102,
      "chip": "ym2612"
    },
    {
      "channel": 4,
      "note": 85,
      "start": 7.6438,
      "duration": 0.016,
      "velocity": 98,
      "chip": "ym2612"
    },
    {
      "channel": 3,
      "note": 88,
      "start": 7.6449,
      "duration": 0.016,
      "velocity": 98,
      "chip": "ym2612"
    },
    {
      "channel": 2,
      "note": 54,
      "start": 7.6461,
      "duration": 0.0161,
      "velocity": 93,
      "chip": "ym2612"
    },
    {
      "channel": 1,
      "note": 80,
      "start": 7.6472,
      "duration": 0.0161,
      "velocity": 103,
      "chip": "ym2612"
    },
    {
      "channel": 0,
      "note": 65,
      "start": 7.6576,
      "duration": 0.0161,
      "velocity": 124,
      "chip": "ym2612"
    },
    {
      "channel": 5,
      "note": 80,
      "start": 7.6587,
      "duration": 0.0161,
      "velocity": 102,
      "chip": "ym2612"
    },
    {
      "channel": 4,
      "note": 85,
      "start": 7.6598,
      "duration": 0.0161,
      "velocity": 98,
      "chip": "ym2612"
    },
    {
      "channel": 3,
      "note": 88,
      "start": 7.661,
      "duration": 0.0163,
      "velocity": 98,
      "chip": "ym2612"
    },
    {
      "channel": 2,
      "note": 54,
      "start": 7.6622,
      "duration": 0.0162,
      "velocity": 93,
      "chip": "ym2612"
    },
    {
      "channel": 1,
      "note": 80,
      "start": 7.6633,
      "duration": 0.0163,
      "velocity": 103,
      "chip": "ym2612"
    },
    {
      "channel": 0,
      "note": 63,
      "start": 7.6736,
      "duration": 0.0153,
      "velocity": 1,
      "chip": "ym2612"
    },
    {
      "channel": 5,
      "note": 80,
      "start": 7.6748,
      "duration": 0.0153,
      "velocity": 102,
      "chip": "ym2612"
    },
    {
      "channel": 4,
      "note": 85,
      "start": 7.676,
      "duration": 0.0153,
      "velocity": 98,
      "chip": "ym2612"
    },
    {
      "channel": 3,
      "note": 88,
      "start": 7.6773,
      "duration": 0.0152,
      "velocity": 98,
      "chip": "ym2612"
    },
    {
      "channel": 2,
      "note": 54,
      "start": 7.6784,
      "duration": 0.0152,
      "velocity": 93,
      "chip": "ym2612"
    },
    {
      "channel": 1,
      "note": 80,
      "start": 7.6796,
      "duration": 0.0152,
      "velocity": 103,
      "chip": "ym2612"
    },
    {
      "channel": 5,
      "note": 80,
      "start": 7.69,
      "duration": 0.0153,
      "velocity": 102,
      "chip": "ym2612"
    },
    {
      "channel": 4,
      "note": 85,
      "start": 7.6912,
      "duration": 0.0153,
      "velocity": 98,
      "chip": "ym2612"
    },
    {
      "channel": 3,
      "note": 88,
      "start": 7.6925,
      "duration": 0.0153,
      "velocity": 98,
      "chip": "ym2612"
    },
    {
      "channel": 2,
      "note": 54,
      "start": 7.6936,
      "duration": 0.0153,
      "velocity": 93,
      "chip": "ym2612"
    },
    {
      "channel": 1,
      "note": 80,
      "start": 7.6948,
      "duration": 0.0154,
      "velocity": 103,
      "chip": "ym2612"
    },
    {
      "channel": 5,
      "note": 80,
      "start": 7.7053,
      "duration": 0.0161,
      "velocity": 102,
      "chip": "ym2612"
    },
    {
      "channel": 4,
      "note": 85,
      "start": 7.7065,
      "duration": 0.016,
      "velocity": 98,
      "chip": "ym2612"
    },
    {
      "channel": 3,
      "note": 88,
      "start": 7.7077,
      "duration": 0.016,
      "velocity": 98,
      "chip": "ym2612"
    },
    {
      "channel": 2,
      "note": 54,
      "start": 7.7089,
      "duration": 0.016,
      "velocity": 93,
      "chip": "ym2612"
    },
    {
      "channel": 1,
      "note": 80,
      "start": 7.7102,
      "duration": 0.0159,
      "velocity": 103,
      "chip": "ym2612"
    },
    {
      "channel": 5,
      "note": 80,
      "start": 7.7214,
      "duration": 0.0161,
      "velocity": 102,
      "chip": "ym2612"
    },
    {
      "channel": 4,
      "note": 85,
      "start": 7.7226,
      "duration": 0.0161,
      "velocity": 98,
      "chip": "ym2612"
    },
    {
      "channel": 3,
      "note": 88,
      "start": 7.7237,
      "duration": 0.0162,
      "velocity": 98,
      "chip": "ym2612"
    },
    {
      "channel": 2,
      "note": 54,
      "start": 7.7249,
      "duration": 0.0162,
      "velocity": 93,
      "chip": "ym2612"
    },
    {
      "channel": 1,
      "note": 80,
      "start": 7.7261,
      "duration": 0.0161,
      "velocity": 103,
      "chip": "ym2612"
    },
    {
      "channel": 5,
      "note": 80,
      "start": 7.7375,
      "duration": 0.0161,
      "velocity": 102,
      "chip": "ym2612"
    },
    {
      "channel": 4,
      "note": 85,
      "start": 7.7386,
      "duration": 0.0161,
      "velocity": 98,
      "chip": "ym2612"
    },
    {
      "channel": 3,
      "note": 88,
      "start": 7.7399,
      "duration": 0.0161,
      "velocity": 98,
      "chip": "ym2612"
    },
    {
      "channel": 2,
      "note": 54,
      "start": 7.7411,
      "duration": 0.0161,
      "velocity": 93,
      "chip": "ym2612"
    },
    {
      "channel": 1,
      "note": 80,
      "start": 7.7422,
      "duration": 0.0161,
      "velocity": 103,
      "chip": "ym2612"
    },
    {
      "channel": 5,
      "note": 80,
      "start": 7.7536,
      "duration": 0.0163,
      "velocity": 102,
      "chip": "ym2612"
    },
    {
      "channel": 4,
      "note": 85,
      "start": 7.7547,
      "duration": 0.0163,
      "velocity": 98,
      "chip": "ym2612"
    },
    {
      "channel": 3,
      "note": 88,
      "start": 7.7559,
      "duration": 0.0162,
      "velocity": 98,
      "chip": "ym2612"
    },
    {
      "channel": 2,
      "note": 54,
      "start": 7.7572,
      "duration": 0.0162,
      "velocity": 93,
      "chip": "ym2612"
    },
    {
      "channel": 1,
      "note": 80,
      "start": 7.7583,
      "duration": 0.0162,
      "velocity": 103,
      "chip": "ym2612"
    },
    {
      "channel": 5,
      "note": 80,
      "start": 7.7699,
      "duration": 0.0164,
      "velocity": 102,
      "chip": "ym2612"
    },
    {
      "channel": 4,
      "note": 85,
      "start": 7.771,
      "duration": 0.0165,
      "velocity": 98,
      "chip": "ym2612"
    },
    {
      "channel": 3,
      "note": 88,
      "start": 7.7722,
      "duration": 0.0165,
      "velocity": 98,
      "chip": "ym2612"
    },
    {
      "channel": 2,
      "note": 54,
      "start": 7.7734,
      "duration": 0.0165,
      "velocity": 93,
      "chip": "ym2612"
    },
    {
      "channel": 1,
      "note": 80,
      "start": 7.7745,
      "duration": 0.0165,
      "velocity": 103,
      "chip": "ym2612"
    },
    {
      "channel": 5,
      "note": 80,
      "start": 7.7863,
      "duration": 0.0162,
      "velocity": 102,
      "chip": "ym2612"
    },
    {
      "channel": 4,
      "note": 85,
      "start": 7.7875,
      "duration": 0.0162,
      "velocity": 98,
      "chip": "ym2612"
    },
    {
      "channel": 3,
      "note": 88,
      "start": 7.7887,
      "duration": 0.0163,
      "velocity": 98,
      "chip": "ym2612"
    },
    {
      "channel": 2,
      "note": 54,
      "start": 7.7899,
      "duration": 0.0163,
      "velocity": 93,
      "chip": "ym2612"
    },
    {
      "channel": 5,
      "note": 80,
      "start": 7.8025,
      "duration": 0.0197,
      "velocity": 102,
      "chip": "ym2612"
    },
    {
      "channel": 2,
      "note": 54,
      "start": 7.8061,
      "duration": 0.0205,
      "velocity": 93,
      "chip": "ym2612"
    },
    {
      "channel": 0,
      "note": 84,
      "start": 7.821,
      "duration": 0.0143,
      "velocity": 124,
      "chip": "ym2612"
    },
    {
      "channel": 5,
      "note": 80,
      "start": 7.8222,
      "duration": 0.0143,
      "velocity": 102,
      "chip": "ym2612"
    },
    {
      "channel": 4,
      "note": 85,
      "start": 7.8237,
      "duration": 0.014,
      "velocity": 98,
      "chip": "ym2612"
    },
    {
      "channel": 3,
      "note": 88,
      "start": 7.8252,
      "duration": 0.0137,
      "velocity": 98,
      "chip": "ym2612"
    },
    {
      "channel": 2,
      "note": 54,
      "start": 7.8266,
      "duration": 0.0135,
      "velocity": 93,
      "chip": "ym2612"
    },
    {
      "channel": 1,
      "note": 78,
      "start": 7.8281,
      "duration": 0.0132,
      "velocity": 103,
      "chip": "ym2612"
    },
    {
      "channel": 0,
      "note": 82,
      "start": 7.8353,
      "duration": 0.0156,
      "velocity": 124,
      "chip": "ym2612"
    },
    {
      "channel": 5,
      "note": 80,
      "start": 7.8365,
      "duration": 0.0159,
      "velocity": 102,
      "chip": "ym2612"
    },
    {
      "channel": 4,
      "note": 85,
      "start": 7.8377,
      "duration": 0.016,
      "velocity": 98,
      "chip": "ym2612"
    },
    {
      "channel": 3,
      "note": 88,
      "start": 7.8389,
      "duration": 0.0159,
      "velocity": 98,
      "chip": "ym2612"
    },
    {
      "channel": 2,
      "note": 54,
      "start": 7.8401,
      "duration": 0.0158,
      "velocity": 93,
      "chip": "ym2612"
    },
    {
      "channel": 1,
      "note": 78,
      "start": 7.8413,
      "duration": 0.0158,
      "velocity": 103,
      "chip": "ym2612"
    },
    {
      "channel": 0,
      "note": 80,
      "start": 7.8509,
      "duration": 0.0159,
      "velocity": 124,
      "chip": "ym2612"
    },
    {
      "channel": 5,
      "note": 80,
      "start": 7.8524,
      "duration": 0.0162,
      "velocity": 102,
      "chip": "ym2612"
    },
    {
      "channel": 4,
      "note": 85,
      "start": 7.8537,
      "duration": 0.0162,
      "velocity": 98,
      "chip": "ym2612"
    },
    {
      "channel": 3,
      "note": 88,
      "start": 7.8548,
      "duration": 0.0161,
      "velocity": 98,
      "chip": "ym2612"
    },
    {
      "channel": 2,
      "note": 54,
      "start": 7.8559,
      "duration": 0.0162,
      "velocity": 93,
      "chip": "ym2612"
    },
    {
      "channel": 1,
      "note": 78,
      "start": 7.8571,
      "duration": 0.0162,
      "velocity": 103,
      "chip": "ym2612"
    },
    {
      "channel": 0,
      "note": 77,
      "start": 7.8668,
      "duration": 0.0161,
      "velocity": 124,
      "chip": "ym2612"
    },
    {
      "channel": 5,
      "note": 80,
      "start": 7.8686,
      "duration": 0.0158,
      "velocity": 102,
      "chip": "ym2612"
    },
    {
      "channel": 4,
      "note": 85,
      "start": 7.8698,
      "duration": 0.0162,
      "velocity": 98,
      "chip": "ym2612"
    },
    {
      "channel": 3,
      "note": 88,
      "start": 7.871,
      "duration": 0.0162,
      "velocity": 98,
      "chip": "ym2612"
    },
    {
      "channel": 2,
      "note": 54,
      "start": 7.8721,
      "duration": 0.0162,
      "velocity": 93,
      "chip": "ym2612"
    },
    {
      "channel": 1,
      "note": 78,
      "start": 7.8733,
      "duration": 0.0161,
      "velocity": 103,
      "chip": "ym2612"
    },
    {
      "channel": 0,
      "note": 75,
      "start": 7.8829,
      "duration": 0.0161,
      "velocity": 124,
      "chip": "ym2612"
    },
    {
      "channel": 4,
      "note": 85,
      "start": 7.886,
      "duration": 0.016,
      "velocity": 98,
      "chip": "ym2612"
    },
    {
      "channel": 3,
      "note": 88,
      "start": 7.8871,
      "duration": 0.0161,
      "velocity": 98,
      "chip": "ym2612"
    },
    {
      "channel": 2,
      "note": 54,
      "start": 7.8883,
      "duration": 0.0161,
      "velocity": 93,
      "chip": "ym2612"
    },
    {
      "channel": 1,
      "note": 78,
      "start": 7.8894,
      "duration": 0.0161,
      "velocity": 103,
      "chip": "ym2612"
    },
    {
      "channel": 0,
      "note": 72,
      "start": 7.8991,
      "duration": 0.0161,
      "velocity": 124,
      "chip": "ym2612"
    },
    {
      "channel": 4,
      "note": 85,
      "start": 7.902,
      "duration": 0.0163,
      "velocity": 98,
      "chip": "ym2612"
    },
    {
      "channel": 3,
      "note": 88,
      "start": 7.9032,
      "duration": 0.0163,
      "velocity": 98,
      "chip": "ym2612"
    },
    {
      "channel": 2,
      "note": 54,
      "start": 7.9044,
      "duration": 0.0163,
      "velocity": 93,
      "chip": "ym2612"
    },
    {
      "channel": 1,
      "note": 78,
      "start": 7.9055,
      "duration": 0.0163,
      "velocity": 103,
      "chip": "ym2612"
    },
    {
      "channel": 0,
      "note": 70,
      "start": 7.9152,
      "duration": 0.0161,
      "velocity": 124,
      "chip": "ym2612"
    },
    {
      "channel": 5,
      "note": 78,
      "start": 7.9166,
      "duration": 0.0159,
      "velocity": 102,
      "chip": "ym2612"
    },
    {
      "channel": 4,
      "note": 85,
      "start": 7.9183,
      "duration": 0.0153,
      "velocity": 98,
      "chip": "ym2612"
    },
    {
      "channel": 3,
      "note": 88,
      "start": 7.9195,
      "duration": 0.0158,
      "velocity": 98,
      "chip": "ym2612"
    },
    {
      "channel": 2,
      "note": 54,
      "start": 7.9206,
      "duration": 0.0159,
      "velocity": 93,
      "chip": "ym2612"
    },
    {
      "channel": 1,
      "note": 78,
      "start": 7.9218,
      "duration": 0.0159,
      "velocity": 103,
      "chip": "ym2612"
    },
    {
      "channel": 0,
      "note": 68,
      "start": 7.9313,
      "duration": 0.0161,
      "velocity": 124,
      "chip": "ym2612"
    },
    {
      "channel": 5,
      "note": 78,
      "start": 7.9325,
      "duration": 0.016,
      "velocity": 102,
      "chip": "ym2612"
    },
    {
      "channel": 4,
      "note": 85,
      "start": 7.9336,
      "duration": 0.016,
      "velocity": 98,
      "chip": "ym2612"
    },
    {
      "channel": 3,
      "note": 88,
      "start": 7.9353,
      "duration": 0.0158,
      "velocity": 98,
      "chip": "ym2612"
    },
    {
      "channel": 2,
      "note": 54,
      "start": 7.9365,
      "duration": 0.0161,
      "velocity": 93,
      "chip": "ym2612"
    },
    {
      "channel": 1,
      "note": 78,
      "start": 7.9377,
      "duration": 0.016,
      "velocity": 103,
      "chip": "ym2612"
    },
    {
      "channel": 0,
      "note": 65,
      "start": 7.9474,
      "duration": 0.0161,
      "velocity": 124,
      "chip": "ym2612"
    },
    {
      "channel": 5,
      "note": 78,
      "start": 7.9485,
      "duration": 0.0161,
      "velocity": 102,
      "chip": "ym2612"
    },
    {
      "channel": 4,
      "note": 85,
      "start": 7.9497,
      "duration": 0.0161,
      "velocity": 98,
      "chip": "ym2612"
    },
    {
      "channel": 3,
      "note": 88,
      "start": 7.951,
      "duration": 0.016,
      "velocity": 98,
      "chip": "ym2612"
    },
    {
      "channel": 2,
      "note": 54,
      "start": 7.9526,
      "duration": 0.0162,
      "velocity": 93,
      "chip": "ym2612"
    },
    {
      "channel": 1,
      "note": 78,
      "start": 7.9537,
      "duration": 0.0163,
      "velocity": 103,
      "chip": "ym2612"
    },
    {
      "channel": 0,
      "note": 63,
      "start": 7.9634,
      "duration": 0.0153,
      "velocity": 1,
      "chip": "ym2612"
    },
    {
      "channel": 5,
      "note": 78,
      "start": 7.9646,
      "duration": 0.0153,
      "velocity": 102,
      "chip": "ym2612"
    },
    {
      "channel": 4,
      "note": 85,
      "start": 7.9658,
      "duration": 0.0153,
      "velocity": 98,
      "chip": "ym2612"
    },
    {
      "channel": 3,
      "note": 88,
      "start": 7.9671,
      "duration": 0.0152,
      "velocity": 98,
      "chip": "ym2612"
    },
    {
      "channel": 2,
      "note": 54,
      "start": 7.9688,
      "duration": 0.0146,
      "velocity": 93,
      "chip": "ym2612"
    },
    {
      "channel": 1,
      "note": 78,
      "start": 7.9701,
      "duration": 0.0151,
      "velocity": 103,
      "chip": "ym2612"
    },
    {
      "channel": 5,
      "note": 78,
      "start": 7.9799,
      "duration": 0.0153,
      "velocity": 102,
      "chip": "ym2612"
    },
    {
      "channel": 4,
      "note": 85,
      "start": 7.9811,
      "duration": 0.0153,
      "velocity": 98,
      "chip": "ym2612"
    },
    {
      "channel": 3,
      "note": 88,
      "start": 7.9823,
      "duration": 0.0153,
      "velocity": 98,
      "chip": "ym2612"
    },
    {
      "channel": 2,
      "note": 54,
      "start": 7.9834,
      "duration": 0.0153,
      "velocity": 93,
      "chip": "ym2612"
    },
    {
      "channel": 1,
      "note": 78,
      "start": 7.9852,
      "duration": 0.0148,
      "velocity": 103,
      "chip": "ym2612"
    },
    {
      "channel": 5,
      "note": 78,
      "start": 7.9951,
      "duration": 0.0161,
      "velocity": 102,
      "chip": "ym2612"
    },
    {
      "channel": 4,
      "note": 85,
      "start": 7.9963,
      "duration": 0.016,
      "velocity": 98,
      "chip": "ym2612"
    },
    {
      "channel": 3,
      "note": 88,
      "start": 7.9976,
      "duration": 0.016,
      "velocity": 98,
      "chip": "ym2612"
    },
    {
      "channel": 2,
      "note": 54,
      "start": 7.9988,
      "duration": 0.016,
      "velocity": 93,
      "chip": "ym2612"
    },
    {
      "channel": 1,
      "note": 78,
      "start": 8.0,
      "duration": 0.0159,
      "velocity": 103,
      "chip": "ym2612"
    },
    {
      "channel": 5,
      "note": 78,
      "start": 8.0112,
      "duration": 0.0161,
      "velocity": 102,
      "chip": "ym2612"
    },
    {
      "channel": 4,
      "note": 85,
      "start": 8.0124,
      "duration": 0.0161,
      "velocity": 98,
      "chip": "ym2612"
    },
    {
      "channel": 3,
      "note": 88,
      "start": 8.0135,
      "duration": 0.0162,
      "velocity": 98,
      "chip": "ym2612"
    },
    {
      "channel": 2,
      "note": 54,
      "start": 8.0147,
      "duration": 0.0161,
      "velocity": 93,
      "chip": "ym2612"
    },
    {
      "channel": 1,
      "note": 78,
      "start": 8.0159,
      "duration": 0.0162,
      "velocity": 103,
      "chip": "ym2612"
    },
    {
      "channel": 5,
      "note": 78,
      "start": 8.0273,
      "duration": 0.0161,
      "velocity": 102,
      "chip": "ym2612"
    },
    {
      "channel": 4,
      "note": 85,
      "start": 8.0285,
      "duration": 0.0161,
      "velocity": 98,
      "chip": "ym2612"
    },
    {
      "channel": 3,
      "note": 88,
      "start": 8.0297,
      "duration": 0.016,
      "velocity": 98,
      "chip": "ym2612"
    },
    {
      "channel": 2,
      "note": 54,
      "start": 8.0309,
      "duration": 0.016,
      "velocity": 93,
      "chip": "ym2612"
    },
    {
      "channel": 1,
      "note": 78,
      "start": 8.032,
      "duration": 0.0161,
      "velocity": 103,
      "chip": "ym2612"
    },
    {
      "channel": 5,
      "note": 78,
      "start": 8.0434,
      "duration": 0.0161,
      "velocity": 102,
      "chip": "ym2612"
    },
    {
      "channel": 4,
      "note": 85,
      "start": 8.0446,
      "duration": 0.0162,
      "velocity": 98,
      "chip": "ym2612"
    },
    {
      "channel": 3,
      "note": 88,
      "start": 8.0457,
      "duration": 0.0162,
      "velocity": 98,
      "chip": "ym2612"
    },
    {
      "channel": 2,
      "note": 54,
      "start": 8.0469,
      "duration": 0.0162,
      "velocity": 93,
      "chip": "ym2612"
    },
    {
      "channel": 1,
      "note": 78,
      "start": 8.0481,
      "duration": 0.0162,
      "velocity": 103,
      "chip": "ym2612"
    },
    {
      "channel": 5,
      "note": 78,
      "start": 8.0596,
      "duration": 0.0162,
      "velocity": 102,
      "chip": "ym2612"
    },
    {
      "channel": 4,
      "note": 85,
      "start": 8.0608,
      "duration": 0.0161,
      "velocity": 98,
      "chip": "ym2612"
    },
    {
      "channel": 3,
      "note": 88,
      "start": 8.0619,
      "duration": 0.0162,
      "velocity": 98,
      "chip": "ym2612"
    },
    {
      "channel": 2,
      "note": 54,
      "start": 8.0631,
      "duration": 0.0162,
      "velocity": 93,
      "chip": "ym2612"
    },
    {
      "channel": 1,
      "note": 78,
      "start": 8.0643,
      "duration": 0.0162,
      "velocity": 103,
      "chip": "ym2612"
    },
    {
      "channel": 5,
      "note": 78,
      "start": 8.0757,
      "duration": 0.016,
      "velocity": 102,
      "chip": "ym2612"
    },
    {
      "channel": 4,
      "note": 85,
      "start": 8.0769,
      "duration": 0.016,
      "velocity": 98,
      "chip": "ym2612"
    },
    {
      "channel": 3,
      "note": 88,
      "start": 8.0781,
      "duration": 0.0161,
      "velocity": 98,
      "chip": "ym2612"
    },
    {
      "channel": 2,
      "note": 54,
      "start": 8.0793,
      "duration": 0.0161,
      "velocity": 93,
      "chip": "ym2612"
    },
    {
      "channel": 5,
      "note": 78,
      "start": 8.0918,
      "duration": 0.0161,
      "velocity": 102,
      "chip": "ym2612"
    },
    {
      "channel": 2,
      "note": 54,
      "start": 8.0954,
      "duration": 0.0163,
      "velocity": 93,
      "chip": "ym2612"
    },
    {
      "channel": 5,
      "note": 78,
      "start": 8.1079,
      "duration": 0.0161,
      "velocity": 102,
      "chip": "ym2612"
    },
    {
      "channel": 2,
      "note": 54,
      "start": 8.1117,
      "duration": 0.0158,
      "velocity": 93,
      "chip": "ym2612"
    },
    {
      "channel": 5,
      "note": 78,
      "start": 8.1239,
      "duration": 0.0161,
      "velocity": 102,
      "chip": "ym2612"
    },
    {
      "channel": 2,
      "note": 54,
      "start": 8.1276,
      "duration": 0.0162,
      "velocity": 93,
      "chip": "ym2612"
    },
    {
      "channel": 5,
      "note": 78,
      "start": 8.14,
      "duration": 0.0162,
      "velocity": 102,
      "chip": "ym2612"
    },
    {
      "channel": 2,
      "note": 54,
      "start": 8.1437,
      "duration": 0.0161,
      "velocity": 93,
      "chip": "ym2612"
    },
    {
      "channel": 5,
      "note": 78,
      "start": 8.1562,
      "duration": 0.0161,
      "velocity": 102,
      "chip": "ym2612"
    },
    {
      "channel": 2,
      "note": 54,
      "start": 8.1599,
      "duration": 0.0162,
      "velocity": 93,
      "chip": "ym2612"
    },
    {
      "channel": 2,
      "note": 54,
      "start": 8.1761,
      "duration": 0.0161,
      "velocity": 93,
      "chip": "ym2612"
    },
    {
      "channel": 2,
      "note": 54,
      "start": 8.1922,
      "duration": 0.0161,
      "velocity": 93,
      "chip": "ym2612"
    },
    {
      "channel": 2,
      "note": 54,
      "start": 8.2083,
      "duration": 0.016,
      "velocity": 93,
      "chip": "ym2612"
    },
    {
      "channel": 2,
      "note": 54,
      "start": 8.2243,
      "duration": 0.0162,
      "velocity": 93,
      "chip": "ym2612"
    },
    {
      "channel": 2,
      "note": 54,
      "start": 8.2405,
      "duration": 0.0163,
      "velocity": 93,
      "chip": "ym2612"
    },
    {
      "channel": 2,
      "note": 54,
      "start": 8.2568,
      "duration": 0.0163,
      "velocity": 93,
      "chip": "ym2612"
    },
    {
      "channel": 2,
      "note": 54,
      "start": 8.2731,
      "duration": 0.0162,
      "velocity": 93,
      "chip": "ym2612"
    },
    {
      "channel": 2,
      "note": 54,
      "start": 8.2893,
      "duration": 0.0206,
      "velocity": 93,
      "chip": "ym2612"
    },
    {
      "channel": 0,
      "note": 84,
      "start": 8.304,
      "duration": 0.0143,
      "velocity": 124,
      "chip": "ym2612"
    },
    {
      "channel": 4,
      "note": 87,
      "start": 8.3068,
      "duration": 0.0139,
      "velocity": 98,
      "chip": "ym2612"
    },
    {
      "channel": 3,
      "note": 90,
      "start": 8.3084,
      "duration": 0.0136,
      "velocity": 98,
      "chip": "ym2612"
    },
    {
      "channel": 2,
      "note": 59,
      "start": 8.3099,
      "duration": 0.0134,
      "velocity": 93,
      "chip": "ym2612"
    },
    {
      "channel": 1,
      "note": 83,
      "start": 8.3114,
      "duration": 0.013,
      "velocity": 103,
      "chip": "ym2612"
    },
    {
      "channel": 0,
      "note": 82,
      "start": 8.3183,
      "duration": 0.0154,
      "velocity": 124,
      "chip": "ym2612"
    },
    {
      "channel": 4,
      "note": 87,
      "start": 8.3208,
      "duration": 0.016,
      "velocity": 98,
      "chip": "ym2612"
    },
    {
      "channel": 3,
      "note": 90,
      "start": 8.322,
      "duration": 0.0159,
      "velocity": 98,
      "chip": "ym2612"
    },
    {
      "channel": 2,
      "note": 59,
      "start": 8.3232,
      "duration": 0.0159,
      "velocity": 93,
      "chip": "ym2612"
    },
    {
      "channel": 1,
      "note": 83,
      "start": 8.3245,
      "duration": 0.0158,
      "velocity": 103,
      "chip": "ym2612"
    },
    {
      "channel": 0,
      "note": 80,
      "start": 8.3337,
      "duration": 0.0162,
      "velocity": 124,
      "chip": "ym2612"
    },
    {
      "channel": 4,
      "note": 87,
      "start": 8.3367,
      "duration": 0.0161,
      "velocity": 98,
      "chip": "ym2612"
    },
    {
      "channel": 3,
      "note": 90,
      "start": 8.338,
      "duration": 0.0161,
      "velocity": 98,
      "chip": "ym2612"
    },
    {
      "channel": 2,
      "note": 59,
      "start": 8.3391,
      "duration": 0.0161,
      "velocity": 93,
      "chip": "ym2612"
    },
    {
      "channel": 1,
      "note": 83,
      "start": 8.3402,
      "duration": 0.0161,
      "velocity": 103,
      "chip": "ym2612"
    },
    {
      "channel": 0,
      "note": 77,
      "start": 8.3499,
      "duration": 0.0161,
      "velocity": 124,
      "chip": "ym2612"
    },
    {
      "channel": 4,
      "note": 87,
      "start": 8.3528,
      "duration": 0.0162,
      "velocity": 98,
      "chip": "ym2612"
    },
    {
      "channel": 3,
      "note": 90,
      "start": 8.354,
      "duration": 0.0161,
      "velocity": 98,
      "chip": "ym2612"
    },
    {
      "channel": 2,
      "note": 59,
      "start": 8.3552,
      "duration": 0.0161,
      "velocity": 93,
      "chip": "ym2612"
    },
    {
      "channel": 1,
      "note": 83,
      "start": 8.3563,
      "duration": 0.0161,
      "velocity": 103,
      "chip": "ym2612"
    },
    {
      "channel": 0,
      "note": 75,
      "start": 8.366,
      "duration": 0.0161,
      "velocity": 124,
      "chip": "ym2612"
    },
    {
      "channel": 4,
      "note": 87,
      "start": 8.369,
      "duration": 0.016,
      "velocity": 98,
      "chip": "ym2612"
    },
    {
      "channel": 3,
      "note": 90,
      "start": 8.3701,
      "duration": 0.0161,
      "velocity": 98,
      "chip": "ym2612"
    },
    {
      "channel": 2,
      "note": 59,
      "start": 8.3713,
      "duration": 0.0161,
      "velocity": 93,
      "chip": "ym2612"
    },
    {
      "channel": 1,
      "note": 83,
      "start": 8.3724,
      "duration": 0.0161,
      "velocity": 103,
      "chip": "ym2612"
    },
    {
      "channel": 0,
      "note": 72,
      "start": 8.3821,
      "duration": 0.0161,
      "velocity": 124,
      "chip": "ym2612"
    },
    {
      "channel": 4,
      "note": 87,
      "start": 8.385,
      "duration": 0.0165,
      "velocity": 98,
      "chip": "ym2612"
    },
    {
      "channel": 3,
      "note": 90,
      "start": 8.3862,
      "duration": 0.0165,
      "velocity": 98,
      "chip": "ym2612"
    },
    {
      "channel": 2,
      "note": 59,
      "start": 8.3874,
      "duration": 0.0166,
      "velocity": 93,
      "chip": "ym2612"
    },
    {
      "channel": 1,
      "note": 83,
      "start": 8.3885,
      "duration": 0.0167,
      "velocity": 103,
      "chip": "ym2612"
    },
    {
      "channel": 0,
      "note": 70,
      "start": 8.3982,
      "duration": 0.0161,
      "velocity": 124,
      "chip": "ym2612"
    },
    {
      "channel": 5,
      "note": 83,
      "start": 8.3997,
      "duration": 0.0158,
      "velocity": 102,
      "chip": "ym2612"
    },
    {
      "channel": 4,
      "note": 87,
      "start": 8.4015,
      "duration": 0.0152,
      "velocity": 98,
      "chip": "ym2612"
    },
    {
      "channel": 3,
      "note": 90,
      "start": 8.4028,
      "duration": 0.0156,
      "velocity": 98,
      "chip": "ym2612"
    },
    {
      "channel": 2,
      "note": 59,
      "start": 8.404,
      "duration": 0.0157,
      "velocity": 93,
      "chip": "ym2612"
    },
    {
      "channel": 1,
      "note": 83,
      "start": 8.4053,
      "duration": 0.0156,
      "velocity": 103,
      "chip": "ym2612"
    },
    {
      "channel": 0,
      "note": 68,
      "start": 8.4143,
      "duration": 0.0161,
      "velocity": 124,
      "chip": "ym2612"
    },
    {
      "channel": 5,
      "note": 83,
      "start": 8.4155,
      "duration": 0.016,
      "velocity": 102,
      "chip": "ym2612"
    },
    {
      "channel": 4,
      "note": 87,
      "start": 8.4167,
      "duration": 0.016,
      "velocity": 98,
      "chip": "ym2612"
    },
    {
      "channel": 3,
      "note": 90,
      "start": 8.4184,
      "duration": 0.0157,
      "velocity": 98,
      "chip": "ym2612"
    },
    {
      "channel": 2,
      "note": 59,
      "start": 8.4197,
      "duration": 0.016,
      "velocity": 93,
      "chip": "ym2612"
    },
    {
      "channel": 1,
      "note": 83,
      "start": 8.4209,
      "duration": 0.016,
      "velocity": 103,
      "chip": "ym2612"
    },
    {
      "channel": 0,
      "note": 65,
      "start": 8.4304,
      "duration": 0.0161,
      "velocity": 124,
      "chip": "ym2612"
    },
    {
      "channel": 5,
      "note": 83,
      "start": 8.4315,
      "duration": 0.0161,
      "velocity": 102,
      "chip": "ym2612"
    },
    {
      "channel": 4,
      "note": 87,
      "start": 8.4327,
      "duration": 0.0161,
      "velocity": 98,
      "chip": "ym2612"
    },
    {
      "channel": 3,
      "note": 90,
      "start": 8.4341,
      "duration": 0.0159,
      "velocity": 98,
      "chip": "ym2612"
    },
    {
      "channel": 2,
      "note": 59,
      "start": 8.4357,
      "duration": 0.0159,
      "velocity": 93,
      "chip": "ym2612"
    },
    {
      "channel": 1,
      "note": 83,
      "start": 8.4369,
      "duration": 0.0159,
      "velocity": 103,
      "chip": "ym2612"
    },
    {
      "channel": 0,
      "note": 63,
      "start": 8.4465,
      "duration": 0.0154,
      "velocity": 1,
      "chip": "ym2612"
    },
    {
      "channel": 5,
      "note": 83,
      "start": 8.4476,
      "duration": 0.0153,
      "velocity": 102,
      "chip": "ym2612"
    },
    {
      "channel": 4,
      "note": 87,
      "start": 8.4488,
      "duration": 0.0153,
      "velocity": 98,
      "chip": "ym2612"
    },
    {
      "channel": 3,
      "note": 90,
      "start": 8.45,
      "duration": 0.0153,
      "velocity": 98,
      "chip": "ym2612"
    },
    {
      "channel": 2,
      "note": 59,
      "start": 8.4516,
      "duration": 0.0148,
      "velocity": 93,
      "chip": "ym2612"
    },
    {
      "channel": 1,
      "note": 83,
      "start": 8.4528,
      "duration": 0.0149,
      "velocity": 103,
      "chip": "ym2612"
    },
    {
      "channel": 5,
      "note": 83,
      "start": 8.4629,
      "duration": 0.0152,
      "velocity": 102,
      "chip": "ym2612"
    },
    {
      "channel": 4,
      "note": 87,
      "start": 8.4641,
      "duration": 0.0153,
      "velocity": 98,
      "chip": "ym2612"
    },
    {
      "channel": 3,
      "note": 90,
      "start": 8.4652,
      "duration": 0.0153,
      "velocity": 98,
      "chip": "ym2612"
    },
    {
      "channel": 2,
      "note": 59,
      "start": 8.4664,
      "duration": 0.0153,
      "velocity": 93,
      "chip": "ym2612"
    },
    {
      "channel": 5,
      "note": 83,
      "start": 8.4781,
      "duration": 0.0162,
      "velocity": 102,
      "chip": "ym2612"
    },
    {
      "channel": 2,
      "note": 59,
      "start": 8.4817,
      "duration": 0.0165,
      "velocity": 93,
      "chip": "ym2612"
    },
    {
      "channel": 5,
      "note": 83,
      "start": 8.4943,
      "duration": 0.0161,
      "velocity": 102,
      "chip": "ym2612"
    },
    {
      "channel": 2,
      "note": 59,
      "start": 8.4982,
      "duration": 0.0159,
      "velocity": 93,
      "chip": "ym2612"
    },
    {
      "channel": 5,
      "note": 83,
      "start": 8.5104,
      "duration": 0.0161,
      "velocity": 102,
      "chip": "ym2612"
    },
    {
      "channel": 2,
      "note": 59,
      "start": 8.5141,
      "duration": 0.0161,
      "velocity": 93,
      "chip": "ym2612"
    },
    {
      "channel": 5,
      "note": 83,
      "start": 8.5265,
      "duration": 0.0161,
      "velocity": 102,
      "chip": "ym2612"
    },
    {
      "channel": 2,
      "note": 59,
      "start": 8.5302,
      "duration": 0.0161,
      "velocity": 93,
      "chip": "ym2612"
    },
    {
      "channel": 5,
      "note": 83,
      "start": 8.5426,
      "duration": 0.0161,
      "velocity": 102,
      "chip": "ym2612"
    },
    {
      "channel": 2,
      "note": 59,
      "start": 8.5463,
      "duration": 0.0161,
      "velocity": 93,
      "chip": "ym2612"
    },
    {
      "channel": 2,
      "note": 59,
      "start": 8.5624,
      "duration": 0.0161,
      "velocity": 93,
      "chip": "ym2612"
    },
    {
      "channel": 2,
      "note": 59,
      "start": 8.5785,
      "duration": 0.0198,
      "velocity": 93,
      "chip": "ym2612"
    },
    {
      "channel": 0,
      "note": 36,
      "start": 8.5932,
      "duration": 0.0143,
      "velocity": 115,
      "chip": "ym2612"
    },
    {
      "channel": 2,
      "note": 59,
      "start": 8.5983,
      "duration": 0.0142,
      "velocity": 93,
      "chip": "ym2612"
    },
    {
      "channel": 0,
      "note": 36,
      "start": 8.6076,
      "duration": 0.016,
      "velocity": 115,
      "chip": "ym2612"
    },
    {
      "channel": 2,
      "note": 59,
      "start": 8.6125,
      "duration": 0.016,
      "velocity": 93,
      "chip": "ym2612"
    },
    {
      "channel": 0,
      "note": 37,
      "start": 8.6236,
      "duration": 0.0161,
      "velocity": 115,
      "chip": "ym2612"
    },
    {
      "channel": 2,
      "note": 59,
      "start": 8.6285,
      "duration": 0.016,
      "velocity": 93,
      "chip": "ym2612"
    },
    {
      "channel": 0,
      "note": 37,
      "start": 8.6397,
      "duration": 0.0162,
      "velocity": 115,
      "chip": "ym2612"
    },
    {
      "channel": 2,
      "note": 59,
      "start": 8.6446,
      "duration": 0.0161,
      "velocity": 93,
      "chip": "ym2612"
    },
    {
      "channel": 0,
      "note": 38,
      "start": 8.6558,
      "duration": 0.0161,
      "velocity": 115,
      "chip": "ym2612"
    },
    {
      "channel": 2,
      "note": 59,
      "start": 8.6607,
      "duration": 0.0161,
      "velocity": 93,
      "chip": "ym2612"
    },
    {
      "channel": 0,
      "note": 38,
      "start": 8.6719,
      "duration": 0.0179,
      "velocity": 124,
      "chip": "ym2612"
    },
    {
      "channel": 2,
      "note": 59,
      "start": 8.6768,
      "duration": 0.0189,
      "velocity": 93,
      "chip": "ym2612"
    },
    {
      "channel": 0,
      "note": 84,
      "start": 8.6899,
      "duration": 0.0143,
      "velocity": 124,
      "chip": "ym2612"
    },
    {
      "channel": 4,
      "note": 87,
      "start": 8.6927,
      "duration": 0.0139,
      "velocity": 98,
      "chip": "ym2612"
    },
    {
      "channel": 3,
      "note": 90,
      "start": 8.6942,
      "duration": 0.0136,
      "velocity": 98,
      "chip": "ym2612"
    },
    {
      "channel": 2,
      "note": 59,
      "start": 8.6957,
      "duration": 0.0134,
      "velocity": 93,
      "chip": "ym2612"
    },
    {
      "channel": 1,
      "note": 83,
      "start": 8.6972,
      "duration": 0.0131,
      "velocity": 103,
      "chip": "ym2612"
    },
    {
      "channel": 0,
      "note": 82,
      "start": 8.7042,
      "duration": 0.0161,
      "velocity": 124,
      "chip": "ym2612"
    },
    {
      "channel": 4,
      "note": 87,
      "start": 8.7066,
      "duration": 0.016,
      "velocity": 98,
      "chip": "ym2612"
    },
    {
      "channel": 3,
      "note": 90,
      "start": 8.7078,
      "duration": 0.016,
      "velocity": 98,
      "chip": "ym2612"
    },
    {
      "channel": 2,
      "note": 59,
      "start": 8.7091,
      "duration": 0.0159,
      "velocity": 93,
      "chip": "ym2612"
    },
    {
      "channel": 1,
      "note": 83,
      "start": 8.7103,
      "duration": 0.0159,
      "velocity": 103,
      "chip": "ym2612"
    },
    {
      "channel": 0,
      "note": 80,
      "start": 8.7203,
      "duration": 0.0164,
      "velocity": 124,
      "chip": "ym2612"
    },
    {
      "channel": 4,
      "note": 87,
      "start": 8.7226,
      "duration": 0.0165,
      "velocity": 98,
      "chip": "ym2612"
    },
    {
      "channel": 3,
      "note": 90,
      "start": 8.7238,
      "duration": 0.0164,
      "velocity": 98,
      "chip": "ym2612"
    },
    {
      "channel": 2,
      "note": 59,
      "start": 8.725,
      "duration": 0.0164,
      "velocity": 93,
      "chip": "ym2612"
    },
    {
      "channel": 1,
      "note": 83,
      "start": 8.7261,
      "duration": 0.0165,
      "velocity": 103,
      "chip": "ym2612"
    },
    {
      "channel": 0,
      "note": 77,
      "start": 8.7367,
      "duration": 0.0163,
      "velocity": 124,
      "chip": "ym2612"
    },
    {
      "channel": 4,
      "note": 87,
      "start": 8.7391,
      "duration": 0.0163,
      "velocity": 98,
      "chip": "ym2612"
    },
    {
      "channel": 3,
      "note": 90,
      "start": 8.7402,
      "duration": 0.0163,
      "velocity": 98,
      "chip": "ym2612"
    },
    {
      "channel": 2,
      "note": 59,
      "start": 8.7414,
      "duration": 0.0163,
      "velocity": 93,
      "chip": "ym2612"
    },
    {
      "channel": 1,
      "note": 83,
      "start": 8.7426,
      "duration": 0.0163,
      "velocity": 103,
      "chip": "ym2612"
    },
    {
      "channel": 0,
      "note": 75,
      "start": 8.753,
      "duration": 0.0161,
      "velocity": 124,
      "chip": "ym2612"
    },
    {
      "channel": 4,
      "note": 87,
      "start": 8.7554,
      "duration": 0.0161,
      "velocity": 98,
      "chip": "ym2612"
    },
    {
      "channel": 3,
      "note": 90,
      "start": 8.7566,
      "duration": 0.016,
      "velocity": 98,
      "chip": "ym2612"
    },
    {
      "channel": 2,
      "note": 59,
      "start": 8.7577,
      "duration": 0.0161,
      "velocity": 93,
      "chip": "ym2612"
    },
    {
      "channel": 1,
      "note": 83,
      "start": 8.7589,
      "duration": 0.0161,
      "velocity": 103,
      "chip": "ym2612"
    },
    {
      "channel": 0,
      "note": 72,
      "start": 8.7691,
      "duration": 0.0179,
      "velocity": 124,
      "chip": "ym2612"
    },
    {
      "channel": 4,
      "note": 87,
      "start": 8.7715,
      "duration": 0.0183,
      "velocity": 98,
      "chip": "ym2612"
    },
    {
      "channel": 3,
      "note": 90,
      "start": 8.7726,
      "duration": 0.0183,
      "velocity": 98,
      "chip": "ym2612"
    },
    {
      "channel": 2,
      "note": 59,
      "start": 8.7738,
      "duration": 0.0182,
      "velocity": 93,
      "chip": "ym2612"
    },
    {
      "channel": 1,
      "note": 83,
      "start": 8.775,
      "duration": 0.0182,
      "velocity": 103,
      "chip": "ym2612"
    },
    {
      "channel": 0,
      "note": 84,
      "start": 8.7871,
      "duration": 0.0139,
      "velocity": 124,
      "chip": "ym2612"
    },
    {
      "channel": 5,
      "note": 83,
      "start": 8.7885,
      "duration": 0.0141,
      "velocity": 102,
      "chip": "ym2612"
    },
    {
      "channel": 4,
      "note": 87,
      "start": 8.7897,
      "duration": 0.014,
      "velocity": 98,
      "chip": "ym2612"
    },
    {
      "channel": 3,
      "note": 90,
      "start": 8.7909,
      "duration": 0.0141,
      "velocity": 98,
      "chip": "ym2612"
    },
    {
      "channel": 2,
      "note": 59,
      "start": 8.792,
      "duration": 0.0141,
      "velocity": 93,
      "chip": "ym2612"
    },
    {
      "channel": 1,
      "note": 83,
      "start": 8.7932,
      "duration": 0.0141,
      "velocity": 103,
      "chip": "ym2612"
    },
    {
      "channel": 0,
      "note": 82,
      "start": 8.801,
      "duration": 0.0158,
      "velocity": 124,
      "chip": "ym2612"
    },
    {
      "channel": 5,
      "note": 83,
      "start": 8.8026,
      "duration": 0.0159,
      "velocity": 102,
      "chip": "ym2612"
    },
    {
      "channel": 4,
      "note": 87,
      "start": 8.8037,
      "duration": 0.016,
      "velocity": 98,
      "chip": "ym2612"
    },
    {
      "channel": 3,
      "note": 90,
      "start": 8.8049,
      "duration": 0.016,
      "velocity": 98,
      "chip": "ym2612"
    },
    {
      "channel": 2,
      "note": 59,
      "start": 8.8061,
      "duration": 0.016,
      "velocity": 93,
      "chip": "ym2612"
    },
    {
      "channel": 1,
      "note": 83,
      "start": 8.8072,
      "duration": 0.016,
      "velocity": 103,
      "chip": "ym2612"
    },
    {
      "channel": 0,
      "note": 80,
      "start": 8.8168,
      "duration": 0.0161,
      "velocity": 124,
      "chip": "ym2612"
    },
    {
      "channel": 5,
      "note": 83,
      "start": 8.8185,
      "duration": 0.0158,
      "velocity": 102,
      "chip": "ym2612"
    },
    {
      "channel": 4,
      "note": 87,
      "start": 8.8197,
      "duration": 0.0162,
      "velocity": 98,
      "chip": "ym2612"
    },
    {
      "channel": 3,
      "note": 90,
      "start": 8.8209,
      "duration": 0.0162,
      "velocity": 98,
      "chip": "ym2612"
    },
    {
      "channel": 2,
      "note": 59,
      "start": 8.822,
      "duration": 0.0163,
      "velocity": 93,
      "chip": "ym2612"
    },
    {
      "channel": 1,
      "note": 83,
      "start": 8.8232,
      "duration": 0.0164,
      "velocity": 103,
      "chip": "ym2612"
    },
    {
      "channel": 0,
      "note": 77,
      "start": 8.8329,
      "duration": 0.0161,
      "velocity": 124,
      "chip": "ym2612"
    },
    {
      "channel": 5,
      "note": 83,
      "start": 8.8343,
      "duration": 0.0159,
      "velocity": 102,
      "chip": "ym2612"
    },
    {
      "channel": 4,
      "note": 87,
      "start": 8.8359,
      "duration": 0.016,
      "velocity": 98,
      "chip": "ym2612"
    },
    {
      "channel": 3,
      "note": 90,
      "start": 8.8371,
      "duration": 0.016,
      "velocity": 98,
      "chip": "ym2612"
    },
    {
      "channel": 2,
      "note": 59,
      "start": 8.8383,
      "duration": 0.016,
      "velocity": 93,
      "chip": "ym2612"
    },
    {
      "channel": 1,
      "note": 83,
      "start": 8.8396,
      "duration": 0.016,
      "velocity": 103,
      "chip": "ym2612"
    },
    {
      "channel": 0,
      "note": 75,
      "start": 8.849,
      "duration": 0.0161,
      "velocity": 124,
      "chip": "ym2612"
    },
    {
      "channel": 5,
      "note": 83,
      "start": 8.8502,
      "duration": 0.0161,
      "velocity": 102,
      "chip": "ym2612"
    },
    {
      "channel": 4,
      "note": 87,
      "start": 8.8519,
      "duration": 0.0158,
      "velocity": 98,
      "chip": "ym2612"
    },
    {
      "channel": 3,
      "note": 90,
      "start": 8.8532,
      "duration": 0.0162,
      "velocity": 98,
      "chip": "ym2612"
    },
    {
      "channel": 2,
      "note": 59,
      "start": 8.8544,
      "duration": 0.0162,
      "velocity": 93,
      "chip": "ym2612"
    },
    {
      "channel": 1,
      "note": 83,
      "start": 8.8556,
      "duration": 0.0161,
      "velocity": 103,
      "chip": "ym2612"
    },
    {
      "channel": 0,
      "note": 72,
      "start": 8.8651,
      "duration": 0.018,
      "velocity": 115,
      "chip": "ym2612"
    },
    {
      "channel": 5,
      "note": 83,
      "start": 8.8663,
      "duration": 0.0182,
      "velocity": 102,
      "chip": "ym2612"
    },
    {
      "channel": 4,
      "note": 87,
      "start": 8.8677,
      "duration": 0.0183,
      "velocity": 98,
      "chip": "ym2612"
    },
    {
      "channel": 3,
      "note": 90,
      "start": 8.8693,
      "duration": 0.0178,
      "velocity": 98,
      "chip": "ym2612"
    },
    {
      "channel": 2,
      "note": 59,
      "start": 8.8705,
      "duration": 0.0178,
      "velocity": 93,
      "chip": "ym2612"
    },
    {
      "channel": 1,
      "note": 83,
      "start": 8.8717,
      "duration": 0.0178,
      "velocity": 103,
      "chip": "ym2612"
    },
    {
      "channel": 0,
      "note": 36,
      "start": 8.8831,
      "duration": 0.0143,
      "velocity": 115,
      "chip": "ym2612"
    },
    {
      "channel": 5,
      "note": 83,
      "start": 8.8844,
      "duration": 0.0141,
      "velocity": 102,
      "chip": "ym2612"
    },
    {
      "channel": 4,
      "note": 87,
      "start": 8.886,
      "duration": 0.0137,
      "velocity": 98,
      "chip": "ym2612"
    },
    {
      "channel": 3,
      "note": 90,
      "start": 8.8871,
      "duration": 0.0139,
      "velocity": 98,
      "chip": "ym2612"
    },
    {
      "channel": 2,
      "note": 59,
      "start": 8.8883,
      "duration": 0.0143,
      "velocity": 93,
      "chip": "ym2612"
    },
    {
      "channel": 1,
      "note": 83,
      "start": 8.8895,
      "duration": 0.0142,
      "velocity": 103,
      "chip": "ym2612"
    },
    {
      "channel": 0,
      "note": 36,
      "start": 8.8974,
      "duration": 0.016,
      "velocity": 115,
      "chip": "ym2612"
    },
    {
      "channel": 5,
      "note": 83,
      "start": 8.8986,
      "duration": 0.016,
      "velocity": 102,
      "chip": "ym2612"
    },
    {
      "channel": 4,
      "note": 87,
      "start": 8.8997,
      "duration": 0.016,
      "velocity": 98,
      "chip": "ym2612"
    },
    {
      "channel": 3,
      "note": 90,
      "start": 8.901,
      "duration": 0.0159,
      "velocity": 98,
      "chip": "ym2612"
    },
    {
      "channel": 2,
      "note": 59,
      "start": 8.9026,
      "duration": 0.016,
      "velocity": 93,
      "chip": "ym2612"
    },
    {
      "channel": 1,
      "note": 83,
      "start": 8.9037,
      "duration": 0.016,
      "velocity": 103,
      "chip": "ym2612"
    },
    {
      "channel": 0,
      "note": 37,
      "start": 8.9134,
      "duration": 0.0161,
      "velocity": 115,
      "chip": "ym2612"
    },
    {
      "channel": 5,
      "note": 83,
      "start": 8.9145,
      "duration": 0.0162,
      "velocity": 102,
      "chip": "ym2612"
    },
    {
      "channel": 4,
      "note": 87,
      "start": 8.9157,
      "duration": 0.0162,
      "velocity": 98,
      "chip": "ym2612"
    },
    {
      "channel": 3,
      "note": 90,
      "start": 8.9169,
      "duration": 0.0162,
      "velocity": 98,
      "chip": "ym2612"
    },
    {
      "channel": 2,
      "note": 59,
      "start": 8.9185,
      "duration": 0.0158,
      "velocity": 93,
      "chip": "ym2612"
    },
    {
      "channel": 1,
      "note": 83,
      "start": 8.9198,
      "duration": 0.0162,
      "velocity": 103,
      "chip": "ym2612"
    },
    {
      "channel": 0,
      "note": 37,
      "start": 8.9295,
      "duration": 0.0162,
      "velocity": 115,
      "chip": "ym2612"
    },
    {
      "channel": 5,
      "note": 83,
      "start": 8.9308,
      "duration": 0.0161,
      "velocity": 102,
      "chip": "ym2612"
    },
    {
      "channel": 4,
      "note": 87,
      "start": 8.9319,
      "duration": 0.0162,
      "velocity": 98,
      "chip": "ym2612"
    },
    {
      "channel": 3,
      "note": 90,
      "start": 8.9331,
      "duration": 0.0162,
      "velocity": 98,
      "chip": "ym2612"
    },
    {
      "channel": 2,
      "note": 59,
      "start": 8.9344,
      "duration": 0.0161,
      "velocity": 93,
      "chip": "ym2612"
    },
    {
      "channel": 1,
      "note": 83,
      "start": 8.9359,
      "duration": 0.0163,
      "velocity": 103,
      "chip": "ym2612"
    },
    {
      "channel": 0,
      "note": 38,
      "start": 8.9456,
      "duration": 0.0161,
      "velocity": 115,
      "chip": "ym2612"
    },
    {
      "channel": 5,
      "note": 83,
      "start": 8.9468,
      "duration": 0.016,
      "velocity": 102,
      "chip": "ym2612"
    },
    {
      "channel": 4,
      "note": 87,
      "start": 8.9481,
      "duration": 0.016,
      "velocity": 98,
      "chip": "ym2612"
    },
    {
      "channel": 3,
      "note": 90,
      "start": 8.9493,
      "duration": 0.0161,
      "velocity": 98,
      "chip": "ym2612"
    },
    {
      "channel": 2,
      "note": 59,
      "start": 8.9505,
      "duration": 0.0161,
      "velocity": 93,
      "chip": "ym2612"
    },
    {
      "channel": 0,
      "note": 38,
      "start": 8.9617,
      "duration": 0.0179,
      "velocity": 124,
      "chip": "ym2612"
    },
    {
      "channel": 5,
      "note": 83,
      "start": 8.9629,
      "duration": 0.0179,
      "velocity": 102,
      "chip": "ym2612"
    },
    {
      "channel": 2,
      "note": 59,
      "start": 8.9666,
      "duration": 0.0188,
      "velocity": 93,
      "chip": "ym2612"
    },
    {
      "channel": 0,
      "note": 84,
      "start": 8.9797,
      "duration": 0.0143,
      "velocity": 124,
      "chip": "ym2612"
    },
    {
      "channel": 5,
      "note": 83,
      "start": 8.9808,
      "duration": 0.0143,
      "velocity": 102,
      "chip": "ym2612"
    },
    {
      "channel": 2,
      "note": 59,
      "start": 8.9853,
      "duration": 0.0135,
      "velocity": 93,
      "chip": "ym2612"
    },
    {
      "channel": 0,
      "note": 82,
      "start": 8.994,
      "duration": 0.016,
      "velocity": 124,
      "chip": "ym2612"
    },
    {
      "channel": 5,
      "note": 83,
      "start": 8.9951,
      "duration": 0.016,
      "velocity": 102,
      "chip": "ym2612"
    },
    {
      "channel": 2,
      "note": 59,
      "start": 8.9988,
      "duration": 0.016,
      "velocity": 93,
      "chip": "ym2612"
    },
    {
      "channel": 0,
      "note": 80,
      "start": 9.01,
      "duration": 0.0161,
      "velocity": 124,
      "chip": "ym2612"
    },
    {
      "channel": 5,
      "note": 83,
      "start": 9.0112,
      "duration": 0.0162,
      "velocity": 102,
      "chip": "ym2612"
    },
    {
      "channel": 2,
      "note": 59,
      "start": 9.0149,
      "duration": 0.0162,
      "velocity": 93,
      "chip": "ym2612"
    },
    {
      "channel": 0,
      "note": 77,
      "start": 9.0261,
      "duration": 0.0161,
      "velocity": 124,
      "chip": "ym2612"
    },
    {
      "channel": 5,
      "note": 83,
      "start": 9.0273,
      "duration": 0.0162,
      "velocity": 102,
      "chip": "ym2612"
    },
    {
      "channel": 2,
      "note": 59,
      "start": 9.031,
      "duration": 0.0161,
      "velocity": 93,
      "chip": "ym2612"
    },
    {
      "channel": 0,
      "note": 75,
      "start": 9.0422,
      "duration": 0.0161,
      "velocity": 124,
      "chip": "ym2612"
    },
    {
      "channel": 2,
      "note": 59,
      "start": 9.0472,
      "duration": 0.0161,
      "velocity": 93,
      "chip": "ym2612"
    },
    {
      "channel": 0,
      "note": 72,
      "start": 9.0583,
      "duration": 0.0161,
      "velocity": 124,
      "chip": "ym2612"
    },
    {
      "channel": 2,
      "note": 59,
      "start": 9.0633,
      "duration": 0.0162,
      "velocity": 93,
      "chip": "ym2612"
    },
    {
      "channel": 0,
      "note": 70,
      "start": 9.0744,
      "duration": 0.0162,
      "velocity": 124,
      "chip": "ym2612"
    },
    {
      "channel": 2,
      "note": 59,
      "start": 9.0795,
      "duration": 0.016,
      "velocity": 93,
      "chip": "ym2612"
    },
    {
      "channel": 0,
      "note": 68,
      "start": 9.0906,
      "duration": 0.0161,
      "velocity": 124,
      "chip": "ym2612"
    },
    {
      "channel": 2,
      "note": 59,
      "start": 9.0955,
      "duration": 0.0161,
      "velocity": 93,
      "chip": "ym2612"
    },
    {
      "channel": 0,
      "note": 65,
      "start": 9.1066,
      "duration": 0.0161,
      "velocity": 124,
      "chip": "ym2612"
    },
    {
      "channel": 2,
      "note": 59,
      "start": 9.1115,
      "duration": 0.0161,
      "velocity": 93,
      "chip": "ym2612"
    },
    {
      "channel": 0,
      "note": 63,
      "start": 9.1227,
      "duration": 0.0153,
      "velocity": 1,
      "chip": "ym2612"
    },
    {
      "channel": 2,
      "note": 59,
      "start": 9.1276,
      "duration": 0.0153,
      "velocity": 93,
      "chip": "ym2612"
    },
    {
      "channel": 2,
      "note": 59,
      "start": 9.1429,
      "duration": 0.0153,
      "velocity": 93,
      "chip": "ym2612"
    },
    {
      "channel": 2,
      "note": 59,
      "start": 9.1582,
      "duration": 0.016,
      "velocity": 93,
      "chip": "ym2612"
    },
    {
      "channel": 2,
      "note": 59,
      "start": 9.1742,
      "duration": 0.0161,
      "velocity": 93,
      "chip": "ym2612"
    },
    {
      "channel": 2,
      "note": 59,
      "start": 9.1904,
      "duration": 0.0162,
      "velocity": 93,
      "chip": "ym2612"
    },
    {
      "channel": 2,
      "note": 59,
      "start": 9.2065,
      "duration": 0.0164,
      "velocity": 93,
      "chip": "ym2612"
    },
    {
      "channel": 2,
      "note": 59,
      "start": 9.2229,
      "duration": 0.0163,
      "velocity": 93,
      "chip": "ym2612"
    },
    {
      "channel": 2,
      "note": 59,
      "start": 9.2393,
      "duration": 0.0162,
      "velocity": 93,
      "chip": "ym2612"
    },
    {
      "channel": 2,
      "note": 59,
      "start": 9.2554,
      "duration": 0.0205,
      "velocity": 93,
      "chip": "ym2612"
    },
    {
      "channel": 0,
      "note": 36,
      "start": 9.2701,
      "duration": 0.0139,
      "velocity": 115,
      "chip": "ym2612"
    },
    {
      "channel": 4,
      "note": 80,
      "start": 9.2729,
      "duration": 0.0139,
      "velocity": 98,
      "chip": "ym2612"
    },
    {
      "channel": 3,
      "note": 83,
      "start": 9.2745,
      "duration": 0.0135,
      "velocity": 98,
      "chip": "ym2612"
    },
    {
      "channel": 2,
      "note": 52,
      "start": 9.2761,
      "duration": 0.0132,
      "velocity": 93,
      "chip": "ym2612"
    },
    {
      "channel": 1,
      "note": 71,
      "start": 9.2789,
      "duration": 0.0116,
      "velocity": 108,
      "chip": "ym2612"
    },
    {
      "channel": 0,
      "note": 36,
      "start": 9.284,
      "duration": 0.0158,
      "velocity": 115,
      "chip": "ym2612"
    },
    {
      "channel": 4,
      "note": 80,
      "start": 9.2869,
      "duration": 0.0177,
      "velocity": 98,
      "chip": "ym2612"
    },
    {
      "channel": 3,
      "note": 83,
      "start": 9.2881,
      "duration": 0.0176,
      "velocity": 98,
      "chip": "ym2612"
    },
    {
      "channel": 2,
      "note": 52,
      "start": 9.2893,
      "duration": 0.0176,
      "velocity": 93,
      "chip": "ym2612"
    },
    {
      "channel": 1,
      "note": 71,
      "start": 9.2905,
      "duration": 0.0175,
      "velocity": 108,
      "chip": "ym2612"
    },
    {
      "channel": 0,
      "note": 37,
      "start": 9.2998,
      "duration": 0.0161,
      "velocity": 115,
      "chip": "ym2612"
    },
    {
      "channel": 5,
      "note": 71,
      "start": 9.3034,
      "duration": 0.014,
      "velocity": 108,
      "chip": "ym2612"
    },
    {
      "channel": 4,
      "note": 80,
      "start": 9.3046,
      "duration": 0.0144,
      "velocity": 98,
      "chip": "ym2612"
    },
    {
      "channel": 3,
      "note": 83,
      "start": 9.3057,
      "duration": 0.0144,
      "velocity": 98,
      "chip": "ym2612"
    },
    {
      "channel": 2,
      "note": 52,
      "start": 9.3068,
      "duration": 0.0144,
      "velocity": 93,
      "chip": "ym2612"
    },
    {
      "channel": 1,
      "note": 71,
      "start": 9.308,
      "duration": 0.0144,
      "velocity": 108,
      "chip": "ym2612"
    },
    {
      "channel": 0,
      "note": 37,
      "start": 9.3159,
      "duration": 0.0161,
      "velocity": 115,
      "chip": "ym2612"
    },
    {
      "channel": 5,
      "note": 71,
      "start": 9.3174,
      "duration": 0.0159,
      "velocity": 108,
      "chip": "ym2612"
    },
    {
      "channel": 4,
      "note": 80,
      "start": 9.3189,
      "duration": 0.016,
      "velocity": 98,
      "chip": "ym2612"
    },
    {
      "channel": 3,
      "note": 83,
      "start": 9.3201,
      "duration": 0.016,
      "velocity": 98,
      "chip": "ym2612"
    },
    {
      "channel": 2,
      "note": 52,
      "start": 9.3212,
      "duration": 0.0161,
      "velocity": 93,
      "chip": "ym2612"
    },
    {
      "channel": 1,
      "note": 71,
      "start": 9.3224,
      "duration": 0.016,
      "velocity": 108,
      "chip": "ym2612"
    },
    {
      "channel": 0,
      "note": 38,
      "start": 9.332,
      "duration": 0.0161,
      "velocity": 115,
      "chip": "ym2612"
    },
    {
      "channel": 5,
      "note": 71,
      "start": 9.3332,
      "duration": 0.0161,
      "velocity": 108,
      "chip": "ym2612"
    },
    {
      "channel": 4,
      "note": 80,
      "start": 9.3349,
      "duration": 0.0158,
      "velocity": 98,
      "chip": "ym2612"
    },
    {
      "channel": 3,
      "note": 83,
      "start": 9.3361,
      "duration": 0.0161,
      "velocity": 98,
      "chip": "ym2612"
    },
    {
      "channel": 2,
      "note": 52,
      "start": 9.3373,
      "duration": 0.0161,
      "velocity": 93,
      "chip": "ym2612"
    },
    {
      "channel": 1,
      "note": 71,
      "start": 9.3385,
      "duration": 0.0161,
      "velocity": 108,
      "chip": "ym2612"
    },
    {
      "channel": 0,
      "note": 38,
      "start": 9.3481,
      "duration": 0.0161,
      "velocity": 115,
      "chip": "ym2612"
    },
    {
      "channel": 5,
      "note": 71,
      "start": 9.3493,
      "duration": 0.0161,
      "velocity": 108,
      "chip": "ym2612"
    },
    {
      "channel": 4,
      "note": 80,
      "start": 9.3507,
      "duration": 0.0159,
      "velocity": 98,
      "chip": "ym2612"
    },
    {
      "channel": 3,
      "note": 83,
      "start": 9.3522,
      "duration": 0.016,
      "velocity": 98,
      "chip": "ym2612"
    },
    {
      "channel": 2,
      "note": 52,
      "start": 9.3534,
      "duration": 0.016,
      "velocity": 93,
      "chip": "ym2612"
    },
    {
      "channel": 1,
      "note": 71,
      "start": 9.3546,
      "duration": 0.0161,
      "velocity": 108,
      "chip": "ym2612"
    },
    {
      "channel": 0,
      "note": 39,
      "start": 9.3642,
      "duration": 0.0161,
      "velocity": 115,
      "chip": "ym2612"
    },
    {
      "channel": 5,
      "note": 71,
      "start": 9.3654,
      "duration": 0.0161,
      "velocity": 108,
      "chip": "ym2612"
    },
    {
      "channel": 4,
      "note": 80,
      "start": 9.3666,
      "duration": 0.0161,
      "velocity": 98,
      "chip": "ym2612"
    },
    {
      "channel": 3,
      "note": 83,
      "start": 9.3682,
      "duration": 0.0158,
      "velocity": 98,
      "chip": "ym2612"
    },
    {
      "channel": 2,
      "note": 52,
      "start": 9.3694,
      "duration": 0.0162,
      "velocity": 93,
      "chip": "ym2612"
    },
    {
      "channel": 1,
      "note": 71,
      "start": 9.3706,
      "duration": 0.0161,
      "velocity": 108,
      "chip": "ym2612"
    },
    {
      "channel": 0,
      "note": 39,
      "start": 9.3803,
      "duration": 0.0161,
      "velocity": 115,
      "chip": "ym2612"
    },
    {
      "channel": 5,
      "note": 71,
      "start": 9.3815,
      "duration": 0.0161,
      "velocity": 108,
      "chip": "ym2612"
    },
    {
      "channel": 4,
      "note": 80,
      "start": 9.3827,
      "duration": 0.0161,
      "velocity": 98,
      "chip": "ym2612"
    },
    {
      "channel": 3,
      "note": 83,
      "start": 9.3841,
      "duration": 0.0159,
      "velocity": 98,
      "chip": "ym2612"
    },
    {
      "channel": 2,
      "note": 52,
      "start": 9.3856,
      "duration": 0.016,
      "velocity": 93,
      "chip": "ym2612"
    },
    {
      "channel": 1,
      "note": 71,
      "start": 9.3867,
      "duration": 0.0161,
      "velocity": 108,
      "chip": "ym2612"
    },
    {
      "channel": 0,
      "note": 40,
      "start": 9.3965,
      "duration": 0.0161,
      "velocity": 115,
      "chip": "ym2612"
    },
    {
      "channel": 5,
      "note": 71,
      "start": 9.3976,
      "duration": 0.0161,
      "velocity": 108,
      "chip": "ym2612"
    },
    {
      "channel": 4,
      "note": 80,
      "start": 9.3988,
      "duration": 0.0162,
      "velocity": 98,
      "chip": "ym2612"
    },
    {
      "channel": 3,
      "note": 83,
      "start": 9.3999,
      "duration": 0.0163,
      "velocity": 98,
      "chip": "ym2612"
    },
    {
      "channel": 2,
      "note": 52,
      "start": 9.4016,
      "duration": 0.016,
      "velocity": 93,
      "chip": "ym2612"
    },
    {
      "channel": 1,
      "note": 71,
      "start": 9.4028,
      "duration": 0.0164,
      "velocity": 108,
      "chip": "ym2612"
    },
    {
      "channel": 0,
      "note": 40,
      "start": 9.4126,
      "duration": 0.0161,
      "velocity": 115,
      "chip": "ym2612"
    },
    {
      "channel": 5,
      "note": 71,
      "start": 9.4137,
      "duration": 0.0161,
      "velocity": 108,
      "chip": "ym2612"
    },
    {
      "channel": 4,
      "note": 80,
      "start": 9.4149,
      "duration": 0.0161,
      "velocity": 98,
      "chip": "ym2612"
    },
    {
      "channel": 3,
      "note": 83,
      "start": 9.4162,
      "duration": 0.016,
      "velocity": 98,
      "chip": "ym2612"
    },
    {
      "channel": 2,
      "note": 52,
      "start": 9.4176,
      "duration": 0.0158,
      "velocity": 93,
      "chip": "ym2612"
    },
    {
      "channel": 1,
      "note": 71,
      "start": 9.4193,
      "duration": 0.016,
      "velocity": 108,
      "chip": "ym2612"
    },
    {
      "channel": 0,
      "note": 40,
      "start": 9.4287,
      "duration": 0.0161,
      "velocity": 115,
      "chip": "ym2612"
    },
    {
      "channel": 5,
      "note": 71,
      "start": 9.4298,
      "duration": 0.0162,
      "velocity": 108,
      "chip": "ym2612"
    },
    {
      "channel": 4,
      "note": 80,
      "start": 9.431,
      "duration": 0.0162,
      "velocity": 98,
      "chip": "ym2612"
    },
    {
      "channel": 3,
      "note": 83,
      "start": 9.4322,
      "duration": 0.0162,
      "velocity": 98,
      "chip": "ym2612"
    },
    {
      "channel": 2,
      "note": 52,
      "start": 9.4334,
      "duration": 0.0162,
      "velocity": 93,
      "chip": "ym2612"
    },
    {
      "channel": 1,
      "note": 71,
      "start": 9.4352,
      "duration": 0.0161,
      "velocity": 108,
      "chip": "ym2612"
    },
    {
      "channel": 0,
      "note": 41,
      "start": 9.4448,
      "duration": 0.0161,
      "velocity": 115,
      "chip": "ym2612"
    },
    {
      "channel": 5,
      "note": 71,
      "start": 9.446,
      "duration": 0.0161,
      "velocity": 108,
      "chip": "ym2612"
    },
    {
      "channel": 4,
      "note": 80,
      "start": 9.4472,
      "duration": 0.016,
      "velocity": 98,
      "chip": "ym2612"
    },
    {
      "channel": 3,
      "note": 83,
      "start": 9.4484,
      "duration": 0.016,
      "velocity": 98,
      "chip": "ym2612"
    },
    {
      "channel": 2,
      "note": 52,
      "start": 9.4497,
      "duration": 0.0159,
      "velocity": 93,
      "chip": "ym2612"
    },
    {
      "channel": 1,
      "note": 71,
      "start": 9.4514,
      "duration": 0.0154,
      "velocity": 108,
      "chip": "ym2612"
    },
    {
      "channel": 0,
      "note": 41,
      "start": 9.4608,
      "duration": 0.0161,
      "velocity": 115,
      "chip": "ym2612"
    },
    {
      "channel": 5,
      "note": 71,
      "start": 9.4621,
      "duration": 0.0161,
      "velocity": 108,
      "chip": "ym2612"
    },
    {
      "channel": 4,
      "note": 80,
      "start": 9.4632,
      "duration": 0.0161,
      "velocity": 98,
      "chip": "ym2612"
    },
    {
      "channel": 3,
      "note": 83,
      "start": 9.4644,
      "duration": 0.016,
      "velocity": 98,
      "chip": "ym2612"
    },
    {
      "channel": 2,
      "note": 52,
      "start": 9.4656,
      "duration": 0.016,
      "velocity": 93,
      "chip": "ym2612"
    },
    {
      "channel": 1,
      "note": 71,
      "start": 9.4667,
      "duration": 0.016,
      "velocity": 108,
      "chip": "ym2612"
    },
    {
      "channel": 0,
      "note": 42,
      "start": 9.4769,
      "duration": 0.0161,
      "velocity": 115,
      "chip": "ym2612"
    },
    {
      "channel": 5,
      "note": 71,
      "start": 9.4781,
      "duration": 0.0161,
      "velocity": 108,
      "chip": "ym2612"
    },
    {
      "channel": 4,
      "note": 80,
      "start": 9.4793,
      "duration": 0.0161,
      "velocity": 98,
      "chip": "ym2612"
    },
    {
      "channel": 3,
      "note": 83,
      "start": 9.4804,
      "duration": 0.0161,
      "velocity": 98,
      "chip": "ym2612"
    },
    {
      "channel": 2,
      "note": 52,
      "start": 9.4816,
      "duration": 0.0161,
      "velocity": 93,
      "chip": "ym2612"
    },
    {
      "channel": 1,
      "note": 71,
      "start": 9.4827,
      "duration": 0.0161,
      "velocity": 108,
      "chip": "ym2612"
    },
    {
      "channel": 0,
      "note": 42,
      "start": 9.493,
      "duration": 0.0161,
      "velocity": 115,
      "chip": "ym2612"
    },
    {
      "channel": 5,
      "note": 71,
      "start": 9.4942,
      "duration": 0.0161,
      "velocity": 108,
      "chip": "ym2612"
    },
    {
      "channel": 4,
      "note": 80,
      "start": 9.4954,
      "duration": 0.0161,
      "velocity": 98,
      "chip": "ym2612"
    },
    {
      "channel": 3,
      "note": 83,
      "start": 9.4965,
      "duration": 0.0161,
      "velocity": 98,
      "chip": "ym2612"
    },
    {
      "channel": 2,
      "note": 52,
      "start": 9.4977,
      "duration": 0.0161,
      "velocity": 93,
      "chip": "ym2612"
    },
    {
      "channel": 1,
      "note": 71,
      "start": 9.4988,
      "duration": 0.0162,
      "velocity": 108,
      "chip": "ym2612"
    },
    {
      "channel": 0,
      "note": 43,
      "start": 9.5091,
      "duration": 0.0161,
      "velocity": 115,
      "chip": "ym2612"
    },
    {
      "channel": 5,
      "note": 71,
      "start": 9.5103,
      "duration": 0.0161,
      "velocity": 108,
      "chip": "ym2612"
    },
    {
      "channel": 4,
      "note": 80,
      "start": 9.5115,
      "duration": 0.0162,
      "velocity": 98,
      "chip": "ym2612"
    },
    {
      "channel": 3,
      "note": 83,
      "start": 9.5126,
      "duration": 0.0162,
      "velocity": 98,
      "chip": "ym2612"
    },
    {
      "channel": 2,
      "note": 52,
      "start": 9.5138,
      "duration": 0.0163,
      "velocity": 93,
      "chip": "ym2612"
    },
    {
      "channel": 1,
      "note": 71,
      "start": 9.515,
      "duration": 0.0163,
      "velocity": 108,
      "chip": "ym2612"
    },
    {
      "channel": 0,
      "note": 43,
      "start": 9.5252,
      "duration": 0.0161,
      "velocity": 115,
      "chip": "ym2612"
    },
    {
      "channel": 5,
      "note": 71,
      "start": 9.5264,
      "duration": 0.0161,
      "velocity": 108,
      "chip": "ym2612"
    },
    {
      "channel": 4,
      "note": 80,
      "start": 9.5276,
      "duration": 0.0162,
      "velocity": 98,
      "chip": "ym2612"
    },
    {
      "channel": 3,
      "note": 83,
      "start": 9.5288,
      "duration": 0.0162,
      "velocity": 98,
      "chip": "ym2612"
    },
    {
      "channel": 2,
      "note": 52,
      "start": 9.5301,
      "duration": 0.0163,
      "velocity": 93,
      "chip": "ym2612"
    },
    {
      "channel": 1,
      "note": 71,
      "start": 9.5313,
      "duration": 0.0163,
      "velocity": 108,
      "chip": "ym2612"
    },
    {
      "channel": 0,
      "note": 44,
      "start": 9.5413,
      "duration": 0.0179,
      "velocity": 124,
      "chip": "ym2612"
    },
    {
      "channel": 5,
      "note": 71,
      "start": 9.5426,
      "duration": 0.018,
      "velocity": 108,
      "chip": "ym2612"
    },
    {
      "channel": 2,
      "note": 52,
      "start": 9.5463,
      "duration": 0.0186,
      "velocity": 93,
      "chip": "ym2612"
    },
    {
      "channel": 0,
      "note": 84,
      "start": 9.5593,
      "duration": 0.0143,
      "velocity": 124,
      "chip": "ym2612"
    },
    {
      "channel": 5,
      "note": 71,
      "start": 9.5606,
      "duration": 0.0143,
      "velocity": 108,
      "chip": "ym2612"
    },
    {
      "channel": 4,
      "note": 80,
      "start": 9.562,
      "duration": 0.0141,
      "velocity": 98,
      "chip": "ym2612"
    },
    {
      "channel": 3,
      "note": 83,
      "start": 9.5634,
      "duration": 0.0139,
      "velocity": 98,
      "chip": "ym2612"
    },
    {
      "channel": 2,
      "note": 52,
      "start": 9.565,
      "duration": 0.0135,
      "velocity": 93,
      "chip": "ym2612"
    },
    {
      "channel": 1,
      "note": 71,
      "start": 9.5664,
      "duration": 0.0133,
      "velocity": 108,
      "chip": "ym2612"
    },
    {
      "channel": 0,
      "note": 82,
      "start": 9.5736,
      "duration": 0.016,
      "velocity": 124,
      "chip": "ym2612"
    },
    {
      "channel": 4,
      "note": 80,
      "start": 9.5761,
      "duration": 0.0161,
      "velocity": 98,
      "chip": "ym2612"
    },
    {
      "channel": 3,
      "note": 83,
      "start": 9.5773,
      "duration": 0.0161,
      "velocity": 98,
      "chip": "ym2612"
    },
    {
      "channel": 2,
      "note": 52,
      "start": 9.5785,
      "duration": 0.016,
      "velocity": 93,
      "chip": "ym2612"
    },
    {
      "channel": 1,
      "note": 71,
      "start": 9.5798,
      "duration": 0.016,
      "velocity": 108,
      "chip": "ym2612"
    },
    {
      "channel": 0,
      "note": 80,
      "start": 9.5897,
      "duration": 0.0161,
      "velocity": 124,
      "chip": "ym2612"
    },
    {
      "channel": 5,
      "note": 71,
      "start": 9.5911,
      "duration": 0.0158,
      "velocity": 108,
      "chip": "ym2612"
    },
    {
      "channel": 4,
      "note": 80,
      "start": 9.5923,
      "duration": 0.0159,
      "velocity": 98,
      "chip": "ym2612"
    },
    {
      "channel": 3,
      "note": 83,
      "start": 9.5934,
      "duration": 0.0159,
      "velocity": 98,
      "chip": "ym2612"
    },
    {
      "channel": 2,
      "note": 52,
      "start": 9.5946,
      "duration": 0.0159,
      "velocity": 93,
      "chip": "ym2612"
    },
    {
      "channel": 1,
      "note": 71,
      "start": 9.5958,
      "duration": 0.0158,
      "velocity": 108,
      "chip": "ym2612"
    },
    {
      "channel": 0,
      "note": 77,
      "start": 9.6058,
      "duration": 0.0161,
      "velocity": 124,
      "chip": "ym2612"
    },
    {
      "channel": 5,
      "note": 71,
      "start": 9.607,
      "duration": 0.016,
      "velocity": 108,
      "chip": "ym2612"
    },
    {
      "channel": 4,
      "note": 80,
      "start": 9.6081,
      "duration": 0.016,
      "velocity": 98,
      "chip": "ym2612"
    },
    {
      "channel": 3,
      "note": 83,
      "start": 9.6093,
      "duration": 0.016,
      "velocity": 98,
      "chip": "ym2612"
    },
    {
      "channel": 2,
      "note": 52,
      "start": 9.6105,
      "duration": 0.016,
      "velocity": 93,
      "chip": "ym2612"
    },
    {
      "channel": 1,
      "note": 71,
      "start": 9.6116,
      "duration": 0.016,
      "velocity": 108,
      "chip": "ym2612"
    },
    {
      "channel": 0,
      "note": 75,
      "start": 9.6219,
      "duration": 0.0161,
      "velocity": 124,
      "chip": "ym2612"
    },
    {
      "channel": 5,
      "note": 71,
      "start": 9.623,
      "duration": 0.0162,
      "velocity": 108,
      "chip": "ym2612"
    },
    {
      "channel": 4,
      "note": 80,
      "start": 9.6241,
      "duration": 0.0161,
      "velocity": 98,
      "chip": "ym2612"
    },
    {
      "channel": 3,
      "note": 83,
      "start": 9.6254,
      "duration": 0.0161,
      "velocity": 98,
      "chip": "ym2612"
    },
    {
      "channel": 2,
      "note": 52,
      "start": 9.6265,
      "duration": 0.0161,
      "velocity": 93,
      "chip": "ym2612"
    },
    {
      "channel": 1,
      "note": 71,
      "start": 9.6276,
      "duration": 0.0162,
      "velocity": 108,
      "chip": "ym2612"
    },
    {
      "channel": 0,
      "note": 72,
      "start": 9.638,
      "duration": 0.0161,
      "velocity": 124,
      "chip": "ym2612"
    },
    {
      "channel": 5,
      "note": 71,
      "start": 9.6392,
      "duration": 0.0161,
      "velocity": 108,
      "chip": "ym2612"
    },
    {
      "channel": 4,
      "note": 80,
      "start": 9.6403,
      "duration": 0.0161,
      "velocity": 98,
      "chip": "ym2612"
    },
    {
      "channel": 3,
      "note": 83,
      "start": 9.6415,
      "duration": 0.0161,
      "velocity": 98,
      "chip": "ym2612"
    },
    {
      "channel": 2,
      "note": 52,
      "start": 9.6426,
      "duration": 0.0161,
      "velocity": 93,
      "chip": "ym2612"
    },
    {
      "channel": 1,
      "note": 71,
      "start": 9.6438,
      "duration": 0.0161,
      "velocity": 108,
      "chip": "ym2612"
    },
    {
      "channel": 0,
      "note": 70,
      "start": 9.654,
      "duration": 0.0162,
      "velocity": 124,
      "chip": "ym2612"
    },
    {
      "channel": 5,
      "note": 71,
      "start": 9.6553,
      "duration": 0.0161,
      "velocity": 108,
      "chip": "ym2612"
    },
    {
      "channel": 4,
      "note": 80,
      "start": 9.6564,
      "duration": 0.0162,
      "velocity": 98,
      "chip": "ym2612"
    },
    {
      "channel": 3,
      "note": 83,
      "start": 9.6576,
      "duration": 0.0161,
      "velocity": 98,
      "chip": "ym2612"
    },
    {
      "channel": 2,
      "note": 52,
      "start": 9.6587,
      "duration": 0.0162,
      "velocity": 93,
      "chip": "ym2612"
    },
    {
      "channel": 1,
      "note": 71,
      "start": 9.6599,
      "duration": 0.0162,
      "velocity": 108,
      "chip": "ym2612"
    },
    {
      "channel": 0,
      "note": 68,
      "start": 9.6702,
      "duration": 0.0165,
      "velocity": 124,
      "chip": "ym2612"
    },
    {
      "channel": 5,
      "note": 71,
      "start": 9.6714,
      "duration": 0.0164,
      "velocity": 108,
      "chip": "ym2612"
    },
    {
      "channel": 4,
      "note": 80,
      "start": 9.6726,
      "duration": 0.0164,
      "velocity": 98,
      "chip": "ym2612"
    },
    {
      "channel": 3,
      "note": 83,
      "start": 9.6737,
      "duration": 0.0164,
      "velocity": 98,
      "chip": "ym2612"
    },
    {
      "channel": 2,
      "note": 52,
      "start": 9.6749,
      "duration": 0.0164,
      "velocity": 93,
      "chip": "ym2612"
    },
    {
      "channel": 1,
      "note": 71,
      "start": 9.6761,
      "duration": 0.0164,
      "velocity": 108,
      "chip": "ym2612"
    },
    {
      "channel": 0,
      "note": 65,
      "start": 9.6867,
      "duration": 0.0163,
      "velocity": 124,
      "chip": "ym2612"
    },
    {
      "channel": 5,
      "note": 71,
      "start": 9.6878,
      "duration": 0.0163,
      "velocity": 108,
      "chip": "ym2612"
    },
    {
      "channel": 4,
      "note": 80,
      "start": 9.689,
      "duration": 0.0163,
      "velocity": 98,
      "chip": "ym2612"
    },
    {
      "channel": 3,
      "note": 83,
      "start": 9.6901,
      "duration": 0.0165,
      "velocity": 98,
      "chip": "ym2612"
    },
    {
      "channel": 2,
      "note": 52,
      "start": 9.6912,
      "duration": 0.0166,
      "velocity": 93,
      "chip": "ym2612"
    },
    {
      "channel": 1,
      "note": 71,
      "start": 9.6925,
      "duration": 0.0166,
      "velocity": 108,
      "chip": "ym2612"
    },
    {
      "channel": 0,
      "note": 63,
      "start": 9.703,
      "duration": 0.0152,
      "velocity": 1,
      "chip": "ym2612"
    },
    {
      "channel": 5,
      "note": 71,
      "start": 9.7041,
      "duration": 0.0153,
      "velocity": 108,
      "chip": "ym2612"
    },
    {
      "channel": 4,
      "note": 80,
      "start": 9.7053,
      "duration": 0.0153,
      "velocity": 98,
      "chip": "ym2612"
    },
    {
      "channel": 3,
      "note": 83,
      "start": 9.7066,
      "duration": 0.0153,
      "velocity": 98,
      "chip": "ym2612"
    },
    {
      "channel": 2,
      "note": 52,
      "start": 9.7078,
      "duration": 0.0153,
      "velocity": 93,
      "chip": "ym2612"
    },
    {
      "channel": 1,
      "note": 71,
      "start": 9.7091,
      "duration": 0.0152,
      "velocity": 108,
      "chip": "ym2612"
    },
    {
      "channel": 5,
      "note": 71,
      "start": 9.7194,
      "duration": 0.0152,
      "velocity": 108,
      "chip": "ym2612"
    },
    {
      "channel": 4,
      "note": 80,
      "start": 9.7206,
      "duration": 0.0153,
      "velocity": 98,
      "chip": "ym2612"
    },
    {
      "channel": 3,
      "note": 83,
      "start": 9.7219,
      "duration": 0.0153,
      "velocity": 98,
      "chip": "ym2612"
    },
    {
      "channel": 2,
      "note": 52,
      "start": 9.7231,
      "duration": 0.0153,
      "velocity": 93,
      "chip": "ym2612"
    },
    {
      "channel": 1,
      "note": 71,
      "start": 9.7243,
      "duration": 0.0153,
      "velocity": 108,
      "chip": "ym2612"
    },
    {
      "channel": 5,
      "note": 71,
      "start": 9.7346,
      "duration": 0.0156,
      "velocity": 108,
      "chip": "ym2612"
    },
    {
      "channel": 4,
      "note": 80,
      "start": 9.7359,
      "duration": 0.016,
      "velocity": 98,
      "chip": "ym2612"
    },
    {
      "channel": 3,
      "note": 83,
      "start": 9.7372,
      "duration": 0.016,
      "velocity": 98,
      "chip": "ym2612"
    },
    {
      "channel": 2,
      "note": 52,
      "start": 9.7384,
      "duration": 0.0159,
      "velocity": 93,
      "chip": "ym2612"
    },
    {
      "channel": 1,
      "note": 71,
      "start": 9.7396,
      "duration": 0.0159,
      "velocity": 108,
      "chip": "ym2612"
    },
    {
      "channel": 5,
      "note": 71,
      "start": 9.7502,
      "duration": 0.016,
      "velocity": 108,
      "chip": "ym2612"
    },
    {
      "channel": 4,
      "note": 80,
      "start": 9.752,
      "duration": 0.0156,
      "velocity": 98,
      "chip": "ym2612"
    },
    {
      "channel": 3,
      "note": 83,
      "start": 9.7532,
      "duration": 0.016,
      "velocity": 98,
      "chip": "ym2612"
    },
    {
      "channel": 2,
      "note": 52,
      "start": 9.7543,
      "duration": 0.016,
      "velocity": 93,
      "chip": "ym2612"
    },
    {
      "channel": 1,
      "note": 71,
      "start": 9.7554,
      "duration": 0.016,
      "velocity": 108,
      "chip": "ym2612"
    },
    {
      "channel": 5,
      "note": 71,
      "start": 9.7663,
      "duration": 0.0161,
      "velocity": 108,
      "chip": "ym2612"
    },
    {
      "channel": 4,
      "note": 80,
      "start": 9.7676,
      "duration": 0.0159,
      "velocity": 98,
      "chip": "ym2612"
    },
    {
      "channel": 3,
      "note": 83,
      "start": 9.7692,
      "duration": 0.0161,
      "velocity": 98,
      "chip": "ym2612"
    },
    {
      "channel": 2,
      "note": 52,
      "start": 9.7703,
      "duration": 0.0161,
      "velocity": 93,
      "chip": "ym2612"
    },
    {
      "channel": 1,
      "note": 71,
      "start": 9.7715,
      "duration": 0.0161,
      "velocity": 108,
      "chip": "ym2612"
    },
    {
      "channel": 5,
      "note": 71,
      "start": 9.7824,
      "duration": 0.0161,
      "velocity": 108,
      "chip": "ym2612"
    },
    {
      "channel": 4,
      "note": 80,
      "start": 9.7835,
      "duration": 0.0161,
      "velocity": 98,
      "chip": "ym2612"
    },
    {
      "channel": 3,
      "note": 83,
      "start": 9.7853,
      "duration": 0.0157,
      "velocity": 98,
      "chip": "ym2612"
    },
    {
      "channel": 2,
      "note": 52,
      "start": 9.7864,
      "duration": 0.0161,
      "velocity": 93,
      "chip": "ym2612"
    },
    {
      "channel": 1,
      "note": 71,
      "start": 9.7876,
      "duration": 0.0161,
      "velocity": 108,
      "chip": "ym2612"
    },
    {
      "channel": 5,
      "note": 71,
      "start": 9.7984,
      "duration": 0.0161,
      "velocity": 108,
      "chip": "ym2612"
    },
    {
      "channel": 4,
      "note": 80,
      "start": 9.7996,
      "duration": 0.0161,
      "velocity": 98,
      "chip": "ym2612"
    },
    {
      "channel": 3,
      "note": 83,
      "start": 9.801,
      "duration": 0.016,
      "velocity": 98,
      "chip": "ym2612"
    },
    {
      "channel": 2,
      "note": 52,
      "start": 9.8025,
      "duration": 0.0163,
      "velocity": 93,
      "chip": "ym2612"
    },
    {
      "channel": 1,
      "note": 71,
      "start": 9.8037,
      "duration": 0.0164,
      "velocity": 108,
      "chip": "ym2612"
    },
    {
      "channel": 5,
      "note": 71,
      "start": 9.8145,
      "duration": 0.0162,
      "velocity": 108,
      "chip": "ym2612"
    },
    {
      "channel": 4,
      "note": 80,
      "start": 9.8157,
      "duration": 0.0162,
      "velocity": 98,
      "chip": "ym2612"
    },
    {
      "channel": 3,
      "note": 83,
      "start": 9.817,
      "duration": 0.0162,
      "velocity": 98,
      "chip": "ym2612"
    },
    {
      "channel": 2,
      "note": 52,
      "start": 9.8188,
      "duration": 0.0162,
      "velocity": 93,
      "chip": "ym2612"
    },
    {
      "channel": 1,
      "note": 71,
      "start": 9.8201,
      "duration": 0.0162,
      "velocity": 108,
      "chip": "ym2612"
    },
    {
      "channel": 5,
      "note": 71,
      "start": 9.8307,
      "duration": 0.0197,
      "velocity": 108,
      "chip": "ym2612"
    },
    {
      "channel": 2,
      "note": 52,
      "start": 9.835,
      "duration": 0.0204,
      "velocity": 93,
      "chip": "ym2612"
    },
    {
      "channel": 0,
      "note": 36,
      "start": 9.8491,
      "duration": 0.0143,
      "velocity": 115,
      "chip": "ym2612"
    },
    {
      "channel": 5,
      "note": 71,
      "start": 9.8504,
      "duration": 0.0144,
      "velocity": 108,
      "chip": "ym2612"
    },
    {
      "channel": 4,
      "note": 80,
      "start": 9.8525,
      "duration": 0.0134,
      "velocity": 98,
      "chip": "ym2612"
    },
    {
      "channel": 3,
      "note": 83,
      "start": 9.854,
      "duration": 0.0134,
      "velocity": 98,
      "chip": "ym2612"
    },
    {
      "channel": 2,
      "note": 52,
      "start": 9.8555,
      "duration": 0.0134,
      "velocity": 93,
      "chip": "ym2612"
    },
    {
      "channel": 1,
      "note": 71,
      "start": 9.857,
      "duration": 0.0132,
      "velocity": 108,
      "chip": "ym2612"
    },
    {
      "channel": 0,
      "note": 36,
      "start": 9.8634,
      "duration": 0.016,
      "velocity": 115,
      "chip": "ym2612"
    },
    {
      "channel": 4,
      "note": 80,
      "start": 9.8659,
      "duration": 0.0161,
      "velocity": 98,
      "chip": "ym2612"
    },
    {
      "channel": 3,
      "note": 83,
      "start": 9.8673,
      "duration": 0.0159,
      "velocity": 98,
      "chip": "ym2612"
    },
    {
      "channel": 2,
      "note": 52,
      "start": 9.8689,
      "duration": 0.016,
      "velocity": 93,
      "chip": "ym2612"
    },
    {
      "channel": 1,
      "note": 71,
      "start": 9.8702,
      "duration": 0.016,
      "velocity": 108,
      "chip": "ym2612"
    },
    {
      "channel": 0,
      "note": 37,
      "start": 9.8795,
      "duration": 0.0161,
      "velocity": 115,
      "chip": "ym2612"
    },
    {
      "channel": 5,
      "note": 71,
      "start": 9.881,
      "duration": 0.0158,
      "velocity": 108,
      "chip": "ym2612"
    },
    {
      "channel": 4,
      "note": 80,
      "start": 9.8821,
      "duration": 0.0159,
      "velocity": 98,
      "chip": "ym2612"
    },
    {
      "channel": 3,
      "note": 83,
      "start": 9.8832,
      "duration": 0.0159,
      "velocity": 98,
      "chip": "ym2612"
    },
    {
      "channel": 2,
      "note": 52,
      "start": 9.885,
      "duration": 0.0153,
      "velocity": 93,
      "chip": "ym2612"
    },
    {
      "channel": 1,
      "note": 71,
      "start": 9.8862,
      "duration": 0.0158,
      "velocity": 108,
      "chip": "ym2612"
    },
    {
      "channel": 0,
      "note": 37,
      "start": 9.8956,
      "duration": 0.0161,
      "velocity": 115,
      "chip": "ym2612"
    },
    {
      "channel": 5,
      "note": 71,
      "start": 9.8968,
      "duration": 0.016,
      "velocity": 108,
      "chip": "ym2612"
    },
    {
      "channel": 4,
      "note": 80,
      "start": 9.8979,
      "duration": 0.016,
      "velocity": 98,
      "chip": "ym2612"
    },
    {
      "channel": 3,
      "note": 83,
      "start": 9.8991,
      "duration": 0.016,
      "velocity": 98,
      "chip": "ym2612"
    },
    {
      "channel": 2,
      "note": 52,
      "start": 9.9003,
      "duration": 0.016,
      "velocity": 93,
      "chip": "ym2612"
    },
    {
      "channel": 1,
      "note": 71,
      "start": 9.902,
      "duration": 0.016,
      "velocity": 108,
      "chip": "ym2612"
    },
    {
      "channel": 0,
      "note": 38,
      "start": 9.9117,
      "duration": 0.0161,
      "velocity": 115,
      "chip": "ym2612"
    },
    {
      "channel": 5,
      "note": 71,
      "start": 9.9128,
      "duration": 0.0162,
      "velocity": 108,
      "chip": "ym2612"
    },
    {
      "channel": 4,
      "note": 80,
      "start": 9.914,
      "duration": 0.0161,
      "velocity": 98,
      "chip": "ym2612"
    },
    {
      "channel": 3,
      "note": 83,
      "start": 9.9152,
      "duration": 0.0161,
      "velocity": 98,
      "chip": "ym2612"
    },
    {
      "channel": 2,
      "note": 52,
      "start": 9.9163,
      "duration": 0.0161,
      "velocity": 93,
      "chip": "ym2612"
    },
    {
      "channel": 1,
      "note": 71,
      "start": 9.918,
      "duration": 0.0156,
      "velocity": 108,
      "chip": "ym2612"
    },
    {
      "channel": 0,
      "note": 38,
      "start": 9.9278,
      "duration": 0.0161,
      "velocity": 115,
      "chip": "ym2612"
    },
    {
      "channel": 5,
      "note": 71,
      "start": 9.929,
      "duration": 0.0161,
      "velocity": 108,
      "chip": "ym2612"
    },
    {
      "channel": 4,
      "note": 80,
      "start": 9.9301,
      "duration": 0.0161,
      "velocity": 98,
      "chip": "ym2612"
    },
    {
      "channel": 3,
      "note": 83,
      "start": 9.9313,
      "duration": 0.0161,
      "velocity": 98,
      "chip": "ym2612"
    },
    {
      "channel": 2,
      "note": 52,
      "start": 9.9324,
      "duration": 0.0161,
      "velocity": 93,
      "chip": "ym2612"
    },
    {
      "channel": 1,
      "note": 71,
      "start": 9.9336,
      "duration": 0.0161,
      "velocity": 108,
      "chip": "ym2612"
    },
    {
      "channel": 0,
      "note": 39,
      "start": 9.9439,
      "duration": 0.0161,
      "velocity": 115,
      "chip": "ym2612"
    },
    {
      "channel": 5,
      "note": 71,
      "start": 9.9451,
      "duration": 0.0161,
      "velocity": 108,
      "chip": "ym2612"
    },
    {
      "channel": 4,
      "note": 80,
      "start": 9.9462,
      "duration": 0.0161,
      "velocity": 98,
      "chip": "ym2612"
    },
    {
      "channel": 3,
      "note": 83,
      "start": 9.9474,
      "duration": 0.0161,
      "velocity": 98,
      "chip": "ym2612"
    },
    {
      "channel": 2,
      "note": 52,
      "start": 9.9485,
      "duration": 0.0161,
      "velocity": 93,
      "chip": "ym2612"
    },
    {
      "channel": 1,
      "note": 71,
      "start": 9.9497,
      "duration": 0.0161,
      "velocity": 108,
      "chip": "ym2612"
    },
    {
      "channel": 0,
      "note": 39,
      "start": 9.96,
      "duration": 0.0161,
      "velocity": 115,
      "chip": "ym2612"
    },
    {
      "channel": 5,
      "note": 71,
      "start": 9.9612,
      "duration": 0.0161,
      "velocity": 108,
      "chip": "ym2612"
    },
    {
      "channel": 4,
      "note": 80,
      "start": 9.9623,
      "duration": 0.0161,
      "velocity": 98,
      "chip": "ym2612"
    },
    {
      "channel": 3,
      "note": 83,
      "start": 9.9634,
      "duration": 0.0161,
      "velocity": 98,
      "chip": "ym2612"
    },
    {
      "channel": 2,
      "note": 52,
      "start": 9.9646,
      "duration": 0.0161,
      "velocity": 93,
      "chip": "ym2612"
    },
    {
      "channel": 1,
      "note": 71,
      "start": 9.9658,
      "duration": 0.0161,
      "velocity": 108,
      "chip": "ym2612"
    },
    {
      "channel": 0,
      "note": 40,
      "start": 9.9761,
      "duration": 0.0161,
      "velocity": 115,
      "chip": "ym2612"
    },
    {
      "channel": 5,
      "note": 71,
      "start": 9.9773,
      "duration": 0.0161,
      "velocity": 108,
      "chip": "ym2612"
    },
    {
      "channel": 4,
      "note": 80,
      "start": 9.9784,
      "duration": 0.0161,
      "velocity": 98,
      "chip": "ym2612"
    },
    {
      "channel": 3,
      "note": 83,
      "start": 9.9795,
      "duration": 0.0163,
      "velocity": 98,
      "chip": "ym2612"
    },
    {
      "channel": 2,
      "note": 52,
      "start": 9.9807,
      "duration": 0.0163,
      "velocity": 93,
      "chip": "ym2612"
    },
    {
      "channel": 1,
      "note": 71,
      "start": 9.9819,
      "duration": 0.0163,
      "velocity": 108,
      "chip": "ym2612"
    },
    {
      "channel": 0,
      "note": 40,
      "start": 9.9922,
      "duration": 0.0161,
      "velocity": 115,
      "chip": "ym2612"
    },
    {
      "channel": 5,
      "note": 71,
      "start": 9.9934,
      "duration": 0.0161,
      "velocity": 108,
      "chip": "ym2612"
    },
    {
      "channel": 4,
      "note": 80,
      "start": 9.9946,
      "duration": 0.0161,
      "velocity": 98,
      "chip": "ym2612"
    },
    {
      "channel": 3,
      "note": 83,
      "start": 9.9958,
      "duration": 0.016,
      "velocity": 98,
      "chip": "ym2612"
    },
    {
      "channel": 2,
      "note": 52,
      "start": 9.9971,
      "duration": 0.016,
      "velocity": 93,
      "chip": "ym2612"
    },
    {
      "channel": 1,
      "note": 71,
      "start": 9.9983,
      "duration": 0.016,
      "velocity": 108,
      "chip": "ym2612"
    },
    {
      "channel": 0,
      "note": 40,
      "start": 10.0083,
      "duration": 0.0161,
      "velocity": 115,
      "chip": "ym2612"
    },
    {
      "channel": 5,
      "note": 71,
      "start": 10.0095,
      "duration": 0.0161,
      "velocity": 108,
      "chip": "ym2612"
    },
    {
      "channel": 4,
      "note": 80,
      "start": 10.0107,
      "duration": 0.0162,
      "velocity": 98,
      "chip": "ym2612"
    },
    {
      "channel": 3,
      "note": 83,
      "start": 10.0119,
      "duration": 0.0162,
      "velocity": 98,
      "chip": "ym2612"
    },
    {
      "channel": 2,
      "note": 52,
      "start": 10.0131,
      "duration": 0.0162,
      "velocity": 93,
      "chip": "ym2612"
    },
    {
      "channel": 1,
      "note": 71,
      "start": 10.0143,
      "duration": 0.0162,
      "velocity": 108,
      "chip": "ym2612"
    },
    {
      "channel": 0,
      "note": 41,
      "start": 10.0244,
      "duration": 0.0161,
      "velocity": 115,
      "chip": "ym2612"
    },
    {
      "channel": 5,
      "note": 71,
      "start": 10.0256,
      "duration": 0.0161,
      "velocity": 108,
      "chip": "ym2612"
    },
    {
      "channel": 4,
      "note": 80,
      "start": 10.0268,
      "duration": 0.016,
      "velocity": 98,
      "chip": "ym2612"
    },
    {
      "channel": 3,
      "note": 83,
      "start": 10.0281,
      "duration": 0.0159,
      "velocity": 98,
      "chip": "ym2612"
    },
    {
      "channel": 2,
      "note": 52,
      "start": 10.0293,
      "duration": 0.0159,
      "velocity": 93,
      "chip": "ym2612"
    },
    {
      "channel": 1,
      "note": 71,
      "start": 10.0305,
      "duration": 0.0159,
      "velocity": 108,
      "chip": "ym2612"
    },
    {
      "channel": 0,
      "note": 41,
      "start": 10.0405,
      "duration": 0.0161,
      "velocity": 115,
      "chip": "ym2612"
    },
    {
      "channel": 5,
      "note": 71,
      "start": 10.0417,
      "duration": 0.016,
      "velocity": 108,
      "chip": "ym2612"
    },
    {
      "channel": 4,
      "note": 80,
      "start": 10.0429,
      "duration": 0.016,
      "velocity": 98,
      "chip": "ym2612"
    },
    {
      "channel": 3,
      "note": 83,
      "start": 10.044,
      "duration": 0.0161,
      "velocity": 98,
      "chip": "ym2612"
    },
    {
      "channel": 2,
      "note": 52,
      "start": 10.0452,
      "duration": 0.016,
      "velocity": 93,
      "chip": "ym2612"
    },
    {
      "channel": 1,
      "note": 71,
      "start": 10.0463,
      "duration": 0.016,
      "velocity": 108,
      "chip": "ym2612"
    },
    {
      "channel": 0,
      "note": 42,
      "start": 10.0566,
      "duration": 0.0161,
      "velocity": 115,
      "chip": "ym2612"
    },
    {
      "channel": 5,
      "note": 71,
      "start": 10.0577,
      "duration": 0.0162,
      "velocity": 108,
      "chip": "ym2612"
    },
    {
      "channel": 4,
      "note": 80,
      "start": 10.0589,
      "duration": 0.0162,
      "velocity": 98,
      "chip": "ym2612"
    },
    {
      "channel": 3,
      "note": 83,
      "start": 10.0601,
      "duration": 0.0161,
      "velocity": 98,
      "chip": "ym2612"
    },
    {
      "channel": 2,
      "note": 52,
      "start": 10.0612,
      "duration": 0.0161,
      "velocity": 93,
      "chip": "ym2612"
    },
    {
      "channel": 1,
      "note": 71,
      "start": 10.0624,
      "duration": 0.0161,
      "velocity": 108,
      "chip": "ym2612"
    },
    {
      "channel": 0,
      "note": 42,
      "start": 10.0727,
      "duration": 0.0161,
      "velocity": 115,
      "chip": "ym2612"
    },
    {
      "channel": 5,
      "note": 71,
      "start": 10.0739,
      "duration": 0.0161,
      "velocity": 108,
      "chip": "ym2612"
    },
    {
      "channel": 4,
      "note": 80,
      "start": 10.075,
      "duration": 0.0161,
      "velocity": 98,
      "chip": "ym2612"
    },
    {
      "channel": 3,
      "note": 83,
      "start": 10.0762,
      "duration": 0.0161,
      "velocity": 98,
      "chip": "ym2612"
    },
    {
      "channel": 2,
      "note": 52,
      "start": 10.0773,
      "duration": 0.0161,
      "velocity": 93,
      "chip": "ym2612"
    },
    {
      "channel": 1,
      "note": 71,
      "start": 10.0785,
      "duration": 0.0161,
      "velocity": 108,
      "chip": "ym2612"
    },
    {
      "channel": 0,
      "note": 43,
      "start": 10.0888,
      "duration": 0.0161,
      "velocity": 115,
      "chip": "ym2612"
    },
    {
      "channel": 5,
      "note": 71,
      "start": 10.09,
      "duration": 0.0161,
      "velocity": 108,
      "chip": "ym2612"
    },
    {
      "channel": 4,
      "note": 80,
      "start": 10.0911,
      "duration": 0.0161,
      "velocity": 98,
      "chip": "ym2612"
    },
    {
      "channel": 3,
      "note": 83,
      "start": 10.0923,
      "duration": 0.0162,
      "velocity": 98,
      "chip": "ym2612"
    },
    {
      "channel": 2,
      "note": 52,
      "start": 10.0934,
      "duration": 0.0163,
      "velocity": 93,
      "chip": "ym2612"
    },
    {
      "channel": 1,
      "note": 71,
      "start": 10.0946,
      "duration": 0.0163,
      "velocity": 108,
      "chip": "ym2612"
    },
    {
      "channel": 0,
      "note": 43,
      "start": 10.1049,
      "duration": 0.0161,
      "velocity": 115,
      "chip": "ym2612"
    },
    {
      "channel": 5,
      "note": 71,
      "start": 10.1061,
      "duration": 0.0162,
      "velocity": 108,
      "chip": "ym2612"
    },
    {
      "channel": 4,
      "note": 80,
      "start": 10.1073,
      "duration": 0.0162,
      "velocity": 98,
      "chip": "ym2612"
    },
    {
      "channel": 3,
      "note": 83,
      "start": 10.1085,
      "duration": 0.0162,
      "velocity": 98,
      "chip": "ym2612"
    },
    {
      "channel": 2,
      "note": 52,
      "start": 10.1097,
      "duration": 0.0163,
      "velocity": 93,
      "chip": "ym2612"
    },
    {
      "channel": 1,
      "note": 71,
      "start": 10.1109,
      "duration": 0.0163,
      "velocity": 108,
      "chip": "ym2612"
    },
    {
      "channel": 0,
      "note": 44,
      "start": 10.121,
      "duration": 0.018,
      "velocity": 124,
      "chip": "ym2612"
    },
    {
      "channel": 5,
      "note": 71,
      "start": 10.1222,
      "duration": 0.018,
      "velocity": 108,
      "chip": "ym2612"
    },
    {
      "channel": 2,
      "note": 52,
      "start": 10.126,
      "duration": 0.0188,
      "velocity": 93,
      "chip": "ym2612"
    },
    {
      "channel": 0,
      "note": 84,
      "start": 10.139,
      "duration": 0.0144,
      "velocity": 124,
      "chip": "ym2612"
    },
    {
      "channel": 5,
      "note": 71,
      "start": 10.1402,
      "duration": 0.0144,
      "velocity": 108,
      "chip": "ym2612"
    },
    {
      "channel": 4,
      "note": 80,
      "start": 10.1418,
      "duration": 0.0141,
      "velocity": 98,
      "chip": "ym2612"
    },
    {
      "channel": 3,
      "note": 83,
      "start": 10.1433,
      "duration": 0.0139,
      "velocity": 98,
      "chip": "ym2612"
    },
    {
      "channel": 2,
      "note": 52,
      "start": 10.1448,
      "duration": 0.0136,
      "velocity": 93,
      "chip": "ym2612"
    },
    {
      "channel": 1,
      "note": 68,
      "start": 10.1463,
      "duration": 0.0133,
      "velocity": 108,
      "chip": "ym2612"
    },
    {
      "channel": 0,
      "note": 82,
      "start": 10.1534,
      "duration": 0.0163,
      "velocity": 124,
      "chip": "ym2612"
    },
    {
      "channel": 4,
      "note": 80,
      "start": 10.1559,
      "duration": 0.0165,
      "velocity": 98,
      "chip": "ym2612"
    },
    {
      "channel": 3,
      "note": 83,
      "start": 10.1572,
      "duration": 0.0163,
      "velocity": 98,
      "chip": "ym2612"
    },
    {
      "channel": 2,
      "note": 52,
      "start": 10.1584,
      "duration": 0.0163,
      "velocity": 93,
      "chip": "ym2612"
    },
    {
      "channel": 1,
      "note": 68,
      "start": 10.1596,
      "duration": 0.0163,
      "velocity": 108,
      "chip": "ym2612"
    },
    {
      "channel": 0,
      "note": 80,
      "start": 10.1697,
      "duration": 0.0163,
      "velocity": 124,
      "chip": "ym2612"
    },
    {
      "channel": 5,
      "note": 68,
      "start": 10.1712,
      "duration": 0.016,
      "velocity": 108,
      "chip": "ym2612"
    },
    {
      "channel": 4,
      "note": 80,
      "start": 10.1724,
      "duration": 0.016,
      "velocity": 98,
      "chip": "ym2612"
    },
    {
      "channel": 3,
      "note": 83,
      "start": 10.1735,
      "duration": 0.016,
      "velocity": 98,
      "chip": "ym2612"
    },
    {
      "channel": 2,
      "note": 52,
      "start": 10.1746,
      "duration": 0.016,
      "velocity": 93,
      "chip": "ym2612"
    },
    {
      "channel": 1,
      "note": 68,
      "start": 10.1759,
      "duration": 0.016,
      "velocity": 108,
      "chip": "ym2612"
    },
    {
      "channel": 0,
      "note": 77,
      "start": 10.186,
      "duration": 0.0161,
      "velocity": 124,
      "chip": "ym2612"
    },
    {
      "channel": 5,
      "note": 68,
      "start": 10.1873,
      "duration": 0.016,
      "velocity": 108,
      "chip": "ym2612"
    },
    {
      "channel": 4,
      "note": 80,
      "start": 10.1884,
      "duration": 0.016,
      "velocity": 98,
      "chip": "ym2612"
    },
    {
      "channel": 3,
      "note": 83,
      "start": 10.1895,
      "duration": 0.016,
      "velocity": 98,
      "chip": "ym2612"
    },
    {
      "channel": 2,
      "note": 52,
      "start": 10.1907,
      "duration": 0.016,
      "velocity": 93,
      "chip": "ym2612"
    },
    {
      "channel": 1,
      "note": 68,
      "start": 10.1919,
      "duration": 0.016,
      "velocity": 108,
      "chip": "ym2612"
    },
    {
      "channel": 0,
      "note": 75,
      "start": 10.2021,
      "duration": 0.0161,
      "velocity": 124,
      "chip": "ym2612"
    },
    {
      "channel": 5,
      "note": 68,
      "start": 10.2033,
      "duration": 0.0161,
      "velocity": 108,
      "chip": "ym2612"
    },
    {
      "channel": 4,
      "note": 80,
      "start": 10.2044,
      "duration": 0.0161,
      "velocity": 98,
      "chip": "ym2612"
    },
    {
      "channel": 3,
      "note": 83,
      "start": 10.2056,
      "duration": 0.0161,
      "velocity": 98,
      "chip": "ym2612"
    },
    {
      "channel": 2,
      "note": 52,
      "start": 10.2067,
      "duration": 0.0162,
      "velocity": 93,
      "chip": "ym2612"
    },
    {
      "channel": 1,
      "note": 68,
      "start": 10.2079,
      "duration": 0.0161,
      "velocity": 108,
      "chip": "ym2612"
    },
    {
      "channel": 0,
      "note": 72,
      "start": 10.2182,
      "duration": 0.0155,
      "velocity": 124,
      "chip": "ym2612"
    },
    {
      "channel": 5,
      "note": 68,
      "start": 10.2194,
      "duration": 0.0161,
      "velocity": 108,
      "chip": "ym2612"
    },
    {
      "channel": 4,
      "note": 80,
      "start": 10.2205,
      "duration": 0.0161,
      "velocity": 98,
      "chip": "ym2612"
    },
    {
      "channel": 3,
      "note": 83,
      "start": 10.2217,
      "duration": 0.0161,
      "velocity": 98,
      "chip": "ym2612"
    },
    {
      "channel": 2,
      "note": 52,
      "start": 10.2229,
      "duration": 0.0161,
      "velocity": 93,
      "chip": "ym2612"
    },
    {
      "channel": 1,
      "note": 68,
      "start": 10.224,
      "duration": 0.0161,
      "velocity": 108,
      "chip": "ym2612"
    },
    {
      "channel": 0,
      "note": 70,
      "start": 10.2337,
      "duration": 0.0161,
      "velocity": 124,
      "chip": "ym2612"
    },
    {
      "channel": 5,
      "note": 68,
      "start": 10.2355,
      "duration": 0.016,
      "velocity": 108,
      "chip": "ym2612"
    },
    {
      "channel": 4,
      "note": 80,
      "start": 10.2366,
      "duration": 0.0161,
      "velocity": 98,
      "chip": "ym2612"
    },
    {
      "channel": 3,
      "note": 83,
      "start": 10.2378,
      "duration": 0.0161,
      "velocity": 98,
      "chip": "ym2612"
    },
    {
      "channel": 2,
      "note": 52,
      "start": 10.239,
      "duration": 0.0161,
      "velocity": 93,
      "chip": "ym2612"
    },
    {
      "channel": 1,
      "note": 68,
      "start": 10.2401,
      "duration": 0.0161,
      "velocity": 108,
      "chip": "ym2612"
    },
    {
      "channel": 0,
      "note": 68,
      "start": 10.2498,
      "duration": 0.0161,
      "velocity": 124,
      "chip": "ym2612"
    },
    {
      "channel": 5,
      "note": 68,
      "start": 10.2515,
      "duration": 0.0156,
      "velocity": 108,
      "chip": "ym2612"
    },
    {
      "channel": 4,
      "note": 80,
      "start": 10.2527,
      "duration": 0.0161,
      "velocity": 98,
      "chip": "ym2612"
    },
    {
      "channel": 3,
      "note": 83,
      "start": 10.2539,
      "duration": 0.0161,
      "velocity": 98,
      "chip": "ym2612"
    },
    {
      "channel": 2,
      "note": 52,
      "start": 10.2551,
      "duration": 0.0161,
      "velocity": 93,
      "chip": "ym2612"
    },
    {
      "channel": 1,
      "note": 68,
      "start": 10.2562,
      "duration": 0.0161,
      "velocity": 108,
      "chip": "ym2612"
    },
    {
      "channel": 0,
      "note": 65,
      "start": 10.2659,
      "duration": 0.0162,
      "velocity": 124,
      "chip": "ym2612"
    },
    {
      "channel": 5,
      "note": 68,
      "start": 10.2671,
      "duration": 0.0161,
      "velocity": 108,
      "chip": "ym2612"
    },
    {
      "channel": 4,
      "note": 80,
      "start": 10.2688,
      "duration": 0.0162,
      "velocity": 98,
      "chip": "ym2612"
    },
    {
      "channel": 3,
      "note": 83,
      "start": 10.27,
      "duration": 0.0162,
      "velocity": 98,
      "chip": "ym2612"
    },
    {
      "channel": 2,
      "note": 52,
      "start": 10.2712,
      "duration": 0.0163,
      "velocity": 93,
      "chip": "ym2612"
    },
    {
      "channel": 1,
      "note": 68,
      "start": 10.2723,
      "duration": 0.0163,
      "velocity": 108,
      "chip": "ym2612"
    },
    {
      "channel": 0,
      "note": 63,
      "start": 10.282,
      "duration": 0.0153,
      "velocity": 1,
      "chip": "ym2612"
    },
    {
      "channel": 5,
      "note": 68,
      "start": 10.2832,
      "duration": 0.0153,
      "velocity": 108,
      "chip": "ym2612"
    },
    {
      "channel": 4,
      "note": 80,
      "start": 10.285,
      "duration": 0.0147,
      "velocity": 98,
      "chip": "ym2612"
    },
    {
      "channel": 3,
      "note": 83,
      "start": 10.2862,
      "duration": 0.0151,
      "velocity": 98,
      "chip": "ym2612"
    },
    {
      "channel": 2,
      "note": 52,
      "start": 10.2874,
      "duration": 0.0152,
      "velocity": 93,
      "chip": "ym2612"
    },
    {
      "channel": 1,
      "note": 68,
      "start": 10.2886,
      "duration": 0.0151,
      "velocity": 108,
      "chip": "ym2612"
    },
    {
      "channel": 5,
      "note": 68,
      "start": 10.2984,
      "duration": 0.0153,
      "velocity": 108,
      "chip": "ym2612"
    },
    {
      "channel": 4,
      "note": 80,
      "start": 10.2997,
      "duration": 0.0153,
      "velocity": 98,
      "chip": "ym2612"
    },
    {
      "channel": 3,
      "note": 83,
      "start": 10.3014,
      "duration": 0.0148,
      "velocity": 98,
      "chip": "ym2612"
    },
    {
      "channel": 2,
      "note": 52,
      "start": 10.3027,
      "duration": 0.0149,
      "velocity": 93,
      "chip": "ym2612"
    },
    {
      "channel": 1,
      "note": 68,
      "start": 10.3038,
      "duration": 0.0153,
      "velocity": 108,
      "chip": "ym2612"
    },
    {
      "channel": 5,
      "note": 68,
      "start": 10.3137,
      "duration": 0.0196,
      "velocity": 108,
      "chip": "ym2612"
    },
    {
      "channel": 4,
      "note": 80,
      "start": 10.3149,
      "duration": 0.0201,
      "velocity": 98,
      "chip": "ym2612"
    },
    {
      "channel": 3,
      "note": 83,
      "start": 10.3161,
      "duration": 0.0201,
      "velocity": 98,
      "chip": "ym2612"
    },
    {
      "channel": 2,
      "note": 52,
      "start": 10.3175,
      "duration": 0.0198,
      "velocity": 93,
      "chip": "ym2612"
    },
    {
      "channel": 0,
      "note": 36,
      "start": 10.3322,
      "duration": 0.0143,
      "velocity": 115,
      "chip": "ym2612"
    },
    {
      "channel": 5,
      "note": 68,
      "start": 10.3333,
      "duration": 0.0143,
      "velocity": 108,
      "chip": "ym2612"
    },
    {
      "channel": 4,
      "note": 80,
      "start": 10.335,
      "duration": 0.0138,
      "velocity": 98,
      "chip": "ym2612"
    },
    {
      "channel": 3,
      "note": 83,
      "start": 10.3362,
      "duration": 0.0137,
      "velocity": 98,
      "chip": "ym2612"
    },
    {
      "channel": 2,
      "note": 52,
      "start": 10.3374,
      "duration": 0.0143,
      "velocity": 93,
      "chip": "ym2612"
    },
    {
      "channel": 1,
      "note": 71,
      "start": 10.3389,
      "duration": 0.0141,
      "velocity": 108,
      "chip": "ym2612"
    },
    {
      "channel": 0,
      "note": 36,
      "start": 10.3465,
      "duration": 0.016,
      "velocity": 115,
      "chip": "ym2612"
    },
    {
      "channel": 4,
      "note": 80,
      "start": 10.3488,
      "duration": 0.0163,
      "velocity": 98,
      "chip": "ym2612"
    },
    {
      "channel": 3,
      "note": 83,
      "start": 10.35,
      "duration": 0.0163,
      "velocity": 98,
      "chip": "ym2612"
    },
    {
      "channel": 2,
      "note": 52,
      "start": 10.3516,
      "duration": 0.0161,
      "velocity": 93,
      "chip": "ym2612"
    },
    {
      "channel": 1,
      "note": 71,
      "start": 10.353,
      "duration": 0.0163,
      "velocity": 108,
      "chip": "ym2612"
    },
    {
      "channel": 0,
      "note": 37,
      "start": 10.3625,
      "duration": 0.0161,
      "velocity": 115,
      "chip": "ym2612"
    },
    {
      "channel": 5,
      "note": 71,
      "start": 10.364,
      "duration": 0.0158,
      "velocity": 108,
      "chip": "ym2612"
    },
    {
      "channel": 4,
      "note": 80,
      "start": 10.3652,
      "duration": 0.0159,
      "velocity": 98,
      "chip": "ym2612"
    },
    {
      "channel": 3,
      "note": 83,
      "start": 10.3663,
      "duration": 0.0158,
      "velocity": 98,
      "chip": "ym2612"
    },
    {
      "channel": 2,
      "note": 52,
      "start": 10.3677,
      "duration": 0.0156,
      "velocity": 93,
      "chip": "ym2612"
    },
    {
      "channel": 1,
      "note": 71,
      "start": 10.3693,
      "duration": 0.0158,
      "velocity": 108,
      "chip": "ym2612"
    },
    {
      "channel": 0,
      "note": 37,
      "start": 10.3786,
      "duration": 0.0161,
      "velocity": 115,
      "chip": "ym2612"
    },
    {
      "channel": 5,
      "note": 71,
      "start": 10.3799,
      "duration": 0.016,
      "velocity": 108,
      "chip": "ym2612"
    },
    {
      "channel": 4,
      "note": 80,
      "start": 10.381,
      "duration": 0.0161,
      "velocity": 98,
      "chip": "ym2612"
    },
    {
      "channel": 3,
      "note": 83,
      "start": 10.3822,
      "duration": 0.0162,
      "velocity": 98,
      "chip": "ym2612"
    },
    {
      "channel": 2,
      "note": 52,
      "start": 10.3833,
      "duration": 0.0162,
      "velocity": 93,
      "chip": "ym2612"
    },
    {
      "channel": 1,
      "note": 71,
      "start": 10.385,
      "duration": 0.0159,
      "velocity": 108,
      "chip": "ym2612"
    },
    {
      "channel": 0,
      "note": 38,
      "start": 10.3947,
      "duration": 0.0161,
      "velocity": 115,
      "chip": "ym2612"
    },
    {
      "channel": 5,
      "note": 71,
      "start": 10.3959,
      "duration": 0.0161,
      "velocity": 108,
      "chip": "ym2612"
    },
    {
      "channel": 4,
      "note": 80,
      "start": 10.3971,
      "duration": 0.0161,
      "velocity": 98,
      "chip": "ym2612"
    },
    {
      "channel": 3,
      "note": 83,
      "start": 10.3983,
      "duration": 0.0161,
      "velocity": 98,
      "chip": "ym2612"
    },
    {
      "channel": 2,
      "note": 52,
      "start": 10.3995,
      "duration": 0.0162,
      "velocity": 93,
      "chip": "ym2612"
    },
    {
      "channel": 1,
      "note": 71,
      "start": 10.4009,
      "duration": 0.016,
      "velocity": 108,
      "chip": "ym2612"
    },
    {
      "channel": 0,
      "note": 38,
      "start": 10.4108,
      "duration": 0.0161,
      "velocity": 115,
      "chip": "ym2612"
    },
    {
      "channel": 5,
      "note": 71,
      "start": 10.412,
      "duration": 0.0161,
      "velocity": 108,
      "chip": "ym2612"
    },
    {
      "channel": 2,
      "note": 52,
      "start": 10.4157,
      "duration": 0.0169,
      "velocity": 93,
      "chip": "ym2612"
    },
    {
      "channel": 1,
      "note": 71,
      "start": 10.4169,
      "duration": 0.017,
      "velocity": 108,
      "chip": "ym2612"
    },
    {
      "channel": 0,
      "note": 39,
      "start": 10.4269,
      "duration": 0.0161,
      "velocity": 115,
      "chip": "ym2612"
    },
    {
      "channel": 5,
      "note": 71,
      "start": 10.4281,
      "duration": 0.0161,
      "velocity": 108,
      "chip": "ym2612"
    },
    {
      "channel": 4,
      "note": 80,
      "start": 10.4296,
      "duration": 0.0158,
      "velocity": 98,
      "chip": "ym2612"
    },
    {
      "channel": 3,
      "note": 83,
      "start": 10.4311,
      "duration": 0.0155,
      "velocity": 98,
      "chip": "ym2612"
    },
    {
      "channel": 2,
      "note": 52,
      "start": 10.4326,
      "duration": 0.0152,
      "velocity": 93,
      "chip": "ym2612"
    },
    {
      "channel": 1,
      "note": 71,
      "start": 10.4339,
      "duration": 0.0151,
      "velocity": 108,
      "chip": "ym2612"
    },
    {
      "channel": 0,
      "note": 39,
      "start": 10.443,
      "duration": 0.0161,
      "velocity": 115,
      "chip": "ym2612"
    },
    {
      "channel": 5,
      "note": 71,
      "start": 10.4442,
      "duration": 0.0162,
      "velocity": 108,
      "chip": "ym2612"
    },
    {
      "channel": 4,
      "note": 80,
      "start": 10.4454,
      "duration": 0.0161,
      "velocity": 98,
      "chip": "ym2612"
    },
    {
      "channel": 3,
      "note": 83,
      "start": 10.4466,
      "duration": 0.0161,
      "velocity": 98,
      "chip": "ym2612"
    },
    {
      "channel": 2,
      "note": 52,
      "start": 10.4478,
      "duration": 0.016,
      "velocity": 93,
      "chip": "ym2612"
    },
    {
      "channel": 1,
      "note": 71,
      "start": 10.449,
      "duration": 0.016,
      "velocity": 108,
      "chip": "ym2612"
    },
    {
      "channel": 0,
      "note": 40,
      "start": 10.4591,
      "duration": 0.0161,
      "velocity": 115,
      "chip": "ym2612"
    },
    {
      "channel": 5,
      "note": 71,
      "start": 10.4603,
      "duration": 0.0161,
      "velocity": 108,
      "chip": "ym2612"
    },
    {
      "channel": 4,
      "note": 80,
      "start": 10.4615,
      "duration": 0.0161,
      "velocity": 98,
      "chip": "ym2612"
    },
    {
      "channel": 3,
      "note": 83,
      "start": 10.4627,
      "duration": 0.016,
      "velocity": 98,
      "chip": "ym2612"
    },
    {
      "channel": 2,
      "note": 52,
      "start": 10.4638,
      "duration": 0.0161,
      "velocity": 93,
      "chip": "ym2612"
    },
    {
      "channel": 1,
      "note": 71,
      "start": 10.4651,
      "duration": 0.016,
      "velocity": 108,
      "chip": "ym2612"
    },
    {
      "channel": 0,
      "note": 40,
      "start": 10.4752,
      "duration": 0.0161,
      "velocity": 115,
      "chip": "ym2612"
    },
    {
      "channel": 5,
      "note": 71,
      "start": 10.4764,
      "duration": 0.016,
      "velocity": 108,
      "chip": "ym2612"
    },
    {
      "channel": 4,
      "note": 80,
      "start": 10.4776,
      "duration": 0.016,
      "velocity": 98,
      "chip": "ym2612"
    },
    {
      "channel": 3,
      "note": 83,
      "start": 10.4787,
      "duration": 0.0161,
      "velocity": 98,
      "chip": "ym2612"
    },
    {
      "channel": 2,
      "note": 52,
      "start": 10.4799,
      "duration": 0.016,
      "velocity": 93,
      "chip": "ym2612"
    },
    {
      "channel": 1,
      "note": 71,
      "start": 10.4811,
      "duration": 0.016,
      "velocity": 108,
      "chip": "ym2612"
    },
    {
      "channel": 0,
      "note": 40,
      "start": 10.4913,
      "duration": 0.0161,
      "velocity": 115,
      "chip": "ym2612"
    },
    {
      "channel": 5,
      "note": 71,
      "start": 10.4925,
      "duration": 0.0161,
      "velocity": 108,
      "chip": "ym2612"
    },
    {
      "channel": 4,
      "note": 80,
      "start": 10.4936,
      "duration": 0.0162,
      "velocity": 98,
      "chip": "ym2612"
    },
    {
      "channel": 3,
      "note": 83,
      "start": 10.4948,
      "duration": 0.0161,
      "velocity": 98,
      "chip": "ym2612"
    },
    {
      "channel": 2,
      "note": 52,
      "start": 10.496,
      "duration": 0.0161,
      "velocity": 93,
      "chip": "ym2612"
    },
    {
      "channel": 1,
      "note": 71,
      "start": 10.4971,
      "duration": 0.0161,
      "velocity": 108,
      "chip": "ym2612"
    },
    {
      "channel": 0,
      "note": 41,
      "start": 10.5074,
      "duration": 0.0161,
      "velocity": 115,
      "chip": "ym2612"
    },
    {
      "channel": 5,
      "note": 71,
      "start": 10.5086,
      "duration": 0.0161,
      "velocity": 108,
      "chip": "ym2612"
    },
    {
      "channel": 4,
      "note": 80,
      "start": 10.5098,
      "duration": 0.0161,
      "velocity": 98,
      "chip": "ym2612"
    },
    {
      "channel": 3,
      "note": 83,
      "start": 10.5109,
      "duration": 0.0161,
      "velocity": 98,
      "chip": "ym2612"
    },
    {
      "channel": 2,
      "note": 52,
      "start": 10.5121,
      "duration": 0.0161,
      "velocity": 93,
      "chip": "ym2612"
    },
    {
      "channel": 0,
      "note": 41,
      "start": 10.5235,
      "duration": 0.0161,
      "velocity": 115,
      "chip": "ym2612"
    },
    {
      "channel": 5,
      "note": 71,
      "start": 10.5247,
      "duration": 0.0161,
      "velocity": 108,
      "chip": "ym2612"
    },
    {
      "channel": 4,
      "note": 80,
      "start": 10.5259,
      "duration": 0.0161,
      "velocity": 98,
      "chip": "ym2612"
    },
    {
      "channel": 3,
      "note": 83,
      "start": 10.527,
      "duration": 0.0161,
      "velocity": 98,
      "chip": "ym2612"
    },
    {
      "channel": 2,
      "note": 52,
      "start": 10.5281,
      "duration": 0.0161,
      "velocity": 93,
      "chip": "ym2612"
    },
    {
      "channel": 0,
      "note": 42,
      "start": 10.5396,
      "duration": 0.0161,
      "velocity": 115,
      "chip": "ym2612"
    },
    {
      "channel": 4,
      "note": 80,
      "start": 10.542,
      "duration": 0.0162,
      "velocity": 98,
      "chip": "ym2612"
    },
    {
      "channel": 3,
      "note": 83,
      "start": 10.5431,
      "duration": 0.0163,
      "velocity": 98,
      "chip": "ym2612"
    },
    {
      "channel": 2,
      "note": 52,
      "start": 10.5442,
      "duration": 0.0163,
      "velocity": 93,
      "chip": "ym2612"
    },
    {
      "channel": 0,
      "note": 42,
      "start": 10.5557,
      "duration": 0.0161,
      "velocity": 115,
      "chip": "ym2612"
    },
    {
      "channel": 4,
      "note": 80,
      "start": 10.5582,
      "duration": 0.0161,
      "velocity": 98,
      "chip": "ym2612"
    },
    {
      "channel": 3,
      "note": 83,
      "start": 10.5594,
      "duration": 0.0161,
      "velocity": 98,
      "chip": "ym2612"
    },
    {
      "channel": 2,
      "note": 52,
      "start": 10.5605,
      "duration": 0.0162,
      "velocity": 93,
      "chip": "ym2612"
    },
    {
      "channel": 0,
      "note": 43,
      "start": 10.5718,
      "duration": 0.0162,
      "velocity": 115,
      "chip": "ym2612"
    },
    {
      "channel": 4,
      "note": 80,
      "start": 10.5743,
      "duration": 0.016,
      "velocity": 98,
      "chip": "ym2612"
    },
    {
      "channel": 3,
      "note": 83,
      "start": 10.5755,
      "duration": 0.016,
      "velocity": 98,
      "chip": "ym2612"
    },
    {
      "channel": 2,
      "note": 52,
      "start": 10.5768,
      "duration": 0.016,
      "velocity": 93,
      "chip": "ym2612"
    },
    {
      "channel": 0,
      "note": 43,
      "start": 10.588,
      "duration": 0.0161,
      "velocity": 115,
      "chip": "ym2612"
    },
    {
      "channel": 4,
      "note": 80,
      "start": 10.5904,
      "duration": 0.0162,
      "velocity": 98,
      "chip": "ym2612"
    },
    {
      "channel": 3,
      "note": 83,
      "start": 10.5916,
      "duration": 0.0162,
      "velocity": 98,
      "chip": "ym2612"
    },
    {
      "channel": 2,
      "note": 52,
      "start": 10.5928,
      "duration": 0.0162,
      "velocity": 93,
      "chip": "ym2612"
    },
    {
      "channel": 0,
      "note": 44,
      "start": 10.6041,
      "duration": 0.0179,
      "velocity": 115,
      "chip": "ym2612"
    },
    {
      "channel": 4,
      "note": 80,
      "start": 10.6066,
      "duration": 0.0178,
      "velocity": 98,
      "chip": "ym2612"
    },
    {
      "channel": 3,
      "note": 83,
      "start": 10.6078,
      "duration": 0.0178,
      "velocity": 98,
      "chip": "ym2612"
    },
    {
      "channel": 2,
      "note": 52,
      "start": 10.609,
      "duration": 0.0178,
      "velocity": 93,
      "chip": "ym2612"
    },
    {
      "channel": 0,
      "note": 36,
      "start": 10.622,
      "duration": 0.0146,
      "velocity": 115,
      "chip": "ym2612"
    },
    {
      "channel": 4,
      "note": 80,
      "start": 10.6244,
      "duration": 0.0147,
      "velocity": 98,
      "chip": "ym2612"
    },
    {
      "channel": 3,
      "note": 83,
      "start": 10.6256,
      "duration": 0.0146,
      "velocity": 98,
      "chip": "ym2612"
    },
    {
      "channel": 2,
      "note": 52,
      "start": 10.6268,
      "duration": 0.0146,
      "velocity": 93,
      "chip": "ym2612"
    },
    {
      "channel": 0,
      "note": 36,
      "start": 10.6367,
      "duration": 0.0162,
      "velocity": 115,
      "chip": "ym2612"
    },
    {
      "channel": 4,
      "note": 80,
      "start": 10.6391,
      "duration": 0.0162,
      "velocity": 98,
      "chip": "ym2612"
    },
    {
      "channel": 3,
      "note": 83,
      "start": 10.6402,
      "duration": 0.0162,
      "velocity": 98,
      "chip": "ym2612"
    },
    {
      "channel": 2,
      "note": 52,
      "start": 10.6414,
      "duration": 0.0162,
      "velocity": 93,
      "chip": "ym2612"
    },
    {
      "channel": 0,
      "note": 37,
      "start": 10.6529,
      "duration": 0.0161,
      "velocity": 115,
      "chip": "ym2612"
    },
    {
      "channel": 4,
      "note": 80,
      "start": 10.6553,
      "duration": 0.0161,
      "velocity": 98,
      "chip": "ym2612"
    },
    {
      "channel": 3,
      "note": 83,
      "start": 10.6565,
      "duration": 0.0161,
      "velocity": 98,
      "chip": "ym2612"
    },
    {
      "channel": 2,
      "note": 52,
      "start": 10.6576,
      "duration": 0.0162,
      "velocity": 93,
      "chip": "ym2612"
    },
    {
      "channel": 0,
      "note": 37,
      "start": 10.669,
      "duration": 0.016,
      "velocity": 115,
      "chip": "ym2612"
    },
    {
      "channel": 4,
      "note": 80,
      "start": 10.6714,
      "duration": 0.0162,
      "velocity": 98,
      "chip": "ym2612"
    },
    {
      "channel": 3,
      "note": 83,
      "start": 10.6726,
      "duration": 0.0162,
      "velocity": 98,
      "chip": "ym2612"
    },
    {
      "channel": 2,
      "note": 52,
      "start": 10.6738,
      "duration": 0.0163,
      "velocity": 93,
      "chip": "ym2612"
    },
    {
      "channel": 0,
      "note": 38,
      "start": 10.6851,
      "duration": 0.0158,
      "velocity": 115,
      "chip": "ym2612"
    },
    {
      "channel": 4,
      "note": 80,
      "start": 10.6876,
      "duration": 0.0161,
      "velocity": 98,
      "chip": "ym2612"
    },
    {
      "channel": 3,
      "note": 83,
      "start": 10.6888,
      "duration": 0.0161,
      "velocity": 98,
      "chip": "ym2612"
    },
    {
      "channel": 2,
      "note": 52,
      "start": 10.69,
      "duration": 0.0162,
      "velocity": 93,
      "chip": "ym2612"
    },
    {
      "channel": 0,
      "note": 38,
      "start": 10.7009,
      "duration": 0.0183,
      "velocity": 124,
      "chip": "ym2612"
    },
    {
      "channel": 2,
      "note": 52,
      "start": 10.7062,
      "duration": 0.0186,
      "velocity": 93,
      "chip": "ym2612"
    },
    {
      "channel": 0,
      "note": 84,
      "start": 10.7192,
      "duration": 0.0137,
      "velocity": 124,
      "chip": "ym2612"
    },
    {
      "channel": 4,
      "note": 80,
      "start": 10.7219,
      "duration": 0.0141,
      "velocity": 98,
      "chip": "ym2612"
    },
    {
      "channel": 3,
      "note": 83,
      "start": 10.7233,
      "duration": 0.0139,
      "velocity": 98,
      "chip": "ym2612"
    },
    {
      "channel": 2,
      "note": 52,
      "start": 10.7249,
      "duration": 0.0135,
      "velocity": 93,
      "chip": "ym2612"
    },
    {
      "channel": 0,
      "note": 82,
      "start": 10.7329,
      "duration": 0.016,
      "velocity": 124,
      "chip": "ym2612"
    },
    {
      "channel": 4,
      "note": 80,
      "start": 10.736,
      "duration": 0.0159,
      "velocity": 98,
      "chip": "ym2612"
    },
    {
      "channel": 3,
      "note": 83,
      "start": 10.7372,
      "duration": 0.0159,
      "velocity": 98,
      "chip": "ym2612"
    },
    {
      "channel": 2,
      "note": 52,
      "start": 10.7384,
      "duration": 0.0159,
      "velocity": 93,
      "chip": "ym2612"
    },
    {
      "channel": 0,
      "note": 80,
      "start": 10.749,
      "duration": 0.0161,
      "velocity": 124,
      "chip": "ym2612"
    },
    {
      "channel": 4,
      "note": 80,
      "start": 10.7519,
      "duration": 0.0158,
      "velocity": 98,
      "chip": "ym2612"
    },
    {
      "channel": 3,
      "note": 83,
      "start": 10.7531,
      "duration": 0.0161,
      "velocity": 98,
      "chip": "ym2612"
    },
    {
      "channel": 2,
      "note": 52,
      "start": 10.7542,
      "duration": 0.0161,
      "velocity": 93,
      "chip": "ym2612"
    },
    {
      "channel": 0,
      "note": 77,
      "start": 10.7651,
      "duration": 0.0161,
      "velocity": 124,
      "chip": "ym2612"
    },
    {
      "channel": 4,
      "note": 80,
      "start": 10.7677,
      "duration": 0.0159,
      "velocity": 98,
      "chip": "ym2612"
    },
    {
      "channel": 3,
      "note": 83,
      "start": 10.7692,
      "duration": 0.016,
      "velocity": 98,
      "chip": "ym2612"
    },
    {
      "channel": 2,
      "note": 52,
      "start": 10.7704,
      "duration": 0.0161,
      "velocity": 93,
      "chip": "ym2612"
    },
    {
      "channel": 0,
      "note": 75,
      "start": 10.7811,
      "duration": 0.0161,
      "velocity": 124,
      "chip": "ym2612"
    },
    {
      "channel": 4,
      "note": 80,
      "start": 10.7836,
      "duration": 0.0161,
      "velocity": 98,
      "chip": "ym2612"
    },
    {
      "channel": 3,
      "note": 83,
      "start": 10.7852,
      "duration": 0.0158,
      "velocity": 98,
      "chip": "ym2612"
    },
    {
      "channel": 2,
      "note": 52,
      "start": 10.7865,
      "duration": 0.016,
      "velocity": 93,
      "chip": "ym2612"
    },
    {
      "channel": 0,
      "note": 72,
      "start": 10.7972,
      "duration": 0.0161,
      "velocity": 124,
      "chip": "ym2612"
    },
    {
      "channel": 4,
      "note": 80,
      "start": 10.7997,
      "duration": 0.0161,
      "velocity": 98,
      "chip": "ym2612"
    },
    {
      "channel": 3,
      "note": 83,
      "start": 10.801,
      "duration": 0.0159,
      "velocity": 98,
      "chip": "ym2612"
    },
    {
      "channel": 2,
      "note": 52,
      "start": 10.8025,
      "duration": 0.0161,
      "velocity": 93,
      "chip": "ym2612"
    },
    {
      "channel": 0,
      "note": 70,
      "start": 10.8133,
      "duration": 0.0161,
      "velocity": 124,
      "chip": "ym2612"
    },
    {
      "channel": 4,
      "note": 80,
      "start": 10.8157,
      "duration": 0.0161,
      "velocity": 98,
      "chip": "ym2612"
    },
    {
      "channel": 3,
      "note": 83,
      "start": 10.8169,
      "duration": 0.0161,
      "velocity": 98,
      "chip": "ym2612"
    },
    {
      "channel": 2,
      "note": 52,
      "start": 10.8186,
      "duration": 0.0158,
      "velocity": 93,
      "chip": "ym2612"
    },
    {
      "channel": 0,
      "note": 68,
      "start": 10.8294,
      "duration": 0.0161,
      "velocity": 124,
      "chip": "ym2612"
    },
    {
      "channel": 4,
      "note": 80,
      "start": 10.8318,
      "duration": 0.0161,
      "velocity": 98,
      "chip": "ym2612"
    },
    {
      "channel": 3,
      "note": 83,
      "start": 10.833,
      "duration": 0.0161,
      "velocity": 98,
      "chip": "ym2612"
    },
    {
      "channel": 2,
      "note": 52,
      "start": 10.8344,
      "duration": 0.0159,
      "velocity": 93,
      "chip": "ym2612"
    },
    {
      "channel": 0,
      "note": 65,
      "start": 10.8455,
      "duration": 0.0161,
      "velocity": 124,
      "chip": "ym2612"
    },
    {
      "channel": 4,
      "note": 80,
      "start": 10.8479,
      "duration": 0.0162,
      "velocity": 98,
      "chip": "ym2612"
    },
    {
      "channel": 3,
      "note": 83,
      "start": 10.8491,
      "duration": 0.0163,
      "velocity": 98,
      "chip": "ym2612"
    },
    {
      "channel": 2,
      "note": 52,
      "start": 10.8502,
      "duration": 0.0163,
      "velocity": 93,
      "chip": "ym2612"
    },
    {
      "channel": 0,
      "note": 63,
      "start": 10.8616,
      "duration": 0.0153,
      "velocity": 1,
      "chip": "ym2612"
    },
    {
      "channel": 4,
      "note": 80,
      "start": 10.8641,
      "duration": 0.0153,
      "velocity": 98,
      "chip": "ym2612"
    },
    {
      "channel": 3,
      "note": 83,
      "start": 10.8654,
      "duration": 0.0152,
      "velocity": 98,
      "chip": "ym2612"
    },
    {
      "channel": 2,
      "note": 52,
      "start": 10.8666,
      "duration": 0.0152,
      "velocity": 93,
      "chip": "ym2612"
    },
    {
      "channel": 4,
      "note": 80,
      "start": 10.8794,
      "duration": 0.0153,
      "velocity": 98,
      "chip": "ym2612"
    },
    {
      "channel": 3,
      "note": 83,
      "start": 10.8806,
      "duration": 0.0153,
      "velocity": 98,
      "chip": "ym2612"
    },
    {
      "channel": 2,
      "note": 52,
      "start": 10.8818,
      "duration": 0.0153,
      "velocity": 93,
      "chip": "ym2612"
    },
    {
      "channel": 4,
      "note": 80,
      "start": 10.8946,
      "duration": 0.016,
      "velocity": 98,
      "chip": "ym2612"
    },
    {
      "channel": 3,
      "note": 83,
      "start": 10.8958,
      "duration": 0.016,
      "velocity": 98,
      "chip": "ym2612"
    },
    {
      "channel": 2,
      "note": 52,
      "start": 10.8971,
      "duration": 0.0159,
      "velocity": 93,
      "chip": "ym2612"
    },
    {
      "channel": 4,
      "note": 80,
      "start": 10.9107,
      "duration": 0.0162,
      "velocity": 98,
      "chip": "ym2612"
    },
    {
      "channel": 3,
      "note": 83,
      "start": 10.9118,
      "duration": 0.0161,
      "velocity": 98,
      "chip": "ym2612"
    },
    {
      "channel": 2,
      "note": 52,
      "start": 10.9129,
      "duration": 0.0162,
      "velocity": 93,
      "chip": "ym2612"
    },
    {
      "channel": 1,
      "note": 71,
      "start": 10.9145,
      "duration": 0.0159,
      "velocity": 108,
      "chip": "ym2612"
    },
    {
      "channel": 4,
      "note": 80,
      "start": 10.9268,
      "duration": 0.0163,
      "velocity": 98,
      "chip": "ym2612"
    },
    {
      "channel": 3,
      "note": 83,
      "start": 10.928,
      "duration": 0.0163,
      "velocity": 98,
      "chip": "ym2612"
    },
    {
      "channel": 2,
      "note": 52,
      "start": 10.9291,
      "duration": 0.0163,
      "velocity": 93,
      "chip": "ym2612"
    },
    {
      "channel": 1,
      "note": 71,
      "start": 10.9303,
      "duration": 0.0163,
      "velocity": 108,
      "chip": "ym2612"
    },
    {
      "channel": 5,
      "note": 71,
      "start": 10.942,
      "duration": 0.0159,
      "velocity": 108,
      "chip": "ym2612"
    },
    {
      "channel": 4,
      "note": 80,
      "start": 10.9432,
      "duration": 0.0158,
      "velocity": 98,
      "chip": "ym2612"
    },
    {
      "channel": 3,
      "note": 83,
      "start": 10.9443,
      "duration": 0.0158,
      "velocity": 98,
      "chip": "ym2612"
    },
    {
      "channel": 2,
      "note": 52,
      "start": 10.9455,
      "duration": 0.0158,
      "velocity": 93,
      "chip": "ym2612"
    },
    {
      "channel": 1,
      "note": 71,
      "start": 10.9466,
      "duration": 0.0159,
      "velocity": 108,
      "chip": "ym2612"
    },
    {
      "channel": 5,
      "note": 71,
      "start": 10.9578,
      "duration": 0.016,
      "velocity": 108,
      "chip": "ym2612"
    },
    {
      "channel": 4,
      "note": 80,
      "start": 10.9589,
      "duration": 0.0161,
      "velocity": 98,
      "chip": "ym2612"
    },
    {
      "channel": 3,
      "note": 83,
      "start": 10.9601,
      "duration": 0.0161,
      "velocity": 98,
      "chip": "ym2612"
    },
    {
      "channel": 2,
      "note": 52,
      "start": 10.9613,
      "duration": 0.0162,
      "velocity": 93,
      "chip": "ym2612"
    },
    {
      "channel": 1,
      "note": 71,
      "start": 10.9624,
      "duration": 0.0162,
      "velocity": 108,
      "chip": "ym2612"
    },
    {
      "channel": 5,
      "note": 71,
      "start": 10.9738,
      "duration": 0.0161,
      "velocity": 108,
      "chip": "ym2612"
    },
    {
      "channel": 4,
      "note": 80,
      "start": 10.975,
      "duration": 0.0162,
      "velocity": 98,
      "chip": "ym2612"
    },
    {
      "channel": 3,
      "note": 83,
      "start": 10.9762,
      "duration": 0.0162,
      "velocity": 98,
      "chip": "ym2612"
    },
    {
      "channel": 2,
      "note": 52,
      "start": 10.9775,
      "duration": 0.0162,
      "velocity": 93,
      "chip": "ym2612"
    },
    {
      "channel": 1,
      "note": 71,
      "start": 10.9787,
      "duration": 0.0162,
      "velocity": 108,
      "chip": "ym2612"
    },
    {
      "channel": 5,
      "note": 71,
      "start": 10.9899,
      "duration": 0.0197,
      "velocity": 108,
      "chip": "ym2612"
    },
    {
      "channel": 2,
      "note": 52,
      "start": 10.9937,
      "duration": 0.0204,
      "velocity": 93,
      "chip": "ym2612"
    },
    {
      "channel": 0,
      "note": 36,
      "start": 11.0084,
      "duration": 0.0143,
      "velocity": 115,
      "chip": "ym2612"
    },
    {
      "channel": 5,
      "note": 71,
      "start": 11.0096,
      "duration": 0.0143,
      "velocity": 108,
      "chip": "ym2612"
    },
    {
      "channel": 4,
      "note": 80,
      "start": 11.0111,
      "duration": 0.014,
      "velocity": 98,
      "chip": "ym2612"
    },
    {
      "channel": 3,
      "note": 83,
      "start": 11.0126,
      "duration": 0.0137,
      "velocity": 98,
      "chip": "ym2612"
    },
    {
      "channel": 2,
      "note": 52,
      "start": 11.0141,
      "duration": 0.0134,
      "velocity": 93,
      "chip": "ym2612"
    },
    {
      "channel": 1,
      "note": 73,
      "start": 11.0157,
      "duration": 0.0131,
      "velocity": 108,
      "chip": "ym2612"
    },
    {
      "channel": 0,
      "note": 36,
      "start": 11.0227,
      "duration": 0.016,
      "velocity": 115,
      "chip": "ym2612"
    },
    {
      "channel": 4,
      "note": 80,
      "start": 11.0251,
      "duration": 0.0163,
      "velocity": 98,
      "chip": "ym2612"
    },
    {
      "channel": 3,
      "note": 83,
      "start": 11.0264,
      "duration": 0.0162,
      "velocity": 98,
      "chip": "ym2612"
    },
    {
      "channel": 2,
      "note": 52,
      "start": 11.0276,
      "duration": 0.0162,
      "velocity": 93,
      "chip": "ym2612"
    },
    {
      "channel": 1,
      "note": 73,
      "start": 11.0288,
      "duration": 0.0161,
      "velocity": 108,
      "chip": "ym2612"
    },
    {
      "channel": 0,
      "note": 37,
      "start": 11.0388,
      "duration": 0.0161,
      "velocity": 115,
      "chip": "ym2612"
    },
    {
      "channel": 5,
      "note": 73,
      "start": 11.0403,
      "duration": 0.0158,
      "velocity": 108,
      "chip": "ym2612"
    },
    {
      "channel": 4,
      "note": 80,
      "start": 11.0415,
      "duration": 0.0158,
      "velocity": 98,
      "chip": "ym2612"
    },
    {
      "channel": 3,
      "note": 83,
      "start": 11.0426,
      "duration": 0.0158,
      "velocity": 98,
      "chip": "ym2612"
    },
    {
      "channel": 2,
      "note": 52,
      "start": 11.0437,
      "duration": 0.0158,
      "velocity": 93,
      "chip": "ym2612"
    },
    {
      "channel": 1,
      "note": 73,
      "start": 11.0449,
      "duration": 0.0159,
      "velocity": 108,
      "chip": "ym2612"
    },
    {
      "channel": 0,
      "note": 37,
      "start": 11.0549,
      "duration": 0.0161,
      "velocity": 115,
      "chip": "ym2612"
    },
    {
      "channel": 5,
      "note": 73,
      "start": 11.0561,
      "duration": 0.016,
      "velocity": 108,
      "chip": "ym2612"
    },
    {
      "channel": 4,
      "note": 80,
      "start": 11.0572,
      "duration": 0.016,
      "velocity": 98,
      "chip": "ym2612"
    },
    {
      "channel": 3,
      "note": 83,
      "start": 11.0584,
      "duration": 0.016,
      "velocity": 98,
      "chip": "ym2612"
    },
    {
      "channel": 2,
      "note": 52,
      "start": 11.0596,
      "duration": 0.016,
      "velocity": 93,
      "chip": "ym2612"
    },
    {
      "channel": 1,
      "note": 73,
      "start": 11.0607,
      "duration": 0.016,
      "velocity": 108,
      "chip": "ym2612"
    },
    {
      "channel": 0,
      "note": 38,
      "start": 11.071,
      "duration": 0.0162,
      "velocity": 115,
      "chip": "ym2612"
    },
    {
      "channel": 5,
      "note": 73,
      "start": 11.0721,
      "duration": 0.0162,
      "velocity": 108,
      "chip": "ym2612"
    },
    {
      "channel": 4,
      "note": 80,
      "start": 11.0732,
      "duration": 0.0162,
      "velocity": 98,
      "chip": "ym2612"
    },
    {
      "channel": 3,
      "note": 83,
      "start": 11.0744,
      "duration": 0.0162,
      "velocity": 98,
      "chip": "ym2612"
    },
    {
      "channel": 2,
      "note": 52,
      "start": 11.0756,
      "duration": 0.0162,
      "velocity": 93,
      "chip": "ym2612"
    },
    {
      "channel": 1,
      "note": 73,
      "start": 11.0768,
      "duration": 0.0161,
      "velocity": 108,
      "chip": "ym2612"
    },
    {
      "channel": 0,
      "note": 38,
      "start": 11.0871,
      "duration": 0.0164,
      "velocity": 115,
      "chip": "ym2612"
    },
    {
      "channel": 5,
      "note": 73,
      "start": 11.0883,
      "duration": 0.0164,
      "velocity": 108,
      "chip": "ym2612"
    },
    {
      "channel": 4,
      "note": 80,
      "start": 11.0894,
      "duration": 0.0164,
      "velocity": 98,
      "chip": "ym2612"
    },
    {
      "channel": 3,
      "note": 83,
      "start": 11.0906,
      "duration": 0.0163,
      "velocity": 98,
      "chip": "ym2612"
    },
    {
      "channel": 2,
      "note": 52,
      "start": 11.0918,
      "duration": 0.0163,
      "velocity": 93,
      "chip": "ym2612"
    },
    {
      "channel": 1,
      "note": 73,
      "start": 11.0929,
      "duration": 0.0164,
      "velocity": 108,
      "chip": "ym2612"
    },
    {
      "channel": 0,
      "note": 39,
      "start": 11.1035,
      "duration": 0.0163,
      "velocity": 115,
      "chip": "ym2612"
    },
    {
      "channel": 5,
      "note": 73,
      "start": 11.1047,
      "duration": 0.0163,
      "velocity": 108,
      "chip": "ym2612"
    },
    {
      "channel": 4,
      "note": 80,
      "start": 11.1058,
      "duration": 0.0163,
      "velocity": 98,
      "chip": "ym2612"
    },
    {
      "channel": 3,
      "note": 83,
      "start": 11.107,
      "duration": 0.0163,
      "velocity": 98,
      "chip": "ym2612"
    },
    {
      "channel": 2,
      "note": 52,
      "start": 11.1081,
      "duration": 0.0163,
      "velocity": 93,
      "chip": "ym2612"
    },
    {
      "channel": 1,
      "note": 73,
      "start": 11.1093,
      "duration": 0.0163,
      "velocity": 108,
      "chip": "ym2612"
    },
    {
      "channel": 0,
      "note": 39,
      "start": 11.1198,
      "duration": 0.0162,
      "velocity": 115,
      "chip": "ym2612"
    },
    {
      "channel": 5,
      "note": 73,
      "start": 11.121,
      "duration": 0.0161,
      "velocity": 108,
      "chip": "ym2612"
    },
    {
      "channel": 4,
      "note": 80,
      "start": 11.1222,
      "duration": 0.0161,
      "velocity": 98,
      "chip": "ym2612"
    },
    {
      "channel": 3,
      "note": 83,
      "start": 11.1233,
      "duration": 0.0161,
      "velocity": 98,
      "chip": "ym2612"
    },
    {
      "channel": 2,
      "note": 52,
      "start": 11.1245,
      "duration": 0.0161,
      "velocity": 93,
      "chip": "ym2612"
    },
    {
      "channel": 1,
      "note": 73,
      "start": 11.1256,
      "duration": 0.0162,
      "velocity": 108,
      "chip": "ym2612"
    },
    {
      "channel": 0,
      "note": 40,
      "start": 11.136,
      "duration": 0.016,
      "velocity": 115,
      "chip": "ym2612"
    },
    {
      "channel": 5,
      "note": 73,
      "start": 11.1371,
      "duration": 0.0161,
      "velocity": 108,
      "chip": "ym2612"
    },
    {
      "channel": 4,
      "note": 80,
      "start": 11.1383,
      "duration": 0.0161,
      "velocity": 98,
      "chip": "ym2612"
    },
    {
      "channel": 3,
      "note": 83,
      "start": 11.1394,
      "duration": 0.0163,
      "velocity": 98,
      "chip": "ym2612"
    },
    {
      "channel": 2,
      "note": 52,
      "start": 11.1406,
      "duration": 0.0163,
      "velocity": 93,
      "chip": "ym2612"
    },
    {
      "channel": 1,
      "note": 73,
      "start": 11.1418,
      "duration": 0.0164,
      "velocity": 108,
      "chip": "ym2612"
    },
    {
      "channel": 0,
      "note": 40,
      "start": 11.152,
      "duration": 0.0158,
      "velocity": 115,
      "chip": "ym2612"
    },
    {
      "channel": 5,
      "note": 73,
      "start": 11.1532,
      "duration": 0.0161,
      "velocity": 108,
      "chip": "ym2612"
    },
    {
      "channel": 4,
      "note": 80,
      "start": 11.1544,
      "duration": 0.0161,
      "velocity": 98,
      "chip": "ym2612"
    },
    {
      "channel": 3,
      "note": 83,
      "start": 11.1557,
      "duration": 0.016,
      "velocity": 98,
      "chip": "ym2612"
    },
    {
      "channel": 2,
      "note": 52,
      "start": 11.1569,
      "duration": 0.016,
      "velocity": 93,
      "chip": "ym2612"
    },
    {
      "channel": 1,
      "note": 73,
      "start": 11.1582,
      "duration": 0.016,
      "velocity": 108,
      "chip": "ym2612"
    },
    {
      "channel": 0,
      "note": 40,
      "start": 11.1678,
      "duration": 0.0159,
      "velocity": 115,
      "chip": "ym2612"
    },
    {
      "channel": 5,
      "note": 73,
      "start": 11.1693,
      "duration": 0.0161,
      "velocity": 108,
      "chip": "ym2612"
    },
    {
      "channel": 4,
      "note": 80,
      "start": 11.1705,
      "duration": 0.0162,
      "velocity": 98,
      "chip": "ym2612"
    },
    {
      "channel": 3,
      "note": 83,
      "start": 11.1717,
      "duration": 0.0162,
      "velocity": 98,
      "chip": "ym2612"
    },
    {
      "channel": 2,
      "note": 52,
      "start": 11.1729,
      "duration": 0.0162,
      "velocity": 93,
      "chip": "ym2612"
    },
    {
      "channel": 1,
      "note": 73,
      "start": 11.1741,
      "duration": 0.0162,
      "velocity": 108,
      "chip": "ym2612"
    },
    {
      "channel": 0,
      "note": 41,
      "start": 11.1837,
      "duration": 0.0161,
      "velocity": 115,
      "chip": "ym2612"
    },
    {
      "channel": 5,
      "note": 73,
      "start": 11.1855,
      "duration": 0.016,
      "velocity": 108,
      "chip": "ym2612"
    },
    {
      "channel": 4,
      "note": 80,
      "start": 11.1867,
      "duration": 0.016,
      "velocity": 98,
      "chip": "ym2612"
    },
    {
      "channel": 3,
      "note": 83,
      "start": 11.188,
      "duration": 0.016,
      "velocity": 98,
      "chip": "ym2612"
    },
    {
      "channel": 2,
      "note": 52,
      "start": 11.1892,
      "duration": 0.0159,
      "velocity": 93,
      "chip": "ym2612"
    },
    {
      "channel": 1,
      "note": 73,
      "start": 11.1904,
      "duration": 0.0159,
      "velocity": 108,
      "chip": "ym2612"
    },
    {
      "channel": 0,
      "note": 41,
      "start": 11.1998,
      "duration": 0.0161,
      "velocity": 115,
      "chip": "ym2612"
    },
    {
      "channel": 5,
      "note": 73,
      "start": 11.2015,
      "duration": 0.0155,
      "velocity": 108,
      "chip": "ym2612"
    },
    {
      "channel": 4,
      "note": 80,
      "start": 11.2028,
      "duration": 0.016,
      "velocity": 98,
      "chip": "ym2612"
    },
    {
      "channel": 3,
      "note": 83,
      "start": 11.2039,
      "duration": 0.016,
      "velocity": 98,
      "chip": "ym2612"
    },
    {
      "channel": 2,
      "note": 52,
      "start": 11.2051,
      "duration": 0.016,
      "velocity": 93,
      "chip": "ym2612"
    },
    {
      "channel": 1,
      "note": 73,
      "start": 11.2062,
      "duration": 0.016,
      "velocity": 108,
      "chip": "ym2612"
    },
    {
      "channel": 0,
      "note": 42,
      "start": 11.2159,
      "duration": 0.0161,
      "velocity": 115,
      "chip": "ym2612"
    },
    {
      "channel": 5,
      "note": 73,
      "start": 11.217,
      "duration": 0.0161,
      "velocity": 108,
      "chip": "ym2612"
    },
    {
      "channel": 4,
      "note": 80,
      "start": 11.2188,
      "duration": 0.016,
      "velocity": 98,
      "chip": "ym2612"
    },
    {
      "channel": 3,
      "note": 83,
      "start": 11.22,
      "duration": 0.0161,
      "velocity": 98,
      "chip": "ym2612"
    },
    {
      "channel": 2,
      "note": 52,
      "start": 11.2211,
      "duration": 0.0161,
      "velocity": 93,
      "chip": "ym2612"
    },
    {
      "channel": 1,
      "note": 73,
      "start": 11.2222,
      "duration": 0.0161,
      "velocity": 108,
      "chip": "ym2612"
    },
    {
      "channel": 0,
      "note": 42,
      "start": 11.232,
      "duration": 0.0161,
      "velocity": 115,
      "chip": "ym2612"
    },
    {
      "channel": 5,
      "note": 73,
      "start": 11.2331,
      "duration": 0.0162,
      "velocity": 108,
      "chip": "ym2612"
    },
    {
      "channel": 4,
      "note": 80,
      "start": 11.2348,
      "duration": 0.0156,
      "velocity": 98,
      "chip": "ym2612"
    },
    {
      "channel": 3,
      "note": 83,
      "start": 11.236,
      "duration": 0.0161,
      "velocity": 98,
      "chip": "ym2612"
    },
    {
      "channel": 2,
      "note": 52,
      "start": 11.2372,
      "duration": 0.0161,
      "velocity": 93,
      "chip": "ym2612"
    },
    {
      "channel": 1,
      "note": 73,
      "start": 11.2383,
      "duration": 0.0162,
      "velocity": 108,
      "chip": "ym2612"
    },
    {
      "channel": 0,
      "note": 43,
      "start": 11.2481,
      "duration": 0.0161,
      "velocity": 115,
      "chip": "ym2612"
    },
    {
      "channel": 5,
      "note": 73,
      "start": 11.2493,
      "duration": 0.0161,
      "velocity": 108,
      "chip": "ym2612"
    },
    {
      "channel": 4,
      "note": 80,
      "start": 11.2504,
      "duration": 0.0162,
      "velocity": 98,
      "chip": "ym2612"
    },
    {
      "channel": 3,
      "note": 83,
      "start": 11.2521,
      "duration": 0.0162,
      "velocity": 98,
      "chip": "ym2612"
    },
    {
      "channel": 2,
      "note": 52,
      "start": 11.2533,
      "duration": 0.0163,
      "velocity": 93,
      "chip": "ym2612"
    },
    {
      "channel": 1,
      "note": 73,
      "start": 11.2545,
      "duration": 0.0163,
      "velocity": 108,
      "chip": "ym2612"
    },
    {
      "channel": 0,
      "note": 43,
      "start": 11.2641,
      "duration": 0.0161,
      "velocity": 115,
      "chip": "ym2612"
    },
    {
      "channel": 5,
      "note": 73,
      "start": 11.2654,
      "duration": 0.0161,
      "velocity": 108,
      "chip": "ym2612"
    },
    {
      "channel": 4,
      "note": 80,
      "start": 11.2666,
      "duration": 0.0161,
      "velocity": 98,
      "chip": "ym2612"
    },
    {
      "channel": 3,
      "note": 83,
      "start": 11.2683,
      "duration": 0.0159,
      "velocity": 98,
      "chip": "ym2612"
    },
    {
      "channel": 2,
      "note": 52,
      "start": 11.2696,
      "duration": 0.0163,
      "velocity": 93,
      "chip": "ym2612"
    },
    {
      "channel": 1,
      "note": 73,
      "start": 11.2708,
      "duration": 0.0163,
      "velocity": 108,
      "chip": "ym2612"
    },
    {
      "channel": 0,
      "note": 44,
      "start": 11.2802,
      "duration": 0.0179,
      "velocity": 124,
      "chip": "ym2612"
    },
    {
      "channel": 5,
      "note": 73,
      "start": 11.2815,
      "duration": 0.0179,
      "velocity": 108,
      "chip": "ym2612"
    },
    {
      "channel": 2,
      "note": 52,
      "start": 11.2859,
      "duration": 0.0187,
      "velocity": 93,
      "chip": "ym2612"
    },
    {
      "channel": 0,
      "note": 84,
      "start": 11.2983,
      "duration": 0.0142,
      "velocity": 124,
      "chip": "ym2612"
    },
    {
      "channel": 5,
      "note": 73,
      "start": 11.2995,
      "duration": 0.0143,
      "velocity": 108,
      "chip": "ym2612"
    },
    {
      "channel": 4,
      "note": 80,
      "start": 11.3015,
      "duration": 0.0135,
      "velocity": 98,
      "chip": "ym2612"
    },
    {
      "channel": 3,
      "note": 83,
      "start": 11.3031,
      "duration": 0.0132,
      "velocity": 98,
      "chip": "ym2612"
    },
    {
      "channel": 2,
      "note": 52,
      "start": 11.3046,
      "duration": 0.013,
      "velocity": 93,
      "chip": "ym2612"
    },
    {
      "channel": 1,
      "note": 76,
      "start": 11.3061,
      "duration": 0.0132,
      "velocity": 108,
      "chip": "ym2612"
    },
    {
      "channel": 0,
      "note": 82,
      "start": 11.3125,
      "duration": 0.0161,
      "velocity": 124,
      "chip": "ym2612"
    },
    {
      "channel": 4,
      "note": 80,
      "start": 11.315,
      "duration": 0.0162,
      "velocity": 98,
      "chip": "ym2612"
    },
    {
      "channel": 3,
      "note": 83,
      "start": 11.3163,
      "duration": 0.0161,
      "velocity": 98,
      "chip": "ym2612"
    },
    {
      "channel": 2,
      "note": 52,
      "start": 11.3177,
      "duration": 0.0158,
      "velocity": 93,
      "chip": "ym2612"
    },
    {
      "channel": 1,
      "note": 76,
      "start": 11.3193,
      "duration": 0.0159,
      "velocity": 108,
      "chip": "ym2612"
    },
    {
      "channel": 0,
      "note": 80,
      "start": 11.3286,
      "duration": 0.0161,
      "velocity": 124,
      "chip": "ym2612"
    },
    {
      "channel": 5,
      "note": 76,
      "start": 11.3301,
      "duration": 0.0158,
      "velocity": 108,
      "chip": "ym2612"
    },
    {
      "channel": 4,
      "note": 80,
      "start": 11.3312,
      "duration": 0.0159,
      "velocity": 98,
      "chip": "ym2612"
    },
    {
      "channel": 3,
      "note": 83,
      "start": 11.3324,
      "duration": 0.0159,
      "velocity": 98,
      "chip": "ym2612"
    },
    {
      "channel": 2,
      "note": 52,
      "start": 11.3335,
      "duration": 0.0159,
      "velocity": 93,
      "chip": "ym2612"
    },
    {
      "channel": 1,
      "note": 76,
      "start": 11.3352,
      "duration": 0.0153,
      "velocity": 108,
      "chip": "ym2612"
    },
    {
      "channel": 0,
      "note": 77,
      "start": 11.3447,
      "duration": 0.0161,
      "velocity": 124,
      "chip": "ym2612"
    },
    {
      "channel": 5,
      "note": 76,
      "start": 11.3459,
      "duration": 0.016,
      "velocity": 108,
      "chip": "ym2612"
    },
    {
      "channel": 4,
      "note": 80,
      "start": 11.3471,
      "duration": 0.016,
      "velocity": 98,
      "chip": "ym2612"
    },
    {
      "channel": 3,
      "note": 83,
      "start": 11.3483,
      "duration": 0.016,
      "velocity": 98,
      "chip": "ym2612"
    },
    {
      "channel": 2,
      "note": 52,
      "start": 11.3494,
      "duration": 0.016,
      "velocity": 93,
      "chip": "ym2612"
    },
    {
      "channel": 1,
      "note": 76,
      "start": 11.3505,
      "duration": 0.016,
      "velocity": 108,
      "chip": "ym2612"
    },
    {
      "channel": 0,
      "note": 75,
      "start": 11.3608,
      "duration": 0.0161,
      "velocity": 124,
      "chip": "ym2612"
    },
    {
      "channel": 5,
      "note": 76,
      "start": 11.3619,
      "duration": 0.0161,
      "velocity": 108,
      "chip": "ym2612"
    },
    {
      "channel": 4,
      "note": 80,
      "start": 11.3631,
      "duration": 0.0161,
      "velocity": 98,
      "chip": "ym2612"
    },
    {
      "channel": 3,
      "note": 83,
      "start": 11.3643,
      "duration": 0.0161,
      "velocity": 98,
      "chip": "ym2612"
    },
    {
      "channel": 2,
      "note": 52,
      "start": 11.3654,
      "duration": 0.0161,
      "velocity": 93,
      "chip": "ym2612"
    },
    {
      "channel": 1,
      "note": 76,
      "start": 11.3666,
      "duration": 0.0161,
      "velocity": 108,
      "chip": "ym2612"
    },
    {
      "channel": 0,
      "note": 72,
      "start": 11.3769,
      "duration": 0.0161,
      "velocity": 124,
      "chip": "ym2612"
    },
    {
      "channel": 5,
      "note": 76,
      "start": 11.378,
      "duration": 0.0161,
      "velocity": 108,
      "chip": "ym2612"
    },
    {
      "channel": 4,
      "note": 80,
      "start": 11.3792,
      "duration": 0.0161,
      "velocity": 98,
      "chip": "ym2612"
    },
    {
      "channel": 3,
      "note": 83,
      "start": 11.3804,
      "duration": 0.0161,
      "velocity": 98,
      "chip": "ym2612"
    },
    {
      "channel": 2,
      "note": 52,
      "start": 11.3815,
      "duration": 0.0161,
      "velocity": 93,
      "chip": "ym2612"
    },
    {
      "channel": 1,
      "note": 76,
      "start": 11.3827,
      "duration": 0.0161,
      "velocity": 108,
      "chip": "ym2612"
    },
    {
      "channel": 0,
      "note": 70,
      "start": 11.393,
      "duration": 0.0161,
      "velocity": 124,
      "chip": "ym2612"
    },
    {
      "channel": 5,
      "note": 76,
      "start": 11.3941,
      "duration": 0.0161,
      "velocity": 108,
      "chip": "ym2612"
    },
    {
      "channel": 4,
      "note": 80,
      "start": 11.3953,
      "duration": 0.0162,
      "velocity": 98,
      "chip": "ym2612"
    },
    {
      "channel": 3,
      "note": 83,
      "start": 11.3965,
      "duration": 0.0161,
      "velocity": 98,
      "chip": "ym2612"
    },
    {
      "channel": 2,
      "note": 52,
      "start": 11.3976,
      "duration": 0.0161,
      "velocity": 93,
      "chip": "ym2612"
    },
    {
      "channel": 1,
      "note": 76,
      "start": 11.3988,
      "duration": 0.0161,
      "velocity": 108,
      "chip": "ym2612"
    },
    {
      "channel": 0,
      "note": 68,
      "start": 11.4091,
      "duration": 0.0161,
      "velocity": 124,
      "chip": "ym2612"
    },
    {
      "channel": 5,
      "note": 76,
      "start": 11.4103,
      "duration": 0.0161,
      "velocity": 108,
      "chip": "ym2612"
    },
    {
      "channel": 4,
      "note": 80,
      "start": 11.4114,
      "duration": 0.0161,
      "velocity": 98,
      "chip": "ym2612"
    },
    {
      "channel": 3,
      "note": 83,
      "start": 11.4126,
      "duration": 0.0161,
      "velocity": 98,
      "chip": "ym2612"
    },
    {
      "channel": 2,
      "note": 52,
      "start": 11.4137,
      "duration": 0.0161,
      "velocity": 93,
      "chip": "ym2612"
    },
    {
      "channel": 1,
      "note": 76,
      "start": 11.4149,
      "duration": 0.0161,
      "velocity": 108,
      "chip": "ym2612"
    },
    {
      "channel": 0,
      "note": 65,
      "start": 11.4252,
      "duration": 0.0161,
      "velocity": 124,
      "chip": "ym2612"
    },
    {
      "channel": 5,
      "note": 76,
      "start": 11.4264,
      "duration": 0.0161,
      "velocity": 108,
      "chip": "ym2612"
    },
    {
      "channel": 4,
      "note": 80,
      "start": 11.4275,
      "duration": 0.0162,
      "velocity": 98,
      "chip": "ym2612"
    },
    {
      "channel": 3,
      "note": 83,
      "start": 11.4287,
      "duration": 0.0163,
      "velocity": 98,
      "chip": "ym2612"
    },
    {
      "channel": 2,
      "note": 52,
      "start": 11.4298,
      "duration": 0.0163,
      "velocity": 93,
      "chip": "ym2612"
    },
    {
      "channel": 1,
      "note": 76,
      "start": 11.431,
      "duration": 0.0164,
      "velocity": 108,
      "chip": "ym2612"
    },
    {
      "channel": 0,
      "note": 63,
      "start": 11.4412,
      "duration": 0.0153,
      "velocity": 1,
      "chip": "ym2612"
    },
    {
      "channel": 5,
      "note": 76,
      "start": 11.4425,
      "duration": 0.0153,
      "velocity": 108,
      "chip": "ym2612"
    },
    {
      "channel": 4,
      "note": 80,
      "start": 11.4437,
      "duration": 0.0153,
      "velocity": 98,
      "chip": "ym2612"
    },
    {
      "channel": 3,
      "note": 83,
      "start": 11.4449,
      "duration": 0.0152,
      "velocity": 98,
      "chip": "ym2612"
    },
    {
      "channel": 2,
      "note": 52,
      "start": 11.4461,
      "duration": 0.0152,
      "velocity": 93,
      "chip": "ym2612"
    },
    {
      "channel": 1,
      "note": 76,
      "start": 11.4474,
      "duration": 0.0152,
      "velocity": 108,
      "chip": "ym2612"
    },
    {
      "channel": 5,
      "note": 76,
      "start": 11.4577,
      "duration": 0.0153,
      "velocity": 108,
      "chip": "ym2612"
    },
    {
      "channel": 4,
      "note": 80,
      "start": 11.4589,
      "duration": 0.0153,
      "velocity": 98,
      "chip": "ym2612"
    },
    {
      "channel": 3,
      "note": 83,
      "start": 11.4602,
      "duration": 0.0153,
      "velocity": 98,
      "chip": "ym2612"
    },
    {
      "channel": 2,
      "note": 52,
      "start": 11.4614,
      "duration": 0.0153,
      "velocity": 93,
      "chip": "ym2612"
    },
    {
      "channel": 1,
      "note": 76,
      "start": 11.4626,
      "duration": 0.0153,
      "velocity": 108,
      "chip": "ym2612"
    },
    {
      "channel": 5,
      "note": 76,
      "start": 11.4731,
      "duration": 0.0161,
      "velocity": 108,
      "chip": "ym2612"
    },
    {
      "channel": 4,
      "note": 80,
      "start": 11.4743,
      "duration": 0.016,
      "velocity": 98,
      "chip": "ym2612"
    },
    {
      "channel": 3,
      "note": 83,
      "start": 11.4755,
      "duration": 0.016,
      "velocity": 98,
      "chip": "ym2612"
    },
    {
      "channel": 2,
      "note": 52,
      "start": 11.4767,
      "duration": 0.0159,
      "velocity": 93,
      "chip": "ym2612"
    },
    {
      "channel": 1,
      "note": 76,
      "start": 11.4779,
      "duration": 0.0159,
      "velocity": 108,
      "chip": "ym2612"
    },
    {
      "channel": 5,
      "note": 76,
      "start": 11.4892,
      "duration": 0.016,
      "velocity": 108,
      "chip": "ym2612"
    },
    {
      "channel": 4,
      "note": 80,
      "start": 11.4903,
      "duration": 0.016,
      "velocity": 98,
      "chip": "ym2612"
    },
    {
      "channel": 3,
      "note": 83,
      "start": 11.4915,
      "duration": 0.016,
      "velocity": 98,
      "chip": "ym2612"
    },
    {
      "channel": 2,
      "note": 52,
      "start": 11.4926,
      "duration": 0.016,
      "velocity": 93,
      "chip": "ym2612"
    },
    {
      "channel": 1,
      "note": 76,
      "start": 11.4937,
      "duration": 0.0161,
      "velocity": 108,
      "chip": "ym2612"
    },
    {
      "channel": 5,
      "note": 76,
      "start": 11.5052,
      "duration": 0.0161,
      "velocity": 108,
      "chip": "ym2612"
    },
    {
      "channel": 4,
      "note": 80,
      "start": 11.5063,
      "duration": 0.0161,
      "velocity": 98,
      "chip": "ym2612"
    },
    {
      "channel": 3,
      "note": 83,
      "start": 11.5075,
      "duration": 0.0161,
      "velocity": 98,
      "chip": "ym2612"
    },
    {
      "channel": 2,
      "note": 52,
      "start": 11.5086,
      "duration": 0.0162,
      "velocity": 93,
      "chip": "ym2612"
    },
    {
      "channel": 1,
      "note": 76,
      "start": 11.5098,
      "duration": 0.0161,
      "velocity": 108,
      "chip": "ym2612"
    },
    {
      "channel": 5,
      "note": 76,
      "start": 11.5213,
      "duration": 0.0161,
      "velocity": 108,
      "chip": "ym2612"
    },
    {
      "channel": 4,
      "note": 80,
      "start": 11.5224,
      "duration": 0.0161,
      "velocity": 98,
      "chip": "ym2612"
    },
    {
      "channel": 3,
      "note": 83,
      "start": 11.5236,
      "duration": 0.0161,
      "velocity": 98,
      "chip": "ym2612"
    },
    {
      "channel": 2,
      "note": 52,
      "start": 11.5248,
      "duration": 0.0161,
      "velocity": 93,
      "chip": "ym2612"
    },
    {
      "channel": 1,
      "note": 76,
      "start": 11.5259,
      "duration": 0.0161,
      "velocity": 108,
      "chip": "ym2612"
    },
    {
      "channel": 5,
      "note": 76,
      "start": 11.5374,
      "duration": 0.0162,
      "velocity": 108,
      "chip": "ym2612"
    },
    {
      "channel": 4,
      "note": 80,
      "start": 11.5385,
      "duration": 0.0162,
      "velocity": 98,
      "chip": "ym2612"
    },
    {
      "channel": 3,
      "note": 83,
      "start": 11.5397,
      "duration": 0.0163,
      "velocity": 98,
      "chip": "ym2612"
    },
    {
      "channel": 2,
      "note": 52,
      "start": 11.5409,
      "duration": 0.0163,
      "velocity": 93,
      "chip": "ym2612"
    },
    {
      "channel": 1,
      "note": 76,
      "start": 11.542,
      "duration": 0.0164,
      "velocity": 108,
      "chip": "ym2612"
    },
    {
      "channel": 5,
      "note": 76,
      "start": 11.5535,
      "duration": 0.0162,
      "velocity": 108,
      "chip": "ym2612"
    },
    {
      "channel": 4,
      "note": 80,
      "start": 11.5547,
      "duration": 0.0162,
      "velocity": 98,
      "chip": "ym2612"
    },
    {
      "channel": 3,
      "note": 83,
      "start": 11.5559,
      "duration": 0.0163,
      "velocity": 98,
      "chip": "ym2612"
    },
    {
      "channel": 2,
      "note": 52,
      "start": 11.5572,
      "duration": 0.0163,
      "velocity": 93,
      "chip": "ym2612"
    },
    {
      "channel": 1,
      "note": 76,
      "start": 11.5584,
      "duration": 0.0163,
      "velocity": 108,
      "chip": "ym2612"
    },
    {
      "channel": 5,
      "note": 76,
      "start": 11.5698,
      "duration": 0.0199,
      "velocity": 108,
      "chip": "ym2612"
    },
    {
      "channel": 2,
      "note": 52,
      "start": 11.5735,
      "duration": 0.0209,
      "velocity": 93,
      "chip": "ym2612"
    },
    {
      "channel": 0,
      "note": 36,
      "start": 11.5885,
      "duration": 0.0145,
      "velocity": 115,
      "chip": "ym2612"
    },
    {
      "channel": 5,
      "note": 76,
      "start": 11.5897,
      "duration": 0.0146,
      "velocity": 108,
      "chip": "ym2612"
    },
    {
      "channel": 4,
      "note": 80,
      "start": 11.5913,
      "duration": 0.0141,
      "velocity": 98,
      "chip": "ym2612"
    },
    {
      "channel": 3,
      "note": 83,
      "start": 11.5929,
      "duration": 0.0137,
      "velocity": 98,
      "chip": "ym2612"
    },
    {
      "channel": 2,
      "note": 56,
      "start": 11.5944,
      "duration": 0.0134,
      "velocity": 93,
      "chip": "ym2612"
    },
    {
      "channel": 1,
      "note": 75,
      "start": 11.5959,
      "duration": 0.0132,
      "velocity": 108,
      "chip": "ym2612"
    },
    {
      "channel": 0,
      "note": 36,
      "start": 11.603,
      "duration": 0.016,
      "velocity": 115,
      "chip": "ym2612"
    },
    {
      "channel": 4,
      "note": 80,
      "start": 11.6054,
      "duration": 0.0162,
      "velocity": 98,
      "chip": "ym2612"
    },
    {
      "channel": 3,
      "note": 83,
      "start": 11.6066,
      "duration": 0.0161,
      "velocity": 98,
      "chip": "ym2612"
    },
    {
      "channel": 2,
      "note": 56,
      "start": 11.6079,
      "duration": 0.016,
      "velocity": 93,
      "chip": "ym2612"
    },
    {
      "channel": 1,
      "note": 75,
      "start": 11.6091,
      "duration": 0.016,
      "velocity": 108,
      "chip": "ym2612"
    },
    {
      "channel": 0,
      "note": 37,
      "start": 11.619,
      "duration": 0.016,
      "velocity": 115,
      "chip": "ym2612"
    },
    {
      "channel": 5,
      "note": 75,
      "start": 11.6205,
      "duration": 0.0159,
      "velocity": 108,
      "chip": "ym2612"
    },
    {
      "channel": 4,
      "note": 80,
      "start": 11.6216,
      "duration": 0.0159,
      "velocity": 98,
      "chip": "ym2612"
    },
    {
      "channel": 3,
      "note": 83,
      "start": 11.6227,
      "duration": 0.0159,
      "velocity": 98,
      "chip": "ym2612"
    },
    {
      "channel": 2,
      "note": 56,
      "start": 11.6239,
      "duration": 0.0159,
      "velocity": 93,
      "chip": "ym2612"
    },
    {
      "channel": 1,
      "note": 75,
      "start": 11.6251,
      "duration": 0.0158,
      "velocity": 108,
      "chip": "ym2612"
    },
    {
      "channel": 0,
      "note": 37,
      "start": 11.635,
      "duration": 0.0158,
      "velocity": 115,
      "chip": "ym2612"
    },
    {
      "channel": 5,
      "note": 75,
      "start": 11.6363,
      "duration": 0.016,
      "velocity": 108,
      "chip": "ym2612"
    },
    {
      "channel": 4,
      "note": 80,
      "start": 11.6375,
      "duration": 0.016,
      "velocity": 98,
      "chip": "ym2612"
    },
    {
      "channel": 3,
      "note": 83,
      "start": 11.6386,
      "duration": 0.016,
      "velocity": 98,
      "chip": "ym2612"
    },
    {
      "channel": 2,
      "note": 56,
      "start": 11.6398,
      "duration": 0.016,
      "velocity": 93,
      "chip": "ym2612"
    },
    {
      "channel": 1,
      "note": 75,
      "start": 11.6409,
      "duration": 0.016,
      "velocity": 108,
      "chip": "ym2612"
    },
    {
      "channel": 0,
      "note": 38,
      "start": 11.6508,
      "duration": 0.0159,
      "velocity": 115,
      "chip": "ym2612"
    },
    {
      "channel": 5,
      "note": 75,
      "start": 11.6524,
      "duration": 0.016,
      "velocity": 108,
      "chip": "ym2612"
    },
    {
      "channel": 4,
      "note": 80,
      "start": 11.6535,
      "duration": 0.0161,
      "velocity": 98,
      "chip": "ym2612"
    },
    {
      "channel": 3,
      "note": 83,
      "start": 11.6547,
      "duration": 0.0161,
      "velocity": 98,
      "chip": "ym2612"
    },
    {
      "channel": 2,
      "note": 56,
      "start": 11.6558,
      "duration": 0.0161,
      "velocity": 93,
      "chip": "ym2612"
    },
    {
      "channel": 1,
      "note": 75,
      "start": 11.657,
      "duration": 0.0161,
      "velocity": 108,
      "chip": "ym2612"
    },
    {
      "channel": 0,
      "note": 38,
      "start": 11.6667,
      "duration": 0.0161,
      "velocity": 115,
      "chip": "ym2612"
    },
    {
      "channel": 5,
      "note": 75,
      "start": 11.6684,
      "duration": 0.0158,
      "velocity": 108,
      "chip": "ym2612"
    },
    {
      "channel": 4,
      "note": 80,
      "start": 11.6696,
      "duration": 0.0161,
      "velocity": 98,
      "chip": "ym2612"
    },
    {
      "channel": 3,
      "note": 83,
      "start": 11.6708,
      "duration": 0.0161,
      "velocity": 98,
      "chip": "ym2612"
    },
    {
      "channel": 2,
      "note": 56,
      "start": 11.6719,
      "duration": 0.0161,
      "velocity": 93,
      "chip": "ym2612"
    },
    {
      "channel": 1,
      "note": 75,
      "start": 11.6731,
      "duration": 0.0162,
      "velocity": 108,
      "chip": "ym2612"
    },
    {
      "channel": 0,
      "note": 39,
      "start": 11.6828,
      "duration": 0.0161,
      "velocity": 115,
      "chip": "ym2612"
    },
    {
      "channel": 5,
      "note": 75,
      "start": 11.6842,
      "duration": 0.0159,
      "velocity": 108,
      "chip": "ym2612"
    },
    {
      "channel": 4,
      "note": 80,
      "start": 11.6857,
      "duration": 0.016,
      "velocity": 98,
      "chip": "ym2612"
    },
    {
      "channel": 3,
      "note": 83,
      "start": 11.6869,
      "duration": 0.0161,
      "velocity": 98,
      "chip": "ym2612"
    },
    {
      "channel": 2,
      "note": 56,
      "start": 11.688,
      "duration": 0.0162,
      "velocity": 93,
      "chip": "ym2612"
    },
    {
      "channel": 1,
      "note": 75,
      "start": 11.6892,
      "duration": 0.0161,
      "velocity": 108,
      "chip": "ym2612"
    },
    {
      "channel": 0,
      "note": 39,
      "start": 11.6989,
      "duration": 0.0161,
      "velocity": 115,
      "chip": "ym2612"
    },
    {
      "channel": 5,
      "note": 75,
      "start": 11.7001,
      "duration": 0.0161,
      "velocity": 108,
      "chip": "ym2612"
    },
    {
      "channel": 4,
      "note": 80,
      "start": 11.7017,
      "duration": 0.0158,
      "velocity": 98,
      "chip": "ym2612"
    },
    {
      "channel": 3,
      "note": 83,
      "start": 11.703,
      "duration": 0.0161,
      "velocity": 98,
      "chip": "ym2612"
    },
    {
      "channel": 2,
      "note": 56,
      "start": 11.7042,
      "duration": 0.016,
      "velocity": 93,
      "chip": "ym2612"
    },
    {
      "channel": 1,
      "note": 75,
      "start": 11.7053,
      "duration": 0.0161,
      "velocity": 108,
      "chip": "ym2612"
    },
    {
      "channel": 0,
      "note": 40,
      "start": 11.715,
      "duration": 0.0161,
      "velocity": 115,
      "chip": "ym2612"
    },
    {
      "channel": 5,
      "note": 75,
      "start": 11.7162,
      "duration": 0.0161,
      "velocity": 108,
      "chip": "ym2612"
    },
    {
      "channel": 4,
      "note": 80,
      "start": 11.7175,
      "duration": 0.016,
      "velocity": 98,
      "chip": "ym2612"
    },
    {
      "channel": 3,
      "note": 83,
      "start": 11.719,
      "duration": 0.0162,
      "velocity": 98,
      "chip": "ym2612"
    },
    {
      "channel": 2,
      "note": 56,
      "start": 11.7202,
      "duration": 0.0163,
      "velocity": 93,
      "chip": "ym2612"
    },
    {
      "channel": 1,
      "note": 75,
      "start": 11.7214,
      "duration": 0.0163,
      "velocity": 108,
      "chip": "ym2612"
    },
    {
      "channel": 0,
      "note": 40,
      "start": 11.7311,
      "duration": 0.0161,
      "velocity": 115,
      "chip": "ym2612"
    },
    {
      "channel": 5,
      "note": 75,
      "start": 11.7323,
      "duration": 0.0161,
      "velocity": 108,
      "chip": "ym2612"
    },
    {
      "channel": 4,
      "note": 80,
      "start": 11.7335,
      "duration": 0.0161,
      "velocity": 98,
      "chip": "ym2612"
    },
    {
      "channel": 3,
      "note": 83,
      "start": 11.7353,
      "duration": 0.0157,
      "velocity": 98,
      "chip": "ym2612"
    },
    {
      "channel": 2,
      "note": 56,
      "start": 11.7366,
      "duration": 0.016,
      "velocity": 93,
      "chip": "ym2612"
    },
    {
      "channel": 1,
      "note": 75,
      "start": 11.7378,
      "duration": 0.016,
      "velocity": 108,
      "chip": "ym2612"
    },
    {
      "channel": 0,
      "note": 40,
      "start": 11.7472,
      "duration": 0.0161,
      "velocity": 115,
      "chip": "ym2612"
    },
    {
      "channel": 5,
      "note": 75,
      "start": 11.7484,
      "duration": 0.0161,
      "velocity": 108,
      "chip": "ym2612"
    },
    {
      "channel": 4,
      "note": 80,
      "start": 11.7496,
      "duration": 0.0161,
      "velocity": 98,
      "chip": "ym2612"
    },
    {
      "channel": 3,
      "note": 83,
      "start": 11.751,
      "duration": 0.016,
      "velocity": 98,
      "chip": "ym2612"
    },
    {
      "channel": 2,
      "note": 56,
      "start": 11.7526,
      "duration": 0.0162,
      "velocity": 93,
      "chip": "ym2612"
    },
    {
      "channel": 1,
      "note": 75,
      "start": 11.7538,
      "duration": 0.0162,
      "velocity": 108,
      "chip": "ym2612"
    },
    {
      "channel": 0,
      "note": 41,
      "start": 11.7633,
      "duration": 0.0162,
      "velocity": 115,
      "chip": "ym2612"
    },
    {
      "channel": 5,
      "note": 75,
      "start": 11.7645,
      "duration": 0.0161,
      "velocity": 108,
      "chip": "ym2612"
    },
    {
      "channel": 4,
      "note": 80,
      "start": 11.7657,
      "duration": 0.016,
      "velocity": 98,
      "chip": "ym2612"
    },
    {
      "channel": 3,
      "note": 83,
      "start": 11.767,
      "duration": 0.016,
      "velocity": 98,
      "chip": "ym2612"
    },
    {
      "channel": 2,
      "note": 56,
      "start": 11.7688,
      "duration": 0.0155,
      "velocity": 93,
      "chip": "ym2612"
    },
    {
      "channel": 1,
      "note": 75,
      "start": 11.77,
      "duration": 0.0159,
      "velocity": 108,
      "chip": "ym2612"
    },
    {
      "channel": 0,
      "note": 41,
      "start": 11.7794,
      "duration": 0.0161,
      "velocity": 115,
      "chip": "ym2612"
    },
    {
      "channel": 5,
      "note": 75,
      "start": 11.7806,
      "duration": 0.016,
      "velocity": 108,
      "chip": "ym2612"
    },
    {
      "channel": 4,
      "note": 80,
      "start": 11.7818,
      "duration": 0.016,
      "velocity": 98,
      "chip": "ym2612"
    },
    {
      "channel": 3,
      "note": 83,
      "start": 11.7829,
      "duration": 0.016,
      "velocity": 98,
      "chip": "ym2612"
    },
    {
      "channel": 2,
      "note": 56,
      "start": 11.7843,
      "duration": 0.0158,
      "velocity": 93,
      "chip": "ym2612"
    },
    {
      "channel": 1,
      "note": 75,
      "start": 11.7859,
      "duration": 0.016,
      "velocity": 108,
      "chip": "ym2612"
    },
    {
      "channel": 0,
      "note": 42,
      "start": 11.7955,
      "duration": 0.0161,
      "velocity": 115,
      "chip": "ym2612"
    },
    {
      "channel": 5,
      "note": 75,
      "start": 11.7967,
      "duration": 0.0161,
      "velocity": 108,
      "chip": "ym2612"
    },
    {
      "channel": 4,
      "note": 80,
      "start": 11.7978,
      "duration": 0.0161,
      "velocity": 98,
      "chip": "ym2612"
    },
    {
      "channel": 3,
      "note": 83,
      "start": 11.799,
      "duration": 0.0161,
      "velocity": 98,
      "chip": "ym2612"
    },
    {
      "channel": 2,
      "note": 56,
      "start": 11.8002,
      "duration": 0.0161,
      "velocity": 93,
      "chip": "ym2612"
    },
    {
      "channel": 1,
      "note": 75,
      "start": 11.8018,
      "duration": 0.0158,
      "velocity": 108,
      "chip": "ym2612"
    },
    {
      "channel": 0,
      "note": 42,
      "start": 11.8116,
      "duration": 0.0161,
      "velocity": 115,
      "chip": "ym2612"
    },
    {
      "channel": 5,
      "note": 75,
      "start": 11.8128,
      "duration": 0.0161,
      "velocity": 108,
      "chip": "ym2612"
    },
    {
      "channel": 4,
      "note": 80,
      "start": 11.8139,
      "duration": 0.0161,
      "velocity": 98,
      "chip": "ym2612"
    },
    {
      "channel": 3,
      "note": 83,
      "start": 11.8151,
      "duration": 0.0161,
      "velocity": 98,
      "chip": "ym2612"
    },
    {
      "channel": 2,
      "note": 56,
      "start": 11.8163,
      "duration": 0.0161,
      "velocity": 93,
      "chip": "ym2612"
    },
    {
      "channel": 1,
      "note": 75,
      "start": 11.8176,
      "duration": 0.0159,
      "velocity": 108,
      "chip": "ym2612"
    },
    {
      "channel": 0,
      "note": 43,
      "start": 11.8277,
      "duration": 0.0161,
      "velocity": 115,
      "chip": "ym2612"
    },
    {
      "channel": 5,
      "note": 75,
      "start": 11.8288,
      "duration": 0.0162,
      "velocity": 108,
      "chip": "ym2612"
    },
    {
      "channel": 4,
      "note": 80,
      "start": 11.83,
      "duration": 0.0162,
      "velocity": 98,
      "chip": "ym2612"
    },
    {
      "channel": 3,
      "note": 83,
      "start": 11.8312,
      "duration": 0.0162,
      "velocity": 98,
      "chip": "ym2612"
    },
    {
      "channel": 2,
      "note": 56,
      "start": 11.8324,
      "duration": 0.0163,
      "velocity": 93,
      "chip": "ym2612"
    },
    {
      "channel": 1,
      "note": 75,
      "start": 11.8335,
      "duration": 0.0163,
      "velocity": 108,
      "chip": "ym2612"
    },
    {
      "channel": 0,
      "note": 43,
      "start": 11.8438,
      "duration": 0.0161,
      "velocity": 115,
      "chip": "ym2612"
    },
    {
      "channel": 5,
      "note": 75,
      "start": 11.845,
      "duration": 0.0161,
      "velocity": 108,
      "chip": "ym2612"
    },
    {
      "channel": 4,
      "note": 80,
      "start": 11.8462,
      "duration": 0.0162,
      "velocity": 98,
      "chip": "ym2612"
    },
    {
      "channel": 3,
      "note": 83,
      "start": 11.8474,
      "duration": 0.0162,
      "velocity": 98,
      "chip": "ym2612"
    },
    {
      "channel": 2,
      "note": 56,
      "start": 11.8486,
      "duration": 0.0163,
      "velocity": 93,
      "chip": "ym2612"
    },
    {
      "channel": 1,
      "note": 75,
      "start": 11.8498,
      "duration": 0.0163,
      "velocity": 108,
      "chip": "ym2612"
    },
    {
      "channel": 0,
      "note": 44,
      "start": 11.8599,
      "duration": 0.0179,
      "velocity": 124,
      "chip": "ym2612"
    },
    {
      "channel": 5,
      "note": 75,
      "start": 11.8612,
      "duration": 0.018,
      "velocity": 108,
      "chip": "ym2612"
    },
    {
      "channel": 2,
      "note": 56,
      "start": 11.8649,
      "duration": 0.0186,
      "velocity": 93,
      "chip": "ym2612"
    },
    {
      "channel": 0,
      "note": 84,
      "start": 11.8779,
      "duration": 0.0143,
      "velocity": 124,
      "chip": "ym2612"
    },
    {
      "channel": 5,
      "note": 75,
      "start": 11.8791,
      "duration": 0.0143,
      "velocity": 108,
      "chip": "ym2612"
    },
    {
      "channel": 4,
      "note": 80,
      "start": 11.8806,
      "duration": 0.0141,
      "velocity": 98,
      "chip": "ym2612"
    },
    {
      "channel": 3,
      "note": 83,
      "start": 11.882,
      "duration": 0.0139,
      "velocity": 98,
      "chip": "ym2612"
    },
    {
      "channel": 2,
      "note": 56,
      "start": 11.8836,
      "duration": 0.0135,
      "velocity": 93,
      "chip": "ym2612"
    },
    {
      "channel": 1,
      "note": 75,
      "start": 11.8856,
      "duration": 0.0127,
      "velocity": 108,
      "chip": "ym2612"
    },
    {
      "channel": 0,
      "note": 82,
      "start": 11.8922,
      "duration": 0.0161,
      "velocity": 124,
      "chip": "ym2612"
    },
    {
      "channel": 4,
      "note": 80,
      "start": 11.8946,
      "duration": 0.0162,
      "velocity": 98,
      "chip": "ym2612"
    },
    {
      "channel": 3,
      "note": 83,
      "start": 11.8959,
      "duration": 0.0161,
      "velocity": 98,
      "chip": "ym2612"
    },
    {
      "channel": 2,
      "note": 56,
      "start": 11.8971,
      "duration": 0.016,
      "velocity": 93,
      "chip": "ym2612"
    },
    {
      "channel": 1,
      "note": 75,
      "start": 11.8983,
      "duration": 0.016,
      "velocity": 108,
      "chip": "ym2612"
    },
    {
      "channel": 0,
      "note": 80,
      "start": 11.9082,
      "duration": 0.0161,
      "velocity": 124,
      "chip": "ym2612"
    },
    {
      "channel": 5,
      "note": 75,
      "start": 11.9097,
      "duration": 0.0158,
      "velocity": 108,
      "chip": "ym2612"
    },
    {
      "channel": 4,
      "note": 80,
      "start": 11.9108,
      "duration": 0.0159,
      "velocity": 98,
      "chip": "ym2612"
    },
    {
      "channel": 3,
      "note": 83,
      "start": 11.912,
      "duration": 0.0159,
      "velocity": 98,
      "chip": "ym2612"
    },
    {
      "channel": 2,
      "note": 56,
      "start": 11.9131,
      "duration": 0.0159,
      "velocity": 93,
      "chip": "ym2612"
    },
    {
      "channel": 1,
      "note": 75,
      "start": 11.9143,
      "duration": 0.0159,
      "velocity": 108,
      "chip": "ym2612"
    },
    {
      "channel": 0,
      "note": 77,
      "start": 11.9243,
      "duration": 0.0161,
      "velocity": 124,
      "chip": "ym2612"
    },
    {
      "channel": 5,
      "note": 75,
      "start": 11.9255,
      "duration": 0.016,
      "velocity": 108,
      "chip": "ym2612"
    },
    {
      "channel": 4,
      "note": 80,
      "start": 11.9267,
      "duration": 0.016,
      "velocity": 98,
      "chip": "ym2612"
    },
    {
      "channel": 3,
      "note": 83,
      "start": 11.9279,
      "duration": 0.016,
      "velocity": 98,
      "chip": "ym2612"
    },
    {
      "channel": 2,
      "note": 56,
      "start": 11.929,
      "duration": 0.016,
      "velocity": 93,
      "chip": "ym2612"
    },
    {
      "channel": 1,
      "note": 75,
      "start": 11.9302,
      "duration": 0.016,
      "velocity": 108,
      "chip": "ym2612"
    },
    {
      "channel": 0,
      "note": 75,
      "start": 11.9404,
      "duration": 0.0161,
      "velocity": 124,
      "chip": "ym2612"
    },
    {
      "channel": 5,
      "note": 75,
      "start": 11.9416,
      "duration": 0.0161,
      "velocity": 108,
      "chip": "ym2612"
    },
    {
      "channel": 4,
      "note": 80,
      "start": 11.9427,
      "duration": 0.0161,
      "velocity": 98,
      "chip": "ym2612"
    },
    {
      "channel": 3,
      "note": 83,
      "start": 11.9439,
      "duration": 0.0161,
      "velocity": 98,
      "chip": "ym2612"
    },
    {
      "channel": 2,
      "note": 56,
      "start": 11.9451,
      "duration": 0.0161,
      "velocity": 93,
      "chip": "ym2612"
    },
    {
      "channel": 1,
      "note": 75,
      "start": 11.9462,
      "duration": 0.0161,
      "velocity": 108,
      "chip": "ym2612"
    },
    {
      "channel": 0,
      "note": 72,
      "start": 11.9565,
      "duration": 0.0161,
      "velocity": 124,
      "chip": "ym2612"
    },
    {
      "channel": 5,
      "note": 75,
      "start": 11.9577,
      "duration": 0.0161,
      "velocity": 108,
      "chip": "ym2612"
    },
    {
      "channel": 4,
      "note": 80,
      "start": 11.9588,
      "duration": 0.0161,
      "velocity": 98,
      "chip": "ym2612"
    },
    {
      "channel": 3,
      "note": 83,
      "start": 11.96,
      "duration": 0.0161,
      "velocity": 98,
      "chip": "ym2612"
    },
    {
      "channel": 2,
      "note": 56,
      "start": 11.9612,
      "duration": 0.0161,
      "velocity": 93,
      "chip": "ym2612"
    },
    {
      "channel": 1,
      "note": 75,
      "start": 11.9623,
      "duration": 0.0161,
      "velocity": 108,
      "chip": "ym2612"
    },
    {
      "channel": 0,
      "note": 70,
      "start": 11.9726,
      "duration": 0.0161,
      "velocity": 124,
      "chip": "ym2612"
    },
    {
      "channel": 5,
      "note": 75,
      "start": 11.9738,
      "duration": 0.0161,
      "velocity": 108,
      "chip": "ym2612"
    },
    {
      "channel": 4,
      "note": 80,
      "start": 11.9749,
      "duration": 0.0162,
      "velocity": 98,
      "chip": "ym2612"
    },
    {
      "channel": 3,
      "note": 83,
      "start": 11.9761,
      "duration": 0.0161,
      "velocity": 98,
      "chip": "ym2612"
    },
    {
      "channel": 2,
      "note": 56,
      "start": 11.9773,
      "duration": 0.0161,
      "velocity": 93,
      "chip": "ym2612"
    },
    {
      "channel": 1,
      "note": 75,
      "start": 11.9784,
      "duration": 0.0161,
      "velocity": 108,
      "chip": "ym2612"
    },
    {
      "channel": 0,
      "note": 68,
      "start": 11.9887,
      "duration": 0.0161,
      "velocity": 124,
      "chip": "ym2612"
    },
    {
      "channel": 5,
      "note": 75,
      "start": 11.9899,
      "duration": 0.0161,
      "velocity": 108,
      "chip": "ym2612"
    },
    {
      "channel": 4,
      "note": 80,
      "start": 11.9911,
      "duration": 0.0161,
      "velocity": 98,
      "chip": "ym2612"
    },
    {
      "channel": 3,
      "note": 83,
      "start": 11.9922,
      "duration": 0.0161,
      "velocity": 98,
      "chip": "ym2612"
    },
    {
      "channel": 2,
      "note": 56,
      "start": 11.9934,
      "duration": 0.0161,
      "velocity": 93,
      "chip": "ym2612"
    },
    {
      "channel": 1,
      "note": 75,
      "start": 11.9945,
      "duration": 0.0161,
      "velocity": 108,
      "chip": "ym2612"
    },
    {
      "channel": 0,
      "note": 65,
      "start": 12.0048,
      "duration": 0.0161,
      "velocity": 124,
      "chip": "ym2612"
    },
    {
      "channel": 5,
      "note": 75,
      "start": 12.006,
      "duration": 0.0161,
      "velocity": 108,
      "chip": "ym2612"
    },
    {
      "channel": 4,
      "note": 80,
      "start": 12.0072,
      "duration": 0.0161,
      "velocity": 98,
      "chip": "ym2612"
    },
    {
      "channel": 3,
      "note": 83,
      "start": 12.0083,
      "duration": 0.0163,
      "velocity": 98,
      "chip": "ym2612"
    },
    {
      "channel": 2,
      "note": 56,
      "start": 12.0095,
      "duration": 0.0163,
      "velocity": 93,
      "chip": "ym2612"
    },
    {
      "channel": 1,
      "note": 75,
      "start": 12.0106,
      "duration": 0.0164,
      "velocity": 108,
      "chip": "ym2612"
    },
    {
      "channel": 0,
      "note": 63,
      "start": 12.0209,
      "duration": 0.0154,
      "velocity": 1,
      "chip": "ym2612"
    },
    {
      "channel": 5,
      "note": 75,
      "start": 12.0221,
      "duration": 0.0153,
      "velocity": 108,
      "chip": "ym2612"
    },
    {
      "channel": 4,
      "note": 80,
      "start": 12.0233,
      "duration": 0.0153,
      "velocity": 98,
      "chip": "ym2612"
    },
    {
      "channel": 3,
      "note": 83,
      "start": 12.0246,
      "duration": 0.0153,
      "velocity": 98,
      "chip": "ym2612"
    },
    {
      "channel": 2,
      "note": 56,
      "start": 12.0258,
      "duration": 0.0153,
      "velocity": 93,
      "chip": "ym2612"
    },
    {
      "channel": 1,
      "note": 75,
      "start": 12.027,
      "duration": 0.0153,
      "velocity": 108,
      "chip": "ym2612"
    },
    {
      "channel": 5,
      "note": 75,
      "start": 12.0374,
      "duration": 0.0156,
      "velocity": 108,
      "chip": "ym2612"
    },
    {
      "channel": 4,
      "note": 80,
      "start": 12.0386,
      "duration": 0.0156,
      "velocity": 98,
      "chip": "ym2612"
    },
    {
      "channel": 3,
      "note": 83,
      "start": 12.0399,
      "duration": 0.0156,
      "velocity": 98,
      "chip": "ym2612"
    },
    {
      "channel": 2,
      "note": 56,
      "start": 12.0411,
      "duration": 0.0156,
      "velocity": 93,
      "chip": "ym2612"
    },
    {
      "channel": 1,
      "note": 75,
      "start": 12.0423,
      "duration": 0.0156,
      "velocity": 108,
      "chip": "ym2612"
    },
    {
      "channel": 5,
      "note": 75,
      "start": 12.0531,
      "duration": 0.0163,
      "velocity": 108,
      "chip": "ym2612"
    },
    {
      "channel": 4,
      "note": 80,
      "start": 12.0543,
      "duration": 0.0162,
      "velocity": 98,
      "chip": "ym2612"
    },
    {
      "channel": 3,
      "note": 83,
      "start": 12.0555,
      "duration": 0.0161,
      "velocity": 98,
      "chip": "ym2612"
    },
    {
      "channel": 2,
      "note": 56,
      "start": 12.0567,
      "duration": 0.0161,
      "velocity": 93,
      "chip": "ym2612"
    },
    {
      "channel": 1,
      "note": 75,
      "start": 12.0579,
      "duration": 0.0161,
      "velocity": 108,
      "chip": "ym2612"
    },
    {
      "channel": 5,
      "note": 75,
      "start": 12.0694,
      "duration": 0.016,
      "velocity": 108,
      "chip": "ym2612"
    },
    {
      "channel": 4,
      "note": 80,
      "start": 12.0705,
      "duration": 0.016,
      "velocity": 98,
      "chip": "ym2612"
    },
    {
      "channel": 3,
      "note": 83,
      "start": 12.0717,
      "duration": 0.016,
      "velocity": 98,
      "chip": "ym2612"
    },
    {
      "channel": 2,
      "note": 56,
      "start": 12.0728,
      "duration": 0.0161,
      "velocity": 93,
      "chip": "ym2612"
    },
    {
      "channel": 1,
      "note": 75,
      "start": 12.074,
      "duration": 0.016,
      "velocity": 108,
      "chip": "ym2612"
    },
    {
      "channel": 5,
      "note": 75,
      "start": 12.0853,
      "duration": 0.0161,
      "velocity": 108,
      "chip": "ym2612"
    },
    {
      "channel": 4,
      "note": 80,
      "start": 12.0866,
      "duration": 0.0161,
      "velocity": 98,
      "chip": "ym2612"
    },
    {
      "channel": 3,
      "note": 83,
      "start": 12.0877,
      "duration": 0.0161,
      "velocity": 98,
      "chip": "ym2612"
    },
    {
      "channel": 2,
      "note": 56,
      "start": 12.0889,
      "duration": 0.0161,
      "velocity": 93,
      "chip": "ym2612"
    },
    {
      "channel": 1,
      "note": 75,
      "start": 12.09,
      "duration": 0.0161,
      "velocity": 108,
      "chip": "ym2612"
    },
    {
      "channel": 5,
      "note": 75,
      "start": 12.1014,
      "duration": 0.0156,
      "velocity": 108,
      "chip": "ym2612"
    },
    {
      "channel": 4,
      "note": 80,
      "start": 12.1027,
      "duration": 0.0161,
      "velocity": 98,
      "chip": "ym2612"
    },
    {
      "channel": 3,
      "note": 83,
      "start": 12.1038,
      "duration": 0.0162,
      "velocity": 98,
      "chip": "ym2612"
    },
    {
      "channel": 2,
      "note": 56,
      "start": 12.105,
      "duration": 0.0161,
      "velocity": 93,
      "chip": "ym2612"
    },
    {
      "channel": 1,
      "note": 75,
      "start": 12.1061,
      "duration": 0.0161,
      "velocity": 108,
      "chip": "ym2612"
    },
    {
      "channel": 5,
      "note": 75,
      "start": 12.117,
      "duration": 0.0161,
      "velocity": 108,
      "chip": "ym2612"
    },
    {
      "channel": 4,
      "note": 80,
      "start": 12.1187,
      "duration": 0.0162,
      "velocity": 98,
      "chip": "ym2612"
    },
    {
      "channel": 3,
      "note": 83,
      "start": 12.12,
      "duration": 0.0162,
      "velocity": 98,
      "chip": "ym2612"
    },
    {
      "channel": 2,
      "note": 56,
      "start": 12.1211,
      "duration": 0.0163,
      "velocity": 93,
      "chip": "ym2612"
    },
    {
      "channel": 1,
      "note": 75,
      "start": 12.1222,
      "duration": 0.0163,
      "velocity": 108,
      "chip": "ym2612"
    },
    {
      "channel": 5,
      "note": 75,
      "start": 12.1331,
      "duration": 0.0162,
      "velocity": 108,
      "chip": "ym2612"
    },
    {
      "channel": 4,
      "note": 80,
      "start": 12.1349,
      "duration": 0.0156,
      "velocity": 98,
      "chip": "ym2612"
    },
    {
      "channel": 3,
      "note": 83,
      "start": 12.1362,
      "duration": 0.0162,
      "velocity": 98,
      "chip": "ym2612"
    },
    {
      "channel": 2,
      "note": 56,
      "start": 12.1374,
      "duration": 0.0162,
      "velocity": 93,
      "chip": "ym2612"
    },
    {
      "channel": 1,
      "note": 75,
      "start": 12.1386,
      "duration": 0.0163,
      "velocity": 108,
      "chip": "ym2612"
    },
    {
      "channel": 5,
      "note": 75,
      "start": 12.1493,
      "duration": 0.0202,
      "velocity": 108,
      "chip": "ym2612"
    },
    {
      "channel": 2,
      "note": 56,
      "start": 12.1536,
      "duration": 0.0204,
      "velocity": 93,
      "chip": "ym2612"
    },
    {
      "channel": 0,
      "note": 36,
      "start": 12.1682,
      "duration": 0.0137,
      "velocity": 115,
      "chip": "ym2612"
    },
    {
      "channel": 5,
      "note": 75,
      "start": 12.1695,
      "duration": 0.0137,
      "velocity": 108,
      "chip": "ym2612"
    },
    {
      "channel": 4,
      "note": 80,
      "start": 12.171,
      "duration": 0.014,
      "velocity": 98,
      "chip": "ym2612"
    },
    {
      "channel": 3,
      "note": 83,
      "start": 12.1726,
      "duration": 0.0137,
      "velocity": 98,
      "chip": "ym2612"
    },
    {
      "channel": 2,
      "note": 56,
      "start": 12.1741,
      "duration": 0.0134,
      "velocity": 93,
      "chip": "ym2612"
    },
    {
      "channel": 1,
      "note": 75,
      "start": 12.1755,
      "duration": 0.0132,
      "velocity": 108,
      "chip": "ym2612"
    },
    {
      "channel": 0,
      "note": 36,
      "start": 12.182,
      "duration": 0.0161,
      "velocity": 115,
      "chip": "ym2612"
    },
    {
      "channel": 4,
      "note": 80,
      "start": 12.185,
      "duration": 0.0159,
      "velocity": 98,
      "chip": "ym2612"
    },
    {
      "channel": 3,
      "note": 83,
      "start": 12.1863,
      "duration": 0.0161,
      "velocity": 98,
      "chip": "ym2612"
    },
    {
      "channel": 2,
      "note": 56,
      "start": 12.1875,
      "duration": 0.0161,
      "velocity": 93,
      "chip": "ym2612"
    },
    {
      "channel": 1,
      "note": 75,
      "start": 12.1888,
      "duration": 0.016,
      "velocity": 108,
      "chip": "ym2612"
    },
    {
      "channel": 0,
      "note": 37,
      "start": 12.1981,
      "duration": 0.0161,
      "velocity": 115,
      "chip": "ym2612"
    },
    {
      "channel": 5,
      "note": 75,
      "start": 12.1995,
      "duration": 0.0159,
      "velocity": 108,
      "chip": "ym2612"
    },
    {
      "channel": 4,
      "note": 80,
      "start": 12.2009,
      "duration": 0.0156,
      "velocity": 98,
      "chip": "ym2612"
    },
    {
      "channel": 3,
      "note": 83,
      "start": 12.2024,
      "duration": 0.0158,
      "velocity": 98,
      "chip": "ym2612"
    },
    {
      "channel": 2,
      "note": 56,
      "start": 12.2036,
      "duration": 0.0158,
      "velocity": 93,
      "chip": "ym2612"
    },
    {
      "channel": 1,
      "note": 75,
      "start": 12.2048,
      "duration": 0.0158,
      "velocity": 108,
      "chip": "ym2612"
    },
    {
      "channel": 0,
      "note": 37,
      "start": 12.2141,
      "duration": 0.0161,
      "velocity": 115,
      "chip": "ym2612"
    },
    {
      "channel": 5,
      "note": 75,
      "start": 12.2154,
      "duration": 0.016,
      "velocity": 108,
      "chip": "ym2612"
    },
    {
      "channel": 4,
      "note": 80,
      "start": 12.2165,
      "duration": 0.016,
      "velocity": 98,
      "chip": "ym2612"
    },
    {
      "channel": 3,
      "note": 83,
      "start": 12.2182,
      "duration": 0.0155,
      "velocity": 98,
      "chip": "ym2612"
    },
    {
      "channel": 2,
      "note": 56,
      "start": 12.2194,
      "duration": 0.016,
      "velocity": 93,
      "chip": "ym2612"
    },
    {
      "channel": 1,
      "note": 75,
      "start": 12.2206,
      "duration": 0.016,
      "velocity": 108,
      "chip": "ym2612"
    },
    {
      "channel": 0,
      "note": 38,
      "start": 12.2302,
      "duration": 0.0161,
      "velocity": 115,
      "chip": "ym2612"
    },
    {
      "channel": 5,
      "note": 75,
      "start": 12.2314,
      "duration": 0.0161,
      "velocity": 108,
      "chip": "ym2612"
    },
    {
      "channel": 4,
      "note": 80,
      "start": 12.2325,
      "duration": 0.0161,
      "velocity": 98,
      "chip": "ym2612"
    },
    {
      "channel": 3,
      "note": 83,
      "start": 12.2337,
      "duration": 0.0161,
      "velocity": 98,
      "chip": "ym2612"
    },
    {
      "channel": 2,
      "note": 56,
      "start": 12.2355,
      "duration": 0.016,
      "velocity": 93,
      "chip": "ym2612"
    },
    {
      "channel": 1,
      "note": 75,
      "start": 12.2366,
      "duration": 0.0161,
      "velocity": 108,
      "chip": "ym2612"
    },
    {
      "channel": 0,
      "note": 38,
      "start": 12.2463,
      "duration": 0.0161,
      "velocity": 115,
      "chip": "ym2612"
    },
    {
      "channel": 5,
      "note": 75,
      "start": 12.2475,
      "duration": 0.0161,
      "velocity": 108,
      "chip": "ym2612"
    },
    {
      "channel": 4,
      "note": 80,
      "start": 12.2486,
      "duration": 0.0161,
      "velocity": 98,
      "chip": "ym2612"
    },
    {
      "channel": 3,
      "note": 83,
      "start": 12.2498,
      "duration": 0.0161,
      "velocity": 98,
      "chip": "ym2612"
    },
    {
      "channel": 2,
      "note": 56,
      "start": 12.2515,
      "duration": 0.0156,
      "velocity": 93,
      "chip": "ym2612"
    },
    {
      "channel": 1,
      "note": 75,
      "start": 12.2527,
      "duration": 0.0162,
      "velocity": 108,
      "chip": "ym2612"
    },
    {
      "channel": 0,
      "note": 39,
      "start": 12.2624,
      "duration": 0.0161,
      "velocity": 115,
      "chip": "ym2612"
    },
    {
      "channel": 5,
      "note": 75,
      "start": 12.2636,
      "duration": 0.0162,
      "velocity": 108,
      "chip": "ym2612"
    },
    {
      "channel": 4,
      "note": 80,
      "start": 12.2647,
      "duration": 0.0161,
      "velocity": 98,
      "chip": "ym2612"
    },
    {
      "channel": 3,
      "note": 83,
      "start": 12.2659,
      "duration": 0.0162,
      "velocity": 98,
      "chip": "ym2612"
    },
    {
      "channel": 2,
      "note": 56,
      "start": 12.2671,
      "duration": 0.0161,
      "velocity": 93,
      "chip": "ym2612"
    },
    {
      "channel": 1,
      "note": 75,
      "start": 12.2689,
      "duration": 0.016,
      "velocity": 108,
      "chip": "ym2612"
    },
    {
      "channel": 0,
      "note": 39,
      "start": 12.2785,
      "duration": 0.0161,
      "velocity": 115,
      "chip": "ym2612"
    },
    {
      "channel": 5,
      "note": 75,
      "start": 12.2798,
      "duration": 0.0161,
      "velocity": 108,
      "chip": "ym2612"
    },
    {
      "channel": 4,
      "note": 80,
      "start": 12.2809,
      "duration": 0.0161,
      "velocity": 98,
      "chip": "ym2612"
    },
    {
      "channel": 3,
      "note": 83,
      "start": 12.282,
      "duration": 0.0161,
      "velocity": 98,
      "chip": "ym2612"
    },
    {
      "channel": 2,
      "note": 56,
      "start": 12.2832,
      "duration": 0.0161,
      "velocity": 93,
      "chip": "ym2612"
    },
    {
      "channel": 1,
      "note": 75,
      "start": 12.2849,
      "duration": 0.0155,
      "velocity": 108,
      "chip": "ym2612"
    },
    {
      "channel": 0,
      "note": 40,
      "start": 12.2946,
      "duration": 0.0161,
      "velocity": 115,
      "chip": "ym2612"
    },
    {
      "channel": 5,
      "note": 75,
      "start": 12.2958,
      "duration": 0.0161,
      "velocity": 108,
      "chip": "ym2612"
    },
    {
      "channel": 4,
      "note": 80,
      "start": 12.297,
      "duration": 0.0161,
      "velocity": 98,
      "chip": "ym2612"
    },
    {
      "channel": 3,
      "note": 83,
      "start": 12.2981,
      "duration": 0.0162,
      "velocity": 98,
      "chip": "ym2612"
    },
    {
      "channel": 2,
      "note": 56,
      "start": 12.2993,
      "duration": 0.0163,
      "velocity": 93,
      "chip": "ym2612"
    },
    {
      "channel": 1,
      "note": 75,
      "start": 12.3004,
      "duration": 0.0163,
      "velocity": 108,
      "chip": "ym2612"
    },
    {
      "channel": 0,
      "note": 40,
      "start": 12.3107,
      "duration": 0.0161,
      "velocity": 115,
      "chip": "ym2612"
    },
    {
      "channel": 5,
      "note": 75,
      "start": 12.3119,
      "duration": 0.0161,
      "velocity": 108,
      "chip": "ym2612"
    },
    {
      "channel": 4,
      "note": 80,
      "start": 12.3131,
      "duration": 0.0161,
      "velocity": 98,
      "chip": "ym2612"
    },
    {
      "channel": 3,
      "note": 83,
      "start": 12.3144,
      "duration": 0.0161,
      "velocity": 98,
      "chip": "ym2612"
    },
    {
      "channel": 2,
      "note": 56,
      "start": 12.3156,
      "duration": 0.016,
      "velocity": 93,
      "chip": "ym2612"
    },
    {
      "channel": 1,
      "note": 75,
      "start": 12.3168,
      "duration": 0.016,
      "velocity": 108,
      "chip": "ym2612"
    },
    {
      "channel": 0,
      "note": 40,
      "start": 12.3268,
      "duration": 0.0161,
      "velocity": 115,
      "chip": "ym2612"
    },
    {
      "channel": 5,
      "note": 75,
      "start": 12.328,
      "duration": 0.0161,
      "velocity": 108,
      "chip": "ym2612"
    },
    {
      "channel": 4,
      "note": 80,
      "start": 12.3292,
      "duration": 0.0161,
      "velocity": 98,
      "chip": "ym2612"
    },
    {
      "channel": 3,
      "note": 83,
      "start": 12.3304,
      "duration": 0.0161,
      "velocity": 98,
      "chip": "ym2612"
    },
    {
      "channel": 2,
      "note": 56,
      "start": 12.3317,
      "duration": 0.0161,
      "velocity": 93,
      "chip": "ym2612"
    },
    {
      "channel": 1,
      "note": 75,
      "start": 12.3328,
      "duration": 0.0161,
      "velocity": 108,
      "chip": "ym2612"
    },
    {
      "channel": 0,
      "note": 41,
      "start": 12.3429,
      "duration": 0.0162,
      "velocity": 115,
      "chip": "ym2612"
    },
    {
      "channel": 5,
      "note": 75,
      "start": 12.3441,
      "duration": 0.0161,
      "velocity": 108,
      "chip": "ym2612"
    },
    {
      "channel": 4,
      "note": 80,
      "start": 12.3453,
      "duration": 0.016,
      "velocity": 98,
      "chip": "ym2612"
    },
    {
      "channel": 3,
      "note": 83,
      "start": 12.3465,
      "duration": 0.016,
      "velocity": 98,
      "chip": "ym2612"
    },
    {
      "channel": 2,
      "note": 56,
      "start": 12.3478,
      "duration": 0.0159,
      "velocity": 93,
      "chip": "ym2612"
    },
    {
      "channel": 0,
      "note": 41,
      "start": 12.3591,
      "duration": 0.0161,
      "velocity": 115,
      "chip": "ym2612"
    },
    {
      "channel": 5,
      "note": 75,
      "start": 12.3602,
      "duration": 0.0161,
      "velocity": 108,
      "chip": "ym2612"
    },
    {
      "channel": 4,
      "note": 80,
      "start": 12.3614,
      "duration": 0.0161,
      "velocity": 98,
      "chip": "ym2612"
    },
    {
      "channel": 3,
      "note": 83,
      "start": 12.3625,
      "duration": 0.0162,
      "velocity": 98,
      "chip": "ym2612"
    },
    {
      "channel": 2,
      "note": 56,
      "start": 12.3637,
      "duration": 0.0161,
      "velocity": 93,
      "chip": "ym2612"
    },
    {
      "channel": 1,
      "note": 71,
      "start": 12.3651,
      "duration": 0.0159,
      "velocity": 108,
      "chip": "ym2612"
    },
    {
      "channel": 0,
      "note": 42,
      "start": 12.3752,
      "duration": 0.0161,
      "velocity": 115,
      "chip": "ym2612"
    },
    {
      "channel": 4,
      "note": 80,
      "start": 12.3775,
      "duration": 0.0164,
      "velocity": 98,
      "chip": "ym2612"
    },
    {
      "channel": 3,
      "note": 83,
      "start": 12.3787,
      "duration": 0.0163,
      "velocity": 98,
      "chip": "ym2612"
    },
    {
      "channel": 2,
      "note": 56,
      "start": 12.3798,
      "duration": 0.0163,
      "velocity": 93,
      "chip": "ym2612"
    },
    {
      "channel": 1,
      "note": 71,
      "start": 12.381,
      "duration": 0.0163,
      "velocity": 108,
      "chip": "ym2612"
    },
    {
      "channel": 0,
      "note": 42,
      "start": 12.3912,
      "duration": 0.0161,
      "velocity": 115,
      "chip": "ym2612"
    },
    {
      "channel": 5,
      "note": 71,
      "start": 12.3927,
      "duration": 0.0158,
      "velocity": 108,
      "chip": "ym2612"
    },
    {
      "channel": 4,
      "note": 80,
      "start": 12.3939,
      "duration": 0.0159,
      "velocity": 98,
      "chip": "ym2612"
    },
    {
      "channel": 3,
      "note": 83,
      "start": 12.395,
      "duration": 0.0159,
      "velocity": 98,
      "chip": "ym2612"
    },
    {
      "channel": 2,
      "note": 56,
      "start": 12.3961,
      "duration": 0.0159,
      "velocity": 93,
      "chip": "ym2612"
    },
    {
      "channel": 1,
      "note": 71,
      "start": 12.3974,
      "duration": 0.0158,
      "velocity": 108,
      "chip": "ym2612"
    },
    {
      "channel": 0,
      "note": 43,
      "start": 12.4073,
      "duration": 0.0161,
      "velocity": 115,
      "chip": "ym2612"
    },
    {
      "channel": 5,
      "note": 71,
      "start": 12.4085,
      "duration": 0.016,
      "velocity": 108,
      "chip": "ym2612"
    },
    {
      "channel": 4,
      "note": 80,
      "start": 12.4097,
      "duration": 0.0161,
      "velocity": 98,
      "chip": "ym2612"
    },
    {
      "channel": 3,
      "note": 83,
      "start": 12.4109,
      "duration": 0.0162,
      "velocity": 98,
      "chip": "ym2612"
    },
    {
      "channel": 2,
      "note": 56,
      "start": 12.4121,
      "duration": 0.0162,
      "velocity": 93,
      "chip": "ym2612"
    },
    {
      "channel": 1,
      "note": 71,
      "start": 12.4132,
      "duration": 0.0162,
      "velocity": 108,
      "chip": "ym2612"
    },
    {
      "channel": 0,
      "note": 43,
      "start": 12.4234,
      "duration": 0.0161,
      "velocity": 115,
      "chip": "ym2612"
    },
    {
      "channel": 5,
      "note": 71,
      "start": 12.4246,
      "duration": 0.0162,
      "velocity": 108,
      "chip": "ym2612"
    },
    {
      "channel": 4,
      "note": 80,
      "start": 12.4258,
      "duration": 0.0161,
      "velocity": 98,
      "chip": "ym2612"
    },
    {
      "channel": 3,
      "note": 83,
      "start": 12.4271,
      "duration": 0.0161,
      "velocity": 98,
      "chip": "ym2612"
    },
    {
      "channel": 2,
      "note": 56,
      "start": 12.4283,
      "duration": 0.0162,
      "velocity": 93,
      "chip": "ym2612"
    },
    {
      "channel": 1,
      "note": 71,
      "start": 12.4294,
      "duration": 0.0162,
      "velocity": 108,
      "chip": "ym2612"
    },
    {
      "channel": 0,
      "note": 44,
      "start": 12.4395,
      "duration": 0.0179,
      "velocity": 124,
      "chip": "ym2612"
    },
    {
      "channel": 5,
      "note": 71,
      "start": 12.4407,
      "duration": 0.0179,
      "velocity": 108,
      "chip": "ym2612"
    },
    {
      "channel": 2,
      "note": 56,
      "start": 12.4445,
      "duration": 0.0187,
      "velocity": 93,
      "chip": "ym2612"
    },
    {
      "channel": 0,
      "note": 84,
      "start": 12.4576,
      "duration": 0.0142,
      "velocity": 124,
      "chip": "ym2612"
    },
    {
      "channel": 5,
      "note": 71,
      "start": 12.4587,
      "duration": 0.0143,
      "velocity": 108,
      "chip": "ym2612"
    },
    {
      "channel": 4,
      "note": 80,
      "start": 12.4602,
      "duration": 0.014,
      "velocity": 98,
      "chip": "ym2612"
    },
    {
      "channel": 3,
      "note": 83,
      "start": 12.4617,
      "duration": 0.0137,
      "velocity": 98,
      "chip": "ym2612"
    },
    {
      "channel": 2,
      "note": 56,
      "start": 12.4633,
      "duration": 0.0134,
      "velocity": 93,
      "chip": "ym2612"
    },
    {
      "channel": 1,
      "note": 73,
      "start": 12.4647,
      "duration": 0.0132,
      "velocity": 108,
      "chip": "ym2612"
    },
    {
      "channel": 0,
      "note": 82,
      "start": 12.4718,
      "duration": 0.0161,
      "velocity": 124,
      "chip": "ym2612"
    },
    {
      "channel": 4,
      "note": 80,
      "start": 12.4742,
      "duration": 0.0163,
      "velocity": 98,
      "chip": "ym2612"
    },
    {
      "channel": 3,
      "note": 83,
      "start": 12.4754,
      "duration": 0.0162,
      "velocity": 98,
      "chip": "ym2612"
    },
    {
      "channel": 2,
      "note": 56,
      "start": 12.4766,
      "duration": 0.0162,
      "velocity": 93,
      "chip": "ym2612"
    },
    {
      "channel": 1,
      "note": 73,
      "start": 12.4779,
      "duration": 0.016,
      "velocity": 108,
      "chip": "ym2612"
    },
    {
      "channel": 0,
      "note": 80,
      "start": 12.4879,
      "duration": 0.0161,
      "velocity": 124,
      "chip": "ym2612"
    },
    {
      "channel": 5,
      "note": 73,
      "start": 12.4893,
      "duration": 0.0159,
      "velocity": 108,
      "chip": "ym2612"
    },
    {
      "channel": 4,
      "note": 80,
      "start": 12.4905,
      "duration": 0.0158,
      "velocity": 98,
      "chip": "ym2612"
    },
    {
      "channel": 3,
      "note": 83,
      "start": 12.4916,
      "duration": 0.0159,
      "velocity": 98,
      "chip": "ym2612"
    },
    {
      "channel": 2,
      "note": 56,
      "start": 12.4928,
      "duration": 0.0158,
      "velocity": 93,
      "chip": "ym2612"
    },
    {
      "channel": 1,
      "note": 73,
      "start": 12.4939,
      "duration": 0.0159,
      "velocity": 108,
      "chip": "ym2612"
    },
    {
      "channel": 0,
      "note": 77,
      "start": 12.504,
      "duration": 0.0162,
      "velocity": 124,
      "chip": "ym2612"
    },
    {
      "channel": 5,
      "note": 73,
      "start": 12.5052,
      "duration": 0.0161,
      "velocity": 108,
      "chip": "ym2612"
    },
    {
      "channel": 4,
      "note": 80,
      "start": 12.5063,
      "duration": 0.0161,
      "velocity": 98,
      "chip": "ym2612"
    },
    {
      "channel": 3,
      "note": 83,
      "start": 12.5075,
      "duration": 0.0161,
      "velocity": 98,
      "chip": "ym2612"
    },
    {
      "channel": 2,
      "note": 56,
      "start": 12.5086,
      "duration": 0.0162,
      "velocity": 93,
      "chip": "ym2612"
    },
    {
      "channel": 1,
      "note": 73,
      "start": 12.5098,
      "duration": 0.0161,
      "velocity": 108,
      "chip": "ym2612"
    },
    {
      "channel": 0,
      "note": 75,
      "start": 12.5201,
      "duration": 0.0164,
      "velocity": 124,
      "chip": "ym2612"
    },
    {
      "channel": 5,
      "note": 73,
      "start": 12.5213,
      "duration": 0.0164,
      "velocity": 108,
      "chip": "ym2612"
    },
    {
      "channel": 4,
      "note": 80,
      "start": 12.5224,
      "duration": 0.0164,
      "velocity": 98,
      "chip": "ym2612"
    },
    {
      "channel": 3,
      "note": 83,
      "start": 12.5236,
      "duration": 0.0165,
      "velocity": 98,
      "chip": "ym2612"
    },
    {
      "channel": 2,
      "note": 56,
      "start": 12.5248,
      "duration": 0.0164,
      "velocity": 93,
      "chip": "ym2612"
    },
    {
      "channel": 1,
      "note": 73,
      "start": 12.5259,
      "duration": 0.0164,
      "velocity": 108,
      "chip": "ym2612"
    },
    {
      "channel": 0,
      "note": 72,
      "start": 12.5366,
      "duration": 0.0163,
      "velocity": 124,
      "chip": "ym2612"
    },
    {
      "channel": 5,
      "note": 73,
      "start": 12.5377,
      "duration": 0.0163,
      "velocity": 108,
      "chip": "ym2612"
    },
    {
      "channel": 4,
      "note": 80,
      "start": 12.5388,
      "duration": 0.0163,
      "velocity": 98,
      "chip": "ym2612"
    },
    {
      "channel": 3,
      "note": 83,
      "start": 12.54,
      "duration": 0.0163,
      "velocity": 98,
      "chip": "ym2612"
    },
    {
      "channel": 2,
      "note": 56,
      "start": 12.5412,
      "duration": 0.0163,
      "velocity": 93,
      "chip": "ym2612"
    },
    {
      "channel": 1,
      "note": 73,
      "start": 12.5423,
      "duration": 0.0163,
      "velocity": 108,
      "chip": "ym2612"
    },
    {
      "channel": 0,
      "note": 70,
      "start": 12.5528,
      "duration": 0.0162,
      "velocity": 124,
      "chip": "ym2612"
    },
    {
      "channel": 5,
      "note": 73,
      "start": 12.554,
      "duration": 0.0161,
      "velocity": 108,
      "chip": "ym2612"
    },
    {
      "channel": 4,
      "note": 80,
      "start": 12.5552,
      "duration": 0.0161,
      "velocity": 98,
      "chip": "ym2612"
    },
    {
      "channel": 3,
      "note": 83,
      "start": 12.5563,
      "duration": 0.0161,
      "velocity": 98,
      "chip": "ym2612"
    },
    {
      "channel": 2,
      "note": 56,
      "start": 12.5575,
      "duration": 0.0161,
      "velocity": 93,
      "chip": "ym2612"
    },
    {
      "channel": 1,
      "note": 73,
      "start": 12.5587,
      "duration": 0.0161,
      "velocity": 108,
      "chip": "ym2612"
    },
    {
      "channel": 0,
      "note": 68,
      "start": 12.569,
      "duration": 0.016,
      "velocity": 124,
      "chip": "ym2612"
    },
    {
      "channel": 5,
      "note": 73,
      "start": 12.5701,
      "duration": 0.016,
      "velocity": 108,
      "chip": "ym2612"
    },
    {
      "channel": 4,
      "note": 80,
      "start": 12.5713,
      "duration": 0.0161,
      "velocity": 98,
      "chip": "ym2612"
    },
    {
      "channel": 3,
      "note": 83,
      "start": 12.5724,
      "duration": 0.0161,
      "velocity": 98,
      "chip": "ym2612"
    },
    {
      "channel": 2,
      "note": 56,
      "start": 12.5736,
      "duration": 0.016,
      "velocity": 93,
      "chip": "ym2612"
    },
    {
      "channel": 1,
      "note": 73,
      "start": 12.5748,
      "duration": 0.016,
      "velocity": 108,
      "chip": "ym2612"
    },
    {
      "channel": 0,
      "note": 65,
      "start": 12.585,
      "duration": 0.0158,
      "velocity": 124,
      "chip": "ym2612"
    },
    {
      "channel": 5,
      "note": 73,
      "start": 12.5862,
      "duration": 0.0162,
      "velocity": 108,
      "chip": "ym2612"
    },
    {
      "channel": 4,
      "note": 80,
      "start": 12.5874,
      "duration": 0.0162,
      "velocity": 98,
      "chip": "ym2612"
    },
    {
      "channel": 3,
      "note": 83,
      "start": 12.5885,
      "duration": 0.0163,
      "velocity": 98,
      "chip": "ym2612"
    },
    {
      "channel": 2,
      "note": 56,
      "start": 12.5897,
      "duration": 0.0163,
      "velocity": 93,
      "chip": "ym2612"
    },
    {
      "channel": 1,
      "note": 73,
      "start": 12.5908,
      "duration": 0.0164,
      "velocity": 108,
      "chip": "ym2612"
    },
    {
      "channel": 0,
      "note": 63,
      "start": 12.6008,
      "duration": 0.0151,
      "velocity": 1,
      "chip": "ym2612"
    },
    {
      "channel": 5,
      "note": 73,
      "start": 12.6023,
      "duration": 0.0147,
      "velocity": 108,
      "chip": "ym2612"
    },
    {
      "channel": 4,
      "note": 80,
      "start": 12.6035,
      "duration": 0.0153,
      "velocity": 98,
      "chip": "ym2612"
    },
    {
      "channel": 3,
      "note": 83,
      "start": 12.6048,
      "duration": 0.0152,
      "velocity": 98,
      "chip": "ym2612"
    },
    {
      "channel": 2,
      "note": 56,
      "start": 12.606,
      "duration": 0.0152,
      "velocity": 93,
      "chip": "ym2612"
    },
    {
      "channel": 1,
      "note": 73,
      "start": 12.6072,
      "duration": 0.0151,
      "velocity": 108,
      "chip": "ym2612"
    },
    {
      "channel": 5,
      "note": 73,
      "start": 12.617,
      "duration": 0.0152,
      "velocity": 108,
      "chip": "ym2612"
    },
    {
      "channel": 4,
      "note": 80,
      "start": 12.6188,
      "duration": 0.0147,
      "velocity": 98,
      "chip": "ym2612"
    },
    {
      "channel": 3,
      "note": 83,
      "start": 12.62,
      "duration": 0.0153,
      "velocity": 98,
      "chip": "ym2612"
    },
    {
      "channel": 2,
      "note": 56,
      "start": 12.6212,
      "duration": 0.0153,
      "velocity": 93,
      "chip": "ym2612"
    },
    {
      "channel": 1,
      "note": 73,
      "start": 12.6224,
      "duration": 0.0153,
      "velocity": 108,
      "chip": "ym2612"
    },
    {
      "channel": 5,
      "note": 73,
      "start": 12.6322,
      "duration": 0.0202,
      "velocity": 108,
      "chip": "ym2612"
    },
    {
      "channel": 4,
      "note": 80,
      "start": 12.6335,
      "duration": 0.0202,
      "velocity": 98,
      "chip": "ym2612"
    },
    {
      "channel": 3,
      "note": 83,
      "start": 12.6353,
      "duration": 0.0195,
      "velocity": 98,
      "chip": "ym2612"
    },
    {
      "channel": 2,
      "note": 56,
      "start": 12.6365,
      "duration": 0.0195,
      "velocity": 93,
      "chip": "ym2612"
    },
    {
      "channel": 0,
      "note": 36,
      "start": 12.6509,
      "duration": 0.0141,
      "velocity": 115,
      "chip": "ym2612"
    },
    {
      "channel": 5,
      "note": 73,
      "start": 12.6524,
      "duration": 0.0137,
      "velocity": 108,
      "chip": "ym2612"
    },
    {
      "channel": 4,
      "note": 80,
      "start": 12.6537,
      "duration": 0.0139,
      "velocity": 98,
      "chip": "ym2612"
    },
    {
      "channel": 3,
      "note": 83,
      "start": 12.6548,
      "duration": 0.0143,
      "velocity": 98,
      "chip": "ym2612"
    },
    {
      "channel": 2,
      "note": 56,
      "start": 12.6559,
      "duration": 0.0143,
      "velocity": 93,
      "chip": "ym2612"
    },
    {
      "channel": 1,
      "note": 71,
      "start": 12.6575,
      "duration": 0.014,
      "velocity": 108,
      "chip": "ym2612"
    },
    {
      "channel": 0,
      "note": 36,
      "start": 12.6651,
      "duration": 0.016,
      "velocity": 115,
      "chip": "ym2612"
    },
    {
      "channel": 4,
      "note": 80,
      "start": 12.6676,
      "duration": 0.0161,
      "velocity": 98,
      "chip": "ym2612"
    },
    {
      "channel": 3,
      "note": 83,
      "start": 12.6691,
      "duration": 0.0163,
      "velocity": 98,
      "chip": "ym2612"
    },
    {
      "channel": 2,
      "note": 56,
      "start": 12.6703,
      "duration": 0.0163,
      "velocity": 93,
      "chip": "ym2612"
    },
    {
      "channel": 1,
      "note": 71,
      "start": 12.6715,
      "duration": 0.0163,
      "velocity": 108,
      "chip": "ym2612"
    },
    {
      "channel": 0,
      "note": 37,
      "start": 12.6811,
      "duration": 0.0161,
      "velocity": 115,
      "chip": "ym2612"
    },
    {
      "channel": 5,
      "note": 71,
      "start": 12.6826,
      "duration": 0.0158,
      "velocity": 108,
      "chip": "ym2612"
    },
    {
      "channel": 4,
      "note": 80,
      "start": 12.6837,
      "duration": 0.0158,
      "velocity": 98,
      "chip": "ym2612"
    },
    {
      "channel": 3,
      "note": 83,
      "start": 12.6855,
      "duration": 0.0155,
      "velocity": 98,
      "chip": "ym2612"
    },
    {
      "channel": 2,
      "note": 56,
      "start": 12.6866,
      "duration": 0.0158,
      "velocity": 93,
      "chip": "ym2612"
    },
    {
      "channel": 1,
      "note": 71,
      "start": 12.6878,
      "duration": 0.0158,
      "velocity": 108,
      "chip": "ym2612"
    },
    {
      "channel": 0,
      "note": 37,
      "start": 12.6972,
      "duration": 0.0161,
      "velocity": 115,
      "chip": "ym2612"
    },
    {
      "channel": 5,
      "note": 71,
      "start": 12.6984,
      "duration": 0.016,
      "velocity": 108,
      "chip": "ym2612"
    },
    {
      "channel": 4,
      "note": 80,
      "start": 12.6995,
      "duration": 0.0161,
      "velocity": 98,
      "chip": "ym2612"
    },
    {
      "channel": 3,
      "note": 83,
      "start": 12.7009,
      "duration": 0.0159,
      "velocity": 98,
      "chip": "ym2612"
    },
    {
      "channel": 2,
      "note": 56,
      "start": 12.7024,
      "duration": 0.0162,
      "velocity": 93,
      "chip": "ym2612"
    },
    {
      "channel": 1,
      "note": 71,
      "start": 12.7037,
      "duration": 0.0162,
      "velocity": 108,
      "chip": "ym2612"
    },
    {
      "channel": 0,
      "note": 38,
      "start": 12.7133,
      "duration": 0.0161,
      "velocity": 115,
      "chip": "ym2612"
    },
    {
      "channel": 5,
      "note": 71,
      "start": 12.7144,
      "duration": 0.0161,
      "velocity": 108,
      "chip": "ym2612"
    },
    {
      "channel": 4,
      "note": 80,
      "start": 12.7156,
      "duration": 0.0161,
      "velocity": 98,
      "chip": "ym2612"
    },
    {
      "channel": 3,
      "note": 83,
      "start": 12.7168,
      "duration": 0.0162,
      "velocity": 98,
      "chip": "ym2612"
    },
    {
      "channel": 2,
      "note": 56,
      "start": 12.7187,
      "duration": 0.0162,
      "velocity": 93,
      "chip": "ym2612"
    },
    {
      "channel": 1,
      "note": 71,
      "start": 12.7198,
      "duration": 0.0162,
      "velocity": 108,
      "chip": "ym2612"
    },
    {
      "channel": 0,
      "note": 38,
      "start": 12.7294,
      "duration": 0.0161,
      "velocity": 115,
      "chip": "ym2612"
    },
    {
      "channel": 5,
      "note": 71,
      "start": 12.7306,
      "duration": 0.0161,
      "velocity": 108,
      "chip": "ym2612"
    },
    {
      "channel": 2,
      "note": 56,
      "start": 12.7348,
      "duration": 0.0168,
      "velocity": 93,
      "chip": "ym2612"
    },
    {
      "channel": 1,
      "note": 71,
      "start": 12.736,
      "duration": 0.017,
      "velocity": 108,
      "chip": "ym2612"
    },
    {
      "channel": 0,
      "note": 39,
      "start": 12.7455,
      "duration": 0.0161,
      "velocity": 115,
      "chip": "ym2612"
    },
    {
      "channel": 5,
      "note": 71,
      "start": 12.7467,
      "duration": 0.0161,
      "velocity": 108,
      "chip": "ym2612"
    },
    {
      "channel": 4,
      "note": 80,
      "start": 12.7482,
      "duration": 0.0158,
      "velocity": 98,
      "chip": "ym2612"
    },
    {
      "channel": 3,
      "note": 83,
      "start": 12.7497,
      "duration": 0.0154,
      "velocity": 98,
      "chip": "ym2612"
    },
    {
      "channel": 2,
      "note": 56,
      "start": 12.7517,
      "duration": 0.0146,
      "velocity": 93,
      "chip": "ym2612"
    },
    {
      "channel": 1,
      "note": 71,
      "start": 12.753,
      "duration": 0.0151,
      "velocity": 108,
      "chip": "ym2612"
    },
    {
      "channel": 0,
      "note": 39,
      "start": 12.7615,
      "duration": 0.0161,
      "velocity": 115,
      "chip": "ym2612"
    },
    {
      "channel": 5,
      "note": 71,
      "start": 12.7628,
      "duration": 0.0161,
      "velocity": 108,
      "chip": "ym2612"
    },
    {
      "channel": 4,
      "note": 80,
      "start": 12.764,
      "duration": 0.0161,
      "velocity": 98,
      "chip": "ym2612"
    },
    {
      "channel": 3,
      "note": 83,
      "start": 12.7652,
      "duration": 0.016,
      "velocity": 98,
      "chip": "ym2612"
    },
    {
      "channel": 2,
      "note": 56,
      "start": 12.7664,
      "duration": 0.016,
      "velocity": 93,
      "chip": "ym2612"
    },
    {
      "channel": 1,
      "note": 71,
      "start": 12.7681,
      "duration": 0.0155,
      "velocity": 108,
      "chip": "ym2612"
    },
    {
      "channel": 0,
      "note": 40,
      "start": 12.7776,
      "duration": 0.0161,
      "velocity": 115,
      "chip": "ym2612"
    },
    {
      "channel": 5,
      "note": 71,
      "start": 12.7789,
      "duration": 0.0161,
      "velocity": 108,
      "chip": "ym2612"
    },
    {
      "channel": 4,
      "note": 80,
      "start": 12.7801,
      "duration": 0.0161,
      "velocity": 98,
      "chip": "ym2612"
    },
    {
      "channel": 3,
      "note": 83,
      "start": 12.7812,
      "duration": 0.0161,
      "velocity": 98,
      "chip": "ym2612"
    },
    {
      "channel": 2,
      "note": 56,
      "start": 12.7824,
      "duration": 0.0161,
      "velocity": 93,
      "chip": "ym2612"
    },
    {
      "channel": 1,
      "note": 71,
      "start": 12.7836,
      "duration": 0.016,
      "velocity": 108,
      "chip": "ym2612"
    },
    {
      "channel": 0,
      "note": 40,
      "start": 12.7937,
      "duration": 0.0161,
      "velocity": 115,
      "chip": "ym2612"
    },
    {
      "channel": 5,
      "note": 71,
      "start": 12.795,
      "duration": 0.016,
      "velocity": 108,
      "chip": "ym2612"
    },
    {
      "channel": 4,
      "note": 80,
      "start": 12.7961,
      "duration": 0.016,
      "velocity": 98,
      "chip": "ym2612"
    },
    {
      "channel": 3,
      "note": 83,
      "start": 12.7973,
      "duration": 0.016,
      "velocity": 98,
      "chip": "ym2612"
    },
    {
      "channel": 2,
      "note": 56,
      "start": 12.7984,
      "duration": 0.0161,
      "velocity": 93,
      "chip": "ym2612"
    },
    {
      "channel": 1,
      "note": 71,
      "start": 12.7997,
      "duration": 0.016,
      "velocity": 108,
      "chip": "ym2612"
    },
    {
      "channel": 0,
      "note": 40,
      "start": 12.8099,
      "duration": 0.0161,
      "velocity": 115,
      "chip": "ym2612"
    },
    {
      "channel": 5,
      "note": 71,
      "start": 12.811,
      "duration": 0.0161,
      "velocity": 108,
      "chip": "ym2612"
    },
    {
      "channel": 4,
      "note": 80,
      "start": 12.8122,
      "duration": 0.0161,
      "velocity": 98,
      "chip": "ym2612"
    },
    {
      "channel": 3,
      "note": 83,
      "start": 12.8133,
      "duration": 0.0161,
      "velocity": 98,
      "chip": "ym2612"
    },
    {
      "channel": 2,
      "note": 56,
      "start": 12.8145,
      "duration": 0.0161,
      "velocity": 93,
      "chip": "ym2612"
    },
    {
      "channel": 1,
      "note": 71,
      "start": 12.8157,
      "duration": 0.0161,
      "velocity": 108,
      "chip": "ym2612"
    },
    {
      "channel": 0,
      "note": 41,
      "start": 12.826,
      "duration": 0.0161,
      "velocity": 115,
      "chip": "ym2612"
    },
    {
      "channel": 5,
      "note": 71,
      "start": 12.8271,
      "duration": 0.0161,
      "velocity": 108,
      "chip": "ym2612"
    },
    {
      "channel": 4,
      "note": 80,
      "start": 12.8283,
      "duration": 0.0161,
      "velocity": 98,
      "chip": "ym2612"
    },
    {
      "channel": 3,
      "note": 83,
      "start": 12.8294,
      "duration": 0.0161,
      "velocity": 98,
      "chip": "ym2612"
    },
    {
      "channel": 2,
      "note": 56,
      "start": 12.8306,
      "duration": 0.0161,
      "velocity": 93,
      "chip": "ym2612"
    },
    {
      "channel": 0,
      "note": 41,
      "start": 12.8421,
      "duration": 0.0161,
      "velocity": 115,
      "chip": "ym2612"
    },
    {
      "channel": 5,
      "note": 71,
      "start": 12.8432,
      "duration": 0.0161,
      "velocity": 108,
      "chip": "ym2612"
    },
    {
      "channel": 4,
      "note": 80,
      "start": 12.8444,
      "duration": 0.0161,
      "velocity": 98,
      "chip": "ym2612"
    },
    {
      "channel": 3,
      "note": 83,
      "start": 12.8455,
      "duration": 0.0162,
      "velocity": 98,
      "chip": "ym2612"
    },
    {
      "channel": 2,
      "note": 56,
      "start": 12.8467,
      "duration": 0.0161,
      "velocity": 93,
      "chip": "ym2612"
    },
    {
      "channel": 0,
      "note": 42,
      "start": 12.8582,
      "duration": 0.0161,
      "velocity": 115,
      "chip": "ym2612"
    },
    {
      "channel": 4,
      "note": 80,
      "start": 12.8605,
      "duration": 0.0163,
      "velocity": 98,
      "chip": "ym2612"
    },
    {
      "channel": 3,
      "note": 83,
      "start": 12.8617,
      "duration": 0.0163,
      "velocity": 98,
      "chip": "ym2612"
    },
    {
      "channel": 2,
      "note": 56,
      "start": 12.8628,
      "duration": 0.0163,
      "velocity": 93,
      "chip": "ym2612"
    },
    {
      "channel": 0,
      "note": 42,
      "start": 12.8743,
      "duration": 0.0161,
      "velocity": 115,
      "chip": "ym2612"
    },
    {
      "channel": 4,
      "note": 80,
      "start": 12.8768,
      "duration": 0.016,
      "velocity": 98,
      "chip": "ym2612"
    },
    {
      "channel": 3,
      "note": 83,
      "start": 12.878,
      "duration": 0.0162,
      "velocity": 98,
      "chip": "ym2612"
    },
    {
      "channel": 2,
      "note": 56,
      "start": 12.8791,
      "duration": 0.0162,
      "velocity": 93,
      "chip": "ym2612"
    },
    {
      "channel": 0,
      "note": 43,
      "start": 12.8904,
      "duration": 0.0161,
      "velocity": 115,
      "chip": "ym2612"
    },
    {
      "channel": 4,
      "note": 80,
      "start": 12.8929,
      "duration": 0.0161,
      "velocity": 98,
      "chip": "ym2612"
    },
    {
      "channel": 3,
      "note": 83,
      "start": 12.8941,
      "duration": 0.016,
      "velocity": 98,
      "chip": "ym2612"
    },
    {
      "channel": 2,
      "note": 56,
      "start": 12.8953,
      "duration": 0.016,
      "velocity": 93,
      "chip": "ym2612"
    },
    {
      "channel": 0,
      "note": 43,
      "start": 12.9065,
      "duration": 0.0161,
      "velocity": 115,
      "chip": "ym2612"
    },
    {
      "channel": 4,
      "note": 80,
      "start": 12.9089,
      "duration": 0.0161,
      "velocity": 98,
      "chip": "ym2612"
    },
    {
      "channel": 3,
      "note": 83,
      "start": 12.9102,
      "duration": 0.0161,
      "velocity": 98,
      "chip": "ym2612"
    },
    {
      "channel": 2,
      "note": 56,
      "start": 12.9114,
      "duration": 0.0161,
      "velocity": 93,
      "chip": "ym2612"
    },
    {
      "channel": 0,
      "note": 44,
      "start": 12.9226,
      "duration": 0.0179,
      "velocity": 115,
      "chip": "ym2612"
    },
    {
      "channel": 4,
      "note": 80,
      "start": 12.925,
      "duration": 0.0179,
      "velocity": 98,
      "chip": "ym2612"
    },
    {
      "channel": 3,
      "note": 83,
      "start": 12.9263,
      "duration": 0.0178,
      "velocity": 98,
      "chip": "ym2612"
    },
    {
      "channel": 2,
      "note": 56,
      "start": 12.9275,
      "duration": 0.0178,
      "velocity": 93,
      "chip": "ym2612"
    },
    {
      "channel": 0,
      "note": 36,
      "start": 12.9406,
      "duration": 0.0143,
      "velocity": 115,
      "chip": "ym2612"
    },
    {
      "channel": 4,
      "note": 80,
      "start": 12.9429,
      "duration": 0.0143,
      "velocity": 98,
      "chip": "ym2612"
    },
    {
      "channel": 3,
      "note": 83,
      "start": 12.9441,
      "duration": 0.0143,
      "velocity": 98,
      "chip": "ym2612"
    },
    {
      "channel": 2,
      "note": 56,
      "start": 12.9453,
      "duration": 0.0143,
      "velocity": 93,
      "chip": "ym2612"
    },
    {
      "channel": 1,
      "note": 68,
      "start": 12.9481,
      "duration": 0.0127,
      "velocity": 103,
      "chip": "ym2612"
    },
    {
      "channel": 0,
      "note": 36,
      "start": 12.9549,
      "duration": 0.016,
      "velocity": 115,
      "chip": "ym2612"
    },
    {
      "channel": 4,
      "note": 80,
      "start": 12.9572,
      "duration": 0.0161,
      "velocity": 98,
      "chip": "ym2612"
    },
    {
      "channel": 3,
      "note": 83,
      "start": 12.9584,
      "duration": 0.016,
      "velocity": 98,
      "chip": "ym2612"
    },
    {
      "channel": 2,
      "note": 56,
      "start": 12.9596,
      "duration": 0.016,
      "velocity": 93,
      "chip": "ym2612"
    },
    {
      "channel": 1,
      "note": 68,
      "start": 12.9608,
      "duration": 0.016,
      "velocity": 103,
      "chip": "ym2612"
    },
    {
      "channel": 0,
      "note": 37,
      "start": 12.9709,
      "duration": 0.0161,
      "velocity": 115,
      "chip": "ym2612"
    },
    {
      "channel": 4,
      "note": 80,
      "start": 12.9733,
      "duration": 0.0162,
      "velocity": 98,
      "chip": "ym2612"
    },
    {
      "channel": 3,
      "note": 83,
      "start": 12.9745,
      "duration": 0.0161,
      "velocity": 98,
      "chip": "ym2612"
    },
    {
      "channel": 2,
      "note": 56,
      "start": 12.9756,
      "duration": 0.0162,
      "velocity": 93,
      "chip": "ym2612"
    },
    {
      "channel": 1,
      "note": 68,
      "start": 12.9768,
      "duration": 0.0161,
      "velocity": 103,
      "chip": "ym2612"
    },
    {
      "channel": 0,
      "note": 37,
      "start": 12.9871,
      "duration": 0.0163,
      "velocity": 115,
      "chip": "ym2612"
    },
    {
      "channel": 4,
      "note": 80,
      "start": 12.9895,
      "duration": 0.0164,
      "velocity": 98,
      "chip": "ym2612"
    },
    {
      "channel": 3,
      "note": 83,
      "start": 12.9906,
      "duration": 0.0165,
      "velocity": 98,
      "chip": "ym2612"
    },
    {
      "channel": 2,
      "note": 56,
      "start": 12.9918,
      "duration": 0.0165,
      "velocity": 93,
      "chip": "ym2612"
    },
    {
      "channel": 1,
      "note": 68,
      "start": 12.9929,
      "duration": 0.0166,
      "velocity": 103,
      "chip": "ym2612"
    },
    {
      "channel": 0,
      "note": 38,
      "start": 13.0034,
      "duration": 0.0163,
      "velocity": 115,
      "chip": "ym2612"
    },
    {
      "channel": 4,
      "note": 80,
      "start": 13.0059,
      "duration": 0.0163,
      "velocity": 98,
      "chip": "ym2612"
    },
    {
      "channel": 3,
      "note": 83,
      "start": 13.0071,
      "duration": 0.0164,
      "velocity": 98,
      "chip": "ym2612"
    },
    {
      "channel": 2,
      "note": 56,
      "start": 13.0083,
      "duration": 0.0164,
      "velocity": 93,
      "chip": "ym2612"
    },
    {
      "channel": 0,
      "note": 38,
      "start": 13.0197,
      "duration": 0.018,
      "velocity": 124,
      "chip": "ym2612"
    },
    {
      "channel": 2,
      "note": 56,
      "start": 13.0247,
      "duration": 0.0203,
      "velocity": 93,
      "chip": "ym2612"
    },
    {
      "channel": 0,
      "note": 84,
      "start": 13.0378,
      "duration": 0.0142,
      "velocity": 124,
      "chip": "ym2612"
    },
    {
      "channel": 5,
      "note": 68,
      "start": 13.0406,
      "duration": 0.0127,
      "velocity": 102,
      "chip": "ym2612"
    },
    {
      "channel": 4,
      "note": 80,
      "start": 13.0421,
      "duration": 0.0124,
      "velocity": 98,
      "chip": "ym2612"
    },
    {
      "channel": 3,
      "note": 83,
      "start": 13.0435,
      "duration": 0.0122,
      "velocity": 98,
      "chip": "ym2612"
    },
    {
      "channel": 2,
      "note": 56,
      "start": 13.0451,
      "duration": 0.0118,
      "velocity": 93,
      "chip": "ym2612"
    },
    {
      "channel": 1,
      "note": 69,
      "start": 13.0465,
      "duration": 0.0116,
      "velocity": 103,
      "chip": "ym2612"
    },
    {
      "channel": 0,
      "note": 82,
      "start": 13.052,
      "duration": 0.016,
      "velocity": 124,
      "chip": "ym2612"
    },
    {
      "channel": 5,
      "note": 68,
      "start": 13.0533,
      "duration": 0.016,
      "velocity": 102,
      "chip": "ym2612"
    },
    {
      "channel": 4,
      "note": 80,
      "start": 13.0545,
      "duration": 0.0159,
      "velocity": 98,
      "chip": "ym2612"
    },
    {
      "channel": 3,
      "note": 83,
      "start": 13.0557,
      "duration": 0.0159,
      "velocity": 98,
      "chip": "ym2612"
    },
    {
      "channel": 2,
      "note": 56,
      "start": 13.0569,
      "duration": 0.0158,
      "velocity": 93,
      "chip": "ym2612"
    },
    {
      "channel": 1,
      "note": 69,
      "start": 13.0581,
      "duration": 0.0158,
      "velocity": 103,
      "chip": "ym2612"
    },
    {
      "channel": 0,
      "note": 80,
      "start": 13.068,
      "duration": 0.0156,
      "velocity": 124,
      "chip": "ym2612"
    },
    {
      "channel": 5,
      "note": 68,
      "start": 13.0693,
      "duration": 0.0161,
      "velocity": 102,
      "chip": "ym2612"
    },
    {
      "channel": 4,
      "note": 80,
      "start": 13.0704,
      "duration": 0.0161,
      "velocity": 98,
      "chip": "ym2612"
    },
    {
      "channel": 3,
      "note": 83,
      "start": 13.0715,
      "duration": 0.0161,
      "velocity": 98,
      "chip": "ym2612"
    },
    {
      "channel": 2,
      "note": 56,
      "start": 13.0727,
      "duration": 0.0161,
      "velocity": 93,
      "chip": "ym2612"
    },
    {
      "channel": 1,
      "note": 69,
      "start": 13.0739,
      "duration": 0.0161,
      "velocity": 103,
      "chip": "ym2612"
    },
    {
      "channel": 0,
      "note": 77,
      "start": 13.0836,
      "duration": 0.0161,
      "velocity": 124,
      "chip": "ym2612"
    },
    {
      "channel": 5,
      "note": 68,
      "start": 13.0853,
      "duration": 0.016,
      "velocity": 102,
      "chip": "ym2612"
    },
    {
      "channel": 4,
      "note": 80,
      "start": 13.0865,
      "duration": 0.0161,
      "velocity": 98,
      "chip": "ym2612"
    },
    {
      "channel": 3,
      "note": 83,
      "start": 13.0876,
      "duration": 0.0162,
      "velocity": 98,
      "chip": "ym2612"
    },
    {
      "channel": 2,
      "note": 56,
      "start": 13.0888,
      "duration": 0.0161,
      "velocity": 93,
      "chip": "ym2612"
    },
    {
      "channel": 1,
      "note": 69,
      "start": 13.09,
      "duration": 0.0161,
      "velocity": 103,
      "chip": "ym2612"
    },
    {
      "channel": 0,
      "note": 75,
      "start": 13.0997,
      "duration": 0.0161,
      "velocity": 124,
      "chip": "ym2612"
    },
    {
      "channel": 4,
      "note": 80,
      "start": 13.1026,
      "duration": 0.0161,
      "velocity": 98,
      "chip": "ym2612"
    },
    {
      "channel": 3,
      "note": 83,
      "start": 13.1038,
      "duration": 0.0161,
      "velocity": 98,
      "chip": "ym2612"
    },
    {
      "channel": 2,
      "note": 56,
      "start": 13.1049,
      "duration": 0.0161,
      "velocity": 93,
      "chip": "ym2612"
    },
    {
      "channel": 1,
      "note": 69,
      "start": 13.1061,
      "duration": 0.0161,
      "velocity": 103,
      "chip": "ym2612"
    },
    {
      "channel": 0,
      "note": 72,
      "start": 13.1158,
      "duration": 0.0161,
      "velocity": 124,
      "chip": "ym2612"
    },
    {
      "channel": 4,
      "note": 80,
      "start": 13.1187,
      "duration": 0.0163,
      "velocity": 98,
      "chip": "ym2612"
    },
    {
      "channel": 3,
      "note": 83,
      "start": 13.1199,
      "duration": 0.0164,
      "velocity": 98,
      "chip": "ym2612"
    },
    {
      "channel": 2,
      "note": 56,
      "start": 13.121,
      "duration": 0.0164,
      "velocity": 93,
      "chip": "ym2612"
    },
    {
      "channel": 1,
      "note": 69,
      "start": 13.1222,
      "duration": 0.0164,
      "velocity": 103,
      "chip": "ym2612"
    },
    {
      "channel": 0,
      "note": 70,
      "start": 13.1319,
      "duration": 0.0161,
      "velocity": 124,
      "chip": "ym2612"
    },
    {
      "channel": 5,
      "note": 69,
      "start": 13.1334,
      "duration": 0.0158,
      "velocity": 102,
      "chip": "ym2612"
    },
    {
      "channel": 4,
      "note": 80,
      "start": 13.1351,
      "duration": 0.0153,
      "velocity": 98,
      "chip": "ym2612"
    },
    {
      "channel": 3,
      "note": 83,
      "start": 13.1363,
      "duration": 0.0158,
      "velocity": 98,
      "chip": "ym2612"
    },
    {
      "channel": 2,
      "note": 56,
      "start": 13.1374,
      "duration": 0.0159,
      "velocity": 93,
      "chip": "ym2612"
    },
    {
      "channel": 1,
      "note": 69,
      "start": 13.1386,
      "duration": 0.0158,
      "velocity": 103,
      "chip": "ym2612"
    },
    {
      "channel": 0,
      "note": 68,
      "start": 13.148,
      "duration": 0.0161,
      "velocity": 124,
      "chip": "ym2612"
    },
    {
      "channel": 5,
      "note": 69,
      "start": 13.1492,
      "duration": 0.016,
      "velocity": 102,
      "chip": "ym2612"
    },
    {
      "channel": 4,
      "note": 80,
      "start": 13.1504,
      "duration": 0.016,
      "velocity": 98,
      "chip": "ym2612"
    },
    {
      "channel": 3,
      "note": 83,
      "start": 13.1521,
      "duration": 0.016,
      "velocity": 98,
      "chip": "ym2612"
    },
    {
      "channel": 2,
      "note": 56,
      "start": 13.1533,
      "duration": 0.016,
      "velocity": 93,
      "chip": "ym2612"
    },
    {
      "channel": 1,
      "note": 69,
      "start": 13.1544,
      "duration": 0.016,
      "velocity": 103,
      "chip": "ym2612"
    },
    {
      "channel": 0,
      "note": 65,
      "start": 13.1641,
      "duration": 0.0161,
      "velocity": 124,
      "chip": "ym2612"
    },
    {
      "channel": 5,
      "note": 69,
      "start": 13.1652,
      "duration": 0.0161,
      "velocity": 102,
      "chip": "ym2612"
    },
    {
      "channel": 4,
      "note": 80,
      "start": 13.1664,
      "duration": 0.0162,
      "velocity": 98,
      "chip": "ym2612"
    },
    {
      "channel": 3,
      "note": 83,
      "start": 13.1681,
      "duration": 0.0159,
      "velocity": 98,
      "chip": "ym2612"
    },
    {
      "channel": 2,
      "note": 56,
      "start": 13.1693,
      "duration": 0.0163,
      "velocity": 93,
      "chip": "ym2612"
    },
    {
      "channel": 1,
      "note": 69,
      "start": 13.1705,
      "duration": 0.0163,
      "velocity": 103,
      "chip": "ym2612"
    },
    {
      "channel": 0,
      "note": 63,
      "start": 13.1802,
      "duration": 0.0153,
      "velocity": 1,
      "chip": "ym2612"
    },
    {
      "channel": 5,
      "note": 69,
      "start": 13.1813,
      "duration": 0.0153,
      "velocity": 102,
      "chip": "ym2612"
    },
    {
      "channel": 4,
      "note": 80,
      "start": 13.1826,
      "duration": 0.0153,
      "velocity": 98,
      "chip": "ym2612"
    },
    {
      "channel": 3,
      "note": 83,
      "start": 13.184,
      "duration": 0.0151,
      "velocity": 98,
      "chip": "ym2612"
    },
    {
      "channel": 2,
      "note": 56,
      "start": 13.1857,
      "duration": 0.0146,
      "velocity": 93,
      "chip": "ym2612"
    },
    {
      "channel": 1,
      "note": 69,
      "start": 13.1868,
      "duration": 0.0152,
      "velocity": 103,
      "chip": "ym2612"
    },
    {
      "channel": 5,
      "note": 69,
      "start": 13.1967,
      "duration": 0.0152,
      "velocity": 102,
      "chip": "ym2612"
    },
    {
      "channel": 4,
      "note": 80,
      "start": 13.1979,
      "duration": 0.0152,
      "velocity": 98,
      "chip": "ym2612"
    },
    {
      "channel": 3,
      "note": 83,
      "start": 13.1991,
      "duration": 0.0153,
      "velocity": 98,
      "chip": "ym2612"
    },
    {
      "channel": 2,
      "note": 56,
      "start": 13.2003,
      "duration": 0.0153,
      "velocity": 93,
      "chip": "ym2612"
    },
    {
      "channel": 5,
      "note": 69,
      "start": 13.2119,
      "duration": 0.0197,
      "velocity": 102,
      "chip": "ym2612"
    },
    {
      "channel": 4,
      "note": 80,
      "start": 13.2131,
      "duration": 0.0196,
      "velocity": 98,
      "chip": "ym2612"
    },
    {
      "channel": 3,
      "note": 83,
      "start": 13.2144,
      "duration": 0.0197,
      "velocity": 98,
      "chip": "ym2612"
    },
    {
      "channel": 2,
      "note": 56,
      "start": 13.2156,
      "duration": 0.02,
      "velocity": 93,
      "chip": "ym2612"
    },
    {
      "channel": 0,
      "note": 36,
      "start": 13.2304,
      "duration": 0.0143,
      "velocity": 115,
      "chip": "ym2612"
    },
    {
      "channel": 5,
      "note": 69,
      "start": 13.2315,
      "duration": 0.0143,
      "velocity": 102,
      "chip": "ym2612"
    },
    {
      "channel": 4,
      "note": 80,
      "start": 13.2327,
      "duration": 0.0143,
      "velocity": 98,
      "chip": "ym2612"
    },
    {
      "channel": 3,
      "note": 83,
      "start": 13.2341,
      "duration": 0.0141,
      "velocity": 98,
      "chip": "ym2612"
    },
    {
      "channel": 2,
      "note": 56,
      "start": 13.2356,
      "duration": 0.0137,
      "velocity": 93,
      "chip": "ym2612"
    },
    {
      "channel": 1,
      "note": 71,
      "start": 13.237,
      "duration": 0.0137,
      "velocity": 103,
      "chip": "ym2612"
    },
    {
      "channel": 0,
      "note": 36,
      "start": 13.2447,
      "duration": 0.016,
      "velocity": 115,
      "chip": "ym2612"
    },
    {
      "channel": 5,
      "note": 69,
      "start": 13.2458,
      "duration": 0.016,
      "velocity": 102,
      "chip": "ym2612"
    },
    {
      "channel": 4,
      "note": 80,
      "start": 13.247,
      "duration": 0.016,
      "velocity": 98,
      "chip": "ym2612"
    },
    {
      "channel": 3,
      "note": 83,
      "start": 13.2481,
      "duration": 0.016,
      "velocity": 98,
      "chip": "ym2612"
    },
    {
      "channel": 2,
      "note": 56,
      "start": 13.2493,
      "duration": 0.0161,
      "velocity": 93,
      "chip": "ym2612"
    },
    {
      "channel": 1,
      "note": 71,
      "start": 13.2507,
      "duration": 0.0158,
      "velocity": 103,
      "chip": "ym2612"
    },
    {
      "channel": 0,
      "note": 37,
      "start": 13.2607,
      "duration": 0.0161,
      "velocity": 115,
      "chip": "ym2612"
    },
    {
      "channel": 5,
      "note": 69,
      "start": 13.2619,
      "duration": 0.0161,
      "velocity": 102,
      "chip": "ym2612"
    },
    {
      "channel": 4,
      "note": 80,
      "start": 13.263,
      "duration": 0.0161,
      "velocity": 98,
      "chip": "ym2612"
    },
    {
      "channel": 3,
      "note": 83,
      "start": 13.2641,
      "duration": 0.0161,
      "velocity": 98,
      "chip": "ym2612"
    },
    {
      "channel": 2,
      "note": 56,
      "start": 13.2654,
      "duration": 0.0161,
      "velocity": 93,
      "chip": "ym2612"
    },
    {
      "channel": 1,
      "note": 71,
      "start": 13.2665,
      "duration": 0.0161,
      "velocity": 103,
      "chip": "ym2612"
    },
    {
      "channel": 0,
      "note": 37,
      "start": 13.2768,
      "duration": 0.0161,
      "velocity": 115,
      "chip": "ym2612"
    },
    {
      "channel": 5,
      "note": 69,
      "start": 13.278,
      "duration": 0.0161,
      "velocity": 102,
      "chip": "ym2612"
    },
    {
      "channel": 4,
      "note": 80,
      "start": 13.2791,
      "duration": 0.0161,
      "velocity": 98,
      "chip": "ym2612"
    },
    {
      "channel": 3,
      "note": 83,
      "start": 13.2802,
      "duration": 0.0163,
      "velocity": 98,
      "chip": "ym2612"
    },
    {
      "channel": 2,
      "note": 56,
      "start": 13.2815,
      "duration": 0.0163,
      "velocity": 93,
      "chip": "ym2612"
    },
    {
      "channel": 1,
      "note": 71,
      "start": 13.2826,
      "duration": 0.0163,
      "velocity": 103,
      "chip": "ym2612"
    },
    {
      "channel": 0,
      "note": 38,
      "start": 13.2929,
      "duration": 0.0161,
      "velocity": 115,
      "chip": "ym2612"
    },
    {
      "channel": 4,
      "note": 80,
      "start": 13.2953,
      "duration": 0.0162,
      "velocity": 98,
      "chip": "ym2612"
    },
    {
      "channel": 3,
      "note": 83,
      "start": 13.2965,
      "duration": 0.0162,
      "velocity": 98,
      "chip": "ym2612"
    },
    {
      "channel": 2,
      "note": 56,
      "start": 13.2978,
      "duration": 0.0161,
      "velocity": 93,
      "chip": "ym2612"
    },
    {
      "channel": 0,
      "note": 38,
      "start": 13.309,
      "duration": 0.0179,
      "velocity": 127,
      "chip": "ym2612"
    },
    {
      "channel": 2,
      "note": 56,
      "start": 13.3139,
      "duration": 0.0191,
      "velocity": 93,
      "chip": "ym2612"
    },
    {
      "channel": 0,
      "note": 84,
      "start": 13.327,
      "duration": 0.0142,
      "velocity": 127,
      "chip": "ym2612"
    },
    {
      "channel": 5,
      "note": 71,
      "start": 13.3285,
      "duration": 0.014,
      "velocity": 102,
      "chip": "ym2612"
    },
    {
      "channel": 4,
      "note": 80,
      "start": 13.33,
      "duration": 0.0137,
      "velocity": 98,
      "chip": "ym2612"
    },
    {
      "channel": 3,
      "note": 83,
      "start": 13.3315,
      "duration": 0.0134,
      "velocity": 98,
      "chip": "ym2612"
    },
    {
      "channel": 2,
      "note": 56,
      "start": 13.333,
      "duration": 0.0132,
      "velocity": 93,
      "chip": "ym2612"
    },
    {
      "channel": 1,
      "note": 75,
      "start": 13.335,
      "duration": 0.0124,
      "velocity": 103,
      "chip": "ym2612"
    },
    {
      "channel": 0,
      "note": 82,
      "start": 13.3412,
      "duration": 0.016,
      "velocity": 127,
      "chip": "ym2612"
    },
    {
      "channel": 5,
      "note": 71,
      "start": 13.3425,
      "duration": 0.016,
      "velocity": 102,
      "chip": "ym2612"
    },
    {
      "channel": 4,
      "note": 80,
      "start": 13.3437,
      "duration": 0.0159,
      "velocity": 98,
      "chip": "ym2612"
    },
    {
      "channel": 3,
      "note": 83,
      "start": 13.3449,
      "duration": 0.0159,
      "velocity": 98,
      "chip": "ym2612"
    },
    {
      "channel": 2,
      "note": 56,
      "start": 13.3461,
      "duration": 0.0158,
      "velocity": 93,
      "chip": "ym2612"
    },
    {
      "channel": 1,
      "note": 75,
      "start": 13.3474,
      "duration": 0.0157,
      "velocity": 103,
      "chip": "ym2612"
    },
    {
      "channel": 0,
      "note": 81,
      "start": 13.3573,
      "duration": 0.0161,
      "velocity": 127,
      "chip": "ym2612"
    },
    {
      "channel": 5,
      "note": 71,
      "start": 13.3585,
      "duration": 0.0161,
      "velocity": 102,
      "chip": "ym2612"
    },
    {
      "channel": 4,
      "note": 80,
      "start": 13.3596,
      "duration": 0.0161,
      "velocity": 98,
      "chip": "ym2612"
    },
    {
      "channel": 3,
      "note": 83,
      "start": 13.3608,
      "duration": 0.0161,
      "velocity": 98,
      "chip": "ym2612"
    },
    {
      "channel": 2,
      "note": 56,
      "start": 13.3619,
      "duration": 0.0161,
      "velocity": 93,
      "chip": "ym2612"
    },
    {
      "channel": 1,
      "note": 75,
      "start": 13.3631,
      "duration": 0.0161,
      "velocity": 103,
      "chip": "ym2612"
    },
    {
      "channel": 0,
      "note": 79,
      "start": 13.3734,
      "duration": 0.0161,
      "velocity": 127,
      "chip": "ym2612"
    },
    {
      "channel": 5,
      "note": 71,
      "start": 13.3746,
      "duration": 0.0161,
      "velocity": 102,
      "chip": "ym2612"
    },
    {
      "channel": 4,
      "note": 80,
      "start": 13.3757,
      "duration": 0.0161,
      "velocity": 98,
      "chip": "ym2612"
    },
    {
      "channel": 3,
      "note": 83,
      "start": 13.3769,
      "duration": 0.0161,
      "velocity": 98,
      "chip": "ym2612"
    },
    {
      "channel": 2,
      "note": 56,
      "start": 13.378,
      "duration": 0.0161,
      "velocity": 93,
      "chip": "ym2612"
    },
    {
      "channel": 1,
      "note": 75,
      "start": 13.3792,
      "duration": 0.0162,
      "velocity": 103,
      "chip": "ym2612"
    },
    {
      "channel": 0,
      "note": 77,
      "start": 13.3895,
      "duration": 0.0161,
      "velocity": 127,
      "chip": "ym2612"
    },
    {
      "channel": 4,
      "note": 80,
      "start": 13.3918,
      "duration": 0.0161,
      "velocity": 98,
      "chip": "ym2612"
    },
    {
      "channel": 3,
      "note": 83,
      "start": 13.393,
      "duration": 0.0161,
      "velocity": 98,
      "chip": "ym2612"
    },
    {
      "channel": 2,
      "note": 56,
      "start": 13.3941,
      "duration": 0.0161,
      "velocity": 93,
      "chip": "ym2612"
    },
    {
      "channel": 1,
      "note": 75,
      "start": 13.3953,
      "duration": 0.0161,
      "velocity": 103,
      "chip": "ym2612"
    },
    {
      "channel": 0,
      "note": 76,
      "start": 13.4056,
      "duration": 0.018,
      "velocity": 127,
      "chip": "ym2612"
    },
    {
      "channel": 4,
      "note": 80,
      "start": 13.4079,
      "duration": 0.0184,
      "velocity": 98,
      "chip": "ym2612"
    },
    {
      "channel": 3,
      "note": 83,
      "start": 13.4091,
      "duration": 0.0184,
      "velocity": 98,
      "chip": "ym2612"
    },
    {
      "channel": 2,
      "note": 56,
      "start": 13.4102,
      "duration": 0.0184,
      "velocity": 93,
      "chip": "ym2612"
    },
    {
      "channel": 1,
      "note": 75,
      "start": 13.4114,
      "duration": 0.0183,
      "velocity": 103,
      "chip": "ym2612"
    },
    {
      "channel": 0,
      "note": 84,
      "start": 13.4236,
      "duration": 0.0143,
      "velocity": 127,
      "chip": "ym2612"
    },
    {
      "channel": 5,
      "note": 75,
      "start": 13.4251,
      "duration": 0.014,
      "velocity": 102,
      "chip": "ym2612"
    },
    {
      "channel": 4,
      "note": 80,
      "start": 13.4263,
      "duration": 0.0139,
      "velocity": 98,
      "chip": "ym2612"
    },
    {
      "channel": 3,
      "note": 83,
      "start": 13.4275,
      "duration": 0.0139,
      "velocity": 98,
      "chip": "ym2612"
    },
    {
      "channel": 2,
      "note": 56,
      "start": 13.4286,
      "duration": 0.0139,
      "velocity": 93,
      "chip": "ym2612"
    },
    {
      "channel": 1,
      "note": 75,
      "start": 13.4298,
      "duration": 0.014,
      "velocity": 103,
      "chip": "ym2612"
    },
    {
      "channel": 0,
      "note": 82,
      "start": 13.4379,
      "duration": 0.0161,
      "velocity": 127,
      "chip": "ym2612"
    },
    {
      "channel": 5,
      "note": 75,
      "start": 13.4391,
      "duration": 0.016,
      "velocity": 102,
      "chip": "ym2612"
    },
    {
      "channel": 4,
      "note": 80,
      "start": 13.4402,
      "duration": 0.016,
      "velocity": 98,
      "chip": "ym2612"
    },
    {
      "channel": 3,
      "note": 83,
      "start": 13.4414,
      "duration": 0.016,
      "velocity": 98,
      "chip": "ym2612"
    },
    {
      "channel": 2,
      "note": 56,
      "start": 13.4425,
      "duration": 0.0161,
      "velocity": 93,
      "chip": "ym2612"
    },
    {
      "channel": 1,
      "note": 75,
      "start": 13.4437,
      "duration": 0.016,
      "velocity": 103,
      "chip": "ym2612"
    },
    {
      "channel": 0,
      "note": 81,
      "start": 13.454,
      "duration": 0.0161,
      "velocity": 127,
      "chip": "ym2612"
    },
    {
      "channel": 5,
      "note": 75,
      "start": 13.4551,
      "duration": 0.0161,
      "velocity": 102,
      "chip": "ym2612"
    },
    {
      "channel": 4,
      "note": 80,
      "start": 13.4563,
      "duration": 0.0162,
      "velocity": 98,
      "chip": "ym2612"
    },
    {
      "channel": 3,
      "note": 83,
      "start": 13.4574,
      "duration": 0.0163,
      "velocity": 98,
      "chip": "ym2612"
    },
    {
      "channel": 2,
      "note": 56,
      "start": 13.4586,
      "duration": 0.0163,
      "velocity": 93,
      "chip": "ym2612"
    },
    {
      "channel": 1,
      "note": 75,
      "start": 13.4598,
      "duration": 0.0163,
      "velocity": 103,
      "chip": "ym2612"
    },
    {
      "channel": 0,
      "note": 79,
      "start": 13.4701,
      "duration": 0.0164,
      "velocity": 127,
      "chip": "ym2612"
    },
    {
      "channel": 5,
      "note": 75,
      "start": 13.4712,
      "duration": 0.0165,
      "velocity": 102,
      "chip": "ym2612"
    },
    {
      "channel": 4,
      "note": 80,
      "start": 13.4725,
      "duration": 0.0164,
      "velocity": 98,
      "chip": "ym2612"
    },
    {
      "channel": 3,
      "note": 83,
      "start": 13.4737,
      "duration": 0.0164,
      "velocity": 98,
      "chip": "ym2612"
    },
    {
      "channel": 2,
      "note": 56,
      "start": 13.4749,
      "duration": 0.0164,
      "velocity": 93,
      "chip": "ym2612"
    },
    {
      "channel": 1,
      "note": 75,
      "start": 13.4761,
      "duration": 0.0163,
      "velocity": 103,
      "chip": "ym2612"
    },
    {
      "channel": 0,
      "note": 77,
      "start": 13.4865,
      "duration": 0.0163,
      "velocity": 127,
      "chip": "ym2612"
    },
    {
      "channel": 5,
      "note": 75,
      "start": 13.4877,
      "duration": 0.0163,
      "velocity": 102,
      "chip": "ym2612"
    },
    {
      "channel": 4,
      "note": 80,
      "start": 13.4889,
      "duration": 0.0163,
      "velocity": 98,
      "chip": "ym2612"
    },
    {
      "channel": 3,
      "note": 83,
      "start": 13.4901,
      "duration": 0.0163,
      "velocity": 98,
      "chip": "ym2612"
    },
    {
      "channel": 2,
      "note": 56,
      "start": 13.4913,
      "duration": 0.0163,
      "velocity": 93,
      "chip": "ym2612"
    },
    {
      "channel": 1,
      "note": 75,
      "start": 13.4925,
      "duration": 0.0163,
      "velocity": 103,
      "chip": "ym2612"
    },
    {
      "channel": 0,
      "note": 76,
      "start": 13.5028,
      "duration": 0.018,
      "velocity": 127,
      "chip": "ym2612"
    },
    {
      "channel": 5,
      "note": 75,
      "start": 13.504,
      "duration": 0.018,
      "velocity": 102,
      "chip": "ym2612"
    },
    {
      "channel": 4,
      "note": 80,
      "start": 13.5052,
      "duration": 0.0179,
      "velocity": 98,
      "chip": "ym2612"
    },
    {
      "channel": 3,
      "note": 83,
      "start": 13.5064,
      "duration": 0.0179,
      "velocity": 98,
      "chip": "ym2612"
    },
    {
      "channel": 2,
      "note": 56,
      "start": 13.5076,
      "duration": 0.0179,
      "velocity": 93,
      "chip": "ym2612"
    },
    {
      "channel": 1,
      "note": 75,
      "start": 13.5088,
      "duration": 0.0179,
      "velocity": 103,
      "chip": "ym2612"
    },
    {
      "channel": 0,
      "note": 84,
      "start": 13.5208,
      "duration": 0.0142,
      "velocity": 127,
      "chip": "ym2612"
    },
    {
      "channel": 5,
      "note": 75,
      "start": 13.522,
      "duration": 0.0143,
      "velocity": 102,
      "chip": "ym2612"
    },
    {
      "channel": 4,
      "note": 80,
      "start": 13.5231,
      "duration": 0.0142,
      "velocity": 98,
      "chip": "ym2612"
    },
    {
      "channel": 3,
      "note": 83,
      "start": 13.5243,
      "duration": 0.0142,
      "velocity": 98,
      "chip": "ym2612"
    },
    {
      "channel": 2,
      "note": 56,
      "start": 13.5255,
      "duration": 0.0142,
      "velocity": 93,
      "chip": "ym2612"
    },
    {
      "channel": 1,
      "note": 75,
      "start": 13.5266,
      "duration": 0.0143,
      "velocity": 103,
      "chip": "ym2612"
    },
    {
      "channel": 0,
      "note": 82,
      "start": 13.535,
      "duration": 0.0157,
      "velocity": 127,
      "chip": "ym2612"
    },
    {
      "channel": 5,
      "note": 75,
      "start": 13.5362,
      "duration": 0.016,
      "velocity": 102,
      "chip": "ym2612"
    },
    {
      "channel": 4,
      "note": 80,
      "start": 13.5374,
      "duration": 0.0161,
      "velocity": 98,
      "chip": "ym2612"
    },
    {
      "channel": 3,
      "note": 83,
      "start": 13.5385,
      "duration": 0.0161,
      "velocity": 98,
      "chip": "ym2612"
    },
    {
      "channel": 2,
      "note": 56,
      "start": 13.5397,
      "duration": 0.0161,
      "velocity": 93,
      "chip": "ym2612"
    },
    {
      "channel": 1,
      "note": 75,
      "start": 13.5409,
      "duration": 0.0161,
      "velocity": 103,
      "chip": "ym2612"
    },
    {
      "channel": 0,
      "note": 81,
      "start": 13.5507,
      "duration": 0.0159,
      "velocity": 127,
      "chip": "ym2612"
    },
    {
      "channel": 5,
      "note": 75,
      "start": 13.5523,
      "duration": 0.016,
      "velocity": 102,
      "chip": "ym2612"
    },
    {
      "channel": 4,
      "note": 80,
      "start": 13.5535,
      "duration": 0.016,
      "velocity": 98,
      "chip": "ym2612"
    },
    {
      "channel": 3,
      "note": 83,
      "start": 13.5546,
      "duration": 0.0161,
      "velocity": 98,
      "chip": "ym2612"
    },
    {
      "channel": 2,
      "note": 56,
      "start": 13.5558,
      "duration": 0.0161,
      "velocity": 93,
      "chip": "ym2612"
    },
    {
      "channel": 1,
      "note": 75,
      "start": 13.557,
      "duration": 0.0161,
      "velocity": 103,
      "chip": "ym2612"
    },
    {
      "channel": 0,
      "note": 79,
      "start": 13.5666,
      "duration": 0.0161,
      "velocity": 127,
      "chip": "ym2612"
    },
    {
      "channel": 5,
      "note": 75,
      "start": 13.5683,
      "duration": 0.0158,
      "velocity": 102,
      "chip": "ym2612"
    },
    {
      "channel": 4,
      "note": 80,
      "start": 13.5695,
      "duration": 0.0162,
      "velocity": 98,
      "chip": "ym2612"
    },
    {
      "channel": 3,
      "note": 83,
      "start": 13.5707,
      "duration": 0.0162,
      "velocity": 98,
      "chip": "ym2612"
    },
    {
      "channel": 2,
      "note": 56,
      "start": 13.5719,
      "duration": 0.0163,
      "velocity": 93,
      "chip": "ym2612"
    },
    {
      "channel": 1,
      "note": 75,
      "start": 13.5731,
      "duration": 0.0163,
      "velocity": 103,
      "chip": "ym2612"
    },
    {
      "channel": 0,
      "note": 77,
      "start": 13.5827,
      "duration": 0.0161,
      "velocity": 127,
      "chip": "ym2612"
    },
    {
      "channel": 5,
      "note": 75,
      "start": 13.5841,
      "duration": 0.0159,
      "velocity": 102,
      "chip": "ym2612"
    },
    {
      "channel": 4,
      "note": 80,
      "start": 13.5857,
      "duration": 0.0161,
      "velocity": 98,
      "chip": "ym2612"
    },
    {
      "channel": 3,
      "note": 83,
      "start": 13.5869,
      "duration": 0.0161,
      "velocity": 98,
      "chip": "ym2612"
    },
    {
      "channel": 2,
      "note": 56,
      "start": 13.5881,
      "duration": 0.0162,
      "velocity": 93,
      "chip": "ym2612"
    },
    {
      "channel": 0,
      "note": 76,
      "start": 13.5988,
      "duration": 0.0179,
      "velocity": 127,
      "chip": "ym2612"
    },
    {
      "channel": 5,
      "note": 75,
      "start": 13.6,
      "duration": 0.0186,
      "velocity": 102,
      "chip": "ym2612"
    },
    {
      "channel": 2,
      "note": 56,
      "start": 13.6044,
      "duration": 0.0188,
      "velocity": 93,
      "chip": "ym2612"
    },
    {
      "channel": 0,
      "note": 78,
      "start": 13.6168,
      "duration": 0.0143,
      "velocity": 127,
      "chip": "ym2612"
    },
    {
      "channel": 5,
      "note": 75,
      "start": 13.6186,
      "duration": 0.0136,
      "velocity": 102,
      "chip": "ym2612"
    },
    {
      "channel": 4,
      "note": 80,
      "start": 13.6201,
      "duration": 0.0134,
      "velocity": 98,
      "chip": "ym2612"
    },
    {
      "channel": 3,
      "note": 83,
      "start": 13.6217,
      "duration": 0.0136,
      "velocity": 98,
      "chip": "ym2612"
    },
    {
      "channel": 2,
      "note": 56,
      "start": 13.6231,
      "duration": 0.0134,
      "velocity": 93,
      "chip": "ym2612"
    },
    {
      "channel": 1,
      "note": 74,
      "start": 13.6246,
      "duration": 0.0131,
      "velocity": 103,
      "chip": "ym2612"
    },
    {
      "channel": 0,
      "note": 76,
      "start": 13.6311,
      "duration": 0.016,
      "velocity": 127,
      "chip": "ym2612"
    },
    {
      "channel": 5,
      "note": 75,
      "start": 13.6322,
      "duration": 0.0162,
      "velocity": 102,
      "chip": "ym2612"
    },
    {
      "channel": 4,
      "note": 80,
      "start": 13.6335,
      "duration": 0.016,
      "velocity": 98,
      "chip": "ym2612"
    },
    {
      "channel": 3,
      "note": 83,
      "start": 13.6353,
      "duration": 0.0156,
      "velocity": 98,
      "chip": "ym2612"
    },
    {
      "channel": 2,
      "note": 56,
      "start": 13.6365,
      "duration": 0.0159,
      "velocity": 93,
      "chip": "ym2612"
    },
    {
      "channel": 1,
      "note": 74,
      "start": 13.6378,
      "duration": 0.0158,
      "velocity": 103,
      "chip": "ym2612"
    },
    {
      "channel": 0,
      "note": 75,
      "start": 13.6471,
      "duration": 0.0161,
      "velocity": 127,
      "chip": "ym2612"
    },
    {
      "channel": 5,
      "note": 75,
      "start": 13.6484,
      "duration": 0.0161,
      "velocity": 102,
      "chip": "ym2612"
    },
    {
      "channel": 4,
      "note": 80,
      "start": 13.6495,
      "duration": 0.0161,
      "velocity": 98,
      "chip": "ym2612"
    },
    {
      "channel": 3,
      "note": 83,
      "start": 13.6509,
      "duration": 0.0159,
      "velocity": 98,
      "chip": "ym2612"
    },
    {
      "channel": 2,
      "note": 56,
      "start": 13.6524,
      "duration": 0.016,
      "velocity": 93,
      "chip": "ym2612"
    },
    {
      "channel": 1,
      "note": 74,
      "start": 13.6535,
      "duration": 0.0161,
      "velocity": 103,
      "chip": "ym2612"
    },
    {
      "channel": 0,
      "note": 73,
      "start": 13.6632,
      "duration": 0.0161,
      "velocity": 127,
      "chip": "ym2612"
    },
    {
      "channel": 5,
      "note": 75,
      "start": 13.6645,
      "duration": 0.016,
      "velocity": 102,
      "chip": "ym2612"
    },
    {
      "channel": 4,
      "note": 80,
      "start": 13.6656,
      "duration": 0.016,
      "velocity": 98,
      "chip": "ym2612"
    },
    {
      "channel": 3,
      "note": 83,
      "start": 13.6668,
      "duration": 0.016,
      "velocity": 98,
      "chip": "ym2612"
    },
    {
      "channel": 2,
      "note": 56,
      "start": 13.6684,
      "duration": 0.0158,
      "velocity": 93,
      "chip": "ym2612"
    },
    {
      "channel": 1,
      "note": 74,
      "start": 13.6697,
      "duration": 0.016,
      "velocity": 103,
      "chip": "ym2612"
    },
    {
      "channel": 0,
      "note": 71,
      "start": 13.6793,
      "duration": 0.0161,
      "velocity": 127,
      "chip": "ym2612"
    },
    {
      "channel": 4,
      "note": 80,
      "start": 13.6817,
      "duration": 0.0161,
      "velocity": 98,
      "chip": "ym2612"
    },
    {
      "channel": 3,
      "note": 83,
      "start": 13.6828,
      "duration": 0.0161,
      "velocity": 98,
      "chip": "ym2612"
    },
    {
      "channel": 2,
      "note": 56,
      "start": 13.6842,
      "duration": 0.0159,
      "velocity": 93,
      "chip": "ym2612"
    },
    {
      "channel": 1,
      "note": 74,
      "start": 13.6857,
      "duration": 0.016,
      "velocity": 103,
      "chip": "ym2612"
    },
    {
      "channel": 0,
      "note": 70,
      "start": 13.6954,
      "duration": 0.0161,
      "velocity": 127,
      "chip": "ym2612"
    },
    {
      "channel": 4,
      "note": 80,
      "start": 13.6978,
      "duration": 0.0164,
      "velocity": 98,
      "chip": "ym2612"
    },
    {
      "channel": 3,
      "note": 83,
      "start": 13.6989,
      "duration": 0.0165,
      "velocity": 98,
      "chip": "ym2612"
    },
    {
      "channel": 2,
      "note": 56,
      "start": 13.7,
      "duration": 0.0165,
      "velocity": 93,
      "chip": "ym2612"
    },
    {
      "channel": 1,
      "note": 74,
      "start": 13.7017,
      "duration": 0.0164,
      "velocity": 103,
      "chip": "ym2612"
    },
    {
      "channel": 0,
      "note": 68,
      "start": 13.7115,
      "duration": 0.0161,
      "velocity": 127,
      "chip": "ym2612"
    },
    {
      "channel": 5,
      "note": 74,
      "start": 13.713,
      "duration": 0.0158,
      "velocity": 102,
      "chip": "ym2612"
    },
    {
      "channel": 4,
      "note": 80,
      "start": 13.7141,
      "duration": 0.0159,
      "velocity": 98,
      "chip": "ym2612"
    },
    {
      "channel": 3,
      "note": 83,
      "start": 13.7154,
      "duration": 0.0158,
      "velocity": 98,
      "chip": "ym2612"
    },
    {
      "channel": 2,
      "note": 56,
      "start": 13.7165,
      "duration": 0.0158,
      "velocity": 93,
      "chip": "ym2612"
    },
    {
      "channel": 1,
      "note": 74,
      "start": 13.7182,
      "duration": 0.0153,
      "velocity": 103,
      "chip": "ym2612"
    },
    {
      "channel": 0,
      "note": 66,
      "start": 13.7276,
      "duration": 0.0161,
      "velocity": 127,
      "chip": "ym2612"
    },
    {
      "channel": 5,
      "note": 74,
      "start": 13.7288,
      "duration": 0.016,
      "velocity": 102,
      "chip": "ym2612"
    },
    {
      "channel": 4,
      "note": 80,
      "start": 13.73,
      "duration": 0.016,
      "velocity": 98,
      "chip": "ym2612"
    },
    {
      "channel": 3,
      "note": 83,
      "start": 13.7311,
      "duration": 0.016,
      "velocity": 98,
      "chip": "ym2612"
    },
    {
      "channel": 2,
      "note": 56,
      "start": 13.7323,
      "duration": 0.0161,
      "velocity": 93,
      "chip": "ym2612"
    },
    {
      "channel": 1,
      "note": 74,
      "start": 13.7335,
      "duration": 0.016,
      "velocity": 103,
      "chip": "ym2612"
    },
    {
      "channel": 0,
      "note": 65,
      "start": 13.7437,
      "duration": 0.0161,
      "velocity": 127,
      "chip": "ym2612"
    },
    {
      "channel": 5,
      "note": 74,
      "start": 13.7449,
      "duration": 0.0161,
      "velocity": 102,
      "chip": "ym2612"
    },
    {
      "channel": 4,
      "note": 80,
      "start": 13.746,
      "duration": 0.0161,
      "velocity": 98,
      "chip": "ym2612"
    },
    {
      "channel": 3,
      "note": 83,
      "start": 13.7472,
      "duration": 0.0163,
      "velocity": 98,
      "chip": "ym2612"
    },
    {
      "channel": 2,
      "note": 56,
      "start": 13.7484,
      "duration": 0.0163,
      "velocity": 93,
      "chip": "ym2612"
    },
    {
      "channel": 1,
      "note": 74,
      "start": 13.7495,
      "duration": 0.0163,
      "velocity": 103,
      "chip": "ym2612"
    },
    {
      "channel": 0,
      "note": 63,
      "start": 13.7598,
      "duration": 0.0161,
      "velocity": 127,
      "chip": "ym2612"
    },
    {
      "channel": 5,
      "note": 74,
      "start": 13.761,
      "duration": 0.0161,
      "velocity": 102,
      "chip": "ym2612"
    },
    {
      "channel": 4,
      "note": 80,
      "start": 13.7622,
      "duration": 0.0161,
      "velocity": 98,
      "chip": "ym2612"
    },
    {
      "channel": 3,
      "note": 83,
      "start": 13.7634,
      "duration": 0.016,
      "velocity": 98,
      "chip": "ym2612"
    },
    {
      "channel": 2,
      "note": 56,
      "start": 13.7647,
      "duration": 0.016,
      "velocity": 93,
      "chip": "ym2612"
    },
    {
      "channel": 1,
      "note": 74,
      "start": 13.7658,
      "duration": 0.0161,
      "velocity": 103,
      "chip": "ym2612"
    },
    {
      "channel": 0,
      "note": 61,
      "start": 13.7759,
      "duration": 0.0161,
      "velocity": 127,
      "chip": "ym2612"
    },
    {
      "channel": 5,
      "note": 74,
      "start": 13.7771,
      "duration": 0.0161,
      "velocity": 102,
      "chip": "ym2612"
    },
    {
      "channel": 4,
      "note": 80,
      "start": 13.7783,
      "duration": 0.0162,
      "velocity": 98,
      "chip": "ym2612"
    },
    {
      "channel": 3,
      "note": 83,
      "start": 13.7795,
      "duration": 0.0162,
      "velocity": 98,
      "chip": "ym2612"
    },
    {
      "channel": 2,
      "note": 56,
      "start": 13.7807,
      "duration": 0.0161,
      "velocity": 93,
      "chip": "ym2612"
    },
    {
      "channel": 0,
      "note": 60,
      "start": 13.792,
      "duration": 0.0161,
      "velocity": 127,
      "chip": "ym2612"
    },
    {
      "channel": 5,
      "note": 74,
      "start": 13.7932,
      "duration": 0.0161,
      "velocity": 102,
      "chip": "ym2612"
    },
    {
      "channel": 4,
      "note": 80,
      "start": 13.7944,
      "duration": 0.016,
      "velocity": 98,
      "chip": "ym2612"
    },
    {
      "channel": 3,
      "note": 83,
      "start": 13.7956,
      "duration": 0.016,
      "velocity": 98,
      "chip": "ym2612"
    },
    {
      "channel": 2,
      "note": 56,
      "start": 13.7968,
      "duration": 0.0159,
      "velocity": 93,
      "chip": "ym2612"
    },
    {
      "channel": 0,
      "note": 58,
      "start": 13.8081,
      "duration": 0.0161,
      "velocity": 127,
      "chip": "ym2612"
    },
    {
      "channel": 5,
      "note": 74,
      "start": 13.8093,
      "duration": 0.0162,
      "velocity": 102,
      "chip": "ym2612"
    },
    {
      "channel": 4,
      "note": 80,
      "start": 13.8105,
      "duration": 0.0161,
      "velocity": 98,
      "chip": "ym2612"
    },
    {
      "channel": 3,
      "note": 83,
      "start": 13.8116,
      "duration": 0.0161,
      "velocity": 98,
      "chip": "ym2612"
    },
    {
      "channel": 2,
      "note": 56,
      "start": 13.8128,
      "duration": 0.0161,
      "velocity": 93,
      "chip": "ym2612"
    },
    {
      "channel": 1,
      "note": 73,
      "start": 13.8142,
      "duration": 0.0159,
      "velocity": 103,
      "chip": "ym2612"
    },
    {
      "channel": 0,
      "note": 56,
      "start": 13.8242,
      "duration": 0.0161,
      "velocity": 127,
      "chip": "ym2612"
    },
    {
      "channel": 5,
      "note": 74,
      "start": 13.8254,
      "duration": 0.0161,
      "velocity": 102,
      "chip": "ym2612"
    },
    {
      "channel": 4,
      "note": 80,
      "start": 13.8266,
      "duration": 0.0161,
      "velocity": 98,
      "chip": "ym2612"
    },
    {
      "channel": 3,
      "note": 83,
      "start": 13.8277,
      "duration": 0.0161,
      "velocity": 98,
      "chip": "ym2612"
    },
    {
      "channel": 2,
      "note": 56,
      "start": 13.8288,
      "duration": 0.0161,
      "velocity": 93,
      "chip": "ym2612"
    },
    {
      "channel": 1,
      "note": 73,
      "start": 13.8301,
      "duration": 0.016,
      "velocity": 103,
      "chip": "ym2612"
    },
    {
      "channel": 0,
      "note": 54,
      "start": 13.8403,
      "duration": 0.0162,
      "velocity": 127,
      "chip": "ym2612"
    },
    {
      "channel": 5,
      "note": 74,
      "start": 13.8415,
      "duration": 0.0161,
      "velocity": 102,
      "chip": "ym2612"
    },
    {
      "channel": 4,
      "note": 80,
      "start": 13.8427,
      "duration": 0.0161,
      "velocity": 98,
      "chip": "ym2612"
    },
    {
      "channel": 3,
      "note": 83,
      "start": 13.8438,
      "duration": 0.0161,
      "velocity": 98,
      "chip": "ym2612"
    },
    {
      "channel": 2,
      "note": 56,
      "start": 13.8449,
      "duration": 0.0161,
      "velocity": 93,
      "chip": "ym2612"
    },
    {
      "channel": 1,
      "note": 73,
      "start": 13.8461,
      "duration": 0.0161,
      "velocity": 103,
      "chip": "ym2612"
    },
    {
      "channel": 0,
      "note": 53,
      "start": 13.8565,
      "duration": 0.0161,
      "velocity": 127,
      "chip": "ym2612"
    },
    {
      "channel": 5,
      "note": 74,
      "start": 13.8576,
      "duration": 0.0161,
      "velocity": 102,
      "chip": "ym2612"
    },
    {
      "channel": 4,
      "note": 80,
      "start": 13.8588,
      "duration": 0.0161,
      "velocity": 98,
      "chip": "ym2612"
    },
    {
      "channel": 3,
      "note": 83,
      "start": 13.8599,
      "duration": 0.0163,
      "velocity": 98,
      "chip": "ym2612"
    },
    {
      "channel": 2,
      "note": 56,
      "start": 13.861,
      "duration": 0.0163,
      "velocity": 93,
      "chip": "ym2612"
    },
    {
      "channel": 1,
      "note": 73,
      "start": 13.8622,
      "duration": 0.0163,
      "velocity": 103,
      "chip": "ym2612"
    },
    {
      "channel": 0,
      "note": 51,
      "start": 13.8726,
      "duration": 0.0161,
      "velocity": 127,
      "chip": "ym2612"
    },
    {
      "channel": 4,
      "note": 80,
      "start": 13.8749,
      "duration": 0.0162,
      "velocity": 98,
      "chip": "ym2612"
    },
    {
      "channel": 3,
      "note": 83,
      "start": 13.8762,
      "duration": 0.0161,
      "velocity": 98,
      "chip": "ym2612"
    },
    {
      "channel": 2,
      "note": 56,
      "start": 13.8774,
      "duration": 0.0161,
      "velocity": 93,
      "chip": "ym2612"
    },
    {
      "channel": 0,
      "note": 49,
      "start": 13.8886,
      "duration": 0.0179,
      "velocity": 115,
      "chip": "ym2612"
    },
    {
      "channel": 2,
      "note": 56,
      "start": 13.8935,
      "duration": 0.0195,
      "velocity": 93,
      "chip": "ym2612"
    },
    {
      "channel": 0,
      "note": 36,
      "start": 13.9066,
      "duration": 0.0143,
      "velocity": 115,
      "chip": "ym2612"
    },
    {
      "channel": 5,
      "note": 73,
      "start": 13.9081,
      "duration": 0.0141,
      "velocity": 102,
      "chip": "ym2612"
    },
    {
      "channel": 4,
      "note": 81,
      "start": 13.9098,
      "duration": 0.0135,
      "velocity": 98,
      "chip": "ym2612"
    },
    {
      "channel": 3,
      "note": 85,
      "start": 13.9115,
      "duration": 0.0131,
      "velocity": 98,
      "chip": "ym2612"
    },
    {
      "channel": 2,
      "note": 57,
      "start": 13.9131,
      "duration": 0.0127,
      "velocity": 93,
      "chip": "ym2612"
    },
    {
      "channel": 1,
      "note": 76,
      "start": 13.9159,
      "duration": 0.0111,
      "velocity": 108,
      "chip": "ym2612"
    },
    {
      "channel": 0,
      "note": 36,
      "start": 13.9209,
      "duration": 0.0161,
      "velocity": 115,
      "chip": "ym2612"
    },
    {
      "channel": 4,
      "note": 81,
      "start": 13.9234,
      "duration": 0.0178,
      "velocity": 98,
      "chip": "ym2612"
    },
    {
      "channel": 3,
      "note": 85,
      "start": 13.9246,
      "duration": 0.0177,
      "velocity": 98,
      "chip": "ym2612"
    },
    {
      "channel": 2,
      "note": 57,
      "start": 13.9258,
      "duration": 0.0176,
      "velocity": 93,
      "chip": "ym2612"
    },
    {
      "channel": 1,
      "note": 76,
      "start": 13.927,
      "duration": 0.0176,
      "velocity": 108,
      "chip": "ym2612"
    },
    {
      "channel": 0,
      "note": 37,
      "start": 13.937,
      "duration": 0.0164,
      "velocity": 115,
      "chip": "ym2612"
    },
    {
      "channel": 5,
      "note": 76,
      "start": 13.9399,
      "duration": 0.0148,
      "velocity": 108,
      "chip": "ym2612"
    },
    {
      "channel": 4,
      "note": 81,
      "start": 13.9411,
      "duration": 0.0147,
      "velocity": 98,
      "chip": "ym2612"
    },
    {
      "channel": 3,
      "note": 85,
      "start": 13.9423,
      "duration": 0.0147,
      "velocity": 98,
      "chip": "ym2612"
    },
    {
      "channel": 2,
      "note": 57,
      "start": 13.9434,
      "duration": 0.0147,
      "velocity": 93,
      "chip": "ym2612"
    },
    {
      "channel": 1,
      "note": 76,
      "start": 13.9446,
      "duration": 0.0148,
      "velocity": 108,
      "chip": "ym2612"
    },
    {
      "channel": 0,
      "note": 37,
      "start": 13.9534,
      "duration": 0.0163,
      "velocity": 115,
      "chip": "ym2612"
    },
    {
      "channel": 5,
      "note": 76,
      "start": 13.9547,
      "duration": 0.0162,
      "velocity": 108,
      "chip": "ym2612"
    },
    {
      "channel": 4,
      "note": 81,
      "start": 13.9558,
      "duration": 0.0162,
      "velocity": 98,
      "chip": "ym2612"
    },
    {
      "channel": 3,
      "note": 85,
      "start": 13.957,
      "duration": 0.0162,
      "velocity": 98,
      "chip": "ym2612"
    },
    {
      "channel": 2,
      "note": 57,
      "start": 13.9581,
      "duration": 0.0163,
      "velocity": 93,
      "chip": "ym2612"
    },
    {
      "channel": 1,
      "note": 76,
      "start": 13.9593,
      "duration": 0.0162,
      "velocity": 108,
      "chip": "ym2612"
    },
    {
      "channel": 0,
      "note": 38,
      "start": 13.9698,
      "duration": 0.016,
      "velocity": 115,
      "chip": "ym2612"
    },
    {
      "channel": 5,
      "note": 76,
      "start": 13.9709,
      "duration": 0.0161,
      "velocity": 108,
      "chip": "ym2612"
    },
    {
      "channel": 4,
      "note": 81,
      "start": 13.972,
      "duration": 0.0161,
      "velocity": 98,
      "chip": "ym2612"
    },
    {
      "channel": 3,
      "note": 85,
      "start": 13.9732,
      "duration": 0.0161,
      "velocity": 98,
      "chip": "ym2612"
    },
    {
      "channel": 2,
      "note": 57,
      "start": 13.9744,
      "duration": 0.0161,
      "velocity": 93,
      "chip": "ym2612"
    },
    {
      "channel": 1,
      "note": 76,
      "start": 13.9755,
      "duration": 0.0161,
      "velocity": 108,
      "chip": "ym2612"
    },
    {
      "channel": 0,
      "note": 38,
      "start": 13.9858,
      "duration": 0.0161,
      "velocity": 115,
      "chip": "ym2612"
    },
    {
      "channel": 5,
      "note": 76,
      "start": 13.987,
      "duration": 0.0161,
      "velocity": 108,
      "chip": "ym2612"
    },
    {
      "channel": 4,
      "note": 81,
      "start": 13.9881,
      "duration": 0.0161,
      "velocity": 98,
      "chip": "ym2612"
    },
    {
      "channel": 3,
      "note": 85,
      "start": 13.9893,
      "duration": 0.0161,
      "velocity": 98,
      "chip": "ym2612"
    },
    {
      "channel": 2,
      "note": 57,
      "start": 13.9905,
      "duration": 0.0161,
      "velocity": 93,
      "chip": "ym2612"
    },
    {
      "channel": 1,
      "note": 76,
      "start": 13.9916,
      "duration": 0.0161,
      "velocity": 108,
      "chip": "ym2612"
    },
    {
      "channel": 0,
      "note": 39,
      "start": 14.0019,
      "duration": 0.0158,
      "velocity": 115,
      "chip": "ym2612"
    },
    {
      "channel": 5,
      "note": 76,
      "start": 14.0031,
      "duration": 0.0162,
      "velocity": 108,
      "chip": "ym2612"
    },
    {
      "channel": 4,
      "note": 81,
      "start": 14.0042,
      "duration": 0.0161,
      "velocity": 98,
      "chip": "ym2612"
    },
    {
      "channel": 3,
      "note": 85,
      "start": 14.0054,
      "duration": 0.0161,
      "velocity": 98,
      "chip": "ym2612"
    },
    {
      "channel": 2,
      "note": 57,
      "start": 14.0066,
      "duration": 0.0161,
      "velocity": 93,
      "chip": "ym2612"
    },
    {
      "channel": 1,
      "note": 76,
      "start": 14.0077,
      "duration": 0.0161,
      "velocity": 108,
      "chip": "ym2612"
    },
    {
      "channel": 0,
      "note": 39,
      "start": 14.0177,
      "duration": 0.0159,
      "velocity": 115,
      "chip": "ym2612"
    },
    {
      "channel": 5,
      "note": 76,
      "start": 14.0193,
      "duration": 0.016,
      "velocity": 108,
      "chip": "ym2612"
    },
    {
      "channel": 4,
      "note": 81,
      "start": 14.0204,
      "duration": 0.0161,
      "velocity": 98,
      "chip": "ym2612"
    },
    {
      "channel": 3,
      "note": 85,
      "start": 14.0215,
      "duration": 0.0161,
      "velocity": 98,
      "chip": "ym2612"
    },
    {
      "channel": 2,
      "note": 57,
      "start": 14.0227,
      "duration": 0.0161,
      "velocity": 93,
      "chip": "ym2612"
    },
    {
      "channel": 1,
      "note": 76,
      "start": 14.0238,
      "duration": 0.0161,
      "velocity": 108,
      "chip": "ym2612"
    },
    {
      "channel": 0,
      "note": 40,
      "start": 14.0336,
      "duration": 0.0161,
      "velocity": 115,
      "chip": "ym2612"
    },
    {
      "channel": 5,
      "note": 76,
      "start": 14.0353,
      "duration": 0.0158,
      "velocity": 108,
      "chip": "ym2612"
    },
    {
      "channel": 4,
      "note": 81,
      "start": 14.0365,
      "duration": 0.0162,
      "velocity": 98,
      "chip": "ym2612"
    },
    {
      "channel": 3,
      "note": 85,
      "start": 14.0376,
      "duration": 0.0162,
      "velocity": 98,
      "chip": "ym2612"
    },
    {
      "channel": 2,
      "note": 57,
      "start": 14.0388,
      "duration": 0.0163,
      "velocity": 93,
      "chip": "ym2612"
    },
    {
      "channel": 1,
      "note": 76,
      "start": 14.0399,
      "duration": 0.0164,
      "velocity": 108,
      "chip": "ym2612"
    },
    {
      "channel": 0,
      "note": 40,
      "start": 14.0497,
      "duration": 0.0161,
      "velocity": 115,
      "chip": "ym2612"
    },
    {
      "channel": 5,
      "note": 76,
      "start": 14.051,
      "duration": 0.0159,
      "velocity": 108,
      "chip": "ym2612"
    },
    {
      "channel": 4,
      "note": 81,
      "start": 14.0527,
      "duration": 0.016,
      "velocity": 98,
      "chip": "ym2612"
    },
    {
      "channel": 3,
      "note": 85,
      "start": 14.0539,
      "duration": 0.0161,
      "velocity": 98,
      "chip": "ym2612"
    },
    {
      "channel": 2,
      "note": 57,
      "start": 14.0551,
      "duration": 0.016,
      "velocity": 93,
      "chip": "ym2612"
    },
    {
      "channel": 1,
      "note": 76,
      "start": 14.0563,
      "duration": 0.016,
      "velocity": 108,
      "chip": "ym2612"
    },
    {
      "channel": 0,
      "note": 40,
      "start": 14.0657,
      "duration": 0.0161,
      "velocity": 115,
      "chip": "ym2612"
    },
    {
      "channel": 5,
      "note": 76,
      "start": 14.067,
      "duration": 0.0161,
      "velocity": 108,
      "chip": "ym2612"
    },
    {
      "channel": 4,
      "note": 81,
      "start": 14.0687,
      "duration": 0.0162,
      "velocity": 98,
      "chip": "ym2612"
    },
    {
      "channel": 3,
      "note": 85,
      "start": 14.07,
      "duration": 0.0161,
      "velocity": 98,
      "chip": "ym2612"
    },
    {
      "channel": 2,
      "note": 57,
      "start": 14.0712,
      "duration": 0.0161,
      "velocity": 93,
      "chip": "ym2612"
    },
    {
      "channel": 1,
      "note": 76,
      "start": 14.0724,
      "duration": 0.0162,
      "velocity": 108,
      "chip": "ym2612"
    },
    {
      "channel": 0,
      "note": 41,
      "start": 14.0818,
      "duration": 0.0161,
      "velocity": 115,
      "chip": "ym2612"
    },
    {
      "channel": 5,
      "note": 76,
      "start": 14.0831,
      "duration": 0.0161,
      "velocity": 108,
      "chip": "ym2612"
    },
    {
      "channel": 4,
      "note": 81,
      "start": 14.0848,
      "duration": 0.0155,
      "velocity": 98,
      "chip": "ym2612"
    },
    {
      "channel": 3,
      "note": 85,
      "start": 14.0861,
      "duration": 0.0159,
      "velocity": 98,
      "chip": "ym2612"
    },
    {
      "channel": 2,
      "note": 57,
      "start": 14.0873,
      "duration": 0.0159,
      "velocity": 93,
      "chip": "ym2612"
    },
    {
      "channel": 1,
      "note": 76,
      "start": 14.0886,
      "duration": 0.0158,
      "velocity": 108,
      "chip": "ym2612"
    },
    {
      "channel": 0,
      "note": 41,
      "start": 14.0979,
      "duration": 0.0161,
      "velocity": 115,
      "chip": "ym2612"
    },
    {
      "channel": 5,
      "note": 76,
      "start": 14.0992,
      "duration": 0.016,
      "velocity": 108,
      "chip": "ym2612"
    },
    {
      "channel": 4,
      "note": 81,
      "start": 14.1004,
      "duration": 0.016,
      "velocity": 98,
      "chip": "ym2612"
    },
    {
      "channel": 3,
      "note": 85,
      "start": 14.102,
      "duration": 0.0157,
      "velocity": 98,
      "chip": "ym2612"
    },
    {
      "channel": 2,
      "note": 57,
      "start": 14.1032,
      "duration": 0.016,
      "velocity": 93,
      "chip": "ym2612"
    },
    {
      "channel": 1,
      "note": 76,
      "start": 14.1044,
      "duration": 0.016,
      "velocity": 108,
      "chip": "ym2612"
    },
    {
      "channel": 0,
      "note": 42,
      "start": 14.114,
      "duration": 0.0161,
      "velocity": 115,
      "chip": "ym2612"
    },
    {
      "channel": 5,
      "note": 76,
      "start": 14.1152,
      "duration": 0.0161,
      "velocity": 108,
      "chip": "ym2612"
    },
    {
      "channel": 4,
      "note": 81,
      "start": 14.1164,
      "duration": 0.0161,
      "velocity": 98,
      "chip": "ym2612"
    },
    {
      "channel": 3,
      "note": 85,
      "start": 14.1177,
      "duration": 0.0159,
      "velocity": 98,
      "chip": "ym2612"
    },
    {
      "channel": 2,
      "note": 57,
      "start": 14.1193,
      "duration": 0.0161,
      "velocity": 93,
      "chip": "ym2612"
    },
    {
      "channel": 1,
      "note": 76,
      "start": 14.1205,
      "duration": 0.0161,
      "velocity": 108,
      "chip": "ym2612"
    },
    {
      "channel": 0,
      "note": 42,
      "start": 14.1302,
      "duration": 0.0161,
      "velocity": 115,
      "chip": "ym2612"
    },
    {
      "channel": 5,
      "note": 76,
      "start": 14.1313,
      "duration": 0.0161,
      "velocity": 108,
      "chip": "ym2612"
    },
    {
      "channel": 4,
      "note": 81,
      "start": 14.1325,
      "duration": 0.0161,
      "velocity": 98,
      "chip": "ym2612"
    },
    {
      "channel": 3,
      "note": 85,
      "start": 14.1336,
      "duration": 0.0161,
      "velocity": 98,
      "chip": "ym2612"
    },
    {
      "channel": 2,
      "note": 57,
      "start": 14.1353,
      "duration": 0.0158,
      "velocity": 93,
      "chip": "ym2612"
    },
    {
      "channel": 1,
      "note": 76,
      "start": 14.1366,
      "duration": 0.0161,
      "velocity": 108,
      "chip": "ym2612"
    },
    {
      "channel": 0,
      "note": 43,
      "start": 14.1463,
      "duration": 0.0161,
      "velocity": 115,
      "chip": "ym2612"
    },
    {
      "channel": 5,
      "note": 76,
      "start": 14.1474,
      "duration": 0.0161,
      "velocity": 108,
      "chip": "ym2612"
    },
    {
      "channel": 4,
      "note": 81,
      "start": 14.1486,
      "duration": 0.0162,
      "velocity": 98,
      "chip": "ym2612"
    },
    {
      "channel": 3,
      "note": 85,
      "start": 14.1497,
      "duration": 0.0162,
      "velocity": 98,
      "chip": "ym2612"
    },
    {
      "channel": 2,
      "note": 57,
      "start": 14.1511,
      "duration": 0.0161,
      "velocity": 93,
      "chip": "ym2612"
    },
    {
      "channel": 1,
      "note": 76,
      "start": 14.1527,
      "duration": 0.0163,
      "velocity": 108,
      "chip": "ym2612"
    },
    {
      "channel": 0,
      "note": 43,
      "start": 14.1624,
      "duration": 0.0161,
      "velocity": 115,
      "chip": "ym2612"
    },
    {
      "channel": 5,
      "note": 76,
      "start": 14.1635,
      "duration": 0.0162,
      "velocity": 108,
      "chip": "ym2612"
    },
    {
      "channel": 4,
      "note": 81,
      "start": 14.1647,
      "duration": 0.0162,
      "velocity": 98,
      "chip": "ym2612"
    },
    {
      "channel": 3,
      "note": 85,
      "start": 14.1659,
      "duration": 0.0163,
      "velocity": 98,
      "chip": "ym2612"
    },
    {
      "channel": 2,
      "note": 57,
      "start": 14.1672,
      "duration": 0.0162,
      "velocity": 93,
      "chip": "ym2612"
    },
    {
      "channel": 1,
      "note": 76,
      "start": 14.169,
      "duration": 0.0162,
      "velocity": 108,
      "chip": "ym2612"
    },
    {
      "channel": 0,
      "note": 44,
      "start": 14.1785,
      "duration": 0.0179,
      "velocity": 124,
      "chip": "ym2612"
    },
    {
      "channel": 5,
      "note": 76,
      "start": 14.1797,
      "duration": 0.018,
      "velocity": 108,
      "chip": "ym2612"
    },
    {
      "channel": 2,
      "note": 57,
      "start": 14.1834,
      "duration": 0.0192,
      "velocity": 93,
      "chip": "ym2612"
    },
    {
      "channel": 0,
      "note": 84,
      "start": 14.1964,
      "duration": 0.0143,
      "velocity": 124,
      "chip": "ym2612"
    },
    {
      "channel": 5,
      "note": 76,
      "start": 14.1977,
      "duration": 0.0143,
      "velocity": 108,
      "chip": "ym2612"
    },
    {
      "channel": 4,
      "note": 81,
      "start": 14.1991,
      "duration": 0.0141,
      "velocity": 98,
      "chip": "ym2612"
    },
    {
      "channel": 3,
      "note": 85,
      "start": 14.2008,
      "duration": 0.0136,
      "velocity": 98,
      "chip": "ym2612"
    },
    {
      "channel": 2,
      "note": 57,
      "start": 14.2027,
      "duration": 0.013,
      "velocity": 93,
      "chip": "ym2612"
    },
    {
      "channel": 1,
      "note": 76,
      "start": 14.2042,
      "duration": 0.0127,
      "velocity": 108,
      "chip": "ym2612"
    },
    {
      "channel": 0,
      "note": 82,
      "start": 14.2107,
      "duration": 0.016,
      "velocity": 124,
      "chip": "ym2612"
    },
    {
      "channel": 4,
      "note": 81,
      "start": 14.2132,
      "duration": 0.0162,
      "velocity": 98,
      "chip": "ym2612"
    },
    {
      "channel": 3,
      "note": 85,
      "start": 14.2144,
      "duration": 0.0161,
      "velocity": 98,
      "chip": "ym2612"
    },
    {
      "channel": 2,
      "note": 57,
      "start": 14.2157,
      "duration": 0.016,
      "velocity": 93,
      "chip": "ym2612"
    },
    {
      "channel": 1,
      "note": 76,
      "start": 14.2169,
      "duration": 0.016,
      "velocity": 108,
      "chip": "ym2612"
    },
    {
      "channel": 0,
      "note": 80,
      "start": 14.2268,
      "duration": 0.0161,
      "velocity": 124,
      "chip": "ym2612"
    },
    {
      "channel": 5,
      "note": 76,
      "start": 14.2283,
      "duration": 0.0159,
      "velocity": 108,
      "chip": "ym2612"
    },
    {
      "channel": 4,
      "note": 81,
      "start": 14.2294,
      "duration": 0.0158,
      "velocity": 98,
      "chip": "ym2612"
    },
    {
      "channel": 3,
      "note": 85,
      "start": 14.2306,
      "duration": 0.0159,
      "velocity": 98,
      "chip": "ym2612"
    },
    {
      "channel": 2,
      "note": 57,
      "start": 14.2317,
      "duration": 0.0158,
      "velocity": 93,
      "chip": "ym2612"
    },
    {
      "channel": 1,
      "note": 76,
      "start": 14.2329,
      "duration": 0.0159,
      "velocity": 108,
      "chip": "ym2612"
    },
    {
      "channel": 0,
      "note": 77,
      "start": 14.2429,
      "duration": 0.0161,
      "velocity": 124,
      "chip": "ym2612"
    },
    {
      "channel": 5,
      "note": 76,
      "start": 14.2441,
      "duration": 0.016,
      "velocity": 108,
      "chip": "ym2612"
    },
    {
      "channel": 4,
      "note": 81,
      "start": 14.2453,
      "duration": 0.016,
      "velocity": 98,
      "chip": "ym2612"
    },
    {
      "channel": 3,
      "note": 85,
      "start": 14.2464,
      "duration": 0.016,
      "velocity": 98,
      "chip": "ym2612"
    },
    {
      "channel": 2,
      "note": 57,
      "start": 14.2476,
      "duration": 0.016,
      "velocity": 93,
      "chip": "ym2612"
    },
    {
      "channel": 1,
      "note": 76,
      "start": 14.2488,
      "duration": 0.016,
      "velocity": 108,
      "chip": "ym2612"
    },
    {
      "channel": 0,
      "note": 75,
      "start": 14.259,
      "duration": 0.0161,
      "velocity": 124,
      "chip": "ym2612"
    },
    {
      "channel": 5,
      "note": 76,
      "start": 14.2602,
      "duration": 0.0161,
      "velocity": 108,
      "chip": "ym2612"
    },
    {
      "channel": 4,
      "note": 81,
      "start": 14.2613,
      "duration": 0.0161,
      "velocity": 98,
      "chip": "ym2612"
    },
    {
      "channel": 3,
      "note": 85,
      "start": 14.2624,
      "duration": 0.0161,
      "velocity": 98,
      "chip": "ym2612"
    },
    {
      "channel": 2,
      "note": 57,
      "start": 14.2636,
      "duration": 0.0161,
      "velocity": 93,
      "chip": "ym2612"
    },
    {
      "channel": 1,
      "note": 76,
      "start": 14.2648,
      "duration": 0.0161,
      "velocity": 108,
      "chip": "ym2612"
    },
    {
      "channel": 0,
      "note": 72,
      "start": 14.2751,
      "duration": 0.0161,
      "velocity": 124,
      "chip": "ym2612"
    },
    {
      "channel": 5,
      "note": 76,
      "start": 14.2762,
      "duration": 0.0161,
      "velocity": 108,
      "chip": "ym2612"
    },
    {
      "channel": 4,
      "note": 81,
      "start": 14.2774,
      "duration": 0.0161,
      "velocity": 98,
      "chip": "ym2612"
    },
    {
      "channel": 3,
      "note": 85,
      "start": 14.2785,
      "duration": 0.0161,
      "velocity": 98,
      "chip": "ym2612"
    },
    {
      "channel": 2,
      "note": 57,
      "start": 14.2797,
      "duration": 0.0161,
      "velocity": 93,
      "chip": "ym2612"
    },
    {
      "channel": 1,
      "note": 76,
      "start": 14.2809,
      "duration": 0.0161,
      "velocity": 108,
      "chip": "ym2612"
    },
    {
      "channel": 0,
      "note": 70,
      "start": 14.2912,
      "duration": 0.0161,
      "velocity": 124,
      "chip": "ym2612"
    },
    {
      "channel": 5,
      "note": 76,
      "start": 14.2923,
      "duration": 0.0161,
      "velocity": 108,
      "chip": "ym2612"
    },
    {
      "channel": 4,
      "note": 81,
      "start": 14.2935,
      "duration": 0.0161,
      "velocity": 98,
      "chip": "ym2612"
    },
    {
      "channel": 3,
      "note": 85,
      "start": 14.2946,
      "duration": 0.0161,
      "velocity": 98,
      "chip": "ym2612"
    },
    {
      "channel": 2,
      "note": 57,
      "start": 14.2958,
      "duration": 0.0161,
      "velocity": 93,
      "chip": "ym2612"
    },
    {
      "channel": 1,
      "note": 76,
      "start": 14.297,
      "duration": 0.0161,
      "velocity": 108,
      "chip": "ym2612"
    },
    {
      "channel": 0,
      "note": 68,
      "start": 14.3073,
      "duration": 0.0161,
      "velocity": 124,
      "chip": "ym2612"
    },
    {
      "channel": 5,
      "note": 76,
      "start": 14.3084,
      "duration": 0.0161,
      "velocity": 108,
      "chip": "ym2612"
    },
    {
      "channel": 4,
      "note": 81,
      "start": 14.3096,
      "duration": 0.0161,
      "velocity": 98,
      "chip": "ym2612"
    },
    {
      "channel": 3,
      "note": 85,
      "start": 14.3107,
      "duration": 0.0161,
      "velocity": 98,
      "chip": "ym2612"
    },
    {
      "channel": 2,
      "note": 57,
      "start": 14.3119,
      "duration": 0.0161,
      "velocity": 93,
      "chip": "ym2612"
    },
    {
      "channel": 1,
      "note": 76,
      "start": 14.3131,
      "duration": 0.0161,
      "velocity": 108,
      "chip": "ym2612"
    },
    {
      "channel": 0,
      "note": 65,
      "start": 14.3234,
      "duration": 0.0161,
      "velocity": 124,
      "chip": "ym2612"
    },
    {
      "channel": 5,
      "note": 76,
      "start": 14.3245,
      "duration": 0.0161,
      "velocity": 108,
      "chip": "ym2612"
    },
    {
      "channel": 4,
      "note": 81,
      "start": 14.3257,
      "duration": 0.0162,
      "velocity": 98,
      "chip": "ym2612"
    },
    {
      "channel": 3,
      "note": 85,
      "start": 14.3268,
      "duration": 0.0163,
      "velocity": 98,
      "chip": "ym2612"
    },
    {
      "channel": 2,
      "note": 57,
      "start": 14.328,
      "duration": 0.0163,
      "velocity": 93,
      "chip": "ym2612"
    },
    {
      "channel": 1,
      "note": 76,
      "start": 14.3292,
      "duration": 0.0164,
      "velocity": 108,
      "chip": "ym2612"
    },
    {
      "channel": 0,
      "note": 63,
      "start": 14.3395,
      "duration": 0.0153,
      "velocity": 1,
      "chip": "ym2612"
    },
    {
      "channel": 5,
      "note": 76,
      "start": 14.3406,
      "duration": 0.0153,
      "velocity": 108,
      "chip": "ym2612"
    },
    {
      "channel": 4,
      "note": 81,
      "start": 14.3418,
      "duration": 0.0153,
      "velocity": 98,
      "chip": "ym2612"
    },
    {
      "channel": 3,
      "note": 85,
      "start": 14.3431,
      "duration": 0.0153,
      "velocity": 98,
      "chip": "ym2612"
    },
    {
      "channel": 2,
      "note": 57,
      "start": 14.3443,
      "duration": 0.0153,
      "velocity": 93,
      "chip": "ym2612"
    },
    {
      "channel": 1,
      "note": 76,
      "start": 14.3456,
      "duration": 0.0152,
      "velocity": 108,
      "chip": "ym2612"
    },
    {
      "channel": 5,
      "note": 76,
      "start": 14.3559,
      "duration": 0.0153,
      "velocity": 108,
      "chip": "ym2612"
    },
    {
      "channel": 4,
      "note": 81,
      "start": 14.3572,
      "duration": 0.0153,
      "velocity": 98,
      "chip": "ym2612"
    },
    {
      "channel": 3,
      "note": 85,
      "start": 14.3584,
      "duration": 0.0153,
      "velocity": 98,
      "chip": "ym2612"
    },
    {
      "channel": 2,
      "note": 57,
      "start": 14.3596,
      "duration": 0.0153,
      "velocity": 93,
      "chip": "ym2612"
    },
    {
      "channel": 1,
      "note": 76,
      "start": 14.3608,
      "duration": 0.0153,
      "velocity": 108,
      "chip": "ym2612"
    },
    {
      "channel": 5,
      "note": 76,
      "start": 14.3712,
      "duration": 0.0161,
      "velocity": 108,
      "chip": "ym2612"
    },
    {
      "channel": 4,
      "note": 81,
      "start": 14.3724,
      "duration": 0.016,
      "velocity": 98,
      "chip": "ym2612"
    },
    {
      "channel": 3,
      "note": 85,
      "start": 14.3737,
      "duration": 0.016,
      "velocity": 98,
      "chip": "ym2612"
    },
    {
      "channel": 2,
      "note": 57,
      "start": 14.3749,
      "duration": 0.0159,
      "velocity": 93,
      "chip": "ym2612"
    },
    {
      "channel": 1,
      "note": 76,
      "start": 14.3761,
      "duration": 0.0158,
      "velocity": 108,
      "chip": "ym2612"
    },
    {
      "channel": 5,
      "note": 76,
      "start": 14.3873,
      "duration": 0.0161,
      "velocity": 108,
      "chip": "ym2612"
    },
    {
      "channel": 4,
      "note": 81,
      "start": 14.3885,
      "duration": 0.0162,
      "velocity": 98,
      "chip": "ym2612"
    },
    {
      "channel": 3,
      "note": 85,
      "start": 14.3897,
      "duration": 0.0161,
      "velocity": 98,
      "chip": "ym2612"
    },
    {
      "channel": 2,
      "note": 57,
      "start": 14.3908,
      "duration": 0.0161,
      "velocity": 93,
      "chip": "ym2612"
    },
    {
      "channel": 1,
      "note": 76,
      "start": 14.392,
      "duration": 0.0161,
      "velocity": 108,
      "chip": "ym2612"
    },
    {
      "channel": 5,
      "note": 76,
      "start": 14.4034,
      "duration": 0.0163,
      "velocity": 108,
      "chip": "ym2612"
    },
    {
      "channel": 4,
      "note": 81,
      "start": 14.4046,
      "duration": 0.0162,
      "velocity": 98,
      "chip": "ym2612"
    },
    {
      "channel": 3,
      "note": 85,
      "start": 14.4058,
      "duration": 0.0162,
      "velocity": 98,
      "chip": "ym2612"
    },
    {
      "channel": 2,
      "note": 57,
      "start": 14.4069,
      "duration": 0.0162,
      "velocity": 93,
      "chip": "ym2612"
    },
    {
      "channel": 1,
      "note": 76,
      "start": 14.408,
      "duration": 0.0162,
      "velocity": 108,
      "chip": "ym2612"
    },
    {
      "channel": 5,
      "note": 76,
      "start": 14.4197,
      "duration": 0.0163,
      "velocity": 108,
      "chip": "ym2612"
    },
    {
      "channel": 4,
      "note": 81,
      "start": 14.4208,
      "duration": 0.0163,
      "velocity": 98,
      "chip": "ym2612"
    },
    {
      "channel": 3,
      "note": 85,
      "start": 14.422,
      "duration": 0.0163,
      "velocity": 98,
      "chip": "ym2612"
    },
    {
      "channel": 2,
      "note": 57,
      "start": 14.4231,
      "duration": 0.0163,
      "velocity": 93,
      "chip": "ym2612"
    },
    {
      "channel": 1,
      "note": 76,
      "start": 14.4243,
      "duration": 0.0163,
      "velocity": 108,
      "chip": "ym2612"
    },
    {
      "channel": 5,
      "note": 76,
      "start": 14.436,
      "duration": 0.0163,
      "velocity": 108,
      "chip": "ym2612"
    },
    {
      "channel": 4,
      "note": 81,
      "start": 14.4371,
      "duration": 0.0163,
      "velocity": 98,
      "chip": "ym2612"
    },
    {
      "channel": 3,
      "note": 85,
      "start": 14.4383,
      "duration": 0.0163,
      "velocity": 98,
      "chip": "ym2612"
    },
    {
      "channel": 2,
      "note": 57,
      "start": 14.4395,
      "duration": 0.0165,
      "velocity": 93,
      "chip": "ym2612"
    },
    {
      "channel": 1,
      "note": 76,
      "start": 14.4406,
      "duration": 0.0166,
      "velocity": 108,
      "chip": "ym2612"
    },
    {
      "channel": 5,
      "note": 76,
      "start": 14.4523,
      "duration": 0.0161,
      "velocity": 108,
      "chip": "ym2612"
    },
    {
      "channel": 4,
      "note": 81,
      "start": 14.4535,
      "duration": 0.0162,
      "velocity": 98,
      "chip": "ym2612"
    },
    {
      "channel": 3,
      "note": 85,
      "start": 14.4547,
      "duration": 0.0162,
      "velocity": 98,
      "chip": "ym2612"
    },
    {
      "channel": 2,
      "note": 57,
      "start": 14.4559,
      "duration": 0.0162,
      "velocity": 93,
      "chip": "ym2612"
    },
    {
      "channel": 1,
      "note": 76,
      "start": 14.4572,
      "duration": 0.0163,
      "velocity": 108,
      "chip": "ym2612"
    },
    {
      "channel": 5,
      "note": 76,
      "start": 14.4683,
      "duration": 0.0197,
      "velocity": 108,
      "chip": "ym2612"
    },
    {
      "channel": 2,
      "note": 57,
      "start": 14.4722,
      "duration": 0.0204,
      "velocity": 93,
      "chip": "ym2612"
    },
    {
      "channel": 0,
      "note": 36,
      "start": 14.4868,
      "duration": 0.014,
      "velocity": 115,
      "chip": "ym2612"
    },
    {
      "channel": 5,
      "note": 76,
      "start": 14.4881,
      "duration": 0.0143,
      "velocity": 108,
      "chip": "ym2612"
    },
    {
      "channel": 4,
      "note": 81,
      "start": 14.4896,
      "duration": 0.0141,
      "velocity": 98,
      "chip": "ym2612"
    },
    {
      "channel": 3,
      "note": 85,
      "start": 14.4911,
      "duration": 0.0137,
      "velocity": 98,
      "chip": "ym2612"
    },
    {
      "channel": 2,
      "note": 57,
      "start": 14.4926,
      "duration": 0.0135,
      "velocity": 93,
      "chip": "ym2612"
    },
    {
      "channel": 1,
      "note": 76,
      "start": 14.4941,
      "duration": 0.0132,
      "velocity": 108,
      "chip": "ym2612"
    },
    {
      "channel": 0,
      "note": 36,
      "start": 14.5008,
      "duration": 0.0158,
      "velocity": 115,
      "chip": "ym2612"
    },
    {
      "channel": 4,
      "note": 81,
      "start": 14.5037,
      "duration": 0.0162,
      "velocity": 98,
      "chip": "ym2612"
    },
    {
      "channel": 3,
      "note": 85,
      "start": 14.5049,
      "duration": 0.0161,
      "velocity": 98,
      "chip": "ym2612"
    },
    {
      "channel": 2,
      "note": 57,
      "start": 14.5061,
      "duration": 0.016,
      "velocity": 93,
      "chip": "ym2612"
    },
    {
      "channel": 1,
      "note": 76,
      "start": 14.5073,
      "duration": 0.016,
      "velocity": 108,
      "chip": "ym2612"
    },
    {
      "channel": 0,
      "note": 37,
      "start": 14.5166,
      "duration": 0.0161,
      "velocity": 115,
      "chip": "ym2612"
    },
    {
      "channel": 5,
      "note": 76,
      "start": 14.5186,
      "duration": 0.0155,
      "velocity": 108,
      "chip": "ym2612"
    },
    {
      "channel": 4,
      "note": 81,
      "start": 14.5198,
      "duration": 0.0159,
      "velocity": 98,
      "chip": "ym2612"
    },
    {
      "channel": 3,
      "note": 85,
      "start": 14.521,
      "duration": 0.0159,
      "velocity": 98,
      "chip": "ym2612"
    },
    {
      "channel": 2,
      "note": 57,
      "start": 14.5221,
      "duration": 0.0159,
      "velocity": 93,
      "chip": "ym2612"
    },
    {
      "channel": 1,
      "note": 76,
      "start": 14.5232,
      "duration": 0.0159,
      "velocity": 108,
      "chip": "ym2612"
    },
    {
      "channel": 0,
      "note": 37,
      "start": 14.5327,
      "duration": 0.0161,
      "velocity": 115,
      "chip": "ym2612"
    },
    {
      "channel": 5,
      "note": 76,
      "start": 14.5341,
      "duration": 0.0159,
      "velocity": 108,
      "chip": "ym2612"
    },
    {
      "channel": 4,
      "note": 81,
      "start": 14.5357,
      "duration": 0.016,
      "velocity": 98,
      "chip": "ym2612"
    },
    {
      "channel": 3,
      "note": 85,
      "start": 14.5368,
      "duration": 0.016,
      "velocity": 98,
      "chip": "ym2612"
    },
    {
      "channel": 2,
      "note": 57,
      "start": 14.538,
      "duration": 0.016,
      "velocity": 93,
      "chip": "ym2612"
    },
    {
      "channel": 1,
      "note": 76,
      "start": 14.5392,
      "duration": 0.016,
      "velocity": 108,
      "chip": "ym2612"
    },
    {
      "channel": 0,
      "note": 38,
      "start": 14.5488,
      "duration": 0.0162,
      "velocity": 115,
      "chip": "ym2612"
    },
    {
      "channel": 5,
      "note": 76,
      "start": 14.55,
      "duration": 0.0161,
      "velocity": 108,
      "chip": "ym2612"
    },
    {
      "channel": 4,
      "note": 81,
      "start": 14.5516,
      "duration": 0.0156,
      "velocity": 98,
      "chip": "ym2612"
    },
    {
      "channel": 3,
      "note": 85,
      "start": 14.5528,
      "duration": 0.0162,
      "velocity": 98,
      "chip": "ym2612"
    },
    {
      "channel": 2,
      "note": 57,
      "start": 14.554,
      "duration": 0.0161,
      "velocity": 93,
      "chip": "ym2612"
    },
    {
      "channel": 1,
      "note": 76,
      "start": 14.5552,
      "duration": 0.0161,
      "velocity": 108,
      "chip": "ym2612"
    },
    {
      "channel": 0,
      "note": 38,
      "start": 14.5649,
      "duration": 0.0161,
      "velocity": 115,
      "chip": "ym2612"
    },
    {
      "channel": 5,
      "note": 76,
      "start": 14.5661,
      "duration": 0.0161,
      "velocity": 108,
      "chip": "ym2612"
    },
    {
      "channel": 4,
      "note": 81,
      "start": 14.5672,
      "duration": 0.0161,
      "velocity": 98,
      "chip": "ym2612"
    },
    {
      "channel": 3,
      "note": 85,
      "start": 14.569,
      "duration": 0.016,
      "velocity": 98,
      "chip": "ym2612"
    },
    {
      "channel": 2,
      "note": 57,
      "start": 14.5701,
      "duration": 0.0161,
      "velocity": 93,
      "chip": "ym2612"
    },
    {
      "channel": 1,
      "note": 76,
      "start": 14.5713,
      "duration": 0.0161,
      "velocity": 108,
      "chip": "ym2612"
    },
    {
      "channel": 0,
      "note": 39,
      "start": 14.581,
      "duration": 0.0161,
      "velocity": 115,
      "chip": "ym2612"
    },
    {
      "channel": 5,
      "note": 76,
      "start": 14.5822,
      "duration": 0.0161,
      "velocity": 108,
      "chip": "ym2612"
    },
    {
      "channel": 4,
      "note": 81,
      "start": 14.5833,
      "duration": 0.0161,
      "velocity": 98,
      "chip": "ym2612"
    },
    {
      "channel": 3,
      "note": 85,
      "start": 14.585,
      "duration": 0.0155,
      "velocity": 98,
      "chip": "ym2612"
    },
    {
      "channel": 2,
      "note": 57,
      "start": 14.5862,
      "duration": 0.0161,
      "velocity": 93,
      "chip": "ym2612"
    },
    {
      "channel": 1,
      "note": 76,
      "start": 14.5874,
      "duration": 0.0161,
      "velocity": 108,
      "chip": "ym2612"
    },
    {
      "channel": 0,
      "note": 39,
      "start": 14.5971,
      "duration": 0.0161,
      "velocity": 115,
      "chip": "ym2612"
    },
    {
      "channel": 5,
      "note": 76,
      "start": 14.5983,
      "duration": 0.0161,
      "velocity": 108,
      "chip": "ym2612"
    },
    {
      "channel": 4,
      "note": 81,
      "start": 14.5994,
      "duration": 0.0161,
      "velocity": 98,
      "chip": "ym2612"
    },
    {
      "channel": 3,
      "note": 85,
      "start": 14.6005,
      "duration": 0.0161,
      "velocity": 98,
      "chip": "ym2612"
    },
    {
      "channel": 2,
      "note": 57,
      "start": 14.6023,
      "duration": 0.016,
      "velocity": 93,
      "chip": "ym2612"
    },
    {
      "channel": 1,
      "note": 76,
      "start": 14.6035,
      "duration": 0.0161,
      "velocity": 108,
      "chip": "ym2612"
    },
    {
      "channel": 0,
      "note": 40,
      "start": 14.6132,
      "duration": 0.0161,
      "velocity": 115,
      "chip": "ym2612"
    },
    {
      "channel": 5,
      "note": 76,
      "start": 14.6144,
      "duration": 0.0161,
      "velocity": 108,
      "chip": "ym2612"
    },
    {
      "channel": 4,
      "note": 81,
      "start": 14.6155,
      "duration": 0.0162,
      "velocity": 98,
      "chip": "ym2612"
    },
    {
      "channel": 3,
      "note": 85,
      "start": 14.6166,
      "duration": 0.0163,
      "velocity": 98,
      "chip": "ym2612"
    },
    {
      "channel": 2,
      "note": 57,
      "start": 14.6183,
      "duration": 0.016,
      "velocity": 93,
      "chip": "ym2612"
    },
    {
      "channel": 1,
      "note": 76,
      "start": 14.6196,
      "duration": 0.0164,
      "velocity": 108,
      "chip": "ym2612"
    },
    {
      "channel": 0,
      "note": 40,
      "start": 14.6293,
      "duration": 0.0161,
      "velocity": 115,
      "chip": "ym2612"
    },
    {
      "channel": 5,
      "note": 76,
      "start": 14.6304,
      "duration": 0.0161,
      "velocity": 108,
      "chip": "ym2612"
    },
    {
      "channel": 4,
      "note": 81,
      "start": 14.6317,
      "duration": 0.016,
      "velocity": 98,
      "chip": "ym2612"
    },
    {
      "channel": 3,
      "note": 85,
      "start": 14.6329,
      "duration": 0.016,
      "velocity": 98,
      "chip": "ym2612"
    },
    {
      "channel": 2,
      "note": 57,
      "start": 14.6343,
      "duration": 0.0158,
      "velocity": 93,
      "chip": "ym2612"
    },
    {
      "channel": 1,
      "note": 76,
      "start": 14.636,
      "duration": 0.016,
      "velocity": 108,
      "chip": "ym2612"
    },
    {
      "channel": 0,
      "note": 40,
      "start": 14.6454,
      "duration": 0.0161,
      "velocity": 115,
      "chip": "ym2612"
    },
    {
      "channel": 5,
      "note": 76,
      "start": 14.6465,
      "duration": 0.0162,
      "velocity": 108,
      "chip": "ym2612"
    },
    {
      "channel": 4,
      "note": 81,
      "start": 14.6478,
      "duration": 0.0162,
      "velocity": 98,
      "chip": "ym2612"
    },
    {
      "channel": 3,
      "note": 85,
      "start": 14.649,
      "duration": 0.0162,
      "velocity": 98,
      "chip": "ym2612"
    },
    {
      "channel": 2,
      "note": 57,
      "start": 14.6502,
      "duration": 0.0162,
      "velocity": 93,
      "chip": "ym2612"
    },
    {
      "channel": 1,
      "note": 76,
      "start": 14.652,
      "duration": 0.0161,
      "velocity": 108,
      "chip": "ym2612"
    },
    {
      "channel": 0,
      "note": 41,
      "start": 14.6615,
      "duration": 0.0161,
      "velocity": 115,
      "chip": "ym2612"
    },
    {
      "channel": 5,
      "note": 76,
      "start": 14.6628,
      "duration": 0.0161,
      "velocity": 108,
      "chip": "ym2612"
    },
    {
      "channel": 4,
      "note": 81,
      "start": 14.664,
      "duration": 0.016,
      "velocity": 98,
      "chip": "ym2612"
    },
    {
      "channel": 3,
      "note": 85,
      "start": 14.6652,
      "duration": 0.016,
      "velocity": 98,
      "chip": "ym2612"
    },
    {
      "channel": 2,
      "note": 57,
      "start": 14.6664,
      "duration": 0.0159,
      "velocity": 93,
      "chip": "ym2612"
    },
    {
      "channel": 1,
      "note": 76,
      "start": 14.6681,
      "duration": 0.0153,
      "velocity": 108,
      "chip": "ym2612"
    },
    {
      "channel": 0,
      "note": 41,
      "start": 14.6776,
      "duration": 0.0161,
      "velocity": 115,
      "chip": "ym2612"
    },
    {
      "channel": 5,
      "note": 76,
      "start": 14.6788,
      "duration": 0.016,
      "velocity": 108,
      "chip": "ym2612"
    },
    {
      "channel": 4,
      "note": 81,
      "start": 14.68,
      "duration": 0.016,
      "velocity": 98,
      "chip": "ym2612"
    },
    {
      "channel": 3,
      "note": 85,
      "start": 14.6811,
      "duration": 0.016,
      "velocity": 98,
      "chip": "ym2612"
    },
    {
      "channel": 2,
      "note": 57,
      "start": 14.6823,
      "duration": 0.016,
      "velocity": 93,
      "chip": "ym2612"
    },
    {
      "channel": 1,
      "note": 76,
      "start": 14.6834,
      "duration": 0.016,
      "velocity": 108,
      "chip": "ym2612"
    },
    {
      "channel": 0,
      "note": 42,
      "start": 14.6937,
      "duration": 0.0161,
      "velocity": 115,
      "chip": "ym2612"
    },
    {
      "channel": 5,
      "note": 76,
      "start": 14.6949,
      "duration": 0.0161,
      "velocity": 108,
      "chip": "ym2612"
    },
    {
      "channel": 4,
      "note": 81,
      "start": 14.696,
      "duration": 0.0161,
      "velocity": 98,
      "chip": "ym2612"
    },
    {
      "channel": 3,
      "note": 85,
      "start": 14.6972,
      "duration": 0.0161,
      "velocity": 98,
      "chip": "ym2612"
    },
    {
      "channel": 2,
      "note": 57,
      "start": 14.6983,
      "duration": 0.0161,
      "velocity": 93,
      "chip": "ym2612"
    },
    {
      "channel": 1,
      "note": 76,
      "start": 14.6995,
      "duration": 0.0161,
      "velocity": 108,
      "chip": "ym2612"
    },
    {
      "channel": 0,
      "note": 42,
      "start": 14.7098,
      "duration": 0.0161,
      "velocity": 115,
      "chip": "ym2612"
    },
    {
      "channel": 5,
      "note": 76,
      "start": 14.711,
      "duration": 0.0161,
      "velocity": 108,
      "chip": "ym2612"
    },
    {
      "channel": 4,
      "note": 81,
      "start": 14.7121,
      "duration": 0.0161,
      "velocity": 98,
      "chip": "ym2612"
    },
    {
      "channel": 3,
      "note": 85,
      "start": 14.7133,
      "duration": 0.0161,
      "velocity": 98,
      "chip": "ym2612"
    },
    {
      "channel": 2,
      "note": 57,
      "start": 14.7144,
      "duration": 0.0161,
      "velocity": 93,
      "chip": "ym2612"
    },
    {
      "channel": 1,
      "note": 76,
      "start": 14.7156,
      "duration": 0.0162,
      "velocity": 108,
      "chip": "ym2612"
    },
    {
      "channel": 0,
      "note": 43,
      "start": 14.7259,
      "duration": 0.0161,
      "velocity": 115,
      "chip": "ym2612"
    },
    {
      "channel": 5,
      "note": 76,
      "start": 14.7271,
      "duration": 0.0161,
      "velocity": 108,
      "chip": "ym2612"
    },
    {
      "channel": 4,
      "note": 81,
      "start": 14.7282,
      "duration": 0.0162,
      "velocity": 98,
      "chip": "ym2612"
    },
    {
      "channel": 3,
      "note": 85,
      "start": 14.7294,
      "duration": 0.0162,
      "velocity": 98,
      "chip": "ym2612"
    },
    {
      "channel": 2,
      "note": 57,
      "start": 14.7305,
      "duration": 0.0163,
      "velocity": 93,
      "chip": "ym2612"
    },
    {
      "channel": 1,
      "note": 76,
      "start": 14.7317,
      "duration": 0.0163,
      "velocity": 108,
      "chip": "ym2612"
    },
    {
      "channel": 0,
      "note": 43,
      "start": 14.742,
      "duration": 0.0161,
      "velocity": 115,
      "chip": "ym2612"
    },
    {
      "channel": 5,
      "note": 76,
      "start": 14.7432,
      "duration": 0.0161,
      "velocity": 108,
      "chip": "ym2612"
    },
    {
      "channel": 4,
      "note": 81,
      "start": 14.7444,
      "duration": 0.0162,
      "velocity": 98,
      "chip": "ym2612"
    },
    {
      "channel": 3,
      "note": 85,
      "start": 14.7456,
      "duration": 0.0162,
      "velocity": 98,
      "chip": "ym2612"
    },
    {
      "channel": 2,
      "note": 57,
      "start": 14.7468,
      "duration": 0.0163,
      "velocity": 93,
      "chip": "ym2612"
    },
    {
      "channel": 1,
      "note": 76,
      "start": 14.7481,
      "duration": 0.0163,
      "velocity": 108,
      "chip": "ym2612"
    },
    {
      "channel": 0,
      "note": 44,
      "start": 14.7581,
      "duration": 0.0179,
      "velocity": 124,
      "chip": "ym2612"
    },
    {
      "channel": 5,
      "note": 76,
      "start": 14.7593,
      "duration": 0.018,
      "velocity": 108,
      "chip": "ym2612"
    },
    {
      "channel": 2,
      "note": 57,
      "start": 14.7631,
      "duration": 0.0188,
      "velocity": 93,
      "chip": "ym2612"
    },
    {
      "channel": 0,
      "note": 84,
      "start": 14.7761,
      "duration": 0.0143,
      "velocity": 124,
      "chip": "ym2612"
    },
    {
      "channel": 5,
      "note": 76,
      "start": 14.7773,
      "duration": 0.0143,
      "velocity": 108,
      "chip": "ym2612"
    },
    {
      "channel": 4,
      "note": 81,
      "start": 14.7788,
      "duration": 0.014,
      "velocity": 98,
      "chip": "ym2612"
    },
    {
      "channel": 3,
      "note": 85,
      "start": 14.7804,
      "duration": 0.0137,
      "velocity": 98,
      "chip": "ym2612"
    },
    {
      "channel": 2,
      "note": 57,
      "start": 14.7818,
      "duration": 0.0134,
      "velocity": 93,
      "chip": "ym2612"
    },
    {
      "channel": 1,
      "note": 73,
      "start": 14.7834,
      "duration": 0.0131,
      "velocity": 108,
      "chip": "ym2612"
    },
    {
      "channel": 0,
      "note": 82,
      "start": 14.7904,
      "duration": 0.016,
      "velocity": 124,
      "chip": "ym2612"
    },
    {
      "channel": 4,
      "note": 81,
      "start": 14.7929,
      "duration": 0.0162,
      "velocity": 98,
      "chip": "ym2612"
    },
    {
      "channel": 3,
      "note": 85,
      "start": 14.7941,
      "duration": 0.0161,
      "velocity": 98,
      "chip": "ym2612"
    },
    {
      "channel": 2,
      "note": 57,
      "start": 14.7953,
      "duration": 0.0161,
      "velocity": 93,
      "chip": "ym2612"
    },
    {
      "channel": 1,
      "note": 73,
      "start": 14.7965,
      "duration": 0.0161,
      "velocity": 108,
      "chip": "ym2612"
    },
    {
      "channel": 0,
      "note": 80,
      "start": 14.8064,
      "duration": 0.0161,
      "velocity": 124,
      "chip": "ym2612"
    },
    {
      "channel": 5,
      "note": 73,
      "start": 14.8079,
      "duration": 0.0159,
      "velocity": 108,
      "chip": "ym2612"
    },
    {
      "channel": 4,
      "note": 81,
      "start": 14.8091,
      "duration": 0.0158,
      "velocity": 98,
      "chip": "ym2612"
    },
    {
      "channel": 3,
      "note": 85,
      "start": 14.8102,
      "duration": 0.0159,
      "velocity": 98,
      "chip": "ym2612"
    },
    {
      "channel": 2,
      "note": 57,
      "start": 14.8114,
      "duration": 0.0158,
      "velocity": 93,
      "chip": "ym2612"
    },
    {
      "channel": 1,
      "note": 73,
      "start": 14.8126,
      "duration": 0.0159,
      "velocity": 108,
      "chip": "ym2612"
    },
    {
      "channel": 0,
      "note": 77,
      "start": 14.8225,
      "duration": 0.0161,
      "velocity": 124,
      "chip": "ym2612"
    },
    {
      "channel": 5,
      "note": 73,
      "start": 14.8238,
      "duration": 0.016,
      "velocity": 108,
      "chip": "ym2612"
    },
    {
      "channel": 4,
      "note": 81,
      "start": 14.8249,
      "duration": 0.016,
      "velocity": 98,
      "chip": "ym2612"
    },
    {
      "channel": 3,
      "note": 85,
      "start": 14.8261,
      "duration": 0.016,
      "velocity": 98,
      "chip": "ym2612"
    },
    {
      "channel": 2,
      "note": 57,
      "start": 14.8272,
      "duration": 0.016,
      "velocity": 93,
      "chip": "ym2612"
    },
    {
      "channel": 1,
      "note": 73,
      "start": 14.8284,
      "duration": 0.016,
      "velocity": 108,
      "chip": "ym2612"
    },
    {
      "channel": 0,
      "note": 75,
      "start": 14.8386,
      "duration": 0.0161,
      "velocity": 124,
      "chip": "ym2612"
    },
    {
      "channel": 5,
      "note": 73,
      "start": 14.8398,
      "duration": 0.0161,
      "velocity": 108,
      "chip": "ym2612"
    },
    {
      "channel": 4,
      "note": 81,
      "start": 14.8409,
      "duration": 0.0161,
      "velocity": 98,
      "chip": "ym2612"
    },
    {
      "channel": 3,
      "note": 85,
      "start": 14.8421,
      "duration": 0.0161,
      "velocity": 98,
      "chip": "ym2612"
    },
    {
      "channel": 2,
      "note": 57,
      "start": 14.8432,
      "duration": 0.0161,
      "velocity": 93,
      "chip": "ym2612"
    },
    {
      "channel": 1,
      "note": 73,
      "start": 14.8444,
      "duration": 0.0161,
      "velocity": 108,
      "chip": "ym2612"
    },
    {
      "channel": 0,
      "note": 72,
      "start": 14.8547,
      "duration": 0.016,
      "velocity": 124,
      "chip": "ym2612"
    },
    {
      "channel": 5,
      "note": 73,
      "start": 14.8559,
      "duration": 0.0161,
      "velocity": 108,
      "chip": "ym2612"
    },
    {
      "channel": 4,
      "note": 81,
      "start": 14.857,
      "duration": 0.0161,
      "velocity": 98,
      "chip": "ym2612"
    },
    {
      "channel": 3,
      "note": 85,
      "start": 14.8582,
      "duration": 0.0161,
      "velocity": 98,
      "chip": "ym2612"
    },
    {
      "channel": 2,
      "note": 57,
      "start": 14.8593,
      "duration": 0.0161,
      "velocity": 93,
      "chip": "ym2612"
    },
    {
      "channel": 1,
      "note": 73,
      "start": 14.8605,
      "duration": 0.016,
      "velocity": 108,
      "chip": "ym2612"
    },
    {
      "channel": 0,
      "note": 70,
      "start": 14.8708,
      "duration": 0.0162,
      "velocity": 124,
      "chip": "ym2612"
    },
    {
      "channel": 5,
      "note": 73,
      "start": 14.872,
      "duration": 0.0162,
      "velocity": 108,
      "chip": "ym2612"
    },
    {
      "channel": 4,
      "note": 81,
      "start": 14.8731,
      "duration": 0.0161,
      "velocity": 98,
      "chip": "ym2612"
    },
    {
      "channel": 3,
      "note": 85,
      "start": 14.8743,
      "duration": 0.0162,
      "velocity": 98,
      "chip": "ym2612"
    },
    {
      "channel": 2,
      "note": 57,
      "start": 14.8754,
      "duration": 0.0161,
      "velocity": 93,
      "chip": "ym2612"
    },
    {
      "channel": 1,
      "note": 73,
      "start": 14.8766,
      "duration": 0.0162,
      "velocity": 108,
      "chip": "ym2612"
    },
    {
      "channel": 0,
      "note": 68,
      "start": 14.887,
      "duration": 0.0164,
      "velocity": 124,
      "chip": "ym2612"
    },
    {
      "channel": 5,
      "note": 73,
      "start": 14.8881,
      "duration": 0.0164,
      "velocity": 108,
      "chip": "ym2612"
    },
    {
      "channel": 4,
      "note": 81,
      "start": 14.8893,
      "duration": 0.0164,
      "velocity": 98,
      "chip": "ym2612"
    },
    {
      "channel": 3,
      "note": 85,
      "start": 14.8904,
      "duration": 0.0164,
      "velocity": 98,
      "chip": "ym2612"
    },
    {
      "channel": 2,
      "note": 57,
      "start": 14.8916,
      "duration": 0.0165,
      "velocity": 93,
      "chip": "ym2612"
    },
    {
      "channel": 1,
      "note": 73,
      "start": 14.8928,
      "duration": 0.0164,
      "velocity": 108,
      "chip": "ym2612"
    },
    {
      "channel": 0,
      "note": 65,
      "start": 14.9034,
      "duration": 0.0163,
      "velocity": 124,
      "chip": "ym2612"
    },
    {
      "channel": 5,
      "note": 73,
      "start": 14.9046,
      "duration": 0.0163,
      "velocity": 108,
      "chip": "ym2612"
    },
    {
      "channel": 4,
      "note": 81,
      "start": 14.9057,
      "duration": 0.0164,
      "velocity": 98,
      "chip": "ym2612"
    },
    {
      "channel": 3,
      "note": 85,
      "start": 14.9068,
      "duration": 0.0165,
      "velocity": 98,
      "chip": "ym2612"
    },
    {
      "channel": 2,
      "note": 57,
      "start": 14.908,
      "duration": 0.0165,
      "velocity": 93,
      "chip": "ym2612"
    },
    {
      "channel": 1,
      "note": 73,
      "start": 14.9092,
      "duration": 0.0166,
      "velocity": 108,
      "chip": "ym2612"
    },
    {
      "channel": 0,
      "note": 63,
      "start": 14.9197,
      "duration": 0.0153,
      "velocity": 1,
      "chip": "ym2612"
    },
    {
      "channel": 5,
      "note": 73,
      "start": 14.9209,
      "duration": 0.0153,
      "velocity": 108,
      "chip": "ym2612"
    },
    {
      "channel": 4,
      "note": 81,
      "start": 14.9221,
      "duration": 0.0153,
      "velocity": 98,
      "chip": "ym2612"
    },
    {
      "channel": 3,
      "note": 85,
      "start": 14.9233,
      "duration": 0.0153,
      "velocity": 98,
      "chip": "ym2612"
    },
    {
      "channel": 2,
      "note": 57,
      "start": 14.9246,
      "duration": 0.0152,
      "velocity": 93,
      "chip": "ym2612"
    },
    {
      "channel": 1,
      "note": 73,
      "start": 14.9257,
      "duration": 0.0152,
      "velocity": 108,
      "chip": "ym2612"
    },
    {
      "channel": 5,
      "note": 73,
      "start": 14.9362,
      "duration": 0.0148,
      "velocity": 108,
      "chip": "ym2612"
    },
    {
      "channel": 4,
      "note": 81,
      "start": 14.9374,
      "duration": 0.0153,
      "velocity": 98,
      "chip": "ym2612"
    },
    {
      "channel": 3,
      "note": 85,
      "start": 14.9386,
      "duration": 0.0153,
      "velocity": 98,
      "chip": "ym2612"
    },
    {
      "channel": 2,
      "note": 57,
      "start": 14.9398,
      "duration": 0.0153,
      "velocity": 93,
      "chip": "ym2612"
    },
    {
      "channel": 1,
      "note": 73,
      "start": 14.9409,
      "duration": 0.0153,
      "velocity": 108,
      "chip": "ym2612"
    },
    {
      "channel": 5,
      "note": 73,
      "start": 14.951,
      "duration": 0.02,
      "velocity": 108,
      "chip": "ym2612"
    },
    {
      "channel": 4,
      "note": 81,
      "start": 14.9527,
      "duration": 0.0195,
      "velocity": 98,
      "chip": "ym2612"
    },
    {
      "channel": 3,
      "note": 85,
      "start": 14.9539,
      "duration": 0.0195,
      "velocity": 98,
      "chip": "ym2612"
    },
    {
      "channel": 2,
      "note": 57,
      "start": 14.9551,
      "duration": 0.0195,
      "velocity": 93,
      "chip": "ym2612"
    },
    {
      "channel": 0,
      "note": 36,
      "start": 14.9699,
      "duration": 0.0137,
      "velocity": 115,
      "chip": "ym2612"
    },
    {
      "channel": 5,
      "note": 73,
      "start": 14.971,
      "duration": 0.0143,
      "velocity": 108,
      "chip": "ym2612"
    },
    {
      "channel": 4,
      "note": 81,
      "start": 14.9722,
      "duration": 0.0143,
      "velocity": 98,
      "chip": "ym2612"
    },
    {
      "channel": 3,
      "note": 85,
      "start": 14.9734,
      "duration": 0.0143,
      "velocity": 98,
      "chip": "ym2612"
    },
    {
      "channel": 2,
      "note": 57,
      "start": 14.9745,
      "duration": 0.0143,
      "velocity": 93,
      "chip": "ym2612"
    },
    {
      "channel": 1,
      "note": 76,
      "start": 14.976,
      "duration": 0.0141,
      "velocity": 108,
      "chip": "ym2612"
    },
    {
      "channel": 0,
      "note": 36,
      "start": 14.9836,
      "duration": 0.016,
      "velocity": 115,
      "chip": "ym2612"
    },
    {
      "channel": 4,
      "note": 81,
      "start": 14.9865,
      "duration": 0.0164,
      "velocity": 98,
      "chip": "ym2612"
    },
    {
      "channel": 3,
      "note": 85,
      "start": 14.9877,
      "duration": 0.0163,
      "velocity": 98,
      "chip": "ym2612"
    },
    {
      "channel": 2,
      "note": 57,
      "start": 14.9888,
      "duration": 0.0163,
      "velocity": 93,
      "chip": "ym2612"
    },
    {
      "channel": 1,
      "note": 76,
      "start": 14.99,
      "duration": 0.0163,
      "velocity": 108,
      "chip": "ym2612"
    },
    {
      "channel": 0,
      "note": 37,
      "start": 14.9996,
      "duration": 0.0161,
      "velocity": 115,
      "chip": "ym2612"
    },
    {
      "channel": 5,
      "note": 76,
      "start": 15.0017,
      "duration": 0.0153,
      "velocity": 108,
      "chip": "ym2612"
    },
    {
      "channel": 4,
      "note": 81,
      "start": 15.0029,
      "duration": 0.0157,
      "velocity": 98,
      "chip": "ym2612"
    },
    {
      "channel": 3,
      "note": 85,
      "start": 15.004,
      "duration": 0.0159,
      "velocity": 98,
      "chip": "ym2612"
    },
    {
      "channel": 2,
      "note": 57,
      "start": 15.0052,
      "duration": 0.0158,
      "velocity": 93,
      "chip": "ym2612"
    },
    {
      "channel": 1,
      "note": 76,
      "start": 15.0063,
      "duration": 0.0159,
      "velocity": 108,
      "chip": "ym2612"
    },
    {
      "channel": 0,
      "note": 37,
      "start": 15.0157,
      "duration": 0.0161,
      "velocity": 115,
      "chip": "ym2612"
    },
    {
      "channel": 5,
      "note": 76,
      "start": 15.017,
      "duration": 0.016,
      "velocity": 108,
      "chip": "ym2612"
    },
    {
      "channel": 4,
      "note": 81,
      "start": 15.0186,
      "duration": 0.0158,
      "velocity": 98,
      "chip": "ym2612"
    },
    {
      "channel": 3,
      "note": 85,
      "start": 15.0199,
      "duration": 0.0161,
      "velocity": 98,
      "chip": "ym2612"
    },
    {
      "channel": 2,
      "note": 57,
      "start": 15.021,
      "duration": 0.0162,
      "velocity": 93,
      "chip": "ym2612"
    },
    {
      "channel": 1,
      "note": 76,
      "start": 15.0222,
      "duration": 0.0162,
      "velocity": 108,
      "chip": "ym2612"
    },
    {
      "channel": 0,
      "note": 38,
      "start": 15.0318,
      "duration": 0.0161,
      "velocity": 115,
      "chip": "ym2612"
    },
    {
      "channel": 5,
      "note": 76,
      "start": 15.033,
      "duration": 0.0161,
      "velocity": 108,
      "chip": "ym2612"
    },
    {
      "channel": 4,
      "note": 81,
      "start": 15.0344,
      "duration": 0.016,
      "velocity": 98,
      "chip": "ym2612"
    },
    {
      "channel": 3,
      "note": 85,
      "start": 15.036,
      "duration": 0.0161,
      "velocity": 98,
      "chip": "ym2612"
    },
    {
      "channel": 2,
      "note": 57,
      "start": 15.0373,
      "duration": 0.0161,
      "velocity": 93,
      "chip": "ym2612"
    },
    {
      "channel": 1,
      "note": 76,
      "start": 15.0384,
      "duration": 0.0162,
      "velocity": 108,
      "chip": "ym2612"
    },
    {
      "channel": 0,
      "note": 38,
      "start": 15.0479,
      "duration": 0.0161,
      "velocity": 115,
      "chip": "ym2612"
    },
    {
      "channel": 5,
      "note": 76,
      "start": 15.0491,
      "duration": 0.0161,
      "velocity": 108,
      "chip": "ym2612"
    },
    {
      "channel": 2,
      "note": 57,
      "start": 15.0534,
      "duration": 0.0169,
      "velocity": 93,
      "chip": "ym2612"
    },
    {
      "channel": 1,
      "note": 76,
      "start": 15.0546,
      "duration": 0.0169,
      "velocity": 108,
      "chip": "ym2612"
    },
    {
      "channel": 0,
      "note": 39,
      "start": 15.064,
      "duration": 0.0161,
      "velocity": 115,
      "chip": "ym2612"
    },
    {
      "channel": 5,
      "note": 76,
      "start": 15.0652,
      "duration": 0.0161,
      "velocity": 108,
      "chip": "ym2612"
    },
    {
      "channel": 4,
      "note": 81,
      "start": 15.0667,
      "duration": 0.0158,
      "velocity": 98,
      "chip": "ym2612"
    },
    {
      "channel": 3,
      "note": 85,
      "start": 15.0688,
      "duration": 0.0149,
      "velocity": 98,
      "chip": "ym2612"
    },
    {
      "channel": 2,
      "note": 57,
      "start": 15.0703,
      "duration": 0.0152,
      "velocity": 93,
      "chip": "ym2612"
    },
    {
      "channel": 1,
      "note": 76,
      "start": 15.0715,
      "duration": 0.0152,
      "velocity": 108,
      "chip": "ym2612"
    },
    {
      "channel": 0,
      "note": 39,
      "start": 15.0801,
      "duration": 0.0161,
      "velocity": 115,
      "chip": "ym2612"
    },
    {
      "channel": 5,
      "note": 76,
      "start": 15.0813,
      "duration": 0.0162,
      "velocity": 108,
      "chip": "ym2612"
    },
    {
      "channel": 4,
      "note": 81,
      "start": 15.0825,
      "duration": 0.0162,
      "velocity": 98,
      "chip": "ym2612"
    },
    {
      "channel": 3,
      "note": 85,
      "start": 15.0837,
      "duration": 0.016,
      "velocity": 98,
      "chip": "ym2612"
    },
    {
      "channel": 2,
      "note": 57,
      "start": 15.0855,
      "duration": 0.0159,
      "velocity": 93,
      "chip": "ym2612"
    },
    {
      "channel": 1,
      "note": 76,
      "start": 15.0867,
      "duration": 0.016,
      "velocity": 108,
      "chip": "ym2612"
    },
    {
      "channel": 0,
      "note": 40,
      "start": 15.0962,
      "duration": 0.0161,
      "velocity": 115,
      "chip": "ym2612"
    },
    {
      "channel": 5,
      "note": 76,
      "start": 15.0975,
      "duration": 0.0161,
      "velocity": 108,
      "chip": "ym2612"
    },
    {
      "channel": 4,
      "note": 81,
      "start": 15.0986,
      "duration": 0.0161,
      "velocity": 98,
      "chip": "ym2612"
    },
    {
      "channel": 3,
      "note": 85,
      "start": 15.0998,
      "duration": 0.0161,
      "velocity": 98,
      "chip": "ym2612"
    },
    {
      "channel": 2,
      "note": 57,
      "start": 15.1014,
      "duration": 0.0156,
      "velocity": 93,
      "chip": "ym2612"
    },
    {
      "channel": 1,
      "note": 76,
      "start": 15.1028,
      "duration": 0.016,
      "velocity": 108,
      "chip": "ym2612"
    },
    {
      "channel": 0,
      "note": 40,
      "start": 15.1123,
      "duration": 0.0161,
      "velocity": 115,
      "chip": "ym2612"
    },
    {
      "channel": 5,
      "note": 76,
      "start": 15.1136,
      "duration": 0.016,
      "velocity": 108,
      "chip": "ym2612"
    },
    {
      "channel": 4,
      "note": 81,
      "start": 15.1147,
      "duration": 0.016,
      "velocity": 98,
      "chip": "ym2612"
    },
    {
      "channel": 3,
      "note": 85,
      "start": 15.1159,
      "duration": 0.016,
      "velocity": 98,
      "chip": "ym2612"
    },
    {
      "channel": 2,
      "note": 57,
      "start": 15.117,
      "duration": 0.016,
      "velocity": 93,
      "chip": "ym2612"
    },
    {
      "channel": 1,
      "note": 76,
      "start": 15.1187,
      "duration": 0.0156,
      "velocity": 108,
      "chip": "ym2612"
    },
    {
      "channel": 0,
      "note": 40,
      "start": 15.1284,
      "duration": 0.0161,
      "velocity": 115,
      "chip": "ym2612"
    },
    {
      "channel": 5,
      "note": 76,
      "start": 15.1296,
      "duration": 0.0161,
      "velocity": 108,
      "chip": "ym2612"
    },
    {
      "channel": 4,
      "note": 81,
      "start": 15.1308,
      "duration": 0.0161,
      "velocity": 98,
      "chip": "ym2612"
    },
    {
      "channel": 3,
      "note": 85,
      "start": 15.1319,
      "duration": 0.0161,
      "velocity": 98,
      "chip": "ym2612"
    },
    {
      "channel": 2,
      "note": 57,
      "start": 15.1331,
      "duration": 0.0161,
      "velocity": 93,
      "chip": "ym2612"
    },
    {
      "channel": 1,
      "note": 76,
      "start": 15.1344,
      "duration": 0.0159,
      "velocity": 108,
      "chip": "ym2612"
    },
    {
      "channel": 0,
      "note": 41,
      "start": 15.1445,
      "duration": 0.0161,
      "velocity": 115,
      "chip": "ym2612"
    },
    {
      "channel": 5,
      "note": 76,
      "start": 15.1457,
      "duration": 0.0161,
      "velocity": 108,
      "chip": "ym2612"
    },
    {
      "channel": 4,
      "note": 81,
      "start": 15.1468,
      "duration": 0.0161,
      "velocity": 98,
      "chip": "ym2612"
    },
    {
      "channel": 3,
      "note": 85,
      "start": 15.148,
      "duration": 0.0161,
      "velocity": 98,
      "chip": "ym2612"
    },
    {
      "channel": 2,
      "note": 57,
      "start": 15.1491,
      "duration": 0.0161,
      "velocity": 93,
      "chip": "ym2612"
    },
    {
      "channel": 0,
      "note": 41,
      "start": 15.1606,
      "duration": 0.0162,
      "velocity": 115,
      "chip": "ym2612"
    },
    {
      "channel": 5,
      "note": 76,
      "start": 15.1618,
      "duration": 0.0161,
      "velocity": 108,
      "chip": "ym2612"
    },
    {
      "channel": 4,
      "note": 81,
      "start": 15.1629,
      "duration": 0.0161,
      "velocity": 98,
      "chip": "ym2612"
    },
    {
      "channel": 3,
      "note": 85,
      "start": 15.1641,
      "duration": 0.0161,
      "velocity": 98,
      "chip": "ym2612"
    },
    {
      "channel": 2,
      "note": 57,
      "start": 15.1652,
      "duration": 0.0162,
      "velocity": 93,
      "chip": "ym2612"
    },
    {
      "channel": 0,
      "note": 42,
      "start": 15.1768,
      "duration": 0.0161,
      "velocity": 115,
      "chip": "ym2612"
    },
    {
      "channel": 4,
      "note": 81,
      "start": 15.179,
      "duration": 0.0163,
      "velocity": 98,
      "chip": "ym2612"
    },
    {
      "channel": 3,
      "note": 85,
      "start": 15.1802,
      "duration": 0.0163,
      "velocity": 98,
      "chip": "ym2612"
    },
    {
      "channel": 2,
      "note": 57,
      "start": 15.1814,
      "duration": 0.0162,
      "velocity": 93,
      "chip": "ym2612"
    },
    {
      "channel": 0,
      "note": 42,
      "start": 15.1929,
      "duration": 0.0161,
      "velocity": 115,
      "chip": "ym2612"
    },
    {
      "channel": 4,
      "note": 81,
      "start": 15.1953,
      "duration": 0.0161,
      "velocity": 98,
      "chip": "ym2612"
    },
    {
      "channel": 3,
      "note": 85,
      "start": 15.1965,
      "duration": 0.0162,
      "velocity": 98,
      "chip": "ym2612"
    },
    {
      "channel": 2,
      "note": 57,
      "start": 15.1976,
      "duration": 0.0162,
      "velocity": 93,
      "chip": "ym2612"
    },
    {
      "channel": 0,
      "note": 43,
      "start": 15.2089,
      "duration": 0.0161,
      "velocity": 115,
      "chip": "ym2612"
    },
    {
      "channel": 4,
      "note": 81,
      "start": 15.2114,
      "duration": 0.016,
      "velocity": 98,
      "chip": "ym2612"
    },
    {
      "channel": 3,
      "note": 85,
      "start": 15.2126,
      "duration": 0.016,
      "velocity": 98,
      "chip": "ym2612"
    },
    {
      "channel": 2,
      "note": 57,
      "start": 15.2138,
      "duration": 0.016,
      "velocity": 93,
      "chip": "ym2612"
    },
    {
      "channel": 0,
      "note": 43,
      "start": 15.225,
      "duration": 0.0161,
      "velocity": 115,
      "chip": "ym2612"
    },
    {
      "channel": 4,
      "note": 81,
      "start": 15.2275,
      "duration": 0.0161,
      "velocity": 98,
      "chip": "ym2612"
    },
    {
      "channel": 3,
      "note": 85,
      "start": 15.2287,
      "duration": 0.0161,
      "velocity": 98,
      "chip": "ym2612"
    },
    {
      "channel": 2,
      "note": 57,
      "start": 15.2299,
      "duration": 0.0162,
      "velocity": 93,
      "chip": "ym2612"
    },
    {
      "channel": 0,
      "note": 44,
      "start": 15.2411,
      "duration": 0.0179,
      "velocity": 115,
      "chip": "ym2612"
    },
    {
      "channel": 4,
      "note": 81,
      "start": 15.2436,
      "duration": 0.0179,
      "velocity": 98,
      "chip": "ym2612"
    },
    {
      "channel": 3,
      "note": 85,
      "start": 15.2448,
      "duration": 0.0178,
      "velocity": 98,
      "chip": "ym2612"
    },
    {
      "channel": 2,
      "note": 57,
      "start": 15.246,
      "duration": 0.0177,
      "velocity": 93,
      "chip": "ym2612"
    },
    {
      "channel": 0,
      "note": 36,
      "start": 15.2591,
      "duration": 0.0143,
      "velocity": 115,
      "chip": "ym2612"
    },
    {
      "channel": 4,
      "note": 81,
      "start": 15.2615,
      "duration": 0.0143,
      "velocity": 98,
      "chip": "ym2612"
    },
    {
      "channel": 3,
      "note": 85,
      "start": 15.2626,
      "duration": 0.0143,
      "velocity": 98,
      "chip": "ym2612"
    },
    {
      "channel": 2,
      "note": 57,
      "start": 15.2638,
      "duration": 0.0143,
      "velocity": 93,
      "chip": "ym2612"
    },
    {
      "channel": 0,
      "note": 36,
      "start": 15.2734,
      "duration": 0.016,
      "velocity": 115,
      "chip": "ym2612"
    },
    {
      "channel": 4,
      "note": 81,
      "start": 15.2758,
      "duration": 0.016,
      "velocity": 98,
      "chip": "ym2612"
    },
    {
      "channel": 3,
      "note": 85,
      "start": 15.2769,
      "duration": 0.016,
      "velocity": 98,
      "chip": "ym2612"
    },
    {
      "channel": 2,
      "note": 57,
      "start": 15.2781,
      "duration": 0.016,
      "velocity": 93,
      "chip": "ym2612"
    },
    {
      "channel": 0,
      "note": 37,
      "start": 15.2894,
      "duration": 0.0161,
      "velocity": 115,
      "chip": "ym2612"
    },
    {
      "channel": 4,
      "note": 81,
      "start": 15.2918,
      "duration": 0.0161,
      "velocity": 98,
      "chip": "ym2612"
    },
    {
      "channel": 3,
      "note": 85,
      "start": 15.293,
      "duration": 0.0161,
      "velocity": 98,
      "chip": "ym2612"
    },
    {
      "channel": 2,
      "note": 57,
      "start": 15.2941,
      "duration": 0.0161,
      "velocity": 93,
      "chip": "ym2612"
    },
    {
      "channel": 0,
      "note": 37,
      "start": 15.3055,
      "duration": 0.0161,
      "velocity": 115,
      "chip": "ym2612"
    },
    {
      "channel": 4,
      "note": 81,
      "start": 15.3079,
      "duration": 0.0162,
      "velocity": 98,
      "chip": "ym2612"
    },
    {
      "channel": 3,
      "note": 85,
      "start": 15.3091,
      "duration": 0.0162,
      "velocity": 98,
      "chip": "ym2612"
    },
    {
      "channel": 2,
      "note": 57,
      "start": 15.3103,
      "duration": 0.0163,
      "velocity": 93,
      "chip": "ym2612"
    },
    {
      "channel": 0,
      "note": 38,
      "start": 15.3217,
      "duration": 0.0161,
      "velocity": 115,
      "chip": "ym2612"
    },
    {
      "channel": 4,
      "note": 81,
      "start": 15.3241,
      "duration": 0.0162,
      "velocity": 98,
      "chip": "ym2612"
    },
    {
      "channel": 3,
      "note": 85,
      "start": 15.3253,
      "duration": 0.0162,
      "velocity": 98,
      "chip": "ym2612"
    },
    {
      "channel": 2,
      "note": 57,
      "start": 15.3266,
      "duration": 0.0162,
      "velocity": 93,
      "chip": "ym2612"
    },
    {
      "channel": 0,
      "note": 38,
      "start": 15.3378,
      "duration": 0.0179,
      "velocity": 124,
      "chip": "ym2612"
    },
    {
      "channel": 2,
      "note": 57,
      "start": 15.3427,
      "duration": 0.0186,
      "velocity": 93,
      "chip": "ym2612"
    },
    {
      "channel": 0,
      "note": 84,
      "start": 15.3558,
      "duration": 0.0145,
      "velocity": 124,
      "chip": "ym2612"
    },
    {
      "channel": 4,
      "note": 81,
      "start": 15.3584,
      "duration": 0.0143,
      "velocity": 98,
      "chip": "ym2612"
    },
    {
      "channel": 3,
      "note": 85,
      "start": 15.3599,
      "duration": 0.0141,
      "velocity": 98,
      "chip": "ym2612"
    },
    {
      "channel": 2,
      "note": 57,
      "start": 15.3614,
      "duration": 0.0137,
      "velocity": 93,
      "chip": "ym2612"
    },
    {
      "channel": 0,
      "note": 82,
      "start": 15.3703,
      "duration": 0.0163,
      "velocity": 124,
      "chip": "ym2612"
    },
    {
      "channel": 4,
      "note": 81,
      "start": 15.3727,
      "duration": 0.0162,
      "velocity": 98,
      "chip": "ym2612"
    },
    {
      "channel": 3,
      "note": 85,
      "start": 15.3739,
      "duration": 0.0162,
      "velocity": 98,
      "chip": "ym2612"
    },
    {
      "channel": 2,
      "note": 57,
      "start": 15.3752,
      "duration": 0.0161,
      "velocity": 93,
      "chip": "ym2612"
    },
    {
      "channel": 0,
      "note": 80,
      "start": 15.3866,
      "duration": 0.0162,
      "velocity": 124,
      "chip": "ym2612"
    },
    {
      "channel": 4,
      "note": 81,
      "start": 15.3889,
      "duration": 0.0162,
      "velocity": 98,
      "chip": "ym2612"
    },
    {
      "channel": 3,
      "note": 85,
      "start": 15.3901,
      "duration": 0.0162,
      "velocity": 98,
      "chip": "ym2612"
    },
    {
      "channel": 2,
      "note": 57,
      "start": 15.3912,
      "duration": 0.0162,
      "velocity": 93,
      "chip": "ym2612"
    },
    {
      "channel": 0,
      "note": 77,
      "start": 15.4028,
      "duration": 0.0161,
      "velocity": 124,
      "chip": "ym2612"
    },
    {
      "channel": 4,
      "note": 81,
      "start": 15.4051,
      "duration": 0.0162,
      "velocity": 98,
      "chip": "ym2612"
    },
    {
      "channel": 3,
      "note": 85,
      "start": 15.4063,
      "duration": 0.0161,
      "velocity": 98,
      "chip": "ym2612"
    },
    {
      "channel": 2,
      "note": 57,
      "start": 15.4075,
      "duration": 0.0161,
      "velocity": 93,
      "chip": "ym2612"
    },
    {
      "channel": 0,
      "note": 75,
      "start": 15.4189,
      "duration": 0.016,
      "velocity": 124,
      "chip": "ym2612"
    },
    {
      "channel": 4,
      "note": 81,
      "start": 15.4213,
      "duration": 0.0161,
      "velocity": 98,
      "chip": "ym2612"
    },
    {
      "channel": 3,
      "note": 85,
      "start": 15.4224,
      "duration": 0.0161,
      "velocity": 98,
      "chip": "ym2612"
    },
    {
      "channel": 2,
      "note": 57,
      "start": 15.4236,
      "duration": 0.0161,
      "velocity": 93,
      "chip": "ym2612"
    },
    {
      "channel": 0,
      "note": 72,
      "start": 15.4349,
      "duration": 0.0155,
      "velocity": 124,
      "chip": "ym2612"
    },
    {
      "channel": 4,
      "note": 81,
      "start": 15.4374,
      "duration": 0.0161,
      "velocity": 98,
      "chip": "ym2612"
    },
    {
      "channel": 3,
      "note": 85,
      "start": 15.4385,
      "duration": 0.0161,
      "velocity": 98,
      "chip": "ym2612"
    },
    {
      "channel": 2,
      "note": 57,
      "start": 15.4397,
      "duration": 0.0161,
      "velocity": 93,
      "chip": "ym2612"
    },
    {
      "channel": 0,
      "note": 70,
      "start": 15.4504,
      "duration": 0.0162,
      "velocity": 124,
      "chip": "ym2612"
    },
    {
      "channel": 4,
      "note": 81,
      "start": 15.4535,
      "duration": 0.0161,
      "velocity": 98,
      "chip": "ym2612"
    },
    {
      "channel": 3,
      "note": 85,
      "start": 15.4546,
      "duration": 0.0161,
      "velocity": 98,
      "chip": "ym2612"
    },
    {
      "channel": 2,
      "note": 57,
      "start": 15.4558,
      "duration": 0.0161,
      "velocity": 93,
      "chip": "ym2612"
    },
    {
      "channel": 0,
      "note": 68,
      "start": 15.4666,
      "duration": 0.0161,
      "velocity": 124,
      "chip": "ym2612"
    },
    {
      "channel": 4,
      "note": 81,
      "start": 15.4696,
      "duration": 0.0161,
      "velocity": 98,
      "chip": "ym2612"
    },
    {
      "channel": 3,
      "note": 85,
      "start": 15.4707,
      "duration": 0.0161,
      "velocity": 98,
      "chip": "ym2612"
    },
    {
      "channel": 2,
      "note": 57,
      "start": 15.4719,
      "duration": 0.0161,
      "velocity": 93,
      "chip": "ym2612"
    },
    {
      "channel": 0,
      "note": 65,
      "start": 15.4827,
      "duration": 0.0161,
      "velocity": 124,
      "chip": "ym2612"
    },
    {
      "channel": 4,
      "note": 81,
      "start": 15.4857,
      "duration": 0.0161,
      "velocity": 98,
      "chip": "ym2612"
    },
    {
      "channel": 3,
      "note": 85,
      "start": 15.4868,
      "duration": 0.0163,
      "velocity": 98,
      "chip": "ym2612"
    },
    {
      "channel": 2,
      "note": 57,
      "start": 15.488,
      "duration": 0.0163,
      "velocity": 93,
      "chip": "ym2612"
    },
    {
      "channel": 0,
      "note": 63,
      "start": 15.4988,
      "duration": 0.0153,
      "velocity": 1,
      "chip": "ym2612"
    },
    {
      "channel": 4,
      "note": 81,
      "start": 15.5017,
      "duration": 0.0147,
      "velocity": 98,
      "chip": "ym2612"
    },
    {
      "channel": 3,
      "note": 85,
      "start": 15.5031,
      "duration": 0.0151,
      "velocity": 98,
      "chip": "ym2612"
    },
    {
      "channel": 2,
      "note": 57,
      "start": 15.5043,
      "duration": 0.0152,
      "velocity": 93,
      "chip": "ym2612"
    },
    {
      "channel": 4,
      "note": 81,
      "start": 15.5164,
      "duration": 0.0153,
      "velocity": 98,
      "chip": "ym2612"
    },
    {
      "channel": 3,
      "note": 85,
      "start": 15.5182,
      "duration": 0.0148,
      "velocity": 98,
      "chip": "ym2612"
    },
    {
      "channel": 2,
      "note": 57,
      "start": 15.5195,
      "duration": 0.0149,
      "velocity": 93,
      "chip": "ym2612"
    },
    {
      "channel": 4,
      "note": 81,
      "start": 15.5318,
      "duration": 0.016,
      "velocity": 98,
      "chip": "ym2612"
    },
    {
      "channel": 3,
      "note": 85,
      "start": 15.533,
      "duration": 0.016,
      "velocity": 98,
      "chip": "ym2612"
    },
    {
      "channel": 2,
      "note": 57,
      "start": 15.5344,
      "duration": 0.0157,
      "velocity": 93,
      "chip": "ym2612"
    },
    {
      "channel": 4,
      "note": 81,
      "start": 15.5478,
      "duration": 0.0161,
      "velocity": 98,
      "chip": "ym2612"
    },
    {
      "channel": 3,
      "note": 85,
      "start": 15.549,
      "duration": 0.0161,
      "velocity": 98,
      "chip": "ym2612"
    },
    {
      "channel": 2,
      "note": 57,
      "start": 15.5501,
      "duration": 0.0161,
      "velocity": 93,
      "chip": "ym2612"
    },
    {
      "channel": 1,
      "note": 73,
      "start": 15.5522,
      "duration": 0.0154,
      "velocity": 108,
      "chip": "ym2612"
    },
    {
      "channel": 4,
      "note": 81,
      "start": 15.5639,
      "duration": 0.0163,
      "velocity": 98,
      "chip": "ym2612"
    },
    {
      "channel": 3,
      "note": 85,
      "start": 15.5651,
      "duration": 0.0163,
      "velocity": 98,
      "chip": "ym2612"
    },
    {
      "channel": 2,
      "note": 57,
      "start": 15.5662,
      "duration": 0.0163,
      "velocity": 93,
      "chip": "ym2612"
    },
    {
      "channel": 1,
      "note": 73,
      "start": 15.5676,
      "duration": 0.0161,
      "velocity": 108,
      "chip": "ym2612"
    },
    {
      "channel": 5,
      "note": 73,
      "start": 15.5791,
      "duration": 0.0158,
      "velocity": 108,
      "chip": "ym2612"
    },
    {
      "channel": 4,
      "note": 81,
      "start": 15.5802,
      "duration": 0.0159,
      "velocity": 98,
      "chip": "ym2612"
    },
    {
      "channel": 3,
      "note": 85,
      "start": 15.5814,
      "duration": 0.0158,
      "velocity": 98,
      "chip": "ym2612"
    },
    {
      "channel": 2,
      "note": 57,
      "start": 15.5825,
      "duration": 0.0159,
      "velocity": 93,
      "chip": "ym2612"
    },
    {
      "channel": 1,
      "note": 73,
      "start": 15.5837,
      "duration": 0.0158,
      "velocity": 108,
      "chip": "ym2612"
    },
    {
      "channel": 5,
      "note": 73,
      "start": 15.5949,
      "duration": 0.0161,
      "velocity": 108,
      "chip": "ym2612"
    },
    {
      "channel": 4,
      "note": 81,
      "start": 15.5961,
      "duration": 0.0161,
      "velocity": 98,
      "chip": "ym2612"
    },
    {
      "channel": 3,
      "note": 85,
      "start": 15.5972,
      "duration": 0.0162,
      "velocity": 98,
      "chip": "ym2612"
    },
    {
      "channel": 2,
      "note": 57,
      "start": 15.5984,
      "duration": 0.0162,
      "velocity": 93,
      "chip": "ym2612"
    },
    {
      "channel": 1,
      "note": 73,
      "start": 15.5995,
      "duration": 0.0162,
      "velocity": 108,
      "chip": "ym2612"
    },
    {
      "channel": 5,
      "note": 73,
      "start": 15.611,
      "duration": 0.0161,
      "velocity": 108,
      "chip": "ym2612"
    },
    {
      "channel": 4,
      "note": 81,
      "start": 15.6122,
      "duration": 0.0161,
      "velocity": 98,
      "chip": "ym2612"
    },
    {
      "channel": 3,
      "note": 85,
      "start": 15.6134,
      "duration": 0.0161,
      "velocity": 98,
      "chip": "ym2612"
    },
    {
      "channel": 2,
      "note": 57,
      "start": 15.6146,
      "duration": 0.0162,
      "velocity": 93,
      "chip": "ym2612"
    },
    {
      "channel": 1,
      "note": 73,
      "start": 15.6157,
      "duration": 0.0162,
      "velocity": 108,
      "chip": "ym2612"
    },
    {
      "channel": 5,
      "note": 73,
      "start": 15.6271,
      "duration": 0.0196,
      "velocity": 108,
      "chip": "ym2612"
    },
    {
      "channel": 2,
      "note": 57,
      "start": 15.6308,
      "duration": 0.0209,
      "velocity": 93,
      "chip": "ym2612"
    },
    {
      "channel": 0,
      "note": 36,
      "start": 15.6455,
      "duration": 0.0143,
      "velocity": 115,
      "chip": "ym2612"
    },
    {
      "channel": 5,
      "note": 73,
      "start": 15.6467,
      "duration": 0.0143,
      "velocity": 108,
      "chip": "ym2612"
    },
    {
      "channel": 4,
      "note": 81,
      "start": 15.6482,
      "duration": 0.0141,
      "velocity": 98,
      "chip": "ym2612"
    },
    {
      "channel": 3,
      "note": 85,
      "start": 15.6497,
      "duration": 0.0137,
      "velocity": 98,
      "chip": "ym2612"
    },
    {
      "channel": 2,
      "note": 57,
      "start": 15.6517,
      "duration": 0.0129,
      "velocity": 93,
      "chip": "ym2612"
    },
    {
      "channel": 1,
      "note": 75,
      "start": 15.6533,
      "duration": 0.0126,
      "velocity": 108,
      "chip": "ym2612"
    },
    {
      "channel": 0,
      "note": 36,
      "start": 15.6598,
      "duration": 0.016,
      "velocity": 115,
      "chip": "ym2612"
    },
    {
      "channel": 4,
      "note": 81,
      "start": 15.6622,
      "duration": 0.0163,
      "velocity": 98,
      "chip": "ym2612"
    },
    {
      "channel": 3,
      "note": 85,
      "start": 15.6634,
      "duration": 0.0162,
      "velocity": 98,
      "chip": "ym2612"
    },
    {
      "channel": 2,
      "note": 57,
      "start": 15.6647,
      "duration": 0.0161,
      "velocity": 93,
      "chip": "ym2612"
    },
    {
      "channel": 1,
      "note": 75,
      "start": 15.6659,
      "duration": 0.0161,
      "velocity": 108,
      "chip": "ym2612"
    },
    {
      "channel": 0,
      "note": 37,
      "start": 15.6759,
      "duration": 0.0161,
      "velocity": 115,
      "chip": "ym2612"
    },
    {
      "channel": 5,
      "note": 75,
      "start": 15.6774,
      "duration": 0.0158,
      "velocity": 108,
      "chip": "ym2612"
    },
    {
      "channel": 4,
      "note": 81,
      "start": 15.6785,
      "duration": 0.0159,
      "velocity": 98,
      "chip": "ym2612"
    },
    {
      "channel": 3,
      "note": 85,
      "start": 15.6797,
      "duration": 0.0158,
      "velocity": 98,
      "chip": "ym2612"
    },
    {
      "channel": 2,
      "note": 57,
      "start": 15.6808,
      "duration": 0.0159,
      "velocity": 93,
      "chip": "ym2612"
    },
    {
      "channel": 1,
      "note": 75,
      "start": 15.682,
      "duration": 0.0158,
      "velocity": 108,
      "chip": "ym2612"
    },
    {
      "channel": 0,
      "note": 37,
      "start": 15.692,
      "duration": 0.0161,
      "velocity": 115,
      "chip": "ym2612"
    },
    {
      "channel": 5,
      "note": 75,
      "start": 15.6932,
      "duration": 0.016,
      "velocity": 108,
      "chip": "ym2612"
    },
    {
      "channel": 4,
      "note": 81,
      "start": 15.6944,
      "duration": 0.016,
      "velocity": 98,
      "chip": "ym2612"
    },
    {
      "channel": 3,
      "note": 85,
      "start": 15.6955,
      "duration": 0.016,
      "velocity": 98,
      "chip": "ym2612"
    },
    {
      "channel": 2,
      "note": 57,
      "start": 15.6967,
      "duration": 0.016,
      "velocity": 93,
      "chip": "ym2612"
    },
    {
      "channel": 1,
      "note": 75,
      "start": 15.6978,
      "duration": 0.016,
      "velocity": 108,
      "chip": "ym2612"
    },
    {
      "channel": 0,
      "note": 38,
      "start": 15.708,
      "duration": 0.0161,
      "velocity": 115,
      "chip": "ym2612"
    },
    {
      "channel": 5,
      "note": 75,
      "start": 15.7093,
      "duration": 0.0161,
      "velocity": 108,
      "chip": "ym2612"
    },
    {
      "channel": 4,
      "note": 81,
      "start": 15.7104,
      "duration": 0.0161,
      "velocity": 98,
      "chip": "ym2612"
    },
    {
      "channel": 3,
      "note": 85,
      "start": 15.7115,
      "duration": 0.0161,
      "velocity": 98,
      "chip": "ym2612"
    },
    {
      "channel": 2,
      "note": 57,
      "start": 15.7127,
      "duration": 0.0161,
      "velocity": 93,
      "chip": "ym2612"
    },
    {
      "channel": 1,
      "note": 75,
      "start": 15.7138,
      "duration": 0.0161,
      "velocity": 108,
      "chip": "ym2612"
    },
    {
      "channel": 0,
      "note": 38,
      "start": 15.7241,
      "duration": 0.0161,
      "velocity": 115,
      "chip": "ym2612"
    },
    {
      "channel": 5,
      "note": 75,
      "start": 15.7254,
      "duration": 0.0161,
      "velocity": 108,
      "chip": "ym2612"
    },
    {
      "channel": 4,
      "note": 81,
      "start": 15.7265,
      "duration": 0.0161,
      "velocity": 98,
      "chip": "ym2612"
    },
    {
      "channel": 3,
      "note": 85,
      "start": 15.7276,
      "duration": 0.0161,
      "velocity": 98,
      "chip": "ym2612"
    },
    {
      "channel": 2,
      "note": 57,
      "start": 15.7288,
      "duration": 0.0161,
      "velocity": 93,
      "chip": "ym2612"
    },
    {
      "channel": 1,
      "note": 75,
      "start": 15.7299,
      "duration": 0.0161,
      "velocity": 108,
      "chip": "ym2612"
    },
    {
      "channel": 0,
      "note": 39,
      "start": 15.7402,
      "duration": 0.0161,
      "velocity": 115,
      "chip": "ym2612"
    },
    {
      "channel": 5,
      "note": 75,
      "start": 15.7415,
      "duration": 0.0161,
      "velocity": 108,
      "chip": "ym2612"
    },
    {
      "channel": 4,
      "note": 81,
      "start": 15.7426,
      "duration": 0.0161,
      "velocity": 98,
      "chip": "ym2612"
    },
    {
      "channel": 3,
      "note": 85,
      "start": 15.7437,
      "duration": 0.0161,
      "velocity": 98,
      "chip": "ym2612"
    },
    {
      "channel": 2,
      "note": 57,
      "start": 15.7449,
      "duration": 0.0161,
      "velocity": 93,
      "chip": "ym2612"
    },
    {
      "channel": 1,
      "note": 75,
      "start": 15.746,
      "duration": 0.0161,
      "velocity": 108,
      "chip": "ym2612"
    },
    {
      "channel": 0,
      "note": 39,
      "start": 15.7564,
      "duration": 0.0161,
      "velocity": 115,
      "chip": "ym2612"
    },
    {
      "channel": 5,
      "note": 75,
      "start": 15.7576,
      "duration": 0.0161,
      "velocity": 108,
      "chip": "ym2612"
    },
    {
      "channel": 4,
      "note": 81,
      "start": 15.7587,
      "duration": 0.0161,
      "velocity": 98,
      "chip": "ym2612"
    },
    {
      "channel": 3,
      "note": 85,
      "start": 15.7598,
      "duration": 0.0161,
      "velocity": 98,
      "chip": "ym2612"
    },
    {
      "channel": 2,
      "note": 57,
      "start": 15.761,
      "duration": 0.0162,
      "velocity": 93,
      "chip": "ym2612"
    },
    {
      "channel": 1,
      "note": 75,
      "start": 15.7622,
      "duration": 0.0161,
      "velocity": 108,
      "chip": "ym2612"
    },
    {
      "channel": 0,
      "note": 40,
      "start": 15.7725,
      "duration": 0.0161,
      "velocity": 115,
      "chip": "ym2612"
    },
    {
      "channel": 5,
      "note": 75,
      "start": 15.7736,
      "duration": 0.0161,
      "velocity": 108,
      "chip": "ym2612"
    },
    {
      "channel": 4,
      "note": 81,
      "start": 15.7748,
      "duration": 0.0161,
      "velocity": 98,
      "chip": "ym2612"
    },
    {
      "channel": 3,
      "note": 85,
      "start": 15.7759,
      "duration": 0.0163,
      "velocity": 98,
      "chip": "ym2612"
    },
    {
      "channel": 2,
      "note": 57,
      "start": 15.7771,
      "duration": 0.0163,
      "velocity": 93,
      "chip": "ym2612"
    },
    {
      "channel": 1,
      "note": 75,
      "start": 15.7783,
      "duration": 0.0164,
      "velocity": 108,
      "chip": "ym2612"
    },
    {
      "channel": 0,
      "note": 40,
      "start": 15.7886,
      "duration": 0.0161,
      "velocity": 115,
      "chip": "ym2612"
    },
    {
      "channel": 5,
      "note": 75,
      "start": 15.7897,
      "duration": 0.0161,
      "velocity": 108,
      "chip": "ym2612"
    },
    {
      "channel": 4,
      "note": 81,
      "start": 15.7909,
      "duration": 0.0161,
      "velocity": 98,
      "chip": "ym2612"
    },
    {
      "channel": 3,
      "note": 85,
      "start": 15.7922,
      "duration": 0.016,
      "velocity": 98,
      "chip": "ym2612"
    },
    {
      "channel": 2,
      "note": 57,
      "start": 15.7934,
      "duration": 0.016,
      "velocity": 93,
      "chip": "ym2612"
    },
    {
      "channel": 1,
      "note": 75,
      "start": 15.7947,
      "duration": 0.016,
      "velocity": 108,
      "chip": "ym2612"
    },
    {
      "channel": 0,
      "note": 40,
      "start": 15.8047,
      "duration": 0.0161,
      "velocity": 115,
      "chip": "ym2612"
    },
    {
      "channel": 5,
      "note": 75,
      "start": 15.8058,
      "duration": 0.0162,
      "velocity": 108,
      "chip": "ym2612"
    },
    {
      "channel": 4,
      "note": 81,
      "start": 15.807,
      "duration": 0.0162,
      "velocity": 98,
      "chip": "ym2612"
    },
    {
      "channel": 3,
      "note": 85,
      "start": 15.8082,
      "duration": 0.0162,
      "velocity": 98,
      "chip": "ym2612"
    },
    {
      "channel": 2,
      "note": 57,
      "start": 15.8095,
      "duration": 0.0163,
      "velocity": 93,
      "chip": "ym2612"
    },
    {
      "channel": 1,
      "note": 75,
      "start": 15.8107,
      "duration": 0.0163,
      "velocity": 108,
      "chip": "ym2612"
    },
    {
      "channel": 0,
      "note": 41,
      "start": 15.8208,
      "duration": 0.0162,
      "velocity": 115,
      "chip": "ym2612"
    },
    {
      "channel": 5,
      "note": 75,
      "start": 15.822,
      "duration": 0.0162,
      "velocity": 108,
      "chip": "ym2612"
    },
    {
      "channel": 4,
      "note": 81,
      "start": 15.8232,
      "duration": 0.0161,
      "velocity": 98,
      "chip": "ym2612"
    },
    {
      "channel": 3,
      "note": 85,
      "start": 15.8245,
      "duration": 0.016,
      "velocity": 98,
      "chip": "ym2612"
    },
    {
      "channel": 2,
      "note": 57,
      "start": 15.8257,
      "duration": 0.0159,
      "velocity": 93,
      "chip": "ym2612"
    },
    {
      "channel": 1,
      "note": 75,
      "start": 15.8269,
      "duration": 0.0159,
      "velocity": 108,
      "chip": "ym2612"
    },
    {
      "channel": 0,
      "note": 41,
      "start": 15.8369,
      "duration": 0.0164,
      "velocity": 115,
      "chip": "ym2612"
    },
    {
      "channel": 5,
      "note": 75,
      "start": 15.8382,
      "duration": 0.0163,
      "velocity": 108,
      "chip": "ym2612"
    },
    {
      "channel": 4,
      "note": 81,
      "start": 15.8393,
      "duration": 0.0163,
      "velocity": 98,
      "chip": "ym2612"
    },
    {
      "channel": 3,
      "note": 85,
      "start": 15.8405,
      "duration": 0.0163,
      "velocity": 98,
      "chip": "ym2612"
    },
    {
      "channel": 2,
      "note": 57,
      "start": 15.8416,
      "duration": 0.0163,
      "velocity": 93,
      "chip": "ym2612"
    },
    {
      "channel": 1,
      "note": 75,
      "start": 15.8428,
      "duration": 0.0163,
      "velocity": 108,
      "chip": "ym2612"
    },
    {
      "channel": 0,
      "note": 42,
      "start": 15.8533,
      "duration": 0.0163,
      "velocity": 115,
      "chip": "ym2612"
    },
    {
      "channel": 5,
      "note": 75,
      "start": 15.8546,
      "duration": 0.0163,
      "velocity": 108,
      "chip": "ym2612"
    },
    {
      "channel": 4,
      "note": 81,
      "start": 15.8557,
      "duration": 0.0163,
      "velocity": 98,
      "chip": "ym2612"
    },
    {
      "channel": 3,
      "note": 85,
      "start": 15.8568,
      "duration": 0.0163,
      "velocity": 98,
      "chip": "ym2612"
    },
    {
      "channel": 2,
      "note": 57,
      "start": 15.858,
      "duration": 0.0163,
      "velocity": 93,
      "chip": "ym2612"
    },
    {
      "channel": 1,
      "note": 75,
      "start": 15.8591,
      "duration": 0.0163,
      "velocity": 108,
      "chip": "ym2612"
    },
    {
      "channel": 0,
      "note": 42,
      "start": 15.8697,
      "duration": 0.0161,
      "velocity": 115,
      "chip": "ym2612"
    },
    {
      "channel": 5,
      "note": 75,
      "start": 15.8708,
      "duration": 0.0161,
      "velocity": 108,
      "chip": "ym2612"
    },
    {
      "channel": 4,
      "note": 81,
      "start": 15.872,
      "duration": 0.0161,
      "velocity": 98,
      "chip": "ym2612"
    },
    {
      "channel": 3,
      "note": 85,
      "start": 15.8731,
      "duration": 0.0161,
      "velocity": 98,
      "chip": "ym2612"
    },
    {
      "channel": 2,
      "note": 57,
      "start": 15.8743,
      "duration": 0.0161,
      "velocity": 93,
      "chip": "ym2612"
    },
    {
      "channel": 1,
      "note": 75,
      "start": 15.8755,
      "duration": 0.0161,
      "velocity": 108,
      "chip": "ym2612"
    },
    {
      "channel": 0,
      "note": 43,
      "start": 15.8858,
      "duration": 0.016,
      "velocity": 115,
      "chip": "ym2612"
    },
    {
      "channel": 5,
      "note": 75,
      "start": 15.8869,
      "duration": 0.0161,
      "velocity": 108,
      "chip": "ym2612"
    },
    {
      "channel": 4,
      "note": 81,
      "start": 15.8881,
      "duration": 0.0162,
      "velocity": 98,
      "chip": "ym2612"
    },
    {
      "channel": 3,
      "note": 85,
      "start": 15.8892,
      "duration": 0.0162,
      "velocity": 98,
      "chip": "ym2612"
    },
    {
      "channel": 2,
      "note": 57,
      "start": 15.8904,
      "duration": 0.0163,
      "velocity": 93,
      "chip": "ym2612"
    },
    {
      "channel": 1,
      "note": 75,
      "start": 15.8916,
      "duration": 0.0163,
      "velocity": 108,
      "chip": "ym2612"
    },
    {
      "channel": 0,
      "note": 43,
      "start": 15.9018,
      "duration": 0.0158,
      "velocity": 115,
      "chip": "ym2612"
    },
    {
      "channel": 5,
      "note": 75,
      "start": 15.903,
      "duration": 0.0162,
      "velocity": 108,
      "chip": "ym2612"
    },
    {
      "channel": 4,
      "note": 81,
      "start": 15.9042,
      "duration": 0.0162,
      "velocity": 98,
      "chip": "ym2612"
    },
    {
      "channel": 3,
      "note": 85,
      "start": 15.9054,
      "duration": 0.0162,
      "velocity": 98,
      "chip": "ym2612"
    },
    {
      "channel": 2,
      "note": 57,
      "start": 15.9067,
      "duration": 0.0162,
      "velocity": 93,
      "chip": "ym2612"
    },
    {
      "channel": 1,
      "note": 75,
      "start": 15.9079,
      "duration": 0.0163,
      "velocity": 108,
      "chip": "ym2612"
    },
    {
      "channel": 0,
      "note": 44,
      "start": 15.9176,
      "duration": 0.0183,
      "velocity": 124,
      "chip": "ym2612"
    },
    {
      "channel": 5,
      "note": 75,
      "start": 15.9192,
      "duration": 0.018,
      "velocity": 108,
      "chip": "ym2612"
    },
    {
      "channel": 2,
      "note": 57,
      "start": 15.9229,
      "duration": 0.0188,
      "velocity": 93,
      "chip": "ym2612"
    },
    {
      "channel": 0,
      "note": 84,
      "start": 15.9359,
      "duration": 0.0137,
      "velocity": 124,
      "chip": "ym2612"
    },
    {
      "channel": 5,
      "note": 75,
      "start": 15.9372,
      "duration": 0.0139,
      "velocity": 108,
      "chip": "ym2612"
    },
    {
      "channel": 4,
      "note": 81,
      "start": 15.9387,
      "duration": 0.014,
      "velocity": 98,
      "chip": "ym2612"
    },
    {
      "channel": 3,
      "note": 85,
      "start": 15.9402,
      "duration": 0.0137,
      "velocity": 98,
      "chip": "ym2612"
    },
    {
      "channel": 2,
      "note": 57,
      "start": 15.9417,
      "duration": 0.0135,
      "velocity": 93,
      "chip": "ym2612"
    },
    {
      "channel": 1,
      "note": 76,
      "start": 15.9432,
      "duration": 0.0132,
      "velocity": 108,
      "chip": "ym2612"
    },
    {
      "channel": 0,
      "note": 82,
      "start": 15.9497,
      "duration": 0.016,
      "velocity": 124,
      "chip": "ym2612"
    },
    {
      "channel": 4,
      "note": 81,
      "start": 15.9527,
      "duration": 0.0162,
      "velocity": 98,
      "chip": "ym2612"
    },
    {
      "channel": 3,
      "note": 85,
      "start": 15.9539,
      "duration": 0.0161,
      "velocity": 98,
      "chip": "ym2612"
    },
    {
      "channel": 2,
      "note": 57,
      "start": 15.9552,
      "duration": 0.016,
      "velocity": 93,
      "chip": "ym2612"
    },
    {
      "channel": 1,
      "note": 76,
      "start": 15.9564,
      "duration": 0.016,
      "velocity": 108,
      "chip": "ym2612"
    },
    {
      "channel": 0,
      "note": 80,
      "start": 15.9657,
      "duration": 0.0161,
      "velocity": 124,
      "chip": "ym2612"
    },
    {
      "channel": 5,
      "note": 76,
      "start": 15.9671,
      "duration": 0.0159,
      "velocity": 108,
      "chip": "ym2612"
    },
    {
      "channel": 4,
      "note": 81,
      "start": 15.9689,
      "duration": 0.0155,
      "velocity": 98,
      "chip": "ym2612"
    },
    {
      "channel": 3,
      "note": 85,
      "start": 15.9701,
      "duration": 0.0159,
      "velocity": 98,
      "chip": "ym2612"
    },
    {
      "channel": 2,
      "note": 57,
      "start": 15.9712,
      "duration": 0.0158,
      "velocity": 93,
      "chip": "ym2612"
    },
    {
      "channel": 1,
      "note": 76,
      "start": 15.9724,
      "duration": 0.0159,
      "velocity": 108,
      "chip": "ym2612"
    },
    {
      "channel": 0,
      "note": 77,
      "start": 15.9818,
      "duration": 0.0161,
      "velocity": 124,
      "chip": "ym2612"
    },
    {
      "channel": 5,
      "note": 76,
      "start": 15.9831,
      "duration": 0.016,
      "velocity": 108,
      "chip": "ym2612"
    },
    {
      "channel": 4,
      "note": 81,
      "start": 15.9844,
      "duration": 0.0159,
      "velocity": 98,
      "chip": "ym2612"
    },
    {
      "channel": 3,
      "note": 85,
      "start": 15.9859,
      "duration": 0.016,
      "velocity": 98,
      "chip": "ym2612"
    },
    {
      "channel": 2,
      "note": 57,
      "start": 15.9871,
      "duration": 0.0161,
      "velocity": 93,
      "chip": "ym2612"
    },
    {
      "channel": 1,
      "note": 76,
      "start": 15.9883,
      "duration": 0.016,
      "velocity": 108,
      "chip": "ym2612"
    },
    {
      "channel": 0,
      "note": 75,
      "start": 15.9979,
      "duration": 0.0161,
      "velocity": 124,
      "chip": "ym2612"
    },
    {
      "channel": 5,
      "note": 76,
      "start": 15.9991,
      "duration": 0.0161,
      "velocity": 108,
      "chip": "ym2612"
    },
    {
      "channel": 4,
      "note": 81,
      "start": 16.0002,
      "duration": 0.0161,
      "velocity": 98,
      "chip": "ym2612"
    },
    {
      "channel": 3,
      "note": 85,
      "start": 16.0019,
      "duration": 0.0158,
      "velocity": 98,
      "chip": "ym2612"
    },
    {
      "channel": 2,
      "note": 57,
      "start": 16.0032,
      "duration": 0.016,
      "velocity": 93,
      "chip": "ym2612"
    },
    {
      "channel": 1,
      "note": 76,
      "start": 16.0043,
      "duration": 0.0161,
      "velocity": 108,
      "chip": "ym2612"
    },
    {
      "channel": 0,
      "note": 72,
      "start": 16.014,
      "duration": 0.0161,
      "velocity": 124,
      "chip": "ym2612"
    },
    {
      "channel": 5,
      "note": 76,
      "start": 16.0152,
      "duration": 0.0161,
      "velocity": 108,
      "chip": "ym2612"
    },
    {
      "channel": 4,
      "note": 81,
      "start": 16.0163,
      "duration": 0.0161,
      "velocity": 98,
      "chip": "ym2612"
    },
    {
      "channel": 3,
      "note": 85,
      "start": 16.0177,
      "duration": 0.0159,
      "velocity": 98,
      "chip": "ym2612"
    },
    {
      "channel": 2,
      "note": 57,
      "start": 16.0192,
      "duration": 0.016,
      "velocity": 93,
      "chip": "ym2612"
    },
    {
      "channel": 1,
      "note": 76,
      "start": 16.0204,
      "duration": 0.0161,
      "velocity": 108,
      "chip": "ym2612"
    },
    {
      "channel": 0,
      "note": 70,
      "start": 16.0301,
      "duration": 0.0161,
      "velocity": 124,
      "chip": "ym2612"
    },
    {
      "channel": 5,
      "note": 76,
      "start": 16.0313,
      "duration": 0.0161,
      "velocity": 108,
      "chip": "ym2612"
    },
    {
      "channel": 4,
      "note": 81,
      "start": 16.0324,
      "duration": 0.0161,
      "velocity": 98,
      "chip": "ym2612"
    },
    {
      "channel": 3,
      "note": 85,
      "start": 16.0336,
      "duration": 0.0161,
      "velocity": 98,
      "chip": "ym2612"
    },
    {
      "channel": 2,
      "note": 57,
      "start": 16.0352,
      "duration": 0.0158,
      "velocity": 93,
      "chip": "ym2612"
    },
    {
      "channel": 1,
      "note": 76,
      "start": 16.0365,
      "duration": 0.0161,
      "velocity": 108,
      "chip": "ym2612"
    },
    {
      "channel": 0,
      "note": 68,
      "start": 16.0461,
      "duration": 0.0162,
      "velocity": 124,
      "chip": "ym2612"
    },
    {
      "channel": 5,
      "note": 76,
      "start": 16.0474,
      "duration": 0.0161,
      "velocity": 108,
      "chip": "ym2612"
    },
    {
      "channel": 4,
      "note": 81,
      "start": 16.0485,
      "duration": 0.0161,
      "velocity": 98,
      "chip": "ym2612"
    },
    {
      "channel": 3,
      "note": 85,
      "start": 16.0497,
      "duration": 0.0161,
      "velocity": 98,
      "chip": "ym2612"
    },
    {
      "channel": 2,
      "note": 57,
      "start": 16.051,
      "duration": 0.0159,
      "velocity": 93,
      "chip": "ym2612"
    },
    {
      "channel": 1,
      "note": 76,
      "start": 16.0526,
      "duration": 0.016,
      "velocity": 108,
      "chip": "ym2612"
    },
    {
      "channel": 0,
      "note": 65,
      "start": 16.0623,
      "duration": 0.0161,
      "velocity": 124,
      "chip": "ym2612"
    },
    {
      "channel": 5,
      "note": 76,
      "start": 16.0634,
      "duration": 0.0161,
      "velocity": 108,
      "chip": "ym2612"
    },
    {
      "channel": 4,
      "note": 81,
      "start": 16.0646,
      "duration": 0.0162,
      "velocity": 98,
      "chip": "ym2612"
    },
    {
      "channel": 3,
      "note": 85,
      "start": 16.0657,
      "duration": 0.0163,
      "velocity": 98,
      "chip": "ym2612"
    },
    {
      "channel": 2,
      "note": 57,
      "start": 16.0669,
      "duration": 0.0163,
      "velocity": 93,
      "chip": "ym2612"
    },
    {
      "channel": 1,
      "note": 76,
      "start": 16.0686,
      "duration": 0.0164,
      "velocity": 108,
      "chip": "ym2612"
    },
    {
      "channel": 0,
      "note": 63,
      "start": 16.0784,
      "duration": 0.0153,
      "velocity": 1,
      "chip": "ym2612"
    },
    {
      "channel": 5,
      "note": 76,
      "start": 16.0795,
      "duration": 0.0153,
      "velocity": 108,
      "chip": "ym2612"
    },
    {
      "channel": 4,
      "note": 81,
      "start": 16.0808,
      "duration": 0.0153,
      "velocity": 98,
      "chip": "ym2612"
    },
    {
      "channel": 3,
      "note": 85,
      "start": 16.082,
      "duration": 0.0152,
      "velocity": 98,
      "chip": "ym2612"
    },
    {
      "channel": 2,
      "note": 57,
      "start": 16.0832,
      "duration": 0.0152,
      "velocity": 93,
      "chip": "ym2612"
    },
    {
      "channel": 1,
      "note": 76,
      "start": 16.085,
      "duration": 0.0146,
      "velocity": 108,
      "chip": "ym2612"
    },
    {
      "channel": 5,
      "note": 76,
      "start": 16.0948,
      "duration": 0.0154,
      "velocity": 108,
      "chip": "ym2612"
    },
    {
      "channel": 4,
      "note": 81,
      "start": 16.096,
      "duration": 0.0153,
      "velocity": 98,
      "chip": "ym2612"
    },
    {
      "channel": 3,
      "note": 85,
      "start": 16.0972,
      "duration": 0.0153,
      "velocity": 98,
      "chip": "ym2612"
    },
    {
      "channel": 2,
      "note": 57,
      "start": 16.0984,
      "duration": 0.0154,
      "velocity": 93,
      "chip": "ym2612"
    },
    {
      "channel": 1,
      "note": 76,
      "start": 16.0997,
      "duration": 0.0154,
      "velocity": 108,
      "chip": "ym2612"
    },
    {
      "channel": 5,
      "note": 76,
      "start": 16.1102,
      "duration": 0.0161,
      "velocity": 108,
      "chip": "ym2612"
    },
    {
      "channel": 4,
      "note": 81,
      "start": 16.1114,
      "duration": 0.016,
      "velocity": 98,
      "chip": "ym2612"
    },
    {
      "channel": 3,
      "note": 85,
      "start": 16.1126,
      "duration": 0.016,
      "velocity": 98,
      "chip": "ym2612"
    },
    {
      "channel": 2,
      "note": 57,
      "start": 16.1138,
      "duration": 0.0159,
      "velocity": 93,
      "chip": "ym2612"
    },
    {
      "channel": 1,
      "note": 76,
      "start": 16.1151,
      "duration": 0.0158,
      "velocity": 108,
      "chip": "ym2612"
    },
    {
      "channel": 5,
      "note": 76,
      "start": 16.1262,
      "duration": 0.016,
      "velocity": 108,
      "chip": "ym2612"
    },
    {
      "channel": 4,
      "note": 81,
      "start": 16.1274,
      "duration": 0.016,
      "velocity": 98,
      "chip": "ym2612"
    },
    {
      "channel": 3,
      "note": 85,
      "start": 16.1285,
      "duration": 0.016,
      "velocity": 98,
      "chip": "ym2612"
    },
    {
      "channel": 2,
      "note": 57,
      "start": 16.1298,
      "duration": 0.016,
      "velocity": 93,
      "chip": "ym2612"
    },
    {
      "channel": 1,
      "note": 76,
      "start": 16.1309,
      "duration": 0.016,
      "velocity": 108,
      "chip": "ym2612"
    },
    {
      "channel": 5,
      "note": 76,
      "start": 16.1423,
      "duration": 0.0161,
      "velocity": 108,
      "chip": "ym2612"
    },
    {
      "channel": 4,
      "note": 81,
      "start": 16.1434,
      "duration": 0.0161,
      "velocity": 98,
      "chip": "ym2612"
    },
    {
      "channel": 3,
      "note": 85,
      "start": 16.1446,
      "duration": 0.0162,
      "velocity": 98,
      "chip": "ym2612"
    },
    {
      "channel": 2,
      "note": 57,
      "start": 16.1458,
      "duration": 0.0161,
      "velocity": 93,
      "chip": "ym2612"
    },
    {
      "channel": 1,
      "note": 76,
      "start": 16.1469,
      "duration": 0.0161,
      "velocity": 108,
      "chip": "ym2612"
    },
    {
      "channel": 5,
      "note": 76,
      "start": 16.1584,
      "duration": 0.0161,
      "velocity": 108,
      "chip": "ym2612"
    },
    {
      "channel": 4,
      "note": 81,
      "start": 16.1595,
      "duration": 0.0161,
      "velocity": 98,
      "chip": "ym2612"
    },
    {
      "channel": 3,
      "note": 85,
      "start": 16.1607,
      "duration": 0.0161,
      "velocity": 98,
      "chip": "ym2612"
    },
    {
      "channel": 2,
      "note": 57,
      "start": 16.1619,
      "duration": 0.0161,
      "velocity": 93,
      "chip": "ym2612"
    },
    {
      "channel": 1,
      "note": 76,
      "start": 16.163,
      "duration": 0.0161,
      "velocity": 108,
      "chip": "ym2612"
    },
    {
      "channel": 5,
      "note": 76,
      "start": 16.1745,
      "duration": 0.0161,
      "velocity": 108,
      "chip": "ym2612"
    },
    {
      "channel": 4,
      "note": 81,
      "start": 16.1757,
      "duration": 0.0162,
      "velocity": 98,
      "chip": "ym2612"
    },
    {
      "channel": 3,
      "note": 85,
      "start": 16.1768,
      "duration": 0.0162,
      "velocity": 98,
      "chip": "ym2612"
    },
    {
      "channel": 2,
      "note": 57,
      "start": 16.178,
      "duration": 0.0163,
      "velocity": 93,
      "chip": "ym2612"
    },
    {
      "channel": 1,
      "note": 76,
      "start": 16.1791,
      "duration": 0.0163,
      "velocity": 108,
      "chip": "ym2612"
    },
    {
      "channel": 5,
      "note": 76,
      "start": 16.1906,
      "duration": 0.0162,
      "velocity": 108,
      "chip": "ym2612"
    },
    {
      "channel": 4,
      "note": 81,
      "start": 16.1918,
      "duration": 0.0161,
      "velocity": 98,
      "chip": "ym2612"
    },
    {
      "channel": 3,
      "note": 85,
      "start": 16.193,
      "duration": 0.0162,
      "velocity": 98,
      "chip": "ym2612"
    },
    {
      "channel": 2,
      "note": 57,
      "start": 16.1942,
      "duration": 0.0162,
      "velocity": 93,
      "chip": "ym2612"
    },
    {
      "channel": 1,
      "note": 76,
      "start": 16.1955,
      "duration": 0.0163,
      "velocity": 108,
      "chip": "ym2612"
    },
    {
      "channel": 5,
      "note": 76,
      "start": 16.2068,
      "duration": 0.0161,
      "velocity": 108,
      "chip": "ym2612"
    },
    {
      "channel": 2,
      "note": 57,
      "start": 16.2105,
      "duration": 0.0166,
      "velocity": 93,
      "chip": "ym2612"
    },
    {
      "channel": 5,
      "note": 76,
      "start": 16.2229,
      "duration": 0.0161,
      "velocity": 108,
      "chip": "ym2612"
    },
    {
      "channel": 2,
      "note": 57,
      "start": 16.2271,
      "duration": 0.0156,
      "velocity": 93,
      "chip": "ym2612"
    },
    {
      "channel": 1,
      "note": 80,
      "start": 16.2286,
      "duration": 0.0153,
      "velocity": 108,
      "chip": "ym2612"
    },
    {
      "channel": 2,
      "note": 57,
      "start": 16.2427,
      "duration": 0.0164,
      "velocity": 93,
      "chip": "ym2612"
    },
    {
      "channel": 1,
      "note": 80,
      "start": 16.2439,
      "duration": 0.0163,
      "velocity": 108,
      "chip": "ym2612"
    },
    {
      "channel": 5,
      "note": 80,
      "start": 16.2554,
      "duration": 0.0158,
      "velocity": 108,
      "chip": "ym2612"
    },
    {
      "channel": 2,
      "note": 57,
      "start": 16.2591,
      "duration": 0.0157,
      "velocity": 93,
      "chip": "ym2612"
    },
    {
      "channel": 1,
      "note": 80,
      "start": 16.2603,
      "duration": 0.0158,
      "velocity": 108,
      "chip": "ym2612"
    },
    {
      "channel": 5,
      "note": 80,
      "start": 16.2712,
      "duration": 0.016,
      "velocity": 108,
      "chip": "ym2612"
    },
    {
      "channel": 2,
      "note": 57,
      "start": 16.2749,
      "duration": 0.016,
      "velocity": 93,
      "chip": "ym2612"
    },
    {
      "channel": 1,
      "note": 80,
      "start": 16.2761,
      "duration": 0.016,
      "velocity": 108,
      "chip": "ym2612"
    },
    {
      "channel": 5,
      "note": 80,
      "start": 16.2872,
      "duration": 0.0161,
      "velocity": 108,
      "chip": "ym2612"
    },
    {
      "channel": 2,
      "note": 57,
      "start": 16.2909,
      "duration": 0.0161,
      "velocity": 93,
      "chip": "ym2612"
    },
    {
      "channel": 1,
      "note": 80,
      "start": 16.2921,
      "duration": 0.0161,
      "velocity": 108,
      "chip": "ym2612"
    },
    {
      "channel": 5,
      "note": 80,
      "start": 16.3033,
      "duration": 0.0163,
      "velocity": 108,
      "chip": "ym2612"
    },
    {
      "channel": 2,
      "note": 57,
      "start": 16.307,
      "duration": 0.0163,
      "velocity": 93,
      "chip": "ym2612"
    },
    {
      "channel": 1,
      "note": 80,
      "start": 16.3082,
      "duration": 0.0163,
      "velocity": 108,
      "chip": "ym2612"
    },
    {
      "channel": 5,
      "note": 80,
      "start": 16.3197,
      "duration": 0.0163,
      "velocity": 108,
      "chip": "ym2612"
    },
    {
      "channel": 2,
      "note": 57,
      "start": 16.3234,
      "duration": 0.0163,
      "velocity": 93,
      "chip": "ym2612"
    },
    {
      "channel": 1,
      "note": 80,
      "start": 16.3246,
      "duration": 0.0163,
      "velocity": 108,
      "chip": "ym2612"
    },
    {
      "channel": 5,
      "note": 80,
      "start": 16.336,
      "duration": 0.0162,
      "velocity": 108,
      "chip": "ym2612"
    },
    {
      "channel": 2,
      "note": 57,
      "start": 16.3397,
      "duration": 0.0162,
      "velocity": 93,
      "chip": "ym2612"
    },
    {
      "channel": 1,
      "note": 80,
      "start": 16.3409,
      "duration": 0.0162,
      "velocity": 108,
      "chip": "ym2612"
    },
    {
      "channel": 5,
      "note": 80,
      "start": 16.3522,
      "duration": 0.016,
      "velocity": 108,
      "chip": "ym2612"
    },
    {
      "channel": 2,
      "note": 57,
      "start": 16.3559,
      "duration": 0.0161,
      "velocity": 93,
      "chip": "ym2612"
    },
    {
      "channel": 1,
      "note": 80,
      "start": 16.3571,
      "duration": 0.0161,
      "velocity": 108,
      "chip": "ym2612"
    },
    {
      "channel": 5,
      "note": 80,
      "start": 16.3682,
      "duration": 0.0156,
      "velocity": 108,
      "chip": "ym2612"
    },
    {
      "channel": 2,
      "note": 57,
      "start": 16.372,
      "duration": 0.0162,
      "velocity": 93,
      "chip": "ym2612"
    },
    {
      "channel": 1,
      "note": 80,
      "start": 16.3732,
      "duration": 0.0161,
      "velocity": 108,
      "chip": "ym2612"
    },
    {
      "channel": 5,
      "note": 80,
      "start": 16.3838,
      "duration": 0.0162,
      "velocity": 108,
      "chip": "ym2612"
    },
    {
      "channel": 2,
      "note": 57,
      "start": 16.3881,
      "duration": 0.0161,
      "velocity": 93,
      "chip": "ym2612"
    },
    {
      "channel": 1,
      "note": 80,
      "start": 16.3893,
      "duration": 0.0162,
      "velocity": 108,
      "chip": "ym2612"
    },
    {
      "channel": 5,
      "note": 80,
      "start": 16.4,
      "duration": 0.0161,
      "velocity": 108,
      "chip": "ym2612"
    },
    {
      "channel": 2,
      "note": 57,
      "start": 16.4043,
      "duration": 0.0161,
      "velocity": 93,
      "chip": "ym2612"
    },
    {
      "channel": 1,
      "note": 80,
      "start": 16.4055,
      "duration": 0.016,
      "velocity": 108,
      "chip": "ym2612"
    },
    {
      "channel": 5,
      "note": 80,
      "start": 16.4161,
      "duration": 0.016,
      "velocity": 108,
      "chip": "ym2612"
    },
    {
      "channel": 2,
      "note": 57,
      "start": 16.4204,
      "duration": 0.016,
      "velocity": 93,
      "chip": "ym2612"
    },
    {
      "channel": 1,
      "note": 80,
      "start": 16.4215,
      "duration": 0.016,
      "velocity": 108,
      "chip": "ym2612"
    },
    {
      "channel": 5,
      "note": 80,
      "start": 16.4321,
      "duration": 0.0161,
      "velocity": 108,
      "chip": "ym2612"
    },
    {
      "channel": 2,
      "note": 57,
      "start": 16.4364,
      "duration": 0.0161,
      "velocity": 93,
      "chip": "ym2612"
    },
    {
      "channel": 1,
      "note": 80,
      "start": 16.4376,
      "duration": 0.0161,
      "velocity": 108,
      "chip": "ym2612"
    },
    {
      "channel": 5,
      "note": 80,
      "start": 16.4482,
      "duration": 0.0161,
      "velocity": 108,
      "chip": "ym2612"
    },
    {
      "channel": 2,
      "note": 57,
      "start": 16.4525,
      "duration": 0.016,
      "velocity": 93,
      "chip": "ym2612"
    },
    {
      "channel": 1,
      "note": 80,
      "start": 16.4537,
      "duration": 0.0161,
      "velocity": 108,
      "chip": "ym2612"
    },
    {
      "channel": 5,
      "note": 80,
      "start": 16.4643,
      "duration": 0.0161,
      "velocity": 108,
      "chip": "ym2612"
    },
    {
      "channel": 2,
      "note": 57,
      "start": 16.4685,
      "duration": 0.0158,
      "velocity": 93,
      "chip": "ym2612"
    },
    {
      "channel": 1,
      "note": 80,
      "start": 16.4698,
      "duration": 0.0162,
      "velocity": 108,
      "chip": "ym2612"
    },
    {
      "channel": 5,
      "note": 80,
      "start": 16.4804,
      "duration": 0.0161,
      "velocity": 108,
      "chip": "ym2612"
    },
    {
      "channel": 2,
      "note": 57,
      "start": 16.4843,
      "duration": 0.016,
      "velocity": 93,
      "chip": "ym2612"
    },
    {
      "channel": 5,
      "note": 80,
      "start": 16.4965,
      "duration": 0.0239,
      "velocity": 108,
      "chip": "ym2612"
    },
    {
      "channel": 2,
      "note": 57,
      "start": 16.5003,
      "duration": 0.0246,
      "velocity": 93,
      "chip": "ym2612"
    },
    {
      "channel": 1,
      "note": 84,
      "start": 16.515,
      "duration": 0.0142,
      "velocity": 124,
      "chip": "ym2612"
    },
    {
      "channel": 0,
      "note": 36,
      "start": 16.5191,
      "duration": 0.0119,
      "velocity": 115,
      "chip": "ym2612"
    },
    {
      "channel": 5,
      "note": 80,
      "start": 16.5204,
      "duration": 0.0119,
      "velocity": 108,
      "chip": "ym2612"
    },
    {
      "channel": 4,
      "note": 81,
      "start": 16.5219,
      "duration": 0.0116,
      "velocity": 98,
      "chip": "ym2612"
    },
    {
      "channel": 3,
      "note": 85,
      "start": 16.5234,
      "duration": 0.0118,
      "velocity": 98,
      "chip": "ym2612"
    },
    {
      "channel": 2,
      "note": 59,
      "start": 16.5249,
      "duration": 0.0117,
      "velocity": 93,
      "chip": "ym2612"
    },
    {
      "channel": 1,
      "note": 82,
      "start": 16.5292,
      "duration": 0.016,
      "velocity": 124,
      "chip": "ym2612"
    },
    {
      "channel": 0,
      "note": 36,
      "start": 16.531,
      "duration": 0.016,
      "velocity": 115,
      "chip": "ym2612"
    },
    {
      "channel": 4,
      "note": 81,
      "start": 16.5335,
      "duration": 0.016,
      "velocity": 98,
      "chip": "ym2612"
    },
    {
      "channel": 3,
      "note": 85,
      "start": 16.5353,
      "duration": 0.0156,
      "velocity": 98,
      "chip": "ym2612"
    },
    {
      "channel": 2,
      "note": 59,
      "start": 16.5366,
      "duration": 0.0158,
      "velocity": 93,
      "chip": "ym2612"
    },
    {
      "channel": 1,
      "note": 80,
      "start": 16.5453,
      "duration": 0.0162,
      "velocity": 124,
      "chip": "ym2612"
    },
    {
      "channel": 0,
      "note": 37,
      "start": 16.547,
      "duration": 0.0161,
      "velocity": 115,
      "chip": "ym2612"
    },
    {
      "channel": 4,
      "note": 81,
      "start": 16.5495,
      "duration": 0.016,
      "velocity": 98,
      "chip": "ym2612"
    },
    {
      "channel": 3,
      "note": 85,
      "start": 16.5509,
      "duration": 0.0158,
      "velocity": 98,
      "chip": "ym2612"
    },
    {
      "channel": 2,
      "note": 59,
      "start": 16.5524,
      "duration": 0.016,
      "velocity": 93,
      "chip": "ym2612"
    },
    {
      "channel": 1,
      "note": 77,
      "start": 16.5614,
      "duration": 0.0161,
      "velocity": 124,
      "chip": "ym2612"
    },
    {
      "channel": 0,
      "note": 37,
      "start": 16.5631,
      "duration": 0.0161,
      "velocity": 115,
      "chip": "ym2612"
    },
    {
      "channel": 4,
      "note": 81,
      "start": 16.5655,
      "duration": 0.0162,
      "velocity": 98,
      "chip": "ym2612"
    },
    {
      "channel": 3,
      "note": 85,
      "start": 16.5666,
      "duration": 0.0161,
      "velocity": 98,
      "chip": "ym2612"
    },
    {
      "channel": 2,
      "note": 59,
      "start": 16.5683,
      "duration": 0.0158,
      "velocity": 93,
      "chip": "ym2612"
    },
    {
      "channel": 1,
      "note": 75,
      "start": 16.5775,
      "duration": 0.0161,
      "velocity": 124,
      "chip": "ym2612"
    },
    {
      "channel": 0,
      "note": 38,
      "start": 16.5792,
      "duration": 0.0161,
      "velocity": 115,
      "chip": "ym2612"
    },
    {
      "channel": 4,
      "note": 81,
      "start": 16.5817,
      "duration": 0.0161,
      "velocity": 98,
      "chip": "ym2612"
    },
    {
      "channel": 3,
      "note": 85,
      "start": 16.5828,
      "duration": 0.0161,
      "velocity": 98,
      "chip": "ym2612"
    },
    {
      "channel": 2,
      "note": 59,
      "start": 16.5841,
      "duration": 0.0159,
      "velocity": 93,
      "chip": "ym2612"
    },
    {
      "channel": 1,
      "note": 72,
      "start": 16.5936,
      "duration": 0.0161,
      "velocity": 124,
      "chip": "ym2612"
    },
    {
      "channel": 0,
      "note": 38,
      "start": 16.5953,
      "duration": 0.0161,
      "velocity": 115,
      "chip": "ym2612"
    },
    {
      "channel": 4,
      "note": 81,
      "start": 16.5978,
      "duration": 0.0161,
      "velocity": 98,
      "chip": "ym2612"
    },
    {
      "channel": 3,
      "note": 85,
      "start": 16.5989,
      "duration": 0.0161,
      "velocity": 98,
      "chip": "ym2612"
    },
    {
      "channel": 2,
      "note": 59,
      "start": 16.6,
      "duration": 0.0161,
      "velocity": 93,
      "chip": "ym2612"
    },
    {
      "channel": 1,
      "note": 70,
      "start": 16.6097,
      "duration": 0.0161,
      "velocity": 124,
      "chip": "ym2612"
    },
    {
      "channel": 0,
      "note": 39,
      "start": 16.6114,
      "duration": 0.0161,
      "velocity": 115,
      "chip": "ym2612"
    },
    {
      "channel": 4,
      "note": 81,
      "start": 16.6138,
      "duration": 0.016,
      "velocity": 98,
      "chip": "ym2612"
    },
    {
      "channel": 3,
      "note": 85,
      "start": 16.615,
      "duration": 0.016,
      "velocity": 98,
      "chip": "ym2612"
    },
    {
      "channel": 2,
      "note": 59,
      "start": 16.6161,
      "duration": 0.0161,
      "velocity": 93,
      "chip": "ym2612"
    },
    {
      "channel": 1,
      "note": 68,
      "start": 16.6258,
      "duration": 0.0161,
      "velocity": 124,
      "chip": "ym2612"
    },
    {
      "channel": 0,
      "note": 39,
      "start": 16.6275,
      "duration": 0.0161,
      "velocity": 115,
      "chip": "ym2612"
    },
    {
      "channel": 4,
      "note": 81,
      "start": 16.6299,
      "duration": 0.0161,
      "velocity": 98,
      "chip": "ym2612"
    },
    {
      "channel": 3,
      "note": 85,
      "start": 16.631,
      "duration": 0.0161,
      "velocity": 98,
      "chip": "ym2612"
    },
    {
      "channel": 2,
      "note": 59,
      "start": 16.6322,
      "duration": 0.0161,
      "velocity": 93,
      "chip": "ym2612"
    },
    {
      "channel": 1,
      "note": 65,
      "start": 16.6419,
      "duration": 0.0161,
      "velocity": 124,
      "chip": "ym2612"
    },
    {
      "channel": 0,
      "note": 40,
      "start": 16.6436,
      "duration": 0.0161,
      "velocity": 115,
      "chip": "ym2612"
    },
    {
      "channel": 4,
      "note": 81,
      "start": 16.646,
      "duration": 0.0162,
      "velocity": 98,
      "chip": "ym2612"
    },
    {
      "channel": 3,
      "note": 85,
      "start": 16.6471,
      "duration": 0.0163,
      "velocity": 98,
      "chip": "ym2612"
    },
    {
      "channel": 2,
      "note": 59,
      "start": 16.6483,
      "duration": 0.0163,
      "velocity": 93,
      "chip": "ym2612"
    },
    {
      "channel": 1,
      "note": 63,
      "start": 16.658,
      "duration": 0.0153,
      "velocity": 1,
      "chip": "ym2612"
    },
    {
      "channel": 0,
      "note": 40,
      "start": 16.6597,
      "duration": 0.0153,
      "velocity": 115,
      "chip": "ym2612"
    },
    {
      "channel": 4,
      "note": 81,
      "start": 16.6622,
      "duration": 0.0153,
      "velocity": 98,
      "chip": "ym2612"
    },
    {
      "channel": 3,
      "note": 85,
      "start": 16.6634,
      "duration": 0.0153,
      "velocity": 98,
      "chip": "ym2612"
    },
    {
      "channel": 2,
      "note": 59,
      "start": 16.6647,
      "duration": 0.0152,
      "velocity": 93,
      "chip": "ym2612"
    },
    {
      "channel": 0,
      "note": 40,
      "start": 16.675,
      "duration": 0.0153,
      "velocity": 115,
      "chip": "ym2612"
    },
    {
      "channel": 4,
      "note": 81,
      "start": 16.6775,
      "duration": 0.0153,
      "velocity": 98,
      "chip": "ym2612"
    },
    {
      "channel": 3,
      "note": 85,
      "start": 16.6787,
      "duration": 0.0153,
      "velocity": 98,
      "chip": "ym2612"
    },
    {
      "channel": 2,
      "note": 59,
      "start": 16.6799,
      "duration": 0.0153,
      "velocity": 93,
      "chip": "ym2612"
    },
    {
      "channel": 0,
      "note": 41,
      "start": 16.6902,
      "duration": 0.0161,
      "velocity": 115,
      "chip": "ym2612"
    },
    {
      "channel": 4,
      "note": 81,
      "start": 16.6927,
      "duration": 0.016,
      "velocity": 98,
      "chip": "ym2612"
    },
    {
      "channel": 3,
      "note": 85,
      "start": 16.6939,
      "duration": 0.016,
      "velocity": 98,
      "chip": "ym2612"
    },
    {
      "channel": 2,
      "note": 59,
      "start": 16.6951,
      "duration": 0.0159,
      "velocity": 93,
      "chip": "ym2612"
    },
    {
      "channel": 0,
      "note": 41,
      "start": 16.7063,
      "duration": 0.0161,
      "velocity": 115,
      "chip": "ym2612"
    },
    {
      "channel": 4,
      "note": 81,
      "start": 16.7088,
      "duration": 0.0161,
      "velocity": 98,
      "chip": "ym2612"
    },
    {
      "channel": 3,
      "note": 85,
      "start": 16.7099,
      "duration": 0.0161,
      "velocity": 98,
      "chip": "ym2612"
    },
    {
      "channel": 2,
      "note": 59,
      "start": 16.711,
      "duration": 0.0161,
      "velocity": 93,
      "chip": "ym2612"
    },
    {
      "channel": 0,
      "note": 42,
      "start": 16.7224,
      "duration": 0.0161,
      "velocity": 115,
      "chip": "ym2612"
    },
    {
      "channel": 4,
      "note": 81,
      "start": 16.7249,
      "duration": 0.0161,
      "velocity": 98,
      "chip": "ym2612"
    },
    {
      "channel": 3,
      "note": 85,
      "start": 16.726,
      "duration": 0.0161,
      "velocity": 98,
      "chip": "ym2612"
    },
    {
      "channel": 2,
      "note": 59,
      "start": 16.7271,
      "duration": 0.0161,
      "velocity": 93,
      "chip": "ym2612"
    },
    {
      "channel": 0,
      "note": 42,
      "start": 16.7385,
      "duration": 0.0161,
      "velocity": 115,
      "chip": "ym2612"
    },
    {
      "channel": 4,
      "note": 81,
      "start": 16.7409,
      "duration": 0.0161,
      "velocity": 98,
      "chip": "ym2612"
    },
    {
      "channel": 3,
      "note": 85,
      "start": 16.7421,
      "duration": 0.0161,
      "velocity": 98,
      "chip": "ym2612"
    },
    {
      "channel": 2,
      "note": 59,
      "start": 16.7432,
      "duration": 0.0162,
      "velocity": 93,
      "chip": "ym2612"
    },
    {
      "channel": 0,
      "note": 43,
      "start": 16.7546,
      "duration": 0.0161,
      "velocity": 115,
      "chip": "ym2612"
    },
    {
      "channel": 4,
      "note": 81,
      "start": 16.757,
      "duration": 0.0162,
      "velocity": 98,
      "chip": "ym2612"
    },
    {
      "channel": 3,
      "note": 85,
      "start": 16.7582,
      "duration": 0.0162,
      "velocity": 98,
      "chip": "ym2612"
    },
    {
      "channel": 2,
      "note": 59,
      "start": 16.7594,
      "duration": 0.0162,
      "velocity": 93,
      "chip": "ym2612"
    },
    {
      "channel": 0,
      "note": 43,
      "start": 16.7707,
      "duration": 0.0162,
      "velocity": 115,
      "chip": "ym2612"
    },
    {
      "channel": 4,
      "note": 81,
      "start": 16.7732,
      "duration": 0.0162,
      "velocity": 98,
      "chip": "ym2612"
    },
    {
      "channel": 3,
      "note": 85,
      "start": 16.7744,
      "duration": 0.0162,
      "velocity": 98,
      "chip": "ym2612"
    },
    {
      "channel": 2,
      "note": 59,
      "start": 16.7756,
      "duration": 0.0163,
      "velocity": 93,
      "chip": "ym2612"
    },
    {
      "channel": 0,
      "note": 44,
      "start": 16.7869,
      "duration": 0.0173,
      "velocity": 115,
      "chip": "ym2612"
    },
    {
      "channel": 2,
      "note": 59,
      "start": 16.7919,
      "duration": 0.0175,
      "velocity": 93,
      "chip": "ym2612"
    },
    {
      "channel": 0,
      "note": 44,
      "start": 16.8042,
      "duration": 0.0155,
      "velocity": 115,
      "chip": "ym2612"
    },
    {
      "channel": 2,
      "note": 59,
      "start": 16.8094,
      "duration": 0.0152,
      "velocity": 93,
      "chip": "ym2612"
    },
    {
      "channel": 1,
      "note": 80,
      "start": 16.8119,
      "duration": 0.0139,
      "velocity": 108,
      "chip": "ym2612"
    },
    {
      "channel": 0,
      "note": 44,
      "start": 16.8196,
      "duration": 0.0161,
      "velocity": 115,
      "chip": "ym2612"
    },
    {
      "channel": 2,
      "note": 59,
      "start": 16.8246,
      "duration": 0.0163,
      "velocity": 93,
      "chip": "ym2612"
    },
    {
      "channel": 1,
      "note": 78,
      "start": 16.8258,
      "duration": 0.0163,
      "velocity": 108,
      "chip": "ym2612"
    },
    {
      "channel": 0,
      "note": 45,
      "start": 16.8357,
      "duration": 0.016,
      "velocity": 115,
      "chip": "ym2612"
    },
    {
      "channel": 5,
      "note": 78,
      "start": 16.8372,
      "duration": 0.0159,
      "velocity": 108,
      "chip": "ym2612"
    },
    {
      "channel": 2,
      "note": 59,
      "start": 16.8409,
      "duration": 0.0159,
      "velocity": 93,
      "chip": "ym2612"
    },
    {
      "channel": 1,
      "note": 78,
      "start": 16.8421,
      "duration": 0.0158,
      "velocity": 108,
      "chip": "ym2612"
    },
    {
      "channel": 0,
      "note": 45,
      "start": 16.8517,
      "duration": 0.0158,
      "velocity": 115,
      "chip": "ym2612"
    },
    {
      "channel": 5,
      "note": 78,
      "start": 16.8531,
      "duration": 0.016,
      "velocity": 108,
      "chip": "ym2612"
    },
    {
      "channel": 2,
      "note": 59,
      "start": 16.8568,
      "duration": 0.016,
      "velocity": 93,
      "chip": "ym2612"
    },
    {
      "channel": 1,
      "note": 78,
      "start": 16.8579,
      "duration": 0.016,
      "velocity": 108,
      "chip": "ym2612"
    },
    {
      "channel": 0,
      "note": 46,
      "start": 16.8675,
      "duration": 0.0159,
      "velocity": 115,
      "chip": "ym2612"
    },
    {
      "channel": 5,
      "note": 78,
      "start": 16.8691,
      "duration": 0.016,
      "velocity": 108,
      "chip": "ym2612"
    },
    {
      "channel": 2,
      "note": 59,
      "start": 16.8728,
      "duration": 0.0161,
      "velocity": 93,
      "chip": "ym2612"
    },
    {
      "channel": 1,
      "note": 78,
      "start": 16.8739,
      "duration": 0.0162,
      "velocity": 108,
      "chip": "ym2612"
    },
    {
      "channel": 0,
      "note": 46,
      "start": 16.8834,
      "duration": 0.0161,
      "velocity": 115,
      "chip": "ym2612"
    },
    {
      "channel": 5,
      "note": 78,
      "start": 16.8851,
      "duration": 0.0158,
      "velocity": 108,
      "chip": "ym2612"
    },
    {
      "channel": 2,
      "note": 59,
      "start": 16.8889,
      "duration": 0.0161,
      "velocity": 93,
      "chip": "ym2612"
    },
    {
      "channel": 1,
      "note": 78,
      "start": 16.8901,
      "duration": 0.0161,
      "velocity": 108,
      "chip": "ym2612"
    },
    {
      "channel": 0,
      "note": 47,
      "start": 16.8995,
      "duration": 0.0161,
      "velocity": 115,
      "chip": "ym2612"
    },
    {
      "channel": 5,
      "note": 78,
      "start": 16.9009,
      "duration": 0.0159,
      "velocity": 108,
      "chip": "ym2612"
    },
    {
      "channel": 2,
      "note": 59,
      "start": 16.905,
      "duration": 0.0162,
      "velocity": 93,
      "chip": "ym2612"
    },
    {
      "channel": 1,
      "note": 78,
      "start": 16.9062,
      "duration": 0.0161,
      "velocity": 108,
      "chip": "ym2612"
    },
    {
      "channel": 0,
      "note": 47,
      "start": 16.9156,
      "duration": 0.0161,
      "velocity": 115,
      "chip": "ym2612"
    },
    {
      "channel": 5,
      "note": 78,
      "start": 16.9168,
      "duration": 0.0161,
      "velocity": 108,
      "chip": "ym2612"
    },
    {
      "channel": 2,
      "note": 59,
      "start": 16.9212,
      "duration": 0.0161,
      "velocity": 93,
      "chip": "ym2612"
    },
    {
      "channel": 1,
      "note": 78,
      "start": 16.9223,
      "duration": 0.0161,
      "velocity": 108,
      "chip": "ym2612"
    },
    {
      "channel": 0,
      "note": 47,
      "start": 16.9318,
      "duration": 0.0161,
      "velocity": 115,
      "chip": "ym2612"
    },
    {
      "channel": 5,
      "note": 78,
      "start": 16.9329,
      "duration": 0.0161,
      "velocity": 108,
      "chip": "ym2612"
    },
    {
      "channel": 2,
      "note": 59,
      "start": 16.9373,
      "duration": 0.0161,
      "velocity": 93,
      "chip": "ym2612"
    },
    {
      "channel": 1,
      "note": 78,
      "start": 16.9384,
      "duration": 0.0162,
      "velocity": 108,
      "chip": "ym2612"
    },
    {
      "channel": 0,
      "note": 48,
      "start": 16.9479,
      "duration": 0.0161,
      "velocity": 115,
      "chip": "ym2612"
    },
    {
      "channel": 5,
      "note": 78,
      "start": 16.949,
      "duration": 0.0161,
      "velocity": 108,
      "chip": "ym2612"
    },
    {
      "channel": 2,
      "note": 59,
      "start": 16.9533,
      "duration": 0.0161,
      "velocity": 93,
      "chip": "ym2612"
    },
    {
      "channel": 1,
      "note": 78,
      "start": 16.9546,
      "duration": 0.0161,
      "velocity": 108,
      "chip": "ym2612"
    },
    {
      "channel": 0,
      "note": 48,
      "start": 16.964,
      "duration": 0.0161,
      "velocity": 115,
      "chip": "ym2612"
    },
    {
      "channel": 5,
      "note": 78,
      "start": 16.9651,
      "duration": 0.0162,
      "velocity": 108,
      "chip": "ym2612"
    },
    {
      "channel": 2,
      "note": 59,
      "start": 16.9694,
      "duration": 0.0162,
      "velocity": 93,
      "chip": "ym2612"
    },
    {
      "channel": 1,
      "note": 78,
      "start": 16.9706,
      "duration": 0.0162,
      "velocity": 108,
      "chip": "ym2612"
    },
    {
      "channel": 0,
      "note": 49,
      "start": 16.9801,
      "duration": 0.0153,
      "velocity": 1,
      "chip": "ym2612"
    },
    {
      "channel": 5,
      "note": 78,
      "start": 16.9813,
      "duration": 0.0153,
      "velocity": 108,
      "chip": "ym2612"
    },
    {
      "channel": 2,
      "note": 59,
      "start": 16.9856,
      "duration": 0.0146,
      "velocity": 93,
      "chip": "ym2612"
    },
    {
      "channel": 1,
      "note": 78,
      "start": 16.9869,
      "duration": 0.0151,
      "velocity": 108,
      "chip": "ym2612"
    },
    {
      "channel": 5,
      "note": 78,
      "start": 16.9965,
      "duration": 0.0152,
      "velocity": 108,
      "chip": "ym2612"
    },
    {
      "channel": 2,
      "note": 59,
      "start": 17.0002,
      "duration": 0.0152,
      "velocity": 93,
      "chip": "ym2612"
    },
    {
      "channel": 1,
      "note": 78,
      "start": 17.002,
      "duration": 0.0146,
      "velocity": 108,
      "chip": "ym2612"
    },
    {
      "channel": 5,
      "note": 78,
      "start": 17.0117,
      "duration": 0.0161,
      "velocity": 108,
      "chip": "ym2612"
    },
    {
      "channel": 2,
      "note": 59,
      "start": 17.0154,
      "duration": 0.0161,
      "velocity": 93,
      "chip": "ym2612"
    },
    {
      "channel": 1,
      "note": 78,
      "start": 17.0166,
      "duration": 0.0161,
      "velocity": 108,
      "chip": "ym2612"
    },
    {
      "channel": 5,
      "note": 78,
      "start": 17.0278,
      "duration": 0.0161,
      "velocity": 108,
      "chip": "ym2612"
    },
    {
      "channel": 2,
      "note": 59,
      "start": 17.0315,
      "duration": 0.0161,
      "velocity": 93,
      "chip": "ym2612"
    },
    {
      "channel": 1,
      "note": 78,
      "start": 17.0327,
      "duration": 0.0161,
      "velocity": 108,
      "chip": "ym2612"
    },
    {
      "channel": 5,
      "note": 78,
      "start": 17.0439,
      "duration": 0.0161,
      "velocity": 108,
      "chip": "ym2612"
    },
    {
      "channel": 2,
      "note": 59,
      "start": 17.0476,
      "duration": 0.0161,
      "velocity": 93,
      "chip": "ym2612"
    },
    {
      "channel": 1,
      "note": 78,
      "start": 17.0488,
      "duration": 0.0162,
      "velocity": 108,
      "chip": "ym2612"
    },
    {
      "channel": 5,
      "note": 78,
      "start": 17.06,
      "duration": 0.0162,
      "velocity": 108,
      "chip": "ym2612"
    },
    {
      "channel": 2,
      "note": 59,
      "start": 17.0638,
      "duration": 0.0162,
      "velocity": 93,
      "chip": "ym2612"
    },
    {
      "channel": 5,
      "note": 78,
      "start": 17.0762,
      "duration": 0.0232,
      "velocity": 108,
      "chip": "ym2612"
    },
    {
      "channel": 2,
      "note": 59,
      "start": 17.0799,
      "duration": 0.0245,
      "velocity": 93,
      "chip": "ym2612"
    },
    {
      "channel": 1,
      "note": 84,
      "start": 17.0946,
      "duration": 0.0143,
      "velocity": 124,
      "chip": "ym2612"
    },
    {
      "channel": 0,
      "note": 36,
      "start": 17.0981,
      "duration": 0.0125,
      "velocity": 115,
      "chip": "ym2612"
    },
    {
      "channel": 5,
      "note": 78,
      "start": 17.0994,
      "duration": 0.0125,
      "velocity": 108,
      "chip": "ym2612"
    },
    {
      "channel": 4,
      "note": 81,
      "start": 17.1014,
      "duration": 0.0117,
      "velocity": 98,
      "chip": "ym2612"
    },
    {
      "channel": 3,
      "note": 85,
      "start": 17.103,
      "duration": 0.0113,
      "velocity": 98,
      "chip": "ym2612"
    },
    {
      "channel": 2,
      "note": 59,
      "start": 17.1045,
      "duration": 0.0111,
      "velocity": 93,
      "chip": "ym2612"
    },
    {
      "channel": 1,
      "note": 82,
      "start": 17.1089,
      "duration": 0.016,
      "velocity": 124,
      "chip": "ym2612"
    },
    {
      "channel": 0,
      "note": 36,
      "start": 17.1107,
      "duration": 0.016,
      "velocity": 115,
      "chip": "ym2612"
    },
    {
      "channel": 4,
      "note": 81,
      "start": 17.1131,
      "duration": 0.016,
      "velocity": 98,
      "chip": "ym2612"
    },
    {
      "channel": 3,
      "note": 85,
      "start": 17.1144,
      "duration": 0.016,
      "velocity": 98,
      "chip": "ym2612"
    },
    {
      "channel": 2,
      "note": 59,
      "start": 17.1156,
      "duration": 0.0159,
      "velocity": 93,
      "chip": "ym2612"
    },
    {
      "channel": 1,
      "note": 80,
      "start": 17.1249,
      "duration": 0.0162,
      "velocity": 124,
      "chip": "ym2612"
    },
    {
      "channel": 0,
      "note": 37,
      "start": 17.1266,
      "duration": 0.0161,
      "velocity": 115,
      "chip": "ym2612"
    },
    {
      "channel": 4,
      "note": 81,
      "start": 17.1291,
      "duration": 0.016,
      "velocity": 98,
      "chip": "ym2612"
    },
    {
      "channel": 3,
      "note": 85,
      "start": 17.1303,
      "duration": 0.016,
      "velocity": 98,
      "chip": "ym2612"
    },
    {
      "channel": 2,
      "note": 59,
      "start": 17.1315,
      "duration": 0.016,
      "velocity": 93,
      "chip": "ym2612"
    },
    {
      "channel": 1,
      "note": 77,
      "start": 17.1411,
      "duration": 0.0161,
      "velocity": 124,
      "chip": "ym2612"
    },
    {
      "channel": 0,
      "note": 37,
      "start": 17.1427,
      "duration": 0.0161,
      "velocity": 115,
      "chip": "ym2612"
    },
    {
      "channel": 4,
      "note": 81,
      "start": 17.1451,
      "duration": 0.0161,
      "velocity": 98,
      "chip": "ym2612"
    },
    {
      "channel": 3,
      "note": 85,
      "start": 17.1463,
      "duration": 0.0161,
      "velocity": 98,
      "chip": "ym2612"
    },
    {
      "channel": 2,
      "note": 59,
      "start": 17.1475,
      "duration": 0.0161,
      "velocity": 93,
      "chip": "ym2612"
    },
    {
      "channel": 1,
      "note": 75,
      "start": 17.1572,
      "duration": 0.0161,
      "velocity": 124,
      "chip": "ym2612"
    },
    {
      "channel": 0,
      "note": 38,
      "start": 17.1588,
      "duration": 0.0161,
      "velocity": 115,
      "chip": "ym2612"
    },
    {
      "channel": 4,
      "note": 81,
      "start": 17.1612,
      "duration": 0.0162,
      "velocity": 98,
      "chip": "ym2612"
    },
    {
      "channel": 3,
      "note": 85,
      "start": 17.1624,
      "duration": 0.0161,
      "velocity": 98,
      "chip": "ym2612"
    },
    {
      "channel": 2,
      "note": 59,
      "start": 17.1636,
      "duration": 0.0161,
      "velocity": 93,
      "chip": "ym2612"
    },
    {
      "channel": 1,
      "note": 72,
      "start": 17.1732,
      "duration": 0.0161,
      "velocity": 124,
      "chip": "ym2612"
    },
    {
      "channel": 0,
      "note": 38,
      "start": 17.175,
      "duration": 0.0161,
      "velocity": 115,
      "chip": "ym2612"
    },
    {
      "channel": 4,
      "note": 81,
      "start": 17.1774,
      "duration": 0.0161,
      "velocity": 98,
      "chip": "ym2612"
    },
    {
      "channel": 3,
      "note": 85,
      "start": 17.1785,
      "duration": 0.0161,
      "velocity": 98,
      "chip": "ym2612"
    },
    {
      "channel": 2,
      "note": 59,
      "start": 17.1797,
      "duration": 0.0161,
      "velocity": 93,
      "chip": "ym2612"
    },
    {
      "channel": 1,
      "note": 70,
      "start": 17.1893,
      "duration": 0.0161,
      "velocity": 124,
      "chip": "ym2612"
    },
    {
      "channel": 0,
      "note": 39,
      "start": 17.1911,
      "duration": 0.0161,
      "velocity": 115,
      "chip": "ym2612"
    },
    {
      "channel": 4,
      "note": 81,
      "start": 17.1935,
      "duration": 0.016,
      "velocity": 98,
      "chip": "ym2612"
    },
    {
      "channel": 3,
      "note": 85,
      "start": 17.1946,
      "duration": 0.016,
      "velocity": 98,
      "chip": "ym2612"
    },
    {
      "channel": 2,
      "note": 59,
      "start": 17.1958,
      "duration": 0.0161,
      "velocity": 93,
      "chip": "ym2612"
    },
    {
      "channel": 1,
      "note": 68,
      "start": 17.2054,
      "duration": 0.0161,
      "velocity": 124,
      "chip": "ym2612"
    },
    {
      "channel": 0,
      "note": 39,
      "start": 17.2072,
      "duration": 0.0161,
      "velocity": 115,
      "chip": "ym2612"
    },
    {
      "channel": 4,
      "note": 81,
      "start": 17.2095,
      "duration": 0.0161,
      "velocity": 98,
      "chip": "ym2612"
    },
    {
      "channel": 3,
      "note": 85,
      "start": 17.2107,
      "duration": 0.0161,
      "velocity": 98,
      "chip": "ym2612"
    },
    {
      "channel": 2,
      "note": 59,
      "start": 17.2119,
      "duration": 0.0161,
      "velocity": 93,
      "chip": "ym2612"
    },
    {
      "channel": 1,
      "note": 65,
      "start": 17.2215,
      "duration": 0.0161,
      "velocity": 124,
      "chip": "ym2612"
    },
    {
      "channel": 0,
      "note": 40,
      "start": 17.2232,
      "duration": 0.0161,
      "velocity": 115,
      "chip": "ym2612"
    },
    {
      "channel": 4,
      "note": 81,
      "start": 17.2256,
      "duration": 0.0162,
      "velocity": 98,
      "chip": "ym2612"
    },
    {
      "channel": 3,
      "note": 85,
      "start": 17.2268,
      "duration": 0.0163,
      "velocity": 98,
      "chip": "ym2612"
    },
    {
      "channel": 2,
      "note": 59,
      "start": 17.228,
      "duration": 0.0163,
      "velocity": 93,
      "chip": "ym2612"
    },
    {
      "channel": 1,
      "note": 63,
      "start": 17.2376,
      "duration": 0.0154,
      "velocity": 1,
      "chip": "ym2612"
    },
    {
      "channel": 0,
      "note": 40,
      "start": 17.2393,
      "duration": 0.0153,
      "velocity": 115,
      "chip": "ym2612"
    },
    {
      "channel": 4,
      "note": 81,
      "start": 17.2418,
      "duration": 0.0153,
      "velocity": 98,
      "chip": "ym2612"
    },
    {
      "channel": 3,
      "note": 85,
      "start": 17.243,
      "duration": 0.0153,
      "velocity": 98,
      "chip": "ym2612"
    },
    {
      "channel": 2,
      "note": 59,
      "start": 17.2443,
      "duration": 0.0153,
      "velocity": 93,
      "chip": "ym2612"
    },
    {
      "channel": 0,
      "note": 40,
      "start": 17.2547,
      "duration": 0.0155,
      "velocity": 115,
      "chip": "ym2612"
    },
    {
      "channel": 4,
      "note": 81,
      "start": 17.2572,
      "duration": 0.0154,
      "velocity": 98,
      "chip": "ym2612"
    },
    {
      "channel": 3,
      "note": 85,
      "start": 17.2584,
      "duration": 0.0155,
      "velocity": 98,
      "chip": "ym2612"
    },
    {
      "channel": 2,
      "note": 59,
      "start": 17.2596,
      "duration": 0.0155,
      "velocity": 93,
      "chip": "ym2612"
    },
    {
      "channel": 0,
      "note": 41,
      "start": 17.2701,
      "duration": 0.0172,
      "velocity": 115,
      "chip": "ym2612"
    },
    {
      "channel": 4,
      "note": 81,
      "start": 17.2726,
      "duration": 0.0171,
      "velocity": 98,
      "chip": "ym2612"
    },
    {
      "channel": 3,
      "note": 85,
      "start": 17.2738,
      "duration": 0.0171,
      "velocity": 98,
      "chip": "ym2612"
    },
    {
      "channel": 2,
      "note": 59,
      "start": 17.2751,
      "duration": 0.017,
      "velocity": 93,
      "chip": "ym2612"
    },
    {
      "channel": 0,
      "note": 41,
      "start": 17.2873,
      "duration": 0.0154,
      "velocity": 115,
      "chip": "ym2612"
    },
    {
      "channel": 4,
      "note": 81,
      "start": 17.2897,
      "duration": 0.0154,
      "velocity": 98,
      "chip": "ym2612"
    },
    {
      "channel": 3,
      "note": 85,
      "start": 17.2909,
      "duration": 0.0154,
      "velocity": 98,
      "chip": "ym2612"
    },
    {
      "channel": 2,
      "note": 59,
      "start": 17.2921,
      "duration": 0.0153,
      "velocity": 93,
      "chip": "ym2612"
    },
    {
      "channel": 1,
      "note": 78,
      "start": 17.2946,
      "duration": 0.014,
      "velocity": 108,
      "chip": "ym2612"
    },
    {
      "channel": 0,
      "note": 42,
      "start": 17.3027,
      "duration": 0.0161,
      "velocity": 115,
      "chip": "ym2612"
    },
    {
      "channel": 4,
      "note": 81,
      "start": 17.3051,
      "duration": 0.0163,
      "velocity": 98,
      "chip": "ym2612"
    },
    {
      "channel": 3,
      "note": 85,
      "start": 17.3063,
      "duration": 0.0163,
      "velocity": 98,
      "chip": "ym2612"
    },
    {
      "channel": 2,
      "note": 59,
      "start": 17.3074,
      "duration": 0.0163,
      "velocity": 93,
      "chip": "ym2612"
    },
    {
      "channel": 1,
      "note": 80,
      "start": 17.3086,
      "duration": 0.0163,
      "velocity": 108,
      "chip": "ym2612"
    },
    {
      "channel": 0,
      "note": 42,
      "start": 17.3187,
      "duration": 0.0161,
      "velocity": 115,
      "chip": "ym2612"
    },
    {
      "channel": 5,
      "note": 80,
      "start": 17.3203,
      "duration": 0.0158,
      "velocity": 108,
      "chip": "ym2612"
    },
    {
      "channel": 4,
      "note": 81,
      "start": 17.3215,
      "duration": 0.0158,
      "velocity": 98,
      "chip": "ym2612"
    },
    {
      "channel": 3,
      "note": 85,
      "start": 17.3226,
      "duration": 0.0158,
      "velocity": 98,
      "chip": "ym2612"
    },
    {
      "channel": 2,
      "note": 59,
      "start": 17.3238,
      "duration": 0.0158,
      "velocity": 93,
      "chip": "ym2612"
    },
    {
      "channel": 1,
      "note": 80,
      "start": 17.3249,
      "duration": 0.0159,
      "velocity": 108,
      "chip": "ym2612"
    },
    {
      "channel": 0,
      "note": 43,
      "start": 17.3348,
      "duration": 0.0155,
      "velocity": 115,
      "chip": "ym2612"
    },
    {
      "channel": 5,
      "note": 80,
      "start": 17.3361,
      "duration": 0.016,
      "velocity": 108,
      "chip": "ym2612"
    },
    {
      "channel": 4,
      "note": 81,
      "start": 17.3373,
      "duration": 0.0161,
      "velocity": 98,
      "chip": "ym2612"
    },
    {
      "channel": 3,
      "note": 85,
      "start": 17.3384,
      "duration": 0.0162,
      "velocity": 98,
      "chip": "ym2612"
    },
    {
      "channel": 2,
      "note": 59,
      "start": 17.3396,
      "duration": 0.0162,
      "velocity": 93,
      "chip": "ym2612"
    },
    {
      "channel": 1,
      "note": 80,
      "start": 17.3407,
      "duration": 0.0162,
      "velocity": 108,
      "chip": "ym2612"
    },
    {
      "channel": 0,
      "note": 43,
      "start": 17.3504,
      "duration": 0.0161,
      "velocity": 115,
      "chip": "ym2612"
    },
    {
      "channel": 5,
      "note": 80,
      "start": 17.3521,
      "duration": 0.016,
      "velocity": 108,
      "chip": "ym2612"
    },
    {
      "channel": 4,
      "note": 81,
      "start": 17.3533,
      "duration": 0.0162,
      "velocity": 98,
      "chip": "ym2612"
    },
    {
      "channel": 3,
      "note": 85,
      "start": 17.3546,
      "duration": 0.0162,
      "velocity": 98,
      "chip": "ym2612"
    },
    {
      "channel": 2,
      "note": 59,
      "start": 17.3558,
      "duration": 0.0161,
      "velocity": 93,
      "chip": "ym2612"
    },
    {
      "channel": 1,
      "note": 80,
      "start": 17.357,
      "duration": 0.0162,
      "velocity": 108,
      "chip": "ym2612"
    },
    {
      "channel": 0,
      "note": 44,
      "start": 17.3664,
      "duration": 0.0161,
      "velocity": 115,
      "chip": "ym2612"
    },
    {
      "channel": 5,
      "note": 80,
      "start": 17.3682,
      "duration": 0.0156,
      "velocity": 108,
      "chip": "ym2612"
    },
    {
      "channel": 2,
      "note": 59,
      "start": 17.372,
      "duration": 0.0163,
      "velocity": 93,
      "chip": "ym2612"
    },
    {
      "channel": 1,
      "note": 80,
      "start": 17.3731,
      "duration": 0.0165,
      "velocity": 108,
      "chip": "ym2612"
    },
    {
      "channel": 0,
      "note": 44,
      "start": 17.3825,
      "duration": 0.0162,
      "velocity": 115,
      "chip": "ym2612"
    },
    {
      "channel": 5,
      "note": 80,
      "start": 17.3837,
      "duration": 0.0161,
      "velocity": 108,
      "chip": "ym2612"
    },
    {
      "channel": 2,
      "note": 59,
      "start": 17.3883,
      "duration": 0.0159,
      "velocity": 93,
      "chip": "ym2612"
    },
    {
      "channel": 1,
      "note": 80,
      "start": 17.3896,
      "duration": 0.0158,
      "velocity": 108,
      "chip": "ym2612"
    },
    {
      "channel": 0,
      "note": 44,
      "start": 17.3987,
      "duration": 0.0161,
      "velocity": 115,
      "chip": "ym2612"
    },
    {
      "channel": 5,
      "note": 80,
      "start": 17.3998,
      "duration": 0.0162,
      "velocity": 108,
      "chip": "ym2612"
    },
    {
      "channel": 2,
      "note": 59,
      "start": 17.4042,
      "duration": 0.0161,
      "velocity": 93,
      "chip": "ym2612"
    },
    {
      "channel": 1,
      "note": 80,
      "start": 17.4054,
      "duration": 0.0162,
      "velocity": 108,
      "chip": "ym2612"
    },
    {
      "channel": 0,
      "note": 45,
      "start": 17.4148,
      "duration": 0.0161,
      "velocity": 115,
      "chip": "ym2612"
    },
    {
      "channel": 5,
      "note": 80,
      "start": 17.416,
      "duration": 0.0161,
      "velocity": 108,
      "chip": "ym2612"
    },
    {
      "channel": 2,
      "note": 59,
      "start": 17.4203,
      "duration": 0.0161,
      "velocity": 93,
      "chip": "ym2612"
    },
    {
      "channel": 1,
      "note": 80,
      "start": 17.4215,
      "duration": 0.016,
      "velocity": 108,
      "chip": "ym2612"
    },
    {
      "channel": 0,
      "note": 45,
      "start": 17.4309,
      "duration": 0.0161,
      "velocity": 115,
      "chip": "ym2612"
    },
    {
      "channel": 5,
      "note": 80,
      "start": 17.4321,
      "duration": 0.016,
      "velocity": 108,
      "chip": "ym2612"
    },
    {
      "channel": 2,
      "note": 59,
      "start": 17.4364,
      "duration": 0.016,
      "velocity": 93,
      "chip": "ym2612"
    },
    {
      "channel": 1,
      "note": 80,
      "start": 17.4376,
      "duration": 0.016,
      "velocity": 108,
      "chip": "ym2612"
    },
    {
      "channel": 0,
      "note": 46,
      "start": 17.447,
      "duration": 0.0161,
      "velocity": 115,
      "chip": "ym2612"
    },
    {
      "channel": 5,
      "note": 80,
      "start": 17.4481,
      "duration": 0.0162,
      "velocity": 108,
      "chip": "ym2612"
    },
    {
      "channel": 2,
      "note": 59,
      "start": 17.4524,
      "duration": 0.0161,
      "velocity": 93,
      "chip": "ym2612"
    },
    {
      "channel": 1,
      "note": 80,
      "start": 17.4536,
      "duration": 0.0161,
      "velocity": 108,
      "chip": "ym2612"
    },
    {
      "channel": 0,
      "note": 46,
      "start": 17.4631,
      "duration": 0.0161,
      "velocity": 115,
      "chip": "ym2612"
    },
    {
      "channel": 5,
      "note": 80,
      "start": 17.4643,
      "duration": 0.0161,
      "velocity": 108,
      "chip": "ym2612"
    },
    {
      "channel": 2,
      "note": 59,
      "start": 17.4685,
      "duration": 0.0158,
      "velocity": 93,
      "chip": "ym2612"
    },
    {
      "channel": 0,
      "note": 47,
      "start": 17.4792,
      "duration": 0.0161,
      "velocity": 115,
      "chip": "ym2612"
    },
    {
      "channel": 5,
      "note": 80,
      "start": 17.4804,
      "duration": 0.0161,
      "velocity": 108,
      "chip": "ym2612"
    },
    {
      "channel": 2,
      "note": 59,
      "start": 17.4843,
      "duration": 0.0159,
      "velocity": 93,
      "chip": "ym2612"
    },
    {
      "channel": 0,
      "note": 47,
      "start": 17.4953,
      "duration": 0.0161,
      "velocity": 115,
      "chip": "ym2612"
    },
    {
      "channel": 2,
      "note": 59,
      "start": 17.5002,
      "duration": 0.0163,
      "velocity": 93,
      "chip": "ym2612"
    },
    {
      "channel": 0,
      "note": 47,
      "start": 17.5114,
      "duration": 0.0161,
      "velocity": 115,
      "chip": "ym2612"
    },
    {
      "channel": 2,
      "note": 59,
      "start": 17.5164,
      "duration": 0.016,
      "velocity": 93,
      "chip": "ym2612"
    },
    {
      "channel": 0,
      "note": 48,
      "start": 17.5275,
      "duration": 0.0161,
      "velocity": 115,
      "chip": "ym2612"
    },
    {
      "channel": 2,
      "note": 59,
      "start": 17.5325,
      "duration": 0.0161,
      "velocity": 93,
      "chip": "ym2612"
    },
    {
      "channel": 0,
      "note": 48,
      "start": 17.5436,
      "duration": 0.0161,
      "velocity": 115,
      "chip": "ym2612"
    },
    {
      "channel": 2,
      "note": 59,
      "start": 17.5486,
      "duration": 0.0161,
      "velocity": 93,
      "chip": "ym2612"
    },
    {
      "channel": 0,
      "note": 49,
      "start": 17.5597,
      "duration": 0.0179,
      "velocity": 124,
      "chip": "ym2612"
    },
    {
      "channel": 2,
      "note": 59,
      "start": 17.5647,
      "duration": 0.0188,
      "velocity": 93,
      "chip": "ym2612"
    },
    {
      "channel": 0,
      "note": 84,
      "start": 17.5776,
      "duration": 0.0143,
      "velocity": 124,
      "chip": "ym2612"
    },
    {
      "channel": 4,
      "note": 81,
      "start": 17.5804,
      "duration": 0.014,
      "velocity": 98,
      "chip": "ym2612"
    },
    {
      "channel": 3,
      "note": 85,
      "start": 17.582,
      "duration": 0.0136,
      "velocity": 98,
      "chip": "ym2612"
    },
    {
      "channel": 2,
      "note": 59,
      "start": 17.5835,
      "duration": 0.0134,
      "velocity": 93,
      "chip": "ym2612"
    },
    {
      "channel": 1,
      "note": 80,
      "start": 17.5855,
      "duration": 0.0125,
      "velocity": 108,
      "chip": "ym2612"
    },
    {
      "channel": 0,
      "note": 82,
      "start": 17.592,
      "duration": 0.016,
      "velocity": 124,
      "chip": "ym2612"
    },
    {
      "channel": 4,
      "note": 81,
      "start": 17.5944,
      "duration": 0.0162,
      "velocity": 98,
      "chip": "ym2612"
    },
    {
      "channel": 3,
      "note": 85,
      "start": 17.5956,
      "duration": 0.0162,
      "velocity": 98,
      "chip": "ym2612"
    },
    {
      "channel": 2,
      "note": 59,
      "start": 17.5968,
      "duration": 0.0161,
      "velocity": 93,
      "chip": "ym2612"
    },
    {
      "channel": 1,
      "note": 80,
      "start": 17.5981,
      "duration": 0.016,
      "velocity": 108,
      "chip": "ym2612"
    },
    {
      "channel": 0,
      "note": 80,
      "start": 17.608,
      "duration": 0.0161,
      "velocity": 124,
      "chip": "ym2612"
    },
    {
      "channel": 5,
      "note": 80,
      "start": 17.6095,
      "duration": 0.0158,
      "velocity": 108,
      "chip": "ym2612"
    },
    {
      "channel": 4,
      "note": 81,
      "start": 17.6107,
      "duration": 0.0159,
      "velocity": 98,
      "chip": "ym2612"
    },
    {
      "channel": 3,
      "note": 85,
      "start": 17.6118,
      "duration": 0.0158,
      "velocity": 98,
      "chip": "ym2612"
    },
    {
      "channel": 2,
      "note": 59,
      "start": 17.6129,
      "duration": 0.0159,
      "velocity": 93,
      "chip": "ym2612"
    },
    {
      "channel": 1,
      "note": 80,
      "start": 17.6141,
      "duration": 0.0159,
      "velocity": 108,
      "chip": "ym2612"
    },
    {
      "channel": 0,
      "note": 77,
      "start": 17.6241,
      "duration": 0.0161,
      "velocity": 124,
      "chip": "ym2612"
    },
    {
      "channel": 5,
      "note": 80,
      "start": 17.6254,
      "duration": 0.016,
      "velocity": 108,
      "chip": "ym2612"
    },
    {
      "channel": 4,
      "note": 81,
      "start": 17.6265,
      "duration": 0.016,
      "velocity": 98,
      "chip": "ym2612"
    },
    {
      "channel": 3,
      "note": 85,
      "start": 17.6276,
      "duration": 0.016,
      "velocity": 98,
      "chip": "ym2612"
    },
    {
      "channel": 2,
      "note": 59,
      "start": 17.6288,
      "duration": 0.016,
      "velocity": 93,
      "chip": "ym2612"
    },
    {
      "channel": 1,
      "note": 80,
      "start": 17.63,
      "duration": 0.016,
      "velocity": 108,
      "chip": "ym2612"
    },
    {
      "channel": 0,
      "note": 75,
      "start": 17.6402,
      "duration": 0.0161,
      "velocity": 124,
      "chip": "ym2612"
    },
    {
      "channel": 5,
      "note": 80,
      "start": 17.6414,
      "duration": 0.0161,
      "velocity": 108,
      "chip": "ym2612"
    },
    {
      "channel": 4,
      "note": 81,
      "start": 17.6425,
      "duration": 0.0161,
      "velocity": 98,
      "chip": "ym2612"
    },
    {
      "channel": 3,
      "note": 85,
      "start": 17.6437,
      "duration": 0.0161,
      "velocity": 98,
      "chip": "ym2612"
    },
    {
      "channel": 2,
      "note": 59,
      "start": 17.6448,
      "duration": 0.0162,
      "velocity": 93,
      "chip": "ym2612"
    },
    {
      "channel": 1,
      "note": 80,
      "start": 17.646,
      "duration": 0.0162,
      "velocity": 108,
      "chip": "ym2612"
    },
    {
      "channel": 0,
      "note": 72,
      "start": 17.6563,
      "duration": 0.018,
      "velocity": 124,
      "chip": "ym2612"
    },
    {
      "channel": 5,
      "note": 80,
      "start": 17.6575,
      "duration": 0.0179,
      "velocity": 108,
      "chip": "ym2612"
    },
    {
      "channel": 2,
      "note": 59,
      "start": 17.661,
      "duration": 0.019,
      "velocity": 93,
      "chip": "ym2612"
    },
    {
      "channel": 0,
      "note": 84,
      "start": 17.6743,
      "duration": 0.0143,
      "velocity": 124,
      "chip": "ym2612"
    },
    {
      "channel": 5,
      "note": 80,
      "start": 17.6754,
      "duration": 0.0143,
      "velocity": 108,
      "chip": "ym2612"
    },
    {
      "channel": 4,
      "note": 81,
      "start": 17.677,
      "duration": 0.0139,
      "velocity": 98,
      "chip": "ym2612"
    },
    {
      "channel": 3,
      "note": 85,
      "start": 17.6785,
      "duration": 0.0137,
      "velocity": 98,
      "chip": "ym2612"
    },
    {
      "channel": 2,
      "note": 59,
      "start": 17.6801,
      "duration": 0.0134,
      "velocity": 93,
      "chip": "ym2612"
    },
    {
      "channel": 1,
      "note": 78,
      "start": 17.6815,
      "duration": 0.0131,
      "velocity": 108,
      "chip": "ym2612"
    },
    {
      "channel": 0,
      "note": 82,
      "start": 17.6886,
      "duration": 0.016,
      "velocity": 124,
      "chip": "ym2612"
    },
    {
      "channel": 4,
      "note": 81,
      "start": 17.6909,
      "duration": 0.0163,
      "velocity": 98,
      "chip": "ym2612"
    },
    {
      "channel": 3,
      "note": 85,
      "start": 17.6922,
      "duration": 0.0162,
      "velocity": 98,
      "chip": "ym2612"
    },
    {
      "channel": 2,
      "note": 59,
      "start": 17.6934,
      "duration": 0.0161,
      "velocity": 93,
      "chip": "ym2612"
    },
    {
      "channel": 1,
      "note": 78,
      "start": 17.6946,
      "duration": 0.0161,
      "velocity": 108,
      "chip": "ym2612"
    },
    {
      "channel": 0,
      "note": 80,
      "start": 17.7046,
      "duration": 0.0161,
      "velocity": 124,
      "chip": "ym2612"
    },
    {
      "channel": 5,
      "note": 78,
      "start": 17.7061,
      "duration": 0.0158,
      "velocity": 108,
      "chip": "ym2612"
    },
    {
      "channel": 4,
      "note": 81,
      "start": 17.7073,
      "duration": 0.0159,
      "velocity": 98,
      "chip": "ym2612"
    },
    {
      "channel": 3,
      "note": 85,
      "start": 17.7084,
      "duration": 0.0159,
      "velocity": 98,
      "chip": "ym2612"
    },
    {
      "channel": 2,
      "note": 59,
      "start": 17.7096,
      "duration": 0.0159,
      "velocity": 93,
      "chip": "ym2612"
    },
    {
      "channel": 1,
      "note": 78,
      "start": 17.7107,
      "duration": 0.0159,
      "velocity": 108,
      "chip": "ym2612"
    },
    {
      "channel": 0,
      "note": 77,
      "start": 17.7208,
      "duration": 0.0161,
      "velocity": 124,
      "chip": "ym2612"
    },
    {
      "channel": 5,
      "note": 78,
      "start": 17.722,
      "duration": 0.016,
      "velocity": 108,
      "chip": "ym2612"
    },
    {
      "channel": 4,
      "note": 81,
      "start": 17.7231,
      "duration": 0.016,
      "velocity": 98,
      "chip": "ym2612"
    },
    {
      "channel": 3,
      "note": 85,
      "start": 17.7243,
      "duration": 0.016,
      "velocity": 98,
      "chip": "ym2612"
    },
    {
      "channel": 2,
      "note": 59,
      "start": 17.7255,
      "duration": 0.016,
      "velocity": 93,
      "chip": "ym2612"
    },
    {
      "channel": 1,
      "note": 78,
      "start": 17.7266,
      "duration": 0.016,
      "velocity": 108,
      "chip": "ym2612"
    },
    {
      "channel": 0,
      "note": 75,
      "start": 17.7369,
      "duration": 0.0164,
      "velocity": 124,
      "chip": "ym2612"
    },
    {
      "channel": 5,
      "note": 78,
      "start": 17.738,
      "duration": 0.0165,
      "velocity": 108,
      "chip": "ym2612"
    },
    {
      "channel": 4,
      "note": 81,
      "start": 17.7392,
      "duration": 0.0165,
      "velocity": 98,
      "chip": "ym2612"
    },
    {
      "channel": 3,
      "note": 85,
      "start": 17.7404,
      "duration": 0.0164,
      "velocity": 98,
      "chip": "ym2612"
    },
    {
      "channel": 2,
      "note": 59,
      "start": 17.7415,
      "duration": 0.0164,
      "velocity": 93,
      "chip": "ym2612"
    },
    {
      "channel": 1,
      "note": 78,
      "start": 17.7427,
      "duration": 0.0164,
      "velocity": 108,
      "chip": "ym2612"
    },
    {
      "channel": 0,
      "note": 72,
      "start": 17.7533,
      "duration": 0.0163,
      "velocity": 124,
      "chip": "ym2612"
    },
    {
      "channel": 5,
      "note": 78,
      "start": 17.7545,
      "duration": 0.0163,
      "velocity": 108,
      "chip": "ym2612"
    },
    {
      "channel": 4,
      "note": 81,
      "start": 17.7556,
      "duration": 0.0163,
      "velocity": 98,
      "chip": "ym2612"
    },
    {
      "channel": 3,
      "note": 85,
      "start": 17.7568,
      "duration": 0.0163,
      "velocity": 98,
      "chip": "ym2612"
    },
    {
      "channel": 2,
      "note": 59,
      "start": 17.7579,
      "duration": 0.0163,
      "velocity": 93,
      "chip": "ym2612"
    },
    {
      "channel": 1,
      "note": 78,
      "start": 17.7591,
      "duration": 0.0163,
      "velocity": 108,
      "chip": "ym2612"
    },
    {
      "channel": 0,
      "note": 70,
      "start": 17.7696,
      "duration": 0.0161,
      "velocity": 124,
      "chip": "ym2612"
    },
    {
      "channel": 5,
      "note": 78,
      "start": 17.7708,
      "duration": 0.0161,
      "velocity": 108,
      "chip": "ym2612"
    },
    {
      "channel": 4,
      "note": 81,
      "start": 17.7719,
      "duration": 0.0161,
      "velocity": 98,
      "chip": "ym2612"
    },
    {
      "channel": 3,
      "note": 85,
      "start": 17.7731,
      "duration": 0.0161,
      "velocity": 98,
      "chip": "ym2612"
    },
    {
      "channel": 2,
      "note": 59,
      "start": 17.7743,
      "duration": 0.0161,
      "velocity": 93,
      "chip": "ym2612"
    },
    {
      "channel": 1,
      "note": 78,
      "start": 17.7754,
      "duration": 0.0161,
      "velocity": 108,
      "chip": "ym2612"
    },
    {
      "channel": 0,
      "note": 68,
      "start": 17.7857,
      "duration": 0.016,
      "velocity": 124,
      "chip": "ym2612"
    },
    {
      "channel": 5,
      "note": 78,
      "start": 17.7869,
      "duration": 0.0161,
      "velocity": 108,
      "chip": "ym2612"
    },
    {
      "channel": 4,
      "note": 81,
      "start": 17.788,
      "duration": 0.0161,
      "velocity": 98,
      "chip": "ym2612"
    },
    {
      "channel": 3,
      "note": 85,
      "start": 17.7892,
      "duration": 0.0161,
      "velocity": 98,
      "chip": "ym2612"
    },
    {
      "channel": 2,
      "note": 59,
      "start": 17.7904,
      "duration": 0.0161,
      "velocity": 93,
      "chip": "ym2612"
    },
    {
      "channel": 1,
      "note": 78,
      "start": 17.7915,
      "duration": 0.0161,
      "velocity": 108,
      "chip": "ym2612"
    },
    {
      "channel": 0,
      "note": 65,
      "start": 17.8017,
      "duration": 0.0158,
      "velocity": 124,
      "chip": "ym2612"
    },
    {
      "channel": 5,
      "note": 78,
      "start": 17.803,
      "duration": 0.0161,
      "velocity": 108,
      "chip": "ym2612"
    },
    {
      "channel": 4,
      "note": 81,
      "start": 17.8041,
      "duration": 0.0162,
      "velocity": 98,
      "chip": "ym2612"
    },
    {
      "channel": 3,
      "note": 85,
      "start": 17.8053,
      "duration": 0.0163,
      "velocity": 98,
      "chip": "ym2612"
    },
    {
      "channel": 2,
      "note": 59,
      "start": 17.8065,
      "duration": 0.0163,
      "velocity": 93,
      "chip": "ym2612"
    },
    {
      "channel": 1,
      "note": 78,
      "start": 17.8076,
      "duration": 0.0164,
      "velocity": 108,
      "chip": "ym2612"
    },
    {
      "channel": 0,
      "note": 63,
      "start": 17.8175,
      "duration": 0.0151,
      "velocity": 1,
      "chip": "ym2612"
    },
    {
      "channel": 5,
      "note": 78,
      "start": 17.819,
      "duration": 0.0147,
      "velocity": 108,
      "chip": "ym2612"
    },
    {
      "channel": 4,
      "note": 81,
      "start": 17.8203,
      "duration": 0.0152,
      "velocity": 98,
      "chip": "ym2612"
    },
    {
      "channel": 3,
      "note": 85,
      "start": 17.8215,
      "duration": 0.0152,
      "velocity": 98,
      "chip": "ym2612"
    },
    {
      "channel": 2,
      "note": 59,
      "start": 17.8227,
      "duration": 0.0152,
      "velocity": 93,
      "chip": "ym2612"
    },
    {
      "channel": 1,
      "note": 78,
      "start": 17.824,
      "duration": 0.0151,
      "velocity": 108,
      "chip": "ym2612"
    },
    {
      "channel": 5,
      "note": 78,
      "start": 17.8337,
      "duration": 0.0153,
      "velocity": 108,
      "chip": "ym2612"
    },
    {
      "channel": 4,
      "note": 81,
      "start": 17.8355,
      "duration": 0.0148,
      "velocity": 98,
      "chip": "ym2612"
    },
    {
      "channel": 3,
      "note": 85,
      "start": 17.8367,
      "duration": 0.0153,
      "velocity": 98,
      "chip": "ym2612"
    },
    {
      "channel": 2,
      "note": 59,
      "start": 17.838,
      "duration": 0.0154,
      "velocity": 93,
      "chip": "ym2612"
    },
    {
      "channel": 1,
      "note": 78,
      "start": 17.8392,
      "duration": 0.0154,
      "velocity": 108,
      "chip": "ym2612"
    },
    {
      "channel": 5,
      "note": 78,
      "start": 17.8491,
      "duration": 0.0161,
      "velocity": 108,
      "chip": "ym2612"
    },
    {
      "channel": 4,
      "note": 81,
      "start": 17.8503,
      "duration": 0.016,
      "velocity": 98,
      "chip": "ym2612"
    },
    {
      "channel": 3,
      "note": 85,
      "start": 17.8521,
      "duration": 0.0156,
      "velocity": 98,
      "chip": "ym2612"
    },
    {
      "channel": 2,
      "note": 59,
      "start": 17.8533,
      "duration": 0.0159,
      "velocity": 93,
      "chip": "ym2612"
    },
    {
      "channel": 1,
      "note": 78,
      "start": 17.8546,
      "duration": 0.0158,
      "velocity": 108,
      "chip": "ym2612"
    },
    {
      "channel": 5,
      "note": 78,
      "start": 17.8652,
      "duration": 0.016,
      "velocity": 108,
      "chip": "ym2612"
    },
    {
      "channel": 4,
      "note": 81,
      "start": 17.8663,
      "duration": 0.016,
      "velocity": 98,
      "chip": "ym2612"
    },
    {
      "channel": 3,
      "note": 85,
      "start": 17.8677,
      "duration": 0.0158,
      "velocity": 98,
      "chip": "ym2612"
    },
    {
      "channel": 2,
      "note": 59,
      "start": 17.8693,
      "duration": 0.016,
      "velocity": 93,
      "chip": "ym2612"
    },
    {
      "channel": 1,
      "note": 78,
      "start": 17.8704,
      "duration": 0.016,
      "velocity": 108,
      "chip": "ym2612"
    },
    {
      "channel": 5,
      "note": 78,
      "start": 17.8812,
      "duration": 0.0161,
      "velocity": 108,
      "chip": "ym2612"
    },
    {
      "channel": 4,
      "note": 81,
      "start": 17.8824,
      "duration": 0.0161,
      "velocity": 98,
      "chip": "ym2612"
    },
    {
      "channel": 3,
      "note": 85,
      "start": 17.8835,
      "duration": 0.0161,
      "velocity": 98,
      "chip": "ym2612"
    },
    {
      "channel": 2,
      "note": 59,
      "start": 17.8852,
      "duration": 0.0158,
      "velocity": 93,
      "chip": "ym2612"
    },
    {
      "channel": 1,
      "note": 78,
      "start": 17.8864,
      "duration": 0.0161,
      "velocity": 108,
      "chip": "ym2612"
    },
    {
      "channel": 5,
      "note": 78,
      "start": 17.8973,
      "duration": 0.0161,
      "velocity": 108,
      "chip": "ym2612"
    },
    {
      "channel": 4,
      "note": 81,
      "start": 17.8984,
      "duration": 0.0161,
      "velocity": 98,
      "chip": "ym2612"
    },
    {
      "channel": 3,
      "note": 85,
      "start": 17.8996,
      "duration": 0.0161,
      "velocity": 98,
      "chip": "ym2612"
    },
    {
      "channel": 2,
      "note": 59,
      "start": 17.901,
      "duration": 0.0159,
      "velocity": 93,
      "chip": "ym2612"
    },
    {
      "channel": 1,
      "note": 78,
      "start": 17.9025,
      "duration": 0.016,
      "velocity": 108,
      "chip": "ym2612"
    },
    {
      "channel": 5,
      "note": 78,
      "start": 17.9134,
      "duration": 0.0161,
      "velocity": 108,
      "chip": "ym2612"
    },
    {
      "channel": 4,
      "note": 81,
      "start": 17.9145,
      "duration": 0.0162,
      "velocity": 98,
      "chip": "ym2612"
    },
    {
      "channel": 3,
      "note": 85,
      "start": 17.9157,
      "duration": 0.0162,
      "velocity": 98,
      "chip": "ym2612"
    },
    {
      "channel": 2,
      "note": 59,
      "start": 17.9169,
      "duration": 0.0163,
      "velocity": 93,
      "chip": "ym2612"
    },
    {
      "channel": 1,
      "note": 78,
      "start": 17.9185,
      "duration": 0.0163,
      "velocity": 108,
      "chip": "ym2612"
    },
    {
      "channel": 5,
      "note": 78,
      "start": 17.9295,
      "duration": 0.0162,
      "velocity": 108,
      "chip": "ym2612"
    },
    {
      "channel": 4,
      "note": 81,
      "start": 17.9307,
      "duration": 0.0162,
      "velocity": 98,
      "chip": "ym2612"
    },
    {
      "channel": 3,
      "note": 85,
      "start": 17.9319,
      "duration": 0.0163,
      "velocity": 98,
      "chip": "ym2612"
    },
    {
      "channel": 2,
      "note": 59,
      "start": 17.9332,
      "duration": 0.0162,
      "velocity": 93,
      "chip": "ym2612"
    },
    {
      "channel": 1,
      "note": 78,
      "start": 17.9349,
      "duration": 0.016,
      "velocity": 108,
      "chip": "ym2612"
    },
    {
      "channel": 5,
      "note": 78,
      "start": 17.9456,
      "duration": 0.0197,
      "velocity": 108,
      "chip": "ym2612"
    },
    {
      "channel": 2,
      "note": 59,
      "start": 17.9494,
      "duration": 0.021,
      "velocity": 93,
      "chip": "ym2612"
    },
    {
      "channel": 0,
      "note": 88,
      "start": 17.9641,
      "duration": 0.0142,
      "velocity": 127,
      "chip": "ym2612"
    },
    {
      "channel": 5,
      "note": 78,
      "start": 17.9654,
      "duration": 0.0142,
      "velocity": 108,
      "chip": "ym2612"
    },
    {
      "channel": 4,
      "note": 81,
      "start": 17.9669,
      "duration": 0.0139,
      "velocity": 98,
      "chip": "ym2612"
    },
    {
      "channel": 3,
      "note": 85,
      "start": 17.969,
      "duration": 0.013,
      "velocity": 98,
      "chip": "ym2612"
    },
    {
      "channel": 2,
      "note": 59,
      "start": 17.9705,
      "duration": 0.0129,
      "velocity": 93,
      "chip": "ym2612"
    },
    {
      "channel": 1,
      "note": 75,
      "start": 17.9719,
      "duration": 0.0131,
      "velocity": 108,
      "chip": "ym2612"
    },
    {
      "channel": 0,
      "note": 86,
      "start": 17.9783,
      "duration": 0.0161,
      "velocity": 127,
      "chip": "ym2612"
    },
    {
      "channel": 4,
      "note": 81,
      "start": 17.9808,
      "duration": 0.0162,
      "velocity": 98,
      "chip": "ym2612"
    },
    {
      "channel": 3,
      "note": 85,
      "start": 17.982,
      "duration": 0.0161,
      "velocity": 98,
      "chip": "ym2612"
    },
    {
      "channel": 2,
      "note": 59,
      "start": 17.9833,
      "duration": 0.016,
      "velocity": 93,
      "chip": "ym2612"
    },
    {
      "channel": 1,
      "note": 75,
      "start": 17.985,
      "duration": 0.0155,
      "velocity": 108,
      "chip": "ym2612"
    },
    {
      "channel": 0,
      "note": 85,
      "start": 17.9944,
      "duration": 0.0161,
      "velocity": 127,
      "chip": "ym2612"
    },
    {
      "channel": 5,
      "note": 75,
      "start": 17.9959,
      "duration": 0.0159,
      "velocity": 108,
      "chip": "ym2612"
    },
    {
      "channel": 4,
      "note": 81,
      "start": 17.9971,
      "duration": 0.0158,
      "velocity": 98,
      "chip": "ym2612"
    },
    {
      "channel": 3,
      "note": 85,
      "start": 17.9982,
      "duration": 0.0159,
      "velocity": 98,
      "chip": "ym2612"
    },
    {
      "channel": 2,
      "note": 59,
      "start": 17.9993,
      "duration": 0.0159,
      "velocity": 93,
      "chip": "ym2612"
    },
    {
      "channel": 1,
      "note": 75,
      "start": 18.0005,
      "duration": 0.0159,
      "velocity": 108,
      "chip": "ym2612"
    },
    {
      "channel": 0,
      "note": 83,
      "start": 18.0105,
      "duration": 0.0161,
      "velocity": 127,
      "chip": "ym2612"
    },
    {
      "channel": 5,
      "note": 75,
      "start": 18.0117,
      "duration": 0.016,
      "velocity": 108,
      "chip": "ym2612"
    },
    {
      "channel": 4,
      "note": 81,
      "start": 18.0129,
      "duration": 0.016,
      "velocity": 98,
      "chip": "ym2612"
    },
    {
      "channel": 3,
      "note": 85,
      "start": 18.014,
      "duration": 0.016,
      "velocity": 98,
      "chip": "ym2612"
    },
    {
      "channel": 2,
      "note": 59,
      "start": 18.0152,
      "duration": 0.016,
      "velocity": 93,
      "chip": "ym2612"
    },
    {
      "channel": 1,
      "note": 75,
      "start": 18.0164,
      "duration": 0.016,
      "velocity": 108,
      "chip": "ym2612"
    },
    {
      "channel": 0,
      "note": 81,
      "start": 18.0266,
      "duration": 0.0161,
      "velocity": 127,
      "chip": "ym2612"
    },
    {
      "channel": 5,
      "note": 75,
      "start": 18.0278,
      "duration": 0.0161,
      "velocity": 108,
      "chip": "ym2612"
    },
    {
      "channel": 4,
      "note": 81,
      "start": 18.0289,
      "duration": 0.0161,
      "velocity": 98,
      "chip": "ym2612"
    },
    {
      "channel": 3,
      "note": 85,
      "start": 18.0301,
      "duration": 0.0161,
      "velocity": 98,
      "chip": "ym2612"
    },
    {
      "channel": 2,
      "note": 59,
      "start": 18.0313,
      "duration": 0.0161,
      "velocity": 93,
      "chip": "ym2612"
    },
    {
      "channel": 1,
      "note": 75,
      "start": 18.0324,
      "duration": 0.0161,
      "velocity": 108,
      "chip": "ym2612"
    },
    {
      "channel": 0,
      "note": 80,
      "start": 18.0427,
      "duration": 0.0179,
      "velocity": 127,
      "chip": "ym2612"
    },
    {
      "channel": 5,
      "note": 75,
      "start": 18.0439,
      "duration": 0.018,
      "velocity": 108,
      "chip": "ym2612"
    },
    {
      "channel": 4,
      "note": 81,
      "start": 18.045,
      "duration": 0.018,
      "velocity": 98,
      "chip": "ym2612"
    },
    {
      "channel": 3,
      "note": 85,
      "start": 18.0461,
      "duration": 0.018,
      "velocity": 98,
      "chip": "ym2612"
    },
    {
      "channel": 2,
      "note": 59,
      "start": 18.0474,
      "duration": 0.0179,
      "velocity": 93,
      "chip": "ym2612"
    },
    {
      "channel": 1,
      "note": 75,
      "start": 18.0485,
      "duration": 0.0179,
      "velocity": 108,
      "chip": "ym2612"
    },
    {
      "channel": 0,
      "note": 88,
      "start": 18.0607,
      "duration": 0.0143,
      "velocity": 127,
      "chip": "ym2612"
    },
    {
      "channel": 5,
      "note": 75,
      "start": 18.0619,
      "duration": 0.0143,
      "velocity": 108,
      "chip": "ym2612"
    },
    {
      "channel": 4,
      "note": 81,
      "start": 18.063,
      "duration": 0.0143,
      "velocity": 98,
      "chip": "ym2612"
    },
    {
      "channel": 3,
      "note": 85,
      "start": 18.0641,
      "duration": 0.0143,
      "velocity": 98,
      "chip": "ym2612"
    },
    {
      "channel": 2,
      "note": 59,
      "start": 18.0653,
      "duration": 0.0143,
      "velocity": 93,
      "chip": "ym2612"
    },
    {
      "channel": 1,
      "note": 75,
      "start": 18.0664,
      "duration": 0.0143,
      "velocity": 108,
      "chip": "ym2612"
    },
    {
      "channel": 0,
      "note": 86,
      "start": 18.075,
      "duration": 0.016,
      "velocity": 127,
      "chip": "ym2612"
    },
    {
      "channel": 5,
      "note": 75,
      "start": 18.0762,
      "duration": 0.016,
      "velocity": 108,
      "chip": "ym2612"
    },
    {
      "channel": 4,
      "note": 81,
      "start": 18.0773,
      "duration": 0.016,
      "velocity": 98,
      "chip": "ym2612"
    },
    {
      "channel": 3,
      "note": 85,
      "start": 18.0785,
      "duration": 0.016,
      "velocity": 98,
      "chip": "ym2612"
    },
    {
      "channel": 2,
      "note": 59,
      "start": 18.0796,
      "duration": 0.016,
      "velocity": 93,
      "chip": "ym2612"
    },
    {
      "channel": 1,
      "note": 75,
      "start": 18.0808,
      "duration": 0.016,
      "velocity": 108,
      "chip": "ym2612"
    },
    {
      "channel": 0,
      "note": 85,
      "start": 18.091,
      "duration": 0.0161,
      "velocity": 127,
      "chip": "ym2612"
    },
    {
      "channel": 5,
      "note": 75,
      "start": 18.0922,
      "duration": 0.0161,
      "velocity": 108,
      "chip": "ym2612"
    },
    {
      "channel": 4,
      "note": 81,
      "start": 18.0934,
      "duration": 0.0162,
      "velocity": 98,
      "chip": "ym2612"
    },
    {
      "channel": 3,
      "note": 85,
      "start": 18.0945,
      "duration": 0.0162,
      "velocity": 98,
      "chip": "ym2612"
    },
    {
      "channel": 2,
      "note": 59,
      "start": 18.0956,
      "duration": 0.0163,
      "velocity": 93,
      "chip": "ym2612"
    },
    {
      "channel": 1,
      "note": 75,
      "start": 18.0968,
      "duration": 0.0164,
      "velocity": 108,
      "chip": "ym2612"
    },
    {
      "channel": 0,
      "note": 83,
      "start": 18.1071,
      "duration": 0.0161,
      "velocity": 127,
      "chip": "ym2612"
    },
    {
      "channel": 5,
      "note": 75,
      "start": 18.1083,
      "duration": 0.0161,
      "velocity": 108,
      "chip": "ym2612"
    },
    {
      "channel": 4,
      "note": 81,
      "start": 18.1095,
      "duration": 0.0161,
      "velocity": 98,
      "chip": "ym2612"
    },
    {
      "channel": 3,
      "note": 85,
      "start": 18.1107,
      "duration": 0.0161,
      "velocity": 98,
      "chip": "ym2612"
    },
    {
      "channel": 2,
      "note": 59,
      "start": 18.112,
      "duration": 0.016,
      "velocity": 93,
      "chip": "ym2612"
    },
    {
      "channel": 1,
      "note": 75,
      "start": 18.1132,
      "duration": 0.016,
      "velocity": 108,
      "chip": "ym2612"
    },
    {
      "channel": 0,
      "note": 81,
      "start": 18.1232,
      "duration": 0.0161,
      "velocity": 127,
      "chip": "ym2612"
    },
    {
      "channel": 5,
      "note": 75,
      "start": 18.1244,
      "duration": 0.0162,
      "velocity": 108,
      "chip": "ym2612"
    },
    {
      "channel": 4,
      "note": 81,
      "start": 18.1256,
      "duration": 0.0162,
      "velocity": 98,
      "chip": "ym2612"
    },
    {
      "channel": 3,
      "note": 85,
      "start": 18.1268,
      "duration": 0.0162,
      "velocity": 98,
      "chip": "ym2612"
    },
    {
      "channel": 2,
      "note": 59,
      "start": 18.128,
      "duration": 0.0162,
      "velocity": 93,
      "chip": "ym2612"
    },
    {
      "channel": 1,
      "note": 75,
      "start": 18.1292,
      "duration": 0.0162,
      "velocity": 108,
      "chip": "ym2612"
    },
    {
      "channel": 0,
      "note": 80,
      "start": 18.1393,
      "duration": 0.0179,
      "velocity": 127,
      "chip": "ym2612"
    },
    {
      "channel": 5,
      "note": 75,
      "start": 18.1406,
      "duration": 0.018,
      "velocity": 108,
      "chip": "ym2612"
    },
    {
      "channel": 4,
      "note": 81,
      "start": 18.1418,
      "duration": 0.0179,
      "velocity": 98,
      "chip": "ym2612"
    },
    {
      "channel": 3,
      "note": 85,
      "start": 18.143,
      "duration": 0.0179,
      "velocity": 98,
      "chip": "ym2612"
    },
    {
      "channel": 2,
      "note": 59,
      "start": 18.1442,
      "duration": 0.0178,
      "velocity": 93,
      "chip": "ym2612"
    },
    {
      "channel": 1,
      "note": 75,
      "start": 18.1455,
      "duration": 0.0177,
      "velocity": 108,
      "chip": "ym2612"
    },
    {
      "channel": 0,
      "note": 84,
      "start": 18.1573,
      "duration": 0.0143,
      "velocity": 127,
      "chip": "ym2612"
    },
    {
      "channel": 5,
      "note": 75,
      "start": 18.1585,
      "duration": 0.0142,
      "velocity": 108,
      "chip": "ym2612"
    },
    {
      "channel": 4,
      "note": 81,
      "start": 18.1597,
      "duration": 0.0142,
      "velocity": 98,
      "chip": "ym2612"
    },
    {
      "channel": 3,
      "note": 85,
      "start": 18.1609,
      "duration": 0.0141,
      "velocity": 98,
      "chip": "ym2612"
    },
    {
      "channel": 2,
      "note": 59,
      "start": 18.1621,
      "duration": 0.0142,
      "velocity": 93,
      "chip": "ym2612"
    },
    {
      "channel": 1,
      "note": 75,
      "start": 18.1632,
      "duration": 0.0142,
      "velocity": 108,
      "chip": "ym2612"
    },
    {
      "channel": 0,
      "note": 82,
      "start": 18.1716,
      "duration": 0.016,
      "velocity": 127,
      "chip": "ym2612"
    },
    {
      "channel": 5,
      "note": 75,
      "start": 18.1727,
      "duration": 0.016,
      "velocity": 108,
      "chip": "ym2612"
    },
    {
      "channel": 4,
      "note": 81,
      "start": 18.1739,
      "duration": 0.016,
      "velocity": 98,
      "chip": "ym2612"
    },
    {
      "channel": 3,
      "note": 85,
      "start": 18.175,
      "duration": 0.016,
      "velocity": 98,
      "chip": "ym2612"
    },
    {
      "channel": 2,
      "note": 59,
      "start": 18.1762,
      "duration": 0.016,
      "velocity": 93,
      "chip": "ym2612"
    },
    {
      "channel": 1,
      "note": 75,
      "start": 18.1774,
      "duration": 0.016,
      "velocity": 108,
      "chip": "ym2612"
    },
    {
      "channel": 0,
      "note": 81,
      "start": 18.1876,
      "duration": 0.0162,
      "velocity": 127,
      "chip": "ym2612"
    },
    {
      "channel": 5,
      "note": 75,
      "start": 18.1888,
      "duration": 0.0162,
      "velocity": 108,
      "chip": "ym2612"
    },
    {
      "channel": 4,
      "note": 81,
      "start": 18.1899,
      "duration": 0.0162,
      "velocity": 98,
      "chip": "ym2612"
    },
    {
      "channel": 3,
      "note": 85,
      "start": 18.1911,
      "duration": 0.0162,
      "velocity": 98,
      "chip": "ym2612"
    },
    {
      "channel": 2,
      "note": 59,
      "start": 18.1923,
      "duration": 0.0162,
      "velocity": 93,
      "chip": "ym2612"
    },
    {
      "channel": 1,
      "note": 75,
      "start": 18.1934,
      "duration": 0.0161,
      "velocity": 108,
      "chip": "ym2612"
    },
    {
      "channel": 0,
      "note": 79,
      "start": 18.2038,
      "duration": 0.0163,
      "velocity": 127,
      "chip": "ym2612"
    },
    {
      "channel": 5,
      "note": 75,
      "start": 18.2049,
      "duration": 0.0164,
      "velocity": 108,
      "chip": "ym2612"
    },
    {
      "channel": 4,
      "note": 81,
      "start": 18.2061,
      "duration": 0.0165,
      "velocity": 98,
      "chip": "ym2612"
    },
    {
      "channel": 3,
      "note": 85,
      "start": 18.2073,
      "duration": 0.0165,
      "velocity": 98,
      "chip": "ym2612"
    },
    {
      "channel": 2,
      "note": 59,
      "start": 18.2084,
      "duration": 0.0165,
      "velocity": 93,
      "chip": "ym2612"
    },
    {
      "channel": 1,
      "note": 75,
      "start": 18.2096,
      "duration": 0.0166,
      "velocity": 108,
      "chip": "ym2612"
    },
    {
      "channel": 0,
      "note": 77,
      "start": 18.2201,
      "duration": 0.0163,
      "velocity": 127,
      "chip": "ym2612"
    },
    {
      "channel": 5,
      "note": 75,
      "start": 18.2213,
      "duration": 0.0164,
      "velocity": 108,
      "chip": "ym2612"
    },
    {
      "channel": 4,
      "note": 81,
      "start": 18.2226,
      "duration": 0.0164,
      "velocity": 98,
      "chip": "ym2612"
    },
    {
      "channel": 3,
      "note": 85,
      "start": 18.2238,
      "duration": 0.0165,
      "velocity": 98,
      "chip": "ym2612"
    },
    {
      "channel": 2,
      "note": 59,
      "start": 18.225,
      "duration": 0.0166,
      "velocity": 93,
      "chip": "ym2612"
    },
    {
      "channel": 1,
      "note": 75,
      "start": 18.2262,
      "duration": 0.0165,
      "velocity": 108,
      "chip": "ym2612"
    },
    {
      "channel": 0,
      "note": 76,
      "start": 18.2365,
      "duration": 0.018,
      "velocity": 127,
      "chip": "ym2612"
    },
    {
      "channel": 5,
      "note": 75,
      "start": 18.2378,
      "duration": 0.0181,
      "velocity": 108,
      "chip": "ym2612"
    },
    {
      "channel": 2,
      "note": 59,
      "start": 18.2415,
      "duration": 0.0188,
      "velocity": 93,
      "chip": "ym2612"
    },
    {
      "channel": 0,
      "note": 84,
      "start": 18.2546,
      "duration": 0.0142,
      "velocity": 127,
      "chip": "ym2612"
    },
    {
      "channel": 5,
      "note": 75,
      "start": 18.2558,
      "duration": 0.0142,
      "velocity": 108,
      "chip": "ym2612"
    },
    {
      "channel": 4,
      "note": 81,
      "start": 18.2573,
      "duration": 0.0139,
      "velocity": 98,
      "chip": "ym2612"
    },
    {
      "channel": 3,
      "note": 85,
      "start": 18.2589,
      "duration": 0.0136,
      "velocity": 98,
      "chip": "ym2612"
    },
    {
      "channel": 2,
      "note": 59,
      "start": 18.2603,
      "duration": 0.0134,
      "velocity": 93,
      "chip": "ym2612"
    },
    {
      "channel": 1,
      "note": 73,
      "start": 18.2617,
      "duration": 0.0132,
      "velocity": 108,
      "chip": "ym2612"
    },
    {
      "channel": 0,
      "note": 82,
      "start": 18.2688,
      "duration": 0.0156,
      "velocity": 127,
      "chip": "ym2612"
    },
    {
      "channel": 4,
      "note": 81,
      "start": 18.2713,
      "duration": 0.0161,
      "velocity": 98,
      "chip": "ym2612"
    },
    {
      "channel": 3,
      "note": 85,
      "start": 18.2725,
      "duration": 0.0161,
      "velocity": 98,
      "chip": "ym2612"
    },
    {
      "channel": 2,
      "note": 59,
      "start": 18.2737,
      "duration": 0.016,
      "velocity": 93,
      "chip": "ym2612"
    },
    {
      "channel": 1,
      "note": 73,
      "start": 18.2749,
      "duration": 0.016,
      "velocity": 108,
      "chip": "ym2612"
    },
    {
      "channel": 0,
      "note": 81,
      "start": 18.2844,
      "duration": 0.0159,
      "velocity": 127,
      "chip": "ym2612"
    },
    {
      "channel": 5,
      "note": 73,
      "start": 18.2863,
      "duration": 0.0159,
      "velocity": 108,
      "chip": "ym2612"
    },
    {
      "channel": 4,
      "note": 81,
      "start": 18.2874,
      "duration": 0.0159,
      "velocity": 98,
      "chip": "ym2612"
    },
    {
      "channel": 3,
      "note": 85,
      "start": 18.2886,
      "duration": 0.0159,
      "velocity": 98,
      "chip": "ym2612"
    },
    {
      "channel": 2,
      "note": 59,
      "start": 18.2897,
      "duration": 0.0159,
      "velocity": 93,
      "chip": "ym2612"
    },
    {
      "channel": 1,
      "note": 73,
      "start": 18.2909,
      "duration": 0.0159,
      "velocity": 108,
      "chip": "ym2612"
    },
    {
      "channel": 0,
      "note": 79,
      "start": 18.3004,
      "duration": 0.0161,
      "velocity": 127,
      "chip": "ym2612"
    },
    {
      "channel": 5,
      "note": 73,
      "start": 18.3022,
      "duration": 0.0159,
      "velocity": 108,
      "chip": "ym2612"
    },
    {
      "channel": 4,
      "note": 81,
      "start": 18.3033,
      "duration": 0.016,
      "velocity": 98,
      "chip": "ym2612"
    },
    {
      "channel": 3,
      "note": 85,
      "start": 18.3045,
      "duration": 0.016,
      "velocity": 98,
      "chip": "ym2612"
    },
    {
      "channel": 2,
      "note": 59,
      "start": 18.3056,
      "duration": 0.016,
      "velocity": 93,
      "chip": "ym2612"
    },
    {
      "channel": 1,
      "note": 73,
      "start": 18.3068,
      "duration": 0.016,
      "velocity": 108,
      "chip": "ym2612"
    },
    {
      "channel": 0,
      "note": 77,
      "start": 18.3164,
      "duration": 0.0161,
      "velocity": 127,
      "chip": "ym2612"
    },
    {
      "channel": 5,
      "note": 73,
      "start": 18.3181,
      "duration": 0.0156,
      "velocity": 108,
      "chip": "ym2612"
    },
    {
      "channel": 4,
      "note": 81,
      "start": 18.3194,
      "duration": 0.0161,
      "velocity": 98,
      "chip": "ym2612"
    },
    {
      "channel": 3,
      "note": 85,
      "start": 18.3205,
      "duration": 0.0161,
      "velocity": 98,
      "chip": "ym2612"
    },
    {
      "channel": 2,
      "note": 59,
      "start": 18.3217,
      "duration": 0.0161,
      "velocity": 93,
      "chip": "ym2612"
    },
    {
      "channel": 1,
      "note": 73,
      "start": 18.3228,
      "duration": 0.0161,
      "velocity": 108,
      "chip": "ym2612"
    },
    {
      "channel": 0,
      "note": 76,
      "start": 18.3325,
      "duration": 0.0179,
      "velocity": 127,
      "chip": "ym2612"
    },
    {
      "channel": 5,
      "note": 73,
      "start": 18.3337,
      "duration": 0.0186,
      "velocity": 108,
      "chip": "ym2612"
    },
    {
      "channel": 4,
      "note": 81,
      "start": 18.3355,
      "duration": 0.018,
      "velocity": 98,
      "chip": "ym2612"
    },
    {
      "channel": 3,
      "note": 85,
      "start": 18.3366,
      "duration": 0.018,
      "velocity": 98,
      "chip": "ym2612"
    },
    {
      "channel": 2,
      "note": 59,
      "start": 18.3378,
      "duration": 0.018,
      "velocity": 93,
      "chip": "ym2612"
    },
    {
      "channel": 1,
      "note": 73,
      "start": 18.3389,
      "duration": 0.018,
      "velocity": 108,
      "chip": "ym2612"
    },
    {
      "channel": 0,
      "note": 84,
      "start": 18.3505,
      "duration": 0.0142,
      "velocity": 127,
      "chip": "ym2612"
    },
    {
      "channel": 5,
      "note": 73,
      "start": 18.3523,
      "duration": 0.0137,
      "velocity": 108,
      "chip": "ym2612"
    },
    {
      "channel": 4,
      "note": 81,
      "start": 18.3535,
      "duration": 0.0137,
      "velocity": 98,
      "chip": "ym2612"
    },
    {
      "channel": 3,
      "note": 85,
      "start": 18.3546,
      "duration": 0.0142,
      "velocity": 98,
      "chip": "ym2612"
    },
    {
      "channel": 2,
      "note": 59,
      "start": 18.3558,
      "duration": 0.0142,
      "velocity": 93,
      "chip": "ym2612"
    },
    {
      "channel": 1,
      "note": 73,
      "start": 18.3569,
      "duration": 0.0143,
      "velocity": 108,
      "chip": "ym2612"
    },
    {
      "channel": 0,
      "note": 82,
      "start": 18.3648,
      "duration": 0.016,
      "velocity": 127,
      "chip": "ym2612"
    },
    {
      "channel": 5,
      "note": 73,
      "start": 18.366,
      "duration": 0.016,
      "velocity": 108,
      "chip": "ym2612"
    },
    {
      "channel": 4,
      "note": 81,
      "start": 18.3671,
      "duration": 0.016,
      "velocity": 98,
      "chip": "ym2612"
    },
    {
      "channel": 3,
      "note": 85,
      "start": 18.3689,
      "duration": 0.016,
      "velocity": 98,
      "chip": "ym2612"
    },
    {
      "channel": 2,
      "note": 59,
      "start": 18.37,
      "duration": 0.016,
      "velocity": 93,
      "chip": "ym2612"
    },
    {
      "channel": 1,
      "note": 73,
      "start": 18.3712,
      "duration": 0.016,
      "velocity": 108,
      "chip": "ym2612"
    },
    {
      "channel": 0,
      "note": 81,
      "start": 18.3808,
      "duration": 0.0161,
      "velocity": 127,
      "chip": "ym2612"
    },
    {
      "channel": 5,
      "note": 73,
      "start": 18.382,
      "duration": 0.0161,
      "velocity": 108,
      "chip": "ym2612"
    },
    {
      "channel": 4,
      "note": 81,
      "start": 18.3832,
      "duration": 0.0162,
      "velocity": 98,
      "chip": "ym2612"
    },
    {
      "channel": 3,
      "note": 85,
      "start": 18.3848,
      "duration": 0.016,
      "velocity": 98,
      "chip": "ym2612"
    },
    {
      "channel": 2,
      "note": 59,
      "start": 18.386,
      "duration": 0.0163,
      "velocity": 93,
      "chip": "ym2612"
    },
    {
      "channel": 1,
      "note": 73,
      "start": 18.3873,
      "duration": 0.0164,
      "velocity": 108,
      "chip": "ym2612"
    },
    {
      "channel": 0,
      "note": 79,
      "start": 18.3969,
      "duration": 0.0161,
      "velocity": 127,
      "chip": "ym2612"
    },
    {
      "channel": 5,
      "note": 73,
      "start": 18.3981,
      "duration": 0.0161,
      "velocity": 108,
      "chip": "ym2612"
    },
    {
      "channel": 4,
      "note": 81,
      "start": 18.3993,
      "duration": 0.0161,
      "velocity": 98,
      "chip": "ym2612"
    },
    {
      "channel": 3,
      "note": 85,
      "start": 18.4008,
      "duration": 0.0159,
      "velocity": 98,
      "chip": "ym2612"
    },
    {
      "channel": 2,
      "note": 59,
      "start": 18.4024,
      "duration": 0.016,
      "velocity": 93,
      "chip": "ym2612"
    },
    {
      "channel": 1,
      "note": 73,
      "start": 18.4037,
      "duration": 0.016,
      "velocity": 108,
      "chip": "ym2612"
    },
    {
      "channel": 0,
      "note": 77,
      "start": 18.413,
      "duration": 0.0161,
      "velocity": 127,
      "chip": "ym2612"
    },
    {
      "channel": 5,
      "note": 73,
      "start": 18.4142,
      "duration": 0.0162,
      "velocity": 108,
      "chip": "ym2612"
    },
    {
      "channel": 4,
      "note": 81,
      "start": 18.4154,
      "duration": 0.0162,
      "velocity": 98,
      "chip": "ym2612"
    },
    {
      "channel": 3,
      "note": 85,
      "start": 18.4166,
      "duration": 0.0161,
      "velocity": 98,
      "chip": "ym2612"
    },
    {
      "channel": 2,
      "note": 59,
      "start": 18.4183,
      "duration": 0.0159,
      "velocity": 93,
      "chip": "ym2612"
    },
    {
      "channel": 1,
      "note": 73,
      "start": 18.4196,
      "duration": 0.0162,
      "velocity": 108,
      "chip": "ym2612"
    },
    {
      "channel": 0,
      "note": 76,
      "start": 18.4291,
      "duration": 0.018,
      "velocity": 127,
      "chip": "ym2612"
    },
    {
      "channel": 5,
      "note": 73,
      "start": 18.4304,
      "duration": 0.018,
      "velocity": 108,
      "chip": "ym2612"
    },
    {
      "channel": 4,
      "note": 81,
      "start": 18.4316,
      "duration": 0.0179,
      "velocity": 98,
      "chip": "ym2612"
    },
    {
      "channel": 3,
      "note": 85,
      "start": 18.4328,
      "duration": 0.0181,
      "velocity": 98,
      "chip": "ym2612"
    },
    {
      "channel": 2,
      "note": 59,
      "start": 18.4343,
      "duration": 0.0182,
      "velocity": 93,
      "chip": "ym2612"
    },
    {
      "channel": 1,
      "note": 73,
      "start": 18.4359,
      "duration": 0.0178,
      "velocity": 108,
      "chip": "ym2612"
    },
    {
      "channel": 0,
      "note": 78,
      "start": 18.4472,
      "duration": 0.0143,
      "velocity": 127,
      "chip": "ym2612"
    },
    {
      "channel": 5,
      "note": 73,
      "start": 18.4484,
      "duration": 0.0142,
      "velocity": 108,
      "chip": "ym2612"
    },
    {
      "channel": 4,
      "note": 81,
      "start": 18.4495,
      "duration": 0.0142,
      "velocity": 98,
      "chip": "ym2612"
    },
    {
      "channel": 3,
      "note": 85,
      "start": 18.4509,
      "duration": 0.0139,
      "velocity": 98,
      "chip": "ym2612"
    },
    {
      "channel": 2,
      "note": 59,
      "start": 18.4524,
      "duration": 0.0136,
      "velocity": 93,
      "chip": "ym2612"
    },
    {
      "channel": 1,
      "note": 73,
      "start": 18.4536,
      "duration": 0.0136,
      "velocity": 108,
      "chip": "ym2612"
    },
    {
      "channel": 0,
      "note": 76,
      "start": 18.4614,
      "duration": 0.016,
      "velocity": 127,
      "chip": "ym2612"
    },
    {
      "channel": 5,
      "note": 73,
      "start": 18.4626,
      "duration": 0.016,
      "velocity": 108,
      "chip": "ym2612"
    },
    {
      "channel": 4,
      "note": 81,
      "start": 18.4637,
      "duration": 0.016,
      "velocity": 98,
      "chip": "ym2612"
    },
    {
      "channel": 3,
      "note": 85,
      "start": 18.4649,
      "duration": 0.016,
      "velocity": 98,
      "chip": "ym2612"
    },
    {
      "channel": 2,
      "note": 59,
      "start": 18.4661,
      "duration": 0.016,
      "velocity": 93,
      "chip": "ym2612"
    },
    {
      "channel": 1,
      "note": 73,
      "start": 18.4672,
      "duration": 0.016,
      "velocity": 108,
      "chip": "ym2612"
    },
    {
      "channel": 0,
      "note": 75,
      "start": 18.4775,
      "duration": 0.0161,
      "velocity": 127,
      "chip": "ym2612"
    },
    {
      "channel": 5,
      "note": 73,
      "start": 18.4786,
      "duration": 0.0162,
      "velocity": 108,
      "chip": "ym2612"
    },
    {
      "channel": 4,
      "note": 81,
      "start": 18.4798,
      "duration": 0.0161,
      "velocity": 98,
      "chip": "ym2612"
    },
    {
      "channel": 3,
      "note": 85,
      "start": 18.4809,
      "duration": 0.0162,
      "velocity": 98,
      "chip": "ym2612"
    },
    {
      "channel": 2,
      "note": 59,
      "start": 18.4821,
      "duration": 0.0161,
      "velocity": 93,
      "chip": "ym2612"
    },
    {
      "channel": 1,
      "note": 73,
      "start": 18.4832,
      "duration": 0.0161,
      "velocity": 108,
      "chip": "ym2612"
    },
    {
      "channel": 0,
      "note": 73,
      "start": 18.4935,
      "duration": 0.0161,
      "velocity": 127,
      "chip": "ym2612"
    },
    {
      "channel": 5,
      "note": 73,
      "start": 18.4948,
      "duration": 0.0161,
      "velocity": 108,
      "chip": "ym2612"
    },
    {
      "channel": 4,
      "note": 81,
      "start": 18.4959,
      "duration": 0.0162,
      "velocity": 98,
      "chip": "ym2612"
    },
    {
      "channel": 3,
      "note": 85,
      "start": 18.4971,
      "duration": 0.0162,
      "velocity": 98,
      "chip": "ym2612"
    },
    {
      "channel": 2,
      "note": 59,
      "start": 18.4982,
      "duration": 0.0163,
      "velocity": 93,
      "chip": "ym2612"
    },
    {
      "channel": 1,
      "note": 73,
      "start": 18.4993,
      "duration": 0.0163,
      "velocity": 108,
      "chip": "ym2612"
    },
    {
      "channel": 0,
      "note": 71,
      "start": 18.5096,
      "duration": 0.0161,
      "velocity": 127,
      "chip": "ym2612"
    },
    {
      "channel": 5,
      "note": 73,
      "start": 18.5108,
      "duration": 0.0162,
      "velocity": 108,
      "chip": "ym2612"
    },
    {
      "channel": 4,
      "note": 81,
      "start": 18.5121,
      "duration": 0.0161,
      "velocity": 98,
      "chip": "ym2612"
    },
    {
      "channel": 3,
      "note": 85,
      "start": 18.5133,
      "duration": 0.0162,
      "velocity": 98,
      "chip": "ym2612"
    },
    {
      "channel": 2,
      "note": 59,
      "start": 18.5145,
      "duration": 0.0163,
      "velocity": 93,
      "chip": "ym2612"
    },
    {
      "channel": 1,
      "note": 73,
      "start": 18.5157,
      "duration": 0.0163,
      "velocity": 108,
      "chip": "ym2612"
    },
    {
      "channel": 0,
      "note": 70,
      "start": 18.5257,
      "duration": 0.0179,
      "velocity": 115,
      "chip": "ym2612"
    },
    {
      "channel": 5,
      "note": 73,
      "start": 18.527,
      "duration": 0.0179,
      "velocity": 108,
      "chip": "ym2612"
    },
    {
      "channel": 2,
      "note": 59,
      "start": 18.5308,
      "duration": 0.019,
      "velocity": 93,
      "chip": "ym2612"
    },
    {
      "channel": 0,
      "note": 36,
      "start": 18.5437,
      "duration": 0.0143,
      "velocity": 115,
      "chip": "ym2612"
    },
    {
      "channel": 5,
      "note": 73,
      "start": 18.5449,
      "duration": 0.0143,
      "velocity": 108,
      "chip": "ym2612"
    },
    {
      "channel": 4,
      "note": 80,
      "start": 18.5466,
      "duration": 0.0139,
      "velocity": 98,
      "chip": "ym2612"
    },
    {
      "channel": 3,
      "note": 83,
      "start": 18.5483,
      "duration": 0.0135,
      "velocity": 98,
      "chip": "ym2612"
    },
    {
      "channel": 2,
      "note": 52,
      "start": 18.5498,
      "duration": 0.0132,
      "velocity": 93,
      "chip": "ym2612"
    },
    {
      "channel": 1,
      "note": 71,
      "start": 18.552,
      "duration": 0.0122,
      "velocity": 108,
      "chip": "ym2612"
    },
    {
      "channel": 0,
      "note": 36,
      "start": 18.558,
      "duration": 0.0161,
      "velocity": 115,
      "chip": "ym2612"
    },
    {
      "channel": 4,
      "note": 80,
      "start": 18.5605,
      "duration": 0.0163,
      "velocity": 98,
      "chip": "ym2612"
    },
    {
      "channel": 3,
      "note": 83,
      "start": 18.5617,
      "duration": 0.0162,
      "velocity": 98,
      "chip": "ym2612"
    },
    {
      "channel": 2,
      "note": 52,
      "start": 18.5629,
      "duration": 0.0162,
      "velocity": 93,
      "chip": "ym2612"
    },
    {
      "channel": 1,
      "note": 71,
      "start": 18.5641,
      "duration": 0.0162,
      "velocity": 108,
      "chip": "ym2612"
    },
    {
      "channel": 0,
      "note": 37,
      "start": 18.5741,
      "duration": 0.0161,
      "velocity": 115,
      "chip": "ym2612"
    },
    {
      "channel": 5,
      "note": 71,
      "start": 18.5757,
      "duration": 0.0157,
      "velocity": 108,
      "chip": "ym2612"
    },
    {
      "channel": 4,
      "note": 80,
      "start": 18.5768,
      "duration": 0.0157,
      "velocity": 98,
      "chip": "ym2612"
    },
    {
      "channel": 3,
      "note": 83,
      "start": 18.578,
      "duration": 0.0157,
      "velocity": 98,
      "chip": "ym2612"
    },
    {
      "channel": 2,
      "note": 52,
      "start": 18.5791,
      "duration": 0.0158,
      "velocity": 93,
      "chip": "ym2612"
    },
    {
      "channel": 1,
      "note": 71,
      "start": 18.5803,
      "duration": 0.0157,
      "velocity": 108,
      "chip": "ym2612"
    },
    {
      "channel": 0,
      "note": 37,
      "start": 18.5902,
      "duration": 0.0161,
      "velocity": 115,
      "chip": "ym2612"
    },
    {
      "channel": 5,
      "note": 71,
      "start": 18.5914,
      "duration": 0.016,
      "velocity": 108,
      "chip": "ym2612"
    },
    {
      "channel": 4,
      "note": 80,
      "start": 18.5925,
      "duration": 0.016,
      "velocity": 98,
      "chip": "ym2612"
    },
    {
      "channel": 3,
      "note": 83,
      "start": 18.5937,
      "duration": 0.016,
      "velocity": 98,
      "chip": "ym2612"
    },
    {
      "channel": 2,
      "note": 52,
      "start": 18.5949,
      "duration": 0.016,
      "velocity": 93,
      "chip": "ym2612"
    },
    {
      "channel": 1,
      "note": 71,
      "start": 18.596,
      "duration": 0.016,
      "velocity": 108,
      "chip": "ym2612"
    },
    {
      "channel": 0,
      "note": 38,
      "start": 18.6063,
      "duration": 0.0161,
      "velocity": 115,
      "chip": "ym2612"
    },
    {
      "channel": 5,
      "note": 71,
      "start": 18.6074,
      "duration": 0.0161,
      "velocity": 108,
      "chip": "ym2612"
    },
    {
      "channel": 4,
      "note": 80,
      "start": 18.6085,
      "duration": 0.0161,
      "velocity": 98,
      "chip": "ym2612"
    },
    {
      "channel": 3,
      "note": 83,
      "start": 18.6097,
      "duration": 0.0161,
      "velocity": 98,
      "chip": "ym2612"
    },
    {
      "channel": 2,
      "note": 52,
      "start": 18.6109,
      "duration": 0.0161,
      "velocity": 93,
      "chip": "ym2612"
    },
    {
      "channel": 1,
      "note": 71,
      "start": 18.6121,
      "duration": 0.0161,
      "velocity": 108,
      "chip": "ym2612"
    },
    {
      "channel": 0,
      "note": 38,
      "start": 18.6224,
      "duration": 0.0161,
      "velocity": 115,
      "chip": "ym2612"
    },
    {
      "channel": 5,
      "note": 71,
      "start": 18.6235,
      "duration": 0.0161,
      "velocity": 108,
      "chip": "ym2612"
    },
    {
      "channel": 4,
      "note": 80,
      "start": 18.6246,
      "duration": 0.0161,
      "velocity": 98,
      "chip": "ym2612"
    },
    {
      "channel": 3,
      "note": 83,
      "start": 18.6259,
      "duration": 0.0161,
      "velocity": 98,
      "chip": "ym2612"
    },
    {
      "channel": 2,
      "note": 52,
      "start": 18.627,
      "duration": 0.0161,
      "velocity": 93,
      "chip": "ym2612"
    },
    {
      "channel": 1,
      "note": 71,
      "start": 18.6281,
      "duration": 0.0161,
      "velocity": 108,
      "chip": "ym2612"
    },
    {
      "channel": 0,
      "note": 39,
      "start": 18.6385,
      "duration": 0.0161,
      "velocity": 115,
      "chip": "ym2612"
    },
    {
      "channel": 5,
      "note": 71,
      "start": 18.6396,
      "duration": 0.0162,
      "velocity": 108,
      "chip": "ym2612"
    },
    {
      "channel": 4,
      "note": 80,
      "start": 18.6407,
      "duration": 0.0162,
      "velocity": 98,
      "chip": "ym2612"
    },
    {
      "channel": 3,
      "note": 83,
      "start": 18.642,
      "duration": 0.0161,
      "velocity": 98,
      "chip": "ym2612"
    },
    {
      "channel": 2,
      "note": 52,
      "start": 18.6431,
      "duration": 0.0161,
      "velocity": 93,
      "chip": "ym2612"
    },
    {
      "channel": 1,
      "note": 71,
      "start": 18.6442,
      "duration": 0.0161,
      "velocity": 108,
      "chip": "ym2612"
    },
    {
      "channel": 0,
      "note": 39,
      "start": 18.6546,
      "duration": 0.0161,
      "velocity": 115,
      "chip": "ym2612"
    },
    {
      "channel": 5,
      "note": 71,
      "start": 18.6558,
      "duration": 0.0162,
      "velocity": 108,
      "chip": "ym2612"
    },
    {
      "channel": 4,
      "note": 80,
      "start": 18.6569,
      "duration": 0.0161,
      "velocity": 98,
      "chip": "ym2612"
    },
    {
      "channel": 3,
      "note": 83,
      "start": 18.658,
      "duration": 0.0162,
      "velocity": 98,
      "chip": "ym2612"
    },
    {
      "channel": 2,
      "note": 52,
      "start": 18.6592,
      "duration": 0.0162,
      "velocity": 93,
      "chip": "ym2612"
    },
    {
      "channel": 1,
      "note": 71,
      "start": 18.6603,
      "duration": 0.0162,
      "velocity": 108,
      "chip": "ym2612"
    },
    {
      "channel": 0,
      "note": 40,
      "start": 18.6707,
      "duration": 0.0162,
      "velocity": 115,
      "chip": "ym2612"
    },
    {
      "channel": 5,
      "note": 71,
      "start": 18.6719,
      "duration": 0.0161,
      "velocity": 108,
      "chip": "ym2612"
    },
    {
      "channel": 4,
      "note": 80,
      "start": 18.6731,
      "duration": 0.0162,
      "velocity": 98,
      "chip": "ym2612"
    },
    {
      "channel": 3,
      "note": 83,
      "start": 18.6742,
      "duration": 0.0163,
      "velocity": 98,
      "chip": "ym2612"
    },
    {
      "channel": 2,
      "note": 52,
      "start": 18.6754,
      "duration": 0.0163,
      "velocity": 93,
      "chip": "ym2612"
    },
    {
      "channel": 1,
      "note": 71,
      "start": 18.6765,
      "duration": 0.0165,
      "velocity": 108,
      "chip": "ym2612"
    },
    {
      "channel": 0,
      "note": 40,
      "start": 18.6869,
      "duration": 0.0163,
      "velocity": 115,
      "chip": "ym2612"
    },
    {
      "channel": 5,
      "note": 71,
      "start": 18.688,
      "duration": 0.0164,
      "velocity": 108,
      "chip": "ym2612"
    },
    {
      "channel": 4,
      "note": 80,
      "start": 18.6893,
      "duration": 0.0163,
      "velocity": 98,
      "chip": "ym2612"
    },
    {
      "channel": 3,
      "note": 83,
      "start": 18.6905,
      "duration": 0.0163,
      "velocity": 98,
      "chip": "ym2612"
    },
    {
      "channel": 2,
      "note": 52,
      "start": 18.6917,
      "duration": 0.0163,
      "velocity": 93,
      "chip": "ym2612"
    },
    {
      "channel": 1,
      "note": 71,
      "start": 18.693,
      "duration": 0.0163,
      "velocity": 108,
      "chip": "ym2612"
    },
    {
      "channel": 0,
      "note": 40,
      "start": 18.7032,
      "duration": 0.0163,
      "velocity": 115,
      "chip": "ym2612"
    },
    {
      "channel": 5,
      "note": 71,
      "start": 18.7044,
      "duration": 0.0164,
      "velocity": 108,
      "chip": "ym2612"
    },
    {
      "channel": 4,
      "note": 80,
      "start": 18.7056,
      "duration": 0.0164,
      "velocity": 98,
      "chip": "ym2612"
    },
    {
      "channel": 3,
      "note": 83,
      "start": 18.7068,
      "duration": 0.0164,
      "velocity": 98,
      "chip": "ym2612"
    },
    {
      "channel": 2,
      "note": 52,
      "start": 18.708,
      "duration": 0.0164,
      "velocity": 93,
      "chip": "ym2612"
    },
    {
      "channel": 1,
      "note": 71,
      "start": 18.7093,
      "duration": 0.0164,
      "velocity": 108,
      "chip": "ym2612"
    },
    {
      "channel": 0,
      "note": 41,
      "start": 18.7196,
      "duration": 0.0161,
      "velocity": 115,
      "chip": "ym2612"
    },
    {
      "channel": 5,
      "note": 71,
      "start": 18.7208,
      "duration": 0.016,
      "velocity": 108,
      "chip": "ym2612"
    },
    {
      "channel": 4,
      "note": 80,
      "start": 18.722,
      "duration": 0.016,
      "velocity": 98,
      "chip": "ym2612"
    },
    {
      "channel": 3,
      "note": 83,
      "start": 18.7232,
      "duration": 0.0159,
      "velocity": 98,
      "chip": "ym2612"
    },
    {
      "channel": 2,
      "note": 52,
      "start": 18.7245,
      "duration": 0.0159,
      "velocity": 93,
      "chip": "ym2612"
    },
    {
      "channel": 1,
      "note": 71,
      "start": 18.7257,
      "duration": 0.0159,
      "velocity": 108,
      "chip": "ym2612"
    },
    {
      "channel": 0,
      "note": 41,
      "start": 18.7357,
      "duration": 0.016,
      "velocity": 115,
      "chip": "ym2612"
    },
    {
      "channel": 5,
      "note": 71,
      "start": 18.7369,
      "duration": 0.0161,
      "velocity": 108,
      "chip": "ym2612"
    },
    {
      "channel": 4,
      "note": 80,
      "start": 18.738,
      "duration": 0.0161,
      "velocity": 98,
      "chip": "ym2612"
    },
    {
      "channel": 3,
      "note": 83,
      "start": 18.7392,
      "duration": 0.0161,
      "velocity": 98,
      "chip": "ym2612"
    },
    {
      "channel": 2,
      "note": 52,
      "start": 18.7404,
      "duration": 0.016,
      "velocity": 93,
      "chip": "ym2612"
    },
    {
      "channel": 1,
      "note": 71,
      "start": 18.7415,
      "duration": 0.016,
      "velocity": 108,
      "chip": "ym2612"
    },
    {
      "channel": 0,
      "note": 42,
      "start": 18.7517,
      "duration": 0.0158,
      "velocity": 115,
      "chip": "ym2612"
    },
    {
      "channel": 5,
      "note": 71,
      "start": 18.753,
      "duration": 0.0161,
      "velocity": 108,
      "chip": "ym2612"
    },
    {
      "channel": 4,
      "note": 80,
      "start": 18.7541,
      "duration": 0.0161,
      "velocity": 98,
      "chip": "ym2612"
    },
    {
      "channel": 3,
      "note": 83,
      "start": 18.7553,
      "duration": 0.0161,
      "velocity": 98,
      "chip": "ym2612"
    },
    {
      "channel": 2,
      "note": 52,
      "start": 18.7564,
      "duration": 0.0161,
      "velocity": 93,
      "chip": "ym2612"
    },
    {
      "channel": 1,
      "note": 71,
      "start": 18.7576,
      "duration": 0.0161,
      "velocity": 108,
      "chip": "ym2612"
    },
    {
      "channel": 0,
      "note": 42,
      "start": 18.7675,
      "duration": 0.0159,
      "velocity": 115,
      "chip": "ym2612"
    },
    {
      "channel": 5,
      "note": 71,
      "start": 18.769,
      "duration": 0.016,
      "velocity": 108,
      "chip": "ym2612"
    },
    {
      "channel": 4,
      "note": 80,
      "start": 18.7702,
      "duration": 0.0161,
      "velocity": 98,
      "chip": "ym2612"
    },
    {
      "channel": 3,
      "note": 83,
      "start": 18.7713,
      "duration": 0.0161,
      "velocity": 98,
      "chip": "ym2612"
    },
    {
      "channel": 2,
      "note": 52,
      "start": 18.7725,
      "duration": 0.0161,
      "velocity": 93,
      "chip": "ym2612"
    },
    {
      "channel": 1,
      "note": 71,
      "start": 18.7736,
      "duration": 0.0162,
      "velocity": 108,
      "chip": "ym2612"
    },
    {
      "channel": 0,
      "note": 43,
      "start": 18.7834,
      "duration": 0.0161,
      "velocity": 115,
      "chip": "ym2612"
    },
    {
      "channel": 5,
      "note": 71,
      "start": 18.7851,
      "duration": 0.0158,
      "velocity": 108,
      "chip": "ym2612"
    },
    {
      "channel": 4,
      "note": 80,
      "start": 18.7863,
      "duration": 0.0161,
      "velocity": 98,
      "chip": "ym2612"
    },
    {
      "channel": 3,
      "note": 83,
      "start": 18.7874,
      "duration": 0.0162,
      "velocity": 98,
      "chip": "ym2612"
    },
    {
      "channel": 2,
      "note": 52,
      "start": 18.7886,
      "duration": 0.0163,
      "velocity": 93,
      "chip": "ym2612"
    },
    {
      "channel": 1,
      "note": 71,
      "start": 18.7898,
      "duration": 0.0163,
      "velocity": 108,
      "chip": "ym2612"
    },
    {
      "channel": 0,
      "note": 43,
      "start": 18.7995,
      "duration": 0.0161,
      "velocity": 115,
      "chip": "ym2612"
    },
    {
      "channel": 5,
      "note": 71,
      "start": 18.8009,
      "duration": 0.016,
      "velocity": 108,
      "chip": "ym2612"
    },
    {
      "channel": 4,
      "note": 80,
      "start": 18.8024,
      "duration": 0.0162,
      "velocity": 98,
      "chip": "ym2612"
    },
    {
      "channel": 3,
      "note": 83,
      "start": 18.8037,
      "duration": 0.0162,
      "velocity": 98,
      "chip": "ym2612"
    },
    {
      "channel": 2,
      "note": 52,
      "start": 18.8049,
      "duration": 0.0163,
      "velocity": 93,
      "chip": "ym2612"
    },
    {
      "channel": 1,
      "note": 71,
      "start": 18.8061,
      "duration": 0.0163,
      "velocity": 108,
      "chip": "ym2612"
    },
    {
      "channel": 0,
      "note": 44,
      "start": 18.8156,
      "duration": 0.0179,
      "velocity": 124,
      "chip": "ym2612"
    },
    {
      "channel": 5,
      "note": 71,
      "start": 18.8168,
      "duration": 0.0185,
      "velocity": 108,
      "chip": "ym2612"
    },
    {
      "channel": 2,
      "note": 52,
      "start": 18.8212,
      "duration": 0.0186,
      "velocity": 93,
      "chip": "ym2612"
    },
    {
      "channel": 0,
      "note": 84,
      "start": 18.8336,
      "duration": 0.0142,
      "velocity": 124,
      "chip": "ym2612"
    },
    {
      "channel": 5,
      "note": 71,
      "start": 18.8353,
      "duration": 0.0137,
      "velocity": 108,
      "chip": "ym2612"
    },
    {
      "channel": 4,
      "note": 80,
      "start": 18.8368,
      "duration": 0.0135,
      "velocity": 98,
      "chip": "ym2612"
    },
    {
      "channel": 3,
      "note": 83,
      "start": 18.8383,
      "duration": 0.0139,
      "velocity": 98,
      "chip": "ym2612"
    },
    {
      "channel": 2,
      "note": 52,
      "start": 18.8398,
      "duration": 0.0135,
      "velocity": 93,
      "chip": "ym2612"
    },
    {
      "channel": 1,
      "note": 71,
      "start": 18.8412,
      "duration": 0.0134,
      "velocity": 108,
      "chip": "ym2612"
    },
    {
      "channel": 0,
      "note": 82,
      "start": 18.8478,
      "duration": 0.0161,
      "velocity": 124,
      "chip": "ym2612"
    },
    {
      "channel": 4,
      "note": 80,
      "start": 18.8503,
      "duration": 0.0162,
      "velocity": 98,
      "chip": "ym2612"
    },
    {
      "channel": 3,
      "note": 83,
      "start": 18.8521,
      "duration": 0.016,
      "velocity": 98,
      "chip": "ym2612"
    },
    {
      "channel": 2,
      "note": 52,
      "start": 18.8533,
      "duration": 0.0161,
      "velocity": 93,
      "chip": "ym2612"
    },
    {
      "channel": 1,
      "note": 71,
      "start": 18.8546,
      "duration": 0.016,
      "velocity": 108,
      "chip": "ym2612"
    },
    {
      "channel": 0,
      "note": 80,
      "start": 18.8639,
      "duration": 0.0161,
      "velocity": 124,
      "chip": "ym2612"
    },
    {
      "channel": 5,
      "note": 71,
      "start": 18.8654,
      "duration": 0.0158,
      "velocity": 108,
      "chip": "ym2612"
    },
    {
      "channel": 4,
      "note": 80,
      "start": 18.8665,
      "duration": 0.0159,
      "velocity": 98,
      "chip": "ym2612"
    },
    {
      "channel": 3,
      "note": 83,
      "start": 18.8682,
      "duration": 0.0154,
      "velocity": 98,
      "chip": "ym2612"
    },
    {
      "channel": 2,
      "note": 52,
      "start": 18.8694,
      "duration": 0.0158,
      "velocity": 93,
      "chip": "ym2612"
    },
    {
      "channel": 1,
      "note": 71,
      "start": 18.8706,
      "duration": 0.0158,
      "velocity": 108,
      "chip": "ym2612"
    },
    {
      "channel": 0,
      "note": 77,
      "start": 18.88,
      "duration": 0.0161,
      "velocity": 124,
      "chip": "ym2612"
    },
    {
      "channel": 5,
      "note": 71,
      "start": 18.8812,
      "duration": 0.016,
      "velocity": 108,
      "chip": "ym2612"
    },
    {
      "channel": 4,
      "note": 80,
      "start": 18.8824,
      "duration": 0.016,
      "velocity": 98,
      "chip": "ym2612"
    },
    {
      "channel": 3,
      "note": 83,
      "start": 18.8836,
      "duration": 0.016,
      "velocity": 98,
      "chip": "ym2612"
    },
    {
      "channel": 2,
      "note": 52,
      "start": 18.8852,
      "duration": 0.0157,
      "velocity": 93,
      "chip": "ym2612"
    },
    {
      "channel": 1,
      "note": 71,
      "start": 18.8864,
      "duration": 0.016,
      "velocity": 108,
      "chip": "ym2612"
    },
    {
      "channel": 0,
      "note": 75,
      "start": 18.8961,
      "duration": 0.0161,
      "velocity": 124,
      "chip": "ym2612"
    },
    {
      "channel": 5,
      "note": 71,
      "start": 18.8972,
      "duration": 0.0161,
      "velocity": 108,
      "chip": "ym2612"
    },
    {
      "channel": 4,
      "note": 80,
      "start": 18.8984,
      "duration": 0.0161,
      "velocity": 98,
      "chip": "ym2612"
    },
    {
      "channel": 3,
      "note": 83,
      "start": 18.8996,
      "duration": 0.0161,
      "velocity": 98,
      "chip": "ym2612"
    },
    {
      "channel": 2,
      "note": 52,
      "start": 18.9009,
      "duration": 0.0159,
      "velocity": 93,
      "chip": "ym2612"
    },
    {
      "channel": 1,
      "note": 71,
      "start": 18.9024,
      "duration": 0.016,
      "velocity": 108,
      "chip": "ym2612"
    },
    {
      "channel": 0,
      "note": 72,
      "start": 18.9122,
      "duration": 0.0161,
      "velocity": 124,
      "chip": "ym2612"
    },
    {
      "channel": 5,
      "note": 71,
      "start": 18.9133,
      "duration": 0.0161,
      "velocity": 108,
      "chip": "ym2612"
    },
    {
      "channel": 4,
      "note": 80,
      "start": 18.9145,
      "duration": 0.0161,
      "velocity": 98,
      "chip": "ym2612"
    },
    {
      "channel": 3,
      "note": 83,
      "start": 18.9157,
      "duration": 0.0161,
      "velocity": 98,
      "chip": "ym2612"
    },
    {
      "channel": 2,
      "note": 52,
      "start": 18.9168,
      "duration": 0.0161,
      "velocity": 93,
      "chip": "ym2612"
    },
    {
      "channel": 1,
      "note": 71,
      "start": 18.9185,
      "duration": 0.0158,
      "velocity": 108,
      "chip": "ym2612"
    },
    {
      "channel": 0,
      "note": 70,
      "start": 18.9283,
      "duration": 0.0161,
      "velocity": 124,
      "chip": "ym2612"
    },
    {
      "channel": 5,
      "note": 71,
      "start": 18.9294,
      "duration": 0.0161,
      "velocity": 108,
      "chip": "ym2612"
    },
    {
      "channel": 4,
      "note": 80,
      "start": 18.9306,
      "duration": 0.0162,
      "velocity": 98,
      "chip": "ym2612"
    },
    {
      "channel": 3,
      "note": 83,
      "start": 18.9318,
      "duration": 0.0161,
      "velocity": 98,
      "chip": "ym2612"
    },
    {
      "channel": 2,
      "note": 52,
      "start": 18.9329,
      "duration": 0.0161,
      "velocity": 93,
      "chip": "ym2612"
    },
    {
      "channel": 1,
      "note": 71,
      "start": 18.9343,
      "duration": 0.0159,
      "velocity": 108,
      "chip": "ym2612"
    },
    {
      "channel": 0,
      "note": 68,
      "start": 18.9444,
      "duration": 0.0161,
      "velocity": 124,
      "chip": "ym2612"
    },
    {
      "channel": 5,
      "note": 71,
      "start": 18.9456,
      "duration": 0.0161,
      "velocity": 108,
      "chip": "ym2612"
    },
    {
      "channel": 4,
      "note": 80,
      "start": 18.9467,
      "duration": 0.0161,
      "velocity": 98,
      "chip": "ym2612"
    },
    {
      "channel": 3,
      "note": 83,
      "start": 18.9479,
      "duration": 0.0161,
      "velocity": 98,
      "chip": "ym2612"
    },
    {
      "channel": 2,
      "note": 52,
      "start": 18.949,
      "duration": 0.0161,
      "velocity": 93,
      "chip": "ym2612"
    },
    {
      "channel": 1,
      "note": 71,
      "start": 18.9502,
      "duration": 0.0161,
      "velocity": 108,
      "chip": "ym2612"
    },
    {
      "channel": 0,
      "note": 65,
      "start": 18.9605,
      "duration": 0.0161,
      "velocity": 124,
      "chip": "ym2612"
    },
    {
      "channel": 5,
      "note": 71,
      "start": 18.9617,
      "duration": 0.0161,
      "velocity": 108,
      "chip": "ym2612"
    },
    {
      "channel": 4,
      "note": 80,
      "start": 18.9628,
      "duration": 0.0162,
      "velocity": 98,
      "chip": "ym2612"
    },
    {
      "channel": 3,
      "note": 83,
      "start": 18.964,
      "duration": 0.0163,
      "velocity": 98,
      "chip": "ym2612"
    },
    {
      "channel": 2,
      "note": 52,
      "start": 18.9651,
      "duration": 0.0163,
      "velocity": 93,
      "chip": "ym2612"
    },
    {
      "channel": 1,
      "note": 71,
      "start": 18.9663,
      "duration": 0.0164,
      "velocity": 108,
      "chip": "ym2612"
    },
    {
      "channel": 0,
      "note": 63,
      "start": 18.9766,
      "duration": 0.0153,
      "velocity": 1,
      "chip": "ym2612"
    },
    {
      "channel": 5,
      "note": 71,
      "start": 18.9778,
      "duration": 0.0153,
      "velocity": 108,
      "chip": "ym2612"
    },
    {
      "channel": 4,
      "note": 80,
      "start": 18.979,
      "duration": 0.0153,
      "velocity": 98,
      "chip": "ym2612"
    },
    {
      "channel": 3,
      "note": 83,
      "start": 18.9802,
      "duration": 0.0152,
      "velocity": 98,
      "chip": "ym2612"
    },
    {
      "channel": 2,
      "note": 52,
      "start": 18.9815,
      "duration": 0.0152,
      "velocity": 93,
      "chip": "ym2612"
    },
    {
      "channel": 1,
      "note": 71,
      "start": 18.9827,
      "duration": 0.0152,
      "velocity": 108,
      "chip": "ym2612"
    },
    {
      "channel": 5,
      "note": 71,
      "start": 18.993,
      "duration": 0.0153,
      "velocity": 108,
      "chip": "ym2612"
    },
    {
      "channel": 4,
      "note": 80,
      "start": 18.9942,
      "duration": 0.0153,
      "velocity": 98,
      "chip": "ym2612"
    },
    {
      "channel": 3,
      "note": 83,
      "start": 18.9955,
      "duration": 0.0153,
      "velocity": 98,
      "chip": "ym2612"
    },
    {
      "channel": 2,
      "note": 52,
      "start": 18.9967,
      "duration": 0.0153,
      "velocity": 93,
      "chip": "ym2612"
    },
    {
      "channel": 1,
      "note": 71,
      "start": 18.9979,
      "duration": 0.0153,
      "velocity": 108,
      "chip": "ym2612"
    },
    {
      "channel": 5,
      "note": 71,
      "start": 19.0084,
      "duration": 0.0161,
      "velocity": 108,
      "chip": "ym2612"
    },
    {
      "channel": 4,
      "note": 80,
      "start": 19.0096,
      "duration": 0.016,
      "velocity": 98,
      "chip": "ym2612"
    },
    {
      "channel": 3,
      "note": 83,
      "start": 19.0108,
      "duration": 0.016,
      "velocity": 98,
      "chip": "ym2612"
    },
    {
      "channel": 2,
      "note": 52,
      "start": 19.012,
      "duration": 0.0159,
      "velocity": 93,
      "chip": "ym2612"
    },
    {
      "channel": 1,
      "note": 71,
      "start": 19.0132,
      "duration": 0.0159,
      "velocity": 108,
      "chip": "ym2612"
    },
    {
      "channel": 5,
      "note": 71,
      "start": 19.0245,
      "duration": 0.016,
      "velocity": 108,
      "chip": "ym2612"
    },
    {
      "channel": 4,
      "note": 80,
      "start": 19.0256,
      "duration": 0.016,
      "velocity": 98,
      "chip": "ym2612"
    },
    {
      "channel": 3,
      "note": 83,
      "start": 19.0268,
      "duration": 0.016,
      "velocity": 98,
      "chip": "ym2612"
    },
    {
      "channel": 2,
      "note": 52,
      "start": 19.0279,
      "duration": 0.016,
      "velocity": 93,
      "chip": "ym2612"
    },
    {
      "channel": 1,
      "note": 71,
      "start": 19.0291,
      "duration": 0.016,
      "velocity": 108,
      "chip": "ym2612"
    },
    {
      "channel": 5,
      "note": 71,
      "start": 19.0405,
      "duration": 0.0161,
      "velocity": 108,
      "chip": "ym2612"
    },
    {
      "channel": 4,
      "note": 80,
      "start": 19.0416,
      "duration": 0.0161,
      "velocity": 98,
      "chip": "ym2612"
    },
    {
      "channel": 3,
      "note": 83,
      "start": 19.0428,
      "duration": 0.0161,
      "velocity": 98,
      "chip": "ym2612"
    },
    {
      "channel": 2,
      "note": 52,
      "start": 19.0439,
      "duration": 0.0161,
      "velocity": 93,
      "chip": "ym2612"
    },
    {
      "channel": 1,
      "note": 71,
      "start": 19.0451,
      "duration": 0.0161,
      "velocity": 108,
      "chip": "ym2612"
    },
    {
      "channel": 5,
      "note": 71,
      "start": 19.0566,
      "duration": 0.0161,
      "velocity": 108,
      "chip": "ym2612"
    },
    {
      "channel": 4,
      "note": 80,
      "start": 19.0577,
      "duration": 0.0161,
      "velocity": 98,
      "chip": "ym2612"
    },
    {
      "channel": 3,
      "note": 83,
      "start": 19.0589,
      "duration": 0.0161,
      "velocity": 98,
      "chip": "ym2612"
    },
    {
      "channel": 2,
      "note": 52,
      "start": 19.06,
      "duration": 0.0162,
      "velocity": 93,
      "chip": "ym2612"
    },
    {
      "channel": 1,
      "note": 71,
      "start": 19.0612,
      "duration": 0.0161,
      "velocity": 108,
      "chip": "ym2612"
    },
    {
      "channel": 5,
      "note": 71,
      "start": 19.0727,
      "duration": 0.0161,
      "velocity": 108,
      "chip": "ym2612"
    },
    {
      "channel": 4,
      "note": 80,
      "start": 19.0738,
      "duration": 0.0161,
      "velocity": 98,
      "chip": "ym2612"
    },
    {
      "channel": 3,
      "note": 83,
      "start": 19.075,
      "duration": 0.0162,
      "velocity": 98,
      "chip": "ym2612"
    },
    {
      "channel": 2,
      "note": 52,
      "start": 19.0762,
      "duration": 0.0163,
      "velocity": 93,
      "chip": "ym2612"
    },
    {
      "channel": 1,
      "note": 71,
      "start": 19.0773,
      "duration": 0.0163,
      "velocity": 108,
      "chip": "ym2612"
    },
    {
      "channel": 5,
      "note": 71,
      "start": 19.0888,
      "duration": 0.0162,
      "velocity": 108,
      "chip": "ym2612"
    },
    {
      "channel": 4,
      "note": 80,
      "start": 19.09,
      "duration": 0.0162,
      "velocity": 98,
      "chip": "ym2612"
    },
    {
      "channel": 3,
      "note": 83,
      "start": 19.0912,
      "duration": 0.0162,
      "velocity": 98,
      "chip": "ym2612"
    },
    {
      "channel": 2,
      "note": 52,
      "start": 19.0925,
      "duration": 0.0162,
      "velocity": 93,
      "chip": "ym2612"
    },
    {
      "channel": 1,
      "note": 71,
      "start": 19.0937,
      "duration": 0.0163,
      "velocity": 108,
      "chip": "ym2612"
    },
    {
      "channel": 5,
      "note": 71,
      "start": 19.1049,
      "duration": 0.0196,
      "velocity": 108,
      "chip": "ym2612"
    },
    {
      "channel": 2,
      "note": 52,
      "start": 19.1087,
      "duration": 0.0204,
      "velocity": 93,
      "chip": "ym2612"
    },
    {
      "channel": 0,
      "note": 36,
      "start": 19.1233,
      "duration": 0.0143,
      "velocity": 115,
      "chip": "ym2612"
    },
    {
      "channel": 5,
      "note": 71,
      "start": 19.1246,
      "duration": 0.0143,
      "velocity": 108,
      "chip": "ym2612"
    },
    {
      "channel": 4,
      "note": 80,
      "start": 19.1261,
      "duration": 0.0141,
      "velocity": 98,
      "chip": "ym2612"
    },
    {
      "channel": 3,
      "note": 83,
      "start": 19.1276,
      "duration": 0.0137,
      "velocity": 98,
      "chip": "ym2612"
    },
    {
      "channel": 2,
      "note": 52,
      "start": 19.1292,
      "duration": 0.0134,
      "velocity": 93,
      "chip": "ym2612"
    },
    {
      "channel": 1,
      "note": 71,
      "start": 19.1306,
      "duration": 0.0132,
      "velocity": 108,
      "chip": "ym2612"
    },
    {
      "channel": 0,
      "note": 36,
      "start": 19.1376,
      "duration": 0.0161,
      "velocity": 115,
      "chip": "ym2612"
    },
    {
      "channel": 4,
      "note": 80,
      "start": 19.1402,
      "duration": 0.0162,
      "velocity": 98,
      "chip": "ym2612"
    },
    {
      "channel": 3,
      "note": 83,
      "start": 19.1414,
      "duration": 0.0162,
      "velocity": 98,
      "chip": "ym2612"
    },
    {
      "channel": 2,
      "note": 52,
      "start": 19.1426,
      "duration": 0.0161,
      "velocity": 93,
      "chip": "ym2612"
    },
    {
      "channel": 1,
      "note": 71,
      "start": 19.1438,
      "duration": 0.016,
      "velocity": 108,
      "chip": "ym2612"
    },
    {
      "channel": 0,
      "note": 37,
      "start": 19.1537,
      "duration": 0.0165,
      "velocity": 115,
      "chip": "ym2612"
    },
    {
      "channel": 5,
      "note": 71,
      "start": 19.1553,
      "duration": 0.0161,
      "velocity": 108,
      "chip": "ym2612"
    },
    {
      "channel": 4,
      "note": 80,
      "start": 19.1564,
      "duration": 0.0162,
      "velocity": 98,
      "chip": "ym2612"
    },
    {
      "channel": 3,
      "note": 83,
      "start": 19.1576,
      "duration": 0.0161,
      "velocity": 98,
      "chip": "ym2612"
    },
    {
      "channel": 2,
      "note": 52,
      "start": 19.1587,
      "duration": 0.0162,
      "velocity": 93,
      "chip": "ym2612"
    },
    {
      "channel": 1,
      "note": 71,
      "start": 19.1598,
      "duration": 0.0162,
      "velocity": 108,
      "chip": "ym2612"
    },
    {
      "channel": 0,
      "note": 37,
      "start": 19.1702,
      "duration": 0.0163,
      "velocity": 115,
      "chip": "ym2612"
    },
    {
      "channel": 5,
      "note": 71,
      "start": 19.1714,
      "duration": 0.0162,
      "velocity": 108,
      "chip": "ym2612"
    },
    {
      "channel": 4,
      "note": 80,
      "start": 19.1726,
      "duration": 0.0162,
      "velocity": 98,
      "chip": "ym2612"
    },
    {
      "channel": 3,
      "note": 83,
      "start": 19.1737,
      "duration": 0.0163,
      "velocity": 98,
      "chip": "ym2612"
    },
    {
      "channel": 2,
      "note": 52,
      "start": 19.1749,
      "duration": 0.0162,
      "velocity": 93,
      "chip": "ym2612"
    },
    {
      "channel": 1,
      "note": 71,
      "start": 19.1761,
      "duration": 0.0162,
      "velocity": 108,
      "chip": "ym2612"
    },
    {
      "channel": 0,
      "note": 38,
      "start": 19.1865,
      "duration": 0.0161,
      "velocity": 115,
      "chip": "ym2612"
    },
    {
      "channel": 5,
      "note": 71,
      "start": 19.1876,
      "duration": 0.0162,
      "velocity": 108,
      "chip": "ym2612"
    },
    {
      "channel": 4,
      "note": 80,
      "start": 19.1888,
      "duration": 0.0162,
      "velocity": 98,
      "chip": "ym2612"
    },
    {
      "channel": 3,
      "note": 83,
      "start": 19.19,
      "duration": 0.0161,
      "velocity": 98,
      "chip": "ym2612"
    },
    {
      "channel": 2,
      "note": 52,
      "start": 19.1911,
      "duration": 0.0161,
      "velocity": 93,
      "chip": "ym2612"
    },
    {
      "channel": 1,
      "note": 71,
      "start": 19.1923,
      "duration": 0.0161,
      "velocity": 108,
      "chip": "ym2612"
    },
    {
      "channel": 0,
      "note": 38,
      "start": 19.2026,
      "duration": 0.0161,
      "velocity": 115,
      "chip": "ym2612"
    },
    {
      "channel": 5,
      "note": 71,
      "start": 19.2038,
      "duration": 0.0161,
      "velocity": 108,
      "chip": "ym2612"
    },
    {
      "channel": 4,
      "note": 80,
      "start": 19.2049,
      "duration": 0.0161,
      "velocity": 98,
      "chip": "ym2612"
    },
    {
      "channel": 3,
      "note": 83,
      "start": 19.2061,
      "duration": 0.0161,
      "velocity": 98,
      "chip": "ym2612"
    },
    {
      "channel": 2,
      "note": 52,
      "start": 19.2072,
      "duration": 0.0161,
      "velocity": 93,
      "chip": "ym2612"
    },
    {
      "channel": 1,
      "note": 71,
      "start": 19.2084,
      "duration": 0.0162,
      "velocity": 108,
      "chip": "ym2612"
    },
    {
      "channel": 0,
      "note": 39,
      "start": 19.2187,
      "duration": 0.0157,
      "velocity": 115,
      "chip": "ym2612"
    },
    {
      "channel": 5,
      "note": 71,
      "start": 19.2199,
      "duration": 0.0161,
      "velocity": 108,
      "chip": "ym2612"
    },
    {
      "channel": 4,
      "note": 80,
      "start": 19.221,
      "duration": 0.0161,
      "velocity": 98,
      "chip": "ym2612"
    },
    {
      "channel": 3,
      "note": 83,
      "start": 19.2222,
      "duration": 0.0161,
      "velocity": 98,
      "chip": "ym2612"
    },
    {
      "channel": 2,
      "note": 52,
      "start": 19.2233,
      "duration": 0.0162,
      "velocity": 93,
      "chip": "ym2612"
    },
    {
      "channel": 1,
      "note": 71,
      "start": 19.2245,
      "duration": 0.0161,
      "velocity": 108,
      "chip": "ym2612"
    },
    {
      "channel": 0,
      "note": 39,
      "start": 19.2344,
      "duration": 0.0159,
      "velocity": 115,
      "chip": "ym2612"
    },
    {
      "channel": 5,
      "note": 71,
      "start": 19.236,
      "duration": 0.016,
      "velocity": 108,
      "chip": "ym2612"
    },
    {
      "channel": 4,
      "note": 80,
      "start": 19.2371,
      "duration": 0.0161,
      "velocity": 98,
      "chip": "ym2612"
    },
    {
      "channel": 3,
      "note": 83,
      "start": 19.2383,
      "duration": 0.0161,
      "velocity": 98,
      "chip": "ym2612"
    },
    {
      "channel": 2,
      "note": 52,
      "start": 19.2395,
      "duration": 0.016,
      "velocity": 93,
      "chip": "ym2612"
    },
    {
      "channel": 1,
      "note": 71,
      "start": 19.2406,
      "duration": 0.0161,
      "velocity": 108,
      "chip": "ym2612"
    },
    {
      "channel": 0,
      "note": 40,
      "start": 19.2503,
      "duration": 0.0161,
      "velocity": 115,
      "chip": "ym2612"
    },
    {
      "channel": 5,
      "note": 71,
      "start": 19.252,
      "duration": 0.0161,
      "velocity": 108,
      "chip": "ym2612"
    },
    {
      "channel": 4,
      "note": 80,
      "start": 19.2532,
      "duration": 0.0162,
      "velocity": 98,
      "chip": "ym2612"
    },
    {
      "channel": 3,
      "note": 83,
      "start": 19.2544,
      "duration": 0.0163,
      "velocity": 98,
      "chip": "ym2612"
    },
    {
      "channel": 2,
      "note": 52,
      "start": 19.2555,
      "duration": 0.0163,
      "velocity": 93,
      "chip": "ym2612"
    },
    {
      "channel": 1,
      "note": 71,
      "start": 19.2567,
      "duration": 0.0164,
      "velocity": 108,
      "chip": "ym2612"
    },
    {
      "channel": 0,
      "note": 40,
      "start": 19.2664,
      "duration": 0.0161,
      "velocity": 115,
      "chip": "ym2612"
    },
    {
      "channel": 5,
      "note": 71,
      "start": 19.2681,
      "duration": 0.0156,
      "velocity": 108,
      "chip": "ym2612"
    },
    {
      "channel": 4,
      "note": 80,
      "start": 19.2694,
      "duration": 0.016,
      "velocity": 98,
      "chip": "ym2612"
    },
    {
      "channel": 3,
      "note": 83,
      "start": 19.2706,
      "duration": 0.016,
      "velocity": 98,
      "chip": "ym2612"
    },
    {
      "channel": 2,
      "note": 52,
      "start": 19.2719,
      "duration": 0.016,
      "velocity": 93,
      "chip": "ym2612"
    },
    {
      "channel": 1,
      "note": 71,
      "start": 19.2731,
      "duration": 0.016,
      "velocity": 108,
      "chip": "ym2612"
    },
    {
      "channel": 0,
      "note": 40,
      "start": 19.2825,
      "duration": 0.0161,
      "velocity": 115,
      "chip": "ym2612"
    },
    {
      "channel": 5,
      "note": 71,
      "start": 19.2837,
      "duration": 0.0161,
      "velocity": 108,
      "chip": "ym2612"
    },
    {
      "channel": 4,
      "note": 80,
      "start": 19.2855,
      "duration": 0.0162,
      "velocity": 98,
      "chip": "ym2612"
    },
    {
      "channel": 3,
      "note": 83,
      "start": 19.2867,
      "duration": 0.0162,
      "velocity": 98,
      "chip": "ym2612"
    },
    {
      "channel": 2,
      "note": 52,
      "start": 19.2879,
      "duration": 0.0162,
      "velocity": 93,
      "chip": "ym2612"
    },
    {
      "channel": 1,
      "note": 71,
      "start": 19.2891,
      "duration": 0.0162,
      "velocity": 108,
      "chip": "ym2612"
    },
    {
      "channel": 0,
      "note": 41,
      "start": 19.2986,
      "duration": 0.0162,
      "velocity": 115,
      "chip": "ym2612"
    },
    {
      "channel": 5,
      "note": 71,
      "start": 19.2998,
      "duration": 0.0161,
      "velocity": 108,
      "chip": "ym2612"
    },
    {
      "channel": 4,
      "note": 80,
      "start": 19.3016,
      "duration": 0.0154,
      "velocity": 98,
      "chip": "ym2612"
    },
    {
      "channel": 3,
      "note": 83,
      "start": 19.3029,
      "duration": 0.0159,
      "velocity": 98,
      "chip": "ym2612"
    },
    {
      "channel": 2,
      "note": 52,
      "start": 19.3041,
      "duration": 0.0159,
      "velocity": 93,
      "chip": "ym2612"
    },
    {
      "channel": 1,
      "note": 71,
      "start": 19.3053,
      "duration": 0.0159,
      "velocity": 108,
      "chip": "ym2612"
    },
    {
      "channel": 0,
      "note": 41,
      "start": 19.3147,
      "duration": 0.0161,
      "velocity": 115,
      "chip": "ym2612"
    },
    {
      "channel": 5,
      "note": 71,
      "start": 19.3159,
      "duration": 0.016,
      "velocity": 108,
      "chip": "ym2612"
    },
    {
      "channel": 4,
      "note": 80,
      "start": 19.3171,
      "duration": 0.016,
      "velocity": 98,
      "chip": "ym2612"
    },
    {
      "channel": 3,
      "note": 83,
      "start": 19.3188,
      "duration": 0.016,
      "velocity": 98,
      "chip": "ym2612"
    },
    {
      "channel": 2,
      "note": 52,
      "start": 19.32,
      "duration": 0.016,
      "velocity": 93,
      "chip": "ym2612"
    },
    {
      "channel": 1,
      "note": 71,
      "start": 19.3212,
      "duration": 0.016,
      "velocity": 108,
      "chip": "ym2612"
    },
    {
      "channel": 0,
      "note": 42,
      "start": 19.3308,
      "duration": 0.0161,
      "velocity": 115,
      "chip": "ym2612"
    },
    {
      "channel": 5,
      "note": 71,
      "start": 19.332,
      "duration": 0.0161,
      "velocity": 108,
      "chip": "ym2612"
    },
    {
      "channel": 4,
      "note": 80,
      "start": 19.3331,
      "duration": 0.0161,
      "velocity": 98,
      "chip": "ym2612"
    },
    {
      "channel": 3,
      "note": 83,
      "start": 19.3348,
      "duration": 0.0155,
      "velocity": 98,
      "chip": "ym2612"
    },
    {
      "channel": 2,
      "note": 52,
      "start": 19.336,
      "duration": 0.0161,
      "velocity": 93,
      "chip": "ym2612"
    },
    {
      "channel": 1,
      "note": 71,
      "start": 19.3372,
      "duration": 0.0161,
      "velocity": 108,
      "chip": "ym2612"
    },
    {
      "channel": 0,
      "note": 42,
      "start": 19.3469,
      "duration": 0.0161,
      "velocity": 115,
      "chip": "ym2612"
    },
    {
      "channel": 5,
      "note": 71,
      "start": 19.3481,
      "duration": 0.0161,
      "velocity": 108,
      "chip": "ym2612"
    },
    {
      "channel": 4,
      "note": 80,
      "start": 19.3492,
      "duration": 0.0161,
      "velocity": 98,
      "chip": "ym2612"
    },
    {
      "channel": 3,
      "note": 83,
      "start": 19.3504,
      "duration": 0.0161,
      "velocity": 98,
      "chip": "ym2612"
    },
    {
      "channel": 2,
      "note": 52,
      "start": 19.3521,
      "duration": 0.016,
      "velocity": 93,
      "chip": "ym2612"
    },
    {
      "channel": 1,
      "note": 71,
      "start": 19.3533,
      "duration": 0.016,
      "velocity": 108,
      "chip": "ym2612"
    },
    {
      "channel": 0,
      "note": 43,
      "start": 19.363,
      "duration": 0.0161,
      "velocity": 115,
      "chip": "ym2612"
    },
    {
      "channel": 5,
      "note": 71,
      "start": 19.3641,
      "duration": 0.0161,
      "velocity": 108,
      "chip": "ym2612"
    },
    {
      "channel": 4,
      "note": 80,
      "start": 19.3653,
      "duration": 0.0161,
      "velocity": 98,
      "chip": "ym2612"
    },
    {
      "channel": 3,
      "note": 83,
      "start": 19.3665,
      "duration": 0.0162,
      "velocity": 98,
      "chip": "ym2612"
    },
    {
      "channel": 2,
      "note": 52,
      "start": 19.3682,
      "duration": 0.016,
      "velocity": 93,
      "chip": "ym2612"
    },
    {
      "channel": 1,
      "note": 71,
      "start": 19.3694,
      "duration": 0.0164,
      "velocity": 108,
      "chip": "ym2612"
    },
    {
      "channel": 0,
      "note": 43,
      "start": 19.3791,
      "duration": 0.0161,
      "velocity": 115,
      "chip": "ym2612"
    },
    {
      "channel": 5,
      "note": 71,
      "start": 19.3802,
      "duration": 0.0162,
      "velocity": 108,
      "chip": "ym2612"
    },
    {
      "channel": 4,
      "note": 80,
      "start": 19.3815,
      "duration": 0.0162,
      "velocity": 98,
      "chip": "ym2612"
    },
    {
      "channel": 3,
      "note": 83,
      "start": 19.3827,
      "duration": 0.0162,
      "velocity": 98,
      "chip": "ym2612"
    },
    {
      "channel": 2,
      "note": 52,
      "start": 19.3841,
      "duration": 0.0161,
      "velocity": 93,
      "chip": "ym2612"
    },
    {
      "channel": 1,
      "note": 71,
      "start": 19.3858,
      "duration": 0.0162,
      "velocity": 108,
      "chip": "ym2612"
    },
    {
      "channel": 0,
      "note": 44,
      "start": 19.3952,
      "duration": 0.0179,
      "velocity": 124,
      "chip": "ym2612"
    },
    {
      "channel": 5,
      "note": 71,
      "start": 19.3965,
      "duration": 0.018,
      "velocity": 108,
      "chip": "ym2612"
    },
    {
      "channel": 2,
      "note": 52,
      "start": 19.4002,
      "duration": 0.0193,
      "velocity": 93,
      "chip": "ym2612"
    },
    {
      "channel": 0,
      "note": 84,
      "start": 19.4132,
      "duration": 0.0143,
      "velocity": 124,
      "chip": "ym2612"
    },
    {
      "channel": 5,
      "note": 71,
      "start": 19.4144,
      "duration": 0.0143,
      "velocity": 108,
      "chip": "ym2612"
    },
    {
      "channel": 4,
      "note": 80,
      "start": 19.4159,
      "duration": 0.014,
      "velocity": 98,
      "chip": "ym2612"
    },
    {
      "channel": 3,
      "note": 83,
      "start": 19.4177,
      "duration": 0.0135,
      "velocity": 98,
      "chip": "ym2612"
    },
    {
      "channel": 2,
      "note": 52,
      "start": 19.4196,
      "duration": 0.0128,
      "velocity": 93,
      "chip": "ym2612"
    },
    {
      "channel": 1,
      "note": 68,
      "start": 19.421,
      "duration": 0.0126,
      "velocity": 108,
      "chip": "ym2612"
    },
    {
      "channel": 0,
      "note": 82,
      "start": 19.4275,
      "duration": 0.0161,
      "velocity": 124,
      "chip": "ym2612"
    },
    {
      "channel": 4,
      "note": 80,
      "start": 19.4299,
      "duration": 0.0162,
      "velocity": 98,
      "chip": "ym2612"
    },
    {
      "channel": 3,
      "note": 83,
      "start": 19.4312,
      "duration": 0.0162,
      "velocity": 98,
      "chip": "ym2612"
    },
    {
      "channel": 2,
      "note": 52,
      "start": 19.4324,
      "duration": 0.0161,
      "velocity": 93,
      "chip": "ym2612"
    },
    {
      "channel": 1,
      "note": 68,
      "start": 19.4336,
      "duration": 0.016,
      "velocity": 108,
      "chip": "ym2612"
    },
    {
      "channel": 0,
      "note": 80,
      "start": 19.4435,
      "duration": 0.0161,
      "velocity": 124,
      "chip": "ym2612"
    },
    {
      "channel": 5,
      "note": 68,
      "start": 19.445,
      "duration": 0.0158,
      "velocity": 108,
      "chip": "ym2612"
    },
    {
      "channel": 4,
      "note": 80,
      "start": 19.4461,
      "duration": 0.0159,
      "velocity": 98,
      "chip": "ym2612"
    },
    {
      "channel": 3,
      "note": 83,
      "start": 19.4474,
      "duration": 0.0158,
      "velocity": 98,
      "chip": "ym2612"
    },
    {
      "channel": 2,
      "note": 52,
      "start": 19.4485,
      "duration": 0.0159,
      "velocity": 93,
      "chip": "ym2612"
    },
    {
      "channel": 1,
      "note": 68,
      "start": 19.4497,
      "duration": 0.0158,
      "velocity": 108,
      "chip": "ym2612"
    },
    {
      "channel": 0,
      "note": 77,
      "start": 19.4596,
      "duration": 0.0161,
      "velocity": 124,
      "chip": "ym2612"
    },
    {
      "channel": 5,
      "note": 68,
      "start": 19.4608,
      "duration": 0.016,
      "velocity": 108,
      "chip": "ym2612"
    },
    {
      "channel": 4,
      "note": 80,
      "start": 19.462,
      "duration": 0.016,
      "velocity": 98,
      "chip": "ym2612"
    },
    {
      "channel": 3,
      "note": 83,
      "start": 19.4631,
      "duration": 0.016,
      "velocity": 98,
      "chip": "ym2612"
    },
    {
      "channel": 2,
      "note": 52,
      "start": 19.4644,
      "duration": 0.016,
      "velocity": 93,
      "chip": "ym2612"
    },
    {
      "channel": 1,
      "note": 68,
      "start": 19.4655,
      "duration": 0.016,
      "velocity": 108,
      "chip": "ym2612"
    },
    {
      "channel": 0,
      "note": 75,
      "start": 19.4757,
      "duration": 0.0161,
      "velocity": 124,
      "chip": "ym2612"
    },
    {
      "channel": 5,
      "note": 68,
      "start": 19.4769,
      "duration": 0.0161,
      "velocity": 108,
      "chip": "ym2612"
    },
    {
      "channel": 4,
      "note": 80,
      "start": 19.478,
      "duration": 0.0161,
      "velocity": 98,
      "chip": "ym2612"
    },
    {
      "channel": 3,
      "note": 83,
      "start": 19.4792,
      "duration": 0.0162,
      "velocity": 98,
      "chip": "ym2612"
    },
    {
      "channel": 2,
      "note": 52,
      "start": 19.4804,
      "duration": 0.0161,
      "velocity": 93,
      "chip": "ym2612"
    },
    {
      "channel": 1,
      "note": 68,
      "start": 19.4815,
      "duration": 0.0161,
      "velocity": 108,
      "chip": "ym2612"
    },
    {
      "channel": 0,
      "note": 72,
      "start": 19.4918,
      "duration": 0.0161,
      "velocity": 124,
      "chip": "ym2612"
    },
    {
      "channel": 5,
      "note": 68,
      "start": 19.493,
      "duration": 0.0161,
      "velocity": 108,
      "chip": "ym2612"
    },
    {
      "channel": 4,
      "note": 80,
      "start": 19.4941,
      "duration": 0.0161,
      "velocity": 98,
      "chip": "ym2612"
    },
    {
      "channel": 3,
      "note": 83,
      "start": 19.4953,
      "duration": 0.0161,
      "velocity": 98,
      "chip": "ym2612"
    },
    {
      "channel": 2,
      "note": 52,
      "start": 19.4965,
      "duration": 0.0161,
      "velocity": 93,
      "chip": "ym2612"
    },
    {
      "channel": 1,
      "note": 68,
      "start": 19.4976,
      "duration": 0.0161,
      "velocity": 108,
      "chip": "ym2612"
    },
    {
      "channel": 0,
      "note": 70,
      "start": 19.5079,
      "duration": 0.0161,
      "velocity": 124,
      "chip": "ym2612"
    },
    {
      "channel": 5,
      "note": 68,
      "start": 19.5091,
      "duration": 0.0161,
      "velocity": 108,
      "chip": "ym2612"
    },
    {
      "channel": 4,
      "note": 80,
      "start": 19.5102,
      "duration": 0.0161,
      "velocity": 98,
      "chip": "ym2612"
    },
    {
      "channel": 3,
      "note": 83,
      "start": 19.5114,
      "duration": 0.016,
      "velocity": 98,
      "chip": "ym2612"
    },
    {
      "channel": 2,
      "note": 52,
      "start": 19.5126,
      "duration": 0.0161,
      "velocity": 93,
      "chip": "ym2612"
    },
    {
      "channel": 1,
      "note": 68,
      "start": 19.5137,
      "duration": 0.0161,
      "velocity": 108,
      "chip": "ym2612"
    },
    {
      "channel": 0,
      "note": 68,
      "start": 19.524,
      "duration": 0.0161,
      "velocity": 124,
      "chip": "ym2612"
    },
    {
      "channel": 5,
      "note": 68,
      "start": 19.5252,
      "duration": 0.0161,
      "velocity": 108,
      "chip": "ym2612"
    },
    {
      "channel": 4,
      "note": 80,
      "start": 19.5263,
      "duration": 0.0162,
      "velocity": 98,
      "chip": "ym2612"
    },
    {
      "channel": 3,
      "note": 83,
      "start": 19.5275,
      "duration": 0.0161,
      "velocity": 98,
      "chip": "ym2612"
    },
    {
      "channel": 2,
      "note": 52,
      "start": 19.5287,
      "duration": 0.0161,
      "velocity": 93,
      "chip": "ym2612"
    },
    {
      "channel": 1,
      "note": 68,
      "start": 19.5298,
      "duration": 0.0161,
      "velocity": 108,
      "chip": "ym2612"
    },
    {
      "channel": 0,
      "note": 65,
      "start": 19.5401,
      "duration": 0.0161,
      "velocity": 124,
      "chip": "ym2612"
    },
    {
      "channel": 5,
      "note": 68,
      "start": 19.5413,
      "duration": 0.0161,
      "velocity": 108,
      "chip": "ym2612"
    },
    {
      "channel": 4,
      "note": 80,
      "start": 19.5425,
      "duration": 0.0161,
      "velocity": 98,
      "chip": "ym2612"
    },
    {
      "channel": 3,
      "note": 83,
      "start": 19.5436,
      "duration": 0.0162,
      "velocity": 98,
      "chip": "ym2612"
    },
    {
      "channel": 2,
      "note": 52,
      "start": 19.5448,
      "duration": 0.0163,
      "velocity": 93,
      "chip": "ym2612"
    },
    {
      "channel": 1,
      "note": 68,
      "start": 19.5459,
      "duration": 0.0163,
      "velocity": 108,
      "chip": "ym2612"
    },
    {
      "channel": 0,
      "note": 63,
      "start": 19.5562,
      "duration": 0.0153,
      "velocity": 1,
      "chip": "ym2612"
    },
    {
      "channel": 5,
      "note": 68,
      "start": 19.5574,
      "duration": 0.0153,
      "velocity": 108,
      "chip": "ym2612"
    },
    {
      "channel": 4,
      "note": 80,
      "start": 19.5586,
      "duration": 0.0153,
      "velocity": 98,
      "chip": "ym2612"
    },
    {
      "channel": 3,
      "note": 83,
      "start": 19.5598,
      "duration": 0.0153,
      "velocity": 98,
      "chip": "ym2612"
    },
    {
      "channel": 2,
      "note": 52,
      "start": 19.5611,
      "duration": 0.0152,
      "velocity": 93,
      "chip": "ym2612"
    },
    {
      "channel": 1,
      "note": 68,
      "start": 19.5622,
      "duration": 0.0152,
      "velocity": 108,
      "chip": "ym2612"
    },
    {
      "channel": 5,
      "note": 68,
      "start": 19.5727,
      "duration": 0.0152,
      "velocity": 108,
      "chip": "ym2612"
    },
    {
      "channel": 4,
      "note": 80,
      "start": 19.5739,
      "duration": 0.0153,
      "velocity": 98,
      "chip": "ym2612"
    },
    {
      "channel": 3,
      "note": 83,
      "start": 19.5751,
      "duration": 0.0153,
      "velocity": 98,
      "chip": "ym2612"
    },
    {
      "channel": 2,
      "note": 52,
      "start": 19.5763,
      "duration": 0.0153,
      "velocity": 93,
      "chip": "ym2612"
    },
    {
      "channel": 1,
      "note": 68,
      "start": 19.5775,
      "duration": 0.0153,
      "velocity": 108,
      "chip": "ym2612"
    },
    {
      "channel": 5,
      "note": 68,
      "start": 19.5879,
      "duration": 0.0197,
      "velocity": 108,
      "chip": "ym2612"
    },
    {
      "channel": 4,
      "note": 80,
      "start": 19.5892,
      "duration": 0.0195,
      "velocity": 98,
      "chip": "ym2612"
    },
    {
      "channel": 3,
      "note": 83,
      "start": 19.5904,
      "duration": 0.0195,
      "velocity": 98,
      "chip": "ym2612"
    },
    {
      "channel": 2,
      "note": 52,
      "start": 19.5916,
      "duration": 0.0195,
      "velocity": 93,
      "chip": "ym2612"
    },
    {
      "channel": 0,
      "note": 36,
      "start": 19.6064,
      "duration": 0.0144,
      "velocity": 115,
      "chip": "ym2612"
    },
    {
      "channel": 5,
      "note": 68,
      "start": 19.6076,
      "duration": 0.0144,
      "velocity": 108,
      "chip": "ym2612"
    },
    {
      "channel": 4,
      "note": 80,
      "start": 19.6087,
      "duration": 0.0144,
      "velocity": 98,
      "chip": "ym2612"
    },
    {
      "channel": 3,
      "note": 83,
      "start": 19.6098,
      "duration": 0.0144,
      "velocity": 98,
      "chip": "ym2612"
    },
    {
      "channel": 2,
      "note": 52,
      "start": 19.611,
      "duration": 0.0144,
      "velocity": 93,
      "chip": "ym2612"
    },
    {
      "channel": 1,
      "note": 71,
      "start": 19.6125,
      "duration": 0.0141,
      "velocity": 108,
      "chip": "ym2612"
    },
    {
      "channel": 0,
      "note": 36,
      "start": 19.6208,
      "duration": 0.0161,
      "velocity": 115,
      "chip": "ym2612"
    },
    {
      "channel": 4,
      "note": 80,
      "start": 19.6231,
      "duration": 0.0165,
      "velocity": 98,
      "chip": "ym2612"
    },
    {
      "channel": 3,
      "note": 83,
      "start": 19.6243,
      "duration": 0.0164,
      "velocity": 98,
      "chip": "ym2612"
    },
    {
      "channel": 2,
      "note": 52,
      "start": 19.6254,
      "duration": 0.0164,
      "velocity": 93,
      "chip": "ym2612"
    },
    {
      "channel": 1,
      "note": 71,
      "start": 19.6266,
      "duration": 0.0163,
      "velocity": 108,
      "chip": "ym2612"
    },
    {
      "channel": 0,
      "note": 37,
      "start": 19.6369,
      "duration": 0.0163,
      "velocity": 115,
      "chip": "ym2612"
    },
    {
      "channel": 5,
      "note": 71,
      "start": 19.6384,
      "duration": 0.016,
      "velocity": 108,
      "chip": "ym2612"
    },
    {
      "channel": 4,
      "note": 80,
      "start": 19.6395,
      "duration": 0.016,
      "velocity": 98,
      "chip": "ym2612"
    },
    {
      "channel": 3,
      "note": 83,
      "start": 19.6407,
      "duration": 0.0161,
      "velocity": 98,
      "chip": "ym2612"
    },
    {
      "channel": 2,
      "note": 52,
      "start": 19.6418,
      "duration": 0.0161,
      "velocity": 93,
      "chip": "ym2612"
    },
    {
      "channel": 1,
      "note": 71,
      "start": 19.643,
      "duration": 0.0161,
      "velocity": 108,
      "chip": "ym2612"
    },
    {
      "channel": 0,
      "note": 37,
      "start": 19.6532,
      "duration": 0.0163,
      "velocity": 115,
      "chip": "ym2612"
    },
    {
      "channel": 5,
      "note": 71,
      "start": 19.6544,
      "duration": 0.0163,
      "velocity": 108,
      "chip": "ym2612"
    },
    {
      "channel": 4,
      "note": 80,
      "start": 19.6556,
      "duration": 0.0163,
      "velocity": 98,
      "chip": "ym2612"
    },
    {
      "channel": 3,
      "note": 83,
      "start": 19.6568,
      "duration": 0.0163,
      "velocity": 98,
      "chip": "ym2612"
    },
    {
      "channel": 2,
      "note": 52,
      "start": 19.6579,
      "duration": 0.0164,
      "velocity": 93,
      "chip": "ym2612"
    },
    {
      "channel": 1,
      "note": 71,
      "start": 19.6591,
      "duration": 0.0164,
      "velocity": 108,
      "chip": "ym2612"
    },
    {
      "channel": 0,
      "note": 38,
      "start": 19.6695,
      "duration": 0.0162,
      "velocity": 115,
      "chip": "ym2612"
    },
    {
      "channel": 5,
      "note": 71,
      "start": 19.6707,
      "duration": 0.0161,
      "velocity": 108,
      "chip": "ym2612"
    },
    {
      "channel": 4,
      "note": 80,
      "start": 19.6719,
      "duration": 0.0161,
      "velocity": 98,
      "chip": "ym2612"
    },
    {
      "channel": 3,
      "note": 83,
      "start": 19.6731,
      "duration": 0.0161,
      "velocity": 98,
      "chip": "ym2612"
    },
    {
      "channel": 2,
      "note": 52,
      "start": 19.6743,
      "duration": 0.0162,
      "velocity": 93,
      "chip": "ym2612"
    },
    {
      "channel": 1,
      "note": 71,
      "start": 19.6755,
      "duration": 0.0162,
      "velocity": 108,
      "chip": "ym2612"
    },
    {
      "channel": 0,
      "note": 38,
      "start": 19.6857,
      "duration": 0.016,
      "velocity": 115,
      "chip": "ym2612"
    },
    {
      "channel": 5,
      "note": 71,
      "start": 19.6868,
      "duration": 0.0161,
      "velocity": 108,
      "chip": "ym2612"
    },
    {
      "channel": 2,
      "note": 52,
      "start": 19.6906,
      "duration": 0.0168,
      "velocity": 93,
      "chip": "ym2612"
    },
    {
      "channel": 1,
      "note": 71,
      "start": 19.6917,
      "duration": 0.017,
      "velocity": 108,
      "chip": "ym2612"
    },
    {
      "channel": 0,
      "note": 39,
      "start": 19.7017,
      "duration": 0.0155,
      "velocity": 115,
      "chip": "ym2612"
    },
    {
      "channel": 5,
      "note": 71,
      "start": 19.7029,
      "duration": 0.016,
      "velocity": 108,
      "chip": "ym2612"
    },
    {
      "channel": 4,
      "note": 80,
      "start": 19.7044,
      "duration": 0.0158,
      "velocity": 98,
      "chip": "ym2612"
    },
    {
      "channel": 3,
      "note": 83,
      "start": 19.7059,
      "duration": 0.0155,
      "velocity": 98,
      "chip": "ym2612"
    },
    {
      "channel": 2,
      "note": 52,
      "start": 19.7075,
      "duration": 0.0152,
      "velocity": 93,
      "chip": "ym2612"
    },
    {
      "channel": 1,
      "note": 71,
      "start": 19.7087,
      "duration": 0.0152,
      "velocity": 108,
      "chip": "ym2612"
    },
    {
      "channel": 0,
      "note": 39,
      "start": 19.7172,
      "duration": 0.0161,
      "velocity": 115,
      "chip": "ym2612"
    },
    {
      "channel": 5,
      "note": 71,
      "start": 19.7189,
      "duration": 0.0161,
      "velocity": 108,
      "chip": "ym2612"
    },
    {
      "channel": 4,
      "note": 80,
      "start": 19.7202,
      "duration": 0.0161,
      "velocity": 98,
      "chip": "ym2612"
    },
    {
      "channel": 3,
      "note": 83,
      "start": 19.7214,
      "duration": 0.0161,
      "velocity": 98,
      "chip": "ym2612"
    },
    {
      "channel": 2,
      "note": 52,
      "start": 19.7227,
      "duration": 0.016,
      "velocity": 93,
      "chip": "ym2612"
    },
    {
      "channel": 1,
      "note": 71,
      "start": 19.7239,
      "duration": 0.016,
      "velocity": 108,
      "chip": "ym2612"
    },
    {
      "channel": 0,
      "note": 40,
      "start": 19.7333,
      "duration": 0.0161,
      "velocity": 115,
      "chip": "ym2612"
    },
    {
      "channel": 5,
      "note": 71,
      "start": 19.7351,
      "duration": 0.0158,
      "velocity": 108,
      "chip": "ym2612"
    },
    {
      "channel": 4,
      "note": 80,
      "start": 19.7363,
      "duration": 0.0161,
      "velocity": 98,
      "chip": "ym2612"
    },
    {
      "channel": 3,
      "note": 83,
      "start": 19.7375,
      "duration": 0.0161,
      "velocity": 98,
      "chip": "ym2612"
    },
    {
      "channel": 2,
      "note": 52,
      "start": 19.7386,
      "duration": 0.0161,
      "velocity": 93,
      "chip": "ym2612"
    },
    {
      "channel": 1,
      "note": 71,
      "start": 19.7399,
      "duration": 0.016,
      "velocity": 108,
      "chip": "ym2612"
    },
    {
      "channel": 0,
      "note": 40,
      "start": 19.7495,
      "duration": 0.0161,
      "velocity": 115,
      "chip": "ym2612"
    },
    {
      "channel": 5,
      "note": 71,
      "start": 19.7509,
      "duration": 0.0159,
      "velocity": 108,
      "chip": "ym2612"
    },
    {
      "channel": 4,
      "note": 80,
      "start": 19.7524,
      "duration": 0.016,
      "velocity": 98,
      "chip": "ym2612"
    },
    {
      "channel": 3,
      "note": 83,
      "start": 19.7536,
      "duration": 0.016,
      "velocity": 98,
      "chip": "ym2612"
    },
    {
      "channel": 2,
      "note": 52,
      "start": 19.7547,
      "duration": 0.016,
      "velocity": 93,
      "chip": "ym2612"
    },
    {
      "channel": 1,
      "note": 71,
      "start": 19.7559,
      "duration": 0.016,
      "velocity": 108,
      "chip": "ym2612"
    },
    {
      "channel": 0,
      "note": 40,
      "start": 19.7656,
      "duration": 0.0161,
      "velocity": 115,
      "chip": "ym2612"
    },
    {
      "channel": 5,
      "note": 71,
      "start": 19.7667,
      "duration": 0.0161,
      "velocity": 108,
      "chip": "ym2612"
    },
    {
      "channel": 4,
      "note": 80,
      "start": 19.7684,
      "duration": 0.0158,
      "velocity": 98,
      "chip": "ym2612"
    },
    {
      "channel": 3,
      "note": 83,
      "start": 19.7696,
      "duration": 0.0161,
      "velocity": 98,
      "chip": "ym2612"
    },
    {
      "channel": 2,
      "note": 52,
      "start": 19.7708,
      "duration": 0.0161,
      "velocity": 93,
      "chip": "ym2612"
    },
    {
      "channel": 1,
      "note": 71,
      "start": 19.7719,
      "duration": 0.0161,
      "velocity": 108,
      "chip": "ym2612"
    },
    {
      "channel": 0,
      "note": 41,
      "start": 19.7817,
      "duration": 0.0161,
      "velocity": 115,
      "chip": "ym2612"
    },
    {
      "channel": 5,
      "note": 71,
      "start": 19.7828,
      "duration": 0.0161,
      "velocity": 108,
      "chip": "ym2612"
    },
    {
      "channel": 4,
      "note": 80,
      "start": 19.7842,
      "duration": 0.0159,
      "velocity": 98,
      "chip": "ym2612"
    },
    {
      "channel": 3,
      "note": 83,
      "start": 19.7857,
      "duration": 0.016,
      "velocity": 98,
      "chip": "ym2612"
    },
    {
      "channel": 2,
      "note": 52,
      "start": 19.7869,
      "duration": 0.0161,
      "velocity": 93,
      "chip": "ym2612"
    },
    {
      "channel": 0,
      "note": 41,
      "start": 19.7978,
      "duration": 0.0161,
      "velocity": 115,
      "chip": "ym2612"
    },
    {
      "channel": 5,
      "note": 71,
      "start": 19.7989,
      "duration": 0.0161,
      "velocity": 108,
      "chip": "ym2612"
    },
    {
      "channel": 4,
      "note": 80,
      "start": 19.8,
      "duration": 0.0161,
      "velocity": 98,
      "chip": "ym2612"
    },
    {
      "channel": 3,
      "note": 83,
      "start": 19.8017,
      "duration": 0.0158,
      "velocity": 98,
      "chip": "ym2612"
    },
    {
      "channel": 2,
      "note": 52,
      "start": 19.803,
      "duration": 0.0161,
      "velocity": 93,
      "chip": "ym2612"
    },
    {
      "channel": 0,
      "note": 42,
      "start": 19.8138,
      "duration": 0.0161,
      "velocity": 115,
      "chip": "ym2612"
    },
    {
      "channel": 4,
      "note": 80,
      "start": 19.8162,
      "duration": 0.0162,
      "velocity": 98,
      "chip": "ym2612"
    },
    {
      "channel": 3,
      "note": 83,
      "start": 19.8175,
      "duration": 0.0161,
      "velocity": 98,
      "chip": "ym2612"
    },
    {
      "channel": 2,
      "note": 52,
      "start": 19.819,
      "duration": 0.0162,
      "velocity": 93,
      "chip": "ym2612"
    },
    {
      "channel": 0,
      "note": 42,
      "start": 19.8299,
      "duration": 0.0161,
      "velocity": 115,
      "chip": "ym2612"
    },
    {
      "channel": 4,
      "note": 80,
      "start": 19.8324,
      "duration": 0.0161,
      "velocity": 98,
      "chip": "ym2612"
    },
    {
      "channel": 3,
      "note": 83,
      "start": 19.8336,
      "duration": 0.0161,
      "velocity": 98,
      "chip": "ym2612"
    },
    {
      "channel": 2,
      "note": 52,
      "start": 19.8353,
      "duration": 0.0162,
      "velocity": 93,
      "chip": "ym2612"
    },
    {
      "channel": 0,
      "note": 43,
      "start": 19.846,
      "duration": 0.0161,
      "velocity": 115,
      "chip": "ym2612"
    },
    {
      "channel": 4,
      "note": 80,
      "start": 19.8485,
      "duration": 0.0161,
      "velocity": 98,
      "chip": "ym2612"
    },
    {
      "channel": 3,
      "note": 83,
      "start": 19.8498,
      "duration": 0.016,
      "velocity": 98,
      "chip": "ym2612"
    },
    {
      "channel": 2,
      "note": 52,
      "start": 19.8515,
      "duration": 0.0155,
      "velocity": 93,
      "chip": "ym2612"
    },
    {
      "channel": 0,
      "note": 43,
      "start": 19.8621,
      "duration": 0.0161,
      "velocity": 115,
      "chip": "ym2612"
    },
    {
      "channel": 4,
      "note": 80,
      "start": 19.8646,
      "duration": 0.0161,
      "velocity": 98,
      "chip": "ym2612"
    },
    {
      "channel": 3,
      "note": 83,
      "start": 19.8658,
      "duration": 0.0162,
      "velocity": 98,
      "chip": "ym2612"
    },
    {
      "channel": 2,
      "note": 52,
      "start": 19.867,
      "duration": 0.0161,
      "velocity": 93,
      "chip": "ym2612"
    },
    {
      "channel": 0,
      "note": 44,
      "start": 19.8782,
      "duration": 0.0179,
      "velocity": 115,
      "chip": "ym2612"
    },
    {
      "channel": 4,
      "note": 80,
      "start": 19.8807,
      "duration": 0.0179,
      "velocity": 98,
      "chip": "ym2612"
    },
    {
      "channel": 3,
      "note": 83,
      "start": 19.882,
      "duration": 0.0178,
      "velocity": 98,
      "chip": "ym2612"
    },
    {
      "channel": 2,
      "note": 52,
      "start": 19.8832,
      "duration": 0.0183,
      "velocity": 93,
      "chip": "ym2612"
    },
    {
      "channel": 0,
      "note": 36,
      "start": 19.8962,
      "duration": 0.0143,
      "velocity": 115,
      "chip": "ym2612"
    },
    {
      "channel": 4,
      "note": 80,
      "start": 19.8986,
      "duration": 0.0143,
      "velocity": 98,
      "chip": "ym2612"
    },
    {
      "channel": 3,
      "note": 83,
      "start": 19.8998,
      "duration": 0.0143,
      "velocity": 98,
      "chip": "ym2612"
    },
    {
      "channel": 2,
      "note": 52,
      "start": 19.9014,
      "duration": 0.0138,
      "velocity": 93,
      "chip": "ym2612"
    },
    {
      "channel": 0,
      "note": 36,
      "start": 19.9105,
      "duration": 0.016,
      "velocity": 115,
      "chip": "ym2612"
    },
    {
      "channel": 4,
      "note": 80,
      "start": 19.9129,
      "duration": 0.0161,
      "velocity": 98,
      "chip": "ym2612"
    },
    {
      "channel": 3,
      "note": 83,
      "start": 19.9141,
      "duration": 0.016,
      "velocity": 98,
      "chip": "ym2612"
    },
    {
      "channel": 2,
      "note": 52,
      "start": 19.9152,
      "duration": 0.016,
      "velocity": 93,
      "chip": "ym2612"
    },
    {
      "channel": 0,
      "note": 37,
      "start": 19.9266,
      "duration": 0.0161,
      "velocity": 115,
      "chip": "ym2612"
    },
    {
      "channel": 4,
      "note": 80,
      "start": 19.929,
      "duration": 0.0161,
      "velocity": 98,
      "chip": "ym2612"
    },
    {
      "channel": 3,
      "note": 83,
      "start": 19.9301,
      "duration": 0.0161,
      "velocity": 98,
      "chip": "ym2612"
    },
    {
      "channel": 2,
      "note": 52,
      "start": 19.9313,
      "duration": 0.0161,
      "velocity": 93,
      "chip": "ym2612"
    },
    {
      "channel": 0,
      "note": 37,
      "start": 19.9427,
      "duration": 0.0161,
      "velocity": 115,
      "chip": "ym2612"
    },
    {
      "channel": 4,
      "note": 80,
      "start": 19.9451,
      "duration": 0.0161,
      "velocity": 98,
      "chip": "ym2612"
    },
    {
      "channel": 3,
      "note": 83,
      "start": 19.9462,
      "duration": 0.0162,
      "velocity": 98,
      "chip": "ym2612"
    },
    {
      "channel": 2,
      "note": 52,
      "start": 19.9474,
      "duration": 0.0163,
      "velocity": 93,
      "chip": "ym2612"
    },
    {
      "channel": 0,
      "note": 38,
      "start": 19.9588,
      "duration": 0.0161,
      "velocity": 115,
      "chip": "ym2612"
    },
    {
      "channel": 4,
      "note": 80,
      "start": 19.9612,
      "duration": 0.0161,
      "velocity": 98,
      "chip": "ym2612"
    },
    {
      "channel": 3,
      "note": 83,
      "start": 19.9624,
      "duration": 0.0161,
      "velocity": 98,
      "chip": "ym2612"
    },
    {
      "channel": 2,
      "note": 52,
      "start": 19.9637,
      "duration": 0.0162,
      "velocity": 93,
      "chip": "ym2612"
    },
    {
      "channel": 0,
      "note": 38,
      "start": 19.9749,
      "duration": 0.0179,
      "velocity": 124,
      "chip": "ym2612"
    },
    {
      "channel": 2,
      "note": 52,
      "start": 19.9799,
      "duration": 0.0186,
      "velocity": 93,
      "chip": "ym2612"
    },
    {
      "channel": 0,
      "note": 84,
      "start": 19.9928,
      "duration": 0.0143,
      "velocity": 124,
      "chip": "ym2612"
    },
    {
      "channel": 4,
      "note": 80,
      "start": 19.9955,
      "duration": 0.0141,
      "velocity": 98,
      "chip": "ym2612"
    },
    {
      "channel": 3,
      "note": 83,
      "start": 19.997,
      "duration": 0.0138,
      "velocity": 98,
      "chip": "ym2612"
    },
    {
      "channel": 2,
      "note": 52,
      "start": 19.9985,
      "duration": 0.0135,
      "velocity": 93,
      "chip": "ym2612"
    },
    {
      "channel": 0,
      "note": 82,
      "start": 20.0071,
      "duration": 0.016,
      "velocity": 124,
      "chip": "ym2612"
    },
    {
      "channel": 4,
      "note": 80,
      "start": 20.0096,
      "duration": 0.016,
      "velocity": 98,
      "chip": "ym2612"
    },
    {
      "channel": 3,
      "note": 83,
      "start": 20.0108,
      "duration": 0.016,
      "velocity": 98,
      "chip": "ym2612"
    },
    {
      "channel": 2,
      "note": 52,
      "start": 20.012,
      "duration": 0.0159,
      "velocity": 93,
      "chip": "ym2612"
    },
    {
      "channel": 0,
      "note": 80,
      "start": 20.0231,
      "duration": 0.0161,
      "velocity": 124,
      "chip": "ym2612"
    },
    {
      "channel": 4,
      "note": 80,
      "start": 20.0255,
      "duration": 0.0161,
      "velocity": 98,
      "chip": "ym2612"
    },
    {
      "channel": 3,
      "note": 83,
      "start": 20.0268,
      "duration": 0.0161,
      "velocity": 98,
      "chip": "ym2612"
    },
    {
      "channel": 2,
      "note": 52,
      "start": 20.0279,
      "duration": 0.0161,
      "velocity": 93,
      "chip": "ym2612"
    },
    {
      "channel": 0,
      "note": 77,
      "start": 20.0393,
      "duration": 0.0161,
      "velocity": 124,
      "chip": "ym2612"
    },
    {
      "channel": 4,
      "note": 80,
      "start": 20.0416,
      "duration": 0.0161,
      "velocity": 98,
      "chip": "ym2612"
    },
    {
      "channel": 3,
      "note": 83,
      "start": 20.0429,
      "duration": 0.0161,
      "velocity": 98,
      "chip": "ym2612"
    },
    {
      "channel": 2,
      "note": 52,
      "start": 20.044,
      "duration": 0.0161,
      "velocity": 93,
      "chip": "ym2612"
    },
    {
      "channel": 0,
      "note": 75,
      "start": 20.0554,
      "duration": 0.0161,
      "velocity": 124,
      "chip": "ym2612"
    },
    {
      "channel": 4,
      "note": 80,
      "start": 20.0577,
      "duration": 0.0162,
      "velocity": 98,
      "chip": "ym2612"
    },
    {
      "channel": 3,
      "note": 83,
      "start": 20.0589,
      "duration": 0.0161,
      "velocity": 98,
      "chip": "ym2612"
    },
    {
      "channel": 2,
      "note": 52,
      "start": 20.0601,
      "duration": 0.0161,
      "velocity": 93,
      "chip": "ym2612"
    },
    {
      "channel": 0,
      "note": 72,
      "start": 20.0715,
      "duration": 0.0161,
      "velocity": 124,
      "chip": "ym2612"
    },
    {
      "channel": 4,
      "note": 80,
      "start": 20.0739,
      "duration": 0.0161,
      "velocity": 98,
      "chip": "ym2612"
    },
    {
      "channel": 3,
      "note": 83,
      "start": 20.075,
      "duration": 0.0161,
      "velocity": 98,
      "chip": "ym2612"
    },
    {
      "channel": 2,
      "note": 52,
      "start": 20.0762,
      "duration": 0.0161,
      "velocity": 93,
      "chip": "ym2612"
    },
    {
      "channel": 0,
      "note": 70,
      "start": 20.0876,
      "duration": 0.0161,
      "velocity": 124,
      "chip": "ym2612"
    },
    {
      "channel": 4,
      "note": 80,
      "start": 20.09,
      "duration": 0.0162,
      "velocity": 98,
      "chip": "ym2612"
    },
    {
      "channel": 3,
      "note": 83,
      "start": 20.0911,
      "duration": 0.0161,
      "velocity": 98,
      "chip": "ym2612"
    },
    {
      "channel": 2,
      "note": 52,
      "start": 20.0923,
      "duration": 0.0162,
      "velocity": 93,
      "chip": "ym2612"
    },
    {
      "channel": 0,
      "note": 68,
      "start": 20.1037,
      "duration": 0.0163,
      "velocity": 124,
      "chip": "ym2612"
    },
    {
      "channel": 4,
      "note": 80,
      "start": 20.1061,
      "duration": 0.0163,
      "velocity": 98,
      "chip": "ym2612"
    },
    {
      "channel": 3,
      "note": 83,
      "start": 20.1073,
      "duration": 0.0163,
      "velocity": 98,
      "chip": "ym2612"
    },
    {
      "channel": 2,
      "note": 52,
      "start": 20.1084,
      "duration": 0.0163,
      "velocity": 93,
      "chip": "ym2612"
    },
    {
      "channel": 0,
      "note": 65,
      "start": 20.12,
      "duration": 0.0163,
      "velocity": 124,
      "chip": "ym2612"
    },
    {
      "channel": 4,
      "note": 80,
      "start": 20.1224,
      "duration": 0.0164,
      "velocity": 98,
      "chip": "ym2612"
    },
    {
      "channel": 3,
      "note": 83,
      "start": 20.1236,
      "duration": 0.0165,
      "velocity": 98,
      "chip": "ym2612"
    },
    {
      "channel": 2,
      "note": 52,
      "start": 20.1247,
      "duration": 0.0166,
      "velocity": 93,
      "chip": "ym2612"
    },
    {
      "channel": 0,
      "note": 63,
      "start": 20.1363,
      "duration": 0.0153,
      "velocity": 1,
      "chip": "ym2612"
    },
    {
      "channel": 4,
      "note": 80,
      "start": 20.1388,
      "duration": 0.0153,
      "velocity": 98,
      "chip": "ym2612"
    },
    {
      "channel": 3,
      "note": 83,
      "start": 20.1401,
      "duration": 0.0153,
      "velocity": 98,
      "chip": "ym2612"
    },
    {
      "channel": 2,
      "note": 52,
      "start": 20.1413,
      "duration": 0.0153,
      "velocity": 93,
      "chip": "ym2612"
    },
    {
      "channel": 4,
      "note": 80,
      "start": 20.1542,
      "duration": 0.0153,
      "velocity": 98,
      "chip": "ym2612"
    },
    {
      "channel": 3,
      "note": 83,
      "start": 20.1554,
      "duration": 0.0153,
      "velocity": 98,
      "chip": "ym2612"
    },
    {
      "channel": 2,
      "note": 52,
      "start": 20.1566,
      "duration": 0.0154,
      "velocity": 93,
      "chip": "ym2612"
    },
    {
      "channel": 4,
      "note": 80,
      "start": 20.1694,
      "duration": 0.016,
      "velocity": 98,
      "chip": "ym2612"
    },
    {
      "channel": 3,
      "note": 83,
      "start": 20.1706,
      "duration": 0.016,
      "velocity": 98,
      "chip": "ym2612"
    },
    {
      "channel": 2,
      "note": 52,
      "start": 20.1719,
      "duration": 0.0159,
      "velocity": 93,
      "chip": "ym2612"
    },
    {
      "channel": 4,
      "note": 80,
      "start": 20.1855,
      "duration": 0.0161,
      "velocity": 98,
      "chip": "ym2612"
    },
    {
      "channel": 3,
      "note": 83,
      "start": 20.1867,
      "duration": 0.0161,
      "velocity": 98,
      "chip": "ym2612"
    },
    {
      "channel": 2,
      "note": 52,
      "start": 20.1878,
      "duration": 0.0161,
      "velocity": 93,
      "chip": "ym2612"
    },
    {
      "channel": 1,
      "note": 71,
      "start": 20.1893,
      "duration": 0.0159,
      "velocity": 108,
      "chip": "ym2612"
    },
    {
      "channel": 4,
      "note": 80,
      "start": 20.2016,
      "duration": 0.016,
      "velocity": 98,
      "chip": "ym2612"
    },
    {
      "channel": 3,
      "note": 83,
      "start": 20.2028,
      "duration": 0.0163,
      "velocity": 98,
      "chip": "ym2612"
    },
    {
      "channel": 2,
      "note": 52,
      "start": 20.2039,
      "duration": 0.0163,
      "velocity": 93,
      "chip": "ym2612"
    },
    {
      "channel": 1,
      "note": 71,
      "start": 20.2051,
      "duration": 0.0163,
      "velocity": 108,
      "chip": "ym2612"
    },
    {
      "channel": 5,
      "note": 71,
      "start": 20.2162,
      "duration": 0.0159,
      "velocity": 108,
      "chip": "ym2612"
    },
    {
      "channel": 4,
      "note": 80,
      "start": 20.2175,
      "duration": 0.0156,
      "velocity": 98,
      "chip": "ym2612"
    },
    {
      "channel": 3,
      "note": 83,
      "start": 20.2191,
      "duration": 0.0158,
      "velocity": 98,
      "chip": "ym2612"
    },
    {
      "channel": 2,
      "note": 52,
      "start": 20.2203,
      "duration": 0.0158,
      "velocity": 93,
      "chip": "ym2612"
    },
    {
      "channel": 1,
      "note": 71,
      "start": 20.2214,
      "duration": 0.0159,
      "velocity": 108,
      "chip": "ym2612"
    },
    {
      "channel": 5,
      "note": 71,
      "start": 20.232,
      "duration": 0.016,
      "velocity": 108,
      "chip": "ym2612"
    },
    {
      "channel": 4,
      "note": 80,
      "start": 20.2332,
      "duration": 0.0161,
      "velocity": 98,
      "chip": "ym2612"
    },
    {
      "channel": 3,
      "note": 83,
      "start": 20.2349,
      "duration": 0.0158,
      "velocity": 98,
      "chip": "ym2612"
    },
    {
      "channel": 2,
      "note": 52,
      "start": 20.2361,
      "duration": 0.0162,
      "velocity": 93,
      "chip": "ym2612"
    },
    {
      "channel": 1,
      "note": 71,
      "start": 20.2373,
      "duration": 0.0162,
      "velocity": 108,
      "chip": "ym2612"
    },
    {
      "channel": 5,
      "note": 71,
      "start": 20.2481,
      "duration": 0.0161,
      "velocity": 108,
      "chip": "ym2612"
    },
    {
      "channel": 4,
      "note": 80,
      "start": 20.2493,
      "duration": 0.0161,
      "velocity": 98,
      "chip": "ym2612"
    },
    {
      "channel": 3,
      "note": 83,
      "start": 20.2507,
      "duration": 0.0159,
      "velocity": 98,
      "chip": "ym2612"
    },
    {
      "channel": 2,
      "note": 52,
      "start": 20.2523,
      "duration": 0.0161,
      "velocity": 93,
      "chip": "ym2612"
    },
    {
      "channel": 1,
      "note": 71,
      "start": 20.2535,
      "duration": 0.0162,
      "velocity": 108,
      "chip": "ym2612"
    },
    {
      "channel": 5,
      "note": 71,
      "start": 20.2641,
      "duration": 0.0199,
      "velocity": 108,
      "chip": "ym2612"
    },
    {
      "channel": 2,
      "note": 52,
      "start": 20.2684,
      "duration": 0.0205,
      "velocity": 93,
      "chip": "ym2612"
    },
    {
      "channel": 0,
      "note": 36,
      "start": 20.2826,
      "duration": 0.0143,
      "velocity": 115,
      "chip": "ym2612"
    },
    {
      "channel": 5,
      "note": 71,
      "start": 20.284,
      "duration": 0.0141,
      "velocity": 108,
      "chip": "ym2612"
    },
    {
      "channel": 4,
      "note": 80,
      "start": 20.2859,
      "duration": 0.0134,
      "velocity": 98,
      "chip": "ym2612"
    },
    {
      "channel": 3,
      "note": 83,
      "start": 20.2874,
      "duration": 0.0134,
      "velocity": 98,
      "chip": "ym2612"
    },
    {
      "channel": 2,
      "note": 52,
      "start": 20.289,
      "duration": 0.0134,
      "velocity": 93,
      "chip": "ym2612"
    },
    {
      "channel": 1,
      "note": 73,
      "start": 20.2905,
      "duration": 0.0131,
      "velocity": 108,
      "chip": "ym2612"
    },
    {
      "channel": 0,
      "note": 36,
      "start": 20.2969,
      "duration": 0.016,
      "velocity": 115,
      "chip": "ym2612"
    },
    {
      "channel": 4,
      "note": 80,
      "start": 20.2993,
      "duration": 0.0163,
      "velocity": 98,
      "chip": "ym2612"
    },
    {
      "channel": 3,
      "note": 83,
      "start": 20.3008,
      "duration": 0.016,
      "velocity": 98,
      "chip": "ym2612"
    },
    {
      "channel": 2,
      "note": 52,
      "start": 20.3024,
      "duration": 0.0161,
      "velocity": 93,
      "chip": "ym2612"
    },
    {
      "channel": 1,
      "note": 73,
      "start": 20.3036,
      "duration": 0.0161,
      "velocity": 108,
      "chip": "ym2612"
    },
    {
      "channel": 0,
      "note": 37,
      "start": 20.3129,
      "duration": 0.0161,
      "velocity": 115,
      "chip": "ym2612"
    },
    {
      "channel": 5,
      "note": 73,
      "start": 20.3145,
      "duration": 0.0159,
      "velocity": 108,
      "chip": "ym2612"
    },
    {
      "channel": 4,
      "note": 80,
      "start": 20.3157,
      "duration": 0.0158,
      "velocity": 98,
      "chip": "ym2612"
    },
    {
      "channel": 3,
      "note": 83,
      "start": 20.3168,
      "duration": 0.0158,
      "velocity": 98,
      "chip": "ym2612"
    },
    {
      "channel": 2,
      "note": 52,
      "start": 20.3185,
      "duration": 0.0155,
      "velocity": 93,
      "chip": "ym2612"
    },
    {
      "channel": 1,
      "note": 73,
      "start": 20.3198,
      "duration": 0.0158,
      "velocity": 108,
      "chip": "ym2612"
    },
    {
      "channel": 0,
      "note": 37,
      "start": 20.329,
      "duration": 0.0161,
      "velocity": 115,
      "chip": "ym2612"
    },
    {
      "channel": 5,
      "note": 73,
      "start": 20.3303,
      "duration": 0.016,
      "velocity": 108,
      "chip": "ym2612"
    },
    {
      "channel": 4,
      "note": 80,
      "start": 20.3315,
      "duration": 0.016,
      "velocity": 98,
      "chip": "ym2612"
    },
    {
      "channel": 3,
      "note": 83,
      "start": 20.3326,
      "duration": 0.016,
      "velocity": 98,
      "chip": "ym2612"
    },
    {
      "channel": 2,
      "note": 52,
      "start": 20.334,
      "duration": 0.0158,
      "velocity": 93,
      "chip": "ym2612"
    },
    {
      "channel": 1,
      "note": 73,
      "start": 20.3355,
      "duration": 0.016,
      "velocity": 108,
      "chip": "ym2612"
    },
    {
      "channel": 0,
      "note": 38,
      "start": 20.3452,
      "duration": 0.0161,
      "velocity": 115,
      "chip": "ym2612"
    },
    {
      "channel": 5,
      "note": 73,
      "start": 20.3463,
      "duration": 0.0161,
      "velocity": 108,
      "chip": "ym2612"
    },
    {
      "channel": 4,
      "note": 80,
      "start": 20.3475,
      "duration": 0.0161,
      "velocity": 98,
      "chip": "ym2612"
    },
    {
      "channel": 3,
      "note": 83,
      "start": 20.3486,
      "duration": 0.0161,
      "velocity": 98,
      "chip": "ym2612"
    },
    {
      "channel": 2,
      "note": 52,
      "start": 20.3498,
      "duration": 0.0161,
      "velocity": 93,
      "chip": "ym2612"
    },
    {
      "channel": 1,
      "note": 73,
      "start": 20.3515,
      "duration": 0.0156,
      "velocity": 108,
      "chip": "ym2612"
    },
    {
      "channel": 0,
      "note": 38,
      "start": 20.3613,
      "duration": 0.0161,
      "velocity": 115,
      "chip": "ym2612"
    },
    {
      "channel": 5,
      "note": 73,
      "start": 20.3624,
      "duration": 0.0161,
      "velocity": 108,
      "chip": "ym2612"
    },
    {
      "channel": 4,
      "note": 80,
      "start": 20.3636,
      "duration": 0.0161,
      "velocity": 98,
      "chip": "ym2612"
    },
    {
      "channel": 3,
      "note": 83,
      "start": 20.3647,
      "duration": 0.0161,
      "velocity": 98,
      "chip": "ym2612"
    },
    {
      "channel": 2,
      "note": 52,
      "start": 20.3659,
      "duration": 0.0162,
      "velocity": 93,
      "chip": "ym2612"
    },
    {
      "channel": 1,
      "note": 73,
      "start": 20.3671,
      "duration": 0.0161,
      "velocity": 108,
      "chip": "ym2612"
    },
    {
      "channel": 0,
      "note": 39,
      "start": 20.3774,
      "duration": 0.0161,
      "velocity": 115,
      "chip": "ym2612"
    },
    {
      "channel": 5,
      "note": 73,
      "start": 20.3785,
      "duration": 0.0161,
      "velocity": 108,
      "chip": "ym2612"
    },
    {
      "channel": 4,
      "note": 80,
      "start": 20.3797,
      "duration": 0.0161,
      "velocity": 98,
      "chip": "ym2612"
    },
    {
      "channel": 3,
      "note": 83,
      "start": 20.3808,
      "duration": 0.0161,
      "velocity": 98,
      "chip": "ym2612"
    },
    {
      "channel": 2,
      "note": 52,
      "start": 20.382,
      "duration": 0.0161,
      "velocity": 93,
      "chip": "ym2612"
    },
    {
      "channel": 1,
      "note": 73,
      "start": 20.3832,
      "duration": 0.0161,
      "velocity": 108,
      "chip": "ym2612"
    },
    {
      "channel": 0,
      "note": 39,
      "start": 20.3935,
      "duration": 0.0161,
      "velocity": 115,
      "chip": "ym2612"
    },
    {
      "channel": 5,
      "note": 73,
      "start": 20.3946,
      "duration": 0.0161,
      "velocity": 108,
      "chip": "ym2612"
    },
    {
      "channel": 4,
      "note": 80,
      "start": 20.3958,
      "duration": 0.0161,
      "velocity": 98,
      "chip": "ym2612"
    },
    {
      "channel": 3,
      "note": 83,
      "start": 20.3969,
      "duration": 0.0162,
      "velocity": 98,
      "chip": "ym2612"
    },
    {
      "channel": 2,
      "note": 52,
      "start": 20.3981,
      "duration": 0.0161,
      "velocity": 93,
      "chip": "ym2612"
    },
    {
      "channel": 1,
      "note": 73,
      "start": 20.3993,
      "duration": 0.0161,
      "velocity": 108,
      "chip": "ym2612"
    },
    {
      "channel": 0,
      "note": 40,
      "start": 20.4096,
      "duration": 0.0161,
      "velocity": 115,
      "chip": "ym2612"
    },
    {
      "channel": 5,
      "note": 73,
      "start": 20.4107,
      "duration": 0.0161,
      "velocity": 108,
      "chip": "ym2612"
    },
    {
      "channel": 4,
      "note": 80,
      "start": 20.4119,
      "duration": 0.0162,
      "velocity": 98,
      "chip": "ym2612"
    },
    {
      "channel": 3,
      "note": 83,
      "start": 20.4131,
      "duration": 0.0162,
      "velocity": 98,
      "chip": "ym2612"
    },
    {
      "channel": 2,
      "note": 52,
      "start": 20.4142,
      "duration": 0.0163,
      "velocity": 93,
      "chip": "ym2612"
    },
    {
      "channel": 1,
      "note": 73,
      "start": 20.4154,
      "duration": 0.0164,
      "velocity": 108,
      "chip": "ym2612"
    },
    {
      "channel": 0,
      "note": 40,
      "start": 20.4257,
      "duration": 0.0161,
      "velocity": 115,
      "chip": "ym2612"
    },
    {
      "channel": 5,
      "note": 73,
      "start": 20.4269,
      "duration": 0.0161,
      "velocity": 108,
      "chip": "ym2612"
    },
    {
      "channel": 4,
      "note": 80,
      "start": 20.4281,
      "duration": 0.0161,
      "velocity": 98,
      "chip": "ym2612"
    },
    {
      "channel": 3,
      "note": 83,
      "start": 20.4293,
      "duration": 0.0161,
      "velocity": 98,
      "chip": "ym2612"
    },
    {
      "channel": 2,
      "note": 52,
      "start": 20.4306,
      "duration": 0.016,
      "velocity": 93,
      "chip": "ym2612"
    },
    {
      "channel": 1,
      "note": 73,
      "start": 20.4318,
      "duration": 0.016,
      "velocity": 108,
      "chip": "ym2612"
    },
    {
      "channel": 0,
      "note": 40,
      "start": 20.4418,
      "duration": 0.0161,
      "velocity": 115,
      "chip": "ym2612"
    },
    {
      "channel": 5,
      "note": 73,
      "start": 20.443,
      "duration": 0.0162,
      "velocity": 108,
      "chip": "ym2612"
    },
    {
      "channel": 4,
      "note": 80,
      "start": 20.4442,
      "duration": 0.0162,
      "velocity": 98,
      "chip": "ym2612"
    },
    {
      "channel": 3,
      "note": 83,
      "start": 20.4454,
      "duration": 0.0161,
      "velocity": 98,
      "chip": "ym2612"
    },
    {
      "channel": 2,
      "note": 52,
      "start": 20.4466,
      "duration": 0.0162,
      "velocity": 93,
      "chip": "ym2612"
    },
    {
      "channel": 1,
      "note": 73,
      "start": 20.4478,
      "duration": 0.0162,
      "velocity": 108,
      "chip": "ym2612"
    },
    {
      "channel": 0,
      "note": 41,
      "start": 20.4579,
      "duration": 0.0161,
      "velocity": 115,
      "chip": "ym2612"
    },
    {
      "channel": 5,
      "note": 73,
      "start": 20.4591,
      "duration": 0.0161,
      "velocity": 108,
      "chip": "ym2612"
    },
    {
      "channel": 4,
      "note": 80,
      "start": 20.4603,
      "duration": 0.016,
      "velocity": 98,
      "chip": "ym2612"
    },
    {
      "channel": 3,
      "note": 83,
      "start": 20.4615,
      "duration": 0.016,
      "velocity": 98,
      "chip": "ym2612"
    },
    {
      "channel": 2,
      "note": 52,
      "start": 20.4628,
      "duration": 0.0159,
      "velocity": 93,
      "chip": "ym2612"
    },
    {
      "channel": 1,
      "note": 73,
      "start": 20.464,
      "duration": 0.0158,
      "velocity": 108,
      "chip": "ym2612"
    },
    {
      "channel": 0,
      "note": 41,
      "start": 20.4739,
      "duration": 0.0162,
      "velocity": 115,
      "chip": "ym2612"
    },
    {
      "channel": 5,
      "note": 73,
      "start": 20.4752,
      "duration": 0.016,
      "velocity": 108,
      "chip": "ym2612"
    },
    {
      "channel": 4,
      "note": 80,
      "start": 20.4764,
      "duration": 0.016,
      "velocity": 98,
      "chip": "ym2612"
    },
    {
      "channel": 3,
      "note": 83,
      "start": 20.4775,
      "duration": 0.016,
      "velocity": 98,
      "chip": "ym2612"
    },
    {
      "channel": 2,
      "note": 52,
      "start": 20.4787,
      "duration": 0.016,
      "velocity": 93,
      "chip": "ym2612"
    },
    {
      "channel": 1,
      "note": 73,
      "start": 20.4799,
      "duration": 0.016,
      "velocity": 108,
      "chip": "ym2612"
    },
    {
      "channel": 0,
      "note": 42,
      "start": 20.4901,
      "duration": 0.0161,
      "velocity": 115,
      "chip": "ym2612"
    },
    {
      "channel": 5,
      "note": 73,
      "start": 20.4912,
      "duration": 0.0161,
      "velocity": 108,
      "chip": "ym2612"
    },
    {
      "channel": 4,
      "note": 80,
      "start": 20.4924,
      "duration": 0.0161,
      "velocity": 98,
      "chip": "ym2612"
    },
    {
      "channel": 3,
      "note": 83,
      "start": 20.4935,
      "duration": 0.0161,
      "velocity": 98,
      "chip": "ym2612"
    },
    {
      "channel": 2,
      "note": 52,
      "start": 20.4947,
      "duration": 0.0161,
      "velocity": 93,
      "chip": "ym2612"
    },
    {
      "channel": 1,
      "note": 73,
      "start": 20.4959,
      "duration": 0.0161,
      "velocity": 108,
      "chip": "ym2612"
    },
    {
      "channel": 0,
      "note": 42,
      "start": 20.5062,
      "duration": 0.0161,
      "velocity": 115,
      "chip": "ym2612"
    },
    {
      "channel": 5,
      "note": 73,
      "start": 20.5073,
      "duration": 0.0161,
      "velocity": 108,
      "chip": "ym2612"
    },
    {
      "channel": 4,
      "note": 80,
      "start": 20.5085,
      "duration": 0.0161,
      "velocity": 98,
      "chip": "ym2612"
    },
    {
      "channel": 3,
      "note": 83,
      "start": 20.5096,
      "duration": 0.0161,
      "velocity": 98,
      "chip": "ym2612"
    },
    {
      "channel": 2,
      "note": 52,
      "start": 20.5108,
      "duration": 0.0161,
      "velocity": 93,
      "chip": "ym2612"
    },
    {
      "channel": 1,
      "note": 73,
      "start": 20.512,
      "duration": 0.0161,
      "velocity": 108,
      "chip": "ym2612"
    },
    {
      "channel": 0,
      "note": 43,
      "start": 20.5223,
      "duration": 0.0161,
      "velocity": 115,
      "chip": "ym2612"
    },
    {
      "channel": 5,
      "note": 73,
      "start": 20.5234,
      "duration": 0.0161,
      "velocity": 108,
      "chip": "ym2612"
    },
    {
      "channel": 4,
      "note": 80,
      "start": 20.5246,
      "duration": 0.0162,
      "velocity": 98,
      "chip": "ym2612"
    },
    {
      "channel": 3,
      "note": 83,
      "start": 20.5257,
      "duration": 0.0162,
      "velocity": 98,
      "chip": "ym2612"
    },
    {
      "channel": 2,
      "note": 52,
      "start": 20.5269,
      "duration": 0.0163,
      "velocity": 93,
      "chip": "ym2612"
    },
    {
      "channel": 1,
      "note": 73,
      "start": 20.5281,
      "duration": 0.0163,
      "velocity": 108,
      "chip": "ym2612"
    },
    {
      "channel": 0,
      "note": 43,
      "start": 20.5384,
      "duration": 0.0161,
      "velocity": 115,
      "chip": "ym2612"
    },
    {
      "channel": 5,
      "note": 73,
      "start": 20.5395,
      "duration": 0.0161,
      "velocity": 108,
      "chip": "ym2612"
    },
    {
      "channel": 4,
      "note": 80,
      "start": 20.5407,
      "duration": 0.0162,
      "velocity": 98,
      "chip": "ym2612"
    },
    {
      "channel": 3,
      "note": 83,
      "start": 20.542,
      "duration": 0.0163,
      "velocity": 98,
      "chip": "ym2612"
    },
    {
      "channel": 2,
      "note": 52,
      "start": 20.5432,
      "duration": 0.0162,
      "velocity": 93,
      "chip": "ym2612"
    },
    {
      "channel": 1,
      "note": 73,
      "start": 20.5444,
      "duration": 0.0163,
      "velocity": 108,
      "chip": "ym2612"
    },
    {
      "channel": 0,
      "note": 44,
      "start": 20.5545,
      "duration": 0.0179,
      "velocity": 124,
      "chip": "ym2612"
    },
    {
      "channel": 5,
      "note": 73,
      "start": 20.5557,
      "duration": 0.018,
      "velocity": 108,
      "chip": "ym2612"
    },
    {
      "channel": 2,
      "note": 52,
      "start": 20.5595,
      "duration": 0.0188,
      "velocity": 93,
      "chip": "ym2612"
    },
    {
      "channel": 0,
      "note": 84,
      "start": 20.5724,
      "duration": 0.0144,
      "velocity": 124,
      "chip": "ym2612"
    },
    {
      "channel": 5,
      "note": 73,
      "start": 20.5737,
      "duration": 0.0144,
      "velocity": 108,
      "chip": "ym2612"
    },
    {
      "channel": 4,
      "note": 80,
      "start": 20.5752,
      "duration": 0.0141,
      "velocity": 98,
      "chip": "ym2612"
    },
    {
      "channel": 3,
      "note": 83,
      "start": 20.5768,
      "duration": 0.0138,
      "velocity": 98,
      "chip": "ym2612"
    },
    {
      "channel": 2,
      "note": 52,
      "start": 20.5783,
      "duration": 0.0135,
      "velocity": 93,
      "chip": "ym2612"
    },
    {
      "channel": 1,
      "note": 76,
      "start": 20.5798,
      "duration": 0.0132,
      "velocity": 108,
      "chip": "ym2612"
    },
    {
      "channel": 0,
      "note": 82,
      "start": 20.5868,
      "duration": 0.0164,
      "velocity": 124,
      "chip": "ym2612"
    },
    {
      "channel": 4,
      "note": 80,
      "start": 20.5893,
      "duration": 0.0166,
      "velocity": 98,
      "chip": "ym2612"
    },
    {
      "channel": 3,
      "note": 83,
      "start": 20.5906,
      "duration": 0.0164,
      "velocity": 98,
      "chip": "ym2612"
    },
    {
      "channel": 2,
      "note": 52,
      "start": 20.5918,
      "duration": 0.0163,
      "velocity": 93,
      "chip": "ym2612"
    },
    {
      "channel": 1,
      "note": 76,
      "start": 20.593,
      "duration": 0.0163,
      "velocity": 108,
      "chip": "ym2612"
    },
    {
      "channel": 0,
      "note": 80,
      "start": 20.6032,
      "duration": 0.0163,
      "velocity": 124,
      "chip": "ym2612"
    },
    {
      "channel": 5,
      "note": 76,
      "start": 20.6047,
      "duration": 0.016,
      "velocity": 108,
      "chip": "ym2612"
    },
    {
      "channel": 4,
      "note": 80,
      "start": 20.6058,
      "duration": 0.016,
      "velocity": 98,
      "chip": "ym2612"
    },
    {
      "channel": 3,
      "note": 83,
      "start": 20.607,
      "duration": 0.016,
      "velocity": 98,
      "chip": "ym2612"
    },
    {
      "channel": 2,
      "note": 52,
      "start": 20.6081,
      "duration": 0.0161,
      "velocity": 93,
      "chip": "ym2612"
    },
    {
      "channel": 1,
      "note": 76,
      "start": 20.6093,
      "duration": 0.0161,
      "velocity": 108,
      "chip": "ym2612"
    },
    {
      "channel": 0,
      "note": 77,
      "start": 20.6195,
      "duration": 0.0161,
      "velocity": 124,
      "chip": "ym2612"
    },
    {
      "channel": 5,
      "note": 76,
      "start": 20.6207,
      "duration": 0.016,
      "velocity": 108,
      "chip": "ym2612"
    },
    {
      "channel": 4,
      "note": 80,
      "start": 20.6219,
      "duration": 0.016,
      "velocity": 98,
      "chip": "ym2612"
    },
    {
      "channel": 3,
      "note": 83,
      "start": 20.623,
      "duration": 0.016,
      "velocity": 98,
      "chip": "ym2612"
    },
    {
      "channel": 2,
      "note": 52,
      "start": 20.6242,
      "duration": 0.016,
      "velocity": 93,
      "chip": "ym2612"
    },
    {
      "channel": 1,
      "note": 76,
      "start": 20.6254,
      "duration": 0.016,
      "velocity": 108,
      "chip": "ym2612"
    },
    {
      "channel": 0,
      "note": 75,
      "start": 20.6356,
      "duration": 0.016,
      "velocity": 124,
      "chip": "ym2612"
    },
    {
      "channel": 5,
      "note": 76,
      "start": 20.6367,
      "duration": 0.0162,
      "velocity": 108,
      "chip": "ym2612"
    },
    {
      "channel": 4,
      "note": 80,
      "start": 20.6379,
      "duration": 0.0161,
      "velocity": 98,
      "chip": "ym2612"
    },
    {
      "channel": 3,
      "note": 83,
      "start": 20.639,
      "duration": 0.0162,
      "velocity": 98,
      "chip": "ym2612"
    },
    {
      "channel": 2,
      "note": 52,
      "start": 20.6402,
      "duration": 0.0161,
      "velocity": 93,
      "chip": "ym2612"
    },
    {
      "channel": 1,
      "note": 76,
      "start": 20.6414,
      "duration": 0.0161,
      "velocity": 108,
      "chip": "ym2612"
    },
    {
      "channel": 0,
      "note": 72,
      "start": 20.6516,
      "duration": 0.0158,
      "velocity": 124,
      "chip": "ym2612"
    },
    {
      "channel": 5,
      "note": 76,
      "start": 20.6529,
      "duration": 0.0161,
      "velocity": 108,
      "chip": "ym2612"
    },
    {
      "channel": 4,
      "note": 80,
      "start": 20.654,
      "duration": 0.0161,
      "velocity": 98,
      "chip": "ym2612"
    },
    {
      "channel": 3,
      "note": 83,
      "start": 20.6552,
      "duration": 0.0161,
      "velocity": 98,
      "chip": "ym2612"
    },
    {
      "channel": 2,
      "note": 52,
      "start": 20.6563,
      "duration": 0.0161,
      "velocity": 93,
      "chip": "ym2612"
    },
    {
      "channel": 1,
      "note": 76,
      "start": 20.6575,
      "duration": 0.0161,
      "velocity": 108,
      "chip": "ym2612"
    },
    {
      "channel": 0,
      "note": 70,
      "start": 20.6674,
      "duration": 0.0159,
      "velocity": 124,
      "chip": "ym2612"
    },
    {
      "channel": 5,
      "note": 76,
      "start": 20.669,
      "duration": 0.016,
      "velocity": 108,
      "chip": "ym2612"
    },
    {
      "channel": 4,
      "note": 80,
      "start": 20.6701,
      "duration": 0.0161,
      "velocity": 98,
      "chip": "ym2612"
    },
    {
      "channel": 3,
      "note": 83,
      "start": 20.6713,
      "duration": 0.0161,
      "velocity": 98,
      "chip": "ym2612"
    },
    {
      "channel": 2,
      "note": 52,
      "start": 20.6724,
      "duration": 0.0161,
      "velocity": 93,
      "chip": "ym2612"
    },
    {
      "channel": 1,
      "note": 76,
      "start": 20.6736,
      "duration": 0.0161,
      "velocity": 108,
      "chip": "ym2612"
    },
    {
      "channel": 0,
      "note": 68,
      "start": 20.6833,
      "duration": 0.0161,
      "velocity": 124,
      "chip": "ym2612"
    },
    {
      "channel": 5,
      "note": 76,
      "start": 20.685,
      "duration": 0.0157,
      "velocity": 108,
      "chip": "ym2612"
    },
    {
      "channel": 4,
      "note": 80,
      "start": 20.6862,
      "duration": 0.0161,
      "velocity": 98,
      "chip": "ym2612"
    },
    {
      "channel": 3,
      "note": 83,
      "start": 20.6874,
      "duration": 0.0161,
      "velocity": 98,
      "chip": "ym2612"
    },
    {
      "channel": 2,
      "note": 52,
      "start": 20.6885,
      "duration": 0.0161,
      "velocity": 93,
      "chip": "ym2612"
    },
    {
      "channel": 1,
      "note": 76,
      "start": 20.6897,
      "duration": 0.0161,
      "velocity": 108,
      "chip": "ym2612"
    },
    {
      "channel": 0,
      "note": 65,
      "start": 20.6994,
      "duration": 0.0161,
      "velocity": 124,
      "chip": "ym2612"
    },
    {
      "channel": 5,
      "note": 76,
      "start": 20.7007,
      "duration": 0.016,
      "velocity": 108,
      "chip": "ym2612"
    },
    {
      "channel": 4,
      "note": 80,
      "start": 20.7023,
      "duration": 0.0161,
      "velocity": 98,
      "chip": "ym2612"
    },
    {
      "channel": 3,
      "note": 83,
      "start": 20.7035,
      "duration": 0.0163,
      "velocity": 98,
      "chip": "ym2612"
    },
    {
      "channel": 2,
      "note": 52,
      "start": 20.7046,
      "duration": 0.0163,
      "velocity": 93,
      "chip": "ym2612"
    },
    {
      "channel": 1,
      "note": 76,
      "start": 20.7058,
      "duration": 0.0164,
      "velocity": 108,
      "chip": "ym2612"
    },
    {
      "channel": 0,
      "note": 63,
      "start": 20.7155,
      "duration": 0.0153,
      "velocity": 1,
      "chip": "ym2612"
    },
    {
      "channel": 5,
      "note": 76,
      "start": 20.7167,
      "duration": 0.0153,
      "velocity": 108,
      "chip": "ym2612"
    },
    {
      "channel": 4,
      "note": 80,
      "start": 20.7184,
      "duration": 0.0148,
      "velocity": 98,
      "chip": "ym2612"
    },
    {
      "channel": 3,
      "note": 83,
      "start": 20.7198,
      "duration": 0.0151,
      "velocity": 98,
      "chip": "ym2612"
    },
    {
      "channel": 2,
      "note": 52,
      "start": 20.721,
      "duration": 0.0152,
      "velocity": 93,
      "chip": "ym2612"
    },
    {
      "channel": 1,
      "note": 76,
      "start": 20.7222,
      "duration": 0.0152,
      "velocity": 108,
      "chip": "ym2612"
    },
    {
      "channel": 5,
      "note": 76,
      "start": 20.732,
      "duration": 0.0153,
      "velocity": 108,
      "chip": "ym2612"
    },
    {
      "channel": 4,
      "note": 80,
      "start": 20.7332,
      "duration": 0.0153,
      "velocity": 98,
      "chip": "ym2612"
    },
    {
      "channel": 3,
      "note": 83,
      "start": 20.7349,
      "duration": 0.0148,
      "velocity": 98,
      "chip": "ym2612"
    },
    {
      "channel": 2,
      "note": 52,
      "start": 20.7362,
      "duration": 0.0153,
      "velocity": 93,
      "chip": "ym2612"
    },
    {
      "channel": 1,
      "note": 76,
      "start": 20.7374,
      "duration": 0.0154,
      "velocity": 108,
      "chip": "ym2612"
    },
    {
      "channel": 5,
      "note": 76,
      "start": 20.7472,
      "duration": 0.0161,
      "velocity": 108,
      "chip": "ym2612"
    },
    {
      "channel": 4,
      "note": 80,
      "start": 20.7484,
      "duration": 0.0161,
      "velocity": 98,
      "chip": "ym2612"
    },
    {
      "channel": 3,
      "note": 83,
      "start": 20.7497,
      "duration": 0.016,
      "velocity": 98,
      "chip": "ym2612"
    },
    {
      "channel": 2,
      "note": 52,
      "start": 20.7514,
      "duration": 0.0154,
      "velocity": 93,
      "chip": "ym2612"
    },
    {
      "channel": 1,
      "note": 76,
      "start": 20.7528,
      "duration": 0.0159,
      "velocity": 108,
      "chip": "ym2612"
    },
    {
      "channel": 5,
      "note": 76,
      "start": 20.7633,
      "duration": 0.0161,
      "velocity": 108,
      "chip": "ym2612"
    },
    {
      "channel": 4,
      "note": 80,
      "start": 20.7645,
      "duration": 0.016,
      "velocity": 98,
      "chip": "ym2612"
    },
    {
      "channel": 3,
      "note": 83,
      "start": 20.7657,
      "duration": 0.016,
      "velocity": 98,
      "chip": "ym2612"
    },
    {
      "channel": 2,
      "note": 52,
      "start": 20.7668,
      "duration": 0.016,
      "velocity": 93,
      "chip": "ym2612"
    },
    {
      "channel": 1,
      "note": 76,
      "start": 20.7686,
      "duration": 0.0156,
      "velocity": 108,
      "chip": "ym2612"
    },
    {
      "channel": 5,
      "note": 76,
      "start": 20.7794,
      "duration": 0.0161,
      "velocity": 108,
      "chip": "ym2612"
    },
    {
      "channel": 4,
      "note": 80,
      "start": 20.7806,
      "duration": 0.0161,
      "velocity": 98,
      "chip": "ym2612"
    },
    {
      "channel": 3,
      "note": 83,
      "start": 20.7817,
      "duration": 0.0161,
      "velocity": 98,
      "chip": "ym2612"
    },
    {
      "channel": 2,
      "note": 52,
      "start": 20.7829,
      "duration": 0.0161,
      "velocity": 93,
      "chip": "ym2612"
    },
    {
      "channel": 1,
      "note": 76,
      "start": 20.7843,
      "duration": 0.0158,
      "velocity": 108,
      "chip": "ym2612"
    },
    {
      "channel": 5,
      "note": 76,
      "start": 20.7955,
      "duration": 0.0161,
      "velocity": 108,
      "chip": "ym2612"
    },
    {
      "channel": 4,
      "note": 80,
      "start": 20.7967,
      "duration": 0.0161,
      "velocity": 98,
      "chip": "ym2612"
    },
    {
      "channel": 3,
      "note": 83,
      "start": 20.7978,
      "duration": 0.0161,
      "velocity": 98,
      "chip": "ym2612"
    },
    {
      "channel": 2,
      "note": 52,
      "start": 20.799,
      "duration": 0.0161,
      "velocity": 93,
      "chip": "ym2612"
    },
    {
      "channel": 1,
      "note": 76,
      "start": 20.8001,
      "duration": 0.0162,
      "velocity": 108,
      "chip": "ym2612"
    },
    {
      "channel": 5,
      "note": 76,
      "start": 20.8116,
      "duration": 0.0161,
      "velocity": 108,
      "chip": "ym2612"
    },
    {
      "channel": 4,
      "note": 80,
      "start": 20.8128,
      "duration": 0.0161,
      "velocity": 98,
      "chip": "ym2612"
    },
    {
      "channel": 3,
      "note": 83,
      "start": 20.8139,
      "duration": 0.0162,
      "velocity": 98,
      "chip": "ym2612"
    },
    {
      "channel": 2,
      "note": 52,
      "start": 20.8151,
      "duration": 0.0163,
      "velocity": 93,
      "chip": "ym2612"
    },
    {
      "channel": 1,
      "note": 76,
      "start": 20.8163,
      "duration": 0.0163,
      "velocity": 108,
      "chip": "ym2612"
    },
    {
      "channel": 5,
      "note": 76,
      "start": 20.8277,
      "duration": 0.0161,
      "velocity": 108,
      "chip": "ym2612"
    },
    {
      "channel": 4,
      "note": 80,
      "start": 20.8289,
      "duration": 0.0162,
      "velocity": 98,
      "chip": "ym2612"
    },
    {
      "channel": 3,
      "note": 83,
      "start": 20.8301,
      "duration": 0.0162,
      "velocity": 98,
      "chip": "ym2612"
    },
    {
      "channel": 2,
      "note": 52,
      "start": 20.8313,
      "duration": 0.0163,
      "velocity": 93,
      "chip": "ym2612"
    },
    {
      "channel": 1,
      "note": 76,
      "start": 20.8325,
      "duration": 0.0163,
      "velocity": 108,
      "chip": "ym2612"
    },
    {
      "channel": 5,
      "note": 76,
      "start": 20.8439,
      "duration": 0.0197,
      "velocity": 108,
      "chip": "ym2612"
    },
    {
      "channel": 2,
      "note": 52,
      "start": 20.8476,
      "duration": 0.0214,
      "velocity": 93,
      "chip": "ym2612"
    },
    {
      "channel": 0,
      "note": 36,
      "start": 20.8622,
      "duration": 0.0143,
      "velocity": 115,
      "chip": "ym2612"
    },
    {
      "channel": 5,
      "note": 76,
      "start": 20.8635,
      "duration": 0.0143,
      "velocity": 108,
      "chip": "ym2612"
    },
    {
      "channel": 4,
      "note": 80,
      "start": 20.8652,
      "duration": 0.0138,
      "velocity": 98,
      "chip": "ym2612"
    },
    {
      "channel": 3,
      "note": 83,
      "start": 20.867,
      "duration": 0.0134,
      "velocity": 98,
      "chip": "ym2612"
    },
    {
      "channel": 2,
      "note": 56,
      "start": 20.869,
      "duration": 0.0125,
      "velocity": 93,
      "chip": "ym2612"
    },
    {
      "channel": 1,
      "note": 75,
      "start": 20.8705,
      "duration": 0.0122,
      "velocity": 108,
      "chip": "ym2612"
    },
    {
      "channel": 0,
      "note": 36,
      "start": 20.8766,
      "duration": 0.016,
      "velocity": 115,
      "chip": "ym2612"
    },
    {
      "channel": 4,
      "note": 80,
      "start": 20.879,
      "duration": 0.0162,
      "velocity": 98,
      "chip": "ym2612"
    },
    {
      "channel": 3,
      "note": 83,
      "start": 20.8803,
      "duration": 0.0161,
      "velocity": 98,
      "chip": "ym2612"
    },
    {
      "channel": 2,
      "note": 56,
      "start": 20.8815,
      "duration": 0.016,
      "velocity": 93,
      "chip": "ym2612"
    },
    {
      "channel": 1,
      "note": 75,
      "start": 20.8827,
      "duration": 0.016,
      "velocity": 108,
      "chip": "ym2612"
    },
    {
      "channel": 0,
      "note": 37,
      "start": 20.8926,
      "duration": 0.0161,
      "velocity": 115,
      "chip": "ym2612"
    },
    {
      "channel": 5,
      "note": 75,
      "start": 20.8941,
      "duration": 0.0159,
      "velocity": 108,
      "chip": "ym2612"
    },
    {
      "channel": 4,
      "note": 80,
      "start": 20.8953,
      "duration": 0.0159,
      "velocity": 98,
      "chip": "ym2612"
    },
    {
      "channel": 3,
      "note": 83,
      "start": 20.8964,
      "duration": 0.0158,
      "velocity": 98,
      "chip": "ym2612"
    },
    {
      "channel": 2,
      "note": 56,
      "start": 20.8976,
      "duration": 0.0159,
      "velocity": 93,
      "chip": "ym2612"
    },
    {
      "channel": 1,
      "note": 75,
      "start": 20.8987,
      "duration": 0.0159,
      "velocity": 108,
      "chip": "ym2612"
    },
    {
      "channel": 0,
      "note": 37,
      "start": 20.9087,
      "duration": 0.0161,
      "velocity": 115,
      "chip": "ym2612"
    },
    {
      "channel": 5,
      "note": 75,
      "start": 20.91,
      "duration": 0.016,
      "velocity": 108,
      "chip": "ym2612"
    },
    {
      "channel": 4,
      "note": 80,
      "start": 20.9111,
      "duration": 0.016,
      "velocity": 98,
      "chip": "ym2612"
    },
    {
      "channel": 3,
      "note": 83,
      "start": 20.9122,
      "duration": 0.016,
      "velocity": 98,
      "chip": "ym2612"
    },
    {
      "channel": 2,
      "note": 56,
      "start": 20.9134,
      "duration": 0.016,
      "velocity": 93,
      "chip": "ym2612"
    },
    {
      "channel": 1,
      "note": 75,
      "start": 20.9146,
      "duration": 0.016,
      "velocity": 108,
      "chip": "ym2612"
    },
    {
      "channel": 0,
      "note": 38,
      "start": 20.9248,
      "duration": 0.0161,
      "velocity": 115,
      "chip": "ym2612"
    },
    {
      "channel": 5,
      "note": 75,
      "start": 20.926,
      "duration": 0.0161,
      "velocity": 108,
      "chip": "ym2612"
    },
    {
      "channel": 4,
      "note": 80,
      "start": 20.9271,
      "duration": 0.0161,
      "velocity": 98,
      "chip": "ym2612"
    },
    {
      "channel": 3,
      "note": 83,
      "start": 20.9283,
      "duration": 0.0161,
      "velocity": 98,
      "chip": "ym2612"
    },
    {
      "channel": 2,
      "note": 56,
      "start": 20.9294,
      "duration": 0.0161,
      "velocity": 93,
      "chip": "ym2612"
    },
    {
      "channel": 1,
      "note": 75,
      "start": 20.9306,
      "duration": 0.0161,
      "velocity": 108,
      "chip": "ym2612"
    },
    {
      "channel": 0,
      "note": 38,
      "start": 20.9409,
      "duration": 0.0161,
      "velocity": 115,
      "chip": "ym2612"
    },
    {
      "channel": 5,
      "note": 75,
      "start": 20.9421,
      "duration": 0.0161,
      "velocity": 108,
      "chip": "ym2612"
    },
    {
      "channel": 4,
      "note": 80,
      "start": 20.9432,
      "duration": 0.0161,
      "velocity": 98,
      "chip": "ym2612"
    },
    {
      "channel": 3,
      "note": 83,
      "start": 20.9444,
      "duration": 0.0161,
      "velocity": 98,
      "chip": "ym2612"
    },
    {
      "channel": 2,
      "note": 56,
      "start": 20.9455,
      "duration": 0.0162,
      "velocity": 93,
      "chip": "ym2612"
    },
    {
      "channel": 1,
      "note": 75,
      "start": 20.9467,
      "duration": 0.0161,
      "velocity": 108,
      "chip": "ym2612"
    },
    {
      "channel": 0,
      "note": 39,
      "start": 20.957,
      "duration": 0.0161,
      "velocity": 115,
      "chip": "ym2612"
    },
    {
      "channel": 5,
      "note": 75,
      "start": 20.9582,
      "duration": 0.0161,
      "velocity": 108,
      "chip": "ym2612"
    },
    {
      "channel": 4,
      "note": 80,
      "start": 20.9593,
      "duration": 0.0161,
      "velocity": 98,
      "chip": "ym2612"
    },
    {
      "channel": 3,
      "note": 83,
      "start": 20.9605,
      "duration": 0.0161,
      "velocity": 98,
      "chip": "ym2612"
    },
    {
      "channel": 2,
      "note": 56,
      "start": 20.9617,
      "duration": 0.0161,
      "velocity": 93,
      "chip": "ym2612"
    },
    {
      "channel": 1,
      "note": 75,
      "start": 20.9628,
      "duration": 0.0161,
      "velocity": 108,
      "chip": "ym2612"
    },
    {
      "channel": 0,
      "note": 39,
      "start": 20.9731,
      "duration": 0.0161,
      "velocity": 115,
      "chip": "ym2612"
    },
    {
      "channel": 5,
      "note": 75,
      "start": 20.9743,
      "duration": 0.0161,
      "velocity": 108,
      "chip": "ym2612"
    },
    {
      "channel": 4,
      "note": 80,
      "start": 20.9754,
      "duration": 0.0161,
      "velocity": 98,
      "chip": "ym2612"
    },
    {
      "channel": 3,
      "note": 83,
      "start": 20.9766,
      "duration": 0.0162,
      "velocity": 98,
      "chip": "ym2612"
    },
    {
      "channel": 2,
      "note": 56,
      "start": 20.9778,
      "duration": 0.0161,
      "velocity": 93,
      "chip": "ym2612"
    },
    {
      "channel": 1,
      "note": 75,
      "start": 20.9789,
      "duration": 0.0161,
      "velocity": 108,
      "chip": "ym2612"
    },
    {
      "channel": 0,
      "note": 40,
      "start": 20.9892,
      "duration": 0.0161,
      "velocity": 115,
      "chip": "ym2612"
    },
    {
      "channel": 5,
      "note": 75,
      "start": 20.9904,
      "duration": 0.0162,
      "velocity": 108,
      "chip": "ym2612"
    },
    {
      "channel": 4,
      "note": 80,
      "start": 20.9915,
      "duration": 0.0162,
      "velocity": 98,
      "chip": "ym2612"
    },
    {
      "channel": 3,
      "note": 83,
      "start": 20.9927,
      "duration": 0.0162,
      "velocity": 98,
      "chip": "ym2612"
    },
    {
      "channel": 2,
      "note": 56,
      "start": 20.9939,
      "duration": 0.0163,
      "velocity": 93,
      "chip": "ym2612"
    },
    {
      "channel": 1,
      "note": 75,
      "start": 20.995,
      "duration": 0.0164,
      "velocity": 108,
      "chip": "ym2612"
    },
    {
      "channel": 0,
      "note": 40,
      "start": 21.0053,
      "duration": 0.0161,
      "velocity": 115,
      "chip": "ym2612"
    },
    {
      "channel": 5,
      "note": 75,
      "start": 21.0065,
      "duration": 0.0161,
      "velocity": 108,
      "chip": "ym2612"
    },
    {
      "channel": 4,
      "note": 80,
      "start": 21.0077,
      "duration": 0.0161,
      "velocity": 98,
      "chip": "ym2612"
    },
    {
      "channel": 3,
      "note": 83,
      "start": 21.0089,
      "duration": 0.0161,
      "velocity": 98,
      "chip": "ym2612"
    },
    {
      "channel": 2,
      "note": 56,
      "start": 21.0102,
      "duration": 0.016,
      "velocity": 93,
      "chip": "ym2612"
    },
    {
      "channel": 1,
      "note": 75,
      "start": 21.0114,
      "duration": 0.016,
      "velocity": 108,
      "chip": "ym2612"
    },
    {
      "channel": 0,
      "note": 40,
      "start": 21.0214,
      "duration": 0.0161,
      "velocity": 115,
      "chip": "ym2612"
    },
    {
      "channel": 5,
      "note": 75,
      "start": 21.0226,
      "duration": 0.0162,
      "velocity": 108,
      "chip": "ym2612"
    },
    {
      "channel": 4,
      "note": 80,
      "start": 21.0238,
      "duration": 0.0161,
      "velocity": 98,
      "chip": "ym2612"
    },
    {
      "channel": 3,
      "note": 83,
      "start": 21.025,
      "duration": 0.0162,
      "velocity": 98,
      "chip": "ym2612"
    },
    {
      "channel": 2,
      "note": 56,
      "start": 21.0262,
      "duration": 0.0162,
      "velocity": 93,
      "chip": "ym2612"
    },
    {
      "channel": 1,
      "note": 75,
      "start": 21.0275,
      "duration": 0.0161,
      "velocity": 108,
      "chip": "ym2612"
    },
    {
      "channel": 0,
      "note": 41,
      "start": 21.0375,
      "duration": 0.0161,
      "velocity": 115,
      "chip": "ym2612"
    },
    {
      "channel": 5,
      "note": 75,
      "start": 21.0388,
      "duration": 0.0162,
      "velocity": 108,
      "chip": "ym2612"
    },
    {
      "channel": 4,
      "note": 80,
      "start": 21.04,
      "duration": 0.0161,
      "velocity": 98,
      "chip": "ym2612"
    },
    {
      "channel": 3,
      "note": 83,
      "start": 21.0412,
      "duration": 0.016,
      "velocity": 98,
      "chip": "ym2612"
    },
    {
      "channel": 2,
      "note": 56,
      "start": 21.0424,
      "duration": 0.016,
      "velocity": 93,
      "chip": "ym2612"
    },
    {
      "channel": 1,
      "note": 75,
      "start": 21.0436,
      "duration": 0.0159,
      "velocity": 108,
      "chip": "ym2612"
    },
    {
      "channel": 0,
      "note": 41,
      "start": 21.0537,
      "duration": 0.0163,
      "velocity": 115,
      "chip": "ym2612"
    },
    {
      "channel": 5,
      "note": 75,
      "start": 21.0549,
      "duration": 0.0163,
      "velocity": 108,
      "chip": "ym2612"
    },
    {
      "channel": 4,
      "note": 80,
      "start": 21.0561,
      "duration": 0.0163,
      "velocity": 98,
      "chip": "ym2612"
    },
    {
      "channel": 3,
      "note": 83,
      "start": 21.0572,
      "duration": 0.0163,
      "velocity": 98,
      "chip": "ym2612"
    },
    {
      "channel": 2,
      "note": 56,
      "start": 21.0584,
      "duration": 0.0163,
      "velocity": 93,
      "chip": "ym2612"
    },
    {
      "channel": 1,
      "note": 75,
      "start": 21.0595,
      "duration": 0.0163,
      "velocity": 108,
      "chip": "ym2612"
    },
    {
      "channel": 0,
      "note": 42,
      "start": 21.07,
      "duration": 0.0163,
      "velocity": 115,
      "chip": "ym2612"
    },
    {
      "channel": 5,
      "note": 75,
      "start": 21.0712,
      "duration": 0.0163,
      "velocity": 108,
      "chip": "ym2612"
    },
    {
      "channel": 4,
      "note": 80,
      "start": 21.0724,
      "duration": 0.0163,
      "velocity": 98,
      "chip": "ym2612"
    },
    {
      "channel": 3,
      "note": 83,
      "start": 21.0735,
      "duration": 0.0163,
      "velocity": 98,
      "chip": "ym2612"
    },
    {
      "channel": 2,
      "note": 56,
      "start": 21.0746,
      "duration": 0.0163,
      "velocity": 93,
      "chip": "ym2612"
    },
    {
      "channel": 1,
      "note": 75,
      "start": 21.0759,
      "duration": 0.0163,
      "velocity": 108,
      "chip": "ym2612"
    },
    {
      "channel": 0,
      "note": 42,
      "start": 21.0863,
      "duration": 0.0162,
      "velocity": 115,
      "chip": "ym2612"
    },
    {
      "channel": 5,
      "note": 75,
      "start": 21.0875,
      "duration": 0.0161,
      "velocity": 108,
      "chip": "ym2612"
    },
    {
      "channel": 4,
      "note": 80,
      "start": 21.0886,
      "duration": 0.0162,
      "velocity": 98,
      "chip": "ym2612"
    },
    {
      "channel": 3,
      "note": 83,
      "start": 21.0899,
      "duration": 0.0161,
      "velocity": 98,
      "chip": "ym2612"
    },
    {
      "channel": 2,
      "note": 56,
      "start": 21.091,
      "duration": 0.0162,
      "velocity": 93,
      "chip": "ym2612"
    },
    {
      "channel": 1,
      "note": 75,
      "start": 21.0922,
      "duration": 0.0161,
      "velocity": 108,
      "chip": "ym2612"
    },
    {
      "channel": 0,
      "note": 43,
      "start": 21.1025,
      "duration": 0.0161,
      "velocity": 115,
      "chip": "ym2612"
    },
    {
      "channel": 5,
      "note": 75,
      "start": 21.1037,
      "duration": 0.0162,
      "velocity": 108,
      "chip": "ym2612"
    },
    {
      "channel": 4,
      "note": 80,
      "start": 21.1048,
      "duration": 0.0162,
      "velocity": 98,
      "chip": "ym2612"
    },
    {
      "channel": 3,
      "note": 83,
      "start": 21.1059,
      "duration": 0.0163,
      "velocity": 98,
      "chip": "ym2612"
    },
    {
      "channel": 2,
      "note": 56,
      "start": 21.1072,
      "duration": 0.0163,
      "velocity": 93,
      "chip": "ym2612"
    },
    {
      "channel": 1,
      "note": 75,
      "start": 21.1083,
      "duration": 0.0163,
      "velocity": 108,
      "chip": "ym2612"
    },
    {
      "channel": 0,
      "note": 43,
      "start": 21.1186,
      "duration": 0.016,
      "velocity": 115,
      "chip": "ym2612"
    },
    {
      "channel": 5,
      "note": 75,
      "start": 21.1198,
      "duration": 0.0162,
      "velocity": 108,
      "chip": "ym2612"
    },
    {
      "channel": 4,
      "note": 80,
      "start": 21.121,
      "duration": 0.0162,
      "velocity": 98,
      "chip": "ym2612"
    },
    {
      "channel": 3,
      "note": 83,
      "start": 21.1222,
      "duration": 0.0162,
      "velocity": 98,
      "chip": "ym2612"
    },
    {
      "channel": 2,
      "note": 56,
      "start": 21.1234,
      "duration": 0.0163,
      "velocity": 93,
      "chip": "ym2612"
    },
    {
      "channel": 1,
      "note": 75,
      "start": 21.1246,
      "duration": 0.0163,
      "velocity": 108,
      "chip": "ym2612"
    },
    {
      "channel": 0,
      "note": 44,
      "start": 21.1346,
      "duration": 0.018,
      "velocity": 124,
      "chip": "ym2612"
    },
    {
      "channel": 5,
      "note": 75,
      "start": 21.136,
      "duration": 0.0179,
      "velocity": 108,
      "chip": "ym2612"
    },
    {
      "channel": 2,
      "note": 56,
      "start": 21.1397,
      "duration": 0.0186,
      "velocity": 93,
      "chip": "ym2612"
    },
    {
      "channel": 0,
      "note": 84,
      "start": 21.1527,
      "duration": 0.0137,
      "velocity": 124,
      "chip": "ym2612"
    },
    {
      "channel": 5,
      "note": 75,
      "start": 21.1539,
      "duration": 0.0143,
      "velocity": 108,
      "chip": "ym2612"
    },
    {
      "channel": 4,
      "note": 80,
      "start": 21.1554,
      "duration": 0.0141,
      "velocity": 98,
      "chip": "ym2612"
    },
    {
      "channel": 3,
      "note": 83,
      "start": 21.1568,
      "duration": 0.0139,
      "velocity": 98,
      "chip": "ym2612"
    },
    {
      "channel": 2,
      "note": 56,
      "start": 21.1584,
      "duration": 0.0136,
      "velocity": 93,
      "chip": "ym2612"
    },
    {
      "channel": 1,
      "note": 75,
      "start": 21.1598,
      "duration": 0.0133,
      "velocity": 108,
      "chip": "ym2612"
    },
    {
      "channel": 0,
      "note": 82,
      "start": 21.1664,
      "duration": 0.016,
      "velocity": 124,
      "chip": "ym2612"
    },
    {
      "channel": 4,
      "note": 80,
      "start": 21.1695,
      "duration": 0.0161,
      "velocity": 98,
      "chip": "ym2612"
    },
    {
      "channel": 3,
      "note": 83,
      "start": 21.1707,
      "duration": 0.0161,
      "velocity": 98,
      "chip": "ym2612"
    },
    {
      "channel": 2,
      "note": 56,
      "start": 21.1719,
      "duration": 0.016,
      "velocity": 93,
      "chip": "ym2612"
    },
    {
      "channel": 1,
      "note": 75,
      "start": 21.1731,
      "duration": 0.016,
      "velocity": 108,
      "chip": "ym2612"
    },
    {
      "channel": 0,
      "note": 80,
      "start": 21.1824,
      "duration": 0.0161,
      "velocity": 124,
      "chip": "ym2612"
    },
    {
      "channel": 5,
      "note": 75,
      "start": 21.1841,
      "duration": 0.0156,
      "velocity": 108,
      "chip": "ym2612"
    },
    {
      "channel": 4,
      "note": 80,
      "start": 21.1856,
      "duration": 0.0159,
      "velocity": 98,
      "chip": "ym2612"
    },
    {
      "channel": 3,
      "note": 83,
      "start": 21.1868,
      "duration": 0.0159,
      "velocity": 98,
      "chip": "ym2612"
    },
    {
      "channel": 2,
      "note": 56,
      "start": 21.188,
      "duration": 0.0159,
      "velocity": 93,
      "chip": "ym2612"
    },
    {
      "channel": 1,
      "note": 75,
      "start": 21.1892,
      "duration": 0.0158,
      "velocity": 108,
      "chip": "ym2612"
    },
    {
      "channel": 0,
      "note": 77,
      "start": 21.1985,
      "duration": 0.0162,
      "velocity": 124,
      "chip": "ym2612"
    },
    {
      "channel": 5,
      "note": 75,
      "start": 21.1998,
      "duration": 0.016,
      "velocity": 108,
      "chip": "ym2612"
    },
    {
      "channel": 4,
      "note": 80,
      "start": 21.2015,
      "duration": 0.0155,
      "velocity": 98,
      "chip": "ym2612"
    },
    {
      "channel": 3,
      "note": 83,
      "start": 21.2027,
      "duration": 0.016,
      "velocity": 98,
      "chip": "ym2612"
    },
    {
      "channel": 2,
      "note": 56,
      "start": 21.2039,
      "duration": 0.016,
      "velocity": 93,
      "chip": "ym2612"
    },
    {
      "channel": 1,
      "note": 75,
      "start": 21.205,
      "duration": 0.016,
      "velocity": 108,
      "chip": "ym2612"
    },
    {
      "channel": 0,
      "note": 75,
      "start": 21.2147,
      "duration": 0.0161,
      "velocity": 124,
      "chip": "ym2612"
    },
    {
      "channel": 5,
      "note": 75,
      "start": 21.2158,
      "duration": 0.0161,
      "velocity": 108,
      "chip": "ym2612"
    },
    {
      "channel": 4,
      "note": 80,
      "start": 21.217,
      "duration": 0.0161,
      "velocity": 98,
      "chip": "ym2612"
    },
    {
      "channel": 3,
      "note": 83,
      "start": 21.2187,
      "duration": 0.016,
      "velocity": 98,
      "chip": "ym2612"
    },
    {
      "channel": 2,
      "note": 56,
      "start": 21.2199,
      "duration": 0.0161,
      "velocity": 93,
      "chip": "ym2612"
    },
    {
      "channel": 1,
      "note": 75,
      "start": 21.221,
      "duration": 0.0161,
      "velocity": 108,
      "chip": "ym2612"
    },
    {
      "channel": 0,
      "note": 72,
      "start": 21.2308,
      "duration": 0.0161,
      "velocity": 124,
      "chip": "ym2612"
    },
    {
      "channel": 5,
      "note": 75,
      "start": 21.2319,
      "duration": 0.0161,
      "velocity": 108,
      "chip": "ym2612"
    },
    {
      "channel": 4,
      "note": 80,
      "start": 21.2331,
      "duration": 0.0161,
      "velocity": 98,
      "chip": "ym2612"
    },
    {
      "channel": 3,
      "note": 83,
      "start": 21.2348,
      "duration": 0.0155,
      "velocity": 98,
      "chip": "ym2612"
    },
    {
      "channel": 2,
      "note": 56,
      "start": 21.236,
      "duration": 0.0161,
      "velocity": 93,
      "chip": "ym2612"
    },
    {
      "channel": 1,
      "note": 75,
      "start": 21.2371,
      "duration": 0.0161,
      "velocity": 108,
      "chip": "ym2612"
    },
    {
      "channel": 0,
      "note": 70,
      "start": 21.2468,
      "duration": 0.0161,
      "velocity": 124,
      "chip": "ym2612"
    },
    {
      "channel": 5,
      "note": 75,
      "start": 21.248,
      "duration": 0.0161,
      "velocity": 108,
      "chip": "ym2612"
    },
    {
      "channel": 4,
      "note": 80,
      "start": 21.2491,
      "duration": 0.0161,
      "velocity": 98,
      "chip": "ym2612"
    },
    {
      "channel": 3,
      "note": 83,
      "start": 21.2503,
      "duration": 0.0161,
      "velocity": 98,
      "chip": "ym2612"
    },
    {
      "channel": 2,
      "note": 56,
      "start": 21.2521,
      "duration": 0.016,
      "velocity": 93,
      "chip": "ym2612"
    },
    {
      "channel": 1,
      "note": 75,
      "start": 21.2532,
      "duration": 0.0161,
      "velocity": 108,
      "chip": "ym2612"
    },
    {
      "channel": 0,
      "note": 68,
      "start": 21.2629,
      "duration": 0.0161,
      "velocity": 124,
      "chip": "ym2612"
    },
    {
      "channel": 5,
      "note": 75,
      "start": 21.2641,
      "duration": 0.0161,
      "velocity": 108,
      "chip": "ym2612"
    },
    {
      "channel": 4,
      "note": 80,
      "start": 21.2652,
      "duration": 0.0161,
      "velocity": 98,
      "chip": "ym2612"
    },
    {
      "channel": 3,
      "note": 83,
      "start": 21.2664,
      "duration": 0.0161,
      "velocity": 98,
      "chip": "ym2612"
    },
    {
      "channel": 2,
      "note": 56,
      "start": 21.2681,
      "duration": 0.0156,
      "velocity": 93,
      "chip": "ym2612"
    },
    {
      "channel": 1,
      "note": 75,
      "start": 21.2693,
      "duration": 0.0161,
      "velocity": 108,
      "chip": "ym2612"
    },
    {
      "channel": 0,
      "note": 65,
      "start": 21.279,
      "duration": 0.0161,
      "velocity": 124,
      "chip": "ym2612"
    },
    {
      "channel": 5,
      "note": 75,
      "start": 21.2802,
      "duration": 0.0161,
      "velocity": 108,
      "chip": "ym2612"
    },
    {
      "channel": 4,
      "note": 80,
      "start": 21.2813,
      "duration": 0.0161,
      "velocity": 98,
      "chip": "ym2612"
    },
    {
      "channel": 3,
      "note": 83,
      "start": 21.2825,
      "duration": 0.0163,
      "velocity": 98,
      "chip": "ym2612"
    },
    {
      "channel": 2,
      "note": 56,
      "start": 21.2837,
      "duration": 0.0163,
      "velocity": 93,
      "chip": "ym2612"
    },
    {
      "channel": 1,
      "note": 75,
      "start": 21.2854,
      "duration": 0.0163,
      "velocity": 108,
      "chip": "ym2612"
    },
    {
      "channel": 0,
      "note": 63,
      "start": 21.2951,
      "duration": 0.0153,
      "velocity": 1,
      "chip": "ym2612"
    },
    {
      "channel": 5,
      "note": 75,
      "start": 21.2963,
      "duration": 0.0153,
      "velocity": 108,
      "chip": "ym2612"
    },
    {
      "channel": 4,
      "note": 80,
      "start": 21.2975,
      "duration": 0.0153,
      "velocity": 98,
      "chip": "ym2612"
    },
    {
      "channel": 3,
      "note": 83,
      "start": 21.2988,
      "duration": 0.0153,
      "velocity": 98,
      "chip": "ym2612"
    },
    {
      "channel": 2,
      "note": 56,
      "start": 21.3,
      "duration": 0.0153,
      "velocity": 93,
      "chip": "ym2612"
    },
    {
      "channel": 1,
      "note": 75,
      "start": 21.3017,
      "duration": 0.0147,
      "velocity": 108,
      "chip": "ym2612"
    },
    {
      "channel": 5,
      "note": 75,
      "start": 21.3116,
      "duration": 0.0153,
      "velocity": 108,
      "chip": "ym2612"
    },
    {
      "channel": 4,
      "note": 80,
      "start": 21.3128,
      "duration": 0.0153,
      "velocity": 98,
      "chip": "ym2612"
    },
    {
      "channel": 3,
      "note": 83,
      "start": 21.314,
      "duration": 0.0153,
      "velocity": 98,
      "chip": "ym2612"
    },
    {
      "channel": 2,
      "note": 56,
      "start": 21.3152,
      "duration": 0.0153,
      "velocity": 93,
      "chip": "ym2612"
    },
    {
      "channel": 1,
      "note": 75,
      "start": 21.3164,
      "duration": 0.0153,
      "velocity": 108,
      "chip": "ym2612"
    },
    {
      "channel": 5,
      "note": 75,
      "start": 21.3269,
      "duration": 0.0161,
      "velocity": 108,
      "chip": "ym2612"
    },
    {
      "channel": 4,
      "note": 80,
      "start": 21.3281,
      "duration": 0.016,
      "velocity": 98,
      "chip": "ym2612"
    },
    {
      "channel": 3,
      "note": 83,
      "start": 21.3294,
      "duration": 0.016,
      "velocity": 98,
      "chip": "ym2612"
    },
    {
      "channel": 2,
      "note": 56,
      "start": 21.3306,
      "duration": 0.0159,
      "velocity": 93,
      "chip": "ym2612"
    },
    {
      "channel": 1,
      "note": 75,
      "start": 21.3318,
      "duration": 0.0159,
      "velocity": 108,
      "chip": "ym2612"
    },
    {
      "channel": 5,
      "note": 75,
      "start": 21.343,
      "duration": 0.016,
      "velocity": 108,
      "chip": "ym2612"
    },
    {
      "channel": 4,
      "note": 80,
      "start": 21.3441,
      "duration": 0.0161,
      "velocity": 98,
      "chip": "ym2612"
    },
    {
      "channel": 3,
      "note": 83,
      "start": 21.3453,
      "duration": 0.016,
      "velocity": 98,
      "chip": "ym2612"
    },
    {
      "channel": 2,
      "note": 56,
      "start": 21.3465,
      "duration": 0.016,
      "velocity": 93,
      "chip": "ym2612"
    },
    {
      "channel": 1,
      "note": 75,
      "start": 21.3476,
      "duration": 0.016,
      "velocity": 108,
      "chip": "ym2612"
    },
    {
      "channel": 5,
      "note": 75,
      "start": 21.359,
      "duration": 0.0161,
      "velocity": 108,
      "chip": "ym2612"
    },
    {
      "channel": 4,
      "note": 80,
      "start": 21.3602,
      "duration": 0.0161,
      "velocity": 98,
      "chip": "ym2612"
    },
    {
      "channel": 3,
      "note": 83,
      "start": 21.3614,
      "duration": 0.0161,
      "velocity": 98,
      "chip": "ym2612"
    },
    {
      "channel": 2,
      "note": 56,
      "start": 21.3625,
      "duration": 0.0161,
      "velocity": 93,
      "chip": "ym2612"
    },
    {
      "channel": 1,
      "note": 75,
      "start": 21.3637,
      "duration": 0.0161,
      "velocity": 108,
      "chip": "ym2612"
    },
    {
      "channel": 5,
      "note": 75,
      "start": 21.3751,
      "duration": 0.0161,
      "velocity": 108,
      "chip": "ym2612"
    },
    {
      "channel": 4,
      "note": 80,
      "start": 21.3763,
      "duration": 0.0161,
      "velocity": 98,
      "chip": "ym2612"
    },
    {
      "channel": 3,
      "note": 83,
      "start": 21.3775,
      "duration": 0.0161,
      "velocity": 98,
      "chip": "ym2612"
    },
    {
      "channel": 2,
      "note": 56,
      "start": 21.3786,
      "duration": 0.0161,
      "velocity": 93,
      "chip": "ym2612"
    },
    {
      "channel": 1,
      "note": 75,
      "start": 21.3798,
      "duration": 0.0161,
      "velocity": 108,
      "chip": "ym2612"
    },
    {
      "channel": 5,
      "note": 75,
      "start": 21.3912,
      "duration": 0.0161,
      "velocity": 108,
      "chip": "ym2612"
    },
    {
      "channel": 4,
      "note": 80,
      "start": 21.3924,
      "duration": 0.0161,
      "velocity": 98,
      "chip": "ym2612"
    },
    {
      "channel": 3,
      "note": 83,
      "start": 21.3935,
      "duration": 0.0162,
      "velocity": 98,
      "chip": "ym2612"
    },
    {
      "channel": 2,
      "note": 56,
      "start": 21.3947,
      "duration": 0.0163,
      "velocity": 93,
      "chip": "ym2612"
    },
    {
      "channel": 1,
      "note": 75,
      "start": 21.3959,
      "duration": 0.0163,
      "velocity": 108,
      "chip": "ym2612"
    },
    {
      "channel": 5,
      "note": 75,
      "start": 21.4073,
      "duration": 0.0162,
      "velocity": 108,
      "chip": "ym2612"
    },
    {
      "channel": 4,
      "note": 80,
      "start": 21.4085,
      "duration": 0.0162,
      "velocity": 98,
      "chip": "ym2612"
    },
    {
      "channel": 3,
      "note": 83,
      "start": 21.4098,
      "duration": 0.0162,
      "velocity": 98,
      "chip": "ym2612"
    },
    {
      "channel": 2,
      "note": 56,
      "start": 21.411,
      "duration": 0.0163,
      "velocity": 93,
      "chip": "ym2612"
    },
    {
      "channel": 1,
      "note": 75,
      "start": 21.4122,
      "duration": 0.0163,
      "velocity": 108,
      "chip": "ym2612"
    },
    {
      "channel": 5,
      "note": 75,
      "start": 21.4235,
      "duration": 0.0197,
      "velocity": 108,
      "chip": "ym2612"
    },
    {
      "channel": 2,
      "note": 56,
      "start": 21.4273,
      "duration": 0.0204,
      "velocity": 93,
      "chip": "ym2612"
    },
    {
      "channel": 0,
      "note": 36,
      "start": 21.4419,
      "duration": 0.0143,
      "velocity": 115,
      "chip": "ym2612"
    },
    {
      "channel": 5,
      "note": 75,
      "start": 21.4432,
      "duration": 0.0143,
      "velocity": 108,
      "chip": "ym2612"
    },
    {
      "channel": 4,
      "note": 80,
      "start": 21.4447,
      "duration": 0.014,
      "velocity": 98,
      "chip": "ym2612"
    },
    {
      "channel": 3,
      "note": 83,
      "start": 21.4462,
      "duration": 0.0137,
      "velocity": 98,
      "chip": "ym2612"
    },
    {
      "channel": 2,
      "note": 56,
      "start": 21.4477,
      "duration": 0.0135,
      "velocity": 93,
      "chip": "ym2612"
    },
    {
      "channel": 1,
      "note": 75,
      "start": 21.4492,
      "duration": 0.0132,
      "velocity": 108,
      "chip": "ym2612"
    },
    {
      "channel": 0,
      "note": 36,
      "start": 21.4562,
      "duration": 0.016,
      "velocity": 115,
      "chip": "ym2612"
    },
    {
      "channel": 4,
      "note": 80,
      "start": 21.4587,
      "duration": 0.0162,
      "velocity": 98,
      "chip": "ym2612"
    },
    {
      "channel": 3,
      "note": 83,
      "start": 21.46,
      "duration": 0.0161,
      "velocity": 98,
      "chip": "ym2612"
    },
    {
      "channel": 2,
      "note": 56,
      "start": 21.4612,
      "duration": 0.016,
      "velocity": 93,
      "chip": "ym2612"
    },
    {
      "channel": 1,
      "note": 75,
      "start": 21.4624,
      "duration": 0.016,
      "velocity": 108,
      "chip": "ym2612"
    },
    {
      "channel": 0,
      "note": 37,
      "start": 21.4722,
      "duration": 0.0161,
      "velocity": 115,
      "chip": "ym2612"
    },
    {
      "channel": 5,
      "note": 75,
      "start": 21.4738,
      "duration": 0.0158,
      "velocity": 108,
      "chip": "ym2612"
    },
    {
      "channel": 4,
      "note": 80,
      "start": 21.4749,
      "duration": 0.0159,
      "velocity": 98,
      "chip": "ym2612"
    },
    {
      "channel": 3,
      "note": 83,
      "start": 21.4761,
      "duration": 0.0158,
      "velocity": 98,
      "chip": "ym2612"
    },
    {
      "channel": 2,
      "note": 56,
      "start": 21.4772,
      "duration": 0.0159,
      "velocity": 93,
      "chip": "ym2612"
    },
    {
      "channel": 1,
      "note": 75,
      "start": 21.4784,
      "duration": 0.0158,
      "velocity": 108,
      "chip": "ym2612"
    },
    {
      "channel": 0,
      "note": 37,
      "start": 21.4883,
      "duration": 0.0161,
      "velocity": 115,
      "chip": "ym2612"
    },
    {
      "channel": 5,
      "note": 75,
      "start": 21.4896,
      "duration": 0.016,
      "velocity": 108,
      "chip": "ym2612"
    },
    {
      "channel": 4,
      "note": 80,
      "start": 21.4907,
      "duration": 0.016,
      "velocity": 98,
      "chip": "ym2612"
    },
    {
      "channel": 3,
      "note": 83,
      "start": 21.4919,
      "duration": 0.016,
      "velocity": 98,
      "chip": "ym2612"
    },
    {
      "channel": 2,
      "note": 56,
      "start": 21.493,
      "duration": 0.016,
      "velocity": 93,
      "chip": "ym2612"
    },
    {
      "channel": 1,
      "note": 75,
      "start": 21.4942,
      "duration": 0.0161,
      "velocity": 108,
      "chip": "ym2612"
    },
    {
      "channel": 0,
      "note": 38,
      "start": 21.5044,
      "duration": 0.0162,
      "velocity": 115,
      "chip": "ym2612"
    },
    {
      "channel": 5,
      "note": 75,
      "start": 21.5056,
      "duration": 0.0161,
      "velocity": 108,
      "chip": "ym2612"
    },
    {
      "channel": 4,
      "note": 80,
      "start": 21.5068,
      "duration": 0.0161,
      "velocity": 98,
      "chip": "ym2612"
    },
    {
      "channel": 3,
      "note": 83,
      "start": 21.5079,
      "duration": 0.0161,
      "velocity": 98,
      "chip": "ym2612"
    },
    {
      "channel": 2,
      "note": 56,
      "start": 21.5091,
      "duration": 0.0161,
      "velocity": 93,
      "chip": "ym2612"
    },
    {
      "channel": 1,
      "note": 75,
      "start": 21.5103,
      "duration": 0.0161,
      "velocity": 108,
      "chip": "ym2612"
    },
    {
      "channel": 0,
      "note": 38,
      "start": 21.5206,
      "duration": 0.0161,
      "velocity": 115,
      "chip": "ym2612"
    },
    {
      "channel": 5,
      "note": 75,
      "start": 21.5217,
      "duration": 0.0162,
      "velocity": 108,
      "chip": "ym2612"
    },
    {
      "channel": 4,
      "note": 80,
      "start": 21.5229,
      "duration": 0.0161,
      "velocity": 98,
      "chip": "ym2612"
    },
    {
      "channel": 3,
      "note": 83,
      "start": 21.524,
      "duration": 0.0162,
      "velocity": 98,
      "chip": "ym2612"
    },
    {
      "channel": 2,
      "note": 56,
      "start": 21.5252,
      "duration": 0.0161,
      "velocity": 93,
      "chip": "ym2612"
    },
    {
      "channel": 1,
      "note": 75,
      "start": 21.5264,
      "duration": 0.0161,
      "velocity": 108,
      "chip": "ym2612"
    },
    {
      "channel": 0,
      "note": 39,
      "start": 21.5367,
      "duration": 0.0164,
      "velocity": 115,
      "chip": "ym2612"
    },
    {
      "channel": 5,
      "note": 75,
      "start": 21.5379,
      "duration": 0.0164,
      "velocity": 108,
      "chip": "ym2612"
    },
    {
      "channel": 4,
      "note": 80,
      "start": 21.539,
      "duration": 0.0165,
      "velocity": 98,
      "chip": "ym2612"
    },
    {
      "channel": 3,
      "note": 83,
      "start": 21.5402,
      "duration": 0.0165,
      "velocity": 98,
      "chip": "ym2612"
    },
    {
      "channel": 2,
      "note": 56,
      "start": 21.5413,
      "duration": 0.0165,
      "velocity": 93,
      "chip": "ym2612"
    },
    {
      "channel": 1,
      "note": 75,
      "start": 21.5425,
      "duration": 0.0164,
      "velocity": 108,
      "chip": "ym2612"
    },
    {
      "channel": 0,
      "note": 39,
      "start": 21.5532,
      "duration": 0.0163,
      "velocity": 115,
      "chip": "ym2612"
    },
    {
      "channel": 5,
      "note": 75,
      "start": 21.5543,
      "duration": 0.0163,
      "velocity": 108,
      "chip": "ym2612"
    },
    {
      "channel": 4,
      "note": 80,
      "start": 21.5555,
      "duration": 0.0163,
      "velocity": 98,
      "chip": "ym2612"
    },
    {
      "channel": 3,
      "note": 83,
      "start": 21.5566,
      "duration": 0.0163,
      "velocity": 98,
      "chip": "ym2612"
    },
    {
      "channel": 2,
      "note": 56,
      "start": 21.5578,
      "duration": 0.0163,
      "velocity": 93,
      "chip": "ym2612"
    },
    {
      "channel": 1,
      "note": 75,
      "start": 21.5589,
      "duration": 0.0163,
      "velocity": 108,
      "chip": "ym2612"
    },
    {
      "channel": 0,
      "note": 40,
      "start": 21.5694,
      "duration": 0.016,
      "velocity": 115,
      "chip": "ym2612"
    },
    {
      "channel": 5,
      "note": 75,
      "start": 21.5706,
      "duration": 0.0161,
      "velocity": 108,
      "chip": "ym2612"
    },
    {
      "channel": 4,
      "note": 80,
      "start": 21.5718,
      "duration": 0.0162,
      "velocity": 98,
      "chip": "ym2612"
    },
    {
      "channel": 3,
      "note": 83,
      "start": 21.5729,
      "duration": 0.0162,
      "velocity": 98,
      "chip": "ym2612"
    },
    {
      "channel": 2,
      "note": 56,
      "start": 21.5741,
      "duration": 0.0163,
      "velocity": 93,
      "chip": "ym2612"
    },
    {
      "channel": 1,
      "note": 75,
      "start": 21.5752,
      "duration": 0.0163,
      "velocity": 108,
      "chip": "ym2612"
    },
    {
      "channel": 0,
      "note": 40,
      "start": 21.5855,
      "duration": 0.0161,
      "velocity": 115,
      "chip": "ym2612"
    },
    {
      "channel": 5,
      "note": 75,
      "start": 21.5867,
      "duration": 0.0161,
      "velocity": 108,
      "chip": "ym2612"
    },
    {
      "channel": 4,
      "note": 80,
      "start": 21.588,
      "duration": 0.0161,
      "velocity": 98,
      "chip": "ym2612"
    },
    {
      "channel": 3,
      "note": 83,
      "start": 21.5892,
      "duration": 0.0161,
      "velocity": 98,
      "chip": "ym2612"
    },
    {
      "channel": 2,
      "note": 56,
      "start": 21.5904,
      "duration": 0.016,
      "velocity": 93,
      "chip": "ym2612"
    },
    {
      "channel": 1,
      "note": 75,
      "start": 21.5916,
      "duration": 0.016,
      "velocity": 108,
      "chip": "ym2612"
    },
    {
      "channel": 0,
      "note": 40,
      "start": 21.6016,
      "duration": 0.0156,
      "velocity": 115,
      "chip": "ym2612"
    },
    {
      "channel": 5,
      "note": 75,
      "start": 21.6028,
      "duration": 0.0161,
      "velocity": 108,
      "chip": "ym2612"
    },
    {
      "channel": 4,
      "note": 80,
      "start": 21.604,
      "duration": 0.0161,
      "velocity": 98,
      "chip": "ym2612"
    },
    {
      "channel": 3,
      "note": 83,
      "start": 21.6053,
      "duration": 0.0161,
      "velocity": 98,
      "chip": "ym2612"
    },
    {
      "channel": 2,
      "note": 56,
      "start": 21.6065,
      "duration": 0.0161,
      "velocity": 93,
      "chip": "ym2612"
    },
    {
      "channel": 1,
      "note": 75,
      "start": 21.6076,
      "duration": 0.0162,
      "velocity": 108,
      "chip": "ym2612"
    },
    {
      "channel": 0,
      "note": 41,
      "start": 21.6171,
      "duration": 0.0161,
      "velocity": 115,
      "chip": "ym2612"
    },
    {
      "channel": 5,
      "note": 75,
      "start": 21.6189,
      "duration": 0.016,
      "velocity": 108,
      "chip": "ym2612"
    },
    {
      "channel": 4,
      "note": 80,
      "start": 21.6201,
      "duration": 0.016,
      "velocity": 98,
      "chip": "ym2612"
    },
    {
      "channel": 3,
      "note": 83,
      "start": 21.6213,
      "duration": 0.016,
      "velocity": 98,
      "chip": "ym2612"
    },
    {
      "channel": 2,
      "note": 56,
      "start": 21.6226,
      "duration": 0.0159,
      "velocity": 93,
      "chip": "ym2612"
    },
    {
      "channel": 0,
      "note": 41,
      "start": 21.6332,
      "duration": 0.0161,
      "velocity": 115,
      "chip": "ym2612"
    },
    {
      "channel": 5,
      "note": 75,
      "start": 21.635,
      "duration": 0.0156,
      "velocity": 108,
      "chip": "ym2612"
    },
    {
      "channel": 4,
      "note": 80,
      "start": 21.6362,
      "duration": 0.0161,
      "velocity": 98,
      "chip": "ym2612"
    },
    {
      "channel": 3,
      "note": 83,
      "start": 21.6373,
      "duration": 0.0162,
      "velocity": 98,
      "chip": "ym2612"
    },
    {
      "channel": 2,
      "note": 56,
      "start": 21.6385,
      "duration": 0.0161,
      "velocity": 93,
      "chip": "ym2612"
    },
    {
      "channel": 1,
      "note": 71,
      "start": 21.64,
      "duration": 0.0159,
      "velocity": 108,
      "chip": "ym2612"
    },
    {
      "channel": 0,
      "note": 42,
      "start": 21.6493,
      "duration": 0.0161,
      "velocity": 115,
      "chip": "ym2612"
    },
    {
      "channel": 4,
      "note": 80,
      "start": 21.6523,
      "duration": 0.0163,
      "velocity": 98,
      "chip": "ym2612"
    },
    {
      "channel": 3,
      "note": 83,
      "start": 21.6535,
      "duration": 0.0163,
      "velocity": 98,
      "chip": "ym2612"
    },
    {
      "channel": 2,
      "note": 56,
      "start": 21.6546,
      "duration": 0.0163,
      "velocity": 93,
      "chip": "ym2612"
    },
    {
      "channel": 1,
      "note": 71,
      "start": 21.6558,
      "duration": 0.0163,
      "velocity": 108,
      "chip": "ym2612"
    },
    {
      "channel": 0,
      "note": 42,
      "start": 21.6654,
      "duration": 0.0162,
      "velocity": 115,
      "chip": "ym2612"
    },
    {
      "channel": 5,
      "note": 71,
      "start": 21.6669,
      "duration": 0.0159,
      "velocity": 108,
      "chip": "ym2612"
    },
    {
      "channel": 4,
      "note": 80,
      "start": 21.6686,
      "duration": 0.0156,
      "velocity": 98,
      "chip": "ym2612"
    },
    {
      "channel": 3,
      "note": 83,
      "start": 21.6698,
      "duration": 0.0159,
      "velocity": 98,
      "chip": "ym2612"
    },
    {
      "channel": 2,
      "note": 56,
      "start": 21.671,
      "duration": 0.0159,
      "velocity": 93,
      "chip": "ym2612"
    },
    {
      "channel": 1,
      "note": 71,
      "start": 21.6722,
      "duration": 0.0158,
      "velocity": 108,
      "chip": "ym2612"
    },
    {
      "channel": 0,
      "note": 43,
      "start": 21.6816,
      "duration": 0.0161,
      "velocity": 115,
      "chip": "ym2612"
    },
    {
      "channel": 5,
      "note": 71,
      "start": 21.6828,
      "duration": 0.016,
      "velocity": 108,
      "chip": "ym2612"
    },
    {
      "channel": 4,
      "note": 80,
      "start": 21.6842,
      "duration": 0.0159,
      "velocity": 98,
      "chip": "ym2612"
    },
    {
      "channel": 3,
      "note": 83,
      "start": 21.6857,
      "duration": 0.0161,
      "velocity": 98,
      "chip": "ym2612"
    },
    {
      "channel": 2,
      "note": 56,
      "start": 21.6869,
      "duration": 0.0162,
      "velocity": 93,
      "chip": "ym2612"
    },
    {
      "channel": 1,
      "note": 71,
      "start": 21.688,
      "duration": 0.0162,
      "velocity": 108,
      "chip": "ym2612"
    },
    {
      "channel": 0,
      "note": 43,
      "start": 21.6977,
      "duration": 0.0161,
      "velocity": 115,
      "chip": "ym2612"
    },
    {
      "channel": 5,
      "note": 71,
      "start": 21.6988,
      "duration": 0.0161,
      "velocity": 108,
      "chip": "ym2612"
    },
    {
      "channel": 4,
      "note": 80,
      "start": 21.7,
      "duration": 0.0161,
      "velocity": 98,
      "chip": "ym2612"
    },
    {
      "channel": 3,
      "note": 83,
      "start": 21.7018,
      "duration": 0.0159,
      "velocity": 98,
      "chip": "ym2612"
    },
    {
      "channel": 2,
      "note": 56,
      "start": 21.7031,
      "duration": 0.0162,
      "velocity": 93,
      "chip": "ym2612"
    },
    {
      "channel": 1,
      "note": 71,
      "start": 21.7042,
      "duration": 0.0162,
      "velocity": 108,
      "chip": "ym2612"
    },
    {
      "channel": 0,
      "note": 44,
      "start": 21.7138,
      "duration": 0.0179,
      "velocity": 124,
      "chip": "ym2612"
    },
    {
      "channel": 5,
      "note": 71,
      "start": 21.7149,
      "duration": 0.018,
      "velocity": 108,
      "chip": "ym2612"
    },
    {
      "channel": 2,
      "note": 56,
      "start": 21.7193,
      "duration": 0.0188,
      "velocity": 93,
      "chip": "ym2612"
    },
    {
      "channel": 0,
      "note": 84,
      "start": 21.7317,
      "duration": 0.0143,
      "velocity": 124,
      "chip": "ym2612"
    },
    {
      "channel": 5,
      "note": 71,
      "start": 21.7329,
      "duration": 0.0142,
      "velocity": 108,
      "chip": "ym2612"
    },
    {
      "channel": 4,
      "note": 80,
      "start": 21.735,
      "duration": 0.0134,
      "velocity": 98,
      "chip": "ym2612"
    },
    {
      "channel": 3,
      "note": 83,
      "start": 21.7366,
      "duration": 0.0131,
      "velocity": 98,
      "chip": "ym2612"
    },
    {
      "channel": 2,
      "note": 56,
      "start": 21.738,
      "duration": 0.013,
      "velocity": 93,
      "chip": "ym2612"
    },
    {
      "channel": 1,
      "note": 73,
      "start": 21.7395,
      "duration": 0.0132,
      "velocity": 108,
      "chip": "ym2612"
    },
    {
      "channel": 0,
      "note": 82,
      "start": 21.746,
      "duration": 0.016,
      "velocity": 124,
      "chip": "ym2612"
    },
    {
      "channel": 4,
      "note": 80,
      "start": 21.7484,
      "duration": 0.0163,
      "velocity": 98,
      "chip": "ym2612"
    },
    {
      "channel": 3,
      "note": 83,
      "start": 21.7497,
      "duration": 0.0162,
      "velocity": 98,
      "chip": "ym2612"
    },
    {
      "channel": 2,
      "note": 56,
      "start": 21.751,
      "duration": 0.016,
      "velocity": 93,
      "chip": "ym2612"
    },
    {
      "channel": 1,
      "note": 73,
      "start": 21.7527,
      "duration": 0.016,
      "velocity": 108,
      "chip": "ym2612"
    },
    {
      "channel": 0,
      "note": 80,
      "start": 21.7621,
      "duration": 0.0161,
      "velocity": 124,
      "chip": "ym2612"
    },
    {
      "channel": 5,
      "note": 73,
      "start": 21.7635,
      "duration": 0.0159,
      "velocity": 108,
      "chip": "ym2612"
    },
    {
      "channel": 4,
      "note": 80,
      "start": 21.7647,
      "duration": 0.0158,
      "velocity": 98,
      "chip": "ym2612"
    },
    {
      "channel": 3,
      "note": 83,
      "start": 21.7659,
      "duration": 0.0159,
      "velocity": 98,
      "chip": "ym2612"
    },
    {
      "channel": 2,
      "note": 56,
      "start": 21.767,
      "duration": 0.0158,
      "velocity": 93,
      "chip": "ym2612"
    },
    {
      "channel": 1,
      "note": 73,
      "start": 21.7687,
      "duration": 0.0155,
      "velocity": 108,
      "chip": "ym2612"
    },
    {
      "channel": 0,
      "note": 77,
      "start": 21.7781,
      "duration": 0.0161,
      "velocity": 124,
      "chip": "ym2612"
    },
    {
      "channel": 5,
      "note": 73,
      "start": 21.7794,
      "duration": 0.016,
      "velocity": 108,
      "chip": "ym2612"
    },
    {
      "channel": 4,
      "note": 80,
      "start": 21.7806,
      "duration": 0.016,
      "velocity": 98,
      "chip": "ym2612"
    },
    {
      "channel": 3,
      "note": 83,
      "start": 21.7817,
      "duration": 0.016,
      "velocity": 98,
      "chip": "ym2612"
    },
    {
      "channel": 2,
      "note": 56,
      "start": 21.7829,
      "duration": 0.016,
      "velocity": 93,
      "chip": "ym2612"
    },
    {
      "channel": 1,
      "note": 73,
      "start": 21.7843,
      "duration": 0.0158,
      "velocity": 108,
      "chip": "ym2612"
    },
    {
      "channel": 0,
      "note": 75,
      "start": 21.7942,
      "duration": 0.0162,
      "velocity": 124,
      "chip": "ym2612"
    },
    {
      "channel": 5,
      "note": 73,
      "start": 21.7955,
      "duration": 0.0161,
      "velocity": 108,
      "chip": "ym2612"
    },
    {
      "channel": 4,
      "note": 80,
      "start": 21.7966,
      "duration": 0.0161,
      "velocity": 98,
      "chip": "ym2612"
    },
    {
      "channel": 3,
      "note": 83,
      "start": 21.7978,
      "duration": 0.0161,
      "velocity": 98,
      "chip": "ym2612"
    },
    {
      "channel": 2,
      "note": 56,
      "start": 21.7989,
      "duration": 0.0161,
      "velocity": 93,
      "chip": "ym2612"
    },
    {
      "channel": 1,
      "note": 73,
      "start": 21.8001,
      "duration": 0.0161,
      "velocity": 108,
      "chip": "ym2612"
    },
    {
      "channel": 0,
      "note": 72,
      "start": 21.8104,
      "duration": 0.0161,
      "velocity": 124,
      "chip": "ym2612"
    },
    {
      "channel": 5,
      "note": 73,
      "start": 21.8115,
      "duration": 0.0161,
      "velocity": 108,
      "chip": "ym2612"
    },
    {
      "channel": 4,
      "note": 80,
      "start": 21.8127,
      "duration": 0.0161,
      "velocity": 98,
      "chip": "ym2612"
    },
    {
      "channel": 3,
      "note": 83,
      "start": 21.8138,
      "duration": 0.0161,
      "velocity": 98,
      "chip": "ym2612"
    },
    {
      "channel": 2,
      "note": 56,
      "start": 21.815,
      "duration": 0.0161,
      "velocity": 93,
      "chip": "ym2612"
    },
    {
      "channel": 1,
      "note": 73,
      "start": 21.8162,
      "duration": 0.0161,
      "velocity": 108,
      "chip": "ym2612"
    },
    {
      "channel": 0,
      "note": 70,
      "start": 21.8265,
      "duration": 0.0161,
      "velocity": 124,
      "chip": "ym2612"
    },
    {
      "channel": 5,
      "note": 73,
      "start": 21.8276,
      "duration": 0.0161,
      "velocity": 108,
      "chip": "ym2612"
    },
    {
      "channel": 4,
      "note": 80,
      "start": 21.8288,
      "duration": 0.0161,
      "velocity": 98,
      "chip": "ym2612"
    },
    {
      "channel": 3,
      "note": 83,
      "start": 21.8299,
      "duration": 0.0161,
      "velocity": 98,
      "chip": "ym2612"
    },
    {
      "channel": 2,
      "note": 56,
      "start": 21.8311,
      "duration": 0.0161,
      "velocity": 93,
      "chip": "ym2612"
    },
    {
      "channel": 1,
      "note": 73,
      "start": 21.8323,
      "duration": 0.0161,
      "velocity": 108,
      "chip": "ym2612"
    },
    {
      "channel": 0,
      "note": 68,
      "start": 21.8426,
      "duration": 0.0161,
      "velocity": 124,
      "chip": "ym2612"
    },
    {
      "channel": 5,
      "note": 73,
      "start": 21.8437,
      "duration": 0.0161,
      "velocity": 108,
      "chip": "ym2612"
    },
    {
      "channel": 4,
      "note": 80,
      "start": 21.8449,
      "duration": 0.0161,
      "velocity": 98,
      "chip": "ym2612"
    },
    {
      "channel": 3,
      "note": 83,
      "start": 21.846,
      "duration": 0.0161,
      "velocity": 98,
      "chip": "ym2612"
    },
    {
      "channel": 2,
      "note": 56,
      "start": 21.8472,
      "duration": 0.0161,
      "velocity": 93,
      "chip": "ym2612"
    },
    {
      "channel": 1,
      "note": 73,
      "start": 21.8484,
      "duration": 0.0161,
      "velocity": 108,
      "chip": "ym2612"
    },
    {
      "channel": 0,
      "note": 65,
      "start": 21.8587,
      "duration": 0.0161,
      "velocity": 124,
      "chip": "ym2612"
    },
    {
      "channel": 5,
      "note": 73,
      "start": 21.8598,
      "duration": 0.0161,
      "velocity": 108,
      "chip": "ym2612"
    },
    {
      "channel": 4,
      "note": 80,
      "start": 21.861,
      "duration": 0.0162,
      "velocity": 98,
      "chip": "ym2612"
    },
    {
      "channel": 3,
      "note": 83,
      "start": 21.8621,
      "duration": 0.0163,
      "velocity": 98,
      "chip": "ym2612"
    },
    {
      "channel": 2,
      "note": 56,
      "start": 21.8633,
      "duration": 0.0163,
      "velocity": 93,
      "chip": "ym2612"
    },
    {
      "channel": 1,
      "note": 73,
      "start": 21.8645,
      "duration": 0.0163,
      "velocity": 108,
      "chip": "ym2612"
    },
    {
      "channel": 0,
      "note": 63,
      "start": 21.8748,
      "duration": 0.0153,
      "velocity": 1,
      "chip": "ym2612"
    },
    {
      "channel": 5,
      "note": 73,
      "start": 21.8759,
      "duration": 0.0153,
      "velocity": 108,
      "chip": "ym2612"
    },
    {
      "channel": 4,
      "note": 80,
      "start": 21.8771,
      "duration": 0.0153,
      "velocity": 98,
      "chip": "ym2612"
    },
    {
      "channel": 3,
      "note": 83,
      "start": 21.8784,
      "duration": 0.0153,
      "velocity": 98,
      "chip": "ym2612"
    },
    {
      "channel": 2,
      "note": 56,
      "start": 21.8796,
      "duration": 0.0153,
      "velocity": 93,
      "chip": "ym2612"
    },
    {
      "channel": 1,
      "note": 73,
      "start": 21.8808,
      "duration": 0.0152,
      "velocity": 108,
      "chip": "ym2612"
    },
    {
      "channel": 5,
      "note": 73,
      "start": 21.8912,
      "duration": 0.0152,
      "velocity": 108,
      "chip": "ym2612"
    },
    {
      "channel": 4,
      "note": 80,
      "start": 21.8925,
      "duration": 0.0152,
      "velocity": 98,
      "chip": "ym2612"
    },
    {
      "channel": 3,
      "note": 83,
      "start": 21.8937,
      "duration": 0.0152,
      "velocity": 98,
      "chip": "ym2612"
    },
    {
      "channel": 2,
      "note": 56,
      "start": 21.8949,
      "duration": 0.0153,
      "velocity": 93,
      "chip": "ym2612"
    },
    {
      "channel": 1,
      "note": 73,
      "start": 21.896,
      "duration": 0.0153,
      "velocity": 108,
      "chip": "ym2612"
    },
    {
      "channel": 5,
      "note": 73,
      "start": 21.9065,
      "duration": 0.0197,
      "velocity": 108,
      "chip": "ym2612"
    },
    {
      "channel": 4,
      "note": 80,
      "start": 21.9077,
      "duration": 0.0196,
      "velocity": 98,
      "chip": "ym2612"
    },
    {
      "channel": 3,
      "note": 83,
      "start": 21.9089,
      "duration": 0.0195,
      "velocity": 98,
      "chip": "ym2612"
    },
    {
      "channel": 2,
      "note": 56,
      "start": 21.9102,
      "duration": 0.0194,
      "velocity": 93,
      "chip": "ym2612"
    },
    {
      "channel": 0,
      "note": 36,
      "start": 21.9249,
      "duration": 0.0143,
      "velocity": 115,
      "chip": "ym2612"
    },
    {
      "channel": 5,
      "note": 73,
      "start": 21.9261,
      "duration": 0.0143,
      "velocity": 108,
      "chip": "ym2612"
    },
    {
      "channel": 4,
      "note": 80,
      "start": 21.9273,
      "duration": 0.0143,
      "velocity": 98,
      "chip": "ym2612"
    },
    {
      "channel": 3,
      "note": 83,
      "start": 21.9284,
      "duration": 0.0143,
      "velocity": 98,
      "chip": "ym2612"
    },
    {
      "channel": 2,
      "note": 56,
      "start": 21.9295,
      "duration": 0.0143,
      "velocity": 93,
      "chip": "ym2612"
    },
    {
      "channel": 1,
      "note": 71,
      "start": 21.9311,
      "duration": 0.0141,
      "velocity": 108,
      "chip": "ym2612"
    },
    {
      "channel": 0,
      "note": 36,
      "start": 21.9392,
      "duration": 0.016,
      "velocity": 115,
      "chip": "ym2612"
    },
    {
      "channel": 4,
      "note": 80,
      "start": 21.9416,
      "duration": 0.0164,
      "velocity": 98,
      "chip": "ym2612"
    },
    {
      "channel": 3,
      "note": 83,
      "start": 21.9427,
      "duration": 0.0164,
      "velocity": 98,
      "chip": "ym2612"
    },
    {
      "channel": 2,
      "note": 56,
      "start": 21.9439,
      "duration": 0.0164,
      "velocity": 93,
      "chip": "ym2612"
    },
    {
      "channel": 1,
      "note": 71,
      "start": 21.9451,
      "duration": 0.0163,
      "velocity": 108,
      "chip": "ym2612"
    },
    {
      "channel": 0,
      "note": 37,
      "start": 21.9553,
      "duration": 0.0161,
      "velocity": 115,
      "chip": "ym2612"
    },
    {
      "channel": 5,
      "note": 71,
      "start": 21.9568,
      "duration": 0.0158,
      "velocity": 108,
      "chip": "ym2612"
    },
    {
      "channel": 4,
      "note": 80,
      "start": 21.958,
      "duration": 0.0158,
      "velocity": 98,
      "chip": "ym2612"
    },
    {
      "channel": 3,
      "note": 83,
      "start": 21.9591,
      "duration": 0.0158,
      "velocity": 98,
      "chip": "ym2612"
    },
    {
      "channel": 2,
      "note": 56,
      "start": 21.9603,
      "duration": 0.0158,
      "velocity": 93,
      "chip": "ym2612"
    },
    {
      "channel": 1,
      "note": 71,
      "start": 21.9614,
      "duration": 0.0158,
      "velocity": 108,
      "chip": "ym2612"
    },
    {
      "channel": 0,
      "note": 37,
      "start": 21.9714,
      "duration": 0.0162,
      "velocity": 115,
      "chip": "ym2612"
    },
    {
      "channel": 5,
      "note": 71,
      "start": 21.9726,
      "duration": 0.0161,
      "velocity": 108,
      "chip": "ym2612"
    },
    {
      "channel": 4,
      "note": 80,
      "start": 21.9738,
      "duration": 0.0161,
      "velocity": 98,
      "chip": "ym2612"
    },
    {
      "channel": 3,
      "note": 83,
      "start": 21.9749,
      "duration": 0.0162,
      "velocity": 98,
      "chip": "ym2612"
    },
    {
      "channel": 2,
      "note": 56,
      "start": 21.9761,
      "duration": 0.0163,
      "velocity": 93,
      "chip": "ym2612"
    },
    {
      "channel": 1,
      "note": 71,
      "start": 21.9773,
      "duration": 0.0163,
      "velocity": 108,
      "chip": "ym2612"
    },
    {
      "channel": 0,
      "note": 38,
      "start": 21.9876,
      "duration": 0.0161,
      "velocity": 115,
      "chip": "ym2612"
    },
    {
      "channel": 5,
      "note": 71,
      "start": 21.9887,
      "duration": 0.0161,
      "velocity": 108,
      "chip": "ym2612"
    },
    {
      "channel": 4,
      "note": 80,
      "start": 21.9899,
      "duration": 0.0162,
      "velocity": 98,
      "chip": "ym2612"
    },
    {
      "channel": 3,
      "note": 83,
      "start": 21.9911,
      "duration": 0.0161,
      "velocity": 98,
      "chip": "ym2612"
    },
    {
      "channel": 2,
      "note": 56,
      "start": 21.9924,
      "duration": 0.0161,
      "velocity": 93,
      "chip": "ym2612"
    },
    {
      "channel": 1,
      "note": 71,
      "start": 21.9935,
      "duration": 0.0162,
      "velocity": 108,
      "chip": "ym2612"
    },
    {
      "channel": 0,
      "note": 38,
      "start": 22.0037,
      "duration": 0.0164,
      "velocity": 115,
      "chip": "ym2612"
    },
    {
      "channel": 5,
      "note": 71,
      "start": 22.0048,
      "duration": 0.0164,
      "velocity": 108,
      "chip": "ym2612"
    },
    {
      "channel": 2,
      "note": 56,
      "start": 22.0085,
      "duration": 0.0172,
      "velocity": 93,
      "chip": "ym2612"
    },
    {
      "channel": 1,
      "note": 71,
      "start": 22.0097,
      "duration": 0.0173,
      "velocity": 108,
      "chip": "ym2612"
    },
    {
      "channel": 0,
      "note": 39,
      "start": 22.0201,
      "duration": 0.0163,
      "velocity": 115,
      "chip": "ym2612"
    },
    {
      "channel": 5,
      "note": 71,
      "start": 22.0212,
      "duration": 0.0163,
      "velocity": 108,
      "chip": "ym2612"
    },
    {
      "channel": 4,
      "note": 80,
      "start": 22.0227,
      "duration": 0.016,
      "velocity": 98,
      "chip": "ym2612"
    },
    {
      "channel": 3,
      "note": 83,
      "start": 22.0243,
      "duration": 0.0157,
      "velocity": 98,
      "chip": "ym2612"
    },
    {
      "channel": 2,
      "note": 56,
      "start": 22.0258,
      "duration": 0.0154,
      "velocity": 93,
      "chip": "ym2612"
    },
    {
      "channel": 1,
      "note": 71,
      "start": 22.027,
      "duration": 0.0154,
      "velocity": 108,
      "chip": "ym2612"
    },
    {
      "channel": 0,
      "note": 39,
      "start": 22.0363,
      "duration": 0.0162,
      "velocity": 115,
      "chip": "ym2612"
    },
    {
      "channel": 5,
      "note": 71,
      "start": 22.0376,
      "duration": 0.0161,
      "velocity": 108,
      "chip": "ym2612"
    },
    {
      "channel": 4,
      "note": 80,
      "start": 22.0388,
      "duration": 0.0161,
      "velocity": 98,
      "chip": "ym2612"
    },
    {
      "channel": 3,
      "note": 83,
      "start": 22.04,
      "duration": 0.016,
      "velocity": 98,
      "chip": "ym2612"
    },
    {
      "channel": 2,
      "note": 56,
      "start": 22.0412,
      "duration": 0.016,
      "velocity": 93,
      "chip": "ym2612"
    },
    {
      "channel": 1,
      "note": 71,
      "start": 22.0424,
      "duration": 0.016,
      "velocity": 108,
      "chip": "ym2612"
    },
    {
      "channel": 0,
      "note": 40,
      "start": 22.0525,
      "duration": 0.016,
      "velocity": 115,
      "chip": "ym2612"
    },
    {
      "channel": 5,
      "note": 71,
      "start": 22.0537,
      "duration": 0.0161,
      "velocity": 108,
      "chip": "ym2612"
    },
    {
      "channel": 4,
      "note": 80,
      "start": 22.0549,
      "duration": 0.0161,
      "velocity": 98,
      "chip": "ym2612"
    },
    {
      "channel": 3,
      "note": 83,
      "start": 22.056,
      "duration": 0.0161,
      "velocity": 98,
      "chip": "ym2612"
    },
    {
      "channel": 2,
      "note": 56,
      "start": 22.0572,
      "duration": 0.0161,
      "velocity": 93,
      "chip": "ym2612"
    },
    {
      "channel": 1,
      "note": 71,
      "start": 22.0584,
      "duration": 0.016,
      "velocity": 108,
      "chip": "ym2612"
    },
    {
      "channel": 0,
      "note": 40,
      "start": 22.0685,
      "duration": 0.0158,
      "velocity": 115,
      "chip": "ym2612"
    },
    {
      "channel": 5,
      "note": 71,
      "start": 22.0698,
      "duration": 0.016,
      "velocity": 108,
      "chip": "ym2612"
    },
    {
      "channel": 4,
      "note": 80,
      "start": 22.071,
      "duration": 0.016,
      "velocity": 98,
      "chip": "ym2612"
    },
    {
      "channel": 3,
      "note": 83,
      "start": 22.0721,
      "duration": 0.016,
      "velocity": 98,
      "chip": "ym2612"
    },
    {
      "channel": 2,
      "note": 56,
      "start": 22.0733,
      "duration": 0.016,
      "velocity": 93,
      "chip": "ym2612"
    },
    {
      "channel": 1,
      "note": 71,
      "start": 22.0745,
      "duration": 0.016,
      "velocity": 108,
      "chip": "ym2612"
    },
    {
      "channel": 0,
      "note": 40,
      "start": 22.0843,
      "duration": 0.0158,
      "velocity": 115,
      "chip": "ym2612"
    },
    {
      "channel": 5,
      "note": 71,
      "start": 22.0859,
      "duration": 0.016,
      "velocity": 108,
      "chip": "ym2612"
    },
    {
      "channel": 4,
      "note": 80,
      "start": 22.087,
      "duration": 0.0161,
      "velocity": 98,
      "chip": "ym2612"
    },
    {
      "channel": 3,
      "note": 83,
      "start": 22.0881,
      "duration": 0.0161,
      "velocity": 98,
      "chip": "ym2612"
    },
    {
      "channel": 2,
      "note": 56,
      "start": 22.0893,
      "duration": 0.0161,
      "velocity": 93,
      "chip": "ym2612"
    },
    {
      "channel": 1,
      "note": 71,
      "start": 22.0905,
      "duration": 0.0161,
      "velocity": 108,
      "chip": "ym2612"
    },
    {
      "channel": 0,
      "note": 41,
      "start": 22.1002,
      "duration": 0.0162,
      "velocity": 115,
      "chip": "ym2612"
    },
    {
      "channel": 5,
      "note": 71,
      "start": 22.1019,
      "duration": 0.0158,
      "velocity": 108,
      "chip": "ym2612"
    },
    {
      "channel": 4,
      "note": 80,
      "start": 22.1031,
      "duration": 0.0161,
      "velocity": 98,
      "chip": "ym2612"
    },
    {
      "channel": 3,
      "note": 83,
      "start": 22.1042,
      "duration": 0.0161,
      "velocity": 98,
      "chip": "ym2612"
    },
    {
      "channel": 2,
      "note": 56,
      "start": 22.1054,
      "duration": 0.0161,
      "velocity": 93,
      "chip": "ym2612"
    },
    {
      "channel": 0,
      "note": 41,
      "start": 22.1163,
      "duration": 0.0161,
      "velocity": 115,
      "chip": "ym2612"
    },
    {
      "channel": 5,
      "note": 71,
      "start": 22.1177,
      "duration": 0.0159,
      "velocity": 108,
      "chip": "ym2612"
    },
    {
      "channel": 4,
      "note": 80,
      "start": 22.1192,
      "duration": 0.0161,
      "velocity": 98,
      "chip": "ym2612"
    },
    {
      "channel": 3,
      "note": 83,
      "start": 22.1204,
      "duration": 0.0161,
      "velocity": 98,
      "chip": "ym2612"
    },
    {
      "channel": 2,
      "note": 56,
      "start": 22.1215,
      "duration": 0.0161,
      "velocity": 93,
      "chip": "ym2612"
    },
    {
      "channel": 0,
      "note": 42,
      "start": 22.1324,
      "duration": 0.0161,
      "velocity": 115,
      "chip": "ym2612"
    },
    {
      "channel": 4,
      "note": 80,
      "start": 22.1353,
      "duration": 0.0163,
      "velocity": 98,
      "chip": "ym2612"
    },
    {
      "channel": 3,
      "note": 83,
      "start": 22.1365,
      "duration": 0.0163,
      "velocity": 98,
      "chip": "ym2612"
    },
    {
      "channel": 2,
      "note": 56,
      "start": 22.1376,
      "duration": 0.0163,
      "velocity": 93,
      "chip": "ym2612"
    },
    {
      "channel": 0,
      "note": 42,
      "start": 22.1485,
      "duration": 0.0161,
      "velocity": 115,
      "chip": "ym2612"
    },
    {
      "channel": 4,
      "note": 80,
      "start": 22.1516,
      "duration": 0.0155,
      "velocity": 98,
      "chip": "ym2612"
    },
    {
      "channel": 3,
      "note": 83,
      "start": 22.1528,
      "duration": 0.0161,
      "velocity": 98,
      "chip": "ym2612"
    },
    {
      "channel": 2,
      "note": 56,
      "start": 22.1539,
      "duration": 0.0162,
      "velocity": 93,
      "chip": "ym2612"
    },
    {
      "channel": 0,
      "note": 43,
      "start": 22.1646,
      "duration": 0.0161,
      "velocity": 115,
      "chip": "ym2612"
    },
    {
      "channel": 4,
      "note": 80,
      "start": 22.1671,
      "duration": 0.016,
      "velocity": 98,
      "chip": "ym2612"
    },
    {
      "channel": 3,
      "note": 83,
      "start": 22.1689,
      "duration": 0.016,
      "velocity": 98,
      "chip": "ym2612"
    },
    {
      "channel": 2,
      "note": 56,
      "start": 22.1701,
      "duration": 0.016,
      "velocity": 93,
      "chip": "ym2612"
    },
    {
      "channel": 0,
      "note": 43,
      "start": 22.1807,
      "duration": 0.0161,
      "velocity": 115,
      "chip": "ym2612"
    },
    {
      "channel": 4,
      "note": 80,
      "start": 22.1831,
      "duration": 0.0162,
      "velocity": 98,
      "chip": "ym2612"
    },
    {
      "channel": 3,
      "note": 83,
      "start": 22.1849,
      "duration": 0.0156,
      "velocity": 98,
      "chip": "ym2612"
    },
    {
      "channel": 2,
      "note": 56,
      "start": 22.1862,
      "duration": 0.0162,
      "velocity": 93,
      "chip": "ym2612"
    },
    {
      "channel": 0,
      "note": 44,
      "start": 22.1968,
      "duration": 0.018,
      "velocity": 115,
      "chip": "ym2612"
    },
    {
      "channel": 4,
      "note": 80,
      "start": 22.1993,
      "duration": 0.0179,
      "velocity": 98,
      "chip": "ym2612"
    },
    {
      "channel": 3,
      "note": 83,
      "start": 22.2005,
      "duration": 0.0185,
      "velocity": 98,
      "chip": "ym2612"
    },
    {
      "channel": 2,
      "note": 56,
      "start": 22.2023,
      "duration": 0.0177,
      "velocity": 93,
      "chip": "ym2612"
    },
    {
      "channel": 0,
      "note": 36,
      "start": 22.2147,
      "duration": 0.0143,
      "velocity": 115,
      "chip": "ym2612"
    },
    {
      "channel": 4,
      "note": 80,
      "start": 22.2171,
      "duration": 0.0143,
      "velocity": 98,
      "chip": "ym2612"
    },
    {
      "channel": 3,
      "note": 83,
      "start": 22.2189,
      "duration": 0.0137,
      "velocity": 98,
      "chip": "ym2612"
    },
    {
      "channel": 2,
      "note": 56,
      "start": 22.2201,
      "duration": 0.0137,
      "velocity": 93,
      "chip": "ym2612"
    },
    {
      "channel": 1,
      "note": 71,
      "start": 22.2229,
      "duration": 0.0127,
      "velocity": 103,
      "chip": "ym2612"
    },
    {
      "channel": 0,
      "note": 36,
      "start": 22.229,
      "duration": 0.016,
      "velocity": 115,
      "chip": "ym2612"
    },
    {
      "channel": 4,
      "note": 80,
      "start": 22.2315,
      "duration": 0.016,
      "velocity": 98,
      "chip": "ym2612"
    },
    {
      "channel": 3,
      "note": 83,
      "start": 22.2327,
      "duration": 0.016,
      "velocity": 98,
      "chip": "ym2612"
    },
    {
      "channel": 2,
      "note": 56,
      "start": 22.2338,
      "duration": 0.016,
      "velocity": 93,
      "chip": "ym2612"
    },
    {
      "channel": 1,
      "note": 71,
      "start": 22.2356,
      "duration": 0.0159,
      "velocity": 103,
      "chip": "ym2612"
    },
    {
      "channel": 0,
      "note": 37,
      "start": 22.2451,
      "duration": 0.0161,
      "velocity": 115,
      "chip": "ym2612"
    },
    {
      "channel": 4,
      "note": 80,
      "start": 22.2475,
      "duration": 0.0161,
      "velocity": 98,
      "chip": "ym2612"
    },
    {
      "channel": 3,
      "note": 83,
      "start": 22.2486,
      "duration": 0.0161,
      "velocity": 98,
      "chip": "ym2612"
    },
    {
      "channel": 2,
      "note": 56,
      "start": 22.2498,
      "duration": 0.0162,
      "velocity": 93,
      "chip": "ym2612"
    },
    {
      "channel": 1,
      "note": 71,
      "start": 22.2515,
      "duration": 0.0156,
      "velocity": 103,
      "chip": "ym2612"
    },
    {
      "channel": 0,
      "note": 37,
      "start": 22.2612,
      "duration": 0.0162,
      "velocity": 115,
      "chip": "ym2612"
    },
    {
      "channel": 4,
      "note": 80,
      "start": 22.2636,
      "duration": 0.0162,
      "velocity": 98,
      "chip": "ym2612"
    },
    {
      "channel": 3,
      "note": 83,
      "start": 22.2648,
      "duration": 0.0162,
      "velocity": 98,
      "chip": "ym2612"
    },
    {
      "channel": 2,
      "note": 56,
      "start": 22.2659,
      "duration": 0.0163,
      "velocity": 93,
      "chip": "ym2612"
    },
    {
      "channel": 1,
      "note": 71,
      "start": 22.2671,
      "duration": 0.0163,
      "velocity": 103,
      "chip": "ym2612"
    },
    {
      "channel": 0,
      "note": 38,
      "start": 22.2773,
      "duration": 0.0161,
      "velocity": 115,
      "chip": "ym2612"
    },
    {
      "channel": 4,
      "note": 80,
      "start": 22.2798,
      "duration": 0.0161,
      "velocity": 98,
      "chip": "ym2612"
    },
    {
      "channel": 3,
      "note": 83,
      "start": 22.281,
      "duration": 0.0161,
      "velocity": 98,
      "chip": "ym2612"
    },
    {
      "channel": 2,
      "note": 56,
      "start": 22.2822,
      "duration": 0.0162,
      "velocity": 93,
      "chip": "ym2612"
    },
    {
      "channel": 0,
      "note": 38,
      "start": 22.2934,
      "duration": 0.0179,
      "velocity": 124,
      "chip": "ym2612"
    },
    {
      "channel": 2,
      "note": 56,
      "start": 22.2984,
      "duration": 0.0208,
      "velocity": 93,
      "chip": "ym2612"
    },
    {
      "channel": 0,
      "note": 84,
      "start": 22.3114,
      "duration": 0.0143,
      "velocity": 124,
      "chip": "ym2612"
    },
    {
      "channel": 5,
      "note": 71,
      "start": 22.3143,
      "duration": 0.0126,
      "velocity": 102,
      "chip": "ym2612"
    },
    {
      "channel": 4,
      "note": 80,
      "start": 22.3157,
      "duration": 0.0124,
      "velocity": 98,
      "chip": "ym2612"
    },
    {
      "channel": 3,
      "note": 83,
      "start": 22.3172,
      "duration": 0.0121,
      "velocity": 98,
      "chip": "ym2612"
    },
    {
      "channel": 2,
      "note": 56,
      "start": 22.3193,
      "duration": 0.0112,
      "velocity": 93,
      "chip": "ym2612"
    },
    {
      "channel": 1,
      "note": 68,
      "start": 22.3208,
      "duration": 0.011,
      "velocity": 103,
      "chip": "ym2612"
    },
    {
      "channel": 0,
      "note": 82,
      "start": 22.3257,
      "duration": 0.016,
      "velocity": 124,
      "chip": "ym2612"
    },
    {
      "channel": 5,
      "note": 71,
      "start": 22.3269,
      "duration": 0.016,
      "velocity": 102,
      "chip": "ym2612"
    },
    {
      "channel": 4,
      "note": 80,
      "start": 22.3281,
      "duration": 0.016,
      "velocity": 98,
      "chip": "ym2612"
    },
    {
      "channel": 3,
      "note": 83,
      "start": 22.3293,
      "duration": 0.0159,
      "velocity": 98,
      "chip": "ym2612"
    },
    {
      "channel": 2,
      "note": 56,
      "start": 22.3305,
      "duration": 0.0159,
      "velocity": 93,
      "chip": "ym2612"
    },
    {
      "channel": 1,
      "note": 68,
      "start": 22.3317,
      "duration": 0.0158,
      "velocity": 103,
      "chip": "ym2612"
    },
    {
      "channel": 0,
      "note": 80,
      "start": 22.3417,
      "duration": 0.0161,
      "velocity": 124,
      "chip": "ym2612"
    },
    {
      "channel": 5,
      "note": 71,
      "start": 22.3429,
      "duration": 0.0161,
      "velocity": 102,
      "chip": "ym2612"
    },
    {
      "channel": 4,
      "note": 80,
      "start": 22.3441,
      "duration": 0.0161,
      "velocity": 98,
      "chip": "ym2612"
    },
    {
      "channel": 3,
      "note": 83,
      "start": 22.3452,
      "duration": 0.0161,
      "velocity": 98,
      "chip": "ym2612"
    },
    {
      "channel": 2,
      "note": 56,
      "start": 22.3463,
      "duration": 0.0161,
      "velocity": 93,
      "chip": "ym2612"
    },
    {
      "channel": 1,
      "note": 68,
      "start": 22.3475,
      "duration": 0.0161,
      "velocity": 103,
      "chip": "ym2612"
    },
    {
      "channel": 0,
      "note": 77,
      "start": 22.3578,
      "duration": 0.0161,
      "velocity": 124,
      "chip": "ym2612"
    },
    {
      "channel": 5,
      "note": 71,
      "start": 22.3589,
      "duration": 0.0162,
      "velocity": 102,
      "chip": "ym2612"
    },
    {
      "channel": 4,
      "note": 80,
      "start": 22.3602,
      "duration": 0.0161,
      "velocity": 98,
      "chip": "ym2612"
    },
    {
      "channel": 3,
      "note": 83,
      "start": 22.3613,
      "duration": 0.0161,
      "velocity": 98,
      "chip": "ym2612"
    },
    {
      "channel": 2,
      "note": 56,
      "start": 22.3624,
      "duration": 0.0161,
      "velocity": 93,
      "chip": "ym2612"
    },
    {
      "channel": 1,
      "note": 68,
      "start": 22.3636,
      "duration": 0.0162,
      "velocity": 103,
      "chip": "ym2612"
    },
    {
      "channel": 0,
      "note": 75,
      "start": 22.3739,
      "duration": 0.0161,
      "velocity": 124,
      "chip": "ym2612"
    },
    {
      "channel": 4,
      "note": 80,
      "start": 22.3762,
      "duration": 0.0161,
      "velocity": 98,
      "chip": "ym2612"
    },
    {
      "channel": 3,
      "note": 83,
      "start": 22.3774,
      "duration": 0.0161,
      "velocity": 98,
      "chip": "ym2612"
    },
    {
      "channel": 2,
      "note": 56,
      "start": 22.3785,
      "duration": 0.0161,
      "velocity": 93,
      "chip": "ym2612"
    },
    {
      "channel": 1,
      "note": 68,
      "start": 22.3798,
      "duration": 0.016,
      "velocity": 103,
      "chip": "ym2612"
    },
    {
      "channel": 0,
      "note": 72,
      "start": 22.39,
      "duration": 0.016,
      "velocity": 124,
      "chip": "ym2612"
    },
    {
      "channel": 4,
      "note": 80,
      "start": 22.3923,
      "duration": 0.0163,
      "velocity": 98,
      "chip": "ym2612"
    },
    {
      "channel": 3,
      "note": 83,
      "start": 22.3935,
      "duration": 0.0164,
      "velocity": 98,
      "chip": "ym2612"
    },
    {
      "channel": 2,
      "note": 56,
      "start": 22.3946,
      "duration": 0.0164,
      "velocity": 93,
      "chip": "ym2612"
    },
    {
      "channel": 1,
      "note": 68,
      "start": 22.3958,
      "duration": 0.0164,
      "velocity": 103,
      "chip": "ym2612"
    },
    {
      "channel": 0,
      "note": 70,
      "start": 22.4061,
      "duration": 0.0162,
      "velocity": 124,
      "chip": "ym2612"
    },
    {
      "channel": 5,
      "note": 68,
      "start": 22.4076,
      "duration": 0.0159,
      "velocity": 102,
      "chip": "ym2612"
    },
    {
      "channel": 4,
      "note": 80,
      "start": 22.4087,
      "duration": 0.0159,
      "velocity": 98,
      "chip": "ym2612"
    },
    {
      "channel": 3,
      "note": 83,
      "start": 22.4099,
      "duration": 0.0159,
      "velocity": 98,
      "chip": "ym2612"
    },
    {
      "channel": 2,
      "note": 56,
      "start": 22.411,
      "duration": 0.0158,
      "velocity": 93,
      "chip": "ym2612"
    },
    {
      "channel": 1,
      "note": 68,
      "start": 22.4122,
      "duration": 0.0159,
      "velocity": 103,
      "chip": "ym2612"
    },
    {
      "channel": 0,
      "note": 68,
      "start": 22.4222,
      "duration": 0.0161,
      "velocity": 124,
      "chip": "ym2612"
    },
    {
      "channel": 5,
      "note": 68,
      "start": 22.4234,
      "duration": 0.016,
      "velocity": 102,
      "chip": "ym2612"
    },
    {
      "channel": 4,
      "note": 80,
      "start": 22.4246,
      "duration": 0.016,
      "velocity": 98,
      "chip": "ym2612"
    },
    {
      "channel": 3,
      "note": 83,
      "start": 22.4257,
      "duration": 0.016,
      "velocity": 98,
      "chip": "ym2612"
    },
    {
      "channel": 2,
      "note": 56,
      "start": 22.4269,
      "duration": 0.016,
      "velocity": 93,
      "chip": "ym2612"
    },
    {
      "channel": 1,
      "note": 68,
      "start": 22.428,
      "duration": 0.0161,
      "velocity": 103,
      "chip": "ym2612"
    },
    {
      "channel": 0,
      "note": 65,
      "start": 22.4383,
      "duration": 0.0161,
      "velocity": 124,
      "chip": "ym2612"
    },
    {
      "channel": 5,
      "note": 68,
      "start": 22.4395,
      "duration": 0.0161,
      "velocity": 102,
      "chip": "ym2612"
    },
    {
      "channel": 4,
      "note": 80,
      "start": 22.4406,
      "duration": 0.0162,
      "velocity": 98,
      "chip": "ym2612"
    },
    {
      "channel": 3,
      "note": 83,
      "start": 22.4418,
      "duration": 0.0163,
      "velocity": 98,
      "chip": "ym2612"
    },
    {
      "channel": 2,
      "note": 56,
      "start": 22.4429,
      "duration": 0.0163,
      "velocity": 93,
      "chip": "ym2612"
    },
    {
      "channel": 1,
      "note": 68,
      "start": 22.4441,
      "duration": 0.0163,
      "velocity": 103,
      "chip": "ym2612"
    },
    {
      "channel": 0,
      "note": 63,
      "start": 22.4544,
      "duration": 0.0153,
      "velocity": 1,
      "chip": "ym2612"
    },
    {
      "channel": 5,
      "note": 68,
      "start": 22.4556,
      "duration": 0.0153,
      "velocity": 102,
      "chip": "ym2612"
    },
    {
      "channel": 4,
      "note": 80,
      "start": 22.4568,
      "duration": 0.0153,
      "velocity": 98,
      "chip": "ym2612"
    },
    {
      "channel": 3,
      "note": 83,
      "start": 22.458,
      "duration": 0.0153,
      "velocity": 98,
      "chip": "ym2612"
    },
    {
      "channel": 2,
      "note": 56,
      "start": 22.4593,
      "duration": 0.0153,
      "velocity": 93,
      "chip": "ym2612"
    },
    {
      "channel": 1,
      "note": 68,
      "start": 22.4604,
      "duration": 0.0153,
      "velocity": 103,
      "chip": "ym2612"
    },
    {
      "channel": 5,
      "note": 68,
      "start": 22.4709,
      "duration": 0.0154,
      "velocity": 102,
      "chip": "ym2612"
    },
    {
      "channel": 4,
      "note": 80,
      "start": 22.4721,
      "duration": 0.0155,
      "velocity": 98,
      "chip": "ym2612"
    },
    {
      "channel": 3,
      "note": 83,
      "start": 22.4733,
      "duration": 0.0155,
      "velocity": 98,
      "chip": "ym2612"
    },
    {
      "channel": 2,
      "note": 56,
      "start": 22.4745,
      "duration": 0.0154,
      "velocity": 93,
      "chip": "ym2612"
    },
    {
      "channel": 5,
      "note": 68,
      "start": 22.4863,
      "duration": 0.0199,
      "velocity": 102,
      "chip": "ym2612"
    },
    {
      "channel": 4,
      "note": 80,
      "start": 22.4876,
      "duration": 0.0198,
      "velocity": 98,
      "chip": "ym2612"
    },
    {
      "channel": 3,
      "note": 83,
      "start": 22.4888,
      "duration": 0.0197,
      "velocity": 98,
      "chip": "ym2612"
    },
    {
      "channel": 2,
      "note": 56,
      "start": 22.49,
      "duration": 0.0197,
      "velocity": 93,
      "chip": "ym2612"
    },
    {
      "channel": 0,
      "note": 36,
      "start": 22.505,
      "duration": 0.0145,
      "velocity": 115,
      "chip": "ym2612"
    },
    {
      "channel": 5,
      "note": 68,
      "start": 22.5062,
      "duration": 0.0144,
      "velocity": 102,
      "chip": "ym2612"
    },
    {
      "channel": 4,
      "note": 80,
      "start": 22.5073,
      "duration": 0.0144,
      "velocity": 98,
      "chip": "ym2612"
    },
    {
      "channel": 3,
      "note": 83,
      "start": 22.5085,
      "duration": 0.0144,
      "velocity": 98,
      "chip": "ym2612"
    },
    {
      "channel": 2,
      "note": 56,
      "start": 22.5096,
      "duration": 0.0144,
      "velocity": 93,
      "chip": "ym2612"
    },
    {
      "channel": 1,
      "note": 69,
      "start": 22.5111,
      "duration": 0.0142,
      "velocity": 103,
      "chip": "ym2612"
    },
    {
      "channel": 0,
      "note": 36,
      "start": 22.5195,
      "duration": 0.016,
      "velocity": 115,
      "chip": "ym2612"
    },
    {
      "channel": 5,
      "note": 68,
      "start": 22.5206,
      "duration": 0.016,
      "velocity": 102,
      "chip": "ym2612"
    },
    {
      "channel": 4,
      "note": 80,
      "start": 22.5218,
      "duration": 0.016,
      "velocity": 98,
      "chip": "ym2612"
    },
    {
      "channel": 3,
      "note": 83,
      "start": 22.5229,
      "duration": 0.016,
      "velocity": 98,
      "chip": "ym2612"
    },
    {
      "channel": 2,
      "note": 56,
      "start": 22.5241,
      "duration": 0.016,
      "velocity": 93,
      "chip": "ym2612"
    },
    {
      "channel": 1,
      "note": 69,
      "start": 22.5254,
      "duration": 0.016,
      "velocity": 103,
      "chip": "ym2612"
    },
    {
      "channel": 0,
      "note": 37,
      "start": 22.5355,
      "duration": 0.016,
      "velocity": 115,
      "chip": "ym2612"
    },
    {
      "channel": 5,
      "note": 68,
      "start": 22.5367,
      "duration": 0.0161,
      "velocity": 102,
      "chip": "ym2612"
    },
    {
      "channel": 4,
      "note": 80,
      "start": 22.5378,
      "duration": 0.0161,
      "velocity": 98,
      "chip": "ym2612"
    },
    {
      "channel": 3,
      "note": 83,
      "start": 22.539,
      "duration": 0.0161,
      "velocity": 98,
      "chip": "ym2612"
    },
    {
      "channel": 2,
      "note": 56,
      "start": 22.5401,
      "duration": 0.0161,
      "velocity": 93,
      "chip": "ym2612"
    },
    {
      "channel": 1,
      "note": 69,
      "start": 22.5413,
      "duration": 0.0161,
      "velocity": 103,
      "chip": "ym2612"
    },
    {
      "channel": 0,
      "note": 37,
      "start": 22.5516,
      "duration": 0.0156,
      "velocity": 115,
      "chip": "ym2612"
    },
    {
      "channel": 5,
      "note": 68,
      "start": 22.5528,
      "duration": 0.0161,
      "velocity": 102,
      "chip": "ym2612"
    },
    {
      "channel": 4,
      "note": 80,
      "start": 22.5539,
      "duration": 0.0161,
      "velocity": 98,
      "chip": "ym2612"
    },
    {
      "channel": 3,
      "note": 83,
      "start": 22.5551,
      "duration": 0.0163,
      "velocity": 98,
      "chip": "ym2612"
    },
    {
      "channel": 2,
      "note": 56,
      "start": 22.5563,
      "duration": 0.0163,
      "velocity": 93,
      "chip": "ym2612"
    },
    {
      "channel": 1,
      "note": 69,
      "start": 22.5574,
      "duration": 0.0163,
      "velocity": 103,
      "chip": "ym2612"
    },
    {
      "channel": 0,
      "note": 38,
      "start": 22.5671,
      "duration": 0.0161,
      "velocity": 115,
      "chip": "ym2612"
    },
    {
      "channel": 4,
      "note": 80,
      "start": 22.5701,
      "duration": 0.0162,
      "velocity": 98,
      "chip": "ym2612"
    },
    {
      "channel": 3,
      "note": 83,
      "start": 22.5713,
      "duration": 0.0162,
      "velocity": 98,
      "chip": "ym2612"
    },
    {
      "channel": 2,
      "note": 56,
      "start": 22.5726,
      "duration": 0.0161,
      "velocity": 93,
      "chip": "ym2612"
    },
    {
      "channel": 0,
      "note": 38,
      "start": 22.5832,
      "duration": 0.0185,
      "velocity": 127,
      "chip": "ym2612"
    },
    {
      "channel": 2,
      "note": 56,
      "start": 22.5887,
      "duration": 0.0191,
      "velocity": 93,
      "chip": "ym2612"
    },
    {
      "channel": 0,
      "note": 84,
      "start": 22.6017,
      "duration": 0.0137,
      "velocity": 127,
      "chip": "ym2612"
    },
    {
      "channel": 5,
      "note": 69,
      "start": 22.6033,
      "duration": 0.0134,
      "velocity": 102,
      "chip": "ym2612"
    },
    {
      "channel": 4,
      "note": 80,
      "start": 22.6048,
      "duration": 0.0136,
      "velocity": 98,
      "chip": "ym2612"
    },
    {
      "channel": 3,
      "note": 83,
      "start": 22.6063,
      "duration": 0.0134,
      "velocity": 98,
      "chip": "ym2612"
    },
    {
      "channel": 2,
      "note": 56,
      "start": 22.6079,
      "duration": 0.0131,
      "velocity": 93,
      "chip": "ym2612"
    },
    {
      "channel": 1,
      "note": 71,
      "start": 22.6093,
      "duration": 0.0129,
      "velocity": 103,
      "chip": "ym2612"
    },
    {
      "channel": 0,
      "note": 82,
      "start": 22.6155,
      "duration": 0.016,
      "velocity": 127,
      "chip": "ym2612"
    },
    {
      "channel": 5,
      "note": 69,
      "start": 22.6167,
      "duration": 0.016,
      "velocity": 102,
      "chip": "ym2612"
    },
    {
      "channel": 4,
      "note": 80,
      "start": 22.6184,
      "duration": 0.0154,
      "velocity": 98,
      "chip": "ym2612"
    },
    {
      "channel": 3,
      "note": 83,
      "start": 22.6197,
      "duration": 0.0159,
      "velocity": 98,
      "chip": "ym2612"
    },
    {
      "channel": 2,
      "note": 56,
      "start": 22.621,
      "duration": 0.0158,
      "velocity": 93,
      "chip": "ym2612"
    },
    {
      "channel": 1,
      "note": 71,
      "start": 22.6222,
      "duration": 0.0157,
      "velocity": 103,
      "chip": "ym2612"
    },
    {
      "channel": 0,
      "note": 81,
      "start": 22.6315,
      "duration": 0.0161,
      "velocity": 127,
      "chip": "ym2612"
    },
    {
      "channel": 5,
      "note": 69,
      "start": 22.6327,
      "duration": 0.0161,
      "velocity": 102,
      "chip": "ym2612"
    },
    {
      "channel": 4,
      "note": 80,
      "start": 22.6338,
      "duration": 0.0162,
      "velocity": 98,
      "chip": "ym2612"
    },
    {
      "channel": 3,
      "note": 83,
      "start": 22.6356,
      "duration": 0.016,
      "velocity": 98,
      "chip": "ym2612"
    },
    {
      "channel": 2,
      "note": 56,
      "start": 22.6367,
      "duration": 0.0161,
      "velocity": 93,
      "chip": "ym2612"
    },
    {
      "channel": 1,
      "note": 71,
      "start": 22.6379,
      "duration": 0.0161,
      "velocity": 103,
      "chip": "ym2612"
    },
    {
      "channel": 0,
      "note": 79,
      "start": 22.6476,
      "duration": 0.0161,
      "velocity": 127,
      "chip": "ym2612"
    },
    {
      "channel": 5,
      "note": 69,
      "start": 22.6488,
      "duration": 0.0162,
      "velocity": 102,
      "chip": "ym2612"
    },
    {
      "channel": 4,
      "note": 80,
      "start": 22.65,
      "duration": 0.0161,
      "velocity": 98,
      "chip": "ym2612"
    },
    {
      "channel": 3,
      "note": 83,
      "start": 22.6516,
      "duration": 0.0156,
      "velocity": 98,
      "chip": "ym2612"
    },
    {
      "channel": 2,
      "note": 56,
      "start": 22.6528,
      "duration": 0.0162,
      "velocity": 93,
      "chip": "ym2612"
    },
    {
      "channel": 1,
      "note": 71,
      "start": 22.654,
      "duration": 0.0162,
      "velocity": 103,
      "chip": "ym2612"
    },
    {
      "channel": 0,
      "note": 77,
      "start": 22.6637,
      "duration": 0.0161,
      "velocity": 127,
      "chip": "ym2612"
    },
    {
      "channel": 4,
      "note": 80,
      "start": 22.6661,
      "duration": 0.0161,
      "velocity": 98,
      "chip": "ym2612"
    },
    {
      "channel": 3,
      "note": 83,
      "start": 22.6672,
      "duration": 0.0161,
      "velocity": 98,
      "chip": "ym2612"
    },
    {
      "channel": 2,
      "note": 56,
      "start": 22.669,
      "duration": 0.016,
      "velocity": 93,
      "chip": "ym2612"
    },
    {
      "channel": 1,
      "note": 71,
      "start": 22.6701,
      "duration": 0.016,
      "velocity": 103,
      "chip": "ym2612"
    },
    {
      "channel": 0,
      "note": 76,
      "start": 22.6798,
      "duration": 0.018,
      "velocity": 127,
      "chip": "ym2612"
    },
    {
      "channel": 4,
      "note": 80,
      "start": 22.6822,
      "duration": 0.0183,
      "velocity": 98,
      "chip": "ym2612"
    },
    {
      "channel": 3,
      "note": 83,
      "start": 22.6833,
      "duration": 0.0189,
      "velocity": 98,
      "chip": "ym2612"
    },
    {
      "channel": 2,
      "note": 56,
      "start": 22.685,
      "duration": 0.0184,
      "velocity": 93,
      "chip": "ym2612"
    },
    {
      "channel": 1,
      "note": 71,
      "start": 22.6862,
      "duration": 0.0183,
      "velocity": 103,
      "chip": "ym2612"
    },
    {
      "channel": 0,
      "note": 84,
      "start": 22.6978,
      "duration": 0.0143,
      "velocity": 127,
      "chip": "ym2612"
    },
    {
      "channel": 5,
      "note": 71,
      "start": 22.6993,
      "duration": 0.014,
      "velocity": 102,
      "chip": "ym2612"
    },
    {
      "channel": 4,
      "note": 80,
      "start": 22.7004,
      "duration": 0.0141,
      "velocity": 98,
      "chip": "ym2612"
    },
    {
      "channel": 3,
      "note": 83,
      "start": 22.7022,
      "duration": 0.0134,
      "velocity": 98,
      "chip": "ym2612"
    },
    {
      "channel": 2,
      "note": 56,
      "start": 22.7033,
      "duration": 0.0134,
      "velocity": 93,
      "chip": "ym2612"
    },
    {
      "channel": 1,
      "note": 71,
      "start": 22.7045,
      "duration": 0.014,
      "velocity": 103,
      "chip": "ym2612"
    },
    {
      "channel": 0,
      "note": 82,
      "start": 22.7121,
      "duration": 0.0161,
      "velocity": 127,
      "chip": "ym2612"
    },
    {
      "channel": 5,
      "note": 71,
      "start": 22.7133,
      "duration": 0.016,
      "velocity": 102,
      "chip": "ym2612"
    },
    {
      "channel": 4,
      "note": 80,
      "start": 22.7145,
      "duration": 0.016,
      "velocity": 98,
      "chip": "ym2612"
    },
    {
      "channel": 3,
      "note": 83,
      "start": 22.7156,
      "duration": 0.016,
      "velocity": 98,
      "chip": "ym2612"
    },
    {
      "channel": 2,
      "note": 56,
      "start": 22.7168,
      "duration": 0.016,
      "velocity": 93,
      "chip": "ym2612"
    },
    {
      "channel": 1,
      "note": 71,
      "start": 22.7185,
      "duration": 0.0156,
      "velocity": 103,
      "chip": "ym2612"
    },
    {
      "channel": 0,
      "note": 81,
      "start": 22.7281,
      "duration": 0.0161,
      "velocity": 127,
      "chip": "ym2612"
    },
    {
      "channel": 5,
      "note": 71,
      "start": 22.7293,
      "duration": 0.0161,
      "velocity": 102,
      "chip": "ym2612"
    },
    {
      "channel": 4,
      "note": 80,
      "start": 22.7304,
      "duration": 0.0162,
      "velocity": 98,
      "chip": "ym2612"
    },
    {
      "channel": 3,
      "note": 83,
      "start": 22.7316,
      "duration": 0.0163,
      "velocity": 98,
      "chip": "ym2612"
    },
    {
      "channel": 2,
      "note": 56,
      "start": 22.7327,
      "duration": 0.0163,
      "velocity": 93,
      "chip": "ym2612"
    },
    {
      "channel": 1,
      "note": 71,
      "start": 22.7341,
      "duration": 0.0161,
      "velocity": 103,
      "chip": "ym2612"
    },
    {
      "channel": 0,
      "note": 79,
      "start": 22.7442,
      "duration": 0.0161,
      "velocity": 127,
      "chip": "ym2612"
    },
    {
      "channel": 5,
      "note": 71,
      "start": 22.7454,
      "duration": 0.0161,
      "velocity": 102,
      "chip": "ym2612"
    },
    {
      "channel": 4,
      "note": 80,
      "start": 22.7466,
      "duration": 0.0161,
      "velocity": 98,
      "chip": "ym2612"
    },
    {
      "channel": 3,
      "note": 83,
      "start": 22.7479,
      "duration": 0.016,
      "velocity": 98,
      "chip": "ym2612"
    },
    {
      "channel": 2,
      "note": 56,
      "start": 22.7491,
      "duration": 0.016,
      "velocity": 93,
      "chip": "ym2612"
    },
    {
      "channel": 1,
      "note": 71,
      "start": 22.7502,
      "duration": 0.016,
      "velocity": 103,
      "chip": "ym2612"
    },
    {
      "channel": 0,
      "note": 77,
      "start": 22.7603,
      "duration": 0.0161,
      "velocity": 127,
      "chip": "ym2612"
    },
    {
      "channel": 5,
      "note": 71,
      "start": 22.7615,
      "duration": 0.0161,
      "velocity": 102,
      "chip": "ym2612"
    },
    {
      "channel": 4,
      "note": 80,
      "start": 22.7627,
      "duration": 0.0161,
      "velocity": 98,
      "chip": "ym2612"
    },
    {
      "channel": 3,
      "note": 83,
      "start": 22.7639,
      "duration": 0.0161,
      "velocity": 98,
      "chip": "ym2612"
    },
    {
      "channel": 2,
      "note": 56,
      "start": 22.7651,
      "duration": 0.0162,
      "velocity": 93,
      "chip": "ym2612"
    },
    {
      "channel": 0,
      "note": 76,
      "start": 22.7764,
      "duration": 0.0179,
      "velocity": 127,
      "chip": "ym2612"
    },
    {
      "channel": 5,
      "note": 71,
      "start": 22.7776,
      "duration": 0.018,
      "velocity": 102,
      "chip": "ym2612"
    },
    {
      "channel": 4,
      "note": 80,
      "start": 22.7788,
      "duration": 0.0179,
      "velocity": 98,
      "chip": "ym2612"
    },
    {
      "channel": 3,
      "note": 83,
      "start": 22.78,
      "duration": 0.0179,
      "velocity": 98,
      "chip": "ym2612"
    },
    {
      "channel": 2,
      "note": 56,
      "start": 22.7813,
      "duration": 0.0178,
      "velocity": 93,
      "chip": "ym2612"
    },
    {
      "channel": 0,
      "note": 84,
      "start": 22.7944,
      "duration": 0.0142,
      "velocity": 127,
      "chip": "ym2612"
    },
    {
      "channel": 5,
      "note": 71,
      "start": 22.7956,
      "duration": 0.0143,
      "velocity": 102,
      "chip": "ym2612"
    },
    {
      "channel": 4,
      "note": 80,
      "start": 22.7967,
      "duration": 0.0143,
      "velocity": 98,
      "chip": "ym2612"
    },
    {
      "channel": 3,
      "note": 83,
      "start": 22.7979,
      "duration": 0.0142,
      "velocity": 98,
      "chip": "ym2612"
    },
    {
      "channel": 2,
      "note": 56,
      "start": 22.7991,
      "duration": 0.0143,
      "velocity": 93,
      "chip": "ym2612"
    },
    {
      "channel": 1,
      "note": 73,
      "start": 22.8005,
      "duration": 0.0141,
      "velocity": 103,
      "chip": "ym2612"
    },
    {
      "channel": 0,
      "note": 82,
      "start": 22.8087,
      "duration": 0.016,
      "velocity": 127,
      "chip": "ym2612"
    },
    {
      "channel": 5,
      "note": 71,
      "start": 22.8098,
      "duration": 0.0161,
      "velocity": 102,
      "chip": "ym2612"
    },
    {
      "channel": 4,
      "note": 80,
      "start": 22.811,
      "duration": 0.016,
      "velocity": 98,
      "chip": "ym2612"
    },
    {
      "channel": 3,
      "note": 83,
      "start": 22.8122,
      "duration": 0.016,
      "velocity": 98,
      "chip": "ym2612"
    },
    {
      "channel": 2,
      "note": 56,
      "start": 22.8133,
      "duration": 0.016,
      "velocity": 93,
      "chip": "ym2612"
    },
    {
      "channel": 1,
      "note": 73,
      "start": 22.8145,
      "duration": 0.016,
      "velocity": 103,
      "chip": "ym2612"
    },
    {
      "channel": 0,
      "note": 81,
      "start": 22.8247,
      "duration": 0.0161,
      "velocity": 127,
      "chip": "ym2612"
    },
    {
      "channel": 5,
      "note": 71,
      "start": 22.8259,
      "duration": 0.0161,
      "velocity": 102,
      "chip": "ym2612"
    },
    {
      "channel": 4,
      "note": 80,
      "start": 22.8271,
      "duration": 0.0161,
      "velocity": 98,
      "chip": "ym2612"
    },
    {
      "channel": 3,
      "note": 83,
      "start": 22.8282,
      "duration": 0.0161,
      "velocity": 98,
      "chip": "ym2612"
    },
    {
      "channel": 2,
      "note": 56,
      "start": 22.8294,
      "duration": 0.0161,
      "velocity": 93,
      "chip": "ym2612"
    },
    {
      "channel": 1,
      "note": 73,
      "start": 22.8305,
      "duration": 0.0161,
      "velocity": 103,
      "chip": "ym2612"
    },
    {
      "channel": 0,
      "note": 79,
      "start": 22.8408,
      "duration": 0.0161,
      "velocity": 127,
      "chip": "ym2612"
    },
    {
      "channel": 5,
      "note": 71,
      "start": 22.842,
      "duration": 0.0161,
      "velocity": 102,
      "chip": "ym2612"
    },
    {
      "channel": 4,
      "note": 80,
      "start": 22.8432,
      "duration": 0.0161,
      "velocity": 98,
      "chip": "ym2612"
    },
    {
      "channel": 3,
      "note": 83,
      "start": 22.8443,
      "duration": 0.0162,
      "velocity": 98,
      "chip": "ym2612"
    },
    {
      "channel": 2,
      "note": 56,
      "start": 22.8455,
      "duration": 0.0163,
      "velocity": 93,
      "chip": "ym2612"
    },
    {
      "channel": 1,
      "note": 73,
      "start": 22.8466,
      "duration": 0.0163,
      "velocity": 103,
      "chip": "ym2612"
    },
    {
      "channel": 0,
      "note": 77,
      "start": 22.8569,
      "duration": 0.0161,
      "velocity": 127,
      "chip": "ym2612"
    },
    {
      "channel": 4,
      "note": 80,
      "start": 22.8593,
      "duration": 0.0161,
      "velocity": 98,
      "chip": "ym2612"
    },
    {
      "channel": 3,
      "note": 83,
      "start": 22.8605,
      "duration": 0.0162,
      "velocity": 98,
      "chip": "ym2612"
    },
    {
      "channel": 2,
      "note": 56,
      "start": 22.8617,
      "duration": 0.0162,
      "velocity": 93,
      "chip": "ym2612"
    },
    {
      "channel": 0,
      "note": 76,
      "start": 22.873,
      "duration": 0.018,
      "velocity": 127,
      "chip": "ym2612"
    },
    {
      "channel": 2,
      "note": 56,
      "start": 22.878,
      "duration": 0.0191,
      "velocity": 93,
      "chip": "ym2612"
    },
    {
      "channel": 0,
      "note": 78,
      "start": 22.8911,
      "duration": 0.0142,
      "velocity": 127,
      "chip": "ym2612"
    },
    {
      "channel": 5,
      "note": 73,
      "start": 22.8925,
      "duration": 0.014,
      "velocity": 102,
      "chip": "ym2612"
    },
    {
      "channel": 4,
      "note": 80,
      "start": 22.8941,
      "duration": 0.0137,
      "velocity": 98,
      "chip": "ym2612"
    },
    {
      "channel": 3,
      "note": 83,
      "start": 22.8956,
      "duration": 0.0134,
      "velocity": 98,
      "chip": "ym2612"
    },
    {
      "channel": 2,
      "note": 56,
      "start": 22.8971,
      "duration": 0.0131,
      "velocity": 93,
      "chip": "ym2612"
    },
    {
      "channel": 1,
      "note": 75,
      "start": 22.8985,
      "duration": 0.0129,
      "velocity": 103,
      "chip": "ym2612"
    },
    {
      "channel": 0,
      "note": 76,
      "start": 22.9053,
      "duration": 0.016,
      "velocity": 127,
      "chip": "ym2612"
    },
    {
      "channel": 5,
      "note": 73,
      "start": 22.9065,
      "duration": 0.016,
      "velocity": 102,
      "chip": "ym2612"
    },
    {
      "channel": 4,
      "note": 80,
      "start": 22.9077,
      "duration": 0.0159,
      "velocity": 98,
      "chip": "ym2612"
    },
    {
      "channel": 3,
      "note": 83,
      "start": 22.9089,
      "duration": 0.0159,
      "velocity": 98,
      "chip": "ym2612"
    },
    {
      "channel": 2,
      "note": 56,
      "start": 22.9102,
      "duration": 0.0158,
      "velocity": 93,
      "chip": "ym2612"
    },
    {
      "channel": 1,
      "note": 75,
      "start": 22.9114,
      "duration": 0.0158,
      "velocity": 103,
      "chip": "ym2612"
    },
    {
      "channel": 0,
      "note": 75,
      "start": 22.9213,
      "duration": 0.0161,
      "velocity": 127,
      "chip": "ym2612"
    },
    {
      "channel": 5,
      "note": 73,
      "start": 22.9225,
      "duration": 0.0161,
      "velocity": 102,
      "chip": "ym2612"
    },
    {
      "channel": 4,
      "note": 80,
      "start": 22.9236,
      "duration": 0.0162,
      "velocity": 98,
      "chip": "ym2612"
    },
    {
      "channel": 3,
      "note": 83,
      "start": 22.9248,
      "duration": 0.0161,
      "velocity": 98,
      "chip": "ym2612"
    },
    {
      "channel": 2,
      "note": 56,
      "start": 22.9259,
      "duration": 0.0162,
      "velocity": 93,
      "chip": "ym2612"
    },
    {
      "channel": 1,
      "note": 75,
      "start": 22.9271,
      "duration": 0.0161,
      "velocity": 103,
      "chip": "ym2612"
    },
    {
      "channel": 0,
      "note": 73,
      "start": 22.9374,
      "duration": 0.0162,
      "velocity": 127,
      "chip": "ym2612"
    },
    {
      "channel": 5,
      "note": 73,
      "start": 22.9386,
      "duration": 0.0161,
      "velocity": 102,
      "chip": "ym2612"
    },
    {
      "channel": 4,
      "note": 80,
      "start": 22.9398,
      "duration": 0.0161,
      "velocity": 98,
      "chip": "ym2612"
    },
    {
      "channel": 3,
      "note": 83,
      "start": 22.9409,
      "duration": 0.0162,
      "velocity": 98,
      "chip": "ym2612"
    },
    {
      "channel": 2,
      "note": 56,
      "start": 22.9421,
      "duration": 0.0161,
      "velocity": 93,
      "chip": "ym2612"
    },
    {
      "channel": 1,
      "note": 75,
      "start": 22.9432,
      "duration": 0.0162,
      "velocity": 103,
      "chip": "ym2612"
    },
    {
      "channel": 0,
      "note": 71,
      "start": 22.9536,
      "duration": 0.0164,
      "velocity": 127,
      "chip": "ym2612"
    },
    {
      "channel": 4,
      "note": 80,
      "start": 22.9559,
      "duration": 0.0164,
      "velocity": 98,
      "chip": "ym2612"
    },
    {
      "channel": 3,
      "note": 83,
      "start": 22.9571,
      "duration": 0.0164,
      "velocity": 98,
      "chip": "ym2612"
    },
    {
      "channel": 2,
      "note": 56,
      "start": 22.9582,
      "duration": 0.0164,
      "velocity": 93,
      "chip": "ym2612"
    },
    {
      "channel": 1,
      "note": 75,
      "start": 22.9594,
      "duration": 0.0164,
      "velocity": 103,
      "chip": "ym2612"
    },
    {
      "channel": 0,
      "note": 70,
      "start": 22.97,
      "duration": 0.0163,
      "velocity": 127,
      "chip": "ym2612"
    },
    {
      "channel": 4,
      "note": 80,
      "start": 22.9724,
      "duration": 0.0166,
      "velocity": 98,
      "chip": "ym2612"
    },
    {
      "channel": 3,
      "note": 83,
      "start": 22.9735,
      "duration": 0.0166,
      "velocity": 98,
      "chip": "ym2612"
    },
    {
      "channel": 2,
      "note": 56,
      "start": 22.9746,
      "duration": 0.0166,
      "velocity": 93,
      "chip": "ym2612"
    },
    {
      "channel": 1,
      "note": 75,
      "start": 22.9758,
      "duration": 0.0166,
      "velocity": 103,
      "chip": "ym2612"
    },
    {
      "channel": 0,
      "note": 68,
      "start": 22.9863,
      "duration": 0.0161,
      "velocity": 127,
      "chip": "ym2612"
    },
    {
      "channel": 5,
      "note": 75,
      "start": 22.9878,
      "duration": 0.0159,
      "velocity": 102,
      "chip": "ym2612"
    },
    {
      "channel": 4,
      "note": 80,
      "start": 22.989,
      "duration": 0.0159,
      "velocity": 98,
      "chip": "ym2612"
    },
    {
      "channel": 3,
      "note": 83,
      "start": 22.9901,
      "duration": 0.0158,
      "velocity": 98,
      "chip": "ym2612"
    },
    {
      "channel": 2,
      "note": 56,
      "start": 22.9912,
      "duration": 0.0159,
      "velocity": 93,
      "chip": "ym2612"
    },
    {
      "channel": 1,
      "note": 75,
      "start": 22.9924,
      "duration": 0.0159,
      "velocity": 103,
      "chip": "ym2612"
    },
    {
      "channel": 0,
      "note": 66,
      "start": 23.0024,
      "duration": 0.016,
      "velocity": 127,
      "chip": "ym2612"
    },
    {
      "channel": 5,
      "note": 75,
      "start": 23.0037,
      "duration": 0.016,
      "velocity": 102,
      "chip": "ym2612"
    },
    {
      "channel": 4,
      "note": 80,
      "start": 23.0048,
      "duration": 0.016,
      "velocity": 98,
      "chip": "ym2612"
    },
    {
      "channel": 3,
      "note": 83,
      "start": 23.0059,
      "duration": 0.016,
      "velocity": 98,
      "chip": "ym2612"
    },
    {
      "channel": 2,
      "note": 56,
      "start": 23.0071,
      "duration": 0.0161,
      "velocity": 93,
      "chip": "ym2612"
    },
    {
      "channel": 1,
      "note": 75,
      "start": 23.0083,
      "duration": 0.016,
      "velocity": 103,
      "chip": "ym2612"
    },
    {
      "channel": 0,
      "note": 65,
      "start": 23.0185,
      "duration": 0.0158,
      "velocity": 127,
      "chip": "ym2612"
    },
    {
      "channel": 5,
      "note": 75,
      "start": 23.0197,
      "duration": 0.0161,
      "velocity": 102,
      "chip": "ym2612"
    },
    {
      "channel": 4,
      "note": 80,
      "start": 23.0208,
      "duration": 0.0162,
      "velocity": 98,
      "chip": "ym2612"
    },
    {
      "channel": 3,
      "note": 83,
      "start": 23.022,
      "duration": 0.0163,
      "velocity": 98,
      "chip": "ym2612"
    },
    {
      "channel": 2,
      "note": 56,
      "start": 23.0232,
      "duration": 0.0163,
      "velocity": 93,
      "chip": "ym2612"
    },
    {
      "channel": 1,
      "note": 75,
      "start": 23.0243,
      "duration": 0.0163,
      "velocity": 103,
      "chip": "ym2612"
    },
    {
      "channel": 0,
      "note": 63,
      "start": 23.0343,
      "duration": 0.0159,
      "velocity": 127,
      "chip": "ym2612"
    },
    {
      "channel": 5,
      "note": 75,
      "start": 23.0358,
      "duration": 0.016,
      "velocity": 102,
      "chip": "ym2612"
    },
    {
      "channel": 4,
      "note": 80,
      "start": 23.0371,
      "duration": 0.016,
      "velocity": 98,
      "chip": "ym2612"
    },
    {
      "channel": 3,
      "note": 83,
      "start": 23.0383,
      "duration": 0.016,
      "velocity": 98,
      "chip": "ym2612"
    },
    {
      "channel": 2,
      "note": 56,
      "start": 23.0395,
      "duration": 0.016,
      "velocity": 93,
      "chip": "ym2612"
    },
    {
      "channel": 1,
      "note": 75,
      "start": 23.0407,
      "duration": 0.016,
      "velocity": 103,
      "chip": "ym2612"
    },
    {
      "channel": 0,
      "note": 61,
      "start": 23.0502,
      "duration": 0.0161,
      "velocity": 127,
      "chip": "ym2612"
    },
    {
      "channel": 5,
      "note": 75,
      "start": 23.0518,
      "duration": 0.0158,
      "velocity": 102,
      "chip": "ym2612"
    },
    {
      "channel": 4,
      "note": 80,
      "start": 23.0531,
      "duration": 0.0162,
      "velocity": 98,
      "chip": "ym2612"
    },
    {
      "channel": 3,
      "note": 83,
      "start": 23.0543,
      "duration": 0.0162,
      "velocity": 98,
      "chip": "ym2612"
    },
    {
      "channel": 2,
      "note": 56,
      "start": 23.0555,
      "duration": 0.0161,
      "velocity": 93,
      "chip": "ym2612"
    },
    {
      "channel": 0,
      "note": 60,
      "start": 23.0663,
      "duration": 0.0161,
      "velocity": 127,
      "chip": "ym2612"
    },
    {
      "channel": 5,
      "note": 75,
      "start": 23.0676,
      "duration": 0.0159,
      "velocity": 102,
      "chip": "ym2612"
    },
    {
      "channel": 4,
      "note": 80,
      "start": 23.0693,
      "duration": 0.016,
      "velocity": 98,
      "chip": "ym2612"
    },
    {
      "channel": 3,
      "note": 83,
      "start": 23.0705,
      "duration": 0.016,
      "velocity": 98,
      "chip": "ym2612"
    },
    {
      "channel": 2,
      "note": 56,
      "start": 23.0717,
      "duration": 0.0159,
      "velocity": 93,
      "chip": "ym2612"
    },
    {
      "channel": 0,
      "note": 58,
      "start": 23.0824,
      "duration": 0.0161,
      "velocity": 127,
      "chip": "ym2612"
    },
    {
      "channel": 5,
      "note": 75,
      "start": 23.0835,
      "duration": 0.0162,
      "velocity": 102,
      "chip": "ym2612"
    },
    {
      "channel": 4,
      "note": 80,
      "start": 23.0852,
      "duration": 0.0158,
      "velocity": 98,
      "chip": "ym2612"
    },
    {
      "channel": 3,
      "note": 83,
      "start": 23.0864,
      "duration": 0.0161,
      "velocity": 98,
      "chip": "ym2612"
    },
    {
      "channel": 2,
      "note": 56,
      "start": 23.0876,
      "duration": 0.0161,
      "velocity": 93,
      "chip": "ym2612"
    },
    {
      "channel": 1,
      "note": 76,
      "start": 23.089,
      "duration": 0.0159,
      "velocity": 103,
      "chip": "ym2612"
    },
    {
      "channel": 0,
      "note": 56,
      "start": 23.0984,
      "duration": 0.0161,
      "velocity": 127,
      "chip": "ym2612"
    },
    {
      "channel": 5,
      "note": 75,
      "start": 23.0997,
      "duration": 0.0161,
      "velocity": 102,
      "chip": "ym2612"
    },
    {
      "channel": 4,
      "note": 80,
      "start": 23.101,
      "duration": 0.0159,
      "velocity": 98,
      "chip": "ym2612"
    },
    {
      "channel": 3,
      "note": 83,
      "start": 23.1025,
      "duration": 0.016,
      "velocity": 98,
      "chip": "ym2612"
    },
    {
      "channel": 2,
      "note": 56,
      "start": 23.1037,
      "duration": 0.0162,
      "velocity": 93,
      "chip": "ym2612"
    },
    {
      "channel": 1,
      "note": 76,
      "start": 23.1049,
      "duration": 0.016,
      "velocity": 103,
      "chip": "ym2612"
    },
    {
      "channel": 0,
      "note": 54,
      "start": 23.1145,
      "duration": 0.0161,
      "velocity": 127,
      "chip": "ym2612"
    },
    {
      "channel": 5,
      "note": 75,
      "start": 23.1157,
      "duration": 0.0161,
      "velocity": 102,
      "chip": "ym2612"
    },
    {
      "channel": 4,
      "note": 80,
      "start": 23.1169,
      "duration": 0.0161,
      "velocity": 98,
      "chip": "ym2612"
    },
    {
      "channel": 3,
      "note": 83,
      "start": 23.1185,
      "duration": 0.0158,
      "velocity": 98,
      "chip": "ym2612"
    },
    {
      "channel": 2,
      "note": 56,
      "start": 23.1198,
      "duration": 0.016,
      "velocity": 93,
      "chip": "ym2612"
    },
    {
      "channel": 1,
      "note": 76,
      "start": 23.121,
      "duration": 0.0161,
      "velocity": 103,
      "chip": "ym2612"
    },
    {
      "channel": 0,
      "note": 53,
      "start": 23.1306,
      "duration": 0.0161,
      "velocity": 127,
      "chip": "ym2612"
    },
    {
      "channel": 5,
      "note": 75,
      "start": 23.1318,
      "duration": 0.0161,
      "velocity": 102,
      "chip": "ym2612"
    },
    {
      "channel": 4,
      "note": 80,
      "start": 23.133,
      "duration": 0.0161,
      "velocity": 98,
      "chip": "ym2612"
    },
    {
      "channel": 3,
      "note": 83,
      "start": 23.1343,
      "duration": 0.016,
      "velocity": 98,
      "chip": "ym2612"
    },
    {
      "channel": 2,
      "note": 56,
      "start": 23.1359,
      "duration": 0.0163,
      "velocity": 93,
      "chip": "ym2612"
    },
    {
      "channel": 1,
      "note": 76,
      "start": 23.1371,
      "duration": 0.0163,
      "velocity": 103,
      "chip": "ym2612"
    },
    {
      "channel": 0,
      "note": 51,
      "start": 23.1467,
      "duration": 0.0161,
      "velocity": 127,
      "chip": "ym2612"
    },
    {
      "channel": 4,
      "note": 80,
      "start": 23.1491,
      "duration": 0.0161,
      "velocity": 98,
      "chip": "ym2612"
    },
    {
      "channel": 3,
      "note": 83,
      "start": 23.1504,
      "duration": 0.0161,
      "velocity": 98,
      "chip": "ym2612"
    },
    {
      "channel": 2,
      "note": 56,
      "start": 23.1521,
      "duration": 0.0162,
      "velocity": 93,
      "chip": "ym2612"
    },
    {
      "channel": 0,
      "note": 49,
      "start": 23.1629,
      "duration": 0.0161,
      "velocity": 127,
      "chip": "ym2612"
    },
    {
      "channel": 2,
      "note": 56,
      "start": 23.1683,
      "duration": 0.0174,
      "velocity": 93,
      "chip": "ym2612"
    },
    {
      "channel": 0,
      "note": 48,
      "start": 23.179,
      "duration": 0.0161,
      "velocity": 127,
      "chip": "ym2612"
    },
    {
      "channel": 5,
      "note": 76,
      "start": 23.1804,
      "duration": 0.0159,
      "velocity": 102,
      "chip": "ym2612"
    },
    {
      "channel": 4,
      "note": 81,
      "start": 23.182,
      "duration": 0.0154,
      "velocity": 98,
      "chip": "ym2612"
    },
    {
      "channel": 3,
      "note": 85,
      "start": 23.1836,
      "duration": 0.0151,
      "velocity": 98,
      "chip": "ym2612"
    },
    {
      "channel": 2,
      "note": 57,
      "start": 23.1857,
      "duration": 0.0143,
      "velocity": 93,
      "chip": "ym2612"
    },
    {
      "channel": 1,
      "note": 73,
      "start": 23.1886,
      "duration": 0.013,
      "velocity": 108,
      "chip": "ym2612"
    },
    {
      "channel": 0,
      "note": 46,
      "start": 23.1951,
      "duration": 0.0153,
      "velocity": 1,
      "chip": "ym2612"
    },
    {
      "channel": 4,
      "note": 81,
      "start": 23.1975,
      "duration": 0.0169,
      "velocity": 98,
      "chip": "ym2612"
    },
    {
      "channel": 3,
      "note": 85,
      "start": 23.1987,
      "duration": 0.0169,
      "velocity": 98,
      "chip": "ym2612"
    },
    {
      "channel": 2,
      "note": 57,
      "start": 23.2,
      "duration": 0.0168,
      "velocity": 93,
      "chip": "ym2612"
    },
    {
      "channel": 1,
      "note": 73,
      "start": 23.2017,
      "duration": 0.0167,
      "velocity": 108,
      "chip": "ym2612"
    },
    {
      "channel": 5,
      "note": 73,
      "start": 23.2133,
      "duration": 0.0136,
      "velocity": 108,
      "chip": "ym2612"
    },
    {
      "channel": 4,
      "note": 81,
      "start": 23.2144,
      "duration": 0.0135,
      "velocity": 98,
      "chip": "ym2612"
    },
    {
      "channel": 3,
      "note": 85,
      "start": 23.2156,
      "duration": 0.0135,
      "velocity": 98,
      "chip": "ym2612"
    },
    {
      "channel": 2,
      "note": 57,
      "start": 23.2168,
      "duration": 0.0136,
      "velocity": 93,
      "chip": "ym2612"
    },
    {
      "channel": 1,
      "note": 73,
      "start": 23.2184,
      "duration": 0.013,
      "velocity": 108,
      "chip": "ym2612"
    },
    {
      "channel": 5,
      "note": 73,
      "start": 23.2268,
      "duration": 0.016,
      "velocity": 108,
      "chip": "ym2612"
    },
    {
      "channel": 4,
      "note": 81,
      "start": 23.228,
      "duration": 0.016,
      "velocity": 98,
      "chip": "ym2612"
    },
    {
      "channel": 3,
      "note": 85,
      "start": 23.2291,
      "duration": 0.016,
      "velocity": 98,
      "chip": "ym2612"
    },
    {
      "channel": 2,
      "note": 57,
      "start": 23.2303,
      "duration": 0.016,
      "velocity": 93,
      "chip": "ym2612"
    },
    {
      "channel": 1,
      "note": 73,
      "start": 23.2315,
      "duration": 0.016,
      "velocity": 108,
      "chip": "ym2612"
    },
    {
      "channel": 5,
      "note": 73,
      "start": 23.2429,
      "duration": 0.0161,
      "velocity": 108,
      "chip": "ym2612"
    },
    {
      "channel": 4,
      "note": 81,
      "start": 23.244,
      "duration": 0.0161,
      "velocity": 98,
      "chip": "ym2612"
    },
    {
      "channel": 3,
      "note": 85,
      "start": 23.2451,
      "duration": 0.0161,
      "velocity": 98,
      "chip": "ym2612"
    },
    {
      "channel": 2,
      "note": 57,
      "start": 23.2463,
      "duration": 0.0161,
      "velocity": 93,
      "chip": "ym2612"
    },
    {
      "channel": 1,
      "note": 73,
      "start": 23.2475,
      "duration": 0.0161,
      "velocity": 108,
      "chip": "ym2612"
    },
    {
      "channel": 5,
      "note": 73,
      "start": 23.2589,
      "duration": 0.0161,
      "velocity": 108,
      "chip": "ym2612"
    },
    {
      "channel": 4,
      "note": 81,
      "start": 23.2601,
      "duration": 0.0161,
      "velocity": 98,
      "chip": "ym2612"
    },
    {
      "channel": 3,
      "note": 85,
      "start": 23.2613,
      "duration": 0.0161,
      "velocity": 98,
      "chip": "ym2612"
    },
    {
      "channel": 2,
      "note": 57,
      "start": 23.2624,
      "duration": 0.0161,
      "velocity": 93,
      "chip": "ym2612"
    },
    {
      "channel": 1,
      "note": 73,
      "start": 23.2636,
      "duration": 0.0161,
      "velocity": 108,
      "chip": "ym2612"
    },
    {
      "channel": 5,
      "note": 73,
      "start": 23.275,
      "duration": 0.0161,
      "velocity": 108,
      "chip": "ym2612"
    },
    {
      "channel": 4,
      "note": 81,
      "start": 23.2762,
      "duration": 0.0161,
      "velocity": 98,
      "chip": "ym2612"
    },
    {
      "channel": 3,
      "note": 85,
      "start": 23.2774,
      "duration": 0.0161,
      "velocity": 98,
      "chip": "ym2612"
    },
    {
      "channel": 2,
      "note": 57,
      "start": 23.2785,
      "duration": 0.0161,
      "velocity": 93,
      "chip": "ym2612"
    },
    {
      "channel": 1,
      "note": 73,
      "start": 23.2797,
      "duration": 0.0161,
      "velocity": 108,
      "chip": "ym2612"
    },
    {
      "channel": 5,
      "note": 73,
      "start": 23.2911,
      "duration": 0.0161,
      "velocity": 108,
      "chip": "ym2612"
    },
    {
      "channel": 4,
      "note": 81,
      "start": 23.2923,
      "duration": 0.0161,
      "velocity": 98,
      "chip": "ym2612"
    },
    {
      "channel": 3,
      "note": 85,
      "start": 23.2935,
      "duration": 0.0161,
      "velocity": 98,
      "chip": "ym2612"
    },
    {
      "channel": 2,
      "note": 57,
      "start": 23.2946,
      "duration": 0.0161,
      "velocity": 93,
      "chip": "ym2612"
    },
    {
      "channel": 1,
      "note": 73,
      "start": 23.2958,
      "duration": 0.0161,
      "velocity": 108,
      "chip": "ym2612"
    },
    {
      "channel": 5,
      "note": 73,
      "start": 23.3073,
      "duration": 0.0161,
      "velocity": 108,
      "chip": "ym2612"
    },
    {
      "channel": 4,
      "note": 81,
      "start": 23.3084,
      "duration": 0.0161,
      "velocity": 98,
      "chip": "ym2612"
    },
    {
      "channel": 3,
      "note": 85,
      "start": 23.3096,
      "duration": 0.0162,
      "velocity": 98,
      "chip": "ym2612"
    },
    {
      "channel": 2,
      "note": 57,
      "start": 23.3107,
      "duration": 0.0163,
      "velocity": 93,
      "chip": "ym2612"
    },
    {
      "channel": 1,
      "note": 73,
      "start": 23.3119,
      "duration": 0.0164,
      "velocity": 108,
      "chip": "ym2612"
    },
    {
      "channel": 5,
      "note": 73,
      "start": 23.3234,
      "duration": 0.0161,
      "velocity": 108,
      "chip": "ym2612"
    },
    {
      "channel": 4,
      "note": 81,
      "start": 23.3246,
      "duration": 0.0161,
      "velocity": 98,
      "chip": "ym2612"
    },
    {
      "channel": 3,
      "note": 85,
      "start": 23.3258,
      "duration": 0.0161,
      "velocity": 98,
      "chip": "ym2612"
    },
    {
      "channel": 2,
      "note": 57,
      "start": 23.3271,
      "duration": 0.016,
      "velocity": 93,
      "chip": "ym2612"
    },
    {
      "channel": 1,
      "note": 73,
      "start": 23.3283,
      "duration": 0.016,
      "velocity": 108,
      "chip": "ym2612"
    },
    {
      "channel": 5,
      "note": 73,
      "start": 23.3395,
      "duration": 0.0161,
      "velocity": 108,
      "chip": "ym2612"
    },
    {
      "channel": 4,
      "note": 81,
      "start": 23.3407,
      "duration": 0.0162,
      "velocity": 98,
      "chip": "ym2612"
    },
    {
      "channel": 3,
      "note": 85,
      "start": 23.3419,
      "duration": 0.0162,
      "velocity": 98,
      "chip": "ym2612"
    },
    {
      "channel": 2,
      "note": 57,
      "start": 23.3431,
      "duration": 0.0162,
      "velocity": 93,
      "chip": "ym2612"
    },
    {
      "channel": 1,
      "note": 73,
      "start": 23.3443,
      "duration": 0.0162,
      "velocity": 108,
      "chip": "ym2612"
    },
    {
      "channel": 5,
      "note": 73,
      "start": 23.3556,
      "duration": 0.0197,
      "velocity": 108,
      "chip": "ym2612"
    },
    {
      "channel": 4,
      "note": 81,
      "start": 23.3568,
      "duration": 0.0196,
      "velocity": 98,
      "chip": "ym2612"
    },
    {
      "channel": 3,
      "note": 85,
      "start": 23.358,
      "duration": 0.0195,
      "velocity": 98,
      "chip": "ym2612"
    },
    {
      "channel": 2,
      "note": 57,
      "start": 23.3593,
      "duration": 0.0194,
      "velocity": 93,
      "chip": "ym2612"
    },
    {
      "channel": 1,
      "note": 73,
      "start": 23.3605,
      "duration": 0.0193,
      "velocity": 108,
      "chip": "ym2612"
    },
    {
      "channel": 0,
      "note": 36,
      "start": 23.374,
      "duration": 0.0143,
      "velocity": 115,
      "chip": "ym2612"
    },
    {
      "channel": 5,
      "note": 73,
      "start": 23.3753,
      "duration": 0.0143,
      "velocity": 108,
      "chip": "ym2612"
    },
    {
      "channel": 4,
      "note": 81,
      "start": 23.3764,
      "duration": 0.0142,
      "velocity": 98,
      "chip": "ym2612"
    },
    {
      "channel": 3,
      "note": 85,
      "start": 23.3776,
      "duration": 0.0143,
      "velocity": 98,
      "chip": "ym2612"
    },
    {
      "channel": 2,
      "note": 57,
      "start": 23.3787,
      "duration": 0.0142,
      "velocity": 93,
      "chip": "ym2612"
    },
    {
      "channel": 1,
      "note": 73,
      "start": 23.3799,
      "duration": 0.0143,
      "velocity": 108,
      "chip": "ym2612"
    },
    {
      "channel": 0,
      "note": 36,
      "start": 23.3883,
      "duration": 0.016,
      "velocity": 115,
      "chip": "ym2612"
    },
    {
      "channel": 5,
      "note": 73,
      "start": 23.3895,
      "duration": 0.016,
      "velocity": 108,
      "chip": "ym2612"
    },
    {
      "channel": 4,
      "note": 81,
      "start": 23.3907,
      "duration": 0.016,
      "velocity": 98,
      "chip": "ym2612"
    },
    {
      "channel": 3,
      "note": 85,
      "start": 23.3918,
      "duration": 0.016,
      "velocity": 98,
      "chip": "ym2612"
    },
    {
      "channel": 2,
      "note": 57,
      "start": 23.393,
      "duration": 0.016,
      "velocity": 93,
      "chip": "ym2612"
    },
    {
      "channel": 1,
      "note": 73,
      "start": 23.3941,
      "duration": 0.016,
      "velocity": 108,
      "chip": "ym2612"
    },
    {
      "channel": 0,
      "note": 37,
      "start": 23.4044,
      "duration": 0.0162,
      "velocity": 115,
      "chip": "ym2612"
    },
    {
      "channel": 5,
      "note": 73,
      "start": 23.4056,
      "duration": 0.0161,
      "velocity": 108,
      "chip": "ym2612"
    },
    {
      "channel": 4,
      "note": 81,
      "start": 23.4067,
      "duration": 0.0162,
      "velocity": 98,
      "chip": "ym2612"
    },
    {
      "channel": 3,
      "note": 85,
      "start": 23.4079,
      "duration": 0.0161,
      "velocity": 98,
      "chip": "ym2612"
    },
    {
      "channel": 2,
      "note": 57,
      "start": 23.409,
      "duration": 0.0162,
      "velocity": 93,
      "chip": "ym2612"
    },
    {
      "channel": 1,
      "note": 73,
      "start": 23.4102,
      "duration": 0.0161,
      "velocity": 108,
      "chip": "ym2612"
    },
    {
      "channel": 0,
      "note": 37,
      "start": 23.4205,
      "duration": 0.0162,
      "velocity": 115,
      "chip": "ym2612"
    },
    {
      "channel": 5,
      "note": 73,
      "start": 23.4217,
      "duration": 0.0162,
      "velocity": 108,
      "chip": "ym2612"
    },
    {
      "channel": 4,
      "note": 81,
      "start": 23.4229,
      "duration": 0.0162,
      "velocity": 98,
      "chip": "ym2612"
    },
    {
      "channel": 3,
      "note": 85,
      "start": 23.424,
      "duration": 0.0163,
      "velocity": 98,
      "chip": "ym2612"
    },
    {
      "channel": 2,
      "note": 57,
      "start": 23.4252,
      "duration": 0.0164,
      "velocity": 93,
      "chip": "ym2612"
    },
    {
      "channel": 1,
      "note": 73,
      "start": 23.4263,
      "duration": 0.0165,
      "velocity": 108,
      "chip": "ym2612"
    },
    {
      "channel": 0,
      "note": 38,
      "start": 23.4367,
      "duration": 0.0163,
      "velocity": 115,
      "chip": "ym2612"
    },
    {
      "channel": 5,
      "note": 73,
      "start": 23.4379,
      "duration": 0.0164,
      "velocity": 108,
      "chip": "ym2612"
    },
    {
      "channel": 4,
      "note": 81,
      "start": 23.4391,
      "duration": 0.0165,
      "velocity": 98,
      "chip": "ym2612"
    },
    {
      "channel": 3,
      "note": 85,
      "start": 23.4403,
      "duration": 0.0165,
      "velocity": 98,
      "chip": "ym2612"
    },
    {
      "channel": 2,
      "note": 57,
      "start": 23.4416,
      "duration": 0.0165,
      "velocity": 93,
      "chip": "ym2612"
    },
    {
      "channel": 1,
      "note": 73,
      "start": 23.4428,
      "duration": 0.0165,
      "velocity": 108,
      "chip": "ym2612"
    },
    {
      "channel": 0,
      "note": 38,
      "start": 23.4531,
      "duration": 0.0181,
      "velocity": 124,
      "chip": "ym2612"
    },
    {
      "channel": 5,
      "note": 73,
      "start": 23.4543,
      "duration": 0.0182,
      "velocity": 108,
      "chip": "ym2612"
    },
    {
      "channel": 2,
      "note": 57,
      "start": 23.458,
      "duration": 0.0188,
      "velocity": 93,
      "chip": "ym2612"
    },
    {
      "channel": 0,
      "note": 84,
      "start": 23.4712,
      "duration": 0.0143,
      "velocity": 124,
      "chip": "ym2612"
    },
    {
      "channel": 5,
      "note": 73,
      "start": 23.4725,
      "duration": 0.0143,
      "velocity": 108,
      "chip": "ym2612"
    },
    {
      "channel": 4,
      "note": 81,
      "start": 23.4739,
      "duration": 0.0141,
      "velocity": 98,
      "chip": "ym2612"
    },
    {
      "channel": 3,
      "note": 85,
      "start": 23.4754,
      "duration": 0.0139,
      "velocity": 98,
      "chip": "ym2612"
    },
    {
      "channel": 2,
      "note": 57,
      "start": 23.4769,
      "duration": 0.0136,
      "velocity": 93,
      "chip": "ym2612"
    },
    {
      "channel": 1,
      "note": 73,
      "start": 23.4783,
      "duration": 0.0134,
      "velocity": 108,
      "chip": "ym2612"
    },
    {
      "channel": 0,
      "note": 82,
      "start": 23.4855,
      "duration": 0.016,
      "velocity": 124,
      "chip": "ym2612"
    },
    {
      "channel": 4,
      "note": 81,
      "start": 23.488,
      "duration": 0.0162,
      "velocity": 98,
      "chip": "ym2612"
    },
    {
      "channel": 3,
      "note": 85,
      "start": 23.4892,
      "duration": 0.0161,
      "velocity": 98,
      "chip": "ym2612"
    },
    {
      "channel": 2,
      "note": 57,
      "start": 23.4905,
      "duration": 0.016,
      "velocity": 93,
      "chip": "ym2612"
    },
    {
      "channel": 1,
      "note": 73,
      "start": 23.4917,
      "duration": 0.016,
      "velocity": 108,
      "chip": "ym2612"
    },
    {
      "channel": 0,
      "note": 80,
      "start": 23.5015,
      "duration": 0.0156,
      "velocity": 124,
      "chip": "ym2612"
    },
    {
      "channel": 5,
      "note": 73,
      "start": 23.503,
      "duration": 0.0159,
      "velocity": 108,
      "chip": "ym2612"
    },
    {
      "channel": 4,
      "note": 81,
      "start": 23.5042,
      "duration": 0.0158,
      "velocity": 98,
      "chip": "ym2612"
    },
    {
      "channel": 3,
      "note": 85,
      "start": 23.5054,
      "duration": 0.0159,
      "velocity": 98,
      "chip": "ym2612"
    },
    {
      "channel": 2,
      "note": 57,
      "start": 23.5065,
      "duration": 0.0158,
      "velocity": 93,
      "chip": "ym2612"
    },
    {
      "channel": 1,
      "note": 73,
      "start": 23.5077,
      "duration": 0.0159,
      "velocity": 108,
      "chip": "ym2612"
    },
    {
      "channel": 0,
      "note": 77,
      "start": 23.5171,
      "duration": 0.0161,
      "velocity": 124,
      "chip": "ym2612"
    },
    {
      "channel": 5,
      "note": 73,
      "start": 23.5189,
      "duration": 0.016,
      "velocity": 108,
      "chip": "ym2612"
    },
    {
      "channel": 4,
      "note": 81,
      "start": 23.5201,
      "duration": 0.016,
      "velocity": 98,
      "chip": "ym2612"
    },
    {
      "channel": 3,
      "note": 85,
      "start": 23.5212,
      "duration": 0.016,
      "velocity": 98,
      "chip": "ym2612"
    },
    {
      "channel": 2,
      "note": 57,
      "start": 23.5224,
      "duration": 0.016,
      "velocity": 93,
      "chip": "ym2612"
    },
    {
      "channel": 1,
      "note": 73,
      "start": 23.5235,
      "duration": 0.016,
      "velocity": 108,
      "chip": "ym2612"
    },
    {
      "channel": 0,
      "note": 75,
      "start": 23.5332,
      "duration": 0.0161,
      "velocity": 124,
      "chip": "ym2612"
    },
    {
      "channel": 5,
      "note": 73,
      "start": 23.5349,
      "duration": 0.0156,
      "velocity": 108,
      "chip": "ym2612"
    },
    {
      "channel": 4,
      "note": 81,
      "start": 23.5361,
      "duration": 0.0161,
      "velocity": 98,
      "chip": "ym2612"
    },
    {
      "channel": 3,
      "note": 85,
      "start": 23.5373,
      "duration": 0.0161,
      "velocity": 98,
      "chip": "ym2612"
    },
    {
      "channel": 2,
      "note": 57,
      "start": 23.5384,
      "duration": 0.0162,
      "velocity": 93,
      "chip": "ym2612"
    },
    {
      "channel": 1,
      "note": 73,
      "start": 23.5395,
      "duration": 0.0161,
      "velocity": 108,
      "chip": "ym2612"
    },
    {
      "channel": 0,
      "note": 72,
      "start": 23.5493,
      "duration": 0.0161,
      "velocity": 124,
      "chip": "ym2612"
    },
    {
      "channel": 5,
      "note": 73,
      "start": 23.5505,
      "duration": 0.0161,
      "velocity": 108,
      "chip": "ym2612"
    },
    {
      "channel": 4,
      "note": 81,
      "start": 23.5522,
      "duration": 0.016,
      "velocity": 98,
      "chip": "ym2612"
    },
    {
      "channel": 3,
      "note": 85,
      "start": 23.5533,
      "duration": 0.0161,
      "velocity": 98,
      "chip": "ym2612"
    },
    {
      "channel": 2,
      "note": 57,
      "start": 23.5546,
      "duration": 0.0161,
      "velocity": 93,
      "chip": "ym2612"
    },
    {
      "channel": 1,
      "note": 73,
      "start": 23.5557,
      "duration": 0.0161,
      "velocity": 108,
      "chip": "ym2612"
    },
    {
      "channel": 0,
      "note": 70,
      "start": 23.5654,
      "duration": 0.0161,
      "velocity": 124,
      "chip": "ym2612"
    },
    {
      "channel": 5,
      "note": 73,
      "start": 23.5666,
      "duration": 0.0161,
      "velocity": 108,
      "chip": "ym2612"
    },
    {
      "channel": 4,
      "note": 81,
      "start": 23.5682,
      "duration": 0.0156,
      "velocity": 98,
      "chip": "ym2612"
    },
    {
      "channel": 3,
      "note": 85,
      "start": 23.5694,
      "duration": 0.016,
      "velocity": 98,
      "chip": "ym2612"
    },
    {
      "channel": 2,
      "note": 57,
      "start": 23.5706,
      "duration": 0.016,
      "velocity": 93,
      "chip": "ym2612"
    },
    {
      "channel": 1,
      "note": 73,
      "start": 23.5718,
      "duration": 0.0161,
      "velocity": 108,
      "chip": "ym2612"
    },
    {
      "channel": 0,
      "note": 68,
      "start": 23.5815,
      "duration": 0.0162,
      "velocity": 124,
      "chip": "ym2612"
    },
    {
      "channel": 5,
      "note": 73,
      "start": 23.5827,
      "duration": 0.0161,
      "velocity": 108,
      "chip": "ym2612"
    },
    {
      "channel": 4,
      "note": 81,
      "start": 23.5838,
      "duration": 0.0161,
      "velocity": 98,
      "chip": "ym2612"
    },
    {
      "channel": 3,
      "note": 85,
      "start": 23.5855,
      "duration": 0.0162,
      "velocity": 98,
      "chip": "ym2612"
    },
    {
      "channel": 2,
      "note": 57,
      "start": 23.5867,
      "duration": 0.0162,
      "velocity": 93,
      "chip": "ym2612"
    },
    {
      "channel": 1,
      "note": 73,
      "start": 23.5879,
      "duration": 0.0161,
      "velocity": 108,
      "chip": "ym2612"
    },
    {
      "channel": 0,
      "note": 65,
      "start": 23.5976,
      "duration": 0.0161,
      "velocity": 124,
      "chip": "ym2612"
    },
    {
      "channel": 5,
      "note": 73,
      "start": 23.5988,
      "duration": 0.0161,
      "velocity": 108,
      "chip": "ym2612"
    },
    {
      "channel": 4,
      "note": 81,
      "start": 23.5999,
      "duration": 0.0161,
      "velocity": 98,
      "chip": "ym2612"
    },
    {
      "channel": 3,
      "note": 85,
      "start": 23.6016,
      "duration": 0.0159,
      "velocity": 98,
      "chip": "ym2612"
    },
    {
      "channel": 2,
      "note": 57,
      "start": 23.6028,
      "duration": 0.0163,
      "velocity": 93,
      "chip": "ym2612"
    },
    {
      "channel": 1,
      "note": 73,
      "start": 23.604,
      "duration": 0.0164,
      "velocity": 108,
      "chip": "ym2612"
    },
    {
      "channel": 0,
      "note": 63,
      "start": 23.6137,
      "duration": 0.0153,
      "velocity": 1,
      "chip": "ym2612"
    },
    {
      "channel": 5,
      "note": 73,
      "start": 23.6149,
      "duration": 0.0153,
      "velocity": 108,
      "chip": "ym2612"
    },
    {
      "channel": 4,
      "note": 81,
      "start": 23.6161,
      "duration": 0.0153,
      "velocity": 98,
      "chip": "ym2612"
    },
    {
      "channel": 3,
      "note": 85,
      "start": 23.6175,
      "duration": 0.015,
      "velocity": 98,
      "chip": "ym2612"
    },
    {
      "channel": 2,
      "note": 57,
      "start": 23.6191,
      "duration": 0.0146,
      "velocity": 93,
      "chip": "ym2612"
    },
    {
      "channel": 1,
      "note": 73,
      "start": 23.6204,
      "duration": 0.0151,
      "velocity": 108,
      "chip": "ym2612"
    },
    {
      "channel": 5,
      "note": 73,
      "start": 23.6301,
      "duration": 0.0154,
      "velocity": 108,
      "chip": "ym2612"
    },
    {
      "channel": 4,
      "note": 81,
      "start": 23.6313,
      "duration": 0.0153,
      "velocity": 98,
      "chip": "ym2612"
    },
    {
      "channel": 3,
      "note": 85,
      "start": 23.6325,
      "duration": 0.0153,
      "velocity": 98,
      "chip": "ym2612"
    },
    {
      "channel": 2,
      "note": 57,
      "start": 23.6337,
      "duration": 0.0154,
      "velocity": 93,
      "chip": "ym2612"
    },
    {
      "channel": 1,
      "note": 73,
      "start": 23.6355,
      "duration": 0.0148,
      "velocity": 108,
      "chip": "ym2612"
    },
    {
      "channel": 5,
      "note": 73,
      "start": 23.6455,
      "duration": 0.0161,
      "velocity": 108,
      "chip": "ym2612"
    },
    {
      "channel": 4,
      "note": 81,
      "start": 23.6467,
      "duration": 0.016,
      "velocity": 98,
      "chip": "ym2612"
    },
    {
      "channel": 3,
      "note": 85,
      "start": 23.6479,
      "duration": 0.016,
      "velocity": 98,
      "chip": "ym2612"
    },
    {
      "channel": 2,
      "note": 57,
      "start": 23.6491,
      "duration": 0.0159,
      "velocity": 93,
      "chip": "ym2612"
    },
    {
      "channel": 1,
      "note": 73,
      "start": 23.6504,
      "duration": 0.0158,
      "velocity": 108,
      "chip": "ym2612"
    },
    {
      "channel": 5,
      "note": 73,
      "start": 23.6615,
      "duration": 0.016,
      "velocity": 108,
      "chip": "ym2612"
    },
    {
      "channel": 4,
      "note": 81,
      "start": 23.6627,
      "duration": 0.016,
      "velocity": 98,
      "chip": "ym2612"
    },
    {
      "channel": 3,
      "note": 85,
      "start": 23.6638,
      "duration": 0.016,
      "velocity": 98,
      "chip": "ym2612"
    },
    {
      "channel": 2,
      "note": 57,
      "start": 23.665,
      "duration": 0.0161,
      "velocity": 93,
      "chip": "ym2612"
    },
    {
      "channel": 1,
      "note": 73,
      "start": 23.6662,
      "duration": 0.016,
      "velocity": 108,
      "chip": "ym2612"
    },
    {
      "channel": 5,
      "note": 73,
      "start": 23.6776,
      "duration": 0.0161,
      "velocity": 108,
      "chip": "ym2612"
    },
    {
      "channel": 4,
      "note": 81,
      "start": 23.6787,
      "duration": 0.0161,
      "velocity": 98,
      "chip": "ym2612"
    },
    {
      "channel": 3,
      "note": 85,
      "start": 23.6799,
      "duration": 0.0161,
      "velocity": 98,
      "chip": "ym2612"
    },
    {
      "channel": 2,
      "note": 57,
      "start": 23.6811,
      "duration": 0.0161,
      "velocity": 93,
      "chip": "ym2612"
    },
    {
      "channel": 1,
      "note": 73,
      "start": 23.6822,
      "duration": 0.0161,
      "velocity": 108,
      "chip": "ym2612"
    },
    {
      "channel": 5,
      "note": 73,
      "start": 23.6937,
      "duration": 0.0161,
      "velocity": 108,
      "chip": "ym2612"
    },
    {
      "channel": 4,
      "note": 81,
      "start": 23.6948,
      "duration": 0.0161,
      "velocity": 98,
      "chip": "ym2612"
    },
    {
      "channel": 3,
      "note": 85,
      "start": 23.696,
      "duration": 0.0162,
      "velocity": 98,
      "chip": "ym2612"
    },
    {
      "channel": 2,
      "note": 57,
      "start": 23.6972,
      "duration": 0.0161,
      "velocity": 93,
      "chip": "ym2612"
    },
    {
      "channel": 1,
      "note": 73,
      "start": 23.6983,
      "duration": 0.0161,
      "velocity": 108,
      "chip": "ym2612"
    },
    {
      "channel": 5,
      "note": 73,
      "start": 23.7098,
      "duration": 0.0161,
      "velocity": 108,
      "chip": "ym2612"
    },
    {
      "channel": 4,
      "note": 81,
      "start": 23.7109,
      "duration": 0.0162,
      "velocity": 98,
      "chip": "ym2612"
    },
    {
      "channel": 3,
      "note": 85,
      "start": 23.7121,
      "duration": 0.0162,
      "velocity": 98,
      "chip": "ym2612"
    },
    {
      "channel": 2,
      "note": 57,
      "start": 23.7133,
      "duration": 0.0163,
      "velocity": 93,
      "chip": "ym2612"
    },
    {
      "channel": 1,
      "note": 73,
      "start": 23.7144,
      "duration": 0.0163,
      "velocity": 108,
      "chip": "ym2612"
    },
    {
      "channel": 5,
      "note": 73,
      "start": 23.7259,
      "duration": 0.0162,
      "velocity": 108,
      "chip": "ym2612"
    },
    {
      "channel": 4,
      "note": 81,
      "start": 23.7271,
      "duration": 0.0162,
      "velocity": 98,
      "chip": "ym2612"
    },
    {
      "channel": 3,
      "note": 85,
      "start": 23.7283,
      "duration": 0.0162,
      "velocity": 98,
      "chip": "ym2612"
    },
    {
      "channel": 2,
      "note": 57,
      "start": 23.7295,
      "duration": 0.0162,
      "velocity": 93,
      "chip": "ym2612"
    },
    {
      "channel": 1,
      "note": 73,
      "start": 23.7308,
      "duration": 0.0163,
      "velocity": 108,
      "chip": "ym2612"
    },
    {
      "channel": 5,
      "note": 73,
      "start": 23.742,
      "duration": 0.0197,
      "velocity": 108,
      "chip": "ym2612"
    },
    {
      "channel": 2,
      "note": 57,
      "start": 23.7458,
      "duration": 0.0204,
      "velocity": 93,
      "chip": "ym2612"
    },
    {
      "channel": 0,
      "note": 36,
      "start": 23.7605,
      "duration": 0.0143,
      "velocity": 115,
      "chip": "ym2612"
    },
    {
      "channel": 5,
      "note": 73,
      "start": 23.7617,
      "duration": 0.0144,
      "velocity": 108,
      "chip": "ym2612"
    },
    {
      "channel": 4,
      "note": 81,
      "start": 23.7632,
      "duration": 0.0141,
      "velocity": 98,
      "chip": "ym2612"
    },
    {
      "channel": 3,
      "note": 85,
      "start": 23.7647,
      "duration": 0.0137,
      "velocity": 98,
      "chip": "ym2612"
    },
    {
      "channel": 2,
      "note": 57,
      "start": 23.7663,
      "duration": 0.0134,
      "velocity": 93,
      "chip": "ym2612"
    },
    {
      "channel": 1,
      "note": 73,
      "start": 23.7683,
      "duration": 0.0126,
      "velocity": 108,
      "chip": "ym2612"
    },
    {
      "channel": 0,
      "note": 36,
      "start": 23.7748,
      "duration": 0.016,
      "velocity": 115,
      "chip": "ym2612"
    },
    {
      "channel": 4,
      "note": 81,
      "start": 23.7773,
      "duration": 0.0162,
      "velocity": 98,
      "chip": "ym2612"
    },
    {
      "channel": 3,
      "note": 85,
      "start": 23.7785,
      "duration": 0.0161,
      "velocity": 98,
      "chip": "ym2612"
    },
    {
      "channel": 2,
      "note": 57,
      "start": 23.7797,
      "duration": 0.0161,
      "velocity": 93,
      "chip": "ym2612"
    },
    {
      "channel": 1,
      "note": 73,
      "start": 23.7809,
      "duration": 0.016,
      "velocity": 108,
      "chip": "ym2612"
    },
    {
      "channel": 0,
      "note": 37,
      "start": 23.7908,
      "duration": 0.0161,
      "velocity": 115,
      "chip": "ym2612"
    },
    {
      "channel": 5,
      "note": 73,
      "start": 23.7923,
      "duration": 0.0158,
      "velocity": 108,
      "chip": "ym2612"
    },
    {
      "channel": 4,
      "note": 81,
      "start": 23.7935,
      "duration": 0.0158,
      "velocity": 98,
      "chip": "ym2612"
    },
    {
      "channel": 3,
      "note": 85,
      "start": 23.7946,
      "duration": 0.0159,
      "velocity": 98,
      "chip": "ym2612"
    },
    {
      "channel": 2,
      "note": 57,
      "start": 23.7958,
      "duration": 0.0158,
      "velocity": 93,
      "chip": "ym2612"
    },
    {
      "channel": 1,
      "note": 73,
      "start": 23.7969,
      "duration": 0.0159,
      "velocity": 108,
      "chip": "ym2612"
    },
    {
      "channel": 0,
      "note": 37,
      "start": 23.8069,
      "duration": 0.0161,
      "velocity": 115,
      "chip": "ym2612"
    },
    {
      "channel": 5,
      "note": 73,
      "start": 23.8081,
      "duration": 0.016,
      "velocity": 108,
      "chip": "ym2612"
    },
    {
      "channel": 4,
      "note": 81,
      "start": 23.8093,
      "duration": 0.016,
      "velocity": 98,
      "chip": "ym2612"
    },
    {
      "channel": 3,
      "note": 85,
      "start": 23.8105,
      "duration": 0.016,
      "velocity": 98,
      "chip": "ym2612"
    },
    {
      "channel": 2,
      "note": 57,
      "start": 23.8116,
      "duration": 0.016,
      "velocity": 93,
      "chip": "ym2612"
    },
    {
      "channel": 1,
      "note": 73,
      "start": 23.8128,
      "duration": 0.016,
      "velocity": 108,
      "chip": "ym2612"
    },
    {
      "channel": 0,
      "note": 38,
      "start": 23.823,
      "duration": 0.0161,
      "velocity": 115,
      "chip": "ym2612"
    },
    {
      "channel": 5,
      "note": 73,
      "start": 23.8241,
      "duration": 0.0161,
      "velocity": 108,
      "chip": "ym2612"
    },
    {
      "channel": 4,
      "note": 81,
      "start": 23.8253,
      "duration": 0.0162,
      "velocity": 98,
      "chip": "ym2612"
    },
    {
      "channel": 3,
      "note": 85,
      "start": 23.8265,
      "duration": 0.0161,
      "velocity": 98,
      "chip": "ym2612"
    },
    {
      "channel": 2,
      "note": 57,
      "start": 23.8276,
      "duration": 0.0161,
      "velocity": 93,
      "chip": "ym2612"
    },
    {
      "channel": 1,
      "note": 73,
      "start": 23.8288,
      "duration": 0.0161,
      "velocity": 108,
      "chip": "ym2612"
    },
    {
      "channel": 0,
      "note": 38,
      "start": 23.8391,
      "duration": 0.0161,
      "velocity": 115,
      "chip": "ym2612"
    },
    {
      "channel": 5,
      "note": 73,
      "start": 23.8403,
      "duration": 0.0161,
      "velocity": 108,
      "chip": "ym2612"
    },
    {
      "channel": 4,
      "note": 81,
      "start": 23.8415,
      "duration": 0.0161,
      "velocity": 98,
      "chip": "ym2612"
    },
    {
      "channel": 3,
      "note": 85,
      "start": 23.8426,
      "duration": 0.0161,
      "velocity": 98,
      "chip": "ym2612"
    },
    {
      "channel": 2,
      "note": 57,
      "start": 23.8437,
      "duration": 0.0161,
      "velocity": 93,
      "chip": "ym2612"
    },
    {
      "channel": 1,
      "note": 73,
      "start": 23.8449,
      "duration": 0.0161,
      "velocity": 108,
      "chip": "ym2612"
    },
    {
      "channel": 0,
      "note": 39,
      "start": 23.8552,
      "duration": 0.0161,
      "velocity": 115,
      "chip": "ym2612"
    },
    {
      "channel": 5,
      "note": 73,
      "start": 23.8564,
      "duration": 0.0161,
      "velocity": 108,
      "chip": "ym2612"
    },
    {
      "channel": 4,
      "note": 81,
      "start": 23.8576,
      "duration": 0.0161,
      "velocity": 98,
      "chip": "ym2612"
    },
    {
      "channel": 3,
      "note": 85,
      "start": 23.8587,
      "duration": 0.0161,
      "velocity": 98,
      "chip": "ym2612"
    },
    {
      "channel": 2,
      "note": 57,
      "start": 23.8598,
      "duration": 0.0161,
      "velocity": 93,
      "chip": "ym2612"
    },
    {
      "channel": 1,
      "note": 73,
      "start": 23.861,
      "duration": 0.0161,
      "velocity": 108,
      "chip": "ym2612"
    },
    {
      "channel": 0,
      "note": 39,
      "start": 23.8713,
      "duration": 0.0161,
      "velocity": 115,
      "chip": "ym2612"
    },
    {
      "channel": 5,
      "note": 73,
      "start": 23.8725,
      "duration": 0.0161,
      "velocity": 108,
      "chip": "ym2612"
    },
    {
      "channel": 4,
      "note": 81,
      "start": 23.8736,
      "duration": 0.0162,
      "velocity": 98,
      "chip": "ym2612"
    },
    {
      "channel": 3,
      "note": 85,
      "start": 23.8748,
      "duration": 0.0161,
      "velocity": 98,
      "chip": "ym2612"
    },
    {
      "channel": 2,
      "note": 57,
      "start": 23.8759,
      "duration": 0.0162,
      "velocity": 93,
      "chip": "ym2612"
    },
    {
      "channel": 1,
      "note": 73,
      "start": 23.8771,
      "duration": 0.0161,
      "velocity": 108,
      "chip": "ym2612"
    },
    {
      "channel": 0,
      "note": 40,
      "start": 23.8874,
      "duration": 0.0162,
      "velocity": 115,
      "chip": "ym2612"
    },
    {
      "channel": 5,
      "note": 73,
      "start": 23.8886,
      "duration": 0.0161,
      "velocity": 108,
      "chip": "ym2612"
    },
    {
      "channel": 4,
      "note": 81,
      "start": 23.8898,
      "duration": 0.0161,
      "velocity": 98,
      "chip": "ym2612"
    },
    {
      "channel": 3,
      "note": 85,
      "start": 23.8909,
      "duration": 0.0163,
      "velocity": 98,
      "chip": "ym2612"
    },
    {
      "channel": 2,
      "note": 57,
      "start": 23.8921,
      "duration": 0.0163,
      "velocity": 93,
      "chip": "ym2612"
    },
    {
      "channel": 1,
      "note": 73,
      "start": 23.8932,
      "duration": 0.0165,
      "velocity": 108,
      "chip": "ym2612"
    },
    {
      "channel": 0,
      "note": 40,
      "start": 23.9036,
      "duration": 0.0164,
      "velocity": 115,
      "chip": "ym2612"
    },
    {
      "channel": 5,
      "note": 73,
      "start": 23.9047,
      "duration": 0.0164,
      "velocity": 108,
      "chip": "ym2612"
    },
    {
      "channel": 4,
      "note": 81,
      "start": 23.9059,
      "duration": 0.0164,
      "velocity": 98,
      "chip": "ym2612"
    },
    {
      "channel": 3,
      "note": 85,
      "start": 23.9072,
      "duration": 0.0163,
      "velocity": 98,
      "chip": "ym2612"
    },
    {
      "channel": 2,
      "note": 57,
      "start": 23.9084,
      "duration": 0.0163,
      "velocity": 93,
      "chip": "ym2612"
    },
    {
      "channel": 1,
      "note": 73,
      "start": 23.9097,
      "duration": 0.0163,
      "velocity": 108,
      "chip": "ym2612"
    },
    {
      "channel": 0,
      "note": 40,
      "start": 23.92,
      "duration": 0.0163,
      "velocity": 115,
      "chip": "ym2612"
    },
    {
      "channel": 5,
      "note": 73,
      "start": 23.9212,
      "duration": 0.0163,
      "velocity": 108,
      "chip": "ym2612"
    },
    {
      "channel": 4,
      "note": 81,
      "start": 23.9224,
      "duration": 0.0164,
      "velocity": 98,
      "chip": "ym2612"
    },
    {
      "channel": 3,
      "note": 85,
      "start": 23.9236,
      "duration": 0.0164,
      "velocity": 98,
      "chip": "ym2612"
    },
    {
      "channel": 2,
      "note": 57,
      "start": 23.9248,
      "duration": 0.0164,
      "velocity": 93,
      "chip": "ym2612"
    },
    {
      "channel": 1,
      "note": 73,
      "start": 23.926,
      "duration": 0.0164,
      "velocity": 108,
      "chip": "ym2612"
    },
    {
      "channel": 0,
      "note": 41,
      "start": 23.9363,
      "duration": 0.0161,
      "velocity": 115,
      "chip": "ym2612"
    },
    {
      "channel": 5,
      "note": 73,
      "start": 23.9375,
      "duration": 0.0161,
      "velocity": 108,
      "chip": "ym2612"
    },
    {
      "channel": 4,
      "note": 81,
      "start": 23.9388,
      "duration": 0.016,
      "velocity": 98,
      "chip": "ym2612"
    },
    {
      "channel": 3,
      "note": 85,
      "start": 23.94,
      "duration": 0.016,
      "velocity": 98,
      "chip": "ym2612"
    },
    {
      "channel": 2,
      "note": 57,
      "start": 23.9412,
      "duration": 0.0159,
      "velocity": 93,
      "chip": "ym2612"
    },
    {
      "channel": 0,
      "note": 41,
      "start": 23.9524,
      "duration": 0.0161,
      "velocity": 115,
      "chip": "ym2612"
    },
    {
      "channel": 5,
      "note": 73,
      "start": 23.9537,
      "duration": 0.016,
      "velocity": 108,
      "chip": "ym2612"
    },
    {
      "channel": 4,
      "note": 81,
      "start": 23.9548,
      "duration": 0.016,
      "velocity": 98,
      "chip": "ym2612"
    },
    {
      "channel": 3,
      "note": 85,
      "start": 23.9559,
      "duration": 0.0161,
      "velocity": 98,
      "chip": "ym2612"
    },
    {
      "channel": 2,
      "note": 57,
      "start": 23.9571,
      "duration": 0.0161,
      "velocity": 93,
      "chip": "ym2612"
    },
    {
      "channel": 1,
      "note": 73,
      "start": 23.9585,
      "duration": 0.0159,
      "velocity": 108,
      "chip": "ym2612"
    },
    {
      "channel": 0,
      "note": 42,
      "start": 23.9685,
      "duration": 0.0158,
      "velocity": 115,
      "chip": "ym2612"
    },
    {
      "channel": 4,
      "note": 81,
      "start": 23.9708,
      "duration": 0.0164,
      "velocity": 98,
      "chip": "ym2612"
    },
    {
      "channel": 3,
      "note": 85,
      "start": 23.972,
      "duration": 0.0164,
      "velocity": 98,
      "chip": "ym2612"
    },
    {
      "channel": 2,
      "note": 57,
      "start": 23.9732,
      "duration": 0.0164,
      "velocity": 93,
      "chip": "ym2612"
    },
    {
      "channel": 1,
      "note": 73,
      "start": 23.9744,
      "duration": 0.0163,
      "velocity": 108,
      "chip": "ym2612"
    },
    {
      "channel": 0,
      "note": 42,
      "start": 23.9843,
      "duration": 0.0158,
      "velocity": 115,
      "chip": "ym2612"
    },
    {
      "channel": 5,
      "note": 73,
      "start": 23.9861,
      "duration": 0.0158,
      "velocity": 108,
      "chip": "ym2612"
    },
    {
      "channel": 4,
      "note": 81,
      "start": 23.9873,
      "duration": 0.0158,
      "velocity": 98,
      "chip": "ym2612"
    },
    {
      "channel": 3,
      "note": 85,
      "start": 23.9885,
      "duration": 0.0158,
      "velocity": 98,
      "chip": "ym2612"
    },
    {
      "channel": 2,
      "note": 57,
      "start": 23.9896,
      "duration": 0.0159,
      "velocity": 93,
      "chip": "ym2612"
    },
    {
      "channel": 1,
      "note": 73,
      "start": 23.9907,
      "duration": 0.0158,
      "velocity": 108,
      "chip": "ym2612"
    },
    {
      "channel": 0,
      "note": 43,
      "start": 24.0001,
      "duration": 0.0161,
      "velocity": 115,
      "chip": "ym2612"
    },
    {
      "channel": 5,
      "note": 73,
      "start": 24.0019,
      "duration": 0.0157,
      "velocity": 108,
      "chip": "ym2612"
    },
    {
      "channel": 4,
      "note": 81,
      "start": 24.0031,
      "duration": 0.0161,
      "velocity": 98,
      "chip": "ym2612"
    },
    {
      "channel": 3,
      "note": 85,
      "start": 24.0042,
      "duration": 0.0161,
      "velocity": 98,
      "chip": "ym2612"
    },
    {
      "channel": 2,
      "note": 57,
      "start": 24.0054,
      "duration": 0.0162,
      "velocity": 93,
      "chip": "ym2612"
    },
    {
      "channel": 1,
      "note": 73,
      "start": 24.0066,
      "duration": 0.0162,
      "velocity": 108,
      "chip": "ym2612"
    },
    {
      "channel": 0,
      "note": 43,
      "start": 24.0162,
      "duration": 0.0161,
      "velocity": 115,
      "chip": "ym2612"
    },
    {
      "channel": 5,
      "note": 73,
      "start": 24.0176,
      "duration": 0.0159,
      "velocity": 108,
      "chip": "ym2612"
    },
    {
      "channel": 4,
      "note": 81,
      "start": 24.0192,
      "duration": 0.0161,
      "velocity": 98,
      "chip": "ym2612"
    },
    {
      "channel": 3,
      "note": 85,
      "start": 24.0204,
      "duration": 0.0162,
      "velocity": 98,
      "chip": "ym2612"
    },
    {
      "channel": 2,
      "note": 57,
      "start": 24.0217,
      "duration": 0.0162,
      "velocity": 93,
      "chip": "ym2612"
    },
    {
      "channel": 1,
      "note": 73,
      "start": 24.0228,
      "duration": 0.0161,
      "velocity": 108,
      "chip": "ym2612"
    },
    {
      "channel": 0,
      "note": 44,
      "start": 24.0323,
      "duration": 0.0179,
      "velocity": 124,
      "chip": "ym2612"
    },
    {
      "channel": 5,
      "note": 73,
      "start": 24.0335,
      "duration": 0.0185,
      "velocity": 108,
      "chip": "ym2612"
    },
    {
      "channel": 2,
      "note": 57,
      "start": 24.0378,
      "duration": 0.0187,
      "velocity": 93,
      "chip": "ym2612"
    },
    {
      "channel": 0,
      "note": 84,
      "start": 24.0503,
      "duration": 0.0143,
      "velocity": 124,
      "chip": "ym2612"
    },
    {
      "channel": 5,
      "note": 73,
      "start": 24.052,
      "duration": 0.0138,
      "velocity": 108,
      "chip": "ym2612"
    },
    {
      "channel": 4,
      "note": 81,
      "start": 24.0535,
      "duration": 0.0134,
      "velocity": 98,
      "chip": "ym2612"
    },
    {
      "channel": 3,
      "note": 85,
      "start": 24.0551,
      "duration": 0.0137,
      "velocity": 98,
      "chip": "ym2612"
    },
    {
      "channel": 2,
      "note": 57,
      "start": 24.0566,
      "duration": 0.0134,
      "velocity": 93,
      "chip": "ym2612"
    },
    {
      "channel": 1,
      "note": 75,
      "start": 24.058,
      "duration": 0.0132,
      "velocity": 108,
      "chip": "ym2612"
    },
    {
      "channel": 0,
      "note": 82,
      "start": 24.0646,
      "duration": 0.016,
      "velocity": 124,
      "chip": "ym2612"
    },
    {
      "channel": 4,
      "note": 81,
      "start": 24.067,
      "duration": 0.0163,
      "velocity": 98,
      "chip": "ym2612"
    },
    {
      "channel": 3,
      "note": 85,
      "start": 24.0688,
      "duration": 0.0162,
      "velocity": 98,
      "chip": "ym2612"
    },
    {
      "channel": 2,
      "note": 57,
      "start": 24.07,
      "duration": 0.0162,
      "velocity": 93,
      "chip": "ym2612"
    },
    {
      "channel": 1,
      "note": 75,
      "start": 24.0712,
      "duration": 0.0161,
      "velocity": 108,
      "chip": "ym2612"
    },
    {
      "channel": 0,
      "note": 80,
      "start": 24.0806,
      "duration": 0.0161,
      "velocity": 124,
      "chip": "ym2612"
    },
    {
      "channel": 5,
      "note": 75,
      "start": 24.0821,
      "duration": 0.0159,
      "velocity": 108,
      "chip": "ym2612"
    },
    {
      "channel": 4,
      "note": 81,
      "start": 24.0832,
      "duration": 0.0158,
      "velocity": 98,
      "chip": "ym2612"
    },
    {
      "channel": 3,
      "note": 85,
      "start": 24.085,
      "duration": 0.0153,
      "velocity": 98,
      "chip": "ym2612"
    },
    {
      "channel": 2,
      "note": 57,
      "start": 24.0862,
      "duration": 0.0158,
      "velocity": 93,
      "chip": "ym2612"
    },
    {
      "channel": 1,
      "note": 75,
      "start": 24.0873,
      "duration": 0.0159,
      "velocity": 108,
      "chip": "ym2612"
    },
    {
      "channel": 0,
      "note": 77,
      "start": 24.0967,
      "duration": 0.0161,
      "velocity": 124,
      "chip": "ym2612"
    },
    {
      "channel": 5,
      "note": 75,
      "start": 24.0979,
      "duration": 0.016,
      "velocity": 108,
      "chip": "ym2612"
    },
    {
      "channel": 4,
      "note": 81,
      "start": 24.0991,
      "duration": 0.016,
      "velocity": 98,
      "chip": "ym2612"
    },
    {
      "channel": 3,
      "note": 85,
      "start": 24.1003,
      "duration": 0.016,
      "velocity": 98,
      "chip": "ym2612"
    },
    {
      "channel": 2,
      "note": 57,
      "start": 24.102,
      "duration": 0.0157,
      "velocity": 93,
      "chip": "ym2612"
    },
    {
      "channel": 1,
      "note": 75,
      "start": 24.1032,
      "duration": 0.016,
      "velocity": 108,
      "chip": "ym2612"
    },
    {
      "channel": 0,
      "note": 75,
      "start": 24.1128,
      "duration": 0.0161,
      "velocity": 124,
      "chip": "ym2612"
    },
    {
      "channel": 5,
      "note": 75,
      "start": 24.114,
      "duration": 0.0161,
      "velocity": 108,
      "chip": "ym2612"
    },
    {
      "channel": 4,
      "note": 81,
      "start": 24.1151,
      "duration": 0.0162,
      "velocity": 98,
      "chip": "ym2612"
    },
    {
      "channel": 3,
      "note": 85,
      "start": 24.1163,
      "duration": 0.0161,
      "velocity": 98,
      "chip": "ym2612"
    },
    {
      "channel": 2,
      "note": 57,
      "start": 24.1177,
      "duration": 0.0159,
      "velocity": 93,
      "chip": "ym2612"
    },
    {
      "channel": 1,
      "note": 75,
      "start": 24.1191,
      "duration": 0.0162,
      "velocity": 108,
      "chip": "ym2612"
    },
    {
      "channel": 0,
      "note": 72,
      "start": 24.1289,
      "duration": 0.0161,
      "velocity": 124,
      "chip": "ym2612"
    },
    {
      "channel": 5,
      "note": 75,
      "start": 24.1301,
      "duration": 0.0161,
      "velocity": 108,
      "chip": "ym2612"
    },
    {
      "channel": 4,
      "note": 81,
      "start": 24.1313,
      "duration": 0.0161,
      "velocity": 98,
      "chip": "ym2612"
    },
    {
      "channel": 3,
      "note": 85,
      "start": 24.1324,
      "duration": 0.0161,
      "velocity": 98,
      "chip": "ym2612"
    },
    {
      "channel": 2,
      "note": 57,
      "start": 24.1336,
      "duration": 0.0161,
      "velocity": 93,
      "chip": "ym2612"
    },
    {
      "channel": 1,
      "note": 75,
      "start": 24.1353,
      "duration": 0.0157,
      "velocity": 108,
      "chip": "ym2612"
    },
    {
      "channel": 0,
      "note": 70,
      "start": 24.145,
      "duration": 0.0161,
      "velocity": 124,
      "chip": "ym2612"
    },
    {
      "channel": 5,
      "note": 75,
      "start": 24.1462,
      "duration": 0.0161,
      "velocity": 108,
      "chip": "ym2612"
    },
    {
      "channel": 4,
      "note": 81,
      "start": 24.1474,
      "duration": 0.0161,
      "velocity": 98,
      "chip": "ym2612"
    },
    {
      "channel": 3,
      "note": 85,
      "start": 24.1485,
      "duration": 0.0161,
      "velocity": 98,
      "chip": "ym2612"
    },
    {
      "channel": 2,
      "note": 57,
      "start": 24.1497,
      "duration": 0.0161,
      "velocity": 93,
      "chip": "ym2612"
    },
    {
      "channel": 1,
      "note": 75,
      "start": 24.151,
      "duration": 0.0159,
      "velocity": 108,
      "chip": "ym2612"
    },
    {
      "channel": 0,
      "note": 68,
      "start": 24.1611,
      "duration": 0.0161,
      "velocity": 124,
      "chip": "ym2612"
    },
    {
      "channel": 5,
      "note": 75,
      "start": 24.1623,
      "duration": 0.0161,
      "velocity": 108,
      "chip": "ym2612"
    },
    {
      "channel": 4,
      "note": 81,
      "start": 24.1634,
      "duration": 0.0161,
      "velocity": 98,
      "chip": "ym2612"
    },
    {
      "channel": 3,
      "note": 85,
      "start": 24.1646,
      "duration": 0.0161,
      "velocity": 98,
      "chip": "ym2612"
    },
    {
      "channel": 2,
      "note": 57,
      "start": 24.1657,
      "duration": 0.0161,
      "velocity": 93,
      "chip": "ym2612"
    },
    {
      "channel": 1,
      "note": 75,
      "start": 24.1669,
      "duration": 0.0161,
      "velocity": 108,
      "chip": "ym2612"
    },
    {
      "channel": 0,
      "note": 65,
      "start": 24.1772,
      "duration": 0.0162,
      "velocity": 124,
      "chip": "ym2612"
    },
    {
      "channel": 5,
      "note": 75,
      "start": 24.1784,
      "duration": 0.0161,
      "velocity": 108,
      "chip": "ym2612"
    },
    {
      "channel": 4,
      "note": 81,
      "start": 24.1795,
      "duration": 0.0162,
      "velocity": 98,
      "chip": "ym2612"
    },
    {
      "channel": 3,
      "note": 85,
      "start": 24.1807,
      "duration": 0.0163,
      "velocity": 98,
      "chip": "ym2612"
    },
    {
      "channel": 2,
      "note": 57,
      "start": 24.1818,
      "duration": 0.0163,
      "velocity": 93,
      "chip": "ym2612"
    },
    {
      "channel": 1,
      "note": 75,
      "start": 24.183,
      "duration": 0.0163,
      "velocity": 108,
      "chip": "ym2612"
    },
    {
      "channel": 0,
      "note": 63,
      "start": 24.1934,
      "duration": 0.0153,
      "velocity": 1,
      "chip": "ym2612"
    },
    {
      "channel": 5,
      "note": 75,
      "start": 24.1945,
      "duration": 0.0153,
      "velocity": 108,
      "chip": "ym2612"
    },
    {
      "channel": 4,
      "note": 81,
      "start": 24.1957,
      "duration": 0.0153,
      "velocity": 98,
      "chip": "ym2612"
    },
    {
      "channel": 3,
      "note": 85,
      "start": 24.197,
      "duration": 0.0152,
      "velocity": 98,
      "chip": "ym2612"
    },
    {
      "channel": 2,
      "note": 57,
      "start": 24.1982,
      "duration": 0.0152,
      "velocity": 93,
      "chip": "ym2612"
    },
    {
      "channel": 1,
      "note": 75,
      "start": 24.1993,
      "duration": 0.0152,
      "velocity": 108,
      "chip": "ym2612"
    },
    {
      "channel": 5,
      "note": 75,
      "start": 24.2098,
      "duration": 0.0153,
      "velocity": 108,
      "chip": "ym2612"
    },
    {
      "channel": 4,
      "note": 81,
      "start": 24.211,
      "duration": 0.0153,
      "velocity": 98,
      "chip": "ym2612"
    },
    {
      "channel": 3,
      "note": 85,
      "start": 24.2122,
      "duration": 0.0153,
      "velocity": 98,
      "chip": "ym2612"
    },
    {
      "channel": 2,
      "note": 57,
      "start": 24.2134,
      "duration": 0.0153,
      "velocity": 93,
      "chip": "ym2612"
    },
    {
      "channel": 1,
      "note": 75,
      "start": 24.2145,
      "duration": 0.0153,
      "velocity": 108,
      "chip": "ym2612"
    },
    {
      "channel": 5,
      "note": 75,
      "start": 24.225,
      "duration": 0.0161,
      "velocity": 108,
      "chip": "ym2612"
    },
    {
      "channel": 4,
      "note": 81,
      "start": 24.2262,
      "duration": 0.016,
      "velocity": 98,
      "chip": "ym2612"
    },
    {
      "channel": 3,
      "note": 85,
      "start": 24.2275,
      "duration": 0.016,
      "velocity": 98,
      "chip": "ym2612"
    },
    {
      "channel": 2,
      "note": 57,
      "start": 24.2287,
      "duration": 0.0159,
      "velocity": 93,
      "chip": "ym2612"
    },
    {
      "channel": 5,
      "note": 75,
      "start": 24.2411,
      "duration": 0.0161,
      "velocity": 108,
      "chip": "ym2612"
    },
    {
      "channel": 4,
      "note": 81,
      "start": 24.2423,
      "duration": 0.0161,
      "velocity": 98,
      "chip": "ym2612"
    },
    {
      "channel": 3,
      "note": 85,
      "start": 24.2434,
      "duration": 0.0161,
      "velocity": 98,
      "chip": "ym2612"
    },
    {
      "channel": 2,
      "note": 57,
      "start": 24.2446,
      "duration": 0.0162,
      "velocity": 93,
      "chip": "ym2612"
    },
    {
      "channel": 1,
      "note": 76,
      "start": 24.2461,
      "duration": 0.0158,
      "velocity": 108,
      "chip": "ym2612"
    },
    {
      "channel": 4,
      "note": 81,
      "start": 24.2584,
      "duration": 0.0165,
      "velocity": 98,
      "chip": "ym2612"
    },
    {
      "channel": 3,
      "note": 85,
      "start": 24.2596,
      "duration": 0.0164,
      "velocity": 98,
      "chip": "ym2612"
    },
    {
      "channel": 2,
      "note": 57,
      "start": 24.2607,
      "duration": 0.0164,
      "velocity": 93,
      "chip": "ym2612"
    },
    {
      "channel": 1,
      "note": 76,
      "start": 24.2619,
      "duration": 0.0163,
      "velocity": 108,
      "chip": "ym2612"
    },
    {
      "channel": 5,
      "note": 76,
      "start": 24.2737,
      "duration": 0.0158,
      "velocity": 108,
      "chip": "ym2612"
    },
    {
      "channel": 4,
      "note": 81,
      "start": 24.2749,
      "duration": 0.0158,
      "velocity": 98,
      "chip": "ym2612"
    },
    {
      "channel": 3,
      "note": 85,
      "start": 24.276,
      "duration": 0.0159,
      "velocity": 98,
      "chip": "ym2612"
    },
    {
      "channel": 2,
      "note": 57,
      "start": 24.2771,
      "duration": 0.0158,
      "velocity": 93,
      "chip": "ym2612"
    },
    {
      "channel": 1,
      "note": 76,
      "start": 24.2783,
      "duration": 0.0159,
      "velocity": 108,
      "chip": "ym2612"
    },
    {
      "channel": 5,
      "note": 76,
      "start": 24.2895,
      "duration": 0.016,
      "velocity": 108,
      "chip": "ym2612"
    },
    {
      "channel": 4,
      "note": 81,
      "start": 24.2906,
      "duration": 0.0161,
      "velocity": 98,
      "chip": "ym2612"
    },
    {
      "channel": 3,
      "note": 85,
      "start": 24.2918,
      "duration": 0.0161,
      "velocity": 98,
      "chip": "ym2612"
    },
    {
      "channel": 2,
      "note": 57,
      "start": 24.293,
      "duration": 0.0162,
      "velocity": 93,
      "chip": "ym2612"
    },
    {
      "channel": 1,
      "note": 76,
      "start": 24.2941,
      "duration": 0.0162,
      "velocity": 108,
      "chip": "ym2612"
    },
    {
      "channel": 5,
      "note": 76,
      "start": 24.3055,
      "duration": 0.0161,
      "velocity": 108,
      "chip": "ym2612"
    },
    {
      "channel": 4,
      "note": 81,
      "start": 24.3067,
      "duration": 0.0162,
      "velocity": 98,
      "chip": "ym2612"
    },
    {
      "channel": 3,
      "note": 85,
      "start": 24.308,
      "duration": 0.0162,
      "velocity": 98,
      "chip": "ym2612"
    },
    {
      "channel": 2,
      "note": 57,
      "start": 24.3092,
      "duration": 0.0162,
      "velocity": 93,
      "chip": "ym2612"
    },
    {
      "channel": 1,
      "note": 76,
      "start": 24.3103,
      "duration": 0.0162,
      "velocity": 108,
      "chip": "ym2612"
    },
    {
      "channel": 5,
      "note": 76,
      "start": 24.3216,
      "duration": 0.0161,
      "velocity": 108,
      "chip": "ym2612"
    },
    {
      "channel": 2,
      "note": 57,
      "start": 24.3254,
      "duration": 0.0164,
      "velocity": 93,
      "chip": "ym2612"
    },
    {
      "channel": 1,
      "note": 76,
      "start": 24.3266,
      "duration": 0.0165,
      "velocity": 108,
      "chip": "ym2612"
    },
    {
      "channel": 5,
      "note": 76,
      "start": 24.3377,
      "duration": 0.0162,
      "velocity": 108,
      "chip": "ym2612"
    },
    {
      "channel": 2,
      "note": 57,
      "start": 24.3418,
      "duration": 0.0158,
      "velocity": 93,
      "chip": "ym2612"
    },
    {
      "channel": 1,
      "note": 76,
      "start": 24.343,
      "duration": 0.0157,
      "velocity": 108,
      "chip": "ym2612"
    },
    {
      "channel": 5,
      "note": 76,
      "start": 24.3539,
      "duration": 0.0162,
      "velocity": 108,
      "chip": "ym2612"
    },
    {
      "channel": 2,
      "note": 57,
      "start": 24.3576,
      "duration": 0.0162,
      "velocity": 93,
      "chip": "ym2612"
    },
    {
      "channel": 1,
      "note": 76,
      "start": 24.3588,
      "duration": 0.0163,
      "velocity": 108,
      "chip": "ym2612"
    },
    {
      "channel": 5,
      "note": 76,
      "start": 24.3701,
      "duration": 0.0163,
      "velocity": 108,
      "chip": "ym2612"
    },
    {
      "channel": 2,
      "note": 57,
      "start": 24.3738,
      "duration": 0.0163,
      "velocity": 93,
      "chip": "ym2612"
    },
    {
      "channel": 1,
      "note": 76,
      "start": 24.375,
      "duration": 0.0162,
      "velocity": 108,
      "chip": "ym2612"
    },
    {
      "channel": 5,
      "note": 76,
      "start": 24.3864,
      "duration": 0.0163,
      "velocity": 108,
      "chip": "ym2612"
    },
    {
      "channel": 2,
      "note": 57,
      "start": 24.3901,
      "duration": 0.0163,
      "velocity": 93,
      "chip": "ym2612"
    },
    {
      "channel": 1,
      "note": 76,
      "start": 24.3912,
      "duration": 0.0163,
      "velocity": 108,
      "chip": "ym2612"
    },
    {
      "channel": 5,
      "note": 76,
      "start": 24.4027,
      "duration": 0.0162,
      "velocity": 108,
      "chip": "ym2612"
    },
    {
      "channel": 2,
      "note": 57,
      "start": 24.4064,
      "duration": 0.0162,
      "velocity": 93,
      "chip": "ym2612"
    },
    {
      "channel": 1,
      "note": 76,
      "start": 24.4076,
      "duration": 0.0161,
      "velocity": 108,
      "chip": "ym2612"
    },
    {
      "channel": 5,
      "note": 76,
      "start": 24.4189,
      "duration": 0.016,
      "velocity": 108,
      "chip": "ym2612"
    },
    {
      "channel": 2,
      "note": 57,
      "start": 24.4226,
      "duration": 0.0161,
      "velocity": 93,
      "chip": "ym2612"
    },
    {
      "channel": 5,
      "note": 76,
      "start": 24.4349,
      "duration": 0.0155,
      "velocity": 108,
      "chip": "ym2612"
    },
    {
      "channel": 2,
      "note": 57,
      "start": 24.4386,
      "duration": 0.0161,
      "velocity": 93,
      "chip": "ym2612"
    },
    {
      "channel": 2,
      "note": 57,
      "start": 24.4547,
      "duration": 0.0162,
      "velocity": 93,
      "chip": "ym2612"
    },
    {
      "channel": 2,
      "note": 57,
      "start": 24.471,
      "duration": 0.0161,
      "velocity": 93,
      "chip": "ym2612"
    },
    {
      "channel": 2,
      "note": 57,
      "start": 24.4871,
      "duration": 0.016,
      "velocity": 93,
      "chip": "ym2612"
    },
    {
      "channel": 2,
      "note": 57,
      "start": 24.5031,
      "duration": 0.0162,
      "velocity": 93,
      "chip": "ym2612"
    },
    {
      "channel": 2,
      "note": 57,
      "start": 24.5193,
      "duration": 0.0204,
      "velocity": 93,
      "chip": "ym2612"
    },
    {
      "channel": 0,
      "note": 84,
      "start": 24.5333,
      "duration": 0.0143,
      "velocity": 124,
      "chip": "ym2612"
    },
    {
      "channel": 4,
      "note": 83,
      "start": 24.5367,
      "duration": 0.0134,
      "velocity": 98,
      "chip": "ym2612"
    },
    {
      "channel": 3,
      "note": 87,
      "start": 24.5383,
      "duration": 0.0135,
      "velocity": 98,
      "chip": "ym2612"
    },
    {
      "channel": 2,
      "note": 59,
      "start": 24.5397,
      "duration": 0.0134,
      "velocity": 93,
      "chip": "ym2612"
    },
    {
      "channel": 1,
      "note": 80,
      "start": 24.5412,
      "duration": 0.0132,
      "velocity": 108,
      "chip": "ym2612"
    },
    {
      "channel": 0,
      "note": 82,
      "start": 24.5476,
      "duration": 0.016,
      "velocity": 124,
      "chip": "ym2612"
    },
    {
      "channel": 4,
      "note": 83,
      "start": 24.5501,
      "duration": 0.0162,
      "velocity": 98,
      "chip": "ym2612"
    },
    {
      "channel": 3,
      "note": 87,
      "start": 24.5518,
      "duration": 0.0159,
      "velocity": 98,
      "chip": "ym2612"
    },
    {
      "channel": 2,
      "note": 59,
      "start": 24.5531,
      "duration": 0.0162,
      "velocity": 93,
      "chip": "ym2612"
    },
    {
      "channel": 1,
      "note": 80,
      "start": 24.5544,
      "duration": 0.016,
      "velocity": 108,
      "chip": "ym2612"
    },
    {
      "channel": 0,
      "note": 80,
      "start": 24.5637,
      "duration": 0.0161,
      "velocity": 124,
      "chip": "ym2612"
    },
    {
      "channel": 5,
      "note": 80,
      "start": 24.5652,
      "duration": 0.0159,
      "velocity": 108,
      "chip": "ym2612"
    },
    {
      "channel": 4,
      "note": 83,
      "start": 24.5663,
      "duration": 0.0158,
      "velocity": 98,
      "chip": "ym2612"
    },
    {
      "channel": 3,
      "note": 87,
      "start": 24.5677,
      "duration": 0.0156,
      "velocity": 98,
      "chip": "ym2612"
    },
    {
      "channel": 2,
      "note": 59,
      "start": 24.5693,
      "duration": 0.0158,
      "velocity": 93,
      "chip": "ym2612"
    },
    {
      "channel": 1,
      "note": 80,
      "start": 24.5704,
      "duration": 0.0159,
      "velocity": 108,
      "chip": "ym2612"
    },
    {
      "channel": 0,
      "note": 77,
      "start": 24.5798,
      "duration": 0.0161,
      "velocity": 124,
      "chip": "ym2612"
    },
    {
      "channel": 5,
      "note": 80,
      "start": 24.581,
      "duration": 0.016,
      "velocity": 108,
      "chip": "ym2612"
    },
    {
      "channel": 4,
      "note": 83,
      "start": 24.5822,
      "duration": 0.016,
      "velocity": 98,
      "chip": "ym2612"
    },
    {
      "channel": 3,
      "note": 87,
      "start": 24.5833,
      "duration": 0.016,
      "velocity": 98,
      "chip": "ym2612"
    },
    {
      "channel": 2,
      "note": 59,
      "start": 24.585,
      "duration": 0.0155,
      "velocity": 93,
      "chip": "ym2612"
    },
    {
      "channel": 1,
      "note": 80,
      "start": 24.5862,
      "duration": 0.016,
      "velocity": 108,
      "chip": "ym2612"
    },
    {
      "channel": 0,
      "note": 75,
      "start": 24.5958,
      "duration": 0.0162,
      "velocity": 124,
      "chip": "ym2612"
    },
    {
      "channel": 5,
      "note": 80,
      "start": 24.5971,
      "duration": 0.0161,
      "velocity": 108,
      "chip": "ym2612"
    },
    {
      "channel": 4,
      "note": 83,
      "start": 24.5982,
      "duration": 0.0161,
      "velocity": 98,
      "chip": "ym2612"
    },
    {
      "channel": 3,
      "note": 87,
      "start": 24.5993,
      "duration": 0.0161,
      "velocity": 98,
      "chip": "ym2612"
    },
    {
      "channel": 2,
      "note": 59,
      "start": 24.6005,
      "duration": 0.0161,
      "velocity": 93,
      "chip": "ym2612"
    },
    {
      "channel": 1,
      "note": 80,
      "start": 24.6023,
      "duration": 0.016,
      "velocity": 108,
      "chip": "ym2612"
    },
    {
      "channel": 0,
      "note": 72,
      "start": 24.612,
      "duration": 0.016,
      "velocity": 124,
      "chip": "ym2612"
    },
    {
      "channel": 5,
      "note": 80,
      "start": 24.6131,
      "duration": 0.0161,
      "velocity": 108,
      "chip": "ym2612"
    },
    {
      "channel": 4,
      "note": 83,
      "start": 24.6143,
      "duration": 0.0161,
      "velocity": 98,
      "chip": "ym2612"
    },
    {
      "channel": 3,
      "note": 87,
      "start": 24.6154,
      "duration": 0.0161,
      "velocity": 98,
      "chip": "ym2612"
    },
    {
      "channel": 2,
      "note": 59,
      "start": 24.6166,
      "duration": 0.0161,
      "velocity": 93,
      "chip": "ym2612"
    },
    {
      "channel": 1,
      "note": 80,
      "start": 24.6183,
      "duration": 0.0155,
      "velocity": 108,
      "chip": "ym2612"
    },
    {
      "channel": 0,
      "note": 70,
      "start": 24.628,
      "duration": 0.0161,
      "velocity": 124,
      "chip": "ym2612"
    },
    {
      "channel": 5,
      "note": 80,
      "start": 24.6292,
      "duration": 0.0161,
      "velocity": 108,
      "chip": "ym2612"
    },
    {
      "channel": 4,
      "note": 83,
      "start": 24.6304,
      "duration": 0.0161,
      "velocity": 98,
      "chip": "ym2612"
    },
    {
      "channel": 3,
      "note": 87,
      "start": 24.6315,
      "duration": 0.0161,
      "velocity": 98,
      "chip": "ym2612"
    },
    {
      "channel": 2,
      "note": 59,
      "start": 24.6327,
      "duration": 0.0161,
      "velocity": 93,
      "chip": "ym2612"
    },
    {
      "channel": 1,
      "note": 80,
      "start": 24.6338,
      "duration": 0.0162,
      "velocity": 108,
      "chip": "ym2612"
    },
    {
      "channel": 0,
      "note": 68,
      "start": 24.6442,
      "duration": 0.0161,
      "velocity": 124,
      "chip": "ym2612"
    },
    {
      "channel": 5,
      "note": 80,
      "start": 24.6453,
      "duration": 0.0161,
      "velocity": 108,
      "chip": "ym2612"
    },
    {
      "channel": 4,
      "note": 83,
      "start": 24.6465,
      "duration": 0.0161,
      "velocity": 98,
      "chip": "ym2612"
    },
    {
      "channel": 3,
      "note": 87,
      "start": 24.6476,
      "duration": 0.0161,
      "velocity": 98,
      "chip": "ym2612"
    },
    {
      "channel": 2,
      "note": 59,
      "start": 24.6488,
      "duration": 0.0162,
      "velocity": 93,
      "chip": "ym2612"
    },
    {
      "channel": 1,
      "note": 80,
      "start": 24.65,
      "duration": 0.0161,
      "velocity": 108,
      "chip": "ym2612"
    },
    {
      "channel": 0,
      "note": 65,
      "start": 24.6603,
      "duration": 0.0161,
      "velocity": 124,
      "chip": "ym2612"
    },
    {
      "channel": 5,
      "note": 80,
      "start": 24.6614,
      "duration": 0.0161,
      "velocity": 108,
      "chip": "ym2612"
    },
    {
      "channel": 4,
      "note": 83,
      "start": 24.6626,
      "duration": 0.0161,
      "velocity": 98,
      "chip": "ym2612"
    },
    {
      "channel": 3,
      "note": 87,
      "start": 24.6637,
      "duration": 0.0161,
      "velocity": 98,
      "chip": "ym2612"
    },
    {
      "channel": 2,
      "note": 59,
      "start": 24.6649,
      "duration": 0.0162,
      "velocity": 93,
      "chip": "ym2612"
    },
    {
      "channel": 1,
      "note": 80,
      "start": 24.6661,
      "duration": 0.0162,
      "velocity": 108,
      "chip": "ym2612"
    },
    {
      "channel": 0,
      "note": 63,
      "start": 24.6764,
      "duration": 0.0153,
      "velocity": 1,
      "chip": "ym2612"
    },
    {
      "channel": 5,
      "note": 80,
      "start": 24.6775,
      "duration": 0.0153,
      "velocity": 108,
      "chip": "ym2612"
    },
    {
      "channel": 4,
      "note": 83,
      "start": 24.6787,
      "duration": 0.0153,
      "velocity": 98,
      "chip": "ym2612"
    },
    {
      "channel": 3,
      "note": 87,
      "start": 24.6798,
      "duration": 0.0154,
      "velocity": 98,
      "chip": "ym2612"
    },
    {
      "channel": 2,
      "note": 59,
      "start": 24.6811,
      "duration": 0.0153,
      "velocity": 93,
      "chip": "ym2612"
    },
    {
      "channel": 1,
      "note": 80,
      "start": 24.6822,
      "duration": 0.0153,
      "velocity": 108,
      "chip": "ym2612"
    },
    {
      "channel": 5,
      "note": 80,
      "start": 24.6928,
      "duration": 0.0153,
      "velocity": 108,
      "chip": "ym2612"
    },
    {
      "channel": 4,
      "note": 83,
      "start": 24.694,
      "duration": 0.0152,
      "velocity": 98,
      "chip": "ym2612"
    },
    {
      "channel": 3,
      "note": 87,
      "start": 24.6951,
      "duration": 0.0152,
      "velocity": 98,
      "chip": "ym2612"
    },
    {
      "channel": 2,
      "note": 59,
      "start": 24.6963,
      "duration": 0.0153,
      "velocity": 93,
      "chip": "ym2612"
    },
    {
      "channel": 1,
      "note": 80,
      "start": 24.6975,
      "duration": 0.0153,
      "velocity": 108,
      "chip": "ym2612"
    },
    {
      "channel": 5,
      "note": 80,
      "start": 24.708,
      "duration": 0.0161,
      "velocity": 108,
      "chip": "ym2612"
    },
    {
      "channel": 4,
      "note": 83,
      "start": 24.7092,
      "duration": 0.0161,
      "velocity": 98,
      "chip": "ym2612"
    },
    {
      "channel": 3,
      "note": 87,
      "start": 24.7103,
      "duration": 0.0161,
      "velocity": 98,
      "chip": "ym2612"
    },
    {
      "channel": 2,
      "note": 59,
      "start": 24.7116,
      "duration": 0.016,
      "velocity": 93,
      "chip": "ym2612"
    },
    {
      "channel": 1,
      "note": 80,
      "start": 24.7128,
      "duration": 0.016,
      "velocity": 108,
      "chip": "ym2612"
    },
    {
      "channel": 5,
      "note": 80,
      "start": 24.7241,
      "duration": 0.0161,
      "velocity": 108,
      "chip": "ym2612"
    },
    {
      "channel": 4,
      "note": 83,
      "start": 24.7253,
      "duration": 0.0161,
      "velocity": 98,
      "chip": "ym2612"
    },
    {
      "channel": 3,
      "note": 87,
      "start": 24.7264,
      "duration": 0.0161,
      "velocity": 98,
      "chip": "ym2612"
    },
    {
      "channel": 2,
      "note": 59,
      "start": 24.7276,
      "duration": 0.0161,
      "velocity": 93,
      "chip": "ym2612"
    },
    {
      "channel": 1,
      "note": 80,
      "start": 24.7288,
      "duration": 0.0161,
      "velocity": 108,
      "chip": "ym2612"
    },
    {
      "channel": 5,
      "note": 80,
      "start": 24.7402,
      "duration": 0.0161,
      "velocity": 108,
      "chip": "ym2612"
    },
    {
      "channel": 4,
      "note": 83,
      "start": 24.7414,
      "duration": 0.0162,
      "velocity": 98,
      "chip": "ym2612"
    },
    {
      "channel": 3,
      "note": 87,
      "start": 24.7425,
      "duration": 0.0163,
      "velocity": 98,
      "chip": "ym2612"
    },
    {
      "channel": 2,
      "note": 59,
      "start": 24.7437,
      "duration": 0.0162,
      "velocity": 93,
      "chip": "ym2612"
    },
    {
      "channel": 1,
      "note": 80,
      "start": 24.7449,
      "duration": 0.0162,
      "velocity": 108,
      "chip": "ym2612"
    },
    {
      "channel": 5,
      "note": 80,
      "start": 24.7563,
      "duration": 0.0161,
      "velocity": 108,
      "chip": "ym2612"
    },
    {
      "channel": 4,
      "note": 83,
      "start": 24.7576,
      "duration": 0.016,
      "velocity": 98,
      "chip": "ym2612"
    },
    {
      "channel": 3,
      "note": 87,
      "start": 24.7588,
      "duration": 0.016,
      "velocity": 98,
      "chip": "ym2612"
    },
    {
      "channel": 2,
      "note": 59,
      "start": 24.76,
      "duration": 0.016,
      "velocity": 93,
      "chip": "ym2612"
    },
    {
      "channel": 1,
      "note": 80,
      "start": 24.7611,
      "duration": 0.0161,
      "velocity": 108,
      "chip": "ym2612"
    },
    {
      "channel": 5,
      "note": 80,
      "start": 24.7724,
      "duration": 0.0162,
      "velocity": 108,
      "chip": "ym2612"
    },
    {
      "channel": 4,
      "note": 83,
      "start": 24.7736,
      "duration": 0.0162,
      "velocity": 98,
      "chip": "ym2612"
    },
    {
      "channel": 3,
      "note": 87,
      "start": 24.7749,
      "duration": 0.0161,
      "velocity": 98,
      "chip": "ym2612"
    },
    {
      "channel": 2,
      "note": 59,
      "start": 24.776,
      "duration": 0.0162,
      "velocity": 93,
      "chip": "ym2612"
    },
    {
      "channel": 1,
      "note": 80,
      "start": 24.7772,
      "duration": 0.0162,
      "velocity": 108,
      "chip": "ym2612"
    },
    {
      "channel": 5,
      "note": 80,
      "start": 24.7886,
      "duration": 0.0161,
      "velocity": 108,
      "chip": "ym2612"
    },
    {
      "channel": 4,
      "note": 83,
      "start": 24.7898,
      "duration": 0.016,
      "velocity": 98,
      "chip": "ym2612"
    },
    {
      "channel": 3,
      "note": 87,
      "start": 24.791,
      "duration": 0.016,
      "velocity": 98,
      "chip": "ym2612"
    },
    {
      "channel": 2,
      "note": 59,
      "start": 24.7922,
      "duration": 0.016,
      "velocity": 93,
      "chip": "ym2612"
    },
    {
      "channel": 1,
      "note": 80,
      "start": 24.7934,
      "duration": 0.016,
      "velocity": 108,
      "chip": "ym2612"
    },
    {
      "channel": 5,
      "note": 80,
      "start": 24.8047,
      "duration": 0.0196,
      "velocity": 108,
      "chip": "ym2612"
    },
    {
      "channel": 2,
      "note": 59,
      "start": 24.8082,
      "duration": 0.0204,
      "velocity": 93,
      "chip": "ym2612"
    },
    {
      "channel": 0,
      "note": 36,
      "start": 24.8231,
      "duration": 0.0144,
      "velocity": 115,
      "chip": "ym2612"
    },
    {
      "channel": 5,
      "note": 80,
      "start": 24.8243,
      "duration": 0.0144,
      "velocity": 108,
      "chip": "ym2612"
    },
    {
      "channel": 4,
      "note": 83,
      "start": 24.8257,
      "duration": 0.0142,
      "velocity": 98,
      "chip": "ym2612"
    },
    {
      "channel": 3,
      "note": 87,
      "start": 24.8273,
      "duration": 0.0139,
      "velocity": 98,
      "chip": "ym2612"
    },
    {
      "channel": 2,
      "note": 59,
      "start": 24.8287,
      "duration": 0.0136,
      "velocity": 93,
      "chip": "ym2612"
    },
    {
      "channel": 1,
      "note": 78,
      "start": 24.8302,
      "duration": 0.0134,
      "velocity": 108,
      "chip": "ym2612"
    },
    {
      "channel": 0,
      "note": 36,
      "start": 24.8375,
      "duration": 0.016,
      "velocity": 115,
      "chip": "ym2612"
    },
    {
      "channel": 4,
      "note": 83,
      "start": 24.8399,
      "duration": 0.0162,
      "velocity": 98,
      "chip": "ym2612"
    },
    {
      "channel": 3,
      "note": 87,
      "start": 24.8411,
      "duration": 0.0161,
      "velocity": 98,
      "chip": "ym2612"
    },
    {
      "channel": 2,
      "note": 59,
      "start": 24.8423,
      "duration": 0.0161,
      "velocity": 93,
      "chip": "ym2612"
    },
    {
      "channel": 1,
      "note": 78,
      "start": 24.8435,
      "duration": 0.0161,
      "velocity": 108,
      "chip": "ym2612"
    },
    {
      "channel": 0,
      "note": 37,
      "start": 24.8535,
      "duration": 0.0164,
      "velocity": 115,
      "chip": "ym2612"
    },
    {
      "channel": 5,
      "note": 78,
      "start": 24.855,
      "duration": 0.0162,
      "velocity": 108,
      "chip": "ym2612"
    },
    {
      "channel": 4,
      "note": 83,
      "start": 24.8561,
      "duration": 0.0162,
      "velocity": 98,
      "chip": "ym2612"
    },
    {
      "channel": 3,
      "note": 87,
      "start": 24.8573,
      "duration": 0.0162,
      "velocity": 98,
      "chip": "ym2612"
    },
    {
      "channel": 2,
      "note": 59,
      "start": 24.8584,
      "duration": 0.0163,
      "velocity": 93,
      "chip": "ym2612"
    },
    {
      "channel": 1,
      "note": 78,
      "start": 24.8596,
      "duration": 0.0162,
      "velocity": 108,
      "chip": "ym2612"
    },
    {
      "channel": 0,
      "note": 37,
      "start": 24.87,
      "duration": 0.0163,
      "velocity": 115,
      "chip": "ym2612"
    },
    {
      "channel": 5,
      "note": 78,
      "start": 24.8712,
      "duration": 0.0162,
      "velocity": 108,
      "chip": "ym2612"
    },
    {
      "channel": 4,
      "note": 83,
      "start": 24.8724,
      "duration": 0.0162,
      "velocity": 98,
      "chip": "ym2612"
    },
    {
      "channel": 3,
      "note": 87,
      "start": 24.8735,
      "duration": 0.0162,
      "velocity": 98,
      "chip": "ym2612"
    },
    {
      "channel": 2,
      "note": 59,
      "start": 24.8747,
      "duration": 0.0162,
      "velocity": 93,
      "chip": "ym2612"
    },
    {
      "channel": 1,
      "note": 78,
      "start": 24.8759,
      "duration": 0.0163,
      "velocity": 108,
      "chip": "ym2612"
    },
    {
      "channel": 0,
      "note": 38,
      "start": 24.8863,
      "duration": 0.0161,
      "velocity": 115,
      "chip": "ym2612"
    },
    {
      "channel": 5,
      "note": 78,
      "start": 24.8874,
      "duration": 0.0161,
      "velocity": 108,
      "chip": "ym2612"
    },
    {
      "channel": 4,
      "note": 83,
      "start": 24.8886,
      "duration": 0.0161,
      "velocity": 98,
      "chip": "ym2612"
    },
    {
      "channel": 3,
      "note": 87,
      "start": 24.8897,
      "duration": 0.0162,
      "velocity": 98,
      "chip": "ym2612"
    },
    {
      "channel": 2,
      "note": 59,
      "start": 24.8909,
      "duration": 0.0162,
      "velocity": 93,
      "chip": "ym2612"
    },
    {
      "channel": 1,
      "note": 78,
      "start": 24.8922,
      "duration": 0.0161,
      "velocity": 108,
      "chip": "ym2612"
    },
    {
      "channel": 0,
      "note": 38,
      "start": 24.9024,
      "duration": 0.0179,
      "velocity": 124,
      "chip": "ym2612"
    },
    {
      "channel": 5,
      "note": 78,
      "start": 24.9035,
      "duration": 0.0179,
      "velocity": 108,
      "chip": "ym2612"
    },
    {
      "channel": 2,
      "note": 59,
      "start": 24.9071,
      "duration": 0.0188,
      "velocity": 93,
      "chip": "ym2612"
    },
    {
      "channel": 0,
      "note": 84,
      "start": 24.9203,
      "duration": 0.0139,
      "velocity": 124,
      "chip": "ym2612"
    },
    {
      "channel": 5,
      "note": 78,
      "start": 24.9215,
      "duration": 0.0144,
      "velocity": 108,
      "chip": "ym2612"
    },
    {
      "channel": 4,
      "note": 83,
      "start": 24.923,
      "duration": 0.0141,
      "velocity": 98,
      "chip": "ym2612"
    },
    {
      "channel": 3,
      "note": 87,
      "start": 24.9245,
      "duration": 0.0138,
      "velocity": 98,
      "chip": "ym2612"
    },
    {
      "channel": 2,
      "note": 59,
      "start": 24.926,
      "duration": 0.0135,
      "velocity": 93,
      "chip": "ym2612"
    },
    {
      "channel": 1,
      "note": 75,
      "start": 24.9275,
      "duration": 0.0132,
      "velocity": 108,
      "chip": "ym2612"
    },
    {
      "channel": 0,
      "note": 82,
      "start": 24.9343,
      "duration": 0.0158,
      "velocity": 124,
      "chip": "ym2612"
    },
    {
      "channel": 4,
      "note": 83,
      "start": 24.9371,
      "duration": 0.0163,
      "velocity": 98,
      "chip": "ym2612"
    },
    {
      "channel": 3,
      "note": 87,
      "start": 24.9383,
      "duration": 0.0162,
      "velocity": 98,
      "chip": "ym2612"
    },
    {
      "channel": 2,
      "note": 59,
      "start": 24.9395,
      "duration": 0.0161,
      "velocity": 93,
      "chip": "ym2612"
    },
    {
      "channel": 1,
      "note": 75,
      "start": 24.9407,
      "duration": 0.0161,
      "velocity": 108,
      "chip": "ym2612"
    },
    {
      "channel": 0,
      "note": 80,
      "start": 24.9501,
      "duration": 0.0161,
      "velocity": 124,
      "chip": "ym2612"
    },
    {
      "channel": 5,
      "note": 75,
      "start": 24.9522,
      "duration": 0.0155,
      "velocity": 108,
      "chip": "ym2612"
    },
    {
      "channel": 4,
      "note": 83,
      "start": 24.9533,
      "duration": 0.0159,
      "velocity": 98,
      "chip": "ym2612"
    },
    {
      "channel": 3,
      "note": 87,
      "start": 24.9545,
      "duration": 0.0158,
      "velocity": 98,
      "chip": "ym2612"
    },
    {
      "channel": 2,
      "note": 59,
      "start": 24.9556,
      "duration": 0.0159,
      "velocity": 93,
      "chip": "ym2612"
    },
    {
      "channel": 1,
      "note": 75,
      "start": 24.9568,
      "duration": 0.0159,
      "velocity": 108,
      "chip": "ym2612"
    },
    {
      "channel": 0,
      "note": 77,
      "start": 24.9662,
      "duration": 0.0161,
      "velocity": 124,
      "chip": "ym2612"
    },
    {
      "channel": 5,
      "note": 75,
      "start": 24.9677,
      "duration": 0.0158,
      "velocity": 108,
      "chip": "ym2612"
    },
    {
      "channel": 4,
      "note": 83,
      "start": 24.9692,
      "duration": 0.016,
      "velocity": 98,
      "chip": "ym2612"
    },
    {
      "channel": 3,
      "note": 87,
      "start": 24.9703,
      "duration": 0.016,
      "velocity": 98,
      "chip": "ym2612"
    },
    {
      "channel": 2,
      "note": 59,
      "start": 24.9715,
      "duration": 0.016,
      "velocity": 93,
      "chip": "ym2612"
    },
    {
      "channel": 1,
      "note": 75,
      "start": 24.9727,
      "duration": 0.016,
      "velocity": 108,
      "chip": "ym2612"
    },
    {
      "channel": 0,
      "note": 75,
      "start": 24.9823,
      "duration": 0.0161,
      "velocity": 124,
      "chip": "ym2612"
    },
    {
      "channel": 5,
      "note": 75,
      "start": 24.9834,
      "duration": 0.0161,
      "velocity": 108,
      "chip": "ym2612"
    },
    {
      "channel": 4,
      "note": 83,
      "start": 24.9851,
      "duration": 0.0158,
      "velocity": 98,
      "chip": "ym2612"
    },
    {
      "channel": 3,
      "note": 87,
      "start": 24.9863,
      "duration": 0.0161,
      "velocity": 98,
      "chip": "ym2612"
    },
    {
      "channel": 2,
      "note": 59,
      "start": 24.9875,
      "duration": 0.0161,
      "velocity": 93,
      "chip": "ym2612"
    },
    {
      "channel": 1,
      "note": 75,
      "start": 24.9887,
      "duration": 0.016,
      "velocity": 108,
      "chip": "ym2612"
    },
    {
      "channel": 0,
      "note": 72,
      "start": 24.9984,
      "duration": 0.0161,
      "velocity": 124,
      "chip": "ym2612"
    },
    {
      "channel": 5,
      "note": 75,
      "start": 24.9995,
      "duration": 0.0162,
      "velocity": 108,
      "chip": "ym2612"
    },
    {
      "channel": 4,
      "note": 83,
      "start": 25.0009,
      "duration": 0.0159,
      "velocity": 98,
      "chip": "ym2612"
    },
    {
      "channel": 3,
      "note": 87,
      "start": 25.0024,
      "duration": 0.016,
      "velocity": 98,
      "chip": "ym2612"
    },
    {
      "channel": 2,
      "note": 59,
      "start": 25.0036,
      "duration": 0.0161,
      "velocity": 93,
      "chip": "ym2612"
    },
    {
      "channel": 1,
      "note": 75,
      "start": 25.0047,
      "duration": 0.0162,
      "velocity": 108,
      "chip": "ym2612"
    },
    {
      "channel": 0,
      "note": 70,
      "start": 25.0145,
      "duration": 0.0161,
      "velocity": 124,
      "chip": "ym2612"
    },
    {
      "channel": 5,
      "note": 75,
      "start": 25.0157,
      "duration": 0.0161,
      "velocity": 108,
      "chip": "ym2612"
    },
    {
      "channel": 4,
      "note": 83,
      "start": 25.0168,
      "duration": 0.0161,
      "velocity": 98,
      "chip": "ym2612"
    },
    {
      "channel": 3,
      "note": 87,
      "start": 25.0185,
      "duration": 0.0158,
      "velocity": 98,
      "chip": "ym2612"
    },
    {
      "channel": 2,
      "note": 59,
      "start": 25.0197,
      "duration": 0.0161,
      "velocity": 93,
      "chip": "ym2612"
    },
    {
      "channel": 1,
      "note": 75,
      "start": 25.0209,
      "duration": 0.0161,
      "velocity": 108,
      "chip": "ym2612"
    },
    {
      "channel": 0,
      "note": 68,
      "start": 25.0306,
      "duration": 0.0161,
      "velocity": 124,
      "chip": "ym2612"
    },
    {
      "channel": 5,
      "note": 75,
      "start": 25.0318,
      "duration": 0.0161,
      "velocity": 108,
      "chip": "ym2612"
    },
    {
      "channel": 4,
      "note": 83,
      "start": 25.0329,
      "duration": 0.0161,
      "velocity": 98,
      "chip": "ym2612"
    },
    {
      "channel": 3,
      "note": 87,
      "start": 25.0343,
      "duration": 0.0159,
      "velocity": 98,
      "chip": "ym2612"
    },
    {
      "channel": 2,
      "note": 59,
      "start": 25.0358,
      "duration": 0.016,
      "velocity": 93,
      "chip": "ym2612"
    },
    {
      "channel": 1,
      "note": 75,
      "start": 25.037,
      "duration": 0.0161,
      "velocity": 108,
      "chip": "ym2612"
    },
    {
      "channel": 0,
      "note": 65,
      "start": 25.0467,
      "duration": 0.0161,
      "velocity": 124,
      "chip": "ym2612"
    },
    {
      "channel": 5,
      "note": 75,
      "start": 25.0479,
      "duration": 0.0161,
      "velocity": 108,
      "chip": "ym2612"
    },
    {
      "channel": 4,
      "note": 83,
      "start": 25.049,
      "duration": 0.0161,
      "velocity": 98,
      "chip": "ym2612"
    },
    {
      "channel": 3,
      "note": 87,
      "start": 25.0502,
      "duration": 0.0162,
      "velocity": 98,
      "chip": "ym2612"
    },
    {
      "channel": 2,
      "note": 59,
      "start": 25.0518,
      "duration": 0.0163,
      "velocity": 93,
      "chip": "ym2612"
    },
    {
      "channel": 1,
      "note": 75,
      "start": 25.0531,
      "duration": 0.0164,
      "velocity": 108,
      "chip": "ym2612"
    },
    {
      "channel": 0,
      "note": 63,
      "start": 25.0628,
      "duration": 0.0153,
      "velocity": 1,
      "chip": "ym2612"
    },
    {
      "channel": 5,
      "note": 75,
      "start": 25.064,
      "duration": 0.0153,
      "velocity": 108,
      "chip": "ym2612"
    },
    {
      "channel": 4,
      "note": 83,
      "start": 25.0652,
      "duration": 0.0153,
      "velocity": 98,
      "chip": "ym2612"
    },
    {
      "channel": 3,
      "note": 87,
      "start": 25.0664,
      "duration": 0.0153,
      "velocity": 98,
      "chip": "ym2612"
    },
    {
      "channel": 2,
      "note": 59,
      "start": 25.0682,
      "duration": 0.0147,
      "velocity": 93,
      "chip": "ym2612"
    },
    {
      "channel": 1,
      "note": 75,
      "start": 25.0695,
      "duration": 0.0148,
      "velocity": 108,
      "chip": "ym2612"
    },
    {
      "channel": 5,
      "note": 75,
      "start": 25.0792,
      "duration": 0.0153,
      "velocity": 108,
      "chip": "ym2612"
    },
    {
      "channel": 4,
      "note": 83,
      "start": 25.0804,
      "duration": 0.0154,
      "velocity": 98,
      "chip": "ym2612"
    },
    {
      "channel": 3,
      "note": 87,
      "start": 25.0817,
      "duration": 0.0153,
      "velocity": 98,
      "chip": "ym2612"
    },
    {
      "channel": 2,
      "note": 59,
      "start": 25.0829,
      "duration": 0.0153,
      "velocity": 93,
      "chip": "ym2612"
    },
    {
      "channel": 1,
      "note": 75,
      "start": 25.0843,
      "duration": 0.0151,
      "velocity": 108,
      "chip": "ym2612"
    },
    {
      "channel": 5,
      "note": 75,
      "start": 25.0946,
      "duration": 0.0161,
      "velocity": 108,
      "chip": "ym2612"
    },
    {
      "channel": 4,
      "note": 83,
      "start": 25.0958,
      "duration": 0.016,
      "velocity": 98,
      "chip": "ym2612"
    },
    {
      "channel": 3,
      "note": 87,
      "start": 25.097,
      "duration": 0.016,
      "velocity": 98,
      "chip": "ym2612"
    },
    {
      "channel": 2,
      "note": 59,
      "start": 25.0982,
      "duration": 0.0159,
      "velocity": 93,
      "chip": "ym2612"
    },
    {
      "channel": 1,
      "note": 75,
      "start": 25.0994,
      "duration": 0.0159,
      "velocity": 108,
      "chip": "ym2612"
    },
    {
      "channel": 5,
      "note": 75,
      "start": 25.1107,
      "duration": 0.016,
      "velocity": 108,
      "chip": "ym2612"
    },
    {
      "channel": 4,
      "note": 83,
      "start": 25.1118,
      "duration": 0.016,
      "velocity": 98,
      "chip": "ym2612"
    },
    {
      "channel": 3,
      "note": 87,
      "start": 25.1129,
      "duration": 0.016,
      "velocity": 98,
      "chip": "ym2612"
    },
    {
      "channel": 2,
      "note": 59,
      "start": 25.1141,
      "duration": 0.0161,
      "velocity": 93,
      "chip": "ym2612"
    },
    {
      "channel": 1,
      "note": 75,
      "start": 25.1153,
      "duration": 0.016,
      "velocity": 108,
      "chip": "ym2612"
    },
    {
      "channel": 5,
      "note": 75,
      "start": 25.1267,
      "duration": 0.0161,
      "velocity": 108,
      "chip": "ym2612"
    },
    {
      "channel": 4,
      "note": 83,
      "start": 25.1278,
      "duration": 0.0161,
      "velocity": 98,
      "chip": "ym2612"
    },
    {
      "channel": 3,
      "note": 87,
      "start": 25.129,
      "duration": 0.0161,
      "velocity": 98,
      "chip": "ym2612"
    },
    {
      "channel": 2,
      "note": 59,
      "start": 25.1302,
      "duration": 0.0161,
      "velocity": 93,
      "chip": "ym2612"
    },
    {
      "channel": 1,
      "note": 75,
      "start": 25.1313,
      "duration": 0.0161,
      "velocity": 108,
      "chip": "ym2612"
    },
    {
      "channel": 5,
      "note": 75,
      "start": 25.1428,
      "duration": 0.0161,
      "velocity": 108,
      "chip": "ym2612"
    },
    {
      "channel": 4,
      "note": 83,
      "start": 25.1439,
      "duration": 0.0161,
      "velocity": 98,
      "chip": "ym2612"
    },
    {
      "channel": 3,
      "note": 87,
      "start": 25.1451,
      "duration": 0.0161,
      "velocity": 98,
      "chip": "ym2612"
    },
    {
      "channel": 2,
      "note": 59,
      "start": 25.1463,
      "duration": 0.0161,
      "velocity": 93,
      "chip": "ym2612"
    },
    {
      "channel": 1,
      "note": 75,
      "start": 25.1474,
      "duration": 0.0161,
      "velocity": 108,
      "chip": "ym2612"
    },
    {
      "channel": 5,
      "note": 75,
      "start": 25.1589,
      "duration": 0.0161,
      "velocity": 108,
      "chip": "ym2612"
    },
    {
      "channel": 4,
      "note": 83,
      "start": 25.16,
      "duration": 0.0162,
      "velocity": 98,
      "chip": "ym2612"
    },
    {
      "channel": 3,
      "note": 87,
      "start": 25.1612,
      "duration": 0.0162,
      "velocity": 98,
      "chip": "ym2612"
    },
    {
      "channel": 2,
      "note": 59,
      "start": 25.1624,
      "duration": 0.0163,
      "velocity": 93,
      "chip": "ym2612"
    },
    {
      "channel": 1,
      "note": 75,
      "start": 25.1635,
      "duration": 0.0163,
      "velocity": 108,
      "chip": "ym2612"
    },
    {
      "channel": 5,
      "note": 75,
      "start": 25.175,
      "duration": 0.0162,
      "velocity": 108,
      "chip": "ym2612"
    },
    {
      "channel": 4,
      "note": 83,
      "start": 25.1762,
      "duration": 0.0162,
      "velocity": 98,
      "chip": "ym2612"
    },
    {
      "channel": 3,
      "note": 87,
      "start": 25.1774,
      "duration": 0.0163,
      "velocity": 98,
      "chip": "ym2612"
    },
    {
      "channel": 2,
      "note": 59,
      "start": 25.1787,
      "duration": 0.0162,
      "velocity": 93,
      "chip": "ym2612"
    },
    {
      "channel": 1,
      "note": 75,
      "start": 25.1799,
      "duration": 0.0163,
      "velocity": 108,
      "chip": "ym2612"
    },
    {
      "channel": 5,
      "note": 75,
      "start": 25.1911,
      "duration": 0.0197,
      "velocity": 108,
      "chip": "ym2612"
    },
    {
      "channel": 2,
      "note": 59,
      "start": 25.1949,
      "duration": 0.0204,
      "velocity": 93,
      "chip": "ym2612"
    },
    {
      "channel": 0,
      "note": 84,
      "start": 25.2096,
      "duration": 0.0143,
      "velocity": 124,
      "chip": "ym2612"
    },
    {
      "channel": 5,
      "note": 75,
      "start": 25.2108,
      "duration": 0.0143,
      "velocity": 108,
      "chip": "ym2612"
    },
    {
      "channel": 4,
      "note": 81,
      "start": 25.2123,
      "duration": 0.0141,
      "velocity": 98,
      "chip": "ym2612"
    },
    {
      "channel": 3,
      "note": 83,
      "start": 25.2138,
      "duration": 0.0137,
      "velocity": 98,
      "chip": "ym2612"
    },
    {
      "channel": 2,
      "note": 59,
      "start": 25.2153,
      "duration": 0.0135,
      "velocity": 93,
      "chip": "ym2612"
    },
    {
      "channel": 1,
      "note": 71,
      "start": 25.2168,
      "duration": 0.0132,
      "velocity": 108,
      "chip": "ym2612"
    },
    {
      "channel": 0,
      "note": 82,
      "start": 25.2239,
      "duration": 0.016,
      "velocity": 124,
      "chip": "ym2612"
    },
    {
      "channel": 4,
      "note": 81,
      "start": 25.2264,
      "duration": 0.0161,
      "velocity": 98,
      "chip": "ym2612"
    },
    {
      "channel": 3,
      "note": 83,
      "start": 25.2276,
      "duration": 0.0161,
      "velocity": 98,
      "chip": "ym2612"
    },
    {
      "channel": 2,
      "note": 59,
      "start": 25.2288,
      "duration": 0.016,
      "velocity": 93,
      "chip": "ym2612"
    },
    {
      "channel": 1,
      "note": 71,
      "start": 25.23,
      "duration": 0.016,
      "velocity": 108,
      "chip": "ym2612"
    },
    {
      "channel": 0,
      "note": 80,
      "start": 25.2399,
      "duration": 0.0161,
      "velocity": 124,
      "chip": "ym2612"
    },
    {
      "channel": 5,
      "note": 71,
      "start": 25.2414,
      "duration": 0.0159,
      "velocity": 108,
      "chip": "ym2612"
    },
    {
      "channel": 4,
      "note": 81,
      "start": 25.2425,
      "duration": 0.0159,
      "velocity": 98,
      "chip": "ym2612"
    },
    {
      "channel": 3,
      "note": 83,
      "start": 25.2437,
      "duration": 0.0159,
      "velocity": 98,
      "chip": "ym2612"
    },
    {
      "channel": 2,
      "note": 59,
      "start": 25.2448,
      "duration": 0.0159,
      "velocity": 93,
      "chip": "ym2612"
    },
    {
      "channel": 1,
      "note": 71,
      "start": 25.246,
      "duration": 0.0159,
      "velocity": 108,
      "chip": "ym2612"
    },
    {
      "channel": 0,
      "note": 77,
      "start": 25.256,
      "duration": 0.0161,
      "velocity": 124,
      "chip": "ym2612"
    },
    {
      "channel": 5,
      "note": 71,
      "start": 25.2572,
      "duration": 0.016,
      "velocity": 108,
      "chip": "ym2612"
    },
    {
      "channel": 4,
      "note": 81,
      "start": 25.2584,
      "duration": 0.016,
      "velocity": 98,
      "chip": "ym2612"
    },
    {
      "channel": 3,
      "note": 83,
      "start": 25.2596,
      "duration": 0.016,
      "velocity": 98,
      "chip": "ym2612"
    },
    {
      "channel": 2,
      "note": 59,
      "start": 25.2607,
      "duration": 0.016,
      "velocity": 93,
      "chip": "ym2612"
    },
    {
      "channel": 1,
      "note": 71,
      "start": 25.2619,
      "duration": 0.016,
      "velocity": 108,
      "chip": "ym2612"
    },
    {
      "channel": 0,
      "note": 75,
      "start": 25.2721,
      "duration": 0.0161,
      "velocity": 124,
      "chip": "ym2612"
    },
    {
      "channel": 5,
      "note": 71,
      "start": 25.2732,
      "duration": 0.0161,
      "velocity": 108,
      "chip": "ym2612"
    },
    {
      "channel": 4,
      "note": 81,
      "start": 25.2744,
      "duration": 0.0161,
      "velocity": 98,
      "chip": "ym2612"
    },
    {
      "channel": 3,
      "note": 83,
      "start": 25.2756,
      "duration": 0.0161,
      "velocity": 98,
      "chip": "ym2612"
    },
    {
      "channel": 2,
      "note": 59,
      "start": 25.2768,
      "duration": 0.0161,
      "velocity": 93,
      "chip": "ym2612"
    },
    {
      "channel": 1,
      "note": 71,
      "start": 25.2779,
      "duration": 0.0161,
      "velocity": 108,
      "chip": "ym2612"
    },
    {
      "channel": 0,
      "note": 72,
      "start": 25.2882,
      "duration": 0.0161,
      "velocity": 124,
      "chip": "ym2612"
    },
    {
      "channel": 5,
      "note": 71,
      "start": 25.2893,
      "duration": 0.0161,
      "velocity": 108,
      "chip": "ym2612"
    },
    {
      "channel": 4,
      "note": 81,
      "start": 25.2905,
      "duration": 0.0161,
      "velocity": 98,
      "chip": "ym2612"
    },
    {
      "channel": 3,
      "note": 83,
      "start": 25.2917,
      "duration": 0.0161,
      "velocity": 98,
      "chip": "ym2612"
    },
    {
      "channel": 2,
      "note": 59,
      "start": 25.2929,
      "duration": 0.0161,
      "velocity": 93,
      "chip": "ym2612"
    },
    {
      "channel": 1,
      "note": 71,
      "start": 25.294,
      "duration": 0.0161,
      "velocity": 108,
      "chip": "ym2612"
    },
    {
      "channel": 0,
      "note": 70,
      "start": 25.3043,
      "duration": 0.0162,
      "velocity": 124,
      "chip": "ym2612"
    },
    {
      "channel": 5,
      "note": 71,
      "start": 25.3054,
      "duration": 0.0162,
      "velocity": 108,
      "chip": "ym2612"
    },
    {
      "channel": 4,
      "note": 81,
      "start": 25.3066,
      "duration": 0.0162,
      "velocity": 98,
      "chip": "ym2612"
    },
    {
      "channel": 3,
      "note": 83,
      "start": 25.3078,
      "duration": 0.0161,
      "velocity": 98,
      "chip": "ym2612"
    },
    {
      "channel": 2,
      "note": 59,
      "start": 25.3089,
      "duration": 0.0162,
      "velocity": 93,
      "chip": "ym2612"
    },
    {
      "channel": 1,
      "note": 71,
      "start": 25.3101,
      "duration": 0.0161,
      "velocity": 108,
      "chip": "ym2612"
    },
    {
      "channel": 0,
      "note": 68,
      "start": 25.3205,
      "duration": 0.0164,
      "velocity": 124,
      "chip": "ym2612"
    },
    {
      "channel": 5,
      "note": 71,
      "start": 25.3217,
      "duration": 0.0163,
      "velocity": 108,
      "chip": "ym2612"
    },
    {
      "channel": 4,
      "note": 81,
      "start": 25.3228,
      "duration": 0.0163,
      "velocity": 98,
      "chip": "ym2612"
    },
    {
      "channel": 3,
      "note": 83,
      "start": 25.3239,
      "duration": 0.0163,
      "velocity": 98,
      "chip": "ym2612"
    },
    {
      "channel": 2,
      "note": 59,
      "start": 25.3251,
      "duration": 0.0163,
      "velocity": 93,
      "chip": "ym2612"
    },
    {
      "channel": 1,
      "note": 71,
      "start": 25.3262,
      "duration": 0.0164,
      "velocity": 108,
      "chip": "ym2612"
    },
    {
      "channel": 0,
      "note": 65,
      "start": 25.3369,
      "duration": 0.0163,
      "velocity": 124,
      "chip": "ym2612"
    },
    {
      "channel": 5,
      "note": 71,
      "start": 25.338,
      "duration": 0.0163,
      "velocity": 108,
      "chip": "ym2612"
    },
    {
      "channel": 4,
      "note": 81,
      "start": 25.3392,
      "duration": 0.0164,
      "velocity": 98,
      "chip": "ym2612"
    },
    {
      "channel": 3,
      "note": 83,
      "start": 25.3403,
      "duration": 0.0165,
      "velocity": 98,
      "chip": "ym2612"
    },
    {
      "channel": 2,
      "note": 59,
      "start": 25.3415,
      "duration": 0.0166,
      "velocity": 93,
      "chip": "ym2612"
    },
    {
      "channel": 1,
      "note": 71,
      "start": 25.3427,
      "duration": 0.0166,
      "velocity": 108,
      "chip": "ym2612"
    },
    {
      "channel": 0,
      "note": 63,
      "start": 25.3532,
      "duration": 0.0153,
      "velocity": 1,
      "chip": "ym2612"
    },
    {
      "channel": 5,
      "note": 71,
      "start": 25.3544,
      "duration": 0.0153,
      "velocity": 108,
      "chip": "ym2612"
    },
    {
      "channel": 4,
      "note": 81,
      "start": 25.3556,
      "duration": 0.0153,
      "velocity": 98,
      "chip": "ym2612"
    },
    {
      "channel": 3,
      "note": 83,
      "start": 25.3568,
      "duration": 0.0153,
      "velocity": 98,
      "chip": "ym2612"
    },
    {
      "channel": 2,
      "note": 59,
      "start": 25.358,
      "duration": 0.0152,
      "velocity": 93,
      "chip": "ym2612"
    },
    {
      "channel": 1,
      "note": 71,
      "start": 25.3593,
      "duration": 0.0152,
      "velocity": 108,
      "chip": "ym2612"
    },
    {
      "channel": 5,
      "note": 71,
      "start": 25.3696,
      "duration": 0.0153,
      "velocity": 108,
      "chip": "ym2612"
    },
    {
      "channel": 4,
      "note": 81,
      "start": 25.3708,
      "duration": 0.0153,
      "velocity": 98,
      "chip": "ym2612"
    },
    {
      "channel": 3,
      "note": 83,
      "start": 25.372,
      "duration": 0.0154,
      "velocity": 98,
      "chip": "ym2612"
    },
    {
      "channel": 2,
      "note": 59,
      "start": 25.3732,
      "duration": 0.0154,
      "velocity": 93,
      "chip": "ym2612"
    },
    {
      "channel": 1,
      "note": 71,
      "start": 25.3745,
      "duration": 0.0154,
      "velocity": 108,
      "chip": "ym2612"
    },
    {
      "channel": 5,
      "note": 71,
      "start": 25.3849,
      "duration": 0.0156,
      "velocity": 108,
      "chip": "ym2612"
    },
    {
      "channel": 4,
      "note": 81,
      "start": 25.3862,
      "duration": 0.016,
      "velocity": 98,
      "chip": "ym2612"
    },
    {
      "channel": 3,
      "note": 83,
      "start": 25.3874,
      "duration": 0.016,
      "velocity": 98,
      "chip": "ym2612"
    },
    {
      "channel": 2,
      "note": 59,
      "start": 25.3886,
      "duration": 0.0159,
      "velocity": 93,
      "chip": "ym2612"
    },
    {
      "channel": 1,
      "note": 71,
      "start": 25.3899,
      "duration": 0.0158,
      "velocity": 108,
      "chip": "ym2612"
    },
    {
      "channel": 5,
      "note": 71,
      "start": 25.4005,
      "duration": 0.016,
      "velocity": 108,
      "chip": "ym2612"
    },
    {
      "channel": 4,
      "note": 81,
      "start": 25.4022,
      "duration": 0.016,
      "velocity": 98,
      "chip": "ym2612"
    },
    {
      "channel": 3,
      "note": 83,
      "start": 25.4034,
      "duration": 0.016,
      "velocity": 98,
      "chip": "ym2612"
    },
    {
      "channel": 2,
      "note": 59,
      "start": 25.4046,
      "duration": 0.016,
      "velocity": 93,
      "chip": "ym2612"
    },
    {
      "channel": 1,
      "note": 71,
      "start": 25.4057,
      "duration": 0.016,
      "velocity": 108,
      "chip": "ym2612"
    },
    {
      "channel": 5,
      "note": 71,
      "start": 25.4165,
      "duration": 0.0161,
      "velocity": 108,
      "chip": "ym2612"
    },
    {
      "channel": 4,
      "note": 81,
      "start": 25.4182,
      "duration": 0.0155,
      "velocity": 98,
      "chip": "ym2612"
    },
    {
      "channel": 3,
      "note": 83,
      "start": 25.4194,
      "duration": 0.0161,
      "velocity": 98,
      "chip": "ym2612"
    },
    {
      "channel": 2,
      "note": 59,
      "start": 25.4206,
      "duration": 0.0161,
      "velocity": 93,
      "chip": "ym2612"
    },
    {
      "channel": 1,
      "note": 71,
      "start": 25.4217,
      "duration": 0.0161,
      "velocity": 108,
      "chip": "ym2612"
    },
    {
      "channel": 5,
      "note": 71,
      "start": 25.4326,
      "duration": 0.0161,
      "velocity": 108,
      "chip": "ym2612"
    },
    {
      "channel": 4,
      "note": 81,
      "start": 25.4337,
      "duration": 0.0161,
      "velocity": 98,
      "chip": "ym2612"
    },
    {
      "channel": 3,
      "note": 83,
      "start": 25.4355,
      "duration": 0.016,
      "velocity": 98,
      "chip": "ym2612"
    },
    {
      "channel": 2,
      "note": 59,
      "start": 25.4367,
      "duration": 0.0161,
      "velocity": 93,
      "chip": "ym2612"
    },
    {
      "channel": 1,
      "note": 71,
      "start": 25.4378,
      "duration": 0.0161,
      "velocity": 108,
      "chip": "ym2612"
    },
    {
      "channel": 5,
      "note": 71,
      "start": 25.4487,
      "duration": 0.0161,
      "velocity": 108,
      "chip": "ym2612"
    },
    {
      "channel": 4,
      "note": 81,
      "start": 25.4498,
      "duration": 0.0162,
      "velocity": 98,
      "chip": "ym2612"
    },
    {
      "channel": 3,
      "note": 83,
      "start": 25.4516,
      "duration": 0.0156,
      "velocity": 98,
      "chip": "ym2612"
    },
    {
      "channel": 2,
      "note": 59,
      "start": 25.4528,
      "duration": 0.0163,
      "velocity": 93,
      "chip": "ym2612"
    },
    {
      "channel": 1,
      "note": 71,
      "start": 25.4539,
      "duration": 0.0163,
      "velocity": 108,
      "chip": "ym2612"
    },
    {
      "channel": 5,
      "note": 71,
      "start": 25.4648,
      "duration": 0.0162,
      "velocity": 108,
      "chip": "ym2612"
    },
    {
      "channel": 4,
      "note": 81,
      "start": 25.466,
      "duration": 0.0162,
      "velocity": 98,
      "chip": "ym2612"
    },
    {
      "channel": 3,
      "note": 83,
      "start": 25.4672,
      "duration": 0.0162,
      "velocity": 98,
      "chip": "ym2612"
    },
    {
      "channel": 2,
      "note": 59,
      "start": 25.469,
      "duration": 0.0162,
      "velocity": 93,
      "chip": "ym2612"
    },
    {
      "channel": 1,
      "note": 71,
      "start": 25.4703,
      "duration": 0.0163,
      "velocity": 108,
      "chip": "ym2612"
    },
    {
      "channel": 5,
      "note": 71,
      "start": 25.481,
      "duration": 0.0198,
      "velocity": 108,
      "chip": "ym2612"
    },
    {
      "channel": 2,
      "note": 59,
      "start": 25.4852,
      "duration": 0.0204,
      "velocity": 93,
      "chip": "ym2612"
    },
    {
      "channel": 0,
      "note": 36,
      "start": 25.4993,
      "duration": 0.0143,
      "velocity": 115,
      "chip": "ym2612"
    },
    {
      "channel": 5,
      "note": 71,
      "start": 25.5008,
      "duration": 0.0141,
      "velocity": 108,
      "chip": "ym2612"
    },
    {
      "channel": 4,
      "note": 80,
      "start": 25.5027,
      "duration": 0.0135,
      "velocity": 98,
      "chip": "ym2612"
    },
    {
      "channel": 3,
      "note": 83,
      "start": 25.5042,
      "duration": 0.0134,
      "velocity": 98,
      "chip": "ym2612"
    },
    {
      "channel": 2,
      "note": 52,
      "start": 25.5057,
      "duration": 0.0135,
      "velocity": 93,
      "chip": "ym2612"
    },
    {
      "channel": 1,
      "note": 76,
      "start": 25.5072,
      "duration": 0.0133,
      "velocity": 108,
      "chip": "ym2612"
    },
    {
      "channel": 0,
      "note": 36,
      "start": 25.5137,
      "duration": 0.0161,
      "velocity": 115,
      "chip": "ym2612"
    },
    {
      "channel": 4,
      "note": 80,
      "start": 25.5162,
      "duration": 0.0162,
      "velocity": 98,
      "chip": "ym2612"
    },
    {
      "channel": 3,
      "note": 83,
      "start": 25.5176,
      "duration": 0.0159,
      "velocity": 98,
      "chip": "ym2612"
    },
    {
      "channel": 2,
      "note": 52,
      "start": 25.5192,
      "duration": 0.016,
      "velocity": 93,
      "chip": "ym2612"
    },
    {
      "channel": 1,
      "note": 76,
      "start": 25.5205,
      "duration": 0.016,
      "velocity": 108,
      "chip": "ym2612"
    },
    {
      "channel": 0,
      "note": 37,
      "start": 25.5298,
      "duration": 0.0161,
      "velocity": 115,
      "chip": "ym2612"
    },
    {
      "channel": 5,
      "note": 76,
      "start": 25.5312,
      "duration": 0.0159,
      "velocity": 108,
      "chip": "ym2612"
    },
    {
      "channel": 4,
      "note": 80,
      "start": 25.5324,
      "duration": 0.0158,
      "velocity": 98,
      "chip": "ym2612"
    },
    {
      "channel": 3,
      "note": 83,
      "start": 25.5335,
      "duration": 0.0159,
      "velocity": 98,
      "chip": "ym2612"
    },
    {
      "channel": 2,
      "note": 52,
      "start": 25.5351,
      "duration": 0.0154,
      "velocity": 93,
      "chip": "ym2612"
    },
    {
      "channel": 1,
      "note": 76,
      "start": 25.5364,
      "duration": 0.0159,
      "velocity": 108,
      "chip": "ym2612"
    },
    {
      "channel": 0,
      "note": 37,
      "start": 25.5458,
      "duration": 0.0161,
      "velocity": 115,
      "chip": "ym2612"
    },
    {
      "channel": 5,
      "note": 76,
      "start": 25.5471,
      "duration": 0.016,
      "velocity": 108,
      "chip": "ym2612"
    },
    {
      "channel": 4,
      "note": 80,
      "start": 25.5482,
      "duration": 0.016,
      "velocity": 98,
      "chip": "ym2612"
    },
    {
      "channel": 3,
      "note": 83,
      "start": 25.5493,
      "duration": 0.016,
      "velocity": 98,
      "chip": "ym2612"
    },
    {
      "channel": 2,
      "note": 52,
      "start": 25.5505,
      "duration": 0.016,
      "velocity": 93,
      "chip": "ym2612"
    },
    {
      "channel": 1,
      "note": 76,
      "start": 25.5523,
      "duration": 0.0159,
      "velocity": 108,
      "chip": "ym2612"
    },
    {
      "channel": 0,
      "note": 38,
      "start": 25.5619,
      "duration": 0.0161,
      "velocity": 115,
      "chip": "ym2612"
    },
    {
      "channel": 5,
      "note": 76,
      "start": 25.5631,
      "duration": 0.0161,
      "velocity": 108,
      "chip": "ym2612"
    },
    {
      "channel": 4,
      "note": 80,
      "start": 25.5642,
      "duration": 0.0161,
      "velocity": 98,
      "chip": "ym2612"
    },
    {
      "channel": 3,
      "note": 83,
      "start": 25.5654,
      "duration": 0.0161,
      "velocity": 98,
      "chip": "ym2612"
    },
    {
      "channel": 2,
      "note": 52,
      "start": 25.5666,
      "duration": 0.0161,
      "velocity": 93,
      "chip": "ym2612"
    },
    {
      "channel": 1,
      "note": 76,
      "start": 25.5682,
      "duration": 0.0156,
      "velocity": 108,
      "chip": "ym2612"
    },
    {
      "channel": 0,
      "note": 38,
      "start": 25.578,
      "duration": 0.0161,
      "velocity": 115,
      "chip": "ym2612"
    },
    {
      "channel": 5,
      "note": 76,
      "start": 25.5792,
      "duration": 0.0161,
      "velocity": 108,
      "chip": "ym2612"
    },
    {
      "channel": 4,
      "note": 80,
      "start": 25.5803,
      "duration": 0.0161,
      "velocity": 98,
      "chip": "ym2612"
    },
    {
      "channel": 3,
      "note": 83,
      "start": 25.5815,
      "duration": 0.0161,
      "velocity": 98,
      "chip": "ym2612"
    },
    {
      "channel": 2,
      "note": 52,
      "start": 25.5827,
      "duration": 0.0161,
      "velocity": 93,
      "chip": "ym2612"
    },
    {
      "channel": 1,
      "note": 76,
      "start": 25.5838,
      "duration": 0.0161,
      "velocity": 108,
      "chip": "ym2612"
    },
    {
      "channel": 0,
      "note": 39,
      "start": 25.5941,
      "duration": 0.0161,
      "velocity": 115,
      "chip": "ym2612"
    },
    {
      "channel": 5,
      "note": 76,
      "start": 25.5953,
      "duration": 0.0162,
      "velocity": 108,
      "chip": "ym2612"
    },
    {
      "channel": 4,
      "note": 80,
      "start": 25.5964,
      "duration": 0.0161,
      "velocity": 98,
      "chip": "ym2612"
    },
    {
      "channel": 3,
      "note": 83,
      "start": 25.5976,
      "duration": 0.0161,
      "velocity": 98,
      "chip": "ym2612"
    },
    {
      "channel": 2,
      "note": 52,
      "start": 25.5988,
      "duration": 0.0161,
      "velocity": 93,
      "chip": "ym2612"
    },
    {
      "channel": 1,
      "note": 76,
      "start": 25.5999,
      "duration": 0.0161,
      "velocity": 108,
      "chip": "ym2612"
    },
    {
      "channel": 0,
      "note": 39,
      "start": 25.6102,
      "duration": 0.0161,
      "velocity": 115,
      "chip": "ym2612"
    },
    {
      "channel": 5,
      "note": 76,
      "start": 25.6114,
      "duration": 0.0161,
      "velocity": 108,
      "chip": "ym2612"
    },
    {
      "channel": 4,
      "note": 80,
      "start": 25.6126,
      "duration": 0.0161,
      "velocity": 98,
      "chip": "ym2612"
    },
    {
      "channel": 3,
      "note": 83,
      "start": 25.6137,
      "duration": 0.0161,
      "velocity": 98,
      "chip": "ym2612"
    },
    {
      "channel": 2,
      "note": 52,
      "start": 25.6149,
      "duration": 0.0161,
      "velocity": 93,
      "chip": "ym2612"
    },
    {
      "channel": 1,
      "note": 76,
      "start": 25.616,
      "duration": 0.0161,
      "velocity": 108,
      "chip": "ym2612"
    },
    {
      "channel": 0,
      "note": 40,
      "start": 25.6263,
      "duration": 0.0161,
      "velocity": 115,
      "chip": "ym2612"
    },
    {
      "channel": 5,
      "note": 76,
      "start": 25.6275,
      "duration": 0.0161,
      "velocity": 108,
      "chip": "ym2612"
    },
    {
      "channel": 4,
      "note": 80,
      "start": 25.6287,
      "duration": 0.0161,
      "velocity": 98,
      "chip": "ym2612"
    },
    {
      "channel": 3,
      "note": 83,
      "start": 25.6298,
      "duration": 0.0163,
      "velocity": 98,
      "chip": "ym2612"
    },
    {
      "channel": 2,
      "note": 52,
      "start": 25.631,
      "duration": 0.0163,
      "velocity": 93,
      "chip": "ym2612"
    },
    {
      "channel": 1,
      "note": 76,
      "start": 25.6321,
      "duration": 0.0164,
      "velocity": 108,
      "chip": "ym2612"
    },
    {
      "channel": 0,
      "note": 40,
      "start": 25.6424,
      "duration": 0.0161,
      "velocity": 115,
      "chip": "ym2612"
    },
    {
      "channel": 5,
      "note": 76,
      "start": 25.6436,
      "duration": 0.0161,
      "velocity": 108,
      "chip": "ym2612"
    },
    {
      "channel": 4,
      "note": 80,
      "start": 25.6448,
      "duration": 0.0161,
      "velocity": 98,
      "chip": "ym2612"
    },
    {
      "channel": 3,
      "note": 83,
      "start": 25.6461,
      "duration": 0.016,
      "velocity": 98,
      "chip": "ym2612"
    },
    {
      "channel": 2,
      "note": 52,
      "start": 25.6473,
      "duration": 0.016,
      "velocity": 93,
      "chip": "ym2612"
    },
    {
      "channel": 1,
      "note": 76,
      "start": 25.6485,
      "duration": 0.016,
      "velocity": 108,
      "chip": "ym2612"
    },
    {
      "channel": 0,
      "note": 40,
      "start": 25.6585,
      "duration": 0.0161,
      "velocity": 115,
      "chip": "ym2612"
    },
    {
      "channel": 5,
      "note": 76,
      "start": 25.6597,
      "duration": 0.0161,
      "velocity": 108,
      "chip": "ym2612"
    },
    {
      "channel": 4,
      "note": 80,
      "start": 25.6609,
      "duration": 0.0162,
      "velocity": 98,
      "chip": "ym2612"
    },
    {
      "channel": 3,
      "note": 83,
      "start": 25.6621,
      "duration": 0.0161,
      "velocity": 98,
      "chip": "ym2612"
    },
    {
      "channel": 2,
      "note": 52,
      "start": 25.6633,
      "duration": 0.0162,
      "velocity": 93,
      "chip": "ym2612"
    },
    {
      "channel": 1,
      "note": 76,
      "start": 25.6645,
      "duration": 0.0162,
      "velocity": 108,
      "chip": "ym2612"
    },
    {
      "channel": 0,
      "note": 41,
      "start": 25.6746,
      "duration": 0.0161,
      "velocity": 115,
      "chip": "ym2612"
    },
    {
      "channel": 5,
      "note": 76,
      "start": 25.6759,
      "duration": 0.0161,
      "velocity": 108,
      "chip": "ym2612"
    },
    {
      "channel": 4,
      "note": 80,
      "start": 25.6771,
      "duration": 0.016,
      "velocity": 98,
      "chip": "ym2612"
    },
    {
      "channel": 3,
      "note": 83,
      "start": 25.6783,
      "duration": 0.016,
      "velocity": 98,
      "chip": "ym2612"
    },
    {
      "channel": 2,
      "note": 52,
      "start": 25.6795,
      "duration": 0.0159,
      "velocity": 93,
      "chip": "ym2612"
    },
    {
      "channel": 1,
      "note": 76,
      "start": 25.6808,
      "duration": 0.0158,
      "velocity": 108,
      "chip": "ym2612"
    },
    {
      "channel": 0,
      "note": 41,
      "start": 25.6907,
      "duration": 0.0161,
      "velocity": 115,
      "chip": "ym2612"
    },
    {
      "channel": 5,
      "note": 76,
      "start": 25.692,
      "duration": 0.016,
      "velocity": 108,
      "chip": "ym2612"
    },
    {
      "channel": 4,
      "note": 80,
      "start": 25.6931,
      "duration": 0.016,
      "velocity": 98,
      "chip": "ym2612"
    },
    {
      "channel": 3,
      "note": 83,
      "start": 25.6942,
      "duration": 0.016,
      "velocity": 98,
      "chip": "ym2612"
    },
    {
      "channel": 2,
      "note": 52,
      "start": 25.6955,
      "duration": 0.016,
      "velocity": 93,
      "chip": "ym2612"
    },
    {
      "channel": 1,
      "note": 76,
      "start": 25.6966,
      "duration": 0.016,
      "velocity": 108,
      "chip": "ym2612"
    },
    {
      "channel": 0,
      "note": 42,
      "start": 25.7068,
      "duration": 0.0161,
      "velocity": 115,
      "chip": "ym2612"
    },
    {
      "channel": 5,
      "note": 76,
      "start": 25.708,
      "duration": 0.0161,
      "velocity": 108,
      "chip": "ym2612"
    },
    {
      "channel": 4,
      "note": 80,
      "start": 25.7091,
      "duration": 0.0161,
      "velocity": 98,
      "chip": "ym2612"
    },
    {
      "channel": 3,
      "note": 83,
      "start": 25.7103,
      "duration": 0.0161,
      "velocity": 98,
      "chip": "ym2612"
    },
    {
      "channel": 2,
      "note": 52,
      "start": 25.7115,
      "duration": 0.0161,
      "velocity": 93,
      "chip": "ym2612"
    },
    {
      "channel": 1,
      "note": 76,
      "start": 25.7126,
      "duration": 0.0161,
      "velocity": 108,
      "chip": "ym2612"
    },
    {
      "channel": 0,
      "note": 42,
      "start": 25.7229,
      "duration": 0.0161,
      "velocity": 115,
      "chip": "ym2612"
    },
    {
      "channel": 5,
      "note": 76,
      "start": 25.7241,
      "duration": 0.0161,
      "velocity": 108,
      "chip": "ym2612"
    },
    {
      "channel": 4,
      "note": 80,
      "start": 25.7252,
      "duration": 0.0161,
      "velocity": 98,
      "chip": "ym2612"
    },
    {
      "channel": 3,
      "note": 83,
      "start": 25.7264,
      "duration": 0.0161,
      "velocity": 98,
      "chip": "ym2612"
    },
    {
      "channel": 2,
      "note": 52,
      "start": 25.7276,
      "duration": 0.0161,
      "velocity": 93,
      "chip": "ym2612"
    },
    {
      "channel": 1,
      "note": 76,
      "start": 25.7287,
      "duration": 0.0161,
      "velocity": 108,
      "chip": "ym2612"
    },
    {
      "channel": 0,
      "note": 43,
      "start": 25.739,
      "duration": 0.0161,
      "velocity": 115,
      "chip": "ym2612"
    },
    {
      "channel": 5,
      "note": 76,
      "start": 25.7402,
      "duration": 0.0161,
      "velocity": 108,
      "chip": "ym2612"
    },
    {
      "channel": 4,
      "note": 80,
      "start": 25.7413,
      "duration": 0.0162,
      "velocity": 98,
      "chip": "ym2612"
    },
    {
      "channel": 3,
      "note": 83,
      "start": 25.7425,
      "duration": 0.0162,
      "velocity": 98,
      "chip": "ym2612"
    },
    {
      "channel": 2,
      "note": 52,
      "start": 25.7437,
      "duration": 0.0163,
      "velocity": 93,
      "chip": "ym2612"
    },
    {
      "channel": 1,
      "note": 76,
      "start": 25.7448,
      "duration": 0.0163,
      "velocity": 108,
      "chip": "ym2612"
    },
    {
      "channel": 0,
      "note": 43,
      "start": 25.7551,
      "duration": 0.0161,
      "velocity": 115,
      "chip": "ym2612"
    },
    {
      "channel": 5,
      "note": 76,
      "start": 25.7563,
      "duration": 0.0162,
      "velocity": 108,
      "chip": "ym2612"
    },
    {
      "channel": 4,
      "note": 80,
      "start": 25.7576,
      "duration": 0.0161,
      "velocity": 98,
      "chip": "ym2612"
    },
    {
      "channel": 3,
      "note": 83,
      "start": 25.7588,
      "duration": 0.0162,
      "velocity": 98,
      "chip": "ym2612"
    },
    {
      "channel": 2,
      "note": 52,
      "start": 25.76,
      "duration": 0.0163,
      "velocity": 93,
      "chip": "ym2612"
    },
    {
      "channel": 1,
      "note": 76,
      "start": 25.7612,
      "duration": 0.0163,
      "velocity": 108,
      "chip": "ym2612"
    },
    {
      "channel": 0,
      "note": 44,
      "start": 25.7712,
      "duration": 0.018,
      "velocity": 115,
      "chip": "ym2612"
    },
    {
      "channel": 5,
      "note": 76,
      "start": 25.7725,
      "duration": 0.018,
      "velocity": 108,
      "chip": "ym2612"
    },
    {
      "channel": 2,
      "note": 52,
      "start": 25.7762,
      "duration": 0.0186,
      "velocity": 93,
      "chip": "ym2612"
    },
    {
      "channel": 0,
      "note": 36,
      "start": 25.7892,
      "duration": 0.0143,
      "velocity": 115,
      "chip": "ym2612"
    },
    {
      "channel": 5,
      "note": 76,
      "start": 25.7905,
      "duration": 0.0143,
      "velocity": 108,
      "chip": "ym2612"
    },
    {
      "channel": 4,
      "note": 80,
      "start": 25.792,
      "duration": 0.0141,
      "velocity": 98,
      "chip": "ym2612"
    },
    {
      "channel": 3,
      "note": 83,
      "start": 25.7934,
      "duration": 0.0139,
      "velocity": 98,
      "chip": "ym2612"
    },
    {
      "channel": 2,
      "note": 52,
      "start": 25.7949,
      "duration": 0.0136,
      "velocity": 93,
      "chip": "ym2612"
    },
    {
      "channel": 1,
      "note": 76,
      "start": 25.7963,
      "duration": 0.0134,
      "velocity": 108,
      "chip": "ym2612"
    },
    {
      "channel": 0,
      "note": 36,
      "start": 25.8035,
      "duration": 0.0164,
      "velocity": 115,
      "chip": "ym2612"
    },
    {
      "channel": 4,
      "note": 80,
      "start": 25.8061,
      "duration": 0.0165,
      "velocity": 98,
      "chip": "ym2612"
    },
    {
      "channel": 3,
      "note": 83,
      "start": 25.8073,
      "duration": 0.0164,
      "velocity": 98,
      "chip": "ym2612"
    },
    {
      "channel": 2,
      "note": 52,
      "start": 25.8085,
      "duration": 0.0163,
      "velocity": 93,
      "chip": "ym2612"
    },
    {
      "channel": 1,
      "note": 76,
      "start": 25.8097,
      "duration": 0.0163,
      "velocity": 108,
      "chip": "ym2612"
    },
    {
      "channel": 0,
      "note": 37,
      "start": 25.82,
      "duration": 0.0163,
      "velocity": 115,
      "chip": "ym2612"
    },
    {
      "channel": 5,
      "note": 76,
      "start": 25.8214,
      "duration": 0.016,
      "velocity": 108,
      "chip": "ym2612"
    },
    {
      "channel": 4,
      "note": 80,
      "start": 25.8226,
      "duration": 0.016,
      "velocity": 98,
      "chip": "ym2612"
    },
    {
      "channel": 3,
      "note": 83,
      "start": 25.8237,
      "duration": 0.0161,
      "velocity": 98,
      "chip": "ym2612"
    },
    {
      "channel": 2,
      "note": 52,
      "start": 25.8249,
      "duration": 0.0161,
      "velocity": 93,
      "chip": "ym2612"
    },
    {
      "channel": 1,
      "note": 76,
      "start": 25.826,
      "duration": 0.0161,
      "velocity": 108,
      "chip": "ym2612"
    },
    {
      "channel": 0,
      "note": 37,
      "start": 25.8362,
      "duration": 0.0161,
      "velocity": 115,
      "chip": "ym2612"
    },
    {
      "channel": 5,
      "note": 76,
      "start": 25.8374,
      "duration": 0.0161,
      "velocity": 108,
      "chip": "ym2612"
    },
    {
      "channel": 4,
      "note": 80,
      "start": 25.8386,
      "duration": 0.0161,
      "velocity": 98,
      "chip": "ym2612"
    },
    {
      "channel": 3,
      "note": 83,
      "start": 25.8398,
      "duration": 0.016,
      "velocity": 98,
      "chip": "ym2612"
    },
    {
      "channel": 2,
      "note": 52,
      "start": 25.8409,
      "duration": 0.016,
      "velocity": 93,
      "chip": "ym2612"
    },
    {
      "channel": 1,
      "note": 76,
      "start": 25.8421,
      "duration": 0.016,
      "velocity": 108,
      "chip": "ym2612"
    },
    {
      "channel": 0,
      "note": 38,
      "start": 25.8523,
      "duration": 0.016,
      "velocity": 115,
      "chip": "ym2612"
    },
    {
      "channel": 5,
      "note": 76,
      "start": 25.8535,
      "duration": 0.0161,
      "velocity": 108,
      "chip": "ym2612"
    },
    {
      "channel": 4,
      "note": 80,
      "start": 25.8547,
      "duration": 0.0161,
      "velocity": 98,
      "chip": "ym2612"
    },
    {
      "channel": 3,
      "note": 83,
      "start": 25.8558,
      "duration": 0.0161,
      "velocity": 98,
      "chip": "ym2612"
    },
    {
      "channel": 2,
      "note": 52,
      "start": 25.857,
      "duration": 0.0161,
      "velocity": 93,
      "chip": "ym2612"
    },
    {
      "channel": 1,
      "note": 76,
      "start": 25.8581,
      "duration": 0.0161,
      "velocity": 108,
      "chip": "ym2612"
    },
    {
      "channel": 0,
      "note": 38,
      "start": 25.8683,
      "duration": 0.0158,
      "velocity": 115,
      "chip": "ym2612"
    },
    {
      "channel": 5,
      "note": 76,
      "start": 25.8696,
      "duration": 0.0161,
      "velocity": 108,
      "chip": "ym2612"
    },
    {
      "channel": 4,
      "note": 80,
      "start": 25.8708,
      "duration": 0.0161,
      "velocity": 98,
      "chip": "ym2612"
    },
    {
      "channel": 3,
      "note": 83,
      "start": 25.8719,
      "duration": 0.0161,
      "velocity": 98,
      "chip": "ym2612"
    },
    {
      "channel": 2,
      "note": 52,
      "start": 25.8731,
      "duration": 0.0161,
      "velocity": 93,
      "chip": "ym2612"
    },
    {
      "channel": 1,
      "note": 76,
      "start": 25.8742,
      "duration": 0.0161,
      "velocity": 108,
      "chip": "ym2612"
    },
    {
      "channel": 0,
      "note": 39,
      "start": 25.8841,
      "duration": 0.0159,
      "velocity": 115,
      "chip": "ym2612"
    },
    {
      "channel": 5,
      "note": 76,
      "start": 25.8857,
      "duration": 0.016,
      "velocity": 108,
      "chip": "ym2612"
    },
    {
      "channel": 4,
      "note": 80,
      "start": 25.8869,
      "duration": 0.0161,
      "velocity": 98,
      "chip": "ym2612"
    },
    {
      "channel": 3,
      "note": 83,
      "start": 25.888,
      "duration": 0.0161,
      "velocity": 98,
      "chip": "ym2612"
    },
    {
      "channel": 2,
      "note": 52,
      "start": 25.8892,
      "duration": 0.0161,
      "velocity": 93,
      "chip": "ym2612"
    },
    {
      "channel": 1,
      "note": 76,
      "start": 25.8903,
      "duration": 0.0162,
      "velocity": 108,
      "chip": "ym2612"
    },
    {
      "channel": 0,
      "note": 39,
      "start": 25.9,
      "duration": 0.0161,
      "velocity": 115,
      "chip": "ym2612"
    },
    {
      "channel": 5,
      "note": 76,
      "start": 25.9017,
      "duration": 0.0158,
      "velocity": 108,
      "chip": "ym2612"
    },
    {
      "channel": 4,
      "note": 80,
      "start": 25.903,
      "duration": 0.0161,
      "velocity": 98,
      "chip": "ym2612"
    },
    {
      "channel": 3,
      "note": 83,
      "start": 25.9041,
      "duration": 0.0161,
      "velocity": 98,
      "chip": "ym2612"
    },
    {
      "channel": 2,
      "note": 52,
      "start": 25.9053,
      "duration": 0.016,
      "velocity": 93,
      "chip": "ym2612"
    },
    {
      "channel": 1,
      "note": 76,
      "start": 25.9065,
      "duration": 0.0161,
      "velocity": 108,
      "chip": "ym2612"
    },
    {
      "channel": 0,
      "note": 40,
      "start": 25.9161,
      "duration": 0.0161,
      "velocity": 115,
      "chip": "ym2612"
    },
    {
      "channel": 5,
      "note": 76,
      "start": 25.9175,
      "duration": 0.0159,
      "velocity": 108,
      "chip": "ym2612"
    },
    {
      "channel": 4,
      "note": 80,
      "start": 25.919,
      "duration": 0.0162,
      "velocity": 98,
      "chip": "ym2612"
    },
    {
      "channel": 3,
      "note": 83,
      "start": 25.9202,
      "duration": 0.0163,
      "velocity": 98,
      "chip": "ym2612"
    },
    {
      "channel": 2,
      "note": 52,
      "start": 25.9213,
      "duration": 0.0163,
      "velocity": 93,
      "chip": "ym2612"
    },
    {
      "channel": 1,
      "note": 76,
      "start": 25.9226,
      "duration": 0.0164,
      "velocity": 108,
      "chip": "ym2612"
    },
    {
      "channel": 0,
      "note": 40,
      "start": 25.9322,
      "duration": 0.0161,
      "velocity": 115,
      "chip": "ym2612"
    },
    {
      "channel": 5,
      "note": 76,
      "start": 25.9334,
      "duration": 0.0161,
      "velocity": 108,
      "chip": "ym2612"
    },
    {
      "channel": 4,
      "note": 80,
      "start": 25.9352,
      "duration": 0.0157,
      "velocity": 98,
      "chip": "ym2612"
    },
    {
      "channel": 3,
      "note": 83,
      "start": 25.9365,
      "duration": 0.016,
      "velocity": 98,
      "chip": "ym2612"
    },
    {
      "channel": 2,
      "note": 52,
      "start": 25.9377,
      "duration": 0.016,
      "velocity": 93,
      "chip": "ym2612"
    },
    {
      "channel": 1,
      "note": 76,
      "start": 25.939,
      "duration": 0.016,
      "velocity": 108,
      "chip": "ym2612"
    },
    {
      "channel": 0,
      "note": 40,
      "start": 25.9483,
      "duration": 0.0161,
      "velocity": 115,
      "chip": "ym2612"
    },
    {
      "channel": 5,
      "note": 76,
      "start": 25.9495,
      "duration": 0.0162,
      "velocity": 108,
      "chip": "ym2612"
    },
    {
      "channel": 4,
      "note": 80,
      "start": 25.9509,
      "duration": 0.016,
      "velocity": 98,
      "chip": "ym2612"
    },
    {
      "channel": 3,
      "note": 83,
      "start": 25.9525,
      "duration": 0.0161,
      "velocity": 98,
      "chip": "ym2612"
    },
    {
      "channel": 2,
      "note": 52,
      "start": 25.9537,
      "duration": 0.0162,
      "velocity": 93,
      "chip": "ym2612"
    },
    {
      "channel": 1,
      "note": 76,
      "start": 25.9549,
      "duration": 0.0162,
      "velocity": 108,
      "chip": "ym2612"
    },
    {
      "channel": 0,
      "note": 41,
      "start": 25.9645,
      "duration": 0.0161,
      "velocity": 115,
      "chip": "ym2612"
    },
    {
      "channel": 5,
      "note": 76,
      "start": 25.9657,
      "duration": 0.0161,
      "velocity": 108,
      "chip": "ym2612"
    },
    {
      "channel": 4,
      "note": 80,
      "start": 25.9669,
      "duration": 0.016,
      "velocity": 98,
      "chip": "ym2612"
    },
    {
      "channel": 3,
      "note": 83,
      "start": 25.9687,
      "duration": 0.0157,
      "velocity": 98,
      "chip": "ym2612"
    },
    {
      "channel": 2,
      "note": 52,
      "start": 25.97,
      "duration": 0.0158,
      "velocity": 93,
      "chip": "ym2612"
    },
    {
      "channel": 1,
      "note": 76,
      "start": 25.9712,
      "duration": 0.0158,
      "velocity": 108,
      "chip": "ym2612"
    },
    {
      "channel": 0,
      "note": 41,
      "start": 25.9806,
      "duration": 0.0161,
      "velocity": 115,
      "chip": "ym2612"
    },
    {
      "channel": 5,
      "note": 76,
      "start": 25.9818,
      "duration": 0.016,
      "velocity": 108,
      "chip": "ym2612"
    },
    {
      "channel": 4,
      "note": 80,
      "start": 25.9829,
      "duration": 0.016,
      "velocity": 98,
      "chip": "ym2612"
    },
    {
      "channel": 3,
      "note": 83,
      "start": 25.9843,
      "duration": 0.0158,
      "velocity": 98,
      "chip": "ym2612"
    },
    {
      "channel": 2,
      "note": 52,
      "start": 25.9858,
      "duration": 0.016,
      "velocity": 93,
      "chip": "ym2612"
    },
    {
      "channel": 1,
      "note": 76,
      "start": 25.987,
      "duration": 0.016,
      "velocity": 108,
      "chip": "ym2612"
    },
    {
      "channel": 0,
      "note": 42,
      "start": 25.9967,
      "duration": 0.0161,
      "velocity": 115,
      "chip": "ym2612"
    },
    {
      "channel": 5,
      "note": 76,
      "start": 25.9978,
      "duration": 0.0161,
      "velocity": 108,
      "chip": "ym2612"
    },
    {
      "channel": 4,
      "note": 80,
      "start": 25.999,
      "duration": 0.0161,
      "velocity": 98,
      "chip": "ym2612"
    },
    {
      "channel": 3,
      "note": 83,
      "start": 26.0001,
      "duration": 0.0161,
      "velocity": 98,
      "chip": "ym2612"
    },
    {
      "channel": 2,
      "note": 52,
      "start": 26.0018,
      "duration": 0.0158,
      "velocity": 93,
      "chip": "ym2612"
    },
    {
      "channel": 1,
      "note": 76,
      "start": 26.003,
      "duration": 0.0162,
      "velocity": 108,
      "chip": "ym2612"
    },
    {
      "channel": 0,
      "note": 42,
      "start": 26.0128,
      "duration": 0.0161,
      "velocity": 115,
      "chip": "ym2612"
    },
    {
      "channel": 5,
      "note": 76,
      "start": 26.0139,
      "duration": 0.0161,
      "velocity": 108,
      "chip": "ym2612"
    },
    {
      "channel": 4,
      "note": 80,
      "start": 26.0151,
      "duration": 0.0161,
      "velocity": 98,
      "chip": "ym2612"
    },
    {
      "channel": 3,
      "note": 83,
      "start": 26.0162,
      "duration": 0.0162,
      "velocity": 98,
      "chip": "ym2612"
    },
    {
      "channel": 2,
      "note": 52,
      "start": 26.0176,
      "duration": 0.0159,
      "velocity": 93,
      "chip": "ym2612"
    },
    {
      "channel": 1,
      "note": 76,
      "start": 26.0192,
      "duration": 0.016,
      "velocity": 108,
      "chip": "ym2612"
    },
    {
      "channel": 0,
      "note": 43,
      "start": 26.0288,
      "duration": 0.0161,
      "velocity": 115,
      "chip": "ym2612"
    },
    {
      "channel": 5,
      "note": 76,
      "start": 26.03,
      "duration": 0.0161,
      "velocity": 108,
      "chip": "ym2612"
    },
    {
      "channel": 4,
      "note": 80,
      "start": 26.0311,
      "duration": 0.0162,
      "velocity": 98,
      "chip": "ym2612"
    },
    {
      "channel": 3,
      "note": 83,
      "start": 26.0324,
      "duration": 0.0162,
      "velocity": 98,
      "chip": "ym2612"
    },
    {
      "channel": 2,
      "note": 52,
      "start": 26.0335,
      "duration": 0.0163,
      "velocity": 93,
      "chip": "ym2612"
    },
    {
      "channel": 1,
      "note": 76,
      "start": 26.0351,
      "duration": 0.0163,
      "velocity": 108,
      "chip": "ym2612"
    },
    {
      "channel": 0,
      "note": 43,
      "start": 26.0449,
      "duration": 0.0161,
      "velocity": 115,
      "chip": "ym2612"
    },
    {
      "channel": 5,
      "note": 76,
      "start": 26.0461,
      "duration": 0.0162,
      "velocity": 108,
      "chip": "ym2612"
    },
    {
      "channel": 4,
      "note": 80,
      "start": 26.0473,
      "duration": 0.0162,
      "velocity": 98,
      "chip": "ym2612"
    },
    {
      "channel": 3,
      "note": 83,
      "start": 26.0486,
      "duration": 0.0162,
      "velocity": 98,
      "chip": "ym2612"
    },
    {
      "channel": 2,
      "note": 52,
      "start": 26.0498,
      "duration": 0.0163,
      "velocity": 93,
      "chip": "ym2612"
    },
    {
      "channel": 1,
      "note": 76,
      "start": 26.0515,
      "duration": 0.016,
      "velocity": 108,
      "chip": "ym2612"
    },
    {
      "channel": 0,
      "note": 44,
      "start": 26.061,
      "duration": 0.0179,
      "velocity": 115,
      "chip": "ym2612"
    },
    {
      "channel": 5,
      "note": 76,
      "start": 26.0623,
      "duration": 0.0179,
      "velocity": 108,
      "chip": "ym2612"
    },
    {
      "channel": 2,
      "note": 52,
      "start": 26.0661,
      "duration": 0.0192,
      "velocity": 93,
      "chip": "ym2612"
    },
    {
      "channel": 0,
      "note": 36,
      "start": 26.079,
      "duration": 0.0143,
      "velocity": 115,
      "chip": "ym2612"
    },
    {
      "channel": 5,
      "note": 76,
      "start": 26.0802,
      "duration": 0.0143,
      "velocity": 108,
      "chip": "ym2612"
    },
    {
      "channel": 4,
      "note": 81,
      "start": 26.0818,
      "duration": 0.0141,
      "velocity": 98,
      "chip": "ym2612"
    },
    {
      "channel": 3,
      "note": 85,
      "start": 26.0833,
      "duration": 0.0137,
      "velocity": 98,
      "chip": "ym2612"
    },
    {
      "channel": 2,
      "note": 57,
      "start": 26.0853,
      "duration": 0.013,
      "velocity": 93,
      "chip": "ym2612"
    },
    {
      "channel": 1,
      "note": 76,
      "start": 26.0868,
      "duration": 0.0127,
      "velocity": 108,
      "chip": "ym2612"
    },
    {
      "channel": 0,
      "note": 36,
      "start": 26.0933,
      "duration": 0.0161,
      "velocity": 115,
      "chip": "ym2612"
    },
    {
      "channel": 4,
      "note": 81,
      "start": 26.0958,
      "duration": 0.0162,
      "velocity": 98,
      "chip": "ym2612"
    },
    {
      "channel": 3,
      "note": 85,
      "start": 26.0971,
      "duration": 0.0161,
      "velocity": 98,
      "chip": "ym2612"
    },
    {
      "channel": 2,
      "note": 57,
      "start": 26.0983,
      "duration": 0.016,
      "velocity": 93,
      "chip": "ym2612"
    },
    {
      "channel": 1,
      "note": 76,
      "start": 26.0995,
      "duration": 0.016,
      "velocity": 108,
      "chip": "ym2612"
    },
    {
      "channel": 0,
      "note": 37,
      "start": 26.1094,
      "duration": 0.0161,
      "velocity": 115,
      "chip": "ym2612"
    },
    {
      "channel": 5,
      "note": 76,
      "start": 26.1108,
      "duration": 0.0159,
      "velocity": 108,
      "chip": "ym2612"
    },
    {
      "channel": 4,
      "note": 81,
      "start": 26.112,
      "duration": 0.0158,
      "velocity": 98,
      "chip": "ym2612"
    },
    {
      "channel": 3,
      "note": 85,
      "start": 26.1131,
      "duration": 0.0159,
      "velocity": 98,
      "chip": "ym2612"
    },
    {
      "channel": 2,
      "note": 57,
      "start": 26.1143,
      "duration": 0.0158,
      "velocity": 93,
      "chip": "ym2612"
    },
    {
      "channel": 1,
      "note": 76,
      "start": 26.1154,
      "duration": 0.0159,
      "velocity": 108,
      "chip": "ym2612"
    },
    {
      "channel": 0,
      "note": 37,
      "start": 26.1255,
      "duration": 0.0161,
      "velocity": 115,
      "chip": "ym2612"
    },
    {
      "channel": 5,
      "note": 76,
      "start": 26.1267,
      "duration": 0.016,
      "velocity": 108,
      "chip": "ym2612"
    },
    {
      "channel": 4,
      "note": 81,
      "start": 26.1278,
      "duration": 0.016,
      "velocity": 98,
      "chip": "ym2612"
    },
    {
      "channel": 3,
      "note": 85,
      "start": 26.129,
      "duration": 0.016,
      "velocity": 98,
      "chip": "ym2612"
    },
    {
      "channel": 2,
      "note": 57,
      "start": 26.1301,
      "duration": 0.0161,
      "velocity": 93,
      "chip": "ym2612"
    },
    {
      "channel": 1,
      "note": 76,
      "start": 26.1313,
      "duration": 0.016,
      "velocity": 108,
      "chip": "ym2612"
    },
    {
      "channel": 0,
      "note": 38,
      "start": 26.1416,
      "duration": 0.0161,
      "velocity": 115,
      "chip": "ym2612"
    },
    {
      "channel": 5,
      "note": 76,
      "start": 26.1427,
      "duration": 0.0161,
      "velocity": 108,
      "chip": "ym2612"
    },
    {
      "channel": 4,
      "note": 81,
      "start": 26.1439,
      "duration": 0.0161,
      "velocity": 98,
      "chip": "ym2612"
    },
    {
      "channel": 3,
      "note": 85,
      "start": 26.145,
      "duration": 0.0161,
      "velocity": 98,
      "chip": "ym2612"
    },
    {
      "channel": 2,
      "note": 57,
      "start": 26.1462,
      "duration": 0.0161,
      "velocity": 93,
      "chip": "ym2612"
    },
    {
      "channel": 1,
      "note": 76,
      "start": 26.1474,
      "duration": 0.0161,
      "velocity": 108,
      "chip": "ym2612"
    },
    {
      "channel": 0,
      "note": 38,
      "start": 26.1577,
      "duration": 0.0161,
      "velocity": 115,
      "chip": "ym2612"
    },
    {
      "channel": 5,
      "note": 76,
      "start": 26.1588,
      "duration": 0.0161,
      "velocity": 108,
      "chip": "ym2612"
    },
    {
      "channel": 4,
      "note": 81,
      "start": 26.16,
      "duration": 0.0161,
      "velocity": 98,
      "chip": "ym2612"
    },
    {
      "channel": 3,
      "note": 85,
      "start": 26.1612,
      "duration": 0.016,
      "velocity": 98,
      "chip": "ym2612"
    },
    {
      "channel": 2,
      "note": 57,
      "start": 26.1623,
      "duration": 0.0161,
      "velocity": 93,
      "chip": "ym2612"
    },
    {
      "channel": 1,
      "note": 76,
      "start": 26.1634,
      "duration": 0.0161,
      "velocity": 108,
      "chip": "ym2612"
    },
    {
      "channel": 0,
      "note": 39,
      "start": 26.1738,
      "duration": 0.0161,
      "velocity": 115,
      "chip": "ym2612"
    },
    {
      "channel": 5,
      "note": 76,
      "start": 26.1749,
      "duration": 0.0162,
      "velocity": 108,
      "chip": "ym2612"
    },
    {
      "channel": 4,
      "note": 81,
      "start": 26.1761,
      "duration": 0.0161,
      "velocity": 98,
      "chip": "ym2612"
    },
    {
      "channel": 3,
      "note": 85,
      "start": 26.1772,
      "duration": 0.0162,
      "velocity": 98,
      "chip": "ym2612"
    },
    {
      "channel": 2,
      "note": 57,
      "start": 26.1784,
      "duration": 0.0161,
      "velocity": 93,
      "chip": "ym2612"
    },
    {
      "channel": 1,
      "note": 76,
      "start": 26.1795,
      "duration": 0.0161,
      "velocity": 108,
      "chip": "ym2612"
    },
    {
      "channel": 0,
      "note": 39,
      "start": 26.1899,
      "duration": 0.0161,
      "velocity": 115,
      "chip": "ym2612"
    },
    {
      "channel": 5,
      "note": 76,
      "start": 26.1911,
      "duration": 0.0161,
      "velocity": 108,
      "chip": "ym2612"
    },
    {
      "channel": 4,
      "note": 81,
      "start": 26.1922,
      "duration": 0.0161,
      "velocity": 98,
      "chip": "ym2612"
    },
    {
      "channel": 3,
      "note": 85,
      "start": 26.1934,
      "duration": 0.0161,
      "velocity": 98,
      "chip": "ym2612"
    },
    {
      "channel": 2,
      "note": 57,
      "start": 26.1945,
      "duration": 0.0161,
      "velocity": 93,
      "chip": "ym2612"
    },
    {
      "channel": 1,
      "note": 76,
      "start": 26.1956,
      "duration": 0.0161,
      "velocity": 108,
      "chip": "ym2612"
    },
    {
      "channel": 0,
      "note": 40,
      "start": 26.2059,
      "duration": 0.0161,
      "velocity": 115,
      "chip": "ym2612"
    },
    {
      "channel": 5,
      "note": 76,
      "start": 26.2072,
      "duration": 0.0161,
      "velocity": 108,
      "chip": "ym2612"
    },
    {
      "channel": 4,
      "note": 81,
      "start": 26.2083,
      "duration": 0.0162,
      "velocity": 98,
      "chip": "ym2612"
    },
    {
      "channel": 3,
      "note": 85,
      "start": 26.2095,
      "duration": 0.0162,
      "velocity": 98,
      "chip": "ym2612"
    },
    {
      "channel": 2,
      "note": 57,
      "start": 26.2106,
      "duration": 0.0163,
      "velocity": 93,
      "chip": "ym2612"
    },
    {
      "channel": 1,
      "note": 76,
      "start": 26.2117,
      "duration": 0.0164,
      "velocity": 108,
      "chip": "ym2612"
    },
    {
      "channel": 0,
      "note": 40,
      "start": 26.222,
      "duration": 0.0161,
      "velocity": 115,
      "chip": "ym2612"
    },
    {
      "channel": 5,
      "note": 76,
      "start": 26.2232,
      "duration": 0.0161,
      "velocity": 108,
      "chip": "ym2612"
    },
    {
      "channel": 4,
      "note": 81,
      "start": 26.2245,
      "duration": 0.0161,
      "velocity": 98,
      "chip": "ym2612"
    },
    {
      "channel": 3,
      "note": 85,
      "start": 26.2257,
      "duration": 0.0161,
      "velocity": 98,
      "chip": "ym2612"
    },
    {
      "channel": 2,
      "note": 57,
      "start": 26.2269,
      "duration": 0.016,
      "velocity": 93,
      "chip": "ym2612"
    },
    {
      "channel": 1,
      "note": 76,
      "start": 26.2281,
      "duration": 0.016,
      "velocity": 108,
      "chip": "ym2612"
    },
    {
      "channel": 0,
      "note": 40,
      "start": 26.2381,
      "duration": 0.0161,
      "velocity": 115,
      "chip": "ym2612"
    },
    {
      "channel": 5,
      "note": 76,
      "start": 26.2393,
      "duration": 0.0162,
      "velocity": 108,
      "chip": "ym2612"
    },
    {
      "channel": 4,
      "note": 81,
      "start": 26.2406,
      "duration": 0.0162,
      "velocity": 98,
      "chip": "ym2612"
    },
    {
      "channel": 3,
      "note": 85,
      "start": 26.2418,
      "duration": 0.0162,
      "velocity": 98,
      "chip": "ym2612"
    },
    {
      "channel": 2,
      "note": 57,
      "start": 26.243,
      "duration": 0.0163,
      "velocity": 93,
      "chip": "ym2612"
    },
    {
      "channel": 1,
      "note": 76,
      "start": 26.2442,
      "duration": 0.0163,
      "velocity": 108,
      "chip": "ym2612"
    },
    {
      "channel": 0,
      "note": 41,
      "start": 26.2543,
      "duration": 0.0162,
      "velocity": 115,
      "chip": "ym2612"
    },
    {
      "channel": 5,
      "note": 76,
      "start": 26.2556,
      "duration": 0.0161,
      "velocity": 108,
      "chip": "ym2612"
    },
    {
      "channel": 4,
      "note": 81,
      "start": 26.2568,
      "duration": 0.016,
      "velocity": 98,
      "chip": "ym2612"
    },
    {
      "channel": 3,
      "note": 85,
      "start": 26.258,
      "duration": 0.016,
      "velocity": 98,
      "chip": "ym2612"
    },
    {
      "channel": 2,
      "note": 57,
      "start": 26.2593,
      "duration": 0.0159,
      "velocity": 93,
      "chip": "ym2612"
    },
    {
      "channel": 1,
      "note": 76,
      "start": 26.2605,
      "duration": 0.0158,
      "velocity": 108,
      "chip": "ym2612"
    },
    {
      "channel": 0,
      "note": 41,
      "start": 26.2705,
      "duration": 0.0163,
      "velocity": 115,
      "chip": "ym2612"
    },
    {
      "channel": 5,
      "note": 76,
      "start": 26.2717,
      "duration": 0.0163,
      "velocity": 108,
      "chip": "ym2612"
    },
    {
      "channel": 4,
      "note": 81,
      "start": 26.2728,
      "duration": 0.0163,
      "velocity": 98,
      "chip": "ym2612"
    },
    {
      "channel": 3,
      "note": 85,
      "start": 26.2739,
      "duration": 0.0163,
      "velocity": 98,
      "chip": "ym2612"
    },
    {
      "channel": 2,
      "note": 57,
      "start": 26.2751,
      "duration": 0.0163,
      "velocity": 93,
      "chip": "ym2612"
    },
    {
      "channel": 1,
      "note": 76,
      "start": 26.2763,
      "duration": 0.0163,
      "velocity": 108,
      "chip": "ym2612"
    },
    {
      "channel": 0,
      "note": 42,
      "start": 26.2868,
      "duration": 0.0163,
      "velocity": 115,
      "chip": "ym2612"
    },
    {
      "channel": 5,
      "note": 76,
      "start": 26.288,
      "duration": 0.0163,
      "velocity": 108,
      "chip": "ym2612"
    },
    {
      "channel": 4,
      "note": 81,
      "start": 26.2892,
      "duration": 0.0163,
      "velocity": 98,
      "chip": "ym2612"
    },
    {
      "channel": 3,
      "note": 85,
      "start": 26.2903,
      "duration": 0.0163,
      "velocity": 98,
      "chip": "ym2612"
    },
    {
      "channel": 2,
      "note": 57,
      "start": 26.2915,
      "duration": 0.0163,
      "velocity": 93,
      "chip": "ym2612"
    },
    {
      "channel": 1,
      "note": 76,
      "start": 26.2926,
      "duration": 0.0163,
      "velocity": 108,
      "chip": "ym2612"
    },
    {
      "channel": 0,
      "note": 42,
      "start": 26.3032,
      "duration": 0.0161,
      "velocity": 115,
      "chip": "ym2612"
    },
    {
      "channel": 5,
      "note": 76,
      "start": 26.3043,
      "duration": 0.0162,
      "velocity": 108,
      "chip": "ym2612"
    },
    {
      "channel": 4,
      "note": 81,
      "start": 26.3055,
      "duration": 0.0161,
      "velocity": 98,
      "chip": "ym2612"
    },
    {
      "channel": 3,
      "note": 85,
      "start": 26.3066,
      "duration": 0.0161,
      "velocity": 98,
      "chip": "ym2612"
    },
    {
      "channel": 2,
      "note": 57,
      "start": 26.3078,
      "duration": 0.0161,
      "velocity": 93,
      "chip": "ym2612"
    },
    {
      "channel": 1,
      "note": 76,
      "start": 26.3089,
      "duration": 0.0161,
      "velocity": 108,
      "chip": "ym2612"
    },
    {
      "channel": 0,
      "note": 43,
      "start": 26.3193,
      "duration": 0.016,
      "velocity": 115,
      "chip": "ym2612"
    },
    {
      "channel": 5,
      "note": 76,
      "start": 26.3205,
      "duration": 0.0161,
      "velocity": 108,
      "chip": "ym2612"
    },
    {
      "channel": 4,
      "note": 81,
      "start": 26.3216,
      "duration": 0.0161,
      "velocity": 98,
      "chip": "ym2612"
    },
    {
      "channel": 3,
      "note": 85,
      "start": 26.3227,
      "duration": 0.0162,
      "velocity": 98,
      "chip": "ym2612"
    },
    {
      "channel": 2,
      "note": 57,
      "start": 26.3239,
      "duration": 0.0163,
      "velocity": 93,
      "chip": "ym2612"
    },
    {
      "channel": 1,
      "note": 76,
      "start": 26.325,
      "duration": 0.0163,
      "velocity": 108,
      "chip": "ym2612"
    },
    {
      "channel": 0,
      "note": 43,
      "start": 26.3353,
      "duration": 0.0158,
      "velocity": 115,
      "chip": "ym2612"
    },
    {
      "channel": 5,
      "note": 76,
      "start": 26.3366,
      "duration": 0.0161,
      "velocity": 108,
      "chip": "ym2612"
    },
    {
      "channel": 4,
      "note": 81,
      "start": 26.3378,
      "duration": 0.0162,
      "velocity": 98,
      "chip": "ym2612"
    },
    {
      "channel": 3,
      "note": 85,
      "start": 26.339,
      "duration": 0.0162,
      "velocity": 98,
      "chip": "ym2612"
    },
    {
      "channel": 2,
      "note": 57,
      "start": 26.3402,
      "duration": 0.0163,
      "velocity": 93,
      "chip": "ym2612"
    },
    {
      "channel": 1,
      "note": 76,
      "start": 26.3414,
      "duration": 0.0163,
      "velocity": 108,
      "chip": "ym2612"
    },
    {
      "channel": 0,
      "note": 44,
      "start": 26.351,
      "duration": 0.0183,
      "velocity": 124,
      "chip": "ym2612"
    },
    {
      "channel": 5,
      "note": 76,
      "start": 26.3527,
      "duration": 0.018,
      "velocity": 108,
      "chip": "ym2612"
    },
    {
      "channel": 2,
      "note": 57,
      "start": 26.3565,
      "duration": 0.0188,
      "velocity": 93,
      "chip": "ym2612"
    },
    {
      "channel": 0,
      "note": 84,
      "start": 26.3694,
      "duration": 0.0137,
      "velocity": 124,
      "chip": "ym2612"
    },
    {
      "channel": 5,
      "note": 76,
      "start": 26.3707,
      "duration": 0.0143,
      "velocity": 108,
      "chip": "ym2612"
    },
    {
      "channel": 4,
      "note": 81,
      "start": 26.3722,
      "duration": 0.014,
      "velocity": 98,
      "chip": "ym2612"
    },
    {
      "channel": 3,
      "note": 85,
      "start": 26.3738,
      "duration": 0.0136,
      "velocity": 98,
      "chip": "ym2612"
    },
    {
      "channel": 2,
      "note": 57,
      "start": 26.3753,
      "duration": 0.0134,
      "velocity": 93,
      "chip": "ym2612"
    },
    {
      "channel": 1,
      "note": 76,
      "start": 26.3768,
      "duration": 0.013,
      "velocity": 108,
      "chip": "ym2612"
    },
    {
      "channel": 0,
      "note": 82,
      "start": 26.3831,
      "duration": 0.0161,
      "velocity": 124,
      "chip": "ym2612"
    },
    {
      "channel": 4,
      "note": 81,
      "start": 26.3862,
      "duration": 0.0162,
      "velocity": 98,
      "chip": "ym2612"
    },
    {
      "channel": 3,
      "note": 85,
      "start": 26.3874,
      "duration": 0.0162,
      "velocity": 98,
      "chip": "ym2612"
    },
    {
      "channel": 2,
      "note": 57,
      "start": 26.3886,
      "duration": 0.0161,
      "velocity": 93,
      "chip": "ym2612"
    },
    {
      "channel": 1,
      "note": 76,
      "start": 26.3899,
      "duration": 0.016,
      "velocity": 108,
      "chip": "ym2612"
    },
    {
      "channel": 0,
      "note": 80,
      "start": 26.3992,
      "duration": 0.0161,
      "velocity": 124,
      "chip": "ym2612"
    },
    {
      "channel": 5,
      "note": 76,
      "start": 26.4009,
      "duration": 0.0156,
      "velocity": 108,
      "chip": "ym2612"
    },
    {
      "channel": 4,
      "note": 81,
      "start": 26.4024,
      "duration": 0.0158,
      "velocity": 98,
      "chip": "ym2612"
    },
    {
      "channel": 3,
      "note": 85,
      "start": 26.4036,
      "duration": 0.0158,
      "velocity": 98,
      "chip": "ym2612"
    },
    {
      "channel": 2,
      "note": 57,
      "start": 26.4047,
      "duration": 0.0159,
      "velocity": 93,
      "chip": "ym2612"
    },
    {
      "channel": 1,
      "note": 76,
      "start": 26.4059,
      "duration": 0.0158,
      "velocity": 108,
      "chip": "ym2612"
    },
    {
      "channel": 0,
      "note": 77,
      "start": 26.4153,
      "duration": 0.0161,
      "velocity": 124,
      "chip": "ym2612"
    },
    {
      "channel": 5,
      "note": 76,
      "start": 26.4165,
      "duration": 0.016,
      "velocity": 108,
      "chip": "ym2612"
    },
    {
      "channel": 4,
      "note": 81,
      "start": 26.4182,
      "duration": 0.0155,
      "velocity": 98,
      "chip": "ym2612"
    },
    {
      "channel": 3,
      "note": 85,
      "start": 26.4194,
      "duration": 0.016,
      "velocity": 98,
      "chip": "ym2612"
    },
    {
      "channel": 2,
      "note": 57,
      "start": 26.4206,
      "duration": 0.016,
      "velocity": 93,
      "chip": "ym2612"
    },
    {
      "channel": 1,
      "note": 76,
      "start": 26.4217,
      "duration": 0.016,
      "velocity": 108,
      "chip": "ym2612"
    },
    {
      "channel": 0,
      "note": 75,
      "start": 26.4314,
      "duration": 0.0161,
      "velocity": 124,
      "chip": "ym2612"
    },
    {
      "channel": 5,
      "note": 76,
      "start": 26.4325,
      "duration": 0.0161,
      "velocity": 108,
      "chip": "ym2612"
    },
    {
      "channel": 4,
      "note": 81,
      "start": 26.4337,
      "duration": 0.0161,
      "velocity": 98,
      "chip": "ym2612"
    },
    {
      "channel": 3,
      "note": 85,
      "start": 26.4355,
      "duration": 0.016,
      "velocity": 98,
      "chip": "ym2612"
    },
    {
      "channel": 2,
      "note": 57,
      "start": 26.4366,
      "duration": 0.0161,
      "velocity": 93,
      "chip": "ym2612"
    },
    {
      "channel": 1,
      "note": 76,
      "start": 26.4378,
      "duration": 0.0161,
      "velocity": 108,
      "chip": "ym2612"
    },
    {
      "channel": 0,
      "note": 72,
      "start": 26.4475,
      "duration": 0.0161,
      "velocity": 124,
      "chip": "ym2612"
    },
    {
      "channel": 5,
      "note": 76,
      "start": 26.4486,
      "duration": 0.0161,
      "velocity": 108,
      "chip": "ym2612"
    },
    {
      "channel": 4,
      "note": 81,
      "start": 26.4498,
      "duration": 0.0161,
      "velocity": 98,
      "chip": "ym2612"
    },
    {
      "channel": 3,
      "note": 85,
      "start": 26.4515,
      "duration": 0.0156,
      "velocity": 98,
      "chip": "ym2612"
    },
    {
      "channel": 2,
      "note": 57,
      "start": 26.4527,
      "duration": 0.0161,
      "velocity": 93,
      "chip": "ym2612"
    },
    {
      "channel": 1,
      "note": 76,
      "start": 26.4539,
      "duration": 0.0161,
      "velocity": 108,
      "chip": "ym2612"
    },
    {
      "channel": 0,
      "note": 70,
      "start": 26.4636,
      "duration": 0.0161,
      "velocity": 124,
      "chip": "ym2612"
    },
    {
      "channel": 5,
      "note": 76,
      "start": 26.4647,
      "duration": 0.0161,
      "velocity": 108,
      "chip": "ym2612"
    },
    {
      "channel": 4,
      "note": 81,
      "start": 26.4659,
      "duration": 0.0161,
      "velocity": 98,
      "chip": "ym2612"
    },
    {
      "channel": 3,
      "note": 85,
      "start": 26.4671,
      "duration": 0.016,
      "velocity": 98,
      "chip": "ym2612"
    },
    {
      "channel": 2,
      "note": 57,
      "start": 26.4688,
      "duration": 0.016,
      "velocity": 93,
      "chip": "ym2612"
    },
    {
      "channel": 1,
      "note": 76,
      "start": 26.47,
      "duration": 0.0161,
      "velocity": 108,
      "chip": "ym2612"
    },
    {
      "channel": 0,
      "note": 68,
      "start": 26.4797,
      "duration": 0.0161,
      "velocity": 124,
      "chip": "ym2612"
    },
    {
      "channel": 5,
      "note": 76,
      "start": 26.4808,
      "duration": 0.0162,
      "velocity": 108,
      "chip": "ym2612"
    },
    {
      "channel": 4,
      "note": 81,
      "start": 26.482,
      "duration": 0.0161,
      "velocity": 98,
      "chip": "ym2612"
    },
    {
      "channel": 3,
      "note": 85,
      "start": 26.4831,
      "duration": 0.0162,
      "velocity": 98,
      "chip": "ym2612"
    },
    {
      "channel": 2,
      "note": 57,
      "start": 26.4848,
      "duration": 0.0156,
      "velocity": 93,
      "chip": "ym2612"
    },
    {
      "channel": 1,
      "note": 76,
      "start": 26.486,
      "duration": 0.0162,
      "velocity": 108,
      "chip": "ym2612"
    },
    {
      "channel": 0,
      "note": 65,
      "start": 26.4958,
      "duration": 0.0161,
      "velocity": 124,
      "chip": "ym2612"
    },
    {
      "channel": 5,
      "note": 76,
      "start": 26.497,
      "duration": 0.0161,
      "velocity": 108,
      "chip": "ym2612"
    },
    {
      "channel": 4,
      "note": 81,
      "start": 26.4981,
      "duration": 0.0161,
      "velocity": 98,
      "chip": "ym2612"
    },
    {
      "channel": 3,
      "note": 85,
      "start": 26.4993,
      "duration": 0.0161,
      "velocity": 98,
      "chip": "ym2612"
    },
    {
      "channel": 2,
      "note": 57,
      "start": 26.5004,
      "duration": 0.0161,
      "velocity": 93,
      "chip": "ym2612"
    },
    {
      "channel": 1,
      "note": 76,
      "start": 26.5022,
      "duration": 0.016,
      "velocity": 108,
      "chip": "ym2612"
    },
    {
      "channel": 0,
      "note": 63,
      "start": 26.5119,
      "duration": 0.0153,
      "velocity": 1,
      "chip": "ym2612"
    },
    {
      "channel": 5,
      "note": 76,
      "start": 26.5131,
      "duration": 0.0153,
      "velocity": 108,
      "chip": "ym2612"
    },
    {
      "channel": 4,
      "note": 81,
      "start": 26.5142,
      "duration": 0.0153,
      "velocity": 98,
      "chip": "ym2612"
    },
    {
      "channel": 3,
      "note": 85,
      "start": 26.5154,
      "duration": 0.0153,
      "velocity": 98,
      "chip": "ym2612"
    },
    {
      "channel": 2,
      "note": 57,
      "start": 26.5165,
      "duration": 0.0153,
      "velocity": 93,
      "chip": "ym2612"
    },
    {
      "channel": 1,
      "note": 76,
      "start": 26.5182,
      "duration": 0.0148,
      "velocity": 108,
      "chip": "ym2612"
    },
    {
      "channel": 5,
      "note": 76,
      "start": 26.5283,
      "duration": 0.0152,
      "velocity": 108,
      "chip": "ym2612"
    },
    {
      "channel": 4,
      "note": 81,
      "start": 26.5295,
      "duration": 0.0153,
      "velocity": 98,
      "chip": "ym2612"
    },
    {
      "channel": 3,
      "note": 85,
      "start": 26.5306,
      "duration": 0.0153,
      "velocity": 98,
      "chip": "ym2612"
    },
    {
      "channel": 2,
      "note": 57,
      "start": 26.5318,
      "duration": 0.0153,
      "velocity": 93,
      "chip": "ym2612"
    },
    {
      "channel": 1,
      "note": 76,
      "start": 26.533,
      "duration": 0.0153,
      "velocity": 108,
      "chip": "ym2612"
    },
    {
      "channel": 5,
      "note": 76,
      "start": 26.5435,
      "duration": 0.0197,
      "velocity": 108,
      "chip": "ym2612"
    },
    {
      "channel": 2,
      "note": 57,
      "start": 26.5471,
      "duration": 0.0212,
      "velocity": 93,
      "chip": "ym2612"
    },
    {
      "channel": 0,
      "note": 84,
      "start": 26.5621,
      "duration": 0.0143,
      "velocity": 124,
      "chip": "ym2612"
    },
    {
      "channel": 5,
      "note": 76,
      "start": 26.5632,
      "duration": 0.0143,
      "velocity": 108,
      "chip": "ym2612"
    },
    {
      "channel": 4,
      "note": 80,
      "start": 26.5648,
      "duration": 0.0139,
      "velocity": 98,
      "chip": "ym2612"
    },
    {
      "channel": 3,
      "note": 83,
      "start": 26.5663,
      "duration": 0.0137,
      "velocity": 98,
      "chip": "ym2612"
    },
    {
      "channel": 2,
      "note": 52,
      "start": 26.5683,
      "duration": 0.0129,
      "velocity": 93,
      "chip": "ym2612"
    },
    {
      "channel": 1,
      "note": 76,
      "start": 26.57,
      "duration": 0.0124,
      "velocity": 108,
      "chip": "ym2612"
    },
    {
      "channel": 0,
      "note": 82,
      "start": 26.5764,
      "duration": 0.016,
      "velocity": 124,
      "chip": "ym2612"
    },
    {
      "channel": 4,
      "note": 80,
      "start": 26.5787,
      "duration": 0.0163,
      "velocity": 98,
      "chip": "ym2612"
    },
    {
      "channel": 3,
      "note": 83,
      "start": 26.58,
      "duration": 0.0162,
      "velocity": 98,
      "chip": "ym2612"
    },
    {
      "channel": 2,
      "note": 52,
      "start": 26.5812,
      "duration": 0.0162,
      "velocity": 93,
      "chip": "ym2612"
    },
    {
      "channel": 1,
      "note": 76,
      "start": 26.5824,
      "duration": 0.0161,
      "velocity": 108,
      "chip": "ym2612"
    },
    {
      "channel": 0,
      "note": 80,
      "start": 26.5924,
      "duration": 0.0161,
      "velocity": 124,
      "chip": "ym2612"
    },
    {
      "channel": 5,
      "note": 76,
      "start": 26.5939,
      "duration": 0.0158,
      "velocity": 108,
      "chip": "ym2612"
    },
    {
      "channel": 4,
      "note": 80,
      "start": 26.5951,
      "duration": 0.0158,
      "velocity": 98,
      "chip": "ym2612"
    },
    {
      "channel": 3,
      "note": 83,
      "start": 26.5962,
      "duration": 0.0159,
      "velocity": 98,
      "chip": "ym2612"
    },
    {
      "channel": 2,
      "note": 52,
      "start": 26.5974,
      "duration": 0.0158,
      "velocity": 93,
      "chip": "ym2612"
    },
    {
      "channel": 1,
      "note": 76,
      "start": 26.5985,
      "duration": 0.0159,
      "velocity": 108,
      "chip": "ym2612"
    },
    {
      "channel": 0,
      "note": 77,
      "start": 26.6085,
      "duration": 0.0161,
      "velocity": 124,
      "chip": "ym2612"
    },
    {
      "channel": 5,
      "note": 76,
      "start": 26.6097,
      "duration": 0.016,
      "velocity": 108,
      "chip": "ym2612"
    },
    {
      "channel": 4,
      "note": 80,
      "start": 26.6108,
      "duration": 0.016,
      "velocity": 98,
      "chip": "ym2612"
    },
    {
      "channel": 3,
      "note": 83,
      "start": 26.6121,
      "duration": 0.016,
      "velocity": 98,
      "chip": "ym2612"
    },
    {
      "channel": 2,
      "note": 52,
      "start": 26.6132,
      "duration": 0.016,
      "velocity": 93,
      "chip": "ym2612"
    },
    {
      "channel": 1,
      "note": 76,
      "start": 26.6144,
      "duration": 0.016,
      "velocity": 108,
      "chip": "ym2612"
    },
    {
      "channel": 0,
      "note": 75,
      "start": 26.6246,
      "duration": 0.0161,
      "velocity": 124,
      "chip": "ym2612"
    },
    {
      "channel": 5,
      "note": 76,
      "start": 26.6257,
      "duration": 0.0161,
      "velocity": 108,
      "chip": "ym2612"
    },
    {
      "channel": 4,
      "note": 80,
      "start": 26.6269,
      "duration": 0.0162,
      "velocity": 98,
      "chip": "ym2612"
    },
    {
      "channel": 3,
      "note": 83,
      "start": 26.6281,
      "duration": 0.0161,
      "velocity": 98,
      "chip": "ym2612"
    },
    {
      "channel": 2,
      "note": 52,
      "start": 26.6292,
      "duration": 0.0161,
      "velocity": 93,
      "chip": "ym2612"
    },
    {
      "channel": 1,
      "note": 76,
      "start": 26.6304,
      "duration": 0.0161,
      "velocity": 108,
      "chip": "ym2612"
    },
    {
      "channel": 0,
      "note": 72,
      "start": 26.6407,
      "duration": 0.0161,
      "velocity": 124,
      "chip": "ym2612"
    },
    {
      "channel": 5,
      "note": 76,
      "start": 26.6419,
      "duration": 0.0161,
      "velocity": 108,
      "chip": "ym2612"
    },
    {
      "channel": 4,
      "note": 80,
      "start": 26.643,
      "duration": 0.0161,
      "velocity": 98,
      "chip": "ym2612"
    },
    {
      "channel": 3,
      "note": 83,
      "start": 26.6442,
      "duration": 0.0163,
      "velocity": 98,
      "chip": "ym2612"
    },
    {
      "channel": 2,
      "note": 52,
      "start": 26.6453,
      "duration": 0.0163,
      "velocity": 93,
      "chip": "ym2612"
    },
    {
      "channel": 1,
      "note": 76,
      "start": 26.6465,
      "duration": 0.0164,
      "velocity": 108,
      "chip": "ym2612"
    },
    {
      "channel": 0,
      "note": 70,
      "start": 26.6568,
      "duration": 0.0161,
      "velocity": 124,
      "chip": "ym2612"
    },
    {
      "channel": 5,
      "note": 76,
      "start": 26.658,
      "duration": 0.0161,
      "velocity": 108,
      "chip": "ym2612"
    },
    {
      "channel": 4,
      "note": 80,
      "start": 26.6592,
      "duration": 0.0161,
      "velocity": 98,
      "chip": "ym2612"
    },
    {
      "channel": 3,
      "note": 83,
      "start": 26.6605,
      "duration": 0.016,
      "velocity": 98,
      "chip": "ym2612"
    },
    {
      "channel": 2,
      "note": 52,
      "start": 26.6617,
      "duration": 0.016,
      "velocity": 93,
      "chip": "ym2612"
    },
    {
      "channel": 1,
      "note": 76,
      "start": 26.6629,
      "duration": 0.016,
      "velocity": 108,
      "chip": "ym2612"
    },
    {
      "channel": 0,
      "note": 68,
      "start": 26.6729,
      "duration": 0.0161,
      "velocity": 124,
      "chip": "ym2612"
    },
    {
      "channel": 5,
      "note": 76,
      "start": 26.6741,
      "duration": 0.0162,
      "velocity": 108,
      "chip": "ym2612"
    },
    {
      "channel": 4,
      "note": 80,
      "start": 26.6753,
      "duration": 0.0162,
      "velocity": 98,
      "chip": "ym2612"
    },
    {
      "channel": 3,
      "note": 83,
      "start": 26.6765,
      "duration": 0.0161,
      "velocity": 98,
      "chip": "ym2612"
    },
    {
      "channel": 2,
      "note": 52,
      "start": 26.6777,
      "duration": 0.0161,
      "velocity": 93,
      "chip": "ym2612"
    },
    {
      "channel": 1,
      "note": 76,
      "start": 26.6789,
      "duration": 0.0162,
      "velocity": 108,
      "chip": "ym2612"
    },
    {
      "channel": 0,
      "note": 65,
      "start": 26.689,
      "duration": 0.0162,
      "velocity": 124,
      "chip": "ym2612"
    },
    {
      "channel": 5,
      "note": 76,
      "start": 26.6902,
      "duration": 0.0161,
      "velocity": 108,
      "chip": "ym2612"
    },
    {
      "channel": 4,
      "note": 80,
      "start": 26.6915,
      "duration": 0.016,
      "velocity": 98,
      "chip": "ym2612"
    },
    {
      "channel": 3,
      "note": 83,
      "start": 26.6927,
      "duration": 0.016,
      "velocity": 98,
      "chip": "ym2612"
    },
    {
      "channel": 2,
      "note": 52,
      "start": 26.6939,
      "duration": 0.0159,
      "velocity": 93,
      "chip": "ym2612"
    },
    {
      "channel": 1,
      "note": 76,
      "start": 26.6951,
      "duration": 0.0158,
      "velocity": 108,
      "chip": "ym2612"
    },
    {
      "channel": 0,
      "note": 63,
      "start": 26.7051,
      "duration": 0.0153,
      "velocity": 1,
      "chip": "ym2612"
    },
    {
      "channel": 5,
      "note": 76,
      "start": 26.7063,
      "duration": 0.0152,
      "velocity": 108,
      "chip": "ym2612"
    },
    {
      "channel": 4,
      "note": 80,
      "start": 26.7075,
      "duration": 0.0152,
      "velocity": 98,
      "chip": "ym2612"
    },
    {
      "channel": 3,
      "note": 83,
      "start": 26.7086,
      "duration": 0.0152,
      "velocity": 98,
      "chip": "ym2612"
    },
    {
      "channel": 2,
      "note": 52,
      "start": 26.7098,
      "duration": 0.0153,
      "velocity": 93,
      "chip": "ym2612"
    },
    {
      "channel": 1,
      "note": 76,
      "start": 26.711,
      "duration": 0.0152,
      "velocity": 108,
      "chip": "ym2612"
    },
    {
      "channel": 5,
      "note": 76,
      "start": 26.7215,
      "duration": 0.0153,
      "velocity": 108,
      "chip": "ym2612"
    },
    {
      "channel": 4,
      "note": 80,
      "start": 26.7227,
      "duration": 0.0153,
      "velocity": 98,
      "chip": "ym2612"
    },
    {
      "channel": 3,
      "note": 83,
      "start": 26.7238,
      "duration": 0.0153,
      "velocity": 98,
      "chip": "ym2612"
    },
    {
      "channel": 2,
      "note": 52,
      "start": 26.725,
      "duration": 0.0153,
      "velocity": 93,
      "chip": "ym2612"
    },
    {
      "channel": 1,
      "note": 76,
      "start": 26.7262,
      "duration": 0.0153,
      "velocity": 108,
      "chip": "ym2612"
    },
    {
      "channel": 5,
      "note": 76,
      "start": 26.7369,
      "duration": 0.0161,
      "velocity": 108,
      "chip": "ym2612"
    },
    {
      "channel": 2,
      "note": 52,
      "start": 26.7404,
      "duration": 0.0166,
      "velocity": 93,
      "chip": "ym2612"
    },
    {
      "channel": 5,
      "note": 76,
      "start": 26.753,
      "duration": 0.0163,
      "velocity": 108,
      "chip": "ym2612"
    },
    {
      "channel": 2,
      "note": 52,
      "start": 26.757,
      "duration": 0.0162,
      "velocity": 93,
      "chip": "ym2612"
    },
    {
      "channel": 2,
      "note": 52,
      "start": 26.7731,
      "duration": 0.0165,
      "velocity": 93,
      "chip": "ym2612"
    },
    {
      "channel": 2,
      "note": 52,
      "start": 26.7896,
      "duration": 0.016,
      "velocity": 93,
      "chip": "ym2612"
    },
    {
      "channel": 2,
      "note": 52,
      "start": 26.8056,
      "duration": 0.0161,
      "velocity": 93,
      "chip": "ym2612"
    },
    {
      "channel": 2,
      "note": 52,
      "start": 26.8217,
      "duration": 0.0162,
      "velocity": 93,
      "chip": "ym2612"
    },
    {
      "channel": 2,
      "note": 52,
      "start": 26.8378,
      "duration": 0.0196,
      "velocity": 93,
      "chip": "ym2612"
    },
    {
      "channel": 0,
      "note": 84,
      "start": 26.8524,
      "duration": 0.0137,
      "velocity": 124,
      "chip": "ym2612"
    },
    {
      "channel": 2,
      "note": 52,
      "start": 26.8574,
      "duration": 0.0143,
      "velocity": 93,
      "chip": "ym2612"
    },
    {
      "channel": 1,
      "note": 76,
      "start": 26.8602,
      "duration": 0.0127,
      "velocity": 103,
      "chip": "ym2612"
    },
    {
      "channel": 0,
      "note": 82,
      "start": 26.8662,
      "duration": 0.016,
      "velocity": 124,
      "chip": "ym2612"
    },
    {
      "channel": 2,
      "note": 52,
      "start": 26.8717,
      "duration": 0.016,
      "velocity": 93,
      "chip": "ym2612"
    },
    {
      "channel": 1,
      "note": 76,
      "start": 26.8729,
      "duration": 0.016,
      "velocity": 103,
      "chip": "ym2612"
    },
    {
      "channel": 0,
      "note": 80,
      "start": 26.8822,
      "duration": 0.0161,
      "velocity": 124,
      "chip": "ym2612"
    },
    {
      "channel": 2,
      "note": 52,
      "start": 26.8878,
      "duration": 0.0161,
      "velocity": 93,
      "chip": "ym2612"
    },
    {
      "channel": 1,
      "note": 76,
      "start": 26.889,
      "duration": 0.0161,
      "velocity": 103,
      "chip": "ym2612"
    },
    {
      "channel": 0,
      "note": 77,
      "start": 26.8983,
      "duration": 0.0161,
      "velocity": 124,
      "chip": "ym2612"
    },
    {
      "channel": 2,
      "note": 52,
      "start": 26.9039,
      "duration": 0.0161,
      "velocity": 93,
      "chip": "ym2612"
    },
    {
      "channel": 1,
      "note": 76,
      "start": 26.9051,
      "duration": 0.0161,
      "velocity": 103,
      "chip": "ym2612"
    },
    {
      "channel": 0,
      "note": 75,
      "start": 26.9144,
      "duration": 0.0161,
      "velocity": 124,
      "chip": "ym2612"
    },
    {
      "channel": 2,
      "note": 52,
      "start": 26.92,
      "duration": 0.0161,
      "velocity": 93,
      "chip": "ym2612"
    },
    {
      "channel": 0,
      "note": 72,
      "start": 26.9305,
      "duration": 0.0179,
      "velocity": 124,
      "chip": "ym2612"
    },
    {
      "channel": 2,
      "note": 52,
      "start": 26.9361,
      "duration": 0.0196,
      "velocity": 93,
      "chip": "ym2612"
    },
    {
      "channel": 0,
      "note": 84,
      "start": 26.9484,
      "duration": 0.0143,
      "velocity": 124,
      "chip": "ym2612"
    },
    {
      "channel": 5,
      "note": 76,
      "start": 26.952,
      "duration": 0.0121,
      "velocity": 102,
      "chip": "ym2612"
    },
    {
      "channel": 2,
      "note": 52,
      "start": 26.9557,
      "duration": 0.0126,
      "velocity": 93,
      "chip": "ym2612"
    },
    {
      "channel": 1,
      "note": 75,
      "start": 26.9572,
      "duration": 0.0124,
      "velocity": 103,
      "chip": "ym2612"
    },
    {
      "channel": 0,
      "note": 82,
      "start": 26.9628,
      "duration": 0.0161,
      "velocity": 124,
      "chip": "ym2612"
    },
    {
      "channel": 5,
      "note": 76,
      "start": 26.964,
      "duration": 0.016,
      "velocity": 102,
      "chip": "ym2612"
    },
    {
      "channel": 2,
      "note": 52,
      "start": 26.9683,
      "duration": 0.0154,
      "velocity": 93,
      "chip": "ym2612"
    },
    {
      "channel": 1,
      "note": 75,
      "start": 26.9696,
      "duration": 0.0159,
      "velocity": 103,
      "chip": "ym2612"
    },
    {
      "channel": 0,
      "note": 80,
      "start": 26.9788,
      "duration": 0.0161,
      "velocity": 124,
      "chip": "ym2612"
    },
    {
      "channel": 5,
      "note": 76,
      "start": 26.98,
      "duration": 0.0161,
      "velocity": 102,
      "chip": "ym2612"
    },
    {
      "channel": 2,
      "note": 52,
      "start": 26.9837,
      "duration": 0.0161,
      "velocity": 93,
      "chip": "ym2612"
    },
    {
      "channel": 1,
      "note": 75,
      "start": 26.9855,
      "duration": 0.016,
      "velocity": 103,
      "chip": "ym2612"
    },
    {
      "channel": 0,
      "note": 77,
      "start": 26.9949,
      "duration": 0.0161,
      "velocity": 124,
      "chip": "ym2612"
    },
    {
      "channel": 5,
      "note": 76,
      "start": 26.9961,
      "duration": 0.0161,
      "velocity": 102,
      "chip": "ym2612"
    },
    {
      "channel": 2,
      "note": 52,
      "start": 26.9998,
      "duration": 0.0162,
      "velocity": 93,
      "chip": "ym2612"
    },
    {
      "channel": 1,
      "note": 75,
      "start": 27.0015,
      "duration": 0.0156,
      "velocity": 103,
      "chip": "ym2612"
    },
    {
      "channel": 0,
      "note": 75,
      "start": 27.011,
      "duration": 0.0161,
      "velocity": 124,
      "chip": "ym2612"
    },
    {
      "channel": 2,
      "note": 52,
      "start": 27.0159,
      "duration": 0.0161,
      "velocity": 93,
      "chip": "ym2612"
    },
    {
      "channel": 1,
      "note": 75,
      "start": 27.0171,
      "duration": 0.0161,
      "velocity": 103,
      "chip": "ym2612"
    },
    {
      "channel": 0,
      "note": 72,
      "start": 27.0271,
      "duration": 0.0161,
      "velocity": 124,
      "chip": "ym2612"
    },
    {
      "channel": 2,
      "note": 52,
      "start": 27.032,
      "duration": 0.0163,
      "velocity": 93,
      "chip": "ym2612"
    },
    {
      "channel": 1,
      "note": 75,
      "start": 27.0332,
      "duration": 0.0164,
      "velocity": 103,
      "chip": "ym2612"
    },
    {
      "channel": 0,
      "note": 70,
      "start": 27.0432,
      "duration": 0.0161,
      "velocity": 124,
      "chip": "ym2612"
    },
    {
      "channel": 5,
      "note": 75,
      "start": 27.0447,
      "duration": 0.0158,
      "velocity": 102,
      "chip": "ym2612"
    },
    {
      "channel": 2,
      "note": 52,
      "start": 27.0484,
      "duration": 0.0158,
      "velocity": 93,
      "chip": "ym2612"
    },
    {
      "channel": 1,
      "note": 75,
      "start": 27.0496,
      "duration": 0.0158,
      "velocity": 103,
      "chip": "ym2612"
    },
    {
      "channel": 0,
      "note": 68,
      "start": 27.0593,
      "duration": 0.0161,
      "velocity": 124,
      "chip": "ym2612"
    },
    {
      "channel": 5,
      "note": 75,
      "start": 27.0605,
      "duration": 0.016,
      "velocity": 102,
      "chip": "ym2612"
    },
    {
      "channel": 2,
      "note": 52,
      "start": 27.0642,
      "duration": 0.0161,
      "velocity": 93,
      "chip": "ym2612"
    },
    {
      "channel": 1,
      "note": 75,
      "start": 27.0654,
      "duration": 0.016,
      "velocity": 103,
      "chip": "ym2612"
    },
    {
      "channel": 0,
      "note": 65,
      "start": 27.0754,
      "duration": 0.0161,
      "velocity": 124,
      "chip": "ym2612"
    },
    {
      "channel": 5,
      "note": 75,
      "start": 27.0766,
      "duration": 0.0161,
      "velocity": 102,
      "chip": "ym2612"
    },
    {
      "channel": 2,
      "note": 52,
      "start": 27.0803,
      "duration": 0.0161,
      "velocity": 93,
      "chip": "ym2612"
    },
    {
      "channel": 1,
      "note": 75,
      "start": 27.0815,
      "duration": 0.0161,
      "velocity": 103,
      "chip": "ym2612"
    },
    {
      "channel": 0,
      "note": 63,
      "start": 27.0915,
      "duration": 0.0153,
      "velocity": 1,
      "chip": "ym2612"
    },
    {
      "channel": 5,
      "note": 75,
      "start": 27.0927,
      "duration": 0.0153,
      "velocity": 102,
      "chip": "ym2612"
    },
    {
      "channel": 2,
      "note": 52,
      "start": 27.0964,
      "duration": 0.0153,
      "velocity": 93,
      "chip": "ym2612"
    },
    {
      "channel": 1,
      "note": 75,
      "start": 27.0976,
      "duration": 0.0153,
      "velocity": 103,
      "chip": "ym2612"
    },
    {
      "channel": 5,
      "note": 75,
      "start": 27.108,
      "duration": 0.0152,
      "velocity": 102,
      "chip": "ym2612"
    },
    {
      "channel": 2,
      "note": 52,
      "start": 27.1117,
      "duration": 0.0153,
      "velocity": 93,
      "chip": "ym2612"
    },
    {
      "channel": 5,
      "note": 75,
      "start": 27.1232,
      "duration": 0.0197,
      "velocity": 102,
      "chip": "ym2612"
    },
    {
      "channel": 2,
      "note": 52,
      "start": 27.1269,
      "duration": 0.0196,
      "velocity": 93,
      "chip": "ym2612"
    },
    {
      "channel": 0,
      "note": 36,
      "start": 27.1417,
      "duration": 0.0143,
      "velocity": 115,
      "chip": "ym2612"
    },
    {
      "channel": 5,
      "note": 75,
      "start": 27.1429,
      "duration": 0.0143,
      "velocity": 102,
      "chip": "ym2612"
    },
    {
      "channel": 2,
      "note": 52,
      "start": 27.1465,
      "duration": 0.0143,
      "velocity": 93,
      "chip": "ym2612"
    },
    {
      "channel": 1,
      "note": 76,
      "start": 27.148,
      "duration": 0.0141,
      "velocity": 103,
      "chip": "ym2612"
    },
    {
      "channel": 0,
      "note": 36,
      "start": 27.156,
      "duration": 0.016,
      "velocity": 115,
      "chip": "ym2612"
    },
    {
      "channel": 5,
      "note": 75,
      "start": 27.1572,
      "duration": 0.016,
      "velocity": 102,
      "chip": "ym2612"
    },
    {
      "channel": 2,
      "note": 52,
      "start": 27.1608,
      "duration": 0.0161,
      "velocity": 93,
      "chip": "ym2612"
    },
    {
      "channel": 1,
      "note": 76,
      "start": 27.1621,
      "duration": 0.016,
      "velocity": 103,
      "chip": "ym2612"
    },
    {
      "channel": 0,
      "note": 37,
      "start": 27.172,
      "duration": 0.0161,
      "velocity": 115,
      "chip": "ym2612"
    },
    {
      "channel": 5,
      "note": 75,
      "start": 27.1732,
      "duration": 0.0161,
      "velocity": 102,
      "chip": "ym2612"
    },
    {
      "channel": 2,
      "note": 52,
      "start": 27.1769,
      "duration": 0.0161,
      "velocity": 93,
      "chip": "ym2612"
    },
    {
      "channel": 1,
      "note": 76,
      "start": 27.1781,
      "duration": 0.0161,
      "velocity": 103,
      "chip": "ym2612"
    },
    {
      "channel": 0,
      "note": 37,
      "start": 27.1881,
      "duration": 0.0161,
      "velocity": 115,
      "chip": "ym2612"
    },
    {
      "channel": 5,
      "note": 75,
      "start": 27.1893,
      "duration": 0.0161,
      "velocity": 102,
      "chip": "ym2612"
    },
    {
      "channel": 2,
      "note": 52,
      "start": 27.193,
      "duration": 0.0161,
      "velocity": 93,
      "chip": "ym2612"
    },
    {
      "channel": 1,
      "note": 76,
      "start": 27.1942,
      "duration": 0.0161,
      "velocity": 103,
      "chip": "ym2612"
    },
    {
      "channel": 0,
      "note": 38,
      "start": 27.2042,
      "duration": 0.0161,
      "velocity": 115,
      "chip": "ym2612"
    },
    {
      "channel": 2,
      "note": 52,
      "start": 27.2091,
      "duration": 0.0161,
      "velocity": 93,
      "chip": "ym2612"
    },
    {
      "channel": 0,
      "note": 38,
      "start": 27.2204,
      "duration": 0.0183,
      "velocity": 127,
      "chip": "ym2612"
    },
    {
      "channel": 2,
      "note": 52,
      "start": 27.2253,
      "duration": 0.0186,
      "velocity": 93,
      "chip": "ym2612"
    },
    {
      "channel": 0,
      "note": 88,
      "start": 27.2387,
      "duration": 0.0145,
      "velocity": 127,
      "chip": "ym2612"
    },
    {
      "channel": 5,
      "note": 76,
      "start": 27.2402,
      "duration": 0.0142,
      "velocity": 102,
      "chip": "ym2612"
    },
    {
      "channel": 2,
      "note": 52,
      "start": 27.2439,
      "duration": 0.0143,
      "velocity": 93,
      "chip": "ym2612"
    },
    {
      "channel": 1,
      "note": 80,
      "start": 27.2453,
      "duration": 0.0141,
      "velocity": 103,
      "chip": "ym2612"
    },
    {
      "channel": 0,
      "note": 86,
      "start": 27.2532,
      "duration": 0.016,
      "velocity": 127,
      "chip": "ym2612"
    },
    {
      "channel": 5,
      "note": 76,
      "start": 27.2544,
      "duration": 0.016,
      "velocity": 102,
      "chip": "ym2612"
    },
    {
      "channel": 2,
      "note": 52,
      "start": 27.2581,
      "duration": 0.016,
      "velocity": 93,
      "chip": "ym2612"
    },
    {
      "channel": 1,
      "note": 80,
      "start": 27.2594,
      "duration": 0.0159,
      "velocity": 103,
      "chip": "ym2612"
    },
    {
      "channel": 0,
      "note": 85,
      "start": 27.2693,
      "duration": 0.016,
      "velocity": 127,
      "chip": "ym2612"
    },
    {
      "channel": 5,
      "note": 76,
      "start": 27.2704,
      "duration": 0.0161,
      "velocity": 102,
      "chip": "ym2612"
    },
    {
      "channel": 2,
      "note": 52,
      "start": 27.2741,
      "duration": 0.0161,
      "velocity": 93,
      "chip": "ym2612"
    },
    {
      "channel": 1,
      "note": 80,
      "start": 27.2753,
      "duration": 0.0161,
      "velocity": 103,
      "chip": "ym2612"
    },
    {
      "channel": 0,
      "note": 83,
      "start": 27.2853,
      "duration": 0.0158,
      "velocity": 127,
      "chip": "ym2612"
    },
    {
      "channel": 5,
      "note": 76,
      "start": 27.2865,
      "duration": 0.0161,
      "velocity": 102,
      "chip": "ym2612"
    },
    {
      "channel": 2,
      "note": 52,
      "start": 27.2902,
      "duration": 0.0161,
      "velocity": 93,
      "chip": "ym2612"
    },
    {
      "channel": 1,
      "note": 80,
      "start": 27.2914,
      "duration": 0.0161,
      "velocity": 103,
      "chip": "ym2612"
    },
    {
      "channel": 0,
      "note": 81,
      "start": 27.301,
      "duration": 0.0159,
      "velocity": 127,
      "chip": "ym2612"
    },
    {
      "channel": 2,
      "note": 52,
      "start": 27.3063,
      "duration": 0.0161,
      "velocity": 93,
      "chip": "ym2612"
    },
    {
      "channel": 1,
      "note": 80,
      "start": 27.3075,
      "duration": 0.0161,
      "velocity": 103,
      "chip": "ym2612"
    },
    {
      "channel": 0,
      "note": 80,
      "start": 27.317,
      "duration": 0.0186,
      "velocity": 127,
      "chip": "ym2612"
    },
    {
      "channel": 2,
      "note": 52,
      "start": 27.3224,
      "duration": 0.0183,
      "velocity": 93,
      "chip": "ym2612"
    },
    {
      "channel": 1,
      "note": 80,
      "start": 27.3236,
      "duration": 0.0183,
      "velocity": 103,
      "chip": "ym2612"
    },
    {
      "channel": 0,
      "note": 84,
      "start": 27.3355,
      "duration": 0.0137,
      "velocity": 127,
      "chip": "ym2612"
    },
    {
      "channel": 5,
      "note": 80,
      "start": 27.337,
      "duration": 0.0134,
      "velocity": 102,
      "chip": "ym2612"
    },
    {
      "channel": 2,
      "note": 52,
      "start": 27.3407,
      "duration": 0.014,
      "velocity": 93,
      "chip": "ym2612"
    },
    {
      "channel": 1,
      "note": 80,
      "start": 27.3419,
      "duration": 0.014,
      "velocity": 103,
      "chip": "ym2612"
    },
    {
      "channel": 0,
      "note": 82,
      "start": 27.3492,
      "duration": 0.016,
      "velocity": 127,
      "chip": "ym2612"
    },
    {
      "channel": 5,
      "note": 80,
      "start": 27.3504,
      "duration": 0.016,
      "velocity": 102,
      "chip": "ym2612"
    },
    {
      "channel": 2,
      "note": 52,
      "start": 27.3547,
      "duration": 0.016,
      "velocity": 93,
      "chip": "ym2612"
    },
    {
      "channel": 1,
      "note": 80,
      "start": 27.3559,
      "duration": 0.016,
      "velocity": 103,
      "chip": "ym2612"
    },
    {
      "channel": 0,
      "note": 81,
      "start": 27.3652,
      "duration": 0.0161,
      "velocity": 127,
      "chip": "ym2612"
    },
    {
      "channel": 5,
      "note": 80,
      "start": 27.3664,
      "duration": 0.0161,
      "velocity": 102,
      "chip": "ym2612"
    },
    {
      "channel": 2,
      "note": 52,
      "start": 27.3707,
      "duration": 0.0161,
      "velocity": 93,
      "chip": "ym2612"
    },
    {
      "channel": 1,
      "note": 80,
      "start": 27.3719,
      "duration": 0.0161,
      "velocity": 103,
      "chip": "ym2612"
    },
    {
      "channel": 0,
      "note": 79,
      "start": 27.3813,
      "duration": 0.0161,
      "velocity": 127,
      "chip": "ym2612"
    },
    {
      "channel": 5,
      "note": 80,
      "start": 27.3825,
      "duration": 0.0161,
      "velocity": 102,
      "chip": "ym2612"
    },
    {
      "channel": 2,
      "note": 52,
      "start": 27.3868,
      "duration": 0.0161,
      "velocity": 93,
      "chip": "ym2612"
    },
    {
      "channel": 1,
      "note": 80,
      "start": 27.388,
      "duration": 0.0161,
      "velocity": 103,
      "chip": "ym2612"
    },
    {
      "channel": 0,
      "note": 77,
      "start": 27.3974,
      "duration": 0.0161,
      "velocity": 127,
      "chip": "ym2612"
    },
    {
      "channel": 5,
      "note": 80,
      "start": 27.3986,
      "duration": 0.0161,
      "velocity": 102,
      "chip": "ym2612"
    },
    {
      "channel": 2,
      "note": 52,
      "start": 27.4029,
      "duration": 0.0161,
      "velocity": 93,
      "chip": "ym2612"
    },
    {
      "channel": 0,
      "note": 76,
      "start": 27.4135,
      "duration": 0.018,
      "velocity": 127,
      "chip": "ym2612"
    },
    {
      "channel": 5,
      "note": 80,
      "start": 27.4147,
      "duration": 0.0179,
      "velocity": 102,
      "chip": "ym2612"
    },
    {
      "channel": 2,
      "note": 52,
      "start": 27.419,
      "duration": 0.0179,
      "velocity": 93,
      "chip": "ym2612"
    },
    {
      "channel": 0,
      "note": 78,
      "start": 27.4315,
      "duration": 0.0143,
      "velocity": 127,
      "chip": "ym2612"
    },
    {
      "channel": 5,
      "note": 80,
      "start": 27.4327,
      "duration": 0.0143,
      "velocity": 102,
      "chip": "ym2612"
    },
    {
      "channel": 2,
      "note": 52,
      "start": 27.437,
      "duration": 0.0139,
      "velocity": 93,
      "chip": "ym2612"
    },
    {
      "channel": 1,
      "note": 79,
      "start": 27.4385,
      "duration": 0.0141,
      "velocity": 103,
      "chip": "ym2612"
    },
    {
      "channel": 0,
      "note": 76,
      "start": 27.4458,
      "duration": 0.016,
      "velocity": 127,
      "chip": "ym2612"
    },
    {
      "channel": 5,
      "note": 80,
      "start": 27.447,
      "duration": 0.016,
      "velocity": 102,
      "chip": "ym2612"
    },
    {
      "channel": 2,
      "note": 52,
      "start": 27.4509,
      "duration": 0.0159,
      "velocity": 93,
      "chip": "ym2612"
    },
    {
      "channel": 1,
      "note": 79,
      "start": 27.4525,
      "duration": 0.0159,
      "velocity": 103,
      "chip": "ym2612"
    },
    {
      "channel": 0,
      "note": 75,
      "start": 27.4618,
      "duration": 0.0161,
      "velocity": 127,
      "chip": "ym2612"
    },
    {
      "channel": 5,
      "note": 80,
      "start": 27.463,
      "duration": 0.0161,
      "velocity": 102,
      "chip": "ym2612"
    },
    {
      "channel": 2,
      "note": 52,
      "start": 27.4667,
      "duration": 0.0161,
      "velocity": 93,
      "chip": "ym2612"
    },
    {
      "channel": 1,
      "note": 79,
      "start": 27.4684,
      "duration": 0.0158,
      "velocity": 103,
      "chip": "ym2612"
    },
    {
      "channel": 0,
      "note": 73,
      "start": 27.478,
      "duration": 0.0161,
      "velocity": 127,
      "chip": "ym2612"
    },
    {
      "channel": 5,
      "note": 80,
      "start": 27.4791,
      "duration": 0.0161,
      "velocity": 102,
      "chip": "ym2612"
    },
    {
      "channel": 2,
      "note": 52,
      "start": 27.4828,
      "duration": 0.0162,
      "velocity": 93,
      "chip": "ym2612"
    },
    {
      "channel": 1,
      "note": 79,
      "start": 27.4842,
      "duration": 0.0159,
      "velocity": 103,
      "chip": "ym2612"
    },
    {
      "channel": 0,
      "note": 71,
      "start": 27.4941,
      "duration": 0.0161,
      "velocity": 127,
      "chip": "ym2612"
    },
    {
      "channel": 2,
      "note": 52,
      "start": 27.499,
      "duration": 0.016,
      "velocity": 93,
      "chip": "ym2612"
    },
    {
      "channel": 0,
      "note": 70,
      "start": 27.5102,
      "duration": 0.0179,
      "velocity": 127,
      "chip": "ym2612"
    },
    {
      "channel": 2,
      "note": 52,
      "start": 27.515,
      "duration": 0.0183,
      "velocity": 93,
      "chip": "ym2612"
    },
    {
      "channel": 0,
      "note": 84,
      "start": 27.5281,
      "duration": 0.0143,
      "velocity": 127,
      "chip": "ym2612"
    },
    {
      "channel": 5,
      "note": 79,
      "start": 27.5296,
      "duration": 0.014,
      "velocity": 102,
      "chip": "ym2612"
    },
    {
      "channel": 2,
      "note": 52,
      "start": 27.5333,
      "duration": 0.0141,
      "velocity": 93,
      "chip": "ym2612"
    },
    {
      "channel": 1,
      "note": 78,
      "start": 27.5353,
      "duration": 0.0133,
      "velocity": 103,
      "chip": "ym2612"
    },
    {
      "channel": 0,
      "note": 82,
      "start": 27.5424,
      "duration": 0.016,
      "velocity": 127,
      "chip": "ym2612"
    },
    {
      "channel": 5,
      "note": 79,
      "start": 27.5436,
      "duration": 0.016,
      "velocity": 102,
      "chip": "ym2612"
    },
    {
      "channel": 2,
      "note": 52,
      "start": 27.5474,
      "duration": 0.016,
      "velocity": 93,
      "chip": "ym2612"
    },
    {
      "channel": 1,
      "note": 78,
      "start": 27.5486,
      "duration": 0.0159,
      "velocity": 103,
      "chip": "ym2612"
    },
    {
      "channel": 0,
      "note": 81,
      "start": 27.5584,
      "duration": 0.0161,
      "velocity": 127,
      "chip": "ym2612"
    },
    {
      "channel": 5,
      "note": 79,
      "start": 27.5596,
      "duration": 0.0161,
      "velocity": 102,
      "chip": "ym2612"
    },
    {
      "channel": 2,
      "note": 52,
      "start": 27.5633,
      "duration": 0.0161,
      "velocity": 93,
      "chip": "ym2612"
    },
    {
      "channel": 1,
      "note": 78,
      "start": 27.5645,
      "duration": 0.0161,
      "velocity": 103,
      "chip": "ym2612"
    },
    {
      "channel": 0,
      "note": 79,
      "start": 27.5745,
      "duration": 0.0161,
      "velocity": 127,
      "chip": "ym2612"
    },
    {
      "channel": 5,
      "note": 79,
      "start": 27.5757,
      "duration": 0.0161,
      "velocity": 102,
      "chip": "ym2612"
    },
    {
      "channel": 2,
      "note": 52,
      "start": 27.5794,
      "duration": 0.0161,
      "velocity": 93,
      "chip": "ym2612"
    },
    {
      "channel": 1,
      "note": 78,
      "start": 27.5806,
      "duration": 0.0162,
      "velocity": 103,
      "chip": "ym2612"
    },
    {
      "channel": 0,
      "note": 77,
      "start": 27.5906,
      "duration": 0.0161,
      "velocity": 127,
      "chip": "ym2612"
    },
    {
      "channel": 2,
      "note": 52,
      "start": 27.5955,
      "duration": 0.0161,
      "velocity": 93,
      "chip": "ym2612"
    },
    {
      "channel": 1,
      "note": 78,
      "start": 27.5967,
      "duration": 0.016,
      "velocity": 103,
      "chip": "ym2612"
    },
    {
      "channel": 0,
      "note": 76,
      "start": 27.6067,
      "duration": 0.018,
      "velocity": 127,
      "chip": "ym2612"
    },
    {
      "channel": 2,
      "note": 52,
      "start": 27.6116,
      "duration": 0.0183,
      "velocity": 93,
      "chip": "ym2612"
    },
    {
      "channel": 1,
      "note": 78,
      "start": 27.6128,
      "duration": 0.0184,
      "velocity": 103,
      "chip": "ym2612"
    },
    {
      "channel": 0,
      "note": 78,
      "start": 27.6248,
      "duration": 0.0142,
      "velocity": 127,
      "chip": "ym2612"
    },
    {
      "channel": 5,
      "note": 78,
      "start": 27.6262,
      "duration": 0.014,
      "velocity": 102,
      "chip": "ym2612"
    },
    {
      "channel": 2,
      "note": 52,
      "start": 27.6299,
      "duration": 0.014,
      "velocity": 93,
      "chip": "ym2612"
    },
    {
      "channel": 1,
      "note": 78,
      "start": 27.6311,
      "duration": 0.014,
      "velocity": 103,
      "chip": "ym2612"
    },
    {
      "channel": 0,
      "note": 76,
      "start": 27.639,
      "duration": 0.016,
      "velocity": 127,
      "chip": "ym2612"
    },
    {
      "channel": 5,
      "note": 78,
      "start": 27.6402,
      "duration": 0.016,
      "velocity": 102,
      "chip": "ym2612"
    },
    {
      "channel": 2,
      "note": 52,
      "start": 27.6439,
      "duration": 0.016,
      "velocity": 93,
      "chip": "ym2612"
    },
    {
      "channel": 1,
      "note": 78,
      "start": 27.6451,
      "duration": 0.016,
      "velocity": 103,
      "chip": "ym2612"
    },
    {
      "channel": 0,
      "note": 75,
      "start": 27.6551,
      "duration": 0.0161,
      "velocity": 127,
      "chip": "ym2612"
    },
    {
      "channel": 5,
      "note": 78,
      "start": 27.6562,
      "duration": 0.0161,
      "velocity": 102,
      "chip": "ym2612"
    },
    {
      "channel": 2,
      "note": 52,
      "start": 27.66,
      "duration": 0.0161,
      "velocity": 93,
      "chip": "ym2612"
    },
    {
      "channel": 1,
      "note": 78,
      "start": 27.6611,
      "duration": 0.0161,
      "velocity": 103,
      "chip": "ym2612"
    },
    {
      "channel": 0,
      "note": 73,
      "start": 27.6712,
      "duration": 0.0161,
      "velocity": 127,
      "chip": "ym2612"
    },
    {
      "channel": 5,
      "note": 78,
      "start": 27.6723,
      "duration": 0.0162,
      "velocity": 102,
      "chip": "ym2612"
    },
    {
      "channel": 2,
      "note": 52,
      "start": 27.6761,
      "duration": 0.0161,
      "velocity": 93,
      "chip": "ym2612"
    },
    {
      "channel": 1,
      "note": 78,
      "start": 27.6772,
      "duration": 0.0162,
      "velocity": 103,
      "chip": "ym2612"
    },
    {
      "channel": 0,
      "note": 71,
      "start": 27.6873,
      "duration": 0.0162,
      "velocity": 127,
      "chip": "ym2612"
    },
    {
      "channel": 5,
      "note": 78,
      "start": 27.6885,
      "duration": 0.0162,
      "velocity": 102,
      "chip": "ym2612"
    },
    {
      "channel": 2,
      "note": 52,
      "start": 27.6922,
      "duration": 0.0162,
      "velocity": 93,
      "chip": "ym2612"
    },
    {
      "channel": 0,
      "note": 70,
      "start": 27.7035,
      "duration": 0.0181,
      "velocity": 115,
      "chip": "ym2612"
    },
    {
      "channel": 5,
      "note": 78,
      "start": 27.7047,
      "duration": 0.0182,
      "velocity": 102,
      "chip": "ym2612"
    },
    {
      "channel": 2,
      "note": 52,
      "start": 27.7084,
      "duration": 0.0181,
      "velocity": 93,
      "chip": "ym2612"
    },
    {
      "channel": 0,
      "note": 36,
      "start": 27.7217,
      "duration": 0.0145,
      "velocity": 115,
      "chip": "ym2612"
    },
    {
      "channel": 5,
      "note": 78,
      "start": 27.7229,
      "duration": 0.0145,
      "velocity": 102,
      "chip": "ym2612"
    },
    {
      "channel": 2,
      "note": 52,
      "start": 27.7266,
      "duration": 0.0146,
      "velocity": 93,
      "chip": "ym2612"
    },
    {
      "channel": 1,
      "note": 76,
      "start": 27.7281,
      "duration": 0.0142,
      "velocity": 103,
      "chip": "ym2612"
    },
    {
      "channel": 0,
      "note": 36,
      "start": 27.7362,
      "duration": 0.016,
      "velocity": 115,
      "chip": "ym2612"
    },
    {
      "channel": 5,
      "note": 78,
      "start": 27.7374,
      "duration": 0.016,
      "velocity": 102,
      "chip": "ym2612"
    },
    {
      "channel": 2,
      "note": 52,
      "start": 27.7411,
      "duration": 0.016,
      "velocity": 93,
      "chip": "ym2612"
    },
    {
      "channel": 1,
      "note": 76,
      "start": 27.7423,
      "duration": 0.016,
      "velocity": 103,
      "chip": "ym2612"
    },
    {
      "channel": 0,
      "note": 37,
      "start": 27.7523,
      "duration": 0.016,
      "velocity": 115,
      "chip": "ym2612"
    },
    {
      "channel": 5,
      "note": 78,
      "start": 27.7534,
      "duration": 0.0161,
      "velocity": 102,
      "chip": "ym2612"
    },
    {
      "channel": 2,
      "note": 52,
      "start": 27.7572,
      "duration": 0.0161,
      "velocity": 93,
      "chip": "ym2612"
    },
    {
      "channel": 1,
      "note": 76,
      "start": 27.7583,
      "duration": 0.0161,
      "velocity": 103,
      "chip": "ym2612"
    },
    {
      "channel": 0,
      "note": 37,
      "start": 27.7683,
      "duration": 0.0156,
      "velocity": 115,
      "chip": "ym2612"
    },
    {
      "channel": 5,
      "note": 78,
      "start": 27.7695,
      "duration": 0.0162,
      "velocity": 102,
      "chip": "ym2612"
    },
    {
      "channel": 2,
      "note": 52,
      "start": 27.7732,
      "duration": 0.0161,
      "velocity": 93,
      "chip": "ym2612"
    },
    {
      "channel": 1,
      "note": 76,
      "start": 27.7744,
      "duration": 0.0161,
      "velocity": 103,
      "chip": "ym2612"
    },
    {
      "channel": 0,
      "note": 38,
      "start": 27.7839,
      "duration": 0.0161,
      "velocity": 115,
      "chip": "ym2612"
    },
    {
      "channel": 2,
      "note": 52,
      "start": 27.7893,
      "duration": 0.0161,
      "velocity": 93,
      "chip": "ym2612"
    },
    {
      "channel": 1,
      "note": 76,
      "start": 27.7905,
      "duration": 0.0161,
      "velocity": 103,
      "chip": "ym2612"
    },
    {
      "channel": 0,
      "note": 38,
      "start": 27.8,
      "duration": 0.0184,
      "velocity": 115,
      "chip": "ym2612"
    },
    {
      "channel": 2,
      "note": 52,
      "start": 27.8054,
      "duration": 0.0203,
      "velocity": 93,
      "chip": "ym2612"
    },
    {
      "channel": 1,
      "note": 76,
      "start": 27.8066,
      "duration": 0.0204,
      "velocity": 103,
      "chip": "ym2612"
    },
    {
      "channel": 0,
      "note": 36,
      "start": 27.8184,
      "duration": 0.0138,
      "velocity": 115,
      "chip": "ym2612"
    },
    {
      "channel": 5,
      "note": 76,
      "start": 27.8201,
      "duration": 0.0134,
      "velocity": 102,
      "chip": "ym2612"
    },
    {
      "channel": 3,
      "note": 86,
      "start": 27.8243,
      "duration": 0.0123,
      "velocity": 86,
      "chip": "ym2612"
    },
    {
      "channel": 2,
      "note": 59,
      "start": 27.8258,
      "duration": 0.012,
      "velocity": 93,
      "chip": "ym2612"
    },
    {
      "channel": 1,
      "note": 76,
      "start": 27.827,
      "duration": 0.012,
      "velocity": 103,
      "chip": "ym2612"
    },
    {
      "channel": 0,
      "note": 36,
      "start": 27.8322,
      "duration": 0.016,
      "velocity": 115,
      "chip": "ym2612"
    },
    {
      "channel": 5,
      "note": 76,
      "start": 27.8335,
      "duration": 0.0159,
      "velocity": 102,
      "chip": "ym2612"
    },
    {
      "channel": 3,
      "note": 86,
      "start": 27.8366,
      "duration": 0.0158,
      "velocity": 86,
      "chip": "ym2612"
    },
    {
      "channel": 2,
      "note": 59,
      "start": 27.8378,
      "duration": 0.0159,
      "velocity": 93,
      "chip": "ym2612"
    },
    {
      "channel": 1,
      "note": 76,
      "start": 27.839,
      "duration": 0.0159,
      "velocity": 103,
      "chip": "ym2612"
    },
    {
      "channel": 0,
      "note": 37,
      "start": 27.8483,
      "duration": 0.0161,
      "velocity": 115,
      "chip": "ym2612"
    },
    {
      "channel": 5,
      "note": 76,
      "start": 27.8494,
      "duration": 0.0162,
      "velocity": 102,
      "chip": "ym2612"
    },
    {
      "channel": 3,
      "note": 86,
      "start": 27.8524,
      "duration": 0.0179,
      "velocity": 86,
      "chip": "ym2612"
    },
    {
      "channel": 2,
      "note": 59,
      "start": 27.8536,
      "duration": 0.0179,
      "velocity": 93,
      "chip": "ym2612"
    },
    {
      "channel": 1,
      "note": 76,
      "start": 27.8548,
      "duration": 0.0178,
      "velocity": 103,
      "chip": "ym2612"
    },
    {
      "channel": 0,
      "note": 37,
      "start": 27.8644,
      "duration": 0.0161,
      "velocity": 115,
      "chip": "ym2612"
    },
    {
      "channel": 5,
      "note": 76,
      "start": 27.8656,
      "duration": 0.0161,
      "velocity": 102,
      "chip": "ym2612"
    },
    {
      "channel": 4,
      "note": 86,
      "start": 27.8692,
      "duration": 0.0137,
      "velocity": 86,
      "chip": "ym2612"
    },
    {
      "channel": 3,
      "note": 86,
      "start": 27.8703,
      "duration": 0.0139,
      "velocity": 86,
      "chip": "ym2612"
    },
    {
      "channel": 2,
      "note": 59,
      "start": 27.8715,
      "duration": 0.0143,
      "velocity": 93,
      "chip": "ym2612"
    },
    {
      "channel": 1,
      "note": 76,
      "start": 27.8726,
      "duration": 0.0143,
      "velocity": 103,
      "chip": "ym2612"
    },
    {
      "channel": 0,
      "note": 38,
      "start": 27.8804,
      "duration": 0.0162,
      "velocity": 115,
      "chip": "ym2612"
    },
    {
      "channel": 5,
      "note": 76,
      "start": 27.8817,
      "duration": 0.0161,
      "velocity": 102,
      "chip": "ym2612"
    },
    {
      "channel": 4,
      "note": 86,
      "start": 27.8829,
      "duration": 0.016,
      "velocity": 86,
      "chip": "ym2612"
    },
    {
      "channel": 3,
      "note": 86,
      "start": 27.8843,
      "duration": 0.0158,
      "velocity": 86,
      "chip": "ym2612"
    },
    {
      "channel": 2,
      "note": 59,
      "start": 27.8858,
      "duration": 0.016,
      "velocity": 93,
      "chip": "ym2612"
    },
    {
      "channel": 0,
      "note": 38,
      "start": 27.8966,
      "duration": 0.0161,
      "velocity": 115,
      "chip": "ym2612"
    },
    {
      "channel": 5,
      "note": 76,
      "start": 27.8978,
      "duration": 0.0161,
      "velocity": 102,
      "chip": "ym2612"
    },
    {
      "channel": 4,
      "note": 86,
      "start": 27.8989,
      "duration": 0.0162,
      "velocity": 86,
      "chip": "ym2612"
    },
    {
      "channel": 3,
      "note": 86,
      "start": 27.9,
      "duration": 0.0162,
      "velocity": 86,
      "chip": "ym2612"
    },
    {
      "channel": 2,
      "note": 59,
      "start": 27.9017,
      "duration": 0.0159,
      "velocity": 93,
      "chip": "ym2612"
    },
    {
      "channel": 0,
      "note": 39,
      "start": 27.9127,
      "duration": 0.0161,
      "velocity": 115,
      "chip": "ym2612"
    },
    {
      "channel": 5,
      "note": 76,
      "start": 27.9139,
      "duration": 0.0161,
      "velocity": 102,
      "chip": "ym2612"
    },
    {
      "channel": 4,
      "note": 86,
      "start": 27.9151,
      "duration": 0.016,
      "velocity": 86,
      "chip": "ym2612"
    },
    {
      "channel": 3,
      "note": 86,
      "start": 27.9163,
      "duration": 0.0161,
      "velocity": 86,
      "chip": "ym2612"
    },
    {
      "channel": 2,
      "note": 59,
      "start": 27.9177,
      "duration": 0.0158,
      "velocity": 93,
      "chip": "ym2612"
    },
    {
      "channel": 0,
      "note": 39,
      "start": 27.9288,
      "duration": 0.0161,
      "velocity": 115,
      "chip": "ym2612"
    },
    {
      "channel": 5,
      "note": 76,
      "start": 27.93,
      "duration": 0.016,
      "velocity": 102,
      "chip": "ym2612"
    },
    {
      "channel": 4,
      "note": 86,
      "start": 27.9311,
      "duration": 0.0161,
      "velocity": 86,
      "chip": "ym2612"
    },
    {
      "channel": 3,
      "note": 86,
      "start": 27.9324,
      "duration": 0.016,
      "velocity": 86,
      "chip": "ym2612"
    },
    {
      "channel": 2,
      "note": 59,
      "start": 27.9335,
      "duration": 0.0161,
      "velocity": 93,
      "chip": "ym2612"
    },
    {
      "channel": 0,
      "note": 40,
      "start": 27.9449,
      "duration": 0.0161,
      "velocity": 115,
      "chip": "ym2612"
    },
    {
      "channel": 5,
      "note": 76,
      "start": 27.946,
      "duration": 0.0161,
      "velocity": 102,
      "chip": "ym2612"
    },
    {
      "channel": 4,
      "note": 86,
      "start": 27.9472,
      "duration": 0.0161,
      "velocity": 86,
      "chip": "ym2612"
    },
    {
      "channel": 3,
      "note": 86,
      "start": 27.9484,
      "duration": 0.0161,
      "velocity": 86,
      "chip": "ym2612"
    },
    {
      "channel": 2,
      "note": 59,
      "start": 27.9496,
      "duration": 0.0161,
      "velocity": 93,
      "chip": "ym2612"
    },
    {
      "channel": 0,
      "note": 40,
      "start": 27.961,
      "duration": 0.0161,
      "velocity": 115,
      "chip": "ym2612"
    },
    {
      "channel": 5,
      "note": 76,
      "start": 27.9621,
      "duration": 0.0161,
      "velocity": 102,
      "chip": "ym2612"
    },
    {
      "channel": 4,
      "note": 86,
      "start": 27.9633,
      "duration": 0.0161,
      "velocity": 86,
      "chip": "ym2612"
    },
    {
      "channel": 3,
      "note": 86,
      "start": 27.9645,
      "duration": 0.0162,
      "velocity": 86,
      "chip": "ym2612"
    },
    {
      "channel": 2,
      "note": 59,
      "start": 27.9657,
      "duration": 0.0161,
      "velocity": 93,
      "chip": "ym2612"
    },
    {
      "channel": 0,
      "note": 40,
      "start": 27.9771,
      "duration": 0.0161,
      "velocity": 115,
      "chip": "ym2612"
    },
    {
      "channel": 4,
      "note": 86,
      "start": 27.9794,
      "duration": 0.0161,
      "velocity": 86,
      "chip": "ym2612"
    },
    {
      "channel": 3,
      "note": 86,
      "start": 27.9806,
      "duration": 0.0161,
      "velocity": 86,
      "chip": "ym2612"
    },
    {
      "channel": 2,
      "note": 59,
      "start": 27.9818,
      "duration": 0.0161,
      "velocity": 93,
      "chip": "ym2612"
    },
    {
      "channel": 0,
      "note": 41,
      "start": 27.9932,
      "duration": 0.0161,
      "velocity": 115,
      "chip": "ym2612"
    },
    {
      "channel": 4,
      "note": 86,
      "start": 27.9955,
      "duration": 0.0163,
      "velocity": 86,
      "chip": "ym2612"
    },
    {
      "channel": 2,
      "note": 59,
      "start": 27.9979,
      "duration": 0.0165,
      "velocity": 93,
      "chip": "ym2612"
    },
    {
      "channel": 0,
      "note": 41,
      "start": 28.0093,
      "duration": 0.0161,
      "velocity": 115,
      "chip": "ym2612"
    },
    {
      "channel": 4,
      "note": 86,
      "start": 28.0118,
      "duration": 0.016,
      "velocity": 86,
      "chip": "ym2612"
    },
    {
      "channel": 3,
      "note": 78,
      "start": 28.0133,
      "duration": 0.0158,
      "velocity": 86,
      "chip": "ym2612"
    },
    {
      "channel": 2,
      "note": 59,
      "start": 28.0144,
      "duration": 0.0158,
      "velocity": 93,
      "chip": "ym2612"
    },
    {
      "channel": 0,
      "note": 42,
      "start": 28.0254,
      "duration": 0.0162,
      "velocity": 115,
      "chip": "ym2612"
    },
    {
      "channel": 4,
      "note": 86,
      "start": 28.0278,
      "duration": 0.0161,
      "velocity": 86,
      "chip": "ym2612"
    },
    {
      "channel": 3,
      "note": 78,
      "start": 28.029,
      "duration": 0.016,
      "velocity": 86,
      "chip": "ym2612"
    },
    {
      "channel": 2,
      "note": 59,
      "start": 28.0302,
      "duration": 0.0161,
      "velocity": 93,
      "chip": "ym2612"
    },
    {
      "channel": 0,
      "note": 42,
      "start": 28.0415,
      "duration": 0.0161,
      "velocity": 115,
      "chip": "ym2612"
    },
    {
      "channel": 3,
      "note": 78,
      "start": 28.0451,
      "duration": 0.0164,
      "velocity": 86,
      "chip": "ym2612"
    },
    {
      "channel": 2,
      "note": 59,
      "start": 28.0463,
      "duration": 0.0163,
      "velocity": 93,
      "chip": "ym2612"
    },
    {
      "channel": 0,
      "note": 43,
      "start": 28.0576,
      "duration": 0.0161,
      "velocity": 115,
      "chip": "ym2612"
    },
    {
      "channel": 4,
      "note": 78,
      "start": 28.0603,
      "duration": 0.0159,
      "velocity": 86,
      "chip": "ym2612"
    },
    {
      "channel": 3,
      "note": 78,
      "start": 28.0615,
      "duration": 0.0159,
      "velocity": 86,
      "chip": "ym2612"
    },
    {
      "channel": 2,
      "note": 59,
      "start": 28.0626,
      "duration": 0.0159,
      "velocity": 93,
      "chip": "ym2612"
    },
    {
      "channel": 0,
      "note": 43,
      "start": 28.0737,
      "duration": 0.0161,
      "velocity": 115,
      "chip": "ym2612"
    },
    {
      "channel": 4,
      "note": 78,
      "start": 28.0762,
      "duration": 0.016,
      "velocity": 86,
      "chip": "ym2612"
    },
    {
      "channel": 3,
      "note": 78,
      "start": 28.0773,
      "duration": 0.016,
      "velocity": 86,
      "chip": "ym2612"
    },
    {
      "channel": 2,
      "note": 59,
      "start": 28.0785,
      "duration": 0.0161,
      "velocity": 93,
      "chip": "ym2612"
    },
    {
      "channel": 0,
      "note": 44,
      "start": 28.0898,
      "duration": 0.0179,
      "velocity": 124,
      "chip": "ym2612"
    },
    {
      "channel": 4,
      "note": 78,
      "start": 28.0922,
      "duration": 0.018,
      "velocity": 86,
      "chip": "ym2612"
    },
    {
      "channel": 2,
      "note": 59,
      "start": 28.0946,
      "duration": 0.0184,
      "velocity": 93,
      "chip": "ym2612"
    },
    {
      "channel": 0,
      "note": 84,
      "start": 28.1077,
      "duration": 0.0143,
      "velocity": 124,
      "chip": "ym2612"
    },
    {
      "channel": 4,
      "note": 78,
      "start": 28.1102,
      "duration": 0.0143,
      "velocity": 86,
      "chip": "ym2612"
    },
    {
      "channel": 3,
      "note": 81,
      "start": 28.1116,
      "duration": 0.0141,
      "velocity": 86,
      "chip": "ym2612"
    },
    {
      "channel": 2,
      "note": 59,
      "start": 28.1131,
      "duration": 0.0139,
      "velocity": 93,
      "chip": "ym2612"
    },
    {
      "channel": 1,
      "note": 74,
      "start": 28.1159,
      "duration": 0.0122,
      "velocity": 98,
      "chip": "ym2612"
    },
    {
      "channel": 0,
      "note": 82,
      "start": 28.122,
      "duration": 0.016,
      "velocity": 124,
      "chip": "ym2612"
    },
    {
      "channel": 4,
      "note": 78,
      "start": 28.1245,
      "duration": 0.0161,
      "velocity": 86,
      "chip": "ym2612"
    },
    {
      "channel": 3,
      "note": 81,
      "start": 28.1257,
      "duration": 0.016,
      "velocity": 86,
      "chip": "ym2612"
    },
    {
      "channel": 2,
      "note": 59,
      "start": 28.1269,
      "duration": 0.0159,
      "velocity": 93,
      "chip": "ym2612"
    },
    {
      "channel": 1,
      "note": 74,
      "start": 28.1281,
      "duration": 0.0159,
      "velocity": 98,
      "chip": "ym2612"
    },
    {
      "channel": 0,
      "note": 80,
      "start": 28.1381,
      "duration": 0.0161,
      "velocity": 124,
      "chip": "ym2612"
    },
    {
      "channel": 3,
      "note": 81,
      "start": 28.1417,
      "duration": 0.0164,
      "velocity": 86,
      "chip": "ym2612"
    },
    {
      "channel": 2,
      "note": 59,
      "start": 28.1429,
      "duration": 0.0164,
      "velocity": 93,
      "chip": "ym2612"
    },
    {
      "channel": 1,
      "note": 74,
      "start": 28.1441,
      "duration": 0.0163,
      "velocity": 98,
      "chip": "ym2612"
    },
    {
      "channel": 0,
      "note": 77,
      "start": 28.1542,
      "duration": 0.0161,
      "velocity": 124,
      "chip": "ym2612"
    },
    {
      "channel": 4,
      "note": 81,
      "start": 28.1569,
      "duration": 0.0159,
      "velocity": 86,
      "chip": "ym2612"
    },
    {
      "channel": 3,
      "note": 81,
      "start": 28.1581,
      "duration": 0.0159,
      "velocity": 86,
      "chip": "ym2612"
    },
    {
      "channel": 2,
      "note": 59,
      "start": 28.1593,
      "duration": 0.0159,
      "velocity": 93,
      "chip": "ym2612"
    },
    {
      "channel": 1,
      "note": 74,
      "start": 28.1604,
      "duration": 0.0159,
      "velocity": 98,
      "chip": "ym2612"
    },
    {
      "channel": 0,
      "note": 75,
      "start": 28.1703,
      "duration": 0.0164,
      "velocity": 124,
      "chip": "ym2612"
    },
    {
      "channel": 4,
      "note": 81,
      "start": 28.1728,
      "duration": 0.0163,
      "velocity": 86,
      "chip": "ym2612"
    },
    {
      "channel": 3,
      "note": 81,
      "start": 28.174,
      "duration": 0.0163,
      "velocity": 86,
      "chip": "ym2612"
    },
    {
      "channel": 2,
      "note": 59,
      "start": 28.1752,
      "duration": 0.0163,
      "velocity": 93,
      "chip": "ym2612"
    },
    {
      "channel": 1,
      "note": 74,
      "start": 28.1763,
      "duration": 0.0163,
      "velocity": 98,
      "chip": "ym2612"
    },
    {
      "channel": 0,
      "note": 72,
      "start": 28.1867,
      "duration": 0.0163,
      "velocity": 124,
      "chip": "ym2612"
    },
    {
      "channel": 4,
      "note": 81,
      "start": 28.1892,
      "duration": 0.0163,
      "velocity": 86,
      "chip": "ym2612"
    },
    {
      "channel": 3,
      "note": 81,
      "start": 28.1903,
      "duration": 0.0163,
      "velocity": 86,
      "chip": "ym2612"
    },
    {
      "channel": 2,
      "note": 59,
      "start": 28.1915,
      "duration": 0.0163,
      "velocity": 93,
      "chip": "ym2612"
    },
    {
      "channel": 1,
      "note": 74,
      "start": 28.1927,
      "duration": 0.0163,
      "velocity": 98,
      "chip": "ym2612"
    },
    {
      "channel": 0,
      "note": 70,
      "start": 28.203,
      "duration": 0.0162,
      "velocity": 124,
      "chip": "ym2612"
    },
    {
      "channel": 4,
      "note": 81,
      "start": 28.2054,
      "duration": 0.0162,
      "velocity": 86,
      "chip": "ym2612"
    },
    {
      "channel": 3,
      "note": 81,
      "start": 28.2066,
      "duration": 0.0162,
      "velocity": 86,
      "chip": "ym2612"
    },
    {
      "channel": 2,
      "note": 59,
      "start": 28.2078,
      "duration": 0.0161,
      "velocity": 93,
      "chip": "ym2612"
    },
    {
      "channel": 1,
      "note": 74,
      "start": 28.2089,
      "duration": 0.0162,
      "velocity": 98,
      "chip": "ym2612"
    },
    {
      "channel": 0,
      "note": 68,
      "start": 28.2192,
      "duration": 0.0161,
      "velocity": 124,
      "chip": "ym2612"
    },
    {
      "channel": 4,
      "note": 81,
      "start": 28.2216,
      "duration": 0.0161,
      "velocity": 86,
      "chip": "ym2612"
    },
    {
      "channel": 3,
      "note": 81,
      "start": 28.2228,
      "duration": 0.0161,
      "velocity": 86,
      "chip": "ym2612"
    },
    {
      "channel": 2,
      "note": 59,
      "start": 28.2239,
      "duration": 0.0161,
      "velocity": 93,
      "chip": "ym2612"
    },
    {
      "channel": 1,
      "note": 74,
      "start": 28.2251,
      "duration": 0.0161,
      "velocity": 98,
      "chip": "ym2612"
    },
    {
      "channel": 0,
      "note": 65,
      "start": 28.2353,
      "duration": 0.0157,
      "velocity": 124,
      "chip": "ym2612"
    },
    {
      "channel": 4,
      "note": 81,
      "start": 28.2377,
      "duration": 0.0161,
      "velocity": 86,
      "chip": "ym2612"
    },
    {
      "channel": 3,
      "note": 81,
      "start": 28.2389,
      "duration": 0.0161,
      "velocity": 86,
      "chip": "ym2612"
    },
    {
      "channel": 2,
      "note": 59,
      "start": 28.24,
      "duration": 0.0162,
      "velocity": 93,
      "chip": "ym2612"
    },
    {
      "channel": 1,
      "note": 74,
      "start": 28.2412,
      "duration": 0.0162,
      "velocity": 98,
      "chip": "ym2612"
    },
    {
      "channel": 0,
      "note": 63,
      "start": 28.251,
      "duration": 0.0151,
      "velocity": 1,
      "chip": "ym2612"
    },
    {
      "channel": 4,
      "note": 81,
      "start": 28.2538,
      "duration": 0.0153,
      "velocity": 86,
      "chip": "ym2612"
    },
    {
      "channel": 3,
      "note": 81,
      "start": 28.255,
      "duration": 0.0153,
      "velocity": 86,
      "chip": "ym2612"
    },
    {
      "channel": 2,
      "note": 59,
      "start": 28.2563,
      "duration": 0.0152,
      "velocity": 93,
      "chip": "ym2612"
    },
    {
      "channel": 1,
      "note": 74,
      "start": 28.2574,
      "duration": 0.0153,
      "velocity": 98,
      "chip": "ym2612"
    },
    {
      "channel": 4,
      "note": 81,
      "start": 28.2691,
      "duration": 0.0149,
      "velocity": 86,
      "chip": "ym2612"
    },
    {
      "channel": 3,
      "note": 81,
      "start": 28.2703,
      "duration": 0.0153,
      "velocity": 86,
      "chip": "ym2612"
    },
    {
      "channel": 2,
      "note": 59,
      "start": 28.2715,
      "duration": 0.0153,
      "velocity": 93,
      "chip": "ym2612"
    },
    {
      "channel": 1,
      "note": 74,
      "start": 28.2727,
      "duration": 0.0153,
      "velocity": 98,
      "chip": "ym2612"
    },
    {
      "channel": 4,
      "note": 81,
      "start": 28.284,
      "duration": 0.0158,
      "velocity": 86,
      "chip": "ym2612"
    },
    {
      "channel": 2,
      "note": 59,
      "start": 28.2868,
      "duration": 0.0163,
      "velocity": 93,
      "chip": "ym2612"
    },
    {
      "channel": 1,
      "note": 74,
      "start": 28.288,
      "duration": 0.0163,
      "velocity": 98,
      "chip": "ym2612"
    },
    {
      "channel": 4,
      "note": 81,
      "start": 28.2998,
      "duration": 0.0161,
      "velocity": 86,
      "chip": "ym2612"
    },
    {
      "channel": 3,
      "note": 86,
      "start": 28.302,
      "duration": 0.0154,
      "velocity": 86,
      "chip": "ym2612"
    },
    {
      "channel": 2,
      "note": 59,
      "start": 28.3031,
      "duration": 0.0159,
      "velocity": 93,
      "chip": "ym2612"
    },
    {
      "channel": 1,
      "note": 74,
      "start": 28.3043,
      "duration": 0.0158,
      "velocity": 98,
      "chip": "ym2612"
    },
    {
      "channel": 4,
      "note": 81,
      "start": 28.3159,
      "duration": 0.0161,
      "velocity": 86,
      "chip": "ym2612"
    },
    {
      "channel": 3,
      "note": 86,
      "start": 28.3174,
      "duration": 0.0159,
      "velocity": 86,
      "chip": "ym2612"
    },
    {
      "channel": 2,
      "note": 59,
      "start": 28.3189,
      "duration": 0.016,
      "velocity": 93,
      "chip": "ym2612"
    },
    {
      "channel": 1,
      "note": 74,
      "start": 28.3201,
      "duration": 0.0161,
      "velocity": 98,
      "chip": "ym2612"
    },
    {
      "channel": 3,
      "note": 86,
      "start": 28.3332,
      "duration": 0.0164,
      "velocity": 86,
      "chip": "ym2612"
    },
    {
      "channel": 2,
      "note": 59,
      "start": 28.335,
      "duration": 0.0164,
      "velocity": 93,
      "chip": "ym2612"
    },
    {
      "channel": 1,
      "note": 74,
      "start": 28.3362,
      "duration": 0.0164,
      "velocity": 98,
      "chip": "ym2612"
    },
    {
      "channel": 4,
      "note": 86,
      "start": 28.3485,
      "duration": 0.0158,
      "velocity": 86,
      "chip": "ym2612"
    },
    {
      "channel": 3,
      "note": 86,
      "start": 28.3497,
      "duration": 0.0158,
      "velocity": 86,
      "chip": "ym2612"
    },
    {
      "channel": 2,
      "note": 59,
      "start": 28.3514,
      "duration": 0.0154,
      "velocity": 93,
      "chip": "ym2612"
    },
    {
      "channel": 1,
      "note": 74,
      "start": 28.3526,
      "duration": 0.0158,
      "velocity": 98,
      "chip": "ym2612"
    },
    {
      "channel": 4,
      "note": 86,
      "start": 28.3643,
      "duration": 0.0161,
      "velocity": 86,
      "chip": "ym2612"
    },
    {
      "channel": 3,
      "note": 86,
      "start": 28.3654,
      "duration": 0.0161,
      "velocity": 86,
      "chip": "ym2612"
    },
    {
      "channel": 2,
      "note": 59,
      "start": 28.3667,
      "duration": 0.0161,
      "velocity": 93,
      "chip": "ym2612"
    },
    {
      "channel": 1,
      "note": 74,
      "start": 28.3683,
      "duration": 0.0158,
      "velocity": 98,
      "chip": "ym2612"
    },
    {
      "channel": 4,
      "note": 86,
      "start": 28.3804,
      "duration": 0.0196,
      "velocity": 86,
      "chip": "ym2612"
    },
    {
      "channel": 3,
      "note": 86,
      "start": 28.3815,
      "duration": 0.0202,
      "velocity": 86,
      "chip": "ym2612"
    },
    {
      "channel": 2,
      "note": 59,
      "start": 28.3828,
      "duration": 0.0204,
      "velocity": 93,
      "chip": "ym2612"
    },
    {
      "channel": 0,
      "note": 36,
      "start": 28.3976,
      "duration": 0.0143,
      "velocity": 115,
      "chip": "ym2612"
    },
    {
      "channel": 4,
      "note": 86,
      "start": 28.4,
      "duration": 0.0143,
      "velocity": 86,
      "chip": "ym2612"
    },
    {
      "channel": 3,
      "note": 86,
      "start": 28.4017,
      "duration": 0.0138,
      "velocity": 86,
      "chip": "ym2612"
    },
    {
      "channel": 2,
      "note": 59,
      "start": 28.4032,
      "duration": 0.0135,
      "velocity": 93,
      "chip": "ym2612"
    },
    {
      "channel": 1,
      "note": 78,
      "start": 28.4047,
      "duration": 0.0138,
      "velocity": 98,
      "chip": "ym2612"
    },
    {
      "channel": 0,
      "note": 36,
      "start": 28.4119,
      "duration": 0.016,
      "velocity": 115,
      "chip": "ym2612"
    },
    {
      "channel": 4,
      "note": 86,
      "start": 28.4143,
      "duration": 0.0178,
      "velocity": 86,
      "chip": "ym2612"
    },
    {
      "channel": 3,
      "note": 86,
      "start": 28.4155,
      "duration": 0.0178,
      "velocity": 86,
      "chip": "ym2612"
    },
    {
      "channel": 2,
      "note": 59,
      "start": 28.4167,
      "duration": 0.0183,
      "velocity": 93,
      "chip": "ym2612"
    },
    {
      "channel": 1,
      "note": 78,
      "start": 28.4185,
      "duration": 0.0177,
      "velocity": 98,
      "chip": "ym2612"
    },
    {
      "channel": 0,
      "note": 37,
      "start": 28.4279,
      "duration": 0.0161,
      "velocity": 115,
      "chip": "ym2612"
    },
    {
      "channel": 5,
      "note": 74,
      "start": 28.4309,
      "duration": 0.0144,
      "velocity": 98,
      "chip": "ym2612"
    },
    {
      "channel": 4,
      "note": 86,
      "start": 28.4321,
      "duration": 0.0143,
      "velocity": 86,
      "chip": "ym2612"
    },
    {
      "channel": 3,
      "note": 86,
      "start": 28.4332,
      "duration": 0.0144,
      "velocity": 86,
      "chip": "ym2612"
    },
    {
      "channel": 2,
      "note": 59,
      "start": 28.435,
      "duration": 0.0138,
      "velocity": 93,
      "chip": "ym2612"
    },
    {
      "channel": 1,
      "note": 78,
      "start": 28.4362,
      "duration": 0.0138,
      "velocity": 98,
      "chip": "ym2612"
    },
    {
      "channel": 0,
      "note": 37,
      "start": 28.444,
      "duration": 0.0161,
      "velocity": 115,
      "chip": "ym2612"
    },
    {
      "channel": 5,
      "note": 74,
      "start": 28.4453,
      "duration": 0.016,
      "velocity": 98,
      "chip": "ym2612"
    },
    {
      "channel": 4,
      "note": 86,
      "start": 28.4464,
      "duration": 0.016,
      "velocity": 86,
      "chip": "ym2612"
    },
    {
      "channel": 3,
      "note": 86,
      "start": 28.4476,
      "duration": 0.016,
      "velocity": 86,
      "chip": "ym2612"
    },
    {
      "channel": 2,
      "note": 59,
      "start": 28.4488,
      "duration": 0.016,
      "velocity": 93,
      "chip": "ym2612"
    },
    {
      "channel": 1,
      "note": 78,
      "start": 28.45,
      "duration": 0.016,
      "velocity": 98,
      "chip": "ym2612"
    },
    {
      "channel": 0,
      "note": 38,
      "start": 28.4601,
      "duration": 0.0161,
      "velocity": 115,
      "chip": "ym2612"
    },
    {
      "channel": 5,
      "note": 74,
      "start": 28.4613,
      "duration": 0.0161,
      "velocity": 98,
      "chip": "ym2612"
    },
    {
      "channel": 4,
      "note": 86,
      "start": 28.4624,
      "duration": 0.0161,
      "velocity": 86,
      "chip": "ym2612"
    },
    {
      "channel": 3,
      "note": 86,
      "start": 28.4637,
      "duration": 0.0161,
      "velocity": 86,
      "chip": "ym2612"
    },
    {
      "channel": 2,
      "note": 59,
      "start": 28.4648,
      "duration": 0.0161,
      "velocity": 93,
      "chip": "ym2612"
    },
    {
      "channel": 1,
      "note": 78,
      "start": 28.466,
      "duration": 0.0161,
      "velocity": 98,
      "chip": "ym2612"
    },
    {
      "channel": 0,
      "note": 38,
      "start": 28.4762,
      "duration": 0.0161,
      "velocity": 115,
      "chip": "ym2612"
    },
    {
      "channel": 5,
      "note": 74,
      "start": 28.4774,
      "duration": 0.0161,
      "velocity": 98,
      "chip": "ym2612"
    },
    {
      "channel": 4,
      "note": 86,
      "start": 28.4785,
      "duration": 0.0161,
      "velocity": 86,
      "chip": "ym2612"
    },
    {
      "channel": 3,
      "note": 86,
      "start": 28.4798,
      "duration": 0.0161,
      "velocity": 86,
      "chip": "ym2612"
    },
    {
      "channel": 2,
      "note": 59,
      "start": 28.4809,
      "duration": 0.0161,
      "velocity": 93,
      "chip": "ym2612"
    },
    {
      "channel": 1,
      "note": 78,
      "start": 28.4821,
      "duration": 0.0161,
      "velocity": 98,
      "chip": "ym2612"
    },
    {
      "channel": 0,
      "note": 39,
      "start": 28.4923,
      "duration": 0.0161,
      "velocity": 115,
      "chip": "ym2612"
    },
    {
      "channel": 5,
      "note": 74,
      "start": 28.4935,
      "duration": 0.0161,
      "velocity": 98,
      "chip": "ym2612"
    },
    {
      "channel": 4,
      "note": 86,
      "start": 28.4946,
      "duration": 0.0162,
      "velocity": 86,
      "chip": "ym2612"
    },
    {
      "channel": 3,
      "note": 86,
      "start": 28.4958,
      "duration": 0.0161,
      "velocity": 86,
      "chip": "ym2612"
    },
    {
      "channel": 2,
      "note": 59,
      "start": 28.497,
      "duration": 0.0161,
      "velocity": 93,
      "chip": "ym2612"
    },
    {
      "channel": 1,
      "note": 78,
      "start": 28.4982,
      "duration": 0.0161,
      "velocity": 98,
      "chip": "ym2612"
    },
    {
      "channel": 0,
      "note": 39,
      "start": 28.5084,
      "duration": 0.0161,
      "velocity": 115,
      "chip": "ym2612"
    },
    {
      "channel": 5,
      "note": 74,
      "start": 28.5096,
      "duration": 0.0161,
      "velocity": 98,
      "chip": "ym2612"
    },
    {
      "channel": 4,
      "note": 86,
      "start": 28.5108,
      "duration": 0.0161,
      "velocity": 86,
      "chip": "ym2612"
    },
    {
      "channel": 3,
      "note": 86,
      "start": 28.5119,
      "duration": 0.0161,
      "velocity": 86,
      "chip": "ym2612"
    },
    {
      "channel": 2,
      "note": 59,
      "start": 28.5131,
      "duration": 0.0161,
      "velocity": 93,
      "chip": "ym2612"
    },
    {
      "channel": 1,
      "note": 78,
      "start": 28.5143,
      "duration": 0.0161,
      "velocity": 98,
      "chip": "ym2612"
    },
    {
      "channel": 0,
      "note": 40,
      "start": 28.5245,
      "duration": 0.0161,
      "velocity": 115,
      "chip": "ym2612"
    },
    {
      "channel": 5,
      "note": 74,
      "start": 28.5257,
      "duration": 0.0161,
      "velocity": 98,
      "chip": "ym2612"
    },
    {
      "channel": 4,
      "note": 86,
      "start": 28.5269,
      "duration": 0.0161,
      "velocity": 86,
      "chip": "ym2612"
    },
    {
      "channel": 3,
      "note": 86,
      "start": 28.528,
      "duration": 0.0161,
      "velocity": 86,
      "chip": "ym2612"
    },
    {
      "channel": 2,
      "note": 59,
      "start": 28.5292,
      "duration": 0.0162,
      "velocity": 93,
      "chip": "ym2612"
    },
    {
      "channel": 1,
      "note": 78,
      "start": 28.5304,
      "duration": 0.0161,
      "velocity": 98,
      "chip": "ym2612"
    },
    {
      "channel": 0,
      "note": 40,
      "start": 28.5406,
      "duration": 0.0161,
      "velocity": 115,
      "chip": "ym2612"
    },
    {
      "channel": 5,
      "note": 74,
      "start": 28.5418,
      "duration": 0.0161,
      "velocity": 98,
      "chip": "ym2612"
    },
    {
      "channel": 4,
      "note": 86,
      "start": 28.543,
      "duration": 0.0161,
      "velocity": 86,
      "chip": "ym2612"
    },
    {
      "channel": 3,
      "note": 86,
      "start": 28.5442,
      "duration": 0.0161,
      "velocity": 86,
      "chip": "ym2612"
    },
    {
      "channel": 2,
      "note": 59,
      "start": 28.5454,
      "duration": 0.0161,
      "velocity": 93,
      "chip": "ym2612"
    },
    {
      "channel": 1,
      "note": 78,
      "start": 28.5465,
      "duration": 0.0162,
      "velocity": 98,
      "chip": "ym2612"
    },
    {
      "channel": 0,
      "note": 40,
      "start": 28.5567,
      "duration": 0.0161,
      "velocity": 115,
      "chip": "ym2612"
    },
    {
      "channel": 5,
      "note": 74,
      "start": 28.5579,
      "duration": 0.0161,
      "velocity": 98,
      "chip": "ym2612"
    },
    {
      "channel": 4,
      "note": 86,
      "start": 28.5591,
      "duration": 0.0161,
      "velocity": 86,
      "chip": "ym2612"
    },
    {
      "channel": 3,
      "note": 86,
      "start": 28.5603,
      "duration": 0.0161,
      "velocity": 86,
      "chip": "ym2612"
    },
    {
      "channel": 2,
      "note": 59,
      "start": 28.5615,
      "duration": 0.0162,
      "velocity": 93,
      "chip": "ym2612"
    },
    {
      "channel": 1,
      "note": 78,
      "start": 28.5627,
      "duration": 0.0161,
      "velocity": 98,
      "chip": "ym2612"
    },
    {
      "channel": 0,
      "note": 41,
      "start": 28.5728,
      "duration": 0.0179,
      "velocity": 115,
      "chip": "ym2612"
    },
    {
      "channel": 5,
      "note": 74,
      "start": 28.574,
      "duration": 0.0179,
      "velocity": 98,
      "chip": "ym2612"
    },
    {
      "channel": 4,
      "note": 86,
      "start": 28.5752,
      "duration": 0.0179,
      "velocity": 86,
      "chip": "ym2612"
    },
    {
      "channel": 2,
      "note": 59,
      "start": 28.5776,
      "duration": 0.0181,
      "velocity": 93,
      "chip": "ym2612"
    },
    {
      "channel": 1,
      "note": 78,
      "start": 28.5788,
      "duration": 0.0182,
      "velocity": 98,
      "chip": "ym2612"
    },
    {
      "channel": 0,
      "note": 36,
      "start": 28.5907,
      "duration": 0.0143,
      "velocity": 115,
      "chip": "ym2612"
    },
    {
      "channel": 5,
      "note": 74,
      "start": 28.592,
      "duration": 0.0143,
      "velocity": 98,
      "chip": "ym2612"
    },
    {
      "channel": 4,
      "note": 86,
      "start": 28.5931,
      "duration": 0.0143,
      "velocity": 86,
      "chip": "ym2612"
    },
    {
      "channel": 3,
      "note": 78,
      "start": 28.5946,
      "duration": 0.0141,
      "velocity": 86,
      "chip": "ym2612"
    },
    {
      "channel": 2,
      "note": 59,
      "start": 28.5958,
      "duration": 0.0141,
      "velocity": 93,
      "chip": "ym2612"
    },
    {
      "channel": 1,
      "note": 78,
      "start": 28.597,
      "duration": 0.014,
      "velocity": 98,
      "chip": "ym2612"
    },
    {
      "channel": 0,
      "note": 36,
      "start": 28.6051,
      "duration": 0.016,
      "velocity": 115,
      "chip": "ym2612"
    },
    {
      "channel": 5,
      "note": 74,
      "start": 28.6063,
      "duration": 0.016,
      "velocity": 98,
      "chip": "ym2612"
    },
    {
      "channel": 4,
      "note": 86,
      "start": 28.6074,
      "duration": 0.0161,
      "velocity": 86,
      "chip": "ym2612"
    },
    {
      "channel": 3,
      "note": 78,
      "start": 28.6087,
      "duration": 0.016,
      "velocity": 86,
      "chip": "ym2612"
    },
    {
      "channel": 2,
      "note": 59,
      "start": 28.6098,
      "duration": 0.016,
      "velocity": 93,
      "chip": "ym2612"
    },
    {
      "channel": 1,
      "note": 78,
      "start": 28.611,
      "duration": 0.016,
      "velocity": 98,
      "chip": "ym2612"
    },
    {
      "channel": 0,
      "note": 37,
      "start": 28.6211,
      "duration": 0.0162,
      "velocity": 115,
      "chip": "ym2612"
    },
    {
      "channel": 5,
      "note": 74,
      "start": 28.6223,
      "duration": 0.0161,
      "velocity": 98,
      "chip": "ym2612"
    },
    {
      "channel": 3,
      "note": 78,
      "start": 28.6246,
      "duration": 0.0164,
      "velocity": 86,
      "chip": "ym2612"
    },
    {
      "channel": 2,
      "note": 59,
      "start": 28.6258,
      "duration": 0.0164,
      "velocity": 93,
      "chip": "ym2612"
    },
    {
      "channel": 1,
      "note": 78,
      "start": 28.627,
      "duration": 0.0164,
      "velocity": 98,
      "chip": "ym2612"
    },
    {
      "channel": 0,
      "note": 37,
      "start": 28.6373,
      "duration": 0.0161,
      "velocity": 115,
      "chip": "ym2612"
    },
    {
      "channel": 5,
      "note": 74,
      "start": 28.6384,
      "duration": 0.0162,
      "velocity": 98,
      "chip": "ym2612"
    },
    {
      "channel": 4,
      "note": 78,
      "start": 28.6399,
      "duration": 0.0159,
      "velocity": 86,
      "chip": "ym2612"
    },
    {
      "channel": 3,
      "note": 78,
      "start": 28.6411,
      "duration": 0.0159,
      "velocity": 86,
      "chip": "ym2612"
    },
    {
      "channel": 2,
      "note": 59,
      "start": 28.6422,
      "duration": 0.016,
      "velocity": 93,
      "chip": "ym2612"
    },
    {
      "channel": 1,
      "note": 78,
      "start": 28.6434,
      "duration": 0.016,
      "velocity": 98,
      "chip": "ym2612"
    },
    {
      "channel": 0,
      "note": 38,
      "start": 28.6534,
      "duration": 0.0164,
      "velocity": 115,
      "chip": "ym2612"
    },
    {
      "channel": 5,
      "note": 74,
      "start": 28.6546,
      "duration": 0.0164,
      "velocity": 98,
      "chip": "ym2612"
    },
    {
      "channel": 4,
      "note": 78,
      "start": 28.6558,
      "duration": 0.0163,
      "velocity": 86,
      "chip": "ym2612"
    },
    {
      "channel": 3,
      "note": 78,
      "start": 28.657,
      "duration": 0.0163,
      "velocity": 86,
      "chip": "ym2612"
    },
    {
      "channel": 2,
      "note": 59,
      "start": 28.6582,
      "duration": 0.0164,
      "velocity": 93,
      "chip": "ym2612"
    },
    {
      "channel": 1,
      "note": 78,
      "start": 28.6594,
      "duration": 0.0163,
      "velocity": 98,
      "chip": "ym2612"
    },
    {
      "channel": 0,
      "note": 38,
      "start": 28.6698,
      "duration": 0.0181,
      "velocity": 124,
      "chip": "ym2612"
    },
    {
      "channel": 5,
      "note": 74,
      "start": 28.671,
      "duration": 0.0182,
      "velocity": 98,
      "chip": "ym2612"
    },
    {
      "channel": 4,
      "note": 78,
      "start": 28.6721,
      "duration": 0.0182,
      "velocity": 86,
      "chip": "ym2612"
    },
    {
      "channel": 2,
      "note": 59,
      "start": 28.6746,
      "duration": 0.0186,
      "velocity": 93,
      "chip": "ym2612"
    },
    {
      "channel": 0,
      "note": 84,
      "start": 28.688,
      "duration": 0.0143,
      "velocity": 124,
      "chip": "ym2612"
    },
    {
      "channel": 5,
      "note": 74,
      "start": 28.6892,
      "duration": 0.0143,
      "velocity": 98,
      "chip": "ym2612"
    },
    {
      "channel": 4,
      "note": 78,
      "start": 28.6903,
      "duration": 0.0143,
      "velocity": 86,
      "chip": "ym2612"
    },
    {
      "channel": 3,
      "note": 81,
      "start": 28.6918,
      "duration": 0.0141,
      "velocity": 86,
      "chip": "ym2612"
    },
    {
      "channel": 2,
      "note": 59,
      "start": 28.6932,
      "duration": 0.0139,
      "velocity": 93,
      "chip": "ym2612"
    },
    {
      "channel": 1,
      "note": 81,
      "start": 28.6947,
      "duration": 0.0136,
      "velocity": 98,
      "chip": "ym2612"
    },
    {
      "channel": 0,
      "note": 82,
      "start": 28.7023,
      "duration": 0.016,
      "velocity": 124,
      "chip": "ym2612"
    },
    {
      "channel": 4,
      "note": 78,
      "start": 28.7046,
      "duration": 0.0163,
      "velocity": 86,
      "chip": "ym2612"
    },
    {
      "channel": 3,
      "note": 81,
      "start": 28.7059,
      "duration": 0.0163,
      "velocity": 86,
      "chip": "ym2612"
    },
    {
      "channel": 2,
      "note": 59,
      "start": 28.7071,
      "duration": 0.0162,
      "velocity": 93,
      "chip": "ym2612"
    },
    {
      "channel": 1,
      "note": 81,
      "start": 28.7083,
      "duration": 0.0162,
      "velocity": 98,
      "chip": "ym2612"
    },
    {
      "channel": 0,
      "note": 80,
      "start": 28.7183,
      "duration": 0.0158,
      "velocity": 124,
      "chip": "ym2612"
    },
    {
      "channel": 5,
      "note": 78,
      "start": 28.7198,
      "duration": 0.0159,
      "velocity": 98,
      "chip": "ym2612"
    },
    {
      "channel": 3,
      "note": 81,
      "start": 28.7222,
      "duration": 0.0161,
      "velocity": 86,
      "chip": "ym2612"
    },
    {
      "channel": 2,
      "note": 59,
      "start": 28.7233,
      "duration": 0.0162,
      "velocity": 93,
      "chip": "ym2612"
    },
    {
      "channel": 1,
      "note": 81,
      "start": 28.7245,
      "duration": 0.0161,
      "velocity": 98,
      "chip": "ym2612"
    },
    {
      "channel": 0,
      "note": 77,
      "start": 28.7341,
      "duration": 0.0159,
      "velocity": 124,
      "chip": "ym2612"
    },
    {
      "channel": 5,
      "note": 78,
      "start": 28.7357,
      "duration": 0.016,
      "velocity": 98,
      "chip": "ym2612"
    },
    {
      "channel": 4,
      "note": 81,
      "start": 28.7371,
      "duration": 0.0158,
      "velocity": 86,
      "chip": "ym2612"
    },
    {
      "channel": 3,
      "note": 81,
      "start": 28.7383,
      "duration": 0.0158,
      "velocity": 86,
      "chip": "ym2612"
    },
    {
      "channel": 2,
      "note": 59,
      "start": 28.7395,
      "duration": 0.0158,
      "velocity": 93,
      "chip": "ym2612"
    },
    {
      "channel": 1,
      "note": 81,
      "start": 28.7406,
      "duration": 0.0158,
      "velocity": 98,
      "chip": "ym2612"
    },
    {
      "channel": 0,
      "note": 75,
      "start": 28.7499,
      "duration": 0.0161,
      "velocity": 124,
      "chip": "ym2612"
    },
    {
      "channel": 5,
      "note": 78,
      "start": 28.7516,
      "duration": 0.0158,
      "velocity": 98,
      "chip": "ym2612"
    },
    {
      "channel": 4,
      "note": 81,
      "start": 28.7529,
      "duration": 0.0161,
      "velocity": 86,
      "chip": "ym2612"
    },
    {
      "channel": 3,
      "note": 81,
      "start": 28.7541,
      "duration": 0.016,
      "velocity": 86,
      "chip": "ym2612"
    },
    {
      "channel": 2,
      "note": 59,
      "start": 28.7553,
      "duration": 0.016,
      "velocity": 93,
      "chip": "ym2612"
    },
    {
      "channel": 1,
      "note": 81,
      "start": 28.7564,
      "duration": 0.0161,
      "velocity": 98,
      "chip": "ym2612"
    },
    {
      "channel": 0,
      "note": 72,
      "start": 28.7661,
      "duration": 0.0161,
      "velocity": 124,
      "chip": "ym2612"
    },
    {
      "channel": 5,
      "note": 78,
      "start": 28.7674,
      "duration": 0.0159,
      "velocity": 98,
      "chip": "ym2612"
    },
    {
      "channel": 4,
      "note": 81,
      "start": 28.769,
      "duration": 0.016,
      "velocity": 86,
      "chip": "ym2612"
    },
    {
      "channel": 3,
      "note": 81,
      "start": 28.7701,
      "duration": 0.0161,
      "velocity": 86,
      "chip": "ym2612"
    },
    {
      "channel": 2,
      "note": 59,
      "start": 28.7713,
      "duration": 0.0161,
      "velocity": 93,
      "chip": "ym2612"
    },
    {
      "channel": 1,
      "note": 81,
      "start": 28.7725,
      "duration": 0.0161,
      "velocity": 98,
      "chip": "ym2612"
    },
    {
      "channel": 0,
      "note": 70,
      "start": 28.7822,
      "duration": 0.0161,
      "velocity": 124,
      "chip": "ym2612"
    },
    {
      "channel": 5,
      "note": 78,
      "start": 28.7833,
      "duration": 0.0161,
      "velocity": 98,
      "chip": "ym2612"
    },
    {
      "channel": 4,
      "note": 81,
      "start": 28.785,
      "duration": 0.0158,
      "velocity": 86,
      "chip": "ym2612"
    },
    {
      "channel": 3,
      "note": 81,
      "start": 28.7862,
      "duration": 0.0161,
      "velocity": 86,
      "chip": "ym2612"
    },
    {
      "channel": 2,
      "note": 59,
      "start": 28.7874,
      "duration": 0.0161,
      "velocity": 93,
      "chip": "ym2612"
    },
    {
      "channel": 1,
      "note": 81,
      "start": 28.7886,
      "duration": 0.0161,
      "velocity": 98,
      "chip": "ym2612"
    },
    {
      "channel": 0,
      "note": 68,
      "start": 28.7983,
      "duration": 0.0161,
      "velocity": 124,
      "chip": "ym2612"
    },
    {
      "channel": 5,
      "note": 78,
      "start": 28.7994,
      "duration": 0.0161,
      "velocity": 98,
      "chip": "ym2612"
    },
    {
      "channel": 4,
      "note": 81,
      "start": 28.8008,
      "duration": 0.0159,
      "velocity": 86,
      "chip": "ym2612"
    },
    {
      "channel": 3,
      "note": 81,
      "start": 28.8024,
      "duration": 0.016,
      "velocity": 86,
      "chip": "ym2612"
    },
    {
      "channel": 2,
      "note": 59,
      "start": 28.8035,
      "duration": 0.0161,
      "velocity": 93,
      "chip": "ym2612"
    },
    {
      "channel": 1,
      "note": 81,
      "start": 28.8047,
      "duration": 0.0161,
      "velocity": 98,
      "chip": "ym2612"
    },
    {
      "channel": 0,
      "note": 65,
      "start": 28.8144,
      "duration": 0.0161,
      "velocity": 124,
      "chip": "ym2612"
    },
    {
      "channel": 5,
      "note": 78,
      "start": 28.8155,
      "duration": 0.0161,
      "velocity": 98,
      "chip": "ym2612"
    },
    {
      "channel": 4,
      "note": 81,
      "start": 28.8166,
      "duration": 0.0161,
      "velocity": 86,
      "chip": "ym2612"
    },
    {
      "channel": 3,
      "note": 81,
      "start": 28.8184,
      "duration": 0.0158,
      "velocity": 86,
      "chip": "ym2612"
    },
    {
      "channel": 2,
      "note": 59,
      "start": 28.8196,
      "duration": 0.0161,
      "velocity": 93,
      "chip": "ym2612"
    },
    {
      "channel": 1,
      "note": 81,
      "start": 28.8208,
      "duration": 0.0162,
      "velocity": 98,
      "chip": "ym2612"
    },
    {
      "channel": 0,
      "note": 63,
      "start": 28.8304,
      "duration": 0.0153,
      "velocity": 1,
      "chip": "ym2612"
    },
    {
      "channel": 5,
      "note": 78,
      "start": 28.8316,
      "duration": 0.0153,
      "velocity": 98,
      "chip": "ym2612"
    },
    {
      "channel": 4,
      "note": 81,
      "start": 28.8328,
      "duration": 0.0153,
      "velocity": 86,
      "chip": "ym2612"
    },
    {
      "channel": 3,
      "note": 81,
      "start": 28.8342,
      "duration": 0.0151,
      "velocity": 86,
      "chip": "ym2612"
    },
    {
      "channel": 2,
      "note": 59,
      "start": 28.8358,
      "duration": 0.0149,
      "velocity": 93,
      "chip": "ym2612"
    },
    {
      "channel": 1,
      "note": 81,
      "start": 28.837,
      "duration": 0.0152,
      "velocity": 98,
      "chip": "ym2612"
    },
    {
      "channel": 5,
      "note": 78,
      "start": 28.8468,
      "duration": 0.0153,
      "velocity": 98,
      "chip": "ym2612"
    },
    {
      "channel": 4,
      "note": 81,
      "start": 28.8481,
      "duration": 0.0153,
      "velocity": 86,
      "chip": "ym2612"
    },
    {
      "channel": 3,
      "note": 81,
      "start": 28.8493,
      "duration": 0.0153,
      "velocity": 86,
      "chip": "ym2612"
    },
    {
      "channel": 2,
      "note": 59,
      "start": 28.8507,
      "duration": 0.0151,
      "velocity": 93,
      "chip": "ym2612"
    },
    {
      "channel": 1,
      "note": 81,
      "start": 28.8522,
      "duration": 0.0147,
      "velocity": 98,
      "chip": "ym2612"
    },
    {
      "channel": 5,
      "note": 78,
      "start": 28.8621,
      "duration": 0.0161,
      "velocity": 98,
      "chip": "ym2612"
    },
    {
      "channel": 4,
      "note": 81,
      "start": 28.8633,
      "duration": 0.0161,
      "velocity": 86,
      "chip": "ym2612"
    },
    {
      "channel": 2,
      "note": 59,
      "start": 28.8657,
      "duration": 0.0163,
      "velocity": 93,
      "chip": "ym2612"
    },
    {
      "channel": 1,
      "note": 81,
      "start": 28.8669,
      "duration": 0.0163,
      "velocity": 98,
      "chip": "ym2612"
    },
    {
      "channel": 5,
      "note": 78,
      "start": 28.8782,
      "duration": 0.0161,
      "velocity": 98,
      "chip": "ym2612"
    },
    {
      "channel": 4,
      "note": 81,
      "start": 28.8794,
      "duration": 0.0161,
      "velocity": 86,
      "chip": "ym2612"
    },
    {
      "channel": 3,
      "note": 86,
      "start": 28.881,
      "duration": 0.0158,
      "velocity": 86,
      "chip": "ym2612"
    },
    {
      "channel": 2,
      "note": 59,
      "start": 28.8821,
      "duration": 0.0159,
      "velocity": 93,
      "chip": "ym2612"
    },
    {
      "channel": 1,
      "note": 81,
      "start": 28.8832,
      "duration": 0.0158,
      "velocity": 98,
      "chip": "ym2612"
    },
    {
      "channel": 5,
      "note": 78,
      "start": 28.8943,
      "duration": 0.0161,
      "velocity": 98,
      "chip": "ym2612"
    },
    {
      "channel": 4,
      "note": 81,
      "start": 28.8955,
      "duration": 0.0161,
      "velocity": 86,
      "chip": "ym2612"
    },
    {
      "channel": 3,
      "note": 86,
      "start": 28.8967,
      "duration": 0.0161,
      "velocity": 86,
      "chip": "ym2612"
    },
    {
      "channel": 2,
      "note": 59,
      "start": 28.8979,
      "duration": 0.016,
      "velocity": 93,
      "chip": "ym2612"
    },
    {
      "channel": 1,
      "note": 81,
      "start": 28.8991,
      "duration": 0.016,
      "velocity": 98,
      "chip": "ym2612"
    },
    {
      "channel": 5,
      "note": 78,
      "start": 28.9104,
      "duration": 0.0161,
      "velocity": 98,
      "chip": "ym2612"
    },
    {
      "channel": 3,
      "note": 86,
      "start": 28.9128,
      "duration": 0.0164,
      "velocity": 86,
      "chip": "ym2612"
    },
    {
      "channel": 2,
      "note": 59,
      "start": 28.914,
      "duration": 0.0164,
      "velocity": 93,
      "chip": "ym2612"
    },
    {
      "channel": 1,
      "note": 81,
      "start": 28.9151,
      "duration": 0.0164,
      "velocity": 98,
      "chip": "ym2612"
    },
    {
      "channel": 5,
      "note": 78,
      "start": 28.9266,
      "duration": 0.0161,
      "velocity": 98,
      "chip": "ym2612"
    },
    {
      "channel": 4,
      "note": 86,
      "start": 28.928,
      "duration": 0.0158,
      "velocity": 86,
      "chip": "ym2612"
    },
    {
      "channel": 3,
      "note": 86,
      "start": 28.9292,
      "duration": 0.0158,
      "velocity": 86,
      "chip": "ym2612"
    },
    {
      "channel": 2,
      "note": 59,
      "start": 28.9304,
      "duration": 0.0158,
      "velocity": 93,
      "chip": "ym2612"
    },
    {
      "channel": 1,
      "note": 81,
      "start": 28.9315,
      "duration": 0.0159,
      "velocity": 98,
      "chip": "ym2612"
    },
    {
      "channel": 5,
      "note": 78,
      "start": 28.9427,
      "duration": 0.0161,
      "velocity": 98,
      "chip": "ym2612"
    },
    {
      "channel": 4,
      "note": 86,
      "start": 28.9439,
      "duration": 0.016,
      "velocity": 86,
      "chip": "ym2612"
    },
    {
      "channel": 3,
      "note": 86,
      "start": 28.945,
      "duration": 0.016,
      "velocity": 86,
      "chip": "ym2612"
    },
    {
      "channel": 2,
      "note": 59,
      "start": 28.9462,
      "duration": 0.0161,
      "velocity": 93,
      "chip": "ym2612"
    },
    {
      "channel": 1,
      "note": 81,
      "start": 28.9474,
      "duration": 0.016,
      "velocity": 98,
      "chip": "ym2612"
    },
    {
      "channel": 5,
      "note": 78,
      "start": 28.9588,
      "duration": 0.0196,
      "velocity": 98,
      "chip": "ym2612"
    },
    {
      "channel": 4,
      "note": 86,
      "start": 28.9599,
      "duration": 0.0196,
      "velocity": 86,
      "chip": "ym2612"
    },
    {
      "channel": 3,
      "note": 86,
      "start": 28.961,
      "duration": 0.0197,
      "velocity": 86,
      "chip": "ym2612"
    },
    {
      "channel": 2,
      "note": 59,
      "start": 28.9623,
      "duration": 0.0198,
      "velocity": 93,
      "chip": "ym2612"
    },
    {
      "channel": 0,
      "note": 36,
      "start": 28.9772,
      "duration": 0.0143,
      "velocity": 115,
      "chip": "ym2612"
    },
    {
      "channel": 5,
      "note": 78,
      "start": 28.9783,
      "duration": 0.0143,
      "velocity": 98,
      "chip": "ym2612"
    },
    {
      "channel": 4,
      "note": 86,
      "start": 28.9795,
      "duration": 0.0144,
      "velocity": 86,
      "chip": "ym2612"
    },
    {
      "channel": 3,
      "note": 86,
      "start": 28.9807,
      "duration": 0.0143,
      "velocity": 86,
      "chip": "ym2612"
    },
    {
      "channel": 2,
      "note": 52,
      "start": 28.9822,
      "duration": 0.0141,
      "velocity": 93,
      "chip": "ym2612"
    },
    {
      "channel": 1,
      "note": 85,
      "start": 28.9836,
      "duration": 0.0139,
      "velocity": 98,
      "chip": "ym2612"
    },
    {
      "channel": 0,
      "note": 36,
      "start": 28.9915,
      "duration": 0.016,
      "velocity": 115,
      "chip": "ym2612"
    },
    {
      "channel": 4,
      "note": 86,
      "start": 28.9939,
      "duration": 0.0163,
      "velocity": 86,
      "chip": "ym2612"
    },
    {
      "channel": 3,
      "note": 86,
      "start": 28.995,
      "duration": 0.0163,
      "velocity": 86,
      "chip": "ym2612"
    },
    {
      "channel": 2,
      "note": 52,
      "start": 28.9963,
      "duration": 0.0162,
      "velocity": 93,
      "chip": "ym2612"
    },
    {
      "channel": 1,
      "note": 85,
      "start": 28.9975,
      "duration": 0.0162,
      "velocity": 98,
      "chip": "ym2612"
    },
    {
      "channel": 0,
      "note": 37,
      "start": 29.0076,
      "duration": 0.0161,
      "velocity": 115,
      "chip": "ym2612"
    },
    {
      "channel": 5,
      "note": 81,
      "start": 29.009,
      "duration": 0.0159,
      "velocity": 98,
      "chip": "ym2612"
    },
    {
      "channel": 4,
      "note": 86,
      "start": 29.0102,
      "duration": 0.0159,
      "velocity": 86,
      "chip": "ym2612"
    },
    {
      "channel": 3,
      "note": 86,
      "start": 29.0114,
      "duration": 0.0159,
      "velocity": 86,
      "chip": "ym2612"
    },
    {
      "channel": 2,
      "note": 52,
      "start": 29.0125,
      "duration": 0.0159,
      "velocity": 93,
      "chip": "ym2612"
    },
    {
      "channel": 1,
      "note": 85,
      "start": 29.0137,
      "duration": 0.0159,
      "velocity": 98,
      "chip": "ym2612"
    },
    {
      "channel": 0,
      "note": 37,
      "start": 29.0236,
      "duration": 0.0161,
      "velocity": 115,
      "chip": "ym2612"
    },
    {
      "channel": 5,
      "note": 81,
      "start": 29.0249,
      "duration": 0.0161,
      "velocity": 98,
      "chip": "ym2612"
    },
    {
      "channel": 4,
      "note": 86,
      "start": 29.0261,
      "duration": 0.016,
      "velocity": 86,
      "chip": "ym2612"
    },
    {
      "channel": 3,
      "note": 86,
      "start": 29.0273,
      "duration": 0.016,
      "velocity": 86,
      "chip": "ym2612"
    },
    {
      "channel": 2,
      "note": 52,
      "start": 29.0284,
      "duration": 0.016,
      "velocity": 93,
      "chip": "ym2612"
    },
    {
      "channel": 1,
      "note": 85,
      "start": 29.0296,
      "duration": 0.016,
      "velocity": 98,
      "chip": "ym2612"
    },
    {
      "channel": 0,
      "note": 38,
      "start": 29.0397,
      "duration": 0.0161,
      "velocity": 115,
      "chip": "ym2612"
    },
    {
      "channel": 5,
      "note": 81,
      "start": 29.0409,
      "duration": 0.0161,
      "velocity": 98,
      "chip": "ym2612"
    },
    {
      "channel": 4,
      "note": 86,
      "start": 29.0421,
      "duration": 0.0161,
      "velocity": 86,
      "chip": "ym2612"
    },
    {
      "channel": 3,
      "note": 86,
      "start": 29.0433,
      "duration": 0.0161,
      "velocity": 86,
      "chip": "ym2612"
    },
    {
      "channel": 2,
      "note": 52,
      "start": 29.0444,
      "duration": 0.0161,
      "velocity": 93,
      "chip": "ym2612"
    },
    {
      "channel": 1,
      "note": 85,
      "start": 29.0456,
      "duration": 0.0161,
      "velocity": 98,
      "chip": "ym2612"
    },
    {
      "channel": 0,
      "note": 38,
      "start": 29.0558,
      "duration": 0.0161,
      "velocity": 115,
      "chip": "ym2612"
    },
    {
      "channel": 5,
      "note": 81,
      "start": 29.057,
      "duration": 0.0161,
      "velocity": 98,
      "chip": "ym2612"
    },
    {
      "channel": 4,
      "note": 86,
      "start": 29.0582,
      "duration": 0.0161,
      "velocity": 86,
      "chip": "ym2612"
    },
    {
      "channel": 3,
      "note": 86,
      "start": 29.0594,
      "duration": 0.0161,
      "velocity": 86,
      "chip": "ym2612"
    },
    {
      "channel": 2,
      "note": 52,
      "start": 29.0605,
      "duration": 0.0161,
      "velocity": 93,
      "chip": "ym2612"
    },
    {
      "channel": 1,
      "note": 85,
      "start": 29.0617,
      "duration": 0.0161,
      "velocity": 98,
      "chip": "ym2612"
    },
    {
      "channel": 0,
      "note": 39,
      "start": 29.072,
      "duration": 0.0161,
      "velocity": 115,
      "chip": "ym2612"
    },
    {
      "channel": 5,
      "note": 81,
      "start": 29.0731,
      "duration": 0.0161,
      "velocity": 98,
      "chip": "ym2612"
    },
    {
      "channel": 4,
      "note": 86,
      "start": 29.0743,
      "duration": 0.0161,
      "velocity": 86,
      "chip": "ym2612"
    },
    {
      "channel": 3,
      "note": 86,
      "start": 29.0755,
      "duration": 0.0161,
      "velocity": 86,
      "chip": "ym2612"
    },
    {
      "channel": 2,
      "note": 52,
      "start": 29.0766,
      "duration": 0.0161,
      "velocity": 93,
      "chip": "ym2612"
    },
    {
      "channel": 1,
      "note": 85,
      "start": 29.0778,
      "duration": 0.0161,
      "velocity": 98,
      "chip": "ym2612"
    },
    {
      "channel": 0,
      "note": 39,
      "start": 29.0881,
      "duration": 0.0161,
      "velocity": 115,
      "chip": "ym2612"
    },
    {
      "channel": 5,
      "note": 81,
      "start": 29.0892,
      "duration": 0.0161,
      "velocity": 98,
      "chip": "ym2612"
    },
    {
      "channel": 4,
      "note": 86,
      "start": 29.0904,
      "duration": 0.0162,
      "velocity": 86,
      "chip": "ym2612"
    },
    {
      "channel": 3,
      "note": 86,
      "start": 29.0916,
      "duration": 0.0161,
      "velocity": 86,
      "chip": "ym2612"
    },
    {
      "channel": 2,
      "note": 52,
      "start": 29.0927,
      "duration": 0.0161,
      "velocity": 93,
      "chip": "ym2612"
    },
    {
      "channel": 1,
      "note": 85,
      "start": 29.0939,
      "duration": 0.0161,
      "velocity": 98,
      "chip": "ym2612"
    },
    {
      "channel": 0,
      "note": 40,
      "start": 29.1042,
      "duration": 0.0161,
      "velocity": 115,
      "chip": "ym2612"
    },
    {
      "channel": 5,
      "note": 81,
      "start": 29.1053,
      "duration": 0.0162,
      "velocity": 98,
      "chip": "ym2612"
    },
    {
      "channel": 4,
      "note": 86,
      "start": 29.1065,
      "duration": 0.0161,
      "velocity": 86,
      "chip": "ym2612"
    },
    {
      "channel": 3,
      "note": 86,
      "start": 29.1077,
      "duration": 0.0162,
      "velocity": 86,
      "chip": "ym2612"
    },
    {
      "channel": 2,
      "note": 52,
      "start": 29.1089,
      "duration": 0.0162,
      "velocity": 93,
      "chip": "ym2612"
    },
    {
      "channel": 1,
      "note": 85,
      "start": 29.11,
      "duration": 0.0162,
      "velocity": 98,
      "chip": "ym2612"
    },
    {
      "channel": 0,
      "note": 40,
      "start": 29.1203,
      "duration": 0.0163,
      "velocity": 115,
      "chip": "ym2612"
    },
    {
      "channel": 5,
      "note": 81,
      "start": 29.1215,
      "duration": 0.0164,
      "velocity": 98,
      "chip": "ym2612"
    },
    {
      "channel": 4,
      "note": 86,
      "start": 29.1227,
      "duration": 0.0163,
      "velocity": 86,
      "chip": "ym2612"
    },
    {
      "channel": 3,
      "note": 86,
      "start": 29.1238,
      "duration": 0.0164,
      "velocity": 86,
      "chip": "ym2612"
    },
    {
      "channel": 2,
      "note": 52,
      "start": 29.1251,
      "duration": 0.0163,
      "velocity": 93,
      "chip": "ym2612"
    },
    {
      "channel": 1,
      "note": 85,
      "start": 29.1262,
      "duration": 0.0164,
      "velocity": 98,
      "chip": "ym2612"
    },
    {
      "channel": 0,
      "note": 40,
      "start": 29.1367,
      "duration": 0.0163,
      "velocity": 115,
      "chip": "ym2612"
    },
    {
      "channel": 5,
      "note": 81,
      "start": 29.1379,
      "duration": 0.0163,
      "velocity": 98,
      "chip": "ym2612"
    },
    {
      "channel": 4,
      "note": 86,
      "start": 29.139,
      "duration": 0.0163,
      "velocity": 86,
      "chip": "ym2612"
    },
    {
      "channel": 3,
      "note": 86,
      "start": 29.1402,
      "duration": 0.0163,
      "velocity": 86,
      "chip": "ym2612"
    },
    {
      "channel": 2,
      "note": 52,
      "start": 29.1415,
      "duration": 0.0163,
      "velocity": 93,
      "chip": "ym2612"
    },
    {
      "channel": 1,
      "note": 85,
      "start": 29.1427,
      "duration": 0.0163,
      "velocity": 98,
      "chip": "ym2612"
    },
    {
      "channel": 0,
      "note": 41,
      "start": 29.153,
      "duration": 0.0162,
      "velocity": 115,
      "chip": "ym2612"
    },
    {
      "channel": 5,
      "note": 81,
      "start": 29.1542,
      "duration": 0.0161,
      "velocity": 98,
      "chip": "ym2612"
    },
    {
      "channel": 4,
      "note": 86,
      "start": 29.1554,
      "duration": 0.0162,
      "velocity": 86,
      "chip": "ym2612"
    },
    {
      "channel": 2,
      "note": 52,
      "start": 29.1578,
      "duration": 0.0163,
      "velocity": 93,
      "chip": "ym2612"
    },
    {
      "channel": 1,
      "note": 85,
      "start": 29.159,
      "duration": 0.0163,
      "velocity": 98,
      "chip": "ym2612"
    },
    {
      "channel": 0,
      "note": 41,
      "start": 29.1692,
      "duration": 0.016,
      "velocity": 115,
      "chip": "ym2612"
    },
    {
      "channel": 5,
      "note": 81,
      "start": 29.1703,
      "duration": 0.0161,
      "velocity": 98,
      "chip": "ym2612"
    },
    {
      "channel": 4,
      "note": 86,
      "start": 29.1715,
      "duration": 0.0161,
      "velocity": 86,
      "chip": "ym2612"
    },
    {
      "channel": 3,
      "note": 76,
      "start": 29.173,
      "duration": 0.0159,
      "velocity": 86,
      "chip": "ym2612"
    },
    {
      "channel": 2,
      "note": 52,
      "start": 29.1741,
      "duration": 0.0158,
      "velocity": 93,
      "chip": "ym2612"
    },
    {
      "channel": 1,
      "note": 85,
      "start": 29.1754,
      "duration": 0.0159,
      "velocity": 98,
      "chip": "ym2612"
    },
    {
      "channel": 0,
      "note": 42,
      "start": 29.1852,
      "duration": 0.0158,
      "velocity": 115,
      "chip": "ym2612"
    },
    {
      "channel": 5,
      "note": 81,
      "start": 29.1864,
      "duration": 0.0161,
      "velocity": 98,
      "chip": "ym2612"
    },
    {
      "channel": 4,
      "note": 86,
      "start": 29.1876,
      "duration": 0.0161,
      "velocity": 86,
      "chip": "ym2612"
    },
    {
      "channel": 3,
      "note": 76,
      "start": 29.1888,
      "duration": 0.016,
      "velocity": 86,
      "chip": "ym2612"
    },
    {
      "channel": 2,
      "note": 52,
      "start": 29.19,
      "duration": 0.0161,
      "velocity": 93,
      "chip": "ym2612"
    },
    {
      "channel": 1,
      "note": 85,
      "start": 29.1912,
      "duration": 0.016,
      "velocity": 98,
      "chip": "ym2612"
    },
    {
      "channel": 0,
      "note": 42,
      "start": 29.201,
      "duration": 0.0158,
      "velocity": 115,
      "chip": "ym2612"
    },
    {
      "channel": 5,
      "note": 81,
      "start": 29.2025,
      "duration": 0.0161,
      "velocity": 98,
      "chip": "ym2612"
    },
    {
      "channel": 3,
      "note": 76,
      "start": 29.2049,
      "duration": 0.0164,
      "velocity": 86,
      "chip": "ym2612"
    },
    {
      "channel": 2,
      "note": 52,
      "start": 29.2061,
      "duration": 0.0163,
      "velocity": 93,
      "chip": "ym2612"
    },
    {
      "channel": 1,
      "note": 85,
      "start": 29.2072,
      "duration": 0.0164,
      "velocity": 98,
      "chip": "ym2612"
    },
    {
      "channel": 0,
      "note": 43,
      "start": 29.2168,
      "duration": 0.0162,
      "velocity": 115,
      "chip": "ym2612"
    },
    {
      "channel": 5,
      "note": 81,
      "start": 29.2186,
      "duration": 0.0157,
      "velocity": 98,
      "chip": "ym2612"
    },
    {
      "channel": 4,
      "note": 76,
      "start": 29.2201,
      "duration": 0.0158,
      "velocity": 86,
      "chip": "ym2612"
    },
    {
      "channel": 3,
      "note": 76,
      "start": 29.2213,
      "duration": 0.0158,
      "velocity": 86,
      "chip": "ym2612"
    },
    {
      "channel": 2,
      "note": 52,
      "start": 29.2224,
      "duration": 0.0159,
      "velocity": 93,
      "chip": "ym2612"
    },
    {
      "channel": 1,
      "note": 85,
      "start": 29.2236,
      "duration": 0.0159,
      "velocity": 98,
      "chip": "ym2612"
    },
    {
      "channel": 0,
      "note": 43,
      "start": 29.233,
      "duration": 0.0161,
      "velocity": 115,
      "chip": "ym2612"
    },
    {
      "channel": 5,
      "note": 81,
      "start": 29.2343,
      "duration": 0.0159,
      "velocity": 98,
      "chip": "ym2612"
    },
    {
      "channel": 4,
      "note": 76,
      "start": 29.2359,
      "duration": 0.0161,
      "velocity": 86,
      "chip": "ym2612"
    },
    {
      "channel": 3,
      "note": 76,
      "start": 29.2371,
      "duration": 0.016,
      "velocity": 86,
      "chip": "ym2612"
    },
    {
      "channel": 2,
      "note": 52,
      "start": 29.2383,
      "duration": 0.0161,
      "velocity": 93,
      "chip": "ym2612"
    },
    {
      "channel": 1,
      "note": 85,
      "start": 29.2395,
      "duration": 0.016,
      "velocity": 98,
      "chip": "ym2612"
    },
    {
      "channel": 0,
      "note": 44,
      "start": 29.2491,
      "duration": 0.0179,
      "velocity": 124,
      "chip": "ym2612"
    },
    {
      "channel": 5,
      "note": 81,
      "start": 29.2502,
      "duration": 0.0185,
      "velocity": 98,
      "chip": "ym2612"
    },
    {
      "channel": 4,
      "note": 76,
      "start": 29.252,
      "duration": 0.018,
      "velocity": 86,
      "chip": "ym2612"
    },
    {
      "channel": 2,
      "note": 52,
      "start": 29.2544,
      "duration": 0.0184,
      "velocity": 93,
      "chip": "ym2612"
    },
    {
      "channel": 1,
      "note": 85,
      "start": 29.2556,
      "duration": 0.0184,
      "velocity": 98,
      "chip": "ym2612"
    },
    {
      "channel": 0,
      "note": 84,
      "start": 29.267,
      "duration": 0.0143,
      "velocity": 124,
      "chip": "ym2612"
    },
    {
      "channel": 5,
      "note": 81,
      "start": 29.2687,
      "duration": 0.0137,
      "velocity": 98,
      "chip": "ym2612"
    },
    {
      "channel": 4,
      "note": 76,
      "start": 29.27,
      "duration": 0.0137,
      "velocity": 86,
      "chip": "ym2612"
    },
    {
      "channel": 3,
      "note": 80,
      "start": 29.2714,
      "duration": 0.0141,
      "velocity": 86,
      "chip": "ym2612"
    },
    {
      "channel": 2,
      "note": 52,
      "start": 29.2729,
      "duration": 0.0139,
      "velocity": 93,
      "chip": "ym2612"
    },
    {
      "channel": 1,
      "note": 85,
      "start": 29.274,
      "duration": 0.0139,
      "velocity": 98,
      "chip": "ym2612"
    },
    {
      "channel": 0,
      "note": 82,
      "start": 29.2813,
      "duration": 0.016,
      "velocity": 124,
      "chip": "ym2612"
    },
    {
      "channel": 4,
      "note": 76,
      "start": 29.2837,
      "duration": 0.0163,
      "velocity": 86,
      "chip": "ym2612"
    },
    {
      "channel": 3,
      "note": 80,
      "start": 29.2855,
      "duration": 0.0163,
      "velocity": 86,
      "chip": "ym2612"
    },
    {
      "channel": 2,
      "note": 52,
      "start": 29.2867,
      "duration": 0.0162,
      "velocity": 93,
      "chip": "ym2612"
    },
    {
      "channel": 1,
      "note": 85,
      "start": 29.2879,
      "duration": 0.0162,
      "velocity": 98,
      "chip": "ym2612"
    },
    {
      "channel": 0,
      "note": 80,
      "start": 29.2974,
      "duration": 0.0161,
      "velocity": 124,
      "chip": "ym2612"
    },
    {
      "channel": 5,
      "note": 85,
      "start": 29.2988,
      "duration": 0.0159,
      "velocity": 98,
      "chip": "ym2612"
    },
    {
      "channel": 3,
      "note": 80,
      "start": 29.3017,
      "duration": 0.0159,
      "velocity": 86,
      "chip": "ym2612"
    },
    {
      "channel": 2,
      "note": 52,
      "start": 29.303,
      "duration": 0.0161,
      "velocity": 93,
      "chip": "ym2612"
    },
    {
      "channel": 1,
      "note": 85,
      "start": 29.3041,
      "duration": 0.0162,
      "velocity": 98,
      "chip": "ym2612"
    },
    {
      "channel": 0,
      "note": 77,
      "start": 29.3134,
      "duration": 0.0161,
      "velocity": 124,
      "chip": "ym2612"
    },
    {
      "channel": 5,
      "note": 85,
      "start": 29.3147,
      "duration": 0.016,
      "velocity": 98,
      "chip": "ym2612"
    },
    {
      "channel": 4,
      "note": 80,
      "start": 29.3162,
      "duration": 0.0158,
      "velocity": 86,
      "chip": "ym2612"
    },
    {
      "channel": 3,
      "note": 80,
      "start": 29.3176,
      "duration": 0.0156,
      "velocity": 86,
      "chip": "ym2612"
    },
    {
      "channel": 2,
      "note": 52,
      "start": 29.3191,
      "duration": 0.0157,
      "velocity": 93,
      "chip": "ym2612"
    },
    {
      "channel": 1,
      "note": 85,
      "start": 29.3203,
      "duration": 0.0158,
      "velocity": 98,
      "chip": "ym2612"
    },
    {
      "channel": 0,
      "note": 75,
      "start": 29.3295,
      "duration": 0.0162,
      "velocity": 124,
      "chip": "ym2612"
    },
    {
      "channel": 5,
      "note": 85,
      "start": 29.3308,
      "duration": 0.0161,
      "velocity": 98,
      "chip": "ym2612"
    },
    {
      "channel": 4,
      "note": 80,
      "start": 29.332,
      "duration": 0.016,
      "velocity": 86,
      "chip": "ym2612"
    },
    {
      "channel": 3,
      "note": 80,
      "start": 29.3332,
      "duration": 0.016,
      "velocity": 86,
      "chip": "ym2612"
    },
    {
      "channel": 2,
      "note": 52,
      "start": 29.3348,
      "duration": 0.0155,
      "velocity": 93,
      "chip": "ym2612"
    },
    {
      "channel": 1,
      "note": 85,
      "start": 29.336,
      "duration": 0.016,
      "velocity": 98,
      "chip": "ym2612"
    },
    {
      "channel": 0,
      "note": 72,
      "start": 29.3457,
      "duration": 0.0161,
      "velocity": 124,
      "chip": "ym2612"
    },
    {
      "channel": 5,
      "note": 85,
      "start": 29.3468,
      "duration": 0.0161,
      "velocity": 98,
      "chip": "ym2612"
    },
    {
      "channel": 4,
      "note": 80,
      "start": 29.348,
      "duration": 0.0161,
      "velocity": 86,
      "chip": "ym2612"
    },
    {
      "channel": 3,
      "note": 80,
      "start": 29.3492,
      "duration": 0.0161,
      "velocity": 86,
      "chip": "ym2612"
    },
    {
      "channel": 2,
      "note": 52,
      "start": 29.3504,
      "duration": 0.0161,
      "velocity": 93,
      "chip": "ym2612"
    },
    {
      "channel": 1,
      "note": 85,
      "start": 29.3521,
      "duration": 0.0161,
      "velocity": 98,
      "chip": "ym2612"
    },
    {
      "channel": 0,
      "note": 70,
      "start": 29.3618,
      "duration": 0.0161,
      "velocity": 124,
      "chip": "ym2612"
    },
    {
      "channel": 5,
      "note": 85,
      "start": 29.3629,
      "duration": 0.0161,
      "velocity": 98,
      "chip": "ym2612"
    },
    {
      "channel": 4,
      "note": 80,
      "start": 29.3641,
      "duration": 0.0161,
      "velocity": 86,
      "chip": "ym2612"
    },
    {
      "channel": 3,
      "note": 80,
      "start": 29.3653,
      "duration": 0.0161,
      "velocity": 86,
      "chip": "ym2612"
    },
    {
      "channel": 2,
      "note": 52,
      "start": 29.3664,
      "duration": 0.0161,
      "velocity": 93,
      "chip": "ym2612"
    },
    {
      "channel": 1,
      "note": 85,
      "start": 29.3682,
      "duration": 0.0155,
      "velocity": 98,
      "chip": "ym2612"
    },
    {
      "channel": 0,
      "note": 68,
      "start": 29.3779,
      "duration": 0.0161,
      "velocity": 124,
      "chip": "ym2612"
    },
    {
      "channel": 5,
      "note": 85,
      "start": 29.379,
      "duration": 0.0161,
      "velocity": 98,
      "chip": "ym2612"
    },
    {
      "channel": 4,
      "note": 80,
      "start": 29.3802,
      "duration": 0.0161,
      "velocity": 86,
      "chip": "ym2612"
    },
    {
      "channel": 3,
      "note": 80,
      "start": 29.3814,
      "duration": 0.0161,
      "velocity": 86,
      "chip": "ym2612"
    },
    {
      "channel": 2,
      "note": 52,
      "start": 29.3825,
      "duration": 0.0162,
      "velocity": 93,
      "chip": "ym2612"
    },
    {
      "channel": 1,
      "note": 85,
      "start": 29.3837,
      "duration": 0.0161,
      "velocity": 98,
      "chip": "ym2612"
    },
    {
      "channel": 0,
      "note": 65,
      "start": 29.394,
      "duration": 0.0161,
      "velocity": 124,
      "chip": "ym2612"
    },
    {
      "channel": 5,
      "note": 85,
      "start": 29.3951,
      "duration": 0.0161,
      "velocity": 98,
      "chip": "ym2612"
    },
    {
      "channel": 4,
      "note": 80,
      "start": 29.3963,
      "duration": 0.0162,
      "velocity": 86,
      "chip": "ym2612"
    },
    {
      "channel": 3,
      "note": 80,
      "start": 29.3975,
      "duration": 0.0161,
      "velocity": 86,
      "chip": "ym2612"
    },
    {
      "channel": 2,
      "note": 52,
      "start": 29.3987,
      "duration": 0.0161,
      "velocity": 93,
      "chip": "ym2612"
    },
    {
      "channel": 0,
      "note": 63,
      "start": 29.4101,
      "duration": 0.0153,
      "velocity": 1,
      "chip": "ym2612"
    },
    {
      "channel": 5,
      "note": 85,
      "start": 29.4112,
      "duration": 0.0153,
      "velocity": 98,
      "chip": "ym2612"
    },
    {
      "channel": 4,
      "note": 80,
      "start": 29.4124,
      "duration": 0.0153,
      "velocity": 86,
      "chip": "ym2612"
    },
    {
      "channel": 3,
      "note": 80,
      "start": 29.4136,
      "duration": 0.0153,
      "velocity": 86,
      "chip": "ym2612"
    },
    {
      "channel": 2,
      "note": 52,
      "start": 29.4149,
      "duration": 0.0152,
      "velocity": 93,
      "chip": "ym2612"
    },
    {
      "channel": 1,
      "note": 83,
      "start": 29.4163,
      "duration": 0.015,
      "velocity": 98,
      "chip": "ym2612"
    },
    {
      "channel": 5,
      "note": 85,
      "start": 29.4265,
      "duration": 0.0153,
      "velocity": 98,
      "chip": "ym2612"
    },
    {
      "channel": 4,
      "note": 80,
      "start": 29.4277,
      "duration": 0.0153,
      "velocity": 86,
      "chip": "ym2612"
    },
    {
      "channel": 3,
      "note": 80,
      "start": 29.4288,
      "duration": 0.0153,
      "velocity": 86,
      "chip": "ym2612"
    },
    {
      "channel": 2,
      "note": 52,
      "start": 29.4301,
      "duration": 0.0153,
      "velocity": 93,
      "chip": "ym2612"
    },
    {
      "channel": 1,
      "note": 83,
      "start": 29.4313,
      "duration": 0.0152,
      "velocity": 98,
      "chip": "ym2612"
    },
    {
      "channel": 5,
      "note": 85,
      "start": 29.4418,
      "duration": 0.0161,
      "velocity": 98,
      "chip": "ym2612"
    },
    {
      "channel": 4,
      "note": 80,
      "start": 29.443,
      "duration": 0.0161,
      "velocity": 86,
      "chip": "ym2612"
    },
    {
      "channel": 2,
      "note": 52,
      "start": 29.4454,
      "duration": 0.0163,
      "velocity": 93,
      "chip": "ym2612"
    },
    {
      "channel": 5,
      "note": 85,
      "start": 29.4579,
      "duration": 0.0161,
      "velocity": 98,
      "chip": "ym2612"
    },
    {
      "channel": 4,
      "note": 80,
      "start": 29.4591,
      "duration": 0.0161,
      "velocity": 86,
      "chip": "ym2612"
    },
    {
      "channel": 3,
      "note": 86,
      "start": 29.4605,
      "duration": 0.0159,
      "velocity": 86,
      "chip": "ym2612"
    },
    {
      "channel": 2,
      "note": 52,
      "start": 29.4617,
      "duration": 0.0158,
      "velocity": 93,
      "chip": "ym2612"
    },
    {
      "channel": 1,
      "note": 82,
      "start": 29.4631,
      "duration": 0.0156,
      "velocity": 98,
      "chip": "ym2612"
    },
    {
      "channel": 5,
      "note": 85,
      "start": 29.4739,
      "duration": 0.0161,
      "velocity": 98,
      "chip": "ym2612"
    },
    {
      "channel": 4,
      "note": 80,
      "start": 29.4752,
      "duration": 0.0161,
      "velocity": 86,
      "chip": "ym2612"
    },
    {
      "channel": 3,
      "note": 86,
      "start": 29.4764,
      "duration": 0.0161,
      "velocity": 86,
      "chip": "ym2612"
    },
    {
      "channel": 2,
      "note": 52,
      "start": 29.4775,
      "duration": 0.0161,
      "velocity": 93,
      "chip": "ym2612"
    },
    {
      "channel": 1,
      "note": 82,
      "start": 29.4787,
      "duration": 0.016,
      "velocity": 98,
      "chip": "ym2612"
    },
    {
      "channel": 5,
      "note": 85,
      "start": 29.49,
      "duration": 0.0161,
      "velocity": 98,
      "chip": "ym2612"
    },
    {
      "channel": 3,
      "note": 86,
      "start": 29.4925,
      "duration": 0.0163,
      "velocity": 86,
      "chip": "ym2612"
    },
    {
      "channel": 2,
      "note": 52,
      "start": 29.4936,
      "duration": 0.0164,
      "velocity": 93,
      "chip": "ym2612"
    },
    {
      "channel": 5,
      "note": 85,
      "start": 29.5061,
      "duration": 0.0161,
      "velocity": 98,
      "chip": "ym2612"
    },
    {
      "channel": 4,
      "note": 86,
      "start": 29.5077,
      "duration": 0.0159,
      "velocity": 86,
      "chip": "ym2612"
    },
    {
      "channel": 3,
      "note": 86,
      "start": 29.5088,
      "duration": 0.0158,
      "velocity": 86,
      "chip": "ym2612"
    },
    {
      "channel": 2,
      "note": 52,
      "start": 29.51,
      "duration": 0.0158,
      "velocity": 93,
      "chip": "ym2612"
    },
    {
      "channel": 1,
      "note": 81,
      "start": 29.5115,
      "duration": 0.0156,
      "velocity": 98,
      "chip": "ym2612"
    },
    {
      "channel": 5,
      "note": 85,
      "start": 29.5222,
      "duration": 0.0161,
      "velocity": 98,
      "chip": "ym2612"
    },
    {
      "channel": 4,
      "note": 86,
      "start": 29.5235,
      "duration": 0.016,
      "velocity": 86,
      "chip": "ym2612"
    },
    {
      "channel": 3,
      "note": 86,
      "start": 29.5246,
      "duration": 0.016,
      "velocity": 86,
      "chip": "ym2612"
    },
    {
      "channel": 2,
      "note": 52,
      "start": 29.5259,
      "duration": 0.0161,
      "velocity": 93,
      "chip": "ym2612"
    },
    {
      "channel": 1,
      "note": 81,
      "start": 29.5271,
      "duration": 0.016,
      "velocity": 98,
      "chip": "ym2612"
    },
    {
      "channel": 5,
      "note": 85,
      "start": 29.5384,
      "duration": 0.0196,
      "velocity": 98,
      "chip": "ym2612"
    },
    {
      "channel": 4,
      "note": 86,
      "start": 29.5395,
      "duration": 0.0196,
      "velocity": 86,
      "chip": "ym2612"
    },
    {
      "channel": 3,
      "note": 86,
      "start": 29.5407,
      "duration": 0.0197,
      "velocity": 86,
      "chip": "ym2612"
    },
    {
      "channel": 2,
      "note": 52,
      "start": 29.542,
      "duration": 0.0198,
      "velocity": 93,
      "chip": "ym2612"
    },
    {
      "channel": 0,
      "note": 36,
      "start": 29.5568,
      "duration": 0.0143,
      "velocity": 115,
      "chip": "ym2612"
    },
    {
      "channel": 5,
      "note": 85,
      "start": 29.558,
      "duration": 0.0143,
      "velocity": 98,
      "chip": "ym2612"
    },
    {
      "channel": 4,
      "note": 86,
      "start": 29.5591,
      "duration": 0.0144,
      "velocity": 86,
      "chip": "ym2612"
    },
    {
      "channel": 3,
      "note": 86,
      "start": 29.5603,
      "duration": 0.0143,
      "velocity": 86,
      "chip": "ym2612"
    },
    {
      "channel": 2,
      "note": 52,
      "start": 29.5618,
      "duration": 0.0141,
      "velocity": 93,
      "chip": "ym2612"
    },
    {
      "channel": 1,
      "note": 80,
      "start": 29.5633,
      "duration": 0.0138,
      "velocity": 98,
      "chip": "ym2612"
    },
    {
      "channel": 0,
      "note": 36,
      "start": 29.5712,
      "duration": 0.0161,
      "velocity": 115,
      "chip": "ym2612"
    },
    {
      "channel": 5,
      "note": 85,
      "start": 29.5723,
      "duration": 0.0161,
      "velocity": 98,
      "chip": "ym2612"
    },
    {
      "channel": 4,
      "note": 86,
      "start": 29.5735,
      "duration": 0.0161,
      "velocity": 86,
      "chip": "ym2612"
    },
    {
      "channel": 3,
      "note": 86,
      "start": 29.5746,
      "duration": 0.0161,
      "velocity": 86,
      "chip": "ym2612"
    },
    {
      "channel": 2,
      "note": 52,
      "start": 29.5759,
      "duration": 0.016,
      "velocity": 93,
      "chip": "ym2612"
    },
    {
      "channel": 1,
      "note": 80,
      "start": 29.5771,
      "duration": 0.016,
      "velocity": 98,
      "chip": "ym2612"
    },
    {
      "channel": 0,
      "note": 37,
      "start": 29.5873,
      "duration": 0.0163,
      "velocity": 115,
      "chip": "ym2612"
    },
    {
      "channel": 5,
      "note": 85,
      "start": 29.5884,
      "duration": 0.0163,
      "velocity": 98,
      "chip": "ym2612"
    },
    {
      "channel": 4,
      "note": 86,
      "start": 29.5896,
      "duration": 0.0162,
      "velocity": 86,
      "chip": "ym2612"
    },
    {
      "channel": 3,
      "note": 86,
      "start": 29.5907,
      "duration": 0.0163,
      "velocity": 86,
      "chip": "ym2612"
    },
    {
      "channel": 2,
      "note": 52,
      "start": 29.592,
      "duration": 0.0162,
      "velocity": 93,
      "chip": "ym2612"
    },
    {
      "channel": 1,
      "note": 80,
      "start": 29.5931,
      "duration": 0.0163,
      "velocity": 98,
      "chip": "ym2612"
    },
    {
      "channel": 0,
      "note": 37,
      "start": 29.6035,
      "duration": 0.0163,
      "velocity": 115,
      "chip": "ym2612"
    },
    {
      "channel": 5,
      "note": 85,
      "start": 29.6047,
      "duration": 0.0163,
      "velocity": 98,
      "chip": "ym2612"
    },
    {
      "channel": 4,
      "note": 86,
      "start": 29.6058,
      "duration": 0.0163,
      "velocity": 86,
      "chip": "ym2612"
    },
    {
      "channel": 3,
      "note": 86,
      "start": 29.607,
      "duration": 0.0163,
      "velocity": 86,
      "chip": "ym2612"
    },
    {
      "channel": 2,
      "note": 52,
      "start": 29.6082,
      "duration": 0.0163,
      "velocity": 93,
      "chip": "ym2612"
    },
    {
      "channel": 1,
      "note": 80,
      "start": 29.6094,
      "duration": 0.0163,
      "velocity": 98,
      "chip": "ym2612"
    },
    {
      "channel": 0,
      "note": 38,
      "start": 29.6198,
      "duration": 0.0163,
      "velocity": 115,
      "chip": "ym2612"
    },
    {
      "channel": 5,
      "note": 85,
      "start": 29.621,
      "duration": 0.0162,
      "velocity": 98,
      "chip": "ym2612"
    },
    {
      "channel": 4,
      "note": 86,
      "start": 29.6222,
      "duration": 0.0163,
      "velocity": 86,
      "chip": "ym2612"
    },
    {
      "channel": 3,
      "note": 86,
      "start": 29.6234,
      "duration": 0.0162,
      "velocity": 86,
      "chip": "ym2612"
    },
    {
      "channel": 2,
      "note": 52,
      "start": 29.6245,
      "duration": 0.0163,
      "velocity": 93,
      "chip": "ym2612"
    },
    {
      "channel": 1,
      "note": 80,
      "start": 29.6257,
      "duration": 0.0162,
      "velocity": 98,
      "chip": "ym2612"
    },
    {
      "channel": 0,
      "note": 38,
      "start": 29.6361,
      "duration": 0.0161,
      "velocity": 115,
      "chip": "ym2612"
    },
    {
      "channel": 5,
      "note": 85,
      "start": 29.6373,
      "duration": 0.0161,
      "velocity": 98,
      "chip": "ym2612"
    },
    {
      "channel": 4,
      "note": 86,
      "start": 29.6385,
      "duration": 0.0161,
      "velocity": 86,
      "chip": "ym2612"
    },
    {
      "channel": 3,
      "note": 86,
      "start": 29.6396,
      "duration": 0.0161,
      "velocity": 86,
      "chip": "ym2612"
    },
    {
      "channel": 2,
      "note": 52,
      "start": 29.6408,
      "duration": 0.0161,
      "velocity": 93,
      "chip": "ym2612"
    },
    {
      "channel": 1,
      "note": 80,
      "start": 29.642,
      "duration": 0.0161,
      "velocity": 98,
      "chip": "ym2612"
    },
    {
      "channel": 0,
      "note": 39,
      "start": 29.6522,
      "duration": 0.016,
      "velocity": 115,
      "chip": "ym2612"
    },
    {
      "channel": 5,
      "note": 85,
      "start": 29.6533,
      "duration": 0.0161,
      "velocity": 98,
      "chip": "ym2612"
    },
    {
      "channel": 4,
      "note": 86,
      "start": 29.6546,
      "duration": 0.0161,
      "velocity": 86,
      "chip": "ym2612"
    },
    {
      "channel": 3,
      "note": 86,
      "start": 29.6557,
      "duration": 0.0161,
      "velocity": 86,
      "chip": "ym2612"
    },
    {
      "channel": 2,
      "note": 52,
      "start": 29.6569,
      "duration": 0.0161,
      "velocity": 93,
      "chip": "ym2612"
    },
    {
      "channel": 1,
      "note": 80,
      "start": 29.658,
      "duration": 0.0161,
      "velocity": 98,
      "chip": "ym2612"
    },
    {
      "channel": 0,
      "note": 39,
      "start": 29.6682,
      "duration": 0.0156,
      "velocity": 115,
      "chip": "ym2612"
    },
    {
      "channel": 5,
      "note": 85,
      "start": 29.6694,
      "duration": 0.0161,
      "velocity": 98,
      "chip": "ym2612"
    },
    {
      "channel": 4,
      "note": 86,
      "start": 29.6706,
      "duration": 0.0161,
      "velocity": 86,
      "chip": "ym2612"
    },
    {
      "channel": 3,
      "note": 86,
      "start": 29.6718,
      "duration": 0.0162,
      "velocity": 86,
      "chip": "ym2612"
    },
    {
      "channel": 2,
      "note": 52,
      "start": 29.673,
      "duration": 0.0161,
      "velocity": 93,
      "chip": "ym2612"
    },
    {
      "channel": 1,
      "note": 80,
      "start": 29.6741,
      "duration": 0.0161,
      "velocity": 98,
      "chip": "ym2612"
    },
    {
      "channel": 0,
      "note": 40,
      "start": 29.6838,
      "duration": 0.0161,
      "velocity": 115,
      "chip": "ym2612"
    },
    {
      "channel": 5,
      "note": 85,
      "start": 29.6855,
      "duration": 0.016,
      "velocity": 98,
      "chip": "ym2612"
    },
    {
      "channel": 4,
      "note": 86,
      "start": 29.6867,
      "duration": 0.0161,
      "velocity": 86,
      "chip": "ym2612"
    },
    {
      "channel": 3,
      "note": 86,
      "start": 29.688,
      "duration": 0.0161,
      "velocity": 86,
      "chip": "ym2612"
    },
    {
      "channel": 2,
      "note": 52,
      "start": 29.6891,
      "duration": 0.0162,
      "velocity": 93,
      "chip": "ym2612"
    },
    {
      "channel": 1,
      "note": 80,
      "start": 29.6903,
      "duration": 0.0161,
      "velocity": 98,
      "chip": "ym2612"
    },
    {
      "channel": 0,
      "note": 40,
      "start": 29.6999,
      "duration": 0.0161,
      "velocity": 115,
      "chip": "ym2612"
    },
    {
      "channel": 5,
      "note": 85,
      "start": 29.7016,
      "duration": 0.0156,
      "velocity": 98,
      "chip": "ym2612"
    },
    {
      "channel": 4,
      "note": 86,
      "start": 29.7028,
      "duration": 0.016,
      "velocity": 86,
      "chip": "ym2612"
    },
    {
      "channel": 3,
      "note": 86,
      "start": 29.704,
      "duration": 0.0161,
      "velocity": 86,
      "chip": "ym2612"
    },
    {
      "channel": 2,
      "note": 52,
      "start": 29.7053,
      "duration": 0.0161,
      "velocity": 93,
      "chip": "ym2612"
    },
    {
      "channel": 1,
      "note": 80,
      "start": 29.7064,
      "duration": 0.0161,
      "velocity": 98,
      "chip": "ym2612"
    },
    {
      "channel": 0,
      "note": 40,
      "start": 29.716,
      "duration": 0.0161,
      "velocity": 115,
      "chip": "ym2612"
    },
    {
      "channel": 4,
      "note": 86,
      "start": 29.7189,
      "duration": 0.0164,
      "velocity": 86,
      "chip": "ym2612"
    },
    {
      "channel": 3,
      "note": 86,
      "start": 29.7201,
      "duration": 0.0164,
      "velocity": 86,
      "chip": "ym2612"
    },
    {
      "channel": 2,
      "note": 52,
      "start": 29.7213,
      "duration": 0.0164,
      "velocity": 93,
      "chip": "ym2612"
    },
    {
      "channel": 1,
      "note": 80,
      "start": 29.7225,
      "duration": 0.0165,
      "velocity": 98,
      "chip": "ym2612"
    },
    {
      "channel": 0,
      "note": 41,
      "start": 29.7321,
      "duration": 0.018,
      "velocity": 115,
      "chip": "ym2612"
    },
    {
      "channel": 5,
      "note": 83,
      "start": 29.7336,
      "duration": 0.0183,
      "velocity": 98,
      "chip": "ym2612"
    },
    {
      "channel": 4,
      "note": 86,
      "start": 29.7353,
      "duration": 0.0178,
      "velocity": 86,
      "chip": "ym2612"
    },
    {
      "channel": 2,
      "note": 52,
      "start": 29.7378,
      "duration": 0.018,
      "velocity": 93,
      "chip": "ym2612"
    },
    {
      "channel": 1,
      "note": 80,
      "start": 29.739,
      "duration": 0.018,
      "velocity": 98,
      "chip": "ym2612"
    },
    {
      "channel": 0,
      "note": 36,
      "start": 29.75,
      "duration": 0.0143,
      "velocity": 115,
      "chip": "ym2612"
    },
    {
      "channel": 5,
      "note": 83,
      "start": 29.7518,
      "duration": 0.0137,
      "velocity": 98,
      "chip": "ym2612"
    },
    {
      "channel": 4,
      "note": 86,
      "start": 29.7531,
      "duration": 0.0137,
      "velocity": 86,
      "chip": "ym2612"
    },
    {
      "channel": 3,
      "note": 76,
      "start": 29.7546,
      "duration": 0.0139,
      "velocity": 86,
      "chip": "ym2612"
    },
    {
      "channel": 2,
      "note": 52,
      "start": 29.7558,
      "duration": 0.014,
      "velocity": 93,
      "chip": "ym2612"
    },
    {
      "channel": 1,
      "note": 80,
      "start": 29.7569,
      "duration": 0.014,
      "velocity": 98,
      "chip": "ym2612"
    },
    {
      "channel": 0,
      "note": 36,
      "start": 29.7644,
      "duration": 0.016,
      "velocity": 115,
      "chip": "ym2612"
    },
    {
      "channel": 4,
      "note": 86,
      "start": 29.7668,
      "duration": 0.0163,
      "velocity": 86,
      "chip": "ym2612"
    },
    {
      "channel": 3,
      "note": 76,
      "start": 29.7685,
      "duration": 0.0159,
      "velocity": 86,
      "chip": "ym2612"
    },
    {
      "channel": 2,
      "note": 52,
      "start": 29.7698,
      "duration": 0.0162,
      "velocity": 93,
      "chip": "ym2612"
    },
    {
      "channel": 1,
      "note": 80,
      "start": 29.7709,
      "duration": 0.0162,
      "velocity": 98,
      "chip": "ym2612"
    },
    {
      "channel": 0,
      "note": 37,
      "start": 29.7804,
      "duration": 0.0161,
      "velocity": 115,
      "chip": "ym2612"
    },
    {
      "channel": 5,
      "note": 82,
      "start": 29.7818,
      "duration": 0.0159,
      "velocity": 98,
      "chip": "ym2612"
    },
    {
      "channel": 3,
      "note": 76,
      "start": 29.7844,
      "duration": 0.016,
      "velocity": 86,
      "chip": "ym2612"
    },
    {
      "channel": 2,
      "note": 52,
      "start": 29.786,
      "duration": 0.0162,
      "velocity": 93,
      "chip": "ym2612"
    },
    {
      "channel": 1,
      "note": 80,
      "start": 29.7871,
      "duration": 0.0162,
      "velocity": 98,
      "chip": "ym2612"
    },
    {
      "channel": 0,
      "note": 37,
      "start": 29.7965,
      "duration": 0.0161,
      "velocity": 115,
      "chip": "ym2612"
    },
    {
      "channel": 5,
      "note": 82,
      "start": 29.7978,
      "duration": 0.016,
      "velocity": 98,
      "chip": "ym2612"
    },
    {
      "channel": 4,
      "note": 76,
      "start": 29.7993,
      "duration": 0.0157,
      "velocity": 86,
      "chip": "ym2612"
    },
    {
      "channel": 3,
      "note": 76,
      "start": 29.8004,
      "duration": 0.0158,
      "velocity": 86,
      "chip": "ym2612"
    },
    {
      "channel": 2,
      "note": 52,
      "start": 29.8022,
      "duration": 0.0155,
      "velocity": 93,
      "chip": "ym2612"
    },
    {
      "channel": 1,
      "note": 80,
      "start": 29.8033,
      "duration": 0.0159,
      "velocity": 98,
      "chip": "ym2612"
    },
    {
      "channel": 0,
      "note": 38,
      "start": 29.8126,
      "duration": 0.0162,
      "velocity": 115,
      "chip": "ym2612"
    },
    {
      "channel": 4,
      "note": 76,
      "start": 29.815,
      "duration": 0.0163,
      "velocity": 86,
      "chip": "ym2612"
    },
    {
      "channel": 3,
      "note": 76,
      "start": 29.8162,
      "duration": 0.0163,
      "velocity": 86,
      "chip": "ym2612"
    },
    {
      "channel": 2,
      "note": 52,
      "start": 29.8177,
      "duration": 0.0161,
      "velocity": 93,
      "chip": "ym2612"
    },
    {
      "channel": 1,
      "note": 80,
      "start": 29.8192,
      "duration": 0.0163,
      "velocity": 98,
      "chip": "ym2612"
    },
    {
      "channel": 0,
      "note": 38,
      "start": 29.8287,
      "duration": 0.0179,
      "velocity": 124,
      "chip": "ym2612"
    },
    {
      "channel": 5,
      "note": 81,
      "start": 29.8302,
      "duration": 0.0177,
      "velocity": 98,
      "chip": "ym2612"
    },
    {
      "channel": 4,
      "note": 76,
      "start": 29.8313,
      "duration": 0.0177,
      "velocity": 86,
      "chip": "ym2612"
    },
    {
      "channel": 2,
      "note": 52,
      "start": 29.8337,
      "duration": 0.0188,
      "velocity": 93,
      "chip": "ym2612"
    },
    {
      "channel": 1,
      "note": 80,
      "start": 29.8355,
      "duration": 0.0182,
      "velocity": 98,
      "chip": "ym2612"
    },
    {
      "channel": 0,
      "note": 84,
      "start": 29.8467,
      "duration": 0.0143,
      "velocity": 124,
      "chip": "ym2612"
    },
    {
      "channel": 5,
      "note": 81,
      "start": 29.8479,
      "duration": 0.0143,
      "velocity": 98,
      "chip": "ym2612"
    },
    {
      "channel": 4,
      "note": 76,
      "start": 29.849,
      "duration": 0.0143,
      "velocity": 86,
      "chip": "ym2612"
    },
    {
      "channel": 3,
      "note": 80,
      "start": 29.8505,
      "duration": 0.014,
      "velocity": 86,
      "chip": "ym2612"
    },
    {
      "channel": 2,
      "note": 52,
      "start": 29.8526,
      "duration": 0.0132,
      "velocity": 93,
      "chip": "ym2612"
    },
    {
      "channel": 1,
      "note": 80,
      "start": 29.8537,
      "duration": 0.0132,
      "velocity": 98,
      "chip": "ym2612"
    },
    {
      "channel": 0,
      "note": 82,
      "start": 29.861,
      "duration": 0.016,
      "velocity": 124,
      "chip": "ym2612"
    },
    {
      "channel": 4,
      "note": 76,
      "start": 29.8633,
      "duration": 0.0164,
      "velocity": 86,
      "chip": "ym2612"
    },
    {
      "channel": 3,
      "note": 80,
      "start": 29.8645,
      "duration": 0.0164,
      "velocity": 86,
      "chip": "ym2612"
    },
    {
      "channel": 2,
      "note": 52,
      "start": 29.8657,
      "duration": 0.0163,
      "velocity": 93,
      "chip": "ym2612"
    },
    {
      "channel": 1,
      "note": 80,
      "start": 29.867,
      "duration": 0.0163,
      "velocity": 98,
      "chip": "ym2612"
    },
    {
      "channel": 0,
      "note": 80,
      "start": 29.877,
      "duration": 0.0161,
      "velocity": 124,
      "chip": "ym2612"
    },
    {
      "channel": 5,
      "note": 80,
      "start": 29.8786,
      "duration": 0.0158,
      "velocity": 98,
      "chip": "ym2612"
    },
    {
      "channel": 3,
      "note": 80,
      "start": 29.881,
      "duration": 0.016,
      "velocity": 86,
      "chip": "ym2612"
    },
    {
      "channel": 2,
      "note": 52,
      "start": 29.8821,
      "duration": 0.016,
      "velocity": 93,
      "chip": "ym2612"
    },
    {
      "channel": 1,
      "note": 80,
      "start": 29.8832,
      "duration": 0.0161,
      "velocity": 98,
      "chip": "ym2612"
    },
    {
      "channel": 0,
      "note": 77,
      "start": 29.8931,
      "duration": 0.0161,
      "velocity": 124,
      "chip": "ym2612"
    },
    {
      "channel": 5,
      "note": 80,
      "start": 29.8944,
      "duration": 0.016,
      "velocity": 98,
      "chip": "ym2612"
    },
    {
      "channel": 4,
      "note": 80,
      "start": 29.8958,
      "duration": 0.0158,
      "velocity": 86,
      "chip": "ym2612"
    },
    {
      "channel": 3,
      "note": 80,
      "start": 29.897,
      "duration": 0.0158,
      "velocity": 86,
      "chip": "ym2612"
    },
    {
      "channel": 2,
      "note": 52,
      "start": 29.8981,
      "duration": 0.0159,
      "velocity": 93,
      "chip": "ym2612"
    },
    {
      "channel": 1,
      "note": 80,
      "start": 29.8993,
      "duration": 0.0158,
      "velocity": 98,
      "chip": "ym2612"
    },
    {
      "channel": 0,
      "note": 75,
      "start": 29.9092,
      "duration": 0.0161,
      "velocity": 124,
      "chip": "ym2612"
    },
    {
      "channel": 5,
      "note": 80,
      "start": 29.9104,
      "duration": 0.0161,
      "velocity": 98,
      "chip": "ym2612"
    },
    {
      "channel": 4,
      "note": 80,
      "start": 29.9116,
      "duration": 0.016,
      "velocity": 86,
      "chip": "ym2612"
    },
    {
      "channel": 3,
      "note": 80,
      "start": 29.9128,
      "duration": 0.016,
      "velocity": 86,
      "chip": "ym2612"
    },
    {
      "channel": 2,
      "note": 52,
      "start": 29.914,
      "duration": 0.016,
      "velocity": 93,
      "chip": "ym2612"
    },
    {
      "channel": 1,
      "note": 80,
      "start": 29.9151,
      "duration": 0.016,
      "velocity": 98,
      "chip": "ym2612"
    },
    {
      "channel": 0,
      "note": 72,
      "start": 29.9253,
      "duration": 0.0161,
      "velocity": 124,
      "chip": "ym2612"
    },
    {
      "channel": 5,
      "note": 80,
      "start": 29.9265,
      "duration": 0.0161,
      "velocity": 98,
      "chip": "ym2612"
    },
    {
      "channel": 4,
      "note": 80,
      "start": 29.9276,
      "duration": 0.0161,
      "velocity": 86,
      "chip": "ym2612"
    },
    {
      "channel": 3,
      "note": 80,
      "start": 29.9288,
      "duration": 0.0161,
      "velocity": 86,
      "chip": "ym2612"
    },
    {
      "channel": 2,
      "note": 52,
      "start": 29.93,
      "duration": 0.0161,
      "velocity": 93,
      "chip": "ym2612"
    },
    {
      "channel": 1,
      "note": 80,
      "start": 29.9311,
      "duration": 0.0161,
      "velocity": 98,
      "chip": "ym2612"
    },
    {
      "channel": 0,
      "note": 70,
      "start": 29.9414,
      "duration": 0.0161,
      "velocity": 124,
      "chip": "ym2612"
    },
    {
      "channel": 5,
      "note": 80,
      "start": 29.9426,
      "duration": 0.0161,
      "velocity": 98,
      "chip": "ym2612"
    },
    {
      "channel": 4,
      "note": 80,
      "start": 29.9437,
      "duration": 0.0161,
      "velocity": 86,
      "chip": "ym2612"
    },
    {
      "channel": 3,
      "note": 80,
      "start": 29.9449,
      "duration": 0.0161,
      "velocity": 86,
      "chip": "ym2612"
    },
    {
      "channel": 2,
      "note": 52,
      "start": 29.9461,
      "duration": 0.0161,
      "velocity": 93,
      "chip": "ym2612"
    },
    {
      "channel": 1,
      "note": 80,
      "start": 29.9472,
      "duration": 0.0161,
      "velocity": 98,
      "chip": "ym2612"
    },
    {
      "channel": 0,
      "note": 68,
      "start": 29.9575,
      "duration": 0.0161,
      "velocity": 124,
      "chip": "ym2612"
    },
    {
      "channel": 5,
      "note": 80,
      "start": 29.9587,
      "duration": 0.0161,
      "velocity": 98,
      "chip": "ym2612"
    },
    {
      "channel": 4,
      "note": 80,
      "start": 29.9598,
      "duration": 0.0161,
      "velocity": 86,
      "chip": "ym2612"
    },
    {
      "channel": 3,
      "note": 80,
      "start": 29.961,
      "duration": 0.0161,
      "velocity": 86,
      "chip": "ym2612"
    },
    {
      "channel": 2,
      "note": 52,
      "start": 29.9622,
      "duration": 0.0161,
      "velocity": 93,
      "chip": "ym2612"
    },
    {
      "channel": 1,
      "note": 80,
      "start": 29.9633,
      "duration": 0.0161,
      "velocity": 98,
      "chip": "ym2612"
    },
    {
      "channel": 0,
      "note": 65,
      "start": 29.9736,
      "duration": 0.0161,
      "velocity": 124,
      "chip": "ym2612"
    },
    {
      "channel": 5,
      "note": 80,
      "start": 29.9748,
      "duration": 0.0161,
      "velocity": 98,
      "chip": "ym2612"
    },
    {
      "channel": 4,
      "note": 80,
      "start": 29.9759,
      "duration": 0.0162,
      "velocity": 86,
      "chip": "ym2612"
    },
    {
      "channel": 3,
      "note": 80,
      "start": 29.9771,
      "duration": 0.0161,
      "velocity": 86,
      "chip": "ym2612"
    },
    {
      "channel": 2,
      "note": 52,
      "start": 29.9783,
      "duration": 0.0162,
      "velocity": 93,
      "chip": "ym2612"
    },
    {
      "channel": 1,
      "note": 80,
      "start": 29.9794,
      "duration": 0.0162,
      "velocity": 98,
      "chip": "ym2612"
    },
    {
      "channel": 0,
      "note": 63,
      "start": 29.9897,
      "duration": 0.0153,
      "velocity": 1,
      "chip": "ym2612"
    },
    {
      "channel": 5,
      "note": 80,
      "start": 29.9909,
      "duration": 0.0153,
      "velocity": 98,
      "chip": "ym2612"
    },
    {
      "channel": 4,
      "note": 80,
      "start": 29.9921,
      "duration": 0.0153,
      "velocity": 86,
      "chip": "ym2612"
    },
    {
      "channel": 3,
      "note": 80,
      "start": 29.9932,
      "duration": 0.0153,
      "velocity": 86,
      "chip": "ym2612"
    },
    {
      "channel": 2,
      "note": 52,
      "start": 29.9945,
      "duration": 0.0152,
      "velocity": 93,
      "chip": "ym2612"
    },
    {
      "channel": 1,
      "note": 80,
      "start": 29.9956,
      "duration": 0.0153,
      "velocity": 98,
      "chip": "ym2612"
    },
    {
      "channel": 5,
      "note": 80,
      "start": 30.0061,
      "duration": 0.0153,
      "velocity": 98,
      "chip": "ym2612"
    },
    {
      "channel": 4,
      "note": 80,
      "start": 30.0073,
      "duration": 0.0153,
      "velocity": 86,
      "chip": "ym2612"
    },
    {
      "channel": 3,
      "note": 80,
      "start": 30.0085,
      "duration": 0.0153,
      "velocity": 86,
      "chip": "ym2612"
    },
    {
      "channel": 2,
      "note": 52,
      "start": 30.0097,
      "duration": 0.0153,
      "velocity": 93,
      "chip": "ym2612"
    },
    {
      "channel": 1,
      "note": 80,
      "start": 30.0109,
      "duration": 0.0153,
      "velocity": 98,
      "chip": "ym2612"
    },
    {
      "channel": 5,
      "note": 80,
      "start": 30.0214,
      "duration": 0.0161,
      "velocity": 98,
      "chip": "ym2612"
    },
    {
      "channel": 4,
      "note": 80,
      "start": 30.0226,
      "duration": 0.0161,
      "velocity": 86,
      "chip": "ym2612"
    },
    {
      "channel": 2,
      "note": 52,
      "start": 30.025,
      "duration": 0.0163,
      "velocity": 93,
      "chip": "ym2612"
    },
    {
      "channel": 1,
      "note": 80,
      "start": 30.0262,
      "duration": 0.0163,
      "velocity": 98,
      "chip": "ym2612"
    },
    {
      "channel": 5,
      "note": 80,
      "start": 30.0375,
      "duration": 0.0161,
      "velocity": 98,
      "chip": "ym2612"
    },
    {
      "channel": 4,
      "note": 80,
      "start": 30.0387,
      "duration": 0.0161,
      "velocity": 86,
      "chip": "ym2612"
    },
    {
      "channel": 3,
      "note": 86,
      "start": 30.0402,
      "duration": 0.0158,
      "velocity": 86,
      "chip": "ym2612"
    },
    {
      "channel": 2,
      "note": 52,
      "start": 30.0413,
      "duration": 0.0159,
      "velocity": 93,
      "chip": "ym2612"
    },
    {
      "channel": 1,
      "note": 80,
      "start": 30.0425,
      "duration": 0.0159,
      "velocity": 98,
      "chip": "ym2612"
    },
    {
      "channel": 5,
      "note": 80,
      "start": 30.0536,
      "duration": 0.0161,
      "velocity": 98,
      "chip": "ym2612"
    },
    {
      "channel": 4,
      "note": 80,
      "start": 30.0548,
      "duration": 0.0161,
      "velocity": 86,
      "chip": "ym2612"
    },
    {
      "channel": 3,
      "note": 86,
      "start": 30.056,
      "duration": 0.0162,
      "velocity": 86,
      "chip": "ym2612"
    },
    {
      "channel": 2,
      "note": 52,
      "start": 30.0572,
      "duration": 0.0161,
      "velocity": 93,
      "chip": "ym2612"
    },
    {
      "channel": 1,
      "note": 80,
      "start": 30.0584,
      "duration": 0.0161,
      "velocity": 98,
      "chip": "ym2612"
    },
    {
      "channel": 5,
      "note": 80,
      "start": 30.0698,
      "duration": 0.0164,
      "velocity": 98,
      "chip": "ym2612"
    },
    {
      "channel": 3,
      "note": 86,
      "start": 30.0722,
      "duration": 0.0167,
      "velocity": 86,
      "chip": "ym2612"
    },
    {
      "channel": 2,
      "note": 52,
      "start": 30.0733,
      "duration": 0.0167,
      "velocity": 93,
      "chip": "ym2612"
    },
    {
      "channel": 1,
      "note": 80,
      "start": 30.0745,
      "duration": 0.0167,
      "velocity": 98,
      "chip": "ym2612"
    },
    {
      "channel": 5,
      "note": 80,
      "start": 30.0862,
      "duration": 0.0163,
      "velocity": 98,
      "chip": "ym2612"
    },
    {
      "channel": 4,
      "note": 86,
      "start": 30.0877,
      "duration": 0.016,
      "velocity": 86,
      "chip": "ym2612"
    },
    {
      "channel": 3,
      "note": 86,
      "start": 30.0888,
      "duration": 0.016,
      "velocity": 86,
      "chip": "ym2612"
    },
    {
      "channel": 2,
      "note": 52,
      "start": 30.09,
      "duration": 0.0161,
      "velocity": 93,
      "chip": "ym2612"
    },
    {
      "channel": 1,
      "note": 80,
      "start": 30.0912,
      "duration": 0.0161,
      "velocity": 98,
      "chip": "ym2612"
    },
    {
      "channel": 5,
      "note": 80,
      "start": 30.1025,
      "duration": 0.016,
      "velocity": 98,
      "chip": "ym2612"
    },
    {
      "channel": 4,
      "note": 86,
      "start": 30.1037,
      "duration": 0.016,
      "velocity": 86,
      "chip": "ym2612"
    },
    {
      "channel": 3,
      "note": 86,
      "start": 30.1049,
      "duration": 0.016,
      "velocity": 86,
      "chip": "ym2612"
    },
    {
      "channel": 2,
      "note": 52,
      "start": 30.1061,
      "duration": 0.016,
      "velocity": 93,
      "chip": "ym2612"
    },
    {
      "channel": 1,
      "note": 80,
      "start": 30.1073,
      "duration": 0.016,
      "velocity": 98,
      "chip": "ym2612"
    },
    {
      "channel": 5,
      "note": 80,
      "start": 30.1185,
      "duration": 0.0197,
      "velocity": 98,
      "chip": "ym2612"
    },
    {
      "channel": 4,
      "note": 86,
      "start": 30.1198,
      "duration": 0.0197,
      "velocity": 86,
      "chip": "ym2612"
    },
    {
      "channel": 3,
      "note": 86,
      "start": 30.1209,
      "duration": 0.0197,
      "velocity": 86,
      "chip": "ym2612"
    },
    {
      "channel": 2,
      "note": 52,
      "start": 30.1222,
      "duration": 0.0198,
      "velocity": 93,
      "chip": "ym2612"
    },
    {
      "channel": 1,
      "note": 80,
      "start": 30.1233,
      "duration": 0.0199,
      "velocity": 98,
      "chip": "ym2612"
    },
    {
      "channel": 0,
      "note": 36,
      "start": 30.1371,
      "duration": 0.0143,
      "velocity": 115,
      "chip": "ym2612"
    },
    {
      "channel": 5,
      "note": 80,
      "start": 30.1382,
      "duration": 0.0143,
      "velocity": 98,
      "chip": "ym2612"
    },
    {
      "channel": 4,
      "note": 86,
      "start": 30.1394,
      "duration": 0.0143,
      "velocity": 86,
      "chip": "ym2612"
    },
    {
      "channel": 3,
      "note": 86,
      "start": 30.1406,
      "duration": 0.0143,
      "velocity": 86,
      "chip": "ym2612"
    },
    {
      "channel": 2,
      "note": 57,
      "start": 30.142,
      "duration": 0.0141,
      "velocity": 93,
      "chip": "ym2612"
    },
    {
      "channel": 1,
      "note": 80,
      "start": 30.1432,
      "duration": 0.0141,
      "velocity": 98,
      "chip": "ym2612"
    },
    {
      "channel": 0,
      "note": 36,
      "start": 30.1513,
      "duration": 0.0155,
      "velocity": 115,
      "chip": "ym2612"
    },
    {
      "channel": 5,
      "note": 80,
      "start": 30.1525,
      "duration": 0.016,
      "velocity": 98,
      "chip": "ym2612"
    },
    {
      "channel": 4,
      "note": 86,
      "start": 30.1537,
      "duration": 0.016,
      "velocity": 86,
      "chip": "ym2612"
    },
    {
      "channel": 3,
      "note": 86,
      "start": 30.1549,
      "duration": 0.016,
      "velocity": 86,
      "chip": "ym2612"
    },
    {
      "channel": 2,
      "note": 57,
      "start": 30.1561,
      "duration": 0.016,
      "velocity": 93,
      "chip": "ym2612"
    },
    {
      "channel": 1,
      "note": 80,
      "start": 30.1573,
      "duration": 0.016,
      "velocity": 98,
      "chip": "ym2612"
    },
    {
      "channel": 0,
      "note": 37,
      "start": 30.1668,
      "duration": 0.0161,
      "velocity": 115,
      "chip": "ym2612"
    },
    {
      "channel": 5,
      "note": 80,
      "start": 30.1685,
      "duration": 0.0158,
      "velocity": 98,
      "chip": "ym2612"
    },
    {
      "channel": 4,
      "note": 86,
      "start": 30.1698,
      "duration": 0.0161,
      "velocity": 86,
      "chip": "ym2612"
    },
    {
      "channel": 3,
      "note": 86,
      "start": 30.1709,
      "duration": 0.0161,
      "velocity": 86,
      "chip": "ym2612"
    },
    {
      "channel": 2,
      "note": 57,
      "start": 30.1721,
      "duration": 0.0161,
      "velocity": 93,
      "chip": "ym2612"
    },
    {
      "channel": 1,
      "note": 80,
      "start": 30.1732,
      "duration": 0.0162,
      "velocity": 98,
      "chip": "ym2612"
    },
    {
      "channel": 0,
      "note": 37,
      "start": 30.1829,
      "duration": 0.0161,
      "velocity": 115,
      "chip": "ym2612"
    },
    {
      "channel": 5,
      "note": 80,
      "start": 30.1843,
      "duration": 0.0159,
      "velocity": 98,
      "chip": "ym2612"
    },
    {
      "channel": 4,
      "note": 86,
      "start": 30.1859,
      "duration": 0.0161,
      "velocity": 86,
      "chip": "ym2612"
    },
    {
      "channel": 3,
      "note": 86,
      "start": 30.1871,
      "duration": 0.0161,
      "velocity": 86,
      "chip": "ym2612"
    },
    {
      "channel": 2,
      "note": 57,
      "start": 30.1882,
      "duration": 0.0161,
      "velocity": 93,
      "chip": "ym2612"
    },
    {
      "channel": 1,
      "note": 80,
      "start": 30.1894,
      "duration": 0.0161,
      "velocity": 98,
      "chip": "ym2612"
    },
    {
      "channel": 0,
      "note": 38,
      "start": 30.199,
      "duration": 0.0161,
      "velocity": 115,
      "chip": "ym2612"
    },
    {
      "channel": 5,
      "note": 80,
      "start": 30.2002,
      "duration": 0.0161,
      "velocity": 98,
      "chip": "ym2612"
    },
    {
      "channel": 4,
      "note": 86,
      "start": 30.202,
      "duration": 0.016,
      "velocity": 86,
      "chip": "ym2612"
    },
    {
      "channel": 3,
      "note": 86,
      "start": 30.2032,
      "duration": 0.0161,
      "velocity": 86,
      "chip": "ym2612"
    },
    {
      "channel": 2,
      "note": 57,
      "start": 30.2044,
      "duration": 0.0161,
      "velocity": 93,
      "chip": "ym2612"
    },
    {
      "channel": 1,
      "note": 80,
      "start": 30.2055,
      "duration": 0.0161,
      "velocity": 98,
      "chip": "ym2612"
    },
    {
      "channel": 0,
      "note": 38,
      "start": 30.2151,
      "duration": 0.0161,
      "velocity": 115,
      "chip": "ym2612"
    },
    {
      "channel": 5,
      "note": 80,
      "start": 30.2163,
      "duration": 0.0161,
      "velocity": 98,
      "chip": "ym2612"
    },
    {
      "channel": 4,
      "note": 86,
      "start": 30.218,
      "duration": 0.0155,
      "velocity": 86,
      "chip": "ym2612"
    },
    {
      "channel": 3,
      "note": 86,
      "start": 30.2193,
      "duration": 0.0161,
      "velocity": 86,
      "chip": "ym2612"
    },
    {
      "channel": 2,
      "note": 57,
      "start": 30.2205,
      "duration": 0.0161,
      "velocity": 93,
      "chip": "ym2612"
    },
    {
      "channel": 1,
      "note": 80,
      "start": 30.2216,
      "duration": 0.0161,
      "velocity": 98,
      "chip": "ym2612"
    },
    {
      "channel": 0,
      "note": 39,
      "start": 30.2312,
      "duration": 0.0161,
      "velocity": 115,
      "chip": "ym2612"
    },
    {
      "channel": 5,
      "note": 80,
      "start": 30.2324,
      "duration": 0.0161,
      "velocity": 98,
      "chip": "ym2612"
    },
    {
      "channel": 4,
      "note": 86,
      "start": 30.2336,
      "duration": 0.0161,
      "velocity": 86,
      "chip": "ym2612"
    },
    {
      "channel": 3,
      "note": 86,
      "start": 30.2354,
      "duration": 0.016,
      "velocity": 86,
      "chip": "ym2612"
    },
    {
      "channel": 2,
      "note": 57,
      "start": 30.2366,
      "duration": 0.0161,
      "velocity": 93,
      "chip": "ym2612"
    },
    {
      "channel": 1,
      "note": 80,
      "start": 30.2377,
      "duration": 0.0161,
      "velocity": 98,
      "chip": "ym2612"
    },
    {
      "channel": 0,
      "note": 39,
      "start": 30.2473,
      "duration": 0.0161,
      "velocity": 115,
      "chip": "ym2612"
    },
    {
      "channel": 5,
      "note": 80,
      "start": 30.2485,
      "duration": 0.0161,
      "velocity": 98,
      "chip": "ym2612"
    },
    {
      "channel": 4,
      "note": 86,
      "start": 30.2497,
      "duration": 0.0161,
      "velocity": 86,
      "chip": "ym2612"
    },
    {
      "channel": 3,
      "note": 86,
      "start": 30.2514,
      "duration": 0.0155,
      "velocity": 86,
      "chip": "ym2612"
    },
    {
      "channel": 2,
      "note": 57,
      "start": 30.2527,
      "duration": 0.0161,
      "velocity": 93,
      "chip": "ym2612"
    },
    {
      "channel": 1,
      "note": 80,
      "start": 30.2538,
      "duration": 0.0161,
      "velocity": 98,
      "chip": "ym2612"
    },
    {
      "channel": 0,
      "note": 40,
      "start": 30.2634,
      "duration": 0.0161,
      "velocity": 115,
      "chip": "ym2612"
    },
    {
      "channel": 5,
      "note": 80,
      "start": 30.2646,
      "duration": 0.0161,
      "velocity": 98,
      "chip": "ym2612"
    },
    {
      "channel": 4,
      "note": 86,
      "start": 30.2657,
      "duration": 0.0162,
      "velocity": 86,
      "chip": "ym2612"
    },
    {
      "channel": 3,
      "note": 86,
      "start": 30.267,
      "duration": 0.0161,
      "velocity": 86,
      "chip": "ym2612"
    },
    {
      "channel": 2,
      "note": 57,
      "start": 30.2687,
      "duration": 0.0161,
      "velocity": 93,
      "chip": "ym2612"
    },
    {
      "channel": 1,
      "note": 80,
      "start": 30.2699,
      "duration": 0.0161,
      "velocity": 98,
      "chip": "ym2612"
    },
    {
      "channel": 0,
      "note": 40,
      "start": 30.2795,
      "duration": 0.0161,
      "velocity": 115,
      "chip": "ym2612"
    },
    {
      "channel": 5,
      "note": 80,
      "start": 30.2807,
      "duration": 0.0161,
      "velocity": 98,
      "chip": "ym2612"
    },
    {
      "channel": 4,
      "note": 86,
      "start": 30.2819,
      "duration": 0.0161,
      "velocity": 86,
      "chip": "ym2612"
    },
    {
      "channel": 3,
      "note": 86,
      "start": 30.2831,
      "duration": 0.0161,
      "velocity": 86,
      "chip": "ym2612"
    },
    {
      "channel": 2,
      "note": 57,
      "start": 30.2848,
      "duration": 0.0155,
      "velocity": 93,
      "chip": "ym2612"
    },
    {
      "channel": 1,
      "note": 80,
      "start": 30.286,
      "duration": 0.0161,
      "velocity": 98,
      "chip": "ym2612"
    },
    {
      "channel": 0,
      "note": 40,
      "start": 30.2956,
      "duration": 0.0161,
      "velocity": 115,
      "chip": "ym2612"
    },
    {
      "channel": 5,
      "note": 80,
      "start": 30.2968,
      "duration": 0.0161,
      "velocity": 98,
      "chip": "ym2612"
    },
    {
      "channel": 4,
      "note": 86,
      "start": 30.298,
      "duration": 0.0161,
      "velocity": 86,
      "chip": "ym2612"
    },
    {
      "channel": 3,
      "note": 86,
      "start": 30.2991,
      "duration": 0.0162,
      "velocity": 86,
      "chip": "ym2612"
    },
    {
      "channel": 2,
      "note": 57,
      "start": 30.3004,
      "duration": 0.0161,
      "velocity": 93,
      "chip": "ym2612"
    },
    {
      "channel": 1,
      "note": 80,
      "start": 30.3021,
      "duration": 0.0161,
      "velocity": 98,
      "chip": "ym2612"
    },
    {
      "channel": 0,
      "note": 41,
      "start": 30.3117,
      "duration": 0.0161,
      "velocity": 115,
      "chip": "ym2612"
    },
    {
      "channel": 5,
      "note": 80,
      "start": 30.3129,
      "duration": 0.0161,
      "velocity": 98,
      "chip": "ym2612"
    },
    {
      "channel": 4,
      "note": 86,
      "start": 30.3141,
      "duration": 0.0161,
      "velocity": 86,
      "chip": "ym2612"
    },
    {
      "channel": 2,
      "note": 57,
      "start": 30.3165,
      "duration": 0.0163,
      "velocity": 93,
      "chip": "ym2612"
    },
    {
      "channel": 1,
      "note": 80,
      "start": 30.3182,
      "duration": 0.016,
      "velocity": 98,
      "chip": "ym2612"
    },
    {
      "channel": 0,
      "note": 41,
      "start": 30.3278,
      "duration": 0.0161,
      "velocity": 115,
      "chip": "ym2612"
    },
    {
      "channel": 5,
      "note": 80,
      "start": 30.329,
      "duration": 0.0162,
      "velocity": 98,
      "chip": "ym2612"
    },
    {
      "channel": 4,
      "note": 86,
      "start": 30.3302,
      "duration": 0.0161,
      "velocity": 86,
      "chip": "ym2612"
    },
    {
      "channel": 3,
      "note": 76,
      "start": 30.3317,
      "duration": 0.0158,
      "velocity": 86,
      "chip": "ym2612"
    },
    {
      "channel": 2,
      "note": 57,
      "start": 30.3329,
      "duration": 0.0159,
      "velocity": 93,
      "chip": "ym2612"
    },
    {
      "channel": 1,
      "note": 80,
      "start": 30.3343,
      "duration": 0.0156,
      "velocity": 98,
      "chip": "ym2612"
    },
    {
      "channel": 0,
      "note": 42,
      "start": 30.3439,
      "duration": 0.0161,
      "velocity": 115,
      "chip": "ym2612"
    },
    {
      "channel": 5,
      "note": 80,
      "start": 30.3451,
      "duration": 0.0161,
      "velocity": 98,
      "chip": "ym2612"
    },
    {
      "channel": 4,
      "note": 86,
      "start": 30.3463,
      "duration": 0.0161,
      "velocity": 86,
      "chip": "ym2612"
    },
    {
      "channel": 3,
      "note": 76,
      "start": 30.3476,
      "duration": 0.016,
      "velocity": 86,
      "chip": "ym2612"
    },
    {
      "channel": 2,
      "note": 57,
      "start": 30.3487,
      "duration": 0.016,
      "velocity": 93,
      "chip": "ym2612"
    },
    {
      "channel": 1,
      "note": 80,
      "start": 30.3498,
      "duration": 0.0161,
      "velocity": 98,
      "chip": "ym2612"
    },
    {
      "channel": 0,
      "note": 42,
      "start": 30.36,
      "duration": 0.0161,
      "velocity": 115,
      "chip": "ym2612"
    },
    {
      "channel": 5,
      "note": 80,
      "start": 30.3612,
      "duration": 0.0161,
      "velocity": 98,
      "chip": "ym2612"
    },
    {
      "channel": 3,
      "note": 76,
      "start": 30.3636,
      "duration": 0.0164,
      "velocity": 86,
      "chip": "ym2612"
    },
    {
      "channel": 2,
      "note": 57,
      "start": 30.3647,
      "duration": 0.0164,
      "velocity": 93,
      "chip": "ym2612"
    },
    {
      "channel": 1,
      "note": 80,
      "start": 30.3659,
      "duration": 0.0163,
      "velocity": 98,
      "chip": "ym2612"
    },
    {
      "channel": 0,
      "note": 43,
      "start": 30.3761,
      "duration": 0.0161,
      "velocity": 115,
      "chip": "ym2612"
    },
    {
      "channel": 5,
      "note": 80,
      "start": 30.3773,
      "duration": 0.0161,
      "velocity": 98,
      "chip": "ym2612"
    },
    {
      "channel": 4,
      "note": 76,
      "start": 30.3788,
      "duration": 0.0158,
      "velocity": 86,
      "chip": "ym2612"
    },
    {
      "channel": 3,
      "note": 76,
      "start": 30.38,
      "duration": 0.0158,
      "velocity": 86,
      "chip": "ym2612"
    },
    {
      "channel": 2,
      "note": 57,
      "start": 30.3811,
      "duration": 0.0159,
      "velocity": 93,
      "chip": "ym2612"
    },
    {
      "channel": 1,
      "note": 80,
      "start": 30.3823,
      "duration": 0.0159,
      "velocity": 98,
      "chip": "ym2612"
    },
    {
      "channel": 0,
      "note": 43,
      "start": 30.3922,
      "duration": 0.0162,
      "velocity": 115,
      "chip": "ym2612"
    },
    {
      "channel": 5,
      "note": 80,
      "start": 30.3934,
      "duration": 0.0161,
      "velocity": 98,
      "chip": "ym2612"
    },
    {
      "channel": 4,
      "note": 76,
      "start": 30.3946,
      "duration": 0.016,
      "velocity": 86,
      "chip": "ym2612"
    },
    {
      "channel": 3,
      "note": 76,
      "start": 30.3958,
      "duration": 0.016,
      "velocity": 86,
      "chip": "ym2612"
    },
    {
      "channel": 2,
      "note": 57,
      "start": 30.3971,
      "duration": 0.016,
      "velocity": 93,
      "chip": "ym2612"
    },
    {
      "channel": 1,
      "note": 80,
      "start": 30.3982,
      "duration": 0.0161,
      "velocity": 98,
      "chip": "ym2612"
    },
    {
      "channel": 0,
      "note": 44,
      "start": 30.4084,
      "duration": 0.0179,
      "velocity": 124,
      "chip": "ym2612"
    },
    {
      "channel": 5,
      "note": 80,
      "start": 30.4095,
      "duration": 0.0179,
      "velocity": 98,
      "chip": "ym2612"
    },
    {
      "channel": 4,
      "note": 76,
      "start": 30.4107,
      "duration": 0.0179,
      "velocity": 86,
      "chip": "ym2612"
    },
    {
      "channel": 2,
      "note": 57,
      "start": 30.4131,
      "duration": 0.0184,
      "velocity": 93,
      "chip": "ym2612"
    },
    {
      "channel": 0,
      "note": 84,
      "start": 30.4263,
      "duration": 0.0143,
      "velocity": 124,
      "chip": "ym2612"
    },
    {
      "channel": 5,
      "note": 80,
      "start": 30.4275,
      "duration": 0.0143,
      "velocity": 98,
      "chip": "ym2612"
    },
    {
      "channel": 4,
      "note": 76,
      "start": 30.4286,
      "duration": 0.0143,
      "velocity": 86,
      "chip": "ym2612"
    },
    {
      "channel": 3,
      "note": 81,
      "start": 30.4301,
      "duration": 0.0141,
      "velocity": 86,
      "chip": "ym2612"
    },
    {
      "channel": 2,
      "note": 57,
      "start": 30.4315,
      "duration": 0.0139,
      "velocity": 93,
      "chip": "ym2612"
    },
    {
      "channel": 1,
      "note": 83,
      "start": 30.433,
      "duration": 0.0136,
      "velocity": 98,
      "chip": "ym2612"
    },
    {
      "channel": 0,
      "note": 82,
      "start": 30.4406,
      "duration": 0.016,
      "velocity": 124,
      "chip": "ym2612"
    },
    {
      "channel": 5,
      "note": 80,
      "start": 30.4418,
      "duration": 0.016,
      "velocity": 98,
      "chip": "ym2612"
    },
    {
      "channel": 4,
      "note": 76,
      "start": 30.4429,
      "duration": 0.0161,
      "velocity": 86,
      "chip": "ym2612"
    },
    {
      "channel": 3,
      "note": 81,
      "start": 30.4442,
      "duration": 0.016,
      "velocity": 86,
      "chip": "ym2612"
    },
    {
      "channel": 2,
      "note": 57,
      "start": 30.4454,
      "duration": 0.016,
      "velocity": 93,
      "chip": "ym2612"
    },
    {
      "channel": 1,
      "note": 83,
      "start": 30.4466,
      "duration": 0.0159,
      "velocity": 98,
      "chip": "ym2612"
    },
    {
      "channel": 0,
      "note": 80,
      "start": 30.4566,
      "duration": 0.0161,
      "velocity": 124,
      "chip": "ym2612"
    },
    {
      "channel": 5,
      "note": 80,
      "start": 30.4578,
      "duration": 0.0161,
      "velocity": 98,
      "chip": "ym2612"
    },
    {
      "channel": 3,
      "note": 81,
      "start": 30.4602,
      "duration": 0.0164,
      "velocity": 86,
      "chip": "ym2612"
    },
    {
      "channel": 2,
      "note": 57,
      "start": 30.4614,
      "duration": 0.0163,
      "velocity": 93,
      "chip": "ym2612"
    },
    {
      "channel": 1,
      "note": 83,
      "start": 30.4625,
      "duration": 0.0163,
      "velocity": 98,
      "chip": "ym2612"
    },
    {
      "channel": 0,
      "note": 77,
      "start": 30.4727,
      "duration": 0.0161,
      "velocity": 124,
      "chip": "ym2612"
    },
    {
      "channel": 5,
      "note": 80,
      "start": 30.4739,
      "duration": 0.0161,
      "velocity": 98,
      "chip": "ym2612"
    },
    {
      "channel": 4,
      "note": 81,
      "start": 30.4754,
      "duration": 0.0159,
      "velocity": 86,
      "chip": "ym2612"
    },
    {
      "channel": 3,
      "note": 81,
      "start": 30.4766,
      "duration": 0.0159,
      "velocity": 86,
      "chip": "ym2612"
    },
    {
      "channel": 2,
      "note": 57,
      "start": 30.4777,
      "duration": 0.0159,
      "velocity": 93,
      "chip": "ym2612"
    },
    {
      "channel": 1,
      "note": 83,
      "start": 30.4788,
      "duration": 0.0159,
      "velocity": 98,
      "chip": "ym2612"
    },
    {
      "channel": 0,
      "note": 75,
      "start": 30.4888,
      "duration": 0.0161,
      "velocity": 124,
      "chip": "ym2612"
    },
    {
      "channel": 5,
      "note": 80,
      "start": 30.49,
      "duration": 0.0161,
      "velocity": 98,
      "chip": "ym2612"
    },
    {
      "channel": 4,
      "note": 81,
      "start": 30.4912,
      "duration": 0.016,
      "velocity": 86,
      "chip": "ym2612"
    },
    {
      "channel": 3,
      "note": 81,
      "start": 30.4924,
      "duration": 0.016,
      "velocity": 86,
      "chip": "ym2612"
    },
    {
      "channel": 2,
      "note": 57,
      "start": 30.4936,
      "duration": 0.016,
      "velocity": 93,
      "chip": "ym2612"
    },
    {
      "channel": 1,
      "note": 83,
      "start": 30.4948,
      "duration": 0.016,
      "velocity": 98,
      "chip": "ym2612"
    },
    {
      "channel": 0,
      "note": 72,
      "start": 30.5049,
      "duration": 0.0161,
      "velocity": 124,
      "chip": "ym2612"
    },
    {
      "channel": 5,
      "note": 80,
      "start": 30.5061,
      "duration": 0.0161,
      "velocity": 98,
      "chip": "ym2612"
    },
    {
      "channel": 4,
      "note": 81,
      "start": 30.5073,
      "duration": 0.0161,
      "velocity": 86,
      "chip": "ym2612"
    },
    {
      "channel": 3,
      "note": 81,
      "start": 30.5084,
      "duration": 0.0161,
      "velocity": 86,
      "chip": "ym2612"
    },
    {
      "channel": 2,
      "note": 57,
      "start": 30.5096,
      "duration": 0.0161,
      "velocity": 93,
      "chip": "ym2612"
    },
    {
      "channel": 1,
      "note": 83,
      "start": 30.5108,
      "duration": 0.0161,
      "velocity": 98,
      "chip": "ym2612"
    },
    {
      "channel": 0,
      "note": 70,
      "start": 30.521,
      "duration": 0.0162,
      "velocity": 124,
      "chip": "ym2612"
    },
    {
      "channel": 5,
      "note": 80,
      "start": 30.5222,
      "duration": 0.0161,
      "velocity": 98,
      "chip": "ym2612"
    },
    {
      "channel": 4,
      "note": 81,
      "start": 30.5234,
      "duration": 0.0162,
      "velocity": 86,
      "chip": "ym2612"
    },
    {
      "channel": 3,
      "note": 81,
      "start": 30.5246,
      "duration": 0.0162,
      "velocity": 86,
      "chip": "ym2612"
    },
    {
      "channel": 2,
      "note": 57,
      "start": 30.5257,
      "duration": 0.0161,
      "velocity": 93,
      "chip": "ym2612"
    },
    {
      "channel": 1,
      "note": 83,
      "start": 30.5269,
      "duration": 0.0162,
      "velocity": 98,
      "chip": "ym2612"
    },
    {
      "channel": 0,
      "note": 68,
      "start": 30.5372,
      "duration": 0.0162,
      "velocity": 124,
      "chip": "ym2612"
    },
    {
      "channel": 5,
      "note": 80,
      "start": 30.5384,
      "duration": 0.0162,
      "velocity": 98,
      "chip": "ym2612"
    },
    {
      "channel": 4,
      "note": 81,
      "start": 30.5395,
      "duration": 0.0161,
      "velocity": 86,
      "chip": "ym2612"
    },
    {
      "channel": 3,
      "note": 81,
      "start": 30.5407,
      "duration": 0.0162,
      "velocity": 86,
      "chip": "ym2612"
    },
    {
      "channel": 2,
      "note": 57,
      "start": 30.5419,
      "duration": 0.0162,
      "velocity": 93,
      "chip": "ym2612"
    },
    {
      "channel": 1,
      "note": 83,
      "start": 30.543,
      "duration": 0.0162,
      "velocity": 98,
      "chip": "ym2612"
    },
    {
      "channel": 0,
      "note": 65,
      "start": 30.5534,
      "duration": 0.0163,
      "velocity": 124,
      "chip": "ym2612"
    },
    {
      "channel": 5,
      "note": 80,
      "start": 30.5546,
      "duration": 0.0163,
      "velocity": 98,
      "chip": "ym2612"
    },
    {
      "channel": 4,
      "note": 81,
      "start": 30.5557,
      "duration": 0.0164,
      "velocity": 86,
      "chip": "ym2612"
    },
    {
      "channel": 3,
      "note": 81,
      "start": 30.5569,
      "duration": 0.0163,
      "velocity": 86,
      "chip": "ym2612"
    },
    {
      "channel": 2,
      "note": 57,
      "start": 30.558,
      "duration": 0.0165,
      "velocity": 93,
      "chip": "ym2612"
    },
    {
      "channel": 1,
      "note": 83,
      "start": 30.5593,
      "duration": 0.0164,
      "velocity": 98,
      "chip": "ym2612"
    },
    {
      "channel": 0,
      "note": 63,
      "start": 30.5698,
      "duration": 0.0155,
      "velocity": 1,
      "chip": "ym2612"
    },
    {
      "channel": 5,
      "note": 80,
      "start": 30.5709,
      "duration": 0.0155,
      "velocity": 98,
      "chip": "ym2612"
    },
    {
      "channel": 4,
      "note": 81,
      "start": 30.5721,
      "duration": 0.0155,
      "velocity": 86,
      "chip": "ym2612"
    },
    {
      "channel": 3,
      "note": 81,
      "start": 30.5732,
      "duration": 0.0155,
      "velocity": 86,
      "chip": "ym2612"
    },
    {
      "channel": 2,
      "note": 57,
      "start": 30.5745,
      "duration": 0.0154,
      "velocity": 93,
      "chip": "ym2612"
    },
    {
      "channel": 1,
      "note": 83,
      "start": 30.5757,
      "duration": 0.0155,
      "velocity": 98,
      "chip": "ym2612"
    },
    {
      "channel": 5,
      "note": 80,
      "start": 30.5864,
      "duration": 0.0151,
      "velocity": 98,
      "chip": "ym2612"
    },
    {
      "channel": 4,
      "note": 81,
      "start": 30.5876,
      "duration": 0.0153,
      "velocity": 86,
      "chip": "ym2612"
    },
    {
      "channel": 3,
      "note": 81,
      "start": 30.5888,
      "duration": 0.0153,
      "velocity": 86,
      "chip": "ym2612"
    },
    {
      "channel": 2,
      "note": 57,
      "start": 30.59,
      "duration": 0.0153,
      "velocity": 93,
      "chip": "ym2612"
    },
    {
      "channel": 1,
      "note": 83,
      "start": 30.5912,
      "duration": 0.0153,
      "velocity": 98,
      "chip": "ym2612"
    },
    {
      "channel": 5,
      "note": 80,
      "start": 30.6016,
      "duration": 0.0158,
      "velocity": 98,
      "chip": "ym2612"
    },
    {
      "channel": 4,
      "note": 81,
      "start": 30.6028,
      "duration": 0.0161,
      "velocity": 86,
      "chip": "ym2612"
    },
    {
      "channel": 2,
      "note": 57,
      "start": 30.6053,
      "duration": 0.0163,
      "velocity": 93,
      "chip": "ym2612"
    },
    {
      "channel": 1,
      "note": 83,
      "start": 30.6065,
      "duration": 0.0163,
      "velocity": 98,
      "chip": "ym2612"
    },
    {
      "channel": 5,
      "note": 80,
      "start": 30.6173,
      "duration": 0.0159,
      "velocity": 98,
      "chip": "ym2612"
    },
    {
      "channel": 4,
      "note": 81,
      "start": 30.6189,
      "duration": 0.016,
      "velocity": 86,
      "chip": "ym2612"
    },
    {
      "channel": 3,
      "note": 85,
      "start": 30.6205,
      "duration": 0.0158,
      "velocity": 86,
      "chip": "ym2612"
    },
    {
      "channel": 2,
      "note": 57,
      "start": 30.6216,
      "duration": 0.0158,
      "velocity": 93,
      "chip": "ym2612"
    },
    {
      "channel": 1,
      "note": 83,
      "start": 30.6227,
      "duration": 0.0159,
      "velocity": 98,
      "chip": "ym2612"
    },
    {
      "channel": 5,
      "note": 80,
      "start": 30.6332,
      "duration": 0.0161,
      "velocity": 98,
      "chip": "ym2612"
    },
    {
      "channel": 4,
      "note": 81,
      "start": 30.635,
      "duration": 0.0158,
      "velocity": 86,
      "chip": "ym2612"
    },
    {
      "channel": 3,
      "note": 85,
      "start": 30.6362,
      "duration": 0.0161,
      "velocity": 86,
      "chip": "ym2612"
    },
    {
      "channel": 2,
      "note": 57,
      "start": 30.6374,
      "duration": 0.016,
      "velocity": 93,
      "chip": "ym2612"
    },
    {
      "channel": 1,
      "note": 83,
      "start": 30.6386,
      "duration": 0.016,
      "velocity": 98,
      "chip": "ym2612"
    },
    {
      "channel": 5,
      "note": 80,
      "start": 30.6493,
      "duration": 0.0161,
      "velocity": 98,
      "chip": "ym2612"
    },
    {
      "channel": 3,
      "note": 85,
      "start": 30.6523,
      "duration": 0.0164,
      "velocity": 86,
      "chip": "ym2612"
    },
    {
      "channel": 2,
      "note": 57,
      "start": 30.6535,
      "duration": 0.0164,
      "velocity": 93,
      "chip": "ym2612"
    },
    {
      "channel": 1,
      "note": 83,
      "start": 30.6546,
      "duration": 0.0164,
      "velocity": 98,
      "chip": "ym2612"
    },
    {
      "channel": 5,
      "note": 80,
      "start": 30.6654,
      "duration": 0.0161,
      "velocity": 98,
      "chip": "ym2612"
    },
    {
      "channel": 4,
      "note": 85,
      "start": 30.667,
      "duration": 0.0158,
      "velocity": 86,
      "chip": "ym2612"
    },
    {
      "channel": 3,
      "note": 85,
      "start": 30.6687,
      "duration": 0.0154,
      "velocity": 86,
      "chip": "ym2612"
    },
    {
      "channel": 2,
      "note": 57,
      "start": 30.6699,
      "duration": 0.0159,
      "velocity": 93,
      "chip": "ym2612"
    },
    {
      "channel": 1,
      "note": 83,
      "start": 30.671,
      "duration": 0.0159,
      "velocity": 98,
      "chip": "ym2612"
    },
    {
      "channel": 5,
      "note": 80,
      "start": 30.6815,
      "duration": 0.0162,
      "velocity": 98,
      "chip": "ym2612"
    },
    {
      "channel": 4,
      "note": 85,
      "start": 30.6828,
      "duration": 0.016,
      "velocity": 86,
      "chip": "ym2612"
    },
    {
      "channel": 3,
      "note": 85,
      "start": 30.6841,
      "duration": 0.0159,
      "velocity": 86,
      "chip": "ym2612"
    },
    {
      "channel": 2,
      "note": 57,
      "start": 30.6858,
      "duration": 0.016,
      "velocity": 93,
      "chip": "ym2612"
    },
    {
      "channel": 1,
      "note": 83,
      "start": 30.6869,
      "duration": 0.016,
      "velocity": 98,
      "chip": "ym2612"
    },
    {
      "channel": 5,
      "note": 80,
      "start": 30.6977,
      "duration": 0.0198,
      "velocity": 98,
      "chip": "ym2612"
    },
    {
      "channel": 4,
      "note": 85,
      "start": 30.6988,
      "duration": 0.0202,
      "velocity": 86,
      "chip": "ym2612"
    },
    {
      "channel": 3,
      "note": 85,
      "start": 30.7,
      "duration": 0.0202,
      "velocity": 86,
      "chip": "ym2612"
    },
    {
      "channel": 2,
      "note": 57,
      "start": 30.7017,
      "duration": 0.0199,
      "velocity": 93,
      "chip": "ym2612"
    },
    {
      "channel": 0,
      "note": 36,
      "start": 30.7161,
      "duration": 0.0143,
      "velocity": 115,
      "chip": "ym2612"
    },
    {
      "channel": 5,
      "note": 80,
      "start": 30.7175,
      "duration": 0.0141,
      "velocity": 98,
      "chip": "ym2612"
    },
    {
      "channel": 4,
      "note": 85,
      "start": 30.719,
      "duration": 0.0137,
      "velocity": 86,
      "chip": "ym2612"
    },
    {
      "channel": 3,
      "note": 85,
      "start": 30.7202,
      "duration": 0.014,
      "velocity": 86,
      "chip": "ym2612"
    },
    {
      "channel": 2,
      "note": 57,
      "start": 30.7217,
      "duration": 0.0141,
      "velocity": 93,
      "chip": "ym2612"
    },
    {
      "channel": 1,
      "note": 73,
      "start": 30.7231,
      "duration": 0.0139,
      "velocity": 98,
      "chip": "ym2612"
    },
    {
      "channel": 0,
      "note": 36,
      "start": 30.7304,
      "duration": 0.016,
      "velocity": 115,
      "chip": "ym2612"
    },
    {
      "channel": 4,
      "note": 85,
      "start": 30.7328,
      "duration": 0.0163,
      "velocity": 86,
      "chip": "ym2612"
    },
    {
      "channel": 3,
      "note": 85,
      "start": 30.7342,
      "duration": 0.0161,
      "velocity": 86,
      "chip": "ym2612"
    },
    {
      "channel": 2,
      "note": 57,
      "start": 30.7358,
      "duration": 0.0162,
      "velocity": 93,
      "chip": "ym2612"
    },
    {
      "channel": 1,
      "note": 73,
      "start": 30.737,
      "duration": 0.0162,
      "velocity": 98,
      "chip": "ym2612"
    },
    {
      "channel": 0,
      "note": 37,
      "start": 30.7465,
      "duration": 0.0161,
      "velocity": 115,
      "chip": "ym2612"
    },
    {
      "channel": 5,
      "note": 83,
      "start": 30.7479,
      "duration": 0.0158,
      "velocity": 98,
      "chip": "ym2612"
    },
    {
      "channel": 4,
      "note": 85,
      "start": 30.7491,
      "duration": 0.0159,
      "velocity": 86,
      "chip": "ym2612"
    },
    {
      "channel": 3,
      "note": 85,
      "start": 30.7503,
      "duration": 0.0158,
      "velocity": 86,
      "chip": "ym2612"
    },
    {
      "channel": 2,
      "note": 57,
      "start": 30.752,
      "duration": 0.0155,
      "velocity": 93,
      "chip": "ym2612"
    },
    {
      "channel": 1,
      "note": 73,
      "start": 30.7532,
      "duration": 0.0158,
      "velocity": 98,
      "chip": "ym2612"
    },
    {
      "channel": 0,
      "note": 37,
      "start": 30.7626,
      "duration": 0.0161,
      "velocity": 115,
      "chip": "ym2612"
    },
    {
      "channel": 5,
      "note": 83,
      "start": 30.7638,
      "duration": 0.0161,
      "velocity": 98,
      "chip": "ym2612"
    },
    {
      "channel": 4,
      "note": 85,
      "start": 30.765,
      "duration": 0.016,
      "velocity": 86,
      "chip": "ym2612"
    },
    {
      "channel": 3,
      "note": 85,
      "start": 30.7661,
      "duration": 0.0161,
      "velocity": 86,
      "chip": "ym2612"
    },
    {
      "channel": 2,
      "note": 57,
      "start": 30.7675,
      "duration": 0.0159,
      "velocity": 93,
      "chip": "ym2612"
    },
    {
      "channel": 1,
      "note": 73,
      "start": 30.769,
      "duration": 0.016,
      "velocity": 98,
      "chip": "ym2612"
    },
    {
      "channel": 0,
      "note": 38,
      "start": 30.7787,
      "duration": 0.0161,
      "velocity": 115,
      "chip": "ym2612"
    },
    {
      "channel": 5,
      "note": 83,
      "start": 30.7799,
      "duration": 0.0161,
      "velocity": 98,
      "chip": "ym2612"
    },
    {
      "channel": 4,
      "note": 85,
      "start": 30.781,
      "duration": 0.0161,
      "velocity": 86,
      "chip": "ym2612"
    },
    {
      "channel": 3,
      "note": 85,
      "start": 30.7822,
      "duration": 0.0161,
      "velocity": 86,
      "chip": "ym2612"
    },
    {
      "channel": 2,
      "note": 57,
      "start": 30.7834,
      "duration": 0.0161,
      "velocity": 93,
      "chip": "ym2612"
    },
    {
      "channel": 1,
      "note": 73,
      "start": 30.7851,
      "duration": 0.0158,
      "velocity": 98,
      "chip": "ym2612"
    },
    {
      "channel": 0,
      "note": 38,
      "start": 30.7948,
      "duration": 0.0161,
      "velocity": 115,
      "chip": "ym2612"
    },
    {
      "channel": 5,
      "note": 83,
      "start": 30.796,
      "duration": 0.0161,
      "velocity": 98,
      "chip": "ym2612"
    },
    {
      "channel": 4,
      "note": 85,
      "start": 30.7971,
      "duration": 0.0161,
      "velocity": 86,
      "chip": "ym2612"
    },
    {
      "channel": 3,
      "note": 85,
      "start": 30.7983,
      "duration": 0.0161,
      "velocity": 86,
      "chip": "ym2612"
    },
    {
      "channel": 2,
      "note": 57,
      "start": 30.7995,
      "duration": 0.0161,
      "velocity": 93,
      "chip": "ym2612"
    },
    {
      "channel": 1,
      "note": 73,
      "start": 30.8009,
      "duration": 0.0159,
      "velocity": 98,
      "chip": "ym2612"
    },
    {
      "channel": 0,
      "note": 39,
      "start": 30.8108,
      "duration": 0.0161,
      "velocity": 115,
      "chip": "ym2612"
    },
    {
      "channel": 5,
      "note": 83,
      "start": 30.8121,
      "duration": 0.0161,
      "velocity": 98,
      "chip": "ym2612"
    },
    {
      "channel": 4,
      "note": 85,
      "start": 30.8132,
      "duration": 0.0161,
      "velocity": 86,
      "chip": "ym2612"
    },
    {
      "channel": 3,
      "note": 85,
      "start": 30.8144,
      "duration": 0.0161,
      "velocity": 86,
      "chip": "ym2612"
    },
    {
      "channel": 2,
      "note": 57,
      "start": 30.8156,
      "duration": 0.0161,
      "velocity": 93,
      "chip": "ym2612"
    },
    {
      "channel": 1,
      "note": 73,
      "start": 30.8168,
      "duration": 0.0161,
      "velocity": 98,
      "chip": "ym2612"
    },
    {
      "channel": 0,
      "note": 39,
      "start": 30.8269,
      "duration": 0.0161,
      "velocity": 115,
      "chip": "ym2612"
    },
    {
      "channel": 5,
      "note": 83,
      "start": 30.8281,
      "duration": 0.0161,
      "velocity": 98,
      "chip": "ym2612"
    },
    {
      "channel": 4,
      "note": 85,
      "start": 30.8293,
      "duration": 0.0161,
      "velocity": 86,
      "chip": "ym2612"
    },
    {
      "channel": 3,
      "note": 85,
      "start": 30.8305,
      "duration": 0.0161,
      "velocity": 86,
      "chip": "ym2612"
    },
    {
      "channel": 2,
      "note": 57,
      "start": 30.8317,
      "duration": 0.0161,
      "velocity": 93,
      "chip": "ym2612"
    },
    {
      "channel": 1,
      "note": 73,
      "start": 30.8329,
      "duration": 0.0161,
      "velocity": 98,
      "chip": "ym2612"
    },
    {
      "channel": 0,
      "note": 40,
      "start": 30.843,
      "duration": 0.0161,
      "velocity": 115,
      "chip": "ym2612"
    },
    {
      "channel": 5,
      "note": 83,
      "start": 30.8442,
      "duration": 0.0161,
      "velocity": 98,
      "chip": "ym2612"
    },
    {
      "channel": 4,
      "note": 85,
      "start": 30.8454,
      "duration": 0.0161,
      "velocity": 86,
      "chip": "ym2612"
    },
    {
      "channel": 3,
      "note": 85,
      "start": 30.8466,
      "duration": 0.0161,
      "velocity": 86,
      "chip": "ym2612"
    },
    {
      "channel": 2,
      "note": 57,
      "start": 30.8478,
      "duration": 0.0162,
      "velocity": 93,
      "chip": "ym2612"
    },
    {
      "channel": 1,
      "note": 73,
      "start": 30.849,
      "duration": 0.0161,
      "velocity": 98,
      "chip": "ym2612"
    },
    {
      "channel": 0,
      "note": 40,
      "start": 30.8592,
      "duration": 0.0161,
      "velocity": 115,
      "chip": "ym2612"
    },
    {
      "channel": 5,
      "note": 83,
      "start": 30.8603,
      "duration": 0.0161,
      "velocity": 98,
      "chip": "ym2612"
    },
    {
      "channel": 4,
      "note": 85,
      "start": 30.8615,
      "duration": 0.0162,
      "velocity": 86,
      "chip": "ym2612"
    },
    {
      "channel": 3,
      "note": 85,
      "start": 30.8627,
      "duration": 0.0161,
      "velocity": 86,
      "chip": "ym2612"
    },
    {
      "channel": 2,
      "note": 57,
      "start": 30.864,
      "duration": 0.016,
      "velocity": 93,
      "chip": "ym2612"
    },
    {
      "channel": 1,
      "note": 73,
      "start": 30.8651,
      "duration": 0.0161,
      "velocity": 98,
      "chip": "ym2612"
    },
    {
      "channel": 0,
      "note": 40,
      "start": 30.8753,
      "duration": 0.0161,
      "velocity": 115,
      "chip": "ym2612"
    },
    {
      "channel": 5,
      "note": 83,
      "start": 30.8764,
      "duration": 0.0161,
      "velocity": 98,
      "chip": "ym2612"
    },
    {
      "channel": 4,
      "note": 85,
      "start": 30.8776,
      "duration": 0.0161,
      "velocity": 86,
      "chip": "ym2612"
    },
    {
      "channel": 3,
      "note": 85,
      "start": 30.8788,
      "duration": 0.0161,
      "velocity": 86,
      "chip": "ym2612"
    },
    {
      "channel": 2,
      "note": 57,
      "start": 30.88,
      "duration": 0.0161,
      "velocity": 93,
      "chip": "ym2612"
    },
    {
      "channel": 1,
      "note": 73,
      "start": 30.8812,
      "duration": 0.0161,
      "velocity": 98,
      "chip": "ym2612"
    },
    {
      "channel": 0,
      "note": 41,
      "start": 30.8914,
      "duration": 0.0179,
      "velocity": 115,
      "chip": "ym2612"
    },
    {
      "channel": 5,
      "note": 83,
      "start": 30.8925,
      "duration": 0.018,
      "velocity": 98,
      "chip": "ym2612"
    },
    {
      "channel": 4,
      "note": 85,
      "start": 30.8937,
      "duration": 0.0179,
      "velocity": 86,
      "chip": "ym2612"
    },
    {
      "channel": 2,
      "note": 57,
      "start": 30.8961,
      "duration": 0.0181,
      "velocity": 93,
      "chip": "ym2612"
    },
    {
      "channel": 1,
      "note": 73,
      "start": 30.8973,
      "duration": 0.0182,
      "velocity": 98,
      "chip": "ym2612"
    },
    {
      "channel": 0,
      "note": 36,
      "start": 30.9093,
      "duration": 0.0143,
      "velocity": 115,
      "chip": "ym2612"
    },
    {
      "channel": 5,
      "note": 83,
      "start": 30.9105,
      "duration": 0.0144,
      "velocity": 98,
      "chip": "ym2612"
    },
    {
      "channel": 4,
      "note": 85,
      "start": 30.9117,
      "duration": 0.0143,
      "velocity": 86,
      "chip": "ym2612"
    },
    {
      "channel": 3,
      "note": 76,
      "start": 30.9131,
      "duration": 0.0141,
      "velocity": 86,
      "chip": "ym2612"
    },
    {
      "channel": 2,
      "note": 57,
      "start": 30.9143,
      "duration": 0.0141,
      "velocity": 93,
      "chip": "ym2612"
    },
    {
      "channel": 1,
      "note": 73,
      "start": 30.9155,
      "duration": 0.0141,
      "velocity": 98,
      "chip": "ym2612"
    },
    {
      "channel": 0,
      "note": 36,
      "start": 30.9236,
      "duration": 0.016,
      "velocity": 115,
      "chip": "ym2612"
    },
    {
      "channel": 5,
      "note": 83,
      "start": 30.9249,
      "duration": 0.016,
      "velocity": 98,
      "chip": "ym2612"
    },
    {
      "channel": 4,
      "note": 85,
      "start": 30.926,
      "duration": 0.016,
      "velocity": 86,
      "chip": "ym2612"
    },
    {
      "channel": 3,
      "note": 76,
      "start": 30.9273,
      "duration": 0.016,
      "velocity": 86,
      "chip": "ym2612"
    },
    {
      "channel": 2,
      "note": 57,
      "start": 30.9284,
      "duration": 0.016,
      "velocity": 93,
      "chip": "ym2612"
    },
    {
      "channel": 1,
      "note": 73,
      "start": 30.9295,
      "duration": 0.016,
      "velocity": 98,
      "chip": "ym2612"
    },
    {
      "channel": 0,
      "note": 37,
      "start": 30.9397,
      "duration": 0.0161,
      "velocity": 115,
      "chip": "ym2612"
    },
    {
      "channel": 5,
      "note": 83,
      "start": 30.9409,
      "duration": 0.0161,
      "velocity": 98,
      "chip": "ym2612"
    },
    {
      "channel": 3,
      "note": 76,
      "start": 30.9432,
      "duration": 0.0164,
      "velocity": 86,
      "chip": "ym2612"
    },
    {
      "channel": 2,
      "note": 57,
      "start": 30.9444,
      "duration": 0.0164,
      "velocity": 93,
      "chip": "ym2612"
    },
    {
      "channel": 1,
      "note": 73,
      "start": 30.9456,
      "duration": 0.0163,
      "velocity": 98,
      "chip": "ym2612"
    },
    {
      "channel": 0,
      "note": 37,
      "start": 30.9558,
      "duration": 0.0161,
      "velocity": 115,
      "chip": "ym2612"
    },
    {
      "channel": 5,
      "note": 83,
      "start": 30.957,
      "duration": 0.0161,
      "velocity": 98,
      "chip": "ym2612"
    },
    {
      "channel": 4,
      "note": 76,
      "start": 30.9584,
      "duration": 0.0158,
      "velocity": 86,
      "chip": "ym2612"
    },
    {
      "channel": 3,
      "note": 76,
      "start": 30.9596,
      "duration": 0.0158,
      "velocity": 86,
      "chip": "ym2612"
    },
    {
      "channel": 2,
      "note": 57,
      "start": 30.9608,
      "duration": 0.0158,
      "velocity": 93,
      "chip": "ym2612"
    },
    {
      "channel": 1,
      "note": 73,
      "start": 30.9619,
      "duration": 0.0159,
      "velocity": 98,
      "chip": "ym2612"
    },
    {
      "channel": 0,
      "note": 38,
      "start": 30.9719,
      "duration": 0.0161,
      "velocity": 115,
      "chip": "ym2612"
    },
    {
      "channel": 5,
      "note": 83,
      "start": 30.9731,
      "duration": 0.0161,
      "velocity": 98,
      "chip": "ym2612"
    },
    {
      "channel": 4,
      "note": 76,
      "start": 30.9743,
      "duration": 0.016,
      "velocity": 86,
      "chip": "ym2612"
    },
    {
      "channel": 3,
      "note": 76,
      "start": 30.9754,
      "duration": 0.0161,
      "velocity": 86,
      "chip": "ym2612"
    },
    {
      "channel": 2,
      "note": 57,
      "start": 30.9766,
      "duration": 0.0161,
      "velocity": 93,
      "chip": "ym2612"
    },
    {
      "channel": 1,
      "note": 73,
      "start": 30.9778,
      "duration": 0.0161,
      "velocity": 98,
      "chip": "ym2612"
    },
    {
      "channel": 0,
      "note": 38,
      "start": 30.988,
      "duration": 0.0179,
      "velocity": 124,
      "chip": "ym2612"
    },
    {
      "channel": 5,
      "note": 83,
      "start": 30.9892,
      "duration": 0.0179,
      "velocity": 98,
      "chip": "ym2612"
    },
    {
      "channel": 4,
      "note": 76,
      "start": 30.9903,
      "duration": 0.0179,
      "velocity": 86,
      "chip": "ym2612"
    },
    {
      "channel": 2,
      "note": 57,
      "start": 30.9927,
      "duration": 0.0184,
      "velocity": 93,
      "chip": "ym2612"
    },
    {
      "channel": 0,
      "note": 84,
      "start": 31.0059,
      "duration": 0.0144,
      "velocity": 124,
      "chip": "ym2612"
    },
    {
      "channel": 5,
      "note": 83,
      "start": 31.0071,
      "duration": 0.0144,
      "velocity": 98,
      "chip": "ym2612"
    },
    {
      "channel": 4,
      "note": 76,
      "start": 31.0082,
      "duration": 0.0144,
      "velocity": 86,
      "chip": "ym2612"
    },
    {
      "channel": 3,
      "note": 81,
      "start": 31.0098,
      "duration": 0.0141,
      "velocity": 86,
      "chip": "ym2612"
    },
    {
      "channel": 2,
      "note": 57,
      "start": 31.0112,
      "duration": 0.0139,
      "velocity": 93,
      "chip": "ym2612"
    },
    {
      "channel": 1,
      "note": 76,
      "start": 31.0126,
      "duration": 0.0137,
      "velocity": 98,
      "chip": "ym2612"
    },
    {
      "channel": 0,
      "note": 82,
      "start": 31.0203,
      "duration": 0.0163,
      "velocity": 124,
      "chip": "ym2612"
    },
    {
      "channel": 4,
      "note": 76,
      "start": 31.0227,
      "duration": 0.0166,
      "velocity": 86,
      "chip": "ym2612"
    },
    {
      "channel": 3,
      "note": 81,
      "start": 31.0239,
      "duration": 0.0166,
      "velocity": 86,
      "chip": "ym2612"
    },
    {
      "channel": 2,
      "note": 57,
      "start": 31.0251,
      "duration": 0.0165,
      "velocity": 93,
      "chip": "ym2612"
    },
    {
      "channel": 1,
      "note": 76,
      "start": 31.0263,
      "duration": 0.0166,
      "velocity": 98,
      "chip": "ym2612"
    },
    {
      "channel": 0,
      "note": 80,
      "start": 31.0367,
      "duration": 0.0163,
      "velocity": 124,
      "chip": "ym2612"
    },
    {
      "channel": 5,
      "note": 73,
      "start": 31.0381,
      "duration": 0.0161,
      "velocity": 98,
      "chip": "ym2612"
    },
    {
      "channel": 3,
      "note": 81,
      "start": 31.0405,
      "duration": 0.0163,
      "velocity": 86,
      "chip": "ym2612"
    },
    {
      "channel": 2,
      "note": 57,
      "start": 31.0416,
      "duration": 0.0164,
      "velocity": 93,
      "chip": "ym2612"
    },
    {
      "channel": 1,
      "note": 76,
      "start": 31.0429,
      "duration": 0.0163,
      "velocity": 98,
      "chip": "ym2612"
    },
    {
      "channel": 0,
      "note": 77,
      "start": 31.053,
      "duration": 0.0161,
      "velocity": 124,
      "chip": "ym2612"
    },
    {
      "channel": 5,
      "note": 73,
      "start": 31.0542,
      "duration": 0.016,
      "velocity": 98,
      "chip": "ym2612"
    },
    {
      "channel": 4,
      "note": 81,
      "start": 31.0557,
      "duration": 0.0158,
      "velocity": 86,
      "chip": "ym2612"
    },
    {
      "channel": 3,
      "note": 81,
      "start": 31.0568,
      "duration": 0.0158,
      "velocity": 86,
      "chip": "ym2612"
    },
    {
      "channel": 2,
      "note": 57,
      "start": 31.058,
      "duration": 0.0158,
      "velocity": 93,
      "chip": "ym2612"
    },
    {
      "channel": 1,
      "note": 76,
      "start": 31.0592,
      "duration": 0.0158,
      "velocity": 98,
      "chip": "ym2612"
    },
    {
      "channel": 0,
      "note": 75,
      "start": 31.069,
      "duration": 0.0161,
      "velocity": 124,
      "chip": "ym2612"
    },
    {
      "channel": 5,
      "note": 73,
      "start": 31.0703,
      "duration": 0.0161,
      "velocity": 98,
      "chip": "ym2612"
    },
    {
      "channel": 4,
      "note": 81,
      "start": 31.0715,
      "duration": 0.0161,
      "velocity": 86,
      "chip": "ym2612"
    },
    {
      "channel": 3,
      "note": 81,
      "start": 31.0726,
      "duration": 0.0161,
      "velocity": 86,
      "chip": "ym2612"
    },
    {
      "channel": 2,
      "note": 57,
      "start": 31.0738,
      "duration": 0.016,
      "velocity": 93,
      "chip": "ym2612"
    },
    {
      "channel": 1,
      "note": 76,
      "start": 31.075,
      "duration": 0.0161,
      "velocity": 98,
      "chip": "ym2612"
    },
    {
      "channel": 0,
      "note": 72,
      "start": 31.0851,
      "duration": 0.0158,
      "velocity": 124,
      "chip": "ym2612"
    },
    {
      "channel": 5,
      "note": 73,
      "start": 31.0863,
      "duration": 0.0161,
      "velocity": 98,
      "chip": "ym2612"
    },
    {
      "channel": 4,
      "note": 81,
      "start": 31.0876,
      "duration": 0.016,
      "velocity": 86,
      "chip": "ym2612"
    },
    {
      "channel": 3,
      "note": 81,
      "start": 31.0887,
      "duration": 0.0161,
      "velocity": 86,
      "chip": "ym2612"
    },
    {
      "channel": 2,
      "note": 57,
      "start": 31.0899,
      "duration": 0.0161,
      "velocity": 93,
      "chip": "ym2612"
    },
    {
      "channel": 1,
      "note": 76,
      "start": 31.0911,
      "duration": 0.016,
      "velocity": 98,
      "chip": "ym2612"
    },
    {
      "channel": 0,
      "note": 70,
      "start": 31.1009,
      "duration": 0.0158,
      "velocity": 124,
      "chip": "ym2612"
    },
    {
      "channel": 5,
      "note": 73,
      "start": 31.1024,
      "duration": 0.016,
      "velocity": 98,
      "chip": "ym2612"
    },
    {
      "channel": 4,
      "note": 81,
      "start": 31.1036,
      "duration": 0.0161,
      "velocity": 86,
      "chip": "ym2612"
    },
    {
      "channel": 3,
      "note": 81,
      "start": 31.1048,
      "duration": 0.0161,
      "velocity": 86,
      "chip": "ym2612"
    },
    {
      "channel": 2,
      "note": 57,
      "start": 31.1059,
      "duration": 0.0161,
      "velocity": 93,
      "chip": "ym2612"
    },
    {
      "channel": 1,
      "note": 76,
      "start": 31.1071,
      "duration": 0.0161,
      "velocity": 98,
      "chip": "ym2612"
    },
    {
      "channel": 0,
      "note": 68,
      "start": 31.1168,
      "duration": 0.0161,
      "velocity": 124,
      "chip": "ym2612"
    },
    {
      "channel": 5,
      "note": 73,
      "start": 31.1185,
      "duration": 0.0158,
      "velocity": 98,
      "chip": "ym2612"
    },
    {
      "channel": 4,
      "note": 81,
      "start": 31.1197,
      "duration": 0.0161,
      "velocity": 86,
      "chip": "ym2612"
    },
    {
      "channel": 3,
      "note": 81,
      "start": 31.1209,
      "duration": 0.0161,
      "velocity": 86,
      "chip": "ym2612"
    },
    {
      "channel": 2,
      "note": 57,
      "start": 31.122,
      "duration": 0.0161,
      "velocity": 93,
      "chip": "ym2612"
    },
    {
      "channel": 1,
      "note": 76,
      "start": 31.1232,
      "duration": 0.0161,
      "velocity": 98,
      "chip": "ym2612"
    },
    {
      "channel": 0,
      "note": 65,
      "start": 31.1329,
      "duration": 0.0162,
      "velocity": 124,
      "chip": "ym2612"
    },
    {
      "channel": 5,
      "note": 73,
      "start": 31.1343,
      "duration": 0.0159,
      "velocity": 98,
      "chip": "ym2612"
    },
    {
      "channel": 4,
      "note": 81,
      "start": 31.1358,
      "duration": 0.0162,
      "velocity": 86,
      "chip": "ym2612"
    },
    {
      "channel": 3,
      "note": 81,
      "start": 31.137,
      "duration": 0.0161,
      "velocity": 86,
      "chip": "ym2612"
    },
    {
      "channel": 2,
      "note": 57,
      "start": 31.1381,
      "duration": 0.0162,
      "velocity": 93,
      "chip": "ym2612"
    },
    {
      "channel": 1,
      "note": 76,
      "start": 31.1393,
      "duration": 0.0162,
      "velocity": 98,
      "chip": "ym2612"
    },
    {
      "channel": 0,
      "note": 63,
      "start": 31.149,
      "duration": 0.0153,
      "velocity": 1,
      "chip": "ym2612"
    },
    {
      "channel": 5,
      "note": 73,
      "start": 31.1502,
      "duration": 0.0153,
      "velocity": 98,
      "chip": "ym2612"
    },
    {
      "channel": 4,
      "note": 81,
      "start": 31.152,
      "duration": 0.0147,
      "velocity": 86,
      "chip": "ym2612"
    },
    {
      "channel": 3,
      "note": 81,
      "start": 31.1531,
      "duration": 0.0153,
      "velocity": 86,
      "chip": "ym2612"
    },
    {
      "channel": 2,
      "note": 57,
      "start": 31.1544,
      "duration": 0.0153,
      "velocity": 93,
      "chip": "ym2612"
    },
    {
      "channel": 1,
      "note": 76,
      "start": 31.1555,
      "duration": 0.0153,
      "velocity": 98,
      "chip": "ym2612"
    },
    {
      "channel": 5,
      "note": 73,
      "start": 31.1654,
      "duration": 0.0153,
      "velocity": 98,
      "chip": "ym2612"
    },
    {
      "channel": 4,
      "note": 81,
      "start": 31.1666,
      "duration": 0.0152,
      "velocity": 86,
      "chip": "ym2612"
    },
    {
      "channel": 3,
      "note": 81,
      "start": 31.1683,
      "duration": 0.0147,
      "velocity": 86,
      "chip": "ym2612"
    },
    {
      "channel": 2,
      "note": 57,
      "start": 31.1696,
      "duration": 0.0152,
      "velocity": 93,
      "chip": "ym2612"
    },
    {
      "channel": 1,
      "note": 76,
      "start": 31.1708,
      "duration": 0.0153,
      "velocity": 98,
      "chip": "ym2612"
    },
    {
      "channel": 5,
      "note": 73,
      "start": 31.1807,
      "duration": 0.0161,
      "velocity": 98,
      "chip": "ym2612"
    },
    {
      "channel": 4,
      "note": 81,
      "start": 31.1818,
      "duration": 0.0161,
      "velocity": 86,
      "chip": "ym2612"
    },
    {
      "channel": 2,
      "note": 57,
      "start": 31.1848,
      "duration": 0.016,
      "velocity": 93,
      "chip": "ym2612"
    },
    {
      "channel": 1,
      "note": 76,
      "start": 31.186,
      "duration": 0.0163,
      "velocity": 98,
      "chip": "ym2612"
    },
    {
      "channel": 5,
      "note": 73,
      "start": 31.1968,
      "duration": 0.0161,
      "velocity": 98,
      "chip": "ym2612"
    },
    {
      "channel": 4,
      "note": 81,
      "start": 31.1979,
      "duration": 0.0162,
      "velocity": 86,
      "chip": "ym2612"
    },
    {
      "channel": 3,
      "note": 85,
      "start": 31.1995,
      "duration": 0.0159,
      "velocity": 86,
      "chip": "ym2612"
    },
    {
      "channel": 2,
      "note": 57,
      "start": 31.2009,
      "duration": 0.0156,
      "velocity": 93,
      "chip": "ym2612"
    },
    {
      "channel": 1,
      "note": 76,
      "start": 31.2024,
      "duration": 0.0158,
      "velocity": 98,
      "chip": "ym2612"
    },
    {
      "channel": 5,
      "note": 73,
      "start": 31.2129,
      "duration": 0.0161,
      "velocity": 98,
      "chip": "ym2612"
    },
    {
      "channel": 4,
      "note": 81,
      "start": 31.2141,
      "duration": 0.0161,
      "velocity": 86,
      "chip": "ym2612"
    },
    {
      "channel": 3,
      "note": 85,
      "start": 31.2153,
      "duration": 0.016,
      "velocity": 86,
      "chip": "ym2612"
    },
    {
      "channel": 2,
      "note": 57,
      "start": 31.2164,
      "duration": 0.0161,
      "velocity": 93,
      "chip": "ym2612"
    },
    {
      "channel": 1,
      "note": 76,
      "start": 31.2182,
      "duration": 0.0155,
      "velocity": 98,
      "chip": "ym2612"
    },
    {
      "channel": 5,
      "note": 73,
      "start": 31.229,
      "duration": 0.0161,
      "velocity": 98,
      "chip": "ym2612"
    },
    {
      "channel": 3,
      "note": 85,
      "start": 31.2313,
      "duration": 0.0164,
      "velocity": 86,
      "chip": "ym2612"
    },
    {
      "channel": 2,
      "note": 57,
      "start": 31.2325,
      "duration": 0.0164,
      "velocity": 93,
      "chip": "ym2612"
    },
    {
      "channel": 1,
      "note": 76,
      "start": 31.2337,
      "duration": 0.0164,
      "velocity": 98,
      "chip": "ym2612"
    },
    {
      "channel": 5,
      "note": 73,
      "start": 31.2451,
      "duration": 0.0161,
      "velocity": 98,
      "chip": "ym2612"
    },
    {
      "channel": 4,
      "note": 85,
      "start": 31.2466,
      "duration": 0.0159,
      "velocity": 86,
      "chip": "ym2612"
    },
    {
      "channel": 3,
      "note": 85,
      "start": 31.2478,
      "duration": 0.0158,
      "velocity": 86,
      "chip": "ym2612"
    },
    {
      "channel": 2,
      "note": 57,
      "start": 31.249,
      "duration": 0.0158,
      "velocity": 93,
      "chip": "ym2612"
    },
    {
      "channel": 1,
      "note": 76,
      "start": 31.2501,
      "duration": 0.0159,
      "velocity": 98,
      "chip": "ym2612"
    },
    {
      "channel": 5,
      "note": 73,
      "start": 31.2612,
      "duration": 0.0161,
      "velocity": 98,
      "chip": "ym2612"
    },
    {
      "channel": 4,
      "note": 85,
      "start": 31.2624,
      "duration": 0.016,
      "velocity": 86,
      "chip": "ym2612"
    },
    {
      "channel": 3,
      "note": 85,
      "start": 31.2636,
      "duration": 0.016,
      "velocity": 86,
      "chip": "ym2612"
    },
    {
      "channel": 2,
      "note": 57,
      "start": 31.2648,
      "duration": 0.0161,
      "velocity": 93,
      "chip": "ym2612"
    },
    {
      "channel": 1,
      "note": 76,
      "start": 31.266,
      "duration": 0.016,
      "velocity": 98,
      "chip": "ym2612"
    },
    {
      "channel": 5,
      "note": 73,
      "start": 31.2773,
      "duration": 0.0197,
      "velocity": 98,
      "chip": "ym2612"
    },
    {
      "channel": 4,
      "note": 85,
      "start": 31.2785,
      "duration": 0.0196,
      "velocity": 86,
      "chip": "ym2612"
    },
    {
      "channel": 3,
      "note": 85,
      "start": 31.2796,
      "duration": 0.0197,
      "velocity": 86,
      "chip": "ym2612"
    },
    {
      "channel": 2,
      "note": 57,
      "start": 31.2809,
      "duration": 0.02,
      "velocity": 93,
      "chip": "ym2612"
    },
    {
      "channel": 0,
      "note": 36,
      "start": 31.2958,
      "duration": 0.0143,
      "velocity": 115,
      "chip": "ym2612"
    },
    {
      "channel": 5,
      "note": 73,
      "start": 31.2969,
      "duration": 0.0143,
      "velocity": 98,
      "chip": "ym2612"
    },
    {
      "channel": 4,
      "note": 85,
      "start": 31.2981,
      "duration": 0.0144,
      "velocity": 86,
      "chip": "ym2612"
    },
    {
      "channel": 3,
      "note": 85,
      "start": 31.2993,
      "duration": 0.0143,
      "velocity": 86,
      "chip": "ym2612"
    },
    {
      "channel": 2,
      "note": 54,
      "start": 31.3009,
      "duration": 0.0139,
      "velocity": 93,
      "chip": "ym2612"
    },
    {
      "channel": 1,
      "note": 80,
      "start": 31.3028,
      "duration": 0.0133,
      "velocity": 98,
      "chip": "ym2612"
    },
    {
      "channel": 0,
      "note": 36,
      "start": 31.3101,
      "duration": 0.016,
      "velocity": 115,
      "chip": "ym2612"
    },
    {
      "channel": 4,
      "note": 85,
      "start": 31.3124,
      "duration": 0.0163,
      "velocity": 86,
      "chip": "ym2612"
    },
    {
      "channel": 3,
      "note": 85,
      "start": 31.3136,
      "duration": 0.0163,
      "velocity": 86,
      "chip": "ym2612"
    },
    {
      "channel": 2,
      "note": 54,
      "start": 31.3149,
      "duration": 0.0162,
      "velocity": 93,
      "chip": "ym2612"
    },
    {
      "channel": 1,
      "note": 80,
      "start": 31.3161,
      "duration": 0.0162,
      "velocity": 98,
      "chip": "ym2612"
    },
    {
      "channel": 0,
      "note": 37,
      "start": 31.3261,
      "duration": 0.0161,
      "velocity": 115,
      "chip": "ym2612"
    },
    {
      "channel": 5,
      "note": 76,
      "start": 31.3276,
      "duration": 0.0159,
      "velocity": 98,
      "chip": "ym2612"
    },
    {
      "channel": 4,
      "note": 85,
      "start": 31.3287,
      "duration": 0.0159,
      "velocity": 86,
      "chip": "ym2612"
    },
    {
      "channel": 3,
      "note": 85,
      "start": 31.3299,
      "duration": 0.0159,
      "velocity": 86,
      "chip": "ym2612"
    },
    {
      "channel": 2,
      "note": 54,
      "start": 31.3311,
      "duration": 0.0159,
      "velocity": 93,
      "chip": "ym2612"
    },
    {
      "channel": 1,
      "note": 80,
      "start": 31.3323,
      "duration": 0.0158,
      "velocity": 98,
      "chip": "ym2612"
    },
    {
      "channel": 0,
      "note": 37,
      "start": 31.3422,
      "duration": 0.0161,
      "velocity": 115,
      "chip": "ym2612"
    },
    {
      "channel": 5,
      "note": 76,
      "start": 31.3434,
      "duration": 0.016,
      "velocity": 98,
      "chip": "ym2612"
    },
    {
      "channel": 4,
      "note": 85,
      "start": 31.3446,
      "duration": 0.016,
      "velocity": 86,
      "chip": "ym2612"
    },
    {
      "channel": 3,
      "note": 85,
      "start": 31.3458,
      "duration": 0.016,
      "velocity": 86,
      "chip": "ym2612"
    },
    {
      "channel": 2,
      "note": 54,
      "start": 31.347,
      "duration": 0.016,
      "velocity": 93,
      "chip": "ym2612"
    },
    {
      "channel": 1,
      "note": 80,
      "start": 31.3481,
      "duration": 0.016,
      "velocity": 98,
      "chip": "ym2612"
    },
    {
      "channel": 0,
      "note": 38,
      "start": 31.3583,
      "duration": 0.0161,
      "velocity": 115,
      "chip": "ym2612"
    },
    {
      "channel": 5,
      "note": 76,
      "start": 31.3595,
      "duration": 0.0161,
      "velocity": 98,
      "chip": "ym2612"
    },
    {
      "channel": 4,
      "note": 85,
      "start": 31.3607,
      "duration": 0.0161,
      "velocity": 86,
      "chip": "ym2612"
    },
    {
      "channel": 3,
      "note": 85,
      "start": 31.3619,
      "duration": 0.0161,
      "velocity": 86,
      "chip": "ym2612"
    },
    {
      "channel": 2,
      "note": 54,
      "start": 31.363,
      "duration": 0.0161,
      "velocity": 93,
      "chip": "ym2612"
    },
    {
      "channel": 1,
      "note": 80,
      "start": 31.3641,
      "duration": 0.0162,
      "velocity": 98,
      "chip": "ym2612"
    },
    {
      "channel": 0,
      "note": 38,
      "start": 31.3744,
      "duration": 0.0161,
      "velocity": 115,
      "chip": "ym2612"
    },
    {
      "channel": 5,
      "note": 76,
      "start": 31.3756,
      "duration": 0.0161,
      "velocity": 98,
      "chip": "ym2612"
    },
    {
      "channel": 4,
      "note": 85,
      "start": 31.3768,
      "duration": 0.0161,
      "velocity": 86,
      "chip": "ym2612"
    },
    {
      "channel": 3,
      "note": 85,
      "start": 31.378,
      "duration": 0.0161,
      "velocity": 86,
      "chip": "ym2612"
    },
    {
      "channel": 2,
      "note": 54,
      "start": 31.3791,
      "duration": 0.0161,
      "velocity": 93,
      "chip": "ym2612"
    },
    {
      "channel": 1,
      "note": 80,
      "start": 31.3803,
      "duration": 0.0161,
      "velocity": 98,
      "chip": "ym2612"
    },
    {
      "channel": 0,
      "note": 39,
      "start": 31.3905,
      "duration": 0.0161,
      "velocity": 115,
      "chip": "ym2612"
    },
    {
      "channel": 5,
      "note": 76,
      "start": 31.3917,
      "duration": 0.0161,
      "velocity": 98,
      "chip": "ym2612"
    },
    {
      "channel": 4,
      "note": 85,
      "start": 31.3929,
      "duration": 0.0161,
      "velocity": 86,
      "chip": "ym2612"
    },
    {
      "channel": 3,
      "note": 85,
      "start": 31.3941,
      "duration": 0.0161,
      "velocity": 86,
      "chip": "ym2612"
    },
    {
      "channel": 2,
      "note": 54,
      "start": 31.3952,
      "duration": 0.0161,
      "velocity": 93,
      "chip": "ym2612"
    },
    {
      "channel": 1,
      "note": 80,
      "start": 31.3964,
      "duration": 0.0161,
      "velocity": 98,
      "chip": "ym2612"
    },
    {
      "channel": 0,
      "note": 39,
      "start": 31.4066,
      "duration": 0.0161,
      "velocity": 115,
      "chip": "ym2612"
    },
    {
      "channel": 5,
      "note": 76,
      "start": 31.4078,
      "duration": 0.0161,
      "velocity": 98,
      "chip": "ym2612"
    },
    {
      "channel": 4,
      "note": 85,
      "start": 31.4089,
      "duration": 0.0161,
      "velocity": 86,
      "chip": "ym2612"
    },
    {
      "channel": 3,
      "note": 85,
      "start": 31.4102,
      "duration": 0.0161,
      "velocity": 86,
      "chip": "ym2612"
    },
    {
      "channel": 2,
      "note": 54,
      "start": 31.4113,
      "duration": 0.0161,
      "velocity": 93,
      "chip": "ym2612"
    },
    {
      "channel": 1,
      "note": 80,
      "start": 31.4125,
      "duration": 0.0161,
      "velocity": 98,
      "chip": "ym2612"
    },
    {
      "channel": 0,
      "note": 40,
      "start": 31.4227,
      "duration": 0.0162,
      "velocity": 115,
      "chip": "ym2612"
    },
    {
      "channel": 5,
      "note": 76,
      "start": 31.4239,
      "duration": 0.0161,
      "velocity": 98,
      "chip": "ym2612"
    },
    {
      "channel": 4,
      "note": 85,
      "start": 31.425,
      "duration": 0.0161,
      "velocity": 86,
      "chip": "ym2612"
    },
    {
      "channel": 3,
      "note": 85,
      "start": 31.4262,
      "duration": 0.0161,
      "velocity": 86,
      "chip": "ym2612"
    },
    {
      "channel": 2,
      "note": 54,
      "start": 31.4274,
      "duration": 0.0162,
      "velocity": 93,
      "chip": "ym2612"
    },
    {
      "channel": 1,
      "note": 80,
      "start": 31.4286,
      "duration": 0.0162,
      "velocity": 98,
      "chip": "ym2612"
    },
    {
      "channel": 0,
      "note": 40,
      "start": 31.4388,
      "duration": 0.0161,
      "velocity": 115,
      "chip": "ym2612"
    },
    {
      "channel": 5,
      "note": 76,
      "start": 31.44,
      "duration": 0.0161,
      "velocity": 98,
      "chip": "ym2612"
    },
    {
      "channel": 4,
      "note": 85,
      "start": 31.4411,
      "duration": 0.0161,
      "velocity": 86,
      "chip": "ym2612"
    },
    {
      "channel": 3,
      "note": 85,
      "start": 31.4423,
      "duration": 0.0161,
      "velocity": 86,
      "chip": "ym2612"
    },
    {
      "channel": 2,
      "note": 54,
      "start": 31.4436,
      "duration": 0.016,
      "velocity": 93,
      "chip": "ym2612"
    },
    {
      "channel": 1,
      "note": 80,
      "start": 31.4448,
      "duration": 0.0161,
      "velocity": 98,
      "chip": "ym2612"
    },
    {
      "channel": 0,
      "note": 40,
      "start": 31.4549,
      "duration": 0.0161,
      "velocity": 115,
      "chip": "ym2612"
    },
    {
      "channel": 5,
      "note": 76,
      "start": 31.4561,
      "duration": 0.0161,
      "velocity": 98,
      "chip": "ym2612"
    },
    {
      "channel": 4,
      "note": 85,
      "start": 31.4572,
      "duration": 0.0161,
      "velocity": 86,
      "chip": "ym2612"
    },
    {
      "channel": 3,
      "note": 85,
      "start": 31.4584,
      "duration": 0.0161,
      "velocity": 86,
      "chip": "ym2612"
    },
    {
      "channel": 2,
      "note": 54,
      "start": 31.4596,
      "duration": 0.0162,
      "velocity": 93,
      "chip": "ym2612"
    },
    {
      "channel": 1,
      "note": 80,
      "start": 31.4608,
      "duration": 0.0161,
      "velocity": 98,
      "chip": "ym2612"
    },
    {
      "channel": 0,
      "note": 41,
      "start": 31.471,
      "duration": 0.0162,
      "velocity": 115,
      "chip": "ym2612"
    },
    {
      "channel": 5,
      "note": 76,
      "start": 31.4722,
      "duration": 0.0161,
      "velocity": 98,
      "chip": "ym2612"
    },
    {
      "channel": 4,
      "note": 85,
      "start": 31.4734,
      "duration": 0.0162,
      "velocity": 86,
      "chip": "ym2612"
    },
    {
      "channel": 2,
      "note": 54,
      "start": 31.4758,
      "duration": 0.0164,
      "velocity": 93,
      "chip": "ym2612"
    },
    {
      "channel": 1,
      "note": 80,
      "start": 31.4769,
      "duration": 0.0164,
      "velocity": 98,
      "chip": "ym2612"
    },
    {
      "channel": 0,
      "note": 41,
      "start": 31.4872,
      "duration": 0.0161,
      "velocity": 115,
      "chip": "ym2612"
    },
    {
      "channel": 5,
      "note": 76,
      "start": 31.4883,
      "duration": 0.0162,
      "velocity": 98,
      "chip": "ym2612"
    },
    {
      "channel": 4,
      "note": 85,
      "start": 31.4895,
      "duration": 0.0161,
      "velocity": 86,
      "chip": "ym2612"
    },
    {
      "channel": 3,
      "note": 76,
      "start": 31.4911,
      "duration": 0.0159,
      "velocity": 86,
      "chip": "ym2612"
    },
    {
      "channel": 2,
      "note": 54,
      "start": 31.4922,
      "duration": 0.0159,
      "velocity": 93,
      "chip": "ym2612"
    },
    {
      "channel": 1,
      "note": 80,
      "start": 31.4934,
      "duration": 0.0159,
      "velocity": 98,
      "chip": "ym2612"
    },
    {
      "channel": 0,
      "note": 42,
      "start": 31.5033,
      "duration": 0.0163,
      "velocity": 115,
      "chip": "ym2612"
    },
    {
      "channel": 5,
      "note": 76,
      "start": 31.5046,
      "duration": 0.0163,
      "velocity": 98,
      "chip": "ym2612"
    },
    {
      "channel": 4,
      "note": 85,
      "start": 31.5057,
      "duration": 0.0163,
      "velocity": 86,
      "chip": "ym2612"
    },
    {
      "channel": 3,
      "note": 76,
      "start": 31.507,
      "duration": 0.0163,
      "velocity": 86,
      "chip": "ym2612"
    },
    {
      "channel": 2,
      "note": 54,
      "start": 31.5081,
      "duration": 0.0163,
      "velocity": 93,
      "chip": "ym2612"
    },
    {
      "channel": 1,
      "note": 80,
      "start": 31.5093,
      "duration": 0.0163,
      "velocity": 98,
      "chip": "ym2612"
    },
    {
      "channel": 0,
      "note": 42,
      "start": 31.5197,
      "duration": 0.0163,
      "velocity": 115,
      "chip": "ym2612"
    },
    {
      "channel": 5,
      "note": 76,
      "start": 31.5209,
      "duration": 0.0163,
      "velocity": 98,
      "chip": "ym2612"
    },
    {
      "channel": 3,
      "note": 76,
      "start": 31.5232,
      "duration": 0.0166,
      "velocity": 86,
      "chip": "ym2612"
    },
    {
      "channel": 2,
      "note": 54,
      "start": 31.5244,
      "duration": 0.0166,
      "velocity": 93,
      "chip": "ym2612"
    },
    {
      "channel": 1,
      "note": 80,
      "start": 31.5256,
      "duration": 0.0166,
      "velocity": 98,
      "chip": "ym2612"
    },
    {
      "channel": 0,
      "note": 43,
      "start": 31.536,
      "duration": 0.0161,
      "velocity": 115,
      "chip": "ym2612"
    },
    {
      "channel": 5,
      "note": 76,
      "start": 31.5372,
      "duration": 0.0161,
      "velocity": 98,
      "chip": "ym2612"
    },
    {
      "channel": 4,
      "note": 76,
      "start": 31.5386,
      "duration": 0.0159,
      "velocity": 86,
      "chip": "ym2612"
    },
    {
      "channel": 3,
      "note": 76,
      "start": 31.5399,
      "duration": 0.0158,
      "velocity": 86,
      "chip": "ym2612"
    },
    {
      "channel": 2,
      "note": 54,
      "start": 31.541,
      "duration": 0.0159,
      "velocity": 93,
      "chip": "ym2612"
    },
    {
      "channel": 1,
      "note": 80,
      "start": 31.5422,
      "duration": 0.016,
      "velocity": 98,
      "chip": "ym2612"
    },
    {
      "channel": 0,
      "note": 43,
      "start": 31.5521,
      "duration": 0.016,
      "velocity": 115,
      "chip": "ym2612"
    },
    {
      "channel": 5,
      "note": 76,
      "start": 31.5533,
      "duration": 0.0161,
      "velocity": 98,
      "chip": "ym2612"
    },
    {
      "channel": 4,
      "note": 76,
      "start": 31.5545,
      "duration": 0.016,
      "velocity": 86,
      "chip": "ym2612"
    },
    {
      "channel": 3,
      "note": 76,
      "start": 31.5557,
      "duration": 0.016,
      "velocity": 86,
      "chip": "ym2612"
    },
    {
      "channel": 2,
      "note": 54,
      "start": 31.5569,
      "duration": 0.0161,
      "velocity": 93,
      "chip": "ym2612"
    },
    {
      "channel": 1,
      "note": 80,
      "start": 31.5581,
      "duration": 0.016,
      "velocity": 98,
      "chip": "ym2612"
    },
    {
      "channel": 0,
      "note": 44,
      "start": 31.5682,
      "duration": 0.0179,
      "velocity": 124,
      "chip": "ym2612"
    },
    {
      "channel": 5,
      "note": 76,
      "start": 31.5694,
      "duration": 0.0179,
      "velocity": 98,
      "chip": "ym2612"
    },
    {
      "channel": 4,
      "note": 76,
      "start": 31.5705,
      "duration": 0.018,
      "velocity": 86,
      "chip": "ym2612"
    },
    {
      "channel": 2,
      "note": 54,
      "start": 31.573,
      "duration": 0.0184,
      "velocity": 93,
      "chip": "ym2612"
    },
    {
      "channel": 0,
      "note": 84,
      "start": 31.5862,
      "duration": 0.0137,
      "velocity": 124,
      "chip": "ym2612"
    },
    {
      "channel": 5,
      "note": 76,
      "start": 31.5873,
      "duration": 0.0143,
      "velocity": 98,
      "chip": "ym2612"
    },
    {
      "channel": 4,
      "note": 76,
      "start": 31.5885,
      "duration": 0.0143,
      "velocity": 86,
      "chip": "ym2612"
    },
    {
      "channel": 3,
      "note": 81,
      "start": 31.59,
      "duration": 0.0141,
      "velocity": 86,
      "chip": "ym2612"
    },
    {
      "channel": 2,
      "note": 54,
      "start": 31.5915,
      "duration": 0.0139,
      "velocity": 93,
      "chip": "ym2612"
    },
    {
      "channel": 1,
      "note": 81,
      "start": 31.5929,
      "duration": 0.0136,
      "velocity": 98,
      "chip": "ym2612"
    },
    {
      "channel": 0,
      "note": 82,
      "start": 31.5999,
      "duration": 0.016,
      "velocity": 124,
      "chip": "ym2612"
    },
    {
      "channel": 4,
      "note": 76,
      "start": 31.6028,
      "duration": 0.0163,
      "velocity": 86,
      "chip": "ym2612"
    },
    {
      "channel": 3,
      "note": 81,
      "start": 31.6041,
      "duration": 0.0162,
      "velocity": 86,
      "chip": "ym2612"
    },
    {
      "channel": 2,
      "note": 54,
      "start": 31.6053,
      "duration": 0.0162,
      "velocity": 93,
      "chip": "ym2612"
    },
    {
      "channel": 1,
      "note": 81,
      "start": 31.6065,
      "duration": 0.0161,
      "velocity": 98,
      "chip": "ym2612"
    },
    {
      "channel": 0,
      "note": 80,
      "start": 31.6159,
      "duration": 0.0161,
      "velocity": 124,
      "chip": "ym2612"
    },
    {
      "channel": 5,
      "note": 80,
      "start": 31.6176,
      "duration": 0.0156,
      "velocity": 98,
      "chip": "ym2612"
    },
    {
      "channel": 3,
      "note": 81,
      "start": 31.6203,
      "duration": 0.0162,
      "velocity": 86,
      "chip": "ym2612"
    },
    {
      "channel": 2,
      "note": 54,
      "start": 31.6215,
      "duration": 0.0161,
      "velocity": 93,
      "chip": "ym2612"
    },
    {
      "channel": 1,
      "note": 81,
      "start": 31.6227,
      "duration": 0.0162,
      "velocity": 98,
      "chip": "ym2612"
    },
    {
      "channel": 0,
      "note": 77,
      "start": 31.632,
      "duration": 0.0161,
      "velocity": 124,
      "chip": "ym2612"
    },
    {
      "channel": 5,
      "note": 80,
      "start": 31.6332,
      "duration": 0.016,
      "velocity": 98,
      "chip": "ym2612"
    },
    {
      "channel": 4,
      "note": 81,
      "start": 31.6353,
      "duration": 0.0154,
      "velocity": 86,
      "chip": "ym2612"
    },
    {
      "channel": 3,
      "note": 81,
      "start": 31.6365,
      "duration": 0.0159,
      "velocity": 86,
      "chip": "ym2612"
    },
    {
      "channel": 2,
      "note": 54,
      "start": 31.6376,
      "duration": 0.0159,
      "velocity": 93,
      "chip": "ym2612"
    },
    {
      "channel": 1,
      "note": 81,
      "start": 31.6388,
      "duration": 0.0158,
      "velocity": 98,
      "chip": "ym2612"
    },
    {
      "channel": 0,
      "note": 75,
      "start": 31.6481,
      "duration": 0.0161,
      "velocity": 124,
      "chip": "ym2612"
    },
    {
      "channel": 5,
      "note": 80,
      "start": 31.6493,
      "duration": 0.0161,
      "velocity": 98,
      "chip": "ym2612"
    },
    {
      "channel": 4,
      "note": 81,
      "start": 31.6507,
      "duration": 0.0159,
      "velocity": 86,
      "chip": "ym2612"
    },
    {
      "channel": 3,
      "note": 81,
      "start": 31.6523,
      "duration": 0.016,
      "velocity": 86,
      "chip": "ym2612"
    },
    {
      "channel": 2,
      "note": 54,
      "start": 31.6535,
      "duration": 0.016,
      "velocity": 93,
      "chip": "ym2612"
    },
    {
      "channel": 1,
      "note": 81,
      "start": 31.6546,
      "duration": 0.016,
      "velocity": 98,
      "chip": "ym2612"
    },
    {
      "channel": 0,
      "note": 72,
      "start": 31.6642,
      "duration": 0.0161,
      "velocity": 124,
      "chip": "ym2612"
    },
    {
      "channel": 5,
      "note": 80,
      "start": 31.6654,
      "duration": 0.0161,
      "velocity": 98,
      "chip": "ym2612"
    },
    {
      "channel": 4,
      "note": 81,
      "start": 31.6666,
      "duration": 0.0161,
      "velocity": 86,
      "chip": "ym2612"
    },
    {
      "channel": 3,
      "note": 81,
      "start": 31.6683,
      "duration": 0.0156,
      "velocity": 86,
      "chip": "ym2612"
    },
    {
      "channel": 2,
      "note": 54,
      "start": 31.6695,
      "duration": 0.0161,
      "velocity": 93,
      "chip": "ym2612"
    },
    {
      "channel": 1,
      "note": 81,
      "start": 31.6706,
      "duration": 0.0162,
      "velocity": 98,
      "chip": "ym2612"
    },
    {
      "channel": 0,
      "note": 70,
      "start": 31.6803,
      "duration": 0.0161,
      "velocity": 124,
      "chip": "ym2612"
    },
    {
      "channel": 5,
      "note": 80,
      "start": 31.6815,
      "duration": 0.0161,
      "velocity": 98,
      "chip": "ym2612"
    },
    {
      "channel": 4,
      "note": 81,
      "start": 31.6827,
      "duration": 0.0161,
      "velocity": 86,
      "chip": "ym2612"
    },
    {
      "channel": 3,
      "note": 81,
      "start": 31.6839,
      "duration": 0.0161,
      "velocity": 86,
      "chip": "ym2612"
    },
    {
      "channel": 2,
      "note": 54,
      "start": 31.6856,
      "duration": 0.016,
      "velocity": 93,
      "chip": "ym2612"
    },
    {
      "channel": 1,
      "note": 81,
      "start": 31.6868,
      "duration": 0.0161,
      "velocity": 98,
      "chip": "ym2612"
    },
    {
      "channel": 0,
      "note": 68,
      "start": 31.6964,
      "duration": 0.0161,
      "velocity": 124,
      "chip": "ym2612"
    },
    {
      "channel": 5,
      "note": 80,
      "start": 31.6976,
      "duration": 0.0161,
      "velocity": 98,
      "chip": "ym2612"
    },
    {
      "channel": 4,
      "note": 81,
      "start": 31.6988,
      "duration": 0.0161,
      "velocity": 86,
      "chip": "ym2612"
    },
    {
      "channel": 3,
      "note": 81,
      "start": 31.7,
      "duration": 0.0161,
      "velocity": 86,
      "chip": "ym2612"
    },
    {
      "channel": 2,
      "note": 54,
      "start": 31.7016,
      "duration": 0.0156,
      "velocity": 93,
      "chip": "ym2612"
    },
    {
      "channel": 1,
      "note": 81,
      "start": 31.7029,
      "duration": 0.016,
      "velocity": 98,
      "chip": "ym2612"
    },
    {
      "channel": 0,
      "note": 65,
      "start": 31.7125,
      "duration": 0.0161,
      "velocity": 124,
      "chip": "ym2612"
    },
    {
      "channel": 5,
      "note": 80,
      "start": 31.7137,
      "duration": 0.0161,
      "velocity": 98,
      "chip": "ym2612"
    },
    {
      "channel": 4,
      "note": 81,
      "start": 31.7149,
      "duration": 0.0161,
      "velocity": 86,
      "chip": "ym2612"
    },
    {
      "channel": 3,
      "note": 81,
      "start": 31.7161,
      "duration": 0.0161,
      "velocity": 86,
      "chip": "ym2612"
    },
    {
      "channel": 2,
      "note": 54,
      "start": 31.7172,
      "duration": 0.0162,
      "velocity": 93,
      "chip": "ym2612"
    },
    {
      "channel": 1,
      "note": 81,
      "start": 31.7189,
      "duration": 0.0162,
      "velocity": 98,
      "chip": "ym2612"
    },
    {
      "channel": 0,
      "note": 63,
      "start": 31.7286,
      "duration": 0.0153,
      "velocity": 1,
      "chip": "ym2612"
    },
    {
      "channel": 5,
      "note": 80,
      "start": 31.7298,
      "duration": 0.0153,
      "velocity": 98,
      "chip": "ym2612"
    },
    {
      "channel": 4,
      "note": 81,
      "start": 31.731,
      "duration": 0.0153,
      "velocity": 86,
      "chip": "ym2612"
    },
    {
      "channel": 3,
      "note": 81,
      "start": 31.7322,
      "duration": 0.0153,
      "velocity": 86,
      "chip": "ym2612"
    },
    {
      "channel": 2,
      "note": 54,
      "start": 31.7334,
      "duration": 0.0152,
      "velocity": 93,
      "chip": "ym2612"
    },
    {
      "channel": 1,
      "note": 81,
      "start": 31.7351,
      "duration": 0.0148,
      "velocity": 98,
      "chip": "ym2612"
    },
    {
      "channel": 5,
      "note": 80,
      "start": 31.7451,
      "duration": 0.0153,
      "velocity": 98,
      "chip": "ym2612"
    },
    {
      "channel": 4,
      "note": 81,
      "start": 31.7463,
      "duration": 0.0152,
      "velocity": 86,
      "chip": "ym2612"
    },
    {
      "channel": 3,
      "note": 81,
      "start": 31.7474,
      "duration": 0.0153,
      "velocity": 86,
      "chip": "ym2612"
    },
    {
      "channel": 2,
      "note": 54,
      "start": 31.7486,
      "duration": 0.0153,
      "velocity": 93,
      "chip": "ym2612"
    },
    {
      "channel": 1,
      "note": 81,
      "start": 31.7498,
      "duration": 0.0153,
      "velocity": 98,
      "chip": "ym2612"
    },
    {
      "channel": 5,
      "note": 80,
      "start": 31.7603,
      "duration": 0.0161,
      "velocity": 98,
      "chip": "ym2612"
    },
    {
      "channel": 4,
      "note": 81,
      "start": 31.7615,
      "duration": 0.0161,
      "velocity": 86,
      "chip": "ym2612"
    },
    {
      "channel": 2,
      "note": 54,
      "start": 31.764,
      "duration": 0.0163,
      "velocity": 93,
      "chip": "ym2612"
    },
    {
      "channel": 5,
      "note": 80,
      "start": 31.7764,
      "duration": 0.0161,
      "velocity": 98,
      "chip": "ym2612"
    },
    {
      "channel": 4,
      "note": 81,
      "start": 31.7776,
      "duration": 0.0162,
      "velocity": 86,
      "chip": "ym2612"
    },
    {
      "channel": 3,
      "note": 85,
      "start": 31.7791,
      "duration": 0.0158,
      "velocity": 86,
      "chip": "ym2612"
    },
    {
      "channel": 2,
      "note": 54,
      "start": 31.7802,
      "duration": 0.0159,
      "velocity": 93,
      "chip": "ym2612"
    },
    {
      "channel": 1,
      "note": 78,
      "start": 31.7817,
      "duration": 0.0156,
      "velocity": 98,
      "chip": "ym2612"
    },
    {
      "channel": 5,
      "note": 80,
      "start": 31.7925,
      "duration": 0.0161,
      "velocity": 98,
      "chip": "ym2612"
    },
    {
      "channel": 4,
      "note": 81,
      "start": 31.7937,
      "duration": 0.0161,
      "velocity": 86,
      "chip": "ym2612"
    },
    {
      "channel": 3,
      "note": 85,
      "start": 31.7949,
      "duration": 0.016,
      "velocity": 86,
      "chip": "ym2612"
    },
    {
      "channel": 2,
      "note": 54,
      "start": 31.7961,
      "duration": 0.0161,
      "velocity": 93,
      "chip": "ym2612"
    },
    {
      "channel": 1,
      "note": 78,
      "start": 31.7973,
      "duration": 0.016,
      "velocity": 98,
      "chip": "ym2612"
    },
    {
      "channel": 5,
      "note": 80,
      "start": 31.8086,
      "duration": 0.0161,
      "velocity": 98,
      "chip": "ym2612"
    },
    {
      "channel": 3,
      "note": 85,
      "start": 31.811,
      "duration": 0.0164,
      "velocity": 86,
      "chip": "ym2612"
    },
    {
      "channel": 2,
      "note": 54,
      "start": 31.8122,
      "duration": 0.0164,
      "velocity": 93,
      "chip": "ym2612"
    },
    {
      "channel": 1,
      "note": 78,
      "start": 31.8133,
      "duration": 0.0164,
      "velocity": 98,
      "chip": "ym2612"
    },
    {
      "channel": 5,
      "note": 80,
      "start": 31.8247,
      "duration": 0.0161,
      "velocity": 98,
      "chip": "ym2612"
    },
    {
      "channel": 4,
      "note": 85,
      "start": 31.8262,
      "duration": 0.0158,
      "velocity": 86,
      "chip": "ym2612"
    },
    {
      "channel": 3,
      "note": 85,
      "start": 31.8274,
      "duration": 0.0158,
      "velocity": 86,
      "chip": "ym2612"
    },
    {
      "channel": 2,
      "note": 54,
      "start": 31.8286,
      "duration": 0.0159,
      "velocity": 93,
      "chip": "ym2612"
    },
    {
      "channel": 1,
      "note": 78,
      "start": 31.8298,
      "duration": 0.0158,
      "velocity": 98,
      "chip": "ym2612"
    },
    {
      "channel": 5,
      "note": 80,
      "start": 31.8408,
      "duration": 0.0161,
      "velocity": 98,
      "chip": "ym2612"
    },
    {
      "channel": 4,
      "note": 85,
      "start": 31.842,
      "duration": 0.0161,
      "velocity": 86,
      "chip": "ym2612"
    },
    {
      "channel": 3,
      "note": 85,
      "start": 31.8432,
      "duration": 0.016,
      "velocity": 86,
      "chip": "ym2612"
    },
    {
      "channel": 2,
      "note": 54,
      "start": 31.8444,
      "duration": 0.0161,
      "velocity": 93,
      "chip": "ym2612"
    },
    {
      "channel": 1,
      "note": 78,
      "start": 31.8456,
      "duration": 0.0161,
      "velocity": 98,
      "chip": "ym2612"
    },
    {
      "channel": 5,
      "note": 80,
      "start": 31.8569,
      "duration": 0.0196,
      "velocity": 98,
      "chip": "ym2612"
    },
    {
      "channel": 4,
      "note": 85,
      "start": 31.8581,
      "duration": 0.0196,
      "velocity": 86,
      "chip": "ym2612"
    },
    {
      "channel": 3,
      "note": 85,
      "start": 31.8593,
      "duration": 0.0197,
      "velocity": 86,
      "chip": "ym2612"
    },
    {
      "channel": 2,
      "note": 54,
      "start": 31.8605,
      "duration": 0.0198,
      "velocity": 93,
      "chip": "ym2612"
    },
    {
      "channel": 1,
      "note": 78,
      "start": 31.8617,
      "duration": 0.0198,
      "velocity": 98,
      "chip": "ym2612"
    },
    {
      "channel": 0,
      "note": 36,
      "start": 31.8754,
      "duration": 0.0143,
      "velocity": 115,
      "chip": "ym2612"
    },
    {
      "channel": 5,
      "note": 80,
      "start": 31.8766,
      "duration": 0.0143,
      "velocity": 98,
      "chip": "ym2612"
    },
    {
      "channel": 4,
      "note": 85,
      "start": 31.8777,
      "duration": 0.0144,
      "velocity": 86,
      "chip": "ym2612"
    },
    {
      "channel": 3,
      "note": 85,
      "start": 31.8789,
      "duration": 0.0143,
      "velocity": 86,
      "chip": "ym2612"
    },
    {
      "channel": 2,
      "note": 54,
      "start": 31.8804,
      "duration": 0.0141,
      "velocity": 93,
      "chip": "ym2612"
    },
    {
      "channel": 1,
      "note": 78,
      "start": 31.8815,
      "duration": 0.0141,
      "velocity": 98,
      "chip": "ym2612"
    },
    {
      "channel": 0,
      "note": 36,
      "start": 31.8897,
      "duration": 0.016,
      "velocity": 115,
      "chip": "ym2612"
    },
    {
      "channel": 4,
      "note": 85,
      "start": 31.8921,
      "duration": 0.0163,
      "velocity": 86,
      "chip": "ym2612"
    },
    {
      "channel": 3,
      "note": 85,
      "start": 31.8932,
      "duration": 0.0163,
      "velocity": 86,
      "chip": "ym2612"
    },
    {
      "channel": 2,
      "note": 54,
      "start": 31.8945,
      "duration": 0.0162,
      "velocity": 93,
      "chip": "ym2612"
    },
    {
      "channel": 1,
      "note": 78,
      "start": 31.8956,
      "duration": 0.0162,
      "velocity": 98,
      "chip": "ym2612"
    },
    {
      "channel": 0,
      "note": 37,
      "start": 31.9058,
      "duration": 0.0161,
      "velocity": 115,
      "chip": "ym2612"
    },
    {
      "channel": 5,
      "note": 81,
      "start": 31.9072,
      "duration": 0.0158,
      "velocity": 98,
      "chip": "ym2612"
    },
    {
      "channel": 4,
      "note": 85,
      "start": 31.9084,
      "duration": 0.0159,
      "velocity": 86,
      "chip": "ym2612"
    },
    {
      "channel": 3,
      "note": 85,
      "start": 31.9095,
      "duration": 0.0159,
      "velocity": 86,
      "chip": "ym2612"
    },
    {
      "channel": 2,
      "note": 54,
      "start": 31.9107,
      "duration": 0.0159,
      "velocity": 93,
      "chip": "ym2612"
    },
    {
      "channel": 1,
      "note": 78,
      "start": 31.9119,
      "duration": 0.0159,
      "velocity": 98,
      "chip": "ym2612"
    },
    {
      "channel": 0,
      "note": 37,
      "start": 31.9219,
      "duration": 0.0161,
      "velocity": 115,
      "chip": "ym2612"
    },
    {
      "channel": 5,
      "note": 81,
      "start": 31.9231,
      "duration": 0.016,
      "velocity": 98,
      "chip": "ym2612"
    },
    {
      "channel": 4,
      "note": 85,
      "start": 31.9243,
      "duration": 0.016,
      "velocity": 86,
      "chip": "ym2612"
    },
    {
      "channel": 3,
      "note": 85,
      "start": 31.9254,
      "duration": 0.016,
      "velocity": 86,
      "chip": "ym2612"
    },
    {
      "channel": 2,
      "note": 54,
      "start": 31.9266,
      "duration": 0.016,
      "velocity": 93,
      "chip": "ym2612"
    },
    {
      "channel": 1,
      "note": 78,
      "start": 31.9278,
      "duration": 0.016,
      "velocity": 98,
      "chip": "ym2612"
    },
    {
      "channel": 0,
      "note": 38,
      "start": 31.938,
      "duration": 0.0161,
      "velocity": 115,
      "chip": "ym2612"
    },
    {
      "channel": 5,
      "note": 81,
      "start": 31.9391,
      "duration": 0.0162,
      "velocity": 98,
      "chip": "ym2612"
    },
    {
      "channel": 4,
      "note": 85,
      "start": 31.9403,
      "duration": 0.0162,
      "velocity": 86,
      "chip": "ym2612"
    },
    {
      "channel": 3,
      "note": 85,
      "start": 31.9415,
      "duration": 0.0161,
      "velocity": 86,
      "chip": "ym2612"
    },
    {
      "channel": 2,
      "note": 54,
      "start": 31.9427,
      "duration": 0.0162,
      "velocity": 93,
      "chip": "ym2612"
    },
    {
      "channel": 1,
      "note": 78,
      "start": 31.9438,
      "duration": 0.0161,
      "velocity": 98,
      "chip": "ym2612"
    },
    {
      "channel": 0,
      "note": 38,
      "start": 31.9541,
      "duration": 0.0161,
      "velocity": 115,
      "chip": "ym2612"
    },
    {
      "channel": 5,
      "note": 81,
      "start": 31.9553,
      "duration": 0.0161,
      "velocity": 98,
      "chip": "ym2612"
    },
    {
      "channel": 4,
      "note": 85,
      "start": 31.9565,
      "duration": 0.0161,
      "velocity": 86,
      "chip": "ym2612"
    },
    {
      "channel": 3,
      "note": 85,
      "start": 31.9576,
      "duration": 0.0162,
      "velocity": 86,
      "chip": "ym2612"
    },
    {
      "channel": 2,
      "note": 54,
      "start": 31.9588,
      "duration": 0.0161,
      "velocity": 93,
      "chip": "ym2612"
    },
    {
      "channel": 1,
      "note": 78,
      "start": 31.96,
      "duration": 0.0162,
      "velocity": 98,
      "chip": "ym2612"
    },
    {
      "channel": 0,
      "note": 39,
      "start": 31.9702,
      "duration": 0.0164,
      "velocity": 115,
      "chip": "ym2612"
    },
    {
      "channel": 5,
      "note": 81,
      "start": 31.9714,
      "duration": 0.0164,
      "velocity": 98,
      "chip": "ym2612"
    },
    {
      "channel": 4,
      "note": 85,
      "start": 31.9726,
      "duration": 0.0164,
      "velocity": 86,
      "chip": "ym2612"
    },
    {
      "channel": 3,
      "note": 85,
      "start": 31.9738,
      "duration": 0.0164,
      "velocity": 86,
      "chip": "ym2612"
    },
    {
      "channel": 2,
      "note": 54,
      "start": 31.9749,
      "duration": 0.0164,
      "velocity": 93,
      "chip": "ym2612"
    },
    {
      "channel": 1,
      "note": 78,
      "start": 31.9761,
      "duration": 0.0164,
      "velocity": 98,
      "chip": "ym2612"
    },
    {
      "channel": 0,
      "note": 39,
      "start": 31.9866,
      "duration": 0.0163,
      "velocity": 115,
      "chip": "ym2612"
    },
    {
      "channel": 5,
      "note": 81,
      "start": 31.9878,
      "duration": 0.0163,
      "velocity": 98,
      "chip": "ym2612"
    },
    {
      "channel": 4,
      "note": 85,
      "start": 31.989,
      "duration": 0.0163,
      "velocity": 86,
      "chip": "ym2612"
    },
    {
      "channel": 3,
      "note": 85,
      "start": 31.9902,
      "duration": 0.0163,
      "velocity": 86,
      "chip": "ym2612"
    },
    {
      "channel": 2,
      "note": 54,
      "start": 31.9913,
      "duration": 0.0163,
      "velocity": 93,
      "chip": "ym2612"
    },
    {
      "channel": 1,
      "note": 78,
      "start": 31.9925,
      "duration": 0.0163,
      "velocity": 98,
      "chip": "ym2612"
    },
    {
      "channel": 0,
      "note": 40,
      "start": 32.003,
      "duration": 0.0161,
      "velocity": 115,
      "chip": "ym2612"
    },
    {
      "channel": 5,
      "note": 81,
      "start": 32.0041,
      "duration": 0.0161,
      "velocity": 98,
      "chip": "ym2612"
    },
    {
      "channel": 4,
      "note": 85,
      "start": 32.0053,
      "duration": 0.0161,
      "velocity": 86,
      "chip": "ym2612"
    },
    {
      "channel": 3,
      "note": 85,
      "start": 32.0065,
      "duration": 0.0161,
      "velocity": 86,
      "chip": "ym2612"
    },
    {
      "channel": 2,
      "note": 54,
      "start": 32.0077,
      "duration": 0.0162,
      "velocity": 93,
      "chip": "ym2612"
    },
    {
      "channel": 1,
      "note": 78,
      "start": 32.0088,
      "duration": 0.0161,
      "velocity": 98,
      "chip": "ym2612"
    },
    {
      "channel": 0,
      "note": 40,
      "start": 32.019,
      "duration": 0.016,
      "velocity": 115,
      "chip": "ym2612"
    },
    {
      "channel": 5,
      "note": 81,
      "start": 32.0202,
      "duration": 0.0161,
      "velocity": 98,
      "chip": "ym2612"
    },
    {
      "channel": 4,
      "note": 85,
      "start": 32.0214,
      "duration": 0.0161,
      "velocity": 86,
      "chip": "ym2612"
    },
    {
      "channel": 3,
      "note": 85,
      "start": 32.0226,
      "duration": 0.0161,
      "velocity": 86,
      "chip": "ym2612"
    },
    {
      "channel": 2,
      "note": 54,
      "start": 32.0238,
      "duration": 0.0161,
      "velocity": 93,
      "chip": "ym2612"
    },
    {
      "channel": 1,
      "note": 78,
      "start": 32.025,
      "duration": 0.0161,
      "velocity": 98,
      "chip": "ym2612"
    },
    {
      "channel": 0,
      "note": 40,
      "start": 32.0351,
      "duration": 0.0158,
      "velocity": 115,
      "chip": "ym2612"
    },
    {
      "channel": 5,
      "note": 81,
      "start": 32.0363,
      "duration": 0.0161,
      "velocity": 98,
      "chip": "ym2612"
    },
    {
      "channel": 4,
      "note": 85,
      "start": 32.0375,
      "duration": 0.0161,
      "velocity": 86,
      "chip": "ym2612"
    },
    {
      "channel": 3,
      "note": 85,
      "start": 32.0387,
      "duration": 0.0161,
      "velocity": 86,
      "chip": "ym2612"
    },
    {
      "channel": 2,
      "note": 54,
      "start": 32.0399,
      "duration": 0.0161,
      "velocity": 93,
      "chip": "ym2612"
    },
    {
      "channel": 1,
      "note": 78,
      "start": 32.0411,
      "duration": 0.0162,
      "velocity": 98,
      "chip": "ym2612"
    },
    {
      "channel": 0,
      "note": 41,
      "start": 32.0509,
      "duration": 0.0183,
      "velocity": 115,
      "chip": "ym2612"
    },
    {
      "channel": 5,
      "note": 81,
      "start": 32.0524,
      "duration": 0.0179,
      "velocity": 98,
      "chip": "ym2612"
    },
    {
      "channel": 4,
      "note": 85,
      "start": 32.0536,
      "duration": 0.0179,
      "velocity": 86,
      "chip": "ym2612"
    },
    {
      "channel": 2,
      "note": 54,
      "start": 32.056,
      "duration": 0.0182,
      "velocity": 93,
      "chip": "ym2612"
    },
    {
      "channel": 0,
      "note": 36,
      "start": 32.0692,
      "duration": 0.0137,
      "velocity": 115,
      "chip": "ym2612"
    },
    {
      "channel": 5,
      "note": 81,
      "start": 32.0703,
      "duration": 0.014,
      "velocity": 98,
      "chip": "ym2612"
    },
    {
      "channel": 4,
      "note": 85,
      "start": 32.0715,
      "duration": 0.0144,
      "velocity": 86,
      "chip": "ym2612"
    },
    {
      "channel": 3,
      "note": 76,
      "start": 32.0731,
      "duration": 0.0141,
      "velocity": 86,
      "chip": "ym2612"
    },
    {
      "channel": 2,
      "note": 54,
      "start": 32.0742,
      "duration": 0.0141,
      "velocity": 93,
      "chip": "ym2612"
    },
    {
      "channel": 1,
      "note": 73,
      "start": 32.0757,
      "duration": 0.0139,
      "velocity": 98,
      "chip": "ym2612"
    },
    {
      "channel": 0,
      "note": 36,
      "start": 32.0829,
      "duration": 0.016,
      "velocity": 115,
      "chip": "ym2612"
    },
    {
      "channel": 4,
      "note": 85,
      "start": 32.0859,
      "duration": 0.0163,
      "velocity": 86,
      "chip": "ym2612"
    },
    {
      "channel": 3,
      "note": 76,
      "start": 32.0871,
      "duration": 0.0163,
      "velocity": 86,
      "chip": "ym2612"
    },
    {
      "channel": 2,
      "note": 54,
      "start": 32.0883,
      "duration": 0.0163,
      "velocity": 93,
      "chip": "ym2612"
    },
    {
      "channel": 1,
      "note": 73,
      "start": 32.0895,
      "duration": 0.0161,
      "velocity": 98,
      "chip": "ym2612"
    },
    {
      "channel": 0,
      "note": 37,
      "start": 32.099,
      "duration": 0.0161,
      "velocity": 115,
      "chip": "ym2612"
    },
    {
      "channel": 5,
      "note": 78,
      "start": 32.1004,
      "duration": 0.0159,
      "velocity": 98,
      "chip": "ym2612"
    },
    {
      "channel": 3,
      "note": 76,
      "start": 32.1034,
      "duration": 0.0162,
      "velocity": 86,
      "chip": "ym2612"
    },
    {
      "channel": 2,
      "note": 54,
      "start": 32.1046,
      "duration": 0.0161,
      "velocity": 93,
      "chip": "ym2612"
    },
    {
      "channel": 1,
      "note": 73,
      "start": 32.1057,
      "duration": 0.0162,
      "velocity": 98,
      "chip": "ym2612"
    },
    {
      "channel": 0,
      "note": 37,
      "start": 32.1151,
      "duration": 0.0161,
      "velocity": 115,
      "chip": "ym2612"
    },
    {
      "channel": 5,
      "note": 78,
      "start": 32.1163,
      "duration": 0.016,
      "velocity": 98,
      "chip": "ym2612"
    },
    {
      "channel": 4,
      "note": 76,
      "start": 32.1183,
      "duration": 0.0152,
      "velocity": 86,
      "chip": "ym2612"
    },
    {
      "channel": 3,
      "note": 76,
      "start": 32.1196,
      "duration": 0.0157,
      "velocity": 86,
      "chip": "ym2612"
    },
    {
      "channel": 2,
      "note": 54,
      "start": 32.1207,
      "duration": 0.0159,
      "velocity": 93,
      "chip": "ym2612"
    },
    {
      "channel": 1,
      "note": 73,
      "start": 32.1219,
      "duration": 0.0158,
      "velocity": 98,
      "chip": "ym2612"
    },
    {
      "channel": 0,
      "note": 38,
      "start": 32.1311,
      "duration": 0.0161,
      "velocity": 115,
      "chip": "ym2612"
    },
    {
      "channel": 5,
      "note": 78,
      "start": 32.1324,
      "duration": 0.0161,
      "velocity": 98,
      "chip": "ym2612"
    },
    {
      "channel": 4,
      "note": 76,
      "start": 32.1336,
      "duration": 0.016,
      "velocity": 86,
      "chip": "ym2612"
    },
    {
      "channel": 3,
      "note": 76,
      "start": 32.1353,
      "duration": 0.0157,
      "velocity": 86,
      "chip": "ym2612"
    },
    {
      "channel": 2,
      "note": 54,
      "start": 32.1366,
      "duration": 0.0161,
      "velocity": 93,
      "chip": "ym2612"
    },
    {
      "channel": 1,
      "note": 73,
      "start": 32.1377,
      "duration": 0.0161,
      "velocity": 98,
      "chip": "ym2612"
    },
    {
      "channel": 0,
      "note": 38,
      "start": 32.1472,
      "duration": 0.0179,
      "velocity": 124,
      "chip": "ym2612"
    },
    {
      "channel": 5,
      "note": 78,
      "start": 32.1484,
      "duration": 0.018,
      "velocity": 98,
      "chip": "ym2612"
    },
    {
      "channel": 4,
      "note": 76,
      "start": 32.1496,
      "duration": 0.0182,
      "velocity": 86,
      "chip": "ym2612"
    },
    {
      "channel": 2,
      "note": 54,
      "start": 32.1527,
      "duration": 0.0184,
      "velocity": 93,
      "chip": "ym2612"
    },
    {
      "channel": 1,
      "note": 73,
      "start": 32.1538,
      "duration": 0.0185,
      "velocity": 98,
      "chip": "ym2612"
    },
    {
      "channel": 0,
      "note": 84,
      "start": 32.1652,
      "duration": 0.0143,
      "velocity": 124,
      "chip": "ym2612"
    },
    {
      "channel": 5,
      "note": 78,
      "start": 32.1664,
      "duration": 0.0143,
      "velocity": 98,
      "chip": "ym2612"
    },
    {
      "channel": 4,
      "note": 76,
      "start": 32.1678,
      "duration": 0.0141,
      "velocity": 86,
      "chip": "ym2612"
    },
    {
      "channel": 3,
      "note": 81,
      "start": 32.1696,
      "duration": 0.0135,
      "velocity": 86,
      "chip": "ym2612"
    },
    {
      "channel": 2,
      "note": 54,
      "start": 32.1711,
      "duration": 0.0137,
      "velocity": 93,
      "chip": "ym2612"
    },
    {
      "channel": 1,
      "note": 73,
      "start": 32.1722,
      "duration": 0.0139,
      "velocity": 98,
      "chip": "ym2612"
    },
    {
      "channel": 0,
      "note": 82,
      "start": 32.1795,
      "duration": 0.016,
      "velocity": 124,
      "chip": "ym2612"
    },
    {
      "channel": 5,
      "note": 78,
      "start": 32.1807,
      "duration": 0.016,
      "velocity": 98,
      "chip": "ym2612"
    },
    {
      "channel": 4,
      "note": 76,
      "start": 32.1818,
      "duration": 0.016,
      "velocity": 86,
      "chip": "ym2612"
    },
    {
      "channel": 3,
      "note": 81,
      "start": 32.1831,
      "duration": 0.016,
      "velocity": 86,
      "chip": "ym2612"
    },
    {
      "channel": 2,
      "note": 54,
      "start": 32.1848,
      "duration": 0.0154,
      "velocity": 93,
      "chip": "ym2612"
    },
    {
      "channel": 1,
      "note": 73,
      "start": 32.1861,
      "duration": 0.0159,
      "velocity": 98,
      "chip": "ym2612"
    },
    {
      "channel": 0,
      "note": 80,
      "start": 32.1956,
      "duration": 0.0161,
      "velocity": 124,
      "chip": "ym2612"
    },
    {
      "channel": 5,
      "note": 78,
      "start": 32.1967,
      "duration": 0.0161,
      "velocity": 98,
      "chip": "ym2612"
    },
    {
      "channel": 3,
      "note": 81,
      "start": 32.1991,
      "duration": 0.0164,
      "velocity": 86,
      "chip": "ym2612"
    },
    {
      "channel": 2,
      "note": 54,
      "start": 32.2002,
      "duration": 0.0164,
      "velocity": 93,
      "chip": "ym2612"
    },
    {
      "channel": 1,
      "note": 73,
      "start": 32.202,
      "duration": 0.0163,
      "velocity": 98,
      "chip": "ym2612"
    },
    {
      "channel": 0,
      "note": 77,
      "start": 32.2117,
      "duration": 0.0161,
      "velocity": 124,
      "chip": "ym2612"
    },
    {
      "channel": 5,
      "note": 78,
      "start": 32.2128,
      "duration": 0.0161,
      "velocity": 98,
      "chip": "ym2612"
    },
    {
      "channel": 4,
      "note": 81,
      "start": 32.2143,
      "duration": 0.0159,
      "velocity": 86,
      "chip": "ym2612"
    },
    {
      "channel": 3,
      "note": 81,
      "start": 32.2155,
      "duration": 0.0159,
      "velocity": 86,
      "chip": "ym2612"
    },
    {
      "channel": 2,
      "note": 54,
      "start": 32.2166,
      "duration": 0.0158,
      "velocity": 93,
      "chip": "ym2612"
    },
    {
      "channel": 1,
      "note": 73,
      "start": 32.2183,
      "duration": 0.0154,
      "velocity": 98,
      "chip": "ym2612"
    },
    {
      "channel": 0,
      "note": 75,
      "start": 32.2278,
      "duration": 0.0161,
      "velocity": 124,
      "chip": "ym2612"
    },
    {
      "channel": 5,
      "note": 78,
      "start": 32.2289,
      "duration": 0.0161,
      "velocity": 98,
      "chip": "ym2612"
    },
    {
      "channel": 4,
      "note": 81,
      "start": 32.2302,
      "duration": 0.016,
      "velocity": 86,
      "chip": "ym2612"
    },
    {
      "channel": 3,
      "note": 81,
      "start": 32.2313,
      "duration": 0.016,
      "velocity": 86,
      "chip": "ym2612"
    },
    {
      "channel": 2,
      "note": 54,
      "start": 32.2325,
      "duration": 0.016,
      "velocity": 93,
      "chip": "ym2612"
    },
    {
      "channel": 1,
      "note": 73,
      "start": 32.2337,
      "duration": 0.016,
      "velocity": 98,
      "chip": "ym2612"
    },
    {
      "channel": 0,
      "note": 72,
      "start": 32.2439,
      "duration": 0.0161,
      "velocity": 124,
      "chip": "ym2612"
    },
    {
      "channel": 5,
      "note": 78,
      "start": 32.245,
      "duration": 0.0161,
      "velocity": 98,
      "chip": "ym2612"
    },
    {
      "channel": 4,
      "note": 81,
      "start": 32.2462,
      "duration": 0.0161,
      "velocity": 86,
      "chip": "ym2612"
    },
    {
      "channel": 3,
      "note": 81,
      "start": 32.2474,
      "duration": 0.0161,
      "velocity": 86,
      "chip": "ym2612"
    },
    {
      "channel": 2,
      "note": 54,
      "start": 32.2485,
      "duration": 0.0162,
      "velocity": 93,
      "chip": "ym2612"
    },
    {
      "channel": 1,
      "note": 73,
      "start": 32.2497,
      "duration": 0.0161,
      "velocity": 98,
      "chip": "ym2612"
    },
    {
      "channel": 0,
      "note": 70,
      "start": 32.26,
      "duration": 0.0161,
      "velocity": 124,
      "chip": "ym2612"
    },
    {
      "channel": 5,
      "note": 78,
      "start": 32.2612,
      "duration": 0.0161,
      "velocity": 98,
      "chip": "ym2612"
    },
    {
      "channel": 4,
      "note": 81,
      "start": 32.2623,
      "duration": 0.0161,
      "velocity": 86,
      "chip": "ym2612"
    },
    {
      "channel": 3,
      "note": 81,
      "start": 32.2635,
      "duration": 0.0161,
      "velocity": 86,
      "chip": "ym2612"
    },
    {
      "channel": 2,
      "note": 54,
      "start": 32.2647,
      "duration": 0.0161,
      "velocity": 93,
      "chip": "ym2612"
    },
    {
      "channel": 1,
      "note": 73,
      "start": 32.2658,
      "duration": 0.0161,
      "velocity": 98,
      "chip": "ym2612"
    },
    {
      "channel": 0,
      "note": 68,
      "start": 32.2761,
      "duration": 0.0161,
      "velocity": 124,
      "chip": "ym2612"
    },
    {
      "channel": 5,
      "note": 78,
      "start": 32.2773,
      "duration": 0.0161,
      "velocity": 98,
      "chip": "ym2612"
    },
    {
      "channel": 4,
      "note": 81,
      "start": 32.2784,
      "duration": 0.0161,
      "velocity": 86,
      "chip": "ym2612"
    },
    {
      "channel": 3,
      "note": 81,
      "start": 32.2796,
      "duration": 0.0161,
      "velocity": 86,
      "chip": "ym2612"
    },
    {
      "channel": 2,
      "note": 54,
      "start": 32.2808,
      "duration": 0.0161,
      "velocity": 93,
      "chip": "ym2612"
    },
    {
      "channel": 1,
      "note": 73,
      "start": 32.2819,
      "duration": 0.0161,
      "velocity": 98,
      "chip": "ym2612"
    },
    {
      "channel": 0,
      "note": 65,
      "start": 32.2922,
      "duration": 0.0161,
      "velocity": 124,
      "chip": "ym2612"
    },
    {
      "channel": 5,
      "note": 78,
      "start": 32.2934,
      "duration": 0.0161,
      "velocity": 98,
      "chip": "ym2612"
    },
    {
      "channel": 4,
      "note": 81,
      "start": 32.2945,
      "duration": 0.0161,
      "velocity": 86,
      "chip": "ym2612"
    },
    {
      "channel": 3,
      "note": 81,
      "start": 32.2957,
      "duration": 0.0161,
      "velocity": 86,
      "chip": "ym2612"
    },
    {
      "channel": 2,
      "note": 54,
      "start": 32.2968,
      "duration": 0.0162,
      "velocity": 93,
      "chip": "ym2612"
    },
    {
      "channel": 1,
      "note": 73,
      "start": 32.298,
      "duration": 0.0162,
      "velocity": 98,
      "chip": "ym2612"
    },
    {
      "channel": 0,
      "note": 63,
      "start": 32.3082,
      "duration": 0.0154,
      "velocity": 1,
      "chip": "ym2612"
    },
    {
      "channel": 5,
      "note": 78,
      "start": 32.3095,
      "duration": 0.0153,
      "velocity": 98,
      "chip": "ym2612"
    },
    {
      "channel": 4,
      "note": 81,
      "start": 32.3106,
      "duration": 0.0153,
      "velocity": 86,
      "chip": "ym2612"
    },
    {
      "channel": 3,
      "note": 81,
      "start": 32.3118,
      "duration": 0.0153,
      "velocity": 86,
      "chip": "ym2612"
    },
    {
      "channel": 2,
      "note": 54,
      "start": 32.3131,
      "duration": 0.0152,
      "velocity": 93,
      "chip": "ym2612"
    },
    {
      "channel": 1,
      "note": 73,
      "start": 32.3142,
      "duration": 0.0153,
      "velocity": 98,
      "chip": "ym2612"
    },
    {
      "channel": 5,
      "note": 78,
      "start": 32.3247,
      "duration": 0.0153,
      "velocity": 98,
      "chip": "ym2612"
    },
    {
      "channel": 4,
      "note": 81,
      "start": 32.3259,
      "duration": 0.0153,
      "velocity": 86,
      "chip": "ym2612"
    },
    {
      "channel": 3,
      "note": 81,
      "start": 32.3271,
      "duration": 0.0153,
      "velocity": 86,
      "chip": "ym2612"
    },
    {
      "channel": 2,
      "note": 54,
      "start": 32.3283,
      "duration": 0.0153,
      "velocity": 93,
      "chip": "ym2612"
    },
    {
      "channel": 1,
      "note": 73,
      "start": 32.3295,
      "duration": 0.0153,
      "velocity": 98,
      "chip": "ym2612"
    },
    {
      "channel": 5,
      "note": 78,
      "start": 32.34,
      "duration": 0.0161,
      "velocity": 98,
      "chip": "ym2612"
    },
    {
      "channel": 4,
      "note": 81,
      "start": 32.3411,
      "duration": 0.0161,
      "velocity": 86,
      "chip": "ym2612"
    },
    {
      "channel": 2,
      "note": 54,
      "start": 32.3435,
      "duration": 0.0163,
      "velocity": 93,
      "chip": "ym2612"
    },
    {
      "channel": 1,
      "note": 73,
      "start": 32.3448,
      "duration": 0.0163,
      "velocity": 98,
      "chip": "ym2612"
    },
    {
      "channel": 5,
      "note": 78,
      "start": 32.3561,
      "duration": 0.0161,
      "velocity": 98,
      "chip": "ym2612"
    },
    {
      "channel": 4,
      "note": 81,
      "start": 32.3572,
      "duration": 0.0161,
      "velocity": 86,
      "chip": "ym2612"
    },
    {
      "channel": 3,
      "note": 85,
      "start": 32.3588,
      "duration": 0.0158,
      "velocity": 86,
      "chip": "ym2612"
    },
    {
      "channel": 2,
      "note": 54,
      "start": 32.3599,
      "duration": 0.0159,
      "velocity": 93,
      "chip": "ym2612"
    },
    {
      "channel": 1,
      "note": 73,
      "start": 32.3611,
      "duration": 0.0158,
      "velocity": 98,
      "chip": "ym2612"
    },
    {
      "channel": 4,
      "note": 81,
      "start": 32.3734,
      "duration": 0.0163,
      "velocity": 86,
      "chip": "ym2612"
    },
    {
      "channel": 3,
      "note": 85,
      "start": 32.3746,
      "duration": 0.0163,
      "velocity": 86,
      "chip": "ym2612"
    },
    {
      "channel": 2,
      "note": 54,
      "start": 32.3757,
      "duration": 0.0163,
      "velocity": 93,
      "chip": "ym2612"
    },
    {
      "channel": 1,
      "note": 73,
      "start": 32.3769,
      "duration": 0.0163,
      "velocity": 98,
      "chip": "ym2612"
    },
    {
      "channel": 5,
      "note": 73,
      "start": 32.3886,
      "duration": 0.0158,
      "velocity": 98,
      "chip": "ym2612"
    },
    {
      "channel": 3,
      "note": 85,
      "start": 32.3909,
      "duration": 0.0162,
      "velocity": 86,
      "chip": "ym2612"
    },
    {
      "channel": 2,
      "note": 54,
      "start": 32.3921,
      "duration": 0.0162,
      "velocity": 93,
      "chip": "ym2612"
    },
    {
      "channel": 1,
      "note": 73,
      "start": 32.3932,
      "duration": 0.0162,
      "velocity": 98,
      "chip": "ym2612"
    },
    {
      "channel": 5,
      "note": 73,
      "start": 32.4044,
      "duration": 0.016,
      "velocity": 98,
      "chip": "ym2612"
    },
    {
      "channel": 4,
      "note": 85,
      "start": 32.4059,
      "duration": 0.0157,
      "velocity": 86,
      "chip": "ym2612"
    },
    {
      "channel": 3,
      "note": 85,
      "start": 32.4071,
      "duration": 0.0158,
      "velocity": 86,
      "chip": "ym2612"
    },
    {
      "channel": 2,
      "note": 54,
      "start": 32.4083,
      "duration": 0.0158,
      "velocity": 93,
      "chip": "ym2612"
    },
    {
      "channel": 1,
      "note": 73,
      "start": 32.4095,
      "duration": 0.0158,
      "velocity": 98,
      "chip": "ym2612"
    },
    {
      "channel": 5,
      "note": 73,
      "start": 32.4205,
      "duration": 0.0162,
      "velocity": 98,
      "chip": "ym2612"
    },
    {
      "channel": 4,
      "note": 85,
      "start": 32.4217,
      "duration": 0.0162,
      "velocity": 86,
      "chip": "ym2612"
    },
    {
      "channel": 3,
      "note": 85,
      "start": 32.4229,
      "duration": 0.0161,
      "velocity": 86,
      "chip": "ym2612"
    },
    {
      "channel": 2,
      "note": 54,
      "start": 32.4241,
      "duration": 0.0162,
      "velocity": 93,
      "chip": "ym2612"
    },
    {
      "channel": 1,
      "note": 73,
      "start": 32.4252,
      "duration": 0.0162,
      "velocity": 98,
      "chip": "ym2612"
    },
    {
      "channel": 5,
      "note": 73,
      "start": 32.4366,
      "duration": 0.0199,
      "velocity": 98,
      "chip": "ym2612"
    },
    {
      "channel": 4,
      "note": 85,
      "start": 32.4378,
      "duration": 0.0198,
      "velocity": 86,
      "chip": "ym2612"
    },
    {
      "channel": 2,
      "note": 54,
      "start": 32.4402,
      "duration": 0.0205,
      "velocity": 93,
      "chip": "ym2612"
    },
    {
      "channel": 1,
      "note": 73,
      "start": 32.4414,
      "duration": 0.0206,
      "velocity": 98,
      "chip": "ym2612"
    },
    {
      "channel": 0,
      "note": 36,
      "start": 32.4554,
      "duration": 0.0145,
      "velocity": 115,
      "chip": "ym2612"
    },
    {
      "channel": 5,
      "note": 73,
      "start": 32.4565,
      "duration": 0.0146,
      "velocity": 98,
      "chip": "ym2612"
    },
    {
      "channel": 4,
      "note": 85,
      "start": 32.4577,
      "duration": 0.0146,
      "velocity": 86,
      "chip": "ym2612"
    },
    {
      "channel": 3,
      "note": 86,
      "start": 32.4593,
      "duration": 0.0141,
      "velocity": 86,
      "chip": "ym2612"
    },
    {
      "channel": 2,
      "note": 59,
      "start": 32.4608,
      "duration": 0.0139,
      "velocity": 93,
      "chip": "ym2612"
    },
    {
      "channel": 1,
      "note": 73,
      "start": 32.462,
      "duration": 0.0139,
      "velocity": 98,
      "chip": "ym2612"
    },
    {
      "channel": 0,
      "note": 36,
      "start": 32.4699,
      "duration": 0.0161,
      "velocity": 115,
      "chip": "ym2612"
    },
    {
      "channel": 5,
      "note": 73,
      "start": 32.4711,
      "duration": 0.016,
      "velocity": 98,
      "chip": "ym2612"
    },
    {
      "channel": 4,
      "note": 85,
      "start": 32.4722,
      "duration": 0.0161,
      "velocity": 86,
      "chip": "ym2612"
    },
    {
      "channel": 3,
      "note": 86,
      "start": 32.4734,
      "duration": 0.016,
      "velocity": 86,
      "chip": "ym2612"
    },
    {
      "channel": 2,
      "note": 59,
      "start": 32.4747,
      "duration": 0.0159,
      "velocity": 93,
      "chip": "ym2612"
    },
    {
      "channel": 1,
      "note": 73,
      "start": 32.4759,
      "duration": 0.016,
      "velocity": 98,
      "chip": "ym2612"
    },
    {
      "channel": 0,
      "note": 37,
      "start": 32.486,
      "duration": 0.016,
      "velocity": 115,
      "chip": "ym2612"
    },
    {
      "channel": 5,
      "note": 73,
      "start": 32.4871,
      "duration": 0.0161,
      "velocity": 98,
      "chip": "ym2612"
    },
    {
      "channel": 3,
      "note": 86,
      "start": 32.4895,
      "duration": 0.0166,
      "velocity": 86,
      "chip": "ym2612"
    },
    {
      "channel": 2,
      "note": 59,
      "start": 32.4906,
      "duration": 0.0166,
      "velocity": 93,
      "chip": "ym2612"
    },
    {
      "channel": 1,
      "note": 73,
      "start": 32.4918,
      "duration": 0.0165,
      "velocity": 98,
      "chip": "ym2612"
    },
    {
      "channel": 0,
      "note": 37,
      "start": 32.502,
      "duration": 0.0161,
      "velocity": 115,
      "chip": "ym2612"
    },
    {
      "channel": 5,
      "note": 73,
      "start": 32.5032,
      "duration": 0.0161,
      "velocity": 98,
      "chip": "ym2612"
    },
    {
      "channel": 4,
      "note": 86,
      "start": 32.5049,
      "duration": 0.0157,
      "velocity": 86,
      "chip": "ym2612"
    },
    {
      "channel": 3,
      "note": 86,
      "start": 32.5061,
      "duration": 0.0156,
      "velocity": 86,
      "chip": "ym2612"
    },
    {
      "channel": 2,
      "note": 59,
      "start": 32.5072,
      "duration": 0.0156,
      "velocity": 93,
      "chip": "ym2612"
    },
    {
      "channel": 1,
      "note": 73,
      "start": 32.5084,
      "duration": 0.0157,
      "velocity": 98,
      "chip": "ym2612"
    },
    {
      "channel": 0,
      "note": 38,
      "start": 32.5181,
      "duration": 0.0156,
      "velocity": 115,
      "chip": "ym2612"
    },
    {
      "channel": 5,
      "note": 73,
      "start": 32.5193,
      "duration": 0.0161,
      "velocity": 98,
      "chip": "ym2612"
    },
    {
      "channel": 4,
      "note": 86,
      "start": 32.5206,
      "duration": 0.016,
      "velocity": 86,
      "chip": "ym2612"
    },
    {
      "channel": 3,
      "note": 86,
      "start": 32.5217,
      "duration": 0.016,
      "velocity": 86,
      "chip": "ym2612"
    },
    {
      "channel": 2,
      "note": 59,
      "start": 32.5229,
      "duration": 0.0161,
      "velocity": 93,
      "chip": "ym2612"
    },
    {
      "channel": 1,
      "note": 73,
      "start": 32.5241,
      "duration": 0.016,
      "velocity": 98,
      "chip": "ym2612"
    },
    {
      "channel": 0,
      "note": 38,
      "start": 32.5337,
      "duration": 0.0161,
      "velocity": 115,
      "chip": "ym2612"
    },
    {
      "channel": 5,
      "note": 73,
      "start": 32.5355,
      "duration": 0.016,
      "velocity": 98,
      "chip": "ym2612"
    },
    {
      "channel": 4,
      "note": 86,
      "start": 32.5366,
      "duration": 0.0161,
      "velocity": 86,
      "chip": "ym2612"
    },
    {
      "channel": 3,
      "note": 86,
      "start": 32.5378,
      "duration": 0.0162,
      "velocity": 86,
      "chip": "ym2612"
    },
    {
      "channel": 2,
      "note": 59,
      "start": 32.539,
      "duration": 0.0161,
      "velocity": 93,
      "chip": "ym2612"
    },
    {
      "channel": 1,
      "note": 73,
      "start": 32.5401,
      "duration": 0.0161,
      "velocity": 98,
      "chip": "ym2612"
    },
    {
      "channel": 0,
      "note": 39,
      "start": 32.5498,
      "duration": 0.0161,
      "velocity": 115,
      "chip": "ym2612"
    },
    {
      "channel": 5,
      "note": 73,
      "start": 32.5515,
      "duration": 0.0156,
      "velocity": 98,
      "chip": "ym2612"
    },
    {
      "channel": 4,
      "note": 86,
      "start": 32.5527,
      "duration": 0.0161,
      "velocity": 86,
      "chip": "ym2612"
    },
    {
      "channel": 3,
      "note": 86,
      "start": 32.5539,
      "duration": 0.0161,
      "velocity": 86,
      "chip": "ym2612"
    },
    {
      "channel": 2,
      "note": 59,
      "start": 32.5551,
      "duration": 0.0161,
      "velocity": 93,
      "chip": "ym2612"
    },
    {
      "channel": 1,
      "note": 73,
      "start": 32.5562,
      "duration": 0.0161,
      "velocity": 98,
      "chip": "ym2612"
    },
    {
      "channel": 0,
      "note": 39,
      "start": 32.5659,
      "duration": 0.0161,
      "velocity": 115,
      "chip": "ym2612"
    },
    {
      "channel": 5,
      "note": 73,
      "start": 32.5671,
      "duration": 0.0161,
      "velocity": 98,
      "chip": "ym2612"
    },
    {
      "channel": 4,
      "note": 86,
      "start": 32.5688,
      "duration": 0.016,
      "velocity": 86,
      "chip": "ym2612"
    },
    {
      "channel": 3,
      "note": 86,
      "start": 32.57,
      "duration": 0.0161,
      "velocity": 86,
      "chip": "ym2612"
    },
    {
      "channel": 2,
      "note": 59,
      "start": 32.5712,
      "duration": 0.0161,
      "velocity": 93,
      "chip": "ym2612"
    },
    {
      "channel": 1,
      "note": 73,
      "start": 32.5724,
      "duration": 0.0161,
      "velocity": 98,
      "chip": "ym2612"
    },
    {
      "channel": 0,
      "note": 40,
      "start": 32.582,
      "duration": 0.0161,
      "velocity": 115,
      "chip": "ym2612"
    },
    {
      "channel": 5,
      "note": 73,
      "start": 32.5832,
      "duration": 0.0161,
      "velocity": 98,
      "chip": "ym2612"
    },
    {
      "channel": 4,
      "note": 86,
      "start": 32.5848,
      "duration": 0.0156,
      "velocity": 86,
      "chip": "ym2612"
    },
    {
      "channel": 3,
      "note": 86,
      "start": 32.5861,
      "duration": 0.0162,
      "velocity": 86,
      "chip": "ym2612"
    },
    {
      "channel": 2,
      "note": 59,
      "start": 32.5873,
      "duration": 0.0162,
      "velocity": 93,
      "chip": "ym2612"
    },
    {
      "channel": 1,
      "note": 73,
      "start": 32.5885,
      "duration": 0.0162,
      "velocity": 98,
      "chip": "ym2612"
    },
    {
      "channel": 0,
      "note": 40,
      "start": 32.5981,
      "duration": 0.0161,
      "velocity": 115,
      "chip": "ym2612"
    },
    {
      "channel": 5,
      "note": 73,
      "start": 32.5993,
      "duration": 0.0161,
      "velocity": 98,
      "chip": "ym2612"
    },
    {
      "channel": 4,
      "note": 86,
      "start": 32.6004,
      "duration": 0.0161,
      "velocity": 86,
      "chip": "ym2612"
    },
    {
      "channel": 3,
      "note": 86,
      "start": 32.6023,
      "duration": 0.016,
      "velocity": 86,
      "chip": "ym2612"
    },
    {
      "channel": 2,
      "note": 59,
      "start": 32.6035,
      "duration": 0.016,
      "velocity": 93,
      "chip": "ym2612"
    },
    {
      "channel": 1,
      "note": 73,
      "start": 32.6046,
      "duration": 0.0161,
      "velocity": 98,
      "chip": "ym2612"
    },
    {
      "channel": 0,
      "note": 40,
      "start": 32.6141,
      "duration": 0.0162,
      "velocity": 115,
      "chip": "ym2612"
    },
    {
      "channel": 5,
      "note": 73,
      "start": 32.6154,
      "duration": 0.0161,
      "velocity": 98,
      "chip": "ym2612"
    },
    {
      "channel": 4,
      "note": 86,
      "start": 32.6165,
      "duration": 0.0161,
      "velocity": 86,
      "chip": "ym2612"
    },
    {
      "channel": 3,
      "note": 86,
      "start": 32.6183,
      "duration": 0.0155,
      "velocity": 86,
      "chip": "ym2612"
    },
    {
      "channel": 2,
      "note": 59,
      "start": 32.6195,
      "duration": 0.0162,
      "velocity": 93,
      "chip": "ym2612"
    },
    {
      "channel": 1,
      "note": 73,
      "start": 32.6207,
      "duration": 0.0161,
      "velocity": 98,
      "chip": "ym2612"
    },
    {
      "channel": 0,
      "note": 41,
      "start": 32.6303,
      "duration": 0.0161,
      "velocity": 115,
      "chip": "ym2612"
    },
    {
      "channel": 5,
      "note": 73,
      "start": 32.6315,
      "duration": 0.0161,
      "velocity": 98,
      "chip": "ym2612"
    },
    {
      "channel": 4,
      "note": 86,
      "start": 32.6326,
      "duration": 0.0161,
      "velocity": 86,
      "chip": "ym2612"
    },
    {
      "channel": 2,
      "note": 59,
      "start": 32.6357,
      "duration": 0.0163,
      "velocity": 93,
      "chip": "ym2612"
    },
    {
      "channel": 1,
      "note": 73,
      "start": 32.6368,
      "duration": 0.0163,
      "velocity": 98,
      "chip": "ym2612"
    },
    {
      "channel": 0,
      "note": 41,
      "start": 32.6464,
      "duration": 0.0161,
      "velocity": 115,
      "chip": "ym2612"
    },
    {
      "channel": 5,
      "note": 73,
      "start": 32.6476,
      "duration": 0.0161,
      "velocity": 98,
      "chip": "ym2612"
    },
    {
      "channel": 4,
      "note": 86,
      "start": 32.6488,
      "duration": 0.0161,
      "velocity": 86,
      "chip": "ym2612"
    },
    {
      "channel": 3,
      "note": 78,
      "start": 32.6502,
      "duration": 0.0158,
      "velocity": 86,
      "chip": "ym2612"
    },
    {
      "channel": 2,
      "note": 59,
      "start": 32.652,
      "duration": 0.0153,
      "velocity": 93,
      "chip": "ym2612"
    },
    {
      "channel": 1,
      "note": 73,
      "start": 32.6532,
      "duration": 0.0159,
      "velocity": 98,
      "chip": "ym2612"
    },
    {
      "channel": 0,
      "note": 42,
      "start": 32.6625,
      "duration": 0.0161,
      "velocity": 115,
      "chip": "ym2612"
    },
    {
      "channel": 5,
      "note": 73,
      "start": 32.6637,
      "duration": 0.0161,
      "velocity": 98,
      "chip": "ym2612"
    },
    {
      "channel": 4,
      "note": 86,
      "start": 32.6649,
      "duration": 0.0161,
      "velocity": 86,
      "chip": "ym2612"
    },
    {
      "channel": 3,
      "note": 78,
      "start": 32.6661,
      "duration": 0.016,
      "velocity": 86,
      "chip": "ym2612"
    },
    {
      "channel": 2,
      "note": 59,
      "start": 32.6672,
      "duration": 0.0161,
      "velocity": 93,
      "chip": "ym2612"
    },
    {
      "channel": 1,
      "note": 73,
      "start": 32.669,
      "duration": 0.016,
      "velocity": 98,
      "chip": "ym2612"
    },
    {
      "channel": 0,
      "note": 42,
      "start": 32.6786,
      "duration": 0.0161,
      "velocity": 115,
      "chip": "ym2612"
    },
    {
      "channel": 5,
      "note": 73,
      "start": 32.6798,
      "duration": 0.0161,
      "velocity": 98,
      "chip": "ym2612"
    },
    {
      "channel": 3,
      "note": 78,
      "start": 32.6821,
      "duration": 0.0164,
      "velocity": 86,
      "chip": "ym2612"
    },
    {
      "channel": 2,
      "note": 59,
      "start": 32.6833,
      "duration": 0.0163,
      "velocity": 93,
      "chip": "ym2612"
    },
    {
      "channel": 1,
      "note": 73,
      "start": 32.685,
      "duration": 0.016,
      "velocity": 98,
      "chip": "ym2612"
    },
    {
      "channel": 0,
      "note": 43,
      "start": 32.6947,
      "duration": 0.0161,
      "velocity": 115,
      "chip": "ym2612"
    },
    {
      "channel": 5,
      "note": 73,
      "start": 32.6958,
      "duration": 0.0162,
      "velocity": 98,
      "chip": "ym2612"
    },
    {
      "channel": 4,
      "note": 78,
      "start": 32.6973,
      "duration": 0.0159,
      "velocity": 86,
      "chip": "ym2612"
    },
    {
      "channel": 3,
      "note": 78,
      "start": 32.6985,
      "duration": 0.0159,
      "velocity": 86,
      "chip": "ym2612"
    },
    {
      "channel": 2,
      "note": 59,
      "start": 32.6997,
      "duration": 0.016,
      "velocity": 93,
      "chip": "ym2612"
    },
    {
      "channel": 1,
      "note": 73,
      "start": 32.701,
      "duration": 0.0158,
      "velocity": 98,
      "chip": "ym2612"
    },
    {
      "channel": 0,
      "note": 43,
      "start": 32.7108,
      "duration": 0.0161,
      "velocity": 115,
      "chip": "ym2612"
    },
    {
      "channel": 5,
      "note": 73,
      "start": 32.712,
      "duration": 0.0161,
      "velocity": 98,
      "chip": "ym2612"
    },
    {
      "channel": 4,
      "note": 78,
      "start": 32.7132,
      "duration": 0.016,
      "velocity": 86,
      "chip": "ym2612"
    },
    {
      "channel": 3,
      "note": 78,
      "start": 32.7144,
      "duration": 0.016,
      "velocity": 86,
      "chip": "ym2612"
    },
    {
      "channel": 2,
      "note": 59,
      "start": 32.7156,
      "duration": 0.016,
      "velocity": 93,
      "chip": "ym2612"
    },
    {
      "channel": 1,
      "note": 73,
      "start": 32.7168,
      "duration": 0.0161,
      "velocity": 98,
      "chip": "ym2612"
    },
    {
      "channel": 0,
      "note": 44,
      "start": 32.7269,
      "duration": 0.0179,
      "velocity": 124,
      "chip": "ym2612"
    },
    {
      "channel": 5,
      "note": 73,
      "start": 32.7281,
      "duration": 0.0179,
      "velocity": 98,
      "chip": "ym2612"
    },
    {
      "channel": 4,
      "note": 78,
      "start": 32.7292,
      "duration": 0.0179,
      "velocity": 86,
      "chip": "ym2612"
    },
    {
      "channel": 2,
      "note": 59,
      "start": 32.7317,
      "duration": 0.0184,
      "velocity": 93,
      "chip": "ym2612"
    },
    {
      "channel": 0,
      "note": 84,
      "start": 32.7449,
      "duration": 0.0143,
      "velocity": 124,
      "chip": "ym2612"
    },
    {
      "channel": 5,
      "note": 73,
      "start": 32.746,
      "duration": 0.0143,
      "velocity": 98,
      "chip": "ym2612"
    },
    {
      "channel": 4,
      "note": 78,
      "start": 32.7472,
      "duration": 0.0143,
      "velocity": 86,
      "chip": "ym2612"
    },
    {
      "channel": 3,
      "note": 81,
      "start": 32.7487,
      "duration": 0.0141,
      "velocity": 86,
      "chip": "ym2612"
    },
    {
      "channel": 2,
      "note": 59,
      "start": 32.7501,
      "duration": 0.0139,
      "velocity": 93,
      "chip": "ym2612"
    },
    {
      "channel": 1,
      "note": 74,
      "start": 32.7523,
      "duration": 0.0128,
      "velocity": 98,
      "chip": "ym2612"
    },
    {
      "channel": 0,
      "note": 82,
      "start": 32.7591,
      "duration": 0.0161,
      "velocity": 124,
      "chip": "ym2612"
    },
    {
      "channel": 5,
      "note": 73,
      "start": 32.7603,
      "duration": 0.016,
      "velocity": 98,
      "chip": "ym2612"
    },
    {
      "channel": 4,
      "note": 78,
      "start": 32.7615,
      "duration": 0.016,
      "velocity": 86,
      "chip": "ym2612"
    },
    {
      "channel": 3,
      "note": 81,
      "start": 32.7628,
      "duration": 0.016,
      "velocity": 86,
      "chip": "ym2612"
    },
    {
      "channel": 2,
      "note": 59,
      "start": 32.764,
      "duration": 0.0159,
      "velocity": 93,
      "chip": "ym2612"
    },
    {
      "channel": 1,
      "note": 74,
      "start": 32.7652,
      "duration": 0.0159,
      "velocity": 98,
      "chip": "ym2612"
    },
    {
      "channel": 0,
      "note": 80,
      "start": 32.7752,
      "duration": 0.0161,
      "velocity": 124,
      "chip": "ym2612"
    },
    {
      "channel": 5,
      "note": 73,
      "start": 32.7764,
      "duration": 0.0161,
      "velocity": 98,
      "chip": "ym2612"
    },
    {
      "channel": 3,
      "note": 81,
      "start": 32.7787,
      "duration": 0.0164,
      "velocity": 86,
      "chip": "ym2612"
    },
    {
      "channel": 2,
      "note": 59,
      "start": 32.7799,
      "duration": 0.0164,
      "velocity": 93,
      "chip": "ym2612"
    },
    {
      "channel": 1,
      "note": 74,
      "start": 32.7811,
      "duration": 0.0163,
      "velocity": 98,
      "chip": "ym2612"
    },
    {
      "channel": 0,
      "note": 77,
      "start": 32.7913,
      "duration": 0.0161,
      "velocity": 124,
      "chip": "ym2612"
    },
    {
      "channel": 5,
      "note": 73,
      "start": 32.7925,
      "duration": 0.0161,
      "velocity": 98,
      "chip": "ym2612"
    },
    {
      "channel": 4,
      "note": 81,
      "start": 32.7939,
      "duration": 0.0159,
      "velocity": 86,
      "chip": "ym2612"
    },
    {
      "channel": 3,
      "note": 81,
      "start": 32.7951,
      "duration": 0.0158,
      "velocity": 86,
      "chip": "ym2612"
    },
    {
      "channel": 2,
      "note": 59,
      "start": 32.7963,
      "duration": 0.0159,
      "velocity": 93,
      "chip": "ym2612"
    },
    {
      "channel": 1,
      "note": 74,
      "start": 32.7974,
      "duration": 0.0159,
      "velocity": 98,
      "chip": "ym2612"
    },
    {
      "channel": 0,
      "note": 75,
      "start": 32.8074,
      "duration": 0.0161,
      "velocity": 124,
      "chip": "ym2612"
    },
    {
      "channel": 5,
      "note": 73,
      "start": 32.8085,
      "duration": 0.0161,
      "velocity": 98,
      "chip": "ym2612"
    },
    {
      "channel": 4,
      "note": 81,
      "start": 32.8098,
      "duration": 0.016,
      "velocity": 86,
      "chip": "ym2612"
    },
    {
      "channel": 3,
      "note": 81,
      "start": 32.811,
      "duration": 0.016,
      "velocity": 86,
      "chip": "ym2612"
    },
    {
      "channel": 2,
      "note": 59,
      "start": 32.8121,
      "duration": 0.016,
      "velocity": 93,
      "chip": "ym2612"
    },
    {
      "channel": 1,
      "note": 74,
      "start": 32.8133,
      "duration": 0.016,
      "velocity": 98,
      "chip": "ym2612"
    },
    {
      "channel": 0,
      "note": 72,
      "start": 32.8235,
      "duration": 0.0161,
      "velocity": 124,
      "chip": "ym2612"
    },
    {
      "channel": 5,
      "note": 73,
      "start": 32.8246,
      "duration": 0.0161,
      "velocity": 98,
      "chip": "ym2612"
    },
    {
      "channel": 4,
      "note": 81,
      "start": 32.8259,
      "duration": 0.0161,
      "velocity": 86,
      "chip": "ym2612"
    },
    {
      "channel": 3,
      "note": 81,
      "start": 32.827,
      "duration": 0.0161,
      "velocity": 86,
      "chip": "ym2612"
    },
    {
      "channel": 2,
      "note": 59,
      "start": 32.8281,
      "duration": 0.0162,
      "velocity": 93,
      "chip": "ym2612"
    },
    {
      "channel": 1,
      "note": 74,
      "start": 32.8294,
      "duration": 0.0161,
      "velocity": 98,
      "chip": "ym2612"
    },
    {
      "channel": 0,
      "note": 70,
      "start": 32.8396,
      "duration": 0.0161,
      "velocity": 124,
      "chip": "ym2612"
    },
    {
      "channel": 5,
      "note": 73,
      "start": 32.8407,
      "duration": 0.0162,
      "velocity": 98,
      "chip": "ym2612"
    },
    {
      "channel": 4,
      "note": 81,
      "start": 32.842,
      "duration": 0.0161,
      "velocity": 86,
      "chip": "ym2612"
    },
    {
      "channel": 3,
      "note": 81,
      "start": 32.8431,
      "duration": 0.0161,
      "velocity": 86,
      "chip": "ym2612"
    },
    {
      "channel": 2,
      "note": 59,
      "start": 32.8443,
      "duration": 0.0161,
      "velocity": 93,
      "chip": "ym2612"
    },
    {
      "channel": 1,
      "note": 74,
      "start": 32.8455,
      "duration": 0.0161,
      "velocity": 98,
      "chip": "ym2612"
    },
    {
      "channel": 0,
      "note": 68,
      "start": 32.8557,
      "duration": 0.0161,
      "velocity": 124,
      "chip": "ym2612"
    },
    {
      "channel": 5,
      "note": 73,
      "start": 32.8569,
      "duration": 0.0161,
      "velocity": 98,
      "chip": "ym2612"
    },
    {
      "channel": 4,
      "note": 81,
      "start": 32.858,
      "duration": 0.0161,
      "velocity": 86,
      "chip": "ym2612"
    },
    {
      "channel": 3,
      "note": 81,
      "start": 32.8593,
      "duration": 0.0161,
      "velocity": 86,
      "chip": "ym2612"
    },
    {
      "channel": 2,
      "note": 59,
      "start": 32.8604,
      "duration": 0.0161,
      "velocity": 93,
      "chip": "ym2612"
    },
    {
      "channel": 1,
      "note": 74,
      "start": 32.8615,
      "duration": 0.0161,
      "velocity": 98,
      "chip": "ym2612"
    },
    {
      "channel": 0,
      "note": 65,
      "start": 32.8718,
      "duration": 0.0161,
      "velocity": 124,
      "chip": "ym2612"
    },
    {
      "channel": 5,
      "note": 73,
      "start": 32.873,
      "duration": 0.0161,
      "velocity": 98,
      "chip": "ym2612"
    },
    {
      "channel": 4,
      "note": 81,
      "start": 32.8741,
      "duration": 0.0161,
      "velocity": 86,
      "chip": "ym2612"
    },
    {
      "channel": 3,
      "note": 81,
      "start": 32.8754,
      "duration": 0.0161,
      "velocity": 86,
      "chip": "ym2612"
    },
    {
      "channel": 2,
      "note": 59,
      "start": 32.8765,
      "duration": 0.0162,
      "velocity": 93,
      "chip": "ym2612"
    },
    {
      "channel": 1,
      "note": 74,
      "start": 32.8776,
      "duration": 0.0162,
      "velocity": 98,
      "chip": "ym2612"
    },
    {
      "channel": 0,
      "note": 63,
      "start": 32.8879,
      "duration": 0.0154,
      "velocity": 1,
      "chip": "ym2612"
    },
    {
      "channel": 5,
      "note": 73,
      "start": 32.8891,
      "duration": 0.0153,
      "velocity": 98,
      "chip": "ym2612"
    },
    {
      "channel": 4,
      "note": 81,
      "start": 32.8902,
      "duration": 0.0153,
      "velocity": 86,
      "chip": "ym2612"
    },
    {
      "channel": 3,
      "note": 81,
      "start": 32.8915,
      "duration": 0.0153,
      "velocity": 86,
      "chip": "ym2612"
    },
    {
      "channel": 2,
      "note": 59,
      "start": 32.8927,
      "duration": 0.0153,
      "velocity": 93,
      "chip": "ym2612"
    },
    {
      "channel": 1,
      "note": 74,
      "start": 32.8939,
      "duration": 0.0153,
      "velocity": 98,
      "chip": "ym2612"
    },
    {
      "channel": 5,
      "note": 73,
      "start": 32.9044,
      "duration": 0.0153,
      "velocity": 98,
      "chip": "ym2612"
    },
    {
      "channel": 4,
      "note": 81,
      "start": 32.9056,
      "duration": 0.0153,
      "velocity": 86,
      "chip": "ym2612"
    },
    {
      "channel": 3,
      "note": 81,
      "start": 32.9068,
      "duration": 0.0153,
      "velocity": 86,
      "chip": "ym2612"
    },
    {
      "channel": 2,
      "note": 59,
      "start": 32.908,
      "duration": 0.0153,
      "velocity": 93,
      "chip": "ym2612"
    },
    {
      "channel": 1,
      "note": 74,
      "start": 32.9092,
      "duration": 0.0153,
      "velocity": 98,
      "chip": "ym2612"
    },
    {
      "channel": 5,
      "note": 73,
      "start": 32.9197,
      "duration": 0.0164,
      "velocity": 98,
      "chip": "ym2612"
    },
    {
      "channel": 4,
      "note": 81,
      "start": 32.9208,
      "duration": 0.0164,
      "velocity": 86,
      "chip": "ym2612"
    },
    {
      "channel": 2,
      "note": 59,
      "start": 32.9232,
      "duration": 0.0167,
      "velocity": 93,
      "chip": "ym2612"
    },
    {
      "channel": 1,
      "note": 74,
      "start": 32.9245,
      "duration": 0.0167,
      "velocity": 98,
      "chip": "ym2612"
    },
    {
      "channel": 5,
      "note": 73,
      "start": 32.9361,
      "duration": 0.0163,
      "velocity": 98,
      "chip": "ym2612"
    },
    {
      "channel": 4,
      "note": 81,
      "start": 32.9373,
      "duration": 0.0163,
      "velocity": 86,
      "chip": "ym2612"
    },
    {
      "channel": 3,
      "note": 86,
      "start": 32.9388,
      "duration": 0.016,
      "velocity": 86,
      "chip": "ym2612"
    },
    {
      "channel": 2,
      "note": 59,
      "start": 32.9399,
      "duration": 0.016,
      "velocity": 93,
      "chip": "ym2612"
    },
    {
      "channel": 1,
      "note": 74,
      "start": 32.9411,
      "duration": 0.016,
      "velocity": 98,
      "chip": "ym2612"
    },
    {
      "channel": 5,
      "note": 73,
      "start": 32.9524,
      "duration": 0.016,
      "velocity": 98,
      "chip": "ym2612"
    },
    {
      "channel": 4,
      "note": 81,
      "start": 32.9536,
      "duration": 0.0161,
      "velocity": 86,
      "chip": "ym2612"
    },
    {
      "channel": 3,
      "note": 86,
      "start": 32.9548,
      "duration": 0.016,
      "velocity": 86,
      "chip": "ym2612"
    },
    {
      "channel": 2,
      "note": 59,
      "start": 32.9559,
      "duration": 0.0161,
      "velocity": 93,
      "chip": "ym2612"
    },
    {
      "channel": 1,
      "note": 74,
      "start": 32.9572,
      "duration": 0.016,
      "velocity": 98,
      "chip": "ym2612"
    },
    {
      "channel": 5,
      "note": 73,
      "start": 32.9684,
      "duration": 0.0158,
      "velocity": 98,
      "chip": "ym2612"
    },
    {
      "channel": 3,
      "note": 86,
      "start": 32.9708,
      "duration": 0.0164,
      "velocity": 86,
      "chip": "ym2612"
    },
    {
      "channel": 2,
      "note": 59,
      "start": 32.972,
      "duration": 0.0164,
      "velocity": 93,
      "chip": "ym2612"
    },
    {
      "channel": 1,
      "note": 74,
      "start": 32.9732,
      "duration": 0.0164,
      "velocity": 98,
      "chip": "ym2612"
    },
    {
      "channel": 5,
      "note": 73,
      "start": 32.9842,
      "duration": 0.0159,
      "velocity": 98,
      "chip": "ym2612"
    },
    {
      "channel": 4,
      "note": 86,
      "start": 32.9861,
      "duration": 0.0158,
      "velocity": 86,
      "chip": "ym2612"
    },
    {
      "channel": 3,
      "note": 86,
      "start": 32.9873,
      "duration": 0.0158,
      "velocity": 86,
      "chip": "ym2612"
    },
    {
      "channel": 2,
      "note": 59,
      "start": 32.9885,
      "duration": 0.0158,
      "velocity": 93,
      "chip": "ym2612"
    },
    {
      "channel": 1,
      "note": 74,
      "start": 32.9896,
      "duration": 0.0159,
      "velocity": 98,
      "chip": "ym2612"
    },
    {
      "channel": 5,
      "note": 73,
      "start": 33.0001,
      "duration": 0.0161,
      "velocity": 98,
      "chip": "ym2612"
    },
    {
      "channel": 4,
      "note": 86,
      "start": 33.0019,
      "duration": 0.0157,
      "velocity": 86,
      "chip": "ym2612"
    },
    {
      "channel": 3,
      "note": 86,
      "start": 33.0031,
      "duration": 0.016,
      "velocity": 86,
      "chip": "ym2612"
    },
    {
      "channel": 2,
      "note": 59,
      "start": 33.0043,
      "duration": 0.0161,
      "velocity": 93,
      "chip": "ym2612"
    },
    {
      "channel": 1,
      "note": 74,
      "start": 33.0055,
      "duration": 0.016,
      "velocity": 98,
      "chip": "ym2612"
    },
    {
      "channel": 5,
      "note": 73,
      "start": 33.0162,
      "duration": 0.0202,
      "velocity": 98,
      "chip": "ym2612"
    },
    {
      "channel": 4,
      "note": 86,
      "start": 33.0176,
      "duration": 0.02,
      "velocity": 86,
      "chip": "ym2612"
    },
    {
      "channel": 3,
      "note": 86,
      "start": 33.0191,
      "duration": 0.0197,
      "velocity": 86,
      "chip": "ym2612"
    },
    {
      "channel": 2,
      "note": 59,
      "start": 33.0204,
      "duration": 0.0198,
      "velocity": 93,
      "chip": "ym2612"
    },
    {
      "channel": 0,
      "note": 36,
      "start": 33.0352,
      "duration": 0.0137,
      "velocity": 115,
      "chip": "ym2612"
    },
    {
      "channel": 5,
      "note": 73,
      "start": 33.0364,
      "duration": 0.0137,
      "velocity": 98,
      "chip": "ym2612"
    },
    {
      "channel": 4,
      "note": 86,
      "start": 33.0376,
      "duration": 0.0143,
      "velocity": 86,
      "chip": "ym2612"
    },
    {
      "channel": 3,
      "note": 86,
      "start": 33.0388,
      "duration": 0.0143,
      "velocity": 86,
      "chip": "ym2612"
    },
    {
      "channel": 2,
      "note": 59,
      "start": 33.0402,
      "duration": 0.0141,
      "velocity": 93,
      "chip": "ym2612"
    },
    {
      "channel": 1,
      "note": 78,
      "start": 33.0417,
      "duration": 0.0139,
      "velocity": 98,
      "chip": "ym2612"
    },
    {
      "channel": 0,
      "note": 36,
      "start": 33.049,
      "duration": 0.0161,
      "velocity": 115,
      "chip": "ym2612"
    },
    {
      "channel": 4,
      "note": 86,
      "start": 33.0519,
      "duration": 0.0165,
      "velocity": 86,
      "chip": "ym2612"
    },
    {
      "channel": 3,
      "note": 86,
      "start": 33.0531,
      "duration": 0.0166,
      "velocity": 86,
      "chip": "ym2612"
    },
    {
      "channel": 2,
      "note": 59,
      "start": 33.0544,
      "duration": 0.0164,
      "velocity": 93,
      "chip": "ym2612"
    },
    {
      "channel": 1,
      "note": 78,
      "start": 33.0556,
      "duration": 0.0164,
      "velocity": 98,
      "chip": "ym2612"
    },
    {
      "channel": 0,
      "note": 37,
      "start": 33.0651,
      "duration": 0.0161,
      "velocity": 115,
      "chip": "ym2612"
    },
    {
      "channel": 5,
      "note": 74,
      "start": 33.0667,
      "duration": 0.0156,
      "velocity": 98,
      "chip": "ym2612"
    },
    {
      "channel": 4,
      "note": 86,
      "start": 33.0683,
      "duration": 0.0152,
      "velocity": 86,
      "chip": "ym2612"
    },
    {
      "channel": 3,
      "note": 86,
      "start": 33.0696,
      "duration": 0.0156,
      "velocity": 86,
      "chip": "ym2612"
    },
    {
      "channel": 2,
      "note": 59,
      "start": 33.0708,
      "duration": 0.0157,
      "velocity": 93,
      "chip": "ym2612"
    },
    {
      "channel": 1,
      "note": 78,
      "start": 33.072,
      "duration": 0.0156,
      "velocity": 98,
      "chip": "ym2612"
    },
    {
      "channel": 0,
      "note": 37,
      "start": 33.0811,
      "duration": 0.0161,
      "velocity": 115,
      "chip": "ym2612"
    },
    {
      "channel": 5,
      "note": 74,
      "start": 33.0824,
      "duration": 0.016,
      "velocity": 98,
      "chip": "ym2612"
    },
    {
      "channel": 4,
      "note": 86,
      "start": 33.0836,
      "duration": 0.016,
      "velocity": 86,
      "chip": "ym2612"
    },
    {
      "channel": 3,
      "note": 86,
      "start": 33.0853,
      "duration": 0.0157,
      "velocity": 86,
      "chip": "ym2612"
    },
    {
      "channel": 2,
      "note": 59,
      "start": 33.0865,
      "duration": 0.016,
      "velocity": 93,
      "chip": "ym2612"
    },
    {
      "channel": 1,
      "note": 78,
      "start": 33.0876,
      "duration": 0.016,
      "velocity": 98,
      "chip": "ym2612"
    },
    {
      "channel": 0,
      "note": 38,
      "start": 33.0972,
      "duration": 0.0161,
      "velocity": 115,
      "chip": "ym2612"
    },
    {
      "channel": 5,
      "note": 74,
      "start": 33.0984,
      "duration": 0.0161,
      "velocity": 98,
      "chip": "ym2612"
    },
    {
      "channel": 4,
      "note": 86,
      "start": 33.0996,
      "duration": 0.0161,
      "velocity": 86,
      "chip": "ym2612"
    },
    {
      "channel": 3,
      "note": 86,
      "start": 33.101,
      "duration": 0.0159,
      "velocity": 86,
      "chip": "ym2612"
    },
    {
      "channel": 2,
      "note": 59,
      "start": 33.1025,
      "duration": 0.016,
      "velocity": 93,
      "chip": "ym2612"
    },
    {
      "channel": 1,
      "note": 78,
      "start": 33.1037,
      "duration": 0.0162,
      "velocity": 98,
      "chip": "ym2612"
    },
    {
      "channel": 0,
      "note": 38,
      "start": 33.1133,
      "duration": 0.0161,
      "velocity": 115,
      "chip": "ym2612"
    },
    {
      "channel": 5,
      "note": 74,
      "start": 33.1145,
      "duration": 0.0161,
      "velocity": 98,
      "chip": "ym2612"
    },
    {
      "channel": 4,
      "note": 86,
      "start": 33.1157,
      "duration": 0.0161,
      "velocity": 86,
      "chip": "ym2612"
    },
    {
      "channel": 3,
      "note": 86,
      "start": 33.1169,
      "duration": 0.016,
      "velocity": 86,
      "chip": "ym2612"
    },
    {
      "channel": 2,
      "note": 59,
      "start": 33.1185,
      "duration": 0.0158,
      "velocity": 93,
      "chip": "ym2612"
    },
    {
      "channel": 1,
      "note": 78,
      "start": 33.1198,
      "duration": 0.016,
      "velocity": 98,
      "chip": "ym2612"
    },
    {
      "channel": 0,
      "note": 39,
      "start": 33.1294,
      "duration": 0.0161,
      "velocity": 115,
      "chip": "ym2612"
    },
    {
      "channel": 5,
      "note": 74,
      "start": 33.1306,
      "duration": 0.0162,
      "velocity": 98,
      "chip": "ym2612"
    },
    {
      "channel": 4,
      "note": 86,
      "start": 33.1318,
      "duration": 0.0161,
      "velocity": 86,
      "chip": "ym2612"
    },
    {
      "channel": 3,
      "note": 86,
      "start": 33.1329,
      "duration": 0.0161,
      "velocity": 86,
      "chip": "ym2612"
    },
    {
      "channel": 2,
      "note": 59,
      "start": 33.1343,
      "duration": 0.0159,
      "velocity": 93,
      "chip": "ym2612"
    },
    {
      "channel": 1,
      "note": 78,
      "start": 33.1359,
      "duration": 0.0161,
      "velocity": 98,
      "chip": "ym2612"
    },
    {
      "channel": 0,
      "note": 39,
      "start": 33.1455,
      "duration": 0.0161,
      "velocity": 115,
      "chip": "ym2612"
    },
    {
      "channel": 5,
      "note": 74,
      "start": 33.1467,
      "duration": 0.0161,
      "velocity": 98,
      "chip": "ym2612"
    },
    {
      "channel": 4,
      "note": 86,
      "start": 33.1479,
      "duration": 0.0161,
      "velocity": 86,
      "chip": "ym2612"
    },
    {
      "channel": 3,
      "note": 86,
      "start": 33.1491,
      "duration": 0.0161,
      "velocity": 86,
      "chip": "ym2612"
    },
    {
      "channel": 2,
      "note": 59,
      "start": 33.1502,
      "duration": 0.0161,
      "velocity": 93,
      "chip": "ym2612"
    },
    {
      "channel": 1,
      "note": 78,
      "start": 33.152,
      "duration": 0.0158,
      "velocity": 98,
      "chip": "ym2612"
    },
    {
      "channel": 0,
      "note": 40,
      "start": 33.1616,
      "duration": 0.0161,
      "velocity": 115,
      "chip": "ym2612"
    },
    {
      "channel": 5,
      "note": 74,
      "start": 33.1628,
      "duration": 0.0161,
      "velocity": 98,
      "chip": "ym2612"
    },
    {
      "channel": 4,
      "note": 86,
      "start": 33.164,
      "duration": 0.0161,
      "velocity": 86,
      "chip": "ym2612"
    },
    {
      "channel": 3,
      "note": 86,
      "start": 33.1652,
      "duration": 0.0161,
      "velocity": 86,
      "chip": "ym2612"
    },
    {
      "channel": 2,
      "note": 59,
      "start": 33.1663,
      "duration": 0.0162,
      "velocity": 93,
      "chip": "ym2612"
    },
    {
      "channel": 1,
      "note": 78,
      "start": 33.1677,
      "duration": 0.016,
      "velocity": 98,
      "chip": "ym2612"
    },
    {
      "channel": 0,
      "note": 40,
      "start": 33.1777,
      "duration": 0.0161,
      "velocity": 115,
      "chip": "ym2612"
    },
    {
      "channel": 5,
      "note": 74,
      "start": 33.1789,
      "duration": 0.0161,
      "velocity": 98,
      "chip": "ym2612"
    },
    {
      "channel": 4,
      "note": 86,
      "start": 33.1801,
      "duration": 0.0161,
      "velocity": 86,
      "chip": "ym2612"
    },
    {
      "channel": 3,
      "note": 86,
      "start": 33.1813,
      "duration": 0.0161,
      "velocity": 86,
      "chip": "ym2612"
    },
    {
      "channel": 2,
      "note": 59,
      "start": 33.1825,
      "duration": 0.016,
      "velocity": 93,
      "chip": "ym2612"
    },
    {
      "channel": 1,
      "note": 78,
      "start": 33.1837,
      "duration": 0.0161,
      "velocity": 98,
      "chip": "ym2612"
    },
    {
      "channel": 0,
      "note": 40,
      "start": 33.1938,
      "duration": 0.0161,
      "velocity": 115,
      "chip": "ym2612"
    },
    {
      "channel": 5,
      "note": 74,
      "start": 33.195,
      "duration": 0.0161,
      "velocity": 98,
      "chip": "ym2612"
    },
    {
      "channel": 4,
      "note": 86,
      "start": 33.1961,
      "duration": 0.0161,
      "velocity": 86,
      "chip": "ym2612"
    },
    {
      "channel": 3,
      "note": 86,
      "start": 33.1974,
      "duration": 0.0161,
      "velocity": 86,
      "chip": "ym2612"
    },
    {
      "channel": 2,
      "note": 59,
      "start": 33.1986,
      "duration": 0.0162,
      "velocity": 93,
      "chip": "ym2612"
    },
    {
      "channel": 1,
      "note": 78,
      "start": 33.1998,
      "duration": 0.0161,
      "velocity": 98,
      "chip": "ym2612"
    },
    {
      "channel": 0,
      "note": 41,
      "start": 33.2099,
      "duration": 0.0179,
      "velocity": 115,
      "chip": "ym2612"
    },
    {
      "channel": 5,
      "note": 74,
      "start": 33.2111,
      "duration": 0.0179,
      "velocity": 98,
      "chip": "ym2612"
    },
    {
      "channel": 4,
      "note": 86,
      "start": 33.2122,
      "duration": 0.018,
      "velocity": 86,
      "chip": "ym2612"
    },
    {
      "channel": 2,
      "note": 59,
      "start": 33.2147,
      "duration": 0.0181,
      "velocity": 93,
      "chip": "ym2612"
    },
    {
      "channel": 1,
      "note": 78,
      "start": 33.2159,
      "duration": 0.0184,
      "velocity": 98,
      "chip": "ym2612"
    },
    {
      "channel": 0,
      "note": 36,
      "start": 33.2279,
      "duration": 0.0143,
      "velocity": 115,
      "chip": "ym2612"
    },
    {
      "channel": 5,
      "note": 74,
      "start": 33.229,
      "duration": 0.0143,
      "velocity": 98,
      "chip": "ym2612"
    },
    {
      "channel": 4,
      "note": 86,
      "start": 33.2302,
      "duration": 0.0143,
      "velocity": 86,
      "chip": "ym2612"
    },
    {
      "channel": 3,
      "note": 78,
      "start": 33.2317,
      "duration": 0.0141,
      "velocity": 86,
      "chip": "ym2612"
    },
    {
      "channel": 2,
      "note": 59,
      "start": 33.2329,
      "duration": 0.0141,
      "velocity": 93,
      "chip": "ym2612"
    },
    {
      "channel": 1,
      "note": 78,
      "start": 33.2343,
      "duration": 0.0139,
      "velocity": 98,
      "chip": "ym2612"
    },
    {
      "channel": 0,
      "note": 36,
      "start": 33.2422,
      "duration": 0.016,
      "velocity": 115,
      "chip": "ym2612"
    },
    {
      "channel": 5,
      "note": 74,
      "start": 33.2434,
      "duration": 0.016,
      "velocity": 98,
      "chip": "ym2612"
    },
    {
      "channel": 4,
      "note": 86,
      "start": 33.2446,
      "duration": 0.016,
      "velocity": 86,
      "chip": "ym2612"
    },
    {
      "channel": 3,
      "note": 78,
      "start": 33.2458,
      "duration": 0.016,
      "velocity": 86,
      "chip": "ym2612"
    },
    {
      "channel": 2,
      "note": 59,
      "start": 33.2469,
      "duration": 0.016,
      "velocity": 93,
      "chip": "ym2612"
    },
    {
      "channel": 1,
      "note": 78,
      "start": 33.2481,
      "duration": 0.016,
      "velocity": 98,
      "chip": "ym2612"
    },
    {
      "channel": 0,
      "note": 37,
      "start": 33.2582,
      "duration": 0.0161,
      "velocity": 115,
      "chip": "ym2612"
    },
    {
      "channel": 5,
      "note": 74,
      "start": 33.2594,
      "duration": 0.0161,
      "velocity": 98,
      "chip": "ym2612"
    },
    {
      "channel": 3,
      "note": 78,
      "start": 33.2617,
      "duration": 0.0164,
      "velocity": 86,
      "chip": "ym2612"
    },
    {
      "channel": 2,
      "note": 59,
      "start": 33.2629,
      "duration": 0.0164,
      "velocity": 93,
      "chip": "ym2612"
    },
    {
      "channel": 1,
      "note": 78,
      "start": 33.2641,
      "duration": 0.0164,
      "velocity": 98,
      "chip": "ym2612"
    },
    {
      "channel": 0,
      "note": 37,
      "start": 33.2743,
      "duration": 0.0161,
      "velocity": 115,
      "chip": "ym2612"
    },
    {
      "channel": 5,
      "note": 74,
      "start": 33.2755,
      "duration": 0.0161,
      "velocity": 98,
      "chip": "ym2612"
    },
    {
      "channel": 4,
      "note": 78,
      "start": 33.277,
      "duration": 0.0159,
      "velocity": 86,
      "chip": "ym2612"
    },
    {
      "channel": 3,
      "note": 78,
      "start": 33.2781,
      "duration": 0.0159,
      "velocity": 86,
      "chip": "ym2612"
    },
    {
      "channel": 2,
      "note": 59,
      "start": 33.2794,
      "duration": 0.0158,
      "velocity": 93,
      "chip": "ym2612"
    },
    {
      "channel": 1,
      "note": 78,
      "start": 33.2805,
      "duration": 0.0159,
      "velocity": 98,
      "chip": "ym2612"
    },
    {
      "channel": 0,
      "note": 38,
      "start": 33.2904,
      "duration": 0.0161,
      "velocity": 115,
      "chip": "ym2612"
    },
    {
      "channel": 5,
      "note": 74,
      "start": 33.2916,
      "duration": 0.0162,
      "velocity": 98,
      "chip": "ym2612"
    },
    {
      "channel": 4,
      "note": 78,
      "start": 33.2929,
      "duration": 0.016,
      "velocity": 86,
      "chip": "ym2612"
    },
    {
      "channel": 3,
      "note": 78,
      "start": 33.294,
      "duration": 0.0161,
      "velocity": 86,
      "chip": "ym2612"
    },
    {
      "channel": 2,
      "note": 59,
      "start": 33.2952,
      "duration": 0.0161,
      "velocity": 93,
      "chip": "ym2612"
    },
    {
      "channel": 1,
      "note": 78,
      "start": 33.2964,
      "duration": 0.0161,
      "velocity": 98,
      "chip": "ym2612"
    },
    {
      "channel": 0,
      "note": 38,
      "start": 33.3065,
      "duration": 0.0179,
      "velocity": 124,
      "chip": "ym2612"
    },
    {
      "channel": 5,
      "note": 74,
      "start": 33.3077,
      "duration": 0.0179,
      "velocity": 98,
      "chip": "ym2612"
    },
    {
      "channel": 4,
      "note": 78,
      "start": 33.3089,
      "duration": 0.018,
      "velocity": 86,
      "chip": "ym2612"
    },
    {
      "channel": 2,
      "note": 59,
      "start": 33.3113,
      "duration": 0.0185,
      "velocity": 93,
      "chip": "ym2612"
    },
    {
      "channel": 0,
      "note": 84,
      "start": 33.3245,
      "duration": 0.0142,
      "velocity": 124,
      "chip": "ym2612"
    },
    {
      "channel": 5,
      "note": 74,
      "start": 33.3257,
      "duration": 0.0143,
      "velocity": 98,
      "chip": "ym2612"
    },
    {
      "channel": 4,
      "note": 78,
      "start": 33.3268,
      "duration": 0.0143,
      "velocity": 86,
      "chip": "ym2612"
    },
    {
      "channel": 3,
      "note": 81,
      "start": 33.3283,
      "duration": 0.0141,
      "velocity": 86,
      "chip": "ym2612"
    },
    {
      "channel": 2,
      "note": 59,
      "start": 33.3298,
      "duration": 0.0139,
      "velocity": 93,
      "chip": "ym2612"
    },
    {
      "channel": 1,
      "note": 81,
      "start": 33.3312,
      "duration": 0.0136,
      "velocity": 98,
      "chip": "ym2612"
    },
    {
      "channel": 0,
      "note": 82,
      "start": 33.3388,
      "duration": 0.0161,
      "velocity": 124,
      "chip": "ym2612"
    },
    {
      "channel": 4,
      "note": 78,
      "start": 33.3411,
      "duration": 0.0163,
      "velocity": 86,
      "chip": "ym2612"
    },
    {
      "channel": 3,
      "note": 81,
      "start": 33.3424,
      "duration": 0.0163,
      "velocity": 86,
      "chip": "ym2612"
    },
    {
      "channel": 2,
      "note": 59,
      "start": 33.3436,
      "duration": 0.0162,
      "velocity": 93,
      "chip": "ym2612"
    },
    {
      "channel": 1,
      "note": 81,
      "start": 33.3448,
      "duration": 0.0162,
      "velocity": 98,
      "chip": "ym2612"
    },
    {
      "channel": 0,
      "note": 80,
      "start": 33.3549,
      "duration": 0.0161,
      "velocity": 124,
      "chip": "ym2612"
    },
    {
      "channel": 5,
      "note": 78,
      "start": 33.3563,
      "duration": 0.0159,
      "velocity": 98,
      "chip": "ym2612"
    },
    {
      "channel": 3,
      "note": 81,
      "start": 33.3587,
      "duration": 0.0161,
      "velocity": 86,
      "chip": "ym2612"
    },
    {
      "channel": 2,
      "note": 59,
      "start": 33.3598,
      "duration": 0.0161,
      "velocity": 93,
      "chip": "ym2612"
    },
    {
      "channel": 1,
      "note": 81,
      "start": 33.361,
      "duration": 0.0162,
      "velocity": 98,
      "chip": "ym2612"
    },
    {
      "channel": 0,
      "note": 77,
      "start": 33.371,
      "duration": 0.0162,
      "velocity": 124,
      "chip": "ym2612"
    },
    {
      "channel": 5,
      "note": 78,
      "start": 33.3722,
      "duration": 0.0161,
      "velocity": 98,
      "chip": "ym2612"
    },
    {
      "channel": 4,
      "note": 81,
      "start": 33.3736,
      "duration": 0.0159,
      "velocity": 86,
      "chip": "ym2612"
    },
    {
      "channel": 3,
      "note": 81,
      "start": 33.3748,
      "duration": 0.0159,
      "velocity": 86,
      "chip": "ym2612"
    },
    {
      "channel": 2,
      "note": 59,
      "start": 33.376,
      "duration": 0.0159,
      "velocity": 93,
      "chip": "ym2612"
    },
    {
      "channel": 1,
      "note": 81,
      "start": 33.3771,
      "duration": 0.0158,
      "velocity": 98,
      "chip": "ym2612"
    },
    {
      "channel": 0,
      "note": 75,
      "start": 33.3871,
      "duration": 0.0164,
      "velocity": 124,
      "chip": "ym2612"
    },
    {
      "channel": 5,
      "note": 78,
      "start": 33.3883,
      "duration": 0.0164,
      "velocity": 98,
      "chip": "ym2612"
    },
    {
      "channel": 4,
      "note": 81,
      "start": 33.3895,
      "duration": 0.0163,
      "velocity": 86,
      "chip": "ym2612"
    },
    {
      "channel": 3,
      "note": 81,
      "start": 33.3907,
      "duration": 0.0163,
      "velocity": 86,
      "chip": "ym2612"
    },
    {
      "channel": 2,
      "note": 59,
      "start": 33.3918,
      "duration": 0.0163,
      "velocity": 93,
      "chip": "ym2612"
    },
    {
      "channel": 1,
      "note": 81,
      "start": 33.393,
      "duration": 0.0163,
      "velocity": 98,
      "chip": "ym2612"
    },
    {
      "channel": 0,
      "note": 72,
      "start": 33.4035,
      "duration": 0.0163,
      "velocity": 124,
      "chip": "ym2612"
    },
    {
      "channel": 5,
      "note": 78,
      "start": 33.4047,
      "duration": 0.0163,
      "velocity": 98,
      "chip": "ym2612"
    },
    {
      "channel": 4,
      "note": 81,
      "start": 33.4058,
      "duration": 0.0163,
      "velocity": 86,
      "chip": "ym2612"
    },
    {
      "channel": 3,
      "note": 81,
      "start": 33.407,
      "duration": 0.0163,
      "velocity": 86,
      "chip": "ym2612"
    },
    {
      "channel": 2,
      "note": 59,
      "start": 33.4082,
      "duration": 0.0163,
      "velocity": 93,
      "chip": "ym2612"
    },
    {
      "channel": 1,
      "note": 81,
      "start": 33.4093,
      "duration": 0.0163,
      "velocity": 98,
      "chip": "ym2612"
    },
    {
      "channel": 0,
      "note": 70,
      "start": 33.4198,
      "duration": 0.0161,
      "velocity": 124,
      "chip": "ym2612"
    },
    {
      "channel": 5,
      "note": 78,
      "start": 33.421,
      "duration": 0.0161,
      "velocity": 98,
      "chip": "ym2612"
    },
    {
      "channel": 4,
      "note": 81,
      "start": 33.4222,
      "duration": 0.0161,
      "velocity": 86,
      "chip": "ym2612"
    },
    {
      "channel": 3,
      "note": 81,
      "start": 33.4234,
      "duration": 0.0161,
      "velocity": 86,
      "chip": "ym2612"
    },
    {
      "channel": 2,
      "note": 59,
      "start": 33.4245,
      "duration": 0.0161,
      "velocity": 93,
      "chip": "ym2612"
    },
    {
      "channel": 1,
      "note": 81,
      "start": 33.4257,
      "duration": 0.0161,
      "velocity": 98,
      "chip": "ym2612"
    },
    {
      "channel": 0,
      "note": 68,
      "start": 33.4359,
      "duration": 0.0161,
      "velocity": 124,
      "chip": "ym2612"
    },
    {
      "channel": 5,
      "note": 78,
      "start": 33.4371,
      "duration": 0.0161,
      "velocity": 98,
      "chip": "ym2612"
    },
    {
      "channel": 4,
      "note": 81,
      "start": 33.4383,
      "duration": 0.0161,
      "velocity": 86,
      "chip": "ym2612"
    },
    {
      "channel": 3,
      "note": 81,
      "start": 33.4395,
      "duration": 0.0161,
      "velocity": 86,
      "chip": "ym2612"
    },
    {
      "channel": 2,
      "note": 59,
      "start": 33.4406,
      "duration": 0.0161,
      "velocity": 93,
      "chip": "ym2612"
    },
    {
      "channel": 1,
      "note": 81,
      "start": 33.4418,
      "duration": 0.0161,
      "velocity": 98,
      "chip": "ym2612"
    },
    {
      "channel": 0,
      "note": 65,
      "start": 33.452,
      "duration": 0.0158,
      "velocity": 124,
      "chip": "ym2612"
    },
    {
      "channel": 5,
      "note": 78,
      "start": 33.4532,
      "duration": 0.0161,
      "velocity": 98,
      "chip": "ym2612"
    },
    {
      "channel": 4,
      "note": 81,
      "start": 33.4544,
      "duration": 0.0162,
      "velocity": 86,
      "chip": "ym2612"
    },
    {
      "channel": 3,
      "note": 81,
      "start": 33.4556,
      "duration": 0.0161,
      "velocity": 86,
      "chip": "ym2612"
    },
    {
      "channel": 2,
      "note": 59,
      "start": 33.4567,
      "duration": 0.0162,
      "velocity": 93,
      "chip": "ym2612"
    },
    {
      "channel": 1,
      "note": 81,
      "start": 33.4579,
      "duration": 0.0162,
      "velocity": 98,
      "chip": "ym2612"
    },
    {
      "channel": 0,
      "note": 63,
      "start": 33.4678,
      "duration": 0.0151,
      "velocity": 1,
      "chip": "ym2612"
    },
    {
      "channel": 5,
      "note": 78,
      "start": 33.4693,
      "duration": 0.0149,
      "velocity": 98,
      "chip": "ym2612"
    },
    {
      "channel": 4,
      "note": 81,
      "start": 33.4705,
      "duration": 0.0153,
      "velocity": 86,
      "chip": "ym2612"
    },
    {
      "channel": 3,
      "note": 81,
      "start": 33.4717,
      "duration": 0.0153,
      "velocity": 86,
      "chip": "ym2612"
    },
    {
      "channel": 2,
      "note": 59,
      "start": 33.4729,
      "duration": 0.0152,
      "velocity": 93,
      "chip": "ym2612"
    },
    {
      "channel": 1,
      "note": 81,
      "start": 33.4741,
      "duration": 0.0153,
      "velocity": 98,
      "chip": "ym2612"
    },
    {
      "channel": 5,
      "note": 78,
      "start": 33.4842,
      "duration": 0.015,
      "velocity": 98,
      "chip": "ym2612"
    },
    {
      "channel": 4,
      "note": 81,
      "start": 33.4858,
      "duration": 0.0146,
      "velocity": 86,
      "chip": "ym2612"
    },
    {
      "channel": 3,
      "note": 81,
      "start": 33.4869,
      "duration": 0.0153,
      "velocity": 86,
      "chip": "ym2612"
    },
    {
      "channel": 2,
      "note": 59,
      "start": 33.4881,
      "duration": 0.0153,
      "velocity": 93,
      "chip": "ym2612"
    },
    {
      "channel": 1,
      "note": 81,
      "start": 33.4893,
      "duration": 0.0153,
      "velocity": 98,
      "chip": "ym2612"
    },
    {
      "channel": 5,
      "note": 78,
      "start": 33.4992,
      "duration": 0.0162,
      "velocity": 98,
      "chip": "ym2612"
    },
    {
      "channel": 4,
      "note": 81,
      "start": 33.5004,
      "duration": 0.0161,
      "velocity": 86,
      "chip": "ym2612"
    },
    {
      "channel": 2,
      "note": 59,
      "start": 33.5034,
      "duration": 0.0163,
      "velocity": 93,
      "chip": "ym2612"
    },
    {
      "channel": 1,
      "note": 81,
      "start": 33.5046,
      "duration": 0.0163,
      "velocity": 98,
      "chip": "ym2612"
    },
    {
      "channel": 5,
      "note": 78,
      "start": 33.5154,
      "duration": 0.0161,
      "velocity": 98,
      "chip": "ym2612"
    },
    {
      "channel": 4,
      "note": 81,
      "start": 33.5165,
      "duration": 0.0161,
      "velocity": 86,
      "chip": "ym2612"
    },
    {
      "channel": 3,
      "note": 86,
      "start": 33.5185,
      "duration": 0.0153,
      "velocity": 86,
      "chip": "ym2612"
    },
    {
      "channel": 2,
      "note": 59,
      "start": 33.5198,
      "duration": 0.0159,
      "velocity": 93,
      "chip": "ym2612"
    },
    {
      "channel": 1,
      "note": 81,
      "start": 33.521,
      "duration": 0.0158,
      "velocity": 98,
      "chip": "ym2612"
    },
    {
      "channel": 5,
      "note": 78,
      "start": 33.5315,
      "duration": 0.0161,
      "velocity": 98,
      "chip": "ym2612"
    },
    {
      "channel": 4,
      "note": 81,
      "start": 33.5326,
      "duration": 0.0161,
      "velocity": 86,
      "chip": "ym2612"
    },
    {
      "channel": 3,
      "note": 86,
      "start": 33.5339,
      "duration": 0.016,
      "velocity": 86,
      "chip": "ym2612"
    },
    {
      "channel": 2,
      "note": 59,
      "start": 33.5356,
      "duration": 0.016,
      "velocity": 93,
      "chip": "ym2612"
    },
    {
      "channel": 1,
      "note": 81,
      "start": 33.5367,
      "duration": 0.0161,
      "velocity": 98,
      "chip": "ym2612"
    },
    {
      "channel": 5,
      "note": 78,
      "start": 33.5476,
      "duration": 0.0161,
      "velocity": 98,
      "chip": "ym2612"
    },
    {
      "channel": 3,
      "note": 86,
      "start": 33.5499,
      "duration": 0.0164,
      "velocity": 86,
      "chip": "ym2612"
    },
    {
      "channel": 2,
      "note": 59,
      "start": 33.5516,
      "duration": 0.0161,
      "velocity": 93,
      "chip": "ym2612"
    },
    {
      "channel": 1,
      "note": 81,
      "start": 33.5528,
      "duration": 0.0164,
      "velocity": 98,
      "chip": "ym2612"
    },
    {
      "channel": 5,
      "note": 78,
      "start": 33.5637,
      "duration": 0.0161,
      "velocity": 98,
      "chip": "ym2612"
    },
    {
      "channel": 4,
      "note": 86,
      "start": 33.5652,
      "duration": 0.0158,
      "velocity": 86,
      "chip": "ym2612"
    },
    {
      "channel": 3,
      "note": 86,
      "start": 33.5663,
      "duration": 0.0158,
      "velocity": 86,
      "chip": "ym2612"
    },
    {
      "channel": 2,
      "note": 59,
      "start": 33.5677,
      "duration": 0.0157,
      "velocity": 93,
      "chip": "ym2612"
    },
    {
      "channel": 1,
      "note": 81,
      "start": 33.5693,
      "duration": 0.0158,
      "velocity": 98,
      "chip": "ym2612"
    },
    {
      "channel": 5,
      "note": 78,
      "start": 33.5798,
      "duration": 0.0161,
      "velocity": 98,
      "chip": "ym2612"
    },
    {
      "channel": 4,
      "note": 86,
      "start": 33.581,
      "duration": 0.016,
      "velocity": 86,
      "chip": "ym2612"
    },
    {
      "channel": 3,
      "note": 86,
      "start": 33.5822,
      "duration": 0.016,
      "velocity": 86,
      "chip": "ym2612"
    },
    {
      "channel": 2,
      "note": 59,
      "start": 33.5834,
      "duration": 0.016,
      "velocity": 93,
      "chip": "ym2612"
    },
    {
      "channel": 1,
      "note": 81,
      "start": 33.585,
      "duration": 0.0158,
      "velocity": 98,
      "chip": "ym2612"
    },
    {
      "channel": 5,
      "note": 78,
      "start": 33.5958,
      "duration": 0.0197,
      "velocity": 98,
      "chip": "ym2612"
    },
    {
      "channel": 4,
      "note": 86,
      "start": 33.597,
      "duration": 0.0197,
      "velocity": 86,
      "chip": "ym2612"
    },
    {
      "channel": 3,
      "note": 86,
      "start": 33.5982,
      "duration": 0.0202,
      "velocity": 86,
      "chip": "ym2612"
    },
    {
      "channel": 2,
      "note": 59,
      "start": 33.5994,
      "duration": 0.0204,
      "velocity": 93,
      "chip": "ym2612"
    },
    {
      "channel": 0,
      "note": 36,
      "start": 33.6143,
      "duration": 0.0143,
      "velocity": 115,
      "chip": "ym2612"
    },
    {
      "channel": 5,
      "note": 78,
      "start": 33.6155,
      "duration": 0.0143,
      "velocity": 98,
      "chip": "ym2612"
    },
    {
      "channel": 4,
      "note": 86,
      "start": 33.6166,
      "duration": 0.0143,
      "velocity": 86,
      "chip": "ym2612"
    },
    {
      "channel": 3,
      "note": 86,
      "start": 33.6183,
      "duration": 0.0138,
      "velocity": 86,
      "chip": "ym2612"
    },
    {
      "channel": 2,
      "note": 52,
      "start": 33.6199,
      "duration": 0.0135,
      "velocity": 93,
      "chip": "ym2612"
    },
    {
      "channel": 1,
      "note": 85,
      "start": 33.6213,
      "duration": 0.0138,
      "velocity": 98,
      "chip": "ym2612"
    },
    {
      "channel": 0,
      "note": 36,
      "start": 33.6286,
      "duration": 0.016,
      "velocity": 115,
      "chip": "ym2612"
    },
    {
      "channel": 4,
      "note": 86,
      "start": 33.631,
      "duration": 0.0163,
      "velocity": 86,
      "chip": "ym2612"
    },
    {
      "channel": 3,
      "note": 86,
      "start": 33.6322,
      "duration": 0.0163,
      "velocity": 86,
      "chip": "ym2612"
    },
    {
      "channel": 2,
      "note": 52,
      "start": 33.6334,
      "duration": 0.0163,
      "velocity": 93,
      "chip": "ym2612"
    },
    {
      "channel": 1,
      "note": 85,
      "start": 33.6351,
      "duration": 0.0159,
      "velocity": 98,
      "chip": "ym2612"
    },
    {
      "channel": 0,
      "note": 37,
      "start": 33.6446,
      "duration": 0.0162,
      "velocity": 115,
      "chip": "ym2612"
    },
    {
      "channel": 5,
      "note": 81,
      "start": 33.6461,
      "duration": 0.0159,
      "velocity": 98,
      "chip": "ym2612"
    },
    {
      "channel": 4,
      "note": 86,
      "start": 33.6473,
      "duration": 0.0158,
      "velocity": 86,
      "chip": "ym2612"
    },
    {
      "channel": 3,
      "note": 86,
      "start": 33.6484,
      "duration": 0.0159,
      "velocity": 86,
      "chip": "ym2612"
    },
    {
      "channel": 2,
      "note": 52,
      "start": 33.6497,
      "duration": 0.0158,
      "velocity": 93,
      "chip": "ym2612"
    },
    {
      "channel": 1,
      "note": 85,
      "start": 33.651,
      "duration": 0.0157,
      "velocity": 98,
      "chip": "ym2612"
    },
    {
      "channel": 0,
      "note": 37,
      "start": 33.6608,
      "duration": 0.0161,
      "velocity": 115,
      "chip": "ym2612"
    },
    {
      "channel": 5,
      "note": 81,
      "start": 33.662,
      "duration": 0.016,
      "velocity": 98,
      "chip": "ym2612"
    },
    {
      "channel": 4,
      "note": 86,
      "start": 33.6631,
      "duration": 0.0161,
      "velocity": 86,
      "chip": "ym2612"
    },
    {
      "channel": 3,
      "note": 86,
      "start": 33.6644,
      "duration": 0.016,
      "velocity": 86,
      "chip": "ym2612"
    },
    {
      "channel": 2,
      "note": 52,
      "start": 33.6655,
      "duration": 0.0161,
      "velocity": 93,
      "chip": "ym2612"
    },
    {
      "channel": 1,
      "note": 85,
      "start": 33.6667,
      "duration": 0.016,
      "velocity": 98,
      "chip": "ym2612"
    },
    {
      "channel": 0,
      "note": 38,
      "start": 33.6769,
      "duration": 0.0161,
      "velocity": 115,
      "chip": "ym2612"
    },
    {
      "channel": 5,
      "note": 81,
      "start": 33.678,
      "duration": 0.0161,
      "velocity": 98,
      "chip": "ym2612"
    },
    {
      "channel": 4,
      "note": 86,
      "start": 33.6792,
      "duration": 0.0161,
      "velocity": 86,
      "chip": "ym2612"
    },
    {
      "channel": 3,
      "note": 86,
      "start": 33.6804,
      "duration": 0.0161,
      "velocity": 86,
      "chip": "ym2612"
    },
    {
      "channel": 2,
      "note": 52,
      "start": 33.6816,
      "duration": 0.0161,
      "velocity": 93,
      "chip": "ym2612"
    },
    {
      "channel": 1,
      "note": 85,
      "start": 33.6827,
      "duration": 0.0161,
      "velocity": 98,
      "chip": "ym2612"
    },
    {
      "channel": 0,
      "note": 38,
      "start": 33.693,
      "duration": 0.0161,
      "velocity": 115,
      "chip": "ym2612"
    },
    {
      "channel": 5,
      "note": 81,
      "start": 33.6941,
      "duration": 0.0161,
      "velocity": 98,
      "chip": "ym2612"
    },
    {
      "channel": 4,
      "note": 86,
      "start": 33.6953,
      "duration": 0.0161,
      "velocity": 86,
      "chip": "ym2612"
    },
    {
      "channel": 3,
      "note": 86,
      "start": 33.6965,
      "duration": 0.0161,
      "velocity": 86,
      "chip": "ym2612"
    },
    {
      "channel": 2,
      "note": 52,
      "start": 33.6977,
      "duration": 0.0161,
      "velocity": 93,
      "chip": "ym2612"
    },
    {
      "channel": 1,
      "note": 85,
      "start": 33.6988,
      "duration": 0.0161,
      "velocity": 98,
      "chip": "ym2612"
    },
    {
      "channel": 0,
      "note": 39,
      "start": 33.7091,
      "duration": 0.0161,
      "velocity": 115,
      "chip": "ym2612"
    },
    {
      "channel": 5,
      "note": 81,
      "start": 33.7102,
      "duration": 0.0161,
      "velocity": 98,
      "chip": "ym2612"
    },
    {
      "channel": 4,
      "note": 86,
      "start": 33.7114,
      "duration": 0.0161,
      "velocity": 86,
      "chip": "ym2612"
    },
    {
      "channel": 3,
      "note": 86,
      "start": 33.7126,
      "duration": 0.0161,
      "velocity": 86,
      "chip": "ym2612"
    },
    {
      "channel": 2,
      "note": 52,
      "start": 33.7138,
      "duration": 0.0161,
      "velocity": 93,
      "chip": "ym2612"
    },
    {
      "channel": 1,
      "note": 85,
      "start": 33.7149,
      "duration": 0.0161,
      "velocity": 98,
      "chip": "ym2612"
    },
    {
      "channel": 0,
      "note": 39,
      "start": 33.7252,
      "duration": 0.0161,
      "velocity": 115,
      "chip": "ym2612"
    },
    {
      "channel": 5,
      "note": 81,
      "start": 33.7263,
      "duration": 0.0162,
      "velocity": 98,
      "chip": "ym2612"
    },
    {
      "channel": 4,
      "note": 86,
      "start": 33.7275,
      "duration": 0.0161,
      "velocity": 86,
      "chip": "ym2612"
    },
    {
      "channel": 3,
      "note": 86,
      "start": 33.7287,
      "duration": 0.0161,
      "velocity": 86,
      "chip": "ym2612"
    },
    {
      "channel": 2,
      "note": 52,
      "start": 33.7299,
      "duration": 0.0161,
      "velocity": 93,
      "chip": "ym2612"
    },
    {
      "channel": 1,
      "note": 85,
      "start": 33.731,
      "duration": 0.0161,
      "velocity": 98,
      "chip": "ym2612"
    },
    {
      "channel": 0,
      "note": 40,
      "start": 33.7412,
      "duration": 0.0161,
      "velocity": 115,
      "chip": "ym2612"
    },
    {
      "channel": 5,
      "note": 81,
      "start": 33.7425,
      "duration": 0.0161,
      "velocity": 98,
      "chip": "ym2612"
    },
    {
      "channel": 4,
      "note": 86,
      "start": 33.7436,
      "duration": 0.0161,
      "velocity": 86,
      "chip": "ym2612"
    },
    {
      "channel": 3,
      "note": 86,
      "start": 33.7448,
      "duration": 0.0161,
      "velocity": 86,
      "chip": "ym2612"
    },
    {
      "channel": 2,
      "note": 52,
      "start": 33.746,
      "duration": 0.0162,
      "velocity": 93,
      "chip": "ym2612"
    },
    {
      "channel": 1,
      "note": 85,
      "start": 33.7472,
      "duration": 0.0162,
      "velocity": 98,
      "chip": "ym2612"
    },
    {
      "channel": 0,
      "note": 40,
      "start": 33.7573,
      "duration": 0.0161,
      "velocity": 115,
      "chip": "ym2612"
    },
    {
      "channel": 5,
      "note": 81,
      "start": 33.7585,
      "duration": 0.0161,
      "velocity": 98,
      "chip": "ym2612"
    },
    {
      "channel": 4,
      "note": 86,
      "start": 33.7597,
      "duration": 0.0161,
      "velocity": 86,
      "chip": "ym2612"
    },
    {
      "channel": 3,
      "note": 86,
      "start": 33.7609,
      "duration": 0.0161,
      "velocity": 86,
      "chip": "ym2612"
    },
    {
      "channel": 2,
      "note": 52,
      "start": 33.7621,
      "duration": 0.0161,
      "velocity": 93,
      "chip": "ym2612"
    },
    {
      "channel": 1,
      "note": 85,
      "start": 33.7633,
      "duration": 0.016,
      "velocity": 98,
      "chip": "ym2612"
    },
    {
      "channel": 0,
      "note": 40,
      "start": 33.7734,
      "duration": 0.0161,
      "velocity": 115,
      "chip": "ym2612"
    },
    {
      "channel": 5,
      "note": 81,
      "start": 33.7746,
      "duration": 0.0161,
      "velocity": 98,
      "chip": "ym2612"
    },
    {
      "channel": 4,
      "note": 86,
      "start": 33.7758,
      "duration": 0.0161,
      "velocity": 86,
      "chip": "ym2612"
    },
    {
      "channel": 3,
      "note": 86,
      "start": 33.777,
      "duration": 0.0161,
      "velocity": 86,
      "chip": "ym2612"
    },
    {
      "channel": 2,
      "note": 52,
      "start": 33.7782,
      "duration": 0.0162,
      "velocity": 93,
      "chip": "ym2612"
    },
    {
      "channel": 1,
      "note": 85,
      "start": 33.7794,
      "duration": 0.0161,
      "velocity": 98,
      "chip": "ym2612"
    },
    {
      "channel": 0,
      "note": 41,
      "start": 33.7895,
      "duration": 0.0161,
      "velocity": 115,
      "chip": "ym2612"
    },
    {
      "channel": 5,
      "note": 81,
      "start": 33.7907,
      "duration": 0.0161,
      "velocity": 98,
      "chip": "ym2612"
    },
    {
      "channel": 4,
      "note": 86,
      "start": 33.7919,
      "duration": 0.0161,
      "velocity": 86,
      "chip": "ym2612"
    },
    {
      "channel": 2,
      "note": 52,
      "start": 33.7944,
      "duration": 0.0163,
      "velocity": 93,
      "chip": "ym2612"
    },
    {
      "channel": 1,
      "note": 85,
      "start": 33.7955,
      "duration": 0.0163,
      "velocity": 98,
      "chip": "ym2612"
    },
    {
      "channel": 0,
      "note": 41,
      "start": 33.8057,
      "duration": 0.0161,
      "velocity": 115,
      "chip": "ym2612"
    },
    {
      "channel": 5,
      "note": 81,
      "start": 33.8068,
      "duration": 0.0161,
      "velocity": 98,
      "chip": "ym2612"
    },
    {
      "channel": 4,
      "note": 86,
      "start": 33.808,
      "duration": 0.0162,
      "velocity": 86,
      "chip": "ym2612"
    },
    {
      "channel": 3,
      "note": 76,
      "start": 33.8095,
      "duration": 0.0158,
      "velocity": 86,
      "chip": "ym2612"
    },
    {
      "channel": 2,
      "note": 52,
      "start": 33.8107,
      "duration": 0.0159,
      "velocity": 93,
      "chip": "ym2612"
    },
    {
      "channel": 1,
      "note": 85,
      "start": 33.8119,
      "duration": 0.0159,
      "velocity": 98,
      "chip": "ym2612"
    },
    {
      "channel": 0,
      "note": 42,
      "start": 33.8218,
      "duration": 0.0161,
      "velocity": 115,
      "chip": "ym2612"
    },
    {
      "channel": 5,
      "note": 81,
      "start": 33.8229,
      "duration": 0.0161,
      "velocity": 98,
      "chip": "ym2612"
    },
    {
      "channel": 4,
      "note": 86,
      "start": 33.8241,
      "duration": 0.0161,
      "velocity": 86,
      "chip": "ym2612"
    },
    {
      "channel": 3,
      "note": 76,
      "start": 33.8254,
      "duration": 0.016,
      "velocity": 86,
      "chip": "ym2612"
    },
    {
      "channel": 2,
      "note": 52,
      "start": 33.8265,
      "duration": 0.0161,
      "velocity": 93,
      "chip": "ym2612"
    },
    {
      "channel": 1,
      "note": 85,
      "start": 33.8277,
      "duration": 0.016,
      "velocity": 98,
      "chip": "ym2612"
    },
    {
      "channel": 0,
      "note": 42,
      "start": 33.8379,
      "duration": 0.0161,
      "velocity": 115,
      "chip": "ym2612"
    },
    {
      "channel": 5,
      "note": 81,
      "start": 33.839,
      "duration": 0.0162,
      "velocity": 98,
      "chip": "ym2612"
    },
    {
      "channel": 3,
      "note": 76,
      "start": 33.8414,
      "duration": 0.0165,
      "velocity": 86,
      "chip": "ym2612"
    },
    {
      "channel": 2,
      "note": 52,
      "start": 33.8426,
      "duration": 0.0164,
      "velocity": 93,
      "chip": "ym2612"
    },
    {
      "channel": 1,
      "note": 85,
      "start": 33.8437,
      "duration": 0.0165,
      "velocity": 98,
      "chip": "ym2612"
    },
    {
      "channel": 0,
      "note": 43,
      "start": 33.854,
      "duration": 0.0162,
      "velocity": 115,
      "chip": "ym2612"
    },
    {
      "channel": 5,
      "note": 81,
      "start": 33.8552,
      "duration": 0.0161,
      "velocity": 98,
      "chip": "ym2612"
    },
    {
      "channel": 4,
      "note": 76,
      "start": 33.8567,
      "duration": 0.0159,
      "velocity": 86,
      "chip": "ym2612"
    },
    {
      "channel": 3,
      "note": 76,
      "start": 33.8579,
      "duration": 0.0159,
      "velocity": 86,
      "chip": "ym2612"
    },
    {
      "channel": 2,
      "note": 52,
      "start": 33.859,
      "duration": 0.016,
      "velocity": 93,
      "chip": "ym2612"
    },
    {
      "channel": 1,
      "note": 85,
      "start": 33.8602,
      "duration": 0.016,
      "velocity": 98,
      "chip": "ym2612"
    },
    {
      "channel": 0,
      "note": 43,
      "start": 33.8702,
      "duration": 0.0163,
      "velocity": 115,
      "chip": "ym2612"
    },
    {
      "channel": 5,
      "note": 81,
      "start": 33.8713,
      "duration": 0.0164,
      "velocity": 98,
      "chip": "ym2612"
    },
    {
      "channel": 4,
      "note": 76,
      "start": 33.8726,
      "duration": 0.0163,
      "velocity": 86,
      "chip": "ym2612"
    },
    {
      "channel": 3,
      "note": 76,
      "start": 33.8738,
      "duration": 0.0163,
      "velocity": 86,
      "chip": "ym2612"
    },
    {
      "channel": 2,
      "note": 52,
      "start": 33.875,
      "duration": 0.0163,
      "velocity": 93,
      "chip": "ym2612"
    },
    {
      "channel": 1,
      "note": 85,
      "start": 33.8762,
      "duration": 0.0163,
      "velocity": 98,
      "chip": "ym2612"
    },
    {
      "channel": 0,
      "note": 44,
      "start": 33.8866,
      "duration": 0.0181,
      "velocity": 124,
      "chip": "ym2612"
    },
    {
      "channel": 5,
      "note": 81,
      "start": 33.8878,
      "duration": 0.0181,
      "velocity": 98,
      "chip": "ym2612"
    },
    {
      "channel": 4,
      "note": 76,
      "start": 33.8889,
      "duration": 0.0181,
      "velocity": 86,
      "chip": "ym2612"
    },
    {
      "channel": 2,
      "note": 52,
      "start": 33.8913,
      "duration": 0.0186,
      "velocity": 93,
      "chip": "ym2612"
    },
    {
      "channel": 1,
      "note": 85,
      "start": 33.8925,
      "duration": 0.0187,
      "velocity": 98,
      "chip": "ym2612"
    },
    {
      "channel": 0,
      "note": 84,
      "start": 33.9047,
      "duration": 0.0143,
      "velocity": 124,
      "chip": "ym2612"
    },
    {
      "channel": 5,
      "note": 81,
      "start": 33.9059,
      "duration": 0.0143,
      "velocity": 98,
      "chip": "ym2612"
    },
    {
      "channel": 4,
      "note": 76,
      "start": 33.907,
      "duration": 0.0144,
      "velocity": 86,
      "chip": "ym2612"
    },
    {
      "channel": 3,
      "note": 80,
      "start": 33.9085,
      "duration": 0.0141,
      "velocity": 86,
      "chip": "ym2612"
    },
    {
      "channel": 2,
      "note": 52,
      "start": 33.91,
      "duration": 0.0139,
      "velocity": 93,
      "chip": "ym2612"
    },
    {
      "channel": 1,
      "note": 85,
      "start": 33.9112,
      "duration": 0.0139,
      "velocity": 98,
      "chip": "ym2612"
    },
    {
      "channel": 0,
      "note": 82,
      "start": 33.919,
      "duration": 0.016,
      "velocity": 124,
      "chip": "ym2612"
    },
    {
      "channel": 4,
      "note": 76,
      "start": 33.9214,
      "duration": 0.0163,
      "velocity": 86,
      "chip": "ym2612"
    },
    {
      "channel": 3,
      "note": 80,
      "start": 33.9226,
      "duration": 0.0163,
      "velocity": 86,
      "chip": "ym2612"
    },
    {
      "channel": 2,
      "note": 52,
      "start": 33.9238,
      "duration": 0.0162,
      "velocity": 93,
      "chip": "ym2612"
    },
    {
      "channel": 1,
      "note": 85,
      "start": 33.925,
      "duration": 0.0162,
      "velocity": 98,
      "chip": "ym2612"
    },
    {
      "channel": 0,
      "note": 80,
      "start": 33.935,
      "duration": 0.0158,
      "velocity": 124,
      "chip": "ym2612"
    },
    {
      "channel": 5,
      "note": 85,
      "start": 33.9366,
      "duration": 0.0158,
      "velocity": 98,
      "chip": "ym2612"
    },
    {
      "channel": 3,
      "note": 80,
      "start": 33.9389,
      "duration": 0.0161,
      "velocity": 86,
      "chip": "ym2612"
    },
    {
      "channel": 2,
      "note": 52,
      "start": 33.94,
      "duration": 0.0162,
      "velocity": 93,
      "chip": "ym2612"
    },
    {
      "channel": 1,
      "note": 85,
      "start": 33.9412,
      "duration": 0.0161,
      "velocity": 98,
      "chip": "ym2612"
    },
    {
      "channel": 0,
      "note": 77,
      "start": 33.9508,
      "duration": 0.0159,
      "velocity": 124,
      "chip": "ym2612"
    },
    {
      "channel": 5,
      "note": 85,
      "start": 33.9524,
      "duration": 0.016,
      "velocity": 98,
      "chip": "ym2612"
    },
    {
      "channel": 4,
      "note": 80,
      "start": 33.9539,
      "duration": 0.0158,
      "velocity": 86,
      "chip": "ym2612"
    },
    {
      "channel": 3,
      "note": 80,
      "start": 33.9551,
      "duration": 0.0158,
      "velocity": 86,
      "chip": "ym2612"
    },
    {
      "channel": 2,
      "note": 52,
      "start": 33.9562,
      "duration": 0.0158,
      "velocity": 93,
      "chip": "ym2612"
    },
    {
      "channel": 1,
      "note": 85,
      "start": 33.9573,
      "duration": 0.0159,
      "velocity": 98,
      "chip": "ym2612"
    },
    {
      "channel": 0,
      "note": 75,
      "start": 33.9667,
      "duration": 0.0161,
      "velocity": 124,
      "chip": "ym2612"
    },
    {
      "channel": 5,
      "note": 85,
      "start": 33.9683,
      "duration": 0.0159,
      "velocity": 98,
      "chip": "ym2612"
    },
    {
      "channel": 4,
      "note": 80,
      "start": 33.9697,
      "duration": 0.016,
      "velocity": 86,
      "chip": "ym2612"
    },
    {
      "channel": 3,
      "note": 80,
      "start": 33.9708,
      "duration": 0.0161,
      "velocity": 86,
      "chip": "ym2612"
    },
    {
      "channel": 2,
      "note": 52,
      "start": 33.972,
      "duration": 0.0161,
      "velocity": 93,
      "chip": "ym2612"
    },
    {
      "channel": 1,
      "note": 85,
      "start": 33.9732,
      "duration": 0.016,
      "velocity": 98,
      "chip": "ym2612"
    },
    {
      "channel": 0,
      "note": 72,
      "start": 33.9828,
      "duration": 0.0161,
      "velocity": 124,
      "chip": "ym2612"
    },
    {
      "channel": 5,
      "note": 85,
      "start": 33.9842,
      "duration": 0.0159,
      "velocity": 98,
      "chip": "ym2612"
    },
    {
      "channel": 4,
      "note": 80,
      "start": 33.9857,
      "duration": 0.0161,
      "velocity": 86,
      "chip": "ym2612"
    },
    {
      "channel": 3,
      "note": 80,
      "start": 33.9869,
      "duration": 0.0161,
      "velocity": 86,
      "chip": "ym2612"
    },
    {
      "channel": 2,
      "note": 52,
      "start": 33.9881,
      "duration": 0.0161,
      "velocity": 93,
      "chip": "ym2612"
    },
    {
      "channel": 1,
      "note": 85,
      "start": 33.9892,
      "duration": 0.0161,
      "velocity": 98,
      "chip": "ym2612"
    },
    {
      "channel": 0,
      "note": 70,
      "start": 33.9989,
      "duration": 0.0161,
      "velocity": 124,
      "chip": "ym2612"
    },
    {
      "channel": 5,
      "note": 85,
      "start": 34.0,
      "duration": 0.0161,
      "velocity": 98,
      "chip": "ym2612"
    },
    {
      "channel": 4,
      "note": 80,
      "start": 34.0017,
      "duration": 0.0158,
      "velocity": 86,
      "chip": "ym2612"
    },
    {
      "channel": 3,
      "note": 80,
      "start": 34.003,
      "duration": 0.0161,
      "velocity": 86,
      "chip": "ym2612"
    },
    {
      "channel": 2,
      "note": 52,
      "start": 34.0042,
      "duration": 0.0161,
      "velocity": 93,
      "chip": "ym2612"
    },
    {
      "channel": 1,
      "note": 85,
      "start": 34.0053,
      "duration": 0.0161,
      "velocity": 98,
      "chip": "ym2612"
    },
    {
      "channel": 0,
      "note": 68,
      "start": 34.015,
      "duration": 0.0161,
      "velocity": 124,
      "chip": "ym2612"
    },
    {
      "channel": 5,
      "note": 85,
      "start": 34.0161,
      "duration": 0.0162,
      "velocity": 98,
      "chip": "ym2612"
    },
    {
      "channel": 4,
      "note": 80,
      "start": 34.0175,
      "duration": 0.0159,
      "velocity": 86,
      "chip": "ym2612"
    },
    {
      "channel": 3,
      "note": 80,
      "start": 34.0191,
      "duration": 0.016,
      "velocity": 86,
      "chip": "ym2612"
    },
    {
      "channel": 2,
      "note": 52,
      "start": 34.0203,
      "duration": 0.0161,
      "velocity": 93,
      "chip": "ym2612"
    },
    {
      "channel": 1,
      "note": 85,
      "start": 34.0214,
      "duration": 0.0162,
      "velocity": 98,
      "chip": "ym2612"
    },
    {
      "channel": 0,
      "note": 65,
      "start": 34.0311,
      "duration": 0.0161,
      "velocity": 124,
      "chip": "ym2612"
    },
    {
      "channel": 5,
      "note": 85,
      "start": 34.0323,
      "duration": 0.0161,
      "velocity": 98,
      "chip": "ym2612"
    },
    {
      "channel": 4,
      "note": 80,
      "start": 34.0334,
      "duration": 0.0161,
      "velocity": 86,
      "chip": "ym2612"
    },
    {
      "channel": 3,
      "note": 80,
      "start": 34.0351,
      "duration": 0.0159,
      "velocity": 86,
      "chip": "ym2612"
    },
    {
      "channel": 2,
      "note": 52,
      "start": 34.0363,
      "duration": 0.0162,
      "velocity": 93,
      "chip": "ym2612"
    },
    {
      "channel": 0,
      "note": 63,
      "start": 34.0472,
      "duration": 0.0153,
      "velocity": 1,
      "chip": "ym2612"
    },
    {
      "channel": 5,
      "note": 85,
      "start": 34.0484,
      "duration": 0.0153,
      "velocity": 98,
      "chip": "ym2612"
    },
    {
      "channel": 4,
      "note": 80,
      "start": 34.0495,
      "duration": 0.0153,
      "velocity": 86,
      "chip": "ym2612"
    },
    {
      "channel": 3,
      "note": 80,
      "start": 34.051,
      "duration": 0.015,
      "velocity": 86,
      "chip": "ym2612"
    },
    {
      "channel": 2,
      "note": 52,
      "start": 34.0526,
      "duration": 0.0146,
      "velocity": 93,
      "chip": "ym2612"
    },
    {
      "channel": 1,
      "note": 83,
      "start": 34.054,
      "duration": 0.015,
      "velocity": 98,
      "chip": "ym2612"
    },
    {
      "channel": 5,
      "note": 85,
      "start": 34.0637,
      "duration": 0.0152,
      "velocity": 98,
      "chip": "ym2612"
    },
    {
      "channel": 4,
      "note": 80,
      "start": 34.0648,
      "duration": 0.0153,
      "velocity": 86,
      "chip": "ym2612"
    },
    {
      "channel": 3,
      "note": 80,
      "start": 34.066,
      "duration": 0.0153,
      "velocity": 86,
      "chip": "ym2612"
    },
    {
      "channel": 2,
      "note": 52,
      "start": 34.0672,
      "duration": 0.0153,
      "velocity": 93,
      "chip": "ym2612"
    },
    {
      "channel": 1,
      "note": 83,
      "start": 34.069,
      "duration": 0.0146,
      "velocity": 98,
      "chip": "ym2612"
    },
    {
      "channel": 5,
      "note": 85,
      "start": 34.0788,
      "duration": 0.0161,
      "velocity": 98,
      "chip": "ym2612"
    },
    {
      "channel": 4,
      "note": 80,
      "start": 34.0801,
      "duration": 0.0161,
      "velocity": 86,
      "chip": "ym2612"
    },
    {
      "channel": 2,
      "note": 52,
      "start": 34.0825,
      "duration": 0.0163,
      "velocity": 93,
      "chip": "ym2612"
    },
    {
      "channel": 5,
      "note": 85,
      "start": 34.0949,
      "duration": 0.0161,
      "velocity": 98,
      "chip": "ym2612"
    },
    {
      "channel": 4,
      "note": 80,
      "start": 34.0961,
      "duration": 0.0161,
      "velocity": 86,
      "chip": "ym2612"
    },
    {
      "channel": 3,
      "note": 86,
      "start": 34.0977,
      "duration": 0.0158,
      "velocity": 86,
      "chip": "ym2612"
    },
    {
      "channel": 2,
      "note": 52,
      "start": 34.0988,
      "duration": 0.0159,
      "velocity": 93,
      "chip": "ym2612"
    },
    {
      "channel": 1,
      "note": 82,
      "start": 34.1003,
      "duration": 0.0156,
      "velocity": 98,
      "chip": "ym2612"
    },
    {
      "channel": 5,
      "note": 85,
      "start": 34.111,
      "duration": 0.0161,
      "velocity": 98,
      "chip": "ym2612"
    },
    {
      "channel": 4,
      "note": 80,
      "start": 34.1122,
      "duration": 0.0162,
      "velocity": 86,
      "chip": "ym2612"
    },
    {
      "channel": 3,
      "note": 86,
      "start": 34.1135,
      "duration": 0.016,
      "velocity": 86,
      "chip": "ym2612"
    },
    {
      "channel": 2,
      "note": 52,
      "start": 34.1147,
      "duration": 0.016,
      "velocity": 93,
      "chip": "ym2612"
    },
    {
      "channel": 1,
      "note": 82,
      "start": 34.1159,
      "duration": 0.016,
      "velocity": 98,
      "chip": "ym2612"
    },
    {
      "channel": 5,
      "note": 85,
      "start": 34.1272,
      "duration": 0.0161,
      "velocity": 98,
      "chip": "ym2612"
    },
    {
      "channel": 3,
      "note": 86,
      "start": 34.1295,
      "duration": 0.0164,
      "velocity": 86,
      "chip": "ym2612"
    },
    {
      "channel": 2,
      "note": 52,
      "start": 34.1307,
      "duration": 0.0164,
      "velocity": 93,
      "chip": "ym2612"
    },
    {
      "channel": 5,
      "note": 85,
      "start": 34.1433,
      "duration": 0.0161,
      "velocity": 98,
      "chip": "ym2612"
    },
    {
      "channel": 4,
      "note": 86,
      "start": 34.1448,
      "duration": 0.0158,
      "velocity": 86,
      "chip": "ym2612"
    },
    {
      "channel": 3,
      "note": 86,
      "start": 34.146,
      "duration": 0.0158,
      "velocity": 86,
      "chip": "ym2612"
    },
    {
      "channel": 2,
      "note": 52,
      "start": 34.1471,
      "duration": 0.0159,
      "velocity": 93,
      "chip": "ym2612"
    },
    {
      "channel": 1,
      "note": 81,
      "start": 34.1486,
      "duration": 0.0156,
      "velocity": 98,
      "chip": "ym2612"
    },
    {
      "channel": 5,
      "note": 85,
      "start": 34.1594,
      "duration": 0.0161,
      "velocity": 98,
      "chip": "ym2612"
    },
    {
      "channel": 4,
      "note": 86,
      "start": 34.1606,
      "duration": 0.016,
      "velocity": 86,
      "chip": "ym2612"
    },
    {
      "channel": 3,
      "note": 86,
      "start": 34.1617,
      "duration": 0.0161,
      "velocity": 86,
      "chip": "ym2612"
    },
    {
      "channel": 2,
      "note": 52,
      "start": 34.163,
      "duration": 0.016,
      "velocity": 93,
      "chip": "ym2612"
    },
    {
      "channel": 1,
      "note": 81,
      "start": 34.1642,
      "duration": 0.016,
      "velocity": 98,
      "chip": "ym2612"
    },
    {
      "channel": 5,
      "note": 85,
      "start": 34.1755,
      "duration": 0.0197,
      "velocity": 98,
      "chip": "ym2612"
    },
    {
      "channel": 4,
      "note": 86,
      "start": 34.1766,
      "duration": 0.0197,
      "velocity": 86,
      "chip": "ym2612"
    },
    {
      "channel": 3,
      "note": 86,
      "start": 34.1778,
      "duration": 0.0197,
      "velocity": 86,
      "chip": "ym2612"
    },
    {
      "channel": 2,
      "note": 52,
      "start": 34.179,
      "duration": 0.0198,
      "velocity": 93,
      "chip": "ym2612"
    },
    {
      "channel": 0,
      "note": 36,
      "start": 34.1939,
      "duration": 0.0143,
      "velocity": 115,
      "chip": "ym2612"
    },
    {
      "channel": 5,
      "note": 85,
      "start": 34.1951,
      "duration": 0.0143,
      "velocity": 98,
      "chip": "ym2612"
    },
    {
      "channel": 4,
      "note": 86,
      "start": 34.1963,
      "duration": 0.0143,
      "velocity": 86,
      "chip": "ym2612"
    },
    {
      "channel": 3,
      "note": 86,
      "start": 34.1975,
      "duration": 0.0143,
      "velocity": 86,
      "chip": "ym2612"
    },
    {
      "channel": 2,
      "note": 52,
      "start": 34.199,
      "duration": 0.0141,
      "velocity": 93,
      "chip": "ym2612"
    },
    {
      "channel": 1,
      "note": 80,
      "start": 34.2005,
      "duration": 0.0137,
      "velocity": 98,
      "chip": "ym2612"
    },
    {
      "channel": 0,
      "note": 36,
      "start": 34.2082,
      "duration": 0.016,
      "velocity": 115,
      "chip": "ym2612"
    },
    {
      "channel": 5,
      "note": 85,
      "start": 34.2095,
      "duration": 0.016,
      "velocity": 98,
      "chip": "ym2612"
    },
    {
      "channel": 4,
      "note": 86,
      "start": 34.2106,
      "duration": 0.016,
      "velocity": 86,
      "chip": "ym2612"
    },
    {
      "channel": 3,
      "note": 86,
      "start": 34.2118,
      "duration": 0.016,
      "velocity": 86,
      "chip": "ym2612"
    },
    {
      "channel": 2,
      "note": 52,
      "start": 34.213,
      "duration": 0.016,
      "velocity": 93,
      "chip": "ym2612"
    },
    {
      "channel": 1,
      "note": 80,
      "start": 34.2142,
      "duration": 0.0159,
      "velocity": 98,
      "chip": "ym2612"
    },
    {
      "channel": 0,
      "note": 37,
      "start": 34.2243,
      "duration": 0.0161,
      "velocity": 115,
      "chip": "ym2612"
    },
    {
      "channel": 5,
      "note": 85,
      "start": 34.2255,
      "duration": 0.0161,
      "velocity": 98,
      "chip": "ym2612"
    },
    {
      "channel": 4,
      "note": 86,
      "start": 34.2266,
      "duration": 0.0161,
      "velocity": 86,
      "chip": "ym2612"
    },
    {
      "channel": 3,
      "note": 86,
      "start": 34.2278,
      "duration": 0.0161,
      "velocity": 86,
      "chip": "ym2612"
    },
    {
      "channel": 2,
      "note": 52,
      "start": 34.229,
      "duration": 0.0161,
      "velocity": 93,
      "chip": "ym2612"
    },
    {
      "channel": 1,
      "note": 80,
      "start": 34.2301,
      "duration": 0.0162,
      "velocity": 98,
      "chip": "ym2612"
    },
    {
      "channel": 0,
      "note": 37,
      "start": 34.2404,
      "duration": 0.0162,
      "velocity": 115,
      "chip": "ym2612"
    },
    {
      "channel": 5,
      "note": 85,
      "start": 34.2416,
      "duration": 0.0161,
      "velocity": 98,
      "chip": "ym2612"
    },
    {
      "channel": 4,
      "note": 86,
      "start": 34.2427,
      "duration": 0.0161,
      "velocity": 86,
      "chip": "ym2612"
    },
    {
      "channel": 3,
      "note": 86,
      "start": 34.2439,
      "duration": 0.0161,
      "velocity": 86,
      "chip": "ym2612"
    },
    {
      "channel": 2,
      "note": 52,
      "start": 34.2451,
      "duration": 0.0161,
      "velocity": 93,
      "chip": "ym2612"
    },
    {
      "channel": 1,
      "note": 80,
      "start": 34.2463,
      "duration": 0.0161,
      "velocity": 98,
      "chip": "ym2612"
    },
    {
      "channel": 0,
      "note": 38,
      "start": 34.2565,
      "duration": 0.0161,
      "velocity": 115,
      "chip": "ym2612"
    },
    {
      "channel": 5,
      "note": 85,
      "start": 34.2577,
      "duration": 0.0161,
      "velocity": 98,
      "chip": "ym2612"
    },
    {
      "channel": 4,
      "note": 86,
      "start": 34.2588,
      "duration": 0.0161,
      "velocity": 86,
      "chip": "ym2612"
    },
    {
      "channel": 3,
      "note": 86,
      "start": 34.26,
      "duration": 0.0161,
      "velocity": 86,
      "chip": "ym2612"
    },
    {
      "channel": 2,
      "note": 52,
      "start": 34.2612,
      "duration": 0.0161,
      "velocity": 93,
      "chip": "ym2612"
    },
    {
      "channel": 1,
      "note": 80,
      "start": 34.2624,
      "duration": 0.0161,
      "velocity": 98,
      "chip": "ym2612"
    },
    {
      "channel": 0,
      "note": 38,
      "start": 34.2726,
      "duration": 0.0161,
      "velocity": 115,
      "chip": "ym2612"
    },
    {
      "channel": 5,
      "note": 85,
      "start": 34.2738,
      "duration": 0.0161,
      "velocity": 98,
      "chip": "ym2612"
    },
    {
      "channel": 4,
      "note": 86,
      "start": 34.2749,
      "duration": 0.0162,
      "velocity": 86,
      "chip": "ym2612"
    },
    {
      "channel": 3,
      "note": 86,
      "start": 34.2761,
      "duration": 0.0161,
      "velocity": 86,
      "chip": "ym2612"
    },
    {
      "channel": 2,
      "note": 52,
      "start": 34.2773,
      "duration": 0.0162,
      "velocity": 93,
      "chip": "ym2612"
    },
    {
      "channel": 1,
      "note": 80,
      "start": 34.2785,
      "duration": 0.0161,
      "velocity": 98,
      "chip": "ym2612"
    },
    {
      "channel": 0,
      "note": 39,
      "start": 34.2887,
      "duration": 0.0161,
      "velocity": 115,
      "chip": "ym2612"
    },
    {
      "channel": 5,
      "note": 85,
      "start": 34.2899,
      "duration": 0.0161,
      "velocity": 98,
      "chip": "ym2612"
    },
    {
      "channel": 4,
      "note": 86,
      "start": 34.2911,
      "duration": 0.0161,
      "velocity": 86,
      "chip": "ym2612"
    },
    {
      "channel": 3,
      "note": 86,
      "start": 34.2922,
      "duration": 0.0161,
      "velocity": 86,
      "chip": "ym2612"
    },
    {
      "channel": 2,
      "note": 52,
      "start": 34.2934,
      "duration": 0.0161,
      "velocity": 93,
      "chip": "ym2612"
    },
    {
      "channel": 1,
      "note": 80,
      "start": 34.2946,
      "duration": 0.0161,
      "velocity": 98,
      "chip": "ym2612"
    },
    {
      "channel": 0,
      "note": 39,
      "start": 34.3048,
      "duration": 0.0161,
      "velocity": 115,
      "chip": "ym2612"
    },
    {
      "channel": 5,
      "note": 85,
      "start": 34.3059,
      "duration": 0.0161,
      "velocity": 98,
      "chip": "ym2612"
    },
    {
      "channel": 4,
      "note": 86,
      "start": 34.3072,
      "duration": 0.0161,
      "velocity": 86,
      "chip": "ym2612"
    },
    {
      "channel": 3,
      "note": 86,
      "start": 34.3083,
      "duration": 0.0161,
      "velocity": 86,
      "chip": "ym2612"
    },
    {
      "channel": 2,
      "note": 52,
      "start": 34.3095,
      "duration": 0.0161,
      "velocity": 93,
      "chip": "ym2612"
    },
    {
      "channel": 1,
      "note": 80,
      "start": 34.3107,
      "duration": 0.0161,
      "velocity": 98,
      "chip": "ym2612"
    },
    {
      "channel": 0,
      "note": 40,
      "start": 34.3209,
      "duration": 0.0161,
      "velocity": 115,
      "chip": "ym2612"
    },
    {
      "channel": 5,
      "note": 85,
      "start": 34.322,
      "duration": 0.0162,
      "velocity": 98,
      "chip": "ym2612"
    },
    {
      "channel": 4,
      "note": 86,
      "start": 34.3232,
      "duration": 0.0162,
      "velocity": 86,
      "chip": "ym2612"
    },
    {
      "channel": 3,
      "note": 86,
      "start": 34.3244,
      "duration": 0.0162,
      "velocity": 86,
      "chip": "ym2612"
    },
    {
      "channel": 2,
      "note": 52,
      "start": 34.3256,
      "duration": 0.0162,
      "velocity": 93,
      "chip": "ym2612"
    },
    {
      "channel": 1,
      "note": 80,
      "start": 34.3268,
      "duration": 0.0162,
      "velocity": 98,
      "chip": "ym2612"
    },
    {
      "channel": 0,
      "note": 40,
      "start": 34.3371,
      "duration": 0.0164,
      "velocity": 115,
      "chip": "ym2612"
    },
    {
      "channel": 5,
      "note": 85,
      "start": 34.3382,
      "duration": 0.0165,
      "velocity": 98,
      "chip": "ym2612"
    },
    {
      "channel": 4,
      "note": 86,
      "start": 34.3394,
      "duration": 0.0164,
      "velocity": 86,
      "chip": "ym2612"
    },
    {
      "channel": 3,
      "note": 86,
      "start": 34.3406,
      "duration": 0.0164,
      "velocity": 86,
      "chip": "ym2612"
    },
    {
      "channel": 2,
      "note": 52,
      "start": 34.3418,
      "duration": 0.0164,
      "velocity": 93,
      "chip": "ym2612"
    },
    {
      "channel": 1,
      "note": 80,
      "start": 34.343,
      "duration": 0.0165,
      "velocity": 98,
      "chip": "ym2612"
    },
    {
      "channel": 0,
      "note": 40,
      "start": 34.3535,
      "duration": 0.0163,
      "velocity": 115,
      "chip": "ym2612"
    },
    {
      "channel": 4,
      "note": 86,
      "start": 34.3558,
      "duration": 0.0166,
      "velocity": 86,
      "chip": "ym2612"
    },
    {
      "channel": 3,
      "note": 86,
      "start": 34.357,
      "duration": 0.0166,
      "velocity": 86,
      "chip": "ym2612"
    },
    {
      "channel": 2,
      "note": 52,
      "start": 34.3582,
      "duration": 0.0166,
      "velocity": 93,
      "chip": "ym2612"
    },
    {
      "channel": 1,
      "note": 80,
      "start": 34.3595,
      "duration": 0.0166,
      "velocity": 98,
      "chip": "ym2612"
    },
    {
      "channel": 0,
      "note": 41,
      "start": 34.3698,
      "duration": 0.0179,
      "velocity": 115,
      "chip": "ym2612"
    },
    {
      "channel": 5,
      "note": 83,
      "start": 34.3713,
      "duration": 0.0177,
      "velocity": 98,
      "chip": "ym2612"
    },
    {
      "channel": 4,
      "note": 86,
      "start": 34.3724,
      "duration": 0.0178,
      "velocity": 86,
      "chip": "ym2612"
    },
    {
      "channel": 2,
      "note": 52,
      "start": 34.3749,
      "duration": 0.018,
      "velocity": 93,
      "chip": "ym2612"
    },
    {
      "channel": 1,
      "note": 80,
      "start": 34.3761,
      "duration": 0.0179,
      "velocity": 98,
      "chip": "ym2612"
    },
    {
      "channel": 0,
      "note": 36,
      "start": 34.3878,
      "duration": 0.0142,
      "velocity": 115,
      "chip": "ym2612"
    },
    {
      "channel": 5,
      "note": 83,
      "start": 34.389,
      "duration": 0.0143,
      "velocity": 98,
      "chip": "ym2612"
    },
    {
      "channel": 4,
      "note": 86,
      "start": 34.3902,
      "duration": 0.0142,
      "velocity": 86,
      "chip": "ym2612"
    },
    {
      "channel": 3,
      "note": 76,
      "start": 34.3917,
      "duration": 0.014,
      "velocity": 86,
      "chip": "ym2612"
    },
    {
      "channel": 2,
      "note": 52,
      "start": 34.3929,
      "duration": 0.014,
      "velocity": 93,
      "chip": "ym2612"
    },
    {
      "channel": 1,
      "note": 80,
      "start": 34.394,
      "duration": 0.014,
      "velocity": 98,
      "chip": "ym2612"
    },
    {
      "channel": 0,
      "note": 36,
      "start": 34.402,
      "duration": 0.0157,
      "velocity": 115,
      "chip": "ym2612"
    },
    {
      "channel": 4,
      "note": 86,
      "start": 34.4044,
      "duration": 0.0163,
      "velocity": 86,
      "chip": "ym2612"
    },
    {
      "channel": 3,
      "note": 76,
      "start": 34.4057,
      "duration": 0.0162,
      "velocity": 86,
      "chip": "ym2612"
    },
    {
      "channel": 2,
      "note": 52,
      "start": 34.4068,
      "duration": 0.0162,
      "velocity": 93,
      "chip": "ym2612"
    },
    {
      "channel": 1,
      "note": 80,
      "start": 34.408,
      "duration": 0.0163,
      "velocity": 98,
      "chip": "ym2612"
    },
    {
      "channel": 0,
      "note": 37,
      "start": 34.4177,
      "duration": 0.0159,
      "velocity": 115,
      "chip": "ym2612"
    },
    {
      "channel": 5,
      "note": 82,
      "start": 34.4196,
      "duration": 0.0158,
      "velocity": 98,
      "chip": "ym2612"
    },
    {
      "channel": 3,
      "note": 76,
      "start": 34.4219,
      "duration": 0.0161,
      "velocity": 86,
      "chip": "ym2612"
    },
    {
      "channel": 2,
      "note": 52,
      "start": 34.4231,
      "duration": 0.0162,
      "velocity": 93,
      "chip": "ym2612"
    },
    {
      "channel": 1,
      "note": 80,
      "start": 34.4243,
      "duration": 0.0162,
      "velocity": 98,
      "chip": "ym2612"
    },
    {
      "channel": 0,
      "note": 37,
      "start": 34.4336,
      "duration": 0.0161,
      "velocity": 115,
      "chip": "ym2612"
    },
    {
      "channel": 5,
      "note": 82,
      "start": 34.4353,
      "duration": 0.0157,
      "velocity": 98,
      "chip": "ym2612"
    },
    {
      "channel": 4,
      "note": 76,
      "start": 34.4369,
      "duration": 0.0158,
      "velocity": 86,
      "chip": "ym2612"
    },
    {
      "channel": 3,
      "note": 76,
      "start": 34.4381,
      "duration": 0.0158,
      "velocity": 86,
      "chip": "ym2612"
    },
    {
      "channel": 2,
      "note": 52,
      "start": 34.4393,
      "duration": 0.0159,
      "velocity": 93,
      "chip": "ym2612"
    },
    {
      "channel": 1,
      "note": 80,
      "start": 34.4404,
      "duration": 0.0158,
      "velocity": 98,
      "chip": "ym2612"
    },
    {
      "channel": 0,
      "note": 38,
      "start": 34.4497,
      "duration": 0.0161,
      "velocity": 115,
      "chip": "ym2612"
    },
    {
      "channel": 4,
      "note": 76,
      "start": 34.4527,
      "duration": 0.0163,
      "velocity": 86,
      "chip": "ym2612"
    },
    {
      "channel": 3,
      "note": 76,
      "start": 34.4539,
      "duration": 0.0163,
      "velocity": 86,
      "chip": "ym2612"
    },
    {
      "channel": 2,
      "note": 52,
      "start": 34.4551,
      "duration": 0.0163,
      "velocity": 93,
      "chip": "ym2612"
    },
    {
      "channel": 1,
      "note": 80,
      "start": 34.4563,
      "duration": 0.0163,
      "velocity": 98,
      "chip": "ym2612"
    },
    {
      "channel": 0,
      "note": 38,
      "start": 34.4658,
      "duration": 0.0179,
      "velocity": 124,
      "chip": "ym2612"
    },
    {
      "channel": 5,
      "note": 81,
      "start": 34.4675,
      "duration": 0.0181,
      "velocity": 98,
      "chip": "ym2612"
    },
    {
      "channel": 4,
      "note": 76,
      "start": 34.469,
      "duration": 0.0177,
      "velocity": 86,
      "chip": "ym2612"
    },
    {
      "channel": 2,
      "note": 52,
      "start": 34.4715,
      "duration": 0.0182,
      "velocity": 93,
      "chip": "ym2612"
    },
    {
      "channel": 1,
      "note": 80,
      "start": 34.4726,
      "duration": 0.0183,
      "velocity": 98,
      "chip": "ym2612"
    },
    {
      "channel": 0,
      "note": 84,
      "start": 34.4837,
      "duration": 0.0143,
      "velocity": 124,
      "chip": "ym2612"
    },
    {
      "channel": 5,
      "note": 81,
      "start": 34.4856,
      "duration": 0.0137,
      "velocity": 98,
      "chip": "ym2612"
    },
    {
      "channel": 4,
      "note": 76,
      "start": 34.4867,
      "duration": 0.0137,
      "velocity": 86,
      "chip": "ym2612"
    },
    {
      "channel": 3,
      "note": 80,
      "start": 34.4883,
      "duration": 0.014,
      "velocity": 86,
      "chip": "ym2612"
    },
    {
      "channel": 2,
      "note": 52,
      "start": 34.4897,
      "duration": 0.0138,
      "velocity": 93,
      "chip": "ym2612"
    },
    {
      "channel": 1,
      "note": 80,
      "start": 34.4909,
      "duration": 0.0138,
      "velocity": 98,
      "chip": "ym2612"
    },
    {
      "channel": 0,
      "note": 82,
      "start": 34.4981,
      "duration": 0.016,
      "velocity": 124,
      "chip": "ym2612"
    },
    {
      "channel": 4,
      "note": 76,
      "start": 34.5004,
      "duration": 0.0165,
      "velocity": 86,
      "chip": "ym2612"
    },
    {
      "channel": 3,
      "note": 80,
      "start": 34.5023,
      "duration": 0.0163,
      "velocity": 86,
      "chip": "ym2612"
    },
    {
      "channel": 2,
      "note": 52,
      "start": 34.5035,
      "duration": 0.0163,
      "velocity": 93,
      "chip": "ym2612"
    },
    {
      "channel": 1,
      "note": 80,
      "start": 34.5047,
      "duration": 0.0163,
      "velocity": 98,
      "chip": "ym2612"
    },
    {
      "channel": 0,
      "note": 80,
      "start": 34.5141,
      "duration": 0.0161,
      "velocity": 124,
      "chip": "ym2612"
    },
    {
      "channel": 5,
      "note": 80,
      "start": 34.5157,
      "duration": 0.0158,
      "velocity": 98,
      "chip": "ym2612"
    },
    {
      "channel": 3,
      "note": 80,
      "start": 34.5186,
      "duration": 0.0157,
      "velocity": 86,
      "chip": "ym2612"
    },
    {
      "channel": 2,
      "note": 52,
      "start": 34.5198,
      "duration": 0.016,
      "velocity": 93,
      "chip": "ym2612"
    },
    {
      "channel": 1,
      "note": 80,
      "start": 34.521,
      "duration": 0.016,
      "velocity": 98,
      "chip": "ym2612"
    },
    {
      "channel": 0,
      "note": 77,
      "start": 34.5302,
      "duration": 0.0161,
      "velocity": 124,
      "chip": "ym2612"
    },
    {
      "channel": 5,
      "note": 80,
      "start": 34.5315,
      "duration": 0.016,
      "velocity": 98,
      "chip": "ym2612"
    },
    {
      "channel": 4,
      "note": 80,
      "start": 34.5329,
      "duration": 0.0158,
      "velocity": 86,
      "chip": "ym2612"
    },
    {
      "channel": 3,
      "note": 80,
      "start": 34.5343,
      "duration": 0.0156,
      "velocity": 86,
      "chip": "ym2612"
    },
    {
      "channel": 2,
      "note": 52,
      "start": 34.5359,
      "duration": 0.0158,
      "velocity": 93,
      "chip": "ym2612"
    },
    {
      "channel": 1,
      "note": 80,
      "start": 34.537,
      "duration": 0.0159,
      "velocity": 98,
      "chip": "ym2612"
    },
    {
      "channel": 0,
      "note": 75,
      "start": 34.5463,
      "duration": 0.0161,
      "velocity": 124,
      "chip": "ym2612"
    },
    {
      "channel": 5,
      "note": 80,
      "start": 34.5475,
      "duration": 0.0161,
      "velocity": 98,
      "chip": "ym2612"
    },
    {
      "channel": 4,
      "note": 80,
      "start": 34.5487,
      "duration": 0.016,
      "velocity": 86,
      "chip": "ym2612"
    },
    {
      "channel": 3,
      "note": 80,
      "start": 34.5499,
      "duration": 0.016,
      "velocity": 86,
      "chip": "ym2612"
    },
    {
      "channel": 2,
      "note": 52,
      "start": 34.5516,
      "duration": 0.0154,
      "velocity": 93,
      "chip": "ym2612"
    },
    {
      "channel": 1,
      "note": 80,
      "start": 34.5528,
      "duration": 0.016,
      "velocity": 98,
      "chip": "ym2612"
    },
    {
      "channel": 0,
      "note": 72,
      "start": 34.5624,
      "duration": 0.0161,
      "velocity": 124,
      "chip": "ym2612"
    },
    {
      "channel": 5,
      "note": 80,
      "start": 34.5636,
      "duration": 0.0161,
      "velocity": 98,
      "chip": "ym2612"
    },
    {
      "channel": 4,
      "note": 80,
      "start": 34.5647,
      "duration": 0.0161,
      "velocity": 86,
      "chip": "ym2612"
    },
    {
      "channel": 3,
      "note": 80,
      "start": 34.5659,
      "duration": 0.0161,
      "velocity": 86,
      "chip": "ym2612"
    },
    {
      "channel": 2,
      "note": 52,
      "start": 34.5671,
      "duration": 0.0162,
      "velocity": 93,
      "chip": "ym2612"
    },
    {
      "channel": 1,
      "note": 80,
      "start": 34.5689,
      "duration": 0.016,
      "velocity": 98,
      "chip": "ym2612"
    },
    {
      "channel": 0,
      "note": 70,
      "start": 34.5785,
      "duration": 0.0161,
      "velocity": 124,
      "chip": "ym2612"
    },
    {
      "channel": 5,
      "note": 80,
      "start": 34.5797,
      "duration": 0.0161,
      "velocity": 98,
      "chip": "ym2612"
    },
    {
      "channel": 4,
      "note": 80,
      "start": 34.5809,
      "duration": 0.016,
      "velocity": 86,
      "chip": "ym2612"
    },
    {
      "channel": 3,
      "note": 80,
      "start": 34.582,
      "duration": 0.0161,
      "velocity": 86,
      "chip": "ym2612"
    },
    {
      "channel": 2,
      "note": 52,
      "start": 34.5832,
      "duration": 0.0161,
      "velocity": 93,
      "chip": "ym2612"
    },
    {
      "channel": 1,
      "note": 80,
      "start": 34.5849,
      "duration": 0.0156,
      "velocity": 98,
      "chip": "ym2612"
    },
    {
      "channel": 0,
      "note": 68,
      "start": 34.5946,
      "duration": 0.0161,
      "velocity": 124,
      "chip": "ym2612"
    },
    {
      "channel": 5,
      "note": 80,
      "start": 34.5958,
      "duration": 0.0161,
      "velocity": 98,
      "chip": "ym2612"
    },
    {
      "channel": 4,
      "note": 80,
      "start": 34.5969,
      "duration": 0.0161,
      "velocity": 86,
      "chip": "ym2612"
    },
    {
      "channel": 3,
      "note": 80,
      "start": 34.5981,
      "duration": 0.0161,
      "velocity": 86,
      "chip": "ym2612"
    },
    {
      "channel": 2,
      "note": 52,
      "start": 34.5993,
      "duration": 0.0161,
      "velocity": 93,
      "chip": "ym2612"
    },
    {
      "channel": 1,
      "note": 80,
      "start": 34.6005,
      "duration": 0.0161,
      "velocity": 98,
      "chip": "ym2612"
    },
    {
      "channel": 0,
      "note": 65,
      "start": 34.6107,
      "duration": 0.0161,
      "velocity": 124,
      "chip": "ym2612"
    },
    {
      "channel": 5,
      "note": 80,
      "start": 34.6119,
      "duration": 0.0162,
      "velocity": 98,
      "chip": "ym2612"
    },
    {
      "channel": 4,
      "note": 80,
      "start": 34.613,
      "duration": 0.0161,
      "velocity": 86,
      "chip": "ym2612"
    },
    {
      "channel": 3,
      "note": 80,
      "start": 34.6142,
      "duration": 0.0162,
      "velocity": 86,
      "chip": "ym2612"
    },
    {
      "channel": 2,
      "note": 52,
      "start": 34.6154,
      "duration": 0.0162,
      "velocity": 93,
      "chip": "ym2612"
    },
    {
      "channel": 1,
      "note": 80,
      "start": 34.6166,
      "duration": 0.0162,
      "velocity": 98,
      "chip": "ym2612"
    },
    {
      "channel": 0,
      "note": 63,
      "start": 34.6268,
      "duration": 0.0153,
      "velocity": 1,
      "chip": "ym2612"
    },
    {
      "channel": 5,
      "note": 80,
      "start": 34.628,
      "duration": 0.0153,
      "velocity": 98,
      "chip": "ym2612"
    },
    {
      "channel": 4,
      "note": 80,
      "start": 34.6292,
      "duration": 0.0153,
      "velocity": 86,
      "chip": "ym2612"
    },
    {
      "channel": 3,
      "note": 80,
      "start": 34.6304,
      "duration": 0.0153,
      "velocity": 86,
      "chip": "ym2612"
    },
    {
      "channel": 2,
      "note": 52,
      "start": 34.6317,
      "duration": 0.0152,
      "velocity": 93,
      "chip": "ym2612"
    },
    {
      "channel": 1,
      "note": 80,
      "start": 34.6328,
      "duration": 0.0153,
      "velocity": 98,
      "chip": "ym2612"
    },
    {
      "channel": 5,
      "note": 80,
      "start": 34.6433,
      "duration": 0.0152,
      "velocity": 98,
      "chip": "ym2612"
    },
    {
      "channel": 4,
      "note": 80,
      "start": 34.6444,
      "duration": 0.0153,
      "velocity": 86,
      "chip": "ym2612"
    },
    {
      "channel": 3,
      "note": 80,
      "start": 34.6456,
      "duration": 0.0153,
      "velocity": 86,
      "chip": "ym2612"
    },
    {
      "channel": 2,
      "note": 52,
      "start": 34.6468,
      "duration": 0.0153,
      "velocity": 93,
      "chip": "ym2612"
    },
    {
      "channel": 1,
      "note": 80,
      "start": 34.6481,
      "duration": 0.0153,
      "velocity": 98,
      "chip": "ym2612"
    },
    {
      "channel": 5,
      "note": 80,
      "start": 34.6585,
      "duration": 0.0161,
      "velocity": 98,
      "chip": "ym2612"
    },
    {
      "channel": 4,
      "note": 80,
      "start": 34.6597,
      "duration": 0.0161,
      "velocity": 86,
      "chip": "ym2612"
    },
    {
      "channel": 2,
      "note": 52,
      "start": 34.6621,
      "duration": 0.0163,
      "velocity": 93,
      "chip": "ym2612"
    },
    {
      "channel": 1,
      "note": 80,
      "start": 34.6633,
      "duration": 0.0163,
      "velocity": 98,
      "chip": "ym2612"
    },
    {
      "channel": 5,
      "note": 80,
      "start": 34.6746,
      "duration": 0.0161,
      "velocity": 98,
      "chip": "ym2612"
    },
    {
      "channel": 4,
      "note": 80,
      "start": 34.6758,
      "duration": 0.0161,
      "velocity": 86,
      "chip": "ym2612"
    },
    {
      "channel": 3,
      "note": 86,
      "start": 34.6773,
      "duration": 0.0159,
      "velocity": 86,
      "chip": "ym2612"
    },
    {
      "channel": 2,
      "note": 52,
      "start": 34.6785,
      "duration": 0.0158,
      "velocity": 93,
      "chip": "ym2612"
    },
    {
      "channel": 1,
      "note": 80,
      "start": 34.6796,
      "duration": 0.0159,
      "velocity": 98,
      "chip": "ym2612"
    },
    {
      "channel": 5,
      "note": 80,
      "start": 34.6907,
      "duration": 0.0162,
      "velocity": 98,
      "chip": "ym2612"
    },
    {
      "channel": 4,
      "note": 80,
      "start": 34.6919,
      "duration": 0.0161,
      "velocity": 86,
      "chip": "ym2612"
    },
    {
      "channel": 3,
      "note": 86,
      "start": 34.6932,
      "duration": 0.016,
      "velocity": 86,
      "chip": "ym2612"
    },
    {
      "channel": 2,
      "note": 52,
      "start": 34.6943,
      "duration": 0.016,
      "velocity": 93,
      "chip": "ym2612"
    },
    {
      "channel": 1,
      "note": 80,
      "start": 34.6955,
      "duration": 0.0161,
      "velocity": 98,
      "chip": "ym2612"
    },
    {
      "channel": 5,
      "note": 80,
      "start": 34.7068,
      "duration": 0.0161,
      "velocity": 98,
      "chip": "ym2612"
    },
    {
      "channel": 3,
      "note": 86,
      "start": 34.7092,
      "duration": 0.0164,
      "velocity": 86,
      "chip": "ym2612"
    },
    {
      "channel": 2,
      "note": 52,
      "start": 34.7103,
      "duration": 0.0164,
      "velocity": 93,
      "chip": "ym2612"
    },
    {
      "channel": 1,
      "note": 80,
      "start": 34.7115,
      "duration": 0.0163,
      "velocity": 98,
      "chip": "ym2612"
    },
    {
      "channel": 5,
      "note": 80,
      "start": 34.7229,
      "duration": 0.0161,
      "velocity": 98,
      "chip": "ym2612"
    },
    {
      "channel": 4,
      "note": 86,
      "start": 34.7244,
      "duration": 0.0159,
      "velocity": 86,
      "chip": "ym2612"
    },
    {
      "channel": 3,
      "note": 86,
      "start": 34.7256,
      "duration": 0.0158,
      "velocity": 86,
      "chip": "ym2612"
    },
    {
      "channel": 2,
      "note": 52,
      "start": 34.7268,
      "duration": 0.0159,
      "velocity": 93,
      "chip": "ym2612"
    },
    {
      "channel": 1,
      "note": 80,
      "start": 34.7279,
      "duration": 0.0159,
      "velocity": 98,
      "chip": "ym2612"
    },
    {
      "channel": 5,
      "note": 80,
      "start": 34.739,
      "duration": 0.0161,
      "velocity": 98,
      "chip": "ym2612"
    },
    {
      "channel": 4,
      "note": 86,
      "start": 34.7402,
      "duration": 0.016,
      "velocity": 86,
      "chip": "ym2612"
    },
    {
      "channel": 3,
      "note": 86,
      "start": 34.7414,
      "duration": 0.0161,
      "velocity": 86,
      "chip": "ym2612"
    },
    {
      "channel": 2,
      "note": 52,
      "start": 34.7427,
      "duration": 0.016,
      "velocity": 93,
      "chip": "ym2612"
    },
    {
      "channel": 1,
      "note": 80,
      "start": 34.7438,
      "duration": 0.0161,
      "velocity": 98,
      "chip": "ym2612"
    },
    {
      "channel": 5,
      "note": 80,
      "start": 34.7551,
      "duration": 0.0197,
      "velocity": 98,
      "chip": "ym2612"
    },
    {
      "channel": 4,
      "note": 86,
      "start": 34.7563,
      "duration": 0.0197,
      "velocity": 86,
      "chip": "ym2612"
    },
    {
      "channel": 3,
      "note": 86,
      "start": 34.7575,
      "duration": 0.0197,
      "velocity": 86,
      "chip": "ym2612"
    },
    {
      "channel": 2,
      "note": 52,
      "start": 34.7587,
      "duration": 0.0198,
      "velocity": 93,
      "chip": "ym2612"
    },
    {
      "channel": 0,
      "note": 36,
      "start": 34.7736,
      "duration": 0.0144,
      "velocity": 115,
      "chip": "ym2612"
    },
    {
      "channel": 5,
      "note": 80,
      "start": 34.7748,
      "duration": 0.0144,
      "velocity": 98,
      "chip": "ym2612"
    },
    {
      "channel": 4,
      "note": 86,
      "start": 34.7759,
      "duration": 0.0144,
      "velocity": 86,
      "chip": "ym2612"
    },
    {
      "channel": 3,
      "note": 86,
      "start": 34.7771,
      "duration": 0.0144,
      "velocity": 86,
      "chip": "ym2612"
    },
    {
      "channel": 2,
      "note": 57,
      "start": 34.7786,
      "duration": 0.0141,
      "velocity": 93,
      "chip": "ym2612"
    },
    {
      "channel": 1,
      "note": 78,
      "start": 34.7801,
      "duration": 0.0139,
      "velocity": 98,
      "chip": "ym2612"
    },
    {
      "channel": 0,
      "note": 36,
      "start": 34.788,
      "duration": 0.016,
      "velocity": 115,
      "chip": "ym2612"
    },
    {
      "channel": 5,
      "note": 80,
      "start": 34.7892,
      "duration": 0.016,
      "velocity": 98,
      "chip": "ym2612"
    },
    {
      "channel": 4,
      "note": 86,
      "start": 34.7903,
      "duration": 0.016,
      "velocity": 86,
      "chip": "ym2612"
    },
    {
      "channel": 3,
      "note": 86,
      "start": 34.7915,
      "duration": 0.016,
      "velocity": 86,
      "chip": "ym2612"
    },
    {
      "channel": 2,
      "note": 57,
      "start": 34.7927,
      "duration": 0.016,
      "velocity": 93,
      "chip": "ym2612"
    },
    {
      "channel": 1,
      "note": 78,
      "start": 34.7939,
      "duration": 0.0159,
      "velocity": 98,
      "chip": "ym2612"
    },
    {
      "channel": 0,
      "note": 37,
      "start": 34.804,
      "duration": 0.0162,
      "velocity": 115,
      "chip": "ym2612"
    },
    {
      "channel": 5,
      "note": 80,
      "start": 34.8052,
      "duration": 0.0161,
      "velocity": 98,
      "chip": "ym2612"
    },
    {
      "channel": 4,
      "note": 86,
      "start": 34.8063,
      "duration": 0.0162,
      "velocity": 86,
      "chip": "ym2612"
    },
    {
      "channel": 3,
      "note": 86,
      "start": 34.8076,
      "duration": 0.0162,
      "velocity": 86,
      "chip": "ym2612"
    },
    {
      "channel": 2,
      "note": 57,
      "start": 34.8087,
      "duration": 0.0162,
      "velocity": 93,
      "chip": "ym2612"
    },
    {
      "channel": 1,
      "note": 78,
      "start": 34.8098,
      "duration": 0.0162,
      "velocity": 98,
      "chip": "ym2612"
    },
    {
      "channel": 0,
      "note": 37,
      "start": 34.8202,
      "duration": 0.0163,
      "velocity": 115,
      "chip": "ym2612"
    },
    {
      "channel": 5,
      "note": 80,
      "start": 34.8213,
      "duration": 0.0163,
      "velocity": 98,
      "chip": "ym2612"
    },
    {
      "channel": 4,
      "note": 86,
      "start": 34.8226,
      "duration": 0.0163,
      "velocity": 86,
      "chip": "ym2612"
    },
    {
      "channel": 3,
      "note": 86,
      "start": 34.8238,
      "duration": 0.0163,
      "velocity": 86,
      "chip": "ym2612"
    },
    {
      "channel": 2,
      "note": 57,
      "start": 34.8249,
      "duration": 0.0163,
      "velocity": 93,
      "chip": "ym2612"
    },
    {
      "channel": 1,
      "note": 78,
      "start": 34.8261,
      "duration": 0.0163,
      "velocity": 98,
      "chip": "ym2612"
    },
    {
      "channel": 0,
      "note": 38,
      "start": 34.8366,
      "duration": 0.0163,
      "velocity": 115,
      "chip": "ym2612"
    },
    {
      "channel": 5,
      "note": 80,
      "start": 34.8377,
      "duration": 0.0163,
      "velocity": 98,
      "chip": "ym2612"
    },
    {
      "channel": 4,
      "note": 86,
      "start": 34.8388,
      "duration": 0.0163,
      "velocity": 86,
      "chip": "ym2612"
    },
    {
      "channel": 3,
      "note": 86,
      "start": 34.84,
      "duration": 0.0163,
      "velocity": 86,
      "chip": "ym2612"
    },
    {
      "channel": 2,
      "note": 57,
      "start": 34.8412,
      "duration": 0.0163,
      "velocity": 93,
      "chip": "ym2612"
    },
    {
      "channel": 1,
      "note": 78,
      "start": 34.8424,
      "duration": 0.0163,
      "velocity": 98,
      "chip": "ym2612"
    },
    {
      "channel": 0,
      "note": 38,
      "start": 34.8528,
      "duration": 0.0161,
      "velocity": 115,
      "chip": "ym2612"
    },
    {
      "channel": 5,
      "note": 80,
      "start": 34.854,
      "duration": 0.0162,
      "velocity": 98,
      "chip": "ym2612"
    },
    {
      "channel": 4,
      "note": 86,
      "start": 34.8552,
      "duration": 0.0161,
      "velocity": 86,
      "chip": "ym2612"
    },
    {
      "channel": 3,
      "note": 86,
      "start": 34.8564,
      "duration": 0.0161,
      "velocity": 86,
      "chip": "ym2612"
    },
    {
      "channel": 2,
      "note": 57,
      "start": 34.8576,
      "duration": 0.0161,
      "velocity": 93,
      "chip": "ym2612"
    },
    {
      "channel": 1,
      "note": 78,
      "start": 34.8587,
      "duration": 0.0162,
      "velocity": 98,
      "chip": "ym2612"
    },
    {
      "channel": 0,
      "note": 39,
      "start": 34.8689,
      "duration": 0.016,
      "velocity": 115,
      "chip": "ym2612"
    },
    {
      "channel": 5,
      "note": 80,
      "start": 34.8701,
      "duration": 0.016,
      "velocity": 98,
      "chip": "ym2612"
    },
    {
      "channel": 4,
      "note": 86,
      "start": 34.8713,
      "duration": 0.0161,
      "velocity": 86,
      "chip": "ym2612"
    },
    {
      "channel": 3,
      "note": 86,
      "start": 34.8725,
      "duration": 0.0161,
      "velocity": 86,
      "chip": "ym2612"
    },
    {
      "channel": 2,
      "note": 57,
      "start": 34.8736,
      "duration": 0.0161,
      "velocity": 93,
      "chip": "ym2612"
    },
    {
      "channel": 1,
      "note": 78,
      "start": 34.8749,
      "duration": 0.016,
      "velocity": 98,
      "chip": "ym2612"
    },
    {
      "channel": 0,
      "note": 39,
      "start": 34.885,
      "duration": 0.0156,
      "velocity": 115,
      "chip": "ym2612"
    },
    {
      "channel": 5,
      "note": 80,
      "start": 34.8862,
      "duration": 0.0161,
      "velocity": 98,
      "chip": "ym2612"
    },
    {
      "channel": 4,
      "note": 86,
      "start": 34.8874,
      "duration": 0.0161,
      "velocity": 86,
      "chip": "ym2612"
    },
    {
      "channel": 3,
      "note": 86,
      "start": 34.8886,
      "duration": 0.0161,
      "velocity": 86,
      "chip": "ym2612"
    },
    {
      "channel": 2,
      "note": 57,
      "start": 34.8897,
      "duration": 0.0161,
      "velocity": 93,
      "chip": "ym2612"
    },
    {
      "channel": 1,
      "note": 78,
      "start": 34.8909,
      "duration": 0.0161,
      "velocity": 98,
      "chip": "ym2612"
    },
    {
      "channel": 0,
      "note": 40,
      "start": 34.9005,
      "duration": 0.0161,
      "velocity": 115,
      "chip": "ym2612"
    },
    {
      "channel": 5,
      "note": 80,
      "start": 34.9023,
      "duration": 0.0161,
      "velocity": 98,
      "chip": "ym2612"
    },
    {
      "channel": 4,
      "note": 86,
      "start": 34.9035,
      "duration": 0.0161,
      "velocity": 86,
      "chip": "ym2612"
    },
    {
      "channel": 3,
      "note": 86,
      "start": 34.9047,
      "duration": 0.0161,
      "velocity": 86,
      "chip": "ym2612"
    },
    {
      "channel": 2,
      "note": 57,
      "start": 34.9058,
      "duration": 0.0162,
      "velocity": 93,
      "chip": "ym2612"
    },
    {
      "channel": 1,
      "note": 78,
      "start": 34.907,
      "duration": 0.0162,
      "velocity": 98,
      "chip": "ym2612"
    },
    {
      "channel": 0,
      "note": 40,
      "start": 34.9166,
      "duration": 0.0161,
      "velocity": 115,
      "chip": "ym2612"
    },
    {
      "channel": 5,
      "note": 80,
      "start": 34.9183,
      "duration": 0.0156,
      "velocity": 98,
      "chip": "ym2612"
    },
    {
      "channel": 4,
      "note": 86,
      "start": 34.9196,
      "duration": 0.0161,
      "velocity": 86,
      "chip": "ym2612"
    },
    {
      "channel": 3,
      "note": 86,
      "start": 34.9208,
      "duration": 0.0161,
      "velocity": 86,
      "chip": "ym2612"
    },
    {
      "channel": 2,
      "note": 57,
      "start": 34.922,
      "duration": 0.016,
      "velocity": 93,
      "chip": "ym2612"
    },
    {
      "channel": 1,
      "note": 78,
      "start": 34.9232,
      "duration": 0.0161,
      "velocity": 98,
      "chip": "ym2612"
    },
    {
      "channel": 0,
      "note": 40,
      "start": 34.9327,
      "duration": 0.0161,
      "velocity": 115,
      "chip": "ym2612"
    },
    {
      "channel": 5,
      "note": 80,
      "start": 34.9339,
      "duration": 0.0161,
      "velocity": 98,
      "chip": "ym2612"
    },
    {
      "channel": 4,
      "note": 86,
      "start": 34.9357,
      "duration": 0.016,
      "velocity": 86,
      "chip": "ym2612"
    },
    {
      "channel": 3,
      "note": 86,
      "start": 34.9369,
      "duration": 0.0161,
      "velocity": 86,
      "chip": "ym2612"
    },
    {
      "channel": 2,
      "note": 57,
      "start": 34.9381,
      "duration": 0.0162,
      "velocity": 93,
      "chip": "ym2612"
    },
    {
      "channel": 1,
      "note": 78,
      "start": 34.9393,
      "duration": 0.0161,
      "velocity": 98,
      "chip": "ym2612"
    },
    {
      "channel": 0,
      "note": 41,
      "start": 34.9488,
      "duration": 0.0161,
      "velocity": 115,
      "chip": "ym2612"
    },
    {
      "channel": 5,
      "note": 80,
      "start": 34.95,
      "duration": 0.0161,
      "velocity": 98,
      "chip": "ym2612"
    },
    {
      "channel": 4,
      "note": 86,
      "start": 34.9517,
      "duration": 0.0155,
      "velocity": 86,
      "chip": "ym2612"
    },
    {
      "channel": 2,
      "note": 57,
      "start": 34.9542,
      "duration": 0.0163,
      "velocity": 93,
      "chip": "ym2612"
    },
    {
      "channel": 1,
      "note": 78,
      "start": 34.9554,
      "duration": 0.0163,
      "velocity": 98,
      "chip": "ym2612"
    },
    {
      "channel": 0,
      "note": 41,
      "start": 34.9649,
      "duration": 0.0162,
      "velocity": 115,
      "chip": "ym2612"
    },
    {
      "channel": 5,
      "note": 80,
      "start": 34.9661,
      "duration": 0.0161,
      "velocity": 98,
      "chip": "ym2612"
    },
    {
      "channel": 4,
      "note": 86,
      "start": 34.9673,
      "duration": 0.0161,
      "velocity": 86,
      "chip": "ym2612"
    },
    {
      "channel": 3,
      "note": 76,
      "start": 34.9694,
      "duration": 0.0158,
      "velocity": 86,
      "chip": "ym2612"
    },
    {
      "channel": 2,
      "note": 57,
      "start": 34.9706,
      "duration": 0.0158,
      "velocity": 93,
      "chip": "ym2612"
    },
    {
      "channel": 1,
      "note": 78,
      "start": 34.9717,
      "duration": 0.0159,
      "velocity": 98,
      "chip": "ym2612"
    },
    {
      "channel": 0,
      "note": 42,
      "start": 34.9811,
      "duration": 0.0161,
      "velocity": 115,
      "chip": "ym2612"
    },
    {
      "channel": 5,
      "note": 80,
      "start": 34.9822,
      "duration": 0.0161,
      "velocity": 98,
      "chip": "ym2612"
    },
    {
      "channel": 4,
      "note": 86,
      "start": 34.9834,
      "duration": 0.0161,
      "velocity": 86,
      "chip": "ym2612"
    },
    {
      "channel": 3,
      "note": 76,
      "start": 34.9851,
      "duration": 0.0155,
      "velocity": 86,
      "chip": "ym2612"
    },
    {
      "channel": 2,
      "note": 57,
      "start": 34.9863,
      "duration": 0.0161,
      "velocity": 93,
      "chip": "ym2612"
    },
    {
      "channel": 1,
      "note": 78,
      "start": 34.9876,
      "duration": 0.016,
      "velocity": 98,
      "chip": "ym2612"
    },
    {
      "channel": 0,
      "note": 42,
      "start": 34.9972,
      "duration": 0.0161,
      "velocity": 115,
      "chip": "ym2612"
    },
    {
      "channel": 5,
      "note": 80,
      "start": 34.9983,
      "duration": 0.0161,
      "velocity": 98,
      "chip": "ym2612"
    },
    {
      "channel": 3,
      "note": 76,
      "start": 35.0007,
      "duration": 0.0164,
      "velocity": 86,
      "chip": "ym2612"
    },
    {
      "channel": 2,
      "note": 57,
      "start": 35.0024,
      "duration": 0.0163,
      "velocity": 93,
      "chip": "ym2612"
    },
    {
      "channel": 1,
      "note": 78,
      "start": 35.0036,
      "duration": 0.0164,
      "velocity": 98,
      "chip": "ym2612"
    },
    {
      "channel": 0,
      "note": 43,
      "start": 35.0133,
      "duration": 0.0161,
      "velocity": 115,
      "chip": "ym2612"
    },
    {
      "channel": 5,
      "note": 80,
      "start": 35.0144,
      "duration": 0.0161,
      "velocity": 98,
      "chip": "ym2612"
    },
    {
      "channel": 4,
      "note": 76,
      "start": 35.0159,
      "duration": 0.0158,
      "velocity": 86,
      "chip": "ym2612"
    },
    {
      "channel": 3,
      "note": 76,
      "start": 35.0171,
      "duration": 0.0159,
      "velocity": 86,
      "chip": "ym2612"
    },
    {
      "channel": 2,
      "note": 57,
      "start": 35.0188,
      "duration": 0.0155,
      "velocity": 93,
      "chip": "ym2612"
    },
    {
      "channel": 1,
      "note": 78,
      "start": 35.02,
      "duration": 0.0159,
      "velocity": 98,
      "chip": "ym2612"
    },
    {
      "channel": 0,
      "note": 43,
      "start": 35.0294,
      "duration": 0.0161,
      "velocity": 115,
      "chip": "ym2612"
    },
    {
      "channel": 5,
      "note": 80,
      "start": 35.0305,
      "duration": 0.0161,
      "velocity": 98,
      "chip": "ym2612"
    },
    {
      "channel": 4,
      "note": 76,
      "start": 35.0317,
      "duration": 0.0161,
      "velocity": 86,
      "chip": "ym2612"
    },
    {
      "channel": 3,
      "note": 76,
      "start": 35.0329,
      "duration": 0.016,
      "velocity": 86,
      "chip": "ym2612"
    },
    {
      "channel": 2,
      "note": 57,
      "start": 35.0343,
      "duration": 0.0159,
      "velocity": 93,
      "chip": "ym2612"
    },
    {
      "channel": 1,
      "note": 78,
      "start": 35.0359,
      "duration": 0.016,
      "velocity": 98,
      "chip": "ym2612"
    },
    {
      "channel": 0,
      "note": 44,
      "start": 35.0455,
      "duration": 0.0179,
      "velocity": 124,
      "chip": "ym2612"
    },
    {
      "channel": 5,
      "note": 80,
      "start": 35.0466,
      "duration": 0.0179,
      "velocity": 98,
      "chip": "ym2612"
    },
    {
      "channel": 4,
      "note": 76,
      "start": 35.0478,
      "duration": 0.0179,
      "velocity": 86,
      "chip": "ym2612"
    },
    {
      "channel": 2,
      "note": 57,
      "start": 35.0502,
      "duration": 0.019,
      "velocity": 93,
      "chip": "ym2612"
    },
    {
      "channel": 1,
      "note": 78,
      "start": 35.0519,
      "duration": 0.0186,
      "velocity": 98,
      "chip": "ym2612"
    },
    {
      "channel": 0,
      "note": 84,
      "start": 35.0634,
      "duration": 0.0143,
      "velocity": 124,
      "chip": "ym2612"
    },
    {
      "channel": 5,
      "note": 80,
      "start": 35.0645,
      "duration": 0.0144,
      "velocity": 98,
      "chip": "ym2612"
    },
    {
      "channel": 4,
      "note": 76,
      "start": 35.0657,
      "duration": 0.0143,
      "velocity": 86,
      "chip": "ym2612"
    },
    {
      "channel": 3,
      "note": 81,
      "start": 35.0672,
      "duration": 0.0141,
      "velocity": 86,
      "chip": "ym2612"
    },
    {
      "channel": 2,
      "note": 57,
      "start": 35.0693,
      "duration": 0.0133,
      "velocity": 93,
      "chip": "ym2612"
    },
    {
      "channel": 1,
      "note": 78,
      "start": 35.0705,
      "duration": 0.0132,
      "velocity": 98,
      "chip": "ym2612"
    },
    {
      "channel": 0,
      "note": 82,
      "start": 35.0777,
      "duration": 0.016,
      "velocity": 124,
      "chip": "ym2612"
    },
    {
      "channel": 4,
      "note": 76,
      "start": 35.0801,
      "duration": 0.0163,
      "velocity": 86,
      "chip": "ym2612"
    },
    {
      "channel": 3,
      "note": 81,
      "start": 35.0813,
      "duration": 0.0163,
      "velocity": 86,
      "chip": "ym2612"
    },
    {
      "channel": 2,
      "note": 57,
      "start": 35.0825,
      "duration": 0.0162,
      "velocity": 93,
      "chip": "ym2612"
    },
    {
      "channel": 1,
      "note": 78,
      "start": 35.0837,
      "duration": 0.0162,
      "velocity": 98,
      "chip": "ym2612"
    },
    {
      "channel": 0,
      "note": 80,
      "start": 35.0937,
      "duration": 0.0161,
      "velocity": 124,
      "chip": "ym2612"
    },
    {
      "channel": 5,
      "note": 78,
      "start": 35.0952,
      "duration": 0.0159,
      "velocity": 98,
      "chip": "ym2612"
    },
    {
      "channel": 3,
      "note": 81,
      "start": 35.0976,
      "duration": 0.0161,
      "velocity": 86,
      "chip": "ym2612"
    },
    {
      "channel": 2,
      "note": 57,
      "start": 35.0988,
      "duration": 0.0162,
      "velocity": 93,
      "chip": "ym2612"
    },
    {
      "channel": 1,
      "note": 78,
      "start": 35.0999,
      "duration": 0.0161,
      "velocity": 98,
      "chip": "ym2612"
    },
    {
      "channel": 0,
      "note": 77,
      "start": 35.1098,
      "duration": 0.0161,
      "velocity": 124,
      "chip": "ym2612"
    },
    {
      "channel": 5,
      "note": 78,
      "start": 35.1111,
      "duration": 0.016,
      "velocity": 98,
      "chip": "ym2612"
    },
    {
      "channel": 4,
      "note": 81,
      "start": 35.1126,
      "duration": 0.0158,
      "velocity": 86,
      "chip": "ym2612"
    },
    {
      "channel": 3,
      "note": 81,
      "start": 35.1137,
      "duration": 0.0158,
      "velocity": 86,
      "chip": "ym2612"
    },
    {
      "channel": 2,
      "note": 57,
      "start": 35.1149,
      "duration": 0.0158,
      "velocity": 93,
      "chip": "ym2612"
    },
    {
      "channel": 1,
      "note": 78,
      "start": 35.1161,
      "duration": 0.0158,
      "velocity": 98,
      "chip": "ym2612"
    },
    {
      "channel": 0,
      "note": 75,
      "start": 35.126,
      "duration": 0.0161,
      "velocity": 124,
      "chip": "ym2612"
    },
    {
      "channel": 5,
      "note": 78,
      "start": 35.1271,
      "duration": 0.0161,
      "velocity": 98,
      "chip": "ym2612"
    },
    {
      "channel": 4,
      "note": 81,
      "start": 35.1283,
      "duration": 0.016,
      "velocity": 86,
      "chip": "ym2612"
    },
    {
      "channel": 3,
      "note": 81,
      "start": 35.1295,
      "duration": 0.0161,
      "velocity": 86,
      "chip": "ym2612"
    },
    {
      "channel": 2,
      "note": 57,
      "start": 35.1307,
      "duration": 0.016,
      "velocity": 93,
      "chip": "ym2612"
    },
    {
      "channel": 1,
      "note": 78,
      "start": 35.1318,
      "duration": 0.016,
      "velocity": 98,
      "chip": "ym2612"
    },
    {
      "channel": 0,
      "note": 72,
      "start": 35.1421,
      "duration": 0.0161,
      "velocity": 124,
      "chip": "ym2612"
    },
    {
      "channel": 5,
      "note": 78,
      "start": 35.1432,
      "duration": 0.0161,
      "velocity": 98,
      "chip": "ym2612"
    },
    {
      "channel": 4,
      "note": 81,
      "start": 35.1444,
      "duration": 0.0161,
      "velocity": 86,
      "chip": "ym2612"
    },
    {
      "channel": 3,
      "note": 81,
      "start": 35.1456,
      "duration": 0.0161,
      "velocity": 86,
      "chip": "ym2612"
    },
    {
      "channel": 2,
      "note": 57,
      "start": 35.1467,
      "duration": 0.0161,
      "velocity": 93,
      "chip": "ym2612"
    },
    {
      "channel": 1,
      "note": 78,
      "start": 35.1479,
      "duration": 0.0161,
      "velocity": 98,
      "chip": "ym2612"
    },
    {
      "channel": 0,
      "note": 70,
      "start": 35.1582,
      "duration": 0.0161,
      "velocity": 124,
      "chip": "ym2612"
    },
    {
      "channel": 5,
      "note": 78,
      "start": 35.1593,
      "duration": 0.0161,
      "velocity": 98,
      "chip": "ym2612"
    },
    {
      "channel": 4,
      "note": 81,
      "start": 35.1605,
      "duration": 0.0161,
      "velocity": 86,
      "chip": "ym2612"
    },
    {
      "channel": 3,
      "note": 81,
      "start": 35.1617,
      "duration": 0.0161,
      "velocity": 86,
      "chip": "ym2612"
    },
    {
      "channel": 2,
      "note": 57,
      "start": 35.1628,
      "duration": 0.0161,
      "velocity": 93,
      "chip": "ym2612"
    },
    {
      "channel": 1,
      "note": 78,
      "start": 35.164,
      "duration": 0.0161,
      "velocity": 98,
      "chip": "ym2612"
    },
    {
      "channel": 0,
      "note": 68,
      "start": 35.1743,
      "duration": 0.0161,
      "velocity": 124,
      "chip": "ym2612"
    },
    {
      "channel": 5,
      "note": 78,
      "start": 35.1754,
      "duration": 0.0161,
      "velocity": 98,
      "chip": "ym2612"
    },
    {
      "channel": 4,
      "note": 81,
      "start": 35.1766,
      "duration": 0.0161,
      "velocity": 86,
      "chip": "ym2612"
    },
    {
      "channel": 3,
      "note": 81,
      "start": 35.1778,
      "duration": 0.0161,
      "velocity": 86,
      "chip": "ym2612"
    },
    {
      "channel": 2,
      "note": 57,
      "start": 35.1789,
      "duration": 0.0161,
      "velocity": 93,
      "chip": "ym2612"
    },
    {
      "channel": 1,
      "note": 78,
      "start": 35.1801,
      "duration": 0.0161,
      "velocity": 98,
      "chip": "ym2612"
    },
    {
      "channel": 0,
      "note": 65,
      "start": 35.1904,
      "duration": 0.0161,
      "velocity": 124,
      "chip": "ym2612"
    },
    {
      "channel": 5,
      "note": 78,
      "start": 35.1915,
      "duration": 0.0161,
      "velocity": 98,
      "chip": "ym2612"
    },
    {
      "channel": 4,
      "note": 81,
      "start": 35.1927,
      "duration": 0.0162,
      "velocity": 86,
      "chip": "ym2612"
    },
    {
      "channel": 3,
      "note": 81,
      "start": 35.1939,
      "duration": 0.0161,
      "velocity": 86,
      "chip": "ym2612"
    },
    {
      "channel": 2,
      "note": 57,
      "start": 35.195,
      "duration": 0.0162,
      "velocity": 93,
      "chip": "ym2612"
    },
    {
      "channel": 1,
      "note": 78,
      "start": 35.1962,
      "duration": 0.0162,
      "velocity": 98,
      "chip": "ym2612"
    },
    {
      "channel": 0,
      "note": 63,
      "start": 35.2065,
      "duration": 0.0153,
      "velocity": 1,
      "chip": "ym2612"
    },
    {
      "channel": 5,
      "note": 78,
      "start": 35.2076,
      "duration": 0.0153,
      "velocity": 98,
      "chip": "ym2612"
    },
    {
      "channel": 4,
      "note": 81,
      "start": 35.2088,
      "duration": 0.0153,
      "velocity": 86,
      "chip": "ym2612"
    },
    {
      "channel": 3,
      "note": 81,
      "start": 35.21,
      "duration": 0.0153,
      "velocity": 86,
      "chip": "ym2612"
    },
    {
      "channel": 2,
      "note": 57,
      "start": 35.2112,
      "duration": 0.0153,
      "velocity": 93,
      "chip": "ym2612"
    },
    {
      "channel": 1,
      "note": 78,
      "start": 35.2124,
      "duration": 0.0153,
      "velocity": 98,
      "chip": "ym2612"
    },
    {
      "channel": 5,
      "note": 78,
      "start": 35.2229,
      "duration": 0.0152,
      "velocity": 98,
      "chip": "ym2612"
    },
    {
      "channel": 4,
      "note": 81,
      "start": 35.2241,
      "duration": 0.0153,
      "velocity": 86,
      "chip": "ym2612"
    },
    {
      "channel": 3,
      "note": 81,
      "start": 35.2253,
      "duration": 0.0153,
      "velocity": 86,
      "chip": "ym2612"
    },
    {
      "channel": 2,
      "note": 57,
      "start": 35.2265,
      "duration": 0.0153,
      "velocity": 93,
      "chip": "ym2612"
    },
    {
      "channel": 1,
      "note": 78,
      "start": 35.2277,
      "duration": 0.0152,
      "velocity": 98,
      "chip": "ym2612"
    },
    {
      "channel": 5,
      "note": 78,
      "start": 35.2381,
      "duration": 0.0161,
      "velocity": 98,
      "chip": "ym2612"
    },
    {
      "channel": 4,
      "note": 81,
      "start": 35.2393,
      "duration": 0.0161,
      "velocity": 86,
      "chip": "ym2612"
    },
    {
      "channel": 2,
      "note": 57,
      "start": 35.2418,
      "duration": 0.0163,
      "velocity": 93,
      "chip": "ym2612"
    },
    {
      "channel": 1,
      "note": 78,
      "start": 35.2429,
      "duration": 0.0163,
      "velocity": 98,
      "chip": "ym2612"
    },
    {
      "channel": 5,
      "note": 78,
      "start": 35.2542,
      "duration": 0.0161,
      "velocity": 98,
      "chip": "ym2612"
    },
    {
      "channel": 4,
      "note": 81,
      "start": 35.2554,
      "duration": 0.0162,
      "velocity": 86,
      "chip": "ym2612"
    },
    {
      "channel": 3,
      "note": 85,
      "start": 35.257,
      "duration": 0.0159,
      "velocity": 86,
      "chip": "ym2612"
    },
    {
      "channel": 2,
      "note": 57,
      "start": 35.2581,
      "duration": 0.0159,
      "velocity": 93,
      "chip": "ym2612"
    },
    {
      "channel": 1,
      "note": 78,
      "start": 35.2593,
      "duration": 0.0159,
      "velocity": 98,
      "chip": "ym2612"
    },
    {
      "channel": 5,
      "note": 78,
      "start": 35.2704,
      "duration": 0.0162,
      "velocity": 98,
      "chip": "ym2612"
    },
    {
      "channel": 4,
      "note": 81,
      "start": 35.2716,
      "duration": 0.0161,
      "velocity": 86,
      "chip": "ym2612"
    },
    {
      "channel": 3,
      "note": 85,
      "start": 35.2728,
      "duration": 0.0161,
      "velocity": 86,
      "chip": "ym2612"
    },
    {
      "channel": 2,
      "note": 57,
      "start": 35.274,
      "duration": 0.016,
      "velocity": 93,
      "chip": "ym2612"
    },
    {
      "channel": 1,
      "note": 78,
      "start": 35.2752,
      "duration": 0.016,
      "velocity": 98,
      "chip": "ym2612"
    },
    {
      "channel": 5,
      "note": 78,
      "start": 35.2866,
      "duration": 0.0164,
      "velocity": 98,
      "chip": "ym2612"
    },
    {
      "channel": 3,
      "note": 85,
      "start": 35.2889,
      "duration": 0.0167,
      "velocity": 86,
      "chip": "ym2612"
    },
    {
      "channel": 2,
      "note": 57,
      "start": 35.29,
      "duration": 0.0167,
      "velocity": 93,
      "chip": "ym2612"
    },
    {
      "channel": 1,
      "note": 78,
      "start": 35.2912,
      "duration": 0.0167,
      "velocity": 98,
      "chip": "ym2612"
    },
    {
      "channel": 5,
      "note": 78,
      "start": 35.303,
      "duration": 0.0162,
      "velocity": 98,
      "chip": "ym2612"
    },
    {
      "channel": 4,
      "note": 85,
      "start": 35.3044,
      "duration": 0.016,
      "velocity": 86,
      "chip": "ym2612"
    },
    {
      "channel": 3,
      "note": 85,
      "start": 35.3056,
      "duration": 0.016,
      "velocity": 86,
      "chip": "ym2612"
    },
    {
      "channel": 2,
      "note": 57,
      "start": 35.3068,
      "duration": 0.0161,
      "velocity": 93,
      "chip": "ym2612"
    },
    {
      "channel": 1,
      "note": 78,
      "start": 35.3079,
      "duration": 0.0161,
      "velocity": 98,
      "chip": "ym2612"
    },
    {
      "channel": 5,
      "note": 78,
      "start": 35.3192,
      "duration": 0.0161,
      "velocity": 98,
      "chip": "ym2612"
    },
    {
      "channel": 4,
      "note": 85,
      "start": 35.3205,
      "duration": 0.016,
      "velocity": 86,
      "chip": "ym2612"
    },
    {
      "channel": 3,
      "note": 85,
      "start": 35.3217,
      "duration": 0.016,
      "velocity": 86,
      "chip": "ym2612"
    },
    {
      "channel": 2,
      "note": 57,
      "start": 35.3229,
      "duration": 0.016,
      "velocity": 93,
      "chip": "ym2612"
    },
    {
      "channel": 1,
      "note": 78,
      "start": 35.324,
      "duration": 0.0161,
      "velocity": 98,
      "chip": "ym2612"
    },
    {
      "channel": 5,
      "note": 78,
      "start": 35.3353,
      "duration": 0.0197,
      "velocity": 98,
      "chip": "ym2612"
    },
    {
      "channel": 4,
      "note": 85,
      "start": 35.3365,
      "duration": 0.0197,
      "velocity": 86,
      "chip": "ym2612"
    },
    {
      "channel": 3,
      "note": 85,
      "start": 35.3377,
      "duration": 0.0197,
      "velocity": 86,
      "chip": "ym2612"
    },
    {
      "channel": 2,
      "note": 57,
      "start": 35.3389,
      "duration": 0.0198,
      "velocity": 93,
      "chip": "ym2612"
    },
    {
      "channel": 1,
      "note": 78,
      "start": 35.3401,
      "duration": 0.0198,
      "velocity": 98,
      "chip": "ym2612"
    },
    {
      "channel": 0,
      "note": 36,
      "start": 35.3538,
      "duration": 0.014,
      "velocity": 115,
      "chip": "ym2612"
    },
    {
      "channel": 5,
      "note": 78,
      "start": 35.355,
      "duration": 0.0143,
      "velocity": 98,
      "chip": "ym2612"
    },
    {
      "channel": 4,
      "note": 85,
      "start": 35.3561,
      "duration": 0.0143,
      "velocity": 86,
      "chip": "ym2612"
    },
    {
      "channel": 3,
      "note": 85,
      "start": 35.3573,
      "duration": 0.0143,
      "velocity": 86,
      "chip": "ym2612"
    },
    {
      "channel": 2,
      "note": 57,
      "start": 35.3588,
      "duration": 0.0141,
      "velocity": 93,
      "chip": "ym2612"
    },
    {
      "channel": 1,
      "note": 78,
      "start": 35.36,
      "duration": 0.0141,
      "velocity": 98,
      "chip": "ym2612"
    },
    {
      "channel": 0,
      "note": 36,
      "start": 35.3678,
      "duration": 0.0158,
      "velocity": 115,
      "chip": "ym2612"
    },
    {
      "channel": 5,
      "note": 78,
      "start": 35.3693,
      "duration": 0.016,
      "velocity": 98,
      "chip": "ym2612"
    },
    {
      "channel": 4,
      "note": 85,
      "start": 35.3705,
      "duration": 0.016,
      "velocity": 86,
      "chip": "ym2612"
    },
    {
      "channel": 3,
      "note": 85,
      "start": 35.3717,
      "duration": 0.016,
      "velocity": 86,
      "chip": "ym2612"
    },
    {
      "channel": 2,
      "note": 57,
      "start": 35.3729,
      "duration": 0.016,
      "velocity": 93,
      "chip": "ym2612"
    },
    {
      "channel": 1,
      "note": 78,
      "start": 35.3741,
      "duration": 0.016,
      "velocity": 98,
      "chip": "ym2612"
    },
    {
      "channel": 0,
      "note": 37,
      "start": 35.3836,
      "duration": 0.0161,
      "velocity": 115,
      "chip": "ym2612"
    },
    {
      "channel": 5,
      "note": 78,
      "start": 35.3853,
      "duration": 0.0158,
      "velocity": 98,
      "chip": "ym2612"
    },
    {
      "channel": 4,
      "note": 85,
      "start": 35.3865,
      "duration": 0.0162,
      "velocity": 86,
      "chip": "ym2612"
    },
    {
      "channel": 3,
      "note": 85,
      "start": 35.3877,
      "duration": 0.0161,
      "velocity": 86,
      "chip": "ym2612"
    },
    {
      "channel": 2,
      "note": 57,
      "start": 35.3888,
      "duration": 0.0161,
      "velocity": 93,
      "chip": "ym2612"
    },
    {
      "channel": 1,
      "note": 78,
      "start": 35.39,
      "duration": 0.0161,
      "velocity": 98,
      "chip": "ym2612"
    },
    {
      "channel": 0,
      "note": 37,
      "start": 35.3997,
      "duration": 0.0161,
      "velocity": 115,
      "chip": "ym2612"
    },
    {
      "channel": 5,
      "note": 78,
      "start": 35.401,
      "duration": 0.0159,
      "velocity": 98,
      "chip": "ym2612"
    },
    {
      "channel": 4,
      "note": 85,
      "start": 35.4027,
      "duration": 0.016,
      "velocity": 86,
      "chip": "ym2612"
    },
    {
      "channel": 3,
      "note": 85,
      "start": 35.4038,
      "duration": 0.0162,
      "velocity": 86,
      "chip": "ym2612"
    },
    {
      "channel": 2,
      "note": 57,
      "start": 35.405,
      "duration": 0.0161,
      "velocity": 93,
      "chip": "ym2612"
    },
    {
      "channel": 1,
      "note": 78,
      "start": 35.4061,
      "duration": 0.0161,
      "velocity": 98,
      "chip": "ym2612"
    },
    {
      "channel": 0,
      "note": 38,
      "start": 35.4157,
      "duration": 0.0161,
      "velocity": 115,
      "chip": "ym2612"
    },
    {
      "channel": 5,
      "note": 78,
      "start": 35.417,
      "duration": 0.0161,
      "velocity": 98,
      "chip": "ym2612"
    },
    {
      "channel": 4,
      "note": 85,
      "start": 35.4187,
      "duration": 0.0158,
      "velocity": 86,
      "chip": "ym2612"
    },
    {
      "channel": 3,
      "note": 85,
      "start": 35.42,
      "duration": 0.0161,
      "velocity": 86,
      "chip": "ym2612"
    },
    {
      "channel": 2,
      "note": 57,
      "start": 35.4211,
      "duration": 0.0161,
      "velocity": 93,
      "chip": "ym2612"
    },
    {
      "channel": 1,
      "note": 78,
      "start": 35.4222,
      "duration": 0.0161,
      "velocity": 98,
      "chip": "ym2612"
    },
    {
      "channel": 0,
      "note": 38,
      "start": 35.4318,
      "duration": 0.0162,
      "velocity": 115,
      "chip": "ym2612"
    },
    {
      "channel": 5,
      "note": 78,
      "start": 35.4331,
      "duration": 0.0161,
      "velocity": 98,
      "chip": "ym2612"
    },
    {
      "channel": 4,
      "note": 85,
      "start": 35.4344,
      "duration": 0.0159,
      "velocity": 86,
      "chip": "ym2612"
    },
    {
      "channel": 3,
      "note": 85,
      "start": 35.436,
      "duration": 0.016,
      "velocity": 86,
      "chip": "ym2612"
    },
    {
      "channel": 2,
      "note": 57,
      "start": 35.4372,
      "duration": 0.0161,
      "velocity": 93,
      "chip": "ym2612"
    },
    {
      "channel": 1,
      "note": 78,
      "start": 35.4383,
      "duration": 0.0161,
      "velocity": 98,
      "chip": "ym2612"
    },
    {
      "channel": 0,
      "note": 39,
      "start": 35.448,
      "duration": 0.0161,
      "velocity": 115,
      "chip": "ym2612"
    },
    {
      "channel": 5,
      "note": 78,
      "start": 35.4491,
      "duration": 0.0161,
      "velocity": 98,
      "chip": "ym2612"
    },
    {
      "channel": 4,
      "note": 85,
      "start": 35.4503,
      "duration": 0.0161,
      "velocity": 86,
      "chip": "ym2612"
    },
    {
      "channel": 3,
      "note": 85,
      "start": 35.452,
      "duration": 0.0159,
      "velocity": 86,
      "chip": "ym2612"
    },
    {
      "channel": 2,
      "note": 57,
      "start": 35.4533,
      "duration": 0.0161,
      "velocity": 93,
      "chip": "ym2612"
    },
    {
      "channel": 1,
      "note": 78,
      "start": 35.4544,
      "duration": 0.0161,
      "velocity": 98,
      "chip": "ym2612"
    },
    {
      "channel": 0,
      "note": 39,
      "start": 35.4641,
      "duration": 0.0161,
      "velocity": 115,
      "chip": "ym2612"
    },
    {
      "channel": 5,
      "note": 78,
      "start": 35.4652,
      "duration": 0.0161,
      "velocity": 98,
      "chip": "ym2612"
    },
    {
      "channel": 4,
      "note": 85,
      "start": 35.4664,
      "duration": 0.0161,
      "velocity": 86,
      "chip": "ym2612"
    },
    {
      "channel": 3,
      "note": 85,
      "start": 35.4678,
      "duration": 0.0159,
      "velocity": 86,
      "chip": "ym2612"
    },
    {
      "channel": 2,
      "note": 57,
      "start": 35.4694,
      "duration": 0.016,
      "velocity": 93,
      "chip": "ym2612"
    },
    {
      "channel": 1,
      "note": 78,
      "start": 35.4705,
      "duration": 0.0161,
      "velocity": 98,
      "chip": "ym2612"
    },
    {
      "channel": 0,
      "note": 40,
      "start": 35.4802,
      "duration": 0.0161,
      "velocity": 115,
      "chip": "ym2612"
    },
    {
      "channel": 5,
      "note": 78,
      "start": 35.4813,
      "duration": 0.0161,
      "velocity": 98,
      "chip": "ym2612"
    },
    {
      "channel": 4,
      "note": 85,
      "start": 35.4825,
      "duration": 0.0161,
      "velocity": 86,
      "chip": "ym2612"
    },
    {
      "channel": 3,
      "note": 85,
      "start": 35.4837,
      "duration": 0.0161,
      "velocity": 86,
      "chip": "ym2612"
    },
    {
      "channel": 2,
      "note": 57,
      "start": 35.4854,
      "duration": 0.0159,
      "velocity": 93,
      "chip": "ym2612"
    },
    {
      "channel": 1,
      "note": 78,
      "start": 35.4866,
      "duration": 0.0162,
      "velocity": 98,
      "chip": "ym2612"
    },
    {
      "channel": 0,
      "note": 40,
      "start": 35.4963,
      "duration": 0.0161,
      "velocity": 115,
      "chip": "ym2612"
    },
    {
      "channel": 5,
      "note": 78,
      "start": 35.4974,
      "duration": 0.0161,
      "velocity": 98,
      "chip": "ym2612"
    },
    {
      "channel": 4,
      "note": 85,
      "start": 35.4986,
      "duration": 0.0161,
      "velocity": 86,
      "chip": "ym2612"
    },
    {
      "channel": 3,
      "note": 85,
      "start": 35.4998,
      "duration": 0.0161,
      "velocity": 86,
      "chip": "ym2612"
    },
    {
      "channel": 2,
      "note": 57,
      "start": 35.5012,
      "duration": 0.0159,
      "velocity": 93,
      "chip": "ym2612"
    },
    {
      "channel": 1,
      "note": 78,
      "start": 35.5028,
      "duration": 0.016,
      "velocity": 98,
      "chip": "ym2612"
    },
    {
      "channel": 0,
      "note": 40,
      "start": 35.5124,
      "duration": 0.0161,
      "velocity": 115,
      "chip": "ym2612"
    },
    {
      "channel": 5,
      "note": 78,
      "start": 35.5136,
      "duration": 0.0161,
      "velocity": 98,
      "chip": "ym2612"
    },
    {
      "channel": 4,
      "note": 85,
      "start": 35.5147,
      "duration": 0.0161,
      "velocity": 86,
      "chip": "ym2612"
    },
    {
      "channel": 3,
      "note": 85,
      "start": 35.5159,
      "duration": 0.0161,
      "velocity": 86,
      "chip": "ym2612"
    },
    {
      "channel": 2,
      "note": 57,
      "start": 35.5171,
      "duration": 0.0162,
      "velocity": 93,
      "chip": "ym2612"
    },
    {
      "channel": 1,
      "note": 78,
      "start": 35.5189,
      "duration": 0.0161,
      "velocity": 98,
      "chip": "ym2612"
    },
    {
      "channel": 0,
      "note": 41,
      "start": 35.5285,
      "duration": 0.0179,
      "velocity": 115,
      "chip": "ym2612"
    },
    {
      "channel": 5,
      "note": 78,
      "start": 35.5297,
      "duration": 0.0179,
      "velocity": 98,
      "chip": "ym2612"
    },
    {
      "channel": 4,
      "note": 85,
      "start": 35.5308,
      "duration": 0.0179,
      "velocity": 86,
      "chip": "ym2612"
    },
    {
      "channel": 2,
      "note": 57,
      "start": 35.5333,
      "duration": 0.0187,
      "velocity": 93,
      "chip": "ym2612"
    },
    {
      "channel": 1,
      "note": 78,
      "start": 35.535,
      "duration": 0.0183,
      "velocity": 98,
      "chip": "ym2612"
    },
    {
      "channel": 0,
      "note": 36,
      "start": 35.5464,
      "duration": 0.0143,
      "velocity": 115,
      "chip": "ym2612"
    },
    {
      "channel": 5,
      "note": 78,
      "start": 35.5476,
      "duration": 0.0143,
      "velocity": 98,
      "chip": "ym2612"
    },
    {
      "channel": 4,
      "note": 85,
      "start": 35.5488,
      "duration": 0.0143,
      "velocity": 86,
      "chip": "ym2612"
    },
    {
      "channel": 3,
      "note": 76,
      "start": 35.5503,
      "duration": 0.0141,
      "velocity": 86,
      "chip": "ym2612"
    },
    {
      "channel": 2,
      "note": 57,
      "start": 35.552,
      "duration": 0.0135,
      "velocity": 93,
      "chip": "ym2612"
    },
    {
      "channel": 1,
      "note": 78,
      "start": 35.5532,
      "duration": 0.0134,
      "velocity": 98,
      "chip": "ym2612"
    },
    {
      "channel": 0,
      "note": 36,
      "start": 35.5607,
      "duration": 0.016,
      "velocity": 115,
      "chip": "ym2612"
    },
    {
      "channel": 5,
      "note": 78,
      "start": 35.5619,
      "duration": 0.016,
      "velocity": 98,
      "chip": "ym2612"
    },
    {
      "channel": 4,
      "note": 85,
      "start": 35.5631,
      "duration": 0.0161,
      "velocity": 86,
      "chip": "ym2612"
    },
    {
      "channel": 3,
      "note": 76,
      "start": 35.5644,
      "duration": 0.016,
      "velocity": 86,
      "chip": "ym2612"
    },
    {
      "channel": 2,
      "note": 57,
      "start": 35.5655,
      "duration": 0.016,
      "velocity": 93,
      "chip": "ym2612"
    },
    {
      "channel": 1,
      "note": 78,
      "start": 35.5666,
      "duration": 0.016,
      "velocity": 98,
      "chip": "ym2612"
    },
    {
      "channel": 0,
      "note": 37,
      "start": 35.5768,
      "duration": 0.0161,
      "velocity": 115,
      "chip": "ym2612"
    },
    {
      "channel": 5,
      "note": 78,
      "start": 35.578,
      "duration": 0.0161,
      "velocity": 98,
      "chip": "ym2612"
    },
    {
      "channel": 3,
      "note": 76,
      "start": 35.5803,
      "duration": 0.0164,
      "velocity": 86,
      "chip": "ym2612"
    },
    {
      "channel": 2,
      "note": 57,
      "start": 35.5815,
      "duration": 0.0164,
      "velocity": 93,
      "chip": "ym2612"
    },
    {
      "channel": 1,
      "note": 78,
      "start": 35.5827,
      "duration": 0.0164,
      "velocity": 98,
      "chip": "ym2612"
    },
    {
      "channel": 0,
      "note": 37,
      "start": 35.5929,
      "duration": 0.0161,
      "velocity": 115,
      "chip": "ym2612"
    },
    {
      "channel": 5,
      "note": 78,
      "start": 35.5941,
      "duration": 0.0161,
      "velocity": 98,
      "chip": "ym2612"
    },
    {
      "channel": 4,
      "note": 76,
      "start": 35.5956,
      "duration": 0.0158,
      "velocity": 86,
      "chip": "ym2612"
    },
    {
      "channel": 3,
      "note": 76,
      "start": 35.5967,
      "duration": 0.0158,
      "velocity": 86,
      "chip": "ym2612"
    },
    {
      "channel": 2,
      "note": 57,
      "start": 35.5979,
      "duration": 0.0159,
      "velocity": 93,
      "chip": "ym2612"
    },
    {
      "channel": 1,
      "note": 78,
      "start": 35.5991,
      "duration": 0.0159,
      "velocity": 98,
      "chip": "ym2612"
    },
    {
      "channel": 0,
      "note": 38,
      "start": 35.609,
      "duration": 0.0161,
      "velocity": 115,
      "chip": "ym2612"
    },
    {
      "channel": 5,
      "note": 78,
      "start": 35.6102,
      "duration": 0.0161,
      "velocity": 98,
      "chip": "ym2612"
    },
    {
      "channel": 4,
      "note": 76,
      "start": 35.6114,
      "duration": 0.0161,
      "velocity": 86,
      "chip": "ym2612"
    },
    {
      "channel": 3,
      "note": 76,
      "start": 35.6126,
      "duration": 0.016,
      "velocity": 86,
      "chip": "ym2612"
    },
    {
      "channel": 2,
      "note": 57,
      "start": 35.6138,
      "duration": 0.0161,
      "velocity": 93,
      "chip": "ym2612"
    },
    {
      "channel": 1,
      "note": 78,
      "start": 35.615,
      "duration": 0.016,
      "velocity": 98,
      "chip": "ym2612"
    },
    {
      "channel": 0,
      "note": 38,
      "start": 35.6251,
      "duration": 0.0179,
      "velocity": 124,
      "chip": "ym2612"
    },
    {
      "channel": 5,
      "note": 78,
      "start": 35.6262,
      "duration": 0.0179,
      "velocity": 98,
      "chip": "ym2612"
    },
    {
      "channel": 4,
      "note": 76,
      "start": 35.6275,
      "duration": 0.0179,
      "velocity": 86,
      "chip": "ym2612"
    },
    {
      "channel": 2,
      "note": 57,
      "start": 35.6299,
      "duration": 0.0184,
      "velocity": 93,
      "chip": "ym2612"
    },
    {
      "channel": 0,
      "note": 84,
      "start": 35.643,
      "duration": 0.0143,
      "velocity": 124,
      "chip": "ym2612"
    },
    {
      "channel": 5,
      "note": 78,
      "start": 35.6442,
      "duration": 0.0143,
      "velocity": 98,
      "chip": "ym2612"
    },
    {
      "channel": 4,
      "note": 76,
      "start": 35.6454,
      "duration": 0.0142,
      "velocity": 86,
      "chip": "ym2612"
    },
    {
      "channel": 3,
      "note": 81,
      "start": 35.6468,
      "duration": 0.0141,
      "velocity": 86,
      "chip": "ym2612"
    },
    {
      "channel": 2,
      "note": 57,
      "start": 35.6483,
      "duration": 0.0138,
      "velocity": 93,
      "chip": "ym2612"
    },
    {
      "channel": 1,
      "note": 76,
      "start": 35.6498,
      "duration": 0.0136,
      "velocity": 98,
      "chip": "ym2612"
    },
    {
      "channel": 0,
      "note": 82,
      "start": 35.6573,
      "duration": 0.016,
      "velocity": 124,
      "chip": "ym2612"
    },
    {
      "channel": 5,
      "note": 78,
      "start": 35.6585,
      "duration": 0.0161,
      "velocity": 98,
      "chip": "ym2612"
    },
    {
      "channel": 4,
      "note": 76,
      "start": 35.6596,
      "duration": 0.0161,
      "velocity": 86,
      "chip": "ym2612"
    },
    {
      "channel": 3,
      "note": 81,
      "start": 35.6609,
      "duration": 0.016,
      "velocity": 86,
      "chip": "ym2612"
    },
    {
      "channel": 2,
      "note": 57,
      "start": 35.6621,
      "duration": 0.016,
      "velocity": 93,
      "chip": "ym2612"
    },
    {
      "channel": 1,
      "note": 76,
      "start": 35.6633,
      "duration": 0.0159,
      "velocity": 98,
      "chip": "ym2612"
    },
    {
      "channel": 0,
      "note": 80,
      "start": 35.6734,
      "duration": 0.0161,
      "velocity": 124,
      "chip": "ym2612"
    },
    {
      "channel": 5,
      "note": 78,
      "start": 35.6746,
      "duration": 0.0161,
      "velocity": 98,
      "chip": "ym2612"
    },
    {
      "channel": 3,
      "note": 81,
      "start": 35.6769,
      "duration": 0.0163,
      "velocity": 86,
      "chip": "ym2612"
    },
    {
      "channel": 2,
      "note": 57,
      "start": 35.6781,
      "duration": 0.0164,
      "velocity": 93,
      "chip": "ym2612"
    },
    {
      "channel": 1,
      "note": 76,
      "start": 35.6792,
      "duration": 0.0164,
      "velocity": 98,
      "chip": "ym2612"
    },
    {
      "channel": 0,
      "note": 77,
      "start": 35.6895,
      "duration": 0.0161,
      "velocity": 124,
      "chip": "ym2612"
    },
    {
      "channel": 5,
      "note": 78,
      "start": 35.6907,
      "duration": 0.0161,
      "velocity": 98,
      "chip": "ym2612"
    },
    {
      "channel": 4,
      "note": 81,
      "start": 35.6922,
      "duration": 0.0158,
      "velocity": 86,
      "chip": "ym2612"
    },
    {
      "channel": 3,
      "note": 81,
      "start": 35.6933,
      "duration": 0.0159,
      "velocity": 86,
      "chip": "ym2612"
    },
    {
      "channel": 2,
      "note": 57,
      "start": 35.6945,
      "duration": 0.0159,
      "velocity": 93,
      "chip": "ym2612"
    },
    {
      "channel": 1,
      "note": 76,
      "start": 35.6956,
      "duration": 0.0158,
      "velocity": 98,
      "chip": "ym2612"
    },
    {
      "channel": 0,
      "note": 75,
      "start": 35.7056,
      "duration": 0.0161,
      "velocity": 124,
      "chip": "ym2612"
    },
    {
      "channel": 5,
      "note": 78,
      "start": 35.7068,
      "duration": 0.0161,
      "velocity": 98,
      "chip": "ym2612"
    },
    {
      "channel": 4,
      "note": 81,
      "start": 35.708,
      "duration": 0.016,
      "velocity": 86,
      "chip": "ym2612"
    },
    {
      "channel": 3,
      "note": 81,
      "start": 35.7091,
      "duration": 0.016,
      "velocity": 86,
      "chip": "ym2612"
    },
    {
      "channel": 2,
      "note": 57,
      "start": 35.7103,
      "duration": 0.016,
      "velocity": 93,
      "chip": "ym2612"
    },
    {
      "channel": 1,
      "note": 76,
      "start": 35.7115,
      "duration": 0.016,
      "velocity": 98,
      "chip": "ym2612"
    },
    {
      "channel": 0,
      "note": 72,
      "start": 35.7217,
      "duration": 0.0161,
      "velocity": 124,
      "chip": "ym2612"
    },
    {
      "channel": 5,
      "note": 78,
      "start": 35.7229,
      "duration": 0.0161,
      "velocity": 98,
      "chip": "ym2612"
    },
    {
      "channel": 4,
      "note": 81,
      "start": 35.724,
      "duration": 0.0161,
      "velocity": 86,
      "chip": "ym2612"
    },
    {
      "channel": 3,
      "note": 81,
      "start": 35.7252,
      "duration": 0.0161,
      "velocity": 86,
      "chip": "ym2612"
    },
    {
      "channel": 2,
      "note": 57,
      "start": 35.7264,
      "duration": 0.0161,
      "velocity": 93,
      "chip": "ym2612"
    },
    {
      "channel": 1,
      "note": 76,
      "start": 35.7275,
      "duration": 0.0161,
      "velocity": 98,
      "chip": "ym2612"
    },
    {
      "channel": 0,
      "note": 70,
      "start": 35.7378,
      "duration": 0.0161,
      "velocity": 124,
      "chip": "ym2612"
    },
    {
      "channel": 5,
      "note": 78,
      "start": 35.739,
      "duration": 0.0162,
      "velocity": 98,
      "chip": "ym2612"
    },
    {
      "channel": 4,
      "note": 81,
      "start": 35.7401,
      "duration": 0.0161,
      "velocity": 86,
      "chip": "ym2612"
    },
    {
      "channel": 3,
      "note": 81,
      "start": 35.7413,
      "duration": 0.0162,
      "velocity": 86,
      "chip": "ym2612"
    },
    {
      "channel": 2,
      "note": 57,
      "start": 35.7425,
      "duration": 0.0161,
      "velocity": 93,
      "chip": "ym2612"
    },
    {
      "channel": 1,
      "note": 76,
      "start": 35.7436,
      "duration": 0.0162,
      "velocity": 98,
      "chip": "ym2612"
    },
    {
      "channel": 0,
      "note": 68,
      "start": 35.754,
      "duration": 0.0163,
      "velocity": 124,
      "chip": "ym2612"
    },
    {
      "channel": 5,
      "note": 78,
      "start": 35.7551,
      "duration": 0.0163,
      "velocity": 98,
      "chip": "ym2612"
    },
    {
      "channel": 4,
      "note": 81,
      "start": 35.7563,
      "duration": 0.0163,
      "velocity": 86,
      "chip": "ym2612"
    },
    {
      "channel": 3,
      "note": 81,
      "start": 35.7575,
      "duration": 0.0163,
      "velocity": 86,
      "chip": "ym2612"
    },
    {
      "channel": 2,
      "note": 57,
      "start": 35.7586,
      "duration": 0.0163,
      "velocity": 93,
      "chip": "ym2612"
    },
    {
      "channel": 1,
      "note": 76,
      "start": 35.7598,
      "duration": 0.0164,
      "velocity": 98,
      "chip": "ym2612"
    },
    {
      "channel": 0,
      "note": 65,
      "start": 35.7703,
      "duration": 0.0163,
      "velocity": 124,
      "chip": "ym2612"
    },
    {
      "channel": 5,
      "note": 78,
      "start": 35.7715,
      "duration": 0.0163,
      "velocity": 98,
      "chip": "ym2612"
    },
    {
      "channel": 4,
      "note": 81,
      "start": 35.7726,
      "duration": 0.0163,
      "velocity": 86,
      "chip": "ym2612"
    },
    {
      "channel": 3,
      "note": 81,
      "start": 35.7738,
      "duration": 0.0163,
      "velocity": 86,
      "chip": "ym2612"
    },
    {
      "channel": 2,
      "note": 57,
      "start": 35.775,
      "duration": 0.0165,
      "velocity": 93,
      "chip": "ym2612"
    },
    {
      "channel": 1,
      "note": 76,
      "start": 35.7762,
      "duration": 0.0164,
      "velocity": 98,
      "chip": "ym2612"
    },
    {
      "channel": 0,
      "note": 63,
      "start": 35.7866,
      "duration": 0.0153,
      "velocity": 1,
      "chip": "ym2612"
    },
    {
      "channel": 5,
      "note": 78,
      "start": 35.7878,
      "duration": 0.0153,
      "velocity": 98,
      "chip": "ym2612"
    },
    {
      "channel": 4,
      "note": 81,
      "start": 35.789,
      "duration": 0.0153,
      "velocity": 86,
      "chip": "ym2612"
    },
    {
      "channel": 3,
      "note": 81,
      "start": 35.7902,
      "duration": 0.0153,
      "velocity": 86,
      "chip": "ym2612"
    },
    {
      "channel": 2,
      "note": 57,
      "start": 35.7915,
      "duration": 0.0153,
      "velocity": 93,
      "chip": "ym2612"
    },
    {
      "channel": 1,
      "note": 76,
      "start": 35.7926,
      "duration": 0.0153,
      "velocity": 98,
      "chip": "ym2612"
    },
    {
      "channel": 5,
      "note": 78,
      "start": 35.8032,
      "duration": 0.0151,
      "velocity": 98,
      "chip": "ym2612"
    },
    {
      "channel": 4,
      "note": 81,
      "start": 35.8043,
      "duration": 0.0153,
      "velocity": 86,
      "chip": "ym2612"
    },
    {
      "channel": 3,
      "note": 81,
      "start": 35.8055,
      "duration": 0.0153,
      "velocity": 86,
      "chip": "ym2612"
    },
    {
      "channel": 2,
      "note": 57,
      "start": 35.8067,
      "duration": 0.0153,
      "velocity": 93,
      "chip": "ym2612"
    },
    {
      "channel": 1,
      "note": 76,
      "start": 35.8079,
      "duration": 0.0153,
      "velocity": 98,
      "chip": "ym2612"
    },
    {
      "channel": 5,
      "note": 78,
      "start": 35.8183,
      "duration": 0.0156,
      "velocity": 98,
      "chip": "ym2612"
    },
    {
      "channel": 4,
      "note": 81,
      "start": 35.8196,
      "duration": 0.0161,
      "velocity": 86,
      "chip": "ym2612"
    },
    {
      "channel": 2,
      "note": 57,
      "start": 35.822,
      "duration": 0.0163,
      "velocity": 93,
      "chip": "ym2612"
    },
    {
      "channel": 5,
      "note": 78,
      "start": 35.8339,
      "duration": 0.0161,
      "velocity": 98,
      "chip": "ym2612"
    },
    {
      "channel": 4,
      "note": 81,
      "start": 35.8357,
      "duration": 0.0161,
      "velocity": 86,
      "chip": "ym2612"
    },
    {
      "channel": 3,
      "note": 85,
      "start": 35.8372,
      "duration": 0.0158,
      "velocity": 86,
      "chip": "ym2612"
    },
    {
      "channel": 2,
      "note": 57,
      "start": 35.8383,
      "duration": 0.0159,
      "velocity": 93,
      "chip": "ym2612"
    },
    {
      "channel": 1,
      "note": 78,
      "start": 35.8398,
      "duration": 0.0156,
      "velocity": 98,
      "chip": "ym2612"
    },
    {
      "channel": 5,
      "note": 78,
      "start": 35.85,
      "duration": 0.0161,
      "velocity": 98,
      "chip": "ym2612"
    },
    {
      "channel": 4,
      "note": 81,
      "start": 35.8517,
      "duration": 0.0157,
      "velocity": 86,
      "chip": "ym2612"
    },
    {
      "channel": 3,
      "note": 85,
      "start": 35.853,
      "duration": 0.016,
      "velocity": 86,
      "chip": "ym2612"
    },
    {
      "channel": 2,
      "note": 57,
      "start": 35.8542,
      "duration": 0.016,
      "velocity": 93,
      "chip": "ym2612"
    },
    {
      "channel": 1,
      "note": 78,
      "start": 35.8554,
      "duration": 0.016,
      "velocity": 98,
      "chip": "ym2612"
    },
    {
      "channel": 5,
      "note": 78,
      "start": 35.8661,
      "duration": 0.0162,
      "velocity": 98,
      "chip": "ym2612"
    },
    {
      "channel": 3,
      "note": 85,
      "start": 35.869,
      "duration": 0.0164,
      "velocity": 86,
      "chip": "ym2612"
    },
    {
      "channel": 2,
      "note": 57,
      "start": 35.8702,
      "duration": 0.0164,
      "velocity": 93,
      "chip": "ym2612"
    },
    {
      "channel": 1,
      "note": 78,
      "start": 35.8713,
      "duration": 0.0165,
      "velocity": 98,
      "chip": "ym2612"
    },
    {
      "channel": 5,
      "note": 78,
      "start": 35.8822,
      "duration": 0.0161,
      "velocity": 98,
      "chip": "ym2612"
    },
    {
      "channel": 4,
      "note": 85,
      "start": 35.8837,
      "duration": 0.0158,
      "velocity": 86,
      "chip": "ym2612"
    },
    {
      "channel": 3,
      "note": 85,
      "start": 35.8855,
      "duration": 0.0155,
      "velocity": 86,
      "chip": "ym2612"
    },
    {
      "channel": 2,
      "note": 57,
      "start": 35.8866,
      "duration": 0.0159,
      "velocity": 93,
      "chip": "ym2612"
    },
    {
      "channel": 1,
      "note": 78,
      "start": 35.8878,
      "duration": 0.0158,
      "velocity": 98,
      "chip": "ym2612"
    },
    {
      "channel": 5,
      "note": 78,
      "start": 35.8983,
      "duration": 0.0161,
      "velocity": 98,
      "chip": "ym2612"
    },
    {
      "channel": 4,
      "note": 85,
      "start": 35.8995,
      "duration": 0.016,
      "velocity": 86,
      "chip": "ym2612"
    },
    {
      "channel": 3,
      "note": 85,
      "start": 35.9009,
      "duration": 0.0158,
      "velocity": 86,
      "chip": "ym2612"
    },
    {
      "channel": 2,
      "note": 57,
      "start": 35.9025,
      "duration": 0.016,
      "velocity": 93,
      "chip": "ym2612"
    },
    {
      "channel": 1,
      "note": 78,
      "start": 35.9037,
      "duration": 0.0161,
      "velocity": 98,
      "chip": "ym2612"
    },
    {
      "channel": 5,
      "note": 78,
      "start": 35.9144,
      "duration": 0.0198,
      "velocity": 98,
      "chip": "ym2612"
    },
    {
      "channel": 4,
      "note": 85,
      "start": 35.9156,
      "duration": 0.0202,
      "velocity": 86,
      "chip": "ym2612"
    },
    {
      "channel": 3,
      "note": 85,
      "start": 35.9167,
      "duration": 0.0202,
      "velocity": 86,
      "chip": "ym2612"
    },
    {
      "channel": 2,
      "note": 57,
      "start": 35.9185,
      "duration": 0.0199,
      "velocity": 93,
      "chip": "ym2612"
    },
    {
      "channel": 1,
      "note": 78,
      "start": 35.9198,
      "duration": 0.0198,
      "velocity": 98,
      "chip": "ym2612"
    },
    {
      "channel": 0,
      "note": 36,
      "start": 35.9329,
      "duration": 0.0143,
      "velocity": 115,
      "chip": "ym2612"
    },
    {
      "channel": 5,
      "note": 78,
      "start": 35.9342,
      "duration": 0.0142,
      "velocity": 98,
      "chip": "ym2612"
    },
    {
      "channel": 4,
      "note": 85,
      "start": 35.9358,
      "duration": 0.0137,
      "velocity": 86,
      "chip": "ym2612"
    },
    {
      "channel": 3,
      "note": 85,
      "start": 35.9369,
      "duration": 0.014,
      "velocity": 86,
      "chip": "ym2612"
    },
    {
      "channel": 2,
      "note": 54,
      "start": 35.9384,
      "duration": 0.0141,
      "velocity": 93,
      "chip": "ym2612"
    },
    {
      "channel": 1,
      "note": 78,
      "start": 35.9396,
      "duration": 0.0141,
      "velocity": 98,
      "chip": "ym2612"
    },
    {
      "channel": 0,
      "note": 36,
      "start": 35.9472,
      "duration": 0.016,
      "velocity": 115,
      "chip": "ym2612"
    },
    {
      "channel": 4,
      "note": 85,
      "start": 35.9495,
      "duration": 0.0163,
      "velocity": 86,
      "chip": "ym2612"
    },
    {
      "channel": 3,
      "note": 85,
      "start": 35.9509,
      "duration": 0.0161,
      "velocity": 86,
      "chip": "ym2612"
    },
    {
      "channel": 2,
      "note": 54,
      "start": 35.9525,
      "duration": 0.0162,
      "velocity": 93,
      "chip": "ym2612"
    },
    {
      "channel": 1,
      "note": 78,
      "start": 35.9537,
      "duration": 0.0162,
      "velocity": 98,
      "chip": "ym2612"
    },
    {
      "channel": 0,
      "note": 37,
      "start": 35.9632,
      "duration": 0.0161,
      "velocity": 115,
      "chip": "ym2612"
    },
    {
      "channel": 5,
      "note": 76,
      "start": 35.9647,
      "duration": 0.0159,
      "velocity": 98,
      "chip": "ym2612"
    },
    {
      "channel": 4,
      "note": 85,
      "start": 35.9659,
      "duration": 0.0159,
      "velocity": 86,
      "chip": "ym2612"
    },
    {
      "channel": 3,
      "note": 85,
      "start": 35.967,
      "duration": 0.0159,
      "velocity": 86,
      "chip": "ym2612"
    },
    {
      "channel": 2,
      "note": 54,
      "start": 35.9687,
      "duration": 0.0156,
      "velocity": 93,
      "chip": "ym2612"
    },
    {
      "channel": 1,
      "note": 78,
      "start": 35.97,
      "duration": 0.0159,
      "velocity": 98,
      "chip": "ym2612"
    },
    {
      "channel": 0,
      "note": 37,
      "start": 35.9793,
      "duration": 0.0161,
      "velocity": 115,
      "chip": "ym2612"
    },
    {
      "channel": 5,
      "note": 76,
      "start": 35.9806,
      "duration": 0.016,
      "velocity": 98,
      "chip": "ym2612"
    },
    {
      "channel": 4,
      "note": 85,
      "start": 35.9817,
      "duration": 0.016,
      "velocity": 86,
      "chip": "ym2612"
    },
    {
      "channel": 3,
      "note": 85,
      "start": 35.9829,
      "duration": 0.016,
      "velocity": 86,
      "chip": "ym2612"
    },
    {
      "channel": 2,
      "note": 54,
      "start": 35.9843,
      "duration": 0.0158,
      "velocity": 93,
      "chip": "ym2612"
    },
    {
      "channel": 1,
      "note": 78,
      "start": 35.9859,
      "duration": 0.016,
      "velocity": 98,
      "chip": "ym2612"
    },
    {
      "channel": 0,
      "note": 38,
      "start": 35.9954,
      "duration": 0.0161,
      "velocity": 115,
      "chip": "ym2612"
    },
    {
      "channel": 5,
      "note": 76,
      "start": 35.9966,
      "duration": 0.0161,
      "velocity": 98,
      "chip": "ym2612"
    },
    {
      "channel": 4,
      "note": 85,
      "start": 35.9978,
      "duration": 0.0161,
      "velocity": 86,
      "chip": "ym2612"
    },
    {
      "channel": 3,
      "note": 85,
      "start": 35.999,
      "duration": 0.0161,
      "velocity": 86,
      "chip": "ym2612"
    },
    {
      "channel": 2,
      "note": 54,
      "start": 36.0001,
      "duration": 0.0161,
      "velocity": 93,
      "chip": "ym2612"
    },
    {
      "channel": 1,
      "note": 78,
      "start": 36.0018,
      "duration": 0.0158,
      "velocity": 98,
      "chip": "ym2612"
    },
    {
      "channel": 0,
      "note": 38,
      "start": 36.0115,
      "duration": 0.0162,
      "velocity": 115,
      "chip": "ym2612"
    },
    {
      "channel": 5,
      "note": 76,
      "start": 36.0127,
      "duration": 0.0161,
      "velocity": 98,
      "chip": "ym2612"
    },
    {
      "channel": 4,
      "note": 85,
      "start": 36.0138,
      "duration": 0.0161,
      "velocity": 86,
      "chip": "ym2612"
    },
    {
      "channel": 3,
      "note": 85,
      "start": 36.0151,
      "duration": 0.0161,
      "velocity": 86,
      "chip": "ym2612"
    },
    {
      "channel": 2,
      "note": 54,
      "start": 36.0162,
      "duration": 0.0161,
      "velocity": 93,
      "chip": "ym2612"
    },
    {
      "channel": 1,
      "note": 78,
      "start": 36.0176,
      "duration": 0.0159,
      "velocity": 98,
      "chip": "ym2612"
    },
    {
      "channel": 0,
      "note": 39,
      "start": 36.0276,
      "duration": 0.0161,
      "velocity": 115,
      "chip": "ym2612"
    },
    {
      "channel": 5,
      "note": 76,
      "start": 36.0288,
      "duration": 0.0161,
      "velocity": 98,
      "chip": "ym2612"
    },
    {
      "channel": 4,
      "note": 85,
      "start": 36.0299,
      "duration": 0.0161,
      "velocity": 86,
      "chip": "ym2612"
    },
    {
      "channel": 3,
      "note": 85,
      "start": 36.0311,
      "duration": 0.0161,
      "velocity": 86,
      "chip": "ym2612"
    },
    {
      "channel": 2,
      "note": 54,
      "start": 36.0323,
      "duration": 0.0161,
      "velocity": 93,
      "chip": "ym2612"
    },
    {
      "channel": 1,
      "note": 78,
      "start": 36.0335,
      "duration": 0.0161,
      "velocity": 98,
      "chip": "ym2612"
    },
    {
      "channel": 0,
      "note": 39,
      "start": 36.0437,
      "duration": 0.0161,
      "velocity": 115,
      "chip": "ym2612"
    },
    {
      "channel": 5,
      "note": 76,
      "start": 36.0449,
      "duration": 0.0161,
      "velocity": 98,
      "chip": "ym2612"
    },
    {
      "channel": 4,
      "note": 85,
      "start": 36.046,
      "duration": 0.0161,
      "velocity": 86,
      "chip": "ym2612"
    },
    {
      "channel": 3,
      "note": 85,
      "start": 36.0472,
      "duration": 0.0161,
      "velocity": 86,
      "chip": "ym2612"
    },
    {
      "channel": 2,
      "note": 54,
      "start": 36.0484,
      "duration": 0.0161,
      "velocity": 93,
      "chip": "ym2612"
    },
    {
      "channel": 1,
      "note": 78,
      "start": 36.0496,
      "duration": 0.0161,
      "velocity": 98,
      "chip": "ym2612"
    },
    {
      "channel": 0,
      "note": 40,
      "start": 36.0598,
      "duration": 0.0161,
      "velocity": 115,
      "chip": "ym2612"
    },
    {
      "channel": 5,
      "note": 76,
      "start": 36.061,
      "duration": 0.0161,
      "velocity": 98,
      "chip": "ym2612"
    },
    {
      "channel": 4,
      "note": 85,
      "start": 36.0622,
      "duration": 0.0161,
      "velocity": 86,
      "chip": "ym2612"
    },
    {
      "channel": 3,
      "note": 85,
      "start": 36.0633,
      "duration": 0.0161,
      "velocity": 86,
      "chip": "ym2612"
    },
    {
      "channel": 2,
      "note": 54,
      "start": 36.0645,
      "duration": 0.0162,
      "velocity": 93,
      "chip": "ym2612"
    },
    {
      "channel": 1,
      "note": 78,
      "start": 36.0657,
      "duration": 0.0161,
      "velocity": 98,
      "chip": "ym2612"
    },
    {
      "channel": 0,
      "note": 40,
      "start": 36.0759,
      "duration": 0.0161,
      "velocity": 115,
      "chip": "ym2612"
    },
    {
      "channel": 5,
      "note": 76,
      "start": 36.0771,
      "duration": 0.0161,
      "velocity": 98,
      "chip": "ym2612"
    },
    {
      "channel": 4,
      "note": 85,
      "start": 36.0783,
      "duration": 0.0161,
      "velocity": 86,
      "chip": "ym2612"
    },
    {
      "channel": 3,
      "note": 85,
      "start": 36.0794,
      "duration": 0.0161,
      "velocity": 86,
      "chip": "ym2612"
    },
    {
      "channel": 2,
      "note": 54,
      "start": 36.0807,
      "duration": 0.0161,
      "velocity": 93,
      "chip": "ym2612"
    },
    {
      "channel": 1,
      "note": 78,
      "start": 36.0818,
      "duration": 0.0161,
      "velocity": 98,
      "chip": "ym2612"
    },
    {
      "channel": 0,
      "note": 40,
      "start": 36.092,
      "duration": 0.0161,
      "velocity": 115,
      "chip": "ym2612"
    },
    {
      "channel": 5,
      "note": 76,
      "start": 36.0932,
      "duration": 0.0161,
      "velocity": 98,
      "chip": "ym2612"
    },
    {
      "channel": 4,
      "note": 85,
      "start": 36.0944,
      "duration": 0.0161,
      "velocity": 86,
      "chip": "ym2612"
    },
    {
      "channel": 3,
      "note": 85,
      "start": 36.0956,
      "duration": 0.0161,
      "velocity": 86,
      "chip": "ym2612"
    },
    {
      "channel": 2,
      "note": 54,
      "start": 36.0968,
      "duration": 0.0162,
      "velocity": 93,
      "chip": "ym2612"
    },
    {
      "channel": 1,
      "note": 78,
      "start": 36.0979,
      "duration": 0.0162,
      "velocity": 98,
      "chip": "ym2612"
    },
    {
      "channel": 0,
      "note": 41,
      "start": 36.1081,
      "duration": 0.0161,
      "velocity": 115,
      "chip": "ym2612"
    },
    {
      "channel": 5,
      "note": 76,
      "start": 36.1093,
      "duration": 0.0161,
      "velocity": 98,
      "chip": "ym2612"
    },
    {
      "channel": 4,
      "note": 85,
      "start": 36.1105,
      "duration": 0.0161,
      "velocity": 86,
      "chip": "ym2612"
    },
    {
      "channel": 2,
      "note": 54,
      "start": 36.1129,
      "duration": 0.0163,
      "velocity": 93,
      "chip": "ym2612"
    },
    {
      "channel": 1,
      "note": 78,
      "start": 36.1141,
      "duration": 0.0163,
      "velocity": 98,
      "chip": "ym2612"
    },
    {
      "channel": 0,
      "note": 41,
      "start": 36.1242,
      "duration": 0.0161,
      "velocity": 115,
      "chip": "ym2612"
    },
    {
      "channel": 5,
      "note": 76,
      "start": 36.1254,
      "duration": 0.0161,
      "velocity": 98,
      "chip": "ym2612"
    },
    {
      "channel": 4,
      "note": 85,
      "start": 36.1266,
      "duration": 0.0162,
      "velocity": 86,
      "chip": "ym2612"
    },
    {
      "channel": 3,
      "note": 76,
      "start": 36.1281,
      "duration": 0.0158,
      "velocity": 86,
      "chip": "ym2612"
    },
    {
      "channel": 2,
      "note": 54,
      "start": 36.1292,
      "duration": 0.0159,
      "velocity": 93,
      "chip": "ym2612"
    },
    {
      "channel": 1,
      "note": 78,
      "start": 36.1304,
      "duration": 0.0159,
      "velocity": 98,
      "chip": "ym2612"
    },
    {
      "channel": 0,
      "note": 42,
      "start": 36.1403,
      "duration": 0.0161,
      "velocity": 115,
      "chip": "ym2612"
    },
    {
      "channel": 4,
      "note": 85,
      "start": 36.1427,
      "duration": 0.0163,
      "velocity": 86,
      "chip": "ym2612"
    },
    {
      "channel": 3,
      "note": 76,
      "start": 36.1439,
      "duration": 0.0163,
      "velocity": 86,
      "chip": "ym2612"
    },
    {
      "channel": 2,
      "note": 54,
      "start": 36.1451,
      "duration": 0.0163,
      "velocity": 93,
      "chip": "ym2612"
    },
    {
      "channel": 1,
      "note": 78,
      "start": 36.1463,
      "duration": 0.0163,
      "velocity": 98,
      "chip": "ym2612"
    },
    {
      "channel": 0,
      "note": 42,
      "start": 36.1564,
      "duration": 0.0161,
      "velocity": 115,
      "chip": "ym2612"
    },
    {
      "channel": 5,
      "note": 78,
      "start": 36.1579,
      "duration": 0.0159,
      "velocity": 98,
      "chip": "ym2612"
    },
    {
      "channel": 3,
      "note": 76,
      "start": 36.1603,
      "duration": 0.0162,
      "velocity": 86,
      "chip": "ym2612"
    },
    {
      "channel": 2,
      "note": 54,
      "start": 36.1614,
      "duration": 0.0161,
      "velocity": 93,
      "chip": "ym2612"
    },
    {
      "channel": 1,
      "note": 78,
      "start": 36.1626,
      "duration": 0.0162,
      "velocity": 98,
      "chip": "ym2612"
    },
    {
      "channel": 0,
      "note": 43,
      "start": 36.1725,
      "duration": 0.0161,
      "velocity": 115,
      "chip": "ym2612"
    },
    {
      "channel": 5,
      "note": 78,
      "start": 36.1738,
      "duration": 0.016,
      "velocity": 98,
      "chip": "ym2612"
    },
    {
      "channel": 4,
      "note": 76,
      "start": 36.1753,
      "duration": 0.0157,
      "velocity": 86,
      "chip": "ym2612"
    },
    {
      "channel": 3,
      "note": 76,
      "start": 36.1764,
      "duration": 0.0158,
      "velocity": 86,
      "chip": "ym2612"
    },
    {
      "channel": 2,
      "note": 54,
      "start": 36.1776,
      "duration": 0.0159,
      "velocity": 93,
      "chip": "ym2612"
    },
    {
      "channel": 1,
      "note": 78,
      "start": 36.1788,
      "duration": 0.0158,
      "velocity": 98,
      "chip": "ym2612"
    },
    {
      "channel": 0,
      "note": 43,
      "start": 36.1886,
      "duration": 0.0161,
      "velocity": 115,
      "chip": "ym2612"
    },
    {
      "channel": 5,
      "note": 78,
      "start": 36.1898,
      "duration": 0.0161,
      "velocity": 98,
      "chip": "ym2612"
    },
    {
      "channel": 4,
      "note": 76,
      "start": 36.191,
      "duration": 0.016,
      "velocity": 86,
      "chip": "ym2612"
    },
    {
      "channel": 3,
      "note": 76,
      "start": 36.1922,
      "duration": 0.016,
      "velocity": 86,
      "chip": "ym2612"
    },
    {
      "channel": 2,
      "note": 54,
      "start": 36.1934,
      "duration": 0.0161,
      "velocity": 93,
      "chip": "ym2612"
    },
    {
      "channel": 1,
      "note": 78,
      "start": 36.1946,
      "duration": 0.0161,
      "velocity": 98,
      "chip": "ym2612"
    },
    {
      "channel": 0,
      "note": 44,
      "start": 36.2047,
      "duration": 0.0179,
      "velocity": 124,
      "chip": "ym2612"
    },
    {
      "channel": 5,
      "note": 78,
      "start": 36.2059,
      "duration": 0.0179,
      "velocity": 98,
      "chip": "ym2612"
    },
    {
      "channel": 4,
      "note": 76,
      "start": 36.207,
      "duration": 0.0179,
      "velocity": 86,
      "chip": "ym2612"
    },
    {
      "channel": 2,
      "note": 54,
      "start": 36.2095,
      "duration": 0.0184,
      "velocity": 93,
      "chip": "ym2612"
    },
    {
      "channel": 1,
      "note": 78,
      "start": 36.2107,
      "duration": 0.0185,
      "velocity": 98,
      "chip": "ym2612"
    },
    {
      "channel": 0,
      "note": 84,
      "start": 36.2227,
      "duration": 0.0144,
      "velocity": 124,
      "chip": "ym2612"
    },
    {
      "channel": 5,
      "note": 78,
      "start": 36.2238,
      "duration": 0.0144,
      "velocity": 98,
      "chip": "ym2612"
    },
    {
      "channel": 4,
      "note": 76,
      "start": 36.225,
      "duration": 0.0144,
      "velocity": 86,
      "chip": "ym2612"
    },
    {
      "channel": 3,
      "note": 81,
      "start": 36.2265,
      "duration": 0.0141,
      "velocity": 86,
      "chip": "ym2612"
    },
    {
      "channel": 2,
      "note": 54,
      "start": 36.2279,
      "duration": 0.0139,
      "velocity": 93,
      "chip": "ym2612"
    },
    {
      "channel": 1,
      "note": 78,
      "start": 36.2291,
      "duration": 0.0139,
      "velocity": 98,
      "chip": "ym2612"
    },
    {
      "channel": 0,
      "note": 82,
      "start": 36.2371,
      "duration": 0.0163,
      "velocity": 124,
      "chip": "ym2612"
    },
    {
      "channel": 5,
      "note": 78,
      "start": 36.2382,
      "duration": 0.0164,
      "velocity": 98,
      "chip": "ym2612"
    },
    {
      "channel": 4,
      "note": 76,
      "start": 36.2393,
      "duration": 0.0164,
      "velocity": 86,
      "chip": "ym2612"
    },
    {
      "channel": 3,
      "note": 81,
      "start": 36.2406,
      "duration": 0.0163,
      "velocity": 86,
      "chip": "ym2612"
    },
    {
      "channel": 2,
      "note": 54,
      "start": 36.2418,
      "duration": 0.0163,
      "velocity": 93,
      "chip": "ym2612"
    },
    {
      "channel": 1,
      "note": 78,
      "start": 36.243,
      "duration": 0.0163,
      "velocity": 98,
      "chip": "ym2612"
    },
    {
      "channel": 0,
      "note": 80,
      "start": 36.2534,
      "duration": 0.0163,
      "velocity": 124,
      "chip": "ym2612"
    },
    {
      "channel": 5,
      "note": 78,
      "start": 36.2546,
      "duration": 0.0163,
      "velocity": 98,
      "chip": "ym2612"
    },
    {
      "channel": 3,
      "note": 81,
      "start": 36.257,
      "duration": 0.0166,
      "velocity": 86,
      "chip": "ym2612"
    },
    {
      "channel": 2,
      "note": 54,
      "start": 36.2581,
      "duration": 0.0166,
      "velocity": 93,
      "chip": "ym2612"
    },
    {
      "channel": 1,
      "note": 78,
      "start": 36.2593,
      "duration": 0.0166,
      "velocity": 98,
      "chip": "ym2612"
    },
    {
      "channel": 0,
      "note": 77,
      "start": 36.2698,
      "duration": 0.0161,
      "velocity": 124,
      "chip": "ym2612"
    },
    {
      "channel": 5,
      "note": 78,
      "start": 36.2709,
      "duration": 0.0161,
      "velocity": 98,
      "chip": "ym2612"
    },
    {
      "channel": 4,
      "note": 81,
      "start": 36.2724,
      "duration": 0.0159,
      "velocity": 86,
      "chip": "ym2612"
    },
    {
      "channel": 3,
      "note": 81,
      "start": 36.2735,
      "duration": 0.0159,
      "velocity": 86,
      "chip": "ym2612"
    },
    {
      "channel": 2,
      "note": 54,
      "start": 36.2747,
      "duration": 0.0159,
      "velocity": 93,
      "chip": "ym2612"
    },
    {
      "channel": 1,
      "note": 78,
      "start": 36.2759,
      "duration": 0.0159,
      "velocity": 98,
      "chip": "ym2612"
    },
    {
      "channel": 0,
      "note": 75,
      "start": 36.2859,
      "duration": 0.016,
      "velocity": 124,
      "chip": "ym2612"
    },
    {
      "channel": 5,
      "note": 78,
      "start": 36.287,
      "duration": 0.0161,
      "velocity": 98,
      "chip": "ym2612"
    },
    {
      "channel": 4,
      "note": 81,
      "start": 36.2882,
      "duration": 0.0161,
      "velocity": 86,
      "chip": "ym2612"
    },
    {
      "channel": 3,
      "note": 81,
      "start": 36.2894,
      "duration": 0.016,
      "velocity": 86,
      "chip": "ym2612"
    },
    {
      "channel": 2,
      "note": 54,
      "start": 36.2906,
      "duration": 0.016,
      "velocity": 93,
      "chip": "ym2612"
    },
    {
      "channel": 1,
      "note": 78,
      "start": 36.2917,
      "duration": 0.0161,
      "velocity": 98,
      "chip": "ym2612"
    },
    {
      "channel": 0,
      "note": 72,
      "start": 36.3019,
      "duration": 0.0158,
      "velocity": 124,
      "chip": "ym2612"
    },
    {
      "channel": 5,
      "note": 78,
      "start": 36.3031,
      "duration": 0.0161,
      "velocity": 98,
      "chip": "ym2612"
    },
    {
      "channel": 4,
      "note": 81,
      "start": 36.3043,
      "duration": 0.016,
      "velocity": 86,
      "chip": "ym2612"
    },
    {
      "channel": 3,
      "note": 81,
      "start": 36.3054,
      "duration": 0.0161,
      "velocity": 86,
      "chip": "ym2612"
    },
    {
      "channel": 2,
      "note": 54,
      "start": 36.3066,
      "duration": 0.0161,
      "velocity": 93,
      "chip": "ym2612"
    },
    {
      "channel": 1,
      "note": 78,
      "start": 36.3078,
      "duration": 0.0161,
      "velocity": 98,
      "chip": "ym2612"
    },
    {
      "channel": 0,
      "note": 70,
      "start": 36.3177,
      "duration": 0.0159,
      "velocity": 124,
      "chip": "ym2612"
    },
    {
      "channel": 5,
      "note": 78,
      "start": 36.3192,
      "duration": 0.016,
      "velocity": 98,
      "chip": "ym2612"
    },
    {
      "channel": 4,
      "note": 81,
      "start": 36.3203,
      "duration": 0.0161,
      "velocity": 86,
      "chip": "ym2612"
    },
    {
      "channel": 3,
      "note": 81,
      "start": 36.3215,
      "duration": 0.0161,
      "velocity": 86,
      "chip": "ym2612"
    },
    {
      "channel": 2,
      "note": 54,
      "start": 36.3227,
      "duration": 0.0161,
      "velocity": 93,
      "chip": "ym2612"
    },
    {
      "channel": 1,
      "note": 78,
      "start": 36.3239,
      "duration": 0.0161,
      "velocity": 98,
      "chip": "ym2612"
    },
    {
      "channel": 0,
      "note": 68,
      "start": 36.3336,
      "duration": 0.0161,
      "velocity": 124,
      "chip": "ym2612"
    },
    {
      "channel": 5,
      "note": 78,
      "start": 36.3352,
      "duration": 0.0158,
      "velocity": 98,
      "chip": "ym2612"
    },
    {
      "channel": 4,
      "note": 81,
      "start": 36.3364,
      "duration": 0.0162,
      "velocity": 86,
      "chip": "ym2612"
    },
    {
      "channel": 3,
      "note": 81,
      "start": 36.3376,
      "duration": 0.0161,
      "velocity": 86,
      "chip": "ym2612"
    },
    {
      "channel": 2,
      "note": 54,
      "start": 36.3388,
      "duration": 0.0162,
      "velocity": 93,
      "chip": "ym2612"
    },
    {
      "channel": 1,
      "note": 78,
      "start": 36.34,
      "duration": 0.0161,
      "velocity": 98,
      "chip": "ym2612"
    },
    {
      "channel": 0,
      "note": 65,
      "start": 36.3497,
      "duration": 0.0161,
      "velocity": 124,
      "chip": "ym2612"
    },
    {
      "channel": 5,
      "note": 78,
      "start": 36.351,
      "duration": 0.0159,
      "velocity": 98,
      "chip": "ym2612"
    },
    {
      "channel": 4,
      "note": 81,
      "start": 36.3526,
      "duration": 0.016,
      "velocity": 86,
      "chip": "ym2612"
    },
    {
      "channel": 3,
      "note": 81,
      "start": 36.3537,
      "duration": 0.0162,
      "velocity": 86,
      "chip": "ym2612"
    },
    {
      "channel": 2,
      "note": 54,
      "start": 36.3549,
      "duration": 0.0161,
      "velocity": 93,
      "chip": "ym2612"
    },
    {
      "channel": 1,
      "note": 78,
      "start": 36.3561,
      "duration": 0.0162,
      "velocity": 98,
      "chip": "ym2612"
    },
    {
      "channel": 0,
      "note": 63,
      "start": 36.3657,
      "duration": 0.0153,
      "velocity": 1,
      "chip": "ym2612"
    },
    {
      "channel": 5,
      "note": 78,
      "start": 36.3669,
      "duration": 0.0153,
      "velocity": 98,
      "chip": "ym2612"
    },
    {
      "channel": 4,
      "note": 81,
      "start": 36.3686,
      "duration": 0.0148,
      "velocity": 86,
      "chip": "ym2612"
    },
    {
      "channel": 3,
      "note": 81,
      "start": 36.3699,
      "duration": 0.0152,
      "velocity": 86,
      "chip": "ym2612"
    },
    {
      "channel": 2,
      "note": 54,
      "start": 36.3711,
      "duration": 0.0153,
      "velocity": 93,
      "chip": "ym2612"
    },
    {
      "channel": 1,
      "note": 78,
      "start": 36.3722,
      "duration": 0.0153,
      "velocity": 98,
      "chip": "ym2612"
    },
    {
      "channel": 5,
      "note": 78,
      "start": 36.3822,
      "duration": 0.0153,
      "velocity": 98,
      "chip": "ym2612"
    },
    {
      "channel": 4,
      "note": 81,
      "start": 36.3834,
      "duration": 0.0153,
      "velocity": 86,
      "chip": "ym2612"
    },
    {
      "channel": 3,
      "note": 81,
      "start": 36.3851,
      "duration": 0.0148,
      "velocity": 86,
      "chip": "ym2612"
    },
    {
      "channel": 2,
      "note": 54,
      "start": 36.3863,
      "duration": 0.0152,
      "velocity": 93,
      "chip": "ym2612"
    },
    {
      "channel": 1,
      "note": 78,
      "start": 36.3875,
      "duration": 0.0153,
      "velocity": 98,
      "chip": "ym2612"
    },
    {
      "channel": 5,
      "note": 78,
      "start": 36.3974,
      "duration": 0.0161,
      "velocity": 98,
      "chip": "ym2612"
    },
    {
      "channel": 4,
      "note": 81,
      "start": 36.3986,
      "duration": 0.0161,
      "velocity": 86,
      "chip": "ym2612"
    },
    {
      "channel": 2,
      "note": 54,
      "start": 36.4016,
      "duration": 0.016,
      "velocity": 93,
      "chip": "ym2612"
    },
    {
      "channel": 1,
      "note": 78,
      "start": 36.4028,
      "duration": 0.0163,
      "velocity": 98,
      "chip": "ym2612"
    },
    {
      "channel": 5,
      "note": 78,
      "start": 36.4135,
      "duration": 0.0161,
      "velocity": 98,
      "chip": "ym2612"
    },
    {
      "channel": 4,
      "note": 81,
      "start": 36.4147,
      "duration": 0.0161,
      "velocity": 86,
      "chip": "ym2612"
    },
    {
      "channel": 3,
      "note": 85,
      "start": 36.4163,
      "duration": 0.0158,
      "velocity": 86,
      "chip": "ym2612"
    },
    {
      "channel": 2,
      "note": 54,
      "start": 36.4176,
      "duration": 0.0156,
      "velocity": 93,
      "chip": "ym2612"
    },
    {
      "channel": 1,
      "note": 78,
      "start": 36.4191,
      "duration": 0.0158,
      "velocity": 98,
      "chip": "ym2612"
    },
    {
      "channel": 5,
      "note": 78,
      "start": 36.4296,
      "duration": 0.0161,
      "velocity": 98,
      "chip": "ym2612"
    },
    {
      "channel": 4,
      "note": 81,
      "start": 36.4308,
      "duration": 0.0161,
      "velocity": 86,
      "chip": "ym2612"
    },
    {
      "channel": 3,
      "note": 85,
      "start": 36.432,
      "duration": 0.0161,
      "velocity": 86,
      "chip": "ym2612"
    },
    {
      "channel": 2,
      "note": 54,
      "start": 36.4332,
      "duration": 0.016,
      "velocity": 93,
      "chip": "ym2612"
    },
    {
      "channel": 1,
      "note": 78,
      "start": 36.4349,
      "duration": 0.0155,
      "velocity": 98,
      "chip": "ym2612"
    },
    {
      "channel": 5,
      "note": 78,
      "start": 36.4457,
      "duration": 0.0161,
      "velocity": 98,
      "chip": "ym2612"
    },
    {
      "channel": 3,
      "note": 85,
      "start": 36.4481,
      "duration": 0.0163,
      "velocity": 86,
      "chip": "ym2612"
    },
    {
      "channel": 2,
      "note": 54,
      "start": 36.4493,
      "duration": 0.0164,
      "velocity": 93,
      "chip": "ym2612"
    },
    {
      "channel": 1,
      "note": 78,
      "start": 36.4504,
      "duration": 0.0164,
      "velocity": 98,
      "chip": "ym2612"
    },
    {
      "channel": 5,
      "note": 78,
      "start": 36.4618,
      "duration": 0.0161,
      "velocity": 98,
      "chip": "ym2612"
    },
    {
      "channel": 4,
      "note": 85,
      "start": 36.4633,
      "duration": 0.0158,
      "velocity": 86,
      "chip": "ym2612"
    },
    {
      "channel": 3,
      "note": 85,
      "start": 36.4645,
      "duration": 0.0159,
      "velocity": 86,
      "chip": "ym2612"
    },
    {
      "channel": 2,
      "note": 54,
      "start": 36.4657,
      "duration": 0.0158,
      "velocity": 93,
      "chip": "ym2612"
    },
    {
      "channel": 1,
      "note": 78,
      "start": 36.4668,
      "duration": 0.0159,
      "velocity": 98,
      "chip": "ym2612"
    },
    {
      "channel": 5,
      "note": 78,
      "start": 36.478,
      "duration": 0.0161,
      "velocity": 98,
      "chip": "ym2612"
    },
    {
      "channel": 4,
      "note": 85,
      "start": 36.4792,
      "duration": 0.016,
      "velocity": 86,
      "chip": "ym2612"
    },
    {
      "channel": 3,
      "note": 85,
      "start": 36.4803,
      "duration": 0.016,
      "velocity": 86,
      "chip": "ym2612"
    },
    {
      "channel": 2,
      "note": 54,
      "start": 36.4815,
      "duration": 0.0161,
      "velocity": 93,
      "chip": "ym2612"
    },
    {
      "channel": 1,
      "note": 78,
      "start": 36.4827,
      "duration": 0.016,
      "velocity": 98,
      "chip": "ym2612"
    },
    {
      "channel": 5,
      "note": 78,
      "start": 36.4941,
      "duration": 0.0196,
      "velocity": 98,
      "chip": "ym2612"
    },
    {
      "channel": 4,
      "note": 85,
      "start": 36.4952,
      "duration": 0.0196,
      "velocity": 86,
      "chip": "ym2612"
    },
    {
      "channel": 3,
      "note": 85,
      "start": 36.4963,
      "duration": 0.0197,
      "velocity": 86,
      "chip": "ym2612"
    },
    {
      "channel": 2,
      "note": 54,
      "start": 36.4976,
      "duration": 0.02,
      "velocity": 93,
      "chip": "ym2612"
    },
    {
      "channel": 1,
      "note": 78,
      "start": 36.4988,
      "duration": 0.0205,
      "velocity": 98,
      "chip": "ym2612"
    },
    {
      "channel": 0,
      "note": 36,
      "start": 36.5125,
      "duration": 0.0143,
      "velocity": 115,
      "chip": "ym2612"
    },
    {
      "channel": 5,
      "note": 78,
      "start": 36.5137,
      "duration": 0.0143,
      "velocity": 98,
      "chip": "ym2612"
    },
    {
      "channel": 4,
      "note": 85,
      "start": 36.5148,
      "duration": 0.0144,
      "velocity": 86,
      "chip": "ym2612"
    },
    {
      "channel": 3,
      "note": 85,
      "start": 36.516,
      "duration": 0.0143,
      "velocity": 86,
      "chip": "ym2612"
    },
    {
      "channel": 2,
      "note": 54,
      "start": 36.5177,
      "duration": 0.0139,
      "velocity": 93,
      "chip": "ym2612"
    },
    {
      "channel": 1,
      "note": 78,
      "start": 36.5193,
      "duration": 0.0135,
      "velocity": 98,
      "chip": "ym2612"
    },
    {
      "channel": 0,
      "note": 36,
      "start": 36.5268,
      "duration": 0.016,
      "velocity": 115,
      "chip": "ym2612"
    },
    {
      "channel": 5,
      "note": 78,
      "start": 36.528,
      "duration": 0.016,
      "velocity": 98,
      "chip": "ym2612"
    },
    {
      "channel": 4,
      "note": 85,
      "start": 36.5292,
      "duration": 0.016,
      "velocity": 86,
      "chip": "ym2612"
    },
    {
      "channel": 3,
      "note": 85,
      "start": 36.5303,
      "duration": 0.016,
      "velocity": 86,
      "chip": "ym2612"
    },
    {
      "channel": 2,
      "note": 54,
      "start": 36.5316,
      "duration": 0.016,
      "velocity": 93,
      "chip": "ym2612"
    },
    {
      "channel": 1,
      "note": 78,
      "start": 36.5327,
      "duration": 0.016,
      "velocity": 98,
      "chip": "ym2612"
    },
    {
      "channel": 0,
      "note": 37,
      "start": 36.5429,
      "duration": 0.0161,
      "velocity": 115,
      "chip": "ym2612"
    },
    {
      "channel": 5,
      "note": 78,
      "start": 36.544,
      "duration": 0.0162,
      "velocity": 98,
      "chip": "ym2612"
    },
    {
      "channel": 4,
      "note": 85,
      "start": 36.5452,
      "duration": 0.0161,
      "velocity": 86,
      "chip": "ym2612"
    },
    {
      "channel": 3,
      "note": 85,
      "start": 36.5463,
      "duration": 0.0161,
      "velocity": 86,
      "chip": "ym2612"
    },
    {
      "channel": 2,
      "note": 54,
      "start": 36.5476,
      "duration": 0.0161,
      "velocity": 93,
      "chip": "ym2612"
    },
    {
      "channel": 1,
      "note": 78,
      "start": 36.5487,
      "duration": 0.0161,
      "velocity": 98,
      "chip": "ym2612"
    },
    {
      "channel": 0,
      "note": 37,
      "start": 36.5589,
      "duration": 0.0161,
      "velocity": 115,
      "chip": "ym2612"
    },
    {
      "channel": 5,
      "note": 78,
      "start": 36.5602,
      "duration": 0.0161,
      "velocity": 98,
      "chip": "ym2612"
    },
    {
      "channel": 4,
      "note": 85,
      "start": 36.5613,
      "duration": 0.0161,
      "velocity": 86,
      "chip": "ym2612"
    },
    {
      "channel": 3,
      "note": 85,
      "start": 36.5625,
      "duration": 0.0161,
      "velocity": 86,
      "chip": "ym2612"
    },
    {
      "channel": 2,
      "note": 54,
      "start": 36.5637,
      "duration": 0.0161,
      "velocity": 93,
      "chip": "ym2612"
    },
    {
      "channel": 1,
      "note": 78,
      "start": 36.5649,
      "duration": 0.0161,
      "velocity": 98,
      "chip": "ym2612"
    },
    {
      "channel": 0,
      "note": 38,
      "start": 36.575,
      "duration": 0.0161,
      "velocity": 115,
      "chip": "ym2612"
    },
    {
      "channel": 5,
      "note": 78,
      "start": 36.5762,
      "duration": 0.0161,
      "velocity": 98,
      "chip": "ym2612"
    },
    {
      "channel": 4,
      "note": 85,
      "start": 36.5774,
      "duration": 0.0161,
      "velocity": 86,
      "chip": "ym2612"
    },
    {
      "channel": 3,
      "note": 85,
      "start": 36.5786,
      "duration": 0.0161,
      "velocity": 86,
      "chip": "ym2612"
    },
    {
      "channel": 2,
      "note": 54,
      "start": 36.5798,
      "duration": 0.0161,
      "velocity": 93,
      "chip": "ym2612"
    },
    {
      "channel": 1,
      "note": 78,
      "start": 36.581,
      "duration": 0.0161,
      "velocity": 98,
      "chip": "ym2612"
    },
    {
      "channel": 0,
      "note": 38,
      "start": 36.5911,
      "duration": 0.0161,
      "velocity": 115,
      "chip": "ym2612"
    },
    {
      "channel": 5,
      "note": 78,
      "start": 36.5923,
      "duration": 0.0161,
      "velocity": 98,
      "chip": "ym2612"
    },
    {
      "channel": 4,
      "note": 85,
      "start": 36.5935,
      "duration": 0.0161,
      "velocity": 86,
      "chip": "ym2612"
    },
    {
      "channel": 3,
      "note": 85,
      "start": 36.5947,
      "duration": 0.0161,
      "velocity": 86,
      "chip": "ym2612"
    },
    {
      "channel": 2,
      "note": 54,
      "start": 36.5958,
      "duration": 0.0161,
      "velocity": 93,
      "chip": "ym2612"
    },
    {
      "channel": 1,
      "note": 78,
      "start": 36.5971,
      "duration": 0.0161,
      "velocity": 98,
      "chip": "ym2612"
    },
    {
      "channel": 0,
      "note": 39,
      "start": 36.6072,
      "duration": 0.0161,
      "velocity": 115,
      "chip": "ym2612"
    },
    {
      "channel": 5,
      "note": 78,
      "start": 36.6084,
      "duration": 0.0161,
      "velocity": 98,
      "chip": "ym2612"
    },
    {
      "channel": 4,
      "note": 85,
      "start": 36.6096,
      "duration": 0.0161,
      "velocity": 86,
      "chip": "ym2612"
    },
    {
      "channel": 3,
      "note": 85,
      "start": 36.6108,
      "duration": 0.0161,
      "velocity": 86,
      "chip": "ym2612"
    },
    {
      "channel": 2,
      "note": 54,
      "start": 36.6119,
      "duration": 0.0161,
      "velocity": 93,
      "chip": "ym2612"
    },
    {
      "channel": 1,
      "note": 78,
      "start": 36.6131,
      "duration": 0.0161,
      "velocity": 98,
      "chip": "ym2612"
    },
    {
      "channel": 0,
      "note": 39,
      "start": 36.6234,
      "duration": 0.0161,
      "velocity": 115,
      "chip": "ym2612"
    },
    {
      "channel": 5,
      "note": 78,
      "start": 36.6245,
      "duration": 0.0161,
      "velocity": 98,
      "chip": "ym2612"
    },
    {
      "channel": 4,
      "note": 85,
      "start": 36.6257,
      "duration": 0.0162,
      "velocity": 86,
      "chip": "ym2612"
    },
    {
      "channel": 3,
      "note": 85,
      "start": 36.6269,
      "duration": 0.0161,
      "velocity": 86,
      "chip": "ym2612"
    },
    {
      "channel": 2,
      "note": 54,
      "start": 36.628,
      "duration": 0.0161,
      "velocity": 93,
      "chip": "ym2612"
    },
    {
      "channel": 1,
      "note": 78,
      "start": 36.6292,
      "duration": 0.0161,
      "velocity": 98,
      "chip": "ym2612"
    },
    {
      "channel": 0,
      "note": 40,
      "start": 36.6395,
      "duration": 0.0161,
      "velocity": 115,
      "chip": "ym2612"
    },
    {
      "channel": 5,
      "note": 78,
      "start": 36.6406,
      "duration": 0.0161,
      "velocity": 98,
      "chip": "ym2612"
    },
    {
      "channel": 4,
      "note": 85,
      "start": 36.6418,
      "duration": 0.0161,
      "velocity": 86,
      "chip": "ym2612"
    },
    {
      "channel": 3,
      "note": 85,
      "start": 36.643,
      "duration": 0.0161,
      "velocity": 86,
      "chip": "ym2612"
    },
    {
      "channel": 2,
      "note": 54,
      "start": 36.6442,
      "duration": 0.0162,
      "velocity": 93,
      "chip": "ym2612"
    },
    {
      "channel": 1,
      "note": 78,
      "start": 36.6453,
      "duration": 0.0161,
      "velocity": 98,
      "chip": "ym2612"
    },
    {
      "channel": 0,
      "note": 40,
      "start": 36.6556,
      "duration": 0.0161,
      "velocity": 115,
      "chip": "ym2612"
    },
    {
      "channel": 5,
      "note": 78,
      "start": 36.6567,
      "duration": 0.0161,
      "velocity": 98,
      "chip": "ym2612"
    },
    {
      "channel": 4,
      "note": 85,
      "start": 36.6579,
      "duration": 0.0161,
      "velocity": 86,
      "chip": "ym2612"
    },
    {
      "channel": 3,
      "note": 85,
      "start": 36.6591,
      "duration": 0.0161,
      "velocity": 86,
      "chip": "ym2612"
    },
    {
      "channel": 2,
      "note": 54,
      "start": 36.6603,
      "duration": 0.016,
      "velocity": 93,
      "chip": "ym2612"
    },
    {
      "channel": 1,
      "note": 78,
      "start": 36.6615,
      "duration": 0.0161,
      "velocity": 98,
      "chip": "ym2612"
    },
    {
      "channel": 0,
      "note": 40,
      "start": 36.6717,
      "duration": 0.0161,
      "velocity": 115,
      "chip": "ym2612"
    },
    {
      "channel": 5,
      "note": 78,
      "start": 36.6728,
      "duration": 0.0161,
      "velocity": 98,
      "chip": "ym2612"
    },
    {
      "channel": 4,
      "note": 85,
      "start": 36.674,
      "duration": 0.0161,
      "velocity": 86,
      "chip": "ym2612"
    },
    {
      "channel": 3,
      "note": 85,
      "start": 36.6752,
      "duration": 0.0161,
      "velocity": 86,
      "chip": "ym2612"
    },
    {
      "channel": 2,
      "note": 54,
      "start": 36.6764,
      "duration": 0.0161,
      "velocity": 93,
      "chip": "ym2612"
    },
    {
      "channel": 1,
      "note": 78,
      "start": 36.6776,
      "duration": 0.0162,
      "velocity": 98,
      "chip": "ym2612"
    },
    {
      "channel": 0,
      "note": 41,
      "start": 36.6878,
      "duration": 0.018,
      "velocity": 115,
      "chip": "ym2612"
    },
    {
      "channel": 5,
      "note": 78,
      "start": 36.6889,
      "duration": 0.018,
      "velocity": 98,
      "chip": "ym2612"
    },
    {
      "channel": 4,
      "note": 85,
      "start": 36.6901,
      "duration": 0.018,
      "velocity": 86,
      "chip": "ym2612"
    },
    {
      "channel": 2,
      "note": 54,
      "start": 36.6925,
      "duration": 0.0183,
      "velocity": 93,
      "chip": "ym2612"
    },
    {
      "channel": 1,
      "note": 78,
      "start": 36.6937,
      "duration": 0.0183,
      "velocity": 98,
      "chip": "ym2612"
    },
    {
      "channel": 0,
      "note": 36,
      "start": 36.7058,
      "duration": 0.0145,
      "velocity": 115,
      "chip": "ym2612"
    },
    {
      "channel": 5,
      "note": 78,
      "start": 36.707,
      "duration": 0.0144,
      "velocity": 98,
      "chip": "ym2612"
    },
    {
      "channel": 4,
      "note": 85,
      "start": 36.7081,
      "duration": 0.0145,
      "velocity": 86,
      "chip": "ym2612"
    },
    {
      "channel": 3,
      "note": 76,
      "start": 36.7096,
      "duration": 0.0142,
      "velocity": 86,
      "chip": "ym2612"
    },
    {
      "channel": 2,
      "note": 54,
      "start": 36.7108,
      "duration": 0.0142,
      "velocity": 93,
      "chip": "ym2612"
    },
    {
      "channel": 1,
      "note": 78,
      "start": 36.712,
      "duration": 0.0142,
      "velocity": 98,
      "chip": "ym2612"
    },
    {
      "channel": 0,
      "note": 36,
      "start": 36.7203,
      "duration": 0.0162,
      "velocity": 115,
      "chip": "ym2612"
    },
    {
      "channel": 5,
      "note": 78,
      "start": 36.7214,
      "duration": 0.0163,
      "velocity": 98,
      "chip": "ym2612"
    },
    {
      "channel": 4,
      "note": 85,
      "start": 36.7226,
      "duration": 0.0162,
      "velocity": 86,
      "chip": "ym2612"
    },
    {
      "channel": 3,
      "note": 76,
      "start": 36.7238,
      "duration": 0.0162,
      "velocity": 86,
      "chip": "ym2612"
    },
    {
      "channel": 2,
      "note": 54,
      "start": 36.725,
      "duration": 0.0162,
      "velocity": 93,
      "chip": "ym2612"
    },
    {
      "channel": 1,
      "note": 78,
      "start": 36.7262,
      "duration": 0.0162,
      "velocity": 98,
      "chip": "ym2612"
    },
    {
      "channel": 0,
      "note": 37,
      "start": 36.7365,
      "duration": 0.0163,
      "velocity": 115,
      "chip": "ym2612"
    },
    {
      "channel": 5,
      "note": 78,
      "start": 36.7377,
      "duration": 0.0162,
      "velocity": 98,
      "chip": "ym2612"
    },
    {
      "channel": 3,
      "note": 76,
      "start": 36.74,
      "duration": 0.0165,
      "velocity": 86,
      "chip": "ym2612"
    },
    {
      "channel": 2,
      "note": 54,
      "start": 36.7412,
      "duration": 0.0166,
      "velocity": 93,
      "chip": "ym2612"
    },
    {
      "channel": 1,
      "note": 78,
      "start": 36.7424,
      "duration": 0.0165,
      "velocity": 98,
      "chip": "ym2612"
    },
    {
      "channel": 0,
      "note": 37,
      "start": 36.7528,
      "duration": 0.016,
      "velocity": 115,
      "chip": "ym2612"
    },
    {
      "channel": 5,
      "note": 78,
      "start": 36.7539,
      "duration": 0.0161,
      "velocity": 98,
      "chip": "ym2612"
    },
    {
      "channel": 4,
      "note": 76,
      "start": 36.7554,
      "duration": 0.0159,
      "velocity": 86,
      "chip": "ym2612"
    },
    {
      "channel": 3,
      "note": 76,
      "start": 36.7566,
      "duration": 0.0159,
      "velocity": 86,
      "chip": "ym2612"
    },
    {
      "channel": 2,
      "note": 54,
      "start": 36.7578,
      "duration": 0.0158,
      "velocity": 93,
      "chip": "ym2612"
    },
    {
      "channel": 1,
      "note": 78,
      "start": 36.7589,
      "duration": 0.0159,
      "velocity": 98,
      "chip": "ym2612"
    },
    {
      "channel": 0,
      "note": 38,
      "start": 36.7688,
      "duration": 0.0158,
      "velocity": 115,
      "chip": "ym2612"
    },
    {
      "channel": 5,
      "note": 78,
      "start": 36.77,
      "duration": 0.0161,
      "velocity": 98,
      "chip": "ym2612"
    },
    {
      "channel": 4,
      "note": 76,
      "start": 36.7713,
      "duration": 0.016,
      "velocity": 86,
      "chip": "ym2612"
    },
    {
      "channel": 3,
      "note": 76,
      "start": 36.7724,
      "duration": 0.016,
      "velocity": 86,
      "chip": "ym2612"
    },
    {
      "channel": 2,
      "note": 54,
      "start": 36.7736,
      "duration": 0.0161,
      "velocity": 93,
      "chip": "ym2612"
    },
    {
      "channel": 1,
      "note": 78,
      "start": 36.7749,
      "duration": 0.016,
      "velocity": 98,
      "chip": "ym2612"
    },
    {
      "channel": 0,
      "note": 38,
      "start": 36.7846,
      "duration": 0.0183,
      "velocity": 124,
      "chip": "ym2612"
    },
    {
      "channel": 5,
      "note": 78,
      "start": 36.7861,
      "duration": 0.0179,
      "velocity": 98,
      "chip": "ym2612"
    },
    {
      "channel": 4,
      "note": 76,
      "start": 36.7873,
      "duration": 0.018,
      "velocity": 86,
      "chip": "ym2612"
    },
    {
      "channel": 2,
      "note": 54,
      "start": 36.7897,
      "duration": 0.0184,
      "velocity": 93,
      "chip": "ym2612"
    },
    {
      "channel": 0,
      "note": 84,
      "start": 36.8029,
      "duration": 0.0137,
      "velocity": 124,
      "chip": "ym2612"
    },
    {
      "channel": 5,
      "note": 78,
      "start": 36.804,
      "duration": 0.0143,
      "velocity": 98,
      "chip": "ym2612"
    },
    {
      "channel": 4,
      "note": 76,
      "start": 36.8053,
      "duration": 0.0143,
      "velocity": 86,
      "chip": "ym2612"
    },
    {
      "channel": 3,
      "note": 81,
      "start": 36.8067,
      "duration": 0.0141,
      "velocity": 86,
      "chip": "ym2612"
    },
    {
      "channel": 2,
      "note": 54,
      "start": 36.8082,
      "duration": 0.0138,
      "velocity": 93,
      "chip": "ym2612"
    },
    {
      "channel": 1,
      "note": 76,
      "start": 36.8096,
      "duration": 0.0136,
      "velocity": 98,
      "chip": "ym2612"
    },
    {
      "channel": 0,
      "note": 82,
      "start": 36.8166,
      "duration": 0.016,
      "velocity": 124,
      "chip": "ym2612"
    },
    {
      "channel": 5,
      "note": 78,
      "start": 36.8183,
      "duration": 0.0155,
      "velocity": 98,
      "chip": "ym2612"
    },
    {
      "channel": 4,
      "note": 76,
      "start": 36.8196,
      "duration": 0.016,
      "velocity": 86,
      "chip": "ym2612"
    },
    {
      "channel": 3,
      "note": 81,
      "start": 36.8208,
      "duration": 0.016,
      "velocity": 86,
      "chip": "ym2612"
    },
    {
      "channel": 2,
      "note": 54,
      "start": 36.822,
      "duration": 0.016,
      "velocity": 93,
      "chip": "ym2612"
    },
    {
      "channel": 1,
      "note": 76,
      "start": 36.8232,
      "duration": 0.0159,
      "velocity": 98,
      "chip": "ym2612"
    },
    {
      "channel": 0,
      "note": 80,
      "start": 36.8327,
      "duration": 0.0161,
      "velocity": 124,
      "chip": "ym2612"
    },
    {
      "channel": 5,
      "note": 78,
      "start": 36.8338,
      "duration": 0.0162,
      "velocity": 98,
      "chip": "ym2612"
    },
    {
      "channel": 3,
      "note": 81,
      "start": 36.8368,
      "duration": 0.0163,
      "velocity": 86,
      "chip": "ym2612"
    },
    {
      "channel": 2,
      "note": 54,
      "start": 36.838,
      "duration": 0.0164,
      "velocity": 93,
      "chip": "ym2612"
    },
    {
      "channel": 1,
      "note": 76,
      "start": 36.8391,
      "duration": 0.0164,
      "velocity": 98,
      "chip": "ym2612"
    },
    {
      "channel": 0,
      "note": 77,
      "start": 36.8488,
      "duration": 0.0161,
      "velocity": 124,
      "chip": "ym2612"
    },
    {
      "channel": 5,
      "note": 78,
      "start": 36.85,
      "duration": 0.0161,
      "velocity": 98,
      "chip": "ym2612"
    },
    {
      "channel": 4,
      "note": 81,
      "start": 36.852,
      "duration": 0.0153,
      "velocity": 86,
      "chip": "ym2612"
    },
    {
      "channel": 3,
      "note": 81,
      "start": 36.8532,
      "duration": 0.0159,
      "velocity": 86,
      "chip": "ym2612"
    },
    {
      "channel": 2,
      "note": 54,
      "start": 36.8544,
      "duration": 0.0159,
      "velocity": 93,
      "chip": "ym2612"
    },
    {
      "channel": 1,
      "note": 76,
      "start": 36.8555,
      "duration": 0.0158,
      "velocity": 98,
      "chip": "ym2612"
    },
    {
      "channel": 0,
      "note": 75,
      "start": 36.8649,
      "duration": 0.0161,
      "velocity": 124,
      "chip": "ym2612"
    },
    {
      "channel": 5,
      "note": 78,
      "start": 36.8661,
      "duration": 0.0161,
      "velocity": 98,
      "chip": "ym2612"
    },
    {
      "channel": 4,
      "note": 81,
      "start": 36.8673,
      "duration": 0.016,
      "velocity": 86,
      "chip": "ym2612"
    },
    {
      "channel": 3,
      "note": 81,
      "start": 36.869,
      "duration": 0.016,
      "velocity": 86,
      "chip": "ym2612"
    },
    {
      "channel": 2,
      "note": 54,
      "start": 36.8702,
      "duration": 0.016,
      "velocity": 93,
      "chip": "ym2612"
    },
    {
      "channel": 1,
      "note": 76,
      "start": 36.8713,
      "duration": 0.016,
      "velocity": 98,
      "chip": "ym2612"
    },
    {
      "channel": 0,
      "note": 72,
      "start": 36.881,
      "duration": 0.0161,
      "velocity": 124,
      "chip": "ym2612"
    },
    {
      "channel": 5,
      "note": 78,
      "start": 36.8822,
      "duration": 0.0161,
      "velocity": 98,
      "chip": "ym2612"
    },
    {
      "channel": 4,
      "note": 81,
      "start": 36.8833,
      "duration": 0.0161,
      "velocity": 86,
      "chip": "ym2612"
    },
    {
      "channel": 3,
      "note": 81,
      "start": 36.885,
      "duration": 0.0156,
      "velocity": 86,
      "chip": "ym2612"
    },
    {
      "channel": 2,
      "note": 54,
      "start": 36.8862,
      "duration": 0.0161,
      "velocity": 93,
      "chip": "ym2612"
    },
    {
      "channel": 1,
      "note": 76,
      "start": 36.8874,
      "duration": 0.0162,
      "velocity": 98,
      "chip": "ym2612"
    },
    {
      "channel": 0,
      "note": 70,
      "start": 36.8971,
      "duration": 0.0161,
      "velocity": 124,
      "chip": "ym2612"
    },
    {
      "channel": 5,
      "note": 78,
      "start": 36.8983,
      "duration": 0.0161,
      "velocity": 98,
      "chip": "ym2612"
    },
    {
      "channel": 4,
      "note": 81,
      "start": 36.8994,
      "duration": 0.0161,
      "velocity": 86,
      "chip": "ym2612"
    },
    {
      "channel": 3,
      "note": 81,
      "start": 36.9006,
      "duration": 0.0161,
      "velocity": 86,
      "chip": "ym2612"
    },
    {
      "channel": 2,
      "note": 54,
      "start": 36.9023,
      "duration": 0.016,
      "velocity": 93,
      "chip": "ym2612"
    },
    {
      "channel": 1,
      "note": 76,
      "start": 36.9035,
      "duration": 0.0161,
      "velocity": 98,
      "chip": "ym2612"
    },
    {
      "channel": 0,
      "note": 68,
      "start": 36.9131,
      "duration": 0.0162,
      "velocity": 124,
      "chip": "ym2612"
    },
    {
      "channel": 5,
      "note": 78,
      "start": 36.9144,
      "duration": 0.0161,
      "velocity": 98,
      "chip": "ym2612"
    },
    {
      "channel": 4,
      "note": 81,
      "start": 36.9155,
      "duration": 0.0161,
      "velocity": 86,
      "chip": "ym2612"
    },
    {
      "channel": 3,
      "note": 81,
      "start": 36.9167,
      "duration": 0.0161,
      "velocity": 86,
      "chip": "ym2612"
    },
    {
      "channel": 2,
      "note": 54,
      "start": 36.9183,
      "duration": 0.0156,
      "velocity": 93,
      "chip": "ym2612"
    },
    {
      "channel": 1,
      "note": 76,
      "start": 36.9196,
      "duration": 0.0161,
      "velocity": 98,
      "chip": "ym2612"
    },
    {
      "channel": 0,
      "note": 65,
      "start": 36.9293,
      "duration": 0.0161,
      "velocity": 124,
      "chip": "ym2612"
    },
    {
      "channel": 5,
      "note": 78,
      "start": 36.9304,
      "duration": 0.0161,
      "velocity": 98,
      "chip": "ym2612"
    },
    {
      "channel": 4,
      "note": 81,
      "start": 36.9316,
      "duration": 0.0162,
      "velocity": 86,
      "chip": "ym2612"
    },
    {
      "channel": 3,
      "note": 81,
      "start": 36.9328,
      "duration": 0.0161,
      "velocity": 86,
      "chip": "ym2612"
    },
    {
      "channel": 2,
      "note": 54,
      "start": 36.9339,
      "duration": 0.0162,
      "velocity": 93,
      "chip": "ym2612"
    },
    {
      "channel": 1,
      "note": 76,
      "start": 36.9357,
      "duration": 0.0161,
      "velocity": 98,
      "chip": "ym2612"
    },
    {
      "channel": 0,
      "note": 63,
      "start": 36.9454,
      "duration": 0.0153,
      "velocity": 1,
      "chip": "ym2612"
    },
    {
      "channel": 5,
      "note": 78,
      "start": 36.9465,
      "duration": 0.0153,
      "velocity": 98,
      "chip": "ym2612"
    },
    {
      "channel": 4,
      "note": 81,
      "start": 36.9478,
      "duration": 0.0153,
      "velocity": 86,
      "chip": "ym2612"
    },
    {
      "channel": 3,
      "note": 81,
      "start": 36.9489,
      "duration": 0.0153,
      "velocity": 86,
      "chip": "ym2612"
    },
    {
      "channel": 2,
      "note": 54,
      "start": 36.9502,
      "duration": 0.0152,
      "velocity": 93,
      "chip": "ym2612"
    },
    {
      "channel": 1,
      "note": 76,
      "start": 36.9518,
      "duration": 0.0148,
      "velocity": 98,
      "chip": "ym2612"
    },
    {
      "channel": 5,
      "note": 78,
      "start": 36.9618,
      "duration": 0.0153,
      "velocity": 98,
      "chip": "ym2612"
    },
    {
      "channel": 4,
      "note": 81,
      "start": 36.963,
      "duration": 0.0153,
      "velocity": 86,
      "chip": "ym2612"
    },
    {
      "channel": 3,
      "note": 81,
      "start": 36.9641,
      "duration": 0.0153,
      "velocity": 86,
      "chip": "ym2612"
    },
    {
      "channel": 2,
      "note": 54,
      "start": 36.9654,
      "duration": 0.0153,
      "velocity": 93,
      "chip": "ym2612"
    },
    {
      "channel": 1,
      "note": 76,
      "start": 36.9666,
      "duration": 0.0153,
      "velocity": 98,
      "chip": "ym2612"
    },
    {
      "channel": 5,
      "note": 78,
      "start": 36.9771,
      "duration": 0.0161,
      "velocity": 98,
      "chip": "ym2612"
    },
    {
      "channel": 4,
      "note": 81,
      "start": 36.9783,
      "duration": 0.0161,
      "velocity": 86,
      "chip": "ym2612"
    },
    {
      "channel": 2,
      "note": 54,
      "start": 36.9807,
      "duration": 0.0163,
      "velocity": 93,
      "chip": "ym2612"
    },
    {
      "channel": 5,
      "note": 78,
      "start": 36.9932,
      "duration": 0.0161,
      "velocity": 98,
      "chip": "ym2612"
    },
    {
      "channel": 4,
      "note": 81,
      "start": 36.9944,
      "duration": 0.0161,
      "velocity": 86,
      "chip": "ym2612"
    },
    {
      "channel": 3,
      "note": 85,
      "start": 36.9959,
      "duration": 0.0158,
      "velocity": 86,
      "chip": "ym2612"
    },
    {
      "channel": 2,
      "note": 54,
      "start": 36.9971,
      "duration": 0.0158,
      "velocity": 93,
      "chip": "ym2612"
    },
    {
      "channel": 1,
      "note": 78,
      "start": 36.9985,
      "duration": 0.0155,
      "velocity": 98,
      "chip": "ym2612"
    },
    {
      "channel": 5,
      "note": 78,
      "start": 37.0093,
      "duration": 0.0161,
      "velocity": 98,
      "chip": "ym2612"
    },
    {
      "channel": 4,
      "note": 81,
      "start": 37.0105,
      "duration": 0.0161,
      "velocity": 86,
      "chip": "ym2612"
    },
    {
      "channel": 3,
      "note": 85,
      "start": 37.0117,
      "duration": 0.0161,
      "velocity": 86,
      "chip": "ym2612"
    },
    {
      "channel": 2,
      "note": 54,
      "start": 37.0128,
      "duration": 0.0161,
      "velocity": 93,
      "chip": "ym2612"
    },
    {
      "channel": 1,
      "note": 78,
      "start": 37.014,
      "duration": 0.016,
      "velocity": 98,
      "chip": "ym2612"
    },
    {
      "channel": 5,
      "note": 78,
      "start": 37.0254,
      "duration": 0.0161,
      "velocity": 98,
      "chip": "ym2612"
    },
    {
      "channel": 3,
      "note": 85,
      "start": 37.0278,
      "duration": 0.0165,
      "velocity": 86,
      "chip": "ym2612"
    },
    {
      "channel": 2,
      "note": 54,
      "start": 37.0289,
      "duration": 0.0165,
      "velocity": 93,
      "chip": "ym2612"
    },
    {
      "channel": 1,
      "note": 78,
      "start": 37.0301,
      "duration": 0.0165,
      "velocity": 98,
      "chip": "ym2612"
    },
    {
      "channel": 5,
      "note": 78,
      "start": 37.0415,
      "duration": 0.0161,
      "velocity": 98,
      "chip": "ym2612"
    },
    {
      "channel": 4,
      "note": 85,
      "start": 37.0431,
      "duration": 0.0157,
      "velocity": 86,
      "chip": "ym2612"
    },
    {
      "channel": 3,
      "note": 85,
      "start": 37.0442,
      "duration": 0.0157,
      "velocity": 86,
      "chip": "ym2612"
    },
    {
      "channel": 2,
      "note": 54,
      "start": 37.0454,
      "duration": 0.0158,
      "velocity": 93,
      "chip": "ym2612"
    },
    {
      "channel": 1,
      "note": 78,
      "start": 37.0466,
      "duration": 0.0158,
      "velocity": 98,
      "chip": "ym2612"
    },
    {
      "channel": 5,
      "note": 78,
      "start": 37.0576,
      "duration": 0.0161,
      "velocity": 98,
      "chip": "ym2612"
    },
    {
      "channel": 4,
      "note": 85,
      "start": 37.0588,
      "duration": 0.016,
      "velocity": 86,
      "chip": "ym2612"
    },
    {
      "channel": 3,
      "note": 85,
      "start": 37.06,
      "duration": 0.016,
      "velocity": 86,
      "chip": "ym2612"
    },
    {
      "channel": 2,
      "note": 54,
      "start": 37.0612,
      "duration": 0.0161,
      "velocity": 93,
      "chip": "ym2612"
    },
    {
      "channel": 1,
      "note": 78,
      "start": 37.0624,
      "duration": 0.016,
      "velocity": 98,
      "chip": "ym2612"
    },
    {
      "channel": 5,
      "note": 78,
      "start": 37.0737,
      "duration": 0.0196,
      "velocity": 98,
      "chip": "ym2612"
    },
    {
      "channel": 4,
      "note": 85,
      "start": 37.0749,
      "duration": 0.0196,
      "velocity": 86,
      "chip": "ym2612"
    },
    {
      "channel": 3,
      "note": 85,
      "start": 37.076,
      "duration": 0.0197,
      "velocity": 86,
      "chip": "ym2612"
    },
    {
      "channel": 2,
      "note": 54,
      "start": 37.0773,
      "duration": 0.0198,
      "velocity": 93,
      "chip": "ym2612"
    },
    {
      "channel": 1,
      "note": 78,
      "start": 37.0784,
      "duration": 0.0199,
      "velocity": 98,
      "chip": "ym2612"
    },
    {
      "channel": 0,
      "note": 36,
      "start": 37.0922,
      "duration": 0.0143,
      "velocity": 115,
      "chip": "ym2612"
    },
    {
      "channel": 5,
      "note": 78,
      "start": 37.0933,
      "duration": 0.0143,
      "velocity": 98,
      "chip": "ym2612"
    },
    {
      "channel": 4,
      "note": 85,
      "start": 37.0944,
      "duration": 0.0144,
      "velocity": 86,
      "chip": "ym2612"
    },
    {
      "channel": 3,
      "note": 85,
      "start": 37.0956,
      "duration": 0.0143,
      "velocity": 86,
      "chip": "ym2612"
    },
    {
      "channel": 2,
      "note": 59,
      "start": 37.0972,
      "duration": 0.0141,
      "velocity": 93,
      "chip": "ym2612"
    },
    {
      "channel": 1,
      "note": 78,
      "start": 37.0983,
      "duration": 0.0141,
      "velocity": 98,
      "chip": "ym2612"
    },
    {
      "channel": 0,
      "note": 36,
      "start": 37.1065,
      "duration": 0.016,
      "velocity": 115,
      "chip": "ym2612"
    },
    {
      "channel": 4,
      "note": 85,
      "start": 37.1088,
      "duration": 0.0163,
      "velocity": 86,
      "chip": "ym2612"
    },
    {
      "channel": 3,
      "note": 85,
      "start": 37.11,
      "duration": 0.0163,
      "velocity": 86,
      "chip": "ym2612"
    },
    {
      "channel": 2,
      "note": 59,
      "start": 37.1112,
      "duration": 0.0162,
      "velocity": 93,
      "chip": "ym2612"
    },
    {
      "channel": 1,
      "note": 78,
      "start": 37.1124,
      "duration": 0.0163,
      "velocity": 98,
      "chip": "ym2612"
    },
    {
      "channel": 0,
      "note": 37,
      "start": 37.1225,
      "duration": 0.0161,
      "velocity": 115,
      "chip": "ym2612"
    },
    {
      "channel": 5,
      "note": 76,
      "start": 37.1239,
      "duration": 0.0159,
      "velocity": 98,
      "chip": "ym2612"
    },
    {
      "channel": 4,
      "note": 85,
      "start": 37.1251,
      "duration": 0.0159,
      "velocity": 86,
      "chip": "ym2612"
    },
    {
      "channel": 3,
      "note": 85,
      "start": 37.1263,
      "duration": 0.0159,
      "velocity": 86,
      "chip": "ym2612"
    },
    {
      "channel": 2,
      "note": 59,
      "start": 37.1275,
      "duration": 0.0159,
      "velocity": 93,
      "chip": "ym2612"
    },
    {
      "channel": 1,
      "note": 78,
      "start": 37.1287,
      "duration": 0.0159,
      "velocity": 98,
      "chip": "ym2612"
    },
    {
      "channel": 0,
      "note": 37,
      "start": 37.1386,
      "duration": 0.0161,
      "velocity": 115,
      "chip": "ym2612"
    },
    {
      "channel": 5,
      "note": 76,
      "start": 37.1399,
      "duration": 0.016,
      "velocity": 98,
      "chip": "ym2612"
    },
    {
      "channel": 4,
      "note": 85,
      "start": 37.141,
      "duration": 0.016,
      "velocity": 86,
      "chip": "ym2612"
    },
    {
      "channel": 3,
      "note": 85,
      "start": 37.1422,
      "duration": 0.016,
      "velocity": 86,
      "chip": "ym2612"
    },
    {
      "channel": 2,
      "note": 59,
      "start": 37.1434,
      "duration": 0.016,
      "velocity": 93,
      "chip": "ym2612"
    },
    {
      "channel": 1,
      "note": 78,
      "start": 37.1446,
      "duration": 0.016,
      "velocity": 98,
      "chip": "ym2612"
    },
    {
      "channel": 0,
      "note": 38,
      "start": 37.1547,
      "duration": 0.0162,
      "velocity": 115,
      "chip": "ym2612"
    },
    {
      "channel": 5,
      "note": 76,
      "start": 37.1559,
      "duration": 0.0161,
      "velocity": 98,
      "chip": "ym2612"
    },
    {
      "channel": 4,
      "note": 85,
      "start": 37.157,
      "duration": 0.0162,
      "velocity": 86,
      "chip": "ym2612"
    },
    {
      "channel": 3,
      "note": 85,
      "start": 37.1582,
      "duration": 0.0162,
      "velocity": 86,
      "chip": "ym2612"
    },
    {
      "channel": 2,
      "note": 59,
      "start": 37.1594,
      "duration": 0.0161,
      "velocity": 93,
      "chip": "ym2612"
    },
    {
      "channel": 1,
      "note": 78,
      "start": 37.1606,
      "duration": 0.0162,
      "velocity": 98,
      "chip": "ym2612"
    },
    {
      "channel": 0,
      "note": 38,
      "start": 37.1708,
      "duration": 0.0161,
      "velocity": 115,
      "chip": "ym2612"
    },
    {
      "channel": 5,
      "note": 76,
      "start": 37.172,
      "duration": 0.0161,
      "velocity": 98,
      "chip": "ym2612"
    },
    {
      "channel": 4,
      "note": 85,
      "start": 37.1732,
      "duration": 0.0161,
      "velocity": 86,
      "chip": "ym2612"
    },
    {
      "channel": 3,
      "note": 85,
      "start": 37.1744,
      "duration": 0.0161,
      "velocity": 86,
      "chip": "ym2612"
    },
    {
      "channel": 2,
      "note": 59,
      "start": 37.1755,
      "duration": 0.0162,
      "velocity": 93,
      "chip": "ym2612"
    },
    {
      "channel": 1,
      "note": 78,
      "start": 37.1768,
      "duration": 0.0161,
      "velocity": 98,
      "chip": "ym2612"
    },
    {
      "channel": 0,
      "note": 39,
      "start": 37.187,
      "duration": 0.0164,
      "velocity": 115,
      "chip": "ym2612"
    },
    {
      "channel": 5,
      "note": 76,
      "start": 37.1881,
      "duration": 0.0164,
      "velocity": 98,
      "chip": "ym2612"
    },
    {
      "channel": 4,
      "note": 85,
      "start": 37.1893,
      "duration": 0.0164,
      "velocity": 86,
      "chip": "ym2612"
    },
    {
      "channel": 3,
      "note": 85,
      "start": 37.1905,
      "duration": 0.0164,
      "velocity": 86,
      "chip": "ym2612"
    },
    {
      "channel": 2,
      "note": 59,
      "start": 37.1917,
      "duration": 0.0164,
      "velocity": 93,
      "chip": "ym2612"
    },
    {
      "channel": 1,
      "note": 78,
      "start": 37.1929,
      "duration": 0.0164,
      "velocity": 98,
      "chip": "ym2612"
    },
    {
      "channel": 0,
      "note": 39,
      "start": 37.2034,
      "duration": 0.0163,
      "velocity": 115,
      "chip": "ym2612"
    },
    {
      "channel": 5,
      "note": 76,
      "start": 37.2046,
      "duration": 0.0163,
      "velocity": 98,
      "chip": "ym2612"
    },
    {
      "channel": 4,
      "note": 85,
      "start": 37.2058,
      "duration": 0.0163,
      "velocity": 86,
      "chip": "ym2612"
    },
    {
      "channel": 3,
      "note": 85,
      "start": 37.2069,
      "duration": 0.0163,
      "velocity": 86,
      "chip": "ym2612"
    },
    {
      "channel": 2,
      "note": 59,
      "start": 37.2081,
      "duration": 0.0163,
      "velocity": 93,
      "chip": "ym2612"
    },
    {
      "channel": 1,
      "note": 78,
      "start": 37.2093,
      "duration": 0.0163,
      "velocity": 98,
      "chip": "ym2612"
    },
    {
      "channel": 0,
      "note": 40,
      "start": 37.2197,
      "duration": 0.0161,
      "velocity": 115,
      "chip": "ym2612"
    },
    {
      "channel": 5,
      "note": 76,
      "start": 37.2208,
      "duration": 0.0161,
      "velocity": 98,
      "chip": "ym2612"
    },
    {
      "channel": 4,
      "note": 85,
      "start": 37.222,
      "duration": 0.0161,
      "velocity": 86,
      "chip": "ym2612"
    },
    {
      "channel": 3,
      "note": 85,
      "start": 37.2232,
      "duration": 0.0161,
      "velocity": 86,
      "chip": "ym2612"
    },
    {
      "channel": 2,
      "note": 59,
      "start": 37.2244,
      "duration": 0.0162,
      "velocity": 93,
      "chip": "ym2612"
    },
    {
      "channel": 1,
      "note": 78,
      "start": 37.2255,
      "duration": 0.0162,
      "velocity": 98,
      "chip": "ym2612"
    },
    {
      "channel": 0,
      "note": 40,
      "start": 37.2358,
      "duration": 0.016,
      "velocity": 115,
      "chip": "ym2612"
    },
    {
      "channel": 5,
      "note": 76,
      "start": 37.237,
      "duration": 0.0161,
      "velocity": 98,
      "chip": "ym2612"
    },
    {
      "channel": 4,
      "note": 85,
      "start": 37.2381,
      "duration": 0.0161,
      "velocity": 86,
      "chip": "ym2612"
    },
    {
      "channel": 3,
      "note": 85,
      "start": 37.2393,
      "duration": 0.0161,
      "velocity": 86,
      "chip": "ym2612"
    },
    {
      "channel": 2,
      "note": 59,
      "start": 37.2406,
      "duration": 0.016,
      "velocity": 93,
      "chip": "ym2612"
    },
    {
      "channel": 1,
      "note": 78,
      "start": 37.2418,
      "duration": 0.0161,
      "velocity": 98,
      "chip": "ym2612"
    },
    {
      "channel": 0,
      "note": 40,
      "start": 37.2518,
      "duration": 0.0158,
      "velocity": 115,
      "chip": "ym2612"
    },
    {
      "channel": 5,
      "note": 76,
      "start": 37.2531,
      "duration": 0.0161,
      "velocity": 98,
      "chip": "ym2612"
    },
    {
      "channel": 4,
      "note": 85,
      "start": 37.2542,
      "duration": 0.0161,
      "velocity": 86,
      "chip": "ym2612"
    },
    {
      "channel": 3,
      "note": 85,
      "start": 37.2554,
      "duration": 0.0161,
      "velocity": 86,
      "chip": "ym2612"
    },
    {
      "channel": 2,
      "note": 59,
      "start": 37.2566,
      "duration": 0.0162,
      "velocity": 93,
      "chip": "ym2612"
    },
    {
      "channel": 1,
      "note": 78,
      "start": 37.2579,
      "duration": 0.0161,
      "velocity": 98,
      "chip": "ym2612"
    },
    {
      "channel": 0,
      "note": 41,
      "start": 37.2676,
      "duration": 0.0159,
      "velocity": 115,
      "chip": "ym2612"
    },
    {
      "channel": 5,
      "note": 76,
      "start": 37.2692,
      "duration": 0.016,
      "velocity": 98,
      "chip": "ym2612"
    },
    {
      "channel": 4,
      "note": 85,
      "start": 37.2703,
      "duration": 0.0162,
      "velocity": 86,
      "chip": "ym2612"
    },
    {
      "channel": 2,
      "note": 59,
      "start": 37.2728,
      "duration": 0.0163,
      "velocity": 93,
      "chip": "ym2612"
    },
    {
      "channel": 1,
      "note": 78,
      "start": 37.2739,
      "duration": 0.0163,
      "velocity": 98,
      "chip": "ym2612"
    },
    {
      "channel": 0,
      "note": 41,
      "start": 37.2835,
      "duration": 0.0161,
      "velocity": 115,
      "chip": "ym2612"
    },
    {
      "channel": 5,
      "note": 76,
      "start": 37.2852,
      "duration": 0.0158,
      "velocity": 98,
      "chip": "ym2612"
    },
    {
      "channel": 4,
      "note": 85,
      "start": 37.2865,
      "duration": 0.0161,
      "velocity": 86,
      "chip": "ym2612"
    },
    {
      "channel": 3,
      "note": 78,
      "start": 37.288,
      "duration": 0.0158,
      "velocity": 86,
      "chip": "ym2612"
    },
    {
      "channel": 2,
      "note": 59,
      "start": 37.2891,
      "duration": 0.0159,
      "velocity": 93,
      "chip": "ym2612"
    },
    {
      "channel": 1,
      "note": 78,
      "start": 37.2903,
      "duration": 0.0159,
      "velocity": 98,
      "chip": "ym2612"
    },
    {
      "channel": 0,
      "note": 42,
      "start": 37.2996,
      "duration": 0.0161,
      "velocity": 115,
      "chip": "ym2612"
    },
    {
      "channel": 4,
      "note": 85,
      "start": 37.3026,
      "duration": 0.0163,
      "velocity": 86,
      "chip": "ym2612"
    },
    {
      "channel": 3,
      "note": 78,
      "start": 37.3038,
      "duration": 0.0163,
      "velocity": 86,
      "chip": "ym2612"
    },
    {
      "channel": 2,
      "note": 59,
      "start": 37.305,
      "duration": 0.0163,
      "velocity": 93,
      "chip": "ym2612"
    },
    {
      "channel": 1,
      "note": 78,
      "start": 37.3061,
      "duration": 0.0163,
      "velocity": 98,
      "chip": "ym2612"
    },
    {
      "channel": 0,
      "note": 42,
      "start": 37.3157,
      "duration": 0.0161,
      "velocity": 115,
      "chip": "ym2612"
    },
    {
      "channel": 5,
      "note": 78,
      "start": 37.3171,
      "duration": 0.0159,
      "velocity": 98,
      "chip": "ym2612"
    },
    {
      "channel": 3,
      "note": 78,
      "start": 37.3201,
      "duration": 0.0162,
      "velocity": 86,
      "chip": "ym2612"
    },
    {
      "channel": 2,
      "note": 59,
      "start": 37.3213,
      "duration": 0.0162,
      "velocity": 93,
      "chip": "ym2612"
    },
    {
      "channel": 1,
      "note": 78,
      "start": 37.3225,
      "duration": 0.0161,
      "velocity": 98,
      "chip": "ym2612"
    },
    {
      "channel": 0,
      "note": 43,
      "start": 37.3318,
      "duration": 0.0161,
      "velocity": 115,
      "chip": "ym2612"
    },
    {
      "channel": 5,
      "note": 78,
      "start": 37.3331,
      "duration": 0.016,
      "velocity": 98,
      "chip": "ym2612"
    },
    {
      "channel": 4,
      "note": 78,
      "start": 37.3351,
      "duration": 0.0152,
      "velocity": 86,
      "chip": "ym2612"
    },
    {
      "channel": 3,
      "note": 78,
      "start": 37.3363,
      "duration": 0.0157,
      "velocity": 86,
      "chip": "ym2612"
    },
    {
      "channel": 2,
      "note": 59,
      "start": 37.3375,
      "duration": 0.0158,
      "velocity": 93,
      "chip": "ym2612"
    },
    {
      "channel": 1,
      "note": 78,
      "start": 37.3386,
      "duration": 0.0159,
      "velocity": 98,
      "chip": "ym2612"
    },
    {
      "channel": 0,
      "note": 43,
      "start": 37.3479,
      "duration": 0.0162,
      "velocity": 115,
      "chip": "ym2612"
    },
    {
      "channel": 5,
      "note": 78,
      "start": 37.3491,
      "duration": 0.0161,
      "velocity": 98,
      "chip": "ym2612"
    },
    {
      "channel": 4,
      "note": 78,
      "start": 37.3503,
      "duration": 0.016,
      "velocity": 86,
      "chip": "ym2612"
    },
    {
      "channel": 3,
      "note": 78,
      "start": 37.352,
      "duration": 0.0157,
      "velocity": 86,
      "chip": "ym2612"
    },
    {
      "channel": 2,
      "note": 59,
      "start": 37.3533,
      "duration": 0.0161,
      "velocity": 93,
      "chip": "ym2612"
    },
    {
      "channel": 1,
      "note": 78,
      "start": 37.3545,
      "duration": 0.016,
      "velocity": 98,
      "chip": "ym2612"
    },
    {
      "channel": 0,
      "note": 44,
      "start": 37.364,
      "duration": 0.0179,
      "velocity": 124,
      "chip": "ym2612"
    },
    {
      "channel": 5,
      "note": 78,
      "start": 37.3652,
      "duration": 0.0179,
      "velocity": 98,
      "chip": "ym2612"
    },
    {
      "channel": 4,
      "note": 78,
      "start": 37.3663,
      "duration": 0.0182,
      "velocity": 86,
      "chip": "ym2612"
    },
    {
      "channel": 2,
      "note": 59,
      "start": 37.3694,
      "duration": 0.0184,
      "velocity": 93,
      "chip": "ym2612"
    },
    {
      "channel": 1,
      "note": 78,
      "start": 37.3705,
      "duration": 0.0184,
      "velocity": 98,
      "chip": "ym2612"
    },
    {
      "channel": 0,
      "note": 84,
      "start": 37.382,
      "duration": 0.0143,
      "velocity": 124,
      "chip": "ym2612"
    },
    {
      "channel": 5,
      "note": 78,
      "start": 37.3831,
      "duration": 0.0143,
      "velocity": 98,
      "chip": "ym2612"
    },
    {
      "channel": 4,
      "note": 78,
      "start": 37.3845,
      "duration": 0.0141,
      "velocity": 86,
      "chip": "ym2612"
    },
    {
      "channel": 3,
      "note": 81,
      "start": 37.3863,
      "duration": 0.0135,
      "velocity": 86,
      "chip": "ym2612"
    },
    {
      "channel": 2,
      "note": 59,
      "start": 37.3878,
      "duration": 0.0137,
      "velocity": 93,
      "chip": "ym2612"
    },
    {
      "channel": 1,
      "note": 78,
      "start": 37.389,
      "duration": 0.0138,
      "velocity": 98,
      "chip": "ym2612"
    },
    {
      "channel": 0,
      "note": 82,
      "start": 37.3963,
      "duration": 0.016,
      "velocity": 124,
      "chip": "ym2612"
    },
    {
      "channel": 5,
      "note": 78,
      "start": 37.3974,
      "duration": 0.016,
      "velocity": 98,
      "chip": "ym2612"
    },
    {
      "channel": 4,
      "note": 78,
      "start": 37.3986,
      "duration": 0.0161,
      "velocity": 86,
      "chip": "ym2612"
    },
    {
      "channel": 3,
      "note": 81,
      "start": 37.3998,
      "duration": 0.016,
      "velocity": 86,
      "chip": "ym2612"
    },
    {
      "channel": 2,
      "note": 59,
      "start": 37.4016,
      "duration": 0.0155,
      "velocity": 93,
      "chip": "ym2612"
    },
    {
      "channel": 1,
      "note": 78,
      "start": 37.4028,
      "duration": 0.0159,
      "velocity": 98,
      "chip": "ym2612"
    },
    {
      "channel": 0,
      "note": 80,
      "start": 37.4123,
      "duration": 0.0161,
      "velocity": 124,
      "chip": "ym2612"
    },
    {
      "channel": 5,
      "note": 78,
      "start": 37.4134,
      "duration": 0.0162,
      "velocity": 98,
      "chip": "ym2612"
    },
    {
      "channel": 3,
      "note": 81,
      "start": 37.4158,
      "duration": 0.0164,
      "velocity": 86,
      "chip": "ym2612"
    },
    {
      "channel": 2,
      "note": 59,
      "start": 37.417,
      "duration": 0.0163,
      "velocity": 93,
      "chip": "ym2612"
    },
    {
      "channel": 1,
      "note": 78,
      "start": 37.4187,
      "duration": 0.0164,
      "velocity": 98,
      "chip": "ym2612"
    },
    {
      "channel": 0,
      "note": 77,
      "start": 37.4284,
      "duration": 0.0161,
      "velocity": 124,
      "chip": "ym2612"
    },
    {
      "channel": 5,
      "note": 78,
      "start": 37.4296,
      "duration": 0.0161,
      "velocity": 98,
      "chip": "ym2612"
    },
    {
      "channel": 4,
      "note": 81,
      "start": 37.4311,
      "duration": 0.0158,
      "velocity": 86,
      "chip": "ym2612"
    },
    {
      "channel": 3,
      "note": 81,
      "start": 37.4322,
      "duration": 0.0159,
      "velocity": 86,
      "chip": "ym2612"
    },
    {
      "channel": 2,
      "note": 59,
      "start": 37.4334,
      "duration": 0.0159,
      "velocity": 93,
      "chip": "ym2612"
    },
    {
      "channel": 1,
      "note": 78,
      "start": 37.4351,
      "duration": 0.0153,
      "velocity": 98,
      "chip": "ym2612"
    },
    {
      "channel": 0,
      "note": 75,
      "start": 37.4445,
      "duration": 0.0161,
      "velocity": 124,
      "chip": "ym2612"
    },
    {
      "channel": 5,
      "note": 78,
      "start": 37.4457,
      "duration": 0.0161,
      "velocity": 98,
      "chip": "ym2612"
    },
    {
      "channel": 4,
      "note": 81,
      "start": 37.4469,
      "duration": 0.016,
      "velocity": 86,
      "chip": "ym2612"
    },
    {
      "channel": 3,
      "note": 81,
      "start": 37.4481,
      "duration": 0.016,
      "velocity": 86,
      "chip": "ym2612"
    },
    {
      "channel": 2,
      "note": 59,
      "start": 37.4493,
      "duration": 0.016,
      "velocity": 93,
      "chip": "ym2612"
    },
    {
      "channel": 1,
      "note": 78,
      "start": 37.4504,
      "duration": 0.016,
      "velocity": 98,
      "chip": "ym2612"
    },
    {
      "channel": 0,
      "note": 72,
      "start": 37.4606,
      "duration": 0.0161,
      "velocity": 124,
      "chip": "ym2612"
    },
    {
      "channel": 5,
      "note": 78,
      "start": 37.4618,
      "duration": 0.0161,
      "velocity": 98,
      "chip": "ym2612"
    },
    {
      "channel": 4,
      "note": 81,
      "start": 37.4629,
      "duration": 0.0161,
      "velocity": 86,
      "chip": "ym2612"
    },
    {
      "channel": 3,
      "note": 81,
      "start": 37.4641,
      "duration": 0.0161,
      "velocity": 86,
      "chip": "ym2612"
    },
    {
      "channel": 2,
      "note": 59,
      "start": 37.4653,
      "duration": 0.0161,
      "velocity": 93,
      "chip": "ym2612"
    },
    {
      "channel": 1,
      "note": 78,
      "start": 37.4664,
      "duration": 0.0161,
      "velocity": 98,
      "chip": "ym2612"
    },
    {
      "channel": 0,
      "note": 70,
      "start": 37.4767,
      "duration": 0.0161,
      "velocity": 124,
      "chip": "ym2612"
    },
    {
      "channel": 5,
      "note": 78,
      "start": 37.4779,
      "duration": 0.0161,
      "velocity": 98,
      "chip": "ym2612"
    },
    {
      "channel": 4,
      "note": 81,
      "start": 37.479,
      "duration": 0.0161,
      "velocity": 86,
      "chip": "ym2612"
    },
    {
      "channel": 3,
      "note": 81,
      "start": 37.4802,
      "duration": 0.0161,
      "velocity": 86,
      "chip": "ym2612"
    },
    {
      "channel": 2,
      "note": 59,
      "start": 37.4814,
      "duration": 0.0161,
      "velocity": 93,
      "chip": "ym2612"
    },
    {
      "channel": 1,
      "note": 78,
      "start": 37.4825,
      "duration": 0.0161,
      "velocity": 98,
      "chip": "ym2612"
    },
    {
      "channel": 0,
      "note": 68,
      "start": 37.4928,
      "duration": 0.0161,
      "velocity": 124,
      "chip": "ym2612"
    },
    {
      "channel": 5,
      "note": 78,
      "start": 37.494,
      "duration": 0.0161,
      "velocity": 98,
      "chip": "ym2612"
    },
    {
      "channel": 4,
      "note": 81,
      "start": 37.4951,
      "duration": 0.0161,
      "velocity": 86,
      "chip": "ym2612"
    },
    {
      "channel": 3,
      "note": 81,
      "start": 37.4963,
      "duration": 0.0161,
      "velocity": 86,
      "chip": "ym2612"
    },
    {
      "channel": 2,
      "note": 59,
      "start": 37.4975,
      "duration": 0.0161,
      "velocity": 93,
      "chip": "ym2612"
    },
    {
      "channel": 1,
      "note": 78,
      "start": 37.4986,
      "duration": 0.0161,
      "velocity": 98,
      "chip": "ym2612"
    },
    {
      "channel": 0,
      "note": 65,
      "start": 37.5089,
      "duration": 0.0161,
      "velocity": 124,
      "chip": "ym2612"
    },
    {
      "channel": 5,
      "note": 78,
      "start": 37.5101,
      "duration": 0.0161,
      "velocity": 98,
      "chip": "ym2612"
    },
    {
      "channel": 4,
      "note": 81,
      "start": 37.5112,
      "duration": 0.0162,
      "velocity": 86,
      "chip": "ym2612"
    },
    {
      "channel": 3,
      "note": 81,
      "start": 37.5124,
      "duration": 0.0161,
      "velocity": 86,
      "chip": "ym2612"
    },
    {
      "channel": 2,
      "note": 59,
      "start": 37.5136,
      "duration": 0.0162,
      "velocity": 93,
      "chip": "ym2612"
    },
    {
      "channel": 1,
      "note": 78,
      "start": 37.5147,
      "duration": 0.0162,
      "velocity": 98,
      "chip": "ym2612"
    },
    {
      "channel": 0,
      "note": 63,
      "start": 37.525,
      "duration": 0.0153,
      "velocity": 1,
      "chip": "ym2612"
    },
    {
      "channel": 5,
      "note": 78,
      "start": 37.5262,
      "duration": 0.0153,
      "velocity": 98,
      "chip": "ym2612"
    },
    {
      "channel": 4,
      "note": 81,
      "start": 37.5274,
      "duration": 0.0153,
      "velocity": 86,
      "chip": "ym2612"
    },
    {
      "channel": 3,
      "note": 81,
      "start": 37.5285,
      "duration": 0.0153,
      "velocity": 86,
      "chip": "ym2612"
    },
    {
      "channel": 2,
      "note": 59,
      "start": 37.5298,
      "duration": 0.0152,
      "velocity": 93,
      "chip": "ym2612"
    },
    {
      "channel": 1,
      "note": 78,
      "start": 37.531,
      "duration": 0.0153,
      "velocity": 98,
      "chip": "ym2612"
    },
    {
      "channel": 5,
      "note": 78,
      "start": 37.5415,
      "duration": 0.0153,
      "velocity": 98,
      "chip": "ym2612"
    },
    {
      "channel": 4,
      "note": 81,
      "start": 37.5427,
      "duration": 0.0153,
      "velocity": 86,
      "chip": "ym2612"
    },
    {
      "channel": 3,
      "note": 81,
      "start": 37.5438,
      "duration": 0.0153,
      "velocity": 86,
      "chip": "ym2612"
    },
    {
      "channel": 2,
      "note": 59,
      "start": 37.545,
      "duration": 0.0153,
      "velocity": 93,
      "chip": "ym2612"
    },
    {
      "channel": 1,
      "note": 78,
      "start": 37.5462,
      "duration": 0.0153,
      "velocity": 98,
      "chip": "ym2612"
    },
    {
      "channel": 5,
      "note": 78,
      "start": 37.5567,
      "duration": 0.0161,
      "velocity": 98,
      "chip": "ym2612"
    },
    {
      "channel": 4,
      "note": 81,
      "start": 37.5579,
      "duration": 0.0161,
      "velocity": 86,
      "chip": "ym2612"
    },
    {
      "channel": 2,
      "note": 59,
      "start": 37.5603,
      "duration": 0.0163,
      "velocity": 93,
      "chip": "ym2612"
    },
    {
      "channel": 1,
      "note": 78,
      "start": 37.5615,
      "duration": 0.0163,
      "velocity": 98,
      "chip": "ym2612"
    },
    {
      "channel": 5,
      "note": 78,
      "start": 37.5728,
      "duration": 0.0161,
      "velocity": 98,
      "chip": "ym2612"
    },
    {
      "channel": 4,
      "note": 81,
      "start": 37.574,
      "duration": 0.0161,
      "velocity": 86,
      "chip": "ym2612"
    },
    {
      "channel": 3,
      "note": 87,
      "start": 37.5755,
      "duration": 0.0158,
      "velocity": 86,
      "chip": "ym2612"
    },
    {
      "channel": 2,
      "note": 59,
      "start": 37.5766,
      "duration": 0.0159,
      "velocity": 93,
      "chip": "ym2612"
    },
    {
      "channel": 1,
      "note": 78,
      "start": 37.5778,
      "duration": 0.0159,
      "velocity": 98,
      "chip": "ym2612"
    },
    {
      "channel": 5,
      "note": 78,
      "start": 37.5889,
      "duration": 0.0161,
      "velocity": 98,
      "chip": "ym2612"
    },
    {
      "channel": 4,
      "note": 81,
      "start": 37.5901,
      "duration": 0.0161,
      "velocity": 86,
      "chip": "ym2612"
    },
    {
      "channel": 3,
      "note": 87,
      "start": 37.5913,
      "duration": 0.016,
      "velocity": 86,
      "chip": "ym2612"
    },
    {
      "channel": 2,
      "note": 59,
      "start": 37.5925,
      "duration": 0.0161,
      "velocity": 93,
      "chip": "ym2612"
    },
    {
      "channel": 1,
      "note": 78,
      "start": 37.5937,
      "duration": 0.016,
      "velocity": 98,
      "chip": "ym2612"
    },
    {
      "channel": 5,
      "note": 78,
      "start": 37.605,
      "duration": 0.0161,
      "velocity": 98,
      "chip": "ym2612"
    },
    {
      "channel": 3,
      "note": 87,
      "start": 37.6073,
      "duration": 0.0164,
      "velocity": 86,
      "chip": "ym2612"
    },
    {
      "channel": 2,
      "note": 59,
      "start": 37.6085,
      "duration": 0.0164,
      "velocity": 93,
      "chip": "ym2612"
    },
    {
      "channel": 1,
      "note": 78,
      "start": 37.6097,
      "duration": 0.0164,
      "velocity": 98,
      "chip": "ym2612"
    },
    {
      "channel": 5,
      "note": 78,
      "start": 37.6211,
      "duration": 0.0161,
      "velocity": 98,
      "chip": "ym2612"
    },
    {
      "channel": 4,
      "note": 87,
      "start": 37.6226,
      "duration": 0.0159,
      "velocity": 86,
      "chip": "ym2612"
    },
    {
      "channel": 3,
      "note": 87,
      "start": 37.6238,
      "duration": 0.0158,
      "velocity": 86,
      "chip": "ym2612"
    },
    {
      "channel": 2,
      "note": 59,
      "start": 37.625,
      "duration": 0.0159,
      "velocity": 93,
      "chip": "ym2612"
    },
    {
      "channel": 1,
      "note": 78,
      "start": 37.6261,
      "duration": 0.0159,
      "velocity": 98,
      "chip": "ym2612"
    },
    {
      "channel": 5,
      "note": 78,
      "start": 37.6372,
      "duration": 0.0161,
      "velocity": 98,
      "chip": "ym2612"
    },
    {
      "channel": 4,
      "note": 87,
      "start": 37.6385,
      "duration": 0.0161,
      "velocity": 86,
      "chip": "ym2612"
    },
    {
      "channel": 3,
      "note": 87,
      "start": 37.6396,
      "duration": 0.0161,
      "velocity": 86,
      "chip": "ym2612"
    },
    {
      "channel": 2,
      "note": 59,
      "start": 37.6408,
      "duration": 0.0161,
      "velocity": 93,
      "chip": "ym2612"
    },
    {
      "channel": 1,
      "note": 78,
      "start": 37.642,
      "duration": 0.0161,
      "velocity": 98,
      "chip": "ym2612"
    },
    {
      "channel": 5,
      "note": 78,
      "start": 37.6533,
      "duration": 0.02,
      "velocity": 98,
      "chip": "ym2612"
    },
    {
      "channel": 4,
      "note": 87,
      "start": 37.6546,
      "duration": 0.0199,
      "velocity": 86,
      "chip": "ym2612"
    },
    {
      "channel": 3,
      "note": 87,
      "start": 37.6557,
      "duration": 0.02,
      "velocity": 86,
      "chip": "ym2612"
    },
    {
      "channel": 2,
      "note": 59,
      "start": 37.657,
      "duration": 0.0201,
      "velocity": 93,
      "chip": "ym2612"
    },
    {
      "channel": 1,
      "note": 78,
      "start": 37.6581,
      "duration": 0.0202,
      "velocity": 98,
      "chip": "ym2612"
    },
    {
      "channel": 0,
      "note": 36,
      "start": 37.6722,
      "duration": 0.0145,
      "velocity": 115,
      "chip": "ym2612"
    },
    {
      "channel": 5,
      "note": 78,
      "start": 37.6733,
      "duration": 0.0145,
      "velocity": 98,
      "chip": "ym2612"
    },
    {
      "channel": 4,
      "note": 87,
      "start": 37.6745,
      "duration": 0.0146,
      "velocity": 86,
      "chip": "ym2612"
    },
    {
      "channel": 3,
      "note": 87,
      "start": 37.6757,
      "duration": 0.0145,
      "velocity": 86,
      "chip": "ym2612"
    },
    {
      "channel": 2,
      "note": 59,
      "start": 37.6771,
      "duration": 0.0143,
      "velocity": 93,
      "chip": "ym2612"
    },
    {
      "channel": 1,
      "note": 78,
      "start": 37.6783,
      "duration": 0.0143,
      "velocity": 98,
      "chip": "ym2612"
    },
    {
      "channel": 0,
      "note": 36,
      "start": 37.6867,
      "duration": 0.016,
      "velocity": 115,
      "chip": "ym2612"
    },
    {
      "channel": 5,
      "note": 78,
      "start": 37.6878,
      "duration": 0.0161,
      "velocity": 98,
      "chip": "ym2612"
    },
    {
      "channel": 4,
      "note": 87,
      "start": 37.689,
      "duration": 0.016,
      "velocity": 86,
      "chip": "ym2612"
    },
    {
      "channel": 3,
      "note": 87,
      "start": 37.6902,
      "duration": 0.0161,
      "velocity": 86,
      "chip": "ym2612"
    },
    {
      "channel": 2,
      "note": 59,
      "start": 37.6915,
      "duration": 0.016,
      "velocity": 93,
      "chip": "ym2612"
    },
    {
      "channel": 1,
      "note": 78,
      "start": 37.6926,
      "duration": 0.016,
      "velocity": 98,
      "chip": "ym2612"
    },
    {
      "channel": 0,
      "note": 37,
      "start": 37.7027,
      "duration": 0.0161,
      "velocity": 115,
      "chip": "ym2612"
    },
    {
      "channel": 5,
      "note": 78,
      "start": 37.7039,
      "duration": 0.0161,
      "velocity": 98,
      "chip": "ym2612"
    },
    {
      "channel": 4,
      "note": 87,
      "start": 37.7051,
      "duration": 0.0161,
      "velocity": 86,
      "chip": "ym2612"
    },
    {
      "channel": 3,
      "note": 87,
      "start": 37.7063,
      "duration": 0.0161,
      "velocity": 86,
      "chip": "ym2612"
    },
    {
      "channel": 2,
      "note": 59,
      "start": 37.7074,
      "duration": 0.0161,
      "velocity": 93,
      "chip": "ym2612"
    },
    {
      "channel": 1,
      "note": 78,
      "start": 37.7085,
      "duration": 0.0162,
      "velocity": 98,
      "chip": "ym2612"
    },
    {
      "channel": 0,
      "note": 37,
      "start": 37.7188,
      "duration": 0.0158,
      "velocity": 115,
      "chip": "ym2612"
    },
    {
      "channel": 5,
      "note": 78,
      "start": 37.72,
      "duration": 0.0161,
      "velocity": 98,
      "chip": "ym2612"
    },
    {
      "channel": 4,
      "note": 87,
      "start": 37.7212,
      "duration": 0.0161,
      "velocity": 86,
      "chip": "ym2612"
    },
    {
      "channel": 3,
      "note": 87,
      "start": 37.7224,
      "duration": 0.0161,
      "velocity": 86,
      "chip": "ym2612"
    },
    {
      "channel": 2,
      "note": 59,
      "start": 37.7235,
      "duration": 0.0161,
      "velocity": 93,
      "chip": "ym2612"
    },
    {
      "channel": 1,
      "note": 78,
      "start": 37.7247,
      "duration": 0.0161,
      "velocity": 98,
      "chip": "ym2612"
    },
    {
      "channel": 0,
      "note": 38,
      "start": 37.7346,
      "duration": 0.0158,
      "velocity": 115,
      "chip": "ym2612"
    },
    {
      "channel": 5,
      "note": 78,
      "start": 37.7361,
      "duration": 0.016,
      "velocity": 98,
      "chip": "ym2612"
    },
    {
      "channel": 4,
      "note": 87,
      "start": 37.7373,
      "duration": 0.0161,
      "velocity": 86,
      "chip": "ym2612"
    },
    {
      "channel": 3,
      "note": 87,
      "start": 37.7385,
      "duration": 0.0161,
      "velocity": 86,
      "chip": "ym2612"
    },
    {
      "channel": 2,
      "note": 59,
      "start": 37.7397,
      "duration": 0.0161,
      "velocity": 93,
      "chip": "ym2612"
    },
    {
      "channel": 1,
      "note": 78,
      "start": 37.7408,
      "duration": 0.0161,
      "velocity": 98,
      "chip": "ym2612"
    },
    {
      "channel": 0,
      "note": 38,
      "start": 37.7504,
      "duration": 0.0161,
      "velocity": 115,
      "chip": "ym2612"
    },
    {
      "channel": 5,
      "note": 78,
      "start": 37.7521,
      "duration": 0.0158,
      "velocity": 98,
      "chip": "ym2612"
    },
    {
      "channel": 4,
      "note": 87,
      "start": 37.7534,
      "duration": 0.0161,
      "velocity": 86,
      "chip": "ym2612"
    },
    {
      "channel": 3,
      "note": 87,
      "start": 37.7546,
      "duration": 0.0161,
      "velocity": 86,
      "chip": "ym2612"
    },
    {
      "channel": 2,
      "note": 59,
      "start": 37.7558,
      "duration": 0.0161,
      "velocity": 93,
      "chip": "ym2612"
    },
    {
      "channel": 1,
      "note": 78,
      "start": 37.7569,
      "duration": 0.0161,
      "velocity": 98,
      "chip": "ym2612"
    },
    {
      "channel": 0,
      "note": 39,
      "start": 37.7665,
      "duration": 0.0161,
      "velocity": 115,
      "chip": "ym2612"
    },
    {
      "channel": 5,
      "note": 78,
      "start": 37.7679,
      "duration": 0.0159,
      "velocity": 98,
      "chip": "ym2612"
    },
    {
      "channel": 4,
      "note": 87,
      "start": 37.7695,
      "duration": 0.016,
      "velocity": 86,
      "chip": "ym2612"
    },
    {
      "channel": 3,
      "note": 87,
      "start": 37.7706,
      "duration": 0.0161,
      "velocity": 86,
      "chip": "ym2612"
    },
    {
      "channel": 2,
      "note": 59,
      "start": 37.7719,
      "duration": 0.0161,
      "velocity": 93,
      "chip": "ym2612"
    },
    {
      "channel": 1,
      "note": 78,
      "start": 37.773,
      "duration": 0.0161,
      "velocity": 98,
      "chip": "ym2612"
    },
    {
      "channel": 0,
      "note": 39,
      "start": 37.7826,
      "duration": 0.0161,
      "velocity": 115,
      "chip": "ym2612"
    },
    {
      "channel": 5,
      "note": 78,
      "start": 37.7838,
      "duration": 0.0161,
      "velocity": 98,
      "chip": "ym2612"
    },
    {
      "channel": 4,
      "note": 87,
      "start": 37.7855,
      "duration": 0.0161,
      "velocity": 86,
      "chip": "ym2612"
    },
    {
      "channel": 3,
      "note": 87,
      "start": 37.7867,
      "duration": 0.0161,
      "velocity": 86,
      "chip": "ym2612"
    },
    {
      "channel": 2,
      "note": 59,
      "start": 37.788,
      "duration": 0.0161,
      "velocity": 93,
      "chip": "ym2612"
    },
    {
      "channel": 1,
      "note": 78,
      "start": 37.7891,
      "duration": 0.0161,
      "velocity": 98,
      "chip": "ym2612"
    },
    {
      "channel": 0,
      "note": 40,
      "start": 37.7988,
      "duration": 0.0161,
      "velocity": 115,
      "chip": "ym2612"
    },
    {
      "channel": 5,
      "note": 78,
      "start": 37.7999,
      "duration": 0.0161,
      "velocity": 98,
      "chip": "ym2612"
    },
    {
      "channel": 4,
      "note": 87,
      "start": 37.8016,
      "duration": 0.0156,
      "velocity": 86,
      "chip": "ym2612"
    },
    {
      "channel": 3,
      "note": 87,
      "start": 37.8028,
      "duration": 0.0161,
      "velocity": 86,
      "chip": "ym2612"
    },
    {
      "channel": 2,
      "note": 59,
      "start": 37.804,
      "duration": 0.0162,
      "velocity": 93,
      "chip": "ym2612"
    },
    {
      "channel": 1,
      "note": 78,
      "start": 37.8052,
      "duration": 0.0161,
      "velocity": 98,
      "chip": "ym2612"
    },
    {
      "channel": 0,
      "note": 40,
      "start": 37.8149,
      "duration": 0.0161,
      "velocity": 115,
      "chip": "ym2612"
    },
    {
      "channel": 5,
      "note": 78,
      "start": 37.816,
      "duration": 0.0161,
      "velocity": 98,
      "chip": "ym2612"
    },
    {
      "channel": 4,
      "note": 87,
      "start": 37.8172,
      "duration": 0.0161,
      "velocity": 86,
      "chip": "ym2612"
    },
    {
      "channel": 3,
      "note": 87,
      "start": 37.8189,
      "duration": 0.0161,
      "velocity": 86,
      "chip": "ym2612"
    },
    {
      "channel": 2,
      "note": 59,
      "start": 37.8202,
      "duration": 0.0161,
      "velocity": 93,
      "chip": "ym2612"
    },
    {
      "channel": 1,
      "note": 78,
      "start": 37.8213,
      "duration": 0.0161,
      "velocity": 98,
      "chip": "ym2612"
    },
    {
      "channel": 0,
      "note": 40,
      "start": 37.831,
      "duration": 0.0161,
      "velocity": 115,
      "chip": "ym2612"
    },
    {
      "channel": 5,
      "note": 78,
      "start": 37.8321,
      "duration": 0.0161,
      "velocity": 98,
      "chip": "ym2612"
    },
    {
      "channel": 4,
      "note": 87,
      "start": 37.8333,
      "duration": 0.0161,
      "velocity": 86,
      "chip": "ym2612"
    },
    {
      "channel": 3,
      "note": 87,
      "start": 37.835,
      "duration": 0.0156,
      "velocity": 86,
      "chip": "ym2612"
    },
    {
      "channel": 2,
      "note": 59,
      "start": 37.8363,
      "duration": 0.016,
      "velocity": 93,
      "chip": "ym2612"
    },
    {
      "channel": 1,
      "note": 78,
      "start": 37.8374,
      "duration": 0.0162,
      "velocity": 98,
      "chip": "ym2612"
    },
    {
      "channel": 0,
      "note": 41,
      "start": 37.8471,
      "duration": 0.0179,
      "velocity": 115,
      "chip": "ym2612"
    },
    {
      "channel": 5,
      "note": 78,
      "start": 37.8482,
      "duration": 0.0179,
      "velocity": 98,
      "chip": "ym2612"
    },
    {
      "channel": 4,
      "note": 87,
      "start": 37.8494,
      "duration": 0.018,
      "velocity": 86,
      "chip": "ym2612"
    },
    {
      "channel": 2,
      "note": 59,
      "start": 37.8523,
      "duration": 0.0183,
      "velocity": 93,
      "chip": "ym2612"
    },
    {
      "channel": 1,
      "note": 78,
      "start": 37.8536,
      "duration": 0.0182,
      "velocity": 98,
      "chip": "ym2612"
    },
    {
      "channel": 0,
      "note": 36,
      "start": 37.865,
      "duration": 0.0143,
      "velocity": 115,
      "chip": "ym2612"
    },
    {
      "channel": 5,
      "note": 78,
      "start": 37.8661,
      "duration": 0.0144,
      "velocity": 98,
      "chip": "ym2612"
    },
    {
      "channel": 4,
      "note": 87,
      "start": 37.8673,
      "duration": 0.0143,
      "velocity": 86,
      "chip": "ym2612"
    },
    {
      "channel": 3,
      "note": 78,
      "start": 37.8694,
      "duration": 0.0135,
      "velocity": 86,
      "chip": "ym2612"
    },
    {
      "channel": 2,
      "note": 59,
      "start": 37.8706,
      "duration": 0.0137,
      "velocity": 93,
      "chip": "ym2612"
    },
    {
      "channel": 1,
      "note": 78,
      "start": 37.8718,
      "duration": 0.014,
      "velocity": 98,
      "chip": "ym2612"
    },
    {
      "channel": 0,
      "note": 36,
      "start": 37.8793,
      "duration": 0.016,
      "velocity": 115,
      "chip": "ym2612"
    },
    {
      "channel": 5,
      "note": 78,
      "start": 37.8805,
      "duration": 0.016,
      "velocity": 98,
      "chip": "ym2612"
    },
    {
      "channel": 4,
      "note": 87,
      "start": 37.8817,
      "duration": 0.016,
      "velocity": 86,
      "chip": "ym2612"
    },
    {
      "channel": 3,
      "note": 78,
      "start": 37.8829,
      "duration": 0.016,
      "velocity": 86,
      "chip": "ym2612"
    },
    {
      "channel": 2,
      "note": 59,
      "start": 37.8843,
      "duration": 0.0158,
      "velocity": 93,
      "chip": "ym2612"
    },
    {
      "channel": 1,
      "note": 78,
      "start": 37.8858,
      "duration": 0.016,
      "velocity": 98,
      "chip": "ym2612"
    },
    {
      "channel": 0,
      "note": 37,
      "start": 37.8953,
      "duration": 0.0161,
      "velocity": 115,
      "chip": "ym2612"
    },
    {
      "channel": 5,
      "note": 78,
      "start": 37.8965,
      "duration": 0.0161,
      "velocity": 98,
      "chip": "ym2612"
    },
    {
      "channel": 3,
      "note": 78,
      "start": 37.8989,
      "duration": 0.0164,
      "velocity": 86,
      "chip": "ym2612"
    },
    {
      "channel": 2,
      "note": 59,
      "start": 37.9,
      "duration": 0.0164,
      "velocity": 93,
      "chip": "ym2612"
    },
    {
      "channel": 1,
      "note": 78,
      "start": 37.9017,
      "duration": 0.016,
      "velocity": 98,
      "chip": "ym2612"
    },
    {
      "channel": 0,
      "note": 37,
      "start": 37.9114,
      "duration": 0.0161,
      "velocity": 115,
      "chip": "ym2612"
    },
    {
      "channel": 5,
      "note": 78,
      "start": 37.9126,
      "duration": 0.0161,
      "velocity": 98,
      "chip": "ym2612"
    },
    {
      "channel": 4,
      "note": 78,
      "start": 37.9141,
      "duration": 0.0158,
      "velocity": 86,
      "chip": "ym2612"
    },
    {
      "channel": 3,
      "note": 78,
      "start": 37.9153,
      "duration": 0.0158,
      "velocity": 86,
      "chip": "ym2612"
    },
    {
      "channel": 2,
      "note": 59,
      "start": 37.9164,
      "duration": 0.0159,
      "velocity": 93,
      "chip": "ym2612"
    },
    {
      "channel": 1,
      "note": 78,
      "start": 37.9178,
      "duration": 0.0157,
      "velocity": 98,
      "chip": "ym2612"
    },
    {
      "channel": 0,
      "note": 38,
      "start": 37.9275,
      "duration": 0.0162,
      "velocity": 115,
      "chip": "ym2612"
    },
    {
      "channel": 5,
      "note": 78,
      "start": 37.9287,
      "duration": 0.0161,
      "velocity": 98,
      "chip": "ym2612"
    },
    {
      "channel": 4,
      "note": 78,
      "start": 37.9299,
      "duration": 0.016,
      "velocity": 86,
      "chip": "ym2612"
    },
    {
      "channel": 3,
      "note": 78,
      "start": 37.9311,
      "duration": 0.016,
      "velocity": 86,
      "chip": "ym2612"
    },
    {
      "channel": 2,
      "note": 59,
      "start": 37.9324,
      "duration": 0.016,
      "velocity": 93,
      "chip": "ym2612"
    },
    {
      "channel": 1,
      "note": 78,
      "start": 37.9335,
      "duration": 0.0161,
      "velocity": 98,
      "chip": "ym2612"
    },
    {
      "channel": 0,
      "note": 38,
      "start": 37.9437,
      "duration": 0.0179,
      "velocity": 124,
      "chip": "ym2612"
    },
    {
      "channel": 5,
      "note": 78,
      "start": 37.9448,
      "duration": 0.018,
      "velocity": 98,
      "chip": "ym2612"
    },
    {
      "channel": 4,
      "note": 78,
      "start": 37.946,
      "duration": 0.0179,
      "velocity": 86,
      "chip": "ym2612"
    },
    {
      "channel": 2,
      "note": 59,
      "start": 37.9484,
      "duration": 0.0184,
      "velocity": 93,
      "chip": "ym2612"
    },
    {
      "channel": 0,
      "note": 84,
      "start": 37.9616,
      "duration": 0.0143,
      "velocity": 124,
      "chip": "ym2612"
    },
    {
      "channel": 5,
      "note": 78,
      "start": 37.9628,
      "duration": 0.0143,
      "velocity": 98,
      "chip": "ym2612"
    },
    {
      "channel": 4,
      "note": 78,
      "start": 37.9639,
      "duration": 0.0143,
      "velocity": 86,
      "chip": "ym2612"
    },
    {
      "channel": 3,
      "note": 81,
      "start": 37.9654,
      "duration": 0.0141,
      "velocity": 86,
      "chip": "ym2612"
    },
    {
      "channel": 2,
      "note": 59,
      "start": 37.9668,
      "duration": 0.0139,
      "velocity": 93,
      "chip": "ym2612"
    },
    {
      "channel": 1,
      "note": 78,
      "start": 37.9689,
      "duration": 0.013,
      "velocity": 98,
      "chip": "ym2612"
    },
    {
      "channel": 0,
      "note": 82,
      "start": 37.9759,
      "duration": 0.016,
      "velocity": 124,
      "chip": "ym2612"
    },
    {
      "channel": 5,
      "note": 78,
      "start": 37.9771,
      "duration": 0.016,
      "velocity": 98,
      "chip": "ym2612"
    },
    {
      "channel": 4,
      "note": 78,
      "start": 37.9782,
      "duration": 0.0161,
      "velocity": 86,
      "chip": "ym2612"
    },
    {
      "channel": 3,
      "note": 81,
      "start": 37.9795,
      "duration": 0.016,
      "velocity": 86,
      "chip": "ym2612"
    },
    {
      "channel": 2,
      "note": 59,
      "start": 37.9807,
      "duration": 0.016,
      "velocity": 93,
      "chip": "ym2612"
    },
    {
      "channel": 1,
      "note": 78,
      "start": 37.9819,
      "duration": 0.0159,
      "velocity": 98,
      "chip": "ym2612"
    },
    {
      "channel": 0,
      "note": 80,
      "start": 37.992,
      "duration": 0.0161,
      "velocity": 124,
      "chip": "ym2612"
    },
    {
      "channel": 5,
      "note": 78,
      "start": 37.9931,
      "duration": 0.0161,
      "velocity": 98,
      "chip": "ym2612"
    },
    {
      "channel": 3,
      "note": 81,
      "start": 37.9955,
      "duration": 0.0164,
      "velocity": 86,
      "chip": "ym2612"
    },
    {
      "channel": 2,
      "note": 59,
      "start": 37.9967,
      "duration": 0.0163,
      "velocity": 93,
      "chip": "ym2612"
    },
    {
      "channel": 1,
      "note": 78,
      "start": 37.9978,
      "duration": 0.0163,
      "velocity": 98,
      "chip": "ym2612"
    },
    {
      "channel": 0,
      "note": 77,
      "start": 38.008,
      "duration": 0.0161,
      "velocity": 124,
      "chip": "ym2612"
    },
    {
      "channel": 5,
      "note": 78,
      "start": 38.0092,
      "duration": 0.0162,
      "velocity": 98,
      "chip": "ym2612"
    },
    {
      "channel": 4,
      "note": 81,
      "start": 38.0107,
      "duration": 0.0159,
      "velocity": 86,
      "chip": "ym2612"
    },
    {
      "channel": 3,
      "note": 81,
      "start": 38.0119,
      "duration": 0.0159,
      "velocity": 86,
      "chip": "ym2612"
    },
    {
      "channel": 2,
      "note": 59,
      "start": 38.013,
      "duration": 0.0159,
      "velocity": 93,
      "chip": "ym2612"
    },
    {
      "channel": 1,
      "note": 78,
      "start": 38.0141,
      "duration": 0.0159,
      "velocity": 98,
      "chip": "ym2612"
    },
    {
      "channel": 0,
      "note": 75,
      "start": 38.0241,
      "duration": 0.0161,
      "velocity": 124,
      "chip": "ym2612"
    },
    {
      "channel": 5,
      "note": 78,
      "start": 38.0254,
      "duration": 0.0161,
      "velocity": 98,
      "chip": "ym2612"
    },
    {
      "channel": 4,
      "note": 81,
      "start": 38.0266,
      "duration": 0.016,
      "velocity": 86,
      "chip": "ym2612"
    },
    {
      "channel": 3,
      "note": 81,
      "start": 38.0277,
      "duration": 0.016,
      "velocity": 86,
      "chip": "ym2612"
    },
    {
      "channel": 2,
      "note": 59,
      "start": 38.0289,
      "duration": 0.016,
      "velocity": 93,
      "chip": "ym2612"
    },
    {
      "channel": 1,
      "note": 78,
      "start": 38.0301,
      "duration": 0.016,
      "velocity": 98,
      "chip": "ym2612"
    },
    {
      "channel": 0,
      "note": 72,
      "start": 38.0402,
      "duration": 0.0161,
      "velocity": 124,
      "chip": "ym2612"
    },
    {
      "channel": 5,
      "note": 78,
      "start": 38.0415,
      "duration": 0.0161,
      "velocity": 98,
      "chip": "ym2612"
    },
    {
      "channel": 4,
      "note": 81,
      "start": 38.0426,
      "duration": 0.0161,
      "velocity": 86,
      "chip": "ym2612"
    },
    {
      "channel": 3,
      "note": 81,
      "start": 38.0437,
      "duration": 0.0161,
      "velocity": 86,
      "chip": "ym2612"
    },
    {
      "channel": 2,
      "note": 59,
      "start": 38.0449,
      "duration": 0.0161,
      "velocity": 93,
      "chip": "ym2612"
    },
    {
      "channel": 1,
      "note": 78,
      "start": 38.0461,
      "duration": 0.0161,
      "velocity": 98,
      "chip": "ym2612"
    },
    {
      "channel": 0,
      "note": 70,
      "start": 38.0563,
      "duration": 0.0161,
      "velocity": 124,
      "chip": "ym2612"
    },
    {
      "channel": 5,
      "note": 78,
      "start": 38.0576,
      "duration": 0.0161,
      "velocity": 98,
      "chip": "ym2612"
    },
    {
      "channel": 4,
      "note": 81,
      "start": 38.0587,
      "duration": 0.0161,
      "velocity": 86,
      "chip": "ym2612"
    },
    {
      "channel": 3,
      "note": 81,
      "start": 38.0599,
      "duration": 0.0161,
      "velocity": 86,
      "chip": "ym2612"
    },
    {
      "channel": 2,
      "note": 59,
      "start": 38.061,
      "duration": 0.0161,
      "velocity": 93,
      "chip": "ym2612"
    },
    {
      "channel": 1,
      "note": 78,
      "start": 38.0622,
      "duration": 0.0161,
      "velocity": 98,
      "chip": "ym2612"
    },
    {
      "channel": 0,
      "note": 68,
      "start": 38.0724,
      "duration": 0.0161,
      "velocity": 124,
      "chip": "ym2612"
    },
    {
      "channel": 5,
      "note": 78,
      "start": 38.0736,
      "duration": 0.0161,
      "velocity": 98,
      "chip": "ym2612"
    },
    {
      "channel": 4,
      "note": 81,
      "start": 38.0748,
      "duration": 0.0161,
      "velocity": 86,
      "chip": "ym2612"
    },
    {
      "channel": 3,
      "note": 81,
      "start": 38.076,
      "duration": 0.0161,
      "velocity": 86,
      "chip": "ym2612"
    },
    {
      "channel": 2,
      "note": 59,
      "start": 38.0771,
      "duration": 0.0161,
      "velocity": 93,
      "chip": "ym2612"
    },
    {
      "channel": 1,
      "note": 78,
      "start": 38.0783,
      "duration": 0.0161,
      "velocity": 98,
      "chip": "ym2612"
    },
    {
      "channel": 0,
      "note": 65,
      "start": 38.0885,
      "duration": 0.0161,
      "velocity": 124,
      "chip": "ym2612"
    },
    {
      "channel": 5,
      "note": 78,
      "start": 38.0897,
      "duration": 0.0161,
      "velocity": 98,
      "chip": "ym2612"
    },
    {
      "channel": 4,
      "note": 81,
      "start": 38.0909,
      "duration": 0.0161,
      "velocity": 86,
      "chip": "ym2612"
    },
    {
      "channel": 3,
      "note": 81,
      "start": 38.0921,
      "duration": 0.0161,
      "velocity": 86,
      "chip": "ym2612"
    },
    {
      "channel": 2,
      "note": 59,
      "start": 38.0932,
      "duration": 0.0162,
      "velocity": 93,
      "chip": "ym2612"
    },
    {
      "channel": 1,
      "note": 78,
      "start": 38.0944,
      "duration": 0.0162,
      "velocity": 98,
      "chip": "ym2612"
    },
    {
      "channel": 0,
      "note": 63,
      "start": 38.1047,
      "duration": 0.0153,
      "velocity": 1,
      "chip": "ym2612"
    },
    {
      "channel": 5,
      "note": 78,
      "start": 38.1058,
      "duration": 0.0153,
      "velocity": 98,
      "chip": "ym2612"
    },
    {
      "channel": 4,
      "note": 81,
      "start": 38.107,
      "duration": 0.0154,
      "velocity": 86,
      "chip": "ym2612"
    },
    {
      "channel": 3,
      "note": 81,
      "start": 38.1082,
      "duration": 0.0153,
      "velocity": 86,
      "chip": "ym2612"
    },
    {
      "channel": 2,
      "note": 59,
      "start": 38.1095,
      "duration": 0.0153,
      "velocity": 93,
      "chip": "ym2612"
    },
    {
      "channel": 1,
      "note": 78,
      "start": 38.1106,
      "duration": 0.0153,
      "velocity": 98,
      "chip": "ym2612"
    },
    {
      "channel": 5,
      "note": 78,
      "start": 38.1212,
      "duration": 0.0153,
      "velocity": 98,
      "chip": "ym2612"
    },
    {
      "channel": 4,
      "note": 81,
      "start": 38.1224,
      "duration": 0.0153,
      "velocity": 86,
      "chip": "ym2612"
    },
    {
      "channel": 3,
      "note": 81,
      "start": 38.1235,
      "duration": 0.0153,
      "velocity": 86,
      "chip": "ym2612"
    },
    {
      "channel": 2,
      "note": 59,
      "start": 38.1247,
      "duration": 0.0153,
      "velocity": 93,
      "chip": "ym2612"
    },
    {
      "channel": 1,
      "note": 78,
      "start": 38.1259,
      "duration": 0.0153,
      "velocity": 98,
      "chip": "ym2612"
    },
    {
      "channel": 5,
      "note": 78,
      "start": 38.1364,
      "duration": 0.0164,
      "velocity": 98,
      "chip": "ym2612"
    },
    {
      "channel": 4,
      "note": 81,
      "start": 38.1376,
      "duration": 0.0164,
      "velocity": 86,
      "chip": "ym2612"
    },
    {
      "channel": 2,
      "note": 59,
      "start": 38.14,
      "duration": 0.0167,
      "velocity": 93,
      "chip": "ym2612"
    },
    {
      "channel": 5,
      "note": 78,
      "start": 38.1528,
      "duration": 0.0163,
      "velocity": 98,
      "chip": "ym2612"
    },
    {
      "channel": 4,
      "note": 81,
      "start": 38.154,
      "duration": 0.0163,
      "velocity": 86,
      "chip": "ym2612"
    },
    {
      "channel": 3,
      "note": 87,
      "start": 38.1556,
      "duration": 0.016,
      "velocity": 86,
      "chip": "ym2612"
    },
    {
      "channel": 2,
      "note": 59,
      "start": 38.1567,
      "duration": 0.016,
      "velocity": 93,
      "chip": "ym2612"
    },
    {
      "channel": 1,
      "note": 80,
      "start": 38.1582,
      "duration": 0.0158,
      "velocity": 98,
      "chip": "ym2612"
    },
    {
      "channel": 5,
      "note": 78,
      "start": 38.1691,
      "duration": 0.0161,
      "velocity": 98,
      "chip": "ym2612"
    },
    {
      "channel": 4,
      "note": 81,
      "start": 38.1703,
      "duration": 0.0162,
      "velocity": 86,
      "chip": "ym2612"
    },
    {
      "channel": 3,
      "note": 87,
      "start": 38.1716,
      "duration": 0.016,
      "velocity": 86,
      "chip": "ym2612"
    },
    {
      "channel": 2,
      "note": 59,
      "start": 38.1727,
      "duration": 0.016,
      "velocity": 93,
      "chip": "ym2612"
    },
    {
      "channel": 1,
      "note": 80,
      "start": 38.1739,
      "duration": 0.016,
      "velocity": 98,
      "chip": "ym2612"
    },
    {
      "channel": 5,
      "note": 78,
      "start": 38.1852,
      "duration": 0.0157,
      "velocity": 98,
      "chip": "ym2612"
    },
    {
      "channel": 3,
      "note": 87,
      "start": 38.1876,
      "duration": 0.0164,
      "velocity": 86,
      "chip": "ym2612"
    },
    {
      "channel": 2,
      "note": 59,
      "start": 38.1888,
      "duration": 0.0165,
      "velocity": 93,
      "chip": "ym2612"
    },
    {
      "channel": 1,
      "note": 80,
      "start": 38.19,
      "duration": 0.0164,
      "velocity": 98,
      "chip": "ym2612"
    },
    {
      "channel": 5,
      "note": 78,
      "start": 38.2009,
      "duration": 0.0159,
      "velocity": 98,
      "chip": "ym2612"
    },
    {
      "channel": 4,
      "note": 87,
      "start": 38.2029,
      "duration": 0.0157,
      "velocity": 86,
      "chip": "ym2612"
    },
    {
      "channel": 3,
      "note": 87,
      "start": 38.204,
      "duration": 0.0158,
      "velocity": 86,
      "chip": "ym2612"
    },
    {
      "channel": 2,
      "note": 59,
      "start": 38.2053,
      "duration": 0.0158,
      "velocity": 93,
      "chip": "ym2612"
    },
    {
      "channel": 1,
      "note": 80,
      "start": 38.2064,
      "duration": 0.0159,
      "velocity": 98,
      "chip": "ym2612"
    },
    {
      "channel": 5,
      "note": 78,
      "start": 38.2168,
      "duration": 0.0161,
      "velocity": 98,
      "chip": "ym2612"
    },
    {
      "channel": 4,
      "note": 87,
      "start": 38.2186,
      "duration": 0.0157,
      "velocity": 86,
      "chip": "ym2612"
    },
    {
      "channel": 3,
      "note": 87,
      "start": 38.2198,
      "duration": 0.0161,
      "velocity": 86,
      "chip": "ym2612"
    },
    {
      "channel": 2,
      "note": 59,
      "start": 38.2211,
      "duration": 0.016,
      "velocity": 93,
      "chip": "ym2612"
    },
    {
      "channel": 1,
      "note": 80,
      "start": 38.2222,
      "duration": 0.016,
      "velocity": 98,
      "chip": "ym2612"
    },
    {
      "channel": 5,
      "note": 78,
      "start": 38.2329,
      "duration": 0.0161,
      "velocity": 98,
      "chip": "ym2612"
    },
    {
      "channel": 4,
      "note": 87,
      "start": 38.2343,
      "duration": 0.0159,
      "velocity": 86,
      "chip": "ym2612"
    },
    {
      "channel": 3,
      "note": 87,
      "start": 38.2359,
      "duration": 0.0161,
      "velocity": 86,
      "chip": "ym2612"
    },
    {
      "channel": 2,
      "note": 59,
      "start": 38.2371,
      "duration": 0.0163,
      "velocity": 93,
      "chip": "ym2612"
    },
    {
      "channel": 1,
      "note": 80,
      "start": 38.2383,
      "duration": 0.0163,
      "velocity": 98,
      "chip": "ym2612"
    },
    {
      "channel": 5,
      "note": 78,
      "start": 38.2491,
      "duration": 0.0161,
      "velocity": 98,
      "chip": "ym2612"
    },
    {
      "channel": 4,
      "note": 87,
      "start": 38.2502,
      "duration": 0.0161,
      "velocity": 86,
      "chip": "ym2612"
    },
    {
      "channel": 3,
      "note": 87,
      "start": 38.252,
      "duration": 0.0161,
      "velocity": 86,
      "chip": "ym2612"
    },
    {
      "channel": 2,
      "note": 59,
      "start": 38.2534,
      "duration": 0.016,
      "velocity": 93,
      "chip": "ym2612"
    },
    {
      "channel": 1,
      "note": 80,
      "start": 38.2546,
      "duration": 0.016,
      "velocity": 98,
      "chip": "ym2612"
    },
    {
      "channel": 4,
      "note": 87,
      "start": 38.2663,
      "duration": 0.0165,
      "velocity": 86,
      "chip": "ym2612"
    },
    {
      "channel": 3,
      "note": 87,
      "start": 38.2681,
      "duration": 0.0162,
      "velocity": 86,
      "chip": "ym2612"
    },
    {
      "channel": 2,
      "note": 59,
      "start": 38.2694,
      "duration": 0.0164,
      "velocity": 93,
      "chip": "ym2612"
    },
    {
      "channel": 1,
      "note": 80,
      "start": 38.2706,
      "duration": 0.0165,
      "velocity": 98,
      "chip": "ym2612"
    },
    {
      "channel": 5,
      "note": 78,
      "start": 38.2816,
      "duration": 0.0159,
      "velocity": 98,
      "chip": "ym2612"
    },
    {
      "channel": 4,
      "note": 87,
      "start": 38.2828,
      "duration": 0.0159,
      "velocity": 86,
      "chip": "ym2612"
    },
    {
      "channel": 3,
      "note": 87,
      "start": 38.2843,
      "duration": 0.0156,
      "velocity": 86,
      "chip": "ym2612"
    },
    {
      "channel": 2,
      "note": 59,
      "start": 38.2859,
      "duration": 0.0158,
      "velocity": 93,
      "chip": "ym2612"
    },
    {
      "channel": 1,
      "note": 80,
      "start": 38.2871,
      "duration": 0.0159,
      "velocity": 98,
      "chip": "ym2612"
    },
    {
      "channel": 5,
      "note": 78,
      "start": 38.2974,
      "duration": 0.016,
      "velocity": 98,
      "chip": "ym2612"
    },
    {
      "channel": 4,
      "note": 87,
      "start": 38.2987,
      "duration": 0.016,
      "velocity": 86,
      "chip": "ym2612"
    },
    {
      "channel": 3,
      "note": 87,
      "start": 38.2998,
      "duration": 0.016,
      "velocity": 86,
      "chip": "ym2612"
    },
    {
      "channel": 2,
      "note": 59,
      "start": 38.3016,
      "duration": 0.0155,
      "velocity": 93,
      "chip": "ym2612"
    },
    {
      "channel": 1,
      "note": 80,
      "start": 38.3029,
      "duration": 0.016,
      "velocity": 98,
      "chip": "ym2612"
    },
    {
      "channel": 5,
      "note": 78,
      "start": 38.3134,
      "duration": 0.0161,
      "velocity": 98,
      "chip": "ym2612"
    },
    {
      "channel": 4,
      "note": 87,
      "start": 38.3147,
      "duration": 0.0161,
      "velocity": 86,
      "chip": "ym2612"
    },
    {
      "channel": 3,
      "note": 87,
      "start": 38.3159,
      "duration": 0.0162,
      "velocity": 86,
      "chip": "ym2612"
    },
    {
      "channel": 2,
      "note": 59,
      "start": 38.3171,
      "duration": 0.0161,
      "velocity": 93,
      "chip": "ym2612"
    },
    {
      "channel": 1,
      "note": 80,
      "start": 38.3189,
      "duration": 0.0161,
      "velocity": 98,
      "chip": "ym2612"
    },
    {
      "channel": 5,
      "note": 78,
      "start": 38.3295,
      "duration": 0.0161,
      "velocity": 98,
      "chip": "ym2612"
    },
    {
      "channel": 4,
      "note": 87,
      "start": 38.3308,
      "duration": 0.016,
      "velocity": 86,
      "chip": "ym2612"
    },
    {
      "channel": 2,
      "note": 59,
      "start": 38.3332,
      "duration": 0.0162,
      "velocity": 93,
      "chip": "ym2612"
    },
    {
      "channel": 1,
      "note": 80,
      "start": 38.335,
      "duration": 0.0158,
      "velocity": 98,
      "chip": "ym2612"
    },
    {
      "channel": 5,
      "note": 78,
      "start": 38.3456,
      "duration": 0.0161,
      "velocity": 98,
      "chip": "ym2612"
    },
    {
      "channel": 4,
      "note": 87,
      "start": 38.3468,
      "duration": 0.0161,
      "velocity": 86,
      "chip": "ym2612"
    },
    {
      "channel": 2,
      "note": 59,
      "start": 38.3495,
      "duration": 0.016,
      "velocity": 93,
      "chip": "ym2612"
    },
    {
      "channel": 1,
      "note": 80,
      "start": 38.3508,
      "duration": 0.0159,
      "velocity": 98,
      "chip": "ym2612"
    },
    {
      "channel": 5,
      "note": 78,
      "start": 38.3617,
      "duration": 0.0161,
      "velocity": 98,
      "chip": "ym2612"
    },
    {
      "channel": 4,
      "note": 87,
      "start": 38.3629,
      "duration": 0.0161,
      "velocity": 86,
      "chip": "ym2612"
    },
    {
      "channel": 2,
      "note": 59,
      "start": 38.3655,
      "duration": 0.0161,
      "velocity": 93,
      "chip": "ym2612"
    },
    {
      "channel": 1,
      "note": 80,
      "start": 38.3666,
      "duration": 0.0161,
      "velocity": 98,
      "chip": "ym2612"
    },
    {
      "channel": 5,
      "note": 78,
      "start": 38.3778,
      "duration": 0.0162,
      "velocity": 98,
      "chip": "ym2612"
    },
    {
      "channel": 2,
      "note": 59,
      "start": 38.3816,
      "duration": 0.0162,
      "velocity": 93,
      "chip": "ym2612"
    },
    {
      "channel": 1,
      "note": 80,
      "start": 38.3827,
      "duration": 0.0163,
      "velocity": 98,
      "chip": "ym2612"
    },
    {
      "channel": 5,
      "note": 78,
      "start": 38.394,
      "duration": 0.0161,
      "velocity": 98,
      "chip": "ym2612"
    },
    {
      "channel": 2,
      "note": 59,
      "start": 38.3978,
      "duration": 0.016,
      "velocity": 93,
      "chip": "ym2612"
    },
    {
      "channel": 1,
      "note": 80,
      "start": 38.399,
      "duration": 0.016,
      "velocity": 98,
      "chip": "ym2612"
    },
    {
      "channel": 5,
      "note": 78,
      "start": 38.4101,
      "duration": 0.0161,
      "velocity": 98,
      "chip": "ym2612"
    },
    {
      "channel": 2,
      "note": 59,
      "start": 38.4138,
      "duration": 0.0162,
      "velocity": 93,
      "chip": "ym2612"
    },
    {
      "channel": 2,
      "note": 59,
      "start": 38.43,
      "duration": 0.0293,
      "velocity": 93,
      "chip": "ym2612"
    },
    {
      "channel": 1,
      "note": 84,
      "start": 38.4446,
      "duration": 0.0194,
      "velocity": 124,
      "chip": "ym2612"
    },
    {
      "channel": 0,
      "note": 36,
      "start": 38.4482,
      "duration": 0.0176,
      "velocity": 115,
      "chip": "ym2612"
    },
    {
      "channel": 5,
      "note": 83,
      "start": 38.4517,
      "duration": 0.0154,
      "velocity": 98,
      "chip": "ym2612"
    },
    {
      "channel": 4,
      "note": 88,
      "start": 38.4547,
      "duration": 0.0141,
      "velocity": 98,
      "chip": "ym2612"
    },
    {
      "channel": 3,
      "note": 80,
      "start": 38.4578,
      "duration": 0.0123,
      "velocity": 103,
      "chip": "ym2612"
    },
    {
      "channel": 2,
      "note": 52,
      "start": 38.4593,
      "duration": 0.0121,
      "velocity": 93,
      "chip": "ym2612"
    },
    {
      "channel": 1,
      "note": 82,
      "start": 38.464,
      "duration": 0.0115,
      "velocity": 124,
      "chip": "ym2612"
    },
    {
      "channel": 0,
      "note": 36,
      "start": 38.4658,
      "duration": 0.0115,
      "velocity": 115,
      "chip": "ym2612"
    },
    {
      "channel": 5,
      "note": 83,
      "start": 38.467,
      "duration": 0.0114,
      "velocity": 98,
      "chip": "ym2612"
    },
    {
      "channel": 4,
      "note": 88,
      "start": 38.4689,
      "duration": 0.0107,
      "velocity": 98,
      "chip": "ym2612"
    },
    {
      "channel": 3,
      "note": 80,
      "start": 38.4701,
      "duration": 0.0106,
      "velocity": 103,
      "chip": "ym2612"
    },
    {
      "channel": 2,
      "note": 52,
      "start": 38.4713,
      "duration": 0.0106,
      "velocity": 93,
      "chip": "ym2612"
    },
    {
      "channel": 1,
      "note": 80,
      "start": 38.4755,
      "duration": 0.0155,
      "velocity": 124,
      "chip": "ym2612"
    },
    {
      "channel": 0,
      "note": 37,
      "start": 38.4773,
      "duration": 0.0155,
      "velocity": 115,
      "chip": "ym2612"
    },
    {
      "channel": 5,
      "note": 83,
      "start": 38.4784,
      "duration": 0.0155,
      "velocity": 98,
      "chip": "ym2612"
    },
    {
      "channel": 4,
      "note": 88,
      "start": 38.4795,
      "duration": 0.0155,
      "velocity": 98,
      "chip": "ym2612"
    },
    {
      "channel": 3,
      "note": 80,
      "start": 38.4807,
      "duration": 0.0155,
      "velocity": 103,
      "chip": "ym2612"
    },
    {
      "channel": 2,
      "note": 52,
      "start": 38.4819,
      "duration": 0.0155,
      "velocity": 93,
      "chip": "ym2612"
    },
    {
      "channel": 1,
      "note": 77,
      "start": 38.4911,
      "duration": 0.0161,
      "velocity": 124,
      "chip": "ym2612"
    },
    {
      "channel": 0,
      "note": 37,
      "start": 38.4928,
      "duration": 0.0161,
      "velocity": 115,
      "chip": "ym2612"
    },
    {
      "channel": 5,
      "note": 83,
      "start": 38.4939,
      "duration": 0.0161,
      "velocity": 98,
      "chip": "ym2612"
    },
    {
      "channel": 4,
      "note": 88,
      "start": 38.4951,
      "duration": 0.0161,
      "velocity": 98,
      "chip": "ym2612"
    },
    {
      "channel": 3,
      "note": 80,
      "start": 38.4962,
      "duration": 0.0162,
      "velocity": 103,
      "chip": "ym2612"
    },
    {
      "channel": 2,
      "note": 52,
      "start": 38.4974,
      "duration": 0.0161,
      "velocity": 93,
      "chip": "ym2612"
    },
    {
      "channel": 1,
      "note": 75,
      "start": 38.5072,
      "duration": 0.0161,
      "velocity": 124,
      "chip": "ym2612"
    },
    {
      "channel": 0,
      "note": 38,
      "start": 38.5089,
      "duration": 0.0161,
      "velocity": 115,
      "chip": "ym2612"
    },
    {
      "channel": 5,
      "note": 83,
      "start": 38.51,
      "duration": 0.0161,
      "velocity": 98,
      "chip": "ym2612"
    },
    {
      "channel": 4,
      "note": 88,
      "start": 38.5112,
      "duration": 0.0161,
      "velocity": 98,
      "chip": "ym2612"
    },
    {
      "channel": 2,
      "note": 52,
      "start": 38.5135,
      "duration": 0.0161,
      "velocity": 93,
      "chip": "ym2612"
    },
    {
      "channel": 1,
      "note": 72,
      "start": 38.5232,
      "duration": 0.0161,
      "velocity": 124,
      "chip": "ym2612"
    },
    {
      "channel": 0,
      "note": 38,
      "start": 38.525,
      "duration": 0.0161,
      "velocity": 115,
      "chip": "ym2612"
    },
    {
      "channel": 5,
      "note": 83,
      "start": 38.5261,
      "duration": 0.0161,
      "velocity": 98,
      "chip": "ym2612"
    },
    {
      "channel": 4,
      "note": 88,
      "start": 38.5273,
      "duration": 0.0163,
      "velocity": 98,
      "chip": "ym2612"
    },
    {
      "channel": 2,
      "note": 52,
      "start": 38.5296,
      "duration": 0.0167,
      "velocity": 93,
      "chip": "ym2612"
    },
    {
      "channel": 1,
      "note": 70,
      "start": 38.5393,
      "duration": 0.0161,
      "velocity": 124,
      "chip": "ym2612"
    },
    {
      "channel": 0,
      "note": 39,
      "start": 38.5411,
      "duration": 0.0161,
      "velocity": 115,
      "chip": "ym2612"
    },
    {
      "channel": 5,
      "note": 83,
      "start": 38.5423,
      "duration": 0.0161,
      "velocity": 98,
      "chip": "ym2612"
    },
    {
      "channel": 4,
      "note": 88,
      "start": 38.5435,
      "duration": 0.016,
      "velocity": 98,
      "chip": "ym2612"
    },
    {
      "channel": 3,
      "note": 80,
      "start": 38.5451,
      "duration": 0.0158,
      "velocity": 103,
      "chip": "ym2612"
    },
    {
      "channel": 2,
      "note": 52,
      "start": 38.5463,
      "duration": 0.0158,
      "velocity": 93,
      "chip": "ym2612"
    },
    {
      "channel": 1,
      "note": 68,
      "start": 38.5554,
      "duration": 0.0161,
      "velocity": 124,
      "chip": "ym2612"
    },
    {
      "channel": 0,
      "note": 39,
      "start": 38.5572,
      "duration": 0.0161,
      "velocity": 115,
      "chip": "ym2612"
    },
    {
      "channel": 5,
      "note": 83,
      "start": 38.5584,
      "duration": 0.0161,
      "velocity": 98,
      "chip": "ym2612"
    },
    {
      "channel": 4,
      "note": 88,
      "start": 38.5596,
      "duration": 0.0162,
      "velocity": 98,
      "chip": "ym2612"
    },
    {
      "channel": 3,
      "note": 80,
      "start": 38.5608,
      "duration": 0.016,
      "velocity": 103,
      "chip": "ym2612"
    },
    {
      "channel": 2,
      "note": 52,
      "start": 38.5621,
      "duration": 0.0161,
      "velocity": 93,
      "chip": "ym2612"
    },
    {
      "channel": 1,
      "note": 65,
      "start": 38.5715,
      "duration": 0.0161,
      "velocity": 124,
      "chip": "ym2612"
    },
    {
      "channel": 0,
      "note": 40,
      "start": 38.5732,
      "duration": 0.0161,
      "velocity": 115,
      "chip": "ym2612"
    },
    {
      "channel": 5,
      "note": 83,
      "start": 38.5745,
      "duration": 0.016,
      "velocity": 98,
      "chip": "ym2612"
    },
    {
      "channel": 4,
      "note": 88,
      "start": 38.5757,
      "duration": 0.016,
      "velocity": 98,
      "chip": "ym2612"
    },
    {
      "channel": 3,
      "note": 80,
      "start": 38.5769,
      "duration": 0.016,
      "velocity": 103,
      "chip": "ym2612"
    },
    {
      "channel": 2,
      "note": 52,
      "start": 38.5781,
      "duration": 0.0159,
      "velocity": 93,
      "chip": "ym2612"
    },
    {
      "channel": 1,
      "note": 63,
      "start": 38.5876,
      "duration": 0.0154,
      "velocity": 1,
      "chip": "ym2612"
    },
    {
      "channel": 0,
      "note": 40,
      "start": 38.5893,
      "duration": 0.0153,
      "velocity": 115,
      "chip": "ym2612"
    },
    {
      "channel": 5,
      "note": 83,
      "start": 38.5905,
      "duration": 0.0153,
      "velocity": 98,
      "chip": "ym2612"
    },
    {
      "channel": 4,
      "note": 88,
      "start": 38.5917,
      "duration": 0.0153,
      "velocity": 98,
      "chip": "ym2612"
    },
    {
      "channel": 3,
      "note": 80,
      "start": 38.5929,
      "duration": 0.0153,
      "velocity": 103,
      "chip": "ym2612"
    },
    {
      "channel": 2,
      "note": 52,
      "start": 38.5941,
      "duration": 0.0153,
      "velocity": 93,
      "chip": "ym2612"
    },
    {
      "channel": 0,
      "note": 40,
      "start": 38.6047,
      "duration": 0.0155,
      "velocity": 115,
      "chip": "ym2612"
    },
    {
      "channel": 5,
      "note": 83,
      "start": 38.6058,
      "duration": 0.0155,
      "velocity": 98,
      "chip": "ym2612"
    },
    {
      "channel": 4,
      "note": 88,
      "start": 38.607,
      "duration": 0.0155,
      "velocity": 98,
      "chip": "ym2612"
    },
    {
      "channel": 2,
      "note": 52,
      "start": 38.6094,
      "duration": 0.0155,
      "velocity": 93,
      "chip": "ym2612"
    },
    {
      "channel": 0,
      "note": 41,
      "start": 38.6202,
      "duration": 0.0163,
      "velocity": 115,
      "chip": "ym2612"
    },
    {
      "channel": 2,
      "note": 52,
      "start": 38.6249,
      "duration": 0.017,
      "velocity": 93,
      "chip": "ym2612"
    },
    {
      "channel": 0,
      "note": 41,
      "start": 38.6366,
      "duration": 0.0161,
      "velocity": 115,
      "chip": "ym2612"
    },
    {
      "channel": 2,
      "note": 52,
      "start": 38.6419,
      "duration": 0.0159,
      "velocity": 93,
      "chip": "ym2612"
    },
    {
      "channel": 0,
      "note": 42,
      "start": 38.6527,
      "duration": 0.0161,
      "velocity": 115,
      "chip": "ym2612"
    },
    {
      "channel": 2,
      "note": 52,
      "start": 38.6577,
      "duration": 0.0161,
      "velocity": 93,
      "chip": "ym2612"
    },
    {
      "channel": 0,
      "note": 42,
      "start": 38.6688,
      "duration": 0.016,
      "velocity": 115,
      "chip": "ym2612"
    },
    {
      "channel": 2,
      "note": 52,
      "start": 38.6738,
      "duration": 0.0161,
      "velocity": 93,
      "chip": "ym2612"
    },
    {
      "channel": 0,
      "note": 43,
      "start": 38.6848,
      "duration": 0.0156,
      "velocity": 115,
      "chip": "ym2612"
    },
    {
      "channel": 2,
      "note": 52,
      "start": 38.6899,
      "duration": 0.0161,
      "velocity": 93,
      "chip": "ym2612"
    },
    {
      "channel": 0,
      "note": 43,
      "start": 38.7004,
      "duration": 0.0161,
      "velocity": 115,
      "chip": "ym2612"
    },
    {
      "channel": 2,
      "note": 52,
      "start": 38.706,
      "duration": 0.0161,
      "velocity": 93,
      "chip": "ym2612"
    },
    {
      "channel": 0,
      "note": 44,
      "start": 38.7165,
      "duration": 0.0161,
      "velocity": 115,
      "chip": "ym2612"
    },
    {
      "channel": 2,
      "note": 52,
      "start": 38.7221,
      "duration": 0.0161,
      "velocity": 93,
      "chip": "ym2612"
    },
    {
      "channel": 0,
      "note": 44,
      "start": 38.7326,
      "duration": 0.0161,
      "velocity": 115,
      "chip": "ym2612"
    },
    {
      "channel": 2,
      "note": 52,
      "start": 38.7382,
      "duration": 0.0161,
      "velocity": 93,
      "chip": "ym2612"
    },
    {
      "channel": 0,
      "note": 44,
      "start": 38.7487,
      "duration": 0.0161,
      "velocity": 115,
      "chip": "ym2612"
    },
    {
      "channel": 2,
      "note": 52,
      "start": 38.7543,
      "duration": 0.0161,
      "velocity": 93,
      "chip": "ym2612"
    },
    {
      "channel": 0,
      "note": 45,
      "start": 38.7648,
      "duration": 0.0161,
      "velocity": 115,
      "chip": "ym2612"
    },
    {
      "channel": 2,
      "note": 52,
      "start": 38.7704,
      "duration": 0.0162,
      "velocity": 93,
      "chip": "ym2612"
    },
    {
      "channel": 0,
      "note": 45,
      "start": 38.7809,
      "duration": 0.0161,
      "velocity": 115,
      "chip": "ym2612"
    },
    {
      "channel": 2,
      "note": 52,
      "start": 38.7866,
      "duration": 0.0161,
      "velocity": 93,
      "chip": "ym2612"
    },
    {
      "channel": 0,
      "note": 46,
      "start": 38.797,
      "duration": 0.0161,
      "velocity": 115,
      "chip": "ym2612"
    },
    {
      "channel": 2,
      "note": 52,
      "start": 38.8027,
      "duration": 0.0161,
      "velocity": 93,
      "chip": "ym2612"
    },
    {
      "channel": 0,
      "note": 46,
      "start": 38.8131,
      "duration": 0.022,
      "velocity": 115,
      "chip": "ym2612"
    },
    {
      "channel": 2,
      "note": 52,
      "start": 38.8187,
      "duration": 0.0225,
      "velocity": 93,
      "chip": "ym2612"
    },
    {
      "channel": 1,
      "note": 84,
      "start": 38.831,
      "duration": 0.0148,
      "velocity": 124,
      "chip": "ym2612"
    },
    {
      "channel": 0,
      "note": 36,
      "start": 38.8351,
      "duration": 0.0125,
      "velocity": 115,
      "chip": "ym2612"
    },
    {
      "channel": 5,
      "note": 83,
      "start": 38.8367,
      "duration": 0.0122,
      "velocity": 98,
      "chip": "ym2612"
    },
    {
      "channel": 4,
      "note": 88,
      "start": 38.8382,
      "duration": 0.0118,
      "velocity": 98,
      "chip": "ym2612"
    },
    {
      "channel": 3,
      "note": 80,
      "start": 38.8397,
      "duration": 0.0121,
      "velocity": 103,
      "chip": "ym2612"
    },
    {
      "channel": 2,
      "note": 52,
      "start": 38.8412,
      "duration": 0.0119,
      "velocity": 93,
      "chip": "ym2612"
    },
    {
      "channel": 1,
      "note": 82,
      "start": 38.8458,
      "duration": 0.0155,
      "velocity": 124,
      "chip": "ym2612"
    },
    {
      "channel": 0,
      "note": 36,
      "start": 38.8476,
      "duration": 0.0155,
      "velocity": 115,
      "chip": "ym2612"
    },
    {
      "channel": 5,
      "note": 83,
      "start": 38.8488,
      "duration": 0.0154,
      "velocity": 98,
      "chip": "ym2612"
    },
    {
      "channel": 4,
      "note": 88,
      "start": 38.85,
      "duration": 0.0154,
      "velocity": 98,
      "chip": "ym2612"
    },
    {
      "channel": 3,
      "note": 80,
      "start": 38.8518,
      "duration": 0.0148,
      "velocity": 103,
      "chip": "ym2612"
    },
    {
      "channel": 2,
      "note": 52,
      "start": 38.8531,
      "duration": 0.0152,
      "velocity": 93,
      "chip": "ym2612"
    },
    {
      "channel": 1,
      "note": 80,
      "start": 38.8614,
      "duration": 0.0161,
      "velocity": 124,
      "chip": "ym2612"
    },
    {
      "channel": 0,
      "note": 37,
      "start": 38.8631,
      "duration": 0.0161,
      "velocity": 115,
      "chip": "ym2612"
    },
    {
      "channel": 5,
      "note": 83,
      "start": 38.8642,
      "duration": 0.0162,
      "velocity": 98,
      "chip": "ym2612"
    },
    {
      "channel": 4,
      "note": 88,
      "start": 38.8654,
      "duration": 0.0161,
      "velocity": 98,
      "chip": "ym2612"
    },
    {
      "channel": 3,
      "note": 80,
      "start": 38.8666,
      "duration": 0.0161,
      "velocity": 103,
      "chip": "ym2612"
    },
    {
      "channel": 2,
      "note": 52,
      "start": 38.8683,
      "duration": 0.0156,
      "velocity": 93,
      "chip": "ym2612"
    },
    {
      "channel": 1,
      "note": 77,
      "start": 38.8775,
      "duration": 0.0161,
      "velocity": 124,
      "chip": "ym2612"
    },
    {
      "channel": 0,
      "note": 37,
      "start": 38.8792,
      "duration": 0.0161,
      "velocity": 115,
      "chip": "ym2612"
    },
    {
      "channel": 5,
      "note": 83,
      "start": 38.8804,
      "duration": 0.016,
      "velocity": 98,
      "chip": "ym2612"
    },
    {
      "channel": 4,
      "note": 88,
      "start": 38.8815,
      "duration": 0.0161,
      "velocity": 98,
      "chip": "ym2612"
    },
    {
      "channel": 3,
      "note": 80,
      "start": 38.8827,
      "duration": 0.0161,
      "velocity": 103,
      "chip": "ym2612"
    },
    {
      "channel": 2,
      "note": 52,
      "start": 38.8839,
      "duration": 0.016,
      "velocity": 93,
      "chip": "ym2612"
    },
    {
      "channel": 1,
      "note": 75,
      "start": 38.8936,
      "duration": 0.0161,
      "velocity": 124,
      "chip": "ym2612"
    },
    {
      "channel": 0,
      "note": 38,
      "start": 38.8953,
      "duration": 0.0162,
      "velocity": 115,
      "chip": "ym2612"
    },
    {
      "channel": 5,
      "note": 83,
      "start": 38.8964,
      "duration": 0.0161,
      "velocity": 98,
      "chip": "ym2612"
    },
    {
      "channel": 4,
      "note": 88,
      "start": 38.8976,
      "duration": 0.0161,
      "velocity": 98,
      "chip": "ym2612"
    },
    {
      "channel": 3,
      "note": 80,
      "start": 38.8988,
      "duration": 0.0161,
      "velocity": 103,
      "chip": "ym2612"
    },
    {
      "channel": 2,
      "note": 52,
      "start": 38.8999,
      "duration": 0.0161,
      "velocity": 93,
      "chip": "ym2612"
    },
    {
      "channel": 1,
      "note": 72,
      "start": 38.9097,
      "duration": 0.0179,
      "velocity": 124,
      "chip": "ym2612"
    },
    {
      "channel": 0,
      "note": 38,
      "start": 38.9114,
      "duration": 0.0179,
      "velocity": 115,
      "chip": "ym2612"
    },
    {
      "channel": 5,
      "note": 83,
      "start": 38.9126,
      "duration": 0.0179,
      "velocity": 98,
      "chip": "ym2612"
    },
    {
      "channel": 4,
      "note": 88,
      "start": 38.9137,
      "duration": 0.0179,
      "velocity": 98,
      "chip": "ym2612"
    },
    {
      "channel": 3,
      "note": 80,
      "start": 38.9149,
      "duration": 0.018,
      "velocity": 103,
      "chip": "ym2612"
    },
    {
      "channel": 2,
      "note": 52,
      "start": 38.9161,
      "duration": 0.0182,
      "velocity": 93,
      "chip": "ym2612"
    },
    {
      "channel": 1,
      "note": 84,
      "start": 38.9276,
      "duration": 0.0143,
      "velocity": 124,
      "chip": "ym2612"
    },
    {
      "channel": 0,
      "note": 39,
      "start": 38.9294,
      "duration": 0.0143,
      "velocity": 115,
      "chip": "ym2612"
    },
    {
      "channel": 5,
      "note": 83,
      "start": 38.9305,
      "duration": 0.0143,
      "velocity": 98,
      "chip": "ym2612"
    },
    {
      "channel": 4,
      "note": 88,
      "start": 38.9317,
      "duration": 0.0143,
      "velocity": 98,
      "chip": "ym2612"
    },
    {
      "channel": 3,
      "note": 80,
      "start": 38.9329,
      "duration": 0.0143,
      "velocity": 103,
      "chip": "ym2612"
    },
    {
      "channel": 2,
      "note": 52,
      "start": 38.9343,
      "duration": 0.0141,
      "velocity": 93,
      "chip": "ym2612"
    },
    {
      "channel": 1,
      "note": 82,
      "start": 38.942,
      "duration": 0.016,
      "velocity": 124,
      "chip": "ym2612"
    },
    {
      "channel": 0,
      "note": 39,
      "start": 38.9437,
      "duration": 0.016,
      "velocity": 115,
      "chip": "ym2612"
    },
    {
      "channel": 5,
      "note": 83,
      "start": 38.9448,
      "duration": 0.016,
      "velocity": 98,
      "chip": "ym2612"
    },
    {
      "channel": 4,
      "note": 88,
      "start": 38.946,
      "duration": 0.016,
      "velocity": 98,
      "chip": "ym2612"
    },
    {
      "channel": 2,
      "note": 52,
      "start": 38.9484,
      "duration": 0.016,
      "velocity": 93,
      "chip": "ym2612"
    },
    {
      "channel": 1,
      "note": 80,
      "start": 38.958,
      "duration": 0.0161,
      "velocity": 124,
      "chip": "ym2612"
    },
    {
      "channel": 0,
      "note": 40,
      "start": 38.9597,
      "duration": 0.0161,
      "velocity": 115,
      "chip": "ym2612"
    },
    {
      "channel": 5,
      "note": 83,
      "start": 38.9608,
      "duration": 0.0162,
      "velocity": 98,
      "chip": "ym2612"
    },
    {
      "channel": 4,
      "note": 88,
      "start": 38.962,
      "duration": 0.0163,
      "velocity": 98,
      "chip": "ym2612"
    },
    {
      "channel": 2,
      "note": 52,
      "start": 38.9644,
      "duration": 0.0167,
      "velocity": 93,
      "chip": "ym2612"
    },
    {
      "channel": 1,
      "note": 77,
      "start": 38.9741,
      "duration": 0.0161,
      "velocity": 124,
      "chip": "ym2612"
    },
    {
      "channel": 0,
      "note": 40,
      "start": 38.9758,
      "duration": 0.0161,
      "velocity": 115,
      "chip": "ym2612"
    },
    {
      "channel": 5,
      "note": 83,
      "start": 38.977,
      "duration": 0.0161,
      "velocity": 98,
      "chip": "ym2612"
    },
    {
      "channel": 4,
      "note": 88,
      "start": 38.9783,
      "duration": 0.016,
      "velocity": 98,
      "chip": "ym2612"
    },
    {
      "channel": 3,
      "note": 80,
      "start": 38.9798,
      "duration": 0.0158,
      "velocity": 103,
      "chip": "ym2612"
    },
    {
      "channel": 2,
      "note": 52,
      "start": 38.981,
      "duration": 0.0158,
      "velocity": 93,
      "chip": "ym2612"
    },
    {
      "channel": 1,
      "note": 75,
      "start": 38.9902,
      "duration": 0.0161,
      "velocity": 124,
      "chip": "ym2612"
    },
    {
      "channel": 0,
      "note": 40,
      "start": 38.9919,
      "duration": 0.0161,
      "velocity": 115,
      "chip": "ym2612"
    },
    {
      "channel": 5,
      "note": 83,
      "start": 38.9931,
      "duration": 0.0161,
      "velocity": 98,
      "chip": "ym2612"
    },
    {
      "channel": 4,
      "note": 88,
      "start": 38.9943,
      "duration": 0.0162,
      "velocity": 98,
      "chip": "ym2612"
    },
    {
      "channel": 3,
      "note": 80,
      "start": 38.9956,
      "duration": 0.0161,
      "velocity": 103,
      "chip": "ym2612"
    },
    {
      "channel": 2,
      "note": 52,
      "start": 38.9968,
      "duration": 0.0161,
      "velocity": 93,
      "chip": "ym2612"
    },
    {
      "channel": 1,
      "note": 72,
      "start": 39.0063,
      "duration": 0.0161,
      "velocity": 124,
      "chip": "ym2612"
    },
    {
      "channel": 0,
      "note": 41,
      "start": 39.008,
      "duration": 0.0179,
      "velocity": 127,
      "chip": "ym2612"
    },
    {
      "channel": 5,
      "note": 83,
      "start": 39.0092,
      "duration": 0.018,
      "velocity": 98,
      "chip": "ym2612"
    },
    {
      "channel": 4,
      "note": 88,
      "start": 39.0105,
      "duration": 0.0179,
      "velocity": 98,
      "chip": "ym2612"
    },
    {
      "channel": 3,
      "note": 80,
      "start": 39.0117,
      "duration": 0.0178,
      "velocity": 103,
      "chip": "ym2612"
    },
    {
      "channel": 2,
      "note": 52,
      "start": 39.0129,
      "duration": 0.0178,
      "velocity": 93,
      "chip": "ym2612"
    },
    {
      "channel": 1,
      "note": 70,
      "start": 39.0224,
      "duration": 0.0162,
      "velocity": 124,
      "chip": "ym2612"
    },
    {
      "channel": 0,
      "note": 78,
      "start": 39.026,
      "duration": 0.0143,
      "velocity": 127,
      "chip": "ym2612"
    },
    {
      "channel": 5,
      "note": 83,
      "start": 39.0271,
      "duration": 0.0143,
      "velocity": 98,
      "chip": "ym2612"
    },
    {
      "channel": 4,
      "note": 88,
      "start": 39.0283,
      "duration": 0.0142,
      "velocity": 98,
      "chip": "ym2612"
    },
    {
      "channel": 3,
      "note": 80,
      "start": 39.0295,
      "duration": 0.0143,
      "velocity": 103,
      "chip": "ym2612"
    },
    {
      "channel": 2,
      "note": 52,
      "start": 39.0307,
      "duration": 0.0142,
      "velocity": 93,
      "chip": "ym2612"
    },
    {
      "channel": 1,
      "note": 68,
      "start": 39.0385,
      "duration": 0.0161,
      "velocity": 124,
      "chip": "ym2612"
    },
    {
      "channel": 0,
      "note": 76,
      "start": 39.0402,
      "duration": 0.016,
      "velocity": 127,
      "chip": "ym2612"
    },
    {
      "channel": 5,
      "note": 83,
      "start": 39.0415,
      "duration": 0.016,
      "velocity": 98,
      "chip": "ym2612"
    },
    {
      "channel": 4,
      "note": 88,
      "start": 39.0426,
      "duration": 0.016,
      "velocity": 98,
      "chip": "ym2612"
    },
    {
      "channel": 3,
      "note": 80,
      "start": 39.0438,
      "duration": 0.016,
      "velocity": 103,
      "chip": "ym2612"
    },
    {
      "channel": 2,
      "note": 52,
      "start": 39.0449,
      "duration": 0.016,
      "velocity": 93,
      "chip": "ym2612"
    },
    {
      "channel": 1,
      "note": 65,
      "start": 39.0546,
      "duration": 0.0161,
      "velocity": 124,
      "chip": "ym2612"
    },
    {
      "channel": 0,
      "note": 75,
      "start": 39.0563,
      "duration": 0.0162,
      "velocity": 127,
      "chip": "ym2612"
    },
    {
      "channel": 5,
      "note": 83,
      "start": 39.0575,
      "duration": 0.0161,
      "velocity": 98,
      "chip": "ym2612"
    },
    {
      "channel": 4,
      "note": 88,
      "start": 39.0586,
      "duration": 0.0162,
      "velocity": 98,
      "chip": "ym2612"
    },
    {
      "channel": 3,
      "note": 80,
      "start": 39.0598,
      "duration": 0.0161,
      "velocity": 103,
      "chip": "ym2612"
    },
    {
      "channel": 2,
      "note": 52,
      "start": 39.061,
      "duration": 0.0162,
      "velocity": 93,
      "chip": "ym2612"
    },
    {
      "channel": 1,
      "note": 63,
      "start": 39.0708,
      "duration": 0.0153,
      "velocity": 1,
      "chip": "ym2612"
    },
    {
      "channel": 0,
      "note": 73,
      "start": 39.0724,
      "duration": 0.0153,
      "velocity": 127,
      "chip": "ym2612"
    },
    {
      "channel": 5,
      "note": 83,
      "start": 39.0736,
      "duration": 0.0153,
      "velocity": 98,
      "chip": "ym2612"
    },
    {
      "channel": 4,
      "note": 88,
      "start": 39.0748,
      "duration": 0.0154,
      "velocity": 98,
      "chip": "ym2612"
    },
    {
      "channel": 3,
      "note": 80,
      "start": 39.076,
      "duration": 0.0154,
      "velocity": 103,
      "chip": "ym2612"
    },
    {
      "channel": 2,
      "note": 52,
      "start": 39.0772,
      "duration": 0.0155,
      "velocity": 93,
      "chip": "ym2612"
    },
    {
      "channel": 0,
      "note": 71,
      "start": 39.0877,
      "duration": 0.0156,
      "velocity": 127,
      "chip": "ym2612"
    },
    {
      "channel": 5,
      "note": 83,
      "start": 39.089,
      "duration": 0.0156,
      "velocity": 98,
      "chip": "ym2612"
    },
    {
      "channel": 4,
      "note": 88,
      "start": 39.0902,
      "duration": 0.0156,
      "velocity": 98,
      "chip": "ym2612"
    },
    {
      "channel": 2,
      "note": 52,
      "start": 39.0927,
      "duration": 0.0156,
      "velocity": 93,
      "chip": "ym2612"
    },
    {
      "channel": 0,
      "note": 70,
      "start": 39.1033,
      "duration": 0.0181,
      "velocity": 124,
      "chip": "ym2612"
    },
    {
      "channel": 2,
      "note": 52,
      "start": 39.1083,
      "duration": 0.0185,
      "velocity": 93,
      "chip": "ym2612"
    },
    {
      "channel": 0,
      "note": 84,
      "start": 39.1215,
      "duration": 0.0143,
      "velocity": 124,
      "chip": "ym2612"
    },
    {
      "channel": 2,
      "note": 52,
      "start": 39.1268,
      "duration": 0.014,
      "velocity": 93,
      "chip": "ym2612"
    },
    {
      "channel": 0,
      "note": 82,
      "start": 39.1358,
      "duration": 0.016,
      "velocity": 124,
      "chip": "ym2612"
    },
    {
      "channel": 2,
      "note": 52,
      "start": 39.1408,
      "duration": 0.016,
      "velocity": 93,
      "chip": "ym2612"
    },
    {
      "channel": 0,
      "note": 80,
      "start": 39.1517,
      "duration": 0.0158,
      "velocity": 124,
      "chip": "ym2612"
    },
    {
      "channel": 2,
      "note": 52,
      "start": 39.1568,
      "duration": 0.0161,
      "velocity": 93,
      "chip": "ym2612"
    },
    {
      "channel": 0,
      "note": 77,
      "start": 39.1675,
      "duration": 0.0159,
      "velocity": 124,
      "chip": "ym2612"
    },
    {
      "channel": 2,
      "note": 52,
      "start": 39.1729,
      "duration": 0.0161,
      "velocity": 93,
      "chip": "ym2612"
    },
    {
      "channel": 0,
      "note": 75,
      "start": 39.1834,
      "duration": 0.0161,
      "velocity": 124,
      "chip": "ym2612"
    },
    {
      "channel": 2,
      "note": 52,
      "start": 39.189,
      "duration": 0.0161,
      "velocity": 93,
      "chip": "ym2612"
    },
    {
      "channel": 0,
      "note": 72,
      "start": 39.1995,
      "duration": 0.0181,
      "velocity": 124,
      "chip": "ym2612"
    },
    {
      "channel": 2,
      "note": 52,
      "start": 39.2051,
      "duration": 0.018,
      "velocity": 93,
      "chip": "ym2612"
    },
    {
      "channel": 0,
      "note": 84,
      "start": 39.2177,
      "duration": 0.0141,
      "velocity": 124,
      "chip": "ym2612"
    },
    {
      "channel": 2,
      "note": 52,
      "start": 39.2231,
      "duration": 0.0143,
      "velocity": 93,
      "chip": "ym2612"
    },
    {
      "channel": 0,
      "note": 82,
      "start": 39.2318,
      "duration": 0.016,
      "velocity": 124,
      "chip": "ym2612"
    },
    {
      "channel": 2,
      "note": 52,
      "start": 39.2374,
      "duration": 0.016,
      "velocity": 93,
      "chip": "ym2612"
    },
    {
      "channel": 0,
      "note": 80,
      "start": 39.2478,
      "duration": 0.0162,
      "velocity": 124,
      "chip": "ym2612"
    },
    {
      "channel": 2,
      "note": 52,
      "start": 39.2535,
      "duration": 0.0161,
      "velocity": 93,
      "chip": "ym2612"
    },
    {
      "channel": 0,
      "note": 77,
      "start": 39.264,
      "duration": 0.0161,
      "velocity": 124,
      "chip": "ym2612"
    },
    {
      "channel": 2,
      "note": 52,
      "start": 39.2696,
      "duration": 0.0161,
      "velocity": 93,
      "chip": "ym2612"
    },
    {
      "channel": 0,
      "note": 75,
      "start": 39.2801,
      "duration": 0.0161,
      "velocity": 124,
      "chip": "ym2612"
    },
    {
      "channel": 2,
      "note": 52,
      "start": 39.2857,
      "duration": 0.016,
      "velocity": 93,
      "chip": "ym2612"
    },
    {
      "channel": 0,
      "note": 72,
      "start": 39.2961,
      "duration": 0.018,
      "velocity": 127,
      "chip": "ym2612"
    },
    {
      "channel": 2,
      "note": 52,
      "start": 39.3017,
      "duration": 0.0181,
      "velocity": 93,
      "chip": "ym2612"
    },
    {
      "channel": 0,
      "note": 78,
      "start": 39.3141,
      "duration": 0.0143,
      "velocity": 127,
      "chip": "ym2612"
    },
    {
      "channel": 2,
      "note": 52,
      "start": 39.3198,
      "duration": 0.0137,
      "velocity": 93,
      "chip": "ym2612"
    },
    {
      "channel": 0,
      "note": 76,
      "start": 39.3284,
      "duration": 0.016,
      "velocity": 127,
      "chip": "ym2612"
    },
    {
      "channel": 2,
      "note": 52,
      "start": 39.3334,
      "duration": 0.016,
      "velocity": 93,
      "chip": "ym2612"
    },
    {
      "channel": 0,
      "note": 75,
      "start": 39.3444,
      "duration": 0.0161,
      "velocity": 127,
      "chip": "ym2612"
    },
    {
      "channel": 2,
      "note": 52,
      "start": 39.3495,
      "duration": 0.0161,
      "velocity": 93,
      "chip": "ym2612"
    },
    {
      "channel": 0,
      "note": 73,
      "start": 39.3605,
      "duration": 0.0161,
      "velocity": 127,
      "chip": "ym2612"
    },
    {
      "channel": 2,
      "note": 52,
      "start": 39.3656,
      "duration": 0.0162,
      "velocity": 93,
      "chip": "ym2612"
    },
    {
      "channel": 0,
      "note": 71,
      "start": 39.3766,
      "duration": 0.0161,
      "velocity": 127,
      "chip": "ym2612"
    },
    {
      "channel": 2,
      "note": 52,
      "start": 39.3817,
      "duration": 0.0161,
      "velocity": 93,
      "chip": "ym2612"
    },
    {
      "channel": 0,
      "note": 70,
      "start": 39.3927,
      "duration": 0.0188,
      "velocity": 115,
      "chip": "ym2612"
    },
    {
      "channel": 2,
      "note": 52,
      "start": 39.3978,
      "duration": 0.023,
      "velocity": 93,
      "chip": "ym2612"
    },
    {
      "channel": 0,
      "note": 36,
      "start": 39.4115,
      "duration": 0.0165,
      "velocity": 115,
      "chip": "ym2612"
    },
    {
      "channel": 4,
      "note": 80,
      "start": 39.4157,
      "duration": 0.0148,
      "velocity": 98,
      "chip": "ym2612"
    },
    {
      "channel": 3,
      "note": 83,
      "start": 39.4194,
      "duration": 0.0124,
      "velocity": 98,
      "chip": "ym2612"
    },
    {
      "channel": 2,
      "note": 52,
      "start": 39.4209,
      "duration": 0.0121,
      "velocity": 93,
      "chip": "ym2612"
    },
    {
      "channel": 1,
      "note": 80,
      "start": 39.4236,
      "duration": 0.0107,
      "velocity": 108,
      "chip": "ym2612"
    },
    {
      "channel": 0,
      "note": 36,
      "start": 39.428,
      "duration": 0.013,
      "velocity": 115,
      "chip": "ym2612"
    },
    {
      "channel": 4,
      "note": 80,
      "start": 39.4305,
      "duration": 0.0147,
      "velocity": 98,
      "chip": "ym2612"
    },
    {
      "channel": 3,
      "note": 83,
      "start": 39.4318,
      "duration": 0.0146,
      "velocity": 98,
      "chip": "ym2612"
    },
    {
      "channel": 2,
      "note": 52,
      "start": 39.433,
      "duration": 0.0146,
      "velocity": 93,
      "chip": "ym2612"
    },
    {
      "channel": 1,
      "note": 71,
      "start": 39.4344,
      "duration": 0.0143,
      "velocity": 108,
      "chip": "ym2612"
    },
    {
      "channel": 0,
      "note": 37,
      "start": 39.4411,
      "duration": 0.0161,
      "velocity": 115,
      "chip": "ym2612"
    },
    {
      "channel": 5,
      "note": 71,
      "start": 39.4441,
      "duration": 0.0143,
      "velocity": 108,
      "chip": "ym2612"
    },
    {
      "channel": 4,
      "note": 80,
      "start": 39.4452,
      "duration": 0.0143,
      "velocity": 98,
      "chip": "ym2612"
    },
    {
      "channel": 3,
      "note": 83,
      "start": 39.4464,
      "duration": 0.0143,
      "velocity": 98,
      "chip": "ym2612"
    },
    {
      "channel": 2,
      "note": 52,
      "start": 39.4476,
      "duration": 0.0143,
      "velocity": 93,
      "chip": "ym2612"
    },
    {
      "channel": 1,
      "note": 71,
      "start": 39.4487,
      "duration": 0.0143,
      "velocity": 108,
      "chip": "ym2612"
    },
    {
      "channel": 0,
      "note": 37,
      "start": 39.4572,
      "duration": 0.0161,
      "velocity": 115,
      "chip": "ym2612"
    },
    {
      "channel": 5,
      "note": 71,
      "start": 39.4584,
      "duration": 0.016,
      "velocity": 108,
      "chip": "ym2612"
    },
    {
      "channel": 4,
      "note": 80,
      "start": 39.4595,
      "duration": 0.016,
      "velocity": 98,
      "chip": "ym2612"
    },
    {
      "channel": 3,
      "note": 83,
      "start": 39.4607,
      "duration": 0.016,
      "velocity": 98,
      "chip": "ym2612"
    },
    {
      "channel": 2,
      "note": 52,
      "start": 39.4619,
      "duration": 0.016,
      "velocity": 93,
      "chip": "ym2612"
    },
    {
      "channel": 1,
      "note": 71,
      "start": 39.463,
      "duration": 0.016,
      "velocity": 108,
      "chip": "ym2612"
    },
    {
      "channel": 0,
      "note": 38,
      "start": 39.4732,
      "duration": 0.0161,
      "velocity": 115,
      "chip": "ym2612"
    },
    {
      "channel": 5,
      "note": 71,
      "start": 39.4744,
      "duration": 0.0161,
      "velocity": 108,
      "chip": "ym2612"
    },
    {
      "channel": 4,
      "note": 80,
      "start": 39.4755,
      "duration": 0.0162,
      "velocity": 98,
      "chip": "ym2612"
    },
    {
      "channel": 3,
      "note": 83,
      "start": 39.4768,
      "duration": 0.0161,
      "velocity": 98,
      "chip": "ym2612"
    },
    {
      "channel": 2,
      "note": 52,
      "start": 39.4779,
      "duration": 0.0161,
      "velocity": 93,
      "chip": "ym2612"
    },
    {
      "channel": 1,
      "note": 71,
      "start": 39.479,
      "duration": 0.0161,
      "velocity": 108,
      "chip": "ym2612"
    },
    {
      "channel": 0,
      "note": 38,
      "start": 39.4893,
      "duration": 0.0161,
      "velocity": 115,
      "chip": "ym2612"
    },
    {
      "channel": 5,
      "note": 71,
      "start": 39.4905,
      "duration": 0.0161,
      "velocity": 108,
      "chip": "ym2612"
    },
    {
      "channel": 4,
      "note": 80,
      "start": 39.4917,
      "duration": 0.0161,
      "velocity": 98,
      "chip": "ym2612"
    },
    {
      "channel": 3,
      "note": 83,
      "start": 39.4929,
      "duration": 0.0161,
      "velocity": 98,
      "chip": "ym2612"
    },
    {
      "channel": 2,
      "note": 52,
      "start": 39.494,
      "duration": 0.0162,
      "velocity": 93,
      "chip": "ym2612"
    },
    {
      "channel": 1,
      "note": 71,
      "start": 39.4952,
      "duration": 0.0161,
      "velocity": 108,
      "chip": "ym2612"
    },
    {
      "channel": 0,
      "note": 39,
      "start": 39.5054,
      "duration": 0.0161,
      "velocity": 115,
      "chip": "ym2612"
    },
    {
      "channel": 5,
      "note": 71,
      "start": 39.5066,
      "duration": 0.0162,
      "velocity": 108,
      "chip": "ym2612"
    },
    {
      "channel": 4,
      "note": 80,
      "start": 39.5078,
      "duration": 0.0161,
      "velocity": 98,
      "chip": "ym2612"
    },
    {
      "channel": 3,
      "note": 83,
      "start": 39.509,
      "duration": 0.0161,
      "velocity": 98,
      "chip": "ym2612"
    },
    {
      "channel": 2,
      "note": 52,
      "start": 39.5102,
      "duration": 0.0161,
      "velocity": 93,
      "chip": "ym2612"
    },
    {
      "channel": 1,
      "note": 71,
      "start": 39.5113,
      "duration": 0.0162,
      "velocity": 108,
      "chip": "ym2612"
    },
    {
      "channel": 0,
      "note": 39,
      "start": 39.5215,
      "duration": 0.0161,
      "velocity": 115,
      "chip": "ym2612"
    },
    {
      "channel": 5,
      "note": 71,
      "start": 39.5227,
      "duration": 0.0161,
      "velocity": 108,
      "chip": "ym2612"
    },
    {
      "channel": 4,
      "note": 80,
      "start": 39.5239,
      "duration": 0.0161,
      "velocity": 98,
      "chip": "ym2612"
    },
    {
      "channel": 3,
      "note": 83,
      "start": 39.5251,
      "duration": 0.0161,
      "velocity": 98,
      "chip": "ym2612"
    },
    {
      "channel": 2,
      "note": 52,
      "start": 39.5262,
      "duration": 0.0161,
      "velocity": 93,
      "chip": "ym2612"
    },
    {
      "channel": 1,
      "note": 71,
      "start": 39.5275,
      "duration": 0.0161,
      "velocity": 108,
      "chip": "ym2612"
    },
    {
      "channel": 0,
      "note": 40,
      "start": 39.5376,
      "duration": 0.0162,
      "velocity": 115,
      "chip": "ym2612"
    },
    {
      "channel": 5,
      "note": 71,
      "start": 39.5388,
      "duration": 0.0161,
      "velocity": 108,
      "chip": "ym2612"
    },
    {
      "channel": 4,
      "note": 80,
      "start": 39.54,
      "duration": 0.0163,
      "velocity": 98,
      "chip": "ym2612"
    },
    {
      "channel": 3,
      "note": 83,
      "start": 39.5412,
      "duration": 0.0163,
      "velocity": 98,
      "chip": "ym2612"
    },
    {
      "channel": 2,
      "note": 52,
      "start": 39.5423,
      "duration": 0.0164,
      "velocity": 93,
      "chip": "ym2612"
    },
    {
      "channel": 1,
      "note": 71,
      "start": 39.5435,
      "duration": 0.0164,
      "velocity": 108,
      "chip": "ym2612"
    },
    {
      "channel": 0,
      "note": 40,
      "start": 39.5538,
      "duration": 0.0163,
      "velocity": 115,
      "chip": "ym2612"
    },
    {
      "channel": 5,
      "note": 71,
      "start": 39.555,
      "duration": 0.0163,
      "velocity": 108,
      "chip": "ym2612"
    },
    {
      "channel": 4,
      "note": 80,
      "start": 39.5563,
      "duration": 0.0163,
      "velocity": 98,
      "chip": "ym2612"
    },
    {
      "channel": 3,
      "note": 83,
      "start": 39.5576,
      "duration": 0.0163,
      "velocity": 98,
      "chip": "ym2612"
    },
    {
      "channel": 2,
      "note": 52,
      "start": 39.5588,
      "duration": 0.0163,
      "velocity": 93,
      "chip": "ym2612"
    },
    {
      "channel": 1,
      "note": 71,
      "start": 39.56,
      "duration": 0.0163,
      "velocity": 108,
      "chip": "ym2612"
    },
    {
      "channel": 0,
      "note": 40,
      "start": 39.5701,
      "duration": 0.0163,
      "velocity": 115,
      "chip": "ym2612"
    },
    {
      "channel": 5,
      "note": 71,
      "start": 39.5713,
      "duration": 0.0164,
      "velocity": 108,
      "chip": "ym2612"
    },
    {
      "channel": 4,
      "note": 80,
      "start": 39.5726,
      "duration": 0.0164,
      "velocity": 98,
      "chip": "ym2612"
    },
    {
      "channel": 3,
      "note": 83,
      "start": 39.5738,
      "duration": 0.0164,
      "velocity": 98,
      "chip": "ym2612"
    },
    {
      "channel": 2,
      "note": 52,
      "start": 39.575,
      "duration": 0.0164,
      "velocity": 93,
      "chip": "ym2612"
    },
    {
      "channel": 1,
      "note": 71,
      "start": 39.5762,
      "duration": 0.0165,
      "velocity": 108,
      "chip": "ym2612"
    },
    {
      "channel": 0,
      "note": 41,
      "start": 39.5865,
      "duration": 0.0162,
      "velocity": 115,
      "chip": "ym2612"
    },
    {
      "channel": 5,
      "note": 71,
      "start": 39.5878,
      "duration": 0.0161,
      "velocity": 108,
      "chip": "ym2612"
    },
    {
      "channel": 4,
      "note": 80,
      "start": 39.589,
      "duration": 0.0161,
      "velocity": 98,
      "chip": "ym2612"
    },
    {
      "channel": 3,
      "note": 83,
      "start": 39.5902,
      "duration": 0.016,
      "velocity": 98,
      "chip": "ym2612"
    },
    {
      "channel": 2,
      "note": 52,
      "start": 39.5915,
      "duration": 0.016,
      "velocity": 93,
      "chip": "ym2612"
    },
    {
      "channel": 1,
      "note": 71,
      "start": 39.5927,
      "duration": 0.0159,
      "velocity": 108,
      "chip": "ym2612"
    },
    {
      "channel": 0,
      "note": 41,
      "start": 39.6027,
      "duration": 0.0161,
      "velocity": 115,
      "chip": "ym2612"
    },
    {
      "channel": 5,
      "note": 71,
      "start": 39.6039,
      "duration": 0.0161,
      "velocity": 108,
      "chip": "ym2612"
    },
    {
      "channel": 4,
      "note": 80,
      "start": 39.6051,
      "duration": 0.0162,
      "velocity": 98,
      "chip": "ym2612"
    },
    {
      "channel": 3,
      "note": 83,
      "start": 39.6063,
      "duration": 0.0161,
      "velocity": 98,
      "chip": "ym2612"
    },
    {
      "channel": 2,
      "note": 52,
      "start": 39.6074,
      "duration": 0.0162,
      "velocity": 93,
      "chip": "ym2612"
    },
    {
      "channel": 1,
      "note": 71,
      "start": 39.6086,
      "duration": 0.0161,
      "velocity": 108,
      "chip": "ym2612"
    },
    {
      "channel": 0,
      "note": 42,
      "start": 39.6187,
      "duration": 0.016,
      "velocity": 115,
      "chip": "ym2612"
    },
    {
      "channel": 5,
      "note": 71,
      "start": 39.62,
      "duration": 0.016,
      "velocity": 108,
      "chip": "ym2612"
    },
    {
      "channel": 4,
      "note": 80,
      "start": 39.6212,
      "duration": 0.016,
      "velocity": 98,
      "chip": "ym2612"
    },
    {
      "channel": 3,
      "note": 83,
      "start": 39.6224,
      "duration": 0.016,
      "velocity": 98,
      "chip": "ym2612"
    },
    {
      "channel": 2,
      "note": 52,
      "start": 39.6236,
      "duration": 0.016,
      "velocity": 93,
      "chip": "ym2612"
    },
    {
      "channel": 1,
      "note": 71,
      "start": 39.6247,
      "duration": 0.016,
      "velocity": 108,
      "chip": "ym2612"
    },
    {
      "channel": 0,
      "note": 42,
      "start": 39.6348,
      "duration": 0.0156,
      "velocity": 115,
      "chip": "ym2612"
    },
    {
      "channel": 5,
      "note": 71,
      "start": 39.636,
      "duration": 0.0161,
      "velocity": 108,
      "chip": "ym2612"
    },
    {
      "channel": 4,
      "note": 80,
      "start": 39.6373,
      "duration": 0.0161,
      "velocity": 98,
      "chip": "ym2612"
    },
    {
      "channel": 3,
      "note": 83,
      "start": 39.6384,
      "duration": 0.0161,
      "velocity": 98,
      "chip": "ym2612"
    },
    {
      "channel": 2,
      "note": 52,
      "start": 39.6396,
      "duration": 0.0161,
      "velocity": 93,
      "chip": "ym2612"
    },
    {
      "channel": 1,
      "note": 71,
      "start": 39.6407,
      "duration": 0.0161,
      "velocity": 108,
      "chip": "ym2612"
    },
    {
      "channel": 0,
      "note": 43,
      "start": 39.6504,
      "duration": 0.0161,
      "velocity": 115,
      "chip": "ym2612"
    },
    {
      "channel": 5,
      "note": 71,
      "start": 39.6521,
      "duration": 0.016,
      "velocity": 108,
      "chip": "ym2612"
    },
    {
      "channel": 4,
      "note": 80,
      "start": 39.6533,
      "duration": 0.0162,
      "velocity": 98,
      "chip": "ym2612"
    },
    {
      "channel": 3,
      "note": 83,
      "start": 39.6545,
      "duration": 0.0163,
      "velocity": 98,
      "chip": "ym2612"
    },
    {
      "channel": 2,
      "note": 52,
      "start": 39.6557,
      "duration": 0.0163,
      "velocity": 93,
      "chip": "ym2612"
    },
    {
      "channel": 1,
      "note": 71,
      "start": 39.6568,
      "duration": 0.0163,
      "velocity": 108,
      "chip": "ym2612"
    },
    {
      "channel": 0,
      "note": 43,
      "start": 39.6664,
      "duration": 0.0161,
      "velocity": 115,
      "chip": "ym2612"
    },
    {
      "channel": 5,
      "note": 71,
      "start": 39.6682,
      "duration": 0.0156,
      "velocity": 108,
      "chip": "ym2612"
    },
    {
      "channel": 4,
      "note": 80,
      "start": 39.6695,
      "duration": 0.0161,
      "velocity": 98,
      "chip": "ym2612"
    },
    {
      "channel": 3,
      "note": 83,
      "start": 39.6708,
      "duration": 0.0162,
      "velocity": 98,
      "chip": "ym2612"
    },
    {
      "channel": 2,
      "note": 52,
      "start": 39.672,
      "duration": 0.0162,
      "velocity": 93,
      "chip": "ym2612"
    },
    {
      "channel": 1,
      "note": 71,
      "start": 39.6732,
      "duration": 0.0162,
      "velocity": 108,
      "chip": "ym2612"
    },
    {
      "channel": 0,
      "note": 44,
      "start": 39.6825,
      "duration": 0.0179,
      "velocity": 124,
      "chip": "ym2612"
    },
    {
      "channel": 5,
      "note": 71,
      "start": 39.6837,
      "duration": 0.0186,
      "velocity": 108,
      "chip": "ym2612"
    },
    {
      "channel": 2,
      "note": 52,
      "start": 39.6881,
      "duration": 0.0186,
      "velocity": 93,
      "chip": "ym2612"
    },
    {
      "channel": 0,
      "note": 84,
      "start": 39.7005,
      "duration": 0.0142,
      "velocity": 124,
      "chip": "ym2612"
    },
    {
      "channel": 5,
      "note": 71,
      "start": 39.7024,
      "duration": 0.0137,
      "velocity": 108,
      "chip": "ym2612"
    },
    {
      "channel": 4,
      "note": 80,
      "start": 39.7039,
      "duration": 0.0137,
      "velocity": 98,
      "chip": "ym2612"
    },
    {
      "channel": 3,
      "note": 83,
      "start": 39.7053,
      "duration": 0.0138,
      "velocity": 98,
      "chip": "ym2612"
    },
    {
      "channel": 2,
      "note": 52,
      "start": 39.7068,
      "duration": 0.0135,
      "velocity": 93,
      "chip": "ym2612"
    },
    {
      "channel": 1,
      "note": 71,
      "start": 39.7083,
      "duration": 0.0133,
      "velocity": 108,
      "chip": "ym2612"
    },
    {
      "channel": 0,
      "note": 82,
      "start": 39.7148,
      "duration": 0.0161,
      "velocity": 124,
      "chip": "ym2612"
    },
    {
      "channel": 4,
      "note": 80,
      "start": 39.7175,
      "duration": 0.016,
      "velocity": 98,
      "chip": "ym2612"
    },
    {
      "channel": 3,
      "note": 83,
      "start": 39.7191,
      "duration": 0.0161,
      "velocity": 98,
      "chip": "ym2612"
    },
    {
      "channel": 2,
      "note": 52,
      "start": 39.7204,
      "duration": 0.016,
      "velocity": 93,
      "chip": "ym2612"
    },
    {
      "channel": 1,
      "note": 71,
      "start": 39.7216,
      "duration": 0.016,
      "velocity": 108,
      "chip": "ym2612"
    },
    {
      "channel": 0,
      "note": 80,
      "start": 39.7309,
      "duration": 0.0161,
      "velocity": 124,
      "chip": "ym2612"
    },
    {
      "channel": 5,
      "note": 71,
      "start": 39.7324,
      "duration": 0.0158,
      "velocity": 108,
      "chip": "ym2612"
    },
    {
      "channel": 4,
      "note": 80,
      "start": 39.7335,
      "duration": 0.0159,
      "velocity": 98,
      "chip": "ym2612"
    },
    {
      "channel": 3,
      "note": 83,
      "start": 39.7352,
      "duration": 0.0153,
      "velocity": 98,
      "chip": "ym2612"
    },
    {
      "channel": 2,
      "note": 52,
      "start": 39.7364,
      "duration": 0.0159,
      "velocity": 93,
      "chip": "ym2612"
    },
    {
      "channel": 1,
      "note": 71,
      "start": 39.7376,
      "duration": 0.0159,
      "velocity": 108,
      "chip": "ym2612"
    },
    {
      "channel": 0,
      "note": 77,
      "start": 39.747,
      "duration": 0.0161,
      "velocity": 124,
      "chip": "ym2612"
    },
    {
      "channel": 5,
      "note": 71,
      "start": 39.7482,
      "duration": 0.016,
      "velocity": 108,
      "chip": "ym2612"
    },
    {
      "channel": 4,
      "note": 80,
      "start": 39.7493,
      "duration": 0.0161,
      "velocity": 98,
      "chip": "ym2612"
    },
    {
      "channel": 3,
      "note": 83,
      "start": 39.7505,
      "duration": 0.016,
      "velocity": 98,
      "chip": "ym2612"
    },
    {
      "channel": 2,
      "note": 52,
      "start": 39.7523,
      "duration": 0.016,
      "velocity": 93,
      "chip": "ym2612"
    },
    {
      "channel": 1,
      "note": 71,
      "start": 39.7535,
      "duration": 0.016,
      "velocity": 108,
      "chip": "ym2612"
    },
    {
      "channel": 0,
      "note": 75,
      "start": 39.7631,
      "duration": 0.0161,
      "velocity": 124,
      "chip": "ym2612"
    },
    {
      "channel": 5,
      "note": 71,
      "start": 39.7642,
      "duration": 0.0161,
      "velocity": 108,
      "chip": "ym2612"
    },
    {
      "channel": 4,
      "note": 80,
      "start": 39.7654,
      "duration": 0.0161,
      "velocity": 98,
      "chip": "ym2612"
    },
    {
      "channel": 3,
      "note": 83,
      "start": 39.7666,
      "duration": 0.0161,
      "velocity": 98,
      "chip": "ym2612"
    },
    {
      "channel": 2,
      "note": 52,
      "start": 39.7683,
      "duration": 0.0155,
      "velocity": 93,
      "chip": "ym2612"
    },
    {
      "channel": 1,
      "note": 71,
      "start": 39.7695,
      "duration": 0.0161,
      "velocity": 108,
      "chip": "ym2612"
    },
    {
      "channel": 0,
      "note": 72,
      "start": 39.7792,
      "duration": 0.0161,
      "velocity": 124,
      "chip": "ym2612"
    },
    {
      "channel": 5,
      "note": 71,
      "start": 39.7803,
      "duration": 0.0161,
      "velocity": 108,
      "chip": "ym2612"
    },
    {
      "channel": 4,
      "note": 80,
      "start": 39.7815,
      "duration": 0.0161,
      "velocity": 98,
      "chip": "ym2612"
    },
    {
      "channel": 3,
      "note": 83,
      "start": 39.7827,
      "duration": 0.0161,
      "velocity": 98,
      "chip": "ym2612"
    },
    {
      "channel": 2,
      "note": 52,
      "start": 39.7838,
      "duration": 0.0162,
      "velocity": 93,
      "chip": "ym2612"
    },
    {
      "channel": 1,
      "note": 71,
      "start": 39.7856,
      "duration": 0.0161,
      "velocity": 108,
      "chip": "ym2612"
    },
    {
      "channel": 0,
      "note": 70,
      "start": 39.7953,
      "duration": 0.0161,
      "velocity": 124,
      "chip": "ym2612"
    },
    {
      "channel": 5,
      "note": 71,
      "start": 39.7964,
      "duration": 0.0161,
      "velocity": 108,
      "chip": "ym2612"
    },
    {
      "channel": 4,
      "note": 80,
      "start": 39.7976,
      "duration": 0.0161,
      "velocity": 98,
      "chip": "ym2612"
    },
    {
      "channel": 3,
      "note": 83,
      "start": 39.7988,
      "duration": 0.0161,
      "velocity": 98,
      "chip": "ym2612"
    },
    {
      "channel": 2,
      "note": 52,
      "start": 39.8,
      "duration": 0.0161,
      "velocity": 93,
      "chip": "ym2612"
    },
    {
      "channel": 1,
      "note": 71,
      "start": 39.8017,
      "duration": 0.0158,
      "velocity": 108,
      "chip": "ym2612"
    },
    {
      "channel": 0,
      "note": 68,
      "start": 39.8114,
      "duration": 0.0161,
      "velocity": 124,
      "chip": "ym2612"
    },
    {
      "channel": 5,
      "note": 71,
      "start": 39.8126,
      "duration": 0.0161,
      "velocity": 108,
      "chip": "ym2612"
    },
    {
      "channel": 4,
      "note": 80,
      "start": 39.8137,
      "duration": 0.0161,
      "velocity": 98,
      "chip": "ym2612"
    },
    {
      "channel": 3,
      "note": 83,
      "start": 39.8149,
      "duration": 0.0161,
      "velocity": 98,
      "chip": "ym2612"
    },
    {
      "channel": 2,
      "note": 52,
      "start": 39.8161,
      "duration": 0.0161,
      "velocity": 93,
      "chip": "ym2612"
    },
    {
      "channel": 1,
      "note": 71,
      "start": 39.8175,
      "duration": 0.0159,
      "velocity": 108,
      "chip": "ym2612"
    },
    {
      "channel": 0,
      "note": 65,
      "start": 39.8275,
      "duration": 0.0161,
      "velocity": 124,
      "chip": "ym2612"
    },
    {
      "channel": 5,
      "note": 71,
      "start": 39.8287,
      "duration": 0.0161,
      "velocity": 108,
      "chip": "ym2612"
    },
    {
      "channel": 4,
      "note": 80,
      "start": 39.8298,
      "duration": 0.0162,
      "velocity": 98,
      "chip": "ym2612"
    },
    {
      "channel": 3,
      "note": 83,
      "start": 39.831,
      "duration": 0.0163,
      "velocity": 98,
      "chip": "ym2612"
    },
    {
      "channel": 2,
      "note": 52,
      "start": 39.8322,
      "duration": 0.0163,
      "velocity": 93,
      "chip": "ym2612"
    },
    {
      "channel": 1,
      "note": 71,
      "start": 39.8334,
      "duration": 0.0163,
      "velocity": 108,
      "chip": "ym2612"
    },
    {
      "channel": 0,
      "note": 63,
      "start": 39.8435,
      "duration": 0.0153,
      "velocity": 1,
      "chip": "ym2612"
    },
    {
      "channel": 5,
      "note": 71,
      "start": 39.8448,
      "duration": 0.0153,
      "velocity": 108,
      "chip": "ym2612"
    },
    {
      "channel": 4,
      "note": 80,
      "start": 39.846,
      "duration": 0.0152,
      "velocity": 98,
      "chip": "ym2612"
    },
    {
      "channel": 3,
      "note": 83,
      "start": 39.8473,
      "duration": 0.0152,
      "velocity": 98,
      "chip": "ym2612"
    },
    {
      "channel": 2,
      "note": 52,
      "start": 39.8485,
      "duration": 0.0152,
      "velocity": 93,
      "chip": "ym2612"
    },
    {
      "channel": 1,
      "note": 71,
      "start": 39.8497,
      "duration": 0.0152,
      "velocity": 108,
      "chip": "ym2612"
    },
    {
      "channel": 5,
      "note": 71,
      "start": 39.86,
      "duration": 0.0153,
      "velocity": 108,
      "chip": "ym2612"
    },
    {
      "channel": 4,
      "note": 80,
      "start": 39.8612,
      "duration": 0.0154,
      "velocity": 98,
      "chip": "ym2612"
    },
    {
      "channel": 3,
      "note": 83,
      "start": 39.8625,
      "duration": 0.0153,
      "velocity": 98,
      "chip": "ym2612"
    },
    {
      "channel": 2,
      "note": 52,
      "start": 39.8637,
      "duration": 0.0154,
      "velocity": 93,
      "chip": "ym2612"
    },
    {
      "channel": 1,
      "note": 71,
      "start": 39.8649,
      "duration": 0.0154,
      "velocity": 108,
      "chip": "ym2612"
    },
    {
      "channel": 5,
      "note": 71,
      "start": 39.8754,
      "duration": 0.016,
      "velocity": 108,
      "chip": "ym2612"
    },
    {
      "channel": 4,
      "note": 80,
      "start": 39.8766,
      "duration": 0.016,
      "velocity": 98,
      "chip": "ym2612"
    },
    {
      "channel": 3,
      "note": 83,
      "start": 39.8778,
      "duration": 0.016,
      "velocity": 98,
      "chip": "ym2612"
    },
    {
      "channel": 2,
      "note": 52,
      "start": 39.8791,
      "duration": 0.0158,
      "velocity": 93,
      "chip": "ym2612"
    },
    {
      "channel": 1,
      "note": 71,
      "start": 39.8803,
      "duration": 0.0158,
      "velocity": 108,
      "chip": "ym2612"
    },
    {
      "channel": 5,
      "note": 71,
      "start": 39.8914,
      "duration": 0.0162,
      "velocity": 108,
      "chip": "ym2612"
    },
    {
      "channel": 4,
      "note": 80,
      "start": 39.8926,
      "duration": 0.0162,
      "velocity": 98,
      "chip": "ym2612"
    },
    {
      "channel": 3,
      "note": 83,
      "start": 39.8938,
      "duration": 0.0161,
      "velocity": 98,
      "chip": "ym2612"
    },
    {
      "channel": 2,
      "note": 52,
      "start": 39.8949,
      "duration": 0.0162,
      "velocity": 93,
      "chip": "ym2612"
    },
    {
      "channel": 1,
      "note": 71,
      "start": 39.8961,
      "duration": 0.0161,
      "velocity": 108,
      "chip": "ym2612"
    },
    {
      "channel": 5,
      "note": 71,
      "start": 39.9076,
      "duration": 0.016,
      "velocity": 108,
      "chip": "ym2612"
    },
    {
      "channel": 4,
      "note": 80,
      "start": 39.9088,
      "duration": 0.016,
      "velocity": 98,
      "chip": "ym2612"
    },
    {
      "channel": 3,
      "note": 83,
      "start": 39.9099,
      "duration": 0.016,
      "velocity": 98,
      "chip": "ym2612"
    },
    {
      "channel": 2,
      "note": 52,
      "start": 39.9111,
      "duration": 0.016,
      "velocity": 93,
      "chip": "ym2612"
    },
    {
      "channel": 1,
      "note": 71,
      "start": 39.9122,
      "duration": 0.016,
      "velocity": 108,
      "chip": "ym2612"
    },
    {
      "channel": 5,
      "note": 71,
      "start": 39.9236,
      "duration": 0.0161,
      "velocity": 108,
      "chip": "ym2612"
    },
    {
      "channel": 4,
      "note": 80,
      "start": 39.9248,
      "duration": 0.0161,
      "velocity": 98,
      "chip": "ym2612"
    },
    {
      "channel": 3,
      "note": 83,
      "start": 39.9259,
      "duration": 0.0161,
      "velocity": 98,
      "chip": "ym2612"
    },
    {
      "channel": 2,
      "note": 52,
      "start": 39.9271,
      "duration": 0.0161,
      "velocity": 93,
      "chip": "ym2612"
    },
    {
      "channel": 1,
      "note": 71,
      "start": 39.9283,
      "duration": 0.0161,
      "velocity": 108,
      "chip": "ym2612"
    },
    {
      "channel": 5,
      "note": 71,
      "start": 39.9397,
      "duration": 0.0161,
      "velocity": 108,
      "chip": "ym2612"
    },
    {
      "channel": 4,
      "note": 80,
      "start": 39.9409,
      "duration": 0.0161,
      "velocity": 98,
      "chip": "ym2612"
    },
    {
      "channel": 3,
      "note": 83,
      "start": 39.942,
      "duration": 0.0163,
      "velocity": 98,
      "chip": "ym2612"
    },
    {
      "channel": 2,
      "note": 52,
      "start": 39.9432,
      "duration": 0.0163,
      "velocity": 93,
      "chip": "ym2612"
    },
    {
      "channel": 1,
      "note": 71,
      "start": 39.9444,
      "duration": 0.0163,
      "velocity": 108,
      "chip": "ym2612"
    },
    {
      "channel": 5,
      "note": 71,
      "start": 39.9558,
      "duration": 0.0161,
      "velocity": 108,
      "chip": "ym2612"
    },
    {
      "channel": 4,
      "note": 80,
      "start": 39.957,
      "duration": 0.0162,
      "velocity": 98,
      "chip": "ym2612"
    },
    {
      "channel": 3,
      "note": 83,
      "start": 39.9583,
      "duration": 0.0162,
      "velocity": 98,
      "chip": "ym2612"
    },
    {
      "channel": 2,
      "note": 52,
      "start": 39.9595,
      "duration": 0.0161,
      "velocity": 93,
      "chip": "ym2612"
    },
    {
      "channel": 1,
      "note": 71,
      "start": 39.9607,
      "duration": 0.0162,
      "velocity": 108,
      "chip": "ym2612"
    },
    {
      "channel": 5,
      "note": 71,
      "start": 39.9719,
      "duration": 0.0197,
      "velocity": 108,
      "chip": "ym2612"
    },
    {
      "channel": 2,
      "note": 52,
      "start": 39.9757,
      "duration": 0.0204,
      "velocity": 93,
      "chip": "ym2612"
    },
    {
      "channel": 0,
      "note": 36,
      "start": 39.9903,
      "duration": 0.0143,
      "velocity": 115,
      "chip": "ym2612"
    },
    {
      "channel": 5,
      "note": 71,
      "start": 39.9916,
      "duration": 0.0143,
      "velocity": 108,
      "chip": "ym2612"
    },
    {
      "channel": 4,
      "note": 80,
      "start": 39.9931,
      "duration": 0.0141,
      "velocity": 98,
      "chip": "ym2612"
    },
    {
      "channel": 3,
      "note": 83,
      "start": 39.9946,
      "duration": 0.0137,
      "velocity": 98,
      "chip": "ym2612"
    },
    {
      "channel": 2,
      "note": 52,
      "start": 39.9961,
      "duration": 0.0134,
      "velocity": 93,
      "chip": "ym2612"
    },
    {
      "channel": 1,
      "note": 71,
      "start": 39.9976,
      "duration": 0.0132,
      "velocity": 108,
      "chip": "ym2612"
    },
    {
      "channel": 0,
      "note": 36,
      "start": 40.0046,
      "duration": 0.0161,
      "velocity": 115,
      "chip": "ym2612"
    },
    {
      "channel": 4,
      "note": 80,
      "start": 40.0072,
      "duration": 0.0162,
      "velocity": 98,
      "chip": "ym2612"
    },
    {
      "channel": 3,
      "note": 83,
      "start": 40.0084,
      "duration": 0.0162,
      "velocity": 98,
      "chip": "ym2612"
    },
    {
      "channel": 2,
      "note": 52,
      "start": 40.0096,
      "duration": 0.0162,
      "velocity": 93,
      "chip": "ym2612"
    },
    {
      "channel": 1,
      "note": 71,
      "start": 40.0108,
      "duration": 0.016,
      "velocity": 108,
      "chip": "ym2612"
    },
    {
      "channel": 0,
      "note": 37,
      "start": 40.0208,
      "duration": 0.0161,
      "velocity": 115,
      "chip": "ym2612"
    },
    {
      "channel": 5,
      "note": 71,
      "start": 40.0222,
      "duration": 0.0158,
      "velocity": 108,
      "chip": "ym2612"
    },
    {
      "channel": 4,
      "note": 80,
      "start": 40.0234,
      "duration": 0.0159,
      "velocity": 98,
      "chip": "ym2612"
    },
    {
      "channel": 3,
      "note": 83,
      "start": 40.0246,
      "duration": 0.0159,
      "velocity": 98,
      "chip": "ym2612"
    },
    {
      "channel": 2,
      "note": 52,
      "start": 40.0257,
      "duration": 0.0158,
      "velocity": 93,
      "chip": "ym2612"
    },
    {
      "channel": 1,
      "note": 71,
      "start": 40.0269,
      "duration": 0.0159,
      "velocity": 108,
      "chip": "ym2612"
    },
    {
      "channel": 0,
      "note": 37,
      "start": 40.0369,
      "duration": 0.0164,
      "velocity": 115,
      "chip": "ym2612"
    },
    {
      "channel": 5,
      "note": 71,
      "start": 40.0381,
      "duration": 0.0163,
      "velocity": 108,
      "chip": "ym2612"
    },
    {
      "channel": 4,
      "note": 80,
      "start": 40.0393,
      "duration": 0.0163,
      "velocity": 98,
      "chip": "ym2612"
    },
    {
      "channel": 3,
      "note": 83,
      "start": 40.0404,
      "duration": 0.0163,
      "velocity": 98,
      "chip": "ym2612"
    },
    {
      "channel": 2,
      "note": 52,
      "start": 40.0416,
      "duration": 0.0163,
      "velocity": 93,
      "chip": "ym2612"
    },
    {
      "channel": 1,
      "note": 71,
      "start": 40.0428,
      "duration": 0.0163,
      "velocity": 108,
      "chip": "ym2612"
    },
    {
      "channel": 0,
      "note": 38,
      "start": 40.0533,
      "duration": 0.0163,
      "velocity": 115,
      "chip": "ym2612"
    },
    {
      "channel": 5,
      "note": 71,
      "start": 40.0544,
      "duration": 0.0163,
      "velocity": 108,
      "chip": "ym2612"
    },
    {
      "channel": 4,
      "note": 80,
      "start": 40.0556,
      "duration": 0.0163,
      "velocity": 98,
      "chip": "ym2612"
    },
    {
      "channel": 3,
      "note": 83,
      "start": 40.0568,
      "duration": 0.0163,
      "velocity": 98,
      "chip": "ym2612"
    },
    {
      "channel": 2,
      "note": 52,
      "start": 40.0579,
      "duration": 0.0163,
      "velocity": 93,
      "chip": "ym2612"
    },
    {
      "channel": 1,
      "note": 71,
      "start": 40.0591,
      "duration": 0.0163,
      "velocity": 108,
      "chip": "ym2612"
    },
    {
      "channel": 0,
      "note": 38,
      "start": 40.0696,
      "duration": 0.0161,
      "velocity": 115,
      "chip": "ym2612"
    },
    {
      "channel": 5,
      "note": 71,
      "start": 40.0708,
      "duration": 0.0161,
      "velocity": 108,
      "chip": "ym2612"
    },
    {
      "channel": 4,
      "note": 80,
      "start": 40.0719,
      "duration": 0.0161,
      "velocity": 98,
      "chip": "ym2612"
    },
    {
      "channel": 3,
      "note": 83,
      "start": 40.0731,
      "duration": 0.0161,
      "velocity": 98,
      "chip": "ym2612"
    },
    {
      "channel": 2,
      "note": 52,
      "start": 40.0743,
      "duration": 0.0161,
      "velocity": 93,
      "chip": "ym2612"
    },
    {
      "channel": 1,
      "note": 71,
      "start": 40.0754,
      "duration": 0.0161,
      "velocity": 108,
      "chip": "ym2612"
    },
    {
      "channel": 0,
      "note": 39,
      "start": 40.0857,
      "duration": 0.0161,
      "velocity": 115,
      "chip": "ym2612"
    },
    {
      "channel": 5,
      "note": 71,
      "start": 40.0869,
      "duration": 0.0161,
      "velocity": 108,
      "chip": "ym2612"
    },
    {
      "channel": 4,
      "note": 80,
      "start": 40.088,
      "duration": 0.0162,
      "velocity": 98,
      "chip": "ym2612"
    },
    {
      "channel": 3,
      "note": 83,
      "start": 40.0892,
      "duration": 0.0161,
      "velocity": 98,
      "chip": "ym2612"
    },
    {
      "channel": 2,
      "note": 52,
      "start": 40.0904,
      "duration": 0.0162,
      "velocity": 93,
      "chip": "ym2612"
    },
    {
      "channel": 1,
      "note": 71,
      "start": 40.0916,
      "duration": 0.0161,
      "velocity": 108,
      "chip": "ym2612"
    },
    {
      "channel": 0,
      "note": 39,
      "start": 40.1017,
      "duration": 0.0158,
      "velocity": 115,
      "chip": "ym2612"
    },
    {
      "channel": 5,
      "note": 71,
      "start": 40.103,
      "duration": 0.016,
      "velocity": 108,
      "chip": "ym2612"
    },
    {
      "channel": 4,
      "note": 80,
      "start": 40.1042,
      "duration": 0.0161,
      "velocity": 98,
      "chip": "ym2612"
    },
    {
      "channel": 3,
      "note": 83,
      "start": 40.1053,
      "duration": 0.0161,
      "velocity": 98,
      "chip": "ym2612"
    },
    {
      "channel": 2,
      "note": 52,
      "start": 40.1065,
      "duration": 0.0161,
      "velocity": 93,
      "chip": "ym2612"
    },
    {
      "channel": 1,
      "note": 71,
      "start": 40.1077,
      "duration": 0.0161,
      "velocity": 108,
      "chip": "ym2612"
    },
    {
      "channel": 0,
      "note": 40,
      "start": 40.1175,
      "duration": 0.0159,
      "velocity": 115,
      "chip": "ym2612"
    },
    {
      "channel": 5,
      "note": 71,
      "start": 40.119,
      "duration": 0.0161,
      "velocity": 108,
      "chip": "ym2612"
    },
    {
      "channel": 4,
      "note": 80,
      "start": 40.1203,
      "duration": 0.0161,
      "velocity": 98,
      "chip": "ym2612"
    },
    {
      "channel": 3,
      "note": 83,
      "start": 40.1214,
      "duration": 0.0163,
      "velocity": 98,
      "chip": "ym2612"
    },
    {
      "channel": 2,
      "note": 52,
      "start": 40.1226,
      "duration": 0.0163,
      "velocity": 93,
      "chip": "ym2612"
    },
    {
      "channel": 1,
      "note": 71,
      "start": 40.1238,
      "duration": 0.0163,
      "velocity": 108,
      "chip": "ym2612"
    },
    {
      "channel": 0,
      "note": 40,
      "start": 40.1334,
      "duration": 0.0161,
      "velocity": 115,
      "chip": "ym2612"
    },
    {
      "channel": 5,
      "note": 71,
      "start": 40.1351,
      "duration": 0.0158,
      "velocity": 108,
      "chip": "ym2612"
    },
    {
      "channel": 4,
      "note": 80,
      "start": 40.1364,
      "duration": 0.0161,
      "velocity": 98,
      "chip": "ym2612"
    },
    {
      "channel": 3,
      "note": 83,
      "start": 40.1377,
      "duration": 0.016,
      "velocity": 98,
      "chip": "ym2612"
    },
    {
      "channel": 2,
      "note": 52,
      "start": 40.1389,
      "duration": 0.016,
      "velocity": 93,
      "chip": "ym2612"
    },
    {
      "channel": 1,
      "note": 71,
      "start": 40.1401,
      "duration": 0.016,
      "velocity": 108,
      "chip": "ym2612"
    },
    {
      "channel": 0,
      "note": 40,
      "start": 40.1495,
      "duration": 0.0161,
      "velocity": 115,
      "chip": "ym2612"
    },
    {
      "channel": 5,
      "note": 71,
      "start": 40.1509,
      "duration": 0.016,
      "velocity": 108,
      "chip": "ym2612"
    },
    {
      "channel": 4,
      "note": 80,
      "start": 40.1525,
      "duration": 0.0161,
      "velocity": 98,
      "chip": "ym2612"
    },
    {
      "channel": 3,
      "note": 83,
      "start": 40.1537,
      "duration": 0.0162,
      "velocity": 98,
      "chip": "ym2612"
    },
    {
      "channel": 2,
      "note": 52,
      "start": 40.1549,
      "duration": 0.0162,
      "velocity": 93,
      "chip": "ym2612"
    },
    {
      "channel": 1,
      "note": 71,
      "start": 40.1561,
      "duration": 0.0162,
      "velocity": 108,
      "chip": "ym2612"
    },
    {
      "channel": 0,
      "note": 41,
      "start": 40.1656,
      "duration": 0.0162,
      "velocity": 115,
      "chip": "ym2612"
    },
    {
      "channel": 5,
      "note": 71,
      "start": 40.1668,
      "duration": 0.0161,
      "velocity": 108,
      "chip": "ym2612"
    },
    {
      "channel": 4,
      "note": 80,
      "start": 40.1686,
      "duration": 0.0157,
      "velocity": 98,
      "chip": "ym2612"
    },
    {
      "channel": 3,
      "note": 83,
      "start": 40.17,
      "duration": 0.016,
      "velocity": 98,
      "chip": "ym2612"
    },
    {
      "channel": 2,
      "note": 52,
      "start": 40.1712,
      "duration": 0.0159,
      "velocity": 93,
      "chip": "ym2612"
    },
    {
      "channel": 1,
      "note": 71,
      "start": 40.1724,
      "duration": 0.0159,
      "velocity": 108,
      "chip": "ym2612"
    },
    {
      "channel": 0,
      "note": 41,
      "start": 40.1817,
      "duration": 0.0161,
      "velocity": 115,
      "chip": "ym2612"
    },
    {
      "channel": 5,
      "note": 71,
      "start": 40.1829,
      "duration": 0.0161,
      "velocity": 108,
      "chip": "ym2612"
    },
    {
      "channel": 4,
      "note": 80,
      "start": 40.1843,
      "duration": 0.0159,
      "velocity": 98,
      "chip": "ym2612"
    },
    {
      "channel": 3,
      "note": 83,
      "start": 40.1859,
      "duration": 0.016,
      "velocity": 98,
      "chip": "ym2612"
    },
    {
      "channel": 2,
      "note": 52,
      "start": 40.1871,
      "duration": 0.0161,
      "velocity": 93,
      "chip": "ym2612"
    },
    {
      "channel": 1,
      "note": 71,
      "start": 40.1882,
      "duration": 0.0161,
      "velocity": 108,
      "chip": "ym2612"
    },
    {
      "channel": 0,
      "note": 42,
      "start": 40.1978,
      "duration": 0.0161,
      "velocity": 115,
      "chip": "ym2612"
    },
    {
      "channel": 5,
      "note": 71,
      "start": 40.199,
      "duration": 0.016,
      "velocity": 108,
      "chip": "ym2612"
    },
    {
      "channel": 4,
      "note": 80,
      "start": 40.2002,
      "duration": 0.016,
      "velocity": 98,
      "chip": "ym2612"
    },
    {
      "channel": 3,
      "note": 83,
      "start": 40.202,
      "duration": 0.0157,
      "velocity": 98,
      "chip": "ym2612"
    },
    {
      "channel": 2,
      "note": 52,
      "start": 40.2032,
      "duration": 0.016,
      "velocity": 93,
      "chip": "ym2612"
    },
    {
      "channel": 1,
      "note": 71,
      "start": 40.2043,
      "duration": 0.016,
      "velocity": 108,
      "chip": "ym2612"
    },
    {
      "channel": 0,
      "note": 42,
      "start": 40.2139,
      "duration": 0.0161,
      "velocity": 115,
      "chip": "ym2612"
    },
    {
      "channel": 5,
      "note": 71,
      "start": 40.2151,
      "duration": 0.0161,
      "velocity": 108,
      "chip": "ym2612"
    },
    {
      "channel": 4,
      "note": 80,
      "start": 40.2163,
      "duration": 0.0161,
      "velocity": 98,
      "chip": "ym2612"
    },
    {
      "channel": 3,
      "note": 83,
      "start": 40.2177,
      "duration": 0.0159,
      "velocity": 98,
      "chip": "ym2612"
    },
    {
      "channel": 2,
      "note": 52,
      "start": 40.2192,
      "duration": 0.016,
      "velocity": 93,
      "chip": "ym2612"
    },
    {
      "channel": 1,
      "note": 71,
      "start": 40.2203,
      "duration": 0.0162,
      "velocity": 108,
      "chip": "ym2612"
    },
    {
      "channel": 0,
      "note": 43,
      "start": 40.23,
      "duration": 0.0161,
      "velocity": 115,
      "chip": "ym2612"
    },
    {
      "channel": 5,
      "note": 71,
      "start": 40.2311,
      "duration": 0.0162,
      "velocity": 108,
      "chip": "ym2612"
    },
    {
      "channel": 4,
      "note": 80,
      "start": 40.2324,
      "duration": 0.0162,
      "velocity": 98,
      "chip": "ym2612"
    },
    {
      "channel": 3,
      "note": 83,
      "start": 40.2336,
      "duration": 0.0162,
      "velocity": 98,
      "chip": "ym2612"
    },
    {
      "channel": 2,
      "note": 52,
      "start": 40.2352,
      "duration": 0.016,
      "velocity": 93,
      "chip": "ym2612"
    },
    {
      "channel": 1,
      "note": 71,
      "start": 40.2365,
      "duration": 0.0163,
      "velocity": 108,
      "chip": "ym2612"
    },
    {
      "channel": 0,
      "note": 43,
      "start": 40.2461,
      "duration": 0.0161,
      "velocity": 115,
      "chip": "ym2612"
    },
    {
      "channel": 5,
      "note": 71,
      "start": 40.2473,
      "duration": 0.0161,
      "velocity": 108,
      "chip": "ym2612"
    },
    {
      "channel": 4,
      "note": 80,
      "start": 40.2486,
      "duration": 0.0161,
      "velocity": 98,
      "chip": "ym2612"
    },
    {
      "channel": 3,
      "note": 83,
      "start": 40.2498,
      "duration": 0.0162,
      "velocity": 98,
      "chip": "ym2612"
    },
    {
      "channel": 2,
      "note": 52,
      "start": 40.2512,
      "duration": 0.016,
      "velocity": 93,
      "chip": "ym2612"
    },
    {
      "channel": 1,
      "note": 71,
      "start": 40.2528,
      "duration": 0.0162,
      "velocity": 108,
      "chip": "ym2612"
    },
    {
      "channel": 0,
      "note": 44,
      "start": 40.2622,
      "duration": 0.0179,
      "velocity": 124,
      "chip": "ym2612"
    },
    {
      "channel": 5,
      "note": 71,
      "start": 40.2634,
      "duration": 0.018,
      "velocity": 108,
      "chip": "ym2612"
    },
    {
      "channel": 2,
      "note": 52,
      "start": 40.2672,
      "duration": 0.0193,
      "velocity": 93,
      "chip": "ym2612"
    },
    {
      "channel": 0,
      "note": 84,
      "start": 40.2802,
      "duration": 0.0143,
      "velocity": 124,
      "chip": "ym2612"
    },
    {
      "channel": 5,
      "note": 71,
      "start": 40.2814,
      "duration": 0.0143,
      "velocity": 108,
      "chip": "ym2612"
    },
    {
      "channel": 4,
      "note": 80,
      "start": 40.2829,
      "duration": 0.0141,
      "velocity": 98,
      "chip": "ym2612"
    },
    {
      "channel": 3,
      "note": 83,
      "start": 40.285,
      "duration": 0.0132,
      "velocity": 98,
      "chip": "ym2612"
    },
    {
      "channel": 2,
      "note": 52,
      "start": 40.2866,
      "duration": 0.0128,
      "velocity": 93,
      "chip": "ym2612"
    },
    {
      "channel": 1,
      "note": 68,
      "start": 40.2881,
      "duration": 0.0125,
      "velocity": 108,
      "chip": "ym2612"
    },
    {
      "channel": 0,
      "note": 82,
      "start": 40.2944,
      "duration": 0.0161,
      "velocity": 124,
      "chip": "ym2612"
    },
    {
      "channel": 4,
      "note": 80,
      "start": 40.297,
      "duration": 0.0162,
      "velocity": 98,
      "chip": "ym2612"
    },
    {
      "channel": 3,
      "note": 83,
      "start": 40.2982,
      "duration": 0.0162,
      "velocity": 98,
      "chip": "ym2612"
    },
    {
      "channel": 2,
      "note": 52,
      "start": 40.2994,
      "duration": 0.0161,
      "velocity": 93,
      "chip": "ym2612"
    },
    {
      "channel": 1,
      "note": 68,
      "start": 40.3006,
      "duration": 0.0161,
      "velocity": 108,
      "chip": "ym2612"
    },
    {
      "channel": 0,
      "note": 80,
      "start": 40.3105,
      "duration": 0.0161,
      "velocity": 124,
      "chip": "ym2612"
    },
    {
      "channel": 5,
      "note": 68,
      "start": 40.312,
      "duration": 0.0158,
      "velocity": 108,
      "chip": "ym2612"
    },
    {
      "channel": 4,
      "note": 80,
      "start": 40.3132,
      "duration": 0.0158,
      "velocity": 98,
      "chip": "ym2612"
    },
    {
      "channel": 3,
      "note": 83,
      "start": 40.3144,
      "duration": 0.0158,
      "velocity": 98,
      "chip": "ym2612"
    },
    {
      "channel": 2,
      "note": 52,
      "start": 40.3155,
      "duration": 0.0159,
      "velocity": 93,
      "chip": "ym2612"
    },
    {
      "channel": 1,
      "note": 68,
      "start": 40.3167,
      "duration": 0.0158,
      "velocity": 108,
      "chip": "ym2612"
    },
    {
      "channel": 0,
      "note": 77,
      "start": 40.3266,
      "duration": 0.0161,
      "velocity": 124,
      "chip": "ym2612"
    },
    {
      "channel": 5,
      "note": 68,
      "start": 40.3278,
      "duration": 0.016,
      "velocity": 108,
      "chip": "ym2612"
    },
    {
      "channel": 4,
      "note": 80,
      "start": 40.329,
      "duration": 0.0161,
      "velocity": 98,
      "chip": "ym2612"
    },
    {
      "channel": 3,
      "note": 83,
      "start": 40.3302,
      "duration": 0.016,
      "velocity": 98,
      "chip": "ym2612"
    },
    {
      "channel": 2,
      "note": 52,
      "start": 40.3313,
      "duration": 0.016,
      "velocity": 93,
      "chip": "ym2612"
    },
    {
      "channel": 1,
      "note": 68,
      "start": 40.3325,
      "duration": 0.0161,
      "velocity": 108,
      "chip": "ym2612"
    },
    {
      "channel": 0,
      "note": 75,
      "start": 40.3427,
      "duration": 0.0161,
      "velocity": 124,
      "chip": "ym2612"
    },
    {
      "channel": 5,
      "note": 68,
      "start": 40.3439,
      "duration": 0.0161,
      "velocity": 108,
      "chip": "ym2612"
    },
    {
      "channel": 4,
      "note": 80,
      "start": 40.3451,
      "duration": 0.0161,
      "velocity": 98,
      "chip": "ym2612"
    },
    {
      "channel": 3,
      "note": 83,
      "start": 40.3462,
      "duration": 0.0161,
      "velocity": 98,
      "chip": "ym2612"
    },
    {
      "channel": 2,
      "note": 52,
      "start": 40.3474,
      "duration": 0.0161,
      "velocity": 93,
      "chip": "ym2612"
    },
    {
      "channel": 1,
      "note": 68,
      "start": 40.3486,
      "duration": 0.0161,
      "velocity": 108,
      "chip": "ym2612"
    },
    {
      "channel": 0,
      "note": 72,
      "start": 40.3588,
      "duration": 0.0161,
      "velocity": 124,
      "chip": "ym2612"
    },
    {
      "channel": 5,
      "note": 68,
      "start": 40.36,
      "duration": 0.0161,
      "velocity": 108,
      "chip": "ym2612"
    },
    {
      "channel": 4,
      "note": 80,
      "start": 40.3612,
      "duration": 0.0161,
      "velocity": 98,
      "chip": "ym2612"
    },
    {
      "channel": 3,
      "note": 83,
      "start": 40.3623,
      "duration": 0.0162,
      "velocity": 98,
      "chip": "ym2612"
    },
    {
      "channel": 2,
      "note": 52,
      "start": 40.3634,
      "duration": 0.0162,
      "velocity": 93,
      "chip": "ym2612"
    },
    {
      "channel": 1,
      "note": 68,
      "start": 40.3647,
      "duration": 0.0161,
      "velocity": 108,
      "chip": "ym2612"
    },
    {
      "channel": 0,
      "note": 70,
      "start": 40.3749,
      "duration": 0.0161,
      "velocity": 124,
      "chip": "ym2612"
    },
    {
      "channel": 5,
      "note": 68,
      "start": 40.3761,
      "duration": 0.0161,
      "velocity": 108,
      "chip": "ym2612"
    },
    {
      "channel": 4,
      "note": 80,
      "start": 40.3773,
      "duration": 0.0161,
      "velocity": 98,
      "chip": "ym2612"
    },
    {
      "channel": 3,
      "note": 83,
      "start": 40.3785,
      "duration": 0.016,
      "velocity": 98,
      "chip": "ym2612"
    },
    {
      "channel": 2,
      "note": 52,
      "start": 40.3796,
      "duration": 0.0161,
      "velocity": 93,
      "chip": "ym2612"
    },
    {
      "channel": 1,
      "note": 68,
      "start": 40.3808,
      "duration": 0.0161,
      "velocity": 108,
      "chip": "ym2612"
    },
    {
      "channel": 0,
      "note": 68,
      "start": 40.391,
      "duration": 0.0161,
      "velocity": 124,
      "chip": "ym2612"
    },
    {
      "channel": 5,
      "note": 68,
      "start": 40.3922,
      "duration": 0.0161,
      "velocity": 108,
      "chip": "ym2612"
    },
    {
      "channel": 4,
      "note": 80,
      "start": 40.3934,
      "duration": 0.0161,
      "velocity": 98,
      "chip": "ym2612"
    },
    {
      "channel": 3,
      "note": 83,
      "start": 40.3945,
      "duration": 0.0162,
      "velocity": 98,
      "chip": "ym2612"
    },
    {
      "channel": 2,
      "note": 52,
      "start": 40.3957,
      "duration": 0.0161,
      "velocity": 93,
      "chip": "ym2612"
    },
    {
      "channel": 1,
      "note": 68,
      "start": 40.3968,
      "duration": 0.0162,
      "velocity": 108,
      "chip": "ym2612"
    },
    {
      "channel": 0,
      "note": 65,
      "start": 40.4071,
      "duration": 0.0161,
      "velocity": 124,
      "chip": "ym2612"
    },
    {
      "channel": 5,
      "note": 68,
      "start": 40.4083,
      "duration": 0.0161,
      "velocity": 108,
      "chip": "ym2612"
    },
    {
      "channel": 4,
      "note": 80,
      "start": 40.4095,
      "duration": 0.0162,
      "velocity": 98,
      "chip": "ym2612"
    },
    {
      "channel": 3,
      "note": 83,
      "start": 40.4107,
      "duration": 0.0163,
      "velocity": 98,
      "chip": "ym2612"
    },
    {
      "channel": 2,
      "note": 52,
      "start": 40.4118,
      "duration": 0.0163,
      "velocity": 93,
      "chip": "ym2612"
    },
    {
      "channel": 1,
      "note": 68,
      "start": 40.413,
      "duration": 0.0163,
      "velocity": 108,
      "chip": "ym2612"
    },
    {
      "channel": 0,
      "note": 63,
      "start": 40.4232,
      "duration": 0.0153,
      "velocity": 1,
      "chip": "ym2612"
    },
    {
      "channel": 5,
      "note": 68,
      "start": 40.4244,
      "duration": 0.0153,
      "velocity": 108,
      "chip": "ym2612"
    },
    {
      "channel": 4,
      "note": 80,
      "start": 40.4257,
      "duration": 0.0152,
      "velocity": 98,
      "chip": "ym2612"
    },
    {
      "channel": 3,
      "note": 83,
      "start": 40.4269,
      "duration": 0.0152,
      "velocity": 98,
      "chip": "ym2612"
    },
    {
      "channel": 2,
      "note": 52,
      "start": 40.4281,
      "duration": 0.0152,
      "velocity": 93,
      "chip": "ym2612"
    },
    {
      "channel": 1,
      "note": 68,
      "start": 40.4293,
      "duration": 0.0152,
      "velocity": 108,
      "chip": "ym2612"
    },
    {
      "channel": 5,
      "note": 68,
      "start": 40.4397,
      "duration": 0.0152,
      "velocity": 108,
      "chip": "ym2612"
    },
    {
      "channel": 4,
      "note": 80,
      "start": 40.4409,
      "duration": 0.0153,
      "velocity": 98,
      "chip": "ym2612"
    },
    {
      "channel": 3,
      "note": 83,
      "start": 40.4422,
      "duration": 0.0153,
      "velocity": 98,
      "chip": "ym2612"
    },
    {
      "channel": 2,
      "note": 52,
      "start": 40.4434,
      "duration": 0.0153,
      "velocity": 93,
      "chip": "ym2612"
    },
    {
      "channel": 1,
      "note": 68,
      "start": 40.4445,
      "duration": 0.0154,
      "velocity": 108,
      "chip": "ym2612"
    },
    {
      "channel": 5,
      "note": 68,
      "start": 40.4549,
      "duration": 0.0197,
      "velocity": 108,
      "chip": "ym2612"
    },
    {
      "channel": 4,
      "note": 80,
      "start": 40.4561,
      "duration": 0.0196,
      "velocity": 98,
      "chip": "ym2612"
    },
    {
      "channel": 3,
      "note": 83,
      "start": 40.4574,
      "duration": 0.0195,
      "velocity": 98,
      "chip": "ym2612"
    },
    {
      "channel": 2,
      "note": 52,
      "start": 40.4586,
      "duration": 0.0195,
      "velocity": 93,
      "chip": "ym2612"
    },
    {
      "channel": 0,
      "note": 36,
      "start": 40.4734,
      "duration": 0.0144,
      "velocity": 115,
      "chip": "ym2612"
    },
    {
      "channel": 5,
      "note": 68,
      "start": 40.4745,
      "duration": 0.0144,
      "velocity": 108,
      "chip": "ym2612"
    },
    {
      "channel": 4,
      "note": 80,
      "start": 40.4757,
      "duration": 0.0144,
      "velocity": 98,
      "chip": "ym2612"
    },
    {
      "channel": 3,
      "note": 83,
      "start": 40.4769,
      "duration": 0.0144,
      "velocity": 98,
      "chip": "ym2612"
    },
    {
      "channel": 2,
      "note": 52,
      "start": 40.4781,
      "duration": 0.0144,
      "velocity": 93,
      "chip": "ym2612"
    },
    {
      "channel": 1,
      "note": 71,
      "start": 40.4795,
      "duration": 0.0141,
      "velocity": 108,
      "chip": "ym2612"
    },
    {
      "channel": 0,
      "note": 36,
      "start": 40.4878,
      "duration": 0.016,
      "velocity": 115,
      "chip": "ym2612"
    },
    {
      "channel": 4,
      "note": 80,
      "start": 40.4901,
      "duration": 0.0163,
      "velocity": 98,
      "chip": "ym2612"
    },
    {
      "channel": 3,
      "note": 83,
      "start": 40.4913,
      "duration": 0.0163,
      "velocity": 98,
      "chip": "ym2612"
    },
    {
      "channel": 2,
      "note": 52,
      "start": 40.4925,
      "duration": 0.0163,
      "velocity": 93,
      "chip": "ym2612"
    },
    {
      "channel": 1,
      "note": 71,
      "start": 40.4937,
      "duration": 0.0163,
      "velocity": 108,
      "chip": "ym2612"
    },
    {
      "channel": 0,
      "note": 37,
      "start": 40.5038,
      "duration": 0.0164,
      "velocity": 115,
      "chip": "ym2612"
    },
    {
      "channel": 5,
      "note": 71,
      "start": 40.5053,
      "duration": 0.0161,
      "velocity": 108,
      "chip": "ym2612"
    },
    {
      "channel": 4,
      "note": 80,
      "start": 40.5065,
      "duration": 0.0161,
      "velocity": 98,
      "chip": "ym2612"
    },
    {
      "channel": 3,
      "note": 83,
      "start": 40.5077,
      "duration": 0.0162,
      "velocity": 98,
      "chip": "ym2612"
    },
    {
      "channel": 2,
      "note": 52,
      "start": 40.5088,
      "duration": 0.0161,
      "velocity": 93,
      "chip": "ym2612"
    },
    {
      "channel": 1,
      "note": 71,
      "start": 40.51,
      "duration": 0.0161,
      "velocity": 108,
      "chip": "ym2612"
    },
    {
      "channel": 0,
      "note": 37,
      "start": 40.5202,
      "duration": 0.0163,
      "velocity": 115,
      "chip": "ym2612"
    },
    {
      "channel": 5,
      "note": 71,
      "start": 40.5214,
      "duration": 0.0163,
      "velocity": 108,
      "chip": "ym2612"
    },
    {
      "channel": 4,
      "note": 80,
      "start": 40.5226,
      "duration": 0.0163,
      "velocity": 98,
      "chip": "ym2612"
    },
    {
      "channel": 3,
      "note": 83,
      "start": 40.5238,
      "duration": 0.0163,
      "velocity": 98,
      "chip": "ym2612"
    },
    {
      "channel": 2,
      "note": 52,
      "start": 40.525,
      "duration": 0.0165,
      "velocity": 93,
      "chip": "ym2612"
    },
    {
      "channel": 1,
      "note": 71,
      "start": 40.5261,
      "duration": 0.0165,
      "velocity": 108,
      "chip": "ym2612"
    },
    {
      "channel": 0,
      "note": 38,
      "start": 40.5365,
      "duration": 0.0162,
      "velocity": 115,
      "chip": "ym2612"
    },
    {
      "channel": 5,
      "note": 71,
      "start": 40.5377,
      "duration": 0.0161,
      "velocity": 108,
      "chip": "ym2612"
    },
    {
      "channel": 4,
      "note": 80,
      "start": 40.539,
      "duration": 0.0161,
      "velocity": 98,
      "chip": "ym2612"
    },
    {
      "channel": 3,
      "note": 83,
      "start": 40.5402,
      "duration": 0.0162,
      "velocity": 98,
      "chip": "ym2612"
    },
    {
      "channel": 2,
      "note": 52,
      "start": 40.5415,
      "duration": 0.0161,
      "velocity": 93,
      "chip": "ym2612"
    },
    {
      "channel": 1,
      "note": 71,
      "start": 40.5426,
      "duration": 0.0162,
      "velocity": 108,
      "chip": "ym2612"
    },
    {
      "channel": 0,
      "note": 38,
      "start": 40.5527,
      "duration": 0.016,
      "velocity": 115,
      "chip": "ym2612"
    },
    {
      "channel": 5,
      "note": 71,
      "start": 40.5538,
      "duration": 0.0161,
      "velocity": 108,
      "chip": "ym2612"
    },
    {
      "channel": 2,
      "note": 52,
      "start": 40.5576,
      "duration": 0.0168,
      "velocity": 93,
      "chip": "ym2612"
    },
    {
      "channel": 1,
      "note": 71,
      "start": 40.5588,
      "duration": 0.0168,
      "velocity": 108,
      "chip": "ym2612"
    },
    {
      "channel": 0,
      "note": 39,
      "start": 40.5687,
      "duration": 0.0158,
      "velocity": 115,
      "chip": "ym2612"
    },
    {
      "channel": 5,
      "note": 71,
      "start": 40.5699,
      "duration": 0.0161,
      "velocity": 108,
      "chip": "ym2612"
    },
    {
      "channel": 4,
      "note": 80,
      "start": 40.5714,
      "duration": 0.0158,
      "velocity": 98,
      "chip": "ym2612"
    },
    {
      "channel": 3,
      "note": 83,
      "start": 40.5729,
      "duration": 0.0155,
      "velocity": 98,
      "chip": "ym2612"
    },
    {
      "channel": 2,
      "note": 52,
      "start": 40.5745,
      "duration": 0.0152,
      "velocity": 93,
      "chip": "ym2612"
    },
    {
      "channel": 1,
      "note": 71,
      "start": 40.5757,
      "duration": 0.0152,
      "velocity": 108,
      "chip": "ym2612"
    },
    {
      "channel": 0,
      "note": 39,
      "start": 40.5844,
      "duration": 0.0159,
      "velocity": 115,
      "chip": "ym2612"
    },
    {
      "channel": 5,
      "note": 71,
      "start": 40.586,
      "duration": 0.0161,
      "velocity": 108,
      "chip": "ym2612"
    },
    {
      "channel": 4,
      "note": 80,
      "start": 40.5872,
      "duration": 0.0161,
      "velocity": 98,
      "chip": "ym2612"
    },
    {
      "channel": 3,
      "note": 83,
      "start": 40.5885,
      "duration": 0.016,
      "velocity": 98,
      "chip": "ym2612"
    },
    {
      "channel": 2,
      "note": 52,
      "start": 40.5897,
      "duration": 0.016,
      "velocity": 93,
      "chip": "ym2612"
    },
    {
      "channel": 1,
      "note": 71,
      "start": 40.5909,
      "duration": 0.016,
      "velocity": 108,
      "chip": "ym2612"
    },
    {
      "channel": 0,
      "note": 40,
      "start": 40.6003,
      "duration": 0.0161,
      "velocity": 115,
      "chip": "ym2612"
    },
    {
      "channel": 5,
      "note": 71,
      "start": 40.6021,
      "duration": 0.0158,
      "velocity": 108,
      "chip": "ym2612"
    },
    {
      "channel": 4,
      "note": 80,
      "start": 40.6033,
      "duration": 0.016,
      "velocity": 98,
      "chip": "ym2612"
    },
    {
      "channel": 3,
      "note": 83,
      "start": 40.6045,
      "duration": 0.0161,
      "velocity": 98,
      "chip": "ym2612"
    },
    {
      "channel": 2,
      "note": 52,
      "start": 40.6056,
      "duration": 0.0161,
      "velocity": 93,
      "chip": "ym2612"
    },
    {
      "channel": 1,
      "note": 71,
      "start": 40.6069,
      "duration": 0.016,
      "velocity": 108,
      "chip": "ym2612"
    },
    {
      "channel": 0,
      "note": 40,
      "start": 40.6164,
      "duration": 0.0161,
      "velocity": 115,
      "chip": "ym2612"
    },
    {
      "channel": 5,
      "note": 71,
      "start": 40.6178,
      "duration": 0.0159,
      "velocity": 108,
      "chip": "ym2612"
    },
    {
      "channel": 4,
      "note": 80,
      "start": 40.6194,
      "duration": 0.0161,
      "velocity": 98,
      "chip": "ym2612"
    },
    {
      "channel": 3,
      "note": 83,
      "start": 40.6206,
      "duration": 0.0161,
      "velocity": 98,
      "chip": "ym2612"
    },
    {
      "channel": 2,
      "note": 52,
      "start": 40.6217,
      "duration": 0.0161,
      "velocity": 93,
      "chip": "ym2612"
    },
    {
      "channel": 1,
      "note": 71,
      "start": 40.6229,
      "duration": 0.0161,
      "velocity": 108,
      "chip": "ym2612"
    },
    {
      "channel": 0,
      "note": 40,
      "start": 40.6325,
      "duration": 0.0161,
      "velocity": 115,
      "chip": "ym2612"
    },
    {
      "channel": 5,
      "note": 71,
      "start": 40.6337,
      "duration": 0.016,
      "velocity": 108,
      "chip": "ym2612"
    },
    {
      "channel": 4,
      "note": 80,
      "start": 40.6355,
      "duration": 0.0157,
      "velocity": 98,
      "chip": "ym2612"
    },
    {
      "channel": 3,
      "note": 83,
      "start": 40.6367,
      "duration": 0.016,
      "velocity": 98,
      "chip": "ym2612"
    },
    {
      "channel": 2,
      "note": 52,
      "start": 40.6378,
      "duration": 0.016,
      "velocity": 93,
      "chip": "ym2612"
    },
    {
      "channel": 1,
      "note": 71,
      "start": 40.639,
      "duration": 0.016,
      "velocity": 108,
      "chip": "ym2612"
    },
    {
      "channel": 0,
      "note": 41,
      "start": 40.6486,
      "duration": 0.0161,
      "velocity": 115,
      "chip": "ym2612"
    },
    {
      "channel": 5,
      "note": 71,
      "start": 40.6498,
      "duration": 0.0161,
      "velocity": 108,
      "chip": "ym2612"
    },
    {
      "channel": 4,
      "note": 80,
      "start": 40.6512,
      "duration": 0.0159,
      "velocity": 98,
      "chip": "ym2612"
    },
    {
      "channel": 3,
      "note": 83,
      "start": 40.6527,
      "duration": 0.0161,
      "velocity": 98,
      "chip": "ym2612"
    },
    {
      "channel": 2,
      "note": 52,
      "start": 40.6539,
      "duration": 0.0161,
      "velocity": 93,
      "chip": "ym2612"
    },
    {
      "channel": 0,
      "note": 41,
      "start": 40.6647,
      "duration": 0.0161,
      "velocity": 115,
      "chip": "ym2612"
    },
    {
      "channel": 5,
      "note": 71,
      "start": 40.6659,
      "duration": 0.0162,
      "velocity": 108,
      "chip": "ym2612"
    },
    {
      "channel": 4,
      "note": 80,
      "start": 40.6671,
      "duration": 0.0161,
      "velocity": 98,
      "chip": "ym2612"
    },
    {
      "channel": 3,
      "note": 83,
      "start": 40.6688,
      "duration": 0.0162,
      "velocity": 98,
      "chip": "ym2612"
    },
    {
      "channel": 2,
      "note": 52,
      "start": 40.67,
      "duration": 0.0162,
      "velocity": 93,
      "chip": "ym2612"
    },
    {
      "channel": 0,
      "note": 42,
      "start": 40.6808,
      "duration": 0.0161,
      "velocity": 115,
      "chip": "ym2612"
    },
    {
      "channel": 4,
      "note": 80,
      "start": 40.6832,
      "duration": 0.0163,
      "velocity": 98,
      "chip": "ym2612"
    },
    {
      "channel": 3,
      "note": 83,
      "start": 40.685,
      "duration": 0.0157,
      "velocity": 98,
      "chip": "ym2612"
    },
    {
      "channel": 2,
      "note": 52,
      "start": 40.6862,
      "duration": 0.0162,
      "velocity": 93,
      "chip": "ym2612"
    },
    {
      "channel": 0,
      "note": 42,
      "start": 40.6969,
      "duration": 0.0161,
      "velocity": 115,
      "chip": "ym2612"
    },
    {
      "channel": 4,
      "note": 80,
      "start": 40.6995,
      "duration": 0.0161,
      "velocity": 98,
      "chip": "ym2612"
    },
    {
      "channel": 3,
      "note": 83,
      "start": 40.7007,
      "duration": 0.0161,
      "velocity": 98,
      "chip": "ym2612"
    },
    {
      "channel": 2,
      "note": 52,
      "start": 40.7024,
      "duration": 0.0162,
      "velocity": 93,
      "chip": "ym2612"
    },
    {
      "channel": 0,
      "note": 43,
      "start": 40.713,
      "duration": 0.0161,
      "velocity": 115,
      "chip": "ym2612"
    },
    {
      "channel": 4,
      "note": 80,
      "start": 40.7156,
      "duration": 0.016,
      "velocity": 98,
      "chip": "ym2612"
    },
    {
      "channel": 3,
      "note": 83,
      "start": 40.7168,
      "duration": 0.016,
      "velocity": 98,
      "chip": "ym2612"
    },
    {
      "channel": 2,
      "note": 52,
      "start": 40.7185,
      "duration": 0.0155,
      "velocity": 93,
      "chip": "ym2612"
    },
    {
      "channel": 0,
      "note": 43,
      "start": 40.7291,
      "duration": 0.0161,
      "velocity": 115,
      "chip": "ym2612"
    },
    {
      "channel": 4,
      "note": 80,
      "start": 40.7316,
      "duration": 0.0162,
      "velocity": 98,
      "chip": "ym2612"
    },
    {
      "channel": 3,
      "note": 83,
      "start": 40.7329,
      "duration": 0.0162,
      "velocity": 98,
      "chip": "ym2612"
    },
    {
      "channel": 2,
      "note": 52,
      "start": 40.7341,
      "duration": 0.0162,
      "velocity": 93,
      "chip": "ym2612"
    },
    {
      "channel": 0,
      "note": 44,
      "start": 40.7452,
      "duration": 0.0179,
      "velocity": 115,
      "chip": "ym2612"
    },
    {
      "channel": 4,
      "note": 80,
      "start": 40.7478,
      "duration": 0.0179,
      "velocity": 98,
      "chip": "ym2612"
    },
    {
      "channel": 3,
      "note": 83,
      "start": 40.749,
      "duration": 0.0178,
      "velocity": 98,
      "chip": "ym2612"
    },
    {
      "channel": 2,
      "note": 52,
      "start": 40.7502,
      "duration": 0.0183,
      "velocity": 93,
      "chip": "ym2612"
    },
    {
      "channel": 0,
      "note": 36,
      "start": 40.7632,
      "duration": 0.0143,
      "velocity": 115,
      "chip": "ym2612"
    },
    {
      "channel": 4,
      "note": 80,
      "start": 40.7656,
      "duration": 0.0143,
      "velocity": 98,
      "chip": "ym2612"
    },
    {
      "channel": 3,
      "note": 83,
      "start": 40.7668,
      "duration": 0.0143,
      "velocity": 98,
      "chip": "ym2612"
    },
    {
      "channel": 2,
      "note": 52,
      "start": 40.7685,
      "duration": 0.0138,
      "velocity": 93,
      "chip": "ym2612"
    },
    {
      "channel": 0,
      "note": 36,
      "start": 40.7775,
      "duration": 0.016,
      "velocity": 115,
      "chip": "ym2612"
    },
    {
      "channel": 4,
      "note": 80,
      "start": 40.7799,
      "duration": 0.016,
      "velocity": 98,
      "chip": "ym2612"
    },
    {
      "channel": 3,
      "note": 83,
      "start": 40.7811,
      "duration": 0.016,
      "velocity": 98,
      "chip": "ym2612"
    },
    {
      "channel": 2,
      "note": 52,
      "start": 40.7823,
      "duration": 0.016,
      "velocity": 93,
      "chip": "ym2612"
    },
    {
      "channel": 0,
      "note": 37,
      "start": 40.7935,
      "duration": 0.0161,
      "velocity": 115,
      "chip": "ym2612"
    },
    {
      "channel": 4,
      "note": 80,
      "start": 40.796,
      "duration": 0.0161,
      "velocity": 98,
      "chip": "ym2612"
    },
    {
      "channel": 3,
      "note": 83,
      "start": 40.7972,
      "duration": 0.0161,
      "velocity": 98,
      "chip": "ym2612"
    },
    {
      "channel": 2,
      "note": 52,
      "start": 40.7983,
      "duration": 0.0161,
      "velocity": 93,
      "chip": "ym2612"
    },
    {
      "channel": 0,
      "note": 37,
      "start": 40.8096,
      "duration": 0.0161,
      "velocity": 115,
      "chip": "ym2612"
    },
    {
      "channel": 4,
      "note": 80,
      "start": 40.8121,
      "duration": 0.0161,
      "velocity": 98,
      "chip": "ym2612"
    },
    {
      "channel": 3,
      "note": 83,
      "start": 40.8133,
      "duration": 0.0162,
      "velocity": 98,
      "chip": "ym2612"
    },
    {
      "channel": 2,
      "note": 52,
      "start": 40.8144,
      "duration": 0.0163,
      "velocity": 93,
      "chip": "ym2612"
    },
    {
      "channel": 0,
      "note": 38,
      "start": 40.8257,
      "duration": 0.0161,
      "velocity": 115,
      "chip": "ym2612"
    },
    {
      "channel": 4,
      "note": 80,
      "start": 40.8282,
      "duration": 0.0162,
      "velocity": 98,
      "chip": "ym2612"
    },
    {
      "channel": 3,
      "note": 83,
      "start": 40.8295,
      "duration": 0.0162,
      "velocity": 98,
      "chip": "ym2612"
    },
    {
      "channel": 2,
      "note": 52,
      "start": 40.8307,
      "duration": 0.0162,
      "velocity": 93,
      "chip": "ym2612"
    },
    {
      "channel": 0,
      "note": 38,
      "start": 40.8418,
      "duration": 0.0179,
      "velocity": 124,
      "chip": "ym2612"
    },
    {
      "channel": 2,
      "note": 52,
      "start": 40.8469,
      "duration": 0.0185,
      "velocity": 93,
      "chip": "ym2612"
    },
    {
      "channel": 0,
      "note": 84,
      "start": 40.8598,
      "duration": 0.0142,
      "velocity": 124,
      "chip": "ym2612"
    },
    {
      "channel": 4,
      "note": 80,
      "start": 40.8625,
      "duration": 0.0141,
      "velocity": 98,
      "chip": "ym2612"
    },
    {
      "channel": 3,
      "note": 83,
      "start": 40.864,
      "duration": 0.0139,
      "velocity": 98,
      "chip": "ym2612"
    },
    {
      "channel": 2,
      "note": 52,
      "start": 40.8655,
      "duration": 0.0136,
      "velocity": 93,
      "chip": "ym2612"
    },
    {
      "channel": 0,
      "note": 82,
      "start": 40.8741,
      "duration": 0.0161,
      "velocity": 124,
      "chip": "ym2612"
    },
    {
      "channel": 4,
      "note": 80,
      "start": 40.8766,
      "duration": 0.016,
      "velocity": 98,
      "chip": "ym2612"
    },
    {
      "channel": 3,
      "note": 83,
      "start": 40.8778,
      "duration": 0.0159,
      "velocity": 98,
      "chip": "ym2612"
    },
    {
      "channel": 2,
      "note": 52,
      "start": 40.879,
      "duration": 0.0158,
      "velocity": 93,
      "chip": "ym2612"
    },
    {
      "channel": 0,
      "note": 80,
      "start": 40.8902,
      "duration": 0.0161,
      "velocity": 124,
      "chip": "ym2612"
    },
    {
      "channel": 4,
      "note": 80,
      "start": 40.8926,
      "duration": 0.0161,
      "velocity": 98,
      "chip": "ym2612"
    },
    {
      "channel": 3,
      "note": 83,
      "start": 40.8937,
      "duration": 0.0161,
      "velocity": 98,
      "chip": "ym2612"
    },
    {
      "channel": 2,
      "note": 52,
      "start": 40.8949,
      "duration": 0.0161,
      "velocity": 93,
      "chip": "ym2612"
    },
    {
      "channel": 0,
      "note": 77,
      "start": 40.9063,
      "duration": 0.0161,
      "velocity": 124,
      "chip": "ym2612"
    },
    {
      "channel": 4,
      "note": 80,
      "start": 40.9087,
      "duration": 0.0161,
      "velocity": 98,
      "chip": "ym2612"
    },
    {
      "channel": 3,
      "note": 83,
      "start": 40.9098,
      "duration": 0.0161,
      "velocity": 98,
      "chip": "ym2612"
    },
    {
      "channel": 2,
      "note": 52,
      "start": 40.911,
      "duration": 0.0161,
      "velocity": 93,
      "chip": "ym2612"
    },
    {
      "channel": 0,
      "note": 75,
      "start": 40.9224,
      "duration": 0.0161,
      "velocity": 124,
      "chip": "ym2612"
    },
    {
      "channel": 4,
      "note": 80,
      "start": 40.9248,
      "duration": 0.0161,
      "velocity": 98,
      "chip": "ym2612"
    },
    {
      "channel": 3,
      "note": 83,
      "start": 40.9259,
      "duration": 0.0162,
      "velocity": 98,
      "chip": "ym2612"
    },
    {
      "channel": 2,
      "note": 52,
      "start": 40.9271,
      "duration": 0.0161,
      "velocity": 93,
      "chip": "ym2612"
    },
    {
      "channel": 0,
      "note": 72,
      "start": 40.9385,
      "duration": 0.0161,
      "velocity": 124,
      "chip": "ym2612"
    },
    {
      "channel": 4,
      "note": 80,
      "start": 40.9409,
      "duration": 0.0161,
      "velocity": 98,
      "chip": "ym2612"
    },
    {
      "channel": 3,
      "note": 83,
      "start": 40.9421,
      "duration": 0.0161,
      "velocity": 98,
      "chip": "ym2612"
    },
    {
      "channel": 2,
      "note": 52,
      "start": 40.9432,
      "duration": 0.0161,
      "velocity": 93,
      "chip": "ym2612"
    },
    {
      "channel": 0,
      "note": 70,
      "start": 40.9546,
      "duration": 0.0161,
      "velocity": 124,
      "chip": "ym2612"
    },
    {
      "channel": 4,
      "note": 80,
      "start": 40.957,
      "duration": 0.0162,
      "velocity": 98,
      "chip": "ym2612"
    },
    {
      "channel": 3,
      "note": 83,
      "start": 40.9582,
      "duration": 0.0161,
      "velocity": 98,
      "chip": "ym2612"
    },
    {
      "channel": 2,
      "note": 52,
      "start": 40.9593,
      "duration": 0.0162,
      "velocity": 93,
      "chip": "ym2612"
    },
    {
      "channel": 0,
      "note": 68,
      "start": 40.9707,
      "duration": 0.0163,
      "velocity": 124,
      "chip": "ym2612"
    },
    {
      "channel": 4,
      "note": 80,
      "start": 40.9731,
      "duration": 0.0163,
      "velocity": 98,
      "chip": "ym2612"
    },
    {
      "channel": 3,
      "note": 83,
      "start": 40.9743,
      "duration": 0.0163,
      "velocity": 98,
      "chip": "ym2612"
    },
    {
      "channel": 2,
      "note": 52,
      "start": 40.9755,
      "duration": 0.0163,
      "velocity": 93,
      "chip": "ym2612"
    },
    {
      "channel": 0,
      "note": 65,
      "start": 40.987,
      "duration": 0.0163,
      "velocity": 124,
      "chip": "ym2612"
    },
    {
      "channel": 4,
      "note": 80,
      "start": 40.9894,
      "duration": 0.0164,
      "velocity": 98,
      "chip": "ym2612"
    },
    {
      "channel": 3,
      "note": 83,
      "start": 40.9906,
      "duration": 0.0165,
      "velocity": 98,
      "chip": "ym2612"
    },
    {
      "channel": 2,
      "note": 52,
      "start": 40.9918,
      "duration": 0.0165,
      "velocity": 93,
      "chip": "ym2612"
    },
    {
      "channel": 0,
      "note": 63,
      "start": 41.0033,
      "duration": 0.0154,
      "velocity": 1,
      "chip": "ym2612"
    },
    {
      "channel": 4,
      "note": 80,
      "start": 41.0058,
      "duration": 0.0154,
      "velocity": 98,
      "chip": "ym2612"
    },
    {
      "channel": 3,
      "note": 83,
      "start": 41.0071,
      "duration": 0.0153,
      "velocity": 98,
      "chip": "ym2612"
    },
    {
      "channel": 2,
      "note": 52,
      "start": 41.0083,
      "duration": 0.0153,
      "velocity": 93,
      "chip": "ym2612"
    },
    {
      "channel": 4,
      "note": 80,
      "start": 41.0212,
      "duration": 0.0153,
      "velocity": 98,
      "chip": "ym2612"
    },
    {
      "channel": 3,
      "note": 83,
      "start": 41.0224,
      "duration": 0.0153,
      "velocity": 98,
      "chip": "ym2612"
    },
    {
      "channel": 2,
      "note": 52,
      "start": 41.0236,
      "duration": 0.0153,
      "velocity": 93,
      "chip": "ym2612"
    },
    {
      "channel": 4,
      "note": 80,
      "start": 41.0365,
      "duration": 0.016,
      "velocity": 98,
      "chip": "ym2612"
    },
    {
      "channel": 3,
      "note": 83,
      "start": 41.0378,
      "duration": 0.016,
      "velocity": 98,
      "chip": "ym2612"
    },
    {
      "channel": 2,
      "note": 52,
      "start": 41.039,
      "duration": 0.0159,
      "velocity": 93,
      "chip": "ym2612"
    },
    {
      "channel": 4,
      "note": 80,
      "start": 41.0524,
      "duration": 0.0161,
      "velocity": 98,
      "chip": "ym2612"
    },
    {
      "channel": 3,
      "note": 83,
      "start": 41.0537,
      "duration": 0.0161,
      "velocity": 98,
      "chip": "ym2612"
    },
    {
      "channel": 2,
      "note": 52,
      "start": 41.0549,
      "duration": 0.0161,
      "velocity": 93,
      "chip": "ym2612"
    },
    {
      "channel": 1,
      "note": 71,
      "start": 41.0564,
      "duration": 0.0159,
      "velocity": 108,
      "chip": "ym2612"
    },
    {
      "channel": 4,
      "note": 80,
      "start": 41.0685,
      "duration": 0.016,
      "velocity": 98,
      "chip": "ym2612"
    },
    {
      "channel": 3,
      "note": 83,
      "start": 41.0698,
      "duration": 0.0163,
      "velocity": 98,
      "chip": "ym2612"
    },
    {
      "channel": 2,
      "note": 52,
      "start": 41.071,
      "duration": 0.0163,
      "velocity": 93,
      "chip": "ym2612"
    },
    {
      "channel": 1,
      "note": 71,
      "start": 41.0722,
      "duration": 0.0163,
      "velocity": 108,
      "chip": "ym2612"
    },
    {
      "channel": 5,
      "note": 71,
      "start": 41.0832,
      "duration": 0.0159,
      "velocity": 108,
      "chip": "ym2612"
    },
    {
      "channel": 4,
      "note": 80,
      "start": 41.0846,
      "duration": 0.0156,
      "velocity": 98,
      "chip": "ym2612"
    },
    {
      "channel": 3,
      "note": 83,
      "start": 41.0862,
      "duration": 0.0158,
      "velocity": 98,
      "chip": "ym2612"
    },
    {
      "channel": 2,
      "note": 52,
      "start": 41.0873,
      "duration": 0.0159,
      "velocity": 93,
      "chip": "ym2612"
    },
    {
      "channel": 1,
      "note": 71,
      "start": 41.0885,
      "duration": 0.0158,
      "velocity": 108,
      "chip": "ym2612"
    },
    {
      "channel": 5,
      "note": 71,
      "start": 41.099,
      "duration": 0.016,
      "velocity": 108,
      "chip": "ym2612"
    },
    {
      "channel": 4,
      "note": 80,
      "start": 41.1002,
      "duration": 0.0161,
      "velocity": 98,
      "chip": "ym2612"
    },
    {
      "channel": 3,
      "note": 83,
      "start": 41.102,
      "duration": 0.0158,
      "velocity": 98,
      "chip": "ym2612"
    },
    {
      "channel": 2,
      "note": 52,
      "start": 41.1032,
      "duration": 0.0162,
      "velocity": 93,
      "chip": "ym2612"
    },
    {
      "channel": 1,
      "note": 71,
      "start": 41.1043,
      "duration": 0.0162,
      "velocity": 108,
      "chip": "ym2612"
    },
    {
      "channel": 5,
      "note": 71,
      "start": 41.1151,
      "duration": 0.0161,
      "velocity": 108,
      "chip": "ym2612"
    },
    {
      "channel": 4,
      "note": 80,
      "start": 41.1163,
      "duration": 0.0161,
      "velocity": 98,
      "chip": "ym2612"
    },
    {
      "channel": 3,
      "note": 83,
      "start": 41.1178,
      "duration": 0.016,
      "velocity": 98,
      "chip": "ym2612"
    },
    {
      "channel": 2,
      "note": 52,
      "start": 41.1194,
      "duration": 0.0161,
      "velocity": 93,
      "chip": "ym2612"
    },
    {
      "channel": 1,
      "note": 71,
      "start": 41.1205,
      "duration": 0.0162,
      "velocity": 108,
      "chip": "ym2612"
    },
    {
      "channel": 5,
      "note": 71,
      "start": 41.1311,
      "duration": 0.0199,
      "velocity": 108,
      "chip": "ym2612"
    },
    {
      "channel": 2,
      "note": 52,
      "start": 41.1355,
      "duration": 0.0204,
      "velocity": 93,
      "chip": "ym2612"
    },
    {
      "channel": 0,
      "note": 36,
      "start": 41.1496,
      "duration": 0.0143,
      "velocity": 115,
      "chip": "ym2612"
    },
    {
      "channel": 5,
      "note": 71,
      "start": 41.151,
      "duration": 0.0141,
      "velocity": 108,
      "chip": "ym2612"
    },
    {
      "channel": 4,
      "note": 80,
      "start": 41.1529,
      "duration": 0.0134,
      "velocity": 98,
      "chip": "ym2612"
    },
    {
      "channel": 3,
      "note": 83,
      "start": 41.1544,
      "duration": 0.0134,
      "velocity": 98,
      "chip": "ym2612"
    },
    {
      "channel": 2,
      "note": 52,
      "start": 41.1559,
      "duration": 0.0134,
      "velocity": 93,
      "chip": "ym2612"
    },
    {
      "channel": 1,
      "note": 73,
      "start": 41.1575,
      "duration": 0.0132,
      "velocity": 108,
      "chip": "ym2612"
    },
    {
      "channel": 0,
      "note": 36,
      "start": 41.1639,
      "duration": 0.016,
      "velocity": 115,
      "chip": "ym2612"
    },
    {
      "channel": 4,
      "note": 80,
      "start": 41.1663,
      "duration": 0.0163,
      "velocity": 98,
      "chip": "ym2612"
    },
    {
      "channel": 3,
      "note": 83,
      "start": 41.1678,
      "duration": 0.016,
      "velocity": 98,
      "chip": "ym2612"
    },
    {
      "channel": 2,
      "note": 52,
      "start": 41.1694,
      "duration": 0.0161,
      "velocity": 93,
      "chip": "ym2612"
    },
    {
      "channel": 1,
      "note": 73,
      "start": 41.1706,
      "duration": 0.0161,
      "velocity": 108,
      "chip": "ym2612"
    },
    {
      "channel": 0,
      "note": 37,
      "start": 41.1799,
      "duration": 0.0161,
      "velocity": 115,
      "chip": "ym2612"
    },
    {
      "channel": 5,
      "note": 73,
      "start": 41.1815,
      "duration": 0.0159,
      "velocity": 108,
      "chip": "ym2612"
    },
    {
      "channel": 4,
      "note": 80,
      "start": 41.1826,
      "duration": 0.0158,
      "velocity": 98,
      "chip": "ym2612"
    },
    {
      "channel": 3,
      "note": 83,
      "start": 41.1838,
      "duration": 0.0159,
      "velocity": 98,
      "chip": "ym2612"
    },
    {
      "channel": 2,
      "note": 52,
      "start": 41.1855,
      "duration": 0.0155,
      "velocity": 93,
      "chip": "ym2612"
    },
    {
      "channel": 1,
      "note": 73,
      "start": 41.1867,
      "duration": 0.0159,
      "velocity": 108,
      "chip": "ym2612"
    },
    {
      "channel": 0,
      "note": 37,
      "start": 41.196,
      "duration": 0.0161,
      "velocity": 115,
      "chip": "ym2612"
    },
    {
      "channel": 5,
      "note": 73,
      "start": 41.1973,
      "duration": 0.016,
      "velocity": 108,
      "chip": "ym2612"
    },
    {
      "channel": 4,
      "note": 80,
      "start": 41.1984,
      "duration": 0.016,
      "velocity": 98,
      "chip": "ym2612"
    },
    {
      "channel": 3,
      "note": 83,
      "start": 41.1997,
      "duration": 0.016,
      "velocity": 98,
      "chip": "ym2612"
    },
    {
      "channel": 2,
      "note": 52,
      "start": 41.201,
      "duration": 0.0158,
      "velocity": 93,
      "chip": "ym2612"
    },
    {
      "channel": 1,
      "note": 73,
      "start": 41.2026,
      "duration": 0.016,
      "velocity": 108,
      "chip": "ym2612"
    },
    {
      "channel": 0,
      "note": 38,
      "start": 41.2122,
      "duration": 0.0161,
      "velocity": 115,
      "chip": "ym2612"
    },
    {
      "channel": 5,
      "note": 73,
      "start": 41.2133,
      "duration": 0.0161,
      "velocity": 108,
      "chip": "ym2612"
    },
    {
      "channel": 4,
      "note": 80,
      "start": 41.2145,
      "duration": 0.0161,
      "velocity": 98,
      "chip": "ym2612"
    },
    {
      "channel": 3,
      "note": 83,
      "start": 41.2157,
      "duration": 0.0161,
      "velocity": 98,
      "chip": "ym2612"
    },
    {
      "channel": 2,
      "note": 52,
      "start": 41.2168,
      "duration": 0.0161,
      "velocity": 93,
      "chip": "ym2612"
    },
    {
      "channel": 1,
      "note": 73,
      "start": 41.2185,
      "duration": 0.0158,
      "velocity": 108,
      "chip": "ym2612"
    },
    {
      "channel": 0,
      "note": 38,
      "start": 41.2283,
      "duration": 0.0161,
      "velocity": 115,
      "chip": "ym2612"
    },
    {
      "channel": 5,
      "note": 73,
      "start": 41.2294,
      "duration": 0.0161,
      "velocity": 108,
      "chip": "ym2612"
    },
    {
      "channel": 4,
      "note": 80,
      "start": 41.2306,
      "duration": 0.0162,
      "velocity": 98,
      "chip": "ym2612"
    },
    {
      "channel": 3,
      "note": 83,
      "start": 41.2318,
      "duration": 0.0161,
      "velocity": 98,
      "chip": "ym2612"
    },
    {
      "channel": 2,
      "note": 52,
      "start": 41.2329,
      "duration": 0.0161,
      "velocity": 93,
      "chip": "ym2612"
    },
    {
      "channel": 1,
      "note": 73,
      "start": 41.2343,
      "duration": 0.0159,
      "velocity": 108,
      "chip": "ym2612"
    },
    {
      "channel": 0,
      "note": 39,
      "start": 41.2444,
      "duration": 0.0161,
      "velocity": 115,
      "chip": "ym2612"
    },
    {
      "channel": 5,
      "note": 73,
      "start": 41.2455,
      "duration": 0.0161,
      "velocity": 108,
      "chip": "ym2612"
    },
    {
      "channel": 4,
      "note": 80,
      "start": 41.2467,
      "duration": 0.0161,
      "velocity": 98,
      "chip": "ym2612"
    },
    {
      "channel": 3,
      "note": 83,
      "start": 41.2479,
      "duration": 0.0162,
      "velocity": 98,
      "chip": "ym2612"
    },
    {
      "channel": 2,
      "note": 52,
      "start": 41.2491,
      "duration": 0.0161,
      "velocity": 93,
      "chip": "ym2612"
    },
    {
      "channel": 1,
      "note": 73,
      "start": 41.2502,
      "duration": 0.0161,
      "velocity": 108,
      "chip": "ym2612"
    },
    {
      "channel": 0,
      "note": 39,
      "start": 41.2605,
      "duration": 0.0161,
      "velocity": 115,
      "chip": "ym2612"
    },
    {
      "channel": 5,
      "note": 73,
      "start": 41.2616,
      "duration": 0.0161,
      "velocity": 108,
      "chip": "ym2612"
    },
    {
      "channel": 4,
      "note": 80,
      "start": 41.2628,
      "duration": 0.0161,
      "velocity": 98,
      "chip": "ym2612"
    },
    {
      "channel": 3,
      "note": 83,
      "start": 41.264,
      "duration": 0.0161,
      "velocity": 98,
      "chip": "ym2612"
    },
    {
      "channel": 2,
      "note": 52,
      "start": 41.2652,
      "duration": 0.0161,
      "velocity": 93,
      "chip": "ym2612"
    },
    {
      "channel": 1,
      "note": 73,
      "start": 41.2663,
      "duration": 0.0161,
      "velocity": 108,
      "chip": "ym2612"
    },
    {
      "channel": 0,
      "note": 40,
      "start": 41.2766,
      "duration": 0.0161,
      "velocity": 115,
      "chip": "ym2612"
    },
    {
      "channel": 5,
      "note": 73,
      "start": 41.2777,
      "duration": 0.0161,
      "velocity": 108,
      "chip": "ym2612"
    },
    {
      "channel": 4,
      "note": 80,
      "start": 41.2789,
      "duration": 0.0162,
      "velocity": 98,
      "chip": "ym2612"
    },
    {
      "channel": 3,
      "note": 83,
      "start": 41.2801,
      "duration": 0.0163,
      "velocity": 98,
      "chip": "ym2612"
    },
    {
      "channel": 2,
      "note": 52,
      "start": 41.2813,
      "duration": 0.0163,
      "velocity": 93,
      "chip": "ym2612"
    },
    {
      "channel": 1,
      "note": 73,
      "start": 41.2824,
      "duration": 0.0164,
      "velocity": 108,
      "chip": "ym2612"
    },
    {
      "channel": 0,
      "note": 40,
      "start": 41.2927,
      "duration": 0.0161,
      "velocity": 115,
      "chip": "ym2612"
    },
    {
      "channel": 5,
      "note": 73,
      "start": 41.2939,
      "duration": 0.0161,
      "velocity": 108,
      "chip": "ym2612"
    },
    {
      "channel": 4,
      "note": 80,
      "start": 41.2951,
      "duration": 0.016,
      "velocity": 98,
      "chip": "ym2612"
    },
    {
      "channel": 3,
      "note": 83,
      "start": 41.2964,
      "duration": 0.016,
      "velocity": 98,
      "chip": "ym2612"
    },
    {
      "channel": 2,
      "note": 52,
      "start": 41.2976,
      "duration": 0.016,
      "velocity": 93,
      "chip": "ym2612"
    },
    {
      "channel": 1,
      "note": 73,
      "start": 41.2988,
      "duration": 0.016,
      "velocity": 108,
      "chip": "ym2612"
    },
    {
      "channel": 0,
      "note": 40,
      "start": 41.3088,
      "duration": 0.0161,
      "velocity": 115,
      "chip": "ym2612"
    },
    {
      "channel": 5,
      "note": 73,
      "start": 41.31,
      "duration": 0.0162,
      "velocity": 108,
      "chip": "ym2612"
    },
    {
      "channel": 4,
      "note": 80,
      "start": 41.3112,
      "duration": 0.0162,
      "velocity": 98,
      "chip": "ym2612"
    },
    {
      "channel": 3,
      "note": 83,
      "start": 41.3124,
      "duration": 0.0162,
      "velocity": 98,
      "chip": "ym2612"
    },
    {
      "channel": 2,
      "note": 52,
      "start": 41.3137,
      "duration": 0.0162,
      "velocity": 93,
      "chip": "ym2612"
    },
    {
      "channel": 1,
      "note": 73,
      "start": 41.3149,
      "duration": 0.0162,
      "velocity": 108,
      "chip": "ym2612"
    },
    {
      "channel": 0,
      "note": 41,
      "start": 41.3249,
      "duration": 0.0161,
      "velocity": 115,
      "chip": "ym2612"
    },
    {
      "channel": 5,
      "note": 73,
      "start": 41.3261,
      "duration": 0.0161,
      "velocity": 108,
      "chip": "ym2612"
    },
    {
      "channel": 4,
      "note": 80,
      "start": 41.3274,
      "duration": 0.016,
      "velocity": 98,
      "chip": "ym2612"
    },
    {
      "channel": 3,
      "note": 83,
      "start": 41.3287,
      "duration": 0.0159,
      "velocity": 98,
      "chip": "ym2612"
    },
    {
      "channel": 2,
      "note": 52,
      "start": 41.3299,
      "duration": 0.0159,
      "velocity": 93,
      "chip": "ym2612"
    },
    {
      "channel": 1,
      "note": 73,
      "start": 41.3311,
      "duration": 0.0158,
      "velocity": 108,
      "chip": "ym2612"
    },
    {
      "channel": 0,
      "note": 41,
      "start": 41.3409,
      "duration": 0.0162,
      "velocity": 115,
      "chip": "ym2612"
    },
    {
      "channel": 5,
      "note": 73,
      "start": 41.3422,
      "duration": 0.0161,
      "velocity": 108,
      "chip": "ym2612"
    },
    {
      "channel": 4,
      "note": 80,
      "start": 41.3434,
      "duration": 0.0162,
      "velocity": 98,
      "chip": "ym2612"
    },
    {
      "channel": 3,
      "note": 83,
      "start": 41.3446,
      "duration": 0.0161,
      "velocity": 98,
      "chip": "ym2612"
    },
    {
      "channel": 2,
      "note": 52,
      "start": 41.3457,
      "duration": 0.0161,
      "velocity": 93,
      "chip": "ym2612"
    },
    {
      "channel": 1,
      "note": 73,
      "start": 41.3469,
      "duration": 0.0161,
      "velocity": 108,
      "chip": "ym2612"
    },
    {
      "channel": 0,
      "note": 42,
      "start": 41.3571,
      "duration": 0.0161,
      "velocity": 115,
      "chip": "ym2612"
    },
    {
      "channel": 5,
      "note": 73,
      "start": 41.3583,
      "duration": 0.016,
      "velocity": 108,
      "chip": "ym2612"
    },
    {
      "channel": 4,
      "note": 80,
      "start": 41.3595,
      "duration": 0.016,
      "velocity": 98,
      "chip": "ym2612"
    },
    {
      "channel": 3,
      "note": 83,
      "start": 41.3607,
      "duration": 0.016,
      "velocity": 98,
      "chip": "ym2612"
    },
    {
      "channel": 2,
      "note": 52,
      "start": 41.3619,
      "duration": 0.016,
      "velocity": 93,
      "chip": "ym2612"
    },
    {
      "channel": 1,
      "note": 73,
      "start": 41.363,
      "duration": 0.016,
      "velocity": 108,
      "chip": "ym2612"
    },
    {
      "channel": 0,
      "note": 42,
      "start": 41.3732,
      "duration": 0.0161,
      "velocity": 115,
      "chip": "ym2612"
    },
    {
      "channel": 5,
      "note": 73,
      "start": 41.3743,
      "duration": 0.0161,
      "velocity": 108,
      "chip": "ym2612"
    },
    {
      "channel": 4,
      "note": 80,
      "start": 41.3755,
      "duration": 0.0161,
      "velocity": 98,
      "chip": "ym2612"
    },
    {
      "channel": 3,
      "note": 83,
      "start": 41.3767,
      "duration": 0.0161,
      "velocity": 98,
      "chip": "ym2612"
    },
    {
      "channel": 2,
      "note": 52,
      "start": 41.3779,
      "duration": 0.0161,
      "velocity": 93,
      "chip": "ym2612"
    },
    {
      "channel": 1,
      "note": 73,
      "start": 41.379,
      "duration": 0.0161,
      "velocity": 108,
      "chip": "ym2612"
    },
    {
      "channel": 0,
      "note": 43,
      "start": 41.3893,
      "duration": 0.0161,
      "velocity": 115,
      "chip": "ym2612"
    },
    {
      "channel": 5,
      "note": 73,
      "start": 41.3904,
      "duration": 0.0161,
      "velocity": 108,
      "chip": "ym2612"
    },
    {
      "channel": 4,
      "note": 80,
      "start": 41.3916,
      "duration": 0.0162,
      "velocity": 98,
      "chip": "ym2612"
    },
    {
      "channel": 3,
      "note": 83,
      "start": 41.3928,
      "duration": 0.0163,
      "velocity": 98,
      "chip": "ym2612"
    },
    {
      "channel": 2,
      "note": 52,
      "start": 41.394,
      "duration": 0.0163,
      "velocity": 93,
      "chip": "ym2612"
    },
    {
      "channel": 1,
      "note": 73,
      "start": 41.3951,
      "duration": 0.0163,
      "velocity": 108,
      "chip": "ym2612"
    },
    {
      "channel": 0,
      "note": 43,
      "start": 41.4054,
      "duration": 0.0161,
      "velocity": 115,
      "chip": "ym2612"
    },
    {
      "channel": 5,
      "note": 73,
      "start": 41.4065,
      "duration": 0.0161,
      "velocity": 108,
      "chip": "ym2612"
    },
    {
      "channel": 4,
      "note": 80,
      "start": 41.4078,
      "duration": 0.0161,
      "velocity": 98,
      "chip": "ym2612"
    },
    {
      "channel": 3,
      "note": 83,
      "start": 41.4091,
      "duration": 0.0161,
      "velocity": 98,
      "chip": "ym2612"
    },
    {
      "channel": 2,
      "note": 52,
      "start": 41.4103,
      "duration": 0.0162,
      "velocity": 93,
      "chip": "ym2612"
    },
    {
      "channel": 1,
      "note": 73,
      "start": 41.4115,
      "duration": 0.0163,
      "velocity": 108,
      "chip": "ym2612"
    },
    {
      "channel": 0,
      "note": 44,
      "start": 41.4215,
      "duration": 0.0179,
      "velocity": 124,
      "chip": "ym2612"
    },
    {
      "channel": 5,
      "note": 73,
      "start": 41.4227,
      "duration": 0.018,
      "velocity": 108,
      "chip": "ym2612"
    },
    {
      "channel": 2,
      "note": 52,
      "start": 41.4265,
      "duration": 0.0187,
      "velocity": 93,
      "chip": "ym2612"
    },
    {
      "channel": 0,
      "note": 84,
      "start": 41.4395,
      "duration": 0.0143,
      "velocity": 124,
      "chip": "ym2612"
    },
    {
      "channel": 5,
      "note": 73,
      "start": 41.4407,
      "duration": 0.0144,
      "velocity": 108,
      "chip": "ym2612"
    },
    {
      "channel": 4,
      "note": 80,
      "start": 41.4422,
      "duration": 0.0141,
      "velocity": 98,
      "chip": "ym2612"
    },
    {
      "channel": 3,
      "note": 83,
      "start": 41.4437,
      "duration": 0.0138,
      "velocity": 98,
      "chip": "ym2612"
    },
    {
      "channel": 2,
      "note": 52,
      "start": 41.4453,
      "duration": 0.0135,
      "velocity": 93,
      "chip": "ym2612"
    },
    {
      "channel": 1,
      "note": 76,
      "start": 41.4467,
      "duration": 0.0133,
      "velocity": 108,
      "chip": "ym2612"
    },
    {
      "channel": 0,
      "note": 82,
      "start": 41.4538,
      "duration": 0.0164,
      "velocity": 124,
      "chip": "ym2612"
    },
    {
      "channel": 4,
      "note": 80,
      "start": 41.4563,
      "duration": 0.0165,
      "velocity": 98,
      "chip": "ym2612"
    },
    {
      "channel": 3,
      "note": 83,
      "start": 41.4576,
      "duration": 0.0165,
      "velocity": 98,
      "chip": "ym2612"
    },
    {
      "channel": 2,
      "note": 52,
      "start": 41.4588,
      "duration": 0.0164,
      "velocity": 93,
      "chip": "ym2612"
    },
    {
      "channel": 1,
      "note": 76,
      "start": 41.46,
      "duration": 0.0163,
      "velocity": 108,
      "chip": "ym2612"
    },
    {
      "channel": 0,
      "note": 80,
      "start": 41.4702,
      "duration": 0.0163,
      "velocity": 124,
      "chip": "ym2612"
    },
    {
      "channel": 5,
      "note": 76,
      "start": 41.4717,
      "duration": 0.016,
      "velocity": 108,
      "chip": "ym2612"
    },
    {
      "channel": 4,
      "note": 80,
      "start": 41.4728,
      "duration": 0.0161,
      "velocity": 98,
      "chip": "ym2612"
    },
    {
      "channel": 3,
      "note": 83,
      "start": 41.474,
      "duration": 0.016,
      "velocity": 98,
      "chip": "ym2612"
    },
    {
      "channel": 2,
      "note": 52,
      "start": 41.4752,
      "duration": 0.016,
      "velocity": 93,
      "chip": "ym2612"
    },
    {
      "channel": 1,
      "note": 76,
      "start": 41.4763,
      "duration": 0.0161,
      "velocity": 108,
      "chip": "ym2612"
    },
    {
      "channel": 0,
      "note": 77,
      "start": 41.4865,
      "duration": 0.0161,
      "velocity": 124,
      "chip": "ym2612"
    },
    {
      "channel": 5,
      "note": 76,
      "start": 41.4877,
      "duration": 0.016,
      "velocity": 108,
      "chip": "ym2612"
    },
    {
      "channel": 4,
      "note": 80,
      "start": 41.4889,
      "duration": 0.016,
      "velocity": 98,
      "chip": "ym2612"
    },
    {
      "channel": 3,
      "note": 83,
      "start": 41.49,
      "duration": 0.016,
      "velocity": 98,
      "chip": "ym2612"
    },
    {
      "channel": 2,
      "note": 52,
      "start": 41.4912,
      "duration": 0.016,
      "velocity": 93,
      "chip": "ym2612"
    },
    {
      "channel": 1,
      "note": 76,
      "start": 41.4924,
      "duration": 0.016,
      "velocity": 108,
      "chip": "ym2612"
    },
    {
      "channel": 0,
      "note": 75,
      "start": 41.5026,
      "duration": 0.016,
      "velocity": 124,
      "chip": "ym2612"
    },
    {
      "channel": 5,
      "note": 76,
      "start": 41.5037,
      "duration": 0.0161,
      "velocity": 108,
      "chip": "ym2612"
    },
    {
      "channel": 4,
      "note": 80,
      "start": 41.5049,
      "duration": 0.016,
      "velocity": 98,
      "chip": "ym2612"
    },
    {
      "channel": 3,
      "note": 83,
      "start": 41.5061,
      "duration": 0.0161,
      "velocity": 98,
      "chip": "ym2612"
    },
    {
      "channel": 2,
      "note": 52,
      "start": 41.5072,
      "duration": 0.0161,
      "velocity": 93,
      "chip": "ym2612"
    },
    {
      "channel": 1,
      "note": 76,
      "start": 41.5084,
      "duration": 0.016,
      "velocity": 108,
      "chip": "ym2612"
    },
    {
      "channel": 0,
      "note": 72,
      "start": 41.5186,
      "duration": 0.0158,
      "velocity": 124,
      "chip": "ym2612"
    },
    {
      "channel": 5,
      "note": 76,
      "start": 41.5198,
      "duration": 0.0162,
      "velocity": 108,
      "chip": "ym2612"
    },
    {
      "channel": 4,
      "note": 80,
      "start": 41.521,
      "duration": 0.0162,
      "velocity": 98,
      "chip": "ym2612"
    },
    {
      "channel": 3,
      "note": 83,
      "start": 41.5222,
      "duration": 0.0161,
      "velocity": 98,
      "chip": "ym2612"
    },
    {
      "channel": 2,
      "note": 52,
      "start": 41.5233,
      "duration": 0.0162,
      "velocity": 93,
      "chip": "ym2612"
    },
    {
      "channel": 1,
      "note": 76,
      "start": 41.5245,
      "duration": 0.0162,
      "velocity": 108,
      "chip": "ym2612"
    },
    {
      "channel": 0,
      "note": 70,
      "start": 41.5344,
      "duration": 0.0159,
      "velocity": 124,
      "chip": "ym2612"
    },
    {
      "channel": 5,
      "note": 76,
      "start": 41.536,
      "duration": 0.016,
      "velocity": 108,
      "chip": "ym2612"
    },
    {
      "channel": 4,
      "note": 80,
      "start": 41.5371,
      "duration": 0.0161,
      "velocity": 98,
      "chip": "ym2612"
    },
    {
      "channel": 3,
      "note": 83,
      "start": 41.5383,
      "duration": 0.0161,
      "velocity": 98,
      "chip": "ym2612"
    },
    {
      "channel": 2,
      "note": 52,
      "start": 41.5395,
      "duration": 0.0161,
      "velocity": 93,
      "chip": "ym2612"
    },
    {
      "channel": 1,
      "note": 76,
      "start": 41.5407,
      "duration": 0.0161,
      "velocity": 108,
      "chip": "ym2612"
    },
    {
      "channel": 0,
      "note": 68,
      "start": 41.5503,
      "duration": 0.0161,
      "velocity": 124,
      "chip": "ym2612"
    },
    {
      "channel": 5,
      "note": 76,
      "start": 41.552,
      "duration": 0.0157,
      "velocity": 108,
      "chip": "ym2612"
    },
    {
      "channel": 4,
      "note": 80,
      "start": 41.5532,
      "duration": 0.0161,
      "velocity": 98,
      "chip": "ym2612"
    },
    {
      "channel": 3,
      "note": 83,
      "start": 41.5544,
      "duration": 0.0161,
      "velocity": 98,
      "chip": "ym2612"
    },
    {
      "channel": 2,
      "note": 52,
      "start": 41.5556,
      "duration": 0.0161,
      "velocity": 93,
      "chip": "ym2612"
    },
    {
      "channel": 1,
      "note": 76,
      "start": 41.5568,
      "duration": 0.0161,
      "velocity": 108,
      "chip": "ym2612"
    },
    {
      "channel": 0,
      "note": 65,
      "start": 41.5664,
      "duration": 0.0161,
      "velocity": 124,
      "chip": "ym2612"
    },
    {
      "channel": 5,
      "note": 76,
      "start": 41.5677,
      "duration": 0.016,
      "velocity": 108,
      "chip": "ym2612"
    },
    {
      "channel": 4,
      "note": 80,
      "start": 41.5693,
      "duration": 0.0161,
      "velocity": 98,
      "chip": "ym2612"
    },
    {
      "channel": 3,
      "note": 83,
      "start": 41.5705,
      "duration": 0.0163,
      "velocity": 98,
      "chip": "ym2612"
    },
    {
      "channel": 2,
      "note": 52,
      "start": 41.5717,
      "duration": 0.0163,
      "velocity": 93,
      "chip": "ym2612"
    },
    {
      "channel": 1,
      "note": 76,
      "start": 41.5729,
      "duration": 0.0164,
      "velocity": 108,
      "chip": "ym2612"
    },
    {
      "channel": 0,
      "note": 63,
      "start": 41.5825,
      "duration": 0.0153,
      "velocity": 1,
      "chip": "ym2612"
    },
    {
      "channel": 5,
      "note": 76,
      "start": 41.5837,
      "duration": 0.0153,
      "velocity": 108,
      "chip": "ym2612"
    },
    {
      "channel": 4,
      "note": 80,
      "start": 41.5855,
      "duration": 0.0147,
      "velocity": 98,
      "chip": "ym2612"
    },
    {
      "channel": 3,
      "note": 83,
      "start": 41.5868,
      "duration": 0.0151,
      "velocity": 98,
      "chip": "ym2612"
    },
    {
      "channel": 2,
      "note": 52,
      "start": 41.588,
      "duration": 0.0152,
      "velocity": 93,
      "chip": "ym2612"
    },
    {
      "channel": 1,
      "note": 76,
      "start": 41.5893,
      "duration": 0.0151,
      "velocity": 108,
      "chip": "ym2612"
    },
    {
      "channel": 5,
      "note": 76,
      "start": 41.599,
      "duration": 0.0153,
      "velocity": 108,
      "chip": "ym2612"
    },
    {
      "channel": 4,
      "note": 80,
      "start": 41.6002,
      "duration": 0.0153,
      "velocity": 98,
      "chip": "ym2612"
    },
    {
      "channel": 3,
      "note": 83,
      "start": 41.602,
      "duration": 0.0148,
      "velocity": 98,
      "chip": "ym2612"
    },
    {
      "channel": 2,
      "note": 52,
      "start": 41.6032,
      "duration": 0.0153,
      "velocity": 93,
      "chip": "ym2612"
    },
    {
      "channel": 1,
      "note": 76,
      "start": 41.6044,
      "duration": 0.0154,
      "velocity": 108,
      "chip": "ym2612"
    },
    {
      "channel": 5,
      "note": 76,
      "start": 41.6143,
      "duration": 0.016,
      "velocity": 108,
      "chip": "ym2612"
    },
    {
      "channel": 4,
      "note": 80,
      "start": 41.6155,
      "duration": 0.016,
      "velocity": 98,
      "chip": "ym2612"
    },
    {
      "channel": 3,
      "note": 83,
      "start": 41.6168,
      "duration": 0.0159,
      "velocity": 98,
      "chip": "ym2612"
    },
    {
      "channel": 2,
      "note": 52,
      "start": 41.6185,
      "duration": 0.0153,
      "velocity": 93,
      "chip": "ym2612"
    },
    {
      "channel": 1,
      "note": 76,
      "start": 41.6198,
      "duration": 0.0159,
      "velocity": 108,
      "chip": "ym2612"
    },
    {
      "channel": 5,
      "note": 76,
      "start": 41.6303,
      "duration": 0.0161,
      "velocity": 108,
      "chip": "ym2612"
    },
    {
      "channel": 4,
      "note": 80,
      "start": 41.6315,
      "duration": 0.0162,
      "velocity": 98,
      "chip": "ym2612"
    },
    {
      "channel": 3,
      "note": 83,
      "start": 41.6327,
      "duration": 0.0161,
      "velocity": 98,
      "chip": "ym2612"
    },
    {
      "channel": 2,
      "note": 52,
      "start": 41.6339,
      "duration": 0.0162,
      "velocity": 93,
      "chip": "ym2612"
    },
    {
      "channel": 1,
      "note": 76,
      "start": 41.6357,
      "duration": 0.016,
      "velocity": 108,
      "chip": "ym2612"
    },
    {
      "channel": 5,
      "note": 76,
      "start": 41.6465,
      "duration": 0.016,
      "velocity": 108,
      "chip": "ym2612"
    },
    {
      "channel": 4,
      "note": 80,
      "start": 41.6477,
      "duration": 0.016,
      "velocity": 98,
      "chip": "ym2612"
    },
    {
      "channel": 3,
      "note": 83,
      "start": 41.6488,
      "duration": 0.016,
      "velocity": 98,
      "chip": "ym2612"
    },
    {
      "channel": 2,
      "note": 52,
      "start": 41.65,
      "duration": 0.016,
      "velocity": 93,
      "chip": "ym2612"
    },
    {
      "channel": 1,
      "note": 76,
      "start": 41.6517,
      "duration": 0.0155,
      "velocity": 108,
      "chip": "ym2612"
    },
    {
      "channel": 5,
      "note": 76,
      "start": 41.6625,
      "duration": 0.0161,
      "velocity": 108,
      "chip": "ym2612"
    },
    {
      "channel": 4,
      "note": 80,
      "start": 41.6637,
      "duration": 0.0161,
      "velocity": 98,
      "chip": "ym2612"
    },
    {
      "channel": 3,
      "note": 83,
      "start": 41.6649,
      "duration": 0.0161,
      "velocity": 98,
      "chip": "ym2612"
    },
    {
      "channel": 2,
      "note": 52,
      "start": 41.6661,
      "duration": 0.0161,
      "velocity": 93,
      "chip": "ym2612"
    },
    {
      "channel": 1,
      "note": 76,
      "start": 41.6672,
      "duration": 0.0161,
      "velocity": 108,
      "chip": "ym2612"
    },
    {
      "channel": 5,
      "note": 76,
      "start": 41.6786,
      "duration": 0.0161,
      "velocity": 108,
      "chip": "ym2612"
    },
    {
      "channel": 4,
      "note": 80,
      "start": 41.6798,
      "duration": 0.0162,
      "velocity": 98,
      "chip": "ym2612"
    },
    {
      "channel": 3,
      "note": 83,
      "start": 41.681,
      "duration": 0.0162,
      "velocity": 98,
      "chip": "ym2612"
    },
    {
      "channel": 2,
      "note": 52,
      "start": 41.6822,
      "duration": 0.0163,
      "velocity": 93,
      "chip": "ym2612"
    },
    {
      "channel": 1,
      "note": 76,
      "start": 41.6833,
      "duration": 0.0163,
      "velocity": 108,
      "chip": "ym2612"
    },
    {
      "channel": 5,
      "note": 76,
      "start": 41.6947,
      "duration": 0.0161,
      "velocity": 108,
      "chip": "ym2612"
    },
    {
      "channel": 4,
      "note": 80,
      "start": 41.696,
      "duration": 0.0161,
      "velocity": 98,
      "chip": "ym2612"
    },
    {
      "channel": 3,
      "note": 83,
      "start": 41.6972,
      "duration": 0.0162,
      "velocity": 98,
      "chip": "ym2612"
    },
    {
      "channel": 2,
      "note": 52,
      "start": 41.6984,
      "duration": 0.0162,
      "velocity": 93,
      "chip": "ym2612"
    },
    {
      "channel": 1,
      "note": 76,
      "start": 41.6997,
      "duration": 0.0162,
      "velocity": 108,
      "chip": "ym2612"
    },
    {
      "channel": 5,
      "note": 76,
      "start": 41.7108,
      "duration": 0.0197,
      "velocity": 108,
      "chip": "ym2612"
    },
    {
      "channel": 2,
      "note": 52,
      "start": 41.7146,
      "duration": 0.0212,
      "velocity": 93,
      "chip": "ym2612"
    },
    {
      "channel": 0,
      "note": 36,
      "start": 41.7292,
      "duration": 0.0143,
      "velocity": 115,
      "chip": "ym2612"
    },
    {
      "channel": 5,
      "note": 76,
      "start": 41.7305,
      "duration": 0.0143,
      "velocity": 108,
      "chip": "ym2612"
    },
    {
      "channel": 4,
      "note": 80,
      "start": 41.7321,
      "duration": 0.014,
      "velocity": 98,
      "chip": "ym2612"
    },
    {
      "channel": 3,
      "note": 83,
      "start": 41.7337,
      "duration": 0.0136,
      "velocity": 98,
      "chip": "ym2612"
    },
    {
      "channel": 2,
      "note": 56,
      "start": 41.7359,
      "duration": 0.0127,
      "velocity": 93,
      "chip": "ym2612"
    },
    {
      "channel": 1,
      "note": 75,
      "start": 41.7373,
      "duration": 0.0125,
      "velocity": 108,
      "chip": "ym2612"
    },
    {
      "channel": 0,
      "note": 36,
      "start": 41.7435,
      "duration": 0.016,
      "velocity": 115,
      "chip": "ym2612"
    },
    {
      "channel": 4,
      "note": 80,
      "start": 41.7461,
      "duration": 0.0161,
      "velocity": 98,
      "chip": "ym2612"
    },
    {
      "channel": 3,
      "note": 83,
      "start": 41.7473,
      "duration": 0.0161,
      "velocity": 98,
      "chip": "ym2612"
    },
    {
      "channel": 2,
      "note": 56,
      "start": 41.7485,
      "duration": 0.0161,
      "velocity": 93,
      "chip": "ym2612"
    },
    {
      "channel": 1,
      "note": 75,
      "start": 41.7498,
      "duration": 0.016,
      "velocity": 108,
      "chip": "ym2612"
    },
    {
      "channel": 0,
      "note": 37,
      "start": 41.7596,
      "duration": 0.0161,
      "velocity": 115,
      "chip": "ym2612"
    },
    {
      "channel": 5,
      "note": 75,
      "start": 41.761,
      "duration": 0.0159,
      "velocity": 108,
      "chip": "ym2612"
    },
    {
      "channel": 4,
      "note": 80,
      "start": 41.7622,
      "duration": 0.0159,
      "velocity": 98,
      "chip": "ym2612"
    },
    {
      "channel": 3,
      "note": 83,
      "start": 41.7634,
      "duration": 0.0159,
      "velocity": 98,
      "chip": "ym2612"
    },
    {
      "channel": 2,
      "note": 56,
      "start": 41.7646,
      "duration": 0.0158,
      "velocity": 93,
      "chip": "ym2612"
    },
    {
      "channel": 1,
      "note": 75,
      "start": 41.7657,
      "duration": 0.0159,
      "velocity": 108,
      "chip": "ym2612"
    },
    {
      "channel": 0,
      "note": 37,
      "start": 41.7757,
      "duration": 0.0161,
      "velocity": 115,
      "chip": "ym2612"
    },
    {
      "channel": 5,
      "note": 75,
      "start": 41.7769,
      "duration": 0.016,
      "velocity": 108,
      "chip": "ym2612"
    },
    {
      "channel": 4,
      "note": 80,
      "start": 41.7781,
      "duration": 0.016,
      "velocity": 98,
      "chip": "ym2612"
    },
    {
      "channel": 3,
      "note": 83,
      "start": 41.7793,
      "duration": 0.016,
      "velocity": 98,
      "chip": "ym2612"
    },
    {
      "channel": 2,
      "note": 56,
      "start": 41.7804,
      "duration": 0.016,
      "velocity": 93,
      "chip": "ym2612"
    },
    {
      "channel": 1,
      "note": 75,
      "start": 41.7816,
      "duration": 0.016,
      "velocity": 108,
      "chip": "ym2612"
    },
    {
      "channel": 0,
      "note": 38,
      "start": 41.7918,
      "duration": 0.0161,
      "velocity": 115,
      "chip": "ym2612"
    },
    {
      "channel": 5,
      "note": 75,
      "start": 41.793,
      "duration": 0.0161,
      "velocity": 108,
      "chip": "ym2612"
    },
    {
      "channel": 4,
      "note": 80,
      "start": 41.7941,
      "duration": 0.0161,
      "velocity": 98,
      "chip": "ym2612"
    },
    {
      "channel": 3,
      "note": 83,
      "start": 41.7953,
      "duration": 0.0161,
      "velocity": 98,
      "chip": "ym2612"
    },
    {
      "channel": 2,
      "note": 56,
      "start": 41.7965,
      "duration": 0.0161,
      "velocity": 93,
      "chip": "ym2612"
    },
    {
      "channel": 1,
      "note": 75,
      "start": 41.7976,
      "duration": 0.0161,
      "velocity": 108,
      "chip": "ym2612"
    },
    {
      "channel": 0,
      "note": 38,
      "start": 41.8079,
      "duration": 0.0161,
      "velocity": 115,
      "chip": "ym2612"
    },
    {
      "channel": 5,
      "note": 75,
      "start": 41.8091,
      "duration": 0.0161,
      "velocity": 108,
      "chip": "ym2612"
    },
    {
      "channel": 4,
      "note": 80,
      "start": 41.8102,
      "duration": 0.0162,
      "velocity": 98,
      "chip": "ym2612"
    },
    {
      "channel": 3,
      "note": 83,
      "start": 41.8114,
      "duration": 0.0161,
      "velocity": 98,
      "chip": "ym2612"
    },
    {
      "channel": 2,
      "note": 56,
      "start": 41.8126,
      "duration": 0.0162,
      "velocity": 93,
      "chip": "ym2612"
    },
    {
      "channel": 1,
      "note": 75,
      "start": 41.8137,
      "duration": 0.0161,
      "velocity": 108,
      "chip": "ym2612"
    },
    {
      "channel": 0,
      "note": 39,
      "start": 41.824,
      "duration": 0.0161,
      "velocity": 115,
      "chip": "ym2612"
    },
    {
      "channel": 5,
      "note": 75,
      "start": 41.8252,
      "duration": 0.0161,
      "velocity": 108,
      "chip": "ym2612"
    },
    {
      "channel": 4,
      "note": 80,
      "start": 41.8264,
      "duration": 0.0161,
      "velocity": 98,
      "chip": "ym2612"
    },
    {
      "channel": 3,
      "note": 83,
      "start": 41.8275,
      "duration": 0.0162,
      "velocity": 98,
      "chip": "ym2612"
    },
    {
      "channel": 2,
      "note": 56,
      "start": 41.8287,
      "duration": 0.0161,
      "velocity": 93,
      "chip": "ym2612"
    },
    {
      "channel": 1,
      "note": 75,
      "start": 41.8299,
      "duration": 0.0161,
      "velocity": 108,
      "chip": "ym2612"
    },
    {
      "channel": 0,
      "note": 39,
      "start": 41.8401,
      "duration": 0.0161,
      "velocity": 115,
      "chip": "ym2612"
    },
    {
      "channel": 5,
      "note": 75,
      "start": 41.8412,
      "duration": 0.0161,
      "velocity": 108,
      "chip": "ym2612"
    },
    {
      "channel": 4,
      "note": 80,
      "start": 41.8425,
      "duration": 0.0161,
      "velocity": 98,
      "chip": "ym2612"
    },
    {
      "channel": 3,
      "note": 83,
      "start": 41.8437,
      "duration": 0.016,
      "velocity": 98,
      "chip": "ym2612"
    },
    {
      "channel": 2,
      "note": 56,
      "start": 41.8448,
      "duration": 0.0161,
      "velocity": 93,
      "chip": "ym2612"
    },
    {
      "channel": 1,
      "note": 75,
      "start": 41.846,
      "duration": 0.0161,
      "velocity": 108,
      "chip": "ym2612"
    },
    {
      "channel": 0,
      "note": 40,
      "start": 41.8562,
      "duration": 0.0161,
      "velocity": 115,
      "chip": "ym2612"
    },
    {
      "channel": 5,
      "note": 75,
      "start": 41.8573,
      "duration": 0.0162,
      "velocity": 108,
      "chip": "ym2612"
    },
    {
      "channel": 4,
      "note": 80,
      "start": 41.8585,
      "duration": 0.0162,
      "velocity": 98,
      "chip": "ym2612"
    },
    {
      "channel": 3,
      "note": 83,
      "start": 41.8597,
      "duration": 0.0163,
      "velocity": 98,
      "chip": "ym2612"
    },
    {
      "channel": 2,
      "note": 56,
      "start": 41.8609,
      "duration": 0.0163,
      "velocity": 93,
      "chip": "ym2612"
    },
    {
      "channel": 1,
      "note": 75,
      "start": 41.8621,
      "duration": 0.0164,
      "velocity": 108,
      "chip": "ym2612"
    },
    {
      "channel": 0,
      "note": 40,
      "start": 41.8723,
      "duration": 0.0161,
      "velocity": 115,
      "chip": "ym2612"
    },
    {
      "channel": 5,
      "note": 75,
      "start": 41.8735,
      "duration": 0.0161,
      "velocity": 108,
      "chip": "ym2612"
    },
    {
      "channel": 4,
      "note": 80,
      "start": 41.8748,
      "duration": 0.016,
      "velocity": 98,
      "chip": "ym2612"
    },
    {
      "channel": 3,
      "note": 83,
      "start": 41.8761,
      "duration": 0.016,
      "velocity": 98,
      "chip": "ym2612"
    },
    {
      "channel": 2,
      "note": 56,
      "start": 41.8773,
      "duration": 0.016,
      "velocity": 93,
      "chip": "ym2612"
    },
    {
      "channel": 1,
      "note": 75,
      "start": 41.8785,
      "duration": 0.016,
      "velocity": 108,
      "chip": "ym2612"
    },
    {
      "channel": 0,
      "note": 40,
      "start": 41.8884,
      "duration": 0.0161,
      "velocity": 115,
      "chip": "ym2612"
    },
    {
      "channel": 5,
      "note": 75,
      "start": 41.8896,
      "duration": 0.0162,
      "velocity": 108,
      "chip": "ym2612"
    },
    {
      "channel": 4,
      "note": 80,
      "start": 41.8908,
      "duration": 0.0162,
      "velocity": 98,
      "chip": "ym2612"
    },
    {
      "channel": 3,
      "note": 83,
      "start": 41.8921,
      "duration": 0.0161,
      "velocity": 98,
      "chip": "ym2612"
    },
    {
      "channel": 2,
      "note": 56,
      "start": 41.8933,
      "duration": 0.0162,
      "velocity": 93,
      "chip": "ym2612"
    },
    {
      "channel": 1,
      "note": 75,
      "start": 41.8945,
      "duration": 0.0162,
      "velocity": 108,
      "chip": "ym2612"
    },
    {
      "channel": 0,
      "note": 41,
      "start": 41.9045,
      "duration": 0.0161,
      "velocity": 115,
      "chip": "ym2612"
    },
    {
      "channel": 5,
      "note": 75,
      "start": 41.9058,
      "duration": 0.0161,
      "velocity": 108,
      "chip": "ym2612"
    },
    {
      "channel": 4,
      "note": 80,
      "start": 41.907,
      "duration": 0.016,
      "velocity": 98,
      "chip": "ym2612"
    },
    {
      "channel": 3,
      "note": 83,
      "start": 41.9082,
      "duration": 0.016,
      "velocity": 98,
      "chip": "ym2612"
    },
    {
      "channel": 2,
      "note": 56,
      "start": 41.9095,
      "duration": 0.0159,
      "velocity": 93,
      "chip": "ym2612"
    },
    {
      "channel": 1,
      "note": 75,
      "start": 41.9107,
      "duration": 0.0159,
      "velocity": 108,
      "chip": "ym2612"
    },
    {
      "channel": 0,
      "note": 41,
      "start": 41.9206,
      "duration": 0.0162,
      "velocity": 115,
      "chip": "ym2612"
    },
    {
      "channel": 5,
      "note": 75,
      "start": 41.9219,
      "duration": 0.0162,
      "velocity": 108,
      "chip": "ym2612"
    },
    {
      "channel": 4,
      "note": 80,
      "start": 41.9231,
      "duration": 0.0162,
      "velocity": 98,
      "chip": "ym2612"
    },
    {
      "channel": 3,
      "note": 83,
      "start": 41.9243,
      "duration": 0.0162,
      "velocity": 98,
      "chip": "ym2612"
    },
    {
      "channel": 2,
      "note": 56,
      "start": 41.9254,
      "duration": 0.0162,
      "velocity": 93,
      "chip": "ym2612"
    },
    {
      "channel": 1,
      "note": 75,
      "start": 41.9266,
      "duration": 0.0162,
      "velocity": 108,
      "chip": "ym2612"
    },
    {
      "channel": 0,
      "note": 42,
      "start": 41.9369,
      "duration": 0.0163,
      "velocity": 115,
      "chip": "ym2612"
    },
    {
      "channel": 5,
      "note": 75,
      "start": 41.9381,
      "duration": 0.0163,
      "velocity": 108,
      "chip": "ym2612"
    },
    {
      "channel": 4,
      "note": 80,
      "start": 41.9393,
      "duration": 0.0163,
      "velocity": 98,
      "chip": "ym2612"
    },
    {
      "channel": 3,
      "note": 83,
      "start": 41.9404,
      "duration": 0.0163,
      "velocity": 98,
      "chip": "ym2612"
    },
    {
      "channel": 2,
      "note": 56,
      "start": 41.9416,
      "duration": 0.0163,
      "velocity": 93,
      "chip": "ym2612"
    },
    {
      "channel": 1,
      "note": 75,
      "start": 41.9428,
      "duration": 0.0163,
      "velocity": 108,
      "chip": "ym2612"
    },
    {
      "channel": 0,
      "note": 42,
      "start": 41.9532,
      "duration": 0.0163,
      "velocity": 115,
      "chip": "ym2612"
    },
    {
      "channel": 5,
      "note": 75,
      "start": 41.9544,
      "duration": 0.0163,
      "velocity": 108,
      "chip": "ym2612"
    },
    {
      "channel": 4,
      "note": 80,
      "start": 41.9556,
      "duration": 0.0163,
      "velocity": 98,
      "chip": "ym2612"
    },
    {
      "channel": 3,
      "note": 83,
      "start": 41.9567,
      "duration": 0.0163,
      "velocity": 98,
      "chip": "ym2612"
    },
    {
      "channel": 2,
      "note": 56,
      "start": 41.9579,
      "duration": 0.0163,
      "velocity": 93,
      "chip": "ym2612"
    },
    {
      "channel": 1,
      "note": 75,
      "start": 41.9591,
      "duration": 0.0163,
      "velocity": 108,
      "chip": "ym2612"
    },
    {
      "channel": 0,
      "note": 43,
      "start": 41.9695,
      "duration": 0.016,
      "velocity": 115,
      "chip": "ym2612"
    },
    {
      "channel": 5,
      "note": 75,
      "start": 41.9706,
      "duration": 0.0162,
      "velocity": 108,
      "chip": "ym2612"
    },
    {
      "channel": 4,
      "note": 80,
      "start": 41.9719,
      "duration": 0.0162,
      "velocity": 98,
      "chip": "ym2612"
    },
    {
      "channel": 3,
      "note": 83,
      "start": 41.9731,
      "duration": 0.0162,
      "velocity": 98,
      "chip": "ym2612"
    },
    {
      "channel": 2,
      "note": 56,
      "start": 41.9742,
      "duration": 0.0163,
      "velocity": 93,
      "chip": "ym2612"
    },
    {
      "channel": 1,
      "note": 75,
      "start": 41.9754,
      "duration": 0.0163,
      "velocity": 108,
      "chip": "ym2612"
    },
    {
      "channel": 0,
      "note": 43,
      "start": 41.9855,
      "duration": 0.0161,
      "velocity": 115,
      "chip": "ym2612"
    },
    {
      "channel": 5,
      "note": 75,
      "start": 41.9868,
      "duration": 0.0161,
      "velocity": 108,
      "chip": "ym2612"
    },
    {
      "channel": 4,
      "note": 80,
      "start": 41.9881,
      "duration": 0.0161,
      "velocity": 98,
      "chip": "ym2612"
    },
    {
      "channel": 3,
      "note": 83,
      "start": 41.9893,
      "duration": 0.0162,
      "velocity": 98,
      "chip": "ym2612"
    },
    {
      "channel": 2,
      "note": 56,
      "start": 41.9906,
      "duration": 0.0161,
      "velocity": 93,
      "chip": "ym2612"
    },
    {
      "channel": 1,
      "note": 75,
      "start": 41.9918,
      "duration": 0.0162,
      "velocity": 108,
      "chip": "ym2612"
    },
    {
      "channel": 0,
      "note": 44,
      "start": 42.0016,
      "duration": 0.018,
      "velocity": 124,
      "chip": "ym2612"
    },
    {
      "channel": 5,
      "note": 75,
      "start": 42.0029,
      "duration": 0.018,
      "velocity": 108,
      "chip": "ym2612"
    },
    {
      "channel": 2,
      "note": 56,
      "start": 42.0067,
      "duration": 0.0186,
      "velocity": 93,
      "chip": "ym2612"
    },
    {
      "channel": 0,
      "note": 84,
      "start": 42.0196,
      "duration": 0.0137,
      "velocity": 124,
      "chip": "ym2612"
    },
    {
      "channel": 5,
      "note": 75,
      "start": 42.0209,
      "duration": 0.0143,
      "velocity": 108,
      "chip": "ym2612"
    },
    {
      "channel": 4,
      "note": 80,
      "start": 42.0224,
      "duration": 0.0141,
      "velocity": 98,
      "chip": "ym2612"
    },
    {
      "channel": 3,
      "note": 83,
      "start": 42.0238,
      "duration": 0.0139,
      "velocity": 98,
      "chip": "ym2612"
    },
    {
      "channel": 2,
      "note": 56,
      "start": 42.0254,
      "duration": 0.0136,
      "velocity": 93,
      "chip": "ym2612"
    },
    {
      "channel": 1,
      "note": 75,
      "start": 42.0268,
      "duration": 0.0134,
      "velocity": 108,
      "chip": "ym2612"
    },
    {
      "channel": 0,
      "note": 82,
      "start": 42.0334,
      "duration": 0.016,
      "velocity": 124,
      "chip": "ym2612"
    },
    {
      "channel": 4,
      "note": 80,
      "start": 42.0365,
      "duration": 0.0162,
      "velocity": 98,
      "chip": "ym2612"
    },
    {
      "channel": 3,
      "note": 83,
      "start": 42.0378,
      "duration": 0.0161,
      "velocity": 98,
      "chip": "ym2612"
    },
    {
      "channel": 2,
      "note": 56,
      "start": 42.039,
      "duration": 0.016,
      "velocity": 93,
      "chip": "ym2612"
    },
    {
      "channel": 1,
      "note": 75,
      "start": 42.0402,
      "duration": 0.016,
      "velocity": 108,
      "chip": "ym2612"
    },
    {
      "channel": 0,
      "note": 80,
      "start": 42.0494,
      "duration": 0.0162,
      "velocity": 124,
      "chip": "ym2612"
    },
    {
      "channel": 5,
      "note": 75,
      "start": 42.0514,
      "duration": 0.0153,
      "velocity": 108,
      "chip": "ym2612"
    },
    {
      "channel": 4,
      "note": 80,
      "start": 42.0527,
      "duration": 0.0158,
      "velocity": 98,
      "chip": "ym2612"
    },
    {
      "channel": 3,
      "note": 83,
      "start": 42.0539,
      "duration": 0.0158,
      "velocity": 98,
      "chip": "ym2612"
    },
    {
      "channel": 2,
      "note": 56,
      "start": 42.055,
      "duration": 0.0159,
      "velocity": 93,
      "chip": "ym2612"
    },
    {
      "channel": 1,
      "note": 75,
      "start": 42.0561,
      "duration": 0.0159,
      "velocity": 108,
      "chip": "ym2612"
    },
    {
      "channel": 0,
      "note": 77,
      "start": 42.0656,
      "duration": 0.0161,
      "velocity": 124,
      "chip": "ym2612"
    },
    {
      "channel": 5,
      "note": 75,
      "start": 42.0668,
      "duration": 0.016,
      "velocity": 108,
      "chip": "ym2612"
    },
    {
      "channel": 4,
      "note": 80,
      "start": 42.0685,
      "duration": 0.0157,
      "velocity": 98,
      "chip": "ym2612"
    },
    {
      "channel": 3,
      "note": 83,
      "start": 42.0697,
      "duration": 0.016,
      "velocity": 98,
      "chip": "ym2612"
    },
    {
      "channel": 2,
      "note": 56,
      "start": 42.0708,
      "duration": 0.016,
      "velocity": 93,
      "chip": "ym2612"
    },
    {
      "channel": 1,
      "note": 75,
      "start": 42.072,
      "duration": 0.016,
      "velocity": 108,
      "chip": "ym2612"
    },
    {
      "channel": 0,
      "note": 75,
      "start": 42.0817,
      "duration": 0.0161,
      "velocity": 124,
      "chip": "ym2612"
    },
    {
      "channel": 5,
      "note": 75,
      "start": 42.0828,
      "duration": 0.0161,
      "velocity": 108,
      "chip": "ym2612"
    },
    {
      "channel": 4,
      "note": 80,
      "start": 42.0842,
      "duration": 0.0159,
      "velocity": 98,
      "chip": "ym2612"
    },
    {
      "channel": 3,
      "note": 83,
      "start": 42.0857,
      "duration": 0.016,
      "velocity": 98,
      "chip": "ym2612"
    },
    {
      "channel": 2,
      "note": 56,
      "start": 42.0869,
      "duration": 0.0161,
      "velocity": 93,
      "chip": "ym2612"
    },
    {
      "channel": 1,
      "note": 75,
      "start": 42.0881,
      "duration": 0.0161,
      "velocity": 108,
      "chip": "ym2612"
    },
    {
      "channel": 0,
      "note": 72,
      "start": 42.0978,
      "duration": 0.0161,
      "velocity": 124,
      "chip": "ym2612"
    },
    {
      "channel": 5,
      "note": 75,
      "start": 42.0989,
      "duration": 0.0161,
      "velocity": 108,
      "chip": "ym2612"
    },
    {
      "channel": 4,
      "note": 80,
      "start": 42.1,
      "duration": 0.0161,
      "velocity": 98,
      "chip": "ym2612"
    },
    {
      "channel": 3,
      "note": 83,
      "start": 42.1017,
      "duration": 0.0159,
      "velocity": 98,
      "chip": "ym2612"
    },
    {
      "channel": 2,
      "note": 56,
      "start": 42.103,
      "duration": 0.0161,
      "velocity": 93,
      "chip": "ym2612"
    },
    {
      "channel": 1,
      "note": 75,
      "start": 42.1042,
      "duration": 0.0161,
      "velocity": 108,
      "chip": "ym2612"
    },
    {
      "channel": 0,
      "note": 70,
      "start": 42.1138,
      "duration": 0.0161,
      "velocity": 124,
      "chip": "ym2612"
    },
    {
      "channel": 5,
      "note": 75,
      "start": 42.115,
      "duration": 0.0161,
      "velocity": 108,
      "chip": "ym2612"
    },
    {
      "channel": 4,
      "note": 80,
      "start": 42.1162,
      "duration": 0.0161,
      "velocity": 98,
      "chip": "ym2612"
    },
    {
      "channel": 3,
      "note": 83,
      "start": 42.1176,
      "duration": 0.0158,
      "velocity": 98,
      "chip": "ym2612"
    },
    {
      "channel": 2,
      "note": 56,
      "start": 42.1191,
      "duration": 0.016,
      "velocity": 93,
      "chip": "ym2612"
    },
    {
      "channel": 1,
      "note": 75,
      "start": 42.1203,
      "duration": 0.0161,
      "velocity": 108,
      "chip": "ym2612"
    },
    {
      "channel": 0,
      "note": 68,
      "start": 42.1299,
      "duration": 0.0161,
      "velocity": 124,
      "chip": "ym2612"
    },
    {
      "channel": 5,
      "note": 75,
      "start": 42.1311,
      "duration": 0.0161,
      "velocity": 108,
      "chip": "ym2612"
    },
    {
      "channel": 4,
      "note": 80,
      "start": 42.1323,
      "duration": 0.0161,
      "velocity": 98,
      "chip": "ym2612"
    },
    {
      "channel": 3,
      "note": 83,
      "start": 42.1334,
      "duration": 0.0161,
      "velocity": 98,
      "chip": "ym2612"
    },
    {
      "channel": 2,
      "note": 56,
      "start": 42.1351,
      "duration": 0.0158,
      "velocity": 93,
      "chip": "ym2612"
    },
    {
      "channel": 1,
      "note": 75,
      "start": 42.1363,
      "duration": 0.0162,
      "velocity": 108,
      "chip": "ym2612"
    },
    {
      "channel": 0,
      "note": 65,
      "start": 42.146,
      "duration": 0.0161,
      "velocity": 124,
      "chip": "ym2612"
    },
    {
      "channel": 5,
      "note": 75,
      "start": 42.1472,
      "duration": 0.0161,
      "velocity": 108,
      "chip": "ym2612"
    },
    {
      "channel": 4,
      "note": 80,
      "start": 42.1484,
      "duration": 0.0161,
      "velocity": 98,
      "chip": "ym2612"
    },
    {
      "channel": 3,
      "note": 83,
      "start": 42.1495,
      "duration": 0.0163,
      "velocity": 98,
      "chip": "ym2612"
    },
    {
      "channel": 2,
      "note": 56,
      "start": 42.1509,
      "duration": 0.0161,
      "velocity": 93,
      "chip": "ym2612"
    },
    {
      "channel": 1,
      "note": 75,
      "start": 42.1525,
      "duration": 0.0163,
      "velocity": 108,
      "chip": "ym2612"
    },
    {
      "channel": 0,
      "note": 63,
      "start": 42.1621,
      "duration": 0.0153,
      "velocity": 1,
      "chip": "ym2612"
    },
    {
      "channel": 5,
      "note": 75,
      "start": 42.1633,
      "duration": 0.0153,
      "velocity": 108,
      "chip": "ym2612"
    },
    {
      "channel": 4,
      "note": 80,
      "start": 42.1645,
      "duration": 0.0153,
      "velocity": 98,
      "chip": "ym2612"
    },
    {
      "channel": 3,
      "note": 83,
      "start": 42.1658,
      "duration": 0.0153,
      "velocity": 98,
      "chip": "ym2612"
    },
    {
      "channel": 2,
      "note": 56,
      "start": 42.167,
      "duration": 0.0153,
      "velocity": 93,
      "chip": "ym2612"
    },
    {
      "channel": 1,
      "note": 75,
      "start": 42.1689,
      "duration": 0.0146,
      "velocity": 108,
      "chip": "ym2612"
    },
    {
      "channel": 5,
      "note": 75,
      "start": 42.1786,
      "duration": 0.0153,
      "velocity": 108,
      "chip": "ym2612"
    },
    {
      "channel": 4,
      "note": 80,
      "start": 42.1798,
      "duration": 0.0154,
      "velocity": 98,
      "chip": "ym2612"
    },
    {
      "channel": 3,
      "note": 83,
      "start": 42.1811,
      "duration": 0.0153,
      "velocity": 98,
      "chip": "ym2612"
    },
    {
      "channel": 2,
      "note": 56,
      "start": 42.1823,
      "duration": 0.0153,
      "velocity": 93,
      "chip": "ym2612"
    },
    {
      "channel": 1,
      "note": 75,
      "start": 42.1835,
      "duration": 0.0153,
      "velocity": 108,
      "chip": "ym2612"
    },
    {
      "channel": 5,
      "note": 75,
      "start": 42.1939,
      "duration": 0.0161,
      "velocity": 108,
      "chip": "ym2612"
    },
    {
      "channel": 4,
      "note": 80,
      "start": 42.1951,
      "duration": 0.016,
      "velocity": 98,
      "chip": "ym2612"
    },
    {
      "channel": 3,
      "note": 83,
      "start": 42.1964,
      "duration": 0.0159,
      "velocity": 98,
      "chip": "ym2612"
    },
    {
      "channel": 2,
      "note": 56,
      "start": 42.1976,
      "duration": 0.0159,
      "velocity": 93,
      "chip": "ym2612"
    },
    {
      "channel": 1,
      "note": 75,
      "start": 42.1988,
      "duration": 0.0159,
      "velocity": 108,
      "chip": "ym2612"
    },
    {
      "channel": 5,
      "note": 75,
      "start": 42.21,
      "duration": 0.0161,
      "velocity": 108,
      "chip": "ym2612"
    },
    {
      "channel": 4,
      "note": 80,
      "start": 42.2112,
      "duration": 0.0161,
      "velocity": 98,
      "chip": "ym2612"
    },
    {
      "channel": 3,
      "note": 83,
      "start": 42.2123,
      "duration": 0.0162,
      "velocity": 98,
      "chip": "ym2612"
    },
    {
      "channel": 2,
      "note": 56,
      "start": 42.2135,
      "duration": 0.0161,
      "velocity": 93,
      "chip": "ym2612"
    },
    {
      "channel": 1,
      "note": 75,
      "start": 42.2147,
      "duration": 0.0161,
      "velocity": 108,
      "chip": "ym2612"
    },
    {
      "channel": 5,
      "note": 75,
      "start": 42.2261,
      "duration": 0.0161,
      "velocity": 108,
      "chip": "ym2612"
    },
    {
      "channel": 4,
      "note": 80,
      "start": 42.2273,
      "duration": 0.0161,
      "velocity": 98,
      "chip": "ym2612"
    },
    {
      "channel": 3,
      "note": 83,
      "start": 42.2285,
      "duration": 0.016,
      "velocity": 98,
      "chip": "ym2612"
    },
    {
      "channel": 2,
      "note": 56,
      "start": 42.2296,
      "duration": 0.0161,
      "velocity": 93,
      "chip": "ym2612"
    },
    {
      "channel": 1,
      "note": 75,
      "start": 42.2308,
      "duration": 0.016,
      "velocity": 108,
      "chip": "ym2612"
    },
    {
      "channel": 5,
      "note": 75,
      "start": 42.2422,
      "duration": 0.0161,
      "velocity": 108,
      "chip": "ym2612"
    },
    {
      "channel": 4,
      "note": 80,
      "start": 42.2434,
      "duration": 0.0161,
      "velocity": 98,
      "chip": "ym2612"
    },
    {
      "channel": 3,
      "note": 83,
      "start": 42.2445,
      "duration": 0.0161,
      "velocity": 98,
      "chip": "ym2612"
    },
    {
      "channel": 2,
      "note": 56,
      "start": 42.2457,
      "duration": 0.0161,
      "velocity": 93,
      "chip": "ym2612"
    },
    {
      "channel": 1,
      "note": 75,
      "start": 42.2468,
      "duration": 0.0161,
      "velocity": 108,
      "chip": "ym2612"
    },
    {
      "channel": 5,
      "note": 75,
      "start": 42.2582,
      "duration": 0.0161,
      "velocity": 108,
      "chip": "ym2612"
    },
    {
      "channel": 4,
      "note": 80,
      "start": 42.2595,
      "duration": 0.0161,
      "velocity": 98,
      "chip": "ym2612"
    },
    {
      "channel": 3,
      "note": 83,
      "start": 42.2606,
      "duration": 0.0162,
      "velocity": 98,
      "chip": "ym2612"
    },
    {
      "channel": 2,
      "note": 56,
      "start": 42.2618,
      "duration": 0.0163,
      "velocity": 93,
      "chip": "ym2612"
    },
    {
      "channel": 1,
      "note": 75,
      "start": 42.2629,
      "duration": 0.0163,
      "velocity": 108,
      "chip": "ym2612"
    },
    {
      "channel": 5,
      "note": 75,
      "start": 42.2743,
      "duration": 0.0161,
      "velocity": 108,
      "chip": "ym2612"
    },
    {
      "channel": 4,
      "note": 80,
      "start": 42.2756,
      "duration": 0.0161,
      "velocity": 98,
      "chip": "ym2612"
    },
    {
      "channel": 3,
      "note": 83,
      "start": 42.2768,
      "duration": 0.0161,
      "velocity": 98,
      "chip": "ym2612"
    },
    {
      "channel": 2,
      "note": 56,
      "start": 42.2781,
      "duration": 0.0161,
      "velocity": 93,
      "chip": "ym2612"
    },
    {
      "channel": 1,
      "note": 75,
      "start": 42.2793,
      "duration": 0.0162,
      "velocity": 108,
      "chip": "ym2612"
    },
    {
      "channel": 5,
      "note": 75,
      "start": 42.2904,
      "duration": 0.0197,
      "velocity": 108,
      "chip": "ym2612"
    },
    {
      "channel": 2,
      "note": 56,
      "start": 42.2942,
      "duration": 0.0204,
      "velocity": 93,
      "chip": "ym2612"
    },
    {
      "channel": 0,
      "note": 36,
      "start": 42.3089,
      "duration": 0.0143,
      "velocity": 115,
      "chip": "ym2612"
    },
    {
      "channel": 5,
      "note": 75,
      "start": 42.3102,
      "duration": 0.0143,
      "velocity": 108,
      "chip": "ym2612"
    },
    {
      "channel": 4,
      "note": 80,
      "start": 42.3117,
      "duration": 0.0141,
      "velocity": 98,
      "chip": "ym2612"
    },
    {
      "channel": 3,
      "note": 83,
      "start": 42.3132,
      "duration": 0.0137,
      "velocity": 98,
      "chip": "ym2612"
    },
    {
      "channel": 2,
      "note": 56,
      "start": 42.3147,
      "duration": 0.0134,
      "velocity": 93,
      "chip": "ym2612"
    },
    {
      "channel": 1,
      "note": 75,
      "start": 42.3162,
      "duration": 0.0132,
      "velocity": 108,
      "chip": "ym2612"
    },
    {
      "channel": 0,
      "note": 36,
      "start": 42.3232,
      "duration": 0.016,
      "velocity": 115,
      "chip": "ym2612"
    },
    {
      "channel": 4,
      "note": 80,
      "start": 42.3257,
      "duration": 0.0161,
      "velocity": 98,
      "chip": "ym2612"
    },
    {
      "channel": 3,
      "note": 83,
      "start": 42.3269,
      "duration": 0.0162,
      "velocity": 98,
      "chip": "ym2612"
    },
    {
      "channel": 2,
      "note": 56,
      "start": 42.3281,
      "duration": 0.0161,
      "velocity": 93,
      "chip": "ym2612"
    },
    {
      "channel": 1,
      "note": 75,
      "start": 42.3294,
      "duration": 0.016,
      "velocity": 108,
      "chip": "ym2612"
    },
    {
      "channel": 0,
      "note": 37,
      "start": 42.3392,
      "duration": 0.0161,
      "velocity": 115,
      "chip": "ym2612"
    },
    {
      "channel": 5,
      "note": 75,
      "start": 42.3407,
      "duration": 0.0158,
      "velocity": 108,
      "chip": "ym2612"
    },
    {
      "channel": 4,
      "note": 80,
      "start": 42.3419,
      "duration": 0.0159,
      "velocity": 98,
      "chip": "ym2612"
    },
    {
      "channel": 3,
      "note": 83,
      "start": 42.3431,
      "duration": 0.0158,
      "velocity": 98,
      "chip": "ym2612"
    },
    {
      "channel": 2,
      "note": 56,
      "start": 42.3442,
      "duration": 0.0159,
      "velocity": 93,
      "chip": "ym2612"
    },
    {
      "channel": 1,
      "note": 75,
      "start": 42.3454,
      "duration": 0.0158,
      "velocity": 108,
      "chip": "ym2612"
    },
    {
      "channel": 0,
      "note": 37,
      "start": 42.3553,
      "duration": 0.0161,
      "velocity": 115,
      "chip": "ym2612"
    },
    {
      "channel": 5,
      "note": 75,
      "start": 42.3566,
      "duration": 0.016,
      "velocity": 108,
      "chip": "ym2612"
    },
    {
      "channel": 4,
      "note": 80,
      "start": 42.3577,
      "duration": 0.016,
      "velocity": 98,
      "chip": "ym2612"
    },
    {
      "channel": 3,
      "note": 83,
      "start": 42.3589,
      "duration": 0.016,
      "velocity": 98,
      "chip": "ym2612"
    },
    {
      "channel": 2,
      "note": 56,
      "start": 42.3601,
      "duration": 0.016,
      "velocity": 93,
      "chip": "ym2612"
    },
    {
      "channel": 1,
      "note": 75,
      "start": 42.3612,
      "duration": 0.016,
      "velocity": 108,
      "chip": "ym2612"
    },
    {
      "channel": 0,
      "note": 38,
      "start": 42.3714,
      "duration": 0.0162,
      "velocity": 115,
      "chip": "ym2612"
    },
    {
      "channel": 5,
      "note": 75,
      "start": 42.3726,
      "duration": 0.0162,
      "velocity": 108,
      "chip": "ym2612"
    },
    {
      "channel": 4,
      "note": 80,
      "start": 42.3738,
      "duration": 0.0161,
      "velocity": 98,
      "chip": "ym2612"
    },
    {
      "channel": 3,
      "note": 83,
      "start": 42.375,
      "duration": 0.0162,
      "velocity": 98,
      "chip": "ym2612"
    },
    {
      "channel": 2,
      "note": 56,
      "start": 42.3761,
      "duration": 0.0161,
      "velocity": 93,
      "chip": "ym2612"
    },
    {
      "channel": 1,
      "note": 75,
      "start": 42.3773,
      "duration": 0.0162,
      "velocity": 108,
      "chip": "ym2612"
    },
    {
      "channel": 0,
      "note": 38,
      "start": 42.3876,
      "duration": 0.0161,
      "velocity": 115,
      "chip": "ym2612"
    },
    {
      "channel": 5,
      "note": 75,
      "start": 42.3888,
      "duration": 0.0161,
      "velocity": 108,
      "chip": "ym2612"
    },
    {
      "channel": 4,
      "note": 80,
      "start": 42.3899,
      "duration": 0.0162,
      "velocity": 98,
      "chip": "ym2612"
    },
    {
      "channel": 3,
      "note": 83,
      "start": 42.3911,
      "duration": 0.0161,
      "velocity": 98,
      "chip": "ym2612"
    },
    {
      "channel": 2,
      "note": 56,
      "start": 42.3923,
      "duration": 0.0162,
      "velocity": 93,
      "chip": "ym2612"
    },
    {
      "channel": 1,
      "note": 75,
      "start": 42.3934,
      "duration": 0.0161,
      "velocity": 108,
      "chip": "ym2612"
    },
    {
      "channel": 0,
      "note": 39,
      "start": 42.4037,
      "duration": 0.0164,
      "velocity": 115,
      "chip": "ym2612"
    },
    {
      "channel": 5,
      "note": 75,
      "start": 42.4049,
      "duration": 0.0164,
      "velocity": 108,
      "chip": "ym2612"
    },
    {
      "channel": 4,
      "note": 80,
      "start": 42.4061,
      "duration": 0.0164,
      "velocity": 98,
      "chip": "ym2612"
    },
    {
      "channel": 3,
      "note": 83,
      "start": 42.4072,
      "duration": 0.0165,
      "velocity": 98,
      "chip": "ym2612"
    },
    {
      "channel": 2,
      "note": 56,
      "start": 42.4084,
      "duration": 0.0164,
      "velocity": 93,
      "chip": "ym2612"
    },
    {
      "channel": 1,
      "note": 75,
      "start": 42.4096,
      "duration": 0.0164,
      "velocity": 108,
      "chip": "ym2612"
    },
    {
      "channel": 0,
      "note": 39,
      "start": 42.4201,
      "duration": 0.0163,
      "velocity": 115,
      "chip": "ym2612"
    },
    {
      "channel": 5,
      "note": 75,
      "start": 42.4213,
      "duration": 0.0163,
      "velocity": 108,
      "chip": "ym2612"
    },
    {
      "channel": 4,
      "note": 80,
      "start": 42.4225,
      "duration": 0.0163,
      "velocity": 98,
      "chip": "ym2612"
    },
    {
      "channel": 3,
      "note": 83,
      "start": 42.4237,
      "duration": 0.0163,
      "velocity": 98,
      "chip": "ym2612"
    },
    {
      "channel": 2,
      "note": 56,
      "start": 42.4249,
      "duration": 0.0163,
      "velocity": 93,
      "chip": "ym2612"
    },
    {
      "channel": 1,
      "note": 75,
      "start": 42.426,
      "duration": 0.0163,
      "velocity": 108,
      "chip": "ym2612"
    },
    {
      "channel": 0,
      "note": 40,
      "start": 42.4364,
      "duration": 0.0161,
      "velocity": 115,
      "chip": "ym2612"
    },
    {
      "channel": 5,
      "note": 75,
      "start": 42.4376,
      "duration": 0.0161,
      "velocity": 108,
      "chip": "ym2612"
    },
    {
      "channel": 4,
      "note": 80,
      "start": 42.4388,
      "duration": 0.0162,
      "velocity": 98,
      "chip": "ym2612"
    },
    {
      "channel": 3,
      "note": 83,
      "start": 42.44,
      "duration": 0.0163,
      "velocity": 98,
      "chip": "ym2612"
    },
    {
      "channel": 2,
      "note": 56,
      "start": 42.4411,
      "duration": 0.0163,
      "velocity": 93,
      "chip": "ym2612"
    },
    {
      "channel": 1,
      "note": 75,
      "start": 42.4423,
      "duration": 0.0163,
      "velocity": 108,
      "chip": "ym2612"
    },
    {
      "channel": 0,
      "note": 40,
      "start": 42.4525,
      "duration": 0.016,
      "velocity": 115,
      "chip": "ym2612"
    },
    {
      "channel": 5,
      "note": 75,
      "start": 42.4537,
      "duration": 0.0161,
      "velocity": 108,
      "chip": "ym2612"
    },
    {
      "channel": 4,
      "note": 80,
      "start": 42.455,
      "duration": 0.016,
      "velocity": 98,
      "chip": "ym2612"
    },
    {
      "channel": 3,
      "note": 83,
      "start": 42.4563,
      "duration": 0.016,
      "velocity": 98,
      "chip": "ym2612"
    },
    {
      "channel": 2,
      "note": 56,
      "start": 42.4575,
      "duration": 0.016,
      "velocity": 93,
      "chip": "ym2612"
    },
    {
      "channel": 1,
      "note": 75,
      "start": 42.4586,
      "duration": 0.016,
      "velocity": 108,
      "chip": "ym2612"
    },
    {
      "channel": 0,
      "note": 40,
      "start": 42.4685,
      "duration": 0.0158,
      "velocity": 115,
      "chip": "ym2612"
    },
    {
      "channel": 5,
      "note": 75,
      "start": 42.4698,
      "duration": 0.0161,
      "velocity": 108,
      "chip": "ym2612"
    },
    {
      "channel": 4,
      "note": 80,
      "start": 42.471,
      "duration": 0.0162,
      "velocity": 98,
      "chip": "ym2612"
    },
    {
      "channel": 3,
      "note": 83,
      "start": 42.4723,
      "duration": 0.0162,
      "velocity": 98,
      "chip": "ym2612"
    },
    {
      "channel": 2,
      "note": 56,
      "start": 42.4735,
      "duration": 0.0161,
      "velocity": 93,
      "chip": "ym2612"
    },
    {
      "channel": 1,
      "note": 75,
      "start": 42.4746,
      "duration": 0.0162,
      "velocity": 108,
      "chip": "ym2612"
    },
    {
      "channel": 0,
      "note": 41,
      "start": 42.4844,
      "duration": 0.0159,
      "velocity": 115,
      "chip": "ym2612"
    },
    {
      "channel": 5,
      "note": 75,
      "start": 42.4859,
      "duration": 0.016,
      "velocity": 108,
      "chip": "ym2612"
    },
    {
      "channel": 4,
      "note": 80,
      "start": 42.4872,
      "duration": 0.016,
      "velocity": 98,
      "chip": "ym2612"
    },
    {
      "channel": 3,
      "note": 83,
      "start": 42.4885,
      "duration": 0.0159,
      "velocity": 98,
      "chip": "ym2612"
    },
    {
      "channel": 2,
      "note": 56,
      "start": 42.4897,
      "duration": 0.0159,
      "velocity": 93,
      "chip": "ym2612"
    },
    {
      "channel": 0,
      "note": 41,
      "start": 42.5002,
      "duration": 0.0161,
      "velocity": 115,
      "chip": "ym2612"
    },
    {
      "channel": 5,
      "note": 75,
      "start": 42.502,
      "duration": 0.0158,
      "velocity": 108,
      "chip": "ym2612"
    },
    {
      "channel": 4,
      "note": 80,
      "start": 42.5032,
      "duration": 0.0161,
      "velocity": 98,
      "chip": "ym2612"
    },
    {
      "channel": 3,
      "note": 83,
      "start": 42.5044,
      "duration": 0.0162,
      "velocity": 98,
      "chip": "ym2612"
    },
    {
      "channel": 2,
      "note": 56,
      "start": 42.5056,
      "duration": 0.0161,
      "velocity": 93,
      "chip": "ym2612"
    },
    {
      "channel": 1,
      "note": 71,
      "start": 42.507,
      "duration": 0.0159,
      "velocity": 108,
      "chip": "ym2612"
    },
    {
      "channel": 0,
      "note": 42,
      "start": 42.5163,
      "duration": 0.0161,
      "velocity": 115,
      "chip": "ym2612"
    },
    {
      "channel": 4,
      "note": 80,
      "start": 42.5193,
      "duration": 0.0164,
      "velocity": 98,
      "chip": "ym2612"
    },
    {
      "channel": 3,
      "note": 83,
      "start": 42.5205,
      "duration": 0.0163,
      "velocity": 98,
      "chip": "ym2612"
    },
    {
      "channel": 2,
      "note": 56,
      "start": 42.5217,
      "duration": 0.0164,
      "velocity": 93,
      "chip": "ym2612"
    },
    {
      "channel": 1,
      "note": 71,
      "start": 42.5229,
      "duration": 0.0163,
      "velocity": 108,
      "chip": "ym2612"
    },
    {
      "channel": 0,
      "note": 42,
      "start": 42.5324,
      "duration": 0.0162,
      "velocity": 115,
      "chip": "ym2612"
    },
    {
      "channel": 5,
      "note": 71,
      "start": 42.5341,
      "duration": 0.0156,
      "velocity": 108,
      "chip": "ym2612"
    },
    {
      "channel": 4,
      "note": 80,
      "start": 42.5357,
      "duration": 0.0158,
      "velocity": 98,
      "chip": "ym2612"
    },
    {
      "channel": 3,
      "note": 83,
      "start": 42.5369,
      "duration": 0.0159,
      "velocity": 98,
      "chip": "ym2612"
    },
    {
      "channel": 2,
      "note": 56,
      "start": 42.5381,
      "duration": 0.0159,
      "velocity": 93,
      "chip": "ym2612"
    },
    {
      "channel": 1,
      "note": 71,
      "start": 42.5392,
      "duration": 0.0159,
      "velocity": 108,
      "chip": "ym2612"
    },
    {
      "channel": 0,
      "note": 43,
      "start": 42.5486,
      "duration": 0.0161,
      "velocity": 115,
      "chip": "ym2612"
    },
    {
      "channel": 5,
      "note": 71,
      "start": 42.5498,
      "duration": 0.016,
      "velocity": 108,
      "chip": "ym2612"
    },
    {
      "channel": 4,
      "note": 80,
      "start": 42.5515,
      "duration": 0.0156,
      "velocity": 98,
      "chip": "ym2612"
    },
    {
      "channel": 3,
      "note": 83,
      "start": 42.5528,
      "duration": 0.0162,
      "velocity": 98,
      "chip": "ym2612"
    },
    {
      "channel": 2,
      "note": 56,
      "start": 42.5539,
      "duration": 0.0162,
      "velocity": 93,
      "chip": "ym2612"
    },
    {
      "channel": 1,
      "note": 71,
      "start": 42.5551,
      "duration": 0.0162,
      "velocity": 108,
      "chip": "ym2612"
    },
    {
      "channel": 0,
      "note": 43,
      "start": 42.5647,
      "duration": 0.0161,
      "velocity": 115,
      "chip": "ym2612"
    },
    {
      "channel": 5,
      "note": 71,
      "start": 42.5658,
      "duration": 0.0161,
      "velocity": 108,
      "chip": "ym2612"
    },
    {
      "channel": 4,
      "note": 80,
      "start": 42.5671,
      "duration": 0.0162,
      "velocity": 98,
      "chip": "ym2612"
    },
    {
      "channel": 3,
      "note": 83,
      "start": 42.5689,
      "duration": 0.0161,
      "velocity": 98,
      "chip": "ym2612"
    },
    {
      "channel": 2,
      "note": 56,
      "start": 42.5701,
      "duration": 0.0162,
      "velocity": 93,
      "chip": "ym2612"
    },
    {
      "channel": 1,
      "note": 71,
      "start": 42.5713,
      "duration": 0.0162,
      "velocity": 108,
      "chip": "ym2612"
    },
    {
      "channel": 0,
      "note": 44,
      "start": 42.5808,
      "duration": 0.0179,
      "velocity": 124,
      "chip": "ym2612"
    },
    {
      "channel": 5,
      "note": 71,
      "start": 42.5819,
      "duration": 0.018,
      "velocity": 108,
      "chip": "ym2612"
    },
    {
      "channel": 2,
      "note": 56,
      "start": 42.5863,
      "duration": 0.0186,
      "velocity": 93,
      "chip": "ym2612"
    },
    {
      "channel": 0,
      "note": 84,
      "start": 42.5987,
      "duration": 0.0143,
      "velocity": 124,
      "chip": "ym2612"
    },
    {
      "channel": 5,
      "note": 71,
      "start": 42.5999,
      "duration": 0.0143,
      "velocity": 108,
      "chip": "ym2612"
    },
    {
      "channel": 4,
      "note": 80,
      "start": 42.602,
      "duration": 0.0135,
      "velocity": 98,
      "chip": "ym2612"
    },
    {
      "channel": 3,
      "note": 83,
      "start": 42.6035,
      "duration": 0.0132,
      "velocity": 98,
      "chip": "ym2612"
    },
    {
      "channel": 2,
      "note": 56,
      "start": 42.6051,
      "duration": 0.0134,
      "velocity": 93,
      "chip": "ym2612"
    },
    {
      "channel": 1,
      "note": 73,
      "start": 42.6065,
      "duration": 0.0132,
      "velocity": 108,
      "chip": "ym2612"
    },
    {
      "channel": 0,
      "note": 82,
      "start": 42.613,
      "duration": 0.016,
      "velocity": 124,
      "chip": "ym2612"
    },
    {
      "channel": 4,
      "note": 80,
      "start": 42.6154,
      "duration": 0.0163,
      "velocity": 98,
      "chip": "ym2612"
    },
    {
      "channel": 3,
      "note": 83,
      "start": 42.6167,
      "duration": 0.0161,
      "velocity": 98,
      "chip": "ym2612"
    },
    {
      "channel": 2,
      "note": 56,
      "start": 42.6184,
      "duration": 0.0159,
      "velocity": 93,
      "chip": "ym2612"
    },
    {
      "channel": 1,
      "note": 73,
      "start": 42.6197,
      "duration": 0.0161,
      "velocity": 108,
      "chip": "ym2612"
    },
    {
      "channel": 0,
      "note": 80,
      "start": 42.629,
      "duration": 0.0161,
      "velocity": 124,
      "chip": "ym2612"
    },
    {
      "channel": 5,
      "note": 73,
      "start": 42.6305,
      "duration": 0.0159,
      "velocity": 108,
      "chip": "ym2612"
    },
    {
      "channel": 4,
      "note": 80,
      "start": 42.6317,
      "duration": 0.0158,
      "velocity": 98,
      "chip": "ym2612"
    },
    {
      "channel": 3,
      "note": 83,
      "start": 42.6329,
      "duration": 0.0159,
      "velocity": 98,
      "chip": "ym2612"
    },
    {
      "channel": 2,
      "note": 56,
      "start": 42.6343,
      "duration": 0.0156,
      "velocity": 93,
      "chip": "ym2612"
    },
    {
      "channel": 1,
      "note": 73,
      "start": 42.6358,
      "duration": 0.0159,
      "velocity": 108,
      "chip": "ym2612"
    },
    {
      "channel": 0,
      "note": 77,
      "start": 42.6451,
      "duration": 0.0161,
      "velocity": 124,
      "chip": "ym2612"
    },
    {
      "channel": 5,
      "note": 73,
      "start": 42.6464,
      "duration": 0.016,
      "velocity": 108,
      "chip": "ym2612"
    },
    {
      "channel": 4,
      "note": 80,
      "start": 42.6476,
      "duration": 0.016,
      "velocity": 98,
      "chip": "ym2612"
    },
    {
      "channel": 3,
      "note": 83,
      "start": 42.6488,
      "duration": 0.016,
      "velocity": 98,
      "chip": "ym2612"
    },
    {
      "channel": 2,
      "note": 56,
      "start": 42.6499,
      "duration": 0.016,
      "velocity": 93,
      "chip": "ym2612"
    },
    {
      "channel": 1,
      "note": 73,
      "start": 42.6516,
      "duration": 0.0154,
      "velocity": 108,
      "chip": "ym2612"
    },
    {
      "channel": 0,
      "note": 75,
      "start": 42.6612,
      "duration": 0.0162,
      "velocity": 124,
      "chip": "ym2612"
    },
    {
      "channel": 5,
      "note": 73,
      "start": 42.6624,
      "duration": 0.0161,
      "velocity": 108,
      "chip": "ym2612"
    },
    {
      "channel": 4,
      "note": 80,
      "start": 42.6636,
      "duration": 0.0161,
      "velocity": 98,
      "chip": "ym2612"
    },
    {
      "channel": 3,
      "note": 83,
      "start": 42.6648,
      "duration": 0.0161,
      "velocity": 98,
      "chip": "ym2612"
    },
    {
      "channel": 2,
      "note": 56,
      "start": 42.6659,
      "duration": 0.0161,
      "velocity": 93,
      "chip": "ym2612"
    },
    {
      "channel": 1,
      "note": 73,
      "start": 42.6671,
      "duration": 0.0161,
      "velocity": 108,
      "chip": "ym2612"
    },
    {
      "channel": 0,
      "note": 72,
      "start": 42.6774,
      "duration": 0.0161,
      "velocity": 124,
      "chip": "ym2612"
    },
    {
      "channel": 5,
      "note": 73,
      "start": 42.6785,
      "duration": 0.0161,
      "velocity": 108,
      "chip": "ym2612"
    },
    {
      "channel": 4,
      "note": 80,
      "start": 42.6797,
      "duration": 0.0161,
      "velocity": 98,
      "chip": "ym2612"
    },
    {
      "channel": 3,
      "note": 83,
      "start": 42.6809,
      "duration": 0.0161,
      "velocity": 98,
      "chip": "ym2612"
    },
    {
      "channel": 2,
      "note": 56,
      "start": 42.682,
      "duration": 0.0161,
      "velocity": 93,
      "chip": "ym2612"
    },
    {
      "channel": 1,
      "note": 73,
      "start": 42.6832,
      "duration": 0.0162,
      "velocity": 108,
      "chip": "ym2612"
    },
    {
      "channel": 0,
      "note": 70,
      "start": 42.6935,
      "duration": 0.0161,
      "velocity": 124,
      "chip": "ym2612"
    },
    {
      "channel": 5,
      "note": 73,
      "start": 42.6946,
      "duration": 0.0161,
      "velocity": 108,
      "chip": "ym2612"
    },
    {
      "channel": 4,
      "note": 80,
      "start": 42.6958,
      "duration": 0.0161,
      "velocity": 98,
      "chip": "ym2612"
    },
    {
      "channel": 3,
      "note": 83,
      "start": 42.697,
      "duration": 0.0161,
      "velocity": 98,
      "chip": "ym2612"
    },
    {
      "channel": 2,
      "note": 56,
      "start": 42.6982,
      "duration": 0.0161,
      "velocity": 93,
      "chip": "ym2612"
    },
    {
      "channel": 1,
      "note": 73,
      "start": 42.6993,
      "duration": 0.0161,
      "velocity": 108,
      "chip": "ym2612"
    },
    {
      "channel": 0,
      "note": 68,
      "start": 42.7096,
      "duration": 0.0161,
      "velocity": 124,
      "chip": "ym2612"
    },
    {
      "channel": 5,
      "note": 73,
      "start": 42.7107,
      "duration": 0.0161,
      "velocity": 108,
      "chip": "ym2612"
    },
    {
      "channel": 4,
      "note": 80,
      "start": 42.7119,
      "duration": 0.0161,
      "velocity": 98,
      "chip": "ym2612"
    },
    {
      "channel": 3,
      "note": 83,
      "start": 42.7131,
      "duration": 0.0161,
      "velocity": 98,
      "chip": "ym2612"
    },
    {
      "channel": 2,
      "note": 56,
      "start": 42.7143,
      "duration": 0.0161,
      "velocity": 93,
      "chip": "ym2612"
    },
    {
      "channel": 1,
      "note": 73,
      "start": 42.7154,
      "duration": 0.0161,
      "velocity": 108,
      "chip": "ym2612"
    },
    {
      "channel": 0,
      "note": 65,
      "start": 42.7257,
      "duration": 0.0161,
      "velocity": 124,
      "chip": "ym2612"
    },
    {
      "channel": 5,
      "note": 73,
      "start": 42.7268,
      "duration": 0.0161,
      "velocity": 108,
      "chip": "ym2612"
    },
    {
      "channel": 4,
      "note": 80,
      "start": 42.728,
      "duration": 0.0161,
      "velocity": 98,
      "chip": "ym2612"
    },
    {
      "channel": 3,
      "note": 83,
      "start": 42.7292,
      "duration": 0.0163,
      "velocity": 98,
      "chip": "ym2612"
    },
    {
      "channel": 2,
      "note": 56,
      "start": 42.7304,
      "duration": 0.0163,
      "velocity": 93,
      "chip": "ym2612"
    },
    {
      "channel": 1,
      "note": 73,
      "start": 42.7315,
      "duration": 0.0163,
      "velocity": 108,
      "chip": "ym2612"
    },
    {
      "channel": 0,
      "note": 63,
      "start": 42.7418,
      "duration": 0.0153,
      "velocity": 1,
      "chip": "ym2612"
    },
    {
      "channel": 5,
      "note": 73,
      "start": 42.7429,
      "duration": 0.0153,
      "velocity": 108,
      "chip": "ym2612"
    },
    {
      "channel": 4,
      "note": 80,
      "start": 42.7442,
      "duration": 0.0153,
      "velocity": 98,
      "chip": "ym2612"
    },
    {
      "channel": 3,
      "note": 83,
      "start": 42.7455,
      "duration": 0.0153,
      "velocity": 98,
      "chip": "ym2612"
    },
    {
      "channel": 2,
      "note": 56,
      "start": 42.7467,
      "duration": 0.0153,
      "velocity": 93,
      "chip": "ym2612"
    },
    {
      "channel": 1,
      "note": 73,
      "start": 42.7479,
      "duration": 0.0152,
      "velocity": 108,
      "chip": "ym2612"
    },
    {
      "channel": 5,
      "note": 73,
      "start": 42.7582,
      "duration": 0.0152,
      "velocity": 108,
      "chip": "ym2612"
    },
    {
      "channel": 4,
      "note": 80,
      "start": 42.7595,
      "duration": 0.0153,
      "velocity": 98,
      "chip": "ym2612"
    },
    {
      "channel": 3,
      "note": 83,
      "start": 42.7607,
      "duration": 0.0153,
      "velocity": 98,
      "chip": "ym2612"
    },
    {
      "channel": 2,
      "note": 56,
      "start": 42.7619,
      "duration": 0.0153,
      "velocity": 93,
      "chip": "ym2612"
    },
    {
      "channel": 1,
      "note": 73,
      "start": 42.7631,
      "duration": 0.0153,
      "velocity": 108,
      "chip": "ym2612"
    },
    {
      "channel": 5,
      "note": 73,
      "start": 42.7734,
      "duration": 0.0197,
      "velocity": 108,
      "chip": "ym2612"
    },
    {
      "channel": 4,
      "note": 80,
      "start": 42.7747,
      "duration": 0.0195,
      "velocity": 98,
      "chip": "ym2612"
    },
    {
      "channel": 3,
      "note": 83,
      "start": 42.776,
      "duration": 0.0195,
      "velocity": 98,
      "chip": "ym2612"
    },
    {
      "channel": 2,
      "note": 56,
      "start": 42.7772,
      "duration": 0.0194,
      "velocity": 93,
      "chip": "ym2612"
    },
    {
      "channel": 0,
      "note": 36,
      "start": 42.7919,
      "duration": 0.0143,
      "velocity": 115,
      "chip": "ym2612"
    },
    {
      "channel": 5,
      "note": 73,
      "start": 42.7931,
      "duration": 0.0143,
      "velocity": 108,
      "chip": "ym2612"
    },
    {
      "channel": 4,
      "note": 80,
      "start": 42.7942,
      "duration": 0.0144,
      "velocity": 98,
      "chip": "ym2612"
    },
    {
      "channel": 3,
      "note": 83,
      "start": 42.7955,
      "duration": 0.0143,
      "velocity": 98,
      "chip": "ym2612"
    },
    {
      "channel": 2,
      "note": 56,
      "start": 42.7966,
      "duration": 0.0144,
      "velocity": 93,
      "chip": "ym2612"
    },
    {
      "channel": 1,
      "note": 71,
      "start": 42.7981,
      "duration": 0.0141,
      "velocity": 108,
      "chip": "ym2612"
    },
    {
      "channel": 0,
      "note": 36,
      "start": 42.8062,
      "duration": 0.016,
      "velocity": 115,
      "chip": "ym2612"
    },
    {
      "channel": 4,
      "note": 80,
      "start": 42.8086,
      "duration": 0.0163,
      "velocity": 98,
      "chip": "ym2612"
    },
    {
      "channel": 3,
      "note": 83,
      "start": 42.8098,
      "duration": 0.0164,
      "velocity": 98,
      "chip": "ym2612"
    },
    {
      "channel": 2,
      "note": 56,
      "start": 42.811,
      "duration": 0.0163,
      "velocity": 93,
      "chip": "ym2612"
    },
    {
      "channel": 1,
      "note": 71,
      "start": 42.8122,
      "duration": 0.0163,
      "velocity": 108,
      "chip": "ym2612"
    },
    {
      "channel": 0,
      "note": 37,
      "start": 42.8222,
      "duration": 0.0161,
      "velocity": 115,
      "chip": "ym2612"
    },
    {
      "channel": 5,
      "note": 71,
      "start": 42.8238,
      "duration": 0.0158,
      "velocity": 108,
      "chip": "ym2612"
    },
    {
      "channel": 4,
      "note": 80,
      "start": 42.825,
      "duration": 0.0159,
      "velocity": 98,
      "chip": "ym2612"
    },
    {
      "channel": 3,
      "note": 83,
      "start": 42.8262,
      "duration": 0.0158,
      "velocity": 98,
      "chip": "ym2612"
    },
    {
      "channel": 2,
      "note": 56,
      "start": 42.8273,
      "duration": 0.0159,
      "velocity": 93,
      "chip": "ym2612"
    },
    {
      "channel": 1,
      "note": 71,
      "start": 42.8285,
      "duration": 0.0158,
      "velocity": 108,
      "chip": "ym2612"
    },
    {
      "channel": 0,
      "note": 37,
      "start": 42.8384,
      "duration": 0.0161,
      "velocity": 115,
      "chip": "ym2612"
    },
    {
      "channel": 5,
      "note": 71,
      "start": 42.8396,
      "duration": 0.016,
      "velocity": 108,
      "chip": "ym2612"
    },
    {
      "channel": 4,
      "note": 80,
      "start": 42.8408,
      "duration": 0.0161,
      "velocity": 98,
      "chip": "ym2612"
    },
    {
      "channel": 3,
      "note": 83,
      "start": 42.842,
      "duration": 0.0162,
      "velocity": 98,
      "chip": "ym2612"
    },
    {
      "channel": 2,
      "note": 56,
      "start": 42.8432,
      "duration": 0.0162,
      "velocity": 93,
      "chip": "ym2612"
    },
    {
      "channel": 1,
      "note": 71,
      "start": 42.8443,
      "duration": 0.0162,
      "velocity": 108,
      "chip": "ym2612"
    },
    {
      "channel": 0,
      "note": 38,
      "start": 42.8545,
      "duration": 0.0161,
      "velocity": 115,
      "chip": "ym2612"
    },
    {
      "channel": 5,
      "note": 71,
      "start": 42.8556,
      "duration": 0.0162,
      "velocity": 108,
      "chip": "ym2612"
    },
    {
      "channel": 4,
      "note": 80,
      "start": 42.8569,
      "duration": 0.0161,
      "velocity": 98,
      "chip": "ym2612"
    },
    {
      "channel": 3,
      "note": 83,
      "start": 42.8582,
      "duration": 0.0162,
      "velocity": 98,
      "chip": "ym2612"
    },
    {
      "channel": 2,
      "note": 56,
      "start": 42.8594,
      "duration": 0.0162,
      "velocity": 93,
      "chip": "ym2612"
    },
    {
      "channel": 1,
      "note": 71,
      "start": 42.8605,
      "duration": 0.0163,
      "velocity": 108,
      "chip": "ym2612"
    },
    {
      "channel": 0,
      "note": 38,
      "start": 42.8706,
      "duration": 0.0162,
      "velocity": 115,
      "chip": "ym2612"
    },
    {
      "channel": 5,
      "note": 71,
      "start": 42.8718,
      "duration": 0.0162,
      "velocity": 108,
      "chip": "ym2612"
    },
    {
      "channel": 2,
      "note": 56,
      "start": 42.8756,
      "duration": 0.0169,
      "velocity": 93,
      "chip": "ym2612"
    },
    {
      "channel": 1,
      "note": 71,
      "start": 42.8768,
      "duration": 0.017,
      "velocity": 108,
      "chip": "ym2612"
    },
    {
      "channel": 0,
      "note": 39,
      "start": 42.8869,
      "duration": 0.0163,
      "velocity": 115,
      "chip": "ym2612"
    },
    {
      "channel": 5,
      "note": 71,
      "start": 42.888,
      "duration": 0.0163,
      "velocity": 108,
      "chip": "ym2612"
    },
    {
      "channel": 4,
      "note": 80,
      "start": 42.8895,
      "duration": 0.016,
      "velocity": 98,
      "chip": "ym2612"
    },
    {
      "channel": 3,
      "note": 83,
      "start": 42.8911,
      "duration": 0.0158,
      "velocity": 98,
      "chip": "ym2612"
    },
    {
      "channel": 2,
      "note": 56,
      "start": 42.8926,
      "duration": 0.0155,
      "velocity": 93,
      "chip": "ym2612"
    },
    {
      "channel": 1,
      "note": 71,
      "start": 42.8939,
      "duration": 0.0154,
      "velocity": 108,
      "chip": "ym2612"
    },
    {
      "channel": 0,
      "note": 39,
      "start": 42.9032,
      "duration": 0.0163,
      "velocity": 115,
      "chip": "ym2612"
    },
    {
      "channel": 5,
      "note": 71,
      "start": 42.9044,
      "duration": 0.0163,
      "velocity": 108,
      "chip": "ym2612"
    },
    {
      "channel": 4,
      "note": 80,
      "start": 42.9056,
      "duration": 0.0163,
      "velocity": 98,
      "chip": "ym2612"
    },
    {
      "channel": 3,
      "note": 83,
      "start": 42.9068,
      "duration": 0.0162,
      "velocity": 98,
      "chip": "ym2612"
    },
    {
      "channel": 2,
      "note": 56,
      "start": 42.908,
      "duration": 0.0162,
      "velocity": 93,
      "chip": "ym2612"
    },
    {
      "channel": 1,
      "note": 71,
      "start": 42.9093,
      "duration": 0.0162,
      "velocity": 108,
      "chip": "ym2612"
    },
    {
      "channel": 0,
      "note": 40,
      "start": 42.9195,
      "duration": 0.0161,
      "velocity": 115,
      "chip": "ym2612"
    },
    {
      "channel": 5,
      "note": 71,
      "start": 42.9207,
      "duration": 0.0161,
      "velocity": 108,
      "chip": "ym2612"
    },
    {
      "channel": 4,
      "note": 80,
      "start": 42.9219,
      "duration": 0.016,
      "velocity": 98,
      "chip": "ym2612"
    },
    {
      "channel": 3,
      "note": 83,
      "start": 42.9231,
      "duration": 0.0161,
      "velocity": 98,
      "chip": "ym2612"
    },
    {
      "channel": 2,
      "note": 56,
      "start": 42.9242,
      "duration": 0.0161,
      "velocity": 93,
      "chip": "ym2612"
    },
    {
      "channel": 1,
      "note": 71,
      "start": 42.9255,
      "duration": 0.016,
      "velocity": 108,
      "chip": "ym2612"
    },
    {
      "channel": 0,
      "note": 40,
      "start": 42.9356,
      "duration": 0.016,
      "velocity": 115,
      "chip": "ym2612"
    },
    {
      "channel": 5,
      "note": 71,
      "start": 42.9368,
      "duration": 0.0161,
      "velocity": 108,
      "chip": "ym2612"
    },
    {
      "channel": 4,
      "note": 80,
      "start": 42.938,
      "duration": 0.0161,
      "velocity": 98,
      "chip": "ym2612"
    },
    {
      "channel": 3,
      "note": 83,
      "start": 42.9392,
      "duration": 0.0161,
      "velocity": 98,
      "chip": "ym2612"
    },
    {
      "channel": 2,
      "note": 56,
      "start": 42.9403,
      "duration": 0.0161,
      "velocity": 93,
      "chip": "ym2612"
    },
    {
      "channel": 1,
      "note": 71,
      "start": 42.9415,
      "duration": 0.0161,
      "velocity": 108,
      "chip": "ym2612"
    },
    {
      "channel": 0,
      "note": 40,
      "start": 42.9516,
      "duration": 0.0155,
      "velocity": 115,
      "chip": "ym2612"
    },
    {
      "channel": 5,
      "note": 71,
      "start": 42.9529,
      "duration": 0.016,
      "velocity": 108,
      "chip": "ym2612"
    },
    {
      "channel": 4,
      "note": 80,
      "start": 42.954,
      "duration": 0.016,
      "velocity": 98,
      "chip": "ym2612"
    },
    {
      "channel": 3,
      "note": 83,
      "start": 42.9553,
      "duration": 0.016,
      "velocity": 98,
      "chip": "ym2612"
    },
    {
      "channel": 2,
      "note": 56,
      "start": 42.9564,
      "duration": 0.016,
      "velocity": 93,
      "chip": "ym2612"
    },
    {
      "channel": 1,
      "note": 71,
      "start": 42.9576,
      "duration": 0.016,
      "velocity": 108,
      "chip": "ym2612"
    },
    {
      "channel": 0,
      "note": 41,
      "start": 42.9671,
      "duration": 0.0162,
      "velocity": 115,
      "chip": "ym2612"
    },
    {
      "channel": 5,
      "note": 71,
      "start": 42.9689,
      "duration": 0.016,
      "velocity": 108,
      "chip": "ym2612"
    },
    {
      "channel": 4,
      "note": 80,
      "start": 42.9701,
      "duration": 0.0162,
      "velocity": 98,
      "chip": "ym2612"
    },
    {
      "channel": 3,
      "note": 83,
      "start": 42.9713,
      "duration": 0.0161,
      "velocity": 98,
      "chip": "ym2612"
    },
    {
      "channel": 2,
      "note": 56,
      "start": 42.9724,
      "duration": 0.0162,
      "velocity": 93,
      "chip": "ym2612"
    },
    {
      "channel": 0,
      "note": 41,
      "start": 42.9833,
      "duration": 0.0161,
      "velocity": 115,
      "chip": "ym2612"
    },
    {
      "channel": 5,
      "note": 71,
      "start": 42.985,
      "duration": 0.0156,
      "velocity": 108,
      "chip": "ym2612"
    },
    {
      "channel": 4,
      "note": 80,
      "start": 42.9862,
      "duration": 0.0161,
      "velocity": 98,
      "chip": "ym2612"
    },
    {
      "channel": 3,
      "note": 83,
      "start": 42.9874,
      "duration": 0.0161,
      "velocity": 98,
      "chip": "ym2612"
    },
    {
      "channel": 2,
      "note": 56,
      "start": 42.9886,
      "duration": 0.0161,
      "velocity": 93,
      "chip": "ym2612"
    },
    {
      "channel": 0,
      "note": 42,
      "start": 42.9994,
      "duration": 0.0161,
      "velocity": 115,
      "chip": "ym2612"
    },
    {
      "channel": 4,
      "note": 80,
      "start": 43.0024,
      "duration": 0.0162,
      "velocity": 98,
      "chip": "ym2612"
    },
    {
      "channel": 3,
      "note": 83,
      "start": 43.0035,
      "duration": 0.0163,
      "velocity": 98,
      "chip": "ym2612"
    },
    {
      "channel": 2,
      "note": 56,
      "start": 43.0047,
      "duration": 0.0163,
      "velocity": 93,
      "chip": "ym2612"
    },
    {
      "channel": 0,
      "note": 42,
      "start": 43.0155,
      "duration": 0.0161,
      "velocity": 115,
      "chip": "ym2612"
    },
    {
      "channel": 4,
      "note": 80,
      "start": 43.0186,
      "duration": 0.0157,
      "velocity": 98,
      "chip": "ym2612"
    },
    {
      "channel": 3,
      "note": 83,
      "start": 43.0199,
      "duration": 0.0161,
      "velocity": 98,
      "chip": "ym2612"
    },
    {
      "channel": 2,
      "note": 56,
      "start": 43.021,
      "duration": 0.0162,
      "velocity": 93,
      "chip": "ym2612"
    },
    {
      "channel": 0,
      "note": 43,
      "start": 43.0316,
      "duration": 0.0161,
      "velocity": 115,
      "chip": "ym2612"
    },
    {
      "channel": 4,
      "note": 80,
      "start": 43.0343,
      "duration": 0.0158,
      "velocity": 98,
      "chip": "ym2612"
    },
    {
      "channel": 3,
      "note": 83,
      "start": 43.036,
      "duration": 0.016,
      "velocity": 98,
      "chip": "ym2612"
    },
    {
      "channel": 2,
      "note": 56,
      "start": 43.0372,
      "duration": 0.016,
      "velocity": 93,
      "chip": "ym2612"
    },
    {
      "channel": 0,
      "note": 43,
      "start": 43.0477,
      "duration": 0.0161,
      "velocity": 115,
      "chip": "ym2612"
    },
    {
      "channel": 4,
      "note": 80,
      "start": 43.0502,
      "duration": 0.0162,
      "velocity": 98,
      "chip": "ym2612"
    },
    {
      "channel": 3,
      "note": 83,
      "start": 43.052,
      "duration": 0.0158,
      "velocity": 98,
      "chip": "ym2612"
    },
    {
      "channel": 2,
      "note": 56,
      "start": 43.0532,
      "duration": 0.0161,
      "velocity": 93,
      "chip": "ym2612"
    },
    {
      "channel": 0,
      "note": 44,
      "start": 43.0638,
      "duration": 0.018,
      "velocity": 115,
      "chip": "ym2612"
    },
    {
      "channel": 4,
      "note": 80,
      "start": 43.0663,
      "duration": 0.018,
      "velocity": 98,
      "chip": "ym2612"
    },
    {
      "channel": 3,
      "note": 83,
      "start": 43.0678,
      "duration": 0.0182,
      "velocity": 98,
      "chip": "ym2612"
    },
    {
      "channel": 2,
      "note": 56,
      "start": 43.0694,
      "duration": 0.0178,
      "velocity": 93,
      "chip": "ym2612"
    },
    {
      "channel": 0,
      "note": 36,
      "start": 43.0817,
      "duration": 0.0143,
      "velocity": 115,
      "chip": "ym2612"
    },
    {
      "channel": 4,
      "note": 80,
      "start": 43.0844,
      "duration": 0.0141,
      "velocity": 98,
      "chip": "ym2612"
    },
    {
      "channel": 3,
      "note": 83,
      "start": 43.086,
      "duration": 0.0137,
      "velocity": 98,
      "chip": "ym2612"
    },
    {
      "channel": 2,
      "note": 56,
      "start": 43.0871,
      "duration": 0.0139,
      "velocity": 93,
      "chip": "ym2612"
    },
    {
      "channel": 1,
      "note": 68,
      "start": 43.0899,
      "duration": 0.0127,
      "velocity": 103,
      "chip": "ym2612"
    },
    {
      "channel": 0,
      "note": 36,
      "start": 43.096,
      "duration": 0.016,
      "velocity": 115,
      "chip": "ym2612"
    },
    {
      "channel": 4,
      "note": 80,
      "start": 43.0985,
      "duration": 0.016,
      "velocity": 98,
      "chip": "ym2612"
    },
    {
      "channel": 3,
      "note": 83,
      "start": 43.0997,
      "duration": 0.0161,
      "velocity": 98,
      "chip": "ym2612"
    },
    {
      "channel": 2,
      "note": 56,
      "start": 43.101,
      "duration": 0.0159,
      "velocity": 93,
      "chip": "ym2612"
    },
    {
      "channel": 1,
      "note": 68,
      "start": 43.1027,
      "duration": 0.0159,
      "velocity": 103,
      "chip": "ym2612"
    },
    {
      "channel": 0,
      "note": 37,
      "start": 43.1121,
      "duration": 0.0161,
      "velocity": 115,
      "chip": "ym2612"
    },
    {
      "channel": 4,
      "note": 80,
      "start": 43.1145,
      "duration": 0.0161,
      "velocity": 98,
      "chip": "ym2612"
    },
    {
      "channel": 3,
      "note": 83,
      "start": 43.1157,
      "duration": 0.0161,
      "velocity": 98,
      "chip": "ym2612"
    },
    {
      "channel": 2,
      "note": 56,
      "start": 43.1169,
      "duration": 0.0161,
      "velocity": 93,
      "chip": "ym2612"
    },
    {
      "channel": 1,
      "note": 68,
      "start": 43.1185,
      "duration": 0.0158,
      "velocity": 103,
      "chip": "ym2612"
    },
    {
      "channel": 0,
      "note": 37,
      "start": 43.1282,
      "duration": 0.0161,
      "velocity": 115,
      "chip": "ym2612"
    },
    {
      "channel": 4,
      "note": 80,
      "start": 43.1306,
      "duration": 0.0161,
      "velocity": 98,
      "chip": "ym2612"
    },
    {
      "channel": 3,
      "note": 83,
      "start": 43.1318,
      "duration": 0.0162,
      "velocity": 98,
      "chip": "ym2612"
    },
    {
      "channel": 2,
      "note": 56,
      "start": 43.133,
      "duration": 0.0163,
      "velocity": 93,
      "chip": "ym2612"
    },
    {
      "channel": 1,
      "note": 68,
      "start": 43.1343,
      "duration": 0.0161,
      "velocity": 103,
      "chip": "ym2612"
    },
    {
      "channel": 0,
      "note": 38,
      "start": 43.1443,
      "duration": 0.0161,
      "velocity": 115,
      "chip": "ym2612"
    },
    {
      "channel": 4,
      "note": 80,
      "start": 43.1468,
      "duration": 0.0162,
      "velocity": 98,
      "chip": "ym2612"
    },
    {
      "channel": 3,
      "note": 83,
      "start": 43.1481,
      "duration": 0.0161,
      "velocity": 98,
      "chip": "ym2612"
    },
    {
      "channel": 2,
      "note": 56,
      "start": 43.1493,
      "duration": 0.0162,
      "velocity": 93,
      "chip": "ym2612"
    },
    {
      "channel": 0,
      "note": 38,
      "start": 43.1604,
      "duration": 0.0179,
      "velocity": 124,
      "chip": "ym2612"
    },
    {
      "channel": 2,
      "note": 56,
      "start": 43.1655,
      "duration": 0.0208,
      "velocity": 93,
      "chip": "ym2612"
    },
    {
      "channel": 0,
      "note": 84,
      "start": 43.1783,
      "duration": 0.0143,
      "velocity": 124,
      "chip": "ym2612"
    },
    {
      "channel": 5,
      "note": 68,
      "start": 43.1813,
      "duration": 0.0126,
      "velocity": 102,
      "chip": "ym2612"
    },
    {
      "channel": 4,
      "note": 80,
      "start": 43.1827,
      "duration": 0.0124,
      "velocity": 98,
      "chip": "ym2612"
    },
    {
      "channel": 3,
      "note": 83,
      "start": 43.1848,
      "duration": 0.0116,
      "velocity": 98,
      "chip": "ym2612"
    },
    {
      "channel": 2,
      "note": 56,
      "start": 43.1863,
      "duration": 0.0112,
      "velocity": 93,
      "chip": "ym2612"
    },
    {
      "channel": 1,
      "note": 69,
      "start": 43.1878,
      "duration": 0.011,
      "velocity": 103,
      "chip": "ym2612"
    },
    {
      "channel": 0,
      "note": 82,
      "start": 43.1927,
      "duration": 0.016,
      "velocity": 124,
      "chip": "ym2612"
    },
    {
      "channel": 5,
      "note": 68,
      "start": 43.1939,
      "duration": 0.016,
      "velocity": 102,
      "chip": "ym2612"
    },
    {
      "channel": 4,
      "note": 80,
      "start": 43.1951,
      "duration": 0.016,
      "velocity": 98,
      "chip": "ym2612"
    },
    {
      "channel": 3,
      "note": 83,
      "start": 43.1963,
      "duration": 0.0158,
      "velocity": 98,
      "chip": "ym2612"
    },
    {
      "channel": 2,
      "note": 56,
      "start": 43.1976,
      "duration": 0.0159,
      "velocity": 93,
      "chip": "ym2612"
    },
    {
      "channel": 1,
      "note": 69,
      "start": 43.1988,
      "duration": 0.0158,
      "velocity": 103,
      "chip": "ym2612"
    },
    {
      "channel": 0,
      "note": 80,
      "start": 43.2087,
      "duration": 0.0161,
      "velocity": 124,
      "chip": "ym2612"
    },
    {
      "channel": 5,
      "note": 68,
      "start": 43.2098,
      "duration": 0.0161,
      "velocity": 102,
      "chip": "ym2612"
    },
    {
      "channel": 4,
      "note": 80,
      "start": 43.211,
      "duration": 0.0161,
      "velocity": 98,
      "chip": "ym2612"
    },
    {
      "channel": 3,
      "note": 83,
      "start": 43.2122,
      "duration": 0.0162,
      "velocity": 98,
      "chip": "ym2612"
    },
    {
      "channel": 2,
      "note": 56,
      "start": 43.2134,
      "duration": 0.0161,
      "velocity": 93,
      "chip": "ym2612"
    },
    {
      "channel": 1,
      "note": 69,
      "start": 43.2145,
      "duration": 0.0161,
      "velocity": 103,
      "chip": "ym2612"
    },
    {
      "channel": 0,
      "note": 77,
      "start": 43.2248,
      "duration": 0.0161,
      "velocity": 124,
      "chip": "ym2612"
    },
    {
      "channel": 5,
      "note": 68,
      "start": 43.226,
      "duration": 0.0161,
      "velocity": 102,
      "chip": "ym2612"
    },
    {
      "channel": 4,
      "note": 80,
      "start": 43.2271,
      "duration": 0.0161,
      "velocity": 98,
      "chip": "ym2612"
    },
    {
      "channel": 3,
      "note": 83,
      "start": 43.2283,
      "duration": 0.0161,
      "velocity": 98,
      "chip": "ym2612"
    },
    {
      "channel": 2,
      "note": 56,
      "start": 43.2295,
      "duration": 0.0161,
      "velocity": 93,
      "chip": "ym2612"
    },
    {
      "channel": 1,
      "note": 69,
      "start": 43.2306,
      "duration": 0.0161,
      "velocity": 103,
      "chip": "ym2612"
    },
    {
      "channel": 0,
      "note": 75,
      "start": 43.2409,
      "duration": 0.0161,
      "velocity": 124,
      "chip": "ym2612"
    },
    {
      "channel": 4,
      "note": 80,
      "start": 43.2432,
      "duration": 0.0161,
      "velocity": 98,
      "chip": "ym2612"
    },
    {
      "channel": 3,
      "note": 83,
      "start": 43.2444,
      "duration": 0.0161,
      "velocity": 98,
      "chip": "ym2612"
    },
    {
      "channel": 2,
      "note": 56,
      "start": 43.2456,
      "duration": 0.0161,
      "velocity": 93,
      "chip": "ym2612"
    },
    {
      "channel": 1,
      "note": 69,
      "start": 43.2467,
      "duration": 0.0161,
      "velocity": 103,
      "chip": "ym2612"
    },
    {
      "channel": 0,
      "note": 72,
      "start": 43.257,
      "duration": 0.0161,
      "velocity": 124,
      "chip": "ym2612"
    },
    {
      "channel": 4,
      "note": 80,
      "start": 43.2593,
      "duration": 0.0164,
      "velocity": 98,
      "chip": "ym2612"
    },
    {
      "channel": 3,
      "note": 83,
      "start": 43.2605,
      "duration": 0.0164,
      "velocity": 98,
      "chip": "ym2612"
    },
    {
      "channel": 2,
      "note": 56,
      "start": 43.2617,
      "duration": 0.0164,
      "velocity": 93,
      "chip": "ym2612"
    },
    {
      "channel": 1,
      "note": 69,
      "start": 43.2628,
      "duration": 0.0164,
      "velocity": 103,
      "chip": "ym2612"
    },
    {
      "channel": 0,
      "note": 70,
      "start": 43.2731,
      "duration": 0.0161,
      "velocity": 124,
      "chip": "ym2612"
    },
    {
      "channel": 5,
      "note": 69,
      "start": 43.2745,
      "duration": 0.0159,
      "velocity": 102,
      "chip": "ym2612"
    },
    {
      "channel": 4,
      "note": 80,
      "start": 43.2757,
      "duration": 0.0158,
      "velocity": 98,
      "chip": "ym2612"
    },
    {
      "channel": 3,
      "note": 83,
      "start": 43.2769,
      "duration": 0.0159,
      "velocity": 98,
      "chip": "ym2612"
    },
    {
      "channel": 2,
      "note": 56,
      "start": 43.2781,
      "duration": 0.0158,
      "velocity": 93,
      "chip": "ym2612"
    },
    {
      "channel": 1,
      "note": 69,
      "start": 43.2792,
      "duration": 0.0159,
      "velocity": 103,
      "chip": "ym2612"
    },
    {
      "channel": 0,
      "note": 68,
      "start": 43.2892,
      "duration": 0.0161,
      "velocity": 124,
      "chip": "ym2612"
    },
    {
      "channel": 5,
      "note": 69,
      "start": 43.2904,
      "duration": 0.016,
      "velocity": 102,
      "chip": "ym2612"
    },
    {
      "channel": 4,
      "note": 80,
      "start": 43.2916,
      "duration": 0.0161,
      "velocity": 98,
      "chip": "ym2612"
    },
    {
      "channel": 3,
      "note": 83,
      "start": 43.2928,
      "duration": 0.016,
      "velocity": 98,
      "chip": "ym2612"
    },
    {
      "channel": 2,
      "note": 56,
      "start": 43.2939,
      "duration": 0.0161,
      "velocity": 93,
      "chip": "ym2612"
    },
    {
      "channel": 1,
      "note": 69,
      "start": 43.2951,
      "duration": 0.016,
      "velocity": 103,
      "chip": "ym2612"
    },
    {
      "channel": 0,
      "note": 65,
      "start": 43.3053,
      "duration": 0.0161,
      "velocity": 124,
      "chip": "ym2612"
    },
    {
      "channel": 5,
      "note": 69,
      "start": 43.3065,
      "duration": 0.0161,
      "velocity": 102,
      "chip": "ym2612"
    },
    {
      "channel": 4,
      "note": 80,
      "start": 43.3077,
      "duration": 0.0162,
      "velocity": 98,
      "chip": "ym2612"
    },
    {
      "channel": 3,
      "note": 83,
      "start": 43.3088,
      "duration": 0.0163,
      "velocity": 98,
      "chip": "ym2612"
    },
    {
      "channel": 2,
      "note": 56,
      "start": 43.31,
      "duration": 0.0163,
      "velocity": 93,
      "chip": "ym2612"
    },
    {
      "channel": 1,
      "note": 69,
      "start": 43.3112,
      "duration": 0.0163,
      "velocity": 103,
      "chip": "ym2612"
    },
    {
      "channel": 0,
      "note": 63,
      "start": 43.3214,
      "duration": 0.0153,
      "velocity": 1,
      "chip": "ym2612"
    },
    {
      "channel": 5,
      "note": 69,
      "start": 43.3226,
      "duration": 0.0153,
      "velocity": 102,
      "chip": "ym2612"
    },
    {
      "channel": 4,
      "note": 80,
      "start": 43.3238,
      "duration": 0.0153,
      "velocity": 98,
      "chip": "ym2612"
    },
    {
      "channel": 3,
      "note": 83,
      "start": 43.3251,
      "duration": 0.0152,
      "velocity": 98,
      "chip": "ym2612"
    },
    {
      "channel": 2,
      "note": 56,
      "start": 43.3263,
      "duration": 0.0152,
      "velocity": 93,
      "chip": "ym2612"
    },
    {
      "channel": 1,
      "note": 69,
      "start": 43.3275,
      "duration": 0.0152,
      "velocity": 103,
      "chip": "ym2612"
    },
    {
      "channel": 5,
      "note": 69,
      "start": 43.3378,
      "duration": 0.0153,
      "velocity": 102,
      "chip": "ym2612"
    },
    {
      "channel": 4,
      "note": 80,
      "start": 43.3391,
      "duration": 0.0153,
      "velocity": 98,
      "chip": "ym2612"
    },
    {
      "channel": 3,
      "note": 83,
      "start": 43.3403,
      "duration": 0.0154,
      "velocity": 98,
      "chip": "ym2612"
    },
    {
      "channel": 2,
      "note": 56,
      "start": 43.3415,
      "duration": 0.0154,
      "velocity": 93,
      "chip": "ym2612"
    },
    {
      "channel": 5,
      "note": 69,
      "start": 43.3532,
      "duration": 0.0199,
      "velocity": 102,
      "chip": "ym2612"
    },
    {
      "channel": 4,
      "note": 80,
      "start": 43.3544,
      "duration": 0.0198,
      "velocity": 98,
      "chip": "ym2612"
    },
    {
      "channel": 3,
      "note": 83,
      "start": 43.3557,
      "duration": 0.0197,
      "velocity": 98,
      "chip": "ym2612"
    },
    {
      "channel": 2,
      "note": 56,
      "start": 43.3569,
      "duration": 0.0196,
      "velocity": 93,
      "chip": "ym2612"
    },
    {
      "channel": 0,
      "note": 36,
      "start": 43.3719,
      "duration": 0.0145,
      "velocity": 115,
      "chip": "ym2612"
    },
    {
      "channel": 5,
      "note": 69,
      "start": 43.3731,
      "duration": 0.0145,
      "velocity": 102,
      "chip": "ym2612"
    },
    {
      "channel": 4,
      "note": 80,
      "start": 43.3742,
      "duration": 0.0146,
      "velocity": 98,
      "chip": "ym2612"
    },
    {
      "channel": 3,
      "note": 83,
      "start": 43.3754,
      "duration": 0.0146,
      "velocity": 98,
      "chip": "ym2612"
    },
    {
      "channel": 2,
      "note": 56,
      "start": 43.3766,
      "duration": 0.0146,
      "velocity": 93,
      "chip": "ym2612"
    },
    {
      "channel": 1,
      "note": 71,
      "start": 43.378,
      "duration": 0.0144,
      "velocity": 103,
      "chip": "ym2612"
    },
    {
      "channel": 0,
      "note": 36,
      "start": 43.3864,
      "duration": 0.0161,
      "velocity": 115,
      "chip": "ym2612"
    },
    {
      "channel": 5,
      "note": 69,
      "start": 43.3876,
      "duration": 0.0161,
      "velocity": 102,
      "chip": "ym2612"
    },
    {
      "channel": 4,
      "note": 80,
      "start": 43.3888,
      "duration": 0.0161,
      "velocity": 98,
      "chip": "ym2612"
    },
    {
      "channel": 3,
      "note": 83,
      "start": 43.39,
      "duration": 0.016,
      "velocity": 98,
      "chip": "ym2612"
    },
    {
      "channel": 2,
      "note": 56,
      "start": 43.3911,
      "duration": 0.0161,
      "velocity": 93,
      "chip": "ym2612"
    },
    {
      "channel": 1,
      "note": 71,
      "start": 43.3924,
      "duration": 0.016,
      "velocity": 103,
      "chip": "ym2612"
    },
    {
      "channel": 0,
      "note": 37,
      "start": 43.4025,
      "duration": 0.0161,
      "velocity": 115,
      "chip": "ym2612"
    },
    {
      "channel": 5,
      "note": 69,
      "start": 43.4037,
      "duration": 0.0161,
      "velocity": 102,
      "chip": "ym2612"
    },
    {
      "channel": 4,
      "note": 80,
      "start": 43.4049,
      "duration": 0.0161,
      "velocity": 98,
      "chip": "ym2612"
    },
    {
      "channel": 3,
      "note": 83,
      "start": 43.406,
      "duration": 0.0162,
      "velocity": 98,
      "chip": "ym2612"
    },
    {
      "channel": 2,
      "note": 56,
      "start": 43.4072,
      "duration": 0.0161,
      "velocity": 93,
      "chip": "ym2612"
    },
    {
      "channel": 1,
      "note": 71,
      "start": 43.4084,
      "duration": 0.0161,
      "velocity": 103,
      "chip": "ym2612"
    },
    {
      "channel": 0,
      "note": 37,
      "start": 43.4186,
      "duration": 0.0157,
      "velocity": 115,
      "chip": "ym2612"
    },
    {
      "channel": 5,
      "note": 69,
      "start": 43.4198,
      "duration": 0.0161,
      "velocity": 102,
      "chip": "ym2612"
    },
    {
      "channel": 4,
      "note": 80,
      "start": 43.421,
      "duration": 0.0162,
      "velocity": 98,
      "chip": "ym2612"
    },
    {
      "channel": 3,
      "note": 83,
      "start": 43.4222,
      "duration": 0.0162,
      "velocity": 98,
      "chip": "ym2612"
    },
    {
      "channel": 2,
      "note": 56,
      "start": 43.4233,
      "duration": 0.0163,
      "velocity": 93,
      "chip": "ym2612"
    },
    {
      "channel": 1,
      "note": 71,
      "start": 43.4245,
      "duration": 0.0163,
      "velocity": 103,
      "chip": "ym2612"
    },
    {
      "channel": 0,
      "note": 38,
      "start": 43.4343,
      "duration": 0.0159,
      "velocity": 115,
      "chip": "ym2612"
    },
    {
      "channel": 4,
      "note": 80,
      "start": 43.4371,
      "duration": 0.0162,
      "velocity": 98,
      "chip": "ym2612"
    },
    {
      "channel": 3,
      "note": 83,
      "start": 43.4384,
      "duration": 0.0162,
      "velocity": 98,
      "chip": "ym2612"
    },
    {
      "channel": 2,
      "note": 56,
      "start": 43.4396,
      "duration": 0.0162,
      "velocity": 93,
      "chip": "ym2612"
    },
    {
      "channel": 0,
      "note": 38,
      "start": 43.4502,
      "duration": 0.0186,
      "velocity": 127,
      "chip": "ym2612"
    },
    {
      "channel": 2,
      "note": 56,
      "start": 43.4558,
      "duration": 0.019,
      "velocity": 93,
      "chip": "ym2612"
    },
    {
      "channel": 0,
      "note": 84,
      "start": 43.4688,
      "duration": 0.0137,
      "velocity": 127,
      "chip": "ym2612"
    },
    {
      "channel": 5,
      "note": 71,
      "start": 43.4703,
      "duration": 0.0134,
      "velocity": 102,
      "chip": "ym2612"
    },
    {
      "channel": 4,
      "note": 80,
      "start": 43.4718,
      "duration": 0.0137,
      "velocity": 98,
      "chip": "ym2612"
    },
    {
      "channel": 3,
      "note": 83,
      "start": 43.4733,
      "duration": 0.0134,
      "velocity": 98,
      "chip": "ym2612"
    },
    {
      "channel": 2,
      "note": 56,
      "start": 43.4749,
      "duration": 0.0131,
      "velocity": 93,
      "chip": "ym2612"
    },
    {
      "channel": 1,
      "note": 75,
      "start": 43.4764,
      "duration": 0.0128,
      "velocity": 103,
      "chip": "ym2612"
    },
    {
      "channel": 0,
      "note": 82,
      "start": 43.4825,
      "duration": 0.016,
      "velocity": 127,
      "chip": "ym2612"
    },
    {
      "channel": 5,
      "note": 71,
      "start": 43.4837,
      "duration": 0.016,
      "velocity": 102,
      "chip": "ym2612"
    },
    {
      "channel": 4,
      "note": 80,
      "start": 43.4855,
      "duration": 0.0158,
      "velocity": 98,
      "chip": "ym2612"
    },
    {
      "channel": 3,
      "note": 83,
      "start": 43.4867,
      "duration": 0.0159,
      "velocity": 98,
      "chip": "ym2612"
    },
    {
      "channel": 2,
      "note": 56,
      "start": 43.488,
      "duration": 0.0158,
      "velocity": 93,
      "chip": "ym2612"
    },
    {
      "channel": 1,
      "note": 75,
      "start": 43.4892,
      "duration": 0.0157,
      "velocity": 103,
      "chip": "ym2612"
    },
    {
      "channel": 0,
      "note": 81,
      "start": 43.4985,
      "duration": 0.0161,
      "velocity": 127,
      "chip": "ym2612"
    },
    {
      "channel": 5,
      "note": 71,
      "start": 43.4997,
      "duration": 0.0161,
      "velocity": 102,
      "chip": "ym2612"
    },
    {
      "channel": 4,
      "note": 80,
      "start": 43.5014,
      "duration": 0.0156,
      "velocity": 98,
      "chip": "ym2612"
    },
    {
      "channel": 3,
      "note": 83,
      "start": 43.5026,
      "duration": 0.0161,
      "velocity": 98,
      "chip": "ym2612"
    },
    {
      "channel": 2,
      "note": 56,
      "start": 43.5037,
      "duration": 0.0162,
      "velocity": 93,
      "chip": "ym2612"
    },
    {
      "channel": 1,
      "note": 75,
      "start": 43.5049,
      "duration": 0.0161,
      "velocity": 103,
      "chip": "ym2612"
    },
    {
      "channel": 0,
      "note": 79,
      "start": 43.5146,
      "duration": 0.0161,
      "velocity": 127,
      "chip": "ym2612"
    },
    {
      "channel": 5,
      "note": 71,
      "start": 43.5157,
      "duration": 0.0162,
      "velocity": 102,
      "chip": "ym2612"
    },
    {
      "channel": 4,
      "note": 80,
      "start": 43.517,
      "duration": 0.0161,
      "velocity": 98,
      "chip": "ym2612"
    },
    {
      "channel": 3,
      "note": 83,
      "start": 43.5187,
      "duration": 0.016,
      "velocity": 98,
      "chip": "ym2612"
    },
    {
      "channel": 2,
      "note": 56,
      "start": 43.5199,
      "duration": 0.0161,
      "velocity": 93,
      "chip": "ym2612"
    },
    {
      "channel": 1,
      "note": 75,
      "start": 43.521,
      "duration": 0.0161,
      "velocity": 103,
      "chip": "ym2612"
    },
    {
      "channel": 0,
      "note": 77,
      "start": 43.5307,
      "duration": 0.0161,
      "velocity": 127,
      "chip": "ym2612"
    },
    {
      "channel": 4,
      "note": 80,
      "start": 43.5331,
      "duration": 0.0161,
      "velocity": 98,
      "chip": "ym2612"
    },
    {
      "channel": 3,
      "note": 83,
      "start": 43.5348,
      "duration": 0.0156,
      "velocity": 98,
      "chip": "ym2612"
    },
    {
      "channel": 2,
      "note": 56,
      "start": 43.536,
      "duration": 0.0161,
      "velocity": 93,
      "chip": "ym2612"
    },
    {
      "channel": 1,
      "note": 75,
      "start": 43.5371,
      "duration": 0.0161,
      "velocity": 103,
      "chip": "ym2612"
    },
    {
      "channel": 0,
      "note": 76,
      "start": 43.5468,
      "duration": 0.018,
      "velocity": 127,
      "chip": "ym2612"
    },
    {
      "channel": 4,
      "note": 80,
      "start": 43.5491,
      "duration": 0.0189,
      "velocity": 98,
      "chip": "ym2612"
    },
    {
      "channel": 3,
      "note": 83,
      "start": 43.5504,
      "duration": 0.0189,
      "velocity": 98,
      "chip": "ym2612"
    },
    {
      "channel": 2,
      "note": 56,
      "start": 43.5521,
      "duration": 0.0184,
      "velocity": 93,
      "chip": "ym2612"
    },
    {
      "channel": 1,
      "note": 75,
      "start": 43.5532,
      "duration": 0.0184,
      "velocity": 103,
      "chip": "ym2612"
    },
    {
      "channel": 0,
      "note": 84,
      "start": 43.5648,
      "duration": 0.0143,
      "velocity": 127,
      "chip": "ym2612"
    },
    {
      "channel": 5,
      "note": 75,
      "start": 43.5663,
      "duration": 0.0139,
      "velocity": 102,
      "chip": "ym2612"
    },
    {
      "channel": 4,
      "note": 80,
      "start": 43.568,
      "duration": 0.0134,
      "velocity": 98,
      "chip": "ym2612"
    },
    {
      "channel": 3,
      "note": 83,
      "start": 43.5693,
      "duration": 0.0134,
      "velocity": 98,
      "chip": "ym2612"
    },
    {
      "channel": 2,
      "note": 56,
      "start": 43.5705,
      "duration": 0.0136,
      "velocity": 93,
      "chip": "ym2612"
    },
    {
      "channel": 1,
      "note": 75,
      "start": 43.5716,
      "duration": 0.0139,
      "velocity": 103,
      "chip": "ym2612"
    },
    {
      "channel": 0,
      "note": 82,
      "start": 43.579,
      "duration": 0.0161,
      "velocity": 127,
      "chip": "ym2612"
    },
    {
      "channel": 5,
      "note": 75,
      "start": 43.5802,
      "duration": 0.016,
      "velocity": 102,
      "chip": "ym2612"
    },
    {
      "channel": 4,
      "note": 80,
      "start": 43.5815,
      "duration": 0.016,
      "velocity": 98,
      "chip": "ym2612"
    },
    {
      "channel": 3,
      "note": 83,
      "start": 43.5827,
      "duration": 0.016,
      "velocity": 98,
      "chip": "ym2612"
    },
    {
      "channel": 2,
      "note": 56,
      "start": 43.5841,
      "duration": 0.0157,
      "velocity": 93,
      "chip": "ym2612"
    },
    {
      "channel": 1,
      "note": 75,
      "start": 43.5855,
      "duration": 0.016,
      "velocity": 103,
      "chip": "ym2612"
    },
    {
      "channel": 0,
      "note": 81,
      "start": 43.5951,
      "duration": 0.0161,
      "velocity": 127,
      "chip": "ym2612"
    },
    {
      "channel": 5,
      "note": 75,
      "start": 43.5963,
      "duration": 0.0161,
      "velocity": 102,
      "chip": "ym2612"
    },
    {
      "channel": 4,
      "note": 80,
      "start": 43.5974,
      "duration": 0.0162,
      "velocity": 98,
      "chip": "ym2612"
    },
    {
      "channel": 3,
      "note": 83,
      "start": 43.5986,
      "duration": 0.0163,
      "velocity": 98,
      "chip": "ym2612"
    },
    {
      "channel": 2,
      "note": 56,
      "start": 43.5998,
      "duration": 0.0163,
      "velocity": 93,
      "chip": "ym2612"
    },
    {
      "channel": 1,
      "note": 75,
      "start": 43.6015,
      "duration": 0.016,
      "velocity": 103,
      "chip": "ym2612"
    },
    {
      "channel": 0,
      "note": 79,
      "start": 43.6112,
      "duration": 0.0161,
      "velocity": 127,
      "chip": "ym2612"
    },
    {
      "channel": 5,
      "note": 75,
      "start": 43.6124,
      "duration": 0.0161,
      "velocity": 102,
      "chip": "ym2612"
    },
    {
      "channel": 4,
      "note": 80,
      "start": 43.6137,
      "duration": 0.0161,
      "velocity": 98,
      "chip": "ym2612"
    },
    {
      "channel": 3,
      "note": 83,
      "start": 43.6149,
      "duration": 0.016,
      "velocity": 98,
      "chip": "ym2612"
    },
    {
      "channel": 2,
      "note": 56,
      "start": 43.6161,
      "duration": 0.016,
      "velocity": 93,
      "chip": "ym2612"
    },
    {
      "channel": 1,
      "note": 75,
      "start": 43.6175,
      "duration": 0.0159,
      "velocity": 103,
      "chip": "ym2612"
    },
    {
      "channel": 0,
      "note": 77,
      "start": 43.6273,
      "duration": 0.0161,
      "velocity": 127,
      "chip": "ym2612"
    },
    {
      "channel": 5,
      "note": 75,
      "start": 43.6285,
      "duration": 0.0161,
      "velocity": 102,
      "chip": "ym2612"
    },
    {
      "channel": 4,
      "note": 80,
      "start": 43.6298,
      "duration": 0.0161,
      "velocity": 98,
      "chip": "ym2612"
    },
    {
      "channel": 3,
      "note": 83,
      "start": 43.631,
      "duration": 0.0161,
      "velocity": 98,
      "chip": "ym2612"
    },
    {
      "channel": 2,
      "note": 56,
      "start": 43.6322,
      "duration": 0.0162,
      "velocity": 93,
      "chip": "ym2612"
    },
    {
      "channel": 1,
      "note": 75,
      "start": 43.6333,
      "duration": 0.0161,
      "velocity": 103,
      "chip": "ym2612"
    },
    {
      "channel": 0,
      "note": 76,
      "start": 43.6434,
      "duration": 0.0179,
      "velocity": 127,
      "chip": "ym2612"
    },
    {
      "channel": 5,
      "note": 75,
      "start": 43.6446,
      "duration": 0.018,
      "velocity": 102,
      "chip": "ym2612"
    },
    {
      "channel": 4,
      "note": 80,
      "start": 43.6458,
      "duration": 0.0179,
      "velocity": 98,
      "chip": "ym2612"
    },
    {
      "channel": 3,
      "note": 83,
      "start": 43.6471,
      "duration": 0.0179,
      "velocity": 98,
      "chip": "ym2612"
    },
    {
      "channel": 2,
      "note": 56,
      "start": 43.6483,
      "duration": 0.0178,
      "velocity": 93,
      "chip": "ym2612"
    },
    {
      "channel": 1,
      "note": 75,
      "start": 43.6495,
      "duration": 0.018,
      "velocity": 103,
      "chip": "ym2612"
    },
    {
      "channel": 0,
      "note": 84,
      "start": 43.6614,
      "duration": 0.0142,
      "velocity": 127,
      "chip": "ym2612"
    },
    {
      "channel": 5,
      "note": 75,
      "start": 43.6626,
      "duration": 0.0143,
      "velocity": 102,
      "chip": "ym2612"
    },
    {
      "channel": 4,
      "note": 80,
      "start": 43.6638,
      "duration": 0.0143,
      "velocity": 98,
      "chip": "ym2612"
    },
    {
      "channel": 3,
      "note": 83,
      "start": 43.665,
      "duration": 0.0142,
      "velocity": 98,
      "chip": "ym2612"
    },
    {
      "channel": 2,
      "note": 56,
      "start": 43.6661,
      "duration": 0.0143,
      "velocity": 93,
      "chip": "ym2612"
    },
    {
      "channel": 1,
      "note": 75,
      "start": 43.6675,
      "duration": 0.0141,
      "velocity": 103,
      "chip": "ym2612"
    },
    {
      "channel": 0,
      "note": 82,
      "start": 43.6757,
      "duration": 0.016,
      "velocity": 127,
      "chip": "ym2612"
    },
    {
      "channel": 5,
      "note": 75,
      "start": 43.6768,
      "duration": 0.0161,
      "velocity": 102,
      "chip": "ym2612"
    },
    {
      "channel": 4,
      "note": 80,
      "start": 43.678,
      "duration": 0.0161,
      "velocity": 98,
      "chip": "ym2612"
    },
    {
      "channel": 3,
      "note": 83,
      "start": 43.6792,
      "duration": 0.016,
      "velocity": 98,
      "chip": "ym2612"
    },
    {
      "channel": 2,
      "note": 56,
      "start": 43.6804,
      "duration": 0.0161,
      "velocity": 93,
      "chip": "ym2612"
    },
    {
      "channel": 1,
      "note": 75,
      "start": 43.6816,
      "duration": 0.0161,
      "velocity": 103,
      "chip": "ym2612"
    },
    {
      "channel": 0,
      "note": 81,
      "start": 43.6917,
      "duration": 0.0161,
      "velocity": 127,
      "chip": "ym2612"
    },
    {
      "channel": 5,
      "note": 75,
      "start": 43.6929,
      "duration": 0.0161,
      "velocity": 102,
      "chip": "ym2612"
    },
    {
      "channel": 4,
      "note": 80,
      "start": 43.6941,
      "duration": 0.0161,
      "velocity": 98,
      "chip": "ym2612"
    },
    {
      "channel": 3,
      "note": 83,
      "start": 43.6953,
      "duration": 0.0161,
      "velocity": 98,
      "chip": "ym2612"
    },
    {
      "channel": 2,
      "note": 56,
      "start": 43.6965,
      "duration": 0.0161,
      "velocity": 93,
      "chip": "ym2612"
    },
    {
      "channel": 1,
      "note": 75,
      "start": 43.6977,
      "duration": 0.0161,
      "velocity": 103,
      "chip": "ym2612"
    },
    {
      "channel": 0,
      "note": 79,
      "start": 43.7078,
      "duration": 0.0161,
      "velocity": 127,
      "chip": "ym2612"
    },
    {
      "channel": 5,
      "note": 75,
      "start": 43.709,
      "duration": 0.0161,
      "velocity": 102,
      "chip": "ym2612"
    },
    {
      "channel": 4,
      "note": 80,
      "start": 43.7102,
      "duration": 0.0162,
      "velocity": 98,
      "chip": "ym2612"
    },
    {
      "channel": 3,
      "note": 83,
      "start": 43.7114,
      "duration": 0.0162,
      "velocity": 98,
      "chip": "ym2612"
    },
    {
      "channel": 2,
      "note": 56,
      "start": 43.7126,
      "duration": 0.0163,
      "velocity": 93,
      "chip": "ym2612"
    },
    {
      "channel": 1,
      "note": 75,
      "start": 43.7138,
      "duration": 0.0163,
      "velocity": 103,
      "chip": "ym2612"
    },
    {
      "channel": 0,
      "note": 77,
      "start": 43.7239,
      "duration": 0.0161,
      "velocity": 127,
      "chip": "ym2612"
    },
    {
      "channel": 5,
      "note": 75,
      "start": 43.7251,
      "duration": 0.0161,
      "velocity": 102,
      "chip": "ym2612"
    },
    {
      "channel": 4,
      "note": 80,
      "start": 43.7264,
      "duration": 0.0161,
      "velocity": 98,
      "chip": "ym2612"
    },
    {
      "channel": 3,
      "note": 83,
      "start": 43.7276,
      "duration": 0.0162,
      "velocity": 98,
      "chip": "ym2612"
    },
    {
      "channel": 2,
      "note": 56,
      "start": 43.7288,
      "duration": 0.0162,
      "velocity": 93,
      "chip": "ym2612"
    },
    {
      "channel": 0,
      "note": 76,
      "start": 43.74,
      "duration": 0.018,
      "velocity": 127,
      "chip": "ym2612"
    },
    {
      "channel": 5,
      "note": 75,
      "start": 43.7412,
      "duration": 0.018,
      "velocity": 102,
      "chip": "ym2612"
    },
    {
      "channel": 2,
      "note": 56,
      "start": 43.745,
      "duration": 0.0187,
      "velocity": 93,
      "chip": "ym2612"
    },
    {
      "channel": 0,
      "note": 78,
      "start": 43.758,
      "duration": 0.0142,
      "velocity": 127,
      "chip": "ym2612"
    },
    {
      "channel": 5,
      "note": 75,
      "start": 43.7592,
      "duration": 0.0143,
      "velocity": 102,
      "chip": "ym2612"
    },
    {
      "channel": 4,
      "note": 80,
      "start": 43.7607,
      "duration": 0.0139,
      "velocity": 98,
      "chip": "ym2612"
    },
    {
      "channel": 3,
      "note": 83,
      "start": 43.7622,
      "duration": 0.0137,
      "velocity": 98,
      "chip": "ym2612"
    },
    {
      "channel": 2,
      "note": 56,
      "start": 43.7638,
      "duration": 0.0134,
      "velocity": 93,
      "chip": "ym2612"
    },
    {
      "channel": 1,
      "note": 74,
      "start": 43.7653,
      "duration": 0.013,
      "velocity": 103,
      "chip": "ym2612"
    },
    {
      "channel": 0,
      "note": 76,
      "start": 43.7723,
      "duration": 0.016,
      "velocity": 127,
      "chip": "ym2612"
    },
    {
      "channel": 5,
      "note": 75,
      "start": 43.7734,
      "duration": 0.0161,
      "velocity": 102,
      "chip": "ym2612"
    },
    {
      "channel": 4,
      "note": 80,
      "start": 43.7746,
      "duration": 0.0161,
      "velocity": 98,
      "chip": "ym2612"
    },
    {
      "channel": 3,
      "note": 83,
      "start": 43.7759,
      "duration": 0.016,
      "velocity": 98,
      "chip": "ym2612"
    },
    {
      "channel": 2,
      "note": 56,
      "start": 43.7771,
      "duration": 0.0159,
      "velocity": 93,
      "chip": "ym2612"
    },
    {
      "channel": 1,
      "note": 74,
      "start": 43.7783,
      "duration": 0.0158,
      "velocity": 103,
      "chip": "ym2612"
    },
    {
      "channel": 0,
      "note": 75,
      "start": 43.7883,
      "duration": 0.0161,
      "velocity": 127,
      "chip": "ym2612"
    },
    {
      "channel": 5,
      "note": 75,
      "start": 43.7895,
      "duration": 0.0161,
      "velocity": 102,
      "chip": "ym2612"
    },
    {
      "channel": 4,
      "note": 80,
      "start": 43.7907,
      "duration": 0.0161,
      "velocity": 98,
      "chip": "ym2612"
    },
    {
      "channel": 3,
      "note": 83,
      "start": 43.7919,
      "duration": 0.0161,
      "velocity": 98,
      "chip": "ym2612"
    },
    {
      "channel": 2,
      "note": 56,
      "start": 43.793,
      "duration": 0.0161,
      "velocity": 93,
      "chip": "ym2612"
    },
    {
      "channel": 1,
      "note": 74,
      "start": 43.7942,
      "duration": 0.0161,
      "velocity": 103,
      "chip": "ym2612"
    },
    {
      "channel": 0,
      "note": 73,
      "start": 43.8044,
      "duration": 0.0161,
      "velocity": 127,
      "chip": "ym2612"
    },
    {
      "channel": 5,
      "note": 75,
      "start": 43.8056,
      "duration": 0.0162,
      "velocity": 102,
      "chip": "ym2612"
    },
    {
      "channel": 4,
      "note": 80,
      "start": 43.8068,
      "duration": 0.0161,
      "velocity": 98,
      "chip": "ym2612"
    },
    {
      "channel": 3,
      "note": 83,
      "start": 43.808,
      "duration": 0.0162,
      "velocity": 98,
      "chip": "ym2612"
    },
    {
      "channel": 2,
      "note": 56,
      "start": 43.8091,
      "duration": 0.0161,
      "velocity": 93,
      "chip": "ym2612"
    },
    {
      "channel": 1,
      "note": 74,
      "start": 43.8103,
      "duration": 0.0162,
      "velocity": 103,
      "chip": "ym2612"
    },
    {
      "channel": 0,
      "note": 71,
      "start": 43.8205,
      "duration": 0.0161,
      "velocity": 127,
      "chip": "ym2612"
    },
    {
      "channel": 4,
      "note": 80,
      "start": 43.8229,
      "duration": 0.0161,
      "velocity": 98,
      "chip": "ym2612"
    },
    {
      "channel": 3,
      "note": 83,
      "start": 43.8241,
      "duration": 0.0161,
      "velocity": 98,
      "chip": "ym2612"
    },
    {
      "channel": 2,
      "note": 56,
      "start": 43.8253,
      "duration": 0.0161,
      "velocity": 93,
      "chip": "ym2612"
    },
    {
      "channel": 1,
      "note": 74,
      "start": 43.8264,
      "duration": 0.0161,
      "velocity": 103,
      "chip": "ym2612"
    },
    {
      "channel": 0,
      "note": 70,
      "start": 43.8367,
      "duration": 0.0164,
      "velocity": 127,
      "chip": "ym2612"
    },
    {
      "channel": 4,
      "note": 80,
      "start": 43.839,
      "duration": 0.0168,
      "velocity": 98,
      "chip": "ym2612"
    },
    {
      "channel": 3,
      "note": 83,
      "start": 43.8402,
      "duration": 0.0167,
      "velocity": 98,
      "chip": "ym2612"
    },
    {
      "channel": 2,
      "note": 56,
      "start": 43.8414,
      "duration": 0.0168,
      "velocity": 93,
      "chip": "ym2612"
    },
    {
      "channel": 1,
      "note": 74,
      "start": 43.8425,
      "duration": 0.0168,
      "velocity": 103,
      "chip": "ym2612"
    },
    {
      "channel": 0,
      "note": 68,
      "start": 43.8531,
      "duration": 0.0163,
      "velocity": 127,
      "chip": "ym2612"
    },
    {
      "channel": 5,
      "note": 74,
      "start": 43.8546,
      "duration": 0.016,
      "velocity": 102,
      "chip": "ym2612"
    },
    {
      "channel": 4,
      "note": 80,
      "start": 43.8558,
      "duration": 0.016,
      "velocity": 98,
      "chip": "ym2612"
    },
    {
      "channel": 3,
      "note": 83,
      "start": 43.857,
      "duration": 0.016,
      "velocity": 98,
      "chip": "ym2612"
    },
    {
      "channel": 2,
      "note": 56,
      "start": 43.8582,
      "duration": 0.016,
      "velocity": 93,
      "chip": "ym2612"
    },
    {
      "channel": 1,
      "note": 74,
      "start": 43.8593,
      "duration": 0.016,
      "velocity": 103,
      "chip": "ym2612"
    },
    {
      "channel": 0,
      "note": 66,
      "start": 43.8694,
      "duration": 0.0161,
      "velocity": 127,
      "chip": "ym2612"
    },
    {
      "channel": 5,
      "note": 74,
      "start": 43.8706,
      "duration": 0.016,
      "velocity": 102,
      "chip": "ym2612"
    },
    {
      "channel": 4,
      "note": 80,
      "start": 43.8718,
      "duration": 0.016,
      "velocity": 98,
      "chip": "ym2612"
    },
    {
      "channel": 3,
      "note": 83,
      "start": 43.873,
      "duration": 0.016,
      "velocity": 98,
      "chip": "ym2612"
    },
    {
      "channel": 2,
      "note": 56,
      "start": 43.8741,
      "duration": 0.016,
      "velocity": 93,
      "chip": "ym2612"
    },
    {
      "channel": 1,
      "note": 74,
      "start": 43.8754,
      "duration": 0.016,
      "velocity": 103,
      "chip": "ym2612"
    },
    {
      "channel": 0,
      "note": 65,
      "start": 43.8855,
      "duration": 0.016,
      "velocity": 127,
      "chip": "ym2612"
    },
    {
      "channel": 5,
      "note": 74,
      "start": 43.8867,
      "duration": 0.0161,
      "velocity": 102,
      "chip": "ym2612"
    },
    {
      "channel": 4,
      "note": 80,
      "start": 43.8878,
      "duration": 0.0162,
      "velocity": 98,
      "chip": "ym2612"
    },
    {
      "channel": 3,
      "note": 83,
      "start": 43.889,
      "duration": 0.0163,
      "velocity": 98,
      "chip": "ym2612"
    },
    {
      "channel": 2,
      "note": 56,
      "start": 43.8902,
      "duration": 0.0163,
      "velocity": 93,
      "chip": "ym2612"
    },
    {
      "channel": 1,
      "note": 74,
      "start": 43.8914,
      "duration": 0.0163,
      "velocity": 103,
      "chip": "ym2612"
    },
    {
      "channel": 0,
      "note": 63,
      "start": 43.9016,
      "duration": 0.0158,
      "velocity": 127,
      "chip": "ym2612"
    },
    {
      "channel": 5,
      "note": 74,
      "start": 43.9028,
      "duration": 0.0161,
      "velocity": 102,
      "chip": "ym2612"
    },
    {
      "channel": 4,
      "note": 80,
      "start": 43.904,
      "duration": 0.0161,
      "velocity": 98,
      "chip": "ym2612"
    },
    {
      "channel": 3,
      "note": 83,
      "start": 43.9053,
      "duration": 0.016,
      "velocity": 98,
      "chip": "ym2612"
    },
    {
      "channel": 2,
      "note": 56,
      "start": 43.9065,
      "duration": 0.016,
      "velocity": 93,
      "chip": "ym2612"
    },
    {
      "channel": 1,
      "note": 74,
      "start": 43.9077,
      "duration": 0.016,
      "velocity": 103,
      "chip": "ym2612"
    },
    {
      "channel": 0,
      "note": 61,
      "start": 43.9173,
      "duration": 0.0159,
      "velocity": 127,
      "chip": "ym2612"
    },
    {
      "channel": 5,
      "note": 74,
      "start": 43.9189,
      "duration": 0.0161,
      "velocity": 102,
      "chip": "ym2612"
    },
    {
      "channel": 4,
      "note": 80,
      "start": 43.9201,
      "duration": 0.0161,
      "velocity": 98,
      "chip": "ym2612"
    },
    {
      "channel": 3,
      "note": 83,
      "start": 43.9213,
      "duration": 0.0162,
      "velocity": 98,
      "chip": "ym2612"
    },
    {
      "channel": 2,
      "note": 56,
      "start": 43.9226,
      "duration": 0.0161,
      "velocity": 93,
      "chip": "ym2612"
    },
    {
      "channel": 0,
      "note": 60,
      "start": 43.9332,
      "duration": 0.0161,
      "velocity": 127,
      "chip": "ym2612"
    },
    {
      "channel": 5,
      "note": 74,
      "start": 43.935,
      "duration": 0.0158,
      "velocity": 102,
      "chip": "ym2612"
    },
    {
      "channel": 4,
      "note": 80,
      "start": 43.9362,
      "duration": 0.016,
      "velocity": 98,
      "chip": "ym2612"
    },
    {
      "channel": 3,
      "note": 83,
      "start": 43.9375,
      "duration": 0.016,
      "velocity": 98,
      "chip": "ym2612"
    },
    {
      "channel": 2,
      "note": 56,
      "start": 43.9387,
      "duration": 0.0159,
      "velocity": 93,
      "chip": "ym2612"
    },
    {
      "channel": 0,
      "note": 58,
      "start": 43.9493,
      "duration": 0.0161,
      "velocity": 127,
      "chip": "ym2612"
    },
    {
      "channel": 5,
      "note": 74,
      "start": 43.9507,
      "duration": 0.0159,
      "velocity": 102,
      "chip": "ym2612"
    },
    {
      "channel": 4,
      "note": 80,
      "start": 43.9523,
      "duration": 0.0161,
      "velocity": 98,
      "chip": "ym2612"
    },
    {
      "channel": 3,
      "note": 83,
      "start": 43.9535,
      "duration": 0.0162,
      "velocity": 98,
      "chip": "ym2612"
    },
    {
      "channel": 2,
      "note": 56,
      "start": 43.9546,
      "duration": 0.0161,
      "velocity": 93,
      "chip": "ym2612"
    },
    {
      "channel": 1,
      "note": 73,
      "start": 43.9561,
      "duration": 0.0158,
      "velocity": 103,
      "chip": "ym2612"
    },
    {
      "channel": 0,
      "note": 56,
      "start": 43.9654,
      "duration": 0.0161,
      "velocity": 127,
      "chip": "ym2612"
    },
    {
      "channel": 5,
      "note": 74,
      "start": 43.9666,
      "duration": 0.0161,
      "velocity": 102,
      "chip": "ym2612"
    },
    {
      "channel": 4,
      "note": 80,
      "start": 43.9683,
      "duration": 0.0158,
      "velocity": 98,
      "chip": "ym2612"
    },
    {
      "channel": 3,
      "note": 83,
      "start": 43.9696,
      "duration": 0.0161,
      "velocity": 98,
      "chip": "ym2612"
    },
    {
      "channel": 2,
      "note": 56,
      "start": 43.9708,
      "duration": 0.0161,
      "velocity": 93,
      "chip": "ym2612"
    },
    {
      "channel": 1,
      "note": 73,
      "start": 43.972,
      "duration": 0.016,
      "velocity": 103,
      "chip": "ym2612"
    },
    {
      "channel": 0,
      "note": 54,
      "start": 43.9815,
      "duration": 0.0161,
      "velocity": 127,
      "chip": "ym2612"
    },
    {
      "channel": 5,
      "note": 74,
      "start": 43.9827,
      "duration": 0.0161,
      "velocity": 102,
      "chip": "ym2612"
    },
    {
      "channel": 4,
      "note": 80,
      "start": 43.9841,
      "duration": 0.0159,
      "velocity": 98,
      "chip": "ym2612"
    },
    {
      "channel": 3,
      "note": 83,
      "start": 43.9857,
      "duration": 0.016,
      "velocity": 98,
      "chip": "ym2612"
    },
    {
      "channel": 2,
      "note": 56,
      "start": 43.9869,
      "duration": 0.0161,
      "velocity": 93,
      "chip": "ym2612"
    },
    {
      "channel": 1,
      "note": 73,
      "start": 43.988,
      "duration": 0.0161,
      "velocity": 103,
      "chip": "ym2612"
    },
    {
      "channel": 0,
      "note": 53,
      "start": 43.9976,
      "duration": 0.0161,
      "velocity": 127,
      "chip": "ym2612"
    },
    {
      "channel": 5,
      "note": 74,
      "start": 43.9988,
      "duration": 0.0161,
      "velocity": 102,
      "chip": "ym2612"
    },
    {
      "channel": 4,
      "note": 80,
      "start": 44.0,
      "duration": 0.0161,
      "velocity": 98,
      "chip": "ym2612"
    },
    {
      "channel": 3,
      "note": 83,
      "start": 44.0017,
      "duration": 0.0159,
      "velocity": 98,
      "chip": "ym2612"
    },
    {
      "channel": 2,
      "note": 56,
      "start": 44.003,
      "duration": 0.0163,
      "velocity": 93,
      "chip": "ym2612"
    },
    {
      "channel": 1,
      "note": 73,
      "start": 44.0041,
      "duration": 0.0163,
      "velocity": 103,
      "chip": "ym2612"
    },
    {
      "channel": 0,
      "note": 51,
      "start": 44.0138,
      "duration": 0.0161,
      "velocity": 127,
      "chip": "ym2612"
    },
    {
      "channel": 4,
      "note": 80,
      "start": 44.0162,
      "duration": 0.0161,
      "velocity": 98,
      "chip": "ym2612"
    },
    {
      "channel": 3,
      "note": 83,
      "start": 44.0177,
      "duration": 0.0159,
      "velocity": 98,
      "chip": "ym2612"
    },
    {
      "channel": 2,
      "note": 56,
      "start": 44.0193,
      "duration": 0.0161,
      "velocity": 93,
      "chip": "ym2612"
    },
    {
      "channel": 0,
      "note": 49,
      "start": 44.0299,
      "duration": 0.0179,
      "velocity": 115,
      "chip": "ym2612"
    },
    {
      "channel": 2,
      "note": 56,
      "start": 44.0354,
      "duration": 0.0194,
      "velocity": 93,
      "chip": "ym2612"
    },
    {
      "channel": 0,
      "note": 36,
      "start": 44.0478,
      "duration": 0.0144,
      "velocity": 115,
      "chip": "ym2612"
    },
    {
      "channel": 5,
      "note": 73,
      "start": 44.0493,
      "duration": 0.0141,
      "velocity": 102,
      "chip": "ym2612"
    },
    {
      "channel": 4,
      "note": 81,
      "start": 44.0516,
      "duration": 0.0131,
      "velocity": 98,
      "chip": "ym2612"
    },
    {
      "channel": 3,
      "note": 85,
      "start": 44.0533,
      "duration": 0.0125,
      "velocity": 98,
      "chip": "ym2612"
    },
    {
      "channel": 2,
      "note": 57,
      "start": 44.0549,
      "duration": 0.0125,
      "velocity": 93,
      "chip": "ym2612"
    },
    {
      "channel": 1,
      "note": 76,
      "start": 44.0577,
      "duration": 0.0112,
      "velocity": 108,
      "chip": "ym2612"
    },
    {
      "channel": 0,
      "note": 36,
      "start": 44.0622,
      "duration": 0.016,
      "velocity": 115,
      "chip": "ym2612"
    },
    {
      "channel": 4,
      "note": 81,
      "start": 44.0647,
      "duration": 0.0176,
      "velocity": 98,
      "chip": "ym2612"
    },
    {
      "channel": 3,
      "note": 85,
      "start": 44.0659,
      "duration": 0.0176,
      "velocity": 98,
      "chip": "ym2612"
    },
    {
      "channel": 2,
      "note": 57,
      "start": 44.0673,
      "duration": 0.0178,
      "velocity": 93,
      "chip": "ym2612"
    },
    {
      "channel": 1,
      "note": 76,
      "start": 44.0689,
      "duration": 0.0174,
      "velocity": 108,
      "chip": "ym2612"
    },
    {
      "channel": 0,
      "note": 37,
      "start": 44.0781,
      "duration": 0.0161,
      "velocity": 115,
      "chip": "ym2612"
    },
    {
      "channel": 5,
      "note": 76,
      "start": 44.0811,
      "duration": 0.0144,
      "velocity": 108,
      "chip": "ym2612"
    },
    {
      "channel": 4,
      "note": 81,
      "start": 44.0823,
      "duration": 0.0144,
      "velocity": 98,
      "chip": "ym2612"
    },
    {
      "channel": 3,
      "note": 85,
      "start": 44.0834,
      "duration": 0.0144,
      "velocity": 98,
      "chip": "ym2612"
    },
    {
      "channel": 2,
      "note": 57,
      "start": 44.0851,
      "duration": 0.0139,
      "velocity": 93,
      "chip": "ym2612"
    },
    {
      "channel": 1,
      "note": 76,
      "start": 44.0863,
      "duration": 0.0138,
      "velocity": 108,
      "chip": "ym2612"
    },
    {
      "channel": 0,
      "note": 37,
      "start": 44.0942,
      "duration": 0.0161,
      "velocity": 115,
      "chip": "ym2612"
    },
    {
      "channel": 5,
      "note": 76,
      "start": 44.0955,
      "duration": 0.016,
      "velocity": 108,
      "chip": "ym2612"
    },
    {
      "channel": 4,
      "note": 81,
      "start": 44.0967,
      "duration": 0.016,
      "velocity": 98,
      "chip": "ym2612"
    },
    {
      "channel": 3,
      "note": 85,
      "start": 44.0978,
      "duration": 0.016,
      "velocity": 98,
      "chip": "ym2612"
    },
    {
      "channel": 2,
      "note": 57,
      "start": 44.099,
      "duration": 0.016,
      "velocity": 93,
      "chip": "ym2612"
    },
    {
      "channel": 1,
      "note": 76,
      "start": 44.1002,
      "duration": 0.016,
      "velocity": 108,
      "chip": "ym2612"
    },
    {
      "channel": 0,
      "note": 38,
      "start": 44.1103,
      "duration": 0.0161,
      "velocity": 115,
      "chip": "ym2612"
    },
    {
      "channel": 5,
      "note": 76,
      "start": 44.1115,
      "duration": 0.0161,
      "velocity": 108,
      "chip": "ym2612"
    },
    {
      "channel": 4,
      "note": 81,
      "start": 44.1127,
      "duration": 0.0161,
      "velocity": 98,
      "chip": "ym2612"
    },
    {
      "channel": 3,
      "note": 85,
      "start": 44.1138,
      "duration": 0.0161,
      "velocity": 98,
      "chip": "ym2612"
    },
    {
      "channel": 2,
      "note": 57,
      "start": 44.1151,
      "duration": 0.0161,
      "velocity": 93,
      "chip": "ym2612"
    },
    {
      "channel": 1,
      "note": 76,
      "start": 44.1162,
      "duration": 0.0161,
      "velocity": 108,
      "chip": "ym2612"
    },
    {
      "channel": 0,
      "note": 38,
      "start": 44.1264,
      "duration": 0.0161,
      "velocity": 115,
      "chip": "ym2612"
    },
    {
      "channel": 5,
      "note": 76,
      "start": 44.1276,
      "duration": 0.0161,
      "velocity": 108,
      "chip": "ym2612"
    },
    {
      "channel": 4,
      "note": 81,
      "start": 44.1288,
      "duration": 0.0161,
      "velocity": 98,
      "chip": "ym2612"
    },
    {
      "channel": 3,
      "note": 85,
      "start": 44.1299,
      "duration": 0.0162,
      "velocity": 98,
      "chip": "ym2612"
    },
    {
      "channel": 2,
      "note": 57,
      "start": 44.1311,
      "duration": 0.0161,
      "velocity": 93,
      "chip": "ym2612"
    },
    {
      "channel": 1,
      "note": 76,
      "start": 44.1323,
      "duration": 0.0161,
      "velocity": 108,
      "chip": "ym2612"
    },
    {
      "channel": 0,
      "note": 39,
      "start": 44.1425,
      "duration": 0.0161,
      "velocity": 115,
      "chip": "ym2612"
    },
    {
      "channel": 5,
      "note": 76,
      "start": 44.1437,
      "duration": 0.0161,
      "velocity": 108,
      "chip": "ym2612"
    },
    {
      "channel": 4,
      "note": 81,
      "start": 44.1449,
      "duration": 0.0161,
      "velocity": 98,
      "chip": "ym2612"
    },
    {
      "channel": 3,
      "note": 85,
      "start": 44.1461,
      "duration": 0.0161,
      "velocity": 98,
      "chip": "ym2612"
    },
    {
      "channel": 2,
      "note": 57,
      "start": 44.1472,
      "duration": 0.0161,
      "velocity": 93,
      "chip": "ym2612"
    },
    {
      "channel": 1,
      "note": 76,
      "start": 44.1484,
      "duration": 0.0161,
      "velocity": 108,
      "chip": "ym2612"
    },
    {
      "channel": 0,
      "note": 39,
      "start": 44.1586,
      "duration": 0.0162,
      "velocity": 115,
      "chip": "ym2612"
    },
    {
      "channel": 5,
      "note": 76,
      "start": 44.1598,
      "duration": 0.0161,
      "velocity": 108,
      "chip": "ym2612"
    },
    {
      "channel": 4,
      "note": 81,
      "start": 44.161,
      "duration": 0.0162,
      "velocity": 98,
      "chip": "ym2612"
    },
    {
      "channel": 3,
      "note": 85,
      "start": 44.1622,
      "duration": 0.0161,
      "velocity": 98,
      "chip": "ym2612"
    },
    {
      "channel": 2,
      "note": 57,
      "start": 44.1633,
      "duration": 0.0161,
      "velocity": 93,
      "chip": "ym2612"
    },
    {
      "channel": 1,
      "note": 76,
      "start": 44.1645,
      "duration": 0.0161,
      "velocity": 108,
      "chip": "ym2612"
    },
    {
      "channel": 0,
      "note": 40,
      "start": 44.1748,
      "duration": 0.0161,
      "velocity": 115,
      "chip": "ym2612"
    },
    {
      "channel": 5,
      "note": 76,
      "start": 44.1759,
      "duration": 0.0161,
      "velocity": 108,
      "chip": "ym2612"
    },
    {
      "channel": 4,
      "note": 81,
      "start": 44.1771,
      "duration": 0.0161,
      "velocity": 98,
      "chip": "ym2612"
    },
    {
      "channel": 3,
      "note": 85,
      "start": 44.1783,
      "duration": 0.0163,
      "velocity": 98,
      "chip": "ym2612"
    },
    {
      "channel": 2,
      "note": 57,
      "start": 44.1795,
      "duration": 0.0163,
      "velocity": 93,
      "chip": "ym2612"
    },
    {
      "channel": 1,
      "note": 76,
      "start": 44.1806,
      "duration": 0.0164,
      "velocity": 108,
      "chip": "ym2612"
    },
    {
      "channel": 0,
      "note": 40,
      "start": 44.1909,
      "duration": 0.0161,
      "velocity": 115,
      "chip": "ym2612"
    },
    {
      "channel": 5,
      "note": 76,
      "start": 44.192,
      "duration": 0.0161,
      "velocity": 108,
      "chip": "ym2612"
    },
    {
      "channel": 4,
      "note": 81,
      "start": 44.1933,
      "duration": 0.0161,
      "velocity": 98,
      "chip": "ym2612"
    },
    {
      "channel": 3,
      "note": 85,
      "start": 44.1946,
      "duration": 0.016,
      "velocity": 98,
      "chip": "ym2612"
    },
    {
      "channel": 2,
      "note": 57,
      "start": 44.1958,
      "duration": 0.016,
      "velocity": 93,
      "chip": "ym2612"
    },
    {
      "channel": 1,
      "note": 76,
      "start": 44.1971,
      "duration": 0.016,
      "velocity": 108,
      "chip": "ym2612"
    },
    {
      "channel": 0,
      "note": 40,
      "start": 44.207,
      "duration": 0.0161,
      "velocity": 115,
      "chip": "ym2612"
    },
    {
      "channel": 5,
      "note": 76,
      "start": 44.2081,
      "duration": 0.0161,
      "velocity": 108,
      "chip": "ym2612"
    },
    {
      "channel": 4,
      "note": 81,
      "start": 44.2094,
      "duration": 0.0161,
      "velocity": 98,
      "chip": "ym2612"
    },
    {
      "channel": 3,
      "note": 85,
      "start": 44.2106,
      "duration": 0.0162,
      "velocity": 98,
      "chip": "ym2612"
    },
    {
      "channel": 2,
      "note": 57,
      "start": 44.2118,
      "duration": 0.0162,
      "velocity": 93,
      "chip": "ym2612"
    },
    {
      "channel": 1,
      "note": 76,
      "start": 44.213,
      "duration": 0.0163,
      "velocity": 108,
      "chip": "ym2612"
    },
    {
      "channel": 0,
      "note": 41,
      "start": 44.2231,
      "duration": 0.0161,
      "velocity": 115,
      "chip": "ym2612"
    },
    {
      "channel": 5,
      "note": 76,
      "start": 44.2243,
      "duration": 0.0161,
      "velocity": 108,
      "chip": "ym2612"
    },
    {
      "channel": 4,
      "note": 81,
      "start": 44.2255,
      "duration": 0.016,
      "velocity": 98,
      "chip": "ym2612"
    },
    {
      "channel": 3,
      "note": 85,
      "start": 44.2268,
      "duration": 0.016,
      "velocity": 98,
      "chip": "ym2612"
    },
    {
      "channel": 2,
      "note": 57,
      "start": 44.228,
      "duration": 0.0159,
      "velocity": 93,
      "chip": "ym2612"
    },
    {
      "channel": 1,
      "note": 76,
      "start": 44.2293,
      "duration": 0.0159,
      "velocity": 108,
      "chip": "ym2612"
    },
    {
      "channel": 0,
      "note": 41,
      "start": 44.2392,
      "duration": 0.0161,
      "velocity": 115,
      "chip": "ym2612"
    },
    {
      "channel": 5,
      "note": 76,
      "start": 44.2404,
      "duration": 0.0162,
      "velocity": 108,
      "chip": "ym2612"
    },
    {
      "channel": 4,
      "note": 81,
      "start": 44.2416,
      "duration": 0.0161,
      "velocity": 98,
      "chip": "ym2612"
    },
    {
      "channel": 3,
      "note": 85,
      "start": 44.2428,
      "duration": 0.0161,
      "velocity": 98,
      "chip": "ym2612"
    },
    {
      "channel": 2,
      "note": 57,
      "start": 44.2439,
      "duration": 0.0161,
      "velocity": 93,
      "chip": "ym2612"
    },
    {
      "channel": 1,
      "note": 76,
      "start": 44.2451,
      "duration": 0.0161,
      "velocity": 108,
      "chip": "ym2612"
    },
    {
      "channel": 0,
      "note": 42,
      "start": 44.2553,
      "duration": 0.0161,
      "velocity": 115,
      "chip": "ym2612"
    },
    {
      "channel": 5,
      "note": 76,
      "start": 44.2565,
      "duration": 0.016,
      "velocity": 108,
      "chip": "ym2612"
    },
    {
      "channel": 4,
      "note": 81,
      "start": 44.2577,
      "duration": 0.016,
      "velocity": 98,
      "chip": "ym2612"
    },
    {
      "channel": 3,
      "note": 85,
      "start": 44.2589,
      "duration": 0.016,
      "velocity": 98,
      "chip": "ym2612"
    },
    {
      "channel": 2,
      "note": 57,
      "start": 44.26,
      "duration": 0.016,
      "velocity": 93,
      "chip": "ym2612"
    },
    {
      "channel": 1,
      "note": 76,
      "start": 44.2612,
      "duration": 0.016,
      "velocity": 108,
      "chip": "ym2612"
    },
    {
      "channel": 0,
      "note": 42,
      "start": 44.2713,
      "duration": 0.0161,
      "velocity": 115,
      "chip": "ym2612"
    },
    {
      "channel": 5,
      "note": 76,
      "start": 44.2726,
      "duration": 0.0161,
      "velocity": 108,
      "chip": "ym2612"
    },
    {
      "channel": 4,
      "note": 81,
      "start": 44.2737,
      "duration": 0.0161,
      "velocity": 98,
      "chip": "ym2612"
    },
    {
      "channel": 3,
      "note": 85,
      "start": 44.2749,
      "duration": 0.0161,
      "velocity": 98,
      "chip": "ym2612"
    },
    {
      "channel": 2,
      "note": 57,
      "start": 44.2761,
      "duration": 0.0161,
      "velocity": 93,
      "chip": "ym2612"
    },
    {
      "channel": 1,
      "note": 76,
      "start": 44.2773,
      "duration": 0.0161,
      "velocity": 108,
      "chip": "ym2612"
    },
    {
      "channel": 0,
      "note": 43,
      "start": 44.2874,
      "duration": 0.0162,
      "velocity": 115,
      "chip": "ym2612"
    },
    {
      "channel": 5,
      "note": 76,
      "start": 44.2886,
      "duration": 0.0162,
      "velocity": 108,
      "chip": "ym2612"
    },
    {
      "channel": 4,
      "note": 81,
      "start": 44.2898,
      "duration": 0.0163,
      "velocity": 98,
      "chip": "ym2612"
    },
    {
      "channel": 3,
      "note": 85,
      "start": 44.291,
      "duration": 0.0163,
      "velocity": 98,
      "chip": "ym2612"
    },
    {
      "channel": 2,
      "note": 57,
      "start": 44.2922,
      "duration": 0.0164,
      "velocity": 93,
      "chip": "ym2612"
    },
    {
      "channel": 1,
      "note": 76,
      "start": 44.2934,
      "duration": 0.0164,
      "velocity": 108,
      "chip": "ym2612"
    },
    {
      "channel": 0,
      "note": 43,
      "start": 44.3037,
      "duration": 0.0163,
      "velocity": 115,
      "chip": "ym2612"
    },
    {
      "channel": 5,
      "note": 76,
      "start": 44.3048,
      "duration": 0.0164,
      "velocity": 108,
      "chip": "ym2612"
    },
    {
      "channel": 4,
      "note": 81,
      "start": 44.3061,
      "duration": 0.0164,
      "velocity": 98,
      "chip": "ym2612"
    },
    {
      "channel": 3,
      "note": 85,
      "start": 44.3073,
      "duration": 0.0165,
      "velocity": 98,
      "chip": "ym2612"
    },
    {
      "channel": 2,
      "note": 57,
      "start": 44.3085,
      "duration": 0.0165,
      "velocity": 93,
      "chip": "ym2612"
    },
    {
      "channel": 1,
      "note": 76,
      "start": 44.3098,
      "duration": 0.0165,
      "velocity": 108,
      "chip": "ym2612"
    },
    {
      "channel": 0,
      "note": 44,
      "start": 44.32,
      "duration": 0.0181,
      "velocity": 124,
      "chip": "ym2612"
    },
    {
      "channel": 5,
      "note": 76,
      "start": 44.3212,
      "duration": 0.0183,
      "velocity": 108,
      "chip": "ym2612"
    },
    {
      "channel": 2,
      "note": 57,
      "start": 44.325,
      "duration": 0.0188,
      "velocity": 93,
      "chip": "ym2612"
    },
    {
      "channel": 0,
      "note": 84,
      "start": 44.3382,
      "duration": 0.0143,
      "velocity": 124,
      "chip": "ym2612"
    },
    {
      "channel": 5,
      "note": 76,
      "start": 44.3395,
      "duration": 0.0143,
      "velocity": 108,
      "chip": "ym2612"
    },
    {
      "channel": 4,
      "note": 81,
      "start": 44.3409,
      "duration": 0.0141,
      "velocity": 98,
      "chip": "ym2612"
    },
    {
      "channel": 3,
      "note": 85,
      "start": 44.3424,
      "duration": 0.0139,
      "velocity": 98,
      "chip": "ym2612"
    },
    {
      "channel": 2,
      "note": 57,
      "start": 44.3439,
      "duration": 0.0136,
      "velocity": 93,
      "chip": "ym2612"
    },
    {
      "channel": 1,
      "note": 76,
      "start": 44.3453,
      "duration": 0.0134,
      "velocity": 108,
      "chip": "ym2612"
    },
    {
      "channel": 0,
      "note": 82,
      "start": 44.3525,
      "duration": 0.016,
      "velocity": 124,
      "chip": "ym2612"
    },
    {
      "channel": 4,
      "note": 81,
      "start": 44.355,
      "duration": 0.0162,
      "velocity": 98,
      "chip": "ym2612"
    },
    {
      "channel": 3,
      "note": 85,
      "start": 44.3563,
      "duration": 0.0161,
      "velocity": 98,
      "chip": "ym2612"
    },
    {
      "channel": 2,
      "note": 57,
      "start": 44.3575,
      "duration": 0.016,
      "velocity": 93,
      "chip": "ym2612"
    },
    {
      "channel": 1,
      "note": 76,
      "start": 44.3587,
      "duration": 0.016,
      "velocity": 108,
      "chip": "ym2612"
    },
    {
      "channel": 0,
      "note": 80,
      "start": 44.3685,
      "duration": 0.0158,
      "velocity": 124,
      "chip": "ym2612"
    },
    {
      "channel": 5,
      "note": 76,
      "start": 44.37,
      "duration": 0.0159,
      "velocity": 108,
      "chip": "ym2612"
    },
    {
      "channel": 4,
      "note": 81,
      "start": 44.3712,
      "duration": 0.0158,
      "velocity": 98,
      "chip": "ym2612"
    },
    {
      "channel": 3,
      "note": 85,
      "start": 44.3724,
      "duration": 0.0159,
      "velocity": 98,
      "chip": "ym2612"
    },
    {
      "channel": 2,
      "note": 57,
      "start": 44.3735,
      "duration": 0.0159,
      "velocity": 93,
      "chip": "ym2612"
    },
    {
      "channel": 1,
      "note": 76,
      "start": 44.3747,
      "duration": 0.0159,
      "velocity": 108,
      "chip": "ym2612"
    },
    {
      "channel": 0,
      "note": 77,
      "start": 44.3843,
      "duration": 0.0158,
      "velocity": 124,
      "chip": "ym2612"
    },
    {
      "channel": 5,
      "note": 76,
      "start": 44.3859,
      "duration": 0.016,
      "velocity": 108,
      "chip": "ym2612"
    },
    {
      "channel": 4,
      "note": 81,
      "start": 44.3871,
      "duration": 0.016,
      "velocity": 98,
      "chip": "ym2612"
    },
    {
      "channel": 3,
      "note": 85,
      "start": 44.3883,
      "duration": 0.016,
      "velocity": 98,
      "chip": "ym2612"
    },
    {
      "channel": 2,
      "note": 57,
      "start": 44.3894,
      "duration": 0.016,
      "velocity": 93,
      "chip": "ym2612"
    },
    {
      "channel": 1,
      "note": 76,
      "start": 44.3906,
      "duration": 0.016,
      "velocity": 108,
      "chip": "ym2612"
    },
    {
      "channel": 0,
      "note": 75,
      "start": 44.4002,
      "duration": 0.0161,
      "velocity": 124,
      "chip": "ym2612"
    },
    {
      "channel": 5,
      "note": 76,
      "start": 44.402,
      "duration": 0.016,
      "velocity": 108,
      "chip": "ym2612"
    },
    {
      "channel": 4,
      "note": 81,
      "start": 44.4031,
      "duration": 0.0161,
      "velocity": 98,
      "chip": "ym2612"
    },
    {
      "channel": 3,
      "note": 85,
      "start": 44.4043,
      "duration": 0.0161,
      "velocity": 98,
      "chip": "ym2612"
    },
    {
      "channel": 2,
      "note": 57,
      "start": 44.4054,
      "duration": 0.0161,
      "velocity": 93,
      "chip": "ym2612"
    },
    {
      "channel": 1,
      "note": 76,
      "start": 44.4066,
      "duration": 0.0161,
      "velocity": 108,
      "chip": "ym2612"
    },
    {
      "channel": 0,
      "note": 72,
      "start": 44.4163,
      "duration": 0.0161,
      "velocity": 124,
      "chip": "ym2612"
    },
    {
      "channel": 5,
      "note": 76,
      "start": 44.418,
      "duration": 0.0156,
      "velocity": 108,
      "chip": "ym2612"
    },
    {
      "channel": 4,
      "note": 81,
      "start": 44.4192,
      "duration": 0.0161,
      "velocity": 98,
      "chip": "ym2612"
    },
    {
      "channel": 3,
      "note": 85,
      "start": 44.4204,
      "duration": 0.0161,
      "velocity": 98,
      "chip": "ym2612"
    },
    {
      "channel": 2,
      "note": 57,
      "start": 44.4215,
      "duration": 0.0161,
      "velocity": 93,
      "chip": "ym2612"
    },
    {
      "channel": 1,
      "note": 76,
      "start": 44.4227,
      "duration": 0.0162,
      "velocity": 108,
      "chip": "ym2612"
    },
    {
      "channel": 0,
      "note": 70,
      "start": 44.4324,
      "duration": 0.0161,
      "velocity": 124,
      "chip": "ym2612"
    },
    {
      "channel": 5,
      "note": 76,
      "start": 44.4336,
      "duration": 0.0161,
      "velocity": 108,
      "chip": "ym2612"
    },
    {
      "channel": 4,
      "note": 81,
      "start": 44.4353,
      "duration": 0.016,
      "velocity": 98,
      "chip": "ym2612"
    },
    {
      "channel": 3,
      "note": 85,
      "start": 44.4365,
      "duration": 0.0161,
      "velocity": 98,
      "chip": "ym2612"
    },
    {
      "channel": 2,
      "note": 57,
      "start": 44.4377,
      "duration": 0.0161,
      "velocity": 93,
      "chip": "ym2612"
    },
    {
      "channel": 1,
      "note": 76,
      "start": 44.4388,
      "duration": 0.0161,
      "velocity": 108,
      "chip": "ym2612"
    },
    {
      "channel": 0,
      "note": 68,
      "start": 44.4484,
      "duration": 0.0162,
      "velocity": 124,
      "chip": "ym2612"
    },
    {
      "channel": 5,
      "note": 76,
      "start": 44.4497,
      "duration": 0.0161,
      "velocity": 108,
      "chip": "ym2612"
    },
    {
      "channel": 4,
      "note": 81,
      "start": 44.4514,
      "duration": 0.0156,
      "velocity": 98,
      "chip": "ym2612"
    },
    {
      "channel": 3,
      "note": 85,
      "start": 44.4526,
      "duration": 0.0161,
      "velocity": 98,
      "chip": "ym2612"
    },
    {
      "channel": 2,
      "note": 57,
      "start": 44.4538,
      "duration": 0.0161,
      "velocity": 93,
      "chip": "ym2612"
    },
    {
      "channel": 1,
      "note": 76,
      "start": 44.4549,
      "duration": 0.0161,
      "velocity": 108,
      "chip": "ym2612"
    },
    {
      "channel": 0,
      "note": 65,
      "start": 44.4646,
      "duration": 0.0161,
      "velocity": 124,
      "chip": "ym2612"
    },
    {
      "channel": 5,
      "note": 76,
      "start": 44.4657,
      "duration": 0.0161,
      "velocity": 108,
      "chip": "ym2612"
    },
    {
      "channel": 4,
      "note": 81,
      "start": 44.467,
      "duration": 0.0161,
      "velocity": 98,
      "chip": "ym2612"
    },
    {
      "channel": 3,
      "note": 85,
      "start": 44.4687,
      "duration": 0.0162,
      "velocity": 98,
      "chip": "ym2612"
    },
    {
      "channel": 2,
      "note": 57,
      "start": 44.4699,
      "duration": 0.0163,
      "velocity": 93,
      "chip": "ym2612"
    },
    {
      "channel": 1,
      "note": 76,
      "start": 44.471,
      "duration": 0.0164,
      "velocity": 108,
      "chip": "ym2612"
    },
    {
      "channel": 0,
      "note": 63,
      "start": 44.4807,
      "duration": 0.0153,
      "velocity": 1,
      "chip": "ym2612"
    },
    {
      "channel": 5,
      "note": 76,
      "start": 44.4818,
      "duration": 0.0153,
      "velocity": 108,
      "chip": "ym2612"
    },
    {
      "channel": 4,
      "note": 81,
      "start": 44.4831,
      "duration": 0.0153,
      "velocity": 98,
      "chip": "ym2612"
    },
    {
      "channel": 3,
      "note": 85,
      "start": 44.4849,
      "duration": 0.0147,
      "velocity": 98,
      "chip": "ym2612"
    },
    {
      "channel": 2,
      "note": 57,
      "start": 44.4862,
      "duration": 0.0148,
      "velocity": 93,
      "chip": "ym2612"
    },
    {
      "channel": 1,
      "note": 76,
      "start": 44.4874,
      "duration": 0.0151,
      "velocity": 108,
      "chip": "ym2612"
    },
    {
      "channel": 5,
      "note": 76,
      "start": 44.4971,
      "duration": 0.0154,
      "velocity": 108,
      "chip": "ym2612"
    },
    {
      "channel": 4,
      "note": 81,
      "start": 44.4984,
      "duration": 0.0153,
      "velocity": 98,
      "chip": "ym2612"
    },
    {
      "channel": 3,
      "note": 85,
      "start": 44.4996,
      "duration": 0.0154,
      "velocity": 98,
      "chip": "ym2612"
    },
    {
      "channel": 2,
      "note": 57,
      "start": 44.501,
      "duration": 0.0152,
      "velocity": 93,
      "chip": "ym2612"
    },
    {
      "channel": 1,
      "note": 76,
      "start": 44.5026,
      "duration": 0.015,
      "velocity": 108,
      "chip": "ym2612"
    },
    {
      "channel": 5,
      "note": 76,
      "start": 44.5124,
      "duration": 0.0161,
      "velocity": 108,
      "chip": "ym2612"
    },
    {
      "channel": 4,
      "note": 81,
      "start": 44.5137,
      "duration": 0.016,
      "velocity": 98,
      "chip": "ym2612"
    },
    {
      "channel": 3,
      "note": 85,
      "start": 44.515,
      "duration": 0.0159,
      "velocity": 98,
      "chip": "ym2612"
    },
    {
      "channel": 2,
      "note": 57,
      "start": 44.5162,
      "duration": 0.0159,
      "velocity": 93,
      "chip": "ym2612"
    },
    {
      "channel": 1,
      "note": 76,
      "start": 44.5176,
      "duration": 0.0156,
      "velocity": 108,
      "chip": "ym2612"
    },
    {
      "channel": 5,
      "note": 76,
      "start": 44.5285,
      "duration": 0.0161,
      "velocity": 108,
      "chip": "ym2612"
    },
    {
      "channel": 4,
      "note": 81,
      "start": 44.5297,
      "duration": 0.0161,
      "velocity": 98,
      "chip": "ym2612"
    },
    {
      "channel": 3,
      "note": 85,
      "start": 44.5309,
      "duration": 0.0161,
      "velocity": 98,
      "chip": "ym2612"
    },
    {
      "channel": 2,
      "note": 57,
      "start": 44.532,
      "duration": 0.0161,
      "velocity": 93,
      "chip": "ym2612"
    },
    {
      "channel": 1,
      "note": 76,
      "start": 44.5332,
      "duration": 0.0161,
      "velocity": 108,
      "chip": "ym2612"
    },
    {
      "channel": 5,
      "note": 76,
      "start": 44.5446,
      "duration": 0.016,
      "velocity": 108,
      "chip": "ym2612"
    },
    {
      "channel": 4,
      "note": 81,
      "start": 44.5458,
      "duration": 0.016,
      "velocity": 98,
      "chip": "ym2612"
    },
    {
      "channel": 3,
      "note": 85,
      "start": 44.547,
      "duration": 0.016,
      "velocity": 98,
      "chip": "ym2612"
    },
    {
      "channel": 2,
      "note": 57,
      "start": 44.5482,
      "duration": 0.016,
      "velocity": 93,
      "chip": "ym2612"
    },
    {
      "channel": 1,
      "note": 76,
      "start": 44.5493,
      "duration": 0.016,
      "velocity": 108,
      "chip": "ym2612"
    },
    {
      "channel": 5,
      "note": 76,
      "start": 44.5607,
      "duration": 0.0161,
      "velocity": 108,
      "chip": "ym2612"
    },
    {
      "channel": 4,
      "note": 81,
      "start": 44.5619,
      "duration": 0.0161,
      "velocity": 98,
      "chip": "ym2612"
    },
    {
      "channel": 3,
      "note": 85,
      "start": 44.563,
      "duration": 0.0161,
      "velocity": 98,
      "chip": "ym2612"
    },
    {
      "channel": 2,
      "note": 57,
      "start": 44.5642,
      "duration": 0.0161,
      "velocity": 93,
      "chip": "ym2612"
    },
    {
      "channel": 1,
      "note": 76,
      "start": 44.5654,
      "duration": 0.0161,
      "velocity": 108,
      "chip": "ym2612"
    },
    {
      "channel": 5,
      "note": 76,
      "start": 44.5768,
      "duration": 0.0161,
      "velocity": 108,
      "chip": "ym2612"
    },
    {
      "channel": 4,
      "note": 81,
      "start": 44.578,
      "duration": 0.0162,
      "velocity": 98,
      "chip": "ym2612"
    },
    {
      "channel": 3,
      "note": 85,
      "start": 44.5792,
      "duration": 0.0162,
      "velocity": 98,
      "chip": "ym2612"
    },
    {
      "channel": 2,
      "note": 57,
      "start": 44.5803,
      "duration": 0.0163,
      "velocity": 93,
      "chip": "ym2612"
    },
    {
      "channel": 1,
      "note": 76,
      "start": 44.5815,
      "duration": 0.0163,
      "velocity": 108,
      "chip": "ym2612"
    },
    {
      "channel": 5,
      "note": 76,
      "start": 44.5929,
      "duration": 0.0161,
      "velocity": 108,
      "chip": "ym2612"
    },
    {
      "channel": 4,
      "note": 81,
      "start": 44.5941,
      "duration": 0.0161,
      "velocity": 98,
      "chip": "ym2612"
    },
    {
      "channel": 3,
      "note": 85,
      "start": 44.5954,
      "duration": 0.0161,
      "velocity": 98,
      "chip": "ym2612"
    },
    {
      "channel": 2,
      "note": 57,
      "start": 44.5966,
      "duration": 0.0162,
      "velocity": 93,
      "chip": "ym2612"
    },
    {
      "channel": 1,
      "note": 76,
      "start": 44.5979,
      "duration": 0.0162,
      "velocity": 108,
      "chip": "ym2612"
    },
    {
      "channel": 5,
      "note": 76,
      "start": 44.609,
      "duration": 0.0197,
      "velocity": 108,
      "chip": "ym2612"
    },
    {
      "channel": 2,
      "note": 57,
      "start": 44.6128,
      "duration": 0.0204,
      "velocity": 93,
      "chip": "ym2612"
    },
    {
      "channel": 0,
      "note": 36,
      "start": 44.6275,
      "duration": 0.0143,
      "velocity": 115,
      "chip": "ym2612"
    },
    {
      "channel": 5,
      "note": 76,
      "start": 44.6287,
      "duration": 0.0144,
      "velocity": 108,
      "chip": "ym2612"
    },
    {
      "channel": 4,
      "note": 81,
      "start": 44.6302,
      "duration": 0.0141,
      "velocity": 98,
      "chip": "ym2612"
    },
    {
      "channel": 3,
      "note": 85,
      "start": 44.6317,
      "duration": 0.0137,
      "velocity": 98,
      "chip": "ym2612"
    },
    {
      "channel": 2,
      "note": 57,
      "start": 44.6332,
      "duration": 0.0135,
      "velocity": 93,
      "chip": "ym2612"
    },
    {
      "channel": 1,
      "note": 76,
      "start": 44.6352,
      "duration": 0.0127,
      "velocity": 108,
      "chip": "ym2612"
    },
    {
      "channel": 0,
      "note": 36,
      "start": 44.6418,
      "duration": 0.016,
      "velocity": 115,
      "chip": "ym2612"
    },
    {
      "channel": 4,
      "note": 81,
      "start": 44.6442,
      "duration": 0.0162,
      "velocity": 98,
      "chip": "ym2612"
    },
    {
      "channel": 3,
      "note": 85,
      "start": 44.6455,
      "duration": 0.0161,
      "velocity": 98,
      "chip": "ym2612"
    },
    {
      "channel": 2,
      "note": 57,
      "start": 44.6467,
      "duration": 0.016,
      "velocity": 93,
      "chip": "ym2612"
    },
    {
      "channel": 1,
      "note": 76,
      "start": 44.6479,
      "duration": 0.016,
      "velocity": 108,
      "chip": "ym2612"
    },
    {
      "channel": 0,
      "note": 37,
      "start": 44.6578,
      "duration": 0.0161,
      "velocity": 115,
      "chip": "ym2612"
    },
    {
      "channel": 5,
      "note": 76,
      "start": 44.6593,
      "duration": 0.0159,
      "velocity": 108,
      "chip": "ym2612"
    },
    {
      "channel": 4,
      "note": 81,
      "start": 44.6604,
      "duration": 0.0159,
      "velocity": 98,
      "chip": "ym2612"
    },
    {
      "channel": 3,
      "note": 85,
      "start": 44.6616,
      "duration": 0.0159,
      "velocity": 98,
      "chip": "ym2612"
    },
    {
      "channel": 2,
      "note": 57,
      "start": 44.6628,
      "duration": 0.0159,
      "velocity": 93,
      "chip": "ym2612"
    },
    {
      "channel": 1,
      "note": 76,
      "start": 44.6639,
      "duration": 0.0159,
      "velocity": 108,
      "chip": "ym2612"
    },
    {
      "channel": 0,
      "note": 37,
      "start": 44.6739,
      "duration": 0.0161,
      "velocity": 115,
      "chip": "ym2612"
    },
    {
      "channel": 5,
      "note": 76,
      "start": 44.6752,
      "duration": 0.016,
      "velocity": 108,
      "chip": "ym2612"
    },
    {
      "channel": 4,
      "note": 81,
      "start": 44.6763,
      "duration": 0.016,
      "velocity": 98,
      "chip": "ym2612"
    },
    {
      "channel": 3,
      "note": 85,
      "start": 44.6775,
      "duration": 0.016,
      "velocity": 98,
      "chip": "ym2612"
    },
    {
      "channel": 2,
      "note": 57,
      "start": 44.6787,
      "duration": 0.016,
      "velocity": 93,
      "chip": "ym2612"
    },
    {
      "channel": 1,
      "note": 76,
      "start": 44.6798,
      "duration": 0.016,
      "velocity": 108,
      "chip": "ym2612"
    },
    {
      "channel": 0,
      "note": 38,
      "start": 44.69,
      "duration": 0.0161,
      "velocity": 115,
      "chip": "ym2612"
    },
    {
      "channel": 5,
      "note": 76,
      "start": 44.6912,
      "duration": 0.0161,
      "velocity": 108,
      "chip": "ym2612"
    },
    {
      "channel": 4,
      "note": 81,
      "start": 44.6923,
      "duration": 0.0161,
      "velocity": 98,
      "chip": "ym2612"
    },
    {
      "channel": 3,
      "note": 85,
      "start": 44.6935,
      "duration": 0.0161,
      "velocity": 98,
      "chip": "ym2612"
    },
    {
      "channel": 2,
      "note": 57,
      "start": 44.6947,
      "duration": 0.0161,
      "velocity": 93,
      "chip": "ym2612"
    },
    {
      "channel": 1,
      "note": 76,
      "start": 44.6958,
      "duration": 0.0161,
      "velocity": 108,
      "chip": "ym2612"
    },
    {
      "channel": 0,
      "note": 38,
      "start": 44.7061,
      "duration": 0.0161,
      "velocity": 115,
      "chip": "ym2612"
    },
    {
      "channel": 5,
      "note": 76,
      "start": 44.7073,
      "duration": 0.0161,
      "velocity": 108,
      "chip": "ym2612"
    },
    {
      "channel": 4,
      "note": 81,
      "start": 44.7084,
      "duration": 0.0161,
      "velocity": 98,
      "chip": "ym2612"
    },
    {
      "channel": 3,
      "note": 85,
      "start": 44.7096,
      "duration": 0.0162,
      "velocity": 98,
      "chip": "ym2612"
    },
    {
      "channel": 2,
      "note": 57,
      "start": 44.7108,
      "duration": 0.0161,
      "velocity": 93,
      "chip": "ym2612"
    },
    {
      "channel": 1,
      "note": 76,
      "start": 44.7119,
      "duration": 0.0162,
      "velocity": 108,
      "chip": "ym2612"
    },
    {
      "channel": 0,
      "note": 39,
      "start": 44.7222,
      "duration": 0.0161,
      "velocity": 115,
      "chip": "ym2612"
    },
    {
      "channel": 5,
      "note": 76,
      "start": 44.7234,
      "duration": 0.0161,
      "velocity": 108,
      "chip": "ym2612"
    },
    {
      "channel": 4,
      "note": 81,
      "start": 44.7245,
      "duration": 0.0161,
      "velocity": 98,
      "chip": "ym2612"
    },
    {
      "channel": 3,
      "note": 85,
      "start": 44.7257,
      "duration": 0.0161,
      "velocity": 98,
      "chip": "ym2612"
    },
    {
      "channel": 2,
      "note": 57,
      "start": 44.7269,
      "duration": 0.0161,
      "velocity": 93,
      "chip": "ym2612"
    },
    {
      "channel": 1,
      "note": 76,
      "start": 44.7281,
      "duration": 0.0161,
      "velocity": 108,
      "chip": "ym2612"
    },
    {
      "channel": 0,
      "note": 39,
      "start": 44.7383,
      "duration": 0.0161,
      "velocity": 115,
      "chip": "ym2612"
    },
    {
      "channel": 5,
      "note": 76,
      "start": 44.7395,
      "duration": 0.0161,
      "velocity": 108,
      "chip": "ym2612"
    },
    {
      "channel": 4,
      "note": 81,
      "start": 44.7406,
      "duration": 0.0161,
      "velocity": 98,
      "chip": "ym2612"
    },
    {
      "channel": 3,
      "note": 85,
      "start": 44.7418,
      "duration": 0.0161,
      "velocity": 98,
      "chip": "ym2612"
    },
    {
      "channel": 2,
      "note": 57,
      "start": 44.743,
      "duration": 0.0161,
      "velocity": 93,
      "chip": "ym2612"
    },
    {
      "channel": 1,
      "note": 76,
      "start": 44.7442,
      "duration": 0.0161,
      "velocity": 108,
      "chip": "ym2612"
    },
    {
      "channel": 0,
      "note": 40,
      "start": 44.7544,
      "duration": 0.0162,
      "velocity": 115,
      "chip": "ym2612"
    },
    {
      "channel": 5,
      "note": 76,
      "start": 44.7556,
      "duration": 0.0161,
      "velocity": 108,
      "chip": "ym2612"
    },
    {
      "channel": 4,
      "note": 81,
      "start": 44.7567,
      "duration": 0.0163,
      "velocity": 98,
      "chip": "ym2612"
    },
    {
      "channel": 3,
      "note": 85,
      "start": 44.7579,
      "duration": 0.0163,
      "velocity": 98,
      "chip": "ym2612"
    },
    {
      "channel": 2,
      "note": 57,
      "start": 44.7591,
      "duration": 0.0164,
      "velocity": 93,
      "chip": "ym2612"
    },
    {
      "channel": 1,
      "note": 76,
      "start": 44.7603,
      "duration": 0.0164,
      "velocity": 108,
      "chip": "ym2612"
    },
    {
      "channel": 0,
      "note": 40,
      "start": 44.7706,
      "duration": 0.0163,
      "velocity": 115,
      "chip": "ym2612"
    },
    {
      "channel": 5,
      "note": 76,
      "start": 44.7717,
      "duration": 0.0163,
      "velocity": 108,
      "chip": "ym2612"
    },
    {
      "channel": 4,
      "note": 81,
      "start": 44.773,
      "duration": 0.0162,
      "velocity": 98,
      "chip": "ym2612"
    },
    {
      "channel": 3,
      "note": 85,
      "start": 44.7743,
      "duration": 0.0162,
      "velocity": 98,
      "chip": "ym2612"
    },
    {
      "channel": 2,
      "note": 57,
      "start": 44.7755,
      "duration": 0.0162,
      "velocity": 93,
      "chip": "ym2612"
    },
    {
      "channel": 1,
      "note": 76,
      "start": 44.7767,
      "duration": 0.0162,
      "velocity": 108,
      "chip": "ym2612"
    },
    {
      "channel": 0,
      "note": 40,
      "start": 44.7869,
      "duration": 0.0163,
      "velocity": 115,
      "chip": "ym2612"
    },
    {
      "channel": 5,
      "note": 76,
      "start": 44.788,
      "duration": 0.0164,
      "velocity": 108,
      "chip": "ym2612"
    },
    {
      "channel": 4,
      "note": 81,
      "start": 44.7892,
      "duration": 0.0165,
      "velocity": 98,
      "chip": "ym2612"
    },
    {
      "channel": 3,
      "note": 85,
      "start": 44.7905,
      "duration": 0.0164,
      "velocity": 98,
      "chip": "ym2612"
    },
    {
      "channel": 2,
      "note": 57,
      "start": 44.7917,
      "duration": 0.0165,
      "velocity": 93,
      "chip": "ym2612"
    },
    {
      "channel": 1,
      "note": 76,
      "start": 44.7929,
      "duration": 0.0165,
      "velocity": 108,
      "chip": "ym2612"
    },
    {
      "channel": 0,
      "note": 41,
      "start": 44.8032,
      "duration": 0.0162,
      "velocity": 115,
      "chip": "ym2612"
    },
    {
      "channel": 5,
      "note": 76,
      "start": 44.8044,
      "duration": 0.0162,
      "velocity": 108,
      "chip": "ym2612"
    },
    {
      "channel": 4,
      "note": 81,
      "start": 44.8057,
      "duration": 0.0161,
      "velocity": 98,
      "chip": "ym2612"
    },
    {
      "channel": 3,
      "note": 85,
      "start": 44.8069,
      "duration": 0.0161,
      "velocity": 98,
      "chip": "ym2612"
    },
    {
      "channel": 2,
      "note": 57,
      "start": 44.8082,
      "duration": 0.016,
      "velocity": 93,
      "chip": "ym2612"
    },
    {
      "channel": 1,
      "note": 76,
      "start": 44.8094,
      "duration": 0.016,
      "velocity": 108,
      "chip": "ym2612"
    },
    {
      "channel": 0,
      "note": 41,
      "start": 44.8194,
      "duration": 0.0162,
      "velocity": 115,
      "chip": "ym2612"
    },
    {
      "channel": 5,
      "note": 76,
      "start": 44.8206,
      "duration": 0.0161,
      "velocity": 108,
      "chip": "ym2612"
    },
    {
      "channel": 4,
      "note": 81,
      "start": 44.8218,
      "duration": 0.0162,
      "velocity": 98,
      "chip": "ym2612"
    },
    {
      "channel": 3,
      "note": 85,
      "start": 44.823,
      "duration": 0.0161,
      "velocity": 98,
      "chip": "ym2612"
    },
    {
      "channel": 2,
      "note": 57,
      "start": 44.8241,
      "duration": 0.0161,
      "velocity": 93,
      "chip": "ym2612"
    },
    {
      "channel": 1,
      "note": 76,
      "start": 44.8254,
      "duration": 0.0161,
      "velocity": 108,
      "chip": "ym2612"
    },
    {
      "channel": 0,
      "note": 42,
      "start": 44.8355,
      "duration": 0.016,
      "velocity": 115,
      "chip": "ym2612"
    },
    {
      "channel": 5,
      "note": 76,
      "start": 44.8367,
      "duration": 0.016,
      "velocity": 108,
      "chip": "ym2612"
    },
    {
      "channel": 4,
      "note": 81,
      "start": 44.838,
      "duration": 0.016,
      "velocity": 98,
      "chip": "ym2612"
    },
    {
      "channel": 3,
      "note": 85,
      "start": 44.8391,
      "duration": 0.016,
      "velocity": 98,
      "chip": "ym2612"
    },
    {
      "channel": 2,
      "note": 57,
      "start": 44.8403,
      "duration": 0.016,
      "velocity": 93,
      "chip": "ym2612"
    },
    {
      "channel": 1,
      "note": 76,
      "start": 44.8415,
      "duration": 0.016,
      "velocity": 108,
      "chip": "ym2612"
    },
    {
      "channel": 0,
      "note": 42,
      "start": 44.8516,
      "duration": 0.0155,
      "velocity": 115,
      "chip": "ym2612"
    },
    {
      "channel": 5,
      "note": 76,
      "start": 44.8528,
      "duration": 0.0161,
      "velocity": 108,
      "chip": "ym2612"
    },
    {
      "channel": 4,
      "note": 81,
      "start": 44.854,
      "duration": 0.0161,
      "velocity": 98,
      "chip": "ym2612"
    },
    {
      "channel": 3,
      "note": 85,
      "start": 44.8551,
      "duration": 0.0161,
      "velocity": 98,
      "chip": "ym2612"
    },
    {
      "channel": 2,
      "note": 57,
      "start": 44.8563,
      "duration": 0.0161,
      "velocity": 93,
      "chip": "ym2612"
    },
    {
      "channel": 1,
      "note": 76,
      "start": 44.8575,
      "duration": 0.0161,
      "velocity": 108,
      "chip": "ym2612"
    },
    {
      "channel": 0,
      "note": 43,
      "start": 44.8671,
      "duration": 0.0161,
      "velocity": 115,
      "chip": "ym2612"
    },
    {
      "channel": 5,
      "note": 76,
      "start": 44.8689,
      "duration": 0.016,
      "velocity": 108,
      "chip": "ym2612"
    },
    {
      "channel": 4,
      "note": 81,
      "start": 44.8701,
      "duration": 0.0162,
      "velocity": 98,
      "chip": "ym2612"
    },
    {
      "channel": 3,
      "note": 85,
      "start": 44.8712,
      "duration": 0.0163,
      "velocity": 98,
      "chip": "ym2612"
    },
    {
      "channel": 2,
      "note": 57,
      "start": 44.8724,
      "duration": 0.0163,
      "velocity": 93,
      "chip": "ym2612"
    },
    {
      "channel": 1,
      "note": 76,
      "start": 44.8736,
      "duration": 0.0163,
      "velocity": 108,
      "chip": "ym2612"
    },
    {
      "channel": 0,
      "note": 43,
      "start": 44.8832,
      "duration": 0.0161,
      "velocity": 115,
      "chip": "ym2612"
    },
    {
      "channel": 5,
      "note": 76,
      "start": 44.8849,
      "duration": 0.0156,
      "velocity": 108,
      "chip": "ym2612"
    },
    {
      "channel": 4,
      "note": 81,
      "start": 44.8862,
      "duration": 0.0161,
      "velocity": 98,
      "chip": "ym2612"
    },
    {
      "channel": 3,
      "note": 85,
      "start": 44.8875,
      "duration": 0.0161,
      "velocity": 98,
      "chip": "ym2612"
    },
    {
      "channel": 2,
      "note": 57,
      "start": 44.8887,
      "duration": 0.0162,
      "velocity": 93,
      "chip": "ym2612"
    },
    {
      "channel": 1,
      "note": 76,
      "start": 44.8899,
      "duration": 0.0162,
      "velocity": 108,
      "chip": "ym2612"
    },
    {
      "channel": 0,
      "note": 44,
      "start": 44.8993,
      "duration": 0.0179,
      "velocity": 124,
      "chip": "ym2612"
    },
    {
      "channel": 5,
      "note": 76,
      "start": 44.9005,
      "duration": 0.0186,
      "velocity": 108,
      "chip": "ym2612"
    },
    {
      "channel": 2,
      "note": 57,
      "start": 44.9049,
      "duration": 0.0188,
      "velocity": 93,
      "chip": "ym2612"
    },
    {
      "channel": 0,
      "note": 84,
      "start": 44.9175,
      "duration": 0.0141,
      "velocity": 124,
      "chip": "ym2612"
    },
    {
      "channel": 5,
      "note": 76,
      "start": 44.919,
      "duration": 0.0138,
      "velocity": 108,
      "chip": "ym2612"
    },
    {
      "channel": 4,
      "note": 81,
      "start": 44.9206,
      "duration": 0.0136,
      "velocity": 98,
      "chip": "ym2612"
    },
    {
      "channel": 3,
      "note": 85,
      "start": 44.9222,
      "duration": 0.0137,
      "velocity": 98,
      "chip": "ym2612"
    },
    {
      "channel": 2,
      "note": 57,
      "start": 44.9237,
      "duration": 0.0134,
      "velocity": 93,
      "chip": "ym2612"
    },
    {
      "channel": 1,
      "note": 73,
      "start": 44.9252,
      "duration": 0.0132,
      "velocity": 108,
      "chip": "ym2612"
    },
    {
      "channel": 0,
      "note": 82,
      "start": 44.9316,
      "duration": 0.016,
      "velocity": 124,
      "chip": "ym2612"
    },
    {
      "channel": 4,
      "note": 81,
      "start": 44.9343,
      "duration": 0.016,
      "velocity": 98,
      "chip": "ym2612"
    },
    {
      "channel": 3,
      "note": 85,
      "start": 44.9359,
      "duration": 0.0161,
      "velocity": 98,
      "chip": "ym2612"
    },
    {
      "channel": 2,
      "note": 57,
      "start": 44.9371,
      "duration": 0.0161,
      "velocity": 93,
      "chip": "ym2612"
    },
    {
      "channel": 1,
      "note": 73,
      "start": 44.9383,
      "duration": 0.016,
      "velocity": 108,
      "chip": "ym2612"
    },
    {
      "channel": 0,
      "note": 80,
      "start": 44.9476,
      "duration": 0.0161,
      "velocity": 124,
      "chip": "ym2612"
    },
    {
      "channel": 5,
      "note": 73,
      "start": 44.9491,
      "duration": 0.0158,
      "velocity": 108,
      "chip": "ym2612"
    },
    {
      "channel": 4,
      "note": 81,
      "start": 44.9503,
      "duration": 0.0158,
      "velocity": 98,
      "chip": "ym2612"
    },
    {
      "channel": 3,
      "note": 85,
      "start": 44.952,
      "duration": 0.0155,
      "velocity": 98,
      "chip": "ym2612"
    },
    {
      "channel": 2,
      "note": 57,
      "start": 44.9532,
      "duration": 0.0158,
      "velocity": 93,
      "chip": "ym2612"
    },
    {
      "channel": 1,
      "note": 73,
      "start": 44.9544,
      "duration": 0.0159,
      "velocity": 108,
      "chip": "ym2612"
    },
    {
      "channel": 0,
      "note": 77,
      "start": 44.9637,
      "duration": 0.0161,
      "velocity": 124,
      "chip": "ym2612"
    },
    {
      "channel": 5,
      "note": 73,
      "start": 44.9649,
      "duration": 0.0161,
      "velocity": 108,
      "chip": "ym2612"
    },
    {
      "channel": 4,
      "note": 81,
      "start": 44.9661,
      "duration": 0.016,
      "velocity": 98,
      "chip": "ym2612"
    },
    {
      "channel": 3,
      "note": 85,
      "start": 44.9675,
      "duration": 0.0159,
      "velocity": 98,
      "chip": "ym2612"
    },
    {
      "channel": 2,
      "note": 57,
      "start": 44.969,
      "duration": 0.016,
      "velocity": 93,
      "chip": "ym2612"
    },
    {
      "channel": 1,
      "note": 73,
      "start": 44.9702,
      "duration": 0.016,
      "velocity": 108,
      "chip": "ym2612"
    },
    {
      "channel": 0,
      "note": 75,
      "start": 44.9798,
      "duration": 0.0161,
      "velocity": 124,
      "chip": "ym2612"
    },
    {
      "channel": 5,
      "note": 73,
      "start": 44.981,
      "duration": 0.0161,
      "velocity": 108,
      "chip": "ym2612"
    },
    {
      "channel": 4,
      "note": 81,
      "start": 44.9822,
      "duration": 0.0161,
      "velocity": 98,
      "chip": "ym2612"
    },
    {
      "channel": 3,
      "note": 85,
      "start": 44.9833,
      "duration": 0.0161,
      "velocity": 98,
      "chip": "ym2612"
    },
    {
      "channel": 2,
      "note": 57,
      "start": 44.985,
      "duration": 0.0156,
      "velocity": 93,
      "chip": "ym2612"
    },
    {
      "channel": 1,
      "note": 73,
      "start": 44.9862,
      "duration": 0.0161,
      "velocity": 108,
      "chip": "ym2612"
    },
    {
      "channel": 0,
      "note": 72,
      "start": 44.9959,
      "duration": 0.0161,
      "velocity": 124,
      "chip": "ym2612"
    },
    {
      "channel": 5,
      "note": 73,
      "start": 44.9971,
      "duration": 0.0161,
      "velocity": 108,
      "chip": "ym2612"
    },
    {
      "channel": 4,
      "note": 81,
      "start": 44.9983,
      "duration": 0.0161,
      "velocity": 98,
      "chip": "ym2612"
    },
    {
      "channel": 3,
      "note": 85,
      "start": 44.9994,
      "duration": 0.0162,
      "velocity": 98,
      "chip": "ym2612"
    },
    {
      "channel": 2,
      "note": 57,
      "start": 45.0006,
      "duration": 0.0161,
      "velocity": 93,
      "chip": "ym2612"
    },
    {
      "channel": 1,
      "note": 73,
      "start": 45.0023,
      "duration": 0.0161,
      "velocity": 108,
      "chip": "ym2612"
    },
    {
      "channel": 0,
      "note": 70,
      "start": 45.012,
      "duration": 0.0161,
      "velocity": 124,
      "chip": "ym2612"
    },
    {
      "channel": 5,
      "note": 73,
      "start": 45.0132,
      "duration": 0.0161,
      "velocity": 108,
      "chip": "ym2612"
    },
    {
      "channel": 4,
      "note": 81,
      "start": 45.0144,
      "duration": 0.0161,
      "velocity": 98,
      "chip": "ym2612"
    },
    {
      "channel": 3,
      "note": 85,
      "start": 45.0156,
      "duration": 0.0161,
      "velocity": 98,
      "chip": "ym2612"
    },
    {
      "channel": 2,
      "note": 57,
      "start": 45.0167,
      "duration": 0.0161,
      "velocity": 93,
      "chip": "ym2612"
    },
    {
      "channel": 1,
      "note": 73,
      "start": 45.0184,
      "duration": 0.0158,
      "velocity": 108,
      "chip": "ym2612"
    },
    {
      "channel": 0,
      "note": 68,
      "start": 45.0281,
      "duration": 0.0161,
      "velocity": 124,
      "chip": "ym2612"
    },
    {
      "channel": 5,
      "note": 73,
      "start": 45.0293,
      "duration": 0.0161,
      "velocity": 108,
      "chip": "ym2612"
    },
    {
      "channel": 4,
      "note": 81,
      "start": 45.0304,
      "duration": 0.0161,
      "velocity": 98,
      "chip": "ym2612"
    },
    {
      "channel": 3,
      "note": 85,
      "start": 45.0317,
      "duration": 0.0161,
      "velocity": 98,
      "chip": "ym2612"
    },
    {
      "channel": 2,
      "note": 57,
      "start": 45.0328,
      "duration": 0.0161,
      "velocity": 93,
      "chip": "ym2612"
    },
    {
      "channel": 1,
      "note": 73,
      "start": 45.0342,
      "duration": 0.0159,
      "velocity": 108,
      "chip": "ym2612"
    },
    {
      "channel": 0,
      "note": 65,
      "start": 45.0442,
      "duration": 0.0162,
      "velocity": 124,
      "chip": "ym2612"
    },
    {
      "channel": 5,
      "note": 73,
      "start": 45.0454,
      "duration": 0.0161,
      "velocity": 108,
      "chip": "ym2612"
    },
    {
      "channel": 4,
      "note": 81,
      "start": 45.0465,
      "duration": 0.0162,
      "velocity": 98,
      "chip": "ym2612"
    },
    {
      "channel": 3,
      "note": 85,
      "start": 45.0478,
      "duration": 0.0163,
      "velocity": 98,
      "chip": "ym2612"
    },
    {
      "channel": 2,
      "note": 57,
      "start": 45.0489,
      "duration": 0.0163,
      "velocity": 93,
      "chip": "ym2612"
    },
    {
      "channel": 1,
      "note": 73,
      "start": 45.0501,
      "duration": 0.0163,
      "velocity": 108,
      "chip": "ym2612"
    },
    {
      "channel": 0,
      "note": 63,
      "start": 45.0603,
      "duration": 0.0153,
      "velocity": 1,
      "chip": "ym2612"
    },
    {
      "channel": 5,
      "note": 73,
      "start": 45.0615,
      "duration": 0.0153,
      "velocity": 108,
      "chip": "ym2612"
    },
    {
      "channel": 4,
      "note": 81,
      "start": 45.0628,
      "duration": 0.0153,
      "velocity": 98,
      "chip": "ym2612"
    },
    {
      "channel": 3,
      "note": 85,
      "start": 45.064,
      "duration": 0.0152,
      "velocity": 98,
      "chip": "ym2612"
    },
    {
      "channel": 2,
      "note": 57,
      "start": 45.0652,
      "duration": 0.0152,
      "velocity": 93,
      "chip": "ym2612"
    },
    {
      "channel": 1,
      "note": 73,
      "start": 45.0664,
      "duration": 0.0152,
      "velocity": 108,
      "chip": "ym2612"
    },
    {
      "channel": 5,
      "note": 73,
      "start": 45.0768,
      "duration": 0.0153,
      "velocity": 108,
      "chip": "ym2612"
    },
    {
      "channel": 4,
      "note": 81,
      "start": 45.078,
      "duration": 0.0153,
      "velocity": 98,
      "chip": "ym2612"
    },
    {
      "channel": 3,
      "note": 85,
      "start": 45.0792,
      "duration": 0.0153,
      "velocity": 98,
      "chip": "ym2612"
    },
    {
      "channel": 2,
      "note": 57,
      "start": 45.0804,
      "duration": 0.0154,
      "velocity": 93,
      "chip": "ym2612"
    },
    {
      "channel": 1,
      "note": 73,
      "start": 45.0816,
      "duration": 0.0153,
      "velocity": 108,
      "chip": "ym2612"
    },
    {
      "channel": 5,
      "note": 73,
      "start": 45.092,
      "duration": 0.0197,
      "velocity": 108,
      "chip": "ym2612"
    },
    {
      "channel": 4,
      "note": 81,
      "start": 45.0933,
      "duration": 0.0195,
      "velocity": 98,
      "chip": "ym2612"
    },
    {
      "channel": 3,
      "note": 85,
      "start": 45.0946,
      "duration": 0.0195,
      "velocity": 98,
      "chip": "ym2612"
    },
    {
      "channel": 2,
      "note": 57,
      "start": 45.0958,
      "duration": 0.0194,
      "velocity": 93,
      "chip": "ym2612"
    },
    {
      "channel": 0,
      "note": 36,
      "start": 45.1105,
      "duration": 0.0143,
      "velocity": 115,
      "chip": "ym2612"
    },
    {
      "channel": 5,
      "note": 73,
      "start": 45.1117,
      "duration": 0.0143,
      "velocity": 108,
      "chip": "ym2612"
    },
    {
      "channel": 4,
      "note": 81,
      "start": 45.1128,
      "duration": 0.0143,
      "velocity": 98,
      "chip": "ym2612"
    },
    {
      "channel": 3,
      "note": 85,
      "start": 45.114,
      "duration": 0.0143,
      "velocity": 98,
      "chip": "ym2612"
    },
    {
      "channel": 2,
      "note": 57,
      "start": 45.1152,
      "duration": 0.0143,
      "velocity": 93,
      "chip": "ym2612"
    },
    {
      "channel": 1,
      "note": 76,
      "start": 45.1167,
      "duration": 0.0141,
      "velocity": 108,
      "chip": "ym2612"
    },
    {
      "channel": 0,
      "note": 36,
      "start": 45.1248,
      "duration": 0.016,
      "velocity": 115,
      "chip": "ym2612"
    },
    {
      "channel": 4,
      "note": 81,
      "start": 45.1271,
      "duration": 0.0164,
      "velocity": 98,
      "chip": "ym2612"
    },
    {
      "channel": 3,
      "note": 85,
      "start": 45.1283,
      "duration": 0.0163,
      "velocity": 98,
      "chip": "ym2612"
    },
    {
      "channel": 2,
      "note": 57,
      "start": 45.1295,
      "duration": 0.0164,
      "velocity": 93,
      "chip": "ym2612"
    },
    {
      "channel": 1,
      "note": 76,
      "start": 45.1308,
      "duration": 0.0163,
      "velocity": 108,
      "chip": "ym2612"
    },
    {
      "channel": 0,
      "note": 37,
      "start": 45.1408,
      "duration": 0.0161,
      "velocity": 115,
      "chip": "ym2612"
    },
    {
      "channel": 5,
      "note": 76,
      "start": 45.1423,
      "duration": 0.0159,
      "velocity": 108,
      "chip": "ym2612"
    },
    {
      "channel": 4,
      "note": 81,
      "start": 45.1435,
      "duration": 0.0158,
      "velocity": 98,
      "chip": "ym2612"
    },
    {
      "channel": 3,
      "note": 85,
      "start": 45.1447,
      "duration": 0.0158,
      "velocity": 98,
      "chip": "ym2612"
    },
    {
      "channel": 2,
      "note": 57,
      "start": 45.1459,
      "duration": 0.0158,
      "velocity": 93,
      "chip": "ym2612"
    },
    {
      "channel": 1,
      "note": 76,
      "start": 45.1471,
      "duration": 0.0158,
      "velocity": 108,
      "chip": "ym2612"
    },
    {
      "channel": 0,
      "note": 37,
      "start": 45.1569,
      "duration": 0.0161,
      "velocity": 115,
      "chip": "ym2612"
    },
    {
      "channel": 5,
      "note": 76,
      "start": 45.1582,
      "duration": 0.016,
      "velocity": 108,
      "chip": "ym2612"
    },
    {
      "channel": 4,
      "note": 81,
      "start": 45.1593,
      "duration": 0.0161,
      "velocity": 98,
      "chip": "ym2612"
    },
    {
      "channel": 3,
      "note": 85,
      "start": 45.1605,
      "duration": 0.0162,
      "velocity": 98,
      "chip": "ym2612"
    },
    {
      "channel": 2,
      "note": 57,
      "start": 45.1617,
      "duration": 0.0162,
      "velocity": 93,
      "chip": "ym2612"
    },
    {
      "channel": 1,
      "note": 76,
      "start": 45.1629,
      "duration": 0.0162,
      "velocity": 108,
      "chip": "ym2612"
    },
    {
      "channel": 0,
      "note": 38,
      "start": 45.173,
      "duration": 0.0162,
      "velocity": 115,
      "chip": "ym2612"
    },
    {
      "channel": 5,
      "note": 76,
      "start": 45.1742,
      "duration": 0.0161,
      "velocity": 108,
      "chip": "ym2612"
    },
    {
      "channel": 4,
      "note": 81,
      "start": 45.1754,
      "duration": 0.0161,
      "velocity": 98,
      "chip": "ym2612"
    },
    {
      "channel": 3,
      "note": 85,
      "start": 45.1767,
      "duration": 0.0162,
      "velocity": 98,
      "chip": "ym2612"
    },
    {
      "channel": 2,
      "note": 57,
      "start": 45.1779,
      "duration": 0.0162,
      "velocity": 93,
      "chip": "ym2612"
    },
    {
      "channel": 1,
      "note": 76,
      "start": 45.1791,
      "duration": 0.0161,
      "velocity": 108,
      "chip": "ym2612"
    },
    {
      "channel": 0,
      "note": 38,
      "start": 45.1892,
      "duration": 0.0161,
      "velocity": 115,
      "chip": "ym2612"
    },
    {
      "channel": 5,
      "note": 76,
      "start": 45.1903,
      "duration": 0.0161,
      "velocity": 108,
      "chip": "ym2612"
    },
    {
      "channel": 2,
      "note": 57,
      "start": 45.1941,
      "duration": 0.0168,
      "velocity": 93,
      "chip": "ym2612"
    },
    {
      "channel": 1,
      "note": 76,
      "start": 45.1953,
      "duration": 0.0169,
      "velocity": 108,
      "chip": "ym2612"
    },
    {
      "channel": 0,
      "note": 39,
      "start": 45.2053,
      "duration": 0.0161,
      "velocity": 115,
      "chip": "ym2612"
    },
    {
      "channel": 5,
      "note": 76,
      "start": 45.2064,
      "duration": 0.0161,
      "velocity": 108,
      "chip": "ym2612"
    },
    {
      "channel": 4,
      "note": 81,
      "start": 45.2079,
      "duration": 0.0158,
      "velocity": 98,
      "chip": "ym2612"
    },
    {
      "channel": 3,
      "note": 85,
      "start": 45.2095,
      "duration": 0.0155,
      "velocity": 98,
      "chip": "ym2612"
    },
    {
      "channel": 2,
      "note": 57,
      "start": 45.211,
      "duration": 0.0152,
      "velocity": 93,
      "chip": "ym2612"
    },
    {
      "channel": 1,
      "note": 76,
      "start": 45.2122,
      "duration": 0.0152,
      "velocity": 108,
      "chip": "ym2612"
    },
    {
      "channel": 0,
      "note": 39,
      "start": 45.2213,
      "duration": 0.0161,
      "velocity": 115,
      "chip": "ym2612"
    },
    {
      "channel": 5,
      "note": 76,
      "start": 45.2225,
      "duration": 0.0161,
      "velocity": 108,
      "chip": "ym2612"
    },
    {
      "channel": 4,
      "note": 81,
      "start": 45.2237,
      "duration": 0.0162,
      "velocity": 98,
      "chip": "ym2612"
    },
    {
      "channel": 3,
      "note": 85,
      "start": 45.225,
      "duration": 0.016,
      "velocity": 98,
      "chip": "ym2612"
    },
    {
      "channel": 2,
      "note": 57,
      "start": 45.2262,
      "duration": 0.016,
      "velocity": 93,
      "chip": "ym2612"
    },
    {
      "channel": 1,
      "note": 76,
      "start": 45.2274,
      "duration": 0.016,
      "velocity": 108,
      "chip": "ym2612"
    },
    {
      "channel": 0,
      "note": 40,
      "start": 45.2374,
      "duration": 0.0162,
      "velocity": 115,
      "chip": "ym2612"
    },
    {
      "channel": 5,
      "note": 76,
      "start": 45.2386,
      "duration": 0.0162,
      "velocity": 108,
      "chip": "ym2612"
    },
    {
      "channel": 4,
      "note": 81,
      "start": 45.2399,
      "duration": 0.0161,
      "velocity": 98,
      "chip": "ym2612"
    },
    {
      "channel": 3,
      "note": 85,
      "start": 45.241,
      "duration": 0.0162,
      "velocity": 98,
      "chip": "ym2612"
    },
    {
      "channel": 2,
      "note": 57,
      "start": 45.2422,
      "duration": 0.0161,
      "velocity": 93,
      "chip": "ym2612"
    },
    {
      "channel": 1,
      "note": 76,
      "start": 45.2434,
      "duration": 0.016,
      "velocity": 108,
      "chip": "ym2612"
    },
    {
      "channel": 0,
      "note": 40,
      "start": 45.2536,
      "duration": 0.0164,
      "velocity": 115,
      "chip": "ym2612"
    },
    {
      "channel": 5,
      "note": 76,
      "start": 45.2548,
      "duration": 0.0165,
      "velocity": 108,
      "chip": "ym2612"
    },
    {
      "channel": 4,
      "note": 81,
      "start": 45.2559,
      "duration": 0.0165,
      "velocity": 98,
      "chip": "ym2612"
    },
    {
      "channel": 3,
      "note": 85,
      "start": 45.2572,
      "duration": 0.0164,
      "velocity": 98,
      "chip": "ym2612"
    },
    {
      "channel": 2,
      "note": 57,
      "start": 45.2583,
      "duration": 0.0165,
      "velocity": 93,
      "chip": "ym2612"
    },
    {
      "channel": 1,
      "note": 76,
      "start": 45.2595,
      "duration": 0.0165,
      "velocity": 108,
      "chip": "ym2612"
    },
    {
      "channel": 0,
      "note": 40,
      "start": 45.27,
      "duration": 0.0163,
      "velocity": 115,
      "chip": "ym2612"
    },
    {
      "channel": 5,
      "note": 76,
      "start": 45.2713,
      "duration": 0.0162,
      "velocity": 108,
      "chip": "ym2612"
    },
    {
      "channel": 4,
      "note": 81,
      "start": 45.2724,
      "duration": 0.0162,
      "velocity": 98,
      "chip": "ym2612"
    },
    {
      "channel": 3,
      "note": 85,
      "start": 45.2736,
      "duration": 0.0163,
      "velocity": 98,
      "chip": "ym2612"
    },
    {
      "channel": 2,
      "note": 57,
      "start": 45.2748,
      "duration": 0.0162,
      "velocity": 93,
      "chip": "ym2612"
    },
    {
      "channel": 1,
      "note": 76,
      "start": 45.2759,
      "duration": 0.0162,
      "velocity": 108,
      "chip": "ym2612"
    },
    {
      "channel": 0,
      "note": 41,
      "start": 45.2863,
      "duration": 0.0161,
      "velocity": 115,
      "chip": "ym2612"
    },
    {
      "channel": 5,
      "note": 76,
      "start": 45.2875,
      "duration": 0.0161,
      "velocity": 108,
      "chip": "ym2612"
    },
    {
      "channel": 4,
      "note": 81,
      "start": 45.2886,
      "duration": 0.0162,
      "velocity": 98,
      "chip": "ym2612"
    },
    {
      "channel": 3,
      "note": 85,
      "start": 45.2899,
      "duration": 0.0161,
      "velocity": 98,
      "chip": "ym2612"
    },
    {
      "channel": 2,
      "note": 57,
      "start": 45.291,
      "duration": 0.0162,
      "velocity": 93,
      "chip": "ym2612"
    },
    {
      "channel": 0,
      "note": 41,
      "start": 45.3024,
      "duration": 0.016,
      "velocity": 115,
      "chip": "ym2612"
    },
    {
      "channel": 5,
      "note": 76,
      "start": 45.3036,
      "duration": 0.0161,
      "velocity": 108,
      "chip": "ym2612"
    },
    {
      "channel": 4,
      "note": 81,
      "start": 45.3048,
      "duration": 0.0161,
      "velocity": 98,
      "chip": "ym2612"
    },
    {
      "channel": 3,
      "note": 85,
      "start": 45.3059,
      "duration": 0.0161,
      "velocity": 98,
      "chip": "ym2612"
    },
    {
      "channel": 2,
      "note": 57,
      "start": 45.3072,
      "duration": 0.0161,
      "velocity": 93,
      "chip": "ym2612"
    },
    {
      "channel": 0,
      "note": 42,
      "start": 45.3185,
      "duration": 0.0158,
      "velocity": 115,
      "chip": "ym2612"
    },
    {
      "channel": 4,
      "note": 81,
      "start": 45.3209,
      "duration": 0.0162,
      "velocity": 98,
      "chip": "ym2612"
    },
    {
      "channel": 3,
      "note": 85,
      "start": 45.322,
      "duration": 0.0163,
      "velocity": 98,
      "chip": "ym2612"
    },
    {
      "channel": 2,
      "note": 57,
      "start": 45.3232,
      "duration": 0.0162,
      "velocity": 93,
      "chip": "ym2612"
    },
    {
      "channel": 0,
      "note": 42,
      "start": 45.3343,
      "duration": 0.0159,
      "velocity": 115,
      "chip": "ym2612"
    },
    {
      "channel": 4,
      "note": 81,
      "start": 45.3371,
      "duration": 0.0162,
      "velocity": 98,
      "chip": "ym2612"
    },
    {
      "channel": 3,
      "note": 85,
      "start": 45.3383,
      "duration": 0.0162,
      "velocity": 98,
      "chip": "ym2612"
    },
    {
      "channel": 2,
      "note": 57,
      "start": 45.3395,
      "duration": 0.0163,
      "velocity": 93,
      "chip": "ym2612"
    },
    {
      "channel": 0,
      "note": 43,
      "start": 45.3502,
      "duration": 0.0161,
      "velocity": 115,
      "chip": "ym2612"
    },
    {
      "channel": 4,
      "note": 81,
      "start": 45.3533,
      "duration": 0.016,
      "velocity": 98,
      "chip": "ym2612"
    },
    {
      "channel": 3,
      "note": 85,
      "start": 45.3546,
      "duration": 0.016,
      "velocity": 98,
      "chip": "ym2612"
    },
    {
      "channel": 2,
      "note": 57,
      "start": 45.3558,
      "duration": 0.016,
      "velocity": 93,
      "chip": "ym2612"
    },
    {
      "channel": 0,
      "note": 43,
      "start": 45.3663,
      "duration": 0.0161,
      "velocity": 115,
      "chip": "ym2612"
    },
    {
      "channel": 4,
      "note": 81,
      "start": 45.3693,
      "duration": 0.0161,
      "velocity": 98,
      "chip": "ym2612"
    },
    {
      "channel": 3,
      "note": 85,
      "start": 45.3706,
      "duration": 0.0161,
      "velocity": 98,
      "chip": "ym2612"
    },
    {
      "channel": 2,
      "note": 57,
      "start": 45.3718,
      "duration": 0.0162,
      "velocity": 93,
      "chip": "ym2612"
    },
    {
      "channel": 0,
      "note": 44,
      "start": 45.3824,
      "duration": 0.0179,
      "velocity": 115,
      "chip": "ym2612"
    },
    {
      "channel": 4,
      "note": 81,
      "start": 45.3854,
      "duration": 0.0179,
      "velocity": 98,
      "chip": "ym2612"
    },
    {
      "channel": 3,
      "note": 85,
      "start": 45.3867,
      "duration": 0.0178,
      "velocity": 98,
      "chip": "ym2612"
    },
    {
      "channel": 2,
      "note": 57,
      "start": 45.388,
      "duration": 0.0177,
      "velocity": 93,
      "chip": "ym2612"
    },
    {
      "channel": 0,
      "note": 36,
      "start": 45.4003,
      "duration": 0.0143,
      "velocity": 115,
      "chip": "ym2612"
    },
    {
      "channel": 4,
      "note": 81,
      "start": 45.4033,
      "duration": 0.0137,
      "velocity": 98,
      "chip": "ym2612"
    },
    {
      "channel": 3,
      "note": 85,
      "start": 45.4045,
      "duration": 0.0144,
      "velocity": 98,
      "chip": "ym2612"
    },
    {
      "channel": 2,
      "note": 57,
      "start": 45.4056,
      "duration": 0.0144,
      "velocity": 93,
      "chip": "ym2612"
    },
    {
      "channel": 0,
      "note": 36,
      "start": 45.4146,
      "duration": 0.016,
      "velocity": 115,
      "chip": "ym2612"
    },
    {
      "channel": 4,
      "note": 81,
      "start": 45.417,
      "duration": 0.0161,
      "velocity": 98,
      "chip": "ym2612"
    },
    {
      "channel": 3,
      "note": 85,
      "start": 45.4189,
      "duration": 0.016,
      "velocity": 98,
      "chip": "ym2612"
    },
    {
      "channel": 2,
      "note": 57,
      "start": 45.42,
      "duration": 0.016,
      "velocity": 93,
      "chip": "ym2612"
    },
    {
      "channel": 0,
      "note": 37,
      "start": 45.4306,
      "duration": 0.0161,
      "velocity": 115,
      "chip": "ym2612"
    },
    {
      "channel": 4,
      "note": 81,
      "start": 45.4331,
      "duration": 0.0161,
      "velocity": 98,
      "chip": "ym2612"
    },
    {
      "channel": 3,
      "note": 85,
      "start": 45.4348,
      "duration": 0.0155,
      "velocity": 98,
      "chip": "ym2612"
    },
    {
      "channel": 2,
      "note": 57,
      "start": 45.436,
      "duration": 0.016,
      "velocity": 93,
      "chip": "ym2612"
    },
    {
      "channel": 0,
      "note": 37,
      "start": 45.4467,
      "duration": 0.0161,
      "velocity": 115,
      "chip": "ym2612"
    },
    {
      "channel": 4,
      "note": 81,
      "start": 45.4492,
      "duration": 0.0162,
      "velocity": 98,
      "chip": "ym2612"
    },
    {
      "channel": 3,
      "note": 85,
      "start": 45.4504,
      "duration": 0.0162,
      "velocity": 98,
      "chip": "ym2612"
    },
    {
      "channel": 2,
      "note": 57,
      "start": 45.4521,
      "duration": 0.0163,
      "velocity": 93,
      "chip": "ym2612"
    },
    {
      "channel": 0,
      "note": 38,
      "start": 45.4628,
      "duration": 0.0161,
      "velocity": 115,
      "chip": "ym2612"
    },
    {
      "channel": 4,
      "note": 81,
      "start": 45.4654,
      "duration": 0.0161,
      "velocity": 98,
      "chip": "ym2612"
    },
    {
      "channel": 3,
      "note": 85,
      "start": 45.4666,
      "duration": 0.0162,
      "velocity": 98,
      "chip": "ym2612"
    },
    {
      "channel": 2,
      "note": 57,
      "start": 45.4683,
      "duration": 0.0159,
      "velocity": 93,
      "chip": "ym2612"
    },
    {
      "channel": 0,
      "note": 38,
      "start": 45.4789,
      "duration": 0.0179,
      "velocity": 124,
      "chip": "ym2612"
    },
    {
      "channel": 2,
      "note": 57,
      "start": 45.4843,
      "duration": 0.0189,
      "velocity": 93,
      "chip": "ym2612"
    },
    {
      "channel": 0,
      "note": 84,
      "start": 45.4969,
      "duration": 0.0143,
      "velocity": 124,
      "chip": "ym2612"
    },
    {
      "channel": 4,
      "note": 81,
      "start": 45.4996,
      "duration": 0.0141,
      "velocity": 98,
      "chip": "ym2612"
    },
    {
      "channel": 3,
      "note": 85,
      "start": 45.5016,
      "duration": 0.0133,
      "velocity": 98,
      "chip": "ym2612"
    },
    {
      "channel": 2,
      "note": 57,
      "start": 45.5032,
      "duration": 0.0129,
      "velocity": 93,
      "chip": "ym2612"
    },
    {
      "channel": 0,
      "note": 82,
      "start": 45.5112,
      "duration": 0.016,
      "velocity": 124,
      "chip": "ym2612"
    },
    {
      "channel": 4,
      "note": 81,
      "start": 45.5137,
      "duration": 0.016,
      "velocity": 98,
      "chip": "ym2612"
    },
    {
      "channel": 3,
      "note": 85,
      "start": 45.5149,
      "duration": 0.0159,
      "velocity": 98,
      "chip": "ym2612"
    },
    {
      "channel": 2,
      "note": 57,
      "start": 45.5161,
      "duration": 0.0159,
      "velocity": 93,
      "chip": "ym2612"
    },
    {
      "channel": 0,
      "note": 80,
      "start": 45.5273,
      "duration": 0.0161,
      "velocity": 124,
      "chip": "ym2612"
    },
    {
      "channel": 4,
      "note": 81,
      "start": 45.5297,
      "duration": 0.0161,
      "velocity": 98,
      "chip": "ym2612"
    },
    {
      "channel": 3,
      "note": 85,
      "start": 45.5308,
      "duration": 0.0161,
      "velocity": 98,
      "chip": "ym2612"
    },
    {
      "channel": 2,
      "note": 57,
      "start": 45.532,
      "duration": 0.0161,
      "velocity": 93,
      "chip": "ym2612"
    },
    {
      "channel": 0,
      "note": 77,
      "start": 45.5434,
      "duration": 0.0161,
      "velocity": 124,
      "chip": "ym2612"
    },
    {
      "channel": 4,
      "note": 81,
      "start": 45.5458,
      "duration": 0.0161,
      "velocity": 98,
      "chip": "ym2612"
    },
    {
      "channel": 3,
      "note": 85,
      "start": 45.5469,
      "duration": 0.0161,
      "velocity": 98,
      "chip": "ym2612"
    },
    {
      "channel": 2,
      "note": 57,
      "start": 45.5481,
      "duration": 0.0161,
      "velocity": 93,
      "chip": "ym2612"
    },
    {
      "channel": 0,
      "note": 75,
      "start": 45.5595,
      "duration": 0.0161,
      "velocity": 124,
      "chip": "ym2612"
    },
    {
      "channel": 4,
      "note": 81,
      "start": 45.5619,
      "duration": 0.0161,
      "velocity": 98,
      "chip": "ym2612"
    },
    {
      "channel": 3,
      "note": 85,
      "start": 45.563,
      "duration": 0.0161,
      "velocity": 98,
      "chip": "ym2612"
    },
    {
      "channel": 2,
      "note": 57,
      "start": 45.5642,
      "duration": 0.0161,
      "velocity": 93,
      "chip": "ym2612"
    },
    {
      "channel": 0,
      "note": 72,
      "start": 45.5755,
      "duration": 0.0161,
      "velocity": 124,
      "chip": "ym2612"
    },
    {
      "channel": 4,
      "note": 81,
      "start": 45.578,
      "duration": 0.0162,
      "velocity": 98,
      "chip": "ym2612"
    },
    {
      "channel": 3,
      "note": 85,
      "start": 45.5792,
      "duration": 0.0161,
      "velocity": 98,
      "chip": "ym2612"
    },
    {
      "channel": 2,
      "note": 57,
      "start": 45.5803,
      "duration": 0.0161,
      "velocity": 93,
      "chip": "ym2612"
    },
    {
      "channel": 0,
      "note": 70,
      "start": 45.5916,
      "duration": 0.0161,
      "velocity": 124,
      "chip": "ym2612"
    },
    {
      "channel": 4,
      "note": 81,
      "start": 45.5941,
      "duration": 0.0161,
      "velocity": 98,
      "chip": "ym2612"
    },
    {
      "channel": 3,
      "note": 85,
      "start": 45.5953,
      "duration": 0.0161,
      "velocity": 98,
      "chip": "ym2612"
    },
    {
      "channel": 2,
      "note": 57,
      "start": 45.5965,
      "duration": 0.0161,
      "velocity": 93,
      "chip": "ym2612"
    },
    {
      "channel": 0,
      "note": 68,
      "start": 45.6077,
      "duration": 0.0161,
      "velocity": 124,
      "chip": "ym2612"
    },
    {
      "channel": 4,
      "note": 81,
      "start": 45.6102,
      "duration": 0.0161,
      "velocity": 98,
      "chip": "ym2612"
    },
    {
      "channel": 3,
      "note": 85,
      "start": 45.6114,
      "duration": 0.0161,
      "velocity": 98,
      "chip": "ym2612"
    },
    {
      "channel": 2,
      "note": 57,
      "start": 45.6126,
      "duration": 0.0161,
      "velocity": 93,
      "chip": "ym2612"
    },
    {
      "channel": 0,
      "note": 65,
      "start": 45.6238,
      "duration": 0.0161,
      "velocity": 124,
      "chip": "ym2612"
    },
    {
      "channel": 4,
      "note": 81,
      "start": 45.6263,
      "duration": 0.0162,
      "velocity": 98,
      "chip": "ym2612"
    },
    {
      "channel": 3,
      "note": 85,
      "start": 45.6275,
      "duration": 0.0163,
      "velocity": 98,
      "chip": "ym2612"
    },
    {
      "channel": 2,
      "note": 57,
      "start": 45.6287,
      "duration": 0.0163,
      "velocity": 93,
      "chip": "ym2612"
    },
    {
      "channel": 0,
      "note": 63,
      "start": 45.6399,
      "duration": 0.0154,
      "velocity": 1,
      "chip": "ym2612"
    },
    {
      "channel": 4,
      "note": 81,
      "start": 45.6425,
      "duration": 0.0153,
      "velocity": 98,
      "chip": "ym2612"
    },
    {
      "channel": 3,
      "note": 85,
      "start": 45.6437,
      "duration": 0.0152,
      "velocity": 98,
      "chip": "ym2612"
    },
    {
      "channel": 2,
      "note": 57,
      "start": 45.6449,
      "duration": 0.0152,
      "velocity": 93,
      "chip": "ym2612"
    },
    {
      "channel": 4,
      "note": 81,
      "start": 45.6577,
      "duration": 0.0153,
      "velocity": 98,
      "chip": "ym2612"
    },
    {
      "channel": 3,
      "note": 85,
      "start": 45.6589,
      "duration": 0.0153,
      "velocity": 98,
      "chip": "ym2612"
    },
    {
      "channel": 2,
      "note": 57,
      "start": 45.6602,
      "duration": 0.0153,
      "velocity": 93,
      "chip": "ym2612"
    },
    {
      "channel": 4,
      "note": 81,
      "start": 45.673,
      "duration": 0.016,
      "velocity": 98,
      "chip": "ym2612"
    },
    {
      "channel": 3,
      "note": 85,
      "start": 45.6743,
      "duration": 0.0159,
      "velocity": 98,
      "chip": "ym2612"
    },
    {
      "channel": 2,
      "note": 57,
      "start": 45.6755,
      "duration": 0.0159,
      "velocity": 93,
      "chip": "ym2612"
    },
    {
      "channel": 4,
      "note": 81,
      "start": 45.689,
      "duration": 0.0161,
      "velocity": 98,
      "chip": "ym2612"
    },
    {
      "channel": 3,
      "note": 85,
      "start": 45.6902,
      "duration": 0.0161,
      "velocity": 98,
      "chip": "ym2612"
    },
    {
      "channel": 2,
      "note": 57,
      "start": 45.6914,
      "duration": 0.0161,
      "velocity": 93,
      "chip": "ym2612"
    },
    {
      "channel": 1,
      "note": 73,
      "start": 45.6929,
      "duration": 0.0159,
      "velocity": 108,
      "chip": "ym2612"
    },
    {
      "channel": 4,
      "note": 81,
      "start": 45.7051,
      "duration": 0.0164,
      "velocity": 98,
      "chip": "ym2612"
    },
    {
      "channel": 3,
      "note": 85,
      "start": 45.7063,
      "duration": 0.0164,
      "velocity": 98,
      "chip": "ym2612"
    },
    {
      "channel": 2,
      "note": 57,
      "start": 45.7075,
      "duration": 0.0164,
      "velocity": 93,
      "chip": "ym2612"
    },
    {
      "channel": 1,
      "note": 73,
      "start": 45.7088,
      "duration": 0.0163,
      "velocity": 108,
      "chip": "ym2612"
    },
    {
      "channel": 5,
      "note": 73,
      "start": 45.7203,
      "duration": 0.0161,
      "velocity": 108,
      "chip": "ym2612"
    },
    {
      "channel": 4,
      "note": 81,
      "start": 45.7215,
      "duration": 0.016,
      "velocity": 98,
      "chip": "ym2612"
    },
    {
      "channel": 3,
      "note": 85,
      "start": 45.7227,
      "duration": 0.016,
      "velocity": 98,
      "chip": "ym2612"
    },
    {
      "channel": 2,
      "note": 57,
      "start": 45.7239,
      "duration": 0.016,
      "velocity": 93,
      "chip": "ym2612"
    },
    {
      "channel": 1,
      "note": 73,
      "start": 45.725,
      "duration": 0.0161,
      "velocity": 108,
      "chip": "ym2612"
    },
    {
      "channel": 5,
      "note": 73,
      "start": 45.7364,
      "duration": 0.0162,
      "velocity": 108,
      "chip": "ym2612"
    },
    {
      "channel": 4,
      "note": 81,
      "start": 45.7376,
      "duration": 0.0163,
      "velocity": 98,
      "chip": "ym2612"
    },
    {
      "channel": 3,
      "note": 85,
      "start": 45.7388,
      "duration": 0.0164,
      "velocity": 98,
      "chip": "ym2612"
    },
    {
      "channel": 2,
      "note": 57,
      "start": 45.7399,
      "duration": 0.0165,
      "velocity": 93,
      "chip": "ym2612"
    },
    {
      "channel": 1,
      "note": 73,
      "start": 45.7411,
      "duration": 0.0164,
      "velocity": 108,
      "chip": "ym2612"
    },
    {
      "channel": 5,
      "note": 73,
      "start": 45.7527,
      "duration": 0.0162,
      "velocity": 108,
      "chip": "ym2612"
    },
    {
      "channel": 4,
      "note": 81,
      "start": 45.7539,
      "duration": 0.0162,
      "velocity": 98,
      "chip": "ym2612"
    },
    {
      "channel": 3,
      "note": 85,
      "start": 45.7552,
      "duration": 0.0162,
      "velocity": 98,
      "chip": "ym2612"
    },
    {
      "channel": 2,
      "note": 57,
      "start": 45.7564,
      "duration": 0.0163,
      "velocity": 93,
      "chip": "ym2612"
    },
    {
      "channel": 1,
      "note": 73,
      "start": 45.7576,
      "duration": 0.0163,
      "velocity": 108,
      "chip": "ym2612"
    },
    {
      "channel": 5,
      "note": 73,
      "start": 45.7689,
      "duration": 0.0196,
      "velocity": 108,
      "chip": "ym2612"
    },
    {
      "channel": 2,
      "note": 57,
      "start": 45.7727,
      "duration": 0.0203,
      "velocity": 93,
      "chip": "ym2612"
    },
    {
      "channel": 0,
      "note": 36,
      "start": 45.7873,
      "duration": 0.0143,
      "velocity": 115,
      "chip": "ym2612"
    },
    {
      "channel": 5,
      "note": 73,
      "start": 45.7885,
      "duration": 0.0143,
      "velocity": 108,
      "chip": "ym2612"
    },
    {
      "channel": 4,
      "note": 81,
      "start": 45.79,
      "duration": 0.0141,
      "velocity": 98,
      "chip": "ym2612"
    },
    {
      "channel": 3,
      "note": 85,
      "start": 45.7915,
      "duration": 0.0137,
      "velocity": 98,
      "chip": "ym2612"
    },
    {
      "channel": 2,
      "note": 57,
      "start": 45.793,
      "duration": 0.0135,
      "velocity": 93,
      "chip": "ym2612"
    },
    {
      "channel": 1,
      "note": 75,
      "start": 45.7946,
      "duration": 0.0132,
      "velocity": 108,
      "chip": "ym2612"
    },
    {
      "channel": 0,
      "note": 36,
      "start": 45.8016,
      "duration": 0.0155,
      "velocity": 115,
      "chip": "ym2612"
    },
    {
      "channel": 4,
      "note": 81,
      "start": 45.804,
      "duration": 0.0163,
      "velocity": 98,
      "chip": "ym2612"
    },
    {
      "channel": 3,
      "note": 85,
      "start": 45.8053,
      "duration": 0.0163,
      "velocity": 98,
      "chip": "ym2612"
    },
    {
      "channel": 2,
      "note": 57,
      "start": 45.8065,
      "duration": 0.0161,
      "velocity": 93,
      "chip": "ym2612"
    },
    {
      "channel": 1,
      "note": 75,
      "start": 45.8077,
      "duration": 0.0161,
      "velocity": 108,
      "chip": "ym2612"
    },
    {
      "channel": 0,
      "note": 37,
      "start": 45.8171,
      "duration": 0.0161,
      "velocity": 115,
      "chip": "ym2612"
    },
    {
      "channel": 5,
      "note": 75,
      "start": 45.8192,
      "duration": 0.0158,
      "velocity": 108,
      "chip": "ym2612"
    },
    {
      "channel": 4,
      "note": 81,
      "start": 45.8203,
      "duration": 0.0159,
      "velocity": 98,
      "chip": "ym2612"
    },
    {
      "channel": 3,
      "note": 85,
      "start": 45.8215,
      "duration": 0.0158,
      "velocity": 98,
      "chip": "ym2612"
    },
    {
      "channel": 2,
      "note": 57,
      "start": 45.8227,
      "duration": 0.0158,
      "velocity": 93,
      "chip": "ym2612"
    },
    {
      "channel": 1,
      "note": 75,
      "start": 45.8238,
      "duration": 0.0158,
      "velocity": 108,
      "chip": "ym2612"
    },
    {
      "channel": 0,
      "note": 37,
      "start": 45.8332,
      "duration": 0.0161,
      "velocity": 115,
      "chip": "ym2612"
    },
    {
      "channel": 5,
      "note": 75,
      "start": 45.835,
      "duration": 0.0154,
      "velocity": 108,
      "chip": "ym2612"
    },
    {
      "channel": 4,
      "note": 81,
      "start": 45.8362,
      "duration": 0.016,
      "velocity": 98,
      "chip": "ym2612"
    },
    {
      "channel": 3,
      "note": 85,
      "start": 45.8373,
      "duration": 0.0161,
      "velocity": 98,
      "chip": "ym2612"
    },
    {
      "channel": 2,
      "note": 57,
      "start": 45.8385,
      "duration": 0.0161,
      "velocity": 93,
      "chip": "ym2612"
    },
    {
      "channel": 1,
      "note": 75,
      "start": 45.8397,
      "duration": 0.016,
      "velocity": 108,
      "chip": "ym2612"
    },
    {
      "channel": 0,
      "note": 38,
      "start": 45.8493,
      "duration": 0.0161,
      "velocity": 115,
      "chip": "ym2612"
    },
    {
      "channel": 5,
      "note": 75,
      "start": 45.8504,
      "duration": 0.0161,
      "velocity": 108,
      "chip": "ym2612"
    },
    {
      "channel": 4,
      "note": 81,
      "start": 45.8521,
      "duration": 0.0161,
      "velocity": 98,
      "chip": "ym2612"
    },
    {
      "channel": 3,
      "note": 85,
      "start": 45.8534,
      "duration": 0.016,
      "velocity": 98,
      "chip": "ym2612"
    },
    {
      "channel": 2,
      "note": 57,
      "start": 45.8546,
      "duration": 0.0161,
      "velocity": 93,
      "chip": "ym2612"
    },
    {
      "channel": 1,
      "note": 75,
      "start": 45.8557,
      "duration": 0.0161,
      "velocity": 108,
      "chip": "ym2612"
    },
    {
      "channel": 0,
      "note": 38,
      "start": 45.8654,
      "duration": 0.0161,
      "velocity": 115,
      "chip": "ym2612"
    },
    {
      "channel": 5,
      "note": 75,
      "start": 45.8665,
      "duration": 0.0162,
      "velocity": 108,
      "chip": "ym2612"
    },
    {
      "channel": 4,
      "note": 81,
      "start": 45.8682,
      "duration": 0.0156,
      "velocity": 98,
      "chip": "ym2612"
    },
    {
      "channel": 3,
      "note": 85,
      "start": 45.8694,
      "duration": 0.0162,
      "velocity": 98,
      "chip": "ym2612"
    },
    {
      "channel": 2,
      "note": 57,
      "start": 45.8706,
      "duration": 0.0162,
      "velocity": 93,
      "chip": "ym2612"
    },
    {
      "channel": 1,
      "note": 75,
      "start": 45.8718,
      "duration": 0.0162,
      "velocity": 108,
      "chip": "ym2612"
    },
    {
      "channel": 0,
      "note": 39,
      "start": 45.8815,
      "duration": 0.0161,
      "velocity": 115,
      "chip": "ym2612"
    },
    {
      "channel": 5,
      "note": 75,
      "start": 45.8827,
      "duration": 0.0161,
      "velocity": 108,
      "chip": "ym2612"
    },
    {
      "channel": 4,
      "note": 81,
      "start": 45.8838,
      "duration": 0.0161,
      "velocity": 98,
      "chip": "ym2612"
    },
    {
      "channel": 3,
      "note": 85,
      "start": 45.8857,
      "duration": 0.016,
      "velocity": 98,
      "chip": "ym2612"
    },
    {
      "channel": 2,
      "note": 57,
      "start": 45.8868,
      "duration": 0.0161,
      "velocity": 93,
      "chip": "ym2612"
    },
    {
      "channel": 1,
      "note": 75,
      "start": 45.888,
      "duration": 0.0161,
      "velocity": 108,
      "chip": "ym2612"
    },
    {
      "channel": 0,
      "note": 39,
      "start": 45.8976,
      "duration": 0.0161,
      "velocity": 115,
      "chip": "ym2612"
    },
    {
      "channel": 5,
      "note": 75,
      "start": 45.8988,
      "duration": 0.0161,
      "velocity": 108,
      "chip": "ym2612"
    },
    {
      "channel": 4,
      "note": 81,
      "start": 45.8999,
      "duration": 0.0161,
      "velocity": 98,
      "chip": "ym2612"
    },
    {
      "channel": 3,
      "note": 85,
      "start": 45.9017,
      "duration": 0.0158,
      "velocity": 98,
      "chip": "ym2612"
    },
    {
      "channel": 2,
      "note": 57,
      "start": 45.9029,
      "duration": 0.0161,
      "velocity": 93,
      "chip": "ym2612"
    },
    {
      "channel": 1,
      "note": 75,
      "start": 45.904,
      "duration": 0.0161,
      "velocity": 108,
      "chip": "ym2612"
    },
    {
      "channel": 0,
      "note": 40,
      "start": 45.9137,
      "duration": 0.0161,
      "velocity": 115,
      "chip": "ym2612"
    },
    {
      "channel": 5,
      "note": 75,
      "start": 45.9149,
      "duration": 0.0161,
      "velocity": 108,
      "chip": "ym2612"
    },
    {
      "channel": 4,
      "note": 81,
      "start": 45.916,
      "duration": 0.0162,
      "velocity": 98,
      "chip": "ym2612"
    },
    {
      "channel": 3,
      "note": 85,
      "start": 45.9175,
      "duration": 0.016,
      "velocity": 98,
      "chip": "ym2612"
    },
    {
      "channel": 2,
      "note": 57,
      "start": 45.919,
      "duration": 0.0162,
      "velocity": 93,
      "chip": "ym2612"
    },
    {
      "channel": 1,
      "note": 75,
      "start": 45.9201,
      "duration": 0.0164,
      "velocity": 108,
      "chip": "ym2612"
    },
    {
      "channel": 0,
      "note": 40,
      "start": 45.9298,
      "duration": 0.0161,
      "velocity": 115,
      "chip": "ym2612"
    },
    {
      "channel": 5,
      "note": 75,
      "start": 45.931,
      "duration": 0.0161,
      "velocity": 108,
      "chip": "ym2612"
    },
    {
      "channel": 4,
      "note": 81,
      "start": 45.9322,
      "duration": 0.016,
      "velocity": 98,
      "chip": "ym2612"
    },
    {
      "channel": 3,
      "note": 85,
      "start": 45.9335,
      "duration": 0.016,
      "velocity": 98,
      "chip": "ym2612"
    },
    {
      "channel": 2,
      "note": 57,
      "start": 45.9352,
      "duration": 0.0157,
      "velocity": 93,
      "chip": "ym2612"
    },
    {
      "channel": 1,
      "note": 75,
      "start": 45.9366,
      "duration": 0.016,
      "velocity": 108,
      "chip": "ym2612"
    },
    {
      "channel": 0,
      "note": 40,
      "start": 45.9459,
      "duration": 0.0161,
      "velocity": 115,
      "chip": "ym2612"
    },
    {
      "channel": 5,
      "note": 75,
      "start": 45.9471,
      "duration": 0.0161,
      "velocity": 108,
      "chip": "ym2612"
    },
    {
      "channel": 4,
      "note": 81,
      "start": 45.9483,
      "duration": 0.0162,
      "velocity": 98,
      "chip": "ym2612"
    },
    {
      "channel": 3,
      "note": 85,
      "start": 45.9495,
      "duration": 0.0162,
      "velocity": 98,
      "chip": "ym2612"
    },
    {
      "channel": 2,
      "note": 57,
      "start": 45.9509,
      "duration": 0.016,
      "velocity": 93,
      "chip": "ym2612"
    },
    {
      "channel": 1,
      "note": 75,
      "start": 45.9525,
      "duration": 0.0163,
      "velocity": 108,
      "chip": "ym2612"
    },
    {
      "channel": 0,
      "note": 41,
      "start": 45.962,
      "duration": 0.0161,
      "velocity": 115,
      "chip": "ym2612"
    },
    {
      "channel": 5,
      "note": 75,
      "start": 45.9632,
      "duration": 0.0161,
      "velocity": 108,
      "chip": "ym2612"
    },
    {
      "channel": 4,
      "note": 81,
      "start": 45.9645,
      "duration": 0.016,
      "velocity": 98,
      "chip": "ym2612"
    },
    {
      "channel": 3,
      "note": 85,
      "start": 45.9657,
      "duration": 0.0159,
      "velocity": 98,
      "chip": "ym2612"
    },
    {
      "channel": 2,
      "note": 57,
      "start": 45.967,
      "duration": 0.0159,
      "velocity": 93,
      "chip": "ym2612"
    },
    {
      "channel": 1,
      "note": 75,
      "start": 45.9688,
      "duration": 0.0154,
      "velocity": 108,
      "chip": "ym2612"
    },
    {
      "channel": 0,
      "note": 41,
      "start": 45.9781,
      "duration": 0.0161,
      "velocity": 115,
      "chip": "ym2612"
    },
    {
      "channel": 5,
      "note": 75,
      "start": 45.9793,
      "duration": 0.0161,
      "velocity": 108,
      "chip": "ym2612"
    },
    {
      "channel": 4,
      "note": 81,
      "start": 45.9805,
      "duration": 0.0161,
      "velocity": 98,
      "chip": "ym2612"
    },
    {
      "channel": 3,
      "note": 85,
      "start": 45.9817,
      "duration": 0.0161,
      "velocity": 98,
      "chip": "ym2612"
    },
    {
      "channel": 2,
      "note": 57,
      "start": 45.9829,
      "duration": 0.0161,
      "velocity": 93,
      "chip": "ym2612"
    },
    {
      "channel": 1,
      "note": 75,
      "start": 45.9842,
      "duration": 0.0159,
      "velocity": 108,
      "chip": "ym2612"
    },
    {
      "channel": 0,
      "note": 42,
      "start": 45.9942,
      "duration": 0.0161,
      "velocity": 115,
      "chip": "ym2612"
    },
    {
      "channel": 5,
      "note": 75,
      "start": 45.9954,
      "duration": 0.016,
      "velocity": 108,
      "chip": "ym2612"
    },
    {
      "channel": 4,
      "note": 81,
      "start": 45.9966,
      "duration": 0.016,
      "velocity": 98,
      "chip": "ym2612"
    },
    {
      "channel": 3,
      "note": 85,
      "start": 45.9978,
      "duration": 0.016,
      "velocity": 98,
      "chip": "ym2612"
    },
    {
      "channel": 2,
      "note": 57,
      "start": 45.999,
      "duration": 0.016,
      "velocity": 93,
      "chip": "ym2612"
    },
    {
      "channel": 1,
      "note": 75,
      "start": 46.0001,
      "duration": 0.016,
      "velocity": 108,
      "chip": "ym2612"
    },
    {
      "channel": 0,
      "note": 42,
      "start": 46.0103,
      "duration": 0.0161,
      "velocity": 115,
      "chip": "ym2612"
    },
    {
      "channel": 5,
      "note": 75,
      "start": 46.0114,
      "duration": 0.0161,
      "velocity": 108,
      "chip": "ym2612"
    },
    {
      "channel": 4,
      "note": 81,
      "start": 46.0126,
      "duration": 0.0161,
      "velocity": 98,
      "chip": "ym2612"
    },
    {
      "channel": 3,
      "note": 85,
      "start": 46.0138,
      "duration": 0.0161,
      "velocity": 98,
      "chip": "ym2612"
    },
    {
      "channel": 2,
      "note": 57,
      "start": 46.015,
      "duration": 0.0161,
      "velocity": 93,
      "chip": "ym2612"
    },
    {
      "channel": 1,
      "note": 75,
      "start": 46.0161,
      "duration": 0.0162,
      "velocity": 108,
      "chip": "ym2612"
    },
    {
      "channel": 0,
      "note": 43,
      "start": 46.0264,
      "duration": 0.0161,
      "velocity": 115,
      "chip": "ym2612"
    },
    {
      "channel": 5,
      "note": 75,
      "start": 46.0276,
      "duration": 0.0161,
      "velocity": 108,
      "chip": "ym2612"
    },
    {
      "channel": 4,
      "note": 81,
      "start": 46.0287,
      "duration": 0.0161,
      "velocity": 98,
      "chip": "ym2612"
    },
    {
      "channel": 3,
      "note": 85,
      "start": 46.0299,
      "duration": 0.0162,
      "velocity": 98,
      "chip": "ym2612"
    },
    {
      "channel": 2,
      "note": 57,
      "start": 46.0311,
      "duration": 0.0163,
      "velocity": 93,
      "chip": "ym2612"
    },
    {
      "channel": 1,
      "note": 75,
      "start": 46.0323,
      "duration": 0.0163,
      "velocity": 108,
      "chip": "ym2612"
    },
    {
      "channel": 0,
      "note": 43,
      "start": 46.0425,
      "duration": 0.0161,
      "velocity": 115,
      "chip": "ym2612"
    },
    {
      "channel": 5,
      "note": 75,
      "start": 46.0437,
      "duration": 0.0161,
      "velocity": 108,
      "chip": "ym2612"
    },
    {
      "channel": 4,
      "note": 81,
      "start": 46.0449,
      "duration": 0.0162,
      "velocity": 98,
      "chip": "ym2612"
    },
    {
      "channel": 3,
      "note": 85,
      "start": 46.0461,
      "duration": 0.0162,
      "velocity": 98,
      "chip": "ym2612"
    },
    {
      "channel": 2,
      "note": 57,
      "start": 46.0474,
      "duration": 0.0162,
      "velocity": 93,
      "chip": "ym2612"
    },
    {
      "channel": 1,
      "note": 75,
      "start": 46.0486,
      "duration": 0.0161,
      "velocity": 108,
      "chip": "ym2612"
    },
    {
      "channel": 0,
      "note": 44,
      "start": 46.0585,
      "duration": 0.018,
      "velocity": 124,
      "chip": "ym2612"
    },
    {
      "channel": 5,
      "note": 75,
      "start": 46.0598,
      "duration": 0.018,
      "velocity": 108,
      "chip": "ym2612"
    },
    {
      "channel": 2,
      "note": 57,
      "start": 46.0636,
      "duration": 0.0187,
      "velocity": 93,
      "chip": "ym2612"
    },
    {
      "channel": 0,
      "note": 84,
      "start": 46.0766,
      "duration": 0.0143,
      "velocity": 124,
      "chip": "ym2612"
    },
    {
      "channel": 5,
      "note": 75,
      "start": 46.0778,
      "duration": 0.0143,
      "velocity": 108,
      "chip": "ym2612"
    },
    {
      "channel": 4,
      "note": 81,
      "start": 46.0793,
      "duration": 0.0141,
      "velocity": 98,
      "chip": "ym2612"
    },
    {
      "channel": 3,
      "note": 85,
      "start": 46.0808,
      "duration": 0.0137,
      "velocity": 98,
      "chip": "ym2612"
    },
    {
      "channel": 2,
      "note": 57,
      "start": 46.0824,
      "duration": 0.0135,
      "velocity": 93,
      "chip": "ym2612"
    },
    {
      "channel": 1,
      "note": 76,
      "start": 46.0838,
      "duration": 0.0132,
      "velocity": 108,
      "chip": "ym2612"
    },
    {
      "channel": 0,
      "note": 82,
      "start": 46.0909,
      "duration": 0.016,
      "velocity": 124,
      "chip": "ym2612"
    },
    {
      "channel": 4,
      "note": 81,
      "start": 46.0934,
      "duration": 0.0162,
      "velocity": 98,
      "chip": "ym2612"
    },
    {
      "channel": 3,
      "note": 85,
      "start": 46.0946,
      "duration": 0.0162,
      "velocity": 98,
      "chip": "ym2612"
    },
    {
      "channel": 2,
      "note": 57,
      "start": 46.0958,
      "duration": 0.016,
      "velocity": 93,
      "chip": "ym2612"
    },
    {
      "channel": 1,
      "note": 76,
      "start": 46.0971,
      "duration": 0.016,
      "velocity": 108,
      "chip": "ym2612"
    },
    {
      "channel": 0,
      "note": 80,
      "start": 46.1069,
      "duration": 0.0161,
      "velocity": 124,
      "chip": "ym2612"
    },
    {
      "channel": 5,
      "note": 76,
      "start": 46.1084,
      "duration": 0.0159,
      "velocity": 108,
      "chip": "ym2612"
    },
    {
      "channel": 4,
      "note": 81,
      "start": 46.1095,
      "duration": 0.0159,
      "velocity": 98,
      "chip": "ym2612"
    },
    {
      "channel": 3,
      "note": 85,
      "start": 46.1107,
      "duration": 0.0158,
      "velocity": 98,
      "chip": "ym2612"
    },
    {
      "channel": 2,
      "note": 57,
      "start": 46.1119,
      "duration": 0.0159,
      "velocity": 93,
      "chip": "ym2612"
    },
    {
      "channel": 1,
      "note": 76,
      "start": 46.113,
      "duration": 0.0159,
      "velocity": 108,
      "chip": "ym2612"
    },
    {
      "channel": 0,
      "note": 77,
      "start": 46.123,
      "duration": 0.0161,
      "velocity": 124,
      "chip": "ym2612"
    },
    {
      "channel": 5,
      "note": 76,
      "start": 46.1242,
      "duration": 0.016,
      "velocity": 108,
      "chip": "ym2612"
    },
    {
      "channel": 4,
      "note": 81,
      "start": 46.1254,
      "duration": 0.016,
      "velocity": 98,
      "chip": "ym2612"
    },
    {
      "channel": 3,
      "note": 85,
      "start": 46.1266,
      "duration": 0.016,
      "velocity": 98,
      "chip": "ym2612"
    },
    {
      "channel": 2,
      "note": 57,
      "start": 46.1277,
      "duration": 0.016,
      "velocity": 93,
      "chip": "ym2612"
    },
    {
      "channel": 1,
      "note": 76,
      "start": 46.1289,
      "duration": 0.016,
      "velocity": 108,
      "chip": "ym2612"
    },
    {
      "channel": 0,
      "note": 75,
      "start": 46.1391,
      "duration": 0.0161,
      "velocity": 124,
      "chip": "ym2612"
    },
    {
      "channel": 5,
      "note": 76,
      "start": 46.1402,
      "duration": 0.0161,
      "velocity": 108,
      "chip": "ym2612"
    },
    {
      "channel": 4,
      "note": 81,
      "start": 46.1415,
      "duration": 0.0161,
      "velocity": 98,
      "chip": "ym2612"
    },
    {
      "channel": 3,
      "note": 85,
      "start": 46.1426,
      "duration": 0.0161,
      "velocity": 98,
      "chip": "ym2612"
    },
    {
      "channel": 2,
      "note": 57,
      "start": 46.1437,
      "duration": 0.0161,
      "velocity": 93,
      "chip": "ym2612"
    },
    {
      "channel": 1,
      "note": 76,
      "start": 46.1449,
      "duration": 0.0161,
      "velocity": 108,
      "chip": "ym2612"
    },
    {
      "channel": 0,
      "note": 72,
      "start": 46.1552,
      "duration": 0.0161,
      "velocity": 124,
      "chip": "ym2612"
    },
    {
      "channel": 5,
      "note": 76,
      "start": 46.1563,
      "duration": 0.0162,
      "velocity": 108,
      "chip": "ym2612"
    },
    {
      "channel": 4,
      "note": 81,
      "start": 46.1576,
      "duration": 0.0161,
      "velocity": 98,
      "chip": "ym2612"
    },
    {
      "channel": 3,
      "note": 85,
      "start": 46.1587,
      "duration": 0.0162,
      "velocity": 98,
      "chip": "ym2612"
    },
    {
      "channel": 2,
      "note": 57,
      "start": 46.1598,
      "duration": 0.0161,
      "velocity": 93,
      "chip": "ym2612"
    },
    {
      "channel": 1,
      "note": 76,
      "start": 46.161,
      "duration": 0.0161,
      "velocity": 108,
      "chip": "ym2612"
    },
    {
      "channel": 0,
      "note": 70,
      "start": 46.1713,
      "duration": 0.0161,
      "velocity": 124,
      "chip": "ym2612"
    },
    {
      "channel": 5,
      "note": 76,
      "start": 46.1725,
      "duration": 0.0161,
      "velocity": 108,
      "chip": "ym2612"
    },
    {
      "channel": 4,
      "note": 81,
      "start": 46.1736,
      "duration": 0.0162,
      "velocity": 98,
      "chip": "ym2612"
    },
    {
      "channel": 3,
      "note": 85,
      "start": 46.1749,
      "duration": 0.0161,
      "velocity": 98,
      "chip": "ym2612"
    },
    {
      "channel": 2,
      "note": 57,
      "start": 46.176,
      "duration": 0.0162,
      "velocity": 93,
      "chip": "ym2612"
    },
    {
      "channel": 1,
      "note": 76,
      "start": 46.1772,
      "duration": 0.0162,
      "velocity": 108,
      "chip": "ym2612"
    },
    {
      "channel": 0,
      "note": 68,
      "start": 46.1874,
      "duration": 0.0161,
      "velocity": 124,
      "chip": "ym2612"
    },
    {
      "channel": 5,
      "note": 76,
      "start": 46.1886,
      "duration": 0.0161,
      "velocity": 108,
      "chip": "ym2612"
    },
    {
      "channel": 4,
      "note": 81,
      "start": 46.1898,
      "duration": 0.0161,
      "velocity": 98,
      "chip": "ym2612"
    },
    {
      "channel": 3,
      "note": 85,
      "start": 46.191,
      "duration": 0.0161,
      "velocity": 98,
      "chip": "ym2612"
    },
    {
      "channel": 2,
      "note": 57,
      "start": 46.1922,
      "duration": 0.0161,
      "velocity": 93,
      "chip": "ym2612"
    },
    {
      "channel": 1,
      "note": 76,
      "start": 46.1934,
      "duration": 0.0161,
      "velocity": 108,
      "chip": "ym2612"
    },
    {
      "channel": 0,
      "note": 65,
      "start": 46.2035,
      "duration": 0.0164,
      "velocity": 124,
      "chip": "ym2612"
    },
    {
      "channel": 5,
      "note": 76,
      "start": 46.2047,
      "duration": 0.0164,
      "velocity": 108,
      "chip": "ym2612"
    },
    {
      "channel": 4,
      "note": 81,
      "start": 46.2059,
      "duration": 0.0165,
      "velocity": 98,
      "chip": "ym2612"
    },
    {
      "channel": 3,
      "note": 85,
      "start": 46.2071,
      "duration": 0.0166,
      "velocity": 98,
      "chip": "ym2612"
    },
    {
      "channel": 2,
      "note": 57,
      "start": 46.2082,
      "duration": 0.0167,
      "velocity": 93,
      "chip": "ym2612"
    },
    {
      "channel": 1,
      "note": 76,
      "start": 46.2095,
      "duration": 0.0167,
      "velocity": 108,
      "chip": "ym2612"
    },
    {
      "channel": 0,
      "note": 63,
      "start": 46.22,
      "duration": 0.0155,
      "velocity": 1,
      "chip": "ym2612"
    },
    {
      "channel": 5,
      "note": 76,
      "start": 46.2212,
      "duration": 0.0155,
      "velocity": 108,
      "chip": "ym2612"
    },
    {
      "channel": 4,
      "note": 81,
      "start": 46.2224,
      "duration": 0.0155,
      "velocity": 98,
      "chip": "ym2612"
    },
    {
      "channel": 3,
      "note": 85,
      "start": 46.2237,
      "duration": 0.0154,
      "velocity": 98,
      "chip": "ym2612"
    },
    {
      "channel": 2,
      "note": 57,
      "start": 46.2249,
      "duration": 0.0154,
      "velocity": 93,
      "chip": "ym2612"
    },
    {
      "channel": 1,
      "note": 76,
      "start": 46.2261,
      "duration": 0.0154,
      "velocity": 108,
      "chip": "ym2612"
    },
    {
      "channel": 5,
      "note": 76,
      "start": 46.2366,
      "duration": 0.0153,
      "velocity": 108,
      "chip": "ym2612"
    },
    {
      "channel": 4,
      "note": 81,
      "start": 46.2379,
      "duration": 0.0153,
      "velocity": 98,
      "chip": "ym2612"
    },
    {
      "channel": 3,
      "note": 85,
      "start": 46.2391,
      "duration": 0.0153,
      "velocity": 98,
      "chip": "ym2612"
    },
    {
      "channel": 2,
      "note": 57,
      "start": 46.2403,
      "duration": 0.0154,
      "velocity": 93,
      "chip": "ym2612"
    },
    {
      "channel": 1,
      "note": 76,
      "start": 46.2415,
      "duration": 0.0154,
      "velocity": 108,
      "chip": "ym2612"
    },
    {
      "channel": 5,
      "note": 76,
      "start": 46.2519,
      "duration": 0.0158,
      "velocity": 108,
      "chip": "ym2612"
    },
    {
      "channel": 4,
      "note": 81,
      "start": 46.2532,
      "duration": 0.016,
      "velocity": 98,
      "chip": "ym2612"
    },
    {
      "channel": 3,
      "note": 85,
      "start": 46.2544,
      "duration": 0.016,
      "velocity": 98,
      "chip": "ym2612"
    },
    {
      "channel": 2,
      "note": 57,
      "start": 46.2557,
      "duration": 0.0159,
      "velocity": 93,
      "chip": "ym2612"
    },
    {
      "channel": 1,
      "note": 76,
      "start": 46.2569,
      "duration": 0.0158,
      "velocity": 108,
      "chip": "ym2612"
    },
    {
      "channel": 5,
      "note": 76,
      "start": 46.2677,
      "duration": 0.0159,
      "velocity": 108,
      "chip": "ym2612"
    },
    {
      "channel": 4,
      "note": 81,
      "start": 46.2693,
      "duration": 0.016,
      "velocity": 98,
      "chip": "ym2612"
    },
    {
      "channel": 3,
      "note": 85,
      "start": 46.2704,
      "duration": 0.0162,
      "velocity": 98,
      "chip": "ym2612"
    },
    {
      "channel": 2,
      "note": 57,
      "start": 46.2716,
      "duration": 0.0161,
      "velocity": 93,
      "chip": "ym2612"
    },
    {
      "channel": 1,
      "note": 76,
      "start": 46.2727,
      "duration": 0.0161,
      "velocity": 108,
      "chip": "ym2612"
    },
    {
      "channel": 5,
      "note": 76,
      "start": 46.2836,
      "duration": 0.016,
      "velocity": 108,
      "chip": "ym2612"
    },
    {
      "channel": 4,
      "note": 81,
      "start": 46.2853,
      "duration": 0.0157,
      "velocity": 98,
      "chip": "ym2612"
    },
    {
      "channel": 3,
      "note": 85,
      "start": 46.2866,
      "duration": 0.016,
      "velocity": 98,
      "chip": "ym2612"
    },
    {
      "channel": 2,
      "note": 57,
      "start": 46.2877,
      "duration": 0.016,
      "velocity": 93,
      "chip": "ym2612"
    },
    {
      "channel": 1,
      "note": 76,
      "start": 46.2888,
      "duration": 0.016,
      "velocity": 108,
      "chip": "ym2612"
    },
    {
      "channel": 5,
      "note": 76,
      "start": 46.2996,
      "duration": 0.0161,
      "velocity": 108,
      "chip": "ym2612"
    },
    {
      "channel": 4,
      "note": 81,
      "start": 46.301,
      "duration": 0.0159,
      "velocity": 98,
      "chip": "ym2612"
    },
    {
      "channel": 3,
      "note": 85,
      "start": 46.3026,
      "duration": 0.016,
      "velocity": 98,
      "chip": "ym2612"
    },
    {
      "channel": 2,
      "note": 57,
      "start": 46.3037,
      "duration": 0.0161,
      "velocity": 93,
      "chip": "ym2612"
    },
    {
      "channel": 1,
      "note": 76,
      "start": 46.3049,
      "duration": 0.0161,
      "velocity": 108,
      "chip": "ym2612"
    },
    {
      "channel": 5,
      "note": 76,
      "start": 46.3157,
      "duration": 0.0161,
      "velocity": 108,
      "chip": "ym2612"
    },
    {
      "channel": 4,
      "note": 81,
      "start": 46.3169,
      "duration": 0.0162,
      "velocity": 98,
      "chip": "ym2612"
    },
    {
      "channel": 3,
      "note": 85,
      "start": 46.3186,
      "duration": 0.0162,
      "velocity": 98,
      "chip": "ym2612"
    },
    {
      "channel": 2,
      "note": 57,
      "start": 46.3198,
      "duration": 0.0163,
      "velocity": 93,
      "chip": "ym2612"
    },
    {
      "channel": 1,
      "note": 76,
      "start": 46.321,
      "duration": 0.0164,
      "velocity": 108,
      "chip": "ym2612"
    },
    {
      "channel": 5,
      "note": 76,
      "start": 46.3318,
      "duration": 0.0161,
      "velocity": 108,
      "chip": "ym2612"
    },
    {
      "channel": 4,
      "note": 81,
      "start": 46.3331,
      "duration": 0.0161,
      "velocity": 98,
      "chip": "ym2612"
    },
    {
      "channel": 3,
      "note": 85,
      "start": 46.3348,
      "duration": 0.0156,
      "velocity": 98,
      "chip": "ym2612"
    },
    {
      "channel": 2,
      "note": 57,
      "start": 46.3361,
      "duration": 0.0162,
      "velocity": 93,
      "chip": "ym2612"
    },
    {
      "channel": 1,
      "note": 76,
      "start": 46.3374,
      "duration": 0.0162,
      "velocity": 108,
      "chip": "ym2612"
    },
    {
      "channel": 5,
      "note": 76,
      "start": 46.3479,
      "duration": 0.0162,
      "velocity": 108,
      "chip": "ym2612"
    },
    {
      "channel": 2,
      "note": 57,
      "start": 46.3523,
      "duration": 0.0167,
      "velocity": 93,
      "chip": "ym2612"
    },
    {
      "channel": 5,
      "note": 76,
      "start": 46.364,
      "duration": 0.0161,
      "velocity": 108,
      "chip": "ym2612"
    },
    {
      "channel": 2,
      "note": 57,
      "start": 46.369,
      "duration": 0.0152,
      "velocity": 93,
      "chip": "ym2612"
    },
    {
      "channel": 1,
      "note": 80,
      "start": 46.3705,
      "duration": 0.0153,
      "velocity": 108,
      "chip": "ym2612"
    },
    {
      "channel": 2,
      "note": 57,
      "start": 46.3842,
      "duration": 0.0162,
      "velocity": 93,
      "chip": "ym2612"
    },
    {
      "channel": 1,
      "note": 80,
      "start": 46.3858,
      "duration": 0.0163,
      "velocity": 108,
      "chip": "ym2612"
    },
    {
      "channel": 5,
      "note": 80,
      "start": 46.3966,
      "duration": 0.0158,
      "velocity": 108,
      "chip": "ym2612"
    },
    {
      "channel": 2,
      "note": 57,
      "start": 46.4004,
      "duration": 0.0158,
      "velocity": 93,
      "chip": "ym2612"
    },
    {
      "channel": 1,
      "note": 80,
      "start": 46.4021,
      "duration": 0.0154,
      "velocity": 108,
      "chip": "ym2612"
    },
    {
      "channel": 5,
      "note": 80,
      "start": 46.4124,
      "duration": 0.016,
      "velocity": 108,
      "chip": "ym2612"
    },
    {
      "channel": 2,
      "note": 57,
      "start": 46.4161,
      "duration": 0.016,
      "velocity": 93,
      "chip": "ym2612"
    },
    {
      "channel": 1,
      "note": 80,
      "start": 46.4175,
      "duration": 0.0159,
      "velocity": 108,
      "chip": "ym2612"
    },
    {
      "channel": 5,
      "note": 80,
      "start": 46.4284,
      "duration": 0.0161,
      "velocity": 108,
      "chip": "ym2612"
    },
    {
      "channel": 2,
      "note": 57,
      "start": 46.4322,
      "duration": 0.0162,
      "velocity": 93,
      "chip": "ym2612"
    },
    {
      "channel": 1,
      "note": 80,
      "start": 46.4334,
      "duration": 0.0161,
      "velocity": 108,
      "chip": "ym2612"
    },
    {
      "channel": 5,
      "note": 80,
      "start": 46.4445,
      "duration": 0.0161,
      "velocity": 108,
      "chip": "ym2612"
    },
    {
      "channel": 2,
      "note": 57,
      "start": 46.4483,
      "duration": 0.0161,
      "velocity": 93,
      "chip": "ym2612"
    },
    {
      "channel": 1,
      "note": 80,
      "start": 46.4495,
      "duration": 0.0161,
      "velocity": 108,
      "chip": "ym2612"
    },
    {
      "channel": 5,
      "note": 80,
      "start": 46.4606,
      "duration": 0.0161,
      "velocity": 108,
      "chip": "ym2612"
    },
    {
      "channel": 2,
      "note": 57,
      "start": 46.4644,
      "duration": 0.0161,
      "velocity": 93,
      "chip": "ym2612"
    },
    {
      "channel": 1,
      "note": 80,
      "start": 46.4656,
      "duration": 0.0161,
      "velocity": 108,
      "chip": "ym2612"
    },
    {
      "channel": 5,
      "note": 80,
      "start": 46.4767,
      "duration": 0.0161,
      "velocity": 108,
      "chip": "ym2612"
    },
    {
      "channel": 2,
      "note": 57,
      "start": 46.4805,
      "duration": 0.0161,
      "velocity": 93,
      "chip": "ym2612"
    },
    {
      "channel": 1,
      "note": 80,
      "start": 46.4817,
      "duration": 0.0161,
      "velocity": 108,
      "chip": "ym2612"
    },
    {
      "channel": 5,
      "note": 80,
      "start": 46.4928,
      "duration": 0.0161,
      "velocity": 108,
      "chip": "ym2612"
    },
    {
      "channel": 2,
      "note": 57,
      "start": 46.4966,
      "duration": 0.0161,
      "velocity": 93,
      "chip": "ym2612"
    },
    {
      "channel": 1,
      "note": 80,
      "start": 46.4978,
      "duration": 0.0162,
      "velocity": 108,
      "chip": "ym2612"
    },
    {
      "channel": 5,
      "note": 80,
      "start": 46.5089,
      "duration": 0.0161,
      "velocity": 108,
      "chip": "ym2612"
    },
    {
      "channel": 2,
      "note": 57,
      "start": 46.5127,
      "duration": 0.0161,
      "velocity": 93,
      "chip": "ym2612"
    },
    {
      "channel": 1,
      "note": 80,
      "start": 46.514,
      "duration": 0.016,
      "velocity": 108,
      "chip": "ym2612"
    },
    {
      "channel": 5,
      "note": 80,
      "start": 46.525,
      "duration": 0.0162,
      "velocity": 108,
      "chip": "ym2612"
    },
    {
      "channel": 2,
      "note": 57,
      "start": 46.5288,
      "duration": 0.0161,
      "velocity": 93,
      "chip": "ym2612"
    },
    {
      "channel": 1,
      "note": 80,
      "start": 46.53,
      "duration": 0.0162,
      "velocity": 108,
      "chip": "ym2612"
    },
    {
      "channel": 5,
      "note": 80,
      "start": 46.5412,
      "duration": 0.0161,
      "velocity": 108,
      "chip": "ym2612"
    },
    {
      "channel": 2,
      "note": 57,
      "start": 46.5449,
      "duration": 0.0162,
      "velocity": 93,
      "chip": "ym2612"
    },
    {
      "channel": 1,
      "note": 80,
      "start": 46.5462,
      "duration": 0.016,
      "velocity": 108,
      "chip": "ym2612"
    },
    {
      "channel": 5,
      "note": 80,
      "start": 46.5573,
      "duration": 0.0161,
      "velocity": 108,
      "chip": "ym2612"
    },
    {
      "channel": 2,
      "note": 57,
      "start": 46.5611,
      "duration": 0.0161,
      "velocity": 93,
      "chip": "ym2612"
    },
    {
      "channel": 1,
      "note": 80,
      "start": 46.5622,
      "duration": 0.0161,
      "velocity": 108,
      "chip": "ym2612"
    },
    {
      "channel": 5,
      "note": 80,
      "start": 46.5734,
      "duration": 0.016,
      "velocity": 108,
      "chip": "ym2612"
    },
    {
      "channel": 2,
      "note": 57,
      "start": 46.5772,
      "duration": 0.016,
      "velocity": 93,
      "chip": "ym2612"
    },
    {
      "channel": 1,
      "note": 80,
      "start": 46.5783,
      "duration": 0.016,
      "velocity": 108,
      "chip": "ym2612"
    },
    {
      "channel": 5,
      "note": 80,
      "start": 46.5894,
      "duration": 0.0161,
      "velocity": 108,
      "chip": "ym2612"
    },
    {
      "channel": 2,
      "note": 57,
      "start": 46.5932,
      "duration": 0.0161,
      "velocity": 93,
      "chip": "ym2612"
    },
    {
      "channel": 1,
      "note": 80,
      "start": 46.5944,
      "duration": 0.0161,
      "velocity": 108,
      "chip": "ym2612"
    },
    {
      "channel": 5,
      "note": 80,
      "start": 46.6055,
      "duration": 0.0161,
      "velocity": 108,
      "chip": "ym2612"
    },
    {
      "channel": 2,
      "note": 57,
      "start": 46.6093,
      "duration": 0.0161,
      "velocity": 93,
      "chip": "ym2612"
    },
    {
      "channel": 1,
      "note": 80,
      "start": 46.6105,
      "duration": 0.0161,
      "velocity": 108,
      "chip": "ym2612"
    },
    {
      "channel": 5,
      "note": 80,
      "start": 46.6216,
      "duration": 0.0161,
      "velocity": 108,
      "chip": "ym2612"
    },
    {
      "channel": 2,
      "note": 57,
      "start": 46.6254,
      "duration": 0.0161,
      "velocity": 93,
      "chip": "ym2612"
    },
    {
      "channel": 5,
      "note": 80,
      "start": 46.6377,
      "duration": 0.0232,
      "velocity": 108,
      "chip": "ym2612"
    },
    {
      "channel": 2,
      "note": 57,
      "start": 46.6415,
      "duration": 0.0239,
      "velocity": 93,
      "chip": "ym2612"
    },
    {
      "channel": 1,
      "note": 84,
      "start": 46.6561,
      "duration": 0.0144,
      "velocity": 124,
      "chip": "ym2612"
    },
    {
      "channel": 0,
      "note": 36,
      "start": 46.6597,
      "duration": 0.0126,
      "velocity": 115,
      "chip": "ym2612"
    },
    {
      "channel": 5,
      "note": 80,
      "start": 46.6609,
      "duration": 0.0126,
      "velocity": 108,
      "chip": "ym2612"
    },
    {
      "channel": 4,
      "note": 81,
      "start": 46.6624,
      "duration": 0.0123,
      "velocity": 98,
      "chip": "ym2612"
    },
    {
      "channel": 3,
      "note": 85,
      "start": 46.664,
      "duration": 0.012,
      "velocity": 98,
      "chip": "ym2612"
    },
    {
      "channel": 2,
      "note": 59,
      "start": 46.6654,
      "duration": 0.0118,
      "velocity": 93,
      "chip": "ym2612"
    },
    {
      "channel": 1,
      "note": 82,
      "start": 46.6705,
      "duration": 0.0161,
      "velocity": 124,
      "chip": "ym2612"
    },
    {
      "channel": 0,
      "note": 36,
      "start": 46.6723,
      "duration": 0.0161,
      "velocity": 115,
      "chip": "ym2612"
    },
    {
      "channel": 4,
      "note": 81,
      "start": 46.6748,
      "duration": 0.0161,
      "velocity": 98,
      "chip": "ym2612"
    },
    {
      "channel": 3,
      "note": 85,
      "start": 46.676,
      "duration": 0.016,
      "velocity": 98,
      "chip": "ym2612"
    },
    {
      "channel": 2,
      "note": 59,
      "start": 46.6773,
      "duration": 0.016,
      "velocity": 93,
      "chip": "ym2612"
    },
    {
      "channel": 1,
      "note": 80,
      "start": 46.6867,
      "duration": 0.0163,
      "velocity": 124,
      "chip": "ym2612"
    },
    {
      "channel": 0,
      "note": 37,
      "start": 46.6884,
      "duration": 0.0163,
      "velocity": 115,
      "chip": "ym2612"
    },
    {
      "channel": 4,
      "note": 81,
      "start": 46.6909,
      "duration": 0.0163,
      "velocity": 98,
      "chip": "ym2612"
    },
    {
      "channel": 3,
      "note": 85,
      "start": 46.692,
      "duration": 0.0163,
      "velocity": 98,
      "chip": "ym2612"
    },
    {
      "channel": 2,
      "note": 59,
      "start": 46.6932,
      "duration": 0.0162,
      "velocity": 93,
      "chip": "ym2612"
    },
    {
      "channel": 1,
      "note": 77,
      "start": 46.703,
      "duration": 0.0163,
      "velocity": 124,
      "chip": "ym2612"
    },
    {
      "channel": 0,
      "note": 37,
      "start": 46.7047,
      "duration": 0.0163,
      "velocity": 115,
      "chip": "ym2612"
    },
    {
      "channel": 4,
      "note": 81,
      "start": 46.7072,
      "duration": 0.0163,
      "velocity": 98,
      "chip": "ym2612"
    },
    {
      "channel": 3,
      "note": 85,
      "start": 46.7083,
      "duration": 0.0163,
      "velocity": 98,
      "chip": "ym2612"
    },
    {
      "channel": 2,
      "note": 59,
      "start": 46.7095,
      "duration": 0.0163,
      "velocity": 93,
      "chip": "ym2612"
    },
    {
      "channel": 1,
      "note": 75,
      "start": 46.7193,
      "duration": 0.0161,
      "velocity": 124,
      "chip": "ym2612"
    },
    {
      "channel": 0,
      "note": 38,
      "start": 46.721,
      "duration": 0.0161,
      "velocity": 115,
      "chip": "ym2612"
    },
    {
      "channel": 4,
      "note": 81,
      "start": 46.7234,
      "duration": 0.0161,
      "velocity": 98,
      "chip": "ym2612"
    },
    {
      "channel": 3,
      "note": 85,
      "start": 46.7246,
      "duration": 0.0161,
      "velocity": 98,
      "chip": "ym2612"
    },
    {
      "channel": 2,
      "note": 59,
      "start": 46.7257,
      "duration": 0.0161,
      "velocity": 93,
      "chip": "ym2612"
    },
    {
      "channel": 1,
      "note": 72,
      "start": 46.7354,
      "duration": 0.016,
      "velocity": 124,
      "chip": "ym2612"
    },
    {
      "channel": 0,
      "note": 38,
      "start": 46.7371,
      "duration": 0.0161,
      "velocity": 115,
      "chip": "ym2612"
    },
    {
      "channel": 4,
      "note": 81,
      "start": 46.7395,
      "duration": 0.0161,
      "velocity": 98,
      "chip": "ym2612"
    },
    {
      "channel": 3,
      "note": 85,
      "start": 46.7407,
      "duration": 0.0162,
      "velocity": 98,
      "chip": "ym2612"
    },
    {
      "channel": 2,
      "note": 59,
      "start": 46.7418,
      "duration": 0.0161,
      "velocity": 93,
      "chip": "ym2612"
    },
    {
      "channel": 1,
      "note": 70,
      "start": 46.7514,
      "duration": 0.0156,
      "velocity": 124,
      "chip": "ym2612"
    },
    {
      "channel": 0,
      "note": 39,
      "start": 46.7532,
      "duration": 0.0161,
      "velocity": 115,
      "chip": "ym2612"
    },
    {
      "channel": 4,
      "note": 81,
      "start": 46.7556,
      "duration": 0.0161,
      "velocity": 98,
      "chip": "ym2612"
    },
    {
      "channel": 3,
      "note": 85,
      "start": 46.7568,
      "duration": 0.0161,
      "velocity": 98,
      "chip": "ym2612"
    },
    {
      "channel": 2,
      "note": 59,
      "start": 46.758,
      "duration": 0.0161,
      "velocity": 93,
      "chip": "ym2612"
    },
    {
      "channel": 1,
      "note": 68,
      "start": 46.767,
      "duration": 0.0161,
      "velocity": 124,
      "chip": "ym2612"
    },
    {
      "channel": 0,
      "note": 39,
      "start": 46.7693,
      "duration": 0.016,
      "velocity": 115,
      "chip": "ym2612"
    },
    {
      "channel": 4,
      "note": 81,
      "start": 46.7717,
      "duration": 0.0161,
      "velocity": 98,
      "chip": "ym2612"
    },
    {
      "channel": 3,
      "note": 85,
      "start": 46.7729,
      "duration": 0.0161,
      "velocity": 98,
      "chip": "ym2612"
    },
    {
      "channel": 2,
      "note": 59,
      "start": 46.7741,
      "duration": 0.0161,
      "velocity": 93,
      "chip": "ym2612"
    },
    {
      "channel": 1,
      "note": 65,
      "start": 46.7831,
      "duration": 0.0161,
      "velocity": 124,
      "chip": "ym2612"
    },
    {
      "channel": 0,
      "note": 40,
      "start": 46.7853,
      "duration": 0.0161,
      "velocity": 115,
      "chip": "ym2612"
    },
    {
      "channel": 4,
      "note": 81,
      "start": 46.7878,
      "duration": 0.0162,
      "velocity": 98,
      "chip": "ym2612"
    },
    {
      "channel": 3,
      "note": 85,
      "start": 46.789,
      "duration": 0.0163,
      "velocity": 98,
      "chip": "ym2612"
    },
    {
      "channel": 2,
      "note": 59,
      "start": 46.7902,
      "duration": 0.0163,
      "velocity": 93,
      "chip": "ym2612"
    },
    {
      "channel": 1,
      "note": 63,
      "start": 46.7992,
      "duration": 0.0153,
      "velocity": 1,
      "chip": "ym2612"
    },
    {
      "channel": 0,
      "note": 40,
      "start": 46.8014,
      "duration": 0.0148,
      "velocity": 115,
      "chip": "ym2612"
    },
    {
      "channel": 4,
      "note": 81,
      "start": 46.804,
      "duration": 0.0152,
      "velocity": 98,
      "chip": "ym2612"
    },
    {
      "channel": 3,
      "note": 85,
      "start": 46.8053,
      "duration": 0.0152,
      "velocity": 98,
      "chip": "ym2612"
    },
    {
      "channel": 2,
      "note": 59,
      "start": 46.8065,
      "duration": 0.0152,
      "velocity": 93,
      "chip": "ym2612"
    },
    {
      "channel": 0,
      "note": 40,
      "start": 46.8162,
      "duration": 0.0153,
      "velocity": 115,
      "chip": "ym2612"
    },
    {
      "channel": 4,
      "note": 81,
      "start": 46.8193,
      "duration": 0.0149,
      "velocity": 98,
      "chip": "ym2612"
    },
    {
      "channel": 3,
      "note": 85,
      "start": 46.8205,
      "duration": 0.0153,
      "velocity": 98,
      "chip": "ym2612"
    },
    {
      "channel": 2,
      "note": 59,
      "start": 46.8217,
      "duration": 0.0153,
      "velocity": 93,
      "chip": "ym2612"
    },
    {
      "channel": 0,
      "note": 41,
      "start": 46.8315,
      "duration": 0.0161,
      "velocity": 115,
      "chip": "ym2612"
    },
    {
      "channel": 4,
      "note": 81,
      "start": 46.8341,
      "duration": 0.0159,
      "velocity": 98,
      "chip": "ym2612"
    },
    {
      "channel": 3,
      "note": 85,
      "start": 46.8358,
      "duration": 0.0159,
      "velocity": 98,
      "chip": "ym2612"
    },
    {
      "channel": 2,
      "note": 59,
      "start": 46.837,
      "duration": 0.016,
      "velocity": 93,
      "chip": "ym2612"
    },
    {
      "channel": 0,
      "note": 41,
      "start": 46.8476,
      "duration": 0.0161,
      "velocity": 115,
      "chip": "ym2612"
    },
    {
      "channel": 4,
      "note": 81,
      "start": 46.85,
      "duration": 0.0161,
      "velocity": 98,
      "chip": "ym2612"
    },
    {
      "channel": 3,
      "note": 85,
      "start": 46.8517,
      "duration": 0.0158,
      "velocity": 98,
      "chip": "ym2612"
    },
    {
      "channel": 2,
      "note": 59,
      "start": 46.853,
      "duration": 0.0161,
      "velocity": 93,
      "chip": "ym2612"
    },
    {
      "channel": 0,
      "note": 42,
      "start": 46.8637,
      "duration": 0.0161,
      "velocity": 115,
      "chip": "ym2612"
    },
    {
      "channel": 4,
      "note": 81,
      "start": 46.8661,
      "duration": 0.0161,
      "velocity": 98,
      "chip": "ym2612"
    },
    {
      "channel": 3,
      "note": 85,
      "start": 46.8675,
      "duration": 0.0159,
      "velocity": 98,
      "chip": "ym2612"
    },
    {
      "channel": 2,
      "note": 59,
      "start": 46.869,
      "duration": 0.016,
      "velocity": 93,
      "chip": "ym2612"
    },
    {
      "channel": 0,
      "note": 42,
      "start": 46.8798,
      "duration": 0.0161,
      "velocity": 115,
      "chip": "ym2612"
    },
    {
      "channel": 4,
      "note": 81,
      "start": 46.8822,
      "duration": 0.0161,
      "velocity": 98,
      "chip": "ym2612"
    },
    {
      "channel": 3,
      "note": 85,
      "start": 46.8834,
      "duration": 0.0161,
      "velocity": 98,
      "chip": "ym2612"
    },
    {
      "channel": 2,
      "note": 59,
      "start": 46.885,
      "duration": 0.0159,
      "velocity": 93,
      "chip": "ym2612"
    },
    {
      "channel": 0,
      "note": 43,
      "start": 46.8958,
      "duration": 0.0161,
      "velocity": 115,
      "chip": "ym2612"
    },
    {
      "channel": 4,
      "note": 81,
      "start": 46.8983,
      "duration": 0.0162,
      "velocity": 98,
      "chip": "ym2612"
    },
    {
      "channel": 3,
      "note": 85,
      "start": 46.8995,
      "duration": 0.0162,
      "velocity": 98,
      "chip": "ym2612"
    },
    {
      "channel": 2,
      "note": 59,
      "start": 46.9009,
      "duration": 0.0161,
      "velocity": 93,
      "chip": "ym2612"
    },
    {
      "channel": 0,
      "note": 43,
      "start": 46.9119,
      "duration": 0.0161,
      "velocity": 115,
      "chip": "ym2612"
    },
    {
      "channel": 4,
      "note": 81,
      "start": 46.9145,
      "duration": 0.0161,
      "velocity": 98,
      "chip": "ym2612"
    },
    {
      "channel": 3,
      "note": 85,
      "start": 46.9157,
      "duration": 0.0161,
      "velocity": 98,
      "chip": "ym2612"
    },
    {
      "channel": 2,
      "note": 59,
      "start": 46.917,
      "duration": 0.0161,
      "velocity": 93,
      "chip": "ym2612"
    },
    {
      "channel": 0,
      "note": 44,
      "start": 46.928,
      "duration": 0.017,
      "velocity": 115,
      "chip": "ym2612"
    },
    {
      "channel": 2,
      "note": 59,
      "start": 46.9331,
      "duration": 0.0172,
      "velocity": 93,
      "chip": "ym2612"
    },
    {
      "channel": 0,
      "note": 44,
      "start": 46.945,
      "duration": 0.0152,
      "velocity": 115,
      "chip": "ym2612"
    },
    {
      "channel": 2,
      "note": 59,
      "start": 46.9503,
      "duration": 0.015,
      "velocity": 93,
      "chip": "ym2612"
    },
    {
      "channel": 1,
      "note": 80,
      "start": 46.9533,
      "duration": 0.0132,
      "velocity": 108,
      "chip": "ym2612"
    },
    {
      "channel": 0,
      "note": 44,
      "start": 46.9602,
      "duration": 0.0162,
      "velocity": 115,
      "chip": "ym2612"
    },
    {
      "channel": 2,
      "note": 59,
      "start": 46.9653,
      "duration": 0.0163,
      "velocity": 93,
      "chip": "ym2612"
    },
    {
      "channel": 1,
      "note": 78,
      "start": 46.9665,
      "duration": 0.0163,
      "velocity": 108,
      "chip": "ym2612"
    },
    {
      "channel": 0,
      "note": 45,
      "start": 46.9764,
      "duration": 0.0161,
      "velocity": 115,
      "chip": "ym2612"
    },
    {
      "channel": 5,
      "note": 78,
      "start": 46.9778,
      "duration": 0.0159,
      "velocity": 108,
      "chip": "ym2612"
    },
    {
      "channel": 2,
      "note": 59,
      "start": 46.9816,
      "duration": 0.0159,
      "velocity": 93,
      "chip": "ym2612"
    },
    {
      "channel": 1,
      "note": 78,
      "start": 46.9828,
      "duration": 0.0159,
      "velocity": 108,
      "chip": "ym2612"
    },
    {
      "channel": 0,
      "note": 45,
      "start": 46.9925,
      "duration": 0.0161,
      "velocity": 115,
      "chip": "ym2612"
    },
    {
      "channel": 5,
      "note": 78,
      "start": 46.9937,
      "duration": 0.016,
      "velocity": 108,
      "chip": "ym2612"
    },
    {
      "channel": 2,
      "note": 59,
      "start": 46.9975,
      "duration": 0.016,
      "velocity": 93,
      "chip": "ym2612"
    },
    {
      "channel": 1,
      "note": 78,
      "start": 46.9986,
      "duration": 0.016,
      "velocity": 108,
      "chip": "ym2612"
    },
    {
      "channel": 0,
      "note": 46,
      "start": 47.0085,
      "duration": 0.0161,
      "velocity": 115,
      "chip": "ym2612"
    },
    {
      "channel": 5,
      "note": 78,
      "start": 47.0097,
      "duration": 0.0161,
      "velocity": 108,
      "chip": "ym2612"
    },
    {
      "channel": 2,
      "note": 59,
      "start": 47.0135,
      "duration": 0.0161,
      "velocity": 93,
      "chip": "ym2612"
    },
    {
      "channel": 1,
      "note": 78,
      "start": 47.0147,
      "duration": 0.0161,
      "velocity": 108,
      "chip": "ym2612"
    },
    {
      "channel": 0,
      "note": 46,
      "start": 47.0246,
      "duration": 0.0161,
      "velocity": 115,
      "chip": "ym2612"
    },
    {
      "channel": 5,
      "note": 78,
      "start": 47.0258,
      "duration": 0.0161,
      "velocity": 108,
      "chip": "ym2612"
    },
    {
      "channel": 2,
      "note": 59,
      "start": 47.0296,
      "duration": 0.0161,
      "velocity": 93,
      "chip": "ym2612"
    },
    {
      "channel": 1,
      "note": 78,
      "start": 47.0308,
      "duration": 0.0161,
      "velocity": 108,
      "chip": "ym2612"
    },
    {
      "channel": 0,
      "note": 47,
      "start": 47.0407,
      "duration": 0.0161,
      "velocity": 115,
      "chip": "ym2612"
    },
    {
      "channel": 5,
      "note": 78,
      "start": 47.0419,
      "duration": 0.0162,
      "velocity": 108,
      "chip": "ym2612"
    },
    {
      "channel": 2,
      "note": 59,
      "start": 47.0457,
      "duration": 0.0161,
      "velocity": 93,
      "chip": "ym2612"
    },
    {
      "channel": 1,
      "note": 78,
      "start": 47.0468,
      "duration": 0.0162,
      "velocity": 108,
      "chip": "ym2612"
    },
    {
      "channel": 0,
      "note": 47,
      "start": 47.0568,
      "duration": 0.0161,
      "velocity": 115,
      "chip": "ym2612"
    },
    {
      "channel": 5,
      "note": 78,
      "start": 47.058,
      "duration": 0.0161,
      "velocity": 108,
      "chip": "ym2612"
    },
    {
      "channel": 2,
      "note": 59,
      "start": 47.0618,
      "duration": 0.0161,
      "velocity": 93,
      "chip": "ym2612"
    },
    {
      "channel": 1,
      "note": 78,
      "start": 47.063,
      "duration": 0.0161,
      "velocity": 108,
      "chip": "ym2612"
    },
    {
      "channel": 0,
      "note": 47,
      "start": 47.0729,
      "duration": 0.0161,
      "velocity": 115,
      "chip": "ym2612"
    },
    {
      "channel": 5,
      "note": 78,
      "start": 47.0741,
      "duration": 0.0161,
      "velocity": 108,
      "chip": "ym2612"
    },
    {
      "channel": 2,
      "note": 59,
      "start": 47.0779,
      "duration": 0.0161,
      "velocity": 93,
      "chip": "ym2612"
    },
    {
      "channel": 1,
      "note": 78,
      "start": 47.0791,
      "duration": 0.0161,
      "velocity": 108,
      "chip": "ym2612"
    },
    {
      "channel": 0,
      "note": 48,
      "start": 47.089,
      "duration": 0.0161,
      "velocity": 115,
      "chip": "ym2612"
    },
    {
      "channel": 5,
      "note": 78,
      "start": 47.0902,
      "duration": 0.0161,
      "velocity": 108,
      "chip": "ym2612"
    },
    {
      "channel": 2,
      "note": 59,
      "start": 47.094,
      "duration": 0.0161,
      "velocity": 93,
      "chip": "ym2612"
    },
    {
      "channel": 1,
      "note": 78,
      "start": 47.0953,
      "duration": 0.016,
      "velocity": 108,
      "chip": "ym2612"
    },
    {
      "channel": 0,
      "note": 48,
      "start": 47.1051,
      "duration": 0.0162,
      "velocity": 115,
      "chip": "ym2612"
    },
    {
      "channel": 5,
      "note": 78,
      "start": 47.1063,
      "duration": 0.0162,
      "velocity": 108,
      "chip": "ym2612"
    },
    {
      "channel": 2,
      "note": 59,
      "start": 47.1101,
      "duration": 0.0162,
      "velocity": 93,
      "chip": "ym2612"
    },
    {
      "channel": 1,
      "note": 78,
      "start": 47.1113,
      "duration": 0.0162,
      "velocity": 108,
      "chip": "ym2612"
    },
    {
      "channel": 0,
      "note": 49,
      "start": 47.1213,
      "duration": 0.0153,
      "velocity": 1,
      "chip": "ym2612"
    },
    {
      "channel": 5,
      "note": 78,
      "start": 47.1225,
      "duration": 0.0153,
      "velocity": 108,
      "chip": "ym2612"
    },
    {
      "channel": 2,
      "note": 59,
      "start": 47.1263,
      "duration": 0.0153,
      "velocity": 93,
      "chip": "ym2612"
    },
    {
      "channel": 1,
      "note": 78,
      "start": 47.1275,
      "duration": 0.0152,
      "velocity": 108,
      "chip": "ym2612"
    },
    {
      "channel": 5,
      "note": 78,
      "start": 47.1378,
      "duration": 0.0153,
      "velocity": 108,
      "chip": "ym2612"
    },
    {
      "channel": 2,
      "note": 59,
      "start": 47.1416,
      "duration": 0.0153,
      "velocity": 93,
      "chip": "ym2612"
    },
    {
      "channel": 1,
      "note": 78,
      "start": 47.1427,
      "duration": 0.0153,
      "velocity": 108,
      "chip": "ym2612"
    },
    {
      "channel": 5,
      "note": 78,
      "start": 47.1531,
      "duration": 0.0163,
      "velocity": 108,
      "chip": "ym2612"
    },
    {
      "channel": 2,
      "note": 59,
      "start": 47.1568,
      "duration": 0.0164,
      "velocity": 93,
      "chip": "ym2612"
    },
    {
      "channel": 1,
      "note": 78,
      "start": 47.158,
      "duration": 0.0163,
      "velocity": 108,
      "chip": "ym2612"
    },
    {
      "channel": 5,
      "note": 78,
      "start": 47.1694,
      "duration": 0.0163,
      "velocity": 108,
      "chip": "ym2612"
    },
    {
      "channel": 2,
      "note": 59,
      "start": 47.1732,
      "duration": 0.0163,
      "velocity": 93,
      "chip": "ym2612"
    },
    {
      "channel": 1,
      "note": 78,
      "start": 47.1744,
      "duration": 0.0163,
      "velocity": 108,
      "chip": "ym2612"
    },
    {
      "channel": 5,
      "note": 78,
      "start": 47.1857,
      "duration": 0.0161,
      "velocity": 108,
      "chip": "ym2612"
    },
    {
      "channel": 2,
      "note": 59,
      "start": 47.1895,
      "duration": 0.0161,
      "velocity": 93,
      "chip": "ym2612"
    },
    {
      "channel": 1,
      "note": 78,
      "start": 47.1907,
      "duration": 0.0162,
      "velocity": 108,
      "chip": "ym2612"
    },
    {
      "channel": 5,
      "note": 78,
      "start": 47.2018,
      "duration": 0.0157,
      "velocity": 108,
      "chip": "ym2612"
    },
    {
      "channel": 2,
      "note": 59,
      "start": 47.2056,
      "duration": 0.0162,
      "velocity": 93,
      "chip": "ym2612"
    },
    {
      "channel": 5,
      "note": 78,
      "start": 47.2175,
      "duration": 0.0237,
      "velocity": 108,
      "chip": "ym2612"
    },
    {
      "channel": 2,
      "note": 59,
      "start": 47.2218,
      "duration": 0.0239,
      "velocity": 93,
      "chip": "ym2612"
    },
    {
      "channel": 1,
      "note": 84,
      "start": 47.2363,
      "duration": 0.0137,
      "velocity": 124,
      "chip": "ym2612"
    },
    {
      "channel": 0,
      "note": 36,
      "start": 47.2399,
      "duration": 0.0125,
      "velocity": 115,
      "chip": "ym2612"
    },
    {
      "channel": 5,
      "note": 78,
      "start": 47.2412,
      "duration": 0.0125,
      "velocity": 108,
      "chip": "ym2612"
    },
    {
      "channel": 4,
      "note": 81,
      "start": 47.2427,
      "duration": 0.0123,
      "velocity": 98,
      "chip": "ym2612"
    },
    {
      "channel": 3,
      "note": 85,
      "start": 47.2442,
      "duration": 0.012,
      "velocity": 98,
      "chip": "ym2612"
    },
    {
      "channel": 2,
      "note": 59,
      "start": 47.2457,
      "duration": 0.0117,
      "velocity": 93,
      "chip": "ym2612"
    },
    {
      "channel": 1,
      "note": 82,
      "start": 47.2501,
      "duration": 0.016,
      "velocity": 124,
      "chip": "ym2612"
    },
    {
      "channel": 0,
      "note": 36,
      "start": 47.2524,
      "duration": 0.0159,
      "velocity": 115,
      "chip": "ym2612"
    },
    {
      "channel": 4,
      "note": 81,
      "start": 47.255,
      "duration": 0.0159,
      "velocity": 98,
      "chip": "ym2612"
    },
    {
      "channel": 3,
      "note": 85,
      "start": 47.2562,
      "duration": 0.0158,
      "velocity": 98,
      "chip": "ym2612"
    },
    {
      "channel": 2,
      "note": 59,
      "start": 47.2574,
      "duration": 0.0158,
      "velocity": 93,
      "chip": "ym2612"
    },
    {
      "channel": 1,
      "note": 80,
      "start": 47.2661,
      "duration": 0.0161,
      "velocity": 124,
      "chip": "ym2612"
    },
    {
      "channel": 0,
      "note": 37,
      "start": 47.2683,
      "duration": 0.0159,
      "velocity": 115,
      "chip": "ym2612"
    },
    {
      "channel": 4,
      "note": 81,
      "start": 47.2709,
      "duration": 0.0161,
      "velocity": 98,
      "chip": "ym2612"
    },
    {
      "channel": 3,
      "note": 85,
      "start": 47.272,
      "duration": 0.0161,
      "velocity": 98,
      "chip": "ym2612"
    },
    {
      "channel": 2,
      "note": 59,
      "start": 47.2732,
      "duration": 0.016,
      "velocity": 93,
      "chip": "ym2612"
    },
    {
      "channel": 1,
      "note": 77,
      "start": 47.2822,
      "duration": 0.0161,
      "velocity": 124,
      "chip": "ym2612"
    },
    {
      "channel": 0,
      "note": 37,
      "start": 47.2842,
      "duration": 0.0159,
      "velocity": 115,
      "chip": "ym2612"
    },
    {
      "channel": 4,
      "note": 81,
      "start": 47.287,
      "duration": 0.0161,
      "velocity": 98,
      "chip": "ym2612"
    },
    {
      "channel": 3,
      "note": 85,
      "start": 47.2881,
      "duration": 0.0161,
      "velocity": 98,
      "chip": "ym2612"
    },
    {
      "channel": 2,
      "note": 59,
      "start": 47.2893,
      "duration": 0.0161,
      "velocity": 93,
      "chip": "ym2612"
    },
    {
      "channel": 1,
      "note": 75,
      "start": 47.2983,
      "duration": 0.0161,
      "velocity": 124,
      "chip": "ym2612"
    },
    {
      "channel": 0,
      "note": 38,
      "start": 47.3,
      "duration": 0.0161,
      "velocity": 115,
      "chip": "ym2612"
    },
    {
      "channel": 4,
      "note": 81,
      "start": 47.3031,
      "duration": 0.0161,
      "velocity": 98,
      "chip": "ym2612"
    },
    {
      "channel": 3,
      "note": 85,
      "start": 47.3042,
      "duration": 0.0161,
      "velocity": 98,
      "chip": "ym2612"
    },
    {
      "channel": 2,
      "note": 59,
      "start": 47.3054,
      "duration": 0.0162,
      "velocity": 93,
      "chip": "ym2612"
    },
    {
      "channel": 1,
      "note": 72,
      "start": 47.3145,
      "duration": 0.016,
      "velocity": 124,
      "chip": "ym2612"
    },
    {
      "channel": 0,
      "note": 38,
      "start": 47.3161,
      "duration": 0.0161,
      "velocity": 115,
      "chip": "ym2612"
    },
    {
      "channel": 4,
      "note": 81,
      "start": 47.3192,
      "duration": 0.0161,
      "velocity": 98,
      "chip": "ym2612"
    },
    {
      "channel": 3,
      "note": 85,
      "start": 47.3203,
      "duration": 0.0161,
      "velocity": 98,
      "chip": "ym2612"
    },
    {
      "channel": 2,
      "note": 59,
      "start": 47.3215,
      "duration": 0.0161,
      "velocity": 93,
      "chip": "ym2612"
    },
    {
      "channel": 1,
      "note": 70,
      "start": 47.3305,
      "duration": 0.0162,
      "velocity": 124,
      "chip": "ym2612"
    },
    {
      "channel": 0,
      "note": 39,
      "start": 47.3322,
      "duration": 0.0162,
      "velocity": 115,
      "chip": "ym2612"
    },
    {
      "channel": 4,
      "note": 81,
      "start": 47.3353,
      "duration": 0.016,
      "velocity": 98,
      "chip": "ym2612"
    },
    {
      "channel": 3,
      "note": 85,
      "start": 47.3364,
      "duration": 0.0162,
      "velocity": 98,
      "chip": "ym2612"
    },
    {
      "channel": 2,
      "note": 59,
      "start": 47.3376,
      "duration": 0.0161,
      "velocity": 93,
      "chip": "ym2612"
    },
    {
      "channel": 1,
      "note": 68,
      "start": 47.3467,
      "duration": 0.0161,
      "velocity": 124,
      "chip": "ym2612"
    },
    {
      "channel": 0,
      "note": 39,
      "start": 47.3484,
      "duration": 0.0161,
      "velocity": 115,
      "chip": "ym2612"
    },
    {
      "channel": 4,
      "note": 81,
      "start": 47.3513,
      "duration": 0.0156,
      "velocity": 98,
      "chip": "ym2612"
    },
    {
      "channel": 3,
      "note": 85,
      "start": 47.3526,
      "duration": 0.0161,
      "velocity": 98,
      "chip": "ym2612"
    },
    {
      "channel": 2,
      "note": 59,
      "start": 47.3537,
      "duration": 0.0161,
      "velocity": 93,
      "chip": "ym2612"
    },
    {
      "channel": 1,
      "note": 65,
      "start": 47.3628,
      "duration": 0.0161,
      "velocity": 124,
      "chip": "ym2612"
    },
    {
      "channel": 0,
      "note": 40,
      "start": 47.3645,
      "duration": 0.0161,
      "velocity": 115,
      "chip": "ym2612"
    },
    {
      "channel": 4,
      "note": 81,
      "start": 47.3669,
      "duration": 0.0162,
      "velocity": 98,
      "chip": "ym2612"
    },
    {
      "channel": 3,
      "note": 85,
      "start": 47.3687,
      "duration": 0.0162,
      "velocity": 98,
      "chip": "ym2612"
    },
    {
      "channel": 2,
      "note": 59,
      "start": 47.3698,
      "duration": 0.0163,
      "velocity": 93,
      "chip": "ym2612"
    },
    {
      "channel": 1,
      "note": 63,
      "start": 47.3788,
      "duration": 0.0153,
      "velocity": 1,
      "chip": "ym2612"
    },
    {
      "channel": 0,
      "note": 40,
      "start": 47.3806,
      "duration": 0.0153,
      "velocity": 115,
      "chip": "ym2612"
    },
    {
      "channel": 4,
      "note": 81,
      "start": 47.3831,
      "duration": 0.0153,
      "velocity": 98,
      "chip": "ym2612"
    },
    {
      "channel": 3,
      "note": 85,
      "start": 47.3848,
      "duration": 0.0148,
      "velocity": 98,
      "chip": "ym2612"
    },
    {
      "channel": 2,
      "note": 59,
      "start": 47.3862,
      "duration": 0.0148,
      "velocity": 93,
      "chip": "ym2612"
    },
    {
      "channel": 0,
      "note": 40,
      "start": 47.3958,
      "duration": 0.0152,
      "velocity": 115,
      "chip": "ym2612"
    },
    {
      "channel": 4,
      "note": 81,
      "start": 47.3983,
      "duration": 0.0153,
      "velocity": 98,
      "chip": "ym2612"
    },
    {
      "channel": 3,
      "note": 85,
      "start": 47.3996,
      "duration": 0.0153,
      "velocity": 98,
      "chip": "ym2612"
    },
    {
      "channel": 2,
      "note": 59,
      "start": 47.401,
      "duration": 0.0151,
      "velocity": 93,
      "chip": "ym2612"
    },
    {
      "channel": 0,
      "note": 41,
      "start": 47.411,
      "duration": 0.017,
      "velocity": 115,
      "chip": "ym2612"
    },
    {
      "channel": 4,
      "note": 81,
      "start": 47.4136,
      "duration": 0.0168,
      "velocity": 98,
      "chip": "ym2612"
    },
    {
      "channel": 3,
      "note": 85,
      "start": 47.4149,
      "duration": 0.0168,
      "velocity": 98,
      "chip": "ym2612"
    },
    {
      "channel": 2,
      "note": 59,
      "start": 47.4161,
      "duration": 0.0167,
      "velocity": 93,
      "chip": "ym2612"
    },
    {
      "channel": 0,
      "note": 41,
      "start": 47.428,
      "duration": 0.0153,
      "velocity": 115,
      "chip": "ym2612"
    },
    {
      "channel": 4,
      "note": 81,
      "start": 47.4304,
      "duration": 0.0153,
      "velocity": 98,
      "chip": "ym2612"
    },
    {
      "channel": 3,
      "note": 85,
      "start": 47.4317,
      "duration": 0.0153,
      "velocity": 98,
      "chip": "ym2612"
    },
    {
      "channel": 2,
      "note": 59,
      "start": 47.4328,
      "duration": 0.0153,
      "velocity": 93,
      "chip": "ym2612"
    },
    {
      "channel": 1,
      "note": 78,
      "start": 47.436,
      "duration": 0.0134,
      "velocity": 108,
      "chip": "ym2612"
    },
    {
      "channel": 0,
      "note": 42,
      "start": 47.4433,
      "duration": 0.0161,
      "velocity": 115,
      "chip": "ym2612"
    },
    {
      "channel": 4,
      "note": 81,
      "start": 47.4457,
      "duration": 0.0163,
      "velocity": 98,
      "chip": "ym2612"
    },
    {
      "channel": 3,
      "note": 85,
      "start": 47.4469,
      "duration": 0.0163,
      "velocity": 98,
      "chip": "ym2612"
    },
    {
      "channel": 2,
      "note": 59,
      "start": 47.4481,
      "duration": 0.0163,
      "velocity": 93,
      "chip": "ym2612"
    },
    {
      "channel": 1,
      "note": 80,
      "start": 47.4493,
      "duration": 0.0163,
      "velocity": 108,
      "chip": "ym2612"
    },
    {
      "channel": 0,
      "note": 42,
      "start": 47.4594,
      "duration": 0.0161,
      "velocity": 115,
      "chip": "ym2612"
    },
    {
      "channel": 5,
      "note": 80,
      "start": 47.4609,
      "duration": 0.0158,
      "velocity": 108,
      "chip": "ym2612"
    },
    {
      "channel": 4,
      "note": 81,
      "start": 47.4621,
      "duration": 0.0158,
      "velocity": 98,
      "chip": "ym2612"
    },
    {
      "channel": 3,
      "note": 85,
      "start": 47.4633,
      "duration": 0.0159,
      "velocity": 98,
      "chip": "ym2612"
    },
    {
      "channel": 2,
      "note": 59,
      "start": 47.4644,
      "duration": 0.0158,
      "velocity": 93,
      "chip": "ym2612"
    },
    {
      "channel": 1,
      "note": 80,
      "start": 47.4656,
      "duration": 0.0158,
      "velocity": 108,
      "chip": "ym2612"
    },
    {
      "channel": 0,
      "note": 43,
      "start": 47.4755,
      "duration": 0.0161,
      "velocity": 115,
      "chip": "ym2612"
    },
    {
      "channel": 5,
      "note": 80,
      "start": 47.4767,
      "duration": 0.016,
      "velocity": 108,
      "chip": "ym2612"
    },
    {
      "channel": 4,
      "note": 81,
      "start": 47.4779,
      "duration": 0.0161,
      "velocity": 98,
      "chip": "ym2612"
    },
    {
      "channel": 3,
      "note": 85,
      "start": 47.4791,
      "duration": 0.0161,
      "velocity": 98,
      "chip": "ym2612"
    },
    {
      "channel": 2,
      "note": 59,
      "start": 47.4802,
      "duration": 0.0162,
      "velocity": 93,
      "chip": "ym2612"
    },
    {
      "channel": 1,
      "note": 80,
      "start": 47.4814,
      "duration": 0.0162,
      "velocity": 108,
      "chip": "ym2612"
    },
    {
      "channel": 0,
      "note": 43,
      "start": 47.4916,
      "duration": 0.0161,
      "velocity": 115,
      "chip": "ym2612"
    },
    {
      "channel": 5,
      "note": 80,
      "start": 47.4927,
      "duration": 0.0161,
      "velocity": 108,
      "chip": "ym2612"
    },
    {
      "channel": 4,
      "note": 81,
      "start": 47.494,
      "duration": 0.0162,
      "velocity": 98,
      "chip": "ym2612"
    },
    {
      "channel": 3,
      "note": 85,
      "start": 47.4953,
      "duration": 0.0162,
      "velocity": 98,
      "chip": "ym2612"
    },
    {
      "channel": 2,
      "note": 59,
      "start": 47.4965,
      "duration": 0.0162,
      "velocity": 93,
      "chip": "ym2612"
    },
    {
      "channel": 1,
      "note": 80,
      "start": 47.4976,
      "duration": 0.0162,
      "velocity": 108,
      "chip": "ym2612"
    },
    {
      "channel": 0,
      "note": 44,
      "start": 47.5077,
      "duration": 0.0161,
      "velocity": 115,
      "chip": "ym2612"
    },
    {
      "channel": 5,
      "note": 80,
      "start": 47.5089,
      "duration": 0.0161,
      "velocity": 108,
      "chip": "ym2612"
    },
    {
      "channel": 2,
      "note": 59,
      "start": 47.5127,
      "duration": 0.0163,
      "velocity": 93,
      "chip": "ym2612"
    },
    {
      "channel": 1,
      "note": 80,
      "start": 47.5138,
      "duration": 0.0165,
      "velocity": 108,
      "chip": "ym2612"
    },
    {
      "channel": 0,
      "note": 44,
      "start": 47.5238,
      "duration": 0.0161,
      "velocity": 115,
      "chip": "ym2612"
    },
    {
      "channel": 5,
      "note": 80,
      "start": 47.525,
      "duration": 0.0161,
      "velocity": 108,
      "chip": "ym2612"
    },
    {
      "channel": 2,
      "note": 59,
      "start": 47.529,
      "duration": 0.0158,
      "velocity": 93,
      "chip": "ym2612"
    },
    {
      "channel": 1,
      "note": 80,
      "start": 47.5303,
      "duration": 0.0157,
      "velocity": 108,
      "chip": "ym2612"
    },
    {
      "channel": 0,
      "note": 44,
      "start": 47.5399,
      "duration": 0.0161,
      "velocity": 115,
      "chip": "ym2612"
    },
    {
      "channel": 5,
      "note": 80,
      "start": 47.5411,
      "duration": 0.0162,
      "velocity": 108,
      "chip": "ym2612"
    },
    {
      "channel": 2,
      "note": 59,
      "start": 47.5448,
      "duration": 0.0162,
      "velocity": 93,
      "chip": "ym2612"
    },
    {
      "channel": 1,
      "note": 80,
      "start": 47.546,
      "duration": 0.0162,
      "velocity": 108,
      "chip": "ym2612"
    },
    {
      "channel": 0,
      "note": 45,
      "start": 47.5559,
      "duration": 0.0162,
      "velocity": 115,
      "chip": "ym2612"
    },
    {
      "channel": 5,
      "note": 80,
      "start": 47.5572,
      "duration": 0.0161,
      "velocity": 108,
      "chip": "ym2612"
    },
    {
      "channel": 2,
      "note": 59,
      "start": 47.561,
      "duration": 0.016,
      "velocity": 93,
      "chip": "ym2612"
    },
    {
      "channel": 1,
      "note": 80,
      "start": 47.5622,
      "duration": 0.016,
      "velocity": 108,
      "chip": "ym2612"
    },
    {
      "channel": 0,
      "note": 45,
      "start": 47.5721,
      "duration": 0.0161,
      "velocity": 115,
      "chip": "ym2612"
    },
    {
      "channel": 5,
      "note": 80,
      "start": 47.5733,
      "duration": 0.0161,
      "velocity": 108,
      "chip": "ym2612"
    },
    {
      "channel": 2,
      "note": 59,
      "start": 47.5771,
      "duration": 0.0161,
      "velocity": 93,
      "chip": "ym2612"
    },
    {
      "channel": 1,
      "note": 80,
      "start": 47.5783,
      "duration": 0.0161,
      "velocity": 108,
      "chip": "ym2612"
    },
    {
      "channel": 0,
      "note": 46,
      "start": 47.5882,
      "duration": 0.0161,
      "velocity": 115,
      "chip": "ym2612"
    },
    {
      "channel": 5,
      "note": 80,
      "start": 47.5894,
      "duration": 0.016,
      "velocity": 108,
      "chip": "ym2612"
    },
    {
      "channel": 2,
      "note": 59,
      "start": 47.5932,
      "duration": 0.016,
      "velocity": 93,
      "chip": "ym2612"
    },
    {
      "channel": 1,
      "note": 80,
      "start": 47.5944,
      "duration": 0.016,
      "velocity": 108,
      "chip": "ym2612"
    },
    {
      "channel": 0,
      "note": 46,
      "start": 47.6043,
      "duration": 0.0162,
      "velocity": 115,
      "chip": "ym2612"
    },
    {
      "channel": 5,
      "note": 80,
      "start": 47.6054,
      "duration": 0.0162,
      "velocity": 108,
      "chip": "ym2612"
    },
    {
      "channel": 2,
      "note": 59,
      "start": 47.6093,
      "duration": 0.0162,
      "velocity": 93,
      "chip": "ym2612"
    },
    {
      "channel": 0,
      "note": 47,
      "start": 47.6205,
      "duration": 0.0162,
      "velocity": 115,
      "chip": "ym2612"
    },
    {
      "channel": 5,
      "note": 80,
      "start": 47.6216,
      "duration": 0.0163,
      "velocity": 108,
      "chip": "ym2612"
    },
    {
      "channel": 2,
      "note": 59,
      "start": 47.6254,
      "duration": 0.0163,
      "velocity": 93,
      "chip": "ym2612"
    },
    {
      "channel": 0,
      "note": 47,
      "start": 47.6367,
      "duration": 0.0163,
      "velocity": 115,
      "chip": "ym2612"
    },
    {
      "channel": 2,
      "note": 59,
      "start": 47.6417,
      "duration": 0.0164,
      "velocity": 93,
      "chip": "ym2612"
    },
    {
      "channel": 0,
      "note": 47,
      "start": 47.653,
      "duration": 0.0163,
      "velocity": 115,
      "chip": "ym2612"
    },
    {
      "channel": 2,
      "note": 59,
      "start": 47.6581,
      "duration": 0.0162,
      "velocity": 93,
      "chip": "ym2612"
    },
    {
      "channel": 0,
      "note": 48,
      "start": 47.6693,
      "duration": 0.0161,
      "velocity": 115,
      "chip": "ym2612"
    },
    {
      "channel": 2,
      "note": 59,
      "start": 47.6743,
      "duration": 0.0161,
      "velocity": 93,
      "chip": "ym2612"
    },
    {
      "channel": 0,
      "note": 48,
      "start": 47.6854,
      "duration": 0.016,
      "velocity": 115,
      "chip": "ym2612"
    },
    {
      "channel": 2,
      "note": 59,
      "start": 47.6904,
      "duration": 0.0161,
      "velocity": 93,
      "chip": "ym2612"
    },
    {
      "channel": 0,
      "note": 49,
      "start": 47.7014,
      "duration": 0.0179,
      "velocity": 124,
      "chip": "ym2612"
    },
    {
      "channel": 2,
      "note": 59,
      "start": 47.7066,
      "duration": 0.0187,
      "velocity": 93,
      "chip": "ym2612"
    },
    {
      "channel": 0,
      "note": 84,
      "start": 47.7194,
      "duration": 0.0137,
      "velocity": 124,
      "chip": "ym2612"
    },
    {
      "channel": 4,
      "note": 81,
      "start": 47.7223,
      "duration": 0.0139,
      "velocity": 98,
      "chip": "ym2612"
    },
    {
      "channel": 3,
      "note": 85,
      "start": 47.7238,
      "duration": 0.0137,
      "velocity": 98,
      "chip": "ym2612"
    },
    {
      "channel": 2,
      "note": 59,
      "start": 47.7254,
      "duration": 0.0134,
      "velocity": 93,
      "chip": "ym2612"
    },
    {
      "channel": 1,
      "note": 80,
      "start": 47.7268,
      "duration": 0.0131,
      "velocity": 108,
      "chip": "ym2612"
    },
    {
      "channel": 0,
      "note": 82,
      "start": 47.7332,
      "duration": 0.016,
      "velocity": 124,
      "chip": "ym2612"
    },
    {
      "channel": 4,
      "note": 81,
      "start": 47.7362,
      "duration": 0.0162,
      "velocity": 98,
      "chip": "ym2612"
    },
    {
      "channel": 3,
      "note": 85,
      "start": 47.7375,
      "duration": 0.0161,
      "velocity": 98,
      "chip": "ym2612"
    },
    {
      "channel": 2,
      "note": 59,
      "start": 47.7387,
      "duration": 0.0161,
      "velocity": 93,
      "chip": "ym2612"
    },
    {
      "channel": 1,
      "note": 80,
      "start": 47.7399,
      "duration": 0.016,
      "velocity": 108,
      "chip": "ym2612"
    },
    {
      "channel": 0,
      "note": 80,
      "start": 47.7492,
      "duration": 0.0161,
      "velocity": 124,
      "chip": "ym2612"
    },
    {
      "channel": 5,
      "note": 80,
      "start": 47.7509,
      "duration": 0.0156,
      "velocity": 108,
      "chip": "ym2612"
    },
    {
      "channel": 4,
      "note": 81,
      "start": 47.7524,
      "duration": 0.0158,
      "velocity": 98,
      "chip": "ym2612"
    },
    {
      "channel": 3,
      "note": 85,
      "start": 47.7537,
      "duration": 0.0158,
      "velocity": 98,
      "chip": "ym2612"
    },
    {
      "channel": 2,
      "note": 59,
      "start": 47.7548,
      "duration": 0.0158,
      "velocity": 93,
      "chip": "ym2612"
    },
    {
      "channel": 1,
      "note": 80,
      "start": 47.7559,
      "duration": 0.0159,
      "velocity": 108,
      "chip": "ym2612"
    },
    {
      "channel": 0,
      "note": 77,
      "start": 47.7653,
      "duration": 0.0161,
      "velocity": 124,
      "chip": "ym2612"
    },
    {
      "channel": 5,
      "note": 80,
      "start": 47.7665,
      "duration": 0.016,
      "velocity": 108,
      "chip": "ym2612"
    },
    {
      "channel": 4,
      "note": 81,
      "start": 47.7682,
      "duration": 0.0155,
      "velocity": 98,
      "chip": "ym2612"
    },
    {
      "channel": 3,
      "note": 85,
      "start": 47.7694,
      "duration": 0.016,
      "velocity": 98,
      "chip": "ym2612"
    },
    {
      "channel": 2,
      "note": 59,
      "start": 47.7706,
      "duration": 0.016,
      "velocity": 93,
      "chip": "ym2612"
    },
    {
      "channel": 1,
      "note": 80,
      "start": 47.7718,
      "duration": 0.016,
      "velocity": 108,
      "chip": "ym2612"
    },
    {
      "channel": 0,
      "note": 75,
      "start": 47.7814,
      "duration": 0.0161,
      "velocity": 124,
      "chip": "ym2612"
    },
    {
      "channel": 5,
      "note": 80,
      "start": 47.7825,
      "duration": 0.0162,
      "velocity": 108,
      "chip": "ym2612"
    },
    {
      "channel": 4,
      "note": 81,
      "start": 47.7837,
      "duration": 0.0161,
      "velocity": 98,
      "chip": "ym2612"
    },
    {
      "channel": 3,
      "note": 85,
      "start": 47.7855,
      "duration": 0.0161,
      "velocity": 98,
      "chip": "ym2612"
    },
    {
      "channel": 2,
      "note": 59,
      "start": 47.7867,
      "duration": 0.0161,
      "velocity": 93,
      "chip": "ym2612"
    },
    {
      "channel": 1,
      "note": 80,
      "start": 47.7878,
      "duration": 0.0161,
      "velocity": 108,
      "chip": "ym2612"
    },
    {
      "channel": 0,
      "note": 72,
      "start": 47.7975,
      "duration": 0.0179,
      "velocity": 124,
      "chip": "ym2612"
    },
    {
      "channel": 5,
      "note": 80,
      "start": 47.7987,
      "duration": 0.0179,
      "velocity": 108,
      "chip": "ym2612"
    },
    {
      "channel": 2,
      "note": 59,
      "start": 47.8028,
      "duration": 0.0191,
      "velocity": 93,
      "chip": "ym2612"
    },
    {
      "channel": 0,
      "note": 84,
      "start": 47.8155,
      "duration": 0.0143,
      "velocity": 124,
      "chip": "ym2612"
    },
    {
      "channel": 5,
      "note": 80,
      "start": 47.8166,
      "duration": 0.0143,
      "velocity": 108,
      "chip": "ym2612"
    },
    {
      "channel": 4,
      "note": 81,
      "start": 47.8188,
      "duration": 0.0134,
      "velocity": 98,
      "chip": "ym2612"
    },
    {
      "channel": 3,
      "note": 85,
      "start": 47.8204,
      "duration": 0.013,
      "velocity": 98,
      "chip": "ym2612"
    },
    {
      "channel": 2,
      "note": 59,
      "start": 47.8219,
      "duration": 0.0132,
      "velocity": 93,
      "chip": "ym2612"
    },
    {
      "channel": 1,
      "note": 78,
      "start": 47.8234,
      "duration": 0.0131,
      "velocity": 108,
      "chip": "ym2612"
    },
    {
      "channel": 0,
      "note": 82,
      "start": 47.8298,
      "duration": 0.0161,
      "velocity": 124,
      "chip": "ym2612"
    },
    {
      "channel": 4,
      "note": 81,
      "start": 47.8322,
      "duration": 0.0163,
      "velocity": 98,
      "chip": "ym2612"
    },
    {
      "channel": 3,
      "note": 85,
      "start": 47.8334,
      "duration": 0.0162,
      "velocity": 98,
      "chip": "ym2612"
    },
    {
      "channel": 2,
      "note": 59,
      "start": 47.8351,
      "duration": 0.0159,
      "velocity": 93,
      "chip": "ym2612"
    },
    {
      "channel": 1,
      "note": 78,
      "start": 47.8365,
      "duration": 0.016,
      "velocity": 108,
      "chip": "ym2612"
    },
    {
      "channel": 0,
      "note": 80,
      "start": 47.8458,
      "duration": 0.0161,
      "velocity": 124,
      "chip": "ym2612"
    },
    {
      "channel": 5,
      "note": 78,
      "start": 47.8473,
      "duration": 0.0158,
      "velocity": 108,
      "chip": "ym2612"
    },
    {
      "channel": 4,
      "note": 81,
      "start": 47.8485,
      "duration": 0.0158,
      "velocity": 98,
      "chip": "ym2612"
    },
    {
      "channel": 3,
      "note": 85,
      "start": 47.8497,
      "duration": 0.0158,
      "velocity": 98,
      "chip": "ym2612"
    },
    {
      "channel": 2,
      "note": 59,
      "start": 47.851,
      "duration": 0.0156,
      "velocity": 93,
      "chip": "ym2612"
    },
    {
      "channel": 1,
      "note": 78,
      "start": 47.8525,
      "duration": 0.0158,
      "velocity": 108,
      "chip": "ym2612"
    },
    {
      "channel": 0,
      "note": 77,
      "start": 47.8619,
      "duration": 0.0161,
      "velocity": 124,
      "chip": "ym2612"
    },
    {
      "channel": 5,
      "note": 78,
      "start": 47.8631,
      "duration": 0.016,
      "velocity": 108,
      "chip": "ym2612"
    },
    {
      "channel": 4,
      "note": 81,
      "start": 47.8643,
      "duration": 0.016,
      "velocity": 98,
      "chip": "ym2612"
    },
    {
      "channel": 3,
      "note": 85,
      "start": 47.8655,
      "duration": 0.016,
      "velocity": 98,
      "chip": "ym2612"
    },
    {
      "channel": 2,
      "note": 59,
      "start": 47.8666,
      "duration": 0.016,
      "velocity": 93,
      "chip": "ym2612"
    },
    {
      "channel": 1,
      "note": 78,
      "start": 47.8683,
      "duration": 0.0155,
      "velocity": 108,
      "chip": "ym2612"
    },
    {
      "channel": 0,
      "note": 75,
      "start": 47.878,
      "duration": 0.0161,
      "velocity": 124,
      "chip": "ym2612"
    },
    {
      "channel": 5,
      "note": 78,
      "start": 47.8792,
      "duration": 0.0161,
      "velocity": 108,
      "chip": "ym2612"
    },
    {
      "channel": 4,
      "note": 81,
      "start": 47.8803,
      "duration": 0.0161,
      "velocity": 98,
      "chip": "ym2612"
    },
    {
      "channel": 3,
      "note": 85,
      "start": 47.8815,
      "duration": 0.0161,
      "velocity": 98,
      "chip": "ym2612"
    },
    {
      "channel": 2,
      "note": 59,
      "start": 47.8827,
      "duration": 0.0161,
      "velocity": 93,
      "chip": "ym2612"
    },
    {
      "channel": 1,
      "note": 78,
      "start": 47.8838,
      "duration": 0.0162,
      "velocity": 108,
      "chip": "ym2612"
    },
    {
      "channel": 0,
      "note": 72,
      "start": 47.8941,
      "duration": 0.0161,
      "velocity": 124,
      "chip": "ym2612"
    },
    {
      "channel": 5,
      "note": 78,
      "start": 47.8953,
      "duration": 0.0161,
      "velocity": 108,
      "chip": "ym2612"
    },
    {
      "channel": 4,
      "note": 81,
      "start": 47.8965,
      "duration": 0.0161,
      "velocity": 98,
      "chip": "ym2612"
    },
    {
      "channel": 3,
      "note": 85,
      "start": 47.8976,
      "duration": 0.0161,
      "velocity": 98,
      "chip": "ym2612"
    },
    {
      "channel": 2,
      "note": 59,
      "start": 47.8988,
      "duration": 0.0162,
      "velocity": 93,
      "chip": "ym2612"
    },
    {
      "channel": 1,
      "note": 78,
      "start": 47.9,
      "duration": 0.0161,
      "velocity": 108,
      "chip": "ym2612"
    },
    {
      "channel": 0,
      "note": 70,
      "start": 47.9102,
      "duration": 0.0161,
      "velocity": 124,
      "chip": "ym2612"
    },
    {
      "channel": 5,
      "note": 78,
      "start": 47.9114,
      "duration": 0.0161,
      "velocity": 108,
      "chip": "ym2612"
    },
    {
      "channel": 4,
      "note": 81,
      "start": 47.9126,
      "duration": 0.0161,
      "velocity": 98,
      "chip": "ym2612"
    },
    {
      "channel": 3,
      "note": 85,
      "start": 47.9138,
      "duration": 0.016,
      "velocity": 98,
      "chip": "ym2612"
    },
    {
      "channel": 2,
      "note": 59,
      "start": 47.9149,
      "duration": 0.0161,
      "velocity": 93,
      "chip": "ym2612"
    },
    {
      "channel": 1,
      "note": 78,
      "start": 47.9161,
      "duration": 0.0161,
      "velocity": 108,
      "chip": "ym2612"
    },
    {
      "channel": 0,
      "note": 68,
      "start": 47.9263,
      "duration": 0.0161,
      "velocity": 124,
      "chip": "ym2612"
    },
    {
      "channel": 5,
      "note": 78,
      "start": 47.9275,
      "duration": 0.0161,
      "velocity": 108,
      "chip": "ym2612"
    },
    {
      "channel": 4,
      "note": 81,
      "start": 47.9287,
      "duration": 0.0161,
      "velocity": 98,
      "chip": "ym2612"
    },
    {
      "channel": 3,
      "note": 85,
      "start": 47.9298,
      "duration": 0.0162,
      "velocity": 98,
      "chip": "ym2612"
    },
    {
      "channel": 2,
      "note": 59,
      "start": 47.931,
      "duration": 0.0161,
      "velocity": 93,
      "chip": "ym2612"
    },
    {
      "channel": 1,
      "note": 78,
      "start": 47.9322,
      "duration": 0.0162,
      "velocity": 108,
      "chip": "ym2612"
    },
    {
      "channel": 0,
      "note": 65,
      "start": 47.9424,
      "duration": 0.0161,
      "velocity": 124,
      "chip": "ym2612"
    },
    {
      "channel": 5,
      "note": 78,
      "start": 47.9436,
      "duration": 0.0161,
      "velocity": 108,
      "chip": "ym2612"
    },
    {
      "channel": 4,
      "note": 81,
      "start": 47.9448,
      "duration": 0.0162,
      "velocity": 98,
      "chip": "ym2612"
    },
    {
      "channel": 3,
      "note": 85,
      "start": 47.946,
      "duration": 0.0163,
      "velocity": 98,
      "chip": "ym2612"
    },
    {
      "channel": 2,
      "note": 59,
      "start": 47.9471,
      "duration": 0.0163,
      "velocity": 93,
      "chip": "ym2612"
    },
    {
      "channel": 1,
      "note": 78,
      "start": 47.9483,
      "duration": 0.0163,
      "velocity": 108,
      "chip": "ym2612"
    },
    {
      "channel": 0,
      "note": 63,
      "start": 47.9585,
      "duration": 0.0153,
      "velocity": 1,
      "chip": "ym2612"
    },
    {
      "channel": 5,
      "note": 78,
      "start": 47.9597,
      "duration": 0.0153,
      "velocity": 108,
      "chip": "ym2612"
    },
    {
      "channel": 4,
      "note": 81,
      "start": 47.961,
      "duration": 0.0152,
      "velocity": 98,
      "chip": "ym2612"
    },
    {
      "channel": 3,
      "note": 85,
      "start": 47.9622,
      "duration": 0.0152,
      "velocity": 98,
      "chip": "ym2612"
    },
    {
      "channel": 2,
      "note": 59,
      "start": 47.9634,
      "duration": 0.0152,
      "velocity": 93,
      "chip": "ym2612"
    },
    {
      "channel": 1,
      "note": 78,
      "start": 47.9647,
      "duration": 0.0152,
      "velocity": 108,
      "chip": "ym2612"
    },
    {
      "channel": 5,
      "note": 78,
      "start": 47.975,
      "duration": 0.0153,
      "velocity": 108,
      "chip": "ym2612"
    },
    {
      "channel": 4,
      "note": 81,
      "start": 47.9762,
      "duration": 0.0153,
      "velocity": 98,
      "chip": "ym2612"
    },
    {
      "channel": 3,
      "note": 85,
      "start": 47.9775,
      "duration": 0.0153,
      "velocity": 98,
      "chip": "ym2612"
    },
    {
      "channel": 2,
      "note": 59,
      "start": 47.9787,
      "duration": 0.0153,
      "velocity": 93,
      "chip": "ym2612"
    },
    {
      "channel": 1,
      "note": 78,
      "start": 47.9799,
      "duration": 0.0154,
      "velocity": 108,
      "chip": "ym2612"
    },
    {
      "channel": 5,
      "note": 78,
      "start": 47.9903,
      "duration": 0.016,
      "velocity": 108,
      "chip": "ym2612"
    },
    {
      "channel": 4,
      "note": 81,
      "start": 47.9915,
      "duration": 0.016,
      "velocity": 98,
      "chip": "ym2612"
    },
    {
      "channel": 3,
      "note": 85,
      "start": 47.9928,
      "duration": 0.016,
      "velocity": 98,
      "chip": "ym2612"
    },
    {
      "channel": 2,
      "note": 59,
      "start": 47.994,
      "duration": 0.0159,
      "velocity": 93,
      "chip": "ym2612"
    },
    {
      "channel": 1,
      "note": 78,
      "start": 47.9953,
      "duration": 0.0158,
      "velocity": 108,
      "chip": "ym2612"
    },
    {
      "channel": 5,
      "note": 78,
      "start": 48.0063,
      "duration": 0.0162,
      "velocity": 108,
      "chip": "ym2612"
    },
    {
      "channel": 4,
      "note": 81,
      "start": 48.0076,
      "duration": 0.0161,
      "velocity": 98,
      "chip": "ym2612"
    },
    {
      "channel": 3,
      "note": 85,
      "start": 48.0088,
      "duration": 0.0161,
      "velocity": 98,
      "chip": "ym2612"
    },
    {
      "channel": 2,
      "note": 59,
      "start": 48.0099,
      "duration": 0.0161,
      "velocity": 93,
      "chip": "ym2612"
    },
    {
      "channel": 1,
      "note": 78,
      "start": 48.011,
      "duration": 0.0161,
      "velocity": 108,
      "chip": "ym2612"
    },
    {
      "channel": 5,
      "note": 78,
      "start": 48.0225,
      "duration": 0.016,
      "velocity": 108,
      "chip": "ym2612"
    },
    {
      "channel": 4,
      "note": 81,
      "start": 48.0236,
      "duration": 0.016,
      "velocity": 98,
      "chip": "ym2612"
    },
    {
      "channel": 3,
      "note": 85,
      "start": 48.0249,
      "duration": 0.016,
      "velocity": 98,
      "chip": "ym2612"
    },
    {
      "channel": 2,
      "note": 59,
      "start": 48.026,
      "duration": 0.016,
      "velocity": 93,
      "chip": "ym2612"
    },
    {
      "channel": 1,
      "note": 78,
      "start": 48.0272,
      "duration": 0.016,
      "velocity": 108,
      "chip": "ym2612"
    },
    {
      "channel": 5,
      "note": 78,
      "start": 48.0385,
      "duration": 0.0161,
      "velocity": 108,
      "chip": "ym2612"
    },
    {
      "channel": 4,
      "note": 81,
      "start": 48.0397,
      "duration": 0.0162,
      "velocity": 98,
      "chip": "ym2612"
    },
    {
      "channel": 3,
      "note": 85,
      "start": 48.0409,
      "duration": 0.0161,
      "velocity": 98,
      "chip": "ym2612"
    },
    {
      "channel": 2,
      "note": 59,
      "start": 48.042,
      "duration": 0.0162,
      "velocity": 93,
      "chip": "ym2612"
    },
    {
      "channel": 1,
      "note": 78,
      "start": 48.0432,
      "duration": 0.0161,
      "velocity": 108,
      "chip": "ym2612"
    },
    {
      "channel": 5,
      "note": 78,
      "start": 48.0546,
      "duration": 0.0161,
      "velocity": 108,
      "chip": "ym2612"
    },
    {
      "channel": 4,
      "note": 81,
      "start": 48.0558,
      "duration": 0.0161,
      "velocity": 98,
      "chip": "ym2612"
    },
    {
      "channel": 3,
      "note": 85,
      "start": 48.057,
      "duration": 0.0163,
      "velocity": 98,
      "chip": "ym2612"
    },
    {
      "channel": 2,
      "note": 59,
      "start": 48.0582,
      "duration": 0.0163,
      "velocity": 93,
      "chip": "ym2612"
    },
    {
      "channel": 1,
      "note": 78,
      "start": 48.0593,
      "duration": 0.0163,
      "velocity": 108,
      "chip": "ym2612"
    },
    {
      "channel": 5,
      "note": 78,
      "start": 48.0707,
      "duration": 0.0162,
      "velocity": 108,
      "chip": "ym2612"
    },
    {
      "channel": 4,
      "note": 81,
      "start": 48.072,
      "duration": 0.0162,
      "velocity": 98,
      "chip": "ym2612"
    },
    {
      "channel": 3,
      "note": 85,
      "start": 48.0732,
      "duration": 0.0162,
      "velocity": 98,
      "chip": "ym2612"
    },
    {
      "channel": 2,
      "note": 59,
      "start": 48.0745,
      "duration": 0.0162,
      "velocity": 93,
      "chip": "ym2612"
    },
    {
      "channel": 1,
      "note": 78,
      "start": 48.0757,
      "duration": 0.0163,
      "velocity": 108,
      "chip": "ym2612"
    },
    {
      "channel": 5,
      "note": 78,
      "start": 48.0869,
      "duration": 0.0197,
      "velocity": 108,
      "chip": "ym2612"
    },
    {
      "channel": 2,
      "note": 59,
      "start": 48.0907,
      "duration": 0.0204,
      "velocity": 93,
      "chip": "ym2612"
    },
    {
      "channel": 0,
      "note": 88,
      "start": 48.1054,
      "duration": 0.0146,
      "velocity": 127,
      "chip": "ym2612"
    },
    {
      "channel": 5,
      "note": 78,
      "start": 48.1066,
      "duration": 0.0146,
      "velocity": 108,
      "chip": "ym2612"
    },
    {
      "channel": 4,
      "note": 81,
      "start": 48.1081,
      "duration": 0.0144,
      "velocity": 98,
      "chip": "ym2612"
    },
    {
      "channel": 3,
      "note": 85,
      "start": 48.1096,
      "duration": 0.0141,
      "velocity": 98,
      "chip": "ym2612"
    },
    {
      "channel": 2,
      "note": 59,
      "start": 48.1111,
      "duration": 0.0138,
      "velocity": 93,
      "chip": "ym2612"
    },
    {
      "channel": 1,
      "note": 75,
      "start": 48.1126,
      "duration": 0.0136,
      "velocity": 108,
      "chip": "ym2612"
    },
    {
      "channel": 0,
      "note": 86,
      "start": 48.12,
      "duration": 0.0163,
      "velocity": 127,
      "chip": "ym2612"
    },
    {
      "channel": 4,
      "note": 81,
      "start": 48.1225,
      "duration": 0.0163,
      "velocity": 98,
      "chip": "ym2612"
    },
    {
      "channel": 3,
      "note": 85,
      "start": 48.1237,
      "duration": 0.0163,
      "velocity": 98,
      "chip": "ym2612"
    },
    {
      "channel": 2,
      "note": 59,
      "start": 48.1249,
      "duration": 0.0163,
      "velocity": 93,
      "chip": "ym2612"
    },
    {
      "channel": 1,
      "note": 75,
      "start": 48.1262,
      "duration": 0.0161,
      "velocity": 108,
      "chip": "ym2612"
    },
    {
      "channel": 0,
      "note": 85,
      "start": 48.1362,
      "duration": 0.0161,
      "velocity": 127,
      "chip": "ym2612"
    },
    {
      "channel": 5,
      "note": 75,
      "start": 48.1377,
      "duration": 0.0159,
      "velocity": 108,
      "chip": "ym2612"
    },
    {
      "channel": 4,
      "note": 81,
      "start": 48.1388,
      "duration": 0.0158,
      "velocity": 98,
      "chip": "ym2612"
    },
    {
      "channel": 3,
      "note": 85,
      "start": 48.14,
      "duration": 0.0159,
      "velocity": 98,
      "chip": "ym2612"
    },
    {
      "channel": 2,
      "note": 59,
      "start": 48.1412,
      "duration": 0.0158,
      "velocity": 93,
      "chip": "ym2612"
    },
    {
      "channel": 1,
      "note": 75,
      "start": 48.1423,
      "duration": 0.0159,
      "velocity": 108,
      "chip": "ym2612"
    },
    {
      "channel": 0,
      "note": 83,
      "start": 48.1523,
      "duration": 0.016,
      "velocity": 127,
      "chip": "ym2612"
    },
    {
      "channel": 5,
      "note": 75,
      "start": 48.1535,
      "duration": 0.016,
      "velocity": 108,
      "chip": "ym2612"
    },
    {
      "channel": 4,
      "note": 81,
      "start": 48.1547,
      "duration": 0.0161,
      "velocity": 98,
      "chip": "ym2612"
    },
    {
      "channel": 3,
      "note": 85,
      "start": 48.1559,
      "duration": 0.016,
      "velocity": 98,
      "chip": "ym2612"
    },
    {
      "channel": 2,
      "note": 59,
      "start": 48.157,
      "duration": 0.016,
      "velocity": 93,
      "chip": "ym2612"
    },
    {
      "channel": 1,
      "note": 75,
      "start": 48.1582,
      "duration": 0.0161,
      "velocity": 108,
      "chip": "ym2612"
    },
    {
      "channel": 0,
      "note": 81,
      "start": 48.1683,
      "duration": 0.0158,
      "velocity": 127,
      "chip": "ym2612"
    },
    {
      "channel": 5,
      "note": 75,
      "start": 48.1696,
      "duration": 0.0161,
      "velocity": 108,
      "chip": "ym2612"
    },
    {
      "channel": 4,
      "note": 81,
      "start": 48.1708,
      "duration": 0.0161,
      "velocity": 98,
      "chip": "ym2612"
    },
    {
      "channel": 3,
      "note": 85,
      "start": 48.1719,
      "duration": 0.0161,
      "velocity": 98,
      "chip": "ym2612"
    },
    {
      "channel": 2,
      "note": 59,
      "start": 48.1731,
      "duration": 0.0161,
      "velocity": 93,
      "chip": "ym2612"
    },
    {
      "channel": 1,
      "note": 75,
      "start": 48.1743,
      "duration": 0.0161,
      "velocity": 108,
      "chip": "ym2612"
    },
    {
      "channel": 0,
      "note": 80,
      "start": 48.1841,
      "duration": 0.0183,
      "velocity": 127,
      "chip": "ym2612"
    },
    {
      "channel": 5,
      "note": 75,
      "start": 48.1857,
      "duration": 0.0179,
      "velocity": 108,
      "chip": "ym2612"
    },
    {
      "channel": 4,
      "note": 81,
      "start": 48.1869,
      "duration": 0.0179,
      "velocity": 98,
      "chip": "ym2612"
    },
    {
      "channel": 3,
      "note": 85,
      "start": 48.188,
      "duration": 0.018,
      "velocity": 98,
      "chip": "ym2612"
    },
    {
      "channel": 2,
      "note": 59,
      "start": 48.1892,
      "duration": 0.018,
      "velocity": 93,
      "chip": "ym2612"
    },
    {
      "channel": 1,
      "note": 75,
      "start": 48.1904,
      "duration": 0.018,
      "velocity": 108,
      "chip": "ym2612"
    },
    {
      "channel": 0,
      "note": 88,
      "start": 48.2024,
      "duration": 0.0137,
      "velocity": 127,
      "chip": "ym2612"
    },
    {
      "channel": 5,
      "note": 75,
      "start": 48.2037,
      "duration": 0.0139,
      "velocity": 108,
      "chip": "ym2612"
    },
    {
      "channel": 4,
      "note": 81,
      "start": 48.2048,
      "duration": 0.0143,
      "velocity": 98,
      "chip": "ym2612"
    },
    {
      "channel": 3,
      "note": 85,
      "start": 48.206,
      "duration": 0.0143,
      "velocity": 98,
      "chip": "ym2612"
    },
    {
      "channel": 2,
      "note": 59,
      "start": 48.2072,
      "duration": 0.0143,
      "velocity": 93,
      "chip": "ym2612"
    },
    {
      "channel": 1,
      "note": 75,
      "start": 48.2084,
      "duration": 0.0142,
      "velocity": 108,
      "chip": "ym2612"
    },
    {
      "channel": 0,
      "note": 86,
      "start": 48.2162,
      "duration": 0.016,
      "velocity": 127,
      "chip": "ym2612"
    },
    {
      "channel": 5,
      "note": 75,
      "start": 48.2175,
      "duration": 0.0159,
      "velocity": 108,
      "chip": "ym2612"
    },
    {
      "channel": 4,
      "note": 81,
      "start": 48.2191,
      "duration": 0.016,
      "velocity": 98,
      "chip": "ym2612"
    },
    {
      "channel": 3,
      "note": 85,
      "start": 48.2203,
      "duration": 0.016,
      "velocity": 98,
      "chip": "ym2612"
    },
    {
      "channel": 2,
      "note": 59,
      "start": 48.2215,
      "duration": 0.016,
      "velocity": 93,
      "chip": "ym2612"
    },
    {
      "channel": 1,
      "note": 75,
      "start": 48.2226,
      "duration": 0.016,
      "velocity": 108,
      "chip": "ym2612"
    },
    {
      "channel": 0,
      "note": 85,
      "start": 48.2322,
      "duration": 0.0161,
      "velocity": 127,
      "chip": "ym2612"
    },
    {
      "channel": 5,
      "note": 75,
      "start": 48.2334,
      "duration": 0.0161,
      "velocity": 108,
      "chip": "ym2612"
    },
    {
      "channel": 4,
      "note": 81,
      "start": 48.2351,
      "duration": 0.0159,
      "velocity": 98,
      "chip": "ym2612"
    },
    {
      "channel": 3,
      "note": 85,
      "start": 48.2363,
      "duration": 0.0163,
      "velocity": 98,
      "chip": "ym2612"
    },
    {
      "channel": 2,
      "note": 59,
      "start": 48.2375,
      "duration": 0.0163,
      "velocity": 93,
      "chip": "ym2612"
    },
    {
      "channel": 1,
      "note": 75,
      "start": 48.2386,
      "duration": 0.0165,
      "velocity": 108,
      "chip": "ym2612"
    },
    {
      "channel": 0,
      "note": 83,
      "start": 48.2483,
      "duration": 0.0161,
      "velocity": 127,
      "chip": "ym2612"
    },
    {
      "channel": 5,
      "note": 75,
      "start": 48.2495,
      "duration": 0.0161,
      "velocity": 108,
      "chip": "ym2612"
    },
    {
      "channel": 4,
      "note": 81,
      "start": 48.251,
      "duration": 0.0158,
      "velocity": 98,
      "chip": "ym2612"
    },
    {
      "channel": 3,
      "note": 85,
      "start": 48.2527,
      "duration": 0.016,
      "velocity": 98,
      "chip": "ym2612"
    },
    {
      "channel": 2,
      "note": 59,
      "start": 48.2539,
      "duration": 0.016,
      "velocity": 93,
      "chip": "ym2612"
    },
    {
      "channel": 1,
      "note": 75,
      "start": 48.2551,
      "duration": 0.016,
      "velocity": 108,
      "chip": "ym2612"
    },
    {
      "channel": 0,
      "note": 81,
      "start": 48.2644,
      "duration": 0.0161,
      "velocity": 127,
      "chip": "ym2612"
    },
    {
      "channel": 5,
      "note": 75,
      "start": 48.2656,
      "duration": 0.0161,
      "velocity": 108,
      "chip": "ym2612"
    },
    {
      "channel": 4,
      "note": 81,
      "start": 48.2668,
      "duration": 0.0162,
      "velocity": 98,
      "chip": "ym2612"
    },
    {
      "channel": 3,
      "note": 85,
      "start": 48.2686,
      "duration": 0.0162,
      "velocity": 98,
      "chip": "ym2612"
    },
    {
      "channel": 2,
      "note": 59,
      "start": 48.2699,
      "duration": 0.0162,
      "velocity": 93,
      "chip": "ym2612"
    },
    {
      "channel": 1,
      "note": 75,
      "start": 48.2711,
      "duration": 0.0162,
      "velocity": 108,
      "chip": "ym2612"
    },
    {
      "channel": 0,
      "note": 80,
      "start": 48.2805,
      "duration": 0.018,
      "velocity": 127,
      "chip": "ym2612"
    },
    {
      "channel": 5,
      "note": 75,
      "start": 48.2818,
      "duration": 0.018,
      "velocity": 108,
      "chip": "ym2612"
    },
    {
      "channel": 4,
      "note": 81,
      "start": 48.2831,
      "duration": 0.0184,
      "velocity": 98,
      "chip": "ym2612"
    },
    {
      "channel": 3,
      "note": 85,
      "start": 48.2848,
      "duration": 0.0179,
      "velocity": 98,
      "chip": "ym2612"
    },
    {
      "channel": 2,
      "note": 59,
      "start": 48.2861,
      "duration": 0.0178,
      "velocity": 93,
      "chip": "ym2612"
    },
    {
      "channel": 1,
      "note": 75,
      "start": 48.2873,
      "duration": 0.0178,
      "velocity": 108,
      "chip": "ym2612"
    },
    {
      "channel": 0,
      "note": 84,
      "start": 48.2985,
      "duration": 0.0143,
      "velocity": 127,
      "chip": "ym2612"
    },
    {
      "channel": 5,
      "note": 75,
      "start": 48.2997,
      "duration": 0.0143,
      "velocity": 108,
      "chip": "ym2612"
    },
    {
      "channel": 4,
      "note": 81,
      "start": 48.3015,
      "duration": 0.0137,
      "velocity": 98,
      "chip": "ym2612"
    },
    {
      "channel": 3,
      "note": 85,
      "start": 48.3027,
      "duration": 0.0137,
      "velocity": 98,
      "chip": "ym2612"
    },
    {
      "channel": 2,
      "note": 59,
      "start": 48.3039,
      "duration": 0.0139,
      "velocity": 93,
      "chip": "ym2612"
    },
    {
      "channel": 1,
      "note": 75,
      "start": 48.3051,
      "duration": 0.0143,
      "velocity": 108,
      "chip": "ym2612"
    },
    {
      "channel": 0,
      "note": 82,
      "start": 48.3128,
      "duration": 0.0161,
      "velocity": 127,
      "chip": "ym2612"
    },
    {
      "channel": 5,
      "note": 75,
      "start": 48.314,
      "duration": 0.016,
      "velocity": 108,
      "chip": "ym2612"
    },
    {
      "channel": 4,
      "note": 81,
      "start": 48.3152,
      "duration": 0.016,
      "velocity": 98,
      "chip": "ym2612"
    },
    {
      "channel": 3,
      "note": 85,
      "start": 48.3164,
      "duration": 0.016,
      "velocity": 98,
      "chip": "ym2612"
    },
    {
      "channel": 2,
      "note": 59,
      "start": 48.3178,
      "duration": 0.0158,
      "velocity": 93,
      "chip": "ym2612"
    },
    {
      "channel": 1,
      "note": 75,
      "start": 48.3193,
      "duration": 0.0159,
      "velocity": 108,
      "chip": "ym2612"
    },
    {
      "channel": 0,
      "note": 81,
      "start": 48.3288,
      "duration": 0.0161,
      "velocity": 127,
      "chip": "ym2612"
    },
    {
      "channel": 5,
      "note": 75,
      "start": 48.33,
      "duration": 0.0161,
      "velocity": 108,
      "chip": "ym2612"
    },
    {
      "channel": 4,
      "note": 81,
      "start": 48.3312,
      "duration": 0.0161,
      "velocity": 98,
      "chip": "ym2612"
    },
    {
      "channel": 3,
      "note": 85,
      "start": 48.3324,
      "duration": 0.0161,
      "velocity": 98,
      "chip": "ym2612"
    },
    {
      "channel": 2,
      "note": 59,
      "start": 48.3336,
      "duration": 0.0161,
      "velocity": 93,
      "chip": "ym2612"
    },
    {
      "channel": 1,
      "note": 75,
      "start": 48.3352,
      "duration": 0.0158,
      "velocity": 108,
      "chip": "ym2612"
    },
    {
      "channel": 0,
      "note": 79,
      "start": 48.3449,
      "duration": 0.0161,
      "velocity": 127,
      "chip": "ym2612"
    },
    {
      "channel": 5,
      "note": 75,
      "start": 48.3461,
      "duration": 0.0161,
      "velocity": 108,
      "chip": "ym2612"
    },
    {
      "channel": 4,
      "note": 81,
      "start": 48.3473,
      "duration": 0.0161,
      "velocity": 98,
      "chip": "ym2612"
    },
    {
      "channel": 3,
      "note": 85,
      "start": 48.3484,
      "duration": 0.0163,
      "velocity": 98,
      "chip": "ym2612"
    },
    {
      "channel": 2,
      "note": 59,
      "start": 48.3497,
      "duration": 0.0163,
      "velocity": 93,
      "chip": "ym2612"
    },
    {
      "channel": 1,
      "note": 75,
      "start": 48.351,
      "duration": 0.0161,
      "velocity": 108,
      "chip": "ym2612"
    },
    {
      "channel": 0,
      "note": 77,
      "start": 48.361,
      "duration": 0.0161,
      "velocity": 127,
      "chip": "ym2612"
    },
    {
      "channel": 5,
      "note": 75,
      "start": 48.3622,
      "duration": 0.0161,
      "velocity": 108,
      "chip": "ym2612"
    },
    {
      "channel": 4,
      "note": 81,
      "start": 48.3634,
      "duration": 0.0161,
      "velocity": 98,
      "chip": "ym2612"
    },
    {
      "channel": 3,
      "note": 85,
      "start": 48.3647,
      "duration": 0.0161,
      "velocity": 98,
      "chip": "ym2612"
    },
    {
      "channel": 2,
      "note": 59,
      "start": 48.3659,
      "duration": 0.0161,
      "velocity": 93,
      "chip": "ym2612"
    },
    {
      "channel": 1,
      "note": 75,
      "start": 48.3671,
      "duration": 0.0162,
      "velocity": 108,
      "chip": "ym2612"
    },
    {
      "channel": 0,
      "note": 76,
      "start": 48.3771,
      "duration": 0.0179,
      "velocity": 127,
      "chip": "ym2612"
    },
    {
      "channel": 5,
      "note": 75,
      "start": 48.3783,
      "duration": 0.0181,
      "velocity": 108,
      "chip": "ym2612"
    },
    {
      "channel": 2,
      "note": 59,
      "start": 48.3821,
      "duration": 0.019,
      "velocity": 93,
      "chip": "ym2612"
    },
    {
      "channel": 0,
      "note": 84,
      "start": 48.3951,
      "duration": 0.0142,
      "velocity": 127,
      "chip": "ym2612"
    },
    {
      "channel": 5,
      "note": 75,
      "start": 48.3963,
      "duration": 0.0143,
      "velocity": 108,
      "chip": "ym2612"
    },
    {
      "channel": 4,
      "note": 81,
      "start": 48.3979,
      "duration": 0.0141,
      "velocity": 98,
      "chip": "ym2612"
    },
    {
      "channel": 3,
      "note": 85,
      "start": 48.3994,
      "duration": 0.0137,
      "velocity": 98,
      "chip": "ym2612"
    },
    {
      "channel": 2,
      "note": 59,
      "start": 48.401,
      "duration": 0.0133,
      "velocity": 93,
      "chip": "ym2612"
    },
    {
      "channel": 1,
      "note": 73,
      "start": 48.403,
      "duration": 0.0127,
      "velocity": 108,
      "chip": "ym2612"
    },
    {
      "channel": 0,
      "note": 82,
      "start": 48.4094,
      "duration": 0.016,
      "velocity": 127,
      "chip": "ym2612"
    },
    {
      "channel": 4,
      "note": 81,
      "start": 48.4119,
      "duration": 0.0162,
      "velocity": 98,
      "chip": "ym2612"
    },
    {
      "channel": 3,
      "note": 85,
      "start": 48.4131,
      "duration": 0.0161,
      "velocity": 98,
      "chip": "ym2612"
    },
    {
      "channel": 2,
      "note": 59,
      "start": 48.4144,
      "duration": 0.016,
      "velocity": 93,
      "chip": "ym2612"
    },
    {
      "channel": 1,
      "note": 73,
      "start": 48.4156,
      "duration": 0.016,
      "velocity": 108,
      "chip": "ym2612"
    },
    {
      "channel": 0,
      "note": 81,
      "start": 48.4254,
      "duration": 0.0161,
      "velocity": 127,
      "chip": "ym2612"
    },
    {
      "channel": 5,
      "note": 73,
      "start": 48.4269,
      "duration": 0.0159,
      "velocity": 108,
      "chip": "ym2612"
    },
    {
      "channel": 4,
      "note": 81,
      "start": 48.4281,
      "duration": 0.0158,
      "velocity": 98,
      "chip": "ym2612"
    },
    {
      "channel": 3,
      "note": 85,
      "start": 48.4292,
      "duration": 0.0159,
      "velocity": 98,
      "chip": "ym2612"
    },
    {
      "channel": 2,
      "note": 59,
      "start": 48.4304,
      "duration": 0.0159,
      "velocity": 93,
      "chip": "ym2612"
    },
    {
      "channel": 1,
      "note": 73,
      "start": 48.4316,
      "duration": 0.0159,
      "velocity": 108,
      "chip": "ym2612"
    },
    {
      "channel": 0,
      "note": 79,
      "start": 48.4415,
      "duration": 0.0161,
      "velocity": 127,
      "chip": "ym2612"
    },
    {
      "channel": 5,
      "note": 73,
      "start": 48.4428,
      "duration": 0.016,
      "velocity": 108,
      "chip": "ym2612"
    },
    {
      "channel": 4,
      "note": 81,
      "start": 48.4439,
      "duration": 0.016,
      "velocity": 98,
      "chip": "ym2612"
    },
    {
      "channel": 3,
      "note": 85,
      "start": 48.4451,
      "duration": 0.016,
      "velocity": 98,
      "chip": "ym2612"
    },
    {
      "channel": 2,
      "note": 59,
      "start": 48.4463,
      "duration": 0.016,
      "velocity": 93,
      "chip": "ym2612"
    },
    {
      "channel": 1,
      "note": 73,
      "start": 48.4474,
      "duration": 0.016,
      "velocity": 108,
      "chip": "ym2612"
    },
    {
      "channel": 0,
      "note": 77,
      "start": 48.4576,
      "duration": 0.0161,
      "velocity": 127,
      "chip": "ym2612"
    },
    {
      "channel": 5,
      "note": 73,
      "start": 48.4588,
      "duration": 0.0161,
      "velocity": 108,
      "chip": "ym2612"
    },
    {
      "channel": 4,
      "note": 81,
      "start": 48.46,
      "duration": 0.0161,
      "velocity": 98,
      "chip": "ym2612"
    },
    {
      "channel": 3,
      "note": 85,
      "start": 48.4611,
      "duration": 0.0161,
      "velocity": 98,
      "chip": "ym2612"
    },
    {
      "channel": 2,
      "note": 59,
      "start": 48.4623,
      "duration": 0.0161,
      "velocity": 93,
      "chip": "ym2612"
    },
    {
      "channel": 1,
      "note": 73,
      "start": 48.4634,
      "duration": 0.0161,
      "velocity": 108,
      "chip": "ym2612"
    },
    {
      "channel": 0,
      "note": 76,
      "start": 48.4737,
      "duration": 0.018,
      "velocity": 127,
      "chip": "ym2612"
    },
    {
      "channel": 5,
      "note": 73,
      "start": 48.4749,
      "duration": 0.018,
      "velocity": 108,
      "chip": "ym2612"
    },
    {
      "channel": 4,
      "note": 81,
      "start": 48.4761,
      "duration": 0.0181,
      "velocity": 98,
      "chip": "ym2612"
    },
    {
      "channel": 3,
      "note": 85,
      "start": 48.4772,
      "duration": 0.0181,
      "velocity": 98,
      "chip": "ym2612"
    },
    {
      "channel": 2,
      "note": 59,
      "start": 48.4784,
      "duration": 0.018,
      "velocity": 93,
      "chip": "ym2612"
    },
    {
      "channel": 1,
      "note": 73,
      "start": 48.4795,
      "duration": 0.0181,
      "velocity": 108,
      "chip": "ym2612"
    },
    {
      "channel": 0,
      "note": 84,
      "start": 48.4918,
      "duration": 0.0142,
      "velocity": 127,
      "chip": "ym2612"
    },
    {
      "channel": 5,
      "note": 73,
      "start": 48.4929,
      "duration": 0.0143,
      "velocity": 108,
      "chip": "ym2612"
    },
    {
      "channel": 4,
      "note": 81,
      "start": 48.4941,
      "duration": 0.0142,
      "velocity": 98,
      "chip": "ym2612"
    },
    {
      "channel": 3,
      "note": 85,
      "start": 48.4953,
      "duration": 0.0142,
      "velocity": 98,
      "chip": "ym2612"
    },
    {
      "channel": 2,
      "note": 59,
      "start": 48.4965,
      "duration": 0.0143,
      "velocity": 93,
      "chip": "ym2612"
    },
    {
      "channel": 1,
      "note": 73,
      "start": 48.4976,
      "duration": 0.0142,
      "velocity": 108,
      "chip": "ym2612"
    },
    {
      "channel": 0,
      "note": 82,
      "start": 48.506,
      "duration": 0.016,
      "velocity": 127,
      "chip": "ym2612"
    },
    {
      "channel": 5,
      "note": 73,
      "start": 48.5072,
      "duration": 0.016,
      "velocity": 108,
      "chip": "ym2612"
    },
    {
      "channel": 4,
      "note": 81,
      "start": 48.5084,
      "duration": 0.016,
      "velocity": 98,
      "chip": "ym2612"
    },
    {
      "channel": 3,
      "note": 85,
      "start": 48.5095,
      "duration": 0.016,
      "velocity": 98,
      "chip": "ym2612"
    },
    {
      "channel": 2,
      "note": 59,
      "start": 48.5107,
      "duration": 0.016,
      "velocity": 93,
      "chip": "ym2612"
    },
    {
      "channel": 1,
      "note": 73,
      "start": 48.5119,
      "duration": 0.016,
      "velocity": 108,
      "chip": "ym2612"
    },
    {
      "channel": 0,
      "note": 81,
      "start": 48.522,
      "duration": 0.0161,
      "velocity": 127,
      "chip": "ym2612"
    },
    {
      "channel": 5,
      "note": 73,
      "start": 48.5232,
      "duration": 0.0161,
      "velocity": 108,
      "chip": "ym2612"
    },
    {
      "channel": 4,
      "note": 81,
      "start": 48.5244,
      "duration": 0.0162,
      "velocity": 98,
      "chip": "ym2612"
    },
    {
      "channel": 3,
      "note": 85,
      "start": 48.5255,
      "duration": 0.0163,
      "velocity": 98,
      "chip": "ym2612"
    },
    {
      "channel": 2,
      "note": 59,
      "start": 48.5268,
      "duration": 0.0163,
      "velocity": 93,
      "chip": "ym2612"
    },
    {
      "channel": 1,
      "note": 73,
      "start": 48.5279,
      "duration": 0.0164,
      "velocity": 108,
      "chip": "ym2612"
    },
    {
      "channel": 0,
      "note": 79,
      "start": 48.5381,
      "duration": 0.0161,
      "velocity": 127,
      "chip": "ym2612"
    },
    {
      "channel": 5,
      "note": 73,
      "start": 48.5393,
      "duration": 0.0161,
      "velocity": 108,
      "chip": "ym2612"
    },
    {
      "channel": 4,
      "note": 81,
      "start": 48.5406,
      "duration": 0.016,
      "velocity": 98,
      "chip": "ym2612"
    },
    {
      "channel": 3,
      "note": 85,
      "start": 48.5419,
      "duration": 0.016,
      "velocity": 98,
      "chip": "ym2612"
    },
    {
      "channel": 2,
      "note": 59,
      "start": 48.5431,
      "duration": 0.016,
      "velocity": 93,
      "chip": "ym2612"
    },
    {
      "channel": 1,
      "note": 73,
      "start": 48.5443,
      "duration": 0.016,
      "velocity": 108,
      "chip": "ym2612"
    },
    {
      "channel": 0,
      "note": 77,
      "start": 48.5542,
      "duration": 0.0161,
      "velocity": 127,
      "chip": "ym2612"
    },
    {
      "channel": 5,
      "note": 73,
      "start": 48.5554,
      "duration": 0.0162,
      "velocity": 108,
      "chip": "ym2612"
    },
    {
      "channel": 4,
      "note": 81,
      "start": 48.5566,
      "duration": 0.0163,
      "velocity": 98,
      "chip": "ym2612"
    },
    {
      "channel": 3,
      "note": 85,
      "start": 48.5579,
      "duration": 0.0162,
      "velocity": 98,
      "chip": "ym2612"
    },
    {
      "channel": 2,
      "note": 59,
      "start": 48.5591,
      "duration": 0.0163,
      "velocity": 93,
      "chip": "ym2612"
    },
    {
      "channel": 1,
      "note": 73,
      "start": 48.5603,
      "duration": 0.0163,
      "velocity": 108,
      "chip": "ym2612"
    },
    {
      "channel": 0,
      "note": 76,
      "start": 48.5704,
      "duration": 0.0183,
      "velocity": 127,
      "chip": "ym2612"
    },
    {
      "channel": 5,
      "note": 73,
      "start": 48.5717,
      "duration": 0.0183,
      "velocity": 108,
      "chip": "ym2612"
    },
    {
      "channel": 4,
      "note": 81,
      "start": 48.5729,
      "duration": 0.0182,
      "velocity": 98,
      "chip": "ym2612"
    },
    {
      "channel": 3,
      "note": 85,
      "start": 48.5741,
      "duration": 0.0182,
      "velocity": 98,
      "chip": "ym2612"
    },
    {
      "channel": 2,
      "note": 59,
      "start": 48.5754,
      "duration": 0.0181,
      "velocity": 93,
      "chip": "ym2612"
    },
    {
      "channel": 1,
      "note": 73,
      "start": 48.5766,
      "duration": 0.0181,
      "velocity": 108,
      "chip": "ym2612"
    },
    {
      "channel": 0,
      "note": 78,
      "start": 48.5887,
      "duration": 0.0145,
      "velocity": 127,
      "chip": "ym2612"
    },
    {
      "channel": 5,
      "note": 73,
      "start": 48.5899,
      "duration": 0.0145,
      "velocity": 108,
      "chip": "ym2612"
    },
    {
      "channel": 4,
      "note": 81,
      "start": 48.5911,
      "duration": 0.0145,
      "velocity": 98,
      "chip": "ym2612"
    },
    {
      "channel": 3,
      "note": 85,
      "start": 48.5923,
      "duration": 0.0144,
      "velocity": 98,
      "chip": "ym2612"
    },
    {
      "channel": 2,
      "note": 59,
      "start": 48.5935,
      "duration": 0.0145,
      "velocity": 93,
      "chip": "ym2612"
    },
    {
      "channel": 1,
      "note": 73,
      "start": 48.5947,
      "duration": 0.0144,
      "velocity": 108,
      "chip": "ym2612"
    },
    {
      "channel": 0,
      "note": 76,
      "start": 48.6032,
      "duration": 0.016,
      "velocity": 127,
      "chip": "ym2612"
    },
    {
      "channel": 5,
      "note": 73,
      "start": 48.6044,
      "duration": 0.016,
      "velocity": 108,
      "chip": "ym2612"
    },
    {
      "channel": 4,
      "note": 81,
      "start": 48.6056,
      "duration": 0.016,
      "velocity": 98,
      "chip": "ym2612"
    },
    {
      "channel": 3,
      "note": 85,
      "start": 48.6068,
      "duration": 0.016,
      "velocity": 98,
      "chip": "ym2612"
    },
    {
      "channel": 2,
      "note": 59,
      "start": 48.608,
      "duration": 0.016,
      "velocity": 93,
      "chip": "ym2612"
    },
    {
      "channel": 1,
      "note": 73,
      "start": 48.6091,
      "duration": 0.016,
      "velocity": 108,
      "chip": "ym2612"
    },
    {
      "channel": 0,
      "note": 75,
      "start": 48.6193,
      "duration": 0.016,
      "velocity": 127,
      "chip": "ym2612"
    },
    {
      "channel": 5,
      "note": 73,
      "start": 48.6204,
      "duration": 0.0161,
      "velocity": 108,
      "chip": "ym2612"
    },
    {
      "channel": 4,
      "note": 81,
      "start": 48.6216,
      "duration": 0.0161,
      "velocity": 98,
      "chip": "ym2612"
    },
    {
      "channel": 3,
      "note": 85,
      "start": 48.6227,
      "duration": 0.0161,
      "velocity": 98,
      "chip": "ym2612"
    },
    {
      "channel": 2,
      "note": 59,
      "start": 48.6239,
      "duration": 0.0161,
      "velocity": 93,
      "chip": "ym2612"
    },
    {
      "channel": 1,
      "note": 73,
      "start": 48.6251,
      "duration": 0.0161,
      "velocity": 108,
      "chip": "ym2612"
    },
    {
      "channel": 0,
      "note": 73,
      "start": 48.6353,
      "duration": 0.0158,
      "velocity": 127,
      "chip": "ym2612"
    },
    {
      "channel": 5,
      "note": 73,
      "start": 48.6365,
      "duration": 0.0161,
      "velocity": 108,
      "chip": "ym2612"
    },
    {
      "channel": 4,
      "note": 81,
      "start": 48.6377,
      "duration": 0.0162,
      "velocity": 98,
      "chip": "ym2612"
    },
    {
      "channel": 3,
      "note": 85,
      "start": 48.6388,
      "duration": 0.0163,
      "velocity": 98,
      "chip": "ym2612"
    },
    {
      "channel": 2,
      "note": 59,
      "start": 48.64,
      "duration": 0.0163,
      "velocity": 93,
      "chip": "ym2612"
    },
    {
      "channel": 1,
      "note": 73,
      "start": 48.6412,
      "duration": 0.0163,
      "velocity": 108,
      "chip": "ym2612"
    },
    {
      "channel": 0,
      "note": 71,
      "start": 48.651,
      "duration": 0.0159,
      "velocity": 127,
      "chip": "ym2612"
    },
    {
      "channel": 5,
      "note": 73,
      "start": 48.6526,
      "duration": 0.0161,
      "velocity": 108,
      "chip": "ym2612"
    },
    {
      "channel": 4,
      "note": 81,
      "start": 48.6539,
      "duration": 0.0161,
      "velocity": 98,
      "chip": "ym2612"
    },
    {
      "channel": 3,
      "note": 85,
      "start": 48.6551,
      "duration": 0.0162,
      "velocity": 98,
      "chip": "ym2612"
    },
    {
      "channel": 2,
      "note": 59,
      "start": 48.6563,
      "duration": 0.0162,
      "velocity": 93,
      "chip": "ym2612"
    },
    {
      "channel": 1,
      "note": 73,
      "start": 48.6576,
      "duration": 0.0163,
      "velocity": 108,
      "chip": "ym2612"
    },
    {
      "channel": 0,
      "note": 70,
      "start": 48.667,
      "duration": 0.0185,
      "velocity": 115,
      "chip": "ym2612"
    },
    {
      "channel": 5,
      "note": 73,
      "start": 48.6687,
      "duration": 0.0181,
      "velocity": 108,
      "chip": "ym2612"
    },
    {
      "channel": 2,
      "note": 59,
      "start": 48.6726,
      "duration": 0.019,
      "velocity": 93,
      "chip": "ym2612"
    },
    {
      "channel": 0,
      "note": 36,
      "start": 48.6855,
      "duration": 0.0137,
      "velocity": 115,
      "chip": "ym2612"
    },
    {
      "channel": 5,
      "note": 73,
      "start": 48.6867,
      "duration": 0.0137,
      "velocity": 108,
      "chip": "ym2612"
    },
    {
      "channel": 4,
      "note": 80,
      "start": 48.6884,
      "duration": 0.0139,
      "velocity": 98,
      "chip": "ym2612"
    },
    {
      "channel": 3,
      "note": 83,
      "start": 48.69,
      "duration": 0.0136,
      "velocity": 98,
      "chip": "ym2612"
    },
    {
      "channel": 2,
      "note": 52,
      "start": 48.6916,
      "duration": 0.0132,
      "velocity": 93,
      "chip": "ym2612"
    },
    {
      "channel": 1,
      "note": 71,
      "start": 48.6932,
      "duration": 0.0128,
      "velocity": 108,
      "chip": "ym2612"
    },
    {
      "channel": 0,
      "note": 36,
      "start": 48.6992,
      "duration": 0.016,
      "velocity": 115,
      "chip": "ym2612"
    },
    {
      "channel": 4,
      "note": 80,
      "start": 48.7023,
      "duration": 0.0162,
      "velocity": 98,
      "chip": "ym2612"
    },
    {
      "channel": 3,
      "note": 83,
      "start": 48.7036,
      "duration": 0.0162,
      "velocity": 98,
      "chip": "ym2612"
    },
    {
      "channel": 2,
      "note": 52,
      "start": 48.7048,
      "duration": 0.0161,
      "velocity": 93,
      "chip": "ym2612"
    },
    {
      "channel": 1,
      "note": 71,
      "start": 48.706,
      "duration": 0.0161,
      "velocity": 108,
      "chip": "ym2612"
    },
    {
      "channel": 0,
      "note": 37,
      "start": 48.7152,
      "duration": 0.0161,
      "velocity": 115,
      "chip": "ym2612"
    },
    {
      "channel": 5,
      "note": 71,
      "start": 48.7169,
      "duration": 0.0157,
      "velocity": 108,
      "chip": "ym2612"
    },
    {
      "channel": 4,
      "note": 80,
      "start": 48.7185,
      "duration": 0.0152,
      "velocity": 98,
      "chip": "ym2612"
    },
    {
      "channel": 3,
      "note": 83,
      "start": 48.7198,
      "duration": 0.0157,
      "velocity": 98,
      "chip": "ym2612"
    },
    {
      "channel": 2,
      "note": 52,
      "start": 48.721,
      "duration": 0.0157,
      "velocity": 93,
      "chip": "ym2612"
    },
    {
      "channel": 1,
      "note": 71,
      "start": 48.7221,
      "duration": 0.0158,
      "velocity": 108,
      "chip": "ym2612"
    },
    {
      "channel": 0,
      "note": 37,
      "start": 48.7313,
      "duration": 0.0161,
      "velocity": 115,
      "chip": "ym2612"
    },
    {
      "channel": 5,
      "note": 71,
      "start": 48.7326,
      "duration": 0.016,
      "velocity": 108,
      "chip": "ym2612"
    },
    {
      "channel": 4,
      "note": 80,
      "start": 48.7337,
      "duration": 0.016,
      "velocity": 98,
      "chip": "ym2612"
    },
    {
      "channel": 3,
      "note": 83,
      "start": 48.7355,
      "duration": 0.016,
      "velocity": 98,
      "chip": "ym2612"
    },
    {
      "channel": 2,
      "note": 52,
      "start": 48.7367,
      "duration": 0.016,
      "velocity": 93,
      "chip": "ym2612"
    },
    {
      "channel": 1,
      "note": 71,
      "start": 48.7379,
      "duration": 0.016,
      "velocity": 108,
      "chip": "ym2612"
    },
    {
      "channel": 0,
      "note": 38,
      "start": 48.7474,
      "duration": 0.0161,
      "velocity": 115,
      "chip": "ym2612"
    },
    {
      "channel": 5,
      "note": 71,
      "start": 48.7486,
      "duration": 0.0161,
      "velocity": 108,
      "chip": "ym2612"
    },
    {
      "channel": 4,
      "note": 80,
      "start": 48.7498,
      "duration": 0.0161,
      "velocity": 98,
      "chip": "ym2612"
    },
    {
      "channel": 3,
      "note": 83,
      "start": 48.7515,
      "duration": 0.0156,
      "velocity": 98,
      "chip": "ym2612"
    },
    {
      "channel": 2,
      "note": 52,
      "start": 48.7527,
      "duration": 0.0161,
      "velocity": 93,
      "chip": "ym2612"
    },
    {
      "channel": 1,
      "note": 71,
      "start": 48.7539,
      "duration": 0.0161,
      "velocity": 108,
      "chip": "ym2612"
    },
    {
      "channel": 0,
      "note": 38,
      "start": 48.7636,
      "duration": 0.0161,
      "velocity": 115,
      "chip": "ym2612"
    },
    {
      "channel": 5,
      "note": 71,
      "start": 48.7647,
      "duration": 0.0161,
      "velocity": 108,
      "chip": "ym2612"
    },
    {
      "channel": 4,
      "note": 80,
      "start": 48.7659,
      "duration": 0.0162,
      "velocity": 98,
      "chip": "ym2612"
    },
    {
      "channel": 3,
      "note": 83,
      "start": 48.7671,
      "duration": 0.0161,
      "velocity": 98,
      "chip": "ym2612"
    },
    {
      "channel": 2,
      "note": 52,
      "start": 48.7688,
      "duration": 0.0161,
      "velocity": 93,
      "chip": "ym2612"
    },
    {
      "channel": 1,
      "note": 71,
      "start": 48.77,
      "duration": 0.0161,
      "velocity": 108,
      "chip": "ym2612"
    },
    {
      "channel": 0,
      "note": 39,
      "start": 48.7797,
      "duration": 0.0161,
      "velocity": 115,
      "chip": "ym2612"
    },
    {
      "channel": 5,
      "note": 71,
      "start": 48.7808,
      "duration": 0.0161,
      "velocity": 108,
      "chip": "ym2612"
    },
    {
      "channel": 4,
      "note": 80,
      "start": 48.782,
      "duration": 0.0161,
      "velocity": 98,
      "chip": "ym2612"
    },
    {
      "channel": 3,
      "note": 83,
      "start": 48.7832,
      "duration": 0.0162,
      "velocity": 98,
      "chip": "ym2612"
    },
    {
      "channel": 2,
      "note": 52,
      "start": 48.7849,
      "duration": 0.0156,
      "velocity": 93,
      "chip": "ym2612"
    },
    {
      "channel": 1,
      "note": 71,
      "start": 48.7861,
      "duration": 0.0162,
      "velocity": 108,
      "chip": "ym2612"
    },
    {
      "channel": 0,
      "note": 39,
      "start": 48.7958,
      "duration": 0.0161,
      "velocity": 115,
      "chip": "ym2612"
    },
    {
      "channel": 5,
      "note": 71,
      "start": 48.7969,
      "duration": 0.0161,
      "velocity": 108,
      "chip": "ym2612"
    },
    {
      "channel": 4,
      "note": 80,
      "start": 48.7981,
      "duration": 0.0161,
      "velocity": 98,
      "chip": "ym2612"
    },
    {
      "channel": 3,
      "note": 83,
      "start": 48.7993,
      "duration": 0.0161,
      "velocity": 98,
      "chip": "ym2612"
    },
    {
      "channel": 2,
      "note": 52,
      "start": 48.8005,
      "duration": 0.0161,
      "velocity": 93,
      "chip": "ym2612"
    },
    {
      "channel": 1,
      "note": 71,
      "start": 48.8023,
      "duration": 0.016,
      "velocity": 108,
      "chip": "ym2612"
    },
    {
      "channel": 0,
      "note": 40,
      "start": 48.8119,
      "duration": 0.0161,
      "velocity": 115,
      "chip": "ym2612"
    },
    {
      "channel": 5,
      "note": 71,
      "start": 48.813,
      "duration": 0.0161,
      "velocity": 108,
      "chip": "ym2612"
    },
    {
      "channel": 4,
      "note": 80,
      "start": 48.8142,
      "duration": 0.0162,
      "velocity": 98,
      "chip": "ym2612"
    },
    {
      "channel": 3,
      "note": 83,
      "start": 48.8154,
      "duration": 0.0163,
      "velocity": 98,
      "chip": "ym2612"
    },
    {
      "channel": 2,
      "note": 52,
      "start": 48.8166,
      "duration": 0.0163,
      "velocity": 93,
      "chip": "ym2612"
    },
    {
      "channel": 1,
      "note": 71,
      "start": 48.8183,
      "duration": 0.0161,
      "velocity": 108,
      "chip": "ym2612"
    },
    {
      "channel": 0,
      "note": 40,
      "start": 48.828,
      "duration": 0.0161,
      "velocity": 115,
      "chip": "ym2612"
    },
    {
      "channel": 5,
      "note": 71,
      "start": 48.8292,
      "duration": 0.0161,
      "velocity": 108,
      "chip": "ym2612"
    },
    {
      "channel": 4,
      "note": 80,
      "start": 48.8304,
      "duration": 0.016,
      "velocity": 98,
      "chip": "ym2612"
    },
    {
      "channel": 3,
      "note": 83,
      "start": 48.8317,
      "duration": 0.016,
      "velocity": 98,
      "chip": "ym2612"
    },
    {
      "channel": 2,
      "note": 52,
      "start": 48.8329,
      "duration": 0.016,
      "velocity": 93,
      "chip": "ym2612"
    },
    {
      "channel": 1,
      "note": 71,
      "start": 48.8344,
      "duration": 0.0158,
      "velocity": 108,
      "chip": "ym2612"
    },
    {
      "channel": 0,
      "note": 40,
      "start": 48.8441,
      "duration": 0.0161,
      "velocity": 115,
      "chip": "ym2612"
    },
    {
      "channel": 5,
      "note": 71,
      "start": 48.8453,
      "duration": 0.0162,
      "velocity": 108,
      "chip": "ym2612"
    },
    {
      "channel": 4,
      "note": 80,
      "start": 48.8465,
      "duration": 0.0162,
      "velocity": 98,
      "chip": "ym2612"
    },
    {
      "channel": 3,
      "note": 83,
      "start": 48.8478,
      "duration": 0.0162,
      "velocity": 98,
      "chip": "ym2612"
    },
    {
      "channel": 2,
      "note": 52,
      "start": 48.849,
      "duration": 0.0162,
      "velocity": 93,
      "chip": "ym2612"
    },
    {
      "channel": 1,
      "note": 71,
      "start": 48.8502,
      "duration": 0.0162,
      "velocity": 108,
      "chip": "ym2612"
    },
    {
      "channel": 0,
      "note": 41,
      "start": 48.8602,
      "duration": 0.0161,
      "velocity": 115,
      "chip": "ym2612"
    },
    {
      "channel": 5,
      "note": 71,
      "start": 48.8614,
      "duration": 0.0161,
      "velocity": 108,
      "chip": "ym2612"
    },
    {
      "channel": 4,
      "note": 80,
      "start": 48.8627,
      "duration": 0.016,
      "velocity": 98,
      "chip": "ym2612"
    },
    {
      "channel": 3,
      "note": 83,
      "start": 48.864,
      "duration": 0.0159,
      "velocity": 98,
      "chip": "ym2612"
    },
    {
      "channel": 2,
      "note": 52,
      "start": 48.8652,
      "duration": 0.0159,
      "velocity": 93,
      "chip": "ym2612"
    },
    {
      "channel": 1,
      "note": 71,
      "start": 48.8664,
      "duration": 0.0158,
      "velocity": 108,
      "chip": "ym2612"
    },
    {
      "channel": 0,
      "note": 41,
      "start": 48.8762,
      "duration": 0.0161,
      "velocity": 115,
      "chip": "ym2612"
    },
    {
      "channel": 5,
      "note": 71,
      "start": 48.8775,
      "duration": 0.0161,
      "velocity": 108,
      "chip": "ym2612"
    },
    {
      "channel": 4,
      "note": 80,
      "start": 48.8787,
      "duration": 0.0161,
      "velocity": 98,
      "chip": "ym2612"
    },
    {
      "channel": 3,
      "note": 83,
      "start": 48.8799,
      "duration": 0.0161,
      "velocity": 98,
      "chip": "ym2612"
    },
    {
      "channel": 2,
      "note": 52,
      "start": 48.881,
      "duration": 0.0161,
      "velocity": 93,
      "chip": "ym2612"
    },
    {
      "channel": 1,
      "note": 71,
      "start": 48.8822,
      "duration": 0.0161,
      "velocity": 108,
      "chip": "ym2612"
    },
    {
      "channel": 0,
      "note": 42,
      "start": 48.8923,
      "duration": 0.0162,
      "velocity": 115,
      "chip": "ym2612"
    },
    {
      "channel": 5,
      "note": 71,
      "start": 48.8936,
      "duration": 0.016,
      "velocity": 108,
      "chip": "ym2612"
    },
    {
      "channel": 4,
      "note": 80,
      "start": 48.8948,
      "duration": 0.016,
      "velocity": 98,
      "chip": "ym2612"
    },
    {
      "channel": 3,
      "note": 83,
      "start": 48.896,
      "duration": 0.016,
      "velocity": 98,
      "chip": "ym2612"
    },
    {
      "channel": 2,
      "note": 52,
      "start": 48.8972,
      "duration": 0.016,
      "velocity": 93,
      "chip": "ym2612"
    },
    {
      "channel": 1,
      "note": 71,
      "start": 48.8983,
      "duration": 0.016,
      "velocity": 108,
      "chip": "ym2612"
    },
    {
      "channel": 0,
      "note": 42,
      "start": 48.9085,
      "duration": 0.0161,
      "velocity": 115,
      "chip": "ym2612"
    },
    {
      "channel": 5,
      "note": 71,
      "start": 48.9096,
      "duration": 0.0161,
      "velocity": 108,
      "chip": "ym2612"
    },
    {
      "channel": 4,
      "note": 80,
      "start": 48.9108,
      "duration": 0.0161,
      "velocity": 98,
      "chip": "ym2612"
    },
    {
      "channel": 3,
      "note": 83,
      "start": 48.912,
      "duration": 0.0161,
      "velocity": 98,
      "chip": "ym2612"
    },
    {
      "channel": 2,
      "note": 52,
      "start": 48.9132,
      "duration": 0.0161,
      "velocity": 93,
      "chip": "ym2612"
    },
    {
      "channel": 1,
      "note": 71,
      "start": 48.9144,
      "duration": 0.0161,
      "velocity": 108,
      "chip": "ym2612"
    },
    {
      "channel": 0,
      "note": 43,
      "start": 48.9246,
      "duration": 0.0161,
      "velocity": 115,
      "chip": "ym2612"
    },
    {
      "channel": 5,
      "note": 71,
      "start": 48.9257,
      "duration": 0.0161,
      "velocity": 108,
      "chip": "ym2612"
    },
    {
      "channel": 4,
      "note": 80,
      "start": 48.9269,
      "duration": 0.0162,
      "velocity": 98,
      "chip": "ym2612"
    },
    {
      "channel": 3,
      "note": 83,
      "start": 48.9281,
      "duration": 0.0163,
      "velocity": 98,
      "chip": "ym2612"
    },
    {
      "channel": 2,
      "note": 52,
      "start": 48.9293,
      "duration": 0.0163,
      "velocity": 93,
      "chip": "ym2612"
    },
    {
      "channel": 1,
      "note": 71,
      "start": 48.9304,
      "duration": 0.0163,
      "velocity": 108,
      "chip": "ym2612"
    },
    {
      "channel": 0,
      "note": 43,
      "start": 48.9407,
      "duration": 0.0161,
      "velocity": 115,
      "chip": "ym2612"
    },
    {
      "channel": 5,
      "note": 71,
      "start": 48.9418,
      "duration": 0.0161,
      "velocity": 108,
      "chip": "ym2612"
    },
    {
      "channel": 4,
      "note": 80,
      "start": 48.9431,
      "duration": 0.0161,
      "velocity": 98,
      "chip": "ym2612"
    },
    {
      "channel": 3,
      "note": 83,
      "start": 48.9444,
      "duration": 0.0161,
      "velocity": 98,
      "chip": "ym2612"
    },
    {
      "channel": 2,
      "note": 52,
      "start": 48.9456,
      "duration": 0.0162,
      "velocity": 93,
      "chip": "ym2612"
    },
    {
      "channel": 1,
      "note": 71,
      "start": 48.9468,
      "duration": 0.0162,
      "velocity": 108,
      "chip": "ym2612"
    },
    {
      "channel": 0,
      "note": 44,
      "start": 48.9568,
      "duration": 0.0179,
      "velocity": 124,
      "chip": "ym2612"
    },
    {
      "channel": 5,
      "note": 71,
      "start": 48.9579,
      "duration": 0.0181,
      "velocity": 108,
      "chip": "ym2612"
    },
    {
      "channel": 2,
      "note": 52,
      "start": 48.9617,
      "duration": 0.0186,
      "velocity": 93,
      "chip": "ym2612"
    },
    {
      "channel": 0,
      "note": 84,
      "start": 48.9747,
      "duration": 0.0143,
      "velocity": 124,
      "chip": "ym2612"
    },
    {
      "channel": 5,
      "note": 71,
      "start": 48.976,
      "duration": 0.0143,
      "velocity": 108,
      "chip": "ym2612"
    },
    {
      "channel": 4,
      "note": 80,
      "start": 48.9775,
      "duration": 0.0141,
      "velocity": 98,
      "chip": "ym2612"
    },
    {
      "channel": 3,
      "note": 83,
      "start": 48.9789,
      "duration": 0.0139,
      "velocity": 98,
      "chip": "ym2612"
    },
    {
      "channel": 2,
      "note": 52,
      "start": 48.9804,
      "duration": 0.0136,
      "velocity": 93,
      "chip": "ym2612"
    },
    {
      "channel": 1,
      "note": 71,
      "start": 48.9819,
      "duration": 0.0134,
      "velocity": 108,
      "chip": "ym2612"
    },
    {
      "channel": 0,
      "note": 82,
      "start": 48.989,
      "duration": 0.016,
      "velocity": 124,
      "chip": "ym2612"
    },
    {
      "channel": 4,
      "note": 80,
      "start": 48.9916,
      "duration": 0.0162,
      "velocity": 98,
      "chip": "ym2612"
    },
    {
      "channel": 3,
      "note": 83,
      "start": 48.9928,
      "duration": 0.0161,
      "velocity": 98,
      "chip": "ym2612"
    },
    {
      "channel": 2,
      "note": 52,
      "start": 48.994,
      "duration": 0.0161,
      "velocity": 93,
      "chip": "ym2612"
    },
    {
      "channel": 1,
      "note": 71,
      "start": 48.9953,
      "duration": 0.016,
      "velocity": 108,
      "chip": "ym2612"
    },
    {
      "channel": 0,
      "note": 80,
      "start": 49.0051,
      "duration": 0.0162,
      "velocity": 124,
      "chip": "ym2612"
    },
    {
      "channel": 5,
      "note": 71,
      "start": 49.0066,
      "duration": 0.0159,
      "velocity": 108,
      "chip": "ym2612"
    },
    {
      "channel": 4,
      "note": 80,
      "start": 49.0077,
      "duration": 0.0159,
      "velocity": 98,
      "chip": "ym2612"
    },
    {
      "channel": 3,
      "note": 83,
      "start": 49.0089,
      "duration": 0.0159,
      "velocity": 98,
      "chip": "ym2612"
    },
    {
      "channel": 2,
      "note": 52,
      "start": 49.0101,
      "duration": 0.0158,
      "velocity": 93,
      "chip": "ym2612"
    },
    {
      "channel": 1,
      "note": 71,
      "start": 49.0112,
      "duration": 0.0159,
      "velocity": 108,
      "chip": "ym2612"
    },
    {
      "channel": 0,
      "note": 77,
      "start": 49.0212,
      "duration": 0.0161,
      "velocity": 124,
      "chip": "ym2612"
    },
    {
      "channel": 5,
      "note": 71,
      "start": 49.0224,
      "duration": 0.0161,
      "velocity": 108,
      "chip": "ym2612"
    },
    {
      "channel": 4,
      "note": 80,
      "start": 49.0236,
      "duration": 0.0161,
      "velocity": 98,
      "chip": "ym2612"
    },
    {
      "channel": 3,
      "note": 83,
      "start": 49.0248,
      "duration": 0.0161,
      "velocity": 98,
      "chip": "ym2612"
    },
    {
      "channel": 2,
      "note": 52,
      "start": 49.0259,
      "duration": 0.0161,
      "velocity": 93,
      "chip": "ym2612"
    },
    {
      "channel": 1,
      "note": 71,
      "start": 49.0271,
      "duration": 0.0161,
      "velocity": 108,
      "chip": "ym2612"
    },
    {
      "channel": 0,
      "note": 75,
      "start": 49.0374,
      "duration": 0.0162,
      "velocity": 124,
      "chip": "ym2612"
    },
    {
      "channel": 5,
      "note": 71,
      "start": 49.0385,
      "duration": 0.0161,
      "velocity": 108,
      "chip": "ym2612"
    },
    {
      "channel": 4,
      "note": 80,
      "start": 49.0397,
      "duration": 0.0162,
      "velocity": 98,
      "chip": "ym2612"
    },
    {
      "channel": 3,
      "note": 83,
      "start": 49.0409,
      "duration": 0.0161,
      "velocity": 98,
      "chip": "ym2612"
    },
    {
      "channel": 2,
      "note": 52,
      "start": 49.042,
      "duration": 0.0162,
      "velocity": 93,
      "chip": "ym2612"
    },
    {
      "channel": 1,
      "note": 71,
      "start": 49.0432,
      "duration": 0.0161,
      "velocity": 108,
      "chip": "ym2612"
    },
    {
      "channel": 0,
      "note": 72,
      "start": 49.0535,
      "duration": 0.0163,
      "velocity": 124,
      "chip": "ym2612"
    },
    {
      "channel": 5,
      "note": 71,
      "start": 49.0547,
      "duration": 0.0163,
      "velocity": 108,
      "chip": "ym2612"
    },
    {
      "channel": 4,
      "note": 80,
      "start": 49.0558,
      "duration": 0.0164,
      "velocity": 98,
      "chip": "ym2612"
    },
    {
      "channel": 3,
      "note": 83,
      "start": 49.057,
      "duration": 0.0163,
      "velocity": 98,
      "chip": "ym2612"
    },
    {
      "channel": 2,
      "note": 52,
      "start": 49.0582,
      "duration": 0.0164,
      "velocity": 93,
      "chip": "ym2612"
    },
    {
      "channel": 1,
      "note": 71,
      "start": 49.0593,
      "duration": 0.0164,
      "velocity": 108,
      "chip": "ym2612"
    },
    {
      "channel": 0,
      "note": 70,
      "start": 49.0699,
      "duration": 0.0163,
      "velocity": 124,
      "chip": "ym2612"
    },
    {
      "channel": 5,
      "note": 71,
      "start": 49.071,
      "duration": 0.0163,
      "velocity": 108,
      "chip": "ym2612"
    },
    {
      "channel": 4,
      "note": 80,
      "start": 49.0722,
      "duration": 0.0163,
      "velocity": 98,
      "chip": "ym2612"
    },
    {
      "channel": 3,
      "note": 83,
      "start": 49.0734,
      "duration": 0.0163,
      "velocity": 98,
      "chip": "ym2612"
    },
    {
      "channel": 2,
      "note": 52,
      "start": 49.0746,
      "duration": 0.0163,
      "velocity": 93,
      "chip": "ym2612"
    },
    {
      "channel": 1,
      "note": 71,
      "start": 49.0757,
      "duration": 0.0163,
      "velocity": 108,
      "chip": "ym2612"
    },
    {
      "channel": 0,
      "note": 68,
      "start": 49.0862,
      "duration": 0.0161,
      "velocity": 124,
      "chip": "ym2612"
    },
    {
      "channel": 5,
      "note": 71,
      "start": 49.0873,
      "duration": 0.0162,
      "velocity": 108,
      "chip": "ym2612"
    },
    {
      "channel": 4,
      "note": 80,
      "start": 49.0885,
      "duration": 0.0161,
      "velocity": 98,
      "chip": "ym2612"
    },
    {
      "channel": 3,
      "note": 83,
      "start": 49.0897,
      "duration": 0.0161,
      "velocity": 98,
      "chip": "ym2612"
    },
    {
      "channel": 2,
      "note": 52,
      "start": 49.0909,
      "duration": 0.0161,
      "velocity": 93,
      "chip": "ym2612"
    },
    {
      "channel": 1,
      "note": 71,
      "start": 49.0921,
      "duration": 0.0161,
      "velocity": 108,
      "chip": "ym2612"
    },
    {
      "channel": 0,
      "note": 65,
      "start": 49.1023,
      "duration": 0.016,
      "velocity": 124,
      "chip": "ym2612"
    },
    {
      "channel": 5,
      "note": 71,
      "start": 49.1035,
      "duration": 0.0161,
      "velocity": 108,
      "chip": "ym2612"
    },
    {
      "channel": 4,
      "note": 80,
      "start": 49.1046,
      "duration": 0.0162,
      "velocity": 98,
      "chip": "ym2612"
    },
    {
      "channel": 3,
      "note": 83,
      "start": 49.1058,
      "duration": 0.0163,
      "velocity": 98,
      "chip": "ym2612"
    },
    {
      "channel": 2,
      "note": 52,
      "start": 49.107,
      "duration": 0.0163,
      "velocity": 93,
      "chip": "ym2612"
    },
    {
      "channel": 1,
      "note": 71,
      "start": 49.1082,
      "duration": 0.0163,
      "velocity": 108,
      "chip": "ym2612"
    },
    {
      "channel": 0,
      "note": 63,
      "start": 49.1183,
      "duration": 0.0148,
      "velocity": 1,
      "chip": "ym2612"
    },
    {
      "channel": 5,
      "note": 71,
      "start": 49.1196,
      "duration": 0.0152,
      "velocity": 108,
      "chip": "ym2612"
    },
    {
      "channel": 4,
      "note": 80,
      "start": 49.1208,
      "duration": 0.0153,
      "velocity": 98,
      "chip": "ym2612"
    },
    {
      "channel": 3,
      "note": 83,
      "start": 49.1221,
      "duration": 0.0152,
      "velocity": 98,
      "chip": "ym2612"
    },
    {
      "channel": 2,
      "note": 52,
      "start": 49.1233,
      "duration": 0.0152,
      "velocity": 93,
      "chip": "ym2612"
    },
    {
      "channel": 1,
      "note": 71,
      "start": 49.1245,
      "duration": 0.0152,
      "velocity": 108,
      "chip": "ym2612"
    },
    {
      "channel": 5,
      "note": 71,
      "start": 49.1348,
      "duration": 0.0148,
      "velocity": 108,
      "chip": "ym2612"
    },
    {
      "channel": 4,
      "note": 80,
      "start": 49.1361,
      "duration": 0.0149,
      "velocity": 98,
      "chip": "ym2612"
    },
    {
      "channel": 3,
      "note": 83,
      "start": 49.1373,
      "duration": 0.0154,
      "velocity": 98,
      "chip": "ym2612"
    },
    {
      "channel": 2,
      "note": 52,
      "start": 49.1385,
      "duration": 0.0154,
      "velocity": 93,
      "chip": "ym2612"
    },
    {
      "channel": 1,
      "note": 71,
      "start": 49.1397,
      "duration": 0.0154,
      "velocity": 108,
      "chip": "ym2612"
    },
    {
      "channel": 5,
      "note": 71,
      "start": 49.1496,
      "duration": 0.016,
      "velocity": 108,
      "chip": "ym2612"
    },
    {
      "channel": 4,
      "note": 80,
      "start": 49.151,
      "duration": 0.0158,
      "velocity": 98,
      "chip": "ym2612"
    },
    {
      "channel": 3,
      "note": 83,
      "start": 49.1527,
      "duration": 0.0159,
      "velocity": 98,
      "chip": "ym2612"
    },
    {
      "channel": 2,
      "note": 52,
      "start": 49.1539,
      "duration": 0.0158,
      "velocity": 93,
      "chip": "ym2612"
    },
    {
      "channel": 1,
      "note": 71,
      "start": 49.1551,
      "duration": 0.0158,
      "velocity": 108,
      "chip": "ym2612"
    },
    {
      "channel": 5,
      "note": 71,
      "start": 49.1656,
      "duration": 0.0161,
      "velocity": 108,
      "chip": "ym2612"
    },
    {
      "channel": 4,
      "note": 80,
      "start": 49.1668,
      "duration": 0.0161,
      "velocity": 98,
      "chip": "ym2612"
    },
    {
      "channel": 3,
      "note": 83,
      "start": 49.1685,
      "duration": 0.0158,
      "velocity": 98,
      "chip": "ym2612"
    },
    {
      "channel": 2,
      "note": 52,
      "start": 49.1698,
      "duration": 0.0162,
      "velocity": 93,
      "chip": "ym2612"
    },
    {
      "channel": 1,
      "note": 71,
      "start": 49.1709,
      "duration": 0.0161,
      "velocity": 108,
      "chip": "ym2612"
    },
    {
      "channel": 5,
      "note": 71,
      "start": 49.1817,
      "duration": 0.0161,
      "velocity": 108,
      "chip": "ym2612"
    },
    {
      "channel": 4,
      "note": 80,
      "start": 49.1829,
      "duration": 0.0161,
      "velocity": 98,
      "chip": "ym2612"
    },
    {
      "channel": 3,
      "note": 83,
      "start": 49.1843,
      "duration": 0.0158,
      "velocity": 98,
      "chip": "ym2612"
    },
    {
      "channel": 2,
      "note": 52,
      "start": 49.1859,
      "duration": 0.016,
      "velocity": 93,
      "chip": "ym2612"
    },
    {
      "channel": 1,
      "note": 71,
      "start": 49.1871,
      "duration": 0.016,
      "velocity": 108,
      "chip": "ym2612"
    },
    {
      "channel": 5,
      "note": 71,
      "start": 49.1978,
      "duration": 0.0161,
      "velocity": 108,
      "chip": "ym2612"
    },
    {
      "channel": 4,
      "note": 80,
      "start": 49.199,
      "duration": 0.0161,
      "velocity": 98,
      "chip": "ym2612"
    },
    {
      "channel": 3,
      "note": 83,
      "start": 49.2002,
      "duration": 0.0161,
      "velocity": 98,
      "chip": "ym2612"
    },
    {
      "channel": 2,
      "note": 52,
      "start": 49.2019,
      "duration": 0.0158,
      "velocity": 93,
      "chip": "ym2612"
    },
    {
      "channel": 1,
      "note": 71,
      "start": 49.2031,
      "duration": 0.0161,
      "velocity": 108,
      "chip": "ym2612"
    },
    {
      "channel": 5,
      "note": 71,
      "start": 49.2139,
      "duration": 0.0161,
      "velocity": 108,
      "chip": "ym2612"
    },
    {
      "channel": 4,
      "note": 80,
      "start": 49.2151,
      "duration": 0.0162,
      "velocity": 98,
      "chip": "ym2612"
    },
    {
      "channel": 3,
      "note": 83,
      "start": 49.2163,
      "duration": 0.0162,
      "velocity": 98,
      "chip": "ym2612"
    },
    {
      "channel": 2,
      "note": 52,
      "start": 49.2177,
      "duration": 0.0161,
      "velocity": 93,
      "chip": "ym2612"
    },
    {
      "channel": 1,
      "note": 71,
      "start": 49.2192,
      "duration": 0.0163,
      "velocity": 108,
      "chip": "ym2612"
    },
    {
      "channel": 5,
      "note": 71,
      "start": 49.23,
      "duration": 0.0161,
      "velocity": 108,
      "chip": "ym2612"
    },
    {
      "channel": 4,
      "note": 80,
      "start": 49.2313,
      "duration": 0.0161,
      "velocity": 98,
      "chip": "ym2612"
    },
    {
      "channel": 3,
      "note": 83,
      "start": 49.2325,
      "duration": 0.0162,
      "velocity": 98,
      "chip": "ym2612"
    },
    {
      "channel": 2,
      "note": 52,
      "start": 49.2337,
      "duration": 0.0162,
      "velocity": 93,
      "chip": "ym2612"
    },
    {
      "channel": 1,
      "note": 71,
      "start": 49.2355,
      "duration": 0.0161,
      "velocity": 108,
      "chip": "ym2612"
    },
    {
      "channel": 5,
      "note": 71,
      "start": 49.2461,
      "duration": 0.0197,
      "velocity": 108,
      "chip": "ym2612"
    },
    {
      "channel": 2,
      "note": 52,
      "start": 49.2499,
      "duration": 0.021,
      "velocity": 93,
      "chip": "ym2612"
    },
    {
      "channel": 0,
      "note": 36,
      "start": 49.2645,
      "duration": 0.0143,
      "velocity": 115,
      "chip": "ym2612"
    },
    {
      "channel": 5,
      "note": 71,
      "start": 49.2658,
      "duration": 0.0143,
      "velocity": 108,
      "chip": "ym2612"
    },
    {
      "channel": 4,
      "note": 80,
      "start": 49.2675,
      "duration": 0.0139,
      "velocity": 98,
      "chip": "ym2612"
    },
    {
      "channel": 3,
      "note": 83,
      "start": 49.2694,
      "duration": 0.0132,
      "velocity": 98,
      "chip": "ym2612"
    },
    {
      "channel": 2,
      "note": 52,
      "start": 49.271,
      "duration": 0.0129,
      "velocity": 93,
      "chip": "ym2612"
    },
    {
      "channel": 1,
      "note": 71,
      "start": 49.2724,
      "duration": 0.0132,
      "velocity": 108,
      "chip": "ym2612"
    },
    {
      "channel": 0,
      "note": 36,
      "start": 49.2788,
      "duration": 0.016,
      "velocity": 115,
      "chip": "ym2612"
    },
    {
      "channel": 4,
      "note": 80,
      "start": 49.2814,
      "duration": 0.0161,
      "velocity": 98,
      "chip": "ym2612"
    },
    {
      "channel": 3,
      "note": 83,
      "start": 49.2826,
      "duration": 0.0161,
      "velocity": 98,
      "chip": "ym2612"
    },
    {
      "channel": 2,
      "note": 52,
      "start": 49.2838,
      "duration": 0.0161,
      "velocity": 93,
      "chip": "ym2612"
    },
    {
      "channel": 1,
      "note": 71,
      "start": 49.2857,
      "duration": 0.0159,
      "velocity": 108,
      "chip": "ym2612"
    },
    {
      "channel": 0,
      "note": 37,
      "start": 49.2949,
      "duration": 0.0161,
      "velocity": 115,
      "chip": "ym2612"
    },
    {
      "channel": 5,
      "note": 71,
      "start": 49.2963,
      "duration": 0.0159,
      "velocity": 108,
      "chip": "ym2612"
    },
    {
      "channel": 4,
      "note": 80,
      "start": 49.2976,
      "duration": 0.0159,
      "velocity": 98,
      "chip": "ym2612"
    },
    {
      "channel": 3,
      "note": 83,
      "start": 49.2987,
      "duration": 0.0159,
      "velocity": 98,
      "chip": "ym2612"
    },
    {
      "channel": 2,
      "note": 52,
      "start": 49.2999,
      "duration": 0.0158,
      "velocity": 93,
      "chip": "ym2612"
    },
    {
      "channel": 1,
      "note": 71,
      "start": 49.3016,
      "duration": 0.0153,
      "velocity": 108,
      "chip": "ym2612"
    },
    {
      "channel": 0,
      "note": 37,
      "start": 49.311,
      "duration": 0.0161,
      "velocity": 115,
      "chip": "ym2612"
    },
    {
      "channel": 5,
      "note": 71,
      "start": 49.3122,
      "duration": 0.016,
      "velocity": 108,
      "chip": "ym2612"
    },
    {
      "channel": 4,
      "note": 80,
      "start": 49.3134,
      "duration": 0.016,
      "velocity": 98,
      "chip": "ym2612"
    },
    {
      "channel": 3,
      "note": 83,
      "start": 49.3146,
      "duration": 0.016,
      "velocity": 98,
      "chip": "ym2612"
    },
    {
      "channel": 2,
      "note": 52,
      "start": 49.3157,
      "duration": 0.016,
      "velocity": 93,
      "chip": "ym2612"
    },
    {
      "channel": 1,
      "note": 71,
      "start": 49.3169,
      "duration": 0.016,
      "velocity": 108,
      "chip": "ym2612"
    },
    {
      "channel": 0,
      "note": 38,
      "start": 49.3271,
      "duration": 0.0161,
      "velocity": 115,
      "chip": "ym2612"
    },
    {
      "channel": 5,
      "note": 71,
      "start": 49.3283,
      "duration": 0.0161,
      "velocity": 108,
      "chip": "ym2612"
    },
    {
      "channel": 4,
      "note": 80,
      "start": 49.3294,
      "duration": 0.0161,
      "velocity": 98,
      "chip": "ym2612"
    },
    {
      "channel": 3,
      "note": 83,
      "start": 49.3306,
      "duration": 0.0161,
      "velocity": 98,
      "chip": "ym2612"
    },
    {
      "channel": 2,
      "note": 52,
      "start": 49.3318,
      "duration": 0.0161,
      "velocity": 93,
      "chip": "ym2612"
    },
    {
      "channel": 1,
      "note": 71,
      "start": 49.3329,
      "duration": 0.0161,
      "velocity": 108,
      "chip": "ym2612"
    },
    {
      "channel": 0,
      "note": 38,
      "start": 49.3432,
      "duration": 0.0161,
      "velocity": 115,
      "chip": "ym2612"
    },
    {
      "channel": 5,
      "note": 71,
      "start": 49.3444,
      "duration": 0.0161,
      "velocity": 108,
      "chip": "ym2612"
    },
    {
      "channel": 4,
      "note": 80,
      "start": 49.3455,
      "duration": 0.0162,
      "velocity": 98,
      "chip": "ym2612"
    },
    {
      "channel": 3,
      "note": 83,
      "start": 49.3467,
      "duration": 0.0161,
      "velocity": 98,
      "chip": "ym2612"
    },
    {
      "channel": 2,
      "note": 52,
      "start": 49.3479,
      "duration": 0.0162,
      "velocity": 93,
      "chip": "ym2612"
    },
    {
      "channel": 1,
      "note": 71,
      "start": 49.349,
      "duration": 0.0161,
      "velocity": 108,
      "chip": "ym2612"
    },
    {
      "channel": 0,
      "note": 39,
      "start": 49.3593,
      "duration": 0.0161,
      "velocity": 115,
      "chip": "ym2612"
    },
    {
      "channel": 5,
      "note": 71,
      "start": 49.3605,
      "duration": 0.0161,
      "velocity": 108,
      "chip": "ym2612"
    },
    {
      "channel": 4,
      "note": 80,
      "start": 49.3617,
      "duration": 0.0161,
      "velocity": 98,
      "chip": "ym2612"
    },
    {
      "channel": 3,
      "note": 83,
      "start": 49.3628,
      "duration": 0.0161,
      "velocity": 98,
      "chip": "ym2612"
    },
    {
      "channel": 2,
      "note": 52,
      "start": 49.364,
      "duration": 0.0161,
      "velocity": 93,
      "chip": "ym2612"
    },
    {
      "channel": 1,
      "note": 71,
      "start": 49.3652,
      "duration": 0.0161,
      "velocity": 108,
      "chip": "ym2612"
    },
    {
      "channel": 0,
      "note": 39,
      "start": 49.3754,
      "duration": 0.0161,
      "velocity": 115,
      "chip": "ym2612"
    },
    {
      "channel": 5,
      "note": 71,
      "start": 49.3766,
      "duration": 0.0161,
      "velocity": 108,
      "chip": "ym2612"
    },
    {
      "channel": 4,
      "note": 80,
      "start": 49.3778,
      "duration": 0.0161,
      "velocity": 98,
      "chip": "ym2612"
    },
    {
      "channel": 3,
      "note": 83,
      "start": 49.3789,
      "duration": 0.0161,
      "velocity": 98,
      "chip": "ym2612"
    },
    {
      "channel": 2,
      "note": 52,
      "start": 49.3801,
      "duration": 0.0161,
      "velocity": 93,
      "chip": "ym2612"
    },
    {
      "channel": 1,
      "note": 71,
      "start": 49.3813,
      "duration": 0.0161,
      "velocity": 108,
      "chip": "ym2612"
    },
    {
      "channel": 0,
      "note": 40,
      "start": 49.3915,
      "duration": 0.0161,
      "velocity": 115,
      "chip": "ym2612"
    },
    {
      "channel": 5,
      "note": 71,
      "start": 49.3927,
      "duration": 0.0162,
      "velocity": 108,
      "chip": "ym2612"
    },
    {
      "channel": 4,
      "note": 80,
      "start": 49.3939,
      "duration": 0.0162,
      "velocity": 98,
      "chip": "ym2612"
    },
    {
      "channel": 3,
      "note": 83,
      "start": 49.395,
      "duration": 0.0163,
      "velocity": 98,
      "chip": "ym2612"
    },
    {
      "channel": 2,
      "note": 52,
      "start": 49.3962,
      "duration": 0.0163,
      "velocity": 93,
      "chip": "ym2612"
    },
    {
      "channel": 1,
      "note": 71,
      "start": 49.3974,
      "duration": 0.0164,
      "velocity": 108,
      "chip": "ym2612"
    },
    {
      "channel": 0,
      "note": 40,
      "start": 49.4076,
      "duration": 0.0161,
      "velocity": 115,
      "chip": "ym2612"
    },
    {
      "channel": 5,
      "note": 71,
      "start": 49.4088,
      "duration": 0.0161,
      "velocity": 108,
      "chip": "ym2612"
    },
    {
      "channel": 4,
      "note": 80,
      "start": 49.4101,
      "duration": 0.016,
      "velocity": 98,
      "chip": "ym2612"
    },
    {
      "channel": 3,
      "note": 83,
      "start": 49.4114,
      "duration": 0.016,
      "velocity": 98,
      "chip": "ym2612"
    },
    {
      "channel": 2,
      "note": 52,
      "start": 49.4126,
      "duration": 0.016,
      "velocity": 93,
      "chip": "ym2612"
    },
    {
      "channel": 1,
      "note": 71,
      "start": 49.4138,
      "duration": 0.016,
      "velocity": 108,
      "chip": "ym2612"
    },
    {
      "channel": 0,
      "note": 40,
      "start": 49.4237,
      "duration": 0.0161,
      "velocity": 115,
      "chip": "ym2612"
    },
    {
      "channel": 5,
      "note": 71,
      "start": 49.4249,
      "duration": 0.0162,
      "velocity": 108,
      "chip": "ym2612"
    },
    {
      "channel": 4,
      "note": 80,
      "start": 49.4261,
      "duration": 0.0162,
      "velocity": 98,
      "chip": "ym2612"
    },
    {
      "channel": 3,
      "note": 83,
      "start": 49.4274,
      "duration": 0.0161,
      "velocity": 98,
      "chip": "ym2612"
    },
    {
      "channel": 2,
      "note": 52,
      "start": 49.4286,
      "duration": 0.0162,
      "velocity": 93,
      "chip": "ym2612"
    },
    {
      "channel": 1,
      "note": 71,
      "start": 49.4298,
      "duration": 0.0162,
      "velocity": 108,
      "chip": "ym2612"
    },
    {
      "channel": 0,
      "note": 41,
      "start": 49.4398,
      "duration": 0.0161,
      "velocity": 115,
      "chip": "ym2612"
    },
    {
      "channel": 5,
      "note": 71,
      "start": 49.4411,
      "duration": 0.016,
      "velocity": 108,
      "chip": "ym2612"
    },
    {
      "channel": 4,
      "note": 80,
      "start": 49.4423,
      "duration": 0.016,
      "velocity": 98,
      "chip": "ym2612"
    },
    {
      "channel": 3,
      "note": 83,
      "start": 49.4435,
      "duration": 0.016,
      "velocity": 98,
      "chip": "ym2612"
    },
    {
      "channel": 2,
      "note": 52,
      "start": 49.4448,
      "duration": 0.0159,
      "velocity": 93,
      "chip": "ym2612"
    },
    {
      "channel": 1,
      "note": 71,
      "start": 49.446,
      "duration": 0.0158,
      "velocity": 108,
      "chip": "ym2612"
    },
    {
      "channel": 0,
      "note": 41,
      "start": 49.4559,
      "duration": 0.0161,
      "velocity": 115,
      "chip": "ym2612"
    },
    {
      "channel": 5,
      "note": 71,
      "start": 49.4571,
      "duration": 0.0161,
      "velocity": 108,
      "chip": "ym2612"
    },
    {
      "channel": 4,
      "note": 80,
      "start": 49.4583,
      "duration": 0.0162,
      "velocity": 98,
      "chip": "ym2612"
    },
    {
      "channel": 3,
      "note": 83,
      "start": 49.4595,
      "duration": 0.0161,
      "velocity": 98,
      "chip": "ym2612"
    },
    {
      "channel": 2,
      "note": 52,
      "start": 49.4607,
      "duration": 0.0162,
      "velocity": 93,
      "chip": "ym2612"
    },
    {
      "channel": 1,
      "note": 71,
      "start": 49.4619,
      "duration": 0.0161,
      "velocity": 108,
      "chip": "ym2612"
    },
    {
      "channel": 0,
      "note": 42,
      "start": 49.472,
      "duration": 0.0162,
      "velocity": 115,
      "chip": "ym2612"
    },
    {
      "channel": 5,
      "note": 71,
      "start": 49.4732,
      "duration": 0.016,
      "velocity": 108,
      "chip": "ym2612"
    },
    {
      "channel": 4,
      "note": 80,
      "start": 49.4745,
      "duration": 0.016,
      "velocity": 98,
      "chip": "ym2612"
    },
    {
      "channel": 3,
      "note": 83,
      "start": 49.4756,
      "duration": 0.016,
      "velocity": 98,
      "chip": "ym2612"
    },
    {
      "channel": 2,
      "note": 52,
      "start": 49.4768,
      "duration": 0.016,
      "velocity": 93,
      "chip": "ym2612"
    },
    {
      "channel": 1,
      "note": 71,
      "start": 49.478,
      "duration": 0.016,
      "velocity": 108,
      "chip": "ym2612"
    },
    {
      "channel": 0,
      "note": 42,
      "start": 49.4881,
      "duration": 0.0161,
      "velocity": 115,
      "chip": "ym2612"
    },
    {
      "channel": 5,
      "note": 71,
      "start": 49.4893,
      "duration": 0.0161,
      "velocity": 108,
      "chip": "ym2612"
    },
    {
      "channel": 4,
      "note": 80,
      "start": 49.4905,
      "duration": 0.0161,
      "velocity": 98,
      "chip": "ym2612"
    },
    {
      "channel": 3,
      "note": 83,
      "start": 49.4916,
      "duration": 0.0161,
      "velocity": 98,
      "chip": "ym2612"
    },
    {
      "channel": 2,
      "note": 52,
      "start": 49.4929,
      "duration": 0.0161,
      "velocity": 93,
      "chip": "ym2612"
    },
    {
      "channel": 1,
      "note": 71,
      "start": 49.494,
      "duration": 0.0161,
      "velocity": 108,
      "chip": "ym2612"
    },
    {
      "channel": 0,
      "note": 43,
      "start": 49.5042,
      "duration": 0.0161,
      "velocity": 115,
      "chip": "ym2612"
    },
    {
      "channel": 5,
      "note": 71,
      "start": 49.5054,
      "duration": 0.0162,
      "velocity": 108,
      "chip": "ym2612"
    },
    {
      "channel": 4,
      "note": 80,
      "start": 49.5066,
      "duration": 0.0162,
      "velocity": 98,
      "chip": "ym2612"
    },
    {
      "channel": 3,
      "note": 83,
      "start": 49.5077,
      "duration": 0.0163,
      "velocity": 98,
      "chip": "ym2612"
    },
    {
      "channel": 2,
      "note": 52,
      "start": 49.5089,
      "duration": 0.0163,
      "velocity": 93,
      "chip": "ym2612"
    },
    {
      "channel": 1,
      "note": 71,
      "start": 49.5101,
      "duration": 0.0164,
      "velocity": 108,
      "chip": "ym2612"
    },
    {
      "channel": 0,
      "note": 43,
      "start": 49.5204,
      "duration": 0.0164,
      "velocity": 115,
      "chip": "ym2612"
    },
    {
      "channel": 5,
      "note": 71,
      "start": 49.5215,
      "duration": 0.0165,
      "velocity": 108,
      "chip": "ym2612"
    },
    {
      "channel": 4,
      "note": 80,
      "start": 49.5228,
      "duration": 0.0165,
      "velocity": 98,
      "chip": "ym2612"
    },
    {
      "channel": 3,
      "note": 83,
      "start": 49.5241,
      "duration": 0.0165,
      "velocity": 98,
      "chip": "ym2612"
    },
    {
      "channel": 2,
      "note": 52,
      "start": 49.5253,
      "duration": 0.0166,
      "velocity": 93,
      "chip": "ym2612"
    },
    {
      "channel": 1,
      "note": 71,
      "start": 49.5265,
      "duration": 0.0166,
      "velocity": 108,
      "chip": "ym2612"
    },
    {
      "channel": 0,
      "note": 44,
      "start": 49.5368,
      "duration": 0.0181,
      "velocity": 124,
      "chip": "ym2612"
    },
    {
      "channel": 5,
      "note": 71,
      "start": 49.538,
      "duration": 0.0182,
      "velocity": 108,
      "chip": "ym2612"
    },
    {
      "channel": 2,
      "note": 52,
      "start": 49.5418,
      "duration": 0.0189,
      "velocity": 93,
      "chip": "ym2612"
    },
    {
      "channel": 0,
      "note": 84,
      "start": 49.5549,
      "duration": 0.0144,
      "velocity": 124,
      "chip": "ym2612"
    },
    {
      "channel": 5,
      "note": 71,
      "start": 49.5562,
      "duration": 0.0143,
      "velocity": 108,
      "chip": "ym2612"
    },
    {
      "channel": 4,
      "note": 80,
      "start": 49.5577,
      "duration": 0.0141,
      "velocity": 98,
      "chip": "ym2612"
    },
    {
      "channel": 3,
      "note": 83,
      "start": 49.5593,
      "duration": 0.0138,
      "velocity": 98,
      "chip": "ym2612"
    },
    {
      "channel": 2,
      "note": 52,
      "start": 49.5608,
      "duration": 0.0135,
      "velocity": 93,
      "chip": "ym2612"
    },
    {
      "channel": 1,
      "note": 68,
      "start": 49.5622,
      "duration": 0.0132,
      "velocity": 108,
      "chip": "ym2612"
    },
    {
      "channel": 0,
      "note": 82,
      "start": 49.5693,
      "duration": 0.016,
      "velocity": 124,
      "chip": "ym2612"
    },
    {
      "channel": 4,
      "note": 80,
      "start": 49.5718,
      "duration": 0.0162,
      "velocity": 98,
      "chip": "ym2612"
    },
    {
      "channel": 3,
      "note": 83,
      "start": 49.5731,
      "duration": 0.0162,
      "velocity": 98,
      "chip": "ym2612"
    },
    {
      "channel": 2,
      "note": 52,
      "start": 49.5743,
      "duration": 0.0161,
      "velocity": 93,
      "chip": "ym2612"
    },
    {
      "channel": 1,
      "note": 68,
      "start": 49.5755,
      "duration": 0.016,
      "velocity": 108,
      "chip": "ym2612"
    },
    {
      "channel": 0,
      "note": 80,
      "start": 49.5853,
      "duration": 0.0158,
      "velocity": 124,
      "chip": "ym2612"
    },
    {
      "channel": 5,
      "note": 68,
      "start": 49.5869,
      "duration": 0.0158,
      "velocity": 108,
      "chip": "ym2612"
    },
    {
      "channel": 4,
      "note": 80,
      "start": 49.588,
      "duration": 0.0158,
      "velocity": 98,
      "chip": "ym2612"
    },
    {
      "channel": 3,
      "note": 83,
      "start": 49.5892,
      "duration": 0.0158,
      "velocity": 98,
      "chip": "ym2612"
    },
    {
      "channel": 2,
      "note": 52,
      "start": 49.5904,
      "duration": 0.0158,
      "velocity": 93,
      "chip": "ym2612"
    },
    {
      "channel": 1,
      "note": 68,
      "start": 49.5915,
      "duration": 0.0158,
      "velocity": 108,
      "chip": "ym2612"
    },
    {
      "channel": 0,
      "note": 77,
      "start": 49.601,
      "duration": 0.0159,
      "velocity": 124,
      "chip": "ym2612"
    },
    {
      "channel": 5,
      "note": 68,
      "start": 49.6027,
      "duration": 0.016,
      "velocity": 108,
      "chip": "ym2612"
    },
    {
      "channel": 4,
      "note": 80,
      "start": 49.6038,
      "duration": 0.016,
      "velocity": 98,
      "chip": "ym2612"
    },
    {
      "channel": 3,
      "note": 83,
      "start": 49.605,
      "duration": 0.016,
      "velocity": 98,
      "chip": "ym2612"
    },
    {
      "channel": 2,
      "note": 52,
      "start": 49.6061,
      "duration": 0.016,
      "velocity": 93,
      "chip": "ym2612"
    },
    {
      "channel": 1,
      "note": 68,
      "start": 49.6073,
      "duration": 0.016,
      "velocity": 108,
      "chip": "ym2612"
    },
    {
      "channel": 0,
      "note": 75,
      "start": 49.617,
      "duration": 0.0161,
      "velocity": 124,
      "chip": "ym2612"
    },
    {
      "channel": 5,
      "note": 68,
      "start": 49.6186,
      "duration": 0.0158,
      "velocity": 108,
      "chip": "ym2612"
    },
    {
      "channel": 4,
      "note": 80,
      "start": 49.6198,
      "duration": 0.0162,
      "velocity": 98,
      "chip": "ym2612"
    },
    {
      "channel": 3,
      "note": 83,
      "start": 49.621,
      "duration": 0.0161,
      "velocity": 98,
      "chip": "ym2612"
    },
    {
      "channel": 2,
      "note": 52,
      "start": 49.6222,
      "duration": 0.0161,
      "velocity": 93,
      "chip": "ym2612"
    },
    {
      "channel": 1,
      "note": 68,
      "start": 49.6233,
      "duration": 0.0162,
      "velocity": 108,
      "chip": "ym2612"
    },
    {
      "channel": 0,
      "note": 72,
      "start": 49.6331,
      "duration": 0.0161,
      "velocity": 124,
      "chip": "ym2612"
    },
    {
      "channel": 5,
      "note": 68,
      "start": 49.6344,
      "duration": 0.0159,
      "velocity": 108,
      "chip": "ym2612"
    },
    {
      "channel": 4,
      "note": 80,
      "start": 49.636,
      "duration": 0.016,
      "velocity": 98,
      "chip": "ym2612"
    },
    {
      "channel": 3,
      "note": 83,
      "start": 49.6371,
      "duration": 0.0162,
      "velocity": 98,
      "chip": "ym2612"
    },
    {
      "channel": 2,
      "note": 52,
      "start": 49.6383,
      "duration": 0.0161,
      "velocity": 93,
      "chip": "ym2612"
    },
    {
      "channel": 1,
      "note": 68,
      "start": 49.6395,
      "duration": 0.0161,
      "velocity": 108,
      "chip": "ym2612"
    },
    {
      "channel": 0,
      "note": 70,
      "start": 49.6491,
      "duration": 0.0161,
      "velocity": 124,
      "chip": "ym2612"
    },
    {
      "channel": 5,
      "note": 68,
      "start": 49.6503,
      "duration": 0.0161,
      "velocity": 108,
      "chip": "ym2612"
    },
    {
      "channel": 4,
      "note": 80,
      "start": 49.652,
      "duration": 0.0161,
      "velocity": 98,
      "chip": "ym2612"
    },
    {
      "channel": 3,
      "note": 83,
      "start": 49.6533,
      "duration": 0.0161,
      "velocity": 98,
      "chip": "ym2612"
    },
    {
      "channel": 2,
      "note": 52,
      "start": 49.6544,
      "duration": 0.0161,
      "velocity": 93,
      "chip": "ym2612"
    },
    {
      "channel": 1,
      "note": 68,
      "start": 49.6556,
      "duration": 0.0161,
      "velocity": 108,
      "chip": "ym2612"
    },
    {
      "channel": 0,
      "note": 68,
      "start": 49.6652,
      "duration": 0.0161,
      "velocity": 124,
      "chip": "ym2612"
    },
    {
      "channel": 5,
      "note": 68,
      "start": 49.6664,
      "duration": 0.0161,
      "velocity": 108,
      "chip": "ym2612"
    },
    {
      "channel": 4,
      "note": 80,
      "start": 49.6681,
      "duration": 0.0156,
      "velocity": 98,
      "chip": "ym2612"
    },
    {
      "channel": 3,
      "note": 83,
      "start": 49.6694,
      "duration": 0.0161,
      "velocity": 98,
      "chip": "ym2612"
    },
    {
      "channel": 2,
      "note": 52,
      "start": 49.6705,
      "duration": 0.0161,
      "velocity": 93,
      "chip": "ym2612"
    },
    {
      "channel": 1,
      "note": 68,
      "start": 49.6717,
      "duration": 0.016,
      "velocity": 108,
      "chip": "ym2612"
    },
    {
      "channel": 0,
      "note": 65,
      "start": 49.6813,
      "duration": 0.0161,
      "velocity": 124,
      "chip": "ym2612"
    },
    {
      "channel": 5,
      "note": 68,
      "start": 49.6825,
      "duration": 0.0161,
      "velocity": 108,
      "chip": "ym2612"
    },
    {
      "channel": 4,
      "note": 80,
      "start": 49.6837,
      "duration": 0.0161,
      "velocity": 98,
      "chip": "ym2612"
    },
    {
      "channel": 3,
      "note": 83,
      "start": 49.6855,
      "duration": 0.0162,
      "velocity": 98,
      "chip": "ym2612"
    },
    {
      "channel": 2,
      "note": 52,
      "start": 49.6866,
      "duration": 0.0163,
      "velocity": 93,
      "chip": "ym2612"
    },
    {
      "channel": 1,
      "note": 68,
      "start": 49.6878,
      "duration": 0.0163,
      "velocity": 108,
      "chip": "ym2612"
    },
    {
      "channel": 0,
      "note": 63,
      "start": 49.6974,
      "duration": 0.0153,
      "velocity": 1,
      "chip": "ym2612"
    },
    {
      "channel": 5,
      "note": 68,
      "start": 49.6986,
      "duration": 0.0153,
      "velocity": 108,
      "chip": "ym2612"
    },
    {
      "channel": 4,
      "note": 80,
      "start": 49.6998,
      "duration": 0.0153,
      "velocity": 98,
      "chip": "ym2612"
    },
    {
      "channel": 3,
      "note": 83,
      "start": 49.7016,
      "duration": 0.0147,
      "velocity": 98,
      "chip": "ym2612"
    },
    {
      "channel": 2,
      "note": 52,
      "start": 49.703,
      "duration": 0.0147,
      "velocity": 93,
      "chip": "ym2612"
    },
    {
      "channel": 1,
      "note": 68,
      "start": 49.7041,
      "duration": 0.0152,
      "velocity": 108,
      "chip": "ym2612"
    },
    {
      "channel": 5,
      "note": 68,
      "start": 49.7138,
      "duration": 0.0153,
      "velocity": 108,
      "chip": "ym2612"
    },
    {
      "channel": 4,
      "note": 80,
      "start": 49.7151,
      "duration": 0.0153,
      "velocity": 98,
      "chip": "ym2612"
    },
    {
      "channel": 3,
      "note": 83,
      "start": 49.7163,
      "duration": 0.0153,
      "velocity": 98,
      "chip": "ym2612"
    },
    {
      "channel": 2,
      "note": 52,
      "start": 49.7177,
      "duration": 0.0151,
      "velocity": 93,
      "chip": "ym2612"
    },
    {
      "channel": 1,
      "note": 68,
      "start": 49.7193,
      "duration": 0.0149,
      "velocity": 108,
      "chip": "ym2612"
    },
    {
      "channel": 5,
      "note": 68,
      "start": 49.7291,
      "duration": 0.0196,
      "velocity": 108,
      "chip": "ym2612"
    },
    {
      "channel": 4,
      "note": 80,
      "start": 49.7304,
      "duration": 0.0195,
      "velocity": 98,
      "chip": "ym2612"
    },
    {
      "channel": 3,
      "note": 83,
      "start": 49.7317,
      "duration": 0.02,
      "velocity": 98,
      "chip": "ym2612"
    },
    {
      "channel": 2,
      "note": 52,
      "start": 49.7329,
      "duration": 0.02,
      "velocity": 93,
      "chip": "ym2612"
    },
    {
      "channel": 0,
      "note": 36,
      "start": 49.7476,
      "duration": 0.0143,
      "velocity": 115,
      "chip": "ym2612"
    },
    {
      "channel": 5,
      "note": 68,
      "start": 49.7488,
      "duration": 0.0143,
      "velocity": 108,
      "chip": "ym2612"
    },
    {
      "channel": 4,
      "note": 80,
      "start": 49.7499,
      "duration": 0.0144,
      "velocity": 98,
      "chip": "ym2612"
    },
    {
      "channel": 3,
      "note": 83,
      "start": 49.7517,
      "duration": 0.0137,
      "velocity": 98,
      "chip": "ym2612"
    },
    {
      "channel": 2,
      "note": 52,
      "start": 49.7529,
      "duration": 0.0137,
      "velocity": 93,
      "chip": "ym2612"
    },
    {
      "channel": 1,
      "note": 71,
      "start": 49.7544,
      "duration": 0.0139,
      "velocity": 108,
      "chip": "ym2612"
    },
    {
      "channel": 0,
      "note": 36,
      "start": 49.7619,
      "duration": 0.016,
      "velocity": 115,
      "chip": "ym2612"
    },
    {
      "channel": 4,
      "note": 80,
      "start": 49.7643,
      "duration": 0.0163,
      "velocity": 98,
      "chip": "ym2612"
    },
    {
      "channel": 3,
      "note": 83,
      "start": 49.7654,
      "duration": 0.0164,
      "velocity": 98,
      "chip": "ym2612"
    },
    {
      "channel": 2,
      "note": 52,
      "start": 49.7666,
      "duration": 0.0163,
      "velocity": 93,
      "chip": "ym2612"
    },
    {
      "channel": 1,
      "note": 71,
      "start": 49.7683,
      "duration": 0.016,
      "velocity": 108,
      "chip": "ym2612"
    },
    {
      "channel": 0,
      "note": 37,
      "start": 49.7779,
      "duration": 0.0162,
      "velocity": 115,
      "chip": "ym2612"
    },
    {
      "channel": 5,
      "note": 71,
      "start": 49.7794,
      "duration": 0.0158,
      "velocity": 108,
      "chip": "ym2612"
    },
    {
      "channel": 4,
      "note": 80,
      "start": 49.7806,
      "duration": 0.0158,
      "velocity": 98,
      "chip": "ym2612"
    },
    {
      "channel": 3,
      "note": 83,
      "start": 49.7818,
      "duration": 0.0158,
      "velocity": 98,
      "chip": "ym2612"
    },
    {
      "channel": 2,
      "note": 52,
      "start": 49.783,
      "duration": 0.0158,
      "velocity": 93,
      "chip": "ym2612"
    },
    {
      "channel": 1,
      "note": 71,
      "start": 49.7844,
      "duration": 0.0156,
      "velocity": 108,
      "chip": "ym2612"
    },
    {
      "channel": 0,
      "note": 37,
      "start": 49.7941,
      "duration": 0.0161,
      "velocity": 115,
      "chip": "ym2612"
    },
    {
      "channel": 5,
      "note": 71,
      "start": 49.7953,
      "duration": 0.016,
      "velocity": 108,
      "chip": "ym2612"
    },
    {
      "channel": 4,
      "note": 80,
      "start": 49.7965,
      "duration": 0.0161,
      "velocity": 98,
      "chip": "ym2612"
    },
    {
      "channel": 3,
      "note": 83,
      "start": 49.7976,
      "duration": 0.0162,
      "velocity": 98,
      "chip": "ym2612"
    },
    {
      "channel": 2,
      "note": 52,
      "start": 49.7988,
      "duration": 0.0162,
      "velocity": 93,
      "chip": "ym2612"
    },
    {
      "channel": 1,
      "note": 71,
      "start": 49.8,
      "duration": 0.0162,
      "velocity": 108,
      "chip": "ym2612"
    },
    {
      "channel": 0,
      "note": 38,
      "start": 49.8102,
      "duration": 0.0161,
      "velocity": 115,
      "chip": "ym2612"
    },
    {
      "channel": 5,
      "note": 71,
      "start": 49.8113,
      "duration": 0.0161,
      "velocity": 108,
      "chip": "ym2612"
    },
    {
      "channel": 4,
      "note": 80,
      "start": 49.8126,
      "duration": 0.0161,
      "velocity": 98,
      "chip": "ym2612"
    },
    {
      "channel": 3,
      "note": 83,
      "start": 49.8138,
      "duration": 0.0162,
      "velocity": 98,
      "chip": "ym2612"
    },
    {
      "channel": 2,
      "note": 52,
      "start": 49.8151,
      "duration": 0.0161,
      "velocity": 93,
      "chip": "ym2612"
    },
    {
      "channel": 1,
      "note": 71,
      "start": 49.8162,
      "duration": 0.0162,
      "velocity": 108,
      "chip": "ym2612"
    },
    {
      "channel": 0,
      "note": 38,
      "start": 49.8262,
      "duration": 0.0161,
      "velocity": 115,
      "chip": "ym2612"
    },
    {
      "channel": 5,
      "note": 71,
      "start": 49.8274,
      "duration": 0.0161,
      "velocity": 108,
      "chip": "ym2612"
    },
    {
      "channel": 2,
      "note": 52,
      "start": 49.8312,
      "duration": 0.0168,
      "velocity": 93,
      "chip": "ym2612"
    },
    {
      "channel": 1,
      "note": 71,
      "start": 49.8324,
      "duration": 0.0169,
      "velocity": 108,
      "chip": "ym2612"
    },
    {
      "channel": 0,
      "note": 39,
      "start": 49.8423,
      "duration": 0.0161,
      "velocity": 115,
      "chip": "ym2612"
    },
    {
      "channel": 5,
      "note": 71,
      "start": 49.8435,
      "duration": 0.0161,
      "velocity": 108,
      "chip": "ym2612"
    },
    {
      "channel": 4,
      "note": 80,
      "start": 49.845,
      "duration": 0.0158,
      "velocity": 98,
      "chip": "ym2612"
    },
    {
      "channel": 3,
      "note": 83,
      "start": 49.8465,
      "duration": 0.0156,
      "velocity": 98,
      "chip": "ym2612"
    },
    {
      "channel": 2,
      "note": 52,
      "start": 49.8481,
      "duration": 0.0153,
      "velocity": 93,
      "chip": "ym2612"
    },
    {
      "channel": 1,
      "note": 71,
      "start": 49.8493,
      "duration": 0.0152,
      "velocity": 108,
      "chip": "ym2612"
    },
    {
      "channel": 0,
      "note": 39,
      "start": 49.8584,
      "duration": 0.0161,
      "velocity": 115,
      "chip": "ym2612"
    },
    {
      "channel": 5,
      "note": 71,
      "start": 49.8596,
      "duration": 0.0162,
      "velocity": 108,
      "chip": "ym2612"
    },
    {
      "channel": 4,
      "note": 80,
      "start": 49.8608,
      "duration": 0.0161,
      "velocity": 98,
      "chip": "ym2612"
    },
    {
      "channel": 3,
      "note": 83,
      "start": 49.8621,
      "duration": 0.016,
      "velocity": 98,
      "chip": "ym2612"
    },
    {
      "channel": 2,
      "note": 52,
      "start": 49.8633,
      "duration": 0.016,
      "velocity": 93,
      "chip": "ym2612"
    },
    {
      "channel": 1,
      "note": 71,
      "start": 49.8645,
      "duration": 0.016,
      "velocity": 108,
      "chip": "ym2612"
    },
    {
      "channel": 0,
      "note": 40,
      "start": 49.8745,
      "duration": 0.0161,
      "velocity": 115,
      "chip": "ym2612"
    },
    {
      "channel": 5,
      "note": 71,
      "start": 49.8758,
      "duration": 0.016,
      "velocity": 108,
      "chip": "ym2612"
    },
    {
      "channel": 4,
      "note": 80,
      "start": 49.8769,
      "duration": 0.0161,
      "velocity": 98,
      "chip": "ym2612"
    },
    {
      "channel": 3,
      "note": 83,
      "start": 49.8781,
      "duration": 0.016,
      "velocity": 98,
      "chip": "ym2612"
    },
    {
      "channel": 2,
      "note": 52,
      "start": 49.8793,
      "duration": 0.016,
      "velocity": 93,
      "chip": "ym2612"
    },
    {
      "channel": 1,
      "note": 71,
      "start": 49.8805,
      "duration": 0.016,
      "velocity": 108,
      "chip": "ym2612"
    },
    {
      "channel": 0,
      "note": 40,
      "start": 49.8906,
      "duration": 0.0161,
      "velocity": 115,
      "chip": "ym2612"
    },
    {
      "channel": 5,
      "note": 71,
      "start": 49.8918,
      "duration": 0.0161,
      "velocity": 108,
      "chip": "ym2612"
    },
    {
      "channel": 4,
      "note": 80,
      "start": 49.893,
      "duration": 0.0161,
      "velocity": 98,
      "chip": "ym2612"
    },
    {
      "channel": 3,
      "note": 83,
      "start": 49.8942,
      "duration": 0.0162,
      "velocity": 98,
      "chip": "ym2612"
    },
    {
      "channel": 2,
      "note": 52,
      "start": 49.8953,
      "duration": 0.0161,
      "velocity": 93,
      "chip": "ym2612"
    },
    {
      "channel": 1,
      "note": 71,
      "start": 49.8965,
      "duration": 0.0161,
      "velocity": 108,
      "chip": "ym2612"
    },
    {
      "channel": 0,
      "note": 40,
      "start": 49.9067,
      "duration": 0.0161,
      "velocity": 115,
      "chip": "ym2612"
    },
    {
      "channel": 5,
      "note": 71,
      "start": 49.908,
      "duration": 0.016,
      "velocity": 108,
      "chip": "ym2612"
    },
    {
      "channel": 4,
      "note": 80,
      "start": 49.9091,
      "duration": 0.016,
      "velocity": 98,
      "chip": "ym2612"
    },
    {
      "channel": 3,
      "note": 83,
      "start": 49.9103,
      "duration": 0.016,
      "velocity": 98,
      "chip": "ym2612"
    },
    {
      "channel": 2,
      "note": 52,
      "start": 49.9115,
      "duration": 0.016,
      "velocity": 93,
      "chip": "ym2612"
    },
    {
      "channel": 1,
      "note": 71,
      "start": 49.9126,
      "duration": 0.016,
      "velocity": 108,
      "chip": "ym2612"
    },
    {
      "channel": 0,
      "note": 41,
      "start": 49.9228,
      "duration": 0.0161,
      "velocity": 115,
      "chip": "ym2612"
    },
    {
      "channel": 5,
      "note": 71,
      "start": 49.924,
      "duration": 0.0161,
      "velocity": 108,
      "chip": "ym2612"
    },
    {
      "channel": 4,
      "note": 80,
      "start": 49.9252,
      "duration": 0.0161,
      "velocity": 98,
      "chip": "ym2612"
    },
    {
      "channel": 3,
      "note": 83,
      "start": 49.9264,
      "duration": 0.0161,
      "velocity": 98,
      "chip": "ym2612"
    },
    {
      "channel": 2,
      "note": 52,
      "start": 49.9275,
      "duration": 0.0162,
      "velocity": 93,
      "chip": "ym2612"
    },
    {
      "channel": 0,
      "note": 41,
      "start": 49.939,
      "duration": 0.0161,
      "velocity": 115,
      "chip": "ym2612"
    },
    {
      "channel": 5,
      "note": 71,
      "start": 49.9401,
      "duration": 0.0161,
      "velocity": 108,
      "chip": "ym2612"
    },
    {
      "channel": 4,
      "note": 80,
      "start": 49.9413,
      "duration": 0.0161,
      "velocity": 98,
      "chip": "ym2612"
    },
    {
      "channel": 3,
      "note": 83,
      "start": 49.9425,
      "duration": 0.0161,
      "velocity": 98,
      "chip": "ym2612"
    },
    {
      "channel": 2,
      "note": 52,
      "start": 49.9437,
      "duration": 0.0161,
      "velocity": 93,
      "chip": "ym2612"
    },
    {
      "channel": 0,
      "note": 42,
      "start": 49.9551,
      "duration": 0.0161,
      "velocity": 115,
      "chip": "ym2612"
    },
    {
      "channel": 4,
      "note": 80,
      "start": 49.9574,
      "duration": 0.0162,
      "velocity": 98,
      "chip": "ym2612"
    },
    {
      "channel": 3,
      "note": 83,
      "start": 49.9586,
      "duration": 0.0162,
      "velocity": 98,
      "chip": "ym2612"
    },
    {
      "channel": 2,
      "note": 52,
      "start": 49.9598,
      "duration": 0.0162,
      "velocity": 93,
      "chip": "ym2612"
    },
    {
      "channel": 0,
      "note": 42,
      "start": 49.9712,
      "duration": 0.0161,
      "velocity": 115,
      "chip": "ym2612"
    },
    {
      "channel": 4,
      "note": 80,
      "start": 49.9736,
      "duration": 0.0162,
      "velocity": 98,
      "chip": "ym2612"
    },
    {
      "channel": 3,
      "note": 83,
      "start": 49.9749,
      "duration": 0.0163,
      "velocity": 98,
      "chip": "ym2612"
    },
    {
      "channel": 2,
      "note": 52,
      "start": 49.976,
      "duration": 0.0163,
      "velocity": 93,
      "chip": "ym2612"
    },
    {
      "channel": 0,
      "note": 43,
      "start": 49.9873,
      "duration": 0.0162,
      "velocity": 115,
      "chip": "ym2612"
    },
    {
      "channel": 4,
      "note": 80,
      "start": 49.9899,
      "duration": 0.0161,
      "velocity": 98,
      "chip": "ym2612"
    },
    {
      "channel": 3,
      "note": 83,
      "start": 49.9911,
      "duration": 0.0161,
      "velocity": 98,
      "chip": "ym2612"
    },
    {
      "channel": 2,
      "note": 52,
      "start": 49.9923,
      "duration": 0.0162,
      "velocity": 93,
      "chip": "ym2612"
    },
    {
      "channel": 0,
      "note": 43,
      "start": 50.0035,
      "duration": 0.0163,
      "velocity": 115,
      "chip": "ym2612"
    },
    {
      "channel": 4,
      "note": 80,
      "start": 50.006,
      "duration": 0.0163,
      "velocity": 98,
      "chip": "ym2612"
    },
    {
      "channel": 3,
      "note": 83,
      "start": 50.0073,
      "duration": 0.0163,
      "velocity": 98,
      "chip": "ym2612"
    },
    {
      "channel": 2,
      "note": 52,
      "start": 50.0085,
      "duration": 0.0163,
      "velocity": 93,
      "chip": "ym2612"
    },
    {
      "channel": 0,
      "note": 44,
      "start": 50.0199,
      "duration": 0.0181,
      "velocity": 115,
      "chip": "ym2612"
    },
    {
      "channel": 4,
      "note": 80,
      "start": 50.0224,
      "duration": 0.0181,
      "velocity": 98,
      "chip": "ym2612"
    },
    {
      "channel": 3,
      "note": 83,
      "start": 50.0236,
      "duration": 0.018,
      "velocity": 98,
      "chip": "ym2612"
    },
    {
      "channel": 2,
      "note": 52,
      "start": 50.0249,
      "duration": 0.0179,
      "velocity": 93,
      "chip": "ym2612"
    },
    {
      "channel": 0,
      "note": 36,
      "start": 50.038,
      "duration": 0.0143,
      "velocity": 115,
      "chip": "ym2612"
    },
    {
      "channel": 4,
      "note": 80,
      "start": 50.0404,
      "duration": 0.0143,
      "velocity": 98,
      "chip": "ym2612"
    },
    {
      "channel": 3,
      "note": 83,
      "start": 50.0416,
      "duration": 0.0143,
      "velocity": 98,
      "chip": "ym2612"
    },
    {
      "channel": 2,
      "note": 52,
      "start": 50.0428,
      "duration": 0.0143,
      "velocity": 93,
      "chip": "ym2612"
    },
    {
      "channel": 0,
      "note": 36,
      "start": 50.0523,
      "duration": 0.016,
      "velocity": 115,
      "chip": "ym2612"
    },
    {
      "channel": 4,
      "note": 80,
      "start": 50.0547,
      "duration": 0.016,
      "velocity": 98,
      "chip": "ym2612"
    },
    {
      "channel": 3,
      "note": 83,
      "start": 50.0559,
      "duration": 0.016,
      "velocity": 98,
      "chip": "ym2612"
    },
    {
      "channel": 2,
      "note": 52,
      "start": 50.0571,
      "duration": 0.016,
      "velocity": 93,
      "chip": "ym2612"
    },
    {
      "channel": 0,
      "note": 37,
      "start": 50.0683,
      "duration": 0.0156,
      "velocity": 115,
      "chip": "ym2612"
    },
    {
      "channel": 4,
      "note": 80,
      "start": 50.0708,
      "duration": 0.0161,
      "velocity": 98,
      "chip": "ym2612"
    },
    {
      "channel": 3,
      "note": 83,
      "start": 50.072,
      "duration": 0.0161,
      "velocity": 98,
      "chip": "ym2612"
    },
    {
      "channel": 2,
      "note": 52,
      "start": 50.0731,
      "duration": 0.0161,
      "velocity": 93,
      "chip": "ym2612"
    },
    {
      "channel": 0,
      "note": 37,
      "start": 50.0839,
      "duration": 0.0161,
      "velocity": 115,
      "chip": "ym2612"
    },
    {
      "channel": 4,
      "note": 80,
      "start": 50.0869,
      "duration": 0.0162,
      "velocity": 98,
      "chip": "ym2612"
    },
    {
      "channel": 3,
      "note": 83,
      "start": 50.0881,
      "duration": 0.0162,
      "velocity": 98,
      "chip": "ym2612"
    },
    {
      "channel": 2,
      "note": 52,
      "start": 50.0892,
      "duration": 0.0163,
      "velocity": 93,
      "chip": "ym2612"
    },
    {
      "channel": 0,
      "note": 38,
      "start": 50.1,
      "duration": 0.0161,
      "velocity": 115,
      "chip": "ym2612"
    },
    {
      "channel": 4,
      "note": 80,
      "start": 50.1031,
      "duration": 0.0161,
      "velocity": 98,
      "chip": "ym2612"
    },
    {
      "channel": 3,
      "note": 83,
      "start": 50.1043,
      "duration": 0.0162,
      "velocity": 98,
      "chip": "ym2612"
    },
    {
      "channel": 2,
      "note": 52,
      "start": 50.1056,
      "duration": 0.0161,
      "velocity": 93,
      "chip": "ym2612"
    },
    {
      "channel": 0,
      "note": 38,
      "start": 50.1161,
      "duration": 0.0181,
      "velocity": 124,
      "chip": "ym2612"
    },
    {
      "channel": 2,
      "note": 52,
      "start": 50.1217,
      "duration": 0.0185,
      "velocity": 93,
      "chip": "ym2612"
    },
    {
      "channel": 0,
      "note": 84,
      "start": 50.1342,
      "duration": 0.0141,
      "velocity": 124,
      "chip": "ym2612"
    },
    {
      "channel": 4,
      "note": 80,
      "start": 50.1373,
      "duration": 0.0137,
      "velocity": 98,
      "chip": "ym2612"
    },
    {
      "channel": 3,
      "note": 83,
      "start": 50.1388,
      "duration": 0.0139,
      "velocity": 98,
      "chip": "ym2612"
    },
    {
      "channel": 2,
      "note": 52,
      "start": 50.1403,
      "duration": 0.0136,
      "velocity": 93,
      "chip": "ym2612"
    },
    {
      "channel": 0,
      "note": 82,
      "start": 50.1483,
      "duration": 0.016,
      "velocity": 124,
      "chip": "ym2612"
    },
    {
      "channel": 4,
      "note": 80,
      "start": 50.151,
      "duration": 0.0158,
      "velocity": 98,
      "chip": "ym2612"
    },
    {
      "channel": 3,
      "note": 83,
      "start": 50.1527,
      "duration": 0.0158,
      "velocity": 98,
      "chip": "ym2612"
    },
    {
      "channel": 2,
      "note": 52,
      "start": 50.1539,
      "duration": 0.0158,
      "velocity": 93,
      "chip": "ym2612"
    },
    {
      "channel": 0,
      "note": 80,
      "start": 50.1644,
      "duration": 0.0161,
      "velocity": 124,
      "chip": "ym2612"
    },
    {
      "channel": 4,
      "note": 80,
      "start": 50.1668,
      "duration": 0.0162,
      "velocity": 98,
      "chip": "ym2612"
    },
    {
      "channel": 3,
      "note": 83,
      "start": 50.1685,
      "duration": 0.0158,
      "velocity": 98,
      "chip": "ym2612"
    },
    {
      "channel": 2,
      "note": 52,
      "start": 50.1697,
      "duration": 0.0162,
      "velocity": 93,
      "chip": "ym2612"
    },
    {
      "channel": 0,
      "note": 77,
      "start": 50.1804,
      "duration": 0.0161,
      "velocity": 124,
      "chip": "ym2612"
    },
    {
      "channel": 4,
      "note": 80,
      "start": 50.1829,
      "duration": 0.0161,
      "velocity": 98,
      "chip": "ym2612"
    },
    {
      "channel": 3,
      "note": 83,
      "start": 50.1843,
      "duration": 0.0159,
      "velocity": 98,
      "chip": "ym2612"
    },
    {
      "channel": 2,
      "note": 52,
      "start": 50.1859,
      "duration": 0.016,
      "velocity": 93,
      "chip": "ym2612"
    },
    {
      "channel": 0,
      "note": 75,
      "start": 50.1965,
      "duration": 0.0162,
      "velocity": 124,
      "chip": "ym2612"
    },
    {
      "channel": 4,
      "note": 80,
      "start": 50.199,
      "duration": 0.0161,
      "velocity": 98,
      "chip": "ym2612"
    },
    {
      "channel": 3,
      "note": 83,
      "start": 50.2002,
      "duration": 0.0161,
      "velocity": 98,
      "chip": "ym2612"
    },
    {
      "channel": 2,
      "note": 52,
      "start": 50.2019,
      "duration": 0.0158,
      "velocity": 93,
      "chip": "ym2612"
    },
    {
      "channel": 0,
      "note": 72,
      "start": 50.2127,
      "duration": 0.0161,
      "velocity": 124,
      "chip": "ym2612"
    },
    {
      "channel": 4,
      "note": 80,
      "start": 50.2151,
      "duration": 0.0161,
      "velocity": 98,
      "chip": "ym2612"
    },
    {
      "channel": 3,
      "note": 83,
      "start": 50.2163,
      "duration": 0.0161,
      "velocity": 98,
      "chip": "ym2612"
    },
    {
      "channel": 2,
      "note": 52,
      "start": 50.2177,
      "duration": 0.0159,
      "velocity": 93,
      "chip": "ym2612"
    },
    {
      "channel": 0,
      "note": 70,
      "start": 50.2288,
      "duration": 0.0161,
      "velocity": 124,
      "chip": "ym2612"
    },
    {
      "channel": 4,
      "note": 80,
      "start": 50.2312,
      "duration": 0.0161,
      "velocity": 98,
      "chip": "ym2612"
    },
    {
      "channel": 3,
      "note": 83,
      "start": 50.2324,
      "duration": 0.0161,
      "velocity": 98,
      "chip": "ym2612"
    },
    {
      "channel": 2,
      "note": 52,
      "start": 50.2336,
      "duration": 0.0161,
      "velocity": 93,
      "chip": "ym2612"
    },
    {
      "channel": 0,
      "note": 68,
      "start": 50.2449,
      "duration": 0.0161,
      "velocity": 124,
      "chip": "ym2612"
    },
    {
      "channel": 4,
      "note": 80,
      "start": 50.2473,
      "duration": 0.0161,
      "velocity": 98,
      "chip": "ym2612"
    },
    {
      "channel": 3,
      "note": 83,
      "start": 50.2484,
      "duration": 0.0162,
      "velocity": 98,
      "chip": "ym2612"
    },
    {
      "channel": 2,
      "note": 52,
      "start": 50.2497,
      "duration": 0.0161,
      "velocity": 93,
      "chip": "ym2612"
    },
    {
      "channel": 0,
      "note": 65,
      "start": 50.261,
      "duration": 0.0161,
      "velocity": 124,
      "chip": "ym2612"
    },
    {
      "channel": 4,
      "note": 80,
      "start": 50.2634,
      "duration": 0.0162,
      "velocity": 98,
      "chip": "ym2612"
    },
    {
      "channel": 3,
      "note": 83,
      "start": 50.2646,
      "duration": 0.0163,
      "velocity": 98,
      "chip": "ym2612"
    },
    {
      "channel": 2,
      "note": 52,
      "start": 50.2657,
      "duration": 0.0163,
      "velocity": 93,
      "chip": "ym2612"
    },
    {
      "channel": 0,
      "note": 63,
      "start": 50.2771,
      "duration": 0.0153,
      "velocity": 1,
      "chip": "ym2612"
    },
    {
      "channel": 4,
      "note": 80,
      "start": 50.2796,
      "duration": 0.0152,
      "velocity": 98,
      "chip": "ym2612"
    },
    {
      "channel": 3,
      "note": 83,
      "start": 50.2809,
      "duration": 0.0152,
      "velocity": 98,
      "chip": "ym2612"
    },
    {
      "channel": 2,
      "note": 52,
      "start": 50.2821,
      "duration": 0.0152,
      "velocity": 93,
      "chip": "ym2612"
    },
    {
      "channel": 4,
      "note": 80,
      "start": 50.2948,
      "duration": 0.0153,
      "velocity": 98,
      "chip": "ym2612"
    },
    {
      "channel": 3,
      "note": 83,
      "start": 50.2961,
      "duration": 0.0153,
      "velocity": 98,
      "chip": "ym2612"
    },
    {
      "channel": 2,
      "note": 52,
      "start": 50.2973,
      "duration": 0.0153,
      "velocity": 93,
      "chip": "ym2612"
    },
    {
      "channel": 4,
      "note": 80,
      "start": 50.3101,
      "duration": 0.016,
      "velocity": 98,
      "chip": "ym2612"
    },
    {
      "channel": 3,
      "note": 83,
      "start": 50.3114,
      "duration": 0.016,
      "velocity": 98,
      "chip": "ym2612"
    },
    {
      "channel": 2,
      "note": 52,
      "start": 50.3126,
      "duration": 0.0159,
      "velocity": 93,
      "chip": "ym2612"
    },
    {
      "channel": 4,
      "note": 80,
      "start": 50.3261,
      "duration": 0.0161,
      "velocity": 98,
      "chip": "ym2612"
    },
    {
      "channel": 3,
      "note": 83,
      "start": 50.3273,
      "duration": 0.0161,
      "velocity": 98,
      "chip": "ym2612"
    },
    {
      "channel": 2,
      "note": 52,
      "start": 50.3285,
      "duration": 0.0161,
      "velocity": 93,
      "chip": "ym2612"
    },
    {
      "channel": 1,
      "note": 71,
      "start": 50.33,
      "duration": 0.0158,
      "velocity": 108,
      "chip": "ym2612"
    },
    {
      "channel": 4,
      "note": 80,
      "start": 50.3423,
      "duration": 0.0163,
      "velocity": 98,
      "chip": "ym2612"
    },
    {
      "channel": 3,
      "note": 83,
      "start": 50.3434,
      "duration": 0.0163,
      "velocity": 98,
      "chip": "ym2612"
    },
    {
      "channel": 2,
      "note": 52,
      "start": 50.3446,
      "duration": 0.0163,
      "velocity": 93,
      "chip": "ym2612"
    },
    {
      "channel": 1,
      "note": 71,
      "start": 50.3458,
      "duration": 0.0163,
      "velocity": 108,
      "chip": "ym2612"
    },
    {
      "channel": 5,
      "note": 71,
      "start": 50.3574,
      "duration": 0.0158,
      "velocity": 108,
      "chip": "ym2612"
    },
    {
      "channel": 4,
      "note": 80,
      "start": 50.3585,
      "duration": 0.0159,
      "velocity": 98,
      "chip": "ym2612"
    },
    {
      "channel": 3,
      "note": 83,
      "start": 50.3598,
      "duration": 0.0158,
      "velocity": 98,
      "chip": "ym2612"
    },
    {
      "channel": 2,
      "note": 52,
      "start": 50.3609,
      "duration": 0.0159,
      "velocity": 93,
      "chip": "ym2612"
    },
    {
      "channel": 1,
      "note": 71,
      "start": 50.3621,
      "duration": 0.0158,
      "velocity": 108,
      "chip": "ym2612"
    },
    {
      "channel": 5,
      "note": 71,
      "start": 50.3732,
      "duration": 0.0161,
      "velocity": 108,
      "chip": "ym2612"
    },
    {
      "channel": 4,
      "note": 80,
      "start": 50.3744,
      "duration": 0.0162,
      "velocity": 98,
      "chip": "ym2612"
    },
    {
      "channel": 3,
      "note": 83,
      "start": 50.3756,
      "duration": 0.0162,
      "velocity": 98,
      "chip": "ym2612"
    },
    {
      "channel": 2,
      "note": 52,
      "start": 50.3768,
      "duration": 0.0163,
      "velocity": 93,
      "chip": "ym2612"
    },
    {
      "channel": 1,
      "note": 71,
      "start": 50.378,
      "duration": 0.0162,
      "velocity": 108,
      "chip": "ym2612"
    },
    {
      "channel": 5,
      "note": 71,
      "start": 50.3893,
      "duration": 0.0161,
      "velocity": 108,
      "chip": "ym2612"
    },
    {
      "channel": 4,
      "note": 80,
      "start": 50.3906,
      "duration": 0.0161,
      "velocity": 98,
      "chip": "ym2612"
    },
    {
      "channel": 3,
      "note": 83,
      "start": 50.3918,
      "duration": 0.0161,
      "velocity": 98,
      "chip": "ym2612"
    },
    {
      "channel": 2,
      "note": 52,
      "start": 50.393,
      "duration": 0.0161,
      "velocity": 93,
      "chip": "ym2612"
    },
    {
      "channel": 1,
      "note": 71,
      "start": 50.3942,
      "duration": 0.0162,
      "velocity": 108,
      "chip": "ym2612"
    },
    {
      "channel": 5,
      "note": 71,
      "start": 50.4054,
      "duration": 0.0196,
      "velocity": 108,
      "chip": "ym2612"
    },
    {
      "channel": 2,
      "note": 52,
      "start": 50.4092,
      "duration": 0.0203,
      "velocity": 93,
      "chip": "ym2612"
    },
    {
      "channel": 0,
      "note": 36,
      "start": 50.4238,
      "duration": 0.0143,
      "velocity": 115,
      "chip": "ym2612"
    },
    {
      "channel": 5,
      "note": 71,
      "start": 50.425,
      "duration": 0.0143,
      "velocity": 108,
      "chip": "ym2612"
    },
    {
      "channel": 4,
      "note": 80,
      "start": 50.4265,
      "duration": 0.0141,
      "velocity": 98,
      "chip": "ym2612"
    },
    {
      "channel": 3,
      "note": 83,
      "start": 50.428,
      "duration": 0.0138,
      "velocity": 98,
      "chip": "ym2612"
    },
    {
      "channel": 2,
      "note": 52,
      "start": 50.4295,
      "duration": 0.0135,
      "velocity": 93,
      "chip": "ym2612"
    },
    {
      "channel": 1,
      "note": 73,
      "start": 50.4311,
      "duration": 0.0132,
      "velocity": 108,
      "chip": "ym2612"
    },
    {
      "channel": 0,
      "note": 36,
      "start": 50.4381,
      "duration": 0.016,
      "velocity": 115,
      "chip": "ym2612"
    },
    {
      "channel": 4,
      "note": 80,
      "start": 50.4406,
      "duration": 0.0163,
      "velocity": 98,
      "chip": "ym2612"
    },
    {
      "channel": 3,
      "note": 83,
      "start": 50.4418,
      "duration": 0.0162,
      "velocity": 98,
      "chip": "ym2612"
    },
    {
      "channel": 2,
      "note": 52,
      "start": 50.443,
      "duration": 0.0161,
      "velocity": 93,
      "chip": "ym2612"
    },
    {
      "channel": 1,
      "note": 73,
      "start": 50.4442,
      "duration": 0.0161,
      "velocity": 108,
      "chip": "ym2612"
    },
    {
      "channel": 0,
      "note": 37,
      "start": 50.4542,
      "duration": 0.0161,
      "velocity": 115,
      "chip": "ym2612"
    },
    {
      "channel": 5,
      "note": 73,
      "start": 50.4557,
      "duration": 0.0159,
      "velocity": 108,
      "chip": "ym2612"
    },
    {
      "channel": 4,
      "note": 80,
      "start": 50.4568,
      "duration": 0.0159,
      "velocity": 98,
      "chip": "ym2612"
    },
    {
      "channel": 3,
      "note": 83,
      "start": 50.458,
      "duration": 0.0159,
      "velocity": 98,
      "chip": "ym2612"
    },
    {
      "channel": 2,
      "note": 52,
      "start": 50.4592,
      "duration": 0.0159,
      "velocity": 93,
      "chip": "ym2612"
    },
    {
      "channel": 1,
      "note": 73,
      "start": 50.4603,
      "duration": 0.0159,
      "velocity": 108,
      "chip": "ym2612"
    },
    {
      "channel": 0,
      "note": 37,
      "start": 50.4703,
      "duration": 0.0164,
      "velocity": 115,
      "chip": "ym2612"
    },
    {
      "channel": 5,
      "note": 73,
      "start": 50.4716,
      "duration": 0.0163,
      "velocity": 108,
      "chip": "ym2612"
    },
    {
      "channel": 4,
      "note": 80,
      "start": 50.4727,
      "duration": 0.0163,
      "velocity": 98,
      "chip": "ym2612"
    },
    {
      "channel": 3,
      "note": 83,
      "start": 50.4739,
      "duration": 0.0163,
      "velocity": 98,
      "chip": "ym2612"
    },
    {
      "channel": 2,
      "note": 52,
      "start": 50.4751,
      "duration": 0.0163,
      "velocity": 93,
      "chip": "ym2612"
    },
    {
      "channel": 1,
      "note": 73,
      "start": 50.4762,
      "duration": 0.0163,
      "velocity": 108,
      "chip": "ym2612"
    },
    {
      "channel": 0,
      "note": 38,
      "start": 50.4867,
      "duration": 0.0163,
      "velocity": 115,
      "chip": "ym2612"
    },
    {
      "channel": 5,
      "note": 73,
      "start": 50.488,
      "duration": 0.0163,
      "velocity": 108,
      "chip": "ym2612"
    },
    {
      "channel": 4,
      "note": 80,
      "start": 50.4891,
      "duration": 0.0163,
      "velocity": 98,
      "chip": "ym2612"
    },
    {
      "channel": 3,
      "note": 83,
      "start": 50.4903,
      "duration": 0.0163,
      "velocity": 98,
      "chip": "ym2612"
    },
    {
      "channel": 2,
      "note": 52,
      "start": 50.4915,
      "duration": 0.0163,
      "velocity": 93,
      "chip": "ym2612"
    },
    {
      "channel": 1,
      "note": 73,
      "start": 50.4926,
      "duration": 0.0163,
      "velocity": 108,
      "chip": "ym2612"
    },
    {
      "channel": 0,
      "note": 38,
      "start": 50.5031,
      "duration": 0.016,
      "velocity": 115,
      "chip": "ym2612"
    },
    {
      "channel": 5,
      "note": 73,
      "start": 50.5042,
      "duration": 0.0161,
      "velocity": 108,
      "chip": "ym2612"
    },
    {
      "channel": 4,
      "note": 80,
      "start": 50.5054,
      "duration": 0.0162,
      "velocity": 98,
      "chip": "ym2612"
    },
    {
      "channel": 3,
      "note": 83,
      "start": 50.5066,
      "duration": 0.0161,
      "velocity": 98,
      "chip": "ym2612"
    },
    {
      "channel": 2,
      "note": 52,
      "start": 50.5077,
      "duration": 0.0162,
      "velocity": 93,
      "chip": "ym2612"
    },
    {
      "channel": 1,
      "note": 73,
      "start": 50.5089,
      "duration": 0.0162,
      "velocity": 108,
      "chip": "ym2612"
    },
    {
      "channel": 0,
      "note": 39,
      "start": 50.5191,
      "duration": 0.0161,
      "velocity": 115,
      "chip": "ym2612"
    },
    {
      "channel": 5,
      "note": 73,
      "start": 50.5203,
      "duration": 0.0161,
      "velocity": 108,
      "chip": "ym2612"
    },
    {
      "channel": 4,
      "note": 80,
      "start": 50.5215,
      "duration": 0.0161,
      "velocity": 98,
      "chip": "ym2612"
    },
    {
      "channel": 3,
      "note": 83,
      "start": 50.5227,
      "duration": 0.0162,
      "velocity": 98,
      "chip": "ym2612"
    },
    {
      "channel": 2,
      "note": 52,
      "start": 50.5239,
      "duration": 0.0161,
      "velocity": 93,
      "chip": "ym2612"
    },
    {
      "channel": 1,
      "note": 73,
      "start": 50.525,
      "duration": 0.0161,
      "velocity": 108,
      "chip": "ym2612"
    },
    {
      "channel": 0,
      "note": 39,
      "start": 50.5352,
      "duration": 0.0158,
      "velocity": 115,
      "chip": "ym2612"
    },
    {
      "channel": 5,
      "note": 73,
      "start": 50.5364,
      "duration": 0.0161,
      "velocity": 108,
      "chip": "ym2612"
    },
    {
      "channel": 4,
      "note": 80,
      "start": 50.5376,
      "duration": 0.0161,
      "velocity": 98,
      "chip": "ym2612"
    },
    {
      "channel": 3,
      "note": 83,
      "start": 50.5388,
      "duration": 0.0161,
      "velocity": 98,
      "chip": "ym2612"
    },
    {
      "channel": 2,
      "note": 52,
      "start": 50.54,
      "duration": 0.0161,
      "velocity": 93,
      "chip": "ym2612"
    },
    {
      "channel": 1,
      "note": 73,
      "start": 50.5411,
      "duration": 0.0161,
      "velocity": 108,
      "chip": "ym2612"
    },
    {
      "channel": 0,
      "note": 40,
      "start": 50.551,
      "duration": 0.0159,
      "velocity": 115,
      "chip": "ym2612"
    },
    {
      "channel": 5,
      "note": 73,
      "start": 50.5525,
      "duration": 0.0161,
      "velocity": 108,
      "chip": "ym2612"
    },
    {
      "channel": 4,
      "note": 80,
      "start": 50.5537,
      "duration": 0.0162,
      "velocity": 98,
      "chip": "ym2612"
    },
    {
      "channel": 3,
      "note": 83,
      "start": 50.5549,
      "duration": 0.0163,
      "velocity": 98,
      "chip": "ym2612"
    },
    {
      "channel": 2,
      "note": 52,
      "start": 50.5561,
      "duration": 0.0163,
      "velocity": 93,
      "chip": "ym2612"
    },
    {
      "channel": 1,
      "note": 73,
      "start": 50.5572,
      "duration": 0.0164,
      "velocity": 108,
      "chip": "ym2612"
    },
    {
      "channel": 0,
      "note": 40,
      "start": 50.5669,
      "duration": 0.0161,
      "velocity": 115,
      "chip": "ym2612"
    },
    {
      "channel": 5,
      "note": 73,
      "start": 50.5686,
      "duration": 0.0158,
      "velocity": 108,
      "chip": "ym2612"
    },
    {
      "channel": 4,
      "note": 80,
      "start": 50.57,
      "duration": 0.016,
      "velocity": 98,
      "chip": "ym2612"
    },
    {
      "channel": 3,
      "note": 83,
      "start": 50.5712,
      "duration": 0.016,
      "velocity": 98,
      "chip": "ym2612"
    },
    {
      "channel": 2,
      "note": 52,
      "start": 50.5724,
      "duration": 0.016,
      "velocity": 93,
      "chip": "ym2612"
    },
    {
      "channel": 1,
      "note": 73,
      "start": 50.5736,
      "duration": 0.016,
      "velocity": 108,
      "chip": "ym2612"
    },
    {
      "channel": 0,
      "note": 40,
      "start": 50.583,
      "duration": 0.0161,
      "velocity": 115,
      "chip": "ym2612"
    },
    {
      "channel": 5,
      "note": 73,
      "start": 50.5844,
      "duration": 0.016,
      "velocity": 108,
      "chip": "ym2612"
    },
    {
      "channel": 4,
      "note": 80,
      "start": 50.586,
      "duration": 0.0162,
      "velocity": 98,
      "chip": "ym2612"
    },
    {
      "channel": 3,
      "note": 83,
      "start": 50.5873,
      "duration": 0.0162,
      "velocity": 98,
      "chip": "ym2612"
    },
    {
      "channel": 2,
      "note": 52,
      "start": 50.5885,
      "duration": 0.0162,
      "velocity": 93,
      "chip": "ym2612"
    },
    {
      "channel": 1,
      "note": 73,
      "start": 50.5897,
      "duration": 0.0162,
      "velocity": 108,
      "chip": "ym2612"
    },
    {
      "channel": 0,
      "note": 41,
      "start": 50.5991,
      "duration": 0.0161,
      "velocity": 115,
      "chip": "ym2612"
    },
    {
      "channel": 5,
      "note": 73,
      "start": 50.6004,
      "duration": 0.016,
      "velocity": 108,
      "chip": "ym2612"
    },
    {
      "channel": 4,
      "note": 80,
      "start": 50.6022,
      "duration": 0.016,
      "velocity": 98,
      "chip": "ym2612"
    },
    {
      "channel": 3,
      "note": 83,
      "start": 50.6035,
      "duration": 0.0159,
      "velocity": 98,
      "chip": "ym2612"
    },
    {
      "channel": 2,
      "note": 52,
      "start": 50.6047,
      "duration": 0.0159,
      "velocity": 93,
      "chip": "ym2612"
    },
    {
      "channel": 1,
      "note": 73,
      "start": 50.6059,
      "duration": 0.0158,
      "velocity": 108,
      "chip": "ym2612"
    },
    {
      "channel": 0,
      "note": 41,
      "start": 50.6152,
      "duration": 0.0161,
      "velocity": 115,
      "chip": "ym2612"
    },
    {
      "channel": 5,
      "note": 73,
      "start": 50.6164,
      "duration": 0.0161,
      "velocity": 108,
      "chip": "ym2612"
    },
    {
      "channel": 4,
      "note": 80,
      "start": 50.6182,
      "duration": 0.0156,
      "velocity": 98,
      "chip": "ym2612"
    },
    {
      "channel": 3,
      "note": 83,
      "start": 50.6194,
      "duration": 0.0162,
      "velocity": 98,
      "chip": "ym2612"
    },
    {
      "channel": 2,
      "note": 52,
      "start": 50.6206,
      "duration": 0.0161,
      "velocity": 93,
      "chip": "ym2612"
    },
    {
      "channel": 1,
      "note": 73,
      "start": 50.6217,
      "duration": 0.0161,
      "velocity": 108,
      "chip": "ym2612"
    },
    {
      "channel": 0,
      "note": 42,
      "start": 50.6313,
      "duration": 0.0161,
      "velocity": 115,
      "chip": "ym2612"
    },
    {
      "channel": 5,
      "note": 73,
      "start": 50.6325,
      "duration": 0.016,
      "velocity": 108,
      "chip": "ym2612"
    },
    {
      "channel": 4,
      "note": 80,
      "start": 50.6337,
      "duration": 0.016,
      "velocity": 98,
      "chip": "ym2612"
    },
    {
      "channel": 3,
      "note": 83,
      "start": 50.6355,
      "duration": 0.016,
      "velocity": 98,
      "chip": "ym2612"
    },
    {
      "channel": 2,
      "note": 52,
      "start": 50.6367,
      "duration": 0.016,
      "velocity": 93,
      "chip": "ym2612"
    },
    {
      "channel": 1,
      "note": 73,
      "start": 50.6378,
      "duration": 0.016,
      "velocity": 108,
      "chip": "ym2612"
    },
    {
      "channel": 0,
      "note": 42,
      "start": 50.6474,
      "duration": 0.0161,
      "velocity": 115,
      "chip": "ym2612"
    },
    {
      "channel": 5,
      "note": 73,
      "start": 50.6486,
      "duration": 0.0161,
      "velocity": 108,
      "chip": "ym2612"
    },
    {
      "channel": 4,
      "note": 80,
      "start": 50.6498,
      "duration": 0.0161,
      "velocity": 98,
      "chip": "ym2612"
    },
    {
      "channel": 3,
      "note": 83,
      "start": 50.6515,
      "duration": 0.0155,
      "velocity": 98,
      "chip": "ym2612"
    },
    {
      "channel": 2,
      "note": 52,
      "start": 50.6527,
      "duration": 0.0161,
      "velocity": 93,
      "chip": "ym2612"
    },
    {
      "channel": 1,
      "note": 73,
      "start": 50.6539,
      "duration": 0.0161,
      "velocity": 108,
      "chip": "ym2612"
    },
    {
      "channel": 0,
      "note": 43,
      "start": 50.6634,
      "duration": 0.0162,
      "velocity": 115,
      "chip": "ym2612"
    },
    {
      "channel": 5,
      "note": 73,
      "start": 50.6647,
      "duration": 0.0161,
      "velocity": 108,
      "chip": "ym2612"
    },
    {
      "channel": 4,
      "note": 80,
      "start": 50.6659,
      "duration": 0.0162,
      "velocity": 98,
      "chip": "ym2612"
    },
    {
      "channel": 3,
      "note": 83,
      "start": 50.667,
      "duration": 0.0162,
      "velocity": 98,
      "chip": "ym2612"
    },
    {
      "channel": 2,
      "note": 52,
      "start": 50.6688,
      "duration": 0.0162,
      "velocity": 93,
      "chip": "ym2612"
    },
    {
      "channel": 1,
      "note": 73,
      "start": 50.67,
      "duration": 0.0163,
      "velocity": 108,
      "chip": "ym2612"
    },
    {
      "channel": 0,
      "note": 43,
      "start": 50.6796,
      "duration": 0.0161,
      "velocity": 115,
      "chip": "ym2612"
    },
    {
      "channel": 5,
      "note": 73,
      "start": 50.6808,
      "duration": 0.0161,
      "velocity": 108,
      "chip": "ym2612"
    },
    {
      "channel": 4,
      "note": 80,
      "start": 50.682,
      "duration": 0.0161,
      "velocity": 98,
      "chip": "ym2612"
    },
    {
      "channel": 3,
      "note": 83,
      "start": 50.6832,
      "duration": 0.0162,
      "velocity": 98,
      "chip": "ym2612"
    },
    {
      "channel": 2,
      "note": 52,
      "start": 50.685,
      "duration": 0.0159,
      "velocity": 93,
      "chip": "ym2612"
    },
    {
      "channel": 1,
      "note": 73,
      "start": 50.6863,
      "duration": 0.0162,
      "velocity": 108,
      "chip": "ym2612"
    },
    {
      "channel": 0,
      "note": 44,
      "start": 50.6957,
      "duration": 0.0179,
      "velocity": 124,
      "chip": "ym2612"
    },
    {
      "channel": 5,
      "note": 73,
      "start": 50.6968,
      "duration": 0.018,
      "velocity": 108,
      "chip": "ym2612"
    },
    {
      "channel": 2,
      "note": 52,
      "start": 50.7009,
      "duration": 0.0191,
      "velocity": 93,
      "chip": "ym2612"
    },
    {
      "channel": 0,
      "note": 84,
      "start": 50.7137,
      "duration": 0.0143,
      "velocity": 124,
      "chip": "ym2612"
    },
    {
      "channel": 5,
      "note": 73,
      "start": 50.7149,
      "duration": 0.0144,
      "velocity": 108,
      "chip": "ym2612"
    },
    {
      "channel": 4,
      "note": 80,
      "start": 50.7164,
      "duration": 0.014,
      "velocity": 98,
      "chip": "ym2612"
    },
    {
      "channel": 3,
      "note": 83,
      "start": 50.7185,
      "duration": 0.0132,
      "velocity": 98,
      "chip": "ym2612"
    },
    {
      "channel": 2,
      "note": 52,
      "start": 50.7201,
      "duration": 0.0129,
      "velocity": 93,
      "chip": "ym2612"
    },
    {
      "channel": 1,
      "note": 76,
      "start": 50.7215,
      "duration": 0.0128,
      "velocity": 108,
      "chip": "ym2612"
    },
    {
      "channel": 0,
      "note": 82,
      "start": 50.728,
      "duration": 0.016,
      "velocity": 124,
      "chip": "ym2612"
    },
    {
      "channel": 4,
      "note": 80,
      "start": 50.7304,
      "duration": 0.0162,
      "velocity": 98,
      "chip": "ym2612"
    },
    {
      "channel": 3,
      "note": 83,
      "start": 50.7317,
      "duration": 0.0161,
      "velocity": 98,
      "chip": "ym2612"
    },
    {
      "channel": 2,
      "note": 52,
      "start": 50.7329,
      "duration": 0.016,
      "velocity": 93,
      "chip": "ym2612"
    },
    {
      "channel": 1,
      "note": 76,
      "start": 50.7343,
      "duration": 0.0158,
      "velocity": 108,
      "chip": "ym2612"
    },
    {
      "channel": 0,
      "note": 80,
      "start": 50.744,
      "duration": 0.0161,
      "velocity": 124,
      "chip": "ym2612"
    },
    {
      "channel": 5,
      "note": 76,
      "start": 50.7455,
      "duration": 0.0159,
      "velocity": 108,
      "chip": "ym2612"
    },
    {
      "channel": 4,
      "note": 80,
      "start": 50.7466,
      "duration": 0.0159,
      "velocity": 98,
      "chip": "ym2612"
    },
    {
      "channel": 3,
      "note": 83,
      "start": 50.7478,
      "duration": 0.0159,
      "velocity": 98,
      "chip": "ym2612"
    },
    {
      "channel": 2,
      "note": 52,
      "start": 50.749,
      "duration": 0.0159,
      "velocity": 93,
      "chip": "ym2612"
    },
    {
      "channel": 1,
      "note": 76,
      "start": 50.7501,
      "duration": 0.0159,
      "velocity": 108,
      "chip": "ym2612"
    },
    {
      "channel": 0,
      "note": 77,
      "start": 50.7601,
      "duration": 0.0161,
      "velocity": 124,
      "chip": "ym2612"
    },
    {
      "channel": 5,
      "note": 76,
      "start": 50.7614,
      "duration": 0.016,
      "velocity": 108,
      "chip": "ym2612"
    },
    {
      "channel": 4,
      "note": 80,
      "start": 50.7625,
      "duration": 0.016,
      "velocity": 98,
      "chip": "ym2612"
    },
    {
      "channel": 3,
      "note": 83,
      "start": 50.7637,
      "duration": 0.016,
      "velocity": 98,
      "chip": "ym2612"
    },
    {
      "channel": 2,
      "note": 52,
      "start": 50.7649,
      "duration": 0.016,
      "velocity": 93,
      "chip": "ym2612"
    },
    {
      "channel": 1,
      "note": 76,
      "start": 50.766,
      "duration": 0.016,
      "velocity": 108,
      "chip": "ym2612"
    },
    {
      "channel": 0,
      "note": 75,
      "start": 50.7762,
      "duration": 0.0161,
      "velocity": 124,
      "chip": "ym2612"
    },
    {
      "channel": 5,
      "note": 76,
      "start": 50.7774,
      "duration": 0.0161,
      "velocity": 108,
      "chip": "ym2612"
    },
    {
      "channel": 4,
      "note": 80,
      "start": 50.7785,
      "duration": 0.0161,
      "velocity": 98,
      "chip": "ym2612"
    },
    {
      "channel": 3,
      "note": 83,
      "start": 50.7798,
      "duration": 0.0161,
      "velocity": 98,
      "chip": "ym2612"
    },
    {
      "channel": 2,
      "note": 52,
      "start": 50.7809,
      "duration": 0.0161,
      "velocity": 93,
      "chip": "ym2612"
    },
    {
      "channel": 1,
      "note": 76,
      "start": 50.782,
      "duration": 0.0161,
      "velocity": 108,
      "chip": "ym2612"
    },
    {
      "channel": 0,
      "note": 72,
      "start": 50.7923,
      "duration": 0.016,
      "velocity": 124,
      "chip": "ym2612"
    },
    {
      "channel": 5,
      "note": 76,
      "start": 50.7935,
      "duration": 0.0161,
      "velocity": 108,
      "chip": "ym2612"
    },
    {
      "channel": 4,
      "note": 80,
      "start": 50.7946,
      "duration": 0.0161,
      "velocity": 98,
      "chip": "ym2612"
    },
    {
      "channel": 3,
      "note": 83,
      "start": 50.7958,
      "duration": 0.0161,
      "velocity": 98,
      "chip": "ym2612"
    },
    {
      "channel": 2,
      "note": 52,
      "start": 50.797,
      "duration": 0.0161,
      "velocity": 93,
      "chip": "ym2612"
    },
    {
      "channel": 1,
      "note": 76,
      "start": 50.7981,
      "duration": 0.0162,
      "velocity": 108,
      "chip": "ym2612"
    },
    {
      "channel": 0,
      "note": 70,
      "start": 50.8084,
      "duration": 0.0162,
      "velocity": 124,
      "chip": "ym2612"
    },
    {
      "channel": 5,
      "note": 76,
      "start": 50.8096,
      "duration": 0.0161,
      "velocity": 108,
      "chip": "ym2612"
    },
    {
      "channel": 4,
      "note": 80,
      "start": 50.8107,
      "duration": 0.0161,
      "velocity": 98,
      "chip": "ym2612"
    },
    {
      "channel": 3,
      "note": 83,
      "start": 50.8119,
      "duration": 0.0161,
      "velocity": 98,
      "chip": "ym2612"
    },
    {
      "channel": 2,
      "note": 52,
      "start": 50.8131,
      "duration": 0.0161,
      "velocity": 93,
      "chip": "ym2612"
    },
    {
      "channel": 1,
      "note": 76,
      "start": 50.8143,
      "duration": 0.0161,
      "velocity": 108,
      "chip": "ym2612"
    },
    {
      "channel": 0,
      "note": 68,
      "start": 50.8245,
      "duration": 0.0161,
      "velocity": 124,
      "chip": "ym2612"
    },
    {
      "channel": 5,
      "note": 76,
      "start": 50.8257,
      "duration": 0.0161,
      "velocity": 108,
      "chip": "ym2612"
    },
    {
      "channel": 4,
      "note": 80,
      "start": 50.8269,
      "duration": 0.0161,
      "velocity": 98,
      "chip": "ym2612"
    },
    {
      "channel": 3,
      "note": 83,
      "start": 50.828,
      "duration": 0.0161,
      "velocity": 98,
      "chip": "ym2612"
    },
    {
      "channel": 2,
      "note": 52,
      "start": 50.8292,
      "duration": 0.0161,
      "velocity": 93,
      "chip": "ym2612"
    },
    {
      "channel": 1,
      "note": 76,
      "start": 50.8304,
      "duration": 0.0161,
      "velocity": 108,
      "chip": "ym2612"
    },
    {
      "channel": 0,
      "note": 65,
      "start": 50.8406,
      "duration": 0.0161,
      "velocity": 124,
      "chip": "ym2612"
    },
    {
      "channel": 5,
      "note": 76,
      "start": 50.8418,
      "duration": 0.0161,
      "velocity": 108,
      "chip": "ym2612"
    },
    {
      "channel": 4,
      "note": 80,
      "start": 50.843,
      "duration": 0.0162,
      "velocity": 98,
      "chip": "ym2612"
    },
    {
      "channel": 3,
      "note": 83,
      "start": 50.8441,
      "duration": 0.0163,
      "velocity": 98,
      "chip": "ym2612"
    },
    {
      "channel": 2,
      "note": 52,
      "start": 50.8453,
      "duration": 0.0163,
      "velocity": 93,
      "chip": "ym2612"
    },
    {
      "channel": 1,
      "note": 76,
      "start": 50.8465,
      "duration": 0.0164,
      "velocity": 108,
      "chip": "ym2612"
    },
    {
      "channel": 0,
      "note": 63,
      "start": 50.8567,
      "duration": 0.0153,
      "velocity": 1,
      "chip": "ym2612"
    },
    {
      "channel": 5,
      "note": 76,
      "start": 50.8579,
      "duration": 0.0153,
      "velocity": 108,
      "chip": "ym2612"
    },
    {
      "channel": 4,
      "note": 80,
      "start": 50.8591,
      "duration": 0.0153,
      "velocity": 98,
      "chip": "ym2612"
    },
    {
      "channel": 3,
      "note": 83,
      "start": 50.8604,
      "duration": 0.0152,
      "velocity": 98,
      "chip": "ym2612"
    },
    {
      "channel": 2,
      "note": 52,
      "start": 50.8616,
      "duration": 0.0152,
      "velocity": 93,
      "chip": "ym2612"
    },
    {
      "channel": 1,
      "note": 76,
      "start": 50.8629,
      "duration": 0.0151,
      "velocity": 108,
      "chip": "ym2612"
    },
    {
      "channel": 5,
      "note": 76,
      "start": 50.8731,
      "duration": 0.0153,
      "velocity": 108,
      "chip": "ym2612"
    },
    {
      "channel": 4,
      "note": 80,
      "start": 50.8744,
      "duration": 0.0153,
      "velocity": 98,
      "chip": "ym2612"
    },
    {
      "channel": 3,
      "note": 83,
      "start": 50.8756,
      "duration": 0.0154,
      "velocity": 98,
      "chip": "ym2612"
    },
    {
      "channel": 2,
      "note": 52,
      "start": 50.8768,
      "duration": 0.0154,
      "velocity": 93,
      "chip": "ym2612"
    },
    {
      "channel": 1,
      "note": 76,
      "start": 50.878,
      "duration": 0.0154,
      "velocity": 108,
      "chip": "ym2612"
    },
    {
      "channel": 5,
      "note": 76,
      "start": 50.8885,
      "duration": 0.0161,
      "velocity": 108,
      "chip": "ym2612"
    },
    {
      "channel": 4,
      "note": 80,
      "start": 50.8897,
      "duration": 0.016,
      "velocity": 98,
      "chip": "ym2612"
    },
    {
      "channel": 3,
      "note": 83,
      "start": 50.891,
      "duration": 0.0159,
      "velocity": 98,
      "chip": "ym2612"
    },
    {
      "channel": 2,
      "note": 52,
      "start": 50.8922,
      "duration": 0.0159,
      "velocity": 93,
      "chip": "ym2612"
    },
    {
      "channel": 1,
      "note": 76,
      "start": 50.8934,
      "duration": 0.0158,
      "velocity": 108,
      "chip": "ym2612"
    },
    {
      "channel": 5,
      "note": 76,
      "start": 50.9046,
      "duration": 0.0161,
      "velocity": 108,
      "chip": "ym2612"
    },
    {
      "channel": 4,
      "note": 80,
      "start": 50.9058,
      "duration": 0.0161,
      "velocity": 98,
      "chip": "ym2612"
    },
    {
      "channel": 3,
      "note": 83,
      "start": 50.9069,
      "duration": 0.0161,
      "velocity": 98,
      "chip": "ym2612"
    },
    {
      "channel": 2,
      "note": 52,
      "start": 50.9081,
      "duration": 0.0161,
      "velocity": 93,
      "chip": "ym2612"
    },
    {
      "channel": 1,
      "note": 76,
      "start": 50.9093,
      "duration": 0.0161,
      "velocity": 108,
      "chip": "ym2612"
    },
    {
      "channel": 5,
      "note": 76,
      "start": 50.9206,
      "duration": 0.0161,
      "velocity": 108,
      "chip": "ym2612"
    },
    {
      "channel": 4,
      "note": 80,
      "start": 50.9219,
      "duration": 0.0161,
      "velocity": 98,
      "chip": "ym2612"
    },
    {
      "channel": 3,
      "note": 83,
      "start": 50.923,
      "duration": 0.0161,
      "velocity": 98,
      "chip": "ym2612"
    },
    {
      "channel": 2,
      "note": 52,
      "start": 50.9242,
      "duration": 0.0161,
      "velocity": 93,
      "chip": "ym2612"
    },
    {
      "channel": 1,
      "note": 76,
      "start": 50.9254,
      "duration": 0.0161,
      "velocity": 108,
      "chip": "ym2612"
    },
    {
      "channel": 5,
      "note": 76,
      "start": 50.9367,
      "duration": 0.0161,
      "velocity": 108,
      "chip": "ym2612"
    },
    {
      "channel": 4,
      "note": 80,
      "start": 50.938,
      "duration": 0.0161,
      "velocity": 98,
      "chip": "ym2612"
    },
    {
      "channel": 3,
      "note": 83,
      "start": 50.9391,
      "duration": 0.0162,
      "velocity": 98,
      "chip": "ym2612"
    },
    {
      "channel": 2,
      "note": 52,
      "start": 50.9403,
      "duration": 0.0161,
      "velocity": 93,
      "chip": "ym2612"
    },
    {
      "channel": 1,
      "note": 76,
      "start": 50.9415,
      "duration": 0.0161,
      "velocity": 108,
      "chip": "ym2612"
    },
    {
      "channel": 5,
      "note": 76,
      "start": 50.9528,
      "duration": 0.0165,
      "velocity": 108,
      "chip": "ym2612"
    },
    {
      "channel": 4,
      "note": 80,
      "start": 50.954,
      "duration": 0.0166,
      "velocity": 98,
      "chip": "ym2612"
    },
    {
      "channel": 3,
      "note": 83,
      "start": 50.9553,
      "duration": 0.0165,
      "velocity": 98,
      "chip": "ym2612"
    },
    {
      "channel": 2,
      "note": 52,
      "start": 50.9564,
      "duration": 0.0167,
      "velocity": 93,
      "chip": "ym2612"
    },
    {
      "channel": 1,
      "note": 76,
      "start": 50.9576,
      "duration": 0.0167,
      "velocity": 108,
      "chip": "ym2612"
    },
    {
      "channel": 5,
      "note": 76,
      "start": 50.9693,
      "duration": 0.0163,
      "velocity": 108,
      "chip": "ym2612"
    },
    {
      "channel": 4,
      "note": 80,
      "start": 50.9706,
      "duration": 0.0163,
      "velocity": 98,
      "chip": "ym2612"
    },
    {
      "channel": 3,
      "note": 83,
      "start": 50.9718,
      "duration": 0.0163,
      "velocity": 98,
      "chip": "ym2612"
    },
    {
      "channel": 2,
      "note": 52,
      "start": 50.9731,
      "duration": 0.0163,
      "velocity": 93,
      "chip": "ym2612"
    },
    {
      "channel": 1,
      "note": 76,
      "start": 50.9743,
      "duration": 0.0164,
      "velocity": 108,
      "chip": "ym2612"
    },
    {
      "channel": 5,
      "note": 76,
      "start": 50.9856,
      "duration": 0.0197,
      "velocity": 108,
      "chip": "ym2612"
    },
    {
      "channel": 2,
      "note": 52,
      "start": 50.9894,
      "duration": 0.0208,
      "velocity": 93,
      "chip": "ym2612"
    },
    {
      "channel": 0,
      "note": 36,
      "start": 51.004,
      "duration": 0.0143,
      "velocity": 115,
      "chip": "ym2612"
    },
    {
      "channel": 5,
      "note": 76,
      "start": 51.0053,
      "duration": 0.0143,
      "velocity": 108,
      "chip": "ym2612"
    },
    {
      "channel": 4,
      "note": 80,
      "start": 51.007,
      "duration": 0.0138,
      "velocity": 98,
      "chip": "ym2612"
    },
    {
      "channel": 3,
      "note": 83,
      "start": 51.0088,
      "duration": 0.0134,
      "velocity": 98,
      "chip": "ym2612"
    },
    {
      "channel": 2,
      "note": 56,
      "start": 51.0103,
      "duration": 0.013,
      "velocity": 93,
      "chip": "ym2612"
    },
    {
      "channel": 1,
      "note": 75,
      "start": 51.0117,
      "duration": 0.0128,
      "velocity": 108,
      "chip": "ym2612"
    },
    {
      "channel": 0,
      "note": 36,
      "start": 51.0183,
      "duration": 0.0157,
      "velocity": 115,
      "chip": "ym2612"
    },
    {
      "channel": 4,
      "note": 80,
      "start": 51.0208,
      "duration": 0.0162,
      "velocity": 98,
      "chip": "ym2612"
    },
    {
      "channel": 3,
      "note": 83,
      "start": 51.0221,
      "duration": 0.0161,
      "velocity": 98,
      "chip": "ym2612"
    },
    {
      "channel": 2,
      "note": 56,
      "start": 51.0233,
      "duration": 0.016,
      "velocity": 93,
      "chip": "ym2612"
    },
    {
      "channel": 1,
      "note": 75,
      "start": 51.0245,
      "duration": 0.016,
      "velocity": 108,
      "chip": "ym2612"
    },
    {
      "channel": 0,
      "note": 37,
      "start": 51.034,
      "duration": 0.0159,
      "velocity": 115,
      "chip": "ym2612"
    },
    {
      "channel": 5,
      "note": 75,
      "start": 51.0359,
      "duration": 0.0158,
      "velocity": 108,
      "chip": "ym2612"
    },
    {
      "channel": 4,
      "note": 80,
      "start": 51.0371,
      "duration": 0.0159,
      "velocity": 98,
      "chip": "ym2612"
    },
    {
      "channel": 3,
      "note": 83,
      "start": 51.0382,
      "duration": 0.0159,
      "velocity": 98,
      "chip": "ym2612"
    },
    {
      "channel": 2,
      "note": 56,
      "start": 51.0393,
      "duration": 0.0159,
      "velocity": 93,
      "chip": "ym2612"
    },
    {
      "channel": 1,
      "note": 75,
      "start": 51.0406,
      "duration": 0.0158,
      "velocity": 108,
      "chip": "ym2612"
    },
    {
      "channel": 0,
      "note": 37,
      "start": 51.0499,
      "duration": 0.0161,
      "velocity": 115,
      "chip": "ym2612"
    },
    {
      "channel": 5,
      "note": 75,
      "start": 51.0517,
      "duration": 0.0157,
      "velocity": 108,
      "chip": "ym2612"
    },
    {
      "channel": 4,
      "note": 80,
      "start": 51.0529,
      "duration": 0.016,
      "velocity": 98,
      "chip": "ym2612"
    },
    {
      "channel": 3,
      "note": 83,
      "start": 51.0541,
      "duration": 0.016,
      "velocity": 98,
      "chip": "ym2612"
    },
    {
      "channel": 2,
      "note": 56,
      "start": 51.0553,
      "duration": 0.016,
      "velocity": 93,
      "chip": "ym2612"
    },
    {
      "channel": 1,
      "note": 75,
      "start": 51.0564,
      "duration": 0.016,
      "velocity": 108,
      "chip": "ym2612"
    },
    {
      "channel": 0,
      "note": 38,
      "start": 51.066,
      "duration": 0.0161,
      "velocity": 115,
      "chip": "ym2612"
    },
    {
      "channel": 5,
      "note": 75,
      "start": 51.0674,
      "duration": 0.0159,
      "velocity": 108,
      "chip": "ym2612"
    },
    {
      "channel": 4,
      "note": 80,
      "start": 51.0689,
      "duration": 0.0161,
      "velocity": 98,
      "chip": "ym2612"
    },
    {
      "channel": 3,
      "note": 83,
      "start": 51.0701,
      "duration": 0.0161,
      "velocity": 98,
      "chip": "ym2612"
    },
    {
      "channel": 2,
      "note": 56,
      "start": 51.0713,
      "duration": 0.0161,
      "velocity": 93,
      "chip": "ym2612"
    },
    {
      "channel": 1,
      "note": 75,
      "start": 51.0724,
      "duration": 0.0162,
      "velocity": 108,
      "chip": "ym2612"
    },
    {
      "channel": 0,
      "note": 38,
      "start": 51.0821,
      "duration": 0.0161,
      "velocity": 115,
      "chip": "ym2612"
    },
    {
      "channel": 5,
      "note": 75,
      "start": 51.0833,
      "duration": 0.0161,
      "velocity": 108,
      "chip": "ym2612"
    },
    {
      "channel": 4,
      "note": 80,
      "start": 51.085,
      "duration": 0.0158,
      "velocity": 98,
      "chip": "ym2612"
    },
    {
      "channel": 3,
      "note": 83,
      "start": 51.0862,
      "duration": 0.0161,
      "velocity": 98,
      "chip": "ym2612"
    },
    {
      "channel": 2,
      "note": 56,
      "start": 51.0874,
      "duration": 0.0162,
      "velocity": 93,
      "chip": "ym2612"
    },
    {
      "channel": 1,
      "note": 75,
      "start": 51.0886,
      "duration": 0.0161,
      "velocity": 108,
      "chip": "ym2612"
    },
    {
      "channel": 0,
      "note": 39,
      "start": 51.0982,
      "duration": 0.0161,
      "velocity": 115,
      "chip": "ym2612"
    },
    {
      "channel": 5,
      "note": 75,
      "start": 51.0994,
      "duration": 0.0161,
      "velocity": 108,
      "chip": "ym2612"
    },
    {
      "channel": 4,
      "note": 80,
      "start": 51.1008,
      "duration": 0.0159,
      "velocity": 98,
      "chip": "ym2612"
    },
    {
      "channel": 3,
      "note": 83,
      "start": 51.1024,
      "duration": 0.016,
      "velocity": 98,
      "chip": "ym2612"
    },
    {
      "channel": 2,
      "note": 56,
      "start": 51.1035,
      "duration": 0.0161,
      "velocity": 93,
      "chip": "ym2612"
    },
    {
      "channel": 1,
      "note": 75,
      "start": 51.1047,
      "duration": 0.0161,
      "velocity": 108,
      "chip": "ym2612"
    },
    {
      "channel": 0,
      "note": 39,
      "start": 51.1143,
      "duration": 0.0161,
      "velocity": 115,
      "chip": "ym2612"
    },
    {
      "channel": 5,
      "note": 75,
      "start": 51.1155,
      "duration": 0.0161,
      "velocity": 108,
      "chip": "ym2612"
    },
    {
      "channel": 4,
      "note": 80,
      "start": 51.1166,
      "duration": 0.0161,
      "velocity": 98,
      "chip": "ym2612"
    },
    {
      "channel": 3,
      "note": 83,
      "start": 51.1184,
      "duration": 0.0158,
      "velocity": 98,
      "chip": "ym2612"
    },
    {
      "channel": 2,
      "note": 56,
      "start": 51.1196,
      "duration": 0.0161,
      "velocity": 93,
      "chip": "ym2612"
    },
    {
      "channel": 1,
      "note": 75,
      "start": 51.1208,
      "duration": 0.0161,
      "velocity": 108,
      "chip": "ym2612"
    },
    {
      "channel": 0,
      "note": 40,
      "start": 51.1304,
      "duration": 0.0161,
      "velocity": 115,
      "chip": "ym2612"
    },
    {
      "channel": 5,
      "note": 75,
      "start": 51.1316,
      "duration": 0.0161,
      "velocity": 108,
      "chip": "ym2612"
    },
    {
      "channel": 4,
      "note": 80,
      "start": 51.1328,
      "duration": 0.0162,
      "velocity": 98,
      "chip": "ym2612"
    },
    {
      "channel": 3,
      "note": 83,
      "start": 51.1342,
      "duration": 0.016,
      "velocity": 98,
      "chip": "ym2612"
    },
    {
      "channel": 2,
      "note": 56,
      "start": 51.1357,
      "duration": 0.0163,
      "velocity": 93,
      "chip": "ym2612"
    },
    {
      "channel": 1,
      "note": 75,
      "start": 51.1369,
      "duration": 0.0164,
      "velocity": 108,
      "chip": "ym2612"
    },
    {
      "channel": 0,
      "note": 40,
      "start": 51.1465,
      "duration": 0.0161,
      "velocity": 115,
      "chip": "ym2612"
    },
    {
      "channel": 5,
      "note": 75,
      "start": 51.1477,
      "duration": 0.0161,
      "velocity": 108,
      "chip": "ym2612"
    },
    {
      "channel": 4,
      "note": 80,
      "start": 51.149,
      "duration": 0.0161,
      "velocity": 98,
      "chip": "ym2612"
    },
    {
      "channel": 3,
      "note": 83,
      "start": 51.1502,
      "duration": 0.016,
      "velocity": 98,
      "chip": "ym2612"
    },
    {
      "channel": 2,
      "note": 56,
      "start": 51.152,
      "duration": 0.0157,
      "velocity": 93,
      "chip": "ym2612"
    },
    {
      "channel": 1,
      "note": 75,
      "start": 51.1533,
      "duration": 0.016,
      "velocity": 108,
      "chip": "ym2612"
    },
    {
      "channel": 0,
      "note": 40,
      "start": 51.1626,
      "duration": 0.0161,
      "velocity": 115,
      "chip": "ym2612"
    },
    {
      "channel": 5,
      "note": 75,
      "start": 51.1638,
      "duration": 0.0162,
      "velocity": 108,
      "chip": "ym2612"
    },
    {
      "channel": 4,
      "note": 80,
      "start": 51.1651,
      "duration": 0.0161,
      "velocity": 98,
      "chip": "ym2612"
    },
    {
      "channel": 3,
      "note": 83,
      "start": 51.1663,
      "duration": 0.0162,
      "velocity": 98,
      "chip": "ym2612"
    },
    {
      "channel": 2,
      "note": 56,
      "start": 51.1677,
      "duration": 0.016,
      "velocity": 93,
      "chip": "ym2612"
    },
    {
      "channel": 1,
      "note": 75,
      "start": 51.1693,
      "duration": 0.0161,
      "velocity": 108,
      "chip": "ym2612"
    },
    {
      "channel": 0,
      "note": 41,
      "start": 51.1787,
      "duration": 0.0161,
      "velocity": 115,
      "chip": "ym2612"
    },
    {
      "channel": 5,
      "note": 75,
      "start": 51.1799,
      "duration": 0.0161,
      "velocity": 108,
      "chip": "ym2612"
    },
    {
      "channel": 4,
      "note": 80,
      "start": 51.1812,
      "duration": 0.016,
      "velocity": 98,
      "chip": "ym2612"
    },
    {
      "channel": 3,
      "note": 83,
      "start": 51.1825,
      "duration": 0.0159,
      "velocity": 98,
      "chip": "ym2612"
    },
    {
      "channel": 2,
      "note": 56,
      "start": 51.1837,
      "duration": 0.0159,
      "velocity": 93,
      "chip": "ym2612"
    },
    {
      "channel": 1,
      "note": 75,
      "start": 51.1855,
      "duration": 0.0155,
      "velocity": 108,
      "chip": "ym2612"
    },
    {
      "channel": 0,
      "note": 41,
      "start": 51.1948,
      "duration": 0.0161,
      "velocity": 115,
      "chip": "ym2612"
    },
    {
      "channel": 5,
      "note": 75,
      "start": 51.196,
      "duration": 0.0161,
      "velocity": 108,
      "chip": "ym2612"
    },
    {
      "channel": 4,
      "note": 80,
      "start": 51.1972,
      "duration": 0.0162,
      "velocity": 98,
      "chip": "ym2612"
    },
    {
      "channel": 3,
      "note": 83,
      "start": 51.1984,
      "duration": 0.0161,
      "velocity": 98,
      "chip": "ym2612"
    },
    {
      "channel": 2,
      "note": 56,
      "start": 51.1996,
      "duration": 0.0161,
      "velocity": 93,
      "chip": "ym2612"
    },
    {
      "channel": 1,
      "note": 75,
      "start": 51.2009,
      "duration": 0.016,
      "velocity": 108,
      "chip": "ym2612"
    },
    {
      "channel": 0,
      "note": 42,
      "start": 51.2109,
      "duration": 0.0161,
      "velocity": 115,
      "chip": "ym2612"
    },
    {
      "channel": 5,
      "note": 75,
      "start": 51.2122,
      "duration": 0.016,
      "velocity": 108,
      "chip": "ym2612"
    },
    {
      "channel": 4,
      "note": 80,
      "start": 51.2134,
      "duration": 0.016,
      "velocity": 98,
      "chip": "ym2612"
    },
    {
      "channel": 3,
      "note": 83,
      "start": 51.2145,
      "duration": 0.016,
      "velocity": 98,
      "chip": "ym2612"
    },
    {
      "channel": 2,
      "note": 56,
      "start": 51.2157,
      "duration": 0.016,
      "velocity": 93,
      "chip": "ym2612"
    },
    {
      "channel": 1,
      "note": 75,
      "start": 51.2169,
      "duration": 0.016,
      "velocity": 108,
      "chip": "ym2612"
    },
    {
      "channel": 0,
      "note": 42,
      "start": 51.227,
      "duration": 0.0161,
      "velocity": 115,
      "chip": "ym2612"
    },
    {
      "channel": 5,
      "note": 75,
      "start": 51.2282,
      "duration": 0.0161,
      "velocity": 108,
      "chip": "ym2612"
    },
    {
      "channel": 4,
      "note": 80,
      "start": 51.2294,
      "duration": 0.0161,
      "velocity": 98,
      "chip": "ym2612"
    },
    {
      "channel": 3,
      "note": 83,
      "start": 51.2306,
      "duration": 0.0161,
      "velocity": 98,
      "chip": "ym2612"
    },
    {
      "channel": 2,
      "note": 56,
      "start": 51.2318,
      "duration": 0.0161,
      "velocity": 93,
      "chip": "ym2612"
    },
    {
      "channel": 1,
      "note": 75,
      "start": 51.2329,
      "duration": 0.0161,
      "velocity": 108,
      "chip": "ym2612"
    },
    {
      "channel": 0,
      "note": 43,
      "start": 51.2431,
      "duration": 0.0161,
      "velocity": 115,
      "chip": "ym2612"
    },
    {
      "channel": 5,
      "note": 75,
      "start": 51.2443,
      "duration": 0.0161,
      "velocity": 108,
      "chip": "ym2612"
    },
    {
      "channel": 4,
      "note": 80,
      "start": 51.2455,
      "duration": 0.0162,
      "velocity": 98,
      "chip": "ym2612"
    },
    {
      "channel": 3,
      "note": 83,
      "start": 51.2467,
      "duration": 0.0162,
      "velocity": 98,
      "chip": "ym2612"
    },
    {
      "channel": 2,
      "note": 56,
      "start": 51.2479,
      "duration": 0.0163,
      "velocity": 93,
      "chip": "ym2612"
    },
    {
      "channel": 1,
      "note": 75,
      "start": 51.249,
      "duration": 0.0163,
      "velocity": 108,
      "chip": "ym2612"
    },
    {
      "channel": 0,
      "note": 43,
      "start": 51.2592,
      "duration": 0.0162,
      "velocity": 115,
      "chip": "ym2612"
    },
    {
      "channel": 5,
      "note": 75,
      "start": 51.2604,
      "duration": 0.0161,
      "velocity": 108,
      "chip": "ym2612"
    },
    {
      "channel": 4,
      "note": 80,
      "start": 51.2617,
      "duration": 0.0161,
      "velocity": 98,
      "chip": "ym2612"
    },
    {
      "channel": 3,
      "note": 83,
      "start": 51.2629,
      "duration": 0.0162,
      "velocity": 98,
      "chip": "ym2612"
    },
    {
      "channel": 2,
      "note": 56,
      "start": 51.2641,
      "duration": 0.0162,
      "velocity": 93,
      "chip": "ym2612"
    },
    {
      "channel": 1,
      "note": 75,
      "start": 51.2654,
      "duration": 0.0162,
      "velocity": 108,
      "chip": "ym2612"
    },
    {
      "channel": 0,
      "note": 44,
      "start": 51.2754,
      "duration": 0.0179,
      "velocity": 124,
      "chip": "ym2612"
    },
    {
      "channel": 5,
      "note": 75,
      "start": 51.2765,
      "duration": 0.018,
      "velocity": 108,
      "chip": "ym2612"
    },
    {
      "channel": 2,
      "note": 56,
      "start": 51.2803,
      "duration": 0.0186,
      "velocity": 93,
      "chip": "ym2612"
    },
    {
      "channel": 0,
      "note": 84,
      "start": 51.2933,
      "duration": 0.0143,
      "velocity": 124,
      "chip": "ym2612"
    },
    {
      "channel": 5,
      "note": 75,
      "start": 51.2945,
      "duration": 0.0144,
      "velocity": 108,
      "chip": "ym2612"
    },
    {
      "channel": 4,
      "note": 80,
      "start": 51.296,
      "duration": 0.0141,
      "velocity": 98,
      "chip": "ym2612"
    },
    {
      "channel": 3,
      "note": 83,
      "start": 51.2974,
      "duration": 0.0139,
      "velocity": 98,
      "chip": "ym2612"
    },
    {
      "channel": 2,
      "note": 56,
      "start": 51.299,
      "duration": 0.0136,
      "velocity": 93,
      "chip": "ym2612"
    },
    {
      "channel": 1,
      "note": 75,
      "start": 51.3004,
      "duration": 0.0134,
      "velocity": 108,
      "chip": "ym2612"
    },
    {
      "channel": 0,
      "note": 82,
      "start": 51.3076,
      "duration": 0.016,
      "velocity": 124,
      "chip": "ym2612"
    },
    {
      "channel": 4,
      "note": 80,
      "start": 51.3101,
      "duration": 0.0161,
      "velocity": 98,
      "chip": "ym2612"
    },
    {
      "channel": 3,
      "note": 83,
      "start": 51.3114,
      "duration": 0.0161,
      "velocity": 98,
      "chip": "ym2612"
    },
    {
      "channel": 2,
      "note": 56,
      "start": 51.3126,
      "duration": 0.016,
      "velocity": 93,
      "chip": "ym2612"
    },
    {
      "channel": 1,
      "note": 75,
      "start": 51.3138,
      "duration": 0.016,
      "velocity": 108,
      "chip": "ym2612"
    },
    {
      "channel": 0,
      "note": 80,
      "start": 51.3236,
      "duration": 0.0161,
      "velocity": 124,
      "chip": "ym2612"
    },
    {
      "channel": 5,
      "note": 75,
      "start": 51.3251,
      "duration": 0.0159,
      "velocity": 108,
      "chip": "ym2612"
    },
    {
      "channel": 4,
      "note": 80,
      "start": 51.3262,
      "duration": 0.0159,
      "velocity": 98,
      "chip": "ym2612"
    },
    {
      "channel": 3,
      "note": 83,
      "start": 51.3275,
      "duration": 0.0159,
      "velocity": 98,
      "chip": "ym2612"
    },
    {
      "channel": 2,
      "note": 56,
      "start": 51.3286,
      "duration": 0.0159,
      "velocity": 93,
      "chip": "ym2612"
    },
    {
      "channel": 1,
      "note": 75,
      "start": 51.3298,
      "duration": 0.0159,
      "velocity": 108,
      "chip": "ym2612"
    },
    {
      "channel": 0,
      "note": 77,
      "start": 51.3397,
      "duration": 0.0161,
      "velocity": 124,
      "chip": "ym2612"
    },
    {
      "channel": 5,
      "note": 75,
      "start": 51.341,
      "duration": 0.016,
      "velocity": 108,
      "chip": "ym2612"
    },
    {
      "channel": 4,
      "note": 80,
      "start": 51.3422,
      "duration": 0.016,
      "velocity": 98,
      "chip": "ym2612"
    },
    {
      "channel": 3,
      "note": 83,
      "start": 51.3434,
      "duration": 0.016,
      "velocity": 98,
      "chip": "ym2612"
    },
    {
      "channel": 2,
      "note": 56,
      "start": 51.3445,
      "duration": 0.016,
      "velocity": 93,
      "chip": "ym2612"
    },
    {
      "channel": 1,
      "note": 75,
      "start": 51.3456,
      "duration": 0.016,
      "velocity": 108,
      "chip": "ym2612"
    },
    {
      "channel": 0,
      "note": 75,
      "start": 51.3558,
      "duration": 0.0161,
      "velocity": 124,
      "chip": "ym2612"
    },
    {
      "channel": 5,
      "note": 75,
      "start": 51.357,
      "duration": 0.0161,
      "velocity": 108,
      "chip": "ym2612"
    },
    {
      "channel": 4,
      "note": 80,
      "start": 51.3582,
      "duration": 0.0161,
      "velocity": 98,
      "chip": "ym2612"
    },
    {
      "channel": 3,
      "note": 83,
      "start": 51.3594,
      "duration": 0.0161,
      "velocity": 98,
      "chip": "ym2612"
    },
    {
      "channel": 2,
      "note": 56,
      "start": 51.3605,
      "duration": 0.0161,
      "velocity": 93,
      "chip": "ym2612"
    },
    {
      "channel": 1,
      "note": 75,
      "start": 51.3617,
      "duration": 0.0161,
      "velocity": 108,
      "chip": "ym2612"
    },
    {
      "channel": 0,
      "note": 72,
      "start": 51.3719,
      "duration": 0.0161,
      "velocity": 124,
      "chip": "ym2612"
    },
    {
      "channel": 5,
      "note": 75,
      "start": 51.3731,
      "duration": 0.0161,
      "velocity": 108,
      "chip": "ym2612"
    },
    {
      "channel": 4,
      "note": 80,
      "start": 51.3743,
      "duration": 0.0161,
      "velocity": 98,
      "chip": "ym2612"
    },
    {
      "channel": 3,
      "note": 83,
      "start": 51.3755,
      "duration": 0.0161,
      "velocity": 98,
      "chip": "ym2612"
    },
    {
      "channel": 2,
      "note": 56,
      "start": 51.3766,
      "duration": 0.0161,
      "velocity": 93,
      "chip": "ym2612"
    },
    {
      "channel": 1,
      "note": 75,
      "start": 51.3778,
      "duration": 0.0161,
      "velocity": 108,
      "chip": "ym2612"
    },
    {
      "channel": 0,
      "note": 70,
      "start": 51.388,
      "duration": 0.0161,
      "velocity": 124,
      "chip": "ym2612"
    },
    {
      "channel": 5,
      "note": 75,
      "start": 51.3892,
      "duration": 0.0161,
      "velocity": 108,
      "chip": "ym2612"
    },
    {
      "channel": 4,
      "note": 80,
      "start": 51.3904,
      "duration": 0.0161,
      "velocity": 98,
      "chip": "ym2612"
    },
    {
      "channel": 3,
      "note": 83,
      "start": 51.3916,
      "duration": 0.0161,
      "velocity": 98,
      "chip": "ym2612"
    },
    {
      "channel": 2,
      "note": 56,
      "start": 51.3927,
      "duration": 0.0161,
      "velocity": 93,
      "chip": "ym2612"
    },
    {
      "channel": 1,
      "note": 75,
      "start": 51.3939,
      "duration": 0.0161,
      "velocity": 108,
      "chip": "ym2612"
    },
    {
      "channel": 0,
      "note": 68,
      "start": 51.4041,
      "duration": 0.0162,
      "velocity": 124,
      "chip": "ym2612"
    },
    {
      "channel": 5,
      "note": 75,
      "start": 51.4053,
      "duration": 0.0162,
      "velocity": 108,
      "chip": "ym2612"
    },
    {
      "channel": 4,
      "note": 80,
      "start": 51.4065,
      "duration": 0.0161,
      "velocity": 98,
      "chip": "ym2612"
    },
    {
      "channel": 3,
      "note": 83,
      "start": 51.4077,
      "duration": 0.0162,
      "velocity": 98,
      "chip": "ym2612"
    },
    {
      "channel": 2,
      "note": 56,
      "start": 51.4088,
      "duration": 0.0161,
      "velocity": 93,
      "chip": "ym2612"
    },
    {
      "channel": 1,
      "note": 75,
      "start": 51.41,
      "duration": 0.0162,
      "velocity": 108,
      "chip": "ym2612"
    },
    {
      "channel": 0,
      "note": 65,
      "start": 51.4203,
      "duration": 0.0165,
      "velocity": 124,
      "chip": "ym2612"
    },
    {
      "channel": 5,
      "note": 75,
      "start": 51.4215,
      "duration": 0.0164,
      "velocity": 108,
      "chip": "ym2612"
    },
    {
      "channel": 4,
      "note": 80,
      "start": 51.4226,
      "duration": 0.0166,
      "velocity": 98,
      "chip": "ym2612"
    },
    {
      "channel": 3,
      "note": 83,
      "start": 51.4238,
      "duration": 0.0166,
      "velocity": 98,
      "chip": "ym2612"
    },
    {
      "channel": 2,
      "note": 56,
      "start": 51.425,
      "duration": 0.0167,
      "velocity": 93,
      "chip": "ym2612"
    },
    {
      "channel": 1,
      "note": 75,
      "start": 51.4262,
      "duration": 0.0167,
      "velocity": 108,
      "chip": "ym2612"
    },
    {
      "channel": 0,
      "note": 63,
      "start": 51.4367,
      "duration": 0.0155,
      "velocity": 1,
      "chip": "ym2612"
    },
    {
      "channel": 5,
      "note": 75,
      "start": 51.4379,
      "duration": 0.0155,
      "velocity": 108,
      "chip": "ym2612"
    },
    {
      "channel": 4,
      "note": 80,
      "start": 51.4392,
      "duration": 0.0155,
      "velocity": 98,
      "chip": "ym2612"
    },
    {
      "channel": 3,
      "note": 83,
      "start": 51.4404,
      "duration": 0.0155,
      "velocity": 98,
      "chip": "ym2612"
    },
    {
      "channel": 2,
      "note": 56,
      "start": 51.4416,
      "duration": 0.0155,
      "velocity": 93,
      "chip": "ym2612"
    },
    {
      "channel": 1,
      "note": 75,
      "start": 51.4429,
      "duration": 0.0154,
      "velocity": 108,
      "chip": "ym2612"
    },
    {
      "channel": 5,
      "note": 75,
      "start": 51.4534,
      "duration": 0.0153,
      "velocity": 108,
      "chip": "ym2612"
    },
    {
      "channel": 4,
      "note": 80,
      "start": 51.4546,
      "duration": 0.0153,
      "velocity": 98,
      "chip": "ym2612"
    },
    {
      "channel": 3,
      "note": 83,
      "start": 51.4559,
      "duration": 0.0153,
      "velocity": 98,
      "chip": "ym2612"
    },
    {
      "channel": 2,
      "note": 56,
      "start": 51.4571,
      "duration": 0.0153,
      "velocity": 93,
      "chip": "ym2612"
    },
    {
      "channel": 1,
      "note": 75,
      "start": 51.4583,
      "duration": 0.0154,
      "velocity": 108,
      "chip": "ym2612"
    },
    {
      "channel": 5,
      "note": 75,
      "start": 51.4687,
      "duration": 0.0157,
      "velocity": 108,
      "chip": "ym2612"
    },
    {
      "channel": 4,
      "note": 80,
      "start": 51.47,
      "duration": 0.016,
      "velocity": 98,
      "chip": "ym2612"
    },
    {
      "channel": 3,
      "note": 83,
      "start": 51.4712,
      "duration": 0.016,
      "velocity": 98,
      "chip": "ym2612"
    },
    {
      "channel": 2,
      "note": 56,
      "start": 51.4724,
      "duration": 0.0159,
      "velocity": 93,
      "chip": "ym2612"
    },
    {
      "channel": 1,
      "note": 75,
      "start": 51.4737,
      "duration": 0.0158,
      "velocity": 108,
      "chip": "ym2612"
    },
    {
      "channel": 5,
      "note": 75,
      "start": 51.4844,
      "duration": 0.0159,
      "velocity": 108,
      "chip": "ym2612"
    },
    {
      "channel": 4,
      "note": 80,
      "start": 51.486,
      "duration": 0.016,
      "velocity": 98,
      "chip": "ym2612"
    },
    {
      "channel": 3,
      "note": 83,
      "start": 51.4872,
      "duration": 0.0161,
      "velocity": 98,
      "chip": "ym2612"
    },
    {
      "channel": 2,
      "note": 56,
      "start": 51.4883,
      "duration": 0.0161,
      "velocity": 93,
      "chip": "ym2612"
    },
    {
      "channel": 1,
      "note": 75,
      "start": 51.4895,
      "duration": 0.0161,
      "velocity": 108,
      "chip": "ym2612"
    },
    {
      "channel": 5,
      "note": 75,
      "start": 51.5003,
      "duration": 0.016,
      "velocity": 108,
      "chip": "ym2612"
    },
    {
      "channel": 4,
      "note": 80,
      "start": 51.502,
      "duration": 0.0157,
      "velocity": 98,
      "chip": "ym2612"
    },
    {
      "channel": 3,
      "note": 83,
      "start": 51.5033,
      "duration": 0.016,
      "velocity": 98,
      "chip": "ym2612"
    },
    {
      "channel": 2,
      "note": 56,
      "start": 51.5044,
      "duration": 0.016,
      "velocity": 93,
      "chip": "ym2612"
    },
    {
      "channel": 1,
      "note": 75,
      "start": 51.5056,
      "duration": 0.016,
      "velocity": 108,
      "chip": "ym2612"
    },
    {
      "channel": 5,
      "note": 75,
      "start": 51.5163,
      "duration": 0.0161,
      "velocity": 108,
      "chip": "ym2612"
    },
    {
      "channel": 4,
      "note": 80,
      "start": 51.5177,
      "duration": 0.0159,
      "velocity": 98,
      "chip": "ym2612"
    },
    {
      "channel": 3,
      "note": 83,
      "start": 51.5193,
      "duration": 0.016,
      "velocity": 98,
      "chip": "ym2612"
    },
    {
      "channel": 2,
      "note": 56,
      "start": 51.5205,
      "duration": 0.0162,
      "velocity": 93,
      "chip": "ym2612"
    },
    {
      "channel": 1,
      "note": 75,
      "start": 51.5217,
      "duration": 0.0161,
      "velocity": 108,
      "chip": "ym2612"
    },
    {
      "channel": 5,
      "note": 75,
      "start": 51.5324,
      "duration": 0.0161,
      "velocity": 108,
      "chip": "ym2612"
    },
    {
      "channel": 4,
      "note": 80,
      "start": 51.5336,
      "duration": 0.0161,
      "velocity": 98,
      "chip": "ym2612"
    },
    {
      "channel": 3,
      "note": 83,
      "start": 51.5353,
      "duration": 0.0163,
      "velocity": 98,
      "chip": "ym2612"
    },
    {
      "channel": 2,
      "note": 56,
      "start": 51.5366,
      "duration": 0.0163,
      "velocity": 93,
      "chip": "ym2612"
    },
    {
      "channel": 1,
      "note": 75,
      "start": 51.5378,
      "duration": 0.0163,
      "velocity": 108,
      "chip": "ym2612"
    },
    {
      "channel": 5,
      "note": 75,
      "start": 51.5485,
      "duration": 0.0162,
      "velocity": 108,
      "chip": "ym2612"
    },
    {
      "channel": 4,
      "note": 80,
      "start": 51.5498,
      "duration": 0.0162,
      "velocity": 98,
      "chip": "ym2612"
    },
    {
      "channel": 3,
      "note": 83,
      "start": 51.5516,
      "duration": 0.0156,
      "velocity": 98,
      "chip": "ym2612"
    },
    {
      "channel": 2,
      "note": 56,
      "start": 51.5529,
      "duration": 0.0161,
      "velocity": 93,
      "chip": "ym2612"
    },
    {
      "channel": 1,
      "note": 75,
      "start": 51.5541,
      "duration": 0.0162,
      "velocity": 108,
      "chip": "ym2612"
    },
    {
      "channel": 5,
      "note": 75,
      "start": 51.5647,
      "duration": 0.0202,
      "velocity": 108,
      "chip": "ym2612"
    },
    {
      "channel": 2,
      "note": 56,
      "start": 51.569,
      "duration": 0.0204,
      "velocity": 93,
      "chip": "ym2612"
    },
    {
      "channel": 0,
      "note": 36,
      "start": 51.5831,
      "duration": 0.0143,
      "velocity": 115,
      "chip": "ym2612"
    },
    {
      "channel": 5,
      "note": 75,
      "start": 51.5848,
      "duration": 0.0139,
      "velocity": 108,
      "chip": "ym2612"
    },
    {
      "channel": 4,
      "note": 80,
      "start": 51.5864,
      "duration": 0.0135,
      "velocity": 98,
      "chip": "ym2612"
    },
    {
      "channel": 3,
      "note": 83,
      "start": 51.588,
      "duration": 0.0137,
      "velocity": 98,
      "chip": "ym2612"
    },
    {
      "channel": 2,
      "note": 56,
      "start": 51.5895,
      "duration": 0.0135,
      "velocity": 93,
      "chip": "ym2612"
    },
    {
      "channel": 1,
      "note": 75,
      "start": 51.591,
      "duration": 0.0132,
      "velocity": 108,
      "chip": "ym2612"
    },
    {
      "channel": 0,
      "note": 36,
      "start": 51.5974,
      "duration": 0.016,
      "velocity": 115,
      "chip": "ym2612"
    },
    {
      "channel": 4,
      "note": 80,
      "start": 51.5999,
      "duration": 0.0162,
      "velocity": 98,
      "chip": "ym2612"
    },
    {
      "channel": 3,
      "note": 83,
      "start": 51.6017,
      "duration": 0.0159,
      "velocity": 98,
      "chip": "ym2612"
    },
    {
      "channel": 2,
      "note": 56,
      "start": 51.603,
      "duration": 0.0161,
      "velocity": 93,
      "chip": "ym2612"
    },
    {
      "channel": 1,
      "note": 75,
      "start": 51.6042,
      "duration": 0.016,
      "velocity": 108,
      "chip": "ym2612"
    },
    {
      "channel": 0,
      "note": 37,
      "start": 51.6134,
      "duration": 0.0161,
      "velocity": 115,
      "chip": "ym2612"
    },
    {
      "channel": 5,
      "note": 75,
      "start": 51.6149,
      "duration": 0.0159,
      "velocity": 108,
      "chip": "ym2612"
    },
    {
      "channel": 4,
      "note": 80,
      "start": 51.6161,
      "duration": 0.0159,
      "velocity": 98,
      "chip": "ym2612"
    },
    {
      "channel": 3,
      "note": 83,
      "start": 51.6175,
      "duration": 0.0156,
      "velocity": 98,
      "chip": "ym2612"
    },
    {
      "channel": 2,
      "note": 56,
      "start": 51.619,
      "duration": 0.0158,
      "velocity": 93,
      "chip": "ym2612"
    },
    {
      "channel": 1,
      "note": 75,
      "start": 51.6202,
      "duration": 0.0158,
      "velocity": 108,
      "chip": "ym2612"
    },
    {
      "channel": 0,
      "note": 37,
      "start": 51.6295,
      "duration": 0.0161,
      "velocity": 115,
      "chip": "ym2612"
    },
    {
      "channel": 5,
      "note": 75,
      "start": 51.6308,
      "duration": 0.0161,
      "velocity": 108,
      "chip": "ym2612"
    },
    {
      "channel": 4,
      "note": 80,
      "start": 51.632,
      "duration": 0.016,
      "velocity": 98,
      "chip": "ym2612"
    },
    {
      "channel": 3,
      "note": 83,
      "start": 51.6331,
      "duration": 0.0161,
      "velocity": 98,
      "chip": "ym2612"
    },
    {
      "channel": 2,
      "note": 56,
      "start": 51.6348,
      "duration": 0.0155,
      "velocity": 93,
      "chip": "ym2612"
    },
    {
      "channel": 1,
      "note": 75,
      "start": 51.636,
      "duration": 0.016,
      "velocity": 108,
      "chip": "ym2612"
    },
    {
      "channel": 0,
      "note": 38,
      "start": 51.6456,
      "duration": 0.0161,
      "velocity": 115,
      "chip": "ym2612"
    },
    {
      "channel": 5,
      "note": 75,
      "start": 51.6468,
      "duration": 0.0161,
      "velocity": 108,
      "chip": "ym2612"
    },
    {
      "channel": 4,
      "note": 80,
      "start": 51.648,
      "duration": 0.0161,
      "velocity": 98,
      "chip": "ym2612"
    },
    {
      "channel": 3,
      "note": 83,
      "start": 51.6492,
      "duration": 0.0161,
      "velocity": 98,
      "chip": "ym2612"
    },
    {
      "channel": 2,
      "note": 56,
      "start": 51.6504,
      "duration": 0.0161,
      "velocity": 93,
      "chip": "ym2612"
    },
    {
      "channel": 1,
      "note": 75,
      "start": 51.6521,
      "duration": 0.016,
      "velocity": 108,
      "chip": "ym2612"
    },
    {
      "channel": 0,
      "note": 38,
      "start": 51.6617,
      "duration": 0.0161,
      "velocity": 115,
      "chip": "ym2612"
    },
    {
      "channel": 5,
      "note": 75,
      "start": 51.6629,
      "duration": 0.0161,
      "velocity": 108,
      "chip": "ym2612"
    },
    {
      "channel": 4,
      "note": 80,
      "start": 51.6641,
      "duration": 0.0161,
      "velocity": 98,
      "chip": "ym2612"
    },
    {
      "channel": 3,
      "note": 83,
      "start": 51.6653,
      "duration": 0.0161,
      "velocity": 98,
      "chip": "ym2612"
    },
    {
      "channel": 2,
      "note": 56,
      "start": 51.6664,
      "duration": 0.0161,
      "velocity": 93,
      "chip": "ym2612"
    },
    {
      "channel": 1,
      "note": 75,
      "start": 51.6681,
      "duration": 0.0156,
      "velocity": 108,
      "chip": "ym2612"
    },
    {
      "channel": 0,
      "note": 39,
      "start": 51.6778,
      "duration": 0.0161,
      "velocity": 115,
      "chip": "ym2612"
    },
    {
      "channel": 5,
      "note": 75,
      "start": 51.679,
      "duration": 0.0161,
      "velocity": 108,
      "chip": "ym2612"
    },
    {
      "channel": 4,
      "note": 80,
      "start": 51.6802,
      "duration": 0.0161,
      "velocity": 98,
      "chip": "ym2612"
    },
    {
      "channel": 3,
      "note": 83,
      "start": 51.6814,
      "duration": 0.0161,
      "velocity": 98,
      "chip": "ym2612"
    },
    {
      "channel": 2,
      "note": 56,
      "start": 51.6825,
      "duration": 0.0161,
      "velocity": 93,
      "chip": "ym2612"
    },
    {
      "channel": 1,
      "note": 75,
      "start": 51.6837,
      "duration": 0.0161,
      "velocity": 108,
      "chip": "ym2612"
    },
    {
      "channel": 0,
      "note": 39,
      "start": 51.6939,
      "duration": 0.0162,
      "velocity": 115,
      "chip": "ym2612"
    },
    {
      "channel": 5,
      "note": 75,
      "start": 51.6951,
      "duration": 0.0161,
      "velocity": 108,
      "chip": "ym2612"
    },
    {
      "channel": 4,
      "note": 80,
      "start": 51.6963,
      "duration": 0.0162,
      "velocity": 98,
      "chip": "ym2612"
    },
    {
      "channel": 3,
      "note": 83,
      "start": 51.6975,
      "duration": 0.0161,
      "velocity": 98,
      "chip": "ym2612"
    },
    {
      "channel": 2,
      "note": 56,
      "start": 51.6986,
      "duration": 0.0161,
      "velocity": 93,
      "chip": "ym2612"
    },
    {
      "channel": 1,
      "note": 75,
      "start": 51.6998,
      "duration": 0.0161,
      "velocity": 108,
      "chip": "ym2612"
    },
    {
      "channel": 0,
      "note": 40,
      "start": 51.7101,
      "duration": 0.0161,
      "velocity": 115,
      "chip": "ym2612"
    },
    {
      "channel": 5,
      "note": 75,
      "start": 51.7112,
      "duration": 0.0161,
      "velocity": 108,
      "chip": "ym2612"
    },
    {
      "channel": 4,
      "note": 80,
      "start": 51.7124,
      "duration": 0.0161,
      "velocity": 98,
      "chip": "ym2612"
    },
    {
      "channel": 3,
      "note": 83,
      "start": 51.7136,
      "duration": 0.0163,
      "velocity": 98,
      "chip": "ym2612"
    },
    {
      "channel": 2,
      "note": 56,
      "start": 51.7148,
      "duration": 0.0163,
      "velocity": 93,
      "chip": "ym2612"
    },
    {
      "channel": 1,
      "note": 75,
      "start": 51.7159,
      "duration": 0.0163,
      "velocity": 108,
      "chip": "ym2612"
    },
    {
      "channel": 0,
      "note": 40,
      "start": 51.7262,
      "duration": 0.0161,
      "velocity": 115,
      "chip": "ym2612"
    },
    {
      "channel": 5,
      "note": 75,
      "start": 51.7273,
      "duration": 0.0161,
      "velocity": 108,
      "chip": "ym2612"
    },
    {
      "channel": 4,
      "note": 80,
      "start": 51.7286,
      "duration": 0.0161,
      "velocity": 98,
      "chip": "ym2612"
    },
    {
      "channel": 3,
      "note": 83,
      "start": 51.7299,
      "duration": 0.016,
      "velocity": 98,
      "chip": "ym2612"
    },
    {
      "channel": 2,
      "note": 56,
      "start": 51.7311,
      "duration": 0.016,
      "velocity": 93,
      "chip": "ym2612"
    },
    {
      "channel": 1,
      "note": 75,
      "start": 51.7323,
      "duration": 0.016,
      "velocity": 108,
      "chip": "ym2612"
    },
    {
      "channel": 0,
      "note": 40,
      "start": 51.7423,
      "duration": 0.0161,
      "velocity": 115,
      "chip": "ym2612"
    },
    {
      "channel": 5,
      "note": 75,
      "start": 51.7434,
      "duration": 0.0161,
      "velocity": 108,
      "chip": "ym2612"
    },
    {
      "channel": 4,
      "note": 80,
      "start": 51.7447,
      "duration": 0.0161,
      "velocity": 98,
      "chip": "ym2612"
    },
    {
      "channel": 3,
      "note": 83,
      "start": 51.7459,
      "duration": 0.0162,
      "velocity": 98,
      "chip": "ym2612"
    },
    {
      "channel": 2,
      "note": 56,
      "start": 51.7471,
      "duration": 0.0162,
      "velocity": 93,
      "chip": "ym2612"
    },
    {
      "channel": 1,
      "note": 75,
      "start": 51.7483,
      "duration": 0.0161,
      "velocity": 108,
      "chip": "ym2612"
    },
    {
      "channel": 0,
      "note": 41,
      "start": 51.7584,
      "duration": 0.0161,
      "velocity": 115,
      "chip": "ym2612"
    },
    {
      "channel": 5,
      "note": 75,
      "start": 51.7595,
      "duration": 0.0161,
      "velocity": 108,
      "chip": "ym2612"
    },
    {
      "channel": 4,
      "note": 80,
      "start": 51.7608,
      "duration": 0.016,
      "velocity": 98,
      "chip": "ym2612"
    },
    {
      "channel": 3,
      "note": 83,
      "start": 51.7621,
      "duration": 0.016,
      "velocity": 98,
      "chip": "ym2612"
    },
    {
      "channel": 2,
      "note": 56,
      "start": 51.7633,
      "duration": 0.0159,
      "velocity": 93,
      "chip": "ym2612"
    },
    {
      "channel": 0,
      "note": 41,
      "start": 51.7745,
      "duration": 0.0161,
      "velocity": 115,
      "chip": "ym2612"
    },
    {
      "channel": 5,
      "note": 75,
      "start": 51.7756,
      "duration": 0.0162,
      "velocity": 108,
      "chip": "ym2612"
    },
    {
      "channel": 4,
      "note": 80,
      "start": 51.7768,
      "duration": 0.0161,
      "velocity": 98,
      "chip": "ym2612"
    },
    {
      "channel": 3,
      "note": 83,
      "start": 51.778,
      "duration": 0.0161,
      "velocity": 98,
      "chip": "ym2612"
    },
    {
      "channel": 2,
      "note": 56,
      "start": 51.7792,
      "duration": 0.0162,
      "velocity": 93,
      "chip": "ym2612"
    },
    {
      "channel": 1,
      "note": 71,
      "start": 51.7806,
      "duration": 0.0159,
      "velocity": 108,
      "chip": "ym2612"
    },
    {
      "channel": 0,
      "note": 42,
      "start": 51.7906,
      "duration": 0.0161,
      "velocity": 115,
      "chip": "ym2612"
    },
    {
      "channel": 4,
      "note": 80,
      "start": 51.793,
      "duration": 0.0163,
      "velocity": 98,
      "chip": "ym2612"
    },
    {
      "channel": 3,
      "note": 83,
      "start": 51.7941,
      "duration": 0.0164,
      "velocity": 98,
      "chip": "ym2612"
    },
    {
      "channel": 2,
      "note": 56,
      "start": 51.7953,
      "duration": 0.0163,
      "velocity": 93,
      "chip": "ym2612"
    },
    {
      "channel": 1,
      "note": 71,
      "start": 51.7965,
      "duration": 0.0163,
      "velocity": 108,
      "chip": "ym2612"
    },
    {
      "channel": 0,
      "note": 42,
      "start": 51.8066,
      "duration": 0.0161,
      "velocity": 115,
      "chip": "ym2612"
    },
    {
      "channel": 5,
      "note": 71,
      "start": 51.8081,
      "duration": 0.0159,
      "velocity": 108,
      "chip": "ym2612"
    },
    {
      "channel": 4,
      "note": 80,
      "start": 51.8093,
      "duration": 0.0159,
      "velocity": 98,
      "chip": "ym2612"
    },
    {
      "channel": 3,
      "note": 83,
      "start": 51.8105,
      "duration": 0.0159,
      "velocity": 98,
      "chip": "ym2612"
    },
    {
      "channel": 2,
      "note": 56,
      "start": 51.8117,
      "duration": 0.0159,
      "velocity": 93,
      "chip": "ym2612"
    },
    {
      "channel": 1,
      "note": 71,
      "start": 51.8129,
      "duration": 0.0159,
      "velocity": 108,
      "chip": "ym2612"
    },
    {
      "channel": 0,
      "note": 43,
      "start": 51.8227,
      "duration": 0.0161,
      "velocity": 115,
      "chip": "ym2612"
    },
    {
      "channel": 5,
      "note": 71,
      "start": 51.824,
      "duration": 0.016,
      "velocity": 108,
      "chip": "ym2612"
    },
    {
      "channel": 4,
      "note": 80,
      "start": 51.8252,
      "duration": 0.0161,
      "velocity": 98,
      "chip": "ym2612"
    },
    {
      "channel": 3,
      "note": 83,
      "start": 51.8264,
      "duration": 0.0161,
      "velocity": 98,
      "chip": "ym2612"
    },
    {
      "channel": 2,
      "note": 56,
      "start": 51.8276,
      "duration": 0.0162,
      "velocity": 93,
      "chip": "ym2612"
    },
    {
      "channel": 1,
      "note": 71,
      "start": 51.8287,
      "duration": 0.0162,
      "velocity": 108,
      "chip": "ym2612"
    },
    {
      "channel": 0,
      "note": 43,
      "start": 51.8388,
      "duration": 0.0161,
      "velocity": 115,
      "chip": "ym2612"
    },
    {
      "channel": 5,
      "note": 71,
      "start": 51.84,
      "duration": 0.0161,
      "velocity": 108,
      "chip": "ym2612"
    },
    {
      "channel": 4,
      "note": 80,
      "start": 51.8413,
      "duration": 0.0161,
      "velocity": 98,
      "chip": "ym2612"
    },
    {
      "channel": 3,
      "note": 83,
      "start": 51.8425,
      "duration": 0.0162,
      "velocity": 98,
      "chip": "ym2612"
    },
    {
      "channel": 2,
      "note": 56,
      "start": 51.8438,
      "duration": 0.0161,
      "velocity": 93,
      "chip": "ym2612"
    },
    {
      "channel": 1,
      "note": 71,
      "start": 51.8449,
      "duration": 0.0162,
      "velocity": 108,
      "chip": "ym2612"
    },
    {
      "channel": 0,
      "note": 44,
      "start": 51.855,
      "duration": 0.0179,
      "velocity": 124,
      "chip": "ym2612"
    },
    {
      "channel": 5,
      "note": 71,
      "start": 51.8561,
      "duration": 0.0179,
      "velocity": 108,
      "chip": "ym2612"
    },
    {
      "channel": 2,
      "note": 56,
      "start": 51.86,
      "duration": 0.0186,
      "velocity": 93,
      "chip": "ym2612"
    },
    {
      "channel": 0,
      "note": 84,
      "start": 51.8729,
      "duration": 0.0144,
      "velocity": 124,
      "chip": "ym2612"
    },
    {
      "channel": 5,
      "note": 71,
      "start": 51.8741,
      "duration": 0.0144,
      "velocity": 108,
      "chip": "ym2612"
    },
    {
      "channel": 4,
      "note": 80,
      "start": 51.8756,
      "duration": 0.0141,
      "velocity": 98,
      "chip": "ym2612"
    },
    {
      "channel": 3,
      "note": 83,
      "start": 51.8771,
      "duration": 0.0138,
      "velocity": 98,
      "chip": "ym2612"
    },
    {
      "channel": 2,
      "note": 56,
      "start": 51.8787,
      "duration": 0.0135,
      "velocity": 93,
      "chip": "ym2612"
    },
    {
      "channel": 1,
      "note": 73,
      "start": 51.8801,
      "duration": 0.0133,
      "velocity": 108,
      "chip": "ym2612"
    },
    {
      "channel": 0,
      "note": 82,
      "start": 51.8873,
      "duration": 0.0162,
      "velocity": 124,
      "chip": "ym2612"
    },
    {
      "channel": 4,
      "note": 80,
      "start": 51.8897,
      "duration": 0.0164,
      "velocity": 98,
      "chip": "ym2612"
    },
    {
      "channel": 3,
      "note": 83,
      "start": 51.8909,
      "duration": 0.0164,
      "velocity": 98,
      "chip": "ym2612"
    },
    {
      "channel": 2,
      "note": 56,
      "start": 51.8922,
      "duration": 0.0163,
      "velocity": 93,
      "chip": "ym2612"
    },
    {
      "channel": 1,
      "note": 73,
      "start": 51.8934,
      "duration": 0.0162,
      "velocity": 108,
      "chip": "ym2612"
    },
    {
      "channel": 0,
      "note": 80,
      "start": 51.9035,
      "duration": 0.0163,
      "velocity": 124,
      "chip": "ym2612"
    },
    {
      "channel": 5,
      "note": 73,
      "start": 51.905,
      "duration": 0.0161,
      "velocity": 108,
      "chip": "ym2612"
    },
    {
      "channel": 4,
      "note": 80,
      "start": 51.9061,
      "duration": 0.0161,
      "velocity": 98,
      "chip": "ym2612"
    },
    {
      "channel": 3,
      "note": 83,
      "start": 51.9073,
      "duration": 0.0161,
      "velocity": 98,
      "chip": "ym2612"
    },
    {
      "channel": 2,
      "note": 56,
      "start": 51.9085,
      "duration": 0.0161,
      "velocity": 93,
      "chip": "ym2612"
    },
    {
      "channel": 1,
      "note": 73,
      "start": 51.9096,
      "duration": 0.0161,
      "velocity": 108,
      "chip": "ym2612"
    },
    {
      "channel": 0,
      "note": 77,
      "start": 51.9198,
      "duration": 0.0163,
      "velocity": 124,
      "chip": "ym2612"
    },
    {
      "channel": 5,
      "note": 73,
      "start": 51.9211,
      "duration": 0.0162,
      "velocity": 108,
      "chip": "ym2612"
    },
    {
      "channel": 4,
      "note": 80,
      "start": 51.9222,
      "duration": 0.0161,
      "velocity": 98,
      "chip": "ym2612"
    },
    {
      "channel": 3,
      "note": 83,
      "start": 51.9234,
      "duration": 0.0161,
      "velocity": 98,
      "chip": "ym2612"
    },
    {
      "channel": 2,
      "note": 56,
      "start": 51.9246,
      "duration": 0.0162,
      "velocity": 93,
      "chip": "ym2612"
    },
    {
      "channel": 1,
      "note": 73,
      "start": 51.9257,
      "duration": 0.0161,
      "velocity": 108,
      "chip": "ym2612"
    },
    {
      "channel": 0,
      "note": 75,
      "start": 51.9361,
      "duration": 0.0161,
      "velocity": 124,
      "chip": "ym2612"
    },
    {
      "channel": 5,
      "note": 73,
      "start": 51.9373,
      "duration": 0.0161,
      "velocity": 108,
      "chip": "ym2612"
    },
    {
      "channel": 4,
      "note": 80,
      "start": 51.9384,
      "duration": 0.0161,
      "velocity": 98,
      "chip": "ym2612"
    },
    {
      "channel": 3,
      "note": 83,
      "start": 51.9396,
      "duration": 0.0161,
      "velocity": 98,
      "chip": "ym2612"
    },
    {
      "channel": 2,
      "note": 56,
      "start": 51.9407,
      "duration": 0.0161,
      "velocity": 93,
      "chip": "ym2612"
    },
    {
      "channel": 1,
      "note": 73,
      "start": 51.9419,
      "duration": 0.0161,
      "velocity": 108,
      "chip": "ym2612"
    },
    {
      "channel": 0,
      "note": 72,
      "start": 51.9522,
      "duration": 0.016,
      "velocity": 124,
      "chip": "ym2612"
    },
    {
      "channel": 5,
      "note": 73,
      "start": 51.9533,
      "duration": 0.0161,
      "velocity": 108,
      "chip": "ym2612"
    },
    {
      "channel": 4,
      "note": 80,
      "start": 51.9545,
      "duration": 0.0161,
      "velocity": 98,
      "chip": "ym2612"
    },
    {
      "channel": 3,
      "note": 83,
      "start": 51.9557,
      "duration": 0.0161,
      "velocity": 98,
      "chip": "ym2612"
    },
    {
      "channel": 2,
      "note": 56,
      "start": 51.9568,
      "duration": 0.0161,
      "velocity": 93,
      "chip": "ym2612"
    },
    {
      "channel": 1,
      "note": 73,
      "start": 51.958,
      "duration": 0.0162,
      "velocity": 108,
      "chip": "ym2612"
    },
    {
      "channel": 0,
      "note": 70,
      "start": 51.9682,
      "duration": 0.0155,
      "velocity": 124,
      "chip": "ym2612"
    },
    {
      "channel": 5,
      "note": 73,
      "start": 51.9694,
      "duration": 0.016,
      "velocity": 108,
      "chip": "ym2612"
    },
    {
      "channel": 4,
      "note": 80,
      "start": 51.9706,
      "duration": 0.0161,
      "velocity": 98,
      "chip": "ym2612"
    },
    {
      "channel": 3,
      "note": 83,
      "start": 51.9718,
      "duration": 0.0161,
      "velocity": 98,
      "chip": "ym2612"
    },
    {
      "channel": 2,
      "note": 56,
      "start": 51.973,
      "duration": 0.0161,
      "velocity": 93,
      "chip": "ym2612"
    },
    {
      "channel": 1,
      "note": 73,
      "start": 51.9741,
      "duration": 0.0161,
      "velocity": 108,
      "chip": "ym2612"
    },
    {
      "channel": 0,
      "note": 68,
      "start": 51.9837,
      "duration": 0.0161,
      "velocity": 124,
      "chip": "ym2612"
    },
    {
      "channel": 5,
      "note": 73,
      "start": 51.9855,
      "duration": 0.0161,
      "velocity": 108,
      "chip": "ym2612"
    },
    {
      "channel": 4,
      "note": 80,
      "start": 51.9867,
      "duration": 0.0161,
      "velocity": 98,
      "chip": "ym2612"
    },
    {
      "channel": 3,
      "note": 83,
      "start": 51.9879,
      "duration": 0.0161,
      "velocity": 98,
      "chip": "ym2612"
    },
    {
      "channel": 2,
      "note": 56,
      "start": 51.9891,
      "duration": 0.0161,
      "velocity": 93,
      "chip": "ym2612"
    },
    {
      "channel": 1,
      "note": 73,
      "start": 51.9902,
      "duration": 0.0161,
      "velocity": 108,
      "chip": "ym2612"
    },
    {
      "channel": 0,
      "note": 65,
      "start": 51.9998,
      "duration": 0.0162,
      "velocity": 124,
      "chip": "ym2612"
    },
    {
      "channel": 5,
      "note": 73,
      "start": 52.0016,
      "duration": 0.0156,
      "velocity": 108,
      "chip": "ym2612"
    },
    {
      "channel": 4,
      "note": 80,
      "start": 52.0028,
      "duration": 0.0162,
      "velocity": 98,
      "chip": "ym2612"
    },
    {
      "channel": 3,
      "note": 83,
      "start": 52.004,
      "duration": 0.0162,
      "velocity": 98,
      "chip": "ym2612"
    },
    {
      "channel": 2,
      "note": 56,
      "start": 52.0052,
      "duration": 0.0163,
      "velocity": 93,
      "chip": "ym2612"
    },
    {
      "channel": 1,
      "note": 73,
      "start": 52.0063,
      "duration": 0.0163,
      "velocity": 108,
      "chip": "ym2612"
    },
    {
      "channel": 0,
      "note": 63,
      "start": 52.016,
      "duration": 0.0153,
      "velocity": 1,
      "chip": "ym2612"
    },
    {
      "channel": 5,
      "note": 73,
      "start": 52.0171,
      "duration": 0.0153,
      "velocity": 108,
      "chip": "ym2612"
    },
    {
      "channel": 4,
      "note": 80,
      "start": 52.019,
      "duration": 0.0147,
      "velocity": 98,
      "chip": "ym2612"
    },
    {
      "channel": 3,
      "note": 83,
      "start": 52.0203,
      "duration": 0.0153,
      "velocity": 98,
      "chip": "ym2612"
    },
    {
      "channel": 2,
      "note": 56,
      "start": 52.0215,
      "duration": 0.0153,
      "velocity": 93,
      "chip": "ym2612"
    },
    {
      "channel": 1,
      "note": 73,
      "start": 52.0227,
      "duration": 0.0152,
      "velocity": 108,
      "chip": "ym2612"
    },
    {
      "channel": 5,
      "note": 73,
      "start": 52.0324,
      "duration": 0.0153,
      "velocity": 108,
      "chip": "ym2612"
    },
    {
      "channel": 4,
      "note": 80,
      "start": 52.0337,
      "duration": 0.0153,
      "velocity": 98,
      "chip": "ym2612"
    },
    {
      "channel": 3,
      "note": 83,
      "start": 52.0355,
      "duration": 0.0147,
      "velocity": 98,
      "chip": "ym2612"
    },
    {
      "channel": 2,
      "note": 56,
      "start": 52.0367,
      "duration": 0.0152,
      "velocity": 93,
      "chip": "ym2612"
    },
    {
      "channel": 1,
      "note": 73,
      "start": 52.0379,
      "duration": 0.0153,
      "velocity": 108,
      "chip": "ym2612"
    },
    {
      "channel": 5,
      "note": 73,
      "start": 52.0477,
      "duration": 0.0198,
      "velocity": 108,
      "chip": "ym2612"
    },
    {
      "channel": 4,
      "note": 80,
      "start": 52.049,
      "duration": 0.0201,
      "velocity": 98,
      "chip": "ym2612"
    },
    {
      "channel": 3,
      "note": 83,
      "start": 52.0502,
      "duration": 0.02,
      "velocity": 98,
      "chip": "ym2612"
    },
    {
      "channel": 2,
      "note": 56,
      "start": 52.052,
      "duration": 0.0195,
      "velocity": 93,
      "chip": "ym2612"
    },
    {
      "channel": 0,
      "note": 36,
      "start": 52.0661,
      "duration": 0.0143,
      "velocity": 115,
      "chip": "ym2612"
    },
    {
      "channel": 5,
      "note": 73,
      "start": 52.0675,
      "duration": 0.0142,
      "velocity": 108,
      "chip": "ym2612"
    },
    {
      "channel": 4,
      "note": 80,
      "start": 52.069,
      "duration": 0.0138,
      "velocity": 98,
      "chip": "ym2612"
    },
    {
      "channel": 3,
      "note": 83,
      "start": 52.0703,
      "duration": 0.014,
      "velocity": 98,
      "chip": "ym2612"
    },
    {
      "channel": 2,
      "note": 56,
      "start": 52.0714,
      "duration": 0.0144,
      "velocity": 93,
      "chip": "ym2612"
    },
    {
      "channel": 1,
      "note": 71,
      "start": 52.0729,
      "duration": 0.0141,
      "velocity": 108,
      "chip": "ym2612"
    },
    {
      "channel": 0,
      "note": 36,
      "start": 52.0804,
      "duration": 0.016,
      "velocity": 115,
      "chip": "ym2612"
    },
    {
      "channel": 4,
      "note": 80,
      "start": 52.0829,
      "duration": 0.0163,
      "velocity": 98,
      "chip": "ym2612"
    },
    {
      "channel": 3,
      "note": 83,
      "start": 52.0843,
      "duration": 0.0161,
      "velocity": 98,
      "chip": "ym2612"
    },
    {
      "channel": 2,
      "note": 56,
      "start": 52.0858,
      "duration": 0.0163,
      "velocity": 93,
      "chip": "ym2612"
    },
    {
      "channel": 1,
      "note": 71,
      "start": 52.087,
      "duration": 0.0163,
      "velocity": 108,
      "chip": "ym2612"
    },
    {
      "channel": 0,
      "note": 37,
      "start": 52.0965,
      "duration": 0.0161,
      "velocity": 115,
      "chip": "ym2612"
    },
    {
      "channel": 5,
      "note": 71,
      "start": 52.098,
      "duration": 0.0158,
      "velocity": 108,
      "chip": "ym2612"
    },
    {
      "channel": 4,
      "note": 80,
      "start": 52.0992,
      "duration": 0.0159,
      "velocity": 98,
      "chip": "ym2612"
    },
    {
      "channel": 3,
      "note": 83,
      "start": 52.1004,
      "duration": 0.0158,
      "velocity": 98,
      "chip": "ym2612"
    },
    {
      "channel": 2,
      "note": 56,
      "start": 52.1021,
      "duration": 0.0155,
      "velocity": 93,
      "chip": "ym2612"
    },
    {
      "channel": 1,
      "note": 71,
      "start": 52.1033,
      "duration": 0.0158,
      "velocity": 108,
      "chip": "ym2612"
    },
    {
      "channel": 0,
      "note": 37,
      "start": 52.1126,
      "duration": 0.0161,
      "velocity": 115,
      "chip": "ym2612"
    },
    {
      "channel": 5,
      "note": 71,
      "start": 52.1138,
      "duration": 0.016,
      "velocity": 108,
      "chip": "ym2612"
    },
    {
      "channel": 4,
      "note": 80,
      "start": 52.1151,
      "duration": 0.0161,
      "velocity": 98,
      "chip": "ym2612"
    },
    {
      "channel": 3,
      "note": 83,
      "start": 52.1162,
      "duration": 0.0162,
      "velocity": 98,
      "chip": "ym2612"
    },
    {
      "channel": 2,
      "note": 56,
      "start": 52.1176,
      "duration": 0.016,
      "velocity": 93,
      "chip": "ym2612"
    },
    {
      "channel": 1,
      "note": 71,
      "start": 52.119,
      "duration": 0.0162,
      "velocity": 108,
      "chip": "ym2612"
    },
    {
      "channel": 0,
      "note": 38,
      "start": 52.1287,
      "duration": 0.0161,
      "velocity": 115,
      "chip": "ym2612"
    },
    {
      "channel": 5,
      "note": 71,
      "start": 52.1299,
      "duration": 0.0161,
      "velocity": 108,
      "chip": "ym2612"
    },
    {
      "channel": 4,
      "note": 80,
      "start": 52.1311,
      "duration": 0.0161,
      "velocity": 98,
      "chip": "ym2612"
    },
    {
      "channel": 3,
      "note": 83,
      "start": 52.1324,
      "duration": 0.0161,
      "velocity": 98,
      "chip": "ym2612"
    },
    {
      "channel": 2,
      "note": 56,
      "start": 52.1336,
      "duration": 0.0161,
      "velocity": 93,
      "chip": "ym2612"
    },
    {
      "channel": 1,
      "note": 71,
      "start": 52.1353,
      "duration": 0.0162,
      "velocity": 108,
      "chip": "ym2612"
    },
    {
      "channel": 0,
      "note": 38,
      "start": 52.1448,
      "duration": 0.0161,
      "velocity": 115,
      "chip": "ym2612"
    },
    {
      "channel": 5,
      "note": 71,
      "start": 52.146,
      "duration": 0.0161,
      "velocity": 108,
      "chip": "ym2612"
    },
    {
      "channel": 2,
      "note": 56,
      "start": 52.1498,
      "duration": 0.0168,
      "velocity": 93,
      "chip": "ym2612"
    },
    {
      "channel": 1,
      "note": 71,
      "start": 52.1515,
      "duration": 0.0169,
      "velocity": 108,
      "chip": "ym2612"
    },
    {
      "channel": 0,
      "note": 39,
      "start": 52.1609,
      "duration": 0.0161,
      "velocity": 115,
      "chip": "ym2612"
    },
    {
      "channel": 5,
      "note": 71,
      "start": 52.1621,
      "duration": 0.0161,
      "velocity": 108,
      "chip": "ym2612"
    },
    {
      "channel": 4,
      "note": 80,
      "start": 52.1636,
      "duration": 0.0158,
      "velocity": 98,
      "chip": "ym2612"
    },
    {
      "channel": 3,
      "note": 83,
      "start": 52.1651,
      "duration": 0.0155,
      "velocity": 98,
      "chip": "ym2612"
    },
    {
      "channel": 2,
      "note": 56,
      "start": 52.1666,
      "duration": 0.0152,
      "velocity": 93,
      "chip": "ym2612"
    },
    {
      "channel": 1,
      "note": 71,
      "start": 52.1684,
      "duration": 0.0146,
      "velocity": 108,
      "chip": "ym2612"
    },
    {
      "channel": 0,
      "note": 39,
      "start": 52.177,
      "duration": 0.0161,
      "velocity": 115,
      "chip": "ym2612"
    },
    {
      "channel": 5,
      "note": 71,
      "start": 52.1781,
      "duration": 0.0162,
      "velocity": 108,
      "chip": "ym2612"
    },
    {
      "channel": 4,
      "note": 80,
      "start": 52.1794,
      "duration": 0.0161,
      "velocity": 98,
      "chip": "ym2612"
    },
    {
      "channel": 3,
      "note": 83,
      "start": 52.1806,
      "duration": 0.016,
      "velocity": 98,
      "chip": "ym2612"
    },
    {
      "channel": 2,
      "note": 56,
      "start": 52.1818,
      "duration": 0.016,
      "velocity": 93,
      "chip": "ym2612"
    },
    {
      "channel": 1,
      "note": 71,
      "start": 52.1831,
      "duration": 0.016,
      "velocity": 108,
      "chip": "ym2612"
    },
    {
      "channel": 0,
      "note": 40,
      "start": 52.1931,
      "duration": 0.0161,
      "velocity": 115,
      "chip": "ym2612"
    },
    {
      "channel": 5,
      "note": 71,
      "start": 52.1943,
      "duration": 0.0161,
      "velocity": 108,
      "chip": "ym2612"
    },
    {
      "channel": 4,
      "note": 80,
      "start": 52.1955,
      "duration": 0.016,
      "velocity": 98,
      "chip": "ym2612"
    },
    {
      "channel": 3,
      "note": 83,
      "start": 52.1967,
      "duration": 0.0161,
      "velocity": 98,
      "chip": "ym2612"
    },
    {
      "channel": 2,
      "note": 56,
      "start": 52.1978,
      "duration": 0.0161,
      "velocity": 93,
      "chip": "ym2612"
    },
    {
      "channel": 1,
      "note": 71,
      "start": 52.1991,
      "duration": 0.016,
      "velocity": 108,
      "chip": "ym2612"
    },
    {
      "channel": 0,
      "note": 40,
      "start": 52.2092,
      "duration": 0.0161,
      "velocity": 115,
      "chip": "ym2612"
    },
    {
      "channel": 5,
      "note": 71,
      "start": 52.2104,
      "duration": 0.0161,
      "velocity": 108,
      "chip": "ym2612"
    },
    {
      "channel": 4,
      "note": 80,
      "start": 52.2115,
      "duration": 0.0162,
      "velocity": 98,
      "chip": "ym2612"
    },
    {
      "channel": 3,
      "note": 83,
      "start": 52.2128,
      "duration": 0.0161,
      "velocity": 98,
      "chip": "ym2612"
    },
    {
      "channel": 2,
      "note": 56,
      "start": 52.2139,
      "duration": 0.0161,
      "velocity": 93,
      "chip": "ym2612"
    },
    {
      "channel": 1,
      "note": 71,
      "start": 52.2151,
      "duration": 0.0161,
      "velocity": 108,
      "chip": "ym2612"
    },
    {
      "channel": 0,
      "note": 40,
      "start": 52.2253,
      "duration": 0.0161,
      "velocity": 115,
      "chip": "ym2612"
    },
    {
      "channel": 5,
      "note": 71,
      "start": 52.2265,
      "duration": 0.0161,
      "velocity": 108,
      "chip": "ym2612"
    },
    {
      "channel": 4,
      "note": 80,
      "start": 52.2277,
      "duration": 0.016,
      "velocity": 98,
      "chip": "ym2612"
    },
    {
      "channel": 3,
      "note": 83,
      "start": 52.2288,
      "duration": 0.0161,
      "velocity": 98,
      "chip": "ym2612"
    },
    {
      "channel": 2,
      "note": 56,
      "start": 52.23,
      "duration": 0.0161,
      "velocity": 93,
      "chip": "ym2612"
    },
    {
      "channel": 1,
      "note": 71,
      "start": 52.2312,
      "duration": 0.016,
      "velocity": 108,
      "chip": "ym2612"
    },
    {
      "channel": 0,
      "note": 41,
      "start": 52.2414,
      "duration": 0.0161,
      "velocity": 115,
      "chip": "ym2612"
    },
    {
      "channel": 5,
      "note": 71,
      "start": 52.2426,
      "duration": 0.0161,
      "velocity": 108,
      "chip": "ym2612"
    },
    {
      "channel": 4,
      "note": 80,
      "start": 52.2437,
      "duration": 0.0161,
      "velocity": 98,
      "chip": "ym2612"
    },
    {
      "channel": 3,
      "note": 83,
      "start": 52.2449,
      "duration": 0.0161,
      "velocity": 98,
      "chip": "ym2612"
    },
    {
      "channel": 2,
      "note": 56,
      "start": 52.2461,
      "duration": 0.0161,
      "velocity": 93,
      "chip": "ym2612"
    },
    {
      "channel": 0,
      "note": 41,
      "start": 52.2575,
      "duration": 0.0161,
      "velocity": 115,
      "chip": "ym2612"
    },
    {
      "channel": 5,
      "note": 71,
      "start": 52.2587,
      "duration": 0.0161,
      "velocity": 108,
      "chip": "ym2612"
    },
    {
      "channel": 4,
      "note": 80,
      "start": 52.2598,
      "duration": 0.0161,
      "velocity": 98,
      "chip": "ym2612"
    },
    {
      "channel": 3,
      "note": 83,
      "start": 52.261,
      "duration": 0.0161,
      "velocity": 98,
      "chip": "ym2612"
    },
    {
      "channel": 2,
      "note": 56,
      "start": 52.2622,
      "duration": 0.0162,
      "velocity": 93,
      "chip": "ym2612"
    },
    {
      "channel": 0,
      "note": 42,
      "start": 52.2736,
      "duration": 0.0161,
      "velocity": 115,
      "chip": "ym2612"
    },
    {
      "channel": 4,
      "note": 80,
      "start": 52.276,
      "duration": 0.0163,
      "velocity": 98,
      "chip": "ym2612"
    },
    {
      "channel": 3,
      "note": 83,
      "start": 52.2771,
      "duration": 0.0163,
      "velocity": 98,
      "chip": "ym2612"
    },
    {
      "channel": 2,
      "note": 56,
      "start": 52.2783,
      "duration": 0.0163,
      "velocity": 93,
      "chip": "ym2612"
    },
    {
      "channel": 0,
      "note": 42,
      "start": 52.2897,
      "duration": 0.0162,
      "velocity": 115,
      "chip": "ym2612"
    },
    {
      "channel": 4,
      "note": 80,
      "start": 52.2923,
      "duration": 0.016,
      "velocity": 98,
      "chip": "ym2612"
    },
    {
      "channel": 3,
      "note": 83,
      "start": 52.2935,
      "duration": 0.0161,
      "velocity": 98,
      "chip": "ym2612"
    },
    {
      "channel": 2,
      "note": 56,
      "start": 52.2946,
      "duration": 0.0162,
      "velocity": 93,
      "chip": "ym2612"
    },
    {
      "channel": 0,
      "note": 43,
      "start": 52.3058,
      "duration": 0.0161,
      "velocity": 115,
      "chip": "ym2612"
    },
    {
      "channel": 4,
      "note": 80,
      "start": 52.3083,
      "duration": 0.0161,
      "velocity": 98,
      "chip": "ym2612"
    },
    {
      "channel": 3,
      "note": 83,
      "start": 52.3096,
      "duration": 0.016,
      "velocity": 98,
      "chip": "ym2612"
    },
    {
      "channel": 2,
      "note": 56,
      "start": 52.3108,
      "duration": 0.016,
      "velocity": 93,
      "chip": "ym2612"
    },
    {
      "channel": 0,
      "note": 43,
      "start": 52.3219,
      "duration": 0.0161,
      "velocity": 115,
      "chip": "ym2612"
    },
    {
      "channel": 4,
      "note": 80,
      "start": 52.3244,
      "duration": 0.0161,
      "velocity": 98,
      "chip": "ym2612"
    },
    {
      "channel": 3,
      "note": 83,
      "start": 52.3256,
      "duration": 0.0162,
      "velocity": 98,
      "chip": "ym2612"
    },
    {
      "channel": 2,
      "note": 56,
      "start": 52.3268,
      "duration": 0.0161,
      "velocity": 93,
      "chip": "ym2612"
    },
    {
      "channel": 0,
      "note": 44,
      "start": 52.338,
      "duration": 0.0179,
      "velocity": 115,
      "chip": "ym2612"
    },
    {
      "channel": 4,
      "note": 80,
      "start": 52.3405,
      "duration": 0.0179,
      "velocity": 98,
      "chip": "ym2612"
    },
    {
      "channel": 3,
      "note": 83,
      "start": 52.3418,
      "duration": 0.0178,
      "velocity": 98,
      "chip": "ym2612"
    },
    {
      "channel": 2,
      "note": 56,
      "start": 52.343,
      "duration": 0.0178,
      "velocity": 93,
      "chip": "ym2612"
    },
    {
      "channel": 0,
      "note": 36,
      "start": 52.3559,
      "duration": 0.0144,
      "velocity": 115,
      "chip": "ym2612"
    },
    {
      "channel": 4,
      "note": 80,
      "start": 52.3584,
      "duration": 0.0143,
      "velocity": 98,
      "chip": "ym2612"
    },
    {
      "channel": 3,
      "note": 83,
      "start": 52.3596,
      "duration": 0.0144,
      "velocity": 98,
      "chip": "ym2612"
    },
    {
      "channel": 2,
      "note": 56,
      "start": 52.3608,
      "duration": 0.0143,
      "velocity": 93,
      "chip": "ym2612"
    },
    {
      "channel": 1,
      "note": 71,
      "start": 52.3636,
      "duration": 0.0128,
      "velocity": 103,
      "chip": "ym2612"
    },
    {
      "channel": 0,
      "note": 36,
      "start": 52.3703,
      "duration": 0.0163,
      "velocity": 115,
      "chip": "ym2612"
    },
    {
      "channel": 4,
      "note": 80,
      "start": 52.3727,
      "duration": 0.0164,
      "velocity": 98,
      "chip": "ym2612"
    },
    {
      "channel": 3,
      "note": 83,
      "start": 52.3739,
      "duration": 0.0163,
      "velocity": 98,
      "chip": "ym2612"
    },
    {
      "channel": 2,
      "note": 56,
      "start": 52.3751,
      "duration": 0.0164,
      "velocity": 93,
      "chip": "ym2612"
    },
    {
      "channel": 1,
      "note": 71,
      "start": 52.3764,
      "duration": 0.0163,
      "velocity": 103,
      "chip": "ym2612"
    },
    {
      "channel": 0,
      "note": 37,
      "start": 52.3867,
      "duration": 0.0163,
      "velocity": 115,
      "chip": "ym2612"
    },
    {
      "channel": 4,
      "note": 80,
      "start": 52.3892,
      "duration": 0.0163,
      "velocity": 98,
      "chip": "ym2612"
    },
    {
      "channel": 3,
      "note": 83,
      "start": 52.3903,
      "duration": 0.0163,
      "velocity": 98,
      "chip": "ym2612"
    },
    {
      "channel": 2,
      "note": 56,
      "start": 52.3915,
      "duration": 0.0163,
      "velocity": 93,
      "chip": "ym2612"
    },
    {
      "channel": 1,
      "note": 71,
      "start": 52.3927,
      "duration": 0.0163,
      "velocity": 103,
      "chip": "ym2612"
    },
    {
      "channel": 0,
      "note": 37,
      "start": 52.403,
      "duration": 0.0161,
      "velocity": 115,
      "chip": "ym2612"
    },
    {
      "channel": 4,
      "note": 80,
      "start": 52.4054,
      "duration": 0.0162,
      "velocity": 98,
      "chip": "ym2612"
    },
    {
      "channel": 3,
      "note": 83,
      "start": 52.4066,
      "duration": 0.0162,
      "velocity": 98,
      "chip": "ym2612"
    },
    {
      "channel": 2,
      "note": 56,
      "start": 52.4078,
      "duration": 0.0163,
      "velocity": 93,
      "chip": "ym2612"
    },
    {
      "channel": 1,
      "note": 71,
      "start": 52.4089,
      "duration": 0.0163,
      "velocity": 103,
      "chip": "ym2612"
    },
    {
      "channel": 0,
      "note": 38,
      "start": 52.4191,
      "duration": 0.016,
      "velocity": 115,
      "chip": "ym2612"
    },
    {
      "channel": 4,
      "note": 80,
      "start": 52.4216,
      "duration": 0.0161,
      "velocity": 98,
      "chip": "ym2612"
    },
    {
      "channel": 3,
      "note": 83,
      "start": 52.4229,
      "duration": 0.0161,
      "velocity": 98,
      "chip": "ym2612"
    },
    {
      "channel": 2,
      "note": 56,
      "start": 52.4241,
      "duration": 0.0162,
      "velocity": 93,
      "chip": "ym2612"
    },
    {
      "channel": 0,
      "note": 38,
      "start": 52.4351,
      "duration": 0.0179,
      "velocity": 124,
      "chip": "ym2612"
    },
    {
      "channel": 2,
      "note": 56,
      "start": 52.4403,
      "duration": 0.0202,
      "velocity": 93,
      "chip": "ym2612"
    },
    {
      "channel": 0,
      "note": 84,
      "start": 52.4532,
      "duration": 0.0137,
      "velocity": 124,
      "chip": "ym2612"
    },
    {
      "channel": 5,
      "note": 71,
      "start": 52.4561,
      "duration": 0.0125,
      "velocity": 102,
      "chip": "ym2612"
    },
    {
      "channel": 4,
      "note": 80,
      "start": 52.4576,
      "duration": 0.0124,
      "velocity": 98,
      "chip": "ym2612"
    },
    {
      "channel": 3,
      "note": 83,
      "start": 52.459,
      "duration": 0.0122,
      "velocity": 98,
      "chip": "ym2612"
    },
    {
      "channel": 2,
      "note": 56,
      "start": 52.4605,
      "duration": 0.0118,
      "velocity": 93,
      "chip": "ym2612"
    },
    {
      "channel": 1,
      "note": 68,
      "start": 52.462,
      "duration": 0.0116,
      "velocity": 103,
      "chip": "ym2612"
    },
    {
      "channel": 0,
      "note": 82,
      "start": 52.4669,
      "duration": 0.016,
      "velocity": 124,
      "chip": "ym2612"
    },
    {
      "channel": 5,
      "note": 71,
      "start": 52.4686,
      "duration": 0.0157,
      "velocity": 102,
      "chip": "ym2612"
    },
    {
      "channel": 4,
      "note": 80,
      "start": 52.47,
      "duration": 0.0159,
      "velocity": 98,
      "chip": "ym2612"
    },
    {
      "channel": 3,
      "note": 83,
      "start": 52.4712,
      "duration": 0.0159,
      "velocity": 98,
      "chip": "ym2612"
    },
    {
      "channel": 2,
      "note": 56,
      "start": 52.4724,
      "duration": 0.0159,
      "velocity": 93,
      "chip": "ym2612"
    },
    {
      "channel": 1,
      "note": 68,
      "start": 52.4736,
      "duration": 0.0158,
      "velocity": 103,
      "chip": "ym2612"
    },
    {
      "channel": 0,
      "note": 80,
      "start": 52.4829,
      "duration": 0.0161,
      "velocity": 124,
      "chip": "ym2612"
    },
    {
      "channel": 5,
      "note": 71,
      "start": 52.4843,
      "duration": 0.0158,
      "velocity": 102,
      "chip": "ym2612"
    },
    {
      "channel": 4,
      "note": 80,
      "start": 52.4859,
      "duration": 0.016,
      "velocity": 98,
      "chip": "ym2612"
    },
    {
      "channel": 3,
      "note": 83,
      "start": 52.4871,
      "duration": 0.016,
      "velocity": 98,
      "chip": "ym2612"
    },
    {
      "channel": 2,
      "note": 56,
      "start": 52.4882,
      "duration": 0.0161,
      "velocity": 93,
      "chip": "ym2612"
    },
    {
      "channel": 1,
      "note": 68,
      "start": 52.4893,
      "duration": 0.0161,
      "velocity": 103,
      "chip": "ym2612"
    },
    {
      "channel": 0,
      "note": 77,
      "start": 52.499,
      "duration": 0.0161,
      "velocity": 124,
      "chip": "ym2612"
    },
    {
      "channel": 5,
      "note": 71,
      "start": 52.5002,
      "duration": 0.0161,
      "velocity": 102,
      "chip": "ym2612"
    },
    {
      "channel": 4,
      "note": 80,
      "start": 52.5019,
      "duration": 0.0158,
      "velocity": 98,
      "chip": "ym2612"
    },
    {
      "channel": 3,
      "note": 83,
      "start": 52.5031,
      "duration": 0.0162,
      "velocity": 98,
      "chip": "ym2612"
    },
    {
      "channel": 2,
      "note": 56,
      "start": 52.5043,
      "duration": 0.0161,
      "velocity": 93,
      "chip": "ym2612"
    },
    {
      "channel": 1,
      "note": 68,
      "start": 52.5054,
      "duration": 0.0161,
      "velocity": 103,
      "chip": "ym2612"
    },
    {
      "channel": 0,
      "note": 75,
      "start": 52.5151,
      "duration": 0.0161,
      "velocity": 124,
      "chip": "ym2612"
    },
    {
      "channel": 4,
      "note": 80,
      "start": 52.5177,
      "duration": 0.0159,
      "velocity": 98,
      "chip": "ym2612"
    },
    {
      "channel": 3,
      "note": 83,
      "start": 52.5193,
      "duration": 0.016,
      "velocity": 98,
      "chip": "ym2612"
    },
    {
      "channel": 2,
      "note": 56,
      "start": 52.5204,
      "duration": 0.0161,
      "velocity": 93,
      "chip": "ym2612"
    },
    {
      "channel": 1,
      "note": 68,
      "start": 52.5215,
      "duration": 0.0161,
      "velocity": 103,
      "chip": "ym2612"
    },
    {
      "channel": 0,
      "note": 72,
      "start": 52.5312,
      "duration": 0.0161,
      "velocity": 124,
      "chip": "ym2612"
    },
    {
      "channel": 4,
      "note": 80,
      "start": 52.5336,
      "duration": 0.0164,
      "velocity": 98,
      "chip": "ym2612"
    },
    {
      "channel": 3,
      "note": 83,
      "start": 52.5352,
      "duration": 0.0165,
      "velocity": 98,
      "chip": "ym2612"
    },
    {
      "channel": 2,
      "note": 56,
      "start": 52.5365,
      "duration": 0.0164,
      "velocity": 93,
      "chip": "ym2612"
    },
    {
      "channel": 1,
      "note": 68,
      "start": 52.5376,
      "duration": 0.0164,
      "velocity": 103,
      "chip": "ym2612"
    },
    {
      "channel": 0,
      "note": 70,
      "start": 52.5473,
      "duration": 0.0161,
      "velocity": 124,
      "chip": "ym2612"
    },
    {
      "channel": 5,
      "note": 68,
      "start": 52.5488,
      "duration": 0.0159,
      "velocity": 102,
      "chip": "ym2612"
    },
    {
      "channel": 4,
      "note": 80,
      "start": 52.55,
      "duration": 0.0158,
      "velocity": 98,
      "chip": "ym2612"
    },
    {
      "channel": 3,
      "note": 83,
      "start": 52.5517,
      "duration": 0.0154,
      "velocity": 98,
      "chip": "ym2612"
    },
    {
      "channel": 2,
      "note": 56,
      "start": 52.5529,
      "duration": 0.0159,
      "velocity": 93,
      "chip": "ym2612"
    },
    {
      "channel": 1,
      "note": 68,
      "start": 52.554,
      "duration": 0.0159,
      "velocity": 103,
      "chip": "ym2612"
    },
    {
      "channel": 0,
      "note": 68,
      "start": 52.5634,
      "duration": 0.0161,
      "velocity": 124,
      "chip": "ym2612"
    },
    {
      "channel": 5,
      "note": 68,
      "start": 52.5646,
      "duration": 0.0161,
      "velocity": 102,
      "chip": "ym2612"
    },
    {
      "channel": 4,
      "note": 80,
      "start": 52.5658,
      "duration": 0.016,
      "velocity": 98,
      "chip": "ym2612"
    },
    {
      "channel": 3,
      "note": 83,
      "start": 52.567,
      "duration": 0.016,
      "velocity": 98,
      "chip": "ym2612"
    },
    {
      "channel": 2,
      "note": 56,
      "start": 52.5688,
      "duration": 0.0156,
      "velocity": 93,
      "chip": "ym2612"
    },
    {
      "channel": 1,
      "note": 68,
      "start": 52.57,
      "duration": 0.016,
      "velocity": 103,
      "chip": "ym2612"
    },
    {
      "channel": 0,
      "note": 65,
      "start": 52.5795,
      "duration": 0.0162,
      "velocity": 124,
      "chip": "ym2612"
    },
    {
      "channel": 5,
      "note": 68,
      "start": 52.5807,
      "duration": 0.0161,
      "velocity": 102,
      "chip": "ym2612"
    },
    {
      "channel": 4,
      "note": 80,
      "start": 52.5818,
      "duration": 0.0162,
      "velocity": 98,
      "chip": "ym2612"
    },
    {
      "channel": 3,
      "note": 83,
      "start": 52.5831,
      "duration": 0.0163,
      "velocity": 98,
      "chip": "ym2612"
    },
    {
      "channel": 2,
      "note": 56,
      "start": 52.5844,
      "duration": 0.0161,
      "velocity": 93,
      "chip": "ym2612"
    },
    {
      "channel": 1,
      "note": 68,
      "start": 52.586,
      "duration": 0.0163,
      "velocity": 103,
      "chip": "ym2612"
    },
    {
      "channel": 0,
      "note": 63,
      "start": 52.5956,
      "duration": 0.0153,
      "velocity": 1,
      "chip": "ym2612"
    },
    {
      "channel": 5,
      "note": 68,
      "start": 52.5968,
      "duration": 0.0153,
      "velocity": 102,
      "chip": "ym2612"
    },
    {
      "channel": 4,
      "note": 80,
      "start": 52.5981,
      "duration": 0.0152,
      "velocity": 98,
      "chip": "ym2612"
    },
    {
      "channel": 3,
      "note": 83,
      "start": 52.5993,
      "duration": 0.0152,
      "velocity": 98,
      "chip": "ym2612"
    },
    {
      "channel": 2,
      "note": 56,
      "start": 52.6005,
      "duration": 0.0152,
      "velocity": 93,
      "chip": "ym2612"
    },
    {
      "channel": 1,
      "note": 68,
      "start": 52.6023,
      "duration": 0.0146,
      "velocity": 103,
      "chip": "ym2612"
    },
    {
      "channel": 5,
      "note": 68,
      "start": 52.6121,
      "duration": 0.0153,
      "velocity": 102,
      "chip": "ym2612"
    },
    {
      "channel": 4,
      "note": 80,
      "start": 52.6133,
      "duration": 0.0153,
      "velocity": 98,
      "chip": "ym2612"
    },
    {
      "channel": 3,
      "note": 83,
      "start": 52.6145,
      "duration": 0.0153,
      "velocity": 98,
      "chip": "ym2612"
    },
    {
      "channel": 2,
      "note": 56,
      "start": 52.6157,
      "duration": 0.0153,
      "velocity": 93,
      "chip": "ym2612"
    },
    {
      "channel": 5,
      "note": 68,
      "start": 52.6273,
      "duration": 0.0196,
      "velocity": 102,
      "chip": "ym2612"
    },
    {
      "channel": 4,
      "note": 80,
      "start": 52.6285,
      "duration": 0.0195,
      "velocity": 98,
      "chip": "ym2612"
    },
    {
      "channel": 3,
      "note": 83,
      "start": 52.6298,
      "duration": 0.0195,
      "velocity": 98,
      "chip": "ym2612"
    },
    {
      "channel": 2,
      "note": 56,
      "start": 52.631,
      "duration": 0.0194,
      "velocity": 93,
      "chip": "ym2612"
    },
    {
      "channel": 0,
      "note": 36,
      "start": 52.6458,
      "duration": 0.0143,
      "velocity": 115,
      "chip": "ym2612"
    },
    {
      "channel": 5,
      "note": 68,
      "start": 52.6469,
      "duration": 0.0143,
      "velocity": 102,
      "chip": "ym2612"
    },
    {
      "channel": 4,
      "note": 80,
      "start": 52.6481,
      "duration": 0.0144,
      "velocity": 98,
      "chip": "ym2612"
    },
    {
      "channel": 3,
      "note": 83,
      "start": 52.6493,
      "duration": 0.0143,
      "velocity": 98,
      "chip": "ym2612"
    },
    {
      "channel": 2,
      "note": 56,
      "start": 52.6504,
      "duration": 0.0144,
      "velocity": 93,
      "chip": "ym2612"
    },
    {
      "channel": 1,
      "note": 69,
      "start": 52.6524,
      "duration": 0.0136,
      "velocity": 103,
      "chip": "ym2612"
    },
    {
      "channel": 0,
      "note": 36,
      "start": 52.6601,
      "duration": 0.016,
      "velocity": 115,
      "chip": "ym2612"
    },
    {
      "channel": 5,
      "note": 68,
      "start": 52.6612,
      "duration": 0.016,
      "velocity": 102,
      "chip": "ym2612"
    },
    {
      "channel": 4,
      "note": 80,
      "start": 52.6624,
      "duration": 0.016,
      "velocity": 98,
      "chip": "ym2612"
    },
    {
      "channel": 3,
      "note": 83,
      "start": 52.6636,
      "duration": 0.0161,
      "velocity": 98,
      "chip": "ym2612"
    },
    {
      "channel": 2,
      "note": 56,
      "start": 52.6648,
      "duration": 0.016,
      "velocity": 93,
      "chip": "ym2612"
    },
    {
      "channel": 1,
      "note": 69,
      "start": 52.666,
      "duration": 0.016,
      "velocity": 103,
      "chip": "ym2612"
    },
    {
      "channel": 0,
      "note": 37,
      "start": 52.6761,
      "duration": 0.0161,
      "velocity": 115,
      "chip": "ym2612"
    },
    {
      "channel": 5,
      "note": 68,
      "start": 52.6773,
      "duration": 0.0161,
      "velocity": 102,
      "chip": "ym2612"
    },
    {
      "channel": 4,
      "note": 80,
      "start": 52.6785,
      "duration": 0.0161,
      "velocity": 98,
      "chip": "ym2612"
    },
    {
      "channel": 3,
      "note": 83,
      "start": 52.6797,
      "duration": 0.0161,
      "velocity": 98,
      "chip": "ym2612"
    },
    {
      "channel": 2,
      "note": 56,
      "start": 52.6808,
      "duration": 0.0161,
      "velocity": 93,
      "chip": "ym2612"
    },
    {
      "channel": 1,
      "note": 69,
      "start": 52.682,
      "duration": 0.0161,
      "velocity": 103,
      "chip": "ym2612"
    },
    {
      "channel": 0,
      "note": 37,
      "start": 52.6922,
      "duration": 0.0161,
      "velocity": 115,
      "chip": "ym2612"
    },
    {
      "channel": 5,
      "note": 68,
      "start": 52.6934,
      "duration": 0.0161,
      "velocity": 102,
      "chip": "ym2612"
    },
    {
      "channel": 4,
      "note": 80,
      "start": 52.6946,
      "duration": 0.0162,
      "velocity": 98,
      "chip": "ym2612"
    },
    {
      "channel": 3,
      "note": 83,
      "start": 52.6958,
      "duration": 0.0162,
      "velocity": 98,
      "chip": "ym2612"
    },
    {
      "channel": 2,
      "note": 56,
      "start": 52.6969,
      "duration": 0.0163,
      "velocity": 93,
      "chip": "ym2612"
    },
    {
      "channel": 1,
      "note": 69,
      "start": 52.6981,
      "duration": 0.0163,
      "velocity": 103,
      "chip": "ym2612"
    },
    {
      "channel": 0,
      "note": 38,
      "start": 52.7083,
      "duration": 0.0161,
      "velocity": 115,
      "chip": "ym2612"
    },
    {
      "channel": 4,
      "note": 80,
      "start": 52.7107,
      "duration": 0.0161,
      "velocity": 98,
      "chip": "ym2612"
    },
    {
      "channel": 3,
      "note": 83,
      "start": 52.712,
      "duration": 0.0161,
      "velocity": 98,
      "chip": "ym2612"
    },
    {
      "channel": 2,
      "note": 56,
      "start": 52.7132,
      "duration": 0.0162,
      "velocity": 93,
      "chip": "ym2612"
    },
    {
      "channel": 0,
      "note": 38,
      "start": 52.7244,
      "duration": 0.018,
      "velocity": 127,
      "chip": "ym2612"
    },
    {
      "channel": 2,
      "note": 56,
      "start": 52.7294,
      "duration": 0.019,
      "velocity": 93,
      "chip": "ym2612"
    },
    {
      "channel": 0,
      "note": 84,
      "start": 52.7424,
      "duration": 0.0142,
      "velocity": 127,
      "chip": "ym2612"
    },
    {
      "channel": 5,
      "note": 69,
      "start": 52.7439,
      "duration": 0.014,
      "velocity": 102,
      "chip": "ym2612"
    },
    {
      "channel": 4,
      "note": 80,
      "start": 52.7454,
      "duration": 0.0137,
      "velocity": 98,
      "chip": "ym2612"
    },
    {
      "channel": 3,
      "note": 83,
      "start": 52.7469,
      "duration": 0.0134,
      "velocity": 98,
      "chip": "ym2612"
    },
    {
      "channel": 2,
      "note": 56,
      "start": 52.7484,
      "duration": 0.0131,
      "velocity": 93,
      "chip": "ym2612"
    },
    {
      "channel": 1,
      "note": 71,
      "start": 52.7499,
      "duration": 0.0129,
      "velocity": 103,
      "chip": "ym2612"
    },
    {
      "channel": 0,
      "note": 82,
      "start": 52.7566,
      "duration": 0.0161,
      "velocity": 127,
      "chip": "ym2612"
    },
    {
      "channel": 5,
      "note": 69,
      "start": 52.7579,
      "duration": 0.016,
      "velocity": 102,
      "chip": "ym2612"
    },
    {
      "channel": 4,
      "note": 80,
      "start": 52.7591,
      "duration": 0.0159,
      "velocity": 98,
      "chip": "ym2612"
    },
    {
      "channel": 3,
      "note": 83,
      "start": 52.7603,
      "duration": 0.0159,
      "velocity": 98,
      "chip": "ym2612"
    },
    {
      "channel": 2,
      "note": 56,
      "start": 52.7615,
      "duration": 0.0159,
      "velocity": 93,
      "chip": "ym2612"
    },
    {
      "channel": 1,
      "note": 71,
      "start": 52.7628,
      "duration": 0.0158,
      "velocity": 103,
      "chip": "ym2612"
    },
    {
      "channel": 0,
      "note": 81,
      "start": 52.7727,
      "duration": 0.0161,
      "velocity": 127,
      "chip": "ym2612"
    },
    {
      "channel": 5,
      "note": 69,
      "start": 52.7739,
      "duration": 0.0161,
      "velocity": 102,
      "chip": "ym2612"
    },
    {
      "channel": 4,
      "note": 80,
      "start": 52.775,
      "duration": 0.0161,
      "velocity": 98,
      "chip": "ym2612"
    },
    {
      "channel": 3,
      "note": 83,
      "start": 52.7762,
      "duration": 0.0161,
      "velocity": 98,
      "chip": "ym2612"
    },
    {
      "channel": 2,
      "note": 56,
      "start": 52.7774,
      "duration": 0.0161,
      "velocity": 93,
      "chip": "ym2612"
    },
    {
      "channel": 1,
      "note": 71,
      "start": 52.7785,
      "duration": 0.0161,
      "velocity": 103,
      "chip": "ym2612"
    },
    {
      "channel": 0,
      "note": 79,
      "start": 52.7888,
      "duration": 0.0161,
      "velocity": 127,
      "chip": "ym2612"
    },
    {
      "channel": 5,
      "note": 69,
      "start": 52.79,
      "duration": 0.0161,
      "velocity": 102,
      "chip": "ym2612"
    },
    {
      "channel": 4,
      "note": 80,
      "start": 52.7911,
      "duration": 0.0161,
      "velocity": 98,
      "chip": "ym2612"
    },
    {
      "channel": 3,
      "note": 83,
      "start": 52.7923,
      "duration": 0.0161,
      "velocity": 98,
      "chip": "ym2612"
    },
    {
      "channel": 2,
      "note": 56,
      "start": 52.7935,
      "duration": 0.0161,
      "velocity": 93,
      "chip": "ym2612"
    },
    {
      "channel": 1,
      "note": 71,
      "start": 52.7946,
      "duration": 0.0161,
      "velocity": 103,
      "chip": "ym2612"
    },
    {
      "channel": 0,
      "note": 77,
      "start": 52.8049,
      "duration": 0.0161,
      "velocity": 127,
      "chip": "ym2612"
    },
    {
      "channel": 4,
      "note": 80,
      "start": 52.8073,
      "duration": 0.0161,
      "velocity": 98,
      "chip": "ym2612"
    },
    {
      "channel": 3,
      "note": 83,
      "start": 52.8084,
      "duration": 0.0161,
      "velocity": 98,
      "chip": "ym2612"
    },
    {
      "channel": 2,
      "note": 56,
      "start": 52.8096,
      "duration": 0.0161,
      "velocity": 93,
      "chip": "ym2612"
    },
    {
      "channel": 1,
      "note": 71,
      "start": 52.8107,
      "duration": 0.0161,
      "velocity": 103,
      "chip": "ym2612"
    },
    {
      "channel": 0,
      "note": 76,
      "start": 52.821,
      "duration": 0.018,
      "velocity": 127,
      "chip": "ym2612"
    },
    {
      "channel": 4,
      "note": 80,
      "start": 52.8234,
      "duration": 0.0184,
      "velocity": 98,
      "chip": "ym2612"
    },
    {
      "channel": 3,
      "note": 83,
      "start": 52.8245,
      "duration": 0.0184,
      "velocity": 98,
      "chip": "ym2612"
    },
    {
      "channel": 2,
      "note": 56,
      "start": 52.8257,
      "duration": 0.0185,
      "velocity": 93,
      "chip": "ym2612"
    },
    {
      "channel": 1,
      "note": 71,
      "start": 52.8268,
      "duration": 0.0184,
      "velocity": 103,
      "chip": "ym2612"
    },
    {
      "channel": 0,
      "note": 84,
      "start": 52.8391,
      "duration": 0.0145,
      "velocity": 127,
      "chip": "ym2612"
    },
    {
      "channel": 5,
      "note": 71,
      "start": 52.8406,
      "duration": 0.0142,
      "velocity": 102,
      "chip": "ym2612"
    },
    {
      "channel": 4,
      "note": 80,
      "start": 52.8418,
      "duration": 0.0142,
      "velocity": 98,
      "chip": "ym2612"
    },
    {
      "channel": 3,
      "note": 83,
      "start": 52.8429,
      "duration": 0.0143,
      "velocity": 98,
      "chip": "ym2612"
    },
    {
      "channel": 2,
      "note": 56,
      "start": 52.8441,
      "duration": 0.0142,
      "velocity": 93,
      "chip": "ym2612"
    },
    {
      "channel": 1,
      "note": 71,
      "start": 52.8453,
      "duration": 0.0143,
      "velocity": 103,
      "chip": "ym2612"
    },
    {
      "channel": 0,
      "note": 82,
      "start": 52.8536,
      "duration": 0.0162,
      "velocity": 127,
      "chip": "ym2612"
    },
    {
      "channel": 5,
      "note": 71,
      "start": 52.8548,
      "duration": 0.0162,
      "velocity": 102,
      "chip": "ym2612"
    },
    {
      "channel": 4,
      "note": 80,
      "start": 52.8559,
      "duration": 0.0162,
      "velocity": 98,
      "chip": "ym2612"
    },
    {
      "channel": 3,
      "note": 83,
      "start": 52.8572,
      "duration": 0.0162,
      "velocity": 98,
      "chip": "ym2612"
    },
    {
      "channel": 2,
      "note": 56,
      "start": 52.8583,
      "duration": 0.0162,
      "velocity": 93,
      "chip": "ym2612"
    },
    {
      "channel": 1,
      "note": 71,
      "start": 52.8595,
      "duration": 0.0162,
      "velocity": 103,
      "chip": "ym2612"
    },
    {
      "channel": 0,
      "note": 81,
      "start": 52.8698,
      "duration": 0.0162,
      "velocity": 127,
      "chip": "ym2612"
    },
    {
      "channel": 5,
      "note": 71,
      "start": 52.871,
      "duration": 0.0162,
      "velocity": 102,
      "chip": "ym2612"
    },
    {
      "channel": 4,
      "note": 80,
      "start": 52.8722,
      "duration": 0.0163,
      "velocity": 98,
      "chip": "ym2612"
    },
    {
      "channel": 3,
      "note": 83,
      "start": 52.8734,
      "duration": 0.0163,
      "velocity": 98,
      "chip": "ym2612"
    },
    {
      "channel": 2,
      "note": 56,
      "start": 52.8745,
      "duration": 0.0164,
      "velocity": 93,
      "chip": "ym2612"
    },
    {
      "channel": 1,
      "note": 71,
      "start": 52.8757,
      "duration": 0.0164,
      "velocity": 103,
      "chip": "ym2612"
    },
    {
      "channel": 0,
      "note": 79,
      "start": 52.886,
      "duration": 0.0161,
      "velocity": 127,
      "chip": "ym2612"
    },
    {
      "channel": 5,
      "note": 71,
      "start": 52.8872,
      "duration": 0.0161,
      "velocity": 102,
      "chip": "ym2612"
    },
    {
      "channel": 4,
      "note": 80,
      "start": 52.8885,
      "duration": 0.0161,
      "velocity": 98,
      "chip": "ym2612"
    },
    {
      "channel": 3,
      "note": 83,
      "start": 52.8897,
      "duration": 0.016,
      "velocity": 98,
      "chip": "ym2612"
    },
    {
      "channel": 2,
      "note": 56,
      "start": 52.8909,
      "duration": 0.016,
      "velocity": 93,
      "chip": "ym2612"
    },
    {
      "channel": 1,
      "note": 71,
      "start": 52.8922,
      "duration": 0.016,
      "velocity": 103,
      "chip": "ym2612"
    },
    {
      "channel": 0,
      "note": 77,
      "start": 52.9021,
      "duration": 0.016,
      "velocity": 127,
      "chip": "ym2612"
    },
    {
      "channel": 5,
      "note": 71,
      "start": 52.9033,
      "duration": 0.0161,
      "velocity": 102,
      "chip": "ym2612"
    },
    {
      "channel": 4,
      "note": 80,
      "start": 52.9046,
      "duration": 0.0161,
      "velocity": 98,
      "chip": "ym2612"
    },
    {
      "channel": 3,
      "note": 83,
      "start": 52.9058,
      "duration": 0.0162,
      "velocity": 98,
      "chip": "ym2612"
    },
    {
      "channel": 2,
      "note": 56,
      "start": 52.907,
      "duration": 0.0162,
      "velocity": 93,
      "chip": "ym2612"
    },
    {
      "channel": 0,
      "note": 76,
      "start": 52.9182,
      "duration": 0.018,
      "velocity": 127,
      "chip": "ym2612"
    },
    {
      "channel": 5,
      "note": 71,
      "start": 52.9194,
      "duration": 0.018,
      "velocity": 102,
      "chip": "ym2612"
    },
    {
      "channel": 4,
      "note": 80,
      "start": 52.9206,
      "duration": 0.018,
      "velocity": 98,
      "chip": "ym2612"
    },
    {
      "channel": 3,
      "note": 83,
      "start": 52.9219,
      "duration": 0.0178,
      "velocity": 98,
      "chip": "ym2612"
    },
    {
      "channel": 2,
      "note": 56,
      "start": 52.9231,
      "duration": 0.0178,
      "velocity": 93,
      "chip": "ym2612"
    },
    {
      "channel": 0,
      "note": 84,
      "start": 52.9362,
      "duration": 0.0137,
      "velocity": 127,
      "chip": "ym2612"
    },
    {
      "channel": 5,
      "note": 71,
      "start": 52.9374,
      "duration": 0.0142,
      "velocity": 102,
      "chip": "ym2612"
    },
    {
      "channel": 4,
      "note": 80,
      "start": 52.9386,
      "duration": 0.0142,
      "velocity": 98,
      "chip": "ym2612"
    },
    {
      "channel": 3,
      "note": 83,
      "start": 52.9397,
      "duration": 0.0143,
      "velocity": 98,
      "chip": "ym2612"
    },
    {
      "channel": 2,
      "note": 56,
      "start": 52.9409,
      "duration": 0.0143,
      "velocity": 93,
      "chip": "ym2612"
    },
    {
      "channel": 1,
      "note": 73,
      "start": 52.9423,
      "duration": 0.0141,
      "velocity": 103,
      "chip": "ym2612"
    },
    {
      "channel": 0,
      "note": 82,
      "start": 52.9499,
      "duration": 0.016,
      "velocity": 127,
      "chip": "ym2612"
    },
    {
      "channel": 5,
      "note": 71,
      "start": 52.9516,
      "duration": 0.0155,
      "velocity": 102,
      "chip": "ym2612"
    },
    {
      "channel": 4,
      "note": 80,
      "start": 52.9528,
      "duration": 0.016,
      "velocity": 98,
      "chip": "ym2612"
    },
    {
      "channel": 3,
      "note": 83,
      "start": 52.954,
      "duration": 0.016,
      "velocity": 98,
      "chip": "ym2612"
    },
    {
      "channel": 2,
      "note": 56,
      "start": 52.9552,
      "duration": 0.016,
      "velocity": 93,
      "chip": "ym2612"
    },
    {
      "channel": 1,
      "note": 73,
      "start": 52.9564,
      "duration": 0.016,
      "velocity": 103,
      "chip": "ym2612"
    },
    {
      "channel": 0,
      "note": 81,
      "start": 52.9659,
      "duration": 0.0161,
      "velocity": 127,
      "chip": "ym2612"
    },
    {
      "channel": 5,
      "note": 71,
      "start": 52.9671,
      "duration": 0.0161,
      "velocity": 102,
      "chip": "ym2612"
    },
    {
      "channel": 4,
      "note": 80,
      "start": 52.9689,
      "duration": 0.0161,
      "velocity": 98,
      "chip": "ym2612"
    },
    {
      "channel": 3,
      "note": 83,
      "start": 52.9701,
      "duration": 0.0161,
      "velocity": 98,
      "chip": "ym2612"
    },
    {
      "channel": 2,
      "note": 56,
      "start": 52.9712,
      "duration": 0.0161,
      "velocity": 93,
      "chip": "ym2612"
    },
    {
      "channel": 1,
      "note": 73,
      "start": 52.9724,
      "duration": 0.0162,
      "velocity": 103,
      "chip": "ym2612"
    },
    {
      "channel": 0,
      "note": 79,
      "start": 52.982,
      "duration": 0.0161,
      "velocity": 127,
      "chip": "ym2612"
    },
    {
      "channel": 5,
      "note": 71,
      "start": 52.9832,
      "duration": 0.0162,
      "velocity": 102,
      "chip": "ym2612"
    },
    {
      "channel": 4,
      "note": 80,
      "start": 52.985,
      "duration": 0.0158,
      "velocity": 98,
      "chip": "ym2612"
    },
    {
      "channel": 3,
      "note": 83,
      "start": 52.9862,
      "duration": 0.0163,
      "velocity": 98,
      "chip": "ym2612"
    },
    {
      "channel": 2,
      "note": 56,
      "start": 52.9874,
      "duration": 0.0163,
      "velocity": 93,
      "chip": "ym2612"
    },
    {
      "channel": 1,
      "note": 73,
      "start": 52.9885,
      "duration": 0.0163,
      "velocity": 103,
      "chip": "ym2612"
    },
    {
      "channel": 0,
      "note": 77,
      "start": 52.9981,
      "duration": 0.0161,
      "velocity": 127,
      "chip": "ym2612"
    },
    {
      "channel": 4,
      "note": 80,
      "start": 53.0008,
      "duration": 0.0159,
      "velocity": 98,
      "chip": "ym2612"
    },
    {
      "channel": 3,
      "note": 83,
      "start": 53.0024,
      "duration": 0.0161,
      "velocity": 98,
      "chip": "ym2612"
    },
    {
      "channel": 2,
      "note": 56,
      "start": 53.0037,
      "duration": 0.0162,
      "velocity": 93,
      "chip": "ym2612"
    },
    {
      "channel": 0,
      "note": 76,
      "start": 53.0142,
      "duration": 0.018,
      "velocity": 127,
      "chip": "ym2612"
    },
    {
      "channel": 2,
      "note": 56,
      "start": 53.0198,
      "duration": 0.019,
      "velocity": 93,
      "chip": "ym2612"
    },
    {
      "channel": 0,
      "note": 78,
      "start": 53.0322,
      "duration": 0.0142,
      "velocity": 127,
      "chip": "ym2612"
    },
    {
      "channel": 5,
      "note": 73,
      "start": 53.0337,
      "duration": 0.0141,
      "velocity": 102,
      "chip": "ym2612"
    },
    {
      "channel": 4,
      "note": 80,
      "start": 53.0358,
      "duration": 0.0132,
      "velocity": 98,
      "chip": "ym2612"
    },
    {
      "channel": 3,
      "note": 83,
      "start": 53.0373,
      "duration": 0.0129,
      "velocity": 98,
      "chip": "ym2612"
    },
    {
      "channel": 2,
      "note": 56,
      "start": 53.0388,
      "duration": 0.0131,
      "velocity": 93,
      "chip": "ym2612"
    },
    {
      "channel": 1,
      "note": 75,
      "start": 53.0403,
      "duration": 0.0129,
      "velocity": 103,
      "chip": "ym2612"
    },
    {
      "channel": 0,
      "note": 76,
      "start": 53.0465,
      "duration": 0.0161,
      "velocity": 127,
      "chip": "ym2612"
    },
    {
      "channel": 5,
      "note": 73,
      "start": 53.0478,
      "duration": 0.016,
      "velocity": 102,
      "chip": "ym2612"
    },
    {
      "channel": 4,
      "note": 80,
      "start": 53.049,
      "duration": 0.0159,
      "velocity": 98,
      "chip": "ym2612"
    },
    {
      "channel": 3,
      "note": 83,
      "start": 53.0502,
      "duration": 0.0158,
      "velocity": 98,
      "chip": "ym2612"
    },
    {
      "channel": 2,
      "note": 56,
      "start": 53.052,
      "duration": 0.0153,
      "velocity": 93,
      "chip": "ym2612"
    },
    {
      "channel": 1,
      "note": 75,
      "start": 53.0532,
      "duration": 0.0157,
      "velocity": 103,
      "chip": "ym2612"
    },
    {
      "channel": 0,
      "note": 75,
      "start": 53.0626,
      "duration": 0.0161,
      "velocity": 127,
      "chip": "ym2612"
    },
    {
      "channel": 5,
      "note": 73,
      "start": 53.0637,
      "duration": 0.0161,
      "velocity": 102,
      "chip": "ym2612"
    },
    {
      "channel": 4,
      "note": 80,
      "start": 53.0649,
      "duration": 0.0161,
      "velocity": 98,
      "chip": "ym2612"
    },
    {
      "channel": 3,
      "note": 83,
      "start": 53.0661,
      "duration": 0.0161,
      "velocity": 98,
      "chip": "ym2612"
    },
    {
      "channel": 2,
      "note": 56,
      "start": 53.0672,
      "duration": 0.0161,
      "velocity": 93,
      "chip": "ym2612"
    },
    {
      "channel": 1,
      "note": 75,
      "start": 53.0689,
      "duration": 0.016,
      "velocity": 103,
      "chip": "ym2612"
    },
    {
      "channel": 0,
      "note": 73,
      "start": 53.0787,
      "duration": 0.0161,
      "velocity": 127,
      "chip": "ym2612"
    },
    {
      "channel": 5,
      "note": 73,
      "start": 53.0798,
      "duration": 0.0161,
      "velocity": 102,
      "chip": "ym2612"
    },
    {
      "channel": 4,
      "note": 80,
      "start": 53.081,
      "duration": 0.0161,
      "velocity": 98,
      "chip": "ym2612"
    },
    {
      "channel": 3,
      "note": 83,
      "start": 53.0822,
      "duration": 0.0161,
      "velocity": 98,
      "chip": "ym2612"
    },
    {
      "channel": 2,
      "note": 56,
      "start": 53.0833,
      "duration": 0.0161,
      "velocity": 93,
      "chip": "ym2612"
    },
    {
      "channel": 1,
      "note": 75,
      "start": 53.085,
      "duration": 0.0158,
      "velocity": 103,
      "chip": "ym2612"
    },
    {
      "channel": 0,
      "note": 71,
      "start": 53.0948,
      "duration": 0.0161,
      "velocity": 127,
      "chip": "ym2612"
    },
    {
      "channel": 4,
      "note": 80,
      "start": 53.0971,
      "duration": 0.0161,
      "velocity": 98,
      "chip": "ym2612"
    },
    {
      "channel": 3,
      "note": 83,
      "start": 53.0983,
      "duration": 0.0161,
      "velocity": 98,
      "chip": "ym2612"
    },
    {
      "channel": 2,
      "note": 56,
      "start": 53.0994,
      "duration": 0.0161,
      "velocity": 93,
      "chip": "ym2612"
    },
    {
      "channel": 1,
      "note": 75,
      "start": 53.1008,
      "duration": 0.0159,
      "velocity": 103,
      "chip": "ym2612"
    },
    {
      "channel": 0,
      "note": 70,
      "start": 53.1108,
      "duration": 0.0161,
      "velocity": 127,
      "chip": "ym2612"
    },
    {
      "channel": 4,
      "note": 80,
      "start": 53.1132,
      "duration": 0.0164,
      "velocity": 98,
      "chip": "ym2612"
    },
    {
      "channel": 3,
      "note": 83,
      "start": 53.1144,
      "duration": 0.0164,
      "velocity": 98,
      "chip": "ym2612"
    },
    {
      "channel": 2,
      "note": 56,
      "start": 53.1155,
      "duration": 0.0165,
      "velocity": 93,
      "chip": "ym2612"
    },
    {
      "channel": 1,
      "note": 75,
      "start": 53.1166,
      "duration": 0.0165,
      "velocity": 103,
      "chip": "ym2612"
    },
    {
      "channel": 0,
      "note": 68,
      "start": 53.1269,
      "duration": 0.0161,
      "velocity": 127,
      "chip": "ym2612"
    },
    {
      "channel": 5,
      "note": 75,
      "start": 53.1284,
      "duration": 0.0158,
      "velocity": 102,
      "chip": "ym2612"
    },
    {
      "channel": 4,
      "note": 80,
      "start": 53.1296,
      "duration": 0.0159,
      "velocity": 98,
      "chip": "ym2612"
    },
    {
      "channel": 3,
      "note": 83,
      "start": 53.1308,
      "duration": 0.0159,
      "velocity": 98,
      "chip": "ym2612"
    },
    {
      "channel": 2,
      "note": 56,
      "start": 53.132,
      "duration": 0.0158,
      "velocity": 93,
      "chip": "ym2612"
    },
    {
      "channel": 1,
      "note": 75,
      "start": 53.1331,
      "duration": 0.0159,
      "velocity": 103,
      "chip": "ym2612"
    },
    {
      "channel": 0,
      "note": 66,
      "start": 53.143,
      "duration": 0.0161,
      "velocity": 127,
      "chip": "ym2612"
    },
    {
      "channel": 5,
      "note": 75,
      "start": 53.1442,
      "duration": 0.016,
      "velocity": 102,
      "chip": "ym2612"
    },
    {
      "channel": 4,
      "note": 80,
      "start": 53.1455,
      "duration": 0.016,
      "velocity": 98,
      "chip": "ym2612"
    },
    {
      "channel": 3,
      "note": 83,
      "start": 53.1467,
      "duration": 0.016,
      "velocity": 98,
      "chip": "ym2612"
    },
    {
      "channel": 2,
      "note": 56,
      "start": 53.1478,
      "duration": 0.016,
      "velocity": 93,
      "chip": "ym2612"
    },
    {
      "channel": 1,
      "note": 75,
      "start": 53.149,
      "duration": 0.016,
      "velocity": 103,
      "chip": "ym2612"
    },
    {
      "channel": 0,
      "note": 65,
      "start": 53.1591,
      "duration": 0.0161,
      "velocity": 127,
      "chip": "ym2612"
    },
    {
      "channel": 5,
      "note": 75,
      "start": 53.1603,
      "duration": 0.0161,
      "velocity": 102,
      "chip": "ym2612"
    },
    {
      "channel": 4,
      "note": 80,
      "start": 53.1615,
      "duration": 0.0162,
      "velocity": 98,
      "chip": "ym2612"
    },
    {
      "channel": 3,
      "note": 83,
      "start": 53.1627,
      "duration": 0.0162,
      "velocity": 98,
      "chip": "ym2612"
    },
    {
      "channel": 2,
      "note": 56,
      "start": 53.1638,
      "duration": 0.0163,
      "velocity": 93,
      "chip": "ym2612"
    },
    {
      "channel": 1,
      "note": 75,
      "start": 53.1651,
      "duration": 0.0163,
      "velocity": 103,
      "chip": "ym2612"
    },
    {
      "channel": 0,
      "note": 63,
      "start": 53.1752,
      "duration": 0.0161,
      "velocity": 127,
      "chip": "ym2612"
    },
    {
      "channel": 5,
      "note": 75,
      "start": 53.1764,
      "duration": 0.0161,
      "velocity": 102,
      "chip": "ym2612"
    },
    {
      "channel": 4,
      "note": 80,
      "start": 53.1776,
      "duration": 0.0161,
      "velocity": 98,
      "chip": "ym2612"
    },
    {
      "channel": 3,
      "note": 83,
      "start": 53.1789,
      "duration": 0.0161,
      "velocity": 98,
      "chip": "ym2612"
    },
    {
      "channel": 2,
      "note": 56,
      "start": 53.1802,
      "duration": 0.016,
      "velocity": 93,
      "chip": "ym2612"
    },
    {
      "channel": 1,
      "note": 75,
      "start": 53.1813,
      "duration": 0.016,
      "velocity": 103,
      "chip": "ym2612"
    },
    {
      "channel": 0,
      "note": 61,
      "start": 53.1913,
      "duration": 0.0162,
      "velocity": 127,
      "chip": "ym2612"
    },
    {
      "channel": 5,
      "note": 75,
      "start": 53.1925,
      "duration": 0.0161,
      "velocity": 102,
      "chip": "ym2612"
    },
    {
      "channel": 4,
      "note": 80,
      "start": 53.1937,
      "duration": 0.0161,
      "velocity": 98,
      "chip": "ym2612"
    },
    {
      "channel": 3,
      "note": 83,
      "start": 53.195,
      "duration": 0.0161,
      "velocity": 98,
      "chip": "ym2612"
    },
    {
      "channel": 2,
      "note": 56,
      "start": 53.1962,
      "duration": 0.0162,
      "velocity": 93,
      "chip": "ym2612"
    },
    {
      "channel": 0,
      "note": 60,
      "start": 53.2075,
      "duration": 0.0161,
      "velocity": 127,
      "chip": "ym2612"
    },
    {
      "channel": 5,
      "note": 75,
      "start": 53.2086,
      "duration": 0.0161,
      "velocity": 102,
      "chip": "ym2612"
    },
    {
      "channel": 4,
      "note": 80,
      "start": 53.2099,
      "duration": 0.016,
      "velocity": 98,
      "chip": "ym2612"
    },
    {
      "channel": 3,
      "note": 83,
      "start": 53.2111,
      "duration": 0.016,
      "velocity": 98,
      "chip": "ym2612"
    },
    {
      "channel": 2,
      "note": 56,
      "start": 53.2124,
      "duration": 0.0158,
      "velocity": 93,
      "chip": "ym2612"
    },
    {
      "channel": 0,
      "note": 58,
      "start": 53.2236,
      "duration": 0.0161,
      "velocity": 127,
      "chip": "ym2612"
    },
    {
      "channel": 5,
      "note": 75,
      "start": 53.2247,
      "duration": 0.0161,
      "velocity": 102,
      "chip": "ym2612"
    },
    {
      "channel": 4,
      "note": 80,
      "start": 53.2259,
      "duration": 0.0162,
      "velocity": 98,
      "chip": "ym2612"
    },
    {
      "channel": 3,
      "note": 83,
      "start": 53.2271,
      "duration": 0.0161,
      "velocity": 98,
      "chip": "ym2612"
    },
    {
      "channel": 2,
      "note": 56,
      "start": 53.2282,
      "duration": 0.0162,
      "velocity": 93,
      "chip": "ym2612"
    },
    {
      "channel": 1,
      "note": 76,
      "start": 53.2298,
      "duration": 0.0158,
      "velocity": 103,
      "chip": "ym2612"
    },
    {
      "channel": 0,
      "note": 56,
      "start": 53.2397,
      "duration": 0.0161,
      "velocity": 127,
      "chip": "ym2612"
    },
    {
      "channel": 5,
      "note": 75,
      "start": 53.2408,
      "duration": 0.0161,
      "velocity": 102,
      "chip": "ym2612"
    },
    {
      "channel": 4,
      "note": 80,
      "start": 53.242,
      "duration": 0.0161,
      "velocity": 98,
      "chip": "ym2612"
    },
    {
      "channel": 3,
      "note": 83,
      "start": 53.2432,
      "duration": 0.0161,
      "velocity": 98,
      "chip": "ym2612"
    },
    {
      "channel": 2,
      "note": 56,
      "start": 53.2444,
      "duration": 0.0161,
      "velocity": 93,
      "chip": "ym2612"
    },
    {
      "channel": 1,
      "note": 76,
      "start": 53.2456,
      "duration": 0.016,
      "velocity": 103,
      "chip": "ym2612"
    },
    {
      "channel": 0,
      "note": 54,
      "start": 53.2558,
      "duration": 0.0161,
      "velocity": 127,
      "chip": "ym2612"
    },
    {
      "channel": 5,
      "note": 75,
      "start": 53.2569,
      "duration": 0.0161,
      "velocity": 102,
      "chip": "ym2612"
    },
    {
      "channel": 4,
      "note": 80,
      "start": 53.2581,
      "duration": 0.0161,
      "velocity": 98,
      "chip": "ym2612"
    },
    {
      "channel": 3,
      "note": 83,
      "start": 53.2593,
      "duration": 0.0162,
      "velocity": 98,
      "chip": "ym2612"
    },
    {
      "channel": 2,
      "note": 56,
      "start": 53.2605,
      "duration": 0.0161,
      "velocity": 93,
      "chip": "ym2612"
    },
    {
      "channel": 1,
      "note": 76,
      "start": 53.2616,
      "duration": 0.0161,
      "velocity": 103,
      "chip": "ym2612"
    },
    {
      "channel": 0,
      "note": 53,
      "start": 53.2719,
      "duration": 0.0161,
      "velocity": 127,
      "chip": "ym2612"
    },
    {
      "channel": 5,
      "note": 75,
      "start": 53.273,
      "duration": 0.0162,
      "velocity": 102,
      "chip": "ym2612"
    },
    {
      "channel": 4,
      "note": 80,
      "start": 53.2742,
      "duration": 0.0162,
      "velocity": 98,
      "chip": "ym2612"
    },
    {
      "channel": 3,
      "note": 83,
      "start": 53.2754,
      "duration": 0.0162,
      "velocity": 98,
      "chip": "ym2612"
    },
    {
      "channel": 2,
      "note": 56,
      "start": 53.2766,
      "duration": 0.0163,
      "velocity": 93,
      "chip": "ym2612"
    },
    {
      "channel": 1,
      "note": 76,
      "start": 53.2777,
      "duration": 0.0163,
      "velocity": 103,
      "chip": "ym2612"
    },
    {
      "channel": 0,
      "note": 51,
      "start": 53.288,
      "duration": 0.0161,
      "velocity": 127,
      "chip": "ym2612"
    },
    {
      "channel": 4,
      "note": 80,
      "start": 53.2904,
      "duration": 0.0161,
      "velocity": 98,
      "chip": "ym2612"
    },
    {
      "channel": 3,
      "note": 83,
      "start": 53.2916,
      "duration": 0.0162,
      "velocity": 98,
      "chip": "ym2612"
    },
    {
      "channel": 2,
      "note": 56,
      "start": 53.2929,
      "duration": 0.0162,
      "velocity": 93,
      "chip": "ym2612"
    },
    {
      "channel": 0,
      "note": 49,
      "start": 53.3041,
      "duration": 0.0161,
      "velocity": 127,
      "chip": "ym2612"
    },
    {
      "channel": 2,
      "note": 56,
      "start": 53.3091,
      "duration": 0.0173,
      "velocity": 93,
      "chip": "ym2612"
    },
    {
      "channel": 0,
      "note": 48,
      "start": 53.3202,
      "duration": 0.0164,
      "velocity": 127,
      "chip": "ym2612"
    },
    {
      "channel": 5,
      "note": 76,
      "start": 53.3217,
      "duration": 0.0162,
      "velocity": 102,
      "chip": "ym2612"
    },
    {
      "channel": 4,
      "note": 81,
      "start": 53.3233,
      "duration": 0.0158,
      "velocity": 98,
      "chip": "ym2612"
    },
    {
      "channel": 3,
      "note": 85,
      "start": 53.3249,
      "duration": 0.0154,
      "velocity": 98,
      "chip": "ym2612"
    },
    {
      "channel": 2,
      "note": 57,
      "start": 53.3265,
      "duration": 0.0151,
      "velocity": 93,
      "chip": "ym2612"
    },
    {
      "channel": 1,
      "note": 73,
      "start": 53.3294,
      "duration": 0.0134,
      "velocity": 108,
      "chip": "ym2612"
    },
    {
      "channel": 0,
      "note": 46,
      "start": 53.3366,
      "duration": 0.0155,
      "velocity": 1,
      "chip": "ym2612"
    },
    {
      "channel": 4,
      "note": 81,
      "start": 53.3391,
      "duration": 0.0172,
      "velocity": 98,
      "chip": "ym2612"
    },
    {
      "channel": 3,
      "note": 85,
      "start": 53.3403,
      "duration": 0.0171,
      "velocity": 98,
      "chip": "ym2612"
    },
    {
      "channel": 2,
      "note": 57,
      "start": 53.3416,
      "duration": 0.017,
      "velocity": 93,
      "chip": "ym2612"
    },
    {
      "channel": 1,
      "note": 73,
      "start": 53.3428,
      "duration": 0.017,
      "velocity": 108,
      "chip": "ym2612"
    },
    {
      "channel": 5,
      "note": 73,
      "start": 53.3551,
      "duration": 0.0135,
      "velocity": 108,
      "chip": "ym2612"
    },
    {
      "channel": 4,
      "note": 81,
      "start": 53.3563,
      "duration": 0.0135,
      "velocity": 98,
      "chip": "ym2612"
    },
    {
      "channel": 3,
      "note": 85,
      "start": 53.3574,
      "duration": 0.0135,
      "velocity": 98,
      "chip": "ym2612"
    },
    {
      "channel": 2,
      "note": 57,
      "start": 53.3585,
      "duration": 0.0136,
      "velocity": 93,
      "chip": "ym2612"
    },
    {
      "channel": 1,
      "note": 73,
      "start": 53.3598,
      "duration": 0.0135,
      "velocity": 108,
      "chip": "ym2612"
    },
    {
      "channel": 5,
      "note": 73,
      "start": 53.3685,
      "duration": 0.0157,
      "velocity": 108,
      "chip": "ym2612"
    },
    {
      "channel": 4,
      "note": 81,
      "start": 53.3698,
      "duration": 0.016,
      "velocity": 98,
      "chip": "ym2612"
    },
    {
      "channel": 3,
      "note": 85,
      "start": 53.371,
      "duration": 0.016,
      "velocity": 98,
      "chip": "ym2612"
    },
    {
      "channel": 2,
      "note": 57,
      "start": 53.3721,
      "duration": 0.016,
      "velocity": 93,
      "chip": "ym2612"
    },
    {
      "channel": 1,
      "note": 73,
      "start": 53.3732,
      "duration": 0.016,
      "velocity": 108,
      "chip": "ym2612"
    },
    {
      "channel": 5,
      "note": 73,
      "start": 53.3843,
      "duration": 0.0159,
      "velocity": 108,
      "chip": "ym2612"
    },
    {
      "channel": 4,
      "note": 81,
      "start": 53.3858,
      "duration": 0.0161,
      "velocity": 98,
      "chip": "ym2612"
    },
    {
      "channel": 3,
      "note": 85,
      "start": 53.387,
      "duration": 0.0161,
      "velocity": 98,
      "chip": "ym2612"
    },
    {
      "channel": 2,
      "note": 57,
      "start": 53.3881,
      "duration": 0.0161,
      "velocity": 93,
      "chip": "ym2612"
    },
    {
      "channel": 1,
      "note": 73,
      "start": 53.3893,
      "duration": 0.0162,
      "velocity": 108,
      "chip": "ym2612"
    },
    {
      "channel": 5,
      "note": 73,
      "start": 53.4002,
      "duration": 0.0161,
      "velocity": 108,
      "chip": "ym2612"
    },
    {
      "channel": 4,
      "note": 81,
      "start": 53.4019,
      "duration": 0.0158,
      "velocity": 98,
      "chip": "ym2612"
    },
    {
      "channel": 3,
      "note": 85,
      "start": 53.4031,
      "duration": 0.0162,
      "velocity": 98,
      "chip": "ym2612"
    },
    {
      "channel": 2,
      "note": 57,
      "start": 53.4042,
      "duration": 0.0161,
      "velocity": 93,
      "chip": "ym2612"
    },
    {
      "channel": 1,
      "note": 73,
      "start": 53.4054,
      "duration": 0.0161,
      "velocity": 108,
      "chip": "ym2612"
    },
    {
      "channel": 5,
      "note": 73,
      "start": 53.4163,
      "duration": 0.0161,
      "velocity": 108,
      "chip": "ym2612"
    },
    {
      "channel": 4,
      "note": 81,
      "start": 53.4177,
      "duration": 0.0159,
      "velocity": 98,
      "chip": "ym2612"
    },
    {
      "channel": 3,
      "note": 85,
      "start": 53.4193,
      "duration": 0.016,
      "velocity": 98,
      "chip": "ym2612"
    },
    {
      "channel": 2,
      "note": 57,
      "start": 53.4204,
      "duration": 0.0161,
      "velocity": 93,
      "chip": "ym2612"
    },
    {
      "channel": 1,
      "note": 73,
      "start": 53.4215,
      "duration": 0.0161,
      "velocity": 108,
      "chip": "ym2612"
    },
    {
      "channel": 5,
      "note": 73,
      "start": 53.4324,
      "duration": 0.0161,
      "velocity": 108,
      "chip": "ym2612"
    },
    {
      "channel": 4,
      "note": 81,
      "start": 53.4336,
      "duration": 0.0161,
      "velocity": 98,
      "chip": "ym2612"
    },
    {
      "channel": 3,
      "note": 85,
      "start": 53.4353,
      "duration": 0.0158,
      "velocity": 98,
      "chip": "ym2612"
    },
    {
      "channel": 2,
      "note": 57,
      "start": 53.4365,
      "duration": 0.0161,
      "velocity": 93,
      "chip": "ym2612"
    },
    {
      "channel": 1,
      "note": 73,
      "start": 53.4376,
      "duration": 0.0162,
      "velocity": 108,
      "chip": "ym2612"
    },
    {
      "channel": 5,
      "note": 73,
      "start": 53.4484,
      "duration": 0.0161,
      "velocity": 108,
      "chip": "ym2612"
    },
    {
      "channel": 4,
      "note": 81,
      "start": 53.4497,
      "duration": 0.0161,
      "velocity": 98,
      "chip": "ym2612"
    },
    {
      "channel": 3,
      "note": 85,
      "start": 53.451,
      "duration": 0.016,
      "velocity": 98,
      "chip": "ym2612"
    },
    {
      "channel": 2,
      "note": 57,
      "start": 53.4526,
      "duration": 0.0163,
      "velocity": 93,
      "chip": "ym2612"
    },
    {
      "channel": 1,
      "note": 73,
      "start": 53.4538,
      "duration": 0.0164,
      "velocity": 108,
      "chip": "ym2612"
    },
    {
      "channel": 5,
      "note": 73,
      "start": 53.4645,
      "duration": 0.0161,
      "velocity": 108,
      "chip": "ym2612"
    },
    {
      "channel": 4,
      "note": 81,
      "start": 53.4658,
      "duration": 0.0161,
      "velocity": 98,
      "chip": "ym2612"
    },
    {
      "channel": 3,
      "note": 85,
      "start": 53.4671,
      "duration": 0.016,
      "velocity": 98,
      "chip": "ym2612"
    },
    {
      "channel": 2,
      "note": 57,
      "start": 53.4689,
      "duration": 0.016,
      "velocity": 93,
      "chip": "ym2612"
    },
    {
      "channel": 1,
      "note": 73,
      "start": 53.4702,
      "duration": 0.016,
      "velocity": 108,
      "chip": "ym2612"
    },
    {
      "channel": 5,
      "note": 73,
      "start": 53.4806,
      "duration": 0.0162,
      "velocity": 108,
      "chip": "ym2612"
    },
    {
      "channel": 4,
      "note": 81,
      "start": 53.4819,
      "duration": 0.0162,
      "velocity": 98,
      "chip": "ym2612"
    },
    {
      "channel": 3,
      "note": 85,
      "start": 53.4831,
      "duration": 0.0162,
      "velocity": 98,
      "chip": "ym2612"
    },
    {
      "channel": 2,
      "note": 57,
      "start": 53.4849,
      "duration": 0.0159,
      "velocity": 93,
      "chip": "ym2612"
    },
    {
      "channel": 1,
      "note": 73,
      "start": 53.4862,
      "duration": 0.0162,
      "velocity": 108,
      "chip": "ym2612"
    },
    {
      "channel": 5,
      "note": 73,
      "start": 53.4968,
      "duration": 0.0196,
      "velocity": 108,
      "chip": "ym2612"
    },
    {
      "channel": 4,
      "note": 81,
      "start": 53.4981,
      "duration": 0.02,
      "velocity": 98,
      "chip": "ym2612"
    },
    {
      "channel": 3,
      "note": 85,
      "start": 53.4993,
      "duration": 0.02,
      "velocity": 98,
      "chip": "ym2612"
    },
    {
      "channel": 2,
      "note": 57,
      "start": 53.5008,
      "duration": 0.0198,
      "velocity": 93,
      "chip": "ym2612"
    },
    {
      "channel": 1,
      "note": 73,
      "start": 53.5024,
      "duration": 0.0193,
      "velocity": 108,
      "chip": "ym2612"
    },
    {
      "channel": 0,
      "note": 36,
      "start": 53.5152,
      "duration": 0.0143,
      "velocity": 115,
      "chip": "ym2612"
    },
    {
      "channel": 5,
      "note": 73,
      "start": 53.5164,
      "duration": 0.0143,
      "velocity": 108,
      "chip": "ym2612"
    },
    {
      "channel": 4,
      "note": 81,
      "start": 53.5182,
      "duration": 0.0138,
      "velocity": 98,
      "chip": "ym2612"
    },
    {
      "channel": 3,
      "note": 85,
      "start": 53.5194,
      "duration": 0.0138,
      "velocity": 98,
      "chip": "ym2612"
    },
    {
      "channel": 2,
      "note": 57,
      "start": 53.5206,
      "duration": 0.0142,
      "velocity": 93,
      "chip": "ym2612"
    },
    {
      "channel": 1,
      "note": 73,
      "start": 53.5217,
      "duration": 0.0144,
      "velocity": 108,
      "chip": "ym2612"
    },
    {
      "channel": 0,
      "note": 36,
      "start": 53.5295,
      "duration": 0.016,
      "velocity": 115,
      "chip": "ym2612"
    },
    {
      "channel": 5,
      "note": 73,
      "start": 53.5308,
      "duration": 0.016,
      "velocity": 108,
      "chip": "ym2612"
    },
    {
      "channel": 4,
      "note": 81,
      "start": 53.532,
      "duration": 0.016,
      "velocity": 98,
      "chip": "ym2612"
    },
    {
      "channel": 3,
      "note": 85,
      "start": 53.5332,
      "duration": 0.0159,
      "velocity": 98,
      "chip": "ym2612"
    },
    {
      "channel": 2,
      "note": 57,
      "start": 53.5348,
      "duration": 0.0155,
      "velocity": 93,
      "chip": "ym2612"
    },
    {
      "channel": 1,
      "note": 73,
      "start": 53.5361,
      "duration": 0.0159,
      "velocity": 108,
      "chip": "ym2612"
    },
    {
      "channel": 0,
      "note": 37,
      "start": 53.5456,
      "duration": 0.0161,
      "velocity": 115,
      "chip": "ym2612"
    },
    {
      "channel": 5,
      "note": 73,
      "start": 53.5467,
      "duration": 0.0161,
      "velocity": 108,
      "chip": "ym2612"
    },
    {
      "channel": 4,
      "note": 81,
      "start": 53.5479,
      "duration": 0.0161,
      "velocity": 98,
      "chip": "ym2612"
    },
    {
      "channel": 3,
      "note": 85,
      "start": 53.5491,
      "duration": 0.0162,
      "velocity": 98,
      "chip": "ym2612"
    },
    {
      "channel": 2,
      "note": 57,
      "start": 53.5503,
      "duration": 0.0161,
      "velocity": 93,
      "chip": "ym2612"
    },
    {
      "channel": 1,
      "note": 73,
      "start": 53.552,
      "duration": 0.0161,
      "velocity": 108,
      "chip": "ym2612"
    },
    {
      "channel": 0,
      "note": 37,
      "start": 53.5617,
      "duration": 0.0161,
      "velocity": 115,
      "chip": "ym2612"
    },
    {
      "channel": 5,
      "note": 73,
      "start": 53.5629,
      "duration": 0.0161,
      "velocity": 108,
      "chip": "ym2612"
    },
    {
      "channel": 4,
      "note": 81,
      "start": 53.564,
      "duration": 0.0161,
      "velocity": 98,
      "chip": "ym2612"
    },
    {
      "channel": 3,
      "note": 85,
      "start": 53.5652,
      "duration": 0.0162,
      "velocity": 98,
      "chip": "ym2612"
    },
    {
      "channel": 2,
      "note": 57,
      "start": 53.5664,
      "duration": 0.0163,
      "velocity": 93,
      "chip": "ym2612"
    },
    {
      "channel": 1,
      "note": 73,
      "start": 53.5681,
      "duration": 0.016,
      "velocity": 108,
      "chip": "ym2612"
    },
    {
      "channel": 0,
      "note": 38,
      "start": 53.5778,
      "duration": 0.0161,
      "velocity": 115,
      "chip": "ym2612"
    },
    {
      "channel": 5,
      "note": 73,
      "start": 53.579,
      "duration": 0.0161,
      "velocity": 108,
      "chip": "ym2612"
    },
    {
      "channel": 4,
      "note": 81,
      "start": 53.5802,
      "duration": 0.0162,
      "velocity": 98,
      "chip": "ym2612"
    },
    {
      "channel": 3,
      "note": 85,
      "start": 53.5815,
      "duration": 0.0162,
      "velocity": 98,
      "chip": "ym2612"
    },
    {
      "channel": 2,
      "note": 57,
      "start": 53.5827,
      "duration": 0.0162,
      "velocity": 93,
      "chip": "ym2612"
    },
    {
      "channel": 1,
      "note": 73,
      "start": 53.5841,
      "duration": 0.016,
      "velocity": 108,
      "chip": "ym2612"
    },
    {
      "channel": 0,
      "note": 38,
      "start": 53.5939,
      "duration": 0.018,
      "velocity": 124,
      "chip": "ym2612"
    },
    {
      "channel": 5,
      "note": 73,
      "start": 53.5951,
      "duration": 0.018,
      "velocity": 108,
      "chip": "ym2612"
    },
    {
      "channel": 2,
      "note": 57,
      "start": 53.5989,
      "duration": 0.0188,
      "velocity": 93,
      "chip": "ym2612"
    },
    {
      "channel": 0,
      "note": 84,
      "start": 53.6119,
      "duration": 0.0143,
      "velocity": 124,
      "chip": "ym2612"
    },
    {
      "channel": 5,
      "note": 73,
      "start": 53.6131,
      "duration": 0.0143,
      "velocity": 108,
      "chip": "ym2612"
    },
    {
      "channel": 4,
      "note": 81,
      "start": 53.6145,
      "duration": 0.0141,
      "velocity": 98,
      "chip": "ym2612"
    },
    {
      "channel": 3,
      "note": 85,
      "start": 53.616,
      "duration": 0.0139,
      "velocity": 98,
      "chip": "ym2612"
    },
    {
      "channel": 2,
      "note": 57,
      "start": 53.6177,
      "duration": 0.0134,
      "velocity": 93,
      "chip": "ym2612"
    },
    {
      "channel": 1,
      "note": 73,
      "start": 53.6196,
      "duration": 0.0128,
      "velocity": 108,
      "chip": "ym2612"
    },
    {
      "channel": 0,
      "note": 82,
      "start": 53.6261,
      "duration": 0.0161,
      "velocity": 124,
      "chip": "ym2612"
    },
    {
      "channel": 4,
      "note": 81,
      "start": 53.6287,
      "duration": 0.0161,
      "velocity": 98,
      "chip": "ym2612"
    },
    {
      "channel": 3,
      "note": 85,
      "start": 53.6299,
      "duration": 0.0161,
      "velocity": 98,
      "chip": "ym2612"
    },
    {
      "channel": 2,
      "note": 57,
      "start": 53.6311,
      "duration": 0.0161,
      "velocity": 93,
      "chip": "ym2612"
    },
    {
      "channel": 1,
      "note": 73,
      "start": 53.6324,
      "duration": 0.016,
      "velocity": 108,
      "chip": "ym2612"
    },
    {
      "channel": 0,
      "note": 80,
      "start": 53.6422,
      "duration": 0.0161,
      "velocity": 124,
      "chip": "ym2612"
    },
    {
      "channel": 5,
      "note": 73,
      "start": 53.6437,
      "duration": 0.0159,
      "velocity": 108,
      "chip": "ym2612"
    },
    {
      "channel": 4,
      "note": 81,
      "start": 53.6448,
      "duration": 0.0159,
      "velocity": 98,
      "chip": "ym2612"
    },
    {
      "channel": 3,
      "note": 85,
      "start": 53.646,
      "duration": 0.0159,
      "velocity": 98,
      "chip": "ym2612"
    },
    {
      "channel": 2,
      "note": 57,
      "start": 53.6472,
      "duration": 0.0159,
      "velocity": 93,
      "chip": "ym2612"
    },
    {
      "channel": 1,
      "note": 73,
      "start": 53.6483,
      "duration": 0.0159,
      "velocity": 108,
      "chip": "ym2612"
    },
    {
      "channel": 0,
      "note": 77,
      "start": 53.6583,
      "duration": 0.0161,
      "velocity": 124,
      "chip": "ym2612"
    },
    {
      "channel": 5,
      "note": 73,
      "start": 53.6595,
      "duration": 0.016,
      "velocity": 108,
      "chip": "ym2612"
    },
    {
      "channel": 4,
      "note": 81,
      "start": 53.6607,
      "duration": 0.016,
      "velocity": 98,
      "chip": "ym2612"
    },
    {
      "channel": 3,
      "note": 85,
      "start": 53.6619,
      "duration": 0.016,
      "velocity": 98,
      "chip": "ym2612"
    },
    {
      "channel": 2,
      "note": 57,
      "start": 53.663,
      "duration": 0.016,
      "velocity": 93,
      "chip": "ym2612"
    },
    {
      "channel": 1,
      "note": 73,
      "start": 53.6642,
      "duration": 0.016,
      "velocity": 108,
      "chip": "ym2612"
    },
    {
      "channel": 0,
      "note": 75,
      "start": 53.6744,
      "duration": 0.0161,
      "velocity": 124,
      "chip": "ym2612"
    },
    {
      "channel": 5,
      "note": 73,
      "start": 53.6755,
      "duration": 0.0161,
      "velocity": 108,
      "chip": "ym2612"
    },
    {
      "channel": 4,
      "note": 81,
      "start": 53.6768,
      "duration": 0.0161,
      "velocity": 98,
      "chip": "ym2612"
    },
    {
      "channel": 3,
      "note": 85,
      "start": 53.6779,
      "duration": 0.0161,
      "velocity": 98,
      "chip": "ym2612"
    },
    {
      "channel": 2,
      "note": 57,
      "start": 53.679,
      "duration": 0.0161,
      "velocity": 93,
      "chip": "ym2612"
    },
    {
      "channel": 1,
      "note": 73,
      "start": 53.6802,
      "duration": 0.0161,
      "velocity": 108,
      "chip": "ym2612"
    },
    {
      "channel": 0,
      "note": 72,
      "start": 53.6905,
      "duration": 0.0161,
      "velocity": 124,
      "chip": "ym2612"
    },
    {
      "channel": 5,
      "note": 73,
      "start": 53.6916,
      "duration": 0.0161,
      "velocity": 108,
      "chip": "ym2612"
    },
    {
      "channel": 4,
      "note": 81,
      "start": 53.6929,
      "duration": 0.0161,
      "velocity": 98,
      "chip": "ym2612"
    },
    {
      "channel": 3,
      "note": 85,
      "start": 53.694,
      "duration": 0.0162,
      "velocity": 98,
      "chip": "ym2612"
    },
    {
      "channel": 2,
      "note": 57,
      "start": 53.6951,
      "duration": 0.0161,
      "velocity": 93,
      "chip": "ym2612"
    },
    {
      "channel": 1,
      "note": 73,
      "start": 53.6963,
      "duration": 0.0161,
      "velocity": 108,
      "chip": "ym2612"
    },
    {
      "channel": 0,
      "note": 70,
      "start": 53.7066,
      "duration": 0.0161,
      "velocity": 124,
      "chip": "ym2612"
    },
    {
      "channel": 5,
      "note": 73,
      "start": 53.7077,
      "duration": 0.0162,
      "velocity": 108,
      "chip": "ym2612"
    },
    {
      "channel": 4,
      "note": 81,
      "start": 53.7089,
      "duration": 0.0161,
      "velocity": 98,
      "chip": "ym2612"
    },
    {
      "channel": 3,
      "note": 85,
      "start": 53.7102,
      "duration": 0.0161,
      "velocity": 98,
      "chip": "ym2612"
    },
    {
      "channel": 2,
      "note": 57,
      "start": 53.7113,
      "duration": 0.0161,
      "velocity": 93,
      "chip": "ym2612"
    },
    {
      "channel": 1,
      "note": 73,
      "start": 53.7124,
      "duration": 0.0161,
      "velocity": 108,
      "chip": "ym2612"
    },
    {
      "channel": 0,
      "note": 68,
      "start": 53.7227,
      "duration": 0.0161,
      "velocity": 124,
      "chip": "ym2612"
    },
    {
      "channel": 5,
      "note": 73,
      "start": 53.7239,
      "duration": 0.0161,
      "velocity": 108,
      "chip": "ym2612"
    },
    {
      "channel": 4,
      "note": 81,
      "start": 53.725,
      "duration": 0.0161,
      "velocity": 98,
      "chip": "ym2612"
    },
    {
      "channel": 3,
      "note": 85,
      "start": 53.7262,
      "duration": 0.0161,
      "velocity": 98,
      "chip": "ym2612"
    },
    {
      "channel": 2,
      "note": 57,
      "start": 53.7274,
      "duration": 0.0161,
      "velocity": 93,
      "chip": "ym2612"
    },
    {
      "channel": 1,
      "note": 73,
      "start": 53.7286,
      "duration": 0.0161,
      "velocity": 108,
      "chip": "ym2612"
    },
    {
      "channel": 0,
      "note": 65,
      "start": 53.7388,
      "duration": 0.0161,
      "velocity": 124,
      "chip": "ym2612"
    },
    {
      "channel": 5,
      "note": 73,
      "start": 53.74,
      "duration": 0.0161,
      "velocity": 108,
      "chip": "ym2612"
    },
    {
      "channel": 4,
      "note": 81,
      "start": 53.7411,
      "duration": 0.0162,
      "velocity": 98,
      "chip": "ym2612"
    },
    {
      "channel": 3,
      "note": 85,
      "start": 53.7423,
      "duration": 0.0163,
      "velocity": 98,
      "chip": "ym2612"
    },
    {
      "channel": 2,
      "note": 57,
      "start": 53.7435,
      "duration": 0.0163,
      "velocity": 93,
      "chip": "ym2612"
    },
    {
      "channel": 1,
      "note": 73,
      "start": 53.7447,
      "duration": 0.0163,
      "velocity": 108,
      "chip": "ym2612"
    },
    {
      "channel": 0,
      "note": 63,
      "start": 53.7549,
      "duration": 0.0153,
      "velocity": 1,
      "chip": "ym2612"
    },
    {
      "channel": 5,
      "note": 73,
      "start": 53.7561,
      "duration": 0.0153,
      "velocity": 108,
      "chip": "ym2612"
    },
    {
      "channel": 4,
      "note": 81,
      "start": 53.7573,
      "duration": 0.0152,
      "velocity": 98,
      "chip": "ym2612"
    },
    {
      "channel": 3,
      "note": 85,
      "start": 53.7586,
      "duration": 0.0152,
      "velocity": 98,
      "chip": "ym2612"
    },
    {
      "channel": 2,
      "note": 57,
      "start": 53.7598,
      "duration": 0.0152,
      "velocity": 93,
      "chip": "ym2612"
    },
    {
      "channel": 1,
      "note": 73,
      "start": 53.761,
      "duration": 0.0152,
      "velocity": 108,
      "chip": "ym2612"
    },
    {
      "channel": 5,
      "note": 73,
      "start": 53.7713,
      "duration": 0.0154,
      "velocity": 108,
      "chip": "ym2612"
    },
    {
      "channel": 4,
      "note": 81,
      "start": 53.7726,
      "duration": 0.0154,
      "velocity": 98,
      "chip": "ym2612"
    },
    {
      "channel": 3,
      "note": 85,
      "start": 53.7738,
      "duration": 0.0154,
      "velocity": 98,
      "chip": "ym2612"
    },
    {
      "channel": 2,
      "note": 57,
      "start": 53.775,
      "duration": 0.0155,
      "velocity": 93,
      "chip": "ym2612"
    },
    {
      "channel": 1,
      "note": 73,
      "start": 53.7762,
      "duration": 0.0155,
      "velocity": 108,
      "chip": "ym2612"
    },
    {
      "channel": 5,
      "note": 73,
      "start": 53.7867,
      "duration": 0.0163,
      "velocity": 108,
      "chip": "ym2612"
    },
    {
      "channel": 4,
      "note": 81,
      "start": 53.788,
      "duration": 0.0162,
      "velocity": 98,
      "chip": "ym2612"
    },
    {
      "channel": 3,
      "note": 85,
      "start": 53.7892,
      "duration": 0.0162,
      "velocity": 98,
      "chip": "ym2612"
    },
    {
      "channel": 2,
      "note": 57,
      "start": 53.7905,
      "duration": 0.0161,
      "velocity": 93,
      "chip": "ym2612"
    },
    {
      "channel": 1,
      "note": 73,
      "start": 53.7917,
      "duration": 0.0161,
      "velocity": 108,
      "chip": "ym2612"
    },
    {
      "channel": 5,
      "note": 73,
      "start": 53.8031,
      "duration": 0.0163,
      "velocity": 108,
      "chip": "ym2612"
    },
    {
      "channel": 4,
      "note": 81,
      "start": 53.8042,
      "duration": 0.0163,
      "velocity": 98,
      "chip": "ym2612"
    },
    {
      "channel": 3,
      "note": 85,
      "start": 53.8054,
      "duration": 0.0163,
      "velocity": 98,
      "chip": "ym2612"
    },
    {
      "channel": 2,
      "note": 57,
      "start": 53.8066,
      "duration": 0.0163,
      "velocity": 93,
      "chip": "ym2612"
    },
    {
      "channel": 1,
      "note": 73,
      "start": 53.8078,
      "duration": 0.0163,
      "velocity": 108,
      "chip": "ym2612"
    },
    {
      "channel": 5,
      "note": 73,
      "start": 53.8194,
      "duration": 0.016,
      "velocity": 108,
      "chip": "ym2612"
    },
    {
      "channel": 4,
      "note": 81,
      "start": 53.8206,
      "duration": 0.0161,
      "velocity": 98,
      "chip": "ym2612"
    },
    {
      "channel": 3,
      "note": 85,
      "start": 53.8218,
      "duration": 0.0161,
      "velocity": 98,
      "chip": "ym2612"
    },
    {
      "channel": 2,
      "note": 57,
      "start": 53.8229,
      "duration": 0.0161,
      "velocity": 93,
      "chip": "ym2612"
    },
    {
      "channel": 1,
      "note": 73,
      "start": 53.8241,
      "duration": 0.016,
      "velocity": 108,
      "chip": "ym2612"
    },
    {
      "channel": 5,
      "note": 73,
      "start": 53.8355,
      "duration": 0.016,
      "velocity": 108,
      "chip": "ym2612"
    },
    {
      "channel": 4,
      "note": 81,
      "start": 53.8367,
      "duration": 0.0161,
      "velocity": 98,
      "chip": "ym2612"
    },
    {
      "channel": 3,
      "note": 85,
      "start": 53.8379,
      "duration": 0.0161,
      "velocity": 98,
      "chip": "ym2612"
    },
    {
      "channel": 2,
      "note": 57,
      "start": 53.839,
      "duration": 0.0161,
      "velocity": 93,
      "chip": "ym2612"
    },
    {
      "channel": 1,
      "note": 73,
      "start": 53.8402,
      "duration": 0.0161,
      "velocity": 108,
      "chip": "ym2612"
    },
    {
      "channel": 5,
      "note": 73,
      "start": 53.8515,
      "duration": 0.0156,
      "velocity": 108,
      "chip": "ym2612"
    },
    {
      "channel": 4,
      "note": 81,
      "start": 53.8528,
      "duration": 0.0162,
      "velocity": 98,
      "chip": "ym2612"
    },
    {
      "channel": 3,
      "note": 85,
      "start": 53.854,
      "duration": 0.0162,
      "velocity": 98,
      "chip": "ym2612"
    },
    {
      "channel": 2,
      "note": 57,
      "start": 53.8551,
      "duration": 0.0163,
      "velocity": 93,
      "chip": "ym2612"
    },
    {
      "channel": 1,
      "note": 73,
      "start": 53.8563,
      "duration": 0.0163,
      "velocity": 108,
      "chip": "ym2612"
    },
    {
      "channel": 5,
      "note": 73,
      "start": 53.8671,
      "duration": 0.0161,
      "velocity": 108,
      "chip": "ym2612"
    },
    {
      "channel": 4,
      "note": 81,
      "start": 53.8689,
      "duration": 0.0161,
      "velocity": 98,
      "chip": "ym2612"
    },
    {
      "channel": 3,
      "note": 85,
      "start": 53.8702,
      "duration": 0.0161,
      "velocity": 98,
      "chip": "ym2612"
    },
    {
      "channel": 2,
      "note": 57,
      "start": 53.8714,
      "duration": 0.0162,
      "velocity": 93,
      "chip": "ym2612"
    },
    {
      "channel": 1,
      "note": 73,
      "start": 53.8726,
      "duration": 0.0162,
      "velocity": 108,
      "chip": "ym2612"
    },
    {
      "channel": 5,
      "note": 73,
      "start": 53.8832,
      "duration": 0.0203,
      "velocity": 108,
      "chip": "ym2612"
    },
    {
      "channel": 2,
      "note": 57,
      "start": 53.8876,
      "duration": 0.0204,
      "velocity": 93,
      "chip": "ym2612"
    },
    {
      "channel": 0,
      "note": 36,
      "start": 53.9023,
      "duration": 0.0137,
      "velocity": 115,
      "chip": "ym2612"
    },
    {
      "channel": 5,
      "note": 73,
      "start": 53.9035,
      "duration": 0.0137,
      "velocity": 108,
      "chip": "ym2612"
    },
    {
      "channel": 4,
      "note": 81,
      "start": 53.905,
      "duration": 0.0141,
      "velocity": 98,
      "chip": "ym2612"
    },
    {
      "channel": 3,
      "note": 85,
      "start": 53.9065,
      "duration": 0.0138,
      "velocity": 98,
      "chip": "ym2612"
    },
    {
      "channel": 2,
      "note": 57,
      "start": 53.908,
      "duration": 0.0135,
      "velocity": 93,
      "chip": "ym2612"
    },
    {
      "channel": 1,
      "note": 73,
      "start": 53.9096,
      "duration": 0.0132,
      "velocity": 108,
      "chip": "ym2612"
    },
    {
      "channel": 0,
      "note": 36,
      "start": 53.9159,
      "duration": 0.0161,
      "velocity": 115,
      "chip": "ym2612"
    },
    {
      "channel": 4,
      "note": 81,
      "start": 53.919,
      "duration": 0.0162,
      "velocity": 98,
      "chip": "ym2612"
    },
    {
      "channel": 3,
      "note": 85,
      "start": 53.9203,
      "duration": 0.0161,
      "velocity": 98,
      "chip": "ym2612"
    },
    {
      "channel": 2,
      "note": 57,
      "start": 53.9215,
      "duration": 0.0161,
      "velocity": 93,
      "chip": "ym2612"
    },
    {
      "channel": 1,
      "note": 73,
      "start": 53.9227,
      "duration": 0.016,
      "velocity": 108,
      "chip": "ym2612"
    },
    {
      "channel": 0,
      "note": 37,
      "start": 53.932,
      "duration": 0.0161,
      "velocity": 115,
      "chip": "ym2612"
    },
    {
      "channel": 5,
      "note": 73,
      "start": 53.9335,
      "duration": 0.0159,
      "velocity": 108,
      "chip": "ym2612"
    },
    {
      "channel": 4,
      "note": 81,
      "start": 53.9352,
      "duration": 0.0153,
      "velocity": 98,
      "chip": "ym2612"
    },
    {
      "channel": 3,
      "note": 85,
      "start": 53.9364,
      "duration": 0.0159,
      "velocity": 98,
      "chip": "ym2612"
    },
    {
      "channel": 2,
      "note": 57,
      "start": 53.9376,
      "duration": 0.0158,
      "velocity": 93,
      "chip": "ym2612"
    },
    {
      "channel": 1,
      "note": 73,
      "start": 53.9388,
      "duration": 0.0159,
      "velocity": 108,
      "chip": "ym2612"
    },
    {
      "channel": 0,
      "note": 37,
      "start": 53.9481,
      "duration": 0.0161,
      "velocity": 115,
      "chip": "ym2612"
    },
    {
      "channel": 5,
      "note": 73,
      "start": 53.9493,
      "duration": 0.016,
      "velocity": 108,
      "chip": "ym2612"
    },
    {
      "channel": 4,
      "note": 81,
      "start": 53.9505,
      "duration": 0.016,
      "velocity": 98,
      "chip": "ym2612"
    },
    {
      "channel": 3,
      "note": 85,
      "start": 53.9523,
      "duration": 0.016,
      "velocity": 98,
      "chip": "ym2612"
    },
    {
      "channel": 2,
      "note": 57,
      "start": 53.9534,
      "duration": 0.0161,
      "velocity": 93,
      "chip": "ym2612"
    },
    {
      "channel": 1,
      "note": 73,
      "start": 53.9546,
      "duration": 0.016,
      "velocity": 108,
      "chip": "ym2612"
    },
    {
      "channel": 0,
      "note": 38,
      "start": 53.9642,
      "duration": 0.0161,
      "velocity": 115,
      "chip": "ym2612"
    },
    {
      "channel": 5,
      "note": 73,
      "start": 53.9654,
      "duration": 0.0161,
      "velocity": 108,
      "chip": "ym2612"
    },
    {
      "channel": 4,
      "note": 81,
      "start": 53.9665,
      "duration": 0.0162,
      "velocity": 98,
      "chip": "ym2612"
    },
    {
      "channel": 3,
      "note": 85,
      "start": 53.9682,
      "duration": 0.0156,
      "velocity": 98,
      "chip": "ym2612"
    },
    {
      "channel": 2,
      "note": 57,
      "start": 53.9695,
      "duration": 0.016,
      "velocity": 93,
      "chip": "ym2612"
    },
    {
      "channel": 1,
      "note": 73,
      "start": 53.9706,
      "duration": 0.0161,
      "velocity": 108,
      "chip": "ym2612"
    },
    {
      "channel": 0,
      "note": 38,
      "start": 53.9803,
      "duration": 0.0161,
      "velocity": 115,
      "chip": "ym2612"
    },
    {
      "channel": 5,
      "note": 73,
      "start": 53.9815,
      "duration": 0.0161,
      "velocity": 108,
      "chip": "ym2612"
    },
    {
      "channel": 4,
      "note": 81,
      "start": 53.9827,
      "duration": 0.0161,
      "velocity": 98,
      "chip": "ym2612"
    },
    {
      "channel": 3,
      "note": 85,
      "start": 53.9838,
      "duration": 0.0162,
      "velocity": 98,
      "chip": "ym2612"
    },
    {
      "channel": 2,
      "note": 57,
      "start": 53.9855,
      "duration": 0.0161,
      "velocity": 93,
      "chip": "ym2612"
    },
    {
      "channel": 1,
      "note": 73,
      "start": 53.9867,
      "duration": 0.0162,
      "velocity": 108,
      "chip": "ym2612"
    },
    {
      "channel": 0,
      "note": 39,
      "start": 53.9964,
      "duration": 0.0161,
      "velocity": 115,
      "chip": "ym2612"
    },
    {
      "channel": 5,
      "note": 73,
      "start": 53.9976,
      "duration": 0.0162,
      "velocity": 108,
      "chip": "ym2612"
    },
    {
      "channel": 4,
      "note": 81,
      "start": 53.9988,
      "duration": 0.0161,
      "velocity": 98,
      "chip": "ym2612"
    },
    {
      "channel": 3,
      "note": 85,
      "start": 54.0,
      "duration": 0.0161,
      "velocity": 98,
      "chip": "ym2612"
    },
    {
      "channel": 2,
      "note": 57,
      "start": 54.0016,
      "duration": 0.0158,
      "velocity": 93,
      "chip": "ym2612"
    },
    {
      "channel": 1,
      "note": 73,
      "start": 54.0029,
      "duration": 0.0161,
      "velocity": 108,
      "chip": "ym2612"
    },
    {
      "channel": 0,
      "note": 39,
      "start": 54.0125,
      "duration": 0.0161,
      "velocity": 115,
      "chip": "ym2612"
    },
    {
      "channel": 5,
      "note": 73,
      "start": 54.0137,
      "duration": 0.0161,
      "velocity": 108,
      "chip": "ym2612"
    },
    {
      "channel": 4,
      "note": 81,
      "start": 54.0149,
      "duration": 0.0161,
      "velocity": 98,
      "chip": "ym2612"
    },
    {
      "channel": 3,
      "note": 85,
      "start": 54.0161,
      "duration": 0.0161,
      "velocity": 98,
      "chip": "ym2612"
    },
    {
      "channel": 2,
      "note": 57,
      "start": 54.0175,
      "duration": 0.0159,
      "velocity": 93,
      "chip": "ym2612"
    },
    {
      "channel": 1,
      "note": 73,
      "start": 54.019,
      "duration": 0.016,
      "velocity": 108,
      "chip": "ym2612"
    },
    {
      "channel": 0,
      "note": 40,
      "start": 54.0286,
      "duration": 0.0161,
      "velocity": 115,
      "chip": "ym2612"
    },
    {
      "channel": 5,
      "note": 73,
      "start": 54.0298,
      "duration": 0.0161,
      "velocity": 108,
      "chip": "ym2612"
    },
    {
      "channel": 4,
      "note": 81,
      "start": 54.031,
      "duration": 0.0162,
      "velocity": 98,
      "chip": "ym2612"
    },
    {
      "channel": 3,
      "note": 85,
      "start": 54.0322,
      "duration": 0.0163,
      "velocity": 98,
      "chip": "ym2612"
    },
    {
      "channel": 2,
      "note": 57,
      "start": 54.0333,
      "duration": 0.0163,
      "velocity": 93,
      "chip": "ym2612"
    },
    {
      "channel": 1,
      "note": 73,
      "start": 54.035,
      "duration": 0.0161,
      "velocity": 108,
      "chip": "ym2612"
    },
    {
      "channel": 0,
      "note": 40,
      "start": 54.0447,
      "duration": 0.0161,
      "velocity": 115,
      "chip": "ym2612"
    },
    {
      "channel": 5,
      "note": 73,
      "start": 54.0459,
      "duration": 0.0161,
      "velocity": 108,
      "chip": "ym2612"
    },
    {
      "channel": 4,
      "note": 81,
      "start": 54.0472,
      "duration": 0.016,
      "velocity": 98,
      "chip": "ym2612"
    },
    {
      "channel": 3,
      "note": 85,
      "start": 54.0484,
      "duration": 0.016,
      "velocity": 98,
      "chip": "ym2612"
    },
    {
      "channel": 2,
      "note": 57,
      "start": 54.0497,
      "duration": 0.016,
      "velocity": 93,
      "chip": "ym2612"
    },
    {
      "channel": 1,
      "note": 73,
      "start": 54.0511,
      "duration": 0.0158,
      "velocity": 108,
      "chip": "ym2612"
    },
    {
      "channel": 0,
      "note": 40,
      "start": 54.0608,
      "duration": 0.0161,
      "velocity": 115,
      "chip": "ym2612"
    },
    {
      "channel": 5,
      "note": 73,
      "start": 54.062,
      "duration": 0.0161,
      "velocity": 108,
      "chip": "ym2612"
    },
    {
      "channel": 4,
      "note": 81,
      "start": 54.0632,
      "duration": 0.0162,
      "velocity": 98,
      "chip": "ym2612"
    },
    {
      "channel": 3,
      "note": 85,
      "start": 54.0645,
      "duration": 0.0162,
      "velocity": 98,
      "chip": "ym2612"
    },
    {
      "channel": 2,
      "note": 57,
      "start": 54.0657,
      "duration": 0.0162,
      "velocity": 93,
      "chip": "ym2612"
    },
    {
      "channel": 1,
      "note": 73,
      "start": 54.0669,
      "duration": 0.0162,
      "velocity": 108,
      "chip": "ym2612"
    },
    {
      "channel": 0,
      "note": 41,
      "start": 54.0769,
      "duration": 0.0161,
      "velocity": 115,
      "chip": "ym2612"
    },
    {
      "channel": 5,
      "note": 73,
      "start": 54.0781,
      "duration": 0.0161,
      "velocity": 108,
      "chip": "ym2612"
    },
    {
      "channel": 4,
      "note": 81,
      "start": 54.0794,
      "duration": 0.016,
      "velocity": 98,
      "chip": "ym2612"
    },
    {
      "channel": 3,
      "note": 85,
      "start": 54.0807,
      "duration": 0.0159,
      "velocity": 98,
      "chip": "ym2612"
    },
    {
      "channel": 2,
      "note": 57,
      "start": 54.0819,
      "duration": 0.0159,
      "velocity": 93,
      "chip": "ym2612"
    },
    {
      "channel": 0,
      "note": 41,
      "start": 54.093,
      "duration": 0.0161,
      "velocity": 115,
      "chip": "ym2612"
    },
    {
      "channel": 5,
      "note": 73,
      "start": 54.0942,
      "duration": 0.0161,
      "velocity": 108,
      "chip": "ym2612"
    },
    {
      "channel": 4,
      "note": 81,
      "start": 54.0954,
      "duration": 0.0161,
      "velocity": 98,
      "chip": "ym2612"
    },
    {
      "channel": 3,
      "note": 85,
      "start": 54.0966,
      "duration": 0.0162,
      "velocity": 98,
      "chip": "ym2612"
    },
    {
      "channel": 2,
      "note": 57,
      "start": 54.0978,
      "duration": 0.0161,
      "velocity": 93,
      "chip": "ym2612"
    },
    {
      "channel": 1,
      "note": 73,
      "start": 54.0993,
      "duration": 0.0158,
      "velocity": 108,
      "chip": "ym2612"
    },
    {
      "channel": 0,
      "note": 42,
      "start": 54.1091,
      "duration": 0.0161,
      "velocity": 115,
      "chip": "ym2612"
    },
    {
      "channel": 4,
      "note": 81,
      "start": 54.1115,
      "duration": 0.0163,
      "velocity": 98,
      "chip": "ym2612"
    },
    {
      "channel": 3,
      "note": 85,
      "start": 54.1128,
      "duration": 0.0163,
      "velocity": 98,
      "chip": "ym2612"
    },
    {
      "channel": 2,
      "note": 57,
      "start": 54.1139,
      "duration": 0.0163,
      "velocity": 93,
      "chip": "ym2612"
    },
    {
      "channel": 1,
      "note": 73,
      "start": 54.1151,
      "duration": 0.0163,
      "velocity": 108,
      "chip": "ym2612"
    },
    {
      "channel": 0,
      "note": 42,
      "start": 54.1252,
      "duration": 0.0161,
      "velocity": 115,
      "chip": "ym2612"
    },
    {
      "channel": 5,
      "note": 73,
      "start": 54.1267,
      "duration": 0.0158,
      "velocity": 108,
      "chip": "ym2612"
    },
    {
      "channel": 4,
      "note": 81,
      "start": 54.1279,
      "duration": 0.0159,
      "velocity": 98,
      "chip": "ym2612"
    },
    {
      "channel": 3,
      "note": 85,
      "start": 54.1291,
      "duration": 0.0158,
      "velocity": 98,
      "chip": "ym2612"
    },
    {
      "channel": 2,
      "note": 57,
      "start": 54.1302,
      "duration": 0.0159,
      "velocity": 93,
      "chip": "ym2612"
    },
    {
      "channel": 1,
      "note": 73,
      "start": 54.1315,
      "duration": 0.0158,
      "velocity": 108,
      "chip": "ym2612"
    },
    {
      "channel": 0,
      "note": 43,
      "start": 54.1413,
      "duration": 0.0161,
      "velocity": 115,
      "chip": "ym2612"
    },
    {
      "channel": 5,
      "note": 73,
      "start": 54.1425,
      "duration": 0.0161,
      "velocity": 108,
      "chip": "ym2612"
    },
    {
      "channel": 4,
      "note": 81,
      "start": 54.1437,
      "duration": 0.0161,
      "velocity": 98,
      "chip": "ym2612"
    },
    {
      "channel": 3,
      "note": 85,
      "start": 54.1449,
      "duration": 0.0162,
      "velocity": 98,
      "chip": "ym2612"
    },
    {
      "channel": 2,
      "note": 57,
      "start": 54.1461,
      "duration": 0.0162,
      "velocity": 93,
      "chip": "ym2612"
    },
    {
      "channel": 1,
      "note": 73,
      "start": 54.1472,
      "duration": 0.0163,
      "velocity": 108,
      "chip": "ym2612"
    },
    {
      "channel": 0,
      "note": 43,
      "start": 54.1574,
      "duration": 0.0161,
      "velocity": 115,
      "chip": "ym2612"
    },
    {
      "channel": 5,
      "note": 73,
      "start": 54.1586,
      "duration": 0.0161,
      "velocity": 108,
      "chip": "ym2612"
    },
    {
      "channel": 4,
      "note": 81,
      "start": 54.1598,
      "duration": 0.0161,
      "velocity": 98,
      "chip": "ym2612"
    },
    {
      "channel": 3,
      "note": 85,
      "start": 54.1611,
      "duration": 0.0161,
      "velocity": 98,
      "chip": "ym2612"
    },
    {
      "channel": 2,
      "note": 57,
      "start": 54.1623,
      "duration": 0.0162,
      "velocity": 93,
      "chip": "ym2612"
    },
    {
      "channel": 1,
      "note": 73,
      "start": 54.1635,
      "duration": 0.0162,
      "velocity": 108,
      "chip": "ym2612"
    },
    {
      "channel": 0,
      "note": 44,
      "start": 54.1735,
      "duration": 0.0179,
      "velocity": 124,
      "chip": "ym2612"
    },
    {
      "channel": 5,
      "note": 73,
      "start": 54.1747,
      "duration": 0.0179,
      "velocity": 108,
      "chip": "ym2612"
    },
    {
      "channel": 2,
      "note": 57,
      "start": 54.1785,
      "duration": 0.0186,
      "velocity": 93,
      "chip": "ym2612"
    },
    {
      "channel": 0,
      "note": 84,
      "start": 54.1915,
      "duration": 0.0142,
      "velocity": 124,
      "chip": "ym2612"
    },
    {
      "channel": 5,
      "note": 73,
      "start": 54.1927,
      "duration": 0.0143,
      "velocity": 108,
      "chip": "ym2612"
    },
    {
      "channel": 4,
      "note": 81,
      "start": 54.1942,
      "duration": 0.014,
      "velocity": 98,
      "chip": "ym2612"
    },
    {
      "channel": 3,
      "note": 85,
      "start": 54.1957,
      "duration": 0.0137,
      "velocity": 98,
      "chip": "ym2612"
    },
    {
      "channel": 2,
      "note": 57,
      "start": 54.1972,
      "duration": 0.0134,
      "velocity": 93,
      "chip": "ym2612"
    },
    {
      "channel": 1,
      "note": 75,
      "start": 54.1987,
      "duration": 0.0132,
      "velocity": 108,
      "chip": "ym2612"
    },
    {
      "channel": 0,
      "note": 82,
      "start": 54.2058,
      "duration": 0.0161,
      "velocity": 124,
      "chip": "ym2612"
    },
    {
      "channel": 4,
      "note": 81,
      "start": 54.2082,
      "duration": 0.0163,
      "velocity": 98,
      "chip": "ym2612"
    },
    {
      "channel": 3,
      "note": 85,
      "start": 54.2095,
      "duration": 0.0161,
      "velocity": 98,
      "chip": "ym2612"
    },
    {
      "channel": 2,
      "note": 57,
      "start": 54.2107,
      "duration": 0.0162,
      "velocity": 93,
      "chip": "ym2612"
    },
    {
      "channel": 1,
      "note": 75,
      "start": 54.2119,
      "duration": 0.0161,
      "velocity": 108,
      "chip": "ym2612"
    },
    {
      "channel": 0,
      "note": 80,
      "start": 54.2219,
      "duration": 0.0161,
      "velocity": 124,
      "chip": "ym2612"
    },
    {
      "channel": 5,
      "note": 75,
      "start": 54.2233,
      "duration": 0.0159,
      "velocity": 108,
      "chip": "ym2612"
    },
    {
      "channel": 4,
      "note": 81,
      "start": 54.2245,
      "duration": 0.0158,
      "velocity": 98,
      "chip": "ym2612"
    },
    {
      "channel": 3,
      "note": 85,
      "start": 54.2256,
      "duration": 0.0159,
      "velocity": 98,
      "chip": "ym2612"
    },
    {
      "channel": 2,
      "note": 57,
      "start": 54.2268,
      "duration": 0.0158,
      "velocity": 93,
      "chip": "ym2612"
    },
    {
      "channel": 1,
      "note": 75,
      "start": 54.228,
      "duration": 0.0159,
      "velocity": 108,
      "chip": "ym2612"
    },
    {
      "channel": 0,
      "note": 77,
      "start": 54.238,
      "duration": 0.0161,
      "velocity": 124,
      "chip": "ym2612"
    },
    {
      "channel": 5,
      "note": 75,
      "start": 54.2392,
      "duration": 0.0161,
      "velocity": 108,
      "chip": "ym2612"
    },
    {
      "channel": 4,
      "note": 81,
      "start": 54.2403,
      "duration": 0.0162,
      "velocity": 98,
      "chip": "ym2612"
    },
    {
      "channel": 3,
      "note": 85,
      "start": 54.2415,
      "duration": 0.0161,
      "velocity": 98,
      "chip": "ym2612"
    },
    {
      "channel": 2,
      "note": 57,
      "start": 54.2427,
      "duration": 0.0161,
      "velocity": 93,
      "chip": "ym2612"
    },
    {
      "channel": 1,
      "note": 75,
      "start": 54.2438,
      "duration": 0.0161,
      "velocity": 108,
      "chip": "ym2612"
    },
    {
      "channel": 0,
      "note": 75,
      "start": 54.2541,
      "duration": 0.0161,
      "velocity": 124,
      "chip": "ym2612"
    },
    {
      "channel": 5,
      "note": 75,
      "start": 54.2553,
      "duration": 0.0161,
      "velocity": 108,
      "chip": "ym2612"
    },
    {
      "channel": 4,
      "note": 81,
      "start": 54.2565,
      "duration": 0.0161,
      "velocity": 98,
      "chip": "ym2612"
    },
    {
      "channel": 3,
      "note": 85,
      "start": 54.2576,
      "duration": 0.0161,
      "velocity": 98,
      "chip": "ym2612"
    },
    {
      "channel": 2,
      "note": 57,
      "start": 54.2588,
      "duration": 0.0161,
      "velocity": 93,
      "chip": "ym2612"
    },
    {
      "channel": 1,
      "note": 75,
      "start": 54.26,
      "duration": 0.0161,
      "velocity": 108,
      "chip": "ym2612"
    },
    {
      "channel": 0,
      "note": 72,
      "start": 54.2702,
      "duration": 0.0164,
      "velocity": 124,
      "chip": "ym2612"
    },
    {
      "channel": 5,
      "note": 75,
      "start": 54.2713,
      "duration": 0.0164,
      "velocity": 108,
      "chip": "ym2612"
    },
    {
      "channel": 4,
      "note": 81,
      "start": 54.2726,
      "duration": 0.0164,
      "velocity": 98,
      "chip": "ym2612"
    },
    {
      "channel": 3,
      "note": 85,
      "start": 54.2737,
      "duration": 0.0165,
      "velocity": 98,
      "chip": "ym2612"
    },
    {
      "channel": 2,
      "note": 57,
      "start": 54.2749,
      "duration": 0.0165,
      "velocity": 93,
      "chip": "ym2612"
    },
    {
      "channel": 1,
      "note": 75,
      "start": 54.2761,
      "duration": 0.0164,
      "velocity": 108,
      "chip": "ym2612"
    },
    {
      "channel": 0,
      "note": 70,
      "start": 54.2866,
      "duration": 0.0163,
      "velocity": 124,
      "chip": "ym2612"
    },
    {
      "channel": 5,
      "note": 75,
      "start": 54.2878,
      "duration": 0.0163,
      "velocity": 108,
      "chip": "ym2612"
    },
    {
      "channel": 4,
      "note": 81,
      "start": 54.289,
      "duration": 0.0163,
      "velocity": 98,
      "chip": "ym2612"
    },
    {
      "channel": 3,
      "note": 85,
      "start": 54.2902,
      "duration": 0.0163,
      "velocity": 98,
      "chip": "ym2612"
    },
    {
      "channel": 2,
      "note": 57,
      "start": 54.2913,
      "duration": 0.0163,
      "velocity": 93,
      "chip": "ym2612"
    },
    {
      "channel": 1,
      "note": 75,
      "start": 54.2925,
      "duration": 0.0163,
      "velocity": 108,
      "chip": "ym2612"
    },
    {
      "channel": 0,
      "note": 68,
      "start": 54.303,
      "duration": 0.0161,
      "velocity": 124,
      "chip": "ym2612"
    },
    {
      "channel": 5,
      "note": 75,
      "start": 54.3041,
      "duration": 0.0161,
      "velocity": 108,
      "chip": "ym2612"
    },
    {
      "channel": 4,
      "note": 81,
      "start": 54.3053,
      "duration": 0.0161,
      "velocity": 98,
      "chip": "ym2612"
    },
    {
      "channel": 3,
      "note": 85,
      "start": 54.3065,
      "duration": 0.0161,
      "velocity": 98,
      "chip": "ym2612"
    },
    {
      "channel": 2,
      "note": 57,
      "start": 54.3077,
      "duration": 0.0161,
      "velocity": 93,
      "chip": "ym2612"
    },
    {
      "channel": 1,
      "note": 75,
      "start": 54.3088,
      "duration": 0.0161,
      "velocity": 108,
      "chip": "ym2612"
    },
    {
      "channel": 0,
      "note": 65,
      "start": 54.319,
      "duration": 0.016,
      "velocity": 124,
      "chip": "ym2612"
    },
    {
      "channel": 5,
      "note": 75,
      "start": 54.3202,
      "duration": 0.0161,
      "velocity": 108,
      "chip": "ym2612"
    },
    {
      "channel": 4,
      "note": 81,
      "start": 54.3214,
      "duration": 0.0162,
      "velocity": 98,
      "chip": "ym2612"
    },
    {
      "channel": 3,
      "note": 85,
      "start": 54.3226,
      "duration": 0.0163,
      "velocity": 98,
      "chip": "ym2612"
    },
    {
      "channel": 2,
      "note": 57,
      "start": 54.3238,
      "duration": 0.0163,
      "velocity": 93,
      "chip": "ym2612"
    },
    {
      "channel": 1,
      "note": 75,
      "start": 54.3249,
      "duration": 0.0163,
      "velocity": 108,
      "chip": "ym2612"
    },
    {
      "channel": 0,
      "note": 63,
      "start": 54.3351,
      "duration": 0.0148,
      "velocity": 1,
      "chip": "ym2612"
    },
    {
      "channel": 5,
      "note": 75,
      "start": 54.3363,
      "duration": 0.0152,
      "velocity": 108,
      "chip": "ym2612"
    },
    {
      "channel": 4,
      "note": 81,
      "start": 54.3376,
      "duration": 0.0153,
      "velocity": 98,
      "chip": "ym2612"
    },
    {
      "channel": 3,
      "note": 85,
      "start": 54.3388,
      "duration": 0.0152,
      "velocity": 98,
      "chip": "ym2612"
    },
    {
      "channel": 2,
      "note": 57,
      "start": 54.3401,
      "duration": 0.0151,
      "velocity": 93,
      "chip": "ym2612"
    },
    {
      "channel": 1,
      "note": 75,
      "start": 54.3412,
      "duration": 0.0152,
      "velocity": 108,
      "chip": "ym2612"
    },
    {
      "channel": 5,
      "note": 75,
      "start": 54.3515,
      "duration": 0.0147,
      "velocity": 108,
      "chip": "ym2612"
    },
    {
      "channel": 4,
      "note": 81,
      "start": 54.3528,
      "duration": 0.0152,
      "velocity": 98,
      "chip": "ym2612"
    },
    {
      "channel": 3,
      "note": 85,
      "start": 54.354,
      "duration": 0.0153,
      "velocity": 98,
      "chip": "ym2612"
    },
    {
      "channel": 2,
      "note": 57,
      "start": 54.3553,
      "duration": 0.0153,
      "velocity": 93,
      "chip": "ym2612"
    },
    {
      "channel": 1,
      "note": 75,
      "start": 54.3565,
      "duration": 0.0153,
      "velocity": 108,
      "chip": "ym2612"
    },
    {
      "channel": 5,
      "note": 75,
      "start": 54.3662,
      "duration": 0.0162,
      "velocity": 108,
      "chip": "ym2612"
    },
    {
      "channel": 4,
      "note": 81,
      "start": 54.368,
      "duration": 0.0155,
      "velocity": 98,
      "chip": "ym2612"
    },
    {
      "channel": 3,
      "note": 85,
      "start": 54.3693,
      "duration": 0.016,
      "velocity": 98,
      "chip": "ym2612"
    },
    {
      "channel": 2,
      "note": 57,
      "start": 54.3706,
      "duration": 0.0159,
      "velocity": 93,
      "chip": "ym2612"
    },
    {
      "channel": 5,
      "note": 75,
      "start": 54.3824,
      "duration": 0.0161,
      "velocity": 108,
      "chip": "ym2612"
    },
    {
      "channel": 4,
      "note": 81,
      "start": 54.3835,
      "duration": 0.0162,
      "velocity": 98,
      "chip": "ym2612"
    },
    {
      "channel": 3,
      "note": 85,
      "start": 54.3853,
      "duration": 0.0161,
      "velocity": 98,
      "chip": "ym2612"
    },
    {
      "channel": 2,
      "note": 57,
      "start": 54.3865,
      "duration": 0.0161,
      "velocity": 93,
      "chip": "ym2612"
    },
    {
      "channel": 1,
      "note": 76,
      "start": 54.388,
      "duration": 0.0158,
      "velocity": 108,
      "chip": "ym2612"
    },
    {
      "channel": 4,
      "note": 81,
      "start": 54.3997,
      "duration": 0.0164,
      "velocity": 98,
      "chip": "ym2612"
    },
    {
      "channel": 3,
      "note": 85,
      "start": 54.4014,
      "duration": 0.0161,
      "velocity": 98,
      "chip": "ym2612"
    },
    {
      "channel": 2,
      "note": 57,
      "start": 54.4026,
      "duration": 0.0165,
      "velocity": 93,
      "chip": "ym2612"
    },
    {
      "channel": 1,
      "note": 76,
      "start": 54.4038,
      "duration": 0.0164,
      "velocity": 108,
      "chip": "ym2612"
    },
    {
      "channel": 5,
      "note": 76,
      "start": 54.4149,
      "duration": 0.0159,
      "velocity": 108,
      "chip": "ym2612"
    },
    {
      "channel": 4,
      "note": 81,
      "start": 54.4161,
      "duration": 0.0159,
      "velocity": 98,
      "chip": "ym2612"
    },
    {
      "channel": 3,
      "note": 85,
      "start": 54.4175,
      "duration": 0.0156,
      "velocity": 98,
      "chip": "ym2612"
    },
    {
      "channel": 2,
      "note": 57,
      "start": 54.419,
      "duration": 0.0157,
      "velocity": 93,
      "chip": "ym2612"
    },
    {
      "channel": 1,
      "note": 76,
      "start": 54.4202,
      "duration": 0.0158,
      "velocity": 108,
      "chip": "ym2612"
    },
    {
      "channel": 5,
      "note": 76,
      "start": 54.4307,
      "duration": 0.016,
      "velocity": 108,
      "chip": "ym2612"
    },
    {
      "channel": 4,
      "note": 81,
      "start": 54.4319,
      "duration": 0.0161,
      "velocity": 98,
      "chip": "ym2612"
    },
    {
      "channel": 3,
      "note": 85,
      "start": 54.4331,
      "duration": 0.0162,
      "velocity": 98,
      "chip": "ym2612"
    },
    {
      "channel": 2,
      "note": 57,
      "start": 54.4348,
      "duration": 0.0159,
      "velocity": 93,
      "chip": "ym2612"
    },
    {
      "channel": 1,
      "note": 76,
      "start": 54.436,
      "duration": 0.0162,
      "velocity": 108,
      "chip": "ym2612"
    },
    {
      "channel": 5,
      "note": 76,
      "start": 54.4467,
      "duration": 0.0161,
      "velocity": 108,
      "chip": "ym2612"
    },
    {
      "channel": 4,
      "note": 81,
      "start": 54.448,
      "duration": 0.0161,
      "velocity": 98,
      "chip": "ym2612"
    },
    {
      "channel": 3,
      "note": 85,
      "start": 54.4493,
      "duration": 0.0161,
      "velocity": 98,
      "chip": "ym2612"
    },
    {
      "channel": 2,
      "note": 57,
      "start": 54.4507,
      "duration": 0.016,
      "velocity": 93,
      "chip": "ym2612"
    },
    {
      "channel": 1,
      "note": 76,
      "start": 54.4522,
      "duration": 0.0161,
      "velocity": 108,
      "chip": "ym2612"
    },
    {
      "channel": 5,
      "note": 76,
      "start": 54.4628,
      "duration": 0.0161,
      "velocity": 108,
      "chip": "ym2612"
    },
    {
      "channel": 2,
      "note": 57,
      "start": 54.4666,
      "duration": 0.0165,
      "velocity": 93,
      "chip": "ym2612"
    },
    {
      "channel": 1,
      "note": 76,
      "start": 54.4683,
      "duration": 0.0166,
      "velocity": 108,
      "chip": "ym2612"
    },
    {
      "channel": 5,
      "note": 76,
      "start": 54.4789,
      "duration": 0.0161,
      "velocity": 108,
      "chip": "ym2612"
    },
    {
      "channel": 2,
      "note": 57,
      "start": 54.4831,
      "duration": 0.0157,
      "velocity": 93,
      "chip": "ym2612"
    },
    {
      "channel": 1,
      "note": 76,
      "start": 54.4849,
      "duration": 0.0151,
      "velocity": 108,
      "chip": "ym2612"
    },
    {
      "channel": 5,
      "note": 76,
      "start": 54.495,
      "duration": 0.0162,
      "velocity": 108,
      "chip": "ym2612"
    },
    {
      "channel": 2,
      "note": 57,
      "start": 54.4988,
      "duration": 0.0162,
      "velocity": 93,
      "chip": "ym2612"
    },
    {
      "channel": 1,
      "note": 76,
      "start": 54.5,
      "duration": 0.0162,
      "velocity": 108,
      "chip": "ym2612"
    },
    {
      "channel": 5,
      "note": 76,
      "start": 54.5112,
      "duration": 0.016,
      "velocity": 108,
      "chip": "ym2612"
    },
    {
      "channel": 2,
      "note": 57,
      "start": 54.515,
      "duration": 0.0161,
      "velocity": 93,
      "chip": "ym2612"
    },
    {
      "channel": 1,
      "note": 76,
      "start": 54.5163,
      "duration": 0.016,
      "velocity": 108,
      "chip": "ym2612"
    },
    {
      "channel": 5,
      "note": 76,
      "start": 54.5273,
      "duration": 0.0162,
      "velocity": 108,
      "chip": "ym2612"
    },
    {
      "channel": 2,
      "note": 57,
      "start": 54.5311,
      "duration": 0.0161,
      "velocity": 93,
      "chip": "ym2612"
    },
    {
      "channel": 1,
      "note": 76,
      "start": 54.5322,
      "duration": 0.0162,
      "velocity": 108,
      "chip": "ym2612"
    },
    {
      "channel": 5,
      "note": 76,
      "start": 54.5434,
      "duration": 0.016,
      "velocity": 108,
      "chip": "ym2612"
    },
    {
      "channel": 2,
      "note": 57,
      "start": 54.5472,
      "duration": 0.016,
      "velocity": 93,
      "chip": "ym2612"
    },
    {
      "channel": 1,
      "note": 76,
      "start": 54.5484,
      "duration": 0.016,
      "velocity": 108,
      "chip": "ym2612"
    },
    {
      "channel": 5,
      "note": 76,
      "start": 54.5595,
      "duration": 0.0161,
      "velocity": 108,
      "chip": "ym2612"
    },
    {
      "channel": 2,
      "note": 57,
      "start": 54.5632,
      "duration": 0.0161,
      "velocity": 93,
      "chip": "ym2612"
    },
    {
      "channel": 5,
      "note": 76,
      "start": 54.5755,
      "duration": 0.0161,
      "velocity": 108,
      "chip": "ym2612"
    },
    {
      "channel": 2,
      "note": 57,
      "start": 54.5793,
      "duration": 0.0162,
      "velocity": 93,
      "chip": "ym2612"
    },
    {
      "channel": 2,
      "note": 57,
      "start": 54.5955,
      "duration": 0.0162,
      "velocity": 93,
      "chip": "ym2612"
    },
    {
      "channel": 2,
      "note": 57,
      "start": 54.6117,
      "duration": 0.016,
      "velocity": 93,
      "chip": "ym2612"
    },
    {
      "channel": 2,
      "note": 57,
      "start": 54.6277,
      "duration": 0.0161,
      "velocity": 93,
      "chip": "ym2612"
    },
    {
      "channel": 2,
      "note": 57,
      "start": 54.6438,
      "duration": 0.0161,
      "velocity": 93,
      "chip": "ym2612"
    },
    {
      "channel": 2,
      "note": 57,
      "start": 54.66,
      "duration": 0.0204,
      "velocity": 93,
      "chip": "ym2612"
    },
    {
      "channel": 0,
      "note": 84,
      "start": 54.6745,
      "duration": 0.0143,
      "velocity": 124,
      "chip": "ym2612"
    },
    {
      "channel": 4,
      "note": 83,
      "start": 54.6773,
      "duration": 0.014,
      "velocity": 98,
      "chip": "ym2612"
    },
    {
      "channel": 3,
      "note": 87,
      "start": 54.6789,
      "duration": 0.0136,
      "velocity": 98,
      "chip": "ym2612"
    },
    {
      "channel": 2,
      "note": 59,
      "start": 54.6804,
      "duration": 0.0134,
      "velocity": 93,
      "chip": "ym2612"
    },
    {
      "channel": 1,
      "note": 80,
      "start": 54.6818,
      "duration": 0.0132,
      "velocity": 108,
      "chip": "ym2612"
    },
    {
      "channel": 0,
      "note": 82,
      "start": 54.6888,
      "duration": 0.016,
      "velocity": 124,
      "chip": "ym2612"
    },
    {
      "channel": 4,
      "note": 83,
      "start": 54.6913,
      "duration": 0.0162,
      "velocity": 98,
      "chip": "ym2612"
    },
    {
      "channel": 3,
      "note": 87,
      "start": 54.6925,
      "duration": 0.0162,
      "velocity": 98,
      "chip": "ym2612"
    },
    {
      "channel": 2,
      "note": 59,
      "start": 54.6938,
      "duration": 0.0161,
      "velocity": 93,
      "chip": "ym2612"
    },
    {
      "channel": 1,
      "note": 80,
      "start": 54.695,
      "duration": 0.016,
      "velocity": 108,
      "chip": "ym2612"
    },
    {
      "channel": 0,
      "note": 80,
      "start": 54.7049,
      "duration": 0.0161,
      "velocity": 124,
      "chip": "ym2612"
    },
    {
      "channel": 5,
      "note": 80,
      "start": 54.7064,
      "duration": 0.0158,
      "velocity": 108,
      "chip": "ym2612"
    },
    {
      "channel": 4,
      "note": 83,
      "start": 54.7076,
      "duration": 0.0158,
      "velocity": 98,
      "chip": "ym2612"
    },
    {
      "channel": 3,
      "note": 87,
      "start": 54.7087,
      "duration": 0.0159,
      "velocity": 98,
      "chip": "ym2612"
    },
    {
      "channel": 2,
      "note": 59,
      "start": 54.7099,
      "duration": 0.0158,
      "velocity": 93,
      "chip": "ym2612"
    },
    {
      "channel": 1,
      "note": 80,
      "start": 54.711,
      "duration": 0.0158,
      "velocity": 108,
      "chip": "ym2612"
    },
    {
      "channel": 0,
      "note": 77,
      "start": 54.721,
      "duration": 0.0162,
      "velocity": 124,
      "chip": "ym2612"
    },
    {
      "channel": 5,
      "note": 80,
      "start": 54.7222,
      "duration": 0.0161,
      "velocity": 108,
      "chip": "ym2612"
    },
    {
      "channel": 4,
      "note": 83,
      "start": 54.7234,
      "duration": 0.0161,
      "velocity": 98,
      "chip": "ym2612"
    },
    {
      "channel": 3,
      "note": 87,
      "start": 54.7245,
      "duration": 0.0161,
      "velocity": 98,
      "chip": "ym2612"
    },
    {
      "channel": 2,
      "note": 59,
      "start": 54.7257,
      "duration": 0.0161,
      "velocity": 93,
      "chip": "ym2612"
    },
    {
      "channel": 1,
      "note": 80,
      "start": 54.7269,
      "duration": 0.0161,
      "velocity": 108,
      "chip": "ym2612"
    },
    {
      "channel": 0,
      "note": 75,
      "start": 54.7371,
      "duration": 0.0163,
      "velocity": 124,
      "chip": "ym2612"
    },
    {
      "channel": 5,
      "note": 80,
      "start": 54.7383,
      "duration": 0.0163,
      "velocity": 108,
      "chip": "ym2612"
    },
    {
      "channel": 4,
      "note": 83,
      "start": 54.7395,
      "duration": 0.0162,
      "velocity": 98,
      "chip": "ym2612"
    },
    {
      "channel": 3,
      "note": 87,
      "start": 54.7406,
      "duration": 0.0163,
      "velocity": 98,
      "chip": "ym2612"
    },
    {
      "channel": 2,
      "note": 59,
      "start": 54.7418,
      "duration": 0.0163,
      "velocity": 93,
      "chip": "ym2612"
    },
    {
      "channel": 1,
      "note": 80,
      "start": 54.743,
      "duration": 0.0162,
      "velocity": 108,
      "chip": "ym2612"
    },
    {
      "channel": 0,
      "note": 72,
      "start": 54.7534,
      "duration": 0.0163,
      "velocity": 124,
      "chip": "ym2612"
    },
    {
      "channel": 5,
      "note": 80,
      "start": 54.7546,
      "duration": 0.0163,
      "velocity": 108,
      "chip": "ym2612"
    },
    {
      "channel": 4,
      "note": 83,
      "start": 54.7557,
      "duration": 0.0163,
      "velocity": 98,
      "chip": "ym2612"
    },
    {
      "channel": 3,
      "note": 87,
      "start": 54.7569,
      "duration": 0.0163,
      "velocity": 98,
      "chip": "ym2612"
    },
    {
      "channel": 2,
      "note": 59,
      "start": 54.758,
      "duration": 0.0163,
      "velocity": 93,
      "chip": "ym2612"
    },
    {
      "channel": 1,
      "note": 80,
      "start": 54.7592,
      "duration": 0.0164,
      "velocity": 108,
      "chip": "ym2612"
    },
    {
      "channel": 0,
      "note": 70,
      "start": 54.7697,
      "duration": 0.0163,
      "velocity": 124,
      "chip": "ym2612"
    },
    {
      "channel": 5,
      "note": 80,
      "start": 54.7709,
      "duration": 0.0162,
      "velocity": 108,
      "chip": "ym2612"
    },
    {
      "channel": 4,
      "note": 83,
      "start": 54.772,
      "duration": 0.0163,
      "velocity": 98,
      "chip": "ym2612"
    },
    {
      "channel": 3,
      "note": 87,
      "start": 54.7732,
      "duration": 0.0162,
      "velocity": 98,
      "chip": "ym2612"
    },
    {
      "channel": 2,
      "note": 59,
      "start": 54.7744,
      "duration": 0.0163,
      "velocity": 93,
      "chip": "ym2612"
    },
    {
      "channel": 1,
      "note": 80,
      "start": 54.7756,
      "duration": 0.0162,
      "velocity": 108,
      "chip": "ym2612"
    },
    {
      "channel": 0,
      "note": 68,
      "start": 54.786,
      "duration": 0.0161,
      "velocity": 124,
      "chip": "ym2612"
    },
    {
      "channel": 5,
      "note": 80,
      "start": 54.7871,
      "duration": 0.0161,
      "velocity": 108,
      "chip": "ym2612"
    },
    {
      "channel": 4,
      "note": 83,
      "start": 54.7883,
      "duration": 0.0161,
      "velocity": 98,
      "chip": "ym2612"
    },
    {
      "channel": 3,
      "note": 87,
      "start": 54.7895,
      "duration": 0.0161,
      "velocity": 98,
      "chip": "ym2612"
    },
    {
      "channel": 2,
      "note": 59,
      "start": 54.7907,
      "duration": 0.0161,
      "velocity": 93,
      "chip": "ym2612"
    },
    {
      "channel": 1,
      "note": 80,
      "start": 54.7918,
      "duration": 0.0161,
      "velocity": 108,
      "chip": "ym2612"
    },
    {
      "channel": 0,
      "note": 65,
      "start": 54.8021,
      "duration": 0.016,
      "velocity": 124,
      "chip": "ym2612"
    },
    {
      "channel": 5,
      "note": 80,
      "start": 54.8032,
      "duration": 0.0161,
      "velocity": 108,
      "chip": "ym2612"
    },
    {
      "channel": 4,
      "note": 83,
      "start": 54.8044,
      "duration": 0.0161,
      "velocity": 98,
      "chip": "ym2612"
    },
    {
      "channel": 3,
      "note": 87,
      "start": 54.8056,
      "duration": 0.0161,
      "velocity": 98,
      "chip": "ym2612"
    },
    {
      "channel": 2,
      "note": 59,
      "start": 54.8068,
      "duration": 0.0161,
      "velocity": 93,
      "chip": "ym2612"
    },
    {
      "channel": 1,
      "note": 80,
      "start": 54.8079,
      "duration": 0.0162,
      "velocity": 108,
      "chip": "ym2612"
    },
    {
      "channel": 0,
      "note": 63,
      "start": 54.8181,
      "duration": 0.0148,
      "velocity": 1,
      "chip": "ym2612"
    },
    {
      "channel": 5,
      "note": 80,
      "start": 54.8193,
      "duration": 0.0149,
      "velocity": 108,
      "chip": "ym2612"
    },
    {
      "channel": 4,
      "note": 83,
      "start": 54.8205,
      "duration": 0.0153,
      "velocity": 98,
      "chip": "ym2612"
    },
    {
      "channel": 3,
      "note": 87,
      "start": 54.8217,
      "duration": 0.0153,
      "velocity": 98,
      "chip": "ym2612"
    },
    {
      "channel": 2,
      "note": 59,
      "start": 54.8229,
      "duration": 0.0153,
      "velocity": 93,
      "chip": "ym2612"
    },
    {
      "channel": 1,
      "note": 80,
      "start": 54.8241,
      "duration": 0.0153,
      "velocity": 108,
      "chip": "ym2612"
    },
    {
      "channel": 5,
      "note": 80,
      "start": 54.8342,
      "duration": 0.0151,
      "velocity": 108,
      "chip": "ym2612"
    },
    {
      "channel": 4,
      "note": 83,
      "start": 54.8358,
      "duration": 0.0149,
      "velocity": 98,
      "chip": "ym2612"
    },
    {
      "channel": 3,
      "note": 87,
      "start": 54.837,
      "duration": 0.0153,
      "velocity": 98,
      "chip": "ym2612"
    },
    {
      "channel": 2,
      "note": 59,
      "start": 54.8382,
      "duration": 0.0153,
      "velocity": 93,
      "chip": "ym2612"
    },
    {
      "channel": 1,
      "note": 80,
      "start": 54.8393,
      "duration": 0.0153,
      "velocity": 108,
      "chip": "ym2612"
    },
    {
      "channel": 5,
      "note": 80,
      "start": 54.8493,
      "duration": 0.0161,
      "velocity": 108,
      "chip": "ym2612"
    },
    {
      "channel": 4,
      "note": 83,
      "start": 54.8507,
      "duration": 0.0159,
      "velocity": 98,
      "chip": "ym2612"
    },
    {
      "channel": 3,
      "note": 87,
      "start": 54.8523,
      "duration": 0.016,
      "velocity": 98,
      "chip": "ym2612"
    },
    {
      "channel": 2,
      "note": 59,
      "start": 54.8535,
      "duration": 0.016,
      "velocity": 93,
      "chip": "ym2612"
    },
    {
      "channel": 1,
      "note": 80,
      "start": 54.8546,
      "duration": 0.016,
      "velocity": 108,
      "chip": "ym2612"
    },
    {
      "channel": 5,
      "note": 80,
      "start": 54.8654,
      "duration": 0.0161,
      "velocity": 108,
      "chip": "ym2612"
    },
    {
      "channel": 4,
      "note": 83,
      "start": 54.8666,
      "duration": 0.0161,
      "velocity": 98,
      "chip": "ym2612"
    },
    {
      "channel": 3,
      "note": 87,
      "start": 54.8683,
      "duration": 0.0158,
      "velocity": 98,
      "chip": "ym2612"
    },
    {
      "channel": 2,
      "note": 59,
      "start": 54.8695,
      "duration": 0.0161,
      "velocity": 93,
      "chip": "ym2612"
    },
    {
      "channel": 1,
      "note": 80,
      "start": 54.8706,
      "duration": 0.0161,
      "velocity": 108,
      "chip": "ym2612"
    },
    {
      "channel": 5,
      "note": 80,
      "start": 54.8815,
      "duration": 0.0161,
      "velocity": 108,
      "chip": "ym2612"
    },
    {
      "channel": 4,
      "note": 83,
      "start": 54.8827,
      "duration": 0.0161,
      "velocity": 98,
      "chip": "ym2612"
    },
    {
      "channel": 3,
      "note": 87,
      "start": 54.8841,
      "duration": 0.016,
      "velocity": 98,
      "chip": "ym2612"
    },
    {
      "channel": 2,
      "note": 59,
      "start": 54.8856,
      "duration": 0.0161,
      "velocity": 93,
      "chip": "ym2612"
    },
    {
      "channel": 1,
      "note": 80,
      "start": 54.8867,
      "duration": 0.0163,
      "velocity": 108,
      "chip": "ym2612"
    },
    {
      "channel": 5,
      "note": 80,
      "start": 54.8976,
      "duration": 0.0161,
      "velocity": 108,
      "chip": "ym2612"
    },
    {
      "channel": 4,
      "note": 83,
      "start": 54.8988,
      "duration": 0.0161,
      "velocity": 98,
      "chip": "ym2612"
    },
    {
      "channel": 3,
      "note": 87,
      "start": 54.9001,
      "duration": 0.016,
      "velocity": 98,
      "chip": "ym2612"
    },
    {
      "channel": 2,
      "note": 59,
      "start": 54.9017,
      "duration": 0.0158,
      "velocity": 93,
      "chip": "ym2612"
    },
    {
      "channel": 1,
      "note": 80,
      "start": 54.903,
      "duration": 0.016,
      "velocity": 108,
      "chip": "ym2612"
    },
    {
      "channel": 5,
      "note": 80,
      "start": 54.9137,
      "duration": 0.0161,
      "velocity": 108,
      "chip": "ym2612"
    },
    {
      "channel": 4,
      "note": 83,
      "start": 54.9149,
      "duration": 0.0161,
      "velocity": 98,
      "chip": "ym2612"
    },
    {
      "channel": 3,
      "note": 87,
      "start": 54.9161,
      "duration": 0.0162,
      "velocity": 98,
      "chip": "ym2612"
    },
    {
      "channel": 2,
      "note": 59,
      "start": 54.9175,
      "duration": 0.016,
      "velocity": 93,
      "chip": "ym2612"
    },
    {
      "channel": 1,
      "note": 80,
      "start": 54.919,
      "duration": 0.0162,
      "velocity": 108,
      "chip": "ym2612"
    },
    {
      "channel": 5,
      "note": 80,
      "start": 54.9298,
      "duration": 0.0161,
      "velocity": 108,
      "chip": "ym2612"
    },
    {
      "channel": 4,
      "note": 83,
      "start": 54.931,
      "duration": 0.016,
      "velocity": 98,
      "chip": "ym2612"
    },
    {
      "channel": 3,
      "note": 87,
      "start": 54.9323,
      "duration": 0.016,
      "velocity": 98,
      "chip": "ym2612"
    },
    {
      "channel": 2,
      "note": 59,
      "start": 54.9335,
      "duration": 0.016,
      "velocity": 93,
      "chip": "ym2612"
    },
    {
      "channel": 1,
      "note": 80,
      "start": 54.9353,
      "duration": 0.0156,
      "velocity": 108,
      "chip": "ym2612"
    },
    {
      "channel": 5,
      "note": 80,
      "start": 54.9458,
      "duration": 0.0197,
      "velocity": 108,
      "chip": "ym2612"
    },
    {
      "channel": 2,
      "note": 59,
      "start": 54.9495,
      "duration": 0.021,
      "velocity": 93,
      "chip": "ym2612"
    },
    {
      "channel": 0,
      "note": 36,
      "start": 54.9644,
      "duration": 0.0143,
      "velocity": 115,
      "chip": "ym2612"
    },
    {
      "channel": 5,
      "note": 80,
      "start": 54.9655,
      "duration": 0.0143,
      "velocity": 108,
      "chip": "ym2612"
    },
    {
      "channel": 4,
      "note": 83,
      "start": 54.967,
      "duration": 0.0141,
      "velocity": 98,
      "chip": "ym2612"
    },
    {
      "channel": 3,
      "note": 87,
      "start": 54.9691,
      "duration": 0.0132,
      "velocity": 98,
      "chip": "ym2612"
    },
    {
      "channel": 2,
      "note": 59,
      "start": 54.9706,
      "duration": 0.0129,
      "velocity": 93,
      "chip": "ym2612"
    },
    {
      "channel": 1,
      "note": 78,
      "start": 54.972,
      "duration": 0.0133,
      "velocity": 108,
      "chip": "ym2612"
    },
    {
      "channel": 0,
      "note": 36,
      "start": 54.9787,
      "duration": 0.016,
      "velocity": 115,
      "chip": "ym2612"
    },
    {
      "channel": 4,
      "note": 83,
      "start": 54.9811,
      "duration": 0.0162,
      "velocity": 98,
      "chip": "ym2612"
    },
    {
      "channel": 3,
      "note": 87,
      "start": 54.9823,
      "duration": 0.0162,
      "velocity": 98,
      "chip": "ym2612"
    },
    {
      "channel": 2,
      "note": 59,
      "start": 54.9835,
      "duration": 0.0162,
      "velocity": 93,
      "chip": "ym2612"
    },
    {
      "channel": 1,
      "note": 78,
      "start": 54.9853,
      "duration": 0.016,
      "velocity": 108,
      "chip": "ym2612"
    },
    {
      "channel": 0,
      "note": 37,
      "start": 54.9947,
      "duration": 0.0161,
      "velocity": 115,
      "chip": "ym2612"
    },
    {
      "channel": 5,
      "note": 78,
      "start": 54.9961,
      "duration": 0.0159,
      "velocity": 108,
      "chip": "ym2612"
    },
    {
      "channel": 4,
      "note": 83,
      "start": 54.9973,
      "duration": 0.0158,
      "velocity": 98,
      "chip": "ym2612"
    },
    {
      "channel": 3,
      "note": 87,
      "start": 54.9985,
      "duration": 0.0159,
      "velocity": 98,
      "chip": "ym2612"
    },
    {
      "channel": 2,
      "note": 59,
      "start": 54.9997,
      "duration": 0.0159,
      "velocity": 93,
      "chip": "ym2612"
    },
    {
      "channel": 1,
      "note": 78,
      "start": 55.0014,
      "duration": 0.0154,
      "velocity": 108,
      "chip": "ym2612"
    },
    {
      "channel": 0,
      "note": 37,
      "start": 55.0108,
      "duration": 0.0161,
      "velocity": 115,
      "chip": "ym2612"
    },
    {
      "channel": 5,
      "note": 78,
      "start": 55.012,
      "duration": 0.016,
      "velocity": 108,
      "chip": "ym2612"
    },
    {
      "channel": 4,
      "note": 83,
      "start": 55.0131,
      "duration": 0.0161,
      "velocity": 98,
      "chip": "ym2612"
    },
    {
      "channel": 3,
      "note": 87,
      "start": 55.0144,
      "duration": 0.016,
      "velocity": 98,
      "chip": "ym2612"
    },
    {
      "channel": 2,
      "note": 59,
      "start": 55.0156,
      "duration": 0.016,
      "velocity": 93,
      "chip": "ym2612"
    },
    {
      "channel": 1,
      "note": 78,
      "start": 55.0167,
      "duration": 0.016,
      "velocity": 108,
      "chip": "ym2612"
    },
    {
      "channel": 0,
      "note": 38,
      "start": 55.0269,
      "duration": 0.0161,
      "velocity": 115,
      "chip": "ym2612"
    },
    {
      "channel": 5,
      "note": 78,
      "start": 55.028,
      "duration": 0.0161,
      "velocity": 108,
      "chip": "ym2612"
    },
    {
      "channel": 4,
      "note": 83,
      "start": 55.0292,
      "duration": 0.0161,
      "velocity": 98,
      "chip": "ym2612"
    },
    {
      "channel": 3,
      "note": 87,
      "start": 55.0304,
      "duration": 0.0161,
      "velocity": 98,
      "chip": "ym2612"
    },
    {
      "channel": 2,
      "note": 59,
      "start": 55.0316,
      "duration": 0.0162,
      "velocity": 93,
      "chip": "ym2612"
    },
    {
      "channel": 1,
      "note": 78,
      "start": 55.0327,
      "duration": 0.0162,
      "velocity": 108,
      "chip": "ym2612"
    },
    {
      "channel": 0,
      "note": 38,
      "start": 55.043,
      "duration": 0.0179,
      "velocity": 124,
      "chip": "ym2612"
    },
    {
      "channel": 5,
      "note": 78,
      "start": 55.0442,
      "duration": 0.018,
      "velocity": 108,
      "chip": "ym2612"
    },
    {
      "channel": 2,
      "note": 59,
      "start": 55.0478,
      "duration": 0.0189,
      "velocity": 93,
      "chip": "ym2612"
    },
    {
      "channel": 0,
      "note": 84,
      "start": 55.061,
      "duration": 0.0142,
      "velocity": 124,
      "chip": "ym2612"
    },
    {
      "channel": 5,
      "note": 78,
      "start": 55.0621,
      "duration": 0.0143,
      "velocity": 108,
      "chip": "ym2612"
    },
    {
      "channel": 4,
      "note": 83,
      "start": 55.0637,
      "duration": 0.014,
      "velocity": 98,
      "chip": "ym2612"
    },
    {
      "channel": 3,
      "note": 87,
      "start": 55.0652,
      "duration": 0.0137,
      "velocity": 98,
      "chip": "ym2612"
    },
    {
      "channel": 2,
      "note": 59,
      "start": 55.0666,
      "duration": 0.0135,
      "velocity": 93,
      "chip": "ym2612"
    },
    {
      "channel": 1,
      "note": 75,
      "start": 55.0687,
      "duration": 0.0126,
      "velocity": 108,
      "chip": "ym2612"
    },
    {
      "channel": 0,
      "note": 82,
      "start": 55.0752,
      "duration": 0.016,
      "velocity": 124,
      "chip": "ym2612"
    },
    {
      "channel": 4,
      "note": 83,
      "start": 55.0776,
      "duration": 0.0163,
      "velocity": 98,
      "chip": "ym2612"
    },
    {
      "channel": 3,
      "note": 87,
      "start": 55.0789,
      "duration": 0.0162,
      "velocity": 98,
      "chip": "ym2612"
    },
    {
      "channel": 2,
      "note": 59,
      "start": 55.0801,
      "duration": 0.0162,
      "velocity": 93,
      "chip": "ym2612"
    },
    {
      "channel": 1,
      "note": 75,
      "start": 55.0813,
      "duration": 0.0161,
      "velocity": 108,
      "chip": "ym2612"
    },
    {
      "channel": 0,
      "note": 80,
      "start": 55.0912,
      "duration": 0.0162,
      "velocity": 124,
      "chip": "ym2612"
    },
    {
      "channel": 5,
      "note": 75,
      "start": 55.0928,
      "duration": 0.0158,
      "velocity": 108,
      "chip": "ym2612"
    },
    {
      "channel": 4,
      "note": 83,
      "start": 55.094,
      "duration": 0.0158,
      "velocity": 98,
      "chip": "ym2612"
    },
    {
      "channel": 3,
      "note": 87,
      "start": 55.0951,
      "duration": 0.0158,
      "velocity": 98,
      "chip": "ym2612"
    },
    {
      "channel": 2,
      "note": 59,
      "start": 55.0963,
      "duration": 0.0159,
      "velocity": 93,
      "chip": "ym2612"
    },
    {
      "channel": 1,
      "note": 75,
      "start": 55.0975,
      "duration": 0.0158,
      "velocity": 108,
      "chip": "ym2612"
    },
    {
      "channel": 0,
      "note": 77,
      "start": 55.1074,
      "duration": 0.0161,
      "velocity": 124,
      "chip": "ym2612"
    },
    {
      "channel": 5,
      "note": 75,
      "start": 55.1086,
      "duration": 0.016,
      "velocity": 108,
      "chip": "ym2612"
    },
    {
      "channel": 4,
      "note": 83,
      "start": 55.1098,
      "duration": 0.0161,
      "velocity": 98,
      "chip": "ym2612"
    },
    {
      "channel": 3,
      "note": 87,
      "start": 55.111,
      "duration": 0.016,
      "velocity": 98,
      "chip": "ym2612"
    },
    {
      "channel": 2,
      "note": 59,
      "start": 55.1121,
      "duration": 0.016,
      "velocity": 93,
      "chip": "ym2612"
    },
    {
      "channel": 1,
      "note": 75,
      "start": 55.1133,
      "duration": 0.0161,
      "velocity": 108,
      "chip": "ym2612"
    },
    {
      "channel": 0,
      "note": 75,
      "start": 55.1235,
      "duration": 0.0161,
      "velocity": 124,
      "chip": "ym2612"
    },
    {
      "channel": 5,
      "note": 75,
      "start": 55.1246,
      "duration": 0.0161,
      "velocity": 108,
      "chip": "ym2612"
    },
    {
      "channel": 4,
      "note": 83,
      "start": 55.1259,
      "duration": 0.0161,
      "velocity": 98,
      "chip": "ym2612"
    },
    {
      "channel": 3,
      "note": 87,
      "start": 55.127,
      "duration": 0.0161,
      "velocity": 98,
      "chip": "ym2612"
    },
    {
      "channel": 2,
      "note": 59,
      "start": 55.1281,
      "duration": 0.0161,
      "velocity": 93,
      "chip": "ym2612"
    },
    {
      "channel": 1,
      "note": 75,
      "start": 55.1294,
      "duration": 0.0161,
      "velocity": 108,
      "chip": "ym2612"
    },
    {
      "channel": 0,
      "note": 72,
      "start": 55.1396,
      "duration": 0.0161,
      "velocity": 124,
      "chip": "ym2612"
    },
    {
      "channel": 5,
      "note": 75,
      "start": 55.1407,
      "duration": 0.0161,
      "velocity": 108,
      "chip": "ym2612"
    },
    {
      "channel": 4,
      "note": 83,
      "start": 55.142,
      "duration": 0.0161,
      "velocity": 98,
      "chip": "ym2612"
    },
    {
      "channel": 3,
      "note": 87,
      "start": 55.1431,
      "duration": 0.0161,
      "velocity": 98,
      "chip": "ym2612"
    },
    {
      "channel": 2,
      "note": 59,
      "start": 55.1442,
      "duration": 0.0162,
      "velocity": 93,
      "chip": "ym2612"
    },
    {
      "channel": 1,
      "note": 75,
      "start": 55.1455,
      "duration": 0.0161,
      "velocity": 108,
      "chip": "ym2612"
    },
    {
      "channel": 0,
      "note": 70,
      "start": 55.1557,
      "duration": 0.0161,
      "velocity": 124,
      "chip": "ym2612"
    },
    {
      "channel": 5,
      "note": 75,
      "start": 55.1568,
      "duration": 0.0161,
      "velocity": 108,
      "chip": "ym2612"
    },
    {
      "channel": 4,
      "note": 83,
      "start": 55.158,
      "duration": 0.0161,
      "velocity": 98,
      "chip": "ym2612"
    },
    {
      "channel": 3,
      "note": 87,
      "start": 55.1593,
      "duration": 0.016,
      "velocity": 98,
      "chip": "ym2612"
    },
    {
      "channel": 2,
      "note": 59,
      "start": 55.1604,
      "duration": 0.0161,
      "velocity": 93,
      "chip": "ym2612"
    },
    {
      "channel": 1,
      "note": 75,
      "start": 55.1615,
      "duration": 0.0161,
      "velocity": 108,
      "chip": "ym2612"
    },
    {
      "channel": 0,
      "note": 68,
      "start": 55.1718,
      "duration": 0.0161,
      "velocity": 124,
      "chip": "ym2612"
    },
    {
      "channel": 5,
      "note": 75,
      "start": 55.1729,
      "duration": 0.0162,
      "velocity": 108,
      "chip": "ym2612"
    },
    {
      "channel": 4,
      "note": 83,
      "start": 55.1741,
      "duration": 0.0161,
      "velocity": 98,
      "chip": "ym2612"
    },
    {
      "channel": 3,
      "note": 87,
      "start": 55.1753,
      "duration": 0.0162,
      "velocity": 98,
      "chip": "ym2612"
    },
    {
      "channel": 2,
      "note": 59,
      "start": 55.1765,
      "duration": 0.0161,
      "velocity": 93,
      "chip": "ym2612"
    },
    {
      "channel": 1,
      "note": 75,
      "start": 55.1776,
      "duration": 0.0162,
      "velocity": 108,
      "chip": "ym2612"
    },
    {
      "channel": 0,
      "note": 65,
      "start": 55.1879,
      "duration": 0.0161,
      "velocity": 124,
      "chip": "ym2612"
    },
    {
      "channel": 5,
      "note": 75,
      "start": 55.1891,
      "duration": 0.0161,
      "velocity": 108,
      "chip": "ym2612"
    },
    {
      "channel": 4,
      "note": 83,
      "start": 55.1902,
      "duration": 0.0162,
      "velocity": 98,
      "chip": "ym2612"
    },
    {
      "channel": 3,
      "note": 87,
      "start": 55.1915,
      "duration": 0.0163,
      "velocity": 98,
      "chip": "ym2612"
    },
    {
      "channel": 2,
      "note": 59,
      "start": 55.1926,
      "duration": 0.0163,
      "velocity": 93,
      "chip": "ym2612"
    },
    {
      "channel": 1,
      "note": 75,
      "start": 55.1938,
      "duration": 0.0163,
      "velocity": 108,
      "chip": "ym2612"
    },
    {
      "channel": 0,
      "note": 63,
      "start": 55.204,
      "duration": 0.0154,
      "velocity": 1,
      "chip": "ym2612"
    },
    {
      "channel": 5,
      "note": 75,
      "start": 55.2052,
      "duration": 0.0153,
      "velocity": 108,
      "chip": "ym2612"
    },
    {
      "channel": 4,
      "note": 83,
      "start": 55.2065,
      "duration": 0.0153,
      "velocity": 98,
      "chip": "ym2612"
    },
    {
      "channel": 3,
      "note": 87,
      "start": 55.2077,
      "duration": 0.0153,
      "velocity": 98,
      "chip": "ym2612"
    },
    {
      "channel": 2,
      "note": 59,
      "start": 55.2089,
      "duration": 0.0153,
      "velocity": 93,
      "chip": "ym2612"
    },
    {
      "channel": 1,
      "note": 75,
      "start": 55.2102,
      "duration": 0.0153,
      "velocity": 108,
      "chip": "ym2612"
    },
    {
      "channel": 5,
      "note": 75,
      "start": 55.2205,
      "duration": 0.0156,
      "velocity": 108,
      "chip": "ym2612"
    },
    {
      "channel": 4,
      "note": 83,
      "start": 55.2217,
      "duration": 0.0157,
      "velocity": 98,
      "chip": "ym2612"
    },
    {
      "channel": 3,
      "note": 87,
      "start": 55.223,
      "duration": 0.0156,
      "velocity": 98,
      "chip": "ym2612"
    },
    {
      "channel": 2,
      "note": 59,
      "start": 55.2242,
      "duration": 0.0157,
      "velocity": 93,
      "chip": "ym2612"
    },
    {
      "channel": 1,
      "note": 75,
      "start": 55.2254,
      "duration": 0.0157,
      "velocity": 108,
      "chip": "ym2612"
    },
    {
      "channel": 5,
      "note": 75,
      "start": 55.2362,
      "duration": 0.0163,
      "velocity": 108,
      "chip": "ym2612"
    },
    {
      "channel": 4,
      "note": 83,
      "start": 55.2374,
      "duration": 0.0162,
      "velocity": 98,
      "chip": "ym2612"
    },
    {
      "channel": 3,
      "note": 87,
      "start": 55.2386,
      "duration": 0.0162,
      "velocity": 98,
      "chip": "ym2612"
    },
    {
      "channel": 2,
      "note": 59,
      "start": 55.2399,
      "duration": 0.016,
      "velocity": 93,
      "chip": "ym2612"
    },
    {
      "channel": 1,
      "note": 75,
      "start": 55.2411,
      "duration": 0.016,
      "velocity": 108,
      "chip": "ym2612"
    },
    {
      "channel": 5,
      "note": 75,
      "start": 55.2524,
      "duration": 0.016,
      "velocity": 108,
      "chip": "ym2612"
    },
    {
      "channel": 4,
      "note": 83,
      "start": 55.2536,
      "duration": 0.0161,
      "velocity": 98,
      "chip": "ym2612"
    },
    {
      "channel": 3,
      "note": 87,
      "start": 55.2548,
      "duration": 0.0161,
      "velocity": 98,
      "chip": "ym2612"
    },
    {
      "channel": 2,
      "note": 59,
      "start": 55.2559,
      "duration": 0.0162,
      "velocity": 93,
      "chip": "ym2612"
    },
    {
      "channel": 1,
      "note": 75,
      "start": 55.2572,
      "duration": 0.0161,
      "velocity": 108,
      "chip": "ym2612"
    },
    {
      "channel": 5,
      "note": 75,
      "start": 55.2685,
      "duration": 0.0157,
      "velocity": 108,
      "chip": "ym2612"
    },
    {
      "channel": 4,
      "note": 83,
      "start": 55.2698,
      "duration": 0.016,
      "velocity": 98,
      "chip": "ym2612"
    },
    {
      "channel": 3,
      "note": 87,
      "start": 55.2709,
      "duration": 0.016,
      "velocity": 98,
      "chip": "ym2612"
    },
    {
      "channel": 2,
      "note": 59,
      "start": 55.2721,
      "duration": 0.016,
      "velocity": 93,
      "chip": "ym2612"
    },
    {
      "channel": 1,
      "note": 75,
      "start": 55.2732,
      "duration": 0.016,
      "velocity": 108,
      "chip": "ym2612"
    },
    {
      "channel": 5,
      "note": 75,
      "start": 55.2842,
      "duration": 0.0159,
      "velocity": 108,
      "chip": "ym2612"
    },
    {
      "channel": 4,
      "note": 83,
      "start": 55.2858,
      "duration": 0.016,
      "velocity": 98,
      "chip": "ym2612"
    },
    {
      "channel": 3,
      "note": 87,
      "start": 55.2869,
      "duration": 0.0161,
      "velocity": 98,
      "chip": "ym2612"
    },
    {
      "channel": 2,
      "note": 59,
      "start": 55.2881,
      "duration": 0.0161,
      "velocity": 93,
      "chip": "ym2612"
    },
    {
      "channel": 1,
      "note": 75,
      "start": 55.2893,
      "duration": 0.0161,
      "velocity": 108,
      "chip": "ym2612"
    },
    {
      "channel": 5,
      "note": 75,
      "start": 55.3001,
      "duration": 0.0161,
      "velocity": 108,
      "chip": "ym2612"
    },
    {
      "channel": 4,
      "note": 83,
      "start": 55.3018,
      "duration": 0.0162,
      "velocity": 98,
      "chip": "ym2612"
    },
    {
      "channel": 3,
      "note": 87,
      "start": 55.303,
      "duration": 0.0163,
      "velocity": 98,
      "chip": "ym2612"
    },
    {
      "channel": 2,
      "note": 59,
      "start": 55.3042,
      "duration": 0.0163,
      "velocity": 93,
      "chip": "ym2612"
    },
    {
      "channel": 1,
      "note": 75,
      "start": 55.3054,
      "duration": 0.0163,
      "velocity": 108,
      "chip": "ym2612"
    },
    {
      "channel": 5,
      "note": 75,
      "start": 55.3162,
      "duration": 0.0161,
      "velocity": 108,
      "chip": "ym2612"
    },
    {
      "channel": 4,
      "note": 83,
      "start": 55.318,
      "duration": 0.0156,
      "velocity": 98,
      "chip": "ym2612"
    },
    {
      "channel": 3,
      "note": 87,
      "start": 55.3193,
      "duration": 0.0161,
      "velocity": 98,
      "chip": "ym2612"
    },
    {
      "channel": 2,
      "note": 59,
      "start": 55.3205,
      "duration": 0.0161,
      "velocity": 93,
      "chip": "ym2612"
    },
    {
      "channel": 1,
      "note": 75,
      "start": 55.3217,
      "duration": 0.0162,
      "velocity": 108,
      "chip": "ym2612"
    },
    {
      "channel": 5,
      "note": 75,
      "start": 55.3323,
      "duration": 0.0203,
      "velocity": 108,
      "chip": "ym2612"
    },
    {
      "channel": 2,
      "note": 59,
      "start": 55.3367,
      "duration": 0.0204,
      "velocity": 93,
      "chip": "ym2612"
    },
    {
      "channel": 0,
      "note": 84,
      "start": 55.3513,
      "duration": 0.0137,
      "velocity": 124,
      "chip": "ym2612"
    },
    {
      "channel": 5,
      "note": 75,
      "start": 55.3526,
      "duration": 0.0137,
      "velocity": 108,
      "chip": "ym2612"
    },
    {
      "channel": 4,
      "note": 81,
      "start": 55.3541,
      "duration": 0.014,
      "velocity": 98,
      "chip": "ym2612"
    },
    {
      "channel": 3,
      "note": 83,
      "start": 55.3556,
      "duration": 0.0137,
      "velocity": 98,
      "chip": "ym2612"
    },
    {
      "channel": 2,
      "note": 59,
      "start": 55.3571,
      "duration": 0.0135,
      "velocity": 93,
      "chip": "ym2612"
    },
    {
      "channel": 1,
      "note": 71,
      "start": 55.3585,
      "duration": 0.0133,
      "velocity": 108,
      "chip": "ym2612"
    },
    {
      "channel": 0,
      "note": 82,
      "start": 55.3651,
      "duration": 0.0161,
      "velocity": 124,
      "chip": "ym2612"
    },
    {
      "channel": 4,
      "note": 81,
      "start": 55.3681,
      "duration": 0.0156,
      "velocity": 98,
      "chip": "ym2612"
    },
    {
      "channel": 3,
      "note": 83,
      "start": 55.3694,
      "duration": 0.0162,
      "velocity": 98,
      "chip": "ym2612"
    },
    {
      "channel": 2,
      "note": 59,
      "start": 55.3706,
      "duration": 0.016,
      "velocity": 93,
      "chip": "ym2612"
    },
    {
      "channel": 1,
      "note": 71,
      "start": 55.3719,
      "duration": 0.016,
      "velocity": 108,
      "chip": "ym2612"
    },
    {
      "channel": 0,
      "note": 80,
      "start": 55.3811,
      "duration": 0.0161,
      "velocity": 124,
      "chip": "ym2612"
    },
    {
      "channel": 5,
      "note": 71,
      "start": 55.3826,
      "duration": 0.0158,
      "velocity": 108,
      "chip": "ym2612"
    },
    {
      "channel": 4,
      "note": 81,
      "start": 55.3837,
      "duration": 0.0159,
      "velocity": 98,
      "chip": "ym2612"
    },
    {
      "channel": 3,
      "note": 83,
      "start": 55.3855,
      "duration": 0.0155,
      "velocity": 98,
      "chip": "ym2612"
    },
    {
      "channel": 2,
      "note": 59,
      "start": 55.3867,
      "duration": 0.0159,
      "velocity": 93,
      "chip": "ym2612"
    },
    {
      "channel": 1,
      "note": 71,
      "start": 55.3878,
      "duration": 0.0158,
      "velocity": 108,
      "chip": "ym2612"
    },
    {
      "channel": 0,
      "note": 77,
      "start": 55.3972,
      "duration": 0.0161,
      "velocity": 124,
      "chip": "ym2612"
    },
    {
      "channel": 5,
      "note": 71,
      "start": 55.3984,
      "duration": 0.016,
      "velocity": 108,
      "chip": "ym2612"
    },
    {
      "channel": 4,
      "note": 81,
      "start": 55.3996,
      "duration": 0.016,
      "velocity": 98,
      "chip": "ym2612"
    },
    {
      "channel": 3,
      "note": 83,
      "start": 55.401,
      "duration": 0.0158,
      "velocity": 98,
      "chip": "ym2612"
    },
    {
      "channel": 2,
      "note": 59,
      "start": 55.4025,
      "duration": 0.016,
      "velocity": 93,
      "chip": "ym2612"
    },
    {
      "channel": 1,
      "note": 71,
      "start": 55.4037,
      "duration": 0.0161,
      "velocity": 108,
      "chip": "ym2612"
    },
    {
      "channel": 0,
      "note": 75,
      "start": 55.4133,
      "duration": 0.0161,
      "velocity": 124,
      "chip": "ym2612"
    },
    {
      "channel": 5,
      "note": 71,
      "start": 55.4145,
      "duration": 0.0161,
      "velocity": 108,
      "chip": "ym2612"
    },
    {
      "channel": 4,
      "note": 81,
      "start": 55.4156,
      "duration": 0.0161,
      "velocity": 98,
      "chip": "ym2612"
    },
    {
      "channel": 3,
      "note": 83,
      "start": 55.4168,
      "duration": 0.0161,
      "velocity": 98,
      "chip": "ym2612"
    },
    {
      "channel": 2,
      "note": 59,
      "start": 55.4185,
      "duration": 0.0157,
      "velocity": 93,
      "chip": "ym2612"
    },
    {
      "channel": 1,
      "note": 71,
      "start": 55.4198,
      "duration": 0.0161,
      "velocity": 108,
      "chip": "ym2612"
    },
    {
      "channel": 0,
      "note": 72,
      "start": 55.4294,
      "duration": 0.0161,
      "velocity": 124,
      "chip": "ym2612"
    },
    {
      "channel": 5,
      "note": 71,
      "start": 55.4306,
      "duration": 0.0161,
      "velocity": 108,
      "chip": "ym2612"
    },
    {
      "channel": 4,
      "note": 81,
      "start": 55.4318,
      "duration": 0.0161,
      "velocity": 98,
      "chip": "ym2612"
    },
    {
      "channel": 3,
      "note": 83,
      "start": 55.4329,
      "duration": 0.0161,
      "velocity": 98,
      "chip": "ym2612"
    },
    {
      "channel": 2,
      "note": 59,
      "start": 55.4343,
      "duration": 0.016,
      "velocity": 93,
      "chip": "ym2612"
    },
    {
      "channel": 1,
      "note": 71,
      "start": 55.4359,
      "duration": 0.016,
      "velocity": 108,
      "chip": "ym2612"
    },
    {
      "channel": 0,
      "note": 70,
      "start": 55.4455,
      "duration": 0.0161,
      "velocity": 124,
      "chip": "ym2612"
    },
    {
      "channel": 5,
      "note": 71,
      "start": 55.4467,
      "duration": 0.0161,
      "velocity": 108,
      "chip": "ym2612"
    },
    {
      "channel": 4,
      "note": 81,
      "start": 55.4479,
      "duration": 0.0161,
      "velocity": 98,
      "chip": "ym2612"
    },
    {
      "channel": 3,
      "note": 83,
      "start": 55.449,
      "duration": 0.0161,
      "velocity": 98,
      "chip": "ym2612"
    },
    {
      "channel": 2,
      "note": 59,
      "start": 55.4502,
      "duration": 0.0161,
      "velocity": 93,
      "chip": "ym2612"
    },
    {
      "channel": 1,
      "note": 71,
      "start": 55.4519,
      "duration": 0.0158,
      "velocity": 108,
      "chip": "ym2612"
    },
    {
      "channel": 0,
      "note": 68,
      "start": 55.4616,
      "duration": 0.0161,
      "velocity": 124,
      "chip": "ym2612"
    },
    {
      "channel": 5,
      "note": 71,
      "start": 55.4628,
      "duration": 0.0161,
      "velocity": 108,
      "chip": "ym2612"
    },
    {
      "channel": 4,
      "note": 81,
      "start": 55.464,
      "duration": 0.0161,
      "velocity": 98,
      "chip": "ym2612"
    },
    {
      "channel": 3,
      "note": 83,
      "start": 55.4651,
      "duration": 0.0161,
      "velocity": 98,
      "chip": "ym2612"
    },
    {
      "channel": 2,
      "note": 59,
      "start": 55.4663,
      "duration": 0.0161,
      "velocity": 93,
      "chip": "ym2612"
    },
    {
      "channel": 1,
      "note": 71,
      "start": 55.4677,
      "duration": 0.0159,
      "velocity": 108,
      "chip": "ym2612"
    },
    {
      "channel": 0,
      "note": 65,
      "start": 55.4777,
      "duration": 0.0161,
      "velocity": 124,
      "chip": "ym2612"
    },
    {
      "channel": 5,
      "note": 71,
      "start": 55.4788,
      "duration": 0.0162,
      "velocity": 108,
      "chip": "ym2612"
    },
    {
      "channel": 4,
      "note": 81,
      "start": 55.4801,
      "duration": 0.0162,
      "velocity": 98,
      "chip": "ym2612"
    },
    {
      "channel": 3,
      "note": 83,
      "start": 55.4812,
      "duration": 0.0163,
      "velocity": 98,
      "chip": "ym2612"
    },
    {
      "channel": 2,
      "note": 59,
      "start": 55.4824,
      "duration": 0.0163,
      "velocity": 93,
      "chip": "ym2612"
    },
    {
      "channel": 1,
      "note": 71,
      "start": 55.4836,
      "duration": 0.0164,
      "velocity": 108,
      "chip": "ym2612"
    },
    {
      "channel": 0,
      "note": 63,
      "start": 55.4938,
      "duration": 0.0153,
      "velocity": 1,
      "chip": "ym2612"
    },
    {
      "channel": 5,
      "note": 71,
      "start": 55.495,
      "duration": 0.0153,
      "velocity": 108,
      "chip": "ym2612"
    },
    {
      "channel": 4,
      "note": 81,
      "start": 55.4963,
      "duration": 0.0152,
      "velocity": 98,
      "chip": "ym2612"
    },
    {
      "channel": 3,
      "note": 83,
      "start": 55.4976,
      "duration": 0.0152,
      "velocity": 98,
      "chip": "ym2612"
    },
    {
      "channel": 2,
      "note": 59,
      "start": 55.4988,
      "duration": 0.0152,
      "velocity": 93,
      "chip": "ym2612"
    },
    {
      "channel": 1,
      "note": 71,
      "start": 55.5,
      "duration": 0.0152,
      "velocity": 108,
      "chip": "ym2612"
    },
    {
      "channel": 5,
      "note": 71,
      "start": 55.5103,
      "duration": 0.0153,
      "velocity": 108,
      "chip": "ym2612"
    },
    {
      "channel": 4,
      "note": 81,
      "start": 55.5115,
      "duration": 0.0154,
      "velocity": 98,
      "chip": "ym2612"
    },
    {
      "channel": 3,
      "note": 83,
      "start": 55.5128,
      "duration": 0.0153,
      "velocity": 98,
      "chip": "ym2612"
    },
    {
      "channel": 2,
      "note": 59,
      "start": 55.514,
      "duration": 0.0153,
      "velocity": 93,
      "chip": "ym2612"
    },
    {
      "channel": 1,
      "note": 71,
      "start": 55.5152,
      "duration": 0.0154,
      "velocity": 108,
      "chip": "ym2612"
    },
    {
      "channel": 5,
      "note": 71,
      "start": 55.5256,
      "duration": 0.016,
      "velocity": 108,
      "chip": "ym2612"
    },
    {
      "channel": 4,
      "note": 81,
      "start": 55.5268,
      "duration": 0.016,
      "velocity": 98,
      "chip": "ym2612"
    },
    {
      "channel": 3,
      "note": 83,
      "start": 55.5281,
      "duration": 0.0159,
      "velocity": 98,
      "chip": "ym2612"
    },
    {
      "channel": 2,
      "note": 59,
      "start": 55.5293,
      "duration": 0.0159,
      "velocity": 93,
      "chip": "ym2612"
    },
    {
      "channel": 1,
      "note": 71,
      "start": 55.5306,
      "duration": 0.0158,
      "velocity": 108,
      "chip": "ym2612"
    },
    {
      "channel": 5,
      "note": 71,
      "start": 55.5416,
      "duration": 0.0162,
      "velocity": 108,
      "chip": "ym2612"
    },
    {
      "channel": 4,
      "note": 81,
      "start": 55.5429,
      "duration": 0.0161,
      "velocity": 98,
      "chip": "ym2612"
    },
    {
      "channel": 3,
      "note": 83,
      "start": 55.544,
      "duration": 0.0162,
      "velocity": 98,
      "chip": "ym2612"
    },
    {
      "channel": 2,
      "note": 59,
      "start": 55.5452,
      "duration": 0.0161,
      "velocity": 93,
      "chip": "ym2612"
    },
    {
      "channel": 1,
      "note": 71,
      "start": 55.5463,
      "duration": 0.0161,
      "velocity": 108,
      "chip": "ym2612"
    },
    {
      "channel": 5,
      "note": 71,
      "start": 55.5578,
      "duration": 0.016,
      "velocity": 108,
      "chip": "ym2612"
    },
    {
      "channel": 4,
      "note": 81,
      "start": 55.5589,
      "duration": 0.016,
      "velocity": 98,
      "chip": "ym2612"
    },
    {
      "channel": 3,
      "note": 83,
      "start": 55.5602,
      "duration": 0.016,
      "velocity": 98,
      "chip": "ym2612"
    },
    {
      "channel": 2,
      "note": 59,
      "start": 55.5613,
      "duration": 0.016,
      "velocity": 93,
      "chip": "ym2612"
    },
    {
      "channel": 1,
      "note": 71,
      "start": 55.5625,
      "duration": 0.016,
      "velocity": 108,
      "chip": "ym2612"
    },
    {
      "channel": 5,
      "note": 71,
      "start": 55.5738,
      "duration": 0.0161,
      "velocity": 108,
      "chip": "ym2612"
    },
    {
      "channel": 4,
      "note": 81,
      "start": 55.575,
      "duration": 0.0162,
      "velocity": 98,
      "chip": "ym2612"
    },
    {
      "channel": 3,
      "note": 83,
      "start": 55.5762,
      "duration": 0.0161,
      "velocity": 98,
      "chip": "ym2612"
    },
    {
      "channel": 2,
      "note": 59,
      "start": 55.5773,
      "duration": 0.0162,
      "velocity": 93,
      "chip": "ym2612"
    },
    {
      "channel": 1,
      "note": 71,
      "start": 55.5785,
      "duration": 0.0161,
      "velocity": 108,
      "chip": "ym2612"
    },
    {
      "channel": 5,
      "note": 71,
      "start": 55.5899,
      "duration": 0.0161,
      "velocity": 108,
      "chip": "ym2612"
    },
    {
      "channel": 4,
      "note": 81,
      "start": 55.5911,
      "duration": 0.0161,
      "velocity": 98,
      "chip": "ym2612"
    },
    {
      "channel": 3,
      "note": 83,
      "start": 55.5923,
      "duration": 0.0162,
      "velocity": 98,
      "chip": "ym2612"
    },
    {
      "channel": 2,
      "note": 59,
      "start": 55.5935,
      "duration": 0.0163,
      "velocity": 93,
      "chip": "ym2612"
    },
    {
      "channel": 1,
      "note": 71,
      "start": 55.5946,
      "duration": 0.0163,
      "velocity": 108,
      "chip": "ym2612"
    },
    {
      "channel": 5,
      "note": 71,
      "start": 55.606,
      "duration": 0.0161,
      "velocity": 108,
      "chip": "ym2612"
    },
    {
      "channel": 4,
      "note": 81,
      "start": 55.6073,
      "duration": 0.0161,
      "velocity": 98,
      "chip": "ym2612"
    },
    {
      "channel": 3,
      "note": 83,
      "start": 55.6085,
      "duration": 0.0161,
      "velocity": 98,
      "chip": "ym2612"
    },
    {
      "channel": 2,
      "note": 59,
      "start": 55.6098,
      "duration": 0.0161,
      "velocity": 93,
      "chip": "ym2612"
    },
    {
      "channel": 1,
      "note": 71,
      "start": 55.611,
      "duration": 0.0162,
      "velocity": 108,
      "chip": "ym2612"
    },
    {
      "channel": 5,
      "note": 71,
      "start": 55.6221,
      "duration": 0.0197,
      "velocity": 108,
      "chip": "ym2612"
    },
    {
      "channel": 2,
      "note": 59,
      "start": 55.6259,
      "duration": 0.0204,
      "velocity": 93,
      "chip": "ym2612"
    },
    {
      "channel": 0,
      "note": 36,
      "start": 55.6406,
      "duration": 0.0143,
      "velocity": 115,
      "chip": "ym2612"
    },
    {
      "channel": 5,
      "note": 71,
      "start": 55.6418,
      "duration": 0.0143,
      "velocity": 108,
      "chip": "ym2612"
    },
    {
      "channel": 4,
      "note": 80,
      "start": 55.6434,
      "duration": 0.0141,
      "velocity": 98,
      "chip": "ym2612"
    },
    {
      "channel": 3,
      "note": 83,
      "start": 55.6449,
      "duration": 0.0137,
      "velocity": 98,
      "chip": "ym2612"
    },
    {
      "channel": 2,
      "note": 52,
      "start": 55.6463,
      "duration": 0.0135,
      "velocity": 93,
      "chip": "ym2612"
    },
    {
      "channel": 1,
      "note": 76,
      "start": 55.6478,
      "duration": 0.0133,
      "velocity": 108,
      "chip": "ym2612"
    },
    {
      "channel": 0,
      "note": 36,
      "start": 55.6549,
      "duration": 0.016,
      "velocity": 115,
      "chip": "ym2612"
    },
    {
      "channel": 4,
      "note": 80,
      "start": 55.6574,
      "duration": 0.0162,
      "velocity": 98,
      "chip": "ym2612"
    },
    {
      "channel": 3,
      "note": 83,
      "start": 55.6586,
      "duration": 0.0161,
      "velocity": 98,
      "chip": "ym2612"
    },
    {
      "channel": 2,
      "note": 52,
      "start": 55.6598,
      "duration": 0.0161,
      "velocity": 93,
      "chip": "ym2612"
    },
    {
      "channel": 1,
      "note": 76,
      "start": 55.6611,
      "duration": 0.016,
      "velocity": 108,
      "chip": "ym2612"
    },
    {
      "channel": 0,
      "note": 37,
      "start": 55.6709,
      "duration": 0.0161,
      "velocity": 115,
      "chip": "ym2612"
    },
    {
      "channel": 5,
      "note": 76,
      "start": 55.6724,
      "duration": 0.016,
      "velocity": 108,
      "chip": "ym2612"
    },
    {
      "channel": 4,
      "note": 80,
      "start": 55.6736,
      "duration": 0.0159,
      "velocity": 98,
      "chip": "ym2612"
    },
    {
      "channel": 3,
      "note": 83,
      "start": 55.6747,
      "duration": 0.016,
      "velocity": 98,
      "chip": "ym2612"
    },
    {
      "channel": 2,
      "note": 52,
      "start": 55.6759,
      "duration": 0.0159,
      "velocity": 93,
      "chip": "ym2612"
    },
    {
      "channel": 1,
      "note": 76,
      "start": 55.6771,
      "duration": 0.0159,
      "velocity": 108,
      "chip": "ym2612"
    },
    {
      "channel": 0,
      "note": 37,
      "start": 55.6871,
      "duration": 0.0165,
      "velocity": 115,
      "chip": "ym2612"
    },
    {
      "channel": 5,
      "note": 76,
      "start": 55.6883,
      "duration": 0.0163,
      "velocity": 108,
      "chip": "ym2612"
    },
    {
      "channel": 4,
      "note": 80,
      "start": 55.6895,
      "duration": 0.0163,
      "velocity": 98,
      "chip": "ym2612"
    },
    {
      "channel": 3,
      "note": 83,
      "start": 55.6907,
      "duration": 0.0163,
      "velocity": 98,
      "chip": "ym2612"
    },
    {
      "channel": 2,
      "note": 52,
      "start": 55.6918,
      "duration": 0.0163,
      "velocity": 93,
      "chip": "ym2612"
    },
    {
      "channel": 1,
      "note": 76,
      "start": 55.693,
      "duration": 0.0163,
      "velocity": 108,
      "chip": "ym2612"
    },
    {
      "channel": 0,
      "note": 38,
      "start": 55.7035,
      "duration": 0.0163,
      "velocity": 115,
      "chip": "ym2612"
    },
    {
      "channel": 5,
      "note": 76,
      "start": 55.7047,
      "duration": 0.0163,
      "velocity": 108,
      "chip": "ym2612"
    },
    {
      "channel": 4,
      "note": 80,
      "start": 55.7058,
      "duration": 0.0163,
      "velocity": 98,
      "chip": "ym2612"
    },
    {
      "channel": 3,
      "note": 83,
      "start": 55.707,
      "duration": 0.0163,
      "velocity": 98,
      "chip": "ym2612"
    },
    {
      "channel": 2,
      "note": 52,
      "start": 55.7082,
      "duration": 0.0163,
      "velocity": 93,
      "chip": "ym2612"
    },
    {
      "channel": 1,
      "note": 76,
      "start": 55.7093,
      "duration": 0.0163,
      "velocity": 108,
      "chip": "ym2612"
    },
    {
      "channel": 0,
      "note": 38,
      "start": 55.7198,
      "duration": 0.0161,
      "velocity": 115,
      "chip": "ym2612"
    },
    {
      "channel": 5,
      "note": 76,
      "start": 55.721,
      "duration": 0.0162,
      "velocity": 108,
      "chip": "ym2612"
    },
    {
      "channel": 4,
      "note": 80,
      "start": 55.7222,
      "duration": 0.0161,
      "velocity": 98,
      "chip": "ym2612"
    },
    {
      "channel": 3,
      "note": 83,
      "start": 55.7233,
      "duration": 0.0162,
      "velocity": 98,
      "chip": "ym2612"
    },
    {
      "channel": 2,
      "note": 52,
      "start": 55.7245,
      "duration": 0.0161,
      "velocity": 93,
      "chip": "ym2612"
    },
    {
      "channel": 1,
      "note": 76,
      "start": 55.7257,
      "duration": 0.0162,
      "velocity": 108,
      "chip": "ym2612"
    },
    {
      "channel": 0,
      "note": 39,
      "start": 55.7359,
      "duration": 0.016,
      "velocity": 115,
      "chip": "ym2612"
    },
    {
      "channel": 5,
      "note": 76,
      "start": 55.7371,
      "duration": 0.0161,
      "velocity": 108,
      "chip": "ym2612"
    },
    {
      "channel": 4,
      "note": 80,
      "start": 55.7383,
      "duration": 0.0161,
      "velocity": 98,
      "chip": "ym2612"
    },
    {
      "channel": 3,
      "note": 83,
      "start": 55.7395,
      "duration": 0.0161,
      "velocity": 98,
      "chip": "ym2612"
    },
    {
      "channel": 2,
      "note": 52,
      "start": 55.7406,
      "duration": 0.0161,
      "velocity": 93,
      "chip": "ym2612"
    },
    {
      "channel": 1,
      "note": 76,
      "start": 55.7418,
      "duration": 0.0161,
      "velocity": 108,
      "chip": "ym2612"
    },
    {
      "channel": 0,
      "note": 39,
      "start": 55.752,
      "duration": 0.0158,
      "velocity": 115,
      "chip": "ym2612"
    },
    {
      "channel": 5,
      "note": 76,
      "start": 55.7532,
      "duration": 0.0161,
      "velocity": 108,
      "chip": "ym2612"
    },
    {
      "channel": 4,
      "note": 80,
      "start": 55.7544,
      "duration": 0.0161,
      "velocity": 98,
      "chip": "ym2612"
    },
    {
      "channel": 3,
      "note": 83,
      "start": 55.7556,
      "duration": 0.0161,
      "velocity": 98,
      "chip": "ym2612"
    },
    {
      "channel": 2,
      "note": 52,
      "start": 55.7567,
      "duration": 0.0161,
      "velocity": 93,
      "chip": "ym2612"
    },
    {
      "channel": 1,
      "note": 76,
      "start": 55.7579,
      "duration": 0.0161,
      "velocity": 108,
      "chip": "ym2612"
    },
    {
      "channel": 0,
      "note": 40,
      "start": 55.7677,
      "duration": 0.0159,
      "velocity": 115,
      "chip": "ym2612"
    },
    {
      "channel": 5,
      "note": 76,
      "start": 55.7693,
      "duration": 0.016,
      "velocity": 108,
      "chip": "ym2612"
    },
    {
      "channel": 4,
      "note": 80,
      "start": 55.7705,
      "duration": 0.0162,
      "velocity": 98,
      "chip": "ym2612"
    },
    {
      "channel": 3,
      "note": 83,
      "start": 55.7717,
      "duration": 0.0163,
      "velocity": 98,
      "chip": "ym2612"
    },
    {
      "channel": 2,
      "note": 52,
      "start": 55.7728,
      "duration": 0.0163,
      "velocity": 93,
      "chip": "ym2612"
    },
    {
      "channel": 1,
      "note": 76,
      "start": 55.774,
      "duration": 0.0163,
      "velocity": 108,
      "chip": "ym2612"
    },
    {
      "channel": 0,
      "note": 40,
      "start": 55.7836,
      "duration": 0.0161,
      "velocity": 115,
      "chip": "ym2612"
    },
    {
      "channel": 5,
      "note": 76,
      "start": 55.7853,
      "duration": 0.0161,
      "velocity": 108,
      "chip": "ym2612"
    },
    {
      "channel": 4,
      "note": 80,
      "start": 55.7867,
      "duration": 0.0161,
      "velocity": 98,
      "chip": "ym2612"
    },
    {
      "channel": 3,
      "note": 83,
      "start": 55.788,
      "duration": 0.016,
      "velocity": 98,
      "chip": "ym2612"
    },
    {
      "channel": 2,
      "note": 52,
      "start": 55.7892,
      "duration": 0.016,
      "velocity": 93,
      "chip": "ym2612"
    },
    {
      "channel": 1,
      "note": 76,
      "start": 55.7904,
      "duration": 0.016,
      "velocity": 108,
      "chip": "ym2612"
    },
    {
      "channel": 0,
      "note": 40,
      "start": 55.7997,
      "duration": 0.0161,
      "velocity": 115,
      "chip": "ym2612"
    },
    {
      "channel": 5,
      "note": 76,
      "start": 55.8014,
      "duration": 0.0156,
      "velocity": 108,
      "chip": "ym2612"
    },
    {
      "channel": 4,
      "note": 80,
      "start": 55.8028,
      "duration": 0.0162,
      "velocity": 98,
      "chip": "ym2612"
    },
    {
      "channel": 3,
      "note": 83,
      "start": 55.804,
      "duration": 0.0162,
      "velocity": 98,
      "chip": "ym2612"
    },
    {
      "channel": 2,
      "note": 52,
      "start": 55.8052,
      "duration": 0.0162,
      "velocity": 93,
      "chip": "ym2612"
    },
    {
      "channel": 1,
      "note": 76,
      "start": 55.8064,
      "duration": 0.0162,
      "velocity": 108,
      "chip": "ym2612"
    },
    {
      "channel": 0,
      "note": 41,
      "start": 55.8158,
      "duration": 0.0161,
      "velocity": 115,
      "chip": "ym2612"
    },
    {
      "channel": 5,
      "note": 76,
      "start": 55.8171,
      "duration": 0.0161,
      "velocity": 108,
      "chip": "ym2612"
    },
    {
      "channel": 4,
      "note": 80,
      "start": 55.8189,
      "duration": 0.016,
      "velocity": 98,
      "chip": "ym2612"
    },
    {
      "channel": 3,
      "note": 83,
      "start": 55.8202,
      "duration": 0.0159,
      "velocity": 98,
      "chip": "ym2612"
    },
    {
      "channel": 2,
      "note": 52,
      "start": 55.8214,
      "duration": 0.0159,
      "velocity": 93,
      "chip": "ym2612"
    },
    {
      "channel": 1,
      "note": 76,
      "start": 55.8226,
      "duration": 0.0159,
      "velocity": 108,
      "chip": "ym2612"
    },
    {
      "channel": 0,
      "note": 41,
      "start": 55.8319,
      "duration": 0.0162,
      "velocity": 115,
      "chip": "ym2612"
    },
    {
      "channel": 5,
      "note": 76,
      "start": 55.8332,
      "duration": 0.0161,
      "velocity": 108,
      "chip": "ym2612"
    },
    {
      "channel": 4,
      "note": 80,
      "start": 55.8349,
      "duration": 0.0156,
      "velocity": 98,
      "chip": "ym2612"
    },
    {
      "channel": 3,
      "note": 83,
      "start": 55.8361,
      "duration": 0.0161,
      "velocity": 98,
      "chip": "ym2612"
    },
    {
      "channel": 2,
      "note": 52,
      "start": 55.8373,
      "duration": 0.0161,
      "velocity": 93,
      "chip": "ym2612"
    },
    {
      "channel": 1,
      "note": 76,
      "start": 55.8385,
      "duration": 0.0161,
      "velocity": 108,
      "chip": "ym2612"
    },
    {
      "channel": 0,
      "note": 42,
      "start": 55.8481,
      "duration": 0.0161,
      "velocity": 115,
      "chip": "ym2612"
    },
    {
      "channel": 5,
      "note": 76,
      "start": 55.8493,
      "duration": 0.016,
      "velocity": 108,
      "chip": "ym2612"
    },
    {
      "channel": 4,
      "note": 80,
      "start": 55.8505,
      "duration": 0.016,
      "velocity": 98,
      "chip": "ym2612"
    },
    {
      "channel": 3,
      "note": 83,
      "start": 55.8522,
      "duration": 0.016,
      "velocity": 98,
      "chip": "ym2612"
    },
    {
      "channel": 2,
      "note": 52,
      "start": 55.8534,
      "duration": 0.016,
      "velocity": 93,
      "chip": "ym2612"
    },
    {
      "channel": 1,
      "note": 76,
      "start": 55.8546,
      "duration": 0.0161,
      "velocity": 108,
      "chip": "ym2612"
    },
    {
      "channel": 0,
      "note": 42,
      "start": 55.8641,
      "duration": 0.0161,
      "velocity": 115,
      "chip": "ym2612"
    },
    {
      "channel": 5,
      "note": 76,
      "start": 55.8653,
      "duration": 0.0161,
      "velocity": 108,
      "chip": "ym2612"
    },
    {
      "channel": 4,
      "note": 80,
      "start": 55.8665,
      "duration": 0.0161,
      "velocity": 98,
      "chip": "ym2612"
    },
    {
      "channel": 3,
      "note": 83,
      "start": 55.8682,
      "duration": 0.0155,
      "velocity": 98,
      "chip": "ym2612"
    },
    {
      "channel": 2,
      "note": 52,
      "start": 55.8694,
      "duration": 0.0161,
      "velocity": 93,
      "chip": "ym2612"
    },
    {
      "channel": 1,
      "note": 76,
      "start": 55.8706,
      "duration": 0.016,
      "velocity": 108,
      "chip": "ym2612"
    },
    {
      "channel": 0,
      "note": 43,
      "start": 55.8802,
      "duration": 0.0161,
      "velocity": 115,
      "chip": "ym2612"
    },
    {
      "channel": 5,
      "note": 76,
      "start": 55.8814,
      "duration": 0.0161,
      "velocity": 108,
      "chip": "ym2612"
    },
    {
      "channel": 4,
      "note": 80,
      "start": 55.8826,
      "duration": 0.0161,
      "velocity": 98,
      "chip": "ym2612"
    },
    {
      "channel": 3,
      "note": 83,
      "start": 55.8837,
      "duration": 0.0163,
      "velocity": 98,
      "chip": "ym2612"
    },
    {
      "channel": 2,
      "note": 52,
      "start": 55.8855,
      "duration": 0.0162,
      "velocity": 93,
      "chip": "ym2612"
    },
    {
      "channel": 1,
      "note": 76,
      "start": 55.8867,
      "duration": 0.0163,
      "velocity": 108,
      "chip": "ym2612"
    },
    {
      "channel": 0,
      "note": 43,
      "start": 55.8963,
      "duration": 0.0161,
      "velocity": 115,
      "chip": "ym2612"
    },
    {
      "channel": 5,
      "note": 76,
      "start": 55.8975,
      "duration": 0.0161,
      "velocity": 108,
      "chip": "ym2612"
    },
    {
      "channel": 4,
      "note": 80,
      "start": 55.8988,
      "duration": 0.0162,
      "velocity": 98,
      "chip": "ym2612"
    },
    {
      "channel": 3,
      "note": 83,
      "start": 55.9,
      "duration": 0.0161,
      "velocity": 98,
      "chip": "ym2612"
    },
    {
      "channel": 2,
      "note": 52,
      "start": 55.9017,
      "duration": 0.0159,
      "velocity": 93,
      "chip": "ym2612"
    },
    {
      "channel": 1,
      "note": 76,
      "start": 55.903,
      "duration": 0.0163,
      "velocity": 108,
      "chip": "ym2612"
    },
    {
      "channel": 0,
      "note": 44,
      "start": 55.9124,
      "duration": 0.0179,
      "velocity": 115,
      "chip": "ym2612"
    },
    {
      "channel": 5,
      "note": 76,
      "start": 55.9136,
      "duration": 0.0181,
      "velocity": 108,
      "chip": "ym2612"
    },
    {
      "channel": 2,
      "note": 52,
      "start": 55.9177,
      "duration": 0.0189,
      "velocity": 93,
      "chip": "ym2612"
    },
    {
      "channel": 0,
      "note": 36,
      "start": 55.9304,
      "duration": 0.0143,
      "velocity": 115,
      "chip": "ym2612"
    },
    {
      "channel": 5,
      "note": 76,
      "start": 55.9317,
      "duration": 0.0143,
      "velocity": 108,
      "chip": "ym2612"
    },
    {
      "channel": 4,
      "note": 80,
      "start": 55.9331,
      "duration": 0.0141,
      "velocity": 98,
      "chip": "ym2612"
    },
    {
      "channel": 3,
      "note": 83,
      "start": 55.9351,
      "duration": 0.0134,
      "velocity": 98,
      "chip": "ym2612"
    },
    {
      "channel": 2,
      "note": 52,
      "start": 55.9366,
      "duration": 0.013,
      "velocity": 93,
      "chip": "ym2612"
    },
    {
      "channel": 1,
      "note": 76,
      "start": 55.9381,
      "duration": 0.013,
      "velocity": 108,
      "chip": "ym2612"
    },
    {
      "channel": 0,
      "note": 36,
      "start": 55.9447,
      "duration": 0.016,
      "velocity": 115,
      "chip": "ym2612"
    },
    {
      "channel": 4,
      "note": 80,
      "start": 55.9472,
      "duration": 0.0162,
      "velocity": 98,
      "chip": "ym2612"
    },
    {
      "channel": 3,
      "note": 83,
      "start": 55.9484,
      "duration": 0.0161,
      "velocity": 98,
      "chip": "ym2612"
    },
    {
      "channel": 2,
      "note": 52,
      "start": 55.9497,
      "duration": 0.0161,
      "velocity": 93,
      "chip": "ym2612"
    },
    {
      "channel": 1,
      "note": 76,
      "start": 55.9511,
      "duration": 0.0158,
      "velocity": 108,
      "chip": "ym2612"
    },
    {
      "channel": 0,
      "note": 37,
      "start": 55.9607,
      "duration": 0.0161,
      "velocity": 115,
      "chip": "ym2612"
    },
    {
      "channel": 5,
      "note": 76,
      "start": 55.9622,
      "duration": 0.0159,
      "velocity": 108,
      "chip": "ym2612"
    },
    {
      "channel": 4,
      "note": 80,
      "start": 55.9634,
      "duration": 0.0158,
      "velocity": 98,
      "chip": "ym2612"
    },
    {
      "channel": 3,
      "note": 83,
      "start": 55.9645,
      "duration": 0.0159,
      "velocity": 98,
      "chip": "ym2612"
    },
    {
      "channel": 2,
      "note": 52,
      "start": 55.9657,
      "duration": 0.0159,
      "velocity": 93,
      "chip": "ym2612"
    },
    {
      "channel": 1,
      "note": 76,
      "start": 55.9669,
      "duration": 0.0158,
      "velocity": 108,
      "chip": "ym2612"
    },
    {
      "channel": 0,
      "note": 37,
      "start": 55.9768,
      "duration": 0.0161,
      "velocity": 115,
      "chip": "ym2612"
    },
    {
      "channel": 5,
      "note": 76,
      "start": 55.9781,
      "duration": 0.016,
      "velocity": 108,
      "chip": "ym2612"
    },
    {
      "channel": 4,
      "note": 80,
      "start": 55.9792,
      "duration": 0.016,
      "velocity": 98,
      "chip": "ym2612"
    },
    {
      "channel": 3,
      "note": 83,
      "start": 55.9804,
      "duration": 0.016,
      "velocity": 98,
      "chip": "ym2612"
    },
    {
      "channel": 2,
      "note": 52,
      "start": 55.9816,
      "duration": 0.016,
      "velocity": 93,
      "chip": "ym2612"
    },
    {
      "channel": 1,
      "note": 76,
      "start": 55.9827,
      "duration": 0.016,
      "velocity": 108,
      "chip": "ym2612"
    },
    {
      "channel": 0,
      "note": 38,
      "start": 55.993,
      "duration": 0.0161,
      "velocity": 115,
      "chip": "ym2612"
    },
    {
      "channel": 5,
      "note": 76,
      "start": 55.9941,
      "duration": 0.0161,
      "velocity": 108,
      "chip": "ym2612"
    },
    {
      "channel": 4,
      "note": 80,
      "start": 55.9953,
      "duration": 0.0161,
      "velocity": 98,
      "chip": "ym2612"
    },
    {
      "channel": 3,
      "note": 83,
      "start": 55.9965,
      "duration": 0.0161,
      "velocity": 98,
      "chip": "ym2612"
    },
    {
      "channel": 2,
      "note": 52,
      "start": 55.9976,
      "duration": 0.0161,
      "velocity": 93,
      "chip": "ym2612"
    },
    {
      "channel": 1,
      "note": 76,
      "start": 55.9988,
      "duration": 0.0161,
      "velocity": 108,
      "chip": "ym2612"
    },
    {
      "channel": 0,
      "note": 38,
      "start": 56.0091,
      "duration": 0.0161,
      "velocity": 115,
      "chip": "ym2612"
    },
    {
      "channel": 5,
      "note": 76,
      "start": 56.0102,
      "duration": 0.0161,
      "velocity": 108,
      "chip": "ym2612"
    },
    {
      "channel": 4,
      "note": 80,
      "start": 56.0114,
      "duration": 0.0161,
      "velocity": 98,
      "chip": "ym2612"
    },
    {
      "channel": 3,
      "note": 83,
      "start": 56.0126,
      "duration": 0.0161,
      "velocity": 98,
      "chip": "ym2612"
    },
    {
      "channel": 2,
      "note": 52,
      "start": 56.0137,
      "duration": 0.0161,
      "velocity": 93,
      "chip": "ym2612"
    },
    {
      "channel": 1,
      "note": 76,
      "start": 56.0149,
      "duration": 0.0162,
      "velocity": 108,
      "chip": "ym2612"
    },
    {
      "channel": 0,
      "note": 39,
      "start": 56.0252,
      "duration": 0.0161,
      "velocity": 115,
      "chip": "ym2612"
    },
    {
      "channel": 5,
      "note": 76,
      "start": 56.0263,
      "duration": 0.0161,
      "velocity": 108,
      "chip": "ym2612"
    },
    {
      "channel": 4,
      "note": 80,
      "start": 56.0275,
      "duration": 0.0161,
      "velocity": 98,
      "chip": "ym2612"
    },
    {
      "channel": 3,
      "note": 83,
      "start": 56.0287,
      "duration": 0.0161,
      "velocity": 98,
      "chip": "ym2612"
    },
    {
      "channel": 2,
      "note": 52,
      "start": 56.0299,
      "duration": 0.0161,
      "velocity": 93,
      "chip": "ym2612"
    },
    {
      "channel": 1,
      "note": 76,
      "start": 56.031,
      "duration": 0.0161,
      "velocity": 108,
      "chip": "ym2612"
    },
    {
      "channel": 0,
      "note": 39,
      "start": 56.0412,
      "duration": 0.0161,
      "velocity": 115,
      "chip": "ym2612"
    },
    {
      "channel": 5,
      "note": 76,
      "start": 56.0424,
      "duration": 0.0161,
      "velocity": 108,
      "chip": "ym2612"
    },
    {
      "channel": 4,
      "note": 80,
      "start": 56.0436,
      "duration": 0.0161,
      "velocity": 98,
      "chip": "ym2612"
    },
    {
      "channel": 3,
      "note": 83,
      "start": 56.0448,
      "duration": 0.0161,
      "velocity": 98,
      "chip": "ym2612"
    },
    {
      "channel": 2,
      "note": 52,
      "start": 56.046,
      "duration": 0.0161,
      "velocity": 93,
      "chip": "ym2612"
    },
    {
      "channel": 1,
      "note": 76,
      "start": 56.0471,
      "duration": 0.0161,
      "velocity": 108,
      "chip": "ym2612"
    },
    {
      "channel": 0,
      "note": 40,
      "start": 56.0573,
      "duration": 0.0161,
      "velocity": 115,
      "chip": "ym2612"
    },
    {
      "channel": 5,
      "note": 76,
      "start": 56.0585,
      "duration": 0.0161,
      "velocity": 108,
      "chip": "ym2612"
    },
    {
      "channel": 4,
      "note": 80,
      "start": 56.0597,
      "duration": 0.0161,
      "velocity": 98,
      "chip": "ym2612"
    },
    {
      "channel": 3,
      "note": 83,
      "start": 56.0608,
      "duration": 0.0163,
      "velocity": 98,
      "chip": "ym2612"
    },
    {
      "channel": 2,
      "note": 52,
      "start": 56.0621,
      "duration": 0.0163,
      "velocity": 93,
      "chip": "ym2612"
    },
    {
      "channel": 1,
      "note": 76,
      "start": 56.0632,
      "duration": 0.0164,
      "velocity": 108,
      "chip": "ym2612"
    },
    {
      "channel": 0,
      "note": 40,
      "start": 56.0734,
      "duration": 0.0161,
      "velocity": 115,
      "chip": "ym2612"
    },
    {
      "channel": 5,
      "note": 76,
      "start": 56.0746,
      "duration": 0.0162,
      "velocity": 108,
      "chip": "ym2612"
    },
    {
      "channel": 4,
      "note": 80,
      "start": 56.0759,
      "duration": 0.0161,
      "velocity": 98,
      "chip": "ym2612"
    },
    {
      "channel": 3,
      "note": 83,
      "start": 56.0771,
      "duration": 0.0161,
      "velocity": 98,
      "chip": "ym2612"
    },
    {
      "channel": 2,
      "note": 52,
      "start": 56.0784,
      "duration": 0.016,
      "velocity": 93,
      "chip": "ym2612"
    },
    {
      "channel": 1,
      "note": 76,
      "start": 56.0796,
      "duration": 0.016,
      "velocity": 108,
      "chip": "ym2612"
    },
    {
      "channel": 0,
      "note": 40,
      "start": 56.0895,
      "duration": 0.0161,
      "velocity": 115,
      "chip": "ym2612"
    },
    {
      "channel": 5,
      "note": 76,
      "start": 56.0907,
      "duration": 0.0162,
      "velocity": 108,
      "chip": "ym2612"
    },
    {
      "channel": 4,
      "note": 80,
      "start": 56.092,
      "duration": 0.0162,
      "velocity": 98,
      "chip": "ym2612"
    },
    {
      "channel": 3,
      "note": 83,
      "start": 56.0932,
      "duration": 0.0162,
      "velocity": 98,
      "chip": "ym2612"
    },
    {
      "channel": 2,
      "note": 52,
      "start": 56.0944,
      "duration": 0.0162,
      "velocity": 93,
      "chip": "ym2612"
    },
    {
      "channel": 1,
      "note": 76,
      "start": 56.0956,
      "duration": 0.0162,
      "velocity": 108,
      "chip": "ym2612"
    },
    {
      "channel": 0,
      "note": 41,
      "start": 56.1056,
      "duration": 0.0161,
      "velocity": 115,
      "chip": "ym2612"
    },
    {
      "channel": 5,
      "note": 76,
      "start": 56.1069,
      "duration": 0.0161,
      "velocity": 108,
      "chip": "ym2612"
    },
    {
      "channel": 4,
      "note": 80,
      "start": 56.1082,
      "duration": 0.016,
      "velocity": 98,
      "chip": "ym2612"
    },
    {
      "channel": 3,
      "note": 83,
      "start": 56.1095,
      "duration": 0.0159,
      "velocity": 98,
      "chip": "ym2612"
    },
    {
      "channel": 2,
      "note": 52,
      "start": 56.1107,
      "duration": 0.0159,
      "velocity": 93,
      "chip": "ym2612"
    },
    {
      "channel": 1,
      "note": 76,
      "start": 56.1119,
      "duration": 0.0159,
      "velocity": 108,
      "chip": "ym2612"
    },
    {
      "channel": 0,
      "note": 41,
      "start": 56.1217,
      "duration": 0.0162,
      "velocity": 115,
      "chip": "ym2612"
    },
    {
      "channel": 5,
      "note": 76,
      "start": 56.123,
      "duration": 0.0161,
      "velocity": 108,
      "chip": "ym2612"
    },
    {
      "channel": 4,
      "note": 80,
      "start": 56.1241,
      "duration": 0.0161,
      "velocity": 98,
      "chip": "ym2612"
    },
    {
      "channel": 3,
      "note": 83,
      "start": 56.1254,
      "duration": 0.0161,
      "velocity": 98,
      "chip": "ym2612"
    },
    {
      "channel": 2,
      "note": 52,
      "start": 56.1265,
      "duration": 0.0161,
      "velocity": 93,
      "chip": "ym2612"
    },
    {
      "channel": 1,
      "note": 76,
      "start": 56.1277,
      "duration": 0.0161,
      "velocity": 108,
      "chip": "ym2612"
    },
    {
      "channel": 0,
      "note": 42,
      "start": 56.1379,
      "duration": 0.0161,
      "velocity": 115,
      "chip": "ym2612"
    },
    {
      "channel": 5,
      "note": 76,
      "start": 56.1391,
      "duration": 0.0161,
      "velocity": 108,
      "chip": "ym2612"
    },
    {
      "channel": 4,
      "note": 80,
      "start": 56.1403,
      "duration": 0.0161,
      "velocity": 98,
      "chip": "ym2612"
    },
    {
      "channel": 3,
      "note": 83,
      "start": 56.1415,
      "duration": 0.0161,
      "velocity": 98,
      "chip": "ym2612"
    },
    {
      "channel": 2,
      "note": 52,
      "start": 56.1427,
      "duration": 0.0161,
      "velocity": 93,
      "chip": "ym2612"
    },
    {
      "channel": 1,
      "note": 76,
      "start": 56.1438,
      "duration": 0.0161,
      "velocity": 108,
      "chip": "ym2612"
    },
    {
      "channel": 0,
      "note": 42,
      "start": 56.154,
      "duration": 0.0162,
      "velocity": 115,
      "chip": "ym2612"
    },
    {
      "channel": 5,
      "note": 76,
      "start": 56.1552,
      "duration": 0.0161,
      "velocity": 108,
      "chip": "ym2612"
    },
    {
      "channel": 4,
      "note": 80,
      "start": 56.1564,
      "duration": 0.0162,
      "velocity": 98,
      "chip": "ym2612"
    },
    {
      "channel": 3,
      "note": 83,
      "start": 56.1576,
      "duration": 0.0161,
      "velocity": 98,
      "chip": "ym2612"
    },
    {
      "channel": 2,
      "note": 52,
      "start": 56.1588,
      "duration": 0.0161,
      "velocity": 93,
      "chip": "ym2612"
    },
    {
      "channel": 1,
      "note": 76,
      "start": 56.1599,
      "duration": 0.0162,
      "velocity": 108,
      "chip": "ym2612"
    },
    {
      "channel": 0,
      "note": 43,
      "start": 56.1702,
      "duration": 0.0163,
      "velocity": 115,
      "chip": "ym2612"
    },
    {
      "channel": 5,
      "note": 76,
      "start": 56.1713,
      "duration": 0.0163,
      "velocity": 108,
      "chip": "ym2612"
    },
    {
      "channel": 4,
      "note": 80,
      "start": 56.1726,
      "duration": 0.0164,
      "velocity": 98,
      "chip": "ym2612"
    },
    {
      "channel": 3,
      "note": 83,
      "start": 56.1737,
      "duration": 0.0166,
      "velocity": 98,
      "chip": "ym2612"
    },
    {
      "channel": 2,
      "note": 52,
      "start": 56.1749,
      "duration": 0.0166,
      "velocity": 93,
      "chip": "ym2612"
    },
    {
      "channel": 1,
      "note": 76,
      "start": 56.1761,
      "duration": 0.0166,
      "velocity": 108,
      "chip": "ym2612"
    },
    {
      "channel": 0,
      "note": 43,
      "start": 56.1866,
      "duration": 0.0163,
      "velocity": 115,
      "chip": "ym2612"
    },
    {
      "channel": 5,
      "note": 76,
      "start": 56.1877,
      "duration": 0.0163,
      "velocity": 108,
      "chip": "ym2612"
    },
    {
      "channel": 4,
      "note": 80,
      "start": 56.189,
      "duration": 0.0163,
      "velocity": 98,
      "chip": "ym2612"
    },
    {
      "channel": 3,
      "note": 83,
      "start": 56.1902,
      "duration": 0.0163,
      "velocity": 98,
      "chip": "ym2612"
    },
    {
      "channel": 2,
      "note": 52,
      "start": 56.1915,
      "duration": 0.0164,
      "velocity": 93,
      "chip": "ym2612"
    },
    {
      "channel": 1,
      "note": 76,
      "start": 56.1927,
      "duration": 0.0165,
      "velocity": 108,
      "chip": "ym2612"
    },
    {
      "channel": 0,
      "note": 44,
      "start": 56.2028,
      "duration": 0.0179,
      "velocity": 115,
      "chip": "ym2612"
    },
    {
      "channel": 5,
      "note": 76,
      "start": 56.204,
      "duration": 0.018,
      "velocity": 108,
      "chip": "ym2612"
    },
    {
      "channel": 2,
      "note": 52,
      "start": 56.2079,
      "duration": 0.0186,
      "velocity": 93,
      "chip": "ym2612"
    },
    {
      "channel": 0,
      "note": 36,
      "start": 56.2208,
      "duration": 0.0142,
      "velocity": 115,
      "chip": "ym2612"
    },
    {
      "channel": 5,
      "note": 76,
      "start": 56.222,
      "duration": 0.0143,
      "velocity": 108,
      "chip": "ym2612"
    },
    {
      "channel": 4,
      "note": 81,
      "start": 56.2236,
      "duration": 0.014,
      "velocity": 98,
      "chip": "ym2612"
    },
    {
      "channel": 3,
      "note": 85,
      "start": 56.2251,
      "duration": 0.0137,
      "velocity": 98,
      "chip": "ym2612"
    },
    {
      "channel": 2,
      "note": 57,
      "start": 56.2266,
      "duration": 0.0136,
      "velocity": 93,
      "chip": "ym2612"
    },
    {
      "channel": 1,
      "note": 76,
      "start": 56.228,
      "duration": 0.0133,
      "velocity": 108,
      "chip": "ym2612"
    },
    {
      "channel": 0,
      "note": 36,
      "start": 56.2351,
      "duration": 0.0157,
      "velocity": 115,
      "chip": "ym2612"
    },
    {
      "channel": 4,
      "note": 81,
      "start": 56.2376,
      "duration": 0.0162,
      "velocity": 98,
      "chip": "ym2612"
    },
    {
      "channel": 3,
      "note": 85,
      "start": 56.2388,
      "duration": 0.0161,
      "velocity": 98,
      "chip": "ym2612"
    },
    {
      "channel": 2,
      "note": 57,
      "start": 56.2401,
      "duration": 0.016,
      "velocity": 93,
      "chip": "ym2612"
    },
    {
      "channel": 1,
      "note": 76,
      "start": 56.2413,
      "duration": 0.016,
      "velocity": 108,
      "chip": "ym2612"
    },
    {
      "channel": 0,
      "note": 37,
      "start": 56.2508,
      "duration": 0.0159,
      "velocity": 115,
      "chip": "ym2612"
    },
    {
      "channel": 5,
      "note": 76,
      "start": 56.2527,
      "duration": 0.0158,
      "velocity": 108,
      "chip": "ym2612"
    },
    {
      "channel": 4,
      "note": 81,
      "start": 56.2538,
      "duration": 0.0159,
      "velocity": 98,
      "chip": "ym2612"
    },
    {
      "channel": 3,
      "note": 85,
      "start": 56.2549,
      "duration": 0.0159,
      "velocity": 98,
      "chip": "ym2612"
    },
    {
      "channel": 2,
      "note": 57,
      "start": 56.2561,
      "duration": 0.0158,
      "velocity": 93,
      "chip": "ym2612"
    },
    {
      "channel": 1,
      "note": 76,
      "start": 56.2573,
      "duration": 0.0159,
      "velocity": 108,
      "chip": "ym2612"
    },
    {
      "channel": 0,
      "note": 37,
      "start": 56.2666,
      "duration": 0.0161,
      "velocity": 115,
      "chip": "ym2612"
    },
    {
      "channel": 5,
      "note": 76,
      "start": 56.2684,
      "duration": 0.0157,
      "velocity": 108,
      "chip": "ym2612"
    },
    {
      "channel": 4,
      "note": 81,
      "start": 56.2697,
      "duration": 0.016,
      "velocity": 98,
      "chip": "ym2612"
    },
    {
      "channel": 3,
      "note": 85,
      "start": 56.2708,
      "duration": 0.016,
      "velocity": 98,
      "chip": "ym2612"
    },
    {
      "channel": 2,
      "note": 57,
      "start": 56.272,
      "duration": 0.016,
      "velocity": 93,
      "chip": "ym2612"
    },
    {
      "channel": 1,
      "note": 76,
      "start": 56.2732,
      "duration": 0.016,
      "velocity": 108,
      "chip": "ym2612"
    },
    {
      "channel": 0,
      "note": 38,
      "start": 56.2827,
      "duration": 0.0162,
      "velocity": 115,
      "chip": "ym2612"
    },
    {
      "channel": 5,
      "note": 76,
      "start": 56.2841,
      "duration": 0.0159,
      "velocity": 108,
      "chip": "ym2612"
    },
    {
      "channel": 4,
      "note": 81,
      "start": 56.2857,
      "duration": 0.016,
      "velocity": 98,
      "chip": "ym2612"
    },
    {
      "channel": 3,
      "note": 85,
      "start": 56.2869,
      "duration": 0.0161,
      "velocity": 98,
      "chip": "ym2612"
    },
    {
      "channel": 2,
      "note": 57,
      "start": 56.288,
      "duration": 0.0161,
      "velocity": 93,
      "chip": "ym2612"
    },
    {
      "channel": 1,
      "note": 76,
      "start": 56.2892,
      "duration": 0.0161,
      "velocity": 108,
      "chip": "ym2612"
    },
    {
      "channel": 0,
      "note": 38,
      "start": 56.2989,
      "duration": 0.0161,
      "velocity": 115,
      "chip": "ym2612"
    },
    {
      "channel": 5,
      "note": 76,
      "start": 56.3,
      "duration": 0.0161,
      "velocity": 108,
      "chip": "ym2612"
    },
    {
      "channel": 4,
      "note": 81,
      "start": 56.3017,
      "duration": 0.0158,
      "velocity": 98,
      "chip": "ym2612"
    },
    {
      "channel": 3,
      "note": 85,
      "start": 56.303,
      "duration": 0.0161,
      "velocity": 98,
      "chip": "ym2612"
    },
    {
      "channel": 2,
      "note": 57,
      "start": 56.3041,
      "duration": 0.0162,
      "velocity": 93,
      "chip": "ym2612"
    },
    {
      "channel": 1,
      "note": 76,
      "start": 56.3053,
      "duration": 0.0161,
      "velocity": 108,
      "chip": "ym2612"
    },
    {
      "channel": 0,
      "note": 39,
      "start": 56.315,
      "duration": 0.0161,
      "velocity": 115,
      "chip": "ym2612"
    },
    {
      "channel": 5,
      "note": 76,
      "start": 56.3161,
      "duration": 0.0161,
      "velocity": 108,
      "chip": "ym2612"
    },
    {
      "channel": 4,
      "note": 81,
      "start": 56.3175,
      "duration": 0.0159,
      "velocity": 98,
      "chip": "ym2612"
    },
    {
      "channel": 3,
      "note": 85,
      "start": 56.3191,
      "duration": 0.016,
      "velocity": 98,
      "chip": "ym2612"
    },
    {
      "channel": 2,
      "note": 57,
      "start": 56.3203,
      "duration": 0.0161,
      "velocity": 93,
      "chip": "ym2612"
    },
    {
      "channel": 1,
      "note": 76,
      "start": 56.3214,
      "duration": 0.0162,
      "velocity": 108,
      "chip": "ym2612"
    },
    {
      "channel": 0,
      "note": 39,
      "start": 56.3311,
      "duration": 0.0161,
      "velocity": 115,
      "chip": "ym2612"
    },
    {
      "channel": 5,
      "note": 76,
      "start": 56.3322,
      "duration": 0.0161,
      "velocity": 108,
      "chip": "ym2612"
    },
    {
      "channel": 4,
      "note": 81,
      "start": 56.3334,
      "duration": 0.0161,
      "velocity": 98,
      "chip": "ym2612"
    },
    {
      "channel": 3,
      "note": 85,
      "start": 56.3351,
      "duration": 0.0158,
      "velocity": 98,
      "chip": "ym2612"
    },
    {
      "channel": 2,
      "note": 57,
      "start": 56.3363,
      "duration": 0.0161,
      "velocity": 93,
      "chip": "ym2612"
    },
    {
      "channel": 1,
      "note": 76,
      "start": 56.3376,
      "duration": 0.016,
      "velocity": 108,
      "chip": "ym2612"
    },
    {
      "channel": 0,
      "note": 40,
      "start": 56.3472,
      "duration": 0.0161,
      "velocity": 115,
      "chip": "ym2612"
    },
    {
      "channel": 5,
      "note": 76,
      "start": 56.3483,
      "duration": 0.0161,
      "velocity": 108,
      "chip": "ym2612"
    },
    {
      "channel": 4,
      "note": 81,
      "start": 56.3495,
      "duration": 0.0162,
      "velocity": 98,
      "chip": "ym2612"
    },
    {
      "channel": 3,
      "note": 85,
      "start": 56.3509,
      "duration": 0.016,
      "velocity": 98,
      "chip": "ym2612"
    },
    {
      "channel": 2,
      "note": 57,
      "start": 56.3524,
      "duration": 0.0163,
      "velocity": 93,
      "chip": "ym2612"
    },
    {
      "channel": 1,
      "note": 76,
      "start": 56.3536,
      "duration": 0.0164,
      "velocity": 108,
      "chip": "ym2612"
    },
    {
      "channel": 0,
      "note": 40,
      "start": 56.3633,
      "duration": 0.0161,
      "velocity": 115,
      "chip": "ym2612"
    },
    {
      "channel": 5,
      "note": 76,
      "start": 56.3644,
      "duration": 0.0161,
      "velocity": 108,
      "chip": "ym2612"
    },
    {
      "channel": 4,
      "note": 81,
      "start": 56.3657,
      "duration": 0.0161,
      "velocity": 98,
      "chip": "ym2612"
    },
    {
      "channel": 3,
      "note": 85,
      "start": 56.367,
      "duration": 0.0161,
      "velocity": 98,
      "chip": "ym2612"
    },
    {
      "channel": 2,
      "note": 57,
      "start": 56.3688,
      "duration": 0.0156,
      "velocity": 93,
      "chip": "ym2612"
    },
    {
      "channel": 1,
      "note": 76,
      "start": 56.37,
      "duration": 0.016,
      "velocity": 108,
      "chip": "ym2612"
    },
    {
      "channel": 0,
      "note": 40,
      "start": 56.3794,
      "duration": 0.0161,
      "velocity": 115,
      "chip": "ym2612"
    },
    {
      "channel": 5,
      "note": 76,
      "start": 56.3806,
      "duration": 0.0162,
      "velocity": 108,
      "chip": "ym2612"
    },
    {
      "channel": 4,
      "note": 81,
      "start": 56.3818,
      "duration": 0.0162,
      "velocity": 98,
      "chip": "ym2612"
    },
    {
      "channel": 3,
      "note": 85,
      "start": 56.3831,
      "duration": 0.0161,
      "velocity": 98,
      "chip": "ym2612"
    },
    {
      "channel": 2,
      "note": 57,
      "start": 56.3844,
      "duration": 0.016,
      "velocity": 93,
      "chip": "ym2612"
    },
    {
      "channel": 1,
      "note": 76,
      "start": 56.386,
      "duration": 0.0162,
      "velocity": 108,
      "chip": "ym2612"
    },
    {
      "channel": 0,
      "note": 41,
      "start": 56.3955,
      "duration": 0.0161,
      "velocity": 115,
      "chip": "ym2612"
    },
    {
      "channel": 5,
      "note": 76,
      "start": 56.3967,
      "duration": 0.016,
      "velocity": 108,
      "chip": "ym2612"
    },
    {
      "channel": 4,
      "note": 81,
      "start": 56.398,
      "duration": 0.016,
      "velocity": 98,
      "chip": "ym2612"
    },
    {
      "channel": 3,
      "note": 85,
      "start": 56.3992,
      "duration": 0.016,
      "velocity": 98,
      "chip": "ym2612"
    },
    {
      "channel": 2,
      "note": 57,
      "start": 56.4005,
      "duration": 0.0159,
      "velocity": 93,
      "chip": "ym2612"
    },
    {
      "channel": 1,
      "note": 76,
      "start": 56.4023,
      "duration": 0.0154,
      "velocity": 108,
      "chip": "ym2612"
    },
    {
      "channel": 0,
      "note": 41,
      "start": 56.4115,
      "duration": 0.0161,
      "velocity": 115,
      "chip": "ym2612"
    },
    {
      "channel": 5,
      "note": 76,
      "start": 56.4128,
      "duration": 0.0161,
      "velocity": 108,
      "chip": "ym2612"
    },
    {
      "channel": 4,
      "note": 81,
      "start": 56.414,
      "duration": 0.0161,
      "velocity": 98,
      "chip": "ym2612"
    },
    {
      "channel": 3,
      "note": 85,
      "start": 56.4152,
      "duration": 0.0161,
      "velocity": 98,
      "chip": "ym2612"
    },
    {
      "channel": 2,
      "note": 57,
      "start": 56.4163,
      "duration": 0.0161,
      "velocity": 93,
      "chip": "ym2612"
    },
    {
      "channel": 1,
      "note": 76,
      "start": 56.4177,
      "duration": 0.0159,
      "velocity": 108,
      "chip": "ym2612"
    },
    {
      "channel": 0,
      "note": 42,
      "start": 56.4276,
      "duration": 0.0162,
      "velocity": 115,
      "chip": "ym2612"
    },
    {
      "channel": 5,
      "note": 76,
      "start": 56.4289,
      "duration": 0.016,
      "velocity": 108,
      "chip": "ym2612"
    },
    {
      "channel": 4,
      "note": 81,
      "start": 56.4301,
      "duration": 0.016,
      "velocity": 98,
      "chip": "ym2612"
    },
    {
      "channel": 3,
      "note": 85,
      "start": 56.4313,
      "duration": 0.016,
      "velocity": 98,
      "chip": "ym2612"
    },
    {
      "channel": 2,
      "note": 57,
      "start": 56.4325,
      "duration": 0.016,
      "velocity": 93,
      "chip": "ym2612"
    },
    {
      "channel": 1,
      "note": 76,
      "start": 56.4336,
      "duration": 0.016,
      "velocity": 108,
      "chip": "ym2612"
    },
    {
      "channel": 0,
      "note": 42,
      "start": 56.4438,
      "duration": 0.0161,
      "velocity": 115,
      "chip": "ym2612"
    },
    {
      "channel": 5,
      "note": 76,
      "start": 56.4449,
      "duration": 0.0161,
      "velocity": 108,
      "chip": "ym2612"
    },
    {
      "channel": 4,
      "note": 81,
      "start": 56.4461,
      "duration": 0.0161,
      "velocity": 98,
      "chip": "ym2612"
    },
    {
      "channel": 3,
      "note": 85,
      "start": 56.4473,
      "duration": 0.0161,
      "velocity": 98,
      "chip": "ym2612"
    },
    {
      "channel": 2,
      "note": 57,
      "start": 56.4485,
      "duration": 0.0161,
      "velocity": 93,
      "chip": "ym2612"
    },
    {
      "channel": 1,
      "note": 76,
      "start": 56.4497,
      "duration": 0.0161,
      "velocity": 108,
      "chip": "ym2612"
    },
    {
      "channel": 0,
      "note": 43,
      "start": 56.4599,
      "duration": 0.0161,
      "velocity": 115,
      "chip": "ym2612"
    },
    {
      "channel": 5,
      "note": 76,
      "start": 56.461,
      "duration": 0.0161,
      "velocity": 108,
      "chip": "ym2612"
    },
    {
      "channel": 4,
      "note": 81,
      "start": 56.4622,
      "duration": 0.0162,
      "velocity": 98,
      "chip": "ym2612"
    },
    {
      "channel": 3,
      "note": 85,
      "start": 56.4634,
      "duration": 0.0163,
      "velocity": 98,
      "chip": "ym2612"
    },
    {
      "channel": 2,
      "note": 57,
      "start": 56.4646,
      "duration": 0.0163,
      "velocity": 93,
      "chip": "ym2612"
    },
    {
      "channel": 1,
      "note": 76,
      "start": 56.4657,
      "duration": 0.0163,
      "velocity": 108,
      "chip": "ym2612"
    },
    {
      "channel": 0,
      "note": 43,
      "start": 56.476,
      "duration": 0.0161,
      "velocity": 115,
      "chip": "ym2612"
    },
    {
      "channel": 5,
      "note": 76,
      "start": 56.4771,
      "duration": 0.0161,
      "velocity": 108,
      "chip": "ym2612"
    },
    {
      "channel": 4,
      "note": 81,
      "start": 56.4784,
      "duration": 0.0161,
      "velocity": 98,
      "chip": "ym2612"
    },
    {
      "channel": 3,
      "note": 85,
      "start": 56.4797,
      "duration": 0.0161,
      "velocity": 98,
      "chip": "ym2612"
    },
    {
      "channel": 2,
      "note": 57,
      "start": 56.4809,
      "duration": 0.0162,
      "velocity": 93,
      "chip": "ym2612"
    },
    {
      "channel": 1,
      "note": 76,
      "start": 56.4821,
      "duration": 0.0162,
      "velocity": 108,
      "chip": "ym2612"
    },
    {
      "channel": 0,
      "note": 44,
      "start": 56.4921,
      "duration": 0.0179,
      "velocity": 124,
      "chip": "ym2612"
    },
    {
      "channel": 5,
      "note": 76,
      "start": 56.4932,
      "duration": 0.0181,
      "velocity": 108,
      "chip": "ym2612"
    },
    {
      "channel": 2,
      "note": 57,
      "start": 56.4971,
      "duration": 0.0188,
      "velocity": 93,
      "chip": "ym2612"
    },
    {
      "channel": 0,
      "note": 84,
      "start": 56.51,
      "duration": 0.0143,
      "velocity": 124,
      "chip": "ym2612"
    },
    {
      "channel": 5,
      "note": 76,
      "start": 56.5113,
      "duration": 0.0143,
      "velocity": 108,
      "chip": "ym2612"
    },
    {
      "channel": 4,
      "note": 81,
      "start": 56.5128,
      "duration": 0.0141,
      "velocity": 98,
      "chip": "ym2612"
    },
    {
      "channel": 3,
      "note": 85,
      "start": 56.5144,
      "duration": 0.0137,
      "velocity": 98,
      "chip": "ym2612"
    },
    {
      "channel": 2,
      "note": 57,
      "start": 56.5159,
      "duration": 0.0134,
      "velocity": 93,
      "chip": "ym2612"
    },
    {
      "channel": 1,
      "note": 76,
      "start": 56.5177,
      "duration": 0.0129,
      "velocity": 108,
      "chip": "ym2612"
    },
    {
      "channel": 0,
      "note": 82,
      "start": 56.5243,
      "duration": 0.016,
      "velocity": 124,
      "chip": "ym2612"
    },
    {
      "channel": 4,
      "note": 81,
      "start": 56.5269,
      "duration": 0.0162,
      "velocity": 98,
      "chip": "ym2612"
    },
    {
      "channel": 3,
      "note": 85,
      "start": 56.5281,
      "duration": 0.0161,
      "velocity": 98,
      "chip": "ym2612"
    },
    {
      "channel": 2,
      "note": 57,
      "start": 56.5293,
      "duration": 0.0161,
      "velocity": 93,
      "chip": "ym2612"
    },
    {
      "channel": 1,
      "note": 76,
      "start": 56.5306,
      "duration": 0.016,
      "velocity": 108,
      "chip": "ym2612"
    },
    {
      "channel": 0,
      "note": 80,
      "start": 56.5404,
      "duration": 0.0161,
      "velocity": 124,
      "chip": "ym2612"
    },
    {
      "channel": 5,
      "note": 76,
      "start": 56.5419,
      "duration": 0.0159,
      "velocity": 108,
      "chip": "ym2612"
    },
    {
      "channel": 4,
      "note": 81,
      "start": 56.5431,
      "duration": 0.0158,
      "velocity": 98,
      "chip": "ym2612"
    },
    {
      "channel": 3,
      "note": 85,
      "start": 56.5442,
      "duration": 0.0159,
      "velocity": 98,
      "chip": "ym2612"
    },
    {
      "channel": 2,
      "note": 57,
      "start": 56.5454,
      "duration": 0.0158,
      "velocity": 93,
      "chip": "ym2612"
    },
    {
      "channel": 1,
      "note": 76,
      "start": 56.5466,
      "duration": 0.0158,
      "velocity": 108,
      "chip": "ym2612"
    },
    {
      "channel": 0,
      "note": 77,
      "start": 56.5565,
      "duration": 0.0161,
      "velocity": 124,
      "chip": "ym2612"
    },
    {
      "channel": 5,
      "note": 76,
      "start": 56.5577,
      "duration": 0.016,
      "velocity": 108,
      "chip": "ym2612"
    },
    {
      "channel": 4,
      "note": 81,
      "start": 56.5589,
      "duration": 0.016,
      "velocity": 98,
      "chip": "ym2612"
    },
    {
      "channel": 3,
      "note": 85,
      "start": 56.5601,
      "duration": 0.016,
      "velocity": 98,
      "chip": "ym2612"
    },
    {
      "channel": 2,
      "note": 57,
      "start": 56.5612,
      "duration": 0.016,
      "velocity": 93,
      "chip": "ym2612"
    },
    {
      "channel": 1,
      "note": 76,
      "start": 56.5624,
      "duration": 0.016,
      "velocity": 108,
      "chip": "ym2612"
    },
    {
      "channel": 0,
      "note": 75,
      "start": 56.5726,
      "duration": 0.0161,
      "velocity": 124,
      "chip": "ym2612"
    },
    {
      "channel": 5,
      "note": 76,
      "start": 56.5738,
      "duration": 0.0161,
      "velocity": 108,
      "chip": "ym2612"
    },
    {
      "channel": 4,
      "note": 81,
      "start": 56.5749,
      "duration": 0.0161,
      "velocity": 98,
      "chip": "ym2612"
    },
    {
      "channel": 3,
      "note": 85,
      "start": 56.5761,
      "duration": 0.0161,
      "velocity": 98,
      "chip": "ym2612"
    },
    {
      "channel": 2,
      "note": 57,
      "start": 56.5773,
      "duration": 0.0161,
      "velocity": 93,
      "chip": "ym2612"
    },
    {
      "channel": 1,
      "note": 76,
      "start": 56.5784,
      "duration": 0.0161,
      "velocity": 108,
      "chip": "ym2612"
    },
    {
      "channel": 0,
      "note": 72,
      "start": 56.5887,
      "duration": 0.0161,
      "velocity": 124,
      "chip": "ym2612"
    },
    {
      "channel": 5,
      "note": 76,
      "start": 56.5899,
      "duration": 0.0161,
      "velocity": 108,
      "chip": "ym2612"
    },
    {
      "channel": 4,
      "note": 81,
      "start": 56.591,
      "duration": 0.0162,
      "velocity": 98,
      "chip": "ym2612"
    },
    {
      "channel": 3,
      "note": 85,
      "start": 56.5922,
      "duration": 0.0161,
      "velocity": 98,
      "chip": "ym2612"
    },
    {
      "channel": 2,
      "note": 57,
      "start": 56.5934,
      "duration": 0.0162,
      "velocity": 93,
      "chip": "ym2612"
    },
    {
      "channel": 1,
      "note": 76,
      "start": 56.5945,
      "duration": 0.0162,
      "velocity": 108,
      "chip": "ym2612"
    },
    {
      "channel": 0,
      "note": 70,
      "start": 56.6048,
      "duration": 0.0161,
      "velocity": 124,
      "chip": "ym2612"
    },
    {
      "channel": 5,
      "note": 76,
      "start": 56.6059,
      "duration": 0.0161,
      "velocity": 108,
      "chip": "ym2612"
    },
    {
      "channel": 4,
      "note": 81,
      "start": 56.6072,
      "duration": 0.0161,
      "velocity": 98,
      "chip": "ym2612"
    },
    {
      "channel": 3,
      "note": 85,
      "start": 56.6083,
      "duration": 0.0161,
      "velocity": 98,
      "chip": "ym2612"
    },
    {
      "channel": 2,
      "note": 57,
      "start": 56.6095,
      "duration": 0.0161,
      "velocity": 93,
      "chip": "ym2612"
    },
    {
      "channel": 1,
      "note": 76,
      "start": 56.6107,
      "duration": 0.0161,
      "velocity": 108,
      "chip": "ym2612"
    },
    {
      "channel": 0,
      "note": 68,
      "start": 56.6209,
      "duration": 0.0161,
      "velocity": 124,
      "chip": "ym2612"
    },
    {
      "channel": 5,
      "note": 76,
      "start": 56.622,
      "duration": 0.0162,
      "velocity": 108,
      "chip": "ym2612"
    },
    {
      "channel": 4,
      "note": 81,
      "start": 56.6232,
      "duration": 0.0162,
      "velocity": 98,
      "chip": "ym2612"
    },
    {
      "channel": 3,
      "note": 85,
      "start": 56.6244,
      "duration": 0.0162,
      "velocity": 98,
      "chip": "ym2612"
    },
    {
      "channel": 2,
      "note": 57,
      "start": 56.6256,
      "duration": 0.0162,
      "velocity": 93,
      "chip": "ym2612"
    },
    {
      "channel": 1,
      "note": 76,
      "start": 56.6268,
      "duration": 0.0161,
      "velocity": 108,
      "chip": "ym2612"
    },
    {
      "channel": 0,
      "note": 65,
      "start": 56.6371,
      "duration": 0.0164,
      "velocity": 124,
      "chip": "ym2612"
    },
    {
      "channel": 5,
      "note": 76,
      "start": 56.6382,
      "duration": 0.0165,
      "velocity": 108,
      "chip": "ym2612"
    },
    {
      "channel": 4,
      "note": 81,
      "start": 56.6394,
      "duration": 0.0164,
      "velocity": 98,
      "chip": "ym2612"
    },
    {
      "channel": 3,
      "note": 85,
      "start": 56.6406,
      "duration": 0.0165,
      "velocity": 98,
      "chip": "ym2612"
    },
    {
      "channel": 2,
      "note": 57,
      "start": 56.6418,
      "duration": 0.0164,
      "velocity": 93,
      "chip": "ym2612"
    },
    {
      "channel": 1,
      "note": 76,
      "start": 56.6429,
      "duration": 0.0165,
      "velocity": 108,
      "chip": "ym2612"
    },
    {
      "channel": 0,
      "note": 63,
      "start": 56.6535,
      "duration": 0.0155,
      "velocity": 1,
      "chip": "ym2612"
    },
    {
      "channel": 5,
      "note": 76,
      "start": 56.6547,
      "duration": 0.0155,
      "velocity": 108,
      "chip": "ym2612"
    },
    {
      "channel": 4,
      "note": 81,
      "start": 56.6558,
      "duration": 0.0155,
      "velocity": 98,
      "chip": "ym2612"
    },
    {
      "channel": 3,
      "note": 85,
      "start": 56.657,
      "duration": 0.0155,
      "velocity": 98,
      "chip": "ym2612"
    },
    {
      "channel": 2,
      "note": 57,
      "start": 56.6582,
      "duration": 0.0154,
      "velocity": 93,
      "chip": "ym2612"
    },
    {
      "channel": 1,
      "note": 76,
      "start": 56.6594,
      "duration": 0.0155,
      "velocity": 108,
      "chip": "ym2612"
    },
    {
      "channel": 5,
      "note": 76,
      "start": 56.6701,
      "duration": 0.0152,
      "velocity": 108,
      "chip": "ym2612"
    },
    {
      "channel": 4,
      "note": 81,
      "start": 56.6713,
      "duration": 0.0153,
      "velocity": 98,
      "chip": "ym2612"
    },
    {
      "channel": 3,
      "note": 85,
      "start": 56.6725,
      "duration": 0.0153,
      "velocity": 98,
      "chip": "ym2612"
    },
    {
      "channel": 2,
      "note": 57,
      "start": 56.6736,
      "duration": 0.0153,
      "velocity": 93,
      "chip": "ym2612"
    },
    {
      "channel": 1,
      "note": 76,
      "start": 56.6749,
      "duration": 0.0153,
      "velocity": 108,
      "chip": "ym2612"
    },
    {
      "channel": 5,
      "note": 76,
      "start": 56.6853,
      "duration": 0.0197,
      "velocity": 108,
      "chip": "ym2612"
    },
    {
      "channel": 2,
      "note": 57,
      "start": 56.689,
      "duration": 0.0207,
      "velocity": 93,
      "chip": "ym2612"
    },
    {
      "channel": 0,
      "note": 84,
      "start": 56.7039,
      "duration": 0.0139,
      "velocity": 124,
      "chip": "ym2612"
    },
    {
      "channel": 5,
      "note": 76,
      "start": 56.705,
      "duration": 0.0143,
      "velocity": 108,
      "chip": "ym2612"
    },
    {
      "channel": 4,
      "note": 80,
      "start": 56.7066,
      "duration": 0.014,
      "velocity": 98,
      "chip": "ym2612"
    },
    {
      "channel": 3,
      "note": 83,
      "start": 56.7082,
      "duration": 0.0136,
      "velocity": 98,
      "chip": "ym2612"
    },
    {
      "channel": 2,
      "note": 52,
      "start": 56.7096,
      "duration": 0.0134,
      "velocity": 93,
      "chip": "ym2612"
    },
    {
      "channel": 1,
      "note": 76,
      "start": 56.7112,
      "duration": 0.0131,
      "velocity": 108,
      "chip": "ym2612"
    },
    {
      "channel": 0,
      "note": 82,
      "start": 56.7178,
      "duration": 0.0159,
      "velocity": 124,
      "chip": "ym2612"
    },
    {
      "channel": 4,
      "note": 80,
      "start": 56.7206,
      "duration": 0.0163,
      "velocity": 98,
      "chip": "ym2612"
    },
    {
      "channel": 3,
      "note": 83,
      "start": 56.7218,
      "duration": 0.0163,
      "velocity": 98,
      "chip": "ym2612"
    },
    {
      "channel": 2,
      "note": 52,
      "start": 56.723,
      "duration": 0.0162,
      "velocity": 93,
      "chip": "ym2612"
    },
    {
      "channel": 1,
      "note": 76,
      "start": 56.7243,
      "duration": 0.0161,
      "velocity": 108,
      "chip": "ym2612"
    },
    {
      "channel": 0,
      "note": 80,
      "start": 56.7336,
      "duration": 0.0161,
      "velocity": 124,
      "chip": "ym2612"
    },
    {
      "channel": 5,
      "note": 76,
      "start": 56.7357,
      "duration": 0.0157,
      "velocity": 108,
      "chip": "ym2612"
    },
    {
      "channel": 4,
      "note": 80,
      "start": 56.7369,
      "duration": 0.0158,
      "velocity": 98,
      "chip": "ym2612"
    },
    {
      "channel": 3,
      "note": 83,
      "start": 56.7381,
      "duration": 0.0158,
      "velocity": 98,
      "chip": "ym2612"
    },
    {
      "channel": 2,
      "note": 52,
      "start": 56.7392,
      "duration": 0.0158,
      "velocity": 93,
      "chip": "ym2612"
    },
    {
      "channel": 1,
      "note": 76,
      "start": 56.7404,
      "duration": 0.0159,
      "velocity": 108,
      "chip": "ym2612"
    },
    {
      "channel": 0,
      "note": 77,
      "start": 56.7497,
      "duration": 0.0161,
      "velocity": 124,
      "chip": "ym2612"
    },
    {
      "channel": 5,
      "note": 76,
      "start": 56.7514,
      "duration": 0.0155,
      "velocity": 108,
      "chip": "ym2612"
    },
    {
      "channel": 4,
      "note": 80,
      "start": 56.7527,
      "duration": 0.016,
      "velocity": 98,
      "chip": "ym2612"
    },
    {
      "channel": 3,
      "note": 83,
      "start": 56.7539,
      "duration": 0.016,
      "velocity": 98,
      "chip": "ym2612"
    },
    {
      "channel": 2,
      "note": 52,
      "start": 56.755,
      "duration": 0.0161,
      "velocity": 93,
      "chip": "ym2612"
    },
    {
      "channel": 1,
      "note": 76,
      "start": 56.7562,
      "duration": 0.016,
      "velocity": 108,
      "chip": "ym2612"
    },
    {
      "channel": 0,
      "note": 75,
      "start": 56.7658,
      "duration": 0.0161,
      "velocity": 124,
      "chip": "ym2612"
    },
    {
      "channel": 5,
      "note": 76,
      "start": 56.767,
      "duration": 0.0161,
      "velocity": 108,
      "chip": "ym2612"
    },
    {
      "channel": 4,
      "note": 80,
      "start": 56.7687,
      "duration": 0.0161,
      "velocity": 98,
      "chip": "ym2612"
    },
    {
      "channel": 3,
      "note": 83,
      "start": 56.7699,
      "duration": 0.0161,
      "velocity": 98,
      "chip": "ym2612"
    },
    {
      "channel": 2,
      "note": 52,
      "start": 56.7711,
      "duration": 0.0161,
      "velocity": 93,
      "chip": "ym2612"
    },
    {
      "channel": 1,
      "note": 76,
      "start": 56.7722,
      "duration": 0.0161,
      "velocity": 108,
      "chip": "ym2612"
    },
    {
      "channel": 0,
      "note": 72,
      "start": 56.7819,
      "duration": 0.0161,
      "velocity": 124,
      "chip": "ym2612"
    },
    {
      "channel": 5,
      "note": 76,
      "start": 56.7831,
      "duration": 0.0161,
      "velocity": 108,
      "chip": "ym2612"
    },
    {
      "channel": 4,
      "note": 80,
      "start": 56.7848,
      "duration": 0.0156,
      "velocity": 98,
      "chip": "ym2612"
    },
    {
      "channel": 3,
      "note": 83,
      "start": 56.786,
      "duration": 0.0163,
      "velocity": 98,
      "chip": "ym2612"
    },
    {
      "channel": 2,
      "note": 52,
      "start": 56.7872,
      "duration": 0.0163,
      "velocity": 93,
      "chip": "ym2612"
    },
    {
      "channel": 1,
      "note": 76,
      "start": 56.7883,
      "duration": 0.0164,
      "velocity": 108,
      "chip": "ym2612"
    },
    {
      "channel": 0,
      "note": 70,
      "start": 56.798,
      "duration": 0.0161,
      "velocity": 124,
      "chip": "ym2612"
    },
    {
      "channel": 5,
      "note": 76,
      "start": 56.7991,
      "duration": 0.0162,
      "velocity": 108,
      "chip": "ym2612"
    },
    {
      "channel": 4,
      "note": 80,
      "start": 56.8004,
      "duration": 0.0161,
      "velocity": 98,
      "chip": "ym2612"
    },
    {
      "channel": 3,
      "note": 83,
      "start": 56.8023,
      "duration": 0.016,
      "velocity": 98,
      "chip": "ym2612"
    },
    {
      "channel": 2,
      "note": 52,
      "start": 56.8035,
      "duration": 0.016,
      "velocity": 93,
      "chip": "ym2612"
    },
    {
      "channel": 1,
      "note": 76,
      "start": 56.8047,
      "duration": 0.016,
      "velocity": 108,
      "chip": "ym2612"
    },
    {
      "channel": 0,
      "note": 68,
      "start": 56.8141,
      "duration": 0.0161,
      "velocity": 124,
      "chip": "ym2612"
    },
    {
      "channel": 5,
      "note": 76,
      "start": 56.8153,
      "duration": 0.0161,
      "velocity": 108,
      "chip": "ym2612"
    },
    {
      "channel": 4,
      "note": 80,
      "start": 56.8165,
      "duration": 0.0162,
      "velocity": 98,
      "chip": "ym2612"
    },
    {
      "channel": 3,
      "note": 83,
      "start": 56.8183,
      "duration": 0.0159,
      "velocity": 98,
      "chip": "ym2612"
    },
    {
      "channel": 2,
      "note": 52,
      "start": 56.8196,
      "duration": 0.0162,
      "velocity": 93,
      "chip": "ym2612"
    },
    {
      "channel": 1,
      "note": 76,
      "start": 56.8208,
      "duration": 0.0162,
      "velocity": 108,
      "chip": "ym2612"
    },
    {
      "channel": 0,
      "note": 65,
      "start": 56.8302,
      "duration": 0.0161,
      "velocity": 124,
      "chip": "ym2612"
    },
    {
      "channel": 5,
      "note": 76,
      "start": 56.8315,
      "duration": 0.016,
      "velocity": 108,
      "chip": "ym2612"
    },
    {
      "channel": 4,
      "note": 80,
      "start": 56.8327,
      "duration": 0.016,
      "velocity": 98,
      "chip": "ym2612"
    },
    {
      "channel": 3,
      "note": 83,
      "start": 56.8342,
      "duration": 0.0157,
      "velocity": 98,
      "chip": "ym2612"
    },
    {
      "channel": 2,
      "note": 52,
      "start": 56.8358,
      "duration": 0.0159,
      "velocity": 93,
      "chip": "ym2612"
    },
    {
      "channel": 1,
      "note": 76,
      "start": 56.837,
      "duration": 0.0159,
      "velocity": 108,
      "chip": "ym2612"
    },
    {
      "channel": 0,
      "note": 63,
      "start": 56.8463,
      "duration": 0.0153,
      "velocity": 1,
      "chip": "ym2612"
    },
    {
      "channel": 5,
      "note": 76,
      "start": 56.8475,
      "duration": 0.0153,
      "velocity": 108,
      "chip": "ym2612"
    },
    {
      "channel": 4,
      "note": 80,
      "start": 56.8487,
      "duration": 0.0153,
      "velocity": 98,
      "chip": "ym2612"
    },
    {
      "channel": 3,
      "note": 83,
      "start": 56.8499,
      "duration": 0.0153,
      "velocity": 98,
      "chip": "ym2612"
    },
    {
      "channel": 2,
      "note": 52,
      "start": 56.8516,
      "duration": 0.0148,
      "velocity": 93,
      "chip": "ym2612"
    },
    {
      "channel": 1,
      "note": 76,
      "start": 56.8528,
      "duration": 0.0149,
      "velocity": 108,
      "chip": "ym2612"
    },
    {
      "channel": 5,
      "note": 76,
      "start": 56.8628,
      "duration": 0.0151,
      "velocity": 108,
      "chip": "ym2612"
    },
    {
      "channel": 4,
      "note": 80,
      "start": 56.864,
      "duration": 0.0151,
      "velocity": 98,
      "chip": "ym2612"
    },
    {
      "channel": 3,
      "note": 83,
      "start": 56.8652,
      "duration": 0.0152,
      "velocity": 98,
      "chip": "ym2612"
    },
    {
      "channel": 2,
      "note": 52,
      "start": 56.8664,
      "duration": 0.0152,
      "velocity": 93,
      "chip": "ym2612"
    },
    {
      "channel": 1,
      "note": 76,
      "start": 56.8677,
      "duration": 0.015,
      "velocity": 108,
      "chip": "ym2612"
    },
    {
      "channel": 5,
      "note": 76,
      "start": 56.878,
      "duration": 0.0162,
      "velocity": 108,
      "chip": "ym2612"
    },
    {
      "channel": 2,
      "note": 52,
      "start": 56.8816,
      "duration": 0.0165,
      "velocity": 93,
      "chip": "ym2612"
    },
    {
      "channel": 5,
      "note": 76,
      "start": 56.8941,
      "duration": 0.0161,
      "velocity": 108,
      "chip": "ym2612"
    },
    {
      "channel": 2,
      "note": 52,
      "start": 56.8981,
      "duration": 0.0159,
      "velocity": 93,
      "chip": "ym2612"
    },
    {
      "channel": 2,
      "note": 52,
      "start": 56.914,
      "duration": 0.0163,
      "velocity": 93,
      "chip": "ym2612"
    },
    {
      "channel": 2,
      "note": 52,
      "start": 56.9303,
      "duration": 0.016,
      "velocity": 93,
      "chip": "ym2612"
    },
    {
      "channel": 2,
      "note": 52,
      "start": 56.9463,
      "duration": 0.0161,
      "velocity": 93,
      "chip": "ym2612"
    },
    {
      "channel": 2,
      "note": 52,
      "start": 56.9624,
      "duration": 0.0161,
      "velocity": 93,
      "chip": "ym2612"
    },
    {
      "channel": 2,
      "note": 52,
      "start": 56.9785,
      "duration": 0.0196,
      "velocity": 93,
      "chip": "ym2612"
    },
    {
      "channel": 0,
      "note": 84,
      "start": 56.9931,
      "duration": 0.0142,
      "velocity": 124,
      "chip": "ym2612"
    },
    {
      "channel": 2,
      "note": 52,
      "start": 56.9981,
      "duration": 0.0143,
      "velocity": 93,
      "chip": "ym2612"
    },
    {
      "channel": 1,
      "note": 76,
      "start": 57.0015,
      "duration": 0.0122,
      "velocity": 103,
      "chip": "ym2612"
    },
    {
      "channel": 0,
      "note": 82,
      "start": 57.0073,
      "duration": 0.0161,
      "velocity": 124,
      "chip": "ym2612"
    },
    {
      "channel": 2,
      "note": 52,
      "start": 57.0124,
      "duration": 0.016,
      "velocity": 93,
      "chip": "ym2612"
    },
    {
      "channel": 1,
      "note": 76,
      "start": 57.0137,
      "duration": 0.016,
      "velocity": 103,
      "chip": "ym2612"
    },
    {
      "channel": 0,
      "note": 80,
      "start": 57.0234,
      "duration": 0.0161,
      "velocity": 124,
      "chip": "ym2612"
    },
    {
      "channel": 2,
      "note": 52,
      "start": 57.0285,
      "duration": 0.0161,
      "velocity": 93,
      "chip": "ym2612"
    },
    {
      "channel": 1,
      "note": 76,
      "start": 57.0296,
      "duration": 0.0161,
      "velocity": 103,
      "chip": "ym2612"
    },
    {
      "channel": 0,
      "note": 77,
      "start": 57.0395,
      "duration": 0.0161,
      "velocity": 124,
      "chip": "ym2612"
    },
    {
      "channel": 2,
      "note": 52,
      "start": 57.0446,
      "duration": 0.0161,
      "velocity": 93,
      "chip": "ym2612"
    },
    {
      "channel": 1,
      "note": 76,
      "start": 57.0457,
      "duration": 0.0161,
      "velocity": 103,
      "chip": "ym2612"
    },
    {
      "channel": 0,
      "note": 75,
      "start": 57.0556,
      "duration": 0.0161,
      "velocity": 124,
      "chip": "ym2612"
    },
    {
      "channel": 2,
      "note": 52,
      "start": 57.0607,
      "duration": 0.0161,
      "velocity": 93,
      "chip": "ym2612"
    },
    {
      "channel": 0,
      "note": 72,
      "start": 57.0717,
      "duration": 0.0179,
      "velocity": 124,
      "chip": "ym2612"
    },
    {
      "channel": 2,
      "note": 52,
      "start": 57.0768,
      "duration": 0.0196,
      "velocity": 93,
      "chip": "ym2612"
    },
    {
      "channel": 0,
      "note": 84,
      "start": 57.0897,
      "duration": 0.0144,
      "velocity": 124,
      "chip": "ym2612"
    },
    {
      "channel": 5,
      "note": 76,
      "start": 57.0926,
      "duration": 0.0127,
      "velocity": 102,
      "chip": "ym2612"
    },
    {
      "channel": 2,
      "note": 52,
      "start": 57.0963,
      "duration": 0.0127,
      "velocity": 93,
      "chip": "ym2612"
    },
    {
      "channel": 1,
      "note": 75,
      "start": 57.0978,
      "duration": 0.0125,
      "velocity": 103,
      "chip": "ym2612"
    },
    {
      "channel": 0,
      "note": 82,
      "start": 57.104,
      "duration": 0.0162,
      "velocity": 124,
      "chip": "ym2612"
    },
    {
      "channel": 5,
      "note": 76,
      "start": 57.1053,
      "duration": 0.0161,
      "velocity": 102,
      "chip": "ym2612"
    },
    {
      "channel": 2,
      "note": 52,
      "start": 57.109,
      "duration": 0.0162,
      "velocity": 93,
      "chip": "ym2612"
    },
    {
      "channel": 1,
      "note": 75,
      "start": 57.1103,
      "duration": 0.016,
      "velocity": 103,
      "chip": "ym2612"
    },
    {
      "channel": 0,
      "note": 80,
      "start": 57.1202,
      "duration": 0.0163,
      "velocity": 124,
      "chip": "ym2612"
    },
    {
      "channel": 5,
      "note": 76,
      "start": 57.1213,
      "duration": 0.0163,
      "velocity": 102,
      "chip": "ym2612"
    },
    {
      "channel": 2,
      "note": 52,
      "start": 57.1252,
      "duration": 0.0163,
      "velocity": 93,
      "chip": "ym2612"
    },
    {
      "channel": 1,
      "note": 75,
      "start": 57.1263,
      "duration": 0.0163,
      "velocity": 103,
      "chip": "ym2612"
    },
    {
      "channel": 0,
      "note": 77,
      "start": 57.1365,
      "duration": 0.0163,
      "velocity": 124,
      "chip": "ym2612"
    },
    {
      "channel": 5,
      "note": 76,
      "start": 57.1377,
      "duration": 0.0163,
      "velocity": 102,
      "chip": "ym2612"
    },
    {
      "channel": 2,
      "note": 52,
      "start": 57.1415,
      "duration": 0.0163,
      "velocity": 93,
      "chip": "ym2612"
    },
    {
      "channel": 1,
      "note": 75,
      "start": 57.1427,
      "duration": 0.0163,
      "velocity": 103,
      "chip": "ym2612"
    },
    {
      "channel": 0,
      "note": 75,
      "start": 57.1528,
      "duration": 0.0161,
      "velocity": 124,
      "chip": "ym2612"
    },
    {
      "channel": 2,
      "note": 52,
      "start": 57.1578,
      "duration": 0.0161,
      "velocity": 93,
      "chip": "ym2612"
    },
    {
      "channel": 1,
      "note": 75,
      "start": 57.1589,
      "duration": 0.0161,
      "velocity": 103,
      "chip": "ym2612"
    },
    {
      "channel": 0,
      "note": 72,
      "start": 57.1689,
      "duration": 0.016,
      "velocity": 124,
      "chip": "ym2612"
    },
    {
      "channel": 2,
      "note": 52,
      "start": 57.1739,
      "duration": 0.0164,
      "velocity": 93,
      "chip": "ym2612"
    },
    {
      "channel": 1,
      "note": 75,
      "start": 57.175,
      "duration": 0.0164,
      "velocity": 103,
      "chip": "ym2612"
    },
    {
      "channel": 0,
      "note": 70,
      "start": 57.185,
      "duration": 0.0156,
      "velocity": 124,
      "chip": "ym2612"
    },
    {
      "channel": 5,
      "note": 75,
      "start": 57.1865,
      "duration": 0.0159,
      "velocity": 102,
      "chip": "ym2612"
    },
    {
      "channel": 2,
      "note": 52,
      "start": 57.1903,
      "duration": 0.0159,
      "velocity": 93,
      "chip": "ym2612"
    },
    {
      "channel": 1,
      "note": 75,
      "start": 57.1915,
      "duration": 0.0158,
      "velocity": 103,
      "chip": "ym2612"
    },
    {
      "channel": 0,
      "note": 68,
      "start": 57.2005,
      "duration": 0.0161,
      "velocity": 124,
      "chip": "ym2612"
    },
    {
      "channel": 5,
      "note": 75,
      "start": 57.2023,
      "duration": 0.016,
      "velocity": 102,
      "chip": "ym2612"
    },
    {
      "channel": 2,
      "note": 52,
      "start": 57.2061,
      "duration": 0.016,
      "velocity": 93,
      "chip": "ym2612"
    },
    {
      "channel": 1,
      "note": 75,
      "start": 57.2073,
      "duration": 0.016,
      "velocity": 103,
      "chip": "ym2612"
    },
    {
      "channel": 0,
      "note": 65,
      "start": 57.2166,
      "duration": 0.0161,
      "velocity": 124,
      "chip": "ym2612"
    },
    {
      "channel": 5,
      "note": 75,
      "start": 57.2183,
      "duration": 0.0156,
      "velocity": 102,
      "chip": "ym2612"
    },
    {
      "channel": 2,
      "note": 52,
      "start": 57.2222,
      "duration": 0.0161,
      "velocity": 93,
      "chip": "ym2612"
    },
    {
      "channel": 1,
      "note": 75,
      "start": 57.2233,
      "duration": 0.0161,
      "velocity": 103,
      "chip": "ym2612"
    },
    {
      "channel": 0,
      "note": 63,
      "start": 57.2327,
      "duration": 0.0153,
      "velocity": 1,
      "chip": "ym2612"
    },
    {
      "channel": 5,
      "note": 75,
      "start": 57.2339,
      "duration": 0.0153,
      "velocity": 102,
      "chip": "ym2612"
    },
    {
      "channel": 2,
      "note": 52,
      "start": 57.2383,
      "duration": 0.0153,
      "velocity": 93,
      "chip": "ym2612"
    },
    {
      "channel": 1,
      "note": 75,
      "start": 57.2394,
      "duration": 0.0153,
      "velocity": 103,
      "chip": "ym2612"
    },
    {
      "channel": 5,
      "note": 75,
      "start": 57.2491,
      "duration": 0.0153,
      "velocity": 102,
      "chip": "ym2612"
    },
    {
      "channel": 2,
      "note": 52,
      "start": 57.2535,
      "duration": 0.0153,
      "velocity": 93,
      "chip": "ym2612"
    },
    {
      "channel": 5,
      "note": 75,
      "start": 57.2644,
      "duration": 0.0198,
      "velocity": 102,
      "chip": "ym2612"
    },
    {
      "channel": 2,
      "note": 52,
      "start": 57.2688,
      "duration": 0.0197,
      "velocity": 93,
      "chip": "ym2612"
    },
    {
      "channel": 0,
      "note": 36,
      "start": 57.2829,
      "duration": 0.0143,
      "velocity": 115,
      "chip": "ym2612"
    },
    {
      "channel": 5,
      "note": 75,
      "start": 57.2843,
      "duration": 0.0141,
      "velocity": 102,
      "chip": "ym2612"
    },
    {
      "channel": 2,
      "note": 52,
      "start": 57.2885,
      "duration": 0.0143,
      "velocity": 93,
      "chip": "ym2612"
    },
    {
      "channel": 1,
      "note": 76,
      "start": 57.2899,
      "duration": 0.0141,
      "velocity": 103,
      "chip": "ym2612"
    },
    {
      "channel": 0,
      "note": 36,
      "start": 57.2972,
      "duration": 0.016,
      "velocity": 115,
      "chip": "ym2612"
    },
    {
      "channel": 5,
      "note": 75,
      "start": 57.2984,
      "duration": 0.016,
      "velocity": 102,
      "chip": "ym2612"
    },
    {
      "channel": 2,
      "note": 52,
      "start": 57.3028,
      "duration": 0.016,
      "velocity": 93,
      "chip": "ym2612"
    },
    {
      "channel": 1,
      "note": 76,
      "start": 57.304,
      "duration": 0.016,
      "velocity": 103,
      "chip": "ym2612"
    },
    {
      "channel": 0,
      "note": 37,
      "start": 57.3132,
      "duration": 0.0161,
      "velocity": 115,
      "chip": "ym2612"
    },
    {
      "channel": 5,
      "note": 75,
      "start": 57.3144,
      "duration": 0.0161,
      "velocity": 102,
      "chip": "ym2612"
    },
    {
      "channel": 2,
      "note": 52,
      "start": 57.3187,
      "duration": 0.0161,
      "velocity": 93,
      "chip": "ym2612"
    },
    {
      "channel": 1,
      "note": 76,
      "start": 57.32,
      "duration": 0.0161,
      "velocity": 103,
      "chip": "ym2612"
    },
    {
      "channel": 0,
      "note": 37,
      "start": 57.3293,
      "duration": 0.0162,
      "velocity": 115,
      "chip": "ym2612"
    },
    {
      "channel": 5,
      "note": 75,
      "start": 57.3305,
      "duration": 0.0161,
      "velocity": 102,
      "chip": "ym2612"
    },
    {
      "channel": 2,
      "note": 52,
      "start": 57.3348,
      "duration": 0.0156,
      "velocity": 93,
      "chip": "ym2612"
    },
    {
      "channel": 1,
      "note": 76,
      "start": 57.336,
      "duration": 0.0161,
      "velocity": 103,
      "chip": "ym2612"
    },
    {
      "channel": 0,
      "note": 38,
      "start": 57.3455,
      "duration": 0.0161,
      "velocity": 115,
      "chip": "ym2612"
    },
    {
      "channel": 2,
      "note": 52,
      "start": 57.3504,
      "duration": 0.0161,
      "velocity": 93,
      "chip": "ym2612"
    },
    {
      "channel": 0,
      "note": 38,
      "start": 57.3615,
      "duration": 0.0179,
      "velocity": 127,
      "chip": "ym2612"
    },
    {
      "channel": 2,
      "note": 52,
      "start": 57.3665,
      "duration": 0.0188,
      "velocity": 93,
      "chip": "ym2612"
    },
    {
      "channel": 0,
      "note": 88,
      "start": 57.3795,
      "duration": 0.0143,
      "velocity": 127,
      "chip": "ym2612"
    },
    {
      "channel": 5,
      "note": 76,
      "start": 57.381,
      "duration": 0.0141,
      "velocity": 102,
      "chip": "ym2612"
    },
    {
      "channel": 2,
      "note": 52,
      "start": 57.3853,
      "duration": 0.0135,
      "velocity": 93,
      "chip": "ym2612"
    },
    {
      "channel": 1,
      "note": 80,
      "start": 57.3868,
      "duration": 0.0132,
      "velocity": 103,
      "chip": "ym2612"
    },
    {
      "channel": 0,
      "note": 86,
      "start": 57.3938,
      "duration": 0.016,
      "velocity": 127,
      "chip": "ym2612"
    },
    {
      "channel": 5,
      "note": 76,
      "start": 57.395,
      "duration": 0.016,
      "velocity": 102,
      "chip": "ym2612"
    },
    {
      "channel": 2,
      "note": 52,
      "start": 57.3988,
      "duration": 0.016,
      "velocity": 93,
      "chip": "ym2612"
    },
    {
      "channel": 1,
      "note": 80,
      "start": 57.4,
      "duration": 0.0159,
      "velocity": 103,
      "chip": "ym2612"
    },
    {
      "channel": 0,
      "note": 85,
      "start": 57.4098,
      "duration": 0.0161,
      "velocity": 127,
      "chip": "ym2612"
    },
    {
      "channel": 5,
      "note": 76,
      "start": 57.411,
      "duration": 0.0161,
      "velocity": 102,
      "chip": "ym2612"
    },
    {
      "channel": 2,
      "note": 52,
      "start": 57.4148,
      "duration": 0.0161,
      "velocity": 93,
      "chip": "ym2612"
    },
    {
      "channel": 1,
      "note": 80,
      "start": 57.4159,
      "duration": 0.0161,
      "velocity": 103,
      "chip": "ym2612"
    },
    {
      "channel": 0,
      "note": 83,
      "start": 57.4259,
      "duration": 0.0161,
      "velocity": 127,
      "chip": "ym2612"
    },
    {
      "channel": 5,
      "note": 76,
      "start": 57.4271,
      "duration": 0.0161,
      "velocity": 102,
      "chip": "ym2612"
    },
    {
      "channel": 2,
      "note": 52,
      "start": 57.4309,
      "duration": 0.0161,
      "velocity": 93,
      "chip": "ym2612"
    },
    {
      "channel": 1,
      "note": 80,
      "start": 57.432,
      "duration": 0.0161,
      "velocity": 103,
      "chip": "ym2612"
    },
    {
      "channel": 0,
      "note": 81,
      "start": 57.442,
      "duration": 0.0161,
      "velocity": 127,
      "chip": "ym2612"
    },
    {
      "channel": 2,
      "note": 52,
      "start": 57.447,
      "duration": 0.0161,
      "velocity": 93,
      "chip": "ym2612"
    },
    {
      "channel": 1,
      "note": 80,
      "start": 57.4482,
      "duration": 0.0161,
      "velocity": 103,
      "chip": "ym2612"
    },
    {
      "channel": 0,
      "note": 80,
      "start": 57.4581,
      "duration": 0.018,
      "velocity": 127,
      "chip": "ym2612"
    },
    {
      "channel": 2,
      "note": 52,
      "start": 57.4631,
      "duration": 0.0183,
      "velocity": 93,
      "chip": "ym2612"
    },
    {
      "channel": 1,
      "note": 80,
      "start": 57.4643,
      "duration": 0.0183,
      "velocity": 103,
      "chip": "ym2612"
    },
    {
      "channel": 0,
      "note": 84,
      "start": 57.4761,
      "duration": 0.0143,
      "velocity": 127,
      "chip": "ym2612"
    },
    {
      "channel": 5,
      "note": 80,
      "start": 57.4776,
      "duration": 0.0141,
      "velocity": 102,
      "chip": "ym2612"
    },
    {
      "channel": 2,
      "note": 52,
      "start": 57.4814,
      "duration": 0.014,
      "velocity": 93,
      "chip": "ym2612"
    },
    {
      "channel": 1,
      "note": 80,
      "start": 57.4825,
      "duration": 0.0141,
      "velocity": 103,
      "chip": "ym2612"
    },
    {
      "channel": 0,
      "note": 82,
      "start": 57.4904,
      "duration": 0.016,
      "velocity": 127,
      "chip": "ym2612"
    },
    {
      "channel": 5,
      "note": 80,
      "start": 57.4916,
      "duration": 0.016,
      "velocity": 102,
      "chip": "ym2612"
    },
    {
      "channel": 2,
      "note": 52,
      "start": 57.4954,
      "duration": 0.016,
      "velocity": 93,
      "chip": "ym2612"
    },
    {
      "channel": 1,
      "note": 80,
      "start": 57.4966,
      "duration": 0.016,
      "velocity": 103,
      "chip": "ym2612"
    },
    {
      "channel": 0,
      "note": 81,
      "start": 57.5065,
      "duration": 0.0161,
      "velocity": 127,
      "chip": "ym2612"
    },
    {
      "channel": 5,
      "note": 80,
      "start": 57.5076,
      "duration": 0.0161,
      "velocity": 102,
      "chip": "ym2612"
    },
    {
      "channel": 2,
      "note": 52,
      "start": 57.5114,
      "duration": 0.0161,
      "velocity": 93,
      "chip": "ym2612"
    },
    {
      "channel": 1,
      "note": 80,
      "start": 57.5126,
      "duration": 0.0161,
      "velocity": 103,
      "chip": "ym2612"
    },
    {
      "channel": 0,
      "note": 79,
      "start": 57.5226,
      "duration": 0.0161,
      "velocity": 127,
      "chip": "ym2612"
    },
    {
      "channel": 5,
      "note": 80,
      "start": 57.5237,
      "duration": 0.0161,
      "velocity": 102,
      "chip": "ym2612"
    },
    {
      "channel": 2,
      "note": 52,
      "start": 57.5275,
      "duration": 0.0161,
      "velocity": 93,
      "chip": "ym2612"
    },
    {
      "channel": 1,
      "note": 80,
      "start": 57.5287,
      "duration": 0.0161,
      "velocity": 103,
      "chip": "ym2612"
    },
    {
      "channel": 0,
      "note": 77,
      "start": 57.5386,
      "duration": 0.0161,
      "velocity": 127,
      "chip": "ym2612"
    },
    {
      "channel": 5,
      "note": 80,
      "start": 57.5398,
      "duration": 0.0161,
      "velocity": 102,
      "chip": "ym2612"
    },
    {
      "channel": 2,
      "note": 52,
      "start": 57.5436,
      "duration": 0.0161,
      "velocity": 93,
      "chip": "ym2612"
    },
    {
      "channel": 0,
      "note": 76,
      "start": 57.5547,
      "duration": 0.0179,
      "velocity": 127,
      "chip": "ym2612"
    },
    {
      "channel": 5,
      "note": 80,
      "start": 57.5559,
      "duration": 0.018,
      "velocity": 102,
      "chip": "ym2612"
    },
    {
      "channel": 2,
      "note": 52,
      "start": 57.5597,
      "duration": 0.018,
      "velocity": 93,
      "chip": "ym2612"
    },
    {
      "channel": 0,
      "note": 78,
      "start": 57.5727,
      "duration": 0.0143,
      "velocity": 127,
      "chip": "ym2612"
    },
    {
      "channel": 5,
      "note": 80,
      "start": 57.5739,
      "duration": 0.0143,
      "velocity": 102,
      "chip": "ym2612"
    },
    {
      "channel": 2,
      "note": 52,
      "start": 57.5777,
      "duration": 0.0143,
      "velocity": 93,
      "chip": "ym2612"
    },
    {
      "channel": 1,
      "note": 79,
      "start": 57.5792,
      "duration": 0.0141,
      "velocity": 103,
      "chip": "ym2612"
    },
    {
      "channel": 0,
      "note": 76,
      "start": 57.5871,
      "duration": 0.0163,
      "velocity": 127,
      "chip": "ym2612"
    },
    {
      "channel": 5,
      "note": 80,
      "start": 57.5882,
      "duration": 0.0163,
      "velocity": 102,
      "chip": "ym2612"
    },
    {
      "channel": 2,
      "note": 52,
      "start": 57.592,
      "duration": 0.0163,
      "velocity": 93,
      "chip": "ym2612"
    },
    {
      "channel": 1,
      "note": 79,
      "start": 57.5932,
      "duration": 0.0163,
      "velocity": 103,
      "chip": "ym2612"
    },
    {
      "channel": 0,
      "note": 75,
      "start": 57.6033,
      "duration": 0.0163,
      "velocity": 127,
      "chip": "ym2612"
    },
    {
      "channel": 5,
      "note": 80,
      "start": 57.6046,
      "duration": 0.0163,
      "velocity": 102,
      "chip": "ym2612"
    },
    {
      "channel": 2,
      "note": 52,
      "start": 57.6083,
      "duration": 0.0163,
      "velocity": 93,
      "chip": "ym2612"
    },
    {
      "channel": 1,
      "note": 79,
      "start": 57.6095,
      "duration": 0.0163,
      "velocity": 103,
      "chip": "ym2612"
    },
    {
      "channel": 0,
      "note": 73,
      "start": 57.6197,
      "duration": 0.0162,
      "velocity": 127,
      "chip": "ym2612"
    },
    {
      "channel": 5,
      "note": 80,
      "start": 57.6208,
      "duration": 0.0161,
      "velocity": 102,
      "chip": "ym2612"
    },
    {
      "channel": 2,
      "note": 52,
      "start": 57.6246,
      "duration": 0.0162,
      "velocity": 93,
      "chip": "ym2612"
    },
    {
      "channel": 1,
      "note": 79,
      "start": 57.6258,
      "duration": 0.0161,
      "velocity": 103,
      "chip": "ym2612"
    },
    {
      "channel": 0,
      "note": 71,
      "start": 57.6359,
      "duration": 0.0161,
      "velocity": 127,
      "chip": "ym2612"
    },
    {
      "channel": 2,
      "note": 52,
      "start": 57.6408,
      "duration": 0.0161,
      "velocity": 93,
      "chip": "ym2612"
    },
    {
      "channel": 0,
      "note": 70,
      "start": 57.652,
      "duration": 0.0179,
      "velocity": 127,
      "chip": "ym2612"
    },
    {
      "channel": 2,
      "note": 52,
      "start": 57.6569,
      "duration": 0.0183,
      "velocity": 93,
      "chip": "ym2612"
    },
    {
      "channel": 0,
      "note": 84,
      "start": 57.67,
      "duration": 0.0137,
      "velocity": 127,
      "chip": "ym2612"
    },
    {
      "channel": 5,
      "note": 79,
      "start": 57.6714,
      "duration": 0.0139,
      "velocity": 102,
      "chip": "ym2612"
    },
    {
      "channel": 2,
      "note": 52,
      "start": 57.6752,
      "duration": 0.014,
      "velocity": 93,
      "chip": "ym2612"
    },
    {
      "channel": 1,
      "note": 78,
      "start": 57.6766,
      "duration": 0.0138,
      "velocity": 103,
      "chip": "ym2612"
    },
    {
      "channel": 0,
      "note": 82,
      "start": 57.6836,
      "duration": 0.016,
      "velocity": 127,
      "chip": "ym2612"
    },
    {
      "channel": 5,
      "note": 79,
      "start": 57.6853,
      "duration": 0.0157,
      "velocity": 102,
      "chip": "ym2612"
    },
    {
      "channel": 2,
      "note": 52,
      "start": 57.6892,
      "duration": 0.016,
      "velocity": 93,
      "chip": "ym2612"
    },
    {
      "channel": 1,
      "note": 78,
      "start": 57.6904,
      "duration": 0.0159,
      "velocity": 103,
      "chip": "ym2612"
    },
    {
      "channel": 0,
      "note": 81,
      "start": 57.6997,
      "duration": 0.0161,
      "velocity": 127,
      "chip": "ym2612"
    },
    {
      "channel": 5,
      "note": 79,
      "start": 57.701,
      "duration": 0.016,
      "velocity": 102,
      "chip": "ym2612"
    },
    {
      "channel": 2,
      "note": 52,
      "start": 57.7052,
      "duration": 0.0161,
      "velocity": 93,
      "chip": "ym2612"
    },
    {
      "channel": 1,
      "note": 78,
      "start": 57.7063,
      "duration": 0.0162,
      "velocity": 103,
      "chip": "ym2612"
    },
    {
      "channel": 0,
      "note": 79,
      "start": 57.7157,
      "duration": 0.0161,
      "velocity": 127,
      "chip": "ym2612"
    },
    {
      "channel": 5,
      "note": 79,
      "start": 57.717,
      "duration": 0.0161,
      "velocity": 102,
      "chip": "ym2612"
    },
    {
      "channel": 2,
      "note": 52,
      "start": 57.7213,
      "duration": 0.0161,
      "velocity": 93,
      "chip": "ym2612"
    },
    {
      "channel": 1,
      "note": 78,
      "start": 57.7225,
      "duration": 0.0161,
      "velocity": 103,
      "chip": "ym2612"
    },
    {
      "channel": 0,
      "note": 77,
      "start": 57.7318,
      "duration": 0.0161,
      "velocity": 127,
      "chip": "ym2612"
    },
    {
      "channel": 2,
      "note": 52,
      "start": 57.7374,
      "duration": 0.0161,
      "velocity": 93,
      "chip": "ym2612"
    },
    {
      "channel": 1,
      "note": 78,
      "start": 57.7386,
      "duration": 0.0161,
      "velocity": 103,
      "chip": "ym2612"
    },
    {
      "channel": 0,
      "note": 76,
      "start": 57.7479,
      "duration": 0.018,
      "velocity": 127,
      "chip": "ym2612"
    },
    {
      "channel": 2,
      "note": 52,
      "start": 57.7535,
      "duration": 0.0183,
      "velocity": 93,
      "chip": "ym2612"
    },
    {
      "channel": 1,
      "note": 78,
      "start": 57.7547,
      "duration": 0.0183,
      "velocity": 103,
      "chip": "ym2612"
    },
    {
      "channel": 0,
      "note": 78,
      "start": 57.7659,
      "duration": 0.0142,
      "velocity": 127,
      "chip": "ym2612"
    },
    {
      "channel": 5,
      "note": 78,
      "start": 57.7676,
      "duration": 0.0139,
      "velocity": 102,
      "chip": "ym2612"
    },
    {
      "channel": 2,
      "note": 52,
      "start": 57.7718,
      "duration": 0.0141,
      "velocity": 93,
      "chip": "ym2612"
    },
    {
      "channel": 1,
      "note": 78,
      "start": 57.773,
      "duration": 0.014,
      "velocity": 103,
      "chip": "ym2612"
    },
    {
      "channel": 0,
      "note": 76,
      "start": 57.7802,
      "duration": 0.016,
      "velocity": 127,
      "chip": "ym2612"
    },
    {
      "channel": 5,
      "note": 78,
      "start": 57.7815,
      "duration": 0.016,
      "velocity": 102,
      "chip": "ym2612"
    },
    {
      "channel": 2,
      "note": 52,
      "start": 57.7859,
      "duration": 0.0159,
      "velocity": 93,
      "chip": "ym2612"
    },
    {
      "channel": 1,
      "note": 78,
      "start": 57.787,
      "duration": 0.016,
      "velocity": 103,
      "chip": "ym2612"
    },
    {
      "channel": 0,
      "note": 75,
      "start": 57.7962,
      "duration": 0.0162,
      "velocity": 127,
      "chip": "ym2612"
    },
    {
      "channel": 5,
      "note": 78,
      "start": 57.7974,
      "duration": 0.0161,
      "velocity": 102,
      "chip": "ym2612"
    },
    {
      "channel": 2,
      "note": 52,
      "start": 57.8017,
      "duration": 0.0158,
      "velocity": 93,
      "chip": "ym2612"
    },
    {
      "channel": 1,
      "note": 78,
      "start": 57.803,
      "duration": 0.0161,
      "velocity": 103,
      "chip": "ym2612"
    },
    {
      "channel": 0,
      "note": 73,
      "start": 57.8124,
      "duration": 0.0161,
      "velocity": 127,
      "chip": "ym2612"
    },
    {
      "channel": 5,
      "note": 78,
      "start": 57.8135,
      "duration": 0.0161,
      "velocity": 102,
      "chip": "ym2612"
    },
    {
      "channel": 2,
      "note": 52,
      "start": 57.8175,
      "duration": 0.0159,
      "velocity": 93,
      "chip": "ym2612"
    },
    {
      "channel": 1,
      "note": 78,
      "start": 57.819,
      "duration": 0.016,
      "velocity": 103,
      "chip": "ym2612"
    },
    {
      "channel": 0,
      "note": 71,
      "start": 57.8285,
      "duration": 0.0161,
      "velocity": 127,
      "chip": "ym2612"
    },
    {
      "channel": 5,
      "note": 78,
      "start": 57.8296,
      "duration": 0.0161,
      "velocity": 102,
      "chip": "ym2612"
    },
    {
      "channel": 2,
      "note": 52,
      "start": 57.8334,
      "duration": 0.0161,
      "velocity": 93,
      "chip": "ym2612"
    },
    {
      "channel": 0,
      "note": 70,
      "start": 57.8446,
      "duration": 0.0179,
      "velocity": 115,
      "chip": "ym2612"
    },
    {
      "channel": 5,
      "note": 78,
      "start": 57.8457,
      "duration": 0.018,
      "velocity": 102,
      "chip": "ym2612"
    },
    {
      "channel": 2,
      "note": 52,
      "start": 57.8495,
      "duration": 0.0182,
      "velocity": 93,
      "chip": "ym2612"
    },
    {
      "channel": 0,
      "note": 36,
      "start": 57.8625,
      "duration": 0.0143,
      "velocity": 115,
      "chip": "ym2612"
    },
    {
      "channel": 5,
      "note": 78,
      "start": 57.8637,
      "duration": 0.0143,
      "velocity": 102,
      "chip": "ym2612"
    },
    {
      "channel": 2,
      "note": 52,
      "start": 57.8677,
      "duration": 0.0141,
      "velocity": 93,
      "chip": "ym2612"
    },
    {
      "channel": 1,
      "note": 76,
      "start": 57.8696,
      "duration": 0.0134,
      "velocity": 103,
      "chip": "ym2612"
    },
    {
      "channel": 0,
      "note": 36,
      "start": 57.8768,
      "duration": 0.016,
      "velocity": 115,
      "chip": "ym2612"
    },
    {
      "channel": 5,
      "note": 78,
      "start": 57.878,
      "duration": 0.016,
      "velocity": 102,
      "chip": "ym2612"
    },
    {
      "channel": 2,
      "note": 52,
      "start": 57.8818,
      "duration": 0.016,
      "velocity": 93,
      "chip": "ym2612"
    },
    {
      "channel": 1,
      "note": 76,
      "start": 57.8831,
      "duration": 0.016,
      "velocity": 103,
      "chip": "ym2612"
    },
    {
      "channel": 0,
      "note": 37,
      "start": 57.8929,
      "duration": 0.0161,
      "velocity": 115,
      "chip": "ym2612"
    },
    {
      "channel": 5,
      "note": 78,
      "start": 57.894,
      "duration": 0.0162,
      "velocity": 102,
      "chip": "ym2612"
    },
    {
      "channel": 2,
      "note": 52,
      "start": 57.8978,
      "duration": 0.0161,
      "velocity": 93,
      "chip": "ym2612"
    },
    {
      "channel": 1,
      "note": 76,
      "start": 57.899,
      "duration": 0.0161,
      "velocity": 103,
      "chip": "ym2612"
    },
    {
      "channel": 0,
      "note": 37,
      "start": 57.9089,
      "duration": 0.0162,
      "velocity": 115,
      "chip": "ym2612"
    },
    {
      "channel": 5,
      "note": 78,
      "start": 57.9102,
      "duration": 0.0161,
      "velocity": 102,
      "chip": "ym2612"
    },
    {
      "channel": 2,
      "note": 52,
      "start": 57.9139,
      "duration": 0.0162,
      "velocity": 93,
      "chip": "ym2612"
    },
    {
      "channel": 1,
      "note": 76,
      "start": 57.9151,
      "duration": 0.0161,
      "velocity": 103,
      "chip": "ym2612"
    },
    {
      "channel": 0,
      "note": 38,
      "start": 57.9251,
      "duration": 0.0161,
      "velocity": 115,
      "chip": "ym2612"
    },
    {
      "channel": 2,
      "note": 52,
      "start": 57.9301,
      "duration": 0.0161,
      "velocity": 93,
      "chip": "ym2612"
    },
    {
      "channel": 1,
      "note": 76,
      "start": 57.9312,
      "duration": 0.0161,
      "velocity": 103,
      "chip": "ym2612"
    },
    {
      "channel": 0,
      "note": 38,
      "start": 57.9412,
      "duration": 0.0179,
      "velocity": 115,
      "chip": "ym2612"
    },
    {
      "channel": 2,
      "note": 52,
      "start": 57.9461,
      "duration": 0.0203,
      "velocity": 93,
      "chip": "ym2612"
    },
    {
      "channel": 1,
      "note": 76,
      "start": 57.9473,
      "duration": 0.0209,
      "velocity": 103,
      "chip": "ym2612"
    },
    {
      "channel": 0,
      "note": 36,
      "start": 57.9591,
      "duration": 0.0143,
      "velocity": 115,
      "chip": "ym2612"
    },
    {
      "channel": 5,
      "note": 76,
      "start": 57.9607,
      "duration": 0.014,
      "velocity": 102,
      "chip": "ym2612"
    },
    {
      "channel": 3,
      "note": 86,
      "start": 57.9649,
      "duration": 0.0123,
      "velocity": 86,
      "chip": "ym2612"
    },
    {
      "channel": 2,
      "note": 59,
      "start": 57.9664,
      "duration": 0.012,
      "velocity": 93,
      "chip": "ym2612"
    },
    {
      "channel": 1,
      "note": 76,
      "start": 57.9682,
      "duration": 0.0114,
      "velocity": 103,
      "chip": "ym2612"
    },
    {
      "channel": 0,
      "note": 36,
      "start": 57.9734,
      "duration": 0.016,
      "velocity": 115,
      "chip": "ym2612"
    },
    {
      "channel": 5,
      "note": 76,
      "start": 57.9746,
      "duration": 0.016,
      "velocity": 102,
      "chip": "ym2612"
    },
    {
      "channel": 3,
      "note": 86,
      "start": 57.9772,
      "duration": 0.0159,
      "velocity": 86,
      "chip": "ym2612"
    },
    {
      "channel": 2,
      "note": 59,
      "start": 57.9784,
      "duration": 0.0158,
      "velocity": 93,
      "chip": "ym2612"
    },
    {
      "channel": 1,
      "note": 76,
      "start": 57.9796,
      "duration": 0.0159,
      "velocity": 103,
      "chip": "ym2612"
    },
    {
      "channel": 0,
      "note": 37,
      "start": 57.9895,
      "duration": 0.0161,
      "velocity": 115,
      "chip": "ym2612"
    },
    {
      "channel": 5,
      "note": 76,
      "start": 57.9906,
      "duration": 0.0161,
      "velocity": 102,
      "chip": "ym2612"
    },
    {
      "channel": 3,
      "note": 86,
      "start": 57.9931,
      "duration": 0.0179,
      "velocity": 86,
      "chip": "ym2612"
    },
    {
      "channel": 2,
      "note": 59,
      "start": 57.9942,
      "duration": 0.0179,
      "velocity": 93,
      "chip": "ym2612"
    },
    {
      "channel": 1,
      "note": 76,
      "start": 57.9955,
      "duration": 0.0178,
      "velocity": 103,
      "chip": "ym2612"
    },
    {
      "channel": 0,
      "note": 37,
      "start": 58.0056,
      "duration": 0.0161,
      "velocity": 115,
      "chip": "ym2612"
    },
    {
      "channel": 5,
      "note": 76,
      "start": 58.0067,
      "duration": 0.0161,
      "velocity": 102,
      "chip": "ym2612"
    },
    {
      "channel": 4,
      "note": 86,
      "start": 58.0098,
      "duration": 0.0143,
      "velocity": 86,
      "chip": "ym2612"
    },
    {
      "channel": 3,
      "note": 86,
      "start": 58.011,
      "duration": 0.0142,
      "velocity": 86,
      "chip": "ym2612"
    },
    {
      "channel": 2,
      "note": 59,
      "start": 58.0121,
      "duration": 0.0142,
      "velocity": 93,
      "chip": "ym2612"
    },
    {
      "channel": 1,
      "note": 76,
      "start": 58.0133,
      "duration": 0.0143,
      "velocity": 103,
      "chip": "ym2612"
    },
    {
      "channel": 0,
      "note": 38,
      "start": 58.0217,
      "duration": 0.0161,
      "velocity": 115,
      "chip": "ym2612"
    },
    {
      "channel": 5,
      "note": 76,
      "start": 58.0228,
      "duration": 0.0161,
      "velocity": 102,
      "chip": "ym2612"
    },
    {
      "channel": 4,
      "note": 86,
      "start": 58.0241,
      "duration": 0.016,
      "velocity": 86,
      "chip": "ym2612"
    },
    {
      "channel": 3,
      "note": 86,
      "start": 58.0252,
      "duration": 0.016,
      "velocity": 86,
      "chip": "ym2612"
    },
    {
      "channel": 2,
      "note": 59,
      "start": 58.0264,
      "duration": 0.0161,
      "velocity": 93,
      "chip": "ym2612"
    },
    {
      "channel": 0,
      "note": 38,
      "start": 58.0378,
      "duration": 0.0162,
      "velocity": 115,
      "chip": "ym2612"
    },
    {
      "channel": 5,
      "note": 76,
      "start": 58.039,
      "duration": 0.0162,
      "velocity": 102,
      "chip": "ym2612"
    },
    {
      "channel": 4,
      "note": 86,
      "start": 58.0401,
      "duration": 0.0162,
      "velocity": 86,
      "chip": "ym2612"
    },
    {
      "channel": 3,
      "note": 86,
      "start": 58.0412,
      "duration": 0.0163,
      "velocity": 86,
      "chip": "ym2612"
    },
    {
      "channel": 2,
      "note": 59,
      "start": 58.0425,
      "duration": 0.0162,
      "velocity": 93,
      "chip": "ym2612"
    },
    {
      "channel": 0,
      "note": 39,
      "start": 58.0539,
      "duration": 0.0163,
      "velocity": 115,
      "chip": "ym2612"
    },
    {
      "channel": 5,
      "note": 76,
      "start": 58.0552,
      "duration": 0.0162,
      "velocity": 102,
      "chip": "ym2612"
    },
    {
      "channel": 4,
      "note": 86,
      "start": 58.0563,
      "duration": 0.0163,
      "velocity": 86,
      "chip": "ym2612"
    },
    {
      "channel": 3,
      "note": 86,
      "start": 58.0576,
      "duration": 0.0162,
      "velocity": 86,
      "chip": "ym2612"
    },
    {
      "channel": 2,
      "note": 59,
      "start": 58.0587,
      "duration": 0.0163,
      "velocity": 93,
      "chip": "ym2612"
    },
    {
      "channel": 0,
      "note": 39,
      "start": 58.0702,
      "duration": 0.0163,
      "velocity": 115,
      "chip": "ym2612"
    },
    {
      "channel": 5,
      "note": 76,
      "start": 58.0714,
      "duration": 0.0163,
      "velocity": 102,
      "chip": "ym2612"
    },
    {
      "channel": 4,
      "note": 86,
      "start": 58.0726,
      "duration": 0.0163,
      "velocity": 86,
      "chip": "ym2612"
    },
    {
      "channel": 3,
      "note": 86,
      "start": 58.0738,
      "duration": 0.0163,
      "velocity": 86,
      "chip": "ym2612"
    },
    {
      "channel": 2,
      "note": 59,
      "start": 58.075,
      "duration": 0.0163,
      "velocity": 93,
      "chip": "ym2612"
    },
    {
      "channel": 0,
      "note": 40,
      "start": 58.0866,
      "duration": 0.0162,
      "velocity": 115,
      "chip": "ym2612"
    },
    {
      "channel": 5,
      "note": 76,
      "start": 58.0878,
      "duration": 0.0162,
      "velocity": 102,
      "chip": "ym2612"
    },
    {
      "channel": 4,
      "note": 86,
      "start": 58.0889,
      "duration": 0.0162,
      "velocity": 86,
      "chip": "ym2612"
    },
    {
      "channel": 3,
      "note": 86,
      "start": 58.0901,
      "duration": 0.0162,
      "velocity": 86,
      "chip": "ym2612"
    },
    {
      "channel": 2,
      "note": 59,
      "start": 58.0912,
      "duration": 0.0163,
      "velocity": 93,
      "chip": "ym2612"
    },
    {
      "channel": 0,
      "note": 40,
      "start": 58.1028,
      "duration": 0.016,
      "velocity": 115,
      "chip": "ym2612"
    },
    {
      "channel": 5,
      "note": 76,
      "start": 58.1039,
      "duration": 0.0161,
      "velocity": 102,
      "chip": "ym2612"
    },
    {
      "channel": 4,
      "note": 86,
      "start": 58.1051,
      "duration": 0.0161,
      "velocity": 86,
      "chip": "ym2612"
    },
    {
      "channel": 3,
      "note": 86,
      "start": 58.1063,
      "duration": 0.0161,
      "velocity": 86,
      "chip": "ym2612"
    },
    {
      "channel": 2,
      "note": 59,
      "start": 58.1076,
      "duration": 0.0161,
      "velocity": 93,
      "chip": "ym2612"
    },
    {
      "channel": 0,
      "note": 40,
      "start": 58.1188,
      "duration": 0.0161,
      "velocity": 115,
      "chip": "ym2612"
    },
    {
      "channel": 4,
      "note": 86,
      "start": 58.1212,
      "duration": 0.0161,
      "velocity": 86,
      "chip": "ym2612"
    },
    {
      "channel": 3,
      "note": 86,
      "start": 58.1224,
      "duration": 0.0161,
      "velocity": 86,
      "chip": "ym2612"
    },
    {
      "channel": 2,
      "note": 59,
      "start": 58.1236,
      "duration": 0.0162,
      "velocity": 93,
      "chip": "ym2612"
    },
    {
      "channel": 0,
      "note": 41,
      "start": 58.1349,
      "duration": 0.0156,
      "velocity": 115,
      "chip": "ym2612"
    },
    {
      "channel": 4,
      "note": 86,
      "start": 58.1373,
      "duration": 0.0163,
      "velocity": 86,
      "chip": "ym2612"
    },
    {
      "channel": 2,
      "note": 59,
      "start": 58.1398,
      "duration": 0.0164,
      "velocity": 93,
      "chip": "ym2612"
    },
    {
      "channel": 0,
      "note": 41,
      "start": 58.1505,
      "duration": 0.0161,
      "velocity": 115,
      "chip": "ym2612"
    },
    {
      "channel": 4,
      "note": 86,
      "start": 58.1536,
      "duration": 0.016,
      "velocity": 86,
      "chip": "ym2612"
    },
    {
      "channel": 3,
      "note": 78,
      "start": 58.1551,
      "duration": 0.0158,
      "velocity": 86,
      "chip": "ym2612"
    },
    {
      "channel": 2,
      "note": 59,
      "start": 58.1562,
      "duration": 0.0158,
      "velocity": 93,
      "chip": "ym2612"
    },
    {
      "channel": 0,
      "note": 42,
      "start": 58.1666,
      "duration": 0.0161,
      "velocity": 115,
      "chip": "ym2612"
    },
    {
      "channel": 4,
      "note": 86,
      "start": 58.1696,
      "duration": 0.0161,
      "velocity": 86,
      "chip": "ym2612"
    },
    {
      "channel": 3,
      "note": 78,
      "start": 58.1708,
      "duration": 0.0161,
      "velocity": 86,
      "chip": "ym2612"
    },
    {
      "channel": 2,
      "note": 59,
      "start": 58.172,
      "duration": 0.0161,
      "velocity": 93,
      "chip": "ym2612"
    },
    {
      "channel": 0,
      "note": 42,
      "start": 58.1827,
      "duration": 0.0161,
      "velocity": 115,
      "chip": "ym2612"
    },
    {
      "channel": 3,
      "note": 78,
      "start": 58.1869,
      "duration": 0.0163,
      "velocity": 86,
      "chip": "ym2612"
    },
    {
      "channel": 2,
      "note": 59,
      "start": 58.1881,
      "duration": 0.0163,
      "velocity": 93,
      "chip": "ym2612"
    },
    {
      "channel": 0,
      "note": 43,
      "start": 58.1988,
      "duration": 0.0161,
      "velocity": 115,
      "chip": "ym2612"
    },
    {
      "channel": 4,
      "note": 78,
      "start": 58.2021,
      "duration": 0.0155,
      "velocity": 86,
      "chip": "ym2612"
    },
    {
      "channel": 3,
      "note": 78,
      "start": 58.2033,
      "duration": 0.0158,
      "velocity": 86,
      "chip": "ym2612"
    },
    {
      "channel": 2,
      "note": 59,
      "start": 58.2044,
      "duration": 0.0159,
      "velocity": 93,
      "chip": "ym2612"
    },
    {
      "channel": 0,
      "note": 43,
      "start": 58.2149,
      "duration": 0.0162,
      "velocity": 115,
      "chip": "ym2612"
    },
    {
      "channel": 4,
      "note": 78,
      "start": 58.2176,
      "duration": 0.0158,
      "velocity": 86,
      "chip": "ym2612"
    },
    {
      "channel": 3,
      "note": 78,
      "start": 58.2191,
      "duration": 0.016,
      "velocity": 86,
      "chip": "ym2612"
    },
    {
      "channel": 2,
      "note": 59,
      "start": 58.2203,
      "duration": 0.0161,
      "velocity": 93,
      "chip": "ym2612"
    },
    {
      "channel": 0,
      "note": 44,
      "start": 58.231,
      "duration": 0.0179,
      "velocity": 124,
      "chip": "ym2612"
    },
    {
      "channel": 4,
      "note": 78,
      "start": 58.2334,
      "duration": 0.0185,
      "velocity": 86,
      "chip": "ym2612"
    },
    {
      "channel": 2,
      "note": 59,
      "start": 58.2364,
      "duration": 0.0184,
      "velocity": 93,
      "chip": "ym2612"
    },
    {
      "channel": 0,
      "note": 84,
      "start": 58.249,
      "duration": 0.0143,
      "velocity": 124,
      "chip": "ym2612"
    },
    {
      "channel": 4,
      "note": 78,
      "start": 58.2519,
      "duration": 0.0138,
      "velocity": 86,
      "chip": "ym2612"
    },
    {
      "channel": 3,
      "note": 81,
      "start": 58.2534,
      "duration": 0.0135,
      "velocity": 86,
      "chip": "ym2612"
    },
    {
      "channel": 2,
      "note": 59,
      "start": 58.2549,
      "duration": 0.0137,
      "velocity": 93,
      "chip": "ym2612"
    },
    {
      "channel": 1,
      "note": 74,
      "start": 58.2577,
      "duration": 0.0122,
      "velocity": 98,
      "chip": "ym2612"
    },
    {
      "channel": 0,
      "note": 82,
      "start": 58.2633,
      "duration": 0.016,
      "velocity": 124,
      "chip": "ym2612"
    },
    {
      "channel": 4,
      "note": 78,
      "start": 58.2657,
      "duration": 0.016,
      "velocity": 86,
      "chip": "ym2612"
    },
    {
      "channel": 3,
      "note": 81,
      "start": 58.2669,
      "duration": 0.016,
      "velocity": 86,
      "chip": "ym2612"
    },
    {
      "channel": 2,
      "note": 59,
      "start": 58.2686,
      "duration": 0.0156,
      "velocity": 93,
      "chip": "ym2612"
    },
    {
      "channel": 1,
      "note": 74,
      "start": 58.27,
      "duration": 0.0158,
      "velocity": 98,
      "chip": "ym2612"
    },
    {
      "channel": 0,
      "note": 80,
      "start": 58.2793,
      "duration": 0.0161,
      "velocity": 124,
      "chip": "ym2612"
    },
    {
      "channel": 3,
      "note": 81,
      "start": 58.2829,
      "duration": 0.0163,
      "velocity": 86,
      "chip": "ym2612"
    },
    {
      "channel": 2,
      "note": 59,
      "start": 58.2843,
      "duration": 0.0162,
      "velocity": 93,
      "chip": "ym2612"
    },
    {
      "channel": 1,
      "note": 74,
      "start": 58.2858,
      "duration": 0.0164,
      "velocity": 98,
      "chip": "ym2612"
    },
    {
      "channel": 0,
      "note": 77,
      "start": 58.2954,
      "duration": 0.0161,
      "velocity": 124,
      "chip": "ym2612"
    },
    {
      "channel": 4,
      "note": 81,
      "start": 58.2981,
      "duration": 0.0159,
      "velocity": 86,
      "chip": "ym2612"
    },
    {
      "channel": 3,
      "note": 81,
      "start": 58.2993,
      "duration": 0.0158,
      "velocity": 86,
      "chip": "ym2612"
    },
    {
      "channel": 2,
      "note": 59,
      "start": 58.3005,
      "duration": 0.0159,
      "velocity": 93,
      "chip": "ym2612"
    },
    {
      "channel": 1,
      "note": 74,
      "start": 58.3022,
      "duration": 0.0155,
      "velocity": 98,
      "chip": "ym2612"
    },
    {
      "channel": 0,
      "note": 75,
      "start": 58.3115,
      "duration": 0.0161,
      "velocity": 124,
      "chip": "ym2612"
    },
    {
      "channel": 4,
      "note": 81,
      "start": 58.314,
      "duration": 0.016,
      "velocity": 86,
      "chip": "ym2612"
    },
    {
      "channel": 3,
      "note": 81,
      "start": 58.3151,
      "duration": 0.0161,
      "velocity": 86,
      "chip": "ym2612"
    },
    {
      "channel": 2,
      "note": 59,
      "start": 58.3163,
      "duration": 0.016,
      "velocity": 93,
      "chip": "ym2612"
    },
    {
      "channel": 1,
      "note": 74,
      "start": 58.3177,
      "duration": 0.0158,
      "velocity": 98,
      "chip": "ym2612"
    },
    {
      "channel": 0,
      "note": 72,
      "start": 58.3276,
      "duration": 0.0161,
      "velocity": 124,
      "chip": "ym2612"
    },
    {
      "channel": 4,
      "note": 81,
      "start": 58.33,
      "duration": 0.0161,
      "velocity": 86,
      "chip": "ym2612"
    },
    {
      "channel": 3,
      "note": 81,
      "start": 58.3312,
      "duration": 0.0161,
      "velocity": 86,
      "chip": "ym2612"
    },
    {
      "channel": 2,
      "note": 59,
      "start": 58.3324,
      "duration": 0.0161,
      "velocity": 93,
      "chip": "ym2612"
    },
    {
      "channel": 1,
      "note": 74,
      "start": 58.3335,
      "duration": 0.0162,
      "velocity": 98,
      "chip": "ym2612"
    },
    {
      "channel": 0,
      "note": 70,
      "start": 58.3437,
      "duration": 0.0161,
      "velocity": 124,
      "chip": "ym2612"
    },
    {
      "channel": 4,
      "note": 81,
      "start": 58.3461,
      "duration": 0.0161,
      "velocity": 86,
      "chip": "ym2612"
    },
    {
      "channel": 3,
      "note": 81,
      "start": 58.3473,
      "duration": 0.0161,
      "velocity": 86,
      "chip": "ym2612"
    },
    {
      "channel": 2,
      "note": 59,
      "start": 58.3484,
      "duration": 0.0161,
      "velocity": 93,
      "chip": "ym2612"
    },
    {
      "channel": 1,
      "note": 74,
      "start": 58.3497,
      "duration": 0.016,
      "velocity": 98,
      "chip": "ym2612"
    },
    {
      "channel": 0,
      "note": 68,
      "start": 58.3598,
      "duration": 0.0161,
      "velocity": 124,
      "chip": "ym2612"
    },
    {
      "channel": 4,
      "note": 81,
      "start": 58.3622,
      "duration": 0.0161,
      "velocity": 86,
      "chip": "ym2612"
    },
    {
      "channel": 3,
      "note": 81,
      "start": 58.3634,
      "duration": 0.0161,
      "velocity": 86,
      "chip": "ym2612"
    },
    {
      "channel": 2,
      "note": 59,
      "start": 58.3645,
      "duration": 0.0161,
      "velocity": 93,
      "chip": "ym2612"
    },
    {
      "channel": 1,
      "note": 74,
      "start": 58.3657,
      "duration": 0.0161,
      "velocity": 98,
      "chip": "ym2612"
    },
    {
      "channel": 0,
      "note": 65,
      "start": 58.3759,
      "duration": 0.0161,
      "velocity": 124,
      "chip": "ym2612"
    },
    {
      "channel": 4,
      "note": 81,
      "start": 58.3783,
      "duration": 0.0162,
      "velocity": 86,
      "chip": "ym2612"
    },
    {
      "channel": 3,
      "note": 81,
      "start": 58.3795,
      "duration": 0.0162,
      "velocity": 86,
      "chip": "ym2612"
    },
    {
      "channel": 2,
      "note": 59,
      "start": 58.3806,
      "duration": 0.0162,
      "velocity": 93,
      "chip": "ym2612"
    },
    {
      "channel": 1,
      "note": 74,
      "start": 58.3818,
      "duration": 0.0162,
      "velocity": 98,
      "chip": "ym2612"
    },
    {
      "channel": 0,
      "note": 63,
      "start": 58.392,
      "duration": 0.0153,
      "velocity": 1,
      "chip": "ym2612"
    },
    {
      "channel": 4,
      "note": 81,
      "start": 58.3944,
      "duration": 0.0153,
      "velocity": 86,
      "chip": "ym2612"
    },
    {
      "channel": 3,
      "note": 81,
      "start": 58.3956,
      "duration": 0.0153,
      "velocity": 86,
      "chip": "ym2612"
    },
    {
      "channel": 2,
      "note": 59,
      "start": 58.3968,
      "duration": 0.0153,
      "velocity": 93,
      "chip": "ym2612"
    },
    {
      "channel": 1,
      "note": 74,
      "start": 58.398,
      "duration": 0.0153,
      "velocity": 98,
      "chip": "ym2612"
    },
    {
      "channel": 4,
      "note": 81,
      "start": 58.4097,
      "duration": 0.0153,
      "velocity": 86,
      "chip": "ym2612"
    },
    {
      "channel": 3,
      "note": 81,
      "start": 58.4109,
      "duration": 0.0153,
      "velocity": 86,
      "chip": "ym2612"
    },
    {
      "channel": 2,
      "note": 59,
      "start": 58.4121,
      "duration": 0.0153,
      "velocity": 93,
      "chip": "ym2612"
    },
    {
      "channel": 1,
      "note": 74,
      "start": 58.4133,
      "duration": 0.0153,
      "velocity": 98,
      "chip": "ym2612"
    },
    {
      "channel": 4,
      "note": 81,
      "start": 58.425,
      "duration": 0.0161,
      "velocity": 86,
      "chip": "ym2612"
    },
    {
      "channel": 2,
      "note": 59,
      "start": 58.4274,
      "duration": 0.0163,
      "velocity": 93,
      "chip": "ym2612"
    },
    {
      "channel": 1,
      "note": 74,
      "start": 58.4285,
      "duration": 0.0163,
      "velocity": 98,
      "chip": "ym2612"
    },
    {
      "channel": 4,
      "note": 81,
      "start": 58.4411,
      "duration": 0.0161,
      "velocity": 86,
      "chip": "ym2612"
    },
    {
      "channel": 3,
      "note": 86,
      "start": 58.4426,
      "duration": 0.0158,
      "velocity": 86,
      "chip": "ym2612"
    },
    {
      "channel": 2,
      "note": 59,
      "start": 58.4437,
      "duration": 0.0158,
      "velocity": 93,
      "chip": "ym2612"
    },
    {
      "channel": 1,
      "note": 74,
      "start": 58.4449,
      "duration": 0.0159,
      "velocity": 98,
      "chip": "ym2612"
    },
    {
      "channel": 4,
      "note": 81,
      "start": 58.4572,
      "duration": 0.0161,
      "velocity": 86,
      "chip": "ym2612"
    },
    {
      "channel": 3,
      "note": 86,
      "start": 58.4584,
      "duration": 0.0161,
      "velocity": 86,
      "chip": "ym2612"
    },
    {
      "channel": 2,
      "note": 59,
      "start": 58.4596,
      "duration": 0.016,
      "velocity": 93,
      "chip": "ym2612"
    },
    {
      "channel": 1,
      "note": 74,
      "start": 58.4607,
      "duration": 0.016,
      "velocity": 98,
      "chip": "ym2612"
    },
    {
      "channel": 3,
      "note": 86,
      "start": 58.4745,
      "duration": 0.0164,
      "velocity": 86,
      "chip": "ym2612"
    },
    {
      "channel": 2,
      "note": 59,
      "start": 58.4756,
      "duration": 0.0164,
      "velocity": 93,
      "chip": "ym2612"
    },
    {
      "channel": 1,
      "note": 74,
      "start": 58.4768,
      "duration": 0.0164,
      "velocity": 98,
      "chip": "ym2612"
    },
    {
      "channel": 4,
      "note": 86,
      "start": 58.4897,
      "duration": 0.0159,
      "velocity": 86,
      "chip": "ym2612"
    },
    {
      "channel": 3,
      "note": 86,
      "start": 58.4909,
      "duration": 0.0158,
      "velocity": 86,
      "chip": "ym2612"
    },
    {
      "channel": 2,
      "note": 59,
      "start": 58.492,
      "duration": 0.0159,
      "velocity": 93,
      "chip": "ym2612"
    },
    {
      "channel": 1,
      "note": 74,
      "start": 58.4932,
      "duration": 0.0159,
      "velocity": 98,
      "chip": "ym2612"
    },
    {
      "channel": 4,
      "note": 86,
      "start": 58.5055,
      "duration": 0.0161,
      "velocity": 86,
      "chip": "ym2612"
    },
    {
      "channel": 3,
      "note": 86,
      "start": 58.5066,
      "duration": 0.0161,
      "velocity": 86,
      "chip": "ym2612"
    },
    {
      "channel": 2,
      "note": 59,
      "start": 58.5079,
      "duration": 0.0161,
      "velocity": 93,
      "chip": "ym2612"
    },
    {
      "channel": 1,
      "note": 74,
      "start": 58.5091,
      "duration": 0.0161,
      "velocity": 98,
      "chip": "ym2612"
    },
    {
      "channel": 4,
      "note": 86,
      "start": 58.5216,
      "duration": 0.0196,
      "velocity": 86,
      "chip": "ym2612"
    },
    {
      "channel": 3,
      "note": 86,
      "start": 58.5227,
      "duration": 0.0197,
      "velocity": 86,
      "chip": "ym2612"
    },
    {
      "channel": 2,
      "note": 59,
      "start": 58.524,
      "duration": 0.0198,
      "velocity": 93,
      "chip": "ym2612"
    },
    {
      "channel": 0,
      "note": 36,
      "start": 58.5388,
      "duration": 0.0146,
      "velocity": 115,
      "chip": "ym2612"
    },
    {
      "channel": 4,
      "note": 86,
      "start": 58.5412,
      "duration": 0.0146,
      "velocity": 86,
      "chip": "ym2612"
    },
    {
      "channel": 3,
      "note": 86,
      "start": 58.5424,
      "duration": 0.0146,
      "velocity": 86,
      "chip": "ym2612"
    },
    {
      "channel": 2,
      "note": 59,
      "start": 58.5439,
      "duration": 0.0144,
      "velocity": 93,
      "chip": "ym2612"
    },
    {
      "channel": 1,
      "note": 78,
      "start": 58.5453,
      "duration": 0.0142,
      "velocity": 98,
      "chip": "ym2612"
    },
    {
      "channel": 0,
      "note": 36,
      "start": 58.5535,
      "duration": 0.0162,
      "velocity": 115,
      "chip": "ym2612"
    },
    {
      "channel": 4,
      "note": 86,
      "start": 58.5559,
      "duration": 0.018,
      "velocity": 86,
      "chip": "ym2612"
    },
    {
      "channel": 3,
      "note": 86,
      "start": 58.557,
      "duration": 0.018,
      "velocity": 86,
      "chip": "ym2612"
    },
    {
      "channel": 2,
      "note": 59,
      "start": 58.5583,
      "duration": 0.0179,
      "velocity": 93,
      "chip": "ym2612"
    },
    {
      "channel": 1,
      "note": 78,
      "start": 58.5595,
      "duration": 0.0179,
      "velocity": 98,
      "chip": "ym2612"
    },
    {
      "channel": 0,
      "note": 37,
      "start": 58.5697,
      "duration": 0.0161,
      "velocity": 115,
      "chip": "ym2612"
    },
    {
      "channel": 5,
      "note": 74,
      "start": 58.5727,
      "duration": 0.0144,
      "velocity": 98,
      "chip": "ym2612"
    },
    {
      "channel": 4,
      "note": 86,
      "start": 58.5739,
      "duration": 0.0143,
      "velocity": 86,
      "chip": "ym2612"
    },
    {
      "channel": 3,
      "note": 86,
      "start": 58.575,
      "duration": 0.0144,
      "velocity": 86,
      "chip": "ym2612"
    },
    {
      "channel": 2,
      "note": 59,
      "start": 58.5762,
      "duration": 0.0143,
      "velocity": 93,
      "chip": "ym2612"
    },
    {
      "channel": 1,
      "note": 78,
      "start": 58.5774,
      "duration": 0.0144,
      "velocity": 98,
      "chip": "ym2612"
    },
    {
      "channel": 0,
      "note": 37,
      "start": 58.5858,
      "duration": 0.0161,
      "velocity": 115,
      "chip": "ym2612"
    },
    {
      "channel": 5,
      "note": 74,
      "start": 58.5871,
      "duration": 0.016,
      "velocity": 98,
      "chip": "ym2612"
    },
    {
      "channel": 4,
      "note": 86,
      "start": 58.5882,
      "duration": 0.0161,
      "velocity": 86,
      "chip": "ym2612"
    },
    {
      "channel": 3,
      "note": 86,
      "start": 58.5894,
      "duration": 0.016,
      "velocity": 86,
      "chip": "ym2612"
    },
    {
      "channel": 2,
      "note": 59,
      "start": 58.5906,
      "duration": 0.0161,
      "velocity": 93,
      "chip": "ym2612"
    },
    {
      "channel": 1,
      "note": 78,
      "start": 58.5918,
      "duration": 0.016,
      "velocity": 98,
      "chip": "ym2612"
    },
    {
      "channel": 0,
      "note": 38,
      "start": 58.6019,
      "duration": 0.0158,
      "velocity": 115,
      "chip": "ym2612"
    },
    {
      "channel": 5,
      "note": 74,
      "start": 58.6031,
      "duration": 0.0161,
      "velocity": 98,
      "chip": "ym2612"
    },
    {
      "channel": 4,
      "note": 86,
      "start": 58.6043,
      "duration": 0.0161,
      "velocity": 86,
      "chip": "ym2612"
    },
    {
      "channel": 3,
      "note": 86,
      "start": 58.6054,
      "duration": 0.0161,
      "velocity": 86,
      "chip": "ym2612"
    },
    {
      "channel": 2,
      "note": 59,
      "start": 58.6066,
      "duration": 0.0161,
      "velocity": 93,
      "chip": "ym2612"
    },
    {
      "channel": 1,
      "note": 78,
      "start": 58.6078,
      "duration": 0.0161,
      "velocity": 98,
      "chip": "ym2612"
    },
    {
      "channel": 0,
      "note": 38,
      "start": 58.6177,
      "duration": 0.0158,
      "velocity": 115,
      "chip": "ym2612"
    },
    {
      "channel": 5,
      "note": 74,
      "start": 58.6192,
      "duration": 0.016,
      "velocity": 98,
      "chip": "ym2612"
    },
    {
      "channel": 4,
      "note": 86,
      "start": 58.6204,
      "duration": 0.0161,
      "velocity": 86,
      "chip": "ym2612"
    },
    {
      "channel": 3,
      "note": 86,
      "start": 58.6215,
      "duration": 0.0161,
      "velocity": 86,
      "chip": "ym2612"
    },
    {
      "channel": 2,
      "note": 59,
      "start": 58.6227,
      "duration": 0.0161,
      "velocity": 93,
      "chip": "ym2612"
    },
    {
      "channel": 1,
      "note": 78,
      "start": 58.6239,
      "duration": 0.0161,
      "velocity": 98,
      "chip": "ym2612"
    },
    {
      "channel": 0,
      "note": 39,
      "start": 58.6335,
      "duration": 0.0161,
      "velocity": 115,
      "chip": "ym2612"
    },
    {
      "channel": 5,
      "note": 74,
      "start": 58.6352,
      "duration": 0.0158,
      "velocity": 98,
      "chip": "ym2612"
    },
    {
      "channel": 4,
      "note": 86,
      "start": 58.6365,
      "duration": 0.0161,
      "velocity": 86,
      "chip": "ym2612"
    },
    {
      "channel": 3,
      "note": 86,
      "start": 58.6376,
      "duration": 0.0161,
      "velocity": 86,
      "chip": "ym2612"
    },
    {
      "channel": 2,
      "note": 59,
      "start": 58.6388,
      "duration": 0.0161,
      "velocity": 93,
      "chip": "ym2612"
    },
    {
      "channel": 1,
      "note": 78,
      "start": 58.64,
      "duration": 0.0161,
      "velocity": 98,
      "chip": "ym2612"
    },
    {
      "channel": 0,
      "note": 39,
      "start": 58.6496,
      "duration": 0.0161,
      "velocity": 115,
      "chip": "ym2612"
    },
    {
      "channel": 5,
      "note": 74,
      "start": 58.651,
      "duration": 0.0159,
      "velocity": 98,
      "chip": "ym2612"
    },
    {
      "channel": 4,
      "note": 86,
      "start": 58.6526,
      "duration": 0.016,
      "velocity": 86,
      "chip": "ym2612"
    },
    {
      "channel": 3,
      "note": 86,
      "start": 58.6537,
      "duration": 0.0161,
      "velocity": 86,
      "chip": "ym2612"
    },
    {
      "channel": 2,
      "note": 59,
      "start": 58.6549,
      "duration": 0.0161,
      "velocity": 93,
      "chip": "ym2612"
    },
    {
      "channel": 1,
      "note": 78,
      "start": 58.6561,
      "duration": 0.0161,
      "velocity": 98,
      "chip": "ym2612"
    },
    {
      "channel": 0,
      "note": 40,
      "start": 58.6657,
      "duration": 0.0161,
      "velocity": 115,
      "chip": "ym2612"
    },
    {
      "channel": 5,
      "note": 74,
      "start": 58.6669,
      "duration": 0.0161,
      "velocity": 98,
      "chip": "ym2612"
    },
    {
      "channel": 4,
      "note": 86,
      "start": 58.6686,
      "duration": 0.0158,
      "velocity": 86,
      "chip": "ym2612"
    },
    {
      "channel": 3,
      "note": 86,
      "start": 58.6698,
      "duration": 0.0162,
      "velocity": 86,
      "chip": "ym2612"
    },
    {
      "channel": 2,
      "note": 59,
      "start": 58.671,
      "duration": 0.0162,
      "velocity": 93,
      "chip": "ym2612"
    },
    {
      "channel": 1,
      "note": 78,
      "start": 58.6722,
      "duration": 0.0161,
      "velocity": 98,
      "chip": "ym2612"
    },
    {
      "channel": 0,
      "note": 40,
      "start": 58.6818,
      "duration": 0.0161,
      "velocity": 115,
      "chip": "ym2612"
    },
    {
      "channel": 5,
      "note": 74,
      "start": 58.683,
      "duration": 0.0161,
      "velocity": 98,
      "chip": "ym2612"
    },
    {
      "channel": 4,
      "note": 86,
      "start": 58.6844,
      "duration": 0.0159,
      "velocity": 86,
      "chip": "ym2612"
    },
    {
      "channel": 3,
      "note": 86,
      "start": 58.686,
      "duration": 0.016,
      "velocity": 86,
      "chip": "ym2612"
    },
    {
      "channel": 2,
      "note": 59,
      "start": 58.6872,
      "duration": 0.0161,
      "velocity": 93,
      "chip": "ym2612"
    },
    {
      "channel": 1,
      "note": 78,
      "start": 58.6883,
      "duration": 0.0161,
      "velocity": 98,
      "chip": "ym2612"
    },
    {
      "channel": 0,
      "note": 40,
      "start": 58.6979,
      "duration": 0.0161,
      "velocity": 115,
      "chip": "ym2612"
    },
    {
      "channel": 5,
      "note": 74,
      "start": 58.6991,
      "duration": 0.0161,
      "velocity": 98,
      "chip": "ym2612"
    },
    {
      "channel": 4,
      "note": 86,
      "start": 58.7003,
      "duration": 0.0161,
      "velocity": 86,
      "chip": "ym2612"
    },
    {
      "channel": 3,
      "note": 86,
      "start": 58.702,
      "duration": 0.0161,
      "velocity": 86,
      "chip": "ym2612"
    },
    {
      "channel": 2,
      "note": 59,
      "start": 58.7033,
      "duration": 0.0161,
      "velocity": 93,
      "chip": "ym2612"
    },
    {
      "channel": 1,
      "note": 78,
      "start": 58.7044,
      "duration": 0.0162,
      "velocity": 98,
      "chip": "ym2612"
    },
    {
      "channel": 0,
      "note": 41,
      "start": 58.714,
      "duration": 0.0179,
      "velocity": 115,
      "chip": "ym2612"
    },
    {
      "channel": 5,
      "note": 74,
      "start": 58.7152,
      "duration": 0.0179,
      "velocity": 98,
      "chip": "ym2612"
    },
    {
      "channel": 4,
      "note": 86,
      "start": 58.7164,
      "duration": 0.0185,
      "velocity": 86,
      "chip": "ym2612"
    },
    {
      "channel": 2,
      "note": 59,
      "start": 58.7194,
      "duration": 0.0181,
      "velocity": 93,
      "chip": "ym2612"
    },
    {
      "channel": 1,
      "note": 78,
      "start": 58.7206,
      "duration": 0.0182,
      "velocity": 98,
      "chip": "ym2612"
    },
    {
      "channel": 0,
      "note": 36,
      "start": 58.732,
      "duration": 0.0143,
      "velocity": 115,
      "chip": "ym2612"
    },
    {
      "channel": 5,
      "note": 74,
      "start": 58.7331,
      "duration": 0.0144,
      "velocity": 98,
      "chip": "ym2612"
    },
    {
      "channel": 4,
      "note": 86,
      "start": 58.7349,
      "duration": 0.0137,
      "velocity": 86,
      "chip": "ym2612"
    },
    {
      "channel": 3,
      "note": 78,
      "start": 58.7364,
      "duration": 0.0135,
      "velocity": 86,
      "chip": "ym2612"
    },
    {
      "channel": 2,
      "note": 59,
      "start": 58.7376,
      "duration": 0.014,
      "velocity": 93,
      "chip": "ym2612"
    },
    {
      "channel": 1,
      "note": 78,
      "start": 58.7388,
      "duration": 0.0141,
      "velocity": 98,
      "chip": "ym2612"
    },
    {
      "channel": 0,
      "note": 36,
      "start": 58.7463,
      "duration": 0.016,
      "velocity": 115,
      "chip": "ym2612"
    },
    {
      "channel": 5,
      "note": 74,
      "start": 58.7475,
      "duration": 0.016,
      "velocity": 98,
      "chip": "ym2612"
    },
    {
      "channel": 4,
      "note": 86,
      "start": 58.7486,
      "duration": 0.016,
      "velocity": 86,
      "chip": "ym2612"
    },
    {
      "channel": 3,
      "note": 78,
      "start": 58.7499,
      "duration": 0.016,
      "velocity": 86,
      "chip": "ym2612"
    },
    {
      "channel": 2,
      "note": 59,
      "start": 58.7516,
      "duration": 0.0155,
      "velocity": 93,
      "chip": "ym2612"
    },
    {
      "channel": 1,
      "note": 78,
      "start": 58.7528,
      "duration": 0.016,
      "velocity": 98,
      "chip": "ym2612"
    },
    {
      "channel": 0,
      "note": 37,
      "start": 58.7623,
      "duration": 0.0161,
      "velocity": 115,
      "chip": "ym2612"
    },
    {
      "channel": 5,
      "note": 74,
      "start": 58.7635,
      "duration": 0.0161,
      "velocity": 98,
      "chip": "ym2612"
    },
    {
      "channel": 3,
      "note": 78,
      "start": 58.7659,
      "duration": 0.0164,
      "velocity": 86,
      "chip": "ym2612"
    },
    {
      "channel": 2,
      "note": 59,
      "start": 58.767,
      "duration": 0.0164,
      "velocity": 93,
      "chip": "ym2612"
    },
    {
      "channel": 1,
      "note": 78,
      "start": 58.7688,
      "duration": 0.0163,
      "velocity": 98,
      "chip": "ym2612"
    },
    {
      "channel": 0,
      "note": 37,
      "start": 58.7784,
      "duration": 0.0161,
      "velocity": 115,
      "chip": "ym2612"
    },
    {
      "channel": 5,
      "note": 74,
      "start": 58.7796,
      "duration": 0.0161,
      "velocity": 98,
      "chip": "ym2612"
    },
    {
      "channel": 4,
      "note": 78,
      "start": 58.7811,
      "duration": 0.0158,
      "velocity": 86,
      "chip": "ym2612"
    },
    {
      "channel": 3,
      "note": 78,
      "start": 58.7823,
      "duration": 0.0158,
      "velocity": 86,
      "chip": "ym2612"
    },
    {
      "channel": 2,
      "note": 59,
      "start": 58.7834,
      "duration": 0.0159,
      "velocity": 93,
      "chip": "ym2612"
    },
    {
      "channel": 1,
      "note": 78,
      "start": 58.7851,
      "duration": 0.0154,
      "velocity": 98,
      "chip": "ym2612"
    },
    {
      "channel": 0,
      "note": 38,
      "start": 58.7945,
      "duration": 0.0161,
      "velocity": 115,
      "chip": "ym2612"
    },
    {
      "channel": 5,
      "note": 74,
      "start": 58.7957,
      "duration": 0.0161,
      "velocity": 98,
      "chip": "ym2612"
    },
    {
      "channel": 4,
      "note": 78,
      "start": 58.7969,
      "duration": 0.016,
      "velocity": 86,
      "chip": "ym2612"
    },
    {
      "channel": 3,
      "note": 78,
      "start": 58.7981,
      "duration": 0.016,
      "velocity": 86,
      "chip": "ym2612"
    },
    {
      "channel": 2,
      "note": 59,
      "start": 58.7993,
      "duration": 0.016,
      "velocity": 93,
      "chip": "ym2612"
    },
    {
      "channel": 1,
      "note": 78,
      "start": 58.8005,
      "duration": 0.0161,
      "velocity": 98,
      "chip": "ym2612"
    },
    {
      "channel": 0,
      "note": 38,
      "start": 58.8106,
      "duration": 0.0179,
      "velocity": 124,
      "chip": "ym2612"
    },
    {
      "channel": 5,
      "note": 74,
      "start": 58.8118,
      "duration": 0.0179,
      "velocity": 98,
      "chip": "ym2612"
    },
    {
      "channel": 4,
      "note": 78,
      "start": 58.8129,
      "duration": 0.0179,
      "velocity": 86,
      "chip": "ym2612"
    },
    {
      "channel": 2,
      "note": 59,
      "start": 58.8154,
      "duration": 0.0184,
      "velocity": 93,
      "chip": "ym2612"
    },
    {
      "channel": 0,
      "note": 84,
      "start": 58.8286,
      "duration": 0.0143,
      "velocity": 124,
      "chip": "ym2612"
    },
    {
      "channel": 5,
      "note": 74,
      "start": 58.8298,
      "duration": 0.0143,
      "velocity": 98,
      "chip": "ym2612"
    },
    {
      "channel": 4,
      "note": 78,
      "start": 58.8309,
      "duration": 0.0144,
      "velocity": 86,
      "chip": "ym2612"
    },
    {
      "channel": 3,
      "note": 81,
      "start": 58.8324,
      "duration": 0.0141,
      "velocity": 86,
      "chip": "ym2612"
    },
    {
      "channel": 2,
      "note": 59,
      "start": 58.8338,
      "duration": 0.0139,
      "velocity": 93,
      "chip": "ym2612"
    },
    {
      "channel": 1,
      "note": 81,
      "start": 58.8359,
      "duration": 0.013,
      "velocity": 98,
      "chip": "ym2612"
    },
    {
      "channel": 0,
      "note": 82,
      "start": 58.8429,
      "duration": 0.016,
      "velocity": 124,
      "chip": "ym2612"
    },
    {
      "channel": 4,
      "note": 78,
      "start": 58.8453,
      "duration": 0.0163,
      "velocity": 86,
      "chip": "ym2612"
    },
    {
      "channel": 3,
      "note": 81,
      "start": 58.8465,
      "duration": 0.0163,
      "velocity": 86,
      "chip": "ym2612"
    },
    {
      "channel": 2,
      "note": 59,
      "start": 58.8477,
      "duration": 0.0162,
      "velocity": 93,
      "chip": "ym2612"
    },
    {
      "channel": 1,
      "note": 81,
      "start": 58.8489,
      "duration": 0.0162,
      "velocity": 98,
      "chip": "ym2612"
    },
    {
      "channel": 0,
      "note": 80,
      "start": 58.8589,
      "duration": 0.0161,
      "velocity": 124,
      "chip": "ym2612"
    },
    {
      "channel": 5,
      "note": 78,
      "start": 58.8604,
      "duration": 0.0158,
      "velocity": 98,
      "chip": "ym2612"
    },
    {
      "channel": 3,
      "note": 81,
      "start": 58.8628,
      "duration": 0.0161,
      "velocity": 86,
      "chip": "ym2612"
    },
    {
      "channel": 2,
      "note": 59,
      "start": 58.8639,
      "duration": 0.0162,
      "velocity": 93,
      "chip": "ym2612"
    },
    {
      "channel": 1,
      "note": 81,
      "start": 58.8651,
      "duration": 0.0161,
      "velocity": 98,
      "chip": "ym2612"
    },
    {
      "channel": 0,
      "note": 77,
      "start": 58.875,
      "duration": 0.0161,
      "velocity": 124,
      "chip": "ym2612"
    },
    {
      "channel": 5,
      "note": 78,
      "start": 58.8762,
      "duration": 0.0161,
      "velocity": 98,
      "chip": "ym2612"
    },
    {
      "channel": 4,
      "note": 81,
      "start": 58.8777,
      "duration": 0.0158,
      "velocity": 86,
      "chip": "ym2612"
    },
    {
      "channel": 3,
      "note": 81,
      "start": 58.8789,
      "duration": 0.0158,
      "velocity": 86,
      "chip": "ym2612"
    },
    {
      "channel": 2,
      "note": 59,
      "start": 58.8801,
      "duration": 0.0158,
      "velocity": 93,
      "chip": "ym2612"
    },
    {
      "channel": 1,
      "note": 81,
      "start": 58.8812,
      "duration": 0.0159,
      "velocity": 98,
      "chip": "ym2612"
    },
    {
      "channel": 0,
      "note": 75,
      "start": 58.8911,
      "duration": 0.0161,
      "velocity": 124,
      "chip": "ym2612"
    },
    {
      "channel": 5,
      "note": 78,
      "start": 58.8923,
      "duration": 0.0161,
      "velocity": 98,
      "chip": "ym2612"
    },
    {
      "channel": 4,
      "note": 81,
      "start": 58.8935,
      "duration": 0.016,
      "velocity": 86,
      "chip": "ym2612"
    },
    {
      "channel": 3,
      "note": 81,
      "start": 58.8947,
      "duration": 0.016,
      "velocity": 86,
      "chip": "ym2612"
    },
    {
      "channel": 2,
      "note": 59,
      "start": 58.8959,
      "duration": 0.016,
      "velocity": 93,
      "chip": "ym2612"
    },
    {
      "channel": 1,
      "note": 81,
      "start": 58.8971,
      "duration": 0.016,
      "velocity": 98,
      "chip": "ym2612"
    },
    {
      "channel": 0,
      "note": 72,
      "start": 58.9072,
      "duration": 0.0161,
      "velocity": 124,
      "chip": "ym2612"
    },
    {
      "channel": 5,
      "note": 78,
      "start": 58.9084,
      "duration": 0.0161,
      "velocity": 98,
      "chip": "ym2612"
    },
    {
      "channel": 4,
      "note": 81,
      "start": 58.9096,
      "duration": 0.0161,
      "velocity": 86,
      "chip": "ym2612"
    },
    {
      "channel": 3,
      "note": 81,
      "start": 58.9107,
      "duration": 0.0161,
      "velocity": 86,
      "chip": "ym2612"
    },
    {
      "channel": 2,
      "note": 59,
      "start": 58.9119,
      "duration": 0.0161,
      "velocity": 93,
      "chip": "ym2612"
    },
    {
      "channel": 1,
      "note": 81,
      "start": 58.9131,
      "duration": 0.0161,
      "velocity": 98,
      "chip": "ym2612"
    },
    {
      "channel": 0,
      "note": 70,
      "start": 58.9233,
      "duration": 0.0161,
      "velocity": 124,
      "chip": "ym2612"
    },
    {
      "channel": 5,
      "note": 78,
      "start": 58.9245,
      "duration": 0.0161,
      "velocity": 98,
      "chip": "ym2612"
    },
    {
      "channel": 4,
      "note": 81,
      "start": 58.9257,
      "duration": 0.0161,
      "velocity": 86,
      "chip": "ym2612"
    },
    {
      "channel": 3,
      "note": 81,
      "start": 58.9269,
      "duration": 0.0161,
      "velocity": 86,
      "chip": "ym2612"
    },
    {
      "channel": 2,
      "note": 59,
      "start": 58.928,
      "duration": 0.0161,
      "velocity": 93,
      "chip": "ym2612"
    },
    {
      "channel": 1,
      "note": 81,
      "start": 58.9292,
      "duration": 0.0161,
      "velocity": 98,
      "chip": "ym2612"
    },
    {
      "channel": 0,
      "note": 68,
      "start": 58.9394,
      "duration": 0.0161,
      "velocity": 124,
      "chip": "ym2612"
    },
    {
      "channel": 5,
      "note": 78,
      "start": 58.9406,
      "duration": 0.0161,
      "velocity": 98,
      "chip": "ym2612"
    },
    {
      "channel": 4,
      "note": 81,
      "start": 58.9418,
      "duration": 0.0161,
      "velocity": 86,
      "chip": "ym2612"
    },
    {
      "channel": 3,
      "note": 81,
      "start": 58.943,
      "duration": 0.0161,
      "velocity": 86,
      "chip": "ym2612"
    },
    {
      "channel": 2,
      "note": 59,
      "start": 58.9441,
      "duration": 0.0161,
      "velocity": 93,
      "chip": "ym2612"
    },
    {
      "channel": 1,
      "note": 81,
      "start": 58.9453,
      "duration": 0.0161,
      "velocity": 98,
      "chip": "ym2612"
    },
    {
      "channel": 0,
      "note": 65,
      "start": 58.9555,
      "duration": 0.0161,
      "velocity": 124,
      "chip": "ym2612"
    },
    {
      "channel": 5,
      "note": 78,
      "start": 58.9567,
      "duration": 0.0161,
      "velocity": 98,
      "chip": "ym2612"
    },
    {
      "channel": 4,
      "note": 81,
      "start": 58.9579,
      "duration": 0.0161,
      "velocity": 86,
      "chip": "ym2612"
    },
    {
      "channel": 3,
      "note": 81,
      "start": 58.9591,
      "duration": 0.0161,
      "velocity": 86,
      "chip": "ym2612"
    },
    {
      "channel": 2,
      "note": 59,
      "start": 58.9602,
      "duration": 0.0162,
      "velocity": 93,
      "chip": "ym2612"
    },
    {
      "channel": 1,
      "note": 81,
      "start": 58.9614,
      "duration": 0.0162,
      "velocity": 98,
      "chip": "ym2612"
    },
    {
      "channel": 0,
      "note": 63,
      "start": 58.9717,
      "duration": 0.0153,
      "velocity": 1,
      "chip": "ym2612"
    },
    {
      "channel": 5,
      "note": 78,
      "start": 58.9728,
      "duration": 0.0153,
      "velocity": 98,
      "chip": "ym2612"
    },
    {
      "channel": 4,
      "note": 81,
      "start": 58.974,
      "duration": 0.0153,
      "velocity": 86,
      "chip": "ym2612"
    },
    {
      "channel": 3,
      "note": 81,
      "start": 58.9752,
      "duration": 0.0153,
      "velocity": 86,
      "chip": "ym2612"
    },
    {
      "channel": 2,
      "note": 59,
      "start": 58.9764,
      "duration": 0.0152,
      "velocity": 93,
      "chip": "ym2612"
    },
    {
      "channel": 1,
      "note": 81,
      "start": 58.9776,
      "duration": 0.0153,
      "velocity": 98,
      "chip": "ym2612"
    },
    {
      "channel": 5,
      "note": 78,
      "start": 58.9881,
      "duration": 0.0153,
      "velocity": 98,
      "chip": "ym2612"
    },
    {
      "channel": 4,
      "note": 81,
      "start": 58.9893,
      "duration": 0.0153,
      "velocity": 86,
      "chip": "ym2612"
    },
    {
      "channel": 3,
      "note": 81,
      "start": 58.9904,
      "duration": 0.0153,
      "velocity": 86,
      "chip": "ym2612"
    },
    {
      "channel": 2,
      "note": 59,
      "start": 58.9916,
      "duration": 0.0154,
      "velocity": 93,
      "chip": "ym2612"
    },
    {
      "channel": 1,
      "note": 81,
      "start": 58.9929,
      "duration": 0.0153,
      "velocity": 98,
      "chip": "ym2612"
    },
    {
      "channel": 5,
      "note": 78,
      "start": 59.0034,
      "duration": 0.0163,
      "velocity": 98,
      "chip": "ym2612"
    },
    {
      "channel": 4,
      "note": 81,
      "start": 59.0046,
      "duration": 0.0163,
      "velocity": 86,
      "chip": "ym2612"
    },
    {
      "channel": 2,
      "note": 59,
      "start": 59.007,
      "duration": 0.0165,
      "velocity": 93,
      "chip": "ym2612"
    },
    {
      "channel": 1,
      "note": 81,
      "start": 59.0082,
      "duration": 0.0165,
      "velocity": 98,
      "chip": "ym2612"
    },
    {
      "channel": 5,
      "note": 78,
      "start": 59.0197,
      "duration": 0.0163,
      "velocity": 98,
      "chip": "ym2612"
    },
    {
      "channel": 4,
      "note": 81,
      "start": 59.0208,
      "duration": 0.0163,
      "velocity": 86,
      "chip": "ym2612"
    },
    {
      "channel": 3,
      "note": 86,
      "start": 59.0224,
      "duration": 0.016,
      "velocity": 86,
      "chip": "ym2612"
    },
    {
      "channel": 2,
      "note": 59,
      "start": 59.0235,
      "duration": 0.0161,
      "velocity": 93,
      "chip": "ym2612"
    },
    {
      "channel": 1,
      "note": 81,
      "start": 59.0246,
      "duration": 0.0161,
      "velocity": 98,
      "chip": "ym2612"
    },
    {
      "channel": 5,
      "note": 78,
      "start": 59.036,
      "duration": 0.0162,
      "velocity": 98,
      "chip": "ym2612"
    },
    {
      "channel": 4,
      "note": 81,
      "start": 59.0372,
      "duration": 0.0162,
      "velocity": 86,
      "chip": "ym2612"
    },
    {
      "channel": 3,
      "note": 86,
      "start": 59.0384,
      "duration": 0.0162,
      "velocity": 86,
      "chip": "ym2612"
    },
    {
      "channel": 2,
      "note": 59,
      "start": 59.0396,
      "duration": 0.0162,
      "velocity": 93,
      "chip": "ym2612"
    },
    {
      "channel": 1,
      "note": 81,
      "start": 59.0407,
      "duration": 0.0162,
      "velocity": 98,
      "chip": "ym2612"
    },
    {
      "channel": 5,
      "note": 78,
      "start": 59.0522,
      "duration": 0.0161,
      "velocity": 98,
      "chip": "ym2612"
    },
    {
      "channel": 3,
      "note": 86,
      "start": 59.0546,
      "duration": 0.0164,
      "velocity": 86,
      "chip": "ym2612"
    },
    {
      "channel": 2,
      "note": 59,
      "start": 59.0558,
      "duration": 0.0164,
      "velocity": 93,
      "chip": "ym2612"
    },
    {
      "channel": 1,
      "note": 81,
      "start": 59.0569,
      "duration": 0.0164,
      "velocity": 98,
      "chip": "ym2612"
    },
    {
      "channel": 5,
      "note": 78,
      "start": 59.0683,
      "duration": 0.0155,
      "velocity": 98,
      "chip": "ym2612"
    },
    {
      "channel": 4,
      "note": 86,
      "start": 59.0698,
      "duration": 0.0159,
      "velocity": 86,
      "chip": "ym2612"
    },
    {
      "channel": 3,
      "note": 86,
      "start": 59.071,
      "duration": 0.0158,
      "velocity": 86,
      "chip": "ym2612"
    },
    {
      "channel": 2,
      "note": 59,
      "start": 59.0722,
      "duration": 0.0159,
      "velocity": 93,
      "chip": "ym2612"
    },
    {
      "channel": 1,
      "note": 81,
      "start": 59.0733,
      "duration": 0.0159,
      "velocity": 98,
      "chip": "ym2612"
    },
    {
      "channel": 5,
      "note": 78,
      "start": 59.0838,
      "duration": 0.0161,
      "velocity": 98,
      "chip": "ym2612"
    },
    {
      "channel": 4,
      "note": 86,
      "start": 59.0857,
      "duration": 0.016,
      "velocity": 86,
      "chip": "ym2612"
    },
    {
      "channel": 3,
      "note": 86,
      "start": 59.0868,
      "duration": 0.016,
      "velocity": 86,
      "chip": "ym2612"
    },
    {
      "channel": 2,
      "note": 59,
      "start": 59.0881,
      "duration": 0.016,
      "velocity": 93,
      "chip": "ym2612"
    },
    {
      "channel": 1,
      "note": 81,
      "start": 59.0892,
      "duration": 0.016,
      "velocity": 98,
      "chip": "ym2612"
    },
    {
      "channel": 5,
      "note": 78,
      "start": 59.0999,
      "duration": 0.0202,
      "velocity": 98,
      "chip": "ym2612"
    },
    {
      "channel": 4,
      "note": 86,
      "start": 59.1016,
      "duration": 0.0197,
      "velocity": 86,
      "chip": "ym2612"
    },
    {
      "channel": 3,
      "note": 86,
      "start": 59.1028,
      "duration": 0.0197,
      "velocity": 86,
      "chip": "ym2612"
    },
    {
      "channel": 2,
      "note": 59,
      "start": 59.1041,
      "duration": 0.0198,
      "velocity": 93,
      "chip": "ym2612"
    },
    {
      "channel": 0,
      "note": 36,
      "start": 59.119,
      "duration": 0.0137,
      "velocity": 115,
      "chip": "ym2612"
    },
    {
      "channel": 5,
      "note": 78,
      "start": 59.1201,
      "duration": 0.0137,
      "velocity": 98,
      "chip": "ym2612"
    },
    {
      "channel": 4,
      "note": 86,
      "start": 59.1213,
      "duration": 0.0143,
      "velocity": 86,
      "chip": "ym2612"
    },
    {
      "channel": 3,
      "note": 86,
      "start": 59.1225,
      "duration": 0.0144,
      "velocity": 86,
      "chip": "ym2612"
    },
    {
      "channel": 2,
      "note": 52,
      "start": 59.1239,
      "duration": 0.0141,
      "velocity": 93,
      "chip": "ym2612"
    },
    {
      "channel": 1,
      "note": 85,
      "start": 59.1254,
      "duration": 0.0139,
      "velocity": 98,
      "chip": "ym2612"
    },
    {
      "channel": 0,
      "note": 36,
      "start": 59.1327,
      "duration": 0.016,
      "velocity": 115,
      "chip": "ym2612"
    },
    {
      "channel": 4,
      "note": 86,
      "start": 59.1357,
      "duration": 0.0162,
      "velocity": 86,
      "chip": "ym2612"
    },
    {
      "channel": 3,
      "note": 86,
      "start": 59.1369,
      "duration": 0.0163,
      "velocity": 86,
      "chip": "ym2612"
    },
    {
      "channel": 2,
      "note": 52,
      "start": 59.1381,
      "duration": 0.0162,
      "velocity": 93,
      "chip": "ym2612"
    },
    {
      "channel": 1,
      "note": 85,
      "start": 59.1393,
      "duration": 0.0162,
      "velocity": 98,
      "chip": "ym2612"
    },
    {
      "channel": 0,
      "note": 37,
      "start": 59.1488,
      "duration": 0.0161,
      "velocity": 115,
      "chip": "ym2612"
    },
    {
      "channel": 5,
      "note": 81,
      "start": 59.1502,
      "duration": 0.0158,
      "velocity": 98,
      "chip": "ym2612"
    },
    {
      "channel": 4,
      "note": 86,
      "start": 59.1519,
      "duration": 0.0154,
      "velocity": 86,
      "chip": "ym2612"
    },
    {
      "channel": 3,
      "note": 86,
      "start": 59.1532,
      "duration": 0.0159,
      "velocity": 86,
      "chip": "ym2612"
    },
    {
      "channel": 2,
      "note": 52,
      "start": 59.1543,
      "duration": 0.0159,
      "velocity": 93,
      "chip": "ym2612"
    },
    {
      "channel": 1,
      "note": 85,
      "start": 59.1555,
      "duration": 0.0158,
      "velocity": 98,
      "chip": "ym2612"
    },
    {
      "channel": 0,
      "note": 37,
      "start": 59.1649,
      "duration": 0.0161,
      "velocity": 115,
      "chip": "ym2612"
    },
    {
      "channel": 5,
      "note": 81,
      "start": 59.1661,
      "duration": 0.0161,
      "velocity": 98,
      "chip": "ym2612"
    },
    {
      "channel": 4,
      "note": 86,
      "start": 59.1673,
      "duration": 0.016,
      "velocity": 86,
      "chip": "ym2612"
    },
    {
      "channel": 3,
      "note": 86,
      "start": 59.169,
      "duration": 0.016,
      "velocity": 86,
      "chip": "ym2612"
    },
    {
      "channel": 2,
      "note": 52,
      "start": 59.1702,
      "duration": 0.0161,
      "velocity": 93,
      "chip": "ym2612"
    },
    {
      "channel": 1,
      "note": 85,
      "start": 59.1713,
      "duration": 0.0161,
      "velocity": 98,
      "chip": "ym2612"
    },
    {
      "channel": 0,
      "note": 38,
      "start": 59.181,
      "duration": 0.0161,
      "velocity": 115,
      "chip": "ym2612"
    },
    {
      "channel": 5,
      "note": 81,
      "start": 59.1822,
      "duration": 0.0161,
      "velocity": 98,
      "chip": "ym2612"
    },
    {
      "channel": 4,
      "note": 86,
      "start": 59.1833,
      "duration": 0.0161,
      "velocity": 86,
      "chip": "ym2612"
    },
    {
      "channel": 3,
      "note": 86,
      "start": 59.1851,
      "duration": 0.0157,
      "velocity": 86,
      "chip": "ym2612"
    },
    {
      "channel": 2,
      "note": 52,
      "start": 59.1863,
      "duration": 0.0161,
      "velocity": 93,
      "chip": "ym2612"
    },
    {
      "channel": 1,
      "note": 85,
      "start": 59.1874,
      "duration": 0.0161,
      "velocity": 98,
      "chip": "ym2612"
    },
    {
      "channel": 0,
      "note": 38,
      "start": 59.1971,
      "duration": 0.0161,
      "velocity": 115,
      "chip": "ym2612"
    },
    {
      "channel": 5,
      "note": 81,
      "start": 59.1983,
      "duration": 0.0161,
      "velocity": 98,
      "chip": "ym2612"
    },
    {
      "channel": 4,
      "note": 86,
      "start": 59.1994,
      "duration": 0.0161,
      "velocity": 86,
      "chip": "ym2612"
    },
    {
      "channel": 3,
      "note": 86,
      "start": 59.2008,
      "duration": 0.0159,
      "velocity": 86,
      "chip": "ym2612"
    },
    {
      "channel": 2,
      "note": 52,
      "start": 59.2024,
      "duration": 0.016,
      "velocity": 93,
      "chip": "ym2612"
    },
    {
      "channel": 1,
      "note": 85,
      "start": 59.2035,
      "duration": 0.0161,
      "velocity": 98,
      "chip": "ym2612"
    },
    {
      "channel": 0,
      "note": 39,
      "start": 59.2131,
      "duration": 0.0161,
      "velocity": 115,
      "chip": "ym2612"
    },
    {
      "channel": 5,
      "note": 81,
      "start": 59.2144,
      "duration": 0.0161,
      "velocity": 98,
      "chip": "ym2612"
    },
    {
      "channel": 4,
      "note": 86,
      "start": 59.2155,
      "duration": 0.0161,
      "velocity": 86,
      "chip": "ym2612"
    },
    {
      "channel": 3,
      "note": 86,
      "start": 59.2167,
      "duration": 0.0161,
      "velocity": 86,
      "chip": "ym2612"
    },
    {
      "channel": 2,
      "note": 52,
      "start": 59.2184,
      "duration": 0.0158,
      "velocity": 93,
      "chip": "ym2612"
    },
    {
      "channel": 1,
      "note": 85,
      "start": 59.2196,
      "duration": 0.0161,
      "velocity": 98,
      "chip": "ym2612"
    },
    {
      "channel": 0,
      "note": 39,
      "start": 59.2292,
      "duration": 0.0162,
      "velocity": 115,
      "chip": "ym2612"
    },
    {
      "channel": 5,
      "note": 81,
      "start": 59.2304,
      "duration": 0.0161,
      "velocity": 98,
      "chip": "ym2612"
    },
    {
      "channel": 4,
      "note": 86,
      "start": 59.2316,
      "duration": 0.0161,
      "velocity": 86,
      "chip": "ym2612"
    },
    {
      "channel": 3,
      "note": 86,
      "start": 59.2328,
      "duration": 0.0161,
      "velocity": 86,
      "chip": "ym2612"
    },
    {
      "channel": 2,
      "note": 52,
      "start": 59.2342,
      "duration": 0.0159,
      "velocity": 93,
      "chip": "ym2612"
    },
    {
      "channel": 1,
      "note": 85,
      "start": 59.2357,
      "duration": 0.016,
      "velocity": 98,
      "chip": "ym2612"
    },
    {
      "channel": 0,
      "note": 40,
      "start": 59.2454,
      "duration": 0.0161,
      "velocity": 115,
      "chip": "ym2612"
    },
    {
      "channel": 5,
      "note": 81,
      "start": 59.2465,
      "duration": 0.0161,
      "velocity": 98,
      "chip": "ym2612"
    },
    {
      "channel": 4,
      "note": 86,
      "start": 59.2477,
      "duration": 0.0161,
      "velocity": 86,
      "chip": "ym2612"
    },
    {
      "channel": 3,
      "note": 86,
      "start": 59.2489,
      "duration": 0.0161,
      "velocity": 86,
      "chip": "ym2612"
    },
    {
      "channel": 2,
      "note": 52,
      "start": 59.25,
      "duration": 0.0162,
      "velocity": 93,
      "chip": "ym2612"
    },
    {
      "channel": 1,
      "note": 85,
      "start": 59.2517,
      "duration": 0.0159,
      "velocity": 98,
      "chip": "ym2612"
    },
    {
      "channel": 0,
      "note": 40,
      "start": 59.2615,
      "duration": 0.0161,
      "velocity": 115,
      "chip": "ym2612"
    },
    {
      "channel": 5,
      "note": 81,
      "start": 59.2626,
      "duration": 0.0161,
      "velocity": 98,
      "chip": "ym2612"
    },
    {
      "channel": 4,
      "note": 86,
      "start": 59.2638,
      "duration": 0.0162,
      "velocity": 86,
      "chip": "ym2612"
    },
    {
      "channel": 3,
      "note": 86,
      "start": 59.265,
      "duration": 0.0161,
      "velocity": 86,
      "chip": "ym2612"
    },
    {
      "channel": 2,
      "note": 52,
      "start": 59.2663,
      "duration": 0.016,
      "velocity": 93,
      "chip": "ym2612"
    },
    {
      "channel": 1,
      "note": 85,
      "start": 59.2676,
      "duration": 0.0159,
      "velocity": 98,
      "chip": "ym2612"
    },
    {
      "channel": 0,
      "note": 40,
      "start": 59.2776,
      "duration": 0.0161,
      "velocity": 115,
      "chip": "ym2612"
    },
    {
      "channel": 5,
      "note": 81,
      "start": 59.2787,
      "duration": 0.0161,
      "velocity": 98,
      "chip": "ym2612"
    },
    {
      "channel": 4,
      "note": 86,
      "start": 59.2799,
      "duration": 0.0161,
      "velocity": 86,
      "chip": "ym2612"
    },
    {
      "channel": 3,
      "note": 86,
      "start": 59.2811,
      "duration": 0.0161,
      "velocity": 86,
      "chip": "ym2612"
    },
    {
      "channel": 2,
      "note": 52,
      "start": 59.2823,
      "duration": 0.0161,
      "velocity": 93,
      "chip": "ym2612"
    },
    {
      "channel": 1,
      "note": 85,
      "start": 59.2835,
      "duration": 0.0161,
      "velocity": 98,
      "chip": "ym2612"
    },
    {
      "channel": 0,
      "note": 41,
      "start": 59.2937,
      "duration": 0.0161,
      "velocity": 115,
      "chip": "ym2612"
    },
    {
      "channel": 5,
      "note": 81,
      "start": 59.2948,
      "duration": 0.0161,
      "velocity": 98,
      "chip": "ym2612"
    },
    {
      "channel": 4,
      "note": 86,
      "start": 59.296,
      "duration": 0.0161,
      "velocity": 86,
      "chip": "ym2612"
    },
    {
      "channel": 2,
      "note": 52,
      "start": 59.2984,
      "duration": 0.0163,
      "velocity": 93,
      "chip": "ym2612"
    },
    {
      "channel": 1,
      "note": 85,
      "start": 59.2996,
      "duration": 0.0163,
      "velocity": 98,
      "chip": "ym2612"
    },
    {
      "channel": 0,
      "note": 41,
      "start": 59.3098,
      "duration": 0.0161,
      "velocity": 115,
      "chip": "ym2612"
    },
    {
      "channel": 5,
      "note": 81,
      "start": 59.3109,
      "duration": 0.0161,
      "velocity": 98,
      "chip": "ym2612"
    },
    {
      "channel": 4,
      "note": 86,
      "start": 59.3121,
      "duration": 0.0161,
      "velocity": 86,
      "chip": "ym2612"
    },
    {
      "channel": 3,
      "note": 76,
      "start": 59.3137,
      "duration": 0.0158,
      "velocity": 86,
      "chip": "ym2612"
    },
    {
      "channel": 2,
      "note": 52,
      "start": 59.3148,
      "duration": 0.0158,
      "velocity": 93,
      "chip": "ym2612"
    },
    {
      "channel": 1,
      "note": 85,
      "start": 59.3159,
      "duration": 0.0158,
      "velocity": 98,
      "chip": "ym2612"
    },
    {
      "channel": 0,
      "note": 42,
      "start": 59.3259,
      "duration": 0.0161,
      "velocity": 115,
      "chip": "ym2612"
    },
    {
      "channel": 5,
      "note": 81,
      "start": 59.327,
      "duration": 0.0162,
      "velocity": 98,
      "chip": "ym2612"
    },
    {
      "channel": 4,
      "note": 86,
      "start": 59.3282,
      "duration": 0.0161,
      "velocity": 86,
      "chip": "ym2612"
    },
    {
      "channel": 3,
      "note": 76,
      "start": 59.3294,
      "duration": 0.0161,
      "velocity": 86,
      "chip": "ym2612"
    },
    {
      "channel": 2,
      "note": 52,
      "start": 59.3306,
      "duration": 0.0161,
      "velocity": 93,
      "chip": "ym2612"
    },
    {
      "channel": 1,
      "note": 85,
      "start": 59.3318,
      "duration": 0.0161,
      "velocity": 98,
      "chip": "ym2612"
    },
    {
      "channel": 0,
      "note": 42,
      "start": 59.342,
      "duration": 0.0161,
      "velocity": 115,
      "chip": "ym2612"
    },
    {
      "channel": 5,
      "note": 81,
      "start": 59.3432,
      "duration": 0.0161,
      "velocity": 98,
      "chip": "ym2612"
    },
    {
      "channel": 3,
      "note": 76,
      "start": 59.3455,
      "duration": 0.0164,
      "velocity": 86,
      "chip": "ym2612"
    },
    {
      "channel": 2,
      "note": 52,
      "start": 59.3467,
      "duration": 0.0164,
      "velocity": 93,
      "chip": "ym2612"
    },
    {
      "channel": 1,
      "note": 85,
      "start": 59.3479,
      "duration": 0.0163,
      "velocity": 98,
      "chip": "ym2612"
    },
    {
      "channel": 0,
      "note": 43,
      "start": 59.358,
      "duration": 0.0161,
      "velocity": 115,
      "chip": "ym2612"
    },
    {
      "channel": 5,
      "note": 81,
      "start": 59.3593,
      "duration": 0.0161,
      "velocity": 98,
      "chip": "ym2612"
    },
    {
      "channel": 4,
      "note": 76,
      "start": 59.3607,
      "duration": 0.0158,
      "velocity": 86,
      "chip": "ym2612"
    },
    {
      "channel": 3,
      "note": 76,
      "start": 59.3619,
      "duration": 0.0159,
      "velocity": 86,
      "chip": "ym2612"
    },
    {
      "channel": 2,
      "note": 52,
      "start": 59.3631,
      "duration": 0.0159,
      "velocity": 93,
      "chip": "ym2612"
    },
    {
      "channel": 1,
      "note": 85,
      "start": 59.3642,
      "duration": 0.0159,
      "velocity": 98,
      "chip": "ym2612"
    },
    {
      "channel": 0,
      "note": 43,
      "start": 59.3741,
      "duration": 0.0161,
      "velocity": 115,
      "chip": "ym2612"
    },
    {
      "channel": 5,
      "note": 81,
      "start": 59.3754,
      "duration": 0.0161,
      "velocity": 98,
      "chip": "ym2612"
    },
    {
      "channel": 4,
      "note": 76,
      "start": 59.3766,
      "duration": 0.016,
      "velocity": 86,
      "chip": "ym2612"
    },
    {
      "channel": 3,
      "note": 76,
      "start": 59.3778,
      "duration": 0.016,
      "velocity": 86,
      "chip": "ym2612"
    },
    {
      "channel": 2,
      "note": 52,
      "start": 59.379,
      "duration": 0.016,
      "velocity": 93,
      "chip": "ym2612"
    },
    {
      "channel": 1,
      "note": 85,
      "start": 59.3801,
      "duration": 0.0161,
      "velocity": 98,
      "chip": "ym2612"
    },
    {
      "channel": 0,
      "note": 44,
      "start": 59.3902,
      "duration": 0.0179,
      "velocity": 124,
      "chip": "ym2612"
    },
    {
      "channel": 5,
      "note": 81,
      "start": 59.3915,
      "duration": 0.0179,
      "velocity": 98,
      "chip": "ym2612"
    },
    {
      "channel": 4,
      "note": 76,
      "start": 59.3926,
      "duration": 0.0179,
      "velocity": 86,
      "chip": "ym2612"
    },
    {
      "channel": 2,
      "note": 52,
      "start": 59.395,
      "duration": 0.0184,
      "velocity": 93,
      "chip": "ym2612"
    },
    {
      "channel": 1,
      "note": 85,
      "start": 59.3962,
      "duration": 0.0185,
      "velocity": 98,
      "chip": "ym2612"
    },
    {
      "channel": 0,
      "note": 84,
      "start": 59.4082,
      "duration": 0.0143,
      "velocity": 124,
      "chip": "ym2612"
    },
    {
      "channel": 5,
      "note": 81,
      "start": 59.4094,
      "duration": 0.0143,
      "velocity": 98,
      "chip": "ym2612"
    },
    {
      "channel": 4,
      "note": 76,
      "start": 59.4105,
      "duration": 0.0144,
      "velocity": 86,
      "chip": "ym2612"
    },
    {
      "channel": 3,
      "note": 80,
      "start": 59.4121,
      "duration": 0.0141,
      "velocity": 86,
      "chip": "ym2612"
    },
    {
      "channel": 2,
      "note": 52,
      "start": 59.4134,
      "duration": 0.0139,
      "velocity": 93,
      "chip": "ym2612"
    },
    {
      "channel": 1,
      "note": 85,
      "start": 59.4147,
      "duration": 0.0139,
      "velocity": 98,
      "chip": "ym2612"
    },
    {
      "channel": 0,
      "note": 82,
      "start": 59.4226,
      "duration": 0.016,
      "velocity": 124,
      "chip": "ym2612"
    },
    {
      "channel": 4,
      "note": 76,
      "start": 59.4249,
      "duration": 0.0163,
      "velocity": 86,
      "chip": "ym2612"
    },
    {
      "channel": 3,
      "note": 80,
      "start": 59.4261,
      "duration": 0.0163,
      "velocity": 86,
      "chip": "ym2612"
    },
    {
      "channel": 2,
      "note": 52,
      "start": 59.4273,
      "duration": 0.0162,
      "velocity": 93,
      "chip": "ym2612"
    },
    {
      "channel": 1,
      "note": 85,
      "start": 59.4285,
      "duration": 0.0162,
      "velocity": 98,
      "chip": "ym2612"
    },
    {
      "channel": 0,
      "note": 80,
      "start": 59.4386,
      "duration": 0.0161,
      "velocity": 124,
      "chip": "ym2612"
    },
    {
      "channel": 5,
      "note": 85,
      "start": 59.44,
      "duration": 0.0159,
      "velocity": 98,
      "chip": "ym2612"
    },
    {
      "channel": 3,
      "note": 80,
      "start": 59.4424,
      "duration": 0.0161,
      "velocity": 86,
      "chip": "ym2612"
    },
    {
      "channel": 2,
      "note": 52,
      "start": 59.4435,
      "duration": 0.0162,
      "velocity": 93,
      "chip": "ym2612"
    },
    {
      "channel": 1,
      "note": 85,
      "start": 59.4448,
      "duration": 0.0161,
      "velocity": 98,
      "chip": "ym2612"
    },
    {
      "channel": 0,
      "note": 77,
      "start": 59.4547,
      "duration": 0.0161,
      "velocity": 124,
      "chip": "ym2612"
    },
    {
      "channel": 5,
      "note": 85,
      "start": 59.4559,
      "duration": 0.0161,
      "velocity": 98,
      "chip": "ym2612"
    },
    {
      "channel": 4,
      "note": 80,
      "start": 59.4573,
      "duration": 0.0159,
      "velocity": 86,
      "chip": "ym2612"
    },
    {
      "channel": 3,
      "note": 80,
      "start": 59.4585,
      "duration": 0.0158,
      "velocity": 86,
      "chip": "ym2612"
    },
    {
      "channel": 2,
      "note": 52,
      "start": 59.4597,
      "duration": 0.0158,
      "velocity": 93,
      "chip": "ym2612"
    },
    {
      "channel": 1,
      "note": 85,
      "start": 59.4608,
      "duration": 0.0159,
      "velocity": 98,
      "chip": "ym2612"
    },
    {
      "channel": 0,
      "note": 75,
      "start": 59.4708,
      "duration": 0.0162,
      "velocity": 124,
      "chip": "ym2612"
    },
    {
      "channel": 5,
      "note": 85,
      "start": 59.472,
      "duration": 0.0162,
      "velocity": 98,
      "chip": "ym2612"
    },
    {
      "channel": 4,
      "note": 80,
      "start": 59.4732,
      "duration": 0.0161,
      "velocity": 86,
      "chip": "ym2612"
    },
    {
      "channel": 3,
      "note": 80,
      "start": 59.4743,
      "duration": 0.0161,
      "velocity": 86,
      "chip": "ym2612"
    },
    {
      "channel": 2,
      "note": 52,
      "start": 59.4755,
      "duration": 0.0161,
      "velocity": 93,
      "chip": "ym2612"
    },
    {
      "channel": 1,
      "note": 85,
      "start": 59.4767,
      "duration": 0.0161,
      "velocity": 98,
      "chip": "ym2612"
    },
    {
      "channel": 0,
      "note": 72,
      "start": 59.4869,
      "duration": 0.0164,
      "velocity": 124,
      "chip": "ym2612"
    },
    {
      "channel": 5,
      "note": 85,
      "start": 59.4881,
      "duration": 0.0164,
      "velocity": 98,
      "chip": "ym2612"
    },
    {
      "channel": 4,
      "note": 80,
      "start": 59.4893,
      "duration": 0.0164,
      "velocity": 86,
      "chip": "ym2612"
    },
    {
      "channel": 3,
      "note": 80,
      "start": 59.4904,
      "duration": 0.0165,
      "velocity": 86,
      "chip": "ym2612"
    },
    {
      "channel": 2,
      "note": 52,
      "start": 59.4916,
      "duration": 0.0164,
      "velocity": 93,
      "chip": "ym2612"
    },
    {
      "channel": 1,
      "note": 85,
      "start": 59.4928,
      "duration": 0.0164,
      "velocity": 98,
      "chip": "ym2612"
    },
    {
      "channel": 0,
      "note": 70,
      "start": 59.5033,
      "duration": 0.0163,
      "velocity": 124,
      "chip": "ym2612"
    },
    {
      "channel": 5,
      "note": 85,
      "start": 59.5046,
      "duration": 0.0163,
      "velocity": 98,
      "chip": "ym2612"
    },
    {
      "channel": 4,
      "note": 80,
      "start": 59.5057,
      "duration": 0.0163,
      "velocity": 86,
      "chip": "ym2612"
    },
    {
      "channel": 3,
      "note": 80,
      "start": 59.5069,
      "duration": 0.0163,
      "velocity": 86,
      "chip": "ym2612"
    },
    {
      "channel": 2,
      "note": 52,
      "start": 59.508,
      "duration": 0.0163,
      "velocity": 93,
      "chip": "ym2612"
    },
    {
      "channel": 1,
      "note": 85,
      "start": 59.5092,
      "duration": 0.0163,
      "velocity": 98,
      "chip": "ym2612"
    },
    {
      "channel": 0,
      "note": 68,
      "start": 59.5197,
      "duration": 0.0161,
      "velocity": 124,
      "chip": "ym2612"
    },
    {
      "channel": 5,
      "note": 85,
      "start": 59.5208,
      "duration": 0.0161,
      "velocity": 98,
      "chip": "ym2612"
    },
    {
      "channel": 4,
      "note": 80,
      "start": 59.522,
      "duration": 0.0161,
      "velocity": 86,
      "chip": "ym2612"
    },
    {
      "channel": 3,
      "note": 80,
      "start": 59.5232,
      "duration": 0.0161,
      "velocity": 86,
      "chip": "ym2612"
    },
    {
      "channel": 2,
      "note": 52,
      "start": 59.5244,
      "duration": 0.0161,
      "velocity": 93,
      "chip": "ym2612"
    },
    {
      "channel": 1,
      "note": 85,
      "start": 59.5255,
      "duration": 0.0161,
      "velocity": 98,
      "chip": "ym2612"
    },
    {
      "channel": 0,
      "note": 65,
      "start": 59.5358,
      "duration": 0.016,
      "velocity": 124,
      "chip": "ym2612"
    },
    {
      "channel": 5,
      "note": 85,
      "start": 59.5369,
      "duration": 0.0161,
      "velocity": 98,
      "chip": "ym2612"
    },
    {
      "channel": 4,
      "note": 80,
      "start": 59.5381,
      "duration": 0.0162,
      "velocity": 86,
      "chip": "ym2612"
    },
    {
      "channel": 3,
      "note": 80,
      "start": 59.5393,
      "duration": 0.0161,
      "velocity": 86,
      "chip": "ym2612"
    },
    {
      "channel": 2,
      "note": 52,
      "start": 59.5405,
      "duration": 0.0161,
      "velocity": 93,
      "chip": "ym2612"
    },
    {
      "channel": 0,
      "note": 63,
      "start": 59.5518,
      "duration": 0.0148,
      "velocity": 1,
      "chip": "ym2612"
    },
    {
      "channel": 5,
      "note": 85,
      "start": 59.553,
      "duration": 0.0152,
      "velocity": 98,
      "chip": "ym2612"
    },
    {
      "channel": 4,
      "note": 80,
      "start": 59.5542,
      "duration": 0.0153,
      "velocity": 86,
      "chip": "ym2612"
    },
    {
      "channel": 3,
      "note": 80,
      "start": 59.5554,
      "duration": 0.0153,
      "velocity": 86,
      "chip": "ym2612"
    },
    {
      "channel": 2,
      "note": 52,
      "start": 59.5566,
      "duration": 0.0153,
      "velocity": 93,
      "chip": "ym2612"
    },
    {
      "channel": 1,
      "note": 83,
      "start": 59.5581,
      "duration": 0.015,
      "velocity": 98,
      "chip": "ym2612"
    },
    {
      "channel": 5,
      "note": 85,
      "start": 59.5682,
      "duration": 0.0148,
      "velocity": 98,
      "chip": "ym2612"
    },
    {
      "channel": 4,
      "note": 80,
      "start": 59.5695,
      "duration": 0.0149,
      "velocity": 86,
      "chip": "ym2612"
    },
    {
      "channel": 3,
      "note": 80,
      "start": 59.5707,
      "duration": 0.0152,
      "velocity": 86,
      "chip": "ym2612"
    },
    {
      "channel": 2,
      "note": 52,
      "start": 59.5719,
      "duration": 0.0153,
      "velocity": 93,
      "chip": "ym2612"
    },
    {
      "channel": 1,
      "note": 83,
      "start": 59.5731,
      "duration": 0.0152,
      "velocity": 98,
      "chip": "ym2612"
    },
    {
      "channel": 5,
      "note": 85,
      "start": 59.583,
      "duration": 0.0161,
      "velocity": 98,
      "chip": "ym2612"
    },
    {
      "channel": 4,
      "note": 80,
      "start": 59.5844,
      "duration": 0.0159,
      "velocity": 86,
      "chip": "ym2612"
    },
    {
      "channel": 2,
      "note": 52,
      "start": 59.5872,
      "duration": 0.0163,
      "velocity": 93,
      "chip": "ym2612"
    },
    {
      "channel": 5,
      "note": 85,
      "start": 59.5991,
      "duration": 0.0161,
      "velocity": 98,
      "chip": "ym2612"
    },
    {
      "channel": 4,
      "note": 80,
      "start": 59.6002,
      "duration": 0.0162,
      "velocity": 86,
      "chip": "ym2612"
    },
    {
      "channel": 3,
      "note": 86,
      "start": 59.6024,
      "duration": 0.0154,
      "velocity": 86,
      "chip": "ym2612"
    },
    {
      "channel": 2,
      "note": 52,
      "start": 59.6035,
      "duration": 0.0158,
      "velocity": 93,
      "chip": "ym2612"
    },
    {
      "channel": 1,
      "note": 82,
      "start": 59.605,
      "duration": 0.0156,
      "velocity": 98,
      "chip": "ym2612"
    },
    {
      "channel": 5,
      "note": 85,
      "start": 59.6152,
      "duration": 0.0161,
      "velocity": 98,
      "chip": "ym2612"
    },
    {
      "channel": 4,
      "note": 80,
      "start": 59.6164,
      "duration": 0.0161,
      "velocity": 86,
      "chip": "ym2612"
    },
    {
      "channel": 3,
      "note": 86,
      "start": 59.6178,
      "duration": 0.0159,
      "velocity": 86,
      "chip": "ym2612"
    },
    {
      "channel": 2,
      "note": 52,
      "start": 59.6194,
      "duration": 0.016,
      "velocity": 93,
      "chip": "ym2612"
    },
    {
      "channel": 1,
      "note": 82,
      "start": 59.6206,
      "duration": 0.016,
      "velocity": 98,
      "chip": "ym2612"
    },
    {
      "channel": 5,
      "note": 85,
      "start": 59.6313,
      "duration": 0.0161,
      "velocity": 98,
      "chip": "ym2612"
    },
    {
      "channel": 3,
      "note": 86,
      "start": 59.6336,
      "duration": 0.0164,
      "velocity": 86,
      "chip": "ym2612"
    },
    {
      "channel": 2,
      "note": 52,
      "start": 59.6353,
      "duration": 0.0164,
      "velocity": 93,
      "chip": "ym2612"
    },
    {
      "channel": 5,
      "note": 85,
      "start": 59.6474,
      "duration": 0.0161,
      "velocity": 98,
      "chip": "ym2612"
    },
    {
      "channel": 4,
      "note": 86,
      "start": 59.6489,
      "duration": 0.0159,
      "velocity": 86,
      "chip": "ym2612"
    },
    {
      "channel": 3,
      "note": 86,
      "start": 59.65,
      "duration": 0.0158,
      "velocity": 86,
      "chip": "ym2612"
    },
    {
      "channel": 2,
      "note": 52,
      "start": 59.6517,
      "duration": 0.0153,
      "velocity": 93,
      "chip": "ym2612"
    },
    {
      "channel": 1,
      "note": 81,
      "start": 59.6533,
      "duration": 0.0156,
      "velocity": 98,
      "chip": "ym2612"
    },
    {
      "channel": 5,
      "note": 85,
      "start": 59.6634,
      "duration": 0.0161,
      "velocity": 98,
      "chip": "ym2612"
    },
    {
      "channel": 4,
      "note": 86,
      "start": 59.6647,
      "duration": 0.016,
      "velocity": 86,
      "chip": "ym2612"
    },
    {
      "channel": 3,
      "note": 86,
      "start": 59.6659,
      "duration": 0.016,
      "velocity": 86,
      "chip": "ym2612"
    },
    {
      "channel": 2,
      "note": 52,
      "start": 59.6671,
      "duration": 0.0161,
      "velocity": 93,
      "chip": "ym2612"
    },
    {
      "channel": 1,
      "note": 81,
      "start": 59.6689,
      "duration": 0.0159,
      "velocity": 98,
      "chip": "ym2612"
    },
    {
      "channel": 5,
      "note": 85,
      "start": 59.6795,
      "duration": 0.0197,
      "velocity": 98,
      "chip": "ym2612"
    },
    {
      "channel": 4,
      "note": 86,
      "start": 59.6808,
      "duration": 0.0196,
      "velocity": 86,
      "chip": "ym2612"
    },
    {
      "channel": 3,
      "note": 86,
      "start": 59.6819,
      "duration": 0.0203,
      "velocity": 86,
      "chip": "ym2612"
    },
    {
      "channel": 2,
      "note": 52,
      "start": 59.6832,
      "duration": 0.0204,
      "velocity": 93,
      "chip": "ym2612"
    },
    {
      "channel": 0,
      "note": 36,
      "start": 59.6981,
      "duration": 0.0143,
      "velocity": 115,
      "chip": "ym2612"
    },
    {
      "channel": 5,
      "note": 85,
      "start": 59.6992,
      "duration": 0.0143,
      "velocity": 98,
      "chip": "ym2612"
    },
    {
      "channel": 4,
      "note": 86,
      "start": 59.7004,
      "duration": 0.0143,
      "velocity": 86,
      "chip": "ym2612"
    },
    {
      "channel": 3,
      "note": 86,
      "start": 59.7022,
      "duration": 0.0137,
      "velocity": 86,
      "chip": "ym2612"
    },
    {
      "channel": 2,
      "note": 52,
      "start": 59.7036,
      "duration": 0.0135,
      "velocity": 93,
      "chip": "ym2612"
    },
    {
      "channel": 1,
      "note": 80,
      "start": 59.7051,
      "duration": 0.0137,
      "velocity": 98,
      "chip": "ym2612"
    },
    {
      "channel": 0,
      "note": 36,
      "start": 59.7124,
      "duration": 0.016,
      "velocity": 115,
      "chip": "ym2612"
    },
    {
      "channel": 5,
      "note": 85,
      "start": 59.7135,
      "duration": 0.016,
      "velocity": 98,
      "chip": "ym2612"
    },
    {
      "channel": 4,
      "note": 86,
      "start": 59.7147,
      "duration": 0.016,
      "velocity": 86,
      "chip": "ym2612"
    },
    {
      "channel": 3,
      "note": 86,
      "start": 59.7159,
      "duration": 0.016,
      "velocity": 86,
      "chip": "ym2612"
    },
    {
      "channel": 2,
      "note": 52,
      "start": 59.7171,
      "duration": 0.016,
      "velocity": 93,
      "chip": "ym2612"
    },
    {
      "channel": 1,
      "note": 80,
      "start": 59.7189,
      "duration": 0.0159,
      "velocity": 98,
      "chip": "ym2612"
    },
    {
      "channel": 0,
      "note": 37,
      "start": 59.7284,
      "duration": 0.0161,
      "velocity": 115,
      "chip": "ym2612"
    },
    {
      "channel": 5,
      "note": 85,
      "start": 59.7295,
      "duration": 0.0161,
      "velocity": 98,
      "chip": "ym2612"
    },
    {
      "channel": 4,
      "note": 86,
      "start": 59.7307,
      "duration": 0.0161,
      "velocity": 86,
      "chip": "ym2612"
    },
    {
      "channel": 3,
      "note": 86,
      "start": 59.7319,
      "duration": 0.0161,
      "velocity": 86,
      "chip": "ym2612"
    },
    {
      "channel": 2,
      "note": 52,
      "start": 59.7331,
      "duration": 0.0161,
      "velocity": 93,
      "chip": "ym2612"
    },
    {
      "channel": 1,
      "note": 80,
      "start": 59.7348,
      "duration": 0.0156,
      "velocity": 98,
      "chip": "ym2612"
    },
    {
      "channel": 0,
      "note": 37,
      "start": 59.7445,
      "duration": 0.0161,
      "velocity": 115,
      "chip": "ym2612"
    },
    {
      "channel": 5,
      "note": 85,
      "start": 59.7456,
      "duration": 0.0161,
      "velocity": 98,
      "chip": "ym2612"
    },
    {
      "channel": 4,
      "note": 86,
      "start": 59.7468,
      "duration": 0.0161,
      "velocity": 86,
      "chip": "ym2612"
    },
    {
      "channel": 3,
      "note": 86,
      "start": 59.748,
      "duration": 0.0161,
      "velocity": 86,
      "chip": "ym2612"
    },
    {
      "channel": 2,
      "note": 52,
      "start": 59.7492,
      "duration": 0.0161,
      "velocity": 93,
      "chip": "ym2612"
    },
    {
      "channel": 1,
      "note": 80,
      "start": 59.7504,
      "duration": 0.0161,
      "velocity": 98,
      "chip": "ym2612"
    },
    {
      "channel": 0,
      "note": 38,
      "start": 59.7606,
      "duration": 0.0161,
      "velocity": 115,
      "chip": "ym2612"
    },
    {
      "channel": 5,
      "note": 85,
      "start": 59.7617,
      "duration": 0.0161,
      "velocity": 98,
      "chip": "ym2612"
    },
    {
      "channel": 4,
      "note": 86,
      "start": 59.7629,
      "duration": 0.0161,
      "velocity": 86,
      "chip": "ym2612"
    },
    {
      "channel": 3,
      "note": 86,
      "start": 59.7641,
      "duration": 0.0161,
      "velocity": 86,
      "chip": "ym2612"
    },
    {
      "channel": 2,
      "note": 52,
      "start": 59.7653,
      "duration": 0.0161,
      "velocity": 93,
      "chip": "ym2612"
    },
    {
      "channel": 1,
      "note": 80,
      "start": 59.7664,
      "duration": 0.0162,
      "velocity": 98,
      "chip": "ym2612"
    },
    {
      "channel": 0,
      "note": 38,
      "start": 59.7767,
      "duration": 0.0161,
      "velocity": 115,
      "chip": "ym2612"
    },
    {
      "channel": 5,
      "note": 85,
      "start": 59.7779,
      "duration": 0.0161,
      "velocity": 98,
      "chip": "ym2612"
    },
    {
      "channel": 4,
      "note": 86,
      "start": 59.779,
      "duration": 0.0161,
      "velocity": 86,
      "chip": "ym2612"
    },
    {
      "channel": 3,
      "note": 86,
      "start": 59.7802,
      "duration": 0.0161,
      "velocity": 86,
      "chip": "ym2612"
    },
    {
      "channel": 2,
      "note": 52,
      "start": 59.7814,
      "duration": 0.0161,
      "velocity": 93,
      "chip": "ym2612"
    },
    {
      "channel": 1,
      "note": 80,
      "start": 59.7826,
      "duration": 0.0161,
      "velocity": 98,
      "chip": "ym2612"
    },
    {
      "channel": 0,
      "note": 39,
      "start": 59.7928,
      "duration": 0.0161,
      "velocity": 115,
      "chip": "ym2612"
    },
    {
      "channel": 5,
      "note": 85,
      "start": 59.794,
      "duration": 0.0161,
      "velocity": 98,
      "chip": "ym2612"
    },
    {
      "channel": 4,
      "note": 86,
      "start": 59.7951,
      "duration": 0.0161,
      "velocity": 86,
      "chip": "ym2612"
    },
    {
      "channel": 3,
      "note": 86,
      "start": 59.7963,
      "duration": 0.0161,
      "velocity": 86,
      "chip": "ym2612"
    },
    {
      "channel": 2,
      "note": 52,
      "start": 59.7975,
      "duration": 0.0161,
      "velocity": 93,
      "chip": "ym2612"
    },
    {
      "channel": 1,
      "note": 80,
      "start": 59.7987,
      "duration": 0.0161,
      "velocity": 98,
      "chip": "ym2612"
    },
    {
      "channel": 0,
      "note": 39,
      "start": 59.8089,
      "duration": 0.0161,
      "velocity": 115,
      "chip": "ym2612"
    },
    {
      "channel": 5,
      "note": 85,
      "start": 59.8101,
      "duration": 0.0161,
      "velocity": 98,
      "chip": "ym2612"
    },
    {
      "channel": 4,
      "note": 86,
      "start": 59.8112,
      "duration": 0.0161,
      "velocity": 86,
      "chip": "ym2612"
    },
    {
      "channel": 3,
      "note": 86,
      "start": 59.8124,
      "duration": 0.0161,
      "velocity": 86,
      "chip": "ym2612"
    },
    {
      "channel": 2,
      "note": 52,
      "start": 59.8136,
      "duration": 0.0161,
      "velocity": 93,
      "chip": "ym2612"
    },
    {
      "channel": 1,
      "note": 80,
      "start": 59.8148,
      "duration": 0.0161,
      "velocity": 98,
      "chip": "ym2612"
    },
    {
      "channel": 0,
      "note": 40,
      "start": 59.825,
      "duration": 0.0162,
      "velocity": 115,
      "chip": "ym2612"
    },
    {
      "channel": 5,
      "note": 85,
      "start": 59.8262,
      "duration": 0.0161,
      "velocity": 98,
      "chip": "ym2612"
    },
    {
      "channel": 4,
      "note": 86,
      "start": 59.8273,
      "duration": 0.0161,
      "velocity": 86,
      "chip": "ym2612"
    },
    {
      "channel": 3,
      "note": 86,
      "start": 59.8285,
      "duration": 0.0161,
      "velocity": 86,
      "chip": "ym2612"
    },
    {
      "channel": 2,
      "note": 52,
      "start": 59.8297,
      "duration": 0.0162,
      "velocity": 93,
      "chip": "ym2612"
    },
    {
      "channel": 1,
      "note": 80,
      "start": 59.8309,
      "duration": 0.0162,
      "velocity": 98,
      "chip": "ym2612"
    },
    {
      "channel": 0,
      "note": 40,
      "start": 59.8411,
      "duration": 0.0161,
      "velocity": 115,
      "chip": "ym2612"
    },
    {
      "channel": 5,
      "note": 85,
      "start": 59.8423,
      "duration": 0.0161,
      "velocity": 98,
      "chip": "ym2612"
    },
    {
      "channel": 4,
      "note": 86,
      "start": 59.8434,
      "duration": 0.0161,
      "velocity": 86,
      "chip": "ym2612"
    },
    {
      "channel": 3,
      "note": 86,
      "start": 59.8446,
      "duration": 0.0162,
      "velocity": 86,
      "chip": "ym2612"
    },
    {
      "channel": 2,
      "note": 52,
      "start": 59.8459,
      "duration": 0.0161,
      "velocity": 93,
      "chip": "ym2612"
    },
    {
      "channel": 1,
      "note": 80,
      "start": 59.8471,
      "duration": 0.0161,
      "velocity": 98,
      "chip": "ym2612"
    },
    {
      "channel": 0,
      "note": 40,
      "start": 59.8572,
      "duration": 0.0161,
      "velocity": 115,
      "chip": "ym2612"
    },
    {
      "channel": 4,
      "note": 86,
      "start": 59.8596,
      "duration": 0.0163,
      "velocity": 86,
      "chip": "ym2612"
    },
    {
      "channel": 3,
      "note": 86,
      "start": 59.8608,
      "duration": 0.0163,
      "velocity": 86,
      "chip": "ym2612"
    },
    {
      "channel": 2,
      "note": 52,
      "start": 59.862,
      "duration": 0.0164,
      "velocity": 93,
      "chip": "ym2612"
    },
    {
      "channel": 1,
      "note": 80,
      "start": 59.8631,
      "duration": 0.0164,
      "velocity": 98,
      "chip": "ym2612"
    },
    {
      "channel": 0,
      "note": 41,
      "start": 59.8733,
      "duration": 0.0179,
      "velocity": 115,
      "chip": "ym2612"
    },
    {
      "channel": 5,
      "note": 83,
      "start": 59.8748,
      "duration": 0.0177,
      "velocity": 98,
      "chip": "ym2612"
    },
    {
      "channel": 4,
      "note": 86,
      "start": 59.8759,
      "duration": 0.0178,
      "velocity": 86,
      "chip": "ym2612"
    },
    {
      "channel": 2,
      "note": 52,
      "start": 59.8784,
      "duration": 0.0179,
      "velocity": 93,
      "chip": "ym2612"
    },
    {
      "channel": 1,
      "note": 80,
      "start": 59.8795,
      "duration": 0.0179,
      "velocity": 98,
      "chip": "ym2612"
    },
    {
      "channel": 0,
      "note": 36,
      "start": 59.8912,
      "duration": 0.0143,
      "velocity": 115,
      "chip": "ym2612"
    },
    {
      "channel": 5,
      "note": 83,
      "start": 59.8925,
      "duration": 0.0142,
      "velocity": 98,
      "chip": "ym2612"
    },
    {
      "channel": 4,
      "note": 86,
      "start": 59.8937,
      "duration": 0.0142,
      "velocity": 86,
      "chip": "ym2612"
    },
    {
      "channel": 3,
      "note": 76,
      "start": 59.8951,
      "duration": 0.014,
      "velocity": 86,
      "chip": "ym2612"
    },
    {
      "channel": 2,
      "note": 52,
      "start": 59.8963,
      "duration": 0.0141,
      "velocity": 93,
      "chip": "ym2612"
    },
    {
      "channel": 1,
      "note": 80,
      "start": 59.8975,
      "duration": 0.014,
      "velocity": 98,
      "chip": "ym2612"
    },
    {
      "channel": 0,
      "note": 36,
      "start": 59.9056,
      "duration": 0.016,
      "velocity": 115,
      "chip": "ym2612"
    },
    {
      "channel": 4,
      "note": 86,
      "start": 59.9079,
      "duration": 0.0163,
      "velocity": 86,
      "chip": "ym2612"
    },
    {
      "channel": 3,
      "note": 76,
      "start": 59.9092,
      "duration": 0.0162,
      "velocity": 86,
      "chip": "ym2612"
    },
    {
      "channel": 2,
      "note": 52,
      "start": 59.9103,
      "duration": 0.0163,
      "velocity": 93,
      "chip": "ym2612"
    },
    {
      "channel": 1,
      "note": 80,
      "start": 59.9115,
      "duration": 0.0163,
      "velocity": 98,
      "chip": "ym2612"
    },
    {
      "channel": 0,
      "note": 37,
      "start": 59.9216,
      "duration": 0.0161,
      "velocity": 115,
      "chip": "ym2612"
    },
    {
      "channel": 5,
      "note": 82,
      "start": 59.9231,
      "duration": 0.0159,
      "velocity": 98,
      "chip": "ym2612"
    },
    {
      "channel": 3,
      "note": 76,
      "start": 59.9254,
      "duration": 0.0162,
      "velocity": 86,
      "chip": "ym2612"
    },
    {
      "channel": 2,
      "note": 52,
      "start": 59.9266,
      "duration": 0.0162,
      "velocity": 93,
      "chip": "ym2612"
    },
    {
      "channel": 1,
      "note": 80,
      "start": 59.9278,
      "duration": 0.0161,
      "velocity": 98,
      "chip": "ym2612"
    },
    {
      "channel": 0,
      "note": 37,
      "start": 59.9377,
      "duration": 0.0162,
      "velocity": 115,
      "chip": "ym2612"
    },
    {
      "channel": 5,
      "note": 82,
      "start": 59.9389,
      "duration": 0.0161,
      "velocity": 98,
      "chip": "ym2612"
    },
    {
      "channel": 4,
      "note": 76,
      "start": 59.9404,
      "duration": 0.0158,
      "velocity": 86,
      "chip": "ym2612"
    },
    {
      "channel": 3,
      "note": 76,
      "start": 59.9416,
      "duration": 0.0159,
      "velocity": 86,
      "chip": "ym2612"
    },
    {
      "channel": 2,
      "note": 52,
      "start": 59.9428,
      "duration": 0.0159,
      "velocity": 93,
      "chip": "ym2612"
    },
    {
      "channel": 1,
      "note": 80,
      "start": 59.9439,
      "duration": 0.0159,
      "velocity": 98,
      "chip": "ym2612"
    },
    {
      "channel": 0,
      "note": 38,
      "start": 59.9539,
      "duration": 0.0163,
      "velocity": 115,
      "chip": "ym2612"
    },
    {
      "channel": 4,
      "note": 76,
      "start": 59.9563,
      "duration": 0.0166,
      "velocity": 86,
      "chip": "ym2612"
    },
    {
      "channel": 3,
      "note": 76,
      "start": 59.9575,
      "duration": 0.0165,
      "velocity": 86,
      "chip": "ym2612"
    },
    {
      "channel": 2,
      "note": 52,
      "start": 59.9587,
      "duration": 0.0165,
      "velocity": 93,
      "chip": "ym2612"
    },
    {
      "channel": 1,
      "note": 80,
      "start": 59.9598,
      "duration": 0.0165,
      "velocity": 98,
      "chip": "ym2612"
    },
    {
      "channel": 0,
      "note": 38,
      "start": 59.9702,
      "duration": 0.0181,
      "velocity": 124,
      "chip": "ym2612"
    },
    {
      "channel": 5,
      "note": 81,
      "start": 59.9717,
      "duration": 0.0179,
      "velocity": 98,
      "chip": "ym2612"
    },
    {
      "channel": 4,
      "note": 76,
      "start": 59.9728,
      "duration": 0.0179,
      "velocity": 86,
      "chip": "ym2612"
    },
    {
      "channel": 2,
      "note": 52,
      "start": 59.9752,
      "duration": 0.0185,
      "velocity": 93,
      "chip": "ym2612"
    },
    {
      "channel": 1,
      "note": 80,
      "start": 59.9764,
      "duration": 0.0185,
      "velocity": 98,
      "chip": "ym2612"
    },
    {
      "channel": 0,
      "note": 84,
      "start": 59.9884,
      "duration": 0.0144,
      "velocity": 124,
      "chip": "ym2612"
    },
    {
      "channel": 5,
      "note": 81,
      "start": 59.9896,
      "duration": 0.0143,
      "velocity": 98,
      "chip": "ym2612"
    },
    {
      "channel": 4,
      "note": 76,
      "start": 59.9907,
      "duration": 0.0144,
      "velocity": 86,
      "chip": "ym2612"
    },
    {
      "channel": 3,
      "note": 80,
      "start": 59.9923,
      "duration": 0.0141,
      "velocity": 86,
      "chip": "ym2612"
    },
    {
      "channel": 2,
      "note": 52,
      "start": 59.9937,
      "duration": 0.0139,
      "velocity": 93,
      "chip": "ym2612"
    },
    {
      "channel": 1,
      "note": 80,
      "start": 59.9949,
      "duration": 0.0139,
      "velocity": 98,
      "chip": "ym2612"
    },
    {
      "channel": 0,
      "note": 82,
      "start": 60.0028,
      "duration": 0.016,
      "velocity": 124,
      "chip": "ym2612"
    },
    {
      "channel": 4,
      "note": 76,
      "start": 60.0051,
      "duration": 0.0164,
      "velocity": 86,
      "chip": "ym2612"
    },
    {
      "channel": 3,
      "note": 80,
      "start": 60.0063,
      "duration": 0.0164,
      "velocity": 86,
      "chip": "ym2612"
    },
    {
      "channel": 2,
      "note": 52,
      "start": 60.0076,
      "duration": 0.0163,
      "velocity": 93,
      "chip": "ym2612"
    },
    {
      "channel": 1,
      "note": 80,
      "start": 60.0088,
      "duration": 0.0163,
      "velocity": 98,
      "chip": "ym2612"
    },
    {
      "channel": 0,
      "note": 80,
      "start": 60.0188,
      "duration": 0.016,
      "velocity": 124,
      "chip": "ym2612"
    },
    {
      "channel": 5,
      "note": 80,
      "start": 60.0204,
      "duration": 0.0158,
      "velocity": 98,
      "chip": "ym2612"
    },
    {
      "channel": 3,
      "note": 80,
      "start": 60.0227,
      "duration": 0.016,
      "velocity": 86,
      "chip": "ym2612"
    },
    {
      "channel": 2,
      "note": 52,
      "start": 60.0239,
      "duration": 0.016,
      "velocity": 93,
      "chip": "ym2612"
    },
    {
      "channel": 1,
      "note": 80,
      "start": 60.0251,
      "duration": 0.016,
      "velocity": 98,
      "chip": "ym2612"
    },
    {
      "channel": 0,
      "note": 77,
      "start": 60.0348,
      "duration": 0.0156,
      "velocity": 124,
      "chip": "ym2612"
    },
    {
      "channel": 5,
      "note": 80,
      "start": 60.0362,
      "duration": 0.016,
      "velocity": 98,
      "chip": "ym2612"
    },
    {
      "channel": 4,
      "note": 80,
      "start": 60.0376,
      "duration": 0.0158,
      "velocity": 86,
      "chip": "ym2612"
    },
    {
      "channel": 3,
      "note": 80,
      "start": 60.0388,
      "duration": 0.0158,
      "velocity": 86,
      "chip": "ym2612"
    },
    {
      "channel": 2,
      "note": 52,
      "start": 60.0399,
      "duration": 0.0158,
      "velocity": 93,
      "chip": "ym2612"
    },
    {
      "channel": 1,
      "note": 80,
      "start": 60.0411,
      "duration": 0.0158,
      "velocity": 98,
      "chip": "ym2612"
    },
    {
      "channel": 0,
      "note": 75,
      "start": 60.0504,
      "duration": 0.0161,
      "velocity": 124,
      "chip": "ym2612"
    },
    {
      "channel": 5,
      "note": 80,
      "start": 60.0522,
      "duration": 0.016,
      "velocity": 98,
      "chip": "ym2612"
    },
    {
      "channel": 4,
      "note": 80,
      "start": 60.0534,
      "duration": 0.016,
      "velocity": 86,
      "chip": "ym2612"
    },
    {
      "channel": 3,
      "note": 80,
      "start": 60.0546,
      "duration": 0.0161,
      "velocity": 86,
      "chip": "ym2612"
    },
    {
      "channel": 2,
      "note": 52,
      "start": 60.0557,
      "duration": 0.0161,
      "velocity": 93,
      "chip": "ym2612"
    },
    {
      "channel": 1,
      "note": 80,
      "start": 60.0569,
      "duration": 0.016,
      "velocity": 98,
      "chip": "ym2612"
    },
    {
      "channel": 0,
      "note": 72,
      "start": 60.0665,
      "duration": 0.0161,
      "velocity": 124,
      "chip": "ym2612"
    },
    {
      "channel": 5,
      "note": 80,
      "start": 60.0682,
      "duration": 0.0156,
      "velocity": 98,
      "chip": "ym2612"
    },
    {
      "channel": 4,
      "note": 80,
      "start": 60.0694,
      "duration": 0.0161,
      "velocity": 86,
      "chip": "ym2612"
    },
    {
      "channel": 3,
      "note": 80,
      "start": 60.0706,
      "duration": 0.0161,
      "velocity": 86,
      "chip": "ym2612"
    },
    {
      "channel": 2,
      "note": 52,
      "start": 60.0718,
      "duration": 0.0161,
      "velocity": 93,
      "chip": "ym2612"
    },
    {
      "channel": 1,
      "note": 80,
      "start": 60.0729,
      "duration": 0.0162,
      "velocity": 98,
      "chip": "ym2612"
    },
    {
      "channel": 0,
      "note": 70,
      "start": 60.0826,
      "duration": 0.0161,
      "velocity": 124,
      "chip": "ym2612"
    },
    {
      "channel": 5,
      "note": 80,
      "start": 60.0838,
      "duration": 0.0161,
      "velocity": 98,
      "chip": "ym2612"
    },
    {
      "channel": 4,
      "note": 80,
      "start": 60.0855,
      "duration": 0.0161,
      "velocity": 86,
      "chip": "ym2612"
    },
    {
      "channel": 3,
      "note": 80,
      "start": 60.0867,
      "duration": 0.0161,
      "velocity": 86,
      "chip": "ym2612"
    },
    {
      "channel": 2,
      "note": 52,
      "start": 60.0879,
      "duration": 0.0161,
      "velocity": 93,
      "chip": "ym2612"
    },
    {
      "channel": 1,
      "note": 80,
      "start": 60.0891,
      "duration": 0.0161,
      "velocity": 98,
      "chip": "ym2612"
    },
    {
      "channel": 0,
      "note": 68,
      "start": 60.0987,
      "duration": 0.0161,
      "velocity": 124,
      "chip": "ym2612"
    },
    {
      "channel": 5,
      "note": 80,
      "start": 60.0999,
      "duration": 0.0161,
      "velocity": 98,
      "chip": "ym2612"
    },
    {
      "channel": 4,
      "note": 80,
      "start": 60.1016,
      "duration": 0.0155,
      "velocity": 86,
      "chip": "ym2612"
    },
    {
      "channel": 3,
      "note": 80,
      "start": 60.1028,
      "duration": 0.016,
      "velocity": 86,
      "chip": "ym2612"
    },
    {
      "channel": 2,
      "note": 52,
      "start": 60.104,
      "duration": 0.0161,
      "velocity": 93,
      "chip": "ym2612"
    },
    {
      "channel": 1,
      "note": 80,
      "start": 60.1052,
      "duration": 0.0161,
      "velocity": 98,
      "chip": "ym2612"
    },
    {
      "channel": 0,
      "note": 65,
      "start": 60.1148,
      "duration": 0.0161,
      "velocity": 124,
      "chip": "ym2612"
    },
    {
      "channel": 5,
      "note": 80,
      "start": 60.116,
      "duration": 0.0161,
      "velocity": 98,
      "chip": "ym2612"
    },
    {
      "channel": 4,
      "note": 80,
      "start": 60.1171,
      "duration": 0.0161,
      "velocity": 86,
      "chip": "ym2612"
    },
    {
      "channel": 3,
      "note": 80,
      "start": 60.1189,
      "duration": 0.0161,
      "velocity": 86,
      "chip": "ym2612"
    },
    {
      "channel": 2,
      "note": 52,
      "start": 60.1201,
      "duration": 0.0162,
      "velocity": 93,
      "chip": "ym2612"
    },
    {
      "channel": 1,
      "note": 80,
      "start": 60.1213,
      "duration": 0.0161,
      "velocity": 98,
      "chip": "ym2612"
    },
    {
      "channel": 0,
      "note": 63,
      "start": 60.1309,
      "duration": 0.0153,
      "velocity": 1,
      "chip": "ym2612"
    },
    {
      "channel": 5,
      "note": 80,
      "start": 60.1321,
      "duration": 0.0153,
      "velocity": 98,
      "chip": "ym2612"
    },
    {
      "channel": 4,
      "note": 80,
      "start": 60.1332,
      "duration": 0.0153,
      "velocity": 86,
      "chip": "ym2612"
    },
    {
      "channel": 3,
      "note": 80,
      "start": 60.135,
      "duration": 0.0147,
      "velocity": 86,
      "chip": "ym2612"
    },
    {
      "channel": 2,
      "note": 52,
      "start": 60.1363,
      "duration": 0.0152,
      "velocity": 93,
      "chip": "ym2612"
    },
    {
      "channel": 1,
      "note": 80,
      "start": 60.1374,
      "duration": 0.0153,
      "velocity": 98,
      "chip": "ym2612"
    },
    {
      "channel": 5,
      "note": 80,
      "start": 60.1474,
      "duration": 0.0153,
      "velocity": 98,
      "chip": "ym2612"
    },
    {
      "channel": 4,
      "note": 80,
      "start": 60.1486,
      "duration": 0.0152,
      "velocity": 86,
      "chip": "ym2612"
    },
    {
      "channel": 3,
      "note": 80,
      "start": 60.1497,
      "duration": 0.0153,
      "velocity": 86,
      "chip": "ym2612"
    },
    {
      "channel": 2,
      "note": 52,
      "start": 60.1515,
      "duration": 0.0148,
      "velocity": 93,
      "chip": "ym2612"
    },
    {
      "channel": 1,
      "note": 80,
      "start": 60.1527,
      "duration": 0.0149,
      "velocity": 98,
      "chip": "ym2612"
    },
    {
      "channel": 5,
      "note": 80,
      "start": 60.1626,
      "duration": 0.0161,
      "velocity": 98,
      "chip": "ym2612"
    },
    {
      "channel": 4,
      "note": 80,
      "start": 60.1638,
      "duration": 0.0161,
      "velocity": 86,
      "chip": "ym2612"
    },
    {
      "channel": 2,
      "note": 52,
      "start": 60.1663,
      "duration": 0.0163,
      "velocity": 93,
      "chip": "ym2612"
    },
    {
      "channel": 1,
      "note": 80,
      "start": 60.1676,
      "duration": 0.0161,
      "velocity": 98,
      "chip": "ym2612"
    },
    {
      "channel": 5,
      "note": 80,
      "start": 60.1787,
      "duration": 0.0161,
      "velocity": 98,
      "chip": "ym2612"
    },
    {
      "channel": 4,
      "note": 80,
      "start": 60.1799,
      "duration": 0.0162,
      "velocity": 86,
      "chip": "ym2612"
    },
    {
      "channel": 3,
      "note": 86,
      "start": 60.1814,
      "duration": 0.0158,
      "velocity": 86,
      "chip": "ym2612"
    },
    {
      "channel": 2,
      "note": 52,
      "start": 60.1825,
      "duration": 0.0159,
      "velocity": 93,
      "chip": "ym2612"
    },
    {
      "channel": 1,
      "note": 80,
      "start": 60.1837,
      "duration": 0.0159,
      "velocity": 98,
      "chip": "ym2612"
    },
    {
      "channel": 5,
      "note": 80,
      "start": 60.1948,
      "duration": 0.0161,
      "velocity": 98,
      "chip": "ym2612"
    },
    {
      "channel": 4,
      "note": 80,
      "start": 60.196,
      "duration": 0.0161,
      "velocity": 86,
      "chip": "ym2612"
    },
    {
      "channel": 3,
      "note": 86,
      "start": 60.1972,
      "duration": 0.016,
      "velocity": 86,
      "chip": "ym2612"
    },
    {
      "channel": 2,
      "note": 52,
      "start": 60.1984,
      "duration": 0.0161,
      "velocity": 93,
      "chip": "ym2612"
    },
    {
      "channel": 1,
      "note": 80,
      "start": 60.1996,
      "duration": 0.016,
      "velocity": 98,
      "chip": "ym2612"
    },
    {
      "channel": 5,
      "note": 80,
      "start": 60.2109,
      "duration": 0.0161,
      "velocity": 98,
      "chip": "ym2612"
    },
    {
      "channel": 3,
      "note": 86,
      "start": 60.2133,
      "duration": 0.0164,
      "velocity": 86,
      "chip": "ym2612"
    },
    {
      "channel": 2,
      "note": 52,
      "start": 60.2145,
      "duration": 0.0164,
      "velocity": 93,
      "chip": "ym2612"
    },
    {
      "channel": 1,
      "note": 80,
      "start": 60.2156,
      "duration": 0.0164,
      "velocity": 98,
      "chip": "ym2612"
    },
    {
      "channel": 5,
      "note": 80,
      "start": 60.227,
      "duration": 0.0161,
      "velocity": 98,
      "chip": "ym2612"
    },
    {
      "channel": 4,
      "note": 86,
      "start": 60.2285,
      "duration": 0.0158,
      "velocity": 86,
      "chip": "ym2612"
    },
    {
      "channel": 3,
      "note": 86,
      "start": 60.2297,
      "duration": 0.0158,
      "velocity": 86,
      "chip": "ym2612"
    },
    {
      "channel": 2,
      "note": 52,
      "start": 60.2309,
      "duration": 0.0159,
      "velocity": 93,
      "chip": "ym2612"
    },
    {
      "channel": 1,
      "note": 80,
      "start": 60.232,
      "duration": 0.0158,
      "velocity": 98,
      "chip": "ym2612"
    },
    {
      "channel": 5,
      "note": 80,
      "start": 60.2431,
      "duration": 0.0161,
      "velocity": 98,
      "chip": "ym2612"
    },
    {
      "channel": 4,
      "note": 86,
      "start": 60.2443,
      "duration": 0.0161,
      "velocity": 86,
      "chip": "ym2612"
    },
    {
      "channel": 3,
      "note": 86,
      "start": 60.2455,
      "duration": 0.016,
      "velocity": 86,
      "chip": "ym2612"
    },
    {
      "channel": 2,
      "note": 52,
      "start": 60.2467,
      "duration": 0.0161,
      "velocity": 93,
      "chip": "ym2612"
    },
    {
      "channel": 1,
      "note": 80,
      "start": 60.2479,
      "duration": 0.0161,
      "velocity": 98,
      "chip": "ym2612"
    },
    {
      "channel": 5,
      "note": 80,
      "start": 60.2592,
      "duration": 0.0197,
      "velocity": 98,
      "chip": "ym2612"
    },
    {
      "channel": 4,
      "note": 86,
      "start": 60.2604,
      "duration": 0.0196,
      "velocity": 86,
      "chip": "ym2612"
    },
    {
      "channel": 3,
      "note": 86,
      "start": 60.2615,
      "duration": 0.0197,
      "velocity": 86,
      "chip": "ym2612"
    },
    {
      "channel": 2,
      "note": 52,
      "start": 60.2628,
      "duration": 0.0198,
      "velocity": 93,
      "chip": "ym2612"
    },
    {
      "channel": 1,
      "note": 80,
      "start": 60.264,
      "duration": 0.0198,
      "velocity": 98,
      "chip": "ym2612"
    },
    {
      "channel": 0,
      "note": 36,
      "start": 60.2777,
      "duration": 0.0143,
      "velocity": 115,
      "chip": "ym2612"
    },
    {
      "channel": 5,
      "note": 80,
      "start": 60.2788,
      "duration": 0.0143,
      "velocity": 98,
      "chip": "ym2612"
    },
    {
      "channel": 4,
      "note": 86,
      "start": 60.28,
      "duration": 0.0143,
      "velocity": 86,
      "chip": "ym2612"
    },
    {
      "channel": 3,
      "note": 86,
      "start": 60.2812,
      "duration": 0.0143,
      "velocity": 86,
      "chip": "ym2612"
    },
    {
      "channel": 2,
      "note": 57,
      "start": 60.2827,
      "duration": 0.0141,
      "velocity": 93,
      "chip": "ym2612"
    },
    {
      "channel": 1,
      "note": 80,
      "start": 60.2838,
      "duration": 0.0141,
      "velocity": 98,
      "chip": "ym2612"
    },
    {
      "channel": 0,
      "note": 36,
      "start": 60.292,
      "duration": 0.016,
      "velocity": 115,
      "chip": "ym2612"
    },
    {
      "channel": 5,
      "note": 80,
      "start": 60.2932,
      "duration": 0.016,
      "velocity": 98,
      "chip": "ym2612"
    },
    {
      "channel": 4,
      "note": 86,
      "start": 60.2943,
      "duration": 0.016,
      "velocity": 86,
      "chip": "ym2612"
    },
    {
      "channel": 3,
      "note": 86,
      "start": 60.2955,
      "duration": 0.016,
      "velocity": 86,
      "chip": "ym2612"
    },
    {
      "channel": 2,
      "note": 57,
      "start": 60.2967,
      "duration": 0.016,
      "velocity": 93,
      "chip": "ym2612"
    },
    {
      "channel": 1,
      "note": 80,
      "start": 60.2979,
      "duration": 0.0159,
      "velocity": 98,
      "chip": "ym2612"
    },
    {
      "channel": 0,
      "note": 37,
      "start": 60.308,
      "duration": 0.0161,
      "velocity": 115,
      "chip": "ym2612"
    },
    {
      "channel": 5,
      "note": 80,
      "start": 60.3092,
      "duration": 0.0161,
      "velocity": 98,
      "chip": "ym2612"
    },
    {
      "channel": 4,
      "note": 86,
      "start": 60.3103,
      "duration": 0.0162,
      "velocity": 86,
      "chip": "ym2612"
    },
    {
      "channel": 3,
      "note": 86,
      "start": 60.3115,
      "duration": 0.0161,
      "velocity": 86,
      "chip": "ym2612"
    },
    {
      "channel": 2,
      "note": 57,
      "start": 60.3127,
      "duration": 0.0161,
      "velocity": 93,
      "chip": "ym2612"
    },
    {
      "channel": 1,
      "note": 80,
      "start": 60.3138,
      "duration": 0.0162,
      "velocity": 98,
      "chip": "ym2612"
    },
    {
      "channel": 0,
      "note": 37,
      "start": 60.3241,
      "duration": 0.0161,
      "velocity": 115,
      "chip": "ym2612"
    },
    {
      "channel": 5,
      "note": 80,
      "start": 60.3253,
      "duration": 0.0161,
      "velocity": 98,
      "chip": "ym2612"
    },
    {
      "channel": 4,
      "note": 86,
      "start": 60.3265,
      "duration": 0.0161,
      "velocity": 86,
      "chip": "ym2612"
    },
    {
      "channel": 3,
      "note": 86,
      "start": 60.3276,
      "duration": 0.0161,
      "velocity": 86,
      "chip": "ym2612"
    },
    {
      "channel": 2,
      "note": 57,
      "start": 60.3288,
      "duration": 0.0161,
      "velocity": 93,
      "chip": "ym2612"
    },
    {
      "channel": 1,
      "note": 80,
      "start": 60.33,
      "duration": 0.0161,
      "velocity": 98,
      "chip": "ym2612"
    },
    {
      "channel": 0,
      "note": 38,
      "start": 60.3402,
      "duration": 0.0161,
      "velocity": 115,
      "chip": "ym2612"
    },
    {
      "channel": 5,
      "note": 80,
      "start": 60.3414,
      "duration": 0.0162,
      "velocity": 98,
      "chip": "ym2612"
    },
    {
      "channel": 4,
      "note": 86,
      "start": 60.3426,
      "duration": 0.0161,
      "velocity": 86,
      "chip": "ym2612"
    },
    {
      "channel": 3,
      "note": 86,
      "start": 60.3437,
      "duration": 0.0161,
      "velocity": 86,
      "chip": "ym2612"
    },
    {
      "channel": 2,
      "note": 57,
      "start": 60.3449,
      "duration": 0.0161,
      "velocity": 93,
      "chip": "ym2612"
    },
    {
      "channel": 1,
      "note": 80,
      "start": 60.3461,
      "duration": 0.0161,
      "velocity": 98,
      "chip": "ym2612"
    },
    {
      "channel": 0,
      "note": 38,
      "start": 60.3563,
      "duration": 0.0161,
      "velocity": 115,
      "chip": "ym2612"
    },
    {
      "channel": 5,
      "note": 80,
      "start": 60.3576,
      "duration": 0.0161,
      "velocity": 98,
      "chip": "ym2612"
    },
    {
      "channel": 4,
      "note": 86,
      "start": 60.3587,
      "duration": 0.0161,
      "velocity": 86,
      "chip": "ym2612"
    },
    {
      "channel": 3,
      "note": 86,
      "start": 60.3599,
      "duration": 0.0161,
      "velocity": 86,
      "chip": "ym2612"
    },
    {
      "channel": 2,
      "note": 57,
      "start": 60.361,
      "duration": 0.0161,
      "velocity": 93,
      "chip": "ym2612"
    },
    {
      "channel": 1,
      "note": 80,
      "start": 60.3622,
      "duration": 0.0161,
      "velocity": 98,
      "chip": "ym2612"
    },
    {
      "channel": 0,
      "note": 39,
      "start": 60.3724,
      "duration": 0.0161,
      "velocity": 115,
      "chip": "ym2612"
    },
    {
      "channel": 5,
      "note": 80,
      "start": 60.3736,
      "duration": 0.0161,
      "velocity": 98,
      "chip": "ym2612"
    },
    {
      "channel": 4,
      "note": 86,
      "start": 60.3748,
      "duration": 0.0161,
      "velocity": 86,
      "chip": "ym2612"
    },
    {
      "channel": 3,
      "note": 86,
      "start": 60.376,
      "duration": 0.0161,
      "velocity": 86,
      "chip": "ym2612"
    },
    {
      "channel": 2,
      "note": 57,
      "start": 60.3771,
      "duration": 0.0161,
      "velocity": 93,
      "chip": "ym2612"
    },
    {
      "channel": 1,
      "note": 80,
      "start": 60.3783,
      "duration": 0.0161,
      "velocity": 98,
      "chip": "ym2612"
    },
    {
      "channel": 0,
      "note": 39,
      "start": 60.3885,
      "duration": 0.0161,
      "velocity": 115,
      "chip": "ym2612"
    },
    {
      "channel": 5,
      "note": 80,
      "start": 60.3897,
      "duration": 0.0161,
      "velocity": 98,
      "chip": "ym2612"
    },
    {
      "channel": 4,
      "note": 86,
      "start": 60.3909,
      "duration": 0.0161,
      "velocity": 86,
      "chip": "ym2612"
    },
    {
      "channel": 3,
      "note": 86,
      "start": 60.3921,
      "duration": 0.0161,
      "velocity": 86,
      "chip": "ym2612"
    },
    {
      "channel": 2,
      "note": 57,
      "start": 60.3932,
      "duration": 0.0161,
      "velocity": 93,
      "chip": "ym2612"
    },
    {
      "channel": 1,
      "note": 80,
      "start": 60.3944,
      "duration": 0.0161,
      "velocity": 98,
      "chip": "ym2612"
    },
    {
      "channel": 0,
      "note": 40,
      "start": 60.4046,
      "duration": 0.0161,
      "velocity": 115,
      "chip": "ym2612"
    },
    {
      "channel": 5,
      "note": 80,
      "start": 60.4058,
      "duration": 0.0161,
      "velocity": 98,
      "chip": "ym2612"
    },
    {
      "channel": 4,
      "note": 86,
      "start": 60.407,
      "duration": 0.0162,
      "velocity": 86,
      "chip": "ym2612"
    },
    {
      "channel": 3,
      "note": 86,
      "start": 60.4082,
      "duration": 0.0161,
      "velocity": 86,
      "chip": "ym2612"
    },
    {
      "channel": 2,
      "note": 57,
      "start": 60.4093,
      "duration": 0.0163,
      "velocity": 93,
      "chip": "ym2612"
    },
    {
      "channel": 1,
      "note": 80,
      "start": 60.4105,
      "duration": 0.0162,
      "velocity": 98,
      "chip": "ym2612"
    },
    {
      "channel": 0,
      "note": 40,
      "start": 60.4208,
      "duration": 0.0161,
      "velocity": 115,
      "chip": "ym2612"
    },
    {
      "channel": 5,
      "note": 80,
      "start": 60.422,
      "duration": 0.0161,
      "velocity": 98,
      "chip": "ym2612"
    },
    {
      "channel": 4,
      "note": 86,
      "start": 60.4231,
      "duration": 0.0161,
      "velocity": 86,
      "chip": "ym2612"
    },
    {
      "channel": 3,
      "note": 86,
      "start": 60.4243,
      "duration": 0.0161,
      "velocity": 86,
      "chip": "ym2612"
    },
    {
      "channel": 2,
      "note": 57,
      "start": 60.4256,
      "duration": 0.016,
      "velocity": 93,
      "chip": "ym2612"
    },
    {
      "channel": 1,
      "note": 80,
      "start": 60.4268,
      "duration": 0.0161,
      "velocity": 98,
      "chip": "ym2612"
    },
    {
      "channel": 0,
      "note": 40,
      "start": 60.4369,
      "duration": 0.0165,
      "velocity": 115,
      "chip": "ym2612"
    },
    {
      "channel": 5,
      "note": 80,
      "start": 60.4381,
      "duration": 0.0164,
      "velocity": 98,
      "chip": "ym2612"
    },
    {
      "channel": 4,
      "note": 86,
      "start": 60.4392,
      "duration": 0.0165,
      "velocity": 86,
      "chip": "ym2612"
    },
    {
      "channel": 3,
      "note": 86,
      "start": 60.4404,
      "duration": 0.0165,
      "velocity": 86,
      "chip": "ym2612"
    },
    {
      "channel": 2,
      "note": 57,
      "start": 60.4416,
      "duration": 0.0165,
      "velocity": 93,
      "chip": "ym2612"
    },
    {
      "channel": 1,
      "note": 80,
      "start": 60.4429,
      "duration": 0.0164,
      "velocity": 98,
      "chip": "ym2612"
    },
    {
      "channel": 0,
      "note": 41,
      "start": 60.4533,
      "duration": 0.0163,
      "velocity": 115,
      "chip": "ym2612"
    },
    {
      "channel": 5,
      "note": 80,
      "start": 60.4545,
      "duration": 0.0163,
      "velocity": 98,
      "chip": "ym2612"
    },
    {
      "channel": 4,
      "note": 86,
      "start": 60.4557,
      "duration": 0.0163,
      "velocity": 86,
      "chip": "ym2612"
    },
    {
      "channel": 2,
      "note": 57,
      "start": 60.4581,
      "duration": 0.0165,
      "velocity": 93,
      "chip": "ym2612"
    },
    {
      "channel": 1,
      "note": 80,
      "start": 60.4593,
      "duration": 0.0166,
      "velocity": 98,
      "chip": "ym2612"
    },
    {
      "channel": 0,
      "note": 41,
      "start": 60.4696,
      "duration": 0.0161,
      "velocity": 115,
      "chip": "ym2612"
    },
    {
      "channel": 5,
      "note": 80,
      "start": 60.4708,
      "duration": 0.0162,
      "velocity": 98,
      "chip": "ym2612"
    },
    {
      "channel": 4,
      "note": 86,
      "start": 60.472,
      "duration": 0.0161,
      "velocity": 86,
      "chip": "ym2612"
    },
    {
      "channel": 3,
      "note": 76,
      "start": 60.4735,
      "duration": 0.0158,
      "velocity": 86,
      "chip": "ym2612"
    },
    {
      "channel": 2,
      "note": 57,
      "start": 60.4746,
      "duration": 0.0159,
      "velocity": 93,
      "chip": "ym2612"
    },
    {
      "channel": 1,
      "note": 80,
      "start": 60.4758,
      "duration": 0.0158,
      "velocity": 98,
      "chip": "ym2612"
    },
    {
      "channel": 0,
      "note": 42,
      "start": 60.4857,
      "duration": 0.016,
      "velocity": 115,
      "chip": "ym2612"
    },
    {
      "channel": 5,
      "note": 80,
      "start": 60.4869,
      "duration": 0.0161,
      "velocity": 98,
      "chip": "ym2612"
    },
    {
      "channel": 4,
      "note": 86,
      "start": 60.4881,
      "duration": 0.0161,
      "velocity": 86,
      "chip": "ym2612"
    },
    {
      "channel": 3,
      "note": 76,
      "start": 60.4893,
      "duration": 0.016,
      "velocity": 86,
      "chip": "ym2612"
    },
    {
      "channel": 2,
      "note": 57,
      "start": 60.4905,
      "duration": 0.016,
      "velocity": 93,
      "chip": "ym2612"
    },
    {
      "channel": 1,
      "note": 80,
      "start": 60.4916,
      "duration": 0.0161,
      "velocity": 98,
      "chip": "ym2612"
    },
    {
      "channel": 0,
      "note": 42,
      "start": 60.5017,
      "duration": 0.0159,
      "velocity": 115,
      "chip": "ym2612"
    },
    {
      "channel": 5,
      "note": 80,
      "start": 60.503,
      "duration": 0.0161,
      "velocity": 98,
      "chip": "ym2612"
    },
    {
      "channel": 3,
      "note": 76,
      "start": 60.5054,
      "duration": 0.0164,
      "velocity": 86,
      "chip": "ym2612"
    },
    {
      "channel": 2,
      "note": 57,
      "start": 60.5065,
      "duration": 0.0164,
      "velocity": 93,
      "chip": "ym2612"
    },
    {
      "channel": 1,
      "note": 80,
      "start": 60.5077,
      "duration": 0.0164,
      "velocity": 98,
      "chip": "ym2612"
    },
    {
      "channel": 0,
      "note": 43,
      "start": 60.5176,
      "duration": 0.0158,
      "velocity": 115,
      "chip": "ym2612"
    },
    {
      "channel": 5,
      "note": 80,
      "start": 60.5191,
      "duration": 0.016,
      "velocity": 98,
      "chip": "ym2612"
    },
    {
      "channel": 4,
      "note": 76,
      "start": 60.5206,
      "duration": 0.0158,
      "velocity": 86,
      "chip": "ym2612"
    },
    {
      "channel": 3,
      "note": 76,
      "start": 60.5218,
      "duration": 0.0158,
      "velocity": 86,
      "chip": "ym2612"
    },
    {
      "channel": 2,
      "note": 57,
      "start": 60.5229,
      "duration": 0.0159,
      "velocity": 93,
      "chip": "ym2612"
    },
    {
      "channel": 1,
      "note": 80,
      "start": 60.5241,
      "duration": 0.0159,
      "velocity": 98,
      "chip": "ym2612"
    },
    {
      "channel": 0,
      "note": 43,
      "start": 60.5334,
      "duration": 0.0161,
      "velocity": 115,
      "chip": "ym2612"
    },
    {
      "channel": 5,
      "note": 80,
      "start": 60.5351,
      "duration": 0.0158,
      "velocity": 98,
      "chip": "ym2612"
    },
    {
      "channel": 4,
      "note": 76,
      "start": 60.5364,
      "duration": 0.016,
      "velocity": 86,
      "chip": "ym2612"
    },
    {
      "channel": 3,
      "note": 76,
      "start": 60.5376,
      "duration": 0.016,
      "velocity": 86,
      "chip": "ym2612"
    },
    {
      "channel": 2,
      "note": 57,
      "start": 60.5388,
      "duration": 0.016,
      "velocity": 93,
      "chip": "ym2612"
    },
    {
      "channel": 1,
      "note": 80,
      "start": 60.54,
      "duration": 0.016,
      "velocity": 98,
      "chip": "ym2612"
    },
    {
      "channel": 0,
      "note": 44,
      "start": 60.5495,
      "duration": 0.0181,
      "velocity": 124,
      "chip": "ym2612"
    },
    {
      "channel": 5,
      "note": 80,
      "start": 60.5509,
      "duration": 0.0183,
      "velocity": 98,
      "chip": "ym2612"
    },
    {
      "channel": 4,
      "note": 76,
      "start": 60.5524,
      "duration": 0.018,
      "velocity": 86,
      "chip": "ym2612"
    },
    {
      "channel": 2,
      "note": 57,
      "start": 60.5549,
      "duration": 0.0184,
      "velocity": 93,
      "chip": "ym2612"
    },
    {
      "channel": 0,
      "note": 84,
      "start": 60.5677,
      "duration": 0.0141,
      "velocity": 124,
      "chip": "ym2612"
    },
    {
      "channel": 5,
      "note": 80,
      "start": 60.5693,
      "duration": 0.0137,
      "velocity": 98,
      "chip": "ym2612"
    },
    {
      "channel": 4,
      "note": 76,
      "start": 60.5705,
      "duration": 0.0139,
      "velocity": 86,
      "chip": "ym2612"
    },
    {
      "channel": 3,
      "note": 81,
      "start": 60.5719,
      "duration": 0.0141,
      "velocity": 86,
      "chip": "ym2612"
    },
    {
      "channel": 2,
      "note": 57,
      "start": 60.5734,
      "duration": 0.0138,
      "velocity": 93,
      "chip": "ym2612"
    },
    {
      "channel": 1,
      "note": 83,
      "start": 60.5749,
      "duration": 0.0135,
      "velocity": 98,
      "chip": "ym2612"
    },
    {
      "channel": 0,
      "note": 82,
      "start": 60.5818,
      "duration": 0.0161,
      "velocity": 124,
      "chip": "ym2612"
    },
    {
      "channel": 5,
      "note": 80,
      "start": 60.583,
      "duration": 0.016,
      "velocity": 98,
      "chip": "ym2612"
    },
    {
      "channel": 4,
      "note": 76,
      "start": 60.5843,
      "duration": 0.0158,
      "velocity": 86,
      "chip": "ym2612"
    },
    {
      "channel": 3,
      "note": 81,
      "start": 60.586,
      "duration": 0.0159,
      "velocity": 86,
      "chip": "ym2612"
    },
    {
      "channel": 2,
      "note": 57,
      "start": 60.5872,
      "duration": 0.016,
      "velocity": 93,
      "chip": "ym2612"
    },
    {
      "channel": 1,
      "note": 83,
      "start": 60.5884,
      "duration": 0.0159,
      "velocity": 98,
      "chip": "ym2612"
    },
    {
      "channel": 0,
      "note": 80,
      "start": 60.5979,
      "duration": 0.0161,
      "velocity": 124,
      "chip": "ym2612"
    },
    {
      "channel": 5,
      "note": 80,
      "start": 60.599,
      "duration": 0.0161,
      "velocity": 98,
      "chip": "ym2612"
    },
    {
      "channel": 3,
      "note": 81,
      "start": 60.6019,
      "duration": 0.0164,
      "velocity": 86,
      "chip": "ym2612"
    },
    {
      "channel": 2,
      "note": 57,
      "start": 60.6032,
      "duration": 0.0163,
      "velocity": 93,
      "chip": "ym2612"
    },
    {
      "channel": 1,
      "note": 83,
      "start": 60.6043,
      "duration": 0.0163,
      "velocity": 98,
      "chip": "ym2612"
    },
    {
      "channel": 0,
      "note": 77,
      "start": 60.614,
      "duration": 0.0161,
      "velocity": 124,
      "chip": "ym2612"
    },
    {
      "channel": 5,
      "note": 80,
      "start": 60.6151,
      "duration": 0.0161,
      "velocity": 98,
      "chip": "ym2612"
    },
    {
      "channel": 4,
      "note": 81,
      "start": 60.6166,
      "duration": 0.0159,
      "velocity": 86,
      "chip": "ym2612"
    },
    {
      "channel": 3,
      "note": 81,
      "start": 60.6183,
      "duration": 0.0153,
      "velocity": 86,
      "chip": "ym2612"
    },
    {
      "channel": 2,
      "note": 57,
      "start": 60.6195,
      "duration": 0.0158,
      "velocity": 93,
      "chip": "ym2612"
    },
    {
      "channel": 1,
      "note": 83,
      "start": 60.6206,
      "duration": 0.0159,
      "velocity": 98,
      "chip": "ym2612"
    },
    {
      "channel": 0,
      "note": 75,
      "start": 60.6301,
      "duration": 0.0161,
      "velocity": 124,
      "chip": "ym2612"
    },
    {
      "channel": 5,
      "note": 80,
      "start": 60.6312,
      "duration": 0.0161,
      "velocity": 98,
      "chip": "ym2612"
    },
    {
      "channel": 4,
      "note": 81,
      "start": 60.6325,
      "duration": 0.016,
      "velocity": 86,
      "chip": "ym2612"
    },
    {
      "channel": 3,
      "note": 81,
      "start": 60.6336,
      "duration": 0.016,
      "velocity": 86,
      "chip": "ym2612"
    },
    {
      "channel": 2,
      "note": 57,
      "start": 60.6353,
      "duration": 0.0157,
      "velocity": 93,
      "chip": "ym2612"
    },
    {
      "channel": 1,
      "note": 83,
      "start": 60.6366,
      "duration": 0.016,
      "velocity": 98,
      "chip": "ym2612"
    },
    {
      "channel": 0,
      "note": 72,
      "start": 60.6461,
      "duration": 0.0161,
      "velocity": 124,
      "chip": "ym2612"
    },
    {
      "channel": 5,
      "note": 80,
      "start": 60.6473,
      "duration": 0.0161,
      "velocity": 98,
      "chip": "ym2612"
    },
    {
      "channel": 4,
      "note": 81,
      "start": 60.6485,
      "duration": 0.0161,
      "velocity": 86,
      "chip": "ym2612"
    },
    {
      "channel": 3,
      "note": 81,
      "start": 60.6497,
      "duration": 0.0161,
      "velocity": 86,
      "chip": "ym2612"
    },
    {
      "channel": 2,
      "note": 57,
      "start": 60.651,
      "duration": 0.0159,
      "velocity": 93,
      "chip": "ym2612"
    },
    {
      "channel": 1,
      "note": 83,
      "start": 60.6525,
      "duration": 0.0161,
      "velocity": 98,
      "chip": "ym2612"
    },
    {
      "channel": 0,
      "note": 70,
      "start": 60.6622,
      "duration": 0.0161,
      "velocity": 124,
      "chip": "ym2612"
    },
    {
      "channel": 5,
      "note": 80,
      "start": 60.6634,
      "duration": 0.0161,
      "velocity": 98,
      "chip": "ym2612"
    },
    {
      "channel": 4,
      "note": 81,
      "start": 60.6646,
      "duration": 0.0161,
      "velocity": 86,
      "chip": "ym2612"
    },
    {
      "channel": 3,
      "note": 81,
      "start": 60.6658,
      "duration": 0.0161,
      "velocity": 86,
      "chip": "ym2612"
    },
    {
      "channel": 2,
      "note": 57,
      "start": 60.667,
      "duration": 0.0161,
      "velocity": 93,
      "chip": "ym2612"
    },
    {
      "channel": 1,
      "note": 83,
      "start": 60.6686,
      "duration": 0.0158,
      "velocity": 98,
      "chip": "ym2612"
    },
    {
      "channel": 0,
      "note": 68,
      "start": 60.6783,
      "duration": 0.0161,
      "velocity": 124,
      "chip": "ym2612"
    },
    {
      "channel": 5,
      "note": 80,
      "start": 60.6795,
      "duration": 0.0161,
      "velocity": 98,
      "chip": "ym2612"
    },
    {
      "channel": 4,
      "note": 81,
      "start": 60.6807,
      "duration": 0.0161,
      "velocity": 86,
      "chip": "ym2612"
    },
    {
      "channel": 3,
      "note": 81,
      "start": 60.6819,
      "duration": 0.0161,
      "velocity": 86,
      "chip": "ym2612"
    },
    {
      "channel": 2,
      "note": 57,
      "start": 60.6831,
      "duration": 0.0161,
      "velocity": 93,
      "chip": "ym2612"
    },
    {
      "channel": 1,
      "note": 83,
      "start": 60.6844,
      "duration": 0.0159,
      "velocity": 98,
      "chip": "ym2612"
    },
    {
      "channel": 0,
      "note": 65,
      "start": 60.6944,
      "duration": 0.0161,
      "velocity": 124,
      "chip": "ym2612"
    },
    {
      "channel": 5,
      "note": 80,
      "start": 60.6956,
      "duration": 0.0161,
      "velocity": 98,
      "chip": "ym2612"
    },
    {
      "channel": 4,
      "note": 81,
      "start": 60.6968,
      "duration": 0.0161,
      "velocity": 86,
      "chip": "ym2612"
    },
    {
      "channel": 3,
      "note": 81,
      "start": 60.698,
      "duration": 0.0161,
      "velocity": 86,
      "chip": "ym2612"
    },
    {
      "channel": 2,
      "note": 57,
      "start": 60.6991,
      "duration": 0.0162,
      "velocity": 93,
      "chip": "ym2612"
    },
    {
      "channel": 1,
      "note": 83,
      "start": 60.7003,
      "duration": 0.0162,
      "velocity": 98,
      "chip": "ym2612"
    },
    {
      "channel": 0,
      "note": 63,
      "start": 60.7105,
      "duration": 0.0153,
      "velocity": 1,
      "chip": "ym2612"
    },
    {
      "channel": 5,
      "note": 80,
      "start": 60.7117,
      "duration": 0.0153,
      "velocity": 98,
      "chip": "ym2612"
    },
    {
      "channel": 4,
      "note": 81,
      "start": 60.7129,
      "duration": 0.0153,
      "velocity": 86,
      "chip": "ym2612"
    },
    {
      "channel": 3,
      "note": 81,
      "start": 60.7141,
      "duration": 0.0153,
      "velocity": 86,
      "chip": "ym2612"
    },
    {
      "channel": 2,
      "note": 57,
      "start": 60.7154,
      "duration": 0.0152,
      "velocity": 93,
      "chip": "ym2612"
    },
    {
      "channel": 1,
      "note": 83,
      "start": 60.7165,
      "duration": 0.0153,
      "velocity": 98,
      "chip": "ym2612"
    },
    {
      "channel": 5,
      "note": 80,
      "start": 60.727,
      "duration": 0.0153,
      "velocity": 98,
      "chip": "ym2612"
    },
    {
      "channel": 4,
      "note": 81,
      "start": 60.7281,
      "duration": 0.0153,
      "velocity": 86,
      "chip": "ym2612"
    },
    {
      "channel": 3,
      "note": 81,
      "start": 60.7294,
      "duration": 0.0153,
      "velocity": 86,
      "chip": "ym2612"
    },
    {
      "channel": 2,
      "note": 57,
      "start": 60.7306,
      "duration": 0.0153,
      "velocity": 93,
      "chip": "ym2612"
    },
    {
      "channel": 1,
      "note": 83,
      "start": 60.7318,
      "duration": 0.0153,
      "velocity": 98,
      "chip": "ym2612"
    },
    {
      "channel": 5,
      "note": 80,
      "start": 60.7423,
      "duration": 0.0161,
      "velocity": 98,
      "chip": "ym2612"
    },
    {
      "channel": 4,
      "note": 81,
      "start": 60.7434,
      "duration": 0.0161,
      "velocity": 86,
      "chip": "ym2612"
    },
    {
      "channel": 2,
      "note": 57,
      "start": 60.7458,
      "duration": 0.0163,
      "velocity": 93,
      "chip": "ym2612"
    },
    {
      "channel": 1,
      "note": 83,
      "start": 60.7471,
      "duration": 0.0163,
      "velocity": 98,
      "chip": "ym2612"
    },
    {
      "channel": 5,
      "note": 80,
      "start": 60.7584,
      "duration": 0.0161,
      "velocity": 98,
      "chip": "ym2612"
    },
    {
      "channel": 4,
      "note": 81,
      "start": 60.7595,
      "duration": 0.0161,
      "velocity": 86,
      "chip": "ym2612"
    },
    {
      "channel": 3,
      "note": 85,
      "start": 60.761,
      "duration": 0.0158,
      "velocity": 86,
      "chip": "ym2612"
    },
    {
      "channel": 2,
      "note": 57,
      "start": 60.7622,
      "duration": 0.0159,
      "velocity": 93,
      "chip": "ym2612"
    },
    {
      "channel": 1,
      "note": 83,
      "start": 60.7634,
      "duration": 0.0158,
      "velocity": 98,
      "chip": "ym2612"
    },
    {
      "channel": 5,
      "note": 80,
      "start": 60.7745,
      "duration": 0.0161,
      "velocity": 98,
      "chip": "ym2612"
    },
    {
      "channel": 4,
      "note": 81,
      "start": 60.7756,
      "duration": 0.0162,
      "velocity": 86,
      "chip": "ym2612"
    },
    {
      "channel": 3,
      "note": 85,
      "start": 60.7769,
      "duration": 0.016,
      "velocity": 86,
      "chip": "ym2612"
    },
    {
      "channel": 2,
      "note": 57,
      "start": 60.778,
      "duration": 0.016,
      "velocity": 93,
      "chip": "ym2612"
    },
    {
      "channel": 1,
      "note": 83,
      "start": 60.7792,
      "duration": 0.0161,
      "velocity": 98,
      "chip": "ym2612"
    },
    {
      "channel": 5,
      "note": 80,
      "start": 60.7906,
      "duration": 0.0161,
      "velocity": 98,
      "chip": "ym2612"
    },
    {
      "channel": 3,
      "note": 85,
      "start": 60.7929,
      "duration": 0.0164,
      "velocity": 86,
      "chip": "ym2612"
    },
    {
      "channel": 2,
      "note": 57,
      "start": 60.7941,
      "duration": 0.0164,
      "velocity": 93,
      "chip": "ym2612"
    },
    {
      "channel": 1,
      "note": 83,
      "start": 60.7953,
      "duration": 0.0164,
      "velocity": 98,
      "chip": "ym2612"
    },
    {
      "channel": 5,
      "note": 80,
      "start": 60.8066,
      "duration": 0.0161,
      "velocity": 98,
      "chip": "ym2612"
    },
    {
      "channel": 4,
      "note": 85,
      "start": 60.8082,
      "duration": 0.0158,
      "velocity": 86,
      "chip": "ym2612"
    },
    {
      "channel": 3,
      "note": 85,
      "start": 60.8093,
      "duration": 0.0159,
      "velocity": 86,
      "chip": "ym2612"
    },
    {
      "channel": 2,
      "note": 57,
      "start": 60.8105,
      "duration": 0.0159,
      "velocity": 93,
      "chip": "ym2612"
    },
    {
      "channel": 1,
      "note": 83,
      "start": 60.8117,
      "duration": 0.0158,
      "velocity": 98,
      "chip": "ym2612"
    },
    {
      "channel": 5,
      "note": 80,
      "start": 60.8227,
      "duration": 0.0161,
      "velocity": 98,
      "chip": "ym2612"
    },
    {
      "channel": 4,
      "note": 85,
      "start": 60.8239,
      "duration": 0.0161,
      "velocity": 86,
      "chip": "ym2612"
    },
    {
      "channel": 3,
      "note": 85,
      "start": 60.8252,
      "duration": 0.016,
      "velocity": 86,
      "chip": "ym2612"
    },
    {
      "channel": 2,
      "note": 57,
      "start": 60.8264,
      "duration": 0.0161,
      "velocity": 93,
      "chip": "ym2612"
    },
    {
      "channel": 1,
      "note": 83,
      "start": 60.8275,
      "duration": 0.0161,
      "velocity": 98,
      "chip": "ym2612"
    },
    {
      "channel": 5,
      "note": 80,
      "start": 60.8388,
      "duration": 0.0197,
      "velocity": 98,
      "chip": "ym2612"
    },
    {
      "channel": 4,
      "note": 85,
      "start": 60.84,
      "duration": 0.0196,
      "velocity": 86,
      "chip": "ym2612"
    },
    {
      "channel": 3,
      "note": 85,
      "start": 60.8412,
      "duration": 0.0196,
      "velocity": 86,
      "chip": "ym2612"
    },
    {
      "channel": 2,
      "note": 57,
      "start": 60.8425,
      "duration": 0.0198,
      "velocity": 93,
      "chip": "ym2612"
    },
    {
      "channel": 0,
      "note": 36,
      "start": 60.8573,
      "duration": 0.0143,
      "velocity": 115,
      "chip": "ym2612"
    },
    {
      "channel": 5,
      "note": 80,
      "start": 60.8585,
      "duration": 0.0143,
      "velocity": 98,
      "chip": "ym2612"
    },
    {
      "channel": 4,
      "note": 85,
      "start": 60.8596,
      "duration": 0.0144,
      "velocity": 86,
      "chip": "ym2612"
    },
    {
      "channel": 3,
      "note": 85,
      "start": 60.8608,
      "duration": 0.0143,
      "velocity": 86,
      "chip": "ym2612"
    },
    {
      "channel": 2,
      "note": 57,
      "start": 60.8623,
      "duration": 0.0141,
      "velocity": 93,
      "chip": "ym2612"
    },
    {
      "channel": 1,
      "note": 73,
      "start": 60.8638,
      "duration": 0.0139,
      "velocity": 98,
      "chip": "ym2612"
    },
    {
      "channel": 0,
      "note": 36,
      "start": 60.8717,
      "duration": 0.016,
      "velocity": 115,
      "chip": "ym2612"
    },
    {
      "channel": 4,
      "note": 85,
      "start": 60.874,
      "duration": 0.0163,
      "velocity": 86,
      "chip": "ym2612"
    },
    {
      "channel": 3,
      "note": 85,
      "start": 60.8752,
      "duration": 0.0163,
      "velocity": 86,
      "chip": "ym2612"
    },
    {
      "channel": 2,
      "note": 57,
      "start": 60.8764,
      "duration": 0.0162,
      "velocity": 93,
      "chip": "ym2612"
    },
    {
      "channel": 1,
      "note": 73,
      "start": 60.8776,
      "duration": 0.0162,
      "velocity": 98,
      "chip": "ym2612"
    },
    {
      "channel": 0,
      "note": 37,
      "start": 60.8877,
      "duration": 0.0162,
      "velocity": 115,
      "chip": "ym2612"
    },
    {
      "channel": 5,
      "note": 83,
      "start": 60.8892,
      "duration": 0.0159,
      "velocity": 98,
      "chip": "ym2612"
    },
    {
      "channel": 4,
      "note": 85,
      "start": 60.8903,
      "duration": 0.0159,
      "velocity": 86,
      "chip": "ym2612"
    },
    {
      "channel": 3,
      "note": 85,
      "start": 60.8915,
      "duration": 0.016,
      "velocity": 86,
      "chip": "ym2612"
    },
    {
      "channel": 2,
      "note": 57,
      "start": 60.8927,
      "duration": 0.0159,
      "velocity": 93,
      "chip": "ym2612"
    },
    {
      "channel": 1,
      "note": 73,
      "start": 60.8938,
      "duration": 0.016,
      "velocity": 98,
      "chip": "ym2612"
    },
    {
      "channel": 0,
      "note": 37,
      "start": 60.9039,
      "duration": 0.0163,
      "velocity": 115,
      "chip": "ym2612"
    },
    {
      "channel": 5,
      "note": 83,
      "start": 60.9051,
      "duration": 0.0163,
      "velocity": 98,
      "chip": "ym2612"
    },
    {
      "channel": 4,
      "note": 85,
      "start": 60.9062,
      "duration": 0.0163,
      "velocity": 86,
      "chip": "ym2612"
    },
    {
      "channel": 3,
      "note": 85,
      "start": 60.9074,
      "duration": 0.0163,
      "velocity": 86,
      "chip": "ym2612"
    },
    {
      "channel": 2,
      "note": 57,
      "start": 60.9085,
      "duration": 0.0163,
      "velocity": 93,
      "chip": "ym2612"
    },
    {
      "channel": 1,
      "note": 73,
      "start": 60.9098,
      "duration": 0.0163,
      "velocity": 98,
      "chip": "ym2612"
    },
    {
      "channel": 0,
      "note": 38,
      "start": 60.9202,
      "duration": 0.0163,
      "velocity": 115,
      "chip": "ym2612"
    },
    {
      "channel": 5,
      "note": 83,
      "start": 60.9213,
      "duration": 0.0163,
      "velocity": 98,
      "chip": "ym2612"
    },
    {
      "channel": 4,
      "note": 85,
      "start": 60.9225,
      "duration": 0.0163,
      "velocity": 86,
      "chip": "ym2612"
    },
    {
      "channel": 3,
      "note": 85,
      "start": 60.9237,
      "duration": 0.0163,
      "velocity": 86,
      "chip": "ym2612"
    },
    {
      "channel": 2,
      "note": 57,
      "start": 60.9249,
      "duration": 0.0163,
      "velocity": 93,
      "chip": "ym2612"
    },
    {
      "channel": 1,
      "note": 73,
      "start": 60.9261,
      "duration": 0.0163,
      "velocity": 98,
      "chip": "ym2612"
    },
    {
      "channel": 0,
      "note": 38,
      "start": 60.9365,
      "duration": 0.0162,
      "velocity": 115,
      "chip": "ym2612"
    },
    {
      "channel": 5,
      "note": 83,
      "start": 60.9377,
      "duration": 0.0162,
      "velocity": 98,
      "chip": "ym2612"
    },
    {
      "channel": 4,
      "note": 85,
      "start": 60.9388,
      "duration": 0.0161,
      "velocity": 86,
      "chip": "ym2612"
    },
    {
      "channel": 3,
      "note": 85,
      "start": 60.94,
      "duration": 0.0162,
      "velocity": 86,
      "chip": "ym2612"
    },
    {
      "channel": 2,
      "note": 57,
      "start": 60.9412,
      "duration": 0.0161,
      "velocity": 93,
      "chip": "ym2612"
    },
    {
      "channel": 1,
      "note": 73,
      "start": 60.9424,
      "duration": 0.0161,
      "velocity": 98,
      "chip": "ym2612"
    },
    {
      "channel": 0,
      "note": 39,
      "start": 60.9527,
      "duration": 0.0161,
      "velocity": 115,
      "chip": "ym2612"
    },
    {
      "channel": 5,
      "note": 83,
      "start": 60.9539,
      "duration": 0.0161,
      "velocity": 98,
      "chip": "ym2612"
    },
    {
      "channel": 4,
      "note": 85,
      "start": 60.955,
      "duration": 0.0161,
      "velocity": 86,
      "chip": "ym2612"
    },
    {
      "channel": 3,
      "note": 85,
      "start": 60.9562,
      "duration": 0.0161,
      "velocity": 86,
      "chip": "ym2612"
    },
    {
      "channel": 2,
      "note": 57,
      "start": 60.9573,
      "duration": 0.0161,
      "velocity": 93,
      "chip": "ym2612"
    },
    {
      "channel": 1,
      "note": 73,
      "start": 60.9585,
      "duration": 0.0161,
      "velocity": 98,
      "chip": "ym2612"
    },
    {
      "channel": 0,
      "note": 39,
      "start": 60.9688,
      "duration": 0.016,
      "velocity": 115,
      "chip": "ym2612"
    },
    {
      "channel": 5,
      "note": 83,
      "start": 60.97,
      "duration": 0.0161,
      "velocity": 98,
      "chip": "ym2612"
    },
    {
      "channel": 4,
      "note": 85,
      "start": 60.9711,
      "duration": 0.0161,
      "velocity": 86,
      "chip": "ym2612"
    },
    {
      "channel": 3,
      "note": 85,
      "start": 60.9723,
      "duration": 0.0161,
      "velocity": 86,
      "chip": "ym2612"
    },
    {
      "channel": 2,
      "note": 57,
      "start": 60.9734,
      "duration": 0.0161,
      "velocity": 93,
      "chip": "ym2612"
    },
    {
      "channel": 1,
      "note": 73,
      "start": 60.9746,
      "duration": 0.0161,
      "velocity": 98,
      "chip": "ym2612"
    },
    {
      "channel": 0,
      "note": 40,
      "start": 60.9848,
      "duration": 0.0155,
      "velocity": 115,
      "chip": "ym2612"
    },
    {
      "channel": 5,
      "note": 83,
      "start": 60.986,
      "duration": 0.0161,
      "velocity": 98,
      "chip": "ym2612"
    },
    {
      "channel": 4,
      "note": 85,
      "start": 60.9872,
      "duration": 0.0161,
      "velocity": 86,
      "chip": "ym2612"
    },
    {
      "channel": 3,
      "note": 85,
      "start": 60.9884,
      "duration": 0.0161,
      "velocity": 86,
      "chip": "ym2612"
    },
    {
      "channel": 2,
      "note": 57,
      "start": 60.9895,
      "duration": 0.0162,
      "velocity": 93,
      "chip": "ym2612"
    },
    {
      "channel": 1,
      "note": 73,
      "start": 60.9907,
      "duration": 0.0162,
      "velocity": 98,
      "chip": "ym2612"
    },
    {
      "channel": 0,
      "note": 40,
      "start": 61.0004,
      "duration": 0.0161,
      "velocity": 115,
      "chip": "ym2612"
    },
    {
      "channel": 5,
      "note": 83,
      "start": 61.0021,
      "duration": 0.016,
      "velocity": 98,
      "chip": "ym2612"
    },
    {
      "channel": 4,
      "note": 85,
      "start": 61.0033,
      "duration": 0.0161,
      "velocity": 86,
      "chip": "ym2612"
    },
    {
      "channel": 3,
      "note": 85,
      "start": 61.0045,
      "duration": 0.0161,
      "velocity": 86,
      "chip": "ym2612"
    },
    {
      "channel": 2,
      "note": 57,
      "start": 61.0058,
      "duration": 0.016,
      "velocity": 93,
      "chip": "ym2612"
    },
    {
      "channel": 1,
      "note": 73,
      "start": 61.0069,
      "duration": 0.0161,
      "velocity": 98,
      "chip": "ym2612"
    },
    {
      "channel": 0,
      "note": 40,
      "start": 61.0164,
      "duration": 0.0162,
      "velocity": 115,
      "chip": "ym2612"
    },
    {
      "channel": 5,
      "note": 83,
      "start": 61.0182,
      "duration": 0.0156,
      "velocity": 98,
      "chip": "ym2612"
    },
    {
      "channel": 4,
      "note": 85,
      "start": 61.0194,
      "duration": 0.0161,
      "velocity": 86,
      "chip": "ym2612"
    },
    {
      "channel": 3,
      "note": 85,
      "start": 61.0206,
      "duration": 0.0161,
      "velocity": 86,
      "chip": "ym2612"
    },
    {
      "channel": 2,
      "note": 57,
      "start": 61.0218,
      "duration": 0.0162,
      "velocity": 93,
      "chip": "ym2612"
    },
    {
      "channel": 1,
      "note": 73,
      "start": 61.023,
      "duration": 0.0161,
      "velocity": 98,
      "chip": "ym2612"
    },
    {
      "channel": 0,
      "note": 41,
      "start": 61.0326,
      "duration": 0.0179,
      "velocity": 115,
      "chip": "ym2612"
    },
    {
      "channel": 5,
      "note": 83,
      "start": 61.0337,
      "duration": 0.0185,
      "velocity": 98,
      "chip": "ym2612"
    },
    {
      "channel": 4,
      "note": 85,
      "start": 61.0355,
      "duration": 0.0179,
      "velocity": 86,
      "chip": "ym2612"
    },
    {
      "channel": 2,
      "note": 57,
      "start": 61.038,
      "duration": 0.0182,
      "velocity": 93,
      "chip": "ym2612"
    },
    {
      "channel": 1,
      "note": 73,
      "start": 61.0391,
      "duration": 0.0182,
      "velocity": 98,
      "chip": "ym2612"
    },
    {
      "channel": 0,
      "note": 36,
      "start": 61.0505,
      "duration": 0.0143,
      "velocity": 115,
      "chip": "ym2612"
    },
    {
      "channel": 5,
      "note": 83,
      "start": 61.0522,
      "duration": 0.0138,
      "velocity": 98,
      "chip": "ym2612"
    },
    {
      "channel": 4,
      "note": 85,
      "start": 61.0535,
      "duration": 0.0137,
      "velocity": 86,
      "chip": "ym2612"
    },
    {
      "channel": 3,
      "note": 76,
      "start": 61.055,
      "duration": 0.014,
      "velocity": 86,
      "chip": "ym2612"
    },
    {
      "channel": 2,
      "note": 57,
      "start": 61.0561,
      "duration": 0.0141,
      "velocity": 93,
      "chip": "ym2612"
    },
    {
      "channel": 1,
      "note": 73,
      "start": 61.0573,
      "duration": 0.0141,
      "velocity": 98,
      "chip": "ym2612"
    },
    {
      "channel": 0,
      "note": 36,
      "start": 61.0649,
      "duration": 0.016,
      "velocity": 115,
      "chip": "ym2612"
    },
    {
      "channel": 5,
      "note": 83,
      "start": 61.066,
      "duration": 0.016,
      "velocity": 98,
      "chip": "ym2612"
    },
    {
      "channel": 4,
      "note": 85,
      "start": 61.0672,
      "duration": 0.016,
      "velocity": 86,
      "chip": "ym2612"
    },
    {
      "channel": 3,
      "note": 76,
      "start": 61.069,
      "duration": 0.016,
      "velocity": 86,
      "chip": "ym2612"
    },
    {
      "channel": 2,
      "note": 57,
      "start": 61.0702,
      "duration": 0.016,
      "velocity": 93,
      "chip": "ym2612"
    },
    {
      "channel": 1,
      "note": 73,
      "start": 61.0713,
      "duration": 0.016,
      "velocity": 98,
      "chip": "ym2612"
    },
    {
      "channel": 0,
      "note": 37,
      "start": 61.0809,
      "duration": 0.0161,
      "velocity": 115,
      "chip": "ym2612"
    },
    {
      "channel": 5,
      "note": 83,
      "start": 61.082,
      "duration": 0.0161,
      "velocity": 98,
      "chip": "ym2612"
    },
    {
      "channel": 3,
      "note": 76,
      "start": 61.085,
      "duration": 0.0161,
      "velocity": 86,
      "chip": "ym2612"
    },
    {
      "channel": 2,
      "note": 57,
      "start": 61.0862,
      "duration": 0.0164,
      "velocity": 93,
      "chip": "ym2612"
    },
    {
      "channel": 1,
      "note": 73,
      "start": 61.0873,
      "duration": 0.0165,
      "velocity": 98,
      "chip": "ym2612"
    },
    {
      "channel": 0,
      "note": 37,
      "start": 61.097,
      "duration": 0.0161,
      "velocity": 115,
      "chip": "ym2612"
    },
    {
      "channel": 5,
      "note": 83,
      "start": 61.0982,
      "duration": 0.0161,
      "velocity": 98,
      "chip": "ym2612"
    },
    {
      "channel": 4,
      "note": 76,
      "start": 61.0997,
      "duration": 0.0158,
      "velocity": 86,
      "chip": "ym2612"
    },
    {
      "channel": 3,
      "note": 76,
      "start": 61.101,
      "duration": 0.0156,
      "velocity": 86,
      "chip": "ym2612"
    },
    {
      "channel": 2,
      "note": 57,
      "start": 61.1026,
      "duration": 0.0158,
      "velocity": 93,
      "chip": "ym2612"
    },
    {
      "channel": 1,
      "note": 73,
      "start": 61.1038,
      "duration": 0.0159,
      "velocity": 98,
      "chip": "ym2612"
    },
    {
      "channel": 0,
      "note": 38,
      "start": 61.1131,
      "duration": 0.0161,
      "velocity": 115,
      "chip": "ym2612"
    },
    {
      "channel": 5,
      "note": 83,
      "start": 61.1143,
      "duration": 0.0161,
      "velocity": 98,
      "chip": "ym2612"
    },
    {
      "channel": 4,
      "note": 76,
      "start": 61.1155,
      "duration": 0.016,
      "velocity": 86,
      "chip": "ym2612"
    },
    {
      "channel": 3,
      "note": 76,
      "start": 61.1166,
      "duration": 0.0161,
      "velocity": 86,
      "chip": "ym2612"
    },
    {
      "channel": 2,
      "note": 57,
      "start": 61.1184,
      "duration": 0.0157,
      "velocity": 93,
      "chip": "ym2612"
    },
    {
      "channel": 1,
      "note": 73,
      "start": 61.1196,
      "duration": 0.0161,
      "velocity": 98,
      "chip": "ym2612"
    },
    {
      "channel": 0,
      "note": 38,
      "start": 61.1292,
      "duration": 0.0179,
      "velocity": 124,
      "chip": "ym2612"
    },
    {
      "channel": 5,
      "note": 83,
      "start": 61.1304,
      "duration": 0.0179,
      "velocity": 98,
      "chip": "ym2612"
    },
    {
      "channel": 4,
      "note": 76,
      "start": 61.1315,
      "duration": 0.0179,
      "velocity": 86,
      "chip": "ym2612"
    },
    {
      "channel": 2,
      "note": 57,
      "start": 61.1341,
      "duration": 0.0188,
      "velocity": 93,
      "chip": "ym2612"
    },
    {
      "channel": 0,
      "note": 84,
      "start": 61.1472,
      "duration": 0.0143,
      "velocity": 124,
      "chip": "ym2612"
    },
    {
      "channel": 5,
      "note": 83,
      "start": 61.1483,
      "duration": 0.0143,
      "velocity": 98,
      "chip": "ym2612"
    },
    {
      "channel": 4,
      "note": 76,
      "start": 61.1495,
      "duration": 0.0143,
      "velocity": 86,
      "chip": "ym2612"
    },
    {
      "channel": 3,
      "note": 81,
      "start": 61.1515,
      "duration": 0.0136,
      "velocity": 86,
      "chip": "ym2612"
    },
    {
      "channel": 2,
      "note": 57,
      "start": 61.153,
      "duration": 0.0132,
      "velocity": 93,
      "chip": "ym2612"
    },
    {
      "channel": 1,
      "note": 76,
      "start": 61.1545,
      "duration": 0.0132,
      "velocity": 98,
      "chip": "ym2612"
    },
    {
      "channel": 0,
      "note": 82,
      "start": 61.1614,
      "duration": 0.0161,
      "velocity": 124,
      "chip": "ym2612"
    },
    {
      "channel": 4,
      "note": 76,
      "start": 61.1638,
      "duration": 0.0163,
      "velocity": 86,
      "chip": "ym2612"
    },
    {
      "channel": 3,
      "note": 81,
      "start": 61.1651,
      "duration": 0.0163,
      "velocity": 86,
      "chip": "ym2612"
    },
    {
      "channel": 2,
      "note": 57,
      "start": 61.1663,
      "duration": 0.0162,
      "velocity": 93,
      "chip": "ym2612"
    },
    {
      "channel": 1,
      "note": 76,
      "start": 61.1677,
      "duration": 0.016,
      "velocity": 98,
      "chip": "ym2612"
    },
    {
      "channel": 0,
      "note": 80,
      "start": 61.1775,
      "duration": 0.0161,
      "velocity": 124,
      "chip": "ym2612"
    },
    {
      "channel": 5,
      "note": 73,
      "start": 61.179,
      "duration": 0.0158,
      "velocity": 98,
      "chip": "ym2612"
    },
    {
      "channel": 3,
      "note": 81,
      "start": 61.1813,
      "duration": 0.0161,
      "velocity": 86,
      "chip": "ym2612"
    },
    {
      "channel": 2,
      "note": 57,
      "start": 61.1825,
      "duration": 0.0162,
      "velocity": 93,
      "chip": "ym2612"
    },
    {
      "channel": 1,
      "note": 76,
      "start": 61.1836,
      "duration": 0.0161,
      "velocity": 98,
      "chip": "ym2612"
    },
    {
      "channel": 0,
      "note": 77,
      "start": 61.1936,
      "duration": 0.0161,
      "velocity": 124,
      "chip": "ym2612"
    },
    {
      "channel": 5,
      "note": 73,
      "start": 61.1948,
      "duration": 0.016,
      "velocity": 98,
      "chip": "ym2612"
    },
    {
      "channel": 4,
      "note": 81,
      "start": 61.1963,
      "duration": 0.0159,
      "velocity": 86,
      "chip": "ym2612"
    },
    {
      "channel": 3,
      "note": 81,
      "start": 61.1974,
      "duration": 0.0158,
      "velocity": 86,
      "chip": "ym2612"
    },
    {
      "channel": 2,
      "note": 57,
      "start": 61.1986,
      "duration": 0.0158,
      "velocity": 93,
      "chip": "ym2612"
    },
    {
      "channel": 1,
      "note": 76,
      "start": 61.1998,
      "duration": 0.0159,
      "velocity": 98,
      "chip": "ym2612"
    },
    {
      "channel": 0,
      "note": 75,
      "start": 61.2097,
      "duration": 0.0161,
      "velocity": 124,
      "chip": "ym2612"
    },
    {
      "channel": 5,
      "note": 73,
      "start": 61.2108,
      "duration": 0.0161,
      "velocity": 98,
      "chip": "ym2612"
    },
    {
      "channel": 4,
      "note": 81,
      "start": 61.2121,
      "duration": 0.016,
      "velocity": 86,
      "chip": "ym2612"
    },
    {
      "channel": 3,
      "note": 81,
      "start": 61.2133,
      "duration": 0.016,
      "velocity": 86,
      "chip": "ym2612"
    },
    {
      "channel": 2,
      "note": 57,
      "start": 61.2144,
      "duration": 0.016,
      "velocity": 93,
      "chip": "ym2612"
    },
    {
      "channel": 1,
      "note": 76,
      "start": 61.2156,
      "duration": 0.016,
      "velocity": 98,
      "chip": "ym2612"
    },
    {
      "channel": 0,
      "note": 72,
      "start": 61.2258,
      "duration": 0.0161,
      "velocity": 124,
      "chip": "ym2612"
    },
    {
      "channel": 5,
      "note": 73,
      "start": 61.2269,
      "duration": 0.0161,
      "velocity": 98,
      "chip": "ym2612"
    },
    {
      "channel": 4,
      "note": 81,
      "start": 61.2281,
      "duration": 0.0161,
      "velocity": 86,
      "chip": "ym2612"
    },
    {
      "channel": 3,
      "note": 81,
      "start": 61.2293,
      "duration": 0.0161,
      "velocity": 86,
      "chip": "ym2612"
    },
    {
      "channel": 2,
      "note": 57,
      "start": 61.2304,
      "duration": 0.0162,
      "velocity": 93,
      "chip": "ym2612"
    },
    {
      "channel": 1,
      "note": 76,
      "start": 61.2317,
      "duration": 0.0161,
      "velocity": 98,
      "chip": "ym2612"
    },
    {
      "channel": 0,
      "note": 70,
      "start": 61.2419,
      "duration": 0.0161,
      "velocity": 124,
      "chip": "ym2612"
    },
    {
      "channel": 5,
      "note": 73,
      "start": 61.243,
      "duration": 0.0161,
      "velocity": 98,
      "chip": "ym2612"
    },
    {
      "channel": 4,
      "note": 81,
      "start": 61.2442,
      "duration": 0.0161,
      "velocity": 86,
      "chip": "ym2612"
    },
    {
      "channel": 3,
      "note": 81,
      "start": 61.2454,
      "duration": 0.0161,
      "velocity": 86,
      "chip": "ym2612"
    },
    {
      "channel": 2,
      "note": 57,
      "start": 61.2466,
      "duration": 0.0161,
      "velocity": 93,
      "chip": "ym2612"
    },
    {
      "channel": 1,
      "note": 76,
      "start": 61.2478,
      "duration": 0.0161,
      "velocity": 98,
      "chip": "ym2612"
    },
    {
      "channel": 0,
      "note": 68,
      "start": 61.258,
      "duration": 0.0161,
      "velocity": 124,
      "chip": "ym2612"
    },
    {
      "channel": 5,
      "note": 73,
      "start": 61.2592,
      "duration": 0.0161,
      "velocity": 98,
      "chip": "ym2612"
    },
    {
      "channel": 4,
      "note": 81,
      "start": 61.2603,
      "duration": 0.0161,
      "velocity": 86,
      "chip": "ym2612"
    },
    {
      "channel": 3,
      "note": 81,
      "start": 61.2615,
      "duration": 0.0161,
      "velocity": 86,
      "chip": "ym2612"
    },
    {
      "channel": 2,
      "note": 57,
      "start": 61.2627,
      "duration": 0.0161,
      "velocity": 93,
      "chip": "ym2612"
    },
    {
      "channel": 1,
      "note": 76,
      "start": 61.2638,
      "duration": 0.0161,
      "velocity": 98,
      "chip": "ym2612"
    },
    {
      "channel": 0,
      "note": 65,
      "start": 61.2741,
      "duration": 0.0161,
      "velocity": 124,
      "chip": "ym2612"
    },
    {
      "channel": 5,
      "note": 73,
      "start": 61.2753,
      "duration": 0.0161,
      "velocity": 98,
      "chip": "ym2612"
    },
    {
      "channel": 4,
      "note": 81,
      "start": 61.2764,
      "duration": 0.0161,
      "velocity": 86,
      "chip": "ym2612"
    },
    {
      "channel": 3,
      "note": 81,
      "start": 61.2776,
      "duration": 0.0161,
      "velocity": 86,
      "chip": "ym2612"
    },
    {
      "channel": 2,
      "note": 57,
      "start": 61.2788,
      "duration": 0.0162,
      "velocity": 93,
      "chip": "ym2612"
    },
    {
      "channel": 1,
      "note": 76,
      "start": 61.2799,
      "duration": 0.0162,
      "velocity": 98,
      "chip": "ym2612"
    },
    {
      "channel": 0,
      "note": 63,
      "start": 61.2902,
      "duration": 0.0153,
      "velocity": 1,
      "chip": "ym2612"
    },
    {
      "channel": 5,
      "note": 73,
      "start": 61.2914,
      "duration": 0.0153,
      "velocity": 98,
      "chip": "ym2612"
    },
    {
      "channel": 4,
      "note": 81,
      "start": 61.2925,
      "duration": 0.0153,
      "velocity": 86,
      "chip": "ym2612"
    },
    {
      "channel": 3,
      "note": 81,
      "start": 61.2937,
      "duration": 0.0153,
      "velocity": 86,
      "chip": "ym2612"
    },
    {
      "channel": 2,
      "note": 57,
      "start": 61.295,
      "duration": 0.0152,
      "velocity": 93,
      "chip": "ym2612"
    },
    {
      "channel": 1,
      "note": 76,
      "start": 61.2961,
      "duration": 0.0153,
      "velocity": 98,
      "chip": "ym2612"
    },
    {
      "channel": 5,
      "note": 73,
      "start": 61.3066,
      "duration": 0.0153,
      "velocity": 98,
      "chip": "ym2612"
    },
    {
      "channel": 4,
      "note": 81,
      "start": 61.3078,
      "duration": 0.0153,
      "velocity": 86,
      "chip": "ym2612"
    },
    {
      "channel": 3,
      "note": 81,
      "start": 61.309,
      "duration": 0.0153,
      "velocity": 86,
      "chip": "ym2612"
    },
    {
      "channel": 2,
      "note": 57,
      "start": 61.3102,
      "duration": 0.0153,
      "velocity": 93,
      "chip": "ym2612"
    },
    {
      "channel": 1,
      "note": 76,
      "start": 61.3114,
      "duration": 0.0153,
      "velocity": 98,
      "chip": "ym2612"
    },
    {
      "channel": 5,
      "note": 73,
      "start": 61.3219,
      "duration": 0.0161,
      "velocity": 98,
      "chip": "ym2612"
    },
    {
      "channel": 4,
      "note": 81,
      "start": 61.3231,
      "duration": 0.0161,
      "velocity": 86,
      "chip": "ym2612"
    },
    {
      "channel": 2,
      "note": 57,
      "start": 61.3255,
      "duration": 0.0163,
      "velocity": 93,
      "chip": "ym2612"
    },
    {
      "channel": 1,
      "note": 76,
      "start": 61.3267,
      "duration": 0.0163,
      "velocity": 98,
      "chip": "ym2612"
    },
    {
      "channel": 5,
      "note": 73,
      "start": 61.338,
      "duration": 0.0161,
      "velocity": 98,
      "chip": "ym2612"
    },
    {
      "channel": 4,
      "note": 81,
      "start": 61.3392,
      "duration": 0.0161,
      "velocity": 86,
      "chip": "ym2612"
    },
    {
      "channel": 3,
      "note": 85,
      "start": 61.3407,
      "duration": 0.0159,
      "velocity": 86,
      "chip": "ym2612"
    },
    {
      "channel": 2,
      "note": 57,
      "start": 61.3418,
      "duration": 0.0158,
      "velocity": 93,
      "chip": "ym2612"
    },
    {
      "channel": 1,
      "note": 76,
      "start": 61.343,
      "duration": 0.0159,
      "velocity": 98,
      "chip": "ym2612"
    },
    {
      "channel": 5,
      "note": 73,
      "start": 61.3541,
      "duration": 0.0162,
      "velocity": 98,
      "chip": "ym2612"
    },
    {
      "channel": 4,
      "note": 81,
      "start": 61.3553,
      "duration": 0.0162,
      "velocity": 86,
      "chip": "ym2612"
    },
    {
      "channel": 3,
      "note": 85,
      "start": 61.3565,
      "duration": 0.0161,
      "velocity": 86,
      "chip": "ym2612"
    },
    {
      "channel": 2,
      "note": 57,
      "start": 61.3577,
      "duration": 0.0161,
      "velocity": 93,
      "chip": "ym2612"
    },
    {
      "channel": 1,
      "note": 76,
      "start": 61.3588,
      "duration": 0.0161,
      "velocity": 98,
      "chip": "ym2612"
    },
    {
      "channel": 5,
      "note": 73,
      "start": 61.3703,
      "duration": 0.0161,
      "velocity": 98,
      "chip": "ym2612"
    },
    {
      "channel": 3,
      "note": 85,
      "start": 61.3726,
      "duration": 0.0164,
      "velocity": 86,
      "chip": "ym2612"
    },
    {
      "channel": 2,
      "note": 57,
      "start": 61.3738,
      "duration": 0.0164,
      "velocity": 93,
      "chip": "ym2612"
    },
    {
      "channel": 1,
      "note": 76,
      "start": 61.375,
      "duration": 0.0164,
      "velocity": 98,
      "chip": "ym2612"
    },
    {
      "channel": 5,
      "note": 73,
      "start": 61.3863,
      "duration": 0.0164,
      "velocity": 98,
      "chip": "ym2612"
    },
    {
      "channel": 4,
      "note": 85,
      "start": 61.3879,
      "duration": 0.0161,
      "velocity": 86,
      "chip": "ym2612"
    },
    {
      "channel": 3,
      "note": 85,
      "start": 61.389,
      "duration": 0.0162,
      "velocity": 86,
      "chip": "ym2612"
    },
    {
      "channel": 2,
      "note": 57,
      "start": 61.3902,
      "duration": 0.0162,
      "velocity": 93,
      "chip": "ym2612"
    },
    {
      "channel": 1,
      "note": 76,
      "start": 61.3914,
      "duration": 0.0162,
      "velocity": 98,
      "chip": "ym2612"
    },
    {
      "channel": 5,
      "note": 73,
      "start": 61.4028,
      "duration": 0.0163,
      "velocity": 98,
      "chip": "ym2612"
    },
    {
      "channel": 4,
      "note": 85,
      "start": 61.404,
      "duration": 0.0163,
      "velocity": 86,
      "chip": "ym2612"
    },
    {
      "channel": 3,
      "note": 85,
      "start": 61.4052,
      "duration": 0.0162,
      "velocity": 86,
      "chip": "ym2612"
    },
    {
      "channel": 2,
      "note": 57,
      "start": 61.4064,
      "duration": 0.0163,
      "velocity": 93,
      "chip": "ym2612"
    },
    {
      "channel": 1,
      "note": 76,
      "start": 61.4076,
      "duration": 0.0163,
      "velocity": 98,
      "chip": "ym2612"
    },
    {
      "channel": 5,
      "note": 73,
      "start": 61.419,
      "duration": 0.0197,
      "velocity": 98,
      "chip": "ym2612"
    },
    {
      "channel": 4,
      "note": 85,
      "start": 61.4203,
      "duration": 0.0196,
      "velocity": 86,
      "chip": "ym2612"
    },
    {
      "channel": 3,
      "note": 85,
      "start": 61.4214,
      "duration": 0.0197,
      "velocity": 86,
      "chip": "ym2612"
    },
    {
      "channel": 2,
      "note": 57,
      "start": 61.4227,
      "duration": 0.0198,
      "velocity": 93,
      "chip": "ym2612"
    },
    {
      "channel": 0,
      "note": 36,
      "start": 61.4376,
      "duration": 0.0142,
      "velocity": 115,
      "chip": "ym2612"
    },
    {
      "channel": 5,
      "note": 73,
      "start": 61.4387,
      "duration": 0.0143,
      "velocity": 98,
      "chip": "ym2612"
    },
    {
      "channel": 4,
      "note": 85,
      "start": 61.4399,
      "duration": 0.0144,
      "velocity": 86,
      "chip": "ym2612"
    },
    {
      "channel": 3,
      "note": 85,
      "start": 61.4411,
      "duration": 0.0143,
      "velocity": 86,
      "chip": "ym2612"
    },
    {
      "channel": 2,
      "note": 54,
      "start": 61.4425,
      "duration": 0.0141,
      "velocity": 93,
      "chip": "ym2612"
    },
    {
      "channel": 1,
      "note": 80,
      "start": 61.444,
      "duration": 0.0139,
      "velocity": 98,
      "chip": "ym2612"
    },
    {
      "channel": 0,
      "note": 36,
      "start": 61.4518,
      "duration": 0.0157,
      "velocity": 115,
      "chip": "ym2612"
    },
    {
      "channel": 4,
      "note": 85,
      "start": 61.4542,
      "duration": 0.0163,
      "velocity": 86,
      "chip": "ym2612"
    },
    {
      "channel": 3,
      "note": 85,
      "start": 61.4554,
      "duration": 0.0163,
      "velocity": 86,
      "chip": "ym2612"
    },
    {
      "channel": 2,
      "note": 54,
      "start": 61.4566,
      "duration": 0.0162,
      "velocity": 93,
      "chip": "ym2612"
    },
    {
      "channel": 1,
      "note": 80,
      "start": 61.4579,
      "duration": 0.0162,
      "velocity": 98,
      "chip": "ym2612"
    },
    {
      "channel": 0,
      "note": 37,
      "start": 61.4675,
      "duration": 0.0159,
      "velocity": 115,
      "chip": "ym2612"
    },
    {
      "channel": 5,
      "note": 76,
      "start": 61.4694,
      "duration": 0.0158,
      "velocity": 98,
      "chip": "ym2612"
    },
    {
      "channel": 4,
      "note": 85,
      "start": 61.4705,
      "duration": 0.0159,
      "velocity": 86,
      "chip": "ym2612"
    },
    {
      "channel": 3,
      "note": 85,
      "start": 61.4717,
      "duration": 0.0159,
      "velocity": 86,
      "chip": "ym2612"
    },
    {
      "channel": 2,
      "note": 54,
      "start": 61.4729,
      "duration": 0.0159,
      "velocity": 93,
      "chip": "ym2612"
    },
    {
      "channel": 1,
      "note": 80,
      "start": 61.4741,
      "duration": 0.0158,
      "velocity": 98,
      "chip": "ym2612"
    },
    {
      "channel": 0,
      "note": 37,
      "start": 61.4834,
      "duration": 0.0161,
      "velocity": 115,
      "chip": "ym2612"
    },
    {
      "channel": 5,
      "note": 76,
      "start": 61.4851,
      "duration": 0.0157,
      "velocity": 98,
      "chip": "ym2612"
    },
    {
      "channel": 4,
      "note": 85,
      "start": 61.4864,
      "duration": 0.016,
      "velocity": 86,
      "chip": "ym2612"
    },
    {
      "channel": 3,
      "note": 85,
      "start": 61.4876,
      "duration": 0.0161,
      "velocity": 86,
      "chip": "ym2612"
    },
    {
      "channel": 2,
      "note": 54,
      "start": 61.4888,
      "duration": 0.016,
      "velocity": 93,
      "chip": "ym2612"
    },
    {
      "channel": 1,
      "note": 80,
      "start": 61.4899,
      "duration": 0.016,
      "velocity": 98,
      "chip": "ym2612"
    },
    {
      "channel": 0,
      "note": 38,
      "start": 61.4995,
      "duration": 0.0161,
      "velocity": 115,
      "chip": "ym2612"
    },
    {
      "channel": 5,
      "note": 76,
      "start": 61.5009,
      "duration": 0.0159,
      "velocity": 98,
      "chip": "ym2612"
    },
    {
      "channel": 4,
      "note": 85,
      "start": 61.5024,
      "duration": 0.0161,
      "velocity": 86,
      "chip": "ym2612"
    },
    {
      "channel": 3,
      "note": 85,
      "start": 61.5037,
      "duration": 0.0161,
      "velocity": 86,
      "chip": "ym2612"
    },
    {
      "channel": 2,
      "note": 54,
      "start": 61.5048,
      "duration": 0.0161,
      "velocity": 93,
      "chip": "ym2612"
    },
    {
      "channel": 1,
      "note": 80,
      "start": 61.5059,
      "duration": 0.0162,
      "velocity": 98,
      "chip": "ym2612"
    },
    {
      "channel": 0,
      "note": 38,
      "start": 61.5156,
      "duration": 0.0161,
      "velocity": 115,
      "chip": "ym2612"
    },
    {
      "channel": 5,
      "note": 76,
      "start": 61.5168,
      "duration": 0.0161,
      "velocity": 98,
      "chip": "ym2612"
    },
    {
      "channel": 4,
      "note": 85,
      "start": 61.5185,
      "duration": 0.0157,
      "velocity": 86,
      "chip": "ym2612"
    },
    {
      "channel": 3,
      "note": 85,
      "start": 61.5198,
      "duration": 0.0161,
      "velocity": 86,
      "chip": "ym2612"
    },
    {
      "channel": 2,
      "note": 54,
      "start": 61.521,
      "duration": 0.016,
      "velocity": 93,
      "chip": "ym2612"
    },
    {
      "channel": 1,
      "note": 80,
      "start": 61.5221,
      "duration": 0.016,
      "velocity": 98,
      "chip": "ym2612"
    },
    {
      "channel": 0,
      "note": 39,
      "start": 61.5317,
      "duration": 0.0161,
      "velocity": 115,
      "chip": "ym2612"
    },
    {
      "channel": 5,
      "note": 76,
      "start": 61.5329,
      "duration": 0.0161,
      "velocity": 98,
      "chip": "ym2612"
    },
    {
      "channel": 4,
      "note": 85,
      "start": 61.5343,
      "duration": 0.0159,
      "velocity": 86,
      "chip": "ym2612"
    },
    {
      "channel": 3,
      "note": 85,
      "start": 61.5359,
      "duration": 0.016,
      "velocity": 86,
      "chip": "ym2612"
    },
    {
      "channel": 2,
      "note": 54,
      "start": 61.537,
      "duration": 0.0161,
      "velocity": 93,
      "chip": "ym2612"
    },
    {
      "channel": 1,
      "note": 80,
      "start": 61.5381,
      "duration": 0.0161,
      "velocity": 98,
      "chip": "ym2612"
    },
    {
      "channel": 0,
      "note": 39,
      "start": 61.5478,
      "duration": 0.0161,
      "velocity": 115,
      "chip": "ym2612"
    },
    {
      "channel": 5,
      "note": 76,
      "start": 61.549,
      "duration": 0.0161,
      "velocity": 98,
      "chip": "ym2612"
    },
    {
      "channel": 4,
      "note": 85,
      "start": 61.5502,
      "duration": 0.0161,
      "velocity": 86,
      "chip": "ym2612"
    },
    {
      "channel": 3,
      "note": 85,
      "start": 61.5519,
      "duration": 0.0158,
      "velocity": 86,
      "chip": "ym2612"
    },
    {
      "channel": 2,
      "note": 54,
      "start": 61.5531,
      "duration": 0.0162,
      "velocity": 93,
      "chip": "ym2612"
    },
    {
      "channel": 1,
      "note": 80,
      "start": 61.5543,
      "duration": 0.0161,
      "velocity": 98,
      "chip": "ym2612"
    },
    {
      "channel": 0,
      "note": 40,
      "start": 61.5639,
      "duration": 0.0161,
      "velocity": 115,
      "chip": "ym2612"
    },
    {
      "channel": 5,
      "note": 76,
      "start": 61.5651,
      "duration": 0.0161,
      "velocity": 98,
      "chip": "ym2612"
    },
    {
      "channel": 4,
      "note": 85,
      "start": 61.5663,
      "duration": 0.0161,
      "velocity": 86,
      "chip": "ym2612"
    },
    {
      "channel": 3,
      "note": 85,
      "start": 61.5677,
      "duration": 0.0159,
      "velocity": 86,
      "chip": "ym2612"
    },
    {
      "channel": 2,
      "note": 54,
      "start": 61.5693,
      "duration": 0.0161,
      "velocity": 93,
      "chip": "ym2612"
    },
    {
      "channel": 1,
      "note": 80,
      "start": 61.5704,
      "duration": 0.0162,
      "velocity": 98,
      "chip": "ym2612"
    },
    {
      "channel": 0,
      "note": 40,
      "start": 61.58,
      "duration": 0.0161,
      "velocity": 115,
      "chip": "ym2612"
    },
    {
      "channel": 5,
      "note": 76,
      "start": 61.5812,
      "duration": 0.0161,
      "velocity": 98,
      "chip": "ym2612"
    },
    {
      "channel": 4,
      "note": 85,
      "start": 61.5824,
      "duration": 0.0161,
      "velocity": 86,
      "chip": "ym2612"
    },
    {
      "channel": 3,
      "note": 85,
      "start": 61.5836,
      "duration": 0.0161,
      "velocity": 86,
      "chip": "ym2612"
    },
    {
      "channel": 2,
      "note": 54,
      "start": 61.5853,
      "duration": 0.0158,
      "velocity": 93,
      "chip": "ym2612"
    },
    {
      "channel": 1,
      "note": 80,
      "start": 61.5866,
      "duration": 0.0161,
      "velocity": 98,
      "chip": "ym2612"
    },
    {
      "channel": 0,
      "note": 40,
      "start": 61.5961,
      "duration": 0.0161,
      "velocity": 115,
      "chip": "ym2612"
    },
    {
      "channel": 5,
      "note": 76,
      "start": 61.5973,
      "duration": 0.0161,
      "velocity": 98,
      "chip": "ym2612"
    },
    {
      "channel": 4,
      "note": 85,
      "start": 61.5984,
      "duration": 0.0161,
      "velocity": 86,
      "chip": "ym2612"
    },
    {
      "channel": 3,
      "note": 85,
      "start": 61.5997,
      "duration": 0.0161,
      "velocity": 86,
      "chip": "ym2612"
    },
    {
      "channel": 2,
      "note": 54,
      "start": 61.6011,
      "duration": 0.0159,
      "velocity": 93,
      "chip": "ym2612"
    },
    {
      "channel": 1,
      "note": 80,
      "start": 61.6027,
      "duration": 0.016,
      "velocity": 98,
      "chip": "ym2612"
    },
    {
      "channel": 0,
      "note": 41,
      "start": 61.6122,
      "duration": 0.0162,
      "velocity": 115,
      "chip": "ym2612"
    },
    {
      "channel": 5,
      "note": 76,
      "start": 61.6134,
      "duration": 0.0161,
      "velocity": 98,
      "chip": "ym2612"
    },
    {
      "channel": 4,
      "note": 85,
      "start": 61.6145,
      "duration": 0.0161,
      "velocity": 86,
      "chip": "ym2612"
    },
    {
      "channel": 2,
      "note": 54,
      "start": 61.617,
      "duration": 0.0163,
      "velocity": 93,
      "chip": "ym2612"
    },
    {
      "channel": 1,
      "note": 80,
      "start": 61.6187,
      "duration": 0.0163,
      "velocity": 98,
      "chip": "ym2612"
    },
    {
      "channel": 0,
      "note": 41,
      "start": 61.6283,
      "duration": 0.0161,
      "velocity": 115,
      "chip": "ym2612"
    },
    {
      "channel": 5,
      "note": 76,
      "start": 61.6295,
      "duration": 0.0161,
      "velocity": 98,
      "chip": "ym2612"
    },
    {
      "channel": 4,
      "note": 85,
      "start": 61.6306,
      "duration": 0.0161,
      "velocity": 86,
      "chip": "ym2612"
    },
    {
      "channel": 3,
      "note": 76,
      "start": 61.6322,
      "duration": 0.0159,
      "velocity": 86,
      "chip": "ym2612"
    },
    {
      "channel": 2,
      "note": 54,
      "start": 61.6333,
      "duration": 0.0158,
      "velocity": 93,
      "chip": "ym2612"
    },
    {
      "channel": 1,
      "note": 80,
      "start": 61.635,
      "duration": 0.0154,
      "velocity": 98,
      "chip": "ym2612"
    },
    {
      "channel": 0,
      "note": 42,
      "start": 61.6444,
      "duration": 0.0161,
      "velocity": 115,
      "chip": "ym2612"
    },
    {
      "channel": 5,
      "note": 76,
      "start": 61.6456,
      "duration": 0.0161,
      "velocity": 98,
      "chip": "ym2612"
    },
    {
      "channel": 4,
      "note": 85,
      "start": 61.6468,
      "duration": 0.0161,
      "velocity": 86,
      "chip": "ym2612"
    },
    {
      "channel": 3,
      "note": 76,
      "start": 61.648,
      "duration": 0.016,
      "velocity": 86,
      "chip": "ym2612"
    },
    {
      "channel": 2,
      "note": 54,
      "start": 61.6491,
      "duration": 0.0161,
      "velocity": 93,
      "chip": "ym2612"
    },
    {
      "channel": 1,
      "note": 80,
      "start": 61.6504,
      "duration": 0.016,
      "velocity": 98,
      "chip": "ym2612"
    },
    {
      "channel": 0,
      "note": 42,
      "start": 61.6605,
      "duration": 0.0161,
      "velocity": 115,
      "chip": "ym2612"
    },
    {
      "channel": 5,
      "note": 76,
      "start": 61.6617,
      "duration": 0.0161,
      "velocity": 98,
      "chip": "ym2612"
    },
    {
      "channel": 3,
      "note": 76,
      "start": 61.664,
      "duration": 0.0164,
      "velocity": 86,
      "chip": "ym2612"
    },
    {
      "channel": 2,
      "note": 54,
      "start": 61.6652,
      "duration": 0.0164,
      "velocity": 93,
      "chip": "ym2612"
    },
    {
      "channel": 1,
      "note": 80,
      "start": 61.6664,
      "duration": 0.0164,
      "velocity": 98,
      "chip": "ym2612"
    },
    {
      "channel": 0,
      "note": 43,
      "start": 61.6766,
      "duration": 0.0161,
      "velocity": 115,
      "chip": "ym2612"
    },
    {
      "channel": 5,
      "note": 76,
      "start": 61.6778,
      "duration": 0.0161,
      "velocity": 98,
      "chip": "ym2612"
    },
    {
      "channel": 4,
      "note": 76,
      "start": 61.6793,
      "duration": 0.0159,
      "velocity": 86,
      "chip": "ym2612"
    },
    {
      "channel": 3,
      "note": 76,
      "start": 61.6804,
      "duration": 0.0159,
      "velocity": 86,
      "chip": "ym2612"
    },
    {
      "channel": 2,
      "note": 54,
      "start": 61.6817,
      "duration": 0.0158,
      "velocity": 93,
      "chip": "ym2612"
    },
    {
      "channel": 1,
      "note": 80,
      "start": 61.6828,
      "duration": 0.0159,
      "velocity": 98,
      "chip": "ym2612"
    },
    {
      "channel": 0,
      "note": 43,
      "start": 61.6927,
      "duration": 0.0161,
      "velocity": 115,
      "chip": "ym2612"
    },
    {
      "channel": 5,
      "note": 76,
      "start": 61.6939,
      "duration": 0.0162,
      "velocity": 98,
      "chip": "ym2612"
    },
    {
      "channel": 4,
      "note": 76,
      "start": 61.6951,
      "duration": 0.016,
      "velocity": 86,
      "chip": "ym2612"
    },
    {
      "channel": 3,
      "note": 76,
      "start": 61.6963,
      "duration": 0.0161,
      "velocity": 86,
      "chip": "ym2612"
    },
    {
      "channel": 2,
      "note": 54,
      "start": 61.6975,
      "duration": 0.0161,
      "velocity": 93,
      "chip": "ym2612"
    },
    {
      "channel": 1,
      "note": 80,
      "start": 61.6987,
      "duration": 0.0161,
      "velocity": 98,
      "chip": "ym2612"
    },
    {
      "channel": 0,
      "note": 44,
      "start": 61.7088,
      "duration": 0.0179,
      "velocity": 124,
      "chip": "ym2612"
    },
    {
      "channel": 5,
      "note": 76,
      "start": 61.71,
      "duration": 0.0179,
      "velocity": 98,
      "chip": "ym2612"
    },
    {
      "channel": 4,
      "note": 76,
      "start": 61.7112,
      "duration": 0.018,
      "velocity": 86,
      "chip": "ym2612"
    },
    {
      "channel": 2,
      "note": 54,
      "start": 61.7136,
      "duration": 0.0185,
      "velocity": 93,
      "chip": "ym2612"
    },
    {
      "channel": 0,
      "note": 84,
      "start": 61.7268,
      "duration": 0.0142,
      "velocity": 124,
      "chip": "ym2612"
    },
    {
      "channel": 5,
      "note": 76,
      "start": 61.728,
      "duration": 0.0143,
      "velocity": 98,
      "chip": "ym2612"
    },
    {
      "channel": 4,
      "note": 76,
      "start": 61.7291,
      "duration": 0.0143,
      "velocity": 86,
      "chip": "ym2612"
    },
    {
      "channel": 3,
      "note": 81,
      "start": 61.7306,
      "duration": 0.0141,
      "velocity": 86,
      "chip": "ym2612"
    },
    {
      "channel": 2,
      "note": 54,
      "start": 61.732,
      "duration": 0.0139,
      "velocity": 93,
      "chip": "ym2612"
    },
    {
      "channel": 1,
      "note": 81,
      "start": 61.7335,
      "duration": 0.0136,
      "velocity": 98,
      "chip": "ym2612"
    },
    {
      "channel": 0,
      "note": 82,
      "start": 61.7411,
      "duration": 0.0161,
      "velocity": 124,
      "chip": "ym2612"
    },
    {
      "channel": 4,
      "note": 76,
      "start": 61.7434,
      "duration": 0.0163,
      "velocity": 86,
      "chip": "ym2612"
    },
    {
      "channel": 3,
      "note": 81,
      "start": 61.7447,
      "duration": 0.0163,
      "velocity": 86,
      "chip": "ym2612"
    },
    {
      "channel": 2,
      "note": 54,
      "start": 61.7459,
      "duration": 0.0162,
      "velocity": 93,
      "chip": "ym2612"
    },
    {
      "channel": 1,
      "note": 81,
      "start": 61.7471,
      "duration": 0.0162,
      "velocity": 98,
      "chip": "ym2612"
    },
    {
      "channel": 0,
      "note": 80,
      "start": 61.7572,
      "duration": 0.0161,
      "velocity": 124,
      "chip": "ym2612"
    },
    {
      "channel": 5,
      "note": 80,
      "start": 61.7586,
      "duration": 0.0159,
      "velocity": 98,
      "chip": "ym2612"
    },
    {
      "channel": 3,
      "note": 81,
      "start": 61.761,
      "duration": 0.0161,
      "velocity": 86,
      "chip": "ym2612"
    },
    {
      "channel": 2,
      "note": 54,
      "start": 61.7621,
      "duration": 0.0161,
      "velocity": 93,
      "chip": "ym2612"
    },
    {
      "channel": 1,
      "note": 81,
      "start": 61.7633,
      "duration": 0.0162,
      "velocity": 98,
      "chip": "ym2612"
    },
    {
      "channel": 0,
      "note": 77,
      "start": 61.7732,
      "duration": 0.0161,
      "velocity": 124,
      "chip": "ym2612"
    },
    {
      "channel": 5,
      "note": 80,
      "start": 61.7745,
      "duration": 0.016,
      "velocity": 98,
      "chip": "ym2612"
    },
    {
      "channel": 4,
      "note": 81,
      "start": 61.7759,
      "duration": 0.0158,
      "velocity": 86,
      "chip": "ym2612"
    },
    {
      "channel": 3,
      "note": 81,
      "start": 61.7771,
      "duration": 0.0158,
      "velocity": 86,
      "chip": "ym2612"
    },
    {
      "channel": 2,
      "note": 54,
      "start": 61.7783,
      "duration": 0.0158,
      "velocity": 93,
      "chip": "ym2612"
    },
    {
      "channel": 1,
      "note": 81,
      "start": 61.7794,
      "duration": 0.0158,
      "velocity": 98,
      "chip": "ym2612"
    },
    {
      "channel": 0,
      "note": 75,
      "start": 61.7893,
      "duration": 0.0161,
      "velocity": 124,
      "chip": "ym2612"
    },
    {
      "channel": 5,
      "note": 80,
      "start": 61.7905,
      "duration": 0.0161,
      "velocity": 98,
      "chip": "ym2612"
    },
    {
      "channel": 4,
      "note": 81,
      "start": 61.7917,
      "duration": 0.0161,
      "velocity": 86,
      "chip": "ym2612"
    },
    {
      "channel": 3,
      "note": 81,
      "start": 61.7929,
      "duration": 0.016,
      "velocity": 86,
      "chip": "ym2612"
    },
    {
      "channel": 2,
      "note": 54,
      "start": 61.7941,
      "duration": 0.016,
      "velocity": 93,
      "chip": "ym2612"
    },
    {
      "channel": 1,
      "note": 81,
      "start": 61.7952,
      "duration": 0.0161,
      "velocity": 98,
      "chip": "ym2612"
    },
    {
      "channel": 0,
      "note": 72,
      "start": 61.8054,
      "duration": 0.0161,
      "velocity": 124,
      "chip": "ym2612"
    },
    {
      "channel": 5,
      "note": 80,
      "start": 61.8066,
      "duration": 0.0161,
      "velocity": 98,
      "chip": "ym2612"
    },
    {
      "channel": 4,
      "note": 81,
      "start": 61.8078,
      "duration": 0.0161,
      "velocity": 86,
      "chip": "ym2612"
    },
    {
      "channel": 3,
      "note": 81,
      "start": 61.8089,
      "duration": 0.0161,
      "velocity": 86,
      "chip": "ym2612"
    },
    {
      "channel": 2,
      "note": 54,
      "start": 61.8101,
      "duration": 0.0161,
      "velocity": 93,
      "chip": "ym2612"
    },
    {
      "channel": 1,
      "note": 81,
      "start": 61.8113,
      "duration": 0.0161,
      "velocity": 98,
      "chip": "ym2612"
    },
    {
      "channel": 0,
      "note": 70,
      "start": 61.8215,
      "duration": 0.0161,
      "velocity": 124,
      "chip": "ym2612"
    },
    {
      "channel": 5,
      "note": 80,
      "start": 61.8227,
      "duration": 0.0162,
      "velocity": 98,
      "chip": "ym2612"
    },
    {
      "channel": 4,
      "note": 81,
      "start": 61.8239,
      "duration": 0.0161,
      "velocity": 86,
      "chip": "ym2612"
    },
    {
      "channel": 3,
      "note": 81,
      "start": 61.825,
      "duration": 0.0162,
      "velocity": 86,
      "chip": "ym2612"
    },
    {
      "channel": 2,
      "note": 54,
      "start": 61.8262,
      "duration": 0.0161,
      "velocity": 93,
      "chip": "ym2612"
    },
    {
      "channel": 1,
      "note": 81,
      "start": 61.8274,
      "duration": 0.0161,
      "velocity": 98,
      "chip": "ym2612"
    },
    {
      "channel": 0,
      "note": 68,
      "start": 61.8376,
      "duration": 0.0162,
      "velocity": 124,
      "chip": "ym2612"
    },
    {
      "channel": 5,
      "note": 80,
      "start": 61.8388,
      "duration": 0.0161,
      "velocity": 98,
      "chip": "ym2612"
    },
    {
      "channel": 4,
      "note": 81,
      "start": 61.84,
      "duration": 0.0162,
      "velocity": 86,
      "chip": "ym2612"
    },
    {
      "channel": 3,
      "note": 81,
      "start": 61.8412,
      "duration": 0.0161,
      "velocity": 86,
      "chip": "ym2612"
    },
    {
      "channel": 2,
      "note": 54,
      "start": 61.8423,
      "duration": 0.0162,
      "velocity": 93,
      "chip": "ym2612"
    },
    {
      "channel": 1,
      "note": 81,
      "start": 61.8435,
      "duration": 0.0161,
      "velocity": 98,
      "chip": "ym2612"
    },
    {
      "channel": 0,
      "note": 65,
      "start": 61.8538,
      "duration": 0.0164,
      "velocity": 124,
      "chip": "ym2612"
    },
    {
      "channel": 5,
      "note": 80,
      "start": 61.8549,
      "duration": 0.0164,
      "velocity": 98,
      "chip": "ym2612"
    },
    {
      "channel": 4,
      "note": 81,
      "start": 61.8561,
      "duration": 0.0163,
      "velocity": 86,
      "chip": "ym2612"
    },
    {
      "channel": 3,
      "note": 81,
      "start": 61.8573,
      "duration": 0.0164,
      "velocity": 86,
      "chip": "ym2612"
    },
    {
      "channel": 2,
      "note": 54,
      "start": 61.8585,
      "duration": 0.0165,
      "velocity": 93,
      "chip": "ym2612"
    },
    {
      "channel": 1,
      "note": 81,
      "start": 61.8596,
      "duration": 0.0165,
      "velocity": 98,
      "chip": "ym2612"
    },
    {
      "channel": 0,
      "note": 63,
      "start": 61.8702,
      "duration": 0.0155,
      "velocity": 1,
      "chip": "ym2612"
    },
    {
      "channel": 5,
      "note": 80,
      "start": 61.8713,
      "duration": 0.0155,
      "velocity": 98,
      "chip": "ym2612"
    },
    {
      "channel": 4,
      "note": 81,
      "start": 61.8725,
      "duration": 0.0155,
      "velocity": 86,
      "chip": "ym2612"
    },
    {
      "channel": 3,
      "note": 81,
      "start": 61.8737,
      "duration": 0.0155,
      "velocity": 86,
      "chip": "ym2612"
    },
    {
      "channel": 2,
      "note": 54,
      "start": 61.875,
      "duration": 0.0155,
      "velocity": 93,
      "chip": "ym2612"
    },
    {
      "channel": 1,
      "note": 81,
      "start": 61.8761,
      "duration": 0.0155,
      "velocity": 98,
      "chip": "ym2612"
    },
    {
      "channel": 5,
      "note": 80,
      "start": 61.8869,
      "duration": 0.0153,
      "velocity": 98,
      "chip": "ym2612"
    },
    {
      "channel": 4,
      "note": 81,
      "start": 61.888,
      "duration": 0.0153,
      "velocity": 86,
      "chip": "ym2612"
    },
    {
      "channel": 3,
      "note": 81,
      "start": 61.8892,
      "duration": 0.0153,
      "velocity": 86,
      "chip": "ym2612"
    },
    {
      "channel": 2,
      "note": 54,
      "start": 61.8904,
      "duration": 0.0153,
      "velocity": 93,
      "chip": "ym2612"
    },
    {
      "channel": 1,
      "note": 81,
      "start": 61.8916,
      "duration": 0.0153,
      "velocity": 98,
      "chip": "ym2612"
    },
    {
      "channel": 5,
      "note": 80,
      "start": 61.9021,
      "duration": 0.016,
      "velocity": 98,
      "chip": "ym2612"
    },
    {
      "channel": 4,
      "note": 81,
      "start": 61.9033,
      "duration": 0.0161,
      "velocity": 86,
      "chip": "ym2612"
    },
    {
      "channel": 2,
      "note": 54,
      "start": 61.9058,
      "duration": 0.0163,
      "velocity": 93,
      "chip": "ym2612"
    },
    {
      "channel": 5,
      "note": 80,
      "start": 61.9182,
      "duration": 0.0156,
      "velocity": 98,
      "chip": "ym2612"
    },
    {
      "channel": 4,
      "note": 81,
      "start": 61.9194,
      "duration": 0.0161,
      "velocity": 86,
      "chip": "ym2612"
    },
    {
      "channel": 3,
      "note": 85,
      "start": 61.9209,
      "duration": 0.0158,
      "velocity": 86,
      "chip": "ym2612"
    },
    {
      "channel": 2,
      "note": 54,
      "start": 61.922,
      "duration": 0.0159,
      "velocity": 93,
      "chip": "ym2612"
    },
    {
      "channel": 1,
      "note": 78,
      "start": 61.9235,
      "duration": 0.0156,
      "velocity": 98,
      "chip": "ym2612"
    },
    {
      "channel": 5,
      "note": 80,
      "start": 61.9337,
      "duration": 0.0161,
      "velocity": 98,
      "chip": "ym2612"
    },
    {
      "channel": 4,
      "note": 81,
      "start": 61.9355,
      "duration": 0.016,
      "velocity": 86,
      "chip": "ym2612"
    },
    {
      "channel": 3,
      "note": 85,
      "start": 61.9367,
      "duration": 0.016,
      "velocity": 86,
      "chip": "ym2612"
    },
    {
      "channel": 2,
      "note": 54,
      "start": 61.9379,
      "duration": 0.0161,
      "velocity": 93,
      "chip": "ym2612"
    },
    {
      "channel": 1,
      "note": 78,
      "start": 61.9391,
      "duration": 0.016,
      "velocity": 98,
      "chip": "ym2612"
    },
    {
      "channel": 5,
      "note": 80,
      "start": 61.9498,
      "duration": 0.0161,
      "velocity": 98,
      "chip": "ym2612"
    },
    {
      "channel": 3,
      "note": 85,
      "start": 61.9528,
      "duration": 0.0164,
      "velocity": 86,
      "chip": "ym2612"
    },
    {
      "channel": 2,
      "note": 54,
      "start": 61.954,
      "duration": 0.0164,
      "velocity": 93,
      "chip": "ym2612"
    },
    {
      "channel": 1,
      "note": 78,
      "start": 61.9551,
      "duration": 0.0164,
      "velocity": 98,
      "chip": "ym2612"
    },
    {
      "channel": 5,
      "note": 80,
      "start": 61.9659,
      "duration": 0.0161,
      "velocity": 98,
      "chip": "ym2612"
    },
    {
      "channel": 4,
      "note": 85,
      "start": 61.9677,
      "duration": 0.0156,
      "velocity": 86,
      "chip": "ym2612"
    },
    {
      "channel": 3,
      "note": 85,
      "start": 61.9692,
      "duration": 0.0158,
      "velocity": 86,
      "chip": "ym2612"
    },
    {
      "channel": 2,
      "note": 54,
      "start": 61.9704,
      "duration": 0.0159,
      "velocity": 93,
      "chip": "ym2612"
    },
    {
      "channel": 1,
      "note": 78,
      "start": 61.9715,
      "duration": 0.0158,
      "velocity": 98,
      "chip": "ym2612"
    },
    {
      "channel": 5,
      "note": 80,
      "start": 61.982,
      "duration": 0.0161,
      "velocity": 98,
      "chip": "ym2612"
    },
    {
      "channel": 4,
      "note": 85,
      "start": 61.9832,
      "duration": 0.016,
      "velocity": 86,
      "chip": "ym2612"
    },
    {
      "channel": 3,
      "note": 85,
      "start": 61.985,
      "duration": 0.0155,
      "velocity": 86,
      "chip": "ym2612"
    },
    {
      "channel": 2,
      "note": 54,
      "start": 61.9862,
      "duration": 0.0161,
      "velocity": 93,
      "chip": "ym2612"
    },
    {
      "channel": 1,
      "note": 78,
      "start": 61.9874,
      "duration": 0.0161,
      "velocity": 98,
      "chip": "ym2612"
    },
    {
      "channel": 5,
      "note": 80,
      "start": 61.9981,
      "duration": 0.0202,
      "velocity": 98,
      "chip": "ym2612"
    },
    {
      "channel": 4,
      "note": 85,
      "start": 61.9993,
      "duration": 0.0202,
      "velocity": 86,
      "chip": "ym2612"
    },
    {
      "channel": 3,
      "note": 85,
      "start": 62.0005,
      "duration": 0.0202,
      "velocity": 86,
      "chip": "ym2612"
    },
    {
      "channel": 2,
      "note": 54,
      "start": 62.0023,
      "duration": 0.0198,
      "velocity": 93,
      "chip": "ym2612"
    },
    {
      "channel": 1,
      "note": 78,
      "start": 62.0035,
      "duration": 0.0198,
      "velocity": 98,
      "chip": "ym2612"
    },
    {
      "channel": 0,
      "note": 36,
      "start": 62.0166,
      "duration": 0.0143,
      "velocity": 115,
      "chip": "ym2612"
    },
    {
      "channel": 5,
      "note": 80,
      "start": 62.0183,
      "duration": 0.0138,
      "velocity": 98,
      "chip": "ym2612"
    },
    {
      "channel": 4,
      "note": 85,
      "start": 62.0195,
      "duration": 0.0137,
      "velocity": 86,
      "chip": "ym2612"
    },
    {
      "channel": 3,
      "note": 85,
      "start": 62.0207,
      "duration": 0.0143,
      "velocity": 86,
      "chip": "ym2612"
    },
    {
      "channel": 2,
      "note": 54,
      "start": 62.0222,
      "duration": 0.0141,
      "velocity": 93,
      "chip": "ym2612"
    },
    {
      "channel": 1,
      "note": 78,
      "start": 62.0233,
      "duration": 0.0141,
      "velocity": 98,
      "chip": "ym2612"
    },
    {
      "channel": 0,
      "note": 36,
      "start": 62.0309,
      "duration": 0.016,
      "velocity": 115,
      "chip": "ym2612"
    },
    {
      "channel": 4,
      "note": 85,
      "start": 62.0332,
      "duration": 0.0163,
      "velocity": 86,
      "chip": "ym2612"
    },
    {
      "channel": 3,
      "note": 85,
      "start": 62.035,
      "duration": 0.016,
      "velocity": 86,
      "chip": "ym2612"
    },
    {
      "channel": 2,
      "note": 54,
      "start": 62.0363,
      "duration": 0.0162,
      "velocity": 93,
      "chip": "ym2612"
    },
    {
      "channel": 1,
      "note": 78,
      "start": 62.0374,
      "duration": 0.0162,
      "velocity": 98,
      "chip": "ym2612"
    },
    {
      "channel": 0,
      "note": 37,
      "start": 62.0469,
      "duration": 0.0162,
      "velocity": 115,
      "chip": "ym2612"
    },
    {
      "channel": 5,
      "note": 81,
      "start": 62.0484,
      "duration": 0.0159,
      "velocity": 98,
      "chip": "ym2612"
    },
    {
      "channel": 4,
      "note": 85,
      "start": 62.0496,
      "duration": 0.0158,
      "velocity": 86,
      "chip": "ym2612"
    },
    {
      "channel": 3,
      "note": 85,
      "start": 62.051,
      "duration": 0.0156,
      "velocity": 86,
      "chip": "ym2612"
    },
    {
      "channel": 2,
      "note": 54,
      "start": 62.0525,
      "duration": 0.0158,
      "velocity": 93,
      "chip": "ym2612"
    },
    {
      "channel": 1,
      "note": 78,
      "start": 62.0537,
      "duration": 0.0159,
      "velocity": 98,
      "chip": "ym2612"
    },
    {
      "channel": 0,
      "note": 37,
      "start": 62.0631,
      "duration": 0.0161,
      "velocity": 115,
      "chip": "ym2612"
    },
    {
      "channel": 5,
      "note": 81,
      "start": 62.0643,
      "duration": 0.016,
      "velocity": 98,
      "chip": "ym2612"
    },
    {
      "channel": 4,
      "note": 85,
      "start": 62.0654,
      "duration": 0.0161,
      "velocity": 86,
      "chip": "ym2612"
    },
    {
      "channel": 3,
      "note": 85,
      "start": 62.0666,
      "duration": 0.016,
      "velocity": 86,
      "chip": "ym2612"
    },
    {
      "channel": 2,
      "note": 54,
      "start": 62.0683,
      "duration": 0.0157,
      "velocity": 93,
      "chip": "ym2612"
    },
    {
      "channel": 1,
      "note": 78,
      "start": 62.0696,
      "duration": 0.016,
      "velocity": 98,
      "chip": "ym2612"
    },
    {
      "channel": 0,
      "note": 38,
      "start": 62.0792,
      "duration": 0.0161,
      "velocity": 115,
      "chip": "ym2612"
    },
    {
      "channel": 5,
      "note": 81,
      "start": 62.0803,
      "duration": 0.0161,
      "velocity": 98,
      "chip": "ym2612"
    },
    {
      "channel": 4,
      "note": 85,
      "start": 62.0815,
      "duration": 0.0161,
      "velocity": 86,
      "chip": "ym2612"
    },
    {
      "channel": 3,
      "note": 85,
      "start": 62.0827,
      "duration": 0.0161,
      "velocity": 86,
      "chip": "ym2612"
    },
    {
      "channel": 2,
      "note": 54,
      "start": 62.0841,
      "duration": 0.0159,
      "velocity": 93,
      "chip": "ym2612"
    },
    {
      "channel": 1,
      "note": 78,
      "start": 62.0856,
      "duration": 0.016,
      "velocity": 98,
      "chip": "ym2612"
    },
    {
      "channel": 0,
      "note": 38,
      "start": 62.0953,
      "duration": 0.0161,
      "velocity": 115,
      "chip": "ym2612"
    },
    {
      "channel": 5,
      "note": 81,
      "start": 62.0964,
      "duration": 0.0161,
      "velocity": 98,
      "chip": "ym2612"
    },
    {
      "channel": 4,
      "note": 85,
      "start": 62.0976,
      "duration": 0.0161,
      "velocity": 86,
      "chip": "ym2612"
    },
    {
      "channel": 3,
      "note": 85,
      "start": 62.0988,
      "duration": 0.0161,
      "velocity": 86,
      "chip": "ym2612"
    },
    {
      "channel": 2,
      "note": 54,
      "start": 62.1,
      "duration": 0.0161,
      "velocity": 93,
      "chip": "ym2612"
    },
    {
      "channel": 1,
      "note": 78,
      "start": 62.1016,
      "duration": 0.0158,
      "velocity": 98,
      "chip": "ym2612"
    },
    {
      "channel": 0,
      "note": 39,
      "start": 62.1114,
      "duration": 0.0161,
      "velocity": 115,
      "chip": "ym2612"
    },
    {
      "channel": 5,
      "note": 81,
      "start": 62.1125,
      "duration": 0.0161,
      "velocity": 98,
      "chip": "ym2612"
    },
    {
      "channel": 4,
      "note": 85,
      "start": 62.1137,
      "duration": 0.0161,
      "velocity": 86,
      "chip": "ym2612"
    },
    {
      "channel": 3,
      "note": 85,
      "start": 62.1149,
      "duration": 0.0161,
      "velocity": 86,
      "chip": "ym2612"
    },
    {
      "channel": 2,
      "note": 54,
      "start": 62.1161,
      "duration": 0.0161,
      "velocity": 93,
      "chip": "ym2612"
    },
    {
      "channel": 1,
      "note": 78,
      "start": 62.1174,
      "duration": 0.0159,
      "velocity": 98,
      "chip": "ym2612"
    },
    {
      "channel": 0,
      "note": 39,
      "start": 62.1275,
      "duration": 0.0161,
      "velocity": 115,
      "chip": "ym2612"
    },
    {
      "channel": 5,
      "note": 81,
      "start": 62.1286,
      "duration": 0.0162,
      "velocity": 98,
      "chip": "ym2612"
    },
    {
      "channel": 4,
      "note": 85,
      "start": 62.1298,
      "duration": 0.0161,
      "velocity": 86,
      "chip": "ym2612"
    },
    {
      "channel": 3,
      "note": 85,
      "start": 62.131,
      "duration": 0.0161,
      "velocity": 86,
      "chip": "ym2612"
    },
    {
      "channel": 2,
      "note": 54,
      "start": 62.1322,
      "duration": 0.0161,
      "velocity": 93,
      "chip": "ym2612"
    },
    {
      "channel": 1,
      "note": 78,
      "start": 62.1333,
      "duration": 0.0161,
      "velocity": 98,
      "chip": "ym2612"
    },
    {
      "channel": 0,
      "note": 40,
      "start": 62.1435,
      "duration": 0.0161,
      "velocity": 115,
      "chip": "ym2612"
    },
    {
      "channel": 5,
      "note": 81,
      "start": 62.1448,
      "duration": 0.0161,
      "velocity": 98,
      "chip": "ym2612"
    },
    {
      "channel": 4,
      "note": 85,
      "start": 62.1459,
      "duration": 0.0161,
      "velocity": 86,
      "chip": "ym2612"
    },
    {
      "channel": 3,
      "note": 85,
      "start": 62.1471,
      "duration": 0.0161,
      "velocity": 86,
      "chip": "ym2612"
    },
    {
      "channel": 2,
      "note": 54,
      "start": 62.1483,
      "duration": 0.0162,
      "velocity": 93,
      "chip": "ym2612"
    },
    {
      "channel": 1,
      "note": 78,
      "start": 62.1495,
      "duration": 0.0162,
      "velocity": 98,
      "chip": "ym2612"
    },
    {
      "channel": 0,
      "note": 40,
      "start": 62.1596,
      "duration": 0.0161,
      "velocity": 115,
      "chip": "ym2612"
    },
    {
      "channel": 5,
      "note": 81,
      "start": 62.1608,
      "duration": 0.0161,
      "velocity": 98,
      "chip": "ym2612"
    },
    {
      "channel": 4,
      "note": 85,
      "start": 62.162,
      "duration": 0.0161,
      "velocity": 86,
      "chip": "ym2612"
    },
    {
      "channel": 3,
      "note": 85,
      "start": 62.1632,
      "duration": 0.0161,
      "velocity": 86,
      "chip": "ym2612"
    },
    {
      "channel": 2,
      "note": 54,
      "start": 62.1644,
      "duration": 0.0161,
      "velocity": 93,
      "chip": "ym2612"
    },
    {
      "channel": 1,
      "note": 78,
      "start": 62.1656,
      "duration": 0.016,
      "velocity": 98,
      "chip": "ym2612"
    },
    {
      "channel": 0,
      "note": 40,
      "start": 62.1757,
      "duration": 0.0161,
      "velocity": 115,
      "chip": "ym2612"
    },
    {
      "channel": 5,
      "note": 81,
      "start": 62.1769,
      "duration": 0.0161,
      "velocity": 98,
      "chip": "ym2612"
    },
    {
      "channel": 4,
      "note": 85,
      "start": 62.1781,
      "duration": 0.0161,
      "velocity": 86,
      "chip": "ym2612"
    },
    {
      "channel": 3,
      "note": 85,
      "start": 62.1793,
      "duration": 0.0161,
      "velocity": 86,
      "chip": "ym2612"
    },
    {
      "channel": 2,
      "note": 54,
      "start": 62.1805,
      "duration": 0.0162,
      "velocity": 93,
      "chip": "ym2612"
    },
    {
      "channel": 1,
      "note": 78,
      "start": 62.1817,
      "duration": 0.0161,
      "velocity": 98,
      "chip": "ym2612"
    },
    {
      "channel": 0,
      "note": 41,
      "start": 62.1918,
      "duration": 0.0179,
      "velocity": 115,
      "chip": "ym2612"
    },
    {
      "channel": 5,
      "note": 81,
      "start": 62.193,
      "duration": 0.0179,
      "velocity": 98,
      "chip": "ym2612"
    },
    {
      "channel": 4,
      "note": 85,
      "start": 62.1942,
      "duration": 0.018,
      "velocity": 86,
      "chip": "ym2612"
    },
    {
      "channel": 2,
      "note": 54,
      "start": 62.1967,
      "duration": 0.0181,
      "velocity": 93,
      "chip": "ym2612"
    },
    {
      "channel": 0,
      "note": 36,
      "start": 62.2098,
      "duration": 0.0143,
      "velocity": 115,
      "chip": "ym2612"
    },
    {
      "channel": 5,
      "note": 81,
      "start": 62.211,
      "duration": 0.0143,
      "velocity": 98,
      "chip": "ym2612"
    },
    {
      "channel": 4,
      "note": 85,
      "start": 62.2122,
      "duration": 0.0143,
      "velocity": 86,
      "chip": "ym2612"
    },
    {
      "channel": 3,
      "note": 76,
      "start": 62.2137,
      "duration": 0.0141,
      "velocity": 86,
      "chip": "ym2612"
    },
    {
      "channel": 2,
      "note": 54,
      "start": 62.2148,
      "duration": 0.0141,
      "velocity": 93,
      "chip": "ym2612"
    },
    {
      "channel": 1,
      "note": 73,
      "start": 62.2163,
      "duration": 0.0139,
      "velocity": 98,
      "chip": "ym2612"
    },
    {
      "channel": 0,
      "note": 36,
      "start": 62.2241,
      "duration": 0.016,
      "velocity": 115,
      "chip": "ym2612"
    },
    {
      "channel": 4,
      "note": 85,
      "start": 62.2265,
      "duration": 0.0163,
      "velocity": 86,
      "chip": "ym2612"
    },
    {
      "channel": 3,
      "note": 76,
      "start": 62.2277,
      "duration": 0.0163,
      "velocity": 86,
      "chip": "ym2612"
    },
    {
      "channel": 2,
      "note": 54,
      "start": 62.2288,
      "duration": 0.0163,
      "velocity": 93,
      "chip": "ym2612"
    },
    {
      "channel": 1,
      "note": 73,
      "start": 62.2301,
      "duration": 0.0162,
      "velocity": 98,
      "chip": "ym2612"
    },
    {
      "channel": 0,
      "note": 37,
      "start": 62.2402,
      "duration": 0.0161,
      "velocity": 115,
      "chip": "ym2612"
    },
    {
      "channel": 5,
      "note": 78,
      "start": 62.2416,
      "duration": 0.0159,
      "velocity": 98,
      "chip": "ym2612"
    },
    {
      "channel": 3,
      "note": 76,
      "start": 62.244,
      "duration": 0.0162,
      "velocity": 86,
      "chip": "ym2612"
    },
    {
      "channel": 2,
      "note": 54,
      "start": 62.2452,
      "duration": 0.0162,
      "velocity": 93,
      "chip": "ym2612"
    },
    {
      "channel": 1,
      "note": 73,
      "start": 62.2463,
      "duration": 0.0161,
      "velocity": 98,
      "chip": "ym2612"
    },
    {
      "channel": 0,
      "note": 37,
      "start": 62.2563,
      "duration": 0.0161,
      "velocity": 115,
      "chip": "ym2612"
    },
    {
      "channel": 5,
      "note": 78,
      "start": 62.2575,
      "duration": 0.016,
      "velocity": 98,
      "chip": "ym2612"
    },
    {
      "channel": 4,
      "note": 76,
      "start": 62.259,
      "duration": 0.0157,
      "velocity": 86,
      "chip": "ym2612"
    },
    {
      "channel": 3,
      "note": 76,
      "start": 62.2602,
      "duration": 0.0158,
      "velocity": 86,
      "chip": "ym2612"
    },
    {
      "channel": 2,
      "note": 54,
      "start": 62.2614,
      "duration": 0.0158,
      "velocity": 93,
      "chip": "ym2612"
    },
    {
      "channel": 1,
      "note": 73,
      "start": 62.2625,
      "duration": 0.0159,
      "velocity": 98,
      "chip": "ym2612"
    },
    {
      "channel": 0,
      "note": 38,
      "start": 62.2724,
      "duration": 0.0161,
      "velocity": 115,
      "chip": "ym2612"
    },
    {
      "channel": 5,
      "note": 78,
      "start": 62.2735,
      "duration": 0.0161,
      "velocity": 98,
      "chip": "ym2612"
    },
    {
      "channel": 4,
      "note": 76,
      "start": 62.2747,
      "duration": 0.0161,
      "velocity": 86,
      "chip": "ym2612"
    },
    {
      "channel": 3,
      "note": 76,
      "start": 62.2759,
      "duration": 0.0161,
      "velocity": 86,
      "chip": "ym2612"
    },
    {
      "channel": 2,
      "note": 54,
      "start": 62.2771,
      "duration": 0.0161,
      "velocity": 93,
      "chip": "ym2612"
    },
    {
      "channel": 1,
      "note": 73,
      "start": 62.2783,
      "duration": 0.0161,
      "velocity": 98,
      "chip": "ym2612"
    },
    {
      "channel": 0,
      "note": 38,
      "start": 62.2885,
      "duration": 0.0179,
      "velocity": 124,
      "chip": "ym2612"
    },
    {
      "channel": 5,
      "note": 78,
      "start": 62.2897,
      "duration": 0.0179,
      "velocity": 98,
      "chip": "ym2612"
    },
    {
      "channel": 4,
      "note": 76,
      "start": 62.2908,
      "duration": 0.0179,
      "velocity": 86,
      "chip": "ym2612"
    },
    {
      "channel": 2,
      "note": 54,
      "start": 62.2932,
      "duration": 0.0185,
      "velocity": 93,
      "chip": "ym2612"
    },
    {
      "channel": 1,
      "note": 73,
      "start": 62.2944,
      "duration": 0.0184,
      "velocity": 98,
      "chip": "ym2612"
    },
    {
      "channel": 0,
      "note": 84,
      "start": 62.3065,
      "duration": 0.0142,
      "velocity": 124,
      "chip": "ym2612"
    },
    {
      "channel": 5,
      "note": 78,
      "start": 62.3076,
      "duration": 0.0143,
      "velocity": 98,
      "chip": "ym2612"
    },
    {
      "channel": 4,
      "note": 76,
      "start": 62.3088,
      "duration": 0.0143,
      "velocity": 86,
      "chip": "ym2612"
    },
    {
      "channel": 3,
      "note": 81,
      "start": 62.3103,
      "duration": 0.0141,
      "velocity": 86,
      "chip": "ym2612"
    },
    {
      "channel": 2,
      "note": 54,
      "start": 62.3117,
      "duration": 0.0139,
      "velocity": 93,
      "chip": "ym2612"
    },
    {
      "channel": 1,
      "note": 73,
      "start": 62.3129,
      "duration": 0.0138,
      "velocity": 98,
      "chip": "ym2612"
    },
    {
      "channel": 0,
      "note": 82,
      "start": 62.3207,
      "duration": 0.0161,
      "velocity": 124,
      "chip": "ym2612"
    },
    {
      "channel": 5,
      "note": 78,
      "start": 62.3219,
      "duration": 0.0161,
      "velocity": 98,
      "chip": "ym2612"
    },
    {
      "channel": 4,
      "note": 76,
      "start": 62.3231,
      "duration": 0.0161,
      "velocity": 86,
      "chip": "ym2612"
    },
    {
      "channel": 3,
      "note": 81,
      "start": 62.3243,
      "duration": 0.016,
      "velocity": 86,
      "chip": "ym2612"
    },
    {
      "channel": 2,
      "note": 54,
      "start": 62.3255,
      "duration": 0.016,
      "velocity": 93,
      "chip": "ym2612"
    },
    {
      "channel": 1,
      "note": 73,
      "start": 62.3267,
      "duration": 0.016,
      "velocity": 98,
      "chip": "ym2612"
    },
    {
      "channel": 0,
      "note": 80,
      "start": 62.3368,
      "duration": 0.0165,
      "velocity": 124,
      "chip": "ym2612"
    },
    {
      "channel": 5,
      "note": 78,
      "start": 62.338,
      "duration": 0.0164,
      "velocity": 98,
      "chip": "ym2612"
    },
    {
      "channel": 3,
      "note": 81,
      "start": 62.3404,
      "duration": 0.0167,
      "velocity": 86,
      "chip": "ym2612"
    },
    {
      "channel": 2,
      "note": 54,
      "start": 62.3415,
      "duration": 0.0167,
      "velocity": 93,
      "chip": "ym2612"
    },
    {
      "channel": 1,
      "note": 73,
      "start": 62.3427,
      "duration": 0.0167,
      "velocity": 98,
      "chip": "ym2612"
    },
    {
      "channel": 0,
      "note": 77,
      "start": 62.3533,
      "duration": 0.0163,
      "velocity": 124,
      "chip": "ym2612"
    },
    {
      "channel": 5,
      "note": 78,
      "start": 62.3544,
      "duration": 0.0163,
      "velocity": 98,
      "chip": "ym2612"
    },
    {
      "channel": 4,
      "note": 81,
      "start": 62.3559,
      "duration": 0.0161,
      "velocity": 86,
      "chip": "ym2612"
    },
    {
      "channel": 3,
      "note": 81,
      "start": 62.3571,
      "duration": 0.016,
      "velocity": 86,
      "chip": "ym2612"
    },
    {
      "channel": 2,
      "note": 54,
      "start": 62.3582,
      "duration": 0.016,
      "velocity": 93,
      "chip": "ym2612"
    },
    {
      "channel": 1,
      "note": 73,
      "start": 62.3594,
      "duration": 0.0161,
      "velocity": 98,
      "chip": "ym2612"
    },
    {
      "channel": 0,
      "note": 75,
      "start": 62.3696,
      "duration": 0.0161,
      "velocity": 124,
      "chip": "ym2612"
    },
    {
      "channel": 5,
      "note": 78,
      "start": 62.3707,
      "duration": 0.0162,
      "velocity": 98,
      "chip": "ym2612"
    },
    {
      "channel": 4,
      "note": 81,
      "start": 62.372,
      "duration": 0.016,
      "velocity": 86,
      "chip": "ym2612"
    },
    {
      "channel": 3,
      "note": 81,
      "start": 62.3731,
      "duration": 0.016,
      "velocity": 86,
      "chip": "ym2612"
    },
    {
      "channel": 2,
      "note": 54,
      "start": 62.3743,
      "duration": 0.0161,
      "velocity": 93,
      "chip": "ym2612"
    },
    {
      "channel": 1,
      "note": 73,
      "start": 62.3755,
      "duration": 0.016,
      "velocity": 98,
      "chip": "ym2612"
    },
    {
      "channel": 0,
      "note": 72,
      "start": 62.3857,
      "duration": 0.016,
      "velocity": 124,
      "chip": "ym2612"
    },
    {
      "channel": 5,
      "note": 78,
      "start": 62.3869,
      "duration": 0.0161,
      "velocity": 98,
      "chip": "ym2612"
    },
    {
      "channel": 4,
      "note": 81,
      "start": 62.388,
      "duration": 0.0161,
      "velocity": 86,
      "chip": "ym2612"
    },
    {
      "channel": 3,
      "note": 81,
      "start": 62.3892,
      "duration": 0.0161,
      "velocity": 86,
      "chip": "ym2612"
    },
    {
      "channel": 2,
      "note": 54,
      "start": 62.3904,
      "duration": 0.0161,
      "velocity": 93,
      "chip": "ym2612"
    },
    {
      "channel": 1,
      "note": 73,
      "start": 62.3915,
      "duration": 0.0161,
      "velocity": 98,
      "chip": "ym2612"
    },
    {
      "channel": 0,
      "note": 70,
      "start": 62.4017,
      "duration": 0.0158,
      "velocity": 124,
      "chip": "ym2612"
    },
    {
      "channel": 5,
      "note": 78,
      "start": 62.403,
      "duration": 0.016,
      "velocity": 98,
      "chip": "ym2612"
    },
    {
      "channel": 4,
      "note": 81,
      "start": 62.4041,
      "duration": 0.0161,
      "velocity": 86,
      "chip": "ym2612"
    },
    {
      "channel": 3,
      "note": 81,
      "start": 62.4053,
      "duration": 0.0161,
      "velocity": 86,
      "chip": "ym2612"
    },
    {
      "channel": 2,
      "note": 54,
      "start": 62.4065,
      "duration": 0.0161,
      "velocity": 93,
      "chip": "ym2612"
    },
    {
      "channel": 1,
      "note": 73,
      "start": 62.4076,
      "duration": 0.0161,
      "velocity": 98,
      "chip": "ym2612"
    },
    {
      "channel": 0,
      "note": 68,
      "start": 62.4175,
      "duration": 0.0159,
      "velocity": 124,
      "chip": "ym2612"
    },
    {
      "channel": 5,
      "note": 78,
      "start": 62.419,
      "duration": 0.016,
      "velocity": 98,
      "chip": "ym2612"
    },
    {
      "channel": 4,
      "note": 81,
      "start": 62.4202,
      "duration": 0.0161,
      "velocity": 86,
      "chip": "ym2612"
    },
    {
      "channel": 3,
      "note": 81,
      "start": 62.4213,
      "duration": 0.0161,
      "velocity": 86,
      "chip": "ym2612"
    },
    {
      "channel": 2,
      "note": 54,
      "start": 62.4226,
      "duration": 0.0161,
      "velocity": 93,
      "chip": "ym2612"
    },
    {
      "channel": 1,
      "note": 73,
      "start": 62.4237,
      "duration": 0.0161,
      "velocity": 98,
      "chip": "ym2612"
    },
    {
      "channel": 0,
      "note": 65,
      "start": 62.4334,
      "duration": 0.0161,
      "velocity": 124,
      "chip": "ym2612"
    },
    {
      "channel": 5,
      "note": 78,
      "start": 62.435,
      "duration": 0.0159,
      "velocity": 98,
      "chip": "ym2612"
    },
    {
      "channel": 4,
      "note": 81,
      "start": 62.4363,
      "duration": 0.0161,
      "velocity": 86,
      "chip": "ym2612"
    },
    {
      "channel": 3,
      "note": 81,
      "start": 62.4374,
      "duration": 0.0162,
      "velocity": 86,
      "chip": "ym2612"
    },
    {
      "channel": 2,
      "note": 54,
      "start": 62.4386,
      "duration": 0.0162,
      "velocity": 93,
      "chip": "ym2612"
    },
    {
      "channel": 1,
      "note": 73,
      "start": 62.4398,
      "duration": 0.0162,
      "velocity": 98,
      "chip": "ym2612"
    },
    {
      "channel": 0,
      "note": 63,
      "start": 62.4495,
      "duration": 0.0153,
      "velocity": 1,
      "chip": "ym2612"
    },
    {
      "channel": 5,
      "note": 78,
      "start": 62.4509,
      "duration": 0.0151,
      "velocity": 98,
      "chip": "ym2612"
    },
    {
      "channel": 4,
      "note": 81,
      "start": 62.4524,
      "duration": 0.0149,
      "velocity": 86,
      "chip": "ym2612"
    },
    {
      "channel": 3,
      "note": 81,
      "start": 62.4536,
      "duration": 0.0153,
      "velocity": 86,
      "chip": "ym2612"
    },
    {
      "channel": 2,
      "note": 54,
      "start": 62.4549,
      "duration": 0.0153,
      "velocity": 93,
      "chip": "ym2612"
    },
    {
      "channel": 1,
      "note": 73,
      "start": 62.456,
      "duration": 0.0153,
      "velocity": 98,
      "chip": "ym2612"
    },
    {
      "channel": 5,
      "note": 78,
      "start": 62.4659,
      "duration": 0.0152,
      "velocity": 98,
      "chip": "ym2612"
    },
    {
      "channel": 4,
      "note": 81,
      "start": 62.4673,
      "duration": 0.015,
      "velocity": 86,
      "chip": "ym2612"
    },
    {
      "channel": 3,
      "note": 81,
      "start": 62.4689,
      "duration": 0.0146,
      "velocity": 86,
      "chip": "ym2612"
    },
    {
      "channel": 2,
      "note": 54,
      "start": 62.4701,
      "duration": 0.0152,
      "velocity": 93,
      "chip": "ym2612"
    },
    {
      "channel": 1,
      "note": 73,
      "start": 62.4713,
      "duration": 0.0153,
      "velocity": 98,
      "chip": "ym2612"
    },
    {
      "channel": 5,
      "note": 78,
      "start": 62.4811,
      "duration": 0.0161,
      "velocity": 98,
      "chip": "ym2612"
    },
    {
      "channel": 4,
      "note": 81,
      "start": 62.4824,
      "duration": 0.0161,
      "velocity": 86,
      "chip": "ym2612"
    },
    {
      "channel": 2,
      "note": 54,
      "start": 62.4853,
      "duration": 0.0163,
      "velocity": 93,
      "chip": "ym2612"
    },
    {
      "channel": 1,
      "note": 73,
      "start": 62.4866,
      "duration": 0.0163,
      "velocity": 98,
      "chip": "ym2612"
    },
    {
      "channel": 5,
      "note": 78,
      "start": 62.4972,
      "duration": 0.0162,
      "velocity": 98,
      "chip": "ym2612"
    },
    {
      "channel": 4,
      "note": 81,
      "start": 62.4984,
      "duration": 0.0161,
      "velocity": 86,
      "chip": "ym2612"
    },
    {
      "channel": 3,
      "note": 85,
      "start": 62.5,
      "duration": 0.0158,
      "velocity": 86,
      "chip": "ym2612"
    },
    {
      "channel": 2,
      "note": 54,
      "start": 62.5016,
      "duration": 0.0153,
      "velocity": 93,
      "chip": "ym2612"
    },
    {
      "channel": 1,
      "note": 73,
      "start": 62.5029,
      "duration": 0.0158,
      "velocity": 98,
      "chip": "ym2612"
    },
    {
      "channel": 4,
      "note": 81,
      "start": 62.5145,
      "duration": 0.0164,
      "velocity": 86,
      "chip": "ym2612"
    },
    {
      "channel": 3,
      "note": 85,
      "start": 62.5158,
      "duration": 0.0163,
      "velocity": 86,
      "chip": "ym2612"
    },
    {
      "channel": 2,
      "note": 54,
      "start": 62.517,
      "duration": 0.0163,
      "velocity": 93,
      "chip": "ym2612"
    },
    {
      "channel": 1,
      "note": 73,
      "start": 62.5187,
      "duration": 0.0163,
      "velocity": 98,
      "chip": "ym2612"
    },
    {
      "channel": 5,
      "note": 73,
      "start": 62.5298,
      "duration": 0.0159,
      "velocity": 98,
      "chip": "ym2612"
    },
    {
      "channel": 3,
      "note": 85,
      "start": 62.5322,
      "duration": 0.0162,
      "velocity": 86,
      "chip": "ym2612"
    },
    {
      "channel": 2,
      "note": 54,
      "start": 62.5333,
      "duration": 0.0161,
      "velocity": 93,
      "chip": "ym2612"
    },
    {
      "channel": 1,
      "note": 73,
      "start": 62.535,
      "duration": 0.0159,
      "velocity": 98,
      "chip": "ym2612"
    },
    {
      "channel": 5,
      "note": 73,
      "start": 62.5456,
      "duration": 0.016,
      "velocity": 98,
      "chip": "ym2612"
    },
    {
      "channel": 4,
      "note": 85,
      "start": 62.5472,
      "duration": 0.0157,
      "velocity": 86,
      "chip": "ym2612"
    },
    {
      "channel": 3,
      "note": 85,
      "start": 62.5483,
      "duration": 0.0158,
      "velocity": 86,
      "chip": "ym2612"
    },
    {
      "channel": 2,
      "note": 54,
      "start": 62.5495,
      "duration": 0.0159,
      "velocity": 93,
      "chip": "ym2612"
    },
    {
      "channel": 1,
      "note": 73,
      "start": 62.5509,
      "duration": 0.0156,
      "velocity": 98,
      "chip": "ym2612"
    },
    {
      "channel": 5,
      "note": 73,
      "start": 62.5617,
      "duration": 0.0161,
      "velocity": 98,
      "chip": "ym2612"
    },
    {
      "channel": 4,
      "note": 85,
      "start": 62.5629,
      "duration": 0.016,
      "velocity": 86,
      "chip": "ym2612"
    },
    {
      "channel": 3,
      "note": 85,
      "start": 62.5641,
      "duration": 0.016,
      "velocity": 86,
      "chip": "ym2612"
    },
    {
      "channel": 2,
      "note": 54,
      "start": 62.5653,
      "duration": 0.0161,
      "velocity": 93,
      "chip": "ym2612"
    },
    {
      "channel": 1,
      "note": 73,
      "start": 62.5664,
      "duration": 0.0161,
      "velocity": 98,
      "chip": "ym2612"
    },
    {
      "channel": 5,
      "note": 73,
      "start": 62.5778,
      "duration": 0.0197,
      "velocity": 98,
      "chip": "ym2612"
    },
    {
      "channel": 4,
      "note": 85,
      "start": 62.5789,
      "duration": 0.0197,
      "velocity": 86,
      "chip": "ym2612"
    },
    {
      "channel": 2,
      "note": 54,
      "start": 62.5814,
      "duration": 0.0209,
      "velocity": 93,
      "chip": "ym2612"
    },
    {
      "channel": 1,
      "note": 73,
      "start": 62.5825,
      "duration": 0.0209,
      "velocity": 98,
      "chip": "ym2612"
    },
    {
      "channel": 0,
      "note": 36,
      "start": 62.5962,
      "duration": 0.0143,
      "velocity": 115,
      "chip": "ym2612"
    },
    {
      "channel": 5,
      "note": 73,
      "start": 62.5974,
      "duration": 0.0143,
      "velocity": 98,
      "chip": "ym2612"
    },
    {
      "channel": 4,
      "note": 85,
      "start": 62.5986,
      "duration": 0.0143,
      "velocity": 86,
      "chip": "ym2612"
    },
    {
      "channel": 3,
      "note": 86,
      "start": 62.6002,
      "duration": 0.0139,
      "velocity": 86,
      "chip": "ym2612"
    },
    {
      "channel": 2,
      "note": 59,
      "start": 62.6023,
      "duration": 0.013,
      "velocity": 93,
      "chip": "ym2612"
    },
    {
      "channel": 1,
      "note": 73,
      "start": 62.6035,
      "duration": 0.013,
      "velocity": 98,
      "chip": "ym2612"
    },
    {
      "channel": 0,
      "note": 36,
      "start": 62.6105,
      "duration": 0.016,
      "velocity": 115,
      "chip": "ym2612"
    },
    {
      "channel": 5,
      "note": 73,
      "start": 62.6117,
      "duration": 0.016,
      "velocity": 98,
      "chip": "ym2612"
    },
    {
      "channel": 4,
      "note": 85,
      "start": 62.6129,
      "duration": 0.016,
      "velocity": 86,
      "chip": "ym2612"
    },
    {
      "channel": 3,
      "note": 86,
      "start": 62.6141,
      "duration": 0.016,
      "velocity": 86,
      "chip": "ym2612"
    },
    {
      "channel": 2,
      "note": 59,
      "start": 62.6154,
      "duration": 0.0159,
      "velocity": 93,
      "chip": "ym2612"
    },
    {
      "channel": 1,
      "note": 73,
      "start": 62.6165,
      "duration": 0.0159,
      "velocity": 98,
      "chip": "ym2612"
    },
    {
      "channel": 0,
      "note": 37,
      "start": 62.6266,
      "duration": 0.0161,
      "velocity": 115,
      "chip": "ym2612"
    },
    {
      "channel": 5,
      "note": 73,
      "start": 62.6278,
      "duration": 0.0161,
      "velocity": 98,
      "chip": "ym2612"
    },
    {
      "channel": 3,
      "note": 86,
      "start": 62.6301,
      "duration": 0.0166,
      "velocity": 86,
      "chip": "ym2612"
    },
    {
      "channel": 2,
      "note": 59,
      "start": 62.6313,
      "duration": 0.0165,
      "velocity": 93,
      "chip": "ym2612"
    },
    {
      "channel": 1,
      "note": 73,
      "start": 62.6324,
      "duration": 0.0166,
      "velocity": 98,
      "chip": "ym2612"
    },
    {
      "channel": 0,
      "note": 37,
      "start": 62.6427,
      "duration": 0.0161,
      "velocity": 115,
      "chip": "ym2612"
    },
    {
      "channel": 5,
      "note": 73,
      "start": 62.6439,
      "duration": 0.0161,
      "velocity": 98,
      "chip": "ym2612"
    },
    {
      "channel": 4,
      "note": 86,
      "start": 62.6455,
      "duration": 0.0157,
      "velocity": 86,
      "chip": "ym2612"
    },
    {
      "channel": 3,
      "note": 86,
      "start": 62.6467,
      "duration": 0.0156,
      "velocity": 86,
      "chip": "ym2612"
    },
    {
      "channel": 2,
      "note": 59,
      "start": 62.6478,
      "duration": 0.0157,
      "velocity": 93,
      "chip": "ym2612"
    },
    {
      "channel": 1,
      "note": 73,
      "start": 62.649,
      "duration": 0.0157,
      "velocity": 98,
      "chip": "ym2612"
    },
    {
      "channel": 0,
      "note": 38,
      "start": 62.6588,
      "duration": 0.0161,
      "velocity": 115,
      "chip": "ym2612"
    },
    {
      "channel": 5,
      "note": 73,
      "start": 62.66,
      "duration": 0.0161,
      "velocity": 98,
      "chip": "ym2612"
    },
    {
      "channel": 4,
      "note": 86,
      "start": 62.6612,
      "duration": 0.016,
      "velocity": 86,
      "chip": "ym2612"
    },
    {
      "channel": 3,
      "note": 86,
      "start": 62.6623,
      "duration": 0.016,
      "velocity": 86,
      "chip": "ym2612"
    },
    {
      "channel": 2,
      "note": 59,
      "start": 62.6635,
      "duration": 0.016,
      "velocity": 93,
      "chip": "ym2612"
    },
    {
      "channel": 1,
      "note": 73,
      "start": 62.6647,
      "duration": 0.016,
      "velocity": 98,
      "chip": "ym2612"
    },
    {
      "channel": 0,
      "note": 38,
      "start": 62.6749,
      "duration": 0.0161,
      "velocity": 115,
      "chip": "ym2612"
    },
    {
      "channel": 5,
      "note": 73,
      "start": 62.6761,
      "duration": 0.0161,
      "velocity": 98,
      "chip": "ym2612"
    },
    {
      "channel": 4,
      "note": 86,
      "start": 62.6772,
      "duration": 0.0161,
      "velocity": 86,
      "chip": "ym2612"
    },
    {
      "channel": 3,
      "note": 86,
      "start": 62.6783,
      "duration": 0.0161,
      "velocity": 86,
      "chip": "ym2612"
    },
    {
      "channel": 2,
      "note": 59,
      "start": 62.6795,
      "duration": 0.0161,
      "velocity": 93,
      "chip": "ym2612"
    },
    {
      "channel": 1,
      "note": 73,
      "start": 62.6807,
      "duration": 0.0161,
      "velocity": 98,
      "chip": "ym2612"
    },
    {
      "channel": 0,
      "note": 39,
      "start": 62.691,
      "duration": 0.0161,
      "velocity": 115,
      "chip": "ym2612"
    },
    {
      "channel": 5,
      "note": 73,
      "start": 62.6922,
      "duration": 0.0161,
      "velocity": 98,
      "chip": "ym2612"
    },
    {
      "channel": 4,
      "note": 86,
      "start": 62.6933,
      "duration": 0.0162,
      "velocity": 86,
      "chip": "ym2612"
    },
    {
      "channel": 3,
      "note": 86,
      "start": 62.6945,
      "duration": 0.0161,
      "velocity": 86,
      "chip": "ym2612"
    },
    {
      "channel": 2,
      "note": 59,
      "start": 62.6956,
      "duration": 0.0162,
      "velocity": 93,
      "chip": "ym2612"
    },
    {
      "channel": 1,
      "note": 73,
      "start": 62.6968,
      "duration": 0.0161,
      "velocity": 98,
      "chip": "ym2612"
    },
    {
      "channel": 0,
      "note": 39,
      "start": 62.7071,
      "duration": 0.0161,
      "velocity": 115,
      "chip": "ym2612"
    },
    {
      "channel": 5,
      "note": 73,
      "start": 62.7082,
      "duration": 0.0161,
      "velocity": 98,
      "chip": "ym2612"
    },
    {
      "channel": 4,
      "note": 86,
      "start": 62.7095,
      "duration": 0.0161,
      "velocity": 86,
      "chip": "ym2612"
    },
    {
      "channel": 3,
      "note": 86,
      "start": 62.7106,
      "duration": 0.0161,
      "velocity": 86,
      "chip": "ym2612"
    },
    {
      "channel": 2,
      "note": 59,
      "start": 62.7118,
      "duration": 0.0161,
      "velocity": 93,
      "chip": "ym2612"
    },
    {
      "channel": 1,
      "note": 73,
      "start": 62.7129,
      "duration": 0.0161,
      "velocity": 98,
      "chip": "ym2612"
    },
    {
      "channel": 0,
      "note": 40,
      "start": 62.7232,
      "duration": 0.0161,
      "velocity": 115,
      "chip": "ym2612"
    },
    {
      "channel": 5,
      "note": 73,
      "start": 62.7243,
      "duration": 0.0162,
      "velocity": 98,
      "chip": "ym2612"
    },
    {
      "channel": 4,
      "note": 86,
      "start": 62.7255,
      "duration": 0.0161,
      "velocity": 86,
      "chip": "ym2612"
    },
    {
      "channel": 3,
      "note": 86,
      "start": 62.7267,
      "duration": 0.0162,
      "velocity": 86,
      "chip": "ym2612"
    },
    {
      "channel": 2,
      "note": 59,
      "start": 62.7279,
      "duration": 0.0162,
      "velocity": 93,
      "chip": "ym2612"
    },
    {
      "channel": 1,
      "note": 73,
      "start": 62.729,
      "duration": 0.0162,
      "velocity": 98,
      "chip": "ym2612"
    },
    {
      "channel": 0,
      "note": 40,
      "start": 62.7393,
      "duration": 0.0161,
      "velocity": 115,
      "chip": "ym2612"
    },
    {
      "channel": 5,
      "note": 73,
      "start": 62.7405,
      "duration": 0.0161,
      "velocity": 98,
      "chip": "ym2612"
    },
    {
      "channel": 4,
      "note": 86,
      "start": 62.7416,
      "duration": 0.0161,
      "velocity": 86,
      "chip": "ym2612"
    },
    {
      "channel": 3,
      "note": 86,
      "start": 62.7429,
      "duration": 0.0161,
      "velocity": 86,
      "chip": "ym2612"
    },
    {
      "channel": 2,
      "note": 59,
      "start": 62.7441,
      "duration": 0.016,
      "velocity": 93,
      "chip": "ym2612"
    },
    {
      "channel": 1,
      "note": 73,
      "start": 62.7453,
      "duration": 0.0161,
      "velocity": 98,
      "chip": "ym2612"
    },
    {
      "channel": 0,
      "note": 40,
      "start": 62.7554,
      "duration": 0.0161,
      "velocity": 115,
      "chip": "ym2612"
    },
    {
      "channel": 5,
      "note": 73,
      "start": 62.7566,
      "duration": 0.0161,
      "velocity": 98,
      "chip": "ym2612"
    },
    {
      "channel": 4,
      "note": 86,
      "start": 62.7577,
      "duration": 0.0161,
      "velocity": 86,
      "chip": "ym2612"
    },
    {
      "channel": 3,
      "note": 86,
      "start": 62.7589,
      "duration": 0.0161,
      "velocity": 86,
      "chip": "ym2612"
    },
    {
      "channel": 2,
      "note": 59,
      "start": 62.7602,
      "duration": 0.0161,
      "velocity": 93,
      "chip": "ym2612"
    },
    {
      "channel": 1,
      "note": 73,
      "start": 62.7614,
      "duration": 0.0161,
      "velocity": 98,
      "chip": "ym2612"
    },
    {
      "channel": 0,
      "note": 41,
      "start": 62.7715,
      "duration": 0.0161,
      "velocity": 115,
      "chip": "ym2612"
    },
    {
      "channel": 5,
      "note": 73,
      "start": 62.7727,
      "duration": 0.0162,
      "velocity": 98,
      "chip": "ym2612"
    },
    {
      "channel": 4,
      "note": 86,
      "start": 62.7738,
      "duration": 0.0161,
      "velocity": 86,
      "chip": "ym2612"
    },
    {
      "channel": 2,
      "note": 59,
      "start": 62.7763,
      "duration": 0.0163,
      "velocity": 93,
      "chip": "ym2612"
    },
    {
      "channel": 1,
      "note": 73,
      "start": 62.7775,
      "duration": 0.0163,
      "velocity": 98,
      "chip": "ym2612"
    },
    {
      "channel": 0,
      "note": 41,
      "start": 62.7876,
      "duration": 0.0162,
      "velocity": 115,
      "chip": "ym2612"
    },
    {
      "channel": 5,
      "note": 73,
      "start": 62.7888,
      "duration": 0.0161,
      "velocity": 98,
      "chip": "ym2612"
    },
    {
      "channel": 4,
      "note": 86,
      "start": 62.79,
      "duration": 0.0161,
      "velocity": 86,
      "chip": "ym2612"
    },
    {
      "channel": 3,
      "note": 78,
      "start": 62.7915,
      "duration": 0.0158,
      "velocity": 86,
      "chip": "ym2612"
    },
    {
      "channel": 2,
      "note": 59,
      "start": 62.7927,
      "duration": 0.0159,
      "velocity": 93,
      "chip": "ym2612"
    },
    {
      "channel": 1,
      "note": 73,
      "start": 62.7938,
      "duration": 0.0158,
      "velocity": 98,
      "chip": "ym2612"
    },
    {
      "channel": 0,
      "note": 42,
      "start": 62.8038,
      "duration": 0.0163,
      "velocity": 115,
      "chip": "ym2612"
    },
    {
      "channel": 5,
      "note": 73,
      "start": 62.8049,
      "duration": 0.0163,
      "velocity": 98,
      "chip": "ym2612"
    },
    {
      "channel": 4,
      "note": 86,
      "start": 62.8061,
      "duration": 0.0163,
      "velocity": 86,
      "chip": "ym2612"
    },
    {
      "channel": 3,
      "note": 78,
      "start": 62.8073,
      "duration": 0.0162,
      "velocity": 86,
      "chip": "ym2612"
    },
    {
      "channel": 2,
      "note": 59,
      "start": 62.8085,
      "duration": 0.0163,
      "velocity": 93,
      "chip": "ym2612"
    },
    {
      "channel": 1,
      "note": 73,
      "start": 62.8096,
      "duration": 0.0163,
      "velocity": 98,
      "chip": "ym2612"
    },
    {
      "channel": 0,
      "note": 42,
      "start": 62.8201,
      "duration": 0.0163,
      "velocity": 115,
      "chip": "ym2612"
    },
    {
      "channel": 5,
      "note": 73,
      "start": 62.8212,
      "duration": 0.0163,
      "velocity": 98,
      "chip": "ym2612"
    },
    {
      "channel": 3,
      "note": 78,
      "start": 62.8236,
      "duration": 0.0166,
      "velocity": 86,
      "chip": "ym2612"
    },
    {
      "channel": 2,
      "note": 59,
      "start": 62.8248,
      "duration": 0.0166,
      "velocity": 93,
      "chip": "ym2612"
    },
    {
      "channel": 1,
      "note": 73,
      "start": 62.8259,
      "duration": 0.0166,
      "velocity": 98,
      "chip": "ym2612"
    },
    {
      "channel": 0,
      "note": 43,
      "start": 62.8363,
      "duration": 0.0162,
      "velocity": 115,
      "chip": "ym2612"
    },
    {
      "channel": 5,
      "note": 73,
      "start": 62.8376,
      "duration": 0.0161,
      "velocity": 98,
      "chip": "ym2612"
    },
    {
      "channel": 4,
      "note": 78,
      "start": 62.839,
      "duration": 0.016,
      "velocity": 86,
      "chip": "ym2612"
    },
    {
      "channel": 3,
      "note": 78,
      "start": 62.8402,
      "duration": 0.016,
      "velocity": 86,
      "chip": "ym2612"
    },
    {
      "channel": 2,
      "note": 59,
      "start": 62.8414,
      "duration": 0.016,
      "velocity": 93,
      "chip": "ym2612"
    },
    {
      "channel": 1,
      "note": 73,
      "start": 62.8425,
      "duration": 0.016,
      "velocity": 98,
      "chip": "ym2612"
    },
    {
      "channel": 0,
      "note": 43,
      "start": 62.8526,
      "duration": 0.0161,
      "velocity": 115,
      "chip": "ym2612"
    },
    {
      "channel": 5,
      "note": 73,
      "start": 62.8537,
      "duration": 0.0162,
      "velocity": 98,
      "chip": "ym2612"
    },
    {
      "channel": 4,
      "note": 78,
      "start": 62.855,
      "duration": 0.016,
      "velocity": 86,
      "chip": "ym2612"
    },
    {
      "channel": 3,
      "note": 78,
      "start": 62.8561,
      "duration": 0.0161,
      "velocity": 86,
      "chip": "ym2612"
    },
    {
      "channel": 2,
      "note": 59,
      "start": 62.8573,
      "duration": 0.0161,
      "velocity": 93,
      "chip": "ym2612"
    },
    {
      "channel": 1,
      "note": 73,
      "start": 62.8585,
      "duration": 0.0161,
      "velocity": 98,
      "chip": "ym2612"
    },
    {
      "channel": 0,
      "note": 44,
      "start": 62.8687,
      "duration": 0.018,
      "velocity": 124,
      "chip": "ym2612"
    },
    {
      "channel": 5,
      "note": 73,
      "start": 62.8699,
      "duration": 0.0179,
      "velocity": 98,
      "chip": "ym2612"
    },
    {
      "channel": 4,
      "note": 78,
      "start": 62.871,
      "duration": 0.0179,
      "velocity": 86,
      "chip": "ym2612"
    },
    {
      "channel": 2,
      "note": 59,
      "start": 62.8734,
      "duration": 0.0184,
      "velocity": 93,
      "chip": "ym2612"
    },
    {
      "channel": 0,
      "note": 84,
      "start": 62.8867,
      "duration": 0.0137,
      "velocity": 124,
      "chip": "ym2612"
    },
    {
      "channel": 5,
      "note": 73,
      "start": 62.8878,
      "duration": 0.0143,
      "velocity": 98,
      "chip": "ym2612"
    },
    {
      "channel": 4,
      "note": 78,
      "start": 62.889,
      "duration": 0.0143,
      "velocity": 86,
      "chip": "ym2612"
    },
    {
      "channel": 3,
      "note": 81,
      "start": 62.8904,
      "duration": 0.0141,
      "velocity": 86,
      "chip": "ym2612"
    },
    {
      "channel": 2,
      "note": 59,
      "start": 62.8919,
      "duration": 0.0139,
      "velocity": 93,
      "chip": "ym2612"
    },
    {
      "channel": 1,
      "note": 74,
      "start": 62.8935,
      "duration": 0.0134,
      "velocity": 98,
      "chip": "ym2612"
    },
    {
      "channel": 0,
      "note": 82,
      "start": 62.9004,
      "duration": 0.016,
      "velocity": 124,
      "chip": "ym2612"
    },
    {
      "channel": 5,
      "note": 73,
      "start": 62.9021,
      "duration": 0.016,
      "velocity": 98,
      "chip": "ym2612"
    },
    {
      "channel": 4,
      "note": 78,
      "start": 62.9033,
      "duration": 0.016,
      "velocity": 86,
      "chip": "ym2612"
    },
    {
      "channel": 3,
      "note": 81,
      "start": 62.9046,
      "duration": 0.016,
      "velocity": 86,
      "chip": "ym2612"
    },
    {
      "channel": 2,
      "note": 59,
      "start": 62.9058,
      "duration": 0.0159,
      "velocity": 93,
      "chip": "ym2612"
    },
    {
      "channel": 1,
      "note": 74,
      "start": 62.907,
      "duration": 0.0159,
      "velocity": 98,
      "chip": "ym2612"
    },
    {
      "channel": 0,
      "note": 80,
      "start": 62.9164,
      "duration": 0.0161,
      "velocity": 124,
      "chip": "ym2612"
    },
    {
      "channel": 5,
      "note": 73,
      "start": 62.9181,
      "duration": 0.0156,
      "velocity": 98,
      "chip": "ym2612"
    },
    {
      "channel": 3,
      "note": 81,
      "start": 62.9205,
      "duration": 0.0164,
      "velocity": 86,
      "chip": "ym2612"
    },
    {
      "channel": 2,
      "note": 59,
      "start": 62.9217,
      "duration": 0.0164,
      "velocity": 93,
      "chip": "ym2612"
    },
    {
      "channel": 1,
      "note": 74,
      "start": 62.9229,
      "duration": 0.0163,
      "velocity": 98,
      "chip": "ym2612"
    },
    {
      "channel": 0,
      "note": 77,
      "start": 62.9325,
      "duration": 0.0161,
      "velocity": 124,
      "chip": "ym2612"
    },
    {
      "channel": 5,
      "note": 73,
      "start": 62.9337,
      "duration": 0.0161,
      "velocity": 98,
      "chip": "ym2612"
    },
    {
      "channel": 4,
      "note": 81,
      "start": 62.9357,
      "duration": 0.0159,
      "velocity": 86,
      "chip": "ym2612"
    },
    {
      "channel": 3,
      "note": 81,
      "start": 62.9369,
      "duration": 0.0158,
      "velocity": 86,
      "chip": "ym2612"
    },
    {
      "channel": 2,
      "note": 59,
      "start": 62.9381,
      "duration": 0.0159,
      "velocity": 93,
      "chip": "ym2612"
    },
    {
      "channel": 1,
      "note": 74,
      "start": 62.9392,
      "duration": 0.0159,
      "velocity": 98,
      "chip": "ym2612"
    },
    {
      "channel": 0,
      "note": 75,
      "start": 62.9486,
      "duration": 0.0161,
      "velocity": 124,
      "chip": "ym2612"
    },
    {
      "channel": 5,
      "note": 73,
      "start": 62.9498,
      "duration": 0.0161,
      "velocity": 98,
      "chip": "ym2612"
    },
    {
      "channel": 4,
      "note": 81,
      "start": 62.9516,
      "duration": 0.0155,
      "velocity": 86,
      "chip": "ym2612"
    },
    {
      "channel": 3,
      "note": 81,
      "start": 62.9528,
      "duration": 0.016,
      "velocity": 86,
      "chip": "ym2612"
    },
    {
      "channel": 2,
      "note": 59,
      "start": 62.9539,
      "duration": 0.016,
      "velocity": 93,
      "chip": "ym2612"
    },
    {
      "channel": 1,
      "note": 74,
      "start": 62.9551,
      "duration": 0.016,
      "velocity": 98,
      "chip": "ym2612"
    },
    {
      "channel": 0,
      "note": 72,
      "start": 62.9647,
      "duration": 0.0161,
      "velocity": 124,
      "chip": "ym2612"
    },
    {
      "channel": 5,
      "note": 73,
      "start": 62.9659,
      "duration": 0.0161,
      "velocity": 98,
      "chip": "ym2612"
    },
    {
      "channel": 4,
      "note": 81,
      "start": 62.967,
      "duration": 0.0161,
      "velocity": 86,
      "chip": "ym2612"
    },
    {
      "channel": 3,
      "note": 81,
      "start": 62.9688,
      "duration": 0.0161,
      "velocity": 86,
      "chip": "ym2612"
    },
    {
      "channel": 2,
      "note": 59,
      "start": 62.97,
      "duration": 0.0161,
      "velocity": 93,
      "chip": "ym2612"
    },
    {
      "channel": 1,
      "note": 74,
      "start": 62.9712,
      "duration": 0.0161,
      "velocity": 98,
      "chip": "ym2612"
    },
    {
      "channel": 0,
      "note": 70,
      "start": 62.9808,
      "duration": 0.0161,
      "velocity": 124,
      "chip": "ym2612"
    },
    {
      "channel": 5,
      "note": 73,
      "start": 62.982,
      "duration": 0.0161,
      "velocity": 98,
      "chip": "ym2612"
    },
    {
      "channel": 4,
      "note": 81,
      "start": 62.9832,
      "duration": 0.016,
      "velocity": 86,
      "chip": "ym2612"
    },
    {
      "channel": 3,
      "note": 81,
      "start": 62.9849,
      "duration": 0.0158,
      "velocity": 86,
      "chip": "ym2612"
    },
    {
      "channel": 2,
      "note": 59,
      "start": 62.9861,
      "duration": 0.0161,
      "velocity": 93,
      "chip": "ym2612"
    },
    {
      "channel": 1,
      "note": 74,
      "start": 62.9873,
      "duration": 0.0161,
      "velocity": 98,
      "chip": "ym2612"
    },
    {
      "channel": 0,
      "note": 68,
      "start": 62.9969,
      "duration": 0.0161,
      "velocity": 124,
      "chip": "ym2612"
    },
    {
      "channel": 5,
      "note": 73,
      "start": 62.9981,
      "duration": 0.0161,
      "velocity": 98,
      "chip": "ym2612"
    },
    {
      "channel": 4,
      "note": 81,
      "start": 62.9992,
      "duration": 0.0161,
      "velocity": 86,
      "chip": "ym2612"
    },
    {
      "channel": 3,
      "note": 81,
      "start": 63.0007,
      "duration": 0.0158,
      "velocity": 86,
      "chip": "ym2612"
    },
    {
      "channel": 2,
      "note": 59,
      "start": 63.0022,
      "duration": 0.016,
      "velocity": 93,
      "chip": "ym2612"
    },
    {
      "channel": 1,
      "note": 74,
      "start": 63.0033,
      "duration": 0.0161,
      "velocity": 98,
      "chip": "ym2612"
    },
    {
      "channel": 0,
      "note": 65,
      "start": 63.013,
      "duration": 0.0161,
      "velocity": 124,
      "chip": "ym2612"
    },
    {
      "channel": 5,
      "note": 73,
      "start": 63.0141,
      "duration": 0.0162,
      "velocity": 98,
      "chip": "ym2612"
    },
    {
      "channel": 4,
      "note": 81,
      "start": 63.0153,
      "duration": 0.0161,
      "velocity": 86,
      "chip": "ym2612"
    },
    {
      "channel": 3,
      "note": 81,
      "start": 63.0165,
      "duration": 0.0162,
      "velocity": 86,
      "chip": "ym2612"
    },
    {
      "channel": 2,
      "note": 59,
      "start": 63.0182,
      "duration": 0.0159,
      "velocity": 93,
      "chip": "ym2612"
    },
    {
      "channel": 1,
      "note": 74,
      "start": 63.0194,
      "duration": 0.0162,
      "velocity": 98,
      "chip": "ym2612"
    },
    {
      "channel": 0,
      "note": 63,
      "start": 63.0291,
      "duration": 0.0153,
      "velocity": 1,
      "chip": "ym2612"
    },
    {
      "channel": 5,
      "note": 73,
      "start": 63.0303,
      "duration": 0.0153,
      "velocity": 98,
      "chip": "ym2612"
    },
    {
      "channel": 4,
      "note": 81,
      "start": 63.0315,
      "duration": 0.0153,
      "velocity": 86,
      "chip": "ym2612"
    },
    {
      "channel": 3,
      "note": 81,
      "start": 63.0327,
      "duration": 0.0153,
      "velocity": 86,
      "chip": "ym2612"
    },
    {
      "channel": 2,
      "note": 59,
      "start": 63.0341,
      "duration": 0.015,
      "velocity": 93,
      "chip": "ym2612"
    },
    {
      "channel": 1,
      "note": 74,
      "start": 63.0357,
      "duration": 0.0147,
      "velocity": 98,
      "chip": "ym2612"
    },
    {
      "channel": 5,
      "note": 73,
      "start": 63.0456,
      "duration": 0.0152,
      "velocity": 98,
      "chip": "ym2612"
    },
    {
      "channel": 4,
      "note": 81,
      "start": 63.0467,
      "duration": 0.0153,
      "velocity": 86,
      "chip": "ym2612"
    },
    {
      "channel": 3,
      "note": 81,
      "start": 63.0479,
      "duration": 0.0153,
      "velocity": 86,
      "chip": "ym2612"
    },
    {
      "channel": 2,
      "note": 59,
      "start": 63.0491,
      "duration": 0.0153,
      "velocity": 93,
      "chip": "ym2612"
    },
    {
      "channel": 1,
      "note": 74,
      "start": 63.0504,
      "duration": 0.0153,
      "velocity": 98,
      "chip": "ym2612"
    },
    {
      "channel": 5,
      "note": 73,
      "start": 63.0608,
      "duration": 0.0161,
      "velocity": 98,
      "chip": "ym2612"
    },
    {
      "channel": 4,
      "note": 81,
      "start": 63.062,
      "duration": 0.0161,
      "velocity": 86,
      "chip": "ym2612"
    },
    {
      "channel": 2,
      "note": 59,
      "start": 63.0644,
      "duration": 0.0163,
      "velocity": 93,
      "chip": "ym2612"
    },
    {
      "channel": 1,
      "note": 74,
      "start": 63.0656,
      "duration": 0.0163,
      "velocity": 98,
      "chip": "ym2612"
    },
    {
      "channel": 5,
      "note": 73,
      "start": 63.0769,
      "duration": 0.0161,
      "velocity": 98,
      "chip": "ym2612"
    },
    {
      "channel": 4,
      "note": 81,
      "start": 63.0781,
      "duration": 0.0161,
      "velocity": 86,
      "chip": "ym2612"
    },
    {
      "channel": 3,
      "note": 86,
      "start": 63.0796,
      "duration": 0.0158,
      "velocity": 86,
      "chip": "ym2612"
    },
    {
      "channel": 2,
      "note": 59,
      "start": 63.0808,
      "duration": 0.0158,
      "velocity": 93,
      "chip": "ym2612"
    },
    {
      "channel": 1,
      "note": 74,
      "start": 63.0819,
      "duration": 0.0159,
      "velocity": 98,
      "chip": "ym2612"
    },
    {
      "channel": 5,
      "note": 73,
      "start": 63.093,
      "duration": 0.0162,
      "velocity": 98,
      "chip": "ym2612"
    },
    {
      "channel": 4,
      "note": 81,
      "start": 63.0942,
      "duration": 0.0161,
      "velocity": 86,
      "chip": "ym2612"
    },
    {
      "channel": 3,
      "note": 86,
      "start": 63.0954,
      "duration": 0.0161,
      "velocity": 86,
      "chip": "ym2612"
    },
    {
      "channel": 2,
      "note": 59,
      "start": 63.0966,
      "duration": 0.016,
      "velocity": 93,
      "chip": "ym2612"
    },
    {
      "channel": 1,
      "note": 74,
      "start": 63.0978,
      "duration": 0.016,
      "velocity": 98,
      "chip": "ym2612"
    },
    {
      "channel": 5,
      "note": 73,
      "start": 63.1091,
      "duration": 0.0161,
      "velocity": 98,
      "chip": "ym2612"
    },
    {
      "channel": 3,
      "note": 86,
      "start": 63.1115,
      "duration": 0.0164,
      "velocity": 86,
      "chip": "ym2612"
    },
    {
      "channel": 2,
      "note": 59,
      "start": 63.1126,
      "duration": 0.0164,
      "velocity": 93,
      "chip": "ym2612"
    },
    {
      "channel": 1,
      "note": 74,
      "start": 63.1138,
      "duration": 0.0164,
      "velocity": 98,
      "chip": "ym2612"
    },
    {
      "channel": 5,
      "note": 73,
      "start": 63.1252,
      "duration": 0.0161,
      "velocity": 98,
      "chip": "ym2612"
    },
    {
      "channel": 4,
      "note": 86,
      "start": 63.1267,
      "duration": 0.0158,
      "velocity": 86,
      "chip": "ym2612"
    },
    {
      "channel": 3,
      "note": 86,
      "start": 63.1279,
      "duration": 0.0158,
      "velocity": 86,
      "chip": "ym2612"
    },
    {
      "channel": 2,
      "note": 59,
      "start": 63.129,
      "duration": 0.0159,
      "velocity": 93,
      "chip": "ym2612"
    },
    {
      "channel": 1,
      "note": 74,
      "start": 63.1302,
      "duration": 0.0159,
      "velocity": 98,
      "chip": "ym2612"
    },
    {
      "channel": 5,
      "note": 73,
      "start": 63.1413,
      "duration": 0.0161,
      "velocity": 98,
      "chip": "ym2612"
    },
    {
      "channel": 4,
      "note": 86,
      "start": 63.1425,
      "duration": 0.016,
      "velocity": 86,
      "chip": "ym2612"
    },
    {
      "channel": 3,
      "note": 86,
      "start": 63.1437,
      "duration": 0.0161,
      "velocity": 86,
      "chip": "ym2612"
    },
    {
      "channel": 2,
      "note": 59,
      "start": 63.1449,
      "duration": 0.016,
      "velocity": 93,
      "chip": "ym2612"
    },
    {
      "channel": 1,
      "note": 74,
      "start": 63.1461,
      "duration": 0.0161,
      "velocity": 98,
      "chip": "ym2612"
    },
    {
      "channel": 5,
      "note": 73,
      "start": 63.1574,
      "duration": 0.0196,
      "velocity": 98,
      "chip": "ym2612"
    },
    {
      "channel": 4,
      "note": 86,
      "start": 63.1585,
      "duration": 0.0197,
      "velocity": 86,
      "chip": "ym2612"
    },
    {
      "channel": 3,
      "note": 86,
      "start": 63.1598,
      "duration": 0.0196,
      "velocity": 86,
      "chip": "ym2612"
    },
    {
      "channel": 2,
      "note": 59,
      "start": 63.161,
      "duration": 0.0198,
      "velocity": 93,
      "chip": "ym2612"
    },
    {
      "channel": 0,
      "note": 36,
      "start": 63.1759,
      "duration": 0.0143,
      "velocity": 115,
      "chip": "ym2612"
    },
    {
      "channel": 5,
      "note": 73,
      "start": 63.177,
      "duration": 0.0144,
      "velocity": 98,
      "chip": "ym2612"
    },
    {
      "channel": 4,
      "note": 86,
      "start": 63.1782,
      "duration": 0.0143,
      "velocity": 86,
      "chip": "ym2612"
    },
    {
      "channel": 3,
      "note": 86,
      "start": 63.1794,
      "duration": 0.0144,
      "velocity": 86,
      "chip": "ym2612"
    },
    {
      "channel": 2,
      "note": 59,
      "start": 63.1808,
      "duration": 0.0141,
      "velocity": 93,
      "chip": "ym2612"
    },
    {
      "channel": 1,
      "note": 78,
      "start": 63.1823,
      "duration": 0.0139,
      "velocity": 98,
      "chip": "ym2612"
    },
    {
      "channel": 0,
      "note": 36,
      "start": 63.1902,
      "duration": 0.016,
      "velocity": 115,
      "chip": "ym2612"
    },
    {
      "channel": 4,
      "note": 86,
      "start": 63.1925,
      "duration": 0.0166,
      "velocity": 86,
      "chip": "ym2612"
    },
    {
      "channel": 3,
      "note": 86,
      "start": 63.1937,
      "duration": 0.0165,
      "velocity": 86,
      "chip": "ym2612"
    },
    {
      "channel": 2,
      "note": 59,
      "start": 63.1949,
      "duration": 0.0165,
      "velocity": 93,
      "chip": "ym2612"
    },
    {
      "channel": 1,
      "note": 78,
      "start": 63.1961,
      "duration": 0.0164,
      "velocity": 98,
      "chip": "ym2612"
    },
    {
      "channel": 0,
      "note": 37,
      "start": 63.2062,
      "duration": 0.0161,
      "velocity": 115,
      "chip": "ym2612"
    },
    {
      "channel": 5,
      "note": 74,
      "start": 63.2079,
      "duration": 0.0157,
      "velocity": 98,
      "chip": "ym2612"
    },
    {
      "channel": 4,
      "note": 86,
      "start": 63.2091,
      "duration": 0.0156,
      "velocity": 86,
      "chip": "ym2612"
    },
    {
      "channel": 3,
      "note": 86,
      "start": 63.2102,
      "duration": 0.0157,
      "velocity": 86,
      "chip": "ym2612"
    },
    {
      "channel": 2,
      "note": 59,
      "start": 63.2114,
      "duration": 0.0156,
      "velocity": 93,
      "chip": "ym2612"
    },
    {
      "channel": 1,
      "note": 78,
      "start": 63.2126,
      "duration": 0.0157,
      "velocity": 98,
      "chip": "ym2612"
    },
    {
      "channel": 0,
      "note": 37,
      "start": 63.2223,
      "duration": 0.0161,
      "velocity": 115,
      "chip": "ym2612"
    },
    {
      "channel": 5,
      "note": 74,
      "start": 63.2236,
      "duration": 0.016,
      "velocity": 98,
      "chip": "ym2612"
    },
    {
      "channel": 4,
      "note": 86,
      "start": 63.2247,
      "duration": 0.016,
      "velocity": 86,
      "chip": "ym2612"
    },
    {
      "channel": 3,
      "note": 86,
      "start": 63.2259,
      "duration": 0.016,
      "velocity": 86,
      "chip": "ym2612"
    },
    {
      "channel": 2,
      "note": 59,
      "start": 63.2271,
      "duration": 0.016,
      "velocity": 93,
      "chip": "ym2612"
    },
    {
      "channel": 1,
      "note": 78,
      "start": 63.2283,
      "duration": 0.016,
      "velocity": 98,
      "chip": "ym2612"
    },
    {
      "channel": 0,
      "note": 38,
      "start": 63.2384,
      "duration": 0.0162,
      "velocity": 115,
      "chip": "ym2612"
    },
    {
      "channel": 5,
      "note": 74,
      "start": 63.2396,
      "duration": 0.0161,
      "velocity": 98,
      "chip": "ym2612"
    },
    {
      "channel": 4,
      "note": 86,
      "start": 63.2407,
      "duration": 0.0161,
      "velocity": 86,
      "chip": "ym2612"
    },
    {
      "channel": 3,
      "note": 86,
      "start": 63.242,
      "duration": 0.0161,
      "velocity": 86,
      "chip": "ym2612"
    },
    {
      "channel": 2,
      "note": 59,
      "start": 63.2431,
      "duration": 0.0161,
      "velocity": 93,
      "chip": "ym2612"
    },
    {
      "channel": 1,
      "note": 78,
      "start": 63.2443,
      "duration": 0.0161,
      "velocity": 98,
      "chip": "ym2612"
    },
    {
      "channel": 0,
      "note": 38,
      "start": 63.2546,
      "duration": 0.0161,
      "velocity": 115,
      "chip": "ym2612"
    },
    {
      "channel": 5,
      "note": 74,
      "start": 63.2557,
      "duration": 0.0161,
      "velocity": 98,
      "chip": "ym2612"
    },
    {
      "channel": 4,
      "note": 86,
      "start": 63.2568,
      "duration": 0.0161,
      "velocity": 86,
      "chip": "ym2612"
    },
    {
      "channel": 3,
      "note": 86,
      "start": 63.258,
      "duration": 0.0161,
      "velocity": 86,
      "chip": "ym2612"
    },
    {
      "channel": 2,
      "note": 59,
      "start": 63.2592,
      "duration": 0.0162,
      "velocity": 93,
      "chip": "ym2612"
    },
    {
      "channel": 1,
      "note": 78,
      "start": 63.2604,
      "duration": 0.0161,
      "velocity": 98,
      "chip": "ym2612"
    },
    {
      "channel": 0,
      "note": 39,
      "start": 63.2706,
      "duration": 0.0162,
      "velocity": 115,
      "chip": "ym2612"
    },
    {
      "channel": 5,
      "note": 74,
      "start": 63.2718,
      "duration": 0.0162,
      "velocity": 98,
      "chip": "ym2612"
    },
    {
      "channel": 4,
      "note": 86,
      "start": 63.273,
      "duration": 0.0162,
      "velocity": 86,
      "chip": "ym2612"
    },
    {
      "channel": 3,
      "note": 86,
      "start": 63.2741,
      "duration": 0.0161,
      "velocity": 86,
      "chip": "ym2612"
    },
    {
      "channel": 2,
      "note": 59,
      "start": 63.2754,
      "duration": 0.0162,
      "velocity": 93,
      "chip": "ym2612"
    },
    {
      "channel": 1,
      "note": 78,
      "start": 63.2765,
      "duration": 0.0161,
      "velocity": 98,
      "chip": "ym2612"
    },
    {
      "channel": 0,
      "note": 39,
      "start": 63.2868,
      "duration": 0.0164,
      "velocity": 115,
      "chip": "ym2612"
    },
    {
      "channel": 5,
      "note": 74,
      "start": 63.288,
      "duration": 0.0164,
      "velocity": 98,
      "chip": "ym2612"
    },
    {
      "channel": 4,
      "note": 86,
      "start": 63.2892,
      "duration": 0.0164,
      "velocity": 86,
      "chip": "ym2612"
    },
    {
      "channel": 3,
      "note": 86,
      "start": 63.2903,
      "duration": 0.0165,
      "velocity": 86,
      "chip": "ym2612"
    },
    {
      "channel": 2,
      "note": 59,
      "start": 63.2915,
      "duration": 0.0164,
      "velocity": 93,
      "chip": "ym2612"
    },
    {
      "channel": 1,
      "note": 78,
      "start": 63.2927,
      "duration": 0.0164,
      "velocity": 98,
      "chip": "ym2612"
    },
    {
      "channel": 0,
      "note": 40,
      "start": 63.3032,
      "duration": 0.0163,
      "velocity": 115,
      "chip": "ym2612"
    },
    {
      "channel": 5,
      "note": 74,
      "start": 63.3044,
      "duration": 0.0163,
      "velocity": 98,
      "chip": "ym2612"
    },
    {
      "channel": 4,
      "note": 86,
      "start": 63.3056,
      "duration": 0.0163,
      "velocity": 86,
      "chip": "ym2612"
    },
    {
      "channel": 3,
      "note": 86,
      "start": 63.3068,
      "duration": 0.0163,
      "velocity": 86,
      "chip": "ym2612"
    },
    {
      "channel": 2,
      "note": 59,
      "start": 63.3079,
      "duration": 0.0164,
      "velocity": 93,
      "chip": "ym2612"
    },
    {
      "channel": 1,
      "note": 78,
      "start": 63.3091,
      "duration": 0.0164,
      "velocity": 98,
      "chip": "ym2612"
    },
    {
      "channel": 0,
      "note": 40,
      "start": 63.3195,
      "duration": 0.0162,
      "velocity": 115,
      "chip": "ym2612"
    },
    {
      "channel": 5,
      "note": 74,
      "start": 63.3207,
      "duration": 0.0161,
      "velocity": 98,
      "chip": "ym2612"
    },
    {
      "channel": 4,
      "note": 86,
      "start": 63.3219,
      "duration": 0.0161,
      "velocity": 86,
      "chip": "ym2612"
    },
    {
      "channel": 3,
      "note": 86,
      "start": 63.3231,
      "duration": 0.0161,
      "velocity": 86,
      "chip": "ym2612"
    },
    {
      "channel": 2,
      "note": 59,
      "start": 63.3243,
      "duration": 0.016,
      "velocity": 93,
      "chip": "ym2612"
    },
    {
      "channel": 1,
      "note": 78,
      "start": 63.3255,
      "duration": 0.0161,
      "velocity": 98,
      "chip": "ym2612"
    },
    {
      "channel": 0,
      "note": 40,
      "start": 63.3357,
      "duration": 0.016,
      "velocity": 115,
      "chip": "ym2612"
    },
    {
      "channel": 5,
      "note": 74,
      "start": 63.3368,
      "duration": 0.0161,
      "velocity": 98,
      "chip": "ym2612"
    },
    {
      "channel": 4,
      "note": 86,
      "start": 63.338,
      "duration": 0.0161,
      "velocity": 86,
      "chip": "ym2612"
    },
    {
      "channel": 3,
      "note": 86,
      "start": 63.3392,
      "duration": 0.0161,
      "velocity": 86,
      "chip": "ym2612"
    },
    {
      "channel": 2,
      "note": 59,
      "start": 63.3404,
      "duration": 0.0162,
      "velocity": 93,
      "chip": "ym2612"
    },
    {
      "channel": 1,
      "note": 78,
      "start": 63.3416,
      "duration": 0.0161,
      "velocity": 98,
      "chip": "ym2612"
    },
    {
      "channel": 0,
      "note": 41,
      "start": 63.3517,
      "duration": 0.018,
      "velocity": 115,
      "chip": "ym2612"
    },
    {
      "channel": 5,
      "note": 74,
      "start": 63.3529,
      "duration": 0.0179,
      "velocity": 98,
      "chip": "ym2612"
    },
    {
      "channel": 4,
      "note": 86,
      "start": 63.3541,
      "duration": 0.0179,
      "velocity": 86,
      "chip": "ym2612"
    },
    {
      "channel": 2,
      "note": 59,
      "start": 63.3565,
      "duration": 0.0182,
      "velocity": 93,
      "chip": "ym2612"
    },
    {
      "channel": 1,
      "note": 78,
      "start": 63.3577,
      "duration": 0.0182,
      "velocity": 98,
      "chip": "ym2612"
    },
    {
      "channel": 0,
      "note": 36,
      "start": 63.3697,
      "duration": 0.0137,
      "velocity": 115,
      "chip": "ym2612"
    },
    {
      "channel": 5,
      "note": 74,
      "start": 63.3708,
      "duration": 0.0142,
      "velocity": 98,
      "chip": "ym2612"
    },
    {
      "channel": 4,
      "note": 86,
      "start": 63.372,
      "duration": 0.0143,
      "velocity": 86,
      "chip": "ym2612"
    },
    {
      "channel": 3,
      "note": 78,
      "start": 63.3736,
      "duration": 0.014,
      "velocity": 86,
      "chip": "ym2612"
    },
    {
      "channel": 2,
      "note": 59,
      "start": 63.3747,
      "duration": 0.014,
      "velocity": 93,
      "chip": "ym2612"
    },
    {
      "channel": 1,
      "note": 78,
      "start": 63.3759,
      "duration": 0.0141,
      "velocity": 98,
      "chip": "ym2612"
    },
    {
      "channel": 0,
      "note": 36,
      "start": 63.3834,
      "duration": 0.0161,
      "velocity": 115,
      "chip": "ym2612"
    },
    {
      "channel": 5,
      "note": 74,
      "start": 63.3851,
      "duration": 0.0157,
      "velocity": 98,
      "chip": "ym2612"
    },
    {
      "channel": 4,
      "note": 86,
      "start": 63.3863,
      "duration": 0.016,
      "velocity": 86,
      "chip": "ym2612"
    },
    {
      "channel": 3,
      "note": 78,
      "start": 63.3876,
      "duration": 0.016,
      "velocity": 86,
      "chip": "ym2612"
    },
    {
      "channel": 2,
      "note": 59,
      "start": 63.3887,
      "duration": 0.016,
      "velocity": 93,
      "chip": "ym2612"
    },
    {
      "channel": 1,
      "note": 78,
      "start": 63.3899,
      "duration": 0.016,
      "velocity": 98,
      "chip": "ym2612"
    },
    {
      "channel": 0,
      "note": 37,
      "start": 63.3995,
      "duration": 0.0161,
      "velocity": 115,
      "chip": "ym2612"
    },
    {
      "channel": 5,
      "note": 74,
      "start": 63.4008,
      "duration": 0.0159,
      "velocity": 98,
      "chip": "ym2612"
    },
    {
      "channel": 3,
      "note": 78,
      "start": 63.4036,
      "duration": 0.0163,
      "velocity": 86,
      "chip": "ym2612"
    },
    {
      "channel": 2,
      "note": 59,
      "start": 63.4047,
      "duration": 0.0164,
      "velocity": 93,
      "chip": "ym2612"
    },
    {
      "channel": 1,
      "note": 78,
      "start": 63.4059,
      "duration": 0.0164,
      "velocity": 98,
      "chip": "ym2612"
    },
    {
      "channel": 0,
      "note": 37,
      "start": 63.4156,
      "duration": 0.0161,
      "velocity": 115,
      "chip": "ym2612"
    },
    {
      "channel": 5,
      "note": 74,
      "start": 63.4167,
      "duration": 0.0161,
      "velocity": 98,
      "chip": "ym2612"
    },
    {
      "channel": 4,
      "note": 78,
      "start": 63.4188,
      "duration": 0.0155,
      "velocity": 86,
      "chip": "ym2612"
    },
    {
      "channel": 3,
      "note": 78,
      "start": 63.42,
      "duration": 0.0158,
      "velocity": 86,
      "chip": "ym2612"
    },
    {
      "channel": 2,
      "note": 59,
      "start": 63.4212,
      "duration": 0.0158,
      "velocity": 93,
      "chip": "ym2612"
    },
    {
      "channel": 1,
      "note": 78,
      "start": 63.4223,
      "duration": 0.0159,
      "velocity": 98,
      "chip": "ym2612"
    },
    {
      "channel": 0,
      "note": 38,
      "start": 63.4317,
      "duration": 0.0161,
      "velocity": 115,
      "chip": "ym2612"
    },
    {
      "channel": 5,
      "note": 74,
      "start": 63.4328,
      "duration": 0.0161,
      "velocity": 98,
      "chip": "ym2612"
    },
    {
      "channel": 4,
      "note": 78,
      "start": 63.4343,
      "duration": 0.0158,
      "velocity": 86,
      "chip": "ym2612"
    },
    {
      "channel": 3,
      "note": 78,
      "start": 63.4358,
      "duration": 0.016,
      "velocity": 86,
      "chip": "ym2612"
    },
    {
      "channel": 2,
      "note": 59,
      "start": 63.437,
      "duration": 0.0161,
      "velocity": 93,
      "chip": "ym2612"
    },
    {
      "channel": 1,
      "note": 78,
      "start": 63.4382,
      "duration": 0.0161,
      "velocity": 98,
      "chip": "ym2612"
    },
    {
      "channel": 0,
      "note": 38,
      "start": 63.4478,
      "duration": 0.0179,
      "velocity": 124,
      "chip": "ym2612"
    },
    {
      "channel": 5,
      "note": 74,
      "start": 63.4489,
      "duration": 0.0179,
      "velocity": 98,
      "chip": "ym2612"
    },
    {
      "channel": 4,
      "note": 78,
      "start": 63.4501,
      "duration": 0.0185,
      "velocity": 86,
      "chip": "ym2612"
    },
    {
      "channel": 2,
      "note": 59,
      "start": 63.4531,
      "duration": 0.0185,
      "velocity": 93,
      "chip": "ym2612"
    },
    {
      "channel": 0,
      "note": 84,
      "start": 63.4657,
      "duration": 0.0143,
      "velocity": 124,
      "chip": "ym2612"
    },
    {
      "channel": 5,
      "note": 74,
      "start": 63.4668,
      "duration": 0.0144,
      "velocity": 98,
      "chip": "ym2612"
    },
    {
      "channel": 4,
      "note": 78,
      "start": 63.4686,
      "duration": 0.0137,
      "velocity": 86,
      "chip": "ym2612"
    },
    {
      "channel": 3,
      "note": 81,
      "start": 63.4701,
      "duration": 0.0135,
      "velocity": 86,
      "chip": "ym2612"
    },
    {
      "channel": 2,
      "note": 59,
      "start": 63.4715,
      "duration": 0.0139,
      "velocity": 93,
      "chip": "ym2612"
    },
    {
      "channel": 1,
      "note": 81,
      "start": 63.473,
      "duration": 0.0136,
      "velocity": 98,
      "chip": "ym2612"
    },
    {
      "channel": 0,
      "note": 82,
      "start": 63.48,
      "duration": 0.016,
      "velocity": 124,
      "chip": "ym2612"
    },
    {
      "channel": 4,
      "note": 78,
      "start": 63.4824,
      "duration": 0.0163,
      "velocity": 86,
      "chip": "ym2612"
    },
    {
      "channel": 3,
      "note": 81,
      "start": 63.4836,
      "duration": 0.0163,
      "velocity": 86,
      "chip": "ym2612"
    },
    {
      "channel": 2,
      "note": 59,
      "start": 63.4854,
      "duration": 0.0162,
      "velocity": 93,
      "chip": "ym2612"
    },
    {
      "channel": 1,
      "note": 81,
      "start": 63.4866,
      "duration": 0.0161,
      "velocity": 98,
      "chip": "ym2612"
    },
    {
      "channel": 0,
      "note": 80,
      "start": 63.496,
      "duration": 0.0161,
      "velocity": 124,
      "chip": "ym2612"
    },
    {
      "channel": 5,
      "note": 78,
      "start": 63.4975,
      "duration": 0.0159,
      "velocity": 98,
      "chip": "ym2612"
    },
    {
      "channel": 3,
      "note": 81,
      "start": 63.4999,
      "duration": 0.0161,
      "velocity": 86,
      "chip": "ym2612"
    },
    {
      "channel": 2,
      "note": 59,
      "start": 63.5016,
      "duration": 0.0158,
      "velocity": 93,
      "chip": "ym2612"
    },
    {
      "channel": 1,
      "note": 81,
      "start": 63.5028,
      "duration": 0.0162,
      "velocity": 98,
      "chip": "ym2612"
    },
    {
      "channel": 0,
      "note": 77,
      "start": 63.5121,
      "duration": 0.0161,
      "velocity": 124,
      "chip": "ym2612"
    },
    {
      "channel": 5,
      "note": 78,
      "start": 63.5134,
      "duration": 0.016,
      "velocity": 98,
      "chip": "ym2612"
    },
    {
      "channel": 4,
      "note": 81,
      "start": 63.5149,
      "duration": 0.0158,
      "velocity": 86,
      "chip": "ym2612"
    },
    {
      "channel": 3,
      "note": 81,
      "start": 63.516,
      "duration": 0.0158,
      "velocity": 86,
      "chip": "ym2612"
    },
    {
      "channel": 2,
      "note": 59,
      "start": 63.5174,
      "duration": 0.0156,
      "velocity": 93,
      "chip": "ym2612"
    },
    {
      "channel": 1,
      "note": 81,
      "start": 63.5189,
      "duration": 0.0157,
      "velocity": 98,
      "chip": "ym2612"
    },
    {
      "channel": 0,
      "note": 75,
      "start": 63.5283,
      "duration": 0.0161,
      "velocity": 124,
      "chip": "ym2612"
    },
    {
      "channel": 5,
      "note": 78,
      "start": 63.5294,
      "duration": 0.0161,
      "velocity": 98,
      "chip": "ym2612"
    },
    {
      "channel": 4,
      "note": 81,
      "start": 63.5306,
      "duration": 0.016,
      "velocity": 86,
      "chip": "ym2612"
    },
    {
      "channel": 3,
      "note": 81,
      "start": 63.5318,
      "duration": 0.0161,
      "velocity": 86,
      "chip": "ym2612"
    },
    {
      "channel": 2,
      "note": 59,
      "start": 63.533,
      "duration": 0.016,
      "velocity": 93,
      "chip": "ym2612"
    },
    {
      "channel": 1,
      "note": 81,
      "start": 63.5346,
      "duration": 0.0155,
      "velocity": 98,
      "chip": "ym2612"
    },
    {
      "channel": 0,
      "note": 72,
      "start": 63.5444,
      "duration": 0.0161,
      "velocity": 124,
      "chip": "ym2612"
    },
    {
      "channel": 5,
      "note": 78,
      "start": 63.5455,
      "duration": 0.0161,
      "velocity": 98,
      "chip": "ym2612"
    },
    {
      "channel": 4,
      "note": 81,
      "start": 63.5467,
      "duration": 0.0161,
      "velocity": 86,
      "chip": "ym2612"
    },
    {
      "channel": 3,
      "note": 81,
      "start": 63.5479,
      "duration": 0.0161,
      "velocity": 86,
      "chip": "ym2612"
    },
    {
      "channel": 2,
      "note": 59,
      "start": 63.549,
      "duration": 0.0161,
      "velocity": 93,
      "chip": "ym2612"
    },
    {
      "channel": 1,
      "note": 81,
      "start": 63.5502,
      "duration": 0.0161,
      "velocity": 98,
      "chip": "ym2612"
    },
    {
      "channel": 0,
      "note": 70,
      "start": 63.5605,
      "duration": 0.0161,
      "velocity": 124,
      "chip": "ym2612"
    },
    {
      "channel": 5,
      "note": 78,
      "start": 63.5616,
      "duration": 0.0161,
      "velocity": 98,
      "chip": "ym2612"
    },
    {
      "channel": 4,
      "note": 81,
      "start": 63.5628,
      "duration": 0.0161,
      "velocity": 86,
      "chip": "ym2612"
    },
    {
      "channel": 3,
      "note": 81,
      "start": 63.564,
      "duration": 0.0161,
      "velocity": 86,
      "chip": "ym2612"
    },
    {
      "channel": 2,
      "note": 59,
      "start": 63.5651,
      "duration": 0.0161,
      "velocity": 93,
      "chip": "ym2612"
    },
    {
      "channel": 1,
      "note": 81,
      "start": 63.5663,
      "duration": 0.0161,
      "velocity": 98,
      "chip": "ym2612"
    },
    {
      "channel": 0,
      "note": 68,
      "start": 63.5766,
      "duration": 0.0161,
      "velocity": 124,
      "chip": "ym2612"
    },
    {
      "channel": 5,
      "note": 78,
      "start": 63.5777,
      "duration": 0.0161,
      "velocity": 98,
      "chip": "ym2612"
    },
    {
      "channel": 4,
      "note": 81,
      "start": 63.5788,
      "duration": 0.0161,
      "velocity": 86,
      "chip": "ym2612"
    },
    {
      "channel": 3,
      "note": 81,
      "start": 63.5801,
      "duration": 0.0161,
      "velocity": 86,
      "chip": "ym2612"
    },
    {
      "channel": 2,
      "note": 59,
      "start": 63.5812,
      "duration": 0.0161,
      "velocity": 93,
      "chip": "ym2612"
    },
    {
      "channel": 1,
      "note": 81,
      "start": 63.5824,
      "duration": 0.0161,
      "velocity": 98,
      "chip": "ym2612"
    },
    {
      "channel": 0,
      "note": 65,
      "start": 63.5927,
      "duration": 0.0161,
      "velocity": 124,
      "chip": "ym2612"
    },
    {
      "channel": 5,
      "note": 78,
      "start": 63.5938,
      "duration": 0.0161,
      "velocity": 98,
      "chip": "ym2612"
    },
    {
      "channel": 4,
      "note": 81,
      "start": 63.5949,
      "duration": 0.0162,
      "velocity": 86,
      "chip": "ym2612"
    },
    {
      "channel": 3,
      "note": 81,
      "start": 63.5961,
      "duration": 0.0161,
      "velocity": 86,
      "chip": "ym2612"
    },
    {
      "channel": 2,
      "note": 59,
      "start": 63.5973,
      "duration": 0.0162,
      "velocity": 93,
      "chip": "ym2612"
    },
    {
      "channel": 1,
      "note": 81,
      "start": 63.5985,
      "duration": 0.0162,
      "velocity": 98,
      "chip": "ym2612"
    },
    {
      "channel": 0,
      "note": 63,
      "start": 63.6088,
      "duration": 0.0153,
      "velocity": 1,
      "chip": "ym2612"
    },
    {
      "channel": 5,
      "note": 78,
      "start": 63.6099,
      "duration": 0.0153,
      "velocity": 98,
      "chip": "ym2612"
    },
    {
      "channel": 4,
      "note": 81,
      "start": 63.6111,
      "duration": 0.0153,
      "velocity": 86,
      "chip": "ym2612"
    },
    {
      "channel": 3,
      "note": 81,
      "start": 63.6122,
      "duration": 0.0153,
      "velocity": 86,
      "chip": "ym2612"
    },
    {
      "channel": 2,
      "note": 59,
      "start": 63.6135,
      "duration": 0.0153,
      "velocity": 93,
      "chip": "ym2612"
    },
    {
      "channel": 1,
      "note": 81,
      "start": 63.6147,
      "duration": 0.0153,
      "velocity": 98,
      "chip": "ym2612"
    },
    {
      "channel": 5,
      "note": 78,
      "start": 63.6252,
      "duration": 0.0153,
      "velocity": 98,
      "chip": "ym2612"
    },
    {
      "channel": 4,
      "note": 81,
      "start": 63.6264,
      "duration": 0.0153,
      "velocity": 86,
      "chip": "ym2612"
    },
    {
      "channel": 3,
      "note": 81,
      "start": 63.6276,
      "duration": 0.0153,
      "velocity": 86,
      "chip": "ym2612"
    },
    {
      "channel": 2,
      "note": 59,
      "start": 63.6288,
      "duration": 0.0153,
      "velocity": 93,
      "chip": "ym2612"
    },
    {
      "channel": 1,
      "note": 81,
      "start": 63.6299,
      "duration": 0.0153,
      "velocity": 98,
      "chip": "ym2612"
    },
    {
      "channel": 5,
      "note": 78,
      "start": 63.6404,
      "duration": 0.0161,
      "velocity": 98,
      "chip": "ym2612"
    },
    {
      "channel": 4,
      "note": 81,
      "start": 63.6416,
      "duration": 0.0161,
      "velocity": 86,
      "chip": "ym2612"
    },
    {
      "channel": 2,
      "note": 59,
      "start": 63.6441,
      "duration": 0.0163,
      "velocity": 93,
      "chip": "ym2612"
    },
    {
      "channel": 1,
      "note": 81,
      "start": 63.6452,
      "duration": 0.0163,
      "velocity": 98,
      "chip": "ym2612"
    },
    {
      "channel": 5,
      "note": 78,
      "start": 63.6565,
      "duration": 0.0161,
      "velocity": 98,
      "chip": "ym2612"
    },
    {
      "channel": 4,
      "note": 81,
      "start": 63.6577,
      "duration": 0.0161,
      "velocity": 86,
      "chip": "ym2612"
    },
    {
      "channel": 3,
      "note": 86,
      "start": 63.6593,
      "duration": 0.0158,
      "velocity": 86,
      "chip": "ym2612"
    },
    {
      "channel": 2,
      "note": 59,
      "start": 63.6604,
      "duration": 0.0158,
      "velocity": 93,
      "chip": "ym2612"
    },
    {
      "channel": 1,
      "note": 81,
      "start": 63.6615,
      "duration": 0.0159,
      "velocity": 98,
      "chip": "ym2612"
    },
    {
      "channel": 5,
      "note": 78,
      "start": 63.6726,
      "duration": 0.0162,
      "velocity": 98,
      "chip": "ym2612"
    },
    {
      "channel": 4,
      "note": 81,
      "start": 63.6738,
      "duration": 0.0161,
      "velocity": 86,
      "chip": "ym2612"
    },
    {
      "channel": 3,
      "note": 86,
      "start": 63.675,
      "duration": 0.0161,
      "velocity": 86,
      "chip": "ym2612"
    },
    {
      "channel": 2,
      "note": 59,
      "start": 63.6762,
      "duration": 0.016,
      "velocity": 93,
      "chip": "ym2612"
    },
    {
      "channel": 1,
      "note": 81,
      "start": 63.6774,
      "duration": 0.016,
      "velocity": 98,
      "chip": "ym2612"
    },
    {
      "channel": 5,
      "note": 78,
      "start": 63.6888,
      "duration": 0.0161,
      "velocity": 98,
      "chip": "ym2612"
    },
    {
      "channel": 3,
      "note": 86,
      "start": 63.6911,
      "duration": 0.0164,
      "velocity": 86,
      "chip": "ym2612"
    },
    {
      "channel": 2,
      "note": 59,
      "start": 63.6923,
      "duration": 0.0164,
      "velocity": 93,
      "chip": "ym2612"
    },
    {
      "channel": 1,
      "note": 81,
      "start": 63.6934,
      "duration": 0.0164,
      "velocity": 98,
      "chip": "ym2612"
    },
    {
      "channel": 5,
      "note": 78,
      "start": 63.7049,
      "duration": 0.0161,
      "velocity": 98,
      "chip": "ym2612"
    },
    {
      "channel": 4,
      "note": 86,
      "start": 63.7063,
      "duration": 0.0159,
      "velocity": 86,
      "chip": "ym2612"
    },
    {
      "channel": 3,
      "note": 86,
      "start": 63.7076,
      "duration": 0.0158,
      "velocity": 86,
      "chip": "ym2612"
    },
    {
      "channel": 2,
      "note": 59,
      "start": 63.7087,
      "duration": 0.0159,
      "velocity": 93,
      "chip": "ym2612"
    },
    {
      "channel": 1,
      "note": 81,
      "start": 63.7098,
      "duration": 0.0159,
      "velocity": 98,
      "chip": "ym2612"
    },
    {
      "channel": 5,
      "note": 78,
      "start": 63.721,
      "duration": 0.0161,
      "velocity": 98,
      "chip": "ym2612"
    },
    {
      "channel": 4,
      "note": 86,
      "start": 63.7222,
      "duration": 0.016,
      "velocity": 86,
      "chip": "ym2612"
    },
    {
      "channel": 3,
      "note": 86,
      "start": 63.7233,
      "duration": 0.0161,
      "velocity": 86,
      "chip": "ym2612"
    },
    {
      "channel": 2,
      "note": 59,
      "start": 63.7246,
      "duration": 0.016,
      "velocity": 93,
      "chip": "ym2612"
    },
    {
      "channel": 1,
      "note": 81,
      "start": 63.7257,
      "duration": 0.0161,
      "velocity": 98,
      "chip": "ym2612"
    },
    {
      "channel": 5,
      "note": 78,
      "start": 63.7371,
      "duration": 0.0197,
      "velocity": 98,
      "chip": "ym2612"
    },
    {
      "channel": 4,
      "note": 86,
      "start": 63.7382,
      "duration": 0.0197,
      "velocity": 86,
      "chip": "ym2612"
    },
    {
      "channel": 3,
      "note": 86,
      "start": 63.7394,
      "duration": 0.0197,
      "velocity": 86,
      "chip": "ym2612"
    },
    {
      "channel": 2,
      "note": 59,
      "start": 63.7406,
      "duration": 0.0199,
      "velocity": 93,
      "chip": "ym2612"
    },
    {
      "channel": 0,
      "note": 36,
      "start": 63.7556,
      "duration": 0.0146,
      "velocity": 115,
      "chip": "ym2612"
    },
    {
      "channel": 5,
      "note": 78,
      "start": 63.7567,
      "duration": 0.0147,
      "velocity": 98,
      "chip": "ym2612"
    },
    {
      "channel": 4,
      "note": 86,
      "start": 63.7579,
      "duration": 0.0146,
      "velocity": 86,
      "chip": "ym2612"
    },
    {
      "channel": 3,
      "note": 86,
      "start": 63.7591,
      "duration": 0.0147,
      "velocity": 86,
      "chip": "ym2612"
    },
    {
      "channel": 2,
      "note": 52,
      "start": 63.7605,
      "duration": 0.0144,
      "velocity": 93,
      "chip": "ym2612"
    },
    {
      "channel": 1,
      "note": 85,
      "start": 63.762,
      "duration": 0.0142,
      "velocity": 98,
      "chip": "ym2612"
    },
    {
      "channel": 0,
      "note": 36,
      "start": 63.7702,
      "duration": 0.0163,
      "velocity": 115,
      "chip": "ym2612"
    },
    {
      "channel": 4,
      "note": 86,
      "start": 63.7726,
      "duration": 0.0165,
      "velocity": 86,
      "chip": "ym2612"
    },
    {
      "channel": 3,
      "note": 86,
      "start": 63.7738,
      "duration": 0.0165,
      "velocity": 86,
      "chip": "ym2612"
    },
    {
      "channel": 2,
      "note": 52,
      "start": 63.775,
      "duration": 0.0165,
      "velocity": 93,
      "chip": "ym2612"
    },
    {
      "channel": 1,
      "note": 85,
      "start": 63.7762,
      "duration": 0.0164,
      "velocity": 98,
      "chip": "ym2612"
    },
    {
      "channel": 0,
      "note": 37,
      "start": 63.7865,
      "duration": 0.0161,
      "velocity": 115,
      "chip": "ym2612"
    },
    {
      "channel": 5,
      "note": 81,
      "start": 63.788,
      "duration": 0.0158,
      "velocity": 98,
      "chip": "ym2612"
    },
    {
      "channel": 4,
      "note": 86,
      "start": 63.7891,
      "duration": 0.0159,
      "velocity": 86,
      "chip": "ym2612"
    },
    {
      "channel": 3,
      "note": 86,
      "start": 63.7902,
      "duration": 0.0159,
      "velocity": 86,
      "chip": "ym2612"
    },
    {
      "channel": 2,
      "note": 52,
      "start": 63.7915,
      "duration": 0.0159,
      "velocity": 93,
      "chip": "ym2612"
    },
    {
      "channel": 1,
      "note": 85,
      "start": 63.7926,
      "duration": 0.0159,
      "velocity": 98,
      "chip": "ym2612"
    },
    {
      "channel": 0,
      "note": 37,
      "start": 63.8026,
      "duration": 0.016,
      "velocity": 115,
      "chip": "ym2612"
    },
    {
      "channel": 5,
      "note": 81,
      "start": 63.8038,
      "duration": 0.016,
      "velocity": 98,
      "chip": "ym2612"
    },
    {
      "channel": 4,
      "note": 86,
      "start": 63.805,
      "duration": 0.016,
      "velocity": 86,
      "chip": "ym2612"
    },
    {
      "channel": 3,
      "note": 86,
      "start": 63.8061,
      "duration": 0.016,
      "velocity": 86,
      "chip": "ym2612"
    },
    {
      "channel": 2,
      "note": 52,
      "start": 63.8073,
      "duration": 0.016,
      "velocity": 93,
      "chip": "ym2612"
    },
    {
      "channel": 1,
      "note": 85,
      "start": 63.8085,
      "duration": 0.016,
      "velocity": 98,
      "chip": "ym2612"
    },
    {
      "channel": 0,
      "note": 38,
      "start": 63.8186,
      "duration": 0.0158,
      "velocity": 115,
      "chip": "ym2612"
    },
    {
      "channel": 5,
      "note": 81,
      "start": 63.8198,
      "duration": 0.0161,
      "velocity": 98,
      "chip": "ym2612"
    },
    {
      "channel": 4,
      "note": 86,
      "start": 63.821,
      "duration": 0.0161,
      "velocity": 86,
      "chip": "ym2612"
    },
    {
      "channel": 3,
      "note": 86,
      "start": 63.8222,
      "duration": 0.0161,
      "velocity": 86,
      "chip": "ym2612"
    },
    {
      "channel": 2,
      "note": 52,
      "start": 63.8234,
      "duration": 0.0161,
      "velocity": 93,
      "chip": "ym2612"
    },
    {
      "channel": 1,
      "note": 85,
      "start": 63.8245,
      "duration": 0.0161,
      "velocity": 98,
      "chip": "ym2612"
    },
    {
      "channel": 0,
      "note": 38,
      "start": 63.8344,
      "duration": 0.0159,
      "velocity": 115,
      "chip": "ym2612"
    },
    {
      "channel": 5,
      "note": 81,
      "start": 63.8359,
      "duration": 0.016,
      "velocity": 98,
      "chip": "ym2612"
    },
    {
      "channel": 4,
      "note": 86,
      "start": 63.8371,
      "duration": 0.0161,
      "velocity": 86,
      "chip": "ym2612"
    },
    {
      "channel": 3,
      "note": 86,
      "start": 63.8383,
      "duration": 0.0161,
      "velocity": 86,
      "chip": "ym2612"
    },
    {
      "channel": 2,
      "note": 52,
      "start": 63.8395,
      "duration": 0.0161,
      "velocity": 93,
      "chip": "ym2612"
    },
    {
      "channel": 1,
      "note": 85,
      "start": 63.8406,
      "duration": 0.0161,
      "velocity": 98,
      "chip": "ym2612"
    },
    {
      "channel": 0,
      "note": 39,
      "start": 63.8503,
      "duration": 0.0161,
      "velocity": 115,
      "chip": "ym2612"
    },
    {
      "channel": 5,
      "note": 81,
      "start": 63.852,
      "duration": 0.0158,
      "velocity": 98,
      "chip": "ym2612"
    },
    {
      "channel": 4,
      "note": 86,
      "start": 63.8532,
      "duration": 0.0161,
      "velocity": 86,
      "chip": "ym2612"
    },
    {
      "channel": 3,
      "note": 86,
      "start": 63.8544,
      "duration": 0.0161,
      "velocity": 86,
      "chip": "ym2612"
    },
    {
      "channel": 2,
      "note": 52,
      "start": 63.8556,
      "duration": 0.0161,
      "velocity": 93,
      "chip": "ym2612"
    },
    {
      "channel": 1,
      "note": 85,
      "start": 63.8567,
      "duration": 0.0161,
      "velocity": 98,
      "chip": "ym2612"
    },
    {
      "channel": 0,
      "note": 39,
      "start": 63.8664,
      "duration": 0.0161,
      "velocity": 115,
      "chip": "ym2612"
    },
    {
      "channel": 5,
      "note": 81,
      "start": 63.8677,
      "duration": 0.0159,
      "velocity": 98,
      "chip": "ym2612"
    },
    {
      "channel": 4,
      "note": 86,
      "start": 63.8693,
      "duration": 0.016,
      "velocity": 86,
      "chip": "ym2612"
    },
    {
      "channel": 3,
      "note": 86,
      "start": 63.8705,
      "duration": 0.0161,
      "velocity": 86,
      "chip": "ym2612"
    },
    {
      "channel": 2,
      "note": 52,
      "start": 63.8717,
      "duration": 0.0161,
      "velocity": 93,
      "chip": "ym2612"
    },
    {
      "channel": 1,
      "note": 85,
      "start": 63.8728,
      "duration": 0.0161,
      "velocity": 98,
      "chip": "ym2612"
    },
    {
      "channel": 0,
      "note": 40,
      "start": 63.8825,
      "duration": 0.0161,
      "velocity": 115,
      "chip": "ym2612"
    },
    {
      "channel": 5,
      "note": 81,
      "start": 63.8836,
      "duration": 0.0161,
      "velocity": 98,
      "chip": "ym2612"
    },
    {
      "channel": 4,
      "note": 86,
      "start": 63.8853,
      "duration": 0.0158,
      "velocity": 86,
      "chip": "ym2612"
    },
    {
      "channel": 3,
      "note": 86,
      "start": 63.8866,
      "duration": 0.0161,
      "velocity": 86,
      "chip": "ym2612"
    },
    {
      "channel": 2,
      "note": 52,
      "start": 63.8878,
      "duration": 0.0162,
      "velocity": 93,
      "chip": "ym2612"
    },
    {
      "channel": 1,
      "note": 85,
      "start": 63.8889,
      "duration": 0.0161,
      "velocity": 98,
      "chip": "ym2612"
    },
    {
      "channel": 0,
      "note": 40,
      "start": 63.8986,
      "duration": 0.0161,
      "velocity": 115,
      "chip": "ym2612"
    },
    {
      "channel": 5,
      "note": 81,
      "start": 63.8997,
      "duration": 0.0161,
      "velocity": 98,
      "chip": "ym2612"
    },
    {
      "channel": 4,
      "note": 86,
      "start": 63.9011,
      "duration": 0.0159,
      "velocity": 86,
      "chip": "ym2612"
    },
    {
      "channel": 3,
      "note": 86,
      "start": 63.9027,
      "duration": 0.016,
      "velocity": 86,
      "chip": "ym2612"
    },
    {
      "channel": 2,
      "note": 52,
      "start": 63.9039,
      "duration": 0.0161,
      "velocity": 93,
      "chip": "ym2612"
    },
    {
      "channel": 1,
      "note": 85,
      "start": 63.9051,
      "duration": 0.0161,
      "velocity": 98,
      "chip": "ym2612"
    },
    {
      "channel": 0,
      "note": 40,
      "start": 63.9147,
      "duration": 0.0161,
      "velocity": 115,
      "chip": "ym2612"
    },
    {
      "channel": 5,
      "note": 81,
      "start": 63.9158,
      "duration": 0.0162,
      "velocity": 98,
      "chip": "ym2612"
    },
    {
      "channel": 4,
      "note": 86,
      "start": 63.917,
      "duration": 0.0161,
      "velocity": 86,
      "chip": "ym2612"
    },
    {
      "channel": 3,
      "note": 86,
      "start": 63.9187,
      "duration": 0.0161,
      "velocity": 86,
      "chip": "ym2612"
    },
    {
      "channel": 2,
      "note": 52,
      "start": 63.92,
      "duration": 0.0162,
      "velocity": 93,
      "chip": "ym2612"
    },
    {
      "channel": 1,
      "note": 85,
      "start": 63.9212,
      "duration": 0.0161,
      "velocity": 98,
      "chip": "ym2612"
    },
    {
      "channel": 0,
      "note": 41,
      "start": 63.9308,
      "duration": 0.0161,
      "velocity": 115,
      "chip": "ym2612"
    },
    {
      "channel": 5,
      "note": 81,
      "start": 63.932,
      "duration": 0.0161,
      "velocity": 98,
      "chip": "ym2612"
    },
    {
      "channel": 4,
      "note": 86,
      "start": 63.9331,
      "duration": 0.0161,
      "velocity": 86,
      "chip": "ym2612"
    },
    {
      "channel": 2,
      "note": 52,
      "start": 63.9362,
      "duration": 0.0163,
      "velocity": 93,
      "chip": "ym2612"
    },
    {
      "channel": 1,
      "note": 85,
      "start": 63.9373,
      "duration": 0.0163,
      "velocity": 98,
      "chip": "ym2612"
    },
    {
      "channel": 0,
      "note": 41,
      "start": 63.9468,
      "duration": 0.0161,
      "velocity": 115,
      "chip": "ym2612"
    },
    {
      "channel": 5,
      "note": 81,
      "start": 63.9481,
      "duration": 0.0161,
      "velocity": 98,
      "chip": "ym2612"
    },
    {
      "channel": 4,
      "note": 86,
      "start": 63.9492,
      "duration": 0.0161,
      "velocity": 86,
      "chip": "ym2612"
    },
    {
      "channel": 3,
      "note": 76,
      "start": 63.9509,
      "duration": 0.0156,
      "velocity": 86,
      "chip": "ym2612"
    },
    {
      "channel": 2,
      "note": 52,
      "start": 63.9525,
      "duration": 0.0157,
      "velocity": 93,
      "chip": "ym2612"
    },
    {
      "channel": 1,
      "note": 85,
      "start": 63.9537,
      "duration": 0.0159,
      "velocity": 98,
      "chip": "ym2612"
    },
    {
      "channel": 0,
      "note": 42,
      "start": 63.9629,
      "duration": 0.0161,
      "velocity": 115,
      "chip": "ym2612"
    },
    {
      "channel": 5,
      "note": 81,
      "start": 63.9641,
      "duration": 0.0161,
      "velocity": 98,
      "chip": "ym2612"
    },
    {
      "channel": 4,
      "note": 86,
      "start": 63.9653,
      "duration": 0.0161,
      "velocity": 86,
      "chip": "ym2612"
    },
    {
      "channel": 3,
      "note": 76,
      "start": 63.9666,
      "duration": 0.016,
      "velocity": 86,
      "chip": "ym2612"
    },
    {
      "channel": 2,
      "note": 52,
      "start": 63.9682,
      "duration": 0.0155,
      "velocity": 93,
      "chip": "ym2612"
    },
    {
      "channel": 1,
      "note": 85,
      "start": 63.9695,
      "duration": 0.016,
      "velocity": 98,
      "chip": "ym2612"
    },
    {
      "channel": 0,
      "note": 42,
      "start": 63.979,
      "duration": 0.0161,
      "velocity": 115,
      "chip": "ym2612"
    },
    {
      "channel": 5,
      "note": 81,
      "start": 63.9802,
      "duration": 0.0161,
      "velocity": 98,
      "chip": "ym2612"
    },
    {
      "channel": 3,
      "note": 76,
      "start": 63.9826,
      "duration": 0.0164,
      "velocity": 86,
      "chip": "ym2612"
    },
    {
      "channel": 2,
      "note": 52,
      "start": 63.9837,
      "duration": 0.0164,
      "velocity": 93,
      "chip": "ym2612"
    },
    {
      "channel": 1,
      "note": 85,
      "start": 63.9855,
      "duration": 0.0164,
      "velocity": 98,
      "chip": "ym2612"
    },
    {
      "channel": 0,
      "note": 43,
      "start": 63.9952,
      "duration": 0.0161,
      "velocity": 115,
      "chip": "ym2612"
    },
    {
      "channel": 5,
      "note": 81,
      "start": 63.9963,
      "duration": 0.0161,
      "velocity": 98,
      "chip": "ym2612"
    },
    {
      "channel": 4,
      "note": 76,
      "start": 63.9979,
      "duration": 0.0158,
      "velocity": 86,
      "chip": "ym2612"
    },
    {
      "channel": 3,
      "note": 76,
      "start": 63.999,
      "duration": 0.0158,
      "velocity": 86,
      "chip": "ym2612"
    },
    {
      "channel": 2,
      "note": 52,
      "start": 64.0002,
      "duration": 0.0159,
      "velocity": 93,
      "chip": "ym2612"
    },
    {
      "channel": 1,
      "note": 85,
      "start": 64.0019,
      "duration": 0.0156,
      "velocity": 98,
      "chip": "ym2612"
    },
    {
      "channel": 0,
      "note": 43,
      "start": 64.0113,
      "duration": 0.0161,
      "velocity": 115,
      "chip": "ym2612"
    },
    {
      "channel": 5,
      "note": 81,
      "start": 64.0124,
      "duration": 0.0161,
      "velocity": 98,
      "chip": "ym2612"
    },
    {
      "channel": 4,
      "note": 76,
      "start": 64.0137,
      "duration": 0.016,
      "velocity": 86,
      "chip": "ym2612"
    },
    {
      "channel": 3,
      "note": 76,
      "start": 64.0149,
      "duration": 0.016,
      "velocity": 86,
      "chip": "ym2612"
    },
    {
      "channel": 2,
      "note": 52,
      "start": 64.0161,
      "duration": 0.0161,
      "velocity": 93,
      "chip": "ym2612"
    },
    {
      "channel": 1,
      "note": 85,
      "start": 64.0175,
      "duration": 0.0159,
      "velocity": 98,
      "chip": "ym2612"
    },
    {
      "channel": 0,
      "note": 44,
      "start": 64.0274,
      "duration": 0.0179,
      "velocity": 124,
      "chip": "ym2612"
    },
    {
      "channel": 5,
      "note": 81,
      "start": 64.0285,
      "duration": 0.0179,
      "velocity": 98,
      "chip": "ym2612"
    },
    {
      "channel": 4,
      "note": 76,
      "start": 64.0297,
      "duration": 0.018,
      "velocity": 86,
      "chip": "ym2612"
    },
    {
      "channel": 2,
      "note": 52,
      "start": 64.0322,
      "duration": 0.0184,
      "velocity": 93,
      "chip": "ym2612"
    },
    {
      "channel": 1,
      "note": 85,
      "start": 64.0333,
      "duration": 0.019,
      "velocity": 98,
      "chip": "ym2612"
    },
    {
      "channel": 0,
      "note": 84,
      "start": 64.0453,
      "duration": 0.0143,
      "velocity": 124,
      "chip": "ym2612"
    },
    {
      "channel": 5,
      "note": 81,
      "start": 64.0465,
      "duration": 0.0143,
      "velocity": 98,
      "chip": "ym2612"
    },
    {
      "channel": 4,
      "note": 76,
      "start": 64.0477,
      "duration": 0.0143,
      "velocity": 86,
      "chip": "ym2612"
    },
    {
      "channel": 3,
      "note": 80,
      "start": 64.0491,
      "duration": 0.0141,
      "velocity": 86,
      "chip": "ym2612"
    },
    {
      "channel": 2,
      "note": 52,
      "start": 64.0508,
      "duration": 0.0136,
      "velocity": 93,
      "chip": "ym2612"
    },
    {
      "channel": 1,
      "note": 85,
      "start": 64.0523,
      "duration": 0.0133,
      "velocity": 98,
      "chip": "ym2612"
    },
    {
      "channel": 0,
      "note": 82,
      "start": 64.0596,
      "duration": 0.016,
      "velocity": 124,
      "chip": "ym2612"
    },
    {
      "channel": 4,
      "note": 76,
      "start": 64.062,
      "duration": 0.0163,
      "velocity": 86,
      "chip": "ym2612"
    },
    {
      "channel": 3,
      "note": 80,
      "start": 64.0632,
      "duration": 0.0163,
      "velocity": 86,
      "chip": "ym2612"
    },
    {
      "channel": 2,
      "note": 52,
      "start": 64.0644,
      "duration": 0.0162,
      "velocity": 93,
      "chip": "ym2612"
    },
    {
      "channel": 1,
      "note": 85,
      "start": 64.0656,
      "duration": 0.0162,
      "velocity": 98,
      "chip": "ym2612"
    },
    {
      "channel": 0,
      "note": 80,
      "start": 64.0757,
      "duration": 0.0161,
      "velocity": 124,
      "chip": "ym2612"
    },
    {
      "channel": 5,
      "note": 85,
      "start": 64.0771,
      "duration": 0.0159,
      "velocity": 98,
      "chip": "ym2612"
    },
    {
      "channel": 3,
      "note": 80,
      "start": 64.0795,
      "duration": 0.0162,
      "velocity": 86,
      "chip": "ym2612"
    },
    {
      "channel": 2,
      "note": 52,
      "start": 64.0806,
      "duration": 0.0162,
      "velocity": 93,
      "chip": "ym2612"
    },
    {
      "channel": 1,
      "note": 85,
      "start": 64.0818,
      "duration": 0.0162,
      "velocity": 98,
      "chip": "ym2612"
    },
    {
      "channel": 0,
      "note": 77,
      "start": 64.0918,
      "duration": 0.0161,
      "velocity": 124,
      "chip": "ym2612"
    },
    {
      "channel": 5,
      "note": 85,
      "start": 64.093,
      "duration": 0.016,
      "velocity": 98,
      "chip": "ym2612"
    },
    {
      "channel": 4,
      "note": 80,
      "start": 64.0945,
      "duration": 0.0158,
      "velocity": 86,
      "chip": "ym2612"
    },
    {
      "channel": 3,
      "note": 80,
      "start": 64.0956,
      "duration": 0.0158,
      "velocity": 86,
      "chip": "ym2612"
    },
    {
      "channel": 2,
      "note": 52,
      "start": 64.0968,
      "duration": 0.0158,
      "velocity": 93,
      "chip": "ym2612"
    },
    {
      "channel": 1,
      "note": 85,
      "start": 64.098,
      "duration": 0.0158,
      "velocity": 98,
      "chip": "ym2612"
    },
    {
      "channel": 0,
      "note": 75,
      "start": 64.1079,
      "duration": 0.0161,
      "velocity": 124,
      "chip": "ym2612"
    },
    {
      "channel": 5,
      "note": 85,
      "start": 64.1091,
      "duration": 0.0161,
      "velocity": 98,
      "chip": "ym2612"
    },
    {
      "channel": 4,
      "note": 80,
      "start": 64.1103,
      "duration": 0.016,
      "velocity": 86,
      "chip": "ym2612"
    },
    {
      "channel": 3,
      "note": 80,
      "start": 64.1115,
      "duration": 0.016,
      "velocity": 86,
      "chip": "ym2612"
    },
    {
      "channel": 2,
      "note": 52,
      "start": 64.1126,
      "duration": 0.016,
      "velocity": 93,
      "chip": "ym2612"
    },
    {
      "channel": 1,
      "note": 85,
      "start": 64.1138,
      "duration": 0.016,
      "velocity": 98,
      "chip": "ym2612"
    },
    {
      "channel": 0,
      "note": 72,
      "start": 64.124,
      "duration": 0.0161,
      "velocity": 124,
      "chip": "ym2612"
    },
    {
      "channel": 5,
      "note": 85,
      "start": 64.1252,
      "duration": 0.0161,
      "velocity": 98,
      "chip": "ym2612"
    },
    {
      "channel": 4,
      "note": 80,
      "start": 64.1263,
      "duration": 0.0161,
      "velocity": 86,
      "chip": "ym2612"
    },
    {
      "channel": 3,
      "note": 80,
      "start": 64.1275,
      "duration": 0.0161,
      "velocity": 86,
      "chip": "ym2612"
    },
    {
      "channel": 2,
      "note": 52,
      "start": 64.1287,
      "duration": 0.0161,
      "velocity": 93,
      "chip": "ym2612"
    },
    {
      "channel": 1,
      "note": 85,
      "start": 64.1298,
      "duration": 0.0161,
      "velocity": 98,
      "chip": "ym2612"
    },
    {
      "channel": 0,
      "note": 70,
      "start": 64.1401,
      "duration": 0.0161,
      "velocity": 124,
      "chip": "ym2612"
    },
    {
      "channel": 5,
      "note": 85,
      "start": 64.1412,
      "duration": 0.0161,
      "velocity": 98,
      "chip": "ym2612"
    },
    {
      "channel": 4,
      "note": 80,
      "start": 64.1424,
      "duration": 0.0161,
      "velocity": 86,
      "chip": "ym2612"
    },
    {
      "channel": 3,
      "note": 80,
      "start": 64.1436,
      "duration": 0.0161,
      "velocity": 86,
      "chip": "ym2612"
    },
    {
      "channel": 2,
      "note": 52,
      "start": 64.1448,
      "duration": 0.0161,
      "velocity": 93,
      "chip": "ym2612"
    },
    {
      "channel": 1,
      "note": 85,
      "start": 64.1459,
      "duration": 0.0162,
      "velocity": 98,
      "chip": "ym2612"
    },
    {
      "channel": 0,
      "note": 68,
      "start": 64.1562,
      "duration": 0.0161,
      "velocity": 124,
      "chip": "ym2612"
    },
    {
      "channel": 5,
      "note": 85,
      "start": 64.1573,
      "duration": 0.0161,
      "velocity": 98,
      "chip": "ym2612"
    },
    {
      "channel": 4,
      "note": 80,
      "start": 64.1585,
      "duration": 0.0161,
      "velocity": 86,
      "chip": "ym2612"
    },
    {
      "channel": 3,
      "note": 80,
      "start": 64.1597,
      "duration": 0.0161,
      "velocity": 86,
      "chip": "ym2612"
    },
    {
      "channel": 2,
      "note": 52,
      "start": 64.1609,
      "duration": 0.0161,
      "velocity": 93,
      "chip": "ym2612"
    },
    {
      "channel": 1,
      "note": 85,
      "start": 64.1621,
      "duration": 0.0161,
      "velocity": 98,
      "chip": "ym2612"
    },
    {
      "channel": 0,
      "note": 65,
      "start": 64.1723,
      "duration": 0.0161,
      "velocity": 124,
      "chip": "ym2612"
    },
    {
      "channel": 5,
      "note": 85,
      "start": 64.1734,
      "duration": 0.0161,
      "velocity": 98,
      "chip": "ym2612"
    },
    {
      "channel": 4,
      "note": 80,
      "start": 64.1746,
      "duration": 0.0162,
      "velocity": 86,
      "chip": "ym2612"
    },
    {
      "channel": 3,
      "note": 80,
      "start": 64.1758,
      "duration": 0.0161,
      "velocity": 86,
      "chip": "ym2612"
    },
    {
      "channel": 2,
      "note": 52,
      "start": 64.177,
      "duration": 0.0162,
      "velocity": 93,
      "chip": "ym2612"
    },
    {
      "channel": 0,
      "note": 63,
      "start": 64.1884,
      "duration": 0.0153,
      "velocity": 1,
      "chip": "ym2612"
    },
    {
      "channel": 5,
      "note": 85,
      "start": 64.1895,
      "duration": 0.0153,
      "velocity": 98,
      "chip": "ym2612"
    },
    {
      "channel": 4,
      "note": 80,
      "start": 64.1907,
      "duration": 0.0153,
      "velocity": 86,
      "chip": "ym2612"
    },
    {
      "channel": 3,
      "note": 80,
      "start": 64.1919,
      "duration": 0.0154,
      "velocity": 86,
      "chip": "ym2612"
    },
    {
      "channel": 2,
      "note": 52,
      "start": 64.1932,
      "duration": 0.0153,
      "velocity": 93,
      "chip": "ym2612"
    },
    {
      "channel": 1,
      "note": 83,
      "start": 64.1946,
      "duration": 0.015,
      "velocity": 98,
      "chip": "ym2612"
    },
    {
      "channel": 5,
      "note": 85,
      "start": 64.2048,
      "duration": 0.0153,
      "velocity": 98,
      "chip": "ym2612"
    },
    {
      "channel": 4,
      "note": 80,
      "start": 64.206,
      "duration": 0.0153,
      "velocity": 86,
      "chip": "ym2612"
    },
    {
      "channel": 3,
      "note": 80,
      "start": 64.2072,
      "duration": 0.0153,
      "velocity": 86,
      "chip": "ym2612"
    },
    {
      "channel": 2,
      "note": 52,
      "start": 64.2084,
      "duration": 0.0153,
      "velocity": 93,
      "chip": "ym2612"
    },
    {
      "channel": 1,
      "note": 83,
      "start": 64.2096,
      "duration": 0.0152,
      "velocity": 98,
      "chip": "ym2612"
    },
    {
      "channel": 5,
      "note": 85,
      "start": 64.2201,
      "duration": 0.0162,
      "velocity": 98,
      "chip": "ym2612"
    },
    {
      "channel": 4,
      "note": 80,
      "start": 64.2213,
      "duration": 0.0161,
      "velocity": 86,
      "chip": "ym2612"
    },
    {
      "channel": 2,
      "note": 52,
      "start": 64.2237,
      "duration": 0.0164,
      "velocity": 93,
      "chip": "ym2612"
    },
    {
      "channel": 5,
      "note": 85,
      "start": 64.2362,
      "duration": 0.0164,
      "velocity": 98,
      "chip": "ym2612"
    },
    {
      "channel": 4,
      "note": 80,
      "start": 64.2374,
      "duration": 0.0164,
      "velocity": 86,
      "chip": "ym2612"
    },
    {
      "channel": 3,
      "note": 86,
      "start": 64.239,
      "duration": 0.0162,
      "velocity": 86,
      "chip": "ym2612"
    },
    {
      "channel": 2,
      "note": 52,
      "start": 64.2401,
      "duration": 0.0161,
      "velocity": 93,
      "chip": "ym2612"
    },
    {
      "channel": 1,
      "note": 82,
      "start": 64.2416,
      "duration": 0.0159,
      "velocity": 98,
      "chip": "ym2612"
    },
    {
      "channel": 5,
      "note": 85,
      "start": 64.2527,
      "duration": 0.0163,
      "velocity": 98,
      "chip": "ym2612"
    },
    {
      "channel": 4,
      "note": 80,
      "start": 64.2539,
      "duration": 0.0163,
      "velocity": 86,
      "chip": "ym2612"
    },
    {
      "channel": 3,
      "note": 86,
      "start": 64.2551,
      "duration": 0.0162,
      "velocity": 86,
      "chip": "ym2612"
    },
    {
      "channel": 2,
      "note": 52,
      "start": 64.2563,
      "duration": 0.0162,
      "velocity": 93,
      "chip": "ym2612"
    },
    {
      "channel": 1,
      "note": 82,
      "start": 64.2575,
      "duration": 0.0162,
      "velocity": 98,
      "chip": "ym2612"
    },
    {
      "channel": 5,
      "note": 85,
      "start": 64.269,
      "duration": 0.016,
      "velocity": 98,
      "chip": "ym2612"
    },
    {
      "channel": 3,
      "note": 86,
      "start": 64.2713,
      "duration": 0.0164,
      "velocity": 86,
      "chip": "ym2612"
    },
    {
      "channel": 2,
      "note": 52,
      "start": 64.2725,
      "duration": 0.0164,
      "velocity": 93,
      "chip": "ym2612"
    },
    {
      "channel": 5,
      "note": 85,
      "start": 64.285,
      "duration": 0.0158,
      "velocity": 98,
      "chip": "ym2612"
    },
    {
      "channel": 4,
      "note": 86,
      "start": 64.2866,
      "duration": 0.0158,
      "velocity": 86,
      "chip": "ym2612"
    },
    {
      "channel": 3,
      "note": 86,
      "start": 64.2878,
      "duration": 0.0159,
      "velocity": 86,
      "chip": "ym2612"
    },
    {
      "channel": 2,
      "note": 52,
      "start": 64.2889,
      "duration": 0.0159,
      "velocity": 93,
      "chip": "ym2612"
    },
    {
      "channel": 1,
      "note": 81,
      "start": 64.2904,
      "duration": 0.0156,
      "velocity": 98,
      "chip": "ym2612"
    },
    {
      "channel": 5,
      "note": 85,
      "start": 64.3008,
      "duration": 0.0159,
      "velocity": 98,
      "chip": "ym2612"
    },
    {
      "channel": 4,
      "note": 86,
      "start": 64.3024,
      "duration": 0.016,
      "velocity": 86,
      "chip": "ym2612"
    },
    {
      "channel": 3,
      "note": 86,
      "start": 64.3036,
      "duration": 0.016,
      "velocity": 86,
      "chip": "ym2612"
    },
    {
      "channel": 2,
      "note": 52,
      "start": 64.3048,
      "duration": 0.016,
      "velocity": 93,
      "chip": "ym2612"
    },
    {
      "channel": 1,
      "note": 81,
      "start": 64.306,
      "duration": 0.016,
      "velocity": 98,
      "chip": "ym2612"
    },
    {
      "channel": 5,
      "note": 85,
      "start": 64.3167,
      "duration": 0.0202,
      "velocity": 98,
      "chip": "ym2612"
    },
    {
      "channel": 4,
      "note": 86,
      "start": 64.3183,
      "duration": 0.0197,
      "velocity": 86,
      "chip": "ym2612"
    },
    {
      "channel": 3,
      "note": 86,
      "start": 64.3196,
      "duration": 0.0196,
      "velocity": 86,
      "chip": "ym2612"
    },
    {
      "channel": 2,
      "note": 52,
      "start": 64.3208,
      "duration": 0.0198,
      "velocity": 93,
      "chip": "ym2612"
    },
    {
      "channel": 0,
      "note": 36,
      "start": 64.3357,
      "duration": 0.0137,
      "velocity": 115,
      "chip": "ym2612"
    },
    {
      "channel": 5,
      "note": 85,
      "start": 64.3369,
      "duration": 0.0139,
      "velocity": 98,
      "chip": "ym2612"
    },
    {
      "channel": 4,
      "note": 86,
      "start": 64.3381,
      "duration": 0.0143,
      "velocity": 86,
      "chip": "ym2612"
    },
    {
      "channel": 3,
      "note": 86,
      "start": 64.3392,
      "duration": 0.0144,
      "velocity": 86,
      "chip": "ym2612"
    },
    {
      "channel": 2,
      "note": 52,
      "start": 64.3407,
      "duration": 0.0141,
      "velocity": 93,
      "chip": "ym2612"
    },
    {
      "channel": 1,
      "note": 80,
      "start": 64.3422,
      "duration": 0.0138,
      "velocity": 98,
      "chip": "ym2612"
    },
    {
      "channel": 0,
      "note": 36,
      "start": 64.3495,
      "duration": 0.016,
      "velocity": 115,
      "chip": "ym2612"
    },
    {
      "channel": 5,
      "note": 85,
      "start": 64.3508,
      "duration": 0.0159,
      "velocity": 98,
      "chip": "ym2612"
    },
    {
      "channel": 4,
      "note": 86,
      "start": 64.3524,
      "duration": 0.016,
      "velocity": 86,
      "chip": "ym2612"
    },
    {
      "channel": 3,
      "note": 86,
      "start": 64.3536,
      "duration": 0.016,
      "velocity": 86,
      "chip": "ym2612"
    },
    {
      "channel": 2,
      "note": 52,
      "start": 64.3548,
      "duration": 0.016,
      "velocity": 93,
      "chip": "ym2612"
    },
    {
      "channel": 1,
      "note": 80,
      "start": 64.356,
      "duration": 0.016,
      "velocity": 98,
      "chip": "ym2612"
    },
    {
      "channel": 0,
      "note": 37,
      "start": 64.3655,
      "duration": 0.0161,
      "velocity": 115,
      "chip": "ym2612"
    },
    {
      "channel": 5,
      "note": 85,
      "start": 64.3667,
      "duration": 0.0161,
      "velocity": 98,
      "chip": "ym2612"
    },
    {
      "channel": 4,
      "note": 86,
      "start": 64.3683,
      "duration": 0.0158,
      "velocity": 86,
      "chip": "ym2612"
    },
    {
      "channel": 3,
      "note": 86,
      "start": 64.3696,
      "duration": 0.0161,
      "velocity": 86,
      "chip": "ym2612"
    },
    {
      "channel": 2,
      "note": 52,
      "start": 64.3708,
      "duration": 0.0161,
      "velocity": 93,
      "chip": "ym2612"
    },
    {
      "channel": 1,
      "note": 80,
      "start": 64.372,
      "duration": 0.0161,
      "velocity": 98,
      "chip": "ym2612"
    },
    {
      "channel": 0,
      "note": 37,
      "start": 64.3816,
      "duration": 0.0161,
      "velocity": 115,
      "chip": "ym2612"
    },
    {
      "channel": 5,
      "note": 85,
      "start": 64.3828,
      "duration": 0.0161,
      "velocity": 98,
      "chip": "ym2612"
    },
    {
      "channel": 4,
      "note": 86,
      "start": 64.3841,
      "duration": 0.0159,
      "velocity": 86,
      "chip": "ym2612"
    },
    {
      "channel": 3,
      "note": 86,
      "start": 64.3857,
      "duration": 0.016,
      "velocity": 86,
      "chip": "ym2612"
    },
    {
      "channel": 2,
      "note": 52,
      "start": 64.3869,
      "duration": 0.0161,
      "velocity": 93,
      "chip": "ym2612"
    },
    {
      "channel": 1,
      "note": 80,
      "start": 64.3881,
      "duration": 0.0161,
      "velocity": 98,
      "chip": "ym2612"
    },
    {
      "channel": 0,
      "note": 38,
      "start": 64.3977,
      "duration": 0.0161,
      "velocity": 115,
      "chip": "ym2612"
    },
    {
      "channel": 5,
      "note": 85,
      "start": 64.3989,
      "duration": 0.0161,
      "velocity": 98,
      "chip": "ym2612"
    },
    {
      "channel": 4,
      "note": 86,
      "start": 64.4,
      "duration": 0.0161,
      "velocity": 86,
      "chip": "ym2612"
    },
    {
      "channel": 3,
      "note": 86,
      "start": 64.4017,
      "duration": 0.0158,
      "velocity": 86,
      "chip": "ym2612"
    },
    {
      "channel": 2,
      "note": 52,
      "start": 64.403,
      "duration": 0.0161,
      "velocity": 93,
      "chip": "ym2612"
    },
    {
      "channel": 1,
      "note": 80,
      "start": 64.4042,
      "duration": 0.0161,
      "velocity": 98,
      "chip": "ym2612"
    },
    {
      "channel": 0,
      "note": 38,
      "start": 64.4138,
      "duration": 0.0162,
      "velocity": 115,
      "chip": "ym2612"
    },
    {
      "channel": 5,
      "note": 85,
      "start": 64.415,
      "duration": 0.0161,
      "velocity": 98,
      "chip": "ym2612"
    },
    {
      "channel": 4,
      "note": 86,
      "start": 64.4161,
      "duration": 0.0161,
      "velocity": 86,
      "chip": "ym2612"
    },
    {
      "channel": 3,
      "note": 86,
      "start": 64.4175,
      "duration": 0.0159,
      "velocity": 86,
      "chip": "ym2612"
    },
    {
      "channel": 2,
      "note": 52,
      "start": 64.4191,
      "duration": 0.016,
      "velocity": 93,
      "chip": "ym2612"
    },
    {
      "channel": 1,
      "note": 80,
      "start": 64.4203,
      "duration": 0.0161,
      "velocity": 98,
      "chip": "ym2612"
    },
    {
      "channel": 0,
      "note": 39,
      "start": 64.4299,
      "duration": 0.0161,
      "velocity": 115,
      "chip": "ym2612"
    },
    {
      "channel": 5,
      "note": 85,
      "start": 64.4311,
      "duration": 0.0161,
      "velocity": 98,
      "chip": "ym2612"
    },
    {
      "channel": 4,
      "note": 86,
      "start": 64.4322,
      "duration": 0.0161,
      "velocity": 86,
      "chip": "ym2612"
    },
    {
      "channel": 3,
      "note": 86,
      "start": 64.4334,
      "duration": 0.0161,
      "velocity": 86,
      "chip": "ym2612"
    },
    {
      "channel": 2,
      "note": 52,
      "start": 64.4351,
      "duration": 0.0158,
      "velocity": 93,
      "chip": "ym2612"
    },
    {
      "channel": 1,
      "note": 80,
      "start": 64.4363,
      "duration": 0.0161,
      "velocity": 98,
      "chip": "ym2612"
    },
    {
      "channel": 0,
      "note": 39,
      "start": 64.446,
      "duration": 0.0161,
      "velocity": 115,
      "chip": "ym2612"
    },
    {
      "channel": 5,
      "note": 85,
      "start": 64.4472,
      "duration": 0.0161,
      "velocity": 98,
      "chip": "ym2612"
    },
    {
      "channel": 4,
      "note": 86,
      "start": 64.4483,
      "duration": 0.0161,
      "velocity": 86,
      "chip": "ym2612"
    },
    {
      "channel": 3,
      "note": 86,
      "start": 64.4495,
      "duration": 0.0161,
      "velocity": 86,
      "chip": "ym2612"
    },
    {
      "channel": 2,
      "note": 52,
      "start": 64.4509,
      "duration": 0.0159,
      "velocity": 93,
      "chip": "ym2612"
    },
    {
      "channel": 1,
      "note": 80,
      "start": 64.4524,
      "duration": 0.0161,
      "velocity": 98,
      "chip": "ym2612"
    },
    {
      "channel": 0,
      "note": 40,
      "start": 64.4621,
      "duration": 0.0161,
      "velocity": 115,
      "chip": "ym2612"
    },
    {
      "channel": 5,
      "note": 85,
      "start": 64.4633,
      "duration": 0.0161,
      "velocity": 98,
      "chip": "ym2612"
    },
    {
      "channel": 4,
      "note": 86,
      "start": 64.4645,
      "duration": 0.0161,
      "velocity": 86,
      "chip": "ym2612"
    },
    {
      "channel": 3,
      "note": 86,
      "start": 64.4656,
      "duration": 0.0161,
      "velocity": 86,
      "chip": "ym2612"
    },
    {
      "channel": 2,
      "note": 52,
      "start": 64.4668,
      "duration": 0.0162,
      "velocity": 93,
      "chip": "ym2612"
    },
    {
      "channel": 1,
      "note": 80,
      "start": 64.4685,
      "duration": 0.0161,
      "velocity": 98,
      "chip": "ym2612"
    },
    {
      "channel": 0,
      "note": 40,
      "start": 64.4782,
      "duration": 0.0161,
      "velocity": 115,
      "chip": "ym2612"
    },
    {
      "channel": 5,
      "note": 85,
      "start": 64.4794,
      "duration": 0.0161,
      "velocity": 98,
      "chip": "ym2612"
    },
    {
      "channel": 4,
      "note": 86,
      "start": 64.4806,
      "duration": 0.0161,
      "velocity": 86,
      "chip": "ym2612"
    },
    {
      "channel": 3,
      "note": 86,
      "start": 64.4817,
      "duration": 0.0161,
      "velocity": 86,
      "chip": "ym2612"
    },
    {
      "channel": 2,
      "note": 52,
      "start": 64.483,
      "duration": 0.0161,
      "velocity": 93,
      "chip": "ym2612"
    },
    {
      "channel": 1,
      "note": 80,
      "start": 64.4846,
      "duration": 0.0156,
      "velocity": 98,
      "chip": "ym2612"
    },
    {
      "channel": 0,
      "note": 40,
      "start": 64.4943,
      "duration": 0.0161,
      "velocity": 115,
      "chip": "ym2612"
    },
    {
      "channel": 4,
      "note": 86,
      "start": 64.4967,
      "duration": 0.0164,
      "velocity": 86,
      "chip": "ym2612"
    },
    {
      "channel": 3,
      "note": 86,
      "start": 64.4979,
      "duration": 0.0164,
      "velocity": 86,
      "chip": "ym2612"
    },
    {
      "channel": 2,
      "note": 52,
      "start": 64.4991,
      "duration": 0.0164,
      "velocity": 93,
      "chip": "ym2612"
    },
    {
      "channel": 1,
      "note": 80,
      "start": 64.5002,
      "duration": 0.0164,
      "velocity": 98,
      "chip": "ym2612"
    },
    {
      "channel": 0,
      "note": 41,
      "start": 64.5104,
      "duration": 0.0179,
      "velocity": 115,
      "chip": "ym2612"
    },
    {
      "channel": 5,
      "note": 83,
      "start": 64.5119,
      "duration": 0.0178,
      "velocity": 98,
      "chip": "ym2612"
    },
    {
      "channel": 4,
      "note": 86,
      "start": 64.5131,
      "duration": 0.0177,
      "velocity": 86,
      "chip": "ym2612"
    },
    {
      "channel": 2,
      "note": 52,
      "start": 64.5155,
      "duration": 0.0179,
      "velocity": 93,
      "chip": "ym2612"
    },
    {
      "channel": 1,
      "note": 80,
      "start": 64.5166,
      "duration": 0.0186,
      "velocity": 98,
      "chip": "ym2612"
    },
    {
      "channel": 0,
      "note": 36,
      "start": 64.5283,
      "duration": 0.0143,
      "velocity": 115,
      "chip": "ym2612"
    },
    {
      "channel": 5,
      "note": 83,
      "start": 64.5296,
      "duration": 0.0142,
      "velocity": 98,
      "chip": "ym2612"
    },
    {
      "channel": 4,
      "note": 86,
      "start": 64.5308,
      "duration": 0.0143,
      "velocity": 86,
      "chip": "ym2612"
    },
    {
      "channel": 3,
      "note": 76,
      "start": 64.5323,
      "duration": 0.014,
      "velocity": 86,
      "chip": "ym2612"
    },
    {
      "channel": 2,
      "note": 52,
      "start": 64.5334,
      "duration": 0.014,
      "velocity": 93,
      "chip": "ym2612"
    },
    {
      "channel": 1,
      "note": 80,
      "start": 64.5352,
      "duration": 0.0134,
      "velocity": 98,
      "chip": "ym2612"
    },
    {
      "channel": 0,
      "note": 36,
      "start": 64.5427,
      "duration": 0.016,
      "velocity": 115,
      "chip": "ym2612"
    },
    {
      "channel": 4,
      "note": 86,
      "start": 64.5451,
      "duration": 0.0163,
      "velocity": 86,
      "chip": "ym2612"
    },
    {
      "channel": 3,
      "note": 76,
      "start": 64.5463,
      "duration": 0.0163,
      "velocity": 86,
      "chip": "ym2612"
    },
    {
      "channel": 2,
      "note": 52,
      "start": 64.5474,
      "duration": 0.0163,
      "velocity": 93,
      "chip": "ym2612"
    },
    {
      "channel": 1,
      "note": 80,
      "start": 64.5486,
      "duration": 0.0162,
      "velocity": 98,
      "chip": "ym2612"
    },
    {
      "channel": 0,
      "note": 37,
      "start": 64.5587,
      "duration": 0.0161,
      "velocity": 115,
      "chip": "ym2612"
    },
    {
      "channel": 5,
      "note": 82,
      "start": 64.5602,
      "duration": 0.0159,
      "velocity": 98,
      "chip": "ym2612"
    },
    {
      "channel": 3,
      "note": 76,
      "start": 64.5626,
      "duration": 0.0162,
      "velocity": 86,
      "chip": "ym2612"
    },
    {
      "channel": 2,
      "note": 52,
      "start": 64.5637,
      "duration": 0.0161,
      "velocity": 93,
      "chip": "ym2612"
    },
    {
      "channel": 1,
      "note": 80,
      "start": 64.5649,
      "duration": 0.0162,
      "velocity": 98,
      "chip": "ym2612"
    },
    {
      "channel": 0,
      "note": 37,
      "start": 64.5748,
      "duration": 0.0161,
      "velocity": 115,
      "chip": "ym2612"
    },
    {
      "channel": 5,
      "note": 82,
      "start": 64.5761,
      "duration": 0.016,
      "velocity": 98,
      "chip": "ym2612"
    },
    {
      "channel": 4,
      "note": 76,
      "start": 64.5776,
      "duration": 0.0158,
      "velocity": 86,
      "chip": "ym2612"
    },
    {
      "channel": 3,
      "note": 76,
      "start": 64.5787,
      "duration": 0.0158,
      "velocity": 86,
      "chip": "ym2612"
    },
    {
      "channel": 2,
      "note": 52,
      "start": 64.5799,
      "duration": 0.0159,
      "velocity": 93,
      "chip": "ym2612"
    },
    {
      "channel": 1,
      "note": 80,
      "start": 64.5811,
      "duration": 0.0158,
      "velocity": 98,
      "chip": "ym2612"
    },
    {
      "channel": 0,
      "note": 38,
      "start": 64.5909,
      "duration": 0.0161,
      "velocity": 115,
      "chip": "ym2612"
    },
    {
      "channel": 4,
      "note": 76,
      "start": 64.5934,
      "duration": 0.0163,
      "velocity": 86,
      "chip": "ym2612"
    },
    {
      "channel": 3,
      "note": 76,
      "start": 64.5945,
      "duration": 0.0163,
      "velocity": 86,
      "chip": "ym2612"
    },
    {
      "channel": 2,
      "note": 52,
      "start": 64.5957,
      "duration": 0.0163,
      "velocity": 93,
      "chip": "ym2612"
    },
    {
      "channel": 1,
      "note": 80,
      "start": 64.5969,
      "duration": 0.0163,
      "velocity": 98,
      "chip": "ym2612"
    },
    {
      "channel": 0,
      "note": 38,
      "start": 64.607,
      "duration": 0.0179,
      "velocity": 124,
      "chip": "ym2612"
    },
    {
      "channel": 5,
      "note": 81,
      "start": 64.6085,
      "duration": 0.0177,
      "velocity": 98,
      "chip": "ym2612"
    },
    {
      "channel": 4,
      "note": 76,
      "start": 64.6096,
      "duration": 0.0177,
      "velocity": 86,
      "chip": "ym2612"
    },
    {
      "channel": 2,
      "note": 52,
      "start": 64.6121,
      "duration": 0.0182,
      "velocity": 93,
      "chip": "ym2612"
    },
    {
      "channel": 1,
      "note": 80,
      "start": 64.6133,
      "duration": 0.0182,
      "velocity": 98,
      "chip": "ym2612"
    },
    {
      "channel": 0,
      "note": 84,
      "start": 64.625,
      "duration": 0.0143,
      "velocity": 124,
      "chip": "ym2612"
    },
    {
      "channel": 5,
      "note": 81,
      "start": 64.6262,
      "duration": 0.0142,
      "velocity": 98,
      "chip": "ym2612"
    },
    {
      "channel": 4,
      "note": 76,
      "start": 64.6273,
      "duration": 0.0143,
      "velocity": 86,
      "chip": "ym2612"
    },
    {
      "channel": 3,
      "note": 80,
      "start": 64.6288,
      "duration": 0.014,
      "velocity": 86,
      "chip": "ym2612"
    },
    {
      "channel": 2,
      "note": 52,
      "start": 64.6302,
      "duration": 0.0138,
      "velocity": 93,
      "chip": "ym2612"
    },
    {
      "channel": 1,
      "note": 80,
      "start": 64.6315,
      "duration": 0.0138,
      "velocity": 98,
      "chip": "ym2612"
    },
    {
      "channel": 0,
      "note": 82,
      "start": 64.6393,
      "duration": 0.016,
      "velocity": 124,
      "chip": "ym2612"
    },
    {
      "channel": 4,
      "note": 76,
      "start": 64.6416,
      "duration": 0.0164,
      "velocity": 86,
      "chip": "ym2612"
    },
    {
      "channel": 3,
      "note": 80,
      "start": 64.6429,
      "duration": 0.0164,
      "velocity": 86,
      "chip": "ym2612"
    },
    {
      "channel": 2,
      "note": 52,
      "start": 64.6441,
      "duration": 0.0163,
      "velocity": 93,
      "chip": "ym2612"
    },
    {
      "channel": 1,
      "note": 80,
      "start": 64.6453,
      "duration": 0.0163,
      "velocity": 98,
      "chip": "ym2612"
    },
    {
      "channel": 0,
      "note": 80,
      "start": 64.6553,
      "duration": 0.0161,
      "velocity": 124,
      "chip": "ym2612"
    },
    {
      "channel": 5,
      "note": 80,
      "start": 64.6569,
      "duration": 0.0158,
      "velocity": 98,
      "chip": "ym2612"
    },
    {
      "channel": 3,
      "note": 80,
      "start": 64.6593,
      "duration": 0.016,
      "velocity": 86,
      "chip": "ym2612"
    },
    {
      "channel": 2,
      "note": 52,
      "start": 64.6604,
      "duration": 0.0161,
      "velocity": 93,
      "chip": "ym2612"
    },
    {
      "channel": 1,
      "note": 80,
      "start": 64.6615,
      "duration": 0.0161,
      "velocity": 98,
      "chip": "ym2612"
    },
    {
      "channel": 0,
      "note": 77,
      "start": 64.6714,
      "duration": 0.0161,
      "velocity": 124,
      "chip": "ym2612"
    },
    {
      "channel": 5,
      "note": 80,
      "start": 64.6727,
      "duration": 0.016,
      "velocity": 98,
      "chip": "ym2612"
    },
    {
      "channel": 4,
      "note": 80,
      "start": 64.6741,
      "duration": 0.0158,
      "velocity": 86,
      "chip": "ym2612"
    },
    {
      "channel": 3,
      "note": 80,
      "start": 64.6753,
      "duration": 0.0159,
      "velocity": 86,
      "chip": "ym2612"
    },
    {
      "channel": 2,
      "note": 52,
      "start": 64.6765,
      "duration": 0.0158,
      "velocity": 93,
      "chip": "ym2612"
    },
    {
      "channel": 1,
      "note": 80,
      "start": 64.6776,
      "duration": 0.0158,
      "velocity": 98,
      "chip": "ym2612"
    },
    {
      "channel": 0,
      "note": 75,
      "start": 64.6875,
      "duration": 0.0161,
      "velocity": 124,
      "chip": "ym2612"
    },
    {
      "channel": 5,
      "note": 80,
      "start": 64.6887,
      "duration": 0.0162,
      "velocity": 98,
      "chip": "ym2612"
    },
    {
      "channel": 4,
      "note": 80,
      "start": 64.6899,
      "duration": 0.0161,
      "velocity": 86,
      "chip": "ym2612"
    },
    {
      "channel": 3,
      "note": 80,
      "start": 64.6911,
      "duration": 0.0161,
      "velocity": 86,
      "chip": "ym2612"
    },
    {
      "channel": 2,
      "note": 52,
      "start": 64.6923,
      "duration": 0.0161,
      "velocity": 93,
      "chip": "ym2612"
    },
    {
      "channel": 1,
      "note": 80,
      "start": 64.6934,
      "duration": 0.0161,
      "velocity": 98,
      "chip": "ym2612"
    },
    {
      "channel": 0,
      "note": 72,
      "start": 64.7037,
      "duration": 0.0164,
      "velocity": 124,
      "chip": "ym2612"
    },
    {
      "channel": 5,
      "note": 80,
      "start": 64.7049,
      "duration": 0.0163,
      "velocity": 98,
      "chip": "ym2612"
    },
    {
      "channel": 4,
      "note": 80,
      "start": 64.706,
      "duration": 0.0163,
      "velocity": 86,
      "chip": "ym2612"
    },
    {
      "channel": 3,
      "note": 80,
      "start": 64.7072,
      "duration": 0.0163,
      "velocity": 86,
      "chip": "ym2612"
    },
    {
      "channel": 2,
      "note": 52,
      "start": 64.7084,
      "duration": 0.0164,
      "velocity": 93,
      "chip": "ym2612"
    },
    {
      "channel": 1,
      "note": 80,
      "start": 64.7095,
      "duration": 0.0164,
      "velocity": 98,
      "chip": "ym2612"
    },
    {
      "channel": 0,
      "note": 70,
      "start": 64.7201,
      "duration": 0.0163,
      "velocity": 124,
      "chip": "ym2612"
    },
    {
      "channel": 5,
      "note": 80,
      "start": 64.7212,
      "duration": 0.0163,
      "velocity": 98,
      "chip": "ym2612"
    },
    {
      "channel": 4,
      "note": 80,
      "start": 64.7224,
      "duration": 0.0163,
      "velocity": 86,
      "chip": "ym2612"
    },
    {
      "channel": 3,
      "note": 80,
      "start": 64.7236,
      "duration": 0.0163,
      "velocity": 86,
      "chip": "ym2612"
    },
    {
      "channel": 2,
      "note": 52,
      "start": 64.7248,
      "duration": 0.0163,
      "velocity": 93,
      "chip": "ym2612"
    },
    {
      "channel": 1,
      "note": 80,
      "start": 64.7259,
      "duration": 0.0163,
      "velocity": 98,
      "chip": "ym2612"
    },
    {
      "channel": 0,
      "note": 68,
      "start": 64.7363,
      "duration": 0.0162,
      "velocity": 124,
      "chip": "ym2612"
    },
    {
      "channel": 5,
      "note": 80,
      "start": 64.7375,
      "duration": 0.0161,
      "velocity": 98,
      "chip": "ym2612"
    },
    {
      "channel": 4,
      "note": 80,
      "start": 64.7387,
      "duration": 0.0162,
      "velocity": 86,
      "chip": "ym2612"
    },
    {
      "channel": 3,
      "note": 80,
      "start": 64.7399,
      "duration": 0.0161,
      "velocity": 86,
      "chip": "ym2612"
    },
    {
      "channel": 2,
      "note": 52,
      "start": 64.7411,
      "duration": 0.0162,
      "velocity": 93,
      "chip": "ym2612"
    },
    {
      "channel": 1,
      "note": 80,
      "start": 64.7422,
      "duration": 0.0162,
      "velocity": 98,
      "chip": "ym2612"
    },
    {
      "channel": 0,
      "note": 65,
      "start": 64.7525,
      "duration": 0.0161,
      "velocity": 124,
      "chip": "ym2612"
    },
    {
      "channel": 5,
      "note": 80,
      "start": 64.7537,
      "duration": 0.0161,
      "velocity": 98,
      "chip": "ym2612"
    },
    {
      "channel": 4,
      "note": 80,
      "start": 64.7549,
      "duration": 0.0161,
      "velocity": 86,
      "chip": "ym2612"
    },
    {
      "channel": 3,
      "note": 80,
      "start": 64.756,
      "duration": 0.0162,
      "velocity": 86,
      "chip": "ym2612"
    },
    {
      "channel": 2,
      "note": 52,
      "start": 64.7572,
      "duration": 0.0162,
      "velocity": 93,
      "chip": "ym2612"
    },
    {
      "channel": 1,
      "note": 80,
      "start": 64.7584,
      "duration": 0.0162,
      "velocity": 98,
      "chip": "ym2612"
    },
    {
      "channel": 0,
      "note": 63,
      "start": 64.7686,
      "duration": 0.0147,
      "velocity": 1,
      "chip": "ym2612"
    },
    {
      "channel": 5,
      "note": 80,
      "start": 64.7698,
      "duration": 0.0153,
      "velocity": 98,
      "chip": "ym2612"
    },
    {
      "channel": 4,
      "note": 80,
      "start": 64.771,
      "duration": 0.0153,
      "velocity": 86,
      "chip": "ym2612"
    },
    {
      "channel": 3,
      "note": 80,
      "start": 64.7722,
      "duration": 0.0153,
      "velocity": 86,
      "chip": "ym2612"
    },
    {
      "channel": 2,
      "note": 52,
      "start": 64.7734,
      "duration": 0.0152,
      "velocity": 93,
      "chip": "ym2612"
    },
    {
      "channel": 1,
      "note": 80,
      "start": 64.7746,
      "duration": 0.0153,
      "velocity": 98,
      "chip": "ym2612"
    },
    {
      "channel": 5,
      "note": 80,
      "start": 64.785,
      "duration": 0.0147,
      "velocity": 98,
      "chip": "ym2612"
    },
    {
      "channel": 4,
      "note": 80,
      "start": 64.7862,
      "duration": 0.0152,
      "velocity": 86,
      "chip": "ym2612"
    },
    {
      "channel": 3,
      "note": 80,
      "start": 64.7874,
      "duration": 0.0153,
      "velocity": 86,
      "chip": "ym2612"
    },
    {
      "channel": 2,
      "note": 52,
      "start": 64.7886,
      "duration": 0.0153,
      "velocity": 93,
      "chip": "ym2612"
    },
    {
      "channel": 1,
      "note": 80,
      "start": 64.7899,
      "duration": 0.0153,
      "velocity": 98,
      "chip": "ym2612"
    },
    {
      "channel": 5,
      "note": 80,
      "start": 64.7997,
      "duration": 0.0161,
      "velocity": 98,
      "chip": "ym2612"
    },
    {
      "channel": 4,
      "note": 80,
      "start": 64.8014,
      "duration": 0.0156,
      "velocity": 86,
      "chip": "ym2612"
    },
    {
      "channel": 2,
      "note": 52,
      "start": 64.8039,
      "duration": 0.0163,
      "velocity": 93,
      "chip": "ym2612"
    },
    {
      "channel": 1,
      "note": 80,
      "start": 64.8051,
      "duration": 0.0163,
      "velocity": 98,
      "chip": "ym2612"
    },
    {
      "channel": 5,
      "note": 80,
      "start": 64.8158,
      "duration": 0.0161,
      "velocity": 98,
      "chip": "ym2612"
    },
    {
      "channel": 4,
      "note": 80,
      "start": 64.817,
      "duration": 0.0161,
      "velocity": 86,
      "chip": "ym2612"
    },
    {
      "channel": 3,
      "note": 86,
      "start": 64.8191,
      "duration": 0.0158,
      "velocity": 86,
      "chip": "ym2612"
    },
    {
      "channel": 2,
      "note": 52,
      "start": 64.8203,
      "duration": 0.0158,
      "velocity": 93,
      "chip": "ym2612"
    },
    {
      "channel": 1,
      "note": 80,
      "start": 64.8214,
      "duration": 0.0159,
      "velocity": 98,
      "chip": "ym2612"
    },
    {
      "channel": 5,
      "note": 80,
      "start": 64.8319,
      "duration": 0.0161,
      "velocity": 98,
      "chip": "ym2612"
    },
    {
      "channel": 4,
      "note": 80,
      "start": 64.8331,
      "duration": 0.0161,
      "velocity": 86,
      "chip": "ym2612"
    },
    {
      "channel": 3,
      "note": 86,
      "start": 64.8349,
      "duration": 0.0155,
      "velocity": 86,
      "chip": "ym2612"
    },
    {
      "channel": 2,
      "note": 52,
      "start": 64.8361,
      "duration": 0.016,
      "velocity": 93,
      "chip": "ym2612"
    },
    {
      "channel": 1,
      "note": 80,
      "start": 64.8373,
      "duration": 0.0161,
      "velocity": 98,
      "chip": "ym2612"
    },
    {
      "channel": 5,
      "note": 80,
      "start": 64.848,
      "duration": 0.0161,
      "velocity": 98,
      "chip": "ym2612"
    },
    {
      "channel": 3,
      "note": 86,
      "start": 64.8504,
      "duration": 0.0163,
      "velocity": 86,
      "chip": "ym2612"
    },
    {
      "channel": 2,
      "note": 52,
      "start": 64.8521,
      "duration": 0.0164,
      "velocity": 93,
      "chip": "ym2612"
    },
    {
      "channel": 1,
      "note": 80,
      "start": 64.8533,
      "duration": 0.0163,
      "velocity": 98,
      "chip": "ym2612"
    },
    {
      "channel": 5,
      "note": 80,
      "start": 64.8641,
      "duration": 0.0161,
      "velocity": 98,
      "chip": "ym2612"
    },
    {
      "channel": 4,
      "note": 86,
      "start": 64.8656,
      "duration": 0.0158,
      "velocity": 86,
      "chip": "ym2612"
    },
    {
      "channel": 3,
      "note": 86,
      "start": 64.8668,
      "duration": 0.0159,
      "velocity": 86,
      "chip": "ym2612"
    },
    {
      "channel": 2,
      "note": 52,
      "start": 64.8685,
      "duration": 0.0155,
      "velocity": 93,
      "chip": "ym2612"
    },
    {
      "channel": 1,
      "note": 80,
      "start": 64.8697,
      "duration": 0.0159,
      "velocity": 98,
      "chip": "ym2612"
    },
    {
      "channel": 5,
      "note": 80,
      "start": 64.8802,
      "duration": 0.0161,
      "velocity": 98,
      "chip": "ym2612"
    },
    {
      "channel": 4,
      "note": 86,
      "start": 64.8815,
      "duration": 0.016,
      "velocity": 86,
      "chip": "ym2612"
    },
    {
      "channel": 3,
      "note": 86,
      "start": 64.8826,
      "duration": 0.016,
      "velocity": 86,
      "chip": "ym2612"
    },
    {
      "channel": 2,
      "note": 52,
      "start": 64.8841,
      "duration": 0.0159,
      "velocity": 93,
      "chip": "ym2612"
    },
    {
      "channel": 1,
      "note": 80,
      "start": 64.8856,
      "duration": 0.016,
      "velocity": 98,
      "chip": "ym2612"
    },
    {
      "channel": 5,
      "note": 80,
      "start": 64.8963,
      "duration": 0.0196,
      "velocity": 98,
      "chip": "ym2612"
    },
    {
      "channel": 4,
      "note": 86,
      "start": 64.8975,
      "duration": 0.0199,
      "velocity": 86,
      "chip": "ym2612"
    },
    {
      "channel": 3,
      "note": 86,
      "start": 64.8986,
      "duration": 0.0202,
      "velocity": 86,
      "chip": "ym2612"
    },
    {
      "channel": 2,
      "note": 52,
      "start": 64.8999,
      "duration": 0.0204,
      "velocity": 93,
      "chip": "ym2612"
    },
    {
      "channel": 0,
      "note": 36,
      "start": 64.9148,
      "duration": 0.0143,
      "velocity": 115,
      "chip": "ym2612"
    },
    {
      "channel": 5,
      "note": 80,
      "start": 64.9159,
      "duration": 0.0143,
      "velocity": 98,
      "chip": "ym2612"
    },
    {
      "channel": 4,
      "note": 86,
      "start": 64.9173,
      "duration": 0.0141,
      "velocity": 86,
      "chip": "ym2612"
    },
    {
      "channel": 3,
      "note": 86,
      "start": 64.9189,
      "duration": 0.0137,
      "velocity": 86,
      "chip": "ym2612"
    },
    {
      "channel": 2,
      "note": 57,
      "start": 64.9203,
      "duration": 0.0137,
      "velocity": 93,
      "chip": "ym2612"
    },
    {
      "channel": 1,
      "note": 78,
      "start": 64.9218,
      "duration": 0.0139,
      "velocity": 98,
      "chip": "ym2612"
    },
    {
      "channel": 0,
      "note": 36,
      "start": 64.9291,
      "duration": 0.016,
      "velocity": 115,
      "chip": "ym2612"
    },
    {
      "channel": 5,
      "note": 80,
      "start": 64.9302,
      "duration": 0.016,
      "velocity": 98,
      "chip": "ym2612"
    },
    {
      "channel": 4,
      "note": 86,
      "start": 64.9315,
      "duration": 0.016,
      "velocity": 86,
      "chip": "ym2612"
    },
    {
      "channel": 3,
      "note": 86,
      "start": 64.9326,
      "duration": 0.016,
      "velocity": 86,
      "chip": "ym2612"
    },
    {
      "channel": 2,
      "note": 57,
      "start": 64.9341,
      "duration": 0.0158,
      "velocity": 93,
      "chip": "ym2612"
    },
    {
      "channel": 1,
      "note": 78,
      "start": 64.9357,
      "duration": 0.0158,
      "velocity": 98,
      "chip": "ym2612"
    },
    {
      "channel": 0,
      "note": 37,
      "start": 64.9451,
      "duration": 0.0161,
      "velocity": 115,
      "chip": "ym2612"
    },
    {
      "channel": 5,
      "note": 80,
      "start": 64.9463,
      "duration": 0.0162,
      "velocity": 98,
      "chip": "ym2612"
    },
    {
      "channel": 4,
      "note": 86,
      "start": 64.9475,
      "duration": 0.0161,
      "velocity": 86,
      "chip": "ym2612"
    },
    {
      "channel": 3,
      "note": 86,
      "start": 64.9486,
      "duration": 0.0161,
      "velocity": 86,
      "chip": "ym2612"
    },
    {
      "channel": 2,
      "note": 57,
      "start": 64.9498,
      "duration": 0.0161,
      "velocity": 93,
      "chip": "ym2612"
    },
    {
      "channel": 1,
      "note": 78,
      "start": 64.9515,
      "duration": 0.0159,
      "velocity": 98,
      "chip": "ym2612"
    },
    {
      "channel": 0,
      "note": 37,
      "start": 64.9612,
      "duration": 0.0161,
      "velocity": 115,
      "chip": "ym2612"
    },
    {
      "channel": 5,
      "note": 80,
      "start": 64.9624,
      "duration": 0.0161,
      "velocity": 98,
      "chip": "ym2612"
    },
    {
      "channel": 4,
      "note": 86,
      "start": 64.9636,
      "duration": 0.0161,
      "velocity": 86,
      "chip": "ym2612"
    },
    {
      "channel": 3,
      "note": 86,
      "start": 64.9648,
      "duration": 0.0161,
      "velocity": 86,
      "chip": "ym2612"
    },
    {
      "channel": 2,
      "note": 57,
      "start": 64.9659,
      "duration": 0.0161,
      "velocity": 93,
      "chip": "ym2612"
    },
    {
      "channel": 1,
      "note": 78,
      "start": 64.9673,
      "duration": 0.0159,
      "velocity": 98,
      "chip": "ym2612"
    },
    {
      "channel": 0,
      "note": 38,
      "start": 64.9773,
      "duration": 0.0161,
      "velocity": 115,
      "chip": "ym2612"
    },
    {
      "channel": 5,
      "note": 80,
      "start": 64.9785,
      "duration": 0.0161,
      "velocity": 98,
      "chip": "ym2612"
    },
    {
      "channel": 4,
      "note": 86,
      "start": 64.9797,
      "duration": 0.0161,
      "velocity": 86,
      "chip": "ym2612"
    },
    {
      "channel": 3,
      "note": 86,
      "start": 64.9809,
      "duration": 0.0161,
      "velocity": 86,
      "chip": "ym2612"
    },
    {
      "channel": 2,
      "note": 57,
      "start": 64.982,
      "duration": 0.0161,
      "velocity": 93,
      "chip": "ym2612"
    },
    {
      "channel": 1,
      "note": 78,
      "start": 64.9832,
      "duration": 0.0161,
      "velocity": 98,
      "chip": "ym2612"
    },
    {
      "channel": 0,
      "note": 38,
      "start": 64.9934,
      "duration": 0.0161,
      "velocity": 115,
      "chip": "ym2612"
    },
    {
      "channel": 5,
      "note": 80,
      "start": 64.9946,
      "duration": 0.0161,
      "velocity": 98,
      "chip": "ym2612"
    },
    {
      "channel": 4,
      "note": 86,
      "start": 64.9958,
      "duration": 0.0161,
      "velocity": 86,
      "chip": "ym2612"
    },
    {
      "channel": 3,
      "note": 86,
      "start": 64.997,
      "duration": 0.0161,
      "velocity": 86,
      "chip": "ym2612"
    },
    {
      "channel": 2,
      "note": 57,
      "start": 64.9981,
      "duration": 0.0161,
      "velocity": 93,
      "chip": "ym2612"
    },
    {
      "channel": 1,
      "note": 78,
      "start": 64.9993,
      "duration": 0.0161,
      "velocity": 98,
      "chip": "ym2612"
    },
    {
      "channel": 0,
      "note": 39,
      "start": 65.0095,
      "duration": 0.0161,
      "velocity": 115,
      "chip": "ym2612"
    },
    {
      "channel": 5,
      "note": 80,
      "start": 65.0107,
      "duration": 0.0161,
      "velocity": 98,
      "chip": "ym2612"
    },
    {
      "channel": 4,
      "note": 86,
      "start": 65.0119,
      "duration": 0.0161,
      "velocity": 86,
      "chip": "ym2612"
    },
    {
      "channel": 3,
      "note": 86,
      "start": 65.0131,
      "duration": 0.0161,
      "velocity": 86,
      "chip": "ym2612"
    },
    {
      "channel": 2,
      "note": 57,
      "start": 65.0142,
      "duration": 0.0161,
      "velocity": 93,
      "chip": "ym2612"
    },
    {
      "channel": 1,
      "note": 78,
      "start": 65.0154,
      "duration": 0.0161,
      "velocity": 98,
      "chip": "ym2612"
    },
    {
      "channel": 0,
      "note": 39,
      "start": 65.0256,
      "duration": 0.0162,
      "velocity": 115,
      "chip": "ym2612"
    },
    {
      "channel": 5,
      "note": 80,
      "start": 65.0268,
      "duration": 0.0161,
      "velocity": 98,
      "chip": "ym2612"
    },
    {
      "channel": 4,
      "note": 86,
      "start": 65.028,
      "duration": 0.0161,
      "velocity": 86,
      "chip": "ym2612"
    },
    {
      "channel": 3,
      "note": 86,
      "start": 65.0292,
      "duration": 0.0161,
      "velocity": 86,
      "chip": "ym2612"
    },
    {
      "channel": 2,
      "note": 57,
      "start": 65.0303,
      "duration": 0.0161,
      "velocity": 93,
      "chip": "ym2612"
    },
    {
      "channel": 1,
      "note": 78,
      "start": 65.0315,
      "duration": 0.0161,
      "velocity": 98,
      "chip": "ym2612"
    },
    {
      "channel": 0,
      "note": 40,
      "start": 65.0418,
      "duration": 0.0161,
      "velocity": 115,
      "chip": "ym2612"
    },
    {
      "channel": 5,
      "note": 80,
      "start": 65.0429,
      "duration": 0.0161,
      "velocity": 98,
      "chip": "ym2612"
    },
    {
      "channel": 4,
      "note": 86,
      "start": 65.0441,
      "duration": 0.0161,
      "velocity": 86,
      "chip": "ym2612"
    },
    {
      "channel": 3,
      "note": 86,
      "start": 65.0453,
      "duration": 0.0161,
      "velocity": 86,
      "chip": "ym2612"
    },
    {
      "channel": 2,
      "note": 57,
      "start": 65.0464,
      "duration": 0.0162,
      "velocity": 93,
      "chip": "ym2612"
    },
    {
      "channel": 1,
      "note": 78,
      "start": 65.0476,
      "duration": 0.0161,
      "velocity": 98,
      "chip": "ym2612"
    },
    {
      "channel": 0,
      "note": 40,
      "start": 65.0579,
      "duration": 0.0161,
      "velocity": 115,
      "chip": "ym2612"
    },
    {
      "channel": 5,
      "note": 80,
      "start": 65.059,
      "duration": 0.0161,
      "velocity": 98,
      "chip": "ym2612"
    },
    {
      "channel": 4,
      "note": 86,
      "start": 65.0602,
      "duration": 0.0161,
      "velocity": 86,
      "chip": "ym2612"
    },
    {
      "channel": 3,
      "note": 86,
      "start": 65.0614,
      "duration": 0.0161,
      "velocity": 86,
      "chip": "ym2612"
    },
    {
      "channel": 2,
      "note": 57,
      "start": 65.0626,
      "duration": 0.016,
      "velocity": 93,
      "chip": "ym2612"
    },
    {
      "channel": 1,
      "note": 78,
      "start": 65.0638,
      "duration": 0.0161,
      "velocity": 98,
      "chip": "ym2612"
    },
    {
      "channel": 0,
      "note": 40,
      "start": 65.0739,
      "duration": 0.0161,
      "velocity": 115,
      "chip": "ym2612"
    },
    {
      "channel": 5,
      "note": 80,
      "start": 65.0751,
      "duration": 0.0161,
      "velocity": 98,
      "chip": "ym2612"
    },
    {
      "channel": 4,
      "note": 86,
      "start": 65.0763,
      "duration": 0.0161,
      "velocity": 86,
      "chip": "ym2612"
    },
    {
      "channel": 3,
      "note": 86,
      "start": 65.0775,
      "duration": 0.0161,
      "velocity": 86,
      "chip": "ym2612"
    },
    {
      "channel": 2,
      "note": 57,
      "start": 65.0787,
      "duration": 0.0162,
      "velocity": 93,
      "chip": "ym2612"
    },
    {
      "channel": 1,
      "note": 78,
      "start": 65.0799,
      "duration": 0.0162,
      "velocity": 98,
      "chip": "ym2612"
    },
    {
      "channel": 0,
      "note": 41,
      "start": 65.09,
      "duration": 0.0161,
      "velocity": 115,
      "chip": "ym2612"
    },
    {
      "channel": 5,
      "note": 80,
      "start": 65.0912,
      "duration": 0.016,
      "velocity": 98,
      "chip": "ym2612"
    },
    {
      "channel": 4,
      "note": 86,
      "start": 65.0924,
      "duration": 0.0161,
      "velocity": 86,
      "chip": "ym2612"
    },
    {
      "channel": 2,
      "note": 57,
      "start": 65.0949,
      "duration": 0.0163,
      "velocity": 93,
      "chip": "ym2612"
    },
    {
      "channel": 1,
      "note": 78,
      "start": 65.096,
      "duration": 0.0163,
      "velocity": 98,
      "chip": "ym2612"
    },
    {
      "channel": 0,
      "note": 41,
      "start": 65.1061,
      "duration": 0.0161,
      "velocity": 115,
      "chip": "ym2612"
    },
    {
      "channel": 5,
      "note": 80,
      "start": 65.1073,
      "duration": 0.0162,
      "velocity": 98,
      "chip": "ym2612"
    },
    {
      "channel": 4,
      "note": 86,
      "start": 65.1085,
      "duration": 0.0161,
      "velocity": 86,
      "chip": "ym2612"
    },
    {
      "channel": 3,
      "note": 76,
      "start": 65.11,
      "duration": 0.0158,
      "velocity": 86,
      "chip": "ym2612"
    },
    {
      "channel": 2,
      "note": 57,
      "start": 65.1112,
      "duration": 0.0159,
      "velocity": 93,
      "chip": "ym2612"
    },
    {
      "channel": 1,
      "note": 78,
      "start": 65.1123,
      "duration": 0.0158,
      "velocity": 98,
      "chip": "ym2612"
    },
    {
      "channel": 0,
      "note": 42,
      "start": 65.1222,
      "duration": 0.0161,
      "velocity": 115,
      "chip": "ym2612"
    },
    {
      "channel": 5,
      "note": 80,
      "start": 65.1234,
      "duration": 0.0161,
      "velocity": 98,
      "chip": "ym2612"
    },
    {
      "channel": 4,
      "note": 86,
      "start": 65.1246,
      "duration": 0.0161,
      "velocity": 86,
      "chip": "ym2612"
    },
    {
      "channel": 3,
      "note": 76,
      "start": 65.1259,
      "duration": 0.016,
      "velocity": 86,
      "chip": "ym2612"
    },
    {
      "channel": 2,
      "note": 57,
      "start": 65.127,
      "duration": 0.016,
      "velocity": 93,
      "chip": "ym2612"
    },
    {
      "channel": 1,
      "note": 78,
      "start": 65.1281,
      "duration": 0.0161,
      "velocity": 98,
      "chip": "ym2612"
    },
    {
      "channel": 0,
      "note": 42,
      "start": 65.1383,
      "duration": 0.0161,
      "velocity": 115,
      "chip": "ym2612"
    },
    {
      "channel": 5,
      "note": 80,
      "start": 65.1395,
      "duration": 0.0161,
      "velocity": 98,
      "chip": "ym2612"
    },
    {
      "channel": 3,
      "note": 76,
      "start": 65.1419,
      "duration": 0.0164,
      "velocity": 86,
      "chip": "ym2612"
    },
    {
      "channel": 2,
      "note": 57,
      "start": 65.143,
      "duration": 0.0164,
      "velocity": 93,
      "chip": "ym2612"
    },
    {
      "channel": 1,
      "note": 78,
      "start": 65.1442,
      "duration": 0.0163,
      "velocity": 98,
      "chip": "ym2612"
    },
    {
      "channel": 0,
      "note": 43,
      "start": 65.1544,
      "duration": 0.0162,
      "velocity": 115,
      "chip": "ym2612"
    },
    {
      "channel": 5,
      "note": 80,
      "start": 65.1556,
      "duration": 0.0161,
      "velocity": 98,
      "chip": "ym2612"
    },
    {
      "channel": 4,
      "note": 76,
      "start": 65.1571,
      "duration": 0.0158,
      "velocity": 86,
      "chip": "ym2612"
    },
    {
      "channel": 3,
      "note": 76,
      "start": 65.1583,
      "duration": 0.0159,
      "velocity": 86,
      "chip": "ym2612"
    },
    {
      "channel": 2,
      "note": 57,
      "start": 65.1595,
      "duration": 0.0159,
      "velocity": 93,
      "chip": "ym2612"
    },
    {
      "channel": 1,
      "note": 78,
      "start": 65.1606,
      "duration": 0.016,
      "velocity": 98,
      "chip": "ym2612"
    },
    {
      "channel": 0,
      "note": 43,
      "start": 65.1706,
      "duration": 0.0161,
      "velocity": 115,
      "chip": "ym2612"
    },
    {
      "channel": 5,
      "note": 80,
      "start": 65.1717,
      "duration": 0.0162,
      "velocity": 98,
      "chip": "ym2612"
    },
    {
      "channel": 4,
      "note": 76,
      "start": 65.1729,
      "duration": 0.0161,
      "velocity": 86,
      "chip": "ym2612"
    },
    {
      "channel": 3,
      "note": 76,
      "start": 65.1741,
      "duration": 0.0161,
      "velocity": 86,
      "chip": "ym2612"
    },
    {
      "channel": 2,
      "note": 57,
      "start": 65.1754,
      "duration": 0.0162,
      "velocity": 93,
      "chip": "ym2612"
    },
    {
      "channel": 1,
      "note": 78,
      "start": 65.1766,
      "duration": 0.0161,
      "velocity": 98,
      "chip": "ym2612"
    },
    {
      "channel": 0,
      "note": 44,
      "start": 65.1867,
      "duration": 0.0182,
      "velocity": 124,
      "chip": "ym2612"
    },
    {
      "channel": 5,
      "note": 80,
      "start": 65.1879,
      "duration": 0.0183,
      "velocity": 98,
      "chip": "ym2612"
    },
    {
      "channel": 4,
      "note": 76,
      "start": 65.189,
      "duration": 0.0183,
      "velocity": 86,
      "chip": "ym2612"
    },
    {
      "channel": 2,
      "note": 57,
      "start": 65.1915,
      "duration": 0.0187,
      "velocity": 93,
      "chip": "ym2612"
    },
    {
      "channel": 1,
      "note": 78,
      "start": 65.1927,
      "duration": 0.0188,
      "velocity": 98,
      "chip": "ym2612"
    },
    {
      "channel": 0,
      "note": 84,
      "start": 65.205,
      "duration": 0.0145,
      "velocity": 124,
      "chip": "ym2612"
    },
    {
      "channel": 5,
      "note": 80,
      "start": 65.2061,
      "duration": 0.0146,
      "velocity": 98,
      "chip": "ym2612"
    },
    {
      "channel": 4,
      "note": 76,
      "start": 65.2073,
      "duration": 0.0146,
      "velocity": 86,
      "chip": "ym2612"
    },
    {
      "channel": 3,
      "note": 81,
      "start": 65.2088,
      "duration": 0.0143,
      "velocity": 86,
      "chip": "ym2612"
    },
    {
      "channel": 2,
      "note": 57,
      "start": 65.2102,
      "duration": 0.0141,
      "velocity": 93,
      "chip": "ym2612"
    },
    {
      "channel": 1,
      "note": 78,
      "start": 65.2114,
      "duration": 0.0141,
      "velocity": 98,
      "chip": "ym2612"
    },
    {
      "channel": 0,
      "note": 82,
      "start": 65.2195,
      "duration": 0.016,
      "velocity": 124,
      "chip": "ym2612"
    },
    {
      "channel": 4,
      "note": 76,
      "start": 65.2219,
      "duration": 0.0163,
      "velocity": 86,
      "chip": "ym2612"
    },
    {
      "channel": 3,
      "note": 81,
      "start": 65.2231,
      "duration": 0.0162,
      "velocity": 86,
      "chip": "ym2612"
    },
    {
      "channel": 2,
      "note": 57,
      "start": 65.2243,
      "duration": 0.0162,
      "velocity": 93,
      "chip": "ym2612"
    },
    {
      "channel": 1,
      "note": 78,
      "start": 65.2255,
      "duration": 0.0162,
      "velocity": 98,
      "chip": "ym2612"
    },
    {
      "channel": 0,
      "note": 80,
      "start": 65.2355,
      "duration": 0.0161,
      "velocity": 124,
      "chip": "ym2612"
    },
    {
      "channel": 5,
      "note": 78,
      "start": 65.237,
      "duration": 0.0159,
      "velocity": 98,
      "chip": "ym2612"
    },
    {
      "channel": 3,
      "note": 81,
      "start": 65.2393,
      "duration": 0.0162,
      "velocity": 86,
      "chip": "ym2612"
    },
    {
      "channel": 2,
      "note": 57,
      "start": 65.2405,
      "duration": 0.0162,
      "velocity": 93,
      "chip": "ym2612"
    },
    {
      "channel": 1,
      "note": 78,
      "start": 65.2417,
      "duration": 0.0162,
      "velocity": 98,
      "chip": "ym2612"
    },
    {
      "channel": 0,
      "note": 77,
      "start": 65.2516,
      "duration": 0.0158,
      "velocity": 124,
      "chip": "ym2612"
    },
    {
      "channel": 5,
      "note": 78,
      "start": 65.2529,
      "duration": 0.016,
      "velocity": 98,
      "chip": "ym2612"
    },
    {
      "channel": 4,
      "note": 81,
      "start": 65.2544,
      "duration": 0.0158,
      "velocity": 86,
      "chip": "ym2612"
    },
    {
      "channel": 3,
      "note": 81,
      "start": 65.2555,
      "duration": 0.0158,
      "velocity": 86,
      "chip": "ym2612"
    },
    {
      "channel": 2,
      "note": 57,
      "start": 65.2567,
      "duration": 0.0158,
      "velocity": 93,
      "chip": "ym2612"
    },
    {
      "channel": 1,
      "note": 78,
      "start": 65.2579,
      "duration": 0.0158,
      "velocity": 98,
      "chip": "ym2612"
    },
    {
      "channel": 0,
      "note": 75,
      "start": 65.2674,
      "duration": 0.0159,
      "velocity": 124,
      "chip": "ym2612"
    },
    {
      "channel": 5,
      "note": 78,
      "start": 65.2689,
      "duration": 0.016,
      "velocity": 98,
      "chip": "ym2612"
    },
    {
      "channel": 4,
      "note": 81,
      "start": 65.2701,
      "duration": 0.016,
      "velocity": 86,
      "chip": "ym2612"
    },
    {
      "channel": 3,
      "note": 81,
      "start": 65.2713,
      "duration": 0.016,
      "velocity": 86,
      "chip": "ym2612"
    },
    {
      "channel": 2,
      "note": 57,
      "start": 65.2725,
      "duration": 0.016,
      "velocity": 93,
      "chip": "ym2612"
    },
    {
      "channel": 1,
      "note": 78,
      "start": 65.2736,
      "duration": 0.016,
      "velocity": 98,
      "chip": "ym2612"
    },
    {
      "channel": 0,
      "note": 72,
      "start": 65.2832,
      "duration": 0.0161,
      "velocity": 124,
      "chip": "ym2612"
    },
    {
      "channel": 5,
      "note": 78,
      "start": 65.285,
      "duration": 0.0158,
      "velocity": 98,
      "chip": "ym2612"
    },
    {
      "channel": 4,
      "note": 81,
      "start": 65.2862,
      "duration": 0.0162,
      "velocity": 86,
      "chip": "ym2612"
    },
    {
      "channel": 3,
      "note": 81,
      "start": 65.2874,
      "duration": 0.0161,
      "velocity": 86,
      "chip": "ym2612"
    },
    {
      "channel": 2,
      "note": 57,
      "start": 65.2885,
      "duration": 0.0161,
      "velocity": 93,
      "chip": "ym2612"
    },
    {
      "channel": 1,
      "note": 78,
      "start": 65.2897,
      "duration": 0.0162,
      "velocity": 98,
      "chip": "ym2612"
    },
    {
      "channel": 0,
      "note": 70,
      "start": 65.2993,
      "duration": 0.0161,
      "velocity": 124,
      "chip": "ym2612"
    },
    {
      "channel": 5,
      "note": 78,
      "start": 65.3007,
      "duration": 0.0159,
      "velocity": 98,
      "chip": "ym2612"
    },
    {
      "channel": 4,
      "note": 81,
      "start": 65.3023,
      "duration": 0.016,
      "velocity": 86,
      "chip": "ym2612"
    },
    {
      "channel": 3,
      "note": 81,
      "start": 65.3035,
      "duration": 0.0161,
      "velocity": 86,
      "chip": "ym2612"
    },
    {
      "channel": 2,
      "note": 57,
      "start": 65.3047,
      "duration": 0.016,
      "velocity": 93,
      "chip": "ym2612"
    },
    {
      "channel": 1,
      "note": 78,
      "start": 65.3058,
      "duration": 0.0161,
      "velocity": 98,
      "chip": "ym2612"
    },
    {
      "channel": 0,
      "note": 68,
      "start": 65.3155,
      "duration": 0.0161,
      "velocity": 124,
      "chip": "ym2612"
    },
    {
      "channel": 5,
      "note": 78,
      "start": 65.3166,
      "duration": 0.0161,
      "velocity": 98,
      "chip": "ym2612"
    },
    {
      "channel": 4,
      "note": 81,
      "start": 65.3183,
      "duration": 0.0158,
      "velocity": 86,
      "chip": "ym2612"
    },
    {
      "channel": 3,
      "note": 81,
      "start": 65.3196,
      "duration": 0.0161,
      "velocity": 86,
      "chip": "ym2612"
    },
    {
      "channel": 2,
      "note": 57,
      "start": 65.3207,
      "duration": 0.0161,
      "velocity": 93,
      "chip": "ym2612"
    },
    {
      "channel": 1,
      "note": 78,
      "start": 65.3219,
      "duration": 0.0161,
      "velocity": 98,
      "chip": "ym2612"
    },
    {
      "channel": 0,
      "note": 65,
      "start": 65.3316,
      "duration": 0.0161,
      "velocity": 124,
      "chip": "ym2612"
    },
    {
      "channel": 5,
      "note": 78,
      "start": 65.3327,
      "duration": 0.0161,
      "velocity": 98,
      "chip": "ym2612"
    },
    {
      "channel": 4,
      "note": 81,
      "start": 65.3341,
      "duration": 0.016,
      "velocity": 86,
      "chip": "ym2612"
    },
    {
      "channel": 3,
      "note": 81,
      "start": 65.3357,
      "duration": 0.0161,
      "velocity": 86,
      "chip": "ym2612"
    },
    {
      "channel": 2,
      "note": 57,
      "start": 65.3368,
      "duration": 0.0162,
      "velocity": 93,
      "chip": "ym2612"
    },
    {
      "channel": 1,
      "note": 78,
      "start": 65.338,
      "duration": 0.0162,
      "velocity": 98,
      "chip": "ym2612"
    },
    {
      "channel": 0,
      "note": 63,
      "start": 65.3477,
      "duration": 0.0153,
      "velocity": 1,
      "chip": "ym2612"
    },
    {
      "channel": 5,
      "note": 78,
      "start": 65.3488,
      "duration": 0.0153,
      "velocity": 98,
      "chip": "ym2612"
    },
    {
      "channel": 4,
      "note": 81,
      "start": 65.35,
      "duration": 0.0153,
      "velocity": 86,
      "chip": "ym2612"
    },
    {
      "channel": 3,
      "note": 81,
      "start": 65.3517,
      "duration": 0.0147,
      "velocity": 86,
      "chip": "ym2612"
    },
    {
      "channel": 2,
      "note": 57,
      "start": 65.353,
      "duration": 0.0152,
      "velocity": 93,
      "chip": "ym2612"
    },
    {
      "channel": 1,
      "note": 78,
      "start": 65.3542,
      "duration": 0.0153,
      "velocity": 98,
      "chip": "ym2612"
    },
    {
      "channel": 5,
      "note": 78,
      "start": 65.3641,
      "duration": 0.0153,
      "velocity": 98,
      "chip": "ym2612"
    },
    {
      "channel": 4,
      "note": 81,
      "start": 65.3653,
      "duration": 0.0153,
      "velocity": 86,
      "chip": "ym2612"
    },
    {
      "channel": 3,
      "note": 81,
      "start": 65.3664,
      "duration": 0.0153,
      "velocity": 86,
      "chip": "ym2612"
    },
    {
      "channel": 2,
      "note": 57,
      "start": 65.3682,
      "duration": 0.0148,
      "velocity": 93,
      "chip": "ym2612"
    },
    {
      "channel": 1,
      "note": 78,
      "start": 65.3694,
      "duration": 0.0152,
      "velocity": 98,
      "chip": "ym2612"
    },
    {
      "channel": 5,
      "note": 78,
      "start": 65.3794,
      "duration": 0.0161,
      "velocity": 98,
      "chip": "ym2612"
    },
    {
      "channel": 4,
      "note": 81,
      "start": 65.3806,
      "duration": 0.0161,
      "velocity": 86,
      "chip": "ym2612"
    },
    {
      "channel": 2,
      "note": 57,
      "start": 65.383,
      "duration": 0.0163,
      "velocity": 93,
      "chip": "ym2612"
    },
    {
      "channel": 1,
      "note": 78,
      "start": 65.3846,
      "duration": 0.016,
      "velocity": 98,
      "chip": "ym2612"
    },
    {
      "channel": 5,
      "note": 78,
      "start": 65.3955,
      "duration": 0.0161,
      "velocity": 98,
      "chip": "ym2612"
    },
    {
      "channel": 4,
      "note": 81,
      "start": 65.3967,
      "duration": 0.0161,
      "velocity": 86,
      "chip": "ym2612"
    },
    {
      "channel": 3,
      "note": 85,
      "start": 65.3982,
      "duration": 0.0158,
      "velocity": 86,
      "chip": "ym2612"
    },
    {
      "channel": 2,
      "note": 57,
      "start": 65.3993,
      "duration": 0.0158,
      "velocity": 93,
      "chip": "ym2612"
    },
    {
      "channel": 1,
      "note": 78,
      "start": 65.4007,
      "duration": 0.0156,
      "velocity": 98,
      "chip": "ym2612"
    },
    {
      "channel": 5,
      "note": 78,
      "start": 65.4115,
      "duration": 0.0161,
      "velocity": 98,
      "chip": "ym2612"
    },
    {
      "channel": 4,
      "note": 81,
      "start": 65.4128,
      "duration": 0.0161,
      "velocity": 86,
      "chip": "ym2612"
    },
    {
      "channel": 3,
      "note": 85,
      "start": 65.414,
      "duration": 0.0161,
      "velocity": 86,
      "chip": "ym2612"
    },
    {
      "channel": 2,
      "note": 57,
      "start": 65.4151,
      "duration": 0.0161,
      "velocity": 93,
      "chip": "ym2612"
    },
    {
      "channel": 1,
      "note": 78,
      "start": 65.4163,
      "duration": 0.016,
      "velocity": 98,
      "chip": "ym2612"
    },
    {
      "channel": 5,
      "note": 78,
      "start": 65.4276,
      "duration": 0.0161,
      "velocity": 98,
      "chip": "ym2612"
    },
    {
      "channel": 3,
      "note": 85,
      "start": 65.4301,
      "duration": 0.0163,
      "velocity": 86,
      "chip": "ym2612"
    },
    {
      "channel": 2,
      "note": 57,
      "start": 65.4312,
      "duration": 0.0164,
      "velocity": 93,
      "chip": "ym2612"
    },
    {
      "channel": 1,
      "note": 78,
      "start": 65.4324,
      "duration": 0.0164,
      "velocity": 98,
      "chip": "ym2612"
    },
    {
      "channel": 5,
      "note": 78,
      "start": 65.4437,
      "duration": 0.0161,
      "velocity": 98,
      "chip": "ym2612"
    },
    {
      "channel": 4,
      "note": 85,
      "start": 65.4453,
      "duration": 0.0159,
      "velocity": 86,
      "chip": "ym2612"
    },
    {
      "channel": 3,
      "note": 85,
      "start": 65.4464,
      "duration": 0.0158,
      "velocity": 86,
      "chip": "ym2612"
    },
    {
      "channel": 2,
      "note": 57,
      "start": 65.4476,
      "duration": 0.0158,
      "velocity": 93,
      "chip": "ym2612"
    },
    {
      "channel": 1,
      "note": 78,
      "start": 65.4488,
      "duration": 0.0159,
      "velocity": 98,
      "chip": "ym2612"
    },
    {
      "channel": 5,
      "note": 78,
      "start": 65.4598,
      "duration": 0.0161,
      "velocity": 98,
      "chip": "ym2612"
    },
    {
      "channel": 4,
      "note": 85,
      "start": 65.4611,
      "duration": 0.016,
      "velocity": 86,
      "chip": "ym2612"
    },
    {
      "channel": 3,
      "note": 85,
      "start": 65.4622,
      "duration": 0.016,
      "velocity": 86,
      "chip": "ym2612"
    },
    {
      "channel": 2,
      "note": 57,
      "start": 65.4634,
      "duration": 0.0161,
      "velocity": 93,
      "chip": "ym2612"
    },
    {
      "channel": 1,
      "note": 78,
      "start": 65.4647,
      "duration": 0.016,
      "velocity": 98,
      "chip": "ym2612"
    },
    {
      "channel": 5,
      "note": 78,
      "start": 65.476,
      "duration": 0.0196,
      "velocity": 98,
      "chip": "ym2612"
    },
    {
      "channel": 4,
      "note": 85,
      "start": 65.4771,
      "duration": 0.0196,
      "velocity": 86,
      "chip": "ym2612"
    },
    {
      "channel": 3,
      "note": 85,
      "start": 65.4783,
      "duration": 0.0197,
      "velocity": 86,
      "chip": "ym2612"
    },
    {
      "channel": 2,
      "note": 57,
      "start": 65.4795,
      "duration": 0.0198,
      "velocity": 93,
      "chip": "ym2612"
    },
    {
      "channel": 1,
      "note": 78,
      "start": 65.4807,
      "duration": 0.0201,
      "velocity": 98,
      "chip": "ym2612"
    },
    {
      "channel": 0,
      "note": 36,
      "start": 65.4944,
      "duration": 0.0143,
      "velocity": 115,
      "chip": "ym2612"
    },
    {
      "channel": 5,
      "note": 78,
      "start": 65.4956,
      "duration": 0.0143,
      "velocity": 98,
      "chip": "ym2612"
    },
    {
      "channel": 4,
      "note": 85,
      "start": 65.4967,
      "duration": 0.0144,
      "velocity": 86,
      "chip": "ym2612"
    },
    {
      "channel": 3,
      "note": 85,
      "start": 65.4979,
      "duration": 0.0143,
      "velocity": 86,
      "chip": "ym2612"
    },
    {
      "channel": 2,
      "note": 57,
      "start": 65.4994,
      "duration": 0.0141,
      "velocity": 93,
      "chip": "ym2612"
    },
    {
      "channel": 1,
      "note": 78,
      "start": 65.5008,
      "duration": 0.0139,
      "velocity": 98,
      "chip": "ym2612"
    },
    {
      "channel": 0,
      "note": 36,
      "start": 65.5088,
      "duration": 0.016,
      "velocity": 115,
      "chip": "ym2612"
    },
    {
      "channel": 5,
      "note": 78,
      "start": 65.5099,
      "duration": 0.016,
      "velocity": 98,
      "chip": "ym2612"
    },
    {
      "channel": 4,
      "note": 85,
      "start": 65.5111,
      "duration": 0.016,
      "velocity": 86,
      "chip": "ym2612"
    },
    {
      "channel": 3,
      "note": 85,
      "start": 65.5122,
      "duration": 0.016,
      "velocity": 86,
      "chip": "ym2612"
    },
    {
      "channel": 2,
      "note": 57,
      "start": 65.5135,
      "duration": 0.0159,
      "velocity": 93,
      "chip": "ym2612"
    },
    {
      "channel": 1,
      "note": 78,
      "start": 65.5147,
      "duration": 0.016,
      "velocity": 98,
      "chip": "ym2612"
    },
    {
      "channel": 0,
      "note": 37,
      "start": 65.5248,
      "duration": 0.0161,
      "velocity": 115,
      "chip": "ym2612"
    },
    {
      "channel": 5,
      "note": 78,
      "start": 65.5259,
      "duration": 0.0161,
      "velocity": 98,
      "chip": "ym2612"
    },
    {
      "channel": 4,
      "note": 85,
      "start": 65.5271,
      "duration": 0.0161,
      "velocity": 86,
      "chip": "ym2612"
    },
    {
      "channel": 3,
      "note": 85,
      "start": 65.5283,
      "duration": 0.0162,
      "velocity": 86,
      "chip": "ym2612"
    },
    {
      "channel": 2,
      "note": 57,
      "start": 65.5294,
      "duration": 0.0161,
      "velocity": 93,
      "chip": "ym2612"
    },
    {
      "channel": 1,
      "note": 78,
      "start": 65.5306,
      "duration": 0.0161,
      "velocity": 98,
      "chip": "ym2612"
    },
    {
      "channel": 0,
      "note": 37,
      "start": 65.5409,
      "duration": 0.0161,
      "velocity": 115,
      "chip": "ym2612"
    },
    {
      "channel": 5,
      "note": 78,
      "start": 65.542,
      "duration": 0.0162,
      "velocity": 98,
      "chip": "ym2612"
    },
    {
      "channel": 4,
      "note": 85,
      "start": 65.5432,
      "duration": 0.0161,
      "velocity": 86,
      "chip": "ym2612"
    },
    {
      "channel": 3,
      "note": 85,
      "start": 65.5444,
      "duration": 0.0161,
      "velocity": 86,
      "chip": "ym2612"
    },
    {
      "channel": 2,
      "note": 57,
      "start": 65.5456,
      "duration": 0.0161,
      "velocity": 93,
      "chip": "ym2612"
    },
    {
      "channel": 1,
      "note": 78,
      "start": 65.5467,
      "duration": 0.0161,
      "velocity": 98,
      "chip": "ym2612"
    },
    {
      "channel": 0,
      "note": 38,
      "start": 65.557,
      "duration": 0.0161,
      "velocity": 115,
      "chip": "ym2612"
    },
    {
      "channel": 5,
      "note": 78,
      "start": 65.5582,
      "duration": 0.0161,
      "velocity": 98,
      "chip": "ym2612"
    },
    {
      "channel": 4,
      "note": 85,
      "start": 65.5593,
      "duration": 0.0161,
      "velocity": 86,
      "chip": "ym2612"
    },
    {
      "channel": 3,
      "note": 85,
      "start": 65.5605,
      "duration": 0.0161,
      "velocity": 86,
      "chip": "ym2612"
    },
    {
      "channel": 2,
      "note": 57,
      "start": 65.5617,
      "duration": 0.0161,
      "velocity": 93,
      "chip": "ym2612"
    },
    {
      "channel": 1,
      "note": 78,
      "start": 65.5629,
      "duration": 0.0161,
      "velocity": 98,
      "chip": "ym2612"
    },
    {
      "channel": 0,
      "note": 38,
      "start": 65.5731,
      "duration": 0.0161,
      "velocity": 115,
      "chip": "ym2612"
    },
    {
      "channel": 5,
      "note": 78,
      "start": 65.5743,
      "duration": 0.0161,
      "velocity": 98,
      "chip": "ym2612"
    },
    {
      "channel": 4,
      "note": 85,
      "start": 65.5754,
      "duration": 0.0161,
      "velocity": 86,
      "chip": "ym2612"
    },
    {
      "channel": 3,
      "note": 85,
      "start": 65.5766,
      "duration": 0.0161,
      "velocity": 86,
      "chip": "ym2612"
    },
    {
      "channel": 2,
      "note": 57,
      "start": 65.5778,
      "duration": 0.0161,
      "velocity": 93,
      "chip": "ym2612"
    },
    {
      "channel": 1,
      "note": 78,
      "start": 65.579,
      "duration": 0.0161,
      "velocity": 98,
      "chip": "ym2612"
    },
    {
      "channel": 0,
      "note": 39,
      "start": 65.5892,
      "duration": 0.0161,
      "velocity": 115,
      "chip": "ym2612"
    },
    {
      "channel": 5,
      "note": 78,
      "start": 65.5904,
      "duration": 0.0161,
      "velocity": 98,
      "chip": "ym2612"
    },
    {
      "channel": 4,
      "note": 85,
      "start": 65.5915,
      "duration": 0.0161,
      "velocity": 86,
      "chip": "ym2612"
    },
    {
      "channel": 3,
      "note": 85,
      "start": 65.5927,
      "duration": 0.0161,
      "velocity": 86,
      "chip": "ym2612"
    },
    {
      "channel": 2,
      "note": 57,
      "start": 65.5939,
      "duration": 0.0161,
      "velocity": 93,
      "chip": "ym2612"
    },
    {
      "channel": 1,
      "note": 78,
      "start": 65.5951,
      "duration": 0.0161,
      "velocity": 98,
      "chip": "ym2612"
    },
    {
      "channel": 0,
      "note": 39,
      "start": 65.6053,
      "duration": 0.0161,
      "velocity": 115,
      "chip": "ym2612"
    },
    {
      "channel": 5,
      "note": 78,
      "start": 65.6065,
      "duration": 0.0161,
      "velocity": 98,
      "chip": "ym2612"
    },
    {
      "channel": 4,
      "note": 85,
      "start": 65.6076,
      "duration": 0.0161,
      "velocity": 86,
      "chip": "ym2612"
    },
    {
      "channel": 3,
      "note": 85,
      "start": 65.6088,
      "duration": 0.0161,
      "velocity": 86,
      "chip": "ym2612"
    },
    {
      "channel": 2,
      "note": 57,
      "start": 65.61,
      "duration": 0.0161,
      "velocity": 93,
      "chip": "ym2612"
    },
    {
      "channel": 1,
      "note": 78,
      "start": 65.6112,
      "duration": 0.0161,
      "velocity": 98,
      "chip": "ym2612"
    },
    {
      "channel": 0,
      "note": 40,
      "start": 65.6214,
      "duration": 0.0161,
      "velocity": 115,
      "chip": "ym2612"
    },
    {
      "channel": 5,
      "note": 78,
      "start": 65.6226,
      "duration": 0.0161,
      "velocity": 98,
      "chip": "ym2612"
    },
    {
      "channel": 4,
      "note": 85,
      "start": 65.6237,
      "duration": 0.0162,
      "velocity": 86,
      "chip": "ym2612"
    },
    {
      "channel": 3,
      "note": 85,
      "start": 65.6249,
      "duration": 0.0161,
      "velocity": 86,
      "chip": "ym2612"
    },
    {
      "channel": 2,
      "note": 57,
      "start": 65.6261,
      "duration": 0.0162,
      "velocity": 93,
      "chip": "ym2612"
    },
    {
      "channel": 1,
      "note": 78,
      "start": 65.6273,
      "duration": 0.0162,
      "velocity": 98,
      "chip": "ym2612"
    },
    {
      "channel": 0,
      "note": 40,
      "start": 65.6375,
      "duration": 0.0161,
      "velocity": 115,
      "chip": "ym2612"
    },
    {
      "channel": 5,
      "note": 78,
      "start": 65.6386,
      "duration": 0.0162,
      "velocity": 98,
      "chip": "ym2612"
    },
    {
      "channel": 4,
      "note": 85,
      "start": 65.6399,
      "duration": 0.0161,
      "velocity": 86,
      "chip": "ym2612"
    },
    {
      "channel": 3,
      "note": 85,
      "start": 65.641,
      "duration": 0.0162,
      "velocity": 86,
      "chip": "ym2612"
    },
    {
      "channel": 2,
      "note": 57,
      "start": 65.6423,
      "duration": 0.0161,
      "velocity": 93,
      "chip": "ym2612"
    },
    {
      "channel": 1,
      "note": 78,
      "start": 65.6434,
      "duration": 0.0161,
      "velocity": 98,
      "chip": "ym2612"
    },
    {
      "channel": 0,
      "note": 40,
      "start": 65.6537,
      "duration": 0.0164,
      "velocity": 115,
      "chip": "ym2612"
    },
    {
      "channel": 5,
      "note": 78,
      "start": 65.6548,
      "duration": 0.0164,
      "velocity": 98,
      "chip": "ym2612"
    },
    {
      "channel": 4,
      "note": 85,
      "start": 65.656,
      "duration": 0.0164,
      "velocity": 86,
      "chip": "ym2612"
    },
    {
      "channel": 3,
      "note": 85,
      "start": 65.6572,
      "duration": 0.0165,
      "velocity": 86,
      "chip": "ym2612"
    },
    {
      "channel": 2,
      "note": 57,
      "start": 65.6584,
      "duration": 0.0165,
      "velocity": 93,
      "chip": "ym2612"
    },
    {
      "channel": 1,
      "note": 78,
      "start": 65.6596,
      "duration": 0.0164,
      "velocity": 98,
      "chip": "ym2612"
    },
    {
      "channel": 0,
      "note": 41,
      "start": 65.6701,
      "duration": 0.0181,
      "velocity": 115,
      "chip": "ym2612"
    },
    {
      "channel": 5,
      "note": 78,
      "start": 65.6712,
      "duration": 0.0182,
      "velocity": 98,
      "chip": "ym2612"
    },
    {
      "channel": 4,
      "note": 85,
      "start": 65.6724,
      "duration": 0.0181,
      "velocity": 86,
      "chip": "ym2612"
    },
    {
      "channel": 2,
      "note": 57,
      "start": 65.6749,
      "duration": 0.0184,
      "velocity": 93,
      "chip": "ym2612"
    },
    {
      "channel": 1,
      "note": 78,
      "start": 65.676,
      "duration": 0.0185,
      "velocity": 98,
      "chip": "ym2612"
    },
    {
      "channel": 0,
      "note": 36,
      "start": 65.6882,
      "duration": 0.0144,
      "velocity": 115,
      "chip": "ym2612"
    },
    {
      "channel": 5,
      "note": 78,
      "start": 65.6894,
      "duration": 0.0143,
      "velocity": 98,
      "chip": "ym2612"
    },
    {
      "channel": 4,
      "note": 85,
      "start": 65.6906,
      "duration": 0.0144,
      "velocity": 86,
      "chip": "ym2612"
    },
    {
      "channel": 3,
      "note": 76,
      "start": 65.6921,
      "duration": 0.0141,
      "velocity": 86,
      "chip": "ym2612"
    },
    {
      "channel": 2,
      "note": 57,
      "start": 65.6932,
      "duration": 0.0141,
      "velocity": 93,
      "chip": "ym2612"
    },
    {
      "channel": 1,
      "note": 78,
      "start": 65.6944,
      "duration": 0.0141,
      "velocity": 98,
      "chip": "ym2612"
    },
    {
      "channel": 0,
      "note": 36,
      "start": 65.7026,
      "duration": 0.016,
      "velocity": 115,
      "chip": "ym2612"
    },
    {
      "channel": 5,
      "note": 78,
      "start": 65.7037,
      "duration": 0.016,
      "velocity": 98,
      "chip": "ym2612"
    },
    {
      "channel": 4,
      "note": 85,
      "start": 65.7049,
      "duration": 0.016,
      "velocity": 86,
      "chip": "ym2612"
    },
    {
      "channel": 3,
      "note": 76,
      "start": 65.7061,
      "duration": 0.016,
      "velocity": 86,
      "chip": "ym2612"
    },
    {
      "channel": 2,
      "note": 57,
      "start": 65.7073,
      "duration": 0.016,
      "velocity": 93,
      "chip": "ym2612"
    },
    {
      "channel": 1,
      "note": 78,
      "start": 65.7085,
      "duration": 0.016,
      "velocity": 98,
      "chip": "ym2612"
    },
    {
      "channel": 0,
      "note": 37,
      "start": 65.7185,
      "duration": 0.0158,
      "velocity": 115,
      "chip": "ym2612"
    },
    {
      "channel": 5,
      "note": 78,
      "start": 65.7198,
      "duration": 0.0161,
      "velocity": 98,
      "chip": "ym2612"
    },
    {
      "channel": 3,
      "note": 76,
      "start": 65.7221,
      "duration": 0.0164,
      "velocity": 86,
      "chip": "ym2612"
    },
    {
      "channel": 2,
      "note": 57,
      "start": 65.7233,
      "duration": 0.0164,
      "velocity": 93,
      "chip": "ym2612"
    },
    {
      "channel": 1,
      "note": 78,
      "start": 65.7245,
      "duration": 0.0164,
      "velocity": 98,
      "chip": "ym2612"
    },
    {
      "channel": 0,
      "note": 37,
      "start": 65.7343,
      "duration": 0.0158,
      "velocity": 115,
      "chip": "ym2612"
    },
    {
      "channel": 5,
      "note": 78,
      "start": 65.7359,
      "duration": 0.0161,
      "velocity": 98,
      "chip": "ym2612"
    },
    {
      "channel": 4,
      "note": 76,
      "start": 65.7374,
      "duration": 0.0158,
      "velocity": 86,
      "chip": "ym2612"
    },
    {
      "channel": 3,
      "note": 76,
      "start": 65.7385,
      "duration": 0.0158,
      "velocity": 86,
      "chip": "ym2612"
    },
    {
      "channel": 2,
      "note": 57,
      "start": 65.7397,
      "duration": 0.0159,
      "velocity": 93,
      "chip": "ym2612"
    },
    {
      "channel": 1,
      "note": 78,
      "start": 65.7409,
      "duration": 0.0159,
      "velocity": 98,
      "chip": "ym2612"
    },
    {
      "channel": 0,
      "note": 38,
      "start": 65.7502,
      "duration": 0.0162,
      "velocity": 115,
      "chip": "ym2612"
    },
    {
      "channel": 5,
      "note": 78,
      "start": 65.752,
      "duration": 0.016,
      "velocity": 98,
      "chip": "ym2612"
    },
    {
      "channel": 4,
      "note": 76,
      "start": 65.7532,
      "duration": 0.0161,
      "velocity": 86,
      "chip": "ym2612"
    },
    {
      "channel": 3,
      "note": 76,
      "start": 65.7544,
      "duration": 0.016,
      "velocity": 86,
      "chip": "ym2612"
    },
    {
      "channel": 2,
      "note": 57,
      "start": 65.7556,
      "duration": 0.0161,
      "velocity": 93,
      "chip": "ym2612"
    },
    {
      "channel": 1,
      "note": 78,
      "start": 65.7568,
      "duration": 0.016,
      "velocity": 98,
      "chip": "ym2612"
    },
    {
      "channel": 0,
      "note": 38,
      "start": 65.7663,
      "duration": 0.0184,
      "velocity": 124,
      "chip": "ym2612"
    },
    {
      "channel": 5,
      "note": 78,
      "start": 65.768,
      "duration": 0.018,
      "velocity": 98,
      "chip": "ym2612"
    },
    {
      "channel": 4,
      "note": 76,
      "start": 65.7693,
      "duration": 0.0179,
      "velocity": 86,
      "chip": "ym2612"
    },
    {
      "channel": 2,
      "note": 57,
      "start": 65.7717,
      "duration": 0.0184,
      "velocity": 93,
      "chip": "ym2612"
    },
    {
      "channel": 0,
      "note": 84,
      "start": 65.7848,
      "duration": 0.0138,
      "velocity": 124,
      "chip": "ym2612"
    },
    {
      "channel": 5,
      "note": 78,
      "start": 65.786,
      "duration": 0.0137,
      "velocity": 98,
      "chip": "ym2612"
    },
    {
      "channel": 4,
      "note": 76,
      "start": 65.7872,
      "duration": 0.0142,
      "velocity": 86,
      "chip": "ym2612"
    },
    {
      "channel": 3,
      "note": 81,
      "start": 65.7886,
      "duration": 0.0141,
      "velocity": 86,
      "chip": "ym2612"
    },
    {
      "channel": 2,
      "note": 57,
      "start": 65.7901,
      "duration": 0.0139,
      "velocity": 93,
      "chip": "ym2612"
    },
    {
      "channel": 1,
      "note": 76,
      "start": 65.7916,
      "duration": 0.0136,
      "velocity": 98,
      "chip": "ym2612"
    },
    {
      "channel": 0,
      "note": 82,
      "start": 65.7986,
      "duration": 0.016,
      "velocity": 124,
      "chip": "ym2612"
    },
    {
      "channel": 5,
      "note": 78,
      "start": 65.7997,
      "duration": 0.016,
      "velocity": 98,
      "chip": "ym2612"
    },
    {
      "channel": 4,
      "note": 76,
      "start": 65.8014,
      "duration": 0.0155,
      "velocity": 86,
      "chip": "ym2612"
    },
    {
      "channel": 3,
      "note": 81,
      "start": 65.8027,
      "duration": 0.016,
      "velocity": 86,
      "chip": "ym2612"
    },
    {
      "channel": 2,
      "note": 57,
      "start": 65.804,
      "duration": 0.0159,
      "velocity": 93,
      "chip": "ym2612"
    },
    {
      "channel": 1,
      "note": 76,
      "start": 65.8052,
      "duration": 0.0158,
      "velocity": 98,
      "chip": "ym2612"
    },
    {
      "channel": 0,
      "note": 80,
      "start": 65.8146,
      "duration": 0.0161,
      "velocity": 124,
      "chip": "ym2612"
    },
    {
      "channel": 5,
      "note": 78,
      "start": 65.8157,
      "duration": 0.0162,
      "velocity": 98,
      "chip": "ym2612"
    },
    {
      "channel": 3,
      "note": 81,
      "start": 65.8187,
      "duration": 0.0164,
      "velocity": 86,
      "chip": "ym2612"
    },
    {
      "channel": 2,
      "note": 57,
      "start": 65.8199,
      "duration": 0.0164,
      "velocity": 93,
      "chip": "ym2612"
    },
    {
      "channel": 1,
      "note": 76,
      "start": 65.821,
      "duration": 0.0164,
      "velocity": 98,
      "chip": "ym2612"
    },
    {
      "channel": 0,
      "note": 77,
      "start": 65.8307,
      "duration": 0.0161,
      "velocity": 124,
      "chip": "ym2612"
    },
    {
      "channel": 5,
      "note": 78,
      "start": 65.8319,
      "duration": 0.0161,
      "velocity": 98,
      "chip": "ym2612"
    },
    {
      "channel": 4,
      "note": 81,
      "start": 65.8334,
      "duration": 0.0158,
      "velocity": 86,
      "chip": "ym2612"
    },
    {
      "channel": 3,
      "note": 81,
      "start": 65.8351,
      "duration": 0.0153,
      "velocity": 86,
      "chip": "ym2612"
    },
    {
      "channel": 2,
      "note": 57,
      "start": 65.8363,
      "duration": 0.0158,
      "velocity": 93,
      "chip": "ym2612"
    },
    {
      "channel": 1,
      "note": 76,
      "start": 65.8374,
      "duration": 0.0159,
      "velocity": 98,
      "chip": "ym2612"
    },
    {
      "channel": 0,
      "note": 75,
      "start": 65.8468,
      "duration": 0.0161,
      "velocity": 124,
      "chip": "ym2612"
    },
    {
      "channel": 5,
      "note": 78,
      "start": 65.848,
      "duration": 0.0161,
      "velocity": 98,
      "chip": "ym2612"
    },
    {
      "channel": 4,
      "note": 81,
      "start": 65.8492,
      "duration": 0.016,
      "velocity": 86,
      "chip": "ym2612"
    },
    {
      "channel": 3,
      "note": 81,
      "start": 65.8504,
      "duration": 0.016,
      "velocity": 86,
      "chip": "ym2612"
    },
    {
      "channel": 2,
      "note": 57,
      "start": 65.8521,
      "duration": 0.0157,
      "velocity": 93,
      "chip": "ym2612"
    },
    {
      "channel": 1,
      "note": 76,
      "start": 65.8533,
      "duration": 0.016,
      "velocity": 98,
      "chip": "ym2612"
    },
    {
      "channel": 0,
      "note": 72,
      "start": 65.8629,
      "duration": 0.0161,
      "velocity": 124,
      "chip": "ym2612"
    },
    {
      "channel": 5,
      "note": 78,
      "start": 65.8641,
      "duration": 0.0161,
      "velocity": 98,
      "chip": "ym2612"
    },
    {
      "channel": 4,
      "note": 81,
      "start": 65.8652,
      "duration": 0.0161,
      "velocity": 86,
      "chip": "ym2612"
    },
    {
      "channel": 3,
      "note": 81,
      "start": 65.8664,
      "duration": 0.0161,
      "velocity": 86,
      "chip": "ym2612"
    },
    {
      "channel": 2,
      "note": 57,
      "start": 65.8678,
      "duration": 0.0159,
      "velocity": 93,
      "chip": "ym2612"
    },
    {
      "channel": 1,
      "note": 76,
      "start": 65.8693,
      "duration": 0.016,
      "velocity": 98,
      "chip": "ym2612"
    },
    {
      "channel": 0,
      "note": 70,
      "start": 65.879,
      "duration": 0.0161,
      "velocity": 124,
      "chip": "ym2612"
    },
    {
      "channel": 5,
      "note": 78,
      "start": 65.8802,
      "duration": 0.0161,
      "velocity": 98,
      "chip": "ym2612"
    },
    {
      "channel": 4,
      "note": 81,
      "start": 65.8813,
      "duration": 0.0161,
      "velocity": 86,
      "chip": "ym2612"
    },
    {
      "channel": 3,
      "note": 81,
      "start": 65.8825,
      "duration": 0.0161,
      "velocity": 86,
      "chip": "ym2612"
    },
    {
      "channel": 2,
      "note": 57,
      "start": 65.8837,
      "duration": 0.0161,
      "velocity": 93,
      "chip": "ym2612"
    },
    {
      "channel": 1,
      "note": 76,
      "start": 65.8853,
      "duration": 0.0162,
      "velocity": 98,
      "chip": "ym2612"
    },
    {
      "channel": 0,
      "note": 68,
      "start": 65.8951,
      "duration": 0.0161,
      "velocity": 124,
      "chip": "ym2612"
    },
    {
      "channel": 5,
      "note": 78,
      "start": 65.8963,
      "duration": 0.0161,
      "velocity": 98,
      "chip": "ym2612"
    },
    {
      "channel": 4,
      "note": 81,
      "start": 65.8974,
      "duration": 0.0161,
      "velocity": 86,
      "chip": "ym2612"
    },
    {
      "channel": 3,
      "note": 81,
      "start": 65.8986,
      "duration": 0.0161,
      "velocity": 86,
      "chip": "ym2612"
    },
    {
      "channel": 2,
      "note": 57,
      "start": 65.8998,
      "duration": 0.0161,
      "velocity": 93,
      "chip": "ym2612"
    },
    {
      "channel": 1,
      "note": 76,
      "start": 65.9015,
      "duration": 0.0155,
      "velocity": 98,
      "chip": "ym2612"
    },
    {
      "channel": 0,
      "note": 65,
      "start": 65.9112,
      "duration": 0.0162,
      "velocity": 124,
      "chip": "ym2612"
    },
    {
      "channel": 5,
      "note": 78,
      "start": 65.9124,
      "duration": 0.0161,
      "velocity": 98,
      "chip": "ym2612"
    },
    {
      "channel": 4,
      "note": 81,
      "start": 65.9135,
      "duration": 0.0162,
      "velocity": 86,
      "chip": "ym2612"
    },
    {
      "channel": 3,
      "note": 81,
      "start": 65.9147,
      "duration": 0.0161,
      "velocity": 86,
      "chip": "ym2612"
    },
    {
      "channel": 2,
      "note": 57,
      "start": 65.9159,
      "duration": 0.0162,
      "velocity": 93,
      "chip": "ym2612"
    },
    {
      "channel": 1,
      "note": 76,
      "start": 65.917,
      "duration": 0.0162,
      "velocity": 98,
      "chip": "ym2612"
    },
    {
      "channel": 0,
      "note": 63,
      "start": 65.9273,
      "duration": 0.0153,
      "velocity": 1,
      "chip": "ym2612"
    },
    {
      "channel": 5,
      "note": 78,
      "start": 65.9285,
      "duration": 0.0153,
      "velocity": 98,
      "chip": "ym2612"
    },
    {
      "channel": 4,
      "note": 81,
      "start": 65.9297,
      "duration": 0.0153,
      "velocity": 86,
      "chip": "ym2612"
    },
    {
      "channel": 3,
      "note": 81,
      "start": 65.9308,
      "duration": 0.0153,
      "velocity": 86,
      "chip": "ym2612"
    },
    {
      "channel": 2,
      "note": 57,
      "start": 65.9321,
      "duration": 0.0152,
      "velocity": 93,
      "chip": "ym2612"
    },
    {
      "channel": 1,
      "note": 76,
      "start": 65.9332,
      "duration": 0.0153,
      "velocity": 98,
      "chip": "ym2612"
    },
    {
      "channel": 5,
      "note": 78,
      "start": 65.9437,
      "duration": 0.0153,
      "velocity": 98,
      "chip": "ym2612"
    },
    {
      "channel": 4,
      "note": 81,
      "start": 65.9449,
      "duration": 0.0152,
      "velocity": 86,
      "chip": "ym2612"
    },
    {
      "channel": 3,
      "note": 81,
      "start": 65.9461,
      "duration": 0.0153,
      "velocity": 86,
      "chip": "ym2612"
    },
    {
      "channel": 2,
      "note": 57,
      "start": 65.9473,
      "duration": 0.0153,
      "velocity": 93,
      "chip": "ym2612"
    },
    {
      "channel": 1,
      "note": 76,
      "start": 65.9485,
      "duration": 0.0153,
      "velocity": 98,
      "chip": "ym2612"
    },
    {
      "channel": 5,
      "note": 78,
      "start": 65.959,
      "duration": 0.0161,
      "velocity": 98,
      "chip": "ym2612"
    },
    {
      "channel": 4,
      "note": 81,
      "start": 65.9602,
      "duration": 0.0161,
      "velocity": 86,
      "chip": "ym2612"
    },
    {
      "channel": 2,
      "note": 57,
      "start": 65.9626,
      "duration": 0.0163,
      "velocity": 93,
      "chip": "ym2612"
    },
    {
      "channel": 5,
      "note": 78,
      "start": 65.9751,
      "duration": 0.0161,
      "velocity": 98,
      "chip": "ym2612"
    },
    {
      "channel": 4,
      "note": 81,
      "start": 65.9762,
      "duration": 0.0162,
      "velocity": 86,
      "chip": "ym2612"
    },
    {
      "channel": 3,
      "note": 85,
      "start": 65.9778,
      "duration": 0.0158,
      "velocity": 86,
      "chip": "ym2612"
    },
    {
      "channel": 2,
      "note": 57,
      "start": 65.9789,
      "duration": 0.0159,
      "velocity": 93,
      "chip": "ym2612"
    },
    {
      "channel": 1,
      "note": 78,
      "start": 65.9804,
      "duration": 0.0156,
      "velocity": 98,
      "chip": "ym2612"
    },
    {
      "channel": 5,
      "note": 78,
      "start": 65.9912,
      "duration": 0.0161,
      "velocity": 98,
      "chip": "ym2612"
    },
    {
      "channel": 4,
      "note": 81,
      "start": 65.9924,
      "duration": 0.0161,
      "velocity": 86,
      "chip": "ym2612"
    },
    {
      "channel": 3,
      "note": 85,
      "start": 65.9936,
      "duration": 0.016,
      "velocity": 86,
      "chip": "ym2612"
    },
    {
      "channel": 2,
      "note": 57,
      "start": 65.9948,
      "duration": 0.0161,
      "velocity": 93,
      "chip": "ym2612"
    },
    {
      "channel": 1,
      "note": 78,
      "start": 65.996,
      "duration": 0.016,
      "velocity": 98,
      "chip": "ym2612"
    },
    {
      "channel": 5,
      "note": 78,
      "start": 66.0073,
      "duration": 0.0161,
      "velocity": 98,
      "chip": "ym2612"
    },
    {
      "channel": 3,
      "note": 85,
      "start": 66.0096,
      "duration": 0.0164,
      "velocity": 86,
      "chip": "ym2612"
    },
    {
      "channel": 2,
      "note": 57,
      "start": 66.0108,
      "duration": 0.0164,
      "velocity": 93,
      "chip": "ym2612"
    },
    {
      "channel": 1,
      "note": 78,
      "start": 66.012,
      "duration": 0.0164,
      "velocity": 98,
      "chip": "ym2612"
    },
    {
      "channel": 5,
      "note": 78,
      "start": 66.0234,
      "duration": 0.0161,
      "velocity": 98,
      "chip": "ym2612"
    },
    {
      "channel": 4,
      "note": 85,
      "start": 66.0249,
      "duration": 0.0159,
      "velocity": 86,
      "chip": "ym2612"
    },
    {
      "channel": 3,
      "note": 85,
      "start": 66.0261,
      "duration": 0.0158,
      "velocity": 86,
      "chip": "ym2612"
    },
    {
      "channel": 2,
      "note": 57,
      "start": 66.0273,
      "duration": 0.0159,
      "velocity": 93,
      "chip": "ym2612"
    },
    {
      "channel": 1,
      "note": 78,
      "start": 66.0284,
      "duration": 0.0159,
      "velocity": 98,
      "chip": "ym2612"
    },
    {
      "channel": 5,
      "note": 78,
      "start": 66.0395,
      "duration": 0.0161,
      "velocity": 98,
      "chip": "ym2612"
    },
    {
      "channel": 4,
      "note": 85,
      "start": 66.0407,
      "duration": 0.016,
      "velocity": 86,
      "chip": "ym2612"
    },
    {
      "channel": 3,
      "note": 85,
      "start": 66.0419,
      "duration": 0.016,
      "velocity": 86,
      "chip": "ym2612"
    },
    {
      "channel": 2,
      "note": 57,
      "start": 66.0431,
      "duration": 0.0161,
      "velocity": 93,
      "chip": "ym2612"
    },
    {
      "channel": 1,
      "note": 78,
      "start": 66.0443,
      "duration": 0.016,
      "velocity": 98,
      "chip": "ym2612"
    },
    {
      "channel": 5,
      "note": 78,
      "start": 66.0556,
      "duration": 0.0196,
      "velocity": 98,
      "chip": "ym2612"
    },
    {
      "channel": 4,
      "note": 85,
      "start": 66.0568,
      "duration": 0.0196,
      "velocity": 86,
      "chip": "ym2612"
    },
    {
      "channel": 3,
      "note": 85,
      "start": 66.0579,
      "duration": 0.0197,
      "velocity": 86,
      "chip": "ym2612"
    },
    {
      "channel": 2,
      "note": 57,
      "start": 66.0592,
      "duration": 0.0198,
      "velocity": 93,
      "chip": "ym2612"
    },
    {
      "channel": 1,
      "note": 78,
      "start": 66.0603,
      "duration": 0.0198,
      "velocity": 98,
      "chip": "ym2612"
    },
    {
      "channel": 0,
      "note": 36,
      "start": 66.0741,
      "duration": 0.0143,
      "velocity": 115,
      "chip": "ym2612"
    },
    {
      "channel": 5,
      "note": 78,
      "start": 66.0752,
      "duration": 0.0143,
      "velocity": 98,
      "chip": "ym2612"
    },
    {
      "channel": 4,
      "note": 85,
      "start": 66.0764,
      "duration": 0.0144,
      "velocity": 86,
      "chip": "ym2612"
    },
    {
      "channel": 3,
      "note": 85,
      "start": 66.0776,
      "duration": 0.0143,
      "velocity": 86,
      "chip": "ym2612"
    },
    {
      "channel": 2,
      "note": 54,
      "start": 66.079,
      "duration": 0.0141,
      "velocity": 93,
      "chip": "ym2612"
    },
    {
      "channel": 1,
      "note": 78,
      "start": 66.0802,
      "duration": 0.0141,
      "velocity": 98,
      "chip": "ym2612"
    },
    {
      "channel": 0,
      "note": 36,
      "start": 66.0884,
      "duration": 0.016,
      "velocity": 115,
      "chip": "ym2612"
    },
    {
      "channel": 4,
      "note": 85,
      "start": 66.0907,
      "duration": 0.0163,
      "velocity": 86,
      "chip": "ym2612"
    },
    {
      "channel": 3,
      "note": 85,
      "start": 66.0919,
      "duration": 0.0163,
      "velocity": 86,
      "chip": "ym2612"
    },
    {
      "channel": 2,
      "note": 54,
      "start": 66.0932,
      "duration": 0.0162,
      "velocity": 93,
      "chip": "ym2612"
    },
    {
      "channel": 1,
      "note": 78,
      "start": 66.0943,
      "duration": 0.0163,
      "velocity": 98,
      "chip": "ym2612"
    },
    {
      "channel": 0,
      "note": 37,
      "start": 66.1044,
      "duration": 0.0162,
      "velocity": 115,
      "chip": "ym2612"
    },
    {
      "channel": 5,
      "note": 76,
      "start": 66.1059,
      "duration": 0.0159,
      "velocity": 98,
      "chip": "ym2612"
    },
    {
      "channel": 4,
      "note": 85,
      "start": 66.107,
      "duration": 0.016,
      "velocity": 86,
      "chip": "ym2612"
    },
    {
      "channel": 3,
      "note": 85,
      "start": 66.1082,
      "duration": 0.016,
      "velocity": 86,
      "chip": "ym2612"
    },
    {
      "channel": 2,
      "note": 54,
      "start": 66.1094,
      "duration": 0.016,
      "velocity": 93,
      "chip": "ym2612"
    },
    {
      "channel": 1,
      "note": 78,
      "start": 66.1106,
      "duration": 0.0159,
      "velocity": 98,
      "chip": "ym2612"
    },
    {
      "channel": 0,
      "note": 37,
      "start": 66.1206,
      "duration": 0.0163,
      "velocity": 115,
      "chip": "ym2612"
    },
    {
      "channel": 5,
      "note": 76,
      "start": 66.1218,
      "duration": 0.0162,
      "velocity": 98,
      "chip": "ym2612"
    },
    {
      "channel": 4,
      "note": 85,
      "start": 66.123,
      "duration": 0.0162,
      "velocity": 86,
      "chip": "ym2612"
    },
    {
      "channel": 3,
      "note": 85,
      "start": 66.1242,
      "duration": 0.0161,
      "velocity": 86,
      "chip": "ym2612"
    },
    {
      "channel": 2,
      "note": 54,
      "start": 66.1254,
      "duration": 0.0162,
      "velocity": 93,
      "chip": "ym2612"
    },
    {
      "channel": 1,
      "note": 78,
      "start": 66.1265,
      "duration": 0.0162,
      "velocity": 98,
      "chip": "ym2612"
    },
    {
      "channel": 0,
      "note": 38,
      "start": 66.1369,
      "duration": 0.0163,
      "velocity": 115,
      "chip": "ym2612"
    },
    {
      "channel": 5,
      "note": 76,
      "start": 66.138,
      "duration": 0.0163,
      "velocity": 98,
      "chip": "ym2612"
    },
    {
      "channel": 4,
      "note": 85,
      "start": 66.1392,
      "duration": 0.0163,
      "velocity": 86,
      "chip": "ym2612"
    },
    {
      "channel": 3,
      "note": 85,
      "start": 66.1404,
      "duration": 0.0163,
      "velocity": 86,
      "chip": "ym2612"
    },
    {
      "channel": 2,
      "note": 54,
      "start": 66.1415,
      "duration": 0.0163,
      "velocity": 93,
      "chip": "ym2612"
    },
    {
      "channel": 1,
      "note": 78,
      "start": 66.1427,
      "duration": 0.0163,
      "velocity": 98,
      "chip": "ym2612"
    },
    {
      "channel": 0,
      "note": 38,
      "start": 66.1532,
      "duration": 0.0163,
      "velocity": 115,
      "chip": "ym2612"
    },
    {
      "channel": 5,
      "note": 76,
      "start": 66.1544,
      "duration": 0.0162,
      "velocity": 98,
      "chip": "ym2612"
    },
    {
      "channel": 4,
      "note": 85,
      "start": 66.1555,
      "duration": 0.0163,
      "velocity": 86,
      "chip": "ym2612"
    },
    {
      "channel": 3,
      "note": 85,
      "start": 66.1567,
      "duration": 0.0162,
      "velocity": 86,
      "chip": "ym2612"
    },
    {
      "channel": 2,
      "note": 54,
      "start": 66.1579,
      "duration": 0.0163,
      "velocity": 93,
      "chip": "ym2612"
    },
    {
      "channel": 1,
      "note": 78,
      "start": 66.1591,
      "duration": 0.0162,
      "velocity": 98,
      "chip": "ym2612"
    },
    {
      "channel": 0,
      "note": 39,
      "start": 66.1694,
      "duration": 0.0161,
      "velocity": 115,
      "chip": "ym2612"
    },
    {
      "channel": 5,
      "note": 76,
      "start": 66.1706,
      "duration": 0.0161,
      "velocity": 98,
      "chip": "ym2612"
    },
    {
      "channel": 4,
      "note": 85,
      "start": 66.1718,
      "duration": 0.0161,
      "velocity": 86,
      "chip": "ym2612"
    },
    {
      "channel": 3,
      "note": 85,
      "start": 66.1729,
      "duration": 0.0162,
      "velocity": 86,
      "chip": "ym2612"
    },
    {
      "channel": 2,
      "note": 54,
      "start": 66.1741,
      "duration": 0.0161,
      "velocity": 93,
      "chip": "ym2612"
    },
    {
      "channel": 1,
      "note": 78,
      "start": 66.1753,
      "duration": 0.0161,
      "velocity": 98,
      "chip": "ym2612"
    },
    {
      "channel": 0,
      "note": 39,
      "start": 66.1855,
      "duration": 0.016,
      "velocity": 115,
      "chip": "ym2612"
    },
    {
      "channel": 5,
      "note": 76,
      "start": 66.1867,
      "duration": 0.0161,
      "velocity": 98,
      "chip": "ym2612"
    },
    {
      "channel": 4,
      "note": 85,
      "start": 66.1879,
      "duration": 0.0161,
      "velocity": 86,
      "chip": "ym2612"
    },
    {
      "channel": 3,
      "note": 85,
      "start": 66.1891,
      "duration": 0.016,
      "velocity": 86,
      "chip": "ym2612"
    },
    {
      "channel": 2,
      "note": 54,
      "start": 66.1902,
      "duration": 0.0161,
      "velocity": 93,
      "chip": "ym2612"
    },
    {
      "channel": 1,
      "note": 78,
      "start": 66.1914,
      "duration": 0.0161,
      "velocity": 98,
      "chip": "ym2612"
    },
    {
      "channel": 0,
      "note": 40,
      "start": 66.2016,
      "duration": 0.0156,
      "velocity": 115,
      "chip": "ym2612"
    },
    {
      "channel": 5,
      "note": 76,
      "start": 66.2028,
      "duration": 0.0161,
      "velocity": 98,
      "chip": "ym2612"
    },
    {
      "channel": 4,
      "note": 85,
      "start": 66.204,
      "duration": 0.0161,
      "velocity": 86,
      "chip": "ym2612"
    },
    {
      "channel": 3,
      "note": 85,
      "start": 66.2051,
      "duration": 0.0161,
      "velocity": 86,
      "chip": "ym2612"
    },
    {
      "channel": 2,
      "note": 54,
      "start": 66.2063,
      "duration": 0.0162,
      "velocity": 93,
      "chip": "ym2612"
    },
    {
      "channel": 1,
      "note": 78,
      "start": 66.2075,
      "duration": 0.0161,
      "velocity": 98,
      "chip": "ym2612"
    },
    {
      "channel": 0,
      "note": 40,
      "start": 66.2171,
      "duration": 0.0161,
      "velocity": 115,
      "chip": "ym2612"
    },
    {
      "channel": 5,
      "note": 76,
      "start": 66.2189,
      "duration": 0.016,
      "velocity": 98,
      "chip": "ym2612"
    },
    {
      "channel": 4,
      "note": 85,
      "start": 66.2201,
      "duration": 0.0161,
      "velocity": 86,
      "chip": "ym2612"
    },
    {
      "channel": 3,
      "note": 85,
      "start": 66.2212,
      "duration": 0.0161,
      "velocity": 86,
      "chip": "ym2612"
    },
    {
      "channel": 2,
      "note": 54,
      "start": 66.2225,
      "duration": 0.0161,
      "velocity": 93,
      "chip": "ym2612"
    },
    {
      "channel": 1,
      "note": 78,
      "start": 66.2236,
      "duration": 0.0161,
      "velocity": 98,
      "chip": "ym2612"
    },
    {
      "channel": 0,
      "note": 40,
      "start": 66.2332,
      "duration": 0.0161,
      "velocity": 115,
      "chip": "ym2612"
    },
    {
      "channel": 5,
      "note": 76,
      "start": 66.2349,
      "duration": 0.0156,
      "velocity": 98,
      "chip": "ym2612"
    },
    {
      "channel": 4,
      "note": 85,
      "start": 66.2362,
      "duration": 0.016,
      "velocity": 86,
      "chip": "ym2612"
    },
    {
      "channel": 3,
      "note": 85,
      "start": 66.2374,
      "duration": 0.0161,
      "velocity": 86,
      "chip": "ym2612"
    },
    {
      "channel": 2,
      "note": 54,
      "start": 66.2386,
      "duration": 0.0161,
      "velocity": 93,
      "chip": "ym2612"
    },
    {
      "channel": 1,
      "note": 78,
      "start": 66.2397,
      "duration": 0.0162,
      "velocity": 98,
      "chip": "ym2612"
    },
    {
      "channel": 0,
      "note": 41,
      "start": 66.2493,
      "duration": 0.0161,
      "velocity": 115,
      "chip": "ym2612"
    },
    {
      "channel": 5,
      "note": 76,
      "start": 66.2505,
      "duration": 0.0161,
      "velocity": 98,
      "chip": "ym2612"
    },
    {
      "channel": 4,
      "note": 85,
      "start": 66.2522,
      "duration": 0.0161,
      "velocity": 86,
      "chip": "ym2612"
    },
    {
      "channel": 2,
      "note": 54,
      "start": 66.2547,
      "duration": 0.0163,
      "velocity": 93,
      "chip": "ym2612"
    },
    {
      "channel": 1,
      "note": 78,
      "start": 66.2559,
      "duration": 0.0163,
      "velocity": 98,
      "chip": "ym2612"
    },
    {
      "channel": 0,
      "note": 41,
      "start": 66.2654,
      "duration": 0.0161,
      "velocity": 115,
      "chip": "ym2612"
    },
    {
      "channel": 5,
      "note": 76,
      "start": 66.2666,
      "duration": 0.0161,
      "velocity": 98,
      "chip": "ym2612"
    },
    {
      "channel": 4,
      "note": 85,
      "start": 66.2683,
      "duration": 0.0156,
      "velocity": 86,
      "chip": "ym2612"
    },
    {
      "channel": 3,
      "note": 76,
      "start": 66.2699,
      "duration": 0.0158,
      "velocity": 86,
      "chip": "ym2612"
    },
    {
      "channel": 2,
      "note": 54,
      "start": 66.271,
      "duration": 0.0159,
      "velocity": 93,
      "chip": "ym2612"
    },
    {
      "channel": 1,
      "note": 78,
      "start": 66.2722,
      "duration": 0.0159,
      "velocity": 98,
      "chip": "ym2612"
    },
    {
      "channel": 0,
      "note": 42,
      "start": 66.2815,
      "duration": 0.0161,
      "velocity": 115,
      "chip": "ym2612"
    },
    {
      "channel": 4,
      "note": 85,
      "start": 66.2839,
      "duration": 0.0164,
      "velocity": 86,
      "chip": "ym2612"
    },
    {
      "channel": 3,
      "note": 76,
      "start": 66.2857,
      "duration": 0.0163,
      "velocity": 86,
      "chip": "ym2612"
    },
    {
      "channel": 2,
      "note": 54,
      "start": 66.2869,
      "duration": 0.0163,
      "velocity": 93,
      "chip": "ym2612"
    },
    {
      "channel": 1,
      "note": 78,
      "start": 66.2881,
      "duration": 0.0163,
      "velocity": 98,
      "chip": "ym2612"
    },
    {
      "channel": 0,
      "note": 42,
      "start": 66.2976,
      "duration": 0.0161,
      "velocity": 115,
      "chip": "ym2612"
    },
    {
      "channel": 5,
      "note": 78,
      "start": 66.2991,
      "duration": 0.0159,
      "velocity": 98,
      "chip": "ym2612"
    },
    {
      "channel": 3,
      "note": 76,
      "start": 66.302,
      "duration": 0.0162,
      "velocity": 86,
      "chip": "ym2612"
    },
    {
      "channel": 2,
      "note": 54,
      "start": 66.3032,
      "duration": 0.0162,
      "velocity": 93,
      "chip": "ym2612"
    },
    {
      "channel": 1,
      "note": 78,
      "start": 66.3044,
      "duration": 0.0162,
      "velocity": 98,
      "chip": "ym2612"
    },
    {
      "channel": 0,
      "note": 43,
      "start": 66.3137,
      "duration": 0.0161,
      "velocity": 115,
      "chip": "ym2612"
    },
    {
      "channel": 5,
      "note": 78,
      "start": 66.315,
      "duration": 0.016,
      "velocity": 98,
      "chip": "ym2612"
    },
    {
      "channel": 4,
      "note": 76,
      "start": 66.3165,
      "duration": 0.0157,
      "velocity": 86,
      "chip": "ym2612"
    },
    {
      "channel": 3,
      "note": 76,
      "start": 66.3182,
      "duration": 0.0152,
      "velocity": 86,
      "chip": "ym2612"
    },
    {
      "channel": 2,
      "note": 54,
      "start": 66.3194,
      "duration": 0.0157,
      "velocity": 93,
      "chip": "ym2612"
    },
    {
      "channel": 1,
      "note": 78,
      "start": 66.3206,
      "duration": 0.0158,
      "velocity": 98,
      "chip": "ym2612"
    },
    {
      "channel": 0,
      "note": 43,
      "start": 66.3298,
      "duration": 0.0161,
      "velocity": 115,
      "chip": "ym2612"
    },
    {
      "channel": 5,
      "note": 78,
      "start": 66.331,
      "duration": 0.0161,
      "velocity": 98,
      "chip": "ym2612"
    },
    {
      "channel": 4,
      "note": 76,
      "start": 66.3322,
      "duration": 0.016,
      "velocity": 86,
      "chip": "ym2612"
    },
    {
      "channel": 3,
      "note": 76,
      "start": 66.3334,
      "duration": 0.016,
      "velocity": 86,
      "chip": "ym2612"
    },
    {
      "channel": 2,
      "note": 54,
      "start": 66.3351,
      "duration": 0.0158,
      "velocity": 93,
      "chip": "ym2612"
    },
    {
      "channel": 1,
      "note": 78,
      "start": 66.3363,
      "duration": 0.0161,
      "velocity": 98,
      "chip": "ym2612"
    },
    {
      "channel": 0,
      "note": 44,
      "start": 66.3459,
      "duration": 0.0179,
      "velocity": 124,
      "chip": "ym2612"
    },
    {
      "channel": 5,
      "note": 78,
      "start": 66.3471,
      "duration": 0.018,
      "velocity": 98,
      "chip": "ym2612"
    },
    {
      "channel": 4,
      "note": 76,
      "start": 66.3483,
      "duration": 0.0179,
      "velocity": 86,
      "chip": "ym2612"
    },
    {
      "channel": 2,
      "note": 54,
      "start": 66.3509,
      "duration": 0.0188,
      "velocity": 93,
      "chip": "ym2612"
    },
    {
      "channel": 1,
      "note": 78,
      "start": 66.3524,
      "duration": 0.0185,
      "velocity": 98,
      "chip": "ym2612"
    },
    {
      "channel": 0,
      "note": 84,
      "start": 66.3639,
      "duration": 0.0143,
      "velocity": 124,
      "chip": "ym2612"
    },
    {
      "channel": 5,
      "note": 78,
      "start": 66.3651,
      "duration": 0.0143,
      "velocity": 98,
      "chip": "ym2612"
    },
    {
      "channel": 4,
      "note": 76,
      "start": 66.3662,
      "duration": 0.0143,
      "velocity": 86,
      "chip": "ym2612"
    },
    {
      "channel": 3,
      "note": 81,
      "start": 66.3682,
      "duration": 0.0135,
      "velocity": 86,
      "chip": "ym2612"
    },
    {
      "channel": 2,
      "note": 54,
      "start": 66.3698,
      "duration": 0.0132,
      "velocity": 93,
      "chip": "ym2612"
    },
    {
      "channel": 1,
      "note": 78,
      "start": 66.3709,
      "duration": 0.0134,
      "velocity": 98,
      "chip": "ym2612"
    },
    {
      "channel": 0,
      "note": 82,
      "start": 66.3782,
      "duration": 0.016,
      "velocity": 124,
      "chip": "ym2612"
    },
    {
      "channel": 5,
      "note": 78,
      "start": 66.3794,
      "duration": 0.016,
      "velocity": 98,
      "chip": "ym2612"
    },
    {
      "channel": 4,
      "note": 76,
      "start": 66.3805,
      "duration": 0.0161,
      "velocity": 86,
      "chip": "ym2612"
    },
    {
      "channel": 3,
      "note": 81,
      "start": 66.3818,
      "duration": 0.016,
      "velocity": 86,
      "chip": "ym2612"
    },
    {
      "channel": 2,
      "note": 54,
      "start": 66.383,
      "duration": 0.016,
      "velocity": 93,
      "chip": "ym2612"
    },
    {
      "channel": 1,
      "note": 78,
      "start": 66.3843,
      "duration": 0.0158,
      "velocity": 98,
      "chip": "ym2612"
    },
    {
      "channel": 0,
      "note": 80,
      "start": 66.3942,
      "duration": 0.0161,
      "velocity": 124,
      "chip": "ym2612"
    },
    {
      "channel": 5,
      "note": 78,
      "start": 66.3954,
      "duration": 0.0161,
      "velocity": 98,
      "chip": "ym2612"
    },
    {
      "channel": 3,
      "note": 81,
      "start": 66.3978,
      "duration": 0.0164,
      "velocity": 86,
      "chip": "ym2612"
    },
    {
      "channel": 2,
      "note": 54,
      "start": 66.399,
      "duration": 0.0163,
      "velocity": 93,
      "chip": "ym2612"
    },
    {
      "channel": 1,
      "note": 78,
      "start": 66.4001,
      "duration": 0.0163,
      "velocity": 98,
      "chip": "ym2612"
    },
    {
      "channel": 0,
      "note": 77,
      "start": 66.4103,
      "duration": 0.0161,
      "velocity": 124,
      "chip": "ym2612"
    },
    {
      "channel": 5,
      "note": 78,
      "start": 66.4115,
      "duration": 0.0161,
      "velocity": 98,
      "chip": "ym2612"
    },
    {
      "channel": 4,
      "note": 81,
      "start": 66.4129,
      "duration": 0.0159,
      "velocity": 86,
      "chip": "ym2612"
    },
    {
      "channel": 3,
      "note": 81,
      "start": 66.4141,
      "duration": 0.0159,
      "velocity": 86,
      "chip": "ym2612"
    },
    {
      "channel": 2,
      "note": 54,
      "start": 66.4153,
      "duration": 0.0158,
      "velocity": 93,
      "chip": "ym2612"
    },
    {
      "channel": 1,
      "note": 78,
      "start": 66.4164,
      "duration": 0.0159,
      "velocity": 98,
      "chip": "ym2612"
    },
    {
      "channel": 0,
      "note": 75,
      "start": 66.4264,
      "duration": 0.0161,
      "velocity": 124,
      "chip": "ym2612"
    },
    {
      "channel": 5,
      "note": 78,
      "start": 66.4276,
      "duration": 0.0162,
      "velocity": 98,
      "chip": "ym2612"
    },
    {
      "channel": 4,
      "note": 81,
      "start": 66.4288,
      "duration": 0.016,
      "velocity": 86,
      "chip": "ym2612"
    },
    {
      "channel": 3,
      "note": 81,
      "start": 66.43,
      "duration": 0.016,
      "velocity": 86,
      "chip": "ym2612"
    },
    {
      "channel": 2,
      "note": 54,
      "start": 66.4311,
      "duration": 0.0161,
      "velocity": 93,
      "chip": "ym2612"
    },
    {
      "channel": 1,
      "note": 78,
      "start": 66.4324,
      "duration": 0.016,
      "velocity": 98,
      "chip": "ym2612"
    },
    {
      "channel": 0,
      "note": 72,
      "start": 66.4425,
      "duration": 0.0161,
      "velocity": 124,
      "chip": "ym2612"
    },
    {
      "channel": 5,
      "note": 78,
      "start": 66.4437,
      "duration": 0.0161,
      "velocity": 98,
      "chip": "ym2612"
    },
    {
      "channel": 4,
      "note": 81,
      "start": 66.4449,
      "duration": 0.0161,
      "velocity": 86,
      "chip": "ym2612"
    },
    {
      "channel": 3,
      "note": 81,
      "start": 66.446,
      "duration": 0.0161,
      "velocity": 86,
      "chip": "ym2612"
    },
    {
      "channel": 2,
      "note": 54,
      "start": 66.4472,
      "duration": 0.0161,
      "velocity": 93,
      "chip": "ym2612"
    },
    {
      "channel": 1,
      "note": 78,
      "start": 66.4484,
      "duration": 0.0161,
      "velocity": 98,
      "chip": "ym2612"
    },
    {
      "channel": 0,
      "note": 70,
      "start": 66.4586,
      "duration": 0.0161,
      "velocity": 124,
      "chip": "ym2612"
    },
    {
      "channel": 5,
      "note": 78,
      "start": 66.4598,
      "duration": 0.0161,
      "velocity": 98,
      "chip": "ym2612"
    },
    {
      "channel": 4,
      "note": 81,
      "start": 66.461,
      "duration": 0.0161,
      "velocity": 86,
      "chip": "ym2612"
    },
    {
      "channel": 3,
      "note": 81,
      "start": 66.4622,
      "duration": 0.0161,
      "velocity": 86,
      "chip": "ym2612"
    },
    {
      "channel": 2,
      "note": 54,
      "start": 66.4633,
      "duration": 0.0161,
      "velocity": 93,
      "chip": "ym2612"
    },
    {
      "channel": 1,
      "note": 78,
      "start": 66.4645,
      "duration": 0.0161,
      "velocity": 98,
      "chip": "ym2612"
    },
    {
      "channel": 0,
      "note": 68,
      "start": 66.4747,
      "duration": 0.0161,
      "velocity": 124,
      "chip": "ym2612"
    },
    {
      "channel": 5,
      "note": 78,
      "start": 66.4759,
      "duration": 0.0161,
      "velocity": 98,
      "chip": "ym2612"
    },
    {
      "channel": 4,
      "note": 81,
      "start": 66.4771,
      "duration": 0.0161,
      "velocity": 86,
      "chip": "ym2612"
    },
    {
      "channel": 3,
      "note": 81,
      "start": 66.4783,
      "duration": 0.0161,
      "velocity": 86,
      "chip": "ym2612"
    },
    {
      "channel": 2,
      "note": 54,
      "start": 66.4794,
      "duration": 0.0161,
      "velocity": 93,
      "chip": "ym2612"
    },
    {
      "channel": 1,
      "note": 78,
      "start": 66.4806,
      "duration": 0.0161,
      "velocity": 98,
      "chip": "ym2612"
    },
    {
      "channel": 0,
      "note": 65,
      "start": 66.4908,
      "duration": 0.0161,
      "velocity": 124,
      "chip": "ym2612"
    },
    {
      "channel": 5,
      "note": 78,
      "start": 66.492,
      "duration": 0.0161,
      "velocity": 98,
      "chip": "ym2612"
    },
    {
      "channel": 4,
      "note": 81,
      "start": 66.4932,
      "duration": 0.0161,
      "velocity": 86,
      "chip": "ym2612"
    },
    {
      "channel": 3,
      "note": 81,
      "start": 66.4944,
      "duration": 0.0161,
      "velocity": 86,
      "chip": "ym2612"
    },
    {
      "channel": 2,
      "note": 54,
      "start": 66.4955,
      "duration": 0.0162,
      "velocity": 93,
      "chip": "ym2612"
    },
    {
      "channel": 1,
      "note": 78,
      "start": 66.4967,
      "duration": 0.0162,
      "velocity": 98,
      "chip": "ym2612"
    },
    {
      "channel": 0,
      "note": 63,
      "start": 66.507,
      "duration": 0.0153,
      "velocity": 1,
      "chip": "ym2612"
    },
    {
      "channel": 5,
      "note": 78,
      "start": 66.5081,
      "duration": 0.0153,
      "velocity": 98,
      "chip": "ym2612"
    },
    {
      "channel": 4,
      "note": 81,
      "start": 66.5093,
      "duration": 0.0153,
      "velocity": 86,
      "chip": "ym2612"
    },
    {
      "channel": 3,
      "note": 81,
      "start": 66.5105,
      "duration": 0.0153,
      "velocity": 86,
      "chip": "ym2612"
    },
    {
      "channel": 2,
      "note": 54,
      "start": 66.5117,
      "duration": 0.0152,
      "velocity": 93,
      "chip": "ym2612"
    },
    {
      "channel": 1,
      "note": 78,
      "start": 66.5129,
      "duration": 0.0153,
      "velocity": 98,
      "chip": "ym2612"
    },
    {
      "channel": 5,
      "note": 78,
      "start": 66.5234,
      "duration": 0.0153,
      "velocity": 98,
      "chip": "ym2612"
    },
    {
      "channel": 4,
      "note": 81,
      "start": 66.5246,
      "duration": 0.0152,
      "velocity": 86,
      "chip": "ym2612"
    },
    {
      "channel": 3,
      "note": 81,
      "start": 66.5257,
      "duration": 0.0153,
      "velocity": 86,
      "chip": "ym2612"
    },
    {
      "channel": 2,
      "note": 54,
      "start": 66.5269,
      "duration": 0.0153,
      "velocity": 93,
      "chip": "ym2612"
    },
    {
      "channel": 1,
      "note": 78,
      "start": 66.5281,
      "duration": 0.0153,
      "velocity": 98,
      "chip": "ym2612"
    },
    {
      "channel": 5,
      "note": 78,
      "start": 66.5386,
      "duration": 0.0161,
      "velocity": 98,
      "chip": "ym2612"
    },
    {
      "channel": 4,
      "note": 81,
      "start": 66.5398,
      "duration": 0.0161,
      "velocity": 86,
      "chip": "ym2612"
    },
    {
      "channel": 2,
      "note": 54,
      "start": 66.5423,
      "duration": 0.0163,
      "velocity": 93,
      "chip": "ym2612"
    },
    {
      "channel": 1,
      "note": 78,
      "start": 66.5434,
      "duration": 0.0163,
      "velocity": 98,
      "chip": "ym2612"
    },
    {
      "channel": 5,
      "note": 78,
      "start": 66.5547,
      "duration": 0.0161,
      "velocity": 98,
      "chip": "ym2612"
    },
    {
      "channel": 4,
      "note": 81,
      "start": 66.5559,
      "duration": 0.0161,
      "velocity": 86,
      "chip": "ym2612"
    },
    {
      "channel": 3,
      "note": 85,
      "start": 66.5574,
      "duration": 0.0158,
      "velocity": 86,
      "chip": "ym2612"
    },
    {
      "channel": 2,
      "note": 54,
      "start": 66.5585,
      "duration": 0.0159,
      "velocity": 93,
      "chip": "ym2612"
    },
    {
      "channel": 1,
      "note": 78,
      "start": 66.5598,
      "duration": 0.0158,
      "velocity": 98,
      "chip": "ym2612"
    },
    {
      "channel": 5,
      "note": 78,
      "start": 66.5708,
      "duration": 0.0161,
      "velocity": 98,
      "chip": "ym2612"
    },
    {
      "channel": 4,
      "note": 81,
      "start": 66.572,
      "duration": 0.0161,
      "velocity": 86,
      "chip": "ym2612"
    },
    {
      "channel": 3,
      "note": 85,
      "start": 66.5732,
      "duration": 0.0161,
      "velocity": 86,
      "chip": "ym2612"
    },
    {
      "channel": 2,
      "note": 54,
      "start": 66.5744,
      "duration": 0.0161,
      "velocity": 93,
      "chip": "ym2612"
    },
    {
      "channel": 1,
      "note": 78,
      "start": 66.5756,
      "duration": 0.016,
      "velocity": 98,
      "chip": "ym2612"
    },
    {
      "channel": 5,
      "note": 78,
      "start": 66.5869,
      "duration": 0.0161,
      "velocity": 98,
      "chip": "ym2612"
    },
    {
      "channel": 3,
      "note": 85,
      "start": 66.5893,
      "duration": 0.0164,
      "velocity": 86,
      "chip": "ym2612"
    },
    {
      "channel": 2,
      "note": 54,
      "start": 66.5905,
      "duration": 0.0164,
      "velocity": 93,
      "chip": "ym2612"
    },
    {
      "channel": 1,
      "note": 78,
      "start": 66.5916,
      "duration": 0.0165,
      "velocity": 98,
      "chip": "ym2612"
    },
    {
      "channel": 5,
      "note": 78,
      "start": 66.6031,
      "duration": 0.0164,
      "velocity": 98,
      "chip": "ym2612"
    },
    {
      "channel": 4,
      "note": 85,
      "start": 66.6046,
      "duration": 0.0161,
      "velocity": 86,
      "chip": "ym2612"
    },
    {
      "channel": 3,
      "note": 85,
      "start": 66.6058,
      "duration": 0.0162,
      "velocity": 86,
      "chip": "ym2612"
    },
    {
      "channel": 2,
      "note": 54,
      "start": 66.6069,
      "duration": 0.0162,
      "velocity": 93,
      "chip": "ym2612"
    },
    {
      "channel": 1,
      "note": 78,
      "start": 66.6081,
      "duration": 0.0162,
      "velocity": 98,
      "chip": "ym2612"
    },
    {
      "channel": 5,
      "note": 78,
      "start": 66.6195,
      "duration": 0.0163,
      "velocity": 98,
      "chip": "ym2612"
    },
    {
      "channel": 4,
      "note": 85,
      "start": 66.6208,
      "duration": 0.0162,
      "velocity": 86,
      "chip": "ym2612"
    },
    {
      "channel": 3,
      "note": 85,
      "start": 66.6219,
      "duration": 0.0162,
      "velocity": 86,
      "chip": "ym2612"
    },
    {
      "channel": 2,
      "note": 54,
      "start": 66.6231,
      "duration": 0.0163,
      "velocity": 93,
      "chip": "ym2612"
    },
    {
      "channel": 1,
      "note": 78,
      "start": 66.6243,
      "duration": 0.0162,
      "velocity": 98,
      "chip": "ym2612"
    },
    {
      "channel": 5,
      "note": 78,
      "start": 66.6359,
      "duration": 0.0196,
      "velocity": 98,
      "chip": "ym2612"
    },
    {
      "channel": 4,
      "note": 85,
      "start": 66.637,
      "duration": 0.0197,
      "velocity": 86,
      "chip": "ym2612"
    },
    {
      "channel": 3,
      "note": 85,
      "start": 66.6381,
      "duration": 0.0197,
      "velocity": 86,
      "chip": "ym2612"
    },
    {
      "channel": 2,
      "note": 54,
      "start": 66.6394,
      "duration": 0.0198,
      "velocity": 93,
      "chip": "ym2612"
    },
    {
      "channel": 1,
      "note": 78,
      "start": 66.6406,
      "duration": 0.0199,
      "velocity": 98,
      "chip": "ym2612"
    },
    {
      "channel": 0,
      "note": 36,
      "start": 66.6543,
      "duration": 0.0143,
      "velocity": 115,
      "chip": "ym2612"
    },
    {
      "channel": 5,
      "note": 78,
      "start": 66.6554,
      "duration": 0.0143,
      "velocity": 98,
      "chip": "ym2612"
    },
    {
      "channel": 4,
      "note": 85,
      "start": 66.6566,
      "duration": 0.0143,
      "velocity": 86,
      "chip": "ym2612"
    },
    {
      "channel": 3,
      "note": 85,
      "start": 66.6578,
      "duration": 0.0143,
      "velocity": 86,
      "chip": "ym2612"
    },
    {
      "channel": 2,
      "note": 54,
      "start": 66.6593,
      "duration": 0.0141,
      "velocity": 93,
      "chip": "ym2612"
    },
    {
      "channel": 1,
      "note": 78,
      "start": 66.6605,
      "duration": 0.0141,
      "velocity": 98,
      "chip": "ym2612"
    },
    {
      "channel": 0,
      "note": 36,
      "start": 66.6685,
      "duration": 0.0157,
      "velocity": 115,
      "chip": "ym2612"
    },
    {
      "channel": 5,
      "note": 78,
      "start": 66.6698,
      "duration": 0.0161,
      "velocity": 98,
      "chip": "ym2612"
    },
    {
      "channel": 4,
      "note": 85,
      "start": 66.671,
      "duration": 0.016,
      "velocity": 86,
      "chip": "ym2612"
    },
    {
      "channel": 3,
      "note": 85,
      "start": 66.6721,
      "duration": 0.016,
      "velocity": 86,
      "chip": "ym2612"
    },
    {
      "channel": 2,
      "note": 54,
      "start": 66.6734,
      "duration": 0.016,
      "velocity": 93,
      "chip": "ym2612"
    },
    {
      "channel": 1,
      "note": 78,
      "start": 66.6745,
      "duration": 0.016,
      "velocity": 98,
      "chip": "ym2612"
    },
    {
      "channel": 0,
      "note": 37,
      "start": 66.6843,
      "duration": 0.0159,
      "velocity": 115,
      "chip": "ym2612"
    },
    {
      "channel": 5,
      "note": 78,
      "start": 66.6859,
      "duration": 0.016,
      "velocity": 98,
      "chip": "ym2612"
    },
    {
      "channel": 4,
      "note": 85,
      "start": 66.687,
      "duration": 0.0161,
      "velocity": 86,
      "chip": "ym2612"
    },
    {
      "channel": 3,
      "note": 85,
      "start": 66.6881,
      "duration": 0.0161,
      "velocity": 86,
      "chip": "ym2612"
    },
    {
      "channel": 2,
      "note": 54,
      "start": 66.6893,
      "duration": 0.0161,
      "velocity": 93,
      "chip": "ym2612"
    },
    {
      "channel": 1,
      "note": 78,
      "start": 66.6905,
      "duration": 0.0161,
      "velocity": 98,
      "chip": "ym2612"
    },
    {
      "channel": 0,
      "note": 37,
      "start": 66.7002,
      "duration": 0.0161,
      "velocity": 115,
      "chip": "ym2612"
    },
    {
      "channel": 5,
      "note": 78,
      "start": 66.7019,
      "duration": 0.0158,
      "velocity": 98,
      "chip": "ym2612"
    },
    {
      "channel": 4,
      "note": 85,
      "start": 66.7031,
      "duration": 0.0161,
      "velocity": 86,
      "chip": "ym2612"
    },
    {
      "channel": 3,
      "note": 85,
      "start": 66.7043,
      "duration": 0.0161,
      "velocity": 86,
      "chip": "ym2612"
    },
    {
      "channel": 2,
      "note": 54,
      "start": 66.7054,
      "duration": 0.0161,
      "velocity": 93,
      "chip": "ym2612"
    },
    {
      "channel": 1,
      "note": 78,
      "start": 66.7066,
      "duration": 0.0161,
      "velocity": 98,
      "chip": "ym2612"
    },
    {
      "channel": 0,
      "note": 38,
      "start": 66.7163,
      "duration": 0.0161,
      "velocity": 115,
      "chip": "ym2612"
    },
    {
      "channel": 5,
      "note": 78,
      "start": 66.7177,
      "duration": 0.0159,
      "velocity": 98,
      "chip": "ym2612"
    },
    {
      "channel": 4,
      "note": 85,
      "start": 66.7192,
      "duration": 0.0161,
      "velocity": 86,
      "chip": "ym2612"
    },
    {
      "channel": 3,
      "note": 85,
      "start": 66.7204,
      "duration": 0.0161,
      "velocity": 86,
      "chip": "ym2612"
    },
    {
      "channel": 2,
      "note": 54,
      "start": 66.7215,
      "duration": 0.0161,
      "velocity": 93,
      "chip": "ym2612"
    },
    {
      "channel": 1,
      "note": 78,
      "start": 66.7227,
      "duration": 0.0161,
      "velocity": 98,
      "chip": "ym2612"
    },
    {
      "channel": 0,
      "note": 38,
      "start": 66.7324,
      "duration": 0.0161,
      "velocity": 115,
      "chip": "ym2612"
    },
    {
      "channel": 5,
      "note": 78,
      "start": 66.7336,
      "duration": 0.0161,
      "velocity": 98,
      "chip": "ym2612"
    },
    {
      "channel": 4,
      "note": 85,
      "start": 66.7353,
      "duration": 0.0158,
      "velocity": 86,
      "chip": "ym2612"
    },
    {
      "channel": 3,
      "note": 85,
      "start": 66.7365,
      "duration": 0.0161,
      "velocity": 86,
      "chip": "ym2612"
    },
    {
      "channel": 2,
      "note": 54,
      "start": 66.7377,
      "duration": 0.0161,
      "velocity": 93,
      "chip": "ym2612"
    },
    {
      "channel": 1,
      "note": 78,
      "start": 66.7388,
      "duration": 0.0161,
      "velocity": 98,
      "chip": "ym2612"
    },
    {
      "channel": 0,
      "note": 39,
      "start": 66.7484,
      "duration": 0.0161,
      "velocity": 115,
      "chip": "ym2612"
    },
    {
      "channel": 5,
      "note": 78,
      "start": 66.7497,
      "duration": 0.0161,
      "velocity": 98,
      "chip": "ym2612"
    },
    {
      "channel": 4,
      "note": 85,
      "start": 66.751,
      "duration": 0.0159,
      "velocity": 86,
      "chip": "ym2612"
    },
    {
      "channel": 3,
      "note": 85,
      "start": 66.7526,
      "duration": 0.0161,
      "velocity": 86,
      "chip": "ym2612"
    },
    {
      "channel": 2,
      "note": 54,
      "start": 66.7538,
      "duration": 0.0161,
      "velocity": 93,
      "chip": "ym2612"
    },
    {
      "channel": 1,
      "note": 78,
      "start": 66.7549,
      "duration": 0.0161,
      "velocity": 98,
      "chip": "ym2612"
    },
    {
      "channel": 0,
      "note": 39,
      "start": 66.7645,
      "duration": 0.0161,
      "velocity": 115,
      "chip": "ym2612"
    },
    {
      "channel": 5,
      "note": 78,
      "start": 66.7657,
      "duration": 0.0161,
      "velocity": 98,
      "chip": "ym2612"
    },
    {
      "channel": 4,
      "note": 85,
      "start": 66.7669,
      "duration": 0.0161,
      "velocity": 86,
      "chip": "ym2612"
    },
    {
      "channel": 3,
      "note": 85,
      "start": 66.7687,
      "duration": 0.0157,
      "velocity": 86,
      "chip": "ym2612"
    },
    {
      "channel": 2,
      "note": 54,
      "start": 66.7699,
      "duration": 0.0161,
      "velocity": 93,
      "chip": "ym2612"
    },
    {
      "channel": 1,
      "note": 78,
      "start": 66.771,
      "duration": 0.0161,
      "velocity": 98,
      "chip": "ym2612"
    },
    {
      "channel": 0,
      "note": 40,
      "start": 66.7806,
      "duration": 0.0161,
      "velocity": 115,
      "chip": "ym2612"
    },
    {
      "channel": 5,
      "note": 78,
      "start": 66.7818,
      "duration": 0.0161,
      "velocity": 98,
      "chip": "ym2612"
    },
    {
      "channel": 4,
      "note": 85,
      "start": 66.783,
      "duration": 0.0161,
      "velocity": 86,
      "chip": "ym2612"
    },
    {
      "channel": 3,
      "note": 85,
      "start": 66.7844,
      "duration": 0.0159,
      "velocity": 86,
      "chip": "ym2612"
    },
    {
      "channel": 2,
      "note": 54,
      "start": 66.786,
      "duration": 0.0161,
      "velocity": 93,
      "chip": "ym2612"
    },
    {
      "channel": 1,
      "note": 78,
      "start": 66.7871,
      "duration": 0.0162,
      "velocity": 98,
      "chip": "ym2612"
    },
    {
      "channel": 0,
      "note": 40,
      "start": 66.7967,
      "duration": 0.0161,
      "velocity": 115,
      "chip": "ym2612"
    },
    {
      "channel": 5,
      "note": 78,
      "start": 66.7979,
      "duration": 0.0161,
      "velocity": 98,
      "chip": "ym2612"
    },
    {
      "channel": 4,
      "note": 85,
      "start": 66.7991,
      "duration": 0.0161,
      "velocity": 86,
      "chip": "ym2612"
    },
    {
      "channel": 3,
      "note": 85,
      "start": 66.8003,
      "duration": 0.0161,
      "velocity": 86,
      "chip": "ym2612"
    },
    {
      "channel": 2,
      "note": 54,
      "start": 66.8021,
      "duration": 0.016,
      "velocity": 93,
      "chip": "ym2612"
    },
    {
      "channel": 1,
      "note": 78,
      "start": 66.8033,
      "duration": 0.0161,
      "velocity": 98,
      "chip": "ym2612"
    },
    {
      "channel": 0,
      "note": 40,
      "start": 66.8129,
      "duration": 0.0161,
      "velocity": 115,
      "chip": "ym2612"
    },
    {
      "channel": 5,
      "note": 78,
      "start": 66.814,
      "duration": 0.0161,
      "velocity": 98,
      "chip": "ym2612"
    },
    {
      "channel": 4,
      "note": 85,
      "start": 66.8152,
      "duration": 0.0162,
      "velocity": 86,
      "chip": "ym2612"
    },
    {
      "channel": 3,
      "note": 85,
      "start": 66.8164,
      "duration": 0.0161,
      "velocity": 86,
      "chip": "ym2612"
    },
    {
      "channel": 2,
      "note": 54,
      "start": 66.8182,
      "duration": 0.0156,
      "velocity": 93,
      "chip": "ym2612"
    },
    {
      "channel": 1,
      "note": 78,
      "start": 66.8194,
      "duration": 0.0161,
      "velocity": 98,
      "chip": "ym2612"
    },
    {
      "channel": 0,
      "note": 41,
      "start": 66.829,
      "duration": 0.0179,
      "velocity": 115,
      "chip": "ym2612"
    },
    {
      "channel": 5,
      "note": 78,
      "start": 66.8301,
      "duration": 0.018,
      "velocity": 98,
      "chip": "ym2612"
    },
    {
      "channel": 4,
      "note": 85,
      "start": 66.8313,
      "duration": 0.0179,
      "velocity": 86,
      "chip": "ym2612"
    },
    {
      "channel": 2,
      "note": 54,
      "start": 66.8337,
      "duration": 0.0188,
      "velocity": 93,
      "chip": "ym2612"
    },
    {
      "channel": 1,
      "note": 78,
      "start": 66.8355,
      "duration": 0.0182,
      "velocity": 98,
      "chip": "ym2612"
    },
    {
      "channel": 0,
      "note": 36,
      "start": 66.8469,
      "duration": 0.0143,
      "velocity": 115,
      "chip": "ym2612"
    },
    {
      "channel": 5,
      "note": 78,
      "start": 66.8481,
      "duration": 0.0143,
      "velocity": 98,
      "chip": "ym2612"
    },
    {
      "channel": 4,
      "note": 85,
      "start": 66.8493,
      "duration": 0.0143,
      "velocity": 86,
      "chip": "ym2612"
    },
    {
      "channel": 3,
      "note": 76,
      "start": 66.851,
      "duration": 0.0138,
      "velocity": 86,
      "chip": "ym2612"
    },
    {
      "channel": 2,
      "note": 54,
      "start": 66.8525,
      "duration": 0.0135,
      "velocity": 93,
      "chip": "ym2612"
    },
    {
      "channel": 1,
      "note": 78,
      "start": 66.8537,
      "duration": 0.0135,
      "velocity": 98,
      "chip": "ym2612"
    },
    {
      "channel": 0,
      "note": 36,
      "start": 66.8612,
      "duration": 0.016,
      "velocity": 115,
      "chip": "ym2612"
    },
    {
      "channel": 5,
      "note": 78,
      "start": 66.8624,
      "duration": 0.0161,
      "velocity": 98,
      "chip": "ym2612"
    },
    {
      "channel": 4,
      "note": 85,
      "start": 66.8636,
      "duration": 0.016,
      "velocity": 86,
      "chip": "ym2612"
    },
    {
      "channel": 3,
      "note": 76,
      "start": 66.8648,
      "duration": 0.016,
      "velocity": 86,
      "chip": "ym2612"
    },
    {
      "channel": 2,
      "note": 54,
      "start": 66.866,
      "duration": 0.016,
      "velocity": 93,
      "chip": "ym2612"
    },
    {
      "channel": 1,
      "note": 78,
      "start": 66.8671,
      "duration": 0.016,
      "velocity": 98,
      "chip": "ym2612"
    },
    {
      "channel": 0,
      "note": 37,
      "start": 66.8773,
      "duration": 0.0161,
      "velocity": 115,
      "chip": "ym2612"
    },
    {
      "channel": 5,
      "note": 78,
      "start": 66.8785,
      "duration": 0.0161,
      "velocity": 98,
      "chip": "ym2612"
    },
    {
      "channel": 3,
      "note": 76,
      "start": 66.8808,
      "duration": 0.0164,
      "velocity": 86,
      "chip": "ym2612"
    },
    {
      "channel": 2,
      "note": 54,
      "start": 66.882,
      "duration": 0.0164,
      "velocity": 93,
      "chip": "ym2612"
    },
    {
      "channel": 1,
      "note": 78,
      "start": 66.8832,
      "duration": 0.0163,
      "velocity": 98,
      "chip": "ym2612"
    },
    {
      "channel": 0,
      "note": 37,
      "start": 66.8934,
      "duration": 0.0161,
      "velocity": 115,
      "chip": "ym2612"
    },
    {
      "channel": 5,
      "note": 78,
      "start": 66.8946,
      "duration": 0.0161,
      "velocity": 98,
      "chip": "ym2612"
    },
    {
      "channel": 4,
      "note": 76,
      "start": 66.896,
      "duration": 0.0158,
      "velocity": 86,
      "chip": "ym2612"
    },
    {
      "channel": 3,
      "note": 76,
      "start": 66.8972,
      "duration": 0.0159,
      "velocity": 86,
      "chip": "ym2612"
    },
    {
      "channel": 2,
      "note": 54,
      "start": 66.8984,
      "duration": 0.0159,
      "velocity": 93,
      "chip": "ym2612"
    },
    {
      "channel": 1,
      "note": 78,
      "start": 66.8995,
      "duration": 0.0159,
      "velocity": 98,
      "chip": "ym2612"
    },
    {
      "channel": 0,
      "note": 38,
      "start": 66.9095,
      "duration": 0.0161,
      "velocity": 115,
      "chip": "ym2612"
    },
    {
      "channel": 5,
      "note": 78,
      "start": 66.9107,
      "duration": 0.0161,
      "velocity": 98,
      "chip": "ym2612"
    },
    {
      "channel": 4,
      "note": 76,
      "start": 66.9119,
      "duration": 0.016,
      "velocity": 86,
      "chip": "ym2612"
    },
    {
      "channel": 3,
      "note": 76,
      "start": 66.9131,
      "duration": 0.016,
      "velocity": 86,
      "chip": "ym2612"
    },
    {
      "channel": 2,
      "note": 54,
      "start": 66.9143,
      "duration": 0.016,
      "velocity": 93,
      "chip": "ym2612"
    },
    {
      "channel": 1,
      "note": 78,
      "start": 66.9154,
      "duration": 0.0161,
      "velocity": 98,
      "chip": "ym2612"
    },
    {
      "channel": 0,
      "note": 38,
      "start": 66.9255,
      "duration": 0.018,
      "velocity": 124,
      "chip": "ym2612"
    },
    {
      "channel": 5,
      "note": 78,
      "start": 66.9268,
      "duration": 0.0179,
      "velocity": 98,
      "chip": "ym2612"
    },
    {
      "channel": 4,
      "note": 76,
      "start": 66.9279,
      "duration": 0.0179,
      "velocity": 86,
      "chip": "ym2612"
    },
    {
      "channel": 2,
      "note": 54,
      "start": 66.9303,
      "duration": 0.0184,
      "velocity": 93,
      "chip": "ym2612"
    },
    {
      "channel": 0,
      "note": 84,
      "start": 66.9435,
      "duration": 0.0143,
      "velocity": 124,
      "chip": "ym2612"
    },
    {
      "channel": 5,
      "note": 78,
      "start": 66.9447,
      "duration": 0.0143,
      "velocity": 98,
      "chip": "ym2612"
    },
    {
      "channel": 4,
      "note": 76,
      "start": 66.9458,
      "duration": 0.0143,
      "velocity": 86,
      "chip": "ym2612"
    },
    {
      "channel": 3,
      "note": 81,
      "start": 66.9474,
      "duration": 0.0141,
      "velocity": 86,
      "chip": "ym2612"
    },
    {
      "channel": 2,
      "note": 54,
      "start": 66.9488,
      "duration": 0.0139,
      "velocity": 93,
      "chip": "ym2612"
    },
    {
      "channel": 1,
      "note": 76,
      "start": 66.9502,
      "duration": 0.0136,
      "velocity": 98,
      "chip": "ym2612"
    },
    {
      "channel": 0,
      "note": 82,
      "start": 66.9579,
      "duration": 0.016,
      "velocity": 124,
      "chip": "ym2612"
    },
    {
      "channel": 5,
      "note": 78,
      "start": 66.959,
      "duration": 0.016,
      "velocity": 98,
      "chip": "ym2612"
    },
    {
      "channel": 4,
      "note": 76,
      "start": 66.9602,
      "duration": 0.0161,
      "velocity": 86,
      "chip": "ym2612"
    },
    {
      "channel": 3,
      "note": 81,
      "start": 66.9614,
      "duration": 0.016,
      "velocity": 86,
      "chip": "ym2612"
    },
    {
      "channel": 2,
      "note": 54,
      "start": 66.9626,
      "duration": 0.016,
      "velocity": 93,
      "chip": "ym2612"
    },
    {
      "channel": 1,
      "note": 76,
      "start": 66.9638,
      "duration": 0.0159,
      "velocity": 98,
      "chip": "ym2612"
    },
    {
      "channel": 0,
      "note": 80,
      "start": 66.9739,
      "duration": 0.0161,
      "velocity": 124,
      "chip": "ym2612"
    },
    {
      "channel": 5,
      "note": 78,
      "start": 66.975,
      "duration": 0.0161,
      "velocity": 98,
      "chip": "ym2612"
    },
    {
      "channel": 3,
      "note": 81,
      "start": 66.9774,
      "duration": 0.0164,
      "velocity": 86,
      "chip": "ym2612"
    },
    {
      "channel": 2,
      "note": 54,
      "start": 66.9786,
      "duration": 0.0163,
      "velocity": 93,
      "chip": "ym2612"
    },
    {
      "channel": 1,
      "note": 76,
      "start": 66.9798,
      "duration": 0.0163,
      "velocity": 98,
      "chip": "ym2612"
    },
    {
      "channel": 0,
      "note": 77,
      "start": 66.99,
      "duration": 0.0161,
      "velocity": 124,
      "chip": "ym2612"
    },
    {
      "channel": 5,
      "note": 78,
      "start": 66.9911,
      "duration": 0.0161,
      "velocity": 98,
      "chip": "ym2612"
    },
    {
      "channel": 4,
      "note": 81,
      "start": 66.9926,
      "duration": 0.0159,
      "velocity": 86,
      "chip": "ym2612"
    },
    {
      "channel": 3,
      "note": 81,
      "start": 66.9938,
      "duration": 0.0158,
      "velocity": 86,
      "chip": "ym2612"
    },
    {
      "channel": 2,
      "note": 54,
      "start": 66.9949,
      "duration": 0.0159,
      "velocity": 93,
      "chip": "ym2612"
    },
    {
      "channel": 1,
      "note": 76,
      "start": 66.9961,
      "duration": 0.0159,
      "velocity": 98,
      "chip": "ym2612"
    },
    {
      "channel": 0,
      "note": 75,
      "start": 67.0061,
      "duration": 0.0161,
      "velocity": 124,
      "chip": "ym2612"
    },
    {
      "channel": 5,
      "note": 78,
      "start": 67.0072,
      "duration": 0.0161,
      "velocity": 98,
      "chip": "ym2612"
    },
    {
      "channel": 4,
      "note": 81,
      "start": 67.0085,
      "duration": 0.016,
      "velocity": 86,
      "chip": "ym2612"
    },
    {
      "channel": 3,
      "note": 81,
      "start": 67.0096,
      "duration": 0.016,
      "velocity": 86,
      "chip": "ym2612"
    },
    {
      "channel": 2,
      "note": 54,
      "start": 67.0108,
      "duration": 0.0161,
      "velocity": 93,
      "chip": "ym2612"
    },
    {
      "channel": 1,
      "note": 76,
      "start": 67.012,
      "duration": 0.016,
      "velocity": 98,
      "chip": "ym2612"
    },
    {
      "channel": 0,
      "note": 72,
      "start": 67.0222,
      "duration": 0.0161,
      "velocity": 124,
      "chip": "ym2612"
    },
    {
      "channel": 5,
      "note": 78,
      "start": 67.0234,
      "duration": 0.0161,
      "velocity": 98,
      "chip": "ym2612"
    },
    {
      "channel": 4,
      "note": 81,
      "start": 67.0245,
      "duration": 0.0161,
      "velocity": 86,
      "chip": "ym2612"
    },
    {
      "channel": 3,
      "note": 81,
      "start": 67.0257,
      "duration": 0.0162,
      "velocity": 86,
      "chip": "ym2612"
    },
    {
      "channel": 2,
      "note": 54,
      "start": 67.0269,
      "duration": 0.0161,
      "velocity": 93,
      "chip": "ym2612"
    },
    {
      "channel": 1,
      "note": 76,
      "start": 67.028,
      "duration": 0.0161,
      "velocity": 98,
      "chip": "ym2612"
    },
    {
      "channel": 0,
      "note": 70,
      "start": 67.0383,
      "duration": 0.0161,
      "velocity": 124,
      "chip": "ym2612"
    },
    {
      "channel": 5,
      "note": 78,
      "start": 67.0395,
      "duration": 0.0161,
      "velocity": 98,
      "chip": "ym2612"
    },
    {
      "channel": 4,
      "note": 81,
      "start": 67.0406,
      "duration": 0.0162,
      "velocity": 86,
      "chip": "ym2612"
    },
    {
      "channel": 3,
      "note": 81,
      "start": 67.0418,
      "duration": 0.0161,
      "velocity": 86,
      "chip": "ym2612"
    },
    {
      "channel": 2,
      "note": 54,
      "start": 67.043,
      "duration": 0.0162,
      "velocity": 93,
      "chip": "ym2612"
    },
    {
      "channel": 1,
      "note": 76,
      "start": 67.0441,
      "duration": 0.0161,
      "velocity": 98,
      "chip": "ym2612"
    },
    {
      "channel": 0,
      "note": 68,
      "start": 67.0544,
      "duration": 0.0161,
      "velocity": 124,
      "chip": "ym2612"
    },
    {
      "channel": 5,
      "note": 78,
      "start": 67.0556,
      "duration": 0.0161,
      "velocity": 98,
      "chip": "ym2612"
    },
    {
      "channel": 4,
      "note": 81,
      "start": 67.0568,
      "duration": 0.0161,
      "velocity": 86,
      "chip": "ym2612"
    },
    {
      "channel": 3,
      "note": 81,
      "start": 67.058,
      "duration": 0.0161,
      "velocity": 86,
      "chip": "ym2612"
    },
    {
      "channel": 2,
      "note": 54,
      "start": 67.0591,
      "duration": 0.0161,
      "velocity": 93,
      "chip": "ym2612"
    },
    {
      "channel": 1,
      "note": 76,
      "start": 67.0603,
      "duration": 0.0161,
      "velocity": 98,
      "chip": "ym2612"
    },
    {
      "channel": 0,
      "note": 65,
      "start": 67.0705,
      "duration": 0.0163,
      "velocity": 124,
      "chip": "ym2612"
    },
    {
      "channel": 5,
      "note": 78,
      "start": 67.0717,
      "duration": 0.0163,
      "velocity": 98,
      "chip": "ym2612"
    },
    {
      "channel": 4,
      "note": 81,
      "start": 67.0729,
      "duration": 0.0163,
      "velocity": 86,
      "chip": "ym2612"
    },
    {
      "channel": 3,
      "note": 81,
      "start": 67.0741,
      "duration": 0.0163,
      "velocity": 86,
      "chip": "ym2612"
    },
    {
      "channel": 2,
      "note": 54,
      "start": 67.0752,
      "duration": 0.0164,
      "velocity": 93,
      "chip": "ym2612"
    },
    {
      "channel": 1,
      "note": 76,
      "start": 67.0764,
      "duration": 0.0164,
      "velocity": 98,
      "chip": "ym2612"
    },
    {
      "channel": 0,
      "note": 63,
      "start": 67.0869,
      "duration": 0.0155,
      "velocity": 1,
      "chip": "ym2612"
    },
    {
      "channel": 5,
      "note": 78,
      "start": 67.088,
      "duration": 0.0155,
      "velocity": 98,
      "chip": "ym2612"
    },
    {
      "channel": 4,
      "note": 81,
      "start": 67.0892,
      "duration": 0.0155,
      "velocity": 86,
      "chip": "ym2612"
    },
    {
      "channel": 3,
      "note": 81,
      "start": 67.0904,
      "duration": 0.0155,
      "velocity": 86,
      "chip": "ym2612"
    },
    {
      "channel": 2,
      "note": 54,
      "start": 67.0916,
      "duration": 0.0155,
      "velocity": 93,
      "chip": "ym2612"
    },
    {
      "channel": 1,
      "note": 76,
      "start": 67.0928,
      "duration": 0.0155,
      "velocity": 98,
      "chip": "ym2612"
    },
    {
      "channel": 5,
      "note": 78,
      "start": 67.1035,
      "duration": 0.0153,
      "velocity": 98,
      "chip": "ym2612"
    },
    {
      "channel": 4,
      "note": 81,
      "start": 67.1047,
      "duration": 0.0154,
      "velocity": 86,
      "chip": "ym2612"
    },
    {
      "channel": 3,
      "note": 81,
      "start": 67.1059,
      "duration": 0.0153,
      "velocity": 86,
      "chip": "ym2612"
    },
    {
      "channel": 2,
      "note": 54,
      "start": 67.1071,
      "duration": 0.0154,
      "velocity": 93,
      "chip": "ym2612"
    },
    {
      "channel": 1,
      "note": 76,
      "start": 67.1083,
      "duration": 0.0153,
      "velocity": 98,
      "chip": "ym2612"
    },
    {
      "channel": 5,
      "note": 78,
      "start": 67.1189,
      "duration": 0.016,
      "velocity": 98,
      "chip": "ym2612"
    },
    {
      "channel": 4,
      "note": 81,
      "start": 67.1201,
      "duration": 0.0161,
      "velocity": 86,
      "chip": "ym2612"
    },
    {
      "channel": 2,
      "note": 54,
      "start": 67.1225,
      "duration": 0.0163,
      "velocity": 93,
      "chip": "ym2612"
    },
    {
      "channel": 5,
      "note": 78,
      "start": 67.1349,
      "duration": 0.0156,
      "velocity": 98,
      "chip": "ym2612"
    },
    {
      "channel": 4,
      "note": 81,
      "start": 67.1362,
      "duration": 0.0161,
      "velocity": 86,
      "chip": "ym2612"
    },
    {
      "channel": 3,
      "note": 85,
      "start": 67.1377,
      "duration": 0.0158,
      "velocity": 86,
      "chip": "ym2612"
    },
    {
      "channel": 2,
      "note": 54,
      "start": 67.1388,
      "duration": 0.0158,
      "velocity": 93,
      "chip": "ym2612"
    },
    {
      "channel": 1,
      "note": 78,
      "start": 67.1403,
      "duration": 0.0155,
      "velocity": 98,
      "chip": "ym2612"
    },
    {
      "channel": 5,
      "note": 78,
      "start": 67.1505,
      "duration": 0.0161,
      "velocity": 98,
      "chip": "ym2612"
    },
    {
      "channel": 4,
      "note": 81,
      "start": 67.1523,
      "duration": 0.016,
      "velocity": 86,
      "chip": "ym2612"
    },
    {
      "channel": 3,
      "note": 85,
      "start": 67.1535,
      "duration": 0.0161,
      "velocity": 86,
      "chip": "ym2612"
    },
    {
      "channel": 2,
      "note": 54,
      "start": 67.1546,
      "duration": 0.0161,
      "velocity": 93,
      "chip": "ym2612"
    },
    {
      "channel": 1,
      "note": 78,
      "start": 67.1558,
      "duration": 0.016,
      "velocity": 98,
      "chip": "ym2612"
    },
    {
      "channel": 5,
      "note": 78,
      "start": 67.1666,
      "duration": 0.0161,
      "velocity": 98,
      "chip": "ym2612"
    },
    {
      "channel": 3,
      "note": 85,
      "start": 67.1696,
      "duration": 0.0165,
      "velocity": 86,
      "chip": "ym2612"
    },
    {
      "channel": 2,
      "note": 54,
      "start": 67.1707,
      "duration": 0.0165,
      "velocity": 93,
      "chip": "ym2612"
    },
    {
      "channel": 1,
      "note": 78,
      "start": 67.1719,
      "duration": 0.0165,
      "velocity": 98,
      "chip": "ym2612"
    },
    {
      "channel": 5,
      "note": 78,
      "start": 67.1827,
      "duration": 0.0161,
      "velocity": 98,
      "chip": "ym2612"
    },
    {
      "channel": 4,
      "note": 85,
      "start": 67.1848,
      "duration": 0.0151,
      "velocity": 86,
      "chip": "ym2612"
    },
    {
      "channel": 3,
      "note": 85,
      "start": 67.186,
      "duration": 0.0156,
      "velocity": 86,
      "chip": "ym2612"
    },
    {
      "channel": 2,
      "note": 54,
      "start": 67.1872,
      "duration": 0.0158,
      "velocity": 93,
      "chip": "ym2612"
    },
    {
      "channel": 1,
      "note": 78,
      "start": 67.1884,
      "duration": 0.0158,
      "velocity": 98,
      "chip": "ym2612"
    },
    {
      "channel": 5,
      "note": 78,
      "start": 67.1988,
      "duration": 0.0161,
      "velocity": 98,
      "chip": "ym2612"
    },
    {
      "channel": 4,
      "note": 85,
      "start": 67.2,
      "duration": 0.0161,
      "velocity": 86,
      "chip": "ym2612"
    },
    {
      "channel": 3,
      "note": 85,
      "start": 67.2017,
      "duration": 0.0155,
      "velocity": 86,
      "chip": "ym2612"
    },
    {
      "channel": 2,
      "note": 54,
      "start": 67.203,
      "duration": 0.016,
      "velocity": 93,
      "chip": "ym2612"
    },
    {
      "channel": 1,
      "note": 78,
      "start": 67.2042,
      "duration": 0.016,
      "velocity": 98,
      "chip": "ym2612"
    },
    {
      "channel": 5,
      "note": 78,
      "start": 67.2149,
      "duration": 0.0202,
      "velocity": 98,
      "chip": "ym2612"
    },
    {
      "channel": 4,
      "note": 85,
      "start": 67.2161,
      "duration": 0.0202,
      "velocity": 86,
      "chip": "ym2612"
    },
    {
      "channel": 3,
      "note": 85,
      "start": 67.2172,
      "duration": 0.0202,
      "velocity": 86,
      "chip": "ym2612"
    },
    {
      "channel": 2,
      "note": 54,
      "start": 67.219,
      "duration": 0.0199,
      "velocity": 93,
      "chip": "ym2612"
    },
    {
      "channel": 1,
      "note": 78,
      "start": 67.2202,
      "duration": 0.0199,
      "velocity": 98,
      "chip": "ym2612"
    },
    {
      "channel": 0,
      "note": 36,
      "start": 67.2334,
      "duration": 0.0143,
      "velocity": 115,
      "chip": "ym2612"
    },
    {
      "channel": 5,
      "note": 78,
      "start": 67.235,
      "duration": 0.0138,
      "velocity": 98,
      "chip": "ym2612"
    },
    {
      "channel": 4,
      "note": 85,
      "start": 67.2363,
      "duration": 0.0137,
      "velocity": 86,
      "chip": "ym2612"
    },
    {
      "channel": 3,
      "note": 85,
      "start": 67.2374,
      "duration": 0.0143,
      "velocity": 86,
      "chip": "ym2612"
    },
    {
      "channel": 2,
      "note": 59,
      "start": 67.239,
      "duration": 0.0141,
      "velocity": 93,
      "chip": "ym2612"
    },
    {
      "channel": 1,
      "note": 78,
      "start": 67.2401,
      "duration": 0.0141,
      "velocity": 98,
      "chip": "ym2612"
    },
    {
      "channel": 0,
      "note": 36,
      "start": 67.2477,
      "duration": 0.016,
      "velocity": 115,
      "chip": "ym2612"
    },
    {
      "channel": 4,
      "note": 85,
      "start": 67.25,
      "duration": 0.0163,
      "velocity": 86,
      "chip": "ym2612"
    },
    {
      "channel": 3,
      "note": 85,
      "start": 67.2517,
      "duration": 0.016,
      "velocity": 86,
      "chip": "ym2612"
    },
    {
      "channel": 2,
      "note": 59,
      "start": 67.253,
      "duration": 0.0163,
      "velocity": 93,
      "chip": "ym2612"
    },
    {
      "channel": 1,
      "note": 78,
      "start": 67.2542,
      "duration": 0.0163,
      "velocity": 98,
      "chip": "ym2612"
    },
    {
      "channel": 0,
      "note": 37,
      "start": 67.2637,
      "duration": 0.0161,
      "velocity": 115,
      "chip": "ym2612"
    },
    {
      "channel": 5,
      "note": 76,
      "start": 67.2652,
      "duration": 0.0159,
      "velocity": 98,
      "chip": "ym2612"
    },
    {
      "channel": 4,
      "note": 85,
      "start": 67.2663,
      "duration": 0.0159,
      "velocity": 86,
      "chip": "ym2612"
    },
    {
      "channel": 3,
      "note": 85,
      "start": 67.2677,
      "duration": 0.0157,
      "velocity": 86,
      "chip": "ym2612"
    },
    {
      "channel": 2,
      "note": 59,
      "start": 67.2693,
      "duration": 0.0158,
      "velocity": 93,
      "chip": "ym2612"
    },
    {
      "channel": 1,
      "note": 78,
      "start": 67.2705,
      "duration": 0.0159,
      "velocity": 98,
      "chip": "ym2612"
    },
    {
      "channel": 0,
      "note": 37,
      "start": 67.2798,
      "duration": 0.0161,
      "velocity": 115,
      "chip": "ym2612"
    },
    {
      "channel": 5,
      "note": 76,
      "start": 67.281,
      "duration": 0.016,
      "velocity": 98,
      "chip": "ym2612"
    },
    {
      "channel": 4,
      "note": 85,
      "start": 67.2822,
      "duration": 0.016,
      "velocity": 86,
      "chip": "ym2612"
    },
    {
      "channel": 3,
      "note": 85,
      "start": 67.2834,
      "duration": 0.016,
      "velocity": 86,
      "chip": "ym2612"
    },
    {
      "channel": 2,
      "note": 59,
      "start": 67.2851,
      "duration": 0.0157,
      "velocity": 93,
      "chip": "ym2612"
    },
    {
      "channel": 1,
      "note": 78,
      "start": 67.2863,
      "duration": 0.016,
      "velocity": 98,
      "chip": "ym2612"
    },
    {
      "channel": 0,
      "note": 38,
      "start": 67.2959,
      "duration": 0.0161,
      "velocity": 115,
      "chip": "ym2612"
    },
    {
      "channel": 5,
      "note": 76,
      "start": 67.2971,
      "duration": 0.0161,
      "velocity": 98,
      "chip": "ym2612"
    },
    {
      "channel": 4,
      "note": 85,
      "start": 67.2983,
      "duration": 0.0161,
      "velocity": 86,
      "chip": "ym2612"
    },
    {
      "channel": 3,
      "note": 85,
      "start": 67.2994,
      "duration": 0.0162,
      "velocity": 86,
      "chip": "ym2612"
    },
    {
      "channel": 2,
      "note": 59,
      "start": 67.3008,
      "duration": 0.0159,
      "velocity": 93,
      "chip": "ym2612"
    },
    {
      "channel": 1,
      "note": 78,
      "start": 67.3023,
      "duration": 0.016,
      "velocity": 98,
      "chip": "ym2612"
    },
    {
      "channel": 0,
      "note": 38,
      "start": 67.312,
      "duration": 0.0161,
      "velocity": 115,
      "chip": "ym2612"
    },
    {
      "channel": 5,
      "note": 76,
      "start": 67.3131,
      "duration": 0.0162,
      "velocity": 98,
      "chip": "ym2612"
    },
    {
      "channel": 4,
      "note": 85,
      "start": 67.3144,
      "duration": 0.0161,
      "velocity": 86,
      "chip": "ym2612"
    },
    {
      "channel": 3,
      "note": 85,
      "start": 67.3156,
      "duration": 0.0161,
      "velocity": 86,
      "chip": "ym2612"
    },
    {
      "channel": 2,
      "note": 59,
      "start": 67.3167,
      "duration": 0.0161,
      "velocity": 93,
      "chip": "ym2612"
    },
    {
      "channel": 1,
      "note": 78,
      "start": 67.3183,
      "duration": 0.0159,
      "velocity": 98,
      "chip": "ym2612"
    },
    {
      "channel": 0,
      "note": 39,
      "start": 67.3281,
      "duration": 0.0161,
      "velocity": 115,
      "chip": "ym2612"
    },
    {
      "channel": 5,
      "note": 76,
      "start": 67.3293,
      "duration": 0.0161,
      "velocity": 98,
      "chip": "ym2612"
    },
    {
      "channel": 4,
      "note": 85,
      "start": 67.3304,
      "duration": 0.0161,
      "velocity": 86,
      "chip": "ym2612"
    },
    {
      "channel": 3,
      "note": 85,
      "start": 67.3317,
      "duration": 0.0161,
      "velocity": 86,
      "chip": "ym2612"
    },
    {
      "channel": 2,
      "note": 59,
      "start": 67.3328,
      "duration": 0.0161,
      "velocity": 93,
      "chip": "ym2612"
    },
    {
      "channel": 1,
      "note": 78,
      "start": 67.3342,
      "duration": 0.0159,
      "velocity": 98,
      "chip": "ym2612"
    },
    {
      "channel": 0,
      "note": 39,
      "start": 67.3442,
      "duration": 0.0161,
      "velocity": 115,
      "chip": "ym2612"
    },
    {
      "channel": 5,
      "note": 76,
      "start": 67.3454,
      "duration": 0.0161,
      "velocity": 98,
      "chip": "ym2612"
    },
    {
      "channel": 4,
      "note": 85,
      "start": 67.3465,
      "duration": 0.0161,
      "velocity": 86,
      "chip": "ym2612"
    },
    {
      "channel": 3,
      "note": 85,
      "start": 67.3478,
      "duration": 0.0161,
      "velocity": 86,
      "chip": "ym2612"
    },
    {
      "channel": 2,
      "note": 59,
      "start": 67.3489,
      "duration": 0.0161,
      "velocity": 93,
      "chip": "ym2612"
    },
    {
      "channel": 1,
      "note": 78,
      "start": 67.3501,
      "duration": 0.0161,
      "velocity": 98,
      "chip": "ym2612"
    },
    {
      "channel": 0,
      "note": 40,
      "start": 67.3603,
      "duration": 0.0161,
      "velocity": 115,
      "chip": "ym2612"
    },
    {
      "channel": 5,
      "note": 76,
      "start": 67.3615,
      "duration": 0.0161,
      "velocity": 98,
      "chip": "ym2612"
    },
    {
      "channel": 4,
      "note": 85,
      "start": 67.3626,
      "duration": 0.0161,
      "velocity": 86,
      "chip": "ym2612"
    },
    {
      "channel": 3,
      "note": 85,
      "start": 67.3638,
      "duration": 0.0161,
      "velocity": 86,
      "chip": "ym2612"
    },
    {
      "channel": 2,
      "note": 59,
      "start": 67.365,
      "duration": 0.0162,
      "velocity": 93,
      "chip": "ym2612"
    },
    {
      "channel": 1,
      "note": 78,
      "start": 67.3662,
      "duration": 0.0162,
      "velocity": 98,
      "chip": "ym2612"
    },
    {
      "channel": 0,
      "note": 40,
      "start": 67.3764,
      "duration": 0.0161,
      "velocity": 115,
      "chip": "ym2612"
    },
    {
      "channel": 5,
      "note": 76,
      "start": 67.3776,
      "duration": 0.0161,
      "velocity": 98,
      "chip": "ym2612"
    },
    {
      "channel": 4,
      "note": 85,
      "start": 67.3787,
      "duration": 0.0161,
      "velocity": 86,
      "chip": "ym2612"
    },
    {
      "channel": 3,
      "note": 85,
      "start": 67.3799,
      "duration": 0.0161,
      "velocity": 86,
      "chip": "ym2612"
    },
    {
      "channel": 2,
      "note": 59,
      "start": 67.3812,
      "duration": 0.016,
      "velocity": 93,
      "chip": "ym2612"
    },
    {
      "channel": 1,
      "note": 78,
      "start": 67.3824,
      "duration": 0.0161,
      "velocity": 98,
      "chip": "ym2612"
    },
    {
      "channel": 0,
      "note": 40,
      "start": 67.3925,
      "duration": 0.0161,
      "velocity": 115,
      "chip": "ym2612"
    },
    {
      "channel": 5,
      "note": 76,
      "start": 67.3937,
      "duration": 0.0161,
      "velocity": 98,
      "chip": "ym2612"
    },
    {
      "channel": 4,
      "note": 85,
      "start": 67.3948,
      "duration": 0.0161,
      "velocity": 86,
      "chip": "ym2612"
    },
    {
      "channel": 3,
      "note": 85,
      "start": 67.396,
      "duration": 0.0161,
      "velocity": 86,
      "chip": "ym2612"
    },
    {
      "channel": 2,
      "note": 59,
      "start": 67.3972,
      "duration": 0.0162,
      "velocity": 93,
      "chip": "ym2612"
    },
    {
      "channel": 1,
      "note": 78,
      "start": 67.3984,
      "duration": 0.0161,
      "velocity": 98,
      "chip": "ym2612"
    },
    {
      "channel": 0,
      "note": 41,
      "start": 67.4086,
      "duration": 0.0161,
      "velocity": 115,
      "chip": "ym2612"
    },
    {
      "channel": 5,
      "note": 76,
      "start": 67.4098,
      "duration": 0.0161,
      "velocity": 98,
      "chip": "ym2612"
    },
    {
      "channel": 4,
      "note": 85,
      "start": 67.4109,
      "duration": 0.0162,
      "velocity": 86,
      "chip": "ym2612"
    },
    {
      "channel": 2,
      "note": 59,
      "start": 67.4134,
      "duration": 0.0163,
      "velocity": 93,
      "chip": "ym2612"
    },
    {
      "channel": 1,
      "note": 78,
      "start": 67.4145,
      "duration": 0.0163,
      "velocity": 98,
      "chip": "ym2612"
    },
    {
      "channel": 0,
      "note": 41,
      "start": 67.4247,
      "duration": 0.0161,
      "velocity": 115,
      "chip": "ym2612"
    },
    {
      "channel": 5,
      "note": 76,
      "start": 67.4259,
      "duration": 0.0161,
      "velocity": 98,
      "chip": "ym2612"
    },
    {
      "channel": 4,
      "note": 85,
      "start": 67.4271,
      "duration": 0.0161,
      "velocity": 86,
      "chip": "ym2612"
    },
    {
      "channel": 3,
      "note": 78,
      "start": 67.4286,
      "duration": 0.0158,
      "velocity": 86,
      "chip": "ym2612"
    },
    {
      "channel": 2,
      "note": 59,
      "start": 67.4298,
      "duration": 0.0158,
      "velocity": 93,
      "chip": "ym2612"
    },
    {
      "channel": 1,
      "note": 78,
      "start": 67.4309,
      "duration": 0.0159,
      "velocity": 98,
      "chip": "ym2612"
    },
    {
      "channel": 0,
      "note": 42,
      "start": 67.4408,
      "duration": 0.0161,
      "velocity": 115,
      "chip": "ym2612"
    },
    {
      "channel": 4,
      "note": 85,
      "start": 67.4432,
      "duration": 0.0164,
      "velocity": 86,
      "chip": "ym2612"
    },
    {
      "channel": 3,
      "note": 78,
      "start": 67.4444,
      "duration": 0.0163,
      "velocity": 86,
      "chip": "ym2612"
    },
    {
      "channel": 2,
      "note": 59,
      "start": 67.4456,
      "duration": 0.0163,
      "velocity": 93,
      "chip": "ym2612"
    },
    {
      "channel": 1,
      "note": 78,
      "start": 67.4467,
      "duration": 0.0163,
      "velocity": 98,
      "chip": "ym2612"
    },
    {
      "channel": 0,
      "note": 42,
      "start": 67.4569,
      "duration": 0.0161,
      "velocity": 115,
      "chip": "ym2612"
    },
    {
      "channel": 5,
      "note": 78,
      "start": 67.4584,
      "duration": 0.0159,
      "velocity": 98,
      "chip": "ym2612"
    },
    {
      "channel": 3,
      "note": 78,
      "start": 67.4607,
      "duration": 0.0162,
      "velocity": 86,
      "chip": "ym2612"
    },
    {
      "channel": 2,
      "note": 59,
      "start": 67.4619,
      "duration": 0.0162,
      "velocity": 93,
      "chip": "ym2612"
    },
    {
      "channel": 1,
      "note": 78,
      "start": 67.4631,
      "duration": 0.0161,
      "velocity": 98,
      "chip": "ym2612"
    },
    {
      "channel": 0,
      "note": 43,
      "start": 67.473,
      "duration": 0.0161,
      "velocity": 115,
      "chip": "ym2612"
    },
    {
      "channel": 5,
      "note": 78,
      "start": 67.4743,
      "duration": 0.016,
      "velocity": 98,
      "chip": "ym2612"
    },
    {
      "channel": 4,
      "note": 78,
      "start": 67.4757,
      "duration": 0.0158,
      "velocity": 86,
      "chip": "ym2612"
    },
    {
      "channel": 3,
      "note": 78,
      "start": 67.4769,
      "duration": 0.0158,
      "velocity": 86,
      "chip": "ym2612"
    },
    {
      "channel": 2,
      "note": 59,
      "start": 67.4781,
      "duration": 0.0158,
      "velocity": 93,
      "chip": "ym2612"
    },
    {
      "channel": 1,
      "note": 78,
      "start": 67.4792,
      "duration": 0.0159,
      "velocity": 98,
      "chip": "ym2612"
    },
    {
      "channel": 0,
      "note": 43,
      "start": 67.4891,
      "duration": 0.0161,
      "velocity": 115,
      "chip": "ym2612"
    },
    {
      "channel": 5,
      "note": 78,
      "start": 67.4903,
      "duration": 0.0161,
      "velocity": 98,
      "chip": "ym2612"
    },
    {
      "channel": 4,
      "note": 78,
      "start": 67.4915,
      "duration": 0.016,
      "velocity": 86,
      "chip": "ym2612"
    },
    {
      "channel": 3,
      "note": 78,
      "start": 67.4927,
      "duration": 0.016,
      "velocity": 86,
      "chip": "ym2612"
    },
    {
      "channel": 2,
      "note": 59,
      "start": 67.4939,
      "duration": 0.016,
      "velocity": 93,
      "chip": "ym2612"
    },
    {
      "channel": 1,
      "note": 78,
      "start": 67.4951,
      "duration": 0.0161,
      "velocity": 98,
      "chip": "ym2612"
    },
    {
      "channel": 0,
      "note": 44,
      "start": 67.5052,
      "duration": 0.0179,
      "velocity": 124,
      "chip": "ym2612"
    },
    {
      "channel": 5,
      "note": 78,
      "start": 67.5064,
      "duration": 0.0179,
      "velocity": 98,
      "chip": "ym2612"
    },
    {
      "channel": 4,
      "note": 78,
      "start": 67.5076,
      "duration": 0.0179,
      "velocity": 86,
      "chip": "ym2612"
    },
    {
      "channel": 2,
      "note": 59,
      "start": 67.51,
      "duration": 0.0185,
      "velocity": 93,
      "chip": "ym2612"
    },
    {
      "channel": 1,
      "note": 78,
      "start": 67.5112,
      "duration": 0.0185,
      "velocity": 98,
      "chip": "ym2612"
    },
    {
      "channel": 0,
      "note": 84,
      "start": 67.5232,
      "duration": 0.0143,
      "velocity": 124,
      "chip": "ym2612"
    },
    {
      "channel": 5,
      "note": 78,
      "start": 67.5243,
      "duration": 0.0143,
      "velocity": 98,
      "chip": "ym2612"
    },
    {
      "channel": 4,
      "note": 78,
      "start": 67.5255,
      "duration": 0.0143,
      "velocity": 86,
      "chip": "ym2612"
    },
    {
      "channel": 3,
      "note": 81,
      "start": 67.527,
      "duration": 0.0141,
      "velocity": 86,
      "chip": "ym2612"
    },
    {
      "channel": 2,
      "note": 59,
      "start": 67.5284,
      "duration": 0.0139,
      "velocity": 93,
      "chip": "ym2612"
    },
    {
      "channel": 1,
      "note": 78,
      "start": 67.5296,
      "duration": 0.0138,
      "velocity": 98,
      "chip": "ym2612"
    },
    {
      "channel": 0,
      "note": 82,
      "start": 67.5375,
      "duration": 0.0161,
      "velocity": 124,
      "chip": "ym2612"
    },
    {
      "channel": 5,
      "note": 78,
      "start": 67.5386,
      "duration": 0.0161,
      "velocity": 98,
      "chip": "ym2612"
    },
    {
      "channel": 4,
      "note": 78,
      "start": 67.5398,
      "duration": 0.0161,
      "velocity": 86,
      "chip": "ym2612"
    },
    {
      "channel": 3,
      "note": 81,
      "start": 67.5411,
      "duration": 0.016,
      "velocity": 86,
      "chip": "ym2612"
    },
    {
      "channel": 2,
      "note": 59,
      "start": 67.5423,
      "duration": 0.016,
      "velocity": 93,
      "chip": "ym2612"
    },
    {
      "channel": 1,
      "note": 78,
      "start": 67.5434,
      "duration": 0.016,
      "velocity": 98,
      "chip": "ym2612"
    },
    {
      "channel": 0,
      "note": 80,
      "start": 67.5536,
      "duration": 0.0164,
      "velocity": 124,
      "chip": "ym2612"
    },
    {
      "channel": 5,
      "note": 78,
      "start": 67.5547,
      "duration": 0.0164,
      "velocity": 98,
      "chip": "ym2612"
    },
    {
      "channel": 3,
      "note": 81,
      "start": 67.5571,
      "duration": 0.0167,
      "velocity": 86,
      "chip": "ym2612"
    },
    {
      "channel": 2,
      "note": 59,
      "start": 67.5582,
      "duration": 0.0167,
      "velocity": 93,
      "chip": "ym2612"
    },
    {
      "channel": 1,
      "note": 78,
      "start": 67.5595,
      "duration": 0.0167,
      "velocity": 98,
      "chip": "ym2612"
    },
    {
      "channel": 0,
      "note": 77,
      "start": 67.57,
      "duration": 0.0163,
      "velocity": 124,
      "chip": "ym2612"
    },
    {
      "channel": 5,
      "note": 78,
      "start": 67.5712,
      "duration": 0.0163,
      "velocity": 98,
      "chip": "ym2612"
    },
    {
      "channel": 4,
      "note": 81,
      "start": 67.5726,
      "duration": 0.0161,
      "velocity": 86,
      "chip": "ym2612"
    },
    {
      "channel": 3,
      "note": 81,
      "start": 67.5738,
      "duration": 0.016,
      "velocity": 86,
      "chip": "ym2612"
    },
    {
      "channel": 2,
      "note": 59,
      "start": 67.575,
      "duration": 0.016,
      "velocity": 93,
      "chip": "ym2612"
    },
    {
      "channel": 1,
      "note": 78,
      "start": 67.5761,
      "duration": 0.0161,
      "velocity": 98,
      "chip": "ym2612"
    },
    {
      "channel": 0,
      "note": 75,
      "start": 67.5863,
      "duration": 0.0161,
      "velocity": 124,
      "chip": "ym2612"
    },
    {
      "channel": 5,
      "note": 78,
      "start": 67.5874,
      "duration": 0.0162,
      "velocity": 98,
      "chip": "ym2612"
    },
    {
      "channel": 4,
      "note": 81,
      "start": 67.5887,
      "duration": 0.016,
      "velocity": 86,
      "chip": "ym2612"
    },
    {
      "channel": 3,
      "note": 81,
      "start": 67.5899,
      "duration": 0.016,
      "velocity": 86,
      "chip": "ym2612"
    },
    {
      "channel": 2,
      "note": 59,
      "start": 67.591,
      "duration": 0.0161,
      "velocity": 93,
      "chip": "ym2612"
    },
    {
      "channel": 1,
      "note": 78,
      "start": 67.5922,
      "duration": 0.016,
      "velocity": 98,
      "chip": "ym2612"
    },
    {
      "channel": 0,
      "note": 72,
      "start": 67.6024,
      "duration": 0.0161,
      "velocity": 124,
      "chip": "ym2612"
    },
    {
      "channel": 5,
      "note": 78,
      "start": 67.6036,
      "duration": 0.0161,
      "velocity": 98,
      "chip": "ym2612"
    },
    {
      "channel": 4,
      "note": 81,
      "start": 67.6047,
      "duration": 0.0161,
      "velocity": 86,
      "chip": "ym2612"
    },
    {
      "channel": 3,
      "note": 81,
      "start": 67.6059,
      "duration": 0.0161,
      "velocity": 86,
      "chip": "ym2612"
    },
    {
      "channel": 2,
      "note": 59,
      "start": 67.6071,
      "duration": 0.0161,
      "velocity": 93,
      "chip": "ym2612"
    },
    {
      "channel": 1,
      "note": 78,
      "start": 67.6082,
      "duration": 0.0162,
      "velocity": 98,
      "chip": "ym2612"
    },
    {
      "channel": 0,
      "note": 70,
      "start": 67.6185,
      "duration": 0.0158,
      "velocity": 124,
      "chip": "ym2612"
    },
    {
      "channel": 5,
      "note": 78,
      "start": 67.6197,
      "duration": 0.0161,
      "velocity": 98,
      "chip": "ym2612"
    },
    {
      "channel": 4,
      "note": 81,
      "start": 67.6208,
      "duration": 0.0161,
      "velocity": 86,
      "chip": "ym2612"
    },
    {
      "channel": 3,
      "note": 81,
      "start": 67.622,
      "duration": 0.0161,
      "velocity": 86,
      "chip": "ym2612"
    },
    {
      "channel": 2,
      "note": 59,
      "start": 67.6232,
      "duration": 0.0161,
      "velocity": 93,
      "chip": "ym2612"
    },
    {
      "channel": 1,
      "note": 78,
      "start": 67.6244,
      "duration": 0.0161,
      "velocity": 98,
      "chip": "ym2612"
    },
    {
      "channel": 0,
      "note": 68,
      "start": 67.6343,
      "duration": 0.0158,
      "velocity": 124,
      "chip": "ym2612"
    },
    {
      "channel": 5,
      "note": 78,
      "start": 67.6358,
      "duration": 0.016,
      "velocity": 98,
      "chip": "ym2612"
    },
    {
      "channel": 4,
      "note": 81,
      "start": 67.637,
      "duration": 0.016,
      "velocity": 86,
      "chip": "ym2612"
    },
    {
      "channel": 3,
      "note": 81,
      "start": 67.6381,
      "duration": 0.0161,
      "velocity": 86,
      "chip": "ym2612"
    },
    {
      "channel": 2,
      "note": 59,
      "start": 67.6393,
      "duration": 0.016,
      "velocity": 93,
      "chip": "ym2612"
    },
    {
      "channel": 1,
      "note": 78,
      "start": 67.6405,
      "duration": 0.0161,
      "velocity": 98,
      "chip": "ym2612"
    },
    {
      "channel": 0,
      "note": 65,
      "start": 67.6501,
      "duration": 0.0161,
      "velocity": 124,
      "chip": "ym2612"
    },
    {
      "channel": 5,
      "note": 78,
      "start": 67.6518,
      "duration": 0.0158,
      "velocity": 98,
      "chip": "ym2612"
    },
    {
      "channel": 4,
      "note": 81,
      "start": 67.653,
      "duration": 0.0162,
      "velocity": 86,
      "chip": "ym2612"
    },
    {
      "channel": 3,
      "note": 81,
      "start": 67.6542,
      "duration": 0.0161,
      "velocity": 86,
      "chip": "ym2612"
    },
    {
      "channel": 2,
      "note": 59,
      "start": 67.6554,
      "duration": 0.0162,
      "velocity": 93,
      "chip": "ym2612"
    },
    {
      "channel": 1,
      "note": 78,
      "start": 67.6566,
      "duration": 0.0162,
      "velocity": 98,
      "chip": "ym2612"
    },
    {
      "channel": 0,
      "note": 63,
      "start": 67.6662,
      "duration": 0.0153,
      "velocity": 1,
      "chip": "ym2612"
    },
    {
      "channel": 5,
      "note": 78,
      "start": 67.6676,
      "duration": 0.0151,
      "velocity": 98,
      "chip": "ym2612"
    },
    {
      "channel": 4,
      "note": 81,
      "start": 67.6692,
      "duration": 0.0146,
      "velocity": 86,
      "chip": "ym2612"
    },
    {
      "channel": 3,
      "note": 81,
      "start": 67.6703,
      "duration": 0.0154,
      "velocity": 86,
      "chip": "ym2612"
    },
    {
      "channel": 2,
      "note": 59,
      "start": 67.6716,
      "duration": 0.0153,
      "velocity": 93,
      "chip": "ym2612"
    },
    {
      "channel": 1,
      "note": 78,
      "start": 67.6727,
      "duration": 0.0153,
      "velocity": 98,
      "chip": "ym2612"
    },
    {
      "channel": 5,
      "note": 78,
      "start": 67.6827,
      "duration": 0.0153,
      "velocity": 98,
      "chip": "ym2612"
    },
    {
      "channel": 4,
      "note": 81,
      "start": 67.6838,
      "duration": 0.0153,
      "velocity": 86,
      "chip": "ym2612"
    },
    {
      "channel": 3,
      "note": 81,
      "start": 67.6857,
      "duration": 0.0146,
      "velocity": 86,
      "chip": "ym2612"
    },
    {
      "channel": 2,
      "note": 59,
      "start": 67.6869,
      "duration": 0.0153,
      "velocity": 93,
      "chip": "ym2612"
    },
    {
      "channel": 1,
      "note": 78,
      "start": 67.688,
      "duration": 0.0153,
      "velocity": 98,
      "chip": "ym2612"
    },
    {
      "channel": 5,
      "note": 78,
      "start": 67.6979,
      "duration": 0.0161,
      "velocity": 98,
      "chip": "ym2612"
    },
    {
      "channel": 4,
      "note": 81,
      "start": 67.6991,
      "duration": 0.0161,
      "velocity": 86,
      "chip": "ym2612"
    },
    {
      "channel": 2,
      "note": 59,
      "start": 67.7021,
      "duration": 0.0163,
      "velocity": 93,
      "chip": "ym2612"
    },
    {
      "channel": 1,
      "note": 78,
      "start": 67.7033,
      "duration": 0.0163,
      "velocity": 98,
      "chip": "ym2612"
    },
    {
      "channel": 5,
      "note": 78,
      "start": 67.714,
      "duration": 0.0161,
      "velocity": 98,
      "chip": "ym2612"
    },
    {
      "channel": 4,
      "note": 81,
      "start": 67.7152,
      "duration": 0.0162,
      "velocity": 86,
      "chip": "ym2612"
    },
    {
      "channel": 3,
      "note": 87,
      "start": 67.7167,
      "duration": 0.0158,
      "velocity": 86,
      "chip": "ym2612"
    },
    {
      "channel": 2,
      "note": 59,
      "start": 67.7184,
      "duration": 0.0153,
      "velocity": 93,
      "chip": "ym2612"
    },
    {
      "channel": 1,
      "note": 78,
      "start": 67.7196,
      "duration": 0.0158,
      "velocity": 98,
      "chip": "ym2612"
    },
    {
      "channel": 5,
      "note": 78,
      "start": 67.7301,
      "duration": 0.0161,
      "velocity": 98,
      "chip": "ym2612"
    },
    {
      "channel": 4,
      "note": 81,
      "start": 67.7313,
      "duration": 0.0161,
      "velocity": 86,
      "chip": "ym2612"
    },
    {
      "channel": 3,
      "note": 87,
      "start": 67.7325,
      "duration": 0.016,
      "velocity": 86,
      "chip": "ym2612"
    },
    {
      "channel": 2,
      "note": 59,
      "start": 67.7337,
      "duration": 0.016,
      "velocity": 93,
      "chip": "ym2612"
    },
    {
      "channel": 1,
      "note": 78,
      "start": 67.7355,
      "duration": 0.0156,
      "velocity": 98,
      "chip": "ym2612"
    },
    {
      "channel": 5,
      "note": 78,
      "start": 67.7462,
      "duration": 0.0161,
      "velocity": 98,
      "chip": "ym2612"
    },
    {
      "channel": 3,
      "note": 87,
      "start": 67.7486,
      "duration": 0.0164,
      "velocity": 86,
      "chip": "ym2612"
    },
    {
      "channel": 2,
      "note": 59,
      "start": 67.7497,
      "duration": 0.0165,
      "velocity": 93,
      "chip": "ym2612"
    },
    {
      "channel": 1,
      "note": 78,
      "start": 67.7511,
      "duration": 0.0164,
      "velocity": 98,
      "chip": "ym2612"
    },
    {
      "channel": 5,
      "note": 78,
      "start": 67.7623,
      "duration": 0.0161,
      "velocity": 98,
      "chip": "ym2612"
    },
    {
      "channel": 4,
      "note": 87,
      "start": 67.7638,
      "duration": 0.0158,
      "velocity": 86,
      "chip": "ym2612"
    },
    {
      "channel": 3,
      "note": 87,
      "start": 67.765,
      "duration": 0.0158,
      "velocity": 86,
      "chip": "ym2612"
    },
    {
      "channel": 2,
      "note": 59,
      "start": 67.7662,
      "duration": 0.0159,
      "velocity": 93,
      "chip": "ym2612"
    },
    {
      "channel": 1,
      "note": 78,
      "start": 67.7675,
      "duration": 0.0156,
      "velocity": 98,
      "chip": "ym2612"
    },
    {
      "channel": 5,
      "note": 78,
      "start": 67.7784,
      "duration": 0.0161,
      "velocity": 98,
      "chip": "ym2612"
    },
    {
      "channel": 4,
      "note": 87,
      "start": 67.7796,
      "duration": 0.0161,
      "velocity": 86,
      "chip": "ym2612"
    },
    {
      "channel": 3,
      "note": 87,
      "start": 67.7808,
      "duration": 0.016,
      "velocity": 86,
      "chip": "ym2612"
    },
    {
      "channel": 2,
      "note": 59,
      "start": 67.782,
      "duration": 0.0161,
      "velocity": 93,
      "chip": "ym2612"
    },
    {
      "channel": 1,
      "note": 78,
      "start": 67.7832,
      "duration": 0.0161,
      "velocity": 98,
      "chip": "ym2612"
    },
    {
      "channel": 5,
      "note": 78,
      "start": 67.7945,
      "duration": 0.0197,
      "velocity": 98,
      "chip": "ym2612"
    },
    {
      "channel": 4,
      "note": 87,
      "start": 67.7957,
      "duration": 0.0196,
      "velocity": 86,
      "chip": "ym2612"
    },
    {
      "channel": 3,
      "note": 87,
      "start": 67.7968,
      "duration": 0.0197,
      "velocity": 86,
      "chip": "ym2612"
    },
    {
      "channel": 2,
      "note": 59,
      "start": 67.7981,
      "duration": 0.0203,
      "velocity": 93,
      "chip": "ym2612"
    },
    {
      "channel": 1,
      "note": 78,
      "start": 67.7993,
      "duration": 0.0204,
      "velocity": 98,
      "chip": "ym2612"
    },
    {
      "channel": 0,
      "note": 36,
      "start": 67.8129,
      "duration": 0.0143,
      "velocity": 115,
      "chip": "ym2612"
    },
    {
      "channel": 5,
      "note": 78,
      "start": 67.8141,
      "duration": 0.0143,
      "velocity": 98,
      "chip": "ym2612"
    },
    {
      "channel": 4,
      "note": 87,
      "start": 67.8153,
      "duration": 0.0143,
      "velocity": 86,
      "chip": "ym2612"
    },
    {
      "channel": 3,
      "note": 87,
      "start": 67.8165,
      "duration": 0.0143,
      "velocity": 86,
      "chip": "ym2612"
    },
    {
      "channel": 2,
      "note": 59,
      "start": 67.8185,
      "duration": 0.0136,
      "velocity": 93,
      "chip": "ym2612"
    },
    {
      "channel": 1,
      "note": 78,
      "start": 67.8197,
      "duration": 0.0135,
      "velocity": 98,
      "chip": "ym2612"
    },
    {
      "channel": 0,
      "note": 36,
      "start": 67.8273,
      "duration": 0.0161,
      "velocity": 115,
      "chip": "ym2612"
    },
    {
      "channel": 5,
      "note": 78,
      "start": 67.8285,
      "duration": 0.016,
      "velocity": 98,
      "chip": "ym2612"
    },
    {
      "channel": 4,
      "note": 87,
      "start": 67.8296,
      "duration": 0.016,
      "velocity": 86,
      "chip": "ym2612"
    },
    {
      "channel": 3,
      "note": 87,
      "start": 67.8308,
      "duration": 0.016,
      "velocity": 86,
      "chip": "ym2612"
    },
    {
      "channel": 2,
      "note": 59,
      "start": 67.832,
      "duration": 0.016,
      "velocity": 93,
      "chip": "ym2612"
    },
    {
      "channel": 1,
      "note": 78,
      "start": 67.8332,
      "duration": 0.016,
      "velocity": 98,
      "chip": "ym2612"
    },
    {
      "channel": 0,
      "note": 37,
      "start": 67.8434,
      "duration": 0.0161,
      "velocity": 115,
      "chip": "ym2612"
    },
    {
      "channel": 5,
      "note": 78,
      "start": 67.8445,
      "duration": 0.0161,
      "velocity": 98,
      "chip": "ym2612"
    },
    {
      "channel": 4,
      "note": 87,
      "start": 67.8456,
      "duration": 0.0162,
      "velocity": 86,
      "chip": "ym2612"
    },
    {
      "channel": 3,
      "note": 87,
      "start": 67.8468,
      "duration": 0.0161,
      "velocity": 86,
      "chip": "ym2612"
    },
    {
      "channel": 2,
      "note": 59,
      "start": 67.848,
      "duration": 0.0161,
      "velocity": 93,
      "chip": "ym2612"
    },
    {
      "channel": 1,
      "note": 78,
      "start": 67.8491,
      "duration": 0.0162,
      "velocity": 98,
      "chip": "ym2612"
    },
    {
      "channel": 0,
      "note": 37,
      "start": 67.8595,
      "duration": 0.0161,
      "velocity": 115,
      "chip": "ym2612"
    },
    {
      "channel": 5,
      "note": 78,
      "start": 67.8606,
      "duration": 0.0161,
      "velocity": 98,
      "chip": "ym2612"
    },
    {
      "channel": 4,
      "note": 87,
      "start": 67.8618,
      "duration": 0.0161,
      "velocity": 86,
      "chip": "ym2612"
    },
    {
      "channel": 3,
      "note": 87,
      "start": 67.8629,
      "duration": 0.0161,
      "velocity": 86,
      "chip": "ym2612"
    },
    {
      "channel": 2,
      "note": 59,
      "start": 67.8641,
      "duration": 0.0161,
      "velocity": 93,
      "chip": "ym2612"
    },
    {
      "channel": 1,
      "note": 78,
      "start": 67.8653,
      "duration": 0.0161,
      "velocity": 98,
      "chip": "ym2612"
    },
    {
      "channel": 0,
      "note": 38,
      "start": 67.8755,
      "duration": 0.0161,
      "velocity": 115,
      "chip": "ym2612"
    },
    {
      "channel": 5,
      "note": 78,
      "start": 67.8767,
      "duration": 0.0161,
      "velocity": 98,
      "chip": "ym2612"
    },
    {
      "channel": 4,
      "note": 87,
      "start": 67.8779,
      "duration": 0.0161,
      "velocity": 86,
      "chip": "ym2612"
    },
    {
      "channel": 3,
      "note": 87,
      "start": 67.879,
      "duration": 0.0161,
      "velocity": 86,
      "chip": "ym2612"
    },
    {
      "channel": 2,
      "note": 59,
      "start": 67.8802,
      "duration": 0.0161,
      "velocity": 93,
      "chip": "ym2612"
    },
    {
      "channel": 1,
      "note": 78,
      "start": 67.8814,
      "duration": 0.0161,
      "velocity": 98,
      "chip": "ym2612"
    },
    {
      "channel": 0,
      "note": 38,
      "start": 67.8916,
      "duration": 0.0161,
      "velocity": 115,
      "chip": "ym2612"
    },
    {
      "channel": 5,
      "note": 78,
      "start": 67.8928,
      "duration": 0.0161,
      "velocity": 98,
      "chip": "ym2612"
    },
    {
      "channel": 4,
      "note": 87,
      "start": 67.894,
      "duration": 0.0161,
      "velocity": 86,
      "chip": "ym2612"
    },
    {
      "channel": 3,
      "note": 87,
      "start": 67.8952,
      "duration": 0.0161,
      "velocity": 86,
      "chip": "ym2612"
    },
    {
      "channel": 2,
      "note": 59,
      "start": 67.8963,
      "duration": 0.0161,
      "velocity": 93,
      "chip": "ym2612"
    },
    {
      "channel": 1,
      "note": 78,
      "start": 67.8975,
      "duration": 0.0161,
      "velocity": 98,
      "chip": "ym2612"
    },
    {
      "channel": 0,
      "note": 39,
      "start": 67.9077,
      "duration": 0.0161,
      "velocity": 115,
      "chip": "ym2612"
    },
    {
      "channel": 5,
      "note": 78,
      "start": 67.9089,
      "duration": 0.0162,
      "velocity": 98,
      "chip": "ym2612"
    },
    {
      "channel": 4,
      "note": 87,
      "start": 67.9101,
      "duration": 0.0161,
      "velocity": 86,
      "chip": "ym2612"
    },
    {
      "channel": 3,
      "note": 87,
      "start": 67.9113,
      "duration": 0.0161,
      "velocity": 86,
      "chip": "ym2612"
    },
    {
      "channel": 2,
      "note": 59,
      "start": 67.9124,
      "duration": 0.0161,
      "velocity": 93,
      "chip": "ym2612"
    },
    {
      "channel": 1,
      "note": 78,
      "start": 67.9136,
      "duration": 0.0162,
      "velocity": 98,
      "chip": "ym2612"
    },
    {
      "channel": 0,
      "note": 39,
      "start": 67.9238,
      "duration": 0.0161,
      "velocity": 115,
      "chip": "ym2612"
    },
    {
      "channel": 5,
      "note": 78,
      "start": 67.925,
      "duration": 0.0161,
      "velocity": 98,
      "chip": "ym2612"
    },
    {
      "channel": 4,
      "note": 87,
      "start": 67.9262,
      "duration": 0.0161,
      "velocity": 86,
      "chip": "ym2612"
    },
    {
      "channel": 3,
      "note": 87,
      "start": 67.9274,
      "duration": 0.0161,
      "velocity": 86,
      "chip": "ym2612"
    },
    {
      "channel": 2,
      "note": 59,
      "start": 67.9285,
      "duration": 0.0161,
      "velocity": 93,
      "chip": "ym2612"
    },
    {
      "channel": 1,
      "note": 78,
      "start": 67.9298,
      "duration": 0.0161,
      "velocity": 98,
      "chip": "ym2612"
    },
    {
      "channel": 0,
      "note": 40,
      "start": 67.9399,
      "duration": 0.0161,
      "velocity": 115,
      "chip": "ym2612"
    },
    {
      "channel": 5,
      "note": 78,
      "start": 67.9411,
      "duration": 0.0161,
      "velocity": 98,
      "chip": "ym2612"
    },
    {
      "channel": 4,
      "note": 87,
      "start": 67.9423,
      "duration": 0.0161,
      "velocity": 86,
      "chip": "ym2612"
    },
    {
      "channel": 3,
      "note": 87,
      "start": 67.9435,
      "duration": 0.0161,
      "velocity": 86,
      "chip": "ym2612"
    },
    {
      "channel": 2,
      "note": 59,
      "start": 67.9446,
      "duration": 0.0162,
      "velocity": 93,
      "chip": "ym2612"
    },
    {
      "channel": 1,
      "note": 78,
      "start": 67.9458,
      "duration": 0.0162,
      "velocity": 98,
      "chip": "ym2612"
    },
    {
      "channel": 0,
      "note": 40,
      "start": 67.956,
      "duration": 0.0161,
      "velocity": 115,
      "chip": "ym2612"
    },
    {
      "channel": 5,
      "note": 78,
      "start": 67.9572,
      "duration": 0.0161,
      "velocity": 98,
      "chip": "ym2612"
    },
    {
      "channel": 4,
      "note": 87,
      "start": 67.9584,
      "duration": 0.0161,
      "velocity": 86,
      "chip": "ym2612"
    },
    {
      "channel": 3,
      "note": 87,
      "start": 67.9596,
      "duration": 0.0161,
      "velocity": 86,
      "chip": "ym2612"
    },
    {
      "channel": 2,
      "note": 59,
      "start": 67.9608,
      "duration": 0.016,
      "velocity": 93,
      "chip": "ym2612"
    },
    {
      "channel": 1,
      "note": 78,
      "start": 67.962,
      "duration": 0.0161,
      "velocity": 98,
      "chip": "ym2612"
    },
    {
      "channel": 0,
      "note": 40,
      "start": 67.9721,
      "duration": 0.0162,
      "velocity": 115,
      "chip": "ym2612"
    },
    {
      "channel": 5,
      "note": 78,
      "start": 67.9733,
      "duration": 0.0161,
      "velocity": 98,
      "chip": "ym2612"
    },
    {
      "channel": 4,
      "note": 87,
      "start": 67.9745,
      "duration": 0.0161,
      "velocity": 86,
      "chip": "ym2612"
    },
    {
      "channel": 3,
      "note": 87,
      "start": 67.9757,
      "duration": 0.0161,
      "velocity": 86,
      "chip": "ym2612"
    },
    {
      "channel": 2,
      "note": 59,
      "start": 67.9769,
      "duration": 0.0162,
      "velocity": 93,
      "chip": "ym2612"
    },
    {
      "channel": 1,
      "note": 78,
      "start": 67.9781,
      "duration": 0.0161,
      "velocity": 98,
      "chip": "ym2612"
    },
    {
      "channel": 0,
      "note": 41,
      "start": 67.9883,
      "duration": 0.0179,
      "velocity": 115,
      "chip": "ym2612"
    },
    {
      "channel": 5,
      "note": 78,
      "start": 67.9894,
      "duration": 0.0179,
      "velocity": 98,
      "chip": "ym2612"
    },
    {
      "channel": 4,
      "note": 87,
      "start": 67.9906,
      "duration": 0.018,
      "velocity": 86,
      "chip": "ym2612"
    },
    {
      "channel": 2,
      "note": 59,
      "start": 67.993,
      "duration": 0.0181,
      "velocity": 93,
      "chip": "ym2612"
    },
    {
      "channel": 1,
      "note": 78,
      "start": 67.9942,
      "duration": 0.0182,
      "velocity": 98,
      "chip": "ym2612"
    },
    {
      "channel": 0,
      "note": 36,
      "start": 68.0062,
      "duration": 0.0144,
      "velocity": 115,
      "chip": "ym2612"
    },
    {
      "channel": 5,
      "note": 78,
      "start": 68.0073,
      "duration": 0.0144,
      "velocity": 98,
      "chip": "ym2612"
    },
    {
      "channel": 4,
      "note": 87,
      "start": 68.0085,
      "duration": 0.0144,
      "velocity": 86,
      "chip": "ym2612"
    },
    {
      "channel": 3,
      "note": 78,
      "start": 68.01,
      "duration": 0.0141,
      "velocity": 86,
      "chip": "ym2612"
    },
    {
      "channel": 2,
      "note": 59,
      "start": 68.0112,
      "duration": 0.0141,
      "velocity": 93,
      "chip": "ym2612"
    },
    {
      "channel": 1,
      "note": 78,
      "start": 68.0124,
      "duration": 0.0141,
      "velocity": 98,
      "chip": "ym2612"
    },
    {
      "channel": 0,
      "note": 36,
      "start": 68.0206,
      "duration": 0.0163,
      "velocity": 115,
      "chip": "ym2612"
    },
    {
      "channel": 5,
      "note": 78,
      "start": 68.0217,
      "duration": 0.0163,
      "velocity": 98,
      "chip": "ym2612"
    },
    {
      "channel": 4,
      "note": 87,
      "start": 68.0229,
      "duration": 0.0163,
      "velocity": 86,
      "chip": "ym2612"
    },
    {
      "channel": 3,
      "note": 78,
      "start": 68.0241,
      "duration": 0.0163,
      "velocity": 86,
      "chip": "ym2612"
    },
    {
      "channel": 2,
      "note": 59,
      "start": 68.0253,
      "duration": 0.0163,
      "velocity": 93,
      "chip": "ym2612"
    },
    {
      "channel": 1,
      "note": 78,
      "start": 68.0265,
      "duration": 0.0162,
      "velocity": 98,
      "chip": "ym2612"
    },
    {
      "channel": 0,
      "note": 37,
      "start": 68.0369,
      "duration": 0.0163,
      "velocity": 115,
      "chip": "ym2612"
    },
    {
      "channel": 5,
      "note": 78,
      "start": 68.038,
      "duration": 0.0163,
      "velocity": 98,
      "chip": "ym2612"
    },
    {
      "channel": 3,
      "note": 78,
      "start": 68.0404,
      "duration": 0.0166,
      "velocity": 86,
      "chip": "ym2612"
    },
    {
      "channel": 2,
      "note": 59,
      "start": 68.0416,
      "duration": 0.0166,
      "velocity": 93,
      "chip": "ym2612"
    },
    {
      "channel": 1,
      "note": 78,
      "start": 68.0427,
      "duration": 0.0167,
      "velocity": 98,
      "chip": "ym2612"
    },
    {
      "channel": 0,
      "note": 37,
      "start": 68.0532,
      "duration": 0.0161,
      "velocity": 115,
      "chip": "ym2612"
    },
    {
      "channel": 5,
      "note": 78,
      "start": 68.0544,
      "duration": 0.0162,
      "velocity": 98,
      "chip": "ym2612"
    },
    {
      "channel": 4,
      "note": 78,
      "start": 68.0559,
      "duration": 0.0158,
      "velocity": 86,
      "chip": "ym2612"
    },
    {
      "channel": 3,
      "note": 78,
      "start": 68.057,
      "duration": 0.0159,
      "velocity": 86,
      "chip": "ym2612"
    },
    {
      "channel": 2,
      "note": 59,
      "start": 68.0582,
      "duration": 0.016,
      "velocity": 93,
      "chip": "ym2612"
    },
    {
      "channel": 1,
      "note": 78,
      "start": 68.0594,
      "duration": 0.0159,
      "velocity": 98,
      "chip": "ym2612"
    },
    {
      "channel": 0,
      "note": 38,
      "start": 68.0694,
      "duration": 0.0161,
      "velocity": 115,
      "chip": "ym2612"
    },
    {
      "channel": 5,
      "note": 78,
      "start": 68.0705,
      "duration": 0.0161,
      "velocity": 98,
      "chip": "ym2612"
    },
    {
      "channel": 4,
      "note": 78,
      "start": 68.0717,
      "duration": 0.016,
      "velocity": 86,
      "chip": "ym2612"
    },
    {
      "channel": 3,
      "note": 78,
      "start": 68.0729,
      "duration": 0.016,
      "velocity": 86,
      "chip": "ym2612"
    },
    {
      "channel": 2,
      "note": 59,
      "start": 68.0741,
      "duration": 0.0161,
      "velocity": 93,
      "chip": "ym2612"
    },
    {
      "channel": 1,
      "note": 78,
      "start": 68.0753,
      "duration": 0.0161,
      "velocity": 98,
      "chip": "ym2612"
    },
    {
      "channel": 0,
      "note": 38,
      "start": 68.0855,
      "duration": 0.0179,
      "velocity": 124,
      "chip": "ym2612"
    },
    {
      "channel": 5,
      "note": 78,
      "start": 68.0866,
      "duration": 0.0179,
      "velocity": 98,
      "chip": "ym2612"
    },
    {
      "channel": 4,
      "note": 78,
      "start": 68.0878,
      "duration": 0.0179,
      "velocity": 86,
      "chip": "ym2612"
    },
    {
      "channel": 2,
      "note": 59,
      "start": 68.0902,
      "duration": 0.0184,
      "velocity": 93,
      "chip": "ym2612"
    },
    {
      "channel": 0,
      "note": 84,
      "start": 68.1034,
      "duration": 0.0137,
      "velocity": 124,
      "chip": "ym2612"
    },
    {
      "channel": 5,
      "note": 78,
      "start": 68.1046,
      "duration": 0.0142,
      "velocity": 98,
      "chip": "ym2612"
    },
    {
      "channel": 4,
      "note": 78,
      "start": 68.1057,
      "duration": 0.0143,
      "velocity": 86,
      "chip": "ym2612"
    },
    {
      "channel": 3,
      "note": 81,
      "start": 68.1072,
      "duration": 0.0141,
      "velocity": 86,
      "chip": "ym2612"
    },
    {
      "channel": 2,
      "note": 59,
      "start": 68.1086,
      "duration": 0.0139,
      "velocity": 93,
      "chip": "ym2612"
    },
    {
      "channel": 1,
      "note": 78,
      "start": 68.1102,
      "duration": 0.0135,
      "velocity": 98,
      "chip": "ym2612"
    },
    {
      "channel": 0,
      "note": 82,
      "start": 68.1171,
      "duration": 0.0161,
      "velocity": 124,
      "chip": "ym2612"
    },
    {
      "channel": 5,
      "note": 78,
      "start": 68.1188,
      "duration": 0.016,
      "velocity": 98,
      "chip": "ym2612"
    },
    {
      "channel": 4,
      "note": 78,
      "start": 68.12,
      "duration": 0.0161,
      "velocity": 86,
      "chip": "ym2612"
    },
    {
      "channel": 3,
      "note": 81,
      "start": 68.1213,
      "duration": 0.016,
      "velocity": 86,
      "chip": "ym2612"
    },
    {
      "channel": 2,
      "note": 59,
      "start": 68.1225,
      "duration": 0.016,
      "velocity": 93,
      "chip": "ym2612"
    },
    {
      "channel": 1,
      "note": 78,
      "start": 68.1237,
      "duration": 0.0159,
      "velocity": 98,
      "chip": "ym2612"
    },
    {
      "channel": 0,
      "note": 80,
      "start": 68.1332,
      "duration": 0.0161,
      "velocity": 124,
      "chip": "ym2612"
    },
    {
      "channel": 5,
      "note": 78,
      "start": 68.1348,
      "duration": 0.0156,
      "velocity": 98,
      "chip": "ym2612"
    },
    {
      "channel": 3,
      "note": 81,
      "start": 68.1373,
      "duration": 0.0164,
      "velocity": 86,
      "chip": "ym2612"
    },
    {
      "channel": 2,
      "note": 59,
      "start": 68.1385,
      "duration": 0.0163,
      "velocity": 93,
      "chip": "ym2612"
    },
    {
      "channel": 1,
      "note": 78,
      "start": 68.1396,
      "duration": 0.0163,
      "velocity": 98,
      "chip": "ym2612"
    },
    {
      "channel": 0,
      "note": 77,
      "start": 68.1493,
      "duration": 0.0161,
      "velocity": 124,
      "chip": "ym2612"
    },
    {
      "channel": 5,
      "note": 78,
      "start": 68.1504,
      "duration": 0.0161,
      "velocity": 98,
      "chip": "ym2612"
    },
    {
      "channel": 4,
      "note": 81,
      "start": 68.1524,
      "duration": 0.0159,
      "velocity": 86,
      "chip": "ym2612"
    },
    {
      "channel": 3,
      "note": 81,
      "start": 68.1537,
      "duration": 0.0159,
      "velocity": 86,
      "chip": "ym2612"
    },
    {
      "channel": 2,
      "note": 59,
      "start": 68.1548,
      "duration": 0.0159,
      "velocity": 93,
      "chip": "ym2612"
    },
    {
      "channel": 1,
      "note": 78,
      "start": 68.1559,
      "duration": 0.0159,
      "velocity": 98,
      "chip": "ym2612"
    },
    {
      "channel": 0,
      "note": 75,
      "start": 68.1654,
      "duration": 0.0161,
      "velocity": 124,
      "chip": "ym2612"
    },
    {
      "channel": 5,
      "note": 78,
      "start": 68.1665,
      "duration": 0.0161,
      "velocity": 98,
      "chip": "ym2612"
    },
    {
      "channel": 4,
      "note": 81,
      "start": 68.1683,
      "duration": 0.0155,
      "velocity": 86,
      "chip": "ym2612"
    },
    {
      "channel": 3,
      "note": 81,
      "start": 68.1695,
      "duration": 0.016,
      "velocity": 86,
      "chip": "ym2612"
    },
    {
      "channel": 2,
      "note": 59,
      "start": 68.1707,
      "duration": 0.016,
      "velocity": 93,
      "chip": "ym2612"
    },
    {
      "channel": 1,
      "note": 78,
      "start": 68.1719,
      "duration": 0.016,
      "velocity": 98,
      "chip": "ym2612"
    },
    {
      "channel": 0,
      "note": 72,
      "start": 68.1815,
      "duration": 0.0161,
      "velocity": 124,
      "chip": "ym2612"
    },
    {
      "channel": 5,
      "note": 78,
      "start": 68.1826,
      "duration": 0.0161,
      "velocity": 98,
      "chip": "ym2612"
    },
    {
      "channel": 4,
      "note": 81,
      "start": 68.1838,
      "duration": 0.0161,
      "velocity": 86,
      "chip": "ym2612"
    },
    {
      "channel": 3,
      "note": 81,
      "start": 68.1855,
      "duration": 0.0161,
      "velocity": 86,
      "chip": "ym2612"
    },
    {
      "channel": 2,
      "note": 59,
      "start": 68.1867,
      "duration": 0.0161,
      "velocity": 93,
      "chip": "ym2612"
    },
    {
      "channel": 1,
      "note": 78,
      "start": 68.1879,
      "duration": 0.0161,
      "velocity": 98,
      "chip": "ym2612"
    },
    {
      "channel": 0,
      "note": 70,
      "start": 68.1976,
      "duration": 0.0161,
      "velocity": 124,
      "chip": "ym2612"
    },
    {
      "channel": 5,
      "note": 78,
      "start": 68.1987,
      "duration": 0.0161,
      "velocity": 98,
      "chip": "ym2612"
    },
    {
      "channel": 4,
      "note": 81,
      "start": 68.1999,
      "duration": 0.0161,
      "velocity": 86,
      "chip": "ym2612"
    },
    {
      "channel": 3,
      "note": 81,
      "start": 68.2016,
      "duration": 0.0156,
      "velocity": 86,
      "chip": "ym2612"
    },
    {
      "channel": 2,
      "note": 59,
      "start": 68.2028,
      "duration": 0.0161,
      "velocity": 93,
      "chip": "ym2612"
    },
    {
      "channel": 1,
      "note": 78,
      "start": 68.204,
      "duration": 0.0161,
      "velocity": 98,
      "chip": "ym2612"
    },
    {
      "channel": 0,
      "note": 68,
      "start": 68.2137,
      "duration": 0.0161,
      "velocity": 124,
      "chip": "ym2612"
    },
    {
      "channel": 5,
      "note": 78,
      "start": 68.2149,
      "duration": 0.0161,
      "velocity": 98,
      "chip": "ym2612"
    },
    {
      "channel": 4,
      "note": 81,
      "start": 68.216,
      "duration": 0.0161,
      "velocity": 86,
      "chip": "ym2612"
    },
    {
      "channel": 3,
      "note": 81,
      "start": 68.2172,
      "duration": 0.0161,
      "velocity": 86,
      "chip": "ym2612"
    },
    {
      "channel": 2,
      "note": 59,
      "start": 68.2189,
      "duration": 0.016,
      "velocity": 93,
      "chip": "ym2612"
    },
    {
      "channel": 1,
      "note": 78,
      "start": 68.2201,
      "duration": 0.0162,
      "velocity": 98,
      "chip": "ym2612"
    },
    {
      "channel": 0,
      "note": 65,
      "start": 68.2298,
      "duration": 0.0161,
      "velocity": 124,
      "chip": "ym2612"
    },
    {
      "channel": 5,
      "note": 78,
      "start": 68.231,
      "duration": 0.0161,
      "velocity": 98,
      "chip": "ym2612"
    },
    {
      "channel": 4,
      "note": 81,
      "start": 68.2321,
      "duration": 0.0161,
      "velocity": 86,
      "chip": "ym2612"
    },
    {
      "channel": 3,
      "note": 81,
      "start": 68.2333,
      "duration": 0.0161,
      "velocity": 86,
      "chip": "ym2612"
    },
    {
      "channel": 2,
      "note": 59,
      "start": 68.235,
      "duration": 0.0159,
      "velocity": 93,
      "chip": "ym2612"
    },
    {
      "channel": 1,
      "note": 78,
      "start": 68.2362,
      "duration": 0.0161,
      "velocity": 98,
      "chip": "ym2612"
    },
    {
      "channel": 0,
      "note": 63,
      "start": 68.2458,
      "duration": 0.0153,
      "velocity": 1,
      "chip": "ym2612"
    },
    {
      "channel": 5,
      "note": 78,
      "start": 68.2471,
      "duration": 0.0153,
      "velocity": 98,
      "chip": "ym2612"
    },
    {
      "channel": 4,
      "note": 81,
      "start": 68.2482,
      "duration": 0.0153,
      "velocity": 86,
      "chip": "ym2612"
    },
    {
      "channel": 3,
      "note": 81,
      "start": 68.2494,
      "duration": 0.0153,
      "velocity": 86,
      "chip": "ym2612"
    },
    {
      "channel": 2,
      "note": 59,
      "start": 68.2509,
      "duration": 0.015,
      "velocity": 93,
      "chip": "ym2612"
    },
    {
      "channel": 1,
      "note": 78,
      "start": 68.2524,
      "duration": 0.0147,
      "velocity": 98,
      "chip": "ym2612"
    },
    {
      "channel": 5,
      "note": 78,
      "start": 68.2623,
      "duration": 0.0152,
      "velocity": 98,
      "chip": "ym2612"
    },
    {
      "channel": 4,
      "note": 81,
      "start": 68.2634,
      "duration": 0.0153,
      "velocity": 86,
      "chip": "ym2612"
    },
    {
      "channel": 3,
      "note": 81,
      "start": 68.2647,
      "duration": 0.0153,
      "velocity": 86,
      "chip": "ym2612"
    },
    {
      "channel": 2,
      "note": 59,
      "start": 68.2659,
      "duration": 0.0153,
      "velocity": 93,
      "chip": "ym2612"
    },
    {
      "channel": 1,
      "note": 78,
      "start": 68.2671,
      "duration": 0.0153,
      "velocity": 98,
      "chip": "ym2612"
    },
    {
      "channel": 5,
      "note": 78,
      "start": 68.2775,
      "duration": 0.0162,
      "velocity": 98,
      "chip": "ym2612"
    },
    {
      "channel": 4,
      "note": 81,
      "start": 68.2787,
      "duration": 0.0161,
      "velocity": 86,
      "chip": "ym2612"
    },
    {
      "channel": 2,
      "note": 59,
      "start": 68.2811,
      "duration": 0.0164,
      "velocity": 93,
      "chip": "ym2612"
    },
    {
      "channel": 5,
      "note": 78,
      "start": 68.2937,
      "duration": 0.0161,
      "velocity": 98,
      "chip": "ym2612"
    },
    {
      "channel": 4,
      "note": 81,
      "start": 68.2948,
      "duration": 0.0161,
      "velocity": 86,
      "chip": "ym2612"
    },
    {
      "channel": 3,
      "note": 87,
      "start": 68.2964,
      "duration": 0.0158,
      "velocity": 86,
      "chip": "ym2612"
    },
    {
      "channel": 2,
      "note": 59,
      "start": 68.2976,
      "duration": 0.0158,
      "velocity": 93,
      "chip": "ym2612"
    },
    {
      "channel": 1,
      "note": 80,
      "start": 68.299,
      "duration": 0.0155,
      "velocity": 98,
      "chip": "ym2612"
    },
    {
      "channel": 5,
      "note": 78,
      "start": 68.3098,
      "duration": 0.0161,
      "velocity": 98,
      "chip": "ym2612"
    },
    {
      "channel": 4,
      "note": 81,
      "start": 68.3109,
      "duration": 0.0162,
      "velocity": 86,
      "chip": "ym2612"
    },
    {
      "channel": 3,
      "note": 87,
      "start": 68.3122,
      "duration": 0.016,
      "velocity": 86,
      "chip": "ym2612"
    },
    {
      "channel": 2,
      "note": 59,
      "start": 68.3133,
      "duration": 0.016,
      "velocity": 93,
      "chip": "ym2612"
    },
    {
      "channel": 1,
      "note": 80,
      "start": 68.3145,
      "duration": 0.016,
      "velocity": 98,
      "chip": "ym2612"
    },
    {
      "channel": 5,
      "note": 78,
      "start": 68.3259,
      "duration": 0.0161,
      "velocity": 98,
      "chip": "ym2612"
    },
    {
      "channel": 3,
      "note": 87,
      "start": 68.3282,
      "duration": 0.0165,
      "velocity": 86,
      "chip": "ym2612"
    },
    {
      "channel": 2,
      "note": 59,
      "start": 68.3294,
      "duration": 0.0165,
      "velocity": 93,
      "chip": "ym2612"
    },
    {
      "channel": 1,
      "note": 80,
      "start": 68.3306,
      "duration": 0.0165,
      "velocity": 98,
      "chip": "ym2612"
    },
    {
      "channel": 5,
      "note": 78,
      "start": 68.342,
      "duration": 0.0161,
      "velocity": 98,
      "chip": "ym2612"
    },
    {
      "channel": 4,
      "note": 87,
      "start": 68.3435,
      "duration": 0.0157,
      "velocity": 86,
      "chip": "ym2612"
    },
    {
      "channel": 3,
      "note": 87,
      "start": 68.3447,
      "duration": 0.0158,
      "velocity": 86,
      "chip": "ym2612"
    },
    {
      "channel": 2,
      "note": 59,
      "start": 68.3458,
      "duration": 0.0159,
      "velocity": 93,
      "chip": "ym2612"
    },
    {
      "channel": 1,
      "note": 80,
      "start": 68.3471,
      "duration": 0.0158,
      "velocity": 98,
      "chip": "ym2612"
    },
    {
      "channel": 5,
      "note": 78,
      "start": 68.358,
      "duration": 0.0161,
      "velocity": 98,
      "chip": "ym2612"
    },
    {
      "channel": 4,
      "note": 87,
      "start": 68.3593,
      "duration": 0.016,
      "velocity": 86,
      "chip": "ym2612"
    },
    {
      "channel": 3,
      "note": 87,
      "start": 68.3605,
      "duration": 0.016,
      "velocity": 86,
      "chip": "ym2612"
    },
    {
      "channel": 2,
      "note": 59,
      "start": 68.3617,
      "duration": 0.016,
      "velocity": 93,
      "chip": "ym2612"
    },
    {
      "channel": 1,
      "note": 80,
      "start": 68.3628,
      "duration": 0.0161,
      "velocity": 98,
      "chip": "ym2612"
    },
    {
      "channel": 5,
      "note": 78,
      "start": 68.3741,
      "duration": 0.0161,
      "velocity": 98,
      "chip": "ym2612"
    },
    {
      "channel": 4,
      "note": 87,
      "start": 68.3753,
      "duration": 0.0162,
      "velocity": 86,
      "chip": "ym2612"
    },
    {
      "channel": 3,
      "note": 87,
      "start": 68.3765,
      "duration": 0.0162,
      "velocity": 86,
      "chip": "ym2612"
    },
    {
      "channel": 2,
      "note": 59,
      "start": 68.3777,
      "duration": 0.0163,
      "velocity": 93,
      "chip": "ym2612"
    },
    {
      "channel": 1,
      "note": 80,
      "start": 68.3789,
      "duration": 0.0163,
      "velocity": 98,
      "chip": "ym2612"
    },
    {
      "channel": 5,
      "note": 78,
      "start": 68.3902,
      "duration": 0.0161,
      "velocity": 98,
      "chip": "ym2612"
    },
    {
      "channel": 4,
      "note": 87,
      "start": 68.3915,
      "duration": 0.0161,
      "velocity": 86,
      "chip": "ym2612"
    },
    {
      "channel": 3,
      "note": 87,
      "start": 68.3927,
      "duration": 0.016,
      "velocity": 86,
      "chip": "ym2612"
    },
    {
      "channel": 2,
      "note": 59,
      "start": 68.3941,
      "duration": 0.016,
      "velocity": 93,
      "chip": "ym2612"
    },
    {
      "channel": 1,
      "note": 80,
      "start": 68.3952,
      "duration": 0.016,
      "velocity": 98,
      "chip": "ym2612"
    },
    {
      "channel": 4,
      "note": 87,
      "start": 68.4076,
      "duration": 0.0164,
      "velocity": 86,
      "chip": "ym2612"
    },
    {
      "channel": 3,
      "note": 87,
      "start": 68.4088,
      "duration": 0.0165,
      "velocity": 86,
      "chip": "ym2612"
    },
    {
      "channel": 2,
      "note": 59,
      "start": 68.41,
      "duration": 0.0165,
      "velocity": 93,
      "chip": "ym2612"
    },
    {
      "channel": 1,
      "note": 80,
      "start": 68.4112,
      "duration": 0.0165,
      "velocity": 98,
      "chip": "ym2612"
    },
    {
      "channel": 5,
      "note": 78,
      "start": 68.4228,
      "duration": 0.0158,
      "velocity": 98,
      "chip": "ym2612"
    },
    {
      "channel": 4,
      "note": 87,
      "start": 68.4239,
      "duration": 0.016,
      "velocity": 86,
      "chip": "ym2612"
    },
    {
      "channel": 3,
      "note": 87,
      "start": 68.4252,
      "duration": 0.0159,
      "velocity": 86,
      "chip": "ym2612"
    },
    {
      "channel": 2,
      "note": 59,
      "start": 68.4265,
      "duration": 0.0158,
      "velocity": 93,
      "chip": "ym2612"
    },
    {
      "channel": 1,
      "note": 80,
      "start": 68.4276,
      "duration": 0.0159,
      "velocity": 98,
      "chip": "ym2612"
    },
    {
      "channel": 5,
      "note": 78,
      "start": 68.4386,
      "duration": 0.016,
      "velocity": 98,
      "chip": "ym2612"
    },
    {
      "channel": 4,
      "note": 87,
      "start": 68.4399,
      "duration": 0.016,
      "velocity": 86,
      "chip": "ym2612"
    },
    {
      "channel": 3,
      "note": 87,
      "start": 68.4411,
      "duration": 0.016,
      "velocity": 86,
      "chip": "ym2612"
    },
    {
      "channel": 2,
      "note": 59,
      "start": 68.4423,
      "duration": 0.016,
      "velocity": 93,
      "chip": "ym2612"
    },
    {
      "channel": 1,
      "note": 80,
      "start": 68.4435,
      "duration": 0.016,
      "velocity": 98,
      "chip": "ym2612"
    },
    {
      "channel": 5,
      "note": 78,
      "start": 68.4547,
      "duration": 0.0161,
      "velocity": 98,
      "chip": "ym2612"
    },
    {
      "channel": 4,
      "note": 87,
      "start": 68.4559,
      "duration": 0.0161,
      "velocity": 86,
      "chip": "ym2612"
    },
    {
      "channel": 3,
      "note": 87,
      "start": 68.4571,
      "duration": 0.0161,
      "velocity": 86,
      "chip": "ym2612"
    },
    {
      "channel": 2,
      "note": 59,
      "start": 68.4584,
      "duration": 0.0161,
      "velocity": 93,
      "chip": "ym2612"
    },
    {
      "channel": 1,
      "note": 80,
      "start": 68.4595,
      "duration": 0.0161,
      "velocity": 98,
      "chip": "ym2612"
    },
    {
      "channel": 5,
      "note": 78,
      "start": 68.4708,
      "duration": 0.0162,
      "velocity": 98,
      "chip": "ym2612"
    },
    {
      "channel": 4,
      "note": 87,
      "start": 68.472,
      "duration": 0.0161,
      "velocity": 86,
      "chip": "ym2612"
    },
    {
      "channel": 2,
      "note": 59,
      "start": 68.4745,
      "duration": 0.0162,
      "velocity": 93,
      "chip": "ym2612"
    },
    {
      "channel": 1,
      "note": 80,
      "start": 68.4756,
      "duration": 0.0163,
      "velocity": 98,
      "chip": "ym2612"
    },
    {
      "channel": 5,
      "note": 78,
      "start": 68.4869,
      "duration": 0.0161,
      "velocity": 98,
      "chip": "ym2612"
    },
    {
      "channel": 4,
      "note": 87,
      "start": 68.4881,
      "duration": 0.0161,
      "velocity": 86,
      "chip": "ym2612"
    },
    {
      "channel": 2,
      "note": 59,
      "start": 68.4907,
      "duration": 0.016,
      "velocity": 93,
      "chip": "ym2612"
    },
    {
      "channel": 1,
      "note": 80,
      "start": 68.4919,
      "duration": 0.016,
      "velocity": 98,
      "chip": "ym2612"
    },
    {
      "channel": 5,
      "note": 78,
      "start": 68.503,
      "duration": 0.0164,
      "velocity": 98,
      "chip": "ym2612"
    },
    {
      "channel": 4,
      "note": 87,
      "start": 68.5042,
      "duration": 0.0164,
      "velocity": 86,
      "chip": "ym2612"
    },
    {
      "channel": 2,
      "note": 59,
      "start": 68.5067,
      "duration": 0.0165,
      "velocity": 93,
      "chip": "ym2612"
    },
    {
      "channel": 1,
      "note": 80,
      "start": 68.5079,
      "duration": 0.0165,
      "velocity": 98,
      "chip": "ym2612"
    },
    {
      "channel": 5,
      "note": 78,
      "start": 68.5194,
      "duration": 0.0163,
      "velocity": 98,
      "chip": "ym2612"
    },
    {
      "channel": 2,
      "note": 59,
      "start": 68.5232,
      "duration": 0.0164,
      "velocity": 93,
      "chip": "ym2612"
    },
    {
      "channel": 1,
      "note": 80,
      "start": 68.5243,
      "duration": 0.0165,
      "velocity": 98,
      "chip": "ym2612"
    },
    {
      "channel": 5,
      "note": 78,
      "start": 68.5358,
      "duration": 0.016,
      "velocity": 98,
      "chip": "ym2612"
    },
    {
      "channel": 2,
      "note": 59,
      "start": 68.5396,
      "duration": 0.016,
      "velocity": 93,
      "chip": "ym2612"
    },
    {
      "channel": 1,
      "note": 80,
      "start": 68.5408,
      "duration": 0.016,
      "velocity": 98,
      "chip": "ym2612"
    },
    {
      "channel": 5,
      "note": 78,
      "start": 68.5518,
      "duration": 0.0158,
      "velocity": 98,
      "chip": "ym2612"
    },
    {
      "channel": 2,
      "note": 59,
      "start": 68.5556,
      "duration": 0.0162,
      "velocity": 93,
      "chip": "ym2612"
    },
    {
      "channel": 2,
      "note": 59,
      "start": 68.5718,
      "duration": 0.0286,
      "velocity": 93,
      "chip": "ym2612"
    },
    {
      "channel": 1,
      "note": 84,
      "start": 68.5863,
      "duration": 0.0194,
      "velocity": 124,
      "chip": "ym2612"
    },
    {
      "channel": 0,
      "note": 36,
      "start": 68.5899,
      "duration": 0.0176,
      "velocity": 115,
      "chip": "ym2612"
    },
    {
      "channel": 5,
      "note": 83,
      "start": 68.5929,
      "duration": 0.0159,
      "velocity": 98,
      "chip": "ym2612"
    },
    {
      "channel": 4,
      "note": 88,
      "start": 68.5959,
      "duration": 0.0141,
      "velocity": 98,
      "chip": "ym2612"
    },
    {
      "channel": 3,
      "note": 80,
      "start": 68.599,
      "duration": 0.0123,
      "velocity": 103,
      "chip": "ym2612"
    },
    {
      "channel": 2,
      "note": 52,
      "start": 68.6004,
      "duration": 0.012,
      "velocity": 93,
      "chip": "ym2612"
    },
    {
      "channel": 1,
      "note": 82,
      "start": 68.6058,
      "duration": 0.011,
      "velocity": 124,
      "chip": "ym2612"
    },
    {
      "channel": 0,
      "note": 36,
      "start": 68.6076,
      "duration": 0.0115,
      "velocity": 115,
      "chip": "ym2612"
    },
    {
      "channel": 5,
      "note": 83,
      "start": 68.6088,
      "duration": 0.0114,
      "velocity": 98,
      "chip": "ym2612"
    },
    {
      "channel": 4,
      "note": 88,
      "start": 68.61,
      "duration": 0.0113,
      "velocity": 98,
      "chip": "ym2612"
    },
    {
      "channel": 3,
      "note": 80,
      "start": 68.6112,
      "duration": 0.0112,
      "velocity": 103,
      "chip": "ym2612"
    },
    {
      "channel": 2,
      "note": 52,
      "start": 68.6124,
      "duration": 0.0112,
      "velocity": 93,
      "chip": "ym2612"
    },
    {
      "channel": 1,
      "note": 80,
      "start": 68.6167,
      "duration": 0.0156,
      "velocity": 124,
      "chip": "ym2612"
    },
    {
      "channel": 0,
      "note": 37,
      "start": 68.619,
      "duration": 0.0152,
      "velocity": 115,
      "chip": "ym2612"
    },
    {
      "channel": 5,
      "note": 83,
      "start": 68.6201,
      "duration": 0.0156,
      "velocity": 98,
      "chip": "ym2612"
    },
    {
      "channel": 4,
      "note": 88,
      "start": 68.6213,
      "duration": 0.0156,
      "velocity": 98,
      "chip": "ym2612"
    },
    {
      "channel": 3,
      "note": 80,
      "start": 68.6224,
      "duration": 0.0156,
      "velocity": 103,
      "chip": "ym2612"
    },
    {
      "channel": 2,
      "note": 52,
      "start": 68.6236,
      "duration": 0.0156,
      "velocity": 93,
      "chip": "ym2612"
    },
    {
      "channel": 1,
      "note": 77,
      "start": 68.6323,
      "duration": 0.0161,
      "velocity": 124,
      "chip": "ym2612"
    },
    {
      "channel": 0,
      "note": 37,
      "start": 68.6342,
      "duration": 0.0159,
      "velocity": 115,
      "chip": "ym2612"
    },
    {
      "channel": 5,
      "note": 83,
      "start": 68.6357,
      "duration": 0.016,
      "velocity": 98,
      "chip": "ym2612"
    },
    {
      "channel": 4,
      "note": 88,
      "start": 68.6369,
      "duration": 0.0161,
      "velocity": 98,
      "chip": "ym2612"
    },
    {
      "channel": 3,
      "note": 80,
      "start": 68.6381,
      "duration": 0.0161,
      "velocity": 103,
      "chip": "ym2612"
    },
    {
      "channel": 2,
      "note": 52,
      "start": 68.6392,
      "duration": 0.0161,
      "velocity": 93,
      "chip": "ym2612"
    },
    {
      "channel": 1,
      "note": 75,
      "start": 68.6484,
      "duration": 0.0161,
      "velocity": 124,
      "chip": "ym2612"
    },
    {
      "channel": 0,
      "note": 38,
      "start": 68.65,
      "duration": 0.0161,
      "velocity": 115,
      "chip": "ym2612"
    },
    {
      "channel": 5,
      "note": 83,
      "start": 68.6517,
      "duration": 0.0158,
      "velocity": 98,
      "chip": "ym2612"
    },
    {
      "channel": 4,
      "note": 88,
      "start": 68.653,
      "duration": 0.0161,
      "velocity": 98,
      "chip": "ym2612"
    },
    {
      "channel": 2,
      "note": 52,
      "start": 68.6553,
      "duration": 0.0161,
      "velocity": 93,
      "chip": "ym2612"
    },
    {
      "channel": 1,
      "note": 72,
      "start": 68.6645,
      "duration": 0.0161,
      "velocity": 124,
      "chip": "ym2612"
    },
    {
      "channel": 0,
      "note": 38,
      "start": 68.6662,
      "duration": 0.0161,
      "velocity": 115,
      "chip": "ym2612"
    },
    {
      "channel": 5,
      "note": 83,
      "start": 68.6675,
      "duration": 0.016,
      "velocity": 98,
      "chip": "ym2612"
    },
    {
      "channel": 4,
      "note": 88,
      "start": 68.669,
      "duration": 0.0162,
      "velocity": 98,
      "chip": "ym2612"
    },
    {
      "channel": 2,
      "note": 52,
      "start": 68.6714,
      "duration": 0.0167,
      "velocity": 93,
      "chip": "ym2612"
    },
    {
      "channel": 1,
      "note": 70,
      "start": 68.6806,
      "duration": 0.0161,
      "velocity": 124,
      "chip": "ym2612"
    },
    {
      "channel": 0,
      "note": 39,
      "start": 68.6823,
      "duration": 0.0161,
      "velocity": 115,
      "chip": "ym2612"
    },
    {
      "channel": 5,
      "note": 83,
      "start": 68.6835,
      "duration": 0.016,
      "velocity": 98,
      "chip": "ym2612"
    },
    {
      "channel": 4,
      "note": 88,
      "start": 68.6853,
      "duration": 0.0157,
      "velocity": 98,
      "chip": "ym2612"
    },
    {
      "channel": 3,
      "note": 80,
      "start": 68.6869,
      "duration": 0.0158,
      "velocity": 103,
      "chip": "ym2612"
    },
    {
      "channel": 2,
      "note": 52,
      "start": 68.6881,
      "duration": 0.0157,
      "velocity": 93,
      "chip": "ym2612"
    },
    {
      "channel": 1,
      "note": 68,
      "start": 68.6967,
      "duration": 0.0161,
      "velocity": 124,
      "chip": "ym2612"
    },
    {
      "channel": 0,
      "note": 39,
      "start": 68.6984,
      "duration": 0.0161,
      "velocity": 115,
      "chip": "ym2612"
    },
    {
      "channel": 5,
      "note": 83,
      "start": 68.6995,
      "duration": 0.0162,
      "velocity": 98,
      "chip": "ym2612"
    },
    {
      "channel": 4,
      "note": 88,
      "start": 68.701,
      "duration": 0.0159,
      "velocity": 98,
      "chip": "ym2612"
    },
    {
      "channel": 3,
      "note": 80,
      "start": 68.7027,
      "duration": 0.016,
      "velocity": 103,
      "chip": "ym2612"
    },
    {
      "channel": 2,
      "note": 52,
      "start": 68.7039,
      "duration": 0.0161,
      "velocity": 93,
      "chip": "ym2612"
    },
    {
      "channel": 1,
      "note": 65,
      "start": 68.7128,
      "duration": 0.0161,
      "velocity": 124,
      "chip": "ym2612"
    },
    {
      "channel": 0,
      "note": 40,
      "start": 68.7145,
      "duration": 0.0161,
      "velocity": 115,
      "chip": "ym2612"
    },
    {
      "channel": 5,
      "note": 83,
      "start": 68.7157,
      "duration": 0.016,
      "velocity": 98,
      "chip": "ym2612"
    },
    {
      "channel": 4,
      "note": 88,
      "start": 68.7169,
      "duration": 0.016,
      "velocity": 98,
      "chip": "ym2612"
    },
    {
      "channel": 3,
      "note": 80,
      "start": 68.7186,
      "duration": 0.0157,
      "velocity": 103,
      "chip": "ym2612"
    },
    {
      "channel": 2,
      "note": 52,
      "start": 68.72,
      "duration": 0.0159,
      "velocity": 93,
      "chip": "ym2612"
    },
    {
      "channel": 1,
      "note": 63,
      "start": 68.7288,
      "duration": 0.0153,
      "velocity": 1,
      "chip": "ym2612"
    },
    {
      "channel": 0,
      "note": 40,
      "start": 68.7306,
      "duration": 0.0153,
      "velocity": 115,
      "chip": "ym2612"
    },
    {
      "channel": 5,
      "note": 83,
      "start": 68.7317,
      "duration": 0.0153,
      "velocity": 98,
      "chip": "ym2612"
    },
    {
      "channel": 4,
      "note": 88,
      "start": 68.7329,
      "duration": 0.0153,
      "velocity": 98,
      "chip": "ym2612"
    },
    {
      "channel": 3,
      "note": 80,
      "start": 68.7343,
      "duration": 0.015,
      "velocity": 103,
      "chip": "ym2612"
    },
    {
      "channel": 2,
      "note": 52,
      "start": 68.7359,
      "duration": 0.0147,
      "velocity": 93,
      "chip": "ym2612"
    },
    {
      "channel": 0,
      "note": 40,
      "start": 68.7458,
      "duration": 0.0153,
      "velocity": 115,
      "chip": "ym2612"
    },
    {
      "channel": 5,
      "note": 83,
      "start": 68.747,
      "duration": 0.0153,
      "velocity": 98,
      "chip": "ym2612"
    },
    {
      "channel": 4,
      "note": 88,
      "start": 68.7482,
      "duration": 0.0153,
      "velocity": 98,
      "chip": "ym2612"
    },
    {
      "channel": 2,
      "note": 52,
      "start": 68.7505,
      "duration": 0.0153,
      "velocity": 93,
      "chip": "ym2612"
    },
    {
      "channel": 0,
      "note": 41,
      "start": 68.7611,
      "duration": 0.0161,
      "velocity": 115,
      "chip": "ym2612"
    },
    {
      "channel": 2,
      "note": 52,
      "start": 68.7658,
      "duration": 0.0167,
      "velocity": 93,
      "chip": "ym2612"
    },
    {
      "channel": 0,
      "note": 41,
      "start": 68.7772,
      "duration": 0.0161,
      "velocity": 115,
      "chip": "ym2612"
    },
    {
      "channel": 2,
      "note": 52,
      "start": 68.7825,
      "duration": 0.0158,
      "velocity": 93,
      "chip": "ym2612"
    },
    {
      "channel": 0,
      "note": 42,
      "start": 68.7933,
      "duration": 0.0161,
      "velocity": 115,
      "chip": "ym2612"
    },
    {
      "channel": 2,
      "note": 52,
      "start": 68.7983,
      "duration": 0.0161,
      "velocity": 93,
      "chip": "ym2612"
    },
    {
      "channel": 0,
      "note": 42,
      "start": 68.8094,
      "duration": 0.0161,
      "velocity": 115,
      "chip": "ym2612"
    },
    {
      "channel": 2,
      "note": 52,
      "start": 68.8144,
      "duration": 0.0161,
      "velocity": 93,
      "chip": "ym2612"
    },
    {
      "channel": 0,
      "note": 43,
      "start": 68.8255,
      "duration": 0.0161,
      "velocity": 115,
      "chip": "ym2612"
    },
    {
      "channel": 2,
      "note": 52,
      "start": 68.8305,
      "duration": 0.0161,
      "velocity": 93,
      "chip": "ym2612"
    },
    {
      "channel": 0,
      "note": 43,
      "start": 68.8416,
      "duration": 0.0161,
      "velocity": 115,
      "chip": "ym2612"
    },
    {
      "channel": 2,
      "note": 52,
      "start": 68.8466,
      "duration": 0.0162,
      "velocity": 93,
      "chip": "ym2612"
    },
    {
      "channel": 0,
      "note": 44,
      "start": 68.8577,
      "duration": 0.0162,
      "velocity": 115,
      "chip": "ym2612"
    },
    {
      "channel": 2,
      "note": 52,
      "start": 68.8628,
      "duration": 0.0161,
      "velocity": 93,
      "chip": "ym2612"
    },
    {
      "channel": 0,
      "note": 44,
      "start": 68.8738,
      "duration": 0.0161,
      "velocity": 115,
      "chip": "ym2612"
    },
    {
      "channel": 2,
      "note": 52,
      "start": 68.8788,
      "duration": 0.0161,
      "velocity": 93,
      "chip": "ym2612"
    },
    {
      "channel": 0,
      "note": 44,
      "start": 68.8899,
      "duration": 0.0161,
      "velocity": 115,
      "chip": "ym2612"
    },
    {
      "channel": 2,
      "note": 52,
      "start": 68.8949,
      "duration": 0.0161,
      "velocity": 93,
      "chip": "ym2612"
    },
    {
      "channel": 0,
      "note": 45,
      "start": 68.906,
      "duration": 0.0161,
      "velocity": 115,
      "chip": "ym2612"
    },
    {
      "channel": 2,
      "note": 52,
      "start": 68.911,
      "duration": 0.0161,
      "velocity": 93,
      "chip": "ym2612"
    },
    {
      "channel": 0,
      "note": 45,
      "start": 68.9221,
      "duration": 0.0161,
      "velocity": 115,
      "chip": "ym2612"
    },
    {
      "channel": 2,
      "note": 52,
      "start": 68.9271,
      "duration": 0.0161,
      "velocity": 93,
      "chip": "ym2612"
    },
    {
      "channel": 0,
      "note": 46,
      "start": 68.9382,
      "duration": 0.0161,
      "velocity": 115,
      "chip": "ym2612"
    },
    {
      "channel": 2,
      "note": 52,
      "start": 68.9432,
      "duration": 0.0162,
      "velocity": 93,
      "chip": "ym2612"
    },
    {
      "channel": 0,
      "note": 46,
      "start": 68.9543,
      "duration": 0.0215,
      "velocity": 115,
      "chip": "ym2612"
    },
    {
      "channel": 2,
      "note": 52,
      "start": 68.9594,
      "duration": 0.0224,
      "velocity": 93,
      "chip": "ym2612"
    },
    {
      "channel": 1,
      "note": 84,
      "start": 68.9723,
      "duration": 0.0148,
      "velocity": 124,
      "chip": "ym2612"
    },
    {
      "channel": 0,
      "note": 36,
      "start": 68.9759,
      "duration": 0.013,
      "velocity": 115,
      "chip": "ym2612"
    },
    {
      "channel": 5,
      "note": 83,
      "start": 68.9773,
      "duration": 0.0127,
      "velocity": 98,
      "chip": "ym2612"
    },
    {
      "channel": 4,
      "note": 88,
      "start": 68.9788,
      "duration": 0.0125,
      "velocity": 98,
      "chip": "ym2612"
    },
    {
      "channel": 3,
      "note": 80,
      "start": 68.9804,
      "duration": 0.0121,
      "velocity": 103,
      "chip": "ym2612"
    },
    {
      "channel": 2,
      "note": 52,
      "start": 68.9818,
      "duration": 0.0119,
      "velocity": 93,
      "chip": "ym2612"
    },
    {
      "channel": 1,
      "note": 82,
      "start": 68.9871,
      "duration": 0.0161,
      "velocity": 124,
      "chip": "ym2612"
    },
    {
      "channel": 0,
      "note": 36,
      "start": 68.9888,
      "duration": 0.016,
      "velocity": 115,
      "chip": "ym2612"
    },
    {
      "channel": 5,
      "note": 83,
      "start": 68.99,
      "duration": 0.016,
      "velocity": 98,
      "chip": "ym2612"
    },
    {
      "channel": 4,
      "note": 88,
      "start": 68.9913,
      "duration": 0.0159,
      "velocity": 98,
      "chip": "ym2612"
    },
    {
      "channel": 3,
      "note": 80,
      "start": 68.9925,
      "duration": 0.0159,
      "velocity": 103,
      "chip": "ym2612"
    },
    {
      "channel": 2,
      "note": 52,
      "start": 68.9937,
      "duration": 0.0158,
      "velocity": 93,
      "chip": "ym2612"
    },
    {
      "channel": 1,
      "note": 80,
      "start": 69.0032,
      "duration": 0.0161,
      "velocity": 124,
      "chip": "ym2612"
    },
    {
      "channel": 0,
      "note": 37,
      "start": 69.0049,
      "duration": 0.0161,
      "velocity": 115,
      "chip": "ym2612"
    },
    {
      "channel": 5,
      "note": 83,
      "start": 69.006,
      "duration": 0.0161,
      "velocity": 98,
      "chip": "ym2612"
    },
    {
      "channel": 4,
      "note": 88,
      "start": 69.0072,
      "duration": 0.0161,
      "velocity": 98,
      "chip": "ym2612"
    },
    {
      "channel": 3,
      "note": 80,
      "start": 69.0084,
      "duration": 0.0161,
      "velocity": 103,
      "chip": "ym2612"
    },
    {
      "channel": 2,
      "note": 52,
      "start": 69.0095,
      "duration": 0.0161,
      "velocity": 93,
      "chip": "ym2612"
    },
    {
      "channel": 1,
      "note": 77,
      "start": 69.0193,
      "duration": 0.0161,
      "velocity": 124,
      "chip": "ym2612"
    },
    {
      "channel": 0,
      "note": 37,
      "start": 69.021,
      "duration": 0.0162,
      "velocity": 115,
      "chip": "ym2612"
    },
    {
      "channel": 5,
      "note": 83,
      "start": 69.0221,
      "duration": 0.0162,
      "velocity": 98,
      "chip": "ym2612"
    },
    {
      "channel": 4,
      "note": 88,
      "start": 69.0233,
      "duration": 0.0161,
      "velocity": 98,
      "chip": "ym2612"
    },
    {
      "channel": 3,
      "note": 80,
      "start": 69.0245,
      "duration": 0.0161,
      "velocity": 103,
      "chip": "ym2612"
    },
    {
      "channel": 2,
      "note": 52,
      "start": 69.0256,
      "duration": 0.0162,
      "velocity": 93,
      "chip": "ym2612"
    },
    {
      "channel": 1,
      "note": 75,
      "start": 69.0353,
      "duration": 0.0158,
      "velocity": 124,
      "chip": "ym2612"
    },
    {
      "channel": 0,
      "note": 38,
      "start": 69.0371,
      "duration": 0.0161,
      "velocity": 115,
      "chip": "ym2612"
    },
    {
      "channel": 5,
      "note": 83,
      "start": 69.0383,
      "duration": 0.0161,
      "velocity": 98,
      "chip": "ym2612"
    },
    {
      "channel": 4,
      "note": 88,
      "start": 69.0394,
      "duration": 0.0161,
      "velocity": 98,
      "chip": "ym2612"
    },
    {
      "channel": 3,
      "note": 80,
      "start": 69.0406,
      "duration": 0.0161,
      "velocity": 103,
      "chip": "ym2612"
    },
    {
      "channel": 2,
      "note": 52,
      "start": 69.0418,
      "duration": 0.0161,
      "velocity": 93,
      "chip": "ym2612"
    },
    {
      "channel": 1,
      "note": 72,
      "start": 69.0511,
      "duration": 0.0183,
      "velocity": 124,
      "chip": "ym2612"
    },
    {
      "channel": 0,
      "note": 38,
      "start": 69.0532,
      "duration": 0.0179,
      "velocity": 115,
      "chip": "ym2612"
    },
    {
      "channel": 5,
      "note": 83,
      "start": 69.0544,
      "duration": 0.0179,
      "velocity": 98,
      "chip": "ym2612"
    },
    {
      "channel": 4,
      "note": 88,
      "start": 69.0555,
      "duration": 0.0179,
      "velocity": 98,
      "chip": "ym2612"
    },
    {
      "channel": 3,
      "note": 80,
      "start": 69.0566,
      "duration": 0.018,
      "velocity": 103,
      "chip": "ym2612"
    },
    {
      "channel": 2,
      "note": 52,
      "start": 69.0579,
      "duration": 0.018,
      "velocity": 93,
      "chip": "ym2612"
    },
    {
      "channel": 1,
      "note": 84,
      "start": 69.0694,
      "duration": 0.0137,
      "velocity": 124,
      "chip": "ym2612"
    },
    {
      "channel": 0,
      "note": 39,
      "start": 69.0712,
      "duration": 0.0142,
      "velocity": 115,
      "chip": "ym2612"
    },
    {
      "channel": 5,
      "note": 83,
      "start": 69.0723,
      "duration": 0.0143,
      "velocity": 98,
      "chip": "ym2612"
    },
    {
      "channel": 4,
      "note": 88,
      "start": 69.0734,
      "duration": 0.0143,
      "velocity": 98,
      "chip": "ym2612"
    },
    {
      "channel": 3,
      "note": 80,
      "start": 69.0746,
      "duration": 0.0143,
      "velocity": 103,
      "chip": "ym2612"
    },
    {
      "channel": 2,
      "note": 52,
      "start": 69.0759,
      "duration": 0.0143,
      "velocity": 93,
      "chip": "ym2612"
    },
    {
      "channel": 1,
      "note": 82,
      "start": 69.0832,
      "duration": 0.016,
      "velocity": 124,
      "chip": "ym2612"
    },
    {
      "channel": 0,
      "note": 39,
      "start": 69.0854,
      "duration": 0.0157,
      "velocity": 115,
      "chip": "ym2612"
    },
    {
      "channel": 5,
      "note": 83,
      "start": 69.0866,
      "duration": 0.016,
      "velocity": 98,
      "chip": "ym2612"
    },
    {
      "channel": 4,
      "note": 88,
      "start": 69.0878,
      "duration": 0.0161,
      "velocity": 98,
      "chip": "ym2612"
    },
    {
      "channel": 2,
      "note": 52,
      "start": 69.0902,
      "duration": 0.016,
      "velocity": 93,
      "chip": "ym2612"
    },
    {
      "channel": 1,
      "note": 80,
      "start": 69.0992,
      "duration": 0.0161,
      "velocity": 124,
      "chip": "ym2612"
    },
    {
      "channel": 0,
      "note": 40,
      "start": 69.1011,
      "duration": 0.0159,
      "velocity": 115,
      "chip": "ym2612"
    },
    {
      "channel": 5,
      "note": 83,
      "start": 69.1027,
      "duration": 0.0161,
      "velocity": 98,
      "chip": "ym2612"
    },
    {
      "channel": 4,
      "note": 88,
      "start": 69.1039,
      "duration": 0.0162,
      "velocity": 98,
      "chip": "ym2612"
    },
    {
      "channel": 2,
      "note": 52,
      "start": 69.1062,
      "duration": 0.0166,
      "velocity": 93,
      "chip": "ym2612"
    },
    {
      "channel": 1,
      "note": 77,
      "start": 69.1153,
      "duration": 0.0161,
      "velocity": 124,
      "chip": "ym2612"
    },
    {
      "channel": 0,
      "note": 40,
      "start": 69.117,
      "duration": 0.0161,
      "velocity": 115,
      "chip": "ym2612"
    },
    {
      "channel": 5,
      "note": 83,
      "start": 69.1187,
      "duration": 0.0158,
      "velocity": 98,
      "chip": "ym2612"
    },
    {
      "channel": 4,
      "note": 88,
      "start": 69.1201,
      "duration": 0.0161,
      "velocity": 98,
      "chip": "ym2612"
    },
    {
      "channel": 3,
      "note": 80,
      "start": 69.1216,
      "duration": 0.0158,
      "velocity": 103,
      "chip": "ym2612"
    },
    {
      "channel": 2,
      "note": 52,
      "start": 69.1228,
      "duration": 0.0158,
      "velocity": 93,
      "chip": "ym2612"
    },
    {
      "channel": 1,
      "note": 75,
      "start": 69.1314,
      "duration": 0.0161,
      "velocity": 124,
      "chip": "ym2612"
    },
    {
      "channel": 0,
      "note": 40,
      "start": 69.1331,
      "duration": 0.0161,
      "velocity": 115,
      "chip": "ym2612"
    },
    {
      "channel": 5,
      "note": 83,
      "start": 69.1345,
      "duration": 0.0159,
      "velocity": 98,
      "chip": "ym2612"
    },
    {
      "channel": 4,
      "note": 88,
      "start": 69.1362,
      "duration": 0.016,
      "velocity": 98,
      "chip": "ym2612"
    },
    {
      "channel": 3,
      "note": 80,
      "start": 69.1374,
      "duration": 0.016,
      "velocity": 103,
      "chip": "ym2612"
    },
    {
      "channel": 2,
      "note": 52,
      "start": 69.1386,
      "duration": 0.016,
      "velocity": 93,
      "chip": "ym2612"
    },
    {
      "channel": 1,
      "note": 72,
      "start": 69.1475,
      "duration": 0.0161,
      "velocity": 124,
      "chip": "ym2612"
    },
    {
      "channel": 0,
      "note": 41,
      "start": 69.1492,
      "duration": 0.0179,
      "velocity": 127,
      "chip": "ym2612"
    },
    {
      "channel": 5,
      "note": 83,
      "start": 69.1504,
      "duration": 0.0185,
      "velocity": 98,
      "chip": "ym2612"
    },
    {
      "channel": 4,
      "note": 88,
      "start": 69.1522,
      "duration": 0.0179,
      "velocity": 98,
      "chip": "ym2612"
    },
    {
      "channel": 3,
      "note": 80,
      "start": 69.1534,
      "duration": 0.0179,
      "velocity": 103,
      "chip": "ym2612"
    },
    {
      "channel": 2,
      "note": 52,
      "start": 69.1546,
      "duration": 0.0179,
      "velocity": 93,
      "chip": "ym2612"
    },
    {
      "channel": 1,
      "note": 70,
      "start": 69.1636,
      "duration": 0.0161,
      "velocity": 124,
      "chip": "ym2612"
    },
    {
      "channel": 0,
      "note": 78,
      "start": 69.1672,
      "duration": 0.0142,
      "velocity": 127,
      "chip": "ym2612"
    },
    {
      "channel": 5,
      "note": 83,
      "start": 69.1689,
      "duration": 0.0137,
      "velocity": 98,
      "chip": "ym2612"
    },
    {
      "channel": 4,
      "note": 88,
      "start": 69.1701,
      "duration": 0.0136,
      "velocity": 98,
      "chip": "ym2612"
    },
    {
      "channel": 3,
      "note": 80,
      "start": 69.1713,
      "duration": 0.0141,
      "velocity": 103,
      "chip": "ym2612"
    },
    {
      "channel": 2,
      "note": 52,
      "start": 69.1725,
      "duration": 0.0142,
      "velocity": 93,
      "chip": "ym2612"
    },
    {
      "channel": 1,
      "note": 68,
      "start": 69.1797,
      "duration": 0.0161,
      "velocity": 124,
      "chip": "ym2612"
    },
    {
      "channel": 0,
      "note": 76,
      "start": 69.1815,
      "duration": 0.016,
      "velocity": 127,
      "chip": "ym2612"
    },
    {
      "channel": 5,
      "note": 83,
      "start": 69.1826,
      "duration": 0.016,
      "velocity": 98,
      "chip": "ym2612"
    },
    {
      "channel": 4,
      "note": 88,
      "start": 69.1837,
      "duration": 0.0161,
      "velocity": 98,
      "chip": "ym2612"
    },
    {
      "channel": 3,
      "note": 80,
      "start": 69.1855,
      "duration": 0.0157,
      "velocity": 103,
      "chip": "ym2612"
    },
    {
      "channel": 2,
      "note": 52,
      "start": 69.1867,
      "duration": 0.016,
      "velocity": 93,
      "chip": "ym2612"
    },
    {
      "channel": 1,
      "note": 65,
      "start": 69.1958,
      "duration": 0.0161,
      "velocity": 124,
      "chip": "ym2612"
    },
    {
      "channel": 0,
      "note": 75,
      "start": 69.1975,
      "duration": 0.0161,
      "velocity": 127,
      "chip": "ym2612"
    },
    {
      "channel": 5,
      "note": 83,
      "start": 69.1986,
      "duration": 0.0161,
      "velocity": 98,
      "chip": "ym2612"
    },
    {
      "channel": 4,
      "note": 88,
      "start": 69.1998,
      "duration": 0.0161,
      "velocity": 98,
      "chip": "ym2612"
    },
    {
      "channel": 3,
      "note": 80,
      "start": 69.2012,
      "duration": 0.016,
      "velocity": 103,
      "chip": "ym2612"
    },
    {
      "channel": 2,
      "note": 52,
      "start": 69.2028,
      "duration": 0.016,
      "velocity": 93,
      "chip": "ym2612"
    },
    {
      "channel": 1,
      "note": 63,
      "start": 69.2119,
      "duration": 0.0153,
      "velocity": 1,
      "chip": "ym2612"
    },
    {
      "channel": 0,
      "note": 73,
      "start": 69.2136,
      "duration": 0.0153,
      "velocity": 127,
      "chip": "ym2612"
    },
    {
      "channel": 5,
      "note": 83,
      "start": 69.2147,
      "duration": 0.0154,
      "velocity": 98,
      "chip": "ym2612"
    },
    {
      "channel": 4,
      "note": 88,
      "start": 69.2159,
      "duration": 0.0154,
      "velocity": 98,
      "chip": "ym2612"
    },
    {
      "channel": 3,
      "note": 80,
      "start": 69.2171,
      "duration": 0.0154,
      "velocity": 103,
      "chip": "ym2612"
    },
    {
      "channel": 2,
      "note": 52,
      "start": 69.2188,
      "duration": 0.015,
      "velocity": 93,
      "chip": "ym2612"
    },
    {
      "channel": 0,
      "note": 71,
      "start": 69.2288,
      "duration": 0.0153,
      "velocity": 127,
      "chip": "ym2612"
    },
    {
      "channel": 5,
      "note": 83,
      "start": 69.2301,
      "duration": 0.0153,
      "velocity": 98,
      "chip": "ym2612"
    },
    {
      "channel": 4,
      "note": 88,
      "start": 69.2313,
      "duration": 0.0153,
      "velocity": 98,
      "chip": "ym2612"
    },
    {
      "channel": 2,
      "note": 52,
      "start": 69.2338,
      "duration": 0.0153,
      "velocity": 93,
      "chip": "ym2612"
    },
    {
      "channel": 0,
      "note": 70,
      "start": 69.2441,
      "duration": 0.0179,
      "velocity": 124,
      "chip": "ym2612"
    },
    {
      "channel": 2,
      "note": 52,
      "start": 69.2491,
      "duration": 0.0186,
      "velocity": 93,
      "chip": "ym2612"
    },
    {
      "channel": 0,
      "note": 84,
      "start": 69.2621,
      "duration": 0.0143,
      "velocity": 124,
      "chip": "ym2612"
    },
    {
      "channel": 2,
      "note": 52,
      "start": 69.2677,
      "duration": 0.0137,
      "velocity": 93,
      "chip": "ym2612"
    },
    {
      "channel": 0,
      "note": 82,
      "start": 69.2764,
      "duration": 0.016,
      "velocity": 124,
      "chip": "ym2612"
    },
    {
      "channel": 2,
      "note": 52,
      "start": 69.2814,
      "duration": 0.0161,
      "velocity": 93,
      "chip": "ym2612"
    },
    {
      "channel": 0,
      "note": 80,
      "start": 69.2924,
      "duration": 0.0161,
      "velocity": 124,
      "chip": "ym2612"
    },
    {
      "channel": 2,
      "note": 52,
      "start": 69.2975,
      "duration": 0.0161,
      "velocity": 93,
      "chip": "ym2612"
    },
    {
      "channel": 0,
      "note": 77,
      "start": 69.3085,
      "duration": 0.0161,
      "velocity": 124,
      "chip": "ym2612"
    },
    {
      "channel": 2,
      "note": 52,
      "start": 69.3136,
      "duration": 0.0161,
      "velocity": 93,
      "chip": "ym2612"
    },
    {
      "channel": 0,
      "note": 75,
      "start": 69.3246,
      "duration": 0.0161,
      "velocity": 124,
      "chip": "ym2612"
    },
    {
      "channel": 2,
      "note": 52,
      "start": 69.3297,
      "duration": 0.0161,
      "velocity": 93,
      "chip": "ym2612"
    },
    {
      "channel": 0,
      "note": 72,
      "start": 69.3407,
      "duration": 0.0179,
      "velocity": 124,
      "chip": "ym2612"
    },
    {
      "channel": 2,
      "note": 52,
      "start": 69.3458,
      "duration": 0.0179,
      "velocity": 93,
      "chip": "ym2612"
    },
    {
      "channel": 0,
      "note": 84,
      "start": 69.3587,
      "duration": 0.0143,
      "velocity": 124,
      "chip": "ym2612"
    },
    {
      "channel": 2,
      "note": 52,
      "start": 69.3637,
      "duration": 0.0143,
      "velocity": 93,
      "chip": "ym2612"
    },
    {
      "channel": 0,
      "note": 82,
      "start": 69.373,
      "duration": 0.016,
      "velocity": 124,
      "chip": "ym2612"
    },
    {
      "channel": 2,
      "note": 52,
      "start": 69.378,
      "duration": 0.016,
      "velocity": 93,
      "chip": "ym2612"
    },
    {
      "channel": 0,
      "note": 80,
      "start": 69.389,
      "duration": 0.0161,
      "velocity": 124,
      "chip": "ym2612"
    },
    {
      "channel": 2,
      "note": 52,
      "start": 69.3941,
      "duration": 0.0161,
      "velocity": 93,
      "chip": "ym2612"
    },
    {
      "channel": 0,
      "note": 77,
      "start": 69.4051,
      "duration": 0.0161,
      "velocity": 124,
      "chip": "ym2612"
    },
    {
      "channel": 2,
      "note": 52,
      "start": 69.4102,
      "duration": 0.0161,
      "velocity": 93,
      "chip": "ym2612"
    },
    {
      "channel": 0,
      "note": 75,
      "start": 69.4212,
      "duration": 0.0162,
      "velocity": 124,
      "chip": "ym2612"
    },
    {
      "channel": 2,
      "note": 52,
      "start": 69.4263,
      "duration": 0.0162,
      "velocity": 93,
      "chip": "ym2612"
    },
    {
      "channel": 0,
      "note": 72,
      "start": 69.4374,
      "duration": 0.0181,
      "velocity": 127,
      "chip": "ym2612"
    },
    {
      "channel": 2,
      "note": 52,
      "start": 69.4425,
      "duration": 0.0181,
      "velocity": 93,
      "chip": "ym2612"
    },
    {
      "channel": 0,
      "note": 78,
      "start": 69.4556,
      "duration": 0.0144,
      "velocity": 127,
      "chip": "ym2612"
    },
    {
      "channel": 2,
      "note": 52,
      "start": 69.4606,
      "duration": 0.0144,
      "velocity": 93,
      "chip": "ym2612"
    },
    {
      "channel": 0,
      "note": 76,
      "start": 69.47,
      "duration": 0.0162,
      "velocity": 127,
      "chip": "ym2612"
    },
    {
      "channel": 2,
      "note": 52,
      "start": 69.475,
      "duration": 0.0162,
      "velocity": 93,
      "chip": "ym2612"
    },
    {
      "channel": 0,
      "note": 75,
      "start": 69.4862,
      "duration": 0.016,
      "velocity": 127,
      "chip": "ym2612"
    },
    {
      "channel": 2,
      "note": 52,
      "start": 69.4912,
      "duration": 0.0161,
      "velocity": 93,
      "chip": "ym2612"
    },
    {
      "channel": 0,
      "note": 73,
      "start": 69.5023,
      "duration": 0.0161,
      "velocity": 127,
      "chip": "ym2612"
    },
    {
      "channel": 2,
      "note": 52,
      "start": 69.5073,
      "duration": 0.0162,
      "velocity": 93,
      "chip": "ym2612"
    },
    {
      "channel": 0,
      "note": 71,
      "start": 69.5183,
      "duration": 0.0156,
      "velocity": 127,
      "chip": "ym2612"
    },
    {
      "channel": 2,
      "note": 52,
      "start": 69.5235,
      "duration": 0.016,
      "velocity": 93,
      "chip": "ym2612"
    },
    {
      "channel": 0,
      "note": 70,
      "start": 69.5339,
      "duration": 0.0193,
      "velocity": 115,
      "chip": "ym2612"
    },
    {
      "channel": 2,
      "note": 52,
      "start": 69.5395,
      "duration": 0.0139,
      "velocity": 93,
      "chip": "ym2612"
    },
    {
      "channel": 0,
      "note": 36,
      "start": 69.5533,
      "duration": 0.0001,
      "velocity": 115,
      "chip": "ym2612"
    }
  ]
}