{
  "track_name": "08 - Stage 6",
  "duration_sec": 33.8,
  "sample_rate": 44100,
  "note_count": 716,
  "unique_pitches": 19,
  "pitch_range": 42,
  "avg_note_duration": 0.2194,
  "reconstruction_stats": {
    "notes_reconstructed": 716,
    "keyon_events": 716,
    "keyoff_events": 695,
    "orphan_keyons": 5,
    "unique_pitches": 19,
    "pitch_range": 42,
    "avg_duration_sec": 0.2194
  },
  "metadata": {
    "source": "D\\Doraemon - Yume Dorobou to 7-nin no Gozans\\08 - Stage 6.vgm"
  },
  "notes": [
    {
      "channel": 0,
      "note": 76,
      "start": 0.0531,
      "duration": 0.1991,
      "velocity": 113,
      "chip": "ym2612"
    },
    {
      "channel": 1,
      "note": 76,
      "start": 0.0541,
      "duration": 0.1984,
      "velocity": 113,
      "chip": "ym2612"
    },
    {
      "channel": 2,
      "note": 76,
      "start": 0.055,
      "duration": 0.1978,
      "velocity": 113,
      "chip": "ym2612"
    },
    {
      "channel": 3,
      "note": 76,
      "start": 0.056,
      "duration": 0.197,
      "velocity": 113,
      "chip": "ym2612"
    },
    {
      "channel": 4,
      "note": 57,
      "start": 0.0571,
      "duration": 0.0952,
      "velocity": 120,
      "chip": "ym2612"
    },
    {
      "channel": 0,
      "note": 80,
      "start": 0.2524,
      "duration": 0.2163,
      "velocity": 113,
      "chip": "ym2612"
    },
    {
      "channel": 1,
      "note": 80,
      "start": 0.2527,
      "duration": 0.2162,
      "velocity": 113,
      "chip": "ym2612"
    },
    {
      "channel": 2,
      "note": 80,
      "start": 0.253,
      "duration": 0.2163,
      "velocity": 113,
      "chip": "ym2612"
    },
    {
      "channel": 3,
      "note": 80,
      "start": 0.2532,
      "duration": 0.2163,
      "velocity": 113,
      "chip": "ym2612"
    },
    {
      "channel": 4,
      "note": 57,
      "start": 0.2536,
      "duration": 0.1153,
      "velocity": 120,
      "chip": "ym2612"
    },
    {
      "channel": 4,
      "note": 57,
      "start": 0.3691,
      "duration": 0.1014,
      "velocity": 120,
      "chip": "ym2612"
    },
    {
      "channel": 0,
      "note": 88,
      "start": 0.4689,
      "duration": 0.1998,
      "velocity": 113,
      "chip": "ym2612"
    },
    {
      "channel": 1,
      "note": 88,
      "start": 0.4692,
      "duration": 0.1998,
      "velocity": 113,
      "chip": "ym2612"
    },
    {
      "channel": 2,
      "note": 88,
      "start": 0.4695,
      "duration": 0.1998,
      "velocity": 113,
      "chip": "ym2612"
    },
    {
      "channel": 3,
      "note": 88,
      "start": 0.4697,
      "duration": 0.1998,
      "velocity": 113,
      "chip": "ym2612"
    },
    {
      "channel": 4,
      "note": 57,
      "start": 0.4708,
      "duration": 0.0981,
      "velocity": 120,
      "chip": "ym2612"
    },
    {
      "channel": 0,
      "note": 76,
      "start": 0.6689,
      "duration": 0.2165,
      "velocity": 113,
      "chip": "ym2612"
    },
    {
      "channel": 1,
      "note": 76,
      "start": 0.6692,
      "duration": 0.2165,
      "velocity": 113,
      "chip": "ym2612"
    },
    {
      "channel": 2,
      "note": 76,
      "start": 0.6695,
      "duration": 0.2165,
      "velocity": 113,
      "chip": "ym2612"
    },
    {
      "channel": 3,
      "note": 76,
      "start": 0.6697,
      "duration": 0.2165,
      "velocity": 113,
      "chip": "ym2612"
    },
    {
      "channel": 4,
      "note": 57,
      "start": 0.67,
      "duration": 0.1157,
      "velocity": 120,
      "chip": "ym2612"
    },
    {
      "channel": 4,
      "note": 57,
      "start": 0.7859,
      "duration": 0.1013,
      "velocity": 120,
      "chip": "ym2612"
    },
    {
      "channel": 0,
      "note": 80,
      "start": 0.8856,
      "duration": 0.1998,
      "velocity": 113,
      "chip": "ym2612"
    },
    {
      "channel": 1,
      "note": 80,
      "start": 0.8859,
      "duration": 0.1998,
      "velocity": 113,
      "chip": "ym2612"
    },
    {
      "channel": 2,
      "note": 80,
      "start": 0.8861,
      "duration": 0.1998,
      "velocity": 113,
      "chip": "ym2612"
    },
    {
      "channel": 3,
      "note": 80,
      "start": 0.8864,
      "duration": 0.1998,
      "velocity": 113,
      "chip": "ym2612"
    },
    {
      "channel": 4,
      "note": 57,
      "start": 0.8875,
      "duration": 0.0983,
      "velocity": 120,
      "chip": "ym2612"
    },
    {
      "channel": 0,
      "note": 88,
      "start": 1.0856,
      "duration": 0.2164,
      "velocity": 113,
      "chip": "ym2612"
    },
    {
      "channel": 1,
      "note": 88,
      "start": 1.0859,
      "duration": 0.2165,
      "velocity": 113,
      "chip": "ym2612"
    },
    {
      "channel": 2,
      "note": 88,
      "start": 1.0861,
      "duration": 0.2165,
      "velocity": 113,
      "chip": "ym2612"
    },
    {
      "channel": 3,
      "note": 88,
      "start": 1.0864,
      "duration": 0.2164,
      "velocity": 113,
      "chip": "ym2612"
    },
    {
      "channel": 4,
      "note": 57,
      "start": 1.0867,
      "duration": 0.1155,
      "velocity": 120,
      "chip": "ym2612"
    },
    {
      "channel": 4,
      "note": 57,
      "start": 1.2024,
      "duration": 0.1015,
      "velocity": 120,
      "chip": "ym2612"
    },
    {
      "channel": 0,
      "note": 76,
      "start": 1.3023,
      "duration": 0.1998,
      "velocity": 113,
      "chip": "ym2612"
    },
    {
      "channel": 1,
      "note": 76,
      "start": 1.3025,
      "duration": 0.1998,
      "velocity": 113,
      "chip": "ym2612"
    },
    {
      "channel": 2,
      "note": 76,
      "start": 1.3028,
      "duration": 0.1998,
      "velocity": 113,
      "chip": "ym2612"
    },
    {
      "channel": 3,
      "note": 76,
      "start": 1.3031,
      "duration": 0.1998,
      "velocity": 113,
      "chip": "ym2612"
    },
    {
      "channel": 4,
      "note": 57,
      "start": 1.3041,
      "duration": 0.0981,
      "velocity": 120,
      "chip": "ym2612"
    },
    {
      "channel": 0,
      "note": 88,
      "start": 1.5023,
      "duration": 0.2172,
      "velocity": 113,
      "chip": "ym2612"
    },
    {
      "channel": 1,
      "note": 88,
      "start": 1.5025,
      "duration": 0.2179,
      "velocity": 113,
      "chip": "ym2612"
    },
    {
      "channel": 2,
      "note": 88,
      "start": 1.5028,
      "duration": 0.2186,
      "velocity": 113,
      "chip": "ym2612"
    },
    {
      "channel": 3,
      "note": 88,
      "start": 1.5031,
      "duration": 0.2193,
      "velocity": 113,
      "chip": "ym2612"
    },
    {
      "channel": 4,
      "note": 57,
      "start": 1.5034,
      "duration": 0.1155,
      "velocity": 120,
      "chip": "ym2612"
    },
    {
      "channel": 4,
      "note": 57,
      "start": 1.6191,
      "duration": 0.1044,
      "velocity": 120,
      "chip": "ym2612"
    },
    {
      "channel": 0,
      "note": 74,
      "start": 1.7198,
      "duration": 0.1991,
      "velocity": 113,
      "chip": "ym2612"
    },
    {
      "channel": 1,
      "note": 74,
      "start": 1.7207,
      "duration": 0.1984,
      "velocity": 113,
      "chip": "ym2612"
    },
    {
      "channel": 2,
      "note": 74,
      "start": 1.7217,
      "duration": 0.1978,
      "velocity": 113,
      "chip": "ym2612"
    },
    {
      "channel": 3,
      "note": 74,
      "start": 1.7227,
      "duration": 0.197,
      "velocity": 113,
      "chip": "ym2612"
    },
    {
      "channel": 4,
      "note": 57,
      "start": 1.7237,
      "duration": 0.0952,
      "velocity": 120,
      "chip": "ym2612"
    },
    {
      "channel": 0,
      "note": 78,
      "start": 1.9191,
      "duration": 0.2163,
      "velocity": 113,
      "chip": "ym2612"
    },
    {
      "channel": 1,
      "note": 78,
      "start": 1.9194,
      "duration": 0.2162,
      "velocity": 113,
      "chip": "ym2612"
    },
    {
      "channel": 2,
      "note": 78,
      "start": 1.9197,
      "duration": 0.2163,
      "velocity": 113,
      "chip": "ym2612"
    },
    {
      "channel": 3,
      "note": 78,
      "start": 1.9199,
      "duration": 0.2163,
      "velocity": 113,
      "chip": "ym2612"
    },
    {
      "channel": 4,
      "note": 57,
      "start": 1.9202,
      "duration": 0.1153,
      "velocity": 120,
      "chip": "ym2612"
    },
    {
      "channel": 4,
      "note": 57,
      "start": 2.0358,
      "duration": 0.1014,
      "velocity": 120,
      "chip": "ym2612"
    },
    {
      "channel": 0,
      "note": 86,
      "start": 2.1356,
      "duration": 0.1998,
      "velocity": 113,
      "chip": "ym2612"
    },
    {
      "channel": 1,
      "note": 86,
      "start": 2.1359,
      "duration": 0.1998,
      "velocity": 113,
      "chip": "ym2612"
    },
    {
      "channel": 2,
      "note": 86,
      "start": 2.1361,
      "duration": 0.1998,
      "velocity": 113,
      "chip": "ym2612"
    },
    {
      "channel": 3,
      "note": 86,
      "start": 2.1364,
      "duration": 0.1998,
      "velocity": 113,
      "chip": "ym2612"
    },
    {
      "channel": 4,
      "note": 57,
      "start": 2.1375,
      "duration": 0.0981,
      "velocity": 120,
      "chip": "ym2612"
    },
    {
      "channel": 0,
      "note": 74,
      "start": 2.3356,
      "duration": 0.2165,
      "velocity": 113,
      "chip": "ym2612"
    },
    {
      "channel": 1,
      "note": 74,
      "start": 2.3359,
      "duration": 0.2165,
      "velocity": 113,
      "chip": "ym2612"
    },
    {
      "channel": 2,
      "note": 74,
      "start": 2.3361,
      "duration": 0.2165,
      "velocity": 113,
      "chip": "ym2612"
    },
    {
      "channel": 3,
      "note": 74,
      "start": 2.3364,
      "duration": 0.2165,
      "velocity": 113,
      "chip": "ym2612"
    },
    {
      "channel": 4,
      "note": 57,
      "start": 2.3367,
      "duration": 0.1157,
      "velocity": 120,
      "chip": "ym2612"
    },
    {
      "channel": 4,
      "note": 57,
      "start": 2.4526,
      "duration": 0.1013,
      "velocity": 120,
      "chip": "ym2612"
    },
    {
      "channel": 0,
      "note": 78,
      "start": 2.5523,
      "duration": 0.1998,
      "velocity": 113,
      "chip": "ym2612"
    },
    {
      "channel": 1,
      "note": 78,
      "start": 2.5525,
      "duration": 0.1998,
      "velocity": 113,
      "chip": "ym2612"
    },
    {
      "channel": 2,
      "note": 78,
      "start": 2.5528,
      "duration": 0.1998,
      "velocity": 113,
      "chip": "ym2612"
    },
    {
      "channel": 3,
      "note": 78,
      "start": 2.5531,
      "duration": 0.1998,
      "velocity": 113,
      "chip": "ym2612"
    },
    {
      "channel": 4,
      "note": 57,
      "start": 2.5541,
      "duration": 0.0983,
      "velocity": 120,
      "chip": "ym2612"
    },
    {
      "channel": 0,
      "note": 86,
      "start": 2.7523,
      "duration": 0.2164,
      "velocity": 113,
      "chip": "ym2612"
    },
    {
      "channel": 1,
      "note": 86,
      "start": 2.7525,
      "duration": 0.2165,
      "velocity": 113,
      "chip": "ym2612"
    },
    {
      "channel": 2,
      "note": 86,
      "start": 2.7528,
      "duration": 0.2165,
      "velocity": 113,
      "chip": "ym2612"
    },
    {
      "channel": 3,
      "note": 86,
      "start": 2.7531,
      "duration": 0.2164,
      "velocity": 113,
      "chip": "ym2612"
    },
    {
      "channel": 4,
      "note": 57,
      "start": 2.7534,
      "duration": 0.1155,
      "velocity": 120,
      "chip": "ym2612"
    },
    {
      "channel": 4,
      "note": 57,
      "start": 2.8691,
      "duration": 0.1015,
      "velocity": 120,
      "chip": "ym2612"
    },
    {
      "channel": 0,
      "note": 74,
      "start": 2.969,
      "duration": 0.1998,
      "velocity": 113,
      "chip": "ym2612"
    },
    {
      "channel": 1,
      "note": 74,
      "start": 2.9692,
      "duration": 0.1998,
      "velocity": 113,
      "chip": "ym2612"
    },
    {
      "channel": 2,
      "note": 74,
      "start": 2.9695,
      "duration": 0.1998,
      "velocity": 113,
      "chip": "ym2612"
    },
    {
      "channel": 3,
      "note": 74,
      "start": 2.9698,
      "duration": 0.1998,
      "velocity": 113,
      "chip": "ym2612"
    },
    {
      "channel": 4,
      "note": 57,
      "start": 2.9708,
      "duration": 0.0981,
      "velocity": 120,
      "chip": "ym2612"
    },
    {
      "channel": 0,
      "note": 86,
      "start": 3.169,
      "duration": 0.2172,
      "velocity": 113,
      "chip": "ym2612"
    },
    {
      "channel": 1,
      "note": 86,
      "start": 3.1692,
      "duration": 0.2179,
      "velocity": 113,
      "chip": "ym2612"
    },
    {
      "channel": 2,
      "note": 86,
      "start": 3.1695,
      "duration": 0.2186,
      "velocity": 113,
      "chip": "ym2612"
    },
    {
      "channel": 3,
      "note": 86,
      "start": 3.1698,
      "duration": 0.2194,
      "velocity": 113,
      "chip": "ym2612"
    },
    {
      "channel": 4,
      "note": 57,
      "start": 3.17,
      "duration": 0.1155,
      "velocity": 120,
      "chip": "ym2612"
    },
    {
      "channel": 4,
      "note": 57,
      "start": 3.2858,
      "duration": 0.1044,
      "velocity": 120,
      "chip": "ym2612"
    },
    {
      "channel": 0,
      "note": 76,
      "start": 3.3864,
      "duration": 0.1991,
      "velocity": 113,
      "chip": "ym2612"
    },
    {
      "channel": 1,
      "note": 76,
      "start": 3.3874,
      "duration": 0.1984,
      "velocity": 113,
      "chip": "ym2612"
    },
    {
      "channel": 2,
      "note": 76,
      "start": 3.3883,
      "duration": 0.1978,
      "velocity": 113,
      "chip": "ym2612"
    },
    {
      "channel": 3,
      "note": 76,
      "start": 3.3894,
      "duration": 0.197,
      "velocity": 113,
      "chip": "ym2612"
    },
    {
      "channel": 4,
      "note": 57,
      "start": 3.3905,
      "duration": 0.0951,
      "velocity": 120,
      "chip": "ym2612"
    },
    {
      "channel": 0,
      "note": 80,
      "start": 3.5857,
      "duration": 0.2163,
      "velocity": 113,
      "chip": "ym2612"
    },
    {
      "channel": 1,
      "note": 80,
      "start": 3.5861,
      "duration": 0.2162,
      "velocity": 113,
      "chip": "ym2612"
    },
    {
      "channel": 2,
      "note": 80,
      "start": 3.5863,
      "duration": 0.2163,
      "velocity": 113,
      "chip": "ym2612"
    },
    {
      "channel": 3,
      "note": 80,
      "start": 3.5866,
      "duration": 0.2163,
      "velocity": 113,
      "chip": "ym2612"
    },
    {
      "channel": 4,
      "note": 57,
      "start": 3.5869,
      "duration": 0.1153,
      "velocity": 120,
      "chip": "ym2612"
    },
    {
      "channel": 4,
      "note": 57,
      "start": 3.7025,
      "duration": 0.1014,
      "velocity": 120,
      "chip": "ym2612"
    },
    {
      "channel": 0,
      "note": 88,
      "start": 3.8022,
      "duration": 0.1998,
      "velocity": 113,
      "chip": "ym2612"
    },
    {
      "channel": 1,
      "note": 88,
      "start": 3.8025,
      "duration": 0.1998,
      "velocity": 113,
      "chip": "ym2612"
    },
    {
      "channel": 2,
      "note": 88,
      "start": 3.8028,
      "duration": 0.1998,
      "velocity": 113,
      "chip": "ym2612"
    },
    {
      "channel": 3,
      "note": 88,
      "start": 3.803,
      "duration": 0.1998,
      "velocity": 113,
      "chip": "ym2612"
    },
    {
      "channel": 4,
      "note": 57,
      "start": 3.8041,
      "duration": 0.0981,
      "velocity": 120,
      "chip": "ym2612"
    },
    {
      "channel": 0,
      "note": 76,
      "start": 4.0022,
      "duration": 0.2165,
      "velocity": 113,
      "chip": "ym2612"
    },
    {
      "channel": 1,
      "note": 76,
      "start": 4.0025,
      "duration": 0.2165,
      "velocity": 113,
      "chip": "ym2612"
    },
    {
      "channel": 2,
      "note": 76,
      "start": 4.0028,
      "duration": 0.2165,
      "velocity": 113,
      "chip": "ym2612"
    },
    {
      "channel": 3,
      "note": 76,
      "start": 4.003,
      "duration": 0.2165,
      "velocity": 113,
      "chip": "ym2612"
    },
    {
      "channel": 4,
      "note": 57,
      "start": 4.0034,
      "duration": 0.1157,
      "velocity": 120,
      "chip": "ym2612"
    },
    {
      "channel": 4,
      "note": 57,
      "start": 4.1193,
      "duration": 0.1013,
      "velocity": 120,
      "chip": "ym2612"
    },
    {
      "channel": 0,
      "note": 80,
      "start": 4.219,
      "duration": 0.1998,
      "velocity": 113,
      "chip": "ym2612"
    },
    {
      "channel": 1,
      "note": 80,
      "start": 4.2192,
      "duration": 0.1998,
      "velocity": 113,
      "chip": "ym2612"
    },
    {
      "channel": 2,
      "note": 80,
      "start": 4.2195,
      "duration": 0.1998,
      "velocity": 113,
      "chip": "ym2612"
    },
    {
      "channel": 3,
      "note": 80,
      "start": 4.2198,
      "duration": 0.1998,
      "velocity": 113,
      "chip": "ym2612"
    },
    {
      "channel": 4,
      "note": 57,
      "start": 4.2208,
      "duration": 0.0983,
      "velocity": 120,
      "chip": "ym2612"
    },
    {
      "channel": 0,
      "note": 88,
      "start": 4.419,
      "duration": 0.2164,
      "velocity": 113,
      "chip": "ym2612"
    },
    {
      "channel": 1,
      "note": 88,
      "start": 4.4192,
      "duration": 0.2165,
      "velocity": 113,
      "chip": "ym2612"
    },
    {
      "channel": 2,
      "note": 88,
      "start": 4.4195,
      "duration": 0.2165,
      "velocity": 113,
      "chip": "ym2612"
    },
    {
      "channel": 3,
      "note": 88,
      "start": 4.4198,
      "duration": 0.2164,
      "velocity": 113,
      "chip": "ym2612"
    },
    {
      "channel": 4,
      "note": 57,
      "start": 4.42,
      "duration": 0.1155,
      "velocity": 120,
      "chip": "ym2612"
    },
    {
      "channel": 4,
      "note": 57,
      "start": 4.5357,
      "duration": 0.1015,
      "velocity": 120,
      "chip": "ym2612"
    },
    {
      "channel": 0,
      "note": 76,
      "start": 4.6356,
      "duration": 0.1998,
      "velocity": 113,
      "chip": "ym2612"
    },
    {
      "channel": 1,
      "note": 76,
      "start": 4.6359,
      "duration": 0.1998,
      "velocity": 113,
      "chip": "ym2612"
    },
    {
      "channel": 2,
      "note": 76,
      "start": 4.6361,
      "duration": 0.1998,
      "velocity": 113,
      "chip": "ym2612"
    },
    {
      "channel": 3,
      "note": 76,
      "start": 4.6364,
      "duration": 0.1998,
      "velocity": 113,
      "chip": "ym2612"
    },
    {
      "channel": 4,
      "note": 57,
      "start": 4.6375,
      "duration": 0.0981,
      "velocity": 120,
      "chip": "ym2612"
    },
    {
      "channel": 0,
      "note": 88,
      "start": 4.8356,
      "duration": 0.2172,
      "velocity": 113,
      "chip": "ym2612"
    },
    {
      "channel": 1,
      "note": 88,
      "start": 4.8359,
      "duration": 0.2179,
      "velocity": 113,
      "chip": "ym2612"
    },
    {
      "channel": 2,
      "note": 88,
      "start": 4.8361,
      "duration": 0.2186,
      "velocity": 113,
      "chip": "ym2612"
    },
    {
      "channel": 3,
      "note": 88,
      "start": 4.8364,
      "duration": 0.2193,
      "velocity": 113,
      "chip": "ym2612"
    },
    {
      "channel": 4,
      "note": 57,
      "start": 4.8367,
      "duration": 0.1155,
      "velocity": 120,
      "chip": "ym2612"
    },
    {
      "channel": 4,
      "note": 57,
      "start": 4.9525,
      "duration": 0.1044,
      "velocity": 120,
      "chip": "ym2612"
    },
    {
      "channel": 0,
      "note": 74,
      "start": 5.0531,
      "duration": 0.1991,
      "velocity": 113,
      "chip": "ym2612"
    },
    {
      "channel": 1,
      "note": 74,
      "start": 5.0541,
      "duration": 0.1984,
      "velocity": 113,
      "chip": "ym2612"
    },
    {
      "channel": 2,
      "note": 74,
      "start": 5.055,
      "duration": 0.1978,
      "velocity": 113,
      "chip": "ym2612"
    },
    {
      "channel": 3,
      "note": 74,
      "start": 5.056,
      "duration": 0.197,
      "velocity": 113,
      "chip": "ym2612"
    },
    {
      "channel": 4,
      "note": 57,
      "start": 5.0571,
      "duration": 0.0952,
      "velocity": 120,
      "chip": "ym2612"
    },
    {
      "channel": 0,
      "note": 78,
      "start": 5.2524,
      "duration": 0.2163,
      "velocity": 113,
      "chip": "ym2612"
    },
    {
      "channel": 1,
      "note": 78,
      "start": 5.2527,
      "duration": 0.2162,
      "velocity": 113,
      "chip": "ym2612"
    },
    {
      "channel": 2,
      "note": 78,
      "start": 5.253,
      "duration": 0.2163,
      "velocity": 113,
      "chip": "ym2612"
    },
    {
      "channel": 3,
      "note": 78,
      "start": 5.2532,
      "duration": 0.2163,
      "velocity": 113,
      "chip": "ym2612"
    },
    {
      "channel": 4,
      "note": 57,
      "start": 5.2536,
      "duration": 0.1153,
      "velocity": 120,
      "chip": "ym2612"
    },
    {
      "channel": 4,
      "note": 57,
      "start": 5.3691,
      "duration": 0.1014,
      "velocity": 120,
      "chip": "ym2612"
    },
    {
      "channel": 0,
      "note": 86,
      "start": 5.4689,
      "duration": 0.1998,
      "velocity": 113,
      "chip": "ym2612"
    },
    {
      "channel": 1,
      "note": 86,
      "start": 5.4692,
      "duration": 0.1998,
      "velocity": 113,
      "chip": "ym2612"
    },
    {
      "channel": 2,
      "note": 86,
      "start": 5.4695,
      "duration": 0.1998,
      "velocity": 113,
      "chip": "ym2612"
    },
    {
      "channel": 3,
      "note": 86,
      "start": 5.4697,
      "duration": 0.1998,
      "velocity": 113,
      "chip": "ym2612"
    },
    {
      "channel": 4,
      "note": 57,
      "start": 5.4708,
      "duration": 0.0981,
      "velocity": 120,
      "chip": "ym2612"
    },
    {
      "channel": 0,
      "note": 74,
      "start": 5.6689,
      "duration": 0.2165,
      "velocity": 113,
      "chip": "ym2612"
    },
    {
      "channel": 1,
      "note": 74,
      "start": 5.6692,
      "duration": 0.2165,
      "velocity": 113,
      "chip": "ym2612"
    },
    {
      "channel": 2,
      "note": 74,
      "start": 5.6695,
      "duration": 0.2165,
      "velocity": 113,
      "chip": "ym2612"
    },
    {
      "channel": 3,
      "note": 74,
      "start": 5.6697,
      "duration": 0.2165,
      "velocity": 113,
      "chip": "ym2612"
    },
    {
      "channel": 4,
      "note": 57,
      "start": 5.67,
      "duration": 0.1157,
      "velocity": 120,
      "chip": "ym2612"
    },
    {
      "channel": 4,
      "note": 57,
      "start": 5.7859,
      "duration": 0.1013,
      "velocity": 120,
      "chip": "ym2612"
    },
    {
      "channel": 0,
      "note": 78,
      "start": 5.8856,
      "duration": 0.1998,
      "velocity": 113,
      "chip": "ym2612"
    },
    {
      "channel": 1,
      "note": 78,
      "start": 5.8859,
      "duration": 0.1998,
      "velocity": 113,
      "chip": "ym2612"
    },
    {
      "channel": 2,
      "note": 78,
      "start": 5.8861,
      "duration": 0.1998,
      "velocity": 113,
      "chip": "ym2612"
    },
    {
      "channel": 3,
      "note": 78,
      "start": 5.8864,
      "duration": 0.1998,
      "velocity": 113,
      "chip": "ym2612"
    },
    {
      "channel": 4,
      "note": 57,
      "start": 5.8875,
      "duration": 0.0983,
      "velocity": 120,
      "chip": "ym2612"
    },
    {
      "channel": 0,
      "note": 86,
      "start": 6.0856,
      "duration": 0.2164,
      "velocity": 113,
      "chip": "ym2612"
    },
    {
      "channel": 1,
      "note": 86,
      "start": 6.0859,
      "duration": 0.2165,
      "velocity": 113,
      "chip": "ym2612"
    },
    {
      "channel": 2,
      "note": 86,
      "start": 6.0861,
      "duration": 0.2165,
      "velocity": 113,
      "chip": "ym2612"
    },
    {
      "channel": 3,
      "note": 86,
      "start": 6.0864,
      "duration": 0.2164,
      "velocity": 113,
      "chip": "ym2612"
    },
    {
      "channel": 4,
      "note": 57,
      "start": 6.0867,
      "duration": 0.1155,
      "velocity": 120,
      "chip": "ym2612"
    },
    {
      "channel": 4,
      "note": 57,
      "start": 6.2024,
      "duration": 0.1015,
      "velocity": 120,
      "chip": "ym2612"
    },
    {
      "channel": 0,
      "note": 74,
      "start": 6.3023,
      "duration": 0.1998,
      "velocity": 113,
      "chip": "ym2612"
    },
    {
      "channel": 1,
      "note": 74,
      "start": 6.3025,
      "duration": 0.1998,
      "velocity": 113,
      "chip": "ym2612"
    },
    {
      "channel": 2,
      "note": 74,
      "start": 6.3028,
      "duration": 0.1998,
      "velocity": 113,
      "chip": "ym2612"
    },
    {
      "channel": 3,
      "note": 74,
      "start": 6.3031,
      "duration": 0.1998,
      "velocity": 113,
      "chip": "ym2612"
    },
    {
      "channel": 4,
      "note": 57,
      "start": 6.3041,
      "duration": 0.0981,
      "velocity": 120,
      "chip": "ym2612"
    },
    {
      "channel": 0,
      "note": 86,
      "start": 6.5023,
      "duration": 0.2173,
      "velocity": 106,
      "chip": "ym2612"
    },
    {
      "channel": 1,
      "note": 86,
      "start": 6.5025,
      "duration": 0.2179,
      "velocity": 91,
      "chip": "ym2612"
    },
    {
      "channel": 2,
      "note": 86,
      "start": 6.5028,
      "duration": 0.2187,
      "velocity": 113,
      "chip": "ym2612"
    },
    {
      "channel": 3,
      "note": 86,
      "start": 6.5031,
      "duration": 0.2194,
      "velocity": 106,
      "chip": "ym2612"
    },
    {
      "channel": 4,
      "note": 57,
      "start": 6.5034,
      "duration": 0.1155,
      "velocity": 120,
      "chip": "ym2612"
    },
    {
      "channel": 4,
      "note": 57,
      "start": 6.6191,
      "duration": 0.1044,
      "velocity": 120,
      "chip": "ym2612"
    },
    {
      "channel": 0,
      "note": 76,
      "start": 6.7198,
      "duration": 1.6665,
      "velocity": 106,
      "chip": "ym2612"
    },
    {
      "channel": 1,
      "note": 52,
      "start": 6.7207,
      "duration": 1.2482,
      "velocity": 91,
      "chip": "ym2612"
    },
    {
      "channel": 2,
      "note": 76,
      "start": 6.7217,
      "duration": 0.1973,
      "velocity": 113,
      "chip": "ym2612"
    },
    {
      "channel": 3,
      "note": 71,
      "start": 6.7227,
      "duration": 1.6664,
      "velocity": 106,
      "chip": "ym2612"
    },
    {
      "channel": 4,
      "note": 57,
      "start": 6.7238,
      "duration": 0.0951,
      "velocity": 120,
      "chip": "ym2612"
    },
    {
      "channel": 2,
      "note": 80,
      "start": 6.9192,
      "duration": 0.2144,
      "velocity": 113,
      "chip": "ym2612"
    },
    {
      "channel": 4,
      "note": 57,
      "start": 6.9195,
      "duration": 0.116,
      "velocity": 120,
      "chip": "ym2612"
    },
    {
      "channel": 4,
      "note": 57,
      "start": 7.0358,
      "duration": 0.1007,
      "velocity": 120,
      "chip": "ym2612"
    },
    {
      "channel": 2,
      "note": 88,
      "start": 7.1357,
      "duration": 0.1997,
      "velocity": 113,
      "chip": "ym2612"
    },
    {
      "channel": 4,
      "note": 57,
      "start": 7.1368,
      "duration": 0.0988,
      "velocity": 120,
      "chip": "ym2612"
    },
    {
      "channel": 2,
      "note": 76,
      "start": 7.3357,
      "duration": 0.2165,
      "velocity": 113,
      "chip": "ym2612"
    },
    {
      "channel": 4,
      "note": 57,
      "start": 7.336,
      "duration": 0.1164,
      "velocity": 120,
      "chip": "ym2612"
    },
    {
      "channel": 4,
      "note": 57,
      "start": 7.4526,
      "duration": 0.1006,
      "velocity": 120,
      "chip": "ym2612"
    },
    {
      "channel": 2,
      "note": 80,
      "start": 7.5524,
      "duration": 0.1998,
      "velocity": 113,
      "chip": "ym2612"
    },
    {
      "channel": 4,
      "note": 57,
      "start": 7.5534,
      "duration": 0.099,
      "velocity": 120,
      "chip": "ym2612"
    },
    {
      "channel": 2,
      "note": 88,
      "start": 7.7524,
      "duration": 0.2167,
      "velocity": 113,
      "chip": "ym2612"
    },
    {
      "channel": 4,
      "note": 57,
      "start": 7.7527,
      "duration": 0.1162,
      "velocity": 120,
      "chip": "ym2612"
    },
    {
      "channel": 4,
      "note": 57,
      "start": 7.8691,
      "duration": 0.101,
      "velocity": 120,
      "chip": "ym2612"
    },
    {
      "channel": 1,
      "note": 52,
      "start": 7.969,
      "duration": 0.1998,
      "velocity": 91,
      "chip": "ym2612"
    },
    {
      "channel": 2,
      "note": 76,
      "start": 7.9692,
      "duration": 0.1998,
      "velocity": 113,
      "chip": "ym2612"
    },
    {
      "channel": 4,
      "note": 57,
      "start": 7.9703,
      "duration": 0.0985,
      "velocity": 120,
      "chip": "ym2612"
    },
    {
      "channel": 1,
      "note": 52,
      "start": 8.169,
      "duration": 0.2182,
      "velocity": 91,
      "chip": "ym2612"
    },
    {
      "channel": 2,
      "note": 88,
      "start": 8.1693,
      "duration": 0.2188,
      "velocity": 113,
      "chip": "ym2612"
    },
    {
      "channel": 4,
      "note": 57,
      "start": 8.1696,
      "duration": 0.116,
      "velocity": 120,
      "chip": "ym2612"
    },
    {
      "channel": 4,
      "note": 57,
      "start": 8.2858,
      "duration": 0.1044,
      "velocity": 120,
      "chip": "ym2612"
    },
    {
      "channel": 0,
      "note": 74,
      "start": 8.3864,
      "duration": 1.6665,
      "velocity": 106,
      "chip": "ym2612"
    },
    {
      "channel": 1,
      "note": 50,
      "start": 8.3874,
      "duration": 1.2482,
      "velocity": 91,
      "chip": "ym2612"
    },
    {
      "channel": 2,
      "note": 74,
      "start": 8.3883,
      "duration": 0.1973,
      "velocity": 113,
      "chip": "ym2612"
    },
    {
      "channel": 3,
      "note": 69,
      "start": 8.3894,
      "duration": 1.6665,
      "velocity": 106,
      "chip": "ym2612"
    },
    {
      "channel": 4,
      "note": 57,
      "start": 8.3904,
      "duration": 0.0952,
      "velocity": 120,
      "chip": "ym2612"
    },
    {
      "channel": 2,
      "note": 78,
      "start": 8.5859,
      "duration": 0.2162,
      "velocity": 113,
      "chip": "ym2612"
    },
    {
      "channel": 4,
      "note": 57,
      "start": 8.5862,
      "duration": 0.116,
      "velocity": 120,
      "chip": "ym2612"
    },
    {
      "channel": 4,
      "note": 57,
      "start": 8.7025,
      "duration": 0.1007,
      "velocity": 120,
      "chip": "ym2612"
    },
    {
      "channel": 2,
      "note": 86,
      "start": 8.8024,
      "duration": 0.1997,
      "velocity": 113,
      "chip": "ym2612"
    },
    {
      "channel": 4,
      "note": 57,
      "start": 8.8034,
      "duration": 0.0988,
      "velocity": 120,
      "chip": "ym2612"
    },
    {
      "channel": 2,
      "note": 74,
      "start": 9.0024,
      "duration": 0.2165,
      "velocity": 113,
      "chip": "ym2612"
    },
    {
      "channel": 4,
      "note": 57,
      "start": 9.0027,
      "duration": 0.1164,
      "velocity": 120,
      "chip": "ym2612"
    },
    {
      "channel": 4,
      "note": 57,
      "start": 9.1193,
      "duration": 0.1006,
      "velocity": 120,
      "chip": "ym2612"
    },
    {
      "channel": 2,
      "note": 78,
      "start": 9.219,
      "duration": 0.1998,
      "velocity": 113,
      "chip": "ym2612"
    },
    {
      "channel": 4,
      "note": 57,
      "start": 9.2201,
      "duration": 0.099,
      "velocity": 120,
      "chip": "ym2612"
    },
    {
      "channel": 2,
      "note": 86,
      "start": 9.419,
      "duration": 0.2167,
      "velocity": 113,
      "chip": "ym2612"
    },
    {
      "channel": 4,
      "note": 57,
      "start": 9.4193,
      "duration": 0.1162,
      "velocity": 120,
      "chip": "ym2612"
    },
    {
      "channel": 4,
      "note": 57,
      "start": 9.5357,
      "duration": 0.101,
      "velocity": 120,
      "chip": "ym2612"
    },
    {
      "channel": 1,
      "note": 50,
      "start": 9.6356,
      "duration": 0.1998,
      "velocity": 91,
      "chip": "ym2612"
    },
    {
      "channel": 2,
      "note": 74,
      "start": 9.6359,
      "duration": 0.1998,
      "velocity": 113,
      "chip": "ym2612"
    },
    {
      "channel": 4,
      "note": 57,
      "start": 9.637,
      "duration": 0.0985,
      "velocity": 120,
      "chip": "ym2612"
    },
    {
      "channel": 1,
      "note": 50,
      "start": 9.8356,
      "duration": 0.2182,
      "velocity": 91,
      "chip": "ym2612"
    },
    {
      "channel": 2,
      "note": 86,
      "start": 9.8359,
      "duration": 0.2189,
      "velocity": 113,
      "chip": "ym2612"
    },
    {
      "channel": 4,
      "note": 57,
      "start": 9.8363,
      "duration": 0.116,
      "velocity": 120,
      "chip": "ym2612"
    },
    {
      "channel": 4,
      "note": 57,
      "start": 9.9525,
      "duration": 0.1044,
      "velocity": 120,
      "chip": "ym2612"
    },
    {
      "channel": 0,
      "note": 76,
      "start": 10.0531,
      "duration": 1.6665,
      "velocity": 106,
      "chip": "ym2612"
    },
    {
      "channel": 1,
      "note": 52,
      "start": 10.0541,
      "duration": 1.2482,
      "velocity": 91,
      "chip": "ym2612"
    },
    {
      "channel": 2,
      "note": 76,
      "start": 10.055,
      "duration": 0.1973,
      "velocity": 113,
      "chip": "ym2612"
    },
    {
      "channel": 3,
      "note": 71,
      "start": 10.056,
      "duration": 1.6664,
      "velocity": 106,
      "chip": "ym2612"
    },
    {
      "channel": 4,
      "note": 57,
      "start": 10.0571,
      "duration": 0.0951,
      "velocity": 120,
      "chip": "ym2612"
    },
    {
      "channel": 2,
      "note": 80,
      "start": 10.2525,
      "duration": 0.2162,
      "velocity": 113,
      "chip": "ym2612"
    },
    {
      "channel": 4,
      "note": 57,
      "start": 10.2529,
      "duration": 0.116,
      "velocity": 120,
      "chip": "ym2612"
    },
    {
      "channel": 4,
      "note": 57,
      "start": 10.3691,
      "duration": 0.1007,
      "velocity": 120,
      "chip": "ym2612"
    },
    {
      "channel": 2,
      "note": 88,
      "start": 10.469,
      "duration": 0.1997,
      "velocity": 113,
      "chip": "ym2612"
    },
    {
      "channel": 4,
      "note": 57,
      "start": 10.4701,
      "duration": 0.0988,
      "velocity": 120,
      "chip": "ym2612"
    },
    {
      "channel": 2,
      "note": 76,
      "start": 10.669,
      "duration": 0.2165,
      "velocity": 113,
      "chip": "ym2612"
    },
    {
      "channel": 4,
      "note": 57,
      "start": 10.6693,
      "duration": 0.1164,
      "velocity": 120,
      "chip": "ym2612"
    },
    {
      "channel": 4,
      "note": 57,
      "start": 10.7859,
      "duration": 0.1006,
      "velocity": 120,
      "chip": "ym2612"
    },
    {
      "channel": 2,
      "note": 80,
      "start": 10.8857,
      "duration": 0.1998,
      "velocity": 113,
      "chip": "ym2612"
    },
    {
      "channel": 4,
      "note": 57,
      "start": 10.8868,
      "duration": 0.099,
      "velocity": 120,
      "chip": "ym2612"
    },
    {
      "channel": 2,
      "note": 88,
      "start": 11.0857,
      "duration": 0.2167,
      "velocity": 113,
      "chip": "ym2612"
    },
    {
      "channel": 4,
      "note": 57,
      "start": 11.086,
      "duration": 0.1162,
      "velocity": 120,
      "chip": "ym2612"
    },
    {
      "channel": 4,
      "note": 57,
      "start": 11.2024,
      "duration": 0.101,
      "velocity": 120,
      "chip": "ym2612"
    },
    {
      "channel": 1,
      "note": 52,
      "start": 11.3023,
      "duration": 0.1998,
      "velocity": 91,
      "chip": "ym2612"
    },
    {
      "channel": 2,
      "note": 76,
      "start": 11.3025,
      "duration": 0.1998,
      "velocity": 113,
      "chip": "ym2612"
    },
    {
      "channel": 4,
      "note": 57,
      "start": 11.3037,
      "duration": 0.0985,
      "velocity": 120,
      "chip": "ym2612"
    },
    {
      "channel": 1,
      "note": 52,
      "start": 11.5023,
      "duration": 0.2182,
      "velocity": 91,
      "chip": "ym2612"
    },
    {
      "channel": 2,
      "note": 88,
      "start": 11.5026,
      "duration": 0.2188,
      "velocity": 113,
      "chip": "ym2612"
    },
    {
      "channel": 4,
      "note": 57,
      "start": 11.5029,
      "duration": 0.116,
      "velocity": 120,
      "chip": "ym2612"
    },
    {
      "channel": 4,
      "note": 57,
      "start": 11.6191,
      "duration": 0.1044,
      "velocity": 120,
      "chip": "ym2612"
    },
    {
      "channel": 0,
      "note": 74,
      "start": 11.7198,
      "duration": 1.6665,
      "velocity": 106,
      "chip": "ym2612"
    },
    {
      "channel": 1,
      "note": 50,
      "start": 11.7207,
      "duration": 1.2482,
      "velocity": 91,
      "chip": "ym2612"
    },
    {
      "channel": 2,
      "note": 74,
      "start": 11.7217,
      "duration": 0.1973,
      "velocity": 113,
      "chip": "ym2612"
    },
    {
      "channel": 3,
      "note": 69,
      "start": 11.7227,
      "duration": 1.6665,
      "velocity": 106,
      "chip": "ym2612"
    },
    {
      "channel": 4,
      "note": 57,
      "start": 11.7237,
      "duration": 0.0952,
      "velocity": 120,
      "chip": "ym2612"
    },
    {
      "channel": 2,
      "note": 78,
      "start": 11.9192,
      "duration": 0.2162,
      "velocity": 113,
      "chip": "ym2612"
    },
    {
      "channel": 4,
      "note": 57,
      "start": 11.9195,
      "duration": 0.116,
      "velocity": 120,
      "chip": "ym2612"
    },
    {
      "channel": 4,
      "note": 57,
      "start": 12.0358,
      "duration": 0.1007,
      "velocity": 120,
      "chip": "ym2612"
    },
    {
      "channel": 2,
      "note": 86,
      "start": 12.1357,
      "duration": 0.1997,
      "velocity": 113,
      "chip": "ym2612"
    },
    {
      "channel": 4,
      "note": 57,
      "start": 12.1368,
      "duration": 0.0988,
      "velocity": 120,
      "chip": "ym2612"
    },
    {
      "channel": 2,
      "note": 74,
      "start": 12.3357,
      "duration": 0.2165,
      "velocity": 113,
      "chip": "ym2612"
    },
    {
      "channel": 4,
      "note": 57,
      "start": 12.336,
      "duration": 0.1164,
      "velocity": 120,
      "chip": "ym2612"
    },
    {
      "channel": 4,
      "note": 57,
      "start": 12.4526,
      "duration": 0.1006,
      "velocity": 120,
      "chip": "ym2612"
    },
    {
      "channel": 2,
      "note": 78,
      "start": 12.5524,
      "duration": 0.1998,
      "velocity": 113,
      "chip": "ym2612"
    },
    {
      "channel": 4,
      "note": 57,
      "start": 12.5534,
      "duration": 0.099,
      "velocity": 120,
      "chip": "ym2612"
    },
    {
      "channel": 2,
      "note": 86,
      "start": 12.7524,
      "duration": 0.2167,
      "velocity": 113,
      "chip": "ym2612"
    },
    {
      "channel": 4,
      "note": 57,
      "start": 12.7527,
      "duration": 0.1162,
      "velocity": 120,
      "chip": "ym2612"
    },
    {
      "channel": 4,
      "note": 57,
      "start": 12.8691,
      "duration": 0.101,
      "velocity": 120,
      "chip": "ym2612"
    },
    {
      "channel": 1,
      "note": 50,
      "start": 12.969,
      "duration": 0.1998,
      "velocity": 91,
      "chip": "ym2612"
    },
    {
      "channel": 2,
      "note": 74,
      "start": 12.9692,
      "duration": 0.1998,
      "velocity": 113,
      "chip": "ym2612"
    },
    {
      "channel": 4,
      "note": 57,
      "start": 12.9703,
      "duration": 0.0985,
      "velocity": 120,
      "chip": "ym2612"
    },
    {
      "channel": 1,
      "note": 50,
      "start": 13.169,
      "duration": 0.2182,
      "velocity": 91,
      "chip": "ym2612"
    },
    {
      "channel": 2,
      "note": 86,
      "start": 13.1693,
      "duration": 0.2189,
      "velocity": 113,
      "chip": "ym2612"
    },
    {
      "channel": 4,
      "note": 57,
      "start": 13.1696,
      "duration": 0.116,
      "velocity": 120,
      "chip": "ym2612"
    },
    {
      "channel": 4,
      "note": 57,
      "start": 13.2858,
      "duration": 0.1044,
      "velocity": 120,
      "chip": "ym2612"
    },
    {
      "channel": 0,
      "note": 76,
      "start": 13.3864,
      "duration": 0.8324,
      "velocity": 106,
      "chip": "ym2612"
    },
    {
      "channel": 1,
      "note": 52,
      "start": 13.3874,
      "duration": 1.2485,
      "velocity": 91,
      "chip": "ym2612"
    },
    {
      "channel": 2,
      "note": 76,
      "start": 13.3883,
      "duration": 0.1973,
      "velocity": 113,
      "chip": "ym2612"
    },
    {
      "channel": 3,
      "note": 71,
      "start": 13.3894,
      "duration": 0.8301,
      "velocity": 106,
      "chip": "ym2612"
    },
    {
      "channel": 4,
      "note": 57,
      "start": 13.3905,
      "duration": 0.0951,
      "velocity": 120,
      "chip": "ym2612"
    },
    {
      "channel": 2,
      "note": 80,
      "start": 13.5859,
      "duration": 0.2162,
      "velocity": 113,
      "chip": "ym2612"
    },
    {
      "channel": 4,
      "note": 57,
      "start": 13.5862,
      "duration": 0.116,
      "velocity": 120,
      "chip": "ym2612"
    },
    {
      "channel": 4,
      "note": 57,
      "start": 13.7025,
      "duration": 0.1007,
      "velocity": 120,
      "chip": "ym2612"
    },
    {
      "channel": 2,
      "note": 88,
      "start": 13.8024,
      "duration": 0.1997,
      "velocity": 113,
      "chip": "ym2612"
    },
    {
      "channel": 4,
      "note": 57,
      "start": 13.8034,
      "duration": 0.0988,
      "velocity": 120,
      "chip": "ym2612"
    },
    {
      "channel": 2,
      "note": 76,
      "start": 14.0024,
      "duration": 0.2167,
      "velocity": 113,
      "chip": "ym2612"
    },
    {
      "channel": 4,
      "note": 57,
      "start": 14.0027,
      "duration": 0.1164,
      "velocity": 120,
      "chip": "ym2612"
    },
    {
      "channel": 4,
      "note": 57,
      "start": 14.1193,
      "duration": 0.101,
      "velocity": 120,
      "chip": "ym2612"
    },
    {
      "channel": 0,
      "note": 76,
      "start": 14.2189,
      "duration": 0.1998,
      "velocity": 106,
      "chip": "ym2612"
    },
    {
      "channel": 2,
      "note": 80,
      "start": 14.2192,
      "duration": 0.1998,
      "velocity": 113,
      "chip": "ym2612"
    },
    {
      "channel": 3,
      "note": 71,
      "start": 14.2195,
      "duration": 0.1999,
      "velocity": 106,
      "chip": "ym2612"
    },
    {
      "channel": 4,
      "note": 57,
      "start": 14.2205,
      "duration": 0.0985,
      "velocity": 120,
      "chip": "ym2612"
    },
    {
      "channel": 0,
      "note": 88,
      "start": 14.419,
      "duration": 0.2164,
      "velocity": 106,
      "chip": "ym2612"
    },
    {
      "channel": 2,
      "note": 88,
      "start": 14.4193,
      "duration": 0.2167,
      "velocity": 113,
      "chip": "ym2612"
    },
    {
      "channel": 3,
      "note": 88,
      "start": 14.4195,
      "duration": 0.2167,
      "velocity": 106,
      "chip": "ym2612"
    },
    {
      "channel": 4,
      "note": 57,
      "start": 14.4198,
      "duration": 0.1157,
      "velocity": 120,
      "chip": "ym2612"
    },
    {
      "channel": 4,
      "note": 57,
      "start": 14.5357,
      "duration": 0.1015,
      "velocity": 120,
      "chip": "ym2612"
    },
    {
      "channel": 0,
      "note": 76,
      "start": 14.6356,
      "duration": 0.1998,
      "velocity": 106,
      "chip": "ym2612"
    },
    {
      "channel": 1,
      "note": 52,
      "start": 14.6359,
      "duration": 0.1998,
      "velocity": 91,
      "chip": "ym2612"
    },
    {
      "channel": 2,
      "note": 76,
      "start": 14.6361,
      "duration": 0.1998,
      "velocity": 113,
      "chip": "ym2612"
    },
    {
      "channel": 3,
      "note": 76,
      "start": 14.6364,
      "duration": 0.1998,
      "velocity": 106,
      "chip": "ym2612"
    },
    {
      "channel": 4,
      "note": 57,
      "start": 14.6375,
      "duration": 0.0981,
      "velocity": 120,
      "chip": "ym2612"
    },
    {
      "channel": 0,
      "note": 88,
      "start": 14.8356,
      "duration": 0.2173,
      "velocity": 106,
      "chip": "ym2612"
    },
    {
      "channel": 1,
      "note": 52,
      "start": 14.8359,
      "duration": 0.2179,
      "velocity": 91,
      "chip": "ym2612"
    },
    {
      "channel": 2,
      "note": 88,
      "start": 14.8361,
      "duration": 0.2186,
      "velocity": 113,
      "chip": "ym2612"
    },
    {
      "channel": 3,
      "note": 88,
      "start": 14.8364,
      "duration": 0.2193,
      "velocity": 106,
      "chip": "ym2612"
    },
    {
      "channel": 4,
      "note": 57,
      "start": 14.8367,
      "duration": 0.1155,
      "velocity": 120,
      "chip": "ym2612"
    },
    {
      "channel": 4,
      "note": 57,
      "start": 14.9525,
      "duration": 0.1044,
      "velocity": 120,
      "chip": "ym2612"
    },
    {
      "channel": 0,
      "note": 78,
      "start": 15.0531,
      "duration": 0.8324,
      "velocity": 106,
      "chip": "ym2612"
    },
    {
      "channel": 1,
      "note": 50,
      "start": 15.0541,
      "duration": 1.2485,
      "velocity": 91,
      "chip": "ym2612"
    },
    {
      "channel": 2,
      "note": 74,
      "start": 15.055,
      "duration": 0.1973,
      "velocity": 113,
      "chip": "ym2612"
    },
    {
      "channel": 3,
      "note": 69,
      "start": 15.056,
      "duration": 0.8301,
      "velocity": 106,
      "chip": "ym2612"
    },
    {
      "channel": 4,
      "note": 57,
      "start": 15.0571,
      "duration": 0.0952,
      "velocity": 120,
      "chip": "ym2612"
    },
    {
      "channel": 2,
      "note": 78,
      "start": 15.2525,
      "duration": 0.2162,
      "velocity": 113,
      "chip": "ym2612"
    },
    {
      "channel": 4,
      "note": 57,
      "start": 15.2529,
      "duration": 0.116,
      "velocity": 120,
      "chip": "ym2612"
    },
    {
      "channel": 4,
      "note": 57,
      "start": 15.3691,
      "duration": 0.1007,
      "velocity": 120,
      "chip": "ym2612"
    },
    {
      "channel": 2,
      "note": 86,
      "start": 15.469,
      "duration": 0.1997,
      "velocity": 113,
      "chip": "ym2612"
    },
    {
      "channel": 4,
      "note": 57,
      "start": 15.4701,
      "duration": 0.0988,
      "velocity": 120,
      "chip": "ym2612"
    },
    {
      "channel": 2,
      "note": 74,
      "start": 15.669,
      "duration": 0.2167,
      "velocity": 113,
      "chip": "ym2612"
    },
    {
      "channel": 4,
      "note": 57,
      "start": 15.6693,
      "duration": 0.1164,
      "velocity": 120,
      "chip": "ym2612"
    },
    {
      "channel": 4,
      "note": 57,
      "start": 15.7859,
      "duration": 0.101,
      "velocity": 120,
      "chip": "ym2612"
    },
    {
      "channel": 0,
      "note": 78,
      "start": 15.8856,
      "duration": 0.1998,
      "velocity": 106,
      "chip": "ym2612"
    },
    {
      "channel": 2,
      "note": 78,
      "start": 15.8859,
      "duration": 0.1998,
      "velocity": 113,
      "chip": "ym2612"
    },
    {
      "channel": 3,
      "note": 69,
      "start": 15.8861,
      "duration": 0.1999,
      "velocity": 106,
      "chip": "ym2612"
    },
    {
      "channel": 4,
      "note": 57,
      "start": 15.8872,
      "duration": 0.0985,
      "velocity": 120,
      "chip": "ym2612"
    },
    {
      "channel": 0,
      "note": 86,
      "start": 16.0856,
      "duration": 0.2164,
      "velocity": 106,
      "chip": "ym2612"
    },
    {
      "channel": 2,
      "note": 86,
      "start": 16.0859,
      "duration": 0.2167,
      "velocity": 113,
      "chip": "ym2612"
    },
    {
      "channel": 3,
      "note": 86,
      "start": 16.0862,
      "duration": 0.2167,
      "velocity": 106,
      "chip": "ym2612"
    },
    {
      "channel": 4,
      "note": 57,
      "start": 16.0865,
      "duration": 0.1157,
      "velocity": 120,
      "chip": "ym2612"
    },
    {
      "channel": 4,
      "note": 57,
      "start": 16.2024,
      "duration": 0.1015,
      "velocity": 120,
      "chip": "ym2612"
    },
    {
      "channel": 0,
      "note": 74,
      "start": 16.3023,
      "duration": 0.1998,
      "velocity": 106,
      "chip": "ym2612"
    },
    {
      "channel": 1,
      "note": 50,
      "start": 16.3025,
      "duration": 0.1998,
      "velocity": 91,
      "chip": "ym2612"
    },
    {
      "channel": 2,
      "note": 74,
      "start": 16.3028,
      "duration": 0.1998,
      "velocity": 113,
      "chip": "ym2612"
    },
    {
      "channel": 3,
      "note": 74,
      "start": 16.303,
      "duration": 0.1998,
      "velocity": 106,
      "chip": "ym2612"
    },
    {
      "channel": 4,
      "note": 57,
      "start": 16.3041,
      "duration": 0.0981,
      "velocity": 120,
      "chip": "ym2612"
    },
    {
      "channel": 0,
      "note": 86,
      "start": 16.5023,
      "duration": 0.2173,
      "velocity": 106,
      "chip": "ym2612"
    },
    {
      "channel": 1,
      "note": 50,
      "start": 16.5025,
      "duration": 0.2179,
      "velocity": 91,
      "chip": "ym2612"
    },
    {
      "channel": 2,
      "note": 86,
      "start": 16.5028,
      "duration": 0.2187,
      "velocity": 113,
      "chip": "ym2612"
    },
    {
      "channel": 3,
      "note": 86,
      "start": 16.5031,
      "duration": 0.2194,
      "velocity": 106,
      "chip": "ym2612"
    },
    {
      "channel": 4,
      "note": 57,
      "start": 16.5034,
      "duration": 0.1155,
      "velocity": 120,
      "chip": "ym2612"
    },
    {
      "channel": 4,
      "note": 57,
      "start": 16.6191,
      "duration": 0.1044,
      "velocity": 120,
      "chip": "ym2612"
    },
    {
      "channel": 0,
      "note": 76,
      "start": 16.7198,
      "duration": 0.8324,
      "velocity": 106,
      "chip": "ym2612"
    },
    {
      "channel": 1,
      "note": 52,
      "start": 16.7207,
      "duration": 1.2485,
      "velocity": 91,
      "chip": "ym2612"
    },
    {
      "channel": 2,
      "note": 76,
      "start": 16.7217,
      "duration": 0.1973,
      "velocity": 113,
      "chip": "ym2612"
    },
    {
      "channel": 3,
      "note": 71,
      "start": 16.7227,
      "duration": 0.8301,
      "velocity": 106,
      "chip": "ym2612"
    },
    {
      "channel": 4,
      "note": 57,
      "start": 16.7238,
      "duration": 0.0951,
      "velocity": 120,
      "chip": "ym2612"
    },
    {
      "channel": 2,
      "note": 80,
      "start": 16.9192,
      "duration": 0.2162,
      "velocity": 113,
      "chip": "ym2612"
    },
    {
      "channel": 4,
      "note": 57,
      "start": 16.9195,
      "duration": 0.116,
      "velocity": 120,
      "chip": "ym2612"
    },
    {
      "channel": 4,
      "note": 57,
      "start": 17.0358,
      "duration": 0.1007,
      "velocity": 120,
      "chip": "ym2612"
    },
    {
      "channel": 2,
      "note": 88,
      "start": 17.1357,
      "duration": 0.1997,
      "velocity": 113,
      "chip": "ym2612"
    },
    {
      "channel": 4,
      "note": 57,
      "start": 17.1368,
      "duration": 0.0988,
      "velocity": 120,
      "chip": "ym2612"
    },
    {
      "channel": 2,
      "note": 76,
      "start": 17.3357,
      "duration": 0.2167,
      "velocity": 113,
      "chip": "ym2612"
    },
    {
      "channel": 4,
      "note": 57,
      "start": 17.336,
      "duration": 0.1164,
      "velocity": 120,
      "chip": "ym2612"
    },
    {
      "channel": 4,
      "note": 57,
      "start": 17.4526,
      "duration": 0.101,
      "velocity": 120,
      "chip": "ym2612"
    },
    {
      "channel": 0,
      "note": 76,
      "start": 17.5522,
      "duration": 0.1998,
      "velocity": 106,
      "chip": "ym2612"
    },
    {
      "channel": 2,
      "note": 80,
      "start": 17.5525,
      "duration": 0.1998,
      "velocity": 113,
      "chip": "ym2612"
    },
    {
      "channel": 3,
      "note": 71,
      "start": 17.5528,
      "duration": 0.1999,
      "velocity": 106,
      "chip": "ym2612"
    },
    {
      "channel": 4,
      "note": 57,
      "start": 17.5539,
      "duration": 0.0985,
      "velocity": 120,
      "chip": "ym2612"
    },
    {
      "channel": 0,
      "note": 88,
      "start": 17.7523,
      "duration": 0.2164,
      "velocity": 106,
      "chip": "ym2612"
    },
    {
      "channel": 2,
      "note": 88,
      "start": 17.7526,
      "duration": 0.2167,
      "velocity": 113,
      "chip": "ym2612"
    },
    {
      "channel": 3,
      "note": 88,
      "start": 17.7529,
      "duration": 0.2167,
      "velocity": 106,
      "chip": "ym2612"
    },
    {
      "channel": 4,
      "note": 57,
      "start": 17.7532,
      "duration": 0.1157,
      "velocity": 120,
      "chip": "ym2612"
    },
    {
      "channel": 4,
      "note": 57,
      "start": 17.8691,
      "duration": 0.1015,
      "velocity": 120,
      "chip": "ym2612"
    },
    {
      "channel": 0,
      "note": 76,
      "start": 17.969,
      "duration": 0.1998,
      "velocity": 106,
      "chip": "ym2612"
    },
    {
      "channel": 1,
      "note": 52,
      "start": 17.9692,
      "duration": 0.1998,
      "velocity": 91,
      "chip": "ym2612"
    },
    {
      "channel": 2,
      "note": 76,
      "start": 17.9695,
      "duration": 0.1998,
      "velocity": 113,
      "chip": "ym2612"
    },
    {
      "channel": 3,
      "note": 76,
      "start": 17.9697,
      "duration": 0.1998,
      "velocity": 106,
      "chip": "ym2612"
    },
    {
      "channel": 4,
      "note": 57,
      "start": 17.9708,
      "duration": 0.0981,
      "velocity": 120,
      "chip": "ym2612"
    },
    {
      "channel": 0,
      "note": 88,
      "start": 18.169,
      "duration": 0.2173,
      "velocity": 106,
      "chip": "ym2612"
    },
    {
      "channel": 1,
      "note": 52,
      "start": 18.1692,
      "duration": 0.2179,
      "velocity": 91,
      "chip": "ym2612"
    },
    {
      "channel": 2,
      "note": 88,
      "start": 18.1695,
      "duration": 0.2186,
      "velocity": 113,
      "chip": "ym2612"
    },
    {
      "channel": 3,
      "note": 88,
      "start": 18.1698,
      "duration": 0.2193,
      "velocity": 106,
      "chip": "ym2612"
    },
    {
      "channel": 4,
      "note": 57,
      "start": 18.17,
      "duration": 0.1155,
      "velocity": 120,
      "chip": "ym2612"
    },
    {
      "channel": 4,
      "note": 57,
      "start": 18.2858,
      "duration": 0.1044,
      "velocity": 120,
      "chip": "ym2612"
    },
    {
      "channel": 0,
      "note": 78,
      "start": 18.3864,
      "duration": 0.8324,
      "velocity": 106,
      "chip": "ym2612"
    },
    {
      "channel": 1,
      "note": 50,
      "start": 18.3874,
      "duration": 1.2485,
      "velocity": 91,
      "chip": "ym2612"
    },
    {
      "channel": 2,
      "note": 74,
      "start": 18.3883,
      "duration": 0.1973,
      "velocity": 113,
      "chip": "ym2612"
    },
    {
      "channel": 3,
      "note": 69,
      "start": 18.3894,
      "duration": 0.8301,
      "velocity": 106,
      "chip": "ym2612"
    },
    {
      "channel": 4,
      "note": 57,
      "start": 18.3904,
      "duration": 0.0952,
      "velocity": 120,
      "chip": "ym2612"
    },
    {
      "channel": 2,
      "note": 78,
      "start": 18.5859,
      "duration": 0.2162,
      "velocity": 113,
      "chip": "ym2612"
    },
    {
      "channel": 4,
      "note": 57,
      "start": 18.5862,
      "duration": 0.116,
      "velocity": 120,
      "chip": "ym2612"
    },
    {
      "channel": 4,
      "note": 57,
      "start": 18.7025,
      "duration": 0.1007,
      "velocity": 120,
      "chip": "ym2612"
    },
    {
      "channel": 2,
      "note": 86,
      "start": 18.8024,
      "duration": 0.1997,
      "velocity": 113,
      "chip": "ym2612"
    },
    {
      "channel": 4,
      "note": 57,
      "start": 18.8034,
      "duration": 0.0988,
      "velocity": 120,
      "chip": "ym2612"
    },
    {
      "channel": 2,
      "note": 74,
      "start": 19.0024,
      "duration": 0.2167,
      "velocity": 113,
      "chip": "ym2612"
    },
    {
      "channel": 4,
      "note": 57,
      "start": 19.0027,
      "duration": 0.1164,
      "velocity": 120,
      "chip": "ym2612"
    },
    {
      "channel": 4,
      "note": 57,
      "start": 19.1193,
      "duration": 0.101,
      "velocity": 120,
      "chip": "ym2612"
    },
    {
      "channel": 0,
      "note": 78,
      "start": 19.2189,
      "duration": 0.1998,
      "velocity": 106,
      "chip": "ym2612"
    },
    {
      "channel": 2,
      "note": 78,
      "start": 19.2192,
      "duration": 0.1998,
      "velocity": 113,
      "chip": "ym2612"
    },
    {
      "channel": 3,
      "note": 69,
      "start": 19.2195,
      "duration": 0.1999,
      "velocity": 106,
      "chip": "ym2612"
    },
    {
      "channel": 4,
      "note": 57,
      "start": 19.2205,
      "duration": 0.0985,
      "velocity": 120,
      "chip": "ym2612"
    },
    {
      "channel": 0,
      "note": 86,
      "start": 19.419,
      "duration": 0.2164,
      "velocity": 106,
      "chip": "ym2612"
    },
    {
      "channel": 2,
      "note": 86,
      "start": 19.4193,
      "duration": 0.2167,
      "velocity": 113,
      "chip": "ym2612"
    },
    {
      "channel": 3,
      "note": 86,
      "start": 19.4195,
      "duration": 0.2167,
      "velocity": 106,
      "chip": "ym2612"
    },
    {
      "channel": 4,
      "note": 57,
      "start": 19.4198,
      "duration": 0.1157,
      "velocity": 120,
      "chip": "ym2612"
    },
    {
      "channel": 4,
      "note": 57,
      "start": 19.5357,
      "duration": 0.1015,
      "velocity": 120,
      "chip": "ym2612"
    },
    {
      "channel": 0,
      "note": 74,
      "start": 19.6356,
      "duration": 0.1998,
      "velocity": 106,
      "chip": "ym2612"
    },
    {
      "channel": 1,
      "note": 50,
      "start": 19.6359,
      "duration": 0.1998,
      "velocity": 91,
      "chip": "ym2612"
    },
    {
      "channel": 2,
      "note": 74,
      "start": 19.6361,
      "duration": 0.1998,
      "velocity": 113,
      "chip": "ym2612"
    },
    {
      "channel": 3,
      "note": 74,
      "start": 19.6364,
      "duration": 0.1998,
      "velocity": 106,
      "chip": "ym2612"
    },
    {
      "channel": 4,
      "note": 57,
      "start": 19.6375,
      "duration": 0.0981,
      "velocity": 120,
      "chip": "ym2612"
    },
    {
      "channel": 0,
      "note": 86,
      "start": 19.8356,
      "duration": 0.2173,
      "velocity": 106,
      "chip": "ym2612"
    },
    {
      "channel": 1,
      "note": 50,
      "start": 19.8359,
      "duration": 0.2179,
      "velocity": 91,
      "chip": "ym2612"
    },
    {
      "channel": 2,
      "note": 86,
      "start": 19.8361,
      "duration": 0.2187,
      "velocity": 113,
      "chip": "ym2612"
    },
    {
      "channel": 3,
      "note": 86,
      "start": 19.8364,
      "duration": 0.2194,
      "velocity": 106,
      "chip": "ym2612"
    },
    {
      "channel": 4,
      "note": 57,
      "start": 19.8367,
      "duration": 0.1155,
      "velocity": 120,
      "chip": "ym2612"
    },
    {
      "channel": 4,
      "note": 57,
      "start": 19.9525,
      "duration": 0.1044,
      "velocity": 120,
      "chip": "ym2612"
    },
    {
      "channel": 0,
      "note": 88,
      "start": 20.0531,
      "duration": 0.1991,
      "velocity": 106,
      "chip": "ym2612"
    },
    {
      "channel": 1,
      "note": 52,
      "start": 20.0541,
      "duration": 0.4149,
      "velocity": 91,
      "chip": "ym2612"
    },
    {
      "channel": 2,
      "note": 76,
      "start": 20.055,
      "duration": 0.1975,
      "velocity": 113,
      "chip": "ym2612"
    },
    {
      "channel": 3,
      "note": 88,
      "start": 20.056,
      "duration": 0.1968,
      "velocity": 106,
      "chip": "ym2612"
    },
    {
      "channel": 4,
      "note": 57,
      "start": 20.0571,
      "duration": 0.0951,
      "velocity": 120,
      "chip": "ym2612"
    },
    {
      "channel": 0,
      "note": 90,
      "start": 20.2524,
      "duration": 0.2163,
      "velocity": 106,
      "chip": "ym2612"
    },
    {
      "channel": 2,
      "note": 80,
      "start": 20.2527,
      "duration": 0.2166,
      "velocity": 113,
      "chip": "ym2612"
    },
    {
      "channel": 3,
      "note": 90,
      "start": 20.253,
      "duration": 0.2165,
      "velocity": 106,
      "chip": "ym2612"
    },
    {
      "channel": 4,
      "note": 57,
      "start": 20.2533,
      "duration": 0.1156,
      "velocity": 120,
      "chip": "ym2612"
    },
    {
      "channel": 4,
      "note": 57,
      "start": 20.3691,
      "duration": 0.1014,
      "velocity": 120,
      "chip": "ym2612"
    },
    {
      "channel": 0,
      "note": 92,
      "start": 20.4689,
      "duration": 0.1998,
      "velocity": 106,
      "chip": "ym2612"
    },
    {
      "channel": 1,
      "note": 52,
      "start": 20.4692,
      "duration": 0.4162,
      "velocity": 91,
      "chip": "ym2612"
    },
    {
      "channel": 2,
      "note": 88,
      "start": 20.4695,
      "duration": 0.1996,
      "velocity": 113,
      "chip": "ym2612"
    },
    {
      "channel": 3,
      "note": 92,
      "start": 20.4697,
      "duration": 0.1996,
      "velocity": 106,
      "chip": "ym2612"
    },
    {
      "channel": 4,
      "note": 57,
      "start": 20.4708,
      "duration": 0.0981,
      "velocity": 120,
      "chip": "ym2612"
    },
    {
      "channel": 0,
      "note": 74,
      "start": 20.6689,
      "duration": 0.4165,
      "velocity": 106,
      "chip": "ym2612"
    },
    {
      "channel": 2,
      "note": 76,
      "start": 20.6692,
      "duration": 0.2165,
      "velocity": 113,
      "chip": "ym2612"
    },
    {
      "channel": 3,
      "note": 78,
      "start": 20.6695,
      "duration": 0.4165,
      "velocity": 106,
      "chip": "ym2612"
    },
    {
      "channel": 4,
      "note": 57,
      "start": 20.6698,
      "duration": 0.116,
      "velocity": 120,
      "chip": "ym2612"
    },
    {
      "channel": 4,
      "note": 57,
      "start": 20.7859,
      "duration": 0.1008,
      "velocity": 120,
      "chip": "ym2612"
    },
    {
      "channel": 1,
      "note": 52,
      "start": 20.8856,
      "duration": 0.4167,
      "velocity": 91,
      "chip": "ym2612"
    },
    {
      "channel": 2,
      "note": 80,
      "start": 20.8859,
      "duration": 0.1998,
      "velocity": 113,
      "chip": "ym2612"
    },
    {
      "channel": 4,
      "note": 57,
      "start": 20.887,
      "duration": 0.0987,
      "velocity": 120,
      "chip": "ym2612"
    },
    {
      "channel": 0,
      "note": 85,
      "start": 21.0856,
      "duration": 0.2164,
      "velocity": 106,
      "chip": "ym2612"
    },
    {
      "channel": 2,
      "note": 88,
      "start": 21.0859,
      "duration": 0.2167,
      "velocity": 113,
      "chip": "ym2612"
    },
    {
      "channel": 3,
      "note": 85,
      "start": 21.0862,
      "duration": 0.2167,
      "velocity": 106,
      "chip": "ym2612"
    },
    {
      "channel": 4,
      "note": 57,
      "start": 21.0865,
      "duration": 0.1157,
      "velocity": 120,
      "chip": "ym2612"
    },
    {
      "channel": 4,
      "note": 57,
      "start": 21.2024,
      "duration": 0.1015,
      "velocity": 120,
      "chip": "ym2612"
    },
    {
      "channel": 0,
      "note": 83,
      "start": 21.3023,
      "duration": 0.1998,
      "velocity": 106,
      "chip": "ym2612"
    },
    {
      "channel": 1,
      "note": 52,
      "start": 21.3025,
      "duration": 0.4179,
      "velocity": 91,
      "chip": "ym2612"
    },
    {
      "channel": 2,
      "note": 76,
      "start": 21.3028,
      "duration": 0.1996,
      "velocity": 113,
      "chip": "ym2612"
    },
    {
      "channel": 3,
      "note": 83,
      "start": 21.3031,
      "duration": 0.1996,
      "velocity": 106,
      "chip": "ym2612"
    },
    {
      "channel": 4,
      "note": 57,
      "start": 21.3041,
      "duration": 0.0981,
      "velocity": 120,
      "chip": "ym2612"
    },
    {
      "channel": 0,
      "note": 85,
      "start": 21.5023,
      "duration": 0.2173,
      "velocity": 106,
      "chip": "ym2612"
    },
    {
      "channel": 2,
      "note": 88,
      "start": 21.5026,
      "duration": 0.2188,
      "velocity": 113,
      "chip": "ym2612"
    },
    {
      "channel": 3,
      "note": 85,
      "start": 21.5029,
      "duration": 0.2196,
      "velocity": 106,
      "chip": "ym2612"
    },
    {
      "channel": 4,
      "note": 57,
      "start": 21.5032,
      "duration": 0.1157,
      "velocity": 120,
      "chip": "ym2612"
    },
    {
      "channel": 4,
      "note": 57,
      "start": 21.6191,
      "duration": 0.1044,
      "velocity": 120,
      "chip": "ym2612"
    },
    {
      "channel": 0,
      "note": 86,
      "start": 21.7198,
      "duration": 0.1991,
      "velocity": 106,
      "chip": "ym2612"
    },
    {
      "channel": 1,
      "note": 50,
      "start": 21.7207,
      "duration": 0.4149,
      "velocity": 91,
      "chip": "ym2612"
    },
    {
      "channel": 2,
      "note": 74,
      "start": 21.7217,
      "duration": 0.1975,
      "velocity": 113,
      "chip": "ym2612"
    },
    {
      "channel": 3,
      "note": 86,
      "start": 21.7227,
      "duration": 0.1968,
      "velocity": 106,
      "chip": "ym2612"
    },
    {
      "channel": 4,
      "note": 57,
      "start": 21.7237,
      "duration": 0.0952,
      "velocity": 120,
      "chip": "ym2612"
    },
    {
      "channel": 0,
      "note": 88,
      "start": 21.9191,
      "duration": 0.2163,
      "velocity": 106,
      "chip": "ym2612"
    },
    {
      "channel": 2,
      "note": 78,
      "start": 21.9194,
      "duration": 0.2166,
      "velocity": 113,
      "chip": "ym2612"
    },
    {
      "channel": 3,
      "note": 88,
      "start": 21.9197,
      "duration": 0.2165,
      "velocity": 106,
      "chip": "ym2612"
    },
    {
      "channel": 4,
      "note": 57,
      "start": 21.92,
      "duration": 0.1156,
      "velocity": 120,
      "chip": "ym2612"
    },
    {
      "channel": 4,
      "note": 57,
      "start": 22.0358,
      "duration": 0.1014,
      "velocity": 120,
      "chip": "ym2612"
    },
    {
      "channel": 0,
      "note": 90,
      "start": 22.1356,
      "duration": 0.1998,
      "velocity": 106,
      "chip": "ym2612"
    },
    {
      "channel": 1,
      "note": 50,
      "start": 22.1359,
      "duration": 0.4162,
      "velocity": 91,
      "chip": "ym2612"
    },
    {
      "channel": 2,
      "note": 86,
      "start": 22.1361,
      "duration": 0.1996,
      "velocity": 113,
      "chip": "ym2612"
    },
    {
      "channel": 3,
      "note": 90,
      "start": 22.1364,
      "duration": 0.1996,
      "velocity": 106,
      "chip": "ym2612"
    },
    {
      "channel": 4,
      "note": 57,
      "start": 22.1375,
      "duration": 0.0981,
      "velocity": 120,
      "chip": "ym2612"
    },
    {
      "channel": 0,
      "note": 74,
      "start": 22.3356,
      "duration": 0.4165,
      "velocity": 106,
      "chip": "ym2612"
    },
    {
      "channel": 2,
      "note": 74,
      "start": 22.3359,
      "duration": 0.2165,
      "velocity": 113,
      "chip": "ym2612"
    },
    {
      "channel": 3,
      "note": 78,
      "start": 22.3362,
      "duration": 0.4165,
      "velocity": 106,
      "chip": "ym2612"
    },
    {
      "channel": 4,
      "note": 57,
      "start": 22.3364,
      "duration": 0.116,
      "velocity": 120,
      "chip": "ym2612"
    },
    {
      "channel": 4,
      "note": 57,
      "start": 22.4526,
      "duration": 0.1008,
      "velocity": 120,
      "chip": "ym2612"
    },
    {
      "channel": 1,
      "note": 50,
      "start": 22.5523,
      "duration": 0.4167,
      "velocity": 91,
      "chip": "ym2612"
    },
    {
      "channel": 2,
      "note": 78,
      "start": 22.5526,
      "duration": 0.1998,
      "velocity": 113,
      "chip": "ym2612"
    },
    {
      "channel": 4,
      "note": 57,
      "start": 22.5537,
      "duration": 0.0987,
      "velocity": 120,
      "chip": "ym2612"
    },
    {
      "channel": 0,
      "note": 85,
      "start": 22.7523,
      "duration": 0.2164,
      "velocity": 106,
      "chip": "ym2612"
    },
    {
      "channel": 2,
      "note": 86,
      "start": 22.7526,
      "duration": 0.2167,
      "velocity": 113,
      "chip": "ym2612"
    },
    {
      "channel": 3,
      "note": 85,
      "start": 22.7529,
      "duration": 0.2167,
      "velocity": 106,
      "chip": "ym2612"
    },
    {
      "channel": 4,
      "note": 57,
      "start": 22.7532,
      "duration": 0.1157,
      "velocity": 120,
      "chip": "ym2612"
    },
    {
      "channel": 4,
      "note": 57,
      "start": 22.8691,
      "duration": 0.1015,
      "velocity": 120,
      "chip": "ym2612"
    },
    {
      "channel": 0,
      "note": 83,
      "start": 22.969,
      "duration": 0.1998,
      "velocity": 106,
      "chip": "ym2612"
    },
    {
      "channel": 1,
      "note": 50,
      "start": 22.9692,
      "duration": 0.4179,
      "velocity": 91,
      "chip": "ym2612"
    },
    {
      "channel": 2,
      "note": 74,
      "start": 22.9695,
      "duration": 0.1996,
      "velocity": 113,
      "chip": "ym2612"
    },
    {
      "channel": 3,
      "note": 83,
      "start": 22.9698,
      "duration": 0.1996,
      "velocity": 106,
      "chip": "ym2612"
    },
    {
      "channel": 4,
      "note": 57,
      "start": 22.9708,
      "duration": 0.0981,
      "velocity": 120,
      "chip": "ym2612"
    },
    {
      "channel": 0,
      "note": 85,
      "start": 23.169,
      "duration": 0.2173,
      "velocity": 106,
      "chip": "ym2612"
    },
    {
      "channel": 2,
      "note": 86,
      "start": 23.1693,
      "duration": 0.2189,
      "velocity": 113,
      "chip": "ym2612"
    },
    {
      "channel": 3,
      "note": 85,
      "start": 23.1695,
      "duration": 0.2197,
      "velocity": 106,
      "chip": "ym2612"
    },
    {
      "channel": 4,
      "note": 57,
      "start": 23.1698,
      "duration": 0.1157,
      "velocity": 120,
      "chip": "ym2612"
    },
    {
      "channel": 4,
      "note": 57,
      "start": 23.2858,
      "duration": 0.1044,
      "velocity": 120,
      "chip": "ym2612"
    },
    {
      "channel": 0,
      "note": 88,
      "start": 23.3864,
      "duration": 0.1991,
      "velocity": 106,
      "chip": "ym2612"
    },
    {
      "channel": 1,
      "note": 52,
      "start": 23.3874,
      "duration": 0.4149,
      "velocity": 91,
      "chip": "ym2612"
    },
    {
      "channel": 2,
      "note": 76,
      "start": 23.3883,
      "duration": 0.1975,
      "velocity": 113,
      "chip": "ym2612"
    },
    {
      "channel": 3,
      "note": 88,
      "start": 23.3894,
      "duration": 0.1968,
      "velocity": 106,
      "chip": "ym2612"
    },
    {
      "channel": 4,
      "note": 57,
      "start": 23.3905,
      "duration": 0.0951,
      "velocity": 120,
      "chip": "ym2612"
    },
    {
      "channel": 0,
      "note": 90,
      "start": 23.5857,
      "duration": 0.2163,
      "velocity": 106,
      "chip": "ym2612"
    },
    {
      "channel": 2,
      "note": 80,
      "start": 23.5861,
      "duration": 0.2166,
      "velocity": 113,
      "chip": "ym2612"
    },
    {
      "channel": 3,
      "note": 90,
      "start": 23.5864,
      "duration": 0.2165,
      "velocity": 106,
      "chip": "ym2612"
    },
    {
      "channel": 4,
      "note": 57,
      "start": 23.5866,
      "duration": 0.1156,
      "velocity": 120,
      "chip": "ym2612"
    },
    {
      "channel": 4,
      "note": 57,
      "start": 23.7025,
      "duration": 0.1014,
      "velocity": 120,
      "chip": "ym2612"
    },
    {
      "channel": 0,
      "note": 92,
      "start": 23.8022,
      "duration": 0.1998,
      "velocity": 106,
      "chip": "ym2612"
    },
    {
      "channel": 1,
      "note": 52,
      "start": 23.8025,
      "duration": 0.4162,
      "velocity": 91,
      "chip": "ym2612"
    },
    {
      "channel": 2,
      "note": 88,
      "start": 23.8028,
      "duration": 0.1996,
      "velocity": 113,
      "chip": "ym2612"
    },
    {
      "channel": 3,
      "note": 92,
      "start": 23.803,
      "duration": 0.1996,
      "velocity": 106,
      "chip": "ym2612"
    },
    {
      "channel": 4,
      "note": 57,
      "start": 23.8041,
      "duration": 0.0981,
      "velocity": 120,
      "chip": "ym2612"
    },
    {
      "channel": 0,
      "note": 74,
      "start": 24.0022,
      "duration": 0.4165,
      "velocity": 106,
      "chip": "ym2612"
    },
    {
      "channel": 2,
      "note": 76,
      "start": 24.0025,
      "duration": 0.2165,
      "velocity": 113,
      "chip": "ym2612"
    },
    {
      "channel": 3,
      "note": 78,
      "start": 24.0029,
      "duration": 0.4165,
      "velocity": 106,
      "chip": "ym2612"
    },
    {
      "channel": 4,
      "note": 57,
      "start": 24.0031,
      "duration": 0.116,
      "velocity": 120,
      "chip": "ym2612"
    },
    {
      "channel": 4,
      "note": 57,
      "start": 24.1193,
      "duration": 0.1008,
      "velocity": 120,
      "chip": "ym2612"
    },
    {
      "channel": 1,
      "note": 52,
      "start": 24.219,
      "duration": 0.4167,
      "velocity": 91,
      "chip": "ym2612"
    },
    {
      "channel": 2,
      "note": 80,
      "start": 24.2193,
      "duration": 0.1998,
      "velocity": 113,
      "chip": "ym2612"
    },
    {
      "channel": 4,
      "note": 57,
      "start": 24.2203,
      "duration": 0.0987,
      "velocity": 120,
      "chip": "ym2612"
    },
    {
      "channel": 0,
      "note": 85,
      "start": 24.419,
      "duration": 0.2164,
      "velocity": 106,
      "chip": "ym2612"
    },
    {
      "channel": 2,
      "note": 88,
      "start": 24.4193,
      "duration": 0.2167,
      "velocity": 113,
      "chip": "ym2612"
    },
    {
      "channel": 3,
      "note": 85,
      "start": 24.4195,
      "duration": 0.2167,
      "velocity": 106,
      "chip": "ym2612"
    },
    {
      "channel": 4,
      "note": 57,
      "start": 24.4198,
      "duration": 0.1157,
      "velocity": 120,
      "chip": "ym2612"
    },
    {
      "channel": 4,
      "note": 57,
      "start": 24.5357,
      "duration": 0.1015,
      "velocity": 120,
      "chip": "ym2612"
    },
    {
      "channel": 0,
      "note": 83,
      "start": 24.6356,
      "duration": 0.1998,
      "velocity": 106,
      "chip": "ym2612"
    },
    {
      "channel": 1,
      "note": 52,
      "start": 24.6359,
      "duration": 0.4179,
      "velocity": 91,
      "chip": "ym2612"
    },
    {
      "channel": 2,
      "note": 76,
      "start": 24.6361,
      "duration": 0.1996,
      "velocity": 113,
      "chip": "ym2612"
    },
    {
      "channel": 3,
      "note": 83,
      "start": 24.6364,
      "duration": 0.1996,
      "velocity": 106,
      "chip": "ym2612"
    },
    {
      "channel": 4,
      "note": 57,
      "start": 24.6375,
      "duration": 0.0981,
      "velocity": 120,
      "chip": "ym2612"
    },
    {
      "channel": 0,
      "note": 85,
      "start": 24.8356,
      "duration": 0.2173,
      "velocity": 106,
      "chip": "ym2612"
    },
    {
      "channel": 2,
      "note": 88,
      "start": 24.8359,
      "duration": 0.2188,
      "velocity": 113,
      "chip": "ym2612"
    },
    {
      "channel": 3,
      "note": 85,
      "start": 24.8362,
      "duration": 0.2196,
      "velocity": 106,
      "chip": "ym2612"
    },
    {
      "channel": 4,
      "note": 57,
      "start": 24.8365,
      "duration": 0.1157,
      "velocity": 120,
      "chip": "ym2612"
    },
    {
      "channel": 4,
      "note": 57,
      "start": 24.9525,
      "duration": 0.1044,
      "velocity": 120,
      "chip": "ym2612"
    },
    {
      "channel": 0,
      "note": 86,
      "start": 25.0531,
      "duration": 0.1991,
      "velocity": 106,
      "chip": "ym2612"
    },
    {
      "channel": 1,
      "note": 50,
      "start": 25.0541,
      "duration": 0.4149,
      "velocity": 91,
      "chip": "ym2612"
    },
    {
      "channel": 2,
      "note": 74,
      "start": 25.055,
      "duration": 0.1975,
      "velocity": 113,
      "chip": "ym2612"
    },
    {
      "channel": 3,
      "note": 86,
      "start": 25.056,
      "duration": 0.1968,
      "velocity": 106,
      "chip": "ym2612"
    },
    {
      "channel": 4,
      "note": 57,
      "start": 25.0571,
      "duration": 0.0952,
      "velocity": 120,
      "chip": "ym2612"
    },
    {
      "channel": 0,
      "note": 88,
      "start": 25.2524,
      "duration": 0.2163,
      "velocity": 106,
      "chip": "ym2612"
    },
    {
      "channel": 2,
      "note": 78,
      "start": 25.2527,
      "duration": 0.2166,
      "velocity": 113,
      "chip": "ym2612"
    },
    {
      "channel": 3,
      "note": 88,
      "start": 25.253,
      "duration": 0.2165,
      "velocity": 106,
      "chip": "ym2612"
    },
    {
      "channel": 4,
      "note": 57,
      "start": 25.2533,
      "duration": 0.1156,
      "velocity": 120,
      "chip": "ym2612"
    },
    {
      "channel": 4,
      "note": 57,
      "start": 25.3691,
      "duration": 0.1014,
      "velocity": 120,
      "chip": "ym2612"
    },
    {
      "channel": 0,
      "note": 90,
      "start": 25.4689,
      "duration": 0.1998,
      "velocity": 106,
      "chip": "ym2612"
    },
    {
      "channel": 1,
      "note": 50,
      "start": 25.4692,
      "duration": 0.4162,
      "velocity": 91,
      "chip": "ym2612"
    },
    {
      "channel": 2,
      "note": 86,
      "start": 25.4695,
      "duration": 0.1996,
      "velocity": 113,
      "chip": "ym2612"
    },
    {
      "channel": 3,
      "note": 90,
      "start": 25.4697,
      "duration": 0.1996,
      "velocity": 106,
      "chip": "ym2612"
    },
    {
      "channel": 4,
      "note": 57,
      "start": 25.4708,
      "duration": 0.0981,
      "velocity": 120,
      "chip": "ym2612"
    },
    {
      "channel": 0,
      "note": 74,
      "start": 25.6689,
      "duration": 0.4165,
      "velocity": 106,
      "chip": "ym2612"
    },
    {
      "channel": 2,
      "note": 74,
      "start": 25.6692,
      "duration": 0.2165,
      "velocity": 113,
      "chip": "ym2612"
    },
    {
      "channel": 3,
      "note": 78,
      "start": 25.6695,
      "duration": 0.4165,
      "velocity": 106,
      "chip": "ym2612"
    },
    {
      "channel": 4,
      "note": 57,
      "start": 25.6698,
      "duration": 0.116,
      "velocity": 120,
      "chip": "ym2612"
    },
    {
      "channel": 4,
      "note": 57,
      "start": 25.7859,
      "duration": 0.1008,
      "velocity": 120,
      "chip": "ym2612"
    },
    {
      "channel": 1,
      "note": 50,
      "start": 25.8856,
      "duration": 0.4167,
      "velocity": 91,
      "chip": "ym2612"
    },
    {
      "channel": 2,
      "note": 78,
      "start": 25.8859,
      "duration": 0.1998,
      "velocity": 113,
      "chip": "ym2612"
    },
    {
      "channel": 4,
      "note": 57,
      "start": 25.887,
      "duration": 0.0987,
      "velocity": 120,
      "chip": "ym2612"
    },
    {
      "channel": 0,
      "note": 85,
      "start": 26.0856,
      "duration": 0.2164,
      "velocity": 106,
      "chip": "ym2612"
    },
    {
      "channel": 2,
      "note": 86,
      "start": 26.0859,
      "duration": 0.2167,
      "velocity": 113,
      "chip": "ym2612"
    },
    {
      "channel": 3,
      "note": 85,
      "start": 26.0862,
      "duration": 0.2167,
      "velocity": 106,
      "chip": "ym2612"
    },
    {
      "channel": 4,
      "note": 57,
      "start": 26.0865,
      "duration": 0.1157,
      "velocity": 120,
      "chip": "ym2612"
    },
    {
      "channel": 4,
      "note": 57,
      "start": 26.2024,
      "duration": 0.1015,
      "velocity": 120,
      "chip": "ym2612"
    },
    {
      "channel": 0,
      "note": 83,
      "start": 26.3023,
      "duration": 0.1998,
      "velocity": 106,
      "chip": "ym2612"
    },
    {
      "channel": 1,
      "note": 50,
      "start": 26.3025,
      "duration": 0.4179,
      "velocity": 91,
      "chip": "ym2612"
    },
    {
      "channel": 2,
      "note": 74,
      "start": 26.3028,
      "duration": 0.1996,
      "velocity": 113,
      "chip": "ym2612"
    },
    {
      "channel": 3,
      "note": 83,
      "start": 26.3031,
      "duration": 0.1996,
      "velocity": 106,
      "chip": "ym2612"
    },
    {
      "channel": 4,
      "note": 57,
      "start": 26.3041,
      "duration": 0.0981,
      "velocity": 120,
      "chip": "ym2612"
    },
    {
      "channel": 0,
      "note": 85,
      "start": 26.5023,
      "duration": 0.2173,
      "velocity": 106,
      "chip": "ym2612"
    },
    {
      "channel": 2,
      "note": 86,
      "start": 26.5026,
      "duration": 0.2189,
      "velocity": 113,
      "chip": "ym2612"
    },
    {
      "channel": 3,
      "note": 85,
      "start": 26.5029,
      "duration": 0.2197,
      "velocity": 106,
      "chip": "ym2612"
    },
    {
      "channel": 4,
      "note": 57,
      "start": 26.5032,
      "duration": 0.1157,
      "velocity": 120,
      "chip": "ym2612"
    },
    {
      "channel": 4,
      "note": 57,
      "start": 26.6191,
      "duration": 0.1044,
      "velocity": 120,
      "chip": "ym2612"
    },
    {
      "channel": 0,
      "note": 74,
      "start": 26.7198,
      "duration": 0.1991,
      "velocity": 106,
      "chip": "ym2612"
    },
    {
      "channel": 1,
      "note": 52,
      "start": 26.7207,
      "duration": 0.1984,
      "velocity": 91,
      "chip": "ym2612"
    },
    {
      "channel": 2,
      "note": 76,
      "start": 26.7217,
      "duration": 0.1978,
      "velocity": 113,
      "chip": "ym2612"
    },
    {
      "channel": 3,
      "note": 78,
      "start": 26.7227,
      "duration": 0.197,
      "velocity": 106,
      "chip": "ym2612"
    },
    {
      "channel": 4,
      "note": 57,
      "start": 26.7238,
      "duration": 0.0951,
      "velocity": 120,
      "chip": "ym2612"
    },
    {
      "channel": 0,
      "note": 74,
      "start": 26.9191,
      "duration": 0.2163,
      "velocity": 106,
      "chip": "ym2612"
    },
    {
      "channel": 1,
      "note": 54,
      "start": 26.9194,
      "duration": 0.2161,
      "velocity": 91,
      "chip": "ym2612"
    },
    {
      "channel": 2,
      "note": 80,
      "start": 26.9197,
      "duration": 0.2161,
      "velocity": 113,
      "chip": "ym2612"
    },
    {
      "channel": 3,
      "note": 78,
      "start": 26.9199,
      "duration": 0.2161,
      "velocity": 106,
      "chip": "ym2612"
    },
    {
      "channel": 4,
      "note": 57,
      "start": 26.9202,
      "duration": 0.1153,
      "velocity": 120,
      "chip": "ym2612"
    },
    {
      "channel": 4,
      "note": 57,
      "start": 27.0358,
      "duration": 0.1012,
      "velocity": 120,
      "chip": "ym2612"
    },
    {
      "channel": 1,
      "note": 56,
      "start": 27.1357,
      "duration": 0.1999,
      "velocity": 91,
      "chip": "ym2612"
    },
    {
      "channel": 2,
      "note": 88,
      "start": 27.136,
      "duration": 0.1999,
      "velocity": 113,
      "chip": "ym2612"
    },
    {
      "channel": 4,
      "note": 57,
      "start": 27.1372,
      "duration": 0.0983,
      "velocity": 120,
      "chip": "ym2612"
    },
    {
      "channel": 0,
      "note": 74,
      "start": 27.3356,
      "duration": 0.4165,
      "velocity": 106,
      "chip": "ym2612"
    },
    {
      "channel": 1,
      "note": 59,
      "start": 27.3359,
      "duration": 0.4163,
      "velocity": 91,
      "chip": "ym2612"
    },
    {
      "channel": 2,
      "note": 76,
      "start": 27.3361,
      "duration": 0.216,
      "velocity": 113,
      "chip": "ym2612"
    },
    {
      "channel": 3,
      "note": 78,
      "start": 27.3364,
      "duration": 0.4163,
      "velocity": 106,
      "chip": "ym2612"
    },
    {
      "channel": 4,
      "note": 57,
      "start": 27.3367,
      "duration": 0.1157,
      "velocity": 120,
      "chip": "ym2612"
    },
    {
      "channel": 4,
      "note": 57,
      "start": 27.4526,
      "duration": 0.1006,
      "velocity": 120,
      "chip": "ym2612"
    },
    {
      "channel": 2,
      "note": 80,
      "start": 27.5524,
      "duration": 0.2001,
      "velocity": 113,
      "chip": "ym2612"
    },
    {
      "channel": 4,
      "note": 57,
      "start": 27.5534,
      "duration": 0.099,
      "velocity": 120,
      "chip": "ym2612"
    },
    {
      "channel": 1,
      "note": 61,
      "start": 27.7524,
      "duration": 0.2166,
      "velocity": 91,
      "chip": "ym2612"
    },
    {
      "channel": 2,
      "note": 88,
      "start": 27.7527,
      "duration": 0.2166,
      "velocity": 113,
      "chip": "ym2612"
    },
    {
      "channel": 4,
      "note": 57,
      "start": 27.7532,
      "duration": 0.1157,
      "velocity": 120,
      "chip": "ym2612"
    },
    {
      "channel": 4,
      "note": 57,
      "start": 27.8691,
      "duration": 0.1015,
      "velocity": 120,
      "chip": "ym2612"
    },
    {
      "channel": 0,
      "note": 74,
      "start": 27.969,
      "duration": 0.1998,
      "velocity": 106,
      "chip": "ym2612"
    },
    {
      "channel": 1,
      "note": 59,
      "start": 27.9692,
      "duration": 0.1998,
      "velocity": 91,
      "chip": "ym2612"
    },
    {
      "channel": 2,
      "note": 76,
      "start": 27.9695,
      "duration": 0.1998,
      "velocity": 113,
      "chip": "ym2612"
    },
    {
      "channel": 3,
      "note": 78,
      "start": 27.9698,
      "duration": 0.1998,
      "velocity": 106,
      "chip": "ym2612"
    },
    {
      "channel": 4,
      "note": 57,
      "start": 27.9708,
      "duration": 0.0981,
      "velocity": 120,
      "chip": "ym2612"
    },
    {
      "channel": 0,
      "note": 74,
      "start": 28.169,
      "duration": 0.2173,
      "velocity": 106,
      "chip": "ym2612"
    },
    {
      "channel": 1,
      "note": 61,
      "start": 28.1692,
      "duration": 0.2179,
      "velocity": 91,
      "chip": "ym2612"
    },
    {
      "channel": 2,
      "note": 88,
      "start": 28.1695,
      "duration": 0.2186,
      "velocity": 113,
      "chip": "ym2612"
    },
    {
      "channel": 3,
      "note": 78,
      "start": 28.1698,
      "duration": 0.2193,
      "velocity": 106,
      "chip": "ym2612"
    },
    {
      "channel": 4,
      "note": 57,
      "start": 28.17,
      "duration": 0.1155,
      "velocity": 120,
      "chip": "ym2612"
    },
    {
      "channel": 4,
      "note": 57,
      "start": 28.2858,
      "duration": 0.1044,
      "velocity": 120,
      "chip": "ym2612"
    },
    {
      "channel": 0,
      "note": 78,
      "start": 28.3864,
      "duration": 0.1991,
      "velocity": 106,
      "chip": "ym2612"
    },
    {
      "channel": 1,
      "note": 52,
      "start": 28.3874,
      "duration": 0.1984,
      "velocity": 91,
      "chip": "ym2612"
    },
    {
      "channel": 2,
      "note": 74,
      "start": 28.3883,
      "duration": 0.1978,
      "velocity": 113,
      "chip": "ym2612"
    },
    {
      "channel": 3,
      "note": 69,
      "start": 28.3894,
      "duration": 0.197,
      "velocity": 106,
      "chip": "ym2612"
    },
    {
      "channel": 4,
      "note": 57,
      "start": 28.3904,
      "duration": 0.0952,
      "velocity": 120,
      "chip": "ym2612"
    },
    {
      "channel": 0,
      "note": 78,
      "start": 28.5857,
      "duration": 0.2163,
      "velocity": 106,
      "chip": "ym2612"
    },
    {
      "channel": 1,
      "note": 54,
      "start": 28.5861,
      "duration": 0.2161,
      "velocity": 91,
      "chip": "ym2612"
    },
    {
      "channel": 2,
      "note": 78,
      "start": 28.5863,
      "duration": 0.2161,
      "velocity": 113,
      "chip": "ym2612"
    },
    {
      "channel": 3,
      "note": 69,
      "start": 28.5866,
      "duration": 0.2161,
      "velocity": 106,
      "chip": "ym2612"
    },
    {
      "channel": 4,
      "note": 57,
      "start": 28.5869,
      "duration": 0.1153,
      "velocity": 120,
      "chip": "ym2612"
    },
    {
      "channel": 4,
      "note": 57,
      "start": 28.7025,
      "duration": 0.1012,
      "velocity": 120,
      "chip": "ym2612"
    },
    {
      "channel": 1,
      "note": 56,
      "start": 28.8024,
      "duration": 0.1999,
      "velocity": 91,
      "chip": "ym2612"
    },
    {
      "channel": 2,
      "note": 86,
      "start": 28.8027,
      "duration": 0.1999,
      "velocity": 113,
      "chip": "ym2612"
    },
    {
      "channel": 4,
      "note": 57,
      "start": 28.8039,
      "duration": 0.0983,
      "velocity": 120,
      "chip": "ym2612"
    },
    {
      "channel": 0,
      "note": 78,
      "start": 29.0022,
      "duration": 0.4165,
      "velocity": 106,
      "chip": "ym2612"
    },
    {
      "channel": 1,
      "note": 59,
      "start": 29.0025,
      "duration": 0.4163,
      "velocity": 91,
      "chip": "ym2612"
    },
    {
      "channel": 2,
      "note": 74,
      "start": 29.0028,
      "duration": 0.216,
      "velocity": 113,
      "chip": "ym2612"
    },
    {
      "channel": 3,
      "note": 69,
      "start": 29.0031,
      "duration": 0.4163,
      "velocity": 106,
      "chip": "ym2612"
    },
    {
      "channel": 4,
      "note": 57,
      "start": 29.0034,
      "duration": 0.1157,
      "velocity": 120,
      "chip": "ym2612"
    },
    {
      "channel": 4,
      "note": 57,
      "start": 29.1193,
      "duration": 0.1006,
      "velocity": 120,
      "chip": "ym2612"
    },
    {
      "channel": 2,
      "note": 78,
      "start": 29.219,
      "duration": 0.2001,
      "velocity": 113,
      "chip": "ym2612"
    },
    {
      "channel": 4,
      "note": 57,
      "start": 29.2201,
      "duration": 0.099,
      "velocity": 120,
      "chip": "ym2612"
    },
    {
      "channel": 1,
      "note": 61,
      "start": 29.4191,
      "duration": 0.2166,
      "velocity": 91,
      "chip": "ym2612"
    },
    {
      "channel": 2,
      "note": 86,
      "start": 29.4194,
      "duration": 0.2166,
      "velocity": 113,
      "chip": "ym2612"
    },
    {
      "channel": 4,
      "note": 57,
      "start": 29.4198,
      "duration": 0.1157,
      "velocity": 120,
      "chip": "ym2612"
    },
    {
      "channel": 4,
      "note": 57,
      "start": 29.5357,
      "duration": 0.1015,
      "velocity": 120,
      "chip": "ym2612"
    },
    {
      "channel": 0,
      "note": 78,
      "start": 29.6356,
      "duration": 0.1998,
      "velocity": 106,
      "chip": "ym2612"
    },
    {
      "channel": 1,
      "note": 59,
      "start": 29.6359,
      "duration": 0.1998,
      "velocity": 91,
      "chip": "ym2612"
    },
    {
      "channel": 2,
      "note": 74,
      "start": 29.6361,
      "duration": 0.1998,
      "velocity": 113,
      "chip": "ym2612"
    },
    {
      "channel": 3,
      "note": 69,
      "start": 29.6364,
      "duration": 0.1998,
      "velocity": 106,
      "chip": "ym2612"
    },
    {
      "channel": 4,
      "note": 57,
      "start": 29.6375,
      "duration": 0.0981,
      "velocity": 120,
      "chip": "ym2612"
    },
    {
      "channel": 0,
      "note": 78,
      "start": 29.8356,
      "duration": 0.2173,
      "velocity": 106,
      "chip": "ym2612"
    },
    {
      "channel": 1,
      "note": 61,
      "start": 29.8359,
      "duration": 0.2179,
      "velocity": 91,
      "chip": "ym2612"
    },
    {
      "channel": 2,
      "note": 86,
      "start": 29.8361,
      "duration": 0.2187,
      "velocity": 113,
      "chip": "ym2612"
    },
    {
      "channel": 3,
      "note": 69,
      "start": 29.8364,
      "duration": 0.2194,
      "velocity": 106,
      "chip": "ym2612"
    },
    {
      "channel": 4,
      "note": 57,
      "start": 29.8367,
      "duration": 0.1155,
      "velocity": 120,
      "chip": "ym2612"
    },
    {
      "channel": 4,
      "note": 57,
      "start": 29.9525,
      "duration": 0.1044,
      "velocity": 120,
      "chip": "ym2612"
    },
    {
      "channel": 0,
      "note": 74,
      "start": 30.0531,
      "duration": 0.1991,
      "velocity": 106,
      "chip": "ym2612"
    },
    {
      "channel": 1,
      "note": 52,
      "start": 30.0541,
      "duration": 0.1984,
      "velocity": 91,
      "chip": "ym2612"
    },
    {
      "channel": 2,
      "note": 76,
      "start": 30.055,
      "duration": 0.1978,
      "velocity": 113,
      "chip": "ym2612"
    },
    {
      "channel": 3,
      "note": 78,
      "start": 30.056,
      "duration": 0.197,
      "velocity": 106,
      "chip": "ym2612"
    },
    {
      "channel": 4,
      "note": 57,
      "start": 30.0571,
      "duration": 0.0951,
      "velocity": 120,
      "chip": "ym2612"
    },
    {
      "channel": 0,
      "note": 74,
      "start": 30.2524,
      "duration": 0.2163,
      "velocity": 106,
      "chip": "ym2612"
    },
    {
      "channel": 1,
      "note": 54,
      "start": 30.2527,
      "duration": 0.2161,
      "velocity": 91,
      "chip": "ym2612"
    },
    {
      "channel": 2,
      "note": 80,
      "start": 30.253,
      "duration": 0.2161,
      "velocity": 113,
      "chip": "ym2612"
    },
    {
      "channel": 3,
      "note": 78,
      "start": 30.2532,
      "duration": 0.2161,
      "velocity": 106,
      "chip": "ym2612"
    },
    {
      "channel": 4,
      "note": 57,
      "start": 30.2536,
      "duration": 0.1153,
      "velocity": 120,
      "chip": "ym2612"
    },
    {
      "channel": 4,
      "note": 57,
      "start": 30.3691,
      "duration": 0.1012,
      "velocity": 120,
      "chip": "ym2612"
    },
    {
      "channel": 1,
      "note": 56,
      "start": 30.4691,
      "duration": 0.1999,
      "velocity": 91,
      "chip": "ym2612"
    },
    {
      "channel": 2,
      "note": 88,
      "start": 30.4693,
      "duration": 0.1999,
      "velocity": 113,
      "chip": "ym2612"
    },
    {
      "channel": 4,
      "note": 57,
      "start": 30.4705,
      "duration": 0.0983,
      "velocity": 120,
      "chip": "ym2612"
    },
    {
      "channel": 0,
      "note": 74,
      "start": 30.6689,
      "duration": 0.4165,
      "velocity": 106,
      "chip": "ym2612"
    },
    {
      "channel": 1,
      "note": 59,
      "start": 30.6692,
      "duration": 0.4163,
      "velocity": 91,
      "chip": "ym2612"
    },
    {
      "channel": 2,
      "note": 76,
      "start": 30.6695,
      "duration": 0.216,
      "velocity": 113,
      "chip": "ym2612"
    },
    {
      "channel": 3,
      "note": 78,
      "start": 30.6698,
      "duration": 0.4163,
      "velocity": 106,
      "chip": "ym2612"
    },
    {
      "channel": 4,
      "note": 57,
      "start": 30.67,
      "duration": 0.1157,
      "velocity": 120,
      "chip": "ym2612"
    },
    {
      "channel": 4,
      "note": 57,
      "start": 30.7859,
      "duration": 0.1006,
      "velocity": 120,
      "chip": "ym2612"
    },
    {
      "channel": 2,
      "note": 80,
      "start": 30.8857,
      "duration": 0.2001,
      "velocity": 113,
      "chip": "ym2612"
    },
    {
      "channel": 4,
      "note": 57,
      "start": 30.8868,
      "duration": 0.099,
      "velocity": 120,
      "chip": "ym2612"
    },
    {
      "channel": 1,
      "note": 61,
      "start": 31.0857,
      "duration": 0.2166,
      "velocity": 91,
      "chip": "ym2612"
    },
    {
      "channel": 2,
      "note": 88,
      "start": 31.0861,
      "duration": 0.2166,
      "velocity": 113,
      "chip": "ym2612"
    },
    {
      "channel": 4,
      "note": 57,
      "start": 31.0865,
      "duration": 0.1157,
      "velocity": 120,
      "chip": "ym2612"
    },
    {
      "channel": 4,
      "note": 57,
      "start": 31.2024,
      "duration": 0.1015,
      "velocity": 120,
      "chip": "ym2612"
    },
    {
      "channel": 0,
      "note": 74,
      "start": 31.3023,
      "duration": 0.1998,
      "velocity": 106,
      "chip": "ym2612"
    },
    {
      "channel": 1,
      "note": 59,
      "start": 31.3025,
      "duration": 0.1998,
      "velocity": 91,
      "chip": "ym2612"
    },
    {
      "channel": 2,
      "note": 76,
      "start": 31.3028,
      "duration": 0.1998,
      "velocity": 113,
      "chip": "ym2612"
    },
    {
      "channel": 3,
      "note": 78,
      "start": 31.3031,
      "duration": 0.1998,
      "velocity": 106,
      "chip": "ym2612"
    },
    {
      "channel": 4,
      "note": 57,
      "start": 31.3041,
      "duration": 0.0981,
      "velocity": 120,
      "chip": "ym2612"
    },
    {
      "channel": 0,
      "note": 74,
      "start": 31.5023,
      "duration": 0.2173,
      "velocity": 106,
      "chip": "ym2612"
    },
    {
      "channel": 1,
      "note": 61,
      "start": 31.5025,
      "duration": 0.2179,
      "velocity": 91,
      "chip": "ym2612"
    },
    {
      "channel": 2,
      "note": 88,
      "start": 31.5028,
      "duration": 0.2186,
      "velocity": 113,
      "chip": "ym2612"
    },
    {
      "channel": 3,
      "note": 78,
      "start": 31.5031,
      "duration": 0.2193,
      "velocity": 106,
      "chip": "ym2612"
    },
    {
      "channel": 4,
      "note": 57,
      "start": 31.5034,
      "duration": 0.1155,
      "velocity": 120,
      "chip": "ym2612"
    },
    {
      "channel": 4,
      "note": 57,
      "start": 31.6191,
      "duration": 0.1044,
      "velocity": 120,
      "chip": "ym2612"
    },
    {
      "channel": 0,
      "note": 78,
      "start": 31.7198,
      "duration": 0.1991,
      "velocity": 106,
      "chip": "ym2612"
    },
    {
      "channel": 1,
      "note": 52,
      "start": 31.7207,
      "duration": 0.1984,
      "velocity": 91,
      "chip": "ym2612"
    },
    {
      "channel": 2,
      "note": 74,
      "start": 31.7217,
      "duration": 0.1978,
      "velocity": 113,
      "chip": "ym2612"
    },
    {
      "channel": 3,
      "note": 69,
      "start": 31.7227,
      "duration": 0.197,
      "velocity": 106,
      "chip": "ym2612"
    },
    {
      "channel": 4,
      "note": 57,
      "start": 31.7237,
      "duration": 0.0952,
      "velocity": 120,
      "chip": "ym2612"
    },
    {
      "channel": 0,
      "note": 78,
      "start": 31.9191,
      "duration": 0.2163,
      "velocity": 106,
      "chip": "ym2612"
    },
    {
      "channel": 1,
      "note": 54,
      "start": 31.9194,
      "duration": 0.2161,
      "velocity": 91,
      "chip": "ym2612"
    },
    {
      "channel": 2,
      "note": 78,
      "start": 31.9197,
      "duration": 0.2161,
      "velocity": 113,
      "chip": "ym2612"
    },
    {
      "channel": 3,
      "note": 69,
      "start": 31.9199,
      "duration": 0.2161,
      "velocity": 106,
      "chip": "ym2612"
    },
    {
      "channel": 4,
      "note": 57,
      "start": 31.9202,
      "duration": 0.1153,
      "velocity": 120,
      "chip": "ym2612"
    },
    {
      "channel": 4,
      "note": 57,
      "start": 32.0358,
      "duration": 0.1012,
      "velocity": 120,
      "chip": "ym2612"
    },
    {
      "channel": 1,
      "note": 56,
      "start": 32.1357,
      "duration": 0.1999,
      "velocity": 91,
      "chip": "ym2612"
    },
    {
      "channel": 2,
      "note": 86,
      "start": 32.136,
      "duration": 0.1999,
      "velocity": 113,
      "chip": "ym2612"
    },
    {
      "channel": 4,
      "note": 57,
      "start": 32.1372,
      "duration": 0.0983,
      "velocity": 120,
      "chip": "ym2612"
    },
    {
      "channel": 0,
      "note": 78,
      "start": 32.3356,
      "duration": 0.4165,
      "velocity": 106,
      "chip": "ym2612"
    },
    {
      "channel": 1,
      "note": 59,
      "start": 32.3359,
      "duration": 0.4163,
      "velocity": 91,
      "chip": "ym2612"
    },
    {
      "channel": 2,
      "note": 74,
      "start": 32.3361,
      "duration": 0.216,
      "velocity": 113,
      "chip": "ym2612"
    },
    {
      "channel": 3,
      "note": 69,
      "start": 32.3364,
      "duration": 0.4163,
      "velocity": 106,
      "chip": "ym2612"
    },
    {
      "channel": 4,
      "note": 57,
      "start": 32.3367,
      "duration": 0.1157,
      "velocity": 120,
      "chip": "ym2612"
    },
    {
      "channel": 4,
      "note": 57,
      "start": 32.4526,
      "duration": 0.1006,
      "velocity": 120,
      "chip": "ym2612"
    },
    {
      "channel": 2,
      "note": 78,
      "start": 32.5524,
      "duration": 0.2001,
      "velocity": 113,
      "chip": "ym2612"
    },
    {
      "channel": 4,
      "note": 57,
      "start": 32.5534,
      "duration": 0.099,
      "velocity": 120,
      "chip": "ym2612"
    },
    {
      "channel": 1,
      "note": 61,
      "start": 32.7524,
      "duration": 0.2166,
      "velocity": 91,
      "chip": "ym2612"
    },
    {
      "channel": 2,
      "note": 86,
      "start": 32.7527,
      "duration": 0.2166,
      "velocity": 113,
      "chip": "ym2612"
    },
    {
      "channel": 4,
      "note": 57,
      "start": 32.7532,
      "duration": 0.1157,
      "velocity": 120,
      "chip": "ym2612"
    },
    {
      "channel": 4,
      "note": 57,
      "start": 32.8691,
      "duration": 0.1015,
      "velocity": 120,
      "chip": "ym2612"
    },
    {
      "channel": 0,
      "note": 78,
      "start": 32.969,
      "duration": 0.1998,
      "velocity": 106,
      "chip": "ym2612"
    },
    {
      "channel": 1,
      "note": 59,
      "start": 32.9692,
      "duration": 0.1998,
      "velocity": 91,
      "chip": "ym2612"
    },
    {
      "channel": 2,
      "note": 74,
      "start": 32.9695,
      "duration": 0.1998,
      "velocity": 113,
      "chip": "ym2612"
    },
    {
      "channel": 3,
      "note": 69,
      "start": 32.9698,
      "duration": 0.1998,
      "velocity": 106,
      "chip": "ym2612"
    },
    {
      "channel": 4,
      "note": 57,
      "start": 32.9708,
      "duration": 0.0981,
      "velocity": 120,
      "chip": "ym2612"
    },
    {
      "channel": 0,
      "note": 78,
      "start": 33.169,
      "duration": 0.2173,
      "velocity": 106,
      "chip": "ym2612"
    },
    {
      "channel": 1,
      "note": 61,
      "start": 33.1692,
      "duration": 0.218,
      "velocity": 91,
      "chip": "ym2612"
    },
    {
      "channel": 2,
      "note": 86,
      "start": 33.1695,
      "duration": 0.2187,
      "velocity": 113,
      "chip": "ym2612"
    },
    {
      "channel": 3,
      "note": 69,
      "start": 33.1698,
      "duration": 0.2195,
      "velocity": 106,
      "chip": "ym2612"
    },
    {
      "channel": 4,
      "note": 57,
      "start": 33.17,
      "duration": 0.1155,
      "velocity": 120,
      "chip": "ym2612"
    },
    {
      "channel": 4,
      "note": 57,
      "start": 33.2858,
      "duration": 0.1045,
      "velocity": 120,
      "chip": "ym2612"
    },
    {
      "channel": 0,
      "note": 76,
      "start": 33.3864,
      "duration": 0.4138,
      "velocity": 106,
      "chip": "ym2612"
    },
    {
      "channel": 1,
      "note": 52,
      "start": 33.3874,
      "duration": 0.4129,
      "velocity": 91,
      "chip": "ym2612"
    },
    {
      "channel": 2,
      "note": 76,
      "start": 33.3884,
      "duration": 0.1973,
      "velocity": 113,
      "chip": "ym2612"
    },
    {
      "channel": 3,
      "note": 71,
      "start": 33.3894,
      "duration": 0.4108,
      "velocity": 106,
      "chip": "ym2612"
    },
    {
      "channel": 4,
      "note": 57,
      "start": 33.3905,
      "duration": 0.095,
      "velocity": 120,
      "chip": "ym2612"
    },
    {
      "channel": 2,
      "note": 80,
      "start": 33.5859,
      "duration": 0.2144,
      "velocity": 113,
      "chip": "ym2612"
    },
    {
      "channel": 4,
      "note": 57,
      "start": 33.5862,
      "duration": 0.116,
      "velocity": 120,
      "chip": "ym2612"
    },
    {
      "channel": 4,
      "note": 57,
      "start": 33.7025,
      "duration": 0.0978,
      "velocity": 120,
      "chip": "ym2612"
    }
  ]
}