{
  "track_name": "08 - The Enemy's Base on Pluto",
  "duration_sec": 42.035,
  "sample_rate": 44100,
  "note_count": 907,
  "unique_pitches": 34,
  "pitch_range": 48,
  "avg_note_duration": 0.1012,
  "reconstruction_stats": {
    "notes_reconstructed": 907,
    "keyon_events": 907,
    "keyoff_events": 905,
    "orphan_keyons": 2,
    "unique_pitches": 34,
    "pitch_range": 48,
    "avg_duration_sec": 0.1012
  },
  "metadata": {
    "source": "S\\Sol-Deace\\08 - The Enemy's Base on Pluto.vgz"
  },
  "notes": [
    {
      "channel": 1,
      "note": 68,
      "start": 0.1758,
      "duration": 0.1528,
      "velocity": 100,
      "chip": "ym2612"
    },
    {
      "channel": 2,
      "note": 72,
      "start": 0.1786,
      "duration": 0.1501,
      "velocity": 100,
      "chip": "ym2612"
    },
    {
      "channel": 3,
      "note": 56,
      "start": 0.1813,
      "duration": 0.0166,
      "velocity": 88,
      "chip": "ym2612"
    },
    {
      "channel": 4,
      "note": 68,
      "start": 0.184,
      "duration": 0.014,
      "velocity": 95,
      "chip": "ym2612"
    },
    {
      "channel": 3,
      "note": 56,
      "start": 0.2018,
      "duration": 0.0139,
      "velocity": 88,
      "chip": "ym2612"
    },
    {
      "channel": 4,
      "note": 72,
      "start": 0.2022,
      "duration": 0.0135,
      "velocity": 95,
      "chip": "ym2612"
    },
    {
      "channel": 3,
      "note": 68,
      "start": 0.2199,
      "duration": 0.0145,
      "velocity": 88,
      "chip": "ym2612"
    },
    {
      "channel": 4,
      "note": 75,
      "start": 0.2204,
      "duration": 0.0141,
      "velocity": 95,
      "chip": "ym2612"
    },
    {
      "channel": 3,
      "note": 56,
      "start": 0.2374,
      "duration": 0.0148,
      "velocity": 88,
      "chip": "ym2612"
    },
    {
      "channel": 4,
      "note": 80,
      "start": 0.2379,
      "duration": 0.0145,
      "velocity": 95,
      "chip": "ym2612"
    },
    {
      "channel": 4,
      "note": 68,
      "start": 0.2579,
      "duration": 0.0149,
      "velocity": 95,
      "chip": "ym2612"
    },
    {
      "channel": 3,
      "note": 56,
      "start": 0.2757,
      "duration": 0.0137,
      "velocity": 88,
      "chip": "ym2612"
    },
    {
      "channel": 4,
      "note": 72,
      "start": 0.2762,
      "duration": 0.0133,
      "velocity": 95,
      "chip": "ym2612"
    },
    {
      "channel": 3,
      "note": 68,
      "start": 0.2956,
      "duration": 0.0149,
      "velocity": 88,
      "chip": "ym2612"
    },
    {
      "channel": 4,
      "note": 75,
      "start": 0.2961,
      "duration": 0.0144,
      "velocity": 95,
      "chip": "ym2612"
    },
    {
      "channel": 3,
      "note": 56,
      "start": 0.3144,
      "duration": 0.0145,
      "velocity": 88,
      "chip": "ym2612"
    },
    {
      "channel": 4,
      "note": 80,
      "start": 0.3149,
      "duration": 0.0142,
      "velocity": 95,
      "chip": "ym2612"
    },
    {
      "channel": 1,
      "note": 70,
      "start": 0.3334,
      "duration": 0.1491,
      "velocity": 100,
      "chip": "ym2612"
    },
    {
      "channel": 2,
      "note": 74,
      "start": 0.3339,
      "duration": 0.1487,
      "velocity": 100,
      "chip": "ym2612"
    },
    {
      "channel": 3,
      "note": 56,
      "start": 0.3346,
      "duration": 0.0155,
      "velocity": 88,
      "chip": "ym2612"
    },
    {
      "channel": 4,
      "note": 70,
      "start": 0.3351,
      "duration": 0.0151,
      "velocity": 95,
      "chip": "ym2612"
    },
    {
      "channel": 3,
      "note": 56,
      "start": 0.3531,
      "duration": 0.0142,
      "velocity": 88,
      "chip": "ym2612"
    },
    {
      "channel": 4,
      "note": 74,
      "start": 0.3536,
      "duration": 0.0139,
      "velocity": 95,
      "chip": "ym2612"
    },
    {
      "channel": 3,
      "note": 68,
      "start": 0.3705,
      "duration": 0.015,
      "velocity": 88,
      "chip": "ym2612"
    },
    {
      "channel": 4,
      "note": 77,
      "start": 0.371,
      "duration": 0.0146,
      "velocity": 95,
      "chip": "ym2612"
    },
    {
      "channel": 3,
      "note": 56,
      "start": 0.3897,
      "duration": 0.0144,
      "velocity": 88,
      "chip": "ym2612"
    },
    {
      "channel": 4,
      "note": 82,
      "start": 0.3902,
      "duration": 0.0141,
      "velocity": 95,
      "chip": "ym2612"
    },
    {
      "channel": 4,
      "note": 70,
      "start": 0.4083,
      "duration": 0.0139,
      "velocity": 95,
      "chip": "ym2612"
    },
    {
      "channel": 3,
      "note": 56,
      "start": 0.4277,
      "duration": 0.0158,
      "velocity": 88,
      "chip": "ym2612"
    },
    {
      "channel": 4,
      "note": 74,
      "start": 0.4282,
      "duration": 0.0154,
      "velocity": 95,
      "chip": "ym2612"
    },
    {
      "channel": 3,
      "note": 68,
      "start": 0.4484,
      "duration": 0.0155,
      "velocity": 88,
      "chip": "ym2612"
    },
    {
      "channel": 4,
      "note": 77,
      "start": 0.449,
      "duration": 0.0152,
      "velocity": 95,
      "chip": "ym2612"
    },
    {
      "channel": 3,
      "note": 56,
      "start": 0.4671,
      "duration": 0.0157,
      "velocity": 88,
      "chip": "ym2612"
    },
    {
      "channel": 4,
      "note": 82,
      "start": 0.4676,
      "duration": 0.0154,
      "velocity": 95,
      "chip": "ym2612"
    },
    {
      "channel": 1,
      "note": 71,
      "start": 0.4858,
      "duration": 0.1458,
      "velocity": 100,
      "chip": "ym2612"
    },
    {
      "channel": 2,
      "note": 75,
      "start": 0.4863,
      "duration": 0.1453,
      "velocity": 100,
      "chip": "ym2612"
    },
    {
      "channel": 3,
      "note": 56,
      "start": 0.487,
      "duration": 0.0144,
      "velocity": 88,
      "chip": "ym2612"
    },
    {
      "channel": 4,
      "note": 71,
      "start": 0.4876,
      "duration": 0.014,
      "velocity": 95,
      "chip": "ym2612"
    },
    {
      "channel": 3,
      "note": 56,
      "start": 0.5053,
      "duration": 0.014,
      "velocity": 88,
      "chip": "ym2612"
    },
    {
      "channel": 4,
      "note": 75,
      "start": 0.5058,
      "duration": 0.0136,
      "velocity": 95,
      "chip": "ym2612"
    },
    {
      "channel": 3,
      "note": 68,
      "start": 0.5236,
      "duration": 0.0151,
      "velocity": 88,
      "chip": "ym2612"
    },
    {
      "channel": 4,
      "note": 78,
      "start": 0.5241,
      "duration": 0.0148,
      "velocity": 95,
      "chip": "ym2612"
    },
    {
      "channel": 3,
      "note": 56,
      "start": 0.5417,
      "duration": 0.0147,
      "velocity": 88,
      "chip": "ym2612"
    },
    {
      "channel": 4,
      "note": 83,
      "start": 0.5422,
      "duration": 0.0143,
      "velocity": 95,
      "chip": "ym2612"
    },
    {
      "channel": 4,
      "note": 71,
      "start": 0.5611,
      "duration": 0.0147,
      "velocity": 95,
      "chip": "ym2612"
    },
    {
      "channel": 3,
      "note": 56,
      "start": 0.5785,
      "duration": 0.014,
      "velocity": 88,
      "chip": "ym2612"
    },
    {
      "channel": 4,
      "note": 75,
      "start": 0.579,
      "duration": 0.0137,
      "velocity": 95,
      "chip": "ym2612"
    },
    {
      "channel": 3,
      "note": 68,
      "start": 0.5986,
      "duration": 0.0149,
      "velocity": 88,
      "chip": "ym2612"
    },
    {
      "channel": 4,
      "note": 78,
      "start": 0.5991,
      "duration": 0.0145,
      "velocity": 95,
      "chip": "ym2612"
    },
    {
      "channel": 3,
      "note": 56,
      "start": 0.6165,
      "duration": 0.0153,
      "velocity": 88,
      "chip": "ym2612"
    },
    {
      "channel": 4,
      "note": 83,
      "start": 0.617,
      "duration": 0.015,
      "velocity": 95,
      "chip": "ym2612"
    },
    {
      "channel": 1,
      "note": 68,
      "start": 0.6363,
      "duration": 0.1573,
      "velocity": 100,
      "chip": "ym2612"
    },
    {
      "channel": 2,
      "note": 73,
      "start": 0.637,
      "duration": 0.1568,
      "velocity": 100,
      "chip": "ym2612"
    },
    {
      "channel": 3,
      "note": 56,
      "start": 0.6376,
      "duration": 0.0173,
      "velocity": 88,
      "chip": "ym2612"
    },
    {
      "channel": 4,
      "note": 73,
      "start": 0.6382,
      "duration": 0.0168,
      "velocity": 95,
      "chip": "ym2612"
    },
    {
      "channel": 3,
      "note": 56,
      "start": 0.6578,
      "duration": 0.0151,
      "velocity": 88,
      "chip": "ym2612"
    },
    {
      "channel": 4,
      "note": 77,
      "start": 0.6583,
      "duration": 0.0148,
      "velocity": 95,
      "chip": "ym2612"
    },
    {
      "channel": 3,
      "note": 68,
      "start": 0.6772,
      "duration": 0.0143,
      "velocity": 88,
      "chip": "ym2612"
    },
    {
      "channel": 4,
      "note": 80,
      "start": 0.6777,
      "duration": 0.0139,
      "velocity": 95,
      "chip": "ym2612"
    },
    {
      "channel": 3,
      "note": 56,
      "start": 0.6966,
      "duration": 0.0161,
      "velocity": 88,
      "chip": "ym2612"
    },
    {
      "channel": 4,
      "note": 85,
      "start": 0.6971,
      "duration": 0.0157,
      "velocity": 95,
      "chip": "ym2612"
    },
    {
      "channel": 4,
      "note": 73,
      "start": 0.718,
      "duration": 0.0146,
      "velocity": 95,
      "chip": "ym2612"
    },
    {
      "channel": 3,
      "note": 56,
      "start": 0.7372,
      "duration": 0.0151,
      "velocity": 88,
      "chip": "ym2612"
    },
    {
      "channel": 4,
      "note": 77,
      "start": 0.7377,
      "duration": 0.0147,
      "velocity": 95,
      "chip": "ym2612"
    },
    {
      "channel": 3,
      "note": 68,
      "start": 0.7567,
      "duration": 0.017,
      "velocity": 88,
      "chip": "ym2612"
    },
    {
      "channel": 4,
      "note": 80,
      "start": 0.7572,
      "duration": 0.0167,
      "velocity": 95,
      "chip": "ym2612"
    },
    {
      "channel": 3,
      "note": 56,
      "start": 0.7774,
      "duration": 0.0166,
      "velocity": 88,
      "chip": "ym2612"
    },
    {
      "channel": 4,
      "note": 85,
      "start": 0.7779,
      "duration": 0.0162,
      "velocity": 95,
      "chip": "ym2612"
    },
    {
      "channel": 1,
      "note": 68,
      "start": 0.7985,
      "duration": 0.1545,
      "velocity": 100,
      "chip": "ym2612"
    },
    {
      "channel": 2,
      "note": 72,
      "start": 0.7991,
      "duration": 0.154,
      "velocity": 100,
      "chip": "ym2612"
    },
    {
      "channel": 3,
      "note": 56,
      "start": 0.7997,
      "duration": 0.0145,
      "velocity": 88,
      "chip": "ym2612"
    },
    {
      "channel": 4,
      "note": 68,
      "start": 0.8003,
      "duration": 0.0141,
      "velocity": 95,
      "chip": "ym2612"
    },
    {
      "channel": 3,
      "note": 56,
      "start": 0.8181,
      "duration": 0.0152,
      "velocity": 88,
      "chip": "ym2612"
    },
    {
      "channel": 4,
      "note": 72,
      "start": 0.8186,
      "duration": 0.0149,
      "velocity": 95,
      "chip": "ym2612"
    },
    {
      "channel": 3,
      "note": 68,
      "start": 0.8375,
      "duration": 0.0169,
      "velocity": 88,
      "chip": "ym2612"
    },
    {
      "channel": 4,
      "note": 75,
      "start": 0.838,
      "duration": 0.0165,
      "velocity": 95,
      "chip": "ym2612"
    },
    {
      "channel": 3,
      "note": 56,
      "start": 0.8588,
      "duration": 0.0168,
      "velocity": 88,
      "chip": "ym2612"
    },
    {
      "channel": 4,
      "note": 80,
      "start": 0.8593,
      "duration": 0.0164,
      "velocity": 95,
      "chip": "ym2612"
    },
    {
      "channel": 4,
      "note": 68,
      "start": 0.8797,
      "duration": 0.0138,
      "velocity": 95,
      "chip": "ym2612"
    },
    {
      "channel": 3,
      "note": 56,
      "start": 0.899,
      "duration": 0.0143,
      "velocity": 88,
      "chip": "ym2612"
    },
    {
      "channel": 4,
      "note": 72,
      "start": 0.8995,
      "duration": 0.0139,
      "velocity": 95,
      "chip": "ym2612"
    },
    {
      "channel": 3,
      "note": 68,
      "start": 0.9164,
      "duration": 0.0156,
      "velocity": 88,
      "chip": "ym2612"
    },
    {
      "channel": 4,
      "note": 75,
      "start": 0.9169,
      "duration": 0.0152,
      "velocity": 95,
      "chip": "ym2612"
    },
    {
      "channel": 3,
      "note": 56,
      "start": 0.9359,
      "duration": 0.0174,
      "velocity": 88,
      "chip": "ym2612"
    },
    {
      "channel": 4,
      "note": 80,
      "start": 0.9364,
      "duration": 0.0171,
      "velocity": 95,
      "chip": "ym2612"
    },
    {
      "channel": 1,
      "note": 70,
      "start": 0.9568,
      "duration": 0.153,
      "velocity": 100,
      "chip": "ym2612"
    },
    {
      "channel": 2,
      "note": 74,
      "start": 0.9575,
      "duration": 0.1525,
      "velocity": 100,
      "chip": "ym2612"
    },
    {
      "channel": 3,
      "note": 56,
      "start": 0.958,
      "duration": 0.0151,
      "velocity": 88,
      "chip": "ym2612"
    },
    {
      "channel": 4,
      "note": 70,
      "start": 0.9587,
      "duration": 0.0146,
      "velocity": 95,
      "chip": "ym2612"
    },
    {
      "channel": 3,
      "note": 56,
      "start": 0.9762,
      "duration": 0.0144,
      "velocity": 88,
      "chip": "ym2612"
    },
    {
      "channel": 4,
      "note": 74,
      "start": 0.9767,
      "duration": 0.014,
      "velocity": 95,
      "chip": "ym2612"
    },
    {
      "channel": 3,
      "note": 68,
      "start": 0.9955,
      "duration": 0.0161,
      "velocity": 88,
      "chip": "ym2612"
    },
    {
      "channel": 4,
      "note": 77,
      "start": 0.996,
      "duration": 0.0157,
      "velocity": 95,
      "chip": "ym2612"
    },
    {
      "channel": 3,
      "note": 56,
      "start": 1.0146,
      "duration": 0.0152,
      "velocity": 88,
      "chip": "ym2612"
    },
    {
      "channel": 4,
      "note": 82,
      "start": 1.0151,
      "duration": 0.0148,
      "velocity": 95,
      "chip": "ym2612"
    },
    {
      "channel": 4,
      "note": 70,
      "start": 1.034,
      "duration": 0.0147,
      "velocity": 95,
      "chip": "ym2612"
    },
    {
      "channel": 3,
      "note": 56,
      "start": 1.0533,
      "duration": 0.015,
      "velocity": 88,
      "chip": "ym2612"
    },
    {
      "channel": 4,
      "note": 74,
      "start": 1.0538,
      "duration": 0.0147,
      "velocity": 95,
      "chip": "ym2612"
    },
    {
      "channel": 3,
      "note": 68,
      "start": 1.0726,
      "duration": 0.0164,
      "velocity": 88,
      "chip": "ym2612"
    },
    {
      "channel": 4,
      "note": 77,
      "start": 1.0731,
      "duration": 0.0162,
      "velocity": 95,
      "chip": "ym2612"
    },
    {
      "channel": 3,
      "note": 56,
      "start": 1.0936,
      "duration": 0.0166,
      "velocity": 88,
      "chip": "ym2612"
    },
    {
      "channel": 4,
      "note": 82,
      "start": 1.0941,
      "duration": 0.0163,
      "velocity": 95,
      "chip": "ym2612"
    },
    {
      "channel": 1,
      "note": 71,
      "start": 1.1147,
      "duration": 0.1546,
      "velocity": 100,
      "chip": "ym2612"
    },
    {
      "channel": 2,
      "note": 75,
      "start": 1.1153,
      "duration": 0.1541,
      "velocity": 100,
      "chip": "ym2612"
    },
    {
      "channel": 3,
      "note": 56,
      "start": 1.1159,
      "duration": 0.0145,
      "velocity": 88,
      "chip": "ym2612"
    },
    {
      "channel": 4,
      "note": 71,
      "start": 1.1166,
      "duration": 0.014,
      "velocity": 95,
      "chip": "ym2612"
    },
    {
      "channel": 3,
      "note": 56,
      "start": 1.1351,
      "duration": 0.0151,
      "velocity": 88,
      "chip": "ym2612"
    },
    {
      "channel": 4,
      "note": 75,
      "start": 1.1356,
      "duration": 0.0148,
      "velocity": 95,
      "chip": "ym2612"
    },
    {
      "channel": 3,
      "note": 68,
      "start": 1.1545,
      "duration": 0.0149,
      "velocity": 88,
      "chip": "ym2612"
    },
    {
      "channel": 4,
      "note": 78,
      "start": 1.155,
      "duration": 0.0146,
      "velocity": 95,
      "chip": "ym2612"
    },
    {
      "channel": 3,
      "note": 56,
      "start": 1.1737,
      "duration": 0.0143,
      "velocity": 88,
      "chip": "ym2612"
    },
    {
      "channel": 4,
      "note": 83,
      "start": 1.1742,
      "duration": 0.014,
      "velocity": 95,
      "chip": "ym2612"
    },
    {
      "channel": 4,
      "note": 71,
      "start": 1.1923,
      "duration": 0.0139,
      "velocity": 95,
      "chip": "ym2612"
    },
    {
      "channel": 3,
      "note": 56,
      "start": 1.2117,
      "duration": 0.0151,
      "velocity": 88,
      "chip": "ym2612"
    },
    {
      "channel": 4,
      "note": 75,
      "start": 1.2123,
      "duration": 0.0148,
      "velocity": 95,
      "chip": "ym2612"
    },
    {
      "channel": 3,
      "note": 68,
      "start": 1.2312,
      "duration": 0.0174,
      "velocity": 88,
      "chip": "ym2612"
    },
    {
      "channel": 4,
      "note": 78,
      "start": 1.2317,
      "duration": 0.0171,
      "velocity": 95,
      "chip": "ym2612"
    },
    {
      "channel": 3,
      "note": 56,
      "start": 1.2523,
      "duration": 0.0173,
      "velocity": 88,
      "chip": "ym2612"
    },
    {
      "channel": 4,
      "note": 83,
      "start": 1.2528,
      "duration": 0.017,
      "velocity": 95,
      "chip": "ym2612"
    },
    {
      "channel": 1,
      "note": 68,
      "start": 1.2733,
      "duration": 0.1635,
      "velocity": 100,
      "chip": "ym2612"
    },
    {
      "channel": 2,
      "note": 61,
      "start": 1.2754,
      "duration": 0.0064,
      "velocity": 121,
      "chip": "ym2612"
    },
    {
      "channel": 3,
      "note": 56,
      "start": 1.2759,
      "duration": 0.0145,
      "velocity": 88,
      "chip": "ym2612"
    },
    {
      "channel": 4,
      "note": 73,
      "start": 1.2766,
      "duration": 0.014,
      "velocity": 95,
      "chip": "ym2612"
    },
    {
      "channel": 2,
      "note": 65,
      "start": 1.2856,
      "duration": 0.0048,
      "velocity": 121,
      "chip": "ym2612"
    },
    {
      "channel": 2,
      "note": 68,
      "start": 1.2939,
      "duration": 0.0059,
      "velocity": 121,
      "chip": "ym2612"
    },
    {
      "channel": 3,
      "note": 56,
      "start": 1.2944,
      "duration": 0.0145,
      "velocity": 88,
      "chip": "ym2612"
    },
    {
      "channel": 4,
      "note": 77,
      "start": 1.295,
      "duration": 0.0141,
      "velocity": 95,
      "chip": "ym2612"
    },
    {
      "channel": 2,
      "note": 73,
      "start": 1.3035,
      "duration": 0.0053,
      "velocity": 121,
      "chip": "ym2612"
    },
    {
      "channel": 2,
      "note": 65,
      "start": 1.3129,
      "duration": 0.0073,
      "velocity": 121,
      "chip": "ym2612"
    },
    {
      "channel": 3,
      "note": 68,
      "start": 1.3134,
      "duration": 0.0161,
      "velocity": 88,
      "chip": "ym2612"
    },
    {
      "channel": 4,
      "note": 80,
      "start": 1.3139,
      "duration": 0.0157,
      "velocity": 95,
      "chip": "ym2612"
    },
    {
      "channel": 2,
      "note": 68,
      "start": 1.3232,
      "duration": 0.0063,
      "velocity": 121,
      "chip": "ym2612"
    },
    {
      "channel": 2,
      "note": 73,
      "start": 1.3333,
      "duration": 0.0071,
      "velocity": 121,
      "chip": "ym2612"
    },
    {
      "channel": 3,
      "note": 56,
      "start": 1.3338,
      "duration": 0.0161,
      "velocity": 88,
      "chip": "ym2612"
    },
    {
      "channel": 4,
      "note": 85,
      "start": 1.3343,
      "duration": 0.0157,
      "velocity": 95,
      "chip": "ym2612"
    },
    {
      "channel": 2,
      "note": 77,
      "start": 1.3435,
      "duration": 0.0063,
      "velocity": 121,
      "chip": "ym2612"
    },
    {
      "channel": 2,
      "note": 68,
      "start": 1.3536,
      "duration": 0.007,
      "velocity": 121,
      "chip": "ym2612"
    },
    {
      "channel": 4,
      "note": 73,
      "start": 1.3541,
      "duration": 0.0159,
      "velocity": 95,
      "chip": "ym2612"
    },
    {
      "channel": 2,
      "note": 73,
      "start": 1.3637,
      "duration": 0.0061,
      "velocity": 121,
      "chip": "ym2612"
    },
    {
      "channel": 2,
      "note": 77,
      "start": 1.3744,
      "duration": 0.0095,
      "velocity": 121,
      "chip": "ym2612"
    },
    {
      "channel": 3,
      "note": 56,
      "start": 1.3749,
      "duration": 0.0188,
      "velocity": 88,
      "chip": "ym2612"
    },
    {
      "channel": 4,
      "note": 77,
      "start": 1.3753,
      "duration": 0.0185,
      "velocity": 95,
      "chip": "ym2612"
    },
    {
      "channel": 2,
      "note": 80,
      "start": 1.3879,
      "duration": 0.0057,
      "velocity": 121,
      "chip": "ym2612"
    },
    {
      "channel": 2,
      "note": 73,
      "start": 1.3976,
      "duration": 0.008,
      "velocity": 121,
      "chip": "ym2612"
    },
    {
      "channel": 3,
      "note": 68,
      "start": 1.3981,
      "duration": 0.0169,
      "velocity": 88,
      "chip": "ym2612"
    },
    {
      "channel": 4,
      "note": 80,
      "start": 1.3986,
      "duration": 0.0165,
      "velocity": 95,
      "chip": "ym2612"
    },
    {
      "channel": 2,
      "note": 77,
      "start": 1.4094,
      "duration": 0.0054,
      "velocity": 121,
      "chip": "ym2612"
    },
    {
      "channel": 2,
      "note": 80,
      "start": 1.4188,
      "duration": 0.0092,
      "velocity": 121,
      "chip": "ym2612"
    },
    {
      "channel": 3,
      "note": 56,
      "start": 1.4193,
      "duration": 0.0178,
      "velocity": 88,
      "chip": "ym2612"
    },
    {
      "channel": 4,
      "note": 85,
      "start": 1.4199,
      "duration": 0.0174,
      "velocity": 95,
      "chip": "ym2612"
    },
    {
      "channel": 2,
      "note": 85,
      "start": 1.431,
      "duration": 0.0059,
      "velocity": 121,
      "chip": "ym2612"
    },
    {
      "channel": 1,
      "note": 68,
      "start": 1.4418,
      "duration": 0.0195,
      "velocity": 100,
      "chip": "ym2612"
    },
    {
      "channel": 3,
      "note": 56,
      "start": 1.4444,
      "duration": 0.0172,
      "velocity": 88,
      "chip": "ym2612"
    },
    {
      "channel": 4,
      "note": 68,
      "start": 1.4465,
      "duration": 0.1509,
      "velocity": 100,
      "chip": "ym2612"
    },
    {
      "channel": 1,
      "note": 75,
      "start": 1.4643,
      "duration": 0.0155,
      "velocity": 100,
      "chip": "ym2612"
    },
    {
      "channel": 3,
      "note": 56,
      "start": 1.4649,
      "duration": 0.0151,
      "velocity": 88,
      "chip": "ym2612"
    },
    {
      "channel": 2,
      "note": 68,
      "start": 1.4765,
      "duration": 0.0177,
      "velocity": 100,
      "chip": "ym2612"
    },
    {
      "channel": 1,
      "note": 80,
      "start": 1.4829,
      "duration": 0.0168,
      "velocity": 100,
      "chip": "ym2612"
    },
    {
      "channel": 3,
      "note": 68,
      "start": 1.4835,
      "duration": 0.0163,
      "velocity": 88,
      "chip": "ym2612"
    },
    {
      "channel": 2,
      "note": 75,
      "start": 1.4972,
      "duration": 0.0151,
      "velocity": 100,
      "chip": "ym2612"
    },
    {
      "channel": 1,
      "note": 84,
      "start": 1.5035,
      "duration": 0.0337,
      "velocity": 100,
      "chip": "ym2612"
    },
    {
      "channel": 3,
      "note": 56,
      "start": 1.5041,
      "duration": 0.014,
      "velocity": 88,
      "chip": "ym2612"
    },
    {
      "channel": 2,
      "note": 80,
      "start": 1.5152,
      "duration": 0.0158,
      "velocity": 100,
      "chip": "ym2612"
    },
    {
      "channel": 2,
      "note": 84,
      "start": 1.5347,
      "duration": 0.0384,
      "velocity": 100,
      "chip": "ym2612"
    },
    {
      "channel": 1,
      "note": 82,
      "start": 1.5416,
      "duration": 0.0175,
      "velocity": 100,
      "chip": "ym2612"
    },
    {
      "channel": 3,
      "note": 56,
      "start": 1.5421,
      "duration": 0.0172,
      "velocity": 88,
      "chip": "ym2612"
    },
    {
      "channel": 1,
      "note": 80,
      "start": 1.5622,
      "duration": 0.0172,
      "velocity": 100,
      "chip": "ym2612"
    },
    {
      "channel": 3,
      "note": 68,
      "start": 1.5627,
      "duration": 0.0169,
      "velocity": 88,
      "chip": "ym2612"
    },
    {
      "channel": 2,
      "note": 82,
      "start": 1.5761,
      "duration": 0.0155,
      "velocity": 100,
      "chip": "ym2612"
    },
    {
      "channel": 1,
      "note": 75,
      "start": 1.5823,
      "duration": 0.0148,
      "velocity": 100,
      "chip": "ym2612"
    },
    {
      "channel": 3,
      "note": 56,
      "start": 1.5829,
      "duration": 0.0144,
      "velocity": 88,
      "chip": "ym2612"
    },
    {
      "channel": 2,
      "note": 80,
      "start": 1.5945,
      "duration": 0.0165,
      "velocity": 100,
      "chip": "ym2612"
    },
    {
      "channel": 1,
      "note": 74,
      "start": 1.601,
      "duration": 0.0541,
      "velocity": 100,
      "chip": "ym2612"
    },
    {
      "channel": 3,
      "note": 56,
      "start": 1.6017,
      "duration": 0.0148,
      "velocity": 88,
      "chip": "ym2612"
    },
    {
      "channel": 4,
      "note": 70,
      "start": 1.6023,
      "duration": 0.1452,
      "velocity": 100,
      "chip": "ym2612"
    },
    {
      "channel": 2,
      "note": 75,
      "start": 1.6139,
      "duration": 0.014,
      "velocity": 100,
      "chip": "ym2612"
    },
    {
      "channel": 3,
      "note": 56,
      "start": 1.6195,
      "duration": 0.0149,
      "velocity": 88,
      "chip": "ym2612"
    },
    {
      "channel": 2,
      "note": 74,
      "start": 1.6317,
      "duration": 0.0543,
      "velocity": 100,
      "chip": "ym2612"
    },
    {
      "channel": 3,
      "note": 68,
      "start": 1.6387,
      "duration": 0.0166,
      "velocity": 88,
      "chip": "ym2612"
    },
    {
      "channel": 1,
      "note": 70,
      "start": 1.658,
      "duration": 0.0527,
      "velocity": 100,
      "chip": "ym2612"
    },
    {
      "channel": 3,
      "note": 56,
      "start": 1.6586,
      "duration": 0.0142,
      "velocity": 88,
      "chip": "ym2612"
    },
    {
      "channel": 2,
      "note": 70,
      "start": 1.6889,
      "duration": 0.0517,
      "velocity": 100,
      "chip": "ym2612"
    },
    {
      "channel": 3,
      "note": 56,
      "start": 1.6971,
      "duration": 0.0137,
      "velocity": 88,
      "chip": "ym2612"
    },
    {
      "channel": 1,
      "note": 82,
      "start": 1.7137,
      "duration": 0.0334,
      "velocity": 100,
      "chip": "ym2612"
    },
    {
      "channel": 3,
      "note": 68,
      "start": 1.7142,
      "duration": 0.015,
      "velocity": 88,
      "chip": "ym2612"
    },
    {
      "channel": 3,
      "note": 56,
      "start": 1.7322,
      "duration": 0.0151,
      "velocity": 88,
      "chip": "ym2612"
    },
    {
      "channel": 2,
      "note": 82,
      "start": 1.7436,
      "duration": 0.0351,
      "velocity": 100,
      "chip": "ym2612"
    },
    {
      "channel": 1,
      "note": 83,
      "start": 1.7509,
      "duration": 0.0158,
      "velocity": 100,
      "chip": "ym2612"
    },
    {
      "channel": 3,
      "note": 56,
      "start": 1.7516,
      "duration": 0.0154,
      "velocity": 88,
      "chip": "ym2612"
    },
    {
      "channel": 4,
      "note": 71,
      "start": 1.7522,
      "duration": 0.1492,
      "velocity": 100,
      "chip": "ym2612"
    },
    {
      "channel": 1,
      "note": 82,
      "start": 1.7696,
      "duration": 0.0145,
      "velocity": 100,
      "chip": "ym2612"
    },
    {
      "channel": 3,
      "note": 56,
      "start": 1.7702,
      "duration": 0.0142,
      "velocity": 88,
      "chip": "ym2612"
    },
    {
      "channel": 2,
      "note": 83,
      "start": 1.7817,
      "duration": 0.0176,
      "velocity": 100,
      "chip": "ym2612"
    },
    {
      "channel": 1,
      "note": 80,
      "start": 1.7883,
      "duration": 0.0163,
      "velocity": 100,
      "chip": "ym2612"
    },
    {
      "channel": 3,
      "note": 68,
      "start": 1.7889,
      "duration": 0.0161,
      "velocity": 88,
      "chip": "ym2612"
    },
    {
      "channel": 2,
      "note": 82,
      "start": 1.8022,
      "duration": 0.0145,
      "velocity": 100,
      "chip": "ym2612"
    },
    {
      "channel": 1,
      "note": 82,
      "start": 1.8076,
      "duration": 0.0344,
      "velocity": 100,
      "chip": "ym2612"
    },
    {
      "channel": 3,
      "note": 56,
      "start": 1.8083,
      "duration": 0.0148,
      "velocity": 88,
      "chip": "ym2612"
    },
    {
      "channel": 2,
      "note": 80,
      "start": 1.8204,
      "duration": 0.0152,
      "velocity": 100,
      "chip": "ym2612"
    },
    {
      "channel": 2,
      "note": 82,
      "start": 1.8386,
      "duration": 0.0386,
      "velocity": 100,
      "chip": "ym2612"
    },
    {
      "channel": 1,
      "note": 80,
      "start": 1.8466,
      "duration": 0.015,
      "velocity": 100,
      "chip": "ym2612"
    },
    {
      "channel": 3,
      "note": 56,
      "start": 1.8472,
      "duration": 0.0146,
      "velocity": 88,
      "chip": "ym2612"
    },
    {
      "channel": 1,
      "note": 78,
      "start": 1.8658,
      "duration": 0.0168,
      "velocity": 100,
      "chip": "ym2612"
    },
    {
      "channel": 3,
      "note": 68,
      "start": 1.8664,
      "duration": 0.0164,
      "velocity": 88,
      "chip": "ym2612"
    },
    {
      "channel": 2,
      "note": 80,
      "start": 1.8801,
      "duration": 0.0154,
      "velocity": 100,
      "chip": "ym2612"
    },
    {
      "channel": 1,
      "note": 80,
      "start": 1.8864,
      "duration": 0.0146,
      "velocity": 100,
      "chip": "ym2612"
    },
    {
      "channel": 3,
      "note": 56,
      "start": 1.887,
      "duration": 0.0142,
      "velocity": 88,
      "chip": "ym2612"
    },
    {
      "channel": 2,
      "note": 78,
      "start": 1.8984,
      "duration": 0.0168,
      "velocity": 100,
      "chip": "ym2612"
    },
    {
      "channel": 1,
      "note": 85,
      "start": 1.9051,
      "duration": 0.0537,
      "velocity": 100,
      "chip": "ym2612"
    },
    {
      "channel": 3,
      "note": 56,
      "start": 1.9058,
      "duration": 0.0158,
      "velocity": 88,
      "chip": "ym2612"
    },
    {
      "channel": 4,
      "note": 73,
      "start": 1.9064,
      "duration": 0.1488,
      "velocity": 100,
      "chip": "ym2612"
    },
    {
      "channel": 2,
      "note": 80,
      "start": 1.9189,
      "duration": 0.0139,
      "velocity": 100,
      "chip": "ym2612"
    },
    {
      "channel": 3,
      "note": 56,
      "start": 1.9245,
      "duration": 0.0149,
      "velocity": 88,
      "chip": "ym2612"
    },
    {
      "channel": 2,
      "note": 85,
      "start": 1.9358,
      "duration": 0.054,
      "velocity": 100,
      "chip": "ym2612"
    },
    {
      "channel": 3,
      "note": 68,
      "start": 1.9427,
      "duration": 0.0163,
      "velocity": 88,
      "chip": "ym2612"
    },
    {
      "channel": 1,
      "note": 80,
      "start": 1.9618,
      "duration": 0.0536,
      "velocity": 100,
      "chip": "ym2612"
    },
    {
      "channel": 3,
      "note": 56,
      "start": 1.9624,
      "duration": 0.0135,
      "velocity": 88,
      "chip": "ym2612"
    },
    {
      "channel": 2,
      "note": 80,
      "start": 1.9927,
      "duration": 0.0558,
      "velocity": 100,
      "chip": "ym2612"
    },
    {
      "channel": 3,
      "note": 56,
      "start": 2.0008,
      "duration": 0.0149,
      "velocity": 88,
      "chip": "ym2612"
    },
    {
      "channel": 1,
      "note": 73,
      "start": 2.0185,
      "duration": 0.0363,
      "velocity": 100,
      "chip": "ym2612"
    },
    {
      "channel": 3,
      "note": 68,
      "start": 2.019,
      "duration": 0.0149,
      "velocity": 88,
      "chip": "ym2612"
    },
    {
      "channel": 3,
      "note": 56,
      "start": 2.0379,
      "duration": 0.0171,
      "velocity": 88,
      "chip": "ym2612"
    },
    {
      "channel": 2,
      "note": 73,
      "start": 2.0514,
      "duration": 0.0347,
      "velocity": 100,
      "chip": "ym2612"
    },
    {
      "channel": 1,
      "note": 84,
      "start": 2.0589,
      "duration": 0.0502,
      "velocity": 100,
      "chip": "ym2612"
    },
    {
      "channel": 3,
      "note": 56,
      "start": 2.0596,
      "duration": 0.0145,
      "velocity": 88,
      "chip": "ym2612"
    },
    {
      "channel": 4,
      "note": 68,
      "start": 2.0602,
      "duration": 0.1423,
      "velocity": 100,
      "chip": "ym2612"
    },
    {
      "channel": 3,
      "note": 56,
      "start": 2.0779,
      "duration": 0.0139,
      "velocity": 88,
      "chip": "ym2612"
    },
    {
      "channel": 2,
      "note": 84,
      "start": 2.0892,
      "duration": 0.051,
      "velocity": 100,
      "chip": "ym2612"
    },
    {
      "channel": 3,
      "note": 68,
      "start": 2.0947,
      "duration": 0.0147,
      "velocity": 88,
      "chip": "ym2612"
    },
    {
      "channel": 1,
      "note": 80,
      "start": 2.1121,
      "duration": 0.0522,
      "velocity": 100,
      "chip": "ym2612"
    },
    {
      "channel": 3,
      "note": 56,
      "start": 2.1127,
      "duration": 0.0145,
      "velocity": 88,
      "chip": "ym2612"
    },
    {
      "channel": 2,
      "note": 80,
      "start": 2.1431,
      "duration": 0.0528,
      "velocity": 100,
      "chip": "ym2612"
    },
    {
      "channel": 3,
      "note": 56,
      "start": 2.1494,
      "duration": 0.015,
      "velocity": 88,
      "chip": "ym2612"
    },
    {
      "channel": 1,
      "note": 75,
      "start": 2.1681,
      "duration": 0.0341,
      "velocity": 100,
      "chip": "ym2612"
    },
    {
      "channel": 3,
      "note": 68,
      "start": 2.1686,
      "duration": 0.0156,
      "velocity": 88,
      "chip": "ym2612"
    },
    {
      "channel": 3,
      "note": 56,
      "start": 2.1873,
      "duration": 0.0151,
      "velocity": 88,
      "chip": "ym2612"
    },
    {
      "channel": 2,
      "note": 75,
      "start": 2.1996,
      "duration": 0.0344,
      "velocity": 100,
      "chip": "ym2612"
    },
    {
      "channel": 1,
      "note": 74,
      "start": 2.2069,
      "duration": 0.0529,
      "velocity": 100,
      "chip": "ym2612"
    },
    {
      "channel": 3,
      "note": 56,
      "start": 2.2076,
      "duration": 0.0152,
      "velocity": 88,
      "chip": "ym2612"
    },
    {
      "channel": 4,
      "note": 70,
      "start": 2.2082,
      "duration": 0.1446,
      "velocity": 100,
      "chip": "ym2612"
    },
    {
      "channel": 3,
      "note": 56,
      "start": 2.2258,
      "duration": 0.0148,
      "velocity": 88,
      "chip": "ym2612"
    },
    {
      "channel": 2,
      "note": 74,
      "start": 2.2371,
      "duration": 0.0546,
      "velocity": 100,
      "chip": "ym2612"
    },
    {
      "channel": 3,
      "note": 68,
      "start": 2.2442,
      "duration": 0.0158,
      "velocity": 88,
      "chip": "ym2612"
    },
    {
      "channel": 1,
      "note": 77,
      "start": 2.2635,
      "duration": 0.0535,
      "velocity": 100,
      "chip": "ym2612"
    },
    {
      "channel": 3,
      "note": 56,
      "start": 2.2641,
      "duration": 0.0135,
      "velocity": 88,
      "chip": "ym2612"
    },
    {
      "channel": 2,
      "note": 77,
      "start": 2.2954,
      "duration": 0.0516,
      "velocity": 100,
      "chip": "ym2612"
    },
    {
      "channel": 3,
      "note": 56,
      "start": 2.3026,
      "duration": 0.0146,
      "velocity": 88,
      "chip": "ym2612"
    },
    {
      "channel": 1,
      "note": 70,
      "start": 2.32,
      "duration": 0.0323,
      "velocity": 100,
      "chip": "ym2612"
    },
    {
      "channel": 3,
      "note": 68,
      "start": 2.3206,
      "duration": 0.0149,
      "velocity": 88,
      "chip": "ym2612"
    },
    {
      "channel": 3,
      "note": 56,
      "start": 2.3384,
      "duration": 0.0143,
      "velocity": 88,
      "chip": "ym2612"
    },
    {
      "channel": 2,
      "note": 70,
      "start": 2.3499,
      "duration": 0.0341,
      "velocity": 100,
      "chip": "ym2612"
    },
    {
      "channel": 1,
      "note": 68,
      "start": 2.3571,
      "duration": 0.0149,
      "velocity": 100,
      "chip": "ym2612"
    },
    {
      "channel": 3,
      "note": 56,
      "start": 2.3578,
      "duration": 0.0144,
      "velocity": 88,
      "chip": "ym2612"
    },
    {
      "channel": 4,
      "note": 71,
      "start": 2.3584,
      "duration": 0.1468,
      "velocity": 100,
      "chip": "ym2612"
    },
    {
      "channel": 1,
      "note": 70,
      "start": 2.3751,
      "duration": 0.0153,
      "velocity": 100,
      "chip": "ym2612"
    },
    {
      "channel": 3,
      "note": 56,
      "start": 2.3756,
      "duration": 0.015,
      "velocity": 88,
      "chip": "ym2612"
    },
    {
      "channel": 2,
      "note": 68,
      "start": 2.3879,
      "duration": 0.0178,
      "velocity": 100,
      "chip": "ym2612"
    },
    {
      "channel": 1,
      "note": 71,
      "start": 2.3944,
      "duration": 0.0176,
      "velocity": 100,
      "chip": "ym2612"
    },
    {
      "channel": 3,
      "note": 68,
      "start": 2.395,
      "duration": 0.0172,
      "velocity": 88,
      "chip": "ym2612"
    },
    {
      "channel": 2,
      "note": 70,
      "start": 2.4086,
      "duration": 0.0154,
      "velocity": 100,
      "chip": "ym2612"
    },
    {
      "channel": 1,
      "note": 73,
      "start": 2.4151,
      "duration": 0.0151,
      "velocity": 100,
      "chip": "ym2612"
    },
    {
      "channel": 3,
      "note": 56,
      "start": 2.4157,
      "duration": 0.0146,
      "velocity": 88,
      "chip": "ym2612"
    },
    {
      "channel": 2,
      "note": 71,
      "start": 2.4268,
      "duration": 0.0157,
      "velocity": 100,
      "chip": "ym2612"
    },
    {
      "channel": 1,
      "note": 75,
      "start": 2.4337,
      "duration": 0.0143,
      "velocity": 100,
      "chip": "ym2612"
    },
    {
      "channel": 2,
      "note": 73,
      "start": 2.4454,
      "duration": 0.0166,
      "velocity": 100,
      "chip": "ym2612"
    },
    {
      "channel": 1,
      "note": 76,
      "start": 2.4529,
      "duration": 0.0145,
      "velocity": 100,
      "chip": "ym2612"
    },
    {
      "channel": 3,
      "note": 56,
      "start": 2.4534,
      "duration": 0.0142,
      "velocity": 88,
      "chip": "ym2612"
    },
    {
      "channel": 2,
      "note": 75,
      "start": 2.465,
      "duration": 0.015,
      "velocity": 100,
      "chip": "ym2612"
    },
    {
      "channel": 1,
      "note": 78,
      "start": 2.4705,
      "duration": 0.0159,
      "velocity": 100,
      "chip": "ym2612"
    },
    {
      "channel": 3,
      "note": 68,
      "start": 2.471,
      "duration": 0.0156,
      "velocity": 88,
      "chip": "ym2612"
    },
    {
      "channel": 2,
      "note": 76,
      "start": 2.4838,
      "duration": 0.0146,
      "velocity": 100,
      "chip": "ym2612"
    },
    {
      "channel": 1,
      "note": 80,
      "start": 2.4893,
      "duration": 0.0155,
      "velocity": 100,
      "chip": "ym2612"
    },
    {
      "channel": 3,
      "note": 56,
      "start": 2.4898,
      "duration": 0.0151,
      "velocity": 88,
      "chip": "ym2612"
    },
    {
      "channel": 2,
      "note": 78,
      "start": 2.5013,
      "duration": 0.016,
      "velocity": 100,
      "chip": "ym2612"
    },
    {
      "channel": 1,
      "note": 77,
      "start": 2.5079,
      "duration": 0.0151,
      "velocity": 100,
      "chip": "ym2612"
    },
    {
      "channel": 3,
      "note": 56,
      "start": 2.5086,
      "duration": 0.0146,
      "velocity": 88,
      "chip": "ym2612"
    },
    {
      "channel": 4,
      "note": 73,
      "start": 2.5092,
      "duration": 0.155,
      "velocity": 100,
      "chip": "ym2612"
    },
    {
      "channel": 2,
      "note": 80,
      "start": 2.52,
      "duration": 0.0169,
      "velocity": 100,
      "chip": "ym2612"
    },
    {
      "channel": 1,
      "note": 73,
      "start": 2.5279,
      "duration": 0.0146,
      "velocity": 100,
      "chip": "ym2612"
    },
    {
      "channel": 3,
      "note": 56,
      "start": 2.5285,
      "duration": 0.0142,
      "velocity": 88,
      "chip": "ym2612"
    },
    {
      "channel": 2,
      "note": 77,
      "start": 2.5402,
      "duration": 0.0159,
      "velocity": 100,
      "chip": "ym2612"
    },
    {
      "channel": 1,
      "note": 80,
      "start": 2.5464,
      "duration": 0.0155,
      "velocity": 100,
      "chip": "ym2612"
    },
    {
      "channel": 3,
      "note": 68,
      "start": 2.5469,
      "duration": 0.0152,
      "velocity": 88,
      "chip": "ym2612"
    },
    {
      "channel": 2,
      "note": 73,
      "start": 2.5595,
      "duration": 0.0172,
      "velocity": 100,
      "chip": "ym2612"
    },
    {
      "channel": 1,
      "note": 73,
      "start": 2.5666,
      "duration": 0.0166,
      "velocity": 100,
      "chip": "ym2612"
    },
    {
      "channel": 3,
      "note": 56,
      "start": 2.5671,
      "duration": 0.0163,
      "velocity": 88,
      "chip": "ym2612"
    },
    {
      "channel": 2,
      "note": 80,
      "start": 2.5808,
      "duration": 0.0154,
      "velocity": 100,
      "chip": "ym2612"
    },
    {
      "channel": 1,
      "note": 85,
      "start": 2.587,
      "duration": 0.0159,
      "velocity": 100,
      "chip": "ym2612"
    },
    {
      "channel": 2,
      "note": 73,
      "start": 2.5993,
      "duration": 0.0167,
      "velocity": 100,
      "chip": "ym2612"
    },
    {
      "channel": 1,
      "note": 73,
      "start": 2.6059,
      "duration": 0.0169,
      "velocity": 100,
      "chip": "ym2612"
    },
    {
      "channel": 3,
      "note": 56,
      "start": 2.6065,
      "duration": 0.0166,
      "velocity": 88,
      "chip": "ym2612"
    },
    {
      "channel": 2,
      "note": 85,
      "start": 2.6194,
      "duration": 0.0179,
      "velocity": 100,
      "chip": "ym2612"
    },
    {
      "channel": 1,
      "note": 80,
      "start": 2.626,
      "duration": 0.0169,
      "velocity": 100,
      "chip": "ym2612"
    },
    {
      "channel": 3,
      "note": 68,
      "start": 2.6265,
      "duration": 0.0166,
      "velocity": 88,
      "chip": "ym2612"
    },
    {
      "channel": 2,
      "note": 73,
      "start": 2.6404,
      "duration": 0.0178,
      "velocity": 100,
      "chip": "ym2612"
    },
    {
      "channel": 1,
      "note": 73,
      "start": 2.6473,
      "duration": 0.0165,
      "velocity": 100,
      "chip": "ym2612"
    },
    {
      "channel": 3,
      "note": 56,
      "start": 2.6478,
      "duration": 0.0162,
      "velocity": 88,
      "chip": "ym2612"
    },
    {
      "channel": 2,
      "note": 80,
      "start": 2.6613,
      "duration": 0.0026,
      "velocity": 100,
      "chip": "ym2612"
    },
    {
      "channel": 1,
      "note": 80,
      "start": 2.6697,
      "duration": 0.0198,
      "velocity": 102,
      "chip": "ym2612"
    },
    {
      "channel": 2,
      "note": 75,
      "start": 2.6722,
      "duration": 0.0175,
      "velocity": 102,
      "chip": "ym2612"
    },
    {
      "channel": 3,
      "note": 56,
      "start": 2.6727,
      "duration": 0.0171,
      "velocity": 88,
      "chip": "ym2612"
    },
    {
      "channel": 4,
      "note": 68,
      "start": 2.675,
      "duration": 0.1465,
      "velocity": 100,
      "chip": "ym2612"
    },
    {
      "channel": 1,
      "note": 87,
      "start": 2.6925,
      "duration": 0.0151,
      "velocity": 102,
      "chip": "ym2612"
    },
    {
      "channel": 2,
      "note": 80,
      "start": 2.693,
      "duration": 0.0148,
      "velocity": 102,
      "chip": "ym2612"
    },
    {
      "channel": 3,
      "note": 56,
      "start": 2.6935,
      "duration": 0.0144,
      "velocity": 88,
      "chip": "ym2612"
    },
    {
      "channel": 1,
      "note": 92,
      "start": 2.7107,
      "duration": 0.0171,
      "velocity": 102,
      "chip": "ym2612"
    },
    {
      "channel": 2,
      "note": 87,
      "start": 2.7112,
      "duration": 0.0168,
      "velocity": 102,
      "chip": "ym2612"
    },
    {
      "channel": 3,
      "note": 68,
      "start": 2.7118,
      "duration": 0.0163,
      "velocity": 88,
      "chip": "ym2612"
    },
    {
      "channel": 1,
      "note": 96,
      "start": 2.731,
      "duration": 0.0321,
      "velocity": 102,
      "chip": "ym2612"
    },
    {
      "channel": 2,
      "note": 92,
      "start": 2.7315,
      "duration": 0.0317,
      "velocity": 102,
      "chip": "ym2612"
    },
    {
      "channel": 3,
      "note": 56,
      "start": 2.732,
      "duration": 0.0137,
      "velocity": 88,
      "chip": "ym2612"
    },
    {
      "channel": 1,
      "note": 94,
      "start": 2.766,
      "duration": 0.016,
      "velocity": 102,
      "chip": "ym2612"
    },
    {
      "channel": 2,
      "note": 87,
      "start": 2.7665,
      "duration": 0.0156,
      "velocity": 102,
      "chip": "ym2612"
    },
    {
      "channel": 3,
      "note": 56,
      "start": 2.767,
      "duration": 0.0153,
      "velocity": 88,
      "chip": "ym2612"
    },
    {
      "channel": 1,
      "note": 92,
      "start": 2.7851,
      "duration": 0.0175,
      "velocity": 102,
      "chip": "ym2612"
    },
    {
      "channel": 2,
      "note": 87,
      "start": 2.7855,
      "duration": 0.0171,
      "velocity": 102,
      "chip": "ym2612"
    },
    {
      "channel": 3,
      "note": 68,
      "start": 2.786,
      "duration": 0.0167,
      "velocity": 88,
      "chip": "ym2612"
    },
    {
      "channel": 1,
      "note": 87,
      "start": 2.8058,
      "duration": 0.0153,
      "velocity": 102,
      "chip": "ym2612"
    },
    {
      "channel": 2,
      "note": 84,
      "start": 2.8062,
      "duration": 0.015,
      "velocity": 102,
      "chip": "ym2612"
    },
    {
      "channel": 3,
      "note": 56,
      "start": 2.8066,
      "duration": 0.0146,
      "velocity": 88,
      "chip": "ym2612"
    },
    {
      "channel": 1,
      "note": 86,
      "start": 2.8243,
      "duration": 0.0504,
      "velocity": 102,
      "chip": "ym2612"
    },
    {
      "channel": 2,
      "note": 82,
      "start": 2.8248,
      "duration": 0.0499,
      "velocity": 102,
      "chip": "ym2612"
    },
    {
      "channel": 3,
      "note": 56,
      "start": 2.8255,
      "duration": 0.0146,
      "velocity": 88,
      "chip": "ym2612"
    },
    {
      "channel": 4,
      "note": 70,
      "start": 2.826,
      "duration": 0.1442,
      "velocity": 100,
      "chip": "ym2612"
    },
    {
      "channel": 3,
      "note": 56,
      "start": 2.8437,
      "duration": 0.0133,
      "velocity": 88,
      "chip": "ym2612"
    },
    {
      "channel": 3,
      "note": 68,
      "start": 2.86,
      "duration": 0.0149,
      "velocity": 88,
      "chip": "ym2612"
    },
    {
      "channel": 1,
      "note": 82,
      "start": 2.8777,
      "duration": 0.0526,
      "velocity": 102,
      "chip": "ym2612"
    },
    {
      "channel": 2,
      "note": 77,
      "start": 2.8781,
      "duration": 0.0523,
      "velocity": 102,
      "chip": "ym2612"
    },
    {
      "channel": 3,
      "note": 56,
      "start": 2.8786,
      "duration": 0.0142,
      "velocity": 88,
      "chip": "ym2612"
    },
    {
      "channel": 3,
      "note": 56,
      "start": 2.9166,
      "duration": 0.014,
      "velocity": 88,
      "chip": "ym2612"
    },
    {
      "channel": 1,
      "note": 94,
      "start": 2.9358,
      "duration": 0.034,
      "velocity": 102,
      "chip": "ym2612"
    },
    {
      "channel": 2,
      "note": 89,
      "start": 2.9363,
      "duration": 0.0337,
      "velocity": 102,
      "chip": "ym2612"
    },
    {
      "channel": 3,
      "note": 68,
      "start": 2.9367,
      "duration": 0.0157,
      "velocity": 88,
      "chip": "ym2612"
    },
    {
      "channel": 3,
      "note": 56,
      "start": 2.9562,
      "duration": 0.0139,
      "velocity": 88,
      "chip": "ym2612"
    },
    {
      "channel": 1,
      "note": 95,
      "start": 2.9748,
      "duration": 0.0161,
      "velocity": 102,
      "chip": "ym2612"
    },
    {
      "channel": 2,
      "note": 92,
      "start": 2.9754,
      "duration": 0.0156,
      "velocity": 102,
      "chip": "ym2612"
    },
    {
      "channel": 3,
      "note": 56,
      "start": 2.976,
      "duration": 0.0152,
      "velocity": 88,
      "chip": "ym2612"
    },
    {
      "channel": 4,
      "note": 71,
      "start": 2.9766,
      "duration": 0.1488,
      "velocity": 100,
      "chip": "ym2612"
    },
    {
      "channel": 1,
      "note": 94,
      "start": 2.9941,
      "duration": 0.015,
      "velocity": 102,
      "chip": "ym2612"
    },
    {
      "channel": 2,
      "note": 90,
      "start": 2.9946,
      "duration": 0.0147,
      "velocity": 102,
      "chip": "ym2612"
    },
    {
      "channel": 3,
      "note": 56,
      "start": 2.9951,
      "duration": 0.0144,
      "velocity": 88,
      "chip": "ym2612"
    },
    {
      "channel": 1,
      "note": 92,
      "start": 3.0121,
      "duration": 0.0165,
      "velocity": 102,
      "chip": "ym2612"
    },
    {
      "channel": 2,
      "note": 87,
      "start": 3.0126,
      "duration": 0.0162,
      "velocity": 102,
      "chip": "ym2612"
    },
    {
      "channel": 3,
      "note": 68,
      "start": 3.0131,
      "duration": 0.0158,
      "velocity": 88,
      "chip": "ym2612"
    },
    {
      "channel": 1,
      "note": 94,
      "start": 3.0325,
      "duration": 0.0329,
      "velocity": 102,
      "chip": "ym2612"
    },
    {
      "channel": 2,
      "note": 90,
      "start": 3.033,
      "duration": 0.0325,
      "velocity": 102,
      "chip": "ym2612"
    },
    {
      "channel": 3,
      "note": 56,
      "start": 3.0336,
      "duration": 0.0134,
      "velocity": 88,
      "chip": "ym2612"
    },
    {
      "channel": 1,
      "note": 92,
      "start": 3.0706,
      "duration": 0.0153,
      "velocity": 102,
      "chip": "ym2612"
    },
    {
      "channel": 2,
      "note": 87,
      "start": 3.0711,
      "duration": 0.0149,
      "velocity": 102,
      "chip": "ym2612"
    },
    {
      "channel": 3,
      "note": 56,
      "start": 3.0716,
      "duration": 0.0146,
      "velocity": 88,
      "chip": "ym2612"
    },
    {
      "channel": 1,
      "note": 90,
      "start": 3.0899,
      "duration": 0.0173,
      "velocity": 102,
      "chip": "ym2612"
    },
    {
      "channel": 2,
      "note": 85,
      "start": 3.0904,
      "duration": 0.017,
      "velocity": 102,
      "chip": "ym2612"
    },
    {
      "channel": 3,
      "note": 68,
      "start": 3.0908,
      "duration": 0.0167,
      "velocity": 88,
      "chip": "ym2612"
    },
    {
      "channel": 1,
      "note": 92,
      "start": 3.1104,
      "duration": 0.0146,
      "velocity": 102,
      "chip": "ym2612"
    },
    {
      "channel": 2,
      "note": 87,
      "start": 3.1108,
      "duration": 0.0142,
      "velocity": 102,
      "chip": "ym2612"
    },
    {
      "channel": 3,
      "note": 56,
      "start": 3.1113,
      "duration": 0.0139,
      "velocity": 88,
      "chip": "ym2612"
    },
    {
      "channel": 1,
      "note": 97,
      "start": 3.1289,
      "duration": 0.0502,
      "velocity": 102,
      "chip": "ym2612"
    },
    {
      "channel": 2,
      "note": 92,
      "start": 3.1295,
      "duration": 0.0498,
      "velocity": 102,
      "chip": "ym2612"
    },
    {
      "channel": 3,
      "note": 56,
      "start": 3.1301,
      "duration": 0.0144,
      "velocity": 88,
      "chip": "ym2612"
    },
    {
      "channel": 4,
      "note": 73,
      "start": 3.1307,
      "duration": 0.1439,
      "velocity": 100,
      "chip": "ym2612"
    },
    {
      "channel": 3,
      "note": 56,
      "start": 3.1483,
      "duration": 0.0136,
      "velocity": 88,
      "chip": "ym2612"
    },
    {
      "channel": 3,
      "note": 68,
      "start": 3.1648,
      "duration": 0.0147,
      "velocity": 88,
      "chip": "ym2612"
    },
    {
      "channel": 1,
      "note": 92,
      "start": 3.1824,
      "duration": 0.0524,
      "velocity": 102,
      "chip": "ym2612"
    },
    {
      "channel": 2,
      "note": 85,
      "start": 3.1829,
      "duration": 0.0521,
      "velocity": 102,
      "chip": "ym2612"
    },
    {
      "channel": 3,
      "note": 56,
      "start": 3.1834,
      "duration": 0.0142,
      "velocity": 88,
      "chip": "ym2612"
    },
    {
      "channel": 3,
      "note": 56,
      "start": 3.2212,
      "duration": 0.0139,
      "velocity": 88,
      "chip": "ym2612"
    },
    {
      "channel": 1,
      "note": 85,
      "start": 3.2388,
      "duration": 0.0355,
      "velocity": 102,
      "chip": "ym2612"
    },
    {
      "channel": 2,
      "note": 80,
      "start": 3.2393,
      "duration": 0.0351,
      "velocity": 102,
      "chip": "ym2612"
    },
    {
      "channel": 3,
      "note": 68,
      "start": 3.2397,
      "duration": 0.0141,
      "velocity": 88,
      "chip": "ym2612"
    },
    {
      "channel": 3,
      "note": 56,
      "start": 3.2577,
      "duration": 0.0168,
      "velocity": 88,
      "chip": "ym2612"
    },
    {
      "channel": 1,
      "note": 96,
      "start": 3.2788,
      "duration": 0.0529,
      "velocity": 102,
      "chip": "ym2612"
    },
    {
      "channel": 2,
      "note": 92,
      "start": 3.2794,
      "duration": 0.0524,
      "velocity": 102,
      "chip": "ym2612"
    },
    {
      "channel": 3,
      "note": 56,
      "start": 3.28,
      "duration": 0.0152,
      "velocity": 88,
      "chip": "ym2612"
    },
    {
      "channel": 4,
      "note": 68,
      "start": 3.2806,
      "duration": 0.145,
      "velocity": 100,
      "chip": "ym2612"
    },
    {
      "channel": 3,
      "note": 56,
      "start": 3.2981,
      "duration": 0.0137,
      "velocity": 88,
      "chip": "ym2612"
    },
    {
      "channel": 3,
      "note": 68,
      "start": 3.3162,
      "duration": 0.0158,
      "velocity": 88,
      "chip": "ym2612"
    },
    {
      "channel": 1,
      "note": 92,
      "start": 3.3356,
      "duration": 0.0525,
      "velocity": 102,
      "chip": "ym2612"
    },
    {
      "channel": 2,
      "note": 87,
      "start": 3.3361,
      "duration": 0.0521,
      "velocity": 102,
      "chip": "ym2612"
    },
    {
      "channel": 3,
      "note": 56,
      "start": 3.3366,
      "duration": 0.0137,
      "velocity": 88,
      "chip": "ym2612"
    },
    {
      "channel": 3,
      "note": 56,
      "start": 3.3726,
      "duration": 0.0157,
      "velocity": 88,
      "chip": "ym2612"
    },
    {
      "channel": 1,
      "note": 87,
      "start": 3.3911,
      "duration": 0.0341,
      "velocity": 102,
      "chip": "ym2612"
    },
    {
      "channel": 2,
      "note": 84,
      "start": 3.3916,
      "duration": 0.0338,
      "velocity": 102,
      "chip": "ym2612"
    },
    {
      "channel": 3,
      "note": 68,
      "start": 3.3921,
      "duration": 0.0159,
      "velocity": 88,
      "chip": "ym2612"
    },
    {
      "channel": 3,
      "note": 56,
      "start": 3.4117,
      "duration": 0.0138,
      "velocity": 88,
      "chip": "ym2612"
    },
    {
      "channel": 1,
      "note": 86,
      "start": 3.4307,
      "duration": 0.0531,
      "velocity": 102,
      "chip": "ym2612"
    },
    {
      "channel": 2,
      "note": 82,
      "start": 3.4314,
      "duration": 0.0526,
      "velocity": 102,
      "chip": "ym2612"
    },
    {
      "channel": 3,
      "note": 56,
      "start": 3.432,
      "duration": 0.0145,
      "velocity": 88,
      "chip": "ym2612"
    },
    {
      "channel": 4,
      "note": 70,
      "start": 3.4326,
      "duration": 0.1442,
      "velocity": 100,
      "chip": "ym2612"
    },
    {
      "channel": 3,
      "note": 56,
      "start": 3.4494,
      "duration": 0.0142,
      "velocity": 88,
      "chip": "ym2612"
    },
    {
      "channel": 3,
      "note": 68,
      "start": 3.4678,
      "duration": 0.0163,
      "velocity": 88,
      "chip": "ym2612"
    },
    {
      "channel": 1,
      "note": 89,
      "start": 3.4869,
      "duration": 0.0532,
      "velocity": 102,
      "chip": "ym2612"
    },
    {
      "channel": 2,
      "note": 86,
      "start": 3.4874,
      "duration": 0.0528,
      "velocity": 102,
      "chip": "ym2612"
    },
    {
      "channel": 3,
      "note": 56,
      "start": 3.4879,
      "duration": 0.0135,
      "velocity": 88,
      "chip": "ym2612"
    },
    {
      "channel": 3,
      "note": 56,
      "start": 3.5264,
      "duration": 0.014,
      "velocity": 88,
      "chip": "ym2612"
    },
    {
      "channel": 1,
      "note": 82,
      "start": 3.5432,
      "duration": 0.0331,
      "velocity": 102,
      "chip": "ym2612"
    },
    {
      "channel": 2,
      "note": 77,
      "start": 3.5437,
      "duration": 0.0327,
      "velocity": 102,
      "chip": "ym2612"
    },
    {
      "channel": 3,
      "note": 68,
      "start": 3.5442,
      "duration": 0.0147,
      "velocity": 88,
      "chip": "ym2612"
    },
    {
      "channel": 3,
      "note": 56,
      "start": 3.562,
      "duration": 0.0146,
      "velocity": 88,
      "chip": "ym2612"
    },
    {
      "channel": 1,
      "note": 80,
      "start": 3.5801,
      "duration": 0.0155,
      "velocity": 102,
      "chip": "ym2612"
    },
    {
      "channel": 2,
      "note": 76,
      "start": 3.5808,
      "duration": 0.015,
      "velocity": 102,
      "chip": "ym2612"
    },
    {
      "channel": 3,
      "note": 56,
      "start": 3.5813,
      "duration": 0.0146,
      "velocity": 88,
      "chip": "ym2612"
    },
    {
      "channel": 4,
      "note": 71,
      "start": 3.582,
      "duration": 0.1487,
      "velocity": 100,
      "chip": "ym2612"
    },
    {
      "channel": 1,
      "note": 82,
      "start": 3.5996,
      "duration": 0.0142,
      "velocity": 102,
      "chip": "ym2612"
    },
    {
      "channel": 2,
      "note": 78,
      "start": 3.6001,
      "duration": 0.0138,
      "velocity": 102,
      "chip": "ym2612"
    },
    {
      "channel": 3,
      "note": 56,
      "start": 3.6006,
      "duration": 0.0135,
      "velocity": 88,
      "chip": "ym2612"
    },
    {
      "channel": 1,
      "note": 83,
      "start": 3.6181,
      "duration": 0.0164,
      "velocity": 102,
      "chip": "ym2612"
    },
    {
      "channel": 2,
      "note": 80,
      "start": 3.6186,
      "duration": 0.0161,
      "velocity": 102,
      "chip": "ym2612"
    },
    {
      "channel": 3,
      "note": 68,
      "start": 3.6191,
      "duration": 0.0157,
      "velocity": 88,
      "chip": "ym2612"
    },
    {
      "channel": 1,
      "note": 85,
      "start": 3.6376,
      "duration": 0.015,
      "velocity": 102,
      "chip": "ym2612"
    },
    {
      "channel": 2,
      "note": 82,
      "start": 3.638,
      "duration": 0.0147,
      "velocity": 102,
      "chip": "ym2612"
    },
    {
      "channel": 3,
      "note": 56,
      "start": 3.6385,
      "duration": 0.0143,
      "velocity": 88,
      "chip": "ym2612"
    },
    {
      "channel": 1,
      "note": 87,
      "start": 3.6567,
      "duration": 0.015,
      "velocity": 102,
      "chip": "ym2612"
    },
    {
      "channel": 2,
      "note": 83,
      "start": 3.6571,
      "duration": 0.0147,
      "velocity": 102,
      "chip": "ym2612"
    },
    {
      "channel": 1,
      "note": 88,
      "start": 3.6759,
      "duration": 0.0146,
      "velocity": 102,
      "chip": "ym2612"
    },
    {
      "channel": 2,
      "note": 85,
      "start": 3.6764,
      "duration": 0.0142,
      "velocity": 102,
      "chip": "ym2612"
    },
    {
      "channel": 3,
      "note": 56,
      "start": 3.6768,
      "duration": 0.0139,
      "velocity": 88,
      "chip": "ym2612"
    },
    {
      "channel": 1,
      "note": 90,
      "start": 3.695,
      "duration": 0.0166,
      "velocity": 102,
      "chip": "ym2612"
    },
    {
      "channel": 2,
      "note": 87,
      "start": 3.6956,
      "duration": 0.0162,
      "velocity": 102,
      "chip": "ym2612"
    },
    {
      "channel": 3,
      "note": 68,
      "start": 3.696,
      "duration": 0.0159,
      "velocity": 88,
      "chip": "ym2612"
    },
    {
      "channel": 1,
      "note": 92,
      "start": 3.7156,
      "duration": 0.0146,
      "velocity": 102,
      "chip": "ym2612"
    },
    {
      "channel": 2,
      "note": 88,
      "start": 3.7161,
      "duration": 0.0142,
      "velocity": 102,
      "chip": "ym2612"
    },
    {
      "channel": 3,
      "note": 56,
      "start": 3.7166,
      "duration": 0.0139,
      "velocity": 88,
      "chip": "ym2612"
    },
    {
      "channel": 1,
      "note": 89,
      "start": 3.7343,
      "duration": 0.0156,
      "velocity": 102,
      "chip": "ym2612"
    },
    {
      "channel": 2,
      "note": 85,
      "start": 3.7349,
      "duration": 0.0152,
      "velocity": 102,
      "chip": "ym2612"
    },
    {
      "channel": 3,
      "note": 56,
      "start": 3.7355,
      "duration": 0.0147,
      "velocity": 88,
      "chip": "ym2612"
    },
    {
      "channel": 4,
      "note": 73,
      "start": 3.7361,
      "duration": 0.1531,
      "velocity": 100,
      "chip": "ym2612"
    },
    {
      "channel": 1,
      "note": 85,
      "start": 3.7549,
      "duration": 0.0145,
      "velocity": 102,
      "chip": "ym2612"
    },
    {
      "channel": 2,
      "note": 80,
      "start": 3.7554,
      "duration": 0.0142,
      "velocity": 102,
      "chip": "ym2612"
    },
    {
      "channel": 3,
      "note": 56,
      "start": 3.7559,
      "duration": 0.0139,
      "velocity": 88,
      "chip": "ym2612"
    },
    {
      "channel": 1,
      "note": 92,
      "start": 3.7724,
      "duration": 0.0146,
      "velocity": 102,
      "chip": "ym2612"
    },
    {
      "channel": 2,
      "note": 89,
      "start": 3.7728,
      "duration": 0.0143,
      "velocity": 102,
      "chip": "ym2612"
    },
    {
      "channel": 3,
      "note": 68,
      "start": 3.7733,
      "duration": 0.014,
      "velocity": 88,
      "chip": "ym2612"
    },
    {
      "channel": 1,
      "note": 85,
      "start": 3.791,
      "duration": 0.0146,
      "velocity": 102,
      "chip": "ym2612"
    },
    {
      "channel": 2,
      "note": 80,
      "start": 3.7915,
      "duration": 0.0142,
      "velocity": 102,
      "chip": "ym2612"
    },
    {
      "channel": 3,
      "note": 56,
      "start": 3.792,
      "duration": 0.0138,
      "velocity": 88,
      "chip": "ym2612"
    },
    {
      "channel": 1,
      "note": 97,
      "start": 3.8099,
      "duration": 0.015,
      "velocity": 102,
      "chip": "ym2612"
    },
    {
      "channel": 2,
      "note": 92,
      "start": 3.8104,
      "duration": 0.0146,
      "velocity": 102,
      "chip": "ym2612"
    },
    {
      "channel": 1,
      "note": 85,
      "start": 3.8304,
      "duration": 0.0161,
      "velocity": 102,
      "chip": "ym2612"
    },
    {
      "channel": 2,
      "note": 80,
      "start": 3.8309,
      "duration": 0.0157,
      "velocity": 102,
      "chip": "ym2612"
    },
    {
      "channel": 3,
      "note": 56,
      "start": 3.8314,
      "duration": 0.0154,
      "velocity": 88,
      "chip": "ym2612"
    },
    {
      "channel": 1,
      "note": 92,
      "start": 3.8512,
      "duration": 0.0173,
      "velocity": 102,
      "chip": "ym2612"
    },
    {
      "channel": 2,
      "note": 89,
      "start": 3.8517,
      "duration": 0.017,
      "velocity": 102,
      "chip": "ym2612"
    },
    {
      "channel": 3,
      "note": 68,
      "start": 3.8522,
      "duration": 0.0166,
      "velocity": 88,
      "chip": "ym2612"
    },
    {
      "channel": 1,
      "note": 85,
      "start": 3.8722,
      "duration": 0.0166,
      "velocity": 102,
      "chip": "ym2612"
    },
    {
      "channel": 2,
      "note": 80,
      "start": 3.8727,
      "duration": 0.0162,
      "velocity": 102,
      "chip": "ym2612"
    },
    {
      "channel": 3,
      "note": 56,
      "start": 3.8731,
      "duration": 0.0159,
      "velocity": 88,
      "chip": "ym2612"
    },
    {
      "channel": 1,
      "note": 80,
      "start": 3.8953,
      "duration": 0.0197,
      "velocity": 97,
      "chip": "ym2612"
    },
    {
      "channel": 3,
      "note": 53,
      "start": 3.8976,
      "duration": 0.0176,
      "velocity": 88,
      "chip": "ym2612"
    },
    {
      "channel": 4,
      "note": 80,
      "start": 3.9002,
      "duration": 0.0151,
      "velocity": 97,
      "chip": "ym2612"
    },
    {
      "channel": 1,
      "note": 77,
      "start": 3.9185,
      "duration": 0.0145,
      "velocity": 97,
      "chip": "ym2612"
    },
    {
      "channel": 3,
      "note": 53,
      "start": 3.9192,
      "duration": 0.0141,
      "velocity": 88,
      "chip": "ym2612"
    },
    {
      "channel": 4,
      "note": 72,
      "start": 3.9196,
      "duration": 0.0138,
      "velocity": 97,
      "chip": "ym2612"
    },
    {
      "channel": 2,
      "note": 80,
      "start": 3.9307,
      "duration": 0.0148,
      "velocity": 97,
      "chip": "ym2612"
    },
    {
      "channel": 1,
      "note": 79,
      "start": 3.9362,
      "duration": 0.0152,
      "velocity": 97,
      "chip": "ym2612"
    },
    {
      "channel": 3,
      "note": 65,
      "start": 3.9368,
      "duration": 0.0149,
      "velocity": 88,
      "chip": "ym2612"
    },
    {
      "channel": 4,
      "note": 77,
      "start": 3.9373,
      "duration": 0.0145,
      "velocity": 97,
      "chip": "ym2612"
    },
    {
      "channel": 2,
      "note": 77,
      "start": 3.9491,
      "duration": 0.0143,
      "velocity": 97,
      "chip": "ym2612"
    },
    {
      "channel": 1,
      "note": 80,
      "start": 3.9542,
      "duration": 0.015,
      "velocity": 97,
      "chip": "ym2612"
    },
    {
      "channel": 3,
      "note": 53,
      "start": 3.9548,
      "duration": 0.0146,
      "velocity": 88,
      "chip": "ym2612"
    },
    {
      "channel": 4,
      "note": 80,
      "start": 3.9553,
      "duration": 0.0143,
      "velocity": 97,
      "chip": "ym2612"
    },
    {
      "channel": 2,
      "note": 79,
      "start": 3.9661,
      "duration": 0.0153,
      "velocity": 97,
      "chip": "ym2612"
    },
    {
      "channel": 1,
      "note": 84,
      "start": 3.9722,
      "duration": 0.0143,
      "velocity": 97,
      "chip": "ym2612"
    },
    {
      "channel": 3,
      "note": 53,
      "start": 3.9728,
      "duration": 0.0139,
      "velocity": 88,
      "chip": "ym2612"
    },
    {
      "channel": 4,
      "note": 72,
      "start": 3.9733,
      "duration": 0.0136,
      "velocity": 97,
      "chip": "ym2612"
    },
    {
      "channel": 2,
      "note": 80,
      "start": 3.9841,
      "duration": 0.0152,
      "velocity": 97,
      "chip": "ym2612"
    },
    {
      "channel": 1,
      "note": 80,
      "start": 3.99,
      "duration": 0.0146,
      "velocity": 97,
      "chip": "ym2612"
    },
    {
      "channel": 3,
      "note": 65,
      "start": 3.9906,
      "duration": 0.0142,
      "velocity": 88,
      "chip": "ym2612"
    },
    {
      "channel": 4,
      "note": 77,
      "start": 3.9911,
      "duration": 0.0139,
      "velocity": 97,
      "chip": "ym2612"
    },
    {
      "channel": 2,
      "note": 84,
      "start": 4.0022,
      "duration": 0.0143,
      "velocity": 97,
      "chip": "ym2612"
    },
    {
      "channel": 1,
      "note": 79,
      "start": 4.0082,
      "duration": 0.0141,
      "velocity": 97,
      "chip": "ym2612"
    },
    {
      "channel": 3,
      "note": 53,
      "start": 4.0088,
      "duration": 0.0138,
      "velocity": 88,
      "chip": "ym2612"
    },
    {
      "channel": 4,
      "note": 80,
      "start": 4.0093,
      "duration": 0.0134,
      "velocity": 97,
      "chip": "ym2612"
    },
    {
      "channel": 2,
      "note": 80,
      "start": 4.02,
      "duration": 0.0152,
      "velocity": 97,
      "chip": "ym2612"
    },
    {
      "channel": 1,
      "note": 77,
      "start": 4.0258,
      "duration": 0.0152,
      "velocity": 97,
      "chip": "ym2612"
    },
    {
      "channel": 3,
      "note": 53,
      "start": 4.0264,
      "duration": 0.0149,
      "velocity": 88,
      "chip": "ym2612"
    },
    {
      "channel": 4,
      "note": 72,
      "start": 4.0269,
      "duration": 0.0145,
      "velocity": 97,
      "chip": "ym2612"
    },
    {
      "channel": 2,
      "note": 79,
      "start": 4.0387,
      "duration": 0.0167,
      "velocity": 97,
      "chip": "ym2612"
    },
    {
      "channel": 1,
      "note": 80,
      "start": 4.0439,
      "duration": 0.0174,
      "velocity": 97,
      "chip": "ym2612"
    },
    {
      "channel": 3,
      "note": 51,
      "start": 4.0446,
      "duration": 0.0169,
      "velocity": 88,
      "chip": "ym2612"
    },
    {
      "channel": 4,
      "note": 79,
      "start": 4.0453,
      "duration": 0.0164,
      "velocity": 97,
      "chip": "ym2612"
    },
    {
      "channel": 2,
      "note": 77,
      "start": 4.0582,
      "duration": 0.0154,
      "velocity": 97,
      "chip": "ym2612"
    },
    {
      "channel": 1,
      "note": 75,
      "start": 4.0642,
      "duration": 0.0145,
      "velocity": 97,
      "chip": "ym2612"
    },
    {
      "channel": 3,
      "note": 51,
      "start": 4.0648,
      "duration": 0.0142,
      "velocity": 88,
      "chip": "ym2612"
    },
    {
      "channel": 4,
      "note": 70,
      "start": 4.0653,
      "duration": 0.0138,
      "velocity": 97,
      "chip": "ym2612"
    },
    {
      "channel": 2,
      "note": 80,
      "start": 4.0763,
      "duration": 0.0183,
      "velocity": 97,
      "chip": "ym2612"
    },
    {
      "channel": 1,
      "note": 79,
      "start": 4.0855,
      "duration": 0.0143,
      "velocity": 97,
      "chip": "ym2612"
    },
    {
      "channel": 3,
      "note": 63,
      "start": 4.0861,
      "duration": 0.014,
      "velocity": 88,
      "chip": "ym2612"
    },
    {
      "channel": 4,
      "note": 75,
      "start": 4.0866,
      "duration": 0.0136,
      "velocity": 97,
      "chip": "ym2612"
    },
    {
      "channel": 2,
      "note": 75,
      "start": 4.0975,
      "duration": 0.0144,
      "velocity": 97,
      "chip": "ym2612"
    },
    {
      "channel": 1,
      "note": 80,
      "start": 4.1034,
      "duration": 0.0144,
      "velocity": 97,
      "chip": "ym2612"
    },
    {
      "channel": 3,
      "note": 51,
      "start": 4.104,
      "duration": 0.014,
      "velocity": 88,
      "chip": "ym2612"
    },
    {
      "channel": 4,
      "note": 79,
      "start": 4.1045,
      "duration": 0.0137,
      "velocity": 97,
      "chip": "ym2612"
    },
    {
      "channel": 2,
      "note": 79,
      "start": 4.1154,
      "duration": 0.0168,
      "velocity": 97,
      "chip": "ym2612"
    },
    {
      "channel": 1,
      "note": 84,
      "start": 4.1212,
      "duration": 0.0169,
      "velocity": 97,
      "chip": "ym2612"
    },
    {
      "channel": 3,
      "note": 51,
      "start": 4.1219,
      "duration": 0.0165,
      "velocity": 88,
      "chip": "ym2612"
    },
    {
      "channel": 4,
      "note": 70,
      "start": 4.1223,
      "duration": 0.0162,
      "velocity": 97,
      "chip": "ym2612"
    },
    {
      "channel": 2,
      "note": 80,
      "start": 4.1357,
      "duration": 0.0179,
      "velocity": 97,
      "chip": "ym2612"
    },
    {
      "channel": 1,
      "note": 80,
      "start": 4.1444,
      "duration": 0.015,
      "velocity": 97,
      "chip": "ym2612"
    },
    {
      "channel": 3,
      "note": 63,
      "start": 4.145,
      "duration": 0.0147,
      "velocity": 88,
      "chip": "ym2612"
    },
    {
      "channel": 4,
      "note": 75,
      "start": 4.1455,
      "duration": 0.0143,
      "velocity": 97,
      "chip": "ym2612"
    },
    {
      "channel": 2,
      "note": 84,
      "start": 4.1563,
      "duration": 0.015,
      "velocity": 97,
      "chip": "ym2612"
    },
    {
      "channel": 1,
      "note": 79,
      "start": 4.1623,
      "duration": 0.0143,
      "velocity": 97,
      "chip": "ym2612"
    },
    {
      "channel": 3,
      "note": 51,
      "start": 4.1629,
      "duration": 0.0139,
      "velocity": 88,
      "chip": "ym2612"
    },
    {
      "channel": 4,
      "note": 79,
      "start": 4.1634,
      "duration": 0.0136,
      "velocity": 97,
      "chip": "ym2612"
    },
    {
      "channel": 2,
      "note": 80,
      "start": 4.1742,
      "duration": 0.0154,
      "velocity": 97,
      "chip": "ym2612"
    },
    {
      "channel": 1,
      "note": 75,
      "start": 4.1802,
      "duration": 0.0145,
      "velocity": 97,
      "chip": "ym2612"
    },
    {
      "channel": 3,
      "note": 51,
      "start": 4.1808,
      "duration": 0.014,
      "velocity": 88,
      "chip": "ym2612"
    },
    {
      "channel": 4,
      "note": 70,
      "start": 4.1813,
      "duration": 0.0138,
      "velocity": 97,
      "chip": "ym2612"
    },
    {
      "channel": 2,
      "note": 79,
      "start": 4.1923,
      "duration": 0.0151,
      "velocity": 97,
      "chip": "ym2612"
    },
    {
      "channel": 1,
      "note": 73,
      "start": 4.1985,
      "duration": 0.0517,
      "velocity": 97,
      "chip": "ym2612"
    },
    {
      "channel": 3,
      "note": 49,
      "start": 4.1992,
      "duration": 0.0142,
      "velocity": 88,
      "chip": "ym2612"
    },
    {
      "channel": 4,
      "note": 77,
      "start": 4.1998,
      "duration": 0.0137,
      "velocity": 97,
      "chip": "ym2612"
    },
    {
      "channel": 2,
      "note": 75,
      "start": 4.2108,
      "duration": 0.0138,
      "velocity": 97,
      "chip": "ym2612"
    },
    {
      "channel": 3,
      "note": 49,
      "start": 4.2163,
      "duration": 0.0146,
      "velocity": 88,
      "chip": "ym2612"
    },
    {
      "channel": 4,
      "note": 68,
      "start": 4.2167,
      "duration": 0.0143,
      "velocity": 97,
      "chip": "ym2612"
    },
    {
      "channel": 2,
      "note": 73,
      "start": 4.2283,
      "duration": 0.0543,
      "velocity": 97,
      "chip": "ym2612"
    },
    {
      "channel": 3,
      "note": 61,
      "start": 4.2362,
      "duration": 0.0142,
      "velocity": 88,
      "chip": "ym2612"
    },
    {
      "channel": 4,
      "note": 73,
      "start": 4.2368,
      "duration": 0.0139,
      "velocity": 97,
      "chip": "ym2612"
    },
    {
      "channel": 1,
      "note": 75,
      "start": 4.254,
      "duration": 0.051,
      "velocity": 97,
      "chip": "ym2612"
    },
    {
      "channel": 3,
      "note": 49,
      "start": 4.2545,
      "duration": 0.0137,
      "velocity": 88,
      "chip": "ym2612"
    },
    {
      "channel": 4,
      "note": 77,
      "start": 4.255,
      "duration": 0.0134,
      "velocity": 97,
      "chip": "ym2612"
    },
    {
      "channel": 3,
      "note": 49,
      "start": 4.272,
      "duration": 0.0159,
      "velocity": 88,
      "chip": "ym2612"
    },
    {
      "channel": 4,
      "note": 68,
      "start": 4.2725,
      "duration": 0.0156,
      "velocity": 97,
      "chip": "ym2612"
    },
    {
      "channel": 2,
      "note": 75,
      "start": 4.2854,
      "duration": 0.0506,
      "velocity": 97,
      "chip": "ym2612"
    },
    {
      "channel": 3,
      "note": 61,
      "start": 4.2917,
      "duration": 0.0135,
      "velocity": 88,
      "chip": "ym2612"
    },
    {
      "channel": 4,
      "note": 73,
      "start": 4.2922,
      "duration": 0.0132,
      "velocity": 97,
      "chip": "ym2612"
    },
    {
      "channel": 1,
      "note": 77,
      "start": 4.3079,
      "duration": 0.034,
      "velocity": 97,
      "chip": "ym2612"
    },
    {
      "channel": 3,
      "note": 49,
      "start": 4.3085,
      "duration": 0.014,
      "velocity": 88,
      "chip": "ym2612"
    },
    {
      "channel": 4,
      "note": 77,
      "start": 4.309,
      "duration": 0.0137,
      "velocity": 97,
      "chip": "ym2612"
    },
    {
      "channel": 3,
      "note": 49,
      "start": 4.3274,
      "duration": 0.0148,
      "velocity": 88,
      "chip": "ym2612"
    },
    {
      "channel": 4,
      "note": 68,
      "start": 4.3279,
      "duration": 0.0144,
      "velocity": 97,
      "chip": "ym2612"
    },
    {
      "channel": 2,
      "note": 77,
      "start": 4.3389,
      "duration": 0.0366,
      "velocity": 97,
      "chip": "ym2612"
    },
    {
      "channel": 1,
      "note": 80,
      "start": 4.3454,
      "duration": 0.0527,
      "velocity": 97,
      "chip": "ym2612"
    },
    {
      "channel": 3,
      "note": 49,
      "start": 4.3461,
      "duration": 0.0155,
      "velocity": 88,
      "chip": "ym2612"
    },
    {
      "channel": 4,
      "note": 77,
      "start": 4.3466,
      "duration": 0.0151,
      "velocity": 97,
      "chip": "ym2612"
    },
    {
      "channel": 3,
      "note": 49,
      "start": 4.365,
      "duration": 0.0159,
      "velocity": 88,
      "chip": "ym2612"
    },
    {
      "channel": 4,
      "note": 68,
      "start": 4.3655,
      "duration": 0.0156,
      "velocity": 97,
      "chip": "ym2612"
    },
    {
      "channel": 2,
      "note": 80,
      "start": 4.3784,
      "duration": 0.0522,
      "velocity": 97,
      "chip": "ym2612"
    },
    {
      "channel": 3,
      "note": 61,
      "start": 4.3847,
      "duration": 0.0135,
      "velocity": 88,
      "chip": "ym2612"
    },
    {
      "channel": 4,
      "note": 73,
      "start": 4.3852,
      "duration": 0.0132,
      "velocity": 97,
      "chip": "ym2612"
    },
    {
      "channel": 1,
      "note": 85,
      "start": 4.4023,
      "duration": 0.051,
      "velocity": 97,
      "chip": "ym2612"
    },
    {
      "channel": 3,
      "note": 49,
      "start": 4.4029,
      "duration": 0.0142,
      "velocity": 88,
      "chip": "ym2612"
    },
    {
      "channel": 4,
      "note": 77,
      "start": 4.4034,
      "duration": 0.0139,
      "velocity": 97,
      "chip": "ym2612"
    },
    {
      "channel": 3,
      "note": 49,
      "start": 4.4204,
      "duration": 0.0163,
      "velocity": 88,
      "chip": "ym2612"
    },
    {
      "channel": 4,
      "note": 68,
      "start": 4.4208,
      "duration": 0.016,
      "velocity": 97,
      "chip": "ym2612"
    },
    {
      "channel": 2,
      "note": 85,
      "start": 4.4334,
      "duration": 0.0502,
      "velocity": 97,
      "chip": "ym2612"
    },
    {
      "channel": 3,
      "note": 61,
      "start": 4.4398,
      "duration": 0.0137,
      "velocity": 88,
      "chip": "ym2612"
    },
    {
      "channel": 4,
      "note": 73,
      "start": 4.4403,
      "duration": 0.0134,
      "velocity": 97,
      "chip": "ym2612"
    },
    {
      "channel": 1,
      "note": 89,
      "start": 4.4569,
      "duration": 0.0326,
      "velocity": 97,
      "chip": "ym2612"
    },
    {
      "channel": 3,
      "note": 49,
      "start": 4.4574,
      "duration": 0.0134,
      "velocity": 88,
      "chip": "ym2612"
    },
    {
      "channel": 4,
      "note": 77,
      "start": 4.458,
      "duration": 0.0129,
      "velocity": 97,
      "chip": "ym2612"
    },
    {
      "channel": 3,
      "note": 49,
      "start": 4.4756,
      "duration": 0.0141,
      "velocity": 88,
      "chip": "ym2612"
    },
    {
      "channel": 4,
      "note": 68,
      "start": 4.4761,
      "duration": 0.0137,
      "velocity": 97,
      "chip": "ym2612"
    },
    {
      "channel": 2,
      "note": 89,
      "start": 4.487,
      "duration": 0.0347,
      "velocity": 97,
      "chip": "ym2612"
    },
    {
      "channel": 1,
      "note": 77,
      "start": 4.4934,
      "duration": 0.0166,
      "velocity": 97,
      "chip": "ym2612"
    },
    {
      "channel": 3,
      "note": 53,
      "start": 4.4941,
      "duration": 0.0162,
      "velocity": 88,
      "chip": "ym2612"
    },
    {
      "channel": 4,
      "note": 80,
      "start": 4.4946,
      "duration": 0.0158,
      "velocity": 97,
      "chip": "ym2612"
    },
    {
      "channel": 1,
      "note": 79,
      "start": 4.5129,
      "duration": 0.0148,
      "velocity": 97,
      "chip": "ym2612"
    },
    {
      "channel": 3,
      "note": 53,
      "start": 4.5136,
      "duration": 0.0144,
      "velocity": 88,
      "chip": "ym2612"
    },
    {
      "channel": 4,
      "note": 72,
      "start": 4.514,
      "duration": 0.0141,
      "velocity": 97,
      "chip": "ym2612"
    },
    {
      "channel": 2,
      "note": 77,
      "start": 4.5246,
      "duration": 0.0172,
      "velocity": 97,
      "chip": "ym2612"
    },
    {
      "channel": 1,
      "note": 80,
      "start": 4.5326,
      "duration": 0.0144,
      "velocity": 97,
      "chip": "ym2612"
    },
    {
      "channel": 3,
      "note": 65,
      "start": 4.5332,
      "duration": 0.014,
      "velocity": 88,
      "chip": "ym2612"
    },
    {
      "channel": 4,
      "note": 77,
      "start": 4.5337,
      "duration": 0.0137,
      "velocity": 97,
      "chip": "ym2612"
    },
    {
      "channel": 2,
      "note": 79,
      "start": 4.5446,
      "duration": 0.0152,
      "velocity": 97,
      "chip": "ym2612"
    },
    {
      "channel": 1,
      "note": 84,
      "start": 4.5505,
      "duration": 0.0868,
      "velocity": 97,
      "chip": "ym2612"
    },
    {
      "channel": 3,
      "note": 53,
      "start": 4.5511,
      "duration": 0.014,
      "velocity": 88,
      "chip": "ym2612"
    },
    {
      "channel": 4,
      "note": 80,
      "start": 4.5516,
      "duration": 0.0137,
      "velocity": 97,
      "chip": "ym2612"
    },
    {
      "channel": 2,
      "note": 80,
      "start": 4.5626,
      "duration": 0.0159,
      "velocity": 97,
      "chip": "ym2612"
    },
    {
      "channel": 3,
      "note": 53,
      "start": 4.5687,
      "duration": 0.0158,
      "velocity": 88,
      "chip": "ym2612"
    },
    {
      "channel": 4,
      "note": 72,
      "start": 4.5692,
      "duration": 0.0154,
      "velocity": 97,
      "chip": "ym2612"
    },
    {
      "channel": 2,
      "note": 84,
      "start": 4.5818,
      "duration": 0.0898,
      "velocity": 97,
      "chip": "ym2612"
    },
    {
      "channel": 3,
      "note": 65,
      "start": 4.5881,
      "duration": 0.0143,
      "velocity": 88,
      "chip": "ym2612"
    },
    {
      "channel": 4,
      "note": 77,
      "start": 4.5886,
      "duration": 0.0139,
      "velocity": 97,
      "chip": "ym2612"
    },
    {
      "channel": 3,
      "note": 53,
      "start": 4.6052,
      "duration": 0.0139,
      "velocity": 88,
      "chip": "ym2612"
    },
    {
      "channel": 4,
      "note": 80,
      "start": 4.6057,
      "duration": 0.0135,
      "velocity": 97,
      "chip": "ym2612"
    },
    {
      "channel": 3,
      "note": 53,
      "start": 4.6239,
      "duration": 0.0137,
      "velocity": 88,
      "chip": "ym2612"
    },
    {
      "channel": 4,
      "note": 72,
      "start": 4.6244,
      "duration": 0.0133,
      "velocity": 97,
      "chip": "ym2612"
    },
    {
      "channel": 1,
      "note": 75,
      "start": 4.6417,
      "duration": 0.016,
      "velocity": 97,
      "chip": "ym2612"
    },
    {
      "channel": 3,
      "note": 51,
      "start": 4.6424,
      "duration": 0.0155,
      "velocity": 88,
      "chip": "ym2612"
    },
    {
      "channel": 4,
      "note": 79,
      "start": 4.643,
      "duration": 0.0151,
      "velocity": 97,
      "chip": "ym2612"
    },
    {
      "channel": 1,
      "note": 79,
      "start": 4.6613,
      "duration": 0.0162,
      "velocity": 97,
      "chip": "ym2612"
    },
    {
      "channel": 3,
      "note": 51,
      "start": 4.6619,
      "duration": 0.0158,
      "velocity": 88,
      "chip": "ym2612"
    },
    {
      "channel": 4,
      "note": 70,
      "start": 4.6624,
      "duration": 0.0155,
      "velocity": 97,
      "chip": "ym2612"
    },
    {
      "channel": 2,
      "note": 75,
      "start": 4.6751,
      "duration": 0.0148,
      "velocity": 97,
      "chip": "ym2612"
    },
    {
      "channel": 1,
      "note": 80,
      "start": 4.6808,
      "duration": 0.015,
      "velocity": 97,
      "chip": "ym2612"
    },
    {
      "channel": 3,
      "note": 63,
      "start": 4.6814,
      "duration": 0.0147,
      "velocity": 88,
      "chip": "ym2612"
    },
    {
      "channel": 4,
      "note": 75,
      "start": 4.6819,
      "duration": 0.0143,
      "velocity": 97,
      "chip": "ym2612"
    },
    {
      "channel": 2,
      "note": 79,
      "start": 4.6935,
      "duration": 0.0145,
      "velocity": 97,
      "chip": "ym2612"
    },
    {
      "channel": 1,
      "note": 87,
      "start": 4.6988,
      "duration": 0.086,
      "velocity": 97,
      "chip": "ym2612"
    },
    {
      "channel": 3,
      "note": 51,
      "start": 4.6994,
      "duration": 0.0147,
      "velocity": 88,
      "chip": "ym2612"
    },
    {
      "channel": 4,
      "note": 79,
      "start": 4.6998,
      "duration": 0.0145,
      "velocity": 97,
      "chip": "ym2612"
    },
    {
      "channel": 2,
      "note": 80,
      "start": 4.7108,
      "duration": 0.0151,
      "velocity": 97,
      "chip": "ym2612"
    },
    {
      "channel": 3,
      "note": 51,
      "start": 4.7171,
      "duration": 0.0142,
      "velocity": 88,
      "chip": "ym2612"
    },
    {
      "channel": 4,
      "note": 70,
      "start": 4.7176,
      "duration": 0.0138,
      "velocity": 97,
      "chip": "ym2612"
    },
    {
      "channel": 2,
      "note": 87,
      "start": 4.7287,
      "duration": 0.0886,
      "velocity": 97,
      "chip": "ym2612"
    },
    {
      "channel": 3,
      "note": 63,
      "start": 4.7351,
      "duration": 0.0135,
      "velocity": 88,
      "chip": "ym2612"
    },
    {
      "channel": 4,
      "note": 75,
      "start": 4.7356,
      "duration": 0.0132,
      "velocity": 97,
      "chip": "ym2612"
    },
    {
      "channel": 3,
      "note": 51,
      "start": 4.7522,
      "duration": 0.0132,
      "velocity": 88,
      "chip": "ym2612"
    },
    {
      "channel": 4,
      "note": 79,
      "start": 4.7527,
      "duration": 0.0128,
      "velocity": 97,
      "chip": "ym2612"
    },
    {
      "channel": 3,
      "note": 51,
      "start": 4.7707,
      "duration": 0.0144,
      "velocity": 88,
      "chip": "ym2612"
    },
    {
      "channel": 4,
      "note": 70,
      "start": 4.7712,
      "duration": 0.014,
      "velocity": 97,
      "chip": "ym2612"
    },
    {
      "channel": 1,
      "note": 92,
      "start": 4.7887,
      "duration": 0.0167,
      "velocity": 97,
      "chip": "ym2612"
    },
    {
      "channel": 3,
      "note": 49,
      "start": 4.7894,
      "duration": 0.0163,
      "velocity": 88,
      "chip": "ym2612"
    },
    {
      "channel": 4,
      "note": 77,
      "start": 4.79,
      "duration": 0.0158,
      "velocity": 97,
      "chip": "ym2612"
    },
    {
      "channel": 1,
      "note": 91,
      "start": 4.8083,
      "duration": 0.0143,
      "velocity": 97,
      "chip": "ym2612"
    },
    {
      "channel": 3,
      "note": 49,
      "start": 4.8089,
      "duration": 0.014,
      "velocity": 88,
      "chip": "ym2612"
    },
    {
      "channel": 4,
      "note": 68,
      "start": 4.8094,
      "duration": 0.0136,
      "velocity": 97,
      "chip": "ym2612"
    },
    {
      "channel": 2,
      "note": 92,
      "start": 4.8202,
      "duration": 0.0173,
      "velocity": 97,
      "chip": "ym2612"
    },
    {
      "channel": 1,
      "note": 89,
      "start": 4.8283,
      "duration": 0.0146,
      "velocity": 97,
      "chip": "ym2612"
    },
    {
      "channel": 3,
      "note": 61,
      "start": 4.8288,
      "duration": 0.0142,
      "velocity": 88,
      "chip": "ym2612"
    },
    {
      "channel": 4,
      "note": 73,
      "start": 4.8293,
      "duration": 0.0139,
      "velocity": 97,
      "chip": "ym2612"
    },
    {
      "channel": 2,
      "note": 91,
      "start": 4.8404,
      "duration": 0.0178,
      "velocity": 97,
      "chip": "ym2612"
    },
    {
      "channel": 1,
      "note": 87,
      "start": 4.8496,
      "duration": 0.0143,
      "velocity": 97,
      "chip": "ym2612"
    },
    {
      "channel": 3,
      "note": 49,
      "start": 4.8502,
      "duration": 0.0139,
      "velocity": 88,
      "chip": "ym2612"
    },
    {
      "channel": 4,
      "note": 77,
      "start": 4.8507,
      "duration": 0.0136,
      "velocity": 97,
      "chip": "ym2612"
    },
    {
      "channel": 2,
      "note": 89,
      "start": 4.8615,
      "duration": 0.0168,
      "velocity": 97,
      "chip": "ym2612"
    },
    {
      "channel": 1,
      "note": 91,
      "start": 4.8673,
      "duration": 0.0168,
      "velocity": 97,
      "chip": "ym2612"
    },
    {
      "channel": 3,
      "note": 49,
      "start": 4.8679,
      "duration": 0.0165,
      "velocity": 88,
      "chip": "ym2612"
    },
    {
      "channel": 4,
      "note": 68,
      "start": 4.8684,
      "duration": 0.0161,
      "velocity": 97,
      "chip": "ym2612"
    },
    {
      "channel": 2,
      "note": 87,
      "start": 4.8818,
      "duration": 0.0177,
      "velocity": 97,
      "chip": "ym2612"
    },
    {
      "channel": 1,
      "note": 89,
      "start": 4.8903,
      "duration": 0.0152,
      "velocity": 97,
      "chip": "ym2612"
    },
    {
      "channel": 3,
      "note": 61,
      "start": 4.8909,
      "duration": 0.0148,
      "velocity": 88,
      "chip": "ym2612"
    },
    {
      "channel": 4,
      "note": 73,
      "start": 4.8914,
      "duration": 0.0145,
      "velocity": 97,
      "chip": "ym2612"
    },
    {
      "channel": 2,
      "note": 91,
      "start": 4.9023,
      "duration": 0.015,
      "velocity": 97,
      "chip": "ym2612"
    },
    {
      "channel": 1,
      "note": 87,
      "start": 4.9085,
      "duration": 0.0139,
      "velocity": 97,
      "chip": "ym2612"
    },
    {
      "channel": 3,
      "note": 49,
      "start": 4.909,
      "duration": 0.0137,
      "velocity": 88,
      "chip": "ym2612"
    },
    {
      "channel": 4,
      "note": 77,
      "start": 4.9095,
      "duration": 0.0133,
      "velocity": 97,
      "chip": "ym2612"
    },
    {
      "channel": 2,
      "note": 89,
      "start": 4.9201,
      "duration": 0.0153,
      "velocity": 97,
      "chip": "ym2612"
    },
    {
      "channel": 1,
      "note": 85,
      "start": 4.926,
      "duration": 0.0146,
      "velocity": 97,
      "chip": "ym2612"
    },
    {
      "channel": 3,
      "note": 49,
      "start": 4.9266,
      "duration": 0.0142,
      "velocity": 88,
      "chip": "ym2612"
    },
    {
      "channel": 4,
      "note": 68,
      "start": 4.9271,
      "duration": 0.0139,
      "velocity": 97,
      "chip": "ym2612"
    },
    {
      "channel": 2,
      "note": 87,
      "start": 4.9382,
      "duration": 0.0147,
      "velocity": 97,
      "chip": "ym2612"
    },
    {
      "channel": 1,
      "note": 89,
      "start": 4.9444,
      "duration": 0.0144,
      "velocity": 97,
      "chip": "ym2612"
    },
    {
      "channel": 3,
      "note": 49,
      "start": 4.9451,
      "duration": 0.0139,
      "velocity": 88,
      "chip": "ym2612"
    },
    {
      "channel": 4,
      "note": 68,
      "start": 4.9457,
      "duration": 0.005,
      "velocity": 97,
      "chip": "ym2612"
    },
    {
      "channel": 4,
      "note": 73,
      "start": 4.9535,
      "duration": 0.0057,
      "velocity": 97,
      "chip": "ym2612"
    },
    {
      "channel": 2,
      "note": 85,
      "start": 4.9565,
      "duration": 0.0142,
      "velocity": 97,
      "chip": "ym2612"
    },
    {
      "channel": 1,
      "note": 87,
      "start": 4.9616,
      "duration": 0.0156,
      "velocity": 97,
      "chip": "ym2612"
    },
    {
      "channel": 3,
      "note": 56,
      "start": 4.9621,
      "duration": 0.0153,
      "velocity": 88,
      "chip": "ym2612"
    },
    {
      "channel": 4,
      "note": 77,
      "start": 4.9627,
      "duration": 0.0059,
      "velocity": 97,
      "chip": "ym2612"
    },
    {
      "channel": 4,
      "note": 80,
      "start": 4.9713,
      "duration": 0.0063,
      "velocity": 97,
      "chip": "ym2612"
    },
    {
      "channel": 2,
      "note": 89,
      "start": 4.9748,
      "duration": 0.0145,
      "velocity": 97,
      "chip": "ym2612"
    },
    {
      "channel": 1,
      "note": 85,
      "start": 4.9801,
      "duration": 0.0155,
      "velocity": 97,
      "chip": "ym2612"
    },
    {
      "channel": 3,
      "note": 61,
      "start": 4.9807,
      "duration": 0.0151,
      "velocity": 88,
      "chip": "ym2612"
    },
    {
      "channel": 4,
      "note": 73,
      "start": 4.9812,
      "duration": 0.0057,
      "velocity": 97,
      "chip": "ym2612"
    },
    {
      "channel": 4,
      "note": 77,
      "start": 4.9899,
      "duration": 0.0061,
      "velocity": 97,
      "chip": "ym2612"
    },
    {
      "channel": 2,
      "note": 87,
      "start": 4.9925,
      "duration": 0.0183,
      "velocity": 97,
      "chip": "ym2612"
    },
    {
      "channel": 1,
      "note": 84,
      "start": 5.0015,
      "duration": 0.0148,
      "velocity": 97,
      "chip": "ym2612"
    },
    {
      "channel": 3,
      "note": 49,
      "start": 5.002,
      "duration": 0.0145,
      "velocity": 88,
      "chip": "ym2612"
    },
    {
      "channel": 4,
      "note": 80,
      "start": 5.0025,
      "duration": 0.0059,
      "velocity": 97,
      "chip": "ym2612"
    },
    {
      "channel": 4,
      "note": 85,
      "start": 5.0114,
      "duration": 0.0053,
      "velocity": 97,
      "chip": "ym2612"
    },
    {
      "channel": 2,
      "note": 85,
      "start": 5.014,
      "duration": 0.0151,
      "velocity": 97,
      "chip": "ym2612"
    },
    {
      "channel": 1,
      "note": 87,
      "start": 5.0199,
      "duration": 0.0149,
      "velocity": 97,
      "chip": "ym2612"
    },
    {
      "channel": 3,
      "note": 56,
      "start": 5.0205,
      "duration": 0.0145,
      "velocity": 88,
      "chip": "ym2612"
    },
    {
      "channel": 4,
      "note": 77,
      "start": 5.021,
      "duration": 0.0051,
      "velocity": 97,
      "chip": "ym2612"
    },
    {
      "channel": 4,
      "note": 80,
      "start": 5.0296,
      "duration": 0.0055,
      "velocity": 97,
      "chip": "ym2612"
    },
    {
      "channel": 2,
      "note": 84,
      "start": 5.0324,
      "duration": 0.0147,
      "velocity": 97,
      "chip": "ym2612"
    },
    {
      "channel": 1,
      "note": 85,
      "start": 5.0384,
      "duration": 0.0147,
      "velocity": 97,
      "chip": "ym2612"
    },
    {
      "channel": 3,
      "note": 61,
      "start": 5.039,
      "duration": 0.0144,
      "velocity": 88,
      "chip": "ym2612"
    },
    {
      "channel": 4,
      "note": 85,
      "start": 5.0395,
      "duration": 0.0051,
      "velocity": 97,
      "chip": "ym2612"
    },
    {
      "channel": 4,
      "note": 89,
      "start": 5.0476,
      "duration": 0.0059,
      "velocity": 97,
      "chip": "ym2612"
    },
    {
      "channel": 2,
      "note": 87,
      "start": 5.0508,
      "duration": 0.0151,
      "velocity": 97,
      "chip": "ym2612"
    },
    {
      "channel": 1,
      "note": 84,
      "start": 5.0562,
      "duration": 0.0162,
      "velocity": 97,
      "chip": "ym2612"
    },
    {
      "channel": 3,
      "note": 56,
      "start": 5.0568,
      "duration": 0.0159,
      "velocity": 88,
      "chip": "ym2612"
    },
    {
      "channel": 4,
      "note": 80,
      "start": 5.0573,
      "duration": 0.0061,
      "velocity": 97,
      "chip": "ym2612"
    },
    {
      "channel": 4,
      "note": 85,
      "start": 5.0665,
      "duration": 0.0064,
      "velocity": 97,
      "chip": "ym2612"
    },
    {
      "channel": 2,
      "note": 85,
      "start": 5.07,
      "duration": 0.0149,
      "velocity": 97,
      "chip": "ym2612"
    },
    {
      "channel": 1,
      "note": 82,
      "start": 5.0755,
      "duration": 0.0157,
      "velocity": 97,
      "chip": "ym2612"
    },
    {
      "channel": 3,
      "note": 49,
      "start": 5.0761,
      "duration": 0.0153,
      "velocity": 88,
      "chip": "ym2612"
    },
    {
      "channel": 4,
      "note": 89,
      "start": 5.0766,
      "duration": 0.0059,
      "velocity": 97,
      "chip": "ym2612"
    },
    {
      "channel": 4,
      "note": 92,
      "start": 5.0854,
      "duration": 0.0062,
      "velocity": 97,
      "chip": "ym2612"
    },
    {
      "channel": 2,
      "note": 84,
      "start": 5.088,
      "duration": 0.0173,
      "velocity": 97,
      "chip": "ym2612"
    },
    {
      "channel": 1,
      "note": 80,
      "start": 5.0943,
      "duration": 0.0162,
      "velocity": 97,
      "chip": "ym2612"
    },
    {
      "channel": 3,
      "note": 53,
      "start": 5.095,
      "duration": 0.0157,
      "velocity": 88,
      "chip": "ym2612"
    },
    {
      "channel": 4,
      "note": 80,
      "start": 5.097,
      "duration": 0.0139,
      "velocity": 97,
      "chip": "ym2612"
    },
    {
      "channel": 2,
      "note": 82,
      "start": 5.1082,
      "duration": 0.0147,
      "velocity": 97,
      "chip": "ym2612"
    },
    {
      "channel": 1,
      "note": 77,
      "start": 5.114,
      "duration": 0.0142,
      "velocity": 97,
      "chip": "ym2612"
    },
    {
      "channel": 3,
      "note": 53,
      "start": 5.1146,
      "duration": 0.0138,
      "velocity": 88,
      "chip": "ym2612"
    },
    {
      "channel": 4,
      "note": 72,
      "start": 5.1151,
      "duration": 0.0135,
      "velocity": 97,
      "chip": "ym2612"
    },
    {
      "channel": 2,
      "note": 80,
      "start": 5.1258,
      "duration": 0.0147,
      "velocity": 97,
      "chip": "ym2612"
    },
    {
      "channel": 1,
      "note": 79,
      "start": 5.1319,
      "duration": 0.0144,
      "velocity": 97,
      "chip": "ym2612"
    },
    {
      "channel": 3,
      "note": 65,
      "start": 5.1325,
      "duration": 0.0141,
      "velocity": 88,
      "chip": "ym2612"
    },
    {
      "channel": 4,
      "note": 77,
      "start": 5.133,
      "duration": 0.0137,
      "velocity": 97,
      "chip": "ym2612"
    },
    {
      "channel": 2,
      "note": 77,
      "start": 5.1439,
      "duration": 0.015,
      "velocity": 97,
      "chip": "ym2612"
    },
    {
      "channel": 1,
      "note": 80,
      "start": 5.1498,
      "duration": 0.015,
      "velocity": 97,
      "chip": "ym2612"
    },
    {
      "channel": 3,
      "note": 53,
      "start": 5.1504,
      "duration": 0.0146,
      "velocity": 88,
      "chip": "ym2612"
    },
    {
      "channel": 4,
      "note": 80,
      "start": 5.1509,
      "duration": 0.0143,
      "velocity": 97,
      "chip": "ym2612"
    },
    {
      "channel": 2,
      "note": 79,
      "start": 5.1625,
      "duration": 0.0146,
      "velocity": 97,
      "chip": "ym2612"
    },
    {
      "channel": 1,
      "note": 84,
      "start": 5.1678,
      "duration": 0.0152,
      "velocity": 97,
      "chip": "ym2612"
    },
    {
      "channel": 3,
      "note": 53,
      "start": 5.1684,
      "duration": 0.0149,
      "velocity": 88,
      "chip": "ym2612"
    },
    {
      "channel": 4,
      "note": 72,
      "start": 5.1689,
      "duration": 0.0145,
      "velocity": 97,
      "chip": "ym2612"
    },
    {
      "channel": 2,
      "note": 80,
      "start": 5.1799,
      "duration": 0.0154,
      "velocity": 97,
      "chip": "ym2612"
    },
    {
      "channel": 1,
      "note": 80,
      "start": 5.186,
      "duration": 0.0145,
      "velocity": 97,
      "chip": "ym2612"
    },
    {
      "channel": 3,
      "note": 65,
      "start": 5.1866,
      "duration": 0.0142,
      "velocity": 88,
      "chip": "ym2612"
    },
    {
      "channel": 4,
      "note": 77,
      "start": 5.1871,
      "duration": 0.0138,
      "velocity": 97,
      "chip": "ym2612"
    },
    {
      "channel": 2,
      "note": 84,
      "start": 5.1981,
      "duration": 0.0149,
      "velocity": 97,
      "chip": "ym2612"
    },
    {
      "channel": 1,
      "note": 79,
      "start": 5.204,
      "duration": 0.0141,
      "velocity": 97,
      "chip": "ym2612"
    },
    {
      "channel": 3,
      "note": 53,
      "start": 5.2046,
      "duration": 0.0138,
      "velocity": 88,
      "chip": "ym2612"
    },
    {
      "channel": 4,
      "note": 80,
      "start": 5.2051,
      "duration": 0.0134,
      "velocity": 97,
      "chip": "ym2612"
    },
    {
      "channel": 2,
      "note": 80,
      "start": 5.2158,
      "duration": 0.0148,
      "velocity": 97,
      "chip": "ym2612"
    },
    {
      "channel": 1,
      "note": 77,
      "start": 5.2219,
      "duration": 0.0144,
      "velocity": 97,
      "chip": "ym2612"
    },
    {
      "channel": 3,
      "note": 53,
      "start": 5.2225,
      "duration": 0.014,
      "velocity": 88,
      "chip": "ym2612"
    },
    {
      "channel": 4,
      "note": 72,
      "start": 5.223,
      "duration": 0.0137,
      "velocity": 97,
      "chip": "ym2612"
    },
    {
      "channel": 2,
      "note": 79,
      "start": 5.2339,
      "duration": 0.0171,
      "velocity": 97,
      "chip": "ym2612"
    },
    {
      "channel": 1,
      "note": 80,
      "start": 5.2397,
      "duration": 0.0172,
      "velocity": 97,
      "chip": "ym2612"
    },
    {
      "channel": 3,
      "note": 51,
      "start": 5.2404,
      "duration": 0.0167,
      "velocity": 88,
      "chip": "ym2612"
    },
    {
      "channel": 4,
      "note": 79,
      "start": 5.241,
      "duration": 0.0162,
      "velocity": 97,
      "chip": "ym2612"
    },
    {
      "channel": 2,
      "note": 77,
      "start": 5.2545,
      "duration": 0.0144,
      "velocity": 97,
      "chip": "ym2612"
    },
    {
      "channel": 1,
      "note": 75,
      "start": 5.2599,
      "duration": 0.0151,
      "velocity": 97,
      "chip": "ym2612"
    },
    {
      "channel": 3,
      "note": 51,
      "start": 5.2605,
      "duration": 0.0147,
      "velocity": 88,
      "chip": "ym2612"
    },
    {
      "channel": 4,
      "note": 70,
      "start": 5.261,
      "duration": 0.0144,
      "velocity": 97,
      "chip": "ym2612"
    },
    {
      "channel": 2,
      "note": 80,
      "start": 5.2719,
      "duration": 0.0187,
      "velocity": 97,
      "chip": "ym2612"
    },
    {
      "channel": 1,
      "note": 79,
      "start": 5.2812,
      "duration": 0.0145,
      "velocity": 97,
      "chip": "ym2612"
    },
    {
      "channel": 3,
      "note": 63,
      "start": 5.2818,
      "duration": 0.0142,
      "velocity": 88,
      "chip": "ym2612"
    },
    {
      "channel": 4,
      "note": 75,
      "start": 5.2823,
      "duration": 0.0138,
      "velocity": 97,
      "chip": "ym2612"
    },
    {
      "channel": 2,
      "note": 75,
      "start": 5.2934,
      "duration": 0.0185,
      "velocity": 97,
      "chip": "ym2612"
    },
    {
      "channel": 1,
      "note": 80,
      "start": 5.3025,
      "duration": 0.0146,
      "velocity": 97,
      "chip": "ym2612"
    },
    {
      "channel": 3,
      "note": 51,
      "start": 5.3031,
      "duration": 0.0143,
      "velocity": 88,
      "chip": "ym2612"
    },
    {
      "channel": 4,
      "note": 79,
      "start": 5.3036,
      "duration": 0.0139,
      "velocity": 97,
      "chip": "ym2612"
    },
    {
      "channel": 2,
      "note": 79,
      "start": 5.3147,
      "duration": 0.0154,
      "velocity": 97,
      "chip": "ym2612"
    },
    {
      "channel": 1,
      "note": 84,
      "start": 5.3208,
      "duration": 0.0145,
      "velocity": 97,
      "chip": "ym2612"
    },
    {
      "channel": 3,
      "note": 51,
      "start": 5.3214,
      "duration": 0.0141,
      "velocity": 88,
      "chip": "ym2612"
    },
    {
      "channel": 4,
      "note": 70,
      "start": 5.3219,
      "duration": 0.0137,
      "velocity": 97,
      "chip": "ym2612"
    },
    {
      "channel": 2,
      "note": 80,
      "start": 5.3329,
      "duration": 0.0149,
      "velocity": 97,
      "chip": "ym2612"
    },
    {
      "channel": 1,
      "note": 80,
      "start": 5.3386,
      "duration": 0.015,
      "velocity": 97,
      "chip": "ym2612"
    },
    {
      "channel": 3,
      "note": 63,
      "start": 5.3392,
      "duration": 0.0147,
      "velocity": 88,
      "chip": "ym2612"
    },
    {
      "channel": 4,
      "note": 75,
      "start": 5.3397,
      "duration": 0.0143,
      "velocity": 97,
      "chip": "ym2612"
    },
    {
      "channel": 2,
      "note": 84,
      "start": 5.3513,
      "duration": 0.014,
      "velocity": 97,
      "chip": "ym2612"
    },
    {
      "channel": 1,
      "note": 79,
      "start": 5.3566,
      "duration": 0.0146,
      "velocity": 97,
      "chip": "ym2612"
    },
    {
      "channel": 3,
      "note": 51,
      "start": 5.3572,
      "duration": 0.0142,
      "velocity": 88,
      "chip": "ym2612"
    },
    {
      "channel": 4,
      "note": 79,
      "start": 5.3577,
      "duration": 0.0139,
      "velocity": 97,
      "chip": "ym2612"
    },
    {
      "channel": 2,
      "note": 80,
      "start": 5.3681,
      "duration": 0.0154,
      "velocity": 97,
      "chip": "ym2612"
    },
    {
      "channel": 1,
      "note": 75,
      "start": 5.3742,
      "duration": 0.0153,
      "velocity": 97,
      "chip": "ym2612"
    },
    {
      "channel": 3,
      "note": 51,
      "start": 5.3747,
      "duration": 0.015,
      "velocity": 88,
      "chip": "ym2612"
    },
    {
      "channel": 4,
      "note": 70,
      "start": 5.3753,
      "duration": 0.0146,
      "velocity": 97,
      "chip": "ym2612"
    },
    {
      "channel": 2,
      "note": 79,
      "start": 5.3864,
      "duration": 0.0173,
      "velocity": 97,
      "chip": "ym2612"
    },
    {
      "channel": 1,
      "note": 73,
      "start": 5.3926,
      "duration": 0.0533,
      "velocity": 97,
      "chip": "ym2612"
    },
    {
      "channel": 3,
      "note": 49,
      "start": 5.3933,
      "duration": 0.016,
      "velocity": 88,
      "chip": "ym2612"
    },
    {
      "channel": 4,
      "note": 77,
      "start": 5.3939,
      "duration": 0.0155,
      "velocity": 97,
      "chip": "ym2612"
    },
    {
      "channel": 2,
      "note": 75,
      "start": 5.4067,
      "duration": 0.0145,
      "velocity": 97,
      "chip": "ym2612"
    },
    {
      "channel": 3,
      "note": 49,
      "start": 5.4128,
      "duration": 0.0137,
      "velocity": 88,
      "chip": "ym2612"
    },
    {
      "channel": 4,
      "note": 68,
      "start": 5.4133,
      "duration": 0.0134,
      "velocity": 97,
      "chip": "ym2612"
    },
    {
      "channel": 2,
      "note": 73,
      "start": 5.4241,
      "duration": 0.0539,
      "velocity": 97,
      "chip": "ym2612"
    },
    {
      "channel": 3,
      "note": 61,
      "start": 5.4318,
      "duration": 0.0143,
      "velocity": 88,
      "chip": "ym2612"
    },
    {
      "channel": 4,
      "note": 73,
      "start": 5.4323,
      "duration": 0.014,
      "velocity": 97,
      "chip": "ym2612"
    },
    {
      "channel": 1,
      "note": 75,
      "start": 5.4496,
      "duration": 0.051,
      "velocity": 97,
      "chip": "ym2612"
    },
    {
      "channel": 3,
      "note": 49,
      "start": 5.4502,
      "duration": 0.0141,
      "velocity": 88,
      "chip": "ym2612"
    },
    {
      "channel": 4,
      "note": 77,
      "start": 5.4507,
      "duration": 0.0137,
      "velocity": 97,
      "chip": "ym2612"
    },
    {
      "channel": 3,
      "note": 49,
      "start": 5.4675,
      "duration": 0.0165,
      "velocity": 88,
      "chip": "ym2612"
    },
    {
      "channel": 4,
      "note": 68,
      "start": 5.468,
      "duration": 0.0162,
      "velocity": 97,
      "chip": "ym2612"
    },
    {
      "channel": 2,
      "note": 75,
      "start": 5.4808,
      "duration": 0.0506,
      "velocity": 97,
      "chip": "ym2612"
    },
    {
      "channel": 3,
      "note": 61,
      "start": 5.4873,
      "duration": 0.0136,
      "velocity": 88,
      "chip": "ym2612"
    },
    {
      "channel": 4,
      "note": 73,
      "start": 5.4878,
      "duration": 0.0132,
      "velocity": 97,
      "chip": "ym2612"
    },
    {
      "channel": 1,
      "note": 77,
      "start": 5.5043,
      "duration": 0.0331,
      "velocity": 97,
      "chip": "ym2612"
    },
    {
      "channel": 3,
      "note": 49,
      "start": 5.5049,
      "duration": 0.0131,
      "velocity": 88,
      "chip": "ym2612"
    },
    {
      "channel": 4,
      "note": 77,
      "start": 5.5054,
      "duration": 0.0127,
      "velocity": 97,
      "chip": "ym2612"
    },
    {
      "channel": 3,
      "note": 49,
      "start": 5.5228,
      "duration": 0.0149,
      "velocity": 88,
      "chip": "ym2612"
    },
    {
      "channel": 4,
      "note": 68,
      "start": 5.5233,
      "duration": 0.0145,
      "velocity": 97,
      "chip": "ym2612"
    },
    {
      "channel": 2,
      "note": 77,
      "start": 5.535,
      "duration": 0.0359,
      "velocity": 97,
      "chip": "ym2612"
    },
    {
      "channel": 1,
      "note": 80,
      "start": 5.5406,
      "duration": 0.0531,
      "velocity": 97,
      "chip": "ym2612"
    },
    {
      "channel": 3,
      "note": 49,
      "start": 5.5413,
      "duration": 0.0161,
      "velocity": 88,
      "chip": "ym2612"
    },
    {
      "channel": 4,
      "note": 77,
      "start": 5.5419,
      "duration": 0.0157,
      "velocity": 97,
      "chip": "ym2612"
    },
    {
      "channel": 3,
      "note": 49,
      "start": 5.5604,
      "duration": 0.0167,
      "velocity": 88,
      "chip": "ym2612"
    },
    {
      "channel": 4,
      "note": 68,
      "start": 5.5608,
      "duration": 0.0164,
      "velocity": 97,
      "chip": "ym2612"
    },
    {
      "channel": 2,
      "note": 80,
      "start": 5.5739,
      "duration": 0.0525,
      "velocity": 97,
      "chip": "ym2612"
    },
    {
      "channel": 3,
      "note": 61,
      "start": 5.5802,
      "duration": 0.0137,
      "velocity": 88,
      "chip": "ym2612"
    },
    {
      "channel": 4,
      "note": 73,
      "start": 5.5807,
      "duration": 0.0133,
      "velocity": 97,
      "chip": "ym2612"
    },
    {
      "channel": 1,
      "note": 85,
      "start": 5.5981,
      "duration": 0.0517,
      "velocity": 97,
      "chip": "ym2612"
    },
    {
      "channel": 3,
      "note": 49,
      "start": 5.5987,
      "duration": 0.0135,
      "velocity": 88,
      "chip": "ym2612"
    },
    {
      "channel": 4,
      "note": 77,
      "start": 5.5992,
      "duration": 0.0132,
      "velocity": 97,
      "chip": "ym2612"
    },
    {
      "channel": 3,
      "note": 49,
      "start": 5.616,
      "duration": 0.0164,
      "velocity": 88,
      "chip": "ym2612"
    },
    {
      "channel": 4,
      "note": 68,
      "start": 5.6165,
      "duration": 0.016,
      "velocity": 97,
      "chip": "ym2612"
    },
    {
      "channel": 2,
      "note": 85,
      "start": 5.6299,
      "duration": 0.0505,
      "velocity": 97,
      "chip": "ym2612"
    },
    {
      "channel": 3,
      "note": 61,
      "start": 5.6356,
      "duration": 0.0144,
      "velocity": 88,
      "chip": "ym2612"
    },
    {
      "channel": 4,
      "note": 73,
      "start": 5.6361,
      "duration": 0.014,
      "velocity": 97,
      "chip": "ym2612"
    },
    {
      "channel": 1,
      "note": 89,
      "start": 5.6528,
      "duration": 0.0327,
      "velocity": 97,
      "chip": "ym2612"
    },
    {
      "channel": 3,
      "note": 49,
      "start": 5.6533,
      "duration": 0.014,
      "velocity": 88,
      "chip": "ym2612"
    },
    {
      "channel": 4,
      "note": 77,
      "start": 5.6539,
      "duration": 0.0137,
      "velocity": 97,
      "chip": "ym2612"
    },
    {
      "channel": 3,
      "note": 49,
      "start": 5.6716,
      "duration": 0.0141,
      "velocity": 88,
      "chip": "ym2612"
    },
    {
      "channel": 4,
      "note": 68,
      "start": 5.6721,
      "duration": 0.0137,
      "velocity": 97,
      "chip": "ym2612"
    },
    {
      "channel": 2,
      "note": 89,
      "start": 5.6831,
      "duration": 0.0366,
      "velocity": 97,
      "chip": "ym2612"
    },
    {
      "channel": 1,
      "note": 77,
      "start": 5.6895,
      "duration": 0.0159,
      "velocity": 97,
      "chip": "ym2612"
    },
    {
      "channel": 3,
      "note": 53,
      "start": 5.6902,
      "duration": 0.0154,
      "velocity": 88,
      "chip": "ym2612"
    },
    {
      "channel": 4,
      "note": 80,
      "start": 5.6907,
      "duration": 0.015,
      "velocity": 97,
      "chip": "ym2612"
    },
    {
      "channel": 1,
      "note": 79,
      "start": 5.7088,
      "duration": 0.017,
      "velocity": 97,
      "chip": "ym2612"
    },
    {
      "channel": 3,
      "note": 53,
      "start": 5.7094,
      "duration": 0.0167,
      "velocity": 88,
      "chip": "ym2612"
    },
    {
      "channel": 4,
      "note": 72,
      "start": 5.7099,
      "duration": 0.0163,
      "velocity": 97,
      "chip": "ym2612"
    },
    {
      "channel": 2,
      "note": 77,
      "start": 5.7234,
      "duration": 0.0178,
      "velocity": 97,
      "chip": "ym2612"
    },
    {
      "channel": 1,
      "note": 80,
      "start": 5.7321,
      "duration": 0.0151,
      "velocity": 97,
      "chip": "ym2612"
    },
    {
      "channel": 3,
      "note": 65,
      "start": 5.7327,
      "duration": 0.0147,
      "velocity": 88,
      "chip": "ym2612"
    },
    {
      "channel": 4,
      "note": 77,
      "start": 5.7332,
      "duration": 0.0144,
      "velocity": 97,
      "chip": "ym2612"
    },
    {
      "channel": 2,
      "note": 79,
      "start": 5.744,
      "duration": 0.0188,
      "velocity": 97,
      "chip": "ym2612"
    },
    {
      "channel": 1,
      "note": 84,
      "start": 5.7534,
      "duration": 0.0893,
      "velocity": 97,
      "chip": "ym2612"
    },
    {
      "channel": 3,
      "note": 53,
      "start": 5.754,
      "duration": 0.0148,
      "velocity": 88,
      "chip": "ym2612"
    },
    {
      "channel": 4,
      "note": 80,
      "start": 5.7545,
      "duration": 0.0144,
      "velocity": 97,
      "chip": "ym2612"
    },
    {
      "channel": 2,
      "note": 80,
      "start": 5.7656,
      "duration": 0.0165,
      "velocity": 97,
      "chip": "ym2612"
    },
    {
      "channel": 3,
      "note": 53,
      "start": 5.7717,
      "duration": 0.0157,
      "velocity": 88,
      "chip": "ym2612"
    },
    {
      "channel": 4,
      "note": 72,
      "start": 5.7722,
      "duration": 0.0154,
      "velocity": 97,
      "chip": "ym2612"
    },
    {
      "channel": 2,
      "note": 84,
      "start": 5.7849,
      "duration": 0.0922,
      "velocity": 97,
      "chip": "ym2612"
    },
    {
      "channel": 3,
      "note": 65,
      "start": 5.7915,
      "duration": 0.0151,
      "velocity": 88,
      "chip": "ym2612"
    },
    {
      "channel": 4,
      "note": 77,
      "start": 5.792,
      "duration": 0.0148,
      "velocity": 97,
      "chip": "ym2612"
    },
    {
      "channel": 3,
      "note": 53,
      "start": 5.8109,
      "duration": 0.0143,
      "velocity": 88,
      "chip": "ym2612"
    },
    {
      "channel": 4,
      "note": 80,
      "start": 5.8114,
      "duration": 0.0139,
      "velocity": 97,
      "chip": "ym2612"
    },
    {
      "channel": 3,
      "note": 53,
      "start": 5.8288,
      "duration": 0.0141,
      "velocity": 88,
      "chip": "ym2612"
    },
    {
      "channel": 4,
      "note": 72,
      "start": 5.8293,
      "duration": 0.0138,
      "velocity": 97,
      "chip": "ym2612"
    },
    {
      "channel": 1,
      "note": 75,
      "start": 5.8465,
      "duration": 0.0168,
      "velocity": 97,
      "chip": "ym2612"
    },
    {
      "channel": 3,
      "note": 51,
      "start": 5.8471,
      "duration": 0.0163,
      "velocity": 88,
      "chip": "ym2612"
    },
    {
      "channel": 4,
      "note": 79,
      "start": 5.8478,
      "duration": 0.0159,
      "velocity": 97,
      "chip": "ym2612"
    },
    {
      "channel": 1,
      "note": 79,
      "start": 5.8661,
      "duration": 0.0163,
      "velocity": 97,
      "chip": "ym2612"
    },
    {
      "channel": 3,
      "note": 51,
      "start": 5.8667,
      "duration": 0.0159,
      "velocity": 88,
      "chip": "ym2612"
    },
    {
      "channel": 4,
      "note": 70,
      "start": 5.8672,
      "duration": 0.0156,
      "velocity": 97,
      "chip": "ym2612"
    },
    {
      "channel": 2,
      "note": 75,
      "start": 5.88,
      "duration": 0.0185,
      "velocity": 97,
      "chip": "ym2612"
    },
    {
      "channel": 1,
      "note": 80,
      "start": 5.8892,
      "duration": 0.0144,
      "velocity": 97,
      "chip": "ym2612"
    },
    {
      "channel": 3,
      "note": 63,
      "start": 5.8898,
      "duration": 0.014,
      "velocity": 88,
      "chip": "ym2612"
    },
    {
      "channel": 4,
      "note": 75,
      "start": 5.8903,
      "duration": 0.0137,
      "velocity": 97,
      "chip": "ym2612"
    },
    {
      "channel": 2,
      "note": 79,
      "start": 5.9013,
      "duration": 0.0149,
      "velocity": 97,
      "chip": "ym2612"
    },
    {
      "channel": 1,
      "note": 87,
      "start": 5.9071,
      "duration": 0.0883,
      "velocity": 97,
      "chip": "ym2612"
    },
    {
      "channel": 3,
      "note": 51,
      "start": 5.9076,
      "duration": 0.0145,
      "velocity": 88,
      "chip": "ym2612"
    },
    {
      "channel": 4,
      "note": 79,
      "start": 5.9082,
      "duration": 0.0141,
      "velocity": 97,
      "chip": "ym2612"
    },
    {
      "channel": 2,
      "note": 80,
      "start": 5.9197,
      "duration": 0.0158,
      "velocity": 97,
      "chip": "ym2612"
    },
    {
      "channel": 3,
      "note": 51,
      "start": 5.925,
      "duration": 0.0164,
      "velocity": 88,
      "chip": "ym2612"
    },
    {
      "channel": 4,
      "note": 70,
      "start": 5.9255,
      "duration": 0.0161,
      "velocity": 97,
      "chip": "ym2612"
    },
    {
      "channel": 2,
      "note": 87,
      "start": 5.9383,
      "duration": 0.0919,
      "velocity": 97,
      "chip": "ym2612"
    },
    {
      "channel": 3,
      "note": 63,
      "start": 5.9445,
      "duration": 0.0161,
      "velocity": 88,
      "chip": "ym2612"
    },
    {
      "channel": 4,
      "note": 75,
      "start": 5.945,
      "duration": 0.0157,
      "velocity": 97,
      "chip": "ym2612"
    },
    {
      "channel": 3,
      "note": 51,
      "start": 5.9644,
      "duration": 0.0134,
      "velocity": 88,
      "chip": "ym2612"
    },
    {
      "channel": 4,
      "note": 79,
      "start": 5.9648,
      "duration": 0.0131,
      "velocity": 97,
      "chip": "ym2612"
    },
    {
      "channel": 3,
      "note": 51,
      "start": 5.9821,
      "duration": 0.0135,
      "velocity": 88,
      "chip": "ym2612"
    },
    {
      "channel": 4,
      "note": 70,
      "start": 5.9826,
      "duration": 0.0131,
      "velocity": 97,
      "chip": "ym2612"
    },
    {
      "channel": 1,
      "note": 92,
      "start": 5.9998,
      "duration": 0.0166,
      "velocity": 97,
      "chip": "ym2612"
    },
    {
      "channel": 3,
      "note": 49,
      "start": 6.0005,
      "duration": 0.0162,
      "velocity": 88,
      "chip": "ym2612"
    },
    {
      "channel": 4,
      "note": 77,
      "start": 6.0012,
      "duration": 0.0157,
      "velocity": 97,
      "chip": "ym2612"
    },
    {
      "channel": 1,
      "note": 91,
      "start": 6.0193,
      "duration": 0.0168,
      "velocity": 97,
      "chip": "ym2612"
    },
    {
      "channel": 3,
      "note": 49,
      "start": 6.0199,
      "duration": 0.0164,
      "velocity": 88,
      "chip": "ym2612"
    },
    {
      "channel": 4,
      "note": 68,
      "start": 6.0204,
      "duration": 0.0161,
      "velocity": 97,
      "chip": "ym2612"
    },
    {
      "channel": 2,
      "note": 92,
      "start": 6.0331,
      "duration": 0.0186,
      "velocity": 97,
      "chip": "ym2612"
    },
    {
      "channel": 1,
      "note": 89,
      "start": 6.0424,
      "duration": 0.0152,
      "velocity": 97,
      "chip": "ym2612"
    },
    {
      "channel": 3,
      "note": 61,
      "start": 6.043,
      "duration": 0.0149,
      "velocity": 88,
      "chip": "ym2612"
    },
    {
      "channel": 4,
      "note": 73,
      "start": 6.0435,
      "duration": 0.0145,
      "velocity": 97,
      "chip": "ym2612"
    },
    {
      "channel": 2,
      "note": 91,
      "start": 6.0544,
      "duration": 0.0152,
      "velocity": 97,
      "chip": "ym2612"
    },
    {
      "channel": 1,
      "note": 87,
      "start": 6.0605,
      "duration": 0.0143,
      "velocity": 97,
      "chip": "ym2612"
    },
    {
      "channel": 3,
      "note": 49,
      "start": 6.0611,
      "duration": 0.0139,
      "velocity": 88,
      "chip": "ym2612"
    },
    {
      "channel": 4,
      "note": 77,
      "start": 6.0616,
      "duration": 0.0136,
      "velocity": 97,
      "chip": "ym2612"
    },
    {
      "channel": 2,
      "note": 89,
      "start": 6.0725,
      "duration": 0.0152,
      "velocity": 97,
      "chip": "ym2612"
    },
    {
      "channel": 1,
      "note": 91,
      "start": 6.0785,
      "duration": 0.0143,
      "velocity": 97,
      "chip": "ym2612"
    },
    {
      "channel": 3,
      "note": 49,
      "start": 6.0791,
      "duration": 0.0139,
      "velocity": 88,
      "chip": "ym2612"
    },
    {
      "channel": 4,
      "note": 68,
      "start": 6.0796,
      "duration": 0.0136,
      "velocity": 97,
      "chip": "ym2612"
    },
    {
      "channel": 2,
      "note": 87,
      "start": 6.0905,
      "duration": 0.0166,
      "velocity": 97,
      "chip": "ym2612"
    },
    {
      "channel": 1,
      "note": 89,
      "start": 6.0963,
      "duration": 0.0168,
      "velocity": 97,
      "chip": "ym2612"
    },
    {
      "channel": 3,
      "note": 61,
      "start": 6.0968,
      "duration": 0.0165,
      "velocity": 88,
      "chip": "ym2612"
    },
    {
      "channel": 4,
      "note": 73,
      "start": 6.0973,
      "duration": 0.0161,
      "velocity": 97,
      "chip": "ym2612"
    },
    {
      "channel": 2,
      "note": 91,
      "start": 6.1107,
      "duration": 0.0177,
      "velocity": 97,
      "chip": "ym2612"
    },
    {
      "channel": 1,
      "note": 87,
      "start": 6.1193,
      "duration": 0.0149,
      "velocity": 97,
      "chip": "ym2612"
    },
    {
      "channel": 3,
      "note": 49,
      "start": 6.1199,
      "duration": 0.0146,
      "velocity": 88,
      "chip": "ym2612"
    },
    {
      "channel": 4,
      "note": 77,
      "start": 6.1204,
      "duration": 0.0142,
      "velocity": 97,
      "chip": "ym2612"
    },
    {
      "channel": 2,
      "note": 89,
      "start": 6.1313,
      "duration": 0.0151,
      "velocity": 97,
      "chip": "ym2612"
    },
    {
      "channel": 1,
      "note": 85,
      "start": 6.1371,
      "duration": 0.0151,
      "velocity": 97,
      "chip": "ym2612"
    },
    {
      "channel": 3,
      "note": 49,
      "start": 6.1378,
      "duration": 0.0147,
      "velocity": 88,
      "chip": "ym2612"
    },
    {
      "channel": 4,
      "note": 68,
      "start": 6.1382,
      "duration": 0.0144,
      "velocity": 97,
      "chip": "ym2612"
    },
    {
      "channel": 2,
      "note": 87,
      "start": 6.1492,
      "duration": 0.0175,
      "velocity": 97,
      "chip": "ym2612"
    },
    {
      "channel": 1,
      "note": 89,
      "start": 6.1553,
      "duration": 0.0169,
      "velocity": 97,
      "chip": "ym2612"
    },
    {
      "channel": 3,
      "note": 49,
      "start": 6.156,
      "duration": 0.0164,
      "velocity": 88,
      "chip": "ym2612"
    },
    {
      "channel": 4,
      "note": 68,
      "start": 6.1566,
      "duration": 0.0069,
      "velocity": 97,
      "chip": "ym2612"
    },
    {
      "channel": 4,
      "note": 73,
      "start": 6.1672,
      "duration": 0.0054,
      "velocity": 97,
      "chip": "ym2612"
    },
    {
      "channel": 2,
      "note": 85,
      "start": 6.1698,
      "duration": 0.0153,
      "velocity": 97,
      "chip": "ym2612"
    },
    {
      "channel": 1,
      "note": 87,
      "start": 6.1759,
      "duration": 0.0148,
      "velocity": 97,
      "chip": "ym2612"
    },
    {
      "channel": 3,
      "note": 56,
      "start": 6.1765,
      "duration": 0.0145,
      "velocity": 88,
      "chip": "ym2612"
    },
    {
      "channel": 4,
      "note": 77,
      "start": 6.177,
      "duration": 0.0052,
      "velocity": 97,
      "chip": "ym2612"
    },
    {
      "channel": 4,
      "note": 80,
      "start": 6.1857,
      "duration": 0.0055,
      "velocity": 97,
      "chip": "ym2612"
    },
    {
      "channel": 2,
      "note": 89,
      "start": 6.1885,
      "duration": 0.0145,
      "velocity": 97,
      "chip": "ym2612"
    },
    {
      "channel": 1,
      "note": 85,
      "start": 6.1937,
      "duration": 0.0158,
      "velocity": 97,
      "chip": "ym2612"
    },
    {
      "channel": 3,
      "note": 61,
      "start": 6.1943,
      "duration": 0.0154,
      "velocity": 88,
      "chip": "ym2612"
    },
    {
      "channel": 4,
      "note": 73,
      "start": 6.1948,
      "duration": 0.0059,
      "velocity": 97,
      "chip": "ym2612"
    },
    {
      "channel": 4,
      "note": 77,
      "start": 6.2036,
      "duration": 0.0063,
      "velocity": 97,
      "chip": "ym2612"
    },
    {
      "channel": 2,
      "note": 87,
      "start": 6.2071,
      "duration": 0.0173,
      "velocity": 97,
      "chip": "ym2612"
    },
    {
      "channel": 1,
      "note": 84,
      "start": 6.2152,
      "duration": 0.0154,
      "velocity": 97,
      "chip": "ym2612"
    },
    {
      "channel": 3,
      "note": 49,
      "start": 6.2158,
      "duration": 0.015,
      "velocity": 88,
      "chip": "ym2612"
    },
    {
      "channel": 4,
      "note": 80,
      "start": 6.2163,
      "duration": 0.0059,
      "velocity": 97,
      "chip": "ym2612"
    },
    {
      "channel": 4,
      "note": 85,
      "start": 6.225,
      "duration": 0.006,
      "velocity": 97,
      "chip": "ym2612"
    },
    {
      "channel": 2,
      "note": 85,
      "start": 6.2276,
      "duration": 0.0152,
      "velocity": 97,
      "chip": "ym2612"
    },
    {
      "channel": 1,
      "note": 87,
      "start": 6.2336,
      "duration": 0.0155,
      "velocity": 97,
      "chip": "ym2612"
    },
    {
      "channel": 3,
      "note": 56,
      "start": 6.2341,
      "duration": 0.0152,
      "velocity": 88,
      "chip": "ym2612"
    },
    {
      "channel": 4,
      "note": 77,
      "start": 6.2346,
      "duration": 0.0059,
      "velocity": 97,
      "chip": "ym2612"
    },
    {
      "channel": 4,
      "note": 80,
      "start": 6.2434,
      "duration": 0.006,
      "velocity": 97,
      "chip": "ym2612"
    },
    {
      "channel": 2,
      "note": 84,
      "start": 6.246,
      "duration": 0.0153,
      "velocity": 97,
      "chip": "ym2612"
    },
    {
      "channel": 1,
      "note": 85,
      "start": 6.252,
      "duration": 0.015,
      "velocity": 97,
      "chip": "ym2612"
    },
    {
      "channel": 3,
      "note": 61,
      "start": 6.2526,
      "duration": 0.0146,
      "velocity": 88,
      "chip": "ym2612"
    },
    {
      "channel": 4,
      "note": 85,
      "start": 6.2531,
      "duration": 0.0052,
      "velocity": 97,
      "chip": "ym2612"
    },
    {
      "channel": 4,
      "note": 89,
      "start": 6.2619,
      "duration": 0.0055,
      "velocity": 97,
      "chip": "ym2612"
    },
    {
      "channel": 2,
      "note": 87,
      "start": 6.2646,
      "duration": 0.0155,
      "velocity": 97,
      "chip": "ym2612"
    },
    {
      "channel": 1,
      "note": 84,
      "start": 6.2706,
      "duration": 0.0149,
      "velocity": 97,
      "chip": "ym2612"
    },
    {
      "channel": 3,
      "note": 56,
      "start": 6.2712,
      "duration": 0.0145,
      "velocity": 88,
      "chip": "ym2612"
    },
    {
      "channel": 4,
      "note": 80,
      "start": 6.2717,
      "duration": 0.0053,
      "velocity": 97,
      "chip": "ym2612"
    },
    {
      "channel": 4,
      "note": 85,
      "start": 6.2806,
      "duration": 0.0052,
      "velocity": 97,
      "chip": "ym2612"
    },
    {
      "channel": 2,
      "note": 85,
      "start": 6.2833,
      "duration": 0.0162,
      "velocity": 97,
      "chip": "ym2612"
    },
    {
      "channel": 1,
      "note": 82,
      "start": 6.2884,
      "duration": 0.0174,
      "velocity": 97,
      "chip": "ym2612"
    },
    {
      "channel": 3,
      "note": 49,
      "start": 6.289,
      "duration": 0.017,
      "velocity": 88,
      "chip": "ym2612"
    },
    {
      "channel": 4,
      "note": 89,
      "start": 6.2895,
      "duration": 0.0077,
      "velocity": 97,
      "chip": "ym2612"
    },
    {
      "channel": 4,
      "note": 92,
      "start": 6.3,
      "duration": 0.0062,
      "velocity": 97,
      "chip": "ym2612"
    },
    {
      "channel": 2,
      "note": 84,
      "start": 6.3034,
      "duration": 0.0025,
      "velocity": 97,
      "chip": "ym2612"
    },
    {
      "channel": 1,
      "note": 68,
      "start": 6.3139,
      "duration": 0.02,
      "velocity": 100,
      "chip": "ym2612"
    },
    {
      "channel": 3,
      "note": 56,
      "start": 6.3163,
      "duration": 0.0178,
      "velocity": 88,
      "chip": "ym2612"
    },
    {
      "channel": 4,
      "note": 68,
      "start": 6.3191,
      "duration": 35.7159,
      "velocity": 100,
      "chip": "ym2612"
    },
    {
      "channel": 1,
      "note": 75,
      "start": 6.3368,
      "duration": 0.0152,
      "velocity": 100,
      "chip": "ym2612"
    },
    {
      "channel": 3,
      "note": 56,
      "start": 6.3373,
      "duration": 0.0148,
      "velocity": 88,
      "chip": "ym2612"
    },
    {
      "channel": 2,
      "note": 68,
      "start": 6.3486,
      "duration": 35.6864,
      "velocity": 100,
      "chip": "ym2612"
    }
  ]
}