{
  "track_name": "08 - Unknown Track 3",
  "duration_sec": 202.885,
  "sample_rate": 44100,
  "note_count": 2512,
  "unique_pitches": 54,
  "pitch_range": 66,
  "avg_note_duration": 0.2328,
  "reconstruction_stats": {
    "notes_reconstructed": 2512,
    "keyon_events": 2512,
    "keyoff_events": 2512,
    "orphan_keyons": 0,
    "unique_pitches": 54,
    "pitch_range": 66,
    "avg_duration_sec": 0.2328
  },
  "metadata": {
    "source": "F\\Fastest 1\\08 - Unknown Track 3.vgz"
  },
  "notes": [
    {
      "channel": 0,
      "note": 84,
      "start": 0.1092,
      "duration": 0.0165,
      "velocity": 105,
      "chip": "ym2612"
    },
    {
      "channel": 1,
      "note": 92,
      "start": 0.1103,
      "duration": 0.0163,
      "velocity": 99,
      "chip": "ym2612"
    },
    {
      "channel": 4,
      "note": 56,
      "start": 0.1112,
      "duration": 0.0163,
      "velocity": 99,
      "chip": "ym2612"
    },
    {
      "channel": 0,
      "note": 85,
      "start": 0.1429,
      "duration": 0.0165,
      "velocity": 105,
      "chip": "ym2612"
    },
    {
      "channel": 1,
      "note": 92,
      "start": 0.144,
      "duration": 0.0164,
      "velocity": 99,
      "chip": "ym2612"
    },
    {
      "channel": 4,
      "note": 56,
      "start": 0.1449,
      "duration": 0.0164,
      "velocity": 99,
      "chip": "ym2612"
    },
    {
      "channel": 0,
      "note": 87,
      "start": 0.1729,
      "duration": 0.1078,
      "velocity": 105,
      "chip": "ym2612"
    },
    {
      "channel": 1,
      "note": 94,
      "start": 0.1732,
      "duration": 0.1086,
      "velocity": 99,
      "chip": "ym2612"
    },
    {
      "channel": 2,
      "note": 82,
      "start": 0.1736,
      "duration": 0.1093,
      "velocity": 99,
      "chip": "ym2612"
    },
    {
      "channel": 3,
      "note": 82,
      "start": 0.1742,
      "duration": 0.3122,
      "velocity": 99,
      "chip": "ym2612"
    },
    {
      "channel": 4,
      "note": 58,
      "start": 0.1747,
      "duration": 0.2124,
      "velocity": 99,
      "chip": "ym2612"
    },
    {
      "channel": 0,
      "note": 85,
      "start": 0.2817,
      "duration": 0.0326,
      "velocity": 105,
      "chip": "ym2612"
    },
    {
      "channel": 1,
      "note": 94,
      "start": 0.2829,
      "duration": 0.0274,
      "velocity": 99,
      "chip": "ym2612"
    },
    {
      "channel": 2,
      "note": 85,
      "start": 0.2839,
      "duration": 0.0272,
      "velocity": 99,
      "chip": "ym2612"
    },
    {
      "channel": 0,
      "note": 84,
      "start": 0.3357,
      "duration": 0.0322,
      "velocity": 105,
      "chip": "ym2612"
    },
    {
      "channel": 1,
      "note": 96,
      "start": 0.3368,
      "duration": 0.0272,
      "velocity": 99,
      "chip": "ym2612"
    },
    {
      "channel": 2,
      "note": 87,
      "start": 0.3379,
      "duration": 0.0269,
      "velocity": 99,
      "chip": "ym2612"
    },
    {
      "channel": 0,
      "note": 85,
      "start": 0.384,
      "duration": 0.066,
      "velocity": 105,
      "chip": "ym2612"
    },
    {
      "channel": 1,
      "note": 97,
      "start": 0.3851,
      "duration": 0.0993,
      "velocity": 99,
      "chip": "ym2612"
    },
    {
      "channel": 2,
      "note": 89,
      "start": 0.3863,
      "duration": 0.2014,
      "velocity": 99,
      "chip": "ym2612"
    },
    {
      "channel": 4,
      "note": 58,
      "start": 0.3879,
      "duration": 0.0317,
      "velocity": 99,
      "chip": "ym2612"
    },
    {
      "channel": 4,
      "note": 60,
      "start": 0.4397,
      "duration": 0.0325,
      "velocity": 99,
      "chip": "ym2612"
    },
    {
      "channel": 0,
      "note": 82,
      "start": 0.4844,
      "duration": 0.5081,
      "velocity": 105,
      "chip": "ym2612"
    },
    {
      "channel": 1,
      "note": 99,
      "start": 0.4854,
      "duration": 0.0281,
      "velocity": 99,
      "chip": "ym2612"
    },
    {
      "channel": 3,
      "note": 87,
      "start": 0.4872,
      "duration": 0.0281,
      "velocity": 99,
      "chip": "ym2612"
    },
    {
      "channel": 4,
      "note": 61,
      "start": 0.4881,
      "duration": 0.1017,
      "velocity": 99,
      "chip": "ym2612"
    },
    {
      "channel": 1,
      "note": 101,
      "start": 0.5393,
      "duration": 0.0277,
      "velocity": 99,
      "chip": "ym2612"
    },
    {
      "channel": 3,
      "note": 89,
      "start": 0.541,
      "duration": 0.0278,
      "velocity": 99,
      "chip": "ym2612"
    },
    {
      "channel": 1,
      "note": 104,
      "start": 0.5876,
      "duration": 0.1965,
      "velocity": 99,
      "chip": "ym2612"
    },
    {
      "channel": 2,
      "note": 91,
      "start": 0.5888,
      "duration": 0.1488,
      "velocity": 99,
      "chip": "ym2612"
    },
    {
      "channel": 3,
      "note": 91,
      "start": 0.5896,
      "duration": 0.2492,
      "velocity": 99,
      "chip": "ym2612"
    },
    {
      "channel": 4,
      "note": 63,
      "start": 0.5906,
      "duration": 0.1964,
      "velocity": 99,
      "chip": "ym2612"
    },
    {
      "channel": 2,
      "note": 92,
      "start": 0.7386,
      "duration": 0.0271,
      "velocity": 99,
      "chip": "ym2612"
    },
    {
      "channel": 1,
      "note": 103,
      "start": 0.785,
      "duration": 0.4211,
      "velocity": 99,
      "chip": "ym2612"
    },
    {
      "channel": 2,
      "note": 94,
      "start": 0.7863,
      "duration": 0.0274,
      "velocity": 99,
      "chip": "ym2612"
    },
    {
      "channel": 4,
      "note": 61,
      "start": 0.7879,
      "duration": 0.3218,
      "velocity": 99,
      "chip": "ym2612"
    },
    {
      "channel": 2,
      "note": 92,
      "start": 0.8388,
      "duration": 0.0865,
      "velocity": 99,
      "chip": "ym2612"
    },
    {
      "channel": 3,
      "note": 92,
      "start": 0.8397,
      "duration": 0.0859,
      "velocity": 99,
      "chip": "ym2612"
    },
    {
      "channel": 0,
      "note": 80,
      "start": 0.9928,
      "duration": 0.0439,
      "velocity": 105,
      "chip": "ym2612"
    },
    {
      "channel": 2,
      "note": 91,
      "start": 0.9936,
      "duration": 0.0399,
      "velocity": 99,
      "chip": "ym2612"
    },
    {
      "channel": 3,
      "note": 91,
      "start": 0.9941,
      "duration": 0.0403,
      "velocity": 99,
      "chip": "ym2612"
    },
    {
      "channel": 0,
      "note": 79,
      "start": 1.0576,
      "duration": 0.0331,
      "velocity": 105,
      "chip": "ym2612"
    },
    {
      "channel": 2,
      "note": 87,
      "start": 1.0596,
      "duration": 0.0279,
      "velocity": 99,
      "chip": "ym2612"
    },
    {
      "channel": 3,
      "note": 87,
      "start": 1.0605,
      "duration": 0.0278,
      "velocity": 99,
      "chip": "ym2612"
    },
    {
      "channel": 0,
      "note": 82,
      "start": 1.1067,
      "duration": 0.0983,
      "velocity": 105,
      "chip": "ym2612"
    },
    {
      "channel": 2,
      "note": 84,
      "start": 1.1087,
      "duration": 0.1491,
      "velocity": 99,
      "chip": "ym2612"
    },
    {
      "channel": 3,
      "note": 87,
      "start": 1.1096,
      "duration": 0.2961,
      "velocity": 99,
      "chip": "ym2612"
    },
    {
      "channel": 4,
      "note": 60,
      "start": 1.1106,
      "duration": 0.1964,
      "velocity": 99,
      "chip": "ym2612"
    },
    {
      "channel": 0,
      "note": 79,
      "start": 1.206,
      "duration": 0.0972,
      "velocity": 105,
      "chip": "ym2612"
    },
    {
      "channel": 1,
      "note": 99,
      "start": 1.2071,
      "duration": 0.0971,
      "velocity": 99,
      "chip": "ym2612"
    },
    {
      "channel": 2,
      "note": 85,
      "start": 1.2589,
      "duration": 0.0273,
      "velocity": 99,
      "chip": "ym2612"
    },
    {
      "channel": 0,
      "note": 82,
      "start": 1.3041,
      "duration": 0.0987,
      "velocity": 105,
      "chip": "ym2612"
    },
    {
      "channel": 1,
      "note": 103,
      "start": 1.3051,
      "duration": 0.0987,
      "velocity": 99,
      "chip": "ym2612"
    },
    {
      "channel": 2,
      "note": 87,
      "start": 1.3063,
      "duration": 0.1974,
      "velocity": 99,
      "chip": "ym2612"
    },
    {
      "channel": 4,
      "note": 48,
      "start": 1.3079,
      "duration": 0.0322,
      "velocity": 99,
      "chip": "ym2612"
    },
    {
      "channel": 4,
      "note": 55,
      "start": 1.3596,
      "duration": 0.032,
      "velocity": 99,
      "chip": "ym2612"
    },
    {
      "channel": 0,
      "note": 80,
      "start": 1.4037,
      "duration": 0.1993,
      "velocity": 105,
      "chip": "ym2612"
    },
    {
      "channel": 1,
      "note": 101,
      "start": 1.4048,
      "duration": 0.2518,
      "velocity": 99,
      "chip": "ym2612"
    },
    {
      "channel": 3,
      "note": 89,
      "start": 1.4065,
      "duration": 0.0268,
      "velocity": 99,
      "chip": "ym2612"
    },
    {
      "channel": 4,
      "note": 53,
      "start": 1.4074,
      "duration": 0.1995,
      "velocity": 99,
      "chip": "ym2612"
    },
    {
      "channel": 3,
      "note": 91,
      "start": 1.458,
      "duration": 0.0278,
      "velocity": 99,
      "chip": "ym2612"
    },
    {
      "channel": 2,
      "note": 92,
      "start": 1.5048,
      "duration": 0.0275,
      "velocity": 99,
      "chip": "ym2612"
    },
    {
      "channel": 3,
      "note": 89,
      "start": 1.5057,
      "duration": 0.0275,
      "velocity": 99,
      "chip": "ym2612"
    },
    {
      "channel": 2,
      "note": 91,
      "start": 1.5575,
      "duration": 0.0274,
      "velocity": 99,
      "chip": "ym2612"
    },
    {
      "channel": 3,
      "note": 87,
      "start": 1.5584,
      "duration": 0.0274,
      "velocity": 99,
      "chip": "ym2612"
    },
    {
      "channel": 0,
      "note": 82,
      "start": 1.604,
      "duration": 0.0523,
      "velocity": 105,
      "chip": "ym2612"
    },
    {
      "channel": 2,
      "note": 89,
      "start": 1.606,
      "duration": 0.0275,
      "velocity": 99,
      "chip": "ym2612"
    },
    {
      "channel": 3,
      "note": 84,
      "start": 1.6069,
      "duration": 0.0274,
      "velocity": 99,
      "chip": "ym2612"
    },
    {
      "channel": 4,
      "note": 56,
      "start": 1.6078,
      "duration": 0.1126,
      "velocity": 99,
      "chip": "ym2612"
    },
    {
      "channel": 0,
      "note": 80,
      "start": 1.6566,
      "duration": 0.0597,
      "velocity": 105,
      "chip": "ym2612"
    },
    {
      "channel": 2,
      "note": 91,
      "start": 1.6573,
      "duration": 0.0403,
      "velocity": 99,
      "chip": "ym2612"
    },
    {
      "channel": 3,
      "note": 87,
      "start": 1.6578,
      "duration": 0.0407,
      "velocity": 99,
      "chip": "ym2612"
    },
    {
      "channel": 0,
      "note": 79,
      "start": 1.7172,
      "duration": 0.0328,
      "velocity": 105,
      "chip": "ym2612"
    },
    {
      "channel": 1,
      "note": 101,
      "start": 1.7182,
      "duration": 0.0818,
      "velocity": 99,
      "chip": "ym2612"
    },
    {
      "channel": 2,
      "note": 92,
      "start": 1.7193,
      "duration": 0.0274,
      "velocity": 99,
      "chip": "ym2612"
    },
    {
      "channel": 3,
      "note": 89,
      "start": 1.7203,
      "duration": 0.0273,
      "velocity": 99,
      "chip": "ym2612"
    },
    {
      "channel": 4,
      "note": 55,
      "start": 1.7211,
      "duration": 0.1,
      "velocity": 99,
      "chip": "ym2612"
    },
    {
      "channel": 0,
      "note": 80,
      "start": 1.7712,
      "duration": 0.033,
      "velocity": 105,
      "chip": "ym2612"
    },
    {
      "channel": 2,
      "note": 91,
      "start": 1.7731,
      "duration": 0.0278,
      "velocity": 99,
      "chip": "ym2612"
    },
    {
      "channel": 3,
      "note": 87,
      "start": 1.7741,
      "duration": 0.0278,
      "velocity": 99,
      "chip": "ym2612"
    },
    {
      "channel": 0,
      "note": 82,
      "start": 1.8196,
      "duration": 0.0778,
      "velocity": 105,
      "chip": "ym2612"
    },
    {
      "channel": 1,
      "note": 103,
      "start": 1.82,
      "duration": 0.0632,
      "velocity": 99,
      "chip": "ym2612"
    },
    {
      "channel": 2,
      "note": 89,
      "start": 1.8205,
      "duration": 0.039,
      "velocity": 99,
      "chip": "ym2612"
    },
    {
      "channel": 3,
      "note": 84,
      "start": 1.821,
      "duration": 0.0393,
      "velocity": 99,
      "chip": "ym2612"
    },
    {
      "channel": 4,
      "note": 51,
      "start": 1.8215,
      "duration": 0.1151,
      "velocity": 99,
      "chip": "ym2612"
    },
    {
      "channel": 2,
      "note": 84,
      "start": 1.8851,
      "duration": 0.029,
      "velocity": 99,
      "chip": "ym2612"
    },
    {
      "channel": 3,
      "note": 80,
      "start": 1.886,
      "duration": 0.029,
      "velocity": 99,
      "chip": "ym2612"
    },
    {
      "channel": 0,
      "note": 84,
      "start": 1.9335,
      "duration": 0.3927,
      "velocity": 105,
      "chip": "ym2612"
    },
    {
      "channel": 1,
      "note": 104,
      "start": 1.9345,
      "duration": 0.3928,
      "velocity": 99,
      "chip": "ym2612"
    },
    {
      "channel": 2,
      "note": 89,
      "start": 1.9356,
      "duration": 0.6973,
      "velocity": 99,
      "chip": "ym2612"
    },
    {
      "channel": 3,
      "note": 85,
      "start": 1.9366,
      "duration": 0.6968,
      "velocity": 99,
      "chip": "ym2612"
    },
    {
      "channel": 4,
      "note": 61,
      "start": 1.9375,
      "duration": 0.2935,
      "velocity": 99,
      "chip": "ym2612"
    },
    {
      "channel": 4,
      "note": 61,
      "start": 2.2317,
      "duration": 0.0318,
      "velocity": 99,
      "chip": "ym2612"
    },
    {
      "channel": 4,
      "note": 60,
      "start": 2.2831,
      "duration": 0.0318,
      "velocity": 99,
      "chip": "ym2612"
    },
    {
      "channel": 0,
      "note": 85,
      "start": 2.3272,
      "duration": 1.0059,
      "velocity": 105,
      "chip": "ym2612"
    },
    {
      "channel": 1,
      "note": 104,
      "start": 2.3281,
      "duration": 1.0053,
      "velocity": 99,
      "chip": "ym2612"
    },
    {
      "channel": 4,
      "note": 58,
      "start": 2.3305,
      "duration": 0.6527,
      "velocity": 99,
      "chip": "ym2612"
    },
    {
      "channel": 2,
      "note": 88,
      "start": 2.6333,
      "duration": 0.7006,
      "velocity": 99,
      "chip": "ym2612"
    },
    {
      "channel": 3,
      "note": 85,
      "start": 2.6338,
      "duration": 0.7015,
      "velocity": 99,
      "chip": "ym2612"
    },
    {
      "channel": 4,
      "note": 56,
      "start": 2.9837,
      "duration": 0.299,
      "velocity": 99,
      "chip": "ym2612"
    },
    {
      "channel": 0,
      "note": 87,
      "start": 3.3334,
      "duration": 0.5331,
      "velocity": 105,
      "chip": "ym2612"
    },
    {
      "channel": 1,
      "note": 92,
      "start": 3.3338,
      "duration": 0.5331,
      "velocity": 99,
      "chip": "ym2612"
    },
    {
      "channel": 2,
      "note": 64,
      "start": 3.3352,
      "duration": 0.1807,
      "velocity": 101,
      "chip": "ym2612"
    },
    {
      "channel": 4,
      "note": 66,
      "start": 3.3362,
      "duration": 0.5319,
      "velocity": 99,
      "chip": "ym2612"
    },
    {
      "channel": 5,
      "note": 87,
      "start": 3.3693,
      "duration": 0.4994,
      "velocity": 105,
      "chip": "ym2612"
    },
    {
      "channel": 3,
      "note": 64,
      "start": 3.385,
      "duration": 0.1313,
      "velocity": 101,
      "chip": "ym2612"
    },
    {
      "channel": 2,
      "note": 68,
      "start": 3.5162,
      "duration": 0.1663,
      "velocity": 101,
      "chip": "ym2612"
    },
    {
      "channel": 3,
      "note": 68,
      "start": 3.5665,
      "duration": 0.1164,
      "velocity": 101,
      "chip": "ym2612"
    },
    {
      "channel": 2,
      "note": 73,
      "start": 3.6829,
      "duration": 0.1844,
      "velocity": 101,
      "chip": "ym2612"
    },
    {
      "channel": 3,
      "note": 73,
      "start": 3.7333,
      "duration": 0.1344,
      "velocity": 101,
      "chip": "ym2612"
    },
    {
      "channel": 0,
      "note": 85,
      "start": 3.8668,
      "duration": 0.1577,
      "velocity": 105,
      "chip": "ym2612"
    },
    {
      "channel": 1,
      "note": 92,
      "start": 3.8672,
      "duration": 0.1583,
      "velocity": 99,
      "chip": "ym2612"
    },
    {
      "channel": 2,
      "note": 66,
      "start": 3.8676,
      "duration": 0.0587,
      "velocity": 101,
      "chip": "ym2612"
    },
    {
      "channel": 4,
      "note": 59,
      "start": 3.8686,
      "duration": 0.1601,
      "velocity": 99,
      "chip": "ym2612"
    },
    {
      "channel": 3,
      "note": 66,
      "start": 3.895,
      "duration": 0.0325,
      "velocity": 101,
      "chip": "ym2612"
    },
    {
      "channel": 2,
      "note": 69,
      "start": 3.9274,
      "duration": 0.0511,
      "velocity": 101,
      "chip": "ym2612"
    },
    {
      "channel": 3,
      "note": 69,
      "start": 3.9426,
      "duration": 0.037,
      "velocity": 101,
      "chip": "ym2612"
    },
    {
      "channel": 2,
      "note": 76,
      "start": 3.9795,
      "duration": 0.0472,
      "velocity": 101,
      "chip": "ym2612"
    },
    {
      "channel": 3,
      "note": 76,
      "start": 3.9947,
      "duration": 0.0331,
      "velocity": 101,
      "chip": "ym2612"
    },
    {
      "channel": 0,
      "note": 83,
      "start": 4.0255,
      "duration": 0.0999,
      "velocity": 105,
      "chip": "ym2612"
    },
    {
      "channel": 1,
      "note": 100,
      "start": 4.0265,
      "duration": 0.1,
      "velocity": 99,
      "chip": "ym2612"
    },
    {
      "channel": 2,
      "note": 64,
      "start": 4.0277,
      "duration": 0.0515,
      "velocity": 101,
      "chip": "ym2612"
    },
    {
      "channel": 4,
      "note": 62,
      "start": 4.0295,
      "duration": 0.1,
      "velocity": 99,
      "chip": "ym2612"
    },
    {
      "channel": 3,
      "note": 64,
      "start": 4.0431,
      "duration": 0.0373,
      "velocity": 101,
      "chip": "ym2612"
    },
    {
      "channel": 2,
      "note": 68,
      "start": 4.0802,
      "duration": 0.0473,
      "velocity": 101,
      "chip": "ym2612"
    },
    {
      "channel": 3,
      "note": 68,
      "start": 4.0955,
      "duration": 0.0333,
      "velocity": 101,
      "chip": "ym2612"
    },
    {
      "channel": 0,
      "note": 82,
      "start": 4.1264,
      "duration": 0.0522,
      "velocity": 105,
      "chip": "ym2612"
    },
    {
      "channel": 1,
      "note": 101,
      "start": 4.1274,
      "duration": 0.1063,
      "velocity": 99,
      "chip": "ym2612"
    },
    {
      "channel": 2,
      "note": 63,
      "start": 4.1286,
      "duration": 0.0517,
      "velocity": 101,
      "chip": "ym2612"
    },
    {
      "channel": 4,
      "note": 63,
      "start": 4.1303,
      "duration": 0.1064,
      "velocity": 99,
      "chip": "ym2612"
    },
    {
      "channel": 3,
      "note": 63,
      "start": 4.144,
      "duration": 0.0404,
      "velocity": 101,
      "chip": "ym2612"
    },
    {
      "channel": 2,
      "note": 75,
      "start": 4.1843,
      "duration": 0.035,
      "velocity": 99,
      "chip": "ym2612"
    },
    {
      "channel": 3,
      "note": 67,
      "start": 4.1878,
      "duration": 0.0325,
      "velocity": 99,
      "chip": "ym2612"
    },
    {
      "channel": 2,
      "note": 77,
      "start": 4.2357,
      "duration": 0.0346,
      "velocity": 99,
      "chip": "ym2612"
    },
    {
      "channel": 3,
      "note": 68,
      "start": 4.2366,
      "duration": 0.0346,
      "velocity": 99,
      "chip": "ym2612"
    },
    {
      "channel": 2,
      "note": 79,
      "start": 4.2924,
      "duration": 0.0349,
      "velocity": 99,
      "chip": "ym2612"
    },
    {
      "channel": 3,
      "note": 70,
      "start": 4.2933,
      "duration": 0.0349,
      "velocity": 99,
      "chip": "ym2612"
    },
    {
      "channel": 2,
      "note": 80,
      "start": 4.3443,
      "duration": 0.0347,
      "velocity": 99,
      "chip": "ym2612"
    },
    {
      "channel": 3,
      "note": 72,
      "start": 4.3452,
      "duration": 0.0347,
      "velocity": 99,
      "chip": "ym2612"
    },
    {
      "channel": 2,
      "note": 79,
      "start": 4.401,
      "duration": 0.0342,
      "velocity": 99,
      "chip": "ym2612"
    },
    {
      "channel": 3,
      "note": 70,
      "start": 4.4019,
      "duration": 0.0342,
      "velocity": 99,
      "chip": "ym2612"
    },
    {
      "channel": 0,
      "note": 84,
      "start": 4.45,
      "duration": 0.0332,
      "velocity": 105,
      "chip": "ym2612"
    },
    {
      "channel": 1,
      "note": 92,
      "start": 4.451,
      "duration": 0.0281,
      "velocity": 99,
      "chip": "ym2612"
    },
    {
      "channel": 2,
      "note": 80,
      "start": 4.4522,
      "duration": 0.0329,
      "velocity": 99,
      "chip": "ym2612"
    },
    {
      "channel": 3,
      "note": 72,
      "start": 4.453,
      "duration": 0.0329,
      "velocity": 99,
      "chip": "ym2612"
    },
    {
      "channel": 4,
      "note": 56,
      "start": 4.454,
      "duration": 0.0328,
      "velocity": 99,
      "chip": "ym2612"
    },
    {
      "channel": 0,
      "note": 85,
      "start": 4.5052,
      "duration": 0.0331,
      "velocity": 105,
      "chip": "ym2612"
    },
    {
      "channel": 1,
      "note": 92,
      "start": 4.5063,
      "duration": 0.0279,
      "velocity": 99,
      "chip": "ym2612"
    },
    {
      "channel": 2,
      "note": 82,
      "start": 4.5074,
      "duration": 0.0327,
      "velocity": 99,
      "chip": "ym2612"
    },
    {
      "channel": 3,
      "note": 73,
      "start": 4.5083,
      "duration": 0.0327,
      "velocity": 99,
      "chip": "ym2612"
    },
    {
      "channel": 4,
      "note": 56,
      "start": 4.5093,
      "duration": 0.0326,
      "velocity": 99,
      "chip": "ym2612"
    },
    {
      "channel": 0,
      "note": 87,
      "start": 4.5552,
      "duration": 0.327,
      "velocity": 105,
      "chip": "ym2612"
    },
    {
      "channel": 1,
      "note": 94,
      "start": 4.5563,
      "duration": 0.3263,
      "velocity": 99,
      "chip": "ym2612"
    },
    {
      "channel": 2,
      "note": 82,
      "start": 4.5574,
      "duration": 0.3255,
      "velocity": 99,
      "chip": "ym2612"
    },
    {
      "channel": 3,
      "note": 82,
      "start": 4.5584,
      "duration": 1.0252,
      "velocity": 99,
      "chip": "ym2612"
    },
    {
      "channel": 4,
      "note": 58,
      "start": 4.5593,
      "duration": 0.6749,
      "velocity": 99,
      "chip": "ym2612"
    },
    {
      "channel": 0,
      "note": 85,
      "start": 4.8825,
      "duration": 0.1153,
      "velocity": 105,
      "chip": "ym2612"
    },
    {
      "channel": 1,
      "note": 94,
      "start": 4.8829,
      "duration": 0.0986,
      "velocity": 99,
      "chip": "ym2612"
    },
    {
      "channel": 2,
      "note": 85,
      "start": 4.8833,
      "duration": 0.0985,
      "velocity": 99,
      "chip": "ym2612"
    },
    {
      "channel": 0,
      "note": 84,
      "start": 5.0659,
      "duration": 0.1152,
      "velocity": 105,
      "chip": "ym2612"
    },
    {
      "channel": 1,
      "note": 96,
      "start": 5.0662,
      "duration": 0.0986,
      "velocity": 99,
      "chip": "ym2612"
    },
    {
      "channel": 2,
      "note": 87,
      "start": 5.0666,
      "duration": 0.0985,
      "velocity": 99,
      "chip": "ym2612"
    },
    {
      "channel": 0,
      "note": 85,
      "start": 5.2329,
      "duration": 0.2314,
      "velocity": 105,
      "chip": "ym2612"
    },
    {
      "channel": 1,
      "note": 97,
      "start": 5.2333,
      "duration": 0.3496,
      "velocity": 99,
      "chip": "ym2612"
    },
    {
      "channel": 2,
      "note": 89,
      "start": 5.2337,
      "duration": 0.6998,
      "velocity": 99,
      "chip": "ym2612"
    },
    {
      "channel": 4,
      "note": 58,
      "start": 5.2346,
      "duration": 0.1143,
      "velocity": 99,
      "chip": "ym2612"
    },
    {
      "channel": 4,
      "note": 60,
      "start": 5.4166,
      "duration": 0.1157,
      "velocity": 99,
      "chip": "ym2612"
    },
    {
      "channel": 0,
      "note": 82,
      "start": 5.5828,
      "duration": 1.3997,
      "velocity": 105,
      "chip": "ym2612"
    },
    {
      "channel": 1,
      "note": 99,
      "start": 5.5832,
      "duration": 0.0985,
      "velocity": 99,
      "chip": "ym2612"
    },
    {
      "channel": 3,
      "note": 87,
      "start": 5.5841,
      "duration": 0.0983,
      "velocity": 99,
      "chip": "ym2612"
    },
    {
      "channel": 4,
      "note": 61,
      "start": 5.5846,
      "duration": 0.3499,
      "velocity": 99,
      "chip": "ym2612"
    },
    {
      "channel": 5,
      "note": 82,
      "start": 5.6338,
      "duration": 1.3508,
      "velocity": 105,
      "chip": "ym2612"
    },
    {
      "channel": 1,
      "note": 101,
      "start": 5.766,
      "duration": 0.099,
      "velocity": 99,
      "chip": "ym2612"
    },
    {
      "channel": 3,
      "note": 89,
      "start": 5.7669,
      "duration": 0.0988,
      "velocity": 99,
      "chip": "ym2612"
    },
    {
      "channel": 1,
      "note": 104,
      "start": 5.9334,
      "duration": 0.6993,
      "velocity": 99,
      "chip": "ym2612"
    },
    {
      "channel": 2,
      "note": 91,
      "start": 5.9338,
      "duration": 0.5318,
      "velocity": 99,
      "chip": "ym2612"
    },
    {
      "channel": 3,
      "note": 91,
      "start": 5.9344,
      "duration": 0.8821,
      "velocity": 99,
      "chip": "ym2612"
    },
    {
      "channel": 4,
      "note": 63,
      "start": 5.9349,
      "duration": 0.699,
      "velocity": 99,
      "chip": "ym2612"
    },
    {
      "channel": 2,
      "note": 92,
      "start": 6.4661,
      "duration": 0.0992,
      "velocity": 99,
      "chip": "ym2612"
    },
    {
      "channel": 1,
      "note": 103,
      "start": 6.633,
      "duration": 1.0495,
      "velocity": 99,
      "chip": "ym2612"
    },
    {
      "channel": 2,
      "note": 94,
      "start": 6.6334,
      "duration": 0.0985,
      "velocity": 99,
      "chip": "ym2612"
    },
    {
      "channel": 4,
      "note": 61,
      "start": 6.6344,
      "duration": 0.7001,
      "velocity": 99,
      "chip": "ym2612"
    },
    {
      "channel": 2,
      "note": 92,
      "start": 6.8164,
      "duration": 0.099,
      "velocity": 99,
      "chip": "ym2612"
    },
    {
      "channel": 3,
      "note": 92,
      "start": 6.817,
      "duration": 0.0987,
      "velocity": 99,
      "chip": "ym2612"
    },
    {
      "channel": 0,
      "note": 80,
      "start": 6.9828,
      "duration": 0.1152,
      "velocity": 105,
      "chip": "ym2612"
    },
    {
      "channel": 2,
      "note": 91,
      "start": 6.9835,
      "duration": 0.0986,
      "velocity": 99,
      "chip": "ym2612"
    },
    {
      "channel": 3,
      "note": 91,
      "start": 6.9841,
      "duration": 0.0984,
      "velocity": 99,
      "chip": "ym2612"
    },
    {
      "channel": 5,
      "note": 80,
      "start": 7.0171,
      "duration": 0.0326,
      "velocity": 105,
      "chip": "ym2612"
    },
    {
      "channel": 0,
      "note": 79,
      "start": 7.1662,
      "duration": 0.1151,
      "velocity": 105,
      "chip": "ym2612"
    },
    {
      "channel": 2,
      "note": 87,
      "start": 7.1669,
      "duration": 0.0985,
      "velocity": 99,
      "chip": "ym2612"
    },
    {
      "channel": 3,
      "note": 87,
      "start": 7.1675,
      "duration": 0.0983,
      "velocity": 99,
      "chip": "ym2612"
    },
    {
      "channel": 5,
      "note": 79,
      "start": 7.2004,
      "duration": 0.0326,
      "velocity": 105,
      "chip": "ym2612"
    },
    {
      "channel": 0,
      "note": 82,
      "start": 7.3332,
      "duration": 0.349,
      "velocity": 105,
      "chip": "ym2612"
    },
    {
      "channel": 2,
      "note": 84,
      "start": 7.3339,
      "duration": 0.5318,
      "velocity": 99,
      "chip": "ym2612"
    },
    {
      "channel": 3,
      "note": 87,
      "start": 7.3345,
      "duration": 1.0494,
      "velocity": 99,
      "chip": "ym2612"
    },
    {
      "channel": 4,
      "note": 60,
      "start": 7.335,
      "duration": 0.6995,
      "velocity": 99,
      "chip": "ym2612"
    },
    {
      "channel": 5,
      "note": 82,
      "start": 7.3838,
      "duration": 0.3002,
      "velocity": 105,
      "chip": "ym2612"
    },
    {
      "channel": 0,
      "note": 84,
      "start": 7.6825,
      "duration": 0.3504,
      "velocity": 105,
      "chip": "ym2612"
    },
    {
      "channel": 1,
      "note": 99,
      "start": 7.6828,
      "duration": 0.3504,
      "velocity": 99,
      "chip": "ym2612"
    },
    {
      "channel": 5,
      "note": 84,
      "start": 7.7338,
      "duration": 0.3012,
      "velocity": 105,
      "chip": "ym2612"
    },
    {
      "channel": 2,
      "note": 85,
      "start": 7.8661,
      "duration": 0.0992,
      "velocity": 99,
      "chip": "ym2612"
    },
    {
      "channel": 0,
      "note": 85,
      "start": 8.0332,
      "duration": 0.3496,
      "velocity": 105,
      "chip": "ym2612"
    },
    {
      "channel": 1,
      "note": 103,
      "start": 8.0335,
      "duration": 0.3497,
      "velocity": 99,
      "chip": "ym2612"
    },
    {
      "channel": 2,
      "note": 87,
      "start": 8.0339,
      "duration": 0.6987,
      "velocity": 99,
      "chip": "ym2612"
    },
    {
      "channel": 4,
      "note": 48,
      "start": 8.0349,
      "duration": 0.3496,
      "velocity": 99,
      "chip": "ym2612"
    },
    {
      "channel": 5,
      "note": 85,
      "start": 8.0838,
      "duration": 0.3012,
      "velocity": 105,
      "chip": "ym2612"
    },
    {
      "channel": 0,
      "note": 87,
      "start": 8.3831,
      "duration": 1.0501,
      "velocity": 105,
      "chip": "ym2612"
    },
    {
      "channel": 1,
      "note": 101,
      "start": 8.3835,
      "duration": 1.0501,
      "velocity": 99,
      "chip": "ym2612"
    },
    {
      "channel": 3,
      "note": 89,
      "start": 8.3844,
      "duration": 0.098,
      "velocity": 99,
      "chip": "ym2612"
    },
    {
      "channel": 4,
      "note": 53,
      "start": 8.3849,
      "duration": 1.05,
      "velocity": 99,
      "chip": "ym2612"
    },
    {
      "channel": 5,
      "note": 87,
      "start": 8.4338,
      "duration": 1.0017,
      "velocity": 105,
      "chip": "ym2612"
    },
    {
      "channel": 3,
      "note": 91,
      "start": 8.5665,
      "duration": 0.0992,
      "velocity": 99,
      "chip": "ym2612"
    },
    {
      "channel": 2,
      "note": 90,
      "start": 8.7331,
      "duration": 0.099,
      "velocity": 99,
      "chip": "ym2612"
    },
    {
      "channel": 3,
      "note": 87,
      "start": 8.7336,
      "duration": 0.0988,
      "velocity": 99,
      "chip": "ym2612"
    },
    {
      "channel": 2,
      "note": 89,
      "start": 8.9164,
      "duration": 0.099,
      "velocity": 99,
      "chip": "ym2612"
    },
    {
      "channel": 3,
      "note": 84,
      "start": 8.917,
      "duration": 0.0987,
      "velocity": 99,
      "chip": "ym2612"
    },
    {
      "channel": 2,
      "note": 87,
      "start": 9.083,
      "duration": 0.099,
      "velocity": 99,
      "chip": "ym2612"
    },
    {
      "channel": 3,
      "note": 81,
      "start": 9.0836,
      "duration": 0.0988,
      "velocity": 99,
      "chip": "ym2612"
    },
    {
      "channel": 2,
      "note": 89,
      "start": 9.2665,
      "duration": 0.0989,
      "velocity": 99,
      "chip": "ym2612"
    },
    {
      "channel": 3,
      "note": 84,
      "start": 9.267,
      "duration": 0.0988,
      "velocity": 99,
      "chip": "ym2612"
    },
    {
      "channel": 0,
      "note": 90,
      "start": 9.4335,
      "duration": 0.1146,
      "velocity": 105,
      "chip": "ym2612"
    },
    {
      "channel": 1,
      "note": 102,
      "start": 9.4339,
      "duration": 0.098,
      "velocity": 99,
      "chip": "ym2612"
    },
    {
      "channel": 2,
      "note": 90,
      "start": 9.4343,
      "duration": 0.0979,
      "velocity": 99,
      "chip": "ym2612"
    },
    {
      "channel": 3,
      "note": 87,
      "start": 9.4349,
      "duration": 0.0977,
      "velocity": 99,
      "chip": "ym2612"
    },
    {
      "channel": 4,
      "note": 57,
      "start": 9.4354,
      "duration": 0.6994,
      "velocity": 99,
      "chip": "ym2612"
    },
    {
      "channel": 5,
      "note": 90,
      "start": 9.4671,
      "duration": 0.0326,
      "velocity": 105,
      "chip": "ym2612"
    },
    {
      "channel": 0,
      "note": 89,
      "start": 9.6165,
      "duration": 0.1149,
      "velocity": 105,
      "chip": "ym2612"
    },
    {
      "channel": 1,
      "note": 101,
      "start": 9.6168,
      "duration": 0.0983,
      "velocity": 99,
      "chip": "ym2612"
    },
    {
      "channel": 2,
      "note": 89,
      "start": 9.6173,
      "duration": 0.0982,
      "velocity": 99,
      "chip": "ym2612"
    },
    {
      "channel": 3,
      "note": 84,
      "start": 9.6179,
      "duration": 0.098,
      "velocity": 99,
      "chip": "ym2612"
    },
    {
      "channel": 5,
      "note": 89,
      "start": 9.6504,
      "duration": 0.0326,
      "velocity": 105,
      "chip": "ym2612"
    },
    {
      "channel": 0,
      "note": 87,
      "start": 9.7833,
      "duration": 0.3499,
      "velocity": 105,
      "chip": "ym2612"
    },
    {
      "channel": 1,
      "note": 99,
      "start": 9.7836,
      "duration": 0.0982,
      "velocity": 99,
      "chip": "ym2612"
    },
    {
      "channel": 2,
      "note": 87,
      "start": 9.7841,
      "duration": 0.0982,
      "velocity": 99,
      "chip": "ym2612"
    },
    {
      "channel": 3,
      "note": 81,
      "start": 9.7846,
      "duration": 0.0979,
      "velocity": 99,
      "chip": "ym2612"
    },
    {
      "channel": 5,
      "note": 87,
      "start": 9.8339,
      "duration": 0.3015,
      "velocity": 105,
      "chip": "ym2612"
    },
    {
      "channel": 1,
      "note": 96,
      "start": 9.9666,
      "duration": 0.0986,
      "velocity": 99,
      "chip": "ym2612"
    },
    {
      "channel": 2,
      "note": 84,
      "start": 9.967,
      "duration": 0.0985,
      "velocity": 99,
      "chip": "ym2612"
    },
    {
      "channel": 3,
      "note": 81,
      "start": 9.9676,
      "duration": 0.0983,
      "velocity": 99,
      "chip": "ym2612"
    },
    {
      "channel": 0,
      "note": 87,
      "start": 10.1334,
      "duration": 0.3488,
      "velocity": 105,
      "chip": "ym2612"
    },
    {
      "channel": 1,
      "note": 97,
      "start": 10.1339,
      "duration": 1.0491,
      "velocity": 99,
      "chip": "ym2612"
    },
    {
      "channel": 2,
      "note": 85,
      "start": 10.1343,
      "duration": 0.0977,
      "velocity": 99,
      "chip": "ym2612"
    },
    {
      "channel": 3,
      "note": 85,
      "start": 10.1349,
      "duration": 0.0974,
      "velocity": 99,
      "chip": "ym2612"
    },
    {
      "channel": 4,
      "note": 58,
      "start": 10.1354,
      "duration": 1.399,
      "velocity": 99,
      "chip": "ym2612"
    },
    {
      "channel": 5,
      "note": 87,
      "start": 10.1838,
      "duration": 0.3004,
      "velocity": 105,
      "chip": "ym2612"
    },
    {
      "channel": 2,
      "note": 89,
      "start": 10.3162,
      "duration": 0.3497,
      "velocity": 99,
      "chip": "ym2612"
    },
    {
      "channel": 3,
      "note": 85,
      "start": 10.3167,
      "duration": 0.0988,
      "velocity": 99,
      "chip": "ym2612"
    },
    {
      "channel": 0,
      "note": 89,
      "start": 10.4826,
      "duration": 0.1153,
      "velocity": 105,
      "chip": "ym2612"
    },
    {
      "channel": 3,
      "note": 89,
      "start": 10.4838,
      "duration": 0.3491,
      "velocity": 99,
      "chip": "ym2612"
    },
    {
      "channel": 5,
      "note": 89,
      "start": 10.5171,
      "duration": 0.1501,
      "velocity": 105,
      "chip": "ym2612"
    },
    {
      "channel": 0,
      "note": 80,
      "start": 10.6656,
      "duration": 0.517,
      "velocity": 105,
      "chip": "ym2612"
    },
    {
      "channel": 2,
      "note": 85,
      "start": 10.6663,
      "duration": 0.0989,
      "velocity": 99,
      "chip": "ym2612"
    },
    {
      "channel": 5,
      "note": 80,
      "start": 10.7004,
      "duration": 0.4843,
      "velocity": 105,
      "chip": "ym2612"
    },
    {
      "channel": 2,
      "note": 89,
      "start": 10.8328,
      "duration": 0.0991,
      "velocity": 99,
      "chip": "ym2612"
    },
    {
      "channel": 3,
      "note": 85,
      "start": 10.8334,
      "duration": 0.0989,
      "velocity": 99,
      "chip": "ym2612"
    },
    {
      "channel": 2,
      "note": 85,
      "start": 11.0162,
      "duration": 0.099,
      "velocity": 99,
      "chip": "ym2612"
    },
    {
      "channel": 3,
      "note": 89,
      "start": 11.0167,
      "duration": 0.0989,
      "velocity": 99,
      "chip": "ym2612"
    },
    {
      "channel": 0,
      "note": 85,
      "start": 11.183,
      "duration": 0.3497,
      "velocity": 105,
      "chip": "ym2612"
    },
    {
      "channel": 1,
      "note": 97,
      "start": 11.1833,
      "duration": 0.1825,
      "velocity": 99,
      "chip": "ym2612"
    },
    {
      "channel": 2,
      "note": 89,
      "start": 11.1837,
      "duration": 0.0982,
      "velocity": 99,
      "chip": "ym2612"
    },
    {
      "channel": 3,
      "note": 85,
      "start": 11.1843,
      "duration": 0.098,
      "velocity": 99,
      "chip": "ym2612"
    },
    {
      "channel": 5,
      "note": 85,
      "start": 11.2338,
      "duration": 0.301,
      "velocity": 105,
      "chip": "ym2612"
    },
    {
      "channel": 1,
      "note": 100,
      "start": 11.3662,
      "duration": 1.2169,
      "velocity": 99,
      "chip": "ym2612"
    },
    {
      "channel": 2,
      "note": 85,
      "start": 11.3666,
      "duration": 0.0986,
      "velocity": 99,
      "chip": "ym2612"
    },
    {
      "channel": 3,
      "note": 89,
      "start": 11.3672,
      "duration": 0.0984,
      "velocity": 99,
      "chip": "ym2612"
    },
    {
      "channel": 0,
      "note": 84,
      "start": 11.5331,
      "duration": 0.3489,
      "velocity": 105,
      "chip": "ym2612"
    },
    {
      "channel": 2,
      "note": 85,
      "start": 11.5338,
      "duration": 0.0982,
      "velocity": 99,
      "chip": "ym2612"
    },
    {
      "channel": 3,
      "note": 85,
      "start": 11.5343,
      "duration": 0.098,
      "velocity": 99,
      "chip": "ym2612"
    },
    {
      "channel": 4,
      "note": 63,
      "start": 11.5348,
      "duration": 1.4029,
      "velocity": 99,
      "chip": "ym2612"
    },
    {
      "channel": 5,
      "note": 84,
      "start": 11.5838,
      "duration": 0.3,
      "velocity": 105,
      "chip": "ym2612"
    },
    {
      "channel": 2,
      "note": 88,
      "start": 11.7162,
      "duration": 0.3493,
      "velocity": 99,
      "chip": "ym2612"
    },
    {
      "channel": 3,
      "note": 85,
      "start": 11.7167,
      "duration": 0.0988,
      "velocity": 99,
      "chip": "ym2612"
    },
    {
      "channel": 0,
      "note": 82,
      "start": 11.8823,
      "duration": 0.35,
      "velocity": 105,
      "chip": "ym2612"
    },
    {
      "channel": 3,
      "note": 88,
      "start": 11.8834,
      "duration": 0.35,
      "velocity": 99,
      "chip": "ym2612"
    },
    {
      "channel": 5,
      "note": 82,
      "start": 11.9338,
      "duration": 0.3006,
      "velocity": 105,
      "chip": "ym2612"
    },
    {
      "channel": 2,
      "note": 85,
      "start": 12.0658,
      "duration": 0.0994,
      "velocity": 99,
      "chip": "ym2612"
    },
    {
      "channel": 0,
      "note": 80,
      "start": 12.2326,
      "duration": 0.3501,
      "velocity": 105,
      "chip": "ym2612"
    },
    {
      "channel": 2,
      "note": 88,
      "start": 12.2333,
      "duration": 0.0986,
      "velocity": 99,
      "chip": "ym2612"
    },
    {
      "channel": 3,
      "note": 85,
      "start": 12.2338,
      "duration": 0.0984,
      "velocity": 99,
      "chip": "ym2612"
    },
    {
      "channel": 5,
      "note": 80,
      "start": 12.2838,
      "duration": 0.301,
      "velocity": 105,
      "chip": "ym2612"
    },
    {
      "channel": 2,
      "note": 85,
      "start": 12.4162,
      "duration": 0.099,
      "velocity": 99,
      "chip": "ym2612"
    },
    {
      "channel": 3,
      "note": 88,
      "start": 12.4167,
      "duration": 0.0989,
      "velocity": 99,
      "chip": "ym2612"
    },
    {
      "channel": 0,
      "note": 79,
      "start": 12.5831,
      "duration": 0.3505,
      "velocity": 105,
      "chip": "ym2612"
    },
    {
      "channel": 1,
      "note": 100,
      "start": 12.5834,
      "duration": 0.1826,
      "velocity": 99,
      "chip": "ym2612"
    },
    {
      "channel": 2,
      "note": 88,
      "start": 12.5838,
      "duration": 0.0981,
      "velocity": 99,
      "chip": "ym2612"
    },
    {
      "channel": 3,
      "note": 85,
      "start": 12.5844,
      "duration": 0.0979,
      "velocity": 99,
      "chip": "ym2612"
    },
    {
      "channel": 5,
      "note": 79,
      "start": 12.6339,
      "duration": 0.3072,
      "velocity": 105,
      "chip": "ym2612"
    },
    {
      "channel": 1,
      "note": 104,
      "start": 12.7665,
      "duration": 0.7598,
      "velocity": 99,
      "chip": "ym2612"
    },
    {
      "channel": 2,
      "note": 85,
      "start": 12.7668,
      "duration": 0.0984,
      "velocity": 99,
      "chip": "ym2612"
    },
    {
      "channel": 3,
      "note": 88,
      "start": 12.7674,
      "duration": 0.0982,
      "velocity": 99,
      "chip": "ym2612"
    },
    {
      "channel": 0,
      "note": 80,
      "start": 12.9346,
      "duration": 0.5877,
      "velocity": 105,
      "chip": "ym2612"
    },
    {
      "channel": 2,
      "note": 88,
      "start": 12.9366,
      "duration": 0.2583,
      "velocity": 99,
      "chip": "ym2612"
    },
    {
      "channel": 3,
      "note": 85,
      "start": 12.9376,
      "duration": 0.2582,
      "velocity": 99,
      "chip": "ym2612"
    },
    {
      "channel": 4,
      "note": 56,
      "start": 12.941,
      "duration": 0.0327,
      "velocity": 94,
      "chip": "ym2612"
    },
    {
      "channel": 4,
      "note": 56,
      "start": 12.9941,
      "duration": 0.1716,
      "velocity": 94,
      "chip": "ym2612"
    },
    {
      "channel": 4,
      "note": 56,
      "start": 13.1666,
      "duration": 0.0349,
      "velocity": 94,
      "chip": "ym2612"
    },
    {
      "channel": 2,
      "note": 88,
      "start": 13.2161,
      "duration": 0.0278,
      "velocity": 99,
      "chip": "ym2612"
    },
    {
      "channel": 3,
      "note": 85,
      "start": 13.2172,
      "duration": 0.0277,
      "velocity": 99,
      "chip": "ym2612"
    },
    {
      "channel": 4,
      "note": 56,
      "start": 13.218,
      "duration": 0.1728,
      "velocity": 94,
      "chip": "ym2612"
    },
    {
      "channel": 2,
      "note": 88,
      "start": 13.3119,
      "duration": 0.1607,
      "velocity": 99,
      "chip": "ym2612"
    },
    {
      "channel": 3,
      "note": 85,
      "start": 13.313,
      "duration": 0.1605,
      "velocity": 99,
      "chip": "ym2612"
    },
    {
      "channel": 4,
      "note": 56,
      "start": 13.3916,
      "duration": 0.0344,
      "velocity": 94,
      "chip": "ym2612"
    },
    {
      "channel": 4,
      "note": 56,
      "start": 13.4467,
      "duration": 0.0325,
      "velocity": 94,
      "chip": "ym2612"
    },
    {
      "channel": 0,
      "note": 38,
      "start": 13.5262,
      "duration": 0.2662,
      "velocity": 117,
      "chip": "ym2612"
    },
    {
      "channel": 4,
      "note": 56,
      "start": 13.5298,
      "duration": 0.2664,
      "velocity": 94,
      "chip": "ym2612"
    },
    {
      "channel": 1,
      "note": 42,
      "start": 13.5458,
      "duration": 0.2476,
      "velocity": 117,
      "chip": "ym2612"
    },
    {
      "channel": 0,
      "note": 62,
      "start": 13.7933,
      "duration": 0.0557,
      "velocity": 117,
      "chip": "ym2612"
    },
    {
      "channel": 4,
      "note": 68,
      "start": 13.7971,
      "duration": 0.0341,
      "velocity": 94,
      "chip": "ym2612"
    },
    {
      "channel": 1,
      "note": 63,
      "start": 13.805,
      "duration": 0.045,
      "velocity": 117,
      "chip": "ym2612"
    },
    {
      "channel": 0,
      "note": 62,
      "start": 13.8499,
      "duration": 0.5788,
      "velocity": 117,
      "chip": "ym2612"
    },
    {
      "channel": 4,
      "note": 59,
      "start": 13.8536,
      "duration": 0.2629,
      "velocity": 94,
      "chip": "ym2612"
    },
    {
      "channel": 1,
      "note": 60,
      "start": 13.8613,
      "duration": 0.5685,
      "velocity": 117,
      "chip": "ym2612"
    },
    {
      "channel": 5,
      "note": 68,
      "start": 13.9333,
      "duration": 0.1841,
      "velocity": 127,
      "chip": "ym2612"
    },
    {
      "channel": 4,
      "note": 68,
      "start": 14.1172,
      "duration": 0.0338,
      "velocity": 94,
      "chip": "ym2612"
    },
    {
      "channel": 4,
      "note": 59,
      "start": 14.1683,
      "duration": 0.0941,
      "velocity": 94,
      "chip": "ym2612"
    },
    {
      "channel": 4,
      "note": 61,
      "start": 14.2627,
      "duration": 0.1153,
      "velocity": 94,
      "chip": "ym2612"
    },
    {
      "channel": 5,
      "note": 68,
      "start": 14.2633,
      "duration": 0.1704,
      "velocity": 127,
      "chip": "ym2612"
    },
    {
      "channel": 0,
      "note": 58,
      "start": 14.4296,
      "duration": 0.0547,
      "velocity": 117,
      "chip": "ym2612"
    },
    {
      "channel": 2,
      "note": 90,
      "start": 14.4316,
      "duration": 0.0332,
      "velocity": 99,
      "chip": "ym2612"
    },
    {
      "channel": 3,
      "note": 85,
      "start": 14.4327,
      "duration": 0.033,
      "velocity": 99,
      "chip": "ym2612"
    },
    {
      "channel": 4,
      "note": 63,
      "start": 14.4336,
      "duration": 0.0329,
      "velocity": 94,
      "chip": "ym2612"
    },
    {
      "channel": 1,
      "note": 56,
      "start": 14.4412,
      "duration": 0.0442,
      "velocity": 117,
      "chip": "ym2612"
    },
    {
      "channel": 0,
      "note": 57,
      "start": 14.4852,
      "duration": 0.0477,
      "velocity": 117,
      "chip": "ym2612"
    },
    {
      "channel": 2,
      "note": 89,
      "start": 14.4873,
      "duration": 0.0317,
      "velocity": 99,
      "chip": "ym2612"
    },
    {
      "channel": 3,
      "note": 85,
      "start": 14.4882,
      "duration": 0.0317,
      "velocity": 99,
      "chip": "ym2612"
    },
    {
      "channel": 4,
      "note": 59,
      "start": 14.4891,
      "duration": 0.0315,
      "velocity": 94,
      "chip": "ym2612"
    },
    {
      "channel": 1,
      "note": 59,
      "start": 14.4966,
      "duration": 0.0375,
      "velocity": 117,
      "chip": "ym2612"
    },
    {
      "channel": 0,
      "note": 60,
      "start": 14.534,
      "duration": 0.2625,
      "velocity": 117,
      "chip": "ym2612"
    },
    {
      "channel": 4,
      "note": 56,
      "start": 14.5377,
      "duration": 0.2627,
      "velocity": 94,
      "chip": "ym2612"
    },
    {
      "channel": 1,
      "note": 61,
      "start": 14.5504,
      "duration": 0.2472,
      "velocity": 117,
      "chip": "ym2612"
    },
    {
      "channel": 5,
      "note": 68,
      "start": 14.6315,
      "duration": 0.1699,
      "velocity": 127,
      "chip": "ym2612"
    },
    {
      "channel": 0,
      "note": 62,
      "start": 14.7974,
      "duration": 0.0557,
      "velocity": 117,
      "chip": "ym2612"
    },
    {
      "channel": 4,
      "note": 68,
      "start": 14.8012,
      "duration": 0.0342,
      "velocity": 94,
      "chip": "ym2612"
    },
    {
      "channel": 1,
      "note": 63,
      "start": 14.8091,
      "duration": 0.045,
      "velocity": 117,
      "chip": "ym2612"
    },
    {
      "channel": 0,
      "note": 62,
      "start": 14.854,
      "duration": 0.3147,
      "velocity": 117,
      "chip": "ym2612"
    },
    {
      "channel": 4,
      "note": 59,
      "start": 14.8576,
      "duration": 0.2625,
      "velocity": 94,
      "chip": "ym2612"
    },
    {
      "channel": 1,
      "note": 60,
      "start": 14.8653,
      "duration": 0.3044,
      "velocity": 117,
      "chip": "ym2612"
    },
    {
      "channel": 5,
      "note": 68,
      "start": 14.9354,
      "duration": 0.1856,
      "velocity": 127,
      "chip": "ym2612"
    },
    {
      "channel": 4,
      "note": 68,
      "start": 15.1209,
      "duration": 0.0343,
      "velocity": 94,
      "chip": "ym2612"
    },
    {
      "channel": 0,
      "note": 60,
      "start": 15.1696,
      "duration": 0.2633,
      "velocity": 117,
      "chip": "ym2612"
    },
    {
      "channel": 4,
      "note": 59,
      "start": 15.1734,
      "duration": 0.0932,
      "velocity": 94,
      "chip": "ym2612"
    },
    {
      "channel": 1,
      "note": 61,
      "start": 15.1813,
      "duration": 0.2527,
      "velocity": 117,
      "chip": "ym2612"
    },
    {
      "channel": 4,
      "note": 61,
      "start": 15.2671,
      "duration": 0.1153,
      "velocity": 94,
      "chip": "ym2612"
    },
    {
      "channel": 5,
      "note": 68,
      "start": 15.2677,
      "duration": 0.1703,
      "velocity": 127,
      "chip": "ym2612"
    },
    {
      "channel": 0,
      "note": 60,
      "start": 15.4339,
      "duration": 0.0542,
      "velocity": 117,
      "chip": "ym2612"
    },
    {
      "channel": 2,
      "note": 90,
      "start": 15.4359,
      "duration": 0.0332,
      "velocity": 99,
      "chip": "ym2612"
    },
    {
      "channel": 3,
      "note": 85,
      "start": 15.437,
      "duration": 0.0331,
      "velocity": 99,
      "chip": "ym2612"
    },
    {
      "channel": 4,
      "note": 63,
      "start": 15.4378,
      "duration": 0.033,
      "velocity": 94,
      "chip": "ym2612"
    },
    {
      "channel": 1,
      "note": 59,
      "start": 15.4455,
      "duration": 0.043,
      "velocity": 117,
      "chip": "ym2612"
    },
    {
      "channel": 0,
      "note": 58,
      "start": 15.4884,
      "duration": 0.1669,
      "velocity": 117,
      "chip": "ym2612"
    },
    {
      "channel": 4,
      "note": 59,
      "start": 15.4902,
      "duration": 0.1146,
      "velocity": 94,
      "chip": "ym2612"
    },
    {
      "channel": 5,
      "note": 68,
      "start": 15.4907,
      "duration": 0.1697,
      "velocity": 127,
      "chip": "ym2612"
    },
    {
      "channel": 1,
      "note": 58,
      "start": 15.5209,
      "duration": 0.1354,
      "velocity": 117,
      "chip": "ym2612"
    },
    {
      "channel": 0,
      "note": 57,
      "start": 15.6562,
      "duration": 0.053,
      "velocity": 117,
      "chip": "ym2612"
    },
    {
      "channel": 2,
      "note": 89,
      "start": 15.6583,
      "duration": 0.0324,
      "velocity": 99,
      "chip": "ym2612"
    },
    {
      "channel": 3,
      "note": 85,
      "start": 15.6594,
      "duration": 0.0323,
      "velocity": 99,
      "chip": "ym2612"
    },
    {
      "channel": 4,
      "note": 66,
      "start": 15.6603,
      "duration": 0.0505,
      "velocity": 94,
      "chip": "ym2612"
    },
    {
      "channel": 1,
      "note": 56,
      "start": 15.6681,
      "duration": 0.0415,
      "velocity": 117,
      "chip": "ym2612"
    },
    {
      "channel": 0,
      "note": 55,
      "start": 15.7095,
      "duration": 0.166,
      "velocity": 117,
      "chip": "ym2612"
    },
    {
      "channel": 4,
      "note": 68,
      "start": 15.7112,
      "duration": 0.1144,
      "velocity": 94,
      "chip": "ym2612"
    },
    {
      "channel": 5,
      "note": 68,
      "start": 15.7118,
      "duration": 0.1685,
      "velocity": 127,
      "chip": "ym2612"
    },
    {
      "channel": 1,
      "note": 54,
      "start": 15.7417,
      "duration": 0.1349,
      "velocity": 117,
      "chip": "ym2612"
    },
    {
      "channel": 0,
      "note": 55,
      "start": 15.8765,
      "duration": 0.3995,
      "velocity": 117,
      "chip": "ym2612"
    },
    {
      "channel": 4,
      "note": 59,
      "start": 15.8802,
      "duration": 0.2626,
      "velocity": 94,
      "chip": "ym2612"
    },
    {
      "channel": 1,
      "note": 57,
      "start": 15.8879,
      "duration": 0.3885,
      "velocity": 117,
      "chip": "ym2612"
    },
    {
      "channel": 4,
      "note": 68,
      "start": 16.1436,
      "duration": 0.0339,
      "velocity": 94,
      "chip": "ym2612"
    },
    {
      "channel": 4,
      "note": 59,
      "start": 16.1997,
      "duration": 0.2631,
      "velocity": 94,
      "chip": "ym2612"
    },
    {
      "channel": 0,
      "note": 66,
      "start": 16.2763,
      "duration": 0.2342,
      "velocity": 117,
      "chip": "ym2612"
    },
    {
      "channel": 5,
      "note": 68,
      "start": 16.2784,
      "duration": 0.1852,
      "velocity": 127,
      "chip": "ym2612"
    },
    {
      "channel": 1,
      "note": 66,
      "start": 16.3093,
      "duration": 0.2024,
      "velocity": 117,
      "chip": "ym2612"
    },
    {
      "channel": 4,
      "note": 68,
      "start": 16.4635,
      "duration": 0.0338,
      "velocity": 94,
      "chip": "ym2612"
    },
    {
      "channel": 0,
      "note": 65,
      "start": 16.5115,
      "duration": 0.264,
      "velocity": 117,
      "chip": "ym2612"
    },
    {
      "channel": 4,
      "note": 59,
      "start": 16.5153,
      "duration": 0.094,
      "velocity": 94,
      "chip": "ym2612"
    },
    {
      "channel": 1,
      "note": 65,
      "start": 16.523,
      "duration": 0.2537,
      "velocity": 117,
      "chip": "ym2612"
    },
    {
      "channel": 4,
      "note": 61,
      "start": 16.6098,
      "duration": 0.1153,
      "velocity": 94,
      "chip": "ym2612"
    },
    {
      "channel": 5,
      "note": 68,
      "start": 16.6103,
      "duration": 0.1703,
      "velocity": 127,
      "chip": "ym2612"
    },
    {
      "channel": 0,
      "note": 64,
      "start": 16.7765,
      "duration": 0.0551,
      "velocity": 117,
      "chip": "ym2612"
    },
    {
      "channel": 2,
      "note": 90,
      "start": 16.7786,
      "duration": 0.0332,
      "velocity": 99,
      "chip": "ym2612"
    },
    {
      "channel": 3,
      "note": 85,
      "start": 16.7796,
      "duration": 0.0332,
      "velocity": 99,
      "chip": "ym2612"
    },
    {
      "channel": 4,
      "note": 63,
      "start": 16.7805,
      "duration": 0.0331,
      "velocity": 94,
      "chip": "ym2612"
    },
    {
      "channel": 1,
      "note": 63,
      "start": 16.7882,
      "duration": 0.0444,
      "velocity": 117,
      "chip": "ym2612"
    },
    {
      "channel": 0,
      "note": 62,
      "start": 16.8325,
      "duration": 0.049,
      "velocity": 117,
      "chip": "ym2612"
    },
    {
      "channel": 2,
      "note": 89,
      "start": 16.8346,
      "duration": 0.0329,
      "velocity": 99,
      "chip": "ym2612"
    },
    {
      "channel": 3,
      "note": 85,
      "start": 16.8356,
      "duration": 0.0328,
      "velocity": 99,
      "chip": "ym2612"
    },
    {
      "channel": 4,
      "note": 59,
      "start": 16.8365,
      "duration": 0.0328,
      "velocity": 94,
      "chip": "ym2612"
    },
    {
      "channel": 1,
      "note": 61,
      "start": 16.8442,
      "duration": 0.0385,
      "velocity": 117,
      "chip": "ym2612"
    },
    {
      "channel": 0,
      "note": 62,
      "start": 16.8825,
      "duration": 0.2626,
      "velocity": 117,
      "chip": "ym2612"
    },
    {
      "channel": 4,
      "note": 59,
      "start": 16.8863,
      "duration": 0.2627,
      "velocity": 94,
      "chip": "ym2612"
    },
    {
      "channel": 1,
      "note": 66,
      "start": 16.8989,
      "duration": 0.2473,
      "velocity": 117,
      "chip": "ym2612"
    },
    {
      "channel": 5,
      "note": 68,
      "start": 16.9802,
      "duration": 0.1698,
      "velocity": 127,
      "chip": "ym2612"
    },
    {
      "channel": 0,
      "note": 67,
      "start": 17.1461,
      "duration": 0.0556,
      "velocity": 117,
      "chip": "ym2612"
    },
    {
      "channel": 4,
      "note": 68,
      "start": 17.1499,
      "duration": 0.0341,
      "velocity": 94,
      "chip": "ym2612"
    },
    {
      "channel": 1,
      "note": 68,
      "start": 17.1578,
      "duration": 0.0449,
      "velocity": 117,
      "chip": "ym2612"
    },
    {
      "channel": 0,
      "note": 67,
      "start": 17.2025,
      "duration": 0.5787,
      "velocity": 117,
      "chip": "ym2612"
    },
    {
      "channel": 4,
      "note": 59,
      "start": 17.2063,
      "duration": 0.263,
      "velocity": 94,
      "chip": "ym2612"
    },
    {
      "channel": 1,
      "note": 65,
      "start": 17.2141,
      "duration": 0.5682,
      "velocity": 117,
      "chip": "ym2612"
    },
    {
      "channel": 5,
      "note": 68,
      "start": 17.2845,
      "duration": 0.1856,
      "velocity": 127,
      "chip": "ym2612"
    },
    {
      "channel": 4,
      "note": 68,
      "start": 17.47,
      "duration": 0.0337,
      "velocity": 94,
      "chip": "ym2612"
    },
    {
      "channel": 4,
      "note": 59,
      "start": 17.5212,
      "duration": 0.0936,
      "velocity": 94,
      "chip": "ym2612"
    },
    {
      "channel": 4,
      "note": 61,
      "start": 17.6153,
      "duration": 0.1153,
      "velocity": 94,
      "chip": "ym2612"
    },
    {
      "channel": 5,
      "note": 68,
      "start": 17.6159,
      "duration": 0.1704,
      "velocity": 127,
      "chip": "ym2612"
    },
    {
      "channel": 0,
      "note": 64,
      "start": 17.7822,
      "duration": 0.0543,
      "velocity": 117,
      "chip": "ym2612"
    },
    {
      "channel": 2,
      "note": 90,
      "start": 17.7841,
      "duration": 0.0333,
      "velocity": 99,
      "chip": "ym2612"
    },
    {
      "channel": 3,
      "note": 85,
      "start": 17.7852,
      "duration": 0.0332,
      "velocity": 99,
      "chip": "ym2612"
    },
    {
      "channel": 4,
      "note": 63,
      "start": 17.7861,
      "duration": 0.033,
      "velocity": 94,
      "chip": "ym2612"
    },
    {
      "channel": 1,
      "note": 62,
      "start": 17.7937,
      "duration": 0.043,
      "velocity": 117,
      "chip": "ym2612"
    },
    {
      "channel": 0,
      "note": 60,
      "start": 17.8367,
      "duration": 0.1669,
      "velocity": 117,
      "chip": "ym2612"
    },
    {
      "channel": 4,
      "note": 59,
      "start": 17.8384,
      "duration": 0.1147,
      "velocity": 94,
      "chip": "ym2612"
    },
    {
      "channel": 5,
      "note": 68,
      "start": 17.839,
      "duration": 0.1697,
      "velocity": 127,
      "chip": "ym2612"
    },
    {
      "channel": 1,
      "note": 59,
      "start": 17.8692,
      "duration": 0.1354,
      "velocity": 117,
      "chip": "ym2612"
    },
    {
      "channel": 0,
      "note": 58,
      "start": 18.0045,
      "duration": 0.053,
      "velocity": 117,
      "chip": "ym2612"
    },
    {
      "channel": 2,
      "note": 89,
      "start": 18.0066,
      "duration": 0.0322,
      "velocity": 99,
      "chip": "ym2612"
    },
    {
      "channel": 3,
      "note": 85,
      "start": 18.0077,
      "duration": 0.0321,
      "velocity": 99,
      "chip": "ym2612"
    },
    {
      "channel": 4,
      "note": 66,
      "start": 18.0086,
      "duration": 0.0505,
      "velocity": 94,
      "chip": "ym2612"
    },
    {
      "channel": 1,
      "note": 58,
      "start": 18.0165,
      "duration": 0.0414,
      "velocity": 117,
      "chip": "ym2612"
    },
    {
      "channel": 0,
      "note": 57,
      "start": 18.0578,
      "duration": 0.1659,
      "velocity": 117,
      "chip": "ym2612"
    },
    {
      "channel": 4,
      "note": 68,
      "start": 18.0595,
      "duration": 0.1143,
      "velocity": 94,
      "chip": "ym2612"
    },
    {
      "channel": 5,
      "note": 68,
      "start": 18.0601,
      "duration": 0.1683,
      "velocity": 127,
      "chip": "ym2612"
    },
    {
      "channel": 1,
      "note": 55,
      "start": 18.09,
      "duration": 0.1348,
      "velocity": 117,
      "chip": "ym2612"
    },
    {
      "channel": 0,
      "note": 55,
      "start": 18.2246,
      "duration": 0.8974,
      "velocity": 117,
      "chip": "ym2612"
    },
    {
      "channel": 4,
      "note": 61,
      "start": 18.2283,
      "duration": 0.2621,
      "velocity": 94,
      "chip": "ym2612"
    },
    {
      "channel": 1,
      "note": 59,
      "start": 18.2409,
      "duration": 0.8822,
      "velocity": 117,
      "chip": "ym2612"
    },
    {
      "channel": 4,
      "note": 68,
      "start": 18.4912,
      "duration": 0.0337,
      "velocity": 94,
      "chip": "ym2612"
    },
    {
      "channel": 4,
      "note": 61,
      "start": 18.5467,
      "duration": 0.2628,
      "velocity": 94,
      "chip": "ym2612"
    },
    {
      "channel": 5,
      "note": 68,
      "start": 18.6249,
      "duration": 0.1856,
      "velocity": 127,
      "chip": "ym2612"
    },
    {
      "channel": 4,
      "note": 68,
      "start": 18.8104,
      "duration": 0.0343,
      "velocity": 94,
      "chip": "ym2612"
    },
    {
      "channel": 4,
      "note": 61,
      "start": 18.8619,
      "duration": 0.0939,
      "velocity": 94,
      "chip": "ym2612"
    },
    {
      "channel": 4,
      "note": 63,
      "start": 18.9562,
      "duration": 0.1153,
      "velocity": 94,
      "chip": "ym2612"
    },
    {
      "channel": 5,
      "note": 68,
      "start": 18.9568,
      "duration": 0.1704,
      "velocity": 127,
      "chip": "ym2612"
    },
    {
      "channel": 0,
      "note": 67,
      "start": 19.123,
      "duration": 0.1046,
      "velocity": 117,
      "chip": "ym2612"
    },
    {
      "channel": 2,
      "note": 90,
      "start": 19.1251,
      "duration": 0.0332,
      "velocity": 99,
      "chip": "ym2612"
    },
    {
      "channel": 3,
      "note": 85,
      "start": 19.1262,
      "duration": 0.0331,
      "velocity": 99,
      "chip": "ym2612"
    },
    {
      "channel": 4,
      "note": 64,
      "start": 19.1271,
      "duration": 0.0329,
      "velocity": 94,
      "chip": "ym2612"
    },
    {
      "channel": 1,
      "note": 63,
      "start": 19.1397,
      "duration": 0.089,
      "velocity": 117,
      "chip": "ym2612"
    },
    {
      "channel": 2,
      "note": 89,
      "start": 19.1803,
      "duration": 0.0327,
      "velocity": 99,
      "chip": "ym2612"
    },
    {
      "channel": 3,
      "note": 85,
      "start": 19.1813,
      "duration": 0.0326,
      "velocity": 99,
      "chip": "ym2612"
    },
    {
      "channel": 4,
      "note": 61,
      "start": 19.1823,
      "duration": 0.0325,
      "velocity": 94,
      "chip": "ym2612"
    },
    {
      "channel": 0,
      "note": 64,
      "start": 19.2286,
      "duration": 0.2626,
      "velocity": 117,
      "chip": "ym2612"
    },
    {
      "channel": 4,
      "note": 61,
      "start": 19.2323,
      "duration": 0.2627,
      "velocity": 94,
      "chip": "ym2612"
    },
    {
      "channel": 1,
      "note": 68,
      "start": 19.2448,
      "duration": 0.2475,
      "velocity": 117,
      "chip": "ym2612"
    },
    {
      "channel": 5,
      "note": 68,
      "start": 19.3262,
      "duration": 0.1698,
      "velocity": 127,
      "chip": "ym2612"
    },
    {
      "channel": 0,
      "note": 72,
      "start": 19.4922,
      "duration": 0.0557,
      "velocity": 117,
      "chip": "ym2612"
    },
    {
      "channel": 4,
      "note": 68,
      "start": 19.4959,
      "duration": 0.0342,
      "velocity": 94,
      "chip": "ym2612"
    },
    {
      "channel": 1,
      "note": 73,
      "start": 19.5038,
      "duration": 0.0451,
      "velocity": 117,
      "chip": "ym2612"
    },
    {
      "channel": 0,
      "note": 72,
      "start": 19.5489,
      "duration": 0.5789,
      "velocity": 117,
      "chip": "ym2612"
    },
    {
      "channel": 4,
      "note": 61,
      "start": 19.5526,
      "duration": 0.2632,
      "velocity": 94,
      "chip": "ym2612"
    },
    {
      "channel": 1,
      "note": 70,
      "start": 19.5605,
      "duration": 0.5683,
      "velocity": 117,
      "chip": "ym2612"
    },
    {
      "channel": 5,
      "note": 68,
      "start": 19.6309,
      "duration": 0.1858,
      "velocity": 127,
      "chip": "ym2612"
    },
    {
      "channel": 4,
      "note": 68,
      "start": 19.8166,
      "duration": 0.034,
      "velocity": 94,
      "chip": "ym2612"
    },
    {
      "channel": 4,
      "note": 61,
      "start": 19.868,
      "duration": 0.0934,
      "velocity": 94,
      "chip": "ym2612"
    },
    {
      "channel": 4,
      "note": 63,
      "start": 19.9619,
      "duration": 0.1154,
      "velocity": 94,
      "chip": "ym2612"
    },
    {
      "channel": 5,
      "note": 68,
      "start": 19.9625,
      "duration": 0.1704,
      "velocity": 127,
      "chip": "ym2612"
    },
    {
      "channel": 0,
      "note": 69,
      "start": 20.1287,
      "duration": 0.2215,
      "velocity": 117,
      "chip": "ym2612"
    },
    {
      "channel": 2,
      "note": 90,
      "start": 20.1308,
      "duration": 0.0332,
      "velocity": 99,
      "chip": "ym2612"
    },
    {
      "channel": 3,
      "note": 85,
      "start": 20.1318,
      "duration": 0.0331,
      "velocity": 99,
      "chip": "ym2612"
    },
    {
      "channel": 4,
      "note": 64,
      "start": 20.1328,
      "duration": 0.0329,
      "velocity": 94,
      "chip": "ym2612"
    },
    {
      "channel": 1,
      "note": 67,
      "start": 20.1404,
      "duration": 0.2108,
      "velocity": 117,
      "chip": "ym2612"
    },
    {
      "channel": 4,
      "note": 61,
      "start": 20.1844,
      "duration": 0.1152,
      "velocity": 94,
      "chip": "ym2612"
    },
    {
      "channel": 5,
      "note": 68,
      "start": 20.185,
      "duration": 0.1701,
      "velocity": 127,
      "chip": "ym2612"
    },
    {
      "channel": 0,
      "note": 67,
      "start": 20.351,
      "duration": 0.2204,
      "velocity": 117,
      "chip": "ym2612"
    },
    {
      "channel": 2,
      "note": 89,
      "start": 20.3531,
      "duration": 0.0331,
      "velocity": 99,
      "chip": "ym2612"
    },
    {
      "channel": 3,
      "note": 85,
      "start": 20.3541,
      "duration": 0.0331,
      "velocity": 99,
      "chip": "ym2612"
    },
    {
      "channel": 4,
      "note": 56,
      "start": 20.355,
      "duration": 0.0511,
      "velocity": 94,
      "chip": "ym2612"
    },
    {
      "channel": 1,
      "note": 69,
      "start": 20.3626,
      "duration": 0.2099,
      "velocity": 117,
      "chip": "ym2612"
    },
    {
      "channel": 4,
      "note": 68,
      "start": 20.4065,
      "duration": 0.1149,
      "velocity": 94,
      "chip": "ym2612"
    },
    {
      "channel": 5,
      "note": 68,
      "start": 20.4071,
      "duration": 0.1691,
      "velocity": 127,
      "chip": "ym2612"
    },
    {
      "channel": 0,
      "note": 69,
      "start": 20.5724,
      "duration": 1.6358,
      "velocity": 117,
      "chip": "ym2612"
    },
    {
      "channel": 4,
      "note": 56,
      "start": 20.5761,
      "duration": 0.2616,
      "velocity": 94,
      "chip": "ym2612"
    },
    {
      "channel": 1,
      "note": 68,
      "start": 20.5886,
      "duration": 1.6206,
      "velocity": 117,
      "chip": "ym2612"
    },
    {
      "channel": 4,
      "note": 68,
      "start": 20.8385,
      "duration": 0.0337,
      "velocity": 94,
      "chip": "ym2612"
    },
    {
      "channel": 4,
      "note": 59,
      "start": 20.8941,
      "duration": 0.2628,
      "velocity": 94,
      "chip": "ym2612"
    },
    {
      "channel": 5,
      "note": 68,
      "start": 20.9721,
      "duration": 0.1858,
      "velocity": 127,
      "chip": "ym2612"
    },
    {
      "channel": 4,
      "note": 68,
      "start": 21.1578,
      "duration": 0.0341,
      "velocity": 94,
      "chip": "ym2612"
    },
    {
      "channel": 4,
      "note": 59,
      "start": 21.2092,
      "duration": 0.0938,
      "velocity": 94,
      "chip": "ym2612"
    },
    {
      "channel": 4,
      "note": 61,
      "start": 21.3034,
      "duration": 0.1153,
      "velocity": 94,
      "chip": "ym2612"
    },
    {
      "channel": 5,
      "note": 68,
      "start": 21.304,
      "duration": 0.1694,
      "velocity": 127,
      "chip": "ym2612"
    },
    {
      "channel": 2,
      "note": 90,
      "start": 21.4714,
      "duration": 0.0329,
      "velocity": 99,
      "chip": "ym2612"
    },
    {
      "channel": 3,
      "note": 85,
      "start": 21.4724,
      "duration": 0.0328,
      "velocity": 99,
      "chip": "ym2612"
    },
    {
      "channel": 4,
      "note": 63,
      "start": 21.4734,
      "duration": 0.0327,
      "velocity": 94,
      "chip": "ym2612"
    },
    {
      "channel": 2,
      "note": 89,
      "start": 21.5266,
      "duration": 0.0324,
      "velocity": 99,
      "chip": "ym2612"
    },
    {
      "channel": 3,
      "note": 85,
      "start": 21.5275,
      "duration": 0.0324,
      "velocity": 99,
      "chip": "ym2612"
    },
    {
      "channel": 4,
      "note": 59,
      "start": 21.5285,
      "duration": 0.0323,
      "velocity": 94,
      "chip": "ym2612"
    },
    {
      "channel": 4,
      "note": 56,
      "start": 21.5778,
      "duration": 0.2626,
      "velocity": 94,
      "chip": "ym2612"
    },
    {
      "channel": 5,
      "note": 68,
      "start": 21.6722,
      "duration": 0.1691,
      "velocity": 127,
      "chip": "ym2612"
    },
    {
      "channel": 4,
      "note": 68,
      "start": 21.8413,
      "duration": 0.034,
      "velocity": 94,
      "chip": "ym2612"
    },
    {
      "channel": 4,
      "note": 59,
      "start": 21.8976,
      "duration": 0.2625,
      "velocity": 94,
      "chip": "ym2612"
    },
    {
      "channel": 5,
      "note": 68,
      "start": 21.9753,
      "duration": 0.1857,
      "velocity": 127,
      "chip": "ym2612"
    },
    {
      "channel": 4,
      "note": 68,
      "start": 22.1609,
      "duration": 0.0337,
      "velocity": 94,
      "chip": "ym2612"
    },
    {
      "channel": 0,
      "note": 67,
      "start": 22.2091,
      "duration": 0.2634,
      "velocity": 117,
      "chip": "ym2612"
    },
    {
      "channel": 4,
      "note": 59,
      "start": 22.2129,
      "duration": 0.0937,
      "velocity": 94,
      "chip": "ym2612"
    },
    {
      "channel": 1,
      "note": 65,
      "start": 22.2205,
      "duration": 0.2531,
      "velocity": 117,
      "chip": "ym2612"
    },
    {
      "channel": 4,
      "note": 61,
      "start": 22.307,
      "duration": 0.1151,
      "velocity": 94,
      "chip": "ym2612"
    },
    {
      "channel": 5,
      "note": 68,
      "start": 22.3075,
      "duration": 0.1701,
      "velocity": 127,
      "chip": "ym2612"
    },
    {
      "channel": 0,
      "note": 59,
      "start": 22.4735,
      "duration": 0.0536,
      "velocity": 117,
      "chip": "ym2612"
    },
    {
      "channel": 2,
      "note": 90,
      "start": 22.4756,
      "duration": 0.033,
      "velocity": 99,
      "chip": "ym2612"
    },
    {
      "channel": 3,
      "note": 85,
      "start": 22.4766,
      "duration": 0.0329,
      "velocity": 99,
      "chip": "ym2612"
    },
    {
      "channel": 4,
      "note": 63,
      "start": 22.4775,
      "duration": 0.0328,
      "velocity": 94,
      "chip": "ym2612"
    },
    {
      "channel": 1,
      "note": 59,
      "start": 22.4851,
      "duration": 0.043,
      "velocity": 117,
      "chip": "ym2612"
    },
    {
      "channel": 0,
      "note": 58,
      "start": 22.528,
      "duration": 0.0513,
      "velocity": 117,
      "chip": "ym2612"
    },
    {
      "channel": 4,
      "note": 59,
      "start": 22.5316,
      "duration": 0.0353,
      "velocity": 94,
      "chip": "ym2612"
    },
    {
      "channel": 1,
      "note": 58,
      "start": 22.5407,
      "duration": 0.0398,
      "velocity": 117,
      "chip": "ym2612"
    },
    {
      "channel": 0,
      "note": 57,
      "start": 22.5804,
      "duration": 0.0541,
      "velocity": 117,
      "chip": "ym2612"
    },
    {
      "channel": 2,
      "note": 89,
      "start": 22.5825,
      "duration": 0.0332,
      "velocity": 99,
      "chip": "ym2612"
    },
    {
      "channel": 3,
      "note": 85,
      "start": 22.5836,
      "duration": 0.033,
      "velocity": 99,
      "chip": "ym2612"
    },
    {
      "channel": 4,
      "note": 66,
      "start": 22.5844,
      "duration": 0.0539,
      "velocity": 94,
      "chip": "ym2612"
    },
    {
      "channel": 1,
      "note": 56,
      "start": 22.5922,
      "duration": 0.0434,
      "velocity": 117,
      "chip": "ym2612"
    },
    {
      "channel": 0,
      "note": 38,
      "start": 22.6355,
      "duration": 0.051,
      "velocity": 117,
      "chip": "ym2612"
    },
    {
      "channel": 4,
      "note": 68,
      "start": 22.6392,
      "duration": 0.0353,
      "velocity": 94,
      "chip": "ym2612"
    },
    {
      "channel": 1,
      "note": 40,
      "start": 22.6481,
      "duration": 0.0394,
      "velocity": 117,
      "chip": "ym2612"
    },
    {
      "channel": 0,
      "note": 52,
      "start": 22.6874,
      "duration": 0.2612,
      "velocity": 117,
      "chip": "ym2612"
    },
    {
      "channel": 1,
      "note": 47,
      "start": 22.6884,
      "duration": 0.2614,
      "velocity": 117,
      "chip": "ym2612"
    },
    {
      "channel": 2,
      "note": 56,
      "start": 22.6896,
      "duration": 0.8877,
      "velocity": 99,
      "chip": "ym2612"
    },
    {
      "channel": 3,
      "note": 56,
      "start": 22.6906,
      "duration": 0.888,
      "velocity": 99,
      "chip": "ym2612"
    },
    {
      "channel": 4,
      "note": 56,
      "start": 22.6915,
      "duration": 0.2608,
      "velocity": 94,
      "chip": "ym2612"
    },
    {
      "channel": 0,
      "note": 62,
      "start": 22.9496,
      "duration": 0.0526,
      "velocity": 117,
      "chip": "ym2612"
    },
    {
      "channel": 1,
      "note": 71,
      "start": 22.9507,
      "duration": 0.0526,
      "velocity": 117,
      "chip": "ym2612"
    },
    {
      "channel": 4,
      "note": 68,
      "start": 22.9532,
      "duration": 0.0322,
      "velocity": 94,
      "chip": "ym2612"
    },
    {
      "channel": 0,
      "note": 62,
      "start": 23.0032,
      "duration": 0.5721,
      "velocity": 117,
      "chip": "ym2612"
    },
    {
      "channel": 1,
      "note": 70,
      "start": 23.0042,
      "duration": 0.5721,
      "velocity": 117,
      "chip": "ym2612"
    },
    {
      "channel": 4,
      "note": 59,
      "start": 23.0067,
      "duration": 0.26,
      "velocity": 94,
      "chip": "ym2612"
    },
    {
      "channel": 5,
      "note": 68,
      "start": 23.0821,
      "duration": 0.1856,
      "velocity": 127,
      "chip": "ym2612"
    },
    {
      "channel": 4,
      "note": 68,
      "start": 23.2676,
      "duration": 0.0323,
      "velocity": 94,
      "chip": "ym2612"
    },
    {
      "channel": 4,
      "note": 59,
      "start": 23.3158,
      "duration": 0.0926,
      "velocity": 94,
      "chip": "ym2612"
    },
    {
      "channel": 4,
      "note": 61,
      "start": 23.4089,
      "duration": 0.1153,
      "velocity": 94,
      "chip": "ym2612"
    },
    {
      "channel": 5,
      "note": 68,
      "start": 23.4095,
      "duration": 0.1709,
      "velocity": 127,
      "chip": "ym2612"
    },
    {
      "channel": 0,
      "note": 58,
      "start": 23.5762,
      "duration": 0.0539,
      "velocity": 117,
      "chip": "ym2612"
    },
    {
      "channel": 1,
      "note": 67,
      "start": 23.5771,
      "duration": 0.0539,
      "velocity": 117,
      "chip": "ym2612"
    },
    {
      "channel": 2,
      "note": 90,
      "start": 23.5783,
      "duration": 0.0322,
      "velocity": 99,
      "chip": "ym2612"
    },
    {
      "channel": 3,
      "note": 85,
      "start": 23.5794,
      "duration": 0.0321,
      "velocity": 99,
      "chip": "ym2612"
    },
    {
      "channel": 4,
      "note": 63,
      "start": 23.5802,
      "duration": 0.032,
      "velocity": 94,
      "chip": "ym2612"
    },
    {
      "channel": 0,
      "note": 57,
      "start": 23.631,
      "duration": 0.0493,
      "velocity": 117,
      "chip": "ym2612"
    },
    {
      "channel": 1,
      "note": 67,
      "start": 23.632,
      "duration": 0.0493,
      "velocity": 117,
      "chip": "ym2612"
    },
    {
      "channel": 2,
      "note": 89,
      "start": 23.6332,
      "duration": 0.0324,
      "velocity": 99,
      "chip": "ym2612"
    },
    {
      "channel": 3,
      "note": 85,
      "start": 23.6342,
      "duration": 0.0323,
      "velocity": 99,
      "chip": "ym2612"
    },
    {
      "channel": 4,
      "note": 59,
      "start": 23.6351,
      "duration": 0.0322,
      "velocity": 94,
      "chip": "ym2612"
    },
    {
      "channel": 0,
      "note": 60,
      "start": 23.6812,
      "duration": 0.2609,
      "velocity": 117,
      "chip": "ym2612"
    },
    {
      "channel": 1,
      "note": 69,
      "start": 23.6822,
      "duration": 0.261,
      "velocity": 117,
      "chip": "ym2612"
    },
    {
      "channel": 2,
      "note": 56,
      "start": 23.6834,
      "duration": 0.8875,
      "velocity": 99,
      "chip": "ym2612"
    },
    {
      "channel": 3,
      "note": 56,
      "start": 23.6845,
      "duration": 0.8877,
      "velocity": 99,
      "chip": "ym2612"
    },
    {
      "channel": 4,
      "note": 56,
      "start": 23.6854,
      "duration": 0.2604,
      "velocity": 94,
      "chip": "ym2612"
    },
    {
      "channel": 5,
      "note": 68,
      "start": 23.7766,
      "duration": 0.1702,
      "velocity": 127,
      "chip": "ym2612"
    },
    {
      "channel": 0,
      "note": 62,
      "start": 23.9431,
      "duration": 0.0529,
      "velocity": 117,
      "chip": "ym2612"
    },
    {
      "channel": 1,
      "note": 71,
      "start": 23.9441,
      "duration": 0.0529,
      "velocity": 117,
      "chip": "ym2612"
    },
    {
      "channel": 4,
      "note": 68,
      "start": 23.9467,
      "duration": 0.0321,
      "velocity": 94,
      "chip": "ym2612"
    },
    {
      "channel": 0,
      "note": 62,
      "start": 23.9969,
      "duration": 0.3098,
      "velocity": 117,
      "chip": "ym2612"
    },
    {
      "channel": 1,
      "note": 70,
      "start": 23.998,
      "duration": 0.3098,
      "velocity": 117,
      "chip": "ym2612"
    },
    {
      "channel": 4,
      "note": 59,
      "start": 24.0004,
      "duration": 0.2602,
      "velocity": 94,
      "chip": "ym2612"
    },
    {
      "channel": 5,
      "note": 68,
      "start": 24.0759,
      "duration": 0.1857,
      "velocity": 127,
      "chip": "ym2612"
    },
    {
      "channel": 4,
      "note": 68,
      "start": 24.2614,
      "duration": 0.0319,
      "velocity": 94,
      "chip": "ym2612"
    },
    {
      "channel": 0,
      "note": 60,
      "start": 24.3077,
      "duration": 0.2612,
      "velocity": 117,
      "chip": "ym2612"
    },
    {
      "channel": 1,
      "note": 69,
      "start": 24.3087,
      "duration": 0.2613,
      "velocity": 117,
      "chip": "ym2612"
    },
    {
      "channel": 4,
      "note": 59,
      "start": 24.3112,
      "duration": 0.0908,
      "velocity": 94,
      "chip": "ym2612"
    },
    {
      "channel": 4,
      "note": 61,
      "start": 24.4026,
      "duration": 0.1153,
      "velocity": 94,
      "chip": "ym2612"
    },
    {
      "channel": 5,
      "note": 68,
      "start": 24.4032,
      "duration": 0.1708,
      "velocity": 127,
      "chip": "ym2612"
    },
    {
      "channel": 0,
      "note": 60,
      "start": 24.5698,
      "duration": 0.0538,
      "velocity": 117,
      "chip": "ym2612"
    },
    {
      "channel": 1,
      "note": 69,
      "start": 24.5708,
      "duration": 0.0532,
      "velocity": 117,
      "chip": "ym2612"
    },
    {
      "channel": 2,
      "note": 90,
      "start": 24.572,
      "duration": 0.0326,
      "velocity": 99,
      "chip": "ym2612"
    },
    {
      "channel": 3,
      "note": 85,
      "start": 24.573,
      "duration": 0.0325,
      "velocity": 99,
      "chip": "ym2612"
    },
    {
      "channel": 4,
      "note": 63,
      "start": 24.5739,
      "duration": 0.0324,
      "velocity": 94,
      "chip": "ym2612"
    },
    {
      "channel": 0,
      "note": 58,
      "start": 24.624,
      "duration": 0.1668,
      "velocity": 117,
      "chip": "ym2612"
    },
    {
      "channel": 1,
      "note": 67,
      "start": 24.6244,
      "duration": 0.1673,
      "velocity": 117,
      "chip": "ym2612"
    },
    {
      "channel": 4,
      "note": 59,
      "start": 24.6257,
      "duration": 0.1142,
      "velocity": 94,
      "chip": "ym2612"
    },
    {
      "channel": 5,
      "note": 68,
      "start": 24.6263,
      "duration": 0.1697,
      "velocity": 127,
      "chip": "ym2612"
    },
    {
      "channel": 0,
      "note": 57,
      "start": 24.7917,
      "duration": 0.0529,
      "velocity": 117,
      "chip": "ym2612"
    },
    {
      "channel": 1,
      "note": 65,
      "start": 24.7927,
      "duration": 0.0523,
      "velocity": 117,
      "chip": "ym2612"
    },
    {
      "channel": 2,
      "note": 89,
      "start": 24.7939,
      "duration": 0.0319,
      "velocity": 99,
      "chip": "ym2612"
    },
    {
      "channel": 3,
      "note": 85,
      "start": 24.7949,
      "duration": 0.0318,
      "velocity": 99,
      "chip": "ym2612"
    },
    {
      "channel": 4,
      "note": 66,
      "start": 24.7959,
      "duration": 0.0503,
      "velocity": 94,
      "chip": "ym2612"
    },
    {
      "channel": 0,
      "note": 55,
      "start": 24.8449,
      "duration": 0.1667,
      "velocity": 117,
      "chip": "ym2612"
    },
    {
      "channel": 1,
      "note": 62,
      "start": 24.8453,
      "duration": 0.1673,
      "velocity": 117,
      "chip": "ym2612"
    },
    {
      "channel": 4,
      "note": 68,
      "start": 24.8466,
      "duration": 0.1142,
      "velocity": 94,
      "chip": "ym2612"
    },
    {
      "channel": 5,
      "note": 68,
      "start": 24.8473,
      "duration": 0.1695,
      "velocity": 127,
      "chip": "ym2612"
    },
    {
      "channel": 0,
      "note": 55,
      "start": 25.0125,
      "duration": 0.3927,
      "velocity": 117,
      "chip": "ym2612"
    },
    {
      "channel": 1,
      "note": 62,
      "start": 25.0135,
      "duration": 0.3921,
      "velocity": 117,
      "chip": "ym2612"
    },
    {
      "channel": 2,
      "note": 59,
      "start": 25.0147,
      "duration": 0.8876,
      "velocity": 99,
      "chip": "ym2612"
    },
    {
      "channel": 3,
      "note": 59,
      "start": 25.0158,
      "duration": 0.8877,
      "velocity": 99,
      "chip": "ym2612"
    },
    {
      "channel": 4,
      "note": 59,
      "start": 25.0167,
      "duration": 0.2598,
      "velocity": 94,
      "chip": "ym2612"
    },
    {
      "channel": 4,
      "note": 68,
      "start": 25.2773,
      "duration": 0.0323,
      "velocity": 94,
      "chip": "ym2612"
    },
    {
      "channel": 4,
      "note": 59,
      "start": 25.3303,
      "duration": 0.2612,
      "velocity": 94,
      "chip": "ym2612"
    },
    {
      "channel": 0,
      "note": 66,
      "start": 25.4055,
      "duration": 0.232,
      "velocity": 117,
      "chip": "ym2612"
    },
    {
      "channel": 1,
      "note": 73,
      "start": 25.4059,
      "duration": 0.2327,
      "velocity": 117,
      "chip": "ym2612"
    },
    {
      "channel": 5,
      "note": 68,
      "start": 25.4076,
      "duration": 0.1848,
      "velocity": 127,
      "chip": "ym2612"
    },
    {
      "channel": 4,
      "note": 68,
      "start": 25.5923,
      "duration": 0.0317,
      "velocity": 94,
      "chip": "ym2612"
    },
    {
      "channel": 0,
      "note": 65,
      "start": 25.6385,
      "duration": 0.2617,
      "velocity": 117,
      "chip": "ym2612"
    },
    {
      "channel": 1,
      "note": 72,
      "start": 25.6395,
      "duration": 0.2617,
      "velocity": 117,
      "chip": "ym2612"
    },
    {
      "channel": 4,
      "note": 59,
      "start": 25.6421,
      "duration": 0.0913,
      "velocity": 94,
      "chip": "ym2612"
    },
    {
      "channel": 4,
      "note": 61,
      "start": 25.7339,
      "duration": 0.1153,
      "velocity": 94,
      "chip": "ym2612"
    },
    {
      "channel": 5,
      "note": 68,
      "start": 25.7345,
      "duration": 0.1709,
      "velocity": 127,
      "chip": "ym2612"
    },
    {
      "channel": 0,
      "note": 64,
      "start": 25.9011,
      "duration": 0.0536,
      "velocity": 117,
      "chip": "ym2612"
    },
    {
      "channel": 1,
      "note": 70,
      "start": 25.9021,
      "duration": 0.0537,
      "velocity": 117,
      "chip": "ym2612"
    },
    {
      "channel": 2,
      "note": 90,
      "start": 25.9033,
      "duration": 0.0319,
      "velocity": 99,
      "chip": "ym2612"
    },
    {
      "channel": 3,
      "note": 85,
      "start": 25.9043,
      "duration": 0.0318,
      "velocity": 99,
      "chip": "ym2612"
    },
    {
      "channel": 4,
      "note": 63,
      "start": 25.9052,
      "duration": 0.0317,
      "velocity": 94,
      "chip": "ym2612"
    },
    {
      "channel": 0,
      "note": 62,
      "start": 25.9558,
      "duration": 0.0493,
      "velocity": 117,
      "chip": "ym2612"
    },
    {
      "channel": 1,
      "note": 69,
      "start": 25.9568,
      "duration": 0.0494,
      "velocity": 117,
      "chip": "ym2612"
    },
    {
      "channel": 2,
      "note": 89,
      "start": 25.958,
      "duration": 0.0325,
      "velocity": 99,
      "chip": "ym2612"
    },
    {
      "channel": 3,
      "note": 85,
      "start": 25.959,
      "duration": 0.0324,
      "velocity": 99,
      "chip": "ym2612"
    },
    {
      "channel": 4,
      "note": 59,
      "start": 25.9599,
      "duration": 0.0323,
      "velocity": 94,
      "chip": "ym2612"
    },
    {
      "channel": 0,
      "note": 62,
      "start": 26.006,
      "duration": 0.2611,
      "velocity": 117,
      "chip": "ym2612"
    },
    {
      "channel": 1,
      "note": 69,
      "start": 26.0071,
      "duration": 0.2612,
      "velocity": 117,
      "chip": "ym2612"
    },
    {
      "channel": 2,
      "note": 59,
      "start": 26.0083,
      "duration": 0.8872,
      "velocity": 99,
      "chip": "ym2612"
    },
    {
      "channel": 3,
      "note": 59,
      "start": 26.0093,
      "duration": 0.8874,
      "velocity": 99,
      "chip": "ym2612"
    },
    {
      "channel": 4,
      "note": 59,
      "start": 26.0102,
      "duration": 0.2605,
      "velocity": 94,
      "chip": "ym2612"
    },
    {
      "channel": 5,
      "note": 68,
      "start": 26.1017,
      "duration": 0.1701,
      "velocity": 127,
      "chip": "ym2612"
    },
    {
      "channel": 0,
      "note": 67,
      "start": 26.2681,
      "duration": 0.0523,
      "velocity": 117,
      "chip": "ym2612"
    },
    {
      "channel": 1,
      "note": 74,
      "start": 26.2691,
      "duration": 0.0523,
      "velocity": 117,
      "chip": "ym2612"
    },
    {
      "channel": 4,
      "note": 68,
      "start": 26.2716,
      "duration": 0.0321,
      "velocity": 94,
      "chip": "ym2612"
    },
    {
      "channel": 0,
      "note": 67,
      "start": 26.3213,
      "duration": 0.5722,
      "velocity": 117,
      "chip": "ym2612"
    },
    {
      "channel": 1,
      "note": 74,
      "start": 26.3224,
      "duration": 0.5722,
      "velocity": 117,
      "chip": "ym2612"
    },
    {
      "channel": 4,
      "note": 59,
      "start": 26.3248,
      "duration": 0.2601,
      "velocity": 94,
      "chip": "ym2612"
    },
    {
      "channel": 5,
      "note": 68,
      "start": 26.4004,
      "duration": 0.1856,
      "velocity": 127,
      "chip": "ym2612"
    },
    {
      "channel": 4,
      "note": 68,
      "start": 26.5858,
      "duration": 0.0323,
      "velocity": 94,
      "chip": "ym2612"
    },
    {
      "channel": 4,
      "note": 59,
      "start": 26.6342,
      "duration": 0.0924,
      "velocity": 94,
      "chip": "ym2612"
    },
    {
      "channel": 4,
      "note": 61,
      "start": 26.7271,
      "duration": 0.1153,
      "velocity": 94,
      "chip": "ym2612"
    },
    {
      "channel": 5,
      "note": 68,
      "start": 26.7277,
      "duration": 0.1709,
      "velocity": 127,
      "chip": "ym2612"
    },
    {
      "channel": 0,
      "note": 64,
      "start": 26.8944,
      "duration": 0.053,
      "velocity": 117,
      "chip": "ym2612"
    },
    {
      "channel": 1,
      "note": 72,
      "start": 26.8954,
      "duration": 0.0524,
      "velocity": 117,
      "chip": "ym2612"
    },
    {
      "channel": 2,
      "note": 90,
      "start": 26.8966,
      "duration": 0.0321,
      "velocity": 99,
      "chip": "ym2612"
    },
    {
      "channel": 3,
      "note": 85,
      "start": 26.8976,
      "duration": 0.0319,
      "velocity": 99,
      "chip": "ym2612"
    },
    {
      "channel": 4,
      "note": 63,
      "start": 26.8984,
      "duration": 0.032,
      "velocity": 94,
      "chip": "ym2612"
    },
    {
      "channel": 0,
      "note": 60,
      "start": 26.9478,
      "duration": 0.1669,
      "velocity": 117,
      "chip": "ym2612"
    },
    {
      "channel": 1,
      "note": 74,
      "start": 26.9481,
      "duration": 0.1675,
      "velocity": 117,
      "chip": "ym2612"
    },
    {
      "channel": 4,
      "note": 59,
      "start": 26.9495,
      "duration": 0.1143,
      "velocity": 94,
      "chip": "ym2612"
    },
    {
      "channel": 5,
      "note": 68,
      "start": 26.95,
      "duration": 0.1698,
      "velocity": 127,
      "chip": "ym2612"
    },
    {
      "channel": 0,
      "note": 58,
      "start": 27.1155,
      "duration": 0.0529,
      "velocity": 117,
      "chip": "ym2612"
    },
    {
      "channel": 1,
      "note": 70,
      "start": 27.1166,
      "duration": 0.0523,
      "velocity": 117,
      "chip": "ym2612"
    },
    {
      "channel": 2,
      "note": 89,
      "start": 27.1178,
      "duration": 0.0323,
      "velocity": 99,
      "chip": "ym2612"
    },
    {
      "channel": 3,
      "note": 85,
      "start": 27.1188,
      "duration": 0.0322,
      "velocity": 99,
      "chip": "ym2612"
    },
    {
      "channel": 4,
      "note": 66,
      "start": 27.1197,
      "duration": 0.0504,
      "velocity": 94,
      "chip": "ym2612"
    },
    {
      "channel": 0,
      "note": 57,
      "start": 27.1688,
      "duration": 0.1666,
      "velocity": 117,
      "chip": "ym2612"
    },
    {
      "channel": 1,
      "note": 69,
      "start": 27.1693,
      "duration": 0.1671,
      "velocity": 117,
      "chip": "ym2612"
    },
    {
      "channel": 4,
      "note": 68,
      "start": 27.1705,
      "duration": 0.1141,
      "velocity": 94,
      "chip": "ym2612"
    },
    {
      "channel": 5,
      "note": 68,
      "start": 27.1712,
      "duration": 0.1693,
      "velocity": 127,
      "chip": "ym2612"
    },
    {
      "channel": 0,
      "note": 55,
      "start": 27.3363,
      "duration": 0.8871,
      "velocity": 117,
      "chip": "ym2612"
    },
    {
      "channel": 1,
      "note": 67,
      "start": 27.3373,
      "duration": 0.887,
      "velocity": 117,
      "chip": "ym2612"
    },
    {
      "channel": 2,
      "note": 61,
      "start": 27.3385,
      "duration": 0.887,
      "velocity": 99,
      "chip": "ym2612"
    },
    {
      "channel": 3,
      "note": 61,
      "start": 27.3395,
      "duration": 0.8872,
      "velocity": 99,
      "chip": "ym2612"
    },
    {
      "channel": 4,
      "note": 61,
      "start": 27.3404,
      "duration": 0.2589,
      "velocity": 94,
      "chip": "ym2612"
    },
    {
      "channel": 4,
      "note": 68,
      "start": 27.6001,
      "duration": 0.0319,
      "velocity": 94,
      "chip": "ym2612"
    },
    {
      "channel": 4,
      "note": 61,
      "start": 27.653,
      "duration": 0.2612,
      "velocity": 94,
      "chip": "ym2612"
    },
    {
      "channel": 5,
      "note": 68,
      "start": 27.7294,
      "duration": 0.1857,
      "velocity": 127,
      "chip": "ym2612"
    },
    {
      "channel": 4,
      "note": 68,
      "start": 27.915,
      "duration": 0.0322,
      "velocity": 94,
      "chip": "ym2612"
    },
    {
      "channel": 4,
      "note": 61,
      "start": 27.9641,
      "duration": 0.0925,
      "velocity": 94,
      "chip": "ym2612"
    },
    {
      "channel": 4,
      "note": 63,
      "start": 28.0571,
      "duration": 0.1153,
      "velocity": 94,
      "chip": "ym2612"
    },
    {
      "channel": 5,
      "note": 68,
      "start": 28.0577,
      "duration": 0.1708,
      "velocity": 127,
      "chip": "ym2612"
    },
    {
      "channel": 0,
      "note": 67,
      "start": 28.2242,
      "duration": 0.1041,
      "velocity": 117,
      "chip": "ym2612"
    },
    {
      "channel": 1,
      "note": 74,
      "start": 28.2253,
      "duration": 0.104,
      "velocity": 117,
      "chip": "ym2612"
    },
    {
      "channel": 2,
      "note": 90,
      "start": 28.2265,
      "duration": 0.0327,
      "velocity": 99,
      "chip": "ym2612"
    },
    {
      "channel": 3,
      "note": 85,
      "start": 28.2275,
      "duration": 0.0326,
      "velocity": 99,
      "chip": "ym2612"
    },
    {
      "channel": 4,
      "note": 64,
      "start": 28.2284,
      "duration": 0.0325,
      "velocity": 94,
      "chip": "ym2612"
    },
    {
      "channel": 2,
      "note": 89,
      "start": 28.2807,
      "duration": 0.0322,
      "velocity": 99,
      "chip": "ym2612"
    },
    {
      "channel": 3,
      "note": 85,
      "start": 28.2818,
      "duration": 0.032,
      "velocity": 99,
      "chip": "ym2612"
    },
    {
      "channel": 4,
      "note": 61,
      "start": 28.2827,
      "duration": 0.0319,
      "velocity": 94,
      "chip": "ym2612"
    },
    {
      "channel": 0,
      "note": 64,
      "start": 28.3292,
      "duration": 0.2606,
      "velocity": 117,
      "chip": "ym2612"
    },
    {
      "channel": 1,
      "note": 76,
      "start": 28.3302,
      "duration": 0.2606,
      "velocity": 117,
      "chip": "ym2612"
    },
    {
      "channel": 2,
      "note": 61,
      "start": 28.3314,
      "duration": 0.8875,
      "velocity": 99,
      "chip": "ym2612"
    },
    {
      "channel": 3,
      "note": 61,
      "start": 28.3324,
      "duration": 0.8876,
      "velocity": 99,
      "chip": "ym2612"
    },
    {
      "channel": 4,
      "note": 61,
      "start": 28.3334,
      "duration": 0.26,
      "velocity": 94,
      "chip": "ym2612"
    },
    {
      "channel": 5,
      "note": 68,
      "start": 28.4243,
      "duration": 0.17,
      "velocity": 127,
      "chip": "ym2612"
    },
    {
      "channel": 0,
      "note": 72,
      "start": 28.5907,
      "duration": 0.0529,
      "velocity": 117,
      "chip": "ym2612"
    },
    {
      "channel": 1,
      "note": 79,
      "start": 28.5917,
      "duration": 0.0529,
      "velocity": 117,
      "chip": "ym2612"
    },
    {
      "channel": 4,
      "note": 68,
      "start": 28.5942,
      "duration": 0.0327,
      "velocity": 94,
      "chip": "ym2612"
    },
    {
      "channel": 0,
      "note": 72,
      "start": 28.6445,
      "duration": 0.5722,
      "velocity": 117,
      "chip": "ym2612"
    },
    {
      "channel": 1,
      "note": 79,
      "start": 28.6456,
      "duration": 0.5721,
      "velocity": 117,
      "chip": "ym2612"
    },
    {
      "channel": 4,
      "note": 61,
      "start": 28.6481,
      "duration": 0.2594,
      "velocity": 94,
      "chip": "ym2612"
    },
    {
      "channel": 5,
      "note": 68,
      "start": 28.7229,
      "duration": 0.1856,
      "velocity": 127,
      "chip": "ym2612"
    },
    {
      "channel": 4,
      "note": 68,
      "start": 28.9083,
      "duration": 0.0324,
      "velocity": 94,
      "chip": "ym2612"
    },
    {
      "channel": 4,
      "note": 61,
      "start": 28.9576,
      "duration": 0.0924,
      "velocity": 94,
      "chip": "ym2612"
    },
    {
      "channel": 4,
      "note": 63,
      "start": 29.0505,
      "duration": 0.1153,
      "velocity": 94,
      "chip": "ym2612"
    },
    {
      "channel": 5,
      "note": 68,
      "start": 29.051,
      "duration": 0.1708,
      "velocity": 127,
      "chip": "ym2612"
    },
    {
      "channel": 0,
      "note": 69,
      "start": 29.2176,
      "duration": 0.2212,
      "velocity": 117,
      "chip": "ym2612"
    },
    {
      "channel": 1,
      "note": 76,
      "start": 29.2187,
      "duration": 0.2211,
      "velocity": 117,
      "chip": "ym2612"
    },
    {
      "channel": 2,
      "note": 90,
      "start": 29.2199,
      "duration": 0.0325,
      "velocity": 99,
      "chip": "ym2612"
    },
    {
      "channel": 3,
      "note": 85,
      "start": 29.2208,
      "duration": 0.0325,
      "velocity": 99,
      "chip": "ym2612"
    },
    {
      "channel": 4,
      "note": 64,
      "start": 29.2218,
      "duration": 0.0324,
      "velocity": 94,
      "chip": "ym2612"
    },
    {
      "channel": 4,
      "note": 61,
      "start": 29.2728,
      "duration": 0.1152,
      "velocity": 94,
      "chip": "ym2612"
    },
    {
      "channel": 5,
      "note": 68,
      "start": 29.2734,
      "duration": 0.1706,
      "velocity": 127,
      "chip": "ym2612"
    },
    {
      "channel": 0,
      "note": 67,
      "start": 29.4397,
      "duration": 0.2204,
      "velocity": 117,
      "chip": "ym2612"
    },
    {
      "channel": 1,
      "note": 79,
      "start": 29.4408,
      "duration": 0.2204,
      "velocity": 117,
      "chip": "ym2612"
    },
    {
      "channel": 2,
      "note": 89,
      "start": 29.4419,
      "duration": 0.0321,
      "velocity": 99,
      "chip": "ym2612"
    },
    {
      "channel": 3,
      "note": 85,
      "start": 29.4429,
      "duration": 0.0319,
      "velocity": 99,
      "chip": "ym2612"
    },
    {
      "channel": 4,
      "note": 56,
      "start": 29.4439,
      "duration": 0.0498,
      "velocity": 94,
      "chip": "ym2612"
    },
    {
      "channel": 4,
      "note": 68,
      "start": 29.4941,
      "duration": 0.1151,
      "velocity": 94,
      "chip": "ym2612"
    },
    {
      "channel": 5,
      "note": 68,
      "start": 29.4947,
      "duration": 0.1707,
      "velocity": 127,
      "chip": "ym2612"
    },
    {
      "channel": 0,
      "note": 69,
      "start": 29.6611,
      "duration": 1.3646,
      "velocity": 117,
      "chip": "ym2612"
    },
    {
      "channel": 1,
      "note": 83,
      "start": 29.6622,
      "duration": 1.3646,
      "velocity": 117,
      "chip": "ym2612"
    },
    {
      "channel": 2,
      "note": 56,
      "start": 29.6634,
      "duration": 0.8849,
      "velocity": 99,
      "chip": "ym2612"
    },
    {
      "channel": 3,
      "note": 56,
      "start": 29.6644,
      "duration": 0.8851,
      "velocity": 99,
      "chip": "ym2612"
    },
    {
      "channel": 4,
      "note": 56,
      "start": 29.6653,
      "duration": 0.2586,
      "velocity": 94,
      "chip": "ym2612"
    },
    {
      "channel": 4,
      "note": 68,
      "start": 29.9248,
      "duration": 0.033,
      "velocity": 94,
      "chip": "ym2612"
    },
    {
      "channel": 4,
      "note": 59,
      "start": 29.9777,
      "duration": 0.2605,
      "velocity": 94,
      "chip": "ym2612"
    },
    {
      "channel": 5,
      "note": 68,
      "start": 30.0536,
      "duration": 0.1854,
      "velocity": 127,
      "chip": "ym2612"
    },
    {
      "channel": 4,
      "note": 68,
      "start": 30.2389,
      "duration": 0.0339,
      "velocity": 94,
      "chip": "ym2612"
    },
    {
      "channel": 4,
      "note": 59,
      "start": 30.2883,
      "duration": 0.0925,
      "velocity": 94,
      "chip": "ym2612"
    },
    {
      "channel": 4,
      "note": 61,
      "start": 30.3813,
      "duration": 0.115,
      "velocity": 94,
      "chip": "ym2612"
    },
    {
      "channel": 5,
      "note": 68,
      "start": 30.3819,
      "duration": 0.1694,
      "velocity": 127,
      "chip": "ym2612"
    },
    {
      "channel": 2,
      "note": 90,
      "start": 30.5492,
      "duration": 0.0332,
      "velocity": 99,
      "chip": "ym2612"
    },
    {
      "channel": 3,
      "note": 85,
      "start": 30.5503,
      "duration": 0.033,
      "velocity": 99,
      "chip": "ym2612"
    },
    {
      "channel": 4,
      "note": 63,
      "start": 30.5512,
      "duration": 0.0329,
      "velocity": 94,
      "chip": "ym2612"
    },
    {
      "channel": 2,
      "note": 89,
      "start": 30.604,
      "duration": 0.0334,
      "velocity": 99,
      "chip": "ym2612"
    },
    {
      "channel": 3,
      "note": 85,
      "start": 30.605,
      "duration": 0.0333,
      "velocity": 99,
      "chip": "ym2612"
    },
    {
      "channel": 4,
      "note": 59,
      "start": 30.6059,
      "duration": 0.0332,
      "velocity": 94,
      "chip": "ym2612"
    },
    {
      "channel": 2,
      "note": 56,
      "start": 30.6538,
      "duration": 0.517,
      "velocity": 99,
      "chip": "ym2612"
    },
    {
      "channel": 3,
      "note": 56,
      "start": 30.6547,
      "duration": 0.5173,
      "velocity": 99,
      "chip": "ym2612"
    },
    {
      "channel": 4,
      "note": 56,
      "start": 30.6557,
      "duration": 0.1418,
      "velocity": 94,
      "chip": "ym2612"
    },
    {
      "channel": 4,
      "note": 68,
      "start": 30.7984,
      "duration": 0.033,
      "velocity": 94,
      "chip": "ym2612"
    },
    {
      "channel": 4,
      "note": 59,
      "start": 30.8513,
      "duration": 0.1293,
      "velocity": 94,
      "chip": "ym2612"
    },
    {
      "channel": 4,
      "note": 68,
      "start": 30.9815,
      "duration": 0.033,
      "velocity": 94,
      "chip": "ym2612"
    },
    {
      "channel": 0,
      "note": 67,
      "start": 31.0267,
      "duration": 0.1421,
      "velocity": 117,
      "chip": "ym2612"
    },
    {
      "channel": 1,
      "note": 82,
      "start": 31.0278,
      "duration": 0.142,
      "velocity": 117,
      "chip": "ym2612"
    },
    {
      "channel": 4,
      "note": 59,
      "start": 31.0302,
      "duration": 0.0927,
      "velocity": 94,
      "chip": "ym2612"
    },
    {
      "channel": 4,
      "note": 61,
      "start": 31.1237,
      "duration": 0.0331,
      "velocity": 94,
      "chip": "ym2612"
    },
    {
      "channel": 0,
      "note": 59,
      "start": 31.1696,
      "duration": 0.0537,
      "velocity": 117,
      "chip": "ym2612"
    },
    {
      "channel": 1,
      "note": 79,
      "start": 31.1707,
      "duration": 0.0536,
      "velocity": 117,
      "chip": "ym2612"
    },
    {
      "channel": 2,
      "note": 90,
      "start": 31.1718,
      "duration": 0.0323,
      "velocity": 99,
      "chip": "ym2612"
    },
    {
      "channel": 3,
      "note": 85,
      "start": 31.1728,
      "duration": 0.0323,
      "velocity": 99,
      "chip": "ym2612"
    },
    {
      "channel": 4,
      "note": 63,
      "start": 31.1737,
      "duration": 0.0322,
      "velocity": 94,
      "chip": "ym2612"
    },
    {
      "channel": 0,
      "note": 58,
      "start": 31.2242,
      "duration": 0.05,
      "velocity": 117,
      "chip": "ym2612"
    },
    {
      "channel": 1,
      "note": 77,
      "start": 31.2254,
      "duration": 0.0499,
      "velocity": 117,
      "chip": "ym2612"
    },
    {
      "channel": 4,
      "note": 59,
      "start": 31.2281,
      "duration": 0.0342,
      "velocity": 94,
      "chip": "ym2612"
    },
    {
      "channel": 0,
      "note": 57,
      "start": 31.2752,
      "duration": 0.0542,
      "velocity": 117,
      "chip": "ym2612"
    },
    {
      "channel": 1,
      "note": 74,
      "start": 31.2762,
      "duration": 0.0543,
      "velocity": 117,
      "chip": "ym2612"
    },
    {
      "channel": 2,
      "note": 89,
      "start": 31.2774,
      "duration": 0.0324,
      "velocity": 99,
      "chip": "ym2612"
    },
    {
      "channel": 3,
      "note": 85,
      "start": 31.2784,
      "duration": 0.0323,
      "velocity": 99,
      "chip": "ym2612"
    },
    {
      "channel": 4,
      "note": 66,
      "start": 31.2793,
      "duration": 0.054,
      "velocity": 94,
      "chip": "ym2612"
    },
    {
      "channel": 0,
      "note": 57,
      "start": 31.3304,
      "duration": 0.0505,
      "velocity": 117,
      "chip": "ym2612"
    },
    {
      "channel": 1,
      "note": 72,
      "start": 31.3315,
      "duration": 0.0534,
      "velocity": 117,
      "chip": "ym2612"
    },
    {
      "channel": 4,
      "note": 68,
      "start": 31.3342,
      "duration": 0.0335,
      "velocity": 94,
      "chip": "ym2612"
    },
    {
      "channel": 0,
      "note": 68,
      "start": 31.3847,
      "duration": 1.0121,
      "velocity": 101,
      "chip": "ym2612"
    },
    {
      "channel": 1,
      "note": 56,
      "start": 31.3887,
      "duration": 1.0094,
      "velocity": 105,
      "chip": "ym2612"
    },
    {
      "channel": 2,
      "note": 65,
      "start": 31.3958,
      "duration": 1.0032,
      "velocity": 101,
      "chip": "ym2612"
    },
    {
      "channel": 3,
      "note": 56,
      "start": 31.4008,
      "duration": 0.9996,
      "velocity": 105,
      "chip": "ym2612"
    },
    {
      "channel": 4,
      "note": 70,
      "start": 31.4017,
      "duration": 0.2517,
      "velocity": 94,
      "chip": "ym2612"
    },
    {
      "channel": 5,
      "note": 56,
      "start": 31.4873,
      "duration": 0.1667,
      "velocity": 127,
      "chip": "ym2612"
    },
    {
      "channel": 4,
      "note": 58,
      "start": 31.6539,
      "duration": 0.1843,
      "velocity": 94,
      "chip": "ym2612"
    },
    {
      "channel": 5,
      "note": 56,
      "start": 31.6545,
      "duration": 0.1846,
      "velocity": 127,
      "chip": "ym2612"
    },
    {
      "channel": 4,
      "note": 58,
      "start": 31.839,
      "duration": 0.2594,
      "velocity": 94,
      "chip": "ym2612"
    },
    {
      "channel": 5,
      "note": 56,
      "start": 31.9156,
      "duration": 0.1834,
      "velocity": 127,
      "chip": "ym2612"
    },
    {
      "channel": 4,
      "note": 58,
      "start": 32.0989,
      "duration": 0.1676,
      "velocity": 94,
      "chip": "ym2612"
    },
    {
      "channel": 5,
      "note": 56,
      "start": 32.0995,
      "duration": 0.168,
      "velocity": 127,
      "chip": "ym2612"
    },
    {
      "channel": 4,
      "note": 56,
      "start": 32.2674,
      "duration": 0.0528,
      "velocity": 94,
      "chip": "ym2612"
    },
    {
      "channel": 4,
      "note": 58,
      "start": 32.321,
      "duration": 0.0803,
      "velocity": 94,
      "chip": "ym2612"
    },
    {
      "channel": 0,
      "note": 68,
      "start": 32.3979,
      "duration": 0.2617,
      "velocity": 101,
      "chip": "ym2612"
    },
    {
      "channel": 1,
      "note": 56,
      "start": 32.3989,
      "duration": 0.261,
      "velocity": 105,
      "chip": "ym2612"
    },
    {
      "channel": 2,
      "note": 65,
      "start": 32.4002,
      "duration": 0.2602,
      "velocity": 101,
      "chip": "ym2612"
    },
    {
      "channel": 3,
      "note": 68,
      "start": 32.4012,
      "duration": 1.006,
      "velocity": 105,
      "chip": "ym2612"
    },
    {
      "channel": 4,
      "note": 68,
      "start": 32.402,
      "duration": 0.0912,
      "velocity": 94,
      "chip": "ym2612"
    },
    {
      "channel": 4,
      "note": 70,
      "start": 32.4937,
      "duration": 0.1675,
      "velocity": 94,
      "chip": "ym2612"
    },
    {
      "channel": 5,
      "note": 56,
      "start": 32.4942,
      "duration": 0.1674,
      "velocity": 127,
      "chip": "ym2612"
    },
    {
      "channel": 0,
      "note": 67,
      "start": 32.6599,
      "duration": 0.2611,
      "velocity": 101,
      "chip": "ym2612"
    },
    {
      "channel": 1,
      "note": 55,
      "start": 32.6602,
      "duration": 0.2612,
      "velocity": 105,
      "chip": "ym2612"
    },
    {
      "channel": 2,
      "note": 63,
      "start": 32.6607,
      "duration": 0.2612,
      "velocity": 101,
      "chip": "ym2612"
    },
    {
      "channel": 4,
      "note": 58,
      "start": 32.6616,
      "duration": 0.1839,
      "velocity": 94,
      "chip": "ym2612"
    },
    {
      "channel": 5,
      "note": 56,
      "start": 32.6622,
      "duration": 0.1842,
      "velocity": 127,
      "chip": "ym2612"
    },
    {
      "channel": 4,
      "note": 58,
      "start": 32.8463,
      "duration": 0.2588,
      "velocity": 94,
      "chip": "ym2612"
    },
    {
      "channel": 0,
      "note": 65,
      "start": 32.9213,
      "duration": 0.3504,
      "velocity": 101,
      "chip": "ym2612"
    },
    {
      "channel": 1,
      "note": 56,
      "start": 32.9218,
      "duration": 0.351,
      "velocity": 105,
      "chip": "ym2612"
    },
    {
      "channel": 2,
      "note": 61,
      "start": 32.9222,
      "duration": 0.3516,
      "velocity": 101,
      "chip": "ym2612"
    },
    {
      "channel": 5,
      "note": 56,
      "start": 32.9236,
      "duration": 0.182,
      "velocity": 127,
      "chip": "ym2612"
    },
    {
      "channel": 4,
      "note": 58,
      "start": 33.1055,
      "duration": 0.1702,
      "velocity": 94,
      "chip": "ym2612"
    },
    {
      "channel": 5,
      "note": 56,
      "start": 33.1061,
      "duration": 0.1705,
      "velocity": 127,
      "chip": "ym2612"
    },
    {
      "channel": 0,
      "note": 67,
      "start": 33.2727,
      "duration": 0.1311,
      "velocity": 101,
      "chip": "ym2612"
    },
    {
      "channel": 1,
      "note": 58,
      "start": 33.2737,
      "duration": 0.1311,
      "velocity": 105,
      "chip": "ym2612"
    },
    {
      "channel": 2,
      "note": 63,
      "start": 33.2748,
      "duration": 0.131,
      "velocity": 101,
      "chip": "ym2612"
    },
    {
      "channel": 4,
      "note": 60,
      "start": 33.2766,
      "duration": 0.0515,
      "velocity": 94,
      "chip": "ym2612"
    },
    {
      "channel": 4,
      "note": 61,
      "start": 33.3288,
      "duration": 0.0792,
      "velocity": 94,
      "chip": "ym2612"
    },
    {
      "channel": 0,
      "note": 63,
      "start": 33.4047,
      "duration": 1.0058,
      "velocity": 101,
      "chip": "ym2612"
    },
    {
      "channel": 1,
      "note": 60,
      "start": 33.4057,
      "duration": 0.444,
      "velocity": 105,
      "chip": "ym2612"
    },
    {
      "channel": 2,
      "note": 60,
      "start": 33.4069,
      "duration": 1.0057,
      "velocity": 101,
      "chip": "ym2612"
    },
    {
      "channel": 3,
      "note": 67,
      "start": 33.4079,
      "duration": 0.5202,
      "velocity": 105,
      "chip": "ym2612"
    },
    {
      "channel": 4,
      "note": 72,
      "start": 33.4088,
      "duration": 0.2581,
      "velocity": 94,
      "chip": "ym2612"
    },
    {
      "channel": 5,
      "note": 56,
      "start": 33.5008,
      "duration": 0.1667,
      "velocity": 127,
      "chip": "ym2612"
    },
    {
      "channel": 4,
      "note": 60,
      "start": 33.6674,
      "duration": 0.1849,
      "velocity": 94,
      "chip": "ym2612"
    },
    {
      "channel": 5,
      "note": 56,
      "start": 33.668,
      "duration": 0.1852,
      "velocity": 127,
      "chip": "ym2612"
    },
    {
      "channel": 1,
      "note": 60,
      "start": 33.8506,
      "duration": 0.4273,
      "velocity": 105,
      "chip": "ym2612"
    },
    {
      "channel": 4,
      "note": 60,
      "start": 33.8531,
      "duration": 0.2588,
      "velocity": 94,
      "chip": "ym2612"
    },
    {
      "channel": 3,
      "note": 66,
      "start": 33.9286,
      "duration": 0.4853,
      "velocity": 105,
      "chip": "ym2612"
    },
    {
      "channel": 5,
      "note": 56,
      "start": 33.9295,
      "duration": 0.1829,
      "velocity": 127,
      "chip": "ym2612"
    },
    {
      "channel": 4,
      "note": 60,
      "start": 34.1124,
      "duration": 0.1682,
      "velocity": 94,
      "chip": "ym2612"
    },
    {
      "channel": 5,
      "note": 56,
      "start": 34.113,
      "duration": 0.1684,
      "velocity": 127,
      "chip": "ym2612"
    },
    {
      "channel": 1,
      "note": 58,
      "start": 34.2789,
      "duration": 0.1326,
      "velocity": 105,
      "chip": "ym2612"
    },
    {
      "channel": 4,
      "note": 58,
      "start": 34.2813,
      "duration": 0.0522,
      "velocity": 94,
      "chip": "ym2612"
    },
    {
      "channel": 4,
      "note": 60,
      "start": 34.3343,
      "duration": 0.0805,
      "velocity": 94,
      "chip": "ym2612"
    },
    {
      "channel": 0,
      "note": 63,
      "start": 34.4114,
      "duration": 0.261,
      "velocity": 101,
      "chip": "ym2612"
    },
    {
      "channel": 1,
      "note": 57,
      "start": 34.4125,
      "duration": 0.2603,
      "velocity": 105,
      "chip": "ym2612"
    },
    {
      "channel": 2,
      "note": 60,
      "start": 34.4136,
      "duration": 0.2595,
      "velocity": 101,
      "chip": "ym2612"
    },
    {
      "channel": 3,
      "note": 65,
      "start": 34.4146,
      "duration": 1.0059,
      "velocity": 105,
      "chip": "ym2612"
    },
    {
      "channel": 4,
      "note": 63,
      "start": 34.4156,
      "duration": 0.0904,
      "velocity": 94,
      "chip": "ym2612"
    },
    {
      "channel": 4,
      "note": 65,
      "start": 34.5065,
      "duration": 0.1675,
      "velocity": 94,
      "chip": "ym2612"
    },
    {
      "channel": 5,
      "note": 56,
      "start": 34.5071,
      "duration": 0.1674,
      "velocity": 127,
      "chip": "ym2612"
    },
    {
      "channel": 0,
      "note": 61,
      "start": 34.6728,
      "duration": 0.2611,
      "velocity": 101,
      "chip": "ym2612"
    },
    {
      "channel": 1,
      "note": 66,
      "start": 34.6731,
      "duration": 0.2612,
      "velocity": 105,
      "chip": "ym2612"
    },
    {
      "channel": 2,
      "note": 58,
      "start": 34.6735,
      "duration": 0.2612,
      "velocity": 101,
      "chip": "ym2612"
    },
    {
      "channel": 4,
      "note": 53,
      "start": 34.6744,
      "duration": 0.1839,
      "velocity": 94,
      "chip": "ym2612"
    },
    {
      "channel": 5,
      "note": 56,
      "start": 34.6751,
      "duration": 0.1842,
      "velocity": 127,
      "chip": "ym2612"
    },
    {
      "channel": 4,
      "note": 53,
      "start": 34.8591,
      "duration": 0.2591,
      "velocity": 94,
      "chip": "ym2612"
    },
    {
      "channel": 0,
      "note": 60,
      "start": 34.9342,
      "duration": 0.3505,
      "velocity": 101,
      "chip": "ym2612"
    },
    {
      "channel": 1,
      "note": 65,
      "start": 34.9346,
      "duration": 0.3511,
      "velocity": 105,
      "chip": "ym2612"
    },
    {
      "channel": 2,
      "note": 57,
      "start": 34.935,
      "duration": 0.3518,
      "velocity": 101,
      "chip": "ym2612"
    },
    {
      "channel": 5,
      "note": 56,
      "start": 34.9364,
      "duration": 0.1824,
      "velocity": 127,
      "chip": "ym2612"
    },
    {
      "channel": 4,
      "note": 65,
      "start": 35.1187,
      "duration": 0.17,
      "velocity": 94,
      "chip": "ym2612"
    },
    {
      "channel": 5,
      "note": 56,
      "start": 35.1193,
      "duration": 0.1703,
      "velocity": 127,
      "chip": "ym2612"
    },
    {
      "channel": 0,
      "note": 63,
      "start": 35.2856,
      "duration": 0.1316,
      "velocity": 101,
      "chip": "ym2612"
    },
    {
      "channel": 1,
      "note": 63,
      "start": 35.2867,
      "duration": 0.1315,
      "velocity": 105,
      "chip": "ym2612"
    },
    {
      "channel": 2,
      "note": 60,
      "start": 35.2878,
      "duration": 0.1314,
      "velocity": 101,
      "chip": "ym2612"
    },
    {
      "channel": 4,
      "note": 63,
      "start": 35.2895,
      "duration": 0.0517,
      "velocity": 94,
      "chip": "ym2612"
    },
    {
      "channel": 4,
      "note": 65,
      "start": 35.3421,
      "duration": 0.0819,
      "velocity": 94,
      "chip": "ym2612"
    },
    {
      "channel": 0,
      "note": 61,
      "start": 35.4181,
      "duration": 0.2629,
      "velocity": 101,
      "chip": "ym2612"
    },
    {
      "channel": 1,
      "note": 61,
      "start": 35.4191,
      "duration": 0.3152,
      "velocity": 105,
      "chip": "ym2612"
    },
    {
      "channel": 2,
      "note": 58,
      "start": 35.4203,
      "duration": 0.2625,
      "velocity": 101,
      "chip": "ym2612"
    },
    {
      "channel": 3,
      "note": 58,
      "start": 35.4239,
      "duration": 0.753,
      "velocity": 99,
      "chip": "ym2612"
    },
    {
      "channel": 4,
      "note": 58,
      "start": 35.4247,
      "duration": 0.0894,
      "velocity": 94,
      "chip": "ym2612"
    },
    {
      "channel": 4,
      "note": 58,
      "start": 35.5146,
      "duration": 0.1702,
      "velocity": 94,
      "chip": "ym2612"
    },
    {
      "channel": 0,
      "note": 63,
      "start": 35.6819,
      "duration": 0.0513,
      "velocity": 101,
      "chip": "ym2612"
    },
    {
      "channel": 2,
      "note": 60,
      "start": 35.6839,
      "duration": 0.0514,
      "velocity": 101,
      "chip": "ym2612"
    },
    {
      "channel": 4,
      "note": 58,
      "start": 35.6856,
      "duration": 0.0515,
      "velocity": 94,
      "chip": "ym2612"
    },
    {
      "channel": 0,
      "note": 65,
      "start": 35.7341,
      "duration": 0.3095,
      "velocity": 101,
      "chip": "ym2612"
    },
    {
      "channel": 1,
      "note": 60,
      "start": 35.7352,
      "duration": 0.3094,
      "velocity": 105,
      "chip": "ym2612"
    },
    {
      "channel": 2,
      "note": 61,
      "start": 35.7363,
      "duration": 0.3093,
      "velocity": 101,
      "chip": "ym2612"
    },
    {
      "channel": 4,
      "note": 58,
      "start": 35.738,
      "duration": 0.0462,
      "velocity": 94,
      "chip": "ym2612"
    },
    {
      "channel": 4,
      "note": 58,
      "start": 35.7849,
      "duration": 0.0916,
      "velocity": 94,
      "chip": "ym2612"
    },
    {
      "channel": 4,
      "note": 58,
      "start": 35.8771,
      "duration": 0.1706,
      "velocity": 94,
      "chip": "ym2612"
    },
    {
      "channel": 0,
      "note": 61,
      "start": 36.0445,
      "duration": 0.1313,
      "velocity": 101,
      "chip": "ym2612"
    },
    {
      "channel": 1,
      "note": 58,
      "start": 36.0455,
      "duration": 0.0523,
      "velocity": 105,
      "chip": "ym2612"
    },
    {
      "channel": 2,
      "note": 58,
      "start": 36.0467,
      "duration": 0.1298,
      "velocity": 101,
      "chip": "ym2612"
    },
    {
      "channel": 4,
      "note": 58,
      "start": 36.0484,
      "duration": 0.0522,
      "velocity": 94,
      "chip": "ym2612"
    },
    {
      "channel": 1,
      "note": 60,
      "start": 36.0988,
      "duration": 0.8664,
      "velocity": 105,
      "chip": "ym2612"
    },
    {
      "channel": 4,
      "note": 58,
      "start": 36.1013,
      "duration": 0.0761,
      "velocity": 94,
      "chip": "ym2612"
    },
    {
      "channel": 0,
      "note": 63,
      "start": 36.1762,
      "duration": 0.2612,
      "velocity": 101,
      "chip": "ym2612"
    },
    {
      "channel": 2,
      "note": 60,
      "start": 36.1768,
      "duration": 0.2625,
      "velocity": 101,
      "chip": "ym2612"
    },
    {
      "channel": 3,
      "note": 60,
      "start": 36.1774,
      "duration": 0.7901,
      "velocity": 99,
      "chip": "ym2612"
    },
    {
      "channel": 4,
      "note": 60,
      "start": 36.1779,
      "duration": 0.1839,
      "velocity": 94,
      "chip": "ym2612"
    },
    {
      "channel": 4,
      "note": 60,
      "start": 36.3627,
      "duration": 0.0786,
      "velocity": 94,
      "chip": "ym2612"
    },
    {
      "channel": 0,
      "note": 67,
      "start": 36.4383,
      "duration": 0.0524,
      "velocity": 101,
      "chip": "ym2612"
    },
    {
      "channel": 2,
      "note": 63,
      "start": 36.4403,
      "duration": 0.0523,
      "velocity": 101,
      "chip": "ym2612"
    },
    {
      "channel": 4,
      "note": 60,
      "start": 36.4421,
      "duration": 0.0525,
      "velocity": 94,
      "chip": "ym2612"
    },
    {
      "channel": 0,
      "note": 68,
      "start": 36.4917,
      "duration": 0.3394,
      "velocity": 101,
      "chip": "ym2612"
    },
    {
      "channel": 2,
      "note": 63,
      "start": 36.4936,
      "duration": 0.3394,
      "velocity": 101,
      "chip": "ym2612"
    },
    {
      "channel": 4,
      "note": 60,
      "start": 36.4955,
      "duration": 0.0741,
      "velocity": 94,
      "chip": "ym2612"
    },
    {
      "channel": 4,
      "note": 60,
      "start": 36.57,
      "duration": 0.1854,
      "velocity": 94,
      "chip": "ym2612"
    },
    {
      "channel": 4,
      "note": 60,
      "start": 36.7562,
      "duration": 0.0788,
      "velocity": 94,
      "chip": "ym2612"
    },
    {
      "channel": 0,
      "note": 72,
      "start": 36.8321,
      "duration": 0.132,
      "velocity": 101,
      "chip": "ym2612"
    },
    {
      "channel": 2,
      "note": 68,
      "start": 36.834,
      "duration": 0.1322,
      "velocity": 101,
      "chip": "ym2612"
    },
    {
      "channel": 4,
      "note": 60,
      "start": 36.8358,
      "duration": 0.0515,
      "velocity": 94,
      "chip": "ym2612"
    },
    {
      "channel": 4,
      "note": 60,
      "start": 36.888,
      "duration": 0.0804,
      "velocity": 94,
      "chip": "ym2612"
    },
    {
      "channel": 0,
      "note": 75,
      "start": 36.9651,
      "duration": 0.1019,
      "velocity": 101,
      "chip": "ym2612"
    },
    {
      "channel": 1,
      "note": 63,
      "start": 36.9661,
      "duration": 0.102,
      "velocity": 105,
      "chip": "ym2612"
    },
    {
      "channel": 2,
      "note": 72,
      "start": 36.9673,
      "duration": 0.1018,
      "velocity": 101,
      "chip": "ym2612"
    },
    {
      "channel": 3,
      "note": 58,
      "start": 36.9683,
      "duration": 0.4499,
      "velocity": 99,
      "chip": "ym2612"
    },
    {
      "channel": 4,
      "note": 58,
      "start": 36.9692,
      "duration": 0.0516,
      "velocity": 94,
      "chip": "ym2612"
    },
    {
      "channel": 4,
      "note": 58,
      "start": 37.0216,
      "duration": 0.0496,
      "velocity": 94,
      "chip": "ym2612"
    },
    {
      "channel": 0,
      "note": 77,
      "start": 37.068,
      "duration": 0.0531,
      "velocity": 101,
      "chip": "ym2612"
    },
    {
      "channel": 1,
      "note": 63,
      "start": 37.069,
      "duration": 0.0531,
      "velocity": 105,
      "chip": "ym2612"
    },
    {
      "channel": 2,
      "note": 74,
      "start": 37.0702,
      "duration": 0.0529,
      "velocity": 101,
      "chip": "ym2612"
    },
    {
      "channel": 4,
      "note": 58,
      "start": 37.072,
      "duration": 0.0532,
      "velocity": 94,
      "chip": "ym2612"
    },
    {
      "channel": 0,
      "note": 77,
      "start": 37.122,
      "duration": 0.1488,
      "velocity": 101,
      "chip": "ym2612"
    },
    {
      "channel": 1,
      "note": 62,
      "start": 37.1231,
      "duration": 0.1004,
      "velocity": 105,
      "chip": "ym2612"
    },
    {
      "channel": 2,
      "note": 74,
      "start": 37.1242,
      "duration": 0.1487,
      "velocity": 101,
      "chip": "ym2612"
    },
    {
      "channel": 4,
      "note": 58,
      "start": 37.126,
      "duration": 0.0464,
      "velocity": 94,
      "chip": "ym2612"
    },
    {
      "channel": 4,
      "note": 58,
      "start": 37.1731,
      "duration": 0.053,
      "velocity": 94,
      "chip": "ym2612"
    },
    {
      "channel": 1,
      "note": 68,
      "start": 37.2244,
      "duration": 0.0474,
      "velocity": 105,
      "chip": "ym2612"
    },
    {
      "channel": 4,
      "note": 58,
      "start": 37.2269,
      "duration": 0.048,
      "velocity": 94,
      "chip": "ym2612"
    },
    {
      "channel": 0,
      "note": 80,
      "start": 37.2717,
      "duration": 0.095,
      "velocity": 101,
      "chip": "ym2612"
    },
    {
      "channel": 1,
      "note": 68,
      "start": 37.2728,
      "duration": 0.095,
      "velocity": 105,
      "chip": "ym2612"
    },
    {
      "channel": 2,
      "note": 77,
      "start": 37.274,
      "duration": 0.0949,
      "velocity": 101,
      "chip": "ym2612"
    },
    {
      "channel": 4,
      "note": 58,
      "start": 37.2757,
      "duration": 0.0952,
      "velocity": 94,
      "chip": "ym2612"
    },
    {
      "channel": 0,
      "note": 82,
      "start": 37.3677,
      "duration": 0.1802,
      "velocity": 101,
      "chip": "ym2612"
    },
    {
      "channel": 1,
      "note": 68,
      "start": 37.3688,
      "duration": 0.0476,
      "velocity": 105,
      "chip": "ym2612"
    },
    {
      "channel": 2,
      "note": 79,
      "start": 37.37,
      "duration": 0.1799,
      "velocity": 101,
      "chip": "ym2612"
    },
    {
      "channel": 4,
      "note": 58,
      "start": 37.3716,
      "duration": 0.0474,
      "velocity": 94,
      "chip": "ym2612"
    },
    {
      "channel": 1,
      "note": 67,
      "start": 37.4172,
      "duration": 0.0526,
      "velocity": 105,
      "chip": "ym2612"
    },
    {
      "channel": 3,
      "note": 63,
      "start": 37.419,
      "duration": 0.1319,
      "velocity": 99,
      "chip": "ym2612"
    },
    {
      "channel": 4,
      "note": 63,
      "start": 37.4199,
      "duration": 0.1319,
      "velocity": 94,
      "chip": "ym2612"
    },
    {
      "channel": 1,
      "note": 67,
      "start": 37.4708,
      "duration": 0.0781,
      "velocity": 105,
      "chip": "ym2612"
    },
    {
      "channel": 3,
      "note": 63,
      "start": 37.5517,
      "duration": 0.1526,
      "velocity": 99,
      "chip": "ym2612"
    },
    {
      "channel": 4,
      "note": 63,
      "start": 37.5527,
      "duration": 0.1524,
      "velocity": 94,
      "chip": "ym2612"
    },
    {
      "channel": 0,
      "note": 84,
      "start": 37.7022,
      "duration": 0.1774,
      "velocity": 105,
      "chip": "ym2612"
    },
    {
      "channel": 4,
      "note": 75,
      "start": 37.7059,
      "duration": 0.0963,
      "velocity": 94,
      "chip": "ym2612"
    },
    {
      "channel": 4,
      "note": 63,
      "start": 37.803,
      "duration": 0.0803,
      "velocity": 94,
      "chip": "ym2612"
    },
    {
      "channel": 0,
      "note": 85,
      "start": 37.8804,
      "duration": 0.1394,
      "velocity": 105,
      "chip": "ym2612"
    },
    {
      "channel": 4,
      "note": 63,
      "start": 37.8841,
      "duration": 0.0563,
      "velocity": 94,
      "chip": "ym2612"
    },
    {
      "channel": 4,
      "note": 75,
      "start": 37.9413,
      "duration": 0.0934,
      "velocity": 94,
      "chip": "ym2612"
    },
    {
      "channel": 0,
      "note": 87,
      "start": 38.0208,
      "duration": 0.2667,
      "velocity": 105,
      "chip": "ym2612"
    },
    {
      "channel": 1,
      "note": 94,
      "start": 38.0249,
      "duration": 0.2637,
      "velocity": 99,
      "chip": "ym2612"
    },
    {
      "channel": 2,
      "note": 82,
      "start": 38.0293,
      "duration": 0.2603,
      "velocity": 99,
      "chip": "ym2612"
    },
    {
      "channel": 3,
      "note": 82,
      "start": 38.0346,
      "duration": 0.6229,
      "velocity": 99,
      "chip": "ym2612"
    },
    {
      "channel": 4,
      "note": 58,
      "start": 38.0355,
      "duration": 0.0851,
      "velocity": 94,
      "chip": "ym2612"
    },
    {
      "channel": 4,
      "note": 58,
      "start": 38.1211,
      "duration": 0.1706,
      "velocity": 94,
      "chip": "ym2612"
    },
    {
      "channel": 0,
      "note": 85,
      "start": 38.2885,
      "duration": 0.0334,
      "velocity": 105,
      "chip": "ym2612"
    },
    {
      "channel": 1,
      "note": 94,
      "start": 38.2895,
      "duration": 0.0282,
      "velocity": 99,
      "chip": "ym2612"
    },
    {
      "channel": 2,
      "note": 85,
      "start": 38.2907,
      "duration": 0.028,
      "velocity": 99,
      "chip": "ym2612"
    },
    {
      "channel": 4,
      "note": 58,
      "start": 38.2924,
      "duration": 0.0537,
      "velocity": 94,
      "chip": "ym2612"
    },
    {
      "channel": 0,
      "note": 84,
      "start": 38.3431,
      "duration": 0.033,
      "velocity": 105,
      "chip": "ym2612"
    },
    {
      "channel": 1,
      "note": 96,
      "start": 38.3441,
      "duration": 0.0278,
      "velocity": 99,
      "chip": "ym2612"
    },
    {
      "channel": 2,
      "note": 87,
      "start": 38.3454,
      "duration": 0.0275,
      "velocity": 99,
      "chip": "ym2612"
    },
    {
      "channel": 4,
      "note": 58,
      "start": 38.3469,
      "duration": 0.0489,
      "velocity": 94,
      "chip": "ym2612"
    },
    {
      "channel": 0,
      "note": 85,
      "start": 38.3927,
      "duration": 0.1428,
      "velocity": 105,
      "chip": "ym2612"
    },
    {
      "channel": 1,
      "note": 97,
      "start": 38.3938,
      "duration": 0.2616,
      "velocity": 99,
      "chip": "ym2612"
    },
    {
      "channel": 2,
      "note": 89,
      "start": 38.395,
      "duration": 0.3939,
      "velocity": 99,
      "chip": "ym2612"
    },
    {
      "channel": 4,
      "note": 58,
      "start": 38.3967,
      "duration": 0.0907,
      "velocity": 94,
      "chip": "ym2612"
    },
    {
      "channel": 4,
      "note": 60,
      "start": 38.4879,
      "duration": 0.1704,
      "velocity": 94,
      "chip": "ym2612"
    },
    {
      "channel": 0,
      "note": 82,
      "start": 38.6553,
      "duration": 0.7891,
      "velocity": 105,
      "chip": "ym2612"
    },
    {
      "channel": 1,
      "note": 99,
      "start": 38.6564,
      "duration": 0.0281,
      "velocity": 99,
      "chip": "ym2612"
    },
    {
      "channel": 3,
      "note": 87,
      "start": 38.6582,
      "duration": 0.028,
      "velocity": 99,
      "chip": "ym2612"
    },
    {
      "channel": 4,
      "note": 61,
      "start": 38.6592,
      "duration": 0.0532,
      "velocity": 94,
      "chip": "ym2612"
    },
    {
      "channel": 1,
      "note": 101,
      "start": 38.7105,
      "duration": 0.0283,
      "velocity": 99,
      "chip": "ym2612"
    },
    {
      "channel": 3,
      "note": 89,
      "start": 38.7123,
      "duration": 0.0281,
      "velocity": 99,
      "chip": "ym2612"
    },
    {
      "channel": 4,
      "note": 61,
      "start": 38.7132,
      "duration": 0.0766,
      "velocity": 94,
      "chip": "ym2612"
    },
    {
      "channel": 1,
      "note": 104,
      "start": 38.7888,
      "duration": 0.3921,
      "velocity": 99,
      "chip": "ym2612"
    },
    {
      "channel": 2,
      "note": 91,
      "start": 38.7893,
      "duration": 0.3145,
      "velocity": 99,
      "chip": "ym2612"
    },
    {
      "channel": 3,
      "note": 91,
      "start": 38.7898,
      "duration": 0.5776,
      "velocity": 99,
      "chip": "ym2612"
    },
    {
      "channel": 4,
      "note": 63,
      "start": 38.7903,
      "duration": 0.1841,
      "velocity": 94,
      "chip": "ym2612"
    },
    {
      "channel": 4,
      "note": 63,
      "start": 38.9752,
      "duration": 0.0773,
      "velocity": 94,
      "chip": "ym2612"
    },
    {
      "channel": 4,
      "note": 63,
      "start": 39.0533,
      "duration": 0.0525,
      "velocity": 94,
      "chip": "ym2612"
    },
    {
      "channel": 2,
      "note": 92,
      "start": 39.1049,
      "duration": 0.0274,
      "velocity": 99,
      "chip": "ym2612"
    },
    {
      "channel": 4,
      "note": 63,
      "start": 39.1066,
      "duration": 0.0755,
      "velocity": 94,
      "chip": "ym2612"
    },
    {
      "channel": 1,
      "note": 103,
      "start": 39.1812,
      "duration": 0.6615,
      "velocity": 99,
      "chip": "ym2612"
    },
    {
      "channel": 2,
      "note": 94,
      "start": 39.1817,
      "duration": 0.0985,
      "velocity": 99,
      "chip": "ym2612"
    },
    {
      "channel": 4,
      "note": 61,
      "start": 39.1826,
      "duration": 0.1857,
      "velocity": 94,
      "chip": "ym2612"
    },
    {
      "channel": 2,
      "note": 92,
      "start": 39.3672,
      "duration": 0.028,
      "velocity": 99,
      "chip": "ym2612"
    },
    {
      "channel": 3,
      "note": 92,
      "start": 39.3681,
      "duration": 0.0279,
      "velocity": 99,
      "chip": "ym2612"
    },
    {
      "channel": 4,
      "note": 61,
      "start": 39.3691,
      "duration": 0.0794,
      "velocity": 94,
      "chip": "ym2612"
    },
    {
      "channel": 0,
      "note": 80,
      "start": 39.4454,
      "duration": 0.0329,
      "velocity": 105,
      "chip": "ym2612"
    },
    {
      "channel": 2,
      "note": 91,
      "start": 39.4473,
      "duration": 0.0277,
      "velocity": 99,
      "chip": "ym2612"
    },
    {
      "channel": 3,
      "note": 91,
      "start": 39.4484,
      "duration": 0.0276,
      "velocity": 99,
      "chip": "ym2612"
    },
    {
      "channel": 4,
      "note": 61,
      "start": 39.4493,
      "duration": 0.0544,
      "velocity": 94,
      "chip": "ym2612"
    },
    {
      "channel": 0,
      "note": 79,
      "start": 39.5005,
      "duration": 0.0329,
      "velocity": 105,
      "chip": "ym2612"
    },
    {
      "channel": 2,
      "note": 87,
      "start": 39.5025,
      "duration": 0.0276,
      "velocity": 99,
      "chip": "ym2612"
    },
    {
      "channel": 3,
      "note": 87,
      "start": 39.5035,
      "duration": 0.0275,
      "velocity": 99,
      "chip": "ym2612"
    },
    {
      "channel": 4,
      "note": 61,
      "start": 39.5044,
      "duration": 0.0786,
      "velocity": 94,
      "chip": "ym2612"
    },
    {
      "channel": 0,
      "note": 82,
      "start": 39.5799,
      "duration": 0.2618,
      "velocity": 105,
      "chip": "ym2612"
    },
    {
      "channel": 2,
      "note": 84,
      "start": 39.5819,
      "duration": 0.314,
      "velocity": 99,
      "chip": "ym2612"
    },
    {
      "channel": 3,
      "note": 87,
      "start": 39.5829,
      "duration": 0.6266,
      "velocity": 99,
      "chip": "ym2612"
    },
    {
      "channel": 4,
      "note": 60,
      "start": 39.5838,
      "duration": 0.0912,
      "velocity": 94,
      "chip": "ym2612"
    },
    {
      "channel": 4,
      "note": 60,
      "start": 39.6755,
      "duration": 0.1698,
      "velocity": 94,
      "chip": "ym2612"
    },
    {
      "channel": 0,
      "note": 79,
      "start": 39.8426,
      "duration": 0.1013,
      "velocity": 105,
      "chip": "ym2612"
    },
    {
      "channel": 1,
      "note": 99,
      "start": 39.8437,
      "duration": 0.1014,
      "velocity": 99,
      "chip": "ym2612"
    },
    {
      "channel": 4,
      "note": 60,
      "start": 39.8462,
      "duration": 0.0516,
      "velocity": 94,
      "chip": "ym2612"
    },
    {
      "channel": 2,
      "note": 85,
      "start": 39.8969,
      "duration": 0.028,
      "velocity": 99,
      "chip": "ym2612"
    },
    {
      "channel": 4,
      "note": 60,
      "start": 39.8986,
      "duration": 0.0495,
      "velocity": 94,
      "chip": "ym2612"
    },
    {
      "channel": 0,
      "note": 82,
      "start": 39.9449,
      "duration": 0.2615,
      "velocity": 105,
      "chip": "ym2612"
    },
    {
      "channel": 1,
      "note": 103,
      "start": 39.9459,
      "duration": 0.2616,
      "velocity": 99,
      "chip": "ym2612"
    },
    {
      "channel": 2,
      "note": 87,
      "start": 39.9472,
      "duration": 0.3923,
      "velocity": 99,
      "chip": "ym2612"
    },
    {
      "channel": 4,
      "note": 60,
      "start": 39.9489,
      "duration": 0.0906,
      "velocity": 94,
      "chip": "ym2612"
    },
    {
      "channel": 4,
      "note": 60,
      "start": 40.04,
      "duration": 0.1704,
      "velocity": 94,
      "chip": "ym2612"
    },
    {
      "channel": 0,
      "note": 80,
      "start": 40.2074,
      "duration": 0.3955,
      "velocity": 105,
      "chip": "ym2612"
    },
    {
      "channel": 1,
      "note": 101,
      "start": 40.2085,
      "duration": 0.4503,
      "velocity": 99,
      "chip": "ym2612"
    },
    {
      "channel": 3,
      "note": 89,
      "start": 40.2103,
      "duration": 0.028,
      "velocity": 99,
      "chip": "ym2612"
    },
    {
      "channel": 4,
      "note": 60,
      "start": 40.2113,
      "duration": 0.0523,
      "velocity": 94,
      "chip": "ym2612"
    },
    {
      "channel": 3,
      "note": 91,
      "start": 40.2635,
      "duration": 0.028,
      "velocity": 99,
      "chip": "ym2612"
    },
    {
      "channel": 4,
      "note": 60,
      "start": 40.2644,
      "duration": 0.076,
      "velocity": 94,
      "chip": "ym2612"
    },
    {
      "channel": 2,
      "note": 92,
      "start": 40.3398,
      "duration": 0.0986,
      "velocity": 99,
      "chip": "ym2612"
    },
    {
      "channel": 3,
      "note": 89,
      "start": 40.3403,
      "duration": 0.0985,
      "velocity": 99,
      "chip": "ym2612"
    },
    {
      "channel": 4,
      "note": 53,
      "start": 40.3409,
      "duration": 0.1857,
      "velocity": 94,
      "chip": "ym2612"
    },
    {
      "channel": 2,
      "note": 91,
      "start": 40.5255,
      "duration": 0.0282,
      "velocity": 99,
      "chip": "ym2612"
    },
    {
      "channel": 3,
      "note": 87,
      "start": 40.5265,
      "duration": 0.0281,
      "velocity": 99,
      "chip": "ym2612"
    },
    {
      "channel": 4,
      "note": 53,
      "start": 40.5275,
      "duration": 0.0795,
      "velocity": 94,
      "chip": "ym2612"
    },
    {
      "channel": 0,
      "note": 82,
      "start": 40.6039,
      "duration": 0.0539,
      "velocity": 105,
      "chip": "ym2612"
    },
    {
      "channel": 2,
      "note": 89,
      "start": 40.6058,
      "duration": 0.028,
      "velocity": 99,
      "chip": "ym2612"
    },
    {
      "channel": 3,
      "note": 84,
      "start": 40.6069,
      "duration": 0.0279,
      "velocity": 99,
      "chip": "ym2612"
    },
    {
      "channel": 4,
      "note": 53,
      "start": 40.6077,
      "duration": 0.0542,
      "velocity": 94,
      "chip": "ym2612"
    },
    {
      "channel": 0,
      "note": 80,
      "start": 40.6587,
      "duration": 0.0793,
      "velocity": 105,
      "chip": "ym2612"
    },
    {
      "channel": 2,
      "note": 91,
      "start": 40.6608,
      "duration": 0.0285,
      "velocity": 99,
      "chip": "ym2612"
    },
    {
      "channel": 3,
      "note": 87,
      "start": 40.6618,
      "duration": 0.0284,
      "velocity": 99,
      "chip": "ym2612"
    },
    {
      "channel": 4,
      "note": 53,
      "start": 40.6627,
      "duration": 0.077,
      "velocity": 94,
      "chip": "ym2612"
    },
    {
      "channel": 0,
      "note": 79,
      "start": 40.7383,
      "duration": 0.1145,
      "velocity": 105,
      "chip": "ym2612"
    },
    {
      "channel": 1,
      "note": 101,
      "start": 40.7386,
      "duration": 0.213,
      "velocity": 99,
      "chip": "ym2612"
    },
    {
      "channel": 2,
      "note": 92,
      "start": 40.739,
      "duration": 0.0978,
      "velocity": 99,
      "chip": "ym2612"
    },
    {
      "channel": 3,
      "note": 89,
      "start": 40.7396,
      "duration": 0.0976,
      "velocity": 99,
      "chip": "ym2612"
    },
    {
      "channel": 4,
      "note": 53,
      "start": 40.7401,
      "duration": 0.1855,
      "velocity": 94,
      "chip": "ym2612"
    },
    {
      "channel": 0,
      "note": 80,
      "start": 40.9225,
      "duration": 0.0332,
      "velocity": 105,
      "chip": "ym2612"
    },
    {
      "channel": 2,
      "note": 91,
      "start": 40.9245,
      "duration": 0.028,
      "velocity": 99,
      "chip": "ym2612"
    },
    {
      "channel": 3,
      "note": 87,
      "start": 40.9255,
      "duration": 0.0278,
      "velocity": 99,
      "chip": "ym2612"
    },
    {
      "channel": 4,
      "note": 53,
      "start": 40.9264,
      "duration": 0.0798,
      "velocity": 94,
      "chip": "ym2612"
    },
    {
      "channel": 0,
      "note": 82,
      "start": 41.0028,
      "duration": 0.0692,
      "velocity": 105,
      "chip": "ym2612"
    },
    {
      "channel": 1,
      "note": 103,
      "start": 41.0039,
      "duration": 0.0536,
      "velocity": 99,
      "chip": "ym2612"
    },
    {
      "channel": 2,
      "note": 89,
      "start": 41.005,
      "duration": 0.0282,
      "velocity": 99,
      "chip": "ym2612"
    },
    {
      "channel": 3,
      "note": 84,
      "start": 41.0061,
      "duration": 0.0281,
      "velocity": 99,
      "chip": "ym2612"
    },
    {
      "channel": 4,
      "note": 53,
      "start": 41.007,
      "duration": 0.0537,
      "velocity": 94,
      "chip": "ym2612"
    },
    {
      "channel": 2,
      "note": 84,
      "start": 41.0595,
      "duration": 0.029,
      "velocity": 99,
      "chip": "ym2612"
    },
    {
      "channel": 3,
      "note": 80,
      "start": 41.0605,
      "duration": 0.0289,
      "velocity": 99,
      "chip": "ym2612"
    },
    {
      "channel": 4,
      "note": 53,
      "start": 41.0615,
      "duration": 0.0808,
      "velocity": 94,
      "chip": "ym2612"
    },
    {
      "channel": 0,
      "note": 84,
      "start": 41.1389,
      "duration": 0.7535,
      "velocity": 105,
      "chip": "ym2612"
    },
    {
      "channel": 1,
      "note": 104,
      "start": 41.14,
      "duration": 0.7528,
      "velocity": 99,
      "chip": "ym2612"
    },
    {
      "channel": 2,
      "note": 89,
      "start": 41.1411,
      "duration": 1.146,
      "velocity": 99,
      "chip": "ym2612"
    },
    {
      "channel": 3,
      "note": 85,
      "start": 41.1421,
      "duration": 1.1454,
      "velocity": 99,
      "chip": "ym2612"
    },
    {
      "channel": 4,
      "note": 61,
      "start": 41.1431,
      "duration": 0.0902,
      "velocity": 94,
      "chip": "ym2612"
    },
    {
      "channel": 4,
      "note": 61,
      "start": 41.2337,
      "duration": 0.1688,
      "velocity": 94,
      "chip": "ym2612"
    },
    {
      "channel": 4,
      "note": 61,
      "start": 41.4033,
      "duration": 0.051,
      "velocity": 94,
      "chip": "ym2612"
    },
    {
      "channel": 4,
      "note": 61,
      "start": 41.4551,
      "duration": 0.0475,
      "velocity": 94,
      "chip": "ym2612"
    },
    {
      "channel": 4,
      "note": 61,
      "start": 41.5033,
      "duration": 0.0922,
      "velocity": 94,
      "chip": "ym2612"
    },
    {
      "channel": 4,
      "note": 61,
      "start": 41.596,
      "duration": 0.1687,
      "velocity": 94,
      "chip": "ym2612"
    },
    {
      "channel": 4,
      "note": 61,
      "start": 41.7655,
      "duration": 0.052,
      "velocity": 94,
      "chip": "ym2612"
    },
    {
      "channel": 4,
      "note": 60,
      "start": 41.8183,
      "duration": 0.0756,
      "velocity": 94,
      "chip": "ym2612"
    },
    {
      "channel": 0,
      "note": 85,
      "start": 41.8927,
      "duration": 0.7872,
      "velocity": 105,
      "chip": "ym2612"
    },
    {
      "channel": 1,
      "note": 104,
      "start": 41.8931,
      "duration": 0.7872,
      "velocity": 99,
      "chip": "ym2612"
    },
    {
      "channel": 4,
      "note": 58,
      "start": 41.8943,
      "duration": 0.1846,
      "velocity": 94,
      "chip": "ym2612"
    },
    {
      "channel": 4,
      "note": 58,
      "start": 42.0796,
      "duration": 0.0775,
      "velocity": 94,
      "chip": "ym2612"
    },
    {
      "channel": 4,
      "note": 58,
      "start": 42.1579,
      "duration": 0.0529,
      "velocity": 94,
      "chip": "ym2612"
    },
    {
      "channel": 4,
      "note": 58,
      "start": 42.2117,
      "duration": 0.0765,
      "velocity": 94,
      "chip": "ym2612"
    },
    {
      "channel": 2,
      "note": 88,
      "start": 42.2875,
      "duration": 0.3932,
      "velocity": 99,
      "chip": "ym2612"
    },
    {
      "channel": 3,
      "note": 85,
      "start": 42.288,
      "duration": 0.394,
      "velocity": 99,
      "chip": "ym2612"
    },
    {
      "channel": 4,
      "note": 58,
      "start": 42.2885,
      "duration": 0.1843,
      "velocity": 94,
      "chip": "ym2612"
    },
    {
      "channel": 4,
      "note": 58,
      "start": 42.4737,
      "duration": 0.0775,
      "velocity": 94,
      "chip": "ym2612"
    },
    {
      "channel": 4,
      "note": 56,
      "start": 42.552,
      "duration": 0.0519,
      "velocity": 94,
      "chip": "ym2612"
    },
    {
      "channel": 4,
      "note": 58,
      "start": 42.6046,
      "duration": 0.0779,
      "velocity": 94,
      "chip": "ym2612"
    },
    {
      "channel": 0,
      "note": 87,
      "start": 42.6802,
      "duration": 0.3164,
      "velocity": 105,
      "chip": "ym2612"
    },
    {
      "channel": 1,
      "note": 92,
      "start": 42.6806,
      "duration": 0.3171,
      "velocity": 99,
      "chip": "ym2612"
    },
    {
      "channel": 2,
      "note": 64,
      "start": 42.682,
      "duration": 0.1824,
      "velocity": 101,
      "chip": "ym2612"
    },
    {
      "channel": 4,
      "note": 66,
      "start": 42.683,
      "duration": 0.1834,
      "velocity": 94,
      "chip": "ym2612"
    },
    {
      "channel": 3,
      "note": 64,
      "start": 42.7315,
      "duration": 0.1341,
      "velocity": 101,
      "chip": "ym2612"
    },
    {
      "channel": 2,
      "note": 68,
      "start": 42.8654,
      "duration": 0.078,
      "velocity": 101,
      "chip": "ym2612"
    },
    {
      "channel": 4,
      "note": 66,
      "start": 42.8673,
      "duration": 0.0782,
      "velocity": 94,
      "chip": "ym2612"
    },
    {
      "channel": 3,
      "note": 68,
      "start": 42.8809,
      "duration": 0.0638,
      "velocity": 101,
      "chip": "ym2612"
    },
    {
      "channel": 2,
      "note": 73,
      "start": 42.9445,
      "duration": 0.0543,
      "velocity": 101,
      "chip": "ym2612"
    },
    {
      "channel": 4,
      "note": 66,
      "start": 42.9463,
      "duration": 0.0545,
      "velocity": 94,
      "chip": "ym2612"
    },
    {
      "channel": 3,
      "note": 73,
      "start": 42.9601,
      "duration": 0.0399,
      "velocity": 101,
      "chip": "ym2612"
    },
    {
      "channel": 0,
      "note": 85,
      "start": 42.9976,
      "duration": 0.3412,
      "velocity": 105,
      "chip": "ym2612"
    },
    {
      "channel": 1,
      "note": 92,
      "start": 42.9986,
      "duration": 0.3412,
      "velocity": 99,
      "chip": "ym2612"
    },
    {
      "channel": 2,
      "note": 66,
      "start": 42.9998,
      "duration": 0.0758,
      "velocity": 101,
      "chip": "ym2612"
    },
    {
      "channel": 4,
      "note": 59,
      "start": 43.0017,
      "duration": 0.0748,
      "velocity": 94,
      "chip": "ym2612"
    },
    {
      "channel": 3,
      "note": 66,
      "start": 43.0155,
      "duration": 0.0605,
      "velocity": 101,
      "chip": "ym2612"
    },
    {
      "channel": 2,
      "note": 69,
      "start": 43.0759,
      "duration": 0.1847,
      "velocity": 101,
      "chip": "ym2612"
    },
    {
      "channel": 4,
      "note": 59,
      "start": 43.0769,
      "duration": 0.1857,
      "velocity": 94,
      "chip": "ym2612"
    },
    {
      "channel": 3,
      "note": 69,
      "start": 43.1258,
      "duration": 0.136,
      "velocity": 101,
      "chip": "ym2612"
    },
    {
      "channel": 2,
      "note": 76,
      "start": 43.2616,
      "duration": 0.0793,
      "velocity": 101,
      "chip": "ym2612"
    },
    {
      "channel": 4,
      "note": 59,
      "start": 43.2634,
      "duration": 0.0794,
      "velocity": 94,
      "chip": "ym2612"
    },
    {
      "channel": 3,
      "note": 76,
      "start": 43.2771,
      "duration": 0.065,
      "velocity": 101,
      "chip": "ym2612"
    },
    {
      "channel": 0,
      "note": 83,
      "start": 43.3397,
      "duration": 0.1321,
      "velocity": 105,
      "chip": "ym2612"
    },
    {
      "channel": 1,
      "note": 100,
      "start": 43.3408,
      "duration": 0.1315,
      "velocity": 99,
      "chip": "ym2612"
    },
    {
      "channel": 2,
      "note": 64,
      "start": 43.3419,
      "duration": 0.0522,
      "velocity": 101,
      "chip": "ym2612"
    },
    {
      "channel": 4,
      "note": 62,
      "start": 43.3437,
      "duration": 0.0525,
      "velocity": 94,
      "chip": "ym2612"
    },
    {
      "channel": 3,
      "note": 64,
      "start": 43.3575,
      "duration": 0.0379,
      "velocity": 101,
      "chip": "ym2612"
    },
    {
      "channel": 2,
      "note": 68,
      "start": 43.3952,
      "duration": 0.0774,
      "velocity": 101,
      "chip": "ym2612"
    },
    {
      "channel": 4,
      "note": 63,
      "start": 43.397,
      "duration": 0.0765,
      "velocity": 94,
      "chip": "ym2612"
    },
    {
      "channel": 3,
      "note": 68,
      "start": 43.4107,
      "duration": 0.0624,
      "velocity": 101,
      "chip": "ym2612"
    },
    {
      "channel": 0,
      "note": 82,
      "start": 43.4722,
      "duration": 0.1839,
      "velocity": 105,
      "chip": "ym2612"
    },
    {
      "channel": 1,
      "note": 101,
      "start": 43.4726,
      "duration": 0.2689,
      "velocity": 99,
      "chip": "ym2612"
    },
    {
      "channel": 2,
      "note": 63,
      "start": 43.4729,
      "duration": 0.1848,
      "velocity": 101,
      "chip": "ym2612"
    },
    {
      "channel": 4,
      "note": 51,
      "start": 43.474,
      "duration": 0.1915,
      "velocity": 94,
      "chip": "ym2612"
    },
    {
      "channel": 3,
      "note": 63,
      "start": 43.5221,
      "duration": 0.1399,
      "velocity": 101,
      "chip": "ym2612"
    },
    {
      "channel": 2,
      "note": 75,
      "start": 43.6618,
      "duration": 0.0352,
      "velocity": 99,
      "chip": "ym2612"
    },
    {
      "channel": 3,
      "note": 67,
      "start": 43.6653,
      "duration": 0.0325,
      "velocity": 99,
      "chip": "ym2612"
    },
    {
      "channel": 4,
      "note": 63,
      "start": 43.6707,
      "duration": 0.0739,
      "velocity": 94,
      "chip": "ym2612"
    },
    {
      "channel": 2,
      "note": 77,
      "start": 43.7435,
      "duration": 0.0344,
      "velocity": 99,
      "chip": "ym2612"
    },
    {
      "channel": 3,
      "note": 68,
      "start": 43.7445,
      "duration": 0.0344,
      "velocity": 99,
      "chip": "ym2612"
    },
    {
      "channel": 4,
      "note": 51,
      "start": 43.7454,
      "duration": 0.0564,
      "velocity": 94,
      "chip": "ym2612"
    },
    {
      "channel": 2,
      "note": 79,
      "start": 43.8007,
      "duration": 0.0339,
      "velocity": 99,
      "chip": "ym2612"
    },
    {
      "channel": 3,
      "note": 70,
      "start": 43.8017,
      "duration": 0.0337,
      "velocity": 99,
      "chip": "ym2612"
    },
    {
      "channel": 4,
      "note": 61,
      "start": 43.8026,
      "duration": 0.0768,
      "velocity": 94,
      "chip": "ym2612"
    },
    {
      "channel": 2,
      "note": 80,
      "start": 43.8789,
      "duration": 0.1153,
      "velocity": 99,
      "chip": "ym2612"
    },
    {
      "channel": 3,
      "note": 72,
      "start": 43.8794,
      "duration": 0.1151,
      "velocity": 99,
      "chip": "ym2612"
    },
    {
      "channel": 4,
      "note": 51,
      "start": 43.88,
      "duration": 0.1858,
      "velocity": 94,
      "chip": "ym2612"
    },
    {
      "channel": 2,
      "note": 79,
      "start": 44.0646,
      "duration": 0.034,
      "velocity": 99,
      "chip": "ym2612"
    },
    {
      "channel": 3,
      "note": 70,
      "start": 44.0656,
      "duration": 0.0339,
      "velocity": 99,
      "chip": "ym2612"
    },
    {
      "channel": 4,
      "note": 63,
      "start": 44.0666,
      "duration": 0.081,
      "velocity": 94,
      "chip": "ym2612"
    },
    {
      "channel": 0,
      "note": 84,
      "start": 44.1442,
      "duration": 0.033,
      "velocity": 105,
      "chip": "ym2612"
    },
    {
      "channel": 1,
      "note": 92,
      "start": 44.1453,
      "duration": 0.0282,
      "velocity": 99,
      "chip": "ym2612"
    },
    {
      "channel": 2,
      "note": 80,
      "start": 44.1464,
      "duration": 0.0327,
      "velocity": 99,
      "chip": "ym2612"
    },
    {
      "channel": 3,
      "note": 72,
      "start": 44.1475,
      "duration": 0.0326,
      "velocity": 99,
      "chip": "ym2612"
    },
    {
      "channel": 4,
      "note": 56,
      "start": 44.1484,
      "duration": 0.055,
      "velocity": 94,
      "chip": "ym2612"
    },
    {
      "channel": 0,
      "note": 85,
      "start": 44.2,
      "duration": 0.033,
      "velocity": 105,
      "chip": "ym2612"
    },
    {
      "channel": 1,
      "note": 92,
      "start": 44.2011,
      "duration": 0.028,
      "velocity": 99,
      "chip": "ym2612"
    },
    {
      "channel": 2,
      "note": 82,
      "start": 44.2022,
      "duration": 0.0326,
      "velocity": 99,
      "chip": "ym2612"
    },
    {
      "channel": 3,
      "note": 73,
      "start": 44.2033,
      "duration": 0.0324,
      "velocity": 99,
      "chip": "ym2612"
    },
    {
      "channel": 4,
      "note": 56,
      "start": 44.2042,
      "duration": 0.079,
      "velocity": 94,
      "chip": "ym2612"
    },
    {
      "channel": 0,
      "note": 87,
      "start": 44.2799,
      "duration": 0.2611,
      "velocity": 105,
      "chip": "ym2612"
    },
    {
      "channel": 1,
      "note": 94,
      "start": 44.281,
      "duration": 0.2611,
      "velocity": 99,
      "chip": "ym2612"
    },
    {
      "channel": 2,
      "note": 82,
      "start": 44.2821,
      "duration": 0.261,
      "velocity": 99,
      "chip": "ym2612"
    },
    {
      "channel": 3,
      "note": 82,
      "start": 44.2831,
      "duration": 0.6278,
      "velocity": 99,
      "chip": "ym2612"
    },
    {
      "channel": 4,
      "note": 58,
      "start": 44.2841,
      "duration": 0.0899,
      "velocity": 94,
      "chip": "ym2612"
    },
    {
      "channel": 4,
      "note": 58,
      "start": 44.3745,
      "duration": 0.1706,
      "velocity": 94,
      "chip": "ym2612"
    },
    {
      "channel": 0,
      "note": 85,
      "start": 44.542,
      "duration": 0.0334,
      "velocity": 105,
      "chip": "ym2612"
    },
    {
      "channel": 1,
      "note": 94,
      "start": 44.543,
      "duration": 0.0282,
      "velocity": 99,
      "chip": "ym2612"
    },
    {
      "channel": 2,
      "note": 85,
      "start": 44.5442,
      "duration": 0.028,
      "velocity": 99,
      "chip": "ym2612"
    },
    {
      "channel": 4,
      "note": 58,
      "start": 44.5459,
      "duration": 0.0537,
      "velocity": 94,
      "chip": "ym2612"
    },
    {
      "channel": 0,
      "note": 84,
      "start": 44.5965,
      "duration": 0.033,
      "velocity": 105,
      "chip": "ym2612"
    },
    {
      "channel": 1,
      "note": 96,
      "start": 44.5976,
      "duration": 0.0278,
      "velocity": 99,
      "chip": "ym2612"
    },
    {
      "channel": 2,
      "note": 87,
      "start": 44.5988,
      "duration": 0.0275,
      "velocity": 99,
      "chip": "ym2612"
    },
    {
      "channel": 4,
      "note": 58,
      "start": 44.6004,
      "duration": 0.049,
      "velocity": 94,
      "chip": "ym2612"
    },
    {
      "channel": 0,
      "note": 85,
      "start": 44.6462,
      "duration": 0.1428,
      "velocity": 105,
      "chip": "ym2612"
    },
    {
      "channel": 1,
      "note": 97,
      "start": 44.6473,
      "duration": 0.2616,
      "velocity": 99,
      "chip": "ym2612"
    },
    {
      "channel": 2,
      "note": 89,
      "start": 44.6484,
      "duration": 0.3931,
      "velocity": 99,
      "chip": "ym2612"
    },
    {
      "channel": 4,
      "note": 58,
      "start": 44.6502,
      "duration": 0.0907,
      "velocity": 94,
      "chip": "ym2612"
    },
    {
      "channel": 4,
      "note": 60,
      "start": 44.7413,
      "duration": 0.1704,
      "velocity": 94,
      "chip": "ym2612"
    },
    {
      "channel": 0,
      "note": 82,
      "start": 44.9088,
      "duration": 0.7895,
      "velocity": 105,
      "chip": "ym2612"
    },
    {
      "channel": 1,
      "note": 99,
      "start": 44.9098,
      "duration": 0.0277,
      "velocity": 99,
      "chip": "ym2612"
    },
    {
      "channel": 3,
      "note": 87,
      "start": 44.9117,
      "duration": 0.0276,
      "velocity": 99,
      "chip": "ym2612"
    },
    {
      "channel": 4,
      "note": 61,
      "start": 44.9126,
      "duration": 0.0528,
      "velocity": 94,
      "chip": "ym2612"
    },
    {
      "channel": 1,
      "note": 101,
      "start": 44.9635,
      "duration": 0.0281,
      "velocity": 99,
      "chip": "ym2612"
    },
    {
      "channel": 3,
      "note": 89,
      "start": 44.9654,
      "duration": 0.0279,
      "velocity": 99,
      "chip": "ym2612"
    },
    {
      "channel": 4,
      "note": 61,
      "start": 44.9663,
      "duration": 0.0763,
      "velocity": 94,
      "chip": "ym2612"
    },
    {
      "channel": 1,
      "note": 104,
      "start": 45.0416,
      "duration": 0.3932,
      "velocity": 99,
      "chip": "ym2612"
    },
    {
      "channel": 2,
      "note": 91,
      "start": 45.042,
      "duration": 0.3147,
      "velocity": 99,
      "chip": "ym2612"
    },
    {
      "channel": 3,
      "note": 91,
      "start": 45.0425,
      "duration": 0.5788,
      "velocity": 99,
      "chip": "ym2612"
    },
    {
      "channel": 4,
      "note": 63,
      "start": 45.043,
      "duration": 0.1841,
      "velocity": 94,
      "chip": "ym2612"
    },
    {
      "channel": 4,
      "note": 63,
      "start": 45.2279,
      "duration": 0.0777,
      "velocity": 94,
      "chip": "ym2612"
    },
    {
      "channel": 4,
      "note": 63,
      "start": 45.3063,
      "duration": 0.0522,
      "velocity": 94,
      "chip": "ym2612"
    },
    {
      "channel": 2,
      "note": 92,
      "start": 45.3577,
      "duration": 0.0281,
      "velocity": 99,
      "chip": "ym2612"
    },
    {
      "channel": 4,
      "note": 63,
      "start": 45.3594,
      "duration": 0.0766,
      "velocity": 94,
      "chip": "ym2612"
    },
    {
      "channel": 1,
      "note": 103,
      "start": 45.4351,
      "duration": 0.6615,
      "velocity": 99,
      "chip": "ym2612"
    },
    {
      "channel": 2,
      "note": 94,
      "start": 45.4356,
      "duration": 0.0985,
      "velocity": 99,
      "chip": "ym2612"
    },
    {
      "channel": 4,
      "note": 61,
      "start": 45.4365,
      "duration": 0.1857,
      "velocity": 94,
      "chip": "ym2612"
    },
    {
      "channel": 2,
      "note": 92,
      "start": 45.6211,
      "duration": 0.028,
      "velocity": 99,
      "chip": "ym2612"
    },
    {
      "channel": 3,
      "note": 92,
      "start": 45.622,
      "duration": 0.0279,
      "velocity": 99,
      "chip": "ym2612"
    },
    {
      "channel": 4,
      "note": 61,
      "start": 45.623,
      "duration": 0.0794,
      "velocity": 94,
      "chip": "ym2612"
    },
    {
      "channel": 0,
      "note": 80,
      "start": 45.6993,
      "duration": 0.0329,
      "velocity": 105,
      "chip": "ym2612"
    },
    {
      "channel": 2,
      "note": 91,
      "start": 45.7012,
      "duration": 0.0277,
      "velocity": 99,
      "chip": "ym2612"
    },
    {
      "channel": 3,
      "note": 91,
      "start": 45.7023,
      "duration": 0.0276,
      "velocity": 99,
      "chip": "ym2612"
    },
    {
      "channel": 4,
      "note": 61,
      "start": 45.7032,
      "duration": 0.0544,
      "velocity": 94,
      "chip": "ym2612"
    },
    {
      "channel": 0,
      "note": 79,
      "start": 45.7544,
      "duration": 0.0329,
      "velocity": 105,
      "chip": "ym2612"
    },
    {
      "channel": 2,
      "note": 87,
      "start": 45.7564,
      "duration": 0.0276,
      "velocity": 99,
      "chip": "ym2612"
    },
    {
      "channel": 3,
      "note": 87,
      "start": 45.7574,
      "duration": 0.0275,
      "velocity": 99,
      "chip": "ym2612"
    },
    {
      "channel": 4,
      "note": 61,
      "start": 45.7583,
      "duration": 0.0786,
      "velocity": 94,
      "chip": "ym2612"
    },
    {
      "channel": 0,
      "note": 82,
      "start": 45.8338,
      "duration": 0.2618,
      "velocity": 105,
      "chip": "ym2612"
    },
    {
      "channel": 2,
      "note": 84,
      "start": 45.8358,
      "duration": 0.314,
      "velocity": 99,
      "chip": "ym2612"
    },
    {
      "channel": 3,
      "note": 87,
      "start": 45.8368,
      "duration": 0.6266,
      "velocity": 99,
      "chip": "ym2612"
    },
    {
      "channel": 4,
      "note": 60,
      "start": 45.8377,
      "duration": 0.0912,
      "velocity": 94,
      "chip": "ym2612"
    },
    {
      "channel": 4,
      "note": 60,
      "start": 45.9294,
      "duration": 0.1698,
      "velocity": 94,
      "chip": "ym2612"
    },
    {
      "channel": 0,
      "note": 84,
      "start": 46.0965,
      "duration": 0.1013,
      "velocity": 105,
      "chip": "ym2612"
    },
    {
      "channel": 1,
      "note": 99,
      "start": 46.0976,
      "duration": 0.1014,
      "velocity": 99,
      "chip": "ym2612"
    },
    {
      "channel": 4,
      "note": 60,
      "start": 46.1001,
      "duration": 0.0516,
      "velocity": 94,
      "chip": "ym2612"
    },
    {
      "channel": 2,
      "note": 85,
      "start": 46.1508,
      "duration": 0.028,
      "velocity": 99,
      "chip": "ym2612"
    },
    {
      "channel": 4,
      "note": 60,
      "start": 46.1525,
      "duration": 0.0495,
      "velocity": 94,
      "chip": "ym2612"
    },
    {
      "channel": 0,
      "note": 85,
      "start": 46.1988,
      "duration": 0.2615,
      "velocity": 105,
      "chip": "ym2612"
    },
    {
      "channel": 1,
      "note": 103,
      "start": 46.1998,
      "duration": 0.2616,
      "velocity": 99,
      "chip": "ym2612"
    },
    {
      "channel": 2,
      "note": 87,
      "start": 46.2011,
      "duration": 0.3923,
      "velocity": 99,
      "chip": "ym2612"
    },
    {
      "channel": 4,
      "note": 48,
      "start": 46.2028,
      "duration": 0.0906,
      "velocity": 94,
      "chip": "ym2612"
    },
    {
      "channel": 4,
      "note": 48,
      "start": 46.2939,
      "duration": 0.1704,
      "velocity": 94,
      "chip": "ym2612"
    },
    {
      "channel": 0,
      "note": 87,
      "start": 46.4613,
      "duration": 0.5288,
      "velocity": 105,
      "chip": "ym2612"
    },
    {
      "channel": 1,
      "note": 101,
      "start": 46.4624,
      "duration": 0.528,
      "velocity": 99,
      "chip": "ym2612"
    },
    {
      "channel": 3,
      "note": 89,
      "start": 46.4642,
      "duration": 0.028,
      "velocity": 99,
      "chip": "ym2612"
    },
    {
      "channel": 4,
      "note": 53,
      "start": 46.4652,
      "duration": 0.0523,
      "velocity": 94,
      "chip": "ym2612"
    },
    {
      "channel": 3,
      "note": 91,
      "start": 46.5174,
      "duration": 0.028,
      "velocity": 99,
      "chip": "ym2612"
    },
    {
      "channel": 4,
      "note": 53,
      "start": 46.5183,
      "duration": 0.076,
      "velocity": 94,
      "chip": "ym2612"
    },
    {
      "channel": 2,
      "note": 90,
      "start": 46.5937,
      "duration": 0.0986,
      "velocity": 99,
      "chip": "ym2612"
    },
    {
      "channel": 3,
      "note": 87,
      "start": 46.5942,
      "duration": 0.0985,
      "velocity": 99,
      "chip": "ym2612"
    },
    {
      "channel": 4,
      "note": 53,
      "start": 46.5948,
      "duration": 0.1857,
      "velocity": 94,
      "chip": "ym2612"
    },
    {
      "channel": 2,
      "note": 89,
      "start": 46.7794,
      "duration": 0.0279,
      "velocity": 99,
      "chip": "ym2612"
    },
    {
      "channel": 3,
      "note": 84,
      "start": 46.7804,
      "duration": 0.0278,
      "velocity": 99,
      "chip": "ym2612"
    },
    {
      "channel": 4,
      "note": 53,
      "start": 46.7813,
      "duration": 0.0786,
      "velocity": 94,
      "chip": "ym2612"
    },
    {
      "channel": 2,
      "note": 87,
      "start": 46.8588,
      "duration": 0.0278,
      "velocity": 99,
      "chip": "ym2612"
    },
    {
      "channel": 3,
      "note": 81,
      "start": 46.8598,
      "duration": 0.0276,
      "velocity": 99,
      "chip": "ym2612"
    },
    {
      "channel": 4,
      "note": 53,
      "start": 46.8607,
      "duration": 0.0538,
      "velocity": 94,
      "chip": "ym2612"
    },
    {
      "channel": 2,
      "note": 89,
      "start": 46.9134,
      "duration": 0.0278,
      "velocity": 99,
      "chip": "ym2612"
    },
    {
      "channel": 3,
      "note": 84,
      "start": 46.9144,
      "duration": 0.0277,
      "velocity": 99,
      "chip": "ym2612"
    },
    {
      "channel": 4,
      "note": 53,
      "start": 46.9153,
      "duration": 0.0765,
      "velocity": 94,
      "chip": "ym2612"
    },
    {
      "channel": 0,
      "note": 90,
      "start": 46.9904,
      "duration": 0.1145,
      "velocity": 105,
      "chip": "ym2612"
    },
    {
      "channel": 1,
      "note": 102,
      "start": 46.9907,
      "duration": 0.098,
      "velocity": 99,
      "chip": "ym2612"
    },
    {
      "channel": 2,
      "note": 90,
      "start": 46.9912,
      "duration": 0.0979,
      "velocity": 99,
      "chip": "ym2612"
    },
    {
      "channel": 3,
      "note": 87,
      "start": 46.9917,
      "duration": 0.0976,
      "velocity": 99,
      "chip": "ym2612"
    },
    {
      "channel": 4,
      "note": 57,
      "start": 46.9922,
      "duration": 0.1861,
      "velocity": 94,
      "chip": "ym2612"
    },
    {
      "channel": 0,
      "note": 89,
      "start": 47.1749,
      "duration": 0.0337,
      "velocity": 105,
      "chip": "ym2612"
    },
    {
      "channel": 1,
      "note": 101,
      "start": 47.176,
      "duration": 0.0284,
      "velocity": 99,
      "chip": "ym2612"
    },
    {
      "channel": 2,
      "note": 89,
      "start": 47.1772,
      "duration": 0.0281,
      "velocity": 99,
      "chip": "ym2612"
    },
    {
      "channel": 3,
      "note": 84,
      "start": 47.1782,
      "duration": 0.0279,
      "velocity": 99,
      "chip": "ym2612"
    },
    {
      "channel": 4,
      "note": 57,
      "start": 47.1791,
      "duration": 0.0795,
      "velocity": 94,
      "chip": "ym2612"
    },
    {
      "channel": 0,
      "note": 87,
      "start": 47.2554,
      "duration": 0.1339,
      "velocity": 105,
      "chip": "ym2612"
    },
    {
      "channel": 1,
      "note": 99,
      "start": 47.2565,
      "duration": 0.028,
      "velocity": 99,
      "chip": "ym2612"
    },
    {
      "channel": 2,
      "note": 87,
      "start": 47.2576,
      "duration": 0.0278,
      "velocity": 99,
      "chip": "ym2612"
    },
    {
      "channel": 3,
      "note": 81,
      "start": 47.2585,
      "duration": 0.0278,
      "velocity": 99,
      "chip": "ym2612"
    },
    {
      "channel": 4,
      "note": 57,
      "start": 47.2595,
      "duration": 0.0544,
      "velocity": 94,
      "chip": "ym2612"
    },
    {
      "channel": 1,
      "note": 96,
      "start": 47.3116,
      "duration": 0.0285,
      "velocity": 99,
      "chip": "ym2612"
    },
    {
      "channel": 2,
      "note": 84,
      "start": 47.3128,
      "duration": 0.0282,
      "velocity": 99,
      "chip": "ym2612"
    },
    {
      "channel": 3,
      "note": 81,
      "start": 47.3138,
      "duration": 0.028,
      "velocity": 99,
      "chip": "ym2612"
    },
    {
      "channel": 4,
      "note": 57,
      "start": 47.3147,
      "duration": 0.0763,
      "velocity": 94,
      "chip": "ym2612"
    },
    {
      "channel": 0,
      "note": 87,
      "start": 47.3896,
      "duration": 0.2625,
      "velocity": 105,
      "chip": "ym2612"
    },
    {
      "channel": 1,
      "note": 97,
      "start": 47.3901,
      "duration": 0.6586,
      "velocity": 99,
      "chip": "ym2612"
    },
    {
      "channel": 2,
      "note": 85,
      "start": 47.3905,
      "duration": 0.0977,
      "velocity": 99,
      "chip": "ym2612"
    },
    {
      "channel": 3,
      "note": 85,
      "start": 47.391,
      "duration": 0.0975,
      "velocity": 99,
      "chip": "ym2612"
    },
    {
      "channel": 4,
      "note": 58,
      "start": 47.3915,
      "duration": 0.1847,
      "velocity": 94,
      "chip": "ym2612"
    },
    {
      "channel": 2,
      "note": 89,
      "start": 47.5751,
      "duration": 0.1322,
      "velocity": 99,
      "chip": "ym2612"
    },
    {
      "channel": 3,
      "note": 85,
      "start": 47.5761,
      "duration": 0.0279,
      "velocity": 99,
      "chip": "ym2612"
    },
    {
      "channel": 4,
      "note": 58,
      "start": 47.5769,
      "duration": 0.0789,
      "velocity": 94,
      "chip": "ym2612"
    },
    {
      "channel": 0,
      "note": 89,
      "start": 47.6531,
      "duration": 0.0326,
      "velocity": 105,
      "chip": "ym2612"
    },
    {
      "channel": 3,
      "note": 89,
      "start": 47.6558,
      "duration": 0.129,
      "velocity": 99,
      "chip": "ym2612"
    },
    {
      "channel": 4,
      "note": 58,
      "start": 47.6567,
      "duration": 0.0526,
      "velocity": 94,
      "chip": "ym2612"
    },
    {
      "channel": 0,
      "note": 80,
      "start": 47.7064,
      "duration": 0.3411,
      "velocity": 105,
      "chip": "ym2612"
    },
    {
      "channel": 2,
      "note": 85,
      "start": 47.7083,
      "duration": 0.0275,
      "velocity": 99,
      "chip": "ym2612"
    },
    {
      "channel": 4,
      "note": 58,
      "start": 47.7101,
      "duration": 0.0752,
      "velocity": 94,
      "chip": "ym2612"
    },
    {
      "channel": 2,
      "note": 89,
      "start": 47.7847,
      "duration": 0.0987,
      "velocity": 99,
      "chip": "ym2612"
    },
    {
      "channel": 3,
      "note": 85,
      "start": 47.7853,
      "duration": 0.0985,
      "velocity": 99,
      "chip": "ym2612"
    },
    {
      "channel": 4,
      "note": 58,
      "start": 47.7858,
      "duration": 0.1856,
      "velocity": 94,
      "chip": "ym2612"
    },
    {
      "channel": 2,
      "note": 85,
      "start": 47.9703,
      "duration": 0.0276,
      "velocity": 99,
      "chip": "ym2612"
    },
    {
      "channel": 3,
      "note": 89,
      "start": 47.9713,
      "duration": 0.0275,
      "velocity": 99,
      "chip": "ym2612"
    },
    {
      "channel": 4,
      "note": 58,
      "start": 47.9722,
      "duration": 0.0798,
      "velocity": 94,
      "chip": "ym2612"
    },
    {
      "channel": 0,
      "note": 85,
      "start": 48.0485,
      "duration": 0.133,
      "velocity": 105,
      "chip": "ym2612"
    },
    {
      "channel": 1,
      "note": 97,
      "start": 48.0496,
      "duration": 0.0538,
      "velocity": 99,
      "chip": "ym2612"
    },
    {
      "channel": 2,
      "note": 89,
      "start": 48.0508,
      "duration": 0.028,
      "velocity": 99,
      "chip": "ym2612"
    },
    {
      "channel": 3,
      "note": 85,
      "start": 48.0519,
      "duration": 0.0279,
      "velocity": 99,
      "chip": "ym2612"
    },
    {
      "channel": 4,
      "note": 58,
      "start": 48.0528,
      "duration": 0.0538,
      "velocity": 94,
      "chip": "ym2612"
    },
    {
      "channel": 1,
      "note": 100,
      "start": 48.1043,
      "duration": 0.7357,
      "velocity": 99,
      "chip": "ym2612"
    },
    {
      "channel": 2,
      "note": 85,
      "start": 48.1055,
      "duration": 0.0278,
      "velocity": 99,
      "chip": "ym2612"
    },
    {
      "channel": 3,
      "note": 89,
      "start": 48.1065,
      "duration": 0.0278,
      "velocity": 99,
      "chip": "ym2612"
    },
    {
      "channel": 4,
      "note": 58,
      "start": 48.1075,
      "duration": 0.0757,
      "velocity": 94,
      "chip": "ym2612"
    },
    {
      "channel": 0,
      "note": 84,
      "start": 48.1819,
      "duration": 0.2624,
      "velocity": 105,
      "chip": "ym2612"
    },
    {
      "channel": 2,
      "note": 85,
      "start": 48.1826,
      "duration": 0.0983,
      "velocity": 99,
      "chip": "ym2612"
    },
    {
      "channel": 3,
      "note": 85,
      "start": 48.1832,
      "duration": 0.098,
      "velocity": 99,
      "chip": "ym2612"
    },
    {
      "channel": 4,
      "note": 63,
      "start": 48.1837,
      "duration": 0.1853,
      "velocity": 94,
      "chip": "ym2612"
    },
    {
      "channel": 2,
      "note": 88,
      "start": 48.3678,
      "duration": 0.1305,
      "velocity": 99,
      "chip": "ym2612"
    },
    {
      "channel": 3,
      "note": 85,
      "start": 48.3688,
      "duration": 0.0275,
      "velocity": 99,
      "chip": "ym2612"
    },
    {
      "channel": 4,
      "note": 63,
      "start": 48.3698,
      "duration": 0.0782,
      "velocity": 94,
      "chip": "ym2612"
    },
    {
      "channel": 0,
      "note": 82,
      "start": 48.4453,
      "duration": 0.1302,
      "velocity": 105,
      "chip": "ym2612"
    },
    {
      "channel": 3,
      "note": 88,
      "start": 48.4479,
      "duration": 0.1287,
      "velocity": 99,
      "chip": "ym2612"
    },
    {
      "channel": 4,
      "note": 63,
      "start": 48.4488,
      "duration": 0.0515,
      "velocity": 94,
      "chip": "ym2612"
    },
    {
      "channel": 2,
      "note": 85,
      "start": 48.4993,
      "duration": 0.0274,
      "velocity": 99,
      "chip": "ym2612"
    },
    {
      "channel": 4,
      "note": 63,
      "start": 48.501,
      "duration": 0.0761,
      "velocity": 94,
      "chip": "ym2612"
    },
    {
      "channel": 0,
      "note": 80,
      "start": 48.5759,
      "duration": 0.2632,
      "velocity": 105,
      "chip": "ym2612"
    },
    {
      "channel": 2,
      "note": 88,
      "start": 48.5766,
      "duration": 0.0983,
      "velocity": 99,
      "chip": "ym2612"
    },
    {
      "channel": 3,
      "note": 85,
      "start": 48.5771,
      "duration": 0.0981,
      "velocity": 99,
      "chip": "ym2612"
    },
    {
      "channel": 4,
      "note": 63,
      "start": 48.5776,
      "duration": 0.1853,
      "velocity": 94,
      "chip": "ym2612"
    },
    {
      "channel": 2,
      "note": 85,
      "start": 48.7618,
      "duration": 0.0276,
      "velocity": 99,
      "chip": "ym2612"
    },
    {
      "channel": 3,
      "note": 88,
      "start": 48.7628,
      "duration": 0.0274,
      "velocity": 99,
      "chip": "ym2612"
    },
    {
      "channel": 4,
      "note": 63,
      "start": 48.7637,
      "duration": 0.0795,
      "velocity": 94,
      "chip": "ym2612"
    },
    {
      "channel": 0,
      "note": 79,
      "start": 48.8399,
      "duration": 0.1335,
      "velocity": 105,
      "chip": "ym2612"
    },
    {
      "channel": 1,
      "note": 100,
      "start": 48.841,
      "duration": 0.0535,
      "velocity": 99,
      "chip": "ym2612"
    },
    {
      "channel": 2,
      "note": 88,
      "start": 48.8421,
      "duration": 0.0281,
      "velocity": 99,
      "chip": "ym2612"
    },
    {
      "channel": 3,
      "note": 85,
      "start": 48.8432,
      "duration": 0.028,
      "velocity": 99,
      "chip": "ym2612"
    },
    {
      "channel": 4,
      "note": 63,
      "start": 48.8441,
      "duration": 0.0537,
      "velocity": 94,
      "chip": "ym2612"
    },
    {
      "channel": 1,
      "note": 104,
      "start": 48.8955,
      "duration": 0.6676,
      "velocity": 99,
      "chip": "ym2612"
    },
    {
      "channel": 2,
      "note": 85,
      "start": 48.8966,
      "duration": 0.0278,
      "velocity": 99,
      "chip": "ym2612"
    },
    {
      "channel": 3,
      "note": 88,
      "start": 48.8977,
      "duration": 0.0277,
      "velocity": 99,
      "chip": "ym2612"
    },
    {
      "channel": 4,
      "note": 63,
      "start": 48.8986,
      "duration": 0.079,
      "velocity": 94,
      "chip": "ym2612"
    },
    {
      "channel": 0,
      "note": 80,
      "start": 48.9744,
      "duration": 0.5846,
      "velocity": 105,
      "chip": "ym2612"
    },
    {
      "channel": 2,
      "note": 88,
      "start": 48.9764,
      "duration": 0.2553,
      "velocity": 99,
      "chip": "ym2612"
    },
    {
      "channel": 3,
      "note": 85,
      "start": 48.9774,
      "duration": 0.2552,
      "velocity": 99,
      "chip": "ym2612"
    },
    {
      "channel": 4,
      "note": 56,
      "start": 48.9783,
      "duration": 0.0325,
      "velocity": 94,
      "chip": "ym2612"
    },
    {
      "channel": 4,
      "note": 56,
      "start": 49.0312,
      "duration": 0.1715,
      "velocity": 94,
      "chip": "ym2612"
    },
    {
      "channel": 4,
      "note": 56,
      "start": 49.2035,
      "duration": 0.0348,
      "velocity": 94,
      "chip": "ym2612"
    },
    {
      "channel": 2,
      "note": 88,
      "start": 49.2529,
      "duration": 0.0278,
      "velocity": 99,
      "chip": "ym2612"
    },
    {
      "channel": 3,
      "note": 85,
      "start": 49.254,
      "duration": 0.0277,
      "velocity": 99,
      "chip": "ym2612"
    },
    {
      "channel": 4,
      "note": 56,
      "start": 49.2549,
      "duration": 0.1731,
      "velocity": 94,
      "chip": "ym2612"
    },
    {
      "channel": 2,
      "note": 88,
      "start": 49.3488,
      "duration": 0.1607,
      "velocity": 99,
      "chip": "ym2612"
    },
    {
      "channel": 3,
      "note": 85,
      "start": 49.3498,
      "duration": 0.1605,
      "velocity": 99,
      "chip": "ym2612"
    },
    {
      "channel": 4,
      "note": 56,
      "start": 49.4287,
      "duration": 0.0343,
      "velocity": 94,
      "chip": "ym2612"
    },
    {
      "channel": 4,
      "note": 56,
      "start": 49.4836,
      "duration": 0.0324,
      "velocity": 94,
      "chip": "ym2612"
    },
    {
      "channel": 0,
      "note": 38,
      "start": 49.563,
      "duration": 0.2663,
      "velocity": 117,
      "chip": "ym2612"
    },
    {
      "channel": 4,
      "note": 56,
      "start": 49.5667,
      "duration": 0.2665,
      "velocity": 94,
      "chip": "ym2612"
    },
    {
      "channel": 1,
      "note": 42,
      "start": 49.5825,
      "duration": 0.2478,
      "velocity": 117,
      "chip": "ym2612"
    },
    {
      "channel": 0,
      "note": 62,
      "start": 49.8302,
      "duration": 0.0556,
      "velocity": 117,
      "chip": "ym2612"
    },
    {
      "channel": 4,
      "note": 68,
      "start": 49.834,
      "duration": 0.0341,
      "velocity": 94,
      "chip": "ym2612"
    },
    {
      "channel": 1,
      "note": 63,
      "start": 49.8419,
      "duration": 0.0449,
      "velocity": 117,
      "chip": "ym2612"
    },
    {
      "channel": 0,
      "note": 62,
      "start": 49.8867,
      "duration": 0.5777,
      "velocity": 117,
      "chip": "ym2612"
    },
    {
      "channel": 4,
      "note": 59,
      "start": 49.8904,
      "duration": 0.2624,
      "velocity": 94,
      "chip": "ym2612"
    },
    {
      "channel": 1,
      "note": 60,
      "start": 49.898,
      "duration": 0.5676,
      "velocity": 117,
      "chip": "ym2612"
    },
    {
      "channel": 5,
      "note": 68,
      "start": 49.9679,
      "duration": 0.1856,
      "velocity": 127,
      "chip": "ym2612"
    },
    {
      "channel": 4,
      "note": 68,
      "start": 50.1535,
      "duration": 0.0332,
      "velocity": 94,
      "chip": "ym2612"
    },
    {
      "channel": 4,
      "note": 59,
      "start": 50.204,
      "duration": 0.0941,
      "velocity": 94,
      "chip": "ym2612"
    },
    {
      "channel": 4,
      "note": 61,
      "start": 50.2985,
      "duration": 0.1153,
      "velocity": 94,
      "chip": "ym2612"
    },
    {
      "channel": 5,
      "note": 68,
      "start": 50.2991,
      "duration": 0.1704,
      "velocity": 127,
      "chip": "ym2612"
    },
    {
      "channel": 0,
      "note": 58,
      "start": 50.4654,
      "duration": 0.0547,
      "velocity": 117,
      "chip": "ym2612"
    },
    {
      "channel": 2,
      "note": 90,
      "start": 50.4675,
      "duration": 0.0329,
      "velocity": 99,
      "chip": "ym2612"
    },
    {
      "channel": 3,
      "note": 85,
      "start": 50.4685,
      "duration": 0.0329,
      "velocity": 99,
      "chip": "ym2612"
    },
    {
      "channel": 4,
      "note": 63,
      "start": 50.4694,
      "duration": 0.0328,
      "velocity": 94,
      "chip": "ym2612"
    },
    {
      "channel": 1,
      "note": 56,
      "start": 50.4769,
      "duration": 0.0443,
      "velocity": 117,
      "chip": "ym2612"
    },
    {
      "channel": 0,
      "note": 57,
      "start": 50.521,
      "duration": 0.0492,
      "velocity": 117,
      "chip": "ym2612"
    },
    {
      "channel": 2,
      "note": 89,
      "start": 50.5231,
      "duration": 0.0331,
      "velocity": 99,
      "chip": "ym2612"
    },
    {
      "channel": 3,
      "note": 85,
      "start": 50.5241,
      "duration": 0.033,
      "velocity": 99,
      "chip": "ym2612"
    },
    {
      "channel": 4,
      "note": 59,
      "start": 50.525,
      "duration": 0.033,
      "velocity": 94,
      "chip": "ym2612"
    },
    {
      "channel": 1,
      "note": 59,
      "start": 50.5326,
      "duration": 0.0388,
      "velocity": 117,
      "chip": "ym2612"
    },
    {
      "channel": 0,
      "note": 60,
      "start": 50.5712,
      "duration": 0.2628,
      "velocity": 117,
      "chip": "ym2612"
    },
    {
      "channel": 4,
      "note": 56,
      "start": 50.575,
      "duration": 0.2629,
      "velocity": 94,
      "chip": "ym2612"
    },
    {
      "channel": 1,
      "note": 61,
      "start": 50.5877,
      "duration": 0.2474,
      "velocity": 117,
      "chip": "ym2612"
    },
    {
      "channel": 5,
      "note": 68,
      "start": 50.669,
      "duration": 0.1699,
      "velocity": 127,
      "chip": "ym2612"
    },
    {
      "channel": 0,
      "note": 62,
      "start": 50.835,
      "duration": 0.0556,
      "velocity": 117,
      "chip": "ym2612"
    },
    {
      "channel": 4,
      "note": 68,
      "start": 50.8388,
      "duration": 0.0341,
      "velocity": 94,
      "chip": "ym2612"
    },
    {
      "channel": 1,
      "note": 63,
      "start": 50.8467,
      "duration": 0.0449,
      "velocity": 117,
      "chip": "ym2612"
    },
    {
      "channel": 0,
      "note": 62,
      "start": 50.8915,
      "duration": 0.3147,
      "velocity": 117,
      "chip": "ym2612"
    },
    {
      "channel": 4,
      "note": 59,
      "start": 50.8951,
      "duration": 0.2626,
      "velocity": 94,
      "chip": "ym2612"
    },
    {
      "channel": 1,
      "note": 60,
      "start": 50.9028,
      "duration": 0.3043,
      "velocity": 117,
      "chip": "ym2612"
    },
    {
      "channel": 5,
      "note": 68,
      "start": 50.9729,
      "duration": 0.1856,
      "velocity": 127,
      "chip": "ym2612"
    },
    {
      "channel": 4,
      "note": 68,
      "start": 51.1585,
      "duration": 0.0342,
      "velocity": 94,
      "chip": "ym2612"
    },
    {
      "channel": 0,
      "note": 60,
      "start": 51.2071,
      "duration": 0.2633,
      "velocity": 117,
      "chip": "ym2612"
    },
    {
      "channel": 4,
      "note": 59,
      "start": 51.2108,
      "duration": 0.0932,
      "velocity": 94,
      "chip": "ym2612"
    },
    {
      "channel": 1,
      "note": 61,
      "start": 51.2188,
      "duration": 0.2527,
      "velocity": 117,
      "chip": "ym2612"
    },
    {
      "channel": 4,
      "note": 61,
      "start": 51.3045,
      "duration": 0.1153,
      "velocity": 94,
      "chip": "ym2612"
    },
    {
      "channel": 5,
      "note": 68,
      "start": 51.3051,
      "duration": 0.1703,
      "velocity": 127,
      "chip": "ym2612"
    },
    {
      "channel": 0,
      "note": 60,
      "start": 51.4713,
      "duration": 0.0542,
      "velocity": 117,
      "chip": "ym2612"
    },
    {
      "channel": 2,
      "note": 90,
      "start": 51.4734,
      "duration": 0.033,
      "velocity": 99,
      "chip": "ym2612"
    },
    {
      "channel": 3,
      "note": 85,
      "start": 51.4744,
      "duration": 0.033,
      "velocity": 99,
      "chip": "ym2612"
    },
    {
      "channel": 4,
      "note": 63,
      "start": 51.4753,
      "duration": 0.0329,
      "velocity": 94,
      "chip": "ym2612"
    },
    {
      "channel": 1,
      "note": 59,
      "start": 51.4829,
      "duration": 0.043,
      "velocity": 117,
      "chip": "ym2612"
    },
    {
      "channel": 0,
      "note": 58,
      "start": 51.5259,
      "duration": 0.1669,
      "velocity": 117,
      "chip": "ym2612"
    },
    {
      "channel": 4,
      "note": 59,
      "start": 51.5276,
      "duration": 0.1146,
      "velocity": 94,
      "chip": "ym2612"
    },
    {
      "channel": 5,
      "note": 68,
      "start": 51.5282,
      "duration": 0.1697,
      "velocity": 127,
      "chip": "ym2612"
    },
    {
      "channel": 1,
      "note": 58,
      "start": 51.5583,
      "duration": 0.1354,
      "velocity": 117,
      "chip": "ym2612"
    },
    {
      "channel": 0,
      "note": 57,
      "start": 51.6937,
      "duration": 0.0529,
      "velocity": 117,
      "chip": "ym2612"
    },
    {
      "channel": 2,
      "note": 89,
      "start": 51.6958,
      "duration": 0.0324,
      "velocity": 99,
      "chip": "ym2612"
    },
    {
      "channel": 3,
      "note": 85,
      "start": 51.6968,
      "duration": 0.0323,
      "velocity": 99,
      "chip": "ym2612"
    },
    {
      "channel": 4,
      "note": 66,
      "start": 51.6977,
      "duration": 0.0505,
      "velocity": 94,
      "chip": "ym2612"
    },
    {
      "channel": 1,
      "note": 56,
      "start": 51.7055,
      "duration": 0.0414,
      "velocity": 117,
      "chip": "ym2612"
    },
    {
      "channel": 0,
      "note": 55,
      "start": 51.7469,
      "duration": 0.166,
      "velocity": 117,
      "chip": "ym2612"
    },
    {
      "channel": 4,
      "note": 68,
      "start": 51.7486,
      "duration": 0.1144,
      "velocity": 94,
      "chip": "ym2612"
    },
    {
      "channel": 5,
      "note": 68,
      "start": 51.7492,
      "duration": 0.1685,
      "velocity": 127,
      "chip": "ym2612"
    },
    {
      "channel": 1,
      "note": 54,
      "start": 51.7791,
      "duration": 0.1349,
      "velocity": 117,
      "chip": "ym2612"
    },
    {
      "channel": 0,
      "note": 55,
      "start": 51.9139,
      "duration": 0.3992,
      "velocity": 117,
      "chip": "ym2612"
    },
    {
      "channel": 4,
      "note": 59,
      "start": 51.9176,
      "duration": 0.2624,
      "velocity": 94,
      "chip": "ym2612"
    },
    {
      "channel": 1,
      "note": 57,
      "start": 51.9252,
      "duration": 0.3882,
      "velocity": 117,
      "chip": "ym2612"
    },
    {
      "channel": 4,
      "note": 68,
      "start": 52.1808,
      "duration": 0.0342,
      "velocity": 94,
      "chip": "ym2612"
    },
    {
      "channel": 4,
      "note": 59,
      "start": 52.2371,
      "duration": 0.2627,
      "velocity": 94,
      "chip": "ym2612"
    },
    {
      "channel": 0,
      "note": 66,
      "start": 52.3134,
      "duration": 0.2344,
      "velocity": 117,
      "chip": "ym2612"
    },
    {
      "channel": 5,
      "note": 68,
      "start": 52.3155,
      "duration": 0.1852,
      "velocity": 127,
      "chip": "ym2612"
    },
    {
      "channel": 1,
      "note": 66,
      "start": 52.3464,
      "duration": 0.2024,
      "velocity": 117,
      "chip": "ym2612"
    },
    {
      "channel": 4,
      "note": 68,
      "start": 52.5006,
      "duration": 0.0338,
      "velocity": 94,
      "chip": "ym2612"
    },
    {
      "channel": 0,
      "note": 65,
      "start": 52.5487,
      "duration": 0.2633,
      "velocity": 117,
      "chip": "ym2612"
    },
    {
      "channel": 4,
      "note": 59,
      "start": 52.5525,
      "duration": 0.0932,
      "velocity": 94,
      "chip": "ym2612"
    },
    {
      "channel": 1,
      "note": 65,
      "start": 52.5604,
      "duration": 0.2527,
      "velocity": 117,
      "chip": "ym2612"
    },
    {
      "channel": 4,
      "note": 61,
      "start": 52.6462,
      "duration": 0.1153,
      "velocity": 94,
      "chip": "ym2612"
    },
    {
      "channel": 5,
      "note": 68,
      "start": 52.6468,
      "duration": 0.1703,
      "velocity": 127,
      "chip": "ym2612"
    },
    {
      "channel": 0,
      "note": 64,
      "start": 52.813,
      "duration": 0.0544,
      "velocity": 117,
      "chip": "ym2612"
    },
    {
      "channel": 2,
      "note": 90,
      "start": 52.8151,
      "duration": 0.0327,
      "velocity": 99,
      "chip": "ym2612"
    },
    {
      "channel": 3,
      "note": 85,
      "start": 52.8161,
      "duration": 0.0327,
      "velocity": 99,
      "chip": "ym2612"
    },
    {
      "channel": 4,
      "note": 63,
      "start": 52.817,
      "duration": 0.0325,
      "velocity": 94,
      "chip": "ym2612"
    },
    {
      "channel": 1,
      "note": 63,
      "start": 52.8246,
      "duration": 0.0438,
      "velocity": 117,
      "chip": "ym2612"
    },
    {
      "channel": 0,
      "note": 62,
      "start": 52.8683,
      "duration": 0.049,
      "velocity": 117,
      "chip": "ym2612"
    },
    {
      "channel": 2,
      "note": 89,
      "start": 52.8704,
      "duration": 0.0329,
      "velocity": 99,
      "chip": "ym2612"
    },
    {
      "channel": 3,
      "note": 85,
      "start": 52.8714,
      "duration": 0.0328,
      "velocity": 99,
      "chip": "ym2612"
    },
    {
      "channel": 4,
      "note": 59,
      "start": 52.8723,
      "duration": 0.0328,
      "velocity": 94,
      "chip": "ym2612"
    },
    {
      "channel": 1,
      "note": 61,
      "start": 52.88,
      "duration": 0.0385,
      "velocity": 117,
      "chip": "ym2612"
    },
    {
      "channel": 0,
      "note": 62,
      "start": 52.9183,
      "duration": 0.2625,
      "velocity": 117,
      "chip": "ym2612"
    },
    {
      "channel": 4,
      "note": 59,
      "start": 52.9222,
      "duration": 0.2626,
      "velocity": 94,
      "chip": "ym2612"
    },
    {
      "channel": 1,
      "note": 66,
      "start": 52.9347,
      "duration": 0.2471,
      "velocity": 117,
      "chip": "ym2612"
    },
    {
      "channel": 5,
      "note": 68,
      "start": 53.0158,
      "duration": 0.1698,
      "velocity": 127,
      "chip": "ym2612"
    },
    {
      "channel": 0,
      "note": 67,
      "start": 53.1817,
      "duration": 0.0556,
      "velocity": 117,
      "chip": "ym2612"
    },
    {
      "channel": 4,
      "note": 68,
      "start": 53.1856,
      "duration": 0.0341,
      "velocity": 94,
      "chip": "ym2612"
    },
    {
      "channel": 1,
      "note": 68,
      "start": 53.1934,
      "duration": 0.0449,
      "velocity": 117,
      "chip": "ym2612"
    },
    {
      "channel": 0,
      "note": 67,
      "start": 53.2382,
      "duration": 0.5782,
      "velocity": 117,
      "chip": "ym2612"
    },
    {
      "channel": 4,
      "note": 59,
      "start": 53.2419,
      "duration": 0.2623,
      "velocity": 94,
      "chip": "ym2612"
    },
    {
      "channel": 1,
      "note": 65,
      "start": 53.2495,
      "duration": 0.568,
      "velocity": 117,
      "chip": "ym2612"
    },
    {
      "channel": 5,
      "note": 68,
      "start": 53.3195,
      "duration": 0.1856,
      "velocity": 127,
      "chip": "ym2612"
    },
    {
      "channel": 4,
      "note": 68,
      "start": 53.505,
      "duration": 0.0338,
      "velocity": 94,
      "chip": "ym2612"
    },
    {
      "channel": 4,
      "note": 59,
      "start": 53.5562,
      "duration": 0.0938,
      "velocity": 94,
      "chip": "ym2612"
    },
    {
      "channel": 4,
      "note": 61,
      "start": 53.6505,
      "duration": 0.1153,
      "velocity": 94,
      "chip": "ym2612"
    },
    {
      "channel": 5,
      "note": 68,
      "start": 53.6511,
      "duration": 0.1704,
      "velocity": 127,
      "chip": "ym2612"
    },
    {
      "channel": 0,
      "note": 64,
      "start": 53.8174,
      "duration": 0.0542,
      "velocity": 117,
      "chip": "ym2612"
    },
    {
      "channel": 2,
      "note": 90,
      "start": 53.8195,
      "duration": 0.033,
      "velocity": 99,
      "chip": "ym2612"
    },
    {
      "channel": 3,
      "note": 85,
      "start": 53.8205,
      "duration": 0.033,
      "velocity": 99,
      "chip": "ym2612"
    },
    {
      "channel": 4,
      "note": 63,
      "start": 53.8214,
      "duration": 0.0329,
      "velocity": 94,
      "chip": "ym2612"
    },
    {
      "channel": 1,
      "note": 62,
      "start": 53.8289,
      "duration": 0.043,
      "velocity": 117,
      "chip": "ym2612"
    },
    {
      "channel": 0,
      "note": 60,
      "start": 53.8719,
      "duration": 0.1669,
      "velocity": 117,
      "chip": "ym2612"
    },
    {
      "channel": 4,
      "note": 59,
      "start": 53.8736,
      "duration": 0.1146,
      "velocity": 94,
      "chip": "ym2612"
    },
    {
      "channel": 5,
      "note": 68,
      "start": 53.8741,
      "duration": 0.1697,
      "velocity": 127,
      "chip": "ym2612"
    },
    {
      "channel": 1,
      "note": 59,
      "start": 53.9043,
      "duration": 0.1354,
      "velocity": 117,
      "chip": "ym2612"
    },
    {
      "channel": 0,
      "note": 58,
      "start": 54.0396,
      "duration": 0.0532,
      "velocity": 117,
      "chip": "ym2612"
    },
    {
      "channel": 2,
      "note": 89,
      "start": 54.0418,
      "duration": 0.0324,
      "velocity": 99,
      "chip": "ym2612"
    },
    {
      "channel": 3,
      "note": 85,
      "start": 54.0428,
      "duration": 0.0323,
      "velocity": 99,
      "chip": "ym2612"
    },
    {
      "channel": 4,
      "note": 66,
      "start": 54.0437,
      "duration": 0.0507,
      "velocity": 94,
      "chip": "ym2612"
    },
    {
      "channel": 1,
      "note": 58,
      "start": 54.0515,
      "duration": 0.0417,
      "velocity": 117,
      "chip": "ym2612"
    },
    {
      "channel": 0,
      "note": 57,
      "start": 54.0932,
      "duration": 0.1659,
      "velocity": 117,
      "chip": "ym2612"
    },
    {
      "channel": 4,
      "note": 68,
      "start": 54.0949,
      "duration": 0.1143,
      "velocity": 94,
      "chip": "ym2612"
    },
    {
      "channel": 5,
      "note": 68,
      "start": 54.0955,
      "duration": 0.1684,
      "velocity": 127,
      "chip": "ym2612"
    },
    {
      "channel": 1,
      "note": 55,
      "start": 54.1253,
      "duration": 0.1348,
      "velocity": 117,
      "chip": "ym2612"
    },
    {
      "channel": 0,
      "note": 55,
      "start": 54.26,
      "duration": 0.8981,
      "velocity": 117,
      "chip": "ym2612"
    },
    {
      "channel": 4,
      "note": 61,
      "start": 54.2638,
      "duration": 0.2621,
      "velocity": 94,
      "chip": "ym2612"
    },
    {
      "channel": 1,
      "note": 59,
      "start": 54.2764,
      "duration": 0.8828,
      "velocity": 117,
      "chip": "ym2612"
    },
    {
      "channel": 4,
      "note": 68,
      "start": 54.5268,
      "duration": 0.0338,
      "velocity": 94,
      "chip": "ym2612"
    },
    {
      "channel": 4,
      "note": 61,
      "start": 54.5824,
      "duration": 0.2629,
      "velocity": 94,
      "chip": "ym2612"
    },
    {
      "channel": 5,
      "note": 68,
      "start": 54.6606,
      "duration": 0.1858,
      "velocity": 127,
      "chip": "ym2612"
    },
    {
      "channel": 4,
      "note": 68,
      "start": 54.8462,
      "duration": 0.0342,
      "velocity": 94,
      "chip": "ym2612"
    },
    {
      "channel": 4,
      "note": 61,
      "start": 54.8976,
      "duration": 0.0943,
      "velocity": 94,
      "chip": "ym2612"
    },
    {
      "channel": 4,
      "note": 63,
      "start": 54.9923,
      "duration": 0.1153,
      "velocity": 94,
      "chip": "ym2612"
    },
    {
      "channel": 5,
      "note": 68,
      "start": 54.9929,
      "duration": 0.1704,
      "velocity": 127,
      "chip": "ym2612"
    },
    {
      "channel": 0,
      "note": 67,
      "start": 55.1591,
      "duration": 0.1049,
      "velocity": 117,
      "chip": "ym2612"
    },
    {
      "channel": 2,
      "note": 90,
      "start": 55.1612,
      "duration": 0.0334,
      "velocity": 99,
      "chip": "ym2612"
    },
    {
      "channel": 3,
      "note": 85,
      "start": 55.1623,
      "duration": 0.0333,
      "velocity": 99,
      "chip": "ym2612"
    },
    {
      "channel": 4,
      "note": 64,
      "start": 55.1632,
      "duration": 0.0332,
      "velocity": 94,
      "chip": "ym2612"
    },
    {
      "channel": 1,
      "note": 63,
      "start": 55.1758,
      "duration": 0.0893,
      "velocity": 117,
      "chip": "ym2612"
    },
    {
      "channel": 2,
      "note": 89,
      "start": 55.2166,
      "duration": 0.0328,
      "velocity": 99,
      "chip": "ym2612"
    },
    {
      "channel": 3,
      "note": 85,
      "start": 55.2176,
      "duration": 0.0327,
      "velocity": 99,
      "chip": "ym2612"
    },
    {
      "channel": 4,
      "note": 61,
      "start": 55.2185,
      "duration": 0.0326,
      "velocity": 94,
      "chip": "ym2612"
    },
    {
      "channel": 0,
      "note": 64,
      "start": 55.2649,
      "duration": 0.2627,
      "velocity": 117,
      "chip": "ym2612"
    },
    {
      "channel": 4,
      "note": 61,
      "start": 55.2687,
      "duration": 0.2628,
      "velocity": 94,
      "chip": "ym2612"
    },
    {
      "channel": 1,
      "note": 68,
      "start": 55.2812,
      "duration": 0.2475,
      "velocity": 117,
      "chip": "ym2612"
    },
    {
      "channel": 5,
      "note": 68,
      "start": 55.3626,
      "duration": 0.1698,
      "velocity": 127,
      "chip": "ym2612"
    },
    {
      "channel": 0,
      "note": 72,
      "start": 55.5286,
      "duration": 0.0559,
      "velocity": 117,
      "chip": "ym2612"
    },
    {
      "channel": 4,
      "note": 68,
      "start": 55.5323,
      "duration": 0.0345,
      "velocity": 94,
      "chip": "ym2612"
    },
    {
      "channel": 1,
      "note": 73,
      "start": 55.5401,
      "duration": 0.0455,
      "velocity": 117,
      "chip": "ym2612"
    },
    {
      "channel": 0,
      "note": 72,
      "start": 55.5855,
      "duration": 0.5792,
      "velocity": 117,
      "chip": "ym2612"
    },
    {
      "channel": 4,
      "note": 61,
      "start": 55.5892,
      "duration": 0.2628,
      "velocity": 94,
      "chip": "ym2612"
    },
    {
      "channel": 1,
      "note": 70,
      "start": 55.5969,
      "duration": 0.5688,
      "velocity": 117,
      "chip": "ym2612"
    },
    {
      "channel": 5,
      "note": 68,
      "start": 55.6671,
      "duration": 0.1858,
      "velocity": 127,
      "chip": "ym2612"
    },
    {
      "channel": 4,
      "note": 68,
      "start": 55.8528,
      "duration": 0.0341,
      "velocity": 94,
      "chip": "ym2612"
    },
    {
      "channel": 4,
      "note": 61,
      "start": 55.9043,
      "duration": 0.094,
      "velocity": 94,
      "chip": "ym2612"
    },
    {
      "channel": 4,
      "note": 63,
      "start": 55.9987,
      "duration": 0.1154,
      "velocity": 94,
      "chip": "ym2612"
    },
    {
      "channel": 5,
      "note": 68,
      "start": 55.9993,
      "duration": 0.1704,
      "velocity": 127,
      "chip": "ym2612"
    },
    {
      "channel": 0,
      "note": 69,
      "start": 56.1655,
      "duration": 0.221,
      "velocity": 117,
      "chip": "ym2612"
    },
    {
      "channel": 2,
      "note": 90,
      "start": 56.1677,
      "duration": 0.0327,
      "velocity": 99,
      "chip": "ym2612"
    },
    {
      "channel": 3,
      "note": 85,
      "start": 56.1687,
      "duration": 0.0327,
      "velocity": 99,
      "chip": "ym2612"
    },
    {
      "channel": 4,
      "note": 64,
      "start": 56.1696,
      "duration": 0.0324,
      "velocity": 94,
      "chip": "ym2612"
    },
    {
      "channel": 1,
      "note": 67,
      "start": 56.1772,
      "duration": 0.2103,
      "velocity": 117,
      "chip": "ym2612"
    },
    {
      "channel": 4,
      "note": 61,
      "start": 56.2208,
      "duration": 0.1152,
      "velocity": 94,
      "chip": "ym2612"
    },
    {
      "channel": 5,
      "note": 68,
      "start": 56.2214,
      "duration": 0.1702,
      "velocity": 127,
      "chip": "ym2612"
    },
    {
      "channel": 0,
      "note": 67,
      "start": 56.3874,
      "duration": 0.2201,
      "velocity": 117,
      "chip": "ym2612"
    },
    {
      "channel": 2,
      "note": 89,
      "start": 56.3896,
      "duration": 0.0328,
      "velocity": 99,
      "chip": "ym2612"
    },
    {
      "channel": 3,
      "note": 85,
      "start": 56.3906,
      "duration": 0.0327,
      "velocity": 99,
      "chip": "ym2612"
    },
    {
      "channel": 4,
      "note": 56,
      "start": 56.3915,
      "duration": 0.0507,
      "velocity": 94,
      "chip": "ym2612"
    },
    {
      "channel": 1,
      "note": 69,
      "start": 56.3991,
      "duration": 0.2095,
      "velocity": 117,
      "chip": "ym2612"
    },
    {
      "channel": 4,
      "note": 68,
      "start": 56.4426,
      "duration": 0.1149,
      "velocity": 94,
      "chip": "ym2612"
    },
    {
      "channel": 5,
      "note": 68,
      "start": 56.4432,
      "duration": 0.1691,
      "velocity": 127,
      "chip": "ym2612"
    },
    {
      "channel": 0,
      "note": 69,
      "start": 56.6084,
      "duration": 1.6359,
      "velocity": 117,
      "chip": "ym2612"
    },
    {
      "channel": 4,
      "note": 56,
      "start": 56.6121,
      "duration": 0.2617,
      "velocity": 94,
      "chip": "ym2612"
    },
    {
      "channel": 1,
      "note": 68,
      "start": 56.6248,
      "duration": 1.6207,
      "velocity": 117,
      "chip": "ym2612"
    },
    {
      "channel": 4,
      "note": 68,
      "start": 56.8746,
      "duration": 0.0336,
      "velocity": 94,
      "chip": "ym2612"
    },
    {
      "channel": 4,
      "note": 59,
      "start": 56.9301,
      "duration": 0.2628,
      "velocity": 94,
      "chip": "ym2612"
    },
    {
      "channel": 5,
      "note": 68,
      "start": 57.008,
      "duration": 0.1858,
      "velocity": 127,
      "chip": "ym2612"
    },
    {
      "channel": 4,
      "note": 68,
      "start": 57.1937,
      "duration": 0.0342,
      "velocity": 94,
      "chip": "ym2612"
    },
    {
      "channel": 4,
      "note": 59,
      "start": 57.2452,
      "duration": 0.0941,
      "velocity": 94,
      "chip": "ym2612"
    },
    {
      "channel": 4,
      "note": 61,
      "start": 57.3398,
      "duration": 0.1153,
      "velocity": 94,
      "chip": "ym2612"
    },
    {
      "channel": 5,
      "note": 68,
      "start": 57.3403,
      "duration": 0.1695,
      "velocity": 127,
      "chip": "ym2612"
    },
    {
      "channel": 2,
      "note": 90,
      "start": 57.5078,
      "duration": 0.0328,
      "velocity": 99,
      "chip": "ym2612"
    },
    {
      "channel": 3,
      "note": 85,
      "start": 57.5088,
      "duration": 0.0327,
      "velocity": 99,
      "chip": "ym2612"
    },
    {
      "channel": 4,
      "note": 63,
      "start": 57.5097,
      "duration": 0.0326,
      "velocity": 94,
      "chip": "ym2612"
    },
    {
      "channel": 2,
      "note": 89,
      "start": 57.5633,
      "duration": 0.0324,
      "velocity": 99,
      "chip": "ym2612"
    },
    {
      "channel": 3,
      "note": 85,
      "start": 57.5643,
      "duration": 0.0323,
      "velocity": 99,
      "chip": "ym2612"
    },
    {
      "channel": 4,
      "note": 59,
      "start": 57.5652,
      "duration": 0.0322,
      "velocity": 94,
      "chip": "ym2612"
    },
    {
      "channel": 4,
      "note": 56,
      "start": 57.6146,
      "duration": 0.2624,
      "velocity": 94,
      "chip": "ym2612"
    },
    {
      "channel": 5,
      "note": 68,
      "start": 57.7088,
      "duration": 0.1691,
      "velocity": 127,
      "chip": "ym2612"
    },
    {
      "channel": 4,
      "note": 68,
      "start": 57.8778,
      "duration": 0.0339,
      "velocity": 94,
      "chip": "ym2612"
    },
    {
      "channel": 4,
      "note": 59,
      "start": 57.934,
      "duration": 0.2624,
      "velocity": 94,
      "chip": "ym2612"
    },
    {
      "channel": 5,
      "note": 68,
      "start": 58.0116,
      "duration": 0.1857,
      "velocity": 127,
      "chip": "ym2612"
    },
    {
      "channel": 4,
      "note": 68,
      "start": 58.1972,
      "duration": 0.0337,
      "velocity": 94,
      "chip": "ym2612"
    },
    {
      "channel": 0,
      "note": 67,
      "start": 58.2453,
      "duration": 0.263,
      "velocity": 117,
      "chip": "ym2612"
    },
    {
      "channel": 4,
      "note": 59,
      "start": 58.2491,
      "duration": 0.0932,
      "velocity": 94,
      "chip": "ym2612"
    },
    {
      "channel": 1,
      "note": 65,
      "start": 58.2567,
      "duration": 0.2526,
      "velocity": 117,
      "chip": "ym2612"
    },
    {
      "channel": 4,
      "note": 61,
      "start": 58.3427,
      "duration": 0.1151,
      "velocity": 94,
      "chip": "ym2612"
    },
    {
      "channel": 5,
      "note": 68,
      "start": 58.3433,
      "duration": 0.1701,
      "velocity": 127,
      "chip": "ym2612"
    },
    {
      "channel": 0,
      "note": 59,
      "start": 58.5092,
      "duration": 0.0533,
      "velocity": 117,
      "chip": "ym2612"
    },
    {
      "channel": 2,
      "note": 90,
      "start": 58.5113,
      "duration": 0.0327,
      "velocity": 99,
      "chip": "ym2612"
    },
    {
      "channel": 3,
      "note": 85,
      "start": 58.5123,
      "duration": 0.0327,
      "velocity": 99,
      "chip": "ym2612"
    },
    {
      "channel": 4,
      "note": 63,
      "start": 58.5133,
      "duration": 0.0325,
      "velocity": 94,
      "chip": "ym2612"
    },
    {
      "channel": 1,
      "note": 59,
      "start": 58.5207,
      "duration": 0.0429,
      "velocity": 117,
      "chip": "ym2612"
    },
    {
      "channel": 0,
      "note": 58,
      "start": 58.5635,
      "duration": 0.0515,
      "velocity": 117,
      "chip": "ym2612"
    },
    {
      "channel": 4,
      "note": 59,
      "start": 58.5671,
      "duration": 0.0359,
      "velocity": 94,
      "chip": "ym2612"
    },
    {
      "channel": 1,
      "note": 58,
      "start": 58.5762,
      "duration": 0.0399,
      "velocity": 117,
      "chip": "ym2612"
    },
    {
      "channel": 0,
      "note": 57,
      "start": 58.616,
      "duration": 0.0539,
      "velocity": 117,
      "chip": "ym2612"
    },
    {
      "channel": 2,
      "note": 89,
      "start": 58.6182,
      "duration": 0.0334,
      "velocity": 99,
      "chip": "ym2612"
    },
    {
      "channel": 3,
      "note": 85,
      "start": 58.6192,
      "duration": 0.0332,
      "velocity": 99,
      "chip": "ym2612"
    },
    {
      "channel": 4,
      "note": 66,
      "start": 58.6201,
      "duration": 0.0535,
      "velocity": 94,
      "chip": "ym2612"
    },
    {
      "channel": 1,
      "note": 56,
      "start": 58.6282,
      "duration": 0.0428,
      "velocity": 117,
      "chip": "ym2612"
    },
    {
      "channel": 0,
      "note": 38,
      "start": 58.6708,
      "duration": 0.0511,
      "velocity": 117,
      "chip": "ym2612"
    },
    {
      "channel": 4,
      "note": 68,
      "start": 58.6745,
      "duration": 0.0355,
      "velocity": 94,
      "chip": "ym2612"
    },
    {
      "channel": 1,
      "note": 40,
      "start": 58.6835,
      "duration": 0.0395,
      "velocity": 117,
      "chip": "ym2612"
    },
    {
      "channel": 0,
      "note": 52,
      "start": 58.7229,
      "duration": 0.2611,
      "velocity": 117,
      "chip": "ym2612"
    },
    {
      "channel": 1,
      "note": 47,
      "start": 58.7238,
      "duration": 0.2612,
      "velocity": 117,
      "chip": "ym2612"
    },
    {
      "channel": 2,
      "note": 56,
      "start": 58.725,
      "duration": 0.8879,
      "velocity": 99,
      "chip": "ym2612"
    },
    {
      "channel": 3,
      "note": 56,
      "start": 58.726,
      "duration": 0.8882,
      "velocity": 99,
      "chip": "ym2612"
    },
    {
      "channel": 4,
      "note": 56,
      "start": 58.727,
      "duration": 0.2607,
      "velocity": 94,
      "chip": "ym2612"
    },
    {
      "channel": 0,
      "note": 62,
      "start": 58.985,
      "duration": 0.0528,
      "velocity": 117,
      "chip": "ym2612"
    },
    {
      "channel": 1,
      "note": 71,
      "start": 58.986,
      "duration": 0.0528,
      "velocity": 117,
      "chip": "ym2612"
    },
    {
      "channel": 4,
      "note": 68,
      "start": 58.9885,
      "duration": 0.032,
      "velocity": 94,
      "chip": "ym2612"
    },
    {
      "channel": 0,
      "note": 62,
      "start": 59.0387,
      "duration": 0.5722,
      "velocity": 117,
      "chip": "ym2612"
    },
    {
      "channel": 1,
      "note": 70,
      "start": 59.0398,
      "duration": 0.5722,
      "velocity": 117,
      "chip": "ym2612"
    },
    {
      "channel": 4,
      "note": 59,
      "start": 59.0422,
      "duration": 0.2604,
      "velocity": 94,
      "chip": "ym2612"
    },
    {
      "channel": 5,
      "note": 68,
      "start": 59.1179,
      "duration": 0.1856,
      "velocity": 127,
      "chip": "ym2612"
    },
    {
      "channel": 4,
      "note": 68,
      "start": 59.3034,
      "duration": 0.0323,
      "velocity": 94,
      "chip": "ym2612"
    },
    {
      "channel": 4,
      "note": 59,
      "start": 59.3518,
      "duration": 0.0923,
      "velocity": 94,
      "chip": "ym2612"
    },
    {
      "channel": 4,
      "note": 61,
      "start": 59.4446,
      "duration": 0.1153,
      "velocity": 94,
      "chip": "ym2612"
    },
    {
      "channel": 5,
      "note": 68,
      "start": 59.4451,
      "duration": 0.1709,
      "velocity": 127,
      "chip": "ym2612"
    },
    {
      "channel": 0,
      "note": 58,
      "start": 59.6119,
      "duration": 0.0538,
      "velocity": 117,
      "chip": "ym2612"
    },
    {
      "channel": 1,
      "note": 67,
      "start": 59.6128,
      "duration": 0.0538,
      "velocity": 117,
      "chip": "ym2612"
    },
    {
      "channel": 2,
      "note": 90,
      "start": 59.614,
      "duration": 0.0322,
      "velocity": 99,
      "chip": "ym2612"
    },
    {
      "channel": 3,
      "note": 85,
      "start": 59.6151,
      "duration": 0.032,
      "velocity": 99,
      "chip": "ym2612"
    },
    {
      "channel": 4,
      "note": 63,
      "start": 59.6159,
      "duration": 0.032,
      "velocity": 94,
      "chip": "ym2612"
    },
    {
      "channel": 0,
      "note": 57,
      "start": 59.6666,
      "duration": 0.0492,
      "velocity": 117,
      "chip": "ym2612"
    },
    {
      "channel": 1,
      "note": 67,
      "start": 59.6676,
      "duration": 0.0492,
      "velocity": 117,
      "chip": "ym2612"
    },
    {
      "channel": 2,
      "note": 89,
      "start": 59.6688,
      "duration": 0.0324,
      "velocity": 99,
      "chip": "ym2612"
    },
    {
      "channel": 3,
      "note": 85,
      "start": 59.6698,
      "duration": 0.0323,
      "velocity": 99,
      "chip": "ym2612"
    },
    {
      "channel": 4,
      "note": 59,
      "start": 59.6707,
      "duration": 0.0322,
      "velocity": 94,
      "chip": "ym2612"
    },
    {
      "channel": 0,
      "note": 60,
      "start": 59.7167,
      "duration": 0.2609,
      "velocity": 117,
      "chip": "ym2612"
    },
    {
      "channel": 1,
      "note": 69,
      "start": 59.7178,
      "duration": 0.261,
      "velocity": 117,
      "chip": "ym2612"
    },
    {
      "channel": 2,
      "note": 56,
      "start": 59.719,
      "duration": 0.888,
      "velocity": 99,
      "chip": "ym2612"
    },
    {
      "channel": 3,
      "note": 56,
      "start": 59.72,
      "duration": 0.8883,
      "velocity": 99,
      "chip": "ym2612"
    },
    {
      "channel": 4,
      "note": 56,
      "start": 59.721,
      "duration": 0.2604,
      "velocity": 94,
      "chip": "ym2612"
    },
    {
      "channel": 5,
      "note": 68,
      "start": 59.8122,
      "duration": 0.1702,
      "velocity": 127,
      "chip": "ym2612"
    },
    {
      "channel": 0,
      "note": 62,
      "start": 59.9786,
      "duration": 0.0528,
      "velocity": 117,
      "chip": "ym2612"
    },
    {
      "channel": 1,
      "note": 71,
      "start": 59.9797,
      "duration": 0.0528,
      "velocity": 117,
      "chip": "ym2612"
    },
    {
      "channel": 4,
      "note": 68,
      "start": 59.9822,
      "duration": 0.032,
      "velocity": 94,
      "chip": "ym2612"
    },
    {
      "channel": 0,
      "note": 62,
      "start": 60.0323,
      "duration": 0.3101,
      "velocity": 117,
      "chip": "ym2612"
    },
    {
      "channel": 1,
      "note": 70,
      "start": 60.0334,
      "duration": 0.31,
      "velocity": 117,
      "chip": "ym2612"
    },
    {
      "channel": 4,
      "note": 59,
      "start": 60.0359,
      "duration": 0.2604,
      "velocity": 94,
      "chip": "ym2612"
    },
    {
      "channel": 5,
      "note": 68,
      "start": 60.1115,
      "duration": 0.1857,
      "velocity": 127,
      "chip": "ym2612"
    },
    {
      "channel": 4,
      "note": 68,
      "start": 60.2971,
      "duration": 0.0318,
      "velocity": 94,
      "chip": "ym2612"
    },
    {
      "channel": 0,
      "note": 60,
      "start": 60.3434,
      "duration": 0.2615,
      "velocity": 117,
      "chip": "ym2612"
    },
    {
      "channel": 1,
      "note": 69,
      "start": 60.3444,
      "duration": 0.2616,
      "velocity": 117,
      "chip": "ym2612"
    },
    {
      "channel": 4,
      "note": 59,
      "start": 60.347,
      "duration": 0.0911,
      "velocity": 94,
      "chip": "ym2612"
    },
    {
      "channel": 4,
      "note": 61,
      "start": 60.4386,
      "duration": 0.1153,
      "velocity": 94,
      "chip": "ym2612"
    },
    {
      "channel": 5,
      "note": 68,
      "start": 60.4392,
      "duration": 0.171,
      "velocity": 127,
      "chip": "ym2612"
    },
    {
      "channel": 0,
      "note": 60,
      "start": 60.6059,
      "duration": 0.0534,
      "velocity": 117,
      "chip": "ym2612"
    },
    {
      "channel": 1,
      "note": 69,
      "start": 60.6069,
      "duration": 0.0527,
      "velocity": 117,
      "chip": "ym2612"
    },
    {
      "channel": 2,
      "note": 90,
      "start": 60.6081,
      "duration": 0.0322,
      "velocity": 99,
      "chip": "ym2612"
    },
    {
      "channel": 3,
      "note": 85,
      "start": 60.6092,
      "duration": 0.0321,
      "velocity": 99,
      "chip": "ym2612"
    },
    {
      "channel": 4,
      "note": 63,
      "start": 60.6101,
      "duration": 0.032,
      "velocity": 94,
      "chip": "ym2612"
    },
    {
      "channel": 0,
      "note": 58,
      "start": 60.6595,
      "duration": 0.1669,
      "velocity": 117,
      "chip": "ym2612"
    },
    {
      "channel": 1,
      "note": 67,
      "start": 60.6599,
      "duration": 0.1676,
      "velocity": 117,
      "chip": "ym2612"
    },
    {
      "channel": 4,
      "note": 59,
      "start": 60.6613,
      "duration": 0.1143,
      "velocity": 94,
      "chip": "ym2612"
    },
    {
      "channel": 5,
      "note": 68,
      "start": 60.6619,
      "duration": 0.1698,
      "velocity": 127,
      "chip": "ym2612"
    },
    {
      "channel": 0,
      "note": 57,
      "start": 60.8274,
      "duration": 0.0529,
      "velocity": 117,
      "chip": "ym2612"
    },
    {
      "channel": 1,
      "note": 65,
      "start": 60.8284,
      "duration": 0.0523,
      "velocity": 117,
      "chip": "ym2612"
    },
    {
      "channel": 2,
      "note": 89,
      "start": 60.8296,
      "duration": 0.032,
      "velocity": 99,
      "chip": "ym2612"
    },
    {
      "channel": 3,
      "note": 85,
      "start": 60.8306,
      "duration": 0.0319,
      "velocity": 99,
      "chip": "ym2612"
    },
    {
      "channel": 4,
      "note": 66,
      "start": 60.8315,
      "duration": 0.0503,
      "velocity": 94,
      "chip": "ym2612"
    },
    {
      "channel": 0,
      "note": 55,
      "start": 60.8806,
      "duration": 0.1667,
      "velocity": 117,
      "chip": "ym2612"
    },
    {
      "channel": 1,
      "note": 62,
      "start": 60.881,
      "duration": 0.1673,
      "velocity": 117,
      "chip": "ym2612"
    },
    {
      "channel": 4,
      "note": 68,
      "start": 60.8823,
      "duration": 0.1142,
      "velocity": 94,
      "chip": "ym2612"
    },
    {
      "channel": 5,
      "note": 68,
      "start": 60.883,
      "duration": 0.1696,
      "velocity": 127,
      "chip": "ym2612"
    },
    {
      "channel": 0,
      "note": 55,
      "start": 61.0482,
      "duration": 0.3916,
      "velocity": 117,
      "chip": "ym2612"
    },
    {
      "channel": 1,
      "note": 62,
      "start": 61.0493,
      "duration": 0.3908,
      "velocity": 117,
      "chip": "ym2612"
    },
    {
      "channel": 2,
      "note": 59,
      "start": 61.0505,
      "duration": 0.8868,
      "velocity": 99,
      "chip": "ym2612"
    },
    {
      "channel": 3,
      "note": 59,
      "start": 61.0515,
      "duration": 0.887,
      "velocity": 99,
      "chip": "ym2612"
    },
    {
      "channel": 4,
      "note": 59,
      "start": 61.0524,
      "duration": 0.2588,
      "velocity": 94,
      "chip": "ym2612"
    },
    {
      "channel": 4,
      "note": 68,
      "start": 61.3121,
      "duration": 0.0323,
      "velocity": 94,
      "chip": "ym2612"
    },
    {
      "channel": 4,
      "note": 59,
      "start": 61.365,
      "duration": 0.261,
      "velocity": 94,
      "chip": "ym2612"
    },
    {
      "channel": 0,
      "note": 66,
      "start": 61.4401,
      "duration": 0.2324,
      "velocity": 117,
      "chip": "ym2612"
    },
    {
      "channel": 1,
      "note": 73,
      "start": 61.4405,
      "duration": 0.2331,
      "velocity": 117,
      "chip": "ym2612"
    },
    {
      "channel": 5,
      "note": 68,
      "start": 61.4422,
      "duration": 0.1848,
      "velocity": 127,
      "chip": "ym2612"
    },
    {
      "channel": 4,
      "note": 68,
      "start": 61.6268,
      "duration": 0.0321,
      "velocity": 94,
      "chip": "ym2612"
    },
    {
      "channel": 0,
      "note": 65,
      "start": 61.6734,
      "duration": 0.2617,
      "velocity": 117,
      "chip": "ym2612"
    },
    {
      "channel": 1,
      "note": 72,
      "start": 61.6745,
      "duration": 0.2617,
      "velocity": 117,
      "chip": "ym2612"
    },
    {
      "channel": 4,
      "note": 59,
      "start": 61.6771,
      "duration": 0.0913,
      "velocity": 94,
      "chip": "ym2612"
    },
    {
      "channel": 4,
      "note": 61,
      "start": 61.7689,
      "duration": 0.1153,
      "velocity": 94,
      "chip": "ym2612"
    },
    {
      "channel": 5,
      "note": 68,
      "start": 61.7695,
      "duration": 0.1709,
      "velocity": 127,
      "chip": "ym2612"
    },
    {
      "channel": 0,
      "note": 64,
      "start": 61.9361,
      "duration": 0.0539,
      "velocity": 117,
      "chip": "ym2612"
    },
    {
      "channel": 1,
      "note": 70,
      "start": 61.9371,
      "duration": 0.054,
      "velocity": 117,
      "chip": "ym2612"
    },
    {
      "channel": 2,
      "note": 90,
      "start": 61.9383,
      "duration": 0.0321,
      "velocity": 99,
      "chip": "ym2612"
    },
    {
      "channel": 3,
      "note": 85,
      "start": 61.9393,
      "duration": 0.032,
      "velocity": 99,
      "chip": "ym2612"
    },
    {
      "channel": 4,
      "note": 63,
      "start": 61.9402,
      "duration": 0.0319,
      "velocity": 94,
      "chip": "ym2612"
    },
    {
      "channel": 0,
      "note": 62,
      "start": 61.9909,
      "duration": 0.0488,
      "velocity": 117,
      "chip": "ym2612"
    },
    {
      "channel": 1,
      "note": 69,
      "start": 61.9919,
      "duration": 0.0488,
      "velocity": 117,
      "chip": "ym2612"
    },
    {
      "channel": 2,
      "note": 89,
      "start": 61.9931,
      "duration": 0.032,
      "velocity": 99,
      "chip": "ym2612"
    },
    {
      "channel": 3,
      "note": 85,
      "start": 61.9941,
      "duration": 0.0319,
      "velocity": 99,
      "chip": "ym2612"
    },
    {
      "channel": 4,
      "note": 59,
      "start": 61.995,
      "duration": 0.0319,
      "velocity": 94,
      "chip": "ym2612"
    },
    {
      "channel": 0,
      "note": 62,
      "start": 62.0407,
      "duration": 0.2615,
      "velocity": 117,
      "chip": "ym2612"
    },
    {
      "channel": 1,
      "note": 69,
      "start": 62.0417,
      "duration": 0.2616,
      "velocity": 117,
      "chip": "ym2612"
    },
    {
      "channel": 2,
      "note": 59,
      "start": 62.0429,
      "duration": 0.887,
      "velocity": 99,
      "chip": "ym2612"
    },
    {
      "channel": 3,
      "note": 59,
      "start": 62.0439,
      "duration": 0.8873,
      "velocity": 99,
      "chip": "ym2612"
    },
    {
      "channel": 4,
      "note": 59,
      "start": 62.0449,
      "duration": 0.261,
      "velocity": 94,
      "chip": "ym2612"
    },
    {
      "channel": 5,
      "note": 68,
      "start": 62.1368,
      "duration": 0.1701,
      "velocity": 127,
      "chip": "ym2612"
    },
    {
      "channel": 0,
      "note": 67,
      "start": 62.3032,
      "duration": 0.0521,
      "velocity": 117,
      "chip": "ym2612"
    },
    {
      "channel": 1,
      "note": 74,
      "start": 62.3042,
      "duration": 0.052,
      "velocity": 117,
      "chip": "ym2612"
    },
    {
      "channel": 4,
      "note": 68,
      "start": 62.3067,
      "duration": 0.0318,
      "velocity": 94,
      "chip": "ym2612"
    },
    {
      "channel": 0,
      "note": 67,
      "start": 62.3561,
      "duration": 0.5717,
      "velocity": 117,
      "chip": "ym2612"
    },
    {
      "channel": 1,
      "note": 74,
      "start": 62.3572,
      "duration": 0.5717,
      "velocity": 117,
      "chip": "ym2612"
    },
    {
      "channel": 4,
      "note": 59,
      "start": 62.3597,
      "duration": 0.2601,
      "velocity": 94,
      "chip": "ym2612"
    },
    {
      "channel": 5,
      "note": 68,
      "start": 62.4351,
      "duration": 0.1856,
      "velocity": 127,
      "chip": "ym2612"
    },
    {
      "channel": 4,
      "note": 68,
      "start": 62.6206,
      "duration": 0.032,
      "velocity": 94,
      "chip": "ym2612"
    },
    {
      "channel": 4,
      "note": 59,
      "start": 62.6691,
      "duration": 0.0919,
      "velocity": 94,
      "chip": "ym2612"
    },
    {
      "channel": 4,
      "note": 61,
      "start": 62.7615,
      "duration": 0.1153,
      "velocity": 94,
      "chip": "ym2612"
    },
    {
      "channel": 5,
      "note": 68,
      "start": 62.7621,
      "duration": 0.171,
      "velocity": 127,
      "chip": "ym2612"
    },
    {
      "channel": 0,
      "note": 64,
      "start": 62.9287,
      "duration": 0.0532,
      "velocity": 117,
      "chip": "ym2612"
    },
    {
      "channel": 1,
      "note": 72,
      "start": 62.9298,
      "duration": 0.0525,
      "velocity": 117,
      "chip": "ym2612"
    },
    {
      "channel": 2,
      "note": 90,
      "start": 62.931,
      "duration": 0.0322,
      "velocity": 99,
      "chip": "ym2612"
    },
    {
      "channel": 3,
      "note": 85,
      "start": 62.9321,
      "duration": 0.032,
      "velocity": 99,
      "chip": "ym2612"
    },
    {
      "channel": 4,
      "note": 63,
      "start": 62.933,
      "duration": 0.0319,
      "velocity": 94,
      "chip": "ym2612"
    },
    {
      "channel": 0,
      "note": 60,
      "start": 62.9823,
      "duration": 0.1669,
      "velocity": 117,
      "chip": "ym2612"
    },
    {
      "channel": 1,
      "note": 74,
      "start": 62.9827,
      "duration": 0.1676,
      "velocity": 117,
      "chip": "ym2612"
    },
    {
      "channel": 4,
      "note": 59,
      "start": 62.9841,
      "duration": 0.1143,
      "velocity": 94,
      "chip": "ym2612"
    },
    {
      "channel": 5,
      "note": 68,
      "start": 62.9846,
      "duration": 0.1698,
      "velocity": 127,
      "chip": "ym2612"
    },
    {
      "channel": 0,
      "note": 58,
      "start": 63.1501,
      "duration": 0.0528,
      "velocity": 117,
      "chip": "ym2612"
    },
    {
      "channel": 1,
      "note": 70,
      "start": 63.1511,
      "duration": 0.0522,
      "velocity": 117,
      "chip": "ym2612"
    },
    {
      "channel": 2,
      "note": 89,
      "start": 63.1523,
      "duration": 0.0322,
      "velocity": 99,
      "chip": "ym2612"
    },
    {
      "channel": 3,
      "note": 85,
      "start": 63.1534,
      "duration": 0.0321,
      "velocity": 99,
      "chip": "ym2612"
    },
    {
      "channel": 4,
      "note": 66,
      "start": 63.1543,
      "duration": 0.0502,
      "velocity": 94,
      "chip": "ym2612"
    },
    {
      "channel": 0,
      "note": 57,
      "start": 63.2033,
      "duration": 0.1666,
      "velocity": 117,
      "chip": "ym2612"
    },
    {
      "channel": 1,
      "note": 69,
      "start": 63.2037,
      "duration": 0.1671,
      "velocity": 117,
      "chip": "ym2612"
    },
    {
      "channel": 4,
      "note": 68,
      "start": 63.205,
      "duration": 0.1141,
      "velocity": 94,
      "chip": "ym2612"
    },
    {
      "channel": 5,
      "note": 68,
      "start": 63.2056,
      "duration": 0.1693,
      "velocity": 127,
      "chip": "ym2612"
    },
    {
      "channel": 0,
      "note": 55,
      "start": 63.3707,
      "duration": 0.8864,
      "velocity": 117,
      "chip": "ym2612"
    },
    {
      "channel": 1,
      "note": 67,
      "start": 63.3718,
      "duration": 0.8863,
      "velocity": 117,
      "chip": "ym2612"
    },
    {
      "channel": 2,
      "note": 61,
      "start": 63.3729,
      "duration": 0.8862,
      "velocity": 99,
      "chip": "ym2612"
    },
    {
      "channel": 3,
      "note": 61,
      "start": 63.3739,
      "duration": 0.8865,
      "velocity": 99,
      "chip": "ym2612"
    },
    {
      "channel": 4,
      "note": 61,
      "start": 63.3748,
      "duration": 0.2591,
      "velocity": 94,
      "chip": "ym2612"
    },
    {
      "channel": 4,
      "note": 68,
      "start": 63.6347,
      "duration": 0.0318,
      "velocity": 94,
      "chip": "ym2612"
    },
    {
      "channel": 4,
      "note": 61,
      "start": 63.6877,
      "duration": 0.2611,
      "velocity": 94,
      "chip": "ym2612"
    },
    {
      "channel": 5,
      "note": 68,
      "start": 63.764,
      "duration": 0.1857,
      "velocity": 127,
      "chip": "ym2612"
    },
    {
      "channel": 4,
      "note": 68,
      "start": 63.9496,
      "duration": 0.0323,
      "velocity": 94,
      "chip": "ym2612"
    },
    {
      "channel": 4,
      "note": 61,
      "start": 63.9978,
      "duration": 0.0925,
      "velocity": 94,
      "chip": "ym2612"
    },
    {
      "channel": 4,
      "note": 63,
      "start": 64.0908,
      "duration": 0.1153,
      "velocity": 94,
      "chip": "ym2612"
    },
    {
      "channel": 5,
      "note": 68,
      "start": 64.0914,
      "duration": 0.1708,
      "velocity": 127,
      "chip": "ym2612"
    },
    {
      "channel": 0,
      "note": 67,
      "start": 64.258,
      "duration": 0.1043,
      "velocity": 117,
      "chip": "ym2612"
    },
    {
      "channel": 1,
      "note": 74,
      "start": 64.259,
      "duration": 0.1043,
      "velocity": 117,
      "chip": "ym2612"
    },
    {
      "channel": 2,
      "note": 90,
      "start": 64.2602,
      "duration": 0.0328,
      "velocity": 99,
      "chip": "ym2612"
    },
    {
      "channel": 3,
      "note": 85,
      "start": 64.2612,
      "duration": 0.0327,
      "velocity": 99,
      "chip": "ym2612"
    },
    {
      "channel": 4,
      "note": 64,
      "start": 64.2621,
      "duration": 0.0325,
      "velocity": 94,
      "chip": "ym2612"
    },
    {
      "channel": 2,
      "note": 89,
      "start": 64.3146,
      "duration": 0.0324,
      "velocity": 99,
      "chip": "ym2612"
    },
    {
      "channel": 3,
      "note": 85,
      "start": 64.3156,
      "duration": 0.0322,
      "velocity": 99,
      "chip": "ym2612"
    },
    {
      "channel": 4,
      "note": 61,
      "start": 64.3165,
      "duration": 0.0321,
      "velocity": 94,
      "chip": "ym2612"
    },
    {
      "channel": 0,
      "note": 64,
      "start": 64.3632,
      "duration": 0.2612,
      "velocity": 117,
      "chip": "ym2612"
    },
    {
      "channel": 1,
      "note": 76,
      "start": 64.3643,
      "duration": 0.2612,
      "velocity": 117,
      "chip": "ym2612"
    },
    {
      "channel": 2,
      "note": 61,
      "start": 64.3654,
      "duration": 0.8868,
      "velocity": 99,
      "chip": "ym2612"
    },
    {
      "channel": 3,
      "note": 61,
      "start": 64.3665,
      "duration": 0.8869,
      "velocity": 99,
      "chip": "ym2612"
    },
    {
      "channel": 4,
      "note": 61,
      "start": 64.3674,
      "duration": 0.2606,
      "velocity": 94,
      "chip": "ym2612"
    },
    {
      "channel": 5,
      "note": 68,
      "start": 64.459,
      "duration": 0.17,
      "velocity": 127,
      "chip": "ym2612"
    },
    {
      "channel": 0,
      "note": 72,
      "start": 64.6253,
      "duration": 0.0527,
      "velocity": 117,
      "chip": "ym2612"
    },
    {
      "channel": 1,
      "note": 79,
      "start": 64.6263,
      "duration": 0.0527,
      "velocity": 117,
      "chip": "ym2612"
    },
    {
      "channel": 4,
      "note": 68,
      "start": 64.6288,
      "duration": 0.0324,
      "velocity": 94,
      "chip": "ym2612"
    },
    {
      "channel": 0,
      "note": 72,
      "start": 64.6789,
      "duration": 0.5712,
      "velocity": 117,
      "chip": "ym2612"
    },
    {
      "channel": 1,
      "note": 79,
      "start": 64.68,
      "duration": 0.5711,
      "velocity": 117,
      "chip": "ym2612"
    },
    {
      "channel": 4,
      "note": 61,
      "start": 64.6825,
      "duration": 0.2591,
      "velocity": 94,
      "chip": "ym2612"
    },
    {
      "channel": 5,
      "note": 68,
      "start": 64.7569,
      "duration": 0.1856,
      "velocity": 127,
      "chip": "ym2612"
    },
    {
      "channel": 4,
      "note": 68,
      "start": 64.9424,
      "duration": 0.0317,
      "velocity": 94,
      "chip": "ym2612"
    },
    {
      "channel": 4,
      "note": 61,
      "start": 64.9907,
      "duration": 0.0925,
      "velocity": 94,
      "chip": "ym2612"
    },
    {
      "channel": 4,
      "note": 63,
      "start": 65.0837,
      "duration": 0.1153,
      "velocity": 94,
      "chip": "ym2612"
    },
    {
      "channel": 5,
      "note": 68,
      "start": 65.0843,
      "duration": 0.1709,
      "velocity": 127,
      "chip": "ym2612"
    },
    {
      "channel": 0,
      "note": 69,
      "start": 65.251,
      "duration": 0.221,
      "velocity": 117,
      "chip": "ym2612"
    },
    {
      "channel": 1,
      "note": 76,
      "start": 65.252,
      "duration": 0.2209,
      "velocity": 117,
      "chip": "ym2612"
    },
    {
      "channel": 2,
      "note": 90,
      "start": 65.2532,
      "duration": 0.0324,
      "velocity": 99,
      "chip": "ym2612"
    },
    {
      "channel": 3,
      "note": 85,
      "start": 65.2542,
      "duration": 0.0324,
      "velocity": 99,
      "chip": "ym2612"
    },
    {
      "channel": 4,
      "note": 64,
      "start": 65.2551,
      "duration": 0.0323,
      "velocity": 94,
      "chip": "ym2612"
    },
    {
      "channel": 4,
      "note": 61,
      "start": 65.3059,
      "duration": 0.1152,
      "velocity": 94,
      "chip": "ym2612"
    },
    {
      "channel": 5,
      "note": 68,
      "start": 65.3066,
      "duration": 0.1705,
      "velocity": 127,
      "chip": "ym2612"
    },
    {
      "channel": 0,
      "note": 67,
      "start": 65.4729,
      "duration": 0.2211,
      "velocity": 117,
      "chip": "ym2612"
    },
    {
      "channel": 1,
      "note": 79,
      "start": 65.4739,
      "duration": 0.2211,
      "velocity": 117,
      "chip": "ym2612"
    },
    {
      "channel": 2,
      "note": 89,
      "start": 65.475,
      "duration": 0.0329,
      "velocity": 99,
      "chip": "ym2612"
    },
    {
      "channel": 3,
      "note": 85,
      "start": 65.4761,
      "duration": 0.0328,
      "velocity": 99,
      "chip": "ym2612"
    },
    {
      "channel": 4,
      "note": 56,
      "start": 65.477,
      "duration": 0.0503,
      "velocity": 94,
      "chip": "ym2612"
    },
    {
      "channel": 4,
      "note": 68,
      "start": 65.5278,
      "duration": 0.1151,
      "velocity": 94,
      "chip": "ym2612"
    },
    {
      "channel": 5,
      "note": 68,
      "start": 65.5284,
      "duration": 0.1707,
      "velocity": 127,
      "chip": "ym2612"
    },
    {
      "channel": 0,
      "note": 69,
      "start": 65.6949,
      "duration": 1.3639,
      "velocity": 117,
      "chip": "ym2612"
    },
    {
      "channel": 1,
      "note": 83,
      "start": 65.6959,
      "duration": 1.3638,
      "velocity": 117,
      "chip": "ym2612"
    },
    {
      "channel": 2,
      "note": 56,
      "start": 65.6971,
      "duration": 0.8851,
      "velocity": 99,
      "chip": "ym2612"
    },
    {
      "channel": 3,
      "note": 56,
      "start": 65.6981,
      "duration": 0.8853,
      "velocity": 99,
      "chip": "ym2612"
    },
    {
      "channel": 4,
      "note": 56,
      "start": 65.6991,
      "duration": 0.2587,
      "velocity": 94,
      "chip": "ym2612"
    },
    {
      "channel": 4,
      "note": 68,
      "start": 65.9586,
      "duration": 0.0327,
      "velocity": 94,
      "chip": "ym2612"
    },
    {
      "channel": 4,
      "note": 59,
      "start": 66.0117,
      "duration": 0.2605,
      "velocity": 94,
      "chip": "ym2612"
    },
    {
      "channel": 5,
      "note": 68,
      "start": 66.0877,
      "duration": 0.1854,
      "velocity": 127,
      "chip": "ym2612"
    },
    {
      "channel": 4,
      "note": 68,
      "start": 66.2729,
      "duration": 0.0337,
      "velocity": 94,
      "chip": "ym2612"
    },
    {
      "channel": 4,
      "note": 59,
      "start": 66.3221,
      "duration": 0.0927,
      "velocity": 94,
      "chip": "ym2612"
    },
    {
      "channel": 4,
      "note": 61,
      "start": 66.4152,
      "duration": 0.115,
      "velocity": 94,
      "chip": "ym2612"
    },
    {
      "channel": 5,
      "note": 68,
      "start": 66.4158,
      "duration": 0.1694,
      "velocity": 127,
      "chip": "ym2612"
    },
    {
      "channel": 2,
      "note": 90,
      "start": 66.5831,
      "duration": 0.0335,
      "velocity": 99,
      "chip": "ym2612"
    },
    {
      "channel": 3,
      "note": 85,
      "start": 66.5842,
      "duration": 0.0334,
      "velocity": 99,
      "chip": "ym2612"
    },
    {
      "channel": 4,
      "note": 63,
      "start": 66.5851,
      "duration": 0.0332,
      "velocity": 94,
      "chip": "ym2612"
    },
    {
      "channel": 2,
      "note": 89,
      "start": 66.6382,
      "duration": 0.034,
      "velocity": 99,
      "chip": "ym2612"
    },
    {
      "channel": 3,
      "note": 85,
      "start": 66.6393,
      "duration": 0.0338,
      "velocity": 99,
      "chip": "ym2612"
    },
    {
      "channel": 4,
      "note": 59,
      "start": 66.6402,
      "duration": 0.0337,
      "velocity": 94,
      "chip": "ym2612"
    },
    {
      "channel": 2,
      "note": 56,
      "start": 66.6887,
      "duration": 0.5149,
      "velocity": 99,
      "chip": "ym2612"
    },
    {
      "channel": 3,
      "note": 56,
      "start": 66.6897,
      "duration": 0.515,
      "velocity": 99,
      "chip": "ym2612"
    },
    {
      "channel": 4,
      "note": 56,
      "start": 66.6906,
      "duration": 0.142,
      "velocity": 94,
      "chip": "ym2612"
    },
    {
      "channel": 4,
      "note": 68,
      "start": 66.8334,
      "duration": 0.0326,
      "velocity": 94,
      "chip": "ym2612"
    },
    {
      "channel": 4,
      "note": 59,
      "start": 66.8856,
      "duration": 0.1289,
      "velocity": 94,
      "chip": "ym2612"
    },
    {
      "channel": 4,
      "note": 68,
      "start": 67.0154,
      "duration": 0.0319,
      "velocity": 94,
      "chip": "ym2612"
    },
    {
      "channel": 0,
      "note": 67,
      "start": 67.0596,
      "duration": 0.1418,
      "velocity": 117,
      "chip": "ym2612"
    },
    {
      "channel": 1,
      "note": 82,
      "start": 67.0607,
      "duration": 0.1418,
      "velocity": 117,
      "chip": "ym2612"
    },
    {
      "channel": 4,
      "note": 59,
      "start": 67.0632,
      "duration": 0.0923,
      "velocity": 94,
      "chip": "ym2612"
    },
    {
      "channel": 4,
      "note": 61,
      "start": 67.1563,
      "duration": 0.0332,
      "velocity": 94,
      "chip": "ym2612"
    },
    {
      "channel": 0,
      "note": 59,
      "start": 67.2024,
      "duration": 0.0535,
      "velocity": 117,
      "chip": "ym2612"
    },
    {
      "channel": 1,
      "note": 79,
      "start": 67.2034,
      "duration": 0.0535,
      "velocity": 117,
      "chip": "ym2612"
    },
    {
      "channel": 2,
      "note": 90,
      "start": 67.2045,
      "duration": 0.0322,
      "velocity": 99,
      "chip": "ym2612"
    },
    {
      "channel": 3,
      "note": 85,
      "start": 67.2055,
      "duration": 0.0322,
      "velocity": 99,
      "chip": "ym2612"
    },
    {
      "channel": 4,
      "note": 63,
      "start": 67.2064,
      "duration": 0.0321,
      "velocity": 94,
      "chip": "ym2612"
    },
    {
      "channel": 0,
      "note": 58,
      "start": 67.2568,
      "duration": 0.0501,
      "velocity": 117,
      "chip": "ym2612"
    },
    {
      "channel": 1,
      "note": 77,
      "start": 67.2579,
      "duration": 0.0502,
      "velocity": 117,
      "chip": "ym2612"
    },
    {
      "channel": 4,
      "note": 59,
      "start": 67.2606,
      "duration": 0.0343,
      "velocity": 94,
      "chip": "ym2612"
    },
    {
      "channel": 0,
      "note": 57,
      "start": 67.308,
      "duration": 0.0541,
      "velocity": 117,
      "chip": "ym2612"
    },
    {
      "channel": 1,
      "note": 74,
      "start": 67.309,
      "duration": 0.0541,
      "velocity": 117,
      "chip": "ym2612"
    },
    {
      "channel": 2,
      "note": 89,
      "start": 67.3101,
      "duration": 0.0324,
      "velocity": 99,
      "chip": "ym2612"
    },
    {
      "channel": 3,
      "note": 85,
      "start": 67.3111,
      "duration": 0.0323,
      "velocity": 99,
      "chip": "ym2612"
    },
    {
      "channel": 4,
      "note": 66,
      "start": 67.3121,
      "duration": 0.0539,
      "velocity": 94,
      "chip": "ym2612"
    },
    {
      "channel": 0,
      "note": 57,
      "start": 67.3631,
      "duration": 0.0507,
      "velocity": 117,
      "chip": "ym2612"
    },
    {
      "channel": 1,
      "note": 72,
      "start": 67.3641,
      "duration": 0.0536,
      "velocity": 117,
      "chip": "ym2612"
    },
    {
      "channel": 4,
      "note": 68,
      "start": 67.3669,
      "duration": 0.0337,
      "velocity": 94,
      "chip": "ym2612"
    },
    {
      "channel": 0,
      "note": 68,
      "start": 67.4176,
      "duration": 1.0122,
      "velocity": 101,
      "chip": "ym2612"
    },
    {
      "channel": 1,
      "note": 56,
      "start": 67.4215,
      "duration": 1.0095,
      "velocity": 105,
      "chip": "ym2612"
    },
    {
      "channel": 2,
      "note": 65,
      "start": 67.4287,
      "duration": 1.0033,
      "velocity": 101,
      "chip": "ym2612"
    },
    {
      "channel": 3,
      "note": 56,
      "start": 67.4337,
      "duration": 0.9997,
      "velocity": 105,
      "chip": "ym2612"
    },
    {
      "channel": 4,
      "note": 70,
      "start": 67.4346,
      "duration": 0.2518,
      "velocity": 94,
      "chip": "ym2612"
    },
    {
      "channel": 5,
      "note": 56,
      "start": 67.5203,
      "duration": 0.1667,
      "velocity": 127,
      "chip": "ym2612"
    },
    {
      "channel": 4,
      "note": 58,
      "start": 67.6869,
      "duration": 0.1843,
      "velocity": 94,
      "chip": "ym2612"
    },
    {
      "channel": 5,
      "note": 56,
      "start": 67.6875,
      "duration": 0.1846,
      "velocity": 127,
      "chip": "ym2612"
    },
    {
      "channel": 4,
      "note": 58,
      "start": 67.872,
      "duration": 0.2595,
      "velocity": 94,
      "chip": "ym2612"
    },
    {
      "channel": 5,
      "note": 56,
      "start": 67.9487,
      "duration": 0.1834,
      "velocity": 127,
      "chip": "ym2612"
    },
    {
      "channel": 4,
      "note": 58,
      "start": 68.1321,
      "duration": 0.1676,
      "velocity": 94,
      "chip": "ym2612"
    },
    {
      "channel": 5,
      "note": 56,
      "start": 68.1327,
      "duration": 0.168,
      "velocity": 127,
      "chip": "ym2612"
    },
    {
      "channel": 4,
      "note": 56,
      "start": 68.3005,
      "duration": 0.0522,
      "velocity": 94,
      "chip": "ym2612"
    },
    {
      "channel": 4,
      "note": 58,
      "start": 68.3536,
      "duration": 0.0806,
      "velocity": 94,
      "chip": "ym2612"
    },
    {
      "channel": 0,
      "note": 68,
      "start": 68.4309,
      "duration": 0.2614,
      "velocity": 101,
      "chip": "ym2612"
    },
    {
      "channel": 1,
      "note": 56,
      "start": 68.4319,
      "duration": 0.2607,
      "velocity": 105,
      "chip": "ym2612"
    },
    {
      "channel": 2,
      "note": 65,
      "start": 68.4331,
      "duration": 0.2599,
      "velocity": 101,
      "chip": "ym2612"
    },
    {
      "channel": 3,
      "note": 68,
      "start": 68.4341,
      "duration": 1.0059,
      "velocity": 105,
      "chip": "ym2612"
    },
    {
      "channel": 4,
      "note": 68,
      "start": 68.435,
      "duration": 0.0909,
      "velocity": 94,
      "chip": "ym2612"
    },
    {
      "channel": 4,
      "note": 70,
      "start": 68.5263,
      "duration": 0.1675,
      "velocity": 94,
      "chip": "ym2612"
    },
    {
      "channel": 5,
      "note": 56,
      "start": 68.5269,
      "duration": 0.1674,
      "velocity": 127,
      "chip": "ym2612"
    },
    {
      "channel": 0,
      "note": 67,
      "start": 68.6926,
      "duration": 0.261,
      "velocity": 101,
      "chip": "ym2612"
    },
    {
      "channel": 1,
      "note": 55,
      "start": 68.6929,
      "duration": 0.2611,
      "velocity": 105,
      "chip": "ym2612"
    },
    {
      "channel": 2,
      "note": 63,
      "start": 68.6934,
      "duration": 0.2611,
      "velocity": 101,
      "chip": "ym2612"
    },
    {
      "channel": 4,
      "note": 58,
      "start": 68.6943,
      "duration": 0.1839,
      "velocity": 94,
      "chip": "ym2612"
    },
    {
      "channel": 5,
      "note": 56,
      "start": 68.6949,
      "duration": 0.1842,
      "velocity": 127,
      "chip": "ym2612"
    },
    {
      "channel": 4,
      "note": 58,
      "start": 68.879,
      "duration": 0.2587,
      "velocity": 94,
      "chip": "ym2612"
    },
    {
      "channel": 0,
      "note": 65,
      "start": 68.954,
      "duration": 0.3504,
      "velocity": 101,
      "chip": "ym2612"
    },
    {
      "channel": 1,
      "note": 56,
      "start": 68.9544,
      "duration": 0.351,
      "velocity": 105,
      "chip": "ym2612"
    },
    {
      "channel": 2,
      "note": 61,
      "start": 68.9548,
      "duration": 0.3516,
      "velocity": 101,
      "chip": "ym2612"
    },
    {
      "channel": 5,
      "note": 56,
      "start": 68.9562,
      "duration": 0.182,
      "velocity": 127,
      "chip": "ym2612"
    },
    {
      "channel": 4,
      "note": 58,
      "start": 69.1381,
      "duration": 0.1702,
      "velocity": 94,
      "chip": "ym2612"
    },
    {
      "channel": 5,
      "note": 56,
      "start": 69.1388,
      "duration": 0.1705,
      "velocity": 127,
      "chip": "ym2612"
    },
    {
      "channel": 0,
      "note": 67,
      "start": 69.3053,
      "duration": 0.1314,
      "velocity": 101,
      "chip": "ym2612"
    },
    {
      "channel": 1,
      "note": 58,
      "start": 69.3063,
      "duration": 0.1313,
      "velocity": 105,
      "chip": "ym2612"
    },
    {
      "channel": 2,
      "note": 63,
      "start": 69.3074,
      "duration": 0.1313,
      "velocity": 101,
      "chip": "ym2612"
    },
    {
      "channel": 4,
      "note": 60,
      "start": 69.3092,
      "duration": 0.0514,
      "velocity": 94,
      "chip": "ym2612"
    },
    {
      "channel": 4,
      "note": 61,
      "start": 69.3615,
      "duration": 0.0795,
      "velocity": 94,
      "chip": "ym2612"
    },
    {
      "channel": 0,
      "note": 63,
      "start": 69.4376,
      "duration": 1.0056,
      "velocity": 101,
      "chip": "ym2612"
    },
    {
      "channel": 1,
      "note": 60,
      "start": 69.4386,
      "duration": 0.444,
      "velocity": 105,
      "chip": "ym2612"
    },
    {
      "channel": 2,
      "note": 60,
      "start": 69.4398,
      "duration": 1.0055,
      "velocity": 101,
      "chip": "ym2612"
    },
    {
      "channel": 3,
      "note": 67,
      "start": 69.4408,
      "duration": 0.5202,
      "velocity": 105,
      "chip": "ym2612"
    },
    {
      "channel": 4,
      "note": 72,
      "start": 69.4417,
      "duration": 0.2582,
      "velocity": 94,
      "chip": "ym2612"
    },
    {
      "channel": 5,
      "note": 56,
      "start": 69.5338,
      "duration": 0.1667,
      "velocity": 127,
      "chip": "ym2612"
    },
    {
      "channel": 4,
      "note": 60,
      "start": 69.7004,
      "duration": 0.1848,
      "velocity": 94,
      "chip": "ym2612"
    },
    {
      "channel": 5,
      "note": 56,
      "start": 69.701,
      "duration": 0.1852,
      "velocity": 127,
      "chip": "ym2612"
    },
    {
      "channel": 1,
      "note": 60,
      "start": 69.8836,
      "duration": 0.4273,
      "velocity": 105,
      "chip": "ym2612"
    },
    {
      "channel": 4,
      "note": 60,
      "start": 69.8861,
      "duration": 0.2588,
      "velocity": 94,
      "chip": "ym2612"
    },
    {
      "channel": 3,
      "note": 66,
      "start": 69.9615,
      "duration": 0.4851,
      "velocity": 105,
      "chip": "ym2612"
    },
    {
      "channel": 5,
      "note": 56,
      "start": 69.9625,
      "duration": 0.1829,
      "velocity": 127,
      "chip": "ym2612"
    },
    {
      "channel": 4,
      "note": 60,
      "start": 70.1454,
      "duration": 0.1682,
      "velocity": 94,
      "chip": "ym2612"
    },
    {
      "channel": 5,
      "note": 56,
      "start": 70.146,
      "duration": 0.1685,
      "velocity": 127,
      "chip": "ym2612"
    },
    {
      "channel": 1,
      "note": 58,
      "start": 70.3119,
      "duration": 0.1324,
      "velocity": 105,
      "chip": "ym2612"
    },
    {
      "channel": 4,
      "note": 58,
      "start": 70.3144,
      "duration": 0.0521,
      "velocity": 94,
      "chip": "ym2612"
    },
    {
      "channel": 4,
      "note": 60,
      "start": 70.3673,
      "duration": 0.0802,
      "velocity": 94,
      "chip": "ym2612"
    },
    {
      "channel": 0,
      "note": 63,
      "start": 70.4441,
      "duration": 0.2612,
      "velocity": 101,
      "chip": "ym2612"
    },
    {
      "channel": 1,
      "note": 57,
      "start": 70.4452,
      "duration": 0.2605,
      "velocity": 105,
      "chip": "ym2612"
    },
    {
      "channel": 2,
      "note": 60,
      "start": 70.4464,
      "duration": 0.2597,
      "velocity": 101,
      "chip": "ym2612"
    },
    {
      "channel": 3,
      "note": 65,
      "start": 70.4474,
      "duration": 1.006,
      "velocity": 105,
      "chip": "ym2612"
    },
    {
      "channel": 4,
      "note": 63,
      "start": 70.4483,
      "duration": 0.0906,
      "velocity": 94,
      "chip": "ym2612"
    },
    {
      "channel": 4,
      "note": 65,
      "start": 70.5394,
      "duration": 0.1675,
      "velocity": 94,
      "chip": "ym2612"
    },
    {
      "channel": 5,
      "note": 56,
      "start": 70.54,
      "duration": 0.1674,
      "velocity": 127,
      "chip": "ym2612"
    },
    {
      "channel": 0,
      "note": 61,
      "start": 70.7057,
      "duration": 0.2612,
      "velocity": 101,
      "chip": "ym2612"
    },
    {
      "channel": 1,
      "note": 66,
      "start": 70.706,
      "duration": 0.2612,
      "velocity": 105,
      "chip": "ym2612"
    },
    {
      "channel": 2,
      "note": 58,
      "start": 70.7065,
      "duration": 0.2612,
      "velocity": 101,
      "chip": "ym2612"
    },
    {
      "channel": 4,
      "note": 53,
      "start": 70.7073,
      "duration": 0.1839,
      "velocity": 94,
      "chip": "ym2612"
    },
    {
      "channel": 5,
      "note": 56,
      "start": 70.708,
      "duration": 0.1843,
      "velocity": 127,
      "chip": "ym2612"
    },
    {
      "channel": 4,
      "note": 53,
      "start": 70.8921,
      "duration": 0.2592,
      "velocity": 94,
      "chip": "ym2612"
    },
    {
      "channel": 0,
      "note": 60,
      "start": 70.9672,
      "duration": 0.3505,
      "velocity": 101,
      "chip": "ym2612"
    },
    {
      "channel": 1,
      "note": 65,
      "start": 70.9676,
      "duration": 0.3512,
      "velocity": 105,
      "chip": "ym2612"
    },
    {
      "channel": 2,
      "note": 57,
      "start": 70.968,
      "duration": 0.3518,
      "velocity": 101,
      "chip": "ym2612"
    },
    {
      "channel": 5,
      "note": 56,
      "start": 70.9694,
      "duration": 0.1824,
      "velocity": 127,
      "chip": "ym2612"
    },
    {
      "channel": 4,
      "note": 65,
      "start": 71.1517,
      "duration": 0.17,
      "velocity": 94,
      "chip": "ym2612"
    },
    {
      "channel": 5,
      "note": 56,
      "start": 71.1523,
      "duration": 0.1704,
      "velocity": 127,
      "chip": "ym2612"
    },
    {
      "channel": 0,
      "note": 63,
      "start": 71.3187,
      "duration": 0.1314,
      "velocity": 101,
      "chip": "ym2612"
    },
    {
      "channel": 1,
      "note": 63,
      "start": 71.3198,
      "duration": 0.1313,
      "velocity": 105,
      "chip": "ym2612"
    },
    {
      "channel": 2,
      "note": 60,
      "start": 71.3209,
      "duration": 0.1312,
      "velocity": 101,
      "chip": "ym2612"
    },
    {
      "channel": 4,
      "note": 63,
      "start": 71.3226,
      "duration": 0.0516,
      "velocity": 94,
      "chip": "ym2612"
    },
    {
      "channel": 4,
      "note": 65,
      "start": 71.375,
      "duration": 0.0818,
      "velocity": 94,
      "chip": "ym2612"
    },
    {
      "channel": 0,
      "note": 61,
      "start": 71.4509,
      "duration": 0.2631,
      "velocity": 101,
      "chip": "ym2612"
    },
    {
      "channel": 1,
      "note": 61,
      "start": 71.452,
      "duration": 0.3148,
      "velocity": 105,
      "chip": "ym2612"
    },
    {
      "channel": 2,
      "note": 58,
      "start": 71.4532,
      "duration": 0.2627,
      "velocity": 101,
      "chip": "ym2612"
    },
    {
      "channel": 3,
      "note": 58,
      "start": 71.4567,
      "duration": 0.7523,
      "velocity": 99,
      "chip": "ym2612"
    },
    {
      "channel": 4,
      "note": 58,
      "start": 71.4576,
      "duration": 0.0896,
      "velocity": 94,
      "chip": "ym2612"
    },
    {
      "channel": 4,
      "note": 58,
      "start": 71.5477,
      "duration": 0.1702,
      "velocity": 94,
      "chip": "ym2612"
    },
    {
      "channel": 0,
      "note": 63,
      "start": 71.7149,
      "duration": 0.0508,
      "velocity": 101,
      "chip": "ym2612"
    },
    {
      "channel": 2,
      "note": 60,
      "start": 71.7169,
      "duration": 0.0509,
      "velocity": 101,
      "chip": "ym2612"
    },
    {
      "channel": 4,
      "note": 58,
      "start": 71.7186,
      "duration": 0.0511,
      "velocity": 94,
      "chip": "ym2612"
    },
    {
      "channel": 0,
      "note": 65,
      "start": 71.7666,
      "duration": 0.3097,
      "velocity": 101,
      "chip": "ym2612"
    },
    {
      "channel": 1,
      "note": 60,
      "start": 71.7677,
      "duration": 0.3097,
      "velocity": 105,
      "chip": "ym2612"
    },
    {
      "channel": 2,
      "note": 61,
      "start": 71.7689,
      "duration": 0.3096,
      "velocity": 101,
      "chip": "ym2612"
    },
    {
      "channel": 4,
      "note": 58,
      "start": 71.7705,
      "duration": 0.0464,
      "velocity": 94,
      "chip": "ym2612"
    },
    {
      "channel": 4,
      "note": 58,
      "start": 71.8176,
      "duration": 0.0917,
      "velocity": 94,
      "chip": "ym2612"
    },
    {
      "channel": 4,
      "note": 58,
      "start": 71.9098,
      "duration": 0.1706,
      "velocity": 94,
      "chip": "ym2612"
    },
    {
      "channel": 0,
      "note": 61,
      "start": 72.0773,
      "duration": 0.1307,
      "velocity": 101,
      "chip": "ym2612"
    },
    {
      "channel": 1,
      "note": 58,
      "start": 72.0783,
      "duration": 0.052,
      "velocity": 105,
      "chip": "ym2612"
    },
    {
      "channel": 2,
      "note": 58,
      "start": 72.0795,
      "duration": 0.1292,
      "velocity": 101,
      "chip": "ym2612"
    },
    {
      "channel": 4,
      "note": 58,
      "start": 72.0812,
      "duration": 0.0518,
      "velocity": 94,
      "chip": "ym2612"
    },
    {
      "channel": 1,
      "note": 60,
      "start": 72.1313,
      "duration": 0.8661,
      "velocity": 105,
      "chip": "ym2612"
    },
    {
      "channel": 4,
      "note": 58,
      "start": 72.1338,
      "duration": 0.0758,
      "velocity": 94,
      "chip": "ym2612"
    },
    {
      "channel": 0,
      "note": 63,
      "start": 72.2083,
      "duration": 0.2613,
      "velocity": 101,
      "chip": "ym2612"
    },
    {
      "channel": 2,
      "note": 60,
      "start": 72.209,
      "duration": 0.2625,
      "velocity": 101,
      "chip": "ym2612"
    },
    {
      "channel": 3,
      "note": 60,
      "start": 72.2095,
      "duration": 0.7901,
      "velocity": 99,
      "chip": "ym2612"
    },
    {
      "channel": 4,
      "note": 60,
      "start": 72.21,
      "duration": 0.1839,
      "velocity": 94,
      "chip": "ym2612"
    },
    {
      "channel": 4,
      "note": 60,
      "start": 72.3948,
      "duration": 0.0786,
      "velocity": 94,
      "chip": "ym2612"
    },
    {
      "channel": 0,
      "note": 67,
      "start": 72.4706,
      "duration": 0.0525,
      "velocity": 101,
      "chip": "ym2612"
    },
    {
      "channel": 2,
      "note": 63,
      "start": 72.4725,
      "duration": 0.0523,
      "velocity": 101,
      "chip": "ym2612"
    },
    {
      "channel": 4,
      "note": 60,
      "start": 72.4743,
      "duration": 0.0526,
      "velocity": 94,
      "chip": "ym2612"
    },
    {
      "channel": 0,
      "note": 68,
      "start": 72.524,
      "duration": 0.3391,
      "velocity": 101,
      "chip": "ym2612"
    },
    {
      "channel": 2,
      "note": 63,
      "start": 72.5259,
      "duration": 0.3391,
      "velocity": 101,
      "chip": "ym2612"
    },
    {
      "channel": 4,
      "note": 60,
      "start": 72.5278,
      "duration": 0.0741,
      "velocity": 94,
      "chip": "ym2612"
    },
    {
      "channel": 4,
      "note": 60,
      "start": 72.6023,
      "duration": 0.1854,
      "velocity": 94,
      "chip": "ym2612"
    },
    {
      "channel": 4,
      "note": 60,
      "start": 72.7884,
      "duration": 0.0785,
      "velocity": 94,
      "chip": "ym2612"
    },
    {
      "channel": 0,
      "note": 72,
      "start": 72.8641,
      "duration": 0.1322,
      "velocity": 101,
      "chip": "ym2612"
    },
    {
      "channel": 2,
      "note": 68,
      "start": 72.866,
      "duration": 0.1324,
      "velocity": 101,
      "chip": "ym2612"
    },
    {
      "channel": 4,
      "note": 60,
      "start": 72.8678,
      "duration": 0.0515,
      "velocity": 94,
      "chip": "ym2612"
    },
    {
      "channel": 4,
      "note": 60,
      "start": 72.9201,
      "duration": 0.0804,
      "velocity": 94,
      "chip": "ym2612"
    },
    {
      "channel": 0,
      "note": 75,
      "start": 72.9973,
      "duration": 0.1015,
      "velocity": 101,
      "chip": "ym2612"
    },
    {
      "channel": 1,
      "note": 63,
      "start": 72.9983,
      "duration": 0.1016,
      "velocity": 105,
      "chip": "ym2612"
    },
    {
      "channel": 2,
      "note": 72,
      "start": 72.9994,
      "duration": 0.1015,
      "velocity": 101,
      "chip": "ym2612"
    },
    {
      "channel": 3,
      "note": 58,
      "start": 73.0004,
      "duration": 0.45,
      "velocity": 99,
      "chip": "ym2612"
    },
    {
      "channel": 4,
      "note": 58,
      "start": 73.0013,
      "duration": 0.0514,
      "velocity": 94,
      "chip": "ym2612"
    },
    {
      "channel": 4,
      "note": 58,
      "start": 73.0535,
      "duration": 0.0493,
      "velocity": 94,
      "chip": "ym2612"
    },
    {
      "channel": 0,
      "note": 77,
      "start": 73.0998,
      "duration": 0.0535,
      "velocity": 101,
      "chip": "ym2612"
    },
    {
      "channel": 1,
      "note": 63,
      "start": 73.1008,
      "duration": 0.0534,
      "velocity": 105,
      "chip": "ym2612"
    },
    {
      "channel": 2,
      "note": 74,
      "start": 73.102,
      "duration": 0.0534,
      "velocity": 101,
      "chip": "ym2612"
    },
    {
      "channel": 4,
      "note": 58,
      "start": 73.1037,
      "duration": 0.0537,
      "velocity": 94,
      "chip": "ym2612"
    },
    {
      "channel": 0,
      "note": 77,
      "start": 73.1542,
      "duration": 0.149,
      "velocity": 101,
      "chip": "ym2612"
    },
    {
      "channel": 1,
      "note": 62,
      "start": 73.1552,
      "duration": 0.1006,
      "velocity": 105,
      "chip": "ym2612"
    },
    {
      "channel": 2,
      "note": 74,
      "start": 73.1564,
      "duration": 0.1488,
      "velocity": 101,
      "chip": "ym2612"
    },
    {
      "channel": 4,
      "note": 58,
      "start": 73.1581,
      "duration": 0.0464,
      "velocity": 94,
      "chip": "ym2612"
    },
    {
      "channel": 4,
      "note": 58,
      "start": 73.2054,
      "duration": 0.0531,
      "velocity": 94,
      "chip": "ym2612"
    },
    {
      "channel": 1,
      "note": 68,
      "start": 73.2568,
      "duration": 0.0474,
      "velocity": 105,
      "chip": "ym2612"
    },
    {
      "channel": 4,
      "note": 58,
      "start": 73.2592,
      "duration": 0.048,
      "velocity": 94,
      "chip": "ym2612"
    },
    {
      "channel": 0,
      "note": 80,
      "start": 73.3041,
      "duration": 0.095,
      "velocity": 101,
      "chip": "ym2612"
    },
    {
      "channel": 1,
      "note": 68,
      "start": 73.3051,
      "duration": 0.095,
      "velocity": 105,
      "chip": "ym2612"
    },
    {
      "channel": 2,
      "note": 77,
      "start": 73.3063,
      "duration": 0.0949,
      "velocity": 101,
      "chip": "ym2612"
    },
    {
      "channel": 4,
      "note": 58,
      "start": 73.308,
      "duration": 0.0952,
      "velocity": 94,
      "chip": "ym2612"
    },
    {
      "channel": 0,
      "note": 82,
      "start": 73.4001,
      "duration": 0.1801,
      "velocity": 101,
      "chip": "ym2612"
    },
    {
      "channel": 1,
      "note": 68,
      "start": 73.4011,
      "duration": 0.0474,
      "velocity": 105,
      "chip": "ym2612"
    },
    {
      "channel": 2,
      "note": 79,
      "start": 73.4023,
      "duration": 0.1798,
      "velocity": 101,
      "chip": "ym2612"
    },
    {
      "channel": 4,
      "note": 58,
      "start": 73.404,
      "duration": 0.0474,
      "velocity": 94,
      "chip": "ym2612"
    },
    {
      "channel": 1,
      "note": 67,
      "start": 73.4495,
      "duration": 0.0526,
      "velocity": 105,
      "chip": "ym2612"
    },
    {
      "channel": 3,
      "note": 63,
      "start": 73.4513,
      "duration": 0.1318,
      "velocity": 99,
      "chip": "ym2612"
    },
    {
      "channel": 4,
      "note": 63,
      "start": 73.4522,
      "duration": 0.1318,
      "velocity": 94,
      "chip": "ym2612"
    },
    {
      "channel": 1,
      "note": 67,
      "start": 73.503,
      "duration": 0.0781,
      "velocity": 105,
      "chip": "ym2612"
    },
    {
      "channel": 3,
      "note": 63,
      "start": 73.5839,
      "duration": 0.1525,
      "velocity": 99,
      "chip": "ym2612"
    },
    {
      "channel": 4,
      "note": 63,
      "start": 73.5849,
      "duration": 0.1523,
      "velocity": 94,
      "chip": "ym2612"
    },
    {
      "channel": 0,
      "note": 84,
      "start": 73.7342,
      "duration": 0.1773,
      "velocity": 105,
      "chip": "ym2612"
    },
    {
      "channel": 4,
      "note": 75,
      "start": 73.7379,
      "duration": 0.0959,
      "velocity": 94,
      "chip": "ym2612"
    },
    {
      "channel": 4,
      "note": 63,
      "start": 73.8347,
      "duration": 0.0805,
      "velocity": 94,
      "chip": "ym2612"
    },
    {
      "channel": 0,
      "note": 85,
      "start": 73.9124,
      "duration": 0.1397,
      "velocity": 105,
      "chip": "ym2612"
    },
    {
      "channel": 4,
      "note": 63,
      "start": 73.9161,
      "duration": 0.0566,
      "velocity": 94,
      "chip": "ym2612"
    },
    {
      "channel": 4,
      "note": 75,
      "start": 73.9735,
      "duration": 0.0934,
      "velocity": 94,
      "chip": "ym2612"
    },
    {
      "channel": 0,
      "note": 87,
      "start": 74.0531,
      "duration": 0.267,
      "velocity": 105,
      "chip": "ym2612"
    },
    {
      "channel": 1,
      "note": 94,
      "start": 74.0571,
      "duration": 0.264,
      "velocity": 99,
      "chip": "ym2612"
    },
    {
      "channel": 2,
      "note": 82,
      "start": 74.0616,
      "duration": 0.2606,
      "velocity": 99,
      "chip": "ym2612"
    },
    {
      "channel": 3,
      "note": 82,
      "start": 74.0669,
      "duration": 0.6234,
      "velocity": 99,
      "chip": "ym2612"
    },
    {
      "channel": 4,
      "note": 58,
      "start": 74.0678,
      "duration": 0.0853,
      "velocity": 94,
      "chip": "ym2612"
    },
    {
      "channel": 4,
      "note": 58,
      "start": 74.1536,
      "duration": 0.1706,
      "velocity": 94,
      "chip": "ym2612"
    },
    {
      "channel": 0,
      "note": 85,
      "start": 74.321,
      "duration": 0.0335,
      "velocity": 105,
      "chip": "ym2612"
    },
    {
      "channel": 1,
      "note": 94,
      "start": 74.322,
      "duration": 0.0283,
      "velocity": 99,
      "chip": "ym2612"
    },
    {
      "channel": 2,
      "note": 85,
      "start": 74.3232,
      "duration": 0.0281,
      "velocity": 99,
      "chip": "ym2612"
    },
    {
      "channel": 4,
      "note": 58,
      "start": 74.3249,
      "duration": 0.0539,
      "velocity": 94,
      "chip": "ym2612"
    },
    {
      "channel": 0,
      "note": 84,
      "start": 74.3757,
      "duration": 0.0332,
      "velocity": 105,
      "chip": "ym2612"
    },
    {
      "channel": 1,
      "note": 96,
      "start": 74.3768,
      "duration": 0.028,
      "velocity": 99,
      "chip": "ym2612"
    },
    {
      "channel": 2,
      "note": 87,
      "start": 74.378,
      "duration": 0.0277,
      "velocity": 99,
      "chip": "ym2612"
    },
    {
      "channel": 4,
      "note": 58,
      "start": 74.3796,
      "duration": 0.0491,
      "velocity": 94,
      "chip": "ym2612"
    },
    {
      "channel": 0,
      "note": 85,
      "start": 74.4256,
      "duration": 0.1428,
      "velocity": 105,
      "chip": "ym2612"
    },
    {
      "channel": 1,
      "note": 97,
      "start": 74.4267,
      "duration": 0.2616,
      "velocity": 99,
      "chip": "ym2612"
    },
    {
      "channel": 2,
      "note": 89,
      "start": 74.4278,
      "duration": 0.3933,
      "velocity": 99,
      "chip": "ym2612"
    },
    {
      "channel": 4,
      "note": 58,
      "start": 74.4295,
      "duration": 0.0907,
      "velocity": 94,
      "chip": "ym2612"
    },
    {
      "channel": 4,
      "note": 60,
      "start": 74.5207,
      "duration": 0.1704,
      "velocity": 94,
      "chip": "ym2612"
    },
    {
      "channel": 0,
      "note": 82,
      "start": 74.6882,
      "duration": 0.7888,
      "velocity": 105,
      "chip": "ym2612"
    },
    {
      "channel": 1,
      "note": 99,
      "start": 74.6892,
      "duration": 0.0278,
      "velocity": 99,
      "chip": "ym2612"
    },
    {
      "channel": 3,
      "note": 87,
      "start": 74.6911,
      "duration": 0.0277,
      "velocity": 99,
      "chip": "ym2612"
    },
    {
      "channel": 4,
      "note": 61,
      "start": 74.692,
      "duration": 0.0529,
      "velocity": 94,
      "chip": "ym2612"
    },
    {
      "channel": 1,
      "note": 101,
      "start": 74.743,
      "duration": 0.028,
      "velocity": 99,
      "chip": "ym2612"
    },
    {
      "channel": 3,
      "note": 89,
      "start": 74.7448,
      "duration": 0.0279,
      "velocity": 99,
      "chip": "ym2612"
    },
    {
      "channel": 4,
      "note": 61,
      "start": 74.7457,
      "duration": 0.0764,
      "velocity": 94,
      "chip": "ym2612"
    },
    {
      "channel": 1,
      "note": 104,
      "start": 74.821,
      "duration": 0.3925,
      "velocity": 99,
      "chip": "ym2612"
    },
    {
      "channel": 2,
      "note": 91,
      "start": 74.8216,
      "duration": 0.3145,
      "velocity": 99,
      "chip": "ym2612"
    },
    {
      "channel": 3,
      "note": 91,
      "start": 74.8221,
      "duration": 0.5781,
      "velocity": 99,
      "chip": "ym2612"
    },
    {
      "channel": 4,
      "note": 63,
      "start": 74.8226,
      "duration": 0.1841,
      "velocity": 94,
      "chip": "ym2612"
    },
    {
      "channel": 4,
      "note": 63,
      "start": 75.0075,
      "duration": 0.0773,
      "velocity": 94,
      "chip": "ym2612"
    },
    {
      "channel": 4,
      "note": 63,
      "start": 75.0856,
      "duration": 0.0524,
      "velocity": 94,
      "chip": "ym2612"
    },
    {
      "channel": 2,
      "note": 92,
      "start": 75.1371,
      "duration": 0.0277,
      "velocity": 99,
      "chip": "ym2612"
    },
    {
      "channel": 4,
      "note": 63,
      "start": 75.1388,
      "duration": 0.076,
      "velocity": 94,
      "chip": "ym2612"
    },
    {
      "channel": 1,
      "note": 103,
      "start": 75.2138,
      "duration": 0.6613,
      "velocity": 99,
      "chip": "ym2612"
    },
    {
      "channel": 2,
      "note": 94,
      "start": 75.2143,
      "duration": 0.0985,
      "velocity": 99,
      "chip": "ym2612"
    },
    {
      "channel": 4,
      "note": 61,
      "start": 75.2152,
      "duration": 0.1858,
      "velocity": 94,
      "chip": "ym2612"
    },
    {
      "channel": 2,
      "note": 92,
      "start": 75.3999,
      "duration": 0.0278,
      "velocity": 99,
      "chip": "ym2612"
    },
    {
      "channel": 3,
      "note": 92,
      "start": 75.4009,
      "duration": 0.0277,
      "velocity": 99,
      "chip": "ym2612"
    },
    {
      "channel": 4,
      "note": 61,
      "start": 75.4019,
      "duration": 0.0792,
      "velocity": 94,
      "chip": "ym2612"
    },
    {
      "channel": 0,
      "note": 80,
      "start": 75.478,
      "duration": 0.0332,
      "velocity": 105,
      "chip": "ym2612"
    },
    {
      "channel": 2,
      "note": 91,
      "start": 75.4799,
      "duration": 0.0278,
      "velocity": 99,
      "chip": "ym2612"
    },
    {
      "channel": 3,
      "note": 91,
      "start": 75.481,
      "duration": 0.0277,
      "velocity": 99,
      "chip": "ym2612"
    },
    {
      "channel": 4,
      "note": 61,
      "start": 75.4819,
      "duration": 0.0549,
      "velocity": 94,
      "chip": "ym2612"
    },
    {
      "channel": 0,
      "note": 79,
      "start": 75.5337,
      "duration": 0.0329,
      "velocity": 105,
      "chip": "ym2612"
    },
    {
      "channel": 2,
      "note": 87,
      "start": 75.5356,
      "duration": 0.0276,
      "velocity": 99,
      "chip": "ym2612"
    },
    {
      "channel": 3,
      "note": 87,
      "start": 75.5366,
      "duration": 0.0274,
      "velocity": 99,
      "chip": "ym2612"
    },
    {
      "channel": 4,
      "note": 61,
      "start": 75.5376,
      "duration": 0.0786,
      "velocity": 94,
      "chip": "ym2612"
    },
    {
      "channel": 0,
      "note": 82,
      "start": 75.6131,
      "duration": 0.261,
      "velocity": 105,
      "chip": "ym2612"
    },
    {
      "channel": 2,
      "note": 84,
      "start": 75.6151,
      "duration": 0.3127,
      "velocity": 99,
      "chip": "ym2612"
    },
    {
      "channel": 3,
      "note": 87,
      "start": 75.6161,
      "duration": 0.6244,
      "velocity": 99,
      "chip": "ym2612"
    },
    {
      "channel": 4,
      "note": 60,
      "start": 75.617,
      "duration": 0.0904,
      "velocity": 94,
      "chip": "ym2612"
    },
    {
      "channel": 4,
      "note": 60,
      "start": 75.7079,
      "duration": 0.1698,
      "velocity": 94,
      "chip": "ym2612"
    },
    {
      "channel": 0,
      "note": 79,
      "start": 75.8751,
      "duration": 0.0998,
      "velocity": 105,
      "chip": "ym2612"
    },
    {
      "channel": 1,
      "note": 99,
      "start": 75.876,
      "duration": 0.0999,
      "velocity": 99,
      "chip": "ym2612"
    },
    {
      "channel": 4,
      "note": 60,
      "start": 75.8785,
      "duration": 0.0511,
      "velocity": 94,
      "chip": "ym2612"
    },
    {
      "channel": 2,
      "note": 85,
      "start": 75.9288,
      "duration": 0.0276,
      "velocity": 99,
      "chip": "ym2612"
    },
    {
      "channel": 4,
      "note": 60,
      "start": 75.9304,
      "duration": 0.0485,
      "velocity": 94,
      "chip": "ym2612"
    },
    {
      "channel": 0,
      "note": 82,
      "start": 75.9758,
      "duration": 0.2616,
      "velocity": 105,
      "chip": "ym2612"
    },
    {
      "channel": 1,
      "note": 103,
      "start": 75.9768,
      "duration": 0.2616,
      "velocity": 99,
      "chip": "ym2612"
    },
    {
      "channel": 2,
      "note": 87,
      "start": 75.978,
      "duration": 0.3921,
      "velocity": 99,
      "chip": "ym2612"
    },
    {
      "channel": 4,
      "note": 60,
      "start": 75.9798,
      "duration": 0.0906,
      "velocity": 94,
      "chip": "ym2612"
    },
    {
      "channel": 4,
      "note": 60,
      "start": 76.0709,
      "duration": 0.1705,
      "velocity": 94,
      "chip": "ym2612"
    },
    {
      "channel": 0,
      "note": 80,
      "start": 76.2384,
      "duration": 0.395,
      "velocity": 105,
      "chip": "ym2612"
    },
    {
      "channel": 1,
      "note": 101,
      "start": 76.2394,
      "duration": 0.4501,
      "velocity": 99,
      "chip": "ym2612"
    },
    {
      "channel": 3,
      "note": 89,
      "start": 76.2412,
      "duration": 0.0278,
      "velocity": 99,
      "chip": "ym2612"
    },
    {
      "channel": 4,
      "note": 60,
      "start": 76.2422,
      "duration": 0.0522,
      "velocity": 94,
      "chip": "ym2612"
    },
    {
      "channel": 3,
      "note": 91,
      "start": 76.2943,
      "duration": 0.0276,
      "velocity": 99,
      "chip": "ym2612"
    },
    {
      "channel": 4,
      "note": 60,
      "start": 76.2952,
      "duration": 0.076,
      "velocity": 94,
      "chip": "ym2612"
    },
    {
      "channel": 2,
      "note": 92,
      "start": 76.3705,
      "duration": 0.0987,
      "velocity": 99,
      "chip": "ym2612"
    },
    {
      "channel": 3,
      "note": 89,
      "start": 76.3711,
      "duration": 0.0984,
      "velocity": 99,
      "chip": "ym2612"
    },
    {
      "channel": 4,
      "note": 53,
      "start": 76.3716,
      "duration": 0.1856,
      "velocity": 94,
      "chip": "ym2612"
    },
    {
      "channel": 2,
      "note": 91,
      "start": 76.5561,
      "duration": 0.028,
      "velocity": 99,
      "chip": "ym2612"
    },
    {
      "channel": 3,
      "note": 87,
      "start": 76.5571,
      "duration": 0.0279,
      "velocity": 99,
      "chip": "ym2612"
    },
    {
      "channel": 4,
      "note": 53,
      "start": 76.558,
      "duration": 0.0795,
      "velocity": 94,
      "chip": "ym2612"
    },
    {
      "channel": 0,
      "note": 82,
      "start": 76.6344,
      "duration": 0.0541,
      "velocity": 105,
      "chip": "ym2612"
    },
    {
      "channel": 2,
      "note": 89,
      "start": 76.6364,
      "duration": 0.0278,
      "velocity": 99,
      "chip": "ym2612"
    },
    {
      "channel": 3,
      "note": 84,
      "start": 76.6374,
      "duration": 0.0278,
      "velocity": 99,
      "chip": "ym2612"
    },
    {
      "channel": 4,
      "note": 53,
      "start": 76.6383,
      "duration": 0.0543,
      "velocity": 94,
      "chip": "ym2612"
    },
    {
      "channel": 0,
      "note": 80,
      "start": 76.6894,
      "duration": 0.0795,
      "velocity": 105,
      "chip": "ym2612"
    },
    {
      "channel": 2,
      "note": 91,
      "start": 76.6915,
      "duration": 0.0286,
      "velocity": 99,
      "chip": "ym2612"
    },
    {
      "channel": 3,
      "note": 87,
      "start": 76.6925,
      "duration": 0.0285,
      "velocity": 99,
      "chip": "ym2612"
    },
    {
      "channel": 4,
      "note": 53,
      "start": 76.6934,
      "duration": 0.0772,
      "velocity": 94,
      "chip": "ym2612"
    },
    {
      "channel": 0,
      "note": 79,
      "start": 76.7692,
      "duration": 0.1145,
      "velocity": 105,
      "chip": "ym2612"
    },
    {
      "channel": 1,
      "note": 101,
      "start": 76.7695,
      "duration": 0.2128,
      "velocity": 99,
      "chip": "ym2612"
    },
    {
      "channel": 2,
      "note": 92,
      "start": 76.77,
      "duration": 0.0978,
      "velocity": 99,
      "chip": "ym2612"
    },
    {
      "channel": 3,
      "note": 89,
      "start": 76.7705,
      "duration": 0.0976,
      "velocity": 99,
      "chip": "ym2612"
    },
    {
      "channel": 4,
      "note": 53,
      "start": 76.771,
      "duration": 0.1854,
      "velocity": 94,
      "chip": "ym2612"
    },
    {
      "channel": 0,
      "note": 80,
      "start": 76.9534,
      "duration": 0.0332,
      "velocity": 105,
      "chip": "ym2612"
    },
    {
      "channel": 2,
      "note": 91,
      "start": 76.9553,
      "duration": 0.0279,
      "velocity": 99,
      "chip": "ym2612"
    },
    {
      "channel": 3,
      "note": 87,
      "start": 76.9563,
      "duration": 0.0279,
      "velocity": 99,
      "chip": "ym2612"
    },
    {
      "channel": 4,
      "note": 53,
      "start": 76.9572,
      "duration": 0.0799,
      "velocity": 94,
      "chip": "ym2612"
    },
    {
      "channel": 0,
      "note": 82,
      "start": 77.0337,
      "duration": 0.0698,
      "velocity": 105,
      "chip": "ym2612"
    },
    {
      "channel": 1,
      "note": 103,
      "start": 77.0348,
      "duration": 0.0542,
      "velocity": 99,
      "chip": "ym2612"
    },
    {
      "channel": 2,
      "note": 89,
      "start": 77.036,
      "duration": 0.0285,
      "velocity": 99,
      "chip": "ym2612"
    },
    {
      "channel": 3,
      "note": 84,
      "start": 77.037,
      "duration": 0.0284,
      "velocity": 99,
      "chip": "ym2612"
    },
    {
      "channel": 4,
      "note": 53,
      "start": 77.0379,
      "duration": 0.0541,
      "velocity": 94,
      "chip": "ym2612"
    },
    {
      "channel": 2,
      "note": 84,
      "start": 77.0909,
      "duration": 0.0293,
      "velocity": 99,
      "chip": "ym2612"
    },
    {
      "channel": 3,
      "note": 80,
      "start": 77.0919,
      "duration": 0.0292,
      "velocity": 99,
      "chip": "ym2612"
    },
    {
      "channel": 4,
      "note": 53,
      "start": 77.0928,
      "duration": 0.0813,
      "velocity": 94,
      "chip": "ym2612"
    },
    {
      "channel": 0,
      "note": 84,
      "start": 77.1708,
      "duration": 0.7536,
      "velocity": 105,
      "chip": "ym2612"
    },
    {
      "channel": 1,
      "note": 104,
      "start": 77.1718,
      "duration": 0.7529,
      "velocity": 99,
      "chip": "ym2612"
    },
    {
      "channel": 2,
      "note": 89,
      "start": 77.173,
      "duration": 1.1445,
      "velocity": 99,
      "chip": "ym2612"
    },
    {
      "channel": 3,
      "note": 85,
      "start": 77.174,
      "duration": 1.144,
      "velocity": 99,
      "chip": "ym2612"
    },
    {
      "channel": 4,
      "note": 61,
      "start": 77.1749,
      "duration": 0.0904,
      "velocity": 94,
      "chip": "ym2612"
    },
    {
      "channel": 4,
      "note": 61,
      "start": 77.2658,
      "duration": 0.1687,
      "velocity": 94,
      "chip": "ym2612"
    },
    {
      "channel": 4,
      "note": 61,
      "start": 77.4353,
      "duration": 0.0511,
      "velocity": 94,
      "chip": "ym2612"
    },
    {
      "channel": 4,
      "note": 61,
      "start": 77.4873,
      "duration": 0.0473,
      "velocity": 94,
      "chip": "ym2612"
    },
    {
      "channel": 4,
      "note": 61,
      "start": 77.5354,
      "duration": 0.0915,
      "velocity": 94,
      "chip": "ym2612"
    },
    {
      "channel": 4,
      "note": 61,
      "start": 77.6274,
      "duration": 0.1687,
      "velocity": 94,
      "chip": "ym2612"
    },
    {
      "channel": 4,
      "note": 61,
      "start": 77.7969,
      "duration": 0.0523,
      "velocity": 94,
      "chip": "ym2612"
    },
    {
      "channel": 4,
      "note": 60,
      "start": 77.8499,
      "duration": 0.0759,
      "velocity": 94,
      "chip": "ym2612"
    },
    {
      "channel": 0,
      "note": 85,
      "start": 77.9247,
      "duration": 0.7869,
      "velocity": 105,
      "chip": "ym2612"
    },
    {
      "channel": 1,
      "note": 104,
      "start": 77.925,
      "duration": 0.7869,
      "velocity": 99,
      "chip": "ym2612"
    },
    {
      "channel": 4,
      "note": 58,
      "start": 77.9263,
      "duration": 0.1846,
      "velocity": 94,
      "chip": "ym2612"
    },
    {
      "channel": 4,
      "note": 58,
      "start": 78.1117,
      "duration": 0.0775,
      "velocity": 94,
      "chip": "ym2612"
    },
    {
      "channel": 4,
      "note": 58,
      "start": 78.19,
      "duration": 0.0521,
      "velocity": 94,
      "chip": "ym2612"
    },
    {
      "channel": 4,
      "note": 58,
      "start": 78.2429,
      "duration": 0.0756,
      "velocity": 94,
      "chip": "ym2612"
    },
    {
      "channel": 2,
      "note": 88,
      "start": 78.318,
      "duration": 0.3943,
      "velocity": 99,
      "chip": "ym2612"
    },
    {
      "channel": 3,
      "note": 85,
      "start": 78.3185,
      "duration": 0.3953,
      "velocity": 99,
      "chip": "ym2612"
    },
    {
      "channel": 4,
      "note": 58,
      "start": 78.319,
      "duration": 0.1845,
      "velocity": 94,
      "chip": "ym2612"
    },
    {
      "channel": 4,
      "note": 58,
      "start": 78.5043,
      "duration": 0.0778,
      "velocity": 94,
      "chip": "ym2612"
    },
    {
      "channel": 4,
      "note": 56,
      "start": 78.583,
      "duration": 0.0525,
      "velocity": 94,
      "chip": "ym2612"
    },
    {
      "channel": 4,
      "note": 58,
      "start": 78.6362,
      "duration": 0.078,
      "velocity": 94,
      "chip": "ym2612"
    },
    {
      "channel": 0,
      "note": 87,
      "start": 78.7119,
      "duration": 0.316,
      "velocity": 105,
      "chip": "ym2612"
    },
    {
      "channel": 1,
      "note": 92,
      "start": 78.7123,
      "duration": 0.3166,
      "velocity": 99,
      "chip": "ym2612"
    },
    {
      "channel": 2,
      "note": 64,
      "start": 78.7137,
      "duration": 0.1823,
      "velocity": 101,
      "chip": "ym2612"
    },
    {
      "channel": 4,
      "note": 66,
      "start": 78.7147,
      "duration": 0.1833,
      "velocity": 94,
      "chip": "ym2612"
    },
    {
      "channel": 3,
      "note": 64,
      "start": 78.7632,
      "duration": 0.1341,
      "velocity": 101,
      "chip": "ym2612"
    },
    {
      "channel": 2,
      "note": 68,
      "start": 78.897,
      "duration": 0.0782,
      "velocity": 101,
      "chip": "ym2612"
    },
    {
      "channel": 4,
      "note": 66,
      "start": 78.8988,
      "duration": 0.0784,
      "velocity": 94,
      "chip": "ym2612"
    },
    {
      "channel": 3,
      "note": 68,
      "start": 78.9126,
      "duration": 0.0639,
      "velocity": 101,
      "chip": "ym2612"
    },
    {
      "channel": 2,
      "note": 73,
      "start": 78.9762,
      "duration": 0.0537,
      "velocity": 101,
      "chip": "ym2612"
    },
    {
      "channel": 4,
      "note": 66,
      "start": 78.9781,
      "duration": 0.054,
      "velocity": 94,
      "chip": "ym2612"
    },
    {
      "channel": 3,
      "note": 73,
      "start": 78.9917,
      "duration": 0.0396,
      "velocity": 101,
      "chip": "ym2612"
    },
    {
      "channel": 0,
      "note": 85,
      "start": 79.0288,
      "duration": 0.3415,
      "velocity": 105,
      "chip": "ym2612"
    },
    {
      "channel": 1,
      "note": 92,
      "start": 79.0299,
      "duration": 0.3415,
      "velocity": 99,
      "chip": "ym2612"
    },
    {
      "channel": 2,
      "note": 66,
      "start": 79.0311,
      "duration": 0.076,
      "velocity": 101,
      "chip": "ym2612"
    },
    {
      "channel": 4,
      "note": 59,
      "start": 79.0329,
      "duration": 0.075,
      "velocity": 94,
      "chip": "ym2612"
    },
    {
      "channel": 3,
      "note": 66,
      "start": 79.0469,
      "duration": 0.0605,
      "velocity": 101,
      "chip": "ym2612"
    },
    {
      "channel": 2,
      "note": 69,
      "start": 79.1073,
      "duration": 0.1846,
      "velocity": 101,
      "chip": "ym2612"
    },
    {
      "channel": 4,
      "note": 59,
      "start": 79.1084,
      "duration": 0.1857,
      "velocity": 94,
      "chip": "ym2612"
    },
    {
      "channel": 3,
      "note": 69,
      "start": 79.1573,
      "duration": 0.136,
      "velocity": 101,
      "chip": "ym2612"
    },
    {
      "channel": 2,
      "note": 76,
      "start": 79.2931,
      "duration": 0.0793,
      "velocity": 101,
      "chip": "ym2612"
    },
    {
      "channel": 4,
      "note": 59,
      "start": 79.2949,
      "duration": 0.0795,
      "velocity": 94,
      "chip": "ym2612"
    },
    {
      "channel": 3,
      "note": 76,
      "start": 79.3085,
      "duration": 0.0651,
      "velocity": 101,
      "chip": "ym2612"
    },
    {
      "channel": 0,
      "note": 83,
      "start": 79.3712,
      "duration": 0.1322,
      "velocity": 105,
      "chip": "ym2612"
    },
    {
      "channel": 1,
      "note": 100,
      "start": 79.3723,
      "duration": 0.1315,
      "velocity": 99,
      "chip": "ym2612"
    },
    {
      "channel": 2,
      "note": 64,
      "start": 79.3734,
      "duration": 0.0525,
      "velocity": 101,
      "chip": "ym2612"
    },
    {
      "channel": 4,
      "note": 62,
      "start": 79.3752,
      "duration": 0.0527,
      "velocity": 94,
      "chip": "ym2612"
    },
    {
      "channel": 3,
      "note": 64,
      "start": 79.389,
      "duration": 0.0381,
      "velocity": 101,
      "chip": "ym2612"
    },
    {
      "channel": 2,
      "note": 68,
      "start": 79.4269,
      "duration": 0.0772,
      "velocity": 101,
      "chip": "ym2612"
    },
    {
      "channel": 4,
      "note": 63,
      "start": 79.4288,
      "duration": 0.0763,
      "velocity": 94,
      "chip": "ym2612"
    },
    {
      "channel": 3,
      "note": 68,
      "start": 79.4423,
      "duration": 0.0622,
      "velocity": 101,
      "chip": "ym2612"
    },
    {
      "channel": 0,
      "note": 82,
      "start": 79.5037,
      "duration": 0.1838,
      "velocity": 105,
      "chip": "ym2612"
    },
    {
      "channel": 1,
      "note": 101,
      "start": 79.5041,
      "duration": 0.2691,
      "velocity": 99,
      "chip": "ym2612"
    },
    {
      "channel": 2,
      "note": 63,
      "start": 79.5044,
      "duration": 0.1848,
      "velocity": 101,
      "chip": "ym2612"
    },
    {
      "channel": 4,
      "note": 51,
      "start": 79.5054,
      "duration": 0.1914,
      "velocity": 94,
      "chip": "ym2612"
    },
    {
      "channel": 3,
      "note": 63,
      "start": 79.5536,
      "duration": 0.1399,
      "velocity": 101,
      "chip": "ym2612"
    },
    {
      "channel": 2,
      "note": 75,
      "start": 79.6932,
      "duration": 0.0354,
      "velocity": 99,
      "chip": "ym2612"
    },
    {
      "channel": 3,
      "note": 67,
      "start": 79.6968,
      "duration": 0.0328,
      "velocity": 99,
      "chip": "ym2612"
    },
    {
      "channel": 4,
      "note": 63,
      "start": 79.7023,
      "duration": 0.0741,
      "velocity": 94,
      "chip": "ym2612"
    },
    {
      "channel": 2,
      "note": 77,
      "start": 79.7752,
      "duration": 0.0342,
      "velocity": 99,
      "chip": "ym2612"
    },
    {
      "channel": 3,
      "note": 68,
      "start": 79.7763,
      "duration": 0.0341,
      "velocity": 99,
      "chip": "ym2612"
    },
    {
      "channel": 4,
      "note": 51,
      "start": 79.7771,
      "duration": 0.0563,
      "velocity": 94,
      "chip": "ym2612"
    },
    {
      "channel": 2,
      "note": 79,
      "start": 79.8322,
      "duration": 0.0337,
      "velocity": 99,
      "chip": "ym2612"
    },
    {
      "channel": 3,
      "note": 70,
      "start": 79.8333,
      "duration": 0.0336,
      "velocity": 99,
      "chip": "ym2612"
    },
    {
      "channel": 4,
      "note": 61,
      "start": 79.8342,
      "duration": 0.0768,
      "velocity": 94,
      "chip": "ym2612"
    },
    {
      "channel": 2,
      "note": 80,
      "start": 79.9103,
      "duration": 0.1153,
      "velocity": 99,
      "chip": "ym2612"
    },
    {
      "channel": 3,
      "note": 72,
      "start": 79.9109,
      "duration": 0.1151,
      "velocity": 99,
      "chip": "ym2612"
    },
    {
      "channel": 4,
      "note": 51,
      "start": 79.9114,
      "duration": 0.1859,
      "velocity": 94,
      "chip": "ym2612"
    },
    {
      "channel": 2,
      "note": 79,
      "start": 80.0961,
      "duration": 0.0338,
      "velocity": 99,
      "chip": "ym2612"
    },
    {
      "channel": 3,
      "note": 70,
      "start": 80.0971,
      "duration": 0.0337,
      "velocity": 99,
      "chip": "ym2612"
    },
    {
      "channel": 4,
      "note": 63,
      "start": 80.0981,
      "duration": 0.0808,
      "velocity": 94,
      "chip": "ym2612"
    },
    {
      "channel": 0,
      "note": 84,
      "start": 80.1756,
      "duration": 0.033,
      "velocity": 105,
      "chip": "ym2612"
    },
    {
      "channel": 1,
      "note": 92,
      "start": 80.1767,
      "duration": 0.0279,
      "velocity": 99,
      "chip": "ym2612"
    },
    {
      "channel": 2,
      "note": 80,
      "start": 80.1778,
      "duration": 0.0326,
      "velocity": 99,
      "chip": "ym2612"
    },
    {
      "channel": 3,
      "note": 72,
      "start": 80.1788,
      "duration": 0.0325,
      "velocity": 99,
      "chip": "ym2612"
    },
    {
      "channel": 4,
      "note": 56,
      "start": 80.1797,
      "duration": 0.0551,
      "velocity": 94,
      "chip": "ym2612"
    },
    {
      "channel": 0,
      "note": 85,
      "start": 80.2315,
      "duration": 0.0331,
      "velocity": 105,
      "chip": "ym2612"
    },
    {
      "channel": 1,
      "note": 92,
      "start": 80.2325,
      "duration": 0.0282,
      "velocity": 99,
      "chip": "ym2612"
    },
    {
      "channel": 2,
      "note": 82,
      "start": 80.2337,
      "duration": 0.0325,
      "velocity": 99,
      "chip": "ym2612"
    },
    {
      "channel": 3,
      "note": 73,
      "start": 80.2347,
      "duration": 0.0324,
      "velocity": 99,
      "chip": "ym2612"
    },
    {
      "channel": 4,
      "note": 56,
      "start": 80.2356,
      "duration": 0.079,
      "velocity": 94,
      "chip": "ym2612"
    },
    {
      "channel": 0,
      "note": 87,
      "start": 80.3112,
      "duration": 0.2615,
      "velocity": 105,
      "chip": "ym2612"
    },
    {
      "channel": 1,
      "note": 94,
      "start": 80.3124,
      "duration": 0.2614,
      "velocity": 99,
      "chip": "ym2612"
    },
    {
      "channel": 2,
      "note": 82,
      "start": 80.3135,
      "duration": 0.2614,
      "velocity": 99,
      "chip": "ym2612"
    },
    {
      "channel": 3,
      "note": 82,
      "start": 80.3145,
      "duration": 0.628,
      "velocity": 99,
      "chip": "ym2612"
    },
    {
      "channel": 4,
      "note": 58,
      "start": 80.3154,
      "duration": 0.0904,
      "velocity": 94,
      "chip": "ym2612"
    },
    {
      "channel": 4,
      "note": 58,
      "start": 80.4063,
      "duration": 0.1705,
      "velocity": 94,
      "chip": "ym2612"
    },
    {
      "channel": 0,
      "note": 85,
      "start": 80.5737,
      "duration": 0.0332,
      "velocity": 105,
      "chip": "ym2612"
    },
    {
      "channel": 1,
      "note": 94,
      "start": 80.5748,
      "duration": 0.028,
      "velocity": 99,
      "chip": "ym2612"
    },
    {
      "channel": 2,
      "note": 85,
      "start": 80.5759,
      "duration": 0.0279,
      "velocity": 99,
      "chip": "ym2612"
    },
    {
      "channel": 4,
      "note": 58,
      "start": 80.5776,
      "duration": 0.0536,
      "velocity": 94,
      "chip": "ym2612"
    },
    {
      "channel": 0,
      "note": 84,
      "start": 80.6281,
      "duration": 0.0334,
      "velocity": 105,
      "chip": "ym2612"
    },
    {
      "channel": 1,
      "note": 96,
      "start": 80.6292,
      "duration": 0.0283,
      "velocity": 99,
      "chip": "ym2612"
    },
    {
      "channel": 2,
      "note": 87,
      "start": 80.6304,
      "duration": 0.028,
      "velocity": 99,
      "chip": "ym2612"
    },
    {
      "channel": 4,
      "note": 58,
      "start": 80.6321,
      "duration": 0.0494,
      "velocity": 94,
      "chip": "ym2612"
    },
    {
      "channel": 0,
      "note": 85,
      "start": 80.6783,
      "duration": 0.1424,
      "velocity": 105,
      "chip": "ym2612"
    },
    {
      "channel": 1,
      "note": 97,
      "start": 80.6794,
      "duration": 0.2611,
      "velocity": 99,
      "chip": "ym2612"
    },
    {
      "channel": 2,
      "note": 89,
      "start": 80.6806,
      "duration": 0.3929,
      "velocity": 99,
      "chip": "ym2612"
    },
    {
      "channel": 4,
      "note": 58,
      "start": 80.6824,
      "duration": 0.0901,
      "velocity": 94,
      "chip": "ym2612"
    },
    {
      "channel": 4,
      "note": 60,
      "start": 80.7731,
      "duration": 0.1703,
      "velocity": 94,
      "chip": "ym2612"
    },
    {
      "channel": 0,
      "note": 82,
      "start": 80.9404,
      "duration": 0.79,
      "velocity": 105,
      "chip": "ym2612"
    },
    {
      "channel": 1,
      "note": 99,
      "start": 80.9414,
      "duration": 0.0277,
      "velocity": 99,
      "chip": "ym2612"
    },
    {
      "channel": 3,
      "note": 87,
      "start": 80.9433,
      "duration": 0.0276,
      "velocity": 99,
      "chip": "ym2612"
    },
    {
      "channel": 4,
      "note": 61,
      "start": 80.9441,
      "duration": 0.0532,
      "velocity": 94,
      "chip": "ym2612"
    },
    {
      "channel": 1,
      "note": 101,
      "start": 80.9954,
      "duration": 0.0281,
      "velocity": 99,
      "chip": "ym2612"
    },
    {
      "channel": 3,
      "note": 89,
      "start": 80.9972,
      "duration": 0.0279,
      "velocity": 99,
      "chip": "ym2612"
    },
    {
      "channel": 4,
      "note": 61,
      "start": 80.9982,
      "duration": 0.0763,
      "velocity": 94,
      "chip": "ym2612"
    },
    {
      "channel": 1,
      "note": 104,
      "start": 81.0735,
      "duration": 0.3934,
      "velocity": 99,
      "chip": "ym2612"
    },
    {
      "channel": 2,
      "note": 91,
      "start": 81.074,
      "duration": 0.3149,
      "velocity": 99,
      "chip": "ym2612"
    },
    {
      "channel": 3,
      "note": 91,
      "start": 81.0745,
      "duration": 0.5791,
      "velocity": 99,
      "chip": "ym2612"
    },
    {
      "channel": 4,
      "note": 63,
      "start": 81.075,
      "duration": 0.184,
      "velocity": 94,
      "chip": "ym2612"
    },
    {
      "channel": 4,
      "note": 63,
      "start": 81.2598,
      "duration": 0.0773,
      "velocity": 94,
      "chip": "ym2612"
    },
    {
      "channel": 4,
      "note": 63,
      "start": 81.3379,
      "duration": 0.053,
      "velocity": 94,
      "chip": "ym2612"
    },
    {
      "channel": 2,
      "note": 92,
      "start": 81.39,
      "duration": 0.028,
      "velocity": 99,
      "chip": "ym2612"
    },
    {
      "channel": 4,
      "note": 63,
      "start": 81.3917,
      "duration": 0.0765,
      "velocity": 94,
      "chip": "ym2612"
    },
    {
      "channel": 1,
      "note": 103,
      "start": 81.4672,
      "duration": 0.6613,
      "velocity": 99,
      "chip": "ym2612"
    },
    {
      "channel": 2,
      "note": 94,
      "start": 81.4677,
      "duration": 0.0985,
      "velocity": 99,
      "chip": "ym2612"
    },
    {
      "channel": 4,
      "note": 61,
      "start": 81.4686,
      "duration": 0.1858,
      "velocity": 94,
      "chip": "ym2612"
    },
    {
      "channel": 2,
      "note": 92,
      "start": 81.6533,
      "duration": 0.0278,
      "velocity": 99,
      "chip": "ym2612"
    },
    {
      "channel": 3,
      "note": 92,
      "start": 81.6543,
      "duration": 0.0277,
      "velocity": 99,
      "chip": "ym2612"
    },
    {
      "channel": 4,
      "note": 61,
      "start": 81.6553,
      "duration": 0.0792,
      "velocity": 94,
      "chip": "ym2612"
    },
    {
      "channel": 0,
      "note": 80,
      "start": 81.7314,
      "duration": 0.0332,
      "velocity": 105,
      "chip": "ym2612"
    },
    {
      "channel": 2,
      "note": 91,
      "start": 81.7333,
      "duration": 0.0278,
      "velocity": 99,
      "chip": "ym2612"
    },
    {
      "channel": 3,
      "note": 91,
      "start": 81.7344,
      "duration": 0.0277,
      "velocity": 99,
      "chip": "ym2612"
    },
    {
      "channel": 4,
      "note": 61,
      "start": 81.7353,
      "duration": 0.0549,
      "velocity": 94,
      "chip": "ym2612"
    },
    {
      "channel": 0,
      "note": 79,
      "start": 81.7871,
      "duration": 0.0329,
      "velocity": 105,
      "chip": "ym2612"
    },
    {
      "channel": 2,
      "note": 87,
      "start": 81.789,
      "duration": 0.0276,
      "velocity": 99,
      "chip": "ym2612"
    },
    {
      "channel": 3,
      "note": 87,
      "start": 81.79,
      "duration": 0.0274,
      "velocity": 99,
      "chip": "ym2612"
    },
    {
      "channel": 4,
      "note": 61,
      "start": 81.791,
      "duration": 0.0786,
      "velocity": 94,
      "chip": "ym2612"
    },
    {
      "channel": 0,
      "note": 82,
      "start": 81.8665,
      "duration": 0.261,
      "velocity": 105,
      "chip": "ym2612"
    },
    {
      "channel": 2,
      "note": 84,
      "start": 81.8685,
      "duration": 0.3127,
      "velocity": 99,
      "chip": "ym2612"
    },
    {
      "channel": 3,
      "note": 87,
      "start": 81.8695,
      "duration": 0.6244,
      "velocity": 99,
      "chip": "ym2612"
    },
    {
      "channel": 4,
      "note": 60,
      "start": 81.8704,
      "duration": 0.0904,
      "velocity": 94,
      "chip": "ym2612"
    },
    {
      "channel": 4,
      "note": 60,
      "start": 81.9613,
      "duration": 0.1698,
      "velocity": 94,
      "chip": "ym2612"
    },
    {
      "channel": 0,
      "note": 84,
      "start": 82.1285,
      "duration": 0.0998,
      "velocity": 105,
      "chip": "ym2612"
    },
    {
      "channel": 1,
      "note": 99,
      "start": 82.1294,
      "duration": 0.0999,
      "velocity": 99,
      "chip": "ym2612"
    },
    {
      "channel": 4,
      "note": 60,
      "start": 82.1319,
      "duration": 0.0511,
      "velocity": 94,
      "chip": "ym2612"
    },
    {
      "channel": 2,
      "note": 85,
      "start": 82.1822,
      "duration": 0.0276,
      "velocity": 99,
      "chip": "ym2612"
    },
    {
      "channel": 4,
      "note": 60,
      "start": 82.1838,
      "duration": 0.0485,
      "velocity": 94,
      "chip": "ym2612"
    },
    {
      "channel": 0,
      "note": 85,
      "start": 82.2292,
      "duration": 0.2616,
      "velocity": 105,
      "chip": "ym2612"
    },
    {
      "channel": 1,
      "note": 103,
      "start": 82.2302,
      "duration": 0.2616,
      "velocity": 99,
      "chip": "ym2612"
    },
    {
      "channel": 2,
      "note": 87,
      "start": 82.2314,
      "duration": 0.3921,
      "velocity": 99,
      "chip": "ym2612"
    },
    {
      "channel": 4,
      "note": 48,
      "start": 82.2332,
      "duration": 0.0906,
      "velocity": 94,
      "chip": "ym2612"
    },
    {
      "channel": 4,
      "note": 48,
      "start": 82.3243,
      "duration": 0.1705,
      "velocity": 94,
      "chip": "ym2612"
    },
    {
      "channel": 0,
      "note": 87,
      "start": 82.4918,
      "duration": 0.5298,
      "velocity": 105,
      "chip": "ym2612"
    },
    {
      "channel": 1,
      "note": 101,
      "start": 82.4928,
      "duration": 0.5291,
      "velocity": 99,
      "chip": "ym2612"
    },
    {
      "channel": 3,
      "note": 89,
      "start": 82.4946,
      "duration": 0.0278,
      "velocity": 99,
      "chip": "ym2612"
    },
    {
      "channel": 4,
      "note": 53,
      "start": 82.4956,
      "duration": 0.0522,
      "velocity": 94,
      "chip": "ym2612"
    },
    {
      "channel": 3,
      "note": 91,
      "start": 82.5477,
      "duration": 0.0276,
      "velocity": 99,
      "chip": "ym2612"
    },
    {
      "channel": 4,
      "note": 53,
      "start": 82.5486,
      "duration": 0.076,
      "velocity": 94,
      "chip": "ym2612"
    },
    {
      "channel": 2,
      "note": 90,
      "start": 82.6239,
      "duration": 0.0987,
      "velocity": 99,
      "chip": "ym2612"
    },
    {
      "channel": 3,
      "note": 87,
      "start": 82.6245,
      "duration": 0.0984,
      "velocity": 99,
      "chip": "ym2612"
    },
    {
      "channel": 4,
      "note": 53,
      "start": 82.625,
      "duration": 0.1858,
      "velocity": 94,
      "chip": "ym2612"
    },
    {
      "channel": 2,
      "note": 89,
      "start": 82.8096,
      "duration": 0.0282,
      "velocity": 99,
      "chip": "ym2612"
    },
    {
      "channel": 3,
      "note": 84,
      "start": 82.8107,
      "duration": 0.028,
      "velocity": 99,
      "chip": "ym2612"
    },
    {
      "channel": 4,
      "note": 53,
      "start": 82.8116,
      "duration": 0.0788,
      "velocity": 94,
      "chip": "ym2612"
    },
    {
      "channel": 2,
      "note": 87,
      "start": 82.8893,
      "duration": 0.028,
      "velocity": 99,
      "chip": "ym2612"
    },
    {
      "channel": 3,
      "note": 81,
      "start": 82.8904,
      "duration": 0.028,
      "velocity": 99,
      "chip": "ym2612"
    },
    {
      "channel": 4,
      "note": 53,
      "start": 82.8913,
      "duration": 0.0542,
      "velocity": 94,
      "chip": "ym2612"
    },
    {
      "channel": 2,
      "note": 89,
      "start": 82.9444,
      "duration": 0.0281,
      "velocity": 99,
      "chip": "ym2612"
    },
    {
      "channel": 3,
      "note": 84,
      "start": 82.9454,
      "duration": 0.028,
      "velocity": 99,
      "chip": "ym2612"
    },
    {
      "channel": 4,
      "note": 53,
      "start": 82.9464,
      "duration": 0.0769,
      "velocity": 94,
      "chip": "ym2612"
    },
    {
      "channel": 0,
      "note": 90,
      "start": 83.0219,
      "duration": 0.1146,
      "velocity": 105,
      "chip": "ym2612"
    },
    {
      "channel": 1,
      "note": 102,
      "start": 83.0222,
      "duration": 0.098,
      "velocity": 99,
      "chip": "ym2612"
    },
    {
      "channel": 2,
      "note": 90,
      "start": 83.0227,
      "duration": 0.0978,
      "velocity": 99,
      "chip": "ym2612"
    },
    {
      "channel": 3,
      "note": 87,
      "start": 83.0232,
      "duration": 0.0976,
      "velocity": 99,
      "chip": "ym2612"
    },
    {
      "channel": 4,
      "note": 57,
      "start": 83.0237,
      "duration": 0.186,
      "velocity": 94,
      "chip": "ym2612"
    },
    {
      "channel": 0,
      "note": 89,
      "start": 83.2065,
      "duration": 0.0334,
      "velocity": 105,
      "chip": "ym2612"
    },
    {
      "channel": 1,
      "note": 101,
      "start": 83.2074,
      "duration": 0.0283,
      "velocity": 99,
      "chip": "ym2612"
    },
    {
      "channel": 2,
      "note": 89,
      "start": 83.2086,
      "duration": 0.0281,
      "velocity": 99,
      "chip": "ym2612"
    },
    {
      "channel": 3,
      "note": 84,
      "start": 83.2096,
      "duration": 0.028,
      "velocity": 99,
      "chip": "ym2612"
    },
    {
      "channel": 4,
      "note": 57,
      "start": 83.2106,
      "duration": 0.0794,
      "velocity": 94,
      "chip": "ym2612"
    },
    {
      "channel": 0,
      "note": 87,
      "start": 83.2866,
      "duration": 0.134,
      "velocity": 105,
      "chip": "ym2612"
    },
    {
      "channel": 1,
      "note": 99,
      "start": 83.2877,
      "duration": 0.0284,
      "velocity": 99,
      "chip": "ym2612"
    },
    {
      "channel": 2,
      "note": 87,
      "start": 83.2888,
      "duration": 0.0282,
      "velocity": 99,
      "chip": "ym2612"
    },
    {
      "channel": 3,
      "note": 81,
      "start": 83.2899,
      "duration": 0.0281,
      "velocity": 99,
      "chip": "ym2612"
    },
    {
      "channel": 4,
      "note": 57,
      "start": 83.2908,
      "duration": 0.0548,
      "velocity": 94,
      "chip": "ym2612"
    },
    {
      "channel": 1,
      "note": 96,
      "start": 83.3432,
      "duration": 0.0282,
      "velocity": 99,
      "chip": "ym2612"
    },
    {
      "channel": 2,
      "note": 84,
      "start": 83.3444,
      "duration": 0.0278,
      "velocity": 99,
      "chip": "ym2612"
    },
    {
      "channel": 3,
      "note": 81,
      "start": 83.3455,
      "duration": 0.0277,
      "velocity": 99,
      "chip": "ym2612"
    },
    {
      "channel": 4,
      "note": 57,
      "start": 83.3463,
      "duration": 0.0761,
      "velocity": 94,
      "chip": "ym2612"
    },
    {
      "channel": 0,
      "note": 87,
      "start": 83.421,
      "duration": 0.262,
      "velocity": 105,
      "chip": "ym2612"
    },
    {
      "channel": 1,
      "note": 97,
      "start": 83.4214,
      "duration": 0.659,
      "velocity": 99,
      "chip": "ym2612"
    },
    {
      "channel": 2,
      "note": 85,
      "start": 83.4218,
      "duration": 0.0976,
      "velocity": 99,
      "chip": "ym2612"
    },
    {
      "channel": 3,
      "note": 85,
      "start": 83.4223,
      "duration": 0.0974,
      "velocity": 99,
      "chip": "ym2612"
    },
    {
      "channel": 4,
      "note": 58,
      "start": 83.4228,
      "duration": 0.1846,
      "velocity": 94,
      "chip": "ym2612"
    },
    {
      "channel": 2,
      "note": 89,
      "start": 83.6063,
      "duration": 0.1323,
      "velocity": 99,
      "chip": "ym2612"
    },
    {
      "channel": 3,
      "note": 85,
      "start": 83.6073,
      "duration": 0.0278,
      "velocity": 99,
      "chip": "ym2612"
    },
    {
      "channel": 4,
      "note": 58,
      "start": 83.6083,
      "duration": 0.0783,
      "velocity": 94,
      "chip": "ym2612"
    },
    {
      "channel": 0,
      "note": 89,
      "start": 83.6839,
      "duration": 0.0326,
      "velocity": 105,
      "chip": "ym2612"
    },
    {
      "channel": 3,
      "note": 89,
      "start": 83.6865,
      "duration": 0.1298,
      "velocity": 99,
      "chip": "ym2612"
    },
    {
      "channel": 4,
      "note": 58,
      "start": 83.6875,
      "duration": 0.0532,
      "velocity": 94,
      "chip": "ym2612"
    },
    {
      "channel": 0,
      "note": 80,
      "start": 83.7377,
      "duration": 0.3416,
      "velocity": 105,
      "chip": "ym2612"
    },
    {
      "channel": 2,
      "note": 85,
      "start": 83.7398,
      "duration": 0.0276,
      "velocity": 99,
      "chip": "ym2612"
    },
    {
      "channel": 4,
      "note": 58,
      "start": 83.7415,
      "duration": 0.0752,
      "velocity": 94,
      "chip": "ym2612"
    },
    {
      "channel": 2,
      "note": 89,
      "start": 83.8162,
      "duration": 0.0987,
      "velocity": 99,
      "chip": "ym2612"
    },
    {
      "channel": 3,
      "note": 85,
      "start": 83.8167,
      "duration": 0.0985,
      "velocity": 99,
      "chip": "ym2612"
    },
    {
      "channel": 4,
      "note": 58,
      "start": 83.8172,
      "duration": 0.1858,
      "velocity": 94,
      "chip": "ym2612"
    },
    {
      "channel": 2,
      "note": 85,
      "start": 84.0019,
      "duration": 0.0279,
      "velocity": 99,
      "chip": "ym2612"
    },
    {
      "channel": 3,
      "note": 89,
      "start": 84.0029,
      "duration": 0.0278,
      "velocity": 99,
      "chip": "ym2612"
    },
    {
      "channel": 4,
      "note": 58,
      "start": 84.0038,
      "duration": 0.0797,
      "velocity": 94,
      "chip": "ym2612"
    },
    {
      "channel": 0,
      "note": 85,
      "start": 84.0803,
      "duration": 0.1332,
      "velocity": 105,
      "chip": "ym2612"
    },
    {
      "channel": 1,
      "note": 97,
      "start": 84.0813,
      "duration": 0.0536,
      "velocity": 99,
      "chip": "ym2612"
    },
    {
      "channel": 2,
      "note": 89,
      "start": 84.0824,
      "duration": 0.0279,
      "velocity": 99,
      "chip": "ym2612"
    },
    {
      "channel": 3,
      "note": 85,
      "start": 84.0834,
      "duration": 0.0279,
      "velocity": 99,
      "chip": "ym2612"
    },
    {
      "channel": 4,
      "note": 58,
      "start": 84.0844,
      "duration": 0.0539,
      "velocity": 94,
      "chip": "ym2612"
    },
    {
      "channel": 1,
      "note": 100,
      "start": 84.1359,
      "duration": 0.4746,
      "velocity": 99,
      "chip": "ym2612"
    },
    {
      "channel": 2,
      "note": 85,
      "start": 84.1371,
      "duration": 0.0277,
      "velocity": 99,
      "chip": "ym2612"
    },
    {
      "channel": 3,
      "note": 89,
      "start": 84.1381,
      "duration": 0.0275,
      "velocity": 99,
      "chip": "ym2612"
    },
    {
      "channel": 4,
      "note": 58,
      "start": 84.139,
      "duration": 0.0785,
      "velocity": 94,
      "chip": "ym2612"
    },
    {
      "channel": 0,
      "note": 84,
      "start": 84.2144,
      "duration": 0.2616,
      "velocity": 105,
      "chip": "ym2612"
    },
    {
      "channel": 2,
      "note": 85,
      "start": 84.2164,
      "duration": 0.0278,
      "velocity": 99,
      "chip": "ym2612"
    },
    {
      "channel": 3,
      "note": 85,
      "start": 84.2174,
      "duration": 0.0276,
      "velocity": 99,
      "chip": "ym2612"
    },
    {
      "channel": 4,
      "note": 63,
      "start": 84.2183,
      "duration": 0.0921,
      "velocity": 94,
      "chip": "ym2612"
    },
    {
      "channel": 2,
      "note": 88,
      "start": 84.3098,
      "duration": 0.2211,
      "velocity": 99,
      "chip": "ym2612"
    },
    {
      "channel": 3,
      "note": 85,
      "start": 84.3103,
      "duration": 0.0983,
      "velocity": 99,
      "chip": "ym2612"
    },
    {
      "channel": 4,
      "note": 63,
      "start": 84.3109,
      "duration": 0.1688,
      "velocity": 94,
      "chip": "ym2612"
    },
    {
      "channel": 0,
      "note": 82,
      "start": 84.477,
      "duration": 0.1325,
      "velocity": 105,
      "chip": "ym2612"
    },
    {
      "channel": 3,
      "note": 88,
      "start": 84.4796,
      "duration": 0.1362,
      "velocity": 99,
      "chip": "ym2612"
    },
    {
      "channel": 4,
      "note": 63,
      "start": 84.4805,
      "duration": 0.0522,
      "velocity": 94,
      "chip": "ym2612"
    },
    {
      "channel": 2,
      "note": 85,
      "start": 84.5319,
      "duration": 0.0278,
      "velocity": 99,
      "chip": "ym2612"
    },
    {
      "channel": 4,
      "note": 63,
      "start": 84.5336,
      "duration": 0.083,
      "velocity": 94,
      "chip": "ym2612"
    },
    {
      "channel": 0,
      "note": 80,
      "start": 84.6104,
      "duration": 0.148,
      "velocity": 105,
      "chip": "ym2612"
    },
    {
      "channel": 1,
      "note": 84,
      "start": 84.6143,
      "duration": 0.1451,
      "velocity": 105,
      "chip": "ym2612"
    },
    {
      "channel": 2,
      "note": 88,
      "start": 84.6155,
      "duration": 0.0278,
      "velocity": 99,
      "chip": "ym2612"
    },
    {
      "channel": 3,
      "note": 85,
      "start": 84.6165,
      "duration": 0.0277,
      "velocity": 99,
      "chip": "ym2612"
    },
    {
      "channel": 4,
      "note": 63,
      "start": 84.6174,
      "duration": 0.0945,
      "velocity": 94,
      "chip": "ym2612"
    },
    {
      "channel": 2,
      "note": 85,
      "start": 84.7107,
      "duration": 0.0276,
      "velocity": 99,
      "chip": "ym2612"
    },
    {
      "channel": 3,
      "note": 88,
      "start": 84.7118,
      "duration": 0.0274,
      "velocity": 99,
      "chip": "ym2612"
    },
    {
      "channel": 4,
      "note": 63,
      "start": 84.7127,
      "duration": 0.0499,
      "velocity": 94,
      "chip": "ym2612"
    },
    {
      "channel": 0,
      "note": 79,
      "start": 84.7593,
      "duration": 0.1046,
      "velocity": 105,
      "chip": "ym2612"
    },
    {
      "channel": 1,
      "note": 85,
      "start": 84.7604,
      "duration": 0.1046,
      "velocity": 105,
      "chip": "ym2612"
    },
    {
      "channel": 2,
      "note": 88,
      "start": 84.7615,
      "duration": 0.0282,
      "velocity": 99,
      "chip": "ym2612"
    },
    {
      "channel": 3,
      "note": 85,
      "start": 84.7624,
      "duration": 0.0282,
      "velocity": 99,
      "chip": "ym2612"
    },
    {
      "channel": 4,
      "note": 63,
      "start": 84.7634,
      "duration": 0.0533,
      "velocity": 94,
      "chip": "ym2612"
    },
    {
      "channel": 2,
      "note": 85,
      "start": 84.8156,
      "duration": 0.0281,
      "velocity": 99,
      "chip": "ym2612"
    },
    {
      "channel": 3,
      "note": 88,
      "start": 84.8166,
      "duration": 0.028,
      "velocity": 99,
      "chip": "ym2612"
    },
    {
      "channel": 4,
      "note": 63,
      "start": 84.8176,
      "duration": 0.0536,
      "velocity": 94,
      "chip": "ym2612"
    },
    {
      "channel": 0,
      "note": 87,
      "start": 84.8649,
      "duration": 0.2639,
      "velocity": 105,
      "chip": "ym2612"
    },
    {
      "channel": 1,
      "note": 94,
      "start": 84.8689,
      "duration": 0.2609,
      "velocity": 99,
      "chip": "ym2612"
    },
    {
      "channel": 2,
      "note": 82,
      "start": 84.8701,
      "duration": 0.2608,
      "velocity": 99,
      "chip": "ym2612"
    },
    {
      "channel": 3,
      "note": 82,
      "start": 84.8711,
      "duration": 0.6278,
      "velocity": 99,
      "chip": "ym2612"
    },
    {
      "channel": 4,
      "note": 58,
      "start": 84.872,
      "duration": 0.0898,
      "velocity": 94,
      "chip": "ym2612"
    },
    {
      "channel": 4,
      "note": 58,
      "start": 84.9623,
      "duration": 0.1705,
      "velocity": 94,
      "chip": "ym2612"
    },
    {
      "channel": 0,
      "note": 85,
      "start": 85.1297,
      "duration": 0.0332,
      "velocity": 105,
      "chip": "ym2612"
    },
    {
      "channel": 1,
      "note": 94,
      "start": 85.1308,
      "duration": 0.028,
      "velocity": 99,
      "chip": "ym2612"
    },
    {
      "channel": 2,
      "note": 85,
      "start": 85.1319,
      "duration": 0.0278,
      "velocity": 99,
      "chip": "ym2612"
    },
    {
      "channel": 4,
      "note": 58,
      "start": 85.1336,
      "duration": 0.0538,
      "velocity": 94,
      "chip": "ym2612"
    },
    {
      "channel": 0,
      "note": 84,
      "start": 85.1844,
      "duration": 0.0332,
      "velocity": 105,
      "chip": "ym2612"
    },
    {
      "channel": 1,
      "note": 96,
      "start": 85.1854,
      "duration": 0.0279,
      "velocity": 99,
      "chip": "ym2612"
    },
    {
      "channel": 2,
      "note": 87,
      "start": 85.1867,
      "duration": 0.0276,
      "velocity": 99,
      "chip": "ym2612"
    },
    {
      "channel": 4,
      "note": 58,
      "start": 85.1883,
      "duration": 0.0493,
      "velocity": 94,
      "chip": "ym2612"
    },
    {
      "channel": 0,
      "note": 85,
      "start": 85.2344,
      "duration": 0.1426,
      "velocity": 105,
      "chip": "ym2612"
    },
    {
      "channel": 1,
      "note": 97,
      "start": 85.2354,
      "duration": 0.2614,
      "velocity": 99,
      "chip": "ym2612"
    },
    {
      "channel": 2,
      "note": 89,
      "start": 85.2366,
      "duration": 0.3943,
      "velocity": 99,
      "chip": "ym2612"
    },
    {
      "channel": 4,
      "note": 58,
      "start": 85.2384,
      "duration": 0.0904,
      "velocity": 94,
      "chip": "ym2612"
    },
    {
      "channel": 4,
      "note": 60,
      "start": 85.3293,
      "duration": 0.1705,
      "velocity": 94,
      "chip": "ym2612"
    },
    {
      "channel": 0,
      "note": 82,
      "start": 85.4968,
      "duration": 0.791,
      "velocity": 105,
      "chip": "ym2612"
    },
    {
      "channel": 1,
      "note": 99,
      "start": 85.4978,
      "duration": 0.0281,
      "velocity": 99,
      "chip": "ym2612"
    },
    {
      "channel": 3,
      "note": 87,
      "start": 85.4997,
      "duration": 0.028,
      "velocity": 99,
      "chip": "ym2612"
    },
    {
      "channel": 4,
      "note": 61,
      "start": 85.5006,
      "duration": 0.0541,
      "velocity": 94,
      "chip": "ym2612"
    },
    {
      "channel": 1,
      "note": 101,
      "start": 85.5528,
      "duration": 0.0281,
      "velocity": 99,
      "chip": "ym2612"
    },
    {
      "channel": 3,
      "note": 89,
      "start": 85.5546,
      "duration": 0.0279,
      "velocity": 99,
      "chip": "ym2612"
    },
    {
      "channel": 4,
      "note": 61,
      "start": 85.5555,
      "duration": 0.0764,
      "velocity": 94,
      "chip": "ym2612"
    },
    {
      "channel": 1,
      "note": 104,
      "start": 85.6309,
      "duration": 0.3934,
      "velocity": 99,
      "chip": "ym2612"
    },
    {
      "channel": 2,
      "note": 91,
      "start": 85.6313,
      "duration": 0.3149,
      "velocity": 99,
      "chip": "ym2612"
    },
    {
      "channel": 3,
      "note": 91,
      "start": 85.6318,
      "duration": 0.5791,
      "velocity": 99,
      "chip": "ym2612"
    },
    {
      "channel": 4,
      "note": 63,
      "start": 85.6324,
      "duration": 0.184,
      "velocity": 94,
      "chip": "ym2612"
    },
    {
      "channel": 4,
      "note": 63,
      "start": 85.8172,
      "duration": 0.0773,
      "velocity": 94,
      "chip": "ym2612"
    },
    {
      "channel": 4,
      "note": 63,
      "start": 85.8953,
      "duration": 0.053,
      "velocity": 94,
      "chip": "ym2612"
    },
    {
      "channel": 2,
      "note": 92,
      "start": 85.9473,
      "duration": 0.028,
      "velocity": 99,
      "chip": "ym2612"
    },
    {
      "channel": 4,
      "note": 63,
      "start": 85.949,
      "duration": 0.0765,
      "velocity": 94,
      "chip": "ym2612"
    },
    {
      "channel": 1,
      "note": 103,
      "start": 86.0246,
      "duration": 0.6613,
      "velocity": 99,
      "chip": "ym2612"
    },
    {
      "channel": 2,
      "note": 94,
      "start": 86.0251,
      "duration": 0.0985,
      "velocity": 99,
      "chip": "ym2612"
    },
    {
      "channel": 4,
      "note": 61,
      "start": 86.026,
      "duration": 0.1858,
      "velocity": 94,
      "chip": "ym2612"
    },
    {
      "channel": 2,
      "note": 92,
      "start": 86.2107,
      "duration": 0.0278,
      "velocity": 99,
      "chip": "ym2612"
    },
    {
      "channel": 3,
      "note": 92,
      "start": 86.2117,
      "duration": 0.0277,
      "velocity": 99,
      "chip": "ym2612"
    },
    {
      "channel": 4,
      "note": 61,
      "start": 86.2127,
      "duration": 0.0792,
      "velocity": 94,
      "chip": "ym2612"
    },
    {
      "channel": 0,
      "note": 80,
      "start": 86.2887,
      "duration": 0.0332,
      "velocity": 105,
      "chip": "ym2612"
    },
    {
      "channel": 2,
      "note": 91,
      "start": 86.2907,
      "duration": 0.0278,
      "velocity": 99,
      "chip": "ym2612"
    },
    {
      "channel": 3,
      "note": 91,
      "start": 86.2917,
      "duration": 0.0277,
      "velocity": 99,
      "chip": "ym2612"
    },
    {
      "channel": 4,
      "note": 61,
      "start": 86.2926,
      "duration": 0.0549,
      "velocity": 94,
      "chip": "ym2612"
    },
    {
      "channel": 0,
      "note": 79,
      "start": 86.3444,
      "duration": 0.0329,
      "velocity": 105,
      "chip": "ym2612"
    },
    {
      "channel": 2,
      "note": 87,
      "start": 86.3464,
      "duration": 0.0276,
      "velocity": 99,
      "chip": "ym2612"
    },
    {
      "channel": 3,
      "note": 87,
      "start": 86.3474,
      "duration": 0.0274,
      "velocity": 99,
      "chip": "ym2612"
    },
    {
      "channel": 4,
      "note": 61,
      "start": 86.3483,
      "duration": 0.0786,
      "velocity": 94,
      "chip": "ym2612"
    },
    {
      "channel": 0,
      "note": 82,
      "start": 86.4239,
      "duration": 0.261,
      "velocity": 105,
      "chip": "ym2612"
    },
    {
      "channel": 2,
      "note": 84,
      "start": 86.4259,
      "duration": 0.3127,
      "velocity": 99,
      "chip": "ym2612"
    },
    {
      "channel": 3,
      "note": 87,
      "start": 86.4268,
      "duration": 0.6244,
      "velocity": 99,
      "chip": "ym2612"
    },
    {
      "channel": 4,
      "note": 60,
      "start": 86.4278,
      "duration": 0.0904,
      "velocity": 94,
      "chip": "ym2612"
    },
    {
      "channel": 4,
      "note": 60,
      "start": 86.5187,
      "duration": 0.1698,
      "velocity": 94,
      "chip": "ym2612"
    },
    {
      "channel": 0,
      "note": 79,
      "start": 86.6858,
      "duration": 0.0998,
      "velocity": 105,
      "chip": "ym2612"
    },
    {
      "channel": 1,
      "note": 99,
      "start": 86.6868,
      "duration": 0.0999,
      "velocity": 99,
      "chip": "ym2612"
    },
    {
      "channel": 4,
      "note": 60,
      "start": 86.6893,
      "duration": 0.0511,
      "velocity": 94,
      "chip": "ym2612"
    },
    {
      "channel": 2,
      "note": 85,
      "start": 86.7396,
      "duration": 0.0276,
      "velocity": 99,
      "chip": "ym2612"
    },
    {
      "channel": 4,
      "note": 60,
      "start": 86.7412,
      "duration": 0.0485,
      "velocity": 94,
      "chip": "ym2612"
    },
    {
      "channel": 0,
      "note": 82,
      "start": 86.7866,
      "duration": 0.2616,
      "velocity": 105,
      "chip": "ym2612"
    },
    {
      "channel": 1,
      "note": 103,
      "start": 86.7876,
      "duration": 0.2616,
      "velocity": 99,
      "chip": "ym2612"
    },
    {
      "channel": 2,
      "note": 87,
      "start": 86.7888,
      "duration": 0.3921,
      "velocity": 99,
      "chip": "ym2612"
    },
    {
      "channel": 4,
      "note": 60,
      "start": 86.7905,
      "duration": 0.0906,
      "velocity": 94,
      "chip": "ym2612"
    },
    {
      "channel": 4,
      "note": 60,
      "start": 86.8817,
      "duration": 0.1705,
      "velocity": 94,
      "chip": "ym2612"
    },
    {
      "channel": 0,
      "note": 80,
      "start": 87.0492,
      "duration": 0.395,
      "velocity": 105,
      "chip": "ym2612"
    },
    {
      "channel": 1,
      "note": 101,
      "start": 87.0502,
      "duration": 0.4501,
      "velocity": 99,
      "chip": "ym2612"
    },
    {
      "channel": 3,
      "note": 89,
      "start": 87.052,
      "duration": 0.0278,
      "velocity": 99,
      "chip": "ym2612"
    },
    {
      "channel": 4,
      "note": 60,
      "start": 87.0529,
      "duration": 0.0522,
      "velocity": 94,
      "chip": "ym2612"
    },
    {
      "channel": 3,
      "note": 91,
      "start": 87.105,
      "duration": 0.0276,
      "velocity": 99,
      "chip": "ym2612"
    },
    {
      "channel": 4,
      "note": 60,
      "start": 87.1059,
      "duration": 0.076,
      "velocity": 94,
      "chip": "ym2612"
    },
    {
      "channel": 2,
      "note": 92,
      "start": 87.1813,
      "duration": 0.0987,
      "velocity": 99,
      "chip": "ym2612"
    },
    {
      "channel": 3,
      "note": 89,
      "start": 87.1819,
      "duration": 0.0984,
      "velocity": 99,
      "chip": "ym2612"
    },
    {
      "channel": 4,
      "note": 53,
      "start": 87.1824,
      "duration": 0.1856,
      "velocity": 94,
      "chip": "ym2612"
    },
    {
      "channel": 2,
      "note": 91,
      "start": 87.3669,
      "duration": 0.028,
      "velocity": 99,
      "chip": "ym2612"
    },
    {
      "channel": 3,
      "note": 87,
      "start": 87.3679,
      "duration": 0.0279,
      "velocity": 99,
      "chip": "ym2612"
    },
    {
      "channel": 4,
      "note": 53,
      "start": 87.3688,
      "duration": 0.0795,
      "velocity": 94,
      "chip": "ym2612"
    },
    {
      "channel": 0,
      "note": 82,
      "start": 87.4451,
      "duration": 0.0541,
      "velocity": 105,
      "chip": "ym2612"
    },
    {
      "channel": 2,
      "note": 89,
      "start": 87.4471,
      "duration": 0.0278,
      "velocity": 99,
      "chip": "ym2612"
    },
    {
      "channel": 3,
      "note": 84,
      "start": 87.4482,
      "duration": 0.0278,
      "velocity": 99,
      "chip": "ym2612"
    },
    {
      "channel": 4,
      "note": 53,
      "start": 87.4491,
      "duration": 0.0543,
      "velocity": 94,
      "chip": "ym2612"
    },
    {
      "channel": 0,
      "note": 80,
      "start": 87.5002,
      "duration": 0.0795,
      "velocity": 105,
      "chip": "ym2612"
    },
    {
      "channel": 2,
      "note": 91,
      "start": 87.5023,
      "duration": 0.0286,
      "velocity": 99,
      "chip": "ym2612"
    },
    {
      "channel": 3,
      "note": 87,
      "start": 87.5033,
      "duration": 0.0285,
      "velocity": 99,
      "chip": "ym2612"
    },
    {
      "channel": 4,
      "note": 53,
      "start": 87.5041,
      "duration": 0.0772,
      "velocity": 94,
      "chip": "ym2612"
    },
    {
      "channel": 0,
      "note": 79,
      "start": 87.5799,
      "duration": 0.1145,
      "velocity": 105,
      "chip": "ym2612"
    },
    {
      "channel": 1,
      "note": 101,
      "start": 87.5803,
      "duration": 0.2128,
      "velocity": 99,
      "chip": "ym2612"
    },
    {
      "channel": 2,
      "note": 92,
      "start": 87.5807,
      "duration": 0.0978,
      "velocity": 99,
      "chip": "ym2612"
    },
    {
      "channel": 3,
      "note": 89,
      "start": 87.5813,
      "duration": 0.0976,
      "velocity": 99,
      "chip": "ym2612"
    },
    {
      "channel": 4,
      "note": 53,
      "start": 87.5818,
      "duration": 0.1854,
      "velocity": 94,
      "chip": "ym2612"
    },
    {
      "channel": 0,
      "note": 80,
      "start": 87.7641,
      "duration": 0.0332,
      "velocity": 105,
      "chip": "ym2612"
    },
    {
      "channel": 2,
      "note": 91,
      "start": 87.7661,
      "duration": 0.0279,
      "velocity": 99,
      "chip": "ym2612"
    },
    {
      "channel": 3,
      "note": 87,
      "start": 87.7671,
      "duration": 0.0279,
      "velocity": 99,
      "chip": "ym2612"
    },
    {
      "channel": 4,
      "note": 53,
      "start": 87.768,
      "duration": 0.0799,
      "velocity": 94,
      "chip": "ym2612"
    },
    {
      "channel": 0,
      "note": 82,
      "start": 87.8445,
      "duration": 0.0698,
      "velocity": 105,
      "chip": "ym2612"
    },
    {
      "channel": 1,
      "note": 103,
      "start": 87.8455,
      "duration": 0.0542,
      "velocity": 99,
      "chip": "ym2612"
    },
    {
      "channel": 2,
      "note": 89,
      "start": 87.8467,
      "duration": 0.0285,
      "velocity": 99,
      "chip": "ym2612"
    },
    {
      "channel": 3,
      "note": 84,
      "start": 87.8478,
      "duration": 0.0284,
      "velocity": 99,
      "chip": "ym2612"
    },
    {
      "channel": 4,
      "note": 53,
      "start": 87.8487,
      "duration": 0.0541,
      "velocity": 94,
      "chip": "ym2612"
    },
    {
      "channel": 2,
      "note": 84,
      "start": 87.9017,
      "duration": 0.0293,
      "velocity": 99,
      "chip": "ym2612"
    },
    {
      "channel": 3,
      "note": 80,
      "start": 87.9027,
      "duration": 0.0292,
      "velocity": 99,
      "chip": "ym2612"
    },
    {
      "channel": 4,
      "note": 53,
      "start": 87.9036,
      "duration": 0.0813,
      "velocity": 94,
      "chip": "ym2612"
    },
    {
      "channel": 0,
      "note": 84,
      "start": 87.9816,
      "duration": 0.7536,
      "velocity": 105,
      "chip": "ym2612"
    },
    {
      "channel": 1,
      "note": 104,
      "start": 87.9826,
      "duration": 0.7529,
      "velocity": 99,
      "chip": "ym2612"
    },
    {
      "channel": 2,
      "note": 89,
      "start": 87.9838,
      "duration": 1.1445,
      "velocity": 99,
      "chip": "ym2612"
    },
    {
      "channel": 3,
      "note": 85,
      "start": 87.9848,
      "duration": 1.144,
      "velocity": 99,
      "chip": "ym2612"
    },
    {
      "channel": 4,
      "note": 61,
      "start": 87.9857,
      "duration": 0.0904,
      "velocity": 94,
      "chip": "ym2612"
    },
    {
      "channel": 4,
      "note": 61,
      "start": 88.0766,
      "duration": 0.1687,
      "velocity": 94,
      "chip": "ym2612"
    },
    {
      "channel": 4,
      "note": 61,
      "start": 88.2461,
      "duration": 0.0511,
      "velocity": 94,
      "chip": "ym2612"
    },
    {
      "channel": 4,
      "note": 61,
      "start": 88.298,
      "duration": 0.0473,
      "velocity": 94,
      "chip": "ym2612"
    },
    {
      "channel": 4,
      "note": 61,
      "start": 88.3462,
      "duration": 0.0915,
      "velocity": 94,
      "chip": "ym2612"
    },
    {
      "channel": 4,
      "note": 61,
      "start": 88.4382,
      "duration": 0.1687,
      "velocity": 94,
      "chip": "ym2612"
    },
    {
      "channel": 4,
      "note": 61,
      "start": 88.6077,
      "duration": 0.0523,
      "velocity": 94,
      "chip": "ym2612"
    },
    {
      "channel": 4,
      "note": 60,
      "start": 88.6607,
      "duration": 0.0759,
      "velocity": 94,
      "chip": "ym2612"
    },
    {
      "channel": 0,
      "note": 85,
      "start": 88.7355,
      "duration": 0.7869,
      "velocity": 105,
      "chip": "ym2612"
    },
    {
      "channel": 1,
      "note": 104,
      "start": 88.7358,
      "duration": 0.7869,
      "velocity": 99,
      "chip": "ym2612"
    },
    {
      "channel": 4,
      "note": 58,
      "start": 88.7371,
      "duration": 0.1846,
      "velocity": 94,
      "chip": "ym2612"
    },
    {
      "channel": 4,
      "note": 58,
      "start": 88.9225,
      "duration": 0.0775,
      "velocity": 94,
      "chip": "ym2612"
    },
    {
      "channel": 4,
      "note": 58,
      "start": 89.0008,
      "duration": 0.0521,
      "velocity": 94,
      "chip": "ym2612"
    },
    {
      "channel": 4,
      "note": 58,
      "start": 89.0537,
      "duration": 0.0756,
      "velocity": 94,
      "chip": "ym2612"
    },
    {
      "channel": 2,
      "note": 88,
      "start": 89.1288,
      "duration": 0.3943,
      "velocity": 99,
      "chip": "ym2612"
    },
    {
      "channel": 3,
      "note": 85,
      "start": 89.1293,
      "duration": 0.3953,
      "velocity": 99,
      "chip": "ym2612"
    },
    {
      "channel": 4,
      "note": 58,
      "start": 89.1298,
      "duration": 0.1845,
      "velocity": 94,
      "chip": "ym2612"
    },
    {
      "channel": 4,
      "note": 58,
      "start": 89.3151,
      "duration": 0.0778,
      "velocity": 94,
      "chip": "ym2612"
    },
    {
      "channel": 4,
      "note": 56,
      "start": 89.3937,
      "duration": 0.0525,
      "velocity": 94,
      "chip": "ym2612"
    },
    {
      "channel": 4,
      "note": 58,
      "start": 89.447,
      "duration": 0.078,
      "velocity": 94,
      "chip": "ym2612"
    },
    {
      "channel": 0,
      "note": 87,
      "start": 89.5227,
      "duration": 0.316,
      "velocity": 105,
      "chip": "ym2612"
    },
    {
      "channel": 1,
      "note": 92,
      "start": 89.5231,
      "duration": 0.3166,
      "velocity": 99,
      "chip": "ym2612"
    },
    {
      "channel": 2,
      "note": 64,
      "start": 89.5245,
      "duration": 0.1823,
      "velocity": 101,
      "chip": "ym2612"
    },
    {
      "channel": 4,
      "note": 66,
      "start": 89.5254,
      "duration": 0.1833,
      "velocity": 94,
      "chip": "ym2612"
    },
    {
      "channel": 3,
      "note": 64,
      "start": 89.5739,
      "duration": 0.1341,
      "velocity": 101,
      "chip": "ym2612"
    },
    {
      "channel": 2,
      "note": 68,
      "start": 89.7078,
      "duration": 0.0782,
      "velocity": 101,
      "chip": "ym2612"
    },
    {
      "channel": 4,
      "note": 66,
      "start": 89.7096,
      "duration": 0.0784,
      "velocity": 94,
      "chip": "ym2612"
    },
    {
      "channel": 3,
      "note": 68,
      "start": 89.7234,
      "duration": 0.0639,
      "velocity": 101,
      "chip": "ym2612"
    },
    {
      "channel": 2,
      "note": 73,
      "start": 89.787,
      "duration": 0.0537,
      "velocity": 101,
      "chip": "ym2612"
    },
    {
      "channel": 4,
      "note": 66,
      "start": 89.7888,
      "duration": 0.054,
      "velocity": 94,
      "chip": "ym2612"
    },
    {
      "channel": 3,
      "note": 73,
      "start": 89.8024,
      "duration": 0.0396,
      "velocity": 101,
      "chip": "ym2612"
    },
    {
      "channel": 0,
      "note": 85,
      "start": 89.8396,
      "duration": 0.3415,
      "velocity": 105,
      "chip": "ym2612"
    },
    {
      "channel": 1,
      "note": 92,
      "start": 89.8406,
      "duration": 0.3415,
      "velocity": 99,
      "chip": "ym2612"
    },
    {
      "channel": 2,
      "note": 66,
      "start": 89.8418,
      "duration": 0.076,
      "velocity": 101,
      "chip": "ym2612"
    },
    {
      "channel": 4,
      "note": 59,
      "start": 89.8437,
      "duration": 0.075,
      "velocity": 94,
      "chip": "ym2612"
    },
    {
      "channel": 3,
      "note": 66,
      "start": 89.8577,
      "duration": 0.0605,
      "velocity": 101,
      "chip": "ym2612"
    },
    {
      "channel": 2,
      "note": 69,
      "start": 89.9181,
      "duration": 0.1846,
      "velocity": 101,
      "chip": "ym2612"
    },
    {
      "channel": 4,
      "note": 59,
      "start": 89.9191,
      "duration": 0.1857,
      "velocity": 94,
      "chip": "ym2612"
    },
    {
      "channel": 3,
      "note": 69,
      "start": 89.968,
      "duration": 0.136,
      "velocity": 101,
      "chip": "ym2612"
    },
    {
      "channel": 2,
      "note": 76,
      "start": 90.1038,
      "duration": 0.0793,
      "velocity": 101,
      "chip": "ym2612"
    },
    {
      "channel": 4,
      "note": 59,
      "start": 90.1057,
      "duration": 0.0795,
      "velocity": 94,
      "chip": "ym2612"
    },
    {
      "channel": 3,
      "note": 76,
      "start": 90.1193,
      "duration": 0.0651,
      "velocity": 101,
      "chip": "ym2612"
    },
    {
      "channel": 0,
      "note": 83,
      "start": 90.182,
      "duration": 0.1322,
      "velocity": 105,
      "chip": "ym2612"
    },
    {
      "channel": 1,
      "note": 100,
      "start": 90.183,
      "duration": 0.1315,
      "velocity": 99,
      "chip": "ym2612"
    },
    {
      "channel": 2,
      "note": 64,
      "start": 90.1842,
      "duration": 0.0525,
      "velocity": 101,
      "chip": "ym2612"
    },
    {
      "channel": 4,
      "note": 62,
      "start": 90.186,
      "duration": 0.0527,
      "velocity": 94,
      "chip": "ym2612"
    },
    {
      "channel": 3,
      "note": 64,
      "start": 90.1998,
      "duration": 0.0381,
      "velocity": 101,
      "chip": "ym2612"
    },
    {
      "channel": 2,
      "note": 68,
      "start": 90.2377,
      "duration": 0.0772,
      "velocity": 101,
      "chip": "ym2612"
    },
    {
      "channel": 4,
      "note": 63,
      "start": 90.2395,
      "duration": 0.0763,
      "velocity": 94,
      "chip": "ym2612"
    },
    {
      "channel": 3,
      "note": 68,
      "start": 90.2531,
      "duration": 0.0622,
      "velocity": 101,
      "chip": "ym2612"
    },
    {
      "channel": 0,
      "note": 82,
      "start": 90.3145,
      "duration": 0.1838,
      "velocity": 105,
      "chip": "ym2612"
    },
    {
      "channel": 1,
      "note": 101,
      "start": 90.3148,
      "duration": 0.2691,
      "velocity": 99,
      "chip": "ym2612"
    },
    {
      "channel": 2,
      "note": 63,
      "start": 90.3152,
      "duration": 0.1848,
      "velocity": 101,
      "chip": "ym2612"
    },
    {
      "channel": 4,
      "note": 51,
      "start": 90.3162,
      "duration": 0.1914,
      "velocity": 94,
      "chip": "ym2612"
    },
    {
      "channel": 3,
      "note": 63,
      "start": 90.3644,
      "duration": 0.1399,
      "velocity": 101,
      "chip": "ym2612"
    },
    {
      "channel": 2,
      "note": 75,
      "start": 90.504,
      "duration": 0.0354,
      "velocity": 99,
      "chip": "ym2612"
    },
    {
      "channel": 3,
      "note": 67,
      "start": 90.5076,
      "duration": 0.0328,
      "velocity": 99,
      "chip": "ym2612"
    },
    {
      "channel": 4,
      "note": 63,
      "start": 90.513,
      "duration": 0.0741,
      "velocity": 94,
      "chip": "ym2612"
    },
    {
      "channel": 2,
      "note": 77,
      "start": 90.586,
      "duration": 0.0342,
      "velocity": 99,
      "chip": "ym2612"
    },
    {
      "channel": 3,
      "note": 68,
      "start": 90.587,
      "duration": 0.0341,
      "velocity": 99,
      "chip": "ym2612"
    },
    {
      "channel": 4,
      "note": 51,
      "start": 90.5879,
      "duration": 0.0563,
      "velocity": 94,
      "chip": "ym2612"
    },
    {
      "channel": 2,
      "note": 79,
      "start": 90.643,
      "duration": 0.0337,
      "velocity": 99,
      "chip": "ym2612"
    },
    {
      "channel": 3,
      "note": 70,
      "start": 90.644,
      "duration": 0.0336,
      "velocity": 99,
      "chip": "ym2612"
    },
    {
      "channel": 4,
      "note": 61,
      "start": 90.645,
      "duration": 0.0768,
      "velocity": 94,
      "chip": "ym2612"
    },
    {
      "channel": 2,
      "note": 80,
      "start": 90.7211,
      "duration": 0.1153,
      "velocity": 99,
      "chip": "ym2612"
    },
    {
      "channel": 3,
      "note": 72,
      "start": 90.7217,
      "duration": 0.1151,
      "velocity": 99,
      "chip": "ym2612"
    },
    {
      "channel": 4,
      "note": 51,
      "start": 90.7222,
      "duration": 0.1859,
      "velocity": 94,
      "chip": "ym2612"
    },
    {
      "channel": 2,
      "note": 79,
      "start": 90.9069,
      "duration": 0.0338,
      "velocity": 99,
      "chip": "ym2612"
    },
    {
      "channel": 3,
      "note": 70,
      "start": 90.9079,
      "duration": 0.0337,
      "velocity": 99,
      "chip": "ym2612"
    },
    {
      "channel": 4,
      "note": 63,
      "start": 90.9088,
      "duration": 0.0808,
      "velocity": 94,
      "chip": "ym2612"
    },
    {
      "channel": 0,
      "note": 84,
      "start": 90.9864,
      "duration": 0.033,
      "velocity": 105,
      "chip": "ym2612"
    },
    {
      "channel": 1,
      "note": 92,
      "start": 90.9874,
      "duration": 0.0279,
      "velocity": 99,
      "chip": "ym2612"
    },
    {
      "channel": 2,
      "note": 80,
      "start": 90.9885,
      "duration": 0.0326,
      "velocity": 99,
      "chip": "ym2612"
    },
    {
      "channel": 3,
      "note": 72,
      "start": 90.9895,
      "duration": 0.0325,
      "velocity": 99,
      "chip": "ym2612"
    },
    {
      "channel": 4,
      "note": 56,
      "start": 90.9905,
      "duration": 0.0551,
      "velocity": 94,
      "chip": "ym2612"
    },
    {
      "channel": 0,
      "note": 85,
      "start": 91.0422,
      "duration": 0.0331,
      "velocity": 105,
      "chip": "ym2612"
    },
    {
      "channel": 1,
      "note": 92,
      "start": 91.0432,
      "duration": 0.0282,
      "velocity": 99,
      "chip": "ym2612"
    },
    {
      "channel": 2,
      "note": 82,
      "start": 91.0445,
      "duration": 0.0325,
      "velocity": 99,
      "chip": "ym2612"
    },
    {
      "channel": 3,
      "note": 73,
      "start": 91.0455,
      "duration": 0.0324,
      "velocity": 99,
      "chip": "ym2612"
    },
    {
      "channel": 4,
      "note": 56,
      "start": 91.0463,
      "duration": 0.079,
      "velocity": 94,
      "chip": "ym2612"
    },
    {
      "channel": 0,
      "note": 87,
      "start": 91.122,
      "duration": 0.2615,
      "velocity": 105,
      "chip": "ym2612"
    },
    {
      "channel": 1,
      "note": 94,
      "start": 91.1231,
      "duration": 0.2614,
      "velocity": 99,
      "chip": "ym2612"
    },
    {
      "channel": 2,
      "note": 82,
      "start": 91.1242,
      "duration": 0.2614,
      "velocity": 99,
      "chip": "ym2612"
    },
    {
      "channel": 3,
      "note": 82,
      "start": 91.1253,
      "duration": 0.628,
      "velocity": 99,
      "chip": "ym2612"
    },
    {
      "channel": 4,
      "note": 58,
      "start": 91.1262,
      "duration": 0.0904,
      "velocity": 94,
      "chip": "ym2612"
    },
    {
      "channel": 4,
      "note": 58,
      "start": 91.217,
      "duration": 0.1705,
      "velocity": 94,
      "chip": "ym2612"
    },
    {
      "channel": 0,
      "note": 85,
      "start": 91.3845,
      "duration": 0.0332,
      "velocity": 105,
      "chip": "ym2612"
    },
    {
      "channel": 1,
      "note": 94,
      "start": 91.3855,
      "duration": 0.028,
      "velocity": 99,
      "chip": "ym2612"
    },
    {
      "channel": 2,
      "note": 85,
      "start": 91.3866,
      "duration": 0.0279,
      "velocity": 99,
      "chip": "ym2612"
    },
    {
      "channel": 4,
      "note": 58,
      "start": 91.3884,
      "duration": 0.0536,
      "velocity": 94,
      "chip": "ym2612"
    },
    {
      "channel": 0,
      "note": 84,
      "start": 91.4389,
      "duration": 0.0334,
      "velocity": 105,
      "chip": "ym2612"
    },
    {
      "channel": 1,
      "note": 96,
      "start": 91.44,
      "duration": 0.0283,
      "velocity": 99,
      "chip": "ym2612"
    },
    {
      "channel": 2,
      "note": 87,
      "start": 91.4412,
      "duration": 0.028,
      "velocity": 99,
      "chip": "ym2612"
    },
    {
      "channel": 4,
      "note": 58,
      "start": 91.4429,
      "duration": 0.0494,
      "velocity": 94,
      "chip": "ym2612"
    },
    {
      "channel": 0,
      "note": 85,
      "start": 91.4891,
      "duration": 0.1424,
      "velocity": 105,
      "chip": "ym2612"
    },
    {
      "channel": 1,
      "note": 97,
      "start": 91.4902,
      "duration": 0.2611,
      "velocity": 99,
      "chip": "ym2612"
    },
    {
      "channel": 2,
      "note": 89,
      "start": 91.4914,
      "duration": 0.3929,
      "velocity": 99,
      "chip": "ym2612"
    },
    {
      "channel": 4,
      "note": 58,
      "start": 91.4932,
      "duration": 0.0901,
      "velocity": 94,
      "chip": "ym2612"
    },
    {
      "channel": 4,
      "note": 60,
      "start": 91.5838,
      "duration": 0.1703,
      "velocity": 94,
      "chip": "ym2612"
    },
    {
      "channel": 0,
      "note": 82,
      "start": 91.7512,
      "duration": 0.79,
      "velocity": 105,
      "chip": "ym2612"
    },
    {
      "channel": 1,
      "note": 99,
      "start": 91.7522,
      "duration": 0.0277,
      "velocity": 99,
      "chip": "ym2612"
    },
    {
      "channel": 3,
      "note": 87,
      "start": 91.754,
      "duration": 0.0276,
      "velocity": 99,
      "chip": "ym2612"
    },
    {
      "channel": 4,
      "note": 61,
      "start": 91.7549,
      "duration": 0.0532,
      "velocity": 94,
      "chip": "ym2612"
    },
    {
      "channel": 1,
      "note": 101,
      "start": 91.8062,
      "duration": 0.0281,
      "velocity": 99,
      "chip": "ym2612"
    },
    {
      "channel": 3,
      "note": 89,
      "start": 91.808,
      "duration": 0.0279,
      "velocity": 99,
      "chip": "ym2612"
    },
    {
      "channel": 4,
      "note": 61,
      "start": 91.809,
      "duration": 0.0763,
      "velocity": 94,
      "chip": "ym2612"
    },
    {
      "channel": 1,
      "note": 104,
      "start": 91.8843,
      "duration": 0.3934,
      "velocity": 99,
      "chip": "ym2612"
    },
    {
      "channel": 2,
      "note": 91,
      "start": 91.8847,
      "duration": 0.3149,
      "velocity": 99,
      "chip": "ym2612"
    },
    {
      "channel": 3,
      "note": 91,
      "start": 91.8852,
      "duration": 0.5791,
      "velocity": 99,
      "chip": "ym2612"
    },
    {
      "channel": 4,
      "note": 63,
      "start": 91.8858,
      "duration": 0.184,
      "velocity": 94,
      "chip": "ym2612"
    },
    {
      "channel": 4,
      "note": 63,
      "start": 92.0706,
      "duration": 0.0773,
      "velocity": 94,
      "chip": "ym2612"
    },
    {
      "channel": 4,
      "note": 63,
      "start": 92.1487,
      "duration": 0.053,
      "velocity": 94,
      "chip": "ym2612"
    },
    {
      "channel": 2,
      "note": 92,
      "start": 92.2007,
      "duration": 0.028,
      "velocity": 99,
      "chip": "ym2612"
    },
    {
      "channel": 4,
      "note": 63,
      "start": 92.2024,
      "duration": 0.0765,
      "velocity": 94,
      "chip": "ym2612"
    },
    {
      "channel": 1,
      "note": 103,
      "start": 92.278,
      "duration": 0.4999,
      "velocity": 99,
      "chip": "ym2612"
    },
    {
      "channel": 2,
      "note": 94,
      "start": 92.2785,
      "duration": 0.0985,
      "velocity": 99,
      "chip": "ym2612"
    },
    {
      "channel": 4,
      "note": 61,
      "start": 92.2794,
      "duration": 0.1858,
      "velocity": 94,
      "chip": "ym2612"
    },
    {
      "channel": 2,
      "note": 92,
      "start": 92.4641,
      "duration": 0.0278,
      "velocity": 99,
      "chip": "ym2612"
    },
    {
      "channel": 3,
      "note": 92,
      "start": 92.4651,
      "duration": 0.0277,
      "velocity": 99,
      "chip": "ym2612"
    },
    {
      "channel": 4,
      "note": 61,
      "start": 92.4661,
      "duration": 0.0792,
      "velocity": 94,
      "chip": "ym2612"
    },
    {
      "channel": 0,
      "note": 80,
      "start": 92.5421,
      "duration": 0.0332,
      "velocity": 105,
      "chip": "ym2612"
    },
    {
      "channel": 2,
      "note": 91,
      "start": 92.5441,
      "duration": 0.0278,
      "velocity": 99,
      "chip": "ym2612"
    },
    {
      "channel": 3,
      "note": 91,
      "start": 92.5451,
      "duration": 0.0277,
      "velocity": 99,
      "chip": "ym2612"
    },
    {
      "channel": 4,
      "note": 61,
      "start": 92.546,
      "duration": 0.0549,
      "velocity": 94,
      "chip": "ym2612"
    },
    {
      "channel": 0,
      "note": 79,
      "start": 92.5978,
      "duration": 0.0329,
      "velocity": 105,
      "chip": "ym2612"
    },
    {
      "channel": 2,
      "note": 87,
      "start": 92.5998,
      "duration": 0.0276,
      "velocity": 99,
      "chip": "ym2612"
    },
    {
      "channel": 3,
      "note": 87,
      "start": 92.6008,
      "duration": 0.0274,
      "velocity": 99,
      "chip": "ym2612"
    },
    {
      "channel": 4,
      "note": 61,
      "start": 92.6017,
      "duration": 0.0786,
      "velocity": 94,
      "chip": "ym2612"
    },
    {
      "channel": 0,
      "note": 82,
      "start": 92.6773,
      "duration": 0.0995,
      "velocity": 105,
      "chip": "ym2612"
    },
    {
      "channel": 2,
      "note": 84,
      "start": 92.6793,
      "duration": 0.2606,
      "velocity": 99,
      "chip": "ym2612"
    },
    {
      "channel": 3,
      "note": 87,
      "start": 92.6803,
      "duration": 0.4978,
      "velocity": 99,
      "chip": "ym2612"
    },
    {
      "channel": 4,
      "note": 60,
      "start": 92.6812,
      "duration": 0.051,
      "velocity": 94,
      "chip": "ym2612"
    },
    {
      "channel": 4,
      "note": 60,
      "start": 92.733,
      "duration": 0.0474,
      "velocity": 94,
      "chip": "ym2612"
    },
    {
      "channel": 0,
      "note": 84,
      "start": 92.7778,
      "duration": 0.2084,
      "velocity": 105,
      "chip": "ym2612"
    },
    {
      "channel": 1,
      "note": 99,
      "start": 92.7788,
      "duration": 0.2085,
      "velocity": 99,
      "chip": "ym2612"
    },
    {
      "channel": 4,
      "note": 60,
      "start": 92.7812,
      "duration": 0.1606,
      "velocity": 94,
      "chip": "ym2612"
    },
    {
      "channel": 2,
      "note": 85,
      "start": 92.9409,
      "duration": 0.0277,
      "velocity": 99,
      "chip": "ym2612"
    },
    {
      "channel": 4,
      "note": 60,
      "start": 92.9426,
      "duration": 0.0475,
      "velocity": 94,
      "chip": "ym2612"
    },
    {
      "channel": 0,
      "note": 85,
      "start": 92.9871,
      "duration": 0.188,
      "velocity": 105,
      "chip": "ym2612"
    },
    {
      "channel": 1,
      "note": 103,
      "start": 92.9882,
      "duration": 0.188,
      "velocity": 99,
      "chip": "ym2612"
    },
    {
      "channel": 2,
      "note": 87,
      "start": 92.9893,
      "duration": 0.3178,
      "velocity": 99,
      "chip": "ym2612"
    },
    {
      "channel": 4,
      "note": 48,
      "start": 92.991,
      "duration": 0.0513,
      "velocity": 94,
      "chip": "ym2612"
    },
    {
      "channel": 4,
      "note": 48,
      "start": 93.0432,
      "duration": 0.1358,
      "velocity": 94,
      "chip": "ym2612"
    },
    {
      "channel": 0,
      "note": 87,
      "start": 93.1761,
      "duration": 0.4674,
      "velocity": 105,
      "chip": "ym2612"
    },
    {
      "channel": 1,
      "note": 101,
      "start": 93.1771,
      "duration": 0.4673,
      "velocity": 99,
      "chip": "ym2612"
    },
    {
      "channel": 3,
      "note": 89,
      "start": 93.1789,
      "duration": 0.0276,
      "velocity": 99,
      "chip": "ym2612"
    },
    {
      "channel": 4,
      "note": 53,
      "start": 93.1798,
      "duration": 0.0519,
      "velocity": 94,
      "chip": "ym2612"
    },
    {
      "channel": 3,
      "note": 91,
      "start": 93.2316,
      "duration": 0.0273,
      "velocity": 99,
      "chip": "ym2612"
    },
    {
      "channel": 4,
      "note": 53,
      "start": 93.2325,
      "duration": 0.0757,
      "velocity": 94,
      "chip": "ym2612"
    },
    {
      "channel": 2,
      "note": 90,
      "start": 93.3076,
      "duration": 0.0986,
      "velocity": 99,
      "chip": "ym2612"
    },
    {
      "channel": 3,
      "note": 87,
      "start": 93.3081,
      "duration": 0.0984,
      "velocity": 99,
      "chip": "ym2612"
    },
    {
      "channel": 4,
      "note": 53,
      "start": 93.3087,
      "duration": 0.1855,
      "velocity": 94,
      "chip": "ym2612"
    },
    {
      "channel": 2,
      "note": 89,
      "start": 93.4931,
      "duration": 0.0282,
      "velocity": 99,
      "chip": "ym2612"
    },
    {
      "channel": 3,
      "note": 84,
      "start": 93.4941,
      "duration": 0.0281,
      "velocity": 99,
      "chip": "ym2612"
    },
    {
      "channel": 4,
      "note": 53,
      "start": 93.495,
      "duration": 0.0482,
      "velocity": 94,
      "chip": "ym2612"
    },
    {
      "channel": 2,
      "note": 87,
      "start": 93.5422,
      "duration": 0.0288,
      "velocity": 99,
      "chip": "ym2612"
    },
    {
      "channel": 3,
      "note": 81,
      "start": 93.5431,
      "duration": 0.0288,
      "velocity": 99,
      "chip": "ym2612"
    },
    {
      "channel": 4,
      "note": 53,
      "start": 93.544,
      "duration": 0.0543,
      "velocity": 94,
      "chip": "ym2612"
    },
    {
      "channel": 2,
      "note": 89,
      "start": 93.5972,
      "duration": 0.028,
      "velocity": 99,
      "chip": "ym2612"
    },
    {
      "channel": 3,
      "note": 84,
      "start": 93.5982,
      "duration": 0.028,
      "velocity": 99,
      "chip": "ym2612"
    },
    {
      "channel": 4,
      "note": 53,
      "start": 93.5992,
      "duration": 0.0484,
      "velocity": 94,
      "chip": "ym2612"
    },
    {
      "channel": 0,
      "note": 90,
      "start": 93.6443,
      "duration": 0.0335,
      "velocity": 105,
      "chip": "ym2612"
    },
    {
      "channel": 1,
      "note": 102,
      "start": 93.6454,
      "duration": 0.0282,
      "velocity": 99,
      "chip": "ym2612"
    },
    {
      "channel": 2,
      "note": 90,
      "start": 93.6465,
      "duration": 0.0279,
      "velocity": 99,
      "chip": "ym2612"
    },
    {
      "channel": 3,
      "note": 87,
      "start": 93.6474,
      "duration": 0.028,
      "velocity": 99,
      "chip": "ym2612"
    },
    {
      "channel": 4,
      "note": 57,
      "start": 93.6484,
      "duration": 0.0546,
      "velocity": 94,
      "chip": "ym2612"
    },
    {
      "channel": 0,
      "note": 89,
      "start": 93.6998,
      "duration": 0.0835,
      "velocity": 105,
      "chip": "ym2612"
    },
    {
      "channel": 1,
      "note": 101,
      "start": 93.7009,
      "duration": 0.0662,
      "velocity": 99,
      "chip": "ym2612"
    },
    {
      "channel": 2,
      "note": 89,
      "start": 93.702,
      "duration": 0.0655,
      "velocity": 99,
      "chip": "ym2612"
    },
    {
      "channel": 3,
      "note": 84,
      "start": 93.7029,
      "duration": 0.0648,
      "velocity": 99,
      "chip": "ym2612"
    },
    {
      "channel": 4,
      "note": 57,
      "start": 93.7038,
      "duration": 0.1361,
      "velocity": 94,
      "chip": "ym2612"
    },
    {
      "channel": 0,
      "note": 87,
      "start": 93.8366,
      "duration": 0.2016,
      "velocity": 105,
      "chip": "ym2612"
    },
    {
      "channel": 1,
      "note": 99,
      "start": 93.8377,
      "duration": 0.0285,
      "velocity": 99,
      "chip": "ym2612"
    },
    {
      "channel": 2,
      "note": 87,
      "start": 93.8389,
      "duration": 0.0281,
      "velocity": 99,
      "chip": "ym2612"
    },
    {
      "channel": 3,
      "note": 81,
      "start": 93.8399,
      "duration": 0.0281,
      "velocity": 99,
      "chip": "ym2612"
    },
    {
      "channel": 4,
      "note": 57,
      "start": 93.8409,
      "duration": 0.0534,
      "velocity": 94,
      "chip": "ym2612"
    },
    {
      "channel": 1,
      "note": 96,
      "start": 93.892,
      "duration": 0.0779,
      "velocity": 99,
      "chip": "ym2612"
    },
    {
      "channel": 2,
      "note": 84,
      "start": 93.8932,
      "duration": 0.0771,
      "velocity": 99,
      "chip": "ym2612"
    },
    {
      "channel": 3,
      "note": 81,
      "start": 93.8942,
      "duration": 0.0765,
      "velocity": 99,
      "chip": "ym2612"
    },
    {
      "channel": 4,
      "note": 57,
      "start": 93.8951,
      "duration": 0.1449,
      "velocity": 94,
      "chip": "ym2612"
    },
    {
      "channel": 0,
      "note": 87,
      "start": 94.0385,
      "duration": 0.348,
      "velocity": 105,
      "chip": "ym2612"
    },
    {
      "channel": 1,
      "note": 97,
      "start": 94.039,
      "duration": 0.5572,
      "velocity": 99,
      "chip": "ym2612"
    },
    {
      "channel": 2,
      "note": 89,
      "start": 94.0394,
      "duration": 0.6673,
      "velocity": 99,
      "chip": "ym2612"
    },
    {
      "channel": 3,
      "note": 85,
      "start": 94.04,
      "duration": 0.6672,
      "velocity": 99,
      "chip": "ym2612"
    },
    {
      "channel": 4,
      "note": 58,
      "start": 94.0419,
      "duration": 0.6657,
      "velocity": 99,
      "chip": "ym2612"
    },
    {
      "channel": 0,
      "note": 89,
      "start": 94.387,
      "duration": 0.0446,
      "velocity": 105,
      "chip": "ym2612"
    },
    {
      "channel": 0,
      "note": 80,
      "start": 94.4517,
      "duration": 0.1441,
      "velocity": 105,
      "chip": "ym2612"
    },
    {
      "channel": 0,
      "note": 85,
      "start": 94.5961,
      "duration": 0.11,
      "velocity": 105,
      "chip": "ym2612"
    },
    {
      "channel": 1,
      "note": 97,
      "start": 94.5965,
      "duration": 0.0634,
      "velocity": 99,
      "chip": "ym2612"
    },
    {
      "channel": 1,
      "note": 100,
      "start": 94.6609,
      "duration": 0.3627,
      "velocity": 99,
      "chip": "ym2612"
    },
    {
      "channel": 0,
      "note": 84,
      "start": 94.7064,
      "duration": 0.1084,
      "velocity": 105,
      "chip": "ym2612"
    },
    {
      "channel": 2,
      "note": 88,
      "start": 94.7071,
      "duration": 0.4165,
      "velocity": 99,
      "chip": "ym2612"
    },
    {
      "channel": 3,
      "note": 85,
      "start": 94.7076,
      "duration": 0.4172,
      "velocity": 99,
      "chip": "ym2612"
    },
    {
      "channel": 4,
      "note": 63,
      "start": 94.7082,
      "duration": 0.4175,
      "velocity": 99,
      "chip": "ym2612"
    },
    {
      "channel": 0,
      "note": 82,
      "start": 94.8157,
      "duration": 0.097,
      "velocity": 105,
      "chip": "ym2612"
    },
    {
      "channel": 0,
      "note": 80,
      "start": 94.9129,
      "duration": 0.1096,
      "velocity": 105,
      "chip": "ym2612"
    },
    {
      "channel": 0,
      "note": 79,
      "start": 95.0235,
      "duration": 0.0982,
      "velocity": 105,
      "chip": "ym2612"
    },
    {
      "channel": 1,
      "note": 100,
      "start": 95.0245,
      "duration": 0.051,
      "velocity": 99,
      "chip": "ym2612"
    },
    {
      "channel": 1,
      "note": 104,
      "start": 95.0765,
      "duration": 9.7435,
      "velocity": 99,
      "chip": "ym2612"
    },
    {
      "channel": 0,
      "note": 92,
      "start": 95.1227,
      "duration": 10.0483,
      "velocity": 105,
      "chip": "ym2612"
    },
    {
      "channel": 2,
      "note": 87,
      "start": 95.1246,
      "duration": 1.6459,
      "velocity": 99,
      "chip": "ym2612"
    },
    {
      "channel": 3,
      "note": 85,
      "start": 95.1255,
      "duration": 0.3908,
      "velocity": 99,
      "chip": "ym2612"
    },
    {
      "channel": 4,
      "note": 56,
      "start": 95.1265,
      "duration": 10.0461,
      "velocity": 99,
      "chip": "ym2612"
    },
    {
      "channel": 3,
      "note": 84,
      "start": 95.5171,
      "duration": 0.5535,
      "velocity": 99,
      "chip": "ym2612"
    },
    {
      "channel": 3,
      "note": 90,
      "start": 96.0711,
      "duration": 0.7,
      "velocity": 99,
      "chip": "ym2612"
    },
    {
      "channel": 2,
      "note": 89,
      "start": 96.771,
      "duration": 1.3996,
      "velocity": 99,
      "chip": "ym2612"
    },
    {
      "channel": 3,
      "note": 85,
      "start": 96.7715,
      "duration": 1.3995,
      "velocity": 99,
      "chip": "ym2612"
    },
    {
      "channel": 2,
      "note": 88,
      "start": 98.171,
      "duration": 1.3996,
      "velocity": 99,
      "chip": "ym2612"
    },
    {
      "channel": 3,
      "note": 82,
      "start": 98.1715,
      "duration": 1.3995,
      "velocity": 99,
      "chip": "ym2612"
    },
    {
      "channel": 2,
      "note": 87,
      "start": 99.571,
      "duration": 2.7996,
      "velocity": 99,
      "chip": "ym2612"
    },
    {
      "channel": 3,
      "note": 84,
      "start": 99.5715,
      "duration": 2.099,
      "velocity": 99,
      "chip": "ym2612"
    },
    {
      "channel": 3,
      "note": 90,
      "start": 101.6711,
      "duration": 0.7,
      "velocity": 99,
      "chip": "ym2612"
    },
    {
      "channel": 2,
      "note": 89,
      "start": 102.371,
      "duration": 1.3996,
      "velocity": 99,
      "chip": "ym2612"
    },
    {
      "channel": 3,
      "note": 85,
      "start": 102.3715,
      "duration": 1.3996,
      "velocity": 99,
      "chip": "ym2612"
    },
    {
      "channel": 2,
      "note": 88,
      "start": 103.7711,
      "duration": 1.4005,
      "velocity": 99,
      "chip": "ym2612"
    },
    {
      "channel": 3,
      "note": 82,
      "start": 103.7716,
      "duration": 1.4004,
      "velocity": 99,
      "chip": "ym2612"
    },
    {
      "channel": 1,
      "note": 104,
      "start": 104.8203,
      "duration": 11.1997,
      "velocity": 99,
      "chip": "ym2612"
    },
    {
      "channel": 0,
      "note": 92,
      "start": 105.1712,
      "duration": 11.1995,
      "velocity": 105,
      "chip": "ym2612"
    },
    {
      "channel": 2,
      "note": 87,
      "start": 105.172,
      "duration": 2.7987,
      "velocity": 99,
      "chip": "ym2612"
    },
    {
      "channel": 3,
      "note": 85,
      "start": 105.1725,
      "duration": 1.3981,
      "velocity": 99,
      "chip": "ym2612"
    },
    {
      "channel": 4,
      "note": 56,
      "start": 105.173,
      "duration": 11.1994,
      "velocity": 99,
      "chip": "ym2612"
    },
    {
      "channel": 3,
      "note": 84,
      "start": 106.5711,
      "duration": 0.6995,
      "velocity": 99,
      "chip": "ym2612"
    },
    {
      "channel": 3,
      "note": 90,
      "start": 107.2711,
      "duration": 0.7,
      "velocity": 99,
      "chip": "ym2612"
    },
    {
      "channel": 2,
      "note": 89,
      "start": 107.971,
      "duration": 1.3996,
      "velocity": 99,
      "chip": "ym2612"
    },
    {
      "channel": 3,
      "note": 85,
      "start": 107.9715,
      "duration": 1.3995,
      "velocity": 99,
      "chip": "ym2612"
    },
    {
      "channel": 2,
      "note": 88,
      "start": 109.371,
      "duration": 1.3996,
      "velocity": 99,
      "chip": "ym2612"
    },
    {
      "channel": 3,
      "note": 82,
      "start": 109.3715,
      "duration": 1.3995,
      "velocity": 99,
      "chip": "ym2612"
    },
    {
      "channel": 2,
      "note": 87,
      "start": 110.771,
      "duration": 2.7996,
      "velocity": 99,
      "chip": "ym2612"
    },
    {
      "channel": 3,
      "note": 84,
      "start": 110.7715,
      "duration": 2.0991,
      "velocity": 99,
      "chip": "ym2612"
    },
    {
      "channel": 3,
      "note": 90,
      "start": 112.8711,
      "duration": 0.7,
      "velocity": 99,
      "chip": "ym2612"
    },
    {
      "channel": 2,
      "note": 89,
      "start": 113.571,
      "duration": 1.3997,
      "velocity": 99,
      "chip": "ym2612"
    },
    {
      "channel": 3,
      "note": 85,
      "start": 113.5715,
      "duration": 1.3997,
      "velocity": 99,
      "chip": "ym2612"
    },
    {
      "channel": 2,
      "note": 88,
      "start": 114.9712,
      "duration": 1.4002,
      "velocity": 99,
      "chip": "ym2612"
    },
    {
      "channel": 3,
      "note": 82,
      "start": 114.9717,
      "duration": 1.4003,
      "velocity": 99,
      "chip": "ym2612"
    },
    {
      "channel": 1,
      "note": 104,
      "start": 116.0203,
      "duration": 11.1994,
      "velocity": 99,
      "chip": "ym2612"
    },
    {
      "channel": 0,
      "note": 92,
      "start": 116.3711,
      "duration": 11.1986,
      "velocity": 105,
      "chip": "ym2612"
    },
    {
      "channel": 2,
      "note": 87,
      "start": 116.3719,
      "duration": 2.7988,
      "velocity": 99,
      "chip": "ym2612"
    },
    {
      "channel": 3,
      "note": 85,
      "start": 116.3724,
      "duration": 1.3983,
      "velocity": 99,
      "chip": "ym2612"
    },
    {
      "channel": 4,
      "note": 56,
      "start": 116.3729,
      "duration": 11.1983,
      "velocity": 99,
      "chip": "ym2612"
    },
    {
      "channel": 3,
      "note": 84,
      "start": 117.7711,
      "duration": 0.6995,
      "velocity": 99,
      "chip": "ym2612"
    },
    {
      "channel": 3,
      "note": 90,
      "start": 118.4711,
      "duration": 0.7,
      "velocity": 99,
      "chip": "ym2612"
    },
    {
      "channel": 2,
      "note": 89,
      "start": 119.171,
      "duration": 1.3996,
      "velocity": 99,
      "chip": "ym2612"
    },
    {
      "channel": 3,
      "note": 85,
      "start": 119.1715,
      "duration": 1.3995,
      "velocity": 99,
      "chip": "ym2612"
    },
    {
      "channel": 2,
      "note": 88,
      "start": 120.571,
      "duration": 1.3996,
      "velocity": 99,
      "chip": "ym2612"
    },
    {
      "channel": 3,
      "note": 82,
      "start": 120.5715,
      "duration": 1.3995,
      "velocity": 99,
      "chip": "ym2612"
    },
    {
      "channel": 2,
      "note": 87,
      "start": 121.971,
      "duration": 2.7996,
      "velocity": 99,
      "chip": "ym2612"
    },
    {
      "channel": 3,
      "note": 84,
      "start": 121.9715,
      "duration": 2.0991,
      "velocity": 99,
      "chip": "ym2612"
    },
    {
      "channel": 3,
      "note": 90,
      "start": 124.0711,
      "duration": 0.7,
      "velocity": 99,
      "chip": "ym2612"
    },
    {
      "channel": 2,
      "note": 89,
      "start": 124.771,
      "duration": 1.3996,
      "velocity": 99,
      "chip": "ym2612"
    },
    {
      "channel": 3,
      "note": 85,
      "start": 124.7715,
      "duration": 1.3996,
      "velocity": 99,
      "chip": "ym2612"
    },
    {
      "channel": 2,
      "note": 88,
      "start": 126.1711,
      "duration": 1.3993,
      "velocity": 99,
      "chip": "ym2612"
    },
    {
      "channel": 3,
      "note": 82,
      "start": 126.1716,
      "duration": 1.3992,
      "velocity": 99,
      "chip": "ym2612"
    }
  ]
}