{
  "track_name": "08 - Stage Epilogue",
  "duration_sec": 43.225,
  "sample_rate": 44100,
  "note_count": 802,
  "unique_pitches": 35,
  "pitch_range": 77,
  "avg_note_duration": 0.2783,
  "reconstruction_stats": {
    "notes_reconstructed": 802,
    "keyon_events": 802,
    "keyoff_events": 797,
    "orphan_keyons": 5,
    "unique_pitches": 35,
    "pitch_range": 77,
    "avg_duration_sec": 0.2783
  },
  "metadata": {
    "source": "G\\Ghostbusters\\08 - Stage Epilogue.vgz"
  },
  "notes": [
    {
      "channel": 0,
      "note": 88,
      "start": 0.0,
      "duration": 1.7693,
      "velocity": 94,
      "chip": "ym2612"
    },
    {
      "channel": 1,
      "note": 45,
      "start": 0.0034,
      "duration": 0.206,
      "velocity": 93,
      "chip": "ym2612"
    },
    {
      "channel": 3,
      "note": 68,
      "start": 0.0068,
      "duration": 0.2034,
      "velocity": 95,
      "chip": "ym2612"
    },
    {
      "channel": 4,
      "note": 73,
      "start": 0.0104,
      "duration": 0.2006,
      "velocity": 95,
      "chip": "ym2612"
    },
    {
      "channel": 2,
      "note": 26,
      "start": 0.0124,
      "duration": 0.0492,
      "velocity": 120,
      "chip": "ym2612"
    },
    {
      "channel": 1,
      "note": 52,
      "start": 0.2101,
      "duration": 0.2271,
      "velocity": 93,
      "chip": "ym2612"
    },
    {
      "channel": 3,
      "note": 68,
      "start": 0.2107,
      "duration": 0.2272,
      "velocity": 95,
      "chip": "ym2612"
    },
    {
      "channel": 4,
      "note": 73,
      "start": 0.2114,
      "duration": 0.2272,
      "velocity": 95,
      "chip": "ym2612"
    },
    {
      "channel": 5,
      "note": 88,
      "start": 0.215,
      "duration": 1.7844,
      "velocity": 94,
      "chip": "ym2612"
    },
    {
      "channel": 2,
      "note": 103,
      "start": 0.2167,
      "duration": 0.1377,
      "velocity": 103,
      "chip": "ym2612"
    },
    {
      "channel": 1,
      "note": 45,
      "start": 0.4378,
      "duration": 0.2268,
      "velocity": 93,
      "chip": "ym2612"
    },
    {
      "channel": 3,
      "note": 68,
      "start": 0.4385,
      "duration": 0.2269,
      "velocity": 95,
      "chip": "ym2612"
    },
    {
      "channel": 4,
      "note": 73,
      "start": 0.4391,
      "duration": 0.2269,
      "velocity": 95,
      "chip": "ym2612"
    },
    {
      "channel": 2,
      "note": 56,
      "start": 0.4412,
      "duration": 0.1083,
      "velocity": 112,
      "chip": "ym2612"
    },
    {
      "channel": 1,
      "note": 50,
      "start": 0.6653,
      "duration": 0.2106,
      "velocity": 93,
      "chip": "ym2612"
    },
    {
      "channel": 3,
      "note": 68,
      "start": 0.6659,
      "duration": 0.2107,
      "velocity": 95,
      "chip": "ym2612"
    },
    {
      "channel": 4,
      "note": 73,
      "start": 0.6665,
      "duration": 0.2107,
      "velocity": 95,
      "chip": "ym2612"
    },
    {
      "channel": 2,
      "note": 26,
      "start": 0.6686,
      "duration": 0.0597,
      "velocity": 120,
      "chip": "ym2612"
    },
    {
      "channel": 1,
      "note": 45,
      "start": 0.8765,
      "duration": 0.2241,
      "velocity": 93,
      "chip": "ym2612"
    },
    {
      "channel": 3,
      "note": 68,
      "start": 0.8771,
      "duration": 0.11,
      "velocity": 95,
      "chip": "ym2612"
    },
    {
      "channel": 4,
      "note": 73,
      "start": 0.8778,
      "duration": 0.1101,
      "velocity": 95,
      "chip": "ym2612"
    },
    {
      "channel": 2,
      "note": 26,
      "start": 0.88,
      "duration": 0.0757,
      "velocity": 120,
      "chip": "ym2612"
    },
    {
      "channel": 3,
      "note": 68,
      "start": 0.9877,
      "duration": 0.3436,
      "velocity": 95,
      "chip": "ym2612"
    },
    {
      "channel": 4,
      "note": 73,
      "start": 0.9883,
      "duration": 0.3436,
      "velocity": 95,
      "chip": "ym2612"
    },
    {
      "channel": 1,
      "note": 52,
      "start": 1.1013,
      "duration": 0.1131,
      "velocity": 93,
      "chip": "ym2612"
    },
    {
      "channel": 1,
      "note": 45,
      "start": 1.215,
      "duration": 0.3272,
      "velocity": 93,
      "chip": "ym2612"
    },
    {
      "channel": 3,
      "note": 68,
      "start": 1.3318,
      "duration": 0.2112,
      "velocity": 95,
      "chip": "ym2612"
    },
    {
      "channel": 4,
      "note": 73,
      "start": 1.3324,
      "duration": 0.2112,
      "velocity": 95,
      "chip": "ym2612"
    },
    {
      "channel": 2,
      "note": 56,
      "start": 1.3345,
      "duration": 0.1089,
      "velocity": 112,
      "chip": "ym2612"
    },
    {
      "channel": 1,
      "note": 50,
      "start": 1.5429,
      "duration": 0.227,
      "velocity": 93,
      "chip": "ym2612"
    },
    {
      "channel": 3,
      "note": 68,
      "start": 1.5435,
      "duration": 0.2271,
      "velocity": 95,
      "chip": "ym2612"
    },
    {
      "channel": 4,
      "note": 73,
      "start": 1.5441,
      "duration": 0.2273,
      "velocity": 95,
      "chip": "ym2612"
    },
    {
      "channel": 2,
      "note": 103,
      "start": 1.5462,
      "duration": 0.1571,
      "velocity": 103,
      "chip": "ym2612"
    },
    {
      "channel": 1,
      "note": 45,
      "start": 1.7705,
      "duration": 0.2273,
      "velocity": 93,
      "chip": "ym2612"
    },
    {
      "channel": 3,
      "note": 64,
      "start": 1.7713,
      "duration": 0.893,
      "velocity": 95,
      "chip": "ym2612"
    },
    {
      "channel": 4,
      "note": 73,
      "start": 1.7719,
      "duration": 0.8929,
      "velocity": 95,
      "chip": "ym2612"
    },
    {
      "channel": 2,
      "note": 26,
      "start": 1.774,
      "duration": 0.0754,
      "velocity": 120,
      "chip": "ym2612"
    },
    {
      "channel": 0,
      "note": 92,
      "start": 1.9976,
      "duration": 0.438,
      "velocity": 94,
      "chip": "ym2612"
    },
    {
      "channel": 1,
      "note": 52,
      "start": 1.9984,
      "duration": 0.2263,
      "velocity": 93,
      "chip": "ym2612"
    },
    {
      "channel": 2,
      "note": 26,
      "start": 2.0014,
      "duration": 0.0592,
      "velocity": 120,
      "chip": "ym2612"
    },
    {
      "channel": 1,
      "note": 45,
      "start": 2.2253,
      "duration": 0.2112,
      "velocity": 93,
      "chip": "ym2612"
    },
    {
      "channel": 5,
      "note": 92,
      "start": 2.2268,
      "duration": 0.4385,
      "velocity": 94,
      "chip": "ym2612"
    },
    {
      "channel": 2,
      "note": 56,
      "start": 2.2285,
      "duration": 0.0924,
      "velocity": 112,
      "chip": "ym2612"
    },
    {
      "channel": 0,
      "note": 88,
      "start": 2.4363,
      "duration": 0.4545,
      "velocity": 94,
      "chip": "ym2612"
    },
    {
      "channel": 1,
      "note": 50,
      "start": 2.4371,
      "duration": 0.2264,
      "velocity": 93,
      "chip": "ym2612"
    },
    {
      "channel": 2,
      "note": 26,
      "start": 2.4398,
      "duration": 0.0761,
      "velocity": 120,
      "chip": "ym2612"
    },
    {
      "channel": 1,
      "note": 45,
      "start": 2.6642,
      "duration": 0.2274,
      "velocity": 93,
      "chip": "ym2612"
    },
    {
      "channel": 5,
      "note": 88,
      "start": 2.666,
      "duration": 0.4373,
      "velocity": 94,
      "chip": "ym2612"
    },
    {
      "channel": 2,
      "note": 26,
      "start": 2.6676,
      "duration": 0.0754,
      "velocity": 120,
      "chip": "ym2612"
    },
    {
      "channel": 3,
      "note": 64,
      "start": 2.7756,
      "duration": 0.6655,
      "velocity": 95,
      "chip": "ym2612"
    },
    {
      "channel": 4,
      "note": 73,
      "start": 2.7764,
      "duration": 0.6652,
      "velocity": 95,
      "chip": "ym2612"
    },
    {
      "channel": 0,
      "note": 85,
      "start": 2.8914,
      "duration": 0.4354,
      "velocity": 94,
      "chip": "ym2612"
    },
    {
      "channel": 1,
      "note": 52,
      "start": 2.8922,
      "duration": 0.1098,
      "velocity": 93,
      "chip": "ym2612"
    },
    {
      "channel": 2,
      "note": 103,
      "start": 2.895,
      "duration": 0.141,
      "velocity": 103,
      "chip": "ym2612"
    },
    {
      "channel": 1,
      "note": 45,
      "start": 3.0027,
      "duration": 0.3249,
      "velocity": 93,
      "chip": "ym2612"
    },
    {
      "channel": 5,
      "note": 85,
      "start": 3.1039,
      "duration": 0.4564,
      "velocity": 94,
      "chip": "ym2612"
    },
    {
      "channel": 2,
      "note": 56,
      "start": 3.1056,
      "duration": 0.1092,
      "velocity": 112,
      "chip": "ym2612"
    },
    {
      "channel": 0,
      "note": 83,
      "start": 3.3275,
      "duration": 0.2297,
      "velocity": 94,
      "chip": "ym2612"
    },
    {
      "channel": 1,
      "note": 50,
      "start": 3.3283,
      "duration": 0.2296,
      "velocity": 93,
      "chip": "ym2612"
    },
    {
      "channel": 0,
      "note": 85,
      "start": 3.5578,
      "duration": 0.6655,
      "velocity": 94,
      "chip": "ym2612"
    },
    {
      "channel": 1,
      "note": 47,
      "start": 3.5586,
      "duration": 0.2263,
      "velocity": 93,
      "chip": "ym2612"
    },
    {
      "channel": 3,
      "note": 69,
      "start": 3.5594,
      "duration": 0.2262,
      "velocity": 95,
      "chip": "ym2612"
    },
    {
      "channel": 4,
      "note": 74,
      "start": 3.5602,
      "duration": 0.2261,
      "velocity": 95,
      "chip": "ym2612"
    },
    {
      "channel": 5,
      "note": 83,
      "start": 3.5611,
      "duration": 0.2259,
      "velocity": 94,
      "chip": "ym2612"
    },
    {
      "channel": 2,
      "note": 26,
      "start": 3.5627,
      "duration": 0.0582,
      "velocity": 120,
      "chip": "ym2612"
    },
    {
      "channel": 1,
      "note": 54,
      "start": 3.7855,
      "duration": 0.2107,
      "velocity": 93,
      "chip": "ym2612"
    },
    {
      "channel": 3,
      "note": 69,
      "start": 3.7861,
      "duration": 0.2109,
      "velocity": 95,
      "chip": "ym2612"
    },
    {
      "channel": 4,
      "note": 74,
      "start": 3.7868,
      "duration": 0.2109,
      "velocity": 95,
      "chip": "ym2612"
    },
    {
      "channel": 5,
      "note": 85,
      "start": 3.7876,
      "duration": 0.6656,
      "velocity": 94,
      "chip": "ym2612"
    },
    {
      "channel": 2,
      "note": 103,
      "start": 3.7894,
      "duration": 0.1403,
      "velocity": 103,
      "chip": "ym2612"
    },
    {
      "channel": 1,
      "note": 47,
      "start": 3.9969,
      "duration": 0.2272,
      "velocity": 93,
      "chip": "ym2612"
    },
    {
      "channel": 3,
      "note": 69,
      "start": 3.9976,
      "duration": 0.2274,
      "velocity": 95,
      "chip": "ym2612"
    },
    {
      "channel": 4,
      "note": 74,
      "start": 3.9982,
      "duration": 0.2274,
      "velocity": 95,
      "chip": "ym2612"
    },
    {
      "channel": 2,
      "note": 56,
      "start": 4.0003,
      "duration": 0.1083,
      "velocity": 112,
      "chip": "ym2612"
    },
    {
      "channel": 0,
      "note": 83,
      "start": 4.224,
      "duration": 0.8931,
      "velocity": 94,
      "chip": "ym2612"
    },
    {
      "channel": 1,
      "note": 52,
      "start": 4.2248,
      "duration": 0.2263,
      "velocity": 93,
      "chip": "ym2612"
    },
    {
      "channel": 3,
      "note": 69,
      "start": 4.2255,
      "duration": 0.2264,
      "velocity": 95,
      "chip": "ym2612"
    },
    {
      "channel": 4,
      "note": 74,
      "start": 4.2261,
      "duration": 0.2265,
      "velocity": 95,
      "chip": "ym2612"
    },
    {
      "channel": 2,
      "note": 26,
      "start": 4.2281,
      "duration": 0.0754,
      "velocity": 120,
      "chip": "ym2612"
    },
    {
      "channel": 1,
      "note": 47,
      "start": 4.4518,
      "duration": 0.208,
      "velocity": 93,
      "chip": "ym2612"
    },
    {
      "channel": 3,
      "note": 69,
      "start": 4.4524,
      "duration": 0.1102,
      "velocity": 95,
      "chip": "ym2612"
    },
    {
      "channel": 4,
      "note": 74,
      "start": 4.4531,
      "duration": 0.1102,
      "velocity": 95,
      "chip": "ym2612"
    },
    {
      "channel": 5,
      "note": 83,
      "start": 4.4539,
      "duration": 0.8939,
      "velocity": 94,
      "chip": "ym2612"
    },
    {
      "channel": 2,
      "note": 26,
      "start": 4.4556,
      "duration": 0.0592,
      "velocity": 120,
      "chip": "ym2612"
    },
    {
      "channel": 3,
      "note": 69,
      "start": 4.5632,
      "duration": 0.3272,
      "velocity": 95,
      "chip": "ym2612"
    },
    {
      "channel": 4,
      "note": 74,
      "start": 4.5639,
      "duration": 0.3271,
      "velocity": 95,
      "chip": "ym2612"
    },
    {
      "channel": 1,
      "note": 54,
      "start": 4.6604,
      "duration": 0.1131,
      "velocity": 93,
      "chip": "ym2612"
    },
    {
      "channel": 1,
      "note": 47,
      "start": 4.7741,
      "duration": 0.3438,
      "velocity": 93,
      "chip": "ym2612"
    },
    {
      "channel": 3,
      "note": 69,
      "start": 4.8908,
      "duration": 0.228,
      "velocity": 95,
      "chip": "ym2612"
    },
    {
      "channel": 4,
      "note": 74,
      "start": 4.8915,
      "duration": 0.228,
      "velocity": 95,
      "chip": "ym2612"
    },
    {
      "channel": 2,
      "note": 56,
      "start": 4.8936,
      "duration": 0.109,
      "velocity": 112,
      "chip": "ym2612"
    },
    {
      "channel": 0,
      "note": 81,
      "start": 5.1179,
      "duration": 0.2268,
      "velocity": 94,
      "chip": "ym2612"
    },
    {
      "channel": 1,
      "note": 52,
      "start": 5.1187,
      "duration": 0.2268,
      "velocity": 93,
      "chip": "ym2612"
    },
    {
      "channel": 3,
      "note": 69,
      "start": 5.1193,
      "duration": 0.227,
      "velocity": 95,
      "chip": "ym2612"
    },
    {
      "channel": 4,
      "note": 74,
      "start": 5.12,
      "duration": 0.2272,
      "velocity": 95,
      "chip": "ym2612"
    },
    {
      "channel": 2,
      "note": 103,
      "start": 5.1221,
      "duration": 0.1402,
      "velocity": 103,
      "chip": "ym2612"
    },
    {
      "channel": 0,
      "note": 83,
      "start": 5.3454,
      "duration": 0.2106,
      "velocity": 94,
      "chip": "ym2612"
    },
    {
      "channel": 1,
      "note": 47,
      "start": 5.3462,
      "duration": 0.2106,
      "velocity": 93,
      "chip": "ym2612"
    },
    {
      "channel": 3,
      "note": 66,
      "start": 5.3471,
      "duration": 0.8768,
      "velocity": 95,
      "chip": "ym2612"
    },
    {
      "channel": 4,
      "note": 74,
      "start": 5.3477,
      "duration": 0.8766,
      "velocity": 95,
      "chip": "ym2612"
    },
    {
      "channel": 5,
      "note": 81,
      "start": 5.3485,
      "duration": 0.2097,
      "velocity": 94,
      "chip": "ym2612"
    },
    {
      "channel": 2,
      "note": 26,
      "start": 5.3502,
      "duration": 0.0583,
      "velocity": 120,
      "chip": "ym2612"
    },
    {
      "channel": 0,
      "note": 85,
      "start": 5.5567,
      "duration": 0.2268,
      "velocity": 94,
      "chip": "ym2612"
    },
    {
      "channel": 1,
      "note": 54,
      "start": 5.5574,
      "duration": 0.2269,
      "velocity": 93,
      "chip": "ym2612"
    },
    {
      "channel": 5,
      "note": 83,
      "start": 5.559,
      "duration": 0.2268,
      "velocity": 94,
      "chip": "ym2612"
    },
    {
      "channel": 2,
      "note": 26,
      "start": 5.5606,
      "duration": 0.0754,
      "velocity": 120,
      "chip": "ym2612"
    },
    {
      "channel": 0,
      "note": 83,
      "start": 5.7842,
      "duration": 0.438,
      "velocity": 94,
      "chip": "ym2612"
    },
    {
      "channel": 1,
      "note": 47,
      "start": 5.785,
      "duration": 0.2263,
      "velocity": 93,
      "chip": "ym2612"
    },
    {
      "channel": 5,
      "note": 85,
      "start": 5.7864,
      "duration": 0.2263,
      "velocity": 94,
      "chip": "ym2612"
    },
    {
      "channel": 2,
      "note": 56,
      "start": 5.7882,
      "duration": 0.108,
      "velocity": 112,
      "chip": "ym2612"
    },
    {
      "channel": 1,
      "note": 52,
      "start": 6.012,
      "duration": 0.2111,
      "velocity": 93,
      "chip": "ym2612"
    },
    {
      "channel": 5,
      "note": 83,
      "start": 6.0135,
      "duration": 0.4382,
      "velocity": 94,
      "chip": "ym2612"
    },
    {
      "channel": 2,
      "note": 26,
      "start": 6.0151,
      "duration": 0.0598,
      "velocity": 120,
      "chip": "ym2612"
    },
    {
      "channel": 0,
      "note": 83,
      "start": 6.2229,
      "duration": 0.4545,
      "velocity": 94,
      "chip": "ym2612"
    },
    {
      "channel": 1,
      "note": 47,
      "start": 6.2237,
      "duration": 0.2264,
      "velocity": 93,
      "chip": "ym2612"
    },
    {
      "channel": 2,
      "note": 26,
      "start": 6.2266,
      "duration": 0.0754,
      "velocity": 120,
      "chip": "ym2612"
    },
    {
      "channel": 3,
      "note": 66,
      "start": 6.3346,
      "duration": 0.6656,
      "velocity": 95,
      "chip": "ym2612"
    },
    {
      "channel": 4,
      "note": 74,
      "start": 6.3354,
      "duration": 0.6653,
      "velocity": 95,
      "chip": "ym2612"
    },
    {
      "channel": 1,
      "note": 54,
      "start": 6.4508,
      "duration": 0.1104,
      "velocity": 93,
      "chip": "ym2612"
    },
    {
      "channel": 5,
      "note": 83,
      "start": 6.4523,
      "duration": 0.4516,
      "velocity": 94,
      "chip": "ym2612"
    },
    {
      "channel": 2,
      "note": 103,
      "start": 6.454,
      "duration": 0.141,
      "velocity": 103,
      "chip": "ym2612"
    },
    {
      "channel": 1,
      "note": 47,
      "start": 6.5619,
      "duration": 0.3406,
      "velocity": 93,
      "chip": "ym2612"
    },
    {
      "channel": 0,
      "note": 85,
      "start": 6.678,
      "duration": 0.4382,
      "velocity": 94,
      "chip": "ym2612"
    },
    {
      "channel": 2,
      "note": 56,
      "start": 6.6811,
      "duration": 0.109,
      "velocity": 112,
      "chip": "ym2612"
    },
    {
      "channel": 1,
      "note": 52,
      "start": 6.9031,
      "duration": 0.2139,
      "velocity": 93,
      "chip": "ym2612"
    },
    {
      "channel": 5,
      "note": 85,
      "start": 6.9046,
      "duration": 0.4415,
      "velocity": 94,
      "chip": "ym2612"
    },
    {
      "channel": 0,
      "note": 85,
      "start": 7.1169,
      "duration": 0.6656,
      "velocity": 94,
      "chip": "ym2612"
    },
    {
      "channel": 1,
      "note": 49,
      "start": 7.1177,
      "duration": 0.2263,
      "velocity": 93,
      "chip": "ym2612"
    },
    {
      "channel": 3,
      "note": 71,
      "start": 7.1185,
      "duration": 0.2262,
      "velocity": 95,
      "chip": "ym2612"
    },
    {
      "channel": 4,
      "note": 76,
      "start": 7.1193,
      "duration": 0.2261,
      "velocity": 95,
      "chip": "ym2612"
    },
    {
      "channel": 2,
      "note": 26,
      "start": 7.1214,
      "duration": 0.0749,
      "velocity": 120,
      "chip": "ym2612"
    },
    {
      "channel": 1,
      "note": 56,
      "start": 7.3446,
      "duration": 0.2269,
      "velocity": 93,
      "chip": "ym2612"
    },
    {
      "channel": 3,
      "note": 71,
      "start": 7.3452,
      "duration": 0.227,
      "velocity": 95,
      "chip": "ym2612"
    },
    {
      "channel": 4,
      "note": 76,
      "start": 7.3459,
      "duration": 0.227,
      "velocity": 95,
      "chip": "ym2612"
    },
    {
      "channel": 5,
      "note": 85,
      "start": 7.3467,
      "duration": 0.6661,
      "velocity": 94,
      "chip": "ym2612"
    },
    {
      "channel": 2,
      "note": 103,
      "start": 7.3485,
      "duration": 0.1403,
      "velocity": 103,
      "chip": "ym2612"
    },
    {
      "channel": 1,
      "note": 49,
      "start": 7.5721,
      "duration": 0.2112,
      "velocity": 93,
      "chip": "ym2612"
    },
    {
      "channel": 3,
      "note": 71,
      "start": 7.5728,
      "duration": 0.2113,
      "velocity": 95,
      "chip": "ym2612"
    },
    {
      "channel": 4,
      "note": 76,
      "start": 7.5735,
      "duration": 0.2113,
      "velocity": 95,
      "chip": "ym2612"
    },
    {
      "channel": 2,
      "note": 56,
      "start": 7.5756,
      "duration": 0.1084,
      "velocity": 112,
      "chip": "ym2612"
    },
    {
      "channel": 0,
      "note": 88,
      "start": 7.7832,
      "duration": 0.2267,
      "velocity": 94,
      "chip": "ym2612"
    },
    {
      "channel": 1,
      "note": 54,
      "start": 7.7839,
      "duration": 0.2268,
      "velocity": 93,
      "chip": "ym2612"
    },
    {
      "channel": 3,
      "note": 71,
      "start": 7.7846,
      "duration": 0.227,
      "velocity": 95,
      "chip": "ym2612"
    },
    {
      "channel": 4,
      "note": 76,
      "start": 7.7853,
      "duration": 0.2269,
      "velocity": 95,
      "chip": "ym2612"
    },
    {
      "channel": 2,
      "note": 26,
      "start": 7.7873,
      "duration": 0.0753,
      "velocity": 120,
      "chip": "ym2612"
    },
    {
      "channel": 0,
      "note": 85,
      "start": 8.0106,
      "duration": 0.8932,
      "velocity": 94,
      "chip": "ym2612"
    },
    {
      "channel": 1,
      "note": 49,
      "start": 8.0114,
      "duration": 0.2237,
      "velocity": 93,
      "chip": "ym2612"
    },
    {
      "channel": 3,
      "note": 71,
      "start": 8.0121,
      "duration": 0.1095,
      "velocity": 95,
      "chip": "ym2612"
    },
    {
      "channel": 4,
      "note": 76,
      "start": 8.0127,
      "duration": 0.1095,
      "velocity": 95,
      "chip": "ym2612"
    },
    {
      "channel": 5,
      "note": 88,
      "start": 8.0136,
      "duration": 0.2229,
      "velocity": 94,
      "chip": "ym2612"
    },
    {
      "channel": 2,
      "note": 26,
      "start": 8.0153,
      "duration": 0.0747,
      "velocity": 120,
      "chip": "ym2612"
    },
    {
      "channel": 3,
      "note": 71,
      "start": 8.1221,
      "duration": 0.3436,
      "velocity": 95,
      "chip": "ym2612"
    },
    {
      "channel": 4,
      "note": 76,
      "start": 8.1228,
      "duration": 0.3436,
      "velocity": 95,
      "chip": "ym2612"
    },
    {
      "channel": 1,
      "note": 56,
      "start": 8.2357,
      "duration": 0.1133,
      "velocity": 93,
      "chip": "ym2612"
    },
    {
      "channel": 5,
      "note": 85,
      "start": 8.2372,
      "duration": 0.8959,
      "velocity": 94,
      "chip": "ym2612"
    },
    {
      "channel": 1,
      "note": 49,
      "start": 8.3496,
      "duration": 0.327,
      "velocity": 93,
      "chip": "ym2612"
    },
    {
      "channel": 3,
      "note": 71,
      "start": 8.4663,
      "duration": 0.2111,
      "velocity": 95,
      "chip": "ym2612"
    },
    {
      "channel": 4,
      "note": 76,
      "start": 8.4669,
      "duration": 0.2111,
      "velocity": 95,
      "chip": "ym2612"
    },
    {
      "channel": 2,
      "note": 56,
      "start": 8.469,
      "duration": 0.0926,
      "velocity": 112,
      "chip": "ym2612"
    },
    {
      "channel": 1,
      "note": 54,
      "start": 8.6773,
      "duration": 0.227,
      "velocity": 93,
      "chip": "ym2612"
    },
    {
      "channel": 3,
      "note": 71,
      "start": 8.6779,
      "duration": 0.2272,
      "velocity": 95,
      "chip": "ym2612"
    },
    {
      "channel": 4,
      "note": 76,
      "start": 8.6786,
      "duration": 0.2273,
      "velocity": 95,
      "chip": "ym2612"
    },
    {
      "channel": 2,
      "note": 103,
      "start": 8.6807,
      "duration": 0.1408,
      "velocity": 103,
      "chip": "ym2612"
    },
    {
      "channel": 1,
      "note": 49,
      "start": 8.9049,
      "duration": 0.2265,
      "velocity": 93,
      "chip": "ym2612"
    },
    {
      "channel": 3,
      "note": 68,
      "start": 8.9057,
      "duration": 0.8936,
      "velocity": 95,
      "chip": "ym2612"
    },
    {
      "channel": 4,
      "note": 76,
      "start": 8.9064,
      "duration": 0.8933,
      "velocity": 95,
      "chip": "ym2612"
    },
    {
      "channel": 2,
      "note": 26,
      "start": 8.9085,
      "duration": 0.0752,
      "velocity": 120,
      "chip": "ym2612"
    },
    {
      "channel": 1,
      "note": 56,
      "start": 9.1321,
      "duration": 0.2107,
      "velocity": 93,
      "chip": "ym2612"
    },
    {
      "channel": 2,
      "note": 26,
      "start": 9.1351,
      "duration": 0.0598,
      "velocity": 120,
      "chip": "ym2612"
    },
    {
      "channel": 1,
      "note": 49,
      "start": 9.3435,
      "duration": 0.2274,
      "velocity": 93,
      "chip": "ym2612"
    },
    {
      "channel": 2,
      "note": 56,
      "start": 9.346,
      "duration": 0.109,
      "velocity": 112,
      "chip": "ym2612"
    },
    {
      "channel": 0,
      "note": 95,
      "start": 9.5708,
      "duration": 0.2269,
      "velocity": 94,
      "chip": "ym2612"
    },
    {
      "channel": 1,
      "note": 54,
      "start": 9.5715,
      "duration": 0.227,
      "velocity": 93,
      "chip": "ym2612"
    },
    {
      "channel": 2,
      "note": 26,
      "start": 9.574,
      "duration": 0.076,
      "velocity": 120,
      "chip": "ym2612"
    },
    {
      "channel": 0,
      "note": 93,
      "start": 9.7983,
      "duration": 0.2268,
      "velocity": 94,
      "chip": "ym2612"
    },
    {
      "channel": 1,
      "note": 49,
      "start": 9.7992,
      "duration": 0.2268,
      "velocity": 93,
      "chip": "ym2612"
    },
    {
      "channel": 5,
      "note": 95,
      "start": 9.8009,
      "duration": 0.2265,
      "velocity": 94,
      "chip": "ym2612"
    },
    {
      "channel": 2,
      "note": 26,
      "start": 9.8026,
      "duration": 0.0586,
      "velocity": 120,
      "chip": "ym2612"
    },
    {
      "channel": 3,
      "note": 68,
      "start": 9.9099,
      "duration": 0.6656,
      "velocity": 95,
      "chip": "ym2612"
    },
    {
      "channel": 4,
      "note": 76,
      "start": 9.9107,
      "duration": 0.6653,
      "velocity": 95,
      "chip": "ym2612"
    },
    {
      "channel": 0,
      "note": 92,
      "start": 10.0258,
      "duration": 0.4354,
      "velocity": 94,
      "chip": "ym2612"
    },
    {
      "channel": 1,
      "note": 56,
      "start": 10.0266,
      "duration": 0.0936,
      "velocity": 93,
      "chip": "ym2612"
    },
    {
      "channel": 5,
      "note": 93,
      "start": 10.0281,
      "duration": 0.2096,
      "velocity": 94,
      "chip": "ym2612"
    },
    {
      "channel": 2,
      "note": 103,
      "start": 10.0299,
      "duration": 0.1404,
      "velocity": 103,
      "chip": "ym2612"
    },
    {
      "channel": 1,
      "note": 49,
      "start": 10.1209,
      "duration": 0.3412,
      "velocity": 93,
      "chip": "ym2612"
    },
    {
      "channel": 5,
      "note": 92,
      "start": 10.2384,
      "duration": 0.4563,
      "velocity": 94,
      "chip": "ym2612"
    },
    {
      "channel": 2,
      "note": 56,
      "start": 10.2401,
      "duration": 0.1092,
      "velocity": 112,
      "chip": "ym2612"
    },
    {
      "channel": 0,
      "note": 90,
      "start": 10.4618,
      "duration": 0.2297,
      "velocity": 94,
      "chip": "ym2612"
    },
    {
      "channel": 1,
      "note": 54,
      "start": 10.4627,
      "duration": 0.2297,
      "velocity": 93,
      "chip": "ym2612"
    },
    {
      "channel": 0,
      "note": 92,
      "start": 10.6922,
      "duration": 0.2105,
      "velocity": 94,
      "chip": "ym2612"
    },
    {
      "channel": 1,
      "note": 50,
      "start": 10.693,
      "duration": 0.2106,
      "velocity": 93,
      "chip": "ym2612"
    },
    {
      "channel": 3,
      "note": 66,
      "start": 10.6938,
      "duration": 0.2105,
      "velocity": 95,
      "chip": "ym2612"
    },
    {
      "channel": 4,
      "note": 71,
      "start": 10.6946,
      "duration": 0.2103,
      "velocity": 95,
      "chip": "ym2612"
    },
    {
      "channel": 5,
      "note": 90,
      "start": 10.6955,
      "duration": 0.2101,
      "velocity": 94,
      "chip": "ym2612"
    },
    {
      "channel": 2,
      "note": 26,
      "start": 10.6972,
      "duration": 0.0581,
      "velocity": 120,
      "chip": "ym2612"
    },
    {
      "channel": 0,
      "note": 90,
      "start": 10.9034,
      "duration": 0.227,
      "velocity": 94,
      "chip": "ym2612"
    },
    {
      "channel": 1,
      "note": 50,
      "start": 10.9042,
      "duration": 0.227,
      "velocity": 93,
      "chip": "ym2612"
    },
    {
      "channel": 3,
      "note": 66,
      "start": 10.9048,
      "duration": 0.2271,
      "velocity": 95,
      "chip": "ym2612"
    },
    {
      "channel": 4,
      "note": 71,
      "start": 10.9055,
      "duration": 0.2271,
      "velocity": 95,
      "chip": "ym2612"
    },
    {
      "channel": 5,
      "note": 92,
      "start": 10.9063,
      "duration": 0.2269,
      "velocity": 94,
      "chip": "ym2612"
    },
    {
      "channel": 2,
      "note": 103,
      "start": 10.908,
      "duration": 0.1562,
      "velocity": 103,
      "chip": "ym2612"
    },
    {
      "channel": 0,
      "note": 92,
      "start": 11.131,
      "duration": 0.2268,
      "velocity": 94,
      "chip": "ym2612"
    },
    {
      "channel": 1,
      "note": 50,
      "start": 11.1318,
      "duration": 0.2268,
      "velocity": 93,
      "chip": "ym2612"
    },
    {
      "channel": 3,
      "note": 66,
      "start": 11.1324,
      "duration": 0.227,
      "velocity": 95,
      "chip": "ym2612"
    },
    {
      "channel": 4,
      "note": 71,
      "start": 11.1331,
      "duration": 0.227,
      "velocity": 95,
      "chip": "ym2612"
    },
    {
      "channel": 5,
      "note": 90,
      "start": 11.1339,
      "duration": 0.2268,
      "velocity": 94,
      "chip": "ym2612"
    },
    {
      "channel": 2,
      "note": 56,
      "start": 11.1357,
      "duration": 0.1073,
      "velocity": 112,
      "chip": "ym2612"
    },
    {
      "channel": 0,
      "note": 93,
      "start": 11.3585,
      "duration": 0.4354,
      "velocity": 94,
      "chip": "ym2612"
    },
    {
      "channel": 1,
      "note": 50,
      "start": 11.3592,
      "duration": 0.2264,
      "velocity": 93,
      "chip": "ym2612"
    },
    {
      "channel": 3,
      "note": 66,
      "start": 11.3599,
      "duration": 0.2265,
      "velocity": 95,
      "chip": "ym2612"
    },
    {
      "channel": 4,
      "note": 71,
      "start": 11.3605,
      "duration": 0.2265,
      "velocity": 95,
      "chip": "ym2612"
    },
    {
      "channel": 5,
      "note": 92,
      "start": 11.3614,
      "duration": 0.2263,
      "velocity": 94,
      "chip": "ym2612"
    },
    {
      "channel": 2,
      "note": 26,
      "start": 11.363,
      "duration": 0.0585,
      "velocity": 120,
      "chip": "ym2612"
    },
    {
      "channel": 1,
      "note": 50,
      "start": 11.5862,
      "duration": 0.2083,
      "velocity": 93,
      "chip": "ym2612"
    },
    {
      "channel": 3,
      "note": 66,
      "start": 11.5869,
      "duration": 0.0938,
      "velocity": 95,
      "chip": "ym2612"
    },
    {
      "channel": 4,
      "note": 71,
      "start": 11.5876,
      "duration": 0.0938,
      "velocity": 95,
      "chip": "ym2612"
    },
    {
      "channel": 5,
      "note": 93,
      "start": 11.5884,
      "duration": 0.4381,
      "velocity": 94,
      "chip": "ym2612"
    },
    {
      "channel": 2,
      "note": 26,
      "start": 11.5901,
      "duration": 0.0591,
      "velocity": 120,
      "chip": "ym2612"
    },
    {
      "channel": 3,
      "note": 66,
      "start": 11.6812,
      "duration": 0.3439,
      "velocity": 95,
      "chip": "ym2612"
    },
    {
      "channel": 4,
      "note": 71,
      "start": 11.6819,
      "duration": 0.3439,
      "velocity": 95,
      "chip": "ym2612"
    },
    {
      "channel": 0,
      "note": 92,
      "start": 11.7944,
      "duration": 0.4571,
      "velocity": 94,
      "chip": "ym2612"
    },
    {
      "channel": 1,
      "note": 50,
      "start": 11.7952,
      "duration": 0.2292,
      "velocity": 93,
      "chip": "ym2612"
    },
    {
      "channel": 1,
      "note": 50,
      "start": 12.0251,
      "duration": 0.2273,
      "velocity": 93,
      "chip": "ym2612"
    },
    {
      "channel": 3,
      "note": 66,
      "start": 12.0257,
      "duration": 0.2275,
      "velocity": 95,
      "chip": "ym2612"
    },
    {
      "channel": 4,
      "note": 71,
      "start": 12.0263,
      "duration": 0.2276,
      "velocity": 95,
      "chip": "ym2612"
    },
    {
      "channel": 5,
      "note": 92,
      "start": 12.0271,
      "duration": 0.4389,
      "velocity": 94,
      "chip": "ym2612"
    },
    {
      "channel": 2,
      "note": 56,
      "start": 12.0289,
      "duration": 0.108,
      "velocity": 112,
      "chip": "ym2612"
    },
    {
      "channel": 0,
      "note": 93,
      "start": 12.2523,
      "duration": 0.2106,
      "velocity": 94,
      "chip": "ym2612"
    },
    {
      "channel": 1,
      "note": 50,
      "start": 12.253,
      "duration": 0.2107,
      "velocity": 93,
      "chip": "ym2612"
    },
    {
      "channel": 3,
      "note": 66,
      "start": 12.2537,
      "duration": 0.2108,
      "velocity": 95,
      "chip": "ym2612"
    },
    {
      "channel": 4,
      "note": 71,
      "start": 12.2544,
      "duration": 0.2109,
      "velocity": 95,
      "chip": "ym2612"
    },
    {
      "channel": 2,
      "note": 103,
      "start": 12.2564,
      "duration": 0.1405,
      "velocity": 103,
      "chip": "ym2612"
    },
    {
      "channel": 0,
      "note": 95,
      "start": 12.4636,
      "duration": 1.787,
      "velocity": 94,
      "chip": "ym2612"
    },
    {
      "channel": 1,
      "note": 52,
      "start": 12.4644,
      "duration": 0.2263,
      "velocity": 93,
      "chip": "ym2612"
    },
    {
      "channel": 3,
      "note": 64,
      "start": 12.4652,
      "duration": 1.3472,
      "velocity": 95,
      "chip": "ym2612"
    },
    {
      "channel": 4,
      "note": 71,
      "start": 12.4658,
      "duration": 1.3472,
      "velocity": 95,
      "chip": "ym2612"
    },
    {
      "channel": 5,
      "note": 93,
      "start": 12.4667,
      "duration": 0.2256,
      "velocity": 94,
      "chip": "ym2612"
    },
    {
      "channel": 2,
      "note": 26,
      "start": 12.4684,
      "duration": 0.0746,
      "velocity": 120,
      "chip": "ym2612"
    },
    {
      "channel": 1,
      "note": 52,
      "start": 12.6913,
      "duration": 0.227,
      "velocity": 93,
      "chip": "ym2612"
    },
    {
      "channel": 5,
      "note": 95,
      "start": 12.6931,
      "duration": 1.7874,
      "velocity": 94,
      "chip": "ym2612"
    },
    {
      "channel": 2,
      "note": 26,
      "start": 12.6947,
      "duration": 0.0758,
      "velocity": 120,
      "chip": "ym2612"
    },
    {
      "channel": 1,
      "note": 52,
      "start": 12.9189,
      "duration": 0.2268,
      "velocity": 93,
      "chip": "ym2612"
    },
    {
      "channel": 2,
      "note": 56,
      "start": 12.9217,
      "duration": 0.109,
      "velocity": 112,
      "chip": "ym2612"
    },
    {
      "channel": 1,
      "note": 52,
      "start": 13.1464,
      "duration": 0.2106,
      "velocity": 93,
      "chip": "ym2612"
    },
    {
      "channel": 2,
      "note": 26,
      "start": 13.1492,
      "duration": 0.0602,
      "velocity": 120,
      "chip": "ym2612"
    },
    {
      "channel": 1,
      "note": 52,
      "start": 13.3577,
      "duration": 0.2268,
      "velocity": 93,
      "chip": "ym2612"
    },
    {
      "channel": 2,
      "note": 26,
      "start": 13.3604,
      "duration": 0.0765,
      "velocity": 120,
      "chip": "ym2612"
    },
    {
      "channel": 1,
      "note": 59,
      "start": 13.5852,
      "duration": 0.1104,
      "velocity": 93,
      "chip": "ym2612"
    },
    {
      "channel": 2,
      "note": 103,
      "start": 13.5879,
      "duration": 0.1415,
      "velocity": 103,
      "chip": "ym2612"
    },
    {
      "channel": 1,
      "note": 52,
      "start": 13.6962,
      "duration": 0.5554,
      "velocity": 93,
      "chip": "ym2612"
    },
    {
      "channel": 3,
      "note": 64,
      "start": 13.8129,
      "duration": 0.1106,
      "velocity": 95,
      "chip": "ym2612"
    },
    {
      "channel": 4,
      "note": 69,
      "start": 13.8138,
      "duration": 0.1104,
      "velocity": 95,
      "chip": "ym2612"
    },
    {
      "channel": 2,
      "note": 56,
      "start": 13.8158,
      "duration": 0.1096,
      "velocity": 112,
      "chip": "ym2612"
    },
    {
      "channel": 3,
      "note": 64,
      "start": 13.924,
      "duration": 0.3284,
      "velocity": 95,
      "chip": "ym2612"
    },
    {
      "channel": 4,
      "note": 68,
      "start": 13.9249,
      "duration": 0.3285,
      "velocity": 95,
      "chip": "ym2612"
    },
    {
      "channel": 0,
      "note": 88,
      "start": 14.2513,
      "duration": 1.1178,
      "velocity": 94,
      "chip": "ym2612"
    },
    {
      "channel": 1,
      "note": 45,
      "start": 14.2522,
      "duration": 0.2261,
      "velocity": 93,
      "chip": "ym2612"
    },
    {
      "channel": 3,
      "note": 68,
      "start": 14.2531,
      "duration": 0.226,
      "velocity": 95,
      "chip": "ym2612"
    },
    {
      "channel": 4,
      "note": 73,
      "start": 14.2541,
      "duration": 0.2257,
      "velocity": 95,
      "chip": "ym2612"
    },
    {
      "channel": 2,
      "note": 26,
      "start": 14.256,
      "duration": 0.0747,
      "velocity": 120,
      "chip": "ym2612"
    },
    {
      "channel": 1,
      "note": 52,
      "start": 14.479,
      "duration": 0.2269,
      "velocity": 93,
      "chip": "ym2612"
    },
    {
      "channel": 3,
      "note": 68,
      "start": 14.4796,
      "duration": 0.227,
      "velocity": 95,
      "chip": "ym2612"
    },
    {
      "channel": 4,
      "note": 73,
      "start": 14.4803,
      "duration": 0.227,
      "velocity": 95,
      "chip": "ym2612"
    },
    {
      "channel": 5,
      "note": 88,
      "start": 14.4812,
      "duration": 1.1044,
      "velocity": 94,
      "chip": "ym2612"
    },
    {
      "channel": 2,
      "note": 103,
      "start": 14.4829,
      "duration": 0.1404,
      "velocity": 103,
      "chip": "ym2612"
    },
    {
      "channel": 1,
      "note": 45,
      "start": 14.7065,
      "duration": 0.2107,
      "velocity": 93,
      "chip": "ym2612"
    },
    {
      "channel": 3,
      "note": 68,
      "start": 14.7072,
      "duration": 0.2108,
      "velocity": 95,
      "chip": "ym2612"
    },
    {
      "channel": 4,
      "note": 73,
      "start": 14.7079,
      "duration": 0.2107,
      "velocity": 95,
      "chip": "ym2612"
    },
    {
      "channel": 2,
      "note": 56,
      "start": 14.71,
      "duration": 0.0921,
      "velocity": 112,
      "chip": "ym2612"
    },
    {
      "channel": 1,
      "note": 50,
      "start": 14.9179,
      "duration": 0.2269,
      "velocity": 93,
      "chip": "ym2612"
    },
    {
      "channel": 3,
      "note": 68,
      "start": 14.9185,
      "duration": 0.227,
      "velocity": 95,
      "chip": "ym2612"
    },
    {
      "channel": 4,
      "note": 73,
      "start": 14.9191,
      "duration": 0.227,
      "velocity": 95,
      "chip": "ym2612"
    },
    {
      "channel": 2,
      "note": 26,
      "start": 14.9212,
      "duration": 0.0759,
      "velocity": 120,
      "chip": "ym2612"
    },
    {
      "channel": 1,
      "note": 45,
      "start": 15.1454,
      "duration": 0.2246,
      "velocity": 93,
      "chip": "ym2612"
    },
    {
      "channel": 3,
      "note": 68,
      "start": 15.146,
      "duration": 0.11,
      "velocity": 95,
      "chip": "ym2612"
    },
    {
      "channel": 4,
      "note": 73,
      "start": 15.1467,
      "duration": 0.11,
      "velocity": 95,
      "chip": "ym2612"
    },
    {
      "channel": 2,
      "note": 26,
      "start": 15.1488,
      "duration": 0.0757,
      "velocity": 120,
      "chip": "ym2612"
    },
    {
      "channel": 3,
      "note": 68,
      "start": 15.2566,
      "duration": 0.3277,
      "velocity": 95,
      "chip": "ym2612"
    },
    {
      "channel": 4,
      "note": 73,
      "start": 15.2572,
      "duration": 0.3277,
      "velocity": 95,
      "chip": "ym2612"
    },
    {
      "channel": 0,
      "note": 95,
      "start": 15.3698,
      "duration": 0.2134,
      "velocity": 94,
      "chip": "ym2612"
    },
    {
      "channel": 1,
      "note": 52,
      "start": 15.3707,
      "duration": 0.1126,
      "velocity": 93,
      "chip": "ym2612"
    },
    {
      "channel": 1,
      "note": 45,
      "start": 15.4839,
      "duration": 0.3276,
      "velocity": 93,
      "chip": "ym2612"
    },
    {
      "channel": 0,
      "note": 88,
      "start": 15.5838,
      "duration": 0.2268,
      "velocity": 94,
      "chip": "ym2612"
    },
    {
      "channel": 3,
      "note": 68,
      "start": 15.5848,
      "duration": 0.2276,
      "velocity": 95,
      "chip": "ym2612"
    },
    {
      "channel": 4,
      "note": 73,
      "start": 15.5855,
      "duration": 0.2275,
      "velocity": 95,
      "chip": "ym2612"
    },
    {
      "channel": 5,
      "note": 95,
      "start": 15.5863,
      "duration": 0.2274,
      "velocity": 94,
      "chip": "ym2612"
    },
    {
      "channel": 2,
      "note": 56,
      "start": 15.588,
      "duration": 0.1079,
      "velocity": 112,
      "chip": "ym2612"
    },
    {
      "channel": 0,
      "note": 88,
      "start": 15.8114,
      "duration": 0.2268,
      "velocity": 94,
      "chip": "ym2612"
    },
    {
      "channel": 1,
      "note": 50,
      "start": 15.8121,
      "duration": 0.2268,
      "velocity": 93,
      "chip": "ym2612"
    },
    {
      "channel": 3,
      "note": 68,
      "start": 15.8128,
      "duration": 0.227,
      "velocity": 95,
      "chip": "ym2612"
    },
    {
      "channel": 4,
      "note": 73,
      "start": 15.8135,
      "duration": 0.227,
      "velocity": 95,
      "chip": "ym2612"
    },
    {
      "channel": 5,
      "note": 88,
      "start": 15.8144,
      "duration": 0.2269,
      "velocity": 94,
      "chip": "ym2612"
    },
    {
      "channel": 2,
      "note": 103,
      "start": 15.8161,
      "duration": 0.1398,
      "velocity": 103,
      "chip": "ym2612"
    },
    {
      "channel": 0,
      "note": 88,
      "start": 16.0388,
      "duration": 0.4382,
      "velocity": 94,
      "chip": "ym2612"
    },
    {
      "channel": 1,
      "note": 45,
      "start": 16.0396,
      "duration": 0.2265,
      "velocity": 93,
      "chip": "ym2612"
    },
    {
      "channel": 3,
      "note": 64,
      "start": 16.0405,
      "duration": 0.8927,
      "velocity": 95,
      "chip": "ym2612"
    },
    {
      "channel": 4,
      "note": 73,
      "start": 16.0411,
      "duration": 0.8925,
      "velocity": 95,
      "chip": "ym2612"
    },
    {
      "channel": 5,
      "note": 88,
      "start": 16.0419,
      "duration": 0.2258,
      "velocity": 94,
      "chip": "ym2612"
    },
    {
      "channel": 2,
      "note": 26,
      "start": 16.0436,
      "duration": 0.0585,
      "velocity": 120,
      "chip": "ym2612"
    },
    {
      "channel": 1,
      "note": 52,
      "start": 16.2667,
      "duration": 0.2111,
      "velocity": 93,
      "chip": "ym2612"
    },
    {
      "channel": 5,
      "note": 88,
      "start": 16.2684,
      "duration": 0.4384,
      "velocity": 94,
      "chip": "ym2612"
    },
    {
      "channel": 2,
      "note": 26,
      "start": 16.2701,
      "duration": 0.0595,
      "velocity": 120,
      "chip": "ym2612"
    },
    {
      "channel": 0,
      "note": 92,
      "start": 16.4777,
      "duration": 0.2268,
      "velocity": 94,
      "chip": "ym2612"
    },
    {
      "channel": 1,
      "note": 45,
      "start": 16.4785,
      "duration": 0.2268,
      "velocity": 93,
      "chip": "ym2612"
    },
    {
      "channel": 2,
      "note": 56,
      "start": 16.4813,
      "duration": 0.1085,
      "velocity": 112,
      "chip": "ym2612"
    },
    {
      "channel": 0,
      "note": 88,
      "start": 16.7052,
      "duration": 0.4382,
      "velocity": 94,
      "chip": "ym2612"
    },
    {
      "channel": 1,
      "note": 50,
      "start": 16.706,
      "duration": 0.2264,
      "velocity": 93,
      "chip": "ym2612"
    },
    {
      "channel": 5,
      "note": 92,
      "start": 16.7074,
      "duration": 0.2267,
      "velocity": 94,
      "chip": "ym2612"
    },
    {
      "channel": 2,
      "note": 26,
      "start": 16.7091,
      "duration": 0.0756,
      "velocity": 120,
      "chip": "ym2612"
    },
    {
      "channel": 1,
      "note": 45,
      "start": 16.933,
      "duration": 0.2112,
      "velocity": 93,
      "chip": "ym2612"
    },
    {
      "channel": 5,
      "note": 88,
      "start": 16.9348,
      "duration": 0.4378,
      "velocity": 94,
      "chip": "ym2612"
    },
    {
      "channel": 2,
      "note": 26,
      "start": 16.9365,
      "duration": 0.0591,
      "velocity": 120,
      "chip": "ym2612"
    },
    {
      "channel": 3,
      "note": 64,
      "start": 17.0444,
      "duration": 0.6656,
      "velocity": 95,
      "chip": "ym2612"
    },
    {
      "channel": 4,
      "note": 73,
      "start": 17.0453,
      "duration": 0.6652,
      "velocity": 95,
      "chip": "ym2612"
    },
    {
      "channel": 0,
      "note": 86,
      "start": 17.144,
      "duration": 0.2268,
      "velocity": 94,
      "chip": "ym2612"
    },
    {
      "channel": 1,
      "note": 52,
      "start": 17.1448,
      "duration": 0.1098,
      "velocity": 93,
      "chip": "ym2612"
    },
    {
      "channel": 2,
      "note": 103,
      "start": 17.1476,
      "duration": 0.1572,
      "velocity": 103,
      "chip": "ym2612"
    },
    {
      "channel": 1,
      "note": 45,
      "start": 17.2553,
      "duration": 0.3411,
      "velocity": 93,
      "chip": "ym2612"
    },
    {
      "channel": 0,
      "note": 85,
      "start": 17.3715,
      "duration": 0.2241,
      "velocity": 94,
      "chip": "ym2612"
    },
    {
      "channel": 5,
      "note": 86,
      "start": 17.3733,
      "duration": 0.2246,
      "velocity": 94,
      "chip": "ym2612"
    },
    {
      "channel": 2,
      "note": 56,
      "start": 17.3751,
      "duration": 0.1086,
      "velocity": 112,
      "chip": "ym2612"
    },
    {
      "channel": 0,
      "note": 83,
      "start": 17.5963,
      "duration": 0.2297,
      "velocity": 94,
      "chip": "ym2612"
    },
    {
      "channel": 1,
      "note": 50,
      "start": 17.5971,
      "duration": 0.2297,
      "velocity": 93,
      "chip": "ym2612"
    },
    {
      "channel": 5,
      "note": 85,
      "start": 17.5986,
      "duration": 0.2307,
      "velocity": 94,
      "chip": "ym2612"
    },
    {
      "channel": 0,
      "note": 85,
      "start": 17.8267,
      "duration": 0.8768,
      "velocity": 94,
      "chip": "ym2612"
    },
    {
      "channel": 1,
      "note": 47,
      "start": 17.8275,
      "duration": 0.21,
      "velocity": 93,
      "chip": "ym2612"
    },
    {
      "channel": 3,
      "note": 69,
      "start": 17.8283,
      "duration": 0.2099,
      "velocity": 95,
      "chip": "ym2612"
    },
    {
      "channel": 4,
      "note": 74,
      "start": 17.8291,
      "duration": 0.2098,
      "velocity": 95,
      "chip": "ym2612"
    },
    {
      "channel": 5,
      "note": 83,
      "start": 17.83,
      "duration": 0.2095,
      "velocity": 94,
      "chip": "ym2612"
    },
    {
      "channel": 2,
      "note": 26,
      "start": 17.8317,
      "duration": 0.0581,
      "velocity": 120,
      "chip": "ym2612"
    },
    {
      "channel": 1,
      "note": 54,
      "start": 18.0381,
      "duration": 0.2271,
      "velocity": 93,
      "chip": "ym2612"
    },
    {
      "channel": 3,
      "note": 69,
      "start": 18.0387,
      "duration": 0.2272,
      "velocity": 95,
      "chip": "ym2612"
    },
    {
      "channel": 4,
      "note": 74,
      "start": 18.0394,
      "duration": 0.2272,
      "velocity": 95,
      "chip": "ym2612"
    },
    {
      "channel": 5,
      "note": 85,
      "start": 18.0402,
      "duration": 0.8903,
      "velocity": 94,
      "chip": "ym2612"
    },
    {
      "channel": 2,
      "note": 103,
      "start": 18.042,
      "duration": 0.1403,
      "velocity": 103,
      "chip": "ym2612"
    },
    {
      "channel": 1,
      "note": 47,
      "start": 18.2658,
      "duration": 0.2267,
      "velocity": 93,
      "chip": "ym2612"
    },
    {
      "channel": 3,
      "note": 69,
      "start": 18.2665,
      "duration": 0.2268,
      "velocity": 95,
      "chip": "ym2612"
    },
    {
      "channel": 4,
      "note": 74,
      "start": 18.2671,
      "duration": 0.2268,
      "velocity": 95,
      "chip": "ym2612"
    },
    {
      "channel": 2,
      "note": 56,
      "start": 18.2692,
      "duration": 0.1082,
      "velocity": 112,
      "chip": "ym2612"
    },
    {
      "channel": 1,
      "note": 52,
      "start": 18.4932,
      "duration": 0.2111,
      "velocity": 93,
      "chip": "ym2612"
    },
    {
      "channel": 3,
      "note": 69,
      "start": 18.4938,
      "duration": 0.2113,
      "velocity": 95,
      "chip": "ym2612"
    },
    {
      "channel": 4,
      "note": 74,
      "start": 18.4944,
      "duration": 0.2113,
      "velocity": 95,
      "chip": "ym2612"
    },
    {
      "channel": 2,
      "note": 26,
      "start": 18.4966,
      "duration": 0.0596,
      "velocity": 120,
      "chip": "ym2612"
    },
    {
      "channel": 0,
      "note": 88,
      "start": 18.7042,
      "duration": 0.224,
      "velocity": 94,
      "chip": "ym2612"
    },
    {
      "channel": 1,
      "note": 47,
      "start": 18.7049,
      "duration": 0.2241,
      "velocity": 93,
      "chip": "ym2612"
    },
    {
      "channel": 3,
      "note": 69,
      "start": 18.7056,
      "duration": 0.1094,
      "velocity": 95,
      "chip": "ym2612"
    },
    {
      "channel": 4,
      "note": 74,
      "start": 18.7063,
      "duration": 0.1094,
      "velocity": 95,
      "chip": "ym2612"
    },
    {
      "channel": 2,
      "note": 26,
      "start": 18.7084,
      "duration": 0.0752,
      "velocity": 120,
      "chip": "ym2612"
    },
    {
      "channel": 3,
      "note": 69,
      "start": 18.8156,
      "duration": 0.3436,
      "velocity": 95,
      "chip": "ym2612"
    },
    {
      "channel": 4,
      "note": 74,
      "start": 18.8162,
      "duration": 0.3436,
      "velocity": 95,
      "chip": "ym2612"
    },
    {
      "channel": 0,
      "note": 86,
      "start": 18.9289,
      "duration": 0.4571,
      "velocity": 94,
      "chip": "ym2612"
    },
    {
      "channel": 1,
      "note": 54,
      "start": 18.9297,
      "duration": 0.1126,
      "velocity": 93,
      "chip": "ym2612"
    },
    {
      "channel": 5,
      "note": 88,
      "start": 18.9313,
      "duration": 0.2291,
      "velocity": 94,
      "chip": "ym2612"
    },
    {
      "channel": 1,
      "note": 47,
      "start": 19.0429,
      "duration": 0.344,
      "velocity": 93,
      "chip": "ym2612"
    },
    {
      "channel": 3,
      "note": 69,
      "start": 19.1597,
      "duration": 0.228,
      "velocity": 95,
      "chip": "ym2612"
    },
    {
      "channel": 4,
      "note": 74,
      "start": 19.1603,
      "duration": 0.228,
      "velocity": 95,
      "chip": "ym2612"
    },
    {
      "channel": 5,
      "note": 86,
      "start": 19.1611,
      "duration": 0.4393,
      "velocity": 94,
      "chip": "ym2612"
    },
    {
      "channel": 2,
      "note": 56,
      "start": 19.1629,
      "duration": 0.1085,
      "velocity": 112,
      "chip": "ym2612"
    },
    {
      "channel": 0,
      "note": 85,
      "start": 19.3868,
      "duration": 0.2106,
      "velocity": 94,
      "chip": "ym2612"
    },
    {
      "channel": 1,
      "note": 52,
      "start": 19.3875,
      "duration": 0.2106,
      "velocity": 93,
      "chip": "ym2612"
    },
    {
      "channel": 3,
      "note": 69,
      "start": 19.3882,
      "duration": 0.2108,
      "velocity": 95,
      "chip": "ym2612"
    },
    {
      "channel": 4,
      "note": 74,
      "start": 19.3888,
      "duration": 0.2109,
      "velocity": 95,
      "chip": "ym2612"
    },
    {
      "channel": 2,
      "note": 103,
      "start": 19.3909,
      "duration": 0.1405,
      "velocity": 103,
      "chip": "ym2612"
    },
    {
      "channel": 0,
      "note": 83,
      "start": 19.598,
      "duration": 1.1207,
      "velocity": 94,
      "chip": "ym2612"
    },
    {
      "channel": 1,
      "note": 47,
      "start": 19.5988,
      "duration": 0.2263,
      "velocity": 93,
      "chip": "ym2612"
    },
    {
      "channel": 3,
      "note": 66,
      "start": 19.5996,
      "duration": 0.8926,
      "velocity": 95,
      "chip": "ym2612"
    },
    {
      "channel": 4,
      "note": 74,
      "start": 19.6002,
      "duration": 0.8925,
      "velocity": 95,
      "chip": "ym2612"
    },
    {
      "channel": 5,
      "note": 85,
      "start": 19.6011,
      "duration": 0.2257,
      "velocity": 94,
      "chip": "ym2612"
    },
    {
      "channel": 2,
      "note": 26,
      "start": 19.6028,
      "duration": 0.0746,
      "velocity": 120,
      "chip": "ym2612"
    },
    {
      "channel": 1,
      "note": 54,
      "start": 19.8258,
      "duration": 0.2269,
      "velocity": 93,
      "chip": "ym2612"
    },
    {
      "channel": 5,
      "note": 83,
      "start": 19.8274,
      "duration": 1.12,
      "velocity": 94,
      "chip": "ym2612"
    },
    {
      "channel": 2,
      "note": 26,
      "start": 19.8291,
      "duration": 0.0758,
      "velocity": 120,
      "chip": "ym2612"
    },
    {
      "channel": 1,
      "note": 47,
      "start": 20.0533,
      "duration": 0.2107,
      "velocity": 93,
      "chip": "ym2612"
    },
    {
      "channel": 2,
      "note": 56,
      "start": 20.056,
      "duration": 0.1091,
      "velocity": 112,
      "chip": "ym2612"
    },
    {
      "channel": 1,
      "note": 52,
      "start": 20.2646,
      "duration": 0.2268,
      "velocity": 93,
      "chip": "ym2612"
    },
    {
      "channel": 2,
      "note": 26,
      "start": 20.2673,
      "duration": 0.0765,
      "velocity": 120,
      "chip": "ym2612"
    },
    {
      "channel": 1,
      "note": 47,
      "start": 20.4921,
      "duration": 0.2274,
      "velocity": 93,
      "chip": "ym2612"
    },
    {
      "channel": 2,
      "note": 26,
      "start": 20.4951,
      "duration": 0.0758,
      "velocity": 120,
      "chip": "ym2612"
    },
    {
      "channel": 3,
      "note": 66,
      "start": 20.6034,
      "duration": 0.6657,
      "velocity": 95,
      "chip": "ym2612"
    },
    {
      "channel": 4,
      "note": 74,
      "start": 20.6042,
      "duration": 0.6653,
      "velocity": 95,
      "chip": "ym2612"
    },
    {
      "channel": 0,
      "note": 83,
      "start": 20.7193,
      "duration": 0.6657,
      "velocity": 94,
      "chip": "ym2612"
    },
    {
      "channel": 1,
      "note": 54,
      "start": 20.7202,
      "duration": 0.1099,
      "velocity": 93,
      "chip": "ym2612"
    },
    {
      "channel": 2,
      "note": 103,
      "start": 20.7229,
      "duration": 0.141,
      "velocity": 103,
      "chip": "ym2612"
    },
    {
      "channel": 1,
      "note": 47,
      "start": 20.8307,
      "duration": 0.3244,
      "velocity": 93,
      "chip": "ym2612"
    },
    {
      "channel": 5,
      "note": 83,
      "start": 20.9481,
      "duration": 0.6668,
      "velocity": 94,
      "chip": "ym2612"
    },
    {
      "channel": 2,
      "note": 56,
      "start": 20.9499,
      "duration": 0.0927,
      "velocity": 112,
      "chip": "ym2612"
    },
    {
      "channel": 1,
      "note": 52,
      "start": 21.1558,
      "duration": 0.2301,
      "velocity": 93,
      "chip": "ym2612"
    },
    {
      "channel": 0,
      "note": 85,
      "start": 21.3857,
      "duration": 0.6655,
      "velocity": 94,
      "chip": "ym2612"
    },
    {
      "channel": 1,
      "note": 49,
      "start": 21.3865,
      "duration": 0.2263,
      "velocity": 93,
      "chip": "ym2612"
    },
    {
      "channel": 3,
      "note": 71,
      "start": 21.3873,
      "duration": 0.2263,
      "velocity": 95,
      "chip": "ym2612"
    },
    {
      "channel": 4,
      "note": 76,
      "start": 21.3882,
      "duration": 0.2261,
      "velocity": 95,
      "chip": "ym2612"
    },
    {
      "channel": 2,
      "note": 26,
      "start": 21.3902,
      "duration": 0.0749,
      "velocity": 120,
      "chip": "ym2612"
    },
    {
      "channel": 1,
      "note": 56,
      "start": 21.6135,
      "duration": 0.2107,
      "velocity": 93,
      "chip": "ym2612"
    },
    {
      "channel": 3,
      "note": 71,
      "start": 21.6141,
      "duration": 0.2108,
      "velocity": 95,
      "chip": "ym2612"
    },
    {
      "channel": 4,
      "note": 76,
      "start": 21.6148,
      "duration": 0.2107,
      "velocity": 95,
      "chip": "ym2612"
    },
    {
      "channel": 5,
      "note": 85,
      "start": 21.6156,
      "duration": 0.6661,
      "velocity": 94,
      "chip": "ym2612"
    },
    {
      "channel": 2,
      "note": 103,
      "start": 21.6173,
      "duration": 0.1403,
      "velocity": 103,
      "chip": "ym2612"
    },
    {
      "channel": 1,
      "note": 49,
      "start": 21.8248,
      "duration": 0.2273,
      "velocity": 93,
      "chip": "ym2612"
    },
    {
      "channel": 3,
      "note": 71,
      "start": 21.8254,
      "duration": 0.2275,
      "velocity": 95,
      "chip": "ym2612"
    },
    {
      "channel": 4,
      "note": 76,
      "start": 21.8261,
      "duration": 0.2275,
      "velocity": 95,
      "chip": "ym2612"
    },
    {
      "channel": 2,
      "note": 56,
      "start": 21.8282,
      "duration": 0.1084,
      "velocity": 112,
      "chip": "ym2612"
    },
    {
      "channel": 0,
      "note": 83,
      "start": 22.052,
      "duration": 0.2268,
      "velocity": 94,
      "chip": "ym2612"
    },
    {
      "channel": 1,
      "note": 54,
      "start": 22.0527,
      "duration": 0.2269,
      "velocity": 93,
      "chip": "ym2612"
    },
    {
      "channel": 3,
      "note": 71,
      "start": 22.0534,
      "duration": 0.227,
      "velocity": 95,
      "chip": "ym2612"
    },
    {
      "channel": 4,
      "note": 76,
      "start": 22.0541,
      "duration": 0.2271,
      "velocity": 95,
      "chip": "ym2612"
    },
    {
      "channel": 2,
      "note": 26,
      "start": 22.056,
      "duration": 0.0754,
      "velocity": 120,
      "chip": "ym2612"
    },
    {
      "channel": 0,
      "note": 85,
      "start": 22.2795,
      "duration": 0.4381,
      "velocity": 94,
      "chip": "ym2612"
    },
    {
      "channel": 1,
      "note": 49,
      "start": 22.2803,
      "duration": 0.2235,
      "velocity": 93,
      "chip": "ym2612"
    },
    {
      "channel": 3,
      "note": 71,
      "start": 22.281,
      "duration": 0.1095,
      "velocity": 95,
      "chip": "ym2612"
    },
    {
      "channel": 4,
      "note": 76,
      "start": 22.2817,
      "duration": 0.1094,
      "velocity": 95,
      "chip": "ym2612"
    },
    {
      "channel": 5,
      "note": 83,
      "start": 22.2825,
      "duration": 0.2228,
      "velocity": 94,
      "chip": "ym2612"
    },
    {
      "channel": 2,
      "note": 26,
      "start": 22.2841,
      "duration": 0.0585,
      "velocity": 120,
      "chip": "ym2612"
    },
    {
      "channel": 3,
      "note": 71,
      "start": 22.391,
      "duration": 0.3278,
      "velocity": 95,
      "chip": "ym2612"
    },
    {
      "channel": 4,
      "note": 76,
      "start": 22.3916,
      "duration": 0.3278,
      "velocity": 95,
      "chip": "ym2612"
    },
    {
      "channel": 1,
      "note": 56,
      "start": 22.5045,
      "duration": 0.0969,
      "velocity": 93,
      "chip": "ym2612"
    },
    {
      "channel": 5,
      "note": 85,
      "start": 22.506,
      "duration": 0.4421,
      "velocity": 94,
      "chip": "ym2612"
    },
    {
      "channel": 1,
      "note": 49,
      "start": 22.6021,
      "duration": 0.3439,
      "velocity": 93,
      "chip": "ym2612"
    },
    {
      "channel": 0,
      "note": 88,
      "start": 22.7183,
      "duration": 0.2268,
      "velocity": 94,
      "chip": "ym2612"
    },
    {
      "channel": 3,
      "note": 71,
      "start": 22.7193,
      "duration": 0.2276,
      "velocity": 95,
      "chip": "ym2612"
    },
    {
      "channel": 4,
      "note": 76,
      "start": 22.7199,
      "duration": 0.2276,
      "velocity": 95,
      "chip": "ym2612"
    },
    {
      "channel": 2,
      "note": 56,
      "start": 22.722,
      "duration": 0.1085,
      "velocity": 112,
      "chip": "ym2612"
    },
    {
      "channel": 0,
      "note": 85,
      "start": 22.9458,
      "duration": 0.2268,
      "velocity": 94,
      "chip": "ym2612"
    },
    {
      "channel": 1,
      "note": 54,
      "start": 22.9467,
      "duration": 0.2265,
      "velocity": 93,
      "chip": "ym2612"
    },
    {
      "channel": 3,
      "note": 71,
      "start": 22.9473,
      "duration": 0.2266,
      "velocity": 95,
      "chip": "ym2612"
    },
    {
      "channel": 4,
      "note": 76,
      "start": 22.948,
      "duration": 0.2268,
      "velocity": 95,
      "chip": "ym2612"
    },
    {
      "channel": 5,
      "note": 88,
      "start": 22.9488,
      "duration": 0.2266,
      "velocity": 94,
      "chip": "ym2612"
    },
    {
      "channel": 2,
      "note": 103,
      "start": 22.9505,
      "duration": 0.1398,
      "velocity": 103,
      "chip": "ym2612"
    },
    {
      "channel": 1,
      "note": 49,
      "start": 23.1738,
      "duration": 0.2103,
      "velocity": 93,
      "chip": "ym2612"
    },
    {
      "channel": 3,
      "note": 68,
      "start": 23.1746,
      "duration": 0.8929,
      "velocity": 95,
      "chip": "ym2612"
    },
    {
      "channel": 4,
      "note": 76,
      "start": 23.1752,
      "duration": 0.8927,
      "velocity": 95,
      "chip": "ym2612"
    },
    {
      "channel": 5,
      "note": 85,
      "start": 23.1761,
      "duration": 0.2095,
      "velocity": 94,
      "chip": "ym2612"
    },
    {
      "channel": 2,
      "note": 26,
      "start": 23.1777,
      "duration": 0.0586,
      "velocity": 120,
      "chip": "ym2612"
    },
    {
      "channel": 1,
      "note": 56,
      "start": 23.3847,
      "duration": 0.227,
      "velocity": 93,
      "chip": "ym2612"
    },
    {
      "channel": 2,
      "note": 26,
      "start": 23.3876,
      "duration": 0.0762,
      "velocity": 120,
      "chip": "ym2612"
    },
    {
      "channel": 1,
      "note": 49,
      "start": 23.6124,
      "duration": 0.2267,
      "velocity": 93,
      "chip": "ym2612"
    },
    {
      "channel": 2,
      "note": 56,
      "start": 23.615,
      "duration": 0.1089,
      "velocity": 112,
      "chip": "ym2612"
    },
    {
      "channel": 1,
      "note": 54,
      "start": 23.8398,
      "duration": 0.227,
      "velocity": 93,
      "chip": "ym2612"
    },
    {
      "channel": 2,
      "note": 26,
      "start": 23.8422,
      "duration": 0.0604,
      "velocity": 120,
      "chip": "ym2612"
    },
    {
      "channel": 1,
      "note": 49,
      "start": 24.0673,
      "duration": 0.2113,
      "velocity": 93,
      "chip": "ym2612"
    },
    {
      "channel": 2,
      "note": 26,
      "start": 24.0702,
      "duration": 0.0595,
      "velocity": 120,
      "chip": "ym2612"
    },
    {
      "channel": 3,
      "note": 68,
      "start": 24.1624,
      "duration": 0.6821,
      "velocity": 95,
      "chip": "ym2612"
    },
    {
      "channel": 4,
      "note": 76,
      "start": 24.1633,
      "duration": 0.6816,
      "velocity": 95,
      "chip": "ym2612"
    },
    {
      "channel": 0,
      "note": 90,
      "start": 24.2784,
      "duration": 0.4517,
      "velocity": 94,
      "chip": "ym2612"
    },
    {
      "channel": 1,
      "note": 56,
      "start": 24.2793,
      "duration": 0.1098,
      "velocity": 93,
      "chip": "ym2612"
    },
    {
      "channel": 2,
      "note": 103,
      "start": 24.2819,
      "duration": 0.1409,
      "velocity": 103,
      "chip": "ym2612"
    },
    {
      "channel": 1,
      "note": 49,
      "start": 24.3898,
      "duration": 0.3412,
      "velocity": 93,
      "chip": "ym2612"
    },
    {
      "channel": 5,
      "note": 90,
      "start": 24.5072,
      "duration": 0.4401,
      "velocity": 94,
      "chip": "ym2612"
    },
    {
      "channel": 2,
      "note": 56,
      "start": 24.509,
      "duration": 0.1092,
      "velocity": 112,
      "chip": "ym2612"
    },
    {
      "channel": 0,
      "note": 88,
      "start": 24.7308,
      "duration": 0.2133,
      "velocity": 94,
      "chip": "ym2612"
    },
    {
      "channel": 1,
      "note": 54,
      "start": 24.7315,
      "duration": 0.2134,
      "velocity": 93,
      "chip": "ym2612"
    },
    {
      "channel": 0,
      "note": 88,
      "start": 24.9448,
      "duration": 0.6819,
      "velocity": 94,
      "chip": "ym2612"
    },
    {
      "channel": 1,
      "note": 50,
      "start": 24.9455,
      "duration": 0.2263,
      "velocity": 93,
      "chip": "ym2612"
    },
    {
      "channel": 3,
      "note": 66,
      "start": 24.9464,
      "duration": 0.2263,
      "velocity": 95,
      "chip": "ym2612"
    },
    {
      "channel": 4,
      "note": 71,
      "start": 24.9473,
      "duration": 0.2261,
      "velocity": 95,
      "chip": "ym2612"
    },
    {
      "channel": 5,
      "note": 88,
      "start": 24.9481,
      "duration": 0.2259,
      "velocity": 94,
      "chip": "ym2612"
    },
    {
      "channel": 2,
      "note": 26,
      "start": 24.9497,
      "duration": 0.0744,
      "velocity": 120,
      "chip": "ym2612"
    },
    {
      "channel": 1,
      "note": 50,
      "start": 25.1725,
      "duration": 0.2271,
      "velocity": 93,
      "chip": "ym2612"
    },
    {
      "channel": 3,
      "note": 66,
      "start": 25.1732,
      "duration": 0.2271,
      "velocity": 95,
      "chip": "ym2612"
    },
    {
      "channel": 4,
      "note": 71,
      "start": 25.1738,
      "duration": 0.2271,
      "velocity": 95,
      "chip": "ym2612"
    },
    {
      "channel": 5,
      "note": 88,
      "start": 25.1747,
      "duration": 0.6661,
      "velocity": 94,
      "chip": "ym2612"
    },
    {
      "channel": 2,
      "note": 103,
      "start": 25.1764,
      "duration": 0.1404,
      "velocity": 103,
      "chip": "ym2612"
    },
    {
      "channel": 1,
      "note": 50,
      "start": 25.4002,
      "duration": 0.2273,
      "velocity": 93,
      "chip": "ym2612"
    },
    {
      "channel": 3,
      "note": 66,
      "start": 25.4008,
      "duration": 0.2274,
      "velocity": 95,
      "chip": "ym2612"
    },
    {
      "channel": 4,
      "note": 71,
      "start": 25.4015,
      "duration": 0.2275,
      "velocity": 95,
      "chip": "ym2612"
    },
    {
      "channel": 2,
      "note": 56,
      "start": 25.4036,
      "duration": 0.1083,
      "velocity": 112,
      "chip": "ym2612"
    },
    {
      "channel": 0,
      "note": 90,
      "start": 25.6273,
      "duration": 0.2105,
      "velocity": 94,
      "chip": "ym2612"
    },
    {
      "channel": 1,
      "note": 50,
      "start": 25.6281,
      "duration": 0.2106,
      "velocity": 93,
      "chip": "ym2612"
    },
    {
      "channel": 3,
      "note": 66,
      "start": 25.6287,
      "duration": 0.2108,
      "velocity": 95,
      "chip": "ym2612"
    },
    {
      "channel": 4,
      "note": 71,
      "start": 25.6294,
      "duration": 0.2107,
      "velocity": 95,
      "chip": "ym2612"
    },
    {
      "channel": 2,
      "note": 26,
      "start": 25.6315,
      "duration": 0.059,
      "velocity": 120,
      "chip": "ym2612"
    },
    {
      "channel": 0,
      "note": 90,
      "start": 25.8386,
      "duration": 0.8932,
      "velocity": 94,
      "chip": "ym2612"
    },
    {
      "channel": 1,
      "note": 50,
      "start": 25.8394,
      "duration": 0.2236,
      "velocity": 93,
      "chip": "ym2612"
    },
    {
      "channel": 3,
      "note": 66,
      "start": 25.8401,
      "duration": 0.1094,
      "velocity": 95,
      "chip": "ym2612"
    },
    {
      "channel": 4,
      "note": 71,
      "start": 25.8407,
      "duration": 0.1094,
      "velocity": 95,
      "chip": "ym2612"
    },
    {
      "channel": 5,
      "note": 90,
      "start": 25.8415,
      "duration": 0.2229,
      "velocity": 94,
      "chip": "ym2612"
    },
    {
      "channel": 2,
      "note": 26,
      "start": 25.8432,
      "duration": 0.0748,
      "velocity": 120,
      "chip": "ym2612"
    },
    {
      "channel": 3,
      "note": 66,
      "start": 25.95,
      "duration": 0.3441,
      "velocity": 95,
      "chip": "ym2612"
    },
    {
      "channel": 4,
      "note": 71,
      "start": 25.9507,
      "duration": 0.344,
      "velocity": 95,
      "chip": "ym2612"
    },
    {
      "channel": 1,
      "note": 50,
      "start": 26.0637,
      "duration": 0.2296,
      "velocity": 93,
      "chip": "ym2612"
    },
    {
      "channel": 5,
      "note": 90,
      "start": 26.0651,
      "duration": 0.8961,
      "velocity": 94,
      "chip": "ym2612"
    },
    {
      "channel": 1,
      "note": 50,
      "start": 26.2939,
      "duration": 0.2106,
      "velocity": 93,
      "chip": "ym2612"
    },
    {
      "channel": 3,
      "note": 66,
      "start": 26.2946,
      "duration": 0.2107,
      "velocity": 95,
      "chip": "ym2612"
    },
    {
      "channel": 4,
      "note": 71,
      "start": 26.2952,
      "duration": 0.2107,
      "velocity": 95,
      "chip": "ym2612"
    },
    {
      "channel": 2,
      "note": 56,
      "start": 26.2974,
      "duration": 0.1083,
      "velocity": 112,
      "chip": "ym2612"
    },
    {
      "channel": 1,
      "note": 50,
      "start": 26.5052,
      "duration": 0.2274,
      "velocity": 93,
      "chip": "ym2612"
    },
    {
      "channel": 3,
      "note": 66,
      "start": 26.5058,
      "duration": 0.2276,
      "velocity": 95,
      "chip": "ym2612"
    },
    {
      "channel": 4,
      "note": 71,
      "start": 26.5065,
      "duration": 0.2277,
      "velocity": 95,
      "chip": "ym2612"
    },
    {
      "channel": 2,
      "note": 103,
      "start": 26.5086,
      "duration": 0.1572,
      "velocity": 103,
      "chip": "ym2612"
    },
    {
      "channel": 0,
      "note": 93,
      "start": 26.7324,
      "duration": 0.8931,
      "velocity": 94,
      "chip": "ym2612"
    },
    {
      "channel": 1,
      "note": 52,
      "start": 26.7333,
      "duration": 0.2263,
      "velocity": 93,
      "chip": "ym2612"
    },
    {
      "channel": 3,
      "note": 64,
      "start": 26.734,
      "duration": 1.3315,
      "velocity": 95,
      "chip": "ym2612"
    },
    {
      "channel": 4,
      "note": 71,
      "start": 26.7347,
      "duration": 1.3314,
      "velocity": 95,
      "chip": "ym2612"
    },
    {
      "channel": 2,
      "note": 26,
      "start": 26.7368,
      "duration": 0.075,
      "velocity": 120,
      "chip": "ym2612"
    },
    {
      "channel": 1,
      "note": 52,
      "start": 26.9602,
      "duration": 0.2269,
      "velocity": 93,
      "chip": "ym2612"
    },
    {
      "channel": 5,
      "note": 93,
      "start": 26.9619,
      "duration": 0.8934,
      "velocity": 94,
      "chip": "ym2612"
    },
    {
      "channel": 2,
      "note": 26,
      "start": 26.9636,
      "duration": 0.0596,
      "velocity": 120,
      "chip": "ym2612"
    },
    {
      "channel": 1,
      "note": 52,
      "start": 27.1878,
      "duration": 0.2107,
      "velocity": 93,
      "chip": "ym2612"
    },
    {
      "channel": 2,
      "note": 56,
      "start": 27.1905,
      "duration": 0.0928,
      "velocity": 112,
      "chip": "ym2612"
    },
    {
      "channel": 1,
      "note": 52,
      "start": 27.3991,
      "duration": 0.2273,
      "velocity": 93,
      "chip": "ym2612"
    },
    {
      "channel": 2,
      "note": 26,
      "start": 27.4018,
      "duration": 0.0765,
      "velocity": 120,
      "chip": "ym2612"
    },
    {
      "channel": 0,
      "note": 95,
      "start": 27.6263,
      "duration": 0.2268,
      "velocity": 94,
      "chip": "ym2612"
    },
    {
      "channel": 1,
      "note": 52,
      "start": 27.627,
      "duration": 0.2268,
      "velocity": 93,
      "chip": "ym2612"
    },
    {
      "channel": 2,
      "note": 26,
      "start": 27.6298,
      "duration": 0.076,
      "velocity": 120,
      "chip": "ym2612"
    },
    {
      "channel": 0,
      "note": 93,
      "start": 27.8537,
      "duration": 0.2106,
      "velocity": 94,
      "chip": "ym2612"
    },
    {
      "channel": 1,
      "note": 59,
      "start": 27.8546,
      "duration": 0.1099,
      "velocity": 93,
      "chip": "ym2612"
    },
    {
      "channel": 5,
      "note": 95,
      "start": 27.856,
      "duration": 0.2109,
      "velocity": 94,
      "chip": "ym2612"
    },
    {
      "channel": 2,
      "note": 103,
      "start": 27.8578,
      "duration": 0.1405,
      "velocity": 103,
      "chip": "ym2612"
    },
    {
      "channel": 1,
      "note": 52,
      "start": 27.9651,
      "duration": 0.5554,
      "velocity": 93,
      "chip": "ym2612"
    },
    {
      "channel": 0,
      "note": 95,
      "start": 28.0651,
      "duration": 0.2241,
      "velocity": 94,
      "chip": "ym2612"
    },
    {
      "channel": 3,
      "note": 64,
      "start": 28.066,
      "duration": 0.1101,
      "velocity": 95,
      "chip": "ym2612"
    },
    {
      "channel": 4,
      "note": 69,
      "start": 28.0668,
      "duration": 0.1099,
      "velocity": 95,
      "chip": "ym2612"
    },
    {
      "channel": 5,
      "note": 93,
      "start": 28.0677,
      "duration": 0.2234,
      "velocity": 94,
      "chip": "ym2612"
    },
    {
      "channel": 2,
      "note": 56,
      "start": 28.0695,
      "duration": 0.1085,
      "velocity": 112,
      "chip": "ym2612"
    },
    {
      "channel": 3,
      "note": 64,
      "start": 28.1766,
      "duration": 0.3447,
      "velocity": 95,
      "chip": "ym2612"
    },
    {
      "channel": 4,
      "note": 68,
      "start": 28.1773,
      "duration": 0.3448,
      "velocity": 95,
      "chip": "ym2612"
    },
    {
      "channel": 0,
      "note": 97,
      "start": 28.2898,
      "duration": 0.2296,
      "velocity": 94,
      "chip": "ym2612"
    },
    {
      "channel": 5,
      "note": 95,
      "start": 28.2917,
      "duration": 0.2313,
      "velocity": 94,
      "chip": "ym2612"
    },
    {
      "channel": 0,
      "note": 86,
      "start": 28.5202,
      "duration": 0.6656,
      "velocity": 94,
      "chip": "ym2612"
    },
    {
      "channel": 1,
      "note": 50,
      "start": 28.5211,
      "duration": 0.2261,
      "velocity": 93,
      "chip": "ym2612"
    },
    {
      "channel": 3,
      "note": 66,
      "start": 28.522,
      "duration": 0.4372,
      "velocity": 95,
      "chip": "ym2612"
    },
    {
      "channel": 4,
      "note": 73,
      "start": 28.5229,
      "duration": 0.437,
      "velocity": 95,
      "chip": "ym2612"
    },
    {
      "channel": 5,
      "note": 97,
      "start": 28.5237,
      "duration": 0.2251,
      "velocity": 94,
      "chip": "ym2612"
    },
    {
      "channel": 2,
      "note": 26,
      "start": 28.5254,
      "duration": 0.0578,
      "velocity": 120,
      "chip": "ym2612"
    },
    {
      "channel": 1,
      "note": 50,
      "start": 28.7478,
      "duration": 0.2108,
      "velocity": 93,
      "chip": "ym2612"
    },
    {
      "channel": 5,
      "note": 86,
      "start": 28.7494,
      "duration": 0.6659,
      "velocity": 94,
      "chip": "ym2612"
    },
    {
      "channel": 2,
      "note": 103,
      "start": 28.7511,
      "duration": 0.141,
      "velocity": 103,
      "chip": "ym2612"
    },
    {
      "channel": 1,
      "note": 50,
      "start": 28.9591,
      "duration": 0.2275,
      "velocity": 93,
      "chip": "ym2612"
    },
    {
      "channel": 3,
      "note": 66,
      "start": 28.9597,
      "duration": 0.4543,
      "velocity": 95,
      "chip": "ym2612"
    },
    {
      "channel": 4,
      "note": 73,
      "start": 28.9604,
      "duration": 0.4543,
      "velocity": 95,
      "chip": "ym2612"
    },
    {
      "channel": 2,
      "note": 56,
      "start": 28.9625,
      "duration": 0.1085,
      "velocity": 112,
      "chip": "ym2612"
    },
    {
      "channel": 0,
      "note": 85,
      "start": 29.1864,
      "duration": 0.6657,
      "velocity": 94,
      "chip": "ym2612"
    },
    {
      "channel": 1,
      "note": 50,
      "start": 29.1871,
      "duration": 0.4351,
      "velocity": 93,
      "chip": "ym2612"
    },
    {
      "channel": 2,
      "note": 26,
      "start": 29.1899,
      "duration": 0.076,
      "velocity": 120,
      "chip": "ym2612"
    },
    {
      "channel": 3,
      "note": 66,
      "start": 29.4145,
      "duration": 0.2083,
      "velocity": 95,
      "chip": "ym2612"
    },
    {
      "channel": 4,
      "note": 73,
      "start": 29.4152,
      "duration": 0.2083,
      "velocity": 95,
      "chip": "ym2612"
    },
    {
      "channel": 5,
      "note": 85,
      "start": 29.416,
      "duration": 0.6662,
      "velocity": 94,
      "chip": "ym2612"
    },
    {
      "channel": 2,
      "note": 26,
      "start": 29.4177,
      "duration": 0.0595,
      "velocity": 120,
      "chip": "ym2612"
    },
    {
      "channel": 1,
      "note": 50,
      "start": 29.6227,
      "duration": 0.2302,
      "velocity": 93,
      "chip": "ym2612"
    },
    {
      "channel": 3,
      "note": 66,
      "start": 29.6233,
      "duration": 0.4575,
      "velocity": 95,
      "chip": "ym2612"
    },
    {
      "channel": 4,
      "note": 73,
      "start": 29.624,
      "duration": 0.4576,
      "velocity": 95,
      "chip": "ym2612"
    },
    {
      "channel": 0,
      "note": 83,
      "start": 29.8527,
      "duration": 0.2268,
      "velocity": 94,
      "chip": "ym2612"
    },
    {
      "channel": 1,
      "note": 50,
      "start": 29.8534,
      "duration": 0.227,
      "velocity": 93,
      "chip": "ym2612"
    },
    {
      "channel": 2,
      "note": 56,
      "start": 29.8563,
      "duration": 0.1085,
      "velocity": 112,
      "chip": "ym2612"
    },
    {
      "channel": 0,
      "note": 81,
      "start": 30.0803,
      "duration": 0.2268,
      "velocity": 94,
      "chip": "ym2612"
    },
    {
      "channel": 3,
      "note": 66,
      "start": 30.0813,
      "duration": 0.2274,
      "velocity": 95,
      "chip": "ym2612"
    },
    {
      "channel": 4,
      "note": 73,
      "start": 30.082,
      "duration": 0.2273,
      "velocity": 95,
      "chip": "ym2612"
    },
    {
      "channel": 5,
      "note": 83,
      "start": 30.0829,
      "duration": 0.2271,
      "velocity": 94,
      "chip": "ym2612"
    },
    {
      "channel": 2,
      "note": 103,
      "start": 30.0846,
      "duration": 0.1399,
      "velocity": 103,
      "chip": "ym2612"
    },
    {
      "channel": 0,
      "note": 83,
      "start": 30.3078,
      "duration": 0.6656,
      "velocity": 94,
      "chip": "ym2612"
    },
    {
      "channel": 1,
      "note": 49,
      "start": 30.3086,
      "duration": 0.2101,
      "velocity": 93,
      "chip": "ym2612"
    },
    {
      "channel": 3,
      "note": 66,
      "start": 30.3092,
      "duration": 0.4377,
      "velocity": 95,
      "chip": "ym2612"
    },
    {
      "channel": 4,
      "note": 73,
      "start": 30.3098,
      "duration": 0.4378,
      "velocity": 95,
      "chip": "ym2612"
    },
    {
      "channel": 5,
      "note": 81,
      "start": 30.3107,
      "duration": 0.2093,
      "velocity": 94,
      "chip": "ym2612"
    },
    {
      "channel": 2,
      "note": 26,
      "start": 30.3123,
      "duration": 0.0585,
      "velocity": 120,
      "chip": "ym2612"
    },
    {
      "channel": 1,
      "note": 49,
      "start": 30.5192,
      "duration": 0.227,
      "velocity": 93,
      "chip": "ym2612"
    },
    {
      "channel": 5,
      "note": 83,
      "start": 30.5207,
      "duration": 0.6661,
      "velocity": 94,
      "chip": "ym2612"
    },
    {
      "channel": 2,
      "note": 26,
      "start": 30.5224,
      "duration": 0.0761,
      "velocity": 120,
      "chip": "ym2612"
    },
    {
      "channel": 1,
      "note": 49,
      "start": 30.7468,
      "duration": 0.2274,
      "velocity": 93,
      "chip": "ym2612"
    },
    {
      "channel": 3,
      "note": 66,
      "start": 30.7474,
      "duration": 0.4378,
      "velocity": 95,
      "chip": "ym2612"
    },
    {
      "channel": 4,
      "note": 73,
      "start": 30.7481,
      "duration": 0.438,
      "velocity": 95,
      "chip": "ym2612"
    },
    {
      "channel": 2,
      "note": 56,
      "start": 30.7502,
      "duration": 0.1084,
      "velocity": 112,
      "chip": "ym2612"
    },
    {
      "channel": 0,
      "note": 85,
      "start": 30.9741,
      "duration": 1.1044,
      "velocity": 94,
      "chip": "ym2612"
    },
    {
      "channel": 1,
      "note": 49,
      "start": 30.9747,
      "duration": 0.4378,
      "velocity": 93,
      "chip": "ym2612"
    },
    {
      "channel": 2,
      "note": 26,
      "start": 30.9776,
      "duration": 0.0597,
      "velocity": 120,
      "chip": "ym2612"
    },
    {
      "channel": 3,
      "note": 64,
      "start": 31.1859,
      "duration": 0.2274,
      "velocity": 95,
      "chip": "ym2612"
    },
    {
      "channel": 4,
      "note": 73,
      "start": 31.1866,
      "duration": 0.2273,
      "velocity": 95,
      "chip": "ym2612"
    },
    {
      "channel": 5,
      "note": 85,
      "start": 31.1875,
      "duration": 1.1209,
      "velocity": 94,
      "chip": "ym2612"
    },
    {
      "channel": 2,
      "note": 26,
      "start": 31.1891,
      "duration": 0.0757,
      "velocity": 120,
      "chip": "ym2612"
    },
    {
      "channel": 1,
      "note": 49,
      "start": 31.4131,
      "duration": 0.227,
      "velocity": 93,
      "chip": "ym2612"
    },
    {
      "channel": 3,
      "note": 64,
      "start": 31.4138,
      "duration": 0.4515,
      "velocity": 95,
      "chip": "ym2612"
    },
    {
      "channel": 4,
      "note": 73,
      "start": 31.4145,
      "duration": 0.4515,
      "velocity": 95,
      "chip": "ym2612"
    },
    {
      "channel": 2,
      "note": 103,
      "start": 31.4165,
      "duration": 0.1409,
      "velocity": 103,
      "chip": "ym2612"
    },
    {
      "channel": 1,
      "note": 49,
      "start": 31.6406,
      "duration": 0.2242,
      "velocity": 93,
      "chip": "ym2612"
    },
    {
      "channel": 2,
      "note": 56,
      "start": 31.6435,
      "duration": 0.109,
      "velocity": 112,
      "chip": "ym2612"
    },
    {
      "channel": 3,
      "note": 64,
      "start": 31.8658,
      "duration": 0.2141,
      "velocity": 95,
      "chip": "ym2612"
    },
    {
      "channel": 4,
      "note": 73,
      "start": 31.8665,
      "duration": 0.2142,
      "velocity": 95,
      "chip": "ym2612"
    },
    {
      "channel": 1,
      "note": 50,
      "start": 32.0797,
      "duration": 0.2271,
      "velocity": 93,
      "chip": "ym2612"
    },
    {
      "channel": 3,
      "note": 62,
      "start": 32.0806,
      "duration": 0.4539,
      "velocity": 95,
      "chip": "ym2612"
    },
    {
      "channel": 4,
      "note": 71,
      "start": 32.0814,
      "duration": 0.4539,
      "velocity": 95,
      "chip": "ym2612"
    },
    {
      "channel": 2,
      "note": 26,
      "start": 32.0834,
      "duration": 0.0751,
      "velocity": 120,
      "chip": "ym2612"
    },
    {
      "channel": 0,
      "note": 88,
      "start": 32.3067,
      "duration": 0.6656,
      "velocity": 94,
      "chip": "ym2612"
    },
    {
      "channel": 1,
      "note": 50,
      "start": 32.3074,
      "duration": 0.2265,
      "velocity": 93,
      "chip": "ym2612"
    },
    {
      "channel": 2,
      "note": 103,
      "start": 32.3104,
      "duration": 0.1405,
      "velocity": 103,
      "chip": "ym2612"
    },
    {
      "channel": 1,
      "note": 50,
      "start": 32.5344,
      "duration": 0.2108,
      "velocity": 93,
      "chip": "ym2612"
    },
    {
      "channel": 3,
      "note": 66,
      "start": 32.5352,
      "duration": 0.4384,
      "velocity": 95,
      "chip": "ym2612"
    },
    {
      "channel": 4,
      "note": 71,
      "start": 32.5359,
      "duration": 0.4385,
      "velocity": 95,
      "chip": "ym2612"
    },
    {
      "channel": 5,
      "note": 88,
      "start": 32.5367,
      "duration": 0.6636,
      "velocity": 94,
      "chip": "ym2612"
    },
    {
      "channel": 2,
      "note": 56,
      "start": 32.5384,
      "duration": 0.108,
      "velocity": 112,
      "chip": "ym2612"
    },
    {
      "channel": 1,
      "note": 50,
      "start": 32.7457,
      "duration": 0.4522,
      "velocity": 93,
      "chip": "ym2612"
    },
    {
      "channel": 2,
      "note": 26,
      "start": 32.7485,
      "duration": 0.0765,
      "velocity": 120,
      "chip": "ym2612"
    },
    {
      "channel": 0,
      "note": 86,
      "start": 32.973,
      "duration": 0.2241,
      "velocity": 94,
      "chip": "ym2612"
    },
    {
      "channel": 3,
      "note": 62,
      "start": 32.9742,
      "duration": 0.2244,
      "velocity": 95,
      "chip": "ym2612"
    },
    {
      "channel": 4,
      "note": 69,
      "start": 32.9751,
      "duration": 0.2244,
      "velocity": 95,
      "chip": "ym2612"
    },
    {
      "channel": 2,
      "note": 26,
      "start": 32.9771,
      "duration": 0.0754,
      "velocity": 120,
      "chip": "ym2612"
    },
    {
      "channel": 0,
      "note": 88,
      "start": 33.1978,
      "duration": 0.4408,
      "velocity": 94,
      "chip": "ym2612"
    },
    {
      "channel": 1,
      "note": 50,
      "start": 33.1985,
      "duration": 0.2292,
      "velocity": 93,
      "chip": "ym2612"
    },
    {
      "channel": 3,
      "note": 66,
      "start": 33.1993,
      "duration": 0.4406,
      "velocity": 95,
      "chip": "ym2612"
    },
    {
      "channel": 4,
      "note": 73,
      "start": 33.2001,
      "duration": 0.4405,
      "velocity": 95,
      "chip": "ym2612"
    },
    {
      "channel": 5,
      "note": 86,
      "start": 33.2009,
      "duration": 0.2283,
      "velocity": 94,
      "chip": "ym2612"
    },
    {
      "channel": 1,
      "note": 50,
      "start": 33.4282,
      "duration": 0.2113,
      "velocity": 93,
      "chip": "ym2612"
    },
    {
      "channel": 5,
      "note": 88,
      "start": 33.4299,
      "duration": 0.4396,
      "velocity": 94,
      "chip": "ym2612"
    },
    {
      "channel": 2,
      "note": 56,
      "start": 33.4317,
      "duration": 0.0922,
      "velocity": 112,
      "chip": "ym2612"
    },
    {
      "channel": 0,
      "note": 90,
      "start": 33.6394,
      "duration": 0.2268,
      "velocity": 94,
      "chip": "ym2612"
    },
    {
      "channel": 3,
      "note": 66,
      "start": 33.6405,
      "duration": 0.2274,
      "velocity": 95,
      "chip": "ym2612"
    },
    {
      "channel": 4,
      "note": 69,
      "start": 33.6413,
      "duration": 0.2273,
      "velocity": 95,
      "chip": "ym2612"
    },
    {
      "channel": 2,
      "note": 103,
      "start": 33.6434,
      "duration": 0.1403,
      "velocity": 103,
      "chip": "ym2612"
    },
    {
      "channel": 0,
      "note": 92,
      "start": 33.8669,
      "duration": 0.8931,
      "velocity": 94,
      "chip": "ym2612"
    },
    {
      "channel": 1,
      "note": 52,
      "start": 33.8677,
      "duration": 0.2263,
      "velocity": 93,
      "chip": "ym2612"
    },
    {
      "channel": 3,
      "note": 62,
      "start": 33.8685,
      "duration": 0.4375,
      "velocity": 95,
      "chip": "ym2612"
    },
    {
      "channel": 4,
      "note": 71,
      "start": 33.8693,
      "duration": 0.4373,
      "velocity": 95,
      "chip": "ym2612"
    },
    {
      "channel": 5,
      "note": 90,
      "start": 33.8702,
      "duration": 0.2254,
      "velocity": 94,
      "chip": "ym2612"
    },
    {
      "channel": 2,
      "note": 26,
      "start": 33.8718,
      "duration": 0.0744,
      "velocity": 120,
      "chip": "ym2612"
    },
    {
      "channel": 1,
      "note": 52,
      "start": 34.0945,
      "duration": 0.2109,
      "velocity": 93,
      "chip": "ym2612"
    },
    {
      "channel": 5,
      "note": 92,
      "start": 34.0962,
      "duration": 0.8943,
      "velocity": 94,
      "chip": "ym2612"
    },
    {
      "channel": 2,
      "note": 26,
      "start": 34.0979,
      "duration": 0.0597,
      "velocity": 120,
      "chip": "ym2612"
    },
    {
      "channel": 1,
      "note": 52,
      "start": 34.3059,
      "duration": 0.2269,
      "velocity": 93,
      "chip": "ym2612"
    },
    {
      "channel": 3,
      "note": 62,
      "start": 34.3065,
      "duration": 0.4547,
      "velocity": 95,
      "chip": "ym2612"
    },
    {
      "channel": 4,
      "note": 71,
      "start": 34.3072,
      "duration": 0.4547,
      "velocity": 95,
      "chip": "ym2612"
    },
    {
      "channel": 2,
      "note": 56,
      "start": 34.3093,
      "duration": 0.1085,
      "velocity": 112,
      "chip": "ym2612"
    },
    {
      "channel": 1,
      "note": 52,
      "start": 34.5333,
      "duration": 0.455,
      "velocity": 93,
      "chip": "ym2612"
    },
    {
      "channel": 2,
      "note": 26,
      "start": 34.5362,
      "duration": 0.0765,
      "velocity": 120,
      "chip": "ym2612"
    },
    {
      "channel": 0,
      "note": 90,
      "start": 34.7607,
      "duration": 0.2268,
      "velocity": 94,
      "chip": "ym2612"
    },
    {
      "channel": 3,
      "note": 62,
      "start": 34.7617,
      "duration": 0.2272,
      "velocity": 95,
      "chip": "ym2612"
    },
    {
      "channel": 4,
      "note": 71,
      "start": 34.7624,
      "duration": 0.2274,
      "velocity": 95,
      "chip": "ym2612"
    },
    {
      "channel": 2,
      "note": 26,
      "start": 34.7646,
      "duration": 0.0593,
      "velocity": 120,
      "chip": "ym2612"
    },
    {
      "channel": 0,
      "note": 92,
      "start": 34.9882,
      "duration": 0.4354,
      "velocity": 94,
      "chip": "ym2612"
    },
    {
      "channel": 1,
      "note": 52,
      "start": 34.9888,
      "duration": 0.2103,
      "velocity": 93,
      "chip": "ym2612"
    },
    {
      "channel": 3,
      "note": 64,
      "start": 34.9896,
      "duration": 0.4353,
      "velocity": 95,
      "chip": "ym2612"
    },
    {
      "channel": 4,
      "note": 71,
      "start": 34.9903,
      "duration": 0.4352,
      "velocity": 95,
      "chip": "ym2612"
    },
    {
      "channel": 5,
      "note": 90,
      "start": 34.9911,
      "duration": 0.2094,
      "velocity": 94,
      "chip": "ym2612"
    },
    {
      "channel": 2,
      "note": 103,
      "start": 34.9929,
      "duration": 0.1398,
      "velocity": 103,
      "chip": "ym2612"
    },
    {
      "channel": 1,
      "note": 52,
      "start": 35.1997,
      "duration": 0.2248,
      "velocity": 93,
      "chip": "ym2612"
    },
    {
      "channel": 5,
      "note": 92,
      "start": 35.2012,
      "duration": 0.4559,
      "velocity": 94,
      "chip": "ym2612"
    },
    {
      "channel": 2,
      "note": 56,
      "start": 35.2029,
      "duration": 0.1087,
      "velocity": 112,
      "chip": "ym2612"
    },
    {
      "channel": 0,
      "note": 95,
      "start": 35.4243,
      "duration": 0.2296,
      "velocity": 94,
      "chip": "ym2612"
    },
    {
      "channel": 3,
      "note": 64,
      "start": 35.4254,
      "duration": 0.2301,
      "velocity": 95,
      "chip": "ym2612"
    },
    {
      "channel": 4,
      "note": 71,
      "start": 35.4261,
      "duration": 0.2301,
      "velocity": 95,
      "chip": "ym2612"
    },
    {
      "channel": 0,
      "note": 93,
      "start": 35.6546,
      "duration": 0.8931,
      "velocity": 94,
      "chip": "ym2612"
    },
    {
      "channel": 1,
      "note": 54,
      "start": 35.6554,
      "duration": 0.21,
      "velocity": 93,
      "chip": "ym2612"
    },
    {
      "channel": 3,
      "note": 64,
      "start": 35.6561,
      "duration": 0.21,
      "velocity": 95,
      "chip": "ym2612"
    },
    {
      "channel": 4,
      "note": 69,
      "start": 35.6569,
      "duration": 0.2099,
      "velocity": 95,
      "chip": "ym2612"
    },
    {
      "channel": 5,
      "note": 95,
      "start": 35.6578,
      "duration": 0.2097,
      "velocity": 94,
      "chip": "ym2612"
    },
    {
      "channel": 2,
      "note": 26,
      "start": 35.6594,
      "duration": 0.0583,
      "velocity": 120,
      "chip": "ym2612"
    },
    {
      "channel": 1,
      "note": 54,
      "start": 35.866,
      "duration": 0.2271,
      "velocity": 93,
      "chip": "ym2612"
    },
    {
      "channel": 3,
      "note": 64,
      "start": 35.8666,
      "duration": 0.2271,
      "velocity": 95,
      "chip": "ym2612"
    },
    {
      "channel": 4,
      "note": 69,
      "start": 35.8673,
      "duration": 0.2271,
      "velocity": 95,
      "chip": "ym2612"
    },
    {
      "channel": 5,
      "note": 93,
      "start": 35.8681,
      "duration": 0.8907,
      "velocity": 94,
      "chip": "ym2612"
    },
    {
      "channel": 2,
      "note": 103,
      "start": 35.8698,
      "duration": 0.1567,
      "velocity": 103,
      "chip": "ym2612"
    },
    {
      "channel": 1,
      "note": 54,
      "start": 36.0936,
      "duration": 0.2269,
      "velocity": 93,
      "chip": "ym2612"
    },
    {
      "channel": 3,
      "note": 64,
      "start": 36.0942,
      "duration": 0.2269,
      "velocity": 95,
      "chip": "ym2612"
    },
    {
      "channel": 4,
      "note": 69,
      "start": 36.0948,
      "duration": 0.2269,
      "velocity": 95,
      "chip": "ym2612"
    },
    {
      "channel": 2,
      "note": 56,
      "start": 36.097,
      "duration": 0.1084,
      "velocity": 112,
      "chip": "ym2612"
    },
    {
      "channel": 1,
      "note": 54,
      "start": 36.321,
      "duration": 0.2276,
      "velocity": 93,
      "chip": "ym2612"
    },
    {
      "channel": 3,
      "note": 64,
      "start": 36.3216,
      "duration": 0.2276,
      "velocity": 95,
      "chip": "ym2612"
    },
    {
      "channel": 4,
      "note": 69,
      "start": 36.3222,
      "duration": 0.2276,
      "velocity": 95,
      "chip": "ym2612"
    },
    {
      "channel": 2,
      "note": 26,
      "start": 36.3243,
      "duration": 0.0599,
      "velocity": 120,
      "chip": "ym2612"
    },
    {
      "channel": 0,
      "note": 92,
      "start": 36.5484,
      "duration": 0.2078,
      "velocity": 94,
      "chip": "ym2612"
    },
    {
      "channel": 1,
      "note": 54,
      "start": 36.549,
      "duration": 0.208,
      "velocity": 93,
      "chip": "ym2612"
    },
    {
      "channel": 3,
      "note": 64,
      "start": 36.5497,
      "duration": 0.2078,
      "velocity": 95,
      "chip": "ym2612"
    },
    {
      "channel": 4,
      "note": 69,
      "start": 36.5504,
      "duration": 0.2078,
      "velocity": 95,
      "chip": "ym2612"
    },
    {
      "channel": 2,
      "note": 26,
      "start": 36.5523,
      "duration": 0.0592,
      "velocity": 120,
      "chip": "ym2612"
    },
    {
      "channel": 0,
      "note": 93,
      "start": 36.7569,
      "duration": 0.4571,
      "velocity": 94,
      "chip": "ym2612"
    },
    {
      "channel": 3,
      "note": 64,
      "start": 36.758,
      "duration": 0.2295,
      "velocity": 95,
      "chip": "ym2612"
    },
    {
      "channel": 4,
      "note": 69,
      "start": 36.7587,
      "duration": 0.2295,
      "velocity": 95,
      "chip": "ym2612"
    },
    {
      "channel": 5,
      "note": 92,
      "start": 36.7595,
      "duration": 0.2293,
      "velocity": 94,
      "chip": "ym2612"
    },
    {
      "channel": 1,
      "note": 54,
      "start": 36.9874,
      "duration": 0.2274,
      "velocity": 93,
      "chip": "ym2612"
    },
    {
      "channel": 3,
      "note": 64,
      "start": 36.988,
      "duration": 0.2276,
      "velocity": 95,
      "chip": "ym2612"
    },
    {
      "channel": 4,
      "note": 69,
      "start": 36.9887,
      "duration": 0.2276,
      "velocity": 95,
      "chip": "ym2612"
    },
    {
      "channel": 5,
      "note": 93,
      "start": 36.9895,
      "duration": 0.4388,
      "velocity": 94,
      "chip": "ym2612"
    },
    {
      "channel": 2,
      "note": 56,
      "start": 36.9913,
      "duration": 0.108,
      "velocity": 112,
      "chip": "ym2612"
    },
    {
      "channel": 0,
      "note": 92,
      "start": 37.2147,
      "duration": 0.1104,
      "velocity": 94,
      "chip": "ym2612"
    },
    {
      "channel": 1,
      "note": 54,
      "start": 37.2154,
      "duration": 0.2106,
      "velocity": 93,
      "chip": "ym2612"
    },
    {
      "channel": 3,
      "note": 64,
      "start": 37.2161,
      "duration": 0.2107,
      "velocity": 95,
      "chip": "ym2612"
    },
    {
      "channel": 4,
      "note": 69,
      "start": 37.2168,
      "duration": 0.211,
      "velocity": 95,
      "chip": "ym2612"
    },
    {
      "channel": 2,
      "note": 103,
      "start": 37.2188,
      "duration": 0.1405,
      "velocity": 103,
      "chip": "ym2612"
    },
    {
      "channel": 0,
      "note": 90,
      "start": 37.3257,
      "duration": 0.0995,
      "velocity": 94,
      "chip": "ym2612"
    },
    {
      "channel": 0,
      "note": 87,
      "start": 37.4259,
      "duration": 0.8931,
      "velocity": 94,
      "chip": "ym2612"
    },
    {
      "channel": 1,
      "note": 53,
      "start": 37.4268,
      "duration": 0.2263,
      "velocity": 93,
      "chip": "ym2612"
    },
    {
      "channel": 3,
      "note": 63,
      "start": 37.4275,
      "duration": 0.2261,
      "velocity": 95,
      "chip": "ym2612"
    },
    {
      "channel": 4,
      "note": 69,
      "start": 37.4282,
      "duration": 0.2263,
      "velocity": 95,
      "chip": "ym2612"
    },
    {
      "channel": 5,
      "note": 92,
      "start": 37.429,
      "duration": 0.1085,
      "velocity": 94,
      "chip": "ym2612"
    },
    {
      "channel": 2,
      "note": 26,
      "start": 37.4308,
      "duration": 0.0746,
      "velocity": 120,
      "chip": "ym2612"
    },
    {
      "channel": 5,
      "note": 90,
      "start": 37.5383,
      "duration": 0.1169,
      "velocity": 94,
      "chip": "ym2612"
    },
    {
      "channel": 1,
      "note": 53,
      "start": 37.6536,
      "duration": 0.2271,
      "velocity": 93,
      "chip": "ym2612"
    },
    {
      "channel": 3,
      "note": 63,
      "start": 37.6544,
      "duration": 0.227,
      "velocity": 95,
      "chip": "ym2612"
    },
    {
      "channel": 4,
      "note": 69,
      "start": 37.655,
      "duration": 0.2272,
      "velocity": 95,
      "chip": "ym2612"
    },
    {
      "channel": 5,
      "note": 87,
      "start": 37.6558,
      "duration": 0.8931,
      "velocity": 94,
      "chip": "ym2612"
    },
    {
      "channel": 2,
      "note": 26,
      "start": 37.6575,
      "duration": 0.0754,
      "velocity": 120,
      "chip": "ym2612"
    },
    {
      "channel": 1,
      "note": 53,
      "start": 37.8812,
      "duration": 0.2269,
      "velocity": 93,
      "chip": "ym2612"
    },
    {
      "channel": 3,
      "note": 63,
      "start": 37.882,
      "duration": 0.2268,
      "velocity": 95,
      "chip": "ym2612"
    },
    {
      "channel": 4,
      "note": 69,
      "start": 37.8827,
      "duration": 0.2269,
      "velocity": 95,
      "chip": "ym2612"
    },
    {
      "channel": 2,
      "note": 56,
      "start": 37.8848,
      "duration": 0.1083,
      "velocity": 112,
      "chip": "ym2612"
    },
    {
      "channel": 1,
      "note": 53,
      "start": 38.1086,
      "duration": 0.2112,
      "velocity": 93,
      "chip": "ym2612"
    },
    {
      "channel": 3,
      "note": 63,
      "start": 38.1095,
      "duration": 0.2111,
      "velocity": 95,
      "chip": "ym2612"
    },
    {
      "channel": 4,
      "note": 69,
      "start": 38.1101,
      "duration": 0.2113,
      "velocity": 95,
      "chip": "ym2612"
    },
    {
      "channel": 2,
      "note": 26,
      "start": 38.1121,
      "duration": 0.0596,
      "velocity": 120,
      "chip": "ym2612"
    },
    {
      "channel": 0,
      "note": 95,
      "start": 38.3198,
      "duration": 0.4544,
      "velocity": 94,
      "chip": "ym2612"
    },
    {
      "channel": 1,
      "note": 53,
      "start": 38.3204,
      "duration": 0.2265,
      "velocity": 93,
      "chip": "ym2612"
    },
    {
      "channel": 3,
      "note": 63,
      "start": 38.3212,
      "duration": 0.2262,
      "velocity": 95,
      "chip": "ym2612"
    },
    {
      "channel": 4,
      "note": 69,
      "start": 38.3219,
      "duration": 0.2264,
      "velocity": 95,
      "chip": "ym2612"
    },
    {
      "channel": 2,
      "note": 26,
      "start": 38.324,
      "duration": 0.0753,
      "velocity": 120,
      "chip": "ym2612"
    },
    {
      "channel": 3,
      "note": 63,
      "start": 38.5481,
      "duration": 0.2277,
      "velocity": 95,
      "chip": "ym2612"
    },
    {
      "channel": 4,
      "note": 69,
      "start": 38.5488,
      "duration": 0.2278,
      "velocity": 95,
      "chip": "ym2612"
    },
    {
      "channel": 5,
      "note": 95,
      "start": 38.5496,
      "duration": 0.4356,
      "velocity": 94,
      "chip": "ym2612"
    },
    {
      "channel": 2,
      "note": 103,
      "start": 38.5513,
      "duration": 0.1403,
      "velocity": 103,
      "chip": "ym2612"
    },
    {
      "channel": 0,
      "note": 93,
      "start": 38.7749,
      "duration": 0.4381,
      "velocity": 94,
      "chip": "ym2612"
    },
    {
      "channel": 1,
      "note": 53,
      "start": 38.7756,
      "duration": 0.2074,
      "velocity": 93,
      "chip": "ym2612"
    },
    {
      "channel": 3,
      "note": 63,
      "start": 38.7764,
      "duration": 0.2073,
      "velocity": 95,
      "chip": "ym2612"
    },
    {
      "channel": 4,
      "note": 69,
      "start": 38.7771,
      "duration": 0.2075,
      "velocity": 95,
      "chip": "ym2612"
    },
    {
      "channel": 2,
      "note": 56,
      "start": 38.7792,
      "duration": 0.1076,
      "velocity": 112,
      "chip": "ym2612"
    },
    {
      "channel": 1,
      "note": 53,
      "start": 38.9836,
      "duration": 0.2302,
      "velocity": 93,
      "chip": "ym2612"
    },
    {
      "channel": 3,
      "note": 63,
      "start": 38.9844,
      "duration": 0.2303,
      "velocity": 95,
      "chip": "ym2612"
    },
    {
      "channel": 4,
      "note": 69,
      "start": 38.9851,
      "duration": 0.2303,
      "velocity": 95,
      "chip": "ym2612"
    },
    {
      "channel": 5,
      "note": 93,
      "start": 38.9859,
      "duration": 0.4569,
      "velocity": 94,
      "chip": "ym2612"
    },
    {
      "channel": 0,
      "note": 90,
      "start": 39.2137,
      "duration": 0.6655,
      "velocity": 94,
      "chip": "ym2612"
    },
    {
      "channel": 1,
      "note": 52,
      "start": 39.2146,
      "duration": 0.2262,
      "velocity": 93,
      "chip": "ym2612"
    },
    {
      "channel": 3,
      "note": 64,
      "start": 39.2153,
      "duration": 0.2261,
      "velocity": 95,
      "chip": "ym2612"
    },
    {
      "channel": 4,
      "note": 71,
      "start": 39.2161,
      "duration": 0.2261,
      "velocity": 95,
      "chip": "ym2612"
    },
    {
      "channel": 2,
      "note": 26,
      "start": 39.2182,
      "duration": 0.0749,
      "velocity": 120,
      "chip": "ym2612"
    },
    {
      "channel": 1,
      "note": 52,
      "start": 39.4413,
      "duration": 0.227,
      "velocity": 93,
      "chip": "ym2612"
    },
    {
      "channel": 3,
      "note": 64,
      "start": 39.4421,
      "duration": 0.2268,
      "velocity": 95,
      "chip": "ym2612"
    },
    {
      "channel": 4,
      "note": 71,
      "start": 39.4427,
      "duration": 0.227,
      "velocity": 95,
      "chip": "ym2612"
    },
    {
      "channel": 5,
      "note": 90,
      "start": 39.4436,
      "duration": 0.6656,
      "velocity": 94,
      "chip": "ym2612"
    },
    {
      "channel": 2,
      "note": 103,
      "start": 39.4453,
      "duration": 0.1403,
      "velocity": 103,
      "chip": "ym2612"
    },
    {
      "channel": 1,
      "note": 52,
      "start": 39.6688,
      "duration": 0.2114,
      "velocity": 93,
      "chip": "ym2612"
    },
    {
      "channel": 3,
      "note": 64,
      "start": 39.6696,
      "duration": 0.2112,
      "velocity": 95,
      "chip": "ym2612"
    },
    {
      "channel": 4,
      "note": 71,
      "start": 39.6702,
      "duration": 0.2113,
      "velocity": 95,
      "chip": "ym2612"
    },
    {
      "channel": 2,
      "note": 56,
      "start": 39.6723,
      "duration": 0.0922,
      "velocity": 112,
      "chip": "ym2612"
    },
    {
      "channel": 0,
      "note": 88,
      "start": 39.88,
      "duration": 0.6656,
      "velocity": 94,
      "chip": "ym2612"
    },
    {
      "channel": 1,
      "note": 52,
      "start": 39.8807,
      "duration": 0.2264,
      "velocity": 93,
      "chip": "ym2612"
    },
    {
      "channel": 3,
      "note": 64,
      "start": 39.8814,
      "duration": 0.2263,
      "velocity": 95,
      "chip": "ym2612"
    },
    {
      "channel": 4,
      "note": 71,
      "start": 39.8821,
      "duration": 0.2264,
      "velocity": 95,
      "chip": "ym2612"
    },
    {
      "channel": 2,
      "note": 26,
      "start": 39.8841,
      "duration": 0.0753,
      "velocity": 120,
      "chip": "ym2612"
    },
    {
      "channel": 1,
      "note": 52,
      "start": 40.1076,
      "duration": 0.2243,
      "velocity": 93,
      "chip": "ym2612"
    },
    {
      "channel": 3,
      "note": 64,
      "start": 40.1084,
      "duration": 0.2241,
      "velocity": 95,
      "chip": "ym2612"
    },
    {
      "channel": 4,
      "note": 71,
      "start": 40.109,
      "duration": 0.2243,
      "velocity": 95,
      "chip": "ym2612"
    },
    {
      "channel": 5,
      "note": 88,
      "start": 40.1098,
      "duration": 0.6657,
      "velocity": 94,
      "chip": "ym2612"
    },
    {
      "channel": 2,
      "note": 26,
      "start": 40.1115,
      "duration": 0.0754,
      "velocity": 120,
      "chip": "ym2612"
    },
    {
      "channel": 1,
      "note": 52,
      "start": 40.3324,
      "duration": 0.214,
      "velocity": 93,
      "chip": "ym2612"
    },
    {
      "channel": 3,
      "note": 64,
      "start": 40.3332,
      "duration": 0.214,
      "velocity": 95,
      "chip": "ym2612"
    },
    {
      "channel": 4,
      "note": 71,
      "start": 40.3338,
      "duration": 0.2142,
      "velocity": 95,
      "chip": "ym2612"
    },
    {
      "channel": 0,
      "note": 90,
      "start": 40.5462,
      "duration": 0.4543,
      "velocity": 94,
      "chip": "ym2612"
    },
    {
      "channel": 1,
      "note": 52,
      "start": 40.5471,
      "duration": 0.2263,
      "velocity": 93,
      "chip": "ym2612"
    },
    {
      "channel": 3,
      "note": 64,
      "start": 40.5479,
      "duration": 0.2262,
      "velocity": 95,
      "chip": "ym2612"
    },
    {
      "channel": 4,
      "note": 71,
      "start": 40.5485,
      "duration": 0.2264,
      "velocity": 95,
      "chip": "ym2612"
    },
    {
      "channel": 2,
      "note": 56,
      "start": 40.5506,
      "duration": 0.1077,
      "velocity": 112,
      "chip": "ym2612"
    },
    {
      "channel": 1,
      "note": 52,
      "start": 40.774,
      "duration": 0.2274,
      "velocity": 93,
      "chip": "ym2612"
    },
    {
      "channel": 3,
      "note": 64,
      "start": 40.7748,
      "duration": 0.2274,
      "velocity": 95,
      "chip": "ym2612"
    },
    {
      "channel": 4,
      "note": 71,
      "start": 40.7754,
      "duration": 0.2275,
      "velocity": 95,
      "chip": "ym2612"
    },
    {
      "channel": 5,
      "note": 90,
      "start": 40.7763,
      "duration": 0.4543,
      "velocity": 94,
      "chip": "ym2612"
    },
    {
      "channel": 2,
      "note": 103,
      "start": 40.778,
      "duration": 0.1403,
      "velocity": 103,
      "chip": "ym2612"
    },
    {
      "channel": 0,
      "note": 91,
      "start": 41.0013,
      "duration": 0.8931,
      "velocity": 94,
      "chip": "ym2612"
    },
    {
      "channel": 1,
      "note": 55,
      "start": 41.0021,
      "duration": 0.2263,
      "velocity": 93,
      "chip": "ym2612"
    },
    {
      "channel": 3,
      "note": 62,
      "start": 41.0029,
      "duration": 0.2262,
      "velocity": 95,
      "chip": "ym2612"
    },
    {
      "channel": 4,
      "note": 71,
      "start": 41.0036,
      "duration": 0.2263,
      "velocity": 95,
      "chip": "ym2612"
    },
    {
      "channel": 2,
      "note": 26,
      "start": 41.0055,
      "duration": 0.059,
      "velocity": 120,
      "chip": "ym2612"
    },
    {
      "channel": 1,
      "note": 55,
      "start": 41.2289,
      "duration": 0.2108,
      "velocity": 93,
      "chip": "ym2612"
    },
    {
      "channel": 3,
      "note": 62,
      "start": 41.2297,
      "duration": 0.2107,
      "velocity": 95,
      "chip": "ym2612"
    },
    {
      "channel": 4,
      "note": 71,
      "start": 41.2304,
      "duration": 0.2108,
      "velocity": 95,
      "chip": "ym2612"
    },
    {
      "channel": 5,
      "note": 91,
      "start": 41.2312,
      "duration": 0.8776,
      "velocity": 94,
      "chip": "ym2612"
    },
    {
      "channel": 2,
      "note": 26,
      "start": 41.2329,
      "duration": 0.059,
      "velocity": 120,
      "chip": "ym2612"
    },
    {
      "channel": 1,
      "note": 55,
      "start": 41.4402,
      "duration": 0.227,
      "velocity": 93,
      "chip": "ym2612"
    },
    {
      "channel": 3,
      "note": 62,
      "start": 41.4411,
      "duration": 0.2268,
      "velocity": 95,
      "chip": "ym2612"
    },
    {
      "channel": 4,
      "note": 71,
      "start": 41.4417,
      "duration": 0.227,
      "velocity": 95,
      "chip": "ym2612"
    },
    {
      "channel": 2,
      "note": 56,
      "start": 41.4438,
      "duration": 0.1083,
      "velocity": 112,
      "chip": "ym2612"
    },
    {
      "channel": 1,
      "note": 55,
      "start": 41.6678,
      "duration": 0.2274,
      "velocity": 93,
      "chip": "ym2612"
    },
    {
      "channel": 3,
      "note": 62,
      "start": 41.6686,
      "duration": 0.2275,
      "velocity": 95,
      "chip": "ym2612"
    },
    {
      "channel": 4,
      "note": 71,
      "start": 41.6693,
      "duration": 0.2276,
      "velocity": 95,
      "chip": "ym2612"
    },
    {
      "channel": 2,
      "note": 26,
      "start": 41.6712,
      "duration": 0.0758,
      "velocity": 120,
      "chip": "ym2612"
    },
    {
      "channel": 0,
      "note": 95,
      "start": 41.8951,
      "duration": 0.2106,
      "velocity": 94,
      "chip": "ym2612"
    },
    {
      "channel": 1,
      "note": 59,
      "start": 41.8959,
      "duration": 0.2106,
      "velocity": 93,
      "chip": "ym2612"
    },
    {
      "channel": 3,
      "note": 65,
      "start": 41.8967,
      "duration": 0.2106,
      "velocity": 95,
      "chip": "ym2612"
    },
    {
      "channel": 4,
      "note": 71,
      "start": 41.8974,
      "duration": 0.2107,
      "velocity": 95,
      "chip": "ym2612"
    },
    {
      "channel": 2,
      "note": 26,
      "start": 41.8995,
      "duration": 0.0588,
      "velocity": 120,
      "chip": "ym2612"
    },
    {
      "channel": 0,
      "note": 93,
      "start": 42.1063,
      "duration": 0.2269,
      "velocity": 94,
      "chip": "ym2612"
    },
    {
      "channel": 1,
      "note": 59,
      "start": 42.1072,
      "duration": 0.2269,
      "velocity": 93,
      "chip": "ym2612"
    },
    {
      "channel": 3,
      "note": 65,
      "start": 42.1079,
      "duration": 0.2269,
      "velocity": 95,
      "chip": "ym2612"
    },
    {
      "channel": 4,
      "note": 71,
      "start": 42.1086,
      "duration": 0.227,
      "velocity": 95,
      "chip": "ym2612"
    },
    {
      "channel": 5,
      "note": 95,
      "start": 42.1095,
      "duration": 0.2268,
      "velocity": 94,
      "chip": "ym2612"
    },
    {
      "channel": 2,
      "note": 103,
      "start": 42.1112,
      "duration": 0.1559,
      "velocity": 103,
      "chip": "ym2612"
    },
    {
      "channel": 0,
      "note": 91,
      "start": 42.3339,
      "duration": 0.1104,
      "velocity": 94,
      "chip": "ym2612"
    },
    {
      "channel": 1,
      "note": 59,
      "start": 42.3347,
      "duration": 0.2236,
      "velocity": 93,
      "chip": "ym2612"
    },
    {
      "channel": 3,
      "note": 65,
      "start": 42.3355,
      "duration": 0.2236,
      "velocity": 95,
      "chip": "ym2612"
    },
    {
      "channel": 4,
      "note": 71,
      "start": 42.3362,
      "duration": 0.2237,
      "velocity": 95,
      "chip": "ym2612"
    },
    {
      "channel": 5,
      "note": 93,
      "start": 42.337,
      "duration": 0.2235,
      "velocity": 94,
      "chip": "ym2612"
    },
    {
      "channel": 2,
      "note": 56,
      "start": 42.3387,
      "duration": 0.1078,
      "velocity": 112,
      "chip": "ym2612"
    },
    {
      "channel": 0,
      "note": 93,
      "start": 42.445,
      "duration": 0.3434,
      "velocity": 94,
      "chip": "ym2612"
    },
    {
      "channel": 1,
      "note": 59,
      "start": 42.559,
      "duration": 0.2304,
      "velocity": 93,
      "chip": "ym2612"
    },
    {
      "channel": 3,
      "note": 65,
      "start": 42.5598,
      "duration": 0.2305,
      "velocity": 95,
      "chip": "ym2612"
    },
    {
      "channel": 4,
      "note": 71,
      "start": 42.5604,
      "duration": 0.2307,
      "velocity": 95,
      "chip": "ym2612"
    },
    {
      "channel": 5,
      "note": 91,
      "start": 42.5612,
      "duration": 0.1118,
      "velocity": 94,
      "chip": "ym2612"
    },
    {
      "channel": 5,
      "note": 93,
      "start": 42.6738,
      "duration": 0.3282,
      "velocity": 94,
      "chip": "ym2612"
    },
    {
      "channel": 0,
      "note": 88,
      "start": 42.7891,
      "duration": 0.4357,
      "velocity": 94,
      "chip": "ym2612"
    },
    {
      "channel": 1,
      "note": 45,
      "start": 42.7901,
      "duration": 0.2098,
      "velocity": 93,
      "chip": "ym2612"
    },
    {
      "channel": 3,
      "note": 68,
      "start": 42.7909,
      "duration": 0.2097,
      "velocity": 95,
      "chip": "ym2612"
    },
    {
      "channel": 4,
      "note": 73,
      "start": 42.7918,
      "duration": 0.2095,
      "velocity": 95,
      "chip": "ym2612"
    },
    {
      "channel": 2,
      "note": 26,
      "start": 42.7937,
      "duration": 0.0583,
      "velocity": 120,
      "chip": "ym2612"
    },
    {
      "channel": 1,
      "note": 52,
      "start": 43.0005,
      "duration": 0.2243,
      "velocity": 93,
      "chip": "ym2612"
    },
    {
      "channel": 3,
      "note": 68,
      "start": 43.0011,
      "duration": 0.2237,
      "velocity": 95,
      "chip": "ym2612"
    },
    {
      "channel": 4,
      "note": 73,
      "start": 43.0018,
      "duration": 0.223,
      "velocity": 95,
      "chip": "ym2612"
    },
    {
      "channel": 5,
      "note": 88,
      "start": 43.0027,
      "duration": 0.2221,
      "velocity": 94,
      "chip": "ym2612"
    },
    {
      "channel": 2,
      "note": 103,
      "start": 43.0044,
      "duration": 0.1403,
      "velocity": 103,
      "chip": "ym2612"
    }
  ]
}