{
  "track_name": "08 - Fire",
  "duration_sec": 73.996,
  "sample_rate": 44100,
  "note_count": 1574,
  "unique_pitches": 36,
  "pitch_range": 56,
  "avg_note_duration": 0.0501,
  "reconstruction_stats": {
    "notes_reconstructed": 1574,
    "keyon_events": 1574,
    "keyoff_events": 1574,
    "orphan_keyons": 0,
    "unique_pitches": 36,
    "pitch_range": 56,
    "avg_duration_sec": 0.0501
  },
  "metadata": {
    "source": "S\\Super Daisenryaku\\08 - Fire.vgz"
  },
  "notes": [
    {
      "channel": 0,
      "note": 65,
      "start": 0.0021,
      "duration": 0.0096,
      "velocity": 95,
      "chip": "ym2612"
    },
    {
      "channel": 1,
      "note": 41,
      "start": 0.0045,
      "duration": 0.066,
      "velocity": 115,
      "chip": "ym2612"
    },
    {
      "channel": 2,
      "note": 72,
      "start": 0.0108,
      "duration": 0.0009,
      "velocity": 109,
      "chip": "ym2612"
    },
    {
      "channel": 3,
      "note": 65,
      "start": 0.011,
      "duration": 0.001,
      "velocity": 109,
      "chip": "ym2612"
    },
    {
      "channel": 4,
      "note": 68,
      "start": 0.011,
      "duration": 0.001,
      "velocity": 109,
      "chip": "ym2612"
    },
    {
      "channel": 0,
      "note": 67,
      "start": 0.0596,
      "duration": 0.0108,
      "velocity": 95,
      "chip": "ym2612"
    },
    {
      "channel": 2,
      "note": 72,
      "start": 0.0603,
      "duration": 0.0104,
      "velocity": 109,
      "chip": "ym2612"
    },
    {
      "channel": 3,
      "note": 65,
      "start": 0.0604,
      "duration": 0.0103,
      "velocity": 109,
      "chip": "ym2612"
    },
    {
      "channel": 4,
      "note": 68,
      "start": 0.0605,
      "duration": 0.0102,
      "velocity": 109,
      "chip": "ym2612"
    },
    {
      "channel": 0,
      "note": 68,
      "start": 0.1207,
      "duration": 0.0041,
      "velocity": 95,
      "chip": "ym2612"
    },
    {
      "channel": 1,
      "note": 41,
      "start": 0.1209,
      "duration": 0.0643,
      "velocity": 115,
      "chip": "ym2612"
    },
    {
      "channel": 0,
      "note": 70,
      "start": 0.1751,
      "duration": 0.01,
      "velocity": 95,
      "chip": "ym2612"
    },
    {
      "channel": 0,
      "note": 72,
      "start": 0.2354,
      "duration": 0.0004,
      "velocity": 95,
      "chip": "ym2612"
    },
    {
      "channel": 1,
      "note": 44,
      "start": 0.2357,
      "duration": 0.0116,
      "velocity": 115,
      "chip": "ym2612"
    },
    {
      "channel": 0,
      "note": 70,
      "start": 0.2372,
      "duration": 0.01,
      "velocity": 95,
      "chip": "ym2612"
    },
    {
      "channel": 0,
      "note": 68,
      "start": 0.2975,
      "duration": 0.0038,
      "velocity": 95,
      "chip": "ym2612"
    },
    {
      "channel": 1,
      "note": 46,
      "start": 0.2977,
      "duration": 0.0037,
      "velocity": 115,
      "chip": "ym2612"
    },
    {
      "channel": 0,
      "note": 67,
      "start": 0.3516,
      "duration": 0.0038,
      "velocity": 95,
      "chip": "ym2612"
    },
    {
      "channel": 1,
      "note": 41,
      "start": 0.3518,
      "duration": 0.0617,
      "velocity": 115,
      "chip": "ym2612"
    },
    {
      "channel": 0,
      "note": 65,
      "start": 0.4057,
      "duration": 0.0076,
      "velocity": 95,
      "chip": "ym2612"
    },
    {
      "channel": 2,
      "note": 77,
      "start": 0.412,
      "duration": 0.0555,
      "velocity": 111,
      "chip": "ym2612"
    },
    {
      "channel": 3,
      "note": 84,
      "start": 0.4121,
      "duration": 0.0555,
      "velocity": 111,
      "chip": "ym2612"
    },
    {
      "channel": 4,
      "note": 80,
      "start": 0.4121,
      "duration": 0.0556,
      "velocity": 111,
      "chip": "ym2612"
    },
    {
      "channel": 0,
      "note": 67,
      "start": 0.4637,
      "duration": 0.0037,
      "velocity": 95,
      "chip": "ym2612"
    },
    {
      "channel": 1,
      "note": 41,
      "start": 0.4638,
      "duration": 0.0648,
      "velocity": 115,
      "chip": "ym2612"
    },
    {
      "channel": 0,
      "note": 68,
      "start": 0.5177,
      "duration": 0.0108,
      "velocity": 95,
      "chip": "ym2612"
    },
    {
      "channel": 2,
      "note": 77,
      "start": 0.5184,
      "duration": 0.0104,
      "velocity": 111,
      "chip": "ym2612"
    },
    {
      "channel": 3,
      "note": 84,
      "start": 0.5185,
      "duration": 0.0103,
      "velocity": 111,
      "chip": "ym2612"
    },
    {
      "channel": 4,
      "note": 80,
      "start": 0.5186,
      "duration": 0.0102,
      "velocity": 111,
      "chip": "ym2612"
    },
    {
      "channel": 0,
      "note": 70,
      "start": 0.5788,
      "duration": 0.0046,
      "velocity": 95,
      "chip": "ym2612"
    },
    {
      "channel": 1,
      "note": 41,
      "start": 0.579,
      "duration": 0.0046,
      "velocity": 115,
      "chip": "ym2612"
    },
    {
      "channel": 2,
      "note": 77,
      "start": 0.5797,
      "duration": 0.0041,
      "velocity": 111,
      "chip": "ym2612"
    },
    {
      "channel": 3,
      "note": 84,
      "start": 0.5797,
      "duration": 0.004,
      "velocity": 111,
      "chip": "ym2612"
    },
    {
      "channel": 4,
      "note": 80,
      "start": 0.5798,
      "duration": 0.004,
      "velocity": 111,
      "chip": "ym2612"
    },
    {
      "channel": 0,
      "note": 72,
      "start": 0.6337,
      "duration": 0.001,
      "velocity": 95,
      "chip": "ym2612"
    },
    {
      "channel": 1,
      "note": 46,
      "start": 0.6339,
      "duration": 0.0119,
      "velocity": 115,
      "chip": "ym2612"
    },
    {
      "channel": 0,
      "note": 70,
      "start": 0.6357,
      "duration": 0.01,
      "velocity": 95,
      "chip": "ym2612"
    },
    {
      "channel": 0,
      "note": 68,
      "start": 0.696,
      "duration": 0.0038,
      "velocity": 95,
      "chip": "ym2612"
    },
    {
      "channel": 1,
      "note": 44,
      "start": 0.6963,
      "duration": 0.0576,
      "velocity": 115,
      "chip": "ym2612"
    },
    {
      "channel": 0,
      "note": 67,
      "start": 0.7502,
      "duration": 0.0036,
      "velocity": 95,
      "chip": "ym2612"
    },
    {
      "channel": 0,
      "note": 65,
      "start": 0.8041,
      "duration": 0.0078,
      "velocity": 95,
      "chip": "ym2612"
    },
    {
      "channel": 1,
      "note": 41,
      "start": 0.8044,
      "duration": 0.0678,
      "velocity": 115,
      "chip": "ym2612"
    },
    {
      "channel": 2,
      "note": 72,
      "start": 0.8109,
      "duration": 0.1154,
      "velocity": 103,
      "chip": "ym2612"
    },
    {
      "channel": 3,
      "note": 65,
      "start": 0.811,
      "duration": 0.1154,
      "velocity": 103,
      "chip": "ym2612"
    },
    {
      "channel": 4,
      "note": 68,
      "start": 0.8111,
      "duration": 0.1154,
      "velocity": 103,
      "chip": "ym2612"
    },
    {
      "channel": 0,
      "note": 67,
      "start": 0.8621,
      "duration": 0.01,
      "velocity": 95,
      "chip": "ym2612"
    },
    {
      "channel": 0,
      "note": 68,
      "start": 0.9224,
      "duration": 0.0037,
      "velocity": 95,
      "chip": "ym2612"
    },
    {
      "channel": 1,
      "note": 41,
      "start": 0.9226,
      "duration": 0.0648,
      "velocity": 115,
      "chip": "ym2612"
    },
    {
      "channel": 0,
      "note": 70,
      "start": 0.9764,
      "duration": 0.0108,
      "velocity": 95,
      "chip": "ym2612"
    },
    {
      "channel": 2,
      "note": 72,
      "start": 0.9772,
      "duration": 0.0724,
      "velocity": 103,
      "chip": "ym2612"
    },
    {
      "channel": 3,
      "note": 65,
      "start": 0.9772,
      "duration": 0.0724,
      "velocity": 103,
      "chip": "ym2612"
    },
    {
      "channel": 4,
      "note": 68,
      "start": 0.9774,
      "duration": 0.0723,
      "velocity": 103,
      "chip": "ym2612"
    },
    {
      "channel": 0,
      "note": 72,
      "start": 1.0375,
      "duration": 0.0004,
      "velocity": 95,
      "chip": "ym2612"
    },
    {
      "channel": 1,
      "note": 44,
      "start": 1.0379,
      "duration": 0.0116,
      "velocity": 115,
      "chip": "ym2612"
    },
    {
      "channel": 0,
      "note": 70,
      "start": 1.0393,
      "duration": 0.01,
      "velocity": 95,
      "chip": "ym2612"
    },
    {
      "channel": 0,
      "note": 68,
      "start": 1.0996,
      "duration": 0.0046,
      "velocity": 95,
      "chip": "ym2612"
    },
    {
      "channel": 1,
      "note": 46,
      "start": 1.0999,
      "duration": 0.0044,
      "velocity": 115,
      "chip": "ym2612"
    },
    {
      "channel": 2,
      "note": 75,
      "start": 1.1007,
      "duration": 0.4502,
      "velocity": 103,
      "chip": "ym2612"
    },
    {
      "channel": 3,
      "note": 65,
      "start": 1.1007,
      "duration": 0.4502,
      "velocity": 103,
      "chip": "ym2612"
    },
    {
      "channel": 4,
      "note": 70,
      "start": 1.1007,
      "duration": 0.4502,
      "velocity": 103,
      "chip": "ym2612"
    },
    {
      "channel": 0,
      "note": 67,
      "start": 1.1545,
      "duration": 0.0038,
      "velocity": 95,
      "chip": "ym2612"
    },
    {
      "channel": 1,
      "note": 41,
      "start": 1.1547,
      "duration": 0.0576,
      "velocity": 115,
      "chip": "ym2612"
    },
    {
      "channel": 0,
      "note": 65,
      "start": 1.2086,
      "duration": 0.0036,
      "velocity": 95,
      "chip": "ym2612"
    },
    {
      "channel": 0,
      "note": 67,
      "start": 1.2626,
      "duration": 0.0037,
      "velocity": 95,
      "chip": "ym2612"
    },
    {
      "channel": 1,
      "note": 41,
      "start": 1.2627,
      "duration": 0.0639,
      "velocity": 115,
      "chip": "ym2612"
    },
    {
      "channel": 0,
      "note": 68,
      "start": 1.3166,
      "duration": 0.01,
      "velocity": 95,
      "chip": "ym2612"
    },
    {
      "channel": 0,
      "note": 70,
      "start": 1.3769,
      "duration": 0.0037,
      "velocity": 95,
      "chip": "ym2612"
    },
    {
      "channel": 1,
      "note": 41,
      "start": 1.377,
      "duration": 0.0037,
      "velocity": 115,
      "chip": "ym2612"
    },
    {
      "channel": 0,
      "note": 72,
      "start": 1.4308,
      "duration": 0.0004,
      "velocity": 95,
      "chip": "ym2612"
    },
    {
      "channel": 1,
      "note": 46,
      "start": 1.4311,
      "duration": 0.0115,
      "velocity": 115,
      "chip": "ym2612"
    },
    {
      "channel": 0,
      "note": 70,
      "start": 1.4326,
      "duration": 0.0099,
      "velocity": 95,
      "chip": "ym2612"
    },
    {
      "channel": 0,
      "note": 72,
      "start": 1.4928,
      "duration": 0.0038,
      "velocity": 95,
      "chip": "ym2612"
    },
    {
      "channel": 1,
      "note": 44,
      "start": 1.493,
      "duration": 0.0576,
      "velocity": 115,
      "chip": "ym2612"
    },
    {
      "channel": 0,
      "note": 75,
      "start": 1.5469,
      "duration": 0.0036,
      "velocity": 95,
      "chip": "ym2612"
    },
    {
      "channel": 0,
      "note": 65,
      "start": 1.6009,
      "duration": 0.0077,
      "velocity": 95,
      "chip": "ym2612"
    },
    {
      "channel": 1,
      "note": 41,
      "start": 1.6011,
      "duration": 0.0686,
      "velocity": 115,
      "chip": "ym2612"
    },
    {
      "channel": 2,
      "note": 72,
      "start": 1.6076,
      "duration": 0.0012,
      "velocity": 109,
      "chip": "ym2612"
    },
    {
      "channel": 3,
      "note": 65,
      "start": 1.6076,
      "duration": 0.0012,
      "velocity": 109,
      "chip": "ym2612"
    },
    {
      "channel": 4,
      "note": 68,
      "start": 1.6077,
      "duration": 0.0012,
      "velocity": 109,
      "chip": "ym2612"
    },
    {
      "channel": 0,
      "note": 67,
      "start": 1.6588,
      "duration": 0.0108,
      "velocity": 95,
      "chip": "ym2612"
    },
    {
      "channel": 2,
      "note": 72,
      "start": 1.6596,
      "duration": 0.0104,
      "velocity": 109,
      "chip": "ym2612"
    },
    {
      "channel": 3,
      "note": 65,
      "start": 1.6596,
      "duration": 0.0103,
      "velocity": 109,
      "chip": "ym2612"
    },
    {
      "channel": 4,
      "note": 68,
      "start": 1.6598,
      "duration": 0.0102,
      "velocity": 109,
      "chip": "ym2612"
    },
    {
      "channel": 0,
      "note": 68,
      "start": 1.72,
      "duration": 0.0041,
      "velocity": 95,
      "chip": "ym2612"
    },
    {
      "channel": 1,
      "note": 41,
      "start": 1.7201,
      "duration": 0.0643,
      "velocity": 115,
      "chip": "ym2612"
    },
    {
      "channel": 0,
      "note": 70,
      "start": 1.7744,
      "duration": 0.01,
      "velocity": 95,
      "chip": "ym2612"
    },
    {
      "channel": 0,
      "note": 72,
      "start": 1.8346,
      "duration": 0.0004,
      "velocity": 95,
      "chip": "ym2612"
    },
    {
      "channel": 1,
      "note": 44,
      "start": 1.8349,
      "duration": 0.0116,
      "velocity": 115,
      "chip": "ym2612"
    },
    {
      "channel": 0,
      "note": 70,
      "start": 1.8364,
      "duration": 0.01,
      "velocity": 95,
      "chip": "ym2612"
    },
    {
      "channel": 0,
      "note": 68,
      "start": 1.8967,
      "duration": 0.0038,
      "velocity": 95,
      "chip": "ym2612"
    },
    {
      "channel": 1,
      "note": 46,
      "start": 1.8969,
      "duration": 0.0037,
      "velocity": 115,
      "chip": "ym2612"
    },
    {
      "channel": 0,
      "note": 67,
      "start": 1.9508,
      "duration": 0.0038,
      "velocity": 95,
      "chip": "ym2612"
    },
    {
      "channel": 1,
      "note": 41,
      "start": 1.9511,
      "duration": 0.0617,
      "velocity": 115,
      "chip": "ym2612"
    },
    {
      "channel": 0,
      "note": 65,
      "start": 2.005,
      "duration": 0.0076,
      "velocity": 95,
      "chip": "ym2612"
    },
    {
      "channel": 2,
      "note": 77,
      "start": 2.0113,
      "duration": 0.0555,
      "velocity": 111,
      "chip": "ym2612"
    },
    {
      "channel": 3,
      "note": 80,
      "start": 2.0113,
      "duration": 0.0555,
      "velocity": 111,
      "chip": "ym2612"
    },
    {
      "channel": 4,
      "note": 84,
      "start": 2.0114,
      "duration": 0.0556,
      "velocity": 111,
      "chip": "ym2612"
    },
    {
      "channel": 0,
      "note": 67,
      "start": 2.0629,
      "duration": 0.0037,
      "velocity": 95,
      "chip": "ym2612"
    },
    {
      "channel": 1,
      "note": 41,
      "start": 2.0631,
      "duration": 0.0648,
      "velocity": 115,
      "chip": "ym2612"
    },
    {
      "channel": 0,
      "note": 68,
      "start": 2.1169,
      "duration": 0.0108,
      "velocity": 95,
      "chip": "ym2612"
    },
    {
      "channel": 2,
      "note": 77,
      "start": 2.1177,
      "duration": 0.0104,
      "velocity": 111,
      "chip": "ym2612"
    },
    {
      "channel": 3,
      "note": 80,
      "start": 2.1177,
      "duration": 0.0103,
      "velocity": 111,
      "chip": "ym2612"
    },
    {
      "channel": 4,
      "note": 84,
      "start": 2.1178,
      "duration": 0.0102,
      "velocity": 111,
      "chip": "ym2612"
    },
    {
      "channel": 0,
      "note": 70,
      "start": 2.178,
      "duration": 0.0046,
      "velocity": 95,
      "chip": "ym2612"
    },
    {
      "channel": 1,
      "note": 41,
      "start": 2.1782,
      "duration": 0.0046,
      "velocity": 115,
      "chip": "ym2612"
    },
    {
      "channel": 2,
      "note": 77,
      "start": 2.1789,
      "duration": 0.0041,
      "velocity": 111,
      "chip": "ym2612"
    },
    {
      "channel": 3,
      "note": 80,
      "start": 2.179,
      "duration": 0.004,
      "velocity": 111,
      "chip": "ym2612"
    },
    {
      "channel": 4,
      "note": 84,
      "start": 2.179,
      "duration": 0.004,
      "velocity": 111,
      "chip": "ym2612"
    },
    {
      "channel": 0,
      "note": 72,
      "start": 2.2329,
      "duration": 0.001,
      "velocity": 95,
      "chip": "ym2612"
    },
    {
      "channel": 1,
      "note": 46,
      "start": 2.2332,
      "duration": 0.0119,
      "velocity": 115,
      "chip": "ym2612"
    },
    {
      "channel": 0,
      "note": 70,
      "start": 2.235,
      "duration": 0.01,
      "velocity": 95,
      "chip": "ym2612"
    },
    {
      "channel": 0,
      "note": 68,
      "start": 2.2953,
      "duration": 0.0038,
      "velocity": 95,
      "chip": "ym2612"
    },
    {
      "channel": 1,
      "note": 44,
      "start": 2.2955,
      "duration": 0.0576,
      "velocity": 115,
      "chip": "ym2612"
    },
    {
      "channel": 0,
      "note": 67,
      "start": 2.3494,
      "duration": 0.0036,
      "velocity": 95,
      "chip": "ym2612"
    },
    {
      "channel": 0,
      "note": 65,
      "start": 2.4033,
      "duration": 0.0078,
      "velocity": 95,
      "chip": "ym2612"
    },
    {
      "channel": 1,
      "note": 41,
      "start": 2.4037,
      "duration": 0.0678,
      "velocity": 115,
      "chip": "ym2612"
    },
    {
      "channel": 2,
      "note": 72,
      "start": 2.4103,
      "duration": 0.0614,
      "velocity": 127,
      "chip": "ym2612"
    },
    {
      "channel": 3,
      "note": 65,
      "start": 2.4103,
      "duration": 0.0614,
      "velocity": 127,
      "chip": "ym2612"
    },
    {
      "channel": 4,
      "note": 68,
      "start": 2.4104,
      "duration": 0.0613,
      "velocity": 127,
      "chip": "ym2612"
    },
    {
      "channel": 0,
      "note": 67,
      "start": 2.4614,
      "duration": 0.01,
      "velocity": 95,
      "chip": "ym2612"
    },
    {
      "channel": 0,
      "note": 68,
      "start": 2.5217,
      "duration": 0.0046,
      "velocity": 95,
      "chip": "ym2612"
    },
    {
      "channel": 1,
      "note": 41,
      "start": 2.5219,
      "duration": 0.0657,
      "velocity": 115,
      "chip": "ym2612"
    },
    {
      "channel": 2,
      "note": 72,
      "start": 2.5226,
      "duration": 0.0039,
      "velocity": 127,
      "chip": "ym2612"
    },
    {
      "channel": 3,
      "note": 65,
      "start": 2.5226,
      "duration": 0.0039,
      "velocity": 127,
      "chip": "ym2612"
    },
    {
      "channel": 4,
      "note": 68,
      "start": 2.5227,
      "duration": 0.0039,
      "velocity": 127,
      "chip": "ym2612"
    },
    {
      "channel": 0,
      "note": 70,
      "start": 2.5766,
      "duration": 0.0108,
      "velocity": 95,
      "chip": "ym2612"
    },
    {
      "channel": 2,
      "note": 72,
      "start": 2.5773,
      "duration": 0.0609,
      "velocity": 127,
      "chip": "ym2612"
    },
    {
      "channel": 3,
      "note": 65,
      "start": 2.5774,
      "duration": 0.0609,
      "velocity": 127,
      "chip": "ym2612"
    },
    {
      "channel": 4,
      "note": 68,
      "start": 2.5775,
      "duration": 0.0609,
      "velocity": 127,
      "chip": "ym2612"
    },
    {
      "channel": 0,
      "note": 72,
      "start": 2.6377,
      "duration": 0.0004,
      "velocity": 95,
      "chip": "ym2612"
    },
    {
      "channel": 1,
      "note": 44,
      "start": 2.638,
      "duration": 0.0125,
      "velocity": 115,
      "chip": "ym2612"
    },
    {
      "channel": 0,
      "note": 70,
      "start": 2.6397,
      "duration": 0.0107,
      "velocity": 95,
      "chip": "ym2612"
    },
    {
      "channel": 2,
      "note": 72,
      "start": 2.6404,
      "duration": 0.0644,
      "velocity": 127,
      "chip": "ym2612"
    },
    {
      "channel": 3,
      "note": 65,
      "start": 2.6405,
      "duration": 0.0644,
      "velocity": 127,
      "chip": "ym2612"
    },
    {
      "channel": 4,
      "note": 68,
      "start": 2.6406,
      "duration": 0.0643,
      "velocity": 127,
      "chip": "ym2612"
    },
    {
      "channel": 0,
      "note": 68,
      "start": 2.7007,
      "duration": 0.0038,
      "velocity": 95,
      "chip": "ym2612"
    },
    {
      "channel": 1,
      "note": 46,
      "start": 2.701,
      "duration": 0.0037,
      "velocity": 115,
      "chip": "ym2612"
    },
    {
      "channel": 0,
      "note": 67,
      "start": 2.7549,
      "duration": 0.0045,
      "velocity": 95,
      "chip": "ym2612"
    },
    {
      "channel": 1,
      "note": 41,
      "start": 2.7551,
      "duration": 0.059,
      "velocity": 115,
      "chip": "ym2612"
    },
    {
      "channel": 2,
      "note": 72,
      "start": 2.7559,
      "duration": 0.0037,
      "velocity": 127,
      "chip": "ym2612"
    },
    {
      "channel": 3,
      "note": 65,
      "start": 2.7559,
      "duration": 0.0037,
      "velocity": 127,
      "chip": "ym2612"
    },
    {
      "channel": 4,
      "note": 68,
      "start": 2.7559,
      "duration": 0.0038,
      "velocity": 127,
      "chip": "ym2612"
    },
    {
      "channel": 0,
      "note": 65,
      "start": 2.8097,
      "duration": 0.0043,
      "velocity": 95,
      "chip": "ym2612"
    },
    {
      "channel": 2,
      "note": 67,
      "start": 2.8103,
      "duration": 0.3423,
      "velocity": 127,
      "chip": "ym2612"
    },
    {
      "channel": 3,
      "note": 72,
      "start": 2.8104,
      "duration": 0.3422,
      "velocity": 127,
      "chip": "ym2612"
    },
    {
      "channel": 4,
      "note": 63,
      "start": 2.8104,
      "duration": 0.3423,
      "velocity": 127,
      "chip": "ym2612"
    },
    {
      "channel": 0,
      "note": 67,
      "start": 2.8643,
      "duration": 0.0037,
      "velocity": 95,
      "chip": "ym2612"
    },
    {
      "channel": 1,
      "note": 41,
      "start": 2.8645,
      "duration": 0.0639,
      "velocity": 115,
      "chip": "ym2612"
    },
    {
      "channel": 0,
      "note": 68,
      "start": 2.9183,
      "duration": 0.01,
      "velocity": 95,
      "chip": "ym2612"
    },
    {
      "channel": 0,
      "note": 70,
      "start": 2.9786,
      "duration": 0.0037,
      "velocity": 95,
      "chip": "ym2612"
    },
    {
      "channel": 1,
      "note": 41,
      "start": 2.9788,
      "duration": 0.0037,
      "velocity": 115,
      "chip": "ym2612"
    },
    {
      "channel": 0,
      "note": 65,
      "start": 3.0326,
      "duration": 0.0004,
      "velocity": 95,
      "chip": "ym2612"
    },
    {
      "channel": 1,
      "note": 46,
      "start": 3.0329,
      "duration": 0.0115,
      "velocity": 115,
      "chip": "ym2612"
    },
    {
      "channel": 0,
      "note": 67,
      "start": 3.0343,
      "duration": 0.0099,
      "velocity": 95,
      "chip": "ym2612"
    },
    {
      "channel": 0,
      "note": 63,
      "start": 3.0946,
      "duration": 0.0038,
      "velocity": 95,
      "chip": "ym2612"
    },
    {
      "channel": 1,
      "note": 44,
      "start": 3.0948,
      "duration": 0.0576,
      "velocity": 115,
      "chip": "ym2612"
    },
    {
      "channel": 0,
      "note": 58,
      "start": 3.1487,
      "duration": 0.0036,
      "velocity": 95,
      "chip": "ym2612"
    },
    {
      "channel": 0,
      "note": 65,
      "start": 3.2046,
      "duration": 0.0077,
      "velocity": 95,
      "chip": "ym2612"
    },
    {
      "channel": 1,
      "note": 41,
      "start": 3.205,
      "duration": 0.0682,
      "velocity": 115,
      "chip": "ym2612"
    },
    {
      "channel": 2,
      "note": 72,
      "start": 3.2115,
      "duration": 0.0009,
      "velocity": 109,
      "chip": "ym2612"
    },
    {
      "channel": 3,
      "note": 65,
      "start": 3.2116,
      "duration": 0.0009,
      "velocity": 109,
      "chip": "ym2612"
    },
    {
      "channel": 4,
      "note": 68,
      "start": 3.2117,
      "duration": 0.0009,
      "velocity": 109,
      "chip": "ym2612"
    },
    {
      "channel": 0,
      "note": 67,
      "start": 3.2623,
      "duration": 0.0108,
      "velocity": 95,
      "chip": "ym2612"
    },
    {
      "channel": 2,
      "note": 72,
      "start": 3.263,
      "duration": 0.0104,
      "velocity": 109,
      "chip": "ym2612"
    },
    {
      "channel": 3,
      "note": 65,
      "start": 3.2631,
      "duration": 0.0103,
      "velocity": 109,
      "chip": "ym2612"
    },
    {
      "channel": 4,
      "note": 68,
      "start": 3.2632,
      "duration": 0.0102,
      "velocity": 109,
      "chip": "ym2612"
    },
    {
      "channel": 0,
      "note": 68,
      "start": 3.3234,
      "duration": 0.0041,
      "velocity": 95,
      "chip": "ym2612"
    },
    {
      "channel": 1,
      "note": 41,
      "start": 3.3236,
      "duration": 0.0643,
      "velocity": 115,
      "chip": "ym2612"
    },
    {
      "channel": 0,
      "note": 70,
      "start": 3.3778,
      "duration": 0.01,
      "velocity": 95,
      "chip": "ym2612"
    },
    {
      "channel": 0,
      "note": 72,
      "start": 3.438,
      "duration": 0.0004,
      "velocity": 95,
      "chip": "ym2612"
    },
    {
      "channel": 1,
      "note": 44,
      "start": 3.4384,
      "duration": 0.0116,
      "velocity": 115,
      "chip": "ym2612"
    },
    {
      "channel": 0,
      "note": 70,
      "start": 3.4399,
      "duration": 0.01,
      "velocity": 95,
      "chip": "ym2612"
    },
    {
      "channel": 0,
      "note": 68,
      "start": 3.5002,
      "duration": 0.0038,
      "velocity": 95,
      "chip": "ym2612"
    },
    {
      "channel": 1,
      "note": 46,
      "start": 3.5004,
      "duration": 0.0037,
      "velocity": 115,
      "chip": "ym2612"
    },
    {
      "channel": 0,
      "note": 67,
      "start": 3.5543,
      "duration": 0.0038,
      "velocity": 95,
      "chip": "ym2612"
    },
    {
      "channel": 1,
      "note": 41,
      "start": 3.5545,
      "duration": 0.0617,
      "velocity": 115,
      "chip": "ym2612"
    },
    {
      "channel": 0,
      "note": 65,
      "start": 3.6084,
      "duration": 0.0076,
      "velocity": 95,
      "chip": "ym2612"
    },
    {
      "channel": 2,
      "note": 77,
      "start": 3.6147,
      "duration": 0.0555,
      "velocity": 111,
      "chip": "ym2612"
    },
    {
      "channel": 3,
      "note": 84,
      "start": 3.6148,
      "duration": 0.0555,
      "velocity": 111,
      "chip": "ym2612"
    },
    {
      "channel": 4,
      "note": 80,
      "start": 3.6148,
      "duration": 0.0556,
      "velocity": 111,
      "chip": "ym2612"
    },
    {
      "channel": 0,
      "note": 67,
      "start": 3.6664,
      "duration": 0.0037,
      "velocity": 95,
      "chip": "ym2612"
    },
    {
      "channel": 1,
      "note": 41,
      "start": 3.6665,
      "duration": 0.0648,
      "velocity": 115,
      "chip": "ym2612"
    },
    {
      "channel": 0,
      "note": 68,
      "start": 3.7204,
      "duration": 0.0108,
      "velocity": 95,
      "chip": "ym2612"
    },
    {
      "channel": 2,
      "note": 77,
      "start": 3.7211,
      "duration": 0.0104,
      "velocity": 111,
      "chip": "ym2612"
    },
    {
      "channel": 3,
      "note": 84,
      "start": 3.7212,
      "duration": 0.0103,
      "velocity": 111,
      "chip": "ym2612"
    },
    {
      "channel": 4,
      "note": 80,
      "start": 3.7213,
      "duration": 0.0102,
      "velocity": 111,
      "chip": "ym2612"
    },
    {
      "channel": 0,
      "note": 70,
      "start": 3.7815,
      "duration": 0.0046,
      "velocity": 95,
      "chip": "ym2612"
    },
    {
      "channel": 1,
      "note": 41,
      "start": 3.7817,
      "duration": 0.0046,
      "velocity": 115,
      "chip": "ym2612"
    },
    {
      "channel": 2,
      "note": 77,
      "start": 3.7824,
      "duration": 0.0041,
      "velocity": 111,
      "chip": "ym2612"
    },
    {
      "channel": 3,
      "note": 84,
      "start": 3.7824,
      "duration": 0.004,
      "velocity": 111,
      "chip": "ym2612"
    },
    {
      "channel": 4,
      "note": 80,
      "start": 3.7825,
      "duration": 0.004,
      "velocity": 111,
      "chip": "ym2612"
    },
    {
      "channel": 0,
      "note": 72,
      "start": 3.8364,
      "duration": 0.001,
      "velocity": 95,
      "chip": "ym2612"
    },
    {
      "channel": 1,
      "note": 46,
      "start": 3.8366,
      "duration": 0.0119,
      "velocity": 115,
      "chip": "ym2612"
    },
    {
      "channel": 0,
      "note": 70,
      "start": 3.8384,
      "duration": 0.01,
      "velocity": 95,
      "chip": "ym2612"
    },
    {
      "channel": 0,
      "note": 68,
      "start": 3.8987,
      "duration": 0.0038,
      "velocity": 95,
      "chip": "ym2612"
    },
    {
      "channel": 1,
      "note": 44,
      "start": 3.899,
      "duration": 0.0576,
      "velocity": 115,
      "chip": "ym2612"
    },
    {
      "channel": 0,
      "note": 67,
      "start": 3.9529,
      "duration": 0.0036,
      "velocity": 95,
      "chip": "ym2612"
    },
    {
      "channel": 0,
      "note": 65,
      "start": 4.0068,
      "duration": 0.0077,
      "velocity": 95,
      "chip": "ym2612"
    },
    {
      "channel": 1,
      "note": 41,
      "start": 4.0071,
      "duration": 0.0678,
      "velocity": 115,
      "chip": "ym2612"
    },
    {
      "channel": 2,
      "note": 72,
      "start": 4.0136,
      "duration": 0.1154,
      "velocity": 103,
      "chip": "ym2612"
    },
    {
      "channel": 3,
      "note": 65,
      "start": 4.0137,
      "duration": 0.1154,
      "velocity": 103,
      "chip": "ym2612"
    },
    {
      "channel": 4,
      "note": 68,
      "start": 4.0137,
      "duration": 0.1154,
      "velocity": 103,
      "chip": "ym2612"
    },
    {
      "channel": 0,
      "note": 67,
      "start": 4.0648,
      "duration": 0.01,
      "velocity": 95,
      "chip": "ym2612"
    },
    {
      "channel": 0,
      "note": 68,
      "start": 4.1251,
      "duration": 0.0037,
      "velocity": 95,
      "chip": "ym2612"
    },
    {
      "channel": 1,
      "note": 41,
      "start": 4.1253,
      "duration": 0.0648,
      "velocity": 115,
      "chip": "ym2612"
    },
    {
      "channel": 0,
      "note": 70,
      "start": 4.1791,
      "duration": 0.0108,
      "velocity": 95,
      "chip": "ym2612"
    },
    {
      "channel": 2,
      "note": 72,
      "start": 4.1798,
      "duration": 0.0724,
      "velocity": 103,
      "chip": "ym2612"
    },
    {
      "channel": 3,
      "note": 65,
      "start": 4.1799,
      "duration": 0.0724,
      "velocity": 103,
      "chip": "ym2612"
    },
    {
      "channel": 4,
      "note": 68,
      "start": 4.18,
      "duration": 0.0723,
      "velocity": 103,
      "chip": "ym2612"
    },
    {
      "channel": 0,
      "note": 72,
      "start": 4.2402,
      "duration": 0.0004,
      "velocity": 95,
      "chip": "ym2612"
    },
    {
      "channel": 1,
      "note": 44,
      "start": 4.2405,
      "duration": 0.0116,
      "velocity": 115,
      "chip": "ym2612"
    },
    {
      "channel": 0,
      "note": 70,
      "start": 4.242,
      "duration": 0.01,
      "velocity": 95,
      "chip": "ym2612"
    },
    {
      "channel": 0,
      "note": 68,
      "start": 4.3023,
      "duration": 0.0046,
      "velocity": 95,
      "chip": "ym2612"
    },
    {
      "channel": 1,
      "note": 46,
      "start": 4.3025,
      "duration": 0.0044,
      "velocity": 115,
      "chip": "ym2612"
    },
    {
      "channel": 2,
      "note": 75,
      "start": 4.3033,
      "duration": 0.4502,
      "velocity": 103,
      "chip": "ym2612"
    },
    {
      "channel": 3,
      "note": 65,
      "start": 4.3033,
      "duration": 0.4502,
      "velocity": 103,
      "chip": "ym2612"
    },
    {
      "channel": 4,
      "note": 70,
      "start": 4.3034,
      "duration": 0.4502,
      "velocity": 103,
      "chip": "ym2612"
    },
    {
      "channel": 0,
      "note": 67,
      "start": 4.3572,
      "duration": 0.0038,
      "velocity": 95,
      "chip": "ym2612"
    },
    {
      "channel": 1,
      "note": 41,
      "start": 4.3574,
      "duration": 0.0576,
      "velocity": 115,
      "chip": "ym2612"
    },
    {
      "channel": 0,
      "note": 65,
      "start": 4.4113,
      "duration": 0.0036,
      "velocity": 95,
      "chip": "ym2612"
    },
    {
      "channel": 0,
      "note": 67,
      "start": 4.4652,
      "duration": 0.0037,
      "velocity": 95,
      "chip": "ym2612"
    },
    {
      "channel": 1,
      "note": 41,
      "start": 4.4654,
      "duration": 0.0639,
      "velocity": 115,
      "chip": "ym2612"
    },
    {
      "channel": 0,
      "note": 68,
      "start": 4.5192,
      "duration": 0.01,
      "velocity": 95,
      "chip": "ym2612"
    },
    {
      "channel": 0,
      "note": 70,
      "start": 4.5795,
      "duration": 0.0037,
      "velocity": 95,
      "chip": "ym2612"
    },
    {
      "channel": 1,
      "note": 41,
      "start": 4.5797,
      "duration": 0.0037,
      "velocity": 115,
      "chip": "ym2612"
    },
    {
      "channel": 0,
      "note": 72,
      "start": 4.6335,
      "duration": 0.0004,
      "velocity": 95,
      "chip": "ym2612"
    },
    {
      "channel": 1,
      "note": 46,
      "start": 4.6338,
      "duration": 0.0115,
      "velocity": 115,
      "chip": "ym2612"
    },
    {
      "channel": 0,
      "note": 70,
      "start": 4.6352,
      "duration": 0.0099,
      "velocity": 95,
      "chip": "ym2612"
    },
    {
      "channel": 0,
      "note": 72,
      "start": 4.6955,
      "duration": 0.0038,
      "velocity": 95,
      "chip": "ym2612"
    },
    {
      "channel": 1,
      "note": 44,
      "start": 4.6957,
      "duration": 0.0576,
      "velocity": 115,
      "chip": "ym2612"
    },
    {
      "channel": 0,
      "note": 75,
      "start": 4.7496,
      "duration": 0.0036,
      "velocity": 95,
      "chip": "ym2612"
    },
    {
      "channel": 0,
      "note": 65,
      "start": 4.8035,
      "duration": 0.0077,
      "velocity": 95,
      "chip": "ym2612"
    },
    {
      "channel": 1,
      "note": 41,
      "start": 4.8038,
      "duration": 0.0686,
      "velocity": 115,
      "chip": "ym2612"
    },
    {
      "channel": 2,
      "note": 72,
      "start": 4.8102,
      "duration": 0.0012,
      "velocity": 109,
      "chip": "ym2612"
    },
    {
      "channel": 3,
      "note": 65,
      "start": 4.8103,
      "duration": 0.0012,
      "velocity": 109,
      "chip": "ym2612"
    },
    {
      "channel": 4,
      "note": 68,
      "start": 4.8103,
      "duration": 0.0012,
      "velocity": 109,
      "chip": "ym2612"
    },
    {
      "channel": 0,
      "note": 67,
      "start": 4.8615,
      "duration": 0.0108,
      "velocity": 95,
      "chip": "ym2612"
    },
    {
      "channel": 2,
      "note": 72,
      "start": 4.8622,
      "duration": 0.0104,
      "velocity": 109,
      "chip": "ym2612"
    },
    {
      "channel": 3,
      "note": 65,
      "start": 4.8623,
      "duration": 0.0103,
      "velocity": 109,
      "chip": "ym2612"
    },
    {
      "channel": 4,
      "note": 68,
      "start": 4.8624,
      "duration": 0.0102,
      "velocity": 109,
      "chip": "ym2612"
    },
    {
      "channel": 0,
      "note": 68,
      "start": 4.9226,
      "duration": 0.0041,
      "velocity": 95,
      "chip": "ym2612"
    },
    {
      "channel": 1,
      "note": 41,
      "start": 4.9228,
      "duration": 0.0643,
      "velocity": 115,
      "chip": "ym2612"
    },
    {
      "channel": 0,
      "note": 70,
      "start": 4.977,
      "duration": 0.01,
      "velocity": 95,
      "chip": "ym2612"
    },
    {
      "channel": 0,
      "note": 72,
      "start": 5.0373,
      "duration": 0.0004,
      "velocity": 95,
      "chip": "ym2612"
    },
    {
      "channel": 1,
      "note": 44,
      "start": 5.0376,
      "duration": 0.0116,
      "velocity": 115,
      "chip": "ym2612"
    },
    {
      "channel": 0,
      "note": 70,
      "start": 5.0391,
      "duration": 0.01,
      "velocity": 95,
      "chip": "ym2612"
    },
    {
      "channel": 0,
      "note": 68,
      "start": 5.0994,
      "duration": 0.0038,
      "velocity": 95,
      "chip": "ym2612"
    },
    {
      "channel": 1,
      "note": 46,
      "start": 5.0996,
      "duration": 0.0037,
      "velocity": 115,
      "chip": "ym2612"
    },
    {
      "channel": 0,
      "note": 67,
      "start": 5.1535,
      "duration": 0.0038,
      "velocity": 95,
      "chip": "ym2612"
    },
    {
      "channel": 1,
      "note": 41,
      "start": 5.1537,
      "duration": 0.0617,
      "velocity": 115,
      "chip": "ym2612"
    },
    {
      "channel": 0,
      "note": 65,
      "start": 5.2076,
      "duration": 0.0076,
      "velocity": 95,
      "chip": "ym2612"
    },
    {
      "channel": 2,
      "note": 77,
      "start": 5.2139,
      "duration": 0.0555,
      "velocity": 111,
      "chip": "ym2612"
    },
    {
      "channel": 3,
      "note": 80,
      "start": 5.214,
      "duration": 0.0555,
      "velocity": 111,
      "chip": "ym2612"
    },
    {
      "channel": 4,
      "note": 84,
      "start": 5.214,
      "duration": 0.0556,
      "velocity": 111,
      "chip": "ym2612"
    },
    {
      "channel": 0,
      "note": 67,
      "start": 5.2656,
      "duration": 0.0037,
      "velocity": 95,
      "chip": "ym2612"
    },
    {
      "channel": 1,
      "note": 41,
      "start": 5.2657,
      "duration": 0.0648,
      "velocity": 115,
      "chip": "ym2612"
    },
    {
      "channel": 0,
      "note": 68,
      "start": 5.3196,
      "duration": 0.0108,
      "velocity": 95,
      "chip": "ym2612"
    },
    {
      "channel": 2,
      "note": 77,
      "start": 5.3203,
      "duration": 0.0104,
      "velocity": 111,
      "chip": "ym2612"
    },
    {
      "channel": 3,
      "note": 80,
      "start": 5.3204,
      "duration": 0.0103,
      "velocity": 111,
      "chip": "ym2612"
    },
    {
      "channel": 4,
      "note": 84,
      "start": 5.3205,
      "duration": 0.0102,
      "velocity": 111,
      "chip": "ym2612"
    },
    {
      "channel": 0,
      "note": 70,
      "start": 5.3807,
      "duration": 0.0046,
      "velocity": 95,
      "chip": "ym2612"
    },
    {
      "channel": 1,
      "note": 41,
      "start": 5.3809,
      "duration": 0.0046,
      "velocity": 115,
      "chip": "ym2612"
    },
    {
      "channel": 2,
      "note": 77,
      "start": 5.3816,
      "duration": 0.0041,
      "velocity": 111,
      "chip": "ym2612"
    },
    {
      "channel": 3,
      "note": 80,
      "start": 5.3816,
      "duration": 0.004,
      "velocity": 111,
      "chip": "ym2612"
    },
    {
      "channel": 4,
      "note": 84,
      "start": 5.3817,
      "duration": 0.004,
      "velocity": 111,
      "chip": "ym2612"
    },
    {
      "channel": 0,
      "note": 72,
      "start": 5.4356,
      "duration": 0.001,
      "velocity": 95,
      "chip": "ym2612"
    },
    {
      "channel": 1,
      "note": 46,
      "start": 5.4359,
      "duration": 0.0119,
      "velocity": 115,
      "chip": "ym2612"
    },
    {
      "channel": 0,
      "note": 70,
      "start": 5.4376,
      "duration": 0.01,
      "velocity": 95,
      "chip": "ym2612"
    },
    {
      "channel": 0,
      "note": 68,
      "start": 5.4979,
      "duration": 0.0038,
      "velocity": 95,
      "chip": "ym2612"
    },
    {
      "channel": 1,
      "note": 44,
      "start": 5.4982,
      "duration": 0.0576,
      "velocity": 115,
      "chip": "ym2612"
    },
    {
      "channel": 0,
      "note": 67,
      "start": 5.5521,
      "duration": 0.0036,
      "velocity": 95,
      "chip": "ym2612"
    },
    {
      "channel": 0,
      "note": 65,
      "start": 5.606,
      "duration": 0.0078,
      "velocity": 95,
      "chip": "ym2612"
    },
    {
      "channel": 1,
      "note": 41,
      "start": 5.6063,
      "duration": 0.0679,
      "velocity": 115,
      "chip": "ym2612"
    },
    {
      "channel": 2,
      "note": 72,
      "start": 5.6131,
      "duration": 0.0614,
      "velocity": 127,
      "chip": "ym2612"
    },
    {
      "channel": 3,
      "note": 65,
      "start": 5.6131,
      "duration": 0.0614,
      "velocity": 127,
      "chip": "ym2612"
    },
    {
      "channel": 4,
      "note": 68,
      "start": 5.6132,
      "duration": 0.0613,
      "velocity": 127,
      "chip": "ym2612"
    },
    {
      "channel": 0,
      "note": 67,
      "start": 5.6641,
      "duration": 0.01,
      "velocity": 95,
      "chip": "ym2612"
    },
    {
      "channel": 0,
      "note": 68,
      "start": 5.7244,
      "duration": 0.0046,
      "velocity": 95,
      "chip": "ym2612"
    },
    {
      "channel": 1,
      "note": 41,
      "start": 5.7246,
      "duration": 0.0657,
      "velocity": 115,
      "chip": "ym2612"
    },
    {
      "channel": 2,
      "note": 72,
      "start": 5.7253,
      "duration": 0.0039,
      "velocity": 127,
      "chip": "ym2612"
    },
    {
      "channel": 3,
      "note": 65,
      "start": 5.7254,
      "duration": 0.0039,
      "velocity": 127,
      "chip": "ym2612"
    },
    {
      "channel": 4,
      "note": 68,
      "start": 5.7254,
      "duration": 0.0039,
      "velocity": 127,
      "chip": "ym2612"
    },
    {
      "channel": 0,
      "note": 70,
      "start": 5.7793,
      "duration": 0.0108,
      "velocity": 95,
      "chip": "ym2612"
    },
    {
      "channel": 2,
      "note": 72,
      "start": 5.7801,
      "duration": 0.0609,
      "velocity": 127,
      "chip": "ym2612"
    },
    {
      "channel": 3,
      "note": 65,
      "start": 5.7801,
      "duration": 0.0609,
      "velocity": 127,
      "chip": "ym2612"
    },
    {
      "channel": 4,
      "note": 68,
      "start": 5.7803,
      "duration": 0.0609,
      "velocity": 127,
      "chip": "ym2612"
    },
    {
      "channel": 0,
      "note": 72,
      "start": 5.8404,
      "duration": 0.0004,
      "velocity": 95,
      "chip": "ym2612"
    },
    {
      "channel": 1,
      "note": 44,
      "start": 5.8408,
      "duration": 0.0125,
      "velocity": 115,
      "chip": "ym2612"
    },
    {
      "channel": 0,
      "note": 70,
      "start": 5.8424,
      "duration": 0.0107,
      "velocity": 95,
      "chip": "ym2612"
    },
    {
      "channel": 2,
      "note": 72,
      "start": 5.8432,
      "duration": 0.0644,
      "velocity": 127,
      "chip": "ym2612"
    },
    {
      "channel": 3,
      "note": 65,
      "start": 5.8432,
      "duration": 0.0644,
      "velocity": 127,
      "chip": "ym2612"
    },
    {
      "channel": 4,
      "note": 68,
      "start": 5.8433,
      "duration": 0.0643,
      "velocity": 127,
      "chip": "ym2612"
    },
    {
      "channel": 0,
      "note": 68,
      "start": 5.9035,
      "duration": 0.0038,
      "velocity": 95,
      "chip": "ym2612"
    },
    {
      "channel": 1,
      "note": 46,
      "start": 5.9037,
      "duration": 0.0037,
      "velocity": 115,
      "chip": "ym2612"
    },
    {
      "channel": 0,
      "note": 67,
      "start": 5.9576,
      "duration": 0.0045,
      "velocity": 95,
      "chip": "ym2612"
    },
    {
      "channel": 1,
      "note": 41,
      "start": 5.9578,
      "duration": 0.059,
      "velocity": 115,
      "chip": "ym2612"
    },
    {
      "channel": 2,
      "note": 72,
      "start": 5.9586,
      "duration": 0.0037,
      "velocity": 127,
      "chip": "ym2612"
    },
    {
      "channel": 3,
      "note": 65,
      "start": 5.9587,
      "duration": 0.0037,
      "velocity": 127,
      "chip": "ym2612"
    },
    {
      "channel": 4,
      "note": 68,
      "start": 5.9587,
      "duration": 0.0038,
      "velocity": 127,
      "chip": "ym2612"
    },
    {
      "channel": 0,
      "note": 65,
      "start": 6.0124,
      "duration": 0.0043,
      "velocity": 95,
      "chip": "ym2612"
    },
    {
      "channel": 2,
      "note": 67,
      "start": 6.0131,
      "duration": 0.2248,
      "velocity": 127,
      "chip": "ym2612"
    },
    {
      "channel": 3,
      "note": 72,
      "start": 6.0131,
      "duration": 0.2248,
      "velocity": 127,
      "chip": "ym2612"
    },
    {
      "channel": 4,
      "note": 63,
      "start": 6.0131,
      "duration": 0.2248,
      "velocity": 127,
      "chip": "ym2612"
    },
    {
      "channel": 0,
      "note": 67,
      "start": 6.0671,
      "duration": 0.0101,
      "velocity": 95,
      "chip": "ym2612"
    },
    {
      "channel": 1,
      "note": 41,
      "start": 6.0673,
      "duration": 0.0639,
      "velocity": 115,
      "chip": "ym2612"
    },
    {
      "channel": 0,
      "note": 68,
      "start": 6.1275,
      "duration": 0.0036,
      "velocity": 95,
      "chip": "ym2612"
    },
    {
      "channel": 0,
      "note": 70,
      "start": 6.1814,
      "duration": 0.0037,
      "velocity": 95,
      "chip": "ym2612"
    },
    {
      "channel": 1,
      "note": 41,
      "start": 6.1816,
      "duration": 0.0037,
      "velocity": 115,
      "chip": "ym2612"
    },
    {
      "channel": 0,
      "note": 65,
      "start": 6.2354,
      "duration": 0.0003,
      "velocity": 95,
      "chip": "ym2612"
    },
    {
      "channel": 1,
      "note": 46,
      "start": 6.2356,
      "duration": 0.0006,
      "velocity": 115,
      "chip": "ym2612"
    },
    {
      "channel": 0,
      "note": 67,
      "start": 6.2361,
      "duration": 0.0001,
      "velocity": 95,
      "chip": "ym2612"
    },
    {
      "channel": 0,
      "note": 63,
      "start": 6.2367,
      "duration": 0.0004,
      "velocity": 95,
      "chip": "ym2612"
    },
    {
      "channel": 1,
      "note": 44,
      "start": 6.237,
      "duration": 0.0008,
      "velocity": 115,
      "chip": "ym2612"
    },
    {
      "channel": 0,
      "note": 58,
      "start": 6.2375,
      "duration": 0.0001,
      "velocity": 95,
      "chip": "ym2612"
    },
    {
      "channel": 0,
      "note": 77,
      "start": 6.2406,
      "duration": 0.0683,
      "velocity": 95,
      "chip": "ym2612"
    },
    {
      "channel": 1,
      "note": 41,
      "start": 6.241,
      "duration": 0.0681,
      "velocity": 115,
      "chip": "ym2612"
    },
    {
      "channel": 2,
      "note": 72,
      "start": 6.2475,
      "duration": 0.0009,
      "velocity": 109,
      "chip": "ym2612"
    },
    {
      "channel": 3,
      "note": 65,
      "start": 6.2476,
      "duration": 0.0009,
      "velocity": 109,
      "chip": "ym2612"
    },
    {
      "channel": 4,
      "note": 68,
      "start": 6.2476,
      "duration": 0.0009,
      "velocity": 109,
      "chip": "ym2612"
    },
    {
      "channel": 2,
      "note": 72,
      "start": 6.2986,
      "duration": 0.0106,
      "velocity": 109,
      "chip": "ym2612"
    },
    {
      "channel": 3,
      "note": 65,
      "start": 6.2987,
      "duration": 0.0105,
      "velocity": 109,
      "chip": "ym2612"
    },
    {
      "channel": 4,
      "note": 68,
      "start": 6.2987,
      "duration": 0.0106,
      "velocity": 109,
      "chip": "ym2612"
    },
    {
      "channel": 0,
      "note": 72,
      "start": 6.3593,
      "duration": 0.0705,
      "velocity": 95,
      "chip": "ym2612"
    },
    {
      "channel": 1,
      "note": 41,
      "start": 6.3595,
      "duration": 0.0704,
      "velocity": 115,
      "chip": "ym2612"
    },
    {
      "channel": 0,
      "note": 80,
      "start": 6.4801,
      "duration": 0.0116,
      "velocity": 95,
      "chip": "ym2612"
    },
    {
      "channel": 1,
      "note": 44,
      "start": 6.4804,
      "duration": 0.0114,
      "velocity": 115,
      "chip": "ym2612"
    },
    {
      "channel": 0,
      "note": 77,
      "start": 6.542,
      "duration": 0.0101,
      "velocity": 95,
      "chip": "ym2612"
    },
    {
      "channel": 1,
      "note": 46,
      "start": 6.5423,
      "duration": 0.01,
      "velocity": 115,
      "chip": "ym2612"
    },
    {
      "channel": 0,
      "note": 79,
      "start": 6.6024,
      "duration": 0.0681,
      "velocity": 95,
      "chip": "ym2612"
    },
    {
      "channel": 1,
      "note": 41,
      "start": 6.6028,
      "duration": 0.0679,
      "velocity": 115,
      "chip": "ym2612"
    },
    {
      "channel": 2,
      "note": 77,
      "start": 6.6691,
      "duration": 0.0619,
      "velocity": 111,
      "chip": "ym2612"
    },
    {
      "channel": 3,
      "note": 84,
      "start": 6.6692,
      "duration": 0.0619,
      "velocity": 111,
      "chip": "ym2612"
    },
    {
      "channel": 4,
      "note": 80,
      "start": 6.6693,
      "duration": 0.0619,
      "velocity": 111,
      "chip": "ym2612"
    },
    {
      "channel": 0,
      "note": 79,
      "start": 6.7208,
      "duration": 0.0711,
      "velocity": 95,
      "chip": "ym2612"
    },
    {
      "channel": 1,
      "note": 41,
      "start": 6.7211,
      "duration": 0.071,
      "velocity": 115,
      "chip": "ym2612"
    },
    {
      "channel": 2,
      "note": 77,
      "start": 6.7818,
      "duration": 0.0105,
      "velocity": 111,
      "chip": "ym2612"
    },
    {
      "channel": 3,
      "note": 84,
      "start": 6.7818,
      "duration": 0.0104,
      "velocity": 111,
      "chip": "ym2612"
    },
    {
      "channel": 4,
      "note": 80,
      "start": 6.7819,
      "duration": 0.0104,
      "velocity": 111,
      "chip": "ym2612"
    },
    {
      "channel": 0,
      "note": 75,
      "start": 6.8423,
      "duration": 0.0108,
      "velocity": 95,
      "chip": "ym2612"
    },
    {
      "channel": 1,
      "note": 41,
      "start": 6.8426,
      "duration": 0.0106,
      "velocity": 115,
      "chip": "ym2612"
    },
    {
      "channel": 2,
      "note": 77,
      "start": 6.8432,
      "duration": 0.0102,
      "velocity": 111,
      "chip": "ym2612"
    },
    {
      "channel": 3,
      "note": 84,
      "start": 6.8432,
      "duration": 0.0101,
      "velocity": 111,
      "chip": "ym2612"
    },
    {
      "channel": 4,
      "note": 80,
      "start": 6.8433,
      "duration": 0.0101,
      "velocity": 111,
      "chip": "ym2612"
    },
    {
      "channel": 0,
      "note": 77,
      "start": 6.9034,
      "duration": 0.1325,
      "velocity": 95,
      "chip": "ym2612"
    },
    {
      "channel": 1,
      "note": 46,
      "start": 6.9037,
      "duration": 0.0117,
      "velocity": 115,
      "chip": "ym2612"
    },
    {
      "channel": 1,
      "note": 44,
      "start": 6.9657,
      "duration": 0.0703,
      "velocity": 115,
      "chip": "ym2612"
    },
    {
      "channel": 0,
      "note": 77,
      "start": 7.0863,
      "duration": 0.0679,
      "velocity": 95,
      "chip": "ym2612"
    },
    {
      "channel": 1,
      "note": 41,
      "start": 7.0866,
      "duration": 0.0677,
      "velocity": 115,
      "chip": "ym2612"
    },
    {
      "channel": 2,
      "note": 72,
      "start": 7.0929,
      "duration": 0.1218,
      "velocity": 103,
      "chip": "ym2612"
    },
    {
      "channel": 3,
      "note": 65,
      "start": 7.093,
      "duration": 0.1218,
      "velocity": 103,
      "chip": "ym2612"
    },
    {
      "channel": 4,
      "note": 68,
      "start": 7.0931,
      "duration": 0.1218,
      "velocity": 103,
      "chip": "ym2612"
    },
    {
      "channel": 0,
      "note": 72,
      "start": 7.2045,
      "duration": 0.0711,
      "velocity": 95,
      "chip": "ym2612"
    },
    {
      "channel": 1,
      "note": 41,
      "start": 7.2048,
      "duration": 0.071,
      "velocity": 115,
      "chip": "ym2612"
    },
    {
      "channel": 2,
      "note": 72,
      "start": 7.2655,
      "duration": 0.0724,
      "velocity": 103,
      "chip": "ym2612"
    },
    {
      "channel": 3,
      "note": 65,
      "start": 7.2656,
      "duration": 0.0723,
      "velocity": 103,
      "chip": "ym2612"
    },
    {
      "channel": 4,
      "note": 68,
      "start": 7.2656,
      "duration": 0.0723,
      "velocity": 103,
      "chip": "ym2612"
    },
    {
      "channel": 0,
      "note": 80,
      "start": 7.3259,
      "duration": 0.0116,
      "velocity": 95,
      "chip": "ym2612"
    },
    {
      "channel": 1,
      "note": 44,
      "start": 7.3263,
      "duration": 0.0114,
      "velocity": 115,
      "chip": "ym2612"
    },
    {
      "channel": 0,
      "note": 77,
      "start": 7.3879,
      "duration": 0.0109,
      "velocity": 95,
      "chip": "ym2612"
    },
    {
      "channel": 1,
      "note": 46,
      "start": 7.3881,
      "duration": 0.0107,
      "velocity": 115,
      "chip": "ym2612"
    },
    {
      "channel": 2,
      "note": 75,
      "start": 7.3888,
      "duration": 0.4689,
      "velocity": 103,
      "chip": "ym2612"
    },
    {
      "channel": 3,
      "note": 65,
      "start": 7.3889,
      "duration": 0.4688,
      "velocity": 103,
      "chip": "ym2612"
    },
    {
      "channel": 4,
      "note": 70,
      "start": 7.389,
      "duration": 0.4688,
      "velocity": 103,
      "chip": "ym2612"
    },
    {
      "channel": 0,
      "note": 79,
      "start": 7.4491,
      "duration": 0.4083,
      "velocity": 95,
      "chip": "ym2612"
    },
    {
      "channel": 1,
      "note": 41,
      "start": 7.4494,
      "duration": 0.0638,
      "velocity": 115,
      "chip": "ym2612"
    },
    {
      "channel": 1,
      "note": 41,
      "start": 7.5635,
      "duration": 0.0639,
      "velocity": 115,
      "chip": "ym2612"
    },
    {
      "channel": 1,
      "note": 41,
      "start": 7.6778,
      "duration": 0.0037,
      "velocity": 115,
      "chip": "ym2612"
    },
    {
      "channel": 1,
      "note": 46,
      "start": 7.7318,
      "duration": 0.0114,
      "velocity": 115,
      "chip": "ym2612"
    },
    {
      "channel": 1,
      "note": 44,
      "start": 7.7936,
      "duration": 0.0639,
      "velocity": 115,
      "chip": "ym2612"
    },
    {
      "channel": 0,
      "note": 77,
      "start": 7.9077,
      "duration": 0.0689,
      "velocity": 95,
      "chip": "ym2612"
    },
    {
      "channel": 1,
      "note": 41,
      "start": 7.908,
      "duration": 0.0686,
      "velocity": 115,
      "chip": "ym2612"
    },
    {
      "channel": 2,
      "note": 72,
      "start": 7.9144,
      "duration": 0.0012,
      "velocity": 109,
      "chip": "ym2612"
    },
    {
      "channel": 3,
      "note": 65,
      "start": 7.9144,
      "duration": 0.0013,
      "velocity": 109,
      "chip": "ym2612"
    },
    {
      "channel": 4,
      "note": 68,
      "start": 7.9145,
      "duration": 0.0013,
      "velocity": 109,
      "chip": "ym2612"
    },
    {
      "channel": 2,
      "note": 72,
      "start": 7.9664,
      "duration": 0.0105,
      "velocity": 109,
      "chip": "ym2612"
    },
    {
      "channel": 3,
      "note": 65,
      "start": 7.9665,
      "duration": 0.0104,
      "velocity": 109,
      "chip": "ym2612"
    },
    {
      "channel": 4,
      "note": 68,
      "start": 7.9665,
      "duration": 0.0104,
      "velocity": 109,
      "chip": "ym2612"
    },
    {
      "channel": 0,
      "note": 72,
      "start": 8.0269,
      "duration": 0.0705,
      "velocity": 95,
      "chip": "ym2612"
    },
    {
      "channel": 1,
      "note": 41,
      "start": 8.0272,
      "duration": 0.0704,
      "velocity": 115,
      "chip": "ym2612"
    },
    {
      "channel": 0,
      "note": 80,
      "start": 8.1477,
      "duration": 0.0116,
      "velocity": 95,
      "chip": "ym2612"
    },
    {
      "channel": 1,
      "note": 44,
      "start": 8.148,
      "duration": 0.0114,
      "velocity": 115,
      "chip": "ym2612"
    },
    {
      "channel": 0,
      "note": 77,
      "start": 8.2096,
      "duration": 0.0101,
      "velocity": 95,
      "chip": "ym2612"
    },
    {
      "channel": 1,
      "note": 46,
      "start": 8.2099,
      "duration": 0.01,
      "velocity": 115,
      "chip": "ym2612"
    },
    {
      "channel": 0,
      "note": 79,
      "start": 8.2701,
      "duration": 0.0681,
      "velocity": 95,
      "chip": "ym2612"
    },
    {
      "channel": 1,
      "note": 41,
      "start": 8.2704,
      "duration": 0.0679,
      "velocity": 115,
      "chip": "ym2612"
    },
    {
      "channel": 2,
      "note": 77,
      "start": 8.3368,
      "duration": 0.0619,
      "velocity": 111,
      "chip": "ym2612"
    },
    {
      "channel": 3,
      "note": 80,
      "start": 8.3368,
      "duration": 0.0619,
      "velocity": 111,
      "chip": "ym2612"
    },
    {
      "channel": 4,
      "note": 84,
      "start": 8.3369,
      "duration": 0.0619,
      "velocity": 111,
      "chip": "ym2612"
    },
    {
      "channel": 0,
      "note": 79,
      "start": 8.3885,
      "duration": 0.0711,
      "velocity": 95,
      "chip": "ym2612"
    },
    {
      "channel": 1,
      "note": 41,
      "start": 8.3887,
      "duration": 0.071,
      "velocity": 115,
      "chip": "ym2612"
    },
    {
      "channel": 2,
      "note": 77,
      "start": 8.4494,
      "duration": 0.0105,
      "velocity": 111,
      "chip": "ym2612"
    },
    {
      "channel": 3,
      "note": 80,
      "start": 8.4495,
      "duration": 0.0104,
      "velocity": 111,
      "chip": "ym2612"
    },
    {
      "channel": 4,
      "note": 84,
      "start": 8.4495,
      "duration": 0.0104,
      "velocity": 111,
      "chip": "ym2612"
    },
    {
      "channel": 0,
      "note": 75,
      "start": 8.5099,
      "duration": 0.0108,
      "velocity": 95,
      "chip": "ym2612"
    },
    {
      "channel": 1,
      "note": 41,
      "start": 8.5102,
      "duration": 0.0106,
      "velocity": 115,
      "chip": "ym2612"
    },
    {
      "channel": 2,
      "note": 77,
      "start": 8.5108,
      "duration": 0.0102,
      "velocity": 111,
      "chip": "ym2612"
    },
    {
      "channel": 3,
      "note": 80,
      "start": 8.5109,
      "duration": 0.0101,
      "velocity": 111,
      "chip": "ym2612"
    },
    {
      "channel": 4,
      "note": 84,
      "start": 8.511,
      "duration": 0.0101,
      "velocity": 111,
      "chip": "ym2612"
    },
    {
      "channel": 0,
      "note": 77,
      "start": 8.571,
      "duration": 0.012,
      "velocity": 95,
      "chip": "ym2612"
    },
    {
      "channel": 1,
      "note": 46,
      "start": 8.5714,
      "duration": 0.0118,
      "velocity": 115,
      "chip": "ym2612"
    },
    {
      "channel": 0,
      "note": 72,
      "start": 8.6334,
      "duration": 0.0704,
      "velocity": 95,
      "chip": "ym2612"
    },
    {
      "channel": 1,
      "note": 44,
      "start": 8.6337,
      "duration": 0.0702,
      "velocity": 115,
      "chip": "ym2612"
    },
    {
      "channel": 0,
      "note": 75,
      "start": 8.7541,
      "duration": 0.7735,
      "velocity": 95,
      "chip": "ym2612"
    },
    {
      "channel": 1,
      "note": 41,
      "start": 8.7545,
      "duration": 0.068,
      "velocity": 115,
      "chip": "ym2612"
    },
    {
      "channel": 2,
      "note": 72,
      "start": 8.7612,
      "duration": 0.0614,
      "velocity": 127,
      "chip": "ym2612"
    },
    {
      "channel": 3,
      "note": 65,
      "start": 8.7613,
      "duration": 0.0614,
      "velocity": 127,
      "chip": "ym2612"
    },
    {
      "channel": 4,
      "note": 68,
      "start": 8.7614,
      "duration": 0.0614,
      "velocity": 127,
      "chip": "ym2612"
    },
    {
      "channel": 1,
      "note": 41,
      "start": 8.8727,
      "duration": 0.072,
      "velocity": 115,
      "chip": "ym2612"
    },
    {
      "channel": 2,
      "note": 72,
      "start": 8.8734,
      "duration": 0.0103,
      "velocity": 127,
      "chip": "ym2612"
    },
    {
      "channel": 3,
      "note": 65,
      "start": 8.8735,
      "duration": 0.0103,
      "velocity": 127,
      "chip": "ym2612"
    },
    {
      "channel": 4,
      "note": 68,
      "start": 8.8736,
      "duration": 0.0103,
      "velocity": 127,
      "chip": "ym2612"
    },
    {
      "channel": 2,
      "note": 72,
      "start": 8.9344,
      "duration": 0.0606,
      "velocity": 127,
      "chip": "ym2612"
    },
    {
      "channel": 3,
      "note": 65,
      "start": 8.9345,
      "duration": 0.0605,
      "velocity": 127,
      "chip": "ym2612"
    },
    {
      "channel": 4,
      "note": 68,
      "start": 8.9346,
      "duration": 0.0605,
      "velocity": 127,
      "chip": "ym2612"
    },
    {
      "channel": 1,
      "note": 44,
      "start": 8.9949,
      "duration": 0.0122,
      "velocity": 115,
      "chip": "ym2612"
    },
    {
      "channel": 2,
      "note": 72,
      "start": 8.997,
      "duration": 0.0707,
      "velocity": 127,
      "chip": "ym2612"
    },
    {
      "channel": 3,
      "note": 65,
      "start": 8.997,
      "duration": 0.0707,
      "velocity": 127,
      "chip": "ym2612"
    },
    {
      "channel": 4,
      "note": 68,
      "start": 8.9971,
      "duration": 0.0707,
      "velocity": 127,
      "chip": "ym2612"
    },
    {
      "channel": 1,
      "note": 46,
      "start": 9.0575,
      "duration": 0.01,
      "velocity": 115,
      "chip": "ym2612"
    },
    {
      "channel": 1,
      "note": 41,
      "start": 9.1178,
      "duration": 0.0655,
      "velocity": 115,
      "chip": "ym2612"
    },
    {
      "channel": 2,
      "note": 72,
      "start": 9.1184,
      "duration": 0.0101,
      "velocity": 127,
      "chip": "ym2612"
    },
    {
      "channel": 3,
      "note": 65,
      "start": 9.1185,
      "duration": 0.0102,
      "velocity": 127,
      "chip": "ym2612"
    },
    {
      "channel": 4,
      "note": 68,
      "start": 9.1185,
      "duration": 0.0102,
      "velocity": 127,
      "chip": "ym2612"
    },
    {
      "channel": 2,
      "note": 67,
      "start": 9.1793,
      "duration": 0.3486,
      "velocity": 127,
      "chip": "ym2612"
    },
    {
      "channel": 3,
      "note": 72,
      "start": 9.1794,
      "duration": 0.3485,
      "velocity": 127,
      "chip": "ym2612"
    },
    {
      "channel": 4,
      "note": 63,
      "start": 9.1794,
      "duration": 0.3485,
      "velocity": 127,
      "chip": "ym2612"
    },
    {
      "channel": 1,
      "note": 41,
      "start": 9.2337,
      "duration": 0.0639,
      "velocity": 115,
      "chip": "ym2612"
    },
    {
      "channel": 1,
      "note": 41,
      "start": 9.3479,
      "duration": 0.0037,
      "velocity": 115,
      "chip": "ym2612"
    },
    {
      "channel": 1,
      "note": 46,
      "start": 9.4019,
      "duration": 0.0114,
      "velocity": 115,
      "chip": "ym2612"
    },
    {
      "channel": 1,
      "note": 44,
      "start": 9.4638,
      "duration": 0.0639,
      "velocity": 115,
      "chip": "ym2612"
    },
    {
      "channel": 0,
      "note": 77,
      "start": 9.5779,
      "duration": 0.0691,
      "velocity": 95,
      "chip": "ym2612"
    },
    {
      "channel": 1,
      "note": 41,
      "start": 9.5782,
      "duration": 0.0689,
      "velocity": 115,
      "chip": "ym2612"
    },
    {
      "channel": 2,
      "note": 68,
      "start": 9.5847,
      "duration": 0.0013,
      "velocity": 109,
      "chip": "ym2612"
    },
    {
      "channel": 3,
      "note": 72,
      "start": 9.5848,
      "duration": 0.0013,
      "velocity": 109,
      "chip": "ym2612"
    },
    {
      "channel": 4,
      "note": 65,
      "start": 9.5849,
      "duration": 0.0013,
      "velocity": 109,
      "chip": "ym2612"
    },
    {
      "channel": 2,
      "note": 68,
      "start": 9.6368,
      "duration": 0.0105,
      "velocity": 109,
      "chip": "ym2612"
    },
    {
      "channel": 3,
      "note": 72,
      "start": 9.6368,
      "duration": 0.0104,
      "velocity": 109,
      "chip": "ym2612"
    },
    {
      "channel": 4,
      "note": 65,
      "start": 9.6369,
      "duration": 0.0104,
      "velocity": 109,
      "chip": "ym2612"
    },
    {
      "channel": 0,
      "note": 72,
      "start": 9.6973,
      "duration": 0.0705,
      "velocity": 95,
      "chip": "ym2612"
    },
    {
      "channel": 1,
      "note": 41,
      "start": 9.6976,
      "duration": 0.0704,
      "velocity": 115,
      "chip": "ym2612"
    },
    {
      "channel": 0,
      "note": 80,
      "start": 9.8181,
      "duration": 0.0116,
      "velocity": 95,
      "chip": "ym2612"
    },
    {
      "channel": 1,
      "note": 44,
      "start": 9.8184,
      "duration": 0.0114,
      "velocity": 115,
      "chip": "ym2612"
    },
    {
      "channel": 0,
      "note": 77,
      "start": 9.88,
      "duration": 0.0101,
      "velocity": 95,
      "chip": "ym2612"
    },
    {
      "channel": 1,
      "note": 46,
      "start": 9.8803,
      "duration": 0.01,
      "velocity": 115,
      "chip": "ym2612"
    },
    {
      "channel": 0,
      "note": 79,
      "start": 9.9404,
      "duration": 0.0681,
      "velocity": 95,
      "chip": "ym2612"
    },
    {
      "channel": 1,
      "note": 41,
      "start": 9.9408,
      "duration": 0.0679,
      "velocity": 115,
      "chip": "ym2612"
    },
    {
      "channel": 2,
      "note": 77,
      "start": 10.0071,
      "duration": 0.0619,
      "velocity": 111,
      "chip": "ym2612"
    },
    {
      "channel": 3,
      "note": 84,
      "start": 10.0072,
      "duration": 0.0619,
      "velocity": 111,
      "chip": "ym2612"
    },
    {
      "channel": 4,
      "note": 80,
      "start": 10.0073,
      "duration": 0.0619,
      "velocity": 111,
      "chip": "ym2612"
    },
    {
      "channel": 0,
      "note": 79,
      "start": 10.0588,
      "duration": 0.0711,
      "velocity": 95,
      "chip": "ym2612"
    },
    {
      "channel": 1,
      "note": 41,
      "start": 10.0591,
      "duration": 0.071,
      "velocity": 115,
      "chip": "ym2612"
    },
    {
      "channel": 2,
      "note": 77,
      "start": 10.1198,
      "duration": 0.0105,
      "velocity": 111,
      "chip": "ym2612"
    },
    {
      "channel": 3,
      "note": 84,
      "start": 10.1198,
      "duration": 0.0104,
      "velocity": 111,
      "chip": "ym2612"
    },
    {
      "channel": 4,
      "note": 80,
      "start": 10.1199,
      "duration": 0.0104,
      "velocity": 111,
      "chip": "ym2612"
    },
    {
      "channel": 0,
      "note": 75,
      "start": 10.1803,
      "duration": 0.0108,
      "velocity": 95,
      "chip": "ym2612"
    },
    {
      "channel": 1,
      "note": 41,
      "start": 10.1806,
      "duration": 0.0106,
      "velocity": 115,
      "chip": "ym2612"
    },
    {
      "channel": 2,
      "note": 77,
      "start": 10.1812,
      "duration": 0.0102,
      "velocity": 111,
      "chip": "ym2612"
    },
    {
      "channel": 3,
      "note": 84,
      "start": 10.1812,
      "duration": 0.0101,
      "velocity": 111,
      "chip": "ym2612"
    },
    {
      "channel": 4,
      "note": 80,
      "start": 10.1813,
      "duration": 0.0101,
      "velocity": 111,
      "chip": "ym2612"
    },
    {
      "channel": 0,
      "note": 77,
      "start": 10.2414,
      "duration": 0.1325,
      "velocity": 95,
      "chip": "ym2612"
    },
    {
      "channel": 1,
      "note": 46,
      "start": 10.2417,
      "duration": 0.0117,
      "velocity": 115,
      "chip": "ym2612"
    },
    {
      "channel": 1,
      "note": 44,
      "start": 10.3037,
      "duration": 0.0703,
      "velocity": 115,
      "chip": "ym2612"
    },
    {
      "channel": 0,
      "note": 77,
      "start": 10.4243,
      "duration": 0.0679,
      "velocity": 95,
      "chip": "ym2612"
    },
    {
      "channel": 1,
      "note": 41,
      "start": 10.4246,
      "duration": 0.0677,
      "velocity": 115,
      "chip": "ym2612"
    },
    {
      "channel": 2,
      "note": 65,
      "start": 10.431,
      "duration": 0.0616,
      "velocity": 103,
      "chip": "ym2612"
    },
    {
      "channel": 3,
      "note": 72,
      "start": 10.431,
      "duration": 0.0615,
      "velocity": 103,
      "chip": "ym2612"
    },
    {
      "channel": 4,
      "note": 68,
      "start": 10.4311,
      "duration": 0.0615,
      "velocity": 103,
      "chip": "ym2612"
    },
    {
      "channel": 0,
      "note": 72,
      "start": 10.5425,
      "duration": 0.0718,
      "velocity": 95,
      "chip": "ym2612"
    },
    {
      "channel": 1,
      "note": 41,
      "start": 10.5428,
      "duration": 0.0716,
      "velocity": 115,
      "chip": "ym2612"
    },
    {
      "channel": 2,
      "note": 65,
      "start": 10.5434,
      "duration": 0.01,
      "velocity": 103,
      "chip": "ym2612"
    },
    {
      "channel": 3,
      "note": 72,
      "start": 10.5435,
      "duration": 0.01,
      "velocity": 103,
      "chip": "ym2612"
    },
    {
      "channel": 4,
      "note": 68,
      "start": 10.5436,
      "duration": 0.01,
      "velocity": 103,
      "chip": "ym2612"
    },
    {
      "channel": 2,
      "note": 65,
      "start": 10.6041,
      "duration": 0.0609,
      "velocity": 103,
      "chip": "ym2612"
    },
    {
      "channel": 3,
      "note": 72,
      "start": 10.6042,
      "duration": 0.0609,
      "velocity": 103,
      "chip": "ym2612"
    },
    {
      "channel": 4,
      "note": 68,
      "start": 10.6043,
      "duration": 0.0609,
      "velocity": 103,
      "chip": "ym2612"
    },
    {
      "channel": 0,
      "note": 80,
      "start": 10.6646,
      "duration": 0.0125,
      "velocity": 95,
      "chip": "ym2612"
    },
    {
      "channel": 1,
      "note": 44,
      "start": 10.6649,
      "duration": 0.0122,
      "velocity": 115,
      "chip": "ym2612"
    },
    {
      "channel": 2,
      "note": 65,
      "start": 10.6669,
      "duration": 0.071,
      "velocity": 103,
      "chip": "ym2612"
    },
    {
      "channel": 3,
      "note": 72,
      "start": 10.667,
      "duration": 0.0709,
      "velocity": 103,
      "chip": "ym2612"
    },
    {
      "channel": 4,
      "note": 68,
      "start": 10.6671,
      "duration": 0.0708,
      "velocity": 103,
      "chip": "ym2612"
    },
    {
      "channel": 0,
      "note": 77,
      "start": 10.7274,
      "duration": 0.0101,
      "velocity": 95,
      "chip": "ym2612"
    },
    {
      "channel": 1,
      "note": 46,
      "start": 10.7277,
      "duration": 0.01,
      "velocity": 115,
      "chip": "ym2612"
    },
    {
      "channel": 0,
      "note": 79,
      "start": 10.7879,
      "duration": 0.234,
      "velocity": 95,
      "chip": "ym2612"
    },
    {
      "channel": 1,
      "note": 41,
      "start": 10.7882,
      "duration": 0.0654,
      "velocity": 115,
      "chip": "ym2612"
    },
    {
      "channel": 2,
      "note": 65,
      "start": 10.7889,
      "duration": 0.01,
      "velocity": 103,
      "chip": "ym2612"
    },
    {
      "channel": 3,
      "note": 72,
      "start": 10.789,
      "duration": 0.01,
      "velocity": 103,
      "chip": "ym2612"
    },
    {
      "channel": 4,
      "note": 68,
      "start": 10.7891,
      "duration": 0.01,
      "velocity": 103,
      "chip": "ym2612"
    },
    {
      "channel": 2,
      "note": 65,
      "start": 10.8497,
      "duration": 0.3486,
      "velocity": 103,
      "chip": "ym2612"
    },
    {
      "channel": 3,
      "note": 70,
      "start": 10.8497,
      "duration": 0.3486,
      "velocity": 103,
      "chip": "ym2612"
    },
    {
      "channel": 4,
      "note": 75,
      "start": 10.8498,
      "duration": 0.3486,
      "velocity": 103,
      "chip": "ym2612"
    },
    {
      "channel": 1,
      "note": 41,
      "start": 10.9039,
      "duration": 0.0639,
      "velocity": 115,
      "chip": "ym2612"
    },
    {
      "channel": 1,
      "note": 41,
      "start": 11.0182,
      "duration": 0.0038,
      "velocity": 115,
      "chip": "ym2612"
    },
    {
      "channel": 0,
      "note": 75,
      "start": 11.0722,
      "duration": 0.1259,
      "velocity": 95,
      "chip": "ym2612"
    },
    {
      "channel": 1,
      "note": 46,
      "start": 11.0725,
      "duration": 0.0113,
      "velocity": 115,
      "chip": "ym2612"
    },
    {
      "channel": 1,
      "note": 44,
      "start": 11.1343,
      "duration": 0.0639,
      "velocity": 115,
      "chip": "ym2612"
    },
    {
      "channel": 0,
      "note": 77,
      "start": 11.2484,
      "duration": 0.0691,
      "velocity": 95,
      "chip": "ym2612"
    },
    {
      "channel": 1,
      "note": 41,
      "start": 11.2488,
      "duration": 0.0688,
      "velocity": 115,
      "chip": "ym2612"
    },
    {
      "channel": 2,
      "note": 65,
      "start": 11.2553,
      "duration": 0.0013,
      "velocity": 109,
      "chip": "ym2612"
    },
    {
      "channel": 3,
      "note": 72,
      "start": 11.2554,
      "duration": 0.0013,
      "velocity": 109,
      "chip": "ym2612"
    },
    {
      "channel": 4,
      "note": 68,
      "start": 11.2554,
      "duration": 0.0013,
      "velocity": 109,
      "chip": "ym2612"
    },
    {
      "channel": 2,
      "note": 65,
      "start": 11.3073,
      "duration": 0.0105,
      "velocity": 109,
      "chip": "ym2612"
    },
    {
      "channel": 3,
      "note": 72,
      "start": 11.3074,
      "duration": 0.0104,
      "velocity": 109,
      "chip": "ym2612"
    },
    {
      "channel": 4,
      "note": 68,
      "start": 11.3074,
      "duration": 0.0104,
      "velocity": 109,
      "chip": "ym2612"
    },
    {
      "channel": 0,
      "note": 72,
      "start": 11.3678,
      "duration": 0.0705,
      "velocity": 95,
      "chip": "ym2612"
    },
    {
      "channel": 1,
      "note": 41,
      "start": 11.3681,
      "duration": 0.0704,
      "velocity": 115,
      "chip": "ym2612"
    },
    {
      "channel": 0,
      "note": 80,
      "start": 11.4886,
      "duration": 0.0116,
      "velocity": 95,
      "chip": "ym2612"
    },
    {
      "channel": 1,
      "note": 44,
      "start": 11.489,
      "duration": 0.0114,
      "velocity": 115,
      "chip": "ym2612"
    },
    {
      "channel": 0,
      "note": 77,
      "start": 11.5505,
      "duration": 0.0101,
      "velocity": 95,
      "chip": "ym2612"
    },
    {
      "channel": 1,
      "note": 46,
      "start": 11.5508,
      "duration": 0.01,
      "velocity": 115,
      "chip": "ym2612"
    },
    {
      "channel": 0,
      "note": 79,
      "start": 11.611,
      "duration": 0.068,
      "velocity": 95,
      "chip": "ym2612"
    },
    {
      "channel": 1,
      "note": 41,
      "start": 11.6113,
      "duration": 0.0677,
      "velocity": 115,
      "chip": "ym2612"
    },
    {
      "channel": 2,
      "note": 77,
      "start": 11.6775,
      "duration": 0.062,
      "velocity": 111,
      "chip": "ym2612"
    },
    {
      "channel": 3,
      "note": 84,
      "start": 11.6775,
      "duration": 0.062,
      "velocity": 111,
      "chip": "ym2612"
    },
    {
      "channel": 4,
      "note": 80,
      "start": 11.6776,
      "duration": 0.062,
      "velocity": 111,
      "chip": "ym2612"
    },
    {
      "channel": 0,
      "note": 79,
      "start": 11.7292,
      "duration": 0.0711,
      "velocity": 95,
      "chip": "ym2612"
    },
    {
      "channel": 1,
      "note": 41,
      "start": 11.7295,
      "duration": 0.071,
      "velocity": 115,
      "chip": "ym2612"
    },
    {
      "channel": 2,
      "note": 77,
      "start": 11.7902,
      "duration": 0.0105,
      "velocity": 111,
      "chip": "ym2612"
    },
    {
      "channel": 3,
      "note": 84,
      "start": 11.7902,
      "duration": 0.0104,
      "velocity": 111,
      "chip": "ym2612"
    },
    {
      "channel": 4,
      "note": 80,
      "start": 11.7903,
      "duration": 0.0104,
      "velocity": 111,
      "chip": "ym2612"
    },
    {
      "channel": 0,
      "note": 75,
      "start": 11.8507,
      "duration": 0.0108,
      "velocity": 95,
      "chip": "ym2612"
    },
    {
      "channel": 1,
      "note": 41,
      "start": 11.851,
      "duration": 0.0106,
      "velocity": 115,
      "chip": "ym2612"
    },
    {
      "channel": 2,
      "note": 77,
      "start": 11.8516,
      "duration": 0.0102,
      "velocity": 111,
      "chip": "ym2612"
    },
    {
      "channel": 3,
      "note": 84,
      "start": 11.8516,
      "duration": 0.0101,
      "velocity": 111,
      "chip": "ym2612"
    },
    {
      "channel": 4,
      "note": 80,
      "start": 11.8517,
      "duration": 0.0101,
      "velocity": 111,
      "chip": "ym2612"
    },
    {
      "channel": 0,
      "note": 77,
      "start": 11.9118,
      "duration": 0.012,
      "velocity": 95,
      "chip": "ym2612"
    },
    {
      "channel": 1,
      "note": 46,
      "start": 11.9121,
      "duration": 0.0118,
      "velocity": 115,
      "chip": "ym2612"
    },
    {
      "channel": 0,
      "note": 79,
      "start": 11.9741,
      "duration": 0.0704,
      "velocity": 95,
      "chip": "ym2612"
    },
    {
      "channel": 1,
      "note": 44,
      "start": 11.9744,
      "duration": 0.0702,
      "velocity": 115,
      "chip": "ym2612"
    },
    {
      "channel": 0,
      "note": 80,
      "start": 12.0948,
      "duration": 0.0354,
      "velocity": 95,
      "chip": "ym2612"
    },
    {
      "channel": 1,
      "note": 41,
      "start": 12.0951,
      "duration": 0.0007,
      "velocity": 115,
      "chip": "ym2612"
    },
    {
      "channel": 1,
      "note": 41,
      "start": 12.1219,
      "duration": 0.0083,
      "velocity": 115,
      "chip": "ym2612"
    },
    {
      "channel": 2,
      "note": 61,
      "start": 12.1286,
      "duration": 0.1061,
      "velocity": 103,
      "chip": "ym2612"
    },
    {
      "channel": 3,
      "note": 68,
      "start": 12.1287,
      "duration": 0.1061,
      "velocity": 103,
      "chip": "ym2612"
    },
    {
      "channel": 4,
      "note": 65,
      "start": 12.1287,
      "duration": 0.1061,
      "velocity": 103,
      "chip": "ym2612"
    },
    {
      "channel": 0,
      "note": 77,
      "start": 12.1307,
      "duration": 0.156,
      "velocity": 95,
      "chip": "ym2612"
    },
    {
      "channel": 1,
      "note": 44,
      "start": 12.1311,
      "duration": 0.1034,
      "velocity": 115,
      "chip": "ym2612"
    },
    {
      "channel": 1,
      "note": 46,
      "start": 12.2848,
      "duration": 0.0016,
      "velocity": 115,
      "chip": "ym2612"
    },
    {
      "channel": 2,
      "note": 61,
      "start": 12.2856,
      "duration": 0.0012,
      "velocity": 103,
      "chip": "ym2612"
    },
    {
      "channel": 3,
      "note": 68,
      "start": 12.2856,
      "duration": 0.0012,
      "velocity": 103,
      "chip": "ym2612"
    },
    {
      "channel": 4,
      "note": 65,
      "start": 12.2857,
      "duration": 0.0012,
      "velocity": 103,
      "chip": "ym2612"
    },
    {
      "channel": 1,
      "note": 41,
      "start": 12.2866,
      "duration": 0.0332,
      "velocity": 115,
      "chip": "ym2612"
    },
    {
      "channel": 0,
      "note": 79,
      "start": 12.3124,
      "duration": 0.0094,
      "velocity": 95,
      "chip": "ym2612"
    },
    {
      "channel": 2,
      "note": 63,
      "start": 12.3191,
      "duration": 0.0029,
      "velocity": 127,
      "chip": "ym2612"
    },
    {
      "channel": 3,
      "note": 70,
      "start": 12.3192,
      "duration": 0.0028,
      "velocity": 127,
      "chip": "ym2612"
    },
    {
      "channel": 4,
      "note": 67,
      "start": 12.3192,
      "duration": 0.0028,
      "velocity": 127,
      "chip": "ym2612"
    },
    {
      "channel": 1,
      "note": 41,
      "start": 12.3203,
      "duration": 0.0007,
      "velocity": 115,
      "chip": "ym2612"
    },
    {
      "channel": 1,
      "note": 41,
      "start": 12.3216,
      "duration": 0.0002,
      "velocity": 115,
      "chip": "ym2612"
    },
    {
      "channel": 0,
      "note": 75,
      "start": 12.3224,
      "duration": 0.1768,
      "velocity": 95,
      "chip": "ym2612"
    },
    {
      "channel": 1,
      "note": 46,
      "start": 12.3227,
      "duration": 0.0013,
      "velocity": 115,
      "chip": "ym2612"
    },
    {
      "channel": 2,
      "note": 65,
      "start": 12.3233,
      "duration": 0.1763,
      "velocity": 127,
      "chip": "ym2612"
    },
    {
      "channel": 3,
      "note": 72,
      "start": 12.3233,
      "duration": 0.1763,
      "velocity": 127,
      "chip": "ym2612"
    },
    {
      "channel": 4,
      "note": 68,
      "start": 12.3234,
      "duration": 0.1763,
      "velocity": 127,
      "chip": "ym2612"
    },
    {
      "channel": 1,
      "note": 44,
      "start": 12.3496,
      "duration": 0.1498,
      "velocity": 115,
      "chip": "ym2612"
    },
    {
      "channel": 0,
      "note": 65,
      "start": 12.5518,
      "duration": 0.0076,
      "velocity": 95,
      "chip": "ym2612"
    },
    {
      "channel": 1,
      "note": 41,
      "start": 12.552,
      "duration": 0.0681,
      "velocity": 115,
      "chip": "ym2612"
    },
    {
      "channel": 2,
      "note": 72,
      "start": 12.5584,
      "duration": 0.001,
      "velocity": 109,
      "chip": "ym2612"
    },
    {
      "channel": 3,
      "note": 65,
      "start": 12.5584,
      "duration": 0.001,
      "velocity": 109,
      "chip": "ym2612"
    },
    {
      "channel": 4,
      "note": 68,
      "start": 12.5585,
      "duration": 0.001,
      "velocity": 109,
      "chip": "ym2612"
    },
    {
      "channel": 0,
      "note": 67,
      "start": 12.6093,
      "duration": 0.0108,
      "velocity": 95,
      "chip": "ym2612"
    },
    {
      "channel": 2,
      "note": 72,
      "start": 12.6099,
      "duration": 0.0104,
      "velocity": 109,
      "chip": "ym2612"
    },
    {
      "channel": 3,
      "note": 65,
      "start": 12.61,
      "duration": 0.0103,
      "velocity": 109,
      "chip": "ym2612"
    },
    {
      "channel": 4,
      "note": 68,
      "start": 12.6101,
      "duration": 0.0102,
      "velocity": 109,
      "chip": "ym2612"
    },
    {
      "channel": 0,
      "note": 68,
      "start": 12.6703,
      "duration": 0.0041,
      "velocity": 95,
      "chip": "ym2612"
    },
    {
      "channel": 1,
      "note": 41,
      "start": 12.6705,
      "duration": 0.0643,
      "velocity": 115,
      "chip": "ym2612"
    },
    {
      "channel": 0,
      "note": 70,
      "start": 12.7247,
      "duration": 0.01,
      "velocity": 95,
      "chip": "ym2612"
    },
    {
      "channel": 0,
      "note": 72,
      "start": 12.785,
      "duration": 0.0004,
      "velocity": 95,
      "chip": "ym2612"
    },
    {
      "channel": 1,
      "note": 44,
      "start": 12.7853,
      "duration": 0.0116,
      "velocity": 115,
      "chip": "ym2612"
    },
    {
      "channel": 0,
      "note": 70,
      "start": 12.7868,
      "duration": 0.01,
      "velocity": 95,
      "chip": "ym2612"
    },
    {
      "channel": 0,
      "note": 68,
      "start": 12.8471,
      "duration": 0.0038,
      "velocity": 95,
      "chip": "ym2612"
    },
    {
      "channel": 1,
      "note": 46,
      "start": 12.8473,
      "duration": 0.0037,
      "velocity": 115,
      "chip": "ym2612"
    },
    {
      "channel": 0,
      "note": 67,
      "start": 12.9012,
      "duration": 0.0038,
      "velocity": 95,
      "chip": "ym2612"
    },
    {
      "channel": 1,
      "note": 41,
      "start": 12.9015,
      "duration": 0.0617,
      "velocity": 115,
      "chip": "ym2612"
    },
    {
      "channel": 0,
      "note": 65,
      "start": 12.9554,
      "duration": 0.0076,
      "velocity": 95,
      "chip": "ym2612"
    },
    {
      "channel": 2,
      "note": 77,
      "start": 12.9617,
      "duration": 0.0555,
      "velocity": 111,
      "chip": "ym2612"
    },
    {
      "channel": 3,
      "note": 84,
      "start": 12.9617,
      "duration": 0.0555,
      "velocity": 111,
      "chip": "ym2612"
    },
    {
      "channel": 4,
      "note": 80,
      "start": 12.9618,
      "duration": 0.0556,
      "velocity": 111,
      "chip": "ym2612"
    },
    {
      "channel": 0,
      "note": 67,
      "start": 13.0133,
      "duration": 0.0037,
      "velocity": 95,
      "chip": "ym2612"
    },
    {
      "channel": 1,
      "note": 41,
      "start": 13.0135,
      "duration": 0.0648,
      "velocity": 115,
      "chip": "ym2612"
    },
    {
      "channel": 0,
      "note": 68,
      "start": 13.0673,
      "duration": 0.0108,
      "velocity": 95,
      "chip": "ym2612"
    },
    {
      "channel": 2,
      "note": 77,
      "start": 13.068,
      "duration": 0.0104,
      "velocity": 111,
      "chip": "ym2612"
    },
    {
      "channel": 3,
      "note": 84,
      "start": 13.0681,
      "duration": 0.0103,
      "velocity": 111,
      "chip": "ym2612"
    },
    {
      "channel": 4,
      "note": 80,
      "start": 13.0682,
      "duration": 0.0102,
      "velocity": 111,
      "chip": "ym2612"
    },
    {
      "channel": 0,
      "note": 70,
      "start": 13.1284,
      "duration": 0.0046,
      "velocity": 95,
      "chip": "ym2612"
    },
    {
      "channel": 1,
      "note": 41,
      "start": 13.1286,
      "duration": 0.0046,
      "velocity": 115,
      "chip": "ym2612"
    },
    {
      "channel": 2,
      "note": 77,
      "start": 13.1293,
      "duration": 0.0041,
      "velocity": 111,
      "chip": "ym2612"
    },
    {
      "channel": 3,
      "note": 84,
      "start": 13.1294,
      "duration": 0.004,
      "velocity": 111,
      "chip": "ym2612"
    },
    {
      "channel": 4,
      "note": 80,
      "start": 13.1294,
      "duration": 0.004,
      "velocity": 111,
      "chip": "ym2612"
    },
    {
      "channel": 0,
      "note": 72,
      "start": 13.1833,
      "duration": 0.001,
      "velocity": 95,
      "chip": "ym2612"
    },
    {
      "channel": 1,
      "note": 46,
      "start": 13.1836,
      "duration": 0.0119,
      "velocity": 115,
      "chip": "ym2612"
    },
    {
      "channel": 0,
      "note": 70,
      "start": 13.1854,
      "duration": 0.01,
      "velocity": 95,
      "chip": "ym2612"
    },
    {
      "channel": 0,
      "note": 68,
      "start": 13.2457,
      "duration": 0.0038,
      "velocity": 95,
      "chip": "ym2612"
    },
    {
      "channel": 1,
      "note": 44,
      "start": 13.2459,
      "duration": 0.0576,
      "velocity": 115,
      "chip": "ym2612"
    },
    {
      "channel": 0,
      "note": 67,
      "start": 13.2998,
      "duration": 0.0036,
      "velocity": 95,
      "chip": "ym2612"
    },
    {
      "channel": 0,
      "note": 65,
      "start": 13.3537,
      "duration": 0.0076,
      "velocity": 95,
      "chip": "ym2612"
    },
    {
      "channel": 1,
      "note": 41,
      "start": 13.3541,
      "duration": 0.0677,
      "velocity": 115,
      "chip": "ym2612"
    },
    {
      "channel": 2,
      "note": 72,
      "start": 13.3605,
      "duration": 0.1153,
      "velocity": 103,
      "chip": "ym2612"
    },
    {
      "channel": 3,
      "note": 65,
      "start": 13.3606,
      "duration": 0.1152,
      "velocity": 103,
      "chip": "ym2612"
    },
    {
      "channel": 4,
      "note": 68,
      "start": 13.3607,
      "duration": 0.1152,
      "velocity": 103,
      "chip": "ym2612"
    },
    {
      "channel": 0,
      "note": 67,
      "start": 13.4116,
      "duration": 0.01,
      "velocity": 95,
      "chip": "ym2612"
    },
    {
      "channel": 0,
      "note": 68,
      "start": 13.4719,
      "duration": 0.0037,
      "velocity": 95,
      "chip": "ym2612"
    },
    {
      "channel": 1,
      "note": 41,
      "start": 13.4721,
      "duration": 0.0648,
      "velocity": 115,
      "chip": "ym2612"
    },
    {
      "channel": 0,
      "note": 70,
      "start": 13.5259,
      "duration": 0.0108,
      "velocity": 95,
      "chip": "ym2612"
    },
    {
      "channel": 2,
      "note": 72,
      "start": 13.5267,
      "duration": 0.0724,
      "velocity": 103,
      "chip": "ym2612"
    },
    {
      "channel": 3,
      "note": 65,
      "start": 13.5267,
      "duration": 0.0724,
      "velocity": 103,
      "chip": "ym2612"
    },
    {
      "channel": 4,
      "note": 68,
      "start": 13.5268,
      "duration": 0.0723,
      "velocity": 103,
      "chip": "ym2612"
    },
    {
      "channel": 0,
      "note": 72,
      "start": 13.587,
      "duration": 0.0004,
      "velocity": 95,
      "chip": "ym2612"
    },
    {
      "channel": 1,
      "note": 44,
      "start": 13.5873,
      "duration": 0.0116,
      "velocity": 115,
      "chip": "ym2612"
    },
    {
      "channel": 0,
      "note": 70,
      "start": 13.5888,
      "duration": 0.01,
      "velocity": 95,
      "chip": "ym2612"
    },
    {
      "channel": 0,
      "note": 68,
      "start": 13.6491,
      "duration": 0.0046,
      "velocity": 95,
      "chip": "ym2612"
    },
    {
      "channel": 1,
      "note": 46,
      "start": 13.6493,
      "duration": 0.0044,
      "velocity": 115,
      "chip": "ym2612"
    },
    {
      "channel": 2,
      "note": 75,
      "start": 13.6501,
      "duration": 0.4502,
      "velocity": 103,
      "chip": "ym2612"
    },
    {
      "channel": 3,
      "note": 65,
      "start": 13.6501,
      "duration": 0.4502,
      "velocity": 103,
      "chip": "ym2612"
    },
    {
      "channel": 4,
      "note": 70,
      "start": 13.6502,
      "duration": 0.4502,
      "velocity": 103,
      "chip": "ym2612"
    },
    {
      "channel": 0,
      "note": 67,
      "start": 13.704,
      "duration": 0.0038,
      "velocity": 95,
      "chip": "ym2612"
    },
    {
      "channel": 1,
      "note": 41,
      "start": 13.7042,
      "duration": 0.0576,
      "velocity": 115,
      "chip": "ym2612"
    },
    {
      "channel": 0,
      "note": 65,
      "start": 13.7581,
      "duration": 0.0036,
      "velocity": 95,
      "chip": "ym2612"
    },
    {
      "channel": 0,
      "note": 67,
      "start": 13.812,
      "duration": 0.0037,
      "velocity": 95,
      "chip": "ym2612"
    },
    {
      "channel": 1,
      "note": 41,
      "start": 13.8122,
      "duration": 0.0639,
      "velocity": 115,
      "chip": "ym2612"
    },
    {
      "channel": 0,
      "note": 68,
      "start": 13.866,
      "duration": 0.01,
      "velocity": 95,
      "chip": "ym2612"
    },
    {
      "channel": 0,
      "note": 70,
      "start": 13.9263,
      "duration": 0.0037,
      "velocity": 95,
      "chip": "ym2612"
    },
    {
      "channel": 1,
      "note": 41,
      "start": 13.9265,
      "duration": 0.0037,
      "velocity": 115,
      "chip": "ym2612"
    },
    {
      "channel": 0,
      "note": 72,
      "start": 13.9803,
      "duration": 0.0004,
      "velocity": 95,
      "chip": "ym2612"
    },
    {
      "channel": 1,
      "note": 46,
      "start": 13.9806,
      "duration": 0.0115,
      "velocity": 115,
      "chip": "ym2612"
    },
    {
      "channel": 0,
      "note": 70,
      "start": 13.982,
      "duration": 0.0099,
      "velocity": 95,
      "chip": "ym2612"
    },
    {
      "channel": 0,
      "note": 72,
      "start": 14.0423,
      "duration": 0.0038,
      "velocity": 95,
      "chip": "ym2612"
    },
    {
      "channel": 1,
      "note": 44,
      "start": 14.0425,
      "duration": 0.0576,
      "velocity": 115,
      "chip": "ym2612"
    },
    {
      "channel": 0,
      "note": 75,
      "start": 14.0964,
      "duration": 0.0036,
      "velocity": 95,
      "chip": "ym2612"
    },
    {
      "channel": 0,
      "note": 65,
      "start": 14.1503,
      "duration": 0.0077,
      "velocity": 95,
      "chip": "ym2612"
    },
    {
      "channel": 1,
      "note": 41,
      "start": 14.1506,
      "duration": 0.0686,
      "velocity": 115,
      "chip": "ym2612"
    },
    {
      "channel": 2,
      "note": 72,
      "start": 14.157,
      "duration": 0.0012,
      "velocity": 109,
      "chip": "ym2612"
    },
    {
      "channel": 3,
      "note": 65,
      "start": 14.1571,
      "duration": 0.0012,
      "velocity": 109,
      "chip": "ym2612"
    },
    {
      "channel": 4,
      "note": 68,
      "start": 14.1571,
      "duration": 0.0012,
      "velocity": 109,
      "chip": "ym2612"
    },
    {
      "channel": 0,
      "note": 67,
      "start": 14.2083,
      "duration": 0.0108,
      "velocity": 95,
      "chip": "ym2612"
    },
    {
      "channel": 2,
      "note": 72,
      "start": 14.209,
      "duration": 0.0104,
      "velocity": 109,
      "chip": "ym2612"
    },
    {
      "channel": 3,
      "note": 65,
      "start": 14.2091,
      "duration": 0.0103,
      "velocity": 109,
      "chip": "ym2612"
    },
    {
      "channel": 4,
      "note": 68,
      "start": 14.2092,
      "duration": 0.0102,
      "velocity": 109,
      "chip": "ym2612"
    },
    {
      "channel": 0,
      "note": 68,
      "start": 14.2694,
      "duration": 0.0041,
      "velocity": 95,
      "chip": "ym2612"
    },
    {
      "channel": 1,
      "note": 41,
      "start": 14.2696,
      "duration": 0.0643,
      "velocity": 115,
      "chip": "ym2612"
    },
    {
      "channel": 0,
      "note": 70,
      "start": 14.3238,
      "duration": 0.01,
      "velocity": 95,
      "chip": "ym2612"
    },
    {
      "channel": 0,
      "note": 72,
      "start": 14.3841,
      "duration": 0.0004,
      "velocity": 95,
      "chip": "ym2612"
    },
    {
      "channel": 1,
      "note": 44,
      "start": 14.3844,
      "duration": 0.0116,
      "velocity": 115,
      "chip": "ym2612"
    },
    {
      "channel": 0,
      "note": 70,
      "start": 14.3859,
      "duration": 0.01,
      "velocity": 95,
      "chip": "ym2612"
    },
    {
      "channel": 0,
      "note": 68,
      "start": 14.4462,
      "duration": 0.0038,
      "velocity": 95,
      "chip": "ym2612"
    },
    {
      "channel": 1,
      "note": 46,
      "start": 14.4464,
      "duration": 0.0037,
      "velocity": 115,
      "chip": "ym2612"
    },
    {
      "channel": 0,
      "note": 67,
      "start": 14.5003,
      "duration": 0.0038,
      "velocity": 95,
      "chip": "ym2612"
    },
    {
      "channel": 1,
      "note": 41,
      "start": 14.5005,
      "duration": 0.0617,
      "velocity": 115,
      "chip": "ym2612"
    },
    {
      "channel": 0,
      "note": 65,
      "start": 14.5544,
      "duration": 0.0076,
      "velocity": 95,
      "chip": "ym2612"
    },
    {
      "channel": 2,
      "note": 77,
      "start": 14.5607,
      "duration": 0.0555,
      "velocity": 111,
      "chip": "ym2612"
    },
    {
      "channel": 3,
      "note": 80,
      "start": 14.5608,
      "duration": 0.0555,
      "velocity": 111,
      "chip": "ym2612"
    },
    {
      "channel": 4,
      "note": 84,
      "start": 14.5609,
      "duration": 0.0556,
      "velocity": 111,
      "chip": "ym2612"
    },
    {
      "channel": 0,
      "note": 67,
      "start": 14.6124,
      "duration": 0.0037,
      "velocity": 95,
      "chip": "ym2612"
    },
    {
      "channel": 1,
      "note": 41,
      "start": 14.6126,
      "duration": 0.0648,
      "velocity": 115,
      "chip": "ym2612"
    },
    {
      "channel": 0,
      "note": 68,
      "start": 14.6664,
      "duration": 0.0108,
      "velocity": 95,
      "chip": "ym2612"
    },
    {
      "channel": 2,
      "note": 77,
      "start": 14.6671,
      "duration": 0.0104,
      "velocity": 111,
      "chip": "ym2612"
    },
    {
      "channel": 3,
      "note": 80,
      "start": 14.6672,
      "duration": 0.0103,
      "velocity": 111,
      "chip": "ym2612"
    },
    {
      "channel": 4,
      "note": 84,
      "start": 14.6673,
      "duration": 0.0102,
      "velocity": 111,
      "chip": "ym2612"
    },
    {
      "channel": 0,
      "note": 70,
      "start": 14.7275,
      "duration": 0.0046,
      "velocity": 95,
      "chip": "ym2612"
    },
    {
      "channel": 1,
      "note": 41,
      "start": 14.7277,
      "duration": 0.0046,
      "velocity": 115,
      "chip": "ym2612"
    },
    {
      "channel": 2,
      "note": 77,
      "start": 14.7284,
      "duration": 0.0041,
      "velocity": 111,
      "chip": "ym2612"
    },
    {
      "channel": 3,
      "note": 80,
      "start": 14.7285,
      "duration": 0.004,
      "velocity": 111,
      "chip": "ym2612"
    },
    {
      "channel": 4,
      "note": 84,
      "start": 14.7285,
      "duration": 0.004,
      "velocity": 111,
      "chip": "ym2612"
    },
    {
      "channel": 0,
      "note": 72,
      "start": 14.7824,
      "duration": 0.001,
      "velocity": 95,
      "chip": "ym2612"
    },
    {
      "channel": 1,
      "note": 46,
      "start": 14.7827,
      "duration": 0.0119,
      "velocity": 115,
      "chip": "ym2612"
    },
    {
      "channel": 0,
      "note": 70,
      "start": 14.7845,
      "duration": 0.01,
      "velocity": 95,
      "chip": "ym2612"
    },
    {
      "channel": 0,
      "note": 68,
      "start": 14.8448,
      "duration": 0.0038,
      "velocity": 95,
      "chip": "ym2612"
    },
    {
      "channel": 1,
      "note": 44,
      "start": 14.845,
      "duration": 0.0576,
      "velocity": 115,
      "chip": "ym2612"
    },
    {
      "channel": 0,
      "note": 67,
      "start": 14.8989,
      "duration": 0.0036,
      "velocity": 95,
      "chip": "ym2612"
    },
    {
      "channel": 0,
      "note": 65,
      "start": 14.9528,
      "duration": 0.0078,
      "velocity": 95,
      "chip": "ym2612"
    },
    {
      "channel": 1,
      "note": 41,
      "start": 14.9532,
      "duration": 0.0678,
      "velocity": 115,
      "chip": "ym2612"
    },
    {
      "channel": 2,
      "note": 72,
      "start": 14.9598,
      "duration": 0.0614,
      "velocity": 127,
      "chip": "ym2612"
    },
    {
      "channel": 3,
      "note": 65,
      "start": 14.9598,
      "duration": 0.0614,
      "velocity": 127,
      "chip": "ym2612"
    },
    {
      "channel": 4,
      "note": 68,
      "start": 14.9599,
      "duration": 0.0613,
      "velocity": 127,
      "chip": "ym2612"
    },
    {
      "channel": 0,
      "note": 67,
      "start": 15.0109,
      "duration": 0.01,
      "velocity": 95,
      "chip": "ym2612"
    },
    {
      "channel": 0,
      "note": 68,
      "start": 15.0712,
      "duration": 0.0046,
      "velocity": 95,
      "chip": "ym2612"
    },
    {
      "channel": 1,
      "note": 41,
      "start": 15.0713,
      "duration": 0.0657,
      "velocity": 115,
      "chip": "ym2612"
    },
    {
      "channel": 2,
      "note": 72,
      "start": 15.072,
      "duration": 0.0039,
      "velocity": 127,
      "chip": "ym2612"
    },
    {
      "channel": 3,
      "note": 65,
      "start": 15.0721,
      "duration": 0.0039,
      "velocity": 127,
      "chip": "ym2612"
    },
    {
      "channel": 4,
      "note": 68,
      "start": 15.0722,
      "duration": 0.0039,
      "velocity": 127,
      "chip": "ym2612"
    },
    {
      "channel": 0,
      "note": 70,
      "start": 15.1261,
      "duration": 0.0108,
      "velocity": 95,
      "chip": "ym2612"
    },
    {
      "channel": 2,
      "note": 72,
      "start": 15.1268,
      "duration": 0.0609,
      "velocity": 127,
      "chip": "ym2612"
    },
    {
      "channel": 3,
      "note": 65,
      "start": 15.1269,
      "duration": 0.0609,
      "velocity": 127,
      "chip": "ym2612"
    },
    {
      "channel": 4,
      "note": 68,
      "start": 15.127,
      "duration": 0.0609,
      "velocity": 127,
      "chip": "ym2612"
    },
    {
      "channel": 0,
      "note": 72,
      "start": 15.1872,
      "duration": 0.0004,
      "velocity": 95,
      "chip": "ym2612"
    },
    {
      "channel": 1,
      "note": 44,
      "start": 15.1875,
      "duration": 0.0125,
      "velocity": 115,
      "chip": "ym2612"
    },
    {
      "channel": 0,
      "note": 70,
      "start": 15.1891,
      "duration": 0.0107,
      "velocity": 95,
      "chip": "ym2612"
    },
    {
      "channel": 2,
      "note": 72,
      "start": 15.1899,
      "duration": 0.0644,
      "velocity": 127,
      "chip": "ym2612"
    },
    {
      "channel": 3,
      "note": 65,
      "start": 15.1899,
      "duration": 0.0644,
      "velocity": 127,
      "chip": "ym2612"
    },
    {
      "channel": 4,
      "note": 68,
      "start": 15.1901,
      "duration": 0.0643,
      "velocity": 127,
      "chip": "ym2612"
    },
    {
      "channel": 0,
      "note": 68,
      "start": 15.2502,
      "duration": 0.0038,
      "velocity": 95,
      "chip": "ym2612"
    },
    {
      "channel": 1,
      "note": 46,
      "start": 15.2504,
      "duration": 0.0037,
      "velocity": 115,
      "chip": "ym2612"
    },
    {
      "channel": 0,
      "note": 67,
      "start": 15.3043,
      "duration": 0.0045,
      "velocity": 95,
      "chip": "ym2612"
    },
    {
      "channel": 1,
      "note": 41,
      "start": 15.3046,
      "duration": 0.059,
      "velocity": 115,
      "chip": "ym2612"
    },
    {
      "channel": 2,
      "note": 72,
      "start": 15.3054,
      "duration": 0.0037,
      "velocity": 127,
      "chip": "ym2612"
    },
    {
      "channel": 3,
      "note": 65,
      "start": 15.3054,
      "duration": 0.0037,
      "velocity": 127,
      "chip": "ym2612"
    },
    {
      "channel": 4,
      "note": 68,
      "start": 15.3054,
      "duration": 0.0038,
      "velocity": 127,
      "chip": "ym2612"
    },
    {
      "channel": 0,
      "note": 65,
      "start": 15.3592,
      "duration": 0.0043,
      "velocity": 95,
      "chip": "ym2612"
    },
    {
      "channel": 2,
      "note": 67,
      "start": 15.3598,
      "duration": 0.3423,
      "velocity": 127,
      "chip": "ym2612"
    },
    {
      "channel": 3,
      "note": 72,
      "start": 15.3599,
      "duration": 0.3422,
      "velocity": 127,
      "chip": "ym2612"
    },
    {
      "channel": 4,
      "note": 63,
      "start": 15.3599,
      "duration": 0.3423,
      "velocity": 127,
      "chip": "ym2612"
    },
    {
      "channel": 0,
      "note": 67,
      "start": 15.4138,
      "duration": 0.0037,
      "velocity": 95,
      "chip": "ym2612"
    },
    {
      "channel": 1,
      "note": 41,
      "start": 15.4139,
      "duration": 0.0639,
      "velocity": 115,
      "chip": "ym2612"
    },
    {
      "channel": 0,
      "note": 68,
      "start": 15.4678,
      "duration": 0.01,
      "velocity": 95,
      "chip": "ym2612"
    },
    {
      "channel": 0,
      "note": 70,
      "start": 15.5281,
      "duration": 0.0037,
      "velocity": 95,
      "chip": "ym2612"
    },
    {
      "channel": 1,
      "note": 41,
      "start": 15.5283,
      "duration": 0.0037,
      "velocity": 115,
      "chip": "ym2612"
    },
    {
      "channel": 0,
      "note": 65,
      "start": 15.5821,
      "duration": 0.0004,
      "velocity": 95,
      "chip": "ym2612"
    },
    {
      "channel": 1,
      "note": 46,
      "start": 15.5823,
      "duration": 0.0115,
      "velocity": 115,
      "chip": "ym2612"
    },
    {
      "channel": 0,
      "note": 67,
      "start": 15.5838,
      "duration": 0.0099,
      "velocity": 95,
      "chip": "ym2612"
    },
    {
      "channel": 0,
      "note": 63,
      "start": 15.644,
      "duration": 0.0038,
      "velocity": 95,
      "chip": "ym2612"
    },
    {
      "channel": 1,
      "note": 44,
      "start": 15.6443,
      "duration": 0.0576,
      "velocity": 115,
      "chip": "ym2612"
    },
    {
      "channel": 0,
      "note": 58,
      "start": 15.6982,
      "duration": 0.0036,
      "velocity": 95,
      "chip": "ym2612"
    },
    {
      "channel": 0,
      "note": 65,
      "start": 15.7541,
      "duration": 0.0077,
      "velocity": 95,
      "chip": "ym2612"
    },
    {
      "channel": 1,
      "note": 41,
      "start": 15.7544,
      "duration": 0.0682,
      "velocity": 115,
      "chip": "ym2612"
    },
    {
      "channel": 2,
      "note": 72,
      "start": 15.761,
      "duration": 0.0009,
      "velocity": 109,
      "chip": "ym2612"
    },
    {
      "channel": 3,
      "note": 65,
      "start": 15.7611,
      "duration": 0.0009,
      "velocity": 109,
      "chip": "ym2612"
    },
    {
      "channel": 4,
      "note": 68,
      "start": 15.7612,
      "duration": 0.0009,
      "velocity": 109,
      "chip": "ym2612"
    },
    {
      "channel": 0,
      "note": 67,
      "start": 15.8117,
      "duration": 0.0108,
      "velocity": 95,
      "chip": "ym2612"
    },
    {
      "channel": 2,
      "note": 72,
      "start": 15.8125,
      "duration": 0.0104,
      "velocity": 109,
      "chip": "ym2612"
    },
    {
      "channel": 3,
      "note": 65,
      "start": 15.8125,
      "duration": 0.0103,
      "velocity": 109,
      "chip": "ym2612"
    },
    {
      "channel": 4,
      "note": 68,
      "start": 15.8127,
      "duration": 0.0102,
      "velocity": 109,
      "chip": "ym2612"
    },
    {
      "channel": 0,
      "note": 68,
      "start": 15.8729,
      "duration": 0.0041,
      "velocity": 95,
      "chip": "ym2612"
    },
    {
      "channel": 1,
      "note": 41,
      "start": 15.873,
      "duration": 0.0643,
      "velocity": 115,
      "chip": "ym2612"
    },
    {
      "channel": 0,
      "note": 70,
      "start": 15.9273,
      "duration": 0.01,
      "velocity": 95,
      "chip": "ym2612"
    },
    {
      "channel": 0,
      "note": 72,
      "start": 15.9875,
      "duration": 0.0004,
      "velocity": 95,
      "chip": "ym2612"
    },
    {
      "channel": 1,
      "note": 44,
      "start": 15.9879,
      "duration": 0.0116,
      "velocity": 115,
      "chip": "ym2612"
    },
    {
      "channel": 0,
      "note": 70,
      "start": 15.9893,
      "duration": 0.01,
      "velocity": 95,
      "chip": "ym2612"
    },
    {
      "channel": 0,
      "note": 68,
      "start": 16.0496,
      "duration": 0.0038,
      "velocity": 95,
      "chip": "ym2612"
    },
    {
      "channel": 1,
      "note": 46,
      "start": 16.0499,
      "duration": 0.0037,
      "velocity": 115,
      "chip": "ym2612"
    },
    {
      "channel": 0,
      "note": 67,
      "start": 16.1038,
      "duration": 0.0038,
      "velocity": 95,
      "chip": "ym2612"
    },
    {
      "channel": 1,
      "note": 41,
      "start": 16.104,
      "duration": 0.0617,
      "velocity": 115,
      "chip": "ym2612"
    },
    {
      "channel": 0,
      "note": 65,
      "start": 16.1579,
      "duration": 0.0076,
      "velocity": 95,
      "chip": "ym2612"
    },
    {
      "channel": 2,
      "note": 77,
      "start": 16.1642,
      "duration": 0.0555,
      "velocity": 111,
      "chip": "ym2612"
    },
    {
      "channel": 3,
      "note": 84,
      "start": 16.1643,
      "duration": 0.0555,
      "velocity": 111,
      "chip": "ym2612"
    },
    {
      "channel": 4,
      "note": 80,
      "start": 16.1643,
      "duration": 0.0556,
      "velocity": 111,
      "chip": "ym2612"
    },
    {
      "channel": 0,
      "note": 67,
      "start": 16.2159,
      "duration": 0.0037,
      "velocity": 95,
      "chip": "ym2612"
    },
    {
      "channel": 1,
      "note": 41,
      "start": 16.216,
      "duration": 0.0648,
      "velocity": 115,
      "chip": "ym2612"
    },
    {
      "channel": 0,
      "note": 68,
      "start": 16.2698,
      "duration": 0.0108,
      "velocity": 95,
      "chip": "ym2612"
    },
    {
      "channel": 2,
      "note": 77,
      "start": 16.2706,
      "duration": 0.0104,
      "velocity": 111,
      "chip": "ym2612"
    },
    {
      "channel": 3,
      "note": 84,
      "start": 16.2706,
      "duration": 0.0103,
      "velocity": 111,
      "chip": "ym2612"
    },
    {
      "channel": 4,
      "note": 80,
      "start": 16.2708,
      "duration": 0.0102,
      "velocity": 111,
      "chip": "ym2612"
    },
    {
      "channel": 0,
      "note": 70,
      "start": 16.331,
      "duration": 0.0046,
      "velocity": 95,
      "chip": "ym2612"
    },
    {
      "channel": 1,
      "note": 41,
      "start": 16.3311,
      "duration": 0.0046,
      "velocity": 115,
      "chip": "ym2612"
    },
    {
      "channel": 2,
      "note": 77,
      "start": 16.3318,
      "duration": 0.0041,
      "velocity": 111,
      "chip": "ym2612"
    },
    {
      "channel": 3,
      "note": 84,
      "start": 16.3319,
      "duration": 0.004,
      "velocity": 111,
      "chip": "ym2612"
    },
    {
      "channel": 4,
      "note": 80,
      "start": 16.332,
      "duration": 0.004,
      "velocity": 111,
      "chip": "ym2612"
    },
    {
      "channel": 0,
      "note": 72,
      "start": 16.3859,
      "duration": 0.001,
      "velocity": 95,
      "chip": "ym2612"
    },
    {
      "channel": 1,
      "note": 46,
      "start": 16.3861,
      "duration": 0.0119,
      "velocity": 115,
      "chip": "ym2612"
    },
    {
      "channel": 0,
      "note": 70,
      "start": 16.3879,
      "duration": 0.01,
      "velocity": 95,
      "chip": "ym2612"
    },
    {
      "channel": 0,
      "note": 68,
      "start": 16.4482,
      "duration": 0.0038,
      "velocity": 95,
      "chip": "ym2612"
    },
    {
      "channel": 1,
      "note": 44,
      "start": 16.4484,
      "duration": 0.0576,
      "velocity": 115,
      "chip": "ym2612"
    },
    {
      "channel": 0,
      "note": 67,
      "start": 16.5024,
      "duration": 0.0036,
      "velocity": 95,
      "chip": "ym2612"
    },
    {
      "channel": 0,
      "note": 65,
      "start": 16.5563,
      "duration": 0.0077,
      "velocity": 95,
      "chip": "ym2612"
    },
    {
      "channel": 1,
      "note": 41,
      "start": 16.5566,
      "duration": 0.0678,
      "velocity": 115,
      "chip": "ym2612"
    },
    {
      "channel": 2,
      "note": 72,
      "start": 16.5631,
      "duration": 0.1154,
      "velocity": 103,
      "chip": "ym2612"
    },
    {
      "channel": 3,
      "note": 65,
      "start": 16.5632,
      "duration": 0.1154,
      "velocity": 103,
      "chip": "ym2612"
    },
    {
      "channel": 4,
      "note": 68,
      "start": 16.5632,
      "duration": 0.1154,
      "velocity": 103,
      "chip": "ym2612"
    },
    {
      "channel": 0,
      "note": 67,
      "start": 16.6143,
      "duration": 0.01,
      "velocity": 95,
      "chip": "ym2612"
    },
    {
      "channel": 0,
      "note": 68,
      "start": 16.6746,
      "duration": 0.0037,
      "velocity": 95,
      "chip": "ym2612"
    },
    {
      "channel": 1,
      "note": 41,
      "start": 16.6747,
      "duration": 0.0648,
      "velocity": 115,
      "chip": "ym2612"
    },
    {
      "channel": 0,
      "note": 70,
      "start": 16.7286,
      "duration": 0.0108,
      "velocity": 95,
      "chip": "ym2612"
    },
    {
      "channel": 2,
      "note": 72,
      "start": 16.7293,
      "duration": 0.0724,
      "velocity": 103,
      "chip": "ym2612"
    },
    {
      "channel": 3,
      "note": 65,
      "start": 16.7294,
      "duration": 0.0724,
      "velocity": 103,
      "chip": "ym2612"
    },
    {
      "channel": 4,
      "note": 68,
      "start": 16.7295,
      "duration": 0.0723,
      "velocity": 103,
      "chip": "ym2612"
    },
    {
      "channel": 0,
      "note": 72,
      "start": 16.7897,
      "duration": 0.0004,
      "velocity": 95,
      "chip": "ym2612"
    },
    {
      "channel": 1,
      "note": 44,
      "start": 16.79,
      "duration": 0.0116,
      "velocity": 115,
      "chip": "ym2612"
    },
    {
      "channel": 0,
      "note": 70,
      "start": 16.7915,
      "duration": 0.01,
      "velocity": 95,
      "chip": "ym2612"
    },
    {
      "channel": 0,
      "note": 68,
      "start": 16.8518,
      "duration": 0.0046,
      "velocity": 95,
      "chip": "ym2612"
    },
    {
      "channel": 1,
      "note": 46,
      "start": 16.852,
      "duration": 0.0044,
      "velocity": 115,
      "chip": "ym2612"
    },
    {
      "channel": 2,
      "note": 75,
      "start": 16.8528,
      "duration": 0.4502,
      "velocity": 103,
      "chip": "ym2612"
    },
    {
      "channel": 3,
      "note": 65,
      "start": 16.8528,
      "duration": 0.4502,
      "velocity": 103,
      "chip": "ym2612"
    },
    {
      "channel": 4,
      "note": 70,
      "start": 16.8529,
      "duration": 0.4502,
      "velocity": 103,
      "chip": "ym2612"
    },
    {
      "channel": 0,
      "note": 67,
      "start": 16.9066,
      "duration": 0.0038,
      "velocity": 95,
      "chip": "ym2612"
    },
    {
      "channel": 1,
      "note": 41,
      "start": 16.9069,
      "duration": 0.0576,
      "velocity": 115,
      "chip": "ym2612"
    },
    {
      "channel": 0,
      "note": 65,
      "start": 16.9608,
      "duration": 0.0036,
      "velocity": 95,
      "chip": "ym2612"
    },
    {
      "channel": 0,
      "note": 67,
      "start": 17.0147,
      "duration": 0.0037,
      "velocity": 95,
      "chip": "ym2612"
    },
    {
      "channel": 1,
      "note": 41,
      "start": 17.0149,
      "duration": 0.0639,
      "velocity": 115,
      "chip": "ym2612"
    },
    {
      "channel": 0,
      "note": 68,
      "start": 17.0687,
      "duration": 0.01,
      "velocity": 95,
      "chip": "ym2612"
    },
    {
      "channel": 0,
      "note": 70,
      "start": 17.129,
      "duration": 0.0037,
      "velocity": 95,
      "chip": "ym2612"
    },
    {
      "channel": 1,
      "note": 41,
      "start": 17.1292,
      "duration": 0.0037,
      "velocity": 115,
      "chip": "ym2612"
    },
    {
      "channel": 0,
      "note": 72,
      "start": 17.183,
      "duration": 0.0004,
      "velocity": 95,
      "chip": "ym2612"
    },
    {
      "channel": 1,
      "note": 46,
      "start": 17.1832,
      "duration": 0.0115,
      "velocity": 115,
      "chip": "ym2612"
    },
    {
      "channel": 0,
      "note": 70,
      "start": 17.1847,
      "duration": 0.0099,
      "velocity": 95,
      "chip": "ym2612"
    },
    {
      "channel": 0,
      "note": 72,
      "start": 17.2449,
      "duration": 0.0038,
      "velocity": 95,
      "chip": "ym2612"
    },
    {
      "channel": 1,
      "note": 44,
      "start": 17.2452,
      "duration": 0.0576,
      "velocity": 115,
      "chip": "ym2612"
    },
    {
      "channel": 0,
      "note": 75,
      "start": 17.2991,
      "duration": 0.0036,
      "velocity": 95,
      "chip": "ym2612"
    },
    {
      "channel": 0,
      "note": 65,
      "start": 17.353,
      "duration": 0.0077,
      "velocity": 95,
      "chip": "ym2612"
    },
    {
      "channel": 1,
      "note": 41,
      "start": 17.3532,
      "duration": 0.0686,
      "velocity": 115,
      "chip": "ym2612"
    },
    {
      "channel": 2,
      "note": 72,
      "start": 17.3597,
      "duration": 0.0012,
      "velocity": 109,
      "chip": "ym2612"
    },
    {
      "channel": 3,
      "note": 65,
      "start": 17.3598,
      "duration": 0.0012,
      "velocity": 109,
      "chip": "ym2612"
    },
    {
      "channel": 4,
      "note": 68,
      "start": 17.3598,
      "duration": 0.0012,
      "velocity": 109,
      "chip": "ym2612"
    },
    {
      "channel": 0,
      "note": 67,
      "start": 17.411,
      "duration": 0.0108,
      "velocity": 95,
      "chip": "ym2612"
    },
    {
      "channel": 2,
      "note": 72,
      "start": 17.4117,
      "duration": 0.0104,
      "velocity": 109,
      "chip": "ym2612"
    },
    {
      "channel": 3,
      "note": 65,
      "start": 17.4117,
      "duration": 0.0103,
      "velocity": 109,
      "chip": "ym2612"
    },
    {
      "channel": 4,
      "note": 68,
      "start": 17.4119,
      "duration": 0.0102,
      "velocity": 109,
      "chip": "ym2612"
    },
    {
      "channel": 0,
      "note": 68,
      "start": 17.4721,
      "duration": 0.0041,
      "velocity": 95,
      "chip": "ym2612"
    },
    {
      "channel": 1,
      "note": 41,
      "start": 17.4722,
      "duration": 0.0643,
      "velocity": 115,
      "chip": "ym2612"
    },
    {
      "channel": 0,
      "note": 70,
      "start": 17.5265,
      "duration": 0.01,
      "velocity": 95,
      "chip": "ym2612"
    },
    {
      "channel": 0,
      "note": 72,
      "start": 17.5867,
      "duration": 0.0004,
      "velocity": 95,
      "chip": "ym2612"
    },
    {
      "channel": 1,
      "note": 44,
      "start": 17.5871,
      "duration": 0.0116,
      "velocity": 115,
      "chip": "ym2612"
    },
    {
      "channel": 0,
      "note": 70,
      "start": 17.5885,
      "duration": 0.01,
      "velocity": 95,
      "chip": "ym2612"
    },
    {
      "channel": 0,
      "note": 68,
      "start": 17.6488,
      "duration": 0.0038,
      "velocity": 95,
      "chip": "ym2612"
    },
    {
      "channel": 1,
      "note": 46,
      "start": 17.6491,
      "duration": 0.0037,
      "velocity": 115,
      "chip": "ym2612"
    },
    {
      "channel": 0,
      "note": 67,
      "start": 17.703,
      "duration": 0.0038,
      "velocity": 95,
      "chip": "ym2612"
    },
    {
      "channel": 1,
      "note": 41,
      "start": 17.7032,
      "duration": 0.0617,
      "velocity": 115,
      "chip": "ym2612"
    },
    {
      "channel": 0,
      "note": 65,
      "start": 17.7571,
      "duration": 0.0076,
      "velocity": 95,
      "chip": "ym2612"
    },
    {
      "channel": 2,
      "note": 77,
      "start": 17.7634,
      "duration": 0.0555,
      "velocity": 111,
      "chip": "ym2612"
    },
    {
      "channel": 3,
      "note": 80,
      "start": 17.7635,
      "duration": 0.0555,
      "velocity": 111,
      "chip": "ym2612"
    },
    {
      "channel": 4,
      "note": 84,
      "start": 17.7635,
      "duration": 0.0556,
      "velocity": 111,
      "chip": "ym2612"
    },
    {
      "channel": 0,
      "note": 67,
      "start": 17.8151,
      "duration": 0.0037,
      "velocity": 95,
      "chip": "ym2612"
    },
    {
      "channel": 1,
      "note": 41,
      "start": 17.8152,
      "duration": 0.0648,
      "velocity": 115,
      "chip": "ym2612"
    },
    {
      "channel": 0,
      "note": 68,
      "start": 17.869,
      "duration": 0.0108,
      "velocity": 95,
      "chip": "ym2612"
    },
    {
      "channel": 2,
      "note": 77,
      "start": 17.8698,
      "duration": 0.0104,
      "velocity": 111,
      "chip": "ym2612"
    },
    {
      "channel": 3,
      "note": 80,
      "start": 17.8698,
      "duration": 0.0103,
      "velocity": 111,
      "chip": "ym2612"
    },
    {
      "channel": 4,
      "note": 84,
      "start": 17.87,
      "duration": 0.0102,
      "velocity": 111,
      "chip": "ym2612"
    },
    {
      "channel": 0,
      "note": 70,
      "start": 17.9302,
      "duration": 0.0046,
      "velocity": 95,
      "chip": "ym2612"
    },
    {
      "channel": 1,
      "note": 41,
      "start": 17.9303,
      "duration": 0.0046,
      "velocity": 115,
      "chip": "ym2612"
    },
    {
      "channel": 2,
      "note": 77,
      "start": 17.931,
      "duration": 0.0041,
      "velocity": 111,
      "chip": "ym2612"
    },
    {
      "channel": 3,
      "note": 80,
      "start": 17.9311,
      "duration": 0.004,
      "velocity": 111,
      "chip": "ym2612"
    },
    {
      "channel": 4,
      "note": 84,
      "start": 17.9312,
      "duration": 0.004,
      "velocity": 111,
      "chip": "ym2612"
    },
    {
      "channel": 0,
      "note": 72,
      "start": 17.9851,
      "duration": 0.001,
      "velocity": 95,
      "chip": "ym2612"
    },
    {
      "channel": 1,
      "note": 46,
      "start": 17.9853,
      "duration": 0.0119,
      "velocity": 115,
      "chip": "ym2612"
    },
    {
      "channel": 0,
      "note": 70,
      "start": 17.9871,
      "duration": 0.01,
      "velocity": 95,
      "chip": "ym2612"
    },
    {
      "channel": 0,
      "note": 68,
      "start": 18.0474,
      "duration": 0.0038,
      "velocity": 95,
      "chip": "ym2612"
    },
    {
      "channel": 1,
      "note": 44,
      "start": 18.0476,
      "duration": 0.0576,
      "velocity": 115,
      "chip": "ym2612"
    },
    {
      "channel": 0,
      "note": 67,
      "start": 18.1016,
      "duration": 0.0036,
      "velocity": 95,
      "chip": "ym2612"
    },
    {
      "channel": 0,
      "note": 65,
      "start": 18.1555,
      "duration": 0.0078,
      "velocity": 95,
      "chip": "ym2612"
    },
    {
      "channel": 1,
      "note": 41,
      "start": 18.1558,
      "duration": 0.0679,
      "velocity": 115,
      "chip": "ym2612"
    },
    {
      "channel": 2,
      "note": 72,
      "start": 18.1626,
      "duration": 0.0614,
      "velocity": 127,
      "chip": "ym2612"
    },
    {
      "channel": 3,
      "note": 65,
      "start": 18.1626,
      "duration": 0.0614,
      "velocity": 127,
      "chip": "ym2612"
    },
    {
      "channel": 4,
      "note": 68,
      "start": 18.1627,
      "duration": 0.0613,
      "velocity": 127,
      "chip": "ym2612"
    },
    {
      "channel": 0,
      "note": 67,
      "start": 18.2136,
      "duration": 0.01,
      "velocity": 95,
      "chip": "ym2612"
    },
    {
      "channel": 0,
      "note": 68,
      "start": 18.2739,
      "duration": 0.0046,
      "velocity": 95,
      "chip": "ym2612"
    },
    {
      "channel": 1,
      "note": 41,
      "start": 18.2741,
      "duration": 0.0657,
      "velocity": 115,
      "chip": "ym2612"
    },
    {
      "channel": 2,
      "note": 72,
      "start": 18.2748,
      "duration": 0.0039,
      "velocity": 127,
      "chip": "ym2612"
    },
    {
      "channel": 3,
      "note": 65,
      "start": 18.2749,
      "duration": 0.0039,
      "velocity": 127,
      "chip": "ym2612"
    },
    {
      "channel": 4,
      "note": 68,
      "start": 18.2749,
      "duration": 0.0039,
      "velocity": 127,
      "chip": "ym2612"
    },
    {
      "channel": 0,
      "note": 70,
      "start": 18.3288,
      "duration": 0.0108,
      "velocity": 95,
      "chip": "ym2612"
    },
    {
      "channel": 2,
      "note": 72,
      "start": 18.3296,
      "duration": 0.0609,
      "velocity": 127,
      "chip": "ym2612"
    },
    {
      "channel": 3,
      "note": 65,
      "start": 18.3296,
      "duration": 0.0609,
      "velocity": 127,
      "chip": "ym2612"
    },
    {
      "channel": 4,
      "note": 68,
      "start": 18.3298,
      "duration": 0.0609,
      "velocity": 127,
      "chip": "ym2612"
    },
    {
      "channel": 0,
      "note": 72,
      "start": 18.3899,
      "duration": 0.0004,
      "velocity": 95,
      "chip": "ym2612"
    },
    {
      "channel": 1,
      "note": 44,
      "start": 18.3902,
      "duration": 0.0125,
      "velocity": 115,
      "chip": "ym2612"
    },
    {
      "channel": 0,
      "note": 70,
      "start": 18.3919,
      "duration": 0.0107,
      "velocity": 95,
      "chip": "ym2612"
    },
    {
      "channel": 2,
      "note": 72,
      "start": 18.3926,
      "duration": 0.0644,
      "velocity": 127,
      "chip": "ym2612"
    },
    {
      "channel": 3,
      "note": 65,
      "start": 18.3927,
      "duration": 0.0644,
      "velocity": 127,
      "chip": "ym2612"
    },
    {
      "channel": 4,
      "note": 68,
      "start": 18.3928,
      "duration": 0.0643,
      "velocity": 127,
      "chip": "ym2612"
    },
    {
      "channel": 0,
      "note": 68,
      "start": 18.4529,
      "duration": 0.0038,
      "velocity": 95,
      "chip": "ym2612"
    },
    {
      "channel": 1,
      "note": 46,
      "start": 18.4532,
      "duration": 0.0037,
      "velocity": 115,
      "chip": "ym2612"
    },
    {
      "channel": 0,
      "note": 67,
      "start": 18.5071,
      "duration": 0.0045,
      "velocity": 95,
      "chip": "ym2612"
    },
    {
      "channel": 1,
      "note": 41,
      "start": 18.5073,
      "duration": 0.059,
      "velocity": 115,
      "chip": "ym2612"
    },
    {
      "channel": 2,
      "note": 72,
      "start": 18.5081,
      "duration": 0.0037,
      "velocity": 127,
      "chip": "ym2612"
    },
    {
      "channel": 3,
      "note": 65,
      "start": 18.5081,
      "duration": 0.0037,
      "velocity": 127,
      "chip": "ym2612"
    },
    {
      "channel": 4,
      "note": 68,
      "start": 18.5082,
      "duration": 0.0038,
      "velocity": 127,
      "chip": "ym2612"
    },
    {
      "channel": 0,
      "note": 65,
      "start": 18.5619,
      "duration": 0.0043,
      "velocity": 95,
      "chip": "ym2612"
    },
    {
      "channel": 2,
      "note": 67,
      "start": 18.5626,
      "duration": 0.2248,
      "velocity": 127,
      "chip": "ym2612"
    },
    {
      "channel": 3,
      "note": 72,
      "start": 18.5626,
      "duration": 0.2248,
      "velocity": 127,
      "chip": "ym2612"
    },
    {
      "channel": 4,
      "note": 63,
      "start": 18.5626,
      "duration": 0.2248,
      "velocity": 127,
      "chip": "ym2612"
    },
    {
      "channel": 0,
      "note": 67,
      "start": 18.6165,
      "duration": 0.0101,
      "velocity": 95,
      "chip": "ym2612"
    },
    {
      "channel": 1,
      "note": 41,
      "start": 18.6168,
      "duration": 0.0639,
      "velocity": 115,
      "chip": "ym2612"
    },
    {
      "channel": 0,
      "note": 68,
      "start": 18.677,
      "duration": 0.0036,
      "velocity": 95,
      "chip": "ym2612"
    },
    {
      "channel": 0,
      "note": 70,
      "start": 18.7309,
      "duration": 0.0037,
      "velocity": 95,
      "chip": "ym2612"
    },
    {
      "channel": 1,
      "note": 41,
      "start": 18.731,
      "duration": 0.0037,
      "velocity": 115,
      "chip": "ym2612"
    },
    {
      "channel": 0,
      "note": 65,
      "start": 18.7849,
      "duration": 0.0003,
      "velocity": 95,
      "chip": "ym2612"
    },
    {
      "channel": 1,
      "note": 46,
      "start": 18.7851,
      "duration": 0.0006,
      "velocity": 115,
      "chip": "ym2612"
    },
    {
      "channel": 0,
      "note": 67,
      "start": 18.7856,
      "duration": 0.0001,
      "velocity": 95,
      "chip": "ym2612"
    },
    {
      "channel": 0,
      "note": 63,
      "start": 18.7861,
      "duration": 0.0004,
      "velocity": 95,
      "chip": "ym2612"
    },
    {
      "channel": 1,
      "note": 44,
      "start": 18.7864,
      "duration": 0.0008,
      "velocity": 115,
      "chip": "ym2612"
    },
    {
      "channel": 0,
      "note": 58,
      "start": 18.787,
      "duration": 0.0001,
      "velocity": 95,
      "chip": "ym2612"
    },
    {
      "channel": 0,
      "note": 77,
      "start": 18.7901,
      "duration": 0.0683,
      "velocity": 95,
      "chip": "ym2612"
    },
    {
      "channel": 1,
      "note": 41,
      "start": 18.7905,
      "duration": 0.0681,
      "velocity": 115,
      "chip": "ym2612"
    },
    {
      "channel": 2,
      "note": 72,
      "start": 18.797,
      "duration": 0.0009,
      "velocity": 109,
      "chip": "ym2612"
    },
    {
      "channel": 3,
      "note": 65,
      "start": 18.7971,
      "duration": 0.0009,
      "velocity": 109,
      "chip": "ym2612"
    },
    {
      "channel": 4,
      "note": 68,
      "start": 18.7971,
      "duration": 0.0009,
      "velocity": 109,
      "chip": "ym2612"
    },
    {
      "channel": 2,
      "note": 72,
      "start": 18.8481,
      "duration": 0.0106,
      "velocity": 109,
      "chip": "ym2612"
    },
    {
      "channel": 3,
      "note": 65,
      "start": 18.8482,
      "duration": 0.0105,
      "velocity": 109,
      "chip": "ym2612"
    },
    {
      "channel": 4,
      "note": 68,
      "start": 18.8482,
      "duration": 0.0106,
      "velocity": 109,
      "chip": "ym2612"
    },
    {
      "channel": 0,
      "note": 72,
      "start": 18.9087,
      "duration": 0.0705,
      "velocity": 95,
      "chip": "ym2612"
    },
    {
      "channel": 1,
      "note": 41,
      "start": 18.909,
      "duration": 0.0704,
      "velocity": 115,
      "chip": "ym2612"
    },
    {
      "channel": 0,
      "note": 80,
      "start": 19.0295,
      "duration": 0.0116,
      "velocity": 95,
      "chip": "ym2612"
    },
    {
      "channel": 1,
      "note": 44,
      "start": 19.0299,
      "duration": 0.0114,
      "velocity": 115,
      "chip": "ym2612"
    },
    {
      "channel": 0,
      "note": 77,
      "start": 19.0915,
      "duration": 0.0101,
      "velocity": 95,
      "chip": "ym2612"
    },
    {
      "channel": 1,
      "note": 46,
      "start": 19.0917,
      "duration": 0.01,
      "velocity": 115,
      "chip": "ym2612"
    },
    {
      "channel": 0,
      "note": 79,
      "start": 19.1519,
      "duration": 0.0681,
      "velocity": 95,
      "chip": "ym2612"
    },
    {
      "channel": 1,
      "note": 41,
      "start": 19.1523,
      "duration": 0.0679,
      "velocity": 115,
      "chip": "ym2612"
    },
    {
      "channel": 2,
      "note": 77,
      "start": 19.2186,
      "duration": 0.0619,
      "velocity": 111,
      "chip": "ym2612"
    },
    {
      "channel": 3,
      "note": 84,
      "start": 19.2187,
      "duration": 0.0619,
      "velocity": 111,
      "chip": "ym2612"
    },
    {
      "channel": 4,
      "note": 80,
      "start": 19.2187,
      "duration": 0.0619,
      "velocity": 111,
      "chip": "ym2612"
    },
    {
      "channel": 0,
      "note": 79,
      "start": 19.2703,
      "duration": 0.0711,
      "velocity": 95,
      "chip": "ym2612"
    },
    {
      "channel": 1,
      "note": 41,
      "start": 19.2706,
      "duration": 0.071,
      "velocity": 115,
      "chip": "ym2612"
    },
    {
      "channel": 2,
      "note": 77,
      "start": 19.3312,
      "duration": 0.0105,
      "velocity": 111,
      "chip": "ym2612"
    },
    {
      "channel": 3,
      "note": 84,
      "start": 19.3313,
      "duration": 0.0104,
      "velocity": 111,
      "chip": "ym2612"
    },
    {
      "channel": 4,
      "note": 80,
      "start": 19.3314,
      "duration": 0.0104,
      "velocity": 111,
      "chip": "ym2612"
    },
    {
      "channel": 0,
      "note": 75,
      "start": 19.3918,
      "duration": 0.0108,
      "velocity": 95,
      "chip": "ym2612"
    },
    {
      "channel": 1,
      "note": 41,
      "start": 19.3921,
      "duration": 0.0106,
      "velocity": 115,
      "chip": "ym2612"
    },
    {
      "channel": 2,
      "note": 77,
      "start": 19.3927,
      "duration": 0.0102,
      "velocity": 111,
      "chip": "ym2612"
    },
    {
      "channel": 3,
      "note": 84,
      "start": 19.3927,
      "duration": 0.0101,
      "velocity": 111,
      "chip": "ym2612"
    },
    {
      "channel": 4,
      "note": 80,
      "start": 19.3928,
      "duration": 0.0101,
      "velocity": 111,
      "chip": "ym2612"
    },
    {
      "channel": 0,
      "note": 77,
      "start": 19.4529,
      "duration": 0.1325,
      "velocity": 95,
      "chip": "ym2612"
    },
    {
      "channel": 1,
      "note": 46,
      "start": 19.4532,
      "duration": 0.0117,
      "velocity": 115,
      "chip": "ym2612"
    },
    {
      "channel": 1,
      "note": 44,
      "start": 19.5152,
      "duration": 0.0703,
      "velocity": 115,
      "chip": "ym2612"
    },
    {
      "channel": 0,
      "note": 77,
      "start": 19.6358,
      "duration": 0.0679,
      "velocity": 95,
      "chip": "ym2612"
    },
    {
      "channel": 1,
      "note": 41,
      "start": 19.6361,
      "duration": 0.0677,
      "velocity": 115,
      "chip": "ym2612"
    },
    {
      "channel": 2,
      "note": 72,
      "start": 19.6424,
      "duration": 0.1218,
      "velocity": 103,
      "chip": "ym2612"
    },
    {
      "channel": 3,
      "note": 65,
      "start": 19.6425,
      "duration": 0.1218,
      "velocity": 103,
      "chip": "ym2612"
    },
    {
      "channel": 4,
      "note": 68,
      "start": 19.6425,
      "duration": 0.1218,
      "velocity": 103,
      "chip": "ym2612"
    },
    {
      "channel": 0,
      "note": 72,
      "start": 19.754,
      "duration": 0.0711,
      "velocity": 95,
      "chip": "ym2612"
    },
    {
      "channel": 1,
      "note": 41,
      "start": 19.7543,
      "duration": 0.071,
      "velocity": 115,
      "chip": "ym2612"
    },
    {
      "channel": 2,
      "note": 72,
      "start": 19.815,
      "duration": 0.0724,
      "velocity": 103,
      "chip": "ym2612"
    },
    {
      "channel": 3,
      "note": 65,
      "start": 19.815,
      "duration": 0.0723,
      "velocity": 103,
      "chip": "ym2612"
    },
    {
      "channel": 4,
      "note": 68,
      "start": 19.8151,
      "duration": 0.0723,
      "velocity": 103,
      "chip": "ym2612"
    },
    {
      "channel": 0,
      "note": 80,
      "start": 19.8754,
      "duration": 0.0116,
      "velocity": 95,
      "chip": "ym2612"
    },
    {
      "channel": 1,
      "note": 44,
      "start": 19.8758,
      "duration": 0.0114,
      "velocity": 115,
      "chip": "ym2612"
    },
    {
      "channel": 0,
      "note": 77,
      "start": 19.9373,
      "duration": 0.0109,
      "velocity": 95,
      "chip": "ym2612"
    },
    {
      "channel": 1,
      "note": 46,
      "start": 19.9376,
      "duration": 0.0107,
      "velocity": 115,
      "chip": "ym2612"
    },
    {
      "channel": 2,
      "note": 75,
      "start": 19.9383,
      "duration": 0.4689,
      "velocity": 103,
      "chip": "ym2612"
    },
    {
      "channel": 3,
      "note": 65,
      "start": 19.9384,
      "duration": 0.4688,
      "velocity": 103,
      "chip": "ym2612"
    },
    {
      "channel": 4,
      "note": 70,
      "start": 19.9384,
      "duration": 0.4688,
      "velocity": 103,
      "chip": "ym2612"
    },
    {
      "channel": 0,
      "note": 79,
      "start": 19.9986,
      "duration": 0.4083,
      "velocity": 95,
      "chip": "ym2612"
    },
    {
      "channel": 1,
      "note": 41,
      "start": 19.9988,
      "duration": 0.0638,
      "velocity": 115,
      "chip": "ym2612"
    },
    {
      "channel": 1,
      "note": 41,
      "start": 20.113,
      "duration": 0.0639,
      "velocity": 115,
      "chip": "ym2612"
    },
    {
      "channel": 1,
      "note": 41,
      "start": 20.2273,
      "duration": 0.0037,
      "velocity": 115,
      "chip": "ym2612"
    },
    {
      "channel": 1,
      "note": 46,
      "start": 20.2812,
      "duration": 0.0114,
      "velocity": 115,
      "chip": "ym2612"
    },
    {
      "channel": 1,
      "note": 44,
      "start": 20.3431,
      "duration": 0.0639,
      "velocity": 115,
      "chip": "ym2612"
    },
    {
      "channel": 0,
      "note": 77,
      "start": 20.4572,
      "duration": 0.0689,
      "velocity": 95,
      "chip": "ym2612"
    },
    {
      "channel": 1,
      "note": 41,
      "start": 20.4575,
      "duration": 0.0686,
      "velocity": 115,
      "chip": "ym2612"
    },
    {
      "channel": 2,
      "note": 72,
      "start": 20.4639,
      "duration": 0.0012,
      "velocity": 109,
      "chip": "ym2612"
    },
    {
      "channel": 3,
      "note": 65,
      "start": 20.4639,
      "duration": 0.0013,
      "velocity": 109,
      "chip": "ym2612"
    },
    {
      "channel": 4,
      "note": 68,
      "start": 20.464,
      "duration": 0.0013,
      "velocity": 109,
      "chip": "ym2612"
    },
    {
      "channel": 2,
      "note": 72,
      "start": 20.5159,
      "duration": 0.0105,
      "velocity": 109,
      "chip": "ym2612"
    },
    {
      "channel": 3,
      "note": 65,
      "start": 20.5159,
      "duration": 0.0104,
      "velocity": 109,
      "chip": "ym2612"
    },
    {
      "channel": 4,
      "note": 68,
      "start": 20.516,
      "duration": 0.0104,
      "velocity": 109,
      "chip": "ym2612"
    },
    {
      "channel": 0,
      "note": 72,
      "start": 20.5764,
      "duration": 0.0705,
      "velocity": 95,
      "chip": "ym2612"
    },
    {
      "channel": 1,
      "note": 41,
      "start": 20.5767,
      "duration": 0.0704,
      "velocity": 115,
      "chip": "ym2612"
    },
    {
      "channel": 0,
      "note": 80,
      "start": 20.6972,
      "duration": 0.0116,
      "velocity": 95,
      "chip": "ym2612"
    },
    {
      "channel": 1,
      "note": 44,
      "start": 20.6975,
      "duration": 0.0114,
      "velocity": 115,
      "chip": "ym2612"
    },
    {
      "channel": 0,
      "note": 77,
      "start": 20.7591,
      "duration": 0.0101,
      "velocity": 95,
      "chip": "ym2612"
    },
    {
      "channel": 1,
      "note": 46,
      "start": 20.7594,
      "duration": 0.01,
      "velocity": 115,
      "chip": "ym2612"
    },
    {
      "channel": 0,
      "note": 79,
      "start": 20.8195,
      "duration": 0.0681,
      "velocity": 95,
      "chip": "ym2612"
    },
    {
      "channel": 1,
      "note": 41,
      "start": 20.8199,
      "duration": 0.0679,
      "velocity": 115,
      "chip": "ym2612"
    },
    {
      "channel": 2,
      "note": 77,
      "start": 20.8862,
      "duration": 0.0619,
      "velocity": 111,
      "chip": "ym2612"
    },
    {
      "channel": 3,
      "note": 80,
      "start": 20.8863,
      "duration": 0.0619,
      "velocity": 111,
      "chip": "ym2612"
    },
    {
      "channel": 4,
      "note": 84,
      "start": 20.8864,
      "duration": 0.0619,
      "velocity": 111,
      "chip": "ym2612"
    },
    {
      "channel": 0,
      "note": 79,
      "start": 20.9379,
      "duration": 0.0711,
      "velocity": 95,
      "chip": "ym2612"
    },
    {
      "channel": 1,
      "note": 41,
      "start": 20.9382,
      "duration": 0.071,
      "velocity": 115,
      "chip": "ym2612"
    },
    {
      "channel": 2,
      "note": 77,
      "start": 20.9989,
      "duration": 0.0105,
      "velocity": 111,
      "chip": "ym2612"
    },
    {
      "channel": 3,
      "note": 80,
      "start": 20.999,
      "duration": 0.0104,
      "velocity": 111,
      "chip": "ym2612"
    },
    {
      "channel": 4,
      "note": 84,
      "start": 20.999,
      "duration": 0.0104,
      "velocity": 111,
      "chip": "ym2612"
    },
    {
      "channel": 0,
      "note": 75,
      "start": 21.0594,
      "duration": 0.0108,
      "velocity": 95,
      "chip": "ym2612"
    },
    {
      "channel": 1,
      "note": 41,
      "start": 21.0597,
      "duration": 0.0106,
      "velocity": 115,
      "chip": "ym2612"
    },
    {
      "channel": 2,
      "note": 77,
      "start": 21.0603,
      "duration": 0.0102,
      "velocity": 111,
      "chip": "ym2612"
    },
    {
      "channel": 3,
      "note": 80,
      "start": 21.0604,
      "duration": 0.0101,
      "velocity": 111,
      "chip": "ym2612"
    },
    {
      "channel": 4,
      "note": 84,
      "start": 21.0604,
      "duration": 0.0101,
      "velocity": 111,
      "chip": "ym2612"
    },
    {
      "channel": 0,
      "note": 77,
      "start": 21.1205,
      "duration": 0.012,
      "velocity": 95,
      "chip": "ym2612"
    },
    {
      "channel": 1,
      "note": 46,
      "start": 21.1209,
      "duration": 0.0118,
      "velocity": 115,
      "chip": "ym2612"
    },
    {
      "channel": 0,
      "note": 72,
      "start": 21.1828,
      "duration": 0.0704,
      "velocity": 95,
      "chip": "ym2612"
    },
    {
      "channel": 1,
      "note": 44,
      "start": 21.1832,
      "duration": 0.0702,
      "velocity": 115,
      "chip": "ym2612"
    },
    {
      "channel": 0,
      "note": 75,
      "start": 21.3036,
      "duration": 0.7735,
      "velocity": 95,
      "chip": "ym2612"
    },
    {
      "channel": 1,
      "note": 41,
      "start": 21.3039,
      "duration": 0.068,
      "velocity": 115,
      "chip": "ym2612"
    },
    {
      "channel": 2,
      "note": 72,
      "start": 21.3107,
      "duration": 0.0614,
      "velocity": 127,
      "chip": "ym2612"
    },
    {
      "channel": 3,
      "note": 65,
      "start": 21.3108,
      "duration": 0.0614,
      "velocity": 127,
      "chip": "ym2612"
    },
    {
      "channel": 4,
      "note": 68,
      "start": 21.3108,
      "duration": 0.0614,
      "velocity": 127,
      "chip": "ym2612"
    },
    {
      "channel": 1,
      "note": 41,
      "start": 21.4222,
      "duration": 0.072,
      "velocity": 115,
      "chip": "ym2612"
    },
    {
      "channel": 2,
      "note": 72,
      "start": 21.4229,
      "duration": 0.0103,
      "velocity": 127,
      "chip": "ym2612"
    },
    {
      "channel": 3,
      "note": 65,
      "start": 21.4229,
      "duration": 0.0103,
      "velocity": 127,
      "chip": "ym2612"
    },
    {
      "channel": 4,
      "note": 68,
      "start": 21.423,
      "duration": 0.0103,
      "velocity": 127,
      "chip": "ym2612"
    },
    {
      "channel": 2,
      "note": 72,
      "start": 21.4839,
      "duration": 0.0606,
      "velocity": 127,
      "chip": "ym2612"
    },
    {
      "channel": 3,
      "note": 65,
      "start": 21.484,
      "duration": 0.0605,
      "velocity": 127,
      "chip": "ym2612"
    },
    {
      "channel": 4,
      "note": 68,
      "start": 21.4841,
      "duration": 0.0605,
      "velocity": 127,
      "chip": "ym2612"
    },
    {
      "channel": 1,
      "note": 44,
      "start": 21.5444,
      "duration": 0.0122,
      "velocity": 115,
      "chip": "ym2612"
    },
    {
      "channel": 2,
      "note": 72,
      "start": 21.5464,
      "duration": 0.0707,
      "velocity": 127,
      "chip": "ym2612"
    },
    {
      "channel": 3,
      "note": 65,
      "start": 21.5465,
      "duration": 0.0707,
      "velocity": 127,
      "chip": "ym2612"
    },
    {
      "channel": 4,
      "note": 68,
      "start": 21.5466,
      "duration": 0.0707,
      "velocity": 127,
      "chip": "ym2612"
    },
    {
      "channel": 1,
      "note": 46,
      "start": 21.6069,
      "duration": 0.01,
      "velocity": 115,
      "chip": "ym2612"
    },
    {
      "channel": 1,
      "note": 41,
      "start": 21.6673,
      "duration": 0.0655,
      "velocity": 115,
      "chip": "ym2612"
    },
    {
      "channel": 2,
      "note": 72,
      "start": 21.6679,
      "duration": 0.0101,
      "velocity": 127,
      "chip": "ym2612"
    },
    {
      "channel": 3,
      "note": 65,
      "start": 21.6679,
      "duration": 0.0102,
      "velocity": 127,
      "chip": "ym2612"
    },
    {
      "channel": 4,
      "note": 68,
      "start": 21.668,
      "duration": 0.0102,
      "velocity": 127,
      "chip": "ym2612"
    },
    {
      "channel": 2,
      "note": 67,
      "start": 21.7288,
      "duration": 0.3486,
      "velocity": 127,
      "chip": "ym2612"
    },
    {
      "channel": 3,
      "note": 72,
      "start": 21.7289,
      "duration": 0.3485,
      "velocity": 127,
      "chip": "ym2612"
    },
    {
      "channel": 4,
      "note": 63,
      "start": 21.7289,
      "duration": 0.3485,
      "velocity": 127,
      "chip": "ym2612"
    },
    {
      "channel": 1,
      "note": 41,
      "start": 21.7832,
      "duration": 0.0639,
      "velocity": 115,
      "chip": "ym2612"
    },
    {
      "channel": 1,
      "note": 41,
      "start": 21.8974,
      "duration": 0.0037,
      "velocity": 115,
      "chip": "ym2612"
    },
    {
      "channel": 1,
      "note": 46,
      "start": 21.9514,
      "duration": 0.0114,
      "velocity": 115,
      "chip": "ym2612"
    },
    {
      "channel": 1,
      "note": 44,
      "start": 22.0132,
      "duration": 0.0639,
      "velocity": 115,
      "chip": "ym2612"
    },
    {
      "channel": 0,
      "note": 77,
      "start": 22.1273,
      "duration": 0.0691,
      "velocity": 95,
      "chip": "ym2612"
    },
    {
      "channel": 1,
      "note": 41,
      "start": 22.1276,
      "duration": 0.0689,
      "velocity": 115,
      "chip": "ym2612"
    },
    {
      "channel": 2,
      "note": 68,
      "start": 22.1342,
      "duration": 0.0013,
      "velocity": 109,
      "chip": "ym2612"
    },
    {
      "channel": 3,
      "note": 72,
      "start": 22.1343,
      "duration": 0.0013,
      "velocity": 109,
      "chip": "ym2612"
    },
    {
      "channel": 4,
      "note": 65,
      "start": 22.1344,
      "duration": 0.0013,
      "velocity": 109,
      "chip": "ym2612"
    },
    {
      "channel": 2,
      "note": 68,
      "start": 22.1862,
      "duration": 0.0105,
      "velocity": 109,
      "chip": "ym2612"
    },
    {
      "channel": 3,
      "note": 72,
      "start": 22.1863,
      "duration": 0.0104,
      "velocity": 109,
      "chip": "ym2612"
    },
    {
      "channel": 4,
      "note": 65,
      "start": 22.1864,
      "duration": 0.0104,
      "velocity": 109,
      "chip": "ym2612"
    },
    {
      "channel": 0,
      "note": 72,
      "start": 22.2467,
      "duration": 0.0705,
      "velocity": 95,
      "chip": "ym2612"
    },
    {
      "channel": 1,
      "note": 41,
      "start": 22.247,
      "duration": 0.0704,
      "velocity": 115,
      "chip": "ym2612"
    },
    {
      "channel": 0,
      "note": 80,
      "start": 22.3676,
      "duration": 0.0116,
      "velocity": 95,
      "chip": "ym2612"
    },
    {
      "channel": 1,
      "note": 44,
      "start": 22.3679,
      "duration": 0.0114,
      "velocity": 115,
      "chip": "ym2612"
    },
    {
      "channel": 0,
      "note": 77,
      "start": 22.4295,
      "duration": 0.0101,
      "velocity": 95,
      "chip": "ym2612"
    },
    {
      "channel": 1,
      "note": 46,
      "start": 22.4298,
      "duration": 0.01,
      "velocity": 115,
      "chip": "ym2612"
    },
    {
      "channel": 0,
      "note": 79,
      "start": 22.4899,
      "duration": 0.0681,
      "velocity": 95,
      "chip": "ym2612"
    },
    {
      "channel": 1,
      "note": 41,
      "start": 22.4903,
      "duration": 0.0679,
      "velocity": 115,
      "chip": "ym2612"
    },
    {
      "channel": 2,
      "note": 77,
      "start": 22.5566,
      "duration": 0.0619,
      "velocity": 111,
      "chip": "ym2612"
    },
    {
      "channel": 3,
      "note": 84,
      "start": 22.5567,
      "duration": 0.0619,
      "velocity": 111,
      "chip": "ym2612"
    },
    {
      "channel": 4,
      "note": 80,
      "start": 22.5567,
      "duration": 0.0619,
      "velocity": 111,
      "chip": "ym2612"
    },
    {
      "channel": 0,
      "note": 79,
      "start": 22.6083,
      "duration": 0.0711,
      "velocity": 95,
      "chip": "ym2612"
    },
    {
      "channel": 1,
      "note": 41,
      "start": 22.6086,
      "duration": 0.071,
      "velocity": 115,
      "chip": "ym2612"
    },
    {
      "channel": 2,
      "note": 77,
      "start": 22.6693,
      "duration": 0.0105,
      "velocity": 111,
      "chip": "ym2612"
    },
    {
      "channel": 3,
      "note": 84,
      "start": 22.6693,
      "duration": 0.0104,
      "velocity": 111,
      "chip": "ym2612"
    },
    {
      "channel": 4,
      "note": 80,
      "start": 22.6694,
      "duration": 0.0104,
      "velocity": 111,
      "chip": "ym2612"
    },
    {
      "channel": 0,
      "note": 75,
      "start": 22.7298,
      "duration": 0.0108,
      "velocity": 95,
      "chip": "ym2612"
    },
    {
      "channel": 1,
      "note": 41,
      "start": 22.7301,
      "duration": 0.0106,
      "velocity": 115,
      "chip": "ym2612"
    },
    {
      "channel": 2,
      "note": 77,
      "start": 22.7307,
      "duration": 0.0102,
      "velocity": 111,
      "chip": "ym2612"
    },
    {
      "channel": 3,
      "note": 84,
      "start": 22.7307,
      "duration": 0.0101,
      "velocity": 111,
      "chip": "ym2612"
    },
    {
      "channel": 4,
      "note": 80,
      "start": 22.7308,
      "duration": 0.0101,
      "velocity": 111,
      "chip": "ym2612"
    },
    {
      "channel": 0,
      "note": 77,
      "start": 22.7909,
      "duration": 0.1325,
      "velocity": 95,
      "chip": "ym2612"
    },
    {
      "channel": 1,
      "note": 46,
      "start": 22.7912,
      "duration": 0.0117,
      "velocity": 115,
      "chip": "ym2612"
    },
    {
      "channel": 1,
      "note": 44,
      "start": 22.8532,
      "duration": 0.0703,
      "velocity": 115,
      "chip": "ym2612"
    },
    {
      "channel": 0,
      "note": 77,
      "start": 22.9738,
      "duration": 0.0679,
      "velocity": 95,
      "chip": "ym2612"
    },
    {
      "channel": 1,
      "note": 41,
      "start": 22.9741,
      "duration": 0.0677,
      "velocity": 115,
      "chip": "ym2612"
    },
    {
      "channel": 2,
      "note": 65,
      "start": 22.9804,
      "duration": 0.0616,
      "velocity": 103,
      "chip": "ym2612"
    },
    {
      "channel": 3,
      "note": 72,
      "start": 22.9805,
      "duration": 0.0615,
      "velocity": 103,
      "chip": "ym2612"
    },
    {
      "channel": 4,
      "note": 68,
      "start": 22.9805,
      "duration": 0.0615,
      "velocity": 103,
      "chip": "ym2612"
    },
    {
      "channel": 0,
      "note": 72,
      "start": 23.092,
      "duration": 0.0718,
      "velocity": 95,
      "chip": "ym2612"
    },
    {
      "channel": 1,
      "note": 41,
      "start": 23.0923,
      "duration": 0.0716,
      "velocity": 115,
      "chip": "ym2612"
    },
    {
      "channel": 2,
      "note": 65,
      "start": 23.0929,
      "duration": 0.01,
      "velocity": 103,
      "chip": "ym2612"
    },
    {
      "channel": 3,
      "note": 72,
      "start": 23.093,
      "duration": 0.01,
      "velocity": 103,
      "chip": "ym2612"
    },
    {
      "channel": 4,
      "note": 68,
      "start": 23.093,
      "duration": 0.01,
      "velocity": 103,
      "chip": "ym2612"
    },
    {
      "channel": 2,
      "note": 65,
      "start": 23.1536,
      "duration": 0.0609,
      "velocity": 103,
      "chip": "ym2612"
    },
    {
      "channel": 3,
      "note": 72,
      "start": 23.1537,
      "duration": 0.0609,
      "velocity": 103,
      "chip": "ym2612"
    },
    {
      "channel": 4,
      "note": 68,
      "start": 23.1538,
      "duration": 0.0609,
      "velocity": 103,
      "chip": "ym2612"
    },
    {
      "channel": 0,
      "note": 80,
      "start": 23.2141,
      "duration": 0.0125,
      "velocity": 95,
      "chip": "ym2612"
    },
    {
      "channel": 1,
      "note": 44,
      "start": 23.2144,
      "duration": 0.0122,
      "velocity": 115,
      "chip": "ym2612"
    },
    {
      "channel": 2,
      "note": 65,
      "start": 23.2164,
      "duration": 0.071,
      "velocity": 103,
      "chip": "ym2612"
    },
    {
      "channel": 3,
      "note": 72,
      "start": 23.2165,
      "duration": 0.0709,
      "velocity": 103,
      "chip": "ym2612"
    },
    {
      "channel": 4,
      "note": 68,
      "start": 23.2166,
      "duration": 0.0708,
      "velocity": 103,
      "chip": "ym2612"
    },
    {
      "channel": 0,
      "note": 77,
      "start": 23.2769,
      "duration": 0.0101,
      "velocity": 95,
      "chip": "ym2612"
    },
    {
      "channel": 1,
      "note": 46,
      "start": 23.2772,
      "duration": 0.01,
      "velocity": 115,
      "chip": "ym2612"
    },
    {
      "channel": 0,
      "note": 79,
      "start": 23.3374,
      "duration": 0.234,
      "velocity": 95,
      "chip": "ym2612"
    },
    {
      "channel": 1,
      "note": 41,
      "start": 23.3376,
      "duration": 0.0654,
      "velocity": 115,
      "chip": "ym2612"
    },
    {
      "channel": 2,
      "note": 65,
      "start": 23.3384,
      "duration": 0.01,
      "velocity": 103,
      "chip": "ym2612"
    },
    {
      "channel": 3,
      "note": 72,
      "start": 23.3384,
      "duration": 0.01,
      "velocity": 103,
      "chip": "ym2612"
    },
    {
      "channel": 4,
      "note": 68,
      "start": 23.3385,
      "duration": 0.01,
      "velocity": 103,
      "chip": "ym2612"
    },
    {
      "channel": 2,
      "note": 65,
      "start": 23.3992,
      "duration": 0.3486,
      "velocity": 103,
      "chip": "ym2612"
    },
    {
      "channel": 3,
      "note": 70,
      "start": 23.3992,
      "duration": 0.3486,
      "velocity": 103,
      "chip": "ym2612"
    },
    {
      "channel": 4,
      "note": 75,
      "start": 23.3993,
      "duration": 0.3486,
      "velocity": 103,
      "chip": "ym2612"
    },
    {
      "channel": 1,
      "note": 41,
      "start": 23.4534,
      "duration": 0.0639,
      "velocity": 115,
      "chip": "ym2612"
    },
    {
      "channel": 1,
      "note": 41,
      "start": 23.5677,
      "duration": 0.0038,
      "velocity": 115,
      "chip": "ym2612"
    },
    {
      "channel": 0,
      "note": 75,
      "start": 23.6217,
      "duration": 0.1259,
      "velocity": 95,
      "chip": "ym2612"
    },
    {
      "channel": 1,
      "note": 46,
      "start": 23.622,
      "duration": 0.0113,
      "velocity": 115,
      "chip": "ym2612"
    },
    {
      "channel": 1,
      "note": 44,
      "start": 23.6838,
      "duration": 0.0639,
      "velocity": 115,
      "chip": "ym2612"
    },
    {
      "channel": 0,
      "note": 77,
      "start": 23.7979,
      "duration": 0.0691,
      "velocity": 95,
      "chip": "ym2612"
    },
    {
      "channel": 1,
      "note": 41,
      "start": 23.7983,
      "duration": 0.0688,
      "velocity": 115,
      "chip": "ym2612"
    },
    {
      "channel": 2,
      "note": 65,
      "start": 23.8048,
      "duration": 0.0013,
      "velocity": 109,
      "chip": "ym2612"
    },
    {
      "channel": 3,
      "note": 72,
      "start": 23.8048,
      "duration": 0.0013,
      "velocity": 109,
      "chip": "ym2612"
    },
    {
      "channel": 4,
      "note": 68,
      "start": 23.8049,
      "duration": 0.0013,
      "velocity": 109,
      "chip": "ym2612"
    },
    {
      "channel": 2,
      "note": 65,
      "start": 23.8568,
      "duration": 0.0105,
      "velocity": 109,
      "chip": "ym2612"
    },
    {
      "channel": 3,
      "note": 72,
      "start": 23.8568,
      "duration": 0.0104,
      "velocity": 109,
      "chip": "ym2612"
    },
    {
      "channel": 4,
      "note": 68,
      "start": 23.8569,
      "duration": 0.0104,
      "velocity": 109,
      "chip": "ym2612"
    },
    {
      "channel": 0,
      "note": 72,
      "start": 23.9173,
      "duration": 0.0705,
      "velocity": 95,
      "chip": "ym2612"
    },
    {
      "channel": 1,
      "note": 41,
      "start": 23.9176,
      "duration": 0.0704,
      "velocity": 115,
      "chip": "ym2612"
    },
    {
      "channel": 0,
      "note": 80,
      "start": 24.0381,
      "duration": 0.0116,
      "velocity": 95,
      "chip": "ym2612"
    },
    {
      "channel": 1,
      "note": 44,
      "start": 24.0384,
      "duration": 0.0114,
      "velocity": 115,
      "chip": "ym2612"
    },
    {
      "channel": 0,
      "note": 77,
      "start": 24.1,
      "duration": 0.0101,
      "velocity": 95,
      "chip": "ym2612"
    },
    {
      "channel": 1,
      "note": 46,
      "start": 24.1003,
      "duration": 0.01,
      "velocity": 115,
      "chip": "ym2612"
    },
    {
      "channel": 0,
      "note": 79,
      "start": 24.1605,
      "duration": 0.068,
      "velocity": 95,
      "chip": "ym2612"
    },
    {
      "channel": 1,
      "note": 41,
      "start": 24.1608,
      "duration": 0.0677,
      "velocity": 115,
      "chip": "ym2612"
    },
    {
      "channel": 2,
      "note": 77,
      "start": 24.2269,
      "duration": 0.062,
      "velocity": 111,
      "chip": "ym2612"
    },
    {
      "channel": 3,
      "note": 84,
      "start": 24.227,
      "duration": 0.062,
      "velocity": 111,
      "chip": "ym2612"
    },
    {
      "channel": 4,
      "note": 80,
      "start": 24.2271,
      "duration": 0.062,
      "velocity": 111,
      "chip": "ym2612"
    },
    {
      "channel": 0,
      "note": 79,
      "start": 24.2787,
      "duration": 0.0711,
      "velocity": 95,
      "chip": "ym2612"
    },
    {
      "channel": 1,
      "note": 41,
      "start": 24.279,
      "duration": 0.071,
      "velocity": 115,
      "chip": "ym2612"
    },
    {
      "channel": 2,
      "note": 77,
      "start": 24.3396,
      "duration": 0.0105,
      "velocity": 111,
      "chip": "ym2612"
    },
    {
      "channel": 3,
      "note": 84,
      "start": 24.3397,
      "duration": 0.0104,
      "velocity": 111,
      "chip": "ym2612"
    },
    {
      "channel": 4,
      "note": 80,
      "start": 24.3398,
      "duration": 0.0104,
      "velocity": 111,
      "chip": "ym2612"
    },
    {
      "channel": 0,
      "note": 75,
      "start": 24.4002,
      "duration": 0.0108,
      "velocity": 95,
      "chip": "ym2612"
    },
    {
      "channel": 1,
      "note": 41,
      "start": 24.4005,
      "duration": 0.0106,
      "velocity": 115,
      "chip": "ym2612"
    },
    {
      "channel": 2,
      "note": 77,
      "start": 24.401,
      "duration": 0.0102,
      "velocity": 111,
      "chip": "ym2612"
    },
    {
      "channel": 3,
      "note": 84,
      "start": 24.4011,
      "duration": 0.0101,
      "velocity": 111,
      "chip": "ym2612"
    },
    {
      "channel": 4,
      "note": 80,
      "start": 24.4012,
      "duration": 0.0101,
      "velocity": 111,
      "chip": "ym2612"
    },
    {
      "channel": 0,
      "note": 77,
      "start": 24.4613,
      "duration": 0.012,
      "velocity": 95,
      "chip": "ym2612"
    },
    {
      "channel": 1,
      "note": 46,
      "start": 24.4616,
      "duration": 0.0118,
      "velocity": 115,
      "chip": "ym2612"
    },
    {
      "channel": 0,
      "note": 79,
      "start": 24.5236,
      "duration": 0.0704,
      "velocity": 95,
      "chip": "ym2612"
    },
    {
      "channel": 1,
      "note": 44,
      "start": 24.5239,
      "duration": 0.0702,
      "velocity": 115,
      "chip": "ym2612"
    },
    {
      "channel": 0,
      "note": 80,
      "start": 24.6444,
      "duration": 0.0101,
      "velocity": 95,
      "chip": "ym2612"
    },
    {
      "channel": 1,
      "note": 41,
      "start": 24.6446,
      "duration": 0.0014,
      "velocity": 115,
      "chip": "ym2612"
    },
    {
      "channel": 1,
      "note": 41,
      "start": 24.6468,
      "duration": 0.0078,
      "velocity": 115,
      "chip": "ym2612"
    },
    {
      "channel": 2,
      "note": 61,
      "start": 24.6536,
      "duration": 0.174,
      "velocity": 103,
      "chip": "ym2612"
    },
    {
      "channel": 3,
      "note": 68,
      "start": 24.6536,
      "duration": 0.174,
      "velocity": 103,
      "chip": "ym2612"
    },
    {
      "channel": 4,
      "note": 65,
      "start": 24.6537,
      "duration": 0.174,
      "velocity": 103,
      "chip": "ym2612"
    },
    {
      "channel": 0,
      "note": 77,
      "start": 24.6776,
      "duration": 0.202,
      "velocity": 95,
      "chip": "ym2612"
    },
    {
      "channel": 1,
      "note": 44,
      "start": 24.678,
      "duration": 0.1494,
      "velocity": 115,
      "chip": "ym2612"
    },
    {
      "channel": 1,
      "note": 46,
      "start": 24.8778,
      "duration": 0.0014,
      "velocity": 115,
      "chip": "ym2612"
    },
    {
      "channel": 2,
      "note": 61,
      "start": 24.8784,
      "duration": 0.0013,
      "velocity": 103,
      "chip": "ym2612"
    },
    {
      "channel": 3,
      "note": 68,
      "start": 24.8784,
      "duration": 0.0014,
      "velocity": 103,
      "chip": "ym2612"
    },
    {
      "channel": 4,
      "note": 65,
      "start": 24.8785,
      "duration": 0.0013,
      "velocity": 103,
      "chip": "ym2612"
    },
    {
      "channel": 1,
      "note": 41,
      "start": 24.8795,
      "duration": 0.0083,
      "velocity": 115,
      "chip": "ym2612"
    },
    {
      "channel": 0,
      "note": 79,
      "start": 24.8804,
      "duration": 0.0658,
      "velocity": 95,
      "chip": "ym2612"
    },
    {
      "channel": 2,
      "note": 63,
      "start": 24.887,
      "duration": 0.0595,
      "velocity": 127,
      "chip": "ym2612"
    },
    {
      "channel": 3,
      "note": 70,
      "start": 24.8871,
      "duration": 0.0594,
      "velocity": 127,
      "chip": "ym2612"
    },
    {
      "channel": 4,
      "note": 67,
      "start": 24.8871,
      "duration": 0.0594,
      "velocity": 127,
      "chip": "ym2612"
    },
    {
      "channel": 1,
      "note": 41,
      "start": 24.8882,
      "duration": 0.004,
      "velocity": 115,
      "chip": "ym2612"
    },
    {
      "channel": 1,
      "note": 41,
      "start": 24.9425,
      "duration": 0.0038,
      "velocity": 115,
      "chip": "ym2612"
    },
    {
      "channel": 0,
      "note": 75,
      "start": 24.9965,
      "duration": 0.1771,
      "velocity": 95,
      "chip": "ym2612"
    },
    {
      "channel": 1,
      "note": 46,
      "start": 24.9969,
      "duration": 0.0014,
      "velocity": 115,
      "chip": "ym2612"
    },
    {
      "channel": 2,
      "note": 65,
      "start": 24.9976,
      "duration": 0.1763,
      "velocity": 127,
      "chip": "ym2612"
    },
    {
      "channel": 3,
      "note": 72,
      "start": 24.9976,
      "duration": 0.1763,
      "velocity": 127,
      "chip": "ym2612"
    },
    {
      "channel": 4,
      "note": 68,
      "start": 24.9977,
      "duration": 0.1762,
      "velocity": 127,
      "chip": "ym2612"
    },
    {
      "channel": 1,
      "note": 44,
      "start": 25.0239,
      "duration": 0.1498,
      "velocity": 115,
      "chip": "ym2612"
    },
    {
      "channel": 0,
      "note": 77,
      "start": 25.2259,
      "duration": 0.5991,
      "velocity": 111,
      "chip": "ym2612"
    },
    {
      "channel": 1,
      "note": 35,
      "start": 25.2263,
      "duration": 0.0672,
      "velocity": 115,
      "chip": "ym2612"
    },
    {
      "channel": 2,
      "note": 66,
      "start": 25.2328,
      "duration": 0.0609,
      "velocity": 119,
      "chip": "ym2612"
    },
    {
      "channel": 3,
      "note": 59,
      "start": 25.2328,
      "duration": 0.0609,
      "velocity": 119,
      "chip": "ym2612"
    },
    {
      "channel": 4,
      "note": 62,
      "start": 25.2329,
      "duration": 0.0609,
      "velocity": 119,
      "chip": "ym2612"
    },
    {
      "channel": 1,
      "note": 35,
      "start": 25.3439,
      "duration": 0.1274,
      "velocity": 115,
      "chip": "ym2612"
    },
    {
      "channel": 2,
      "note": 66,
      "start": 25.3447,
      "duration": 0.0038,
      "velocity": 119,
      "chip": "ym2612"
    },
    {
      "channel": 3,
      "note": 59,
      "start": 25.3448,
      "duration": 0.0038,
      "velocity": 119,
      "chip": "ym2612"
    },
    {
      "channel": 4,
      "note": 62,
      "start": 25.3449,
      "duration": 0.0038,
      "velocity": 119,
      "chip": "ym2612"
    },
    {
      "channel": 2,
      "note": 66,
      "start": 25.3991,
      "duration": 0.0104,
      "velocity": 119,
      "chip": "ym2612"
    },
    {
      "channel": 3,
      "note": 59,
      "start": 25.3992,
      "duration": 0.0104,
      "velocity": 119,
      "chip": "ym2612"
    },
    {
      "channel": 4,
      "note": 62,
      "start": 25.3993,
      "duration": 0.0104,
      "velocity": 119,
      "chip": "ym2612"
    },
    {
      "channel": 1,
      "note": 41,
      "start": 25.5217,
      "duration": 0.1281,
      "velocity": 115,
      "chip": "ym2612"
    },
    {
      "channel": 2,
      "note": 90,
      "start": 25.6422,
      "duration": 0.068,
      "velocity": 95,
      "chip": "ym2612"
    },
    {
      "channel": 3,
      "note": 86,
      "start": 25.6422,
      "duration": 0.068,
      "velocity": 95,
      "chip": "ym2612"
    },
    {
      "channel": 4,
      "note": 83,
      "start": 25.6423,
      "duration": 0.068,
      "velocity": 95,
      "chip": "ym2612"
    },
    {
      "channel": 1,
      "note": 41,
      "start": 25.7,
      "duration": 0.0647,
      "velocity": 115,
      "chip": "ym2612"
    },
    {
      "channel": 2,
      "note": 90,
      "start": 25.7609,
      "duration": 0.0644,
      "velocity": 95,
      "chip": "ym2612"
    },
    {
      "channel": 3,
      "note": 86,
      "start": 25.761,
      "duration": 0.0644,
      "velocity": 95,
      "chip": "ym2612"
    },
    {
      "channel": 4,
      "note": 83,
      "start": 25.761,
      "duration": 0.0644,
      "velocity": 95,
      "chip": "ym2612"
    },
    {
      "channel": 1,
      "note": 41,
      "start": 25.815,
      "duration": 0.0101,
      "velocity": 115,
      "chip": "ym2612"
    },
    {
      "channel": 0,
      "note": 78,
      "start": 25.8754,
      "duration": 0.0022,
      "velocity": 111,
      "chip": "ym2612"
    },
    {
      "channel": 1,
      "note": 41,
      "start": 25.8756,
      "duration": 0.1347,
      "velocity": 115,
      "chip": "ym2612"
    },
    {
      "channel": 2,
      "note": 90,
      "start": 25.8763,
      "duration": 0.0124,
      "velocity": 95,
      "chip": "ym2612"
    },
    {
      "channel": 3,
      "note": 86,
      "start": 25.8764,
      "duration": 0.0124,
      "velocity": 95,
      "chip": "ym2612"
    },
    {
      "channel": 4,
      "note": 83,
      "start": 25.8765,
      "duration": 0.0124,
      "velocity": 95,
      "chip": "ym2612"
    },
    {
      "channel": 0,
      "note": 79,
      "start": 25.8783,
      "duration": 0.0102,
      "velocity": 111,
      "chip": "ym2612"
    },
    {
      "channel": 0,
      "note": 80,
      "start": 25.9387,
      "duration": 0.0713,
      "velocity": 111,
      "chip": "ym2612"
    },
    {
      "channel": 2,
      "note": 90,
      "start": 25.9394,
      "duration": 0.071,
      "velocity": 95,
      "chip": "ym2612"
    },
    {
      "channel": 3,
      "note": 86,
      "start": 25.9395,
      "duration": 0.071,
      "velocity": 95,
      "chip": "ym2612"
    },
    {
      "channel": 4,
      "note": 83,
      "start": 25.9395,
      "duration": 0.071,
      "velocity": 95,
      "chip": "ym2612"
    },
    {
      "channel": 0,
      "note": 79,
      "start": 26.0604,
      "duration": 0.5901,
      "velocity": 111,
      "chip": "ym2612"
    },
    {
      "channel": 1,
      "note": 35,
      "start": 26.0606,
      "duration": 0.0684,
      "velocity": 115,
      "chip": "ym2612"
    },
    {
      "channel": 2,
      "note": 66,
      "start": 26.0672,
      "duration": 0.062,
      "velocity": 119,
      "chip": "ym2612"
    },
    {
      "channel": 3,
      "note": 59,
      "start": 26.0674,
      "duration": 0.0619,
      "velocity": 119,
      "chip": "ym2612"
    },
    {
      "channel": 4,
      "note": 62,
      "start": 26.0674,
      "duration": 0.0619,
      "velocity": 119,
      "chip": "ym2612"
    },
    {
      "channel": 1,
      "note": 35,
      "start": 26.1793,
      "duration": 0.1287,
      "velocity": 115,
      "chip": "ym2612"
    },
    {
      "channel": 2,
      "note": 66,
      "start": 26.18,
      "duration": 0.0105,
      "velocity": 119,
      "chip": "ym2612"
    },
    {
      "channel": 3,
      "note": 59,
      "start": 26.1801,
      "duration": 0.0104,
      "velocity": 119,
      "chip": "ym2612"
    },
    {
      "channel": 4,
      "note": 62,
      "start": 26.1801,
      "duration": 0.0104,
      "velocity": 119,
      "chip": "ym2612"
    },
    {
      "channel": 2,
      "note": 66,
      "start": 26.2412,
      "duration": 0.0044,
      "velocity": 119,
      "chip": "ym2612"
    },
    {
      "channel": 3,
      "note": 59,
      "start": 26.2413,
      "duration": 0.0043,
      "velocity": 119,
      "chip": "ym2612"
    },
    {
      "channel": 4,
      "note": 62,
      "start": 26.2413,
      "duration": 0.0043,
      "velocity": 119,
      "chip": "ym2612"
    },
    {
      "channel": 1,
      "note": 41,
      "start": 26.3584,
      "duration": 0.1225,
      "velocity": 115,
      "chip": "ym2612"
    },
    {
      "channel": 2,
      "note": 90,
      "start": 26.4731,
      "duration": 0.0622,
      "velocity": 95,
      "chip": "ym2612"
    },
    {
      "channel": 3,
      "note": 86,
      "start": 26.4732,
      "duration": 0.0622,
      "velocity": 95,
      "chip": "ym2612"
    },
    {
      "channel": 4,
      "note": 83,
      "start": 26.4732,
      "duration": 0.0622,
      "velocity": 95,
      "chip": "ym2612"
    },
    {
      "channel": 1,
      "note": 41,
      "start": 26.5312,
      "duration": 0.0651,
      "velocity": 115,
      "chip": "ym2612"
    },
    {
      "channel": 2,
      "note": 90,
      "start": 26.5859,
      "duration": 0.065,
      "velocity": 95,
      "chip": "ym2612"
    },
    {
      "channel": 3,
      "note": 86,
      "start": 26.586,
      "duration": 0.065,
      "velocity": 95,
      "chip": "ym2612"
    },
    {
      "channel": 4,
      "note": 83,
      "start": 26.5861,
      "duration": 0.065,
      "velocity": 95,
      "chip": "ym2612"
    },
    {
      "channel": 1,
      "note": 41,
      "start": 26.6467,
      "duration": 0.0041,
      "velocity": 115,
      "chip": "ym2612"
    },
    {
      "channel": 0,
      "note": 82,
      "start": 26.7008,
      "duration": 0.0023,
      "velocity": 111,
      "chip": "ym2612"
    },
    {
      "channel": 1,
      "note": 35,
      "start": 26.7011,
      "duration": 0.0133,
      "velocity": 115,
      "chip": "ym2612"
    },
    {
      "channel": 2,
      "note": 90,
      "start": 26.702,
      "duration": 0.0125,
      "velocity": 95,
      "chip": "ym2612"
    },
    {
      "channel": 3,
      "note": 86,
      "start": 26.702,
      "duration": 0.0125,
      "velocity": 95,
      "chip": "ym2612"
    },
    {
      "channel": 4,
      "note": 83,
      "start": 26.7021,
      "duration": 0.0125,
      "velocity": 95,
      "chip": "ym2612"
    },
    {
      "channel": 0,
      "note": 81,
      "start": 26.7039,
      "duration": 0.0102,
      "velocity": 111,
      "chip": "ym2612"
    },
    {
      "channel": 0,
      "note": 80,
      "start": 26.7644,
      "duration": 0.0652,
      "velocity": 111,
      "chip": "ym2612"
    },
    {
      "channel": 1,
      "note": 41,
      "start": 26.7647,
      "duration": 0.0652,
      "velocity": 115,
      "chip": "ym2612"
    },
    {
      "channel": 2,
      "note": 90,
      "start": 26.7654,
      "duration": 0.0646,
      "velocity": 95,
      "chip": "ym2612"
    },
    {
      "channel": 3,
      "note": 86,
      "start": 26.7654,
      "duration": 0.0647,
      "velocity": 95,
      "chip": "ym2612"
    },
    {
      "channel": 4,
      "note": 83,
      "start": 26.7654,
      "duration": 0.0647,
      "velocity": 95,
      "chip": "ym2612"
    },
    {
      "channel": 0,
      "note": 79,
      "start": 26.88,
      "duration": 0.5996,
      "velocity": 111,
      "chip": "ym2612"
    },
    {
      "channel": 1,
      "note": 36,
      "start": 26.8803,
      "duration": 0.0685,
      "velocity": 115,
      "chip": "ym2612"
    },
    {
      "channel": 2,
      "note": 60,
      "start": 26.8871,
      "duration": 0.0617,
      "velocity": 119,
      "chip": "ym2612"
    },
    {
      "channel": 3,
      "note": 67,
      "start": 26.8872,
      "duration": 0.0617,
      "velocity": 119,
      "chip": "ym2612"
    },
    {
      "channel": 4,
      "note": 63,
      "start": 26.8873,
      "duration": 0.0618,
      "velocity": 119,
      "chip": "ym2612"
    },
    {
      "channel": 1,
      "note": 36,
      "start": 26.9992,
      "duration": 0.1286,
      "velocity": 115,
      "chip": "ym2612"
    },
    {
      "channel": 2,
      "note": 60,
      "start": 26.9998,
      "duration": 0.0042,
      "velocity": 119,
      "chip": "ym2612"
    },
    {
      "channel": 3,
      "note": 67,
      "start": 26.9999,
      "duration": 0.0041,
      "velocity": 119,
      "chip": "ym2612"
    },
    {
      "channel": 4,
      "note": 63,
      "start": 26.9999,
      "duration": 0.0041,
      "velocity": 119,
      "chip": "ym2612"
    },
    {
      "channel": 2,
      "note": 60,
      "start": 27.0547,
      "duration": 0.0107,
      "velocity": 119,
      "chip": "ym2612"
    },
    {
      "channel": 3,
      "note": 67,
      "start": 27.0547,
      "duration": 0.0106,
      "velocity": 119,
      "chip": "ym2612"
    },
    {
      "channel": 4,
      "note": 63,
      "start": 27.0549,
      "duration": 0.0106,
      "velocity": 119,
      "chip": "ym2612"
    },
    {
      "channel": 1,
      "note": 43,
      "start": 27.1782,
      "duration": 0.1255,
      "velocity": 115,
      "chip": "ym2612"
    },
    {
      "channel": 2,
      "note": 91,
      "start": 27.2933,
      "duration": 0.0711,
      "velocity": 119,
      "chip": "ym2612"
    },
    {
      "channel": 3,
      "note": 84,
      "start": 27.2933,
      "duration": 0.0711,
      "velocity": 119,
      "chip": "ym2612"
    },
    {
      "channel": 4,
      "note": 87,
      "start": 27.2934,
      "duration": 0.071,
      "velocity": 119,
      "chip": "ym2612"
    },
    {
      "channel": 1,
      "note": 43,
      "start": 27.3539,
      "duration": 0.0653,
      "velocity": 115,
      "chip": "ym2612"
    },
    {
      "channel": 2,
      "note": 91,
      "start": 27.4151,
      "duration": 0.0649,
      "velocity": 119,
      "chip": "ym2612"
    },
    {
      "channel": 3,
      "note": 84,
      "start": 27.4151,
      "duration": 0.0649,
      "velocity": 119,
      "chip": "ym2612"
    },
    {
      "channel": 4,
      "note": 87,
      "start": 27.4152,
      "duration": 0.0649,
      "velocity": 119,
      "chip": "ym2612"
    },
    {
      "channel": 1,
      "note": 43,
      "start": 27.4695,
      "duration": 0.0104,
      "velocity": 115,
      "chip": "ym2612"
    },
    {
      "channel": 1,
      "note": 43,
      "start": 27.5301,
      "duration": 0.1345,
      "velocity": 115,
      "chip": "ym2612"
    },
    {
      "channel": 2,
      "note": 91,
      "start": 27.5309,
      "duration": 0.0121,
      "velocity": 119,
      "chip": "ym2612"
    },
    {
      "channel": 3,
      "note": 84,
      "start": 27.5309,
      "duration": 0.0121,
      "velocity": 119,
      "chip": "ym2612"
    },
    {
      "channel": 4,
      "note": 87,
      "start": 27.5309,
      "duration": 0.0121,
      "velocity": 119,
      "chip": "ym2612"
    },
    {
      "channel": 2,
      "note": 91,
      "start": 27.5936,
      "duration": 0.0711,
      "velocity": 119,
      "chip": "ym2612"
    },
    {
      "channel": 3,
      "note": 84,
      "start": 27.5937,
      "duration": 0.0711,
      "velocity": 119,
      "chip": "ym2612"
    },
    {
      "channel": 4,
      "note": 87,
      "start": 27.5937,
      "duration": 0.071,
      "velocity": 119,
      "chip": "ym2612"
    },
    {
      "channel": 0,
      "note": 75,
      "start": 27.7146,
      "duration": 0.008,
      "velocity": 111,
      "chip": "ym2612"
    },
    {
      "channel": 1,
      "note": 36,
      "start": 27.715,
      "duration": 0.0685,
      "velocity": 115,
      "chip": "ym2612"
    },
    {
      "channel": 2,
      "note": 60,
      "start": 27.7213,
      "duration": 0.0622,
      "velocity": 119,
      "chip": "ym2612"
    },
    {
      "channel": 3,
      "note": 67,
      "start": 27.7214,
      "duration": 0.0622,
      "velocity": 119,
      "chip": "ym2612"
    },
    {
      "channel": 4,
      "note": 63,
      "start": 27.7215,
      "duration": 0.0622,
      "velocity": 119,
      "chip": "ym2612"
    },
    {
      "channel": 0,
      "note": 72,
      "start": 27.7729,
      "duration": 0.0102,
      "velocity": 111,
      "chip": "ym2612"
    },
    {
      "channel": 0,
      "note": 75,
      "start": 27.8334,
      "duration": 0.0112,
      "velocity": 111,
      "chip": "ym2612"
    },
    {
      "channel": 1,
      "note": 36,
      "start": 27.8338,
      "duration": 0.1287,
      "velocity": 115,
      "chip": "ym2612"
    },
    {
      "channel": 2,
      "note": 60,
      "start": 27.8344,
      "duration": 0.0105,
      "velocity": 119,
      "chip": "ym2612"
    },
    {
      "channel": 3,
      "note": 67,
      "start": 27.8345,
      "duration": 0.0105,
      "velocity": 119,
      "chip": "ym2612"
    },
    {
      "channel": 4,
      "note": 63,
      "start": 27.8346,
      "duration": 0.0105,
      "velocity": 119,
      "chip": "ym2612"
    },
    {
      "channel": 0,
      "note": 77,
      "start": 27.8949,
      "duration": 0.0046,
      "velocity": 111,
      "chip": "ym2612"
    },
    {
      "channel": 2,
      "note": 60,
      "start": 27.8956,
      "duration": 0.0043,
      "velocity": 119,
      "chip": "ym2612"
    },
    {
      "channel": 3,
      "note": 67,
      "start": 27.8957,
      "duration": 0.0043,
      "velocity": 119,
      "chip": "ym2612"
    },
    {
      "channel": 4,
      "note": 63,
      "start": 27.8957,
      "duration": 0.0044,
      "velocity": 119,
      "chip": "ym2612"
    },
    {
      "channel": 0,
      "note": 75,
      "start": 27.9498,
      "duration": 0.001,
      "velocity": 111,
      "chip": "ym2612"
    },
    {
      "channel": 0,
      "note": 77,
      "start": 27.952,
      "duration": 0.0101,
      "velocity": 111,
      "chip": "ym2612"
    },
    {
      "channel": 0,
      "note": 79,
      "start": 28.0124,
      "duration": 0.0041,
      "velocity": 111,
      "chip": "ym2612"
    },
    {
      "channel": 1,
      "note": 43,
      "start": 28.0128,
      "duration": 0.1737,
      "velocity": 115,
      "chip": "ym2612"
    },
    {
      "channel": 0,
      "note": 77,
      "start": 28.0668,
      "duration": 0.0039,
      "velocity": 111,
      "chip": "ym2612"
    },
    {
      "channel": 0,
      "note": 82,
      "start": 28.121,
      "duration": 0.3598,
      "velocity": 111,
      "chip": "ym2612"
    },
    {
      "channel": 2,
      "note": 91,
      "start": 28.1217,
      "duration": 0.0649,
      "velocity": 119,
      "chip": "ym2612"
    },
    {
      "channel": 3,
      "note": 84,
      "start": 28.1218,
      "duration": 0.0649,
      "velocity": 119,
      "chip": "ym2612"
    },
    {
      "channel": 4,
      "note": 87,
      "start": 28.1219,
      "duration": 0.0648,
      "velocity": 119,
      "chip": "ym2612"
    },
    {
      "channel": 1,
      "note": 43,
      "start": 28.2367,
      "duration": 0.0655,
      "velocity": 115,
      "chip": "ym2612"
    },
    {
      "channel": 2,
      "note": 91,
      "start": 28.2375,
      "duration": 0.0648,
      "velocity": 119,
      "chip": "ym2612"
    },
    {
      "channel": 3,
      "note": 84,
      "start": 28.2376,
      "duration": 0.0648,
      "velocity": 119,
      "chip": "ym2612"
    },
    {
      "channel": 4,
      "note": 87,
      "start": 28.2377,
      "duration": 0.0648,
      "velocity": 119,
      "chip": "ym2612"
    },
    {
      "channel": 1,
      "note": 43,
      "start": 28.3524,
      "duration": 0.0019,
      "velocity": 115,
      "chip": "ym2612"
    },
    {
      "channel": 2,
      "note": 91,
      "start": 28.3531,
      "duration": 0.0126,
      "velocity": 119,
      "chip": "ym2612"
    },
    {
      "channel": 3,
      "note": 84,
      "start": 28.3532,
      "duration": 0.0126,
      "velocity": 119,
      "chip": "ym2612"
    },
    {
      "channel": 4,
      "note": 87,
      "start": 28.3532,
      "duration": 0.0126,
      "velocity": 119,
      "chip": "ym2612"
    },
    {
      "channel": 1,
      "note": 36,
      "start": 28.3554,
      "duration": 0.0102,
      "velocity": 115,
      "chip": "ym2612"
    },
    {
      "channel": 1,
      "note": 43,
      "start": 28.416,
      "duration": 0.0651,
      "velocity": 115,
      "chip": "ym2612"
    },
    {
      "channel": 2,
      "note": 91,
      "start": 28.4166,
      "duration": 0.0647,
      "velocity": 119,
      "chip": "ym2612"
    },
    {
      "channel": 3,
      "note": 84,
      "start": 28.4166,
      "duration": 0.0647,
      "velocity": 119,
      "chip": "ym2612"
    },
    {
      "channel": 4,
      "note": 87,
      "start": 28.4167,
      "duration": 0.0647,
      "velocity": 119,
      "chip": "ym2612"
    },
    {
      "channel": 0,
      "note": 77,
      "start": 28.5312,
      "duration": 0.6,
      "velocity": 111,
      "chip": "ym2612"
    },
    {
      "channel": 1,
      "note": 35,
      "start": 28.5315,
      "duration": 0.0682,
      "velocity": 115,
      "chip": "ym2612"
    },
    {
      "channel": 2,
      "note": 66,
      "start": 28.5381,
      "duration": 0.0617,
      "velocity": 119,
      "chip": "ym2612"
    },
    {
      "channel": 3,
      "note": 59,
      "start": 28.5382,
      "duration": 0.0616,
      "velocity": 119,
      "chip": "ym2612"
    },
    {
      "channel": 4,
      "note": 62,
      "start": 28.5383,
      "duration": 0.0616,
      "velocity": 119,
      "chip": "ym2612"
    },
    {
      "channel": 1,
      "note": 35,
      "start": 28.65,
      "duration": 0.1274,
      "velocity": 115,
      "chip": "ym2612"
    },
    {
      "channel": 2,
      "note": 66,
      "start": 28.6509,
      "duration": 0.0038,
      "velocity": 119,
      "chip": "ym2612"
    },
    {
      "channel": 3,
      "note": 59,
      "start": 28.651,
      "duration": 0.0038,
      "velocity": 119,
      "chip": "ym2612"
    },
    {
      "channel": 4,
      "note": 62,
      "start": 28.651,
      "duration": 0.0038,
      "velocity": 119,
      "chip": "ym2612"
    },
    {
      "channel": 2,
      "note": 66,
      "start": 28.7053,
      "duration": 0.0104,
      "velocity": 119,
      "chip": "ym2612"
    },
    {
      "channel": 3,
      "note": 59,
      "start": 28.7054,
      "duration": 0.0104,
      "velocity": 119,
      "chip": "ym2612"
    },
    {
      "channel": 4,
      "note": 62,
      "start": 28.7054,
      "duration": 0.0104,
      "velocity": 119,
      "chip": "ym2612"
    },
    {
      "channel": 1,
      "note": 41,
      "start": 28.8278,
      "duration": 0.1281,
      "velocity": 115,
      "chip": "ym2612"
    },
    {
      "channel": 2,
      "note": 90,
      "start": 28.9484,
      "duration": 0.068,
      "velocity": 95,
      "chip": "ym2612"
    },
    {
      "channel": 3,
      "note": 86,
      "start": 28.9484,
      "duration": 0.068,
      "velocity": 95,
      "chip": "ym2612"
    },
    {
      "channel": 4,
      "note": 83,
      "start": 28.9485,
      "duration": 0.068,
      "velocity": 95,
      "chip": "ym2612"
    },
    {
      "channel": 1,
      "note": 41,
      "start": 29.0062,
      "duration": 0.0647,
      "velocity": 115,
      "chip": "ym2612"
    },
    {
      "channel": 2,
      "note": 90,
      "start": 29.0671,
      "duration": 0.0644,
      "velocity": 95,
      "chip": "ym2612"
    },
    {
      "channel": 3,
      "note": 86,
      "start": 29.0671,
      "duration": 0.0644,
      "velocity": 95,
      "chip": "ym2612"
    },
    {
      "channel": 4,
      "note": 83,
      "start": 29.0672,
      "duration": 0.0644,
      "velocity": 95,
      "chip": "ym2612"
    },
    {
      "channel": 1,
      "note": 41,
      "start": 29.1212,
      "duration": 0.0101,
      "velocity": 115,
      "chip": "ym2612"
    },
    {
      "channel": 0,
      "note": 78,
      "start": 29.1815,
      "duration": 0.0022,
      "velocity": 111,
      "chip": "ym2612"
    },
    {
      "channel": 1,
      "note": 41,
      "start": 29.1818,
      "duration": 0.1347,
      "velocity": 115,
      "chip": "ym2612"
    },
    {
      "channel": 2,
      "note": 90,
      "start": 29.1825,
      "duration": 0.0124,
      "velocity": 95,
      "chip": "ym2612"
    },
    {
      "channel": 3,
      "note": 86,
      "start": 29.1826,
      "duration": 0.0124,
      "velocity": 95,
      "chip": "ym2612"
    },
    {
      "channel": 4,
      "note": 83,
      "start": 29.1827,
      "duration": 0.0124,
      "velocity": 95,
      "chip": "ym2612"
    },
    {
      "channel": 0,
      "note": 79,
      "start": 29.1844,
      "duration": 0.0102,
      "velocity": 111,
      "chip": "ym2612"
    },
    {
      "channel": 0,
      "note": 80,
      "start": 29.2449,
      "duration": 0.0713,
      "velocity": 111,
      "chip": "ym2612"
    },
    {
      "channel": 2,
      "note": 90,
      "start": 29.2456,
      "duration": 0.071,
      "velocity": 95,
      "chip": "ym2612"
    },
    {
      "channel": 3,
      "note": 86,
      "start": 29.2456,
      "duration": 0.071,
      "velocity": 95,
      "chip": "ym2612"
    },
    {
      "channel": 4,
      "note": 83,
      "start": 29.2457,
      "duration": 0.071,
      "velocity": 95,
      "chip": "ym2612"
    },
    {
      "channel": 0,
      "note": 79,
      "start": 29.3665,
      "duration": 0.3561,
      "velocity": 111,
      "chip": "ym2612"
    },
    {
      "channel": 1,
      "note": 35,
      "start": 29.3668,
      "duration": 0.0684,
      "velocity": 115,
      "chip": "ym2612"
    },
    {
      "channel": 2,
      "note": 66,
      "start": 29.3734,
      "duration": 0.062,
      "velocity": 119,
      "chip": "ym2612"
    },
    {
      "channel": 3,
      "note": 59,
      "start": 29.3735,
      "duration": 0.0619,
      "velocity": 119,
      "chip": "ym2612"
    },
    {
      "channel": 4,
      "note": 62,
      "start": 29.3736,
      "duration": 0.0619,
      "velocity": 119,
      "chip": "ym2612"
    },
    {
      "channel": 1,
      "note": 35,
      "start": 29.4855,
      "duration": 0.1287,
      "velocity": 115,
      "chip": "ym2612"
    },
    {
      "channel": 2,
      "note": 66,
      "start": 29.4861,
      "duration": 0.0105,
      "velocity": 119,
      "chip": "ym2612"
    },
    {
      "channel": 3,
      "note": 59,
      "start": 29.4862,
      "duration": 0.0104,
      "velocity": 119,
      "chip": "ym2612"
    },
    {
      "channel": 4,
      "note": 62,
      "start": 29.4863,
      "duration": 0.0104,
      "velocity": 119,
      "chip": "ym2612"
    },
    {
      "channel": 2,
      "note": 66,
      "start": 29.5474,
      "duration": 0.0044,
      "velocity": 119,
      "chip": "ym2612"
    },
    {
      "channel": 3,
      "note": 59,
      "start": 29.5474,
      "duration": 0.0043,
      "velocity": 119,
      "chip": "ym2612"
    },
    {
      "channel": 4,
      "note": 62,
      "start": 29.5475,
      "duration": 0.0043,
      "velocity": 119,
      "chip": "ym2612"
    },
    {
      "channel": 1,
      "note": 41,
      "start": 29.6646,
      "duration": 0.1771,
      "velocity": 115,
      "chip": "ym2612"
    },
    {
      "channel": 2,
      "note": 90,
      "start": 29.7798,
      "duration": 0.062,
      "velocity": 95,
      "chip": "ym2612"
    },
    {
      "channel": 3,
      "note": 86,
      "start": 29.7799,
      "duration": 0.062,
      "velocity": 95,
      "chip": "ym2612"
    },
    {
      "channel": 4,
      "note": 83,
      "start": 29.7799,
      "duration": 0.062,
      "velocity": 95,
      "chip": "ym2612"
    },
    {
      "channel": 1,
      "note": 41,
      "start": 29.8919,
      "duration": 0.0654,
      "velocity": 115,
      "chip": "ym2612"
    },
    {
      "channel": 2,
      "note": 90,
      "start": 29.8926,
      "duration": 0.0648,
      "velocity": 95,
      "chip": "ym2612"
    },
    {
      "channel": 3,
      "note": 86,
      "start": 29.8927,
      "duration": 0.0648,
      "velocity": 95,
      "chip": "ym2612"
    },
    {
      "channel": 4,
      "note": 83,
      "start": 29.8928,
      "duration": 0.0648,
      "velocity": 95,
      "chip": "ym2612"
    },
    {
      "channel": 0,
      "note": 82,
      "start": 30.0073,
      "duration": 0.0022,
      "velocity": 111,
      "chip": "ym2612"
    },
    {
      "channel": 1,
      "note": 41,
      "start": 30.0076,
      "duration": 0.0021,
      "velocity": 115,
      "chip": "ym2612"
    },
    {
      "channel": 2,
      "note": 90,
      "start": 30.0083,
      "duration": 0.0127,
      "velocity": 95,
      "chip": "ym2612"
    },
    {
      "channel": 3,
      "note": 86,
      "start": 30.0084,
      "duration": 0.0127,
      "velocity": 95,
      "chip": "ym2612"
    },
    {
      "channel": 4,
      "note": 83,
      "start": 30.0085,
      "duration": 0.0127,
      "velocity": 95,
      "chip": "ym2612"
    },
    {
      "channel": 0,
      "note": 81,
      "start": 30.0104,
      "duration": 0.0103,
      "velocity": 111,
      "chip": "ym2612"
    },
    {
      "channel": 1,
      "note": 41,
      "start": 30.0107,
      "duration": 0.1256,
      "velocity": 115,
      "chip": "ym2612"
    },
    {
      "channel": 0,
      "note": 82,
      "start": 30.071,
      "duration": 0.065,
      "velocity": 111,
      "chip": "ym2612"
    },
    {
      "channel": 2,
      "note": 90,
      "start": 30.0717,
      "duration": 0.0647,
      "velocity": 95,
      "chip": "ym2612"
    },
    {
      "channel": 3,
      "note": 86,
      "start": 30.0718,
      "duration": 0.0647,
      "velocity": 95,
      "chip": "ym2612"
    },
    {
      "channel": 4,
      "note": 83,
      "start": 30.0719,
      "duration": 0.0647,
      "velocity": 95,
      "chip": "ym2612"
    },
    {
      "channel": 0,
      "note": 84,
      "start": 30.1864,
      "duration": 0.6,
      "velocity": 111,
      "chip": "ym2612"
    },
    {
      "channel": 1,
      "note": 36,
      "start": 30.1868,
      "duration": 0.0687,
      "velocity": 115,
      "chip": "ym2612"
    },
    {
      "channel": 2,
      "note": 60,
      "start": 30.1936,
      "duration": 0.062,
      "velocity": 119,
      "chip": "ym2612"
    },
    {
      "channel": 3,
      "note": 67,
      "start": 30.1937,
      "duration": 0.062,
      "velocity": 119,
      "chip": "ym2612"
    },
    {
      "channel": 4,
      "note": 63,
      "start": 30.1937,
      "duration": 0.062,
      "velocity": 119,
      "chip": "ym2612"
    },
    {
      "channel": 1,
      "note": 36,
      "start": 30.3058,
      "duration": 0.1288,
      "velocity": 115,
      "chip": "ym2612"
    },
    {
      "channel": 2,
      "note": 60,
      "start": 30.3065,
      "duration": 0.0043,
      "velocity": 119,
      "chip": "ym2612"
    },
    {
      "channel": 3,
      "note": 67,
      "start": 30.3066,
      "duration": 0.0043,
      "velocity": 119,
      "chip": "ym2612"
    },
    {
      "channel": 4,
      "note": 63,
      "start": 30.3066,
      "duration": 0.0043,
      "velocity": 119,
      "chip": "ym2612"
    },
    {
      "channel": 2,
      "note": 60,
      "start": 30.3615,
      "duration": 0.0107,
      "velocity": 119,
      "chip": "ym2612"
    },
    {
      "channel": 3,
      "note": 67,
      "start": 30.3615,
      "duration": 0.0106,
      "velocity": 119,
      "chip": "ym2612"
    },
    {
      "channel": 4,
      "note": 63,
      "start": 30.3616,
      "duration": 0.0106,
      "velocity": 119,
      "chip": "ym2612"
    },
    {
      "channel": 1,
      "note": 43,
      "start": 30.485,
      "duration": 0.1255,
      "velocity": 115,
      "chip": "ym2612"
    },
    {
      "channel": 2,
      "note": 91,
      "start": 30.6,
      "duration": 0.0711,
      "velocity": 119,
      "chip": "ym2612"
    },
    {
      "channel": 3,
      "note": 84,
      "start": 30.6001,
      "duration": 0.0711,
      "velocity": 119,
      "chip": "ym2612"
    },
    {
      "channel": 4,
      "note": 87,
      "start": 30.6002,
      "duration": 0.071,
      "velocity": 119,
      "chip": "ym2612"
    },
    {
      "channel": 1,
      "note": 43,
      "start": 30.6607,
      "duration": 0.0653,
      "velocity": 115,
      "chip": "ym2612"
    },
    {
      "channel": 2,
      "note": 91,
      "start": 30.7219,
      "duration": 0.0649,
      "velocity": 119,
      "chip": "ym2612"
    },
    {
      "channel": 3,
      "note": 84,
      "start": 30.7219,
      "duration": 0.0649,
      "velocity": 119,
      "chip": "ym2612"
    },
    {
      "channel": 4,
      "note": 87,
      "start": 30.722,
      "duration": 0.0649,
      "velocity": 119,
      "chip": "ym2612"
    },
    {
      "channel": 1,
      "note": 43,
      "start": 30.7763,
      "duration": 0.0104,
      "velocity": 115,
      "chip": "ym2612"
    },
    {
      "channel": 1,
      "note": 43,
      "start": 30.8368,
      "duration": 0.1345,
      "velocity": 115,
      "chip": "ym2612"
    },
    {
      "channel": 2,
      "note": 91,
      "start": 30.8376,
      "duration": 0.0121,
      "velocity": 119,
      "chip": "ym2612"
    },
    {
      "channel": 3,
      "note": 84,
      "start": 30.8376,
      "duration": 0.0121,
      "velocity": 119,
      "chip": "ym2612"
    },
    {
      "channel": 4,
      "note": 87,
      "start": 30.8377,
      "duration": 0.0121,
      "velocity": 119,
      "chip": "ym2612"
    },
    {
      "channel": 2,
      "note": 91,
      "start": 30.9004,
      "duration": 0.0711,
      "velocity": 119,
      "chip": "ym2612"
    },
    {
      "channel": 3,
      "note": 84,
      "start": 30.9004,
      "duration": 0.0711,
      "velocity": 119,
      "chip": "ym2612"
    },
    {
      "channel": 4,
      "note": 87,
      "start": 30.9005,
      "duration": 0.071,
      "velocity": 119,
      "chip": "ym2612"
    },
    {
      "channel": 0,
      "note": 87,
      "start": 31.0214,
      "duration": 0.008,
      "velocity": 111,
      "chip": "ym2612"
    },
    {
      "channel": 1,
      "note": 36,
      "start": 31.0217,
      "duration": 0.0685,
      "velocity": 115,
      "chip": "ym2612"
    },
    {
      "channel": 2,
      "note": 60,
      "start": 31.0281,
      "duration": 0.0622,
      "velocity": 119,
      "chip": "ym2612"
    },
    {
      "channel": 3,
      "note": 67,
      "start": 31.0282,
      "duration": 0.0622,
      "velocity": 119,
      "chip": "ym2612"
    },
    {
      "channel": 4,
      "note": 63,
      "start": 31.0283,
      "duration": 0.0622,
      "velocity": 119,
      "chip": "ym2612"
    },
    {
      "channel": 0,
      "note": 84,
      "start": 31.0797,
      "duration": 0.0102,
      "velocity": 111,
      "chip": "ym2612"
    },
    {
      "channel": 0,
      "note": 87,
      "start": 31.1402,
      "duration": 0.0112,
      "velocity": 111,
      "chip": "ym2612"
    },
    {
      "channel": 1,
      "note": 36,
      "start": 31.1405,
      "duration": 0.1287,
      "velocity": 115,
      "chip": "ym2612"
    },
    {
      "channel": 2,
      "note": 60,
      "start": 31.1412,
      "duration": 0.0105,
      "velocity": 119,
      "chip": "ym2612"
    },
    {
      "channel": 3,
      "note": 67,
      "start": 31.1413,
      "duration": 0.0105,
      "velocity": 119,
      "chip": "ym2612"
    },
    {
      "channel": 4,
      "note": 63,
      "start": 31.1414,
      "duration": 0.0105,
      "velocity": 119,
      "chip": "ym2612"
    },
    {
      "channel": 0,
      "note": 91,
      "start": 31.2017,
      "duration": 0.0046,
      "velocity": 111,
      "chip": "ym2612"
    },
    {
      "channel": 2,
      "note": 60,
      "start": 31.2024,
      "duration": 0.0043,
      "velocity": 119,
      "chip": "ym2612"
    },
    {
      "channel": 3,
      "note": 67,
      "start": 31.2024,
      "duration": 0.0043,
      "velocity": 119,
      "chip": "ym2612"
    },
    {
      "channel": 4,
      "note": 63,
      "start": 31.2024,
      "duration": 0.0044,
      "velocity": 119,
      "chip": "ym2612"
    },
    {
      "channel": 0,
      "note": 87,
      "start": 31.2566,
      "duration": 0.0124,
      "velocity": 111,
      "chip": "ym2612"
    },
    {
      "channel": 0,
      "note": 89,
      "start": 31.3193,
      "duration": 0.004,
      "velocity": 111,
      "chip": "ym2612"
    },
    {
      "channel": 1,
      "note": 43,
      "start": 31.3196,
      "duration": 0.1192,
      "velocity": 115,
      "chip": "ym2612"
    },
    {
      "channel": 0,
      "note": 87,
      "start": 31.3736,
      "duration": 0.2351,
      "velocity": 111,
      "chip": "ym2612"
    },
    {
      "channel": 2,
      "note": 91,
      "start": 31.4283,
      "duration": 0.0649,
      "velocity": 119,
      "chip": "ym2612"
    },
    {
      "channel": 3,
      "note": 84,
      "start": 31.4284,
      "duration": 0.0649,
      "velocity": 119,
      "chip": "ym2612"
    },
    {
      "channel": 4,
      "note": 87,
      "start": 31.4284,
      "duration": 0.0649,
      "velocity": 119,
      "chip": "ym2612"
    },
    {
      "channel": 1,
      "note": 43,
      "start": 31.4892,
      "duration": 0.0654,
      "velocity": 115,
      "chip": "ym2612"
    },
    {
      "channel": 2,
      "note": 91,
      "start": 31.5439,
      "duration": 0.0652,
      "velocity": 119,
      "chip": "ym2612"
    },
    {
      "channel": 3,
      "note": 84,
      "start": 31.544,
      "duration": 0.0652,
      "velocity": 119,
      "chip": "ym2612"
    },
    {
      "channel": 4,
      "note": 87,
      "start": 31.5441,
      "duration": 0.0652,
      "velocity": 119,
      "chip": "ym2612"
    },
    {
      "channel": 1,
      "note": 43,
      "start": 31.6049,
      "duration": 0.0041,
      "velocity": 115,
      "chip": "ym2612"
    },
    {
      "channel": 0,
      "note": 84,
      "start": 31.659,
      "duration": 0.1281,
      "velocity": 111,
      "chip": "ym2612"
    },
    {
      "channel": 1,
      "note": 36,
      "start": 31.6592,
      "duration": 0.0126,
      "velocity": 115,
      "chip": "ym2612"
    },
    {
      "channel": 2,
      "note": 91,
      "start": 31.6598,
      "duration": 0.012,
      "velocity": 119,
      "chip": "ym2612"
    },
    {
      "channel": 3,
      "note": 84,
      "start": 31.6599,
      "duration": 0.0121,
      "velocity": 119,
      "chip": "ym2612"
    },
    {
      "channel": 4,
      "note": 87,
      "start": 31.66,
      "duration": 0.0121,
      "velocity": 119,
      "chip": "ym2612"
    },
    {
      "channel": 1,
      "note": 39,
      "start": 31.7222,
      "duration": 0.0652,
      "velocity": 115,
      "chip": "ym2612"
    },
    {
      "channel": 2,
      "note": 91,
      "start": 31.7227,
      "duration": 0.0647,
      "velocity": 119,
      "chip": "ym2612"
    },
    {
      "channel": 3,
      "note": 84,
      "start": 31.7229,
      "duration": 0.0647,
      "velocity": 119,
      "chip": "ym2612"
    },
    {
      "channel": 4,
      "note": 87,
      "start": 31.7229,
      "duration": 0.0647,
      "velocity": 119,
      "chip": "ym2612"
    },
    {
      "channel": 0,
      "note": 77,
      "start": 31.8374,
      "duration": 0.5998,
      "velocity": 111,
      "chip": "ym2612"
    },
    {
      "channel": 1,
      "note": 35,
      "start": 31.8377,
      "duration": 0.068,
      "velocity": 115,
      "chip": "ym2612"
    },
    {
      "channel": 2,
      "note": 66,
      "start": 31.8441,
      "duration": 0.0617,
      "velocity": 119,
      "chip": "ym2612"
    },
    {
      "channel": 3,
      "note": 59,
      "start": 31.8442,
      "duration": 0.0617,
      "velocity": 119,
      "chip": "ym2612"
    },
    {
      "channel": 4,
      "note": 62,
      "start": 31.8443,
      "duration": 0.0617,
      "velocity": 119,
      "chip": "ym2612"
    },
    {
      "channel": 1,
      "note": 35,
      "start": 31.9561,
      "duration": 0.1274,
      "velocity": 115,
      "chip": "ym2612"
    },
    {
      "channel": 2,
      "note": 66,
      "start": 31.9569,
      "duration": 0.0038,
      "velocity": 119,
      "chip": "ym2612"
    },
    {
      "channel": 3,
      "note": 59,
      "start": 31.957,
      "duration": 0.0038,
      "velocity": 119,
      "chip": "ym2612"
    },
    {
      "channel": 4,
      "note": 62,
      "start": 31.9571,
      "duration": 0.0038,
      "velocity": 119,
      "chip": "ym2612"
    },
    {
      "channel": 2,
      "note": 66,
      "start": 32.0113,
      "duration": 0.0104,
      "velocity": 119,
      "chip": "ym2612"
    },
    {
      "channel": 3,
      "note": 59,
      "start": 32.0114,
      "duration": 0.0104,
      "velocity": 119,
      "chip": "ym2612"
    },
    {
      "channel": 4,
      "note": 62,
      "start": 32.0115,
      "duration": 0.0104,
      "velocity": 119,
      "chip": "ym2612"
    },
    {
      "channel": 1,
      "note": 41,
      "start": 32.1339,
      "duration": 0.1281,
      "velocity": 115,
      "chip": "ym2612"
    },
    {
      "channel": 2,
      "note": 90,
      "start": 32.2544,
      "duration": 0.068,
      "velocity": 95,
      "chip": "ym2612"
    },
    {
      "channel": 3,
      "note": 86,
      "start": 32.2544,
      "duration": 0.068,
      "velocity": 95,
      "chip": "ym2612"
    },
    {
      "channel": 4,
      "note": 83,
      "start": 32.2545,
      "duration": 0.068,
      "velocity": 95,
      "chip": "ym2612"
    },
    {
      "channel": 1,
      "note": 41,
      "start": 32.3122,
      "duration": 0.0647,
      "velocity": 115,
      "chip": "ym2612"
    },
    {
      "channel": 2,
      "note": 90,
      "start": 32.3731,
      "duration": 0.0644,
      "velocity": 95,
      "chip": "ym2612"
    },
    {
      "channel": 3,
      "note": 86,
      "start": 32.3732,
      "duration": 0.0644,
      "velocity": 95,
      "chip": "ym2612"
    },
    {
      "channel": 4,
      "note": 83,
      "start": 32.3732,
      "duration": 0.0644,
      "velocity": 95,
      "chip": "ym2612"
    },
    {
      "channel": 1,
      "note": 41,
      "start": 32.4272,
      "duration": 0.0101,
      "velocity": 115,
      "chip": "ym2612"
    },
    {
      "channel": 0,
      "note": 78,
      "start": 32.4876,
      "duration": 0.0022,
      "velocity": 111,
      "chip": "ym2612"
    },
    {
      "channel": 1,
      "note": 41,
      "start": 32.4878,
      "duration": 0.1347,
      "velocity": 115,
      "chip": "ym2612"
    },
    {
      "channel": 2,
      "note": 90,
      "start": 32.4885,
      "duration": 0.0124,
      "velocity": 95,
      "chip": "ym2612"
    },
    {
      "channel": 3,
      "note": 86,
      "start": 32.4886,
      "duration": 0.0124,
      "velocity": 95,
      "chip": "ym2612"
    },
    {
      "channel": 4,
      "note": 83,
      "start": 32.4887,
      "duration": 0.0124,
      "velocity": 95,
      "chip": "ym2612"
    },
    {
      "channel": 0,
      "note": 79,
      "start": 32.4905,
      "duration": 0.0102,
      "velocity": 111,
      "chip": "ym2612"
    },
    {
      "channel": 0,
      "note": 80,
      "start": 32.5509,
      "duration": 0.0713,
      "velocity": 111,
      "chip": "ym2612"
    },
    {
      "channel": 2,
      "note": 90,
      "start": 32.5516,
      "duration": 0.071,
      "velocity": 95,
      "chip": "ym2612"
    },
    {
      "channel": 3,
      "note": 86,
      "start": 32.5517,
      "duration": 0.071,
      "velocity": 95,
      "chip": "ym2612"
    },
    {
      "channel": 4,
      "note": 83,
      "start": 32.5517,
      "duration": 0.071,
      "velocity": 95,
      "chip": "ym2612"
    },
    {
      "channel": 0,
      "note": 79,
      "start": 32.6726,
      "duration": 0.5901,
      "velocity": 111,
      "chip": "ym2612"
    },
    {
      "channel": 1,
      "note": 35,
      "start": 32.6728,
      "duration": 0.0684,
      "velocity": 115,
      "chip": "ym2612"
    },
    {
      "channel": 2,
      "note": 66,
      "start": 32.6794,
      "duration": 0.062,
      "velocity": 119,
      "chip": "ym2612"
    },
    {
      "channel": 3,
      "note": 59,
      "start": 32.6796,
      "duration": 0.0619,
      "velocity": 119,
      "chip": "ym2612"
    },
    {
      "channel": 4,
      "note": 62,
      "start": 32.6796,
      "duration": 0.0619,
      "velocity": 119,
      "chip": "ym2612"
    },
    {
      "channel": 1,
      "note": 35,
      "start": 32.7915,
      "duration": 0.1287,
      "velocity": 115,
      "chip": "ym2612"
    },
    {
      "channel": 2,
      "note": 66,
      "start": 32.7922,
      "duration": 0.0105,
      "velocity": 119,
      "chip": "ym2612"
    },
    {
      "channel": 3,
      "note": 59,
      "start": 32.7923,
      "duration": 0.0104,
      "velocity": 119,
      "chip": "ym2612"
    },
    {
      "channel": 4,
      "note": 62,
      "start": 32.7923,
      "duration": 0.0104,
      "velocity": 119,
      "chip": "ym2612"
    },
    {
      "channel": 2,
      "note": 66,
      "start": 32.8534,
      "duration": 0.0044,
      "velocity": 119,
      "chip": "ym2612"
    },
    {
      "channel": 3,
      "note": 59,
      "start": 32.8535,
      "duration": 0.0043,
      "velocity": 119,
      "chip": "ym2612"
    },
    {
      "channel": 4,
      "note": 62,
      "start": 32.8535,
      "duration": 0.0043,
      "velocity": 119,
      "chip": "ym2612"
    },
    {
      "channel": 1,
      "note": 41,
      "start": 32.9706,
      "duration": 0.1225,
      "velocity": 115,
      "chip": "ym2612"
    },
    {
      "channel": 2,
      "note": 90,
      "start": 33.0853,
      "duration": 0.0622,
      "velocity": 95,
      "chip": "ym2612"
    },
    {
      "channel": 3,
      "note": 86,
      "start": 33.0854,
      "duration": 0.0622,
      "velocity": 95,
      "chip": "ym2612"
    },
    {
      "channel": 4,
      "note": 83,
      "start": 33.0854,
      "duration": 0.0622,
      "velocity": 95,
      "chip": "ym2612"
    },
    {
      "channel": 1,
      "note": 41,
      "start": 33.1434,
      "duration": 0.0651,
      "velocity": 115,
      "chip": "ym2612"
    },
    {
      "channel": 2,
      "note": 90,
      "start": 33.1981,
      "duration": 0.065,
      "velocity": 95,
      "chip": "ym2612"
    },
    {
      "channel": 3,
      "note": 86,
      "start": 33.1982,
      "duration": 0.065,
      "velocity": 95,
      "chip": "ym2612"
    },
    {
      "channel": 4,
      "note": 83,
      "start": 33.1983,
      "duration": 0.065,
      "velocity": 95,
      "chip": "ym2612"
    },
    {
      "channel": 1,
      "note": 41,
      "start": 33.2589,
      "duration": 0.0041,
      "velocity": 115,
      "chip": "ym2612"
    },
    {
      "channel": 0,
      "note": 82,
      "start": 33.313,
      "duration": 0.0023,
      "velocity": 111,
      "chip": "ym2612"
    },
    {
      "channel": 1,
      "note": 35,
      "start": 33.3133,
      "duration": 0.0133,
      "velocity": 115,
      "chip": "ym2612"
    },
    {
      "channel": 2,
      "note": 90,
      "start": 33.3141,
      "duration": 0.0125,
      "velocity": 95,
      "chip": "ym2612"
    },
    {
      "channel": 3,
      "note": 86,
      "start": 33.3142,
      "duration": 0.0125,
      "velocity": 95,
      "chip": "ym2612"
    },
    {
      "channel": 4,
      "note": 83,
      "start": 33.3143,
      "duration": 0.0125,
      "velocity": 95,
      "chip": "ym2612"
    },
    {
      "channel": 0,
      "note": 81,
      "start": 33.3161,
      "duration": 0.0102,
      "velocity": 111,
      "chip": "ym2612"
    },
    {
      "channel": 0,
      "note": 80,
      "start": 33.3766,
      "duration": 0.0652,
      "velocity": 111,
      "chip": "ym2612"
    },
    {
      "channel": 1,
      "note": 41,
      "start": 33.3769,
      "duration": 0.0652,
      "velocity": 115,
      "chip": "ym2612"
    },
    {
      "channel": 2,
      "note": 90,
      "start": 33.3776,
      "duration": 0.0646,
      "velocity": 95,
      "chip": "ym2612"
    },
    {
      "channel": 3,
      "note": 86,
      "start": 33.3776,
      "duration": 0.0647,
      "velocity": 95,
      "chip": "ym2612"
    },
    {
      "channel": 4,
      "note": 83,
      "start": 33.3776,
      "duration": 0.0647,
      "velocity": 95,
      "chip": "ym2612"
    },
    {
      "channel": 0,
      "note": 79,
      "start": 33.4921,
      "duration": 0.5995,
      "velocity": 111,
      "chip": "ym2612"
    },
    {
      "channel": 1,
      "note": 36,
      "start": 33.4924,
      "duration": 0.0684,
      "velocity": 115,
      "chip": "ym2612"
    },
    {
      "channel": 2,
      "note": 60,
      "start": 33.499,
      "duration": 0.0619,
      "velocity": 119,
      "chip": "ym2612"
    },
    {
      "channel": 3,
      "note": 67,
      "start": 33.4992,
      "duration": 0.0618,
      "velocity": 119,
      "chip": "ym2612"
    },
    {
      "channel": 4,
      "note": 63,
      "start": 33.4992,
      "duration": 0.0619,
      "velocity": 119,
      "chip": "ym2612"
    },
    {
      "channel": 1,
      "note": 36,
      "start": 33.6113,
      "duration": 0.1286,
      "velocity": 115,
      "chip": "ym2612"
    },
    {
      "channel": 2,
      "note": 60,
      "start": 33.6119,
      "duration": 0.0042,
      "velocity": 119,
      "chip": "ym2612"
    },
    {
      "channel": 3,
      "note": 67,
      "start": 33.612,
      "duration": 0.0041,
      "velocity": 119,
      "chip": "ym2612"
    },
    {
      "channel": 4,
      "note": 63,
      "start": 33.612,
      "duration": 0.0041,
      "velocity": 119,
      "chip": "ym2612"
    },
    {
      "channel": 2,
      "note": 60,
      "start": 33.6667,
      "duration": 0.0107,
      "velocity": 119,
      "chip": "ym2612"
    },
    {
      "channel": 3,
      "note": 67,
      "start": 33.6668,
      "duration": 0.0106,
      "velocity": 119,
      "chip": "ym2612"
    },
    {
      "channel": 4,
      "note": 63,
      "start": 33.6669,
      "duration": 0.0106,
      "velocity": 119,
      "chip": "ym2612"
    },
    {
      "channel": 1,
      "note": 43,
      "start": 33.7903,
      "duration": 0.1255,
      "velocity": 115,
      "chip": "ym2612"
    },
    {
      "channel": 2,
      "note": 91,
      "start": 33.9053,
      "duration": 0.0711,
      "velocity": 119,
      "chip": "ym2612"
    },
    {
      "channel": 3,
      "note": 84,
      "start": 33.9054,
      "duration": 0.0711,
      "velocity": 119,
      "chip": "ym2612"
    },
    {
      "channel": 4,
      "note": 87,
      "start": 33.9054,
      "duration": 0.071,
      "velocity": 119,
      "chip": "ym2612"
    },
    {
      "channel": 1,
      "note": 43,
      "start": 33.966,
      "duration": 0.0653,
      "velocity": 115,
      "chip": "ym2612"
    },
    {
      "channel": 2,
      "note": 91,
      "start": 34.0271,
      "duration": 0.0649,
      "velocity": 119,
      "chip": "ym2612"
    },
    {
      "channel": 3,
      "note": 84,
      "start": 34.0272,
      "duration": 0.0649,
      "velocity": 119,
      "chip": "ym2612"
    },
    {
      "channel": 4,
      "note": 87,
      "start": 34.0273,
      "duration": 0.0649,
      "velocity": 119,
      "chip": "ym2612"
    },
    {
      "channel": 1,
      "note": 43,
      "start": 34.0816,
      "duration": 0.0104,
      "velocity": 115,
      "chip": "ym2612"
    },
    {
      "channel": 1,
      "note": 43,
      "start": 34.1421,
      "duration": 0.1345,
      "velocity": 115,
      "chip": "ym2612"
    },
    {
      "channel": 2,
      "note": 91,
      "start": 34.1429,
      "duration": 0.0121,
      "velocity": 119,
      "chip": "ym2612"
    },
    {
      "channel": 3,
      "note": 84,
      "start": 34.1429,
      "duration": 0.0121,
      "velocity": 119,
      "chip": "ym2612"
    },
    {
      "channel": 4,
      "note": 87,
      "start": 34.143,
      "duration": 0.0121,
      "velocity": 119,
      "chip": "ym2612"
    },
    {
      "channel": 2,
      "note": 91,
      "start": 34.2056,
      "duration": 0.0711,
      "velocity": 119,
      "chip": "ym2612"
    },
    {
      "channel": 3,
      "note": 84,
      "start": 34.2057,
      "duration": 0.0711,
      "velocity": 119,
      "chip": "ym2612"
    },
    {
      "channel": 4,
      "note": 87,
      "start": 34.2058,
      "duration": 0.071,
      "velocity": 119,
      "chip": "ym2612"
    },
    {
      "channel": 0,
      "note": 75,
      "start": 34.3267,
      "duration": 0.008,
      "velocity": 111,
      "chip": "ym2612"
    },
    {
      "channel": 1,
      "note": 36,
      "start": 34.327,
      "duration": 0.0685,
      "velocity": 115,
      "chip": "ym2612"
    },
    {
      "channel": 2,
      "note": 60,
      "start": 34.3334,
      "duration": 0.0622,
      "velocity": 119,
      "chip": "ym2612"
    },
    {
      "channel": 3,
      "note": 67,
      "start": 34.3335,
      "duration": 0.0622,
      "velocity": 119,
      "chip": "ym2612"
    },
    {
      "channel": 4,
      "note": 63,
      "start": 34.3335,
      "duration": 0.0622,
      "velocity": 119,
      "chip": "ym2612"
    },
    {
      "channel": 0,
      "note": 72,
      "start": 34.385,
      "duration": 0.0102,
      "velocity": 111,
      "chip": "ym2612"
    },
    {
      "channel": 0,
      "note": 75,
      "start": 34.4454,
      "duration": 0.0112,
      "velocity": 111,
      "chip": "ym2612"
    },
    {
      "channel": 1,
      "note": 36,
      "start": 34.4458,
      "duration": 0.1287,
      "velocity": 115,
      "chip": "ym2612"
    },
    {
      "channel": 2,
      "note": 60,
      "start": 34.4465,
      "duration": 0.0105,
      "velocity": 119,
      "chip": "ym2612"
    },
    {
      "channel": 3,
      "note": 67,
      "start": 34.4466,
      "duration": 0.0105,
      "velocity": 119,
      "chip": "ym2612"
    },
    {
      "channel": 4,
      "note": 63,
      "start": 34.4467,
      "duration": 0.0105,
      "velocity": 119,
      "chip": "ym2612"
    },
    {
      "channel": 0,
      "note": 79,
      "start": 34.5069,
      "duration": 0.0046,
      "velocity": 111,
      "chip": "ym2612"
    },
    {
      "channel": 2,
      "note": 60,
      "start": 34.5077,
      "duration": 0.0043,
      "velocity": 119,
      "chip": "ym2612"
    },
    {
      "channel": 3,
      "note": 67,
      "start": 34.5077,
      "duration": 0.0043,
      "velocity": 119,
      "chip": "ym2612"
    },
    {
      "channel": 4,
      "note": 63,
      "start": 34.5077,
      "duration": 0.0044,
      "velocity": 119,
      "chip": "ym2612"
    },
    {
      "channel": 0,
      "note": 75,
      "start": 34.5619,
      "duration": 0.001,
      "velocity": 111,
      "chip": "ym2612"
    },
    {
      "channel": 0,
      "note": 79,
      "start": 34.5641,
      "duration": 0.0101,
      "velocity": 111,
      "chip": "ym2612"
    },
    {
      "channel": 0,
      "note": 77,
      "start": 34.6245,
      "duration": 0.0041,
      "velocity": 111,
      "chip": "ym2612"
    },
    {
      "channel": 1,
      "note": 43,
      "start": 34.6249,
      "duration": 0.1737,
      "velocity": 115,
      "chip": "ym2612"
    },
    {
      "channel": 0,
      "note": 77,
      "start": 34.6789,
      "duration": 0.0039,
      "velocity": 111,
      "chip": "ym2612"
    },
    {
      "channel": 0,
      "note": 79,
      "start": 34.7331,
      "duration": 0.1809,
      "velocity": 111,
      "chip": "ym2612"
    },
    {
      "channel": 2,
      "note": 91,
      "start": 34.7338,
      "duration": 0.0649,
      "velocity": 119,
      "chip": "ym2612"
    },
    {
      "channel": 3,
      "note": 84,
      "start": 34.7339,
      "duration": 0.0649,
      "velocity": 119,
      "chip": "ym2612"
    },
    {
      "channel": 4,
      "note": 87,
      "start": 34.734,
      "duration": 0.0648,
      "velocity": 119,
      "chip": "ym2612"
    },
    {
      "channel": 1,
      "note": 43,
      "start": 34.8488,
      "duration": 0.0656,
      "velocity": 115,
      "chip": "ym2612"
    },
    {
      "channel": 2,
      "note": 91,
      "start": 34.8496,
      "duration": 0.0649,
      "velocity": 119,
      "chip": "ym2612"
    },
    {
      "channel": 3,
      "note": 84,
      "start": 34.8496,
      "duration": 0.0649,
      "velocity": 119,
      "chip": "ym2612"
    },
    {
      "channel": 4,
      "note": 87,
      "start": 34.8498,
      "duration": 0.0649,
      "velocity": 119,
      "chip": "ym2612"
    },
    {
      "channel": 0,
      "note": 77,
      "start": 34.9643,
      "duration": 0.0665,
      "velocity": 111,
      "chip": "ym2612"
    },
    {
      "channel": 1,
      "note": 43,
      "start": 34.9646,
      "duration": 0.0019,
      "velocity": 115,
      "chip": "ym2612"
    },
    {
      "channel": 2,
      "note": 91,
      "start": 34.9654,
      "duration": 0.0124,
      "velocity": 119,
      "chip": "ym2612"
    },
    {
      "channel": 3,
      "note": 84,
      "start": 34.9655,
      "duration": 0.0124,
      "velocity": 119,
      "chip": "ym2612"
    },
    {
      "channel": 4,
      "note": 87,
      "start": 34.9655,
      "duration": 0.0124,
      "velocity": 119,
      "chip": "ym2612"
    },
    {
      "channel": 1,
      "note": 36,
      "start": 34.9674,
      "duration": 0.0103,
      "velocity": 115,
      "chip": "ym2612"
    },
    {
      "channel": 1,
      "note": 43,
      "start": 35.0279,
      "duration": 0.0031,
      "velocity": 115,
      "chip": "ym2612"
    },
    {
      "channel": 2,
      "note": 91,
      "start": 35.0286,
      "duration": 0.0026,
      "velocity": 119,
      "chip": "ym2612"
    },
    {
      "channel": 3,
      "note": 84,
      "start": 35.0286,
      "duration": 0.0027,
      "velocity": 119,
      "chip": "ym2612"
    },
    {
      "channel": 4,
      "note": 87,
      "start": 35.0286,
      "duration": 0.0027,
      "velocity": 119,
      "chip": "ym2612"
    },
    {
      "channel": 0,
      "note": 80,
      "start": 35.0324,
      "duration": 0.0682,
      "velocity": 111,
      "chip": "ym2612"
    },
    {
      "channel": 1,
      "note": 41,
      "start": 35.0327,
      "duration": 0.0682,
      "velocity": 115,
      "chip": "ym2612"
    },
    {
      "channel": 2,
      "note": 68,
      "start": 35.0392,
      "duration": 0.0619,
      "velocity": 111,
      "chip": "ym2612"
    },
    {
      "channel": 3,
      "note": 60,
      "start": 35.0392,
      "duration": 0.0619,
      "velocity": 111,
      "chip": "ym2612"
    },
    {
      "channel": 4,
      "note": 65,
      "start": 35.0393,
      "duration": 0.0619,
      "velocity": 111,
      "chip": "ym2612"
    },
    {
      "channel": 0,
      "note": 77,
      "start": 35.1509,
      "duration": 0.0651,
      "velocity": 111,
      "chip": "ym2612"
    },
    {
      "channel": 1,
      "note": 41,
      "start": 35.1513,
      "duration": 0.065,
      "velocity": 115,
      "chip": "ym2612"
    },
    {
      "channel": 2,
      "note": 68,
      "start": 35.152,
      "duration": 0.0645,
      "velocity": 111,
      "chip": "ym2612"
    },
    {
      "channel": 3,
      "note": 60,
      "start": 35.152,
      "duration": 0.0645,
      "velocity": 111,
      "chip": "ym2612"
    },
    {
      "channel": 4,
      "note": 65,
      "start": 35.1521,
      "duration": 0.0645,
      "velocity": 111,
      "chip": "ym2612"
    },
    {
      "channel": 0,
      "note": 84,
      "start": 35.2663,
      "duration": 0.013,
      "velocity": 111,
      "chip": "ym2612"
    },
    {
      "channel": 1,
      "note": 41,
      "start": 35.2665,
      "duration": 0.013,
      "velocity": 115,
      "chip": "ym2612"
    },
    {
      "channel": 2,
      "note": 68,
      "start": 35.2673,
      "duration": 0.0123,
      "velocity": 111,
      "chip": "ym2612"
    },
    {
      "channel": 3,
      "note": 60,
      "start": 35.2674,
      "duration": 0.0123,
      "velocity": 111,
      "chip": "ym2612"
    },
    {
      "channel": 4,
      "note": 65,
      "start": 35.2675,
      "duration": 0.0123,
      "velocity": 111,
      "chip": "ym2612"
    },
    {
      "channel": 0,
      "note": 80,
      "start": 35.3295,
      "duration": 0.0049,
      "velocity": 111,
      "chip": "ym2612"
    },
    {
      "channel": 1,
      "note": 41,
      "start": 35.3299,
      "duration": 0.0652,
      "velocity": 115,
      "chip": "ym2612"
    },
    {
      "channel": 2,
      "note": 68,
      "start": 35.3305,
      "duration": 0.0648,
      "velocity": 111,
      "chip": "ym2612"
    },
    {
      "channel": 3,
      "note": 60,
      "start": 35.3306,
      "duration": 0.0647,
      "velocity": 111,
      "chip": "ym2612"
    },
    {
      "channel": 4,
      "note": 65,
      "start": 35.3306,
      "duration": 0.0648,
      "velocity": 111,
      "chip": "ym2612"
    },
    {
      "channel": 0,
      "note": 82,
      "start": 35.3848,
      "duration": 0.0652,
      "velocity": 111,
      "chip": "ym2612"
    },
    {
      "channel": 1,
      "note": 40,
      "start": 35.4455,
      "duration": 0.0653,
      "velocity": 115,
      "chip": "ym2612"
    },
    {
      "channel": 2,
      "note": 67,
      "start": 35.4461,
      "duration": 0.0648,
      "velocity": 111,
      "chip": "ym2612"
    },
    {
      "channel": 3,
      "note": 60,
      "start": 35.4462,
      "duration": 0.0648,
      "velocity": 111,
      "chip": "ym2612"
    },
    {
      "channel": 4,
      "note": 64,
      "start": 35.4462,
      "duration": 0.0649,
      "velocity": 111,
      "chip": "ym2612"
    },
    {
      "channel": 0,
      "note": 82,
      "start": 35.5003,
      "duration": 0.0102,
      "velocity": 111,
      "chip": "ym2612"
    },
    {
      "channel": 0,
      "note": 79,
      "start": 35.5609,
      "duration": 0.0652,
      "velocity": 111,
      "chip": "ym2612"
    },
    {
      "channel": 1,
      "note": 40,
      "start": 35.5612,
      "duration": 0.0652,
      "velocity": 115,
      "chip": "ym2612"
    },
    {
      "channel": 2,
      "note": 67,
      "start": 35.5619,
      "duration": 0.0646,
      "velocity": 111,
      "chip": "ym2612"
    },
    {
      "channel": 3,
      "note": 60,
      "start": 35.5619,
      "duration": 0.0647,
      "velocity": 111,
      "chip": "ym2612"
    },
    {
      "channel": 4,
      "note": 64,
      "start": 35.5619,
      "duration": 0.0647,
      "velocity": 111,
      "chip": "ym2612"
    },
    {
      "channel": 0,
      "note": 80,
      "start": 35.6763,
      "duration": 0.013,
      "velocity": 111,
      "chip": "ym2612"
    },
    {
      "channel": 1,
      "note": 40,
      "start": 35.6766,
      "duration": 0.013,
      "velocity": 115,
      "chip": "ym2612"
    },
    {
      "channel": 2,
      "note": 67,
      "start": 35.6774,
      "duration": 0.0123,
      "velocity": 111,
      "chip": "ym2612"
    },
    {
      "channel": 3,
      "note": 60,
      "start": 35.6775,
      "duration": 0.0123,
      "velocity": 111,
      "chip": "ym2612"
    },
    {
      "channel": 4,
      "note": 64,
      "start": 35.6775,
      "duration": 0.0123,
      "velocity": 111,
      "chip": "ym2612"
    },
    {
      "channel": 0,
      "note": 77,
      "start": 35.7396,
      "duration": 0.0653,
      "velocity": 111,
      "chip": "ym2612"
    },
    {
      "channel": 1,
      "note": 40,
      "start": 35.74,
      "duration": 0.0652,
      "velocity": 115,
      "chip": "ym2612"
    },
    {
      "channel": 2,
      "note": 67,
      "start": 35.7408,
      "duration": 0.0645,
      "velocity": 111,
      "chip": "ym2612"
    },
    {
      "channel": 3,
      "note": 60,
      "start": 35.7409,
      "duration": 0.0645,
      "velocity": 111,
      "chip": "ym2612"
    },
    {
      "channel": 4,
      "note": 64,
      "start": 35.7409,
      "duration": 0.0646,
      "velocity": 111,
      "chip": "ym2612"
    },
    {
      "channel": 0,
      "note": 82,
      "start": 35.8553,
      "duration": 0.0651,
      "velocity": 111,
      "chip": "ym2612"
    },
    {
      "channel": 1,
      "note": 39,
      "start": 35.8556,
      "duration": 0.0651,
      "velocity": 115,
      "chip": "ym2612"
    },
    {
      "channel": 2,
      "note": 67,
      "start": 35.8562,
      "duration": 0.0646,
      "velocity": 111,
      "chip": "ym2612"
    },
    {
      "channel": 3,
      "note": 58,
      "start": 35.8563,
      "duration": 0.0646,
      "velocity": 111,
      "chip": "ym2612"
    },
    {
      "channel": 4,
      "note": 63,
      "start": 35.8564,
      "duration": 0.0646,
      "velocity": 111,
      "chip": "ym2612"
    },
    {
      "channel": 0,
      "note": 79,
      "start": 35.9707,
      "duration": 0.0651,
      "velocity": 111,
      "chip": "ym2612"
    },
    {
      "channel": 1,
      "note": 39,
      "start": 35.9711,
      "duration": 0.065,
      "velocity": 115,
      "chip": "ym2612"
    },
    {
      "channel": 2,
      "note": 67,
      "start": 35.9717,
      "duration": 0.0645,
      "velocity": 111,
      "chip": "ym2612"
    },
    {
      "channel": 3,
      "note": 58,
      "start": 35.9718,
      "duration": 0.0645,
      "velocity": 111,
      "chip": "ym2612"
    },
    {
      "channel": 4,
      "note": 63,
      "start": 35.9718,
      "duration": 0.0645,
      "velocity": 111,
      "chip": "ym2612"
    },
    {
      "channel": 0,
      "note": 83,
      "start": 36.086,
      "duration": 0.013,
      "velocity": 111,
      "chip": "ym2612"
    },
    {
      "channel": 1,
      "note": 39,
      "start": 36.0863,
      "duration": 0.013,
      "velocity": 115,
      "chip": "ym2612"
    },
    {
      "channel": 2,
      "note": 67,
      "start": 36.0871,
      "duration": 0.0123,
      "velocity": 111,
      "chip": "ym2612"
    },
    {
      "channel": 3,
      "note": 58,
      "start": 36.0872,
      "duration": 0.0123,
      "velocity": 111,
      "chip": "ym2612"
    },
    {
      "channel": 4,
      "note": 63,
      "start": 36.0872,
      "duration": 0.0123,
      "velocity": 111,
      "chip": "ym2612"
    },
    {
      "channel": 0,
      "note": 79,
      "start": 36.1493,
      "duration": 0.0653,
      "velocity": 111,
      "chip": "ym2612"
    },
    {
      "channel": 1,
      "note": 39,
      "start": 36.1497,
      "duration": 0.0652,
      "velocity": 115,
      "chip": "ym2612"
    },
    {
      "channel": 2,
      "note": 67,
      "start": 36.1505,
      "duration": 0.0645,
      "velocity": 111,
      "chip": "ym2612"
    },
    {
      "channel": 3,
      "note": 58,
      "start": 36.1506,
      "duration": 0.0645,
      "velocity": 111,
      "chip": "ym2612"
    },
    {
      "channel": 4,
      "note": 63,
      "start": 36.1506,
      "duration": 0.0646,
      "velocity": 111,
      "chip": "ym2612"
    },
    {
      "channel": 0,
      "note": 84,
      "start": 36.265,
      "duration": 0.1213,
      "velocity": 111,
      "chip": "ym2612"
    },
    {
      "channel": 1,
      "note": 38,
      "start": 36.2653,
      "duration": 0.0126,
      "velocity": 115,
      "chip": "ym2612"
    },
    {
      "channel": 2,
      "note": 58,
      "start": 36.266,
      "duration": 0.1207,
      "velocity": 111,
      "chip": "ym2612"
    },
    {
      "channel": 3,
      "note": 62,
      "start": 36.266,
      "duration": 0.1207,
      "velocity": 111,
      "chip": "ym2612"
    },
    {
      "channel": 4,
      "note": 65,
      "start": 36.2661,
      "duration": 0.1207,
      "velocity": 111,
      "chip": "ym2612"
    },
    {
      "channel": 1,
      "note": 38,
      "start": 36.3283,
      "duration": 0.0583,
      "velocity": 115,
      "chip": "ym2612"
    },
    {
      "channel": 0,
      "note": 89,
      "start": 36.4365,
      "duration": 0.178,
      "velocity": 111,
      "chip": "ym2612"
    },
    {
      "channel": 1,
      "note": 39,
      "start": 36.4368,
      "duration": 0.0029,
      "velocity": 115,
      "chip": "ym2612"
    },
    {
      "channel": 2,
      "note": 63,
      "start": 36.4377,
      "duration": 0.1773,
      "velocity": 111,
      "chip": "ym2612"
    },
    {
      "channel": 3,
      "note": 58,
      "start": 36.4377,
      "duration": 0.1773,
      "velocity": 111,
      "chip": "ym2612"
    },
    {
      "channel": 4,
      "note": 67,
      "start": 36.4378,
      "duration": 0.1773,
      "velocity": 111,
      "chip": "ym2612"
    },
    {
      "channel": 1,
      "note": 39,
      "start": 36.465,
      "duration": 0.1499,
      "velocity": 115,
      "chip": "ym2612"
    },
    {
      "channel": 0,
      "note": 65,
      "start": 36.667,
      "duration": 0.0099,
      "velocity": 95,
      "chip": "ym2612"
    },
    {
      "channel": 1,
      "note": 41,
      "start": 36.6695,
      "duration": 0.0677,
      "velocity": 115,
      "chip": "ym2612"
    },
    {
      "channel": 2,
      "note": 72,
      "start": 36.6757,
      "duration": 0.0014,
      "velocity": 109,
      "chip": "ym2612"
    },
    {
      "channel": 3,
      "note": 65,
      "start": 36.6757,
      "duration": 0.0014,
      "velocity": 109,
      "chip": "ym2612"
    },
    {
      "channel": 4,
      "note": 68,
      "start": 36.6757,
      "duration": 0.0015,
      "velocity": 109,
      "chip": "ym2612"
    },
    {
      "channel": 0,
      "note": 67,
      "start": 36.7258,
      "duration": 0.0111,
      "velocity": 95,
      "chip": "ym2612"
    },
    {
      "channel": 2,
      "note": 72,
      "start": 36.7266,
      "duration": 0.0107,
      "velocity": 109,
      "chip": "ym2612"
    },
    {
      "channel": 3,
      "note": 65,
      "start": 36.7266,
      "duration": 0.0107,
      "velocity": 109,
      "chip": "ym2612"
    },
    {
      "channel": 4,
      "note": 68,
      "start": 36.7267,
      "duration": 0.0107,
      "velocity": 109,
      "chip": "ym2612"
    },
    {
      "channel": 0,
      "note": 68,
      "start": 36.7871,
      "duration": 0.0042,
      "velocity": 95,
      "chip": "ym2612"
    },
    {
      "channel": 1,
      "note": 41,
      "start": 36.7876,
      "duration": 0.0646,
      "velocity": 115,
      "chip": "ym2612"
    },
    {
      "channel": 0,
      "note": 70,
      "start": 36.8416,
      "duration": 0.0102,
      "velocity": 95,
      "chip": "ym2612"
    }
  ]
}