{
  "track_name": "08 - Venus Stage 2",
  "duration_sec": 127.564,
  "sample_rate": 44100,
  "note_count": 1947,
  "unique_pitches": 23,
  "pitch_range": 56,
  "avg_note_duration": 0.237,
  "reconstruction_stats": {
    "notes_reconstructed": 1947,
    "keyon_events": 1947,
    "keyoff_events": 1944,
    "orphan_keyons": 3,
    "unique_pitches": 23,
    "pitch_range": 56,
    "avg_duration_sec": 0.237
  },
  "metadata": {
    "source": "O\\Ooparts\\08 - Venus Stage 2.vgz"
  },
  "notes": [
    {
      "channel": 0,
      "note": -1,
      "start": 0.0244,
      "duration": 0.2482,
      "velocity": 123,
      "chip": "ym2612"
    },
    {
      "channel": 1,
      "note": -1,
      "start": 0.0248,
      "duration": 0.1232,
      "velocity": 113,
      "chip": "ym2612"
    },
    {
      "channel": 2,
      "note": -1,
      "start": 0.0252,
      "duration": 6.971,
      "velocity": 101,
      "chip": "ym2612"
    },
    {
      "channel": 4,
      "note": -1,
      "start": 0.2107,
      "duration": 6.972,
      "velocity": 101,
      "chip": "ym2612"
    },
    {
      "channel": 0,
      "note": 52,
      "start": 0.2727,
      "duration": 0.249,
      "velocity": 123,
      "chip": "ym2612"
    },
    {
      "channel": 1,
      "note": 57,
      "start": 0.2728,
      "duration": 0.1242,
      "velocity": 113,
      "chip": "ym2612"
    },
    {
      "channel": 0,
      "note": 52,
      "start": 0.5217,
      "duration": 0.249,
      "velocity": 123,
      "chip": "ym2612"
    },
    {
      "channel": 1,
      "note": 57,
      "start": 0.5218,
      "duration": 0.1242,
      "velocity": 113,
      "chip": "ym2612"
    },
    {
      "channel": 0,
      "note": 52,
      "start": 0.7707,
      "duration": 0.249,
      "velocity": 127,
      "chip": "ym2612"
    },
    {
      "channel": 1,
      "note": 57,
      "start": 0.7708,
      "duration": 0.1242,
      "velocity": 113,
      "chip": "ym2612"
    },
    {
      "channel": 0,
      "note": 52,
      "start": 1.0197,
      "duration": 0.0153,
      "velocity": 127,
      "chip": "ym2612"
    },
    {
      "channel": 1,
      "note": 57,
      "start": 1.0199,
      "duration": 0.1242,
      "velocity": 113,
      "chip": "ym2612"
    },
    {
      "channel": 0,
      "note": 76,
      "start": 1.035,
      "duration": 0.2337,
      "velocity": 127,
      "chip": "ym2612"
    },
    {
      "channel": 0,
      "note": 65,
      "start": 1.2687,
      "duration": 0.0153,
      "velocity": 127,
      "chip": "ym2612"
    },
    {
      "channel": 1,
      "note": 57,
      "start": 1.2688,
      "duration": 0.1242,
      "velocity": 113,
      "chip": "ym2612"
    },
    {
      "channel": 0,
      "note": 76,
      "start": 1.284,
      "duration": 0.2337,
      "velocity": 127,
      "chip": "ym2612"
    },
    {
      "channel": 0,
      "note": 65,
      "start": 1.5177,
      "duration": 0.0153,
      "velocity": 127,
      "chip": "ym2612"
    },
    {
      "channel": 1,
      "note": 57,
      "start": 1.5178,
      "duration": 0.1242,
      "velocity": 113,
      "chip": "ym2612"
    },
    {
      "channel": 0,
      "note": 76,
      "start": 1.533,
      "duration": 0.2337,
      "velocity": 127,
      "chip": "ym2612"
    },
    {
      "channel": 0,
      "note": 65,
      "start": 1.7667,
      "duration": 0.0153,
      "velocity": 127,
      "chip": "ym2612"
    },
    {
      "channel": 1,
      "note": 57,
      "start": 1.7668,
      "duration": 0.1242,
      "velocity": 113,
      "chip": "ym2612"
    },
    {
      "channel": 0,
      "note": 76,
      "start": 1.782,
      "duration": 0.2337,
      "velocity": 123,
      "chip": "ym2612"
    },
    {
      "channel": 0,
      "note": 65,
      "start": 2.0158,
      "duration": 0.249,
      "velocity": 123,
      "chip": "ym2612"
    },
    {
      "channel": 1,
      "note": 57,
      "start": 2.0159,
      "duration": 0.1241,
      "velocity": 113,
      "chip": "ym2612"
    },
    {
      "channel": 0,
      "note": 52,
      "start": 2.2647,
      "duration": 0.249,
      "velocity": 123,
      "chip": "ym2612"
    },
    {
      "channel": 1,
      "note": 57,
      "start": 2.2649,
      "duration": 0.1242,
      "velocity": 113,
      "chip": "ym2612"
    },
    {
      "channel": 0,
      "note": 52,
      "start": 2.5137,
      "duration": 0.249,
      "velocity": 123,
      "chip": "ym2612"
    },
    {
      "channel": 1,
      "note": 57,
      "start": 2.5139,
      "duration": 0.1242,
      "velocity": 113,
      "chip": "ym2612"
    },
    {
      "channel": 0,
      "note": 52,
      "start": 2.7627,
      "duration": 0.249,
      "velocity": 127,
      "chip": "ym2612"
    },
    {
      "channel": 1,
      "note": 57,
      "start": 2.7629,
      "duration": 0.1242,
      "velocity": 113,
      "chip": "ym2612"
    },
    {
      "channel": 0,
      "note": 52,
      "start": 3.0118,
      "duration": 0.0153,
      "velocity": 127,
      "chip": "ym2612"
    },
    {
      "channel": 1,
      "note": 57,
      "start": 3.0119,
      "duration": 0.1242,
      "velocity": 113,
      "chip": "ym2612"
    },
    {
      "channel": 0,
      "note": 76,
      "start": 3.0271,
      "duration": 0.2337,
      "velocity": 127,
      "chip": "ym2612"
    },
    {
      "channel": 0,
      "note": 65,
      "start": 3.2608,
      "duration": 0.0153,
      "velocity": 127,
      "chip": "ym2612"
    },
    {
      "channel": 1,
      "note": 57,
      "start": 3.2609,
      "duration": 0.1242,
      "velocity": 113,
      "chip": "ym2612"
    },
    {
      "channel": 0,
      "note": 76,
      "start": 3.2761,
      "duration": 0.2337,
      "velocity": 127,
      "chip": "ym2612"
    },
    {
      "channel": 0,
      "note": 65,
      "start": 3.5098,
      "duration": 0.0153,
      "velocity": 127,
      "chip": "ym2612"
    },
    {
      "channel": 1,
      "note": 57,
      "start": 3.5099,
      "duration": 0.1242,
      "velocity": 113,
      "chip": "ym2612"
    },
    {
      "channel": 0,
      "note": 76,
      "start": 3.5251,
      "duration": 0.2337,
      "velocity": 127,
      "chip": "ym2612"
    },
    {
      "channel": 0,
      "note": 65,
      "start": 3.7588,
      "duration": 0.0153,
      "velocity": 127,
      "chip": "ym2612"
    },
    {
      "channel": 1,
      "note": 57,
      "start": 3.7589,
      "duration": 0.1242,
      "velocity": 113,
      "chip": "ym2612"
    },
    {
      "channel": 0,
      "note": 76,
      "start": 3.7741,
      "duration": 0.2337,
      "velocity": 123,
      "chip": "ym2612"
    },
    {
      "channel": 0,
      "note": 65,
      "start": 4.0078,
      "duration": 0.249,
      "velocity": 123,
      "chip": "ym2612"
    },
    {
      "channel": 1,
      "note": 57,
      "start": 4.008,
      "duration": 0.1242,
      "velocity": 113,
      "chip": "ym2612"
    },
    {
      "channel": 0,
      "note": 52,
      "start": 4.2568,
      "duration": 0.249,
      "velocity": 123,
      "chip": "ym2612"
    },
    {
      "channel": 1,
      "note": 57,
      "start": 4.2571,
      "duration": 0.1241,
      "velocity": 113,
      "chip": "ym2612"
    },
    {
      "channel": 0,
      "note": 52,
      "start": 4.5058,
      "duration": 0.249,
      "velocity": 123,
      "chip": "ym2612"
    },
    {
      "channel": 1,
      "note": 57,
      "start": 4.5059,
      "duration": 0.1242,
      "velocity": 113,
      "chip": "ym2612"
    },
    {
      "channel": 0,
      "note": 52,
      "start": 4.7548,
      "duration": 0.249,
      "velocity": 127,
      "chip": "ym2612"
    },
    {
      "channel": 1,
      "note": 57,
      "start": 4.7549,
      "duration": 0.1242,
      "velocity": 113,
      "chip": "ym2612"
    },
    {
      "channel": 0,
      "note": 52,
      "start": 5.0039,
      "duration": 0.0153,
      "velocity": 127,
      "chip": "ym2612"
    },
    {
      "channel": 1,
      "note": 57,
      "start": 5.004,
      "duration": 0.1242,
      "velocity": 113,
      "chip": "ym2612"
    },
    {
      "channel": 0,
      "note": 76,
      "start": 5.0192,
      "duration": 0.2337,
      "velocity": 127,
      "chip": "ym2612"
    },
    {
      "channel": 0,
      "note": 65,
      "start": 5.2529,
      "duration": 0.0153,
      "velocity": 127,
      "chip": "ym2612"
    },
    {
      "channel": 1,
      "note": 57,
      "start": 5.253,
      "duration": 0.1242,
      "velocity": 113,
      "chip": "ym2612"
    },
    {
      "channel": 0,
      "note": 76,
      "start": 5.2682,
      "duration": 0.2337,
      "velocity": 127,
      "chip": "ym2612"
    },
    {
      "channel": 0,
      "note": 65,
      "start": 5.5019,
      "duration": 0.0153,
      "velocity": 127,
      "chip": "ym2612"
    },
    {
      "channel": 1,
      "note": 57,
      "start": 5.502,
      "duration": 0.1242,
      "velocity": 113,
      "chip": "ym2612"
    },
    {
      "channel": 0,
      "note": 76,
      "start": 5.5172,
      "duration": 0.2337,
      "velocity": 127,
      "chip": "ym2612"
    },
    {
      "channel": 0,
      "note": 65,
      "start": 5.7509,
      "duration": 0.0153,
      "velocity": 127,
      "chip": "ym2612"
    },
    {
      "channel": 1,
      "note": 57,
      "start": 5.751,
      "duration": 0.1242,
      "velocity": 113,
      "chip": "ym2612"
    },
    {
      "channel": 0,
      "note": 76,
      "start": 5.7662,
      "duration": 0.2337,
      "velocity": 123,
      "chip": "ym2612"
    },
    {
      "channel": 0,
      "note": 65,
      "start": 5.9999,
      "duration": 0.249,
      "velocity": 123,
      "chip": "ym2612"
    },
    {
      "channel": 1,
      "note": 57,
      "start": 6.0001,
      "duration": 0.1241,
      "velocity": 113,
      "chip": "ym2612"
    },
    {
      "channel": 0,
      "note": 52,
      "start": 6.2489,
      "duration": 0.249,
      "velocity": 123,
      "chip": "ym2612"
    },
    {
      "channel": 1,
      "note": 57,
      "start": 6.249,
      "duration": 0.1242,
      "velocity": 113,
      "chip": "ym2612"
    },
    {
      "channel": 0,
      "note": 52,
      "start": 6.4979,
      "duration": 0.249,
      "velocity": 123,
      "chip": "ym2612"
    },
    {
      "channel": 1,
      "note": 57,
      "start": 6.498,
      "duration": 0.1242,
      "velocity": 113,
      "chip": "ym2612"
    },
    {
      "channel": 0,
      "note": 52,
      "start": 6.7469,
      "duration": 0.249,
      "velocity": 127,
      "chip": "ym2612"
    },
    {
      "channel": 1,
      "note": 57,
      "start": 6.747,
      "duration": 0.1242,
      "velocity": 113,
      "chip": "ym2612"
    },
    {
      "channel": 0,
      "note": 52,
      "start": 6.9959,
      "duration": 0.0153,
      "velocity": 127,
      "chip": "ym2612"
    },
    {
      "channel": 1,
      "note": 57,
      "start": 6.9961,
      "duration": 0.1242,
      "velocity": 113,
      "chip": "ym2612"
    },
    {
      "channel": 0,
      "note": 76,
      "start": 7.0112,
      "duration": 0.2337,
      "velocity": 127,
      "chip": "ym2612"
    },
    {
      "channel": 0,
      "note": 65,
      "start": 7.2449,
      "duration": 0.0153,
      "velocity": 127,
      "chip": "ym2612"
    },
    {
      "channel": 1,
      "note": 57,
      "start": 7.2451,
      "duration": 0.1242,
      "velocity": 113,
      "chip": "ym2612"
    },
    {
      "channel": 0,
      "note": 76,
      "start": 7.2602,
      "duration": 0.2337,
      "velocity": 127,
      "chip": "ym2612"
    },
    {
      "channel": 0,
      "note": 65,
      "start": 7.4939,
      "duration": 0.0153,
      "velocity": 127,
      "chip": "ym2612"
    },
    {
      "channel": 1,
      "note": 57,
      "start": 7.4941,
      "duration": 0.1242,
      "velocity": 113,
      "chip": "ym2612"
    },
    {
      "channel": 0,
      "note": 76,
      "start": 7.5093,
      "duration": 0.2337,
      "velocity": 127,
      "chip": "ym2612"
    },
    {
      "channel": 0,
      "note": 65,
      "start": 7.7429,
      "duration": 0.0153,
      "velocity": 127,
      "chip": "ym2612"
    },
    {
      "channel": 1,
      "note": 57,
      "start": 7.7431,
      "duration": 0.1242,
      "velocity": 113,
      "chip": "ym2612"
    },
    {
      "channel": 0,
      "note": 76,
      "start": 7.7583,
      "duration": 0.2337,
      "velocity": 123,
      "chip": "ym2612"
    },
    {
      "channel": 0,
      "note": 65,
      "start": 7.992,
      "duration": 0.249,
      "velocity": 123,
      "chip": "ym2612"
    },
    {
      "channel": 1,
      "note": 56,
      "start": 7.9922,
      "duration": 0.1241,
      "velocity": 113,
      "chip": "ym2612"
    },
    {
      "channel": 0,
      "note": 52,
      "start": 8.241,
      "duration": 0.249,
      "velocity": 123,
      "chip": "ym2612"
    },
    {
      "channel": 1,
      "note": 57,
      "start": 8.2411,
      "duration": 0.1242,
      "velocity": 113,
      "chip": "ym2612"
    },
    {
      "channel": 2,
      "note": 37,
      "start": 8.2412,
      "duration": 0.249,
      "velocity": 111,
      "chip": "ym2612"
    },
    {
      "channel": 4,
      "note": 37,
      "start": 8.4278,
      "duration": 0.249,
      "velocity": 111,
      "chip": "ym2612"
    },
    {
      "channel": 0,
      "note": 52,
      "start": 8.49,
      "duration": 0.249,
      "velocity": 123,
      "chip": "ym2612"
    },
    {
      "channel": 1,
      "note": 57,
      "start": 8.4901,
      "duration": 0.1242,
      "velocity": 113,
      "chip": "ym2612"
    },
    {
      "channel": 2,
      "note": 81,
      "start": 8.4902,
      "duration": 0.0775,
      "velocity": 111,
      "chip": "ym2612"
    },
    {
      "channel": 2,
      "note": 80,
      "start": 8.5677,
      "duration": 0.0934,
      "velocity": 111,
      "chip": "ym2612"
    },
    {
      "channel": 2,
      "note": 81,
      "start": 8.6611,
      "duration": 0.0781,
      "velocity": 111,
      "chip": "ym2612"
    },
    {
      "channel": 4,
      "note": 81,
      "start": 8.6768,
      "duration": 0.0778,
      "velocity": 111,
      "chip": "ym2612"
    },
    {
      "channel": 0,
      "note": 52,
      "start": 8.739,
      "duration": 0.249,
      "velocity": 127,
      "chip": "ym2612"
    },
    {
      "channel": 1,
      "note": 57,
      "start": 8.7391,
      "duration": 0.1242,
      "velocity": 113,
      "chip": "ym2612"
    },
    {
      "channel": 2,
      "note": 80,
      "start": 8.7392,
      "duration": 0.249,
      "velocity": 111,
      "chip": "ym2612"
    },
    {
      "channel": 4,
      "note": 80,
      "start": 8.7546,
      "duration": 0.0934,
      "velocity": 111,
      "chip": "ym2612"
    },
    {
      "channel": 4,
      "note": 81,
      "start": 8.848,
      "duration": 0.0778,
      "velocity": 111,
      "chip": "ym2612"
    },
    {
      "channel": 4,
      "note": 80,
      "start": 8.9258,
      "duration": 0.249,
      "velocity": 111,
      "chip": "ym2612"
    },
    {
      "channel": 0,
      "note": 52,
      "start": 8.988,
      "duration": 0.0153,
      "velocity": 127,
      "chip": "ym2612"
    },
    {
      "channel": 1,
      "note": 57,
      "start": 8.9882,
      "duration": 0.1242,
      "velocity": 113,
      "chip": "ym2612"
    },
    {
      "channel": 2,
      "note": 77,
      "start": 8.9883,
      "duration": 0.747,
      "velocity": 111,
      "chip": "ym2612"
    },
    {
      "channel": 0,
      "note": 76,
      "start": 9.0033,
      "duration": 0.2337,
      "velocity": 127,
      "chip": "ym2612"
    },
    {
      "channel": 4,
      "note": 77,
      "start": 9.1748,
      "duration": 0.747,
      "velocity": 111,
      "chip": "ym2612"
    },
    {
      "channel": 0,
      "note": 65,
      "start": 9.237,
      "duration": 0.0153,
      "velocity": 127,
      "chip": "ym2612"
    },
    {
      "channel": 1,
      "note": 57,
      "start": 9.2371,
      "duration": 0.1242,
      "velocity": 113,
      "chip": "ym2612"
    },
    {
      "channel": 0,
      "note": 76,
      "start": 9.2523,
      "duration": 0.2337,
      "velocity": 127,
      "chip": "ym2612"
    },
    {
      "channel": 0,
      "note": 65,
      "start": 9.486,
      "duration": 0.0153,
      "velocity": 127,
      "chip": "ym2612"
    },
    {
      "channel": 1,
      "note": 57,
      "start": 9.4861,
      "duration": 0.1242,
      "velocity": 113,
      "chip": "ym2612"
    },
    {
      "channel": 0,
      "note": 76,
      "start": 9.5013,
      "duration": 0.2337,
      "velocity": 127,
      "chip": "ym2612"
    },
    {
      "channel": 0,
      "note": 65,
      "start": 9.735,
      "duration": 0.0153,
      "velocity": 127,
      "chip": "ym2612"
    },
    {
      "channel": 1,
      "note": 57,
      "start": 9.7351,
      "duration": 0.1242,
      "velocity": 113,
      "chip": "ym2612"
    },
    {
      "channel": 2,
      "note": 76,
      "start": 9.7353,
      "duration": 0.498,
      "velocity": 111,
      "chip": "ym2612"
    },
    {
      "channel": 0,
      "note": 76,
      "start": 9.7503,
      "duration": 0.2337,
      "velocity": 123,
      "chip": "ym2612"
    },
    {
      "channel": 4,
      "note": 76,
      "start": 9.9218,
      "duration": 0.498,
      "velocity": 111,
      "chip": "ym2612"
    },
    {
      "channel": 0,
      "note": 65,
      "start": 9.9841,
      "duration": 0.249,
      "velocity": 123,
      "chip": "ym2612"
    },
    {
      "channel": 1,
      "note": 57,
      "start": 9.9842,
      "duration": 0.1241,
      "velocity": 113,
      "chip": "ym2612"
    },
    {
      "channel": 0,
      "note": 52,
      "start": 10.233,
      "duration": 0.249,
      "velocity": 123,
      "chip": "ym2612"
    },
    {
      "channel": 1,
      "note": 57,
      "start": 10.2332,
      "duration": 0.1242,
      "velocity": 113,
      "chip": "ym2612"
    },
    {
      "channel": 2,
      "note": 72,
      "start": 10.2333,
      "duration": 0.498,
      "velocity": 111,
      "chip": "ym2612"
    },
    {
      "channel": 4,
      "note": 72,
      "start": 10.4199,
      "duration": 0.498,
      "velocity": 111,
      "chip": "ym2612"
    },
    {
      "channel": 0,
      "note": 52,
      "start": 10.482,
      "duration": 0.249,
      "velocity": 123,
      "chip": "ym2612"
    },
    {
      "channel": 1,
      "note": 57,
      "start": 10.4822,
      "duration": 0.1242,
      "velocity": 113,
      "chip": "ym2612"
    },
    {
      "channel": 0,
      "note": 52,
      "start": 10.7311,
      "duration": 0.249,
      "velocity": 127,
      "chip": "ym2612"
    },
    {
      "channel": 1,
      "note": 57,
      "start": 10.7312,
      "duration": 0.1242,
      "velocity": 113,
      "chip": "ym2612"
    },
    {
      "channel": 2,
      "note": 74,
      "start": 10.7313,
      "duration": 0.498,
      "velocity": 111,
      "chip": "ym2612"
    },
    {
      "channel": 4,
      "note": 74,
      "start": 10.9179,
      "duration": 0.498,
      "velocity": 111,
      "chip": "ym2612"
    },
    {
      "channel": 0,
      "note": 52,
      "start": 10.9801,
      "duration": 0.0153,
      "velocity": 127,
      "chip": "ym2612"
    },
    {
      "channel": 1,
      "note": 57,
      "start": 10.9802,
      "duration": 0.1242,
      "velocity": 113,
      "chip": "ym2612"
    },
    {
      "channel": 0,
      "note": 76,
      "start": 10.9954,
      "duration": 0.2337,
      "velocity": 127,
      "chip": "ym2612"
    },
    {
      "channel": 0,
      "note": 65,
      "start": 11.2291,
      "duration": 0.0153,
      "velocity": 127,
      "chip": "ym2612"
    },
    {
      "channel": 1,
      "note": 57,
      "start": 11.2292,
      "duration": 0.1242,
      "velocity": 113,
      "chip": "ym2612"
    },
    {
      "channel": 2,
      "note": 76,
      "start": 11.2293,
      "duration": 0.249,
      "velocity": 111,
      "chip": "ym2612"
    },
    {
      "channel": 0,
      "note": 76,
      "start": 11.2444,
      "duration": 0.2337,
      "velocity": 127,
      "chip": "ym2612"
    },
    {
      "channel": 4,
      "note": 76,
      "start": 11.4159,
      "duration": 0.249,
      "velocity": 111,
      "chip": "ym2612"
    },
    {
      "channel": 0,
      "note": 65,
      "start": 11.4781,
      "duration": 0.0153,
      "velocity": 127,
      "chip": "ym2612"
    },
    {
      "channel": 1,
      "note": 57,
      "start": 11.4782,
      "duration": 0.1242,
      "velocity": 113,
      "chip": "ym2612"
    },
    {
      "channel": 2,
      "note": 74,
      "start": 11.4783,
      "duration": 0.249,
      "velocity": 111,
      "chip": "ym2612"
    },
    {
      "channel": 0,
      "note": 76,
      "start": 11.4934,
      "duration": 0.2337,
      "velocity": 127,
      "chip": "ym2612"
    },
    {
      "channel": 4,
      "note": 74,
      "start": 11.6649,
      "duration": 0.249,
      "velocity": 111,
      "chip": "ym2612"
    },
    {
      "channel": 0,
      "note": 65,
      "start": 11.7271,
      "duration": 0.0153,
      "velocity": 127,
      "chip": "ym2612"
    },
    {
      "channel": 1,
      "note": 57,
      "start": 11.7272,
      "duration": 0.1242,
      "velocity": 113,
      "chip": "ym2612"
    },
    {
      "channel": 2,
      "note": 72,
      "start": 11.7273,
      "duration": 0.249,
      "velocity": 111,
      "chip": "ym2612"
    },
    {
      "channel": 0,
      "note": 76,
      "start": 11.7424,
      "duration": 0.2337,
      "velocity": 123,
      "chip": "ym2612"
    },
    {
      "channel": 4,
      "note": 72,
      "start": 11.9139,
      "duration": 0.249,
      "velocity": 111,
      "chip": "ym2612"
    },
    {
      "channel": 0,
      "note": 65,
      "start": 11.9761,
      "duration": 0.249,
      "velocity": 123,
      "chip": "ym2612"
    },
    {
      "channel": 1,
      "note": 57,
      "start": 11.9763,
      "duration": 0.1242,
      "velocity": 113,
      "chip": "ym2612"
    },
    {
      "channel": 2,
      "note": 74,
      "start": 11.9764,
      "duration": 0.747,
      "velocity": 111,
      "chip": "ym2612"
    },
    {
      "channel": 4,
      "note": 74,
      "start": 12.1629,
      "duration": 0.747,
      "velocity": 111,
      "chip": "ym2612"
    },
    {
      "channel": 0,
      "note": 52,
      "start": 12.2251,
      "duration": 0.249,
      "velocity": 123,
      "chip": "ym2612"
    },
    {
      "channel": 1,
      "note": 57,
      "start": 12.2252,
      "duration": 0.1242,
      "velocity": 113,
      "chip": "ym2612"
    },
    {
      "channel": 0,
      "note": 52,
      "start": 12.4741,
      "duration": 0.249,
      "velocity": 123,
      "chip": "ym2612"
    },
    {
      "channel": 1,
      "note": 57,
      "start": 12.4742,
      "duration": 0.1242,
      "velocity": 113,
      "chip": "ym2612"
    },
    {
      "channel": 0,
      "note": 52,
      "start": 12.7231,
      "duration": 0.249,
      "velocity": 127,
      "chip": "ym2612"
    },
    {
      "channel": 1,
      "note": 57,
      "start": 12.7233,
      "duration": 0.1242,
      "velocity": 113,
      "chip": "ym2612"
    },
    {
      "channel": 2,
      "note": 72,
      "start": 12.7234,
      "duration": 0.249,
      "velocity": 111,
      "chip": "ym2612"
    },
    {
      "channel": 4,
      "note": 72,
      "start": 12.91,
      "duration": 0.249,
      "velocity": 111,
      "chip": "ym2612"
    },
    {
      "channel": 0,
      "note": 52,
      "start": 12.9722,
      "duration": 0.0153,
      "velocity": 127,
      "chip": "ym2612"
    },
    {
      "channel": 1,
      "note": 57,
      "start": 12.9723,
      "duration": 0.1242,
      "velocity": 113,
      "chip": "ym2612"
    },
    {
      "channel": 0,
      "note": 76,
      "start": 12.9875,
      "duration": 0.2337,
      "velocity": 127,
      "chip": "ym2612"
    },
    {
      "channel": 0,
      "note": 65,
      "start": 13.2212,
      "duration": 0.0153,
      "velocity": 127,
      "chip": "ym2612"
    },
    {
      "channel": 1,
      "note": 57,
      "start": 13.2213,
      "duration": 0.1242,
      "velocity": 113,
      "chip": "ym2612"
    },
    {
      "channel": 0,
      "note": 76,
      "start": 13.2365,
      "duration": 0.2337,
      "velocity": 127,
      "chip": "ym2612"
    },
    {
      "channel": 0,
      "note": 65,
      "start": 13.4702,
      "duration": 0.0153,
      "velocity": 127,
      "chip": "ym2612"
    },
    {
      "channel": 1,
      "note": 57,
      "start": 13.4703,
      "duration": 0.1242,
      "velocity": 113,
      "chip": "ym2612"
    },
    {
      "channel": 0,
      "note": 76,
      "start": 13.4855,
      "duration": 0.2337,
      "velocity": 127,
      "chip": "ym2612"
    },
    {
      "channel": 0,
      "note": 65,
      "start": 13.7192,
      "duration": 0.0153,
      "velocity": 127,
      "chip": "ym2612"
    },
    {
      "channel": 1,
      "note": 57,
      "start": 13.7193,
      "duration": 0.1242,
      "velocity": 113,
      "chip": "ym2612"
    },
    {
      "channel": 0,
      "note": 76,
      "start": 13.7345,
      "duration": 0.2337,
      "velocity": 123,
      "chip": "ym2612"
    },
    {
      "channel": 0,
      "note": 65,
      "start": 13.9682,
      "duration": 0.249,
      "velocity": 123,
      "chip": "ym2612"
    },
    {
      "channel": 1,
      "note": 57,
      "start": 13.9684,
      "duration": 0.1241,
      "velocity": 113,
      "chip": "ym2612"
    },
    {
      "channel": 0,
      "note": 52,
      "start": 14.2172,
      "duration": 0.249,
      "velocity": 123,
      "chip": "ym2612"
    },
    {
      "channel": 1,
      "note": 57,
      "start": 14.2173,
      "duration": 0.1242,
      "velocity": 113,
      "chip": "ym2612"
    },
    {
      "channel": 0,
      "note": 52,
      "start": 14.4662,
      "duration": 0.249,
      "velocity": 123,
      "chip": "ym2612"
    },
    {
      "channel": 1,
      "note": 57,
      "start": 14.4663,
      "duration": 0.1243,
      "velocity": 113,
      "chip": "ym2612"
    },
    {
      "channel": 0,
      "note": 52,
      "start": 14.7152,
      "duration": 0.249,
      "velocity": 127,
      "chip": "ym2612"
    },
    {
      "channel": 1,
      "note": 57,
      "start": 14.7153,
      "duration": 0.1242,
      "velocity": 113,
      "chip": "ym2612"
    },
    {
      "channel": 0,
      "note": 52,
      "start": 14.9642,
      "duration": 0.0153,
      "velocity": 127,
      "chip": "ym2612"
    },
    {
      "channel": 1,
      "note": 57,
      "start": 14.9644,
      "duration": 0.1242,
      "velocity": 113,
      "chip": "ym2612"
    },
    {
      "channel": 0,
      "note": 76,
      "start": 14.9795,
      "duration": 0.2337,
      "velocity": 127,
      "chip": "ym2612"
    },
    {
      "channel": 0,
      "note": 65,
      "start": 15.2132,
      "duration": 0.0153,
      "velocity": 127,
      "chip": "ym2612"
    },
    {
      "channel": 1,
      "note": 57,
      "start": 15.2134,
      "duration": 0.1242,
      "velocity": 113,
      "chip": "ym2612"
    },
    {
      "channel": 0,
      "note": 76,
      "start": 15.2285,
      "duration": 0.2337,
      "velocity": 127,
      "chip": "ym2612"
    },
    {
      "channel": 0,
      "note": 65,
      "start": 15.4622,
      "duration": 0.0153,
      "velocity": 127,
      "chip": "ym2612"
    },
    {
      "channel": 1,
      "note": 57,
      "start": 15.4624,
      "duration": 0.1242,
      "velocity": 113,
      "chip": "ym2612"
    },
    {
      "channel": 0,
      "note": 76,
      "start": 15.4776,
      "duration": 0.2337,
      "velocity": 127,
      "chip": "ym2612"
    },
    {
      "channel": 0,
      "note": 65,
      "start": 15.7112,
      "duration": 0.0153,
      "velocity": 127,
      "chip": "ym2612"
    },
    {
      "channel": 1,
      "note": 57,
      "start": 15.7114,
      "duration": 0.1242,
      "velocity": 113,
      "chip": "ym2612"
    },
    {
      "channel": 0,
      "note": 76,
      "start": 15.7266,
      "duration": 0.2337,
      "velocity": 123,
      "chip": "ym2612"
    },
    {
      "channel": 0,
      "note": 65,
      "start": 15.9603,
      "duration": 0.249,
      "velocity": 123,
      "chip": "ym2612"
    },
    {
      "channel": 1,
      "note": 57,
      "start": 15.9604,
      "duration": 0.1242,
      "velocity": 113,
      "chip": "ym2612"
    },
    {
      "channel": 0,
      "note": 52,
      "start": 16.2093,
      "duration": 0.249,
      "velocity": 123,
      "chip": "ym2612"
    },
    {
      "channel": 1,
      "note": 57,
      "start": 16.2094,
      "duration": 0.1242,
      "velocity": 113,
      "chip": "ym2612"
    },
    {
      "channel": 2,
      "note": 69,
      "start": 16.2095,
      "duration": 0.249,
      "velocity": 111,
      "chip": "ym2612"
    },
    {
      "channel": 4,
      "note": 69,
      "start": 16.3961,
      "duration": 0.249,
      "velocity": 111,
      "chip": "ym2612"
    },
    {
      "channel": 0,
      "note": 52,
      "start": 16.4583,
      "duration": 0.2491,
      "velocity": 123,
      "chip": "ym2612"
    },
    {
      "channel": 1,
      "note": 57,
      "start": 16.4584,
      "duration": 0.1242,
      "velocity": 113,
      "chip": "ym2612"
    },
    {
      "channel": 2,
      "note": 81,
      "start": 16.4585,
      "duration": 0.0775,
      "velocity": 111,
      "chip": "ym2612"
    },
    {
      "channel": 2,
      "note": 80,
      "start": 16.536,
      "duration": 0.0934,
      "velocity": 111,
      "chip": "ym2612"
    },
    {
      "channel": 2,
      "note": 81,
      "start": 16.6294,
      "duration": 0.0783,
      "velocity": 111,
      "chip": "ym2612"
    },
    {
      "channel": 4,
      "note": 81,
      "start": 16.6451,
      "duration": 0.0778,
      "velocity": 111,
      "chip": "ym2612"
    },
    {
      "channel": 0,
      "note": 52,
      "start": 16.7074,
      "duration": 0.2489,
      "velocity": 127,
      "chip": "ym2612"
    },
    {
      "channel": 1,
      "note": 57,
      "start": 16.7076,
      "duration": 0.1241,
      "velocity": 113,
      "chip": "ym2612"
    },
    {
      "channel": 2,
      "note": 80,
      "start": 16.7077,
      "duration": 0.2489,
      "velocity": 111,
      "chip": "ym2612"
    },
    {
      "channel": 4,
      "note": 80,
      "start": 16.7229,
      "duration": 0.0934,
      "velocity": 111,
      "chip": "ym2612"
    },
    {
      "channel": 4,
      "note": 81,
      "start": 16.8163,
      "duration": 0.0778,
      "velocity": 111,
      "chip": "ym2612"
    },
    {
      "channel": 4,
      "note": 80,
      "start": 16.8941,
      "duration": 0.249,
      "velocity": 111,
      "chip": "ym2612"
    },
    {
      "channel": 0,
      "note": 52,
      "start": 16.9563,
      "duration": 0.0153,
      "velocity": 127,
      "chip": "ym2612"
    },
    {
      "channel": 1,
      "note": 57,
      "start": 16.9565,
      "duration": 0.1242,
      "velocity": 113,
      "chip": "ym2612"
    },
    {
      "channel": 2,
      "note": 77,
      "start": 16.9566,
      "duration": 0.747,
      "velocity": 111,
      "chip": "ym2612"
    },
    {
      "channel": 0,
      "note": 76,
      "start": 16.9716,
      "duration": 0.2337,
      "velocity": 127,
      "chip": "ym2612"
    },
    {
      "channel": 4,
      "note": 77,
      "start": 17.1431,
      "duration": 0.747,
      "velocity": 111,
      "chip": "ym2612"
    },
    {
      "channel": 0,
      "note": 65,
      "start": 17.2053,
      "duration": 0.0153,
      "velocity": 127,
      "chip": "ym2612"
    },
    {
      "channel": 1,
      "note": 57,
      "start": 17.2054,
      "duration": 0.1242,
      "velocity": 113,
      "chip": "ym2612"
    },
    {
      "channel": 0,
      "note": 76,
      "start": 17.2206,
      "duration": 0.2337,
      "velocity": 127,
      "chip": "ym2612"
    },
    {
      "channel": 0,
      "note": 65,
      "start": 17.4543,
      "duration": 0.0153,
      "velocity": 127,
      "chip": "ym2612"
    },
    {
      "channel": 1,
      "note": 57,
      "start": 17.4544,
      "duration": 0.1242,
      "velocity": 113,
      "chip": "ym2612"
    },
    {
      "channel": 0,
      "note": 76,
      "start": 17.4696,
      "duration": 0.2337,
      "velocity": 127,
      "chip": "ym2612"
    },
    {
      "channel": 0,
      "note": 65,
      "start": 17.7033,
      "duration": 0.0153,
      "velocity": 127,
      "chip": "ym2612"
    },
    {
      "channel": 1,
      "note": 57,
      "start": 17.7034,
      "duration": 0.1242,
      "velocity": 113,
      "chip": "ym2612"
    },
    {
      "channel": 2,
      "note": 76,
      "start": 17.7036,
      "duration": 0.498,
      "velocity": 111,
      "chip": "ym2612"
    },
    {
      "channel": 0,
      "note": 76,
      "start": 17.7187,
      "duration": 0.2337,
      "velocity": 123,
      "chip": "ym2612"
    },
    {
      "channel": 4,
      "note": 76,
      "start": 17.8902,
      "duration": 0.498,
      "velocity": 111,
      "chip": "ym2612"
    },
    {
      "channel": 0,
      "note": 65,
      "start": 17.9524,
      "duration": 0.249,
      "velocity": 123,
      "chip": "ym2612"
    },
    {
      "channel": 1,
      "note": 57,
      "start": 17.9525,
      "duration": 0.1242,
      "velocity": 113,
      "chip": "ym2612"
    },
    {
      "channel": 0,
      "note": 52,
      "start": 18.2013,
      "duration": 0.249,
      "velocity": 123,
      "chip": "ym2612"
    },
    {
      "channel": 1,
      "note": 57,
      "start": 18.2015,
      "duration": 0.1242,
      "velocity": 113,
      "chip": "ym2612"
    },
    {
      "channel": 2,
      "note": 72,
      "start": 18.2016,
      "duration": 0.498,
      "velocity": 111,
      "chip": "ym2612"
    },
    {
      "channel": 4,
      "note": 72,
      "start": 18.3882,
      "duration": 0.498,
      "velocity": 111,
      "chip": "ym2612"
    },
    {
      "channel": 0,
      "note": 52,
      "start": 18.4504,
      "duration": 0.249,
      "velocity": 123,
      "chip": "ym2612"
    },
    {
      "channel": 1,
      "note": 57,
      "start": 18.4505,
      "duration": 0.1242,
      "velocity": 113,
      "chip": "ym2612"
    },
    {
      "channel": 0,
      "note": 52,
      "start": 18.6994,
      "duration": 0.249,
      "velocity": 127,
      "chip": "ym2612"
    },
    {
      "channel": 1,
      "note": 57,
      "start": 18.6995,
      "duration": 0.1244,
      "velocity": 113,
      "chip": "ym2612"
    },
    {
      "channel": 2,
      "note": 74,
      "start": 18.6996,
      "duration": 0.498,
      "velocity": 111,
      "chip": "ym2612"
    },
    {
      "channel": 4,
      "note": 74,
      "start": 18.8862,
      "duration": 0.498,
      "velocity": 111,
      "chip": "ym2612"
    },
    {
      "channel": 0,
      "note": 52,
      "start": 18.9484,
      "duration": 0.0153,
      "velocity": 127,
      "chip": "ym2612"
    },
    {
      "channel": 1,
      "note": 57,
      "start": 18.9485,
      "duration": 0.1242,
      "velocity": 113,
      "chip": "ym2612"
    },
    {
      "channel": 0,
      "note": 76,
      "start": 18.9637,
      "duration": 0.2337,
      "velocity": 127,
      "chip": "ym2612"
    },
    {
      "channel": 0,
      "note": 65,
      "start": 19.1974,
      "duration": 0.0153,
      "velocity": 127,
      "chip": "ym2612"
    },
    {
      "channel": 1,
      "note": 57,
      "start": 19.1975,
      "duration": 0.1242,
      "velocity": 113,
      "chip": "ym2612"
    },
    {
      "channel": 2,
      "note": 76,
      "start": 19.1976,
      "duration": 0.249,
      "velocity": 111,
      "chip": "ym2612"
    },
    {
      "channel": 0,
      "note": 76,
      "start": 19.2127,
      "duration": 0.2337,
      "velocity": 127,
      "chip": "ym2612"
    },
    {
      "channel": 4,
      "note": 76,
      "start": 19.3842,
      "duration": 0.249,
      "velocity": 111,
      "chip": "ym2612"
    },
    {
      "channel": 0,
      "note": 65,
      "start": 19.4464,
      "duration": 0.0153,
      "velocity": 127,
      "chip": "ym2612"
    },
    {
      "channel": 1,
      "note": 57,
      "start": 19.4465,
      "duration": 0.1242,
      "velocity": 113,
      "chip": "ym2612"
    },
    {
      "channel": 2,
      "note": 74,
      "start": 19.4466,
      "duration": 0.249,
      "velocity": 111,
      "chip": "ym2612"
    },
    {
      "channel": 0,
      "note": 76,
      "start": 19.4617,
      "duration": 0.2337,
      "velocity": 127,
      "chip": "ym2612"
    },
    {
      "channel": 4,
      "note": 74,
      "start": 19.6332,
      "duration": 0.249,
      "velocity": 111,
      "chip": "ym2612"
    },
    {
      "channel": 0,
      "note": 65,
      "start": 19.6954,
      "duration": 0.0153,
      "velocity": 127,
      "chip": "ym2612"
    },
    {
      "channel": 1,
      "note": 57,
      "start": 19.6955,
      "duration": 0.1242,
      "velocity": 113,
      "chip": "ym2612"
    },
    {
      "channel": 2,
      "note": 72,
      "start": 19.6956,
      "duration": 0.249,
      "velocity": 111,
      "chip": "ym2612"
    },
    {
      "channel": 0,
      "note": 76,
      "start": 19.7107,
      "duration": 0.2337,
      "velocity": 123,
      "chip": "ym2612"
    },
    {
      "channel": 4,
      "note": 72,
      "start": 19.8822,
      "duration": 0.249,
      "velocity": 111,
      "chip": "ym2612"
    },
    {
      "channel": 0,
      "note": 65,
      "start": 19.9444,
      "duration": 0.249,
      "velocity": 123,
      "chip": "ym2612"
    },
    {
      "channel": 1,
      "note": 57,
      "start": 19.9446,
      "duration": 0.1241,
      "velocity": 113,
      "chip": "ym2612"
    },
    {
      "channel": 2,
      "note": 74,
      "start": 19.9447,
      "duration": 0.747,
      "velocity": 111,
      "chip": "ym2612"
    },
    {
      "channel": 4,
      "note": 74,
      "start": 20.1312,
      "duration": 0.747,
      "velocity": 111,
      "chip": "ym2612"
    },
    {
      "channel": 0,
      "note": 52,
      "start": 20.1934,
      "duration": 0.249,
      "velocity": 123,
      "chip": "ym2612"
    },
    {
      "channel": 1,
      "note": 57,
      "start": 20.1935,
      "duration": 0.1242,
      "velocity": 113,
      "chip": "ym2612"
    },
    {
      "channel": 0,
      "note": 52,
      "start": 20.4424,
      "duration": 0.249,
      "velocity": 123,
      "chip": "ym2612"
    },
    {
      "channel": 1,
      "note": 57,
      "start": 20.4426,
      "duration": 0.1242,
      "velocity": 113,
      "chip": "ym2612"
    },
    {
      "channel": 0,
      "note": 52,
      "start": 20.6914,
      "duration": 0.2492,
      "velocity": 127,
      "chip": "ym2612"
    },
    {
      "channel": 1,
      "note": 57,
      "start": 20.6916,
      "duration": 0.1242,
      "velocity": 113,
      "chip": "ym2612"
    },
    {
      "channel": 2,
      "note": 72,
      "start": 20.6917,
      "duration": 0.2492,
      "velocity": 111,
      "chip": "ym2612"
    },
    {
      "channel": 4,
      "note": 72,
      "start": 20.8783,
      "duration": 0.249,
      "velocity": 111,
      "chip": "ym2612"
    },
    {
      "channel": 0,
      "note": 52,
      "start": 20.9406,
      "duration": 0.0151,
      "velocity": 127,
      "chip": "ym2612"
    },
    {
      "channel": 1,
      "note": 57,
      "start": 20.9408,
      "duration": 0.124,
      "velocity": 113,
      "chip": "ym2612"
    },
    {
      "channel": 0,
      "note": 76,
      "start": 20.9558,
      "duration": 0.2337,
      "velocity": 127,
      "chip": "ym2612"
    },
    {
      "channel": 0,
      "note": 65,
      "start": 21.1895,
      "duration": 0.0153,
      "velocity": 127,
      "chip": "ym2612"
    },
    {
      "channel": 1,
      "note": 57,
      "start": 21.1896,
      "duration": 0.1242,
      "velocity": 113,
      "chip": "ym2612"
    },
    {
      "channel": 0,
      "note": 76,
      "start": 21.2048,
      "duration": 0.2337,
      "velocity": 127,
      "chip": "ym2612"
    },
    {
      "channel": 0,
      "note": 65,
      "start": 21.4385,
      "duration": 0.0153,
      "velocity": 127,
      "chip": "ym2612"
    },
    {
      "channel": 1,
      "note": 57,
      "start": 21.4386,
      "duration": 0.1242,
      "velocity": 113,
      "chip": "ym2612"
    },
    {
      "channel": 0,
      "note": 76,
      "start": 21.4538,
      "duration": 0.2337,
      "velocity": 127,
      "chip": "ym2612"
    },
    {
      "channel": 0,
      "note": 65,
      "start": 21.6875,
      "duration": 0.0153,
      "velocity": 127,
      "chip": "ym2612"
    },
    {
      "channel": 1,
      "note": 57,
      "start": 21.6876,
      "duration": 0.1242,
      "velocity": 113,
      "chip": "ym2612"
    },
    {
      "channel": 0,
      "note": 76,
      "start": 21.7028,
      "duration": 0.2337,
      "velocity": 123,
      "chip": "ym2612"
    },
    {
      "channel": 0,
      "note": 65,
      "start": 21.9365,
      "duration": 0.249,
      "velocity": 123,
      "chip": "ym2612"
    },
    {
      "channel": 1,
      "note": 57,
      "start": 21.9367,
      "duration": 0.1242,
      "velocity": 113,
      "chip": "ym2612"
    },
    {
      "channel": 0,
      "note": 52,
      "start": 22.1855,
      "duration": 0.249,
      "velocity": 123,
      "chip": "ym2612"
    },
    {
      "channel": 1,
      "note": 57,
      "start": 22.1856,
      "duration": 0.1242,
      "velocity": 113,
      "chip": "ym2612"
    },
    {
      "channel": 0,
      "note": 52,
      "start": 22.4345,
      "duration": 0.249,
      "velocity": 123,
      "chip": "ym2612"
    },
    {
      "channel": 1,
      "note": 57,
      "start": 22.4346,
      "duration": 0.1242,
      "velocity": 113,
      "chip": "ym2612"
    },
    {
      "channel": 0,
      "note": 52,
      "start": 22.6835,
      "duration": 0.249,
      "velocity": 127,
      "chip": "ym2612"
    },
    {
      "channel": 1,
      "note": 57,
      "start": 22.6837,
      "duration": 0.1242,
      "velocity": 113,
      "chip": "ym2612"
    },
    {
      "channel": 0,
      "note": 52,
      "start": 22.9325,
      "duration": 0.0153,
      "velocity": 127,
      "chip": "ym2612"
    },
    {
      "channel": 1,
      "note": 57,
      "start": 22.9327,
      "duration": 0.1242,
      "velocity": 113,
      "chip": "ym2612"
    },
    {
      "channel": 0,
      "note": 76,
      "start": 22.9478,
      "duration": 0.2337,
      "velocity": 127,
      "chip": "ym2612"
    },
    {
      "channel": 0,
      "note": 65,
      "start": 23.1815,
      "duration": 0.0153,
      "velocity": 127,
      "chip": "ym2612"
    },
    {
      "channel": 1,
      "note": 57,
      "start": 23.1817,
      "duration": 0.1242,
      "velocity": 113,
      "chip": "ym2612"
    },
    {
      "channel": 0,
      "note": 76,
      "start": 23.1969,
      "duration": 0.2337,
      "velocity": 127,
      "chip": "ym2612"
    },
    {
      "channel": 0,
      "note": 65,
      "start": 23.4305,
      "duration": 0.0153,
      "velocity": 127,
      "chip": "ym2612"
    },
    {
      "channel": 1,
      "note": 57,
      "start": 23.4307,
      "duration": 0.1242,
      "velocity": 113,
      "chip": "ym2612"
    },
    {
      "channel": 0,
      "note": 76,
      "start": 23.4459,
      "duration": 0.2337,
      "velocity": 127,
      "chip": "ym2612"
    },
    {
      "channel": 0,
      "note": 65,
      "start": 23.6795,
      "duration": 0.0153,
      "velocity": 127,
      "chip": "ym2612"
    },
    {
      "channel": 1,
      "note": 57,
      "start": 23.6797,
      "duration": 0.1242,
      "velocity": 113,
      "chip": "ym2612"
    },
    {
      "channel": 0,
      "note": 76,
      "start": 23.6949,
      "duration": 0.2337,
      "velocity": 123,
      "chip": "ym2612"
    },
    {
      "channel": 0,
      "note": 65,
      "start": 23.9286,
      "duration": 0.249,
      "velocity": 123,
      "chip": "ym2612"
    },
    {
      "channel": 1,
      "note": 57,
      "start": 23.9288,
      "duration": 0.1241,
      "velocity": 113,
      "chip": "ym2612"
    },
    {
      "channel": 3,
      "note": -1,
      "start": 23.9293,
      "duration": 3.9839,
      "velocity": 121,
      "chip": "ym2612"
    },
    {
      "channel": 5,
      "note": -1,
      "start": 23.9912,
      "duration": 3.9839,
      "velocity": 121,
      "chip": "ym2612"
    },
    {
      "channel": 0,
      "note": 52,
      "start": 24.1776,
      "duration": 0.249,
      "velocity": 123,
      "chip": "ym2612"
    },
    {
      "channel": 1,
      "note": 58,
      "start": 24.1777,
      "duration": 0.1242,
      "velocity": 113,
      "chip": "ym2612"
    },
    {
      "channel": 2,
      "note": 81,
      "start": 24.1778,
      "duration": 0.249,
      "velocity": 111,
      "chip": "ym2612"
    },
    {
      "channel": 4,
      "note": 81,
      "start": 24.3644,
      "duration": 0.249,
      "velocity": 111,
      "chip": "ym2612"
    },
    {
      "channel": 0,
      "note": 52,
      "start": 24.4266,
      "duration": 0.249,
      "velocity": 123,
      "chip": "ym2612"
    },
    {
      "channel": 1,
      "note": 58,
      "start": 24.4267,
      "duration": 0.1242,
      "velocity": 113,
      "chip": "ym2612"
    },
    {
      "channel": 2,
      "note": 74,
      "start": 24.4268,
      "duration": 0.249,
      "velocity": 111,
      "chip": "ym2612"
    },
    {
      "channel": 4,
      "note": 74,
      "start": 24.6134,
      "duration": 0.249,
      "velocity": 111,
      "chip": "ym2612"
    },
    {
      "channel": 0,
      "note": 52,
      "start": 24.6756,
      "duration": 0.249,
      "velocity": 127,
      "chip": "ym2612"
    },
    {
      "channel": 1,
      "note": 58,
      "start": 24.6757,
      "duration": 0.1242,
      "velocity": 113,
      "chip": "ym2612"
    },
    {
      "channel": 2,
      "note": 76,
      "start": 24.6758,
      "duration": 0.249,
      "velocity": 111,
      "chip": "ym2612"
    },
    {
      "channel": 4,
      "note": 76,
      "start": 24.8624,
      "duration": 0.249,
      "velocity": 111,
      "chip": "ym2612"
    },
    {
      "channel": 0,
      "note": 52,
      "start": 24.9246,
      "duration": 0.0153,
      "velocity": 127,
      "chip": "ym2612"
    },
    {
      "channel": 1,
      "note": 58,
      "start": 24.9248,
      "duration": 0.1242,
      "velocity": 113,
      "chip": "ym2612"
    },
    {
      "channel": 2,
      "note": 77,
      "start": 24.9249,
      "duration": 0.2491,
      "velocity": 111,
      "chip": "ym2612"
    },
    {
      "channel": 0,
      "note": 76,
      "start": 24.9399,
      "duration": 0.2338,
      "velocity": 127,
      "chip": "ym2612"
    },
    {
      "channel": 4,
      "note": 77,
      "start": 25.1115,
      "duration": 0.249,
      "velocity": 111,
      "chip": "ym2612"
    },
    {
      "channel": 0,
      "note": 65,
      "start": 25.1738,
      "duration": 0.0151,
      "velocity": 127,
      "chip": "ym2612"
    },
    {
      "channel": 1,
      "note": 58,
      "start": 25.1739,
      "duration": 0.1241,
      "velocity": 113,
      "chip": "ym2612"
    },
    {
      "channel": 2,
      "note": 79,
      "start": 25.174,
      "duration": 0.0773,
      "velocity": 111,
      "chip": "ym2612"
    },
    {
      "channel": 0,
      "note": 76,
      "start": 25.1889,
      "duration": 0.2337,
      "velocity": 127,
      "chip": "ym2612"
    },
    {
      "channel": 2,
      "note": 77,
      "start": 25.2514,
      "duration": 0.0934,
      "velocity": 111,
      "chip": "ym2612"
    },
    {
      "channel": 2,
      "note": 79,
      "start": 25.3447,
      "duration": 0.0781,
      "velocity": 111,
      "chip": "ym2612"
    },
    {
      "channel": 4,
      "note": 79,
      "start": 25.3605,
      "duration": 0.0778,
      "velocity": 111,
      "chip": "ym2612"
    },
    {
      "channel": 0,
      "note": 65,
      "start": 25.4226,
      "duration": 0.0153,
      "velocity": 127,
      "chip": "ym2612"
    },
    {
      "channel": 1,
      "note": 58,
      "start": 25.4227,
      "duration": 0.1242,
      "velocity": 113,
      "chip": "ym2612"
    },
    {
      "channel": 2,
      "note": 77,
      "start": 25.4229,
      "duration": 0.249,
      "velocity": 111,
      "chip": "ym2612"
    },
    {
      "channel": 0,
      "note": 76,
      "start": 25.438,
      "duration": 0.2337,
      "velocity": 127,
      "chip": "ym2612"
    },
    {
      "channel": 4,
      "note": 77,
      "start": 25.4383,
      "duration": 0.0933,
      "velocity": 111,
      "chip": "ym2612"
    },
    {
      "channel": 4,
      "note": 79,
      "start": 25.5317,
      "duration": 0.0778,
      "velocity": 111,
      "chip": "ym2612"
    },
    {
      "channel": 4,
      "note": 77,
      "start": 25.6095,
      "duration": 0.249,
      "velocity": 111,
      "chip": "ym2612"
    },
    {
      "channel": 0,
      "note": 65,
      "start": 25.6716,
      "duration": 0.0153,
      "velocity": 127,
      "chip": "ym2612"
    },
    {
      "channel": 1,
      "note": 58,
      "start": 25.6717,
      "duration": 0.1242,
      "velocity": 113,
      "chip": "ym2612"
    },
    {
      "channel": 2,
      "note": 76,
      "start": 25.6719,
      "duration": 0.249,
      "velocity": 111,
      "chip": "ym2612"
    },
    {
      "channel": 0,
      "note": 76,
      "start": 25.687,
      "duration": 0.2337,
      "velocity": 123,
      "chip": "ym2612"
    },
    {
      "channel": 4,
      "note": 76,
      "start": 25.8585,
      "duration": 0.249,
      "velocity": 111,
      "chip": "ym2612"
    },
    {
      "channel": 0,
      "note": 65,
      "start": 25.9207,
      "duration": 0.249,
      "velocity": 123,
      "chip": "ym2612"
    },
    {
      "channel": 1,
      "note": 58,
      "start": 25.9208,
      "duration": 0.1242,
      "velocity": 113,
      "chip": "ym2612"
    },
    {
      "channel": 2,
      "note": 74,
      "start": 25.9209,
      "duration": 0.747,
      "velocity": 111,
      "chip": "ym2612"
    },
    {
      "channel": 4,
      "note": 74,
      "start": 26.1076,
      "duration": 0.747,
      "velocity": 111,
      "chip": "ym2612"
    },
    {
      "channel": 0,
      "note": 52,
      "start": 26.1696,
      "duration": 0.249,
      "velocity": 123,
      "chip": "ym2612"
    },
    {
      "channel": 1,
      "note": 58,
      "start": 26.1698,
      "duration": 0.1242,
      "velocity": 113,
      "chip": "ym2612"
    },
    {
      "channel": 0,
      "note": 52,
      "start": 26.4187,
      "duration": 0.249,
      "velocity": 123,
      "chip": "ym2612"
    },
    {
      "channel": 1,
      "note": 58,
      "start": 26.4188,
      "duration": 0.1242,
      "velocity": 113,
      "chip": "ym2612"
    },
    {
      "channel": 0,
      "note": 52,
      "start": 26.6677,
      "duration": 0.249,
      "velocity": 127,
      "chip": "ym2612"
    },
    {
      "channel": 1,
      "note": 58,
      "start": 26.6678,
      "duration": 0.1242,
      "velocity": 113,
      "chip": "ym2612"
    },
    {
      "channel": 2,
      "note": 76,
      "start": 26.6679,
      "duration": 0.249,
      "velocity": 111,
      "chip": "ym2612"
    },
    {
      "channel": 4,
      "note": 76,
      "start": 26.8545,
      "duration": 0.249,
      "velocity": 111,
      "chip": "ym2612"
    },
    {
      "channel": 0,
      "note": 52,
      "start": 26.9167,
      "duration": 0.0153,
      "velocity": 127,
      "chip": "ym2612"
    },
    {
      "channel": 1,
      "note": 58,
      "start": 26.9168,
      "duration": 0.1242,
      "velocity": 113,
      "chip": "ym2612"
    },
    {
      "channel": 2,
      "note": 72,
      "start": 26.917,
      "duration": 0.249,
      "velocity": 111,
      "chip": "ym2612"
    },
    {
      "channel": 0,
      "note": 76,
      "start": 26.932,
      "duration": 0.2337,
      "velocity": 127,
      "chip": "ym2612"
    },
    {
      "channel": 4,
      "note": 72,
      "start": 27.1035,
      "duration": 0.249,
      "velocity": 111,
      "chip": "ym2612"
    },
    {
      "channel": 0,
      "note": 65,
      "start": 27.1657,
      "duration": 0.0153,
      "velocity": 127,
      "chip": "ym2612"
    },
    {
      "channel": 1,
      "note": 58,
      "start": 27.1658,
      "duration": 0.1242,
      "velocity": 113,
      "chip": "ym2612"
    },
    {
      "channel": 2,
      "note": 74,
      "start": 27.1659,
      "duration": 0.249,
      "velocity": 111,
      "chip": "ym2612"
    },
    {
      "channel": 0,
      "note": 76,
      "start": 27.181,
      "duration": 0.2337,
      "velocity": 127,
      "chip": "ym2612"
    },
    {
      "channel": 4,
      "note": 74,
      "start": 27.3526,
      "duration": 0.249,
      "velocity": 111,
      "chip": "ym2612"
    },
    {
      "channel": 0,
      "note": 65,
      "start": 27.4147,
      "duration": 0.0153,
      "velocity": 127,
      "chip": "ym2612"
    },
    {
      "channel": 1,
      "note": 58,
      "start": 27.4148,
      "duration": 0.1242,
      "velocity": 113,
      "chip": "ym2612"
    },
    {
      "channel": 2,
      "note": 76,
      "start": 27.4149,
      "duration": 0.249,
      "velocity": 111,
      "chip": "ym2612"
    },
    {
      "channel": 0,
      "note": 76,
      "start": 27.43,
      "duration": 0.2337,
      "velocity": 127,
      "chip": "ym2612"
    },
    {
      "channel": 4,
      "note": 76,
      "start": 27.6016,
      "duration": 0.249,
      "velocity": 111,
      "chip": "ym2612"
    },
    {
      "channel": 0,
      "note": 65,
      "start": 27.6637,
      "duration": 0.0153,
      "velocity": 127,
      "chip": "ym2612"
    },
    {
      "channel": 1,
      "note": 58,
      "start": 27.6638,
      "duration": 0.1242,
      "velocity": 113,
      "chip": "ym2612"
    },
    {
      "channel": 2,
      "note": 77,
      "start": 27.6639,
      "duration": 0.2491,
      "velocity": 111,
      "chip": "ym2612"
    },
    {
      "channel": 0,
      "note": 76,
      "start": 27.679,
      "duration": 0.2337,
      "velocity": 123,
      "chip": "ym2612"
    },
    {
      "channel": 4,
      "note": 77,
      "start": 27.8506,
      "duration": 0.249,
      "velocity": 111,
      "chip": "ym2612"
    },
    {
      "channel": 0,
      "note": 65,
      "start": 27.9127,
      "duration": 0.249,
      "velocity": 123,
      "chip": "ym2612"
    },
    {
      "channel": 1,
      "note": 58,
      "start": 27.9129,
      "duration": 0.1241,
      "velocity": 113,
      "chip": "ym2612"
    },
    {
      "channel": 2,
      "note": 79,
      "start": 27.913,
      "duration": 0.2489,
      "velocity": 111,
      "chip": "ym2612"
    },
    {
      "channel": 3,
      "note": 46,
      "start": 27.9132,
      "duration": 3.9842,
      "velocity": 121,
      "chip": "ym2612"
    },
    {
      "channel": 5,
      "note": 46,
      "start": 27.9751,
      "duration": 3.9841,
      "velocity": 121,
      "chip": "ym2612"
    },
    {
      "channel": 4,
      "note": 79,
      "start": 28.0996,
      "duration": 0.249,
      "velocity": 111,
      "chip": "ym2612"
    },
    {
      "channel": 0,
      "note": 52,
      "start": 28.1617,
      "duration": 0.249,
      "velocity": 123,
      "chip": "ym2612"
    },
    {
      "channel": 1,
      "note": 58,
      "start": 28.1619,
      "duration": 0.1242,
      "velocity": 113,
      "chip": "ym2612"
    },
    {
      "channel": 2,
      "note": 80,
      "start": 28.162,
      "duration": 0.0775,
      "velocity": 111,
      "chip": "ym2612"
    },
    {
      "channel": 2,
      "note": 79,
      "start": 28.2395,
      "duration": 0.0934,
      "velocity": 111,
      "chip": "ym2612"
    },
    {
      "channel": 2,
      "note": 80,
      "start": 28.3329,
      "duration": 0.0781,
      "velocity": 111,
      "chip": "ym2612"
    },
    {
      "channel": 4,
      "note": 80,
      "start": 28.3486,
      "duration": 0.0778,
      "velocity": 111,
      "chip": "ym2612"
    },
    {
      "channel": 0,
      "note": 52,
      "start": 28.4107,
      "duration": 0.249,
      "velocity": 123,
      "chip": "ym2612"
    },
    {
      "channel": 1,
      "note": 58,
      "start": 28.4109,
      "duration": 0.1242,
      "velocity": 113,
      "chip": "ym2612"
    },
    {
      "channel": 2,
      "note": 79,
      "start": 28.411,
      "duration": 0.249,
      "velocity": 111,
      "chip": "ym2612"
    },
    {
      "channel": 4,
      "note": 79,
      "start": 28.4264,
      "duration": 0.0934,
      "velocity": 111,
      "chip": "ym2612"
    },
    {
      "channel": 4,
      "note": 80,
      "start": 28.5198,
      "duration": 0.0778,
      "velocity": 111,
      "chip": "ym2612"
    },
    {
      "channel": 4,
      "note": 79,
      "start": 28.5976,
      "duration": 0.249,
      "velocity": 111,
      "chip": "ym2612"
    },
    {
      "channel": 0,
      "note": 52,
      "start": 28.6598,
      "duration": 0.249,
      "velocity": 127,
      "chip": "ym2612"
    },
    {
      "channel": 1,
      "note": 58,
      "start": 28.6599,
      "duration": 0.1242,
      "velocity": 113,
      "chip": "ym2612"
    },
    {
      "channel": 2,
      "note": 77,
      "start": 28.66,
      "duration": 0.249,
      "velocity": 111,
      "chip": "ym2612"
    },
    {
      "channel": 4,
      "note": 77,
      "start": 28.8466,
      "duration": 0.249,
      "velocity": 111,
      "chip": "ym2612"
    },
    {
      "channel": 0,
      "note": 52,
      "start": 28.9088,
      "duration": 0.0153,
      "velocity": 127,
      "chip": "ym2612"
    },
    {
      "channel": 1,
      "note": 58,
      "start": 28.9089,
      "duration": 0.1242,
      "velocity": 113,
      "chip": "ym2612"
    },
    {
      "channel": 2,
      "note": 76,
      "start": 28.909,
      "duration": 0.249,
      "velocity": 111,
      "chip": "ym2612"
    },
    {
      "channel": 0,
      "note": 76,
      "start": 28.9241,
      "duration": 0.2337,
      "velocity": 127,
      "chip": "ym2612"
    },
    {
      "channel": 4,
      "note": 76,
      "start": 29.0956,
      "duration": 0.249,
      "velocity": 111,
      "chip": "ym2612"
    },
    {
      "channel": 0,
      "note": 65,
      "start": 29.1578,
      "duration": 0.0153,
      "velocity": 127,
      "chip": "ym2612"
    },
    {
      "channel": 1,
      "note": 58,
      "start": 29.1579,
      "duration": 0.1242,
      "velocity": 113,
      "chip": "ym2612"
    },
    {
      "channel": 2,
      "note": 79,
      "start": 29.158,
      "duration": 0.0775,
      "velocity": 111,
      "chip": "ym2612"
    },
    {
      "channel": 0,
      "note": 76,
      "start": 29.1731,
      "duration": 0.2337,
      "velocity": 127,
      "chip": "ym2612"
    },
    {
      "channel": 2,
      "note": 77,
      "start": 29.2355,
      "duration": 0.0934,
      "velocity": 111,
      "chip": "ym2612"
    },
    {
      "channel": 2,
      "note": 79,
      "start": 29.3289,
      "duration": 0.0783,
      "velocity": 111,
      "chip": "ym2612"
    },
    {
      "channel": 4,
      "note": 79,
      "start": 29.3446,
      "duration": 0.0778,
      "velocity": 111,
      "chip": "ym2612"
    },
    {
      "channel": 0,
      "note": 65,
      "start": 29.4068,
      "duration": 0.0153,
      "velocity": 127,
      "chip": "ym2612"
    },
    {
      "channel": 1,
      "note": 58,
      "start": 29.4069,
      "duration": 0.1242,
      "velocity": 113,
      "chip": "ym2612"
    },
    {
      "channel": 2,
      "note": 77,
      "start": 29.4072,
      "duration": 0.2488,
      "velocity": 111,
      "chip": "ym2612"
    },
    {
      "channel": 0,
      "note": 76,
      "start": 29.4221,
      "duration": 0.2337,
      "velocity": 127,
      "chip": "ym2612"
    },
    {
      "channel": 4,
      "note": 77,
      "start": 29.4225,
      "duration": 0.0933,
      "velocity": 111,
      "chip": "ym2612"
    },
    {
      "channel": 4,
      "note": 79,
      "start": 29.5158,
      "duration": 0.0778,
      "velocity": 111,
      "chip": "ym2612"
    },
    {
      "channel": 4,
      "note": 77,
      "start": 29.5936,
      "duration": 0.249,
      "velocity": 111,
      "chip": "ym2612"
    },
    {
      "channel": 0,
      "note": 65,
      "start": 29.6558,
      "duration": 0.0153,
      "velocity": 127,
      "chip": "ym2612"
    },
    {
      "channel": 1,
      "note": 58,
      "start": 29.6559,
      "duration": 0.1242,
      "velocity": 113,
      "chip": "ym2612"
    },
    {
      "channel": 2,
      "note": 76,
      "start": 29.656,
      "duration": 0.249,
      "velocity": 111,
      "chip": "ym2612"
    },
    {
      "channel": 0,
      "note": 76,
      "start": 29.6711,
      "duration": 0.2337,
      "velocity": 123,
      "chip": "ym2612"
    },
    {
      "channel": 4,
      "note": 76,
      "start": 29.8427,
      "duration": 0.249,
      "velocity": 111,
      "chip": "ym2612"
    },
    {
      "channel": 0,
      "note": 65,
      "start": 29.9048,
      "duration": 0.249,
      "velocity": 123,
      "chip": "ym2612"
    },
    {
      "channel": 1,
      "note": 58,
      "start": 29.905,
      "duration": 0.1242,
      "velocity": 113,
      "chip": "ym2612"
    },
    {
      "channel": 2,
      "note": 74,
      "start": 29.9051,
      "duration": 0.2489,
      "velocity": 111,
      "chip": "ym2612"
    },
    {
      "channel": 4,
      "note": 74,
      "start": 30.0917,
      "duration": 0.2492,
      "velocity": 111,
      "chip": "ym2612"
    },
    {
      "channel": 0,
      "note": 52,
      "start": 30.1538,
      "duration": 0.249,
      "velocity": 123,
      "chip": "ym2612"
    },
    {
      "channel": 1,
      "note": 58,
      "start": 30.1539,
      "duration": 0.1242,
      "velocity": 113,
      "chip": "ym2612"
    },
    {
      "channel": 2,
      "note": 77,
      "start": 30.154,
      "duration": 0.249,
      "velocity": 111,
      "chip": "ym2612"
    },
    {
      "channel": 4,
      "note": 77,
      "start": 30.3408,
      "duration": 0.2488,
      "velocity": 111,
      "chip": "ym2612"
    },
    {
      "channel": 0,
      "note": 52,
      "start": 30.4028,
      "duration": 0.249,
      "velocity": 123,
      "chip": "ym2612"
    },
    {
      "channel": 1,
      "note": 58,
      "start": 30.4029,
      "duration": 0.1242,
      "velocity": 113,
      "chip": "ym2612"
    },
    {
      "channel": 2,
      "note": 76,
      "start": 30.4031,
      "duration": 0.249,
      "velocity": 111,
      "chip": "ym2612"
    },
    {
      "channel": 4,
      "note": 76,
      "start": 30.5897,
      "duration": 0.249,
      "velocity": 111,
      "chip": "ym2612"
    },
    {
      "channel": 0,
      "note": 52,
      "start": 30.6518,
      "duration": 0.249,
      "velocity": 127,
      "chip": "ym2612"
    },
    {
      "channel": 1,
      "note": 58,
      "start": 30.652,
      "duration": 0.1242,
      "velocity": 113,
      "chip": "ym2612"
    },
    {
      "channel": 2,
      "note": 74,
      "start": 30.6521,
      "duration": 0.249,
      "velocity": 111,
      "chip": "ym2612"
    },
    {
      "channel": 4,
      "note": 74,
      "start": 30.8387,
      "duration": 0.249,
      "velocity": 111,
      "chip": "ym2612"
    },
    {
      "channel": 0,
      "note": 52,
      "start": 30.9009,
      "duration": 0.0153,
      "velocity": 127,
      "chip": "ym2612"
    },
    {
      "channel": 1,
      "note": 58,
      "start": 30.901,
      "duration": 0.1242,
      "velocity": 113,
      "chip": "ym2612"
    },
    {
      "channel": 2,
      "note": 72,
      "start": 30.9011,
      "duration": 0.249,
      "velocity": 111,
      "chip": "ym2612"
    },
    {
      "channel": 0,
      "note": 76,
      "start": 30.9162,
      "duration": 0.2337,
      "velocity": 127,
      "chip": "ym2612"
    },
    {
      "channel": 4,
      "note": 72,
      "start": 31.0877,
      "duration": 0.249,
      "velocity": 111,
      "chip": "ym2612"
    },
    {
      "channel": 0,
      "note": 65,
      "start": 31.1498,
      "duration": 0.0153,
      "velocity": 127,
      "chip": "ym2612"
    },
    {
      "channel": 1,
      "note": 58,
      "start": 31.15,
      "duration": 0.1242,
      "velocity": 113,
      "chip": "ym2612"
    },
    {
      "channel": 2,
      "note": 74,
      "start": 31.1501,
      "duration": 0.249,
      "velocity": 111,
      "chip": "ym2612"
    },
    {
      "channel": 0,
      "note": 76,
      "start": 31.1652,
      "duration": 0.2337,
      "velocity": 127,
      "chip": "ym2612"
    },
    {
      "channel": 4,
      "note": 74,
      "start": 31.3367,
      "duration": 0.249,
      "velocity": 111,
      "chip": "ym2612"
    },
    {
      "channel": 0,
      "note": 65,
      "start": 31.3988,
      "duration": 0.0153,
      "velocity": 127,
      "chip": "ym2612"
    },
    {
      "channel": 1,
      "note": 58,
      "start": 31.399,
      "duration": 0.1242,
      "velocity": 113,
      "chip": "ym2612"
    },
    {
      "channel": 2,
      "note": 71,
      "start": 31.3991,
      "duration": 0.249,
      "velocity": 111,
      "chip": "ym2612"
    },
    {
      "channel": 0,
      "note": 76,
      "start": 31.4142,
      "duration": 0.2337,
      "velocity": 127,
      "chip": "ym2612"
    },
    {
      "channel": 4,
      "note": 71,
      "start": 31.5857,
      "duration": 0.249,
      "velocity": 111,
      "chip": "ym2612"
    },
    {
      "channel": 0,
      "note": 65,
      "start": 31.6479,
      "duration": 0.0153,
      "velocity": 127,
      "chip": "ym2612"
    },
    {
      "channel": 1,
      "note": 58,
      "start": 31.648,
      "duration": 0.1242,
      "velocity": 113,
      "chip": "ym2612"
    },
    {
      "channel": 2,
      "note": 72,
      "start": 31.6481,
      "duration": 0.2491,
      "velocity": 111,
      "chip": "ym2612"
    },
    {
      "channel": 0,
      "note": 76,
      "start": 31.6632,
      "duration": 0.2337,
      "velocity": 123,
      "chip": "ym2612"
    },
    {
      "channel": 4,
      "note": 72,
      "start": 31.8347,
      "duration": 0.249,
      "velocity": 111,
      "chip": "ym2612"
    },
    {
      "channel": 0,
      "note": 65,
      "start": 31.8969,
      "duration": 0.249,
      "velocity": 123,
      "chip": "ym2612"
    },
    {
      "channel": 1,
      "note": 58,
      "start": 31.8971,
      "duration": 0.1242,
      "velocity": 113,
      "chip": "ym2612"
    },
    {
      "channel": 2,
      "note": 74,
      "start": 31.8972,
      "duration": 0.7469,
      "velocity": 111,
      "chip": "ym2612"
    },
    {
      "channel": 3,
      "note": 46,
      "start": 31.8973,
      "duration": 0.7469,
      "velocity": 121,
      "chip": "ym2612"
    },
    {
      "channel": 5,
      "note": 46,
      "start": 31.9593,
      "duration": 0.747,
      "velocity": 121,
      "chip": "ym2612"
    },
    {
      "channel": 4,
      "note": 74,
      "start": 32.0837,
      "duration": 0.747,
      "velocity": 111,
      "chip": "ym2612"
    },
    {
      "channel": 0,
      "note": 52,
      "start": 32.1459,
      "duration": 0.249,
      "velocity": 123,
      "chip": "ym2612"
    },
    {
      "channel": 1,
      "note": 57,
      "start": 32.146,
      "duration": 0.1242,
      "velocity": 113,
      "chip": "ym2612"
    },
    {
      "channel": 0,
      "note": 52,
      "start": 32.3949,
      "duration": 0.249,
      "velocity": 123,
      "chip": "ym2612"
    },
    {
      "channel": 1,
      "note": 57,
      "start": 32.395,
      "duration": 0.1242,
      "velocity": 113,
      "chip": "ym2612"
    },
    {
      "channel": 0,
      "note": 52,
      "start": 32.6439,
      "duration": 0.249,
      "velocity": 127,
      "chip": "ym2612"
    },
    {
      "channel": 1,
      "note": 57,
      "start": 32.644,
      "duration": 0.1242,
      "velocity": 113,
      "chip": "ym2612"
    },
    {
      "channel": 2,
      "note": 76,
      "start": 32.6441,
      "duration": 0.249,
      "velocity": 111,
      "chip": "ym2612"
    },
    {
      "channel": 3,
      "note": 45,
      "start": 32.6443,
      "duration": 0.249,
      "velocity": 121,
      "chip": "ym2612"
    },
    {
      "channel": 5,
      "note": 45,
      "start": 32.7063,
      "duration": 0.249,
      "velocity": 121,
      "chip": "ym2612"
    },
    {
      "channel": 4,
      "note": 76,
      "start": 32.8308,
      "duration": 0.249,
      "velocity": 111,
      "chip": "ym2612"
    },
    {
      "channel": 0,
      "note": 52,
      "start": 32.8929,
      "duration": 0.0153,
      "velocity": 127,
      "chip": "ym2612"
    },
    {
      "channel": 1,
      "note": 57,
      "start": 32.8931,
      "duration": 0.1242,
      "velocity": 113,
      "chip": "ym2612"
    },
    {
      "channel": 0,
      "note": 76,
      "start": 32.9082,
      "duration": 0.2337,
      "velocity": 127,
      "chip": "ym2612"
    },
    {
      "channel": 0,
      "note": 65,
      "start": 33.1419,
      "duration": 0.0153,
      "velocity": 127,
      "chip": "ym2612"
    },
    {
      "channel": 1,
      "note": 57,
      "start": 33.142,
      "duration": 0.1242,
      "velocity": 113,
      "chip": "ym2612"
    },
    {
      "channel": 0,
      "note": 76,
      "start": 33.1573,
      "duration": 0.2337,
      "velocity": 127,
      "chip": "ym2612"
    },
    {
      "channel": 0,
      "note": 65,
      "start": 33.3909,
      "duration": 0.0153,
      "velocity": 127,
      "chip": "ym2612"
    },
    {
      "channel": 1,
      "note": 57,
      "start": 33.391,
      "duration": 0.1242,
      "velocity": 113,
      "chip": "ym2612"
    },
    {
      "channel": 0,
      "note": 76,
      "start": 33.4063,
      "duration": 0.2337,
      "velocity": 127,
      "chip": "ym2612"
    },
    {
      "channel": 0,
      "note": 65,
      "start": 33.6399,
      "duration": 0.0153,
      "velocity": 127,
      "chip": "ym2612"
    },
    {
      "channel": 1,
      "note": 57,
      "start": 33.6401,
      "duration": 0.1242,
      "velocity": 113,
      "chip": "ym2612"
    },
    {
      "channel": 0,
      "note": 76,
      "start": 33.6553,
      "duration": 0.2337,
      "velocity": 123,
      "chip": "ym2612"
    },
    {
      "channel": 0,
      "note": 65,
      "start": 33.889,
      "duration": 0.249,
      "velocity": 123,
      "chip": "ym2612"
    },
    {
      "channel": 1,
      "note": 57,
      "start": 33.8891,
      "duration": 0.1241,
      "velocity": 113,
      "chip": "ym2612"
    },
    {
      "channel": 0,
      "note": 52,
      "start": 34.138,
      "duration": 0.249,
      "velocity": 123,
      "chip": "ym2612"
    },
    {
      "channel": 1,
      "note": 57,
      "start": 34.1381,
      "duration": 0.1242,
      "velocity": 113,
      "chip": "ym2612"
    },
    {
      "channel": 0,
      "note": 52,
      "start": 34.387,
      "duration": 0.249,
      "velocity": 123,
      "chip": "ym2612"
    },
    {
      "channel": 1,
      "note": 57,
      "start": 34.3871,
      "duration": 0.1242,
      "velocity": 113,
      "chip": "ym2612"
    },
    {
      "channel": 0,
      "note": 52,
      "start": 34.636,
      "duration": 0.249,
      "velocity": 127,
      "chip": "ym2612"
    },
    {
      "channel": 1,
      "note": 57,
      "start": 34.6361,
      "duration": 0.1242,
      "velocity": 113,
      "chip": "ym2612"
    },
    {
      "channel": 0,
      "note": 52,
      "start": 34.885,
      "duration": 0.0153,
      "velocity": 127,
      "chip": "ym2612"
    },
    {
      "channel": 1,
      "note": 57,
      "start": 34.8851,
      "duration": 0.1242,
      "velocity": 113,
      "chip": "ym2612"
    },
    {
      "channel": 0,
      "note": 76,
      "start": 34.9003,
      "duration": 0.2337,
      "velocity": 127,
      "chip": "ym2612"
    },
    {
      "channel": 0,
      "note": 65,
      "start": 35.134,
      "duration": 0.0153,
      "velocity": 127,
      "chip": "ym2612"
    },
    {
      "channel": 1,
      "note": 57,
      "start": 35.1341,
      "duration": 0.1242,
      "velocity": 113,
      "chip": "ym2612"
    },
    {
      "channel": 0,
      "note": 76,
      "start": 35.1493,
      "duration": 0.2337,
      "velocity": 127,
      "chip": "ym2612"
    },
    {
      "channel": 0,
      "note": 65,
      "start": 35.383,
      "duration": 0.0153,
      "velocity": 127,
      "chip": "ym2612"
    },
    {
      "channel": 1,
      "note": 57,
      "start": 35.3831,
      "duration": 0.1242,
      "velocity": 113,
      "chip": "ym2612"
    },
    {
      "channel": 0,
      "note": 76,
      "start": 35.3983,
      "duration": 0.2337,
      "velocity": 127,
      "chip": "ym2612"
    },
    {
      "channel": 0,
      "note": 65,
      "start": 35.632,
      "duration": 0.0153,
      "velocity": 127,
      "chip": "ym2612"
    },
    {
      "channel": 1,
      "note": 57,
      "start": 35.6321,
      "duration": 0.1242,
      "velocity": 113,
      "chip": "ym2612"
    },
    {
      "channel": 2,
      "note": 69,
      "start": 35.6323,
      "duration": 0.249,
      "velocity": 111,
      "chip": "ym2612"
    },
    {
      "channel": 3,
      "note": 45,
      "start": 35.6326,
      "duration": 0.1239,
      "velocity": 101,
      "chip": "ym2612"
    },
    {
      "channel": 0,
      "note": 76,
      "start": 35.6473,
      "duration": 0.2337,
      "velocity": 123,
      "chip": "ym2612"
    },
    {
      "channel": 5,
      "note": 45,
      "start": 35.6947,
      "duration": 0.1243,
      "velocity": 101,
      "chip": "ym2612"
    },
    {
      "channel": 4,
      "note": 69,
      "start": 35.8189,
      "duration": 0.249,
      "velocity": 111,
      "chip": "ym2612"
    },
    {
      "channel": 0,
      "note": 65,
      "start": 35.8811,
      "duration": 0.249,
      "velocity": 123,
      "chip": "ym2612"
    },
    {
      "channel": 1,
      "note": 57,
      "start": 35.8812,
      "duration": 0.1242,
      "velocity": 113,
      "chip": "ym2612"
    },
    {
      "channel": 2,
      "note": 72,
      "start": 35.8813,
      "duration": 0.747,
      "velocity": 111,
      "chip": "ym2612"
    },
    {
      "channel": 3,
      "note": 84,
      "start": 35.8815,
      "duration": 0.747,
      "velocity": 101,
      "chip": "ym2612"
    },
    {
      "channel": 5,
      "note": 84,
      "start": 35.9434,
      "duration": 0.7473,
      "velocity": 101,
      "chip": "ym2612"
    },
    {
      "channel": 4,
      "note": 72,
      "start": 36.0679,
      "duration": 0.747,
      "velocity": 111,
      "chip": "ym2612"
    },
    {
      "channel": 0,
      "note": 52,
      "start": 36.13,
      "duration": 0.249,
      "velocity": 123,
      "chip": "ym2612"
    },
    {
      "channel": 1,
      "note": 57,
      "start": 36.1302,
      "duration": 0.1242,
      "velocity": 113,
      "chip": "ym2612"
    },
    {
      "channel": 0,
      "note": 52,
      "start": 36.379,
      "duration": 0.249,
      "velocity": 123,
      "chip": "ym2612"
    },
    {
      "channel": 1,
      "note": 57,
      "start": 36.3792,
      "duration": 0.1242,
      "velocity": 113,
      "chip": "ym2612"
    },
    {
      "channel": 0,
      "note": 52,
      "start": 36.628,
      "duration": 0.249,
      "velocity": 127,
      "chip": "ym2612"
    },
    {
      "channel": 1,
      "note": 57,
      "start": 36.6282,
      "duration": 0.1242,
      "velocity": 113,
      "chip": "ym2612"
    },
    {
      "channel": 2,
      "note": 74,
      "start": 36.6283,
      "duration": 0.249,
      "velocity": 111,
      "chip": "ym2612"
    },
    {
      "channel": 3,
      "note": 86,
      "start": 36.6284,
      "duration": 0.1552,
      "velocity": 101,
      "chip": "ym2612"
    },
    {
      "channel": 5,
      "note": 86,
      "start": 36.6907,
      "duration": 0.1554,
      "velocity": 101,
      "chip": "ym2612"
    },
    {
      "channel": 4,
      "note": 74,
      "start": 36.8149,
      "duration": 0.249,
      "velocity": 111,
      "chip": "ym2612"
    },
    {
      "channel": 0,
      "note": 52,
      "start": 36.8771,
      "duration": 0.0153,
      "velocity": 127,
      "chip": "ym2612"
    },
    {
      "channel": 1,
      "note": 57,
      "start": 36.8772,
      "duration": 0.1242,
      "velocity": 113,
      "chip": "ym2612"
    },
    {
      "channel": 3,
      "note": 81,
      "start": 36.8775,
      "duration": 0.1552,
      "velocity": 101,
      "chip": "ym2612"
    },
    {
      "channel": 0,
      "note": 76,
      "start": 36.8924,
      "duration": 0.2337,
      "velocity": 127,
      "chip": "ym2612"
    },
    {
      "channel": 5,
      "note": 81,
      "start": 36.9396,
      "duration": 0.1555,
      "velocity": 101,
      "chip": "ym2612"
    },
    {
      "channel": 0,
      "note": 65,
      "start": 37.1261,
      "duration": 0.0153,
      "velocity": 127,
      "chip": "ym2612"
    },
    {
      "channel": 1,
      "note": 57,
      "start": 37.1262,
      "duration": 0.1242,
      "velocity": 113,
      "chip": "ym2612"
    },
    {
      "channel": 3,
      "note": 81,
      "start": 37.1265,
      "duration": 0.1553,
      "velocity": 101,
      "chip": "ym2612"
    },
    {
      "channel": 0,
      "note": 76,
      "start": 37.1414,
      "duration": 0.2337,
      "velocity": 127,
      "chip": "ym2612"
    },
    {
      "channel": 5,
      "note": 81,
      "start": 37.1886,
      "duration": 0.1556,
      "velocity": 101,
      "chip": "ym2612"
    },
    {
      "channel": 0,
      "note": 65,
      "start": 37.3751,
      "duration": 0.0154,
      "velocity": 127,
      "chip": "ym2612"
    },
    {
      "channel": 1,
      "note": 57,
      "start": 37.3752,
      "duration": 0.1242,
      "velocity": 113,
      "chip": "ym2612"
    },
    {
      "channel": 3,
      "note": 81,
      "start": 37.3755,
      "duration": 0.1552,
      "velocity": 101,
      "chip": "ym2612"
    },
    {
      "channel": 0,
      "note": 76,
      "start": 37.3905,
      "duration": 0.2335,
      "velocity": 127,
      "chip": "ym2612"
    },
    {
      "channel": 5,
      "note": 81,
      "start": 37.4376,
      "duration": 0.1556,
      "velocity": 101,
      "chip": "ym2612"
    },
    {
      "channel": 0,
      "note": 65,
      "start": 37.6241,
      "duration": 0.0153,
      "velocity": 127,
      "chip": "ym2612"
    },
    {
      "channel": 1,
      "note": 57,
      "start": 37.6242,
      "duration": 0.1242,
      "velocity": 113,
      "chip": "ym2612"
    },
    {
      "channel": 3,
      "note": 81,
      "start": 37.6245,
      "duration": 0.1552,
      "velocity": 101,
      "chip": "ym2612"
    },
    {
      "channel": 0,
      "note": 76,
      "start": 37.6394,
      "duration": 0.2337,
      "velocity": 123,
      "chip": "ym2612"
    },
    {
      "channel": 5,
      "note": 81,
      "start": 37.6866,
      "duration": 0.1555,
      "velocity": 101,
      "chip": "ym2612"
    },
    {
      "channel": 0,
      "note": 65,
      "start": 37.8731,
      "duration": 0.249,
      "velocity": 123,
      "chip": "ym2612"
    },
    {
      "channel": 1,
      "note": 57,
      "start": 37.8733,
      "duration": 0.1241,
      "velocity": 113,
      "chip": "ym2612"
    },
    {
      "channel": 3,
      "note": 81,
      "start": 37.8736,
      "duration": 0.1552,
      "velocity": 101,
      "chip": "ym2612"
    },
    {
      "channel": 5,
      "note": 81,
      "start": 37.9356,
      "duration": 0.1556,
      "velocity": 101,
      "chip": "ym2612"
    },
    {
      "channel": 0,
      "note": 52,
      "start": 38.1221,
      "duration": 0.249,
      "velocity": 123,
      "chip": "ym2612"
    },
    {
      "channel": 1,
      "note": 57,
      "start": 38.1222,
      "duration": 0.1242,
      "velocity": 113,
      "chip": "ym2612"
    },
    {
      "channel": 3,
      "note": 81,
      "start": 38.1225,
      "duration": 0.1552,
      "velocity": 101,
      "chip": "ym2612"
    },
    {
      "channel": 5,
      "note": 81,
      "start": 38.1846,
      "duration": 0.1556,
      "velocity": 101,
      "chip": "ym2612"
    },
    {
      "channel": 0,
      "note": 52,
      "start": 38.3711,
      "duration": 0.249,
      "velocity": 123,
      "chip": "ym2612"
    },
    {
      "channel": 1,
      "note": 57,
      "start": 38.3712,
      "duration": 0.1242,
      "velocity": 113,
      "chip": "ym2612"
    },
    {
      "channel": 3,
      "note": 81,
      "start": 38.3715,
      "duration": 0.1552,
      "velocity": 101,
      "chip": "ym2612"
    },
    {
      "channel": 5,
      "note": 81,
      "start": 38.4337,
      "duration": 0.1555,
      "velocity": 101,
      "chip": "ym2612"
    },
    {
      "channel": 0,
      "note": 52,
      "start": 38.6201,
      "duration": 0.249,
      "velocity": 127,
      "chip": "ym2612"
    },
    {
      "channel": 1,
      "note": 57,
      "start": 38.6202,
      "duration": 0.1242,
      "velocity": 113,
      "chip": "ym2612"
    },
    {
      "channel": 3,
      "note": 81,
      "start": 38.6205,
      "duration": 0.1552,
      "velocity": 101,
      "chip": "ym2612"
    },
    {
      "channel": 5,
      "note": 81,
      "start": 38.6827,
      "duration": 0.1556,
      "velocity": 101,
      "chip": "ym2612"
    },
    {
      "channel": 0,
      "note": 52,
      "start": 38.8692,
      "duration": 0.0153,
      "velocity": 127,
      "chip": "ym2612"
    },
    {
      "channel": 1,
      "note": 57,
      "start": 38.8693,
      "duration": 0.1242,
      "velocity": 113,
      "chip": "ym2612"
    },
    {
      "channel": 0,
      "note": 76,
      "start": 38.8845,
      "duration": 0.2337,
      "velocity": 127,
      "chip": "ym2612"
    },
    {
      "channel": 0,
      "note": 65,
      "start": 39.1181,
      "duration": 0.0153,
      "velocity": 127,
      "chip": "ym2612"
    },
    {
      "channel": 1,
      "note": 57,
      "start": 39.1183,
      "duration": 0.1242,
      "velocity": 113,
      "chip": "ym2612"
    },
    {
      "channel": 0,
      "note": 76,
      "start": 39.1335,
      "duration": 0.2337,
      "velocity": 127,
      "chip": "ym2612"
    },
    {
      "channel": 0,
      "note": 65,
      "start": 39.3671,
      "duration": 0.0153,
      "velocity": 127,
      "chip": "ym2612"
    },
    {
      "channel": 1,
      "note": 57,
      "start": 39.3673,
      "duration": 0.1242,
      "velocity": 113,
      "chip": "ym2612"
    },
    {
      "channel": 0,
      "note": 76,
      "start": 39.3825,
      "duration": 0.2337,
      "velocity": 127,
      "chip": "ym2612"
    },
    {
      "channel": 0,
      "note": 65,
      "start": 39.6162,
      "duration": 0.0153,
      "velocity": 127,
      "chip": "ym2612"
    },
    {
      "channel": 1,
      "note": 57,
      "start": 39.6163,
      "duration": 0.1243,
      "velocity": 113,
      "chip": "ym2612"
    },
    {
      "channel": 0,
      "note": 76,
      "start": 39.6315,
      "duration": 0.2337,
      "velocity": 123,
      "chip": "ym2612"
    },
    {
      "channel": 0,
      "note": 65,
      "start": 39.8652,
      "duration": 0.249,
      "velocity": 123,
      "chip": "ym2612"
    },
    {
      "channel": 1,
      "note": 57,
      "start": 39.8654,
      "duration": 0.1241,
      "velocity": 113,
      "chip": "ym2612"
    },
    {
      "channel": 3,
      "note": 81,
      "start": 39.8659,
      "duration": 3.9839,
      "velocity": 121,
      "chip": "ym2612"
    },
    {
      "channel": 5,
      "note": 81,
      "start": 39.9278,
      "duration": 3.9839,
      "velocity": 121,
      "chip": "ym2612"
    },
    {
      "channel": 0,
      "note": 52,
      "start": 40.1142,
      "duration": 0.249,
      "velocity": 123,
      "chip": "ym2612"
    },
    {
      "channel": 1,
      "note": 58,
      "start": 40.1143,
      "duration": 0.1242,
      "velocity": 113,
      "chip": "ym2612"
    },
    {
      "channel": 2,
      "note": 69,
      "start": 40.1144,
      "duration": 0.249,
      "velocity": 111,
      "chip": "ym2612"
    },
    {
      "channel": 4,
      "note": 69,
      "start": 40.301,
      "duration": 0.249,
      "velocity": 111,
      "chip": "ym2612"
    },
    {
      "channel": 0,
      "note": 52,
      "start": 40.3632,
      "duration": 0.249,
      "velocity": 123,
      "chip": "ym2612"
    },
    {
      "channel": 1,
      "note": 58,
      "start": 40.3633,
      "duration": 0.1242,
      "velocity": 113,
      "chip": "ym2612"
    },
    {
      "channel": 2,
      "note": 74,
      "start": 40.3634,
      "duration": 0.249,
      "velocity": 111,
      "chip": "ym2612"
    },
    {
      "channel": 4,
      "note": 74,
      "start": 40.5501,
      "duration": 0.249,
      "velocity": 111,
      "chip": "ym2612"
    },
    {
      "channel": 0,
      "note": 52,
      "start": 40.6122,
      "duration": 0.249,
      "velocity": 127,
      "chip": "ym2612"
    },
    {
      "channel": 1,
      "note": 58,
      "start": 40.6123,
      "duration": 0.1242,
      "velocity": 113,
      "chip": "ym2612"
    },
    {
      "channel": 2,
      "note": 76,
      "start": 40.6124,
      "duration": 0.249,
      "velocity": 111,
      "chip": "ym2612"
    },
    {
      "channel": 4,
      "note": 76,
      "start": 40.7991,
      "duration": 0.249,
      "velocity": 111,
      "chip": "ym2612"
    },
    {
      "channel": 0,
      "note": 52,
      "start": 40.8612,
      "duration": 0.0153,
      "velocity": 127,
      "chip": "ym2612"
    },
    {
      "channel": 1,
      "note": 58,
      "start": 40.8614,
      "duration": 0.1242,
      "velocity": 113,
      "chip": "ym2612"
    },
    {
      "channel": 2,
      "note": 77,
      "start": 40.8615,
      "duration": 0.249,
      "velocity": 111,
      "chip": "ym2612"
    },
    {
      "channel": 0,
      "note": 76,
      "start": 40.8765,
      "duration": 0.2337,
      "velocity": 127,
      "chip": "ym2612"
    },
    {
      "channel": 4,
      "note": 77,
      "start": 41.0481,
      "duration": 0.249,
      "velocity": 111,
      "chip": "ym2612"
    },
    {
      "channel": 0,
      "note": 65,
      "start": 41.1102,
      "duration": 0.0153,
      "velocity": 127,
      "chip": "ym2612"
    },
    {
      "channel": 1,
      "note": 58,
      "start": 41.1103,
      "duration": 0.1242,
      "velocity": 113,
      "chip": "ym2612"
    },
    {
      "channel": 2,
      "note": 79,
      "start": 41.1105,
      "duration": 0.0775,
      "velocity": 111,
      "chip": "ym2612"
    },
    {
      "channel": 0,
      "note": 76,
      "start": 41.1256,
      "duration": 0.2337,
      "velocity": 127,
      "chip": "ym2612"
    },
    {
      "channel": 2,
      "note": 77,
      "start": 41.188,
      "duration": 0.0934,
      "velocity": 111,
      "chip": "ym2612"
    },
    {
      "channel": 2,
      "note": 79,
      "start": 41.2814,
      "duration": 0.0781,
      "velocity": 111,
      "chip": "ym2612"
    },
    {
      "channel": 4,
      "note": 79,
      "start": 41.2971,
      "duration": 0.0778,
      "velocity": 111,
      "chip": "ym2612"
    },
    {
      "channel": 0,
      "note": 65,
      "start": 41.3592,
      "duration": 0.0153,
      "velocity": 127,
      "chip": "ym2612"
    },
    {
      "channel": 1,
      "note": 58,
      "start": 41.3594,
      "duration": 0.1242,
      "velocity": 113,
      "chip": "ym2612"
    },
    {
      "channel": 2,
      "note": 77,
      "start": 41.3595,
      "duration": 0.249,
      "velocity": 111,
      "chip": "ym2612"
    },
    {
      "channel": 0,
      "note": 76,
      "start": 41.3746,
      "duration": 0.2337,
      "velocity": 127,
      "chip": "ym2612"
    },
    {
      "channel": 4,
      "note": 77,
      "start": 41.3749,
      "duration": 0.0933,
      "velocity": 111,
      "chip": "ym2612"
    },
    {
      "channel": 4,
      "note": 79,
      "start": 41.4683,
      "duration": 0.0778,
      "velocity": 111,
      "chip": "ym2612"
    },
    {
      "channel": 4,
      "note": 77,
      "start": 41.5461,
      "duration": 0.249,
      "velocity": 111,
      "chip": "ym2612"
    },
    {
      "channel": 0,
      "note": 65,
      "start": 41.6082,
      "duration": 0.0153,
      "velocity": 127,
      "chip": "ym2612"
    },
    {
      "channel": 1,
      "note": 58,
      "start": 41.6084,
      "duration": 0.1242,
      "velocity": 113,
      "chip": "ym2612"
    },
    {
      "channel": 2,
      "note": 76,
      "start": 41.6085,
      "duration": 0.2492,
      "velocity": 111,
      "chip": "ym2612"
    },
    {
      "channel": 0,
      "note": 76,
      "start": 41.6236,
      "duration": 0.2339,
      "velocity": 123,
      "chip": "ym2612"
    },
    {
      "channel": 4,
      "note": 76,
      "start": 41.7951,
      "duration": 0.249,
      "velocity": 111,
      "chip": "ym2612"
    },
    {
      "channel": 0,
      "note": 65,
      "start": 41.8575,
      "duration": 0.2488,
      "velocity": 123,
      "chip": "ym2612"
    },
    {
      "channel": 1,
      "note": 58,
      "start": 41.8576,
      "duration": 0.124,
      "velocity": 113,
      "chip": "ym2612"
    },
    {
      "channel": 2,
      "note": 74,
      "start": 41.8577,
      "duration": 0.7468,
      "velocity": 111,
      "chip": "ym2612"
    },
    {
      "channel": 4,
      "note": 74,
      "start": 42.0441,
      "duration": 0.747,
      "velocity": 111,
      "chip": "ym2612"
    },
    {
      "channel": 0,
      "note": 52,
      "start": 42.1063,
      "duration": 0.249,
      "velocity": 123,
      "chip": "ym2612"
    },
    {
      "channel": 1,
      "note": 58,
      "start": 42.1064,
      "duration": 0.1242,
      "velocity": 113,
      "chip": "ym2612"
    },
    {
      "channel": 0,
      "note": 52,
      "start": 42.3553,
      "duration": 0.249,
      "velocity": 123,
      "chip": "ym2612"
    },
    {
      "channel": 1,
      "note": 58,
      "start": 42.3554,
      "duration": 0.1242,
      "velocity": 113,
      "chip": "ym2612"
    },
    {
      "channel": 0,
      "note": 52,
      "start": 42.6043,
      "duration": 0.249,
      "velocity": 127,
      "chip": "ym2612"
    },
    {
      "channel": 1,
      "note": 58,
      "start": 42.6044,
      "duration": 0.1242,
      "velocity": 113,
      "chip": "ym2612"
    },
    {
      "channel": 2,
      "note": 76,
      "start": 42.6045,
      "duration": 0.249,
      "velocity": 111,
      "chip": "ym2612"
    },
    {
      "channel": 4,
      "note": 76,
      "start": 42.7911,
      "duration": 0.249,
      "velocity": 111,
      "chip": "ym2612"
    },
    {
      "channel": 0,
      "note": 52,
      "start": 42.8533,
      "duration": 0.0153,
      "velocity": 127,
      "chip": "ym2612"
    },
    {
      "channel": 1,
      "note": 58,
      "start": 42.8534,
      "duration": 0.1242,
      "velocity": 113,
      "chip": "ym2612"
    },
    {
      "channel": 2,
      "note": 72,
      "start": 42.8536,
      "duration": 0.249,
      "velocity": 111,
      "chip": "ym2612"
    },
    {
      "channel": 0,
      "note": 76,
      "start": 42.8686,
      "duration": 0.2337,
      "velocity": 127,
      "chip": "ym2612"
    },
    {
      "channel": 4,
      "note": 72,
      "start": 43.0402,
      "duration": 0.249,
      "velocity": 111,
      "chip": "ym2612"
    },
    {
      "channel": 0,
      "note": 65,
      "start": 43.1023,
      "duration": 0.0153,
      "velocity": 127,
      "chip": "ym2612"
    },
    {
      "channel": 1,
      "note": 58,
      "start": 43.1024,
      "duration": 0.1242,
      "velocity": 113,
      "chip": "ym2612"
    },
    {
      "channel": 2,
      "note": 74,
      "start": 43.1025,
      "duration": 0.249,
      "velocity": 111,
      "chip": "ym2612"
    },
    {
      "channel": 0,
      "note": 76,
      "start": 43.1176,
      "duration": 0.2337,
      "velocity": 127,
      "chip": "ym2612"
    },
    {
      "channel": 4,
      "note": 74,
      "start": 43.2892,
      "duration": 0.249,
      "velocity": 111,
      "chip": "ym2612"
    },
    {
      "channel": 0,
      "note": 65,
      "start": 43.3513,
      "duration": 0.0153,
      "velocity": 127,
      "chip": "ym2612"
    },
    {
      "channel": 1,
      "note": 58,
      "start": 43.3514,
      "duration": 0.1242,
      "velocity": 113,
      "chip": "ym2612"
    },
    {
      "channel": 2,
      "note": 76,
      "start": 43.3515,
      "duration": 0.249,
      "velocity": 111,
      "chip": "ym2612"
    },
    {
      "channel": 0,
      "note": 76,
      "start": 43.3666,
      "duration": 0.2337,
      "velocity": 127,
      "chip": "ym2612"
    },
    {
      "channel": 4,
      "note": 76,
      "start": 43.5382,
      "duration": 0.249,
      "velocity": 111,
      "chip": "ym2612"
    },
    {
      "channel": 0,
      "note": 65,
      "start": 43.6003,
      "duration": 0.0153,
      "velocity": 127,
      "chip": "ym2612"
    },
    {
      "channel": 1,
      "note": 58,
      "start": 43.6005,
      "duration": 0.1242,
      "velocity": 113,
      "chip": "ym2612"
    },
    {
      "channel": 2,
      "note": 77,
      "start": 43.6006,
      "duration": 0.249,
      "velocity": 111,
      "chip": "ym2612"
    },
    {
      "channel": 0,
      "note": 76,
      "start": 43.6156,
      "duration": 0.2337,
      "velocity": 123,
      "chip": "ym2612"
    },
    {
      "channel": 4,
      "note": 77,
      "start": 43.7872,
      "duration": 0.249,
      "velocity": 111,
      "chip": "ym2612"
    },
    {
      "channel": 0,
      "note": 65,
      "start": 43.8494,
      "duration": 0.249,
      "velocity": 123,
      "chip": "ym2612"
    },
    {
      "channel": 1,
      "note": 58,
      "start": 43.8495,
      "duration": 0.1244,
      "velocity": 113,
      "chip": "ym2612"
    },
    {
      "channel": 2,
      "note": 79,
      "start": 43.8496,
      "duration": 0.2489,
      "velocity": 111,
      "chip": "ym2612"
    },
    {
      "channel": 3,
      "note": 46,
      "start": 43.8498,
      "duration": 3.9842,
      "velocity": 121,
      "chip": "ym2612"
    },
    {
      "channel": 5,
      "note": 46,
      "start": 43.9117,
      "duration": 3.9841,
      "velocity": 121,
      "chip": "ym2612"
    },
    {
      "channel": 4,
      "note": 79,
      "start": 44.0362,
      "duration": 0.249,
      "velocity": 111,
      "chip": "ym2612"
    },
    {
      "channel": 0,
      "note": 52,
      "start": 44.0983,
      "duration": 0.249,
      "velocity": 123,
      "chip": "ym2612"
    },
    {
      "channel": 1,
      "note": 58,
      "start": 44.0985,
      "duration": 0.1242,
      "velocity": 113,
      "chip": "ym2612"
    },
    {
      "channel": 2,
      "note": 80,
      "start": 44.0986,
      "duration": 0.0775,
      "velocity": 111,
      "chip": "ym2612"
    },
    {
      "channel": 2,
      "note": 79,
      "start": 44.1761,
      "duration": 0.0934,
      "velocity": 111,
      "chip": "ym2612"
    },
    {
      "channel": 2,
      "note": 80,
      "start": 44.2695,
      "duration": 0.0781,
      "velocity": 111,
      "chip": "ym2612"
    },
    {
      "channel": 4,
      "note": 80,
      "start": 44.2852,
      "duration": 0.0778,
      "velocity": 111,
      "chip": "ym2612"
    },
    {
      "channel": 0,
      "note": 52,
      "start": 44.3473,
      "duration": 0.249,
      "velocity": 123,
      "chip": "ym2612"
    },
    {
      "channel": 1,
      "note": 58,
      "start": 44.3475,
      "duration": 0.1242,
      "velocity": 113,
      "chip": "ym2612"
    },
    {
      "channel": 2,
      "note": 79,
      "start": 44.3476,
      "duration": 0.249,
      "velocity": 111,
      "chip": "ym2612"
    },
    {
      "channel": 4,
      "note": 79,
      "start": 44.363,
      "duration": 0.0934,
      "velocity": 111,
      "chip": "ym2612"
    },
    {
      "channel": 4,
      "note": 80,
      "start": 44.4564,
      "duration": 0.0778,
      "velocity": 111,
      "chip": "ym2612"
    },
    {
      "channel": 4,
      "note": 79,
      "start": 44.5342,
      "duration": 0.249,
      "velocity": 111,
      "chip": "ym2612"
    },
    {
      "channel": 0,
      "note": 52,
      "start": 44.5963,
      "duration": 0.249,
      "velocity": 127,
      "chip": "ym2612"
    },
    {
      "channel": 1,
      "note": 58,
      "start": 44.5965,
      "duration": 0.1242,
      "velocity": 113,
      "chip": "ym2612"
    },
    {
      "channel": 2,
      "note": 77,
      "start": 44.5966,
      "duration": 0.249,
      "velocity": 111,
      "chip": "ym2612"
    },
    {
      "channel": 4,
      "note": 77,
      "start": 44.7832,
      "duration": 0.249,
      "velocity": 111,
      "chip": "ym2612"
    },
    {
      "channel": 0,
      "note": 52,
      "start": 44.8454,
      "duration": 0.0153,
      "velocity": 127,
      "chip": "ym2612"
    },
    {
      "channel": 1,
      "note": 58,
      "start": 44.8455,
      "duration": 0.1242,
      "velocity": 113,
      "chip": "ym2612"
    },
    {
      "channel": 2,
      "note": 76,
      "start": 44.8456,
      "duration": 0.249,
      "velocity": 111,
      "chip": "ym2612"
    },
    {
      "channel": 0,
      "note": 76,
      "start": 44.8607,
      "duration": 0.2337,
      "velocity": 127,
      "chip": "ym2612"
    },
    {
      "channel": 4,
      "note": 76,
      "start": 45.0322,
      "duration": 0.249,
      "velocity": 111,
      "chip": "ym2612"
    },
    {
      "channel": 0,
      "note": 65,
      "start": 45.0944,
      "duration": 0.0153,
      "velocity": 127,
      "chip": "ym2612"
    },
    {
      "channel": 1,
      "note": 58,
      "start": 45.0945,
      "duration": 0.1242,
      "velocity": 113,
      "chip": "ym2612"
    },
    {
      "channel": 2,
      "note": 79,
      "start": 45.0946,
      "duration": 0.0775,
      "velocity": 111,
      "chip": "ym2612"
    },
    {
      "channel": 0,
      "note": 76,
      "start": 45.1097,
      "duration": 0.2337,
      "velocity": 127,
      "chip": "ym2612"
    },
    {
      "channel": 2,
      "note": 77,
      "start": 45.1721,
      "duration": 0.0934,
      "velocity": 111,
      "chip": "ym2612"
    },
    {
      "channel": 2,
      "note": 79,
      "start": 45.2655,
      "duration": 0.0781,
      "velocity": 111,
      "chip": "ym2612"
    },
    {
      "channel": 4,
      "note": 79,
      "start": 45.2812,
      "duration": 0.0778,
      "velocity": 111,
      "chip": "ym2612"
    },
    {
      "channel": 0,
      "note": 65,
      "start": 45.3434,
      "duration": 0.0153,
      "velocity": 127,
      "chip": "ym2612"
    },
    {
      "channel": 1,
      "note": 58,
      "start": 45.3435,
      "duration": 0.1242,
      "velocity": 113,
      "chip": "ym2612"
    },
    {
      "channel": 2,
      "note": 77,
      "start": 45.3436,
      "duration": 0.249,
      "velocity": 111,
      "chip": "ym2612"
    },
    {
      "channel": 0,
      "note": 76,
      "start": 45.3587,
      "duration": 0.2337,
      "velocity": 127,
      "chip": "ym2612"
    },
    {
      "channel": 4,
      "note": 77,
      "start": 45.3591,
      "duration": 0.0933,
      "velocity": 111,
      "chip": "ym2612"
    },
    {
      "channel": 4,
      "note": 79,
      "start": 45.4524,
      "duration": 0.0778,
      "velocity": 111,
      "chip": "ym2612"
    },
    {
      "channel": 4,
      "note": 77,
      "start": 45.5302,
      "duration": 0.249,
      "velocity": 111,
      "chip": "ym2612"
    },
    {
      "channel": 0,
      "note": 65,
      "start": 45.5924,
      "duration": 0.0153,
      "velocity": 127,
      "chip": "ym2612"
    },
    {
      "channel": 1,
      "note": 58,
      "start": 45.5925,
      "duration": 0.1242,
      "velocity": 113,
      "chip": "ym2612"
    },
    {
      "channel": 2,
      "note": 76,
      "start": 45.5926,
      "duration": 0.2491,
      "velocity": 111,
      "chip": "ym2612"
    },
    {
      "channel": 0,
      "note": 76,
      "start": 45.6077,
      "duration": 0.2337,
      "velocity": 123,
      "chip": "ym2612"
    },
    {
      "channel": 4,
      "note": 76,
      "start": 45.7793,
      "duration": 0.249,
      "velocity": 111,
      "chip": "ym2612"
    },
    {
      "channel": 0,
      "note": 65,
      "start": 45.8415,
      "duration": 0.2491,
      "velocity": 123,
      "chip": "ym2612"
    },
    {
      "channel": 1,
      "note": 58,
      "start": 45.8416,
      "duration": 0.1242,
      "velocity": 113,
      "chip": "ym2612"
    },
    {
      "channel": 2,
      "note": 74,
      "start": 45.8417,
      "duration": 0.2491,
      "velocity": 111,
      "chip": "ym2612"
    },
    {
      "channel": 4,
      "note": 74,
      "start": 46.0283,
      "duration": 0.249,
      "velocity": 111,
      "chip": "ym2612"
    },
    {
      "channel": 0,
      "note": 52,
      "start": 46.0906,
      "duration": 0.2488,
      "velocity": 123,
      "chip": "ym2612"
    },
    {
      "channel": 1,
      "note": 58,
      "start": 46.0907,
      "duration": 0.1241,
      "velocity": 113,
      "chip": "ym2612"
    },
    {
      "channel": 2,
      "note": 77,
      "start": 46.0908,
      "duration": 0.2488,
      "velocity": 111,
      "chip": "ym2612"
    },
    {
      "channel": 4,
      "note": 77,
      "start": 46.2773,
      "duration": 0.249,
      "velocity": 111,
      "chip": "ym2612"
    },
    {
      "channel": 0,
      "note": 52,
      "start": 46.3394,
      "duration": 0.249,
      "velocity": 123,
      "chip": "ym2612"
    },
    {
      "channel": 1,
      "note": 58,
      "start": 46.3395,
      "duration": 0.1242,
      "velocity": 113,
      "chip": "ym2612"
    },
    {
      "channel": 2,
      "note": 76,
      "start": 46.3397,
      "duration": 0.249,
      "velocity": 111,
      "chip": "ym2612"
    },
    {
      "channel": 4,
      "note": 76,
      "start": 46.5263,
      "duration": 0.249,
      "velocity": 111,
      "chip": "ym2612"
    },
    {
      "channel": 0,
      "note": 52,
      "start": 46.5884,
      "duration": 0.249,
      "velocity": 127,
      "chip": "ym2612"
    },
    {
      "channel": 1,
      "note": 58,
      "start": 46.5885,
      "duration": 0.1242,
      "velocity": 113,
      "chip": "ym2612"
    },
    {
      "channel": 2,
      "note": 74,
      "start": 46.5887,
      "duration": 0.249,
      "velocity": 111,
      "chip": "ym2612"
    },
    {
      "channel": 4,
      "note": 74,
      "start": 46.7753,
      "duration": 0.249,
      "velocity": 111,
      "chip": "ym2612"
    },
    {
      "channel": 0,
      "note": 52,
      "start": 46.8375,
      "duration": 0.0153,
      "velocity": 127,
      "chip": "ym2612"
    },
    {
      "channel": 1,
      "note": 58,
      "start": 46.8376,
      "duration": 0.1242,
      "velocity": 113,
      "chip": "ym2612"
    },
    {
      "channel": 2,
      "note": 72,
      "start": 46.8377,
      "duration": 0.249,
      "velocity": 111,
      "chip": "ym2612"
    },
    {
      "channel": 0,
      "note": 76,
      "start": 46.8528,
      "duration": 0.2337,
      "velocity": 127,
      "chip": "ym2612"
    },
    {
      "channel": 4,
      "note": 72,
      "start": 47.0243,
      "duration": 0.249,
      "velocity": 111,
      "chip": "ym2612"
    },
    {
      "channel": 0,
      "note": 65,
      "start": 47.0864,
      "duration": 0.0153,
      "velocity": 127,
      "chip": "ym2612"
    },
    {
      "channel": 1,
      "note": 58,
      "start": 47.0866,
      "duration": 0.1242,
      "velocity": 113,
      "chip": "ym2612"
    },
    {
      "channel": 2,
      "note": 74,
      "start": 47.0867,
      "duration": 0.249,
      "velocity": 111,
      "chip": "ym2612"
    },
    {
      "channel": 0,
      "note": 76,
      "start": 47.1018,
      "duration": 0.2337,
      "velocity": 127,
      "chip": "ym2612"
    },
    {
      "channel": 4,
      "note": 74,
      "start": 47.2733,
      "duration": 0.249,
      "velocity": 111,
      "chip": "ym2612"
    },
    {
      "channel": 0,
      "note": 65,
      "start": 47.3355,
      "duration": 0.0153,
      "velocity": 127,
      "chip": "ym2612"
    },
    {
      "channel": 1,
      "note": 58,
      "start": 47.3356,
      "duration": 0.1242,
      "velocity": 113,
      "chip": "ym2612"
    },
    {
      "channel": 2,
      "note": 71,
      "start": 47.3357,
      "duration": 0.249,
      "velocity": 111,
      "chip": "ym2612"
    },
    {
      "channel": 0,
      "note": 76,
      "start": 47.3508,
      "duration": 0.2337,
      "velocity": 127,
      "chip": "ym2612"
    },
    {
      "channel": 4,
      "note": 71,
      "start": 47.5223,
      "duration": 0.249,
      "velocity": 111,
      "chip": "ym2612"
    },
    {
      "channel": 0,
      "note": 65,
      "start": 47.5845,
      "duration": 0.0153,
      "velocity": 127,
      "chip": "ym2612"
    },
    {
      "channel": 1,
      "note": 58,
      "start": 47.5846,
      "duration": 0.1242,
      "velocity": 113,
      "chip": "ym2612"
    },
    {
      "channel": 2,
      "note": 72,
      "start": 47.5847,
      "duration": 0.2491,
      "velocity": 111,
      "chip": "ym2612"
    },
    {
      "channel": 0,
      "note": 76,
      "start": 47.5998,
      "duration": 0.2337,
      "velocity": 123,
      "chip": "ym2612"
    },
    {
      "channel": 4,
      "note": 72,
      "start": 47.7713,
      "duration": 0.249,
      "velocity": 111,
      "chip": "ym2612"
    },
    {
      "channel": 0,
      "note": 65,
      "start": 47.8335,
      "duration": 0.249,
      "velocity": 123,
      "chip": "ym2612"
    },
    {
      "channel": 1,
      "note": 58,
      "start": 47.8337,
      "duration": 0.1241,
      "velocity": 113,
      "chip": "ym2612"
    },
    {
      "channel": 2,
      "note": 74,
      "start": 47.8338,
      "duration": 0.7469,
      "velocity": 111,
      "chip": "ym2612"
    },
    {
      "channel": 3,
      "note": 46,
      "start": 47.8339,
      "duration": 0.7469,
      "velocity": 121,
      "chip": "ym2612"
    },
    {
      "channel": 5,
      "note": 46,
      "start": 47.8959,
      "duration": 0.7471,
      "velocity": 121,
      "chip": "ym2612"
    },
    {
      "channel": 4,
      "note": 74,
      "start": 48.0203,
      "duration": 0.747,
      "velocity": 111,
      "chip": "ym2612"
    },
    {
      "channel": 0,
      "note": 52,
      "start": 48.0825,
      "duration": 0.249,
      "velocity": 123,
      "chip": "ym2612"
    },
    {
      "channel": 1,
      "note": 57,
      "start": 48.0826,
      "duration": 0.1242,
      "velocity": 113,
      "chip": "ym2612"
    },
    {
      "channel": 0,
      "note": 52,
      "start": 48.3315,
      "duration": 0.249,
      "velocity": 123,
      "chip": "ym2612"
    },
    {
      "channel": 1,
      "note": 57,
      "start": 48.3316,
      "duration": 0.1242,
      "velocity": 113,
      "chip": "ym2612"
    },
    {
      "channel": 0,
      "note": 52,
      "start": 48.5805,
      "duration": 0.249,
      "velocity": 127,
      "chip": "ym2612"
    },
    {
      "channel": 1,
      "note": 57,
      "start": 48.5806,
      "duration": 0.1242,
      "velocity": 113,
      "chip": "ym2612"
    },
    {
      "channel": 2,
      "note": 76,
      "start": 48.5807,
      "duration": 0.249,
      "velocity": 111,
      "chip": "ym2612"
    },
    {
      "channel": 3,
      "note": 45,
      "start": 48.5809,
      "duration": 0.249,
      "velocity": 121,
      "chip": "ym2612"
    },
    {
      "channel": 5,
      "note": 45,
      "start": 48.6429,
      "duration": 0.249,
      "velocity": 121,
      "chip": "ym2612"
    },
    {
      "channel": 4,
      "note": 76,
      "start": 48.7674,
      "duration": 0.249,
      "velocity": 111,
      "chip": "ym2612"
    },
    {
      "channel": 0,
      "note": 52,
      "start": 48.8295,
      "duration": 0.0153,
      "velocity": 127,
      "chip": "ym2612"
    },
    {
      "channel": 1,
      "note": 57,
      "start": 48.8297,
      "duration": 0.1242,
      "velocity": 113,
      "chip": "ym2612"
    },
    {
      "channel": 0,
      "note": 76,
      "start": 48.8449,
      "duration": 0.2337,
      "velocity": 127,
      "chip": "ym2612"
    },
    {
      "channel": 0,
      "note": 65,
      "start": 49.0785,
      "duration": 0.0153,
      "velocity": 127,
      "chip": "ym2612"
    },
    {
      "channel": 1,
      "note": 57,
      "start": 49.0787,
      "duration": 0.1242,
      "velocity": 113,
      "chip": "ym2612"
    },
    {
      "channel": 0,
      "note": 76,
      "start": 49.0939,
      "duration": 0.2337,
      "velocity": 127,
      "chip": "ym2612"
    },
    {
      "channel": 0,
      "note": 65,
      "start": 49.3275,
      "duration": 0.0153,
      "velocity": 127,
      "chip": "ym2612"
    },
    {
      "channel": 1,
      "note": 57,
      "start": 49.3277,
      "duration": 0.1242,
      "velocity": 113,
      "chip": "ym2612"
    },
    {
      "channel": 0,
      "note": 76,
      "start": 49.3429,
      "duration": 0.2337,
      "velocity": 127,
      "chip": "ym2612"
    },
    {
      "channel": 0,
      "note": 65,
      "start": 49.5766,
      "duration": 0.0153,
      "velocity": 127,
      "chip": "ym2612"
    },
    {
      "channel": 1,
      "note": 57,
      "start": 49.5767,
      "duration": 0.1242,
      "velocity": 113,
      "chip": "ym2612"
    },
    {
      "channel": 0,
      "note": 76,
      "start": 49.5919,
      "duration": 0.2337,
      "velocity": 123,
      "chip": "ym2612"
    },
    {
      "channel": 0,
      "note": 65,
      "start": 49.8256,
      "duration": 0.249,
      "velocity": 123,
      "chip": "ym2612"
    },
    {
      "channel": 1,
      "note": 57,
      "start": 49.8257,
      "duration": 0.1242,
      "velocity": 113,
      "chip": "ym2612"
    },
    {
      "channel": 0,
      "note": 52,
      "start": 50.0746,
      "duration": 0.249,
      "velocity": 123,
      "chip": "ym2612"
    },
    {
      "channel": 1,
      "note": 57,
      "start": 50.0747,
      "duration": 0.1242,
      "velocity": 113,
      "chip": "ym2612"
    },
    {
      "channel": 0,
      "note": 52,
      "start": 50.3237,
      "duration": 0.2488,
      "velocity": 123,
      "chip": "ym2612"
    },
    {
      "channel": 1,
      "note": 57,
      "start": 50.3239,
      "duration": 0.124,
      "velocity": 113,
      "chip": "ym2612"
    },
    {
      "channel": 0,
      "note": 52,
      "start": 50.5726,
      "duration": 0.249,
      "velocity": 127,
      "chip": "ym2612"
    },
    {
      "channel": 1,
      "note": 57,
      "start": 50.5727,
      "duration": 0.1242,
      "velocity": 113,
      "chip": "ym2612"
    },
    {
      "channel": 0,
      "note": 52,
      "start": 50.8216,
      "duration": 0.0153,
      "velocity": 127,
      "chip": "ym2612"
    },
    {
      "channel": 1,
      "note": 57,
      "start": 50.8218,
      "duration": 0.1242,
      "velocity": 113,
      "chip": "ym2612"
    },
    {
      "channel": 0,
      "note": 76,
      "start": 50.8369,
      "duration": 0.2337,
      "velocity": 127,
      "chip": "ym2612"
    },
    {
      "channel": 0,
      "note": 65,
      "start": 51.0706,
      "duration": 0.0153,
      "velocity": 127,
      "chip": "ym2612"
    },
    {
      "channel": 1,
      "note": 57,
      "start": 51.0707,
      "duration": 0.1242,
      "velocity": 113,
      "chip": "ym2612"
    },
    {
      "channel": 0,
      "note": 76,
      "start": 51.0859,
      "duration": 0.2337,
      "velocity": 127,
      "chip": "ym2612"
    },
    {
      "channel": 0,
      "note": 65,
      "start": 51.3196,
      "duration": 0.0153,
      "velocity": 127,
      "chip": "ym2612"
    },
    {
      "channel": 1,
      "note": 57,
      "start": 51.3197,
      "duration": 0.1242,
      "velocity": 113,
      "chip": "ym2612"
    },
    {
      "channel": 0,
      "note": 76,
      "start": 51.3349,
      "duration": 0.2337,
      "velocity": 127,
      "chip": "ym2612"
    },
    {
      "channel": 0,
      "note": 65,
      "start": 51.5686,
      "duration": 0.0153,
      "velocity": 127,
      "chip": "ym2612"
    },
    {
      "channel": 1,
      "note": 57,
      "start": 51.5688,
      "duration": 0.1242,
      "velocity": 113,
      "chip": "ym2612"
    },
    {
      "channel": 2,
      "note": 69,
      "start": 51.5689,
      "duration": 0.249,
      "velocity": 111,
      "chip": "ym2612"
    },
    {
      "channel": 3,
      "note": 45,
      "start": 51.5692,
      "duration": 0.1239,
      "velocity": 101,
      "chip": "ym2612"
    },
    {
      "channel": 0,
      "note": 76,
      "start": 51.5839,
      "duration": 0.2337,
      "velocity": 123,
      "chip": "ym2612"
    },
    {
      "channel": 5,
      "note": 45,
      "start": 51.6313,
      "duration": 0.1243,
      "velocity": 101,
      "chip": "ym2612"
    },
    {
      "channel": 4,
      "note": 69,
      "start": 51.7555,
      "duration": 0.249,
      "velocity": 111,
      "chip": "ym2612"
    },
    {
      "channel": 0,
      "note": 65,
      "start": 51.8177,
      "duration": 0.249,
      "velocity": 123,
      "chip": "ym2612"
    },
    {
      "channel": 1,
      "note": 57,
      "start": 51.8178,
      "duration": 0.1241,
      "velocity": 113,
      "chip": "ym2612"
    },
    {
      "channel": 2,
      "note": 74,
      "start": 51.8179,
      "duration": 0.747,
      "velocity": 111,
      "chip": "ym2612"
    },
    {
      "channel": 3,
      "note": 88,
      "start": 51.818,
      "duration": 0.747,
      "velocity": 101,
      "chip": "ym2612"
    },
    {
      "channel": 5,
      "note": 88,
      "start": 51.8801,
      "duration": 0.7471,
      "velocity": 101,
      "chip": "ym2612"
    },
    {
      "channel": 4,
      "note": 74,
      "start": 52.0045,
      "duration": 0.747,
      "velocity": 111,
      "chip": "ym2612"
    },
    {
      "channel": 0,
      "note": 52,
      "start": 52.0666,
      "duration": 0.249,
      "velocity": 123,
      "chip": "ym2612"
    },
    {
      "channel": 1,
      "note": 57,
      "start": 52.0668,
      "duration": 0.1242,
      "velocity": 113,
      "chip": "ym2612"
    },
    {
      "channel": 0,
      "note": 52,
      "start": 52.3156,
      "duration": 0.249,
      "velocity": 123,
      "chip": "ym2612"
    },
    {
      "channel": 1,
      "note": 57,
      "start": 52.3158,
      "duration": 0.1242,
      "velocity": 113,
      "chip": "ym2612"
    },
    {
      "channel": 0,
      "note": 52,
      "start": 52.5646,
      "duration": 0.249,
      "velocity": 127,
      "chip": "ym2612"
    },
    {
      "channel": 1,
      "note": 57,
      "start": 52.5648,
      "duration": 0.1242,
      "velocity": 113,
      "chip": "ym2612"
    },
    {
      "channel": 2,
      "note": 76,
      "start": 52.5649,
      "duration": 0.249,
      "velocity": 111,
      "chip": "ym2612"
    },
    {
      "channel": 3,
      "note": 91,
      "start": 52.5651,
      "duration": 0.1552,
      "velocity": 101,
      "chip": "ym2612"
    },
    {
      "channel": 5,
      "note": 91,
      "start": 52.6272,
      "duration": 0.1556,
      "velocity": 101,
      "chip": "ym2612"
    },
    {
      "channel": 4,
      "note": 76,
      "start": 52.7515,
      "duration": 0.249,
      "velocity": 111,
      "chip": "ym2612"
    },
    {
      "channel": 0,
      "note": 52,
      "start": 52.8137,
      "duration": 0.0153,
      "velocity": 127,
      "chip": "ym2612"
    },
    {
      "channel": 1,
      "note": 57,
      "start": 52.8138,
      "duration": 0.1242,
      "velocity": 113,
      "chip": "ym2612"
    },
    {
      "channel": 3,
      "note": 93,
      "start": 52.8141,
      "duration": 0.1552,
      "velocity": 101,
      "chip": "ym2612"
    },
    {
      "channel": 0,
      "note": 76,
      "start": 52.829,
      "duration": 0.2337,
      "velocity": 127,
      "chip": "ym2612"
    },
    {
      "channel": 5,
      "note": 93,
      "start": 52.8762,
      "duration": 0.1556,
      "velocity": 101,
      "chip": "ym2612"
    },
    {
      "channel": 0,
      "note": 65,
      "start": 53.0627,
      "duration": 0.0153,
      "velocity": 127,
      "chip": "ym2612"
    },
    {
      "channel": 1,
      "note": 57,
      "start": 53.0628,
      "duration": 0.1242,
      "velocity": 113,
      "chip": "ym2612"
    },
    {
      "channel": 3,
      "note": 93,
      "start": 53.0631,
      "duration": 0.1552,
      "velocity": 101,
      "chip": "ym2612"
    },
    {
      "channel": 0,
      "note": 76,
      "start": 53.078,
      "duration": 0.2337,
      "velocity": 127,
      "chip": "ym2612"
    },
    {
      "channel": 5,
      "note": 93,
      "start": 53.1252,
      "duration": 0.1555,
      "velocity": 101,
      "chip": "ym2612"
    },
    {
      "channel": 0,
      "note": 65,
      "start": 53.3117,
      "duration": 0.0153,
      "velocity": 127,
      "chip": "ym2612"
    },
    {
      "channel": 1,
      "note": 57,
      "start": 53.3118,
      "duration": 0.1242,
      "velocity": 113,
      "chip": "ym2612"
    },
    {
      "channel": 3,
      "note": 93,
      "start": 53.3121,
      "duration": 0.1552,
      "velocity": 101,
      "chip": "ym2612"
    },
    {
      "channel": 0,
      "note": 76,
      "start": 53.327,
      "duration": 0.2337,
      "velocity": 127,
      "chip": "ym2612"
    },
    {
      "channel": 5,
      "note": 93,
      "start": 53.3744,
      "duration": 0.1554,
      "velocity": 101,
      "chip": "ym2612"
    },
    {
      "channel": 0,
      "note": 65,
      "start": 53.5607,
      "duration": 0.0153,
      "velocity": 127,
      "chip": "ym2612"
    },
    {
      "channel": 1,
      "note": 57,
      "start": 53.5608,
      "duration": 0.1242,
      "velocity": 113,
      "chip": "ym2612"
    },
    {
      "channel": 3,
      "note": 93,
      "start": 53.5611,
      "duration": 0.1552,
      "velocity": 101,
      "chip": "ym2612"
    },
    {
      "channel": 0,
      "note": 76,
      "start": 53.576,
      "duration": 0.2337,
      "velocity": 123,
      "chip": "ym2612"
    },
    {
      "channel": 5,
      "note": 93,
      "start": 53.6232,
      "duration": 0.1556,
      "velocity": 101,
      "chip": "ym2612"
    },
    {
      "channel": 0,
      "note": 65,
      "start": 53.8098,
      "duration": 0.249,
      "velocity": 123,
      "chip": "ym2612"
    },
    {
      "channel": 1,
      "note": 57,
      "start": 53.8099,
      "duration": 0.1242,
      "velocity": 113,
      "chip": "ym2612"
    },
    {
      "channel": 3,
      "note": 93,
      "start": 53.8102,
      "duration": 0.1552,
      "velocity": 101,
      "chip": "ym2612"
    },
    {
      "channel": 5,
      "note": 93,
      "start": 53.8723,
      "duration": 0.1555,
      "velocity": 101,
      "chip": "ym2612"
    },
    {
      "channel": 0,
      "note": 52,
      "start": 54.0587,
      "duration": 0.249,
      "velocity": 123,
      "chip": "ym2612"
    },
    {
      "channel": 1,
      "note": 57,
      "start": 54.0588,
      "duration": 0.1242,
      "velocity": 113,
      "chip": "ym2612"
    },
    {
      "channel": 3,
      "note": 93,
      "start": 54.0591,
      "duration": 0.1552,
      "velocity": 101,
      "chip": "ym2612"
    },
    {
      "channel": 5,
      "note": 93,
      "start": 54.1213,
      "duration": 0.1555,
      "velocity": 101,
      "chip": "ym2612"
    },
    {
      "channel": 0,
      "note": 52,
      "start": 54.3077,
      "duration": 0.249,
      "velocity": 123,
      "chip": "ym2612"
    },
    {
      "channel": 1,
      "note": 57,
      "start": 54.3078,
      "duration": 0.1242,
      "velocity": 113,
      "chip": "ym2612"
    },
    {
      "channel": 3,
      "note": 93,
      "start": 54.3081,
      "duration": 0.1553,
      "velocity": 101,
      "chip": "ym2612"
    },
    {
      "channel": 5,
      "note": 93,
      "start": 54.3703,
      "duration": 0.1556,
      "velocity": 101,
      "chip": "ym2612"
    },
    {
      "channel": 0,
      "note": 52,
      "start": 54.5567,
      "duration": 0.249,
      "velocity": 127,
      "chip": "ym2612"
    },
    {
      "channel": 1,
      "note": 57,
      "start": 54.5569,
      "duration": 0.1242,
      "velocity": 113,
      "chip": "ym2612"
    },
    {
      "channel": 3,
      "note": 93,
      "start": 54.5573,
      "duration": 0.1551,
      "velocity": 101,
      "chip": "ym2612"
    },
    {
      "channel": 5,
      "note": 93,
      "start": 54.6193,
      "duration": 0.1555,
      "velocity": 101,
      "chip": "ym2612"
    },
    {
      "channel": 0,
      "note": 52,
      "start": 54.8058,
      "duration": 0.0153,
      "velocity": 127,
      "chip": "ym2612"
    },
    {
      "channel": 1,
      "note": 57,
      "start": 54.8059,
      "duration": 0.1242,
      "velocity": 113,
      "chip": "ym2612"
    },
    {
      "channel": 0,
      "note": 76,
      "start": 54.8211,
      "duration": 0.2337,
      "velocity": 127,
      "chip": "ym2612"
    },
    {
      "channel": 0,
      "note": 65,
      "start": 55.0548,
      "duration": 0.0153,
      "velocity": 127,
      "chip": "ym2612"
    },
    {
      "channel": 1,
      "note": 57,
      "start": 55.0549,
      "duration": 0.1242,
      "velocity": 113,
      "chip": "ym2612"
    },
    {
      "channel": 0,
      "note": 76,
      "start": 55.0701,
      "duration": 0.2337,
      "velocity": 127,
      "chip": "ym2612"
    },
    {
      "channel": 0,
      "note": 65,
      "start": 55.3038,
      "duration": 0.0153,
      "velocity": 127,
      "chip": "ym2612"
    },
    {
      "channel": 1,
      "note": 57,
      "start": 55.3039,
      "duration": 0.1242,
      "velocity": 113,
      "chip": "ym2612"
    },
    {
      "channel": 0,
      "note": 76,
      "start": 55.3191,
      "duration": 0.2337,
      "velocity": 127,
      "chip": "ym2612"
    },
    {
      "channel": 0,
      "note": 65,
      "start": 55.5528,
      "duration": 0.0153,
      "velocity": 127,
      "chip": "ym2612"
    },
    {
      "channel": 1,
      "note": 57,
      "start": 55.5529,
      "duration": 0.1242,
      "velocity": 113,
      "chip": "ym2612"
    },
    {
      "channel": 0,
      "note": 76,
      "start": 55.5681,
      "duration": 0.2337,
      "velocity": 123,
      "chip": "ym2612"
    },
    {
      "channel": 0,
      "note": 65,
      "start": 55.8018,
      "duration": 0.249,
      "velocity": 123,
      "chip": "ym2612"
    },
    {
      "channel": 1,
      "note": 57,
      "start": 55.802,
      "duration": 0.1241,
      "velocity": 113,
      "chip": "ym2612"
    },
    {
      "channel": 0,
      "note": 52,
      "start": 56.0508,
      "duration": 0.249,
      "velocity": 123,
      "chip": "ym2612"
    },
    {
      "channel": 1,
      "note": 57,
      "start": 56.0509,
      "duration": 0.1242,
      "velocity": 113,
      "chip": "ym2612"
    },
    {
      "channel": 2,
      "note": 69,
      "start": 56.051,
      "duration": 0.249,
      "velocity": 111,
      "chip": "ym2612"
    },
    {
      "channel": 4,
      "note": 69,
      "start": 56.2376,
      "duration": 0.249,
      "velocity": 111,
      "chip": "ym2612"
    },
    {
      "channel": 0,
      "note": 52,
      "start": 56.2998,
      "duration": 0.249,
      "velocity": 123,
      "chip": "ym2612"
    },
    {
      "channel": 1,
      "note": 57,
      "start": 56.2999,
      "duration": 0.1242,
      "velocity": 113,
      "chip": "ym2612"
    },
    {
      "channel": 2,
      "note": 81,
      "start": 56.3,
      "duration": 0.0775,
      "velocity": 111,
      "chip": "ym2612"
    },
    {
      "channel": 2,
      "note": 80,
      "start": 56.3776,
      "duration": 0.0934,
      "velocity": 111,
      "chip": "ym2612"
    },
    {
      "channel": 2,
      "note": 81,
      "start": 56.4709,
      "duration": 0.0781,
      "velocity": 111,
      "chip": "ym2612"
    },
    {
      "channel": 4,
      "note": 81,
      "start": 56.4867,
      "duration": 0.0778,
      "velocity": 111,
      "chip": "ym2612"
    },
    {
      "channel": 0,
      "note": 52,
      "start": 56.5488,
      "duration": 0.249,
      "velocity": 127,
      "chip": "ym2612"
    },
    {
      "channel": 1,
      "note": 57,
      "start": 56.5489,
      "duration": 0.1242,
      "velocity": 113,
      "chip": "ym2612"
    },
    {
      "channel": 2,
      "note": 80,
      "start": 56.549,
      "duration": 0.249,
      "velocity": 111,
      "chip": "ym2612"
    },
    {
      "channel": 4,
      "note": 80,
      "start": 56.5645,
      "duration": 0.0934,
      "velocity": 111,
      "chip": "ym2612"
    },
    {
      "channel": 4,
      "note": 81,
      "start": 56.6579,
      "duration": 0.0778,
      "velocity": 111,
      "chip": "ym2612"
    },
    {
      "channel": 4,
      "note": 80,
      "start": 56.7357,
      "duration": 0.249,
      "velocity": 111,
      "chip": "ym2612"
    },
    {
      "channel": 0,
      "note": 52,
      "start": 56.7978,
      "duration": 0.0153,
      "velocity": 127,
      "chip": "ym2612"
    },
    {
      "channel": 1,
      "note": 57,
      "start": 56.798,
      "duration": 0.1242,
      "velocity": 113,
      "chip": "ym2612"
    },
    {
      "channel": 2,
      "note": 77,
      "start": 56.7981,
      "duration": 0.747,
      "velocity": 111,
      "chip": "ym2612"
    },
    {
      "channel": 0,
      "note": 76,
      "start": 56.8132,
      "duration": 0.2337,
      "velocity": 127,
      "chip": "ym2612"
    },
    {
      "channel": 4,
      "note": 77,
      "start": 56.9847,
      "duration": 0.747,
      "velocity": 111,
      "chip": "ym2612"
    },
    {
      "channel": 0,
      "note": 65,
      "start": 57.0468,
      "duration": 0.0153,
      "velocity": 127,
      "chip": "ym2612"
    },
    {
      "channel": 1,
      "note": 57,
      "start": 57.047,
      "duration": 0.1242,
      "velocity": 113,
      "chip": "ym2612"
    },
    {
      "channel": 0,
      "note": 76,
      "start": 57.0622,
      "duration": 0.2337,
      "velocity": 127,
      "chip": "ym2612"
    },
    {
      "channel": 0,
      "note": 65,
      "start": 57.2959,
      "duration": 0.0153,
      "velocity": 127,
      "chip": "ym2612"
    },
    {
      "channel": 1,
      "note": 57,
      "start": 57.296,
      "duration": 0.1242,
      "velocity": 113,
      "chip": "ym2612"
    },
    {
      "channel": 0,
      "note": 76,
      "start": 57.3112,
      "duration": 0.2337,
      "velocity": 127,
      "chip": "ym2612"
    },
    {
      "channel": 0,
      "note": 65,
      "start": 57.5449,
      "duration": 0.0153,
      "velocity": 127,
      "chip": "ym2612"
    },
    {
      "channel": 1,
      "note": 57,
      "start": 57.545,
      "duration": 0.1242,
      "velocity": 113,
      "chip": "ym2612"
    },
    {
      "channel": 2,
      "note": 76,
      "start": 57.5451,
      "duration": 0.498,
      "velocity": 111,
      "chip": "ym2612"
    },
    {
      "channel": 0,
      "note": 76,
      "start": 57.5602,
      "duration": 0.2337,
      "velocity": 123,
      "chip": "ym2612"
    },
    {
      "channel": 4,
      "note": 76,
      "start": 57.7317,
      "duration": 0.498,
      "velocity": 111,
      "chip": "ym2612"
    },
    {
      "channel": 0,
      "note": 65,
      "start": 57.7939,
      "duration": 0.249,
      "velocity": 123,
      "chip": "ym2612"
    },
    {
      "channel": 1,
      "note": 57,
      "start": 57.794,
      "duration": 0.1242,
      "velocity": 113,
      "chip": "ym2612"
    },
    {
      "channel": 0,
      "note": 52,
      "start": 58.0429,
      "duration": 0.249,
      "velocity": 123,
      "chip": "ym2612"
    },
    {
      "channel": 1,
      "note": 57,
      "start": 58.043,
      "duration": 0.1242,
      "velocity": 113,
      "chip": "ym2612"
    },
    {
      "channel": 2,
      "note": 72,
      "start": 58.0431,
      "duration": 0.498,
      "velocity": 111,
      "chip": "ym2612"
    },
    {
      "channel": 4,
      "note": 72,
      "start": 58.2297,
      "duration": 0.498,
      "velocity": 111,
      "chip": "ym2612"
    },
    {
      "channel": 0,
      "note": 52,
      "start": 58.2919,
      "duration": 0.249,
      "velocity": 123,
      "chip": "ym2612"
    },
    {
      "channel": 1,
      "note": 57,
      "start": 58.292,
      "duration": 0.1242,
      "velocity": 113,
      "chip": "ym2612"
    },
    {
      "channel": 0,
      "note": 52,
      "start": 58.5409,
      "duration": 0.249,
      "velocity": 127,
      "chip": "ym2612"
    },
    {
      "channel": 1,
      "note": 57,
      "start": 58.541,
      "duration": 0.1242,
      "velocity": 113,
      "chip": "ym2612"
    },
    {
      "channel": 2,
      "note": 74,
      "start": 58.5411,
      "duration": 0.498,
      "velocity": 111,
      "chip": "ym2612"
    },
    {
      "channel": 4,
      "note": 74,
      "start": 58.7278,
      "duration": 0.498,
      "velocity": 111,
      "chip": "ym2612"
    },
    {
      "channel": 0,
      "note": 52,
      "start": 58.7899,
      "duration": 0.0153,
      "velocity": 127,
      "chip": "ym2612"
    },
    {
      "channel": 1,
      "note": 57,
      "start": 58.7901,
      "duration": 0.1242,
      "velocity": 113,
      "chip": "ym2612"
    },
    {
      "channel": 0,
      "note": 76,
      "start": 58.8052,
      "duration": 0.2337,
      "velocity": 127,
      "chip": "ym2612"
    },
    {
      "channel": 0,
      "note": 65,
      "start": 59.0389,
      "duration": 0.0153,
      "velocity": 127,
      "chip": "ym2612"
    },
    {
      "channel": 1,
      "note": 57,
      "start": 59.039,
      "duration": 0.1242,
      "velocity": 113,
      "chip": "ym2612"
    },
    {
      "channel": 2,
      "note": 76,
      "start": 59.0392,
      "duration": 0.249,
      "velocity": 111,
      "chip": "ym2612"
    },
    {
      "channel": 0,
      "note": 76,
      "start": 59.0542,
      "duration": 0.2337,
      "velocity": 127,
      "chip": "ym2612"
    },
    {
      "channel": 4,
      "note": 76,
      "start": 59.2258,
      "duration": 0.249,
      "velocity": 111,
      "chip": "ym2612"
    },
    {
      "channel": 0,
      "note": 65,
      "start": 59.2879,
      "duration": 0.0153,
      "velocity": 127,
      "chip": "ym2612"
    },
    {
      "channel": 1,
      "note": 57,
      "start": 59.288,
      "duration": 0.1242,
      "velocity": 113,
      "chip": "ym2612"
    },
    {
      "channel": 2,
      "note": 74,
      "start": 59.2882,
      "duration": 0.249,
      "velocity": 111,
      "chip": "ym2612"
    },
    {
      "channel": 0,
      "note": 76,
      "start": 59.3032,
      "duration": 0.2337,
      "velocity": 127,
      "chip": "ym2612"
    },
    {
      "channel": 4,
      "note": 74,
      "start": 59.4748,
      "duration": 0.2492,
      "velocity": 111,
      "chip": "ym2612"
    },
    {
      "channel": 0,
      "note": 65,
      "start": 59.5369,
      "duration": 0.0153,
      "velocity": 127,
      "chip": "ym2612"
    },
    {
      "channel": 1,
      "note": 57,
      "start": 59.5371,
      "duration": 0.1242,
      "velocity": 113,
      "chip": "ym2612"
    },
    {
      "channel": 2,
      "note": 72,
      "start": 59.5372,
      "duration": 0.2491,
      "velocity": 111,
      "chip": "ym2612"
    },
    {
      "channel": 0,
      "note": 76,
      "start": 59.5523,
      "duration": 0.2337,
      "velocity": 123,
      "chip": "ym2612"
    },
    {
      "channel": 4,
      "note": 72,
      "start": 59.724,
      "duration": 0.2488,
      "velocity": 111,
      "chip": "ym2612"
    },
    {
      "channel": 0,
      "note": 65,
      "start": 59.786,
      "duration": 0.249,
      "velocity": 123,
      "chip": "ym2612"
    },
    {
      "channel": 1,
      "note": 57,
      "start": 59.7861,
      "duration": 0.1242,
      "velocity": 113,
      "chip": "ym2612"
    },
    {
      "channel": 2,
      "note": 74,
      "start": 59.7862,
      "duration": 0.747,
      "velocity": 111,
      "chip": "ym2612"
    },
    {
      "channel": 3,
      "note": 93,
      "start": 59.7864,
      "duration": 0.498,
      "velocity": 96,
      "chip": "ym2612"
    },
    {
      "channel": 5,
      "note": 93,
      "start": 59.8483,
      "duration": 0.498,
      "velocity": 96,
      "chip": "ym2612"
    },
    {
      "channel": 4,
      "note": 74,
      "start": 59.9728,
      "duration": 0.747,
      "velocity": 111,
      "chip": "ym2612"
    },
    {
      "channel": 0,
      "note": 52,
      "start": 60.0349,
      "duration": 0.249,
      "velocity": 123,
      "chip": "ym2612"
    },
    {
      "channel": 1,
      "note": 57,
      "start": 60.0351,
      "duration": 0.1242,
      "velocity": 113,
      "chip": "ym2612"
    },
    {
      "channel": 0,
      "note": 52,
      "start": 60.2839,
      "duration": 0.249,
      "velocity": 123,
      "chip": "ym2612"
    },
    {
      "channel": 1,
      "note": 57,
      "start": 60.2841,
      "duration": 0.1242,
      "velocity": 113,
      "chip": "ym2612"
    },
    {
      "channel": 3,
      "note": 93,
      "start": 60.2843,
      "duration": 0.498,
      "velocity": 96,
      "chip": "ym2612"
    },
    {
      "channel": 5,
      "note": 93,
      "start": 60.3464,
      "duration": 0.498,
      "velocity": 96,
      "chip": "ym2612"
    },
    {
      "channel": 0,
      "note": 52,
      "start": 60.533,
      "duration": 0.249,
      "velocity": 127,
      "chip": "ym2612"
    },
    {
      "channel": 1,
      "note": 57,
      "start": 60.5331,
      "duration": 0.1242,
      "velocity": 113,
      "chip": "ym2612"
    },
    {
      "channel": 2,
      "note": 72,
      "start": 60.5332,
      "duration": 0.249,
      "velocity": 111,
      "chip": "ym2612"
    },
    {
      "channel": 4,
      "note": 72,
      "start": 60.7198,
      "duration": 0.249,
      "velocity": 111,
      "chip": "ym2612"
    },
    {
      "channel": 0,
      "note": 52,
      "start": 60.782,
      "duration": 0.0153,
      "velocity": 127,
      "chip": "ym2612"
    },
    {
      "channel": 1,
      "note": 57,
      "start": 60.7822,
      "duration": 0.1242,
      "velocity": 113,
      "chip": "ym2612"
    },
    {
      "channel": 3,
      "note": 92,
      "start": 60.7824,
      "duration": 0.498,
      "velocity": 96,
      "chip": "ym2612"
    },
    {
      "channel": 0,
      "note": 76,
      "start": 60.7973,
      "duration": 0.2337,
      "velocity": 127,
      "chip": "ym2612"
    },
    {
      "channel": 5,
      "note": 92,
      "start": 60.8444,
      "duration": 0.498,
      "velocity": 96,
      "chip": "ym2612"
    },
    {
      "channel": 0,
      "note": 65,
      "start": 61.031,
      "duration": 0.0153,
      "velocity": 127,
      "chip": "ym2612"
    },
    {
      "channel": 1,
      "note": 57,
      "start": 61.0311,
      "duration": 0.1242,
      "velocity": 113,
      "chip": "ym2612"
    },
    {
      "channel": 0,
      "note": 76,
      "start": 61.0463,
      "duration": 0.2337,
      "velocity": 127,
      "chip": "ym2612"
    },
    {
      "channel": 0,
      "note": 65,
      "start": 61.28,
      "duration": 0.0153,
      "velocity": 127,
      "chip": "ym2612"
    },
    {
      "channel": 1,
      "note": 57,
      "start": 61.2801,
      "duration": 0.1242,
      "velocity": 113,
      "chip": "ym2612"
    },
    {
      "channel": 3,
      "note": 88,
      "start": 61.2804,
      "duration": 0.249,
      "velocity": 96,
      "chip": "ym2612"
    },
    {
      "channel": 0,
      "note": 76,
      "start": 61.2953,
      "duration": 0.2337,
      "velocity": 127,
      "chip": "ym2612"
    },
    {
      "channel": 5,
      "note": 88,
      "start": 61.3424,
      "duration": 0.249,
      "velocity": 96,
      "chip": "ym2612"
    },
    {
      "channel": 0,
      "note": 65,
      "start": 61.529,
      "duration": 0.0153,
      "velocity": 127,
      "chip": "ym2612"
    },
    {
      "channel": 1,
      "note": 57,
      "start": 61.5291,
      "duration": 0.1242,
      "velocity": 113,
      "chip": "ym2612"
    },
    {
      "channel": 3,
      "note": 86,
      "start": 61.5294,
      "duration": 0.2491,
      "velocity": 96,
      "chip": "ym2612"
    },
    {
      "channel": 0,
      "note": 76,
      "start": 61.5443,
      "duration": 0.2337,
      "velocity": 123,
      "chip": "ym2612"
    },
    {
      "channel": 5,
      "note": 86,
      "start": 61.5915,
      "duration": 0.2492,
      "velocity": 96,
      "chip": "ym2612"
    },
    {
      "channel": 0,
      "note": 65,
      "start": 61.778,
      "duration": 0.249,
      "velocity": 123,
      "chip": "ym2612"
    },
    {
      "channel": 1,
      "note": 57,
      "start": 61.7782,
      "duration": 0.1242,
      "velocity": 113,
      "chip": "ym2612"
    },
    {
      "channel": 3,
      "note": 88,
      "start": 61.7784,
      "duration": 0.2489,
      "velocity": 96,
      "chip": "ym2612"
    },
    {
      "channel": 5,
      "note": 88,
      "start": 61.8406,
      "duration": 0.2488,
      "velocity": 96,
      "chip": "ym2612"
    },
    {
      "channel": 0,
      "note": 52,
      "start": 62.027,
      "duration": 0.249,
      "velocity": 123,
      "chip": "ym2612"
    },
    {
      "channel": 1,
      "note": 57,
      "start": 62.0271,
      "duration": 0.1242,
      "velocity": 113,
      "chip": "ym2612"
    },
    {
      "channel": 3,
      "note": 93,
      "start": 62.0274,
      "duration": 0.0775,
      "velocity": 96,
      "chip": "ym2612"
    },
    {
      "channel": 5,
      "note": 93,
      "start": 62.0895,
      "duration": 0.0778,
      "velocity": 96,
      "chip": "ym2612"
    },
    {
      "channel": 3,
      "note": 92,
      "start": 62.1049,
      "duration": 0.0934,
      "velocity": 96,
      "chip": "ym2612"
    },
    {
      "channel": 5,
      "note": 92,
      "start": 62.1673,
      "duration": 0.0934,
      "velocity": 96,
      "chip": "ym2612"
    },
    {
      "channel": 3,
      "note": 93,
      "start": 62.1983,
      "duration": 0.0781,
      "velocity": 96,
      "chip": "ym2612"
    },
    {
      "channel": 5,
      "note": 93,
      "start": 62.2607,
      "duration": 0.0778,
      "velocity": 96,
      "chip": "ym2612"
    },
    {
      "channel": 0,
      "note": 52,
      "start": 62.276,
      "duration": 0.249,
      "velocity": 123,
      "chip": "ym2612"
    },
    {
      "channel": 1,
      "note": 57,
      "start": 62.2762,
      "duration": 0.1242,
      "velocity": 113,
      "chip": "ym2612"
    },
    {
      "channel": 3,
      "note": 92,
      "start": 62.2764,
      "duration": 0.249,
      "velocity": 96,
      "chip": "ym2612"
    },
    {
      "channel": 5,
      "note": 92,
      "start": 62.3385,
      "duration": 0.249,
      "velocity": 96,
      "chip": "ym2612"
    },
    {
      "channel": 0,
      "note": 52,
      "start": 62.525,
      "duration": 0.2491,
      "velocity": 127,
      "chip": "ym2612"
    },
    {
      "channel": 1,
      "note": 57,
      "start": 62.5252,
      "duration": 0.1242,
      "velocity": 113,
      "chip": "ym2612"
    },
    {
      "channel": 3,
      "note": 88,
      "start": 62.5254,
      "duration": 0.498,
      "velocity": 96,
      "chip": "ym2612"
    },
    {
      "channel": 5,
      "note": 88,
      "start": 62.5875,
      "duration": 0.498,
      "velocity": 96,
      "chip": "ym2612"
    },
    {
      "channel": 0,
      "note": 52,
      "start": 62.7741,
      "duration": 0.0152,
      "velocity": 127,
      "chip": "ym2612"
    },
    {
      "channel": 1,
      "note": 57,
      "start": 62.7743,
      "duration": 0.1241,
      "velocity": 113,
      "chip": "ym2612"
    },
    {
      "channel": 0,
      "note": 76,
      "start": 62.7894,
      "duration": 0.2337,
      "velocity": 127,
      "chip": "ym2612"
    },
    {
      "channel": 0,
      "note": 65,
      "start": 63.0231,
      "duration": 0.0153,
      "velocity": 127,
      "chip": "ym2612"
    },
    {
      "channel": 1,
      "note": 57,
      "start": 63.0232,
      "duration": 0.1242,
      "velocity": 113,
      "chip": "ym2612"
    },
    {
      "channel": 3,
      "note": 86,
      "start": 63.0234,
      "duration": 0.249,
      "velocity": 96,
      "chip": "ym2612"
    },
    {
      "channel": 0,
      "note": 76,
      "start": 63.0384,
      "duration": 0.2337,
      "velocity": 127,
      "chip": "ym2612"
    },
    {
      "channel": 5,
      "note": 86,
      "start": 63.0855,
      "duration": 0.249,
      "velocity": 96,
      "chip": "ym2612"
    },
    {
      "channel": 0,
      "note": 65,
      "start": 63.2721,
      "duration": 0.0153,
      "velocity": 127,
      "chip": "ym2612"
    },
    {
      "channel": 1,
      "note": 57,
      "start": 63.2722,
      "duration": 0.1242,
      "velocity": 113,
      "chip": "ym2612"
    },
    {
      "channel": 3,
      "note": 88,
      "start": 63.2724,
      "duration": 0.4981,
      "velocity": 96,
      "chip": "ym2612"
    },
    {
      "channel": 0,
      "note": 76,
      "start": 63.2874,
      "duration": 0.2337,
      "velocity": 127,
      "chip": "ym2612"
    },
    {
      "channel": 5,
      "note": 88,
      "start": 63.3345,
      "duration": 0.498,
      "velocity": 96,
      "chip": "ym2612"
    },
    {
      "channel": 0,
      "note": 65,
      "start": 63.5211,
      "duration": 0.0153,
      "velocity": 127,
      "chip": "ym2612"
    },
    {
      "channel": 1,
      "note": 57,
      "start": 63.5212,
      "duration": 0.1242,
      "velocity": 113,
      "chip": "ym2612"
    },
    {
      "channel": 0,
      "note": 76,
      "start": 63.5364,
      "duration": 0.2337,
      "velocity": 123,
      "chip": "ym2612"
    },
    {
      "channel": 0,
      "note": 65,
      "start": 63.7701,
      "duration": 0.249,
      "velocity": 123,
      "chip": "ym2612"
    },
    {
      "channel": 1,
      "note": 57,
      "start": 63.7703,
      "duration": 0.1242,
      "velocity": 113,
      "chip": "ym2612"
    },
    {
      "channel": 0,
      "note": 52,
      "start": 64.0191,
      "duration": 0.249,
      "velocity": 123,
      "chip": "ym2612"
    },
    {
      "channel": 1,
      "note": 57,
      "start": 64.0192,
      "duration": 0.1242,
      "velocity": 113,
      "chip": "ym2612"
    },
    {
      "channel": 2,
      "note": 69,
      "start": 64.0193,
      "duration": 0.249,
      "velocity": 111,
      "chip": "ym2612"
    },
    {
      "channel": 4,
      "note": 69,
      "start": 64.206,
      "duration": 0.249,
      "velocity": 111,
      "chip": "ym2612"
    },
    {
      "channel": 0,
      "note": 52,
      "start": 64.2681,
      "duration": 0.249,
      "velocity": 123,
      "chip": "ym2612"
    },
    {
      "channel": 1,
      "note": 57,
      "start": 64.2682,
      "duration": 0.1242,
      "velocity": 113,
      "chip": "ym2612"
    },
    {
      "channel": 2,
      "note": 81,
      "start": 64.2683,
      "duration": 0.0775,
      "velocity": 111,
      "chip": "ym2612"
    },
    {
      "channel": 2,
      "note": 80,
      "start": 64.3459,
      "duration": 0.0934,
      "velocity": 111,
      "chip": "ym2612"
    },
    {
      "channel": 2,
      "note": 81,
      "start": 64.4392,
      "duration": 0.0781,
      "velocity": 111,
      "chip": "ym2612"
    },
    {
      "channel": 4,
      "note": 81,
      "start": 64.455,
      "duration": 0.0778,
      "velocity": 111,
      "chip": "ym2612"
    },
    {
      "channel": 0,
      "note": 52,
      "start": 64.5171,
      "duration": 0.249,
      "velocity": 127,
      "chip": "ym2612"
    },
    {
      "channel": 1,
      "note": 57,
      "start": 64.5172,
      "duration": 0.1242,
      "velocity": 113,
      "chip": "ym2612"
    },
    {
      "channel": 2,
      "note": 80,
      "start": 64.5174,
      "duration": 0.249,
      "velocity": 111,
      "chip": "ym2612"
    },
    {
      "channel": 4,
      "note": 80,
      "start": 64.5328,
      "duration": 0.0934,
      "velocity": 111,
      "chip": "ym2612"
    },
    {
      "channel": 4,
      "note": 81,
      "start": 64.6262,
      "duration": 0.0778,
      "velocity": 111,
      "chip": "ym2612"
    },
    {
      "channel": 4,
      "note": 80,
      "start": 64.704,
      "duration": 0.249,
      "velocity": 111,
      "chip": "ym2612"
    },
    {
      "channel": 0,
      "note": 52,
      "start": 64.7661,
      "duration": 0.0153,
      "velocity": 127,
      "chip": "ym2612"
    },
    {
      "channel": 1,
      "note": 57,
      "start": 64.7663,
      "duration": 0.1243,
      "velocity": 113,
      "chip": "ym2612"
    },
    {
      "channel": 2,
      "note": 77,
      "start": 64.7664,
      "duration": 0.747,
      "velocity": 111,
      "chip": "ym2612"
    },
    {
      "channel": 0,
      "note": 76,
      "start": 64.7815,
      "duration": 0.2337,
      "velocity": 127,
      "chip": "ym2612"
    },
    {
      "channel": 4,
      "note": 77,
      "start": 64.953,
      "duration": 0.747,
      "velocity": 111,
      "chip": "ym2612"
    },
    {
      "channel": 0,
      "note": 65,
      "start": 65.0151,
      "duration": 0.0153,
      "velocity": 127,
      "chip": "ym2612"
    },
    {
      "channel": 1,
      "note": 57,
      "start": 65.0153,
      "duration": 0.1242,
      "velocity": 113,
      "chip": "ym2612"
    },
    {
      "channel": 0,
      "note": 76,
      "start": 65.0305,
      "duration": 0.2337,
      "velocity": 127,
      "chip": "ym2612"
    },
    {
      "channel": 0,
      "note": 65,
      "start": 65.2641,
      "duration": 0.0153,
      "velocity": 127,
      "chip": "ym2612"
    },
    {
      "channel": 1,
      "note": 57,
      "start": 65.2643,
      "duration": 0.1242,
      "velocity": 113,
      "chip": "ym2612"
    },
    {
      "channel": 0,
      "note": 76,
      "start": 65.2795,
      "duration": 0.2337,
      "velocity": 127,
      "chip": "ym2612"
    },
    {
      "channel": 0,
      "note": 65,
      "start": 65.5132,
      "duration": 0.0153,
      "velocity": 127,
      "chip": "ym2612"
    },
    {
      "channel": 1,
      "note": 57,
      "start": 65.5133,
      "duration": 0.1242,
      "velocity": 113,
      "chip": "ym2612"
    },
    {
      "channel": 2,
      "note": 76,
      "start": 65.5134,
      "duration": 0.498,
      "velocity": 111,
      "chip": "ym2612"
    },
    {
      "channel": 0,
      "note": 76,
      "start": 65.5285,
      "duration": 0.2337,
      "velocity": 123,
      "chip": "ym2612"
    },
    {
      "channel": 4,
      "note": 76,
      "start": 65.7,
      "duration": 0.498,
      "velocity": 111,
      "chip": "ym2612"
    },
    {
      "channel": 0,
      "note": 65,
      "start": 65.7622,
      "duration": 0.249,
      "velocity": 123,
      "chip": "ym2612"
    },
    {
      "channel": 1,
      "note": 57,
      "start": 65.7624,
      "duration": 0.1241,
      "velocity": 113,
      "chip": "ym2612"
    },
    {
      "channel": 0,
      "note": 52,
      "start": 66.0112,
      "duration": 0.249,
      "velocity": 123,
      "chip": "ym2612"
    },
    {
      "channel": 1,
      "note": 57,
      "start": 66.0113,
      "duration": 0.1242,
      "velocity": 113,
      "chip": "ym2612"
    },
    {
      "channel": 2,
      "note": 72,
      "start": 66.0114,
      "duration": 0.498,
      "velocity": 111,
      "chip": "ym2612"
    },
    {
      "channel": 4,
      "note": 72,
      "start": 66.198,
      "duration": 0.498,
      "velocity": 111,
      "chip": "ym2612"
    },
    {
      "channel": 0,
      "note": 52,
      "start": 66.2602,
      "duration": 0.249,
      "velocity": 123,
      "chip": "ym2612"
    },
    {
      "channel": 1,
      "note": 57,
      "start": 66.2603,
      "duration": 0.1242,
      "velocity": 113,
      "chip": "ym2612"
    },
    {
      "channel": 0,
      "note": 52,
      "start": 66.5092,
      "duration": 0.249,
      "velocity": 127,
      "chip": "ym2612"
    },
    {
      "channel": 1,
      "note": 57,
      "start": 66.5093,
      "duration": 0.1242,
      "velocity": 113,
      "chip": "ym2612"
    },
    {
      "channel": 2,
      "note": 74,
      "start": 66.5094,
      "duration": 0.4982,
      "velocity": 111,
      "chip": "ym2612"
    },
    {
      "channel": 4,
      "note": 74,
      "start": 66.6961,
      "duration": 0.498,
      "velocity": 111,
      "chip": "ym2612"
    },
    {
      "channel": 0,
      "note": 52,
      "start": 66.7582,
      "duration": 0.0153,
      "velocity": 127,
      "chip": "ym2612"
    },
    {
      "channel": 1,
      "note": 57,
      "start": 66.7584,
      "duration": 0.1242,
      "velocity": 113,
      "chip": "ym2612"
    },
    {
      "channel": 0,
      "note": 76,
      "start": 66.7735,
      "duration": 0.2338,
      "velocity": 127,
      "chip": "ym2612"
    },
    {
      "channel": 0,
      "note": 65,
      "start": 67.0074,
      "duration": 0.0151,
      "velocity": 127,
      "chip": "ym2612"
    },
    {
      "channel": 1,
      "note": 57,
      "start": 67.0075,
      "duration": 0.1241,
      "velocity": 113,
      "chip": "ym2612"
    },
    {
      "channel": 2,
      "note": 76,
      "start": 67.0076,
      "duration": 0.2488,
      "velocity": 111,
      "chip": "ym2612"
    },
    {
      "channel": 0,
      "note": 76,
      "start": 67.0225,
      "duration": 0.2337,
      "velocity": 127,
      "chip": "ym2612"
    },
    {
      "channel": 4,
      "note": 76,
      "start": 67.1941,
      "duration": 0.249,
      "velocity": 111,
      "chip": "ym2612"
    },
    {
      "channel": 0,
      "note": 65,
      "start": 67.2562,
      "duration": 0.0153,
      "velocity": 127,
      "chip": "ym2612"
    },
    {
      "channel": 1,
      "note": 57,
      "start": 67.2563,
      "duration": 0.1242,
      "velocity": 113,
      "chip": "ym2612"
    },
    {
      "channel": 2,
      "note": 74,
      "start": 67.2565,
      "duration": 0.249,
      "velocity": 111,
      "chip": "ym2612"
    },
    {
      "channel": 0,
      "note": 76,
      "start": 67.2715,
      "duration": 0.2337,
      "velocity": 127,
      "chip": "ym2612"
    },
    {
      "channel": 4,
      "note": 74,
      "start": 67.4431,
      "duration": 0.249,
      "velocity": 111,
      "chip": "ym2612"
    },
    {
      "channel": 0,
      "note": 65,
      "start": 67.5052,
      "duration": 0.0153,
      "velocity": 127,
      "chip": "ym2612"
    },
    {
      "channel": 1,
      "note": 57,
      "start": 67.5054,
      "duration": 0.1242,
      "velocity": 113,
      "chip": "ym2612"
    },
    {
      "channel": 2,
      "note": 72,
      "start": 67.5055,
      "duration": 0.249,
      "velocity": 111,
      "chip": "ym2612"
    },
    {
      "channel": 0,
      "note": 76,
      "start": 67.5206,
      "duration": 0.2337,
      "velocity": 123,
      "chip": "ym2612"
    },
    {
      "channel": 4,
      "note": 72,
      "start": 67.6921,
      "duration": 0.249,
      "velocity": 111,
      "chip": "ym2612"
    },
    {
      "channel": 0,
      "note": 65,
      "start": 67.7543,
      "duration": 0.249,
      "velocity": 123,
      "chip": "ym2612"
    },
    {
      "channel": 1,
      "note": 57,
      "start": 67.7544,
      "duration": 0.1242,
      "velocity": 113,
      "chip": "ym2612"
    },
    {
      "channel": 2,
      "note": 74,
      "start": 67.7545,
      "duration": 0.747,
      "velocity": 111,
      "chip": "ym2612"
    },
    {
      "channel": 3,
      "note": 92,
      "start": 67.7547,
      "duration": 0.498,
      "velocity": 96,
      "chip": "ym2612"
    },
    {
      "channel": 5,
      "note": 92,
      "start": 67.8166,
      "duration": 0.4981,
      "velocity": 96,
      "chip": "ym2612"
    },
    {
      "channel": 4,
      "note": 74,
      "start": 67.9411,
      "duration": 0.747,
      "velocity": 111,
      "chip": "ym2612"
    },
    {
      "channel": 0,
      "note": 52,
      "start": 68.0032,
      "duration": 0.249,
      "velocity": 123,
      "chip": "ym2612"
    },
    {
      "channel": 1,
      "note": 57,
      "start": 68.0034,
      "duration": 0.1242,
      "velocity": 113,
      "chip": "ym2612"
    },
    {
      "channel": 0,
      "note": 52,
      "start": 68.2523,
      "duration": 0.249,
      "velocity": 123,
      "chip": "ym2612"
    },
    {
      "channel": 1,
      "note": 57,
      "start": 68.2524,
      "duration": 0.1242,
      "velocity": 113,
      "chip": "ym2612"
    },
    {
      "channel": 3,
      "note": 93,
      "start": 68.2526,
      "duration": 0.498,
      "velocity": 96,
      "chip": "ym2612"
    },
    {
      "channel": 5,
      "note": 93,
      "start": 68.3147,
      "duration": 0.498,
      "velocity": 96,
      "chip": "ym2612"
    },
    {
      "channel": 0,
      "note": 52,
      "start": 68.5013,
      "duration": 0.249,
      "velocity": 127,
      "chip": "ym2612"
    },
    {
      "channel": 1,
      "note": 57,
      "start": 68.5014,
      "duration": 0.1242,
      "velocity": 113,
      "chip": "ym2612"
    },
    {
      "channel": 2,
      "note": 72,
      "start": 68.5015,
      "duration": 0.249,
      "velocity": 111,
      "chip": "ym2612"
    },
    {
      "channel": 4,
      "note": 72,
      "start": 68.6881,
      "duration": 0.249,
      "velocity": 111,
      "chip": "ym2612"
    },
    {
      "channel": 0,
      "note": 52,
      "start": 68.7503,
      "duration": 0.0153,
      "velocity": 127,
      "chip": "ym2612"
    },
    {
      "channel": 1,
      "note": 57,
      "start": 68.7505,
      "duration": 0.1242,
      "velocity": 113,
      "chip": "ym2612"
    },
    {
      "channel": 3,
      "note": 92,
      "start": 68.7507,
      "duration": 0.498,
      "velocity": 96,
      "chip": "ym2612"
    },
    {
      "channel": 0,
      "note": 76,
      "start": 68.7656,
      "duration": 0.2337,
      "velocity": 127,
      "chip": "ym2612"
    },
    {
      "channel": 5,
      "note": 92,
      "start": 68.8127,
      "duration": 0.498,
      "velocity": 96,
      "chip": "ym2612"
    },
    {
      "channel": 0,
      "note": 65,
      "start": 68.9993,
      "duration": 0.0153,
      "velocity": 127,
      "chip": "ym2612"
    },
    {
      "channel": 1,
      "note": 57,
      "start": 68.9994,
      "duration": 0.1244,
      "velocity": 113,
      "chip": "ym2612"
    },
    {
      "channel": 0,
      "note": 76,
      "start": 69.0146,
      "duration": 0.2337,
      "velocity": 127,
      "chip": "ym2612"
    },
    {
      "channel": 0,
      "note": 65,
      "start": 69.2483,
      "duration": 0.0153,
      "velocity": 127,
      "chip": "ym2612"
    },
    {
      "channel": 1,
      "note": 57,
      "start": 69.2484,
      "duration": 0.1242,
      "velocity": 113,
      "chip": "ym2612"
    },
    {
      "channel": 3,
      "note": 88,
      "start": 69.2487,
      "duration": 0.249,
      "velocity": 96,
      "chip": "ym2612"
    },
    {
      "channel": 0,
      "note": 76,
      "start": 69.2636,
      "duration": 0.2337,
      "velocity": 127,
      "chip": "ym2612"
    },
    {
      "channel": 5,
      "note": 88,
      "start": 69.3107,
      "duration": 0.249,
      "velocity": 96,
      "chip": "ym2612"
    },
    {
      "channel": 0,
      "note": 65,
      "start": 69.4973,
      "duration": 0.0153,
      "velocity": 127,
      "chip": "ym2612"
    },
    {
      "channel": 1,
      "note": 57,
      "start": 69.4974,
      "duration": 0.1242,
      "velocity": 113,
      "chip": "ym2612"
    },
    {
      "channel": 3,
      "note": 86,
      "start": 69.4977,
      "duration": 0.2491,
      "velocity": 96,
      "chip": "ym2612"
    },
    {
      "channel": 0,
      "note": 76,
      "start": 69.5126,
      "duration": 0.2337,
      "velocity": 123,
      "chip": "ym2612"
    },
    {
      "channel": 5,
      "note": 86,
      "start": 69.5598,
      "duration": 0.249,
      "velocity": 96,
      "chip": "ym2612"
    },
    {
      "channel": 0,
      "note": 65,
      "start": 69.7463,
      "duration": 0.249,
      "velocity": 123,
      "chip": "ym2612"
    },
    {
      "channel": 1,
      "note": 57,
      "start": 69.7465,
      "duration": 0.1241,
      "velocity": 113,
      "chip": "ym2612"
    },
    {
      "channel": 3,
      "note": 88,
      "start": 69.7467,
      "duration": 0.249,
      "velocity": 96,
      "chip": "ym2612"
    },
    {
      "channel": 5,
      "note": 88,
      "start": 69.8088,
      "duration": 0.249,
      "velocity": 96,
      "chip": "ym2612"
    },
    {
      "channel": 0,
      "note": 52,
      "start": 69.9953,
      "duration": 0.249,
      "velocity": 123,
      "chip": "ym2612"
    },
    {
      "channel": 1,
      "note": 57,
      "start": 69.9955,
      "duration": 0.1242,
      "velocity": 113,
      "chip": "ym2612"
    },
    {
      "channel": 3,
      "note": 93,
      "start": 69.9957,
      "duration": 0.0775,
      "velocity": 96,
      "chip": "ym2612"
    },
    {
      "channel": 5,
      "note": 93,
      "start": 70.0578,
      "duration": 0.0778,
      "velocity": 96,
      "chip": "ym2612"
    },
    {
      "channel": 3,
      "note": 92,
      "start": 70.0732,
      "duration": 0.0934,
      "velocity": 96,
      "chip": "ym2612"
    },
    {
      "channel": 5,
      "note": 92,
      "start": 70.1356,
      "duration": 0.0934,
      "velocity": 96,
      "chip": "ym2612"
    },
    {
      "channel": 3,
      "note": 93,
      "start": 70.1666,
      "duration": 0.0781,
      "velocity": 96,
      "chip": "ym2612"
    },
    {
      "channel": 5,
      "note": 93,
      "start": 70.229,
      "duration": 0.0778,
      "velocity": 96,
      "chip": "ym2612"
    },
    {
      "channel": 0,
      "note": 52,
      "start": 70.2443,
      "duration": 0.249,
      "velocity": 123,
      "chip": "ym2612"
    },
    {
      "channel": 1,
      "note": 57,
      "start": 70.2445,
      "duration": 0.1242,
      "velocity": 113,
      "chip": "ym2612"
    },
    {
      "channel": 3,
      "note": 92,
      "start": 70.2447,
      "duration": 0.249,
      "velocity": 96,
      "chip": "ym2612"
    },
    {
      "channel": 5,
      "note": 92,
      "start": 70.3068,
      "duration": 0.249,
      "velocity": 96,
      "chip": "ym2612"
    },
    {
      "channel": 0,
      "note": 52,
      "start": 70.4934,
      "duration": 0.249,
      "velocity": 127,
      "chip": "ym2612"
    },
    {
      "channel": 1,
      "note": 57,
      "start": 70.4935,
      "duration": 0.1242,
      "velocity": 113,
      "chip": "ym2612"
    },
    {
      "channel": 3,
      "note": 88,
      "start": 70.4937,
      "duration": 0.498,
      "velocity": 96,
      "chip": "ym2612"
    },
    {
      "channel": 5,
      "note": 88,
      "start": 70.5558,
      "duration": 0.498,
      "velocity": 96,
      "chip": "ym2612"
    },
    {
      "channel": 0,
      "note": 52,
      "start": 70.7424,
      "duration": 0.0153,
      "velocity": 127,
      "chip": "ym2612"
    },
    {
      "channel": 1,
      "note": 57,
      "start": 70.7425,
      "duration": 0.1242,
      "velocity": 113,
      "chip": "ym2612"
    },
    {
      "channel": 0,
      "note": 76,
      "start": 70.7577,
      "duration": 0.2337,
      "velocity": 127,
      "chip": "ym2612"
    },
    {
      "channel": 0,
      "note": 65,
      "start": 70.9914,
      "duration": 0.0153,
      "velocity": 127,
      "chip": "ym2612"
    },
    {
      "channel": 1,
      "note": 57,
      "start": 70.9915,
      "duration": 0.1242,
      "velocity": 113,
      "chip": "ym2612"
    },
    {
      "channel": 3,
      "note": 86,
      "start": 70.9917,
      "duration": 0.2492,
      "velocity": 96,
      "chip": "ym2612"
    },
    {
      "channel": 0,
      "note": 76,
      "start": 71.0067,
      "duration": 0.2339,
      "velocity": 127,
      "chip": "ym2612"
    },
    {
      "channel": 5,
      "note": 86,
      "start": 71.0538,
      "duration": 0.249,
      "velocity": 96,
      "chip": "ym2612"
    },
    {
      "channel": 0,
      "note": 65,
      "start": 71.2405,
      "duration": 0.0151,
      "velocity": 127,
      "chip": "ym2612"
    },
    {
      "channel": 1,
      "note": 57,
      "start": 71.2407,
      "duration": 0.124,
      "velocity": 113,
      "chip": "ym2612"
    },
    {
      "channel": 3,
      "note": 88,
      "start": 71.2409,
      "duration": 0.4982,
      "velocity": 121,
      "chip": "ym2612"
    },
    {
      "channel": 0,
      "note": 76,
      "start": 71.2557,
      "duration": 0.2337,
      "velocity": 127,
      "chip": "ym2612"
    },
    {
      "channel": 5,
      "note": 88,
      "start": 71.3028,
      "duration": 0.4983,
      "velocity": 121,
      "chip": "ym2612"
    },
    {
      "channel": 0,
      "note": 65,
      "start": 71.4894,
      "duration": 0.0153,
      "velocity": 127,
      "chip": "ym2612"
    },
    {
      "channel": 1,
      "note": 57,
      "start": 71.4895,
      "duration": 0.1242,
      "velocity": 113,
      "chip": "ym2612"
    },
    {
      "channel": 0,
      "note": 76,
      "start": 71.5047,
      "duration": 0.2337,
      "velocity": 123,
      "chip": "ym2612"
    },
    {
      "channel": 0,
      "note": 65,
      "start": 71.7384,
      "duration": 0.249,
      "velocity": 123,
      "chip": "ym2612"
    },
    {
      "channel": 1,
      "note": 57,
      "start": 71.7386,
      "duration": 0.1241,
      "velocity": 113,
      "chip": "ym2612"
    },
    {
      "channel": 3,
      "note": 92,
      "start": 71.7391,
      "duration": 3.9839,
      "velocity": 121,
      "chip": "ym2612"
    },
    {
      "channel": 5,
      "note": 92,
      "start": 71.8011,
      "duration": 3.9839,
      "velocity": 121,
      "chip": "ym2612"
    },
    {
      "channel": 0,
      "note": 52,
      "start": 71.9874,
      "duration": 0.249,
      "velocity": 123,
      "chip": "ym2612"
    },
    {
      "channel": 1,
      "note": 58,
      "start": 71.9875,
      "duration": 0.1242,
      "velocity": 113,
      "chip": "ym2612"
    },
    {
      "channel": 2,
      "note": 81,
      "start": 71.9876,
      "duration": 0.249,
      "velocity": 111,
      "chip": "ym2612"
    },
    {
      "channel": 4,
      "note": 81,
      "start": 72.1743,
      "duration": 0.249,
      "velocity": 111,
      "chip": "ym2612"
    },
    {
      "channel": 0,
      "note": 52,
      "start": 72.2364,
      "duration": 0.249,
      "velocity": 123,
      "chip": "ym2612"
    },
    {
      "channel": 1,
      "note": 58,
      "start": 72.2365,
      "duration": 0.1242,
      "velocity": 113,
      "chip": "ym2612"
    },
    {
      "channel": 2,
      "note": 74,
      "start": 72.2367,
      "duration": 0.249,
      "velocity": 111,
      "chip": "ym2612"
    },
    {
      "channel": 4,
      "note": 74,
      "start": 72.4233,
      "duration": 0.249,
      "velocity": 111,
      "chip": "ym2612"
    },
    {
      "channel": 0,
      "note": 52,
      "start": 72.4854,
      "duration": 0.249,
      "velocity": 127,
      "chip": "ym2612"
    },
    {
      "channel": 1,
      "note": 58,
      "start": 72.4856,
      "duration": 0.1242,
      "velocity": 113,
      "chip": "ym2612"
    },
    {
      "channel": 2,
      "note": 76,
      "start": 72.4857,
      "duration": 0.249,
      "velocity": 111,
      "chip": "ym2612"
    },
    {
      "channel": 4,
      "note": 76,
      "start": 72.6723,
      "duration": 0.249,
      "velocity": 111,
      "chip": "ym2612"
    },
    {
      "channel": 0,
      "note": 52,
      "start": 72.7345,
      "duration": 0.0153,
      "velocity": 127,
      "chip": "ym2612"
    },
    {
      "channel": 1,
      "note": 58,
      "start": 72.7346,
      "duration": 0.1242,
      "velocity": 113,
      "chip": "ym2612"
    },
    {
      "channel": 2,
      "note": 77,
      "start": 72.7347,
      "duration": 0.249,
      "velocity": 111,
      "chip": "ym2612"
    },
    {
      "channel": 0,
      "note": 76,
      "start": 72.7498,
      "duration": 0.2337,
      "velocity": 127,
      "chip": "ym2612"
    },
    {
      "channel": 4,
      "note": 77,
      "start": 72.9213,
      "duration": 0.249,
      "velocity": 111,
      "chip": "ym2612"
    },
    {
      "channel": 0,
      "note": 65,
      "start": 72.9834,
      "duration": 0.0153,
      "velocity": 127,
      "chip": "ym2612"
    },
    {
      "channel": 1,
      "note": 58,
      "start": 72.9836,
      "duration": 0.1242,
      "velocity": 113,
      "chip": "ym2612"
    },
    {
      "channel": 2,
      "note": 79,
      "start": 72.9837,
      "duration": 0.0775,
      "velocity": 111,
      "chip": "ym2612"
    },
    {
      "channel": 0,
      "note": 76,
      "start": 72.9988,
      "duration": 0.2337,
      "velocity": 127,
      "chip": "ym2612"
    },
    {
      "channel": 2,
      "note": 77,
      "start": 73.0612,
      "duration": 0.0934,
      "velocity": 111,
      "chip": "ym2612"
    },
    {
      "channel": 2,
      "note": 79,
      "start": 73.1546,
      "duration": 0.0781,
      "velocity": 111,
      "chip": "ym2612"
    },
    {
      "channel": 4,
      "note": 79,
      "start": 73.1703,
      "duration": 0.0778,
      "velocity": 111,
      "chip": "ym2612"
    },
    {
      "channel": 0,
      "note": 65,
      "start": 73.2324,
      "duration": 0.0153,
      "velocity": 127,
      "chip": "ym2612"
    },
    {
      "channel": 1,
      "note": 58,
      "start": 73.2326,
      "duration": 0.1242,
      "velocity": 113,
      "chip": "ym2612"
    },
    {
      "channel": 2,
      "note": 77,
      "start": 73.2327,
      "duration": 0.249,
      "velocity": 111,
      "chip": "ym2612"
    },
    {
      "channel": 0,
      "note": 76,
      "start": 73.2478,
      "duration": 0.2337,
      "velocity": 127,
      "chip": "ym2612"
    },
    {
      "channel": 4,
      "note": 77,
      "start": 73.2482,
      "duration": 0.0933,
      "velocity": 111,
      "chip": "ym2612"
    },
    {
      "channel": 4,
      "note": 79,
      "start": 73.3415,
      "duration": 0.0778,
      "velocity": 111,
      "chip": "ym2612"
    },
    {
      "channel": 4,
      "note": 77,
      "start": 73.4193,
      "duration": 0.249,
      "velocity": 111,
      "chip": "ym2612"
    },
    {
      "channel": 0,
      "note": 65,
      "start": 73.4815,
      "duration": 0.0153,
      "velocity": 127,
      "chip": "ym2612"
    },
    {
      "channel": 1,
      "note": 58,
      "start": 73.4816,
      "duration": 0.1242,
      "velocity": 113,
      "chip": "ym2612"
    },
    {
      "channel": 2,
      "note": 76,
      "start": 73.4817,
      "duration": 0.2491,
      "velocity": 111,
      "chip": "ym2612"
    },
    {
      "channel": 0,
      "note": 76,
      "start": 73.4968,
      "duration": 0.2337,
      "velocity": 123,
      "chip": "ym2612"
    },
    {
      "channel": 4,
      "note": 76,
      "start": 73.6683,
      "duration": 0.249,
      "velocity": 111,
      "chip": "ym2612"
    },
    {
      "channel": 0,
      "note": 65,
      "start": 73.7305,
      "duration": 0.249,
      "velocity": 123,
      "chip": "ym2612"
    },
    {
      "channel": 1,
      "note": 58,
      "start": 73.7307,
      "duration": 0.1241,
      "velocity": 113,
      "chip": "ym2612"
    },
    {
      "channel": 2,
      "note": 74,
      "start": 73.7308,
      "duration": 0.747,
      "velocity": 111,
      "chip": "ym2612"
    },
    {
      "channel": 4,
      "note": 74,
      "start": 73.9173,
      "duration": 0.747,
      "velocity": 111,
      "chip": "ym2612"
    },
    {
      "channel": 0,
      "note": 52,
      "start": 73.9795,
      "duration": 0.249,
      "velocity": 123,
      "chip": "ym2612"
    },
    {
      "channel": 1,
      "note": 58,
      "start": 73.9796,
      "duration": 0.1242,
      "velocity": 113,
      "chip": "ym2612"
    },
    {
      "channel": 0,
      "note": 52,
      "start": 74.2285,
      "duration": 0.249,
      "velocity": 123,
      "chip": "ym2612"
    },
    {
      "channel": 1,
      "note": 58,
      "start": 74.2286,
      "duration": 0.1242,
      "velocity": 113,
      "chip": "ym2612"
    },
    {
      "channel": 0,
      "note": 52,
      "start": 74.4775,
      "duration": 0.249,
      "velocity": 127,
      "chip": "ym2612"
    },
    {
      "channel": 1,
      "note": 58,
      "start": 74.4776,
      "duration": 0.1242,
      "velocity": 113,
      "chip": "ym2612"
    },
    {
      "channel": 2,
      "note": 76,
      "start": 74.4778,
      "duration": 0.249,
      "velocity": 111,
      "chip": "ym2612"
    },
    {
      "channel": 4,
      "note": 76,
      "start": 74.6644,
      "duration": 0.249,
      "velocity": 111,
      "chip": "ym2612"
    },
    {
      "channel": 0,
      "note": 52,
      "start": 74.7265,
      "duration": 0.0153,
      "velocity": 127,
      "chip": "ym2612"
    },
    {
      "channel": 1,
      "note": 58,
      "start": 74.7267,
      "duration": 0.1242,
      "velocity": 113,
      "chip": "ym2612"
    },
    {
      "channel": 2,
      "note": 72,
      "start": 74.7268,
      "duration": 0.249,
      "velocity": 111,
      "chip": "ym2612"
    },
    {
      "channel": 0,
      "note": 76,
      "start": 74.7418,
      "duration": 0.2337,
      "velocity": 127,
      "chip": "ym2612"
    },
    {
      "channel": 4,
      "note": 72,
      "start": 74.9134,
      "duration": 0.249,
      "velocity": 111,
      "chip": "ym2612"
    },
    {
      "channel": 0,
      "note": 65,
      "start": 74.9755,
      "duration": 0.0153,
      "velocity": 127,
      "chip": "ym2612"
    },
    {
      "channel": 1,
      "note": 58,
      "start": 74.9756,
      "duration": 0.1242,
      "velocity": 113,
      "chip": "ym2612"
    },
    {
      "channel": 2,
      "note": 74,
      "start": 74.9758,
      "duration": 0.249,
      "velocity": 111,
      "chip": "ym2612"
    },
    {
      "channel": 0,
      "note": 76,
      "start": 74.9908,
      "duration": 0.2337,
      "velocity": 127,
      "chip": "ym2612"
    },
    {
      "channel": 4,
      "note": 74,
      "start": 75.1624,
      "duration": 0.249,
      "velocity": 111,
      "chip": "ym2612"
    },
    {
      "channel": 0,
      "note": 65,
      "start": 75.2245,
      "duration": 0.0153,
      "velocity": 127,
      "chip": "ym2612"
    },
    {
      "channel": 1,
      "note": 58,
      "start": 75.2246,
      "duration": 0.1242,
      "velocity": 113,
      "chip": "ym2612"
    },
    {
      "channel": 2,
      "note": 76,
      "start": 75.2248,
      "duration": 0.2492,
      "velocity": 111,
      "chip": "ym2612"
    },
    {
      "channel": 0,
      "note": 76,
      "start": 75.2399,
      "duration": 0.2337,
      "velocity": 127,
      "chip": "ym2612"
    },
    {
      "channel": 4,
      "note": 76,
      "start": 75.4114,
      "duration": 0.249,
      "velocity": 111,
      "chip": "ym2612"
    },
    {
      "channel": 0,
      "note": 65,
      "start": 75.4735,
      "duration": 0.0153,
      "velocity": 127,
      "chip": "ym2612"
    },
    {
      "channel": 1,
      "note": 58,
      "start": 75.4738,
      "duration": 0.1241,
      "velocity": 113,
      "chip": "ym2612"
    },
    {
      "channel": 2,
      "note": 77,
      "start": 75.4739,
      "duration": 0.2489,
      "velocity": 111,
      "chip": "ym2612"
    },
    {
      "channel": 0,
      "note": 76,
      "start": 75.4889,
      "duration": 0.2337,
      "velocity": 123,
      "chip": "ym2612"
    },
    {
      "channel": 4,
      "note": 77,
      "start": 75.6604,
      "duration": 0.249,
      "velocity": 111,
      "chip": "ym2612"
    },
    {
      "channel": 0,
      "note": 65,
      "start": 75.7226,
      "duration": 0.249,
      "velocity": 123,
      "chip": "ym2612"
    },
    {
      "channel": 1,
      "note": 58,
      "start": 75.7227,
      "duration": 0.1242,
      "velocity": 113,
      "chip": "ym2612"
    },
    {
      "channel": 2,
      "note": 79,
      "start": 75.7229,
      "duration": 0.2489,
      "velocity": 111,
      "chip": "ym2612"
    },
    {
      "channel": 3,
      "note": 46,
      "start": 75.723,
      "duration": 3.9843,
      "velocity": 121,
      "chip": "ym2612"
    },
    {
      "channel": 5,
      "note": 46,
      "start": 75.785,
      "duration": 3.9841,
      "velocity": 121,
      "chip": "ym2612"
    },
    {
      "channel": 4,
      "note": 79,
      "start": 75.9094,
      "duration": 0.249,
      "velocity": 111,
      "chip": "ym2612"
    },
    {
      "channel": 0,
      "note": 52,
      "start": 75.9716,
      "duration": 0.249,
      "velocity": 123,
      "chip": "ym2612"
    },
    {
      "channel": 1,
      "note": 58,
      "start": 75.9717,
      "duration": 0.1242,
      "velocity": 113,
      "chip": "ym2612"
    },
    {
      "channel": 2,
      "note": 80,
      "start": 75.9718,
      "duration": 0.0775,
      "velocity": 111,
      "chip": "ym2612"
    },
    {
      "channel": 2,
      "note": 79,
      "start": 76.0493,
      "duration": 0.0934,
      "velocity": 111,
      "chip": "ym2612"
    },
    {
      "channel": 2,
      "note": 80,
      "start": 76.1427,
      "duration": 0.0781,
      "velocity": 111,
      "chip": "ym2612"
    },
    {
      "channel": 4,
      "note": 80,
      "start": 76.1584,
      "duration": 0.0778,
      "velocity": 111,
      "chip": "ym2612"
    },
    {
      "channel": 0,
      "note": 52,
      "start": 76.2206,
      "duration": 0.249,
      "velocity": 123,
      "chip": "ym2612"
    },
    {
      "channel": 1,
      "note": 58,
      "start": 76.2207,
      "duration": 0.1242,
      "velocity": 113,
      "chip": "ym2612"
    },
    {
      "channel": 2,
      "note": 79,
      "start": 76.2208,
      "duration": 0.249,
      "velocity": 111,
      "chip": "ym2612"
    },
    {
      "channel": 4,
      "note": 79,
      "start": 76.2362,
      "duration": 0.0934,
      "velocity": 111,
      "chip": "ym2612"
    },
    {
      "channel": 4,
      "note": 80,
      "start": 76.3296,
      "duration": 0.0779,
      "velocity": 111,
      "chip": "ym2612"
    },
    {
      "channel": 4,
      "note": 79,
      "start": 76.4076,
      "duration": 0.2489,
      "velocity": 111,
      "chip": "ym2612"
    },
    {
      "channel": 0,
      "note": 52,
      "start": 76.4696,
      "duration": 0.249,
      "velocity": 127,
      "chip": "ym2612"
    },
    {
      "channel": 1,
      "note": 58,
      "start": 76.4697,
      "duration": 0.1242,
      "velocity": 113,
      "chip": "ym2612"
    },
    {
      "channel": 2,
      "note": 77,
      "start": 76.4698,
      "duration": 0.249,
      "velocity": 111,
      "chip": "ym2612"
    },
    {
      "channel": 4,
      "note": 77,
      "start": 76.6564,
      "duration": 0.249,
      "velocity": 111,
      "chip": "ym2612"
    },
    {
      "channel": 0,
      "note": 52,
      "start": 76.7186,
      "duration": 0.0153,
      "velocity": 127,
      "chip": "ym2612"
    },
    {
      "channel": 1,
      "note": 58,
      "start": 76.7188,
      "duration": 0.1242,
      "velocity": 113,
      "chip": "ym2612"
    },
    {
      "channel": 2,
      "note": 76,
      "start": 76.7189,
      "duration": 0.249,
      "velocity": 111,
      "chip": "ym2612"
    },
    {
      "channel": 0,
      "note": 76,
      "start": 76.7339,
      "duration": 0.2337,
      "velocity": 127,
      "chip": "ym2612"
    },
    {
      "channel": 4,
      "note": 76,
      "start": 76.9054,
      "duration": 0.249,
      "velocity": 111,
      "chip": "ym2612"
    },
    {
      "channel": 0,
      "note": 65,
      "start": 76.9676,
      "duration": 0.0153,
      "velocity": 127,
      "chip": "ym2612"
    },
    {
      "channel": 1,
      "note": 58,
      "start": 76.9677,
      "duration": 0.1242,
      "velocity": 113,
      "chip": "ym2612"
    },
    {
      "channel": 2,
      "note": 79,
      "start": 76.9678,
      "duration": 0.0775,
      "velocity": 111,
      "chip": "ym2612"
    },
    {
      "channel": 0,
      "note": 76,
      "start": 76.9829,
      "duration": 0.2337,
      "velocity": 127,
      "chip": "ym2612"
    },
    {
      "channel": 2,
      "note": 77,
      "start": 77.0454,
      "duration": 0.0934,
      "velocity": 111,
      "chip": "ym2612"
    },
    {
      "channel": 2,
      "note": 79,
      "start": 77.1387,
      "duration": 0.0781,
      "velocity": 111,
      "chip": "ym2612"
    },
    {
      "channel": 4,
      "note": 79,
      "start": 77.1545,
      "duration": 0.0778,
      "velocity": 111,
      "chip": "ym2612"
    },
    {
      "channel": 0,
      "note": 65,
      "start": 77.2166,
      "duration": 0.0153,
      "velocity": 127,
      "chip": "ym2612"
    },
    {
      "channel": 1,
      "note": 58,
      "start": 77.2167,
      "duration": 0.1242,
      "velocity": 113,
      "chip": "ym2612"
    },
    {
      "channel": 2,
      "note": 77,
      "start": 77.2168,
      "duration": 0.249,
      "velocity": 111,
      "chip": "ym2612"
    },
    {
      "channel": 0,
      "note": 76,
      "start": 77.2319,
      "duration": 0.2337,
      "velocity": 127,
      "chip": "ym2612"
    },
    {
      "channel": 4,
      "note": 77,
      "start": 77.2323,
      "duration": 0.0933,
      "velocity": 111,
      "chip": "ym2612"
    },
    {
      "channel": 4,
      "note": 79,
      "start": 77.3256,
      "duration": 0.0778,
      "velocity": 111,
      "chip": "ym2612"
    },
    {
      "channel": 4,
      "note": 77,
      "start": 77.4035,
      "duration": 0.249,
      "velocity": 111,
      "chip": "ym2612"
    },
    {
      "channel": 0,
      "note": 65,
      "start": 77.4656,
      "duration": 0.0153,
      "velocity": 127,
      "chip": "ym2612"
    },
    {
      "channel": 1,
      "note": 58,
      "start": 77.4657,
      "duration": 0.1242,
      "velocity": 113,
      "chip": "ym2612"
    },
    {
      "channel": 2,
      "note": 76,
      "start": 77.4659,
      "duration": 0.2491,
      "velocity": 111,
      "chip": "ym2612"
    },
    {
      "channel": 0,
      "note": 76,
      "start": 77.481,
      "duration": 0.2337,
      "velocity": 123,
      "chip": "ym2612"
    },
    {
      "channel": 4,
      "note": 76,
      "start": 77.6525,
      "duration": 0.249,
      "velocity": 111,
      "chip": "ym2612"
    },
    {
      "channel": 0,
      "note": 65,
      "start": 77.7147,
      "duration": 0.249,
      "velocity": 123,
      "chip": "ym2612"
    },
    {
      "channel": 1,
      "note": 58,
      "start": 77.7148,
      "duration": 0.1242,
      "velocity": 113,
      "chip": "ym2612"
    },
    {
      "channel": 2,
      "note": 74,
      "start": 77.7149,
      "duration": 0.249,
      "velocity": 111,
      "chip": "ym2612"
    },
    {
      "channel": 4,
      "note": 74,
      "start": 77.9015,
      "duration": 0.249,
      "velocity": 111,
      "chip": "ym2612"
    },
    {
      "channel": 0,
      "note": 52,
      "start": 77.9636,
      "duration": 0.249,
      "velocity": 123,
      "chip": "ym2612"
    },
    {
      "channel": 1,
      "note": 58,
      "start": 77.9638,
      "duration": 0.1242,
      "velocity": 113,
      "chip": "ym2612"
    },
    {
      "channel": 2,
      "note": 77,
      "start": 77.9639,
      "duration": 0.249,
      "velocity": 111,
      "chip": "ym2612"
    },
    {
      "channel": 4,
      "note": 77,
      "start": 78.1505,
      "duration": 0.249,
      "velocity": 111,
      "chip": "ym2612"
    },
    {
      "channel": 0,
      "note": 52,
      "start": 78.2127,
      "duration": 0.249,
      "velocity": 123,
      "chip": "ym2612"
    },
    {
      "channel": 1,
      "note": 58,
      "start": 78.2128,
      "duration": 0.1242,
      "velocity": 113,
      "chip": "ym2612"
    },
    {
      "channel": 2,
      "note": 76,
      "start": 78.2129,
      "duration": 0.249,
      "velocity": 111,
      "chip": "ym2612"
    },
    {
      "channel": 4,
      "note": 76,
      "start": 78.3995,
      "duration": 0.249,
      "velocity": 111,
      "chip": "ym2612"
    },
    {
      "channel": 0,
      "note": 52,
      "start": 78.4617,
      "duration": 0.249,
      "velocity": 127,
      "chip": "ym2612"
    },
    {
      "channel": 1,
      "note": 58,
      "start": 78.4618,
      "duration": 0.1242,
      "velocity": 113,
      "chip": "ym2612"
    },
    {
      "channel": 2,
      "note": 74,
      "start": 78.4619,
      "duration": 0.249,
      "velocity": 111,
      "chip": "ym2612"
    },
    {
      "channel": 4,
      "note": 74,
      "start": 78.6485,
      "duration": 0.249,
      "velocity": 111,
      "chip": "ym2612"
    },
    {
      "channel": 0,
      "note": 52,
      "start": 78.7107,
      "duration": 0.0153,
      "velocity": 127,
      "chip": "ym2612"
    },
    {
      "channel": 1,
      "note": 58,
      "start": 78.7108,
      "duration": 0.1242,
      "velocity": 113,
      "chip": "ym2612"
    },
    {
      "channel": 2,
      "note": 72,
      "start": 78.711,
      "duration": 0.249,
      "velocity": 111,
      "chip": "ym2612"
    },
    {
      "channel": 0,
      "note": 76,
      "start": 78.726,
      "duration": 0.2337,
      "velocity": 127,
      "chip": "ym2612"
    },
    {
      "channel": 4,
      "note": 72,
      "start": 78.8975,
      "duration": 0.249,
      "velocity": 111,
      "chip": "ym2612"
    },
    {
      "channel": 0,
      "note": 65,
      "start": 78.9597,
      "duration": 0.0153,
      "velocity": 127,
      "chip": "ym2612"
    },
    {
      "channel": 1,
      "note": 58,
      "start": 78.9598,
      "duration": 0.1242,
      "velocity": 113,
      "chip": "ym2612"
    },
    {
      "channel": 2,
      "note": 74,
      "start": 78.9599,
      "duration": 0.249,
      "velocity": 111,
      "chip": "ym2612"
    },
    {
      "channel": 0,
      "note": 76,
      "start": 78.975,
      "duration": 0.2337,
      "velocity": 127,
      "chip": "ym2612"
    },
    {
      "channel": 4,
      "note": 74,
      "start": 79.1465,
      "duration": 0.249,
      "velocity": 111,
      "chip": "ym2612"
    },
    {
      "channel": 0,
      "note": 65,
      "start": 79.2087,
      "duration": 0.0153,
      "velocity": 127,
      "chip": "ym2612"
    },
    {
      "channel": 1,
      "note": 58,
      "start": 79.2088,
      "duration": 0.1242,
      "velocity": 113,
      "chip": "ym2612"
    },
    {
      "channel": 2,
      "note": 71,
      "start": 79.2089,
      "duration": 0.249,
      "velocity": 111,
      "chip": "ym2612"
    },
    {
      "channel": 0,
      "note": 76,
      "start": 79.224,
      "duration": 0.2337,
      "velocity": 127,
      "chip": "ym2612"
    },
    {
      "channel": 4,
      "note": 71,
      "start": 79.3956,
      "duration": 0.249,
      "velocity": 111,
      "chip": "ym2612"
    },
    {
      "channel": 0,
      "note": 65,
      "start": 79.4577,
      "duration": 0.0153,
      "velocity": 127,
      "chip": "ym2612"
    },
    {
      "channel": 1,
      "note": 58,
      "start": 79.4578,
      "duration": 0.1242,
      "velocity": 113,
      "chip": "ym2612"
    },
    {
      "channel": 2,
      "note": 72,
      "start": 79.4579,
      "duration": 0.2493,
      "velocity": 111,
      "chip": "ym2612"
    },
    {
      "channel": 0,
      "note": 76,
      "start": 79.473,
      "duration": 0.2337,
      "velocity": 123,
      "chip": "ym2612"
    },
    {
      "channel": 4,
      "note": 72,
      "start": 79.6446,
      "duration": 0.249,
      "velocity": 111,
      "chip": "ym2612"
    },
    {
      "channel": 0,
      "note": 65,
      "start": 79.7067,
      "duration": 0.249,
      "velocity": 123,
      "chip": "ym2612"
    },
    {
      "channel": 1,
      "note": 58,
      "start": 79.7069,
      "duration": 0.1241,
      "velocity": 113,
      "chip": "ym2612"
    },
    {
      "channel": 2,
      "note": 74,
      "start": 79.7072,
      "duration": 0.7468,
      "velocity": 111,
      "chip": "ym2612"
    },
    {
      "channel": 3,
      "note": 46,
      "start": 79.7073,
      "duration": 0.7468,
      "velocity": 121,
      "chip": "ym2612"
    },
    {
      "channel": 5,
      "note": 46,
      "start": 79.7691,
      "duration": 0.7471,
      "velocity": 121,
      "chip": "ym2612"
    },
    {
      "channel": 4,
      "note": 74,
      "start": 79.8936,
      "duration": 0.7472,
      "velocity": 111,
      "chip": "ym2612"
    },
    {
      "channel": 0,
      "note": 52,
      "start": 79.9557,
      "duration": 0.249,
      "velocity": 123,
      "chip": "ym2612"
    },
    {
      "channel": 1,
      "note": 57,
      "start": 79.9558,
      "duration": 0.1242,
      "velocity": 113,
      "chip": "ym2612"
    },
    {
      "channel": 0,
      "note": 52,
      "start": 80.2047,
      "duration": 0.249,
      "velocity": 123,
      "chip": "ym2612"
    },
    {
      "channel": 1,
      "note": 57,
      "start": 80.2049,
      "duration": 0.1242,
      "velocity": 113,
      "chip": "ym2612"
    },
    {
      "channel": 0,
      "note": 52,
      "start": 80.4537,
      "duration": 0.249,
      "velocity": 127,
      "chip": "ym2612"
    },
    {
      "channel": 1,
      "note": 57,
      "start": 80.4539,
      "duration": 0.1242,
      "velocity": 113,
      "chip": "ym2612"
    },
    {
      "channel": 2,
      "note": 76,
      "start": 80.454,
      "duration": 0.249,
      "velocity": 111,
      "chip": "ym2612"
    },
    {
      "channel": 3,
      "note": 45,
      "start": 80.4541,
      "duration": 0.249,
      "velocity": 121,
      "chip": "ym2612"
    },
    {
      "channel": 5,
      "note": 45,
      "start": 80.5162,
      "duration": 0.249,
      "velocity": 121,
      "chip": "ym2612"
    },
    {
      "channel": 4,
      "note": 76,
      "start": 80.6408,
      "duration": 0.2488,
      "velocity": 111,
      "chip": "ym2612"
    },
    {
      "channel": 0,
      "note": 52,
      "start": 80.7028,
      "duration": 0.0153,
      "velocity": 127,
      "chip": "ym2612"
    },
    {
      "channel": 1,
      "note": 57,
      "start": 80.7029,
      "duration": 0.1242,
      "velocity": 113,
      "chip": "ym2612"
    },
    {
      "channel": 0,
      "note": 76,
      "start": 80.7181,
      "duration": 0.2337,
      "velocity": 127,
      "chip": "ym2612"
    },
    {
      "channel": 0,
      "note": 65,
      "start": 80.9517,
      "duration": 0.0153,
      "velocity": 127,
      "chip": "ym2612"
    },
    {
      "channel": 1,
      "note": 57,
      "start": 80.9519,
      "duration": 0.1242,
      "velocity": 113,
      "chip": "ym2612"
    },
    {
      "channel": 0,
      "note": 76,
      "start": 80.9671,
      "duration": 0.2337,
      "velocity": 127,
      "chip": "ym2612"
    },
    {
      "channel": 0,
      "note": 65,
      "start": 81.2007,
      "duration": 0.0153,
      "velocity": 127,
      "chip": "ym2612"
    },
    {
      "channel": 1,
      "note": 57,
      "start": 81.2009,
      "duration": 0.1242,
      "velocity": 113,
      "chip": "ym2612"
    },
    {
      "channel": 0,
      "note": 76,
      "start": 81.2161,
      "duration": 0.2337,
      "velocity": 127,
      "chip": "ym2612"
    },
    {
      "channel": 0,
      "note": 65,
      "start": 81.4498,
      "duration": 0.0153,
      "velocity": 127,
      "chip": "ym2612"
    },
    {
      "channel": 1,
      "note": 57,
      "start": 81.4499,
      "duration": 0.1242,
      "velocity": 113,
      "chip": "ym2612"
    },
    {
      "channel": 0,
      "note": 76,
      "start": 81.4651,
      "duration": 0.2337,
      "velocity": 123,
      "chip": "ym2612"
    },
    {
      "channel": 0,
      "note": 65,
      "start": 81.6988,
      "duration": 0.249,
      "velocity": 123,
      "chip": "ym2612"
    },
    {
      "channel": 1,
      "note": 57,
      "start": 81.699,
      "duration": 0.1242,
      "velocity": 113,
      "chip": "ym2612"
    },
    {
      "channel": 0,
      "note": 52,
      "start": 81.9478,
      "duration": 0.249,
      "velocity": 123,
      "chip": "ym2612"
    },
    {
      "channel": 1,
      "note": 57,
      "start": 81.9479,
      "duration": 0.1242,
      "velocity": 113,
      "chip": "ym2612"
    },
    {
      "channel": 0,
      "note": 52,
      "start": 82.1968,
      "duration": 0.249,
      "velocity": 123,
      "chip": "ym2612"
    },
    {
      "channel": 1,
      "note": 57,
      "start": 82.1969,
      "duration": 0.1242,
      "velocity": 113,
      "chip": "ym2612"
    },
    {
      "channel": 0,
      "note": 52,
      "start": 82.4458,
      "duration": 0.249,
      "velocity": 127,
      "chip": "ym2612"
    },
    {
      "channel": 1,
      "note": 57,
      "start": 82.4459,
      "duration": 0.1242,
      "velocity": 113,
      "chip": "ym2612"
    },
    {
      "channel": 0,
      "note": 52,
      "start": 82.6948,
      "duration": 0.0153,
      "velocity": 127,
      "chip": "ym2612"
    },
    {
      "channel": 1,
      "note": 57,
      "start": 82.695,
      "duration": 0.1242,
      "velocity": 113,
      "chip": "ym2612"
    },
    {
      "channel": 0,
      "note": 76,
      "start": 82.7101,
      "duration": 0.2337,
      "velocity": 127,
      "chip": "ym2612"
    },
    {
      "channel": 0,
      "note": 65,
      "start": 82.9438,
      "duration": 0.0153,
      "velocity": 127,
      "chip": "ym2612"
    },
    {
      "channel": 1,
      "note": 57,
      "start": 82.9439,
      "duration": 0.1242,
      "velocity": 113,
      "chip": "ym2612"
    },
    {
      "channel": 0,
      "note": 76,
      "start": 82.9592,
      "duration": 0.2337,
      "velocity": 127,
      "chip": "ym2612"
    },
    {
      "channel": 0,
      "note": 65,
      "start": 83.1928,
      "duration": 0.0153,
      "velocity": 127,
      "chip": "ym2612"
    },
    {
      "channel": 1,
      "note": 57,
      "start": 83.193,
      "duration": 0.1242,
      "velocity": 113,
      "chip": "ym2612"
    },
    {
      "channel": 0,
      "note": 76,
      "start": 83.2082,
      "duration": 0.2337,
      "velocity": 127,
      "chip": "ym2612"
    },
    {
      "channel": 0,
      "note": 65,
      "start": 83.4418,
      "duration": 0.0154,
      "velocity": 127,
      "chip": "ym2612"
    },
    {
      "channel": 1,
      "note": 57,
      "start": 83.442,
      "duration": 0.1242,
      "velocity": 113,
      "chip": "ym2612"
    },
    {
      "channel": 2,
      "note": 69,
      "start": 83.4421,
      "duration": 0.2491,
      "velocity": 111,
      "chip": "ym2612"
    },
    {
      "channel": 3,
      "note": 45,
      "start": 83.4424,
      "duration": 0.1239,
      "velocity": 101,
      "chip": "ym2612"
    },
    {
      "channel": 0,
      "note": 76,
      "start": 83.4572,
      "duration": 0.2337,
      "velocity": 123,
      "chip": "ym2612"
    },
    {
      "channel": 5,
      "note": 45,
      "start": 83.5045,
      "duration": 0.1243,
      "velocity": 101,
      "chip": "ym2612"
    },
    {
      "channel": 4,
      "note": 69,
      "start": 83.6287,
      "duration": 0.249,
      "velocity": 111,
      "chip": "ym2612"
    },
    {
      "channel": 0,
      "note": 65,
      "start": 83.6909,
      "duration": 0.249,
      "velocity": 123,
      "chip": "ym2612"
    },
    {
      "channel": 1,
      "note": 57,
      "start": 83.691,
      "duration": 0.1241,
      "velocity": 113,
      "chip": "ym2612"
    },
    {
      "channel": 2,
      "note": 72,
      "start": 83.6912,
      "duration": 0.747,
      "velocity": 111,
      "chip": "ym2612"
    },
    {
      "channel": 3,
      "note": 84,
      "start": 83.6913,
      "duration": 0.747,
      "velocity": 101,
      "chip": "ym2612"
    },
    {
      "channel": 5,
      "note": 84,
      "start": 83.7533,
      "duration": 0.7471,
      "velocity": 101,
      "chip": "ym2612"
    },
    {
      "channel": 4,
      "note": 72,
      "start": 83.8777,
      "duration": 0.747,
      "velocity": 111,
      "chip": "ym2612"
    },
    {
      "channel": 0,
      "note": 52,
      "start": 83.9399,
      "duration": 0.249,
      "velocity": 123,
      "chip": "ym2612"
    },
    {
      "channel": 1,
      "note": 57,
      "start": 83.94,
      "duration": 0.1242,
      "velocity": 113,
      "chip": "ym2612"
    },
    {
      "channel": 0,
      "note": 52,
      "start": 84.1889,
      "duration": 0.249,
      "velocity": 123,
      "chip": "ym2612"
    },
    {
      "channel": 1,
      "note": 57,
      "start": 84.189,
      "duration": 0.1242,
      "velocity": 113,
      "chip": "ym2612"
    },
    {
      "channel": 0,
      "note": 52,
      "start": 84.4379,
      "duration": 0.249,
      "velocity": 127,
      "chip": "ym2612"
    },
    {
      "channel": 1,
      "note": 57,
      "start": 84.438,
      "duration": 0.1242,
      "velocity": 113,
      "chip": "ym2612"
    },
    {
      "channel": 2,
      "note": 74,
      "start": 84.4381,
      "duration": 0.249,
      "velocity": 111,
      "chip": "ym2612"
    },
    {
      "channel": 3,
      "note": 86,
      "start": 84.4383,
      "duration": 0.1552,
      "velocity": 101,
      "chip": "ym2612"
    },
    {
      "channel": 5,
      "note": 86,
      "start": 84.5004,
      "duration": 0.1556,
      "velocity": 101,
      "chip": "ym2612"
    },
    {
      "channel": 4,
      "note": 74,
      "start": 84.6247,
      "duration": 0.2492,
      "velocity": 111,
      "chip": "ym2612"
    },
    {
      "channel": 0,
      "note": 52,
      "start": 84.6869,
      "duration": 0.0153,
      "velocity": 127,
      "chip": "ym2612"
    },
    {
      "channel": 1,
      "note": 57,
      "start": 84.6871,
      "duration": 0.1242,
      "velocity": 113,
      "chip": "ym2612"
    },
    {
      "channel": 3,
      "note": 81,
      "start": 84.6873,
      "duration": 0.1552,
      "velocity": 101,
      "chip": "ym2612"
    },
    {
      "channel": 0,
      "note": 76,
      "start": 84.7022,
      "duration": 0.2337,
      "velocity": 127,
      "chip": "ym2612"
    },
    {
      "channel": 5,
      "note": 81,
      "start": 84.7494,
      "duration": 0.1556,
      "velocity": 101,
      "chip": "ym2612"
    },
    {
      "channel": 0,
      "note": 65,
      "start": 84.9359,
      "duration": 0.0153,
      "velocity": 127,
      "chip": "ym2612"
    },
    {
      "channel": 1,
      "note": 57,
      "start": 84.936,
      "duration": 0.1242,
      "velocity": 113,
      "chip": "ym2612"
    },
    {
      "channel": 3,
      "note": 81,
      "start": 84.9363,
      "duration": 0.1552,
      "velocity": 101,
      "chip": "ym2612"
    },
    {
      "channel": 0,
      "note": 76,
      "start": 84.9512,
      "duration": 0.2337,
      "velocity": 127,
      "chip": "ym2612"
    },
    {
      "channel": 5,
      "note": 81,
      "start": 84.9985,
      "duration": 0.1555,
      "velocity": 101,
      "chip": "ym2612"
    },
    {
      "channel": 0,
      "note": 65,
      "start": 85.1849,
      "duration": 0.0153,
      "velocity": 127,
      "chip": "ym2612"
    },
    {
      "channel": 1,
      "note": 57,
      "start": 85.185,
      "duration": 0.1242,
      "velocity": 113,
      "chip": "ym2612"
    },
    {
      "channel": 3,
      "note": 81,
      "start": 85.1853,
      "duration": 0.1554,
      "velocity": 101,
      "chip": "ym2612"
    },
    {
      "channel": 0,
      "note": 76,
      "start": 85.2002,
      "duration": 0.2337,
      "velocity": 127,
      "chip": "ym2612"
    },
    {
      "channel": 5,
      "note": 81,
      "start": 85.2475,
      "duration": 0.1556,
      "velocity": 101,
      "chip": "ym2612"
    },
    {
      "channel": 0,
      "note": 65,
      "start": 85.4339,
      "duration": 0.0153,
      "velocity": 127,
      "chip": "ym2612"
    },
    {
      "channel": 1,
      "note": 57,
      "start": 85.434,
      "duration": 0.1242,
      "velocity": 113,
      "chip": "ym2612"
    },
    {
      "channel": 3,
      "note": 81,
      "start": 85.4343,
      "duration": 0.1552,
      "velocity": 101,
      "chip": "ym2612"
    },
    {
      "channel": 0,
      "note": 76,
      "start": 85.4493,
      "duration": 0.2337,
      "velocity": 123,
      "chip": "ym2612"
    },
    {
      "channel": 5,
      "note": 81,
      "start": 85.4965,
      "duration": 0.1556,
      "velocity": 101,
      "chip": "ym2612"
    },
    {
      "channel": 0,
      "note": 65,
      "start": 85.683,
      "duration": 0.249,
      "velocity": 123,
      "chip": "ym2612"
    },
    {
      "channel": 1,
      "note": 57,
      "start": 85.6831,
      "duration": 0.1242,
      "velocity": 113,
      "chip": "ym2612"
    },
    {
      "channel": 3,
      "note": 81,
      "start": 85.6834,
      "duration": 0.1552,
      "velocity": 101,
      "chip": "ym2612"
    },
    {
      "channel": 5,
      "note": 81,
      "start": 85.7455,
      "duration": 0.1555,
      "velocity": 101,
      "chip": "ym2612"
    },
    {
      "channel": 0,
      "note": 52,
      "start": 85.9319,
      "duration": 0.249,
      "velocity": 123,
      "chip": "ym2612"
    },
    {
      "channel": 1,
      "note": 57,
      "start": 85.9321,
      "duration": 0.1242,
      "velocity": 113,
      "chip": "ym2612"
    },
    {
      "channel": 3,
      "note": 81,
      "start": 85.9323,
      "duration": 0.1552,
      "velocity": 101,
      "chip": "ym2612"
    },
    {
      "channel": 5,
      "note": 81,
      "start": 85.9945,
      "duration": 0.1555,
      "velocity": 101,
      "chip": "ym2612"
    },
    {
      "channel": 0,
      "note": 52,
      "start": 86.181,
      "duration": 0.249,
      "velocity": 123,
      "chip": "ym2612"
    },
    {
      "channel": 1,
      "note": 57,
      "start": 86.1811,
      "duration": 0.1242,
      "velocity": 113,
      "chip": "ym2612"
    },
    {
      "channel": 3,
      "note": 81,
      "start": 86.1814,
      "duration": 0.1552,
      "velocity": 101,
      "chip": "ym2612"
    },
    {
      "channel": 5,
      "note": 81,
      "start": 86.2435,
      "duration": 0.1556,
      "velocity": 101,
      "chip": "ym2612"
    },
    {
      "channel": 0,
      "note": 52,
      "start": 86.43,
      "duration": 0.249,
      "velocity": 127,
      "chip": "ym2612"
    },
    {
      "channel": 1,
      "note": 57,
      "start": 86.4301,
      "duration": 0.1242,
      "velocity": 113,
      "chip": "ym2612"
    },
    {
      "channel": 3,
      "note": 81,
      "start": 86.4304,
      "duration": 0.1552,
      "velocity": 101,
      "chip": "ym2612"
    },
    {
      "channel": 5,
      "note": 81,
      "start": 86.4925,
      "duration": 0.1555,
      "velocity": 101,
      "chip": "ym2612"
    },
    {
      "channel": 0,
      "note": 52,
      "start": 86.679,
      "duration": 0.0153,
      "velocity": 127,
      "chip": "ym2612"
    },
    {
      "channel": 1,
      "note": 57,
      "start": 86.6791,
      "duration": 0.1242,
      "velocity": 113,
      "chip": "ym2612"
    },
    {
      "channel": 0,
      "note": 76,
      "start": 86.6943,
      "duration": 0.2337,
      "velocity": 127,
      "chip": "ym2612"
    },
    {
      "channel": 0,
      "note": 65,
      "start": 86.928,
      "duration": 0.0153,
      "velocity": 127,
      "chip": "ym2612"
    },
    {
      "channel": 1,
      "note": 57,
      "start": 86.9281,
      "duration": 0.1242,
      "velocity": 113,
      "chip": "ym2612"
    },
    {
      "channel": 0,
      "note": 76,
      "start": 86.9433,
      "duration": 0.2337,
      "velocity": 127,
      "chip": "ym2612"
    },
    {
      "channel": 0,
      "note": 65,
      "start": 87.177,
      "duration": 0.0153,
      "velocity": 127,
      "chip": "ym2612"
    },
    {
      "channel": 1,
      "note": 57,
      "start": 87.1771,
      "duration": 0.1242,
      "velocity": 113,
      "chip": "ym2612"
    },
    {
      "channel": 0,
      "note": 76,
      "start": 87.1923,
      "duration": 0.2337,
      "velocity": 127,
      "chip": "ym2612"
    },
    {
      "channel": 0,
      "note": 65,
      "start": 87.426,
      "duration": 0.0153,
      "velocity": 127,
      "chip": "ym2612"
    },
    {
      "channel": 1,
      "note": 57,
      "start": 87.4261,
      "duration": 0.1242,
      "velocity": 113,
      "chip": "ym2612"
    },
    {
      "channel": 0,
      "note": 76,
      "start": 87.4413,
      "duration": 0.2337,
      "velocity": 123,
      "chip": "ym2612"
    },
    {
      "channel": 0,
      "note": 65,
      "start": 87.675,
      "duration": 0.2491,
      "velocity": 123,
      "chip": "ym2612"
    },
    {
      "channel": 1,
      "note": 57,
      "start": 87.6752,
      "duration": 0.1241,
      "velocity": 113,
      "chip": "ym2612"
    },
    {
      "channel": 3,
      "note": 81,
      "start": 87.6757,
      "duration": 3.9839,
      "velocity": 121,
      "chip": "ym2612"
    },
    {
      "channel": 5,
      "note": 81,
      "start": 87.7377,
      "duration": 3.9839,
      "velocity": 121,
      "chip": "ym2612"
    },
    {
      "channel": 0,
      "note": 52,
      "start": 87.9241,
      "duration": 0.2489,
      "velocity": 123,
      "chip": "ym2612"
    },
    {
      "channel": 1,
      "note": 58,
      "start": 87.9242,
      "duration": 0.1241,
      "velocity": 113,
      "chip": "ym2612"
    },
    {
      "channel": 2,
      "note": 69,
      "start": 87.9243,
      "duration": 0.2489,
      "velocity": 111,
      "chip": "ym2612"
    },
    {
      "channel": 4,
      "note": 69,
      "start": 88.1109,
      "duration": 0.249,
      "velocity": 111,
      "chip": "ym2612"
    },
    {
      "channel": 0,
      "note": 52,
      "start": 88.173,
      "duration": 0.249,
      "velocity": 123,
      "chip": "ym2612"
    },
    {
      "channel": 1,
      "note": 58,
      "start": 88.1732,
      "duration": 0.1242,
      "velocity": 113,
      "chip": "ym2612"
    },
    {
      "channel": 2,
      "note": 74,
      "start": 88.1733,
      "duration": 0.249,
      "velocity": 111,
      "chip": "ym2612"
    },
    {
      "channel": 4,
      "note": 74,
      "start": 88.3599,
      "duration": 0.249,
      "velocity": 111,
      "chip": "ym2612"
    },
    {
      "channel": 0,
      "note": 52,
      "start": 88.422,
      "duration": 0.249,
      "velocity": 127,
      "chip": "ym2612"
    },
    {
      "channel": 1,
      "note": 58,
      "start": 88.4222,
      "duration": 0.1242,
      "velocity": 113,
      "chip": "ym2612"
    },
    {
      "channel": 2,
      "note": 76,
      "start": 88.4223,
      "duration": 0.249,
      "velocity": 111,
      "chip": "ym2612"
    },
    {
      "channel": 4,
      "note": 76,
      "start": 88.6089,
      "duration": 0.249,
      "velocity": 111,
      "chip": "ym2612"
    },
    {
      "channel": 0,
      "note": 52,
      "start": 88.6711,
      "duration": 0.0153,
      "velocity": 127,
      "chip": "ym2612"
    },
    {
      "channel": 1,
      "note": 58,
      "start": 88.6712,
      "duration": 0.1242,
      "velocity": 113,
      "chip": "ym2612"
    },
    {
      "channel": 2,
      "note": 77,
      "start": 88.6713,
      "duration": 0.249,
      "velocity": 111,
      "chip": "ym2612"
    },
    {
      "channel": 0,
      "note": 76,
      "start": 88.6864,
      "duration": 0.2337,
      "velocity": 127,
      "chip": "ym2612"
    },
    {
      "channel": 4,
      "note": 77,
      "start": 88.8579,
      "duration": 0.2492,
      "velocity": 111,
      "chip": "ym2612"
    },
    {
      "channel": 0,
      "note": 65,
      "start": 88.92,
      "duration": 0.0153,
      "velocity": 127,
      "chip": "ym2612"
    },
    {
      "channel": 1,
      "note": 58,
      "start": 88.9202,
      "duration": 0.1242,
      "velocity": 113,
      "chip": "ym2612"
    },
    {
      "channel": 2,
      "note": 79,
      "start": 88.9203,
      "duration": 0.0775,
      "velocity": 111,
      "chip": "ym2612"
    },
    {
      "channel": 0,
      "note": 76,
      "start": 88.9354,
      "duration": 0.2337,
      "velocity": 127,
      "chip": "ym2612"
    },
    {
      "channel": 2,
      "note": 77,
      "start": 88.9978,
      "duration": 0.0934,
      "velocity": 111,
      "chip": "ym2612"
    },
    {
      "channel": 2,
      "note": 79,
      "start": 89.0912,
      "duration": 0.0781,
      "velocity": 111,
      "chip": "ym2612"
    },
    {
      "channel": 4,
      "note": 79,
      "start": 89.1071,
      "duration": 0.0777,
      "velocity": 111,
      "chip": "ym2612"
    },
    {
      "channel": 0,
      "note": 65,
      "start": 89.1691,
      "duration": 0.0153,
      "velocity": 127,
      "chip": "ym2612"
    },
    {
      "channel": 1,
      "note": 58,
      "start": 89.1692,
      "duration": 0.1242,
      "velocity": 113,
      "chip": "ym2612"
    },
    {
      "channel": 2,
      "note": 77,
      "start": 89.1693,
      "duration": 0.249,
      "velocity": 111,
      "chip": "ym2612"
    },
    {
      "channel": 0,
      "note": 76,
      "start": 89.1844,
      "duration": 0.2337,
      "velocity": 127,
      "chip": "ym2612"
    },
    {
      "channel": 4,
      "note": 77,
      "start": 89.1848,
      "duration": 0.0933,
      "velocity": 111,
      "chip": "ym2612"
    },
    {
      "channel": 4,
      "note": 79,
      "start": 89.2781,
      "duration": 0.0778,
      "velocity": 111,
      "chip": "ym2612"
    },
    {
      "channel": 4,
      "note": 77,
      "start": 89.3559,
      "duration": 0.249,
      "velocity": 111,
      "chip": "ym2612"
    },
    {
      "channel": 0,
      "note": 65,
      "start": 89.4181,
      "duration": 0.0153,
      "velocity": 127,
      "chip": "ym2612"
    },
    {
      "channel": 1,
      "note": 58,
      "start": 89.4182,
      "duration": 0.1242,
      "velocity": 113,
      "chip": "ym2612"
    },
    {
      "channel": 2,
      "note": 76,
      "start": 89.4183,
      "duration": 0.249,
      "velocity": 111,
      "chip": "ym2612"
    },
    {
      "channel": 0,
      "note": 76,
      "start": 89.4334,
      "duration": 0.2337,
      "velocity": 123,
      "chip": "ym2612"
    },
    {
      "channel": 4,
      "note": 76,
      "start": 89.6049,
      "duration": 0.249,
      "velocity": 111,
      "chip": "ym2612"
    },
    {
      "channel": 0,
      "note": 65,
      "start": 89.6671,
      "duration": 0.249,
      "velocity": 123,
      "chip": "ym2612"
    },
    {
      "channel": 1,
      "note": 58,
      "start": 89.6673,
      "duration": 0.1242,
      "velocity": 113,
      "chip": "ym2612"
    },
    {
      "channel": 2,
      "note": 74,
      "start": 89.6674,
      "duration": 0.747,
      "velocity": 111,
      "chip": "ym2612"
    },
    {
      "channel": 4,
      "note": 74,
      "start": 89.8539,
      "duration": 0.747,
      "velocity": 111,
      "chip": "ym2612"
    },
    {
      "channel": 0,
      "note": 52,
      "start": 89.9161,
      "duration": 0.249,
      "velocity": 123,
      "chip": "ym2612"
    },
    {
      "channel": 1,
      "note": 58,
      "start": 89.9162,
      "duration": 0.1244,
      "velocity": 113,
      "chip": "ym2612"
    },
    {
      "channel": 0,
      "note": 52,
      "start": 90.1651,
      "duration": 0.249,
      "velocity": 123,
      "chip": "ym2612"
    },
    {
      "channel": 1,
      "note": 58,
      "start": 90.1652,
      "duration": 0.1242,
      "velocity": 113,
      "chip": "ym2612"
    },
    {
      "channel": 0,
      "note": 52,
      "start": 90.4141,
      "duration": 0.249,
      "velocity": 127,
      "chip": "ym2612"
    },
    {
      "channel": 1,
      "note": 58,
      "start": 90.4142,
      "duration": 0.1242,
      "velocity": 113,
      "chip": "ym2612"
    },
    {
      "channel": 2,
      "note": 76,
      "start": 90.4144,
      "duration": 0.249,
      "velocity": 111,
      "chip": "ym2612"
    },
    {
      "channel": 4,
      "note": 76,
      "start": 90.601,
      "duration": 0.249,
      "velocity": 111,
      "chip": "ym2612"
    },
    {
      "channel": 0,
      "note": 52,
      "start": 90.6632,
      "duration": 0.0153,
      "velocity": 127,
      "chip": "ym2612"
    },
    {
      "channel": 1,
      "note": 58,
      "start": 90.6633,
      "duration": 0.1242,
      "velocity": 113,
      "chip": "ym2612"
    },
    {
      "channel": 2,
      "note": 72,
      "start": 90.6634,
      "duration": 0.249,
      "velocity": 111,
      "chip": "ym2612"
    },
    {
      "channel": 0,
      "note": 76,
      "start": 90.6785,
      "duration": 0.2337,
      "velocity": 127,
      "chip": "ym2612"
    },
    {
      "channel": 4,
      "note": 72,
      "start": 90.85,
      "duration": 0.249,
      "velocity": 111,
      "chip": "ym2612"
    },
    {
      "channel": 0,
      "note": 65,
      "start": 90.9121,
      "duration": 0.0153,
      "velocity": 127,
      "chip": "ym2612"
    },
    {
      "channel": 1,
      "note": 58,
      "start": 90.9122,
      "duration": 0.1242,
      "velocity": 113,
      "chip": "ym2612"
    },
    {
      "channel": 2,
      "note": 74,
      "start": 90.9124,
      "duration": 0.249,
      "velocity": 111,
      "chip": "ym2612"
    },
    {
      "channel": 0,
      "note": 76,
      "start": 90.9275,
      "duration": 0.2337,
      "velocity": 127,
      "chip": "ym2612"
    },
    {
      "channel": 4,
      "note": 74,
      "start": 91.099,
      "duration": 0.249,
      "velocity": 111,
      "chip": "ym2612"
    },
    {
      "channel": 0,
      "note": 65,
      "start": 91.1611,
      "duration": 0.0153,
      "velocity": 127,
      "chip": "ym2612"
    },
    {
      "channel": 1,
      "note": 58,
      "start": 91.1613,
      "duration": 0.1242,
      "velocity": 113,
      "chip": "ym2612"
    },
    {
      "channel": 2,
      "note": 76,
      "start": 91.1614,
      "duration": 0.249,
      "velocity": 111,
      "chip": "ym2612"
    },
    {
      "channel": 0,
      "note": 76,
      "start": 91.1765,
      "duration": 0.2337,
      "velocity": 127,
      "chip": "ym2612"
    },
    {
      "channel": 4,
      "note": 76,
      "start": 91.348,
      "duration": 0.249,
      "velocity": 111,
      "chip": "ym2612"
    },
    {
      "channel": 0,
      "note": 65,
      "start": 91.4102,
      "duration": 0.0153,
      "velocity": 127,
      "chip": "ym2612"
    },
    {
      "channel": 1,
      "note": 58,
      "start": 91.4103,
      "duration": 0.1242,
      "velocity": 113,
      "chip": "ym2612"
    },
    {
      "channel": 2,
      "note": 77,
      "start": 91.4104,
      "duration": 0.2491,
      "velocity": 111,
      "chip": "ym2612"
    },
    {
      "channel": 0,
      "note": 76,
      "start": 91.4255,
      "duration": 0.2337,
      "velocity": 123,
      "chip": "ym2612"
    },
    {
      "channel": 4,
      "note": 77,
      "start": 91.597,
      "duration": 0.249,
      "velocity": 111,
      "chip": "ym2612"
    },
    {
      "channel": 0,
      "note": 65,
      "start": 91.6592,
      "duration": 0.249,
      "velocity": 123,
      "chip": "ym2612"
    },
    {
      "channel": 1,
      "note": 58,
      "start": 91.6593,
      "duration": 0.1242,
      "velocity": 113,
      "chip": "ym2612"
    },
    {
      "channel": 2,
      "note": 79,
      "start": 91.6595,
      "duration": 0.249,
      "velocity": 111,
      "chip": "ym2612"
    },
    {
      "channel": 3,
      "note": 46,
      "start": 91.6596,
      "duration": 3.9842,
      "velocity": 121,
      "chip": "ym2612"
    },
    {
      "channel": 5,
      "note": 46,
      "start": 91.7216,
      "duration": 3.9841,
      "velocity": 121,
      "chip": "ym2612"
    },
    {
      "channel": 4,
      "note": 79,
      "start": 91.846,
      "duration": 0.249,
      "velocity": 111,
      "chip": "ym2612"
    },
    {
      "channel": 0,
      "note": 52,
      "start": 91.9082,
      "duration": 0.2492,
      "velocity": 123,
      "chip": "ym2612"
    },
    {
      "channel": 1,
      "note": 58,
      "start": 91.9083,
      "duration": 0.1242,
      "velocity": 113,
      "chip": "ym2612"
    },
    {
      "channel": 2,
      "note": 80,
      "start": 91.9084,
      "duration": 0.0775,
      "velocity": 111,
      "chip": "ym2612"
    },
    {
      "channel": 2,
      "note": 79,
      "start": 91.9859,
      "duration": 0.0934,
      "velocity": 111,
      "chip": "ym2612"
    },
    {
      "channel": 2,
      "note": 80,
      "start": 92.0793,
      "duration": 0.0783,
      "velocity": 111,
      "chip": "ym2612"
    },
    {
      "channel": 4,
      "note": 80,
      "start": 92.095,
      "duration": 0.0778,
      "velocity": 111,
      "chip": "ym2612"
    },
    {
      "channel": 0,
      "note": 52,
      "start": 92.1573,
      "duration": 0.2488,
      "velocity": 123,
      "chip": "ym2612"
    },
    {
      "channel": 1,
      "note": 58,
      "start": 92.1575,
      "duration": 0.124,
      "velocity": 113,
      "chip": "ym2612"
    },
    {
      "channel": 2,
      "note": 79,
      "start": 92.1576,
      "duration": 0.2488,
      "velocity": 111,
      "chip": "ym2612"
    },
    {
      "channel": 4,
      "note": 79,
      "start": 92.1729,
      "duration": 0.0934,
      "velocity": 111,
      "chip": "ym2612"
    },
    {
      "channel": 4,
      "note": 80,
      "start": 92.2662,
      "duration": 0.0778,
      "velocity": 111,
      "chip": "ym2612"
    },
    {
      "channel": 4,
      "note": 79,
      "start": 92.344,
      "duration": 0.249,
      "velocity": 111,
      "chip": "ym2612"
    },
    {
      "channel": 0,
      "note": 52,
      "start": 92.4062,
      "duration": 0.249,
      "velocity": 127,
      "chip": "ym2612"
    },
    {
      "channel": 1,
      "note": 58,
      "start": 92.4063,
      "duration": 0.1242,
      "velocity": 113,
      "chip": "ym2612"
    },
    {
      "channel": 2,
      "note": 77,
      "start": 92.4064,
      "duration": 0.249,
      "velocity": 111,
      "chip": "ym2612"
    },
    {
      "channel": 4,
      "note": 77,
      "start": 92.5931,
      "duration": 0.249,
      "velocity": 111,
      "chip": "ym2612"
    },
    {
      "channel": 0,
      "note": 52,
      "start": 92.6552,
      "duration": 0.0153,
      "velocity": 127,
      "chip": "ym2612"
    },
    {
      "channel": 1,
      "note": 58,
      "start": 92.6554,
      "duration": 0.1242,
      "velocity": 113,
      "chip": "ym2612"
    },
    {
      "channel": 2,
      "note": 76,
      "start": 92.6555,
      "duration": 0.249,
      "velocity": 111,
      "chip": "ym2612"
    },
    {
      "channel": 0,
      "note": 76,
      "start": 92.6705,
      "duration": 0.2337,
      "velocity": 127,
      "chip": "ym2612"
    },
    {
      "channel": 4,
      "note": 76,
      "start": 92.8421,
      "duration": 0.249,
      "velocity": 111,
      "chip": "ym2612"
    },
    {
      "channel": 0,
      "note": 65,
      "start": 92.9042,
      "duration": 0.0153,
      "velocity": 127,
      "chip": "ym2612"
    },
    {
      "channel": 1,
      "note": 58,
      "start": 92.9043,
      "duration": 0.1242,
      "velocity": 113,
      "chip": "ym2612"
    },
    {
      "channel": 2,
      "note": 79,
      "start": 92.9044,
      "duration": 0.0775,
      "velocity": 111,
      "chip": "ym2612"
    },
    {
      "channel": 0,
      "note": 76,
      "start": 92.9195,
      "duration": 0.2337,
      "velocity": 127,
      "chip": "ym2612"
    },
    {
      "channel": 2,
      "note": 77,
      "start": 92.982,
      "duration": 0.0934,
      "velocity": 111,
      "chip": "ym2612"
    },
    {
      "channel": 2,
      "note": 79,
      "start": 93.0753,
      "duration": 0.0781,
      "velocity": 111,
      "chip": "ym2612"
    },
    {
      "channel": 4,
      "note": 79,
      "start": 93.0911,
      "duration": 0.0778,
      "velocity": 111,
      "chip": "ym2612"
    },
    {
      "channel": 0,
      "note": 65,
      "start": 93.1532,
      "duration": 0.0153,
      "velocity": 127,
      "chip": "ym2612"
    },
    {
      "channel": 1,
      "note": 58,
      "start": 93.1533,
      "duration": 0.1242,
      "velocity": 113,
      "chip": "ym2612"
    },
    {
      "channel": 2,
      "note": 77,
      "start": 93.1535,
      "duration": 0.249,
      "velocity": 111,
      "chip": "ym2612"
    },
    {
      "channel": 0,
      "note": 76,
      "start": 93.1685,
      "duration": 0.2337,
      "velocity": 127,
      "chip": "ym2612"
    },
    {
      "channel": 4,
      "note": 77,
      "start": 93.1689,
      "duration": 0.0933,
      "velocity": 111,
      "chip": "ym2612"
    },
    {
      "channel": 4,
      "note": 79,
      "start": 93.2623,
      "duration": 0.0778,
      "velocity": 111,
      "chip": "ym2612"
    },
    {
      "channel": 4,
      "note": 77,
      "start": 93.3401,
      "duration": 0.249,
      "velocity": 111,
      "chip": "ym2612"
    },
    {
      "channel": 0,
      "note": 65,
      "start": 93.4022,
      "duration": 0.0153,
      "velocity": 127,
      "chip": "ym2612"
    },
    {
      "channel": 1,
      "note": 58,
      "start": 93.4024,
      "duration": 0.1242,
      "velocity": 113,
      "chip": "ym2612"
    },
    {
      "channel": 2,
      "note": 76,
      "start": 93.4025,
      "duration": 0.249,
      "velocity": 111,
      "chip": "ym2612"
    },
    {
      "channel": 0,
      "note": 76,
      "start": 93.4176,
      "duration": 0.2337,
      "velocity": 123,
      "chip": "ym2612"
    },
    {
      "channel": 4,
      "note": 76,
      "start": 93.5891,
      "duration": 0.249,
      "velocity": 111,
      "chip": "ym2612"
    },
    {
      "channel": 0,
      "note": 65,
      "start": 93.6513,
      "duration": 0.249,
      "velocity": 123,
      "chip": "ym2612"
    },
    {
      "channel": 1,
      "note": 58,
      "start": 93.6514,
      "duration": 0.1241,
      "velocity": 113,
      "chip": "ym2612"
    },
    {
      "channel": 2,
      "note": 74,
      "start": 93.6515,
      "duration": 0.2489,
      "velocity": 111,
      "chip": "ym2612"
    },
    {
      "channel": 4,
      "note": 74,
      "start": 93.8381,
      "duration": 0.249,
      "velocity": 111,
      "chip": "ym2612"
    },
    {
      "channel": 0,
      "note": 52,
      "start": 93.9002,
      "duration": 0.249,
      "velocity": 123,
      "chip": "ym2612"
    },
    {
      "channel": 1,
      "note": 58,
      "start": 93.9004,
      "duration": 0.1242,
      "velocity": 113,
      "chip": "ym2612"
    },
    {
      "channel": 2,
      "note": 77,
      "start": 93.9005,
      "duration": 0.249,
      "velocity": 111,
      "chip": "ym2612"
    },
    {
      "channel": 4,
      "note": 77,
      "start": 94.0871,
      "duration": 0.249,
      "velocity": 111,
      "chip": "ym2612"
    },
    {
      "channel": 0,
      "note": 52,
      "start": 94.1493,
      "duration": 0.249,
      "velocity": 123,
      "chip": "ym2612"
    },
    {
      "channel": 1,
      "note": 58,
      "start": 94.1494,
      "duration": 0.1244,
      "velocity": 113,
      "chip": "ym2612"
    },
    {
      "channel": 2,
      "note": 76,
      "start": 94.1495,
      "duration": 0.249,
      "velocity": 111,
      "chip": "ym2612"
    },
    {
      "channel": 4,
      "note": 76,
      "start": 94.3361,
      "duration": 0.249,
      "velocity": 111,
      "chip": "ym2612"
    },
    {
      "channel": 0,
      "note": 52,
      "start": 94.3983,
      "duration": 0.249,
      "velocity": 127,
      "chip": "ym2612"
    },
    {
      "channel": 1,
      "note": 58,
      "start": 94.3984,
      "duration": 0.1242,
      "velocity": 113,
      "chip": "ym2612"
    },
    {
      "channel": 2,
      "note": 74,
      "start": 94.3985,
      "duration": 0.249,
      "velocity": 111,
      "chip": "ym2612"
    },
    {
      "channel": 4,
      "note": 74,
      "start": 94.5851,
      "duration": 0.249,
      "velocity": 111,
      "chip": "ym2612"
    },
    {
      "channel": 0,
      "note": 52,
      "start": 94.6473,
      "duration": 0.0153,
      "velocity": 127,
      "chip": "ym2612"
    },
    {
      "channel": 1,
      "note": 58,
      "start": 94.6474,
      "duration": 0.1242,
      "velocity": 113,
      "chip": "ym2612"
    },
    {
      "channel": 2,
      "note": 72,
      "start": 94.6476,
      "duration": 0.249,
      "velocity": 111,
      "chip": "ym2612"
    },
    {
      "channel": 0,
      "note": 76,
      "start": 94.6626,
      "duration": 0.2337,
      "velocity": 127,
      "chip": "ym2612"
    },
    {
      "channel": 4,
      "note": 72,
      "start": 94.8341,
      "duration": 0.249,
      "velocity": 111,
      "chip": "ym2612"
    },
    {
      "channel": 0,
      "note": 65,
      "start": 94.8963,
      "duration": 0.0153,
      "velocity": 127,
      "chip": "ym2612"
    },
    {
      "channel": 1,
      "note": 58,
      "start": 94.8964,
      "duration": 0.1242,
      "velocity": 113,
      "chip": "ym2612"
    },
    {
      "channel": 2,
      "note": 74,
      "start": 94.8965,
      "duration": 0.249,
      "velocity": 111,
      "chip": "ym2612"
    },
    {
      "channel": 0,
      "note": 76,
      "start": 94.9116,
      "duration": 0.2337,
      "velocity": 127,
      "chip": "ym2612"
    },
    {
      "channel": 4,
      "note": 74,
      "start": 95.0832,
      "duration": 0.249,
      "velocity": 111,
      "chip": "ym2612"
    },
    {
      "channel": 0,
      "note": 65,
      "start": 95.1453,
      "duration": 0.0153,
      "velocity": 127,
      "chip": "ym2612"
    },
    {
      "channel": 1,
      "note": 58,
      "start": 95.1454,
      "duration": 0.1242,
      "velocity": 113,
      "chip": "ym2612"
    },
    {
      "channel": 2,
      "note": 71,
      "start": 95.1455,
      "duration": 0.249,
      "velocity": 111,
      "chip": "ym2612"
    },
    {
      "channel": 0,
      "note": 76,
      "start": 95.1606,
      "duration": 0.2337,
      "velocity": 127,
      "chip": "ym2612"
    },
    {
      "channel": 4,
      "note": 71,
      "start": 95.3322,
      "duration": 0.249,
      "velocity": 111,
      "chip": "ym2612"
    },
    {
      "channel": 0,
      "note": 65,
      "start": 95.3943,
      "duration": 0.0153,
      "velocity": 127,
      "chip": "ym2612"
    },
    {
      "channel": 1,
      "note": 58,
      "start": 95.3944,
      "duration": 0.1242,
      "velocity": 113,
      "chip": "ym2612"
    },
    {
      "channel": 2,
      "note": 72,
      "start": 95.3945,
      "duration": 0.2491,
      "velocity": 111,
      "chip": "ym2612"
    },
    {
      "channel": 0,
      "note": 76,
      "start": 95.4096,
      "duration": 0.2337,
      "velocity": 123,
      "chip": "ym2612"
    },
    {
      "channel": 4,
      "note": 72,
      "start": 95.5812,
      "duration": 0.249,
      "velocity": 111,
      "chip": "ym2612"
    },
    {
      "channel": 0,
      "note": 65,
      "start": 95.6434,
      "duration": 0.249,
      "velocity": 123,
      "chip": "ym2612"
    },
    {
      "channel": 1,
      "note": 58,
      "start": 95.6435,
      "duration": 0.1241,
      "velocity": 113,
      "chip": "ym2612"
    },
    {
      "channel": 2,
      "note": 74,
      "start": 95.6437,
      "duration": 0.7471,
      "velocity": 111,
      "chip": "ym2612"
    },
    {
      "channel": 3,
      "note": 46,
      "start": 95.6438,
      "duration": 0.7471,
      "velocity": 121,
      "chip": "ym2612"
    },
    {
      "channel": 5,
      "note": 46,
      "start": 95.7057,
      "duration": 0.747,
      "velocity": 121,
      "chip": "ym2612"
    },
    {
      "channel": 4,
      "note": 74,
      "start": 95.8302,
      "duration": 0.747,
      "velocity": 111,
      "chip": "ym2612"
    },
    {
      "channel": 0,
      "note": 52,
      "start": 95.8923,
      "duration": 0.249,
      "velocity": 123,
      "chip": "ym2612"
    },
    {
      "channel": 1,
      "note": 57,
      "start": 95.8924,
      "duration": 0.1242,
      "velocity": 113,
      "chip": "ym2612"
    },
    {
      "channel": 0,
      "note": 52,
      "start": 96.1413,
      "duration": 0.2492,
      "velocity": 123,
      "chip": "ym2612"
    },
    {
      "channel": 1,
      "note": 57,
      "start": 96.1415,
      "duration": 0.1242,
      "velocity": 113,
      "chip": "ym2612"
    },
    {
      "channel": 0,
      "note": 52,
      "start": 96.3905,
      "duration": 0.2489,
      "velocity": 127,
      "chip": "ym2612"
    },
    {
      "channel": 1,
      "note": 57,
      "start": 96.3906,
      "duration": 0.1241,
      "velocity": 113,
      "chip": "ym2612"
    },
    {
      "channel": 2,
      "note": 76,
      "start": 96.3907,
      "duration": 0.2489,
      "velocity": 111,
      "chip": "ym2612"
    },
    {
      "channel": 3,
      "note": 45,
      "start": 96.3909,
      "duration": 0.2488,
      "velocity": 121,
      "chip": "ym2612"
    },
    {
      "channel": 5,
      "note": 45,
      "start": 96.4528,
      "duration": 0.249,
      "velocity": 121,
      "chip": "ym2612"
    },
    {
      "channel": 4,
      "note": 76,
      "start": 96.5772,
      "duration": 0.249,
      "velocity": 111,
      "chip": "ym2612"
    },
    {
      "channel": 0,
      "note": 52,
      "start": 96.6394,
      "duration": 0.0153,
      "velocity": 127,
      "chip": "ym2612"
    },
    {
      "channel": 1,
      "note": 57,
      "start": 96.6395,
      "duration": 0.1242,
      "velocity": 113,
      "chip": "ym2612"
    },
    {
      "channel": 0,
      "note": 76,
      "start": 96.6547,
      "duration": 0.2337,
      "velocity": 127,
      "chip": "ym2612"
    },
    {
      "channel": 0,
      "note": 65,
      "start": 96.8884,
      "duration": 0.0153,
      "velocity": 127,
      "chip": "ym2612"
    },
    {
      "channel": 1,
      "note": 57,
      "start": 96.8885,
      "duration": 0.1242,
      "velocity": 113,
      "chip": "ym2612"
    },
    {
      "channel": 0,
      "note": 76,
      "start": 96.9037,
      "duration": 0.2337,
      "velocity": 127,
      "chip": "ym2612"
    },
    {
      "channel": 0,
      "note": 65,
      "start": 97.1374,
      "duration": 0.0153,
      "velocity": 127,
      "chip": "ym2612"
    },
    {
      "channel": 1,
      "note": 57,
      "start": 97.1375,
      "duration": 0.1242,
      "velocity": 113,
      "chip": "ym2612"
    },
    {
      "channel": 0,
      "note": 76,
      "start": 97.1527,
      "duration": 0.2337,
      "velocity": 127,
      "chip": "ym2612"
    },
    {
      "channel": 0,
      "note": 65,
      "start": 97.3864,
      "duration": 0.0153,
      "velocity": 127,
      "chip": "ym2612"
    },
    {
      "channel": 1,
      "note": 57,
      "start": 97.3865,
      "duration": 0.1242,
      "velocity": 113,
      "chip": "ym2612"
    },
    {
      "channel": 0,
      "note": 76,
      "start": 97.4017,
      "duration": 0.2337,
      "velocity": 123,
      "chip": "ym2612"
    },
    {
      "channel": 0,
      "note": 65,
      "start": 97.6354,
      "duration": 0.249,
      "velocity": 123,
      "chip": "ym2612"
    },
    {
      "channel": 1,
      "note": 57,
      "start": 97.6356,
      "duration": 0.1241,
      "velocity": 113,
      "chip": "ym2612"
    },
    {
      "channel": 0,
      "note": 52,
      "start": 97.8844,
      "duration": 0.249,
      "velocity": 123,
      "chip": "ym2612"
    },
    {
      "channel": 1,
      "note": 57,
      "start": 97.8845,
      "duration": 0.1242,
      "velocity": 113,
      "chip": "ym2612"
    },
    {
      "channel": 0,
      "note": 52,
      "start": 98.1334,
      "duration": 0.249,
      "velocity": 123,
      "chip": "ym2612"
    },
    {
      "channel": 1,
      "note": 57,
      "start": 98.1335,
      "duration": 0.1242,
      "velocity": 113,
      "chip": "ym2612"
    },
    {
      "channel": 0,
      "note": 52,
      "start": 98.3824,
      "duration": 0.249,
      "velocity": 127,
      "chip": "ym2612"
    },
    {
      "channel": 1,
      "note": 57,
      "start": 98.3825,
      "duration": 0.1242,
      "velocity": 113,
      "chip": "ym2612"
    },
    {
      "channel": 0,
      "note": 52,
      "start": 98.6315,
      "duration": 0.0153,
      "velocity": 127,
      "chip": "ym2612"
    },
    {
      "channel": 1,
      "note": 57,
      "start": 98.6316,
      "duration": 0.1242,
      "velocity": 113,
      "chip": "ym2612"
    },
    {
      "channel": 0,
      "note": 76,
      "start": 98.6468,
      "duration": 0.2337,
      "velocity": 127,
      "chip": "ym2612"
    },
    {
      "channel": 0,
      "note": 65,
      "start": 98.8804,
      "duration": 0.0153,
      "velocity": 127,
      "chip": "ym2612"
    },
    {
      "channel": 1,
      "note": 57,
      "start": 98.8806,
      "duration": 0.1242,
      "velocity": 113,
      "chip": "ym2612"
    },
    {
      "channel": 0,
      "note": 76,
      "start": 98.8958,
      "duration": 0.2337,
      "velocity": 127,
      "chip": "ym2612"
    },
    {
      "channel": 0,
      "note": 65,
      "start": 99.1295,
      "duration": 0.0153,
      "velocity": 127,
      "chip": "ym2612"
    },
    {
      "channel": 1,
      "note": 57,
      "start": 99.1296,
      "duration": 0.1242,
      "velocity": 113,
      "chip": "ym2612"
    },
    {
      "channel": 0,
      "note": 76,
      "start": 99.1448,
      "duration": 0.2337,
      "velocity": 127,
      "chip": "ym2612"
    },
    {
      "channel": 0,
      "note": 65,
      "start": 99.3785,
      "duration": 0.0153,
      "velocity": 127,
      "chip": "ym2612"
    },
    {
      "channel": 1,
      "note": 57,
      "start": 99.3786,
      "duration": 0.1242,
      "velocity": 113,
      "chip": "ym2612"
    },
    {
      "channel": 2,
      "note": 69,
      "start": 99.3787,
      "duration": 0.249,
      "velocity": 111,
      "chip": "ym2612"
    },
    {
      "channel": 3,
      "note": 45,
      "start": 99.379,
      "duration": 0.1239,
      "velocity": 101,
      "chip": "ym2612"
    },
    {
      "channel": 0,
      "note": 76,
      "start": 99.3938,
      "duration": 0.2337,
      "velocity": 123,
      "chip": "ym2612"
    },
    {
      "channel": 5,
      "note": 45,
      "start": 99.4412,
      "duration": 0.1243,
      "velocity": 101,
      "chip": "ym2612"
    },
    {
      "channel": 4,
      "note": 69,
      "start": 99.5653,
      "duration": 0.249,
      "velocity": 111,
      "chip": "ym2612"
    },
    {
      "channel": 0,
      "note": 65,
      "start": 99.6275,
      "duration": 0.249,
      "velocity": 123,
      "chip": "ym2612"
    },
    {
      "channel": 1,
      "note": 57,
      "start": 99.6276,
      "duration": 0.1242,
      "velocity": 113,
      "chip": "ym2612"
    },
    {
      "channel": 2,
      "note": 74,
      "start": 99.6278,
      "duration": 0.747,
      "velocity": 111,
      "chip": "ym2612"
    },
    {
      "channel": 3,
      "note": 88,
      "start": 99.6279,
      "duration": 0.747,
      "velocity": 101,
      "chip": "ym2612"
    },
    {
      "channel": 5,
      "note": 88,
      "start": 99.6899,
      "duration": 0.7471,
      "velocity": 101,
      "chip": "ym2612"
    },
    {
      "channel": 4,
      "note": 74,
      "start": 99.8143,
      "duration": 0.747,
      "velocity": 111,
      "chip": "ym2612"
    },
    {
      "channel": 0,
      "note": 52,
      "start": 99.8765,
      "duration": 0.249,
      "velocity": 123,
      "chip": "ym2612"
    },
    {
      "channel": 1,
      "note": 57,
      "start": 99.8766,
      "duration": 0.1242,
      "velocity": 113,
      "chip": "ym2612"
    },
    {
      "channel": 0,
      "note": 52,
      "start": 100.1255,
      "duration": 0.249,
      "velocity": 123,
      "chip": "ym2612"
    },
    {
      "channel": 1,
      "note": 57,
      "start": 100.1256,
      "duration": 0.1242,
      "velocity": 113,
      "chip": "ym2612"
    },
    {
      "channel": 0,
      "note": 52,
      "start": 100.3745,
      "duration": 0.249,
      "velocity": 127,
      "chip": "ym2612"
    },
    {
      "channel": 1,
      "note": 57,
      "start": 100.3746,
      "duration": 0.1242,
      "velocity": 113,
      "chip": "ym2612"
    },
    {
      "channel": 2,
      "note": 76,
      "start": 100.3747,
      "duration": 0.2492,
      "velocity": 111,
      "chip": "ym2612"
    },
    {
      "channel": 3,
      "note": 91,
      "start": 100.3749,
      "duration": 0.1552,
      "velocity": 101,
      "chip": "ym2612"
    },
    {
      "channel": 5,
      "note": 91,
      "start": 100.437,
      "duration": 0.1555,
      "velocity": 101,
      "chip": "ym2612"
    },
    {
      "channel": 4,
      "note": 76,
      "start": 100.5614,
      "duration": 0.249,
      "velocity": 111,
      "chip": "ym2612"
    },
    {
      "channel": 0,
      "note": 52,
      "start": 100.6235,
      "duration": 0.0153,
      "velocity": 127,
      "chip": "ym2612"
    },
    {
      "channel": 1,
      "note": 57,
      "start": 100.6238,
      "duration": 0.124,
      "velocity": 113,
      "chip": "ym2612"
    },
    {
      "channel": 3,
      "note": 93,
      "start": 100.6241,
      "duration": 0.155,
      "velocity": 101,
      "chip": "ym2612"
    },
    {
      "channel": 0,
      "note": 76,
      "start": 100.6388,
      "duration": 0.2337,
      "velocity": 127,
      "chip": "ym2612"
    },
    {
      "channel": 5,
      "note": 93,
      "start": 100.686,
      "duration": 0.1556,
      "velocity": 101,
      "chip": "ym2612"
    },
    {
      "channel": 0,
      "note": 65,
      "start": 100.8725,
      "duration": 0.0153,
      "velocity": 127,
      "chip": "ym2612"
    },
    {
      "channel": 1,
      "note": 57,
      "start": 100.8726,
      "duration": 0.1242,
      "velocity": 113,
      "chip": "ym2612"
    },
    {
      "channel": 3,
      "note": 93,
      "start": 100.8729,
      "duration": 0.1553,
      "velocity": 101,
      "chip": "ym2612"
    },
    {
      "channel": 0,
      "note": 76,
      "start": 100.8878,
      "duration": 0.2337,
      "velocity": 127,
      "chip": "ym2612"
    },
    {
      "channel": 5,
      "note": 93,
      "start": 100.9351,
      "duration": 0.1557,
      "velocity": 101,
      "chip": "ym2612"
    },
    {
      "channel": 0,
      "note": 65,
      "start": 101.1215,
      "duration": 0.0153,
      "velocity": 127,
      "chip": "ym2612"
    },
    {
      "channel": 1,
      "note": 57,
      "start": 101.1217,
      "duration": 0.1242,
      "velocity": 113,
      "chip": "ym2612"
    },
    {
      "channel": 3,
      "note": 93,
      "start": 101.1219,
      "duration": 0.1552,
      "velocity": 101,
      "chip": "ym2612"
    },
    {
      "channel": 0,
      "note": 76,
      "start": 101.1368,
      "duration": 0.2337,
      "velocity": 127,
      "chip": "ym2612"
    },
    {
      "channel": 5,
      "note": 93,
      "start": 101.1841,
      "duration": 0.1555,
      "velocity": 101,
      "chip": "ym2612"
    },
    {
      "channel": 0,
      "note": 65,
      "start": 101.3705,
      "duration": 0.0153,
      "velocity": 127,
      "chip": "ym2612"
    },
    {
      "channel": 1,
      "note": 57,
      "start": 101.3707,
      "duration": 0.1242,
      "velocity": 113,
      "chip": "ym2612"
    },
    {
      "channel": 3,
      "note": 93,
      "start": 101.3709,
      "duration": 0.1552,
      "velocity": 101,
      "chip": "ym2612"
    },
    {
      "channel": 0,
      "note": 76,
      "start": 101.3859,
      "duration": 0.2337,
      "velocity": 123,
      "chip": "ym2612"
    },
    {
      "channel": 5,
      "note": 93,
      "start": 101.4331,
      "duration": 0.1555,
      "velocity": 101,
      "chip": "ym2612"
    },
    {
      "channel": 0,
      "note": 65,
      "start": 101.6196,
      "duration": 0.249,
      "velocity": 123,
      "chip": "ym2612"
    },
    {
      "channel": 1,
      "note": 57,
      "start": 101.6197,
      "duration": 0.1241,
      "velocity": 113,
      "chip": "ym2612"
    },
    {
      "channel": 3,
      "note": 93,
      "start": 101.62,
      "duration": 0.1552,
      "velocity": 101,
      "chip": "ym2612"
    },
    {
      "channel": 5,
      "note": 93,
      "start": 101.6821,
      "duration": 0.1556,
      "velocity": 101,
      "chip": "ym2612"
    },
    {
      "channel": 0,
      "note": 52,
      "start": 101.8685,
      "duration": 0.249,
      "velocity": 123,
      "chip": "ym2612"
    },
    {
      "channel": 1,
      "note": 57,
      "start": 101.8687,
      "duration": 0.1242,
      "velocity": 113,
      "chip": "ym2612"
    },
    {
      "channel": 3,
      "note": 93,
      "start": 101.869,
      "duration": 0.1552,
      "velocity": 101,
      "chip": "ym2612"
    },
    {
      "channel": 5,
      "note": 93,
      "start": 101.9311,
      "duration": 0.1555,
      "velocity": 101,
      "chip": "ym2612"
    },
    {
      "channel": 0,
      "note": 52,
      "start": 102.1176,
      "duration": 0.249,
      "velocity": 123,
      "chip": "ym2612"
    },
    {
      "channel": 1,
      "note": 57,
      "start": 102.1177,
      "duration": 0.1242,
      "velocity": 113,
      "chip": "ym2612"
    },
    {
      "channel": 3,
      "note": 93,
      "start": 102.118,
      "duration": 0.1552,
      "velocity": 101,
      "chip": "ym2612"
    },
    {
      "channel": 5,
      "note": 93,
      "start": 102.1801,
      "duration": 0.1555,
      "velocity": 101,
      "chip": "ym2612"
    },
    {
      "channel": 0,
      "note": 52,
      "start": 102.3666,
      "duration": 0.249,
      "velocity": 127,
      "chip": "ym2612"
    },
    {
      "channel": 1,
      "note": 57,
      "start": 102.3667,
      "duration": 0.1242,
      "velocity": 113,
      "chip": "ym2612"
    },
    {
      "channel": 3,
      "note": 93,
      "start": 102.367,
      "duration": 0.1553,
      "velocity": 101,
      "chip": "ym2612"
    },
    {
      "channel": 5,
      "note": 93,
      "start": 102.4291,
      "duration": 0.1556,
      "velocity": 101,
      "chip": "ym2612"
    },
    {
      "channel": 0,
      "note": 52,
      "start": 102.6156,
      "duration": 0.0153,
      "velocity": 127,
      "chip": "ym2612"
    },
    {
      "channel": 1,
      "note": 57,
      "start": 102.6157,
      "duration": 0.1242,
      "velocity": 113,
      "chip": "ym2612"
    },
    {
      "channel": 0,
      "note": 76,
      "start": 102.6309,
      "duration": 0.2337,
      "velocity": 127,
      "chip": "ym2612"
    },
    {
      "channel": 0,
      "note": 65,
      "start": 102.8646,
      "duration": 0.0153,
      "velocity": 127,
      "chip": "ym2612"
    },
    {
      "channel": 1,
      "note": 57,
      "start": 102.8647,
      "duration": 0.1242,
      "velocity": 113,
      "chip": "ym2612"
    },
    {
      "channel": 0,
      "note": 76,
      "start": 102.8799,
      "duration": 0.2337,
      "velocity": 127,
      "chip": "ym2612"
    },
    {
      "channel": 0,
      "note": 65,
      "start": 103.1136,
      "duration": 0.0153,
      "velocity": 127,
      "chip": "ym2612"
    },
    {
      "channel": 1,
      "note": 57,
      "start": 103.1137,
      "duration": 0.1242,
      "velocity": 113,
      "chip": "ym2612"
    },
    {
      "channel": 0,
      "note": 76,
      "start": 103.1289,
      "duration": 0.2337,
      "velocity": 127,
      "chip": "ym2612"
    },
    {
      "channel": 0,
      "note": 65,
      "start": 103.3626,
      "duration": 0.0153,
      "velocity": 127,
      "chip": "ym2612"
    },
    {
      "channel": 1,
      "note": 57,
      "start": 103.3627,
      "duration": 0.1242,
      "velocity": 113,
      "chip": "ym2612"
    },
    {
      "channel": 0,
      "note": 76,
      "start": 103.3779,
      "duration": 0.2337,
      "velocity": 123,
      "chip": "ym2612"
    },
    {
      "channel": 0,
      "note": 65,
      "start": 103.6117,
      "duration": 0.249,
      "velocity": 123,
      "chip": "ym2612"
    },
    {
      "channel": 1,
      "note": 57,
      "start": 103.6118,
      "duration": 0.1241,
      "velocity": 113,
      "chip": "ym2612"
    },
    {
      "channel": 2,
      "note": 69,
      "start": 103.6122,
      "duration": 6.972,
      "velocity": 101,
      "chip": "ym2612"
    },
    {
      "channel": 4,
      "note": 69,
      "start": 103.7988,
      "duration": 6.972,
      "velocity": 101,
      "chip": "ym2612"
    },
    {
      "channel": 0,
      "note": 52,
      "start": 103.8606,
      "duration": 0.249,
      "velocity": 123,
      "chip": "ym2612"
    },
    {
      "channel": 1,
      "note": 57,
      "start": 103.8607,
      "duration": 0.1242,
      "velocity": 113,
      "chip": "ym2612"
    },
    {
      "channel": 0,
      "note": 52,
      "start": 104.1096,
      "duration": 0.249,
      "velocity": 123,
      "chip": "ym2612"
    },
    {
      "channel": 1,
      "note": 57,
      "start": 104.1098,
      "duration": 0.1242,
      "velocity": 113,
      "chip": "ym2612"
    },
    {
      "channel": 0,
      "note": 52,
      "start": 104.3586,
      "duration": 0.249,
      "velocity": 127,
      "chip": "ym2612"
    },
    {
      "channel": 1,
      "note": 57,
      "start": 104.3588,
      "duration": 0.1242,
      "velocity": 113,
      "chip": "ym2612"
    },
    {
      "channel": 0,
      "note": 52,
      "start": 104.6077,
      "duration": 0.0153,
      "velocity": 127,
      "chip": "ym2612"
    },
    {
      "channel": 1,
      "note": 57,
      "start": 104.6078,
      "duration": 0.1242,
      "velocity": 113,
      "chip": "ym2612"
    },
    {
      "channel": 0,
      "note": 76,
      "start": 104.623,
      "duration": 0.2337,
      "velocity": 127,
      "chip": "ym2612"
    },
    {
      "channel": 0,
      "note": 65,
      "start": 104.8567,
      "duration": 0.0153,
      "velocity": 127,
      "chip": "ym2612"
    },
    {
      "channel": 1,
      "note": 57,
      "start": 104.8568,
      "duration": 0.1242,
      "velocity": 113,
      "chip": "ym2612"
    },
    {
      "channel": 0,
      "note": 76,
      "start": 104.872,
      "duration": 0.2337,
      "velocity": 127,
      "chip": "ym2612"
    },
    {
      "channel": 0,
      "note": 65,
      "start": 105.1057,
      "duration": 0.0153,
      "velocity": 127,
      "chip": "ym2612"
    },
    {
      "channel": 1,
      "note": 57,
      "start": 105.1058,
      "duration": 0.1242,
      "velocity": 113,
      "chip": "ym2612"
    },
    {
      "channel": 0,
      "note": 76,
      "start": 105.121,
      "duration": 0.2337,
      "velocity": 127,
      "chip": "ym2612"
    },
    {
      "channel": 0,
      "note": 65,
      "start": 105.3547,
      "duration": 0.0153,
      "velocity": 127,
      "chip": "ym2612"
    },
    {
      "channel": 1,
      "note": 57,
      "start": 105.3548,
      "duration": 0.1242,
      "velocity": 113,
      "chip": "ym2612"
    },
    {
      "channel": 0,
      "note": 76,
      "start": 105.37,
      "duration": 0.2337,
      "velocity": 123,
      "chip": "ym2612"
    },
    {
      "channel": 0,
      "note": 65,
      "start": 105.6037,
      "duration": 0.249,
      "velocity": 123,
      "chip": "ym2612"
    },
    {
      "channel": 1,
      "note": 57,
      "start": 105.6039,
      "duration": 0.1242,
      "velocity": 113,
      "chip": "ym2612"
    },
    {
      "channel": 0,
      "note": 52,
      "start": 105.8527,
      "duration": 0.249,
      "velocity": 123,
      "chip": "ym2612"
    },
    {
      "channel": 1,
      "note": 57,
      "start": 105.8528,
      "duration": 0.1242,
      "velocity": 113,
      "chip": "ym2612"
    },
    {
      "channel": 0,
      "note": 52,
      "start": 106.1017,
      "duration": 0.249,
      "velocity": 123,
      "chip": "ym2612"
    },
    {
      "channel": 1,
      "note": 57,
      "start": 106.1018,
      "duration": 0.1242,
      "velocity": 113,
      "chip": "ym2612"
    },
    {
      "channel": 0,
      "note": 52,
      "start": 106.3507,
      "duration": 0.249,
      "velocity": 127,
      "chip": "ym2612"
    },
    {
      "channel": 1,
      "note": 57,
      "start": 106.3508,
      "duration": 0.1242,
      "velocity": 113,
      "chip": "ym2612"
    },
    {
      "channel": 0,
      "note": 52,
      "start": 106.5998,
      "duration": 0.0153,
      "velocity": 127,
      "chip": "ym2612"
    },
    {
      "channel": 1,
      "note": 57,
      "start": 106.5999,
      "duration": 0.1242,
      "velocity": 113,
      "chip": "ym2612"
    },
    {
      "channel": 0,
      "note": 76,
      "start": 106.6151,
      "duration": 0.2337,
      "velocity": 127,
      "chip": "ym2612"
    },
    {
      "channel": 0,
      "note": 65,
      "start": 106.8487,
      "duration": 0.0153,
      "velocity": 127,
      "chip": "ym2612"
    },
    {
      "channel": 1,
      "note": 57,
      "start": 106.8489,
      "duration": 0.1242,
      "velocity": 113,
      "chip": "ym2612"
    },
    {
      "channel": 0,
      "note": 76,
      "start": 106.8641,
      "duration": 0.2337,
      "velocity": 127,
      "chip": "ym2612"
    },
    {
      "channel": 0,
      "note": 65,
      "start": 107.0978,
      "duration": 0.0153,
      "velocity": 127,
      "chip": "ym2612"
    },
    {
      "channel": 1,
      "note": 57,
      "start": 107.0979,
      "duration": 0.1242,
      "velocity": 113,
      "chip": "ym2612"
    },
    {
      "channel": 0,
      "note": 76,
      "start": 107.1131,
      "duration": 0.2337,
      "velocity": 127,
      "chip": "ym2612"
    },
    {
      "channel": 0,
      "note": 65,
      "start": 107.3468,
      "duration": 0.0153,
      "velocity": 127,
      "chip": "ym2612"
    },
    {
      "channel": 1,
      "note": 57,
      "start": 107.3469,
      "duration": 0.1242,
      "velocity": 113,
      "chip": "ym2612"
    },
    {
      "channel": 0,
      "note": 76,
      "start": 107.3621,
      "duration": 0.2337,
      "velocity": 123,
      "chip": "ym2612"
    },
    {
      "channel": 0,
      "note": 65,
      "start": 107.5958,
      "duration": 0.249,
      "velocity": 123,
      "chip": "ym2612"
    },
    {
      "channel": 1,
      "note": 57,
      "start": 107.596,
      "duration": 0.1241,
      "velocity": 113,
      "chip": "ym2612"
    },
    {
      "channel": 0,
      "note": 52,
      "start": 107.8448,
      "duration": 0.249,
      "velocity": 123,
      "chip": "ym2612"
    },
    {
      "channel": 1,
      "note": 57,
      "start": 107.8449,
      "duration": 0.1242,
      "velocity": 113,
      "chip": "ym2612"
    },
    {
      "channel": 0,
      "note": 52,
      "start": 108.0938,
      "duration": 0.249,
      "velocity": 123,
      "chip": "ym2612"
    },
    {
      "channel": 1,
      "note": 57,
      "start": 108.0939,
      "duration": 0.1242,
      "velocity": 113,
      "chip": "ym2612"
    },
    {
      "channel": 0,
      "note": 52,
      "start": 108.3428,
      "duration": 0.249,
      "velocity": 127,
      "chip": "ym2612"
    },
    {
      "channel": 1,
      "note": 57,
      "start": 108.3429,
      "duration": 0.1242,
      "velocity": 113,
      "chip": "ym2612"
    },
    {
      "channel": 0,
      "note": 52,
      "start": 108.5918,
      "duration": 0.0154,
      "velocity": 127,
      "chip": "ym2612"
    },
    {
      "channel": 1,
      "note": 57,
      "start": 108.592,
      "duration": 0.1242,
      "velocity": 113,
      "chip": "ym2612"
    },
    {
      "channel": 0,
      "note": 76,
      "start": 108.6072,
      "duration": 0.2336,
      "velocity": 127,
      "chip": "ym2612"
    },
    {
      "channel": 0,
      "note": 65,
      "start": 108.8408,
      "duration": 0.0153,
      "velocity": 127,
      "chip": "ym2612"
    },
    {
      "channel": 1,
      "note": 57,
      "start": 108.841,
      "duration": 0.1242,
      "velocity": 113,
      "chip": "ym2612"
    },
    {
      "channel": 0,
      "note": 76,
      "start": 108.8561,
      "duration": 0.2337,
      "velocity": 127,
      "chip": "ym2612"
    },
    {
      "channel": 0,
      "note": 65,
      "start": 109.0898,
      "duration": 0.0153,
      "velocity": 127,
      "chip": "ym2612"
    },
    {
      "channel": 1,
      "note": 57,
      "start": 109.09,
      "duration": 0.1242,
      "velocity": 113,
      "chip": "ym2612"
    },
    {
      "channel": 0,
      "note": 76,
      "start": 109.1051,
      "duration": 0.2337,
      "velocity": 127,
      "chip": "ym2612"
    },
    {
      "channel": 0,
      "note": 65,
      "start": 109.3388,
      "duration": 0.0153,
      "velocity": 127,
      "chip": "ym2612"
    },
    {
      "channel": 1,
      "note": 57,
      "start": 109.339,
      "duration": 0.1242,
      "velocity": 113,
      "chip": "ym2612"
    },
    {
      "channel": 0,
      "note": 76,
      "start": 109.3542,
      "duration": 0.2337,
      "velocity": 123,
      "chip": "ym2612"
    },
    {
      "channel": 0,
      "note": 65,
      "start": 109.5879,
      "duration": 0.249,
      "velocity": 123,
      "chip": "ym2612"
    },
    {
      "channel": 1,
      "note": 57,
      "start": 109.588,
      "duration": 0.1242,
      "velocity": 113,
      "chip": "ym2612"
    },
    {
      "channel": 0,
      "note": 52,
      "start": 109.8368,
      "duration": 0.249,
      "velocity": 123,
      "chip": "ym2612"
    },
    {
      "channel": 1,
      "note": 57,
      "start": 109.837,
      "duration": 0.1242,
      "velocity": 113,
      "chip": "ym2612"
    },
    {
      "channel": 0,
      "note": 52,
      "start": 110.0859,
      "duration": 0.249,
      "velocity": 123,
      "chip": "ym2612"
    },
    {
      "channel": 1,
      "note": 57,
      "start": 110.086,
      "duration": 0.1242,
      "velocity": 113,
      "chip": "ym2612"
    },
    {
      "channel": 0,
      "note": 52,
      "start": 110.3349,
      "duration": 0.249,
      "velocity": 127,
      "chip": "ym2612"
    },
    {
      "channel": 1,
      "note": 57,
      "start": 110.335,
      "duration": 0.1242,
      "velocity": 113,
      "chip": "ym2612"
    },
    {
      "channel": 0,
      "note": 52,
      "start": 110.5839,
      "duration": 0.0153,
      "velocity": 127,
      "chip": "ym2612"
    },
    {
      "channel": 1,
      "note": 57,
      "start": 110.5841,
      "duration": 0.1242,
      "velocity": 113,
      "chip": "ym2612"
    },
    {
      "channel": 0,
      "note": 76,
      "start": 110.5992,
      "duration": 0.2337,
      "velocity": 127,
      "chip": "ym2612"
    },
    {
      "channel": 0,
      "note": 65,
      "start": 110.8329,
      "duration": 0.0153,
      "velocity": 127,
      "chip": "ym2612"
    },
    {
      "channel": 1,
      "note": 57,
      "start": 110.833,
      "duration": 0.1243,
      "velocity": 113,
      "chip": "ym2612"
    },
    {
      "channel": 0,
      "note": 76,
      "start": 110.8482,
      "duration": 0.2337,
      "velocity": 127,
      "chip": "ym2612"
    },
    {
      "channel": 0,
      "note": 65,
      "start": 111.0819,
      "duration": 0.0153,
      "velocity": 127,
      "chip": "ym2612"
    },
    {
      "channel": 1,
      "note": 57,
      "start": 111.082,
      "duration": 0.1242,
      "velocity": 113,
      "chip": "ym2612"
    },
    {
      "channel": 0,
      "note": 76,
      "start": 111.0972,
      "duration": 0.2337,
      "velocity": 127,
      "chip": "ym2612"
    },
    {
      "channel": 0,
      "note": 65,
      "start": 111.3309,
      "duration": 0.0153,
      "velocity": 127,
      "chip": "ym2612"
    },
    {
      "channel": 1,
      "note": 57,
      "start": 111.331,
      "duration": 0.1242,
      "velocity": 113,
      "chip": "ym2612"
    },
    {
      "channel": 0,
      "note": 76,
      "start": 111.3462,
      "duration": 0.2337,
      "velocity": 123,
      "chip": "ym2612"
    },
    {
      "channel": 0,
      "note": 65,
      "start": 111.58,
      "duration": 0.249,
      "velocity": 123,
      "chip": "ym2612"
    },
    {
      "channel": 1,
      "note": 56,
      "start": 111.5801,
      "duration": 0.1241,
      "velocity": 113,
      "chip": "ym2612"
    },
    {
      "channel": 0,
      "note": 52,
      "start": 111.8289,
      "duration": 0.249,
      "velocity": 123,
      "chip": "ym2612"
    },
    {
      "channel": 1,
      "note": 57,
      "start": 111.829,
      "duration": 0.1242,
      "velocity": 113,
      "chip": "ym2612"
    },
    {
      "channel": 2,
      "note": 37,
      "start": 111.8292,
      "duration": 0.249,
      "velocity": 111,
      "chip": "ym2612"
    },
    {
      "channel": 4,
      "note": 37,
      "start": 112.0158,
      "duration": 0.249,
      "velocity": 111,
      "chip": "ym2612"
    },
    {
      "channel": 0,
      "note": 52,
      "start": 112.0779,
      "duration": 0.249,
      "velocity": 123,
      "chip": "ym2612"
    },
    {
      "channel": 1,
      "note": 57,
      "start": 112.0781,
      "duration": 0.1242,
      "velocity": 113,
      "chip": "ym2612"
    },
    {
      "channel": 2,
      "note": 81,
      "start": 112.0782,
      "duration": 0.0775,
      "velocity": 111,
      "chip": "ym2612"
    },
    {
      "channel": 2,
      "note": 80,
      "start": 112.1557,
      "duration": 0.0934,
      "velocity": 111,
      "chip": "ym2612"
    },
    {
      "channel": 2,
      "note": 81,
      "start": 112.2491,
      "duration": 0.0781,
      "velocity": 111,
      "chip": "ym2612"
    },
    {
      "channel": 4,
      "note": 81,
      "start": 112.2648,
      "duration": 0.0778,
      "velocity": 111,
      "chip": "ym2612"
    },
    {
      "channel": 0,
      "note": 52,
      "start": 112.3269,
      "duration": 0.249,
      "velocity": 127,
      "chip": "ym2612"
    },
    {
      "channel": 1,
      "note": 57,
      "start": 112.3271,
      "duration": 0.1242,
      "velocity": 113,
      "chip": "ym2612"
    },
    {
      "channel": 2,
      "note": 80,
      "start": 112.3272,
      "duration": 0.249,
      "velocity": 111,
      "chip": "ym2612"
    },
    {
      "channel": 4,
      "note": 80,
      "start": 112.3426,
      "duration": 0.0934,
      "velocity": 111,
      "chip": "ym2612"
    },
    {
      "channel": 4,
      "note": 81,
      "start": 112.436,
      "duration": 0.0778,
      "velocity": 111,
      "chip": "ym2612"
    },
    {
      "channel": 4,
      "note": 80,
      "start": 112.5138,
      "duration": 0.249,
      "velocity": 111,
      "chip": "ym2612"
    },
    {
      "channel": 0,
      "note": 52,
      "start": 112.576,
      "duration": 0.0153,
      "velocity": 127,
      "chip": "ym2612"
    },
    {
      "channel": 1,
      "note": 57,
      "start": 112.5761,
      "duration": 0.1242,
      "velocity": 113,
      "chip": "ym2612"
    },
    {
      "channel": 2,
      "note": 77,
      "start": 112.5763,
      "duration": 0.747,
      "velocity": 111,
      "chip": "ym2612"
    },
    {
      "channel": 0,
      "note": 76,
      "start": 112.5913,
      "duration": 0.2337,
      "velocity": 127,
      "chip": "ym2612"
    },
    {
      "channel": 4,
      "note": 77,
      "start": 112.7628,
      "duration": 0.747,
      "velocity": 111,
      "chip": "ym2612"
    },
    {
      "channel": 0,
      "note": 65,
      "start": 112.825,
      "duration": 0.0155,
      "velocity": 127,
      "chip": "ym2612"
    },
    {
      "channel": 1,
      "note": 57,
      "start": 112.8251,
      "duration": 0.1242,
      "velocity": 113,
      "chip": "ym2612"
    },
    {
      "channel": 0,
      "note": 76,
      "start": 112.8405,
      "duration": 0.2336,
      "velocity": 127,
      "chip": "ym2612"
    },
    {
      "channel": 0,
      "note": 65,
      "start": 113.0741,
      "duration": 0.0152,
      "velocity": 127,
      "chip": "ym2612"
    },
    {
      "channel": 1,
      "note": 57,
      "start": 113.0742,
      "duration": 0.1241,
      "velocity": 113,
      "chip": "ym2612"
    },
    {
      "channel": 0,
      "note": 76,
      "start": 113.0893,
      "duration": 0.2337,
      "velocity": 127,
      "chip": "ym2612"
    },
    {
      "channel": 0,
      "note": 65,
      "start": 113.323,
      "duration": 0.0153,
      "velocity": 127,
      "chip": "ym2612"
    },
    {
      "channel": 1,
      "note": 57,
      "start": 113.3231,
      "duration": 0.1242,
      "velocity": 113,
      "chip": "ym2612"
    },
    {
      "channel": 2,
      "note": 76,
      "start": 113.3232,
      "duration": 0.498,
      "velocity": 111,
      "chip": "ym2612"
    },
    {
      "channel": 0,
      "note": 76,
      "start": 113.3383,
      "duration": 0.2337,
      "velocity": 123,
      "chip": "ym2612"
    },
    {
      "channel": 4,
      "note": 76,
      "start": 113.5099,
      "duration": 0.498,
      "velocity": 111,
      "chip": "ym2612"
    },
    {
      "channel": 0,
      "note": 65,
      "start": 113.572,
      "duration": 0.249,
      "velocity": 123,
      "chip": "ym2612"
    },
    {
      "channel": 1,
      "note": 57,
      "start": 113.5722,
      "duration": 0.1242,
      "velocity": 113,
      "chip": "ym2612"
    },
    {
      "channel": 0,
      "note": 52,
      "start": 113.821,
      "duration": 0.249,
      "velocity": 123,
      "chip": "ym2612"
    },
    {
      "channel": 1,
      "note": 57,
      "start": 113.8211,
      "duration": 0.1242,
      "velocity": 113,
      "chip": "ym2612"
    },
    {
      "channel": 2,
      "note": 72,
      "start": 113.8212,
      "duration": 0.498,
      "velocity": 111,
      "chip": "ym2612"
    },
    {
      "channel": 4,
      "note": 72,
      "start": 114.0079,
      "duration": 0.498,
      "velocity": 111,
      "chip": "ym2612"
    },
    {
      "channel": 0,
      "note": 52,
      "start": 114.07,
      "duration": 0.249,
      "velocity": 123,
      "chip": "ym2612"
    },
    {
      "channel": 1,
      "note": 57,
      "start": 114.0701,
      "duration": 0.1242,
      "velocity": 113,
      "chip": "ym2612"
    },
    {
      "channel": 0,
      "note": 52,
      "start": 114.319,
      "duration": 0.249,
      "velocity": 127,
      "chip": "ym2612"
    },
    {
      "channel": 1,
      "note": 57,
      "start": 114.3192,
      "duration": 0.1242,
      "velocity": 113,
      "chip": "ym2612"
    },
    {
      "channel": 2,
      "note": 74,
      "start": 114.3193,
      "duration": 0.498,
      "velocity": 111,
      "chip": "ym2612"
    },
    {
      "channel": 4,
      "note": 74,
      "start": 114.5059,
      "duration": 0.498,
      "velocity": 111,
      "chip": "ym2612"
    },
    {
      "channel": 0,
      "note": 52,
      "start": 114.5681,
      "duration": 0.0153,
      "velocity": 127,
      "chip": "ym2612"
    },
    {
      "channel": 1,
      "note": 57,
      "start": 114.5682,
      "duration": 0.1242,
      "velocity": 113,
      "chip": "ym2612"
    },
    {
      "channel": 0,
      "note": 76,
      "start": 114.5834,
      "duration": 0.2337,
      "velocity": 127,
      "chip": "ym2612"
    },
    {
      "channel": 0,
      "note": 65,
      "start": 114.8171,
      "duration": 0.0153,
      "velocity": 127,
      "chip": "ym2612"
    },
    {
      "channel": 1,
      "note": 57,
      "start": 114.8172,
      "duration": 0.1242,
      "velocity": 113,
      "chip": "ym2612"
    },
    {
      "channel": 2,
      "note": 76,
      "start": 114.8173,
      "duration": 0.249,
      "velocity": 111,
      "chip": "ym2612"
    },
    {
      "channel": 0,
      "note": 76,
      "start": 114.8324,
      "duration": 0.2337,
      "velocity": 127,
      "chip": "ym2612"
    },
    {
      "channel": 4,
      "note": 76,
      "start": 115.0039,
      "duration": 0.249,
      "velocity": 111,
      "chip": "ym2612"
    },
    {
      "channel": 0,
      "note": 65,
      "start": 115.0661,
      "duration": 0.0153,
      "velocity": 127,
      "chip": "ym2612"
    },
    {
      "channel": 1,
      "note": 57,
      "start": 115.0662,
      "duration": 0.1244,
      "velocity": 113,
      "chip": "ym2612"
    },
    {
      "channel": 2,
      "note": 74,
      "start": 115.0663,
      "duration": 0.249,
      "velocity": 111,
      "chip": "ym2612"
    },
    {
      "channel": 0,
      "note": 76,
      "start": 115.0814,
      "duration": 0.2337,
      "velocity": 127,
      "chip": "ym2612"
    },
    {
      "channel": 4,
      "note": 74,
      "start": 115.2529,
      "duration": 0.249,
      "velocity": 111,
      "chip": "ym2612"
    },
    {
      "channel": 0,
      "note": 65,
      "start": 115.3151,
      "duration": 0.0153,
      "velocity": 127,
      "chip": "ym2612"
    },
    {
      "channel": 1,
      "note": 57,
      "start": 115.3152,
      "duration": 0.1242,
      "velocity": 113,
      "chip": "ym2612"
    },
    {
      "channel": 2,
      "note": 72,
      "start": 115.3153,
      "duration": 0.2491,
      "velocity": 111,
      "chip": "ym2612"
    },
    {
      "channel": 0,
      "note": 76,
      "start": 115.3304,
      "duration": 0.2337,
      "velocity": 123,
      "chip": "ym2612"
    },
    {
      "channel": 4,
      "note": 72,
      "start": 115.5019,
      "duration": 0.249,
      "velocity": 111,
      "chip": "ym2612"
    },
    {
      "channel": 0,
      "note": 65,
      "start": 115.5641,
      "duration": 0.249,
      "velocity": 123,
      "chip": "ym2612"
    },
    {
      "channel": 1,
      "note": 57,
      "start": 115.5643,
      "duration": 0.1241,
      "velocity": 113,
      "chip": "ym2612"
    },
    {
      "channel": 2,
      "note": 74,
      "start": 115.5644,
      "duration": 0.747,
      "velocity": 111,
      "chip": "ym2612"
    },
    {
      "channel": 4,
      "note": 74,
      "start": 115.7509,
      "duration": 0.747,
      "velocity": 111,
      "chip": "ym2612"
    },
    {
      "channel": 0,
      "note": 52,
      "start": 115.8131,
      "duration": 0.249,
      "velocity": 123,
      "chip": "ym2612"
    },
    {
      "channel": 1,
      "note": 57,
      "start": 115.8132,
      "duration": 0.1242,
      "velocity": 113,
      "chip": "ym2612"
    },
    {
      "channel": 0,
      "note": 52,
      "start": 116.0621,
      "duration": 0.249,
      "velocity": 123,
      "chip": "ym2612"
    },
    {
      "channel": 1,
      "note": 57,
      "start": 116.0622,
      "duration": 0.1242,
      "velocity": 113,
      "chip": "ym2612"
    },
    {
      "channel": 0,
      "note": 52,
      "start": 116.3111,
      "duration": 0.249,
      "velocity": 127,
      "chip": "ym2612"
    },
    {
      "channel": 1,
      "note": 57,
      "start": 116.3112,
      "duration": 0.1242,
      "velocity": 113,
      "chip": "ym2612"
    },
    {
      "channel": 2,
      "note": 72,
      "start": 116.3113,
      "duration": 0.249,
      "velocity": 111,
      "chip": "ym2612"
    },
    {
      "channel": 4,
      "note": 72,
      "start": 116.498,
      "duration": 0.249,
      "velocity": 111,
      "chip": "ym2612"
    },
    {
      "channel": 0,
      "note": 52,
      "start": 116.5601,
      "duration": 0.0153,
      "velocity": 127,
      "chip": "ym2612"
    },
    {
      "channel": 1,
      "note": 57,
      "start": 116.5603,
      "duration": 0.1242,
      "velocity": 113,
      "chip": "ym2612"
    },
    {
      "channel": 0,
      "note": 76,
      "start": 116.5754,
      "duration": 0.2337,
      "velocity": 127,
      "chip": "ym2612"
    },
    {
      "channel": 0,
      "note": 65,
      "start": 116.8091,
      "duration": 0.0153,
      "velocity": 127,
      "chip": "ym2612"
    },
    {
      "channel": 1,
      "note": 57,
      "start": 116.8093,
      "duration": 0.1242,
      "velocity": 113,
      "chip": "ym2612"
    },
    {
      "channel": 0,
      "note": 76,
      "start": 116.8244,
      "duration": 0.2337,
      "velocity": 127,
      "chip": "ym2612"
    },
    {
      "channel": 0,
      "note": 65,
      "start": 117.0581,
      "duration": 0.0153,
      "velocity": 127,
      "chip": "ym2612"
    },
    {
      "channel": 1,
      "note": 57,
      "start": 117.0583,
      "duration": 0.1242,
      "velocity": 113,
      "chip": "ym2612"
    },
    {
      "channel": 0,
      "note": 76,
      "start": 117.0735,
      "duration": 0.2338,
      "velocity": 127,
      "chip": "ym2612"
    },
    {
      "channel": 0,
      "note": 65,
      "start": 117.3073,
      "duration": 0.0152,
      "velocity": 127,
      "chip": "ym2612"
    },
    {
      "channel": 1,
      "note": 57,
      "start": 117.3074,
      "duration": 0.1241,
      "velocity": 113,
      "chip": "ym2612"
    },
    {
      "channel": 0,
      "note": 76,
      "start": 117.3225,
      "duration": 0.2337,
      "velocity": 123,
      "chip": "ym2612"
    },
    {
      "channel": 0,
      "note": 65,
      "start": 117.5562,
      "duration": 0.249,
      "velocity": 123,
      "chip": "ym2612"
    },
    {
      "channel": 1,
      "note": 57,
      "start": 117.5563,
      "duration": 0.1242,
      "velocity": 113,
      "chip": "ym2612"
    },
    {
      "channel": 0,
      "note": 52,
      "start": 117.8052,
      "duration": 0.249,
      "velocity": 123,
      "chip": "ym2612"
    },
    {
      "channel": 1,
      "note": 57,
      "start": 117.8053,
      "duration": 0.1242,
      "velocity": 113,
      "chip": "ym2612"
    },
    {
      "channel": 0,
      "note": 52,
      "start": 118.0542,
      "duration": 0.249,
      "velocity": 123,
      "chip": "ym2612"
    },
    {
      "channel": 1,
      "note": 57,
      "start": 118.0543,
      "duration": 0.1242,
      "velocity": 113,
      "chip": "ym2612"
    },
    {
      "channel": 0,
      "note": 52,
      "start": 118.3032,
      "duration": 0.249,
      "velocity": 127,
      "chip": "ym2612"
    },
    {
      "channel": 1,
      "note": 57,
      "start": 118.3033,
      "duration": 0.1242,
      "velocity": 113,
      "chip": "ym2612"
    },
    {
      "channel": 0,
      "note": 52,
      "start": 118.5522,
      "duration": 0.0153,
      "velocity": 127,
      "chip": "ym2612"
    },
    {
      "channel": 1,
      "note": 57,
      "start": 118.5524,
      "duration": 0.1242,
      "velocity": 113,
      "chip": "ym2612"
    },
    {
      "channel": 0,
      "note": 76,
      "start": 118.5675,
      "duration": 0.2337,
      "velocity": 127,
      "chip": "ym2612"
    },
    {
      "channel": 0,
      "note": 65,
      "start": 118.8012,
      "duration": 0.0153,
      "velocity": 127,
      "chip": "ym2612"
    },
    {
      "channel": 1,
      "note": 57,
      "start": 118.8013,
      "duration": 0.1242,
      "velocity": 113,
      "chip": "ym2612"
    },
    {
      "channel": 0,
      "note": 76,
      "start": 118.8165,
      "duration": 0.2337,
      "velocity": 127,
      "chip": "ym2612"
    },
    {
      "channel": 0,
      "note": 65,
      "start": 119.0502,
      "duration": 0.0153,
      "velocity": 127,
      "chip": "ym2612"
    },
    {
      "channel": 1,
      "note": 57,
      "start": 119.0503,
      "duration": 0.1242,
      "velocity": 113,
      "chip": "ym2612"
    },
    {
      "channel": 0,
      "note": 76,
      "start": 119.0655,
      "duration": 0.2337,
      "velocity": 127,
      "chip": "ym2612"
    },
    {
      "channel": 0,
      "note": 65,
      "start": 119.2992,
      "duration": 0.0153,
      "velocity": 127,
      "chip": "ym2612"
    },
    {
      "channel": 1,
      "note": 57,
      "start": 119.2993,
      "duration": 0.1242,
      "velocity": 113,
      "chip": "ym2612"
    },
    {
      "channel": 0,
      "note": 76,
      "start": 119.3146,
      "duration": 0.2337,
      "velocity": 123,
      "chip": "ym2612"
    },
    {
      "channel": 0,
      "note": 65,
      "start": 119.5483,
      "duration": 0.249,
      "velocity": 123,
      "chip": "ym2612"
    },
    {
      "channel": 1,
      "note": 57,
      "start": 119.5484,
      "duration": 0.1242,
      "velocity": 113,
      "chip": "ym2612"
    },
    {
      "channel": 0,
      "note": 52,
      "start": 119.7972,
      "duration": 0.249,
      "velocity": 123,
      "chip": "ym2612"
    },
    {
      "channel": 1,
      "note": 57,
      "start": 119.7974,
      "duration": 0.1242,
      "velocity": 113,
      "chip": "ym2612"
    },
    {
      "channel": 2,
      "note": 69,
      "start": 119.7975,
      "duration": 0.249,
      "velocity": 111,
      "chip": "ym2612"
    },
    {
      "channel": 4,
      "note": 69,
      "start": 119.9841,
      "duration": 0.249,
      "velocity": 111,
      "chip": "ym2612"
    },
    {
      "channel": 0,
      "note": 52,
      "start": 120.0462,
      "duration": 0.249,
      "velocity": 123,
      "chip": "ym2612"
    },
    {
      "channel": 1,
      "note": 57,
      "start": 120.0464,
      "duration": 0.1242,
      "velocity": 113,
      "chip": "ym2612"
    },
    {
      "channel": 2,
      "note": 81,
      "start": 120.0465,
      "duration": 0.0776,
      "velocity": 111,
      "chip": "ym2612"
    },
    {
      "channel": 2,
      "note": 80,
      "start": 120.124,
      "duration": 0.0933,
      "velocity": 111,
      "chip": "ym2612"
    },
    {
      "channel": 2,
      "note": 81,
      "start": 120.2174,
      "duration": 0.0781,
      "velocity": 111,
      "chip": "ym2612"
    },
    {
      "channel": 4,
      "note": 81,
      "start": 120.2331,
      "duration": 0.0778,
      "velocity": 111,
      "chip": "ym2612"
    },
    {
      "channel": 0,
      "note": 52,
      "start": 120.2953,
      "duration": 0.249,
      "velocity": 127,
      "chip": "ym2612"
    },
    {
      "channel": 1,
      "note": 57,
      "start": 120.2954,
      "duration": 0.1242,
      "velocity": 113,
      "chip": "ym2612"
    },
    {
      "channel": 2,
      "note": 80,
      "start": 120.2955,
      "duration": 0.249,
      "velocity": 111,
      "chip": "ym2612"
    },
    {
      "channel": 4,
      "note": 80,
      "start": 120.3109,
      "duration": 0.0934,
      "velocity": 111,
      "chip": "ym2612"
    },
    {
      "channel": 4,
      "note": 81,
      "start": 120.4043,
      "duration": 0.0778,
      "velocity": 111,
      "chip": "ym2612"
    },
    {
      "channel": 4,
      "note": 80,
      "start": 120.4821,
      "duration": 0.249,
      "velocity": 111,
      "chip": "ym2612"
    },
    {
      "channel": 0,
      "note": 52,
      "start": 120.5443,
      "duration": 0.0153,
      "velocity": 127,
      "chip": "ym2612"
    },
    {
      "channel": 1,
      "note": 57,
      "start": 120.5444,
      "duration": 0.1242,
      "velocity": 113,
      "chip": "ym2612"
    },
    {
      "channel": 2,
      "note": 77,
      "start": 120.5446,
      "duration": 0.747,
      "velocity": 111,
      "chip": "ym2612"
    },
    {
      "channel": 0,
      "note": 76,
      "start": 120.5596,
      "duration": 0.2337,
      "velocity": 127,
      "chip": "ym2612"
    },
    {
      "channel": 4,
      "note": 77,
      "start": 120.7311,
      "duration": 0.747,
      "velocity": 111,
      "chip": "ym2612"
    },
    {
      "channel": 0,
      "note": 65,
      "start": 120.7933,
      "duration": 0.0153,
      "velocity": 127,
      "chip": "ym2612"
    },
    {
      "channel": 1,
      "note": 57,
      "start": 120.7934,
      "duration": 0.1242,
      "velocity": 113,
      "chip": "ym2612"
    },
    {
      "channel": 0,
      "note": 76,
      "start": 120.8086,
      "duration": 0.2337,
      "velocity": 127,
      "chip": "ym2612"
    },
    {
      "channel": 0,
      "note": 65,
      "start": 121.0423,
      "duration": 0.0153,
      "velocity": 127,
      "chip": "ym2612"
    },
    {
      "channel": 1,
      "note": 57,
      "start": 121.0424,
      "duration": 0.1242,
      "velocity": 113,
      "chip": "ym2612"
    },
    {
      "channel": 0,
      "note": 76,
      "start": 121.0576,
      "duration": 0.2337,
      "velocity": 127,
      "chip": "ym2612"
    },
    {
      "channel": 0,
      "note": 65,
      "start": 121.2913,
      "duration": 0.0153,
      "velocity": 127,
      "chip": "ym2612"
    },
    {
      "channel": 1,
      "note": 57,
      "start": 121.2914,
      "duration": 0.1242,
      "velocity": 113,
      "chip": "ym2612"
    },
    {
      "channel": 2,
      "note": 76,
      "start": 121.2915,
      "duration": 0.498,
      "velocity": 111,
      "chip": "ym2612"
    },
    {
      "channel": 0,
      "note": 76,
      "start": 121.3066,
      "duration": 0.2339,
      "velocity": 123,
      "chip": "ym2612"
    },
    {
      "channel": 4,
      "note": 76,
      "start": 121.4782,
      "duration": 0.498,
      "velocity": 111,
      "chip": "ym2612"
    },
    {
      "channel": 0,
      "note": 65,
      "start": 121.5405,
      "duration": 0.2488,
      "velocity": 123,
      "chip": "ym2612"
    },
    {
      "channel": 1,
      "note": 57,
      "start": 121.5407,
      "duration": 0.124,
      "velocity": 113,
      "chip": "ym2612"
    },
    {
      "channel": 0,
      "note": 52,
      "start": 121.7893,
      "duration": 0.249,
      "velocity": 123,
      "chip": "ym2612"
    },
    {
      "channel": 1,
      "note": 57,
      "start": 121.7894,
      "duration": 0.1242,
      "velocity": 113,
      "chip": "ym2612"
    },
    {
      "channel": 2,
      "note": 72,
      "start": 121.7896,
      "duration": 0.498,
      "velocity": 111,
      "chip": "ym2612"
    },
    {
      "channel": 4,
      "note": 72,
      "start": 121.9762,
      "duration": 0.498,
      "velocity": 111,
      "chip": "ym2612"
    },
    {
      "channel": 0,
      "note": 52,
      "start": 122.0383,
      "duration": 0.249,
      "velocity": 123,
      "chip": "ym2612"
    },
    {
      "channel": 1,
      "note": 57,
      "start": 122.0385,
      "duration": 0.1242,
      "velocity": 113,
      "chip": "ym2612"
    },
    {
      "channel": 0,
      "note": 52,
      "start": 122.2873,
      "duration": 0.249,
      "velocity": 127,
      "chip": "ym2612"
    },
    {
      "channel": 1,
      "note": 57,
      "start": 122.2875,
      "duration": 0.1242,
      "velocity": 113,
      "chip": "ym2612"
    },
    {
      "channel": 2,
      "note": 74,
      "start": 122.2876,
      "duration": 0.498,
      "velocity": 111,
      "chip": "ym2612"
    },
    {
      "channel": 4,
      "note": 74,
      "start": 122.4742,
      "duration": 0.498,
      "velocity": 111,
      "chip": "ym2612"
    },
    {
      "channel": 0,
      "note": 52,
      "start": 122.5364,
      "duration": 0.0153,
      "velocity": 127,
      "chip": "ym2612"
    },
    {
      "channel": 1,
      "note": 57,
      "start": 122.5365,
      "duration": 0.1242,
      "velocity": 113,
      "chip": "ym2612"
    },
    {
      "channel": 0,
      "note": 76,
      "start": 122.5517,
      "duration": 0.2337,
      "velocity": 127,
      "chip": "ym2612"
    },
    {
      "channel": 0,
      "note": 65,
      "start": 122.7854,
      "duration": 0.0153,
      "velocity": 127,
      "chip": "ym2612"
    },
    {
      "channel": 1,
      "note": 57,
      "start": 122.7855,
      "duration": 0.1242,
      "velocity": 113,
      "chip": "ym2612"
    },
    {
      "channel": 2,
      "note": 76,
      "start": 122.7856,
      "duration": 0.249,
      "velocity": 111,
      "chip": "ym2612"
    },
    {
      "channel": 0,
      "note": 76,
      "start": 122.8007,
      "duration": 0.2337,
      "velocity": 127,
      "chip": "ym2612"
    },
    {
      "channel": 4,
      "note": 76,
      "start": 122.9722,
      "duration": 0.249,
      "velocity": 111,
      "chip": "ym2612"
    },
    {
      "channel": 0,
      "note": 65,
      "start": 123.0344,
      "duration": 0.0153,
      "velocity": 127,
      "chip": "ym2612"
    },
    {
      "channel": 1,
      "note": 57,
      "start": 123.0345,
      "duration": 0.1242,
      "velocity": 113,
      "chip": "ym2612"
    },
    {
      "channel": 2,
      "note": 74,
      "start": 123.0346,
      "duration": 0.249,
      "velocity": 111,
      "chip": "ym2612"
    },
    {
      "channel": 0,
      "note": 76,
      "start": 123.0497,
      "duration": 0.2337,
      "velocity": 127,
      "chip": "ym2612"
    },
    {
      "channel": 4,
      "note": 74,
      "start": 123.2212,
      "duration": 0.249,
      "velocity": 111,
      "chip": "ym2612"
    },
    {
      "channel": 0,
      "note": 65,
      "start": 123.2834,
      "duration": 0.0153,
      "velocity": 127,
      "chip": "ym2612"
    },
    {
      "channel": 1,
      "note": 57,
      "start": 123.2835,
      "duration": 0.1242,
      "velocity": 113,
      "chip": "ym2612"
    },
    {
      "channel": 2,
      "note": 72,
      "start": 123.2836,
      "duration": 0.2491,
      "velocity": 111,
      "chip": "ym2612"
    },
    {
      "channel": 0,
      "note": 76,
      "start": 123.2987,
      "duration": 0.2337,
      "velocity": 123,
      "chip": "ym2612"
    },
    {
      "channel": 4,
      "note": 72,
      "start": 123.4702,
      "duration": 0.249,
      "velocity": 111,
      "chip": "ym2612"
    },
    {
      "channel": 0,
      "note": 65,
      "start": 123.5324,
      "duration": 0.249,
      "velocity": 123,
      "chip": "ym2612"
    },
    {
      "channel": 1,
      "note": 57,
      "start": 123.5326,
      "duration": 0.1242,
      "velocity": 113,
      "chip": "ym2612"
    },
    {
      "channel": 2,
      "note": 74,
      "start": 123.5327,
      "duration": 0.747,
      "velocity": 111,
      "chip": "ym2612"
    },
    {
      "channel": 4,
      "note": 74,
      "start": 123.7193,
      "duration": 0.747,
      "velocity": 111,
      "chip": "ym2612"
    },
    {
      "channel": 0,
      "note": 52,
      "start": 123.7814,
      "duration": 0.249,
      "velocity": 123,
      "chip": "ym2612"
    },
    {
      "channel": 1,
      "note": 57,
      "start": 123.7815,
      "duration": 0.1242,
      "velocity": 113,
      "chip": "ym2612"
    },
    {
      "channel": 0,
      "note": 52,
      "start": 124.0304,
      "duration": 0.249,
      "velocity": 123,
      "chip": "ym2612"
    },
    {
      "channel": 1,
      "note": 57,
      "start": 124.0305,
      "duration": 0.1242,
      "velocity": 113,
      "chip": "ym2612"
    },
    {
      "channel": 0,
      "note": 52,
      "start": 124.2794,
      "duration": 0.249,
      "velocity": 127,
      "chip": "ym2612"
    },
    {
      "channel": 1,
      "note": 57,
      "start": 124.2795,
      "duration": 0.1242,
      "velocity": 113,
      "chip": "ym2612"
    },
    {
      "channel": 2,
      "note": 72,
      "start": 124.2797,
      "duration": 0.249,
      "velocity": 111,
      "chip": "ym2612"
    },
    {
      "channel": 4,
      "note": 72,
      "start": 124.4663,
      "duration": 0.249,
      "velocity": 111,
      "chip": "ym2612"
    },
    {
      "channel": 0,
      "note": 52,
      "start": 124.5284,
      "duration": 0.0153,
      "velocity": 127,
      "chip": "ym2612"
    },
    {
      "channel": 1,
      "note": 57,
      "start": 124.5286,
      "duration": 0.1242,
      "velocity": 113,
      "chip": "ym2612"
    },
    {
      "channel": 0,
      "note": 76,
      "start": 124.5437,
      "duration": 0.2337,
      "velocity": 127,
      "chip": "ym2612"
    },
    {
      "channel": 0,
      "note": 65,
      "start": 124.7774,
      "duration": 0.0153,
      "velocity": 127,
      "chip": "ym2612"
    },
    {
      "channel": 1,
      "note": 57,
      "start": 124.7776,
      "duration": 0.1242,
      "velocity": 113,
      "chip": "ym2612"
    },
    {
      "channel": 0,
      "note": 76,
      "start": 124.7928,
      "duration": 0.2337,
      "velocity": 127,
      "chip": "ym2612"
    },
    {
      "channel": 0,
      "note": 65,
      "start": 125.0264,
      "duration": 0.0153,
      "velocity": 127,
      "chip": "ym2612"
    },
    {
      "channel": 1,
      "note": 57,
      "start": 125.0266,
      "duration": 0.1242,
      "velocity": 113,
      "chip": "ym2612"
    },
    {
      "channel": 0,
      "note": 76,
      "start": 125.0418,
      "duration": 0.2337,
      "velocity": 127,
      "chip": "ym2612"
    },
    {
      "channel": 0,
      "note": 65,
      "start": 125.2754,
      "duration": 0.0153,
      "velocity": 127,
      "chip": "ym2612"
    },
    {
      "channel": 1,
      "note": 57,
      "start": 125.2756,
      "duration": 0.1242,
      "velocity": 113,
      "chip": "ym2612"
    },
    {
      "channel": 0,
      "note": 76,
      "start": 125.2908,
      "duration": 0.2337,
      "velocity": 123,
      "chip": "ym2612"
    },
    {
      "channel": 0,
      "note": 65,
      "start": 125.5245,
      "duration": 0.249,
      "velocity": 123,
      "chip": "ym2612"
    },
    {
      "channel": 1,
      "note": 57,
      "start": 125.5246,
      "duration": 0.1241,
      "velocity": 113,
      "chip": "ym2612"
    },
    {
      "channel": 0,
      "note": 52,
      "start": 125.7735,
      "duration": 0.249,
      "velocity": 123,
      "chip": "ym2612"
    },
    {
      "channel": 1,
      "note": 57,
      "start": 125.7738,
      "duration": 0.1241,
      "velocity": 113,
      "chip": "ym2612"
    },
    {
      "channel": 0,
      "note": 52,
      "start": 126.0225,
      "duration": 0.249,
      "velocity": 123,
      "chip": "ym2612"
    },
    {
      "channel": 1,
      "note": 57,
      "start": 126.0226,
      "duration": 0.1242,
      "velocity": 113,
      "chip": "ym2612"
    },
    {
      "channel": 0,
      "note": 52,
      "start": 126.2715,
      "duration": 0.249,
      "velocity": 127,
      "chip": "ym2612"
    },
    {
      "channel": 1,
      "note": 57,
      "start": 126.2716,
      "duration": 0.1242,
      "velocity": 113,
      "chip": "ym2612"
    },
    {
      "channel": 0,
      "note": 52,
      "start": 126.5205,
      "duration": 0.0153,
      "velocity": 127,
      "chip": "ym2612"
    },
    {
      "channel": 1,
      "note": 57,
      "start": 126.5207,
      "duration": 0.1242,
      "velocity": 113,
      "chip": "ym2612"
    },
    {
      "channel": 0,
      "note": 76,
      "start": 126.5358,
      "duration": 0.2337,
      "velocity": 127,
      "chip": "ym2612"
    },
    {
      "channel": 0,
      "note": 65,
      "start": 126.7695,
      "duration": 0.0153,
      "velocity": 127,
      "chip": "ym2612"
    },
    {
      "channel": 1,
      "note": 57,
      "start": 126.7696,
      "duration": 0.1242,
      "velocity": 113,
      "chip": "ym2612"
    },
    {
      "channel": 0,
      "note": 76,
      "start": 126.7848,
      "duration": 0.2337,
      "velocity": 127,
      "chip": "ym2612"
    },
    {
      "channel": 0,
      "note": 65,
      "start": 127.0185,
      "duration": 0.0153,
      "velocity": 127,
      "chip": "ym2612"
    },
    {
      "channel": 1,
      "note": 57,
      "start": 127.0186,
      "duration": 0.1242,
      "velocity": 113,
      "chip": "ym2612"
    },
    {
      "channel": 0,
      "note": 76,
      "start": 127.0338,
      "duration": 0.2337,
      "velocity": 127,
      "chip": "ym2612"
    },
    {
      "channel": 0,
      "note": 65,
      "start": 127.2675,
      "duration": 0.0153,
      "velocity": 127,
      "chip": "ym2612"
    },
    {
      "channel": 1,
      "note": 57,
      "start": 127.2676,
      "duration": 0.1242,
      "velocity": 113,
      "chip": "ym2612"
    },
    {
      "channel": 0,
      "note": 76,
      "start": 127.2829,
      "duration": 0.2337,
      "velocity": 123,
      "chip": "ym2612"
    },
    {
      "channel": 0,
      "note": 65,
      "start": 127.5166,
      "duration": 0.0469,
      "velocity": 123,
      "chip": "ym2612"
    },
    {
      "channel": 1,
      "note": 57,
      "start": 127.5167,
      "duration": 0.0468,
      "velocity": 113,
      "chip": "ym2612"
    },
    {
      "channel": 3,
      "note": 93,
      "start": 127.5172,
      "duration": 0.0463,
      "velocity": 121,
      "chip": "ym2612"
    }
  ]
}