{
  "track_name": "08 - Arab Merchant",
  "duration_sec": 28.0,
  "sample_rate": 44100,
  "note_count": 244,
  "unique_pitches": 27,
  "pitch_range": 49,
  "avg_note_duration": 0.4394,
  "reconstruction_stats": {
    "notes_reconstructed": 244,
    "keyon_events": 244,
    "keyoff_events": 240,
    "orphan_keyons": 4,
    "unique_pitches": 27,
    "pitch_range": 49,
    "avg_duration_sec": 0.4394
  },
  "metadata": {
    "source": "T\\The Immortal\\08 - Arab Merchant.vgz"
  },
  "notes": [
    {
      "channel": 0,
      "note": 54,
      "start": 0.0,
      "duration": 0.557,
      "velocity": 108,
      "chip": "ym2612"
    },
    {
      "channel": 1,
      "note": 47,
      "start": 0.0,
      "duration": 0.558,
      "velocity": 108,
      "chip": "ym2612"
    },
    {
      "channel": 2,
      "note": 63,
      "start": 0.0,
      "duration": 0.2736,
      "velocity": 87,
      "chip": "ym2612"
    },
    {
      "channel": 4,
      "note": 30,
      "start": 0.0,
      "duration": 0.0,
      "velocity": 28,
      "chip": "ym2612"
    },
    {
      "channel": 4,
      "note": 30,
      "start": 0.0,
      "duration": 0.5588,
      "velocity": 28,
      "chip": "ym2612"
    },
    {
      "channel": 2,
      "note": 66,
      "start": 0.2903,
      "duration": 0.2682,
      "velocity": 87,
      "chip": "ym2612"
    },
    {
      "channel": 0,
      "note": 50,
      "start": 0.5736,
      "duration": 0.2832,
      "velocity": 108,
      "chip": "ym2612"
    },
    {
      "channel": 1,
      "note": 47,
      "start": 0.5739,
      "duration": 0.2832,
      "velocity": 108,
      "chip": "ym2612"
    },
    {
      "channel": 2,
      "note": 71,
      "start": 0.5741,
      "duration": 0.2831,
      "velocity": 87,
      "chip": "ym2612"
    },
    {
      "channel": 4,
      "note": 30,
      "start": 0.5744,
      "duration": 0.266,
      "velocity": 28,
      "chip": "ym2612"
    },
    {
      "channel": 4,
      "note": 30,
      "start": 0.8575,
      "duration": 0.5663,
      "velocity": 28,
      "chip": "ym2612"
    },
    {
      "channel": 0,
      "note": 49,
      "start": 0.8736,
      "duration": 0.8502,
      "velocity": 108,
      "chip": "ym2612"
    },
    {
      "channel": 1,
      "note": 45,
      "start": 0.8738,
      "duration": 0.8508,
      "velocity": 108,
      "chip": "ym2612"
    },
    {
      "channel": 2,
      "note": 73,
      "start": 0.874,
      "duration": 0.2663,
      "velocity": 87,
      "chip": "ym2612"
    },
    {
      "channel": 2,
      "note": 74,
      "start": 1.1573,
      "duration": 0.0997,
      "velocity": 87,
      "chip": "ym2612"
    },
    {
      "channel": 2,
      "note": 73,
      "start": 1.2737,
      "duration": 0.05,
      "velocity": 87,
      "chip": "ym2612"
    },
    {
      "channel": 2,
      "note": 74,
      "start": 1.3404,
      "duration": 0.1,
      "velocity": 87,
      "chip": "ym2612"
    },
    {
      "channel": 4,
      "note": 30,
      "start": 1.4407,
      "duration": 0.2845,
      "velocity": 28,
      "chip": "ym2612"
    },
    {
      "channel": 2,
      "note": 73,
      "start": 1.457,
      "duration": 0.1166,
      "velocity": 87,
      "chip": "ym2612"
    },
    {
      "channel": 2,
      "note": 71,
      "start": 1.5904,
      "duration": 0.1345,
      "velocity": 87,
      "chip": "ym2612"
    },
    {
      "channel": 0,
      "note": 50,
      "start": 1.7403,
      "duration": 0.5664,
      "velocity": 108,
      "chip": "ym2612"
    },
    {
      "channel": 1,
      "note": 47,
      "start": 1.7405,
      "duration": 0.5672,
      "velocity": 108,
      "chip": "ym2612"
    },
    {
      "channel": 2,
      "note": 69,
      "start": 1.7408,
      "duration": 0.5687,
      "velocity": 87,
      "chip": "ym2612"
    },
    {
      "channel": 4,
      "note": 30,
      "start": 1.7411,
      "duration": 0.5687,
      "velocity": 28,
      "chip": "ym2612"
    },
    {
      "channel": 0,
      "note": 50,
      "start": 2.3239,
      "duration": 0.2828,
      "velocity": 108,
      "chip": "ym2612"
    },
    {
      "channel": 1,
      "note": 47,
      "start": 2.3242,
      "duration": 0.2827,
      "velocity": 108,
      "chip": "ym2612"
    },
    {
      "channel": 2,
      "note": 71,
      "start": 2.3244,
      "duration": 0.2827,
      "velocity": 87,
      "chip": "ym2612"
    },
    {
      "channel": 4,
      "note": 30,
      "start": 2.3263,
      "duration": 0.2641,
      "velocity": 28,
      "chip": "ym2612"
    },
    {
      "channel": 4,
      "note": 30,
      "start": 2.6074,
      "duration": 0.2831,
      "velocity": 28,
      "chip": "ym2612"
    },
    {
      "channel": 0,
      "note": 49,
      "start": 2.6236,
      "duration": 0.8498,
      "velocity": 108,
      "chip": "ym2612"
    },
    {
      "channel": 1,
      "note": 42,
      "start": 2.6238,
      "duration": 0.8498,
      "velocity": 108,
      "chip": "ym2612"
    },
    {
      "channel": 2,
      "note": 69,
      "start": 2.6241,
      "duration": 0.8498,
      "velocity": 87,
      "chip": "ym2612"
    },
    {
      "channel": 4,
      "note": 30,
      "start": 2.9073,
      "duration": 0.2665,
      "velocity": 28,
      "chip": "ym2612"
    },
    {
      "channel": 4,
      "note": 30,
      "start": 3.1905,
      "duration": 0.2836,
      "velocity": 28,
      "chip": "ym2612"
    },
    {
      "channel": 0,
      "note": 50,
      "start": 3.4908,
      "duration": 0.5659,
      "velocity": 108,
      "chip": "ym2612"
    },
    {
      "channel": 1,
      "note": 42,
      "start": 3.4911,
      "duration": 0.5657,
      "velocity": 108,
      "chip": "ym2612"
    },
    {
      "channel": 2,
      "note": 66,
      "start": 3.4914,
      "duration": 0.2823,
      "velocity": 87,
      "chip": "ym2612"
    },
    {
      "channel": 4,
      "note": 30,
      "start": 3.4946,
      "duration": 0.5627,
      "velocity": 28,
      "chip": "ym2612"
    },
    {
      "channel": 2,
      "note": 66,
      "start": 3.7904,
      "duration": 0.2667,
      "velocity": 87,
      "chip": "ym2612"
    },
    {
      "channel": 0,
      "note": 50,
      "start": 4.0736,
      "duration": 0.2831,
      "velocity": 108,
      "chip": "ym2612"
    },
    {
      "channel": 1,
      "note": 47,
      "start": 4.0739,
      "duration": 0.2829,
      "velocity": 108,
      "chip": "ym2612"
    },
    {
      "channel": 2,
      "note": 71,
      "start": 4.0742,
      "duration": 0.2829,
      "velocity": 87,
      "chip": "ym2612"
    },
    {
      "channel": 4,
      "note": 30,
      "start": 4.0745,
      "duration": 0.2659,
      "velocity": 28,
      "chip": "ym2612"
    },
    {
      "channel": 4,
      "note": 30,
      "start": 4.3574,
      "duration": 0.5664,
      "velocity": 28,
      "chip": "ym2612"
    },
    {
      "channel": 0,
      "note": 49,
      "start": 4.3736,
      "duration": 0.8498,
      "velocity": 108,
      "chip": "ym2612"
    },
    {
      "channel": 1,
      "note": 45,
      "start": 4.3738,
      "duration": 0.8498,
      "velocity": 108,
      "chip": "ym2612"
    },
    {
      "channel": 2,
      "note": 73,
      "start": 4.3741,
      "duration": 0.2662,
      "velocity": 87,
      "chip": "ym2612"
    },
    {
      "channel": 2,
      "note": 74,
      "start": 4.6573,
      "duration": 0.0996,
      "velocity": 87,
      "chip": "ym2612"
    },
    {
      "channel": 2,
      "note": 73,
      "start": 4.7737,
      "duration": 0.05,
      "velocity": 87,
      "chip": "ym2612"
    },
    {
      "channel": 2,
      "note": 74,
      "start": 4.8404,
      "duration": 0.1,
      "velocity": 87,
      "chip": "ym2612"
    },
    {
      "channel": 4,
      "note": 30,
      "start": 4.9407,
      "duration": 0.2834,
      "velocity": 28,
      "chip": "ym2612"
    },
    {
      "channel": 2,
      "note": 73,
      "start": 4.9571,
      "duration": 0.1166,
      "velocity": 87,
      "chip": "ym2612"
    },
    {
      "channel": 2,
      "note": 71,
      "start": 5.0904,
      "duration": 0.1334,
      "velocity": 87,
      "chip": "ym2612"
    },
    {
      "channel": 0,
      "note": 50,
      "start": 5.2405,
      "duration": 0.5662,
      "velocity": 108,
      "chip": "ym2612"
    },
    {
      "channel": 1,
      "note": 47,
      "start": 5.2407,
      "duration": 0.5661,
      "velocity": 108,
      "chip": "ym2612"
    },
    {
      "channel": 2,
      "note": 69,
      "start": 5.241,
      "duration": 1.1494,
      "velocity": 87,
      "chip": "ym2612"
    },
    {
      "channel": 4,
      "note": 30,
      "start": 5.2413,
      "duration": 0.566,
      "velocity": 28,
      "chip": "ym2612"
    },
    {
      "channel": 0,
      "note": 50,
      "start": 5.8238,
      "duration": 0.2829,
      "velocity": 108,
      "chip": "ym2612"
    },
    {
      "channel": 1,
      "note": 47,
      "start": 5.8241,
      "duration": 0.2828,
      "velocity": 108,
      "chip": "ym2612"
    },
    {
      "channel": 4,
      "note": 30,
      "start": 5.826,
      "duration": 0.2644,
      "velocity": 28,
      "chip": "ym2612"
    },
    {
      "channel": 4,
      "note": 30,
      "start": 6.1073,
      "duration": 0.2833,
      "velocity": 28,
      "chip": "ym2612"
    },
    {
      "channel": 0,
      "note": 49,
      "start": 6.1235,
      "duration": 0.8498,
      "velocity": 108,
      "chip": "ym2612"
    },
    {
      "channel": 1,
      "note": 42,
      "start": 6.1237,
      "duration": 0.8498,
      "velocity": 108,
      "chip": "ym2612"
    },
    {
      "channel": 4,
      "note": 30,
      "start": 6.4074,
      "duration": 0.2663,
      "velocity": 28,
      "chip": "ym2612"
    },
    {
      "channel": 4,
      "note": 30,
      "start": 6.6905,
      "duration": 0.2835,
      "velocity": 28,
      "chip": "ym2612"
    },
    {
      "channel": 0,
      "note": 47,
      "start": 6.9907,
      "duration": 0.5659,
      "velocity": 108,
      "chip": "ym2612"
    },
    {
      "channel": 1,
      "note": 47,
      "start": 6.991,
      "duration": 0.5658,
      "velocity": 108,
      "chip": "ym2612"
    },
    {
      "channel": 2,
      "note": 71,
      "start": 6.9913,
      "duration": 0.2822,
      "velocity": 87,
      "chip": "ym2612"
    },
    {
      "channel": 4,
      "note": 30,
      "start": 6.9946,
      "duration": 0.5628,
      "velocity": 28,
      "chip": "ym2612"
    },
    {
      "channel": 2,
      "note": 66,
      "start": 7.2903,
      "duration": 0.2668,
      "velocity": 87,
      "chip": "ym2612"
    },
    {
      "channel": 0,
      "note": 50,
      "start": 7.5737,
      "duration": 0.2831,
      "velocity": 108,
      "chip": "ym2612"
    },
    {
      "channel": 1,
      "note": 47,
      "start": 7.574,
      "duration": 0.2829,
      "velocity": 108,
      "chip": "ym2612"
    },
    {
      "channel": 2,
      "note": 71,
      "start": 7.5743,
      "duration": 0.2829,
      "velocity": 87,
      "chip": "ym2612"
    },
    {
      "channel": 4,
      "note": 30,
      "start": 7.5746,
      "duration": 0.2659,
      "velocity": 28,
      "chip": "ym2612"
    },
    {
      "channel": 4,
      "note": 30,
      "start": 7.8575,
      "duration": 0.5663,
      "velocity": 28,
      "chip": "ym2612"
    },
    {
      "channel": 0,
      "note": 49,
      "start": 7.8735,
      "duration": 0.8499,
      "velocity": 108,
      "chip": "ym2612"
    },
    {
      "channel": 1,
      "note": 45,
      "start": 7.8737,
      "duration": 0.8498,
      "velocity": 108,
      "chip": "ym2612"
    },
    {
      "channel": 2,
      "note": 73,
      "start": 7.874,
      "duration": 0.2677,
      "velocity": 87,
      "chip": "ym2612"
    },
    {
      "channel": 2,
      "note": 74,
      "start": 8.1572,
      "duration": 0.0998,
      "velocity": 87,
      "chip": "ym2612"
    },
    {
      "channel": 2,
      "note": 73,
      "start": 8.2737,
      "duration": 0.05,
      "velocity": 87,
      "chip": "ym2612"
    },
    {
      "channel": 2,
      "note": 74,
      "start": 8.3404,
      "duration": 0.1,
      "velocity": 87,
      "chip": "ym2612"
    },
    {
      "channel": 4,
      "note": 30,
      "start": 8.4406,
      "duration": 0.2834,
      "velocity": 28,
      "chip": "ym2612"
    },
    {
      "channel": 2,
      "note": 73,
      "start": 8.4571,
      "duration": 0.1166,
      "velocity": 87,
      "chip": "ym2612"
    },
    {
      "channel": 2,
      "note": 71,
      "start": 8.5903,
      "duration": 0.1335,
      "velocity": 87,
      "chip": "ym2612"
    },
    {
      "channel": 0,
      "note": 50,
      "start": 8.7404,
      "duration": 0.5669,
      "velocity": 108,
      "chip": "ym2612"
    },
    {
      "channel": 1,
      "note": 47,
      "start": 8.7407,
      "duration": 0.5673,
      "velocity": 108,
      "chip": "ym2612"
    },
    {
      "channel": 2,
      "note": 69,
      "start": 8.7409,
      "duration": 0.5677,
      "velocity": 87,
      "chip": "ym2612"
    },
    {
      "channel": 4,
      "note": 30,
      "start": 8.7412,
      "duration": 0.5676,
      "velocity": 28,
      "chip": "ym2612"
    },
    {
      "channel": 0,
      "note": 49,
      "start": 9.3238,
      "duration": 0.2829,
      "velocity": 108,
      "chip": "ym2612"
    },
    {
      "channel": 1,
      "note": 45,
      "start": 9.3241,
      "duration": 0.2829,
      "velocity": 108,
      "chip": "ym2612"
    },
    {
      "channel": 2,
      "note": 76,
      "start": 9.3243,
      "duration": 0.2828,
      "velocity": 87,
      "chip": "ym2612"
    },
    {
      "channel": 4,
      "note": 30,
      "start": 9.3261,
      "duration": 0.2643,
      "velocity": 28,
      "chip": "ym2612"
    },
    {
      "channel": 4,
      "note": 30,
      "start": 9.6074,
      "duration": 0.2846,
      "velocity": 28,
      "chip": "ym2612"
    },
    {
      "channel": 0,
      "note": 49,
      "start": 9.6236,
      "duration": 0.8498,
      "velocity": 108,
      "chip": "ym2612"
    },
    {
      "channel": 1,
      "note": 42,
      "start": 9.6238,
      "duration": 0.8498,
      "velocity": 108,
      "chip": "ym2612"
    },
    {
      "channel": 2,
      "note": 74,
      "start": 9.6241,
      "duration": 0.8497,
      "velocity": 87,
      "chip": "ym2612"
    },
    {
      "channel": 4,
      "note": 30,
      "start": 9.9073,
      "duration": 0.2664,
      "velocity": 28,
      "chip": "ym2612"
    },
    {
      "channel": 4,
      "note": 30,
      "start": 10.1905,
      "duration": 0.2835,
      "velocity": 28,
      "chip": "ym2612"
    },
    {
      "channel": 0,
      "note": 50,
      "start": 10.4906,
      "duration": 0.566,
      "velocity": 108,
      "chip": "ym2612"
    },
    {
      "channel": 1,
      "note": 47,
      "start": 10.4909,
      "duration": 0.5659,
      "velocity": 108,
      "chip": "ym2612"
    },
    {
      "channel": 2,
      "note": 71,
      "start": 10.4912,
      "duration": 0.4159,
      "velocity": 87,
      "chip": "ym2612"
    },
    {
      "channel": 4,
      "note": 30,
      "start": 10.4944,
      "duration": 0.5629,
      "velocity": 28,
      "chip": "ym2612"
    },
    {
      "channel": 2,
      "note": 76,
      "start": 10.9237,
      "duration": 0.1334,
      "velocity": 87,
      "chip": "ym2612"
    },
    {
      "channel": 0,
      "note": 55,
      "start": 11.0737,
      "duration": 0.2831,
      "velocity": 108,
      "chip": "ym2612"
    },
    {
      "channel": 1,
      "note": 48,
      "start": 11.074,
      "duration": 0.2829,
      "velocity": 108,
      "chip": "ym2612"
    },
    {
      "channel": 2,
      "note": 78,
      "start": 11.0743,
      "duration": 0.2829,
      "velocity": 87,
      "chip": "ym2612"
    },
    {
      "channel": 4,
      "note": 30,
      "start": 11.0746,
      "duration": 0.2659,
      "velocity": 28,
      "chip": "ym2612"
    },
    {
      "channel": 4,
      "note": 30,
      "start": 11.3575,
      "duration": 0.5663,
      "velocity": 28,
      "chip": "ym2612"
    },
    {
      "channel": 0,
      "note": 52,
      "start": 11.3735,
      "duration": 0.5666,
      "velocity": 108,
      "chip": "ym2612"
    },
    {
      "channel": 1,
      "note": 48,
      "start": 11.3737,
      "duration": 0.5666,
      "velocity": 108,
      "chip": "ym2612"
    },
    {
      "channel": 2,
      "note": 79,
      "start": 11.374,
      "duration": 0.2662,
      "velocity": 87,
      "chip": "ym2612"
    },
    {
      "channel": 2,
      "note": 78,
      "start": 11.6573,
      "duration": 0.2832,
      "velocity": 87,
      "chip": "ym2612"
    },
    {
      "channel": 4,
      "note": 30,
      "start": 11.9408,
      "duration": 0.2833,
      "velocity": 28,
      "chip": "ym2612"
    },
    {
      "channel": 0,
      "note": 57,
      "start": 11.9568,
      "duration": 0.2666,
      "velocity": 108,
      "chip": "ym2612"
    },
    {
      "channel": 1,
      "note": 50,
      "start": 11.9571,
      "duration": 0.2665,
      "velocity": 108,
      "chip": "ym2612"
    },
    {
      "channel": 2,
      "note": 76,
      "start": 11.9573,
      "duration": 0.2664,
      "velocity": 87,
      "chip": "ym2612"
    },
    {
      "channel": 0,
      "note": 54,
      "start": 12.2404,
      "duration": 0.8664,
      "velocity": 108,
      "chip": "ym2612"
    },
    {
      "channel": 1,
      "note": 50,
      "start": 12.2407,
      "duration": 0.8663,
      "velocity": 108,
      "chip": "ym2612"
    },
    {
      "channel": 2,
      "note": 74,
      "start": 12.2409,
      "duration": 1.1493,
      "velocity": 87,
      "chip": "ym2612"
    },
    {
      "channel": 4,
      "note": 30,
      "start": 12.2413,
      "duration": 0.5658,
      "velocity": 28,
      "chip": "ym2612"
    },
    {
      "channel": 4,
      "note": 30,
      "start": 12.8257,
      "duration": 0.2648,
      "velocity": 28,
      "chip": "ym2612"
    },
    {
      "channel": 4,
      "note": 30,
      "start": 13.1074,
      "duration": 0.2832,
      "velocity": 28,
      "chip": "ym2612"
    },
    {
      "channel": 0,
      "note": 56,
      "start": 13.1234,
      "duration": 0.85,
      "velocity": 108,
      "chip": "ym2612"
    },
    {
      "channel": 1,
      "note": 47,
      "start": 13.1237,
      "duration": 0.8499,
      "velocity": 108,
      "chip": "ym2612"
    },
    {
      "channel": 4,
      "note": 30,
      "start": 13.4073,
      "duration": 0.2665,
      "velocity": 28,
      "chip": "ym2612"
    },
    {
      "channel": 4,
      "note": 30,
      "start": 13.6905,
      "duration": 0.2835,
      "velocity": 28,
      "chip": "ym2612"
    },
    {
      "channel": 0,
      "note": 56,
      "start": 13.9907,
      "duration": 0.8661,
      "velocity": 108,
      "chip": "ym2612"
    },
    {
      "channel": 1,
      "note": 40,
      "start": 13.991,
      "duration": 0.866,
      "velocity": 108,
      "chip": "ym2612"
    },
    {
      "channel": 2,
      "note": 76,
      "start": 13.9912,
      "duration": 0.2824,
      "velocity": 87,
      "chip": "ym2612"
    },
    {
      "channel": 4,
      "note": 30,
      "start": 13.9944,
      "duration": 0.5669,
      "velocity": 28,
      "chip": "ym2612"
    },
    {
      "channel": 2,
      "note": 79,
      "start": 14.2904,
      "duration": 0.1166,
      "velocity": 87,
      "chip": "ym2612"
    },
    {
      "channel": 2,
      "note": 79,
      "start": 14.4236,
      "duration": 0.1333,
      "velocity": 87,
      "chip": "ym2612"
    },
    {
      "channel": 2,
      "note": 78,
      "start": 14.5739,
      "duration": 0.2833,
      "velocity": 87,
      "chip": "ym2612"
    },
    {
      "channel": 4,
      "note": 30,
      "start": 14.5743,
      "duration": 0.2662,
      "velocity": 28,
      "chip": "ym2612"
    },
    {
      "channel": 4,
      "note": 30,
      "start": 14.8575,
      "duration": 0.5663,
      "velocity": 28,
      "chip": "ym2612"
    },
    {
      "channel": 0,
      "note": 55,
      "start": 14.8734,
      "duration": 0.8499,
      "velocity": 108,
      "chip": "ym2612"
    },
    {
      "channel": 1,
      "note": 48,
      "start": 14.8737,
      "duration": 0.8498,
      "velocity": 108,
      "chip": "ym2612"
    },
    {
      "channel": 2,
      "note": 76,
      "start": 14.8739,
      "duration": 0.2663,
      "velocity": 87,
      "chip": "ym2612"
    },
    {
      "channel": 2,
      "note": 74,
      "start": 15.1573,
      "duration": 0.1329,
      "velocity": 87,
      "chip": "ym2612"
    },
    {
      "channel": 2,
      "note": 74,
      "start": 15.307,
      "duration": 0.1334,
      "velocity": 87,
      "chip": "ym2612"
    },
    {
      "channel": 4,
      "note": 30,
      "start": 15.4407,
      "duration": 0.2833,
      "velocity": 28,
      "chip": "ym2612"
    },
    {
      "channel": 2,
      "note": 76,
      "start": 15.457,
      "duration": 0.2667,
      "velocity": 87,
      "chip": "ym2612"
    },
    {
      "channel": 0,
      "note": 54,
      "start": 15.7403,
      "duration": 0.8664,
      "velocity": 108,
      "chip": "ym2612"
    },
    {
      "channel": 1,
      "note": 50,
      "start": 15.7406,
      "duration": 0.8663,
      "velocity": 108,
      "chip": "ym2612"
    },
    {
      "channel": 2,
      "note": 78,
      "start": 15.7409,
      "duration": 0.5672,
      "velocity": 87,
      "chip": "ym2612"
    },
    {
      "channel": 4,
      "note": 30,
      "start": 15.7412,
      "duration": 0.5675,
      "velocity": 28,
      "chip": "ym2612"
    },
    {
      "channel": 2,
      "note": 78,
      "start": 16.324,
      "duration": 0.2831,
      "velocity": 87,
      "chip": "ym2612"
    },
    {
      "channel": 4,
      "note": 30,
      "start": 16.3258,
      "duration": 0.2647,
      "velocity": 28,
      "chip": "ym2612"
    },
    {
      "channel": 4,
      "note": 30,
      "start": 16.6073,
      "duration": 0.2842,
      "velocity": 28,
      "chip": "ym2612"
    },
    {
      "channel": 0,
      "note": 54,
      "start": 16.6235,
      "duration": 0.8498,
      "velocity": 108,
      "chip": "ym2612"
    },
    {
      "channel": 1,
      "note": 45,
      "start": 16.6237,
      "duration": 0.85,
      "velocity": 108,
      "chip": "ym2612"
    },
    {
      "channel": 2,
      "note": 74,
      "start": 16.624,
      "duration": 0.5663,
      "velocity": 87,
      "chip": "ym2612"
    },
    {
      "channel": 4,
      "note": 30,
      "start": 16.9073,
      "duration": 0.2664,
      "velocity": 28,
      "chip": "ym2612"
    },
    {
      "channel": 4,
      "note": 30,
      "start": 17.1906,
      "duration": 0.2857,
      "velocity": 28,
      "chip": "ym2612"
    },
    {
      "channel": 2,
      "note": 71,
      "start": 17.2071,
      "duration": 0.269,
      "velocity": 87,
      "chip": "ym2612"
    },
    {
      "channel": 0,
      "note": 50,
      "start": 17.4905,
      "duration": 0.8662,
      "velocity": 108,
      "chip": "ym2612"
    },
    {
      "channel": 1,
      "note": 47,
      "start": 17.4909,
      "duration": 0.8661,
      "velocity": 108,
      "chip": "ym2612"
    },
    {
      "channel": 2,
      "note": 71,
      "start": 17.4911,
      "duration": 0.4159,
      "velocity": 87,
      "chip": "ym2612"
    },
    {
      "channel": 4,
      "note": 30,
      "start": 17.4944,
      "duration": 0.5638,
      "velocity": 28,
      "chip": "ym2612"
    },
    {
      "channel": 2,
      "note": 72,
      "start": 17.9237,
      "duration": 0.1341,
      "velocity": 87,
      "chip": "ym2612"
    },
    {
      "channel": 2,
      "note": 74,
      "start": 18.0739,
      "duration": 0.2833,
      "velocity": 87,
      "chip": "ym2612"
    },
    {
      "channel": 4,
      "note": 30,
      "start": 18.0742,
      "duration": 0.2663,
      "velocity": 28,
      "chip": "ym2612"
    },
    {
      "channel": 4,
      "note": 30,
      "start": 18.3575,
      "duration": 0.5663,
      "velocity": 28,
      "chip": "ym2612"
    },
    {
      "channel": 0,
      "note": 48,
      "start": 18.3734,
      "duration": 0.8499,
      "velocity": 108,
      "chip": "ym2612"
    },
    {
      "channel": 1,
      "note": 45,
      "start": 18.3736,
      "duration": 0.8499,
      "velocity": 108,
      "chip": "ym2612"
    },
    {
      "channel": 2,
      "note": 76,
      "start": 18.3739,
      "duration": 0.2679,
      "velocity": 87,
      "chip": "ym2612"
    },
    {
      "channel": 2,
      "note": 74,
      "start": 18.6572,
      "duration": 0.1331,
      "velocity": 87,
      "chip": "ym2612"
    },
    {
      "channel": 2,
      "note": 74,
      "start": 18.8082,
      "duration": 0.1322,
      "velocity": 87,
      "chip": "ym2612"
    },
    {
      "channel": 4,
      "note": 30,
      "start": 18.9407,
      "duration": 0.2833,
      "velocity": 28,
      "chip": "ym2612"
    },
    {
      "channel": 2,
      "note": 72,
      "start": 18.9571,
      "duration": 0.2667,
      "velocity": 87,
      "chip": "ym2612"
    },
    {
      "channel": 0,
      "note": 50,
      "start": 19.2402,
      "duration": 0.8665,
      "velocity": 108,
      "chip": "ym2612"
    },
    {
      "channel": 1,
      "note": 43,
      "start": 19.2405,
      "duration": 0.8663,
      "velocity": 108,
      "chip": "ym2612"
    },
    {
      "channel": 2,
      "note": 71,
      "start": 19.2408,
      "duration": 0.5662,
      "velocity": 87,
      "chip": "ym2612"
    },
    {
      "channel": 4,
      "note": 30,
      "start": 19.2411,
      "duration": 0.5662,
      "velocity": 28,
      "chip": "ym2612"
    },
    {
      "channel": 2,
      "note": 71,
      "start": 19.8241,
      "duration": 0.2831,
      "velocity": 87,
      "chip": "ym2612"
    },
    {
      "channel": 4,
      "note": 30,
      "start": 19.8259,
      "duration": 0.2645,
      "velocity": 28,
      "chip": "ym2612"
    },
    {
      "channel": 4,
      "note": 30,
      "start": 20.1074,
      "duration": 0.2832,
      "velocity": 28,
      "chip": "ym2612"
    },
    {
      "channel": 0,
      "note": 52,
      "start": 20.1234,
      "duration": 0.85,
      "velocity": 108,
      "chip": "ym2612"
    },
    {
      "channel": 1,
      "note": 43,
      "start": 20.1237,
      "duration": 0.8499,
      "velocity": 108,
      "chip": "ym2612"
    },
    {
      "channel": 2,
      "note": 67,
      "start": 20.1239,
      "duration": 0.8498,
      "velocity": 87,
      "chip": "ym2612"
    },
    {
      "channel": 4,
      "note": 30,
      "start": 20.4073,
      "duration": 0.2665,
      "velocity": 28,
      "chip": "ym2612"
    },
    {
      "channel": 4,
      "note": 30,
      "start": 20.6905,
      "duration": 0.2836,
      "velocity": 28,
      "chip": "ym2612"
    },
    {
      "channel": 0,
      "note": 52,
      "start": 20.9907,
      "duration": 0.8661,
      "velocity": 108,
      "chip": "ym2612"
    },
    {
      "channel": 1,
      "note": 40,
      "start": 20.991,
      "duration": 0.866,
      "velocity": 108,
      "chip": "ym2612"
    },
    {
      "channel": 2,
      "note": 64,
      "start": 20.9912,
      "duration": 0.2824,
      "velocity": 87,
      "chip": "ym2612"
    },
    {
      "channel": 4,
      "note": 30,
      "start": 20.9945,
      "duration": 0.5627,
      "velocity": 28,
      "chip": "ym2612"
    },
    {
      "channel": 2,
      "note": 79,
      "start": 21.2904,
      "duration": 0.1166,
      "velocity": 87,
      "chip": "ym2612"
    },
    {
      "channel": 2,
      "note": 79,
      "start": 21.4236,
      "duration": 0.1333,
      "velocity": 87,
      "chip": "ym2612"
    },
    {
      "channel": 2,
      "note": 78,
      "start": 21.5739,
      "duration": 0.2833,
      "velocity": 87,
      "chip": "ym2612"
    },
    {
      "channel": 4,
      "note": 30,
      "start": 21.5743,
      "duration": 0.2662,
      "velocity": 28,
      "chip": "ym2612"
    },
    {
      "channel": 4,
      "note": 30,
      "start": 21.8575,
      "duration": 0.5663,
      "velocity": 28,
      "chip": "ym2612"
    },
    {
      "channel": 0,
      "note": 55,
      "start": 21.8734,
      "duration": 0.85,
      "velocity": 108,
      "chip": "ym2612"
    },
    {
      "channel": 1,
      "note": 48,
      "start": 21.8736,
      "duration": 0.8499,
      "velocity": 108,
      "chip": "ym2612"
    },
    {
      "channel": 2,
      "note": 76,
      "start": 21.8739,
      "duration": 0.2663,
      "velocity": 87,
      "chip": "ym2612"
    },
    {
      "channel": 2,
      "note": 74,
      "start": 22.1573,
      "duration": 0.133,
      "velocity": 87,
      "chip": "ym2612"
    },
    {
      "channel": 2,
      "note": 74,
      "start": 22.307,
      "duration": 0.1333,
      "velocity": 87,
      "chip": "ym2612"
    },
    {
      "channel": 4,
      "note": 30,
      "start": 22.4407,
      "duration": 0.2834,
      "velocity": 28,
      "chip": "ym2612"
    },
    {
      "channel": 2,
      "note": 76,
      "start": 22.4571,
      "duration": 0.2667,
      "velocity": 87,
      "chip": "ym2612"
    },
    {
      "channel": 0,
      "note": 54,
      "start": 22.7402,
      "duration": 0.8665,
      "velocity": 108,
      "chip": "ym2612"
    },
    {
      "channel": 1,
      "note": 50,
      "start": 22.7405,
      "duration": 0.8664,
      "velocity": 108,
      "chip": "ym2612"
    },
    {
      "channel": 2,
      "note": 78,
      "start": 22.7408,
      "duration": 0.5662,
      "velocity": 87,
      "chip": "ym2612"
    },
    {
      "channel": 4,
      "note": 30,
      "start": 22.7411,
      "duration": 0.5661,
      "velocity": 28,
      "chip": "ym2612"
    },
    {
      "channel": 2,
      "note": 78,
      "start": 23.3241,
      "duration": 0.283,
      "velocity": 87,
      "chip": "ym2612"
    },
    {
      "channel": 4,
      "note": 30,
      "start": 23.3259,
      "duration": 0.2646,
      "velocity": 28,
      "chip": "ym2612"
    },
    {
      "channel": 4,
      "note": 30,
      "start": 23.6075,
      "duration": 0.2832,
      "velocity": 28,
      "chip": "ym2612"
    },
    {
      "channel": 0,
      "note": 54,
      "start": 23.6235,
      "duration": 0.8499,
      "velocity": 108,
      "chip": "ym2612"
    },
    {
      "channel": 1,
      "note": 45,
      "start": 23.6237,
      "duration": 0.8498,
      "velocity": 108,
      "chip": "ym2612"
    },
    {
      "channel": 2,
      "note": 74,
      "start": 23.624,
      "duration": 0.5663,
      "velocity": 87,
      "chip": "ym2612"
    },
    {
      "channel": 4,
      "note": 30,
      "start": 23.9073,
      "duration": 0.2664,
      "velocity": 28,
      "chip": "ym2612"
    },
    {
      "channel": 4,
      "note": 30,
      "start": 24.1906,
      "duration": 0.2868,
      "velocity": 28,
      "chip": "ym2612"
    },
    {
      "channel": 2,
      "note": 71,
      "start": 24.2071,
      "duration": 0.2667,
      "velocity": 87,
      "chip": "ym2612"
    },
    {
      "channel": 0,
      "note": 50,
      "start": 24.4905,
      "duration": 0.8662,
      "velocity": 108,
      "chip": "ym2612"
    },
    {
      "channel": 1,
      "note": 47,
      "start": 24.4909,
      "duration": 0.8662,
      "velocity": 108,
      "chip": "ym2612"
    },
    {
      "channel": 2,
      "note": 71,
      "start": 24.491,
      "duration": 0.4159,
      "velocity": 87,
      "chip": "ym2612"
    },
    {
      "channel": 4,
      "note": 30,
      "start": 24.4943,
      "duration": 0.563,
      "velocity": 28,
      "chip": "ym2612"
    },
    {
      "channel": 2,
      "note": 71,
      "start": 24.9237,
      "duration": 0.1332,
      "velocity": 87,
      "chip": "ym2612"
    },
    {
      "channel": 2,
      "note": 72,
      "start": 25.0739,
      "duration": 0.2833,
      "velocity": 87,
      "chip": "ym2612"
    },
    {
      "channel": 4,
      "note": 30,
      "start": 25.0743,
      "duration": 0.2662,
      "velocity": 28,
      "chip": "ym2612"
    },
    {
      "channel": 4,
      "note": 30,
      "start": 25.3575,
      "duration": 0.5663,
      "velocity": 28,
      "chip": "ym2612"
    },
    {
      "channel": 0,
      "note": 50,
      "start": 25.3734,
      "duration": 0.85,
      "velocity": 108,
      "chip": "ym2612"
    },
    {
      "channel": 1,
      "note": 43,
      "start": 25.3737,
      "duration": 0.8499,
      "velocity": 108,
      "chip": "ym2612"
    },
    {
      "channel": 2,
      "note": 74,
      "start": 25.3739,
      "duration": 0.2663,
      "velocity": 87,
      "chip": "ym2612"
    },
    {
      "channel": 2,
      "note": 72,
      "start": 25.6572,
      "duration": 0.2832,
      "velocity": 87,
      "chip": "ym2612"
    },
    {
      "channel": 4,
      "note": 30,
      "start": 25.9407,
      "duration": 0.2834,
      "velocity": 28,
      "chip": "ym2612"
    },
    {
      "channel": 2,
      "note": 71,
      "start": 25.957,
      "duration": 0.2668,
      "velocity": 87,
      "chip": "ym2612"
    },
    {
      "channel": 0,
      "note": 52,
      "start": 26.2403,
      "duration": 0.5664,
      "velocity": 108,
      "chip": "ym2612"
    },
    {
      "channel": 1,
      "note": 48,
      "start": 26.2406,
      "duration": 0.5663,
      "velocity": 108,
      "chip": "ym2612"
    },
    {
      "channel": 2,
      "note": 69,
      "start": 26.2409,
      "duration": 0.2827,
      "velocity": 87,
      "chip": "ym2612"
    },
    {
      "channel": 4,
      "note": 30,
      "start": 26.2412,
      "duration": 0.5662,
      "velocity": 28,
      "chip": "ym2612"
    },
    {
      "channel": 2,
      "note": 71,
      "start": 26.5403,
      "duration": 0.2668,
      "velocity": 87,
      "chip": "ym2612"
    },
    {
      "channel": 0,
      "note": 51,
      "start": 26.8238,
      "duration": 0.2829,
      "velocity": 108,
      "chip": "ym2612"
    },
    {
      "channel": 1,
      "note": 47,
      "start": 26.8241,
      "duration": 0.2828,
      "velocity": 108,
      "chip": "ym2612"
    },
    {
      "channel": 2,
      "note": 66,
      "start": 26.8243,
      "duration": 0.2827,
      "velocity": 87,
      "chip": "ym2612"
    },
    {
      "channel": 4,
      "note": 30,
      "start": 26.8262,
      "duration": 0.2643,
      "velocity": 28,
      "chip": "ym2612"
    },
    {
      "channel": 4,
      "note": 30,
      "start": 27.1074,
      "duration": 0.2832,
      "velocity": 28,
      "chip": "ym2612"
    },
    {
      "channel": 0,
      "note": 52,
      "start": 27.1236,
      "duration": 0.8498,
      "velocity": 108,
      "chip": "ym2612"
    },
    {
      "channel": 1,
      "note": 48,
      "start": 27.1239,
      "duration": 0.8497,
      "velocity": 108,
      "chip": "ym2612"
    },
    {
      "channel": 2,
      "note": 64,
      "start": 27.1241,
      "duration": 0.8496,
      "velocity": 87,
      "chip": "ym2612"
    },
    {
      "channel": 4,
      "note": 30,
      "start": 27.4074,
      "duration": 0.2664,
      "velocity": 28,
      "chip": "ym2612"
    },
    {
      "channel": 4,
      "note": 30,
      "start": 27.6905,
      "duration": 0.2836,
      "velocity": 28,
      "chip": "ym2612"
    },
    {
      "channel": 0,
      "note": 54,
      "start": 27.9927,
      "duration": 0.0077,
      "velocity": 108,
      "chip": "ym2612"
    },
    {
      "channel": 1,
      "note": 47,
      "start": 27.9944,
      "duration": 0.006,
      "velocity": 108,
      "chip": "ym2612"
    },
    {
      "channel": 2,
      "note": 63,
      "start": 27.9961,
      "duration": 0.0043,
      "velocity": 87,
      "chip": "ym2612"
    },
    {
      "channel": 4,
      "note": 30,
      "start": 27.9993,
      "duration": 0.001,
      "velocity": 28,
      "chip": "ym2612"
    }
  ]
}