{
  "track_name": "08 - The Legend of Sword",
  "duration_sec": 109.966,
  "sample_rate": 44100,
  "note_count": 1124,
  "unique_pitches": 43,
  "pitch_range": 60,
  "avg_note_duration": 0.3662,
  "reconstruction_stats": {
    "notes_reconstructed": 1124,
    "keyon_events": 1124,
    "keyoff_events": 1120,
    "orphan_keyons": 4,
    "unique_pitches": 43,
    "pitch_range": 60,
    "avg_duration_sec": 0.3662
  },
  "metadata": {
    "source": "L\\Langrisser II\\08 - The Legend of Sword.vgz"
  },
  "notes": [
    {
      "channel": 0,
      "note": 86,
      "start": 0.026,
      "duration": 0.024,
      "velocity": 100,
      "chip": "ym2612"
    },
    {
      "channel": 1,
      "note": 83,
      "start": 0.0288,
      "duration": 0.0215,
      "velocity": 100,
      "chip": "ym2612"
    },
    {
      "channel": 2,
      "note": 78,
      "start": 0.0317,
      "duration": 0.0188,
      "velocity": 100,
      "chip": "ym2612"
    },
    {
      "channel": 3,
      "note": -1,
      "start": 0.0357,
      "duration": 0.0151,
      "velocity": 100,
      "chip": "ym2612"
    },
    {
      "channel": 0,
      "note": 74,
      "start": 0.053,
      "duration": 0.012,
      "velocity": 100,
      "chip": "ym2612"
    },
    {
      "channel": 1,
      "note": 71,
      "start": 0.0536,
      "duration": 0.0117,
      "velocity": 100,
      "chip": "ym2612"
    },
    {
      "channel": 2,
      "note": 66,
      "start": 0.0541,
      "duration": 0.0114,
      "velocity": 100,
      "chip": "ym2612"
    },
    {
      "channel": 3,
      "note": 78,
      "start": 0.0547,
      "duration": 0.0111,
      "velocity": 100,
      "chip": "ym2612"
    },
    {
      "channel": 4,
      "note": 80,
      "start": 0.0631,
      "duration": 0.0123,
      "velocity": 100,
      "chip": "ym2612"
    },
    {
      "channel": 0,
      "note": 78,
      "start": 0.0678,
      "duration": 0.012,
      "velocity": 100,
      "chip": "ym2612"
    },
    {
      "channel": 1,
      "note": 74,
      "start": 0.0687,
      "duration": 0.0115,
      "velocity": 100,
      "chip": "ym2612"
    },
    {
      "channel": 2,
      "note": 71,
      "start": 0.0692,
      "duration": 0.0112,
      "velocity": 100,
      "chip": "ym2612"
    },
    {
      "channel": 3,
      "note": 66,
      "start": 0.0698,
      "duration": 0.0109,
      "velocity": 100,
      "chip": "ym2612"
    },
    {
      "channel": 4,
      "note": 83,
      "start": 0.0782,
      "duration": 0.0117,
      "velocity": 100,
      "chip": "ym2612"
    },
    {
      "channel": 0,
      "note": 83,
      "start": 0.0827,
      "duration": 0.0118,
      "velocity": 100,
      "chip": "ym2612"
    },
    {
      "channel": 1,
      "note": 78,
      "start": 0.0833,
      "duration": 0.0116,
      "velocity": 100,
      "chip": "ym2612"
    },
    {
      "channel": 2,
      "note": 74,
      "start": 0.0838,
      "duration": 0.0113,
      "velocity": 100,
      "chip": "ym2612"
    },
    {
      "channel": 3,
      "note": 71,
      "start": 0.0844,
      "duration": 0.0111,
      "velocity": 100,
      "chip": "ym2612"
    },
    {
      "channel": 4,
      "note": 71,
      "start": 0.093,
      "duration": 0.0122,
      "velocity": 100,
      "chip": "ym2612"
    },
    {
      "channel": 0,
      "note": 86,
      "start": 0.0978,
      "duration": 0.009,
      "velocity": 100,
      "chip": "ym2612"
    },
    {
      "channel": 1,
      "note": 83,
      "start": 0.0984,
      "duration": 0.0087,
      "velocity": 100,
      "chip": "ym2612"
    },
    {
      "channel": 2,
      "note": 78,
      "start": 0.0989,
      "duration": 0.0084,
      "velocity": 100,
      "chip": "ym2612"
    },
    {
      "channel": 3,
      "note": 74,
      "start": 0.0995,
      "duration": 0.0081,
      "velocity": 100,
      "chip": "ym2612"
    },
    {
      "channel": 4,
      "note": 74,
      "start": 0.1083,
      "duration": 0.0119,
      "velocity": 100,
      "chip": "ym2612"
    },
    {
      "channel": 0,
      "note": 90,
      "start": 0.1102,
      "duration": 0.0115,
      "velocity": 100,
      "chip": "ym2612"
    },
    {
      "channel": 1,
      "note": 86,
      "start": 0.1107,
      "duration": 0.0113,
      "velocity": 100,
      "chip": "ym2612"
    },
    {
      "channel": 2,
      "note": 83,
      "start": 0.1112,
      "duration": 0.011,
      "velocity": 100,
      "chip": "ym2612"
    },
    {
      "channel": 3,
      "note": 78,
      "start": 0.1119,
      "duration": 0.0107,
      "velocity": 100,
      "chip": "ym2612"
    },
    {
      "channel": 4,
      "note": 78,
      "start": 0.1232,
      "duration": 0.01,
      "velocity": 100,
      "chip": "ym2612"
    },
    {
      "channel": 0,
      "note": 78,
      "start": 0.1255,
      "duration": 0.0128,
      "velocity": 100,
      "chip": "ym2612"
    },
    {
      "channel": 1,
      "note": 74,
      "start": 0.126,
      "duration": 0.0125,
      "velocity": 100,
      "chip": "ym2612"
    },
    {
      "channel": 2,
      "note": 71,
      "start": 0.1266,
      "duration": 0.0122,
      "velocity": 100,
      "chip": "ym2612"
    },
    {
      "channel": 3,
      "note": 83,
      "start": 0.1272,
      "duration": 0.0119,
      "velocity": 100,
      "chip": "ym2612"
    },
    {
      "channel": 4,
      "note": 83,
      "start": 0.1364,
      "duration": 0.0123,
      "velocity": 100,
      "chip": "ym2612"
    },
    {
      "channel": 0,
      "note": 83,
      "start": 0.1413,
      "duration": 0.012,
      "velocity": 100,
      "chip": "ym2612"
    },
    {
      "channel": 1,
      "note": 78,
      "start": 0.1419,
      "duration": 0.0117,
      "velocity": 100,
      "chip": "ym2612"
    },
    {
      "channel": 2,
      "note": 74,
      "start": 0.1424,
      "duration": 0.0115,
      "velocity": 100,
      "chip": "ym2612"
    },
    {
      "channel": 3,
      "note": 71,
      "start": 0.143,
      "duration": 0.0112,
      "velocity": 100,
      "chip": "ym2612"
    },
    {
      "channel": 4,
      "note": 86,
      "start": 0.1515,
      "duration": 0.0489,
      "velocity": 100,
      "chip": "ym2612"
    },
    {
      "channel": 0,
      "note": 86,
      "start": 0.1562,
      "duration": 0.0943,
      "velocity": 100,
      "chip": "ym2612"
    },
    {
      "channel": 1,
      "note": 83,
      "start": 0.1568,
      "duration": 0.0941,
      "velocity": 100,
      "chip": "ym2612"
    },
    {
      "channel": 2,
      "note": 78,
      "start": 0.1573,
      "duration": 0.0938,
      "velocity": 100,
      "chip": "ym2612"
    },
    {
      "channel": 3,
      "note": 74,
      "start": 0.158,
      "duration": 0.0934,
      "velocity": 100,
      "chip": "ym2612"
    },
    {
      "channel": 4,
      "note": 74,
      "start": 0.226,
      "duration": 0.1031,
      "velocity": 100,
      "chip": "ym2612"
    },
    {
      "channel": 0,
      "note": 90,
      "start": 0.2766,
      "duration": 0.0773,
      "velocity": 100,
      "chip": "ym2612"
    },
    {
      "channel": 1,
      "note": 86,
      "start": 0.2771,
      "duration": 0.077,
      "velocity": 100,
      "chip": "ym2612"
    },
    {
      "channel": 2,
      "note": 83,
      "start": 0.2776,
      "duration": 0.0768,
      "velocity": 100,
      "chip": "ym2612"
    },
    {
      "channel": 3,
      "note": 78,
      "start": 0.2783,
      "duration": 0.0764,
      "velocity": 100,
      "chip": "ym2612"
    },
    {
      "channel": 4,
      "note": 78,
      "start": 0.3553,
      "duration": 0.1029,
      "velocity": 100,
      "chip": "ym2612"
    },
    {
      "channel": 0,
      "note": 95,
      "start": 0.3799,
      "duration": 0.1031,
      "velocity": 100,
      "chip": "ym2612"
    },
    {
      "channel": 1,
      "note": 90,
      "start": 0.3805,
      "duration": 0.1029,
      "velocity": 100,
      "chip": "ym2612"
    },
    {
      "channel": 2,
      "note": 86,
      "start": 0.381,
      "duration": 0.103,
      "velocity": 100,
      "chip": "ym2612"
    },
    {
      "channel": 3,
      "note": 83,
      "start": 0.3816,
      "duration": 0.1027,
      "velocity": 100,
      "chip": "ym2612"
    },
    {
      "channel": 4,
      "note": 83,
      "start": 0.4849,
      "duration": 0.0767,
      "velocity": 100,
      "chip": "ym2612"
    },
    {
      "channel": 0,
      "note": 83,
      "start": 0.5091,
      "duration": 0.1031,
      "velocity": 100,
      "chip": "ym2612"
    },
    {
      "channel": 1,
      "note": 78,
      "start": 0.5096,
      "duration": 0.1029,
      "velocity": 100,
      "chip": "ym2612"
    },
    {
      "channel": 2,
      "note": 74,
      "start": 0.5102,
      "duration": 0.1026,
      "velocity": 100,
      "chip": "ym2612"
    },
    {
      "channel": 3,
      "note": 86,
      "start": 0.5108,
      "duration": 0.1023,
      "velocity": 100,
      "chip": "ym2612"
    },
    {
      "channel": 4,
      "note": 86,
      "start": 0.5877,
      "duration": 0.103,
      "velocity": 100,
      "chip": "ym2612"
    },
    {
      "channel": 0,
      "note": 86,
      "start": 0.6382,
      "duration": 0.1031,
      "velocity": 100,
      "chip": "ym2612"
    },
    {
      "channel": 1,
      "note": 83,
      "start": 0.6388,
      "duration": 0.1028,
      "velocity": 100,
      "chip": "ym2612"
    },
    {
      "channel": 2,
      "note": 78,
      "start": 0.6393,
      "duration": 0.1026,
      "velocity": 100,
      "chip": "ym2612"
    },
    {
      "channel": 3,
      "note": 74,
      "start": 0.6399,
      "duration": 0.1023,
      "velocity": 100,
      "chip": "ym2612"
    },
    {
      "channel": 4,
      "note": 90,
      "start": 0.7169,
      "duration": 0.103,
      "velocity": 100,
      "chip": "ym2612"
    },
    {
      "channel": 0,
      "note": 90,
      "start": 0.7678,
      "duration": 0.1028,
      "velocity": 100,
      "chip": "ym2612"
    },
    {
      "channel": 1,
      "note": 86,
      "start": 0.7683,
      "duration": 0.1025,
      "velocity": 100,
      "chip": "ym2612"
    },
    {
      "channel": 2,
      "note": 83,
      "start": 0.7688,
      "duration": 0.1022,
      "velocity": 100,
      "chip": "ym2612"
    },
    {
      "channel": 3,
      "note": 78,
      "start": 0.7695,
      "duration": 0.1019,
      "velocity": 100,
      "chip": "ym2612"
    },
    {
      "channel": 4,
      "note": 78,
      "start": 0.846,
      "duration": 0.103,
      "velocity": 100,
      "chip": "ym2612"
    },
    {
      "channel": 0,
      "note": 95,
      "start": 0.8966,
      "duration": 0.0773,
      "velocity": 100,
      "chip": "ym2612"
    },
    {
      "channel": 1,
      "note": 90,
      "start": 0.8971,
      "duration": 0.0771,
      "velocity": 100,
      "chip": "ym2612"
    },
    {
      "channel": 2,
      "note": 86,
      "start": 0.8976,
      "duration": 0.0768,
      "velocity": 100,
      "chip": "ym2612"
    },
    {
      "channel": 3,
      "note": 83,
      "start": 0.8983,
      "duration": 0.0765,
      "velocity": 100,
      "chip": "ym2612"
    },
    {
      "channel": 4,
      "note": 83,
      "start": 0.9754,
      "duration": 0.0355,
      "velocity": 100,
      "chip": "ym2612"
    },
    {
      "channel": 0,
      "note": 98,
      "start": 1.0,
      "duration": 0.0124,
      "velocity": 100,
      "chip": "ym2612"
    },
    {
      "channel": 1,
      "note": 95,
      "start": 1.0006,
      "duration": 0.0121,
      "velocity": 100,
      "chip": "ym2612"
    },
    {
      "channel": 2,
      "note": 90,
      "start": 1.0014,
      "duration": 0.0115,
      "velocity": 100,
      "chip": "ym2612"
    },
    {
      "channel": 3,
      "note": 86,
      "start": 1.002,
      "duration": 0.0112,
      "velocity": 100,
      "chip": "ym2612"
    },
    {
      "channel": 4,
      "note": 86,
      "start": 1.0139,
      "duration": 0.0098,
      "velocity": 100,
      "chip": "ym2612"
    },
    {
      "channel": 0,
      "note": 86,
      "start": 1.0166,
      "duration": 0.0127,
      "velocity": 100,
      "chip": "ym2612"
    },
    {
      "channel": 1,
      "note": 83,
      "start": 1.0171,
      "duration": 0.0124,
      "velocity": 100,
      "chip": "ym2612"
    },
    {
      "channel": 2,
      "note": 78,
      "start": 1.0177,
      "duration": 0.0122,
      "velocity": 100,
      "chip": "ym2612"
    },
    {
      "channel": 3,
      "note": 90,
      "start": 1.0183,
      "duration": 0.0119,
      "velocity": 100,
      "chip": "ym2612"
    },
    {
      "channel": 4,
      "note": 90,
      "start": 1.0268,
      "duration": 0.0135,
      "velocity": 100,
      "chip": "ym2612"
    },
    {
      "channel": 0,
      "note": 90,
      "start": 1.0325,
      "duration": 0.0132,
      "velocity": 100,
      "chip": "ym2612"
    },
    {
      "channel": 1,
      "note": 86,
      "start": 1.033,
      "duration": 0.0129,
      "velocity": 100,
      "chip": "ym2612"
    },
    {
      "channel": 2,
      "note": 83,
      "start": 1.0336,
      "duration": 0.0126,
      "velocity": 100,
      "chip": "ym2612"
    },
    {
      "channel": 3,
      "note": 78,
      "start": 1.0342,
      "duration": 0.0123,
      "velocity": 100,
      "chip": "ym2612"
    },
    {
      "channel": 4,
      "note": 95,
      "start": 1.0441,
      "duration": 0.0129,
      "velocity": 100,
      "chip": "ym2612"
    },
    {
      "channel": 0,
      "note": 95,
      "start": 1.0486,
      "duration": 0.0129,
      "velocity": 100,
      "chip": "ym2612"
    },
    {
      "channel": 1,
      "note": 90,
      "start": 1.0491,
      "duration": 0.0127,
      "velocity": 100,
      "chip": "ym2612"
    },
    {
      "channel": 2,
      "note": 86,
      "start": 1.0497,
      "duration": 0.0124,
      "velocity": 100,
      "chip": "ym2612"
    },
    {
      "channel": 3,
      "note": 83,
      "start": 1.0503,
      "duration": 0.0121,
      "velocity": 100,
      "chip": "ym2612"
    },
    {
      "channel": 4,
      "note": 83,
      "start": 1.0596,
      "duration": 0.0134,
      "velocity": 100,
      "chip": "ym2612"
    },
    {
      "channel": 0,
      "note": 98,
      "start": 1.0643,
      "duration": 0.0103,
      "velocity": 100,
      "chip": "ym2612"
    },
    {
      "channel": 1,
      "note": 95,
      "start": 1.0649,
      "duration": 0.0099,
      "velocity": 100,
      "chip": "ym2612"
    },
    {
      "channel": 2,
      "note": 90,
      "start": 1.0655,
      "duration": 0.0096,
      "velocity": 100,
      "chip": "ym2612"
    },
    {
      "channel": 3,
      "note": 86,
      "start": 1.0664,
      "duration": 0.009,
      "velocity": 100,
      "chip": "ym2612"
    },
    {
      "channel": 4,
      "note": 86,
      "start": 1.0761,
      "duration": 0.0121,
      "velocity": 100,
      "chip": "ym2612"
    },
    {
      "channel": 0,
      "note": 102,
      "start": 1.0778,
      "duration": 0.0147,
      "velocity": 100,
      "chip": "ym2612"
    },
    {
      "channel": 1,
      "note": 98,
      "start": 1.0784,
      "duration": 0.0144,
      "velocity": 100,
      "chip": "ym2612"
    },
    {
      "channel": 2,
      "note": 95,
      "start": 1.0789,
      "duration": 0.0141,
      "velocity": 100,
      "chip": "ym2612"
    },
    {
      "channel": 3,
      "note": 90,
      "start": 1.0795,
      "duration": 0.0138,
      "velocity": 100,
      "chip": "ym2612"
    },
    {
      "channel": 4,
      "note": 90,
      "start": 1.091,
      "duration": 0.0083,
      "velocity": 100,
      "chip": "ym2612"
    },
    {
      "channel": 4,
      "note": 95,
      "start": 1.1025,
      "duration": 0.0131,
      "velocity": 100,
      "chip": "ym2612"
    },
    {
      "channel": 0,
      "note": 47,
      "start": 1.1717,
      "duration": 0.2188,
      "velocity": 91,
      "chip": "ym2612"
    },
    {
      "channel": 2,
      "note": 59,
      "start": 1.1744,
      "duration": 0.2168,
      "velocity": 92,
      "chip": "ym2612"
    },
    {
      "channel": 3,
      "note": 95,
      "start": 1.1778,
      "duration": 0.2137,
      "velocity": 92,
      "chip": "ym2612"
    },
    {
      "channel": 0,
      "note": 47,
      "start": 1.6266,
      "duration": 0.2207,
      "velocity": 91,
      "chip": "ym2612"
    },
    {
      "channel": 2,
      "note": 59,
      "start": 1.6274,
      "duration": 0.2205,
      "velocity": 92,
      "chip": "ym2612"
    },
    {
      "channel": 3,
      "note": 66,
      "start": 1.6281,
      "duration": 0.2201,
      "velocity": 92,
      "chip": "ym2612"
    },
    {
      "channel": 0,
      "note": 47,
      "start": 2.0833,
      "duration": 0.2202,
      "velocity": 91,
      "chip": "ym2612"
    },
    {
      "channel": 1,
      "note": 66,
      "start": 2.0857,
      "duration": 0.4506,
      "velocity": 95,
      "chip": "ym2612"
    },
    {
      "channel": 2,
      "note": 59,
      "start": 2.0862,
      "duration": 0.2178,
      "velocity": 92,
      "chip": "ym2612"
    },
    {
      "channel": 3,
      "note": 66,
      "start": 2.0868,
      "duration": 0.2175,
      "velocity": 92,
      "chip": "ym2612"
    },
    {
      "channel": 4,
      "note": 98,
      "start": 2.153,
      "duration": 0.4273,
      "velocity": 95,
      "chip": "ym2612"
    },
    {
      "channel": 0,
      "note": 47,
      "start": 2.5392,
      "duration": 0.2209,
      "velocity": 91,
      "chip": "ym2612"
    },
    {
      "channel": 1,
      "note": 71,
      "start": 2.5399,
      "duration": 0.0148,
      "velocity": 95,
      "chip": "ym2612"
    },
    {
      "channel": 2,
      "note": 59,
      "start": 2.5407,
      "duration": 0.2199,
      "velocity": 92,
      "chip": "ym2612"
    },
    {
      "channel": 3,
      "note": 66,
      "start": 2.5413,
      "duration": 0.2196,
      "velocity": 92,
      "chip": "ym2612"
    },
    {
      "channel": 1,
      "note": 73,
      "start": 2.5576,
      "duration": 0.1252,
      "velocity": 95,
      "chip": "ym2612"
    },
    {
      "channel": 4,
      "note": 66,
      "start": 2.6066,
      "duration": 0.1288,
      "velocity": 95,
      "chip": "ym2612"
    },
    {
      "channel": 1,
      "note": 74,
      "start": 2.7089,
      "duration": 1.0419,
      "velocity": 95,
      "chip": "ym2612"
    },
    {
      "channel": 4,
      "note": 71,
      "start": 2.7615,
      "duration": 0.1288,
      "velocity": 95,
      "chip": "ym2612"
    },
    {
      "channel": 4,
      "note": 73,
      "start": 2.9164,
      "duration": 0.9987,
      "velocity": 95,
      "chip": "ym2612"
    },
    {
      "channel": 0,
      "note": 47,
      "start": 2.9957,
      "duration": 0.2212,
      "velocity": 91,
      "chip": "ym2612"
    },
    {
      "channel": 2,
      "note": 59,
      "start": 2.9965,
      "duration": 0.221,
      "velocity": 92,
      "chip": "ym2612"
    },
    {
      "channel": 3,
      "note": 66,
      "start": 2.9971,
      "duration": 0.2207,
      "velocity": 92,
      "chip": "ym2612"
    },
    {
      "channel": 0,
      "note": 47,
      "start": 3.4529,
      "duration": 0.2202,
      "velocity": 91,
      "chip": "ym2612"
    },
    {
      "channel": 2,
      "note": 59,
      "start": 3.4537,
      "duration": 0.2199,
      "velocity": 92,
      "chip": "ym2612"
    },
    {
      "channel": 3,
      "note": 66,
      "start": 3.4543,
      "duration": 0.2196,
      "velocity": 92,
      "chip": "ym2612"
    },
    {
      "channel": 0,
      "note": 47,
      "start": 3.9094,
      "duration": 0.4532,
      "velocity": 91,
      "chip": "ym2612"
    },
    {
      "channel": 1,
      "note": 71,
      "start": 3.91,
      "duration": 0.0152,
      "velocity": 95,
      "chip": "ym2612"
    },
    {
      "channel": 2,
      "note": 59,
      "start": 3.9106,
      "duration": 0.4527,
      "velocity": 92,
      "chip": "ym2612"
    },
    {
      "channel": 3,
      "note": 66,
      "start": 3.9113,
      "duration": 0.4523,
      "velocity": 92,
      "chip": "ym2612"
    },
    {
      "channel": 1,
      "note": 73,
      "start": 3.9283,
      "duration": 0.1246,
      "velocity": 95,
      "chip": "ym2612"
    },
    {
      "channel": 4,
      "note": 74,
      "start": 3.9765,
      "duration": 0.1289,
      "velocity": 95,
      "chip": "ym2612"
    },
    {
      "channel": 1,
      "note": 74,
      "start": 4.079,
      "duration": 0.1289,
      "velocity": 95,
      "chip": "ym2612"
    },
    {
      "channel": 4,
      "note": 71,
      "start": 4.1315,
      "duration": 0.1289,
      "velocity": 95,
      "chip": "ym2612"
    },
    {
      "channel": 1,
      "note": 78,
      "start": 4.2342,
      "duration": 0.1288,
      "velocity": 95,
      "chip": "ym2612"
    },
    {
      "channel": 4,
      "note": 73,
      "start": 4.2865,
      "duration": 0.0858,
      "velocity": 95,
      "chip": "ym2612"
    },
    {
      "channel": 0,
      "note": 47,
      "start": 4.3665,
      "duration": 0.2209,
      "velocity": 91,
      "chip": "ym2612"
    },
    {
      "channel": 1,
      "note": 83,
      "start": 4.3671,
      "duration": 0.0153,
      "velocity": 95,
      "chip": "ym2612"
    },
    {
      "channel": 2,
      "note": 62,
      "start": 4.3677,
      "duration": 0.2202,
      "velocity": 92,
      "chip": "ym2612"
    },
    {
      "channel": 3,
      "note": 55,
      "start": 4.3684,
      "duration": 0.2202,
      "velocity": 92,
      "chip": "ym2612"
    },
    {
      "channel": 4,
      "note": 74,
      "start": 4.3753,
      "duration": 0.0322,
      "velocity": 95,
      "chip": "ym2612"
    },
    {
      "channel": 1,
      "note": 85,
      "start": 4.385,
      "duration": 0.125,
      "velocity": 95,
      "chip": "ym2612"
    },
    {
      "channel": 4,
      "note": 78,
      "start": 4.4336,
      "duration": 0.1289,
      "velocity": 95,
      "chip": "ym2612"
    },
    {
      "channel": 1,
      "note": 86,
      "start": 4.5361,
      "duration": 1.1977,
      "velocity": 95,
      "chip": "ym2612"
    },
    {
      "channel": 4,
      "note": 83,
      "start": 4.5892,
      "duration": 0.1283,
      "velocity": 95,
      "chip": "ym2612"
    },
    {
      "channel": 4,
      "note": 85,
      "start": 4.7436,
      "duration": 1.0353,
      "velocity": 95,
      "chip": "ym2612"
    },
    {
      "channel": 0,
      "note": 47,
      "start": 4.8239,
      "duration": 0.2204,
      "velocity": 91,
      "chip": "ym2612"
    },
    {
      "channel": 2,
      "note": 59,
      "start": 4.8247,
      "duration": 0.2201,
      "velocity": 92,
      "chip": "ym2612"
    },
    {
      "channel": 3,
      "note": 54,
      "start": 4.8253,
      "duration": 0.2198,
      "velocity": 92,
      "chip": "ym2612"
    },
    {
      "channel": 0,
      "note": 47,
      "start": 5.2806,
      "duration": 0.2205,
      "velocity": 91,
      "chip": "ym2612"
    },
    {
      "channel": 2,
      "note": 59,
      "start": 5.2814,
      "duration": 0.2202,
      "velocity": 92,
      "chip": "ym2612"
    },
    {
      "channel": 3,
      "note": 66,
      "start": 5.282,
      "duration": 0.2199,
      "velocity": 92,
      "chip": "ym2612"
    },
    {
      "channel": 0,
      "note": 47,
      "start": 5.7377,
      "duration": 0.221,
      "velocity": 91,
      "chip": "ym2612"
    },
    {
      "channel": 2,
      "note": 59,
      "start": 5.7386,
      "duration": 0.2206,
      "velocity": 92,
      "chip": "ym2612"
    },
    {
      "channel": 3,
      "note": 66,
      "start": 5.7392,
      "duration": 0.2203,
      "velocity": 92,
      "chip": "ym2612"
    },
    {
      "channel": 1,
      "note": 88,
      "start": 5.7559,
      "duration": 0.1255,
      "velocity": 95,
      "chip": "ym2612"
    },
    {
      "channel": 1,
      "note": 86,
      "start": 5.9074,
      "duration": 0.129,
      "velocity": 95,
      "chip": "ym2612"
    },
    {
      "channel": 4,
      "note": 86,
      "start": 5.9601,
      "duration": 0.1288,
      "velocity": 95,
      "chip": "ym2612"
    },
    {
      "channel": 1,
      "note": 88,
      "start": 6.0624,
      "duration": 0.129,
      "velocity": 95,
      "chip": "ym2612"
    },
    {
      "channel": 4,
      "note": 88,
      "start": 6.1149,
      "duration": 0.0863,
      "velocity": 95,
      "chip": "ym2612"
    },
    {
      "channel": 0,
      "note": 47,
      "start": 6.1953,
      "duration": 0.2207,
      "velocity": 91,
      "chip": "ym2612"
    },
    {
      "channel": 1,
      "note": 85,
      "start": 6.1958,
      "duration": 0.6,
      "velocity": 95,
      "chip": "ym2612"
    },
    {
      "channel": 2,
      "note": 59,
      "start": 6.1965,
      "duration": 0.22,
      "velocity": 92,
      "chip": "ym2612"
    },
    {
      "channel": 3,
      "note": 66,
      "start": 6.1975,
      "duration": 0.2194,
      "velocity": 92,
      "chip": "ym2612"
    },
    {
      "channel": 4,
      "note": 86,
      "start": 6.2043,
      "duration": 0.032,
      "velocity": 95,
      "chip": "ym2612"
    },
    {
      "channel": 4,
      "note": 88,
      "start": 6.2623,
      "duration": 0.7409,
      "velocity": 95,
      "chip": "ym2612"
    },
    {
      "channel": 0,
      "note": 47,
      "start": 6.6526,
      "duration": 0.2205,
      "velocity": 91,
      "chip": "ym2612"
    },
    {
      "channel": 2,
      "note": 59,
      "start": 6.6534,
      "duration": 0.2202,
      "velocity": 92,
      "chip": "ym2612"
    },
    {
      "channel": 3,
      "note": 66,
      "start": 6.654,
      "duration": 0.2198,
      "velocity": 92,
      "chip": "ym2612"
    },
    {
      "channel": 1,
      "note": 83,
      "start": 6.8218,
      "duration": 0.129,
      "velocity": 95,
      "chip": "ym2612"
    },
    {
      "channel": 1,
      "note": 85,
      "start": 6.9768,
      "duration": 0.129,
      "velocity": 95,
      "chip": "ym2612"
    },
    {
      "channel": 4,
      "note": 85,
      "start": 7.0296,
      "duration": 0.0846,
      "velocity": 95,
      "chip": "ym2612"
    },
    {
      "channel": 0,
      "note": 47,
      "start": 7.1089,
      "duration": 0.221,
      "velocity": 91,
      "chip": "ym2612"
    },
    {
      "channel": 1,
      "note": 86,
      "start": 7.1095,
      "duration": 0.4532,
      "velocity": 95,
      "chip": "ym2612"
    },
    {
      "channel": 2,
      "note": 59,
      "start": 7.11,
      "duration": 0.2204,
      "velocity": 92,
      "chip": "ym2612"
    },
    {
      "channel": 3,
      "note": 66,
      "start": 7.1106,
      "duration": 0.2201,
      "velocity": 92,
      "chip": "ym2612"
    },
    {
      "channel": 4,
      "note": 83,
      "start": 7.1171,
      "duration": 0.0332,
      "velocity": 95,
      "chip": "ym2612"
    },
    {
      "channel": 4,
      "note": 85,
      "start": 7.1761,
      "duration": 0.4309,
      "velocity": 95,
      "chip": "ym2612"
    },
    {
      "channel": 0,
      "note": 47,
      "start": 7.5657,
      "duration": 0.2215,
      "velocity": 91,
      "chip": "ym2612"
    },
    {
      "channel": 1,
      "note": 79,
      "start": 7.5662,
      "duration": 0.4534,
      "velocity": 95,
      "chip": "ym2612"
    },
    {
      "channel": 2,
      "note": 59,
      "start": 7.5668,
      "duration": 0.2209,
      "velocity": 92,
      "chip": "ym2612"
    },
    {
      "channel": 3,
      "note": 66,
      "start": 7.5674,
      "duration": 0.2206,
      "velocity": 92,
      "chip": "ym2612"
    },
    {
      "channel": 4,
      "note": 86,
      "start": 7.6331,
      "duration": 0.4301,
      "velocity": 95,
      "chip": "ym2612"
    },
    {
      "channel": 0,
      "note": 47,
      "start": 8.0229,
      "duration": 0.22,
      "velocity": 91,
      "chip": "ym2612"
    },
    {
      "channel": 1,
      "note": 81,
      "start": 8.0234,
      "duration": 0.0389,
      "velocity": 95,
      "chip": "ym2612"
    },
    {
      "channel": 2,
      "note": 59,
      "start": 8.024,
      "duration": 0.2195,
      "velocity": 92,
      "chip": "ym2612"
    },
    {
      "channel": 3,
      "note": 67,
      "start": 8.0246,
      "duration": 0.2192,
      "velocity": 92,
      "chip": "ym2612"
    },
    {
      "channel": 1,
      "note": 79,
      "start": 8.0884,
      "duration": 0.1806,
      "velocity": 95,
      "chip": "ym2612"
    },
    {
      "channel": 4,
      "note": 79,
      "start": 8.0897,
      "duration": 0.1802,
      "velocity": 95,
      "chip": "ym2612"
    },
    {
      "channel": 1,
      "note": 78,
      "start": 8.2951,
      "duration": 0.8885,
      "velocity": 95,
      "chip": "ym2612"
    },
    {
      "channel": 4,
      "note": 81,
      "start": 8.2962,
      "duration": 0.1804,
      "velocity": 95,
      "chip": "ym2612"
    },
    {
      "channel": 0,
      "note": 47,
      "start": 8.4791,
      "duration": 0.2206,
      "velocity": 91,
      "chip": "ym2612"
    },
    {
      "channel": 2,
      "note": 59,
      "start": 8.4799,
      "duration": 0.2203,
      "velocity": 92,
      "chip": "ym2612"
    },
    {
      "channel": 3,
      "note": 66,
      "start": 8.4805,
      "duration": 0.22,
      "velocity": 92,
      "chip": "ym2612"
    },
    {
      "channel": 4,
      "note": 79,
      "start": 8.4812,
      "duration": 0.9571,
      "velocity": 95,
      "chip": "ym2612"
    },
    {
      "channel": 0,
      "note": 47,
      "start": 8.9361,
      "duration": 0.2211,
      "velocity": 91,
      "chip": "ym2612"
    },
    {
      "channel": 2,
      "note": 59,
      "start": 8.9369,
      "duration": 0.2209,
      "velocity": 92,
      "chip": "ym2612"
    },
    {
      "channel": 3,
      "note": 66,
      "start": 8.9375,
      "duration": 0.2206,
      "velocity": 92,
      "chip": "ym2612"
    },
    {
      "channel": 0,
      "note": 54,
      "start": 9.4159,
      "duration": 0.0148,
      "velocity": 91,
      "chip": "ym2612"
    },
    {
      "channel": 1,
      "note": 66,
      "start": 9.4168,
      "duration": 0.0667,
      "velocity": 95,
      "chip": "ym2612"
    },
    {
      "channel": 2,
      "note": 66,
      "start": 9.4174,
      "duration": 0.0138,
      "velocity": 92,
      "chip": "ym2612"
    },
    {
      "channel": 3,
      "note": 66,
      "start": 9.4181,
      "duration": 0.0134,
      "velocity": 92,
      "chip": "ym2612"
    },
    {
      "channel": 0,
      "note": 52,
      "start": 9.4336,
      "duration": 0.0144,
      "velocity": 91,
      "chip": "ym2612"
    },
    {
      "channel": 2,
      "note": 64,
      "start": 9.4344,
      "duration": 0.0144,
      "velocity": 92,
      "chip": "ym2612"
    },
    {
      "channel": 3,
      "note": 78,
      "start": 9.435,
      "duration": 0.0141,
      "velocity": 92,
      "chip": "ym2612"
    },
    {
      "channel": 4,
      "note": 78,
      "start": 9.4411,
      "duration": 0.0676,
      "velocity": 95,
      "chip": "ym2612"
    },
    {
      "channel": 0,
      "note": 50,
      "start": 9.4524,
      "duration": 0.0135,
      "velocity": 91,
      "chip": "ym2612"
    },
    {
      "channel": 2,
      "note": 62,
      "start": 9.4532,
      "duration": 0.0132,
      "velocity": 92,
      "chip": "ym2612"
    },
    {
      "channel": 3,
      "note": 76,
      "start": 9.4538,
      "duration": 0.0129,
      "velocity": 92,
      "chip": "ym2612"
    },
    {
      "channel": 0,
      "note": 49,
      "start": 9.4686,
      "duration": 0.0145,
      "velocity": 91,
      "chip": "ym2612"
    },
    {
      "channel": 2,
      "note": 61,
      "start": 9.4694,
      "duration": 0.0143,
      "velocity": 92,
      "chip": "ym2612"
    },
    {
      "channel": 3,
      "note": 74,
      "start": 9.47,
      "duration": 0.014,
      "velocity": 92,
      "chip": "ym2612"
    },
    {
      "channel": 0,
      "note": 47,
      "start": 9.4878,
      "duration": 0.0383,
      "velocity": 91,
      "chip": "ym2612"
    },
    {
      "channel": 1,
      "note": 71,
      "start": 9.4883,
      "duration": 0.0141,
      "velocity": 95,
      "chip": "ym2612"
    },
    {
      "channel": 2,
      "note": 59,
      "start": 9.4889,
      "duration": 0.0376,
      "velocity": 92,
      "chip": "ym2612"
    },
    {
      "channel": 3,
      "note": 73,
      "start": 9.4897,
      "duration": 0.0372,
      "velocity": 92,
      "chip": "ym2612"
    },
    {
      "channel": 1,
      "note": 73,
      "start": 9.5053,
      "duration": 0.0132,
      "velocity": 95,
      "chip": "ym2612"
    },
    {
      "channel": 4,
      "note": 66,
      "start": 9.5117,
      "duration": 0.0128,
      "velocity": 95,
      "chip": "ym2612"
    },
    {
      "channel": 1,
      "note": 74,
      "start": 9.5212,
      "duration": 0.8145,
      "velocity": 95,
      "chip": "ym2612"
    },
    {
      "channel": 4,
      "note": 71,
      "start": 9.5275,
      "duration": 0.0132,
      "velocity": 95,
      "chip": "ym2612"
    },
    {
      "channel": 4,
      "note": 73,
      "start": 9.5435,
      "duration": 0.9564,
      "velocity": 95,
      "chip": "ym2612"
    },
    {
      "channel": 0,
      "note": 47,
      "start": 9.5796,
      "duration": 0.2212,
      "velocity": 91,
      "chip": "ym2612"
    },
    {
      "channel": 2,
      "note": 59,
      "start": 9.5803,
      "duration": 0.221,
      "velocity": 92,
      "chip": "ym2612"
    },
    {
      "channel": 3,
      "note": 66,
      "start": 9.581,
      "duration": 0.2207,
      "velocity": 92,
      "chip": "ym2612"
    },
    {
      "channel": 0,
      "note": 47,
      "start": 10.0373,
      "duration": 0.2207,
      "velocity": 91,
      "chip": "ym2612"
    },
    {
      "channel": 2,
      "note": 59,
      "start": 10.0381,
      "duration": 0.2204,
      "velocity": 92,
      "chip": "ym2612"
    },
    {
      "channel": 3,
      "note": 66,
      "start": 10.0387,
      "duration": 0.2201,
      "velocity": 92,
      "chip": "ym2612"
    },
    {
      "channel": 0,
      "note": 47,
      "start": 10.4941,
      "duration": 0.4529,
      "velocity": 91,
      "chip": "ym2612"
    },
    {
      "channel": 1,
      "note": 71,
      "start": 10.4947,
      "duration": 0.0152,
      "velocity": 95,
      "chip": "ym2612"
    },
    {
      "channel": 2,
      "note": 59,
      "start": 10.4953,
      "duration": 0.4523,
      "velocity": 92,
      "chip": "ym2612"
    },
    {
      "channel": 3,
      "note": 66,
      "start": 10.496,
      "duration": 0.4519,
      "velocity": 92,
      "chip": "ym2612"
    },
    {
      "channel": 1,
      "note": 73,
      "start": 10.5126,
      "duration": 0.1247,
      "velocity": 95,
      "chip": "ym2612"
    },
    {
      "channel": 4,
      "note": 74,
      "start": 10.5612,
      "duration": 0.1285,
      "velocity": 95,
      "chip": "ym2612"
    },
    {
      "channel": 1,
      "note": 74,
      "start": 10.6633,
      "duration": 0.129,
      "velocity": 95,
      "chip": "ym2612"
    },
    {
      "channel": 4,
      "note": 71,
      "start": 10.7158,
      "duration": 0.1294,
      "velocity": 95,
      "chip": "ym2612"
    },
    {
      "channel": 1,
      "note": 78,
      "start": 10.8183,
      "duration": 0.129,
      "velocity": 95,
      "chip": "ym2612"
    },
    {
      "channel": 4,
      "note": 73,
      "start": 10.8708,
      "duration": 0.0858,
      "velocity": 95,
      "chip": "ym2612"
    },
    {
      "channel": 0,
      "note": 47,
      "start": 10.9504,
      "duration": 0.2213,
      "velocity": 91,
      "chip": "ym2612"
    },
    {
      "channel": 1,
      "note": 83,
      "start": 10.9509,
      "duration": 0.0159,
      "velocity": 95,
      "chip": "ym2612"
    },
    {
      "channel": 2,
      "note": 62,
      "start": 10.9515,
      "duration": 0.2207,
      "velocity": 92,
      "chip": "ym2612"
    },
    {
      "channel": 3,
      "note": 55,
      "start": 10.9522,
      "duration": 0.2203,
      "velocity": 92,
      "chip": "ym2612"
    },
    {
      "channel": 4,
      "note": 74,
      "start": 10.9594,
      "duration": 0.0326,
      "velocity": 95,
      "chip": "ym2612"
    },
    {
      "channel": 1,
      "note": 85,
      "start": 10.9697,
      "duration": 0.1248,
      "velocity": 95,
      "chip": "ym2612"
    },
    {
      "channel": 4,
      "note": 78,
      "start": 11.018,
      "duration": 0.1289,
      "velocity": 95,
      "chip": "ym2612"
    },
    {
      "channel": 1,
      "note": 86,
      "start": 11.1205,
      "duration": 1.1966,
      "velocity": 95,
      "chip": "ym2612"
    },
    {
      "channel": 4,
      "note": 83,
      "start": 11.1731,
      "duration": 0.1288,
      "velocity": 95,
      "chip": "ym2612"
    },
    {
      "channel": 4,
      "note": 85,
      "start": 11.328,
      "duration": 1.034,
      "velocity": 95,
      "chip": "ym2612"
    },
    {
      "channel": 0,
      "note": 47,
      "start": 11.4073,
      "duration": 0.2209,
      "velocity": 91,
      "chip": "ym2612"
    },
    {
      "channel": 2,
      "note": 59,
      "start": 11.4081,
      "duration": 0.2207,
      "velocity": 92,
      "chip": "ym2612"
    },
    {
      "channel": 3,
      "note": 54,
      "start": 11.4088,
      "duration": 0.2202,
      "velocity": 92,
      "chip": "ym2612"
    },
    {
      "channel": 0,
      "note": 47,
      "start": 11.8643,
      "duration": 0.2201,
      "velocity": 91,
      "chip": "ym2612"
    },
    {
      "channel": 2,
      "note": 59,
      "start": 11.8651,
      "duration": 0.2198,
      "velocity": 92,
      "chip": "ym2612"
    },
    {
      "channel": 3,
      "note": 66,
      "start": 11.8657,
      "duration": 0.2195,
      "velocity": 92,
      "chip": "ym2612"
    },
    {
      "channel": 0,
      "note": 47,
      "start": 12.3206,
      "duration": 0.2209,
      "velocity": 91,
      "chip": "ym2612"
    },
    {
      "channel": 2,
      "note": 59,
      "start": 12.3215,
      "duration": 0.2205,
      "velocity": 92,
      "chip": "ym2612"
    },
    {
      "channel": 3,
      "note": 66,
      "start": 12.3221,
      "duration": 0.2202,
      "velocity": 92,
      "chip": "ym2612"
    },
    {
      "channel": 1,
      "note": 88,
      "start": 12.3381,
      "duration": 0.1261,
      "velocity": 95,
      "chip": "ym2612"
    },
    {
      "channel": 1,
      "note": 86,
      "start": 12.4902,
      "duration": 0.129,
      "velocity": 95,
      "chip": "ym2612"
    },
    {
      "channel": 4,
      "note": 86,
      "start": 12.5429,
      "duration": 0.1288,
      "velocity": 95,
      "chip": "ym2612"
    },
    {
      "channel": 1,
      "note": 88,
      "start": 12.6456,
      "duration": 0.1286,
      "velocity": 95,
      "chip": "ym2612"
    },
    {
      "channel": 4,
      "note": 88,
      "start": 12.6977,
      "duration": 0.0854,
      "velocity": 95,
      "chip": "ym2612"
    },
    {
      "channel": 0,
      "note": 47,
      "start": 12.7778,
      "duration": 0.221,
      "velocity": 91,
      "chip": "ym2612"
    },
    {
      "channel": 1,
      "note": 85,
      "start": 12.7783,
      "duration": 0.6002,
      "velocity": 95,
      "chip": "ym2612"
    },
    {
      "channel": 2,
      "note": 59,
      "start": 12.7788,
      "duration": 0.2204,
      "velocity": 92,
      "chip": "ym2612"
    },
    {
      "channel": 3,
      "note": 66,
      "start": 12.7795,
      "duration": 0.2205,
      "velocity": 92,
      "chip": "ym2612"
    },
    {
      "channel": 4,
      "note": 86,
      "start": 12.786,
      "duration": 0.0329,
      "velocity": 95,
      "chip": "ym2612"
    },
    {
      "channel": 4,
      "note": 88,
      "start": 12.845,
      "duration": 0.7409,
      "velocity": 95,
      "chip": "ym2612"
    },
    {
      "channel": 0,
      "note": 47,
      "start": 13.2354,
      "duration": 0.2203,
      "velocity": 91,
      "chip": "ym2612"
    },
    {
      "channel": 2,
      "note": 59,
      "start": 13.2361,
      "duration": 0.22,
      "velocity": 92,
      "chip": "ym2612"
    },
    {
      "channel": 3,
      "note": 66,
      "start": 13.2368,
      "duration": 0.2197,
      "velocity": 92,
      "chip": "ym2612"
    },
    {
      "channel": 1,
      "note": 83,
      "start": 13.4048,
      "duration": 0.1286,
      "velocity": 95,
      "chip": "ym2612"
    },
    {
      "channel": 1,
      "note": 85,
      "start": 13.5594,
      "duration": 0.129,
      "velocity": 95,
      "chip": "ym2612"
    },
    {
      "channel": 4,
      "note": 85,
      "start": 13.612,
      "duration": 0.0857,
      "velocity": 95,
      "chip": "ym2612"
    },
    {
      "channel": 0,
      "note": 47,
      "start": 13.6923,
      "duration": 0.2204,
      "velocity": 91,
      "chip": "ym2612"
    },
    {
      "channel": 1,
      "note": 86,
      "start": 13.6929,
      "duration": 0.4527,
      "velocity": 95,
      "chip": "ym2612"
    },
    {
      "channel": 2,
      "note": 59,
      "start": 13.6934,
      "duration": 0.2198,
      "velocity": 92,
      "chip": "ym2612"
    },
    {
      "channel": 3,
      "note": 66,
      "start": 13.694,
      "duration": 0.2195,
      "velocity": 92,
      "chip": "ym2612"
    },
    {
      "channel": 4,
      "note": 83,
      "start": 13.7004,
      "duration": 0.0325,
      "velocity": 95,
      "chip": "ym2612"
    },
    {
      "channel": 4,
      "note": 85,
      "start": 13.7593,
      "duration": 0.431,
      "velocity": 95,
      "chip": "ym2612"
    },
    {
      "channel": 0,
      "note": 47,
      "start": 14.149,
      "duration": 0.0071,
      "velocity": 91,
      "chip": "ym2612"
    },
    {
      "channel": 1,
      "note": 79,
      "start": 14.1496,
      "duration": 0.4532,
      "velocity": 95,
      "chip": "ym2612"
    },
    {
      "channel": 2,
      "note": 59,
      "start": 14.1501,
      "duration": 0.2205,
      "velocity": 92,
      "chip": "ym2612"
    },
    {
      "channel": 3,
      "note": 66,
      "start": 14.1507,
      "duration": 0.2201,
      "velocity": 92,
      "chip": "ym2612"
    },
    {
      "channel": 4,
      "note": 86,
      "start": 14.2163,
      "duration": 0.4314,
      "velocity": 95,
      "chip": "ym2612"
    },
    {
      "channel": 0,
      "note": 49,
      "start": 14.3187,
      "duration": 0.0772,
      "velocity": 91,
      "chip": "ym2612"
    },
    {
      "channel": 0,
      "note": 50,
      "start": 14.3961,
      "duration": 0.0772,
      "velocity": 91,
      "chip": "ym2612"
    },
    {
      "channel": 0,
      "note": 52,
      "start": 14.4736,
      "duration": 0.0773,
      "velocity": 91,
      "chip": "ym2612"
    },
    {
      "channel": 0,
      "note": 54,
      "start": 14.5511,
      "duration": 0.0554,
      "velocity": 91,
      "chip": "ym2612"
    },
    {
      "channel": 0,
      "note": 55,
      "start": 14.6068,
      "duration": 0.2206,
      "velocity": 91,
      "chip": "ym2612"
    },
    {
      "channel": 1,
      "note": 81,
      "start": 14.6075,
      "duration": 0.0394,
      "velocity": 95,
      "chip": "ym2612"
    },
    {
      "channel": 2,
      "note": 62,
      "start": 14.6103,
      "duration": 0.7001,
      "velocity": 101,
      "chip": "ym2612"
    },
    {
      "channel": 1,
      "note": 79,
      "start": 14.6729,
      "duration": 0.1806,
      "velocity": 95,
      "chip": "ym2612"
    },
    {
      "channel": 4,
      "note": 79,
      "start": 14.674,
      "duration": 0.1803,
      "velocity": 95,
      "chip": "ym2612"
    },
    {
      "channel": 3,
      "note": 67,
      "start": 14.7797,
      "duration": 0.75,
      "velocity": 101,
      "chip": "ym2612"
    },
    {
      "channel": 1,
      "note": 78,
      "start": 14.8796,
      "duration": 0.4822,
      "velocity": 95,
      "chip": "ym2612"
    },
    {
      "channel": 4,
      "note": 81,
      "start": 14.8807,
      "duration": 0.1803,
      "velocity": 95,
      "chip": "ym2612"
    },
    {
      "channel": 0,
      "note": 55,
      "start": 15.0636,
      "duration": 0.2205,
      "velocity": 91,
      "chip": "ym2612"
    },
    {
      "channel": 4,
      "note": 79,
      "start": 15.065,
      "duration": 0.4598,
      "velocity": 95,
      "chip": "ym2612"
    },
    {
      "channel": 2,
      "note": 64,
      "start": 15.3364,
      "duration": 0.0256,
      "velocity": 101,
      "chip": "ym2612"
    },
    {
      "channel": 2,
      "note": 66,
      "start": 15.3883,
      "duration": 0.0254,
      "velocity": 101,
      "chip": "ym2612"
    },
    {
      "channel": 2,
      "note": 67,
      "start": 15.44,
      "duration": 0.0253,
      "velocity": 101,
      "chip": "ym2612"
    },
    {
      "channel": 2,
      "note": 69,
      "start": 15.4914,
      "duration": 0.0257,
      "velocity": 101,
      "chip": "ym2612"
    },
    {
      "channel": 0,
      "note": 55,
      "start": 15.5198,
      "duration": 0.221,
      "velocity": 91,
      "chip": "ym2612"
    },
    {
      "channel": 1,
      "note": 78,
      "start": 15.5203,
      "duration": 0.4532,
      "velocity": 95,
      "chip": "ym2612"
    },
    {
      "channel": 2,
      "note": 71,
      "start": 15.5208,
      "duration": 0.91,
      "velocity": 101,
      "chip": "ym2612"
    },
    {
      "channel": 3,
      "note": 62,
      "start": 15.5327,
      "duration": 0.0027,
      "velocity": 101,
      "chip": "ym2612"
    },
    {
      "channel": 3,
      "note": 64,
      "start": 15.5385,
      "duration": 0.0223,
      "velocity": 101,
      "chip": "ym2612"
    },
    {
      "channel": 3,
      "note": 66,
      "start": 15.5868,
      "duration": 0.0256,
      "velocity": 101,
      "chip": "ym2612"
    },
    {
      "channel": 4,
      "note": 78,
      "start": 15.5874,
      "duration": 0.4305,
      "velocity": 95,
      "chip": "ym2612"
    },
    {
      "channel": 3,
      "note": 67,
      "start": 15.6384,
      "duration": 0.0256,
      "velocity": 101,
      "chip": "ym2612"
    },
    {
      "channel": 3,
      "note": 69,
      "start": 15.6901,
      "duration": 0.7414,
      "velocity": 101,
      "chip": "ym2612"
    },
    {
      "channel": 0,
      "note": 55,
      "start": 15.9766,
      "duration": 0.2213,
      "velocity": 91,
      "chip": "ym2612"
    },
    {
      "channel": 1,
      "note": 90,
      "start": 15.9938,
      "duration": 0.1267,
      "velocity": 95,
      "chip": "ym2612"
    },
    {
      "channel": 1,
      "note": 88,
      "start": 16.1466,
      "duration": 0.1288,
      "velocity": 95,
      "chip": "ym2612"
    },
    {
      "channel": 4,
      "note": 78,
      "start": 16.1994,
      "duration": 0.1287,
      "velocity": 95,
      "chip": "ym2612"
    },
    {
      "channel": 1,
      "note": 86,
      "start": 16.3014,
      "duration": 0.1291,
      "velocity": 95,
      "chip": "ym2612"
    },
    {
      "channel": 4,
      "note": 90,
      "start": 16.354,
      "duration": 0.0856,
      "velocity": 95,
      "chip": "ym2612"
    },
    {
      "channel": 0,
      "note": 54,
      "start": 16.4342,
      "duration": 0.2202,
      "velocity": 91,
      "chip": "ym2612"
    },
    {
      "channel": 1,
      "note": 88,
      "start": 16.4347,
      "duration": 0.039,
      "velocity": 95,
      "chip": "ym2612"
    },
    {
      "channel": 2,
      "note": 69,
      "start": 16.4352,
      "duration": 0.9093,
      "velocity": 101,
      "chip": "ym2612"
    },
    {
      "channel": 3,
      "note": 71,
      "start": 16.4359,
      "duration": 0.909,
      "velocity": 101,
      "chip": "ym2612"
    },
    {
      "channel": 4,
      "note": 88,
      "start": 16.4425,
      "duration": 0.0321,
      "velocity": 95,
      "chip": "ym2612"
    },
    {
      "channel": 1,
      "note": 86,
      "start": 16.4998,
      "duration": 0.1807,
      "velocity": 95,
      "chip": "ym2612"
    },
    {
      "channel": 4,
      "note": 86,
      "start": 16.5011,
      "duration": 0.1802,
      "velocity": 95,
      "chip": "ym2612"
    },
    {
      "channel": 1,
      "note": 88,
      "start": 16.7065,
      "duration": 0.1807,
      "velocity": 95,
      "chip": "ym2612"
    },
    {
      "channel": 4,
      "note": 88,
      "start": 16.7076,
      "duration": 0.1804,
      "velocity": 95,
      "chip": "ym2612"
    },
    {
      "channel": 0,
      "note": 54,
      "start": 16.891,
      "duration": 0.2205,
      "velocity": 91,
      "chip": "ym2612"
    },
    {
      "channel": 1,
      "note": 85,
      "start": 16.8915,
      "duration": 0.9102,
      "velocity": 95,
      "chip": "ym2612"
    },
    {
      "channel": 4,
      "note": 86,
      "start": 16.8927,
      "duration": 0.039,
      "velocity": 95,
      "chip": "ym2612"
    },
    {
      "channel": 4,
      "note": 88,
      "start": 16.9581,
      "duration": 0.8884,
      "velocity": 95,
      "chip": "ym2612"
    },
    {
      "channel": 0,
      "note": 54,
      "start": 17.3478,
      "duration": 0.2212,
      "velocity": 91,
      "chip": "ym2612"
    },
    {
      "channel": 2,
      "note": 66,
      "start": 17.3486,
      "duration": 0.4972,
      "velocity": 101,
      "chip": "ym2612"
    },
    {
      "channel": 3,
      "note": 69,
      "start": 17.3492,
      "duration": 0.4969,
      "velocity": 101,
      "chip": "ym2612"
    },
    {
      "channel": 0,
      "note": 54,
      "start": 17.8057,
      "duration": 0.2204,
      "velocity": 91,
      "chip": "ym2612"
    },
    {
      "channel": 1,
      "note": 81,
      "start": 17.8066,
      "duration": 0.4522,
      "velocity": 95,
      "chip": "ym2612"
    },
    {
      "channel": 2,
      "note": 67,
      "start": 17.8718,
      "duration": 0.1806,
      "velocity": 101,
      "chip": "ym2612"
    },
    {
      "channel": 3,
      "note": 66,
      "start": 17.8724,
      "duration": 0.1803,
      "velocity": 101,
      "chip": "ym2612"
    },
    {
      "channel": 4,
      "note": 85,
      "start": 17.8731,
      "duration": 0.4305,
      "velocity": 95,
      "chip": "ym2612"
    },
    {
      "channel": 2,
      "note": 69,
      "start": 18.0784,
      "duration": 0.1807,
      "velocity": 101,
      "chip": "ym2612"
    },
    {
      "channel": 3,
      "note": 67,
      "start": 18.0791,
      "duration": 0.1804,
      "velocity": 101,
      "chip": "ym2612"
    },
    {
      "channel": 0,
      "note": 52,
      "start": 18.2623,
      "duration": 0.2206,
      "velocity": 91,
      "chip": "ym2612"
    },
    {
      "channel": 1,
      "note": 83,
      "start": 18.2629,
      "duration": 0.0139,
      "velocity": 95,
      "chip": "ym2612"
    },
    {
      "channel": 2,
      "note": 71,
      "start": 18.2634,
      "duration": 1.8237,
      "velocity": 101,
      "chip": "ym2612"
    },
    {
      "channel": 3,
      "note": 69,
      "start": 18.264,
      "duration": 1.8235,
      "velocity": 101,
      "chip": "ym2612"
    },
    {
      "channel": 1,
      "note": 85,
      "start": 18.2797,
      "duration": 0.126,
      "velocity": 95,
      "chip": "ym2612"
    },
    {
      "channel": 4,
      "note": 81,
      "start": 18.3292,
      "duration": 0.1289,
      "velocity": 95,
      "chip": "ym2612"
    },
    {
      "channel": 1,
      "note": 86,
      "start": 18.4317,
      "duration": 0.129,
      "velocity": 95,
      "chip": "ym2612"
    },
    {
      "channel": 4,
      "note": 83,
      "start": 18.4843,
      "duration": 0.1289,
      "velocity": 95,
      "chip": "ym2612"
    },
    {
      "channel": 1,
      "note": 90,
      "start": 18.5868,
      "duration": 0.1289,
      "velocity": 95,
      "chip": "ym2612"
    },
    {
      "channel": 4,
      "note": 85,
      "start": 18.6392,
      "duration": 0.0848,
      "velocity": 95,
      "chip": "ym2612"
    },
    {
      "channel": 0,
      "note": 52,
      "start": 18.7192,
      "duration": 0.2213,
      "velocity": 91,
      "chip": "ym2612"
    },
    {
      "channel": 1,
      "note": 98,
      "start": 18.7198,
      "duration": 1.8689,
      "velocity": 95,
      "chip": "ym2612"
    },
    {
      "channel": 4,
      "note": 86,
      "start": 18.727,
      "duration": 0.0337,
      "velocity": 95,
      "chip": "ym2612"
    },
    {
      "channel": 4,
      "note": 90,
      "start": 18.7868,
      "duration": 1.3451,
      "velocity": 95,
      "chip": "ym2612"
    },
    {
      "channel": 0,
      "note": 52,
      "start": 19.1767,
      "duration": 0.2207,
      "velocity": 91,
      "chip": "ym2612"
    },
    {
      "channel": 0,
      "note": 52,
      "start": 19.634,
      "duration": 0.2202,
      "velocity": 91,
      "chip": "ym2612"
    },
    {
      "channel": 0,
      "note": 54,
      "start": 20.0908,
      "duration": 0.221,
      "velocity": 91,
      "chip": "ym2612"
    },
    {
      "channel": 2,
      "note": 71,
      "start": 20.092,
      "duration": 0.4971,
      "velocity": 101,
      "chip": "ym2612"
    },
    {
      "channel": 3,
      "note": 71,
      "start": 20.0926,
      "duration": 0.4968,
      "velocity": 101,
      "chip": "ym2612"
    },
    {
      "channel": 4,
      "note": 98,
      "start": 20.158,
      "duration": 0.6383,
      "velocity": 95,
      "chip": "ym2612"
    },
    {
      "channel": 0,
      "note": 54,
      "start": 20.5484,
      "duration": 0.2209,
      "velocity": 91,
      "chip": "ym2612"
    },
    {
      "channel": 1,
      "note": 97,
      "start": 20.6147,
      "duration": 0.1806,
      "velocity": 95,
      "chip": "ym2612"
    },
    {
      "channel": 2,
      "note": 70,
      "start": 20.6153,
      "duration": 0.1803,
      "velocity": 101,
      "chip": "ym2612"
    },
    {
      "channel": 3,
      "note": 71,
      "start": 20.6159,
      "duration": 0.18,
      "velocity": 101,
      "chip": "ym2612"
    },
    {
      "channel": 1,
      "note": 98,
      "start": 20.8214,
      "duration": 0.1807,
      "velocity": 95,
      "chip": "ym2612"
    },
    {
      "channel": 2,
      "note": 71,
      "start": 20.8219,
      "duration": 0.1804,
      "velocity": 101,
      "chip": "ym2612"
    },
    {
      "channel": 3,
      "note": 70,
      "start": 20.8226,
      "duration": 0.1801,
      "velocity": 101,
      "chip": "ym2612"
    },
    {
      "channel": 4,
      "note": 98,
      "start": 20.8232,
      "duration": 0.1798,
      "velocity": 95,
      "chip": "ym2612"
    },
    {
      "channel": 0,
      "note": 54,
      "start": 21.0062,
      "duration": 0.2201,
      "velocity": 91,
      "chip": "ym2612"
    },
    {
      "channel": 1,
      "note": 97,
      "start": 21.0067,
      "duration": 0.9095,
      "velocity": 95,
      "chip": "ym2612"
    },
    {
      "channel": 2,
      "note": 70,
      "start": 21.0073,
      "duration": 0.9093,
      "velocity": 101,
      "chip": "ym2612"
    },
    {
      "channel": 3,
      "note": 71,
      "start": 21.0079,
      "duration": 0.909,
      "velocity": 101,
      "chip": "ym2612"
    },
    {
      "channel": 4,
      "note": 97,
      "start": 21.0086,
      "duration": 0.038,
      "velocity": 95,
      "chip": "ym2612"
    },
    {
      "channel": 4,
      "note": 98,
      "start": 21.0726,
      "duration": 0.8705,
      "velocity": 95,
      "chip": "ym2612"
    },
    {
      "channel": 0,
      "note": 42,
      "start": 21.4627,
      "duration": 0.4533,
      "velocity": 91,
      "chip": "ym2612"
    },
    {
      "channel": 0,
      "note": 47,
      "start": 21.9197,
      "duration": 0.0405,
      "velocity": 91,
      "chip": "ym2612"
    },
    {
      "channel": 1,
      "note": 95,
      "start": 21.9202,
      "duration": 0.088,
      "velocity": 95,
      "chip": "ym2612"
    },
    {
      "channel": 2,
      "note": 59,
      "start": 21.9226,
      "duration": 0.0383,
      "velocity": 92,
      "chip": "ym2612"
    },
    {
      "channel": 3,
      "note": 70,
      "start": 21.9235,
      "duration": 0.0378,
      "velocity": 101,
      "chip": "ym2612"
    },
    {
      "channel": 4,
      "note": 97,
      "start": 21.9459,
      "duration": 0.1065,
      "velocity": 95,
      "chip": "ym2612"
    },
    {
      "channel": 0,
      "note": 47,
      "start": 22.0118,
      "duration": 0.2203,
      "velocity": 91,
      "chip": "ym2612"
    },
    {
      "channel": 2,
      "note": 59,
      "start": 22.0127,
      "duration": 0.22,
      "velocity": 92,
      "chip": "ym2612"
    },
    {
      "channel": 3,
      "note": 86,
      "start": 22.0158,
      "duration": 0.2171,
      "velocity": 92,
      "chip": "ym2612"
    },
    {
      "channel": 0,
      "note": 47,
      "start": 22.4688,
      "duration": 0.2205,
      "velocity": 91,
      "chip": "ym2612"
    },
    {
      "channel": 2,
      "note": 59,
      "start": 22.4695,
      "duration": 0.2203,
      "velocity": 92,
      "chip": "ym2612"
    },
    {
      "channel": 3,
      "note": 66,
      "start": 22.4702,
      "duration": 0.22,
      "velocity": 92,
      "chip": "ym2612"
    },
    {
      "channel": 0,
      "note": 47,
      "start": 22.9258,
      "duration": 0.4536,
      "velocity": 91,
      "chip": "ym2612"
    },
    {
      "channel": 1,
      "note": 73,
      "start": 22.9263,
      "duration": 0.4534,
      "velocity": 95,
      "chip": "ym2612"
    },
    {
      "channel": 2,
      "note": 59,
      "start": 22.9269,
      "duration": 0.453,
      "velocity": 92,
      "chip": "ym2612"
    },
    {
      "channel": 3,
      "note": 66,
      "start": 22.9276,
      "duration": 0.4527,
      "velocity": 92,
      "chip": "ym2612"
    },
    {
      "channel": 4,
      "note": 95,
      "start": 22.9931,
      "duration": 0.4115,
      "velocity": 95,
      "chip": "ym2612"
    },
    {
      "channel": 0,
      "note": 47,
      "start": 23.3836,
      "duration": 0.0387,
      "velocity": 91,
      "chip": "ym2612"
    },
    {
      "channel": 1,
      "note": 71,
      "start": 23.3842,
      "duration": 0.0884,
      "velocity": 95,
      "chip": "ym2612"
    },
    {
      "channel": 2,
      "note": 59,
      "start": 23.3851,
      "duration": 0.0376,
      "velocity": 92,
      "chip": "ym2612"
    },
    {
      "channel": 3,
      "note": 55,
      "start": 23.3859,
      "duration": 0.0372,
      "velocity": 92,
      "chip": "ym2612"
    },
    {
      "channel": 4,
      "note": 73,
      "start": 23.4075,
      "duration": 0.7204,
      "velocity": 95,
      "chip": "ym2612"
    },
    {
      "channel": 0,
      "note": 47,
      "start": 23.4757,
      "duration": 0.2205,
      "velocity": 91,
      "chip": "ym2612"
    },
    {
      "channel": 2,
      "note": 59,
      "start": 23.4766,
      "duration": 0.2202,
      "velocity": 92,
      "chip": "ym2612"
    },
    {
      "channel": 0,
      "note": 54,
      "start": 23.9548,
      "duration": 0.0177,
      "velocity": 91,
      "chip": "ym2612"
    },
    {
      "channel": 2,
      "note": 66,
      "start": 23.9557,
      "duration": 0.0173,
      "velocity": 92,
      "chip": "ym2612"
    },
    {
      "channel": 3,
      "note": 54,
      "start": 23.959,
      "duration": 0.0147,
      "velocity": 62,
      "chip": "ym2612"
    },
    {
      "channel": 0,
      "note": 52,
      "start": 23.9763,
      "duration": 0.0156,
      "velocity": 91,
      "chip": "ym2612"
    },
    {
      "channel": 2,
      "note": 64,
      "start": 23.9771,
      "duration": 0.0154,
      "velocity": 92,
      "chip": "ym2612"
    },
    {
      "channel": 3,
      "note": 66,
      "start": 23.9777,
      "duration": 0.0151,
      "velocity": 62,
      "chip": "ym2612"
    },
    {
      "channel": 0,
      "note": 50,
      "start": 23.9957,
      "duration": 0.0161,
      "velocity": 91,
      "chip": "ym2612"
    },
    {
      "channel": 2,
      "note": 62,
      "start": 23.9965,
      "duration": 0.0158,
      "velocity": 92,
      "chip": "ym2612"
    },
    {
      "channel": 3,
      "note": 64,
      "start": 23.9971,
      "duration": 0.0155,
      "velocity": 62,
      "chip": "ym2612"
    },
    {
      "channel": 0,
      "note": 52,
      "start": 24.0147,
      "duration": 0.0141,
      "velocity": 91,
      "chip": "ym2612"
    },
    {
      "channel": 2,
      "note": 64,
      "start": 24.0155,
      "duration": 0.0139,
      "velocity": 92,
      "chip": "ym2612"
    },
    {
      "channel": 3,
      "note": 62,
      "start": 24.0161,
      "duration": 0.0136,
      "velocity": 62,
      "chip": "ym2612"
    },
    {
      "channel": 0,
      "note": 50,
      "start": 24.0325,
      "duration": 0.0159,
      "velocity": 91,
      "chip": "ym2612"
    },
    {
      "channel": 2,
      "note": 62,
      "start": 24.0333,
      "duration": 0.0157,
      "velocity": 92,
      "chip": "ym2612"
    },
    {
      "channel": 3,
      "note": 64,
      "start": 24.0339,
      "duration": 0.0154,
      "velocity": 62,
      "chip": "ym2612"
    },
    {
      "channel": 0,
      "note": 49,
      "start": 24.0515,
      "duration": 0.0142,
      "velocity": 91,
      "chip": "ym2612"
    },
    {
      "channel": 2,
      "note": 61,
      "start": 24.0523,
      "duration": 0.0139,
      "velocity": 92,
      "chip": "ym2612"
    },
    {
      "channel": 3,
      "note": 62,
      "start": 24.0529,
      "duration": 0.0136,
      "velocity": 62,
      "chip": "ym2612"
    },
    {
      "channel": 0,
      "note": 46,
      "start": 24.0695,
      "duration": 0.0323,
      "velocity": 91,
      "chip": "ym2612"
    },
    {
      "channel": 2,
      "note": 58,
      "start": 24.0703,
      "duration": 0.032,
      "velocity": 92,
      "chip": "ym2612"
    },
    {
      "channel": 3,
      "note": 61,
      "start": 24.0712,
      "duration": 0.0318,
      "velocity": 62,
      "chip": "ym2612"
    },
    {
      "channel": 0,
      "note": 47,
      "start": 24.1051,
      "duration": 0.4351,
      "velocity": 91,
      "chip": "ym2612"
    },
    {
      "channel": 1,
      "note": 71,
      "start": 24.1058,
      "duration": 0.0146,
      "velocity": 95,
      "chip": "ym2612"
    },
    {
      "channel": 2,
      "note": 59,
      "start": 24.1065,
      "duration": 0.2016,
      "velocity": 92,
      "chip": "ym2612"
    },
    {
      "channel": 3,
      "note": 58,
      "start": 24.1072,
      "duration": 0.4338,
      "velocity": 62,
      "chip": "ym2612"
    },
    {
      "channel": 1,
      "note": 73,
      "start": 24.1232,
      "duration": 0.1072,
      "velocity": 95,
      "chip": "ym2612"
    },
    {
      "channel": 4,
      "note": 71,
      "start": 24.1542,
      "duration": 0.1286,
      "velocity": 95,
      "chip": "ym2612"
    },
    {
      "channel": 1,
      "note": 74,
      "start": 24.2565,
      "duration": 0.9573,
      "velocity": 95,
      "chip": "ym2612"
    },
    {
      "channel": 4,
      "note": 71,
      "start": 24.309,
      "duration": 0.129,
      "velocity": 95,
      "chip": "ym2612"
    },
    {
      "channel": 4,
      "note": 73,
      "start": 24.4639,
      "duration": 0.9373,
      "velocity": 95,
      "chip": "ym2612"
    },
    {
      "channel": 0,
      "note": 47,
      "start": 24.5662,
      "duration": 0.0151,
      "velocity": 91,
      "chip": "ym2612"
    },
    {
      "channel": 2,
      "note": 59,
      "start": 24.567,
      "duration": 0.1066,
      "velocity": 92,
      "chip": "ym2612"
    },
    {
      "channel": 0,
      "note": 59,
      "start": 24.5841,
      "duration": 0.0132,
      "velocity": 91,
      "chip": "ym2612"
    },
    {
      "channel": 0,
      "note": 57,
      "start": 24.6216,
      "duration": 0.129,
      "velocity": 91,
      "chip": "ym2612"
    },
    {
      "channel": 0,
      "note": 59,
      "start": 24.7766,
      "duration": 0.129,
      "velocity": 91,
      "chip": "ym2612"
    },
    {
      "channel": 0,
      "note": 47,
      "start": 24.9316,
      "duration": 0.0162,
      "velocity": 91,
      "chip": "ym2612"
    },
    {
      "channel": 2,
      "note": 59,
      "start": 24.9324,
      "duration": 0.2041,
      "velocity": 92,
      "chip": "ym2612"
    },
    {
      "channel": 3,
      "note": 59,
      "start": 24.933,
      "duration": 0.0156,
      "velocity": 62,
      "chip": "ym2612"
    },
    {
      "channel": 0,
      "note": 62,
      "start": 24.9507,
      "duration": 0.1078,
      "velocity": 91,
      "chip": "ym2612"
    },
    {
      "channel": 3,
      "note": 59,
      "start": 24.9518,
      "duration": 0.1075,
      "velocity": 62,
      "chip": "ym2612"
    },
    {
      "channel": 0,
      "note": 52,
      "start": 25.0846,
      "duration": 0.1289,
      "velocity": 91,
      "chip": "ym2612"
    },
    {
      "channel": 3,
      "note": 61,
      "start": 25.0857,
      "duration": 0.3445,
      "velocity": 62,
      "chip": "ym2612"
    },
    {
      "channel": 0,
      "note": 55,
      "start": 25.2396,
      "duration": 0.129,
      "velocity": 91,
      "chip": "ym2612"
    },
    {
      "channel": 0,
      "note": 54,
      "start": 25.3947,
      "duration": 0.0343,
      "velocity": 91,
      "chip": "ym2612"
    },
    {
      "channel": 1,
      "note": 71,
      "start": 25.3956,
      "duration": 0.0154,
      "velocity": 95,
      "chip": "ym2612"
    },
    {
      "channel": 2,
      "note": 59,
      "start": 25.3962,
      "duration": 0.0719,
      "velocity": 92,
      "chip": "ym2612"
    },
    {
      "channel": 1,
      "note": 73,
      "start": 25.4136,
      "duration": 0.0157,
      "velocity": 95,
      "chip": "ym2612"
    },
    {
      "channel": 4,
      "note": 74,
      "start": 25.4213,
      "duration": 0.0171,
      "velocity": 95,
      "chip": "ym2612"
    },
    {
      "channel": 0,
      "note": 42,
      "start": 25.4333,
      "duration": 0.0343,
      "velocity": 91,
      "chip": "ym2612"
    },
    {
      "channel": 1,
      "note": 74,
      "start": 25.4338,
      "duration": 0.0144,
      "velocity": 95,
      "chip": "ym2612"
    },
    {
      "channel": 3,
      "note": 62,
      "start": 25.4347,
      "duration": 0.0141,
      "velocity": 62,
      "chip": "ym2612"
    },
    {
      "channel": 4,
      "note": 71,
      "start": 25.4411,
      "duration": 0.014,
      "velocity": 95,
      "chip": "ym2612"
    },
    {
      "channel": 1,
      "note": 78,
      "start": 25.4511,
      "duration": 0.0168,
      "velocity": 95,
      "chip": "ym2612"
    },
    {
      "channel": 3,
      "note": 59,
      "start": 25.4519,
      "duration": 0.0166,
      "velocity": 62,
      "chip": "ym2612"
    },
    {
      "channel": 4,
      "note": 73,
      "start": 25.4598,
      "duration": 0.0185,
      "velocity": 95,
      "chip": "ym2612"
    },
    {
      "channel": 0,
      "note": 47,
      "start": 25.4714,
      "duration": 0.0456,
      "velocity": 91,
      "chip": "ym2612"
    },
    {
      "channel": 1,
      "note": 83,
      "start": 25.4719,
      "duration": 0.0159,
      "velocity": 95,
      "chip": "ym2612"
    },
    {
      "channel": 2,
      "note": 62,
      "start": 25.4725,
      "duration": 0.0449,
      "velocity": 92,
      "chip": "ym2612"
    },
    {
      "channel": 3,
      "note": 61,
      "start": 25.4732,
      "duration": 0.0151,
      "velocity": 62,
      "chip": "ym2612"
    },
    {
      "channel": 4,
      "note": 74,
      "start": 25.4811,
      "duration": 0.0152,
      "velocity": 95,
      "chip": "ym2612"
    },
    {
      "channel": 1,
      "note": 85,
      "start": 25.4909,
      "duration": 0.0156,
      "velocity": 95,
      "chip": "ym2612"
    },
    {
      "channel": 3,
      "note": 62,
      "start": 25.4917,
      "duration": 0.0153,
      "velocity": 62,
      "chip": "ym2612"
    },
    {
      "channel": 4,
      "note": 78,
      "start": 25.4992,
      "duration": 0.0163,
      "velocity": 95,
      "chip": "ym2612"
    },
    {
      "channel": 1,
      "note": 86,
      "start": 25.51,
      "duration": 0.837,
      "velocity": 95,
      "chip": "ym2612"
    },
    {
      "channel": 3,
      "note": 66,
      "start": 25.5108,
      "duration": 1.2018,
      "velocity": 62,
      "chip": "ym2612"
    },
    {
      "channel": 4,
      "note": 83,
      "start": 25.5183,
      "duration": 0.0144,
      "velocity": 95,
      "chip": "ym2612"
    },
    {
      "channel": 4,
      "note": 85,
      "start": 25.5356,
      "duration": 0.8588,
      "velocity": 95,
      "chip": "ym2612"
    },
    {
      "channel": 0,
      "note": 47,
      "start": 25.5457,
      "duration": 0.1057,
      "velocity": 91,
      "chip": "ym2612"
    },
    {
      "channel": 2,
      "note": 59,
      "start": 25.5465,
      "duration": 0.1056,
      "velocity": 92,
      "chip": "ym2612"
    },
    {
      "channel": 0,
      "note": 47,
      "start": 25.91,
      "duration": 0.2039,
      "velocity": 91,
      "chip": "ym2612"
    },
    {
      "channel": 2,
      "note": 59,
      "start": 25.9108,
      "duration": 0.2036,
      "velocity": 92,
      "chip": "ym2612"
    },
    {
      "channel": 0,
      "note": 47,
      "start": 26.3724,
      "duration": 0.1069,
      "velocity": 91,
      "chip": "ym2612"
    },
    {
      "channel": 2,
      "note": 59,
      "start": 26.3732,
      "duration": 0.1066,
      "velocity": 92,
      "chip": "ym2612"
    },
    {
      "channel": 1,
      "note": 88,
      "start": 26.3905,
      "duration": 0.0142,
      "velocity": 95,
      "chip": "ym2612"
    },
    {
      "channel": 1,
      "note": 86,
      "start": 26.4281,
      "duration": 0.129,
      "velocity": 95,
      "chip": "ym2612"
    },
    {
      "channel": 4,
      "note": 86,
      "start": 26.4807,
      "duration": 0.1291,
      "velocity": 95,
      "chip": "ym2612"
    },
    {
      "channel": 1,
      "note": 88,
      "start": 26.5831,
      "duration": 0.129,
      "velocity": 95,
      "chip": "ym2612"
    },
    {
      "channel": 4,
      "note": 88,
      "start": 26.6356,
      "duration": 0.1092,
      "velocity": 95,
      "chip": "ym2612"
    },
    {
      "channel": 0,
      "note": 47,
      "start": 26.7378,
      "duration": 0.2046,
      "velocity": 91,
      "chip": "ym2612"
    },
    {
      "channel": 1,
      "note": 85,
      "start": 26.7384,
      "duration": 0.4943,
      "velocity": 95,
      "chip": "ym2612"
    },
    {
      "channel": 2,
      "note": 59,
      "start": 26.7389,
      "duration": 0.204,
      "velocity": 92,
      "chip": "ym2612"
    },
    {
      "channel": 3,
      "note": 71,
      "start": 26.7395,
      "duration": 0.0158,
      "velocity": 62,
      "chip": "ym2612"
    },
    {
      "channel": 4,
      "note": 86,
      "start": 26.7475,
      "duration": 0.0151,
      "velocity": 95,
      "chip": "ym2612"
    },
    {
      "channel": 3,
      "note": 73,
      "start": 26.7583,
      "duration": 0.1073,
      "velocity": 62,
      "chip": "ym2612"
    },
    {
      "channel": 4,
      "note": 88,
      "start": 26.7887,
      "duration": 0.6495,
      "velocity": 95,
      "chip": "ym2612"
    },
    {
      "channel": 3,
      "note": 71,
      "start": 26.8917,
      "duration": 1.1588,
      "velocity": 62,
      "chip": "ym2612"
    },
    {
      "channel": 0,
      "note": 47,
      "start": 27.201,
      "duration": 0.1071,
      "velocity": 91,
      "chip": "ym2612"
    },
    {
      "channel": 2,
      "note": 59,
      "start": 27.2018,
      "duration": 0.1068,
      "velocity": 92,
      "chip": "ym2612"
    },
    {
      "channel": 1,
      "note": 83,
      "start": 27.2568,
      "duration": 0.129,
      "velocity": 95,
      "chip": "ym2612"
    },
    {
      "channel": 1,
      "note": 85,
      "start": 27.4118,
      "duration": 0.129,
      "velocity": 95,
      "chip": "ym2612"
    },
    {
      "channel": 4,
      "note": 85,
      "start": 27.4643,
      "duration": 0.1083,
      "velocity": 95,
      "chip": "ym2612"
    },
    {
      "channel": 0,
      "note": 47,
      "start": 27.5668,
      "duration": 0.2035,
      "velocity": 91,
      "chip": "ym2612"
    },
    {
      "channel": 1,
      "note": 86,
      "start": 27.5674,
      "duration": 0.4358,
      "velocity": 95,
      "chip": "ym2612"
    },
    {
      "channel": 2,
      "note": 59,
      "start": 27.5679,
      "duration": 0.203,
      "velocity": 92,
      "chip": "ym2612"
    },
    {
      "channel": 4,
      "note": 83,
      "start": 27.5756,
      "duration": 0.0151,
      "velocity": 95,
      "chip": "ym2612"
    },
    {
      "channel": 4,
      "note": 85,
      "start": 27.6167,
      "duration": 0.4342,
      "velocity": 95,
      "chip": "ym2612"
    },
    {
      "channel": 0,
      "note": 47,
      "start": 28.0289,
      "duration": 0.107,
      "velocity": 91,
      "chip": "ym2612"
    },
    {
      "channel": 1,
      "note": 79,
      "start": 28.0295,
      "duration": 0.3392,
      "velocity": 95,
      "chip": "ym2612"
    },
    {
      "channel": 2,
      "note": 59,
      "start": 28.03,
      "duration": 0.1064,
      "velocity": 92,
      "chip": "ym2612"
    },
    {
      "channel": 3,
      "note": 64,
      "start": 28.0535,
      "duration": 0.109,
      "velocity": 62,
      "chip": "ym2612"
    },
    {
      "channel": 4,
      "note": 86,
      "start": 28.0542,
      "duration": 0.3651,
      "velocity": 95,
      "chip": "ym2612"
    },
    {
      "channel": 3,
      "note": 62,
      "start": 28.1887,
      "duration": 0.1806,
      "velocity": 62,
      "chip": "ym2612"
    },
    {
      "channel": 0,
      "note": 47,
      "start": 28.3944,
      "duration": 0.2045,
      "velocity": 91,
      "chip": "ym2612"
    },
    {
      "channel": 1,
      "note": 81,
      "start": 28.395,
      "duration": 0.0234,
      "velocity": 95,
      "chip": "ym2612"
    },
    {
      "channel": 2,
      "note": 59,
      "start": 28.3955,
      "duration": 0.2042,
      "velocity": 92,
      "chip": "ym2612"
    },
    {
      "channel": 3,
      "note": 64,
      "start": 28.3961,
      "duration": 0.4937,
      "velocity": 62,
      "chip": "ym2612"
    },
    {
      "channel": 1,
      "note": 79,
      "start": 28.4444,
      "duration": 0.1806,
      "velocity": 95,
      "chip": "ym2612"
    },
    {
      "channel": 4,
      "note": 79,
      "start": 28.4456,
      "duration": 0.1803,
      "velocity": 95,
      "chip": "ym2612"
    },
    {
      "channel": 1,
      "note": 78,
      "start": 28.651,
      "duration": 0.802,
      "velocity": 95,
      "chip": "ym2612"
    },
    {
      "channel": 4,
      "note": 81,
      "start": 28.6522,
      "duration": 0.1805,
      "velocity": 95,
      "chip": "ym2612"
    },
    {
      "channel": 0,
      "note": 47,
      "start": 28.8575,
      "duration": 0.107,
      "velocity": 91,
      "chip": "ym2612"
    },
    {
      "channel": 2,
      "note": 59,
      "start": 28.8583,
      "duration": 0.1068,
      "velocity": 92,
      "chip": "ym2612"
    },
    {
      "channel": 4,
      "note": 79,
      "start": 28.8592,
      "duration": 0.8503,
      "velocity": 95,
      "chip": "ym2612"
    },
    {
      "channel": 3,
      "note": 62,
      "start": 28.9139,
      "duration": 0.1289,
      "velocity": 62,
      "chip": "ym2612"
    },
    {
      "channel": 3,
      "note": 61,
      "start": 29.0688,
      "duration": 0.129,
      "velocity": 62,
      "chip": "ym2612"
    },
    {
      "channel": 0,
      "note": 47,
      "start": 29.2231,
      "duration": 0.1263,
      "velocity": 91,
      "chip": "ym2612"
    },
    {
      "channel": 2,
      "note": 59,
      "start": 29.2239,
      "duration": 0.2035,
      "velocity": 92,
      "chip": "ym2612"
    },
    {
      "channel": 3,
      "note": 62,
      "start": 29.2246,
      "duration": 0.4357,
      "velocity": 62,
      "chip": "ym2612"
    },
    {
      "channel": 0,
      "note": 55,
      "start": 29.5306,
      "duration": 0.0513,
      "velocity": 91,
      "chip": "ym2612"
    },
    {
      "channel": 0,
      "note": 57,
      "start": 29.5822,
      "duration": 0.0514,
      "velocity": 91,
      "chip": "ym2612"
    },
    {
      "channel": 0,
      "note": 55,
      "start": 29.6339,
      "duration": 0.0514,
      "velocity": 91,
      "chip": "ym2612"
    },
    {
      "channel": 0,
      "note": 54,
      "start": 29.6856,
      "duration": 0.0167,
      "velocity": 91,
      "chip": "ym2612"
    },
    {
      "channel": 1,
      "note": 66,
      "start": 29.6862,
      "duration": 0.3392,
      "velocity": 95,
      "chip": "ym2612"
    },
    {
      "channel": 2,
      "note": 66,
      "start": 29.6868,
      "duration": 0.0161,
      "velocity": 92,
      "chip": "ym2612"
    },
    {
      "channel": 3,
      "note": 64,
      "start": 29.6874,
      "duration": 0.0157,
      "velocity": 62,
      "chip": "ym2612"
    },
    {
      "channel": 0,
      "note": 52,
      "start": 29.7053,
      "duration": 0.0142,
      "velocity": 91,
      "chip": "ym2612"
    },
    {
      "channel": 2,
      "note": 64,
      "start": 29.7061,
      "duration": 0.0139,
      "velocity": 92,
      "chip": "ym2612"
    },
    {
      "channel": 3,
      "note": 66,
      "start": 29.7067,
      "duration": 0.0136,
      "velocity": 62,
      "chip": "ym2612"
    },
    {
      "channel": 4,
      "note": 78,
      "start": 29.7124,
      "duration": 0.363,
      "velocity": 95,
      "chip": "ym2612"
    },
    {
      "channel": 0,
      "note": 50,
      "start": 29.7411,
      "duration": 0.129,
      "velocity": 91,
      "chip": "ym2612"
    },
    {
      "channel": 2,
      "note": 62,
      "start": 29.7419,
      "duration": 0.1287,
      "velocity": 92,
      "chip": "ym2612"
    },
    {
      "channel": 3,
      "note": 64,
      "start": 29.7425,
      "duration": 0.1284,
      "velocity": 62,
      "chip": "ym2612"
    },
    {
      "channel": 0,
      "note": 49,
      "start": 29.8961,
      "duration": 0.1289,
      "velocity": 91,
      "chip": "ym2612"
    },
    {
      "channel": 2,
      "note": 61,
      "start": 29.8969,
      "duration": 0.1288,
      "velocity": 92,
      "chip": "ym2612"
    },
    {
      "channel": 3,
      "note": 62,
      "start": 29.8975,
      "duration": 0.1285,
      "velocity": 62,
      "chip": "ym2612"
    },
    {
      "channel": 0,
      "note": 47,
      "start": 30.0512,
      "duration": 0.204,
      "velocity": 91,
      "chip": "ym2612"
    },
    {
      "channel": 1,
      "note": 71,
      "start": 30.0518,
      "duration": 0.0155,
      "velocity": 95,
      "chip": "ym2612"
    },
    {
      "channel": 2,
      "note": 59,
      "start": 30.0528,
      "duration": 0.2029,
      "velocity": 92,
      "chip": "ym2612"
    },
    {
      "channel": 3,
      "note": 61,
      "start": 30.0534,
      "duration": 0.4351,
      "velocity": 62,
      "chip": "ym2612"
    },
    {
      "channel": 1,
      "note": 73,
      "start": 30.0701,
      "duration": 0.1079,
      "velocity": 95,
      "chip": "ym2612"
    },
    {
      "channel": 4,
      "note": 66,
      "start": 30.1015,
      "duration": 0.129,
      "velocity": 95,
      "chip": "ym2612"
    },
    {
      "channel": 1,
      "note": 74,
      "start": 30.2039,
      "duration": 0.9576,
      "velocity": 95,
      "chip": "ym2612"
    },
    {
      "channel": 4,
      "note": 71,
      "start": 30.2565,
      "duration": 0.1288,
      "velocity": 95,
      "chip": "ym2612"
    },
    {
      "channel": 4,
      "note": 73,
      "start": 30.4116,
      "duration": 0.937,
      "velocity": 95,
      "chip": "ym2612"
    },
    {
      "channel": 0,
      "note": 47,
      "start": 30.5137,
      "duration": 0.107,
      "velocity": 91,
      "chip": "ym2612"
    },
    {
      "channel": 2,
      "note": 59,
      "start": 30.5145,
      "duration": 0.1068,
      "velocity": 92,
      "chip": "ym2612"
    },
    {
      "channel": 0,
      "note": 47,
      "start": 30.8792,
      "duration": 0.0495,
      "velocity": 91,
      "chip": "ym2612"
    },
    {
      "channel": 2,
      "note": 59,
      "start": 30.88,
      "duration": 0.2043,
      "velocity": 92,
      "chip": "ym2612"
    },
    {
      "channel": 3,
      "note": 59,
      "start": 30.8806,
      "duration": 0.0151,
      "velocity": 62,
      "chip": "ym2612"
    },
    {
      "channel": 3,
      "note": 59,
      "start": 30.8986,
      "duration": 0.1084,
      "velocity": 62,
      "chip": "ym2612"
    },
    {
      "channel": 3,
      "note": 61,
      "start": 31.0331,
      "duration": 0.343,
      "velocity": 62,
      "chip": "ym2612"
    },
    {
      "channel": 0,
      "note": 42,
      "start": 31.1874,
      "duration": 0.1289,
      "velocity": 91,
      "chip": "ym2612"
    },
    {
      "channel": 0,
      "note": 54,
      "start": 31.3423,
      "duration": 0.0159,
      "velocity": 91,
      "chip": "ym2612"
    },
    {
      "channel": 1,
      "note": 71,
      "start": 31.3429,
      "duration": 0.0157,
      "velocity": 95,
      "chip": "ym2612"
    },
    {
      "channel": 2,
      "note": 59,
      "start": 31.3435,
      "duration": 0.3396,
      "velocity": 92,
      "chip": "ym2612"
    },
    {
      "channel": 0,
      "note": 52,
      "start": 31.361,
      "duration": 0.0143,
      "velocity": 91,
      "chip": "ym2612"
    },
    {
      "channel": 1,
      "note": 73,
      "start": 31.3616,
      "duration": 0.014,
      "velocity": 95,
      "chip": "ym2612"
    },
    {
      "channel": 4,
      "note": 74,
      "start": 31.3676,
      "duration": 0.0572,
      "velocity": 95,
      "chip": "ym2612"
    },
    {
      "channel": 0,
      "note": 42,
      "start": 31.3983,
      "duration": 0.1288,
      "velocity": 91,
      "chip": "ym2612"
    },
    {
      "channel": 1,
      "note": 74,
      "start": 31.3988,
      "duration": 0.1286,
      "velocity": 95,
      "chip": "ym2612"
    },
    {
      "channel": 3,
      "note": 62,
      "start": 31.4,
      "duration": 0.128,
      "velocity": 62,
      "chip": "ym2612"
    },
    {
      "channel": 4,
      "note": 71,
      "start": 31.451,
      "duration": 0.1288,
      "velocity": 95,
      "chip": "ym2612"
    },
    {
      "channel": 0,
      "note": 54,
      "start": 31.5531,
      "duration": 0.129,
      "velocity": 91,
      "chip": "ym2612"
    },
    {
      "channel": 1,
      "note": 78,
      "start": 31.5537,
      "duration": 0.1288,
      "velocity": 95,
      "chip": "ym2612"
    },
    {
      "channel": 3,
      "note": 59,
      "start": 31.5545,
      "duration": 0.1289,
      "velocity": 62,
      "chip": "ym2612"
    },
    {
      "channel": 4,
      "note": 73,
      "start": 31.6059,
      "duration": 0.1089,
      "velocity": 95,
      "chip": "ym2612"
    },
    {
      "channel": 0,
      "note": 47,
      "start": 31.7082,
      "duration": 0.2035,
      "velocity": 91,
      "chip": "ym2612"
    },
    {
      "channel": 1,
      "note": 83,
      "start": 31.7087,
      "duration": 0.0156,
      "velocity": 95,
      "chip": "ym2612"
    },
    {
      "channel": 2,
      "note": 62,
      "start": 31.7094,
      "duration": 0.2028,
      "velocity": 92,
      "chip": "ym2612"
    },
    {
      "channel": 3,
      "note": 61,
      "start": 31.71,
      "duration": 0.0148,
      "velocity": 62,
      "chip": "ym2612"
    },
    {
      "channel": 4,
      "note": 74,
      "start": 31.7174,
      "duration": 0.0145,
      "velocity": 95,
      "chip": "ym2612"
    },
    {
      "channel": 1,
      "note": 85,
      "start": 31.7271,
      "duration": 0.1074,
      "velocity": 95,
      "chip": "ym2612"
    },
    {
      "channel": 3,
      "note": 62,
      "start": 31.728,
      "duration": 0.1071,
      "velocity": 62,
      "chip": "ym2612"
    },
    {
      "channel": 4,
      "note": 78,
      "start": 31.7581,
      "duration": 0.1288,
      "velocity": 95,
      "chip": "ym2612"
    },
    {
      "channel": 1,
      "note": 86,
      "start": 31.8605,
      "duration": 1.1126,
      "velocity": 95,
      "chip": "ym2612"
    },
    {
      "channel": 3,
      "note": 66,
      "start": 31.8614,
      "duration": 1.4778,
      "velocity": 62,
      "chip": "ym2612"
    },
    {
      "channel": 4,
      "note": 83,
      "start": 31.9131,
      "duration": 0.129,
      "velocity": 95,
      "chip": "ym2612"
    },
    {
      "channel": 4,
      "note": 85,
      "start": 32.068,
      "duration": 0.9529,
      "velocity": 95,
      "chip": "ym2612"
    },
    {
      "channel": 0,
      "note": 47,
      "start": 32.1702,
      "duration": 0.1071,
      "velocity": 91,
      "chip": "ym2612"
    },
    {
      "channel": 2,
      "note": 59,
      "start": 32.171,
      "duration": 0.1068,
      "velocity": 92,
      "chip": "ym2612"
    },
    {
      "channel": 0,
      "note": 47,
      "start": 32.5359,
      "duration": 0.2045,
      "velocity": 91,
      "chip": "ym2612"
    },
    {
      "channel": 2,
      "note": 59,
      "start": 32.5367,
      "duration": 0.2042,
      "velocity": 92,
      "chip": "ym2612"
    },
    {
      "channel": 0,
      "note": 47,
      "start": 32.9989,
      "duration": 0.107,
      "velocity": 91,
      "chip": "ym2612"
    },
    {
      "channel": 2,
      "note": 59,
      "start": 33.0002,
      "duration": 0.1062,
      "velocity": 92,
      "chip": "ym2612"
    },
    {
      "channel": 1,
      "note": 88,
      "start": 33.0175,
      "duration": 0.0144,
      "velocity": 95,
      "chip": "ym2612"
    },
    {
      "channel": 1,
      "note": 86,
      "start": 33.0547,
      "duration": 0.1289,
      "velocity": 95,
      "chip": "ym2612"
    },
    {
      "channel": 4,
      "note": 86,
      "start": 33.1073,
      "duration": 0.1288,
      "velocity": 95,
      "chip": "ym2612"
    },
    {
      "channel": 1,
      "note": 88,
      "start": 33.2096,
      "duration": 0.129,
      "velocity": 95,
      "chip": "ym2612"
    },
    {
      "channel": 4,
      "note": 88,
      "start": 33.2627,
      "duration": 0.1081,
      "velocity": 95,
      "chip": "ym2612"
    },
    {
      "channel": 0,
      "note": 47,
      "start": 33.3644,
      "duration": 0.2042,
      "velocity": 91,
      "chip": "ym2612"
    },
    {
      "channel": 1,
      "note": 85,
      "start": 33.3649,
      "duration": 0.4937,
      "velocity": 95,
      "chip": "ym2612"
    },
    {
      "channel": 2,
      "note": 59,
      "start": 33.3655,
      "duration": 0.2037,
      "velocity": 92,
      "chip": "ym2612"
    },
    {
      "channel": 3,
      "note": 71,
      "start": 33.3661,
      "duration": 0.0147,
      "velocity": 62,
      "chip": "ym2612"
    },
    {
      "channel": 4,
      "note": 86,
      "start": 33.3735,
      "duration": 0.0157,
      "velocity": 95,
      "chip": "ym2612"
    },
    {
      "channel": 3,
      "note": 73,
      "start": 33.384,
      "duration": 0.1079,
      "velocity": 62,
      "chip": "ym2612"
    },
    {
      "channel": 4,
      "note": 88,
      "start": 33.4149,
      "duration": 0.6495,
      "velocity": 95,
      "chip": "ym2612"
    },
    {
      "channel": 3,
      "note": 71,
      "start": 33.5179,
      "duration": 1.1582,
      "velocity": 62,
      "chip": "ym2612"
    },
    {
      "channel": 0,
      "note": 47,
      "start": 33.8271,
      "duration": 0.107,
      "velocity": 91,
      "chip": "ym2612"
    },
    {
      "channel": 2,
      "note": 59,
      "start": 33.828,
      "duration": 0.1068,
      "velocity": 92,
      "chip": "ym2612"
    },
    {
      "channel": 1,
      "note": 83,
      "start": 33.8829,
      "duration": 0.129,
      "velocity": 95,
      "chip": "ym2612"
    },
    {
      "channel": 1,
      "note": 85,
      "start": 34.0379,
      "duration": 0.129,
      "velocity": 95,
      "chip": "ym2612"
    },
    {
      "channel": 4,
      "note": 85,
      "start": 34.0904,
      "duration": 0.1083,
      "velocity": 95,
      "chip": "ym2612"
    },
    {
      "channel": 0,
      "note": 47,
      "start": 34.1926,
      "duration": 0.2037,
      "velocity": 91,
      "chip": "ym2612"
    },
    {
      "channel": 1,
      "note": 86,
      "start": 34.1932,
      "duration": 0.4362,
      "velocity": 95,
      "chip": "ym2612"
    },
    {
      "channel": 2,
      "note": 59,
      "start": 34.1937,
      "duration": 0.2031,
      "velocity": 92,
      "chip": "ym2612"
    },
    {
      "channel": 4,
      "note": 83,
      "start": 34.2016,
      "duration": 0.015,
      "velocity": 95,
      "chip": "ym2612"
    },
    {
      "channel": 4,
      "note": 85,
      "start": 34.2427,
      "duration": 0.4339,
      "velocity": 95,
      "chip": "ym2612"
    },
    {
      "channel": 0,
      "note": 47,
      "start": 34.6549,
      "duration": 0.0076,
      "velocity": 91,
      "chip": "ym2612"
    },
    {
      "channel": 1,
      "note": 79,
      "start": 34.6554,
      "duration": 0.3391,
      "velocity": 95,
      "chip": "ym2612"
    },
    {
      "channel": 2,
      "note": 59,
      "start": 34.656,
      "duration": 0.1063,
      "velocity": 92,
      "chip": "ym2612"
    },
    {
      "channel": 3,
      "note": 64,
      "start": 34.6795,
      "duration": 0.1093,
      "velocity": 62,
      "chip": "ym2612"
    },
    {
      "channel": 4,
      "note": 86,
      "start": 34.6802,
      "duration": 0.365,
      "velocity": 95,
      "chip": "ym2612"
    },
    {
      "channel": 0,
      "note": 49,
      "start": 34.7105,
      "duration": 0.0772,
      "velocity": 91,
      "chip": "ym2612"
    },
    {
      "channel": 0,
      "note": 50,
      "start": 34.788,
      "duration": 0.0772,
      "velocity": 91,
      "chip": "ym2612"
    },
    {
      "channel": 3,
      "note": 62,
      "start": 34.8145,
      "duration": 0.1807,
      "velocity": 62,
      "chip": "ym2612"
    },
    {
      "channel": 0,
      "note": 52,
      "start": 34.8654,
      "duration": 0.0772,
      "velocity": 91,
      "chip": "ym2612"
    },
    {
      "channel": 0,
      "note": 54,
      "start": 34.9429,
      "duration": 0.0773,
      "velocity": 91,
      "chip": "ym2612"
    },
    {
      "channel": 0,
      "note": 55,
      "start": 35.0205,
      "duration": 0.2044,
      "velocity": 91,
      "chip": "ym2612"
    },
    {
      "channel": 1,
      "note": 81,
      "start": 35.021,
      "duration": 0.0233,
      "velocity": 95,
      "chip": "ym2612"
    },
    {
      "channel": 2,
      "note": 62,
      "start": 35.0235,
      "duration": 0.5933,
      "velocity": 101,
      "chip": "ym2612"
    },
    {
      "channel": 3,
      "note": 64,
      "start": 35.0242,
      "duration": 0.1239,
      "velocity": 62,
      "chip": "ym2612"
    },
    {
      "channel": 1,
      "note": 79,
      "start": 35.0704,
      "duration": 0.1807,
      "velocity": 95,
      "chip": "ym2612"
    },
    {
      "channel": 4,
      "note": 79,
      "start": 35.0715,
      "duration": 0.1807,
      "velocity": 95,
      "chip": "ym2612"
    },
    {
      "channel": 3,
      "note": 62,
      "start": 35.1771,
      "duration": 0.683,
      "velocity": 101,
      "chip": "ym2612"
    },
    {
      "channel": 1,
      "note": 78,
      "start": 35.277,
      "duration": 0.3911,
      "velocity": 95,
      "chip": "ym2612"
    },
    {
      "channel": 4,
      "note": 81,
      "start": 35.2782,
      "duration": 0.1804,
      "velocity": 95,
      "chip": "ym2612"
    },
    {
      "channel": 0,
      "note": 55,
      "start": 35.4835,
      "duration": 0.1069,
      "velocity": 91,
      "chip": "ym2612"
    },
    {
      "channel": 4,
      "note": 79,
      "start": 35.485,
      "duration": 0.3702,
      "velocity": 95,
      "chip": "ym2612"
    },
    {
      "channel": 2,
      "note": 64,
      "start": 35.6428,
      "duration": 0.0256,
      "velocity": 101,
      "chip": "ym2612"
    },
    {
      "channel": 2,
      "note": 66,
      "start": 35.6945,
      "duration": 0.0255,
      "velocity": 101,
      "chip": "ym2612"
    },
    {
      "channel": 2,
      "note": 67,
      "start": 35.7461,
      "duration": 0.0256,
      "velocity": 101,
      "chip": "ym2612"
    },
    {
      "channel": 2,
      "note": 69,
      "start": 35.7979,
      "duration": 0.0256,
      "velocity": 101,
      "chip": "ym2612"
    },
    {
      "channel": 0,
      "note": 55,
      "start": 35.8492,
      "duration": 0.2035,
      "velocity": 91,
      "chip": "ym2612"
    },
    {
      "channel": 1,
      "note": 78,
      "start": 35.8498,
      "duration": 0.4358,
      "velocity": 95,
      "chip": "ym2612"
    },
    {
      "channel": 2,
      "note": 71,
      "start": 35.8503,
      "duration": 0.801,
      "velocity": 101,
      "chip": "ym2612"
    },
    {
      "channel": 3,
      "note": 62,
      "start": 35.8629,
      "duration": 0.0025,
      "velocity": 101,
      "chip": "ym2612"
    },
    {
      "channel": 3,
      "note": 64,
      "start": 35.8682,
      "duration": 0.0045,
      "velocity": 101,
      "chip": "ym2612"
    },
    {
      "channel": 3,
      "note": 66,
      "start": 35.8988,
      "duration": 0.0257,
      "velocity": 101,
      "chip": "ym2612"
    },
    {
      "channel": 4,
      "note": 78,
      "start": 35.8995,
      "duration": 0.4337,
      "velocity": 95,
      "chip": "ym2612"
    },
    {
      "channel": 3,
      "note": 67,
      "start": 35.9505,
      "duration": 0.0256,
      "velocity": 101,
      "chip": "ym2612"
    },
    {
      "channel": 3,
      "note": 69,
      "start": 36.0021,
      "duration": 0.8023,
      "velocity": 101,
      "chip": "ym2612"
    },
    {
      "channel": 0,
      "note": 55,
      "start": 36.3113,
      "duration": 0.1069,
      "velocity": 91,
      "chip": "ym2612"
    },
    {
      "channel": 1,
      "note": 90,
      "start": 36.3294,
      "duration": 0.0136,
      "velocity": 95,
      "chip": "ym2612"
    },
    {
      "channel": 1,
      "note": 88,
      "start": 36.3671,
      "duration": 0.129,
      "velocity": 95,
      "chip": "ym2612"
    },
    {
      "channel": 4,
      "note": 78,
      "start": 36.4196,
      "duration": 0.1289,
      "velocity": 95,
      "chip": "ym2612"
    },
    {
      "channel": 1,
      "note": 86,
      "start": 36.5223,
      "duration": 0.1287,
      "velocity": 95,
      "chip": "ym2612"
    },
    {
      "channel": 4,
      "note": 90,
      "start": 36.5746,
      "duration": 0.1082,
      "velocity": 95,
      "chip": "ym2612"
    },
    {
      "channel": 0,
      "note": 54,
      "start": 36.6768,
      "duration": 0.2044,
      "velocity": 91,
      "chip": "ym2612"
    },
    {
      "channel": 1,
      "note": 88,
      "start": 36.6773,
      "duration": 0.0232,
      "velocity": 95,
      "chip": "ym2612"
    },
    {
      "channel": 2,
      "note": 69,
      "start": 36.6779,
      "duration": 0.8021,
      "velocity": 101,
      "chip": "ym2612"
    },
    {
      "channel": 4,
      "note": 88,
      "start": 36.686,
      "duration": 0.0155,
      "velocity": 95,
      "chip": "ym2612"
    },
    {
      "channel": 1,
      "note": 86,
      "start": 36.7266,
      "duration": 0.1806,
      "velocity": 95,
      "chip": "ym2612"
    },
    {
      "channel": 4,
      "note": 86,
      "start": 36.7278,
      "duration": 0.1802,
      "velocity": 95,
      "chip": "ym2612"
    },
    {
      "channel": 3,
      "note": 71,
      "start": 36.8306,
      "duration": 0.8022,
      "velocity": 101,
      "chip": "ym2612"
    },
    {
      "channel": 1,
      "note": 88,
      "start": 36.9332,
      "duration": 0.1807,
      "velocity": 95,
      "chip": "ym2612"
    },
    {
      "channel": 4,
      "note": 88,
      "start": 36.9344,
      "duration": 0.1805,
      "velocity": 95,
      "chip": "ym2612"
    },
    {
      "channel": 0,
      "note": 54,
      "start": 37.1397,
      "duration": 0.1073,
      "velocity": 91,
      "chip": "ym2612"
    },
    {
      "channel": 1,
      "note": 85,
      "start": 37.1402,
      "duration": 0.802,
      "velocity": 95,
      "chip": "ym2612"
    },
    {
      "channel": 4,
      "note": 86,
      "start": 37.1414,
      "duration": 0.0198,
      "velocity": 95,
      "chip": "ym2612"
    },
    {
      "channel": 4,
      "note": 88,
      "start": 37.164,
      "duration": 0.8264,
      "velocity": 95,
      "chip": "ym2612"
    },
    {
      "channel": 0,
      "note": 54,
      "start": 37.5055,
      "duration": 0.204,
      "velocity": 91,
      "chip": "ym2612"
    },
    {
      "channel": 2,
      "note": 66,
      "start": 37.5063,
      "duration": 0.4834,
      "velocity": 101,
      "chip": "ym2612"
    },
    {
      "channel": 3,
      "note": 69,
      "start": 37.6588,
      "duration": 0.5462,
      "velocity": 101,
      "chip": "ym2612"
    },
    {
      "channel": 0,
      "note": 54,
      "start": 37.968,
      "duration": 0.1071,
      "velocity": 91,
      "chip": "ym2612"
    },
    {
      "channel": 1,
      "note": 81,
      "start": 37.9685,
      "duration": 0.3393,
      "velocity": 95,
      "chip": "ym2612"
    },
    {
      "channel": 2,
      "note": 67,
      "start": 37.9927,
      "duration": 0.109,
      "velocity": 101,
      "chip": "ym2612"
    },
    {
      "channel": 4,
      "note": 85,
      "start": 37.9937,
      "duration": 0.3643,
      "velocity": 95,
      "chip": "ym2612"
    },
    {
      "channel": 2,
      "note": 69,
      "start": 38.1275,
      "duration": 0.1807,
      "velocity": 101,
      "chip": "ym2612"
    },
    {
      "channel": 3,
      "note": 66,
      "start": 38.2311,
      "duration": 0.1138,
      "velocity": 101,
      "chip": "ym2612"
    },
    {
      "channel": 0,
      "note": 52,
      "start": 38.3337,
      "duration": 0.2041,
      "velocity": 91,
      "chip": "ym2612"
    },
    {
      "channel": 1,
      "note": 83,
      "start": 38.3343,
      "duration": 0.0155,
      "velocity": 95,
      "chip": "ym2612"
    },
    {
      "channel": 2,
      "note": 71,
      "start": 38.3351,
      "duration": 1.6302,
      "velocity": 101,
      "chip": "ym2612"
    },
    {
      "channel": 3,
      "note": 67,
      "start": 38.3477,
      "duration": 0.1135,
      "velocity": 101,
      "chip": "ym2612"
    },
    {
      "channel": 1,
      "note": 85,
      "start": 38.3524,
      "duration": 0.1082,
      "velocity": 95,
      "chip": "ym2612"
    },
    {
      "channel": 4,
      "note": 81,
      "start": 38.384,
      "duration": 0.1289,
      "velocity": 95,
      "chip": "ym2612"
    },
    {
      "channel": 1,
      "note": 86,
      "start": 38.4865,
      "duration": 0.129,
      "velocity": 95,
      "chip": "ym2612"
    },
    {
      "channel": 3,
      "note": 69,
      "start": 38.4874,
      "duration": 1.6299,
      "velocity": 101,
      "chip": "ym2612"
    },
    {
      "channel": 4,
      "note": 83,
      "start": 38.5391,
      "duration": 0.1289,
      "velocity": 95,
      "chip": "ym2612"
    },
    {
      "channel": 1,
      "note": 90,
      "start": 38.6415,
      "duration": 0.129,
      "velocity": 95,
      "chip": "ym2612"
    },
    {
      "channel": 4,
      "note": 85,
      "start": 38.6941,
      "duration": 0.1077,
      "velocity": 95,
      "chip": "ym2612"
    },
    {
      "channel": 0,
      "note": 52,
      "start": 38.7963,
      "duration": 0.1069,
      "velocity": 91,
      "chip": "ym2612"
    },
    {
      "channel": 1,
      "note": 98,
      "start": 38.7969,
      "duration": 1.6764,
      "velocity": 95,
      "chip": "ym2612"
    },
    {
      "channel": 4,
      "note": 86,
      "start": 38.8048,
      "duration": 0.0131,
      "velocity": 95,
      "chip": "ym2612"
    },
    {
      "channel": 4,
      "note": 90,
      "start": 38.8211,
      "duration": 1.1933,
      "velocity": 95,
      "chip": "ym2612"
    },
    {
      "channel": 0,
      "note": 52,
      "start": 39.1617,
      "duration": 0.2045,
      "velocity": 91,
      "chip": "ym2612"
    },
    {
      "channel": 0,
      "note": 52,
      "start": 39.6248,
      "duration": 0.1073,
      "velocity": 91,
      "chip": "ym2612"
    },
    {
      "channel": 0,
      "note": 54,
      "start": 39.9906,
      "duration": 0.2035,
      "velocity": 91,
      "chip": "ym2612"
    },
    {
      "channel": 2,
      "note": 71,
      "start": 39.9918,
      "duration": 0.4819,
      "velocity": 101,
      "chip": "ym2612"
    },
    {
      "channel": 4,
      "note": 98,
      "start": 40.0405,
      "duration": 0.5461,
      "velocity": 95,
      "chip": "ym2612"
    },
    {
      "channel": 3,
      "note": 71,
      "start": 40.1434,
      "duration": 0.546,
      "velocity": 101,
      "chip": "ym2612"
    },
    {
      "channel": 0,
      "note": 54,
      "start": 40.4526,
      "duration": 0.1069,
      "velocity": 91,
      "chip": "ym2612"
    },
    {
      "channel": 1,
      "note": 97,
      "start": 40.4762,
      "duration": 0.1094,
      "velocity": 95,
      "chip": "ym2612"
    },
    {
      "channel": 2,
      "note": 70,
      "start": 40.4767,
      "duration": 0.1092,
      "velocity": 101,
      "chip": "ym2612"
    },
    {
      "channel": 1,
      "note": 98,
      "start": 40.6117,
      "duration": 0.1807,
      "velocity": 95,
      "chip": "ym2612"
    },
    {
      "channel": 2,
      "note": 71,
      "start": 40.6122,
      "duration": 0.1804,
      "velocity": 101,
      "chip": "ym2612"
    },
    {
      "channel": 4,
      "note": 98,
      "start": 40.6132,
      "duration": 0.18,
      "velocity": 95,
      "chip": "ym2612"
    },
    {
      "channel": 3,
      "note": 71,
      "start": 40.7156,
      "duration": 0.1142,
      "velocity": 101,
      "chip": "ym2612"
    },
    {
      "channel": 0,
      "note": 54,
      "start": 40.8181,
      "duration": 0.0662,
      "velocity": 91,
      "chip": "ym2612"
    },
    {
      "channel": 1,
      "note": 97,
      "start": 40.8186,
      "duration": 0.1651,
      "velocity": 95,
      "chip": "ym2612"
    },
    {
      "channel": 2,
      "note": 70,
      "start": 40.8191,
      "duration": 0.1649,
      "velocity": 101,
      "chip": "ym2612"
    },
    {
      "channel": 4,
      "note": 97,
      "start": 40.8202,
      "duration": 0.0226,
      "velocity": 95,
      "chip": "ym2612"
    },
    {
      "channel": 3,
      "note": 70,
      "start": 40.8327,
      "duration": 0.0437,
      "velocity": 101,
      "chip": "ym2612"
    },
    {
      "channel": 4,
      "note": 98,
      "start": 40.8688,
      "duration": 0.1456,
      "velocity": 95,
      "chip": "ym2612"
    },
    {
      "channel": 3,
      "note": 71,
      "start": 40.8797,
      "duration": 0.1047,
      "velocity": 101,
      "chip": "ym2612"
    },
    {
      "channel": 0,
      "note": 42,
      "start": 40.9104,
      "duration": 0.073,
      "velocity": 91,
      "chip": "ym2612"
    },
    {
      "channel": 0,
      "note": 47,
      "start": 40.9873,
      "duration": 0.2039,
      "velocity": 91,
      "chip": "ym2612"
    },
    {
      "channel": 1,
      "note": 95,
      "start": 40.9879,
      "duration": 0.4361,
      "velocity": 95,
      "chip": "ym2612"
    },
    {
      "channel": 2,
      "note": 59,
      "start": 40.9903,
      "duration": 0.2015,
      "velocity": 92,
      "chip": "ym2612"
    },
    {
      "channel": 3,
      "note": 70,
      "start": 40.9938,
      "duration": 0.1983,
      "velocity": 101,
      "chip": "ym2612"
    },
    {
      "channel": 4,
      "note": 97,
      "start": 41.0375,
      "duration": 0.4341,
      "velocity": 95,
      "chip": "ym2612"
    },
    {
      "channel": 0,
      "note": 47,
      "start": 41.4498,
      "duration": 0.1071,
      "velocity": 91,
      "chip": "ym2612"
    },
    {
      "channel": 2,
      "note": 59,
      "start": 41.4506,
      "duration": 0.1067,
      "velocity": 92,
      "chip": "ym2612"
    },
    {
      "channel": 3,
      "note": 86,
      "start": 41.4512,
      "duration": 0.1064,
      "velocity": 101,
      "chip": "ym2612"
    },
    {
      "channel": 0,
      "note": 47,
      "start": 41.8152,
      "duration": 0.2037,
      "velocity": 91,
      "chip": "ym2612"
    },
    {
      "channel": 2,
      "note": 59,
      "start": 41.816,
      "duration": 0.2034,
      "velocity": 92,
      "chip": "ym2612"
    },
    {
      "channel": 3,
      "note": 66,
      "start": 41.8167,
      "duration": 0.2031,
      "velocity": 101,
      "chip": "ym2612"
    },
    {
      "channel": 0,
      "note": 47,
      "start": 42.2775,
      "duration": 0.3394,
      "velocity": 91,
      "chip": "ym2612"
    },
    {
      "channel": 1,
      "note": 73,
      "start": 42.278,
      "duration": 0.3392,
      "velocity": 95,
      "chip": "ym2612"
    },
    {
      "channel": 2,
      "note": 59,
      "start": 42.2787,
      "duration": 0.3388,
      "velocity": 92,
      "chip": "ym2612"
    },
    {
      "channel": 3,
      "note": 66,
      "start": 42.2794,
      "duration": 0.3384,
      "velocity": 101,
      "chip": "ym2612"
    },
    {
      "channel": 4,
      "note": 95,
      "start": 42.3034,
      "duration": 0.3644,
      "velocity": 95,
      "chip": "ym2612"
    },
    {
      "channel": 0,
      "note": 47,
      "start": 42.643,
      "duration": 0.2046,
      "velocity": 91,
      "chip": "ym2612"
    },
    {
      "channel": 1,
      "note": 71,
      "start": 42.6435,
      "duration": 0.4368,
      "velocity": 95,
      "chip": "ym2612"
    },
    {
      "channel": 2,
      "note": 59,
      "start": 42.6442,
      "duration": 0.2039,
      "velocity": 92,
      "chip": "ym2612"
    },
    {
      "channel": 3,
      "note": 55,
      "start": 42.6449,
      "duration": 0.2035,
      "velocity": 101,
      "chip": "ym2612"
    },
    {
      "channel": 4,
      "note": 73,
      "start": 42.6939,
      "duration": 0.9537,
      "velocity": 95,
      "chip": "ym2612"
    },
    {
      "channel": 0,
      "note": 47,
      "start": 43.1061,
      "duration": 0.107,
      "velocity": 91,
      "chip": "ym2612"
    },
    {
      "channel": 2,
      "note": 59,
      "start": 43.1071,
      "duration": 0.1065,
      "velocity": 92,
      "chip": "ym2612"
    },
    {
      "channel": 0,
      "note": 54,
      "start": 43.4721,
      "duration": 0.0171,
      "velocity": 91,
      "chip": "ym2612"
    },
    {
      "channel": 2,
      "note": 66,
      "start": 43.473,
      "duration": 0.0167,
      "velocity": 92,
      "chip": "ym2612"
    },
    {
      "channel": 3,
      "note": 54,
      "start": 43.4762,
      "duration": 0.0138,
      "velocity": 91,
      "chip": "ym2612"
    },
    {
      "channel": 0,
      "note": 52,
      "start": 43.4922,
      "duration": 0.016,
      "velocity": 91,
      "chip": "ym2612"
    },
    {
      "channel": 2,
      "note": 64,
      "start": 43.493,
      "duration": 0.0157,
      "velocity": 92,
      "chip": "ym2612"
    },
    {
      "channel": 3,
      "note": 66,
      "start": 43.4936,
      "duration": 0.0154,
      "velocity": 91,
      "chip": "ym2612"
    },
    {
      "channel": 0,
      "note": 50,
      "start": 43.5111,
      "duration": 0.0139,
      "velocity": 91,
      "chip": "ym2612"
    },
    {
      "channel": 2,
      "note": 62,
      "start": 43.5119,
      "duration": 0.0136,
      "velocity": 92,
      "chip": "ym2612"
    },
    {
      "channel": 3,
      "note": 64,
      "start": 43.5125,
      "duration": 0.0133,
      "velocity": 91,
      "chip": "ym2612"
    },
    {
      "channel": 0,
      "note": 52,
      "start": 43.5288,
      "duration": 0.0147,
      "velocity": 91,
      "chip": "ym2612"
    },
    {
      "channel": 2,
      "note": 64,
      "start": 43.5297,
      "duration": 0.0144,
      "velocity": 92,
      "chip": "ym2612"
    },
    {
      "channel": 3,
      "note": 62,
      "start": 43.5303,
      "duration": 0.0141,
      "velocity": 91,
      "chip": "ym2612"
    },
    {
      "channel": 0,
      "note": 50,
      "start": 43.5466,
      "duration": 0.0152,
      "velocity": 91,
      "chip": "ym2612"
    },
    {
      "channel": 2,
      "note": 62,
      "start": 43.5473,
      "duration": 0.0151,
      "velocity": 92,
      "chip": "ym2612"
    },
    {
      "channel": 3,
      "note": 64,
      "start": 43.548,
      "duration": 0.0148,
      "velocity": 91,
      "chip": "ym2612"
    },
    {
      "channel": 0,
      "note": 49,
      "start": 43.5652,
      "duration": 0.0143,
      "velocity": 91,
      "chip": "ym2612"
    },
    {
      "channel": 2,
      "note": 61,
      "start": 43.566,
      "duration": 0.0141,
      "velocity": 92,
      "chip": "ym2612"
    },
    {
      "channel": 3,
      "note": 62,
      "start": 43.5666,
      "duration": 0.0138,
      "velocity": 91,
      "chip": "ym2612"
    },
    {
      "channel": 0,
      "note": 46,
      "start": 43.5833,
      "duration": 0.0326,
      "velocity": 91,
      "chip": "ym2612"
    },
    {
      "channel": 2,
      "note": 58,
      "start": 43.5841,
      "duration": 0.0324,
      "velocity": 92,
      "chip": "ym2612"
    },
    {
      "channel": 3,
      "note": 61,
      "start": 43.5847,
      "duration": 0.0321,
      "velocity": 91,
      "chip": "ym2612"
    },
    {
      "channel": 0,
      "note": 47,
      "start": 43.619,
      "duration": 0.2034,
      "velocity": 91,
      "chip": "ym2612"
    },
    {
      "channel": 1,
      "note": 73,
      "start": 43.6215,
      "duration": 0.8959,
      "velocity": 100,
      "chip": "ym2612"
    },
    {
      "channel": 2,
      "note": 64,
      "start": 43.6239,
      "duration": 1.2421,
      "velocity": 100,
      "chip": "ym2612"
    },
    {
      "channel": 3,
      "note": 58,
      "start": 43.6272,
      "duration": 0.8907,
      "velocity": 100,
      "chip": "ym2612"
    },
    {
      "channel": 4,
      "note": 71,
      "start": 43.6688,
      "duration": 0.8985,
      "velocity": 95,
      "chip": "ym2612"
    },
    {
      "channel": 0,
      "note": 47,
      "start": 44.0809,
      "duration": 0.2037,
      "velocity": 91,
      "chip": "ym2612"
    },
    {
      "channel": 0,
      "note": 47,
      "start": 44.5431,
      "duration": 0.2039,
      "velocity": 91,
      "chip": "ym2612"
    },
    {
      "channel": 1,
      "note": 74,
      "start": 44.5436,
      "duration": 0.322,
      "velocity": 100,
      "chip": "ym2612"
    },
    {
      "channel": 3,
      "note": 67,
      "start": 44.5445,
      "duration": 0.3218,
      "velocity": 100,
      "chip": "ym2612"
    },
    {
      "channel": 4,
      "note": 73,
      "start": 44.5937,
      "duration": 0.2974,
      "velocity": 95,
      "chip": "ym2612"
    },
    {
      "channel": 0,
      "note": 47,
      "start": 44.8686,
      "duration": 0.107,
      "velocity": 91,
      "chip": "ym2612"
    },
    {
      "channel": 1,
      "note": 76,
      "start": 44.8691,
      "duration": 0.2245,
      "velocity": 100,
      "chip": "ym2612"
    },
    {
      "channel": 2,
      "note": 61,
      "start": 44.8697,
      "duration": 0.2243,
      "velocity": 100,
      "chip": "ym2612"
    },
    {
      "channel": 3,
      "note": 67,
      "start": 44.8703,
      "duration": 0.224,
      "velocity": 100,
      "chip": "ym2612"
    },
    {
      "channel": 4,
      "note": 74,
      "start": 44.8939,
      "duration": 0.227,
      "velocity": 95,
      "chip": "ym2612"
    },
    {
      "channel": 0,
      "note": 47,
      "start": 45.0968,
      "duration": 0.204,
      "velocity": 91,
      "chip": "ym2612"
    },
    {
      "channel": 1,
      "note": 78,
      "start": 45.0973,
      "duration": 0.8987,
      "velocity": 100,
      "chip": "ym2612"
    },
    {
      "channel": 2,
      "note": 59,
      "start": 45.0982,
      "duration": 1.2471,
      "velocity": 100,
      "chip": "ym2612"
    },
    {
      "channel": 3,
      "note": 67,
      "start": 45.0988,
      "duration": 0.8978,
      "velocity": 100,
      "chip": "ym2612"
    },
    {
      "channel": 4,
      "note": 76,
      "start": 45.1471,
      "duration": 0.8994,
      "velocity": 95,
      "chip": "ym2612"
    },
    {
      "channel": 0,
      "note": 47,
      "start": 45.5593,
      "duration": 0.204,
      "velocity": 91,
      "chip": "ym2612"
    },
    {
      "channel": 0,
      "note": 47,
      "start": 46.0218,
      "duration": 0.2045,
      "velocity": 91,
      "chip": "ym2612"
    },
    {
      "channel": 1,
      "note": 78,
      "start": 46.0223,
      "duration": 0.3227,
      "velocity": 100,
      "chip": "ym2612"
    },
    {
      "channel": 3,
      "note": 73,
      "start": 46.0232,
      "duration": 0.3224,
      "velocity": 100,
      "chip": "ym2612"
    },
    {
      "channel": 4,
      "note": 78,
      "start": 46.0725,
      "duration": 0.2973,
      "velocity": 95,
      "chip": "ym2612"
    },
    {
      "channel": 0,
      "note": 47,
      "start": 46.3479,
      "duration": 0.1073,
      "velocity": 91,
      "chip": "ym2612"
    },
    {
      "channel": 1,
      "note": 78,
      "start": 46.3484,
      "duration": 0.2248,
      "velocity": 100,
      "chip": "ym2612"
    },
    {
      "channel": 2,
      "note": 71,
      "start": 46.349,
      "duration": 0.2248,
      "velocity": 100,
      "chip": "ym2612"
    },
    {
      "channel": 3,
      "note": 74,
      "start": 46.3496,
      "duration": 0.2246,
      "velocity": 100,
      "chip": "ym2612"
    },
    {
      "channel": 4,
      "note": 78,
      "start": 46.3727,
      "duration": 0.2273,
      "velocity": 95,
      "chip": "ym2612"
    },
    {
      "channel": 0,
      "note": 55,
      "start": 46.5762,
      "duration": 0.2035,
      "velocity": 91,
      "chip": "ym2612"
    },
    {
      "channel": 1,
      "note": 83,
      "start": 46.5767,
      "duration": 0.5885,
      "velocity": 100,
      "chip": "ym2612"
    },
    {
      "channel": 2,
      "note": 71,
      "start": 46.5773,
      "duration": 0.0146,
      "velocity": 100,
      "chip": "ym2612"
    },
    {
      "channel": 3,
      "note": 76,
      "start": 46.5779,
      "duration": 0.898,
      "velocity": 100,
      "chip": "ym2612"
    },
    {
      "channel": 2,
      "note": 69,
      "start": 46.5945,
      "duration": 0.1082,
      "velocity": 100,
      "chip": "ym2612"
    },
    {
      "channel": 4,
      "note": 78,
      "start": 46.6261,
      "duration": 0.7467,
      "velocity": 95,
      "chip": "ym2612"
    },
    {
      "channel": 2,
      "note": 67,
      "start": 46.7287,
      "duration": 0.7468,
      "velocity": 100,
      "chip": "ym2612"
    },
    {
      "channel": 0,
      "note": 55,
      "start": 47.0382,
      "duration": 0.2043,
      "velocity": 91,
      "chip": "ym2612"
    },
    {
      "channel": 1,
      "note": 85,
      "start": 47.1912,
      "duration": 0.1293,
      "velocity": 100,
      "chip": "ym2612"
    },
    {
      "channel": 1,
      "note": 86,
      "start": 47.3463,
      "duration": 0.129,
      "velocity": 100,
      "chip": "ym2612"
    },
    {
      "channel": 4,
      "note": 83,
      "start": 47.3988,
      "duration": 0.1088,
      "velocity": 95,
      "chip": "ym2612"
    },
    {
      "channel": 0,
      "note": 55,
      "start": 47.501,
      "duration": 0.2046,
      "velocity": 91,
      "chip": "ym2612"
    },
    {
      "channel": 1,
      "note": 90,
      "start": 47.5015,
      "duration": 0.3232,
      "velocity": 100,
      "chip": "ym2612"
    },
    {
      "channel": 2,
      "note": 74,
      "start": 47.5021,
      "duration": 0.323,
      "velocity": 100,
      "chip": "ym2612"
    },
    {
      "channel": 3,
      "note": 78,
      "start": 47.5028,
      "duration": 0.3226,
      "velocity": 100,
      "chip": "ym2612"
    },
    {
      "channel": 4,
      "note": 85,
      "start": 47.5108,
      "duration": 0.0149,
      "velocity": 95,
      "chip": "ym2612"
    },
    {
      "channel": 4,
      "note": 86,
      "start": 47.5518,
      "duration": 0.2972,
      "velocity": 95,
      "chip": "ym2612"
    },
    {
      "channel": 0,
      "note": 55,
      "start": 47.8273,
      "duration": 0.107,
      "velocity": 91,
      "chip": "ym2612"
    },
    {
      "channel": 1,
      "note": 95,
      "start": 47.8283,
      "duration": 0.2246,
      "velocity": 100,
      "chip": "ym2612"
    },
    {
      "channel": 2,
      "note": 71,
      "start": 47.8288,
      "duration": 0.2244,
      "velocity": 100,
      "chip": "ym2612"
    },
    {
      "channel": 3,
      "note": 86,
      "start": 47.8294,
      "duration": 0.2241,
      "velocity": 100,
      "chip": "ym2612"
    },
    {
      "channel": 4,
      "note": 90,
      "start": 47.8521,
      "duration": 0.2274,
      "velocity": 95,
      "chip": "ym2612"
    },
    {
      "channel": 0,
      "note": 54,
      "start": 48.0555,
      "duration": 0.2033,
      "velocity": 91,
      "chip": "ym2612"
    },
    {
      "channel": 1,
      "note": 93,
      "start": 48.0561,
      "duration": 0.8986,
      "velocity": 100,
      "chip": "ym2612"
    },
    {
      "channel": 2,
      "note": 69,
      "start": 48.0566,
      "duration": 0.485,
      "velocity": 100,
      "chip": "ym2612"
    },
    {
      "channel": 3,
      "note": 86,
      "start": 48.0572,
      "duration": 0.8981,
      "velocity": 100,
      "chip": "ym2612"
    },
    {
      "channel": 4,
      "note": 95,
      "start": 48.1051,
      "duration": 0.8993,
      "velocity": 95,
      "chip": "ym2612"
    },
    {
      "channel": 0,
      "note": 54,
      "start": 48.5173,
      "duration": 0.2047,
      "velocity": 91,
      "chip": "ym2612"
    },
    {
      "channel": 2,
      "note": 68,
      "start": 48.5676,
      "duration": 0.1806,
      "velocity": 100,
      "chip": "ym2612"
    },
    {
      "channel": 2,
      "note": 67,
      "start": 48.7743,
      "duration": 0.1807,
      "velocity": 100,
      "chip": "ym2612"
    },
    {
      "channel": 0,
      "note": 54,
      "start": 48.9804,
      "duration": 0.2037,
      "velocity": 91,
      "chip": "ym2612"
    },
    {
      "channel": 2,
      "note": 66,
      "start": 48.9813,
      "duration": 0.5539,
      "velocity": 100,
      "chip": "ym2612"
    },
    {
      "channel": 1,
      "note": 73,
      "start": 49.1332,
      "duration": 0.1287,
      "velocity": 100,
      "chip": "ym2612"
    },
    {
      "channel": 1,
      "note": 78,
      "start": 49.2879,
      "duration": 0.0178,
      "velocity": 100,
      "chip": "ym2612"
    },
    {
      "channel": 4,
      "note": 93,
      "start": 49.2964,
      "duration": 0.0187,
      "velocity": 95,
      "chip": "ym2612"
    },
    {
      "channel": 0,
      "note": 54,
      "start": 49.3088,
      "duration": 0.1068,
      "velocity": 91,
      "chip": "ym2612"
    },
    {
      "channel": 1,
      "note": 81,
      "start": 49.3093,
      "duration": 0.0153,
      "velocity": 100,
      "chip": "ym2612"
    },
    {
      "channel": 3,
      "note": 85,
      "start": 49.3102,
      "duration": 0.015,
      "velocity": 100,
      "chip": "ym2612"
    },
    {
      "channel": 4,
      "note": 73,
      "start": 49.3179,
      "duration": 0.0139,
      "velocity": 95,
      "chip": "ym2612"
    },
    {
      "channel": 1,
      "note": 85,
      "start": 49.3273,
      "duration": 0.0146,
      "velocity": 100,
      "chip": "ym2612"
    },
    {
      "channel": 3,
      "note": 73,
      "start": 49.3284,
      "duration": 0.0142,
      "velocity": 100,
      "chip": "ym2612"
    },
    {
      "channel": 4,
      "note": 78,
      "start": 49.3349,
      "duration": 0.0559,
      "velocity": 95,
      "chip": "ym2612"
    },
    {
      "channel": 1,
      "note": 90,
      "start": 49.3643,
      "duration": 0.129,
      "velocity": 100,
      "chip": "ym2612"
    },
    {
      "channel": 3,
      "note": 78,
      "start": 49.3652,
      "duration": 0.1288,
      "velocity": 100,
      "chip": "ym2612"
    },
    {
      "channel": 4,
      "note": 81,
      "start": 49.4169,
      "duration": 0.108,
      "velocity": 95,
      "chip": "ym2612"
    },
    {
      "channel": 1,
      "note": 93,
      "start": 49.5193,
      "duration": 0.0156,
      "velocity": 100,
      "chip": "ym2612"
    },
    {
      "channel": 3,
      "note": 81,
      "start": 49.5202,
      "duration": 0.0153,
      "velocity": 100,
      "chip": "ym2612"
    },
    {
      "channel": 4,
      "note": 85,
      "start": 49.5277,
      "duration": 0.0171,
      "velocity": 95,
      "chip": "ym2612"
    },
    {
      "channel": 0,
      "note": 52,
      "start": 49.538,
      "duration": 0.2046,
      "velocity": 91,
      "chip": "ym2612"
    },
    {
      "channel": 1,
      "note": 95,
      "start": 49.5385,
      "duration": 0.0235,
      "velocity": 100,
      "chip": "ym2612"
    },
    {
      "channel": 2,
      "note": 64,
      "start": 49.539,
      "duration": 1.2764,
      "velocity": 100,
      "chip": "ym2612"
    },
    {
      "channel": 3,
      "note": 85,
      "start": 49.5397,
      "duration": 0.0229,
      "velocity": 100,
      "chip": "ym2612"
    },
    {
      "channel": 4,
      "note": 90,
      "start": 49.5476,
      "duration": 0.0154,
      "velocity": 95,
      "chip": "ym2612"
    },
    {
      "channel": 1,
      "note": 93,
      "start": 49.588,
      "duration": 0.1808,
      "velocity": 100,
      "chip": "ym2612"
    },
    {
      "channel": 3,
      "note": 86,
      "start": 49.5889,
      "duration": 0.1807,
      "velocity": 100,
      "chip": "ym2612"
    },
    {
      "channel": 4,
      "note": 93,
      "start": 49.5895,
      "duration": 0.1805,
      "velocity": 95,
      "chip": "ym2612"
    },
    {
      "channel": 1,
      "note": 95,
      "start": 49.7947,
      "duration": 0.1807,
      "velocity": 100,
      "chip": "ym2612"
    },
    {
      "channel": 3,
      "note": 86,
      "start": 49.7955,
      "duration": 0.1804,
      "velocity": 100,
      "chip": "ym2612"
    },
    {
      "channel": 4,
      "note": 95,
      "start": 49.7962,
      "duration": 0.1801,
      "velocity": 95,
      "chip": "ym2612"
    },
    {
      "channel": 0,
      "note": 52,
      "start": 50.0011,
      "duration": 0.2041,
      "velocity": 91,
      "chip": "ym2612"
    },
    {
      "channel": 1,
      "note": 88,
      "start": 50.0017,
      "duration": 1.0171,
      "velocity": 100,
      "chip": "ym2612"
    },
    {
      "channel": 3,
      "note": 86,
      "start": 50.0027,
      "duration": 1.0167,
      "velocity": 100,
      "chip": "ym2612"
    },
    {
      "channel": 4,
      "note": 93,
      "start": 50.0036,
      "duration": 0.0218,
      "velocity": 95,
      "chip": "ym2612"
    },
    {
      "channel": 4,
      "note": 95,
      "start": 50.0516,
      "duration": 0.9936,
      "velocity": 95,
      "chip": "ym2612"
    },
    {
      "channel": 0,
      "note": 52,
      "start": 50.4639,
      "duration": 0.2037,
      "velocity": 91,
      "chip": "ym2612"
    },
    {
      "channel": 0,
      "note": 52,
      "start": 50.7935,
      "duration": 0.107,
      "velocity": 91,
      "chip": "ym2612"
    },
    {
      "channel": 2,
      "note": 64,
      "start": 50.8182,
      "duration": 0.1086,
      "velocity": 100,
      "chip": "ym2612"
    },
    {
      "channel": 2,
      "note": 66,
      "start": 50.953,
      "duration": 0.0661,
      "velocity": 100,
      "chip": "ym2612"
    },
    {
      "channel": 0,
      "note": 55,
      "start": 51.0216,
      "duration": 0.2036,
      "velocity": 91,
      "chip": "ym2612"
    },
    {
      "channel": 1,
      "note": 95,
      "start": 51.0221,
      "duration": 0.0222,
      "velocity": 100,
      "chip": "ym2612"
    },
    {
      "channel": 2,
      "note": 67,
      "start": 51.0226,
      "duration": 1.2478,
      "velocity": 100,
      "chip": "ym2612"
    },
    {
      "channel": 3,
      "note": 79,
      "start": 51.0233,
      "duration": 0.0215,
      "velocity": 100,
      "chip": "ym2612"
    },
    {
      "channel": 1,
      "note": 93,
      "start": 51.0703,
      "duration": 0.1806,
      "velocity": 100,
      "chip": "ym2612"
    },
    {
      "channel": 3,
      "note": 86,
      "start": 51.0712,
      "duration": 0.1803,
      "velocity": 100,
      "chip": "ym2612"
    },
    {
      "channel": 4,
      "note": 88,
      "start": 51.0718,
      "duration": 0.18,
      "velocity": 95,
      "chip": "ym2612"
    },
    {
      "channel": 1,
      "note": 95,
      "start": 51.277,
      "duration": 0.1807,
      "velocity": 100,
      "chip": "ym2612"
    },
    {
      "channel": 3,
      "note": 86,
      "start": 51.2778,
      "duration": 0.1805,
      "velocity": 100,
      "chip": "ym2612"
    },
    {
      "channel": 4,
      "note": 95,
      "start": 51.2785,
      "duration": 0.1806,
      "velocity": 95,
      "chip": "ym2612"
    },
    {
      "channel": 0,
      "note": 55,
      "start": 51.4834,
      "duration": 0.2034,
      "velocity": 91,
      "chip": "ym2612"
    },
    {
      "channel": 1,
      "note": 88,
      "start": 51.4839,
      "duration": 1.0147,
      "velocity": 100,
      "chip": "ym2612"
    },
    {
      "channel": 3,
      "note": 86,
      "start": 51.4848,
      "duration": 1.0145,
      "velocity": 100,
      "chip": "ym2612"
    },
    {
      "channel": 4,
      "note": 93,
      "start": 51.4855,
      "duration": 0.0215,
      "velocity": 95,
      "chip": "ym2612"
    },
    {
      "channel": 4,
      "note": 95,
      "start": 51.5332,
      "duration": 0.9914,
      "velocity": 95,
      "chip": "ym2612"
    },
    {
      "channel": 0,
      "note": 55,
      "start": 51.9453,
      "duration": 0.2038,
      "velocity": 91,
      "chip": "ym2612"
    },
    {
      "channel": 0,
      "note": 55,
      "start": 52.2731,
      "duration": 0.1069,
      "velocity": 91,
      "chip": "ym2612"
    },
    {
      "channel": 2,
      "note": 67,
      "start": 52.2739,
      "duration": 0.0213,
      "velocity": 100,
      "chip": "ym2612"
    },
    {
      "channel": 2,
      "note": 66,
      "start": 52.298,
      "duration": 0.1086,
      "velocity": 100,
      "chip": "ym2612"
    },
    {
      "channel": 2,
      "note": 64,
      "start": 52.4323,
      "duration": 0.0666,
      "velocity": 100,
      "chip": "ym2612"
    },
    {
      "channel": 0,
      "note": 54,
      "start": 52.5014,
      "duration": 0.2028,
      "velocity": 91,
      "chip": "ym2612"
    },
    {
      "channel": 1,
      "note": 95,
      "start": 52.502,
      "duration": 0.0217,
      "velocity": 100,
      "chip": "ym2612"
    },
    {
      "channel": 2,
      "note": 66,
      "start": 52.5028,
      "duration": 1.2839,
      "velocity": 100,
      "chip": "ym2612"
    },
    {
      "channel": 3,
      "note": 83,
      "start": 52.5034,
      "duration": 0.0208,
      "velocity": 100,
      "chip": "ym2612"
    },
    {
      "channel": 1,
      "note": 94,
      "start": 52.5497,
      "duration": 0.1806,
      "velocity": 100,
      "chip": "ym2612"
    },
    {
      "channel": 3,
      "note": 88,
      "start": 52.5506,
      "duration": 0.1803,
      "velocity": 100,
      "chip": "ym2612"
    },
    {
      "channel": 4,
      "note": 88,
      "start": 52.5512,
      "duration": 0.18,
      "velocity": 95,
      "chip": "ym2612"
    },
    {
      "channel": 1,
      "note": 95,
      "start": 52.7563,
      "duration": 0.1807,
      "velocity": 100,
      "chip": "ym2612"
    },
    {
      "channel": 3,
      "note": 88,
      "start": 52.7572,
      "duration": 0.1804,
      "velocity": 100,
      "chip": "ym2612"
    },
    {
      "channel": 4,
      "note": 95,
      "start": 52.7579,
      "duration": 0.1801,
      "velocity": 95,
      "chip": "ym2612"
    },
    {
      "channel": 0,
      "note": 54,
      "start": 52.9628,
      "duration": 0.2039,
      "velocity": 91,
      "chip": "ym2612"
    },
    {
      "channel": 1,
      "note": 90,
      "start": 52.9633,
      "duration": 1.0171,
      "velocity": 100,
      "chip": "ym2612"
    },
    {
      "channel": 3,
      "note": 88,
      "start": 52.9642,
      "duration": 1.0169,
      "velocity": 100,
      "chip": "ym2612"
    },
    {
      "channel": 4,
      "note": 94,
      "start": 52.9649,
      "duration": 0.0222,
      "velocity": 95,
      "chip": "ym2612"
    },
    {
      "channel": 4,
      "note": 95,
      "start": 53.013,
      "duration": 0.9949,
      "velocity": 95,
      "chip": "ym2612"
    },
    {
      "channel": 0,
      "note": 54,
      "start": 53.4252,
      "duration": 0.2045,
      "velocity": 91,
      "chip": "ym2612"
    },
    {
      "channel": 0,
      "note": 54,
      "start": 53.7537,
      "duration": 0.1073,
      "velocity": 91,
      "chip": "ym2612"
    },
    {
      "channel": 2,
      "note": 60,
      "start": 53.8106,
      "duration": 0.1285,
      "velocity": 100,
      "chip": "ym2612"
    },
    {
      "channel": 2,
      "note": 61,
      "start": 53.9651,
      "duration": 0.0156,
      "velocity": 100,
      "chip": "ym2612"
    },
    {
      "channel": 0,
      "note": 42,
      "start": 53.9841,
      "duration": 0.2036,
      "velocity": 91,
      "chip": "ym2612"
    },
    {
      "channel": 1,
      "note": 97,
      "start": 53.9846,
      "duration": 0.0224,
      "velocity": 100,
      "chip": "ym2612"
    },
    {
      "channel": 2,
      "note": 54,
      "start": 53.9851,
      "duration": 0.8958,
      "velocity": 100,
      "chip": "ym2612"
    },
    {
      "channel": 3,
      "note": 85,
      "start": 53.9858,
      "duration": 0.0218,
      "velocity": 100,
      "chip": "ym2612"
    },
    {
      "channel": 1,
      "note": 95,
      "start": 54.0332,
      "duration": 0.1805,
      "velocity": 100,
      "chip": "ym2612"
    },
    {
      "channel": 3,
      "note": 90,
      "start": 54.0343,
      "duration": 0.1799,
      "velocity": 100,
      "chip": "ym2612"
    },
    {
      "channel": 4,
      "note": 90,
      "start": 54.035,
      "duration": 0.1796,
      "velocity": 95,
      "chip": "ym2612"
    },
    {
      "channel": 1,
      "note": 97,
      "start": 54.2397,
      "duration": 0.1807,
      "velocity": 100,
      "chip": "ym2612"
    },
    {
      "channel": 3,
      "note": 90,
      "start": 54.2405,
      "duration": 0.1804,
      "velocity": 100,
      "chip": "ym2612"
    },
    {
      "channel": 4,
      "note": 97,
      "start": 54.2412,
      "duration": 0.1801,
      "velocity": 95,
      "chip": "ym2612"
    },
    {
      "channel": 0,
      "note": 42,
      "start": 54.4461,
      "duration": 0.1068,
      "velocity": 91,
      "chip": "ym2612"
    },
    {
      "channel": 1,
      "note": 90,
      "start": 54.4467,
      "duration": 0.5093,
      "velocity": 100,
      "chip": "ym2612"
    },
    {
      "channel": 3,
      "note": 90,
      "start": 54.4476,
      "duration": 0.509,
      "velocity": 100,
      "chip": "ym2612"
    },
    {
      "channel": 4,
      "note": 95,
      "start": 54.4482,
      "duration": 0.0207,
      "velocity": 95,
      "chip": "ym2612"
    },
    {
      "channel": 4,
      "note": 97,
      "start": 54.4717,
      "duration": 0.5127,
      "velocity": 95,
      "chip": "ym2612"
    },
    {
      "channel": 0,
      "note": 42,
      "start": 54.8115,
      "duration": 0.0429,
      "velocity": 91,
      "chip": "ym2612"
    },
    {
      "channel": 0,
      "note": 54,
      "start": 54.8837,
      "duration": 0.015,
      "velocity": 91,
      "chip": "ym2612"
    },
    {
      "channel": 2,
      "note": 66,
      "start": 54.8845,
      "duration": 0.0147,
      "velocity": 100,
      "chip": "ym2612"
    },
    {
      "channel": 0,
      "note": 52,
      "start": 54.9016,
      "duration": 0.0159,
      "velocity": 91,
      "chip": "ym2612"
    },
    {
      "channel": 2,
      "note": 64,
      "start": 54.9024,
      "duration": 0.0156,
      "velocity": 100,
      "chip": "ym2612"
    },
    {
      "channel": 0,
      "note": 50,
      "start": 54.9202,
      "duration": 0.0161,
      "velocity": 91,
      "chip": "ym2612"
    },
    {
      "channel": 2,
      "note": 62,
      "start": 54.921,
      "duration": 0.0159,
      "velocity": 100,
      "chip": "ym2612"
    },
    {
      "channel": 0,
      "note": 49,
      "start": 54.9391,
      "duration": 0.0165,
      "velocity": 91,
      "chip": "ym2612"
    },
    {
      "channel": 2,
      "note": 61,
      "start": 54.9399,
      "duration": 0.0163,
      "velocity": 100,
      "chip": "ym2612"
    },
    {
      "channel": 0,
      "note": 47,
      "start": 54.9597,
      "duration": 0.4366,
      "velocity": 91,
      "chip": "ym2612"
    },
    {
      "channel": 2,
      "note": 59,
      "start": 54.9607,
      "duration": 0.1261,
      "velocity": 100,
      "chip": "ym2612"
    },
    {
      "channel": 1,
      "note": 81,
      "start": 55.4227,
      "duration": 0.5939,
      "velocity": 100,
      "chip": "ym2612"
    },
    {
      "channel": 4,
      "note": 90,
      "start": 55.6301,
      "duration": 0.5939,
      "velocity": 95,
      "chip": "ym2612"
    },
    {
      "channel": 3,
      "note": 85,
      "start": 55.7362,
      "duration": 0.5909,
      "velocity": 100,
      "chip": "ym2612"
    },
    {
      "channel": 1,
      "note": 80,
      "start": 56.0426,
      "duration": 0.5939,
      "velocity": 100,
      "chip": "ym2612"
    },
    {
      "channel": 4,
      "note": 81,
      "start": 56.2501,
      "duration": 0.5939,
      "velocity": 95,
      "chip": "ym2612"
    },
    {
      "channel": 3,
      "note": 81,
      "start": 56.3534,
      "duration": 0.5936,
      "velocity": 100,
      "chip": "ym2612"
    },
    {
      "channel": 1,
      "note": 76,
      "start": 56.6625,
      "duration": 0.5939,
      "velocity": 100,
      "chip": "ym2612"
    },
    {
      "channel": 4,
      "note": 80,
      "start": 56.8703,
      "duration": 0.5935,
      "velocity": 95,
      "chip": "ym2612"
    },
    {
      "channel": 3,
      "note": 80,
      "start": 56.9731,
      "duration": 0.5939,
      "velocity": 100,
      "chip": "ym2612"
    },
    {
      "channel": 1,
      "note": 74,
      "start": 57.2826,
      "duration": 0.1288,
      "velocity": 100,
      "chip": "ym2612"
    },
    {
      "channel": 1,
      "note": 76,
      "start": 57.4378,
      "duration": 0.1285,
      "velocity": 100,
      "chip": "ym2612"
    },
    {
      "channel": 4,
      "note": 76,
      "start": 57.49,
      "duration": 0.1289,
      "velocity": 95,
      "chip": "ym2612"
    },
    {
      "channel": 1,
      "note": 78,
      "start": 57.5924,
      "duration": 1.0782,
      "velocity": 100,
      "chip": "ym2612"
    },
    {
      "channel": 3,
      "note": 76,
      "start": 57.5933,
      "duration": 0.1286,
      "velocity": 100,
      "chip": "ym2612"
    },
    {
      "channel": 4,
      "note": 74,
      "start": 57.645,
      "duration": 0.1289,
      "velocity": 95,
      "chip": "ym2612"
    },
    {
      "channel": 3,
      "note": 74,
      "start": 57.748,
      "duration": 0.129,
      "velocity": 100,
      "chip": "ym2612"
    },
    {
      "channel": 4,
      "note": 76,
      "start": 57.8,
      "duration": 0.8987,
      "velocity": 95,
      "chip": "ym2612"
    },
    {
      "channel": 3,
      "note": 76,
      "start": 57.9032,
      "duration": 0.8985,
      "velocity": 100,
      "chip": "ym2612"
    },
    {
      "channel": 0,
      "note": 54,
      "start": 58.5945,
      "duration": 0.0134,
      "velocity": 91,
      "chip": "ym2612"
    },
    {
      "channel": 2,
      "note": 66,
      "start": 58.5953,
      "duration": 0.0099,
      "velocity": 100,
      "chip": "ym2612"
    },
    {
      "channel": 0,
      "note": 52,
      "start": 58.6081,
      "duration": 0.0126,
      "velocity": 91,
      "chip": "ym2612"
    },
    {
      "channel": 2,
      "note": 64,
      "start": 58.6089,
      "duration": 0.009,
      "velocity": 100,
      "chip": "ym2612"
    },
    {
      "channel": 0,
      "note": 51,
      "start": 58.6209,
      "duration": 0.0121,
      "velocity": 91,
      "chip": "ym2612"
    },
    {
      "channel": 2,
      "note": 63,
      "start": 58.6217,
      "duration": 0.0086,
      "velocity": 100,
      "chip": "ym2612"
    },
    {
      "channel": 0,
      "note": 50,
      "start": 58.6333,
      "duration": 0.0143,
      "velocity": 91,
      "chip": "ym2612"
    },
    {
      "channel": 2,
      "note": 62,
      "start": 58.6341,
      "duration": 0.0105,
      "velocity": 100,
      "chip": "ym2612"
    },
    {
      "channel": 0,
      "note": 49,
      "start": 58.6479,
      "duration": 0.0124,
      "velocity": 91,
      "chip": "ym2612"
    },
    {
      "channel": 2,
      "note": 61,
      "start": 58.649,
      "duration": 0.0088,
      "velocity": 100,
      "chip": "ym2612"
    },
    {
      "channel": 0,
      "note": 48,
      "start": 58.6605,
      "duration": 0.0134,
      "velocity": 91,
      "chip": "ym2612"
    },
    {
      "channel": 2,
      "note": 60,
      "start": 58.6613,
      "duration": 0.0098,
      "velocity": 100,
      "chip": "ym2612"
    },
    {
      "channel": 0,
      "note": 47,
      "start": 58.6743,
      "duration": 0.4624,
      "velocity": 91,
      "chip": "ym2612"
    },
    {
      "channel": 2,
      "note": 59,
      "start": 58.6753,
      "duration": 0.126,
      "velocity": 100,
      "chip": "ym2612"
    },
    {
      "channel": 1,
      "note": 81,
      "start": 59.1373,
      "duration": 0.5938,
      "velocity": 100,
      "chip": "ym2612"
    },
    {
      "channel": 4,
      "note": 78,
      "start": 59.3448,
      "duration": 0.5939,
      "velocity": 95,
      "chip": "ym2612"
    },
    {
      "channel": 3,
      "note": 78,
      "start": 59.4477,
      "duration": 0.5939,
      "velocity": 100,
      "chip": "ym2612"
    },
    {
      "channel": 1,
      "note": 80,
      "start": 59.7572,
      "duration": 0.5939,
      "velocity": 100,
      "chip": "ym2612"
    },
    {
      "channel": 4,
      "note": 81,
      "start": 59.965,
      "duration": 0.5936,
      "velocity": 95,
      "chip": "ym2612"
    },
    {
      "channel": 3,
      "note": 81,
      "start": 60.0677,
      "duration": 0.5939,
      "velocity": 100,
      "chip": "ym2612"
    },
    {
      "channel": 1,
      "note": 85,
      "start": 60.3771,
      "duration": 0.5939,
      "velocity": 100,
      "chip": "ym2612"
    },
    {
      "channel": 4,
      "note": 80,
      "start": 60.5846,
      "duration": 0.5938,
      "velocity": 95,
      "chip": "ym2612"
    },
    {
      "channel": 3,
      "note": 80,
      "start": 60.6877,
      "duration": 0.5942,
      "velocity": 100,
      "chip": "ym2612"
    },
    {
      "channel": 1,
      "note": 86,
      "start": 60.9973,
      "duration": 0.1287,
      "velocity": 100,
      "chip": "ym2612"
    },
    {
      "channel": 1,
      "note": 88,
      "start": 61.1521,
      "duration": 0.129,
      "velocity": 100,
      "chip": "ym2612"
    },
    {
      "channel": 4,
      "note": 85,
      "start": 61.2046,
      "duration": 0.1289,
      "velocity": 95,
      "chip": "ym2612"
    },
    {
      "channel": 1,
      "note": 90,
      "start": 61.3071,
      "duration": 1.023,
      "velocity": 100,
      "chip": "ym2612"
    },
    {
      "channel": 3,
      "note": 85,
      "start": 61.3079,
      "duration": 0.1286,
      "velocity": 100,
      "chip": "ym2612"
    },
    {
      "channel": 4,
      "note": 86,
      "start": 61.3596,
      "duration": 0.1289,
      "velocity": 95,
      "chip": "ym2612"
    },
    {
      "channel": 3,
      "note": 86,
      "start": 61.4626,
      "duration": 0.129,
      "velocity": 100,
      "chip": "ym2612"
    },
    {
      "channel": 4,
      "note": 88,
      "start": 61.5146,
      "duration": 0.8429,
      "velocity": 95,
      "chip": "ym2612"
    },
    {
      "channel": 3,
      "note": 88,
      "start": 61.6176,
      "duration": 0.7524,
      "velocity": 100,
      "chip": "ym2612"
    },
    {
      "channel": 0,
      "note": 54,
      "start": 62.3082,
      "duration": 0.0125,
      "velocity": 91,
      "chip": "ym2612"
    },
    {
      "channel": 2,
      "note": 66,
      "start": 62.309,
      "duration": 0.0093,
      "velocity": 100,
      "chip": "ym2612"
    },
    {
      "channel": 0,
      "note": 52,
      "start": 62.321,
      "duration": 0.0121,
      "velocity": 91,
      "chip": "ym2612"
    },
    {
      "channel": 2,
      "note": 64,
      "start": 62.3218,
      "duration": 0.0086,
      "velocity": 100,
      "chip": "ym2612"
    },
    {
      "channel": 0,
      "note": 51,
      "start": 62.3333,
      "duration": 0.0127,
      "velocity": 91,
      "chip": "ym2612"
    },
    {
      "channel": 1,
      "note": 91,
      "start": 62.3339,
      "duration": 0.0227,
      "velocity": 100,
      "chip": "ym2612"
    },
    {
      "channel": 2,
      "note": 63,
      "start": 62.3344,
      "duration": 0.0094,
      "velocity": 100,
      "chip": "ym2612"
    },
    {
      "channel": 0,
      "note": 50,
      "start": 62.3462,
      "duration": 0.0133,
      "velocity": 91,
      "chip": "ym2612"
    },
    {
      "channel": 2,
      "note": 62,
      "start": 62.3473,
      "duration": 0.0096,
      "velocity": 100,
      "chip": "ym2612"
    },
    {
      "channel": 0,
      "note": 49,
      "start": 62.3598,
      "duration": 0.0124,
      "velocity": 91,
      "chip": "ym2612"
    },
    {
      "channel": 1,
      "note": 93,
      "start": 62.3603,
      "duration": 0.023,
      "velocity": 100,
      "chip": "ym2612"
    },
    {
      "channel": 2,
      "note": 61,
      "start": 62.3608,
      "duration": 0.0088,
      "velocity": 100,
      "chip": "ym2612"
    },
    {
      "channel": 4,
      "note": 90,
      "start": 62.3618,
      "duration": 0.0225,
      "velocity": 95,
      "chip": "ym2612"
    },
    {
      "channel": 0,
      "note": 48,
      "start": 62.3724,
      "duration": 0.0141,
      "velocity": 91,
      "chip": "ym2612"
    },
    {
      "channel": 2,
      "note": 60,
      "start": 62.3732,
      "duration": 0.0105,
      "velocity": 100,
      "chip": "ym2612"
    },
    {
      "channel": 3,
      "note": 90,
      "start": 62.3738,
      "duration": 0.0102,
      "velocity": 100,
      "chip": "ym2612"
    },
    {
      "channel": 0,
      "note": 47,
      "start": 62.3869,
      "duration": 0.1061,
      "velocity": 91,
      "chip": "ym2612"
    },
    {
      "channel": 1,
      "note": 95,
      "start": 62.3875,
      "duration": 0.0352,
      "velocity": 100,
      "chip": "ym2612"
    },
    {
      "channel": 2,
      "note": 59,
      "start": 62.3881,
      "duration": 0.0348,
      "velocity": 100,
      "chip": "ym2612"
    },
    {
      "channel": 3,
      "note": 91,
      "start": 62.3914,
      "duration": 0.0319,
      "velocity": 100,
      "chip": "ym2612"
    },
    {
      "channel": 4,
      "note": 91,
      "start": 62.392,
      "duration": 0.0204,
      "velocity": 95,
      "chip": "ym2612"
    },
    {
      "channel": 4,
      "note": 93,
      "start": 62.4157,
      "duration": 0.0324,
      "velocity": 95,
      "chip": "ym2612"
    },
    {
      "channel": 1,
      "note": 83,
      "start": 62.4254,
      "duration": 0.0088,
      "velocity": 100,
      "chip": "ym2612"
    },
    {
      "channel": 3,
      "note": 90,
      "start": 62.4264,
      "duration": 0.0083,
      "velocity": 100,
      "chip": "ym2612"
    },
    {
      "channel": 1,
      "note": 83,
      "start": 62.4371,
      "duration": 0.0097,
      "velocity": 100,
      "chip": "ym2612"
    },
    {
      "channel": 3,
      "note": 78,
      "start": 62.4379,
      "duration": 0.0098,
      "velocity": 100,
      "chip": "ym2612"
    },
    {
      "channel": 1,
      "note": 83,
      "start": 62.4499,
      "duration": 0.0085,
      "velocity": 100,
      "chip": "ym2612"
    },
    {
      "channel": 3,
      "note": 78,
      "start": 62.4508,
      "duration": 0.0082,
      "velocity": 100,
      "chip": "ym2612"
    },
    {
      "channel": 4,
      "note": 95,
      "start": 62.4514,
      "duration": 0.0079,
      "velocity": 95,
      "chip": "ym2612"
    },
    {
      "channel": 1,
      "note": 83,
      "start": 62.4613,
      "duration": 0.0988,
      "velocity": 100,
      "chip": "ym2612"
    },
    {
      "channel": 3,
      "note": 78,
      "start": 62.4621,
      "duration": 0.0986,
      "velocity": 100,
      "chip": "ym2612"
    },
    {
      "channel": 4,
      "note": 83,
      "start": 62.4628,
      "duration": 0.0087,
      "velocity": 95,
      "chip": "ym2612"
    },
    {
      "channel": 4,
      "note": 83,
      "start": 62.4743,
      "duration": 0.0092,
      "velocity": 95,
      "chip": "ym2612"
    },
    {
      "channel": 4,
      "note": 83,
      "start": 62.4863,
      "duration": 0.1005,
      "velocity": 95,
      "chip": "ym2612"
    },
    {
      "channel": 0,
      "note": 47,
      "start": 62.4958,
      "duration": 0.0082,
      "velocity": 91,
      "chip": "ym2612"
    },
    {
      "channel": 2,
      "note": 59,
      "start": 62.4966,
      "duration": 0.008,
      "velocity": 100,
      "chip": "ym2612"
    },
    {
      "channel": 0,
      "note": 47,
      "start": 62.5071,
      "duration": 0.0087,
      "velocity": 91,
      "chip": "ym2612"
    },
    {
      "channel": 2,
      "note": 59,
      "start": 62.5079,
      "duration": 0.0084,
      "velocity": 100,
      "chip": "ym2612"
    },
    {
      "channel": 0,
      "note": 47,
      "start": 62.5185,
      "duration": 0.0078,
      "velocity": 91,
      "chip": "ym2612"
    },
    {
      "channel": 2,
      "note": 59,
      "start": 62.5193,
      "duration": 0.0076,
      "velocity": 100,
      "chip": "ym2612"
    },
    {
      "channel": 0,
      "note": 47,
      "start": 62.5293,
      "duration": 0.1039,
      "velocity": 91,
      "chip": "ym2612"
    },
    {
      "channel": 2,
      "note": 59,
      "start": 62.5301,
      "duration": 0.0303,
      "velocity": 100,
      "chip": "ym2612"
    },
    {
      "channel": 1,
      "note": 83,
      "start": 62.5639,
      "duration": 0.0089,
      "velocity": 100,
      "chip": "ym2612"
    },
    {
      "channel": 3,
      "note": 78,
      "start": 62.5648,
      "duration": 0.0085,
      "velocity": 100,
      "chip": "ym2612"
    },
    {
      "channel": 1,
      "note": 83,
      "start": 62.5757,
      "duration": 0.0102,
      "velocity": 100,
      "chip": "ym2612"
    },
    {
      "channel": 3,
      "note": 78,
      "start": 62.5765,
      "duration": 0.0099,
      "velocity": 100,
      "chip": "ym2612"
    },
    {
      "channel": 1,
      "note": 83,
      "start": 62.5888,
      "duration": 0.0092,
      "velocity": 100,
      "chip": "ym2612"
    },
    {
      "channel": 3,
      "note": 78,
      "start": 62.5897,
      "duration": 0.0089,
      "velocity": 100,
      "chip": "ym2612"
    },
    {
      "channel": 4,
      "note": 83,
      "start": 62.5904,
      "duration": 0.0086,
      "velocity": 95,
      "chip": "ym2612"
    },
    {
      "channel": 1,
      "note": 83,
      "start": 62.6013,
      "duration": 0.0667,
      "velocity": 100,
      "chip": "ym2612"
    },
    {
      "channel": 3,
      "note": 78,
      "start": 62.6022,
      "duration": 0.0665,
      "velocity": 100,
      "chip": "ym2612"
    },
    {
      "channel": 4,
      "note": 83,
      "start": 62.6028,
      "duration": 0.0082,
      "velocity": 95,
      "chip": "ym2612"
    },
    {
      "channel": 4,
      "note": 83,
      "start": 62.6138,
      "duration": 0.0089,
      "velocity": 95,
      "chip": "ym2612"
    },
    {
      "channel": 4,
      "note": 83,
      "start": 62.6258,
      "duration": 0.0678,
      "velocity": 95,
      "chip": "ym2612"
    },
    {
      "channel": 0,
      "note": 47,
      "start": 62.636,
      "duration": 0.0085,
      "velocity": 91,
      "chip": "ym2612"
    },
    {
      "channel": 2,
      "note": 59,
      "start": 62.6368,
      "duration": 0.0082,
      "velocity": 100,
      "chip": "ym2612"
    },
    {
      "channel": 0,
      "note": 47,
      "start": 62.6474,
      "duration": 0.0089,
      "velocity": 91,
      "chip": "ym2612"
    },
    {
      "channel": 2,
      "note": 59,
      "start": 62.6482,
      "duration": 0.0086,
      "velocity": 100,
      "chip": "ym2612"
    },
    {
      "channel": 0,
      "note": 47,
      "start": 62.6591,
      "duration": 0.0087,
      "velocity": 91,
      "chip": "ym2612"
    },
    {
      "channel": 2,
      "note": 59,
      "start": 62.6602,
      "duration": 0.0082,
      "velocity": 100,
      "chip": "ym2612"
    },
    {
      "channel": 0,
      "note": 48,
      "start": 62.6708,
      "duration": 0.2995,
      "velocity": 91,
      "chip": "ym2612"
    },
    {
      "channel": 1,
      "note": 83,
      "start": 62.6714,
      "duration": 0.1446,
      "velocity": 100,
      "chip": "ym2612"
    },
    {
      "channel": 2,
      "note": 60,
      "start": 62.6719,
      "duration": 0.299,
      "velocity": 100,
      "chip": "ym2612"
    },
    {
      "channel": 3,
      "note": 78,
      "start": 62.6725,
      "duration": 0.1442,
      "velocity": 100,
      "chip": "ym2612"
    },
    {
      "channel": 4,
      "note": 83,
      "start": 62.697,
      "duration": 0.1456,
      "velocity": 95,
      "chip": "ym2612"
    },
    {
      "channel": 1,
      "note": 88,
      "start": 62.8207,
      "duration": 0.0719,
      "velocity": 100,
      "chip": "ym2612"
    },
    {
      "channel": 3,
      "note": 79,
      "start": 62.8216,
      "duration": 0.0716,
      "velocity": 100,
      "chip": "ym2612"
    },
    {
      "channel": 4,
      "note": 83,
      "start": 62.8467,
      "duration": 0.0725,
      "velocity": 95,
      "chip": "ym2612"
    },
    {
      "channel": 1,
      "note": 91,
      "start": 62.8971,
      "duration": 0.0735,
      "velocity": 100,
      "chip": "ym2612"
    },
    {
      "channel": 3,
      "note": 83,
      "start": 62.8979,
      "duration": 0.0733,
      "velocity": 100,
      "chip": "ym2612"
    },
    {
      "channel": 4,
      "note": 88,
      "start": 62.9243,
      "duration": 0.0725,
      "velocity": 95,
      "chip": "ym2612"
    },
    {
      "channel": 0,
      "note": 54,
      "start": 62.9733,
      "duration": 0.1258,
      "velocity": 91,
      "chip": "ym2612"
    },
    {
      "channel": 1,
      "note": 94,
      "start": 62.9738,
      "duration": 0.0147,
      "velocity": 100,
      "chip": "ym2612"
    },
    {
      "channel": 2,
      "note": 66,
      "start": 62.9744,
      "duration": 0.1253,
      "velocity": 100,
      "chip": "ym2612"
    },
    {
      "channel": 3,
      "note": 88,
      "start": 62.975,
      "duration": 0.0141,
      "velocity": 100,
      "chip": "ym2612"
    },
    {
      "channel": 1,
      "note": 91,
      "start": 62.9914,
      "duration": 0.108,
      "velocity": 100,
      "chip": "ym2612"
    },
    {
      "channel": 3,
      "note": 85,
      "start": 62.9922,
      "duration": 0.1078,
      "velocity": 100,
      "chip": "ym2612"
    },
    {
      "channel": 4,
      "note": 91,
      "start": 63.023,
      "duration": 0.1288,
      "velocity": 95,
      "chip": "ym2612"
    },
    {
      "channel": 1,
      "note": 90,
      "start": 63.1255,
      "duration": 0.1288,
      "velocity": 100,
      "chip": "ym2612"
    },
    {
      "channel": 3,
      "note": 91,
      "start": 63.1265,
      "duration": 0.1284,
      "velocity": 100,
      "chip": "ym2612"
    },
    {
      "channel": 4,
      "note": 94,
      "start": 63.1779,
      "duration": 0.1289,
      "velocity": 95,
      "chip": "ym2612"
    },
    {
      "channel": 1,
      "note": 88,
      "start": 63.2804,
      "duration": 0.129,
      "velocity": 100,
      "chip": "ym2612"
    },
    {
      "channel": 3,
      "note": 90,
      "start": 63.2812,
      "duration": 0.1287,
      "velocity": 100,
      "chip": "ym2612"
    },
    {
      "channel": 4,
      "note": 91,
      "start": 63.3329,
      "duration": 0.1289,
      "velocity": 95,
      "chip": "ym2612"
    },
    {
      "channel": 1,
      "note": 86,
      "start": 63.4355,
      "duration": 0.1288,
      "velocity": 100,
      "chip": "ym2612"
    },
    {
      "channel": 3,
      "note": 88,
      "start": 63.4366,
      "duration": 0.1283,
      "velocity": 100,
      "chip": "ym2612"
    },
    {
      "channel": 4,
      "note": 90,
      "start": 63.4882,
      "duration": 0.1286,
      "velocity": 95,
      "chip": "ym2612"
    },
    {
      "channel": 1,
      "note": 85,
      "start": 63.5904,
      "duration": 0.129,
      "velocity": 100,
      "chip": "ym2612"
    },
    {
      "channel": 3,
      "note": 86,
      "start": 63.5912,
      "duration": 0.1288,
      "velocity": 100,
      "chip": "ym2612"
    },
    {
      "channel": 4,
      "note": 88,
      "start": 63.6429,
      "duration": 0.1293,
      "velocity": 95,
      "chip": "ym2612"
    },
    {
      "channel": 1,
      "note": 83,
      "start": 63.7454,
      "duration": 0.1289,
      "velocity": 100,
      "chip": "ym2612"
    },
    {
      "channel": 3,
      "note": 85,
      "start": 63.7462,
      "duration": 0.1286,
      "velocity": 100,
      "chip": "ym2612"
    },
    {
      "channel": 4,
      "note": 86,
      "start": 63.7979,
      "duration": 0.1289,
      "velocity": 95,
      "chip": "ym2612"
    },
    {
      "channel": 1,
      "note": 81,
      "start": 63.9003,
      "duration": 0.129,
      "velocity": 100,
      "chip": "ym2612"
    },
    {
      "channel": 3,
      "note": 83,
      "start": 63.9012,
      "duration": 0.1287,
      "velocity": 100,
      "chip": "ym2612"
    },
    {
      "channel": 4,
      "note": 85,
      "start": 63.9529,
      "duration": 0.129,
      "velocity": 95,
      "chip": "ym2612"
    },
    {
      "channel": 1,
      "note": 79,
      "start": 64.0555,
      "duration": 0.1289,
      "velocity": 100,
      "chip": "ym2612"
    },
    {
      "channel": 3,
      "note": 81,
      "start": 64.0563,
      "duration": 0.1286,
      "velocity": 100,
      "chip": "ym2612"
    },
    {
      "channel": 4,
      "note": 83,
      "start": 64.1079,
      "duration": 0.129,
      "velocity": 95,
      "chip": "ym2612"
    },
    {
      "channel": 1,
      "note": 78,
      "start": 64.2104,
      "duration": 0.1289,
      "velocity": 100,
      "chip": "ym2612"
    },
    {
      "channel": 3,
      "note": 79,
      "start": 64.2113,
      "duration": 0.1286,
      "velocity": 100,
      "chip": "ym2612"
    },
    {
      "channel": 4,
      "note": 81,
      "start": 64.2629,
      "duration": 0.1289,
      "velocity": 95,
      "chip": "ym2612"
    },
    {
      "channel": 1,
      "note": 76,
      "start": 64.3654,
      "duration": 0.1289,
      "velocity": 100,
      "chip": "ym2612"
    },
    {
      "channel": 3,
      "note": 78,
      "start": 64.3663,
      "duration": 0.1286,
      "velocity": 100,
      "chip": "ym2612"
    },
    {
      "channel": 4,
      "note": 79,
      "start": 64.4179,
      "duration": 0.129,
      "velocity": 95,
      "chip": "ym2612"
    },
    {
      "channel": 1,
      "note": 74,
      "start": 64.5203,
      "duration": 0.129,
      "velocity": 100,
      "chip": "ym2612"
    },
    {
      "channel": 3,
      "note": 76,
      "start": 64.5214,
      "duration": 0.1285,
      "velocity": 100,
      "chip": "ym2612"
    },
    {
      "channel": 4,
      "note": 78,
      "start": 64.5732,
      "duration": 0.1286,
      "velocity": 95,
      "chip": "ym2612"
    },
    {
      "channel": 1,
      "note": 73,
      "start": 64.6754,
      "duration": 0.1291,
      "velocity": 100,
      "chip": "ym2612"
    },
    {
      "channel": 3,
      "note": 74,
      "start": 64.6763,
      "duration": 0.1289,
      "velocity": 100,
      "chip": "ym2612"
    },
    {
      "channel": 4,
      "note": 76,
      "start": 64.7279,
      "duration": 0.1291,
      "velocity": 95,
      "chip": "ym2612"
    },
    {
      "channel": 1,
      "note": 71,
      "start": 64.8304,
      "duration": 0.1289,
      "velocity": 100,
      "chip": "ym2612"
    },
    {
      "channel": 3,
      "note": 73,
      "start": 64.8312,
      "duration": 0.1286,
      "velocity": 100,
      "chip": "ym2612"
    },
    {
      "channel": 4,
      "note": 74,
      "start": 64.8829,
      "duration": 0.1289,
      "velocity": 95,
      "chip": "ym2612"
    },
    {
      "channel": 1,
      "note": 69,
      "start": 64.9854,
      "duration": 0.129,
      "velocity": 100,
      "chip": "ym2612"
    },
    {
      "channel": 3,
      "note": 71,
      "start": 64.9862,
      "duration": 0.1287,
      "velocity": 100,
      "chip": "ym2612"
    },
    {
      "channel": 4,
      "note": 73,
      "start": 65.038,
      "duration": 0.1288,
      "velocity": 95,
      "chip": "ym2612"
    },
    {
      "channel": 1,
      "note": 67,
      "start": 65.1403,
      "duration": 0.129,
      "velocity": 100,
      "chip": "ym2612"
    },
    {
      "channel": 3,
      "note": 69,
      "start": 65.1412,
      "duration": 0.1288,
      "velocity": 100,
      "chip": "ym2612"
    },
    {
      "channel": 4,
      "note": 71,
      "start": 65.1929,
      "duration": 0.129,
      "velocity": 95,
      "chip": "ym2612"
    },
    {
      "channel": 0,
      "note": 42,
      "start": 65.2951,
      "duration": 2.4538,
      "velocity": 91,
      "chip": "ym2612"
    },
    {
      "channel": 1,
      "note": 66,
      "start": 65.2956,
      "duration": 2.4536,
      "velocity": 100,
      "chip": "ym2612"
    },
    {
      "channel": 2,
      "note": 54,
      "start": 65.2961,
      "duration": 2.4534,
      "velocity": 100,
      "chip": "ym2612"
    },
    {
      "channel": 3,
      "note": 67,
      "start": 65.2968,
      "duration": 2.4531,
      "velocity": 100,
      "chip": "ym2612"
    },
    {
      "channel": 4,
      "note": 69,
      "start": 65.3478,
      "duration": 0.1289,
      "velocity": 95,
      "chip": "ym2612"
    },
    {
      "channel": 4,
      "note": 67,
      "start": 65.5028,
      "duration": 2.2475,
      "velocity": 95,
      "chip": "ym2612"
    },
    {
      "channel": 0,
      "note": 86,
      "start": 67.7776,
      "duration": 0.0241,
      "velocity": 100,
      "chip": "ym2612"
    },
    {
      "channel": 1,
      "note": 83,
      "start": 67.7804,
      "duration": 0.0216,
      "velocity": 100,
      "chip": "ym2612"
    },
    {
      "channel": 2,
      "note": 78,
      "start": 67.7832,
      "duration": 0.0191,
      "velocity": 100,
      "chip": "ym2612"
    },
    {
      "channel": 3,
      "note": 66,
      "start": 67.7868,
      "duration": 0.0157,
      "velocity": 100,
      "chip": "ym2612"
    },
    {
      "channel": 0,
      "note": 74,
      "start": 67.8045,
      "duration": 0.0117,
      "velocity": 100,
      "chip": "ym2612"
    },
    {
      "channel": 1,
      "note": 71,
      "start": 67.8051,
      "duration": 0.0114,
      "velocity": 100,
      "chip": "ym2612"
    },
    {
      "channel": 2,
      "note": 66,
      "start": 67.8056,
      "duration": 0.0112,
      "velocity": 100,
      "chip": "ym2612"
    },
    {
      "channel": 3,
      "note": 78,
      "start": 67.8062,
      "duration": 0.0108,
      "velocity": 100,
      "chip": "ym2612"
    },
    {
      "channel": 4,
      "note": 66,
      "start": 67.8147,
      "duration": 0.0122,
      "velocity": 100,
      "chip": "ym2612"
    },
    {
      "channel": 0,
      "note": 78,
      "start": 67.8195,
      "duration": 0.012,
      "velocity": 100,
      "chip": "ym2612"
    },
    {
      "channel": 1,
      "note": 74,
      "start": 67.82,
      "duration": 0.0117,
      "velocity": 100,
      "chip": "ym2612"
    },
    {
      "channel": 2,
      "note": 71,
      "start": 67.8205,
      "duration": 0.0114,
      "velocity": 100,
      "chip": "ym2612"
    },
    {
      "channel": 3,
      "note": 66,
      "start": 67.8212,
      "duration": 0.0111,
      "velocity": 100,
      "chip": "ym2612"
    },
    {
      "channel": 4,
      "note": 83,
      "start": 67.8298,
      "duration": 0.0118,
      "velocity": 100,
      "chip": "ym2612"
    },
    {
      "channel": 0,
      "note": 83,
      "start": 67.8343,
      "duration": 0.0118,
      "velocity": 100,
      "chip": "ym2612"
    },
    {
      "channel": 1,
      "note": 78,
      "start": 67.8348,
      "duration": 0.0116,
      "velocity": 100,
      "chip": "ym2612"
    },
    {
      "channel": 2,
      "note": 74,
      "start": 67.8354,
      "duration": 0.0113,
      "velocity": 100,
      "chip": "ym2612"
    },
    {
      "channel": 3,
      "note": 71,
      "start": 67.836,
      "duration": 0.011,
      "velocity": 100,
      "chip": "ym2612"
    },
    {
      "channel": 4,
      "note": 71,
      "start": 67.8443,
      "duration": 0.0125,
      "velocity": 100,
      "chip": "ym2612"
    },
    {
      "channel": 0,
      "note": 86,
      "start": 67.849,
      "duration": 0.0093,
      "velocity": 100,
      "chip": "ym2612"
    },
    {
      "channel": 1,
      "note": 83,
      "start": 67.8497,
      "duration": 0.0089,
      "velocity": 100,
      "chip": "ym2612"
    },
    {
      "channel": 2,
      "note": 78,
      "start": 67.8502,
      "duration": 0.0086,
      "velocity": 100,
      "chip": "ym2612"
    },
    {
      "channel": 3,
      "note": 74,
      "start": 67.8511,
      "duration": 0.008,
      "velocity": 100,
      "chip": "ym2612"
    },
    {
      "channel": 4,
      "note": 74,
      "start": 67.8598,
      "duration": 0.0118,
      "velocity": 100,
      "chip": "ym2612"
    },
    {
      "channel": 0,
      "note": 90,
      "start": 67.8617,
      "duration": 0.0116,
      "velocity": 100,
      "chip": "ym2612"
    },
    {
      "channel": 1,
      "note": 86,
      "start": 67.8622,
      "duration": 0.0114,
      "velocity": 100,
      "chip": "ym2612"
    },
    {
      "channel": 2,
      "note": 83,
      "start": 67.8627,
      "duration": 0.0111,
      "velocity": 100,
      "chip": "ym2612"
    },
    {
      "channel": 3,
      "note": 78,
      "start": 67.8634,
      "duration": 0.0108,
      "velocity": 100,
      "chip": "ym2612"
    },
    {
      "channel": 4,
      "note": 78,
      "start": 67.8748,
      "duration": 0.0099,
      "velocity": 100,
      "chip": "ym2612"
    },
    {
      "channel": 0,
      "note": 78,
      "start": 67.8766,
      "duration": 42.0897,
      "velocity": 100,
      "chip": "ym2612"
    },
    {
      "channel": 1,
      "note": 74,
      "start": 67.8771,
      "duration": 42.0892,
      "velocity": 100,
      "chip": "ym2612"
    },
    {
      "channel": 2,
      "note": 71,
      "start": 67.8777,
      "duration": 42.0886,
      "velocity": 100,
      "chip": "ym2612"
    },
    {
      "channel": 3,
      "note": 83,
      "start": 67.8784,
      "duration": 42.0879,
      "velocity": 100,
      "chip": "ym2612"
    }
  ]
}