{
  "track_name": "08 - St. Shirakawa University",
  "duration_sec": 85.333,
  "sample_rate": 44100,
  "note_count": 1326,
  "unique_pitches": 32,
  "pitch_range": 93,
  "avg_note_duration": 0.3247,
  "reconstruction_stats": {
    "notes_reconstructed": 1326,
    "keyon_events": 1326,
    "keyoff_events": 1322,
    "orphan_keyons": 4,
    "unique_pitches": 32,
    "pitch_range": 93,
    "avg_duration_sec": 0.3247
  },
  "metadata": {
    "source": "J\\Jantei Monogatari\\08 - St. Shirakawa University.vgz"
  },
  "notes": [
    {
      "channel": 0,
      "note": 59,
      "start": 0.0093,
      "duration": 0.2574,
      "velocity": 92,
      "chip": "ym2612"
    },
    {
      "channel": 1,
      "note": 93,
      "start": 0.0108,
      "duration": 0.3893,
      "velocity": 80,
      "chip": "ym2612"
    },
    {
      "channel": 2,
      "note": 74,
      "start": 0.0123,
      "duration": 0.388,
      "velocity": 92,
      "chip": "ym2612"
    },
    {
      "channel": 3,
      "note": 78,
      "start": 0.0139,
      "duration": 0.3868,
      "velocity": 92,
      "chip": "ym2612"
    },
    {
      "channel": 4,
      "note": 81,
      "start": 0.0155,
      "duration": 0.3856,
      "velocity": 92,
      "chip": "ym2612"
    },
    {
      "channel": 0,
      "note": 59,
      "start": 0.2669,
      "duration": 0.3998,
      "velocity": 92,
      "chip": "ym2612"
    },
    {
      "channel": 1,
      "note": 90,
      "start": 0.4003,
      "duration": 0.1332,
      "velocity": 80,
      "chip": "ym2612"
    },
    {
      "channel": 2,
      "note": 74,
      "start": 0.4006,
      "duration": 0.3996,
      "velocity": 92,
      "chip": "ym2612"
    },
    {
      "channel": 3,
      "note": 78,
      "start": 0.4009,
      "duration": 0.3996,
      "velocity": 92,
      "chip": "ym2612"
    },
    {
      "channel": 4,
      "note": 81,
      "start": 0.4012,
      "duration": 0.3996,
      "velocity": 92,
      "chip": "ym2612"
    },
    {
      "channel": 0,
      "note": 59,
      "start": 0.6669,
      "duration": 0.2665,
      "velocity": 92,
      "chip": "ym2612"
    },
    {
      "channel": 2,
      "note": 74,
      "start": 0.8003,
      "duration": 0.2667,
      "velocity": 92,
      "chip": "ym2612"
    },
    {
      "channel": 3,
      "note": 78,
      "start": 0.8006,
      "duration": 0.2667,
      "velocity": 92,
      "chip": "ym2612"
    },
    {
      "channel": 4,
      "note": 81,
      "start": 0.801,
      "duration": 0.2667,
      "velocity": 92,
      "chip": "ym2612"
    },
    {
      "channel": 0,
      "note": 59,
      "start": 0.9336,
      "duration": 0.1332,
      "velocity": 92,
      "chip": "ym2612"
    },
    {
      "channel": 0,
      "note": 59,
      "start": 1.0669,
      "duration": 0.2665,
      "velocity": 92,
      "chip": "ym2612"
    },
    {
      "channel": 2,
      "note": 74,
      "start": 1.0672,
      "duration": 0.3996,
      "velocity": 92,
      "chip": "ym2612"
    },
    {
      "channel": 3,
      "note": 78,
      "start": 1.0676,
      "duration": 0.3996,
      "velocity": 92,
      "chip": "ym2612"
    },
    {
      "channel": 4,
      "note": 81,
      "start": 1.0679,
      "duration": 0.3996,
      "velocity": 92,
      "chip": "ym2612"
    },
    {
      "channel": 0,
      "note": 59,
      "start": 1.3336,
      "duration": 0.3998,
      "velocity": 92,
      "chip": "ym2612"
    },
    {
      "channel": 2,
      "note": 74,
      "start": 1.467,
      "duration": 0.4001,
      "velocity": 92,
      "chip": "ym2612"
    },
    {
      "channel": 3,
      "note": 78,
      "start": 1.4673,
      "duration": 0.4001,
      "velocity": 92,
      "chip": "ym2612"
    },
    {
      "channel": 4,
      "note": 80,
      "start": 1.4676,
      "duration": 0.4001,
      "velocity": 92,
      "chip": "ym2612"
    },
    {
      "channel": 1,
      "note": 88,
      "start": 1.6003,
      "duration": 0.1334,
      "velocity": 80,
      "chip": "ym2612"
    },
    {
      "channel": 0,
      "note": 59,
      "start": 1.7336,
      "duration": 0.2665,
      "velocity": 92,
      "chip": "ym2612"
    },
    {
      "channel": 1,
      "note": 90,
      "start": 1.867,
      "duration": 0.1334,
      "velocity": 80,
      "chip": "ym2612"
    },
    {
      "channel": 2,
      "note": 74,
      "start": 1.8672,
      "duration": 0.2667,
      "velocity": 92,
      "chip": "ym2612"
    },
    {
      "channel": 3,
      "note": 78,
      "start": 1.8676,
      "duration": 0.2667,
      "velocity": 92,
      "chip": "ym2612"
    },
    {
      "channel": 4,
      "note": 81,
      "start": 1.8679,
      "duration": 0.2667,
      "velocity": 92,
      "chip": "ym2612"
    },
    {
      "channel": 0,
      "note": 59,
      "start": 2.0002,
      "duration": 0.1332,
      "velocity": 92,
      "chip": "ym2612"
    },
    {
      "channel": 0,
      "note": 59,
      "start": 2.1336,
      "duration": 0.2665,
      "velocity": 92,
      "chip": "ym2612"
    },
    {
      "channel": 1,
      "note": 93,
      "start": 2.1339,
      "duration": 0.3996,
      "velocity": 80,
      "chip": "ym2612"
    },
    {
      "channel": 2,
      "note": 74,
      "start": 2.1342,
      "duration": 0.3995,
      "velocity": 92,
      "chip": "ym2612"
    },
    {
      "channel": 3,
      "note": 78,
      "start": 2.1345,
      "duration": 0.3995,
      "velocity": 92,
      "chip": "ym2612"
    },
    {
      "channel": 4,
      "note": 81,
      "start": 2.1348,
      "duration": 0.3995,
      "velocity": 92,
      "chip": "ym2612"
    },
    {
      "channel": 0,
      "note": 59,
      "start": 2.4002,
      "duration": 0.3998,
      "velocity": 92,
      "chip": "ym2612"
    },
    {
      "channel": 1,
      "note": 90,
      "start": 2.5337,
      "duration": 0.1332,
      "velocity": 80,
      "chip": "ym2612"
    },
    {
      "channel": 2,
      "note": 74,
      "start": 2.5339,
      "duration": 0.3996,
      "velocity": 92,
      "chip": "ym2612"
    },
    {
      "channel": 3,
      "note": 78,
      "start": 2.5342,
      "duration": 0.3996,
      "velocity": 92,
      "chip": "ym2612"
    },
    {
      "channel": 4,
      "note": 81,
      "start": 2.5345,
      "duration": 0.3996,
      "velocity": 92,
      "chip": "ym2612"
    },
    {
      "channel": 0,
      "note": 59,
      "start": 2.8002,
      "duration": 0.2665,
      "velocity": 92,
      "chip": "ym2612"
    },
    {
      "channel": 2,
      "note": 74,
      "start": 2.9337,
      "duration": 0.2667,
      "velocity": 92,
      "chip": "ym2612"
    },
    {
      "channel": 3,
      "note": 78,
      "start": 2.934,
      "duration": 0.2667,
      "velocity": 92,
      "chip": "ym2612"
    },
    {
      "channel": 4,
      "note": 81,
      "start": 2.9343,
      "duration": 0.2667,
      "velocity": 92,
      "chip": "ym2612"
    },
    {
      "channel": 0,
      "note": 59,
      "start": 3.0669,
      "duration": 0.1332,
      "velocity": 92,
      "chip": "ym2612"
    },
    {
      "channel": 0,
      "note": 59,
      "start": 3.2002,
      "duration": 0.2665,
      "velocity": 92,
      "chip": "ym2612"
    },
    {
      "channel": 2,
      "note": 74,
      "start": 3.2006,
      "duration": 0.3996,
      "velocity": 92,
      "chip": "ym2612"
    },
    {
      "channel": 3,
      "note": 78,
      "start": 3.2009,
      "duration": 0.3996,
      "velocity": 92,
      "chip": "ym2612"
    },
    {
      "channel": 4,
      "note": 81,
      "start": 3.2012,
      "duration": 0.3996,
      "velocity": 92,
      "chip": "ym2612"
    },
    {
      "channel": 0,
      "note": 59,
      "start": 3.4669,
      "duration": 0.3998,
      "velocity": 92,
      "chip": "ym2612"
    },
    {
      "channel": 2,
      "note": 74,
      "start": 3.6003,
      "duration": 0.4001,
      "velocity": 92,
      "chip": "ym2612"
    },
    {
      "channel": 3,
      "note": 78,
      "start": 3.6006,
      "duration": 0.4001,
      "velocity": 92,
      "chip": "ym2612"
    },
    {
      "channel": 4,
      "note": 80,
      "start": 3.601,
      "duration": 0.4001,
      "velocity": 92,
      "chip": "ym2612"
    },
    {
      "channel": 1,
      "note": 92,
      "start": 3.7337,
      "duration": 0.1334,
      "velocity": 80,
      "chip": "ym2612"
    },
    {
      "channel": 0,
      "note": 59,
      "start": 3.8669,
      "duration": 0.2665,
      "velocity": 92,
      "chip": "ym2612"
    },
    {
      "channel": 1,
      "note": 93,
      "start": 3.8672,
      "duration": 0.1329,
      "velocity": 80,
      "chip": "ym2612"
    },
    {
      "channel": 1,
      "note": 92,
      "start": 4.0003,
      "duration": 0.1334,
      "velocity": 80,
      "chip": "ym2612"
    },
    {
      "channel": 2,
      "note": 74,
      "start": 4.0006,
      "duration": 0.2667,
      "velocity": 92,
      "chip": "ym2612"
    },
    {
      "channel": 3,
      "note": 78,
      "start": 4.0009,
      "duration": 0.2667,
      "velocity": 92,
      "chip": "ym2612"
    },
    {
      "channel": 4,
      "note": 81,
      "start": 4.0012,
      "duration": 0.2667,
      "velocity": 92,
      "chip": "ym2612"
    },
    {
      "channel": 0,
      "note": 59,
      "start": 4.1336,
      "duration": 0.1332,
      "velocity": 92,
      "chip": "ym2612"
    },
    {
      "channel": 1,
      "note": 88,
      "start": 4.1339,
      "duration": 0.1332,
      "velocity": 80,
      "chip": "ym2612"
    },
    {
      "channel": 0,
      "note": 57,
      "start": 4.2669,
      "duration": 0.2665,
      "velocity": 92,
      "chip": "ym2612"
    },
    {
      "channel": 1,
      "note": 90,
      "start": 4.2672,
      "duration": 0.3996,
      "velocity": 80,
      "chip": "ym2612"
    },
    {
      "channel": 2,
      "note": 73,
      "start": 4.2675,
      "duration": 0.3995,
      "velocity": 92,
      "chip": "ym2612"
    },
    {
      "channel": 3,
      "note": 76,
      "start": 4.2678,
      "duration": 0.3995,
      "velocity": 92,
      "chip": "ym2612"
    },
    {
      "channel": 4,
      "note": 80,
      "start": 4.2681,
      "duration": 0.3995,
      "velocity": 92,
      "chip": "ym2612"
    },
    {
      "channel": 0,
      "note": 57,
      "start": 4.5336,
      "duration": 0.3998,
      "velocity": 92,
      "chip": "ym2612"
    },
    {
      "channel": 1,
      "note": 88,
      "start": 4.667,
      "duration": 0.1332,
      "velocity": 80,
      "chip": "ym2612"
    },
    {
      "channel": 2,
      "note": 73,
      "start": 4.6672,
      "duration": 0.3996,
      "velocity": 92,
      "chip": "ym2612"
    },
    {
      "channel": 3,
      "note": 76,
      "start": 4.6676,
      "duration": 0.3996,
      "velocity": 92,
      "chip": "ym2612"
    },
    {
      "channel": 4,
      "note": 80,
      "start": 4.6679,
      "duration": 0.3996,
      "velocity": 92,
      "chip": "ym2612"
    },
    {
      "channel": 0,
      "note": 57,
      "start": 4.9336,
      "duration": 0.2665,
      "velocity": 92,
      "chip": "ym2612"
    },
    {
      "channel": 2,
      "note": 73,
      "start": 5.067,
      "duration": 0.2667,
      "velocity": 92,
      "chip": "ym2612"
    },
    {
      "channel": 3,
      "note": 76,
      "start": 5.0673,
      "duration": 0.2667,
      "velocity": 92,
      "chip": "ym2612"
    },
    {
      "channel": 4,
      "note": 80,
      "start": 5.0676,
      "duration": 0.2667,
      "velocity": 92,
      "chip": "ym2612"
    },
    {
      "channel": 0,
      "note": 57,
      "start": 5.2002,
      "duration": 0.1332,
      "velocity": 92,
      "chip": "ym2612"
    },
    {
      "channel": 0,
      "note": 57,
      "start": 5.3336,
      "duration": 0.2665,
      "velocity": 92,
      "chip": "ym2612"
    },
    {
      "channel": 2,
      "note": 73,
      "start": 5.3339,
      "duration": 0.3996,
      "velocity": 92,
      "chip": "ym2612"
    },
    {
      "channel": 3,
      "note": 76,
      "start": 5.3342,
      "duration": 0.3996,
      "velocity": 92,
      "chip": "ym2612"
    },
    {
      "channel": 4,
      "note": 80,
      "start": 5.3345,
      "duration": 0.3996,
      "velocity": 92,
      "chip": "ym2612"
    },
    {
      "channel": 0,
      "note": 57,
      "start": 5.6002,
      "duration": 0.3998,
      "velocity": 92,
      "chip": "ym2612"
    },
    {
      "channel": 2,
      "note": 73,
      "start": 5.7337,
      "duration": 0.3998,
      "velocity": 92,
      "chip": "ym2612"
    },
    {
      "channel": 3,
      "note": 76,
      "start": 5.734,
      "duration": 0.3998,
      "velocity": 92,
      "chip": "ym2612"
    },
    {
      "channel": 4,
      "note": 78,
      "start": 5.7343,
      "duration": 0.3998,
      "velocity": 92,
      "chip": "ym2612"
    },
    {
      "channel": 0,
      "note": 57,
      "start": 6.0002,
      "duration": 0.2665,
      "velocity": 92,
      "chip": "ym2612"
    },
    {
      "channel": 2,
      "note": 73,
      "start": 6.1337,
      "duration": 0.2669,
      "velocity": 92,
      "chip": "ym2612"
    },
    {
      "channel": 3,
      "note": 76,
      "start": 6.134,
      "duration": 0.2669,
      "velocity": 92,
      "chip": "ym2612"
    },
    {
      "channel": 4,
      "note": 80,
      "start": 6.1343,
      "duration": 0.2669,
      "velocity": 92,
      "chip": "ym2612"
    },
    {
      "channel": 0,
      "note": 57,
      "start": 6.2669,
      "duration": 0.1332,
      "velocity": 92,
      "chip": "ym2612"
    },
    {
      "channel": 0,
      "note": 57,
      "start": 6.4002,
      "duration": 0.2665,
      "velocity": 92,
      "chip": "ym2612"
    },
    {
      "channel": 2,
      "note": 73,
      "start": 6.4008,
      "duration": 0.3994,
      "velocity": 92,
      "chip": "ym2612"
    },
    {
      "channel": 3,
      "note": 76,
      "start": 6.401,
      "duration": 0.3994,
      "velocity": 92,
      "chip": "ym2612"
    },
    {
      "channel": 4,
      "note": 80,
      "start": 6.4013,
      "duration": 0.3994,
      "velocity": 92,
      "chip": "ym2612"
    },
    {
      "channel": 0,
      "note": 57,
      "start": 6.6669,
      "duration": 0.3998,
      "velocity": 92,
      "chip": "ym2612"
    },
    {
      "channel": 2,
      "note": 73,
      "start": 6.8003,
      "duration": 0.3998,
      "velocity": 92,
      "chip": "ym2612"
    },
    {
      "channel": 3,
      "note": 76,
      "start": 6.8006,
      "duration": 0.3998,
      "velocity": 92,
      "chip": "ym2612"
    },
    {
      "channel": 4,
      "note": 80,
      "start": 6.801,
      "duration": 0.3998,
      "velocity": 92,
      "chip": "ym2612"
    },
    {
      "channel": 0,
      "note": 57,
      "start": 7.0669,
      "duration": 0.2665,
      "velocity": 92,
      "chip": "ym2612"
    },
    {
      "channel": 2,
      "note": 73,
      "start": 7.2003,
      "duration": 0.2667,
      "velocity": 92,
      "chip": "ym2612"
    },
    {
      "channel": 3,
      "note": 76,
      "start": 7.2006,
      "duration": 0.2667,
      "velocity": 92,
      "chip": "ym2612"
    },
    {
      "channel": 4,
      "note": 80,
      "start": 7.201,
      "duration": 0.2667,
      "velocity": 92,
      "chip": "ym2612"
    },
    {
      "channel": 0,
      "note": 57,
      "start": 7.3336,
      "duration": 0.1332,
      "velocity": 92,
      "chip": "ym2612"
    },
    {
      "channel": 0,
      "note": 57,
      "start": 7.4669,
      "duration": 0.2665,
      "velocity": 92,
      "chip": "ym2612"
    },
    {
      "channel": 2,
      "note": 73,
      "start": 7.4672,
      "duration": 0.3996,
      "velocity": 92,
      "chip": "ym2612"
    },
    {
      "channel": 3,
      "note": 76,
      "start": 7.4676,
      "duration": 0.3996,
      "velocity": 92,
      "chip": "ym2612"
    },
    {
      "channel": 4,
      "note": 80,
      "start": 7.4679,
      "duration": 0.3996,
      "velocity": 92,
      "chip": "ym2612"
    },
    {
      "channel": 0,
      "note": 57,
      "start": 7.7336,
      "duration": 0.3998,
      "velocity": 92,
      "chip": "ym2612"
    },
    {
      "channel": 2,
      "note": 73,
      "start": 7.867,
      "duration": 0.3998,
      "velocity": 92,
      "chip": "ym2612"
    },
    {
      "channel": 3,
      "note": 76,
      "start": 7.8673,
      "duration": 0.3998,
      "velocity": 92,
      "chip": "ym2612"
    },
    {
      "channel": 4,
      "note": 78,
      "start": 7.8676,
      "duration": 0.3998,
      "velocity": 92,
      "chip": "ym2612"
    },
    {
      "channel": 0,
      "note": 57,
      "start": 8.1336,
      "duration": 0.2665,
      "velocity": 92,
      "chip": "ym2612"
    },
    {
      "channel": 2,
      "note": 73,
      "start": 8.267,
      "duration": 0.2672,
      "velocity": 92,
      "chip": "ym2612"
    },
    {
      "channel": 3,
      "note": 76,
      "start": 8.2673,
      "duration": 0.2672,
      "velocity": 92,
      "chip": "ym2612"
    },
    {
      "channel": 4,
      "note": 80,
      "start": 8.2676,
      "duration": 0.2672,
      "velocity": 92,
      "chip": "ym2612"
    },
    {
      "channel": 0,
      "note": 57,
      "start": 8.4002,
      "duration": 0.1332,
      "velocity": 92,
      "chip": "ym2612"
    },
    {
      "channel": 0,
      "note": 59,
      "start": 8.5337,
      "duration": 0.2664,
      "velocity": 92,
      "chip": "ym2612"
    },
    {
      "channel": 1,
      "note": 93,
      "start": 8.534,
      "duration": 0.3995,
      "velocity": 80,
      "chip": "ym2612"
    },
    {
      "channel": 2,
      "note": 74,
      "start": 8.5344,
      "duration": 0.3994,
      "velocity": 92,
      "chip": "ym2612"
    },
    {
      "channel": 3,
      "note": 78,
      "start": 8.5347,
      "duration": 0.3994,
      "velocity": 92,
      "chip": "ym2612"
    },
    {
      "channel": 4,
      "note": 81,
      "start": 8.5351,
      "duration": 0.3993,
      "velocity": 92,
      "chip": "ym2612"
    },
    {
      "channel": 0,
      "note": 59,
      "start": 8.8002,
      "duration": 0.3998,
      "velocity": 92,
      "chip": "ym2612"
    },
    {
      "channel": 1,
      "note": 90,
      "start": 8.9337,
      "duration": 0.1332,
      "velocity": 80,
      "chip": "ym2612"
    },
    {
      "channel": 2,
      "note": 74,
      "start": 8.9339,
      "duration": 0.3996,
      "velocity": 92,
      "chip": "ym2612"
    },
    {
      "channel": 3,
      "note": 78,
      "start": 8.9342,
      "duration": 0.3996,
      "velocity": 92,
      "chip": "ym2612"
    },
    {
      "channel": 4,
      "note": 81,
      "start": 8.9345,
      "duration": 0.3996,
      "velocity": 92,
      "chip": "ym2612"
    },
    {
      "channel": 0,
      "note": 59,
      "start": 9.2002,
      "duration": 0.2665,
      "velocity": 92,
      "chip": "ym2612"
    },
    {
      "channel": 2,
      "note": 74,
      "start": 9.3337,
      "duration": 0.2667,
      "velocity": 92,
      "chip": "ym2612"
    },
    {
      "channel": 3,
      "note": 78,
      "start": 9.334,
      "duration": 0.2667,
      "velocity": 92,
      "chip": "ym2612"
    },
    {
      "channel": 4,
      "note": 81,
      "start": 9.3343,
      "duration": 0.2667,
      "velocity": 92,
      "chip": "ym2612"
    },
    {
      "channel": 0,
      "note": 59,
      "start": 9.4669,
      "duration": 0.1332,
      "velocity": 92,
      "chip": "ym2612"
    },
    {
      "channel": 0,
      "note": 59,
      "start": 9.6002,
      "duration": 0.2665,
      "velocity": 92,
      "chip": "ym2612"
    },
    {
      "channel": 2,
      "note": 74,
      "start": 9.6006,
      "duration": 0.3996,
      "velocity": 92,
      "chip": "ym2612"
    },
    {
      "channel": 3,
      "note": 78,
      "start": 9.6009,
      "duration": 0.3996,
      "velocity": 92,
      "chip": "ym2612"
    },
    {
      "channel": 4,
      "note": 81,
      "start": 9.6012,
      "duration": 0.3996,
      "velocity": 92,
      "chip": "ym2612"
    },
    {
      "channel": 0,
      "note": 59,
      "start": 9.8669,
      "duration": 0.3998,
      "velocity": 92,
      "chip": "ym2612"
    },
    {
      "channel": 2,
      "note": 74,
      "start": 10.0003,
      "duration": 0.4001,
      "velocity": 92,
      "chip": "ym2612"
    },
    {
      "channel": 3,
      "note": 78,
      "start": 10.0006,
      "duration": 0.4001,
      "velocity": 92,
      "chip": "ym2612"
    },
    {
      "channel": 4,
      "note": 80,
      "start": 10.001,
      "duration": 0.4001,
      "velocity": 92,
      "chip": "ym2612"
    },
    {
      "channel": 1,
      "note": 88,
      "start": 10.1337,
      "duration": 0.1334,
      "velocity": 80,
      "chip": "ym2612"
    },
    {
      "channel": 0,
      "note": 59,
      "start": 10.2669,
      "duration": 0.2665,
      "velocity": 92,
      "chip": "ym2612"
    },
    {
      "channel": 1,
      "note": 90,
      "start": 10.4003,
      "duration": 0.1334,
      "velocity": 80,
      "chip": "ym2612"
    },
    {
      "channel": 2,
      "note": 74,
      "start": 10.4006,
      "duration": 0.2667,
      "velocity": 92,
      "chip": "ym2612"
    },
    {
      "channel": 3,
      "note": 78,
      "start": 10.4009,
      "duration": 0.2667,
      "velocity": 92,
      "chip": "ym2612"
    },
    {
      "channel": 4,
      "note": 81,
      "start": 10.4012,
      "duration": 0.2667,
      "velocity": 92,
      "chip": "ym2612"
    },
    {
      "channel": 0,
      "note": 59,
      "start": 10.5336,
      "duration": 0.1332,
      "velocity": 92,
      "chip": "ym2612"
    },
    {
      "channel": 0,
      "note": 59,
      "start": 10.6669,
      "duration": 0.2665,
      "velocity": 92,
      "chip": "ym2612"
    },
    {
      "channel": 1,
      "note": 93,
      "start": 10.6672,
      "duration": 0.3996,
      "velocity": 80,
      "chip": "ym2612"
    },
    {
      "channel": 2,
      "note": 74,
      "start": 10.6676,
      "duration": 0.3995,
      "velocity": 92,
      "chip": "ym2612"
    },
    {
      "channel": 3,
      "note": 78,
      "start": 10.6678,
      "duration": 0.3995,
      "velocity": 92,
      "chip": "ym2612"
    },
    {
      "channel": 4,
      "note": 81,
      "start": 10.6681,
      "duration": 0.3995,
      "velocity": 92,
      "chip": "ym2612"
    },
    {
      "channel": 0,
      "note": 59,
      "start": 10.9336,
      "duration": 0.3998,
      "velocity": 92,
      "chip": "ym2612"
    },
    {
      "channel": 1,
      "note": 90,
      "start": 11.067,
      "duration": 0.1332,
      "velocity": 80,
      "chip": "ym2612"
    },
    {
      "channel": 2,
      "note": 74,
      "start": 11.0672,
      "duration": 0.3996,
      "velocity": 92,
      "chip": "ym2612"
    },
    {
      "channel": 3,
      "note": 78,
      "start": 11.0676,
      "duration": 0.3996,
      "velocity": 92,
      "chip": "ym2612"
    },
    {
      "channel": 4,
      "note": 81,
      "start": 11.0679,
      "duration": 0.3996,
      "velocity": 92,
      "chip": "ym2612"
    },
    {
      "channel": 0,
      "note": 59,
      "start": 11.3336,
      "duration": 0.2665,
      "velocity": 92,
      "chip": "ym2612"
    },
    {
      "channel": 2,
      "note": 74,
      "start": 11.467,
      "duration": 0.2667,
      "velocity": 92,
      "chip": "ym2612"
    },
    {
      "channel": 3,
      "note": 78,
      "start": 11.4673,
      "duration": 0.2667,
      "velocity": 92,
      "chip": "ym2612"
    },
    {
      "channel": 4,
      "note": 81,
      "start": 11.4676,
      "duration": 0.2667,
      "velocity": 92,
      "chip": "ym2612"
    },
    {
      "channel": 0,
      "note": 59,
      "start": 11.6002,
      "duration": 0.1332,
      "velocity": 92,
      "chip": "ym2612"
    },
    {
      "channel": 0,
      "note": 59,
      "start": 11.7336,
      "duration": 0.2665,
      "velocity": 92,
      "chip": "ym2612"
    },
    {
      "channel": 2,
      "note": 74,
      "start": 11.7339,
      "duration": 0.3996,
      "velocity": 92,
      "chip": "ym2612"
    },
    {
      "channel": 3,
      "note": 78,
      "start": 11.7342,
      "duration": 0.3996,
      "velocity": 92,
      "chip": "ym2612"
    },
    {
      "channel": 4,
      "note": 81,
      "start": 11.7345,
      "duration": 0.3996,
      "velocity": 92,
      "chip": "ym2612"
    },
    {
      "channel": 0,
      "note": 59,
      "start": 12.0002,
      "duration": 0.3998,
      "velocity": 92,
      "chip": "ym2612"
    },
    {
      "channel": 2,
      "note": 74,
      "start": 12.1337,
      "duration": 0.4001,
      "velocity": 92,
      "chip": "ym2612"
    },
    {
      "channel": 3,
      "note": 78,
      "start": 12.134,
      "duration": 0.4001,
      "velocity": 92,
      "chip": "ym2612"
    },
    {
      "channel": 4,
      "note": 80,
      "start": 12.1343,
      "duration": 0.4001,
      "velocity": 92,
      "chip": "ym2612"
    },
    {
      "channel": 1,
      "note": 92,
      "start": 12.267,
      "duration": 0.1334,
      "velocity": 80,
      "chip": "ym2612"
    },
    {
      "channel": 0,
      "note": 59,
      "start": 12.4002,
      "duration": 0.2665,
      "velocity": 92,
      "chip": "ym2612"
    },
    {
      "channel": 1,
      "note": 93,
      "start": 12.4006,
      "duration": 0.1329,
      "velocity": 80,
      "chip": "ym2612"
    },
    {
      "channel": 1,
      "note": 92,
      "start": 12.5337,
      "duration": 0.1334,
      "velocity": 80,
      "chip": "ym2612"
    },
    {
      "channel": 2,
      "note": 74,
      "start": 12.5339,
      "duration": 0.2667,
      "velocity": 92,
      "chip": "ym2612"
    },
    {
      "channel": 3,
      "note": 78,
      "start": 12.5342,
      "duration": 0.2667,
      "velocity": 92,
      "chip": "ym2612"
    },
    {
      "channel": 4,
      "note": 81,
      "start": 12.5345,
      "duration": 0.2667,
      "velocity": 92,
      "chip": "ym2612"
    },
    {
      "channel": 0,
      "note": 59,
      "start": 12.6669,
      "duration": 0.1332,
      "velocity": 92,
      "chip": "ym2612"
    },
    {
      "channel": 1,
      "note": 88,
      "start": 12.6672,
      "duration": 0.1332,
      "velocity": 80,
      "chip": "ym2612"
    },
    {
      "channel": 0,
      "note": 57,
      "start": 12.8002,
      "duration": 0.2665,
      "velocity": 92,
      "chip": "ym2612"
    },
    {
      "channel": 1,
      "note": 90,
      "start": 12.8006,
      "duration": 0.3996,
      "velocity": 80,
      "chip": "ym2612"
    },
    {
      "channel": 2,
      "note": 73,
      "start": 12.8008,
      "duration": 0.3995,
      "velocity": 92,
      "chip": "ym2612"
    },
    {
      "channel": 3,
      "note": 76,
      "start": 12.8012,
      "duration": 0.3995,
      "velocity": 92,
      "chip": "ym2612"
    },
    {
      "channel": 4,
      "note": 80,
      "start": 12.8015,
      "duration": 0.3995,
      "velocity": 92,
      "chip": "ym2612"
    },
    {
      "channel": 0,
      "note": 57,
      "start": 13.0669,
      "duration": 0.3998,
      "velocity": 92,
      "chip": "ym2612"
    },
    {
      "channel": 1,
      "note": 88,
      "start": 13.2003,
      "duration": 0.1332,
      "velocity": 80,
      "chip": "ym2612"
    },
    {
      "channel": 2,
      "note": 73,
      "start": 13.2006,
      "duration": 0.3996,
      "velocity": 92,
      "chip": "ym2612"
    },
    {
      "channel": 3,
      "note": 76,
      "start": 13.2009,
      "duration": 0.3996,
      "velocity": 92,
      "chip": "ym2612"
    },
    {
      "channel": 4,
      "note": 80,
      "start": 13.2012,
      "duration": 0.3996,
      "velocity": 92,
      "chip": "ym2612"
    },
    {
      "channel": 0,
      "note": 57,
      "start": 13.4669,
      "duration": 0.2665,
      "velocity": 92,
      "chip": "ym2612"
    },
    {
      "channel": 2,
      "note": 73,
      "start": 13.6003,
      "duration": 0.2667,
      "velocity": 92,
      "chip": "ym2612"
    },
    {
      "channel": 3,
      "note": 76,
      "start": 13.6006,
      "duration": 0.2667,
      "velocity": 92,
      "chip": "ym2612"
    },
    {
      "channel": 4,
      "note": 80,
      "start": 13.601,
      "duration": 0.2667,
      "velocity": 92,
      "chip": "ym2612"
    },
    {
      "channel": 0,
      "note": 57,
      "start": 13.7336,
      "duration": 0.1332,
      "velocity": 92,
      "chip": "ym2612"
    },
    {
      "channel": 0,
      "note": 57,
      "start": 13.8669,
      "duration": 0.2665,
      "velocity": 92,
      "chip": "ym2612"
    },
    {
      "channel": 2,
      "note": 73,
      "start": 13.8672,
      "duration": 0.3996,
      "velocity": 92,
      "chip": "ym2612"
    },
    {
      "channel": 3,
      "note": 76,
      "start": 13.8676,
      "duration": 0.3996,
      "velocity": 92,
      "chip": "ym2612"
    },
    {
      "channel": 4,
      "note": 80,
      "start": 13.8679,
      "duration": 0.3996,
      "velocity": 92,
      "chip": "ym2612"
    },
    {
      "channel": 0,
      "note": 57,
      "start": 14.1336,
      "duration": 0.3998,
      "velocity": 92,
      "chip": "ym2612"
    },
    {
      "channel": 2,
      "note": 73,
      "start": 14.267,
      "duration": 0.3998,
      "velocity": 92,
      "chip": "ym2612"
    },
    {
      "channel": 3,
      "note": 76,
      "start": 14.2673,
      "duration": 0.3998,
      "velocity": 92,
      "chip": "ym2612"
    },
    {
      "channel": 4,
      "note": 78,
      "start": 14.2676,
      "duration": 0.3998,
      "velocity": 92,
      "chip": "ym2612"
    },
    {
      "channel": 0,
      "note": 57,
      "start": 14.5336,
      "duration": 0.2665,
      "velocity": 92,
      "chip": "ym2612"
    },
    {
      "channel": 2,
      "note": 73,
      "start": 14.667,
      "duration": 0.2669,
      "velocity": 92,
      "chip": "ym2612"
    },
    {
      "channel": 3,
      "note": 76,
      "start": 14.6673,
      "duration": 0.2669,
      "velocity": 92,
      "chip": "ym2612"
    },
    {
      "channel": 4,
      "note": 80,
      "start": 14.6676,
      "duration": 0.2669,
      "velocity": 92,
      "chip": "ym2612"
    },
    {
      "channel": 0,
      "note": 57,
      "start": 14.8002,
      "duration": 0.1332,
      "velocity": 92,
      "chip": "ym2612"
    },
    {
      "channel": 0,
      "note": 57,
      "start": 14.9336,
      "duration": 0.2665,
      "velocity": 92,
      "chip": "ym2612"
    },
    {
      "channel": 2,
      "note": 73,
      "start": 14.9341,
      "duration": 0.3994,
      "velocity": 92,
      "chip": "ym2612"
    },
    {
      "channel": 3,
      "note": 76,
      "start": 14.9344,
      "duration": 0.3994,
      "velocity": 92,
      "chip": "ym2612"
    },
    {
      "channel": 4,
      "note": 80,
      "start": 14.9347,
      "duration": 0.3994,
      "velocity": 92,
      "chip": "ym2612"
    },
    {
      "channel": 0,
      "note": 57,
      "start": 15.2002,
      "duration": 0.3998,
      "velocity": 92,
      "chip": "ym2612"
    },
    {
      "channel": 2,
      "note": 73,
      "start": 15.3337,
      "duration": 0.3998,
      "velocity": 92,
      "chip": "ym2612"
    },
    {
      "channel": 3,
      "note": 76,
      "start": 15.334,
      "duration": 0.3998,
      "velocity": 92,
      "chip": "ym2612"
    },
    {
      "channel": 4,
      "note": 80,
      "start": 15.3343,
      "duration": 0.3998,
      "velocity": 92,
      "chip": "ym2612"
    },
    {
      "channel": 0,
      "note": 57,
      "start": 15.6002,
      "duration": 0.2665,
      "velocity": 92,
      "chip": "ym2612"
    },
    {
      "channel": 2,
      "note": 73,
      "start": 15.7337,
      "duration": 0.2667,
      "velocity": 92,
      "chip": "ym2612"
    },
    {
      "channel": 3,
      "note": 76,
      "start": 15.734,
      "duration": 0.2667,
      "velocity": 92,
      "chip": "ym2612"
    },
    {
      "channel": 4,
      "note": 80,
      "start": 15.7343,
      "duration": 0.2667,
      "velocity": 92,
      "chip": "ym2612"
    },
    {
      "channel": 0,
      "note": 57,
      "start": 15.8669,
      "duration": 0.1332,
      "velocity": 92,
      "chip": "ym2612"
    },
    {
      "channel": 0,
      "note": 57,
      "start": 16.0002,
      "duration": 0.2665,
      "velocity": 92,
      "chip": "ym2612"
    },
    {
      "channel": 2,
      "note": 73,
      "start": 16.0006,
      "duration": 0.3996,
      "velocity": 92,
      "chip": "ym2612"
    },
    {
      "channel": 3,
      "note": 76,
      "start": 16.0009,
      "duration": 0.3996,
      "velocity": 92,
      "chip": "ym2612"
    },
    {
      "channel": 4,
      "note": 80,
      "start": 16.0012,
      "duration": 0.3996,
      "velocity": 92,
      "chip": "ym2612"
    },
    {
      "channel": 0,
      "note": 57,
      "start": 16.2669,
      "duration": 0.3998,
      "velocity": 92,
      "chip": "ym2612"
    },
    {
      "channel": 2,
      "note": 73,
      "start": 16.4003,
      "duration": 0.4001,
      "velocity": 92,
      "chip": "ym2612"
    },
    {
      "channel": 3,
      "note": 76,
      "start": 16.4006,
      "duration": 0.4001,
      "velocity": 92,
      "chip": "ym2612"
    },
    {
      "channel": 4,
      "note": 78,
      "start": 16.401,
      "duration": 0.4001,
      "velocity": 92,
      "chip": "ym2612"
    },
    {
      "channel": 1,
      "note": 90,
      "start": 16.5337,
      "duration": 0.1334,
      "velocity": 80,
      "chip": "ym2612"
    },
    {
      "channel": 0,
      "note": 57,
      "start": 16.6669,
      "duration": 0.2665,
      "velocity": 92,
      "chip": "ym2612"
    },
    {
      "channel": 1,
      "note": 93,
      "start": 16.8003,
      "duration": 0.1334,
      "velocity": 80,
      "chip": "ym2612"
    },
    {
      "channel": 2,
      "note": 73,
      "start": 16.8006,
      "duration": 0.2669,
      "velocity": 92,
      "chip": "ym2612"
    },
    {
      "channel": 3,
      "note": 76,
      "start": 16.8009,
      "duration": 0.2669,
      "velocity": 92,
      "chip": "ym2612"
    },
    {
      "channel": 4,
      "note": 80,
      "start": 16.8012,
      "duration": 0.2669,
      "velocity": 92,
      "chip": "ym2612"
    },
    {
      "channel": 0,
      "note": 57,
      "start": 16.9336,
      "duration": 0.1332,
      "velocity": 92,
      "chip": "ym2612"
    },
    {
      "channel": 0,
      "note": 62,
      "start": 17.067,
      "duration": 0.2664,
      "velocity": 92,
      "chip": "ym2612"
    },
    {
      "channel": 1,
      "note": 97,
      "start": 17.0672,
      "duration": 0.2665,
      "velocity": 80,
      "chip": "ym2612"
    },
    {
      "channel": 2,
      "note": 78,
      "start": 17.0676,
      "duration": 0.3994,
      "velocity": 92,
      "chip": "ym2612"
    },
    {
      "channel": 3,
      "note": 81,
      "start": 17.068,
      "duration": 0.3992,
      "velocity": 92,
      "chip": "ym2612"
    },
    {
      "channel": 4,
      "note": 85,
      "start": 17.0683,
      "duration": 0.3992,
      "velocity": 92,
      "chip": "ym2612"
    },
    {
      "channel": 0,
      "note": 62,
      "start": 17.3336,
      "duration": 0.3998,
      "velocity": 92,
      "chip": "ym2612"
    },
    {
      "channel": 1,
      "note": 93,
      "start": 17.3339,
      "duration": 0.1329,
      "velocity": 80,
      "chip": "ym2612"
    },
    {
      "channel": 2,
      "note": 78,
      "start": 17.4672,
      "duration": 0.3998,
      "velocity": 92,
      "chip": "ym2612"
    },
    {
      "channel": 3,
      "note": 81,
      "start": 17.4674,
      "duration": 0.3998,
      "velocity": 92,
      "chip": "ym2612"
    },
    {
      "channel": 4,
      "note": 85,
      "start": 17.4678,
      "duration": 0.3998,
      "velocity": 92,
      "chip": "ym2612"
    },
    {
      "channel": 1,
      "note": 93,
      "start": 17.6003,
      "duration": 0.1334,
      "velocity": 80,
      "chip": "ym2612"
    },
    {
      "channel": 0,
      "note": 62,
      "start": 17.7336,
      "duration": 0.2665,
      "velocity": 92,
      "chip": "ym2612"
    },
    {
      "channel": 1,
      "note": 90,
      "start": 17.7339,
      "duration": 0.1329,
      "velocity": 80,
      "chip": "ym2612"
    },
    {
      "channel": 2,
      "note": 78,
      "start": 17.8672,
      "duration": 0.2665,
      "velocity": 92,
      "chip": "ym2612"
    },
    {
      "channel": 3,
      "note": 81,
      "start": 17.8674,
      "duration": 0.2666,
      "velocity": 92,
      "chip": "ym2612"
    },
    {
      "channel": 4,
      "note": 85,
      "start": 17.8678,
      "duration": 0.2666,
      "velocity": 92,
      "chip": "ym2612"
    },
    {
      "channel": 0,
      "note": 62,
      "start": 18.0002,
      "duration": 0.1332,
      "velocity": 92,
      "chip": "ym2612"
    },
    {
      "channel": 1,
      "note": 93,
      "start": 18.0006,
      "duration": 0.5329,
      "velocity": 80,
      "chip": "ym2612"
    },
    {
      "channel": 0,
      "note": 62,
      "start": 18.1336,
      "duration": 0.2665,
      "velocity": 92,
      "chip": "ym2612"
    },
    {
      "channel": 2,
      "note": 78,
      "start": 18.1339,
      "duration": 0.3997,
      "velocity": 92,
      "chip": "ym2612"
    },
    {
      "channel": 3,
      "note": 81,
      "start": 18.1342,
      "duration": 0.3997,
      "velocity": 92,
      "chip": "ym2612"
    },
    {
      "channel": 4,
      "note": 85,
      "start": 18.1345,
      "duration": 0.3997,
      "velocity": 92,
      "chip": "ym2612"
    },
    {
      "channel": 0,
      "note": 62,
      "start": 18.4002,
      "duration": 0.3998,
      "velocity": 92,
      "chip": "ym2612"
    },
    {
      "channel": 2,
      "note": 78,
      "start": 18.5339,
      "duration": 0.3999,
      "velocity": 92,
      "chip": "ym2612"
    },
    {
      "channel": 3,
      "note": 81,
      "start": 18.5341,
      "duration": 0.3999,
      "velocity": 92,
      "chip": "ym2612"
    },
    {
      "channel": 4,
      "note": 83,
      "start": 18.5344,
      "duration": 0.3999,
      "velocity": 92,
      "chip": "ym2612"
    },
    {
      "channel": 1,
      "note": 90,
      "start": 18.667,
      "duration": 0.2665,
      "velocity": 80,
      "chip": "ym2612"
    },
    {
      "channel": 0,
      "note": 62,
      "start": 18.8002,
      "duration": 0.2665,
      "velocity": 92,
      "chip": "ym2612"
    },
    {
      "channel": 1,
      "note": 93,
      "start": 18.9337,
      "duration": 0.1334,
      "velocity": 80,
      "chip": "ym2612"
    },
    {
      "channel": 2,
      "note": 78,
      "start": 18.9339,
      "duration": 0.2667,
      "velocity": 92,
      "chip": "ym2612"
    },
    {
      "channel": 3,
      "note": 81,
      "start": 18.9342,
      "duration": 0.2667,
      "velocity": 92,
      "chip": "ym2612"
    },
    {
      "channel": 4,
      "note": 85,
      "start": 18.9345,
      "duration": 0.2667,
      "velocity": 92,
      "chip": "ym2612"
    },
    {
      "channel": 0,
      "note": 62,
      "start": 19.0669,
      "duration": 0.1332,
      "velocity": 92,
      "chip": "ym2612"
    },
    {
      "channel": 0,
      "note": 61,
      "start": 19.2002,
      "duration": 0.2665,
      "velocity": 92,
      "chip": "ym2612"
    },
    {
      "channel": 1,
      "note": 97,
      "start": 19.2006,
      "duration": 0.3996,
      "velocity": 80,
      "chip": "ym2612"
    },
    {
      "channel": 2,
      "note": 76,
      "start": 19.2008,
      "duration": 0.3995,
      "velocity": 92,
      "chip": "ym2612"
    },
    {
      "channel": 3,
      "note": 80,
      "start": 19.2012,
      "duration": 0.3995,
      "velocity": 92,
      "chip": "ym2612"
    },
    {
      "channel": 4,
      "note": 83,
      "start": 19.2015,
      "duration": 0.3995,
      "velocity": 92,
      "chip": "ym2612"
    },
    {
      "channel": 0,
      "note": 61,
      "start": 19.4669,
      "duration": 0.3998,
      "velocity": 92,
      "chip": "ym2612"
    },
    {
      "channel": 1,
      "note": 98,
      "start": 19.6003,
      "duration": 0.3998,
      "velocity": 80,
      "chip": "ym2612"
    },
    {
      "channel": 2,
      "note": 76,
      "start": 19.6006,
      "duration": 0.3998,
      "velocity": 92,
      "chip": "ym2612"
    },
    {
      "channel": 3,
      "note": 80,
      "start": 19.6009,
      "duration": 0.3998,
      "velocity": 92,
      "chip": "ym2612"
    },
    {
      "channel": 4,
      "note": 83,
      "start": 19.6012,
      "duration": 0.3998,
      "velocity": 92,
      "chip": "ym2612"
    },
    {
      "channel": 0,
      "note": 61,
      "start": 19.8669,
      "duration": 0.2665,
      "velocity": 92,
      "chip": "ym2612"
    },
    {
      "channel": 1,
      "note": 100,
      "start": 20.0003,
      "duration": 0.2667,
      "velocity": 80,
      "chip": "ym2612"
    },
    {
      "channel": 2,
      "note": 76,
      "start": 20.0006,
      "duration": 0.2667,
      "velocity": 92,
      "chip": "ym2612"
    },
    {
      "channel": 3,
      "note": 80,
      "start": 20.0009,
      "duration": 0.2667,
      "velocity": 92,
      "chip": "ym2612"
    },
    {
      "channel": 4,
      "note": 83,
      "start": 20.0012,
      "duration": 0.2667,
      "velocity": 92,
      "chip": "ym2612"
    },
    {
      "channel": 0,
      "note": 61,
      "start": 20.1336,
      "duration": 0.1332,
      "velocity": 92,
      "chip": "ym2612"
    },
    {
      "channel": 0,
      "note": 61,
      "start": 20.2669,
      "duration": 0.2665,
      "velocity": 92,
      "chip": "ym2612"
    },
    {
      "channel": 1,
      "note": 98,
      "start": 20.2672,
      "duration": 0.3996,
      "velocity": 80,
      "chip": "ym2612"
    },
    {
      "channel": 2,
      "note": 76,
      "start": 20.2675,
      "duration": 0.3995,
      "velocity": 92,
      "chip": "ym2612"
    },
    {
      "channel": 3,
      "note": 80,
      "start": 20.2678,
      "duration": 0.3995,
      "velocity": 92,
      "chip": "ym2612"
    },
    {
      "channel": 4,
      "note": 83,
      "start": 20.2681,
      "duration": 0.3995,
      "velocity": 92,
      "chip": "ym2612"
    },
    {
      "channel": 0,
      "note": 61,
      "start": 20.5336,
      "duration": 0.3998,
      "velocity": 92,
      "chip": "ym2612"
    },
    {
      "channel": 1,
      "note": 97,
      "start": 20.667,
      "duration": 0.3998,
      "velocity": 80,
      "chip": "ym2612"
    },
    {
      "channel": 2,
      "note": 76,
      "start": 20.6672,
      "duration": 0.3998,
      "velocity": 92,
      "chip": "ym2612"
    },
    {
      "channel": 3,
      "note": 80,
      "start": 20.6676,
      "duration": 0.3998,
      "velocity": 92,
      "chip": "ym2612"
    },
    {
      "channel": 4,
      "note": 81,
      "start": 20.6679,
      "duration": 0.3998,
      "velocity": 92,
      "chip": "ym2612"
    },
    {
      "channel": 0,
      "note": 61,
      "start": 20.9336,
      "duration": 0.2665,
      "velocity": 92,
      "chip": "ym2612"
    },
    {
      "channel": 1,
      "note": 95,
      "start": 21.067,
      "duration": 0.2667,
      "velocity": 80,
      "chip": "ym2612"
    },
    {
      "channel": 2,
      "note": 76,
      "start": 21.0672,
      "duration": 0.2667,
      "velocity": 92,
      "chip": "ym2612"
    },
    {
      "channel": 3,
      "note": 80,
      "start": 21.0676,
      "duration": 0.2667,
      "velocity": 92,
      "chip": "ym2612"
    },
    {
      "channel": 4,
      "note": 83,
      "start": 21.0679,
      "duration": 0.2667,
      "velocity": 92,
      "chip": "ym2612"
    },
    {
      "channel": 0,
      "note": 61,
      "start": 21.2002,
      "duration": 0.1332,
      "velocity": 92,
      "chip": "ym2612"
    },
    {
      "channel": 0,
      "note": 59,
      "start": 21.3336,
      "duration": 0.2665,
      "velocity": 92,
      "chip": "ym2612"
    },
    {
      "channel": 1,
      "note": 97,
      "start": 21.3339,
      "duration": 0.2665,
      "velocity": 80,
      "chip": "ym2612"
    },
    {
      "channel": 2,
      "note": 74,
      "start": 21.3342,
      "duration": 0.3994,
      "velocity": 92,
      "chip": "ym2612"
    },
    {
      "channel": 3,
      "note": 78,
      "start": 21.3345,
      "duration": 0.3994,
      "velocity": 92,
      "chip": "ym2612"
    },
    {
      "channel": 4,
      "note": 81,
      "start": 21.3348,
      "duration": 0.3994,
      "velocity": 92,
      "chip": "ym2612"
    },
    {
      "channel": 0,
      "note": 59,
      "start": 21.6002,
      "duration": 0.3998,
      "velocity": 92,
      "chip": "ym2612"
    },
    {
      "channel": 1,
      "note": 93,
      "start": 21.6006,
      "duration": 0.1329,
      "velocity": 80,
      "chip": "ym2612"
    },
    {
      "channel": 2,
      "note": 74,
      "start": 21.7339,
      "duration": 0.3997,
      "velocity": 92,
      "chip": "ym2612"
    },
    {
      "channel": 3,
      "note": 78,
      "start": 21.7341,
      "duration": 0.3998,
      "velocity": 92,
      "chip": "ym2612"
    },
    {
      "channel": 4,
      "note": 81,
      "start": 21.7344,
      "duration": 0.3998,
      "velocity": 92,
      "chip": "ym2612"
    },
    {
      "channel": 1,
      "note": 93,
      "start": 21.867,
      "duration": 0.1334,
      "velocity": 80,
      "chip": "ym2612"
    },
    {
      "channel": 0,
      "note": 59,
      "start": 22.0002,
      "duration": 0.2665,
      "velocity": 92,
      "chip": "ym2612"
    },
    {
      "channel": 1,
      "note": 90,
      "start": 22.0006,
      "duration": 0.1329,
      "velocity": 80,
      "chip": "ym2612"
    },
    {
      "channel": 2,
      "note": 74,
      "start": 22.1339,
      "duration": 0.2665,
      "velocity": 92,
      "chip": "ym2612"
    },
    {
      "channel": 3,
      "note": 78,
      "start": 22.1341,
      "duration": 0.2666,
      "velocity": 92,
      "chip": "ym2612"
    },
    {
      "channel": 4,
      "note": 81,
      "start": 22.1344,
      "duration": 0.2666,
      "velocity": 92,
      "chip": "ym2612"
    },
    {
      "channel": 0,
      "note": 59,
      "start": 22.2669,
      "duration": 0.1332,
      "velocity": 92,
      "chip": "ym2612"
    },
    {
      "channel": 1,
      "note": 93,
      "start": 22.2672,
      "duration": 0.5329,
      "velocity": 80,
      "chip": "ym2612"
    },
    {
      "channel": 0,
      "note": 59,
      "start": 22.4002,
      "duration": 0.2665,
      "velocity": 92,
      "chip": "ym2612"
    },
    {
      "channel": 2,
      "note": 74,
      "start": 22.4006,
      "duration": 0.3998,
      "velocity": 92,
      "chip": "ym2612"
    },
    {
      "channel": 3,
      "note": 78,
      "start": 22.4009,
      "duration": 0.3997,
      "velocity": 92,
      "chip": "ym2612"
    },
    {
      "channel": 4,
      "note": 81,
      "start": 22.4012,
      "duration": 0.3997,
      "velocity": 92,
      "chip": "ym2612"
    },
    {
      "channel": 0,
      "note": 59,
      "start": 22.6669,
      "duration": 0.3998,
      "velocity": 92,
      "chip": "ym2612"
    },
    {
      "channel": 2,
      "note": 74,
      "start": 22.8005,
      "duration": 0.3999,
      "velocity": 92,
      "chip": "ym2612"
    },
    {
      "channel": 3,
      "note": 78,
      "start": 22.8008,
      "duration": 0.3999,
      "velocity": 92,
      "chip": "ym2612"
    },
    {
      "channel": 4,
      "note": 80,
      "start": 22.8011,
      "duration": 0.3999,
      "velocity": 92,
      "chip": "ym2612"
    },
    {
      "channel": 1,
      "note": 90,
      "start": 22.9337,
      "duration": 0.2665,
      "velocity": 80,
      "chip": "ym2612"
    },
    {
      "channel": 0,
      "note": 59,
      "start": 23.0669,
      "duration": 0.2665,
      "velocity": 92,
      "chip": "ym2612"
    },
    {
      "channel": 1,
      "note": 93,
      "start": 23.2003,
      "duration": 0.1334,
      "velocity": 80,
      "chip": "ym2612"
    },
    {
      "channel": 2,
      "note": 74,
      "start": 23.2006,
      "duration": 0.2667,
      "velocity": 92,
      "chip": "ym2612"
    },
    {
      "channel": 3,
      "note": 78,
      "start": 23.2009,
      "duration": 0.2667,
      "velocity": 92,
      "chip": "ym2612"
    },
    {
      "channel": 4,
      "note": 81,
      "start": 23.2012,
      "duration": 0.2667,
      "velocity": 92,
      "chip": "ym2612"
    },
    {
      "channel": 0,
      "note": 59,
      "start": 23.3336,
      "duration": 0.1332,
      "velocity": 92,
      "chip": "ym2612"
    },
    {
      "channel": 0,
      "note": 57,
      "start": 23.4669,
      "duration": 0.2665,
      "velocity": 92,
      "chip": "ym2612"
    },
    {
      "channel": 1,
      "note": 90,
      "start": 23.4672,
      "duration": 0.3996,
      "velocity": 80,
      "chip": "ym2612"
    },
    {
      "channel": 2,
      "note": 73,
      "start": 23.4676,
      "duration": 0.3995,
      "velocity": 92,
      "chip": "ym2612"
    },
    {
      "channel": 3,
      "note": 76,
      "start": 23.4678,
      "duration": 0.3995,
      "velocity": 92,
      "chip": "ym2612"
    },
    {
      "channel": 4,
      "note": 80,
      "start": 23.4681,
      "duration": 0.3995,
      "velocity": 92,
      "chip": "ym2612"
    },
    {
      "channel": 0,
      "note": 57,
      "start": 23.7336,
      "duration": 0.3998,
      "velocity": 92,
      "chip": "ym2612"
    },
    {
      "channel": 1,
      "note": 88,
      "start": 23.867,
      "duration": 1.0667,
      "velocity": 80,
      "chip": "ym2612"
    },
    {
      "channel": 2,
      "note": 73,
      "start": 23.8672,
      "duration": 0.3996,
      "velocity": 92,
      "chip": "ym2612"
    },
    {
      "channel": 3,
      "note": 76,
      "start": 23.8676,
      "duration": 0.3996,
      "velocity": 92,
      "chip": "ym2612"
    },
    {
      "channel": 4,
      "note": 80,
      "start": 23.8679,
      "duration": 0.3996,
      "velocity": 92,
      "chip": "ym2612"
    },
    {
      "channel": 0,
      "note": 57,
      "start": 24.1336,
      "duration": 0.2665,
      "velocity": 92,
      "chip": "ym2612"
    },
    {
      "channel": 2,
      "note": 73,
      "start": 24.267,
      "duration": 0.2667,
      "velocity": 92,
      "chip": "ym2612"
    },
    {
      "channel": 3,
      "note": 76,
      "start": 24.2673,
      "duration": 0.2667,
      "velocity": 92,
      "chip": "ym2612"
    },
    {
      "channel": 4,
      "note": 80,
      "start": 24.2676,
      "duration": 0.2667,
      "velocity": 92,
      "chip": "ym2612"
    },
    {
      "channel": 0,
      "note": 57,
      "start": 24.4002,
      "duration": 0.1332,
      "velocity": 92,
      "chip": "ym2612"
    },
    {
      "channel": 0,
      "note": 57,
      "start": 24.5336,
      "duration": 0.3998,
      "velocity": 92,
      "chip": "ym2612"
    },
    {
      "channel": 2,
      "note": 73,
      "start": 24.5339,
      "duration": 0.4,
      "velocity": 92,
      "chip": "ym2612"
    },
    {
      "channel": 3,
      "note": 76,
      "start": 24.5342,
      "duration": 0.4,
      "velocity": 92,
      "chip": "ym2612"
    },
    {
      "channel": 4,
      "note": 80,
      "start": 24.5345,
      "duration": 0.4,
      "velocity": 92,
      "chip": "ym2612"
    },
    {
      "channel": 0,
      "note": 59,
      "start": 24.9336,
      "duration": 0.3998,
      "velocity": 92,
      "chip": "ym2612"
    },
    {
      "channel": 2,
      "note": 74,
      "start": 24.9341,
      "duration": 0.3999,
      "velocity": 92,
      "chip": "ym2612"
    },
    {
      "channel": 3,
      "note": 78,
      "start": 24.9344,
      "duration": 0.3999,
      "velocity": 92,
      "chip": "ym2612"
    },
    {
      "channel": 4,
      "note": 81,
      "start": 24.9347,
      "duration": 0.3999,
      "velocity": 92,
      "chip": "ym2612"
    },
    {
      "channel": 1,
      "note": 100,
      "start": 25.067,
      "duration": 0.2667,
      "velocity": 80,
      "chip": "ym2612"
    },
    {
      "channel": 0,
      "note": 61,
      "start": 25.3336,
      "duration": 0.2665,
      "velocity": 92,
      "chip": "ym2612"
    },
    {
      "channel": 1,
      "note": 98,
      "start": 25.3339,
      "duration": 0.1329,
      "velocity": 80,
      "chip": "ym2612"
    },
    {
      "channel": 2,
      "note": 76,
      "start": 25.3342,
      "duration": 0.2664,
      "velocity": 92,
      "chip": "ym2612"
    },
    {
      "channel": 3,
      "note": 80,
      "start": 25.3345,
      "duration": 0.2665,
      "velocity": 92,
      "chip": "ym2612"
    },
    {
      "channel": 4,
      "note": 83,
      "start": 25.3348,
      "duration": 0.2665,
      "velocity": 92,
      "chip": "ym2612"
    },
    {
      "channel": 0,
      "note": 62,
      "start": 25.6002,
      "duration": 0.2665,
      "velocity": 92,
      "chip": "ym2612"
    },
    {
      "channel": 1,
      "note": 97,
      "start": 25.6006,
      "duration": 0.2665,
      "velocity": 80,
      "chip": "ym2612"
    },
    {
      "channel": 2,
      "note": 78,
      "start": 25.6009,
      "duration": 0.3994,
      "velocity": 92,
      "chip": "ym2612"
    },
    {
      "channel": 3,
      "note": 81,
      "start": 25.6012,
      "duration": 0.3994,
      "velocity": 92,
      "chip": "ym2612"
    },
    {
      "channel": 4,
      "note": 85,
      "start": 25.6015,
      "duration": 0.3994,
      "velocity": 92,
      "chip": "ym2612"
    },
    {
      "channel": 0,
      "note": 62,
      "start": 25.8669,
      "duration": 0.3998,
      "velocity": 92,
      "chip": "ym2612"
    },
    {
      "channel": 1,
      "note": 93,
      "start": 25.8672,
      "duration": 0.1329,
      "velocity": 80,
      "chip": "ym2612"
    },
    {
      "channel": 2,
      "note": 78,
      "start": 26.0005,
      "duration": 0.3997,
      "velocity": 92,
      "chip": "ym2612"
    },
    {
      "channel": 3,
      "note": 81,
      "start": 26.0008,
      "duration": 0.3998,
      "velocity": 92,
      "chip": "ym2612"
    },
    {
      "channel": 4,
      "note": 85,
      "start": 26.0011,
      "duration": 0.3998,
      "velocity": 92,
      "chip": "ym2612"
    },
    {
      "channel": 1,
      "note": 93,
      "start": 26.1337,
      "duration": 0.1334,
      "velocity": 80,
      "chip": "ym2612"
    },
    {
      "channel": 0,
      "note": 62,
      "start": 26.2669,
      "duration": 0.2665,
      "velocity": 92,
      "chip": "ym2612"
    },
    {
      "channel": 1,
      "note": 90,
      "start": 26.2672,
      "duration": 0.1329,
      "velocity": 80,
      "chip": "ym2612"
    },
    {
      "channel": 2,
      "note": 78,
      "start": 26.4005,
      "duration": 0.2665,
      "velocity": 92,
      "chip": "ym2612"
    },
    {
      "channel": 3,
      "note": 81,
      "start": 26.4008,
      "duration": 0.2666,
      "velocity": 92,
      "chip": "ym2612"
    },
    {
      "channel": 4,
      "note": 85,
      "start": 26.4011,
      "duration": 0.2666,
      "velocity": 92,
      "chip": "ym2612"
    },
    {
      "channel": 0,
      "note": 62,
      "start": 26.5336,
      "duration": 0.1332,
      "velocity": 92,
      "chip": "ym2612"
    },
    {
      "channel": 1,
      "note": 93,
      "start": 26.5339,
      "duration": 0.5329,
      "velocity": 80,
      "chip": "ym2612"
    },
    {
      "channel": 0,
      "note": 62,
      "start": 26.6669,
      "duration": 0.2665,
      "velocity": 92,
      "chip": "ym2612"
    },
    {
      "channel": 2,
      "note": 78,
      "start": 26.6672,
      "duration": 0.3998,
      "velocity": 92,
      "chip": "ym2612"
    },
    {
      "channel": 3,
      "note": 81,
      "start": 26.6676,
      "duration": 0.3997,
      "velocity": 92,
      "chip": "ym2612"
    },
    {
      "channel": 4,
      "note": 85,
      "start": 26.6679,
      "duration": 0.3997,
      "velocity": 92,
      "chip": "ym2612"
    },
    {
      "channel": 0,
      "note": 62,
      "start": 26.9336,
      "duration": 0.3998,
      "velocity": 92,
      "chip": "ym2612"
    },
    {
      "channel": 2,
      "note": 78,
      "start": 27.0672,
      "duration": 0.3999,
      "velocity": 92,
      "chip": "ym2612"
    },
    {
      "channel": 3,
      "note": 81,
      "start": 27.0674,
      "duration": 0.3999,
      "velocity": 92,
      "chip": "ym2612"
    },
    {
      "channel": 4,
      "note": 83,
      "start": 27.0678,
      "duration": 0.3999,
      "velocity": 92,
      "chip": "ym2612"
    },
    {
      "channel": 1,
      "note": 90,
      "start": 27.2003,
      "duration": 0.2665,
      "velocity": 80,
      "chip": "ym2612"
    },
    {
      "channel": 0,
      "note": 62,
      "start": 27.3336,
      "duration": 0.2665,
      "velocity": 92,
      "chip": "ym2612"
    },
    {
      "channel": 1,
      "note": 93,
      "start": 27.467,
      "duration": 0.1334,
      "velocity": 80,
      "chip": "ym2612"
    },
    {
      "channel": 2,
      "note": 78,
      "start": 27.4672,
      "duration": 0.2667,
      "velocity": 92,
      "chip": "ym2612"
    },
    {
      "channel": 3,
      "note": 81,
      "start": 27.4676,
      "duration": 0.2667,
      "velocity": 92,
      "chip": "ym2612"
    },
    {
      "channel": 4,
      "note": 85,
      "start": 27.4679,
      "duration": 0.2667,
      "velocity": 92,
      "chip": "ym2612"
    },
    {
      "channel": 0,
      "note": 62,
      "start": 27.6002,
      "duration": 0.1332,
      "velocity": 92,
      "chip": "ym2612"
    },
    {
      "channel": 0,
      "note": 61,
      "start": 27.7336,
      "duration": 0.2665,
      "velocity": 92,
      "chip": "ym2612"
    },
    {
      "channel": 1,
      "note": 97,
      "start": 27.7339,
      "duration": 0.3996,
      "velocity": 80,
      "chip": "ym2612"
    },
    {
      "channel": 2,
      "note": 76,
      "start": 27.7342,
      "duration": 0.3995,
      "velocity": 92,
      "chip": "ym2612"
    },
    {
      "channel": 3,
      "note": 80,
      "start": 27.7345,
      "duration": 0.3995,
      "velocity": 92,
      "chip": "ym2612"
    },
    {
      "channel": 4,
      "note": 83,
      "start": 27.7348,
      "duration": 0.3995,
      "velocity": 92,
      "chip": "ym2612"
    },
    {
      "channel": 0,
      "note": 61,
      "start": 28.0002,
      "duration": 0.3998,
      "velocity": 92,
      "chip": "ym2612"
    },
    {
      "channel": 1,
      "note": 98,
      "start": 28.1337,
      "duration": 0.3998,
      "velocity": 80,
      "chip": "ym2612"
    },
    {
      "channel": 2,
      "note": 76,
      "start": 28.1339,
      "duration": 0.3998,
      "velocity": 92,
      "chip": "ym2612"
    },
    {
      "channel": 3,
      "note": 80,
      "start": 28.1342,
      "duration": 0.3998,
      "velocity": 92,
      "chip": "ym2612"
    },
    {
      "channel": 4,
      "note": 83,
      "start": 28.1345,
      "duration": 0.3998,
      "velocity": 92,
      "chip": "ym2612"
    },
    {
      "channel": 0,
      "note": 61,
      "start": 28.4002,
      "duration": 0.2665,
      "velocity": 92,
      "chip": "ym2612"
    },
    {
      "channel": 1,
      "note": 100,
      "start": 28.5337,
      "duration": 0.2667,
      "velocity": 80,
      "chip": "ym2612"
    },
    {
      "channel": 2,
      "note": 76,
      "start": 28.5339,
      "duration": 0.2667,
      "velocity": 92,
      "chip": "ym2612"
    },
    {
      "channel": 3,
      "note": 80,
      "start": 28.5342,
      "duration": 0.2667,
      "velocity": 92,
      "chip": "ym2612"
    },
    {
      "channel": 4,
      "note": 83,
      "start": 28.5345,
      "duration": 0.2667,
      "velocity": 92,
      "chip": "ym2612"
    },
    {
      "channel": 0,
      "note": 61,
      "start": 28.6669,
      "duration": 0.1332,
      "velocity": 92,
      "chip": "ym2612"
    },
    {
      "channel": 0,
      "note": 61,
      "start": 28.8002,
      "duration": 0.2665,
      "velocity": 92,
      "chip": "ym2612"
    },
    {
      "channel": 1,
      "note": 98,
      "start": 28.8006,
      "duration": 0.3996,
      "velocity": 80,
      "chip": "ym2612"
    },
    {
      "channel": 2,
      "note": 76,
      "start": 28.8008,
      "duration": 0.3995,
      "velocity": 92,
      "chip": "ym2612"
    },
    {
      "channel": 3,
      "note": 80,
      "start": 28.8012,
      "duration": 0.3995,
      "velocity": 92,
      "chip": "ym2612"
    },
    {
      "channel": 4,
      "note": 83,
      "start": 28.8015,
      "duration": 0.3995,
      "velocity": 92,
      "chip": "ym2612"
    },
    {
      "channel": 0,
      "note": 61,
      "start": 29.0669,
      "duration": 0.3998,
      "velocity": 92,
      "chip": "ym2612"
    },
    {
      "channel": 1,
      "note": 97,
      "start": 29.2003,
      "duration": 0.3998,
      "velocity": 80,
      "chip": "ym2612"
    },
    {
      "channel": 2,
      "note": 76,
      "start": 29.2006,
      "duration": 0.3998,
      "velocity": 92,
      "chip": "ym2612"
    },
    {
      "channel": 3,
      "note": 80,
      "start": 29.2009,
      "duration": 0.3998,
      "velocity": 92,
      "chip": "ym2612"
    },
    {
      "channel": 4,
      "note": 81,
      "start": 29.2012,
      "duration": 0.3998,
      "velocity": 92,
      "chip": "ym2612"
    },
    {
      "channel": 0,
      "note": 61,
      "start": 29.4669,
      "duration": 0.2665,
      "velocity": 92,
      "chip": "ym2612"
    },
    {
      "channel": 1,
      "note": 95,
      "start": 29.6003,
      "duration": 0.2667,
      "velocity": 80,
      "chip": "ym2612"
    },
    {
      "channel": 2,
      "note": 76,
      "start": 29.6006,
      "duration": 0.2667,
      "velocity": 92,
      "chip": "ym2612"
    },
    {
      "channel": 3,
      "note": 80,
      "start": 29.6009,
      "duration": 0.2667,
      "velocity": 92,
      "chip": "ym2612"
    },
    {
      "channel": 4,
      "note": 83,
      "start": 29.6012,
      "duration": 0.2667,
      "velocity": 92,
      "chip": "ym2612"
    },
    {
      "channel": 0,
      "note": 61,
      "start": 29.7336,
      "duration": 0.1332,
      "velocity": 92,
      "chip": "ym2612"
    },
    {
      "channel": 0,
      "note": 59,
      "start": 29.8669,
      "duration": 0.2665,
      "velocity": 92,
      "chip": "ym2612"
    },
    {
      "channel": 1,
      "note": 97,
      "start": 29.8672,
      "duration": 0.2665,
      "velocity": 80,
      "chip": "ym2612"
    },
    {
      "channel": 2,
      "note": 74,
      "start": 29.8676,
      "duration": 0.3994,
      "velocity": 92,
      "chip": "ym2612"
    },
    {
      "channel": 3,
      "note": 78,
      "start": 29.8678,
      "duration": 0.3994,
      "velocity": 92,
      "chip": "ym2612"
    },
    {
      "channel": 4,
      "note": 81,
      "start": 29.8681,
      "duration": 0.3994,
      "velocity": 92,
      "chip": "ym2612"
    },
    {
      "channel": 0,
      "note": 59,
      "start": 30.1336,
      "duration": 0.3998,
      "velocity": 92,
      "chip": "ym2612"
    },
    {
      "channel": 1,
      "note": 93,
      "start": 30.1339,
      "duration": 0.1329,
      "velocity": 80,
      "chip": "ym2612"
    },
    {
      "channel": 2,
      "note": 74,
      "start": 30.2672,
      "duration": 0.3997,
      "velocity": 92,
      "chip": "ym2612"
    },
    {
      "channel": 3,
      "note": 78,
      "start": 30.2674,
      "duration": 0.3998,
      "velocity": 92,
      "chip": "ym2612"
    },
    {
      "channel": 4,
      "note": 81,
      "start": 30.2678,
      "duration": 0.3998,
      "velocity": 92,
      "chip": "ym2612"
    },
    {
      "channel": 1,
      "note": 93,
      "start": 30.4003,
      "duration": 0.1334,
      "velocity": 80,
      "chip": "ym2612"
    },
    {
      "channel": 0,
      "note": 59,
      "start": 30.5336,
      "duration": 0.2665,
      "velocity": 92,
      "chip": "ym2612"
    },
    {
      "channel": 1,
      "note": 90,
      "start": 30.5339,
      "duration": 0.1329,
      "velocity": 80,
      "chip": "ym2612"
    },
    {
      "channel": 2,
      "note": 74,
      "start": 30.6672,
      "duration": 0.2665,
      "velocity": 92,
      "chip": "ym2612"
    },
    {
      "channel": 3,
      "note": 78,
      "start": 30.6674,
      "duration": 0.2666,
      "velocity": 92,
      "chip": "ym2612"
    },
    {
      "channel": 4,
      "note": 81,
      "start": 30.6678,
      "duration": 0.2666,
      "velocity": 92,
      "chip": "ym2612"
    },
    {
      "channel": 0,
      "note": 59,
      "start": 30.8002,
      "duration": 0.1332,
      "velocity": 92,
      "chip": "ym2612"
    },
    {
      "channel": 1,
      "note": 93,
      "start": 30.8006,
      "duration": 0.5329,
      "velocity": 80,
      "chip": "ym2612"
    },
    {
      "channel": 0,
      "note": 59,
      "start": 30.9336,
      "duration": 0.2665,
      "velocity": 92,
      "chip": "ym2612"
    },
    {
      "channel": 2,
      "note": 74,
      "start": 30.9339,
      "duration": 0.3998,
      "velocity": 92,
      "chip": "ym2612"
    },
    {
      "channel": 3,
      "note": 78,
      "start": 30.9342,
      "duration": 0.3997,
      "velocity": 92,
      "chip": "ym2612"
    },
    {
      "channel": 4,
      "note": 81,
      "start": 30.9345,
      "duration": 0.3997,
      "velocity": 92,
      "chip": "ym2612"
    },
    {
      "channel": 0,
      "note": 59,
      "start": 31.2002,
      "duration": 0.3998,
      "velocity": 92,
      "chip": "ym2612"
    },
    {
      "channel": 2,
      "note": 74,
      "start": 31.3339,
      "duration": 0.3999,
      "velocity": 92,
      "chip": "ym2612"
    },
    {
      "channel": 3,
      "note": 78,
      "start": 31.3341,
      "duration": 0.3999,
      "velocity": 92,
      "chip": "ym2612"
    },
    {
      "channel": 4,
      "note": 80,
      "start": 31.3344,
      "duration": 0.3999,
      "velocity": 92,
      "chip": "ym2612"
    },
    {
      "channel": 1,
      "note": 90,
      "start": 31.467,
      "duration": 0.1334,
      "velocity": 80,
      "chip": "ym2612"
    },
    {
      "channel": 0,
      "note": 59,
      "start": 31.6002,
      "duration": 0.2665,
      "velocity": 92,
      "chip": "ym2612"
    },
    {
      "channel": 1,
      "note": 93,
      "start": 31.7337,
      "duration": 0.1334,
      "velocity": 80,
      "chip": "ym2612"
    },
    {
      "channel": 2,
      "note": 74,
      "start": 31.7339,
      "duration": 0.2668,
      "velocity": 92,
      "chip": "ym2612"
    },
    {
      "channel": 3,
      "note": 78,
      "start": 31.7342,
      "duration": 0.2668,
      "velocity": 92,
      "chip": "ym2612"
    },
    {
      "channel": 4,
      "note": 81,
      "start": 31.7345,
      "duration": 0.2668,
      "velocity": 92,
      "chip": "ym2612"
    },
    {
      "channel": 0,
      "note": 59,
      "start": 31.8669,
      "duration": 0.1332,
      "velocity": 92,
      "chip": "ym2612"
    },
    {
      "channel": 0,
      "note": 61,
      "start": 32.0002,
      "duration": 0.2665,
      "velocity": 92,
      "chip": "ym2612"
    },
    {
      "channel": 1,
      "note": 97,
      "start": 32.0006,
      "duration": 0.5329,
      "velocity": 80,
      "chip": "ym2612"
    },
    {
      "channel": 2,
      "note": 76,
      "start": 32.0009,
      "duration": 0.3993,
      "velocity": 92,
      "chip": "ym2612"
    },
    {
      "channel": 3,
      "note": 80,
      "start": 32.0012,
      "duration": 0.3993,
      "velocity": 92,
      "chip": "ym2612"
    },
    {
      "channel": 4,
      "note": 83,
      "start": 32.0015,
      "duration": 0.3993,
      "velocity": 92,
      "chip": "ym2612"
    },
    {
      "channel": 0,
      "note": 61,
      "start": 32.2669,
      "duration": 0.3998,
      "velocity": 92,
      "chip": "ym2612"
    },
    {
      "channel": 2,
      "note": 76,
      "start": 32.4003,
      "duration": 0.3998,
      "velocity": 92,
      "chip": "ym2612"
    },
    {
      "channel": 3,
      "note": 80,
      "start": 32.4006,
      "duration": 0.3998,
      "velocity": 92,
      "chip": "ym2612"
    },
    {
      "channel": 4,
      "note": 83,
      "start": 32.401,
      "duration": 0.3998,
      "velocity": 92,
      "chip": "ym2612"
    },
    {
      "channel": 1,
      "note": 95,
      "start": 32.5337,
      "duration": 0.5334,
      "velocity": 80,
      "chip": "ym2612"
    },
    {
      "channel": 0,
      "note": 61,
      "start": 32.6669,
      "duration": 0.2665,
      "velocity": 92,
      "chip": "ym2612"
    },
    {
      "channel": 2,
      "note": 76,
      "start": 32.8003,
      "duration": 0.267,
      "velocity": 92,
      "chip": "ym2612"
    },
    {
      "channel": 3,
      "note": 80,
      "start": 32.8006,
      "duration": 0.267,
      "velocity": 92,
      "chip": "ym2612"
    },
    {
      "channel": 4,
      "note": 83,
      "start": 32.801,
      "duration": 0.267,
      "velocity": 92,
      "chip": "ym2612"
    },
    {
      "channel": 0,
      "note": 61,
      "start": 32.9336,
      "duration": 0.1332,
      "velocity": 92,
      "chip": "ym2612"
    },
    {
      "channel": 0,
      "note": 61,
      "start": 33.0669,
      "duration": 1.0679,
      "velocity": 110,
      "chip": "ym2612"
    },
    {
      "channel": 1,
      "note": 98,
      "start": 33.0672,
      "duration": 0.5329,
      "velocity": 80,
      "chip": "ym2612"
    },
    {
      "channel": 2,
      "note": 76,
      "start": 33.0675,
      "duration": 1.068,
      "velocity": 92,
      "chip": "ym2612"
    },
    {
      "channel": 3,
      "note": 80,
      "start": 33.0678,
      "duration": 1.068,
      "velocity": 92,
      "chip": "ym2612"
    },
    {
      "channel": 4,
      "note": 83,
      "start": 33.0681,
      "duration": 1.068,
      "velocity": 92,
      "chip": "ym2612"
    },
    {
      "channel": 1,
      "note": 97,
      "start": 33.6003,
      "duration": 0.5349,
      "velocity": 80,
      "chip": "ym2612"
    },
    {
      "channel": 0,
      "note": 47,
      "start": 34.135,
      "duration": 0.3984,
      "velocity": 110,
      "chip": "ym2612"
    },
    {
      "channel": 1,
      "note": 93,
      "start": 34.1354,
      "duration": 0.3983,
      "velocity": 80,
      "chip": "ym2612"
    },
    {
      "channel": 2,
      "note": 74,
      "start": 34.1357,
      "duration": 0.3983,
      "velocity": 92,
      "chip": "ym2612"
    },
    {
      "channel": 3,
      "note": 78,
      "start": 34.136,
      "duration": 0.3983,
      "velocity": 92,
      "chip": "ym2612"
    },
    {
      "channel": 4,
      "note": 81,
      "start": 34.1363,
      "duration": 0.3983,
      "velocity": 92,
      "chip": "ym2612"
    },
    {
      "channel": 5,
      "note": 7,
      "start": 34.1378,
      "duration": 0.397,
      "velocity": 125,
      "chip": "ym2612"
    },
    {
      "channel": 0,
      "note": 47,
      "start": 34.5336,
      "duration": 0.1332,
      "velocity": 110,
      "chip": "ym2612"
    },
    {
      "channel": 1,
      "note": 90,
      "start": 34.5339,
      "duration": 0.1332,
      "velocity": 80,
      "chip": "ym2612"
    },
    {
      "channel": 2,
      "note": 74,
      "start": 34.5342,
      "duration": 0.3995,
      "velocity": 92,
      "chip": "ym2612"
    },
    {
      "channel": 3,
      "note": 78,
      "start": 34.5345,
      "duration": 0.3995,
      "velocity": 92,
      "chip": "ym2612"
    },
    {
      "channel": 4,
      "note": 81,
      "start": 34.5348,
      "duration": 0.3995,
      "velocity": 92,
      "chip": "ym2612"
    },
    {
      "channel": 5,
      "note": 7,
      "start": 34.5351,
      "duration": 0.1333,
      "velocity": 119,
      "chip": "ym2612"
    },
    {
      "channel": 0,
      "note": 54,
      "start": 34.6669,
      "duration": 0.2665,
      "velocity": 110,
      "chip": "ym2612"
    },
    {
      "channel": 5,
      "note": 57,
      "start": 34.6686,
      "duration": 0.2671,
      "velocity": 125,
      "chip": "ym2612"
    },
    {
      "channel": 0,
      "note": 47,
      "start": 34.9336,
      "duration": 0.2665,
      "velocity": 110,
      "chip": "ym2612"
    },
    {
      "channel": 2,
      "note": 74,
      "start": 34.9339,
      "duration": 0.2665,
      "velocity": 92,
      "chip": "ym2612"
    },
    {
      "channel": 3,
      "note": 78,
      "start": 34.9342,
      "duration": 0.2665,
      "velocity": 92,
      "chip": "ym2612"
    },
    {
      "channel": 4,
      "note": 81,
      "start": 34.9345,
      "duration": 0.2665,
      "velocity": 92,
      "chip": "ym2612"
    },
    {
      "channel": 5,
      "note": 7,
      "start": 34.9359,
      "duration": 0.2653,
      "velocity": 125,
      "chip": "ym2612"
    },
    {
      "channel": 0,
      "note": 47,
      "start": 35.2002,
      "duration": 0.1332,
      "velocity": 110,
      "chip": "ym2612"
    },
    {
      "channel": 2,
      "note": 74,
      "start": 35.2006,
      "duration": 0.3998,
      "velocity": 92,
      "chip": "ym2612"
    },
    {
      "channel": 3,
      "note": 78,
      "start": 35.2009,
      "duration": 0.3998,
      "velocity": 92,
      "chip": "ym2612"
    },
    {
      "channel": 4,
      "note": 81,
      "start": 35.2012,
      "duration": 0.3998,
      "velocity": 92,
      "chip": "ym2612"
    },
    {
      "channel": 5,
      "note": 7,
      "start": 35.2015,
      "duration": 0.1323,
      "velocity": 125,
      "chip": "ym2612"
    },
    {
      "channel": 0,
      "note": 47,
      "start": 35.3336,
      "duration": 0.2665,
      "velocity": 110,
      "chip": "ym2612"
    },
    {
      "channel": 5,
      "note": 7,
      "start": 35.3341,
      "duration": 0.2672,
      "velocity": 125,
      "chip": "ym2612"
    },
    {
      "channel": 0,
      "note": 47,
      "start": 35.6002,
      "duration": 0.1332,
      "velocity": 110,
      "chip": "ym2612"
    },
    {
      "channel": 2,
      "note": 74,
      "start": 35.6006,
      "duration": 0.4001,
      "velocity": 92,
      "chip": "ym2612"
    },
    {
      "channel": 3,
      "note": 78,
      "start": 35.6009,
      "duration": 0.4001,
      "velocity": 92,
      "chip": "ym2612"
    },
    {
      "channel": 4,
      "note": 80,
      "start": 35.6012,
      "duration": 0.4001,
      "velocity": 92,
      "chip": "ym2612"
    },
    {
      "channel": 5,
      "note": 7,
      "start": 35.6015,
      "duration": 0.1337,
      "velocity": 119,
      "chip": "ym2612"
    },
    {
      "channel": 0,
      "note": 54,
      "start": 35.7336,
      "duration": 0.2665,
      "velocity": 110,
      "chip": "ym2612"
    },
    {
      "channel": 1,
      "note": 88,
      "start": 35.7339,
      "duration": 0.1329,
      "velocity": 80,
      "chip": "ym2612"
    },
    {
      "channel": 5,
      "note": 57,
      "start": 35.7354,
      "duration": 0.2672,
      "velocity": 125,
      "chip": "ym2612"
    },
    {
      "channel": 0,
      "note": 47,
      "start": 36.0002,
      "duration": 0.2665,
      "velocity": 110,
      "chip": "ym2612"
    },
    {
      "channel": 1,
      "note": 90,
      "start": 36.0006,
      "duration": 0.1329,
      "velocity": 80,
      "chip": "ym2612"
    },
    {
      "channel": 2,
      "note": 74,
      "start": 36.0009,
      "duration": 0.2664,
      "velocity": 92,
      "chip": "ym2612"
    },
    {
      "channel": 3,
      "note": 78,
      "start": 36.0012,
      "duration": 0.2665,
      "velocity": 92,
      "chip": "ym2612"
    },
    {
      "channel": 4,
      "note": 81,
      "start": 36.0015,
      "duration": 0.2665,
      "velocity": 92,
      "chip": "ym2612"
    },
    {
      "channel": 5,
      "note": 7,
      "start": 36.0029,
      "duration": 0.2666,
      "velocity": 125,
      "chip": "ym2612"
    },
    {
      "channel": 0,
      "note": 47,
      "start": 36.2669,
      "duration": 0.3998,
      "velocity": 110,
      "chip": "ym2612"
    },
    {
      "channel": 1,
      "note": 93,
      "start": 36.2672,
      "duration": 0.3998,
      "velocity": 80,
      "chip": "ym2612"
    },
    {
      "channel": 2,
      "note": 74,
      "start": 36.2676,
      "duration": 0.3998,
      "velocity": 92,
      "chip": "ym2612"
    },
    {
      "channel": 3,
      "note": 78,
      "start": 36.2678,
      "duration": 0.3998,
      "velocity": 92,
      "chip": "ym2612"
    },
    {
      "channel": 4,
      "note": 81,
      "start": 36.2681,
      "duration": 0.3998,
      "velocity": 92,
      "chip": "ym2612"
    },
    {
      "channel": 5,
      "note": 7,
      "start": 36.2697,
      "duration": 0.3985,
      "velocity": 125,
      "chip": "ym2612"
    },
    {
      "channel": 0,
      "note": 47,
      "start": 36.6669,
      "duration": 0.1332,
      "velocity": 110,
      "chip": "ym2612"
    },
    {
      "channel": 1,
      "note": 90,
      "start": 36.6672,
      "duration": 0.1332,
      "velocity": 80,
      "chip": "ym2612"
    },
    {
      "channel": 2,
      "note": 74,
      "start": 36.6675,
      "duration": 0.3995,
      "velocity": 92,
      "chip": "ym2612"
    },
    {
      "channel": 3,
      "note": 78,
      "start": 36.6678,
      "duration": 0.3995,
      "velocity": 92,
      "chip": "ym2612"
    },
    {
      "channel": 4,
      "note": 81,
      "start": 36.6681,
      "duration": 0.3995,
      "velocity": 92,
      "chip": "ym2612"
    },
    {
      "channel": 5,
      "note": 7,
      "start": 36.6685,
      "duration": 0.1333,
      "velocity": 119,
      "chip": "ym2612"
    },
    {
      "channel": 0,
      "note": 54,
      "start": 36.8002,
      "duration": 0.2665,
      "velocity": 110,
      "chip": "ym2612"
    },
    {
      "channel": 5,
      "note": 57,
      "start": 36.802,
      "duration": 0.2671,
      "velocity": 125,
      "chip": "ym2612"
    },
    {
      "channel": 0,
      "note": 47,
      "start": 37.0669,
      "duration": 0.2665,
      "velocity": 110,
      "chip": "ym2612"
    },
    {
      "channel": 2,
      "note": 74,
      "start": 37.0672,
      "duration": 0.2665,
      "velocity": 92,
      "chip": "ym2612"
    },
    {
      "channel": 3,
      "note": 78,
      "start": 37.0676,
      "duration": 0.2665,
      "velocity": 92,
      "chip": "ym2612"
    },
    {
      "channel": 4,
      "note": 81,
      "start": 37.0679,
      "duration": 0.2665,
      "velocity": 92,
      "chip": "ym2612"
    },
    {
      "channel": 5,
      "note": 7,
      "start": 37.0693,
      "duration": 0.2653,
      "velocity": 125,
      "chip": "ym2612"
    },
    {
      "channel": 0,
      "note": 47,
      "start": 37.3336,
      "duration": 0.1332,
      "velocity": 110,
      "chip": "ym2612"
    },
    {
      "channel": 2,
      "note": 74,
      "start": 37.3339,
      "duration": 0.3998,
      "velocity": 92,
      "chip": "ym2612"
    },
    {
      "channel": 3,
      "note": 78,
      "start": 37.3342,
      "duration": 0.3998,
      "velocity": 92,
      "chip": "ym2612"
    },
    {
      "channel": 4,
      "note": 81,
      "start": 37.3345,
      "duration": 0.3998,
      "velocity": 92,
      "chip": "ym2612"
    },
    {
      "channel": 5,
      "note": 7,
      "start": 37.3349,
      "duration": 0.1323,
      "velocity": 125,
      "chip": "ym2612"
    },
    {
      "channel": 0,
      "note": 47,
      "start": 37.4669,
      "duration": 0.2665,
      "velocity": 110,
      "chip": "ym2612"
    },
    {
      "channel": 5,
      "note": 7,
      "start": 37.4674,
      "duration": 0.2672,
      "velocity": 125,
      "chip": "ym2612"
    },
    {
      "channel": 0,
      "note": 47,
      "start": 37.7336,
      "duration": 0.1332,
      "velocity": 110,
      "chip": "ym2612"
    },
    {
      "channel": 2,
      "note": 74,
      "start": 37.7339,
      "duration": 0.4001,
      "velocity": 92,
      "chip": "ym2612"
    },
    {
      "channel": 3,
      "note": 78,
      "start": 37.7342,
      "duration": 0.4001,
      "velocity": 92,
      "chip": "ym2612"
    },
    {
      "channel": 4,
      "note": 80,
      "start": 37.7345,
      "duration": 0.4001,
      "velocity": 92,
      "chip": "ym2612"
    },
    {
      "channel": 5,
      "note": 7,
      "start": 37.7349,
      "duration": 0.1337,
      "velocity": 119,
      "chip": "ym2612"
    },
    {
      "channel": 0,
      "note": 54,
      "start": 37.8669,
      "duration": 0.2665,
      "velocity": 110,
      "chip": "ym2612"
    },
    {
      "channel": 1,
      "note": 92,
      "start": 37.8672,
      "duration": 0.1329,
      "velocity": 80,
      "chip": "ym2612"
    },
    {
      "channel": 5,
      "note": 57,
      "start": 37.8688,
      "duration": 0.2672,
      "velocity": 125,
      "chip": "ym2612"
    },
    {
      "channel": 1,
      "note": 93,
      "start": 38.0003,
      "duration": 0.1334,
      "velocity": 80,
      "chip": "ym2612"
    },
    {
      "channel": 0,
      "note": 53,
      "start": 38.1336,
      "duration": 0.2665,
      "velocity": 110,
      "chip": "ym2612"
    },
    {
      "channel": 1,
      "note": 92,
      "start": 38.1339,
      "duration": 0.1329,
      "velocity": 80,
      "chip": "ym2612"
    },
    {
      "channel": 2,
      "note": 74,
      "start": 38.1342,
      "duration": 0.2665,
      "velocity": 92,
      "chip": "ym2612"
    },
    {
      "channel": 3,
      "note": 78,
      "start": 38.1345,
      "duration": 0.2665,
      "velocity": 92,
      "chip": "ym2612"
    },
    {
      "channel": 4,
      "note": 81,
      "start": 38.1348,
      "duration": 0.2665,
      "velocity": 92,
      "chip": "ym2612"
    },
    {
      "channel": 5,
      "note": 7,
      "start": 38.1363,
      "duration": 0.2666,
      "velocity": 125,
      "chip": "ym2612"
    },
    {
      "channel": 1,
      "note": 88,
      "start": 38.267,
      "duration": 0.1334,
      "velocity": 80,
      "chip": "ym2612"
    },
    {
      "channel": 0,
      "note": 45,
      "start": 38.4002,
      "duration": 0.3998,
      "velocity": 110,
      "chip": "ym2612"
    },
    {
      "channel": 1,
      "note": 90,
      "start": 38.4006,
      "duration": 0.3998,
      "velocity": 80,
      "chip": "ym2612"
    },
    {
      "channel": 2,
      "note": 73,
      "start": 38.4008,
      "duration": 0.3998,
      "velocity": 92,
      "chip": "ym2612"
    },
    {
      "channel": 3,
      "note": 76,
      "start": 38.4012,
      "duration": 0.3998,
      "velocity": 92,
      "chip": "ym2612"
    },
    {
      "channel": 4,
      "note": 80,
      "start": 38.4015,
      "duration": 0.3998,
      "velocity": 92,
      "chip": "ym2612"
    },
    {
      "channel": 5,
      "note": 7,
      "start": 38.403,
      "duration": 0.3985,
      "velocity": 125,
      "chip": "ym2612"
    },
    {
      "channel": 0,
      "note": 45,
      "start": 38.8002,
      "duration": 0.1332,
      "velocity": 110,
      "chip": "ym2612"
    },
    {
      "channel": 1,
      "note": 88,
      "start": 38.8006,
      "duration": 0.1332,
      "velocity": 80,
      "chip": "ym2612"
    },
    {
      "channel": 2,
      "note": 73,
      "start": 38.8008,
      "duration": 0.3995,
      "velocity": 92,
      "chip": "ym2612"
    },
    {
      "channel": 3,
      "note": 76,
      "start": 38.8012,
      "duration": 0.3995,
      "velocity": 92,
      "chip": "ym2612"
    },
    {
      "channel": 4,
      "note": 80,
      "start": 38.8015,
      "duration": 0.3995,
      "velocity": 92,
      "chip": "ym2612"
    },
    {
      "channel": 5,
      "note": 7,
      "start": 38.8018,
      "duration": 0.1333,
      "velocity": 119,
      "chip": "ym2612"
    },
    {
      "channel": 0,
      "note": 52,
      "start": 38.9336,
      "duration": 0.2665,
      "velocity": 110,
      "chip": "ym2612"
    },
    {
      "channel": 5,
      "note": 57,
      "start": 38.9353,
      "duration": 0.2671,
      "velocity": 125,
      "chip": "ym2612"
    },
    {
      "channel": 0,
      "note": 45,
      "start": 39.2002,
      "duration": 0.2665,
      "velocity": 110,
      "chip": "ym2612"
    },
    {
      "channel": 2,
      "note": 73,
      "start": 39.2006,
      "duration": 0.2665,
      "velocity": 92,
      "chip": "ym2612"
    },
    {
      "channel": 3,
      "note": 76,
      "start": 39.2009,
      "duration": 0.2665,
      "velocity": 92,
      "chip": "ym2612"
    },
    {
      "channel": 4,
      "note": 80,
      "start": 39.2012,
      "duration": 0.2665,
      "velocity": 92,
      "chip": "ym2612"
    },
    {
      "channel": 5,
      "note": 7,
      "start": 39.2026,
      "duration": 0.2653,
      "velocity": 125,
      "chip": "ym2612"
    },
    {
      "channel": 0,
      "note": 45,
      "start": 39.4669,
      "duration": 0.1332,
      "velocity": 110,
      "chip": "ym2612"
    },
    {
      "channel": 2,
      "note": 73,
      "start": 39.4672,
      "duration": 0.3998,
      "velocity": 92,
      "chip": "ym2612"
    },
    {
      "channel": 3,
      "note": 76,
      "start": 39.4676,
      "duration": 0.3998,
      "velocity": 92,
      "chip": "ym2612"
    },
    {
      "channel": 4,
      "note": 80,
      "start": 39.4679,
      "duration": 0.3998,
      "velocity": 92,
      "chip": "ym2612"
    },
    {
      "channel": 5,
      "note": 7,
      "start": 39.4682,
      "duration": 0.1323,
      "velocity": 125,
      "chip": "ym2612"
    },
    {
      "channel": 0,
      "note": 45,
      "start": 39.6002,
      "duration": 0.2665,
      "velocity": 110,
      "chip": "ym2612"
    },
    {
      "channel": 5,
      "note": 7,
      "start": 39.6008,
      "duration": 0.2672,
      "velocity": 125,
      "chip": "ym2612"
    },
    {
      "channel": 0,
      "note": 45,
      "start": 39.8669,
      "duration": 0.1332,
      "velocity": 110,
      "chip": "ym2612"
    },
    {
      "channel": 2,
      "note": 73,
      "start": 39.8672,
      "duration": 0.3998,
      "velocity": 92,
      "chip": "ym2612"
    },
    {
      "channel": 3,
      "note": 76,
      "start": 39.8676,
      "duration": 0.3998,
      "velocity": 92,
      "chip": "ym2612"
    },
    {
      "channel": 4,
      "note": 78,
      "start": 39.8679,
      "duration": 0.3998,
      "velocity": 92,
      "chip": "ym2612"
    },
    {
      "channel": 5,
      "note": 7,
      "start": 39.8682,
      "duration": 0.1335,
      "velocity": 119,
      "chip": "ym2612"
    },
    {
      "channel": 0,
      "note": 52,
      "start": 40.0002,
      "duration": 0.2665,
      "velocity": 110,
      "chip": "ym2612"
    },
    {
      "channel": 5,
      "note": 57,
      "start": 40.0018,
      "duration": 0.2673,
      "velocity": 125,
      "chip": "ym2612"
    },
    {
      "channel": 0,
      "note": 45,
      "start": 40.2669,
      "duration": 0.2665,
      "velocity": 110,
      "chip": "ym2612"
    },
    {
      "channel": 2,
      "note": 73,
      "start": 40.2672,
      "duration": 0.2667,
      "velocity": 92,
      "chip": "ym2612"
    },
    {
      "channel": 3,
      "note": 76,
      "start": 40.2676,
      "duration": 0.2666,
      "velocity": 92,
      "chip": "ym2612"
    },
    {
      "channel": 4,
      "note": 80,
      "start": 40.2679,
      "duration": 0.2666,
      "velocity": 92,
      "chip": "ym2612"
    },
    {
      "channel": 5,
      "note": 7,
      "start": 40.2693,
      "duration": 0.2667,
      "velocity": 125,
      "chip": "ym2612"
    },
    {
      "channel": 0,
      "note": 45,
      "start": 40.5336,
      "duration": 0.3998,
      "velocity": 110,
      "chip": "ym2612"
    },
    {
      "channel": 2,
      "note": 73,
      "start": 40.5341,
      "duration": 0.3996,
      "velocity": 92,
      "chip": "ym2612"
    },
    {
      "channel": 3,
      "note": 76,
      "start": 40.5344,
      "duration": 0.3997,
      "velocity": 92,
      "chip": "ym2612"
    },
    {
      "channel": 4,
      "note": 80,
      "start": 40.5347,
      "duration": 0.3997,
      "velocity": 92,
      "chip": "ym2612"
    },
    {
      "channel": 5,
      "note": 7,
      "start": 40.5362,
      "duration": 0.3984,
      "velocity": 125,
      "chip": "ym2612"
    },
    {
      "channel": 0,
      "note": 45,
      "start": 40.9336,
      "duration": 0.1332,
      "velocity": 110,
      "chip": "ym2612"
    },
    {
      "channel": 2,
      "note": 73,
      "start": 40.9339,
      "duration": 0.3998,
      "velocity": 92,
      "chip": "ym2612"
    },
    {
      "channel": 3,
      "note": 76,
      "start": 40.9342,
      "duration": 0.3998,
      "velocity": 92,
      "chip": "ym2612"
    },
    {
      "channel": 4,
      "note": 80,
      "start": 40.9345,
      "duration": 0.3998,
      "velocity": 92,
      "chip": "ym2612"
    },
    {
      "channel": 5,
      "note": 7,
      "start": 40.9349,
      "duration": 0.1335,
      "velocity": 119,
      "chip": "ym2612"
    },
    {
      "channel": 0,
      "note": 52,
      "start": 41.0669,
      "duration": 0.2665,
      "velocity": 110,
      "chip": "ym2612"
    },
    {
      "channel": 5,
      "note": 57,
      "start": 41.0685,
      "duration": 0.2673,
      "velocity": 125,
      "chip": "ym2612"
    },
    {
      "channel": 0,
      "note": 45,
      "start": 41.3336,
      "duration": 0.2665,
      "velocity": 110,
      "chip": "ym2612"
    },
    {
      "channel": 2,
      "note": 73,
      "start": 41.3339,
      "duration": 0.2665,
      "velocity": 92,
      "chip": "ym2612"
    },
    {
      "channel": 3,
      "note": 76,
      "start": 41.3342,
      "duration": 0.2665,
      "velocity": 92,
      "chip": "ym2612"
    },
    {
      "channel": 4,
      "note": 80,
      "start": 41.3345,
      "duration": 0.2665,
      "velocity": 92,
      "chip": "ym2612"
    },
    {
      "channel": 5,
      "note": 7,
      "start": 41.3359,
      "duration": 0.2653,
      "velocity": 125,
      "chip": "ym2612"
    },
    {
      "channel": 0,
      "note": 45,
      "start": 41.6002,
      "duration": 0.1332,
      "velocity": 110,
      "chip": "ym2612"
    },
    {
      "channel": 2,
      "note": 73,
      "start": 41.6006,
      "duration": 0.3998,
      "velocity": 92,
      "chip": "ym2612"
    },
    {
      "channel": 3,
      "note": 76,
      "start": 41.6009,
      "duration": 0.3998,
      "velocity": 92,
      "chip": "ym2612"
    },
    {
      "channel": 4,
      "note": 80,
      "start": 41.6012,
      "duration": 0.3998,
      "velocity": 92,
      "chip": "ym2612"
    },
    {
      "channel": 5,
      "note": 7,
      "start": 41.6015,
      "duration": 0.1323,
      "velocity": 125,
      "chip": "ym2612"
    },
    {
      "channel": 0,
      "note": 45,
      "start": 41.7336,
      "duration": 0.2665,
      "velocity": 110,
      "chip": "ym2612"
    },
    {
      "channel": 5,
      "note": 7,
      "start": 41.7341,
      "duration": 0.2672,
      "velocity": 125,
      "chip": "ym2612"
    },
    {
      "channel": 0,
      "note": 45,
      "start": 42.0002,
      "duration": 0.1332,
      "velocity": 110,
      "chip": "ym2612"
    },
    {
      "channel": 2,
      "note": 73,
      "start": 42.0006,
      "duration": 0.3998,
      "velocity": 92,
      "chip": "ym2612"
    },
    {
      "channel": 3,
      "note": 76,
      "start": 42.0009,
      "duration": 0.3998,
      "velocity": 92,
      "chip": "ym2612"
    },
    {
      "channel": 4,
      "note": 78,
      "start": 42.0012,
      "duration": 0.3998,
      "velocity": 92,
      "chip": "ym2612"
    },
    {
      "channel": 5,
      "note": 7,
      "start": 42.0015,
      "duration": 0.1335,
      "velocity": 119,
      "chip": "ym2612"
    },
    {
      "channel": 0,
      "note": 52,
      "start": 42.1336,
      "duration": 0.2665,
      "velocity": 110,
      "chip": "ym2612"
    },
    {
      "channel": 5,
      "note": 57,
      "start": 42.1352,
      "duration": 0.2673,
      "velocity": 125,
      "chip": "ym2612"
    },
    {
      "channel": 0,
      "note": 46,
      "start": 42.4002,
      "duration": 0.2666,
      "velocity": 110,
      "chip": "ym2612"
    },
    {
      "channel": 2,
      "note": 73,
      "start": 42.4006,
      "duration": 0.2669,
      "velocity": 92,
      "chip": "ym2612"
    },
    {
      "channel": 3,
      "note": 76,
      "start": 42.4009,
      "duration": 0.2669,
      "velocity": 92,
      "chip": "ym2612"
    },
    {
      "channel": 4,
      "note": 80,
      "start": 42.4012,
      "duration": 0.267,
      "velocity": 92,
      "chip": "ym2612"
    },
    {
      "channel": 5,
      "note": 7,
      "start": 42.4026,
      "duration": 0.2671,
      "velocity": 125,
      "chip": "ym2612"
    },
    {
      "channel": 0,
      "note": 47,
      "start": 42.667,
      "duration": 0.3998,
      "velocity": 110,
      "chip": "ym2612"
    },
    {
      "channel": 1,
      "note": 93,
      "start": 42.6673,
      "duration": 0.3998,
      "velocity": 80,
      "chip": "ym2612"
    },
    {
      "channel": 2,
      "note": 74,
      "start": 42.6677,
      "duration": 0.3996,
      "velocity": 92,
      "chip": "ym2612"
    },
    {
      "channel": 3,
      "note": 78,
      "start": 42.668,
      "duration": 0.3996,
      "velocity": 92,
      "chip": "ym2612"
    },
    {
      "channel": 4,
      "note": 81,
      "start": 42.6684,
      "duration": 0.3995,
      "velocity": 92,
      "chip": "ym2612"
    },
    {
      "channel": 5,
      "note": 7,
      "start": 42.6699,
      "duration": 0.3983,
      "velocity": 125,
      "chip": "ym2612"
    },
    {
      "channel": 0,
      "note": 47,
      "start": 43.0669,
      "duration": 0.1332,
      "velocity": 110,
      "chip": "ym2612"
    },
    {
      "channel": 1,
      "note": 90,
      "start": 43.0672,
      "duration": 0.1332,
      "velocity": 80,
      "chip": "ym2612"
    },
    {
      "channel": 2,
      "note": 74,
      "start": 43.0675,
      "duration": 0.3995,
      "velocity": 92,
      "chip": "ym2612"
    },
    {
      "channel": 3,
      "note": 78,
      "start": 43.0678,
      "duration": 0.3995,
      "velocity": 92,
      "chip": "ym2612"
    },
    {
      "channel": 4,
      "note": 81,
      "start": 43.0681,
      "duration": 0.3995,
      "velocity": 92,
      "chip": "ym2612"
    },
    {
      "channel": 5,
      "note": 7,
      "start": 43.0685,
      "duration": 0.1333,
      "velocity": 119,
      "chip": "ym2612"
    },
    {
      "channel": 0,
      "note": 54,
      "start": 43.2002,
      "duration": 0.2665,
      "velocity": 110,
      "chip": "ym2612"
    },
    {
      "channel": 5,
      "note": 57,
      "start": 43.202,
      "duration": 0.2671,
      "velocity": 125,
      "chip": "ym2612"
    },
    {
      "channel": 0,
      "note": 47,
      "start": 43.4669,
      "duration": 0.2665,
      "velocity": 110,
      "chip": "ym2612"
    },
    {
      "channel": 2,
      "note": 74,
      "start": 43.4672,
      "duration": 0.2665,
      "velocity": 92,
      "chip": "ym2612"
    },
    {
      "channel": 3,
      "note": 78,
      "start": 43.4676,
      "duration": 0.2665,
      "velocity": 92,
      "chip": "ym2612"
    },
    {
      "channel": 4,
      "note": 81,
      "start": 43.4679,
      "duration": 0.2665,
      "velocity": 92,
      "chip": "ym2612"
    },
    {
      "channel": 5,
      "note": 7,
      "start": 43.4693,
      "duration": 0.2653,
      "velocity": 125,
      "chip": "ym2612"
    },
    {
      "channel": 0,
      "note": 47,
      "start": 43.7336,
      "duration": 0.1332,
      "velocity": 110,
      "chip": "ym2612"
    },
    {
      "channel": 2,
      "note": 74,
      "start": 43.7339,
      "duration": 0.3998,
      "velocity": 92,
      "chip": "ym2612"
    },
    {
      "channel": 3,
      "note": 78,
      "start": 43.7342,
      "duration": 0.3998,
      "velocity": 92,
      "chip": "ym2612"
    },
    {
      "channel": 4,
      "note": 81,
      "start": 43.7345,
      "duration": 0.3998,
      "velocity": 92,
      "chip": "ym2612"
    },
    {
      "channel": 5,
      "note": 7,
      "start": 43.7349,
      "duration": 0.1323,
      "velocity": 125,
      "chip": "ym2612"
    },
    {
      "channel": 0,
      "note": 47,
      "start": 43.8669,
      "duration": 0.2665,
      "velocity": 110,
      "chip": "ym2612"
    },
    {
      "channel": 5,
      "note": 7,
      "start": 43.8674,
      "duration": 0.2672,
      "velocity": 125,
      "chip": "ym2612"
    },
    {
      "channel": 0,
      "note": 47,
      "start": 44.1336,
      "duration": 0.1332,
      "velocity": 110,
      "chip": "ym2612"
    },
    {
      "channel": 2,
      "note": 74,
      "start": 44.1339,
      "duration": 0.4001,
      "velocity": 92,
      "chip": "ym2612"
    },
    {
      "channel": 3,
      "note": 78,
      "start": 44.1342,
      "duration": 0.4001,
      "velocity": 92,
      "chip": "ym2612"
    },
    {
      "channel": 4,
      "note": 80,
      "start": 44.1345,
      "duration": 0.4001,
      "velocity": 92,
      "chip": "ym2612"
    },
    {
      "channel": 5,
      "note": 7,
      "start": 44.1349,
      "duration": 0.1337,
      "velocity": 119,
      "chip": "ym2612"
    },
    {
      "channel": 0,
      "note": 54,
      "start": 44.2669,
      "duration": 0.2665,
      "velocity": 110,
      "chip": "ym2612"
    },
    {
      "channel": 1,
      "note": 88,
      "start": 44.2672,
      "duration": 0.1329,
      "velocity": 80,
      "chip": "ym2612"
    },
    {
      "channel": 5,
      "note": 57,
      "start": 44.2688,
      "duration": 0.2672,
      "velocity": 125,
      "chip": "ym2612"
    },
    {
      "channel": 0,
      "note": 47,
      "start": 44.5336,
      "duration": 0.2665,
      "velocity": 110,
      "chip": "ym2612"
    },
    {
      "channel": 1,
      "note": 90,
      "start": 44.5339,
      "duration": 0.1329,
      "velocity": 80,
      "chip": "ym2612"
    },
    {
      "channel": 2,
      "note": 74,
      "start": 44.5342,
      "duration": 0.2664,
      "velocity": 92,
      "chip": "ym2612"
    },
    {
      "channel": 3,
      "note": 78,
      "start": 44.5345,
      "duration": 0.2665,
      "velocity": 92,
      "chip": "ym2612"
    },
    {
      "channel": 4,
      "note": 81,
      "start": 44.5348,
      "duration": 0.2665,
      "velocity": 92,
      "chip": "ym2612"
    },
    {
      "channel": 5,
      "note": 7,
      "start": 44.5363,
      "duration": 0.2666,
      "velocity": 125,
      "chip": "ym2612"
    },
    {
      "channel": 0,
      "note": 47,
      "start": 44.8002,
      "duration": 0.3998,
      "velocity": 110,
      "chip": "ym2612"
    },
    {
      "channel": 1,
      "note": 93,
      "start": 44.8006,
      "duration": 0.3998,
      "velocity": 80,
      "chip": "ym2612"
    },
    {
      "channel": 2,
      "note": 74,
      "start": 44.8009,
      "duration": 0.3998,
      "velocity": 92,
      "chip": "ym2612"
    },
    {
      "channel": 3,
      "note": 78,
      "start": 44.8012,
      "duration": 0.3998,
      "velocity": 92,
      "chip": "ym2612"
    },
    {
      "channel": 4,
      "note": 81,
      "start": 44.8015,
      "duration": 0.3998,
      "velocity": 92,
      "chip": "ym2612"
    },
    {
      "channel": 5,
      "note": 7,
      "start": 44.803,
      "duration": 0.3985,
      "velocity": 125,
      "chip": "ym2612"
    },
    {
      "channel": 0,
      "note": 47,
      "start": 45.2002,
      "duration": 0.1332,
      "velocity": 110,
      "chip": "ym2612"
    },
    {
      "channel": 1,
      "note": 90,
      "start": 45.2006,
      "duration": 0.1332,
      "velocity": 80,
      "chip": "ym2612"
    },
    {
      "channel": 2,
      "note": 74,
      "start": 45.2008,
      "duration": 0.3995,
      "velocity": 92,
      "chip": "ym2612"
    },
    {
      "channel": 3,
      "note": 78,
      "start": 45.2012,
      "duration": 0.3995,
      "velocity": 92,
      "chip": "ym2612"
    },
    {
      "channel": 4,
      "note": 81,
      "start": 45.2015,
      "duration": 0.3995,
      "velocity": 92,
      "chip": "ym2612"
    },
    {
      "channel": 5,
      "note": 7,
      "start": 45.2018,
      "duration": 0.1333,
      "velocity": 119,
      "chip": "ym2612"
    },
    {
      "channel": 0,
      "note": 54,
      "start": 45.3336,
      "duration": 0.2665,
      "velocity": 110,
      "chip": "ym2612"
    },
    {
      "channel": 5,
      "note": 57,
      "start": 45.3353,
      "duration": 0.2671,
      "velocity": 125,
      "chip": "ym2612"
    },
    {
      "channel": 0,
      "note": 47,
      "start": 45.6002,
      "duration": 0.2665,
      "velocity": 110,
      "chip": "ym2612"
    },
    {
      "channel": 2,
      "note": 74,
      "start": 45.6006,
      "duration": 0.2665,
      "velocity": 92,
      "chip": "ym2612"
    },
    {
      "channel": 3,
      "note": 78,
      "start": 45.6009,
      "duration": 0.2665,
      "velocity": 92,
      "chip": "ym2612"
    },
    {
      "channel": 4,
      "note": 81,
      "start": 45.6012,
      "duration": 0.2665,
      "velocity": 92,
      "chip": "ym2612"
    },
    {
      "channel": 5,
      "note": 7,
      "start": 45.6026,
      "duration": 0.2653,
      "velocity": 125,
      "chip": "ym2612"
    },
    {
      "channel": 0,
      "note": 47,
      "start": 45.8669,
      "duration": 0.1332,
      "velocity": 110,
      "chip": "ym2612"
    },
    {
      "channel": 2,
      "note": 74,
      "start": 45.8672,
      "duration": 0.3998,
      "velocity": 92,
      "chip": "ym2612"
    },
    {
      "channel": 3,
      "note": 78,
      "start": 45.8676,
      "duration": 0.3998,
      "velocity": 92,
      "chip": "ym2612"
    },
    {
      "channel": 4,
      "note": 81,
      "start": 45.8679,
      "duration": 0.3998,
      "velocity": 92,
      "chip": "ym2612"
    },
    {
      "channel": 5,
      "note": 7,
      "start": 45.8682,
      "duration": 0.1323,
      "velocity": 125,
      "chip": "ym2612"
    },
    {
      "channel": 0,
      "note": 47,
      "start": 46.0002,
      "duration": 0.2665,
      "velocity": 110,
      "chip": "ym2612"
    },
    {
      "channel": 5,
      "note": 7,
      "start": 46.0008,
      "duration": 0.2672,
      "velocity": 125,
      "chip": "ym2612"
    },
    {
      "channel": 0,
      "note": 47,
      "start": 46.2669,
      "duration": 0.1332,
      "velocity": 110,
      "chip": "ym2612"
    },
    {
      "channel": 2,
      "note": 74,
      "start": 46.2672,
      "duration": 0.4001,
      "velocity": 92,
      "chip": "ym2612"
    },
    {
      "channel": 3,
      "note": 78,
      "start": 46.2676,
      "duration": 0.4001,
      "velocity": 92,
      "chip": "ym2612"
    },
    {
      "channel": 4,
      "note": 80,
      "start": 46.2679,
      "duration": 0.4001,
      "velocity": 92,
      "chip": "ym2612"
    },
    {
      "channel": 5,
      "note": 7,
      "start": 46.2682,
      "duration": 0.1337,
      "velocity": 119,
      "chip": "ym2612"
    },
    {
      "channel": 0,
      "note": 54,
      "start": 46.4002,
      "duration": 0.2665,
      "velocity": 110,
      "chip": "ym2612"
    },
    {
      "channel": 1,
      "note": 92,
      "start": 46.4006,
      "duration": 0.1329,
      "velocity": 80,
      "chip": "ym2612"
    },
    {
      "channel": 5,
      "note": 57,
      "start": 46.4021,
      "duration": 0.2672,
      "velocity": 125,
      "chip": "ym2612"
    },
    {
      "channel": 1,
      "note": 93,
      "start": 46.5337,
      "duration": 0.1334,
      "velocity": 80,
      "chip": "ym2612"
    },
    {
      "channel": 0,
      "note": 53,
      "start": 46.6669,
      "duration": 0.2665,
      "velocity": 110,
      "chip": "ym2612"
    },
    {
      "channel": 1,
      "note": 92,
      "start": 46.6672,
      "duration": 0.1329,
      "velocity": 80,
      "chip": "ym2612"
    },
    {
      "channel": 2,
      "note": 74,
      "start": 46.6675,
      "duration": 0.2665,
      "velocity": 92,
      "chip": "ym2612"
    },
    {
      "channel": 3,
      "note": 78,
      "start": 46.6678,
      "duration": 0.2665,
      "velocity": 92,
      "chip": "ym2612"
    },
    {
      "channel": 4,
      "note": 81,
      "start": 46.6681,
      "duration": 0.2665,
      "velocity": 92,
      "chip": "ym2612"
    },
    {
      "channel": 5,
      "note": 7,
      "start": 46.6696,
      "duration": 0.2666,
      "velocity": 125,
      "chip": "ym2612"
    },
    {
      "channel": 1,
      "note": 88,
      "start": 46.8003,
      "duration": 0.1334,
      "velocity": 80,
      "chip": "ym2612"
    },
    {
      "channel": 0,
      "note": 45,
      "start": 46.9336,
      "duration": 0.3998,
      "velocity": 110,
      "chip": "ym2612"
    },
    {
      "channel": 1,
      "note": 90,
      "start": 46.9339,
      "duration": 0.3998,
      "velocity": 80,
      "chip": "ym2612"
    },
    {
      "channel": 2,
      "note": 73,
      "start": 46.9342,
      "duration": 0.3998,
      "velocity": 92,
      "chip": "ym2612"
    },
    {
      "channel": 3,
      "note": 76,
      "start": 46.9345,
      "duration": 0.3998,
      "velocity": 92,
      "chip": "ym2612"
    },
    {
      "channel": 4,
      "note": 80,
      "start": 46.9348,
      "duration": 0.3998,
      "velocity": 92,
      "chip": "ym2612"
    },
    {
      "channel": 5,
      "note": 7,
      "start": 46.9363,
      "duration": 0.3985,
      "velocity": 125,
      "chip": "ym2612"
    },
    {
      "channel": 0,
      "note": 45,
      "start": 47.3336,
      "duration": 0.1332,
      "velocity": 110,
      "chip": "ym2612"
    },
    {
      "channel": 1,
      "note": 88,
      "start": 47.3339,
      "duration": 0.1332,
      "velocity": 80,
      "chip": "ym2612"
    },
    {
      "channel": 2,
      "note": 73,
      "start": 47.3342,
      "duration": 0.3995,
      "velocity": 92,
      "chip": "ym2612"
    },
    {
      "channel": 3,
      "note": 76,
      "start": 47.3345,
      "duration": 0.3995,
      "velocity": 92,
      "chip": "ym2612"
    },
    {
      "channel": 4,
      "note": 80,
      "start": 47.3348,
      "duration": 0.3995,
      "velocity": 92,
      "chip": "ym2612"
    },
    {
      "channel": 5,
      "note": 7,
      "start": 47.3351,
      "duration": 0.1333,
      "velocity": 119,
      "chip": "ym2612"
    },
    {
      "channel": 0,
      "note": 52,
      "start": 47.4669,
      "duration": 0.2665,
      "velocity": 110,
      "chip": "ym2612"
    },
    {
      "channel": 5,
      "note": 57,
      "start": 47.4686,
      "duration": 0.2671,
      "velocity": 125,
      "chip": "ym2612"
    },
    {
      "channel": 0,
      "note": 45,
      "start": 47.7336,
      "duration": 0.2665,
      "velocity": 110,
      "chip": "ym2612"
    },
    {
      "channel": 2,
      "note": 73,
      "start": 47.7339,
      "duration": 0.2665,
      "velocity": 92,
      "chip": "ym2612"
    },
    {
      "channel": 3,
      "note": 76,
      "start": 47.7342,
      "duration": 0.2665,
      "velocity": 92,
      "chip": "ym2612"
    },
    {
      "channel": 4,
      "note": 80,
      "start": 47.7345,
      "duration": 0.2665,
      "velocity": 92,
      "chip": "ym2612"
    },
    {
      "channel": 5,
      "note": 7,
      "start": 47.7359,
      "duration": 0.2653,
      "velocity": 125,
      "chip": "ym2612"
    },
    {
      "channel": 0,
      "note": 45,
      "start": 48.0002,
      "duration": 0.1332,
      "velocity": 110,
      "chip": "ym2612"
    },
    {
      "channel": 2,
      "note": 73,
      "start": 48.0006,
      "duration": 0.3998,
      "velocity": 92,
      "chip": "ym2612"
    },
    {
      "channel": 3,
      "note": 76,
      "start": 48.0009,
      "duration": 0.3998,
      "velocity": 92,
      "chip": "ym2612"
    },
    {
      "channel": 4,
      "note": 80,
      "start": 48.0012,
      "duration": 0.3998,
      "velocity": 92,
      "chip": "ym2612"
    },
    {
      "channel": 5,
      "note": 7,
      "start": 48.0015,
      "duration": 0.1323,
      "velocity": 125,
      "chip": "ym2612"
    },
    {
      "channel": 0,
      "note": 45,
      "start": 48.1336,
      "duration": 0.2665,
      "velocity": 110,
      "chip": "ym2612"
    },
    {
      "channel": 5,
      "note": 7,
      "start": 48.1341,
      "duration": 0.2672,
      "velocity": 125,
      "chip": "ym2612"
    },
    {
      "channel": 0,
      "note": 45,
      "start": 48.4002,
      "duration": 0.1332,
      "velocity": 110,
      "chip": "ym2612"
    },
    {
      "channel": 2,
      "note": 73,
      "start": 48.4006,
      "duration": 0.3998,
      "velocity": 92,
      "chip": "ym2612"
    },
    {
      "channel": 3,
      "note": 76,
      "start": 48.4009,
      "duration": 0.3998,
      "velocity": 92,
      "chip": "ym2612"
    },
    {
      "channel": 4,
      "note": 78,
      "start": 48.4012,
      "duration": 0.3998,
      "velocity": 92,
      "chip": "ym2612"
    },
    {
      "channel": 5,
      "note": 7,
      "start": 48.4015,
      "duration": 0.1335,
      "velocity": 119,
      "chip": "ym2612"
    },
    {
      "channel": 0,
      "note": 52,
      "start": 48.5336,
      "duration": 0.2665,
      "velocity": 110,
      "chip": "ym2612"
    },
    {
      "channel": 5,
      "note": 57,
      "start": 48.5352,
      "duration": 0.2673,
      "velocity": 125,
      "chip": "ym2612"
    },
    {
      "channel": 0,
      "note": 45,
      "start": 48.8002,
      "duration": 0.2665,
      "velocity": 110,
      "chip": "ym2612"
    },
    {
      "channel": 2,
      "note": 73,
      "start": 48.8006,
      "duration": 0.2667,
      "velocity": 92,
      "chip": "ym2612"
    },
    {
      "channel": 3,
      "note": 76,
      "start": 48.8009,
      "duration": 0.2666,
      "velocity": 92,
      "chip": "ym2612"
    },
    {
      "channel": 4,
      "note": 80,
      "start": 48.8012,
      "duration": 0.2666,
      "velocity": 92,
      "chip": "ym2612"
    },
    {
      "channel": 5,
      "note": 7,
      "start": 48.8026,
      "duration": 0.2667,
      "velocity": 125,
      "chip": "ym2612"
    },
    {
      "channel": 0,
      "note": 45,
      "start": 49.0669,
      "duration": 0.3998,
      "velocity": 110,
      "chip": "ym2612"
    },
    {
      "channel": 2,
      "note": 73,
      "start": 49.0674,
      "duration": 0.3996,
      "velocity": 92,
      "chip": "ym2612"
    },
    {
      "channel": 3,
      "note": 76,
      "start": 49.0677,
      "duration": 0.3997,
      "velocity": 92,
      "chip": "ym2612"
    },
    {
      "channel": 4,
      "note": 80,
      "start": 49.068,
      "duration": 0.3997,
      "velocity": 92,
      "chip": "ym2612"
    },
    {
      "channel": 5,
      "note": 7,
      "start": 49.0695,
      "duration": 0.3984,
      "velocity": 125,
      "chip": "ym2612"
    },
    {
      "channel": 0,
      "note": 45,
      "start": 49.4669,
      "duration": 0.1332,
      "velocity": 110,
      "chip": "ym2612"
    },
    {
      "channel": 2,
      "note": 73,
      "start": 49.4672,
      "duration": 0.3998,
      "velocity": 92,
      "chip": "ym2612"
    },
    {
      "channel": 3,
      "note": 76,
      "start": 49.4676,
      "duration": 0.3998,
      "velocity": 92,
      "chip": "ym2612"
    },
    {
      "channel": 4,
      "note": 80,
      "start": 49.4679,
      "duration": 0.3998,
      "velocity": 92,
      "chip": "ym2612"
    },
    {
      "channel": 5,
      "note": 7,
      "start": 49.4682,
      "duration": 0.1335,
      "velocity": 119,
      "chip": "ym2612"
    },
    {
      "channel": 0,
      "note": 52,
      "start": 49.6002,
      "duration": 0.2665,
      "velocity": 110,
      "chip": "ym2612"
    },
    {
      "channel": 5,
      "note": 57,
      "start": 49.6018,
      "duration": 0.2673,
      "velocity": 125,
      "chip": "ym2612"
    },
    {
      "channel": 0,
      "note": 45,
      "start": 49.8669,
      "duration": 0.2665,
      "velocity": 110,
      "chip": "ym2612"
    },
    {
      "channel": 2,
      "note": 73,
      "start": 49.8672,
      "duration": 0.2665,
      "velocity": 92,
      "chip": "ym2612"
    },
    {
      "channel": 3,
      "note": 76,
      "start": 49.8676,
      "duration": 0.2665,
      "velocity": 92,
      "chip": "ym2612"
    },
    {
      "channel": 4,
      "note": 80,
      "start": 49.8679,
      "duration": 0.2665,
      "velocity": 92,
      "chip": "ym2612"
    },
    {
      "channel": 5,
      "note": 7,
      "start": 49.8693,
      "duration": 0.2653,
      "velocity": 125,
      "chip": "ym2612"
    },
    {
      "channel": 0,
      "note": 45,
      "start": 50.1336,
      "duration": 0.1332,
      "velocity": 110,
      "chip": "ym2612"
    },
    {
      "channel": 2,
      "note": 73,
      "start": 50.1339,
      "duration": 0.3998,
      "velocity": 92,
      "chip": "ym2612"
    },
    {
      "channel": 3,
      "note": 76,
      "start": 50.1342,
      "duration": 0.3998,
      "velocity": 92,
      "chip": "ym2612"
    },
    {
      "channel": 4,
      "note": 80,
      "start": 50.1345,
      "duration": 0.3998,
      "velocity": 92,
      "chip": "ym2612"
    },
    {
      "channel": 5,
      "note": 7,
      "start": 50.1349,
      "duration": 0.1323,
      "velocity": 125,
      "chip": "ym2612"
    },
    {
      "channel": 0,
      "note": 45,
      "start": 50.2669,
      "duration": 0.2665,
      "velocity": 110,
      "chip": "ym2612"
    },
    {
      "channel": 5,
      "note": 7,
      "start": 50.2674,
      "duration": 0.2672,
      "velocity": 125,
      "chip": "ym2612"
    },
    {
      "channel": 0,
      "note": 45,
      "start": 50.5336,
      "duration": 0.1332,
      "velocity": 110,
      "chip": "ym2612"
    },
    {
      "channel": 2,
      "note": 73,
      "start": 50.5339,
      "duration": 0.4001,
      "velocity": 92,
      "chip": "ym2612"
    },
    {
      "channel": 3,
      "note": 76,
      "start": 50.5342,
      "duration": 0.4001,
      "velocity": 92,
      "chip": "ym2612"
    },
    {
      "channel": 4,
      "note": 78,
      "start": 50.5345,
      "duration": 0.4001,
      "velocity": 92,
      "chip": "ym2612"
    },
    {
      "channel": 5,
      "note": 7,
      "start": 50.5349,
      "duration": 0.1337,
      "velocity": 119,
      "chip": "ym2612"
    },
    {
      "channel": 0,
      "note": 52,
      "start": 50.6669,
      "duration": 0.2665,
      "velocity": 110,
      "chip": "ym2612"
    },
    {
      "channel": 1,
      "note": 90,
      "start": 50.6672,
      "duration": 0.1329,
      "velocity": 80,
      "chip": "ym2612"
    },
    {
      "channel": 5,
      "note": 57,
      "start": 50.6688,
      "duration": 0.2661,
      "velocity": 119,
      "chip": "ym2612"
    },
    {
      "channel": 0,
      "note": 46,
      "start": 50.9336,
      "duration": 0.2666,
      "velocity": 110,
      "chip": "ym2612"
    },
    {
      "channel": 1,
      "note": 93,
      "start": 50.9339,
      "duration": 0.1329,
      "velocity": 80,
      "chip": "ym2612"
    },
    {
      "channel": 2,
      "note": 73,
      "start": 50.9342,
      "duration": 0.2666,
      "velocity": 92,
      "chip": "ym2612"
    },
    {
      "channel": 3,
      "note": 76,
      "start": 50.9345,
      "duration": 0.2667,
      "velocity": 92,
      "chip": "ym2612"
    },
    {
      "channel": 4,
      "note": 80,
      "start": 50.9348,
      "duration": 0.2667,
      "velocity": 92,
      "chip": "ym2612"
    },
    {
      "channel": 5,
      "note": 57,
      "start": 50.9351,
      "duration": 0.1319,
      "velocity": 119,
      "chip": "ym2612"
    },
    {
      "channel": 5,
      "note": 57,
      "start": 51.0673,
      "duration": 0.1357,
      "velocity": 125,
      "chip": "ym2612"
    },
    {
      "channel": 0,
      "note": 50,
      "start": 51.2003,
      "duration": 0.3998,
      "velocity": 110,
      "chip": "ym2612"
    },
    {
      "channel": 1,
      "note": 97,
      "start": 51.2006,
      "duration": 0.2662,
      "velocity": 80,
      "chip": "ym2612"
    },
    {
      "channel": 2,
      "note": 78,
      "start": 51.201,
      "duration": 0.3996,
      "velocity": 92,
      "chip": "ym2612"
    },
    {
      "channel": 3,
      "note": 81,
      "start": 51.2013,
      "duration": 0.3995,
      "velocity": 92,
      "chip": "ym2612"
    },
    {
      "channel": 4,
      "note": 85,
      "start": 51.2017,
      "duration": 0.3995,
      "velocity": 92,
      "chip": "ym2612"
    },
    {
      "channel": 5,
      "note": 7,
      "start": 51.2032,
      "duration": 0.3982,
      "velocity": 125,
      "chip": "ym2612"
    },
    {
      "channel": 1,
      "note": 93,
      "start": 51.467,
      "duration": 0.1334,
      "velocity": 80,
      "chip": "ym2612"
    },
    {
      "channel": 0,
      "note": 50,
      "start": 51.6002,
      "duration": 0.1332,
      "velocity": 110,
      "chip": "ym2612"
    },
    {
      "channel": 2,
      "note": 78,
      "start": 51.6008,
      "duration": 0.3998,
      "velocity": 92,
      "chip": "ym2612"
    },
    {
      "channel": 3,
      "note": 81,
      "start": 51.601,
      "duration": 0.3998,
      "velocity": 92,
      "chip": "ym2612"
    },
    {
      "channel": 4,
      "note": 85,
      "start": 51.6013,
      "duration": 0.3998,
      "velocity": 92,
      "chip": "ym2612"
    },
    {
      "channel": 5,
      "note": 7,
      "start": 51.6017,
      "duration": 0.1336,
      "velocity": 119,
      "chip": "ym2612"
    },
    {
      "channel": 0,
      "note": 57,
      "start": 51.7336,
      "duration": 0.2665,
      "velocity": 110,
      "chip": "ym2612"
    },
    {
      "channel": 1,
      "note": 93,
      "start": 51.7339,
      "duration": 0.1329,
      "velocity": 80,
      "chip": "ym2612"
    },
    {
      "channel": 5,
      "note": 57,
      "start": 51.7354,
      "duration": 0.2671,
      "velocity": 125,
      "chip": "ym2612"
    },
    {
      "channel": 1,
      "note": 90,
      "start": 51.867,
      "duration": 0.1334,
      "velocity": 80,
      "chip": "ym2612"
    },
    {
      "channel": 0,
      "note": 50,
      "start": 52.0002,
      "duration": 0.2665,
      "velocity": 110,
      "chip": "ym2612"
    },
    {
      "channel": 2,
      "note": 78,
      "start": 52.0008,
      "duration": 0.2663,
      "velocity": 92,
      "chip": "ym2612"
    },
    {
      "channel": 3,
      "note": 81,
      "start": 52.001,
      "duration": 0.2663,
      "velocity": 92,
      "chip": "ym2612"
    },
    {
      "channel": 4,
      "note": 85,
      "start": 52.0013,
      "duration": 0.2663,
      "velocity": 92,
      "chip": "ym2612"
    },
    {
      "channel": 5,
      "note": 7,
      "start": 52.0028,
      "duration": 0.2651,
      "velocity": 125,
      "chip": "ym2612"
    },
    {
      "channel": 1,
      "note": 93,
      "start": 52.1337,
      "duration": 0.5334,
      "velocity": 80,
      "chip": "ym2612"
    },
    {
      "channel": 0,
      "note": 50,
      "start": 52.2669,
      "duration": 0.1332,
      "velocity": 110,
      "chip": "ym2612"
    },
    {
      "channel": 2,
      "note": 78,
      "start": 52.2672,
      "duration": 0.4,
      "velocity": 92,
      "chip": "ym2612"
    },
    {
      "channel": 3,
      "note": 81,
      "start": 52.2676,
      "duration": 0.4,
      "velocity": 92,
      "chip": "ym2612"
    },
    {
      "channel": 4,
      "note": 85,
      "start": 52.2679,
      "duration": 0.4,
      "velocity": 92,
      "chip": "ym2612"
    },
    {
      "channel": 5,
      "note": 7,
      "start": 52.2682,
      "duration": 0.1323,
      "velocity": 125,
      "chip": "ym2612"
    },
    {
      "channel": 0,
      "note": 50,
      "start": 52.4002,
      "duration": 0.2665,
      "velocity": 110,
      "chip": "ym2612"
    },
    {
      "channel": 5,
      "note": 7,
      "start": 52.4008,
      "duration": 0.2673,
      "velocity": 125,
      "chip": "ym2612"
    },
    {
      "channel": 0,
      "note": 50,
      "start": 52.6669,
      "duration": 0.1332,
      "velocity": 110,
      "chip": "ym2612"
    },
    {
      "channel": 2,
      "note": 78,
      "start": 52.6674,
      "duration": 0.3999,
      "velocity": 92,
      "chip": "ym2612"
    },
    {
      "channel": 3,
      "note": 81,
      "start": 52.6677,
      "duration": 0.3999,
      "velocity": 92,
      "chip": "ym2612"
    },
    {
      "channel": 4,
      "note": 83,
      "start": 52.668,
      "duration": 0.3999,
      "velocity": 92,
      "chip": "ym2612"
    },
    {
      "channel": 5,
      "note": 7,
      "start": 52.6683,
      "duration": 0.1336,
      "velocity": 119,
      "chip": "ym2612"
    },
    {
      "channel": 0,
      "note": 57,
      "start": 52.8002,
      "duration": 0.2665,
      "velocity": 110,
      "chip": "ym2612"
    },
    {
      "channel": 1,
      "note": 90,
      "start": 52.8006,
      "duration": 0.2665,
      "velocity": 80,
      "chip": "ym2612"
    },
    {
      "channel": 5,
      "note": 57,
      "start": 52.8021,
      "duration": 0.2672,
      "velocity": 125,
      "chip": "ym2612"
    },
    {
      "channel": 0,
      "note": 50,
      "start": 53.0669,
      "duration": 0.2665,
      "velocity": 110,
      "chip": "ym2612"
    },
    {
      "channel": 1,
      "note": 93,
      "start": 53.0672,
      "duration": 0.1329,
      "velocity": 80,
      "chip": "ym2612"
    },
    {
      "channel": 2,
      "note": 78,
      "start": 53.0675,
      "duration": 0.2665,
      "velocity": 92,
      "chip": "ym2612"
    },
    {
      "channel": 3,
      "note": 81,
      "start": 53.0678,
      "duration": 0.2665,
      "velocity": 92,
      "chip": "ym2612"
    },
    {
      "channel": 4,
      "note": 85,
      "start": 53.0681,
      "duration": 0.2665,
      "velocity": 92,
      "chip": "ym2612"
    },
    {
      "channel": 5,
      "note": 7,
      "start": 53.0696,
      "duration": 0.2666,
      "velocity": 125,
      "chip": "ym2612"
    },
    {
      "channel": 0,
      "note": 49,
      "start": 53.3336,
      "duration": 0.3998,
      "velocity": 110,
      "chip": "ym2612"
    },
    {
      "channel": 1,
      "note": 97,
      "start": 53.3339,
      "duration": 0.3998,
      "velocity": 80,
      "chip": "ym2612"
    },
    {
      "channel": 2,
      "note": 76,
      "start": 53.3342,
      "duration": 0.3998,
      "velocity": 92,
      "chip": "ym2612"
    },
    {
      "channel": 3,
      "note": 80,
      "start": 53.3345,
      "duration": 0.3998,
      "velocity": 92,
      "chip": "ym2612"
    },
    {
      "channel": 4,
      "note": 83,
      "start": 53.3348,
      "duration": 0.3998,
      "velocity": 92,
      "chip": "ym2612"
    },
    {
      "channel": 5,
      "note": 7,
      "start": 53.3363,
      "duration": 0.3985,
      "velocity": 125,
      "chip": "ym2612"
    },
    {
      "channel": 0,
      "note": 49,
      "start": 53.7336,
      "duration": 0.1332,
      "velocity": 110,
      "chip": "ym2612"
    },
    {
      "channel": 1,
      "note": 98,
      "start": 53.7339,
      "duration": 0.3998,
      "velocity": 80,
      "chip": "ym2612"
    },
    {
      "channel": 2,
      "note": 76,
      "start": 53.7342,
      "duration": 0.3998,
      "velocity": 92,
      "chip": "ym2612"
    },
    {
      "channel": 3,
      "note": 80,
      "start": 53.7345,
      "duration": 0.3998,
      "velocity": 92,
      "chip": "ym2612"
    },
    {
      "channel": 4,
      "note": 83,
      "start": 53.7348,
      "duration": 0.3998,
      "velocity": 92,
      "chip": "ym2612"
    },
    {
      "channel": 5,
      "note": 7,
      "start": 53.7351,
      "duration": 0.1332,
      "velocity": 119,
      "chip": "ym2612"
    },
    {
      "channel": 0,
      "note": 56,
      "start": 53.8669,
      "duration": 0.2665,
      "velocity": 110,
      "chip": "ym2612"
    },
    {
      "channel": 5,
      "note": 57,
      "start": 53.8685,
      "duration": 0.2675,
      "velocity": 125,
      "chip": "ym2612"
    },
    {
      "channel": 0,
      "note": 49,
      "start": 54.1336,
      "duration": 0.2665,
      "velocity": 110,
      "chip": "ym2612"
    },
    {
      "channel": 1,
      "note": 100,
      "start": 54.1339,
      "duration": 0.2665,
      "velocity": 80,
      "chip": "ym2612"
    },
    {
      "channel": 2,
      "note": 76,
      "start": 54.1342,
      "duration": 0.2665,
      "velocity": 92,
      "chip": "ym2612"
    },
    {
      "channel": 3,
      "note": 80,
      "start": 54.1345,
      "duration": 0.2665,
      "velocity": 92,
      "chip": "ym2612"
    },
    {
      "channel": 4,
      "note": 83,
      "start": 54.1348,
      "duration": 0.2665,
      "velocity": 92,
      "chip": "ym2612"
    },
    {
      "channel": 5,
      "note": 7,
      "start": 54.1363,
      "duration": 0.2653,
      "velocity": 125,
      "chip": "ym2612"
    },
    {
      "channel": 0,
      "note": 49,
      "start": 54.4002,
      "duration": 0.1332,
      "velocity": 110,
      "chip": "ym2612"
    },
    {
      "channel": 1,
      "note": 98,
      "start": 54.4006,
      "duration": 0.3998,
      "velocity": 80,
      "chip": "ym2612"
    },
    {
      "channel": 2,
      "note": 76,
      "start": 54.4008,
      "duration": 0.3998,
      "velocity": 92,
      "chip": "ym2612"
    },
    {
      "channel": 3,
      "note": 80,
      "start": 54.4012,
      "duration": 0.3998,
      "velocity": 92,
      "chip": "ym2612"
    },
    {
      "channel": 4,
      "note": 83,
      "start": 54.4015,
      "duration": 0.3998,
      "velocity": 92,
      "chip": "ym2612"
    },
    {
      "channel": 5,
      "note": 7,
      "start": 54.4018,
      "duration": 0.1321,
      "velocity": 125,
      "chip": "ym2612"
    },
    {
      "channel": 0,
      "note": 49,
      "start": 54.5336,
      "duration": 0.2665,
      "velocity": 110,
      "chip": "ym2612"
    },
    {
      "channel": 5,
      "note": 7,
      "start": 54.5341,
      "duration": 0.2674,
      "velocity": 125,
      "chip": "ym2612"
    },
    {
      "channel": 0,
      "note": 49,
      "start": 54.8002,
      "duration": 0.1332,
      "velocity": 110,
      "chip": "ym2612"
    },
    {
      "channel": 1,
      "note": 97,
      "start": 54.8006,
      "duration": 0.3998,
      "velocity": 80,
      "chip": "ym2612"
    },
    {
      "channel": 2,
      "note": 76,
      "start": 54.8008,
      "duration": 0.3998,
      "velocity": 92,
      "chip": "ym2612"
    },
    {
      "channel": 3,
      "note": 80,
      "start": 54.8012,
      "duration": 0.3998,
      "velocity": 92,
      "chip": "ym2612"
    },
    {
      "channel": 4,
      "note": 81,
      "start": 54.8015,
      "duration": 0.3998,
      "velocity": 92,
      "chip": "ym2612"
    },
    {
      "channel": 5,
      "note": 7,
      "start": 54.8018,
      "duration": 0.1332,
      "velocity": 119,
      "chip": "ym2612"
    },
    {
      "channel": 0,
      "note": 56,
      "start": 54.9336,
      "duration": 0.2665,
      "velocity": 110,
      "chip": "ym2612"
    },
    {
      "channel": 5,
      "note": 57,
      "start": 54.9352,
      "duration": 0.2675,
      "velocity": 125,
      "chip": "ym2612"
    },
    {
      "channel": 0,
      "note": 49,
      "start": 55.2002,
      "duration": 0.2665,
      "velocity": 110,
      "chip": "ym2612"
    },
    {
      "channel": 1,
      "note": 95,
      "start": 55.2006,
      "duration": 0.2665,
      "velocity": 80,
      "chip": "ym2612"
    },
    {
      "channel": 2,
      "note": 76,
      "start": 55.2008,
      "duration": 0.2665,
      "velocity": 92,
      "chip": "ym2612"
    },
    {
      "channel": 3,
      "note": 80,
      "start": 55.2012,
      "duration": 0.2665,
      "velocity": 92,
      "chip": "ym2612"
    },
    {
      "channel": 4,
      "note": 83,
      "start": 55.2015,
      "duration": 0.2665,
      "velocity": 92,
      "chip": "ym2612"
    },
    {
      "channel": 5,
      "note": 7,
      "start": 55.2029,
      "duration": 0.2666,
      "velocity": 125,
      "chip": "ym2612"
    },
    {
      "channel": 0,
      "note": 47,
      "start": 55.4669,
      "duration": 0.3998,
      "velocity": 110,
      "chip": "ym2612"
    },
    {
      "channel": 1,
      "note": 97,
      "start": 55.4672,
      "duration": 0.2662,
      "velocity": 80,
      "chip": "ym2612"
    },
    {
      "channel": 2,
      "note": 74,
      "start": 55.4675,
      "duration": 0.3997,
      "velocity": 92,
      "chip": "ym2612"
    },
    {
      "channel": 3,
      "note": 78,
      "start": 55.4678,
      "duration": 0.3997,
      "velocity": 92,
      "chip": "ym2612"
    },
    {
      "channel": 4,
      "note": 81,
      "start": 55.4681,
      "duration": 0.3997,
      "velocity": 92,
      "chip": "ym2612"
    },
    {
      "channel": 5,
      "note": 7,
      "start": 55.4697,
      "duration": 0.3984,
      "velocity": 125,
      "chip": "ym2612"
    },
    {
      "channel": 1,
      "note": 93,
      "start": 55.7337,
      "duration": 0.1334,
      "velocity": 80,
      "chip": "ym2612"
    },
    {
      "channel": 0,
      "note": 47,
      "start": 55.8669,
      "duration": 0.1332,
      "velocity": 110,
      "chip": "ym2612"
    },
    {
      "channel": 2,
      "note": 74,
      "start": 55.8674,
      "duration": 0.3998,
      "velocity": 92,
      "chip": "ym2612"
    },
    {
      "channel": 3,
      "note": 78,
      "start": 55.8677,
      "duration": 0.3998,
      "velocity": 92,
      "chip": "ym2612"
    },
    {
      "channel": 4,
      "note": 81,
      "start": 55.868,
      "duration": 0.3998,
      "velocity": 92,
      "chip": "ym2612"
    },
    {
      "channel": 5,
      "note": 7,
      "start": 55.8683,
      "duration": 0.1336,
      "velocity": 119,
      "chip": "ym2612"
    },
    {
      "channel": 0,
      "note": 54,
      "start": 56.0002,
      "duration": 0.2665,
      "velocity": 110,
      "chip": "ym2612"
    },
    {
      "channel": 1,
      "note": 93,
      "start": 56.0006,
      "duration": 0.1329,
      "velocity": 80,
      "chip": "ym2612"
    },
    {
      "channel": 5,
      "note": 57,
      "start": 56.0021,
      "duration": 0.2671,
      "velocity": 125,
      "chip": "ym2612"
    },
    {
      "channel": 1,
      "note": 90,
      "start": 56.1337,
      "duration": 0.1334,
      "velocity": 80,
      "chip": "ym2612"
    },
    {
      "channel": 0,
      "note": 47,
      "start": 56.2669,
      "duration": 0.2665,
      "velocity": 110,
      "chip": "ym2612"
    },
    {
      "channel": 2,
      "note": 74,
      "start": 56.2674,
      "duration": 0.2663,
      "velocity": 92,
      "chip": "ym2612"
    },
    {
      "channel": 3,
      "note": 78,
      "start": 56.2677,
      "duration": 0.2663,
      "velocity": 92,
      "chip": "ym2612"
    },
    {
      "channel": 4,
      "note": 81,
      "start": 56.268,
      "duration": 0.2663,
      "velocity": 92,
      "chip": "ym2612"
    },
    {
      "channel": 5,
      "note": 7,
      "start": 56.2695,
      "duration": 0.2651,
      "velocity": 125,
      "chip": "ym2612"
    },
    {
      "channel": 1,
      "note": 93,
      "start": 56.4003,
      "duration": 0.5334,
      "velocity": 80,
      "chip": "ym2612"
    },
    {
      "channel": 0,
      "note": 47,
      "start": 56.5336,
      "duration": 0.1332,
      "velocity": 110,
      "chip": "ym2612"
    },
    {
      "channel": 2,
      "note": 74,
      "start": 56.5339,
      "duration": 0.4,
      "velocity": 92,
      "chip": "ym2612"
    },
    {
      "channel": 3,
      "note": 78,
      "start": 56.5342,
      "duration": 0.4,
      "velocity": 92,
      "chip": "ym2612"
    },
    {
      "channel": 4,
      "note": 81,
      "start": 56.5345,
      "duration": 0.4,
      "velocity": 92,
      "chip": "ym2612"
    },
    {
      "channel": 5,
      "note": 7,
      "start": 56.5349,
      "duration": 0.1323,
      "velocity": 125,
      "chip": "ym2612"
    },
    {
      "channel": 0,
      "note": 47,
      "start": 56.6669,
      "duration": 0.2665,
      "velocity": 110,
      "chip": "ym2612"
    },
    {
      "channel": 5,
      "note": 7,
      "start": 56.6674,
      "duration": 0.2673,
      "velocity": 125,
      "chip": "ym2612"
    },
    {
      "channel": 0,
      "note": 47,
      "start": 56.9336,
      "duration": 0.1332,
      "velocity": 110,
      "chip": "ym2612"
    },
    {
      "channel": 2,
      "note": 74,
      "start": 56.9341,
      "duration": 0.3999,
      "velocity": 92,
      "chip": "ym2612"
    },
    {
      "channel": 3,
      "note": 78,
      "start": 56.9344,
      "duration": 0.3999,
      "velocity": 92,
      "chip": "ym2612"
    },
    {
      "channel": 4,
      "note": 80,
      "start": 56.9347,
      "duration": 0.3999,
      "velocity": 92,
      "chip": "ym2612"
    },
    {
      "channel": 5,
      "note": 7,
      "start": 56.935,
      "duration": 0.1336,
      "velocity": 119,
      "chip": "ym2612"
    },
    {
      "channel": 0,
      "note": 54,
      "start": 57.0669,
      "duration": 0.2665,
      "velocity": 110,
      "chip": "ym2612"
    },
    {
      "channel": 1,
      "note": 90,
      "start": 57.0672,
      "duration": 0.2665,
      "velocity": 80,
      "chip": "ym2612"
    },
    {
      "channel": 5,
      "note": 57,
      "start": 57.0688,
      "duration": 0.2672,
      "velocity": 125,
      "chip": "ym2612"
    },
    {
      "channel": 0,
      "note": 47,
      "start": 57.3336,
      "duration": 0.2665,
      "velocity": 110,
      "chip": "ym2612"
    },
    {
      "channel": 1,
      "note": 93,
      "start": 57.3339,
      "duration": 0.1329,
      "velocity": 80,
      "chip": "ym2612"
    },
    {
      "channel": 2,
      "note": 74,
      "start": 57.3342,
      "duration": 0.2665,
      "velocity": 92,
      "chip": "ym2612"
    },
    {
      "channel": 3,
      "note": 78,
      "start": 57.3345,
      "duration": 0.2665,
      "velocity": 92,
      "chip": "ym2612"
    },
    {
      "channel": 4,
      "note": 81,
      "start": 57.3348,
      "duration": 0.2665,
      "velocity": 92,
      "chip": "ym2612"
    },
    {
      "channel": 5,
      "note": 7,
      "start": 57.3363,
      "duration": 0.2666,
      "velocity": 125,
      "chip": "ym2612"
    },
    {
      "channel": 0,
      "note": 45,
      "start": 57.6002,
      "duration": 0.3998,
      "velocity": 110,
      "chip": "ym2612"
    },
    {
      "channel": 1,
      "note": 90,
      "start": 57.6006,
      "duration": 0.3998,
      "velocity": 80,
      "chip": "ym2612"
    },
    {
      "channel": 2,
      "note": 73,
      "start": 57.6009,
      "duration": 0.3998,
      "velocity": 92,
      "chip": "ym2612"
    },
    {
      "channel": 3,
      "note": 76,
      "start": 57.6012,
      "duration": 0.3998,
      "velocity": 92,
      "chip": "ym2612"
    },
    {
      "channel": 4,
      "note": 80,
      "start": 57.6015,
      "duration": 0.3998,
      "velocity": 92,
      "chip": "ym2612"
    },
    {
      "channel": 5,
      "note": 7,
      "start": 57.603,
      "duration": 0.3985,
      "velocity": 125,
      "chip": "ym2612"
    },
    {
      "channel": 0,
      "note": 45,
      "start": 58.0002,
      "duration": 0.1332,
      "velocity": 110,
      "chip": "ym2612"
    },
    {
      "channel": 1,
      "note": 88,
      "start": 58.0006,
      "duration": 1.0665,
      "velocity": 80,
      "chip": "ym2612"
    },
    {
      "channel": 2,
      "note": 73,
      "start": 58.0009,
      "duration": 0.3995,
      "velocity": 92,
      "chip": "ym2612"
    },
    {
      "channel": 3,
      "note": 76,
      "start": 58.0012,
      "duration": 0.3995,
      "velocity": 92,
      "chip": "ym2612"
    },
    {
      "channel": 4,
      "note": 80,
      "start": 58.0015,
      "duration": 0.3995,
      "velocity": 92,
      "chip": "ym2612"
    },
    {
      "channel": 5,
      "note": 7,
      "start": 58.0018,
      "duration": 0.1332,
      "velocity": 119,
      "chip": "ym2612"
    },
    {
      "channel": 0,
      "note": 52,
      "start": 58.1336,
      "duration": 0.2665,
      "velocity": 110,
      "chip": "ym2612"
    },
    {
      "channel": 5,
      "note": 57,
      "start": 58.1352,
      "duration": 0.2673,
      "velocity": 125,
      "chip": "ym2612"
    },
    {
      "channel": 0,
      "note": 45,
      "start": 58.4002,
      "duration": 0.2665,
      "velocity": 110,
      "chip": "ym2612"
    },
    {
      "channel": 2,
      "note": 73,
      "start": 58.4006,
      "duration": 0.2665,
      "velocity": 92,
      "chip": "ym2612"
    },
    {
      "channel": 3,
      "note": 76,
      "start": 58.4009,
      "duration": 0.2665,
      "velocity": 92,
      "chip": "ym2612"
    },
    {
      "channel": 4,
      "note": 80,
      "start": 58.4012,
      "duration": 0.2665,
      "velocity": 92,
      "chip": "ym2612"
    },
    {
      "channel": 5,
      "note": 7,
      "start": 58.4026,
      "duration": 0.2665,
      "velocity": 119,
      "chip": "ym2612"
    },
    {
      "channel": 0,
      "note": 45,
      "start": 58.6669,
      "duration": 0.3998,
      "velocity": 110,
      "chip": "ym2612"
    },
    {
      "channel": 2,
      "note": 73,
      "start": 58.6672,
      "duration": 0.4,
      "velocity": 92,
      "chip": "ym2612"
    },
    {
      "channel": 3,
      "note": 76,
      "start": 58.6676,
      "duration": 0.4,
      "velocity": 92,
      "chip": "ym2612"
    },
    {
      "channel": 4,
      "note": 80,
      "start": 58.6679,
      "duration": 0.4,
      "velocity": 92,
      "chip": "ym2612"
    },
    {
      "channel": 5,
      "note": 57,
      "start": 58.6693,
      "duration": 0.1321,
      "velocity": 125,
      "chip": "ym2612"
    },
    {
      "channel": 5,
      "note": 7,
      "start": 58.8016,
      "duration": 0.132,
      "velocity": 125,
      "chip": "ym2612"
    },
    {
      "channel": 5,
      "note": 7,
      "start": 58.9338,
      "duration": 0.1354,
      "velocity": 119,
      "chip": "ym2612"
    },
    {
      "channel": 0,
      "note": 47,
      "start": 59.0669,
      "duration": 0.3998,
      "velocity": 110,
      "chip": "ym2612"
    },
    {
      "channel": 2,
      "note": 74,
      "start": 59.0674,
      "duration": 0.3999,
      "velocity": 92,
      "chip": "ym2612"
    },
    {
      "channel": 3,
      "note": 78,
      "start": 59.0677,
      "duration": 0.3999,
      "velocity": 92,
      "chip": "ym2612"
    },
    {
      "channel": 4,
      "note": 81,
      "start": 59.068,
      "duration": 0.3999,
      "velocity": 92,
      "chip": "ym2612"
    },
    {
      "channel": 5,
      "note": 57,
      "start": 59.0695,
      "duration": 0.1322,
      "velocity": 125,
      "chip": "ym2612"
    },
    {
      "channel": 1,
      "note": 100,
      "start": 59.2003,
      "duration": 0.2667,
      "velocity": 80,
      "chip": "ym2612"
    },
    {
      "channel": 5,
      "note": 7,
      "start": 59.2018,
      "duration": 0.1317,
      "velocity": 125,
      "chip": "ym2612"
    },
    {
      "channel": 5,
      "note": 7,
      "start": 59.3338,
      "duration": 0.1356,
      "velocity": 119,
      "chip": "ym2612"
    },
    {
      "channel": 0,
      "note": 49,
      "start": 59.4669,
      "duration": 0.2665,
      "velocity": 110,
      "chip": "ym2612"
    },
    {
      "channel": 1,
      "note": 98,
      "start": 59.4672,
      "duration": 0.1329,
      "velocity": 80,
      "chip": "ym2612"
    },
    {
      "channel": 2,
      "note": 76,
      "start": 59.4675,
      "duration": 0.2665,
      "velocity": 92,
      "chip": "ym2612"
    },
    {
      "channel": 3,
      "note": 80,
      "start": 59.4678,
      "duration": 0.2665,
      "velocity": 92,
      "chip": "ym2612"
    },
    {
      "channel": 4,
      "note": 83,
      "start": 59.4681,
      "duration": 0.2665,
      "velocity": 92,
      "chip": "ym2612"
    },
    {
      "channel": 5,
      "note": 57,
      "start": 59.4696,
      "duration": 0.1319,
      "velocity": 125,
      "chip": "ym2612"
    },
    {
      "channel": 5,
      "note": 7,
      "start": 59.6017,
      "duration": 0.1344,
      "velocity": 125,
      "chip": "ym2612"
    },
    {
      "channel": 0,
      "note": 50,
      "start": 59.7336,
      "duration": 0.3998,
      "velocity": 110,
      "chip": "ym2612"
    },
    {
      "channel": 1,
      "note": 97,
      "start": 59.7339,
      "duration": 0.2662,
      "velocity": 80,
      "chip": "ym2612"
    },
    {
      "channel": 2,
      "note": 78,
      "start": 59.7342,
      "duration": 0.3997,
      "velocity": 92,
      "chip": "ym2612"
    },
    {
      "channel": 3,
      "note": 81,
      "start": 59.7345,
      "duration": 0.3997,
      "velocity": 92,
      "chip": "ym2612"
    },
    {
      "channel": 4,
      "note": 85,
      "start": 59.7348,
      "duration": 0.3997,
      "velocity": 92,
      "chip": "ym2612"
    },
    {
      "channel": 5,
      "note": 7,
      "start": 59.7363,
      "duration": 0.3984,
      "velocity": 125,
      "chip": "ym2612"
    },
    {
      "channel": 1,
      "note": 93,
      "start": 60.0003,
      "duration": 0.1334,
      "velocity": 80,
      "chip": "ym2612"
    },
    {
      "channel": 0,
      "note": 50,
      "start": 60.1336,
      "duration": 0.1332,
      "velocity": 110,
      "chip": "ym2612"
    },
    {
      "channel": 2,
      "note": 78,
      "start": 60.1341,
      "duration": 0.3998,
      "velocity": 92,
      "chip": "ym2612"
    },
    {
      "channel": 3,
      "note": 81,
      "start": 60.1344,
      "duration": 0.3998,
      "velocity": 92,
      "chip": "ym2612"
    },
    {
      "channel": 4,
      "note": 85,
      "start": 60.1347,
      "duration": 0.3998,
      "velocity": 92,
      "chip": "ym2612"
    },
    {
      "channel": 5,
      "note": 7,
      "start": 60.135,
      "duration": 0.1336,
      "velocity": 119,
      "chip": "ym2612"
    },
    {
      "channel": 0,
      "note": 57,
      "start": 60.2669,
      "duration": 0.2665,
      "velocity": 110,
      "chip": "ym2612"
    },
    {
      "channel": 1,
      "note": 93,
      "start": 60.2672,
      "duration": 0.1329,
      "velocity": 80,
      "chip": "ym2612"
    },
    {
      "channel": 5,
      "note": 57,
      "start": 60.2688,
      "duration": 0.2671,
      "velocity": 125,
      "chip": "ym2612"
    },
    {
      "channel": 1,
      "note": 90,
      "start": 60.4003,
      "duration": 0.1334,
      "velocity": 80,
      "chip": "ym2612"
    },
    {
      "channel": 0,
      "note": 50,
      "start": 60.5336,
      "duration": 0.2665,
      "velocity": 110,
      "chip": "ym2612"
    },
    {
      "channel": 2,
      "note": 78,
      "start": 60.5341,
      "duration": 0.2663,
      "velocity": 92,
      "chip": "ym2612"
    },
    {
      "channel": 3,
      "note": 81,
      "start": 60.5344,
      "duration": 0.2663,
      "velocity": 92,
      "chip": "ym2612"
    },
    {
      "channel": 4,
      "note": 85,
      "start": 60.5347,
      "duration": 0.2663,
      "velocity": 92,
      "chip": "ym2612"
    },
    {
      "channel": 5,
      "note": 7,
      "start": 60.5361,
      "duration": 0.2651,
      "velocity": 125,
      "chip": "ym2612"
    },
    {
      "channel": 1,
      "note": 93,
      "start": 60.667,
      "duration": 0.5334,
      "velocity": 80,
      "chip": "ym2612"
    },
    {
      "channel": 0,
      "note": 50,
      "start": 60.8002,
      "duration": 0.1332,
      "velocity": 110,
      "chip": "ym2612"
    },
    {
      "channel": 2,
      "note": 78,
      "start": 60.8006,
      "duration": 0.4,
      "velocity": 92,
      "chip": "ym2612"
    },
    {
      "channel": 3,
      "note": 81,
      "start": 60.8009,
      "duration": 0.4,
      "velocity": 92,
      "chip": "ym2612"
    },
    {
      "channel": 4,
      "note": 85,
      "start": 60.8012,
      "duration": 0.4,
      "velocity": 92,
      "chip": "ym2612"
    },
    {
      "channel": 5,
      "note": 7,
      "start": 60.8015,
      "duration": 0.1323,
      "velocity": 125,
      "chip": "ym2612"
    },
    {
      "channel": 0,
      "note": 50,
      "start": 60.9336,
      "duration": 0.2665,
      "velocity": 110,
      "chip": "ym2612"
    },
    {
      "channel": 5,
      "note": 7,
      "start": 60.9341,
      "duration": 0.2673,
      "velocity": 125,
      "chip": "ym2612"
    },
    {
      "channel": 0,
      "note": 50,
      "start": 61.2002,
      "duration": 0.1332,
      "velocity": 110,
      "chip": "ym2612"
    },
    {
      "channel": 2,
      "note": 78,
      "start": 61.2008,
      "duration": 0.3999,
      "velocity": 92,
      "chip": "ym2612"
    },
    {
      "channel": 3,
      "note": 81,
      "start": 61.201,
      "duration": 0.3999,
      "velocity": 92,
      "chip": "ym2612"
    },
    {
      "channel": 4,
      "note": 83,
      "start": 61.2013,
      "duration": 0.3999,
      "velocity": 92,
      "chip": "ym2612"
    },
    {
      "channel": 5,
      "note": 7,
      "start": 61.2017,
      "duration": 0.1336,
      "velocity": 119,
      "chip": "ym2612"
    },
    {
      "channel": 0,
      "note": 57,
      "start": 61.3336,
      "duration": 0.2665,
      "velocity": 110,
      "chip": "ym2612"
    },
    {
      "channel": 1,
      "note": 90,
      "start": 61.3339,
      "duration": 0.2665,
      "velocity": 80,
      "chip": "ym2612"
    },
    {
      "channel": 5,
      "note": 57,
      "start": 61.3354,
      "duration": 0.2672,
      "velocity": 125,
      "chip": "ym2612"
    },
    {
      "channel": 0,
      "note": 50,
      "start": 61.6002,
      "duration": 0.2665,
      "velocity": 110,
      "chip": "ym2612"
    },
    {
      "channel": 1,
      "note": 93,
      "start": 61.6006,
      "duration": 0.1329,
      "velocity": 80,
      "chip": "ym2612"
    },
    {
      "channel": 2,
      "note": 78,
      "start": 61.6008,
      "duration": 0.2665,
      "velocity": 92,
      "chip": "ym2612"
    },
    {
      "channel": 3,
      "note": 81,
      "start": 61.6012,
      "duration": 0.2665,
      "velocity": 92,
      "chip": "ym2612"
    },
    {
      "channel": 4,
      "note": 85,
      "start": 61.6015,
      "duration": 0.2665,
      "velocity": 92,
      "chip": "ym2612"
    },
    {
      "channel": 5,
      "note": 7,
      "start": 61.6029,
      "duration": 0.2666,
      "velocity": 125,
      "chip": "ym2612"
    },
    {
      "channel": 0,
      "note": 49,
      "start": 61.8669,
      "duration": 0.3998,
      "velocity": 110,
      "chip": "ym2612"
    },
    {
      "channel": 1,
      "note": 97,
      "start": 61.8672,
      "duration": 0.3998,
      "velocity": 80,
      "chip": "ym2612"
    },
    {
      "channel": 2,
      "note": 76,
      "start": 61.8676,
      "duration": 0.3998,
      "velocity": 92,
      "chip": "ym2612"
    },
    {
      "channel": 3,
      "note": 80,
      "start": 61.8678,
      "duration": 0.3998,
      "velocity": 92,
      "chip": "ym2612"
    },
    {
      "channel": 4,
      "note": 83,
      "start": 61.8681,
      "duration": 0.3998,
      "velocity": 92,
      "chip": "ym2612"
    },
    {
      "channel": 5,
      "note": 7,
      "start": 61.8697,
      "duration": 0.3985,
      "velocity": 125,
      "chip": "ym2612"
    },
    {
      "channel": 0,
      "note": 49,
      "start": 62.2669,
      "duration": 0.1332,
      "velocity": 110,
      "chip": "ym2612"
    },
    {
      "channel": 1,
      "note": 98,
      "start": 62.2672,
      "duration": 0.3998,
      "velocity": 80,
      "chip": "ym2612"
    },
    {
      "channel": 2,
      "note": 76,
      "start": 62.2675,
      "duration": 0.3998,
      "velocity": 92,
      "chip": "ym2612"
    },
    {
      "channel": 3,
      "note": 80,
      "start": 62.2678,
      "duration": 0.3998,
      "velocity": 92,
      "chip": "ym2612"
    },
    {
      "channel": 4,
      "note": 83,
      "start": 62.2681,
      "duration": 0.3998,
      "velocity": 92,
      "chip": "ym2612"
    },
    {
      "channel": 5,
      "note": 7,
      "start": 62.2685,
      "duration": 0.1332,
      "velocity": 119,
      "chip": "ym2612"
    },
    {
      "channel": 0,
      "note": 56,
      "start": 62.4002,
      "duration": 0.2665,
      "velocity": 110,
      "chip": "ym2612"
    },
    {
      "channel": 5,
      "note": 57,
      "start": 62.4018,
      "duration": 0.2675,
      "velocity": 125,
      "chip": "ym2612"
    },
    {
      "channel": 0,
      "note": 49,
      "start": 62.6669,
      "duration": 0.2665,
      "velocity": 110,
      "chip": "ym2612"
    },
    {
      "channel": 1,
      "note": 100,
      "start": 62.6672,
      "duration": 0.2665,
      "velocity": 80,
      "chip": "ym2612"
    },
    {
      "channel": 2,
      "note": 76,
      "start": 62.6675,
      "duration": 0.2665,
      "velocity": 92,
      "chip": "ym2612"
    },
    {
      "channel": 3,
      "note": 80,
      "start": 62.6678,
      "duration": 0.2665,
      "velocity": 92,
      "chip": "ym2612"
    },
    {
      "channel": 4,
      "note": 83,
      "start": 62.6681,
      "duration": 0.2665,
      "velocity": 92,
      "chip": "ym2612"
    },
    {
      "channel": 5,
      "note": 7,
      "start": 62.6696,
      "duration": 0.2653,
      "velocity": 125,
      "chip": "ym2612"
    },
    {
      "channel": 0,
      "note": 49,
      "start": 62.9336,
      "duration": 0.1332,
      "velocity": 110,
      "chip": "ym2612"
    },
    {
      "channel": 1,
      "note": 98,
      "start": 62.9339,
      "duration": 0.3998,
      "velocity": 80,
      "chip": "ym2612"
    },
    {
      "channel": 2,
      "note": 76,
      "start": 62.9342,
      "duration": 0.3998,
      "velocity": 92,
      "chip": "ym2612"
    },
    {
      "channel": 3,
      "note": 80,
      "start": 62.9345,
      "duration": 0.3998,
      "velocity": 92,
      "chip": "ym2612"
    },
    {
      "channel": 4,
      "note": 83,
      "start": 62.9348,
      "duration": 0.3998,
      "velocity": 92,
      "chip": "ym2612"
    },
    {
      "channel": 5,
      "note": 7,
      "start": 62.9351,
      "duration": 0.1321,
      "velocity": 125,
      "chip": "ym2612"
    },
    {
      "channel": 0,
      "note": 49,
      "start": 63.0669,
      "duration": 0.2665,
      "velocity": 110,
      "chip": "ym2612"
    },
    {
      "channel": 5,
      "note": 7,
      "start": 63.0674,
      "duration": 0.2674,
      "velocity": 125,
      "chip": "ym2612"
    },
    {
      "channel": 0,
      "note": 49,
      "start": 63.3336,
      "duration": 0.1332,
      "velocity": 110,
      "chip": "ym2612"
    },
    {
      "channel": 1,
      "note": 97,
      "start": 63.3339,
      "duration": 0.3998,
      "velocity": 80,
      "chip": "ym2612"
    },
    {
      "channel": 2,
      "note": 76,
      "start": 63.3342,
      "duration": 0.3998,
      "velocity": 92,
      "chip": "ym2612"
    },
    {
      "channel": 3,
      "note": 80,
      "start": 63.3345,
      "duration": 0.3998,
      "velocity": 92,
      "chip": "ym2612"
    },
    {
      "channel": 4,
      "note": 81,
      "start": 63.3348,
      "duration": 0.3998,
      "velocity": 92,
      "chip": "ym2612"
    },
    {
      "channel": 5,
      "note": 7,
      "start": 63.3351,
      "duration": 0.1332,
      "velocity": 119,
      "chip": "ym2612"
    },
    {
      "channel": 0,
      "note": 56,
      "start": 63.4669,
      "duration": 0.2665,
      "velocity": 110,
      "chip": "ym2612"
    },
    {
      "channel": 5,
      "note": 57,
      "start": 63.4685,
      "duration": 0.2675,
      "velocity": 125,
      "chip": "ym2612"
    },
    {
      "channel": 0,
      "note": 49,
      "start": 63.7336,
      "duration": 0.2665,
      "velocity": 110,
      "chip": "ym2612"
    },
    {
      "channel": 1,
      "note": 95,
      "start": 63.7339,
      "duration": 0.2665,
      "velocity": 80,
      "chip": "ym2612"
    },
    {
      "channel": 2,
      "note": 76,
      "start": 63.7342,
      "duration": 0.2665,
      "velocity": 92,
      "chip": "ym2612"
    },
    {
      "channel": 3,
      "note": 80,
      "start": 63.7345,
      "duration": 0.2665,
      "velocity": 92,
      "chip": "ym2612"
    },
    {
      "channel": 4,
      "note": 83,
      "start": 63.7348,
      "duration": 0.2665,
      "velocity": 92,
      "chip": "ym2612"
    },
    {
      "channel": 5,
      "note": 7,
      "start": 63.7363,
      "duration": 0.2666,
      "velocity": 125,
      "chip": "ym2612"
    },
    {
      "channel": 0,
      "note": 47,
      "start": 64.0002,
      "duration": 0.3998,
      "velocity": 110,
      "chip": "ym2612"
    },
    {
      "channel": 1,
      "note": 97,
      "start": 64.0006,
      "duration": 0.2662,
      "velocity": 80,
      "chip": "ym2612"
    },
    {
      "channel": 2,
      "note": 74,
      "start": 64.0008,
      "duration": 0.3997,
      "velocity": 92,
      "chip": "ym2612"
    },
    {
      "channel": 3,
      "note": 78,
      "start": 64.0012,
      "duration": 0.3997,
      "velocity": 92,
      "chip": "ym2612"
    },
    {
      "channel": 4,
      "note": 81,
      "start": 64.0015,
      "duration": 0.3997,
      "velocity": 92,
      "chip": "ym2612"
    },
    {
      "channel": 5,
      "note": 7,
      "start": 64.003,
      "duration": 0.3984,
      "velocity": 125,
      "chip": "ym2612"
    },
    {
      "channel": 1,
      "note": 93,
      "start": 64.267,
      "duration": 0.1334,
      "velocity": 80,
      "chip": "ym2612"
    },
    {
      "channel": 0,
      "note": 47,
      "start": 64.4002,
      "duration": 0.1332,
      "velocity": 110,
      "chip": "ym2612"
    },
    {
      "channel": 2,
      "note": 74,
      "start": 64.4008,
      "duration": 0.3998,
      "velocity": 92,
      "chip": "ym2612"
    },
    {
      "channel": 3,
      "note": 78,
      "start": 64.401,
      "duration": 0.3998,
      "velocity": 92,
      "chip": "ym2612"
    },
    {
      "channel": 4,
      "note": 81,
      "start": 64.4013,
      "duration": 0.3998,
      "velocity": 92,
      "chip": "ym2612"
    },
    {
      "channel": 5,
      "note": 7,
      "start": 64.4017,
      "duration": 0.1336,
      "velocity": 119,
      "chip": "ym2612"
    },
    {
      "channel": 0,
      "note": 54,
      "start": 64.5336,
      "duration": 0.2665,
      "velocity": 110,
      "chip": "ym2612"
    },
    {
      "channel": 1,
      "note": 93,
      "start": 64.5339,
      "duration": 0.1329,
      "velocity": 80,
      "chip": "ym2612"
    },
    {
      "channel": 5,
      "note": 57,
      "start": 64.5354,
      "duration": 0.2671,
      "velocity": 125,
      "chip": "ym2612"
    },
    {
      "channel": 1,
      "note": 90,
      "start": 64.667,
      "duration": 0.1334,
      "velocity": 80,
      "chip": "ym2612"
    },
    {
      "channel": 0,
      "note": 47,
      "start": 64.8002,
      "duration": 0.2665,
      "velocity": 110,
      "chip": "ym2612"
    },
    {
      "channel": 2,
      "note": 74,
      "start": 64.8008,
      "duration": 0.2663,
      "velocity": 92,
      "chip": "ym2612"
    },
    {
      "channel": 3,
      "note": 78,
      "start": 64.801,
      "duration": 0.2663,
      "velocity": 92,
      "chip": "ym2612"
    },
    {
      "channel": 4,
      "note": 81,
      "start": 64.8013,
      "duration": 0.2663,
      "velocity": 92,
      "chip": "ym2612"
    },
    {
      "channel": 5,
      "note": 7,
      "start": 64.8028,
      "duration": 0.2651,
      "velocity": 125,
      "chip": "ym2612"
    },
    {
      "channel": 1,
      "note": 93,
      "start": 64.9337,
      "duration": 0.5334,
      "velocity": 80,
      "chip": "ym2612"
    },
    {
      "channel": 0,
      "note": 47,
      "start": 65.0669,
      "duration": 0.1332,
      "velocity": 110,
      "chip": "ym2612"
    },
    {
      "channel": 2,
      "note": 74,
      "start": 65.0672,
      "duration": 0.4,
      "velocity": 92,
      "chip": "ym2612"
    },
    {
      "channel": 3,
      "note": 78,
      "start": 65.0676,
      "duration": 0.4,
      "velocity": 92,
      "chip": "ym2612"
    },
    {
      "channel": 4,
      "note": 81,
      "start": 65.0679,
      "duration": 0.4,
      "velocity": 92,
      "chip": "ym2612"
    },
    {
      "channel": 5,
      "note": 7,
      "start": 65.0682,
      "duration": 0.1323,
      "velocity": 125,
      "chip": "ym2612"
    },
    {
      "channel": 0,
      "note": 47,
      "start": 65.2002,
      "duration": 0.2665,
      "velocity": 110,
      "chip": "ym2612"
    },
    {
      "channel": 5,
      "note": 7,
      "start": 65.2008,
      "duration": 0.2673,
      "velocity": 125,
      "chip": "ym2612"
    },
    {
      "channel": 0,
      "note": 47,
      "start": 65.4669,
      "duration": 0.1332,
      "velocity": 110,
      "chip": "ym2612"
    },
    {
      "channel": 2,
      "note": 74,
      "start": 65.4674,
      "duration": 0.3999,
      "velocity": 92,
      "chip": "ym2612"
    },
    {
      "channel": 3,
      "note": 78,
      "start": 65.4677,
      "duration": 0.3999,
      "velocity": 92,
      "chip": "ym2612"
    },
    {
      "channel": 4,
      "note": 80,
      "start": 65.468,
      "duration": 0.3999,
      "velocity": 92,
      "chip": "ym2612"
    },
    {
      "channel": 5,
      "note": 7,
      "start": 65.4683,
      "duration": 0.1336,
      "velocity": 119,
      "chip": "ym2612"
    },
    {
      "channel": 0,
      "note": 54,
      "start": 65.6002,
      "duration": 0.2665,
      "velocity": 110,
      "chip": "ym2612"
    },
    {
      "channel": 1,
      "note": 90,
      "start": 65.6006,
      "duration": 0.1329,
      "velocity": 80,
      "chip": "ym2612"
    },
    {
      "channel": 5,
      "note": 57,
      "start": 65.6021,
      "duration": 0.2672,
      "velocity": 125,
      "chip": "ym2612"
    },
    {
      "channel": 0,
      "note": 47,
      "start": 65.8669,
      "duration": 0.2665,
      "velocity": 110,
      "chip": "ym2612"
    },
    {
      "channel": 1,
      "note": 93,
      "start": 65.8672,
      "duration": 0.1329,
      "velocity": 80,
      "chip": "ym2612"
    },
    {
      "channel": 2,
      "note": 74,
      "start": 65.8676,
      "duration": 0.2665,
      "velocity": 92,
      "chip": "ym2612"
    },
    {
      "channel": 3,
      "note": 78,
      "start": 65.8678,
      "duration": 0.2665,
      "velocity": 92,
      "chip": "ym2612"
    },
    {
      "channel": 4,
      "note": 81,
      "start": 65.8681,
      "duration": 0.2665,
      "velocity": 92,
      "chip": "ym2612"
    },
    {
      "channel": 5,
      "note": 7,
      "start": 65.8696,
      "duration": 0.2666,
      "velocity": 125,
      "chip": "ym2612"
    },
    {
      "channel": 0,
      "note": 47,
      "start": 66.1336,
      "duration": 0.2665,
      "velocity": 110,
      "chip": "ym2612"
    },
    {
      "channel": 1,
      "note": 97,
      "start": 66.1339,
      "duration": 0.5332,
      "velocity": 80,
      "chip": "ym2612"
    },
    {
      "channel": 2,
      "note": 71,
      "start": 66.1342,
      "duration": 0.5331,
      "velocity": 92,
      "chip": "ym2612"
    },
    {
      "channel": 3,
      "note": 74,
      "start": 66.1345,
      "duration": 0.5331,
      "velocity": 92,
      "chip": "ym2612"
    },
    {
      "channel": 4,
      "note": 78,
      "start": 66.1349,
      "duration": 0.5331,
      "velocity": 92,
      "chip": "ym2612"
    },
    {
      "channel": 5,
      "note": 7,
      "start": 66.1364,
      "duration": 0.2653,
      "velocity": 119,
      "chip": "ym2612"
    },
    {
      "channel": 0,
      "note": 59,
      "start": 66.4002,
      "duration": 0.1332,
      "velocity": 110,
      "chip": "ym2612"
    },
    {
      "channel": 5,
      "note": 57,
      "start": 66.4018,
      "duration": 0.2675,
      "velocity": 125,
      "chip": "ym2612"
    },
    {
      "channel": 0,
      "note": 49,
      "start": 66.6669,
      "duration": 0.2665,
      "velocity": 110,
      "chip": "ym2612"
    },
    {
      "channel": 1,
      "note": 95,
      "start": 66.6672,
      "duration": 0.5332,
      "velocity": 80,
      "chip": "ym2612"
    },
    {
      "channel": 2,
      "note": 73,
      "start": 66.6676,
      "duration": 0.5331,
      "velocity": 92,
      "chip": "ym2612"
    },
    {
      "channel": 3,
      "note": 76,
      "start": 66.6678,
      "duration": 0.5331,
      "velocity": 92,
      "chip": "ym2612"
    },
    {
      "channel": 4,
      "note": 80,
      "start": 66.6681,
      "duration": 0.5331,
      "velocity": 92,
      "chip": "ym2612"
    },
    {
      "channel": 5,
      "note": 7,
      "start": 66.6696,
      "duration": 0.1318,
      "velocity": 119,
      "chip": "ym2612"
    },
    {
      "channel": 5,
      "note": 57,
      "start": 66.8016,
      "duration": 0.1334,
      "velocity": 125,
      "chip": "ym2612"
    },
    {
      "channel": 0,
      "note": 61,
      "start": 66.9336,
      "duration": 0.1332,
      "velocity": 110,
      "chip": "ym2612"
    },
    {
      "channel": 5,
      "note": 7,
      "start": 66.9352,
      "duration": 0.1319,
      "velocity": 125,
      "chip": "ym2612"
    },
    {
      "channel": 5,
      "note": 7,
      "start": 67.0673,
      "duration": 0.1342,
      "velocity": 125,
      "chip": "ym2612"
    },
    {
      "channel": 0,
      "note": 50,
      "start": 67.2002,
      "duration": 0.2665,
      "velocity": 110,
      "chip": "ym2612"
    },
    {
      "channel": 1,
      "note": 98,
      "start": 67.2006,
      "duration": 0.5332,
      "velocity": 80,
      "chip": "ym2612"
    },
    {
      "channel": 2,
      "note": 74,
      "start": 67.2008,
      "duration": 0.5331,
      "velocity": 92,
      "chip": "ym2612"
    },
    {
      "channel": 3,
      "note": 78,
      "start": 67.2012,
      "duration": 0.5331,
      "velocity": 92,
      "chip": "ym2612"
    },
    {
      "channel": 4,
      "note": 81,
      "start": 67.2015,
      "duration": 0.5331,
      "velocity": 92,
      "chip": "ym2612"
    },
    {
      "channel": 5,
      "note": 7,
      "start": 67.2018,
      "duration": 0.1318,
      "velocity": 125,
      "chip": "ym2612"
    },
    {
      "channel": 5,
      "note": 7,
      "start": 67.3338,
      "duration": 0.1345,
      "velocity": 119,
      "chip": "ym2612"
    },
    {
      "channel": 0,
      "note": 62,
      "start": 67.4669,
      "duration": 0.1332,
      "velocity": 110,
      "chip": "ym2612"
    },
    {
      "channel": 5,
      "note": 57,
      "start": 67.4685,
      "duration": 0.133,
      "velocity": 125,
      "chip": "ym2612"
    },
    {
      "channel": 5,
      "note": 7,
      "start": 67.6017,
      "duration": 0.1343,
      "velocity": 119,
      "chip": "ym2612"
    },
    {
      "channel": 0,
      "note": 52,
      "start": 67.7336,
      "duration": 0.2665,
      "velocity": 110,
      "chip": "ym2612"
    },
    {
      "channel": 1,
      "note": 97,
      "start": 67.7339,
      "duration": 0.5332,
      "velocity": 80,
      "chip": "ym2612"
    },
    {
      "channel": 2,
      "note": 76,
      "start": 67.7342,
      "duration": 0.5332,
      "velocity": 92,
      "chip": "ym2612"
    },
    {
      "channel": 3,
      "note": 80,
      "start": 67.7345,
      "duration": 0.5331,
      "velocity": 92,
      "chip": "ym2612"
    },
    {
      "channel": 4,
      "note": 83,
      "start": 67.7348,
      "duration": 0.5331,
      "velocity": 92,
      "chip": "ym2612"
    },
    {
      "channel": 5,
      "note": 57,
      "start": 67.7363,
      "duration": 0.1307,
      "velocity": 119,
      "chip": "ym2612"
    },
    {
      "channel": 5,
      "note": 57,
      "start": 67.8671,
      "duration": 0.1334,
      "velocity": 119,
      "chip": "ym2612"
    },
    {
      "channel": 0,
      "note": 64,
      "start": 68.0002,
      "duration": 0.1332,
      "velocity": 110,
      "chip": "ym2612"
    },
    {
      "channel": 5,
      "note": 57,
      "start": 68.0008,
      "duration": 0.1329,
      "velocity": 119,
      "chip": "ym2612"
    },
    {
      "channel": 5,
      "note": 57,
      "start": 68.134,
      "duration": 0.1355,
      "velocity": 125,
      "chip": "ym2612"
    },
    {
      "channel": 0,
      "note": 45,
      "start": 68.2669,
      "duration": 0.3998,
      "velocity": 110,
      "chip": "ym2612"
    },
    {
      "channel": 1,
      "note": 100,
      "start": 68.2672,
      "duration": 2.1332,
      "velocity": 80,
      "chip": "ym2612"
    },
    {
      "channel": 2,
      "note": 73,
      "start": 68.2676,
      "duration": 0.3995,
      "velocity": 92,
      "chip": "ym2612"
    },
    {
      "channel": 3,
      "note": 76,
      "start": 68.2679,
      "duration": 0.3995,
      "velocity": 92,
      "chip": "ym2612"
    },
    {
      "channel": 4,
      "note": 80,
      "start": 68.2681,
      "duration": 0.3995,
      "velocity": 92,
      "chip": "ym2612"
    },
    {
      "channel": 5,
      "note": 7,
      "start": 68.2697,
      "duration": 0.3983,
      "velocity": 125,
      "chip": "ym2612"
    },
    {
      "channel": 0,
      "note": 45,
      "start": 68.6669,
      "duration": 0.3998,
      "velocity": 110,
      "chip": "ym2612"
    },
    {
      "channel": 2,
      "note": 73,
      "start": 68.6672,
      "duration": 0.3998,
      "velocity": 92,
      "chip": "ym2612"
    },
    {
      "channel": 3,
      "note": 76,
      "start": 68.6676,
      "duration": 0.3998,
      "velocity": 92,
      "chip": "ym2612"
    },
    {
      "channel": 4,
      "note": 80,
      "start": 68.6679,
      "duration": 0.3998,
      "velocity": 92,
      "chip": "ym2612"
    },
    {
      "channel": 5,
      "note": 7,
      "start": 68.6682,
      "duration": 0.3998,
      "velocity": 125,
      "chip": "ym2612"
    },
    {
      "channel": 0,
      "note": 45,
      "start": 69.0669,
      "duration": 1.0665,
      "velocity": 110,
      "chip": "ym2612"
    },
    {
      "channel": 2,
      "note": 73,
      "start": 69.0672,
      "duration": 0.7996,
      "velocity": 92,
      "chip": "ym2612"
    },
    {
      "channel": 3,
      "note": 76,
      "start": 69.0676,
      "duration": 0.7996,
      "velocity": 92,
      "chip": "ym2612"
    },
    {
      "channel": 4,
      "note": 80,
      "start": 69.0679,
      "duration": 0.7996,
      "velocity": 92,
      "chip": "ym2612"
    },
    {
      "channel": 5,
      "note": 7,
      "start": 69.0682,
      "duration": 0.8007,
      "velocity": 119,
      "chip": "ym2612"
    },
    {
      "channel": 2,
      "note": 73,
      "start": 69.867,
      "duration": 0.2666,
      "velocity": 92,
      "chip": "ym2612"
    },
    {
      "channel": 3,
      "note": 76,
      "start": 69.8673,
      "duration": 0.2666,
      "velocity": 92,
      "chip": "ym2612"
    },
    {
      "channel": 4,
      "note": 78,
      "start": 69.8676,
      "duration": 0.2666,
      "velocity": 92,
      "chip": "ym2612"
    },
    {
      "channel": 5,
      "note": 57,
      "start": 69.869,
      "duration": 0.2666,
      "velocity": 125,
      "chip": "ym2612"
    },
    {
      "channel": 2,
      "note": 73,
      "start": 70.1339,
      "duration": 0.2667,
      "velocity": 92,
      "chip": "ym2612"
    },
    {
      "channel": 3,
      "note": 76,
      "start": 70.1341,
      "duration": 0.2667,
      "velocity": 92,
      "chip": "ym2612"
    },
    {
      "channel": 4,
      "note": 80,
      "start": 70.1344,
      "duration": 0.2667,
      "velocity": 92,
      "chip": "ym2612"
    },
    {
      "channel": 5,
      "note": 7,
      "start": 70.1359,
      "duration": 0.2668,
      "velocity": 125,
      "chip": "ym2612"
    },
    {
      "channel": 0,
      "note": 45,
      "start": 70.4002,
      "duration": 0.3998,
      "velocity": 110,
      "chip": "ym2612"
    },
    {
      "channel": 2,
      "note": 73,
      "start": 70.4008,
      "duration": 0.3996,
      "velocity": 92,
      "chip": "ym2612"
    },
    {
      "channel": 3,
      "note": 76,
      "start": 70.401,
      "duration": 0.3997,
      "velocity": 92,
      "chip": "ym2612"
    },
    {
      "channel": 4,
      "note": 80,
      "start": 70.4013,
      "duration": 0.3997,
      "velocity": 92,
      "chip": "ym2612"
    },
    {
      "channel": 5,
      "note": 7,
      "start": 70.4029,
      "duration": 0.3984,
      "velocity": 125,
      "chip": "ym2612"
    },
    {
      "channel": 0,
      "note": 45,
      "start": 70.8002,
      "duration": 0.3998,
      "velocity": 110,
      "chip": "ym2612"
    },
    {
      "channel": 2,
      "note": 73,
      "start": 70.8006,
      "duration": 0.3998,
      "velocity": 92,
      "chip": "ym2612"
    },
    {
      "channel": 3,
      "note": 76,
      "start": 70.8009,
      "duration": 0.3998,
      "velocity": 92,
      "chip": "ym2612"
    },
    {
      "channel": 4,
      "note": 80,
      "start": 70.8012,
      "duration": 0.3998,
      "velocity": 92,
      "chip": "ym2612"
    },
    {
      "channel": 5,
      "note": 7,
      "start": 70.8015,
      "duration": 0.3998,
      "velocity": 125,
      "chip": "ym2612"
    },
    {
      "channel": 0,
      "note": 45,
      "start": 71.2002,
      "duration": 1.0665,
      "velocity": 110,
      "chip": "ym2612"
    },
    {
      "channel": 2,
      "note": 73,
      "start": 71.2006,
      "duration": 0.7996,
      "velocity": 92,
      "chip": "ym2612"
    },
    {
      "channel": 3,
      "note": 76,
      "start": 71.2009,
      "duration": 0.7996,
      "velocity": 92,
      "chip": "ym2612"
    },
    {
      "channel": 4,
      "note": 80,
      "start": 71.2012,
      "duration": 0.7996,
      "velocity": 92,
      "chip": "ym2612"
    },
    {
      "channel": 5,
      "note": 7,
      "start": 71.2015,
      "duration": 0.8007,
      "velocity": 119,
      "chip": "ym2612"
    },
    {
      "channel": 2,
      "note": 73,
      "start": 72.0003,
      "duration": 0.2666,
      "velocity": 92,
      "chip": "ym2612"
    },
    {
      "channel": 3,
      "note": 76,
      "start": 72.0006,
      "duration": 0.2666,
      "velocity": 92,
      "chip": "ym2612"
    },
    {
      "channel": 4,
      "note": 78,
      "start": 72.001,
      "duration": 0.2666,
      "velocity": 92,
      "chip": "ym2612"
    },
    {
      "channel": 5,
      "note": 57,
      "start": 72.0024,
      "duration": 0.2666,
      "velocity": 125,
      "chip": "ym2612"
    },
    {
      "channel": 2,
      "note": 73,
      "start": 72.2672,
      "duration": 0.2665,
      "velocity": 92,
      "chip": "ym2612"
    },
    {
      "channel": 3,
      "note": 76,
      "start": 72.2674,
      "duration": 0.2666,
      "velocity": 92,
      "chip": "ym2612"
    },
    {
      "channel": 4,
      "note": 80,
      "start": 72.2678,
      "duration": 0.2666,
      "velocity": 92,
      "chip": "ym2612"
    },
    {
      "channel": 5,
      "note": 7,
      "start": 72.2692,
      "duration": 0.2667,
      "velocity": 125,
      "chip": "ym2612"
    },
    {
      "channel": 0,
      "note": 47,
      "start": 72.5336,
      "duration": 0.3998,
      "velocity": 110,
      "chip": "ym2612"
    },
    {
      "channel": 2,
      "note": 74,
      "start": 72.5339,
      "duration": 0.3998,
      "velocity": 92,
      "chip": "ym2612"
    },
    {
      "channel": 3,
      "note": 78,
      "start": 72.5342,
      "duration": 0.3998,
      "velocity": 92,
      "chip": "ym2612"
    },
    {
      "channel": 4,
      "note": 81,
      "start": 72.5345,
      "duration": 0.3998,
      "velocity": 92,
      "chip": "ym2612"
    },
    {
      "channel": 5,
      "note": 7,
      "start": 72.5361,
      "duration": 0.3985,
      "velocity": 125,
      "chip": "ym2612"
    },
    {
      "channel": 0,
      "note": 47,
      "start": 72.9336,
      "duration": 0.3998,
      "velocity": 110,
      "chip": "ym2612"
    },
    {
      "channel": 2,
      "note": 74,
      "start": 72.9339,
      "duration": 0.3998,
      "velocity": 92,
      "chip": "ym2612"
    },
    {
      "channel": 3,
      "note": 78,
      "start": 72.9342,
      "duration": 0.3998,
      "velocity": 92,
      "chip": "ym2612"
    },
    {
      "channel": 4,
      "note": 81,
      "start": 72.9345,
      "duration": 0.3998,
      "velocity": 92,
      "chip": "ym2612"
    },
    {
      "channel": 5,
      "note": 7,
      "start": 72.9349,
      "duration": 0.3998,
      "velocity": 125,
      "chip": "ym2612"
    },
    {
      "channel": 0,
      "note": 47,
      "start": 73.3336,
      "duration": 1.0665,
      "velocity": 110,
      "chip": "ym2612"
    },
    {
      "channel": 2,
      "note": 74,
      "start": 73.3339,
      "duration": 0.7996,
      "velocity": 92,
      "chip": "ym2612"
    },
    {
      "channel": 3,
      "note": 78,
      "start": 73.3342,
      "duration": 0.7996,
      "velocity": 92,
      "chip": "ym2612"
    },
    {
      "channel": 4,
      "note": 81,
      "start": 73.3345,
      "duration": 0.7996,
      "velocity": 92,
      "chip": "ym2612"
    },
    {
      "channel": 5,
      "note": 7,
      "start": 73.3349,
      "duration": 0.8007,
      "velocity": 119,
      "chip": "ym2612"
    },
    {
      "channel": 2,
      "note": 74,
      "start": 74.1337,
      "duration": 0.2666,
      "velocity": 92,
      "chip": "ym2612"
    },
    {
      "channel": 3,
      "note": 78,
      "start": 74.134,
      "duration": 0.2666,
      "velocity": 92,
      "chip": "ym2612"
    },
    {
      "channel": 4,
      "note": 80,
      "start": 74.1343,
      "duration": 0.2666,
      "velocity": 92,
      "chip": "ym2612"
    },
    {
      "channel": 5,
      "note": 57,
      "start": 74.1357,
      "duration": 0.2666,
      "velocity": 125,
      "chip": "ym2612"
    },
    {
      "channel": 2,
      "note": 74,
      "start": 74.4005,
      "duration": 0.2667,
      "velocity": 92,
      "chip": "ym2612"
    },
    {
      "channel": 3,
      "note": 78,
      "start": 74.4008,
      "duration": 0.2667,
      "velocity": 92,
      "chip": "ym2612"
    },
    {
      "channel": 4,
      "note": 81,
      "start": 74.4011,
      "duration": 0.2667,
      "velocity": 92,
      "chip": "ym2612"
    },
    {
      "channel": 5,
      "note": 7,
      "start": 74.4025,
      "duration": 0.2668,
      "velocity": 125,
      "chip": "ym2612"
    },
    {
      "channel": 0,
      "note": 47,
      "start": 74.6669,
      "duration": 0.3998,
      "velocity": 110,
      "chip": "ym2612"
    },
    {
      "channel": 2,
      "note": 74,
      "start": 74.6674,
      "duration": 0.3996,
      "velocity": 92,
      "chip": "ym2612"
    },
    {
      "channel": 3,
      "note": 78,
      "start": 74.6677,
      "duration": 0.3997,
      "velocity": 92,
      "chip": "ym2612"
    },
    {
      "channel": 4,
      "note": 81,
      "start": 74.668,
      "duration": 0.3997,
      "velocity": 92,
      "chip": "ym2612"
    },
    {
      "channel": 5,
      "note": 7,
      "start": 74.6695,
      "duration": 0.3984,
      "velocity": 125,
      "chip": "ym2612"
    },
    {
      "channel": 0,
      "note": 47,
      "start": 75.0669,
      "duration": 0.3998,
      "velocity": 110,
      "chip": "ym2612"
    },
    {
      "channel": 2,
      "note": 74,
      "start": 75.0672,
      "duration": 0.3998,
      "velocity": 92,
      "chip": "ym2612"
    },
    {
      "channel": 3,
      "note": 78,
      "start": 75.0676,
      "duration": 0.3998,
      "velocity": 92,
      "chip": "ym2612"
    },
    {
      "channel": 4,
      "note": 81,
      "start": 75.0679,
      "duration": 0.3998,
      "velocity": 92,
      "chip": "ym2612"
    },
    {
      "channel": 5,
      "note": 7,
      "start": 75.0682,
      "duration": 0.3998,
      "velocity": 125,
      "chip": "ym2612"
    },
    {
      "channel": 0,
      "note": 47,
      "start": 75.4669,
      "duration": 1.0665,
      "velocity": 110,
      "chip": "ym2612"
    },
    {
      "channel": 2,
      "note": 74,
      "start": 75.4672,
      "duration": 0.7996,
      "velocity": 92,
      "chip": "ym2612"
    },
    {
      "channel": 3,
      "note": 78,
      "start": 75.4676,
      "duration": 0.7996,
      "velocity": 92,
      "chip": "ym2612"
    },
    {
      "channel": 4,
      "note": 81,
      "start": 75.4679,
      "duration": 0.7996,
      "velocity": 92,
      "chip": "ym2612"
    },
    {
      "channel": 5,
      "note": 7,
      "start": 75.4682,
      "duration": 0.8007,
      "velocity": 119,
      "chip": "ym2612"
    },
    {
      "channel": 2,
      "note": 74,
      "start": 76.267,
      "duration": 0.2666,
      "velocity": 92,
      "chip": "ym2612"
    },
    {
      "channel": 3,
      "note": 78,
      "start": 76.2673,
      "duration": 0.2666,
      "velocity": 92,
      "chip": "ym2612"
    },
    {
      "channel": 4,
      "note": 83,
      "start": 76.2676,
      "duration": 0.2666,
      "velocity": 92,
      "chip": "ym2612"
    },
    {
      "channel": 5,
      "note": 57,
      "start": 76.269,
      "duration": 0.2666,
      "velocity": 125,
      "chip": "ym2612"
    },
    {
      "channel": 2,
      "note": 74,
      "start": 76.5339,
      "duration": 0.2667,
      "velocity": 92,
      "chip": "ym2612"
    },
    {
      "channel": 3,
      "note": 78,
      "start": 76.5341,
      "duration": 0.2667,
      "velocity": 92,
      "chip": "ym2612"
    },
    {
      "channel": 4,
      "note": 81,
      "start": 76.5344,
      "duration": 0.2667,
      "velocity": 92,
      "chip": "ym2612"
    },
    {
      "channel": 5,
      "note": 7,
      "start": 76.5359,
      "duration": 0.2668,
      "velocity": 125,
      "chip": "ym2612"
    },
    {
      "channel": 0,
      "note": 45,
      "start": 76.8002,
      "duration": 0.3998,
      "velocity": 110,
      "chip": "ym2612"
    },
    {
      "channel": 2,
      "note": 73,
      "start": 76.8008,
      "duration": 0.3996,
      "velocity": 92,
      "chip": "ym2612"
    },
    {
      "channel": 3,
      "note": 76,
      "start": 76.801,
      "duration": 0.3997,
      "velocity": 92,
      "chip": "ym2612"
    },
    {
      "channel": 4,
      "note": 80,
      "start": 76.8013,
      "duration": 0.3997,
      "velocity": 92,
      "chip": "ym2612"
    },
    {
      "channel": 5,
      "note": 7,
      "start": 76.8029,
      "duration": 0.3984,
      "velocity": 125,
      "chip": "ym2612"
    },
    {
      "channel": 0,
      "note": 45,
      "start": 77.2002,
      "duration": 0.3998,
      "velocity": 110,
      "chip": "ym2612"
    },
    {
      "channel": 2,
      "note": 73,
      "start": 77.2006,
      "duration": 0.3998,
      "velocity": 92,
      "chip": "ym2612"
    },
    {
      "channel": 3,
      "note": 76,
      "start": 77.2009,
      "duration": 0.3998,
      "velocity": 92,
      "chip": "ym2612"
    },
    {
      "channel": 4,
      "note": 80,
      "start": 77.2012,
      "duration": 0.3998,
      "velocity": 92,
      "chip": "ym2612"
    },
    {
      "channel": 5,
      "note": 7,
      "start": 77.2015,
      "duration": 0.3998,
      "velocity": 125,
      "chip": "ym2612"
    },
    {
      "channel": 0,
      "note": 45,
      "start": 77.6002,
      "duration": 1.0665,
      "velocity": 110,
      "chip": "ym2612"
    },
    {
      "channel": 2,
      "note": 73,
      "start": 77.6006,
      "duration": 0.7996,
      "velocity": 92,
      "chip": "ym2612"
    },
    {
      "channel": 3,
      "note": 76,
      "start": 77.6009,
      "duration": 0.7996,
      "velocity": 92,
      "chip": "ym2612"
    },
    {
      "channel": 4,
      "note": 80,
      "start": 77.6012,
      "duration": 0.7996,
      "velocity": 92,
      "chip": "ym2612"
    },
    {
      "channel": 5,
      "note": 7,
      "start": 77.6015,
      "duration": 0.8007,
      "velocity": 119,
      "chip": "ym2612"
    },
    {
      "channel": 2,
      "note": 73,
      "start": 78.4003,
      "duration": 0.2666,
      "velocity": 92,
      "chip": "ym2612"
    },
    {
      "channel": 3,
      "note": 76,
      "start": 78.4006,
      "duration": 0.2666,
      "velocity": 92,
      "chip": "ym2612"
    },
    {
      "channel": 4,
      "note": 78,
      "start": 78.401,
      "duration": 0.2666,
      "velocity": 92,
      "chip": "ym2612"
    },
    {
      "channel": 5,
      "note": 57,
      "start": 78.4024,
      "duration": 0.2666,
      "velocity": 125,
      "chip": "ym2612"
    },
    {
      "channel": 2,
      "note": 73,
      "start": 78.6672,
      "duration": 0.2665,
      "velocity": 92,
      "chip": "ym2612"
    },
    {
      "channel": 3,
      "note": 76,
      "start": 78.6674,
      "duration": 0.2666,
      "velocity": 92,
      "chip": "ym2612"
    },
    {
      "channel": 4,
      "note": 80,
      "start": 78.6678,
      "duration": 0.2666,
      "velocity": 92,
      "chip": "ym2612"
    },
    {
      "channel": 5,
      "note": 7,
      "start": 78.6692,
      "duration": 0.2667,
      "velocity": 125,
      "chip": "ym2612"
    },
    {
      "channel": 0,
      "note": 45,
      "start": 78.9336,
      "duration": 0.3998,
      "velocity": 110,
      "chip": "ym2612"
    },
    {
      "channel": 2,
      "note": 73,
      "start": 78.9339,
      "duration": 0.3998,
      "velocity": 92,
      "chip": "ym2612"
    },
    {
      "channel": 3,
      "note": 76,
      "start": 78.9342,
      "duration": 0.3998,
      "velocity": 92,
      "chip": "ym2612"
    },
    {
      "channel": 4,
      "note": 80,
      "start": 78.9345,
      "duration": 0.3998,
      "velocity": 92,
      "chip": "ym2612"
    },
    {
      "channel": 5,
      "note": 7,
      "start": 78.9361,
      "duration": 0.3985,
      "velocity": 125,
      "chip": "ym2612"
    },
    {
      "channel": 0,
      "note": 45,
      "start": 79.3336,
      "duration": 0.3998,
      "velocity": 110,
      "chip": "ym2612"
    },
    {
      "channel": 2,
      "note": 73,
      "start": 79.3339,
      "duration": 0.3998,
      "velocity": 92,
      "chip": "ym2612"
    },
    {
      "channel": 3,
      "note": 76,
      "start": 79.3342,
      "duration": 0.3998,
      "velocity": 92,
      "chip": "ym2612"
    },
    {
      "channel": 4,
      "note": 80,
      "start": 79.3345,
      "duration": 0.3998,
      "velocity": 92,
      "chip": "ym2612"
    },
    {
      "channel": 5,
      "note": 7,
      "start": 79.3349,
      "duration": 0.3998,
      "velocity": 125,
      "chip": "ym2612"
    },
    {
      "channel": 0,
      "note": 45,
      "start": 79.7336,
      "duration": 1.0665,
      "velocity": 110,
      "chip": "ym2612"
    },
    {
      "channel": 2,
      "note": 73,
      "start": 79.7339,
      "duration": 0.7996,
      "velocity": 92,
      "chip": "ym2612"
    },
    {
      "channel": 3,
      "note": 76,
      "start": 79.7342,
      "duration": 0.7996,
      "velocity": 92,
      "chip": "ym2612"
    },
    {
      "channel": 4,
      "note": 80,
      "start": 79.7345,
      "duration": 0.7996,
      "velocity": 92,
      "chip": "ym2612"
    },
    {
      "channel": 5,
      "note": 7,
      "start": 79.7349,
      "duration": 0.8007,
      "velocity": 119,
      "chip": "ym2612"
    },
    {
      "channel": 2,
      "note": 73,
      "start": 80.5337,
      "duration": 0.2666,
      "velocity": 92,
      "chip": "ym2612"
    },
    {
      "channel": 3,
      "note": 76,
      "start": 80.534,
      "duration": 0.2666,
      "velocity": 92,
      "chip": "ym2612"
    },
    {
      "channel": 4,
      "note": 78,
      "start": 80.5343,
      "duration": 0.2666,
      "velocity": 92,
      "chip": "ym2612"
    },
    {
      "channel": 5,
      "note": 57,
      "start": 80.5357,
      "duration": 0.2666,
      "velocity": 125,
      "chip": "ym2612"
    },
    {
      "channel": 2,
      "note": 73,
      "start": 80.8005,
      "duration": 0.2667,
      "velocity": 92,
      "chip": "ym2612"
    },
    {
      "channel": 3,
      "note": 76,
      "start": 80.8008,
      "duration": 0.2667,
      "velocity": 92,
      "chip": "ym2612"
    },
    {
      "channel": 4,
      "note": 80,
      "start": 80.8011,
      "duration": 0.2667,
      "velocity": 92,
      "chip": "ym2612"
    },
    {
      "channel": 5,
      "note": 7,
      "start": 80.8025,
      "duration": 0.2668,
      "velocity": 125,
      "chip": "ym2612"
    },
    {
      "channel": 0,
      "note": 47,
      "start": 81.0669,
      "duration": 0.3998,
      "velocity": 110,
      "chip": "ym2612"
    },
    {
      "channel": 2,
      "note": 74,
      "start": 81.0674,
      "duration": 0.3996,
      "velocity": 92,
      "chip": "ym2612"
    },
    {
      "channel": 3,
      "note": 78,
      "start": 81.0677,
      "duration": 0.3997,
      "velocity": 92,
      "chip": "ym2612"
    },
    {
      "channel": 4,
      "note": 81,
      "start": 81.068,
      "duration": 0.3997,
      "velocity": 92,
      "chip": "ym2612"
    },
    {
      "channel": 5,
      "note": 7,
      "start": 81.0695,
      "duration": 0.3984,
      "velocity": 125,
      "chip": "ym2612"
    },
    {
      "channel": 0,
      "note": 47,
      "start": 81.4669,
      "duration": 0.3998,
      "velocity": 110,
      "chip": "ym2612"
    },
    {
      "channel": 2,
      "note": 74,
      "start": 81.4672,
      "duration": 0.3998,
      "velocity": 92,
      "chip": "ym2612"
    },
    {
      "channel": 3,
      "note": 78,
      "start": 81.4676,
      "duration": 0.3998,
      "velocity": 92,
      "chip": "ym2612"
    },
    {
      "channel": 4,
      "note": 81,
      "start": 81.4679,
      "duration": 0.3998,
      "velocity": 92,
      "chip": "ym2612"
    },
    {
      "channel": 5,
      "note": 7,
      "start": 81.4682,
      "duration": 0.3998,
      "velocity": 125,
      "chip": "ym2612"
    },
    {
      "channel": 0,
      "note": 47,
      "start": 81.8669,
      "duration": 1.0665,
      "velocity": 110,
      "chip": "ym2612"
    },
    {
      "channel": 2,
      "note": 74,
      "start": 81.8672,
      "duration": 0.7996,
      "velocity": 92,
      "chip": "ym2612"
    },
    {
      "channel": 3,
      "note": 78,
      "start": 81.8676,
      "duration": 0.7996,
      "velocity": 92,
      "chip": "ym2612"
    },
    {
      "channel": 4,
      "note": 81,
      "start": 81.8679,
      "duration": 0.7996,
      "velocity": 92,
      "chip": "ym2612"
    },
    {
      "channel": 5,
      "note": 7,
      "start": 81.8682,
      "duration": 0.8007,
      "velocity": 119,
      "chip": "ym2612"
    },
    {
      "channel": 2,
      "note": 74,
      "start": 82.667,
      "duration": 0.2666,
      "velocity": 92,
      "chip": "ym2612"
    },
    {
      "channel": 3,
      "note": 78,
      "start": 82.6673,
      "duration": 0.2666,
      "velocity": 92,
      "chip": "ym2612"
    },
    {
      "channel": 4,
      "note": 80,
      "start": 82.6676,
      "duration": 0.2666,
      "velocity": 92,
      "chip": "ym2612"
    },
    {
      "channel": 5,
      "note": 57,
      "start": 82.669,
      "duration": 0.2666,
      "velocity": 125,
      "chip": "ym2612"
    },
    {
      "channel": 2,
      "note": 74,
      "start": 82.9339,
      "duration": 0.2665,
      "velocity": 92,
      "chip": "ym2612"
    },
    {
      "channel": 3,
      "note": 78,
      "start": 82.9341,
      "duration": 0.2666,
      "velocity": 92,
      "chip": "ym2612"
    },
    {
      "channel": 4,
      "note": 81,
      "start": 82.9344,
      "duration": 0.2666,
      "velocity": 92,
      "chip": "ym2612"
    },
    {
      "channel": 5,
      "note": 7,
      "start": 82.9359,
      "duration": 0.2667,
      "velocity": 125,
      "chip": "ym2612"
    },
    {
      "channel": 0,
      "note": 47,
      "start": 83.2002,
      "duration": 0.2665,
      "velocity": 110,
      "chip": "ym2612"
    },
    {
      "channel": 2,
      "note": 71,
      "start": 83.2006,
      "duration": 0.5332,
      "velocity": 92,
      "chip": "ym2612"
    },
    {
      "channel": 3,
      "note": 74,
      "start": 83.2009,
      "duration": 0.5332,
      "velocity": 92,
      "chip": "ym2612"
    },
    {
      "channel": 4,
      "note": 78,
      "start": 83.2012,
      "duration": 0.5332,
      "velocity": 92,
      "chip": "ym2612"
    },
    {
      "channel": 5,
      "note": 7,
      "start": 83.2027,
      "duration": 0.2656,
      "velocity": 119,
      "chip": "ym2612"
    },
    {
      "channel": 0,
      "note": 59,
      "start": 83.4669,
      "duration": 0.1332,
      "velocity": 110,
      "chip": "ym2612"
    },
    {
      "channel": 5,
      "note": 57,
      "start": 83.4685,
      "duration": 0.2673,
      "velocity": 125,
      "chip": "ym2612"
    },
    {
      "channel": 0,
      "note": 49,
      "start": 83.7336,
      "duration": 0.2665,
      "velocity": 110,
      "chip": "ym2612"
    },
    {
      "channel": 2,
      "note": 73,
      "start": 83.7339,
      "duration": 0.5332,
      "velocity": 92,
      "chip": "ym2612"
    },
    {
      "channel": 3,
      "note": 76,
      "start": 83.7342,
      "duration": 0.5332,
      "velocity": 92,
      "chip": "ym2612"
    },
    {
      "channel": 4,
      "note": 80,
      "start": 83.7345,
      "duration": 0.5332,
      "velocity": 92,
      "chip": "ym2612"
    },
    {
      "channel": 5,
      "note": 7,
      "start": 83.7359,
      "duration": 0.1321,
      "velocity": 119,
      "chip": "ym2612"
    },
    {
      "channel": 5,
      "note": 57,
      "start": 83.8683,
      "duration": 0.1334,
      "velocity": 125,
      "chip": "ym2612"
    },
    {
      "channel": 0,
      "note": 61,
      "start": 84.0002,
      "duration": 0.1332,
      "velocity": 110,
      "chip": "ym2612"
    },
    {
      "channel": 5,
      "note": 7,
      "start": 84.0018,
      "duration": 0.1319,
      "velocity": 125,
      "chip": "ym2612"
    },
    {
      "channel": 5,
      "note": 7,
      "start": 84.134,
      "duration": 0.134,
      "velocity": 125,
      "chip": "ym2612"
    },
    {
      "channel": 0,
      "note": 50,
      "start": 84.2669,
      "duration": 0.2665,
      "velocity": 110,
      "chip": "ym2612"
    },
    {
      "channel": 2,
      "note": 74,
      "start": 84.2672,
      "duration": 0.5332,
      "velocity": 92,
      "chip": "ym2612"
    },
    {
      "channel": 3,
      "note": 78,
      "start": 84.2676,
      "duration": 0.5332,
      "velocity": 92,
      "chip": "ym2612"
    },
    {
      "channel": 4,
      "note": 81,
      "start": 84.2679,
      "duration": 0.5332,
      "velocity": 92,
      "chip": "ym2612"
    },
    {
      "channel": 5,
      "note": 7,
      "start": 84.2682,
      "duration": 0.1321,
      "velocity": 125,
      "chip": "ym2612"
    },
    {
      "channel": 5,
      "note": 7,
      "start": 84.4005,
      "duration": 0.1345,
      "velocity": 119,
      "chip": "ym2612"
    },
    {
      "channel": 0,
      "note": 62,
      "start": 84.5336,
      "duration": 0.1332,
      "velocity": 110,
      "chip": "ym2612"
    },
    {
      "channel": 5,
      "note": 57,
      "start": 84.5352,
      "duration": 0.133,
      "velocity": 125,
      "chip": "ym2612"
    },
    {
      "channel": 5,
      "note": 7,
      "start": 84.6684,
      "duration": 0.134,
      "velocity": 119,
      "chip": "ym2612"
    },
    {
      "channel": 0,
      "note": 52,
      "start": 84.8002,
      "duration": 0.2665,
      "velocity": 110,
      "chip": "ym2612"
    },
    {
      "channel": 2,
      "note": 76,
      "start": 84.8006,
      "duration": 0.5329,
      "velocity": 92,
      "chip": "ym2612"
    },
    {
      "channel": 3,
      "note": 80,
      "start": 84.8009,
      "duration": 0.5326,
      "velocity": 92,
      "chip": "ym2612"
    },
    {
      "channel": 4,
      "note": 83,
      "start": 84.8012,
      "duration": 0.5323,
      "velocity": 92,
      "chip": "ym2612"
    },
    {
      "channel": 5,
      "note": 57,
      "start": 84.8026,
      "duration": 0.131,
      "velocity": 119,
      "chip": "ym2612"
    },
    {
      "channel": 5,
      "note": 57,
      "start": 84.9338,
      "duration": 0.1334,
      "velocity": 119,
      "chip": "ym2612"
    },
    {
      "channel": 0,
      "note": 64,
      "start": 85.0669,
      "duration": 0.1332,
      "velocity": 110,
      "chip": "ym2612"
    },
    {
      "channel": 5,
      "note": 57,
      "start": 85.0674,
      "duration": 0.1329,
      "velocity": 119,
      "chip": "ym2612"
    },
    {
      "channel": 5,
      "note": 57,
      "start": 85.2006,
      "duration": 0.1328,
      "velocity": 119,
      "chip": "ym2612"
    }
  ]
}