{
  "track_name": "08 - Ending Theme",
  "duration_sec": 70.272,
  "sample_rate": 44100,
  "note_count": 1231,
  "unique_pitches": 27,
  "pitch_range": 44,
  "avg_note_duration": 0.259,
  "reconstruction_stats": {
    "notes_reconstructed": 1231,
    "keyon_events": 1231,
    "keyoff_events": 1226,
    "orphan_keyons": 5,
    "unique_pitches": 27,
    "pitch_range": 44,
    "avg_duration_sec": 0.259
  },
  "metadata": {
    "source": "E\\E-SWAT\\08 - Ending Theme.vgz"
  },
  "notes": [
    {
      "channel": 3,
      "note": 85,
      "start": 0.0,
      "duration": 0.1366,
      "velocity": 106,
      "chip": "ym2612"
    },
    {
      "channel": 3,
      "note": 81,
      "start": 0.1372,
      "duration": 0.1619,
      "velocity": 106,
      "chip": "ym2612"
    },
    {
      "channel": 3,
      "note": 78,
      "start": 0.2997,
      "duration": 0.162,
      "velocity": 106,
      "chip": "ym2612"
    },
    {
      "channel": 3,
      "note": 83,
      "start": 0.4623,
      "duration": 0.1651,
      "velocity": 106,
      "chip": "ym2612"
    },
    {
      "channel": 3,
      "note": 80,
      "start": 0.628,
      "duration": 0.1587,
      "velocity": 106,
      "chip": "ym2612"
    },
    {
      "channel": 3,
      "note": 76,
      "start": 0.7873,
      "duration": 0.162,
      "velocity": 106,
      "chip": "ym2612"
    },
    {
      "channel": 3,
      "note": 85,
      "start": 0.9499,
      "duration": 0.1619,
      "velocity": 106,
      "chip": "ym2612"
    },
    {
      "channel": 3,
      "note": 81,
      "start": 1.1124,
      "duration": 0.1834,
      "velocity": 106,
      "chip": "ym2612"
    },
    {
      "channel": 3,
      "note": 78,
      "start": 1.2964,
      "duration": 0.1584,
      "velocity": 106,
      "chip": "ym2612"
    },
    {
      "channel": 3,
      "note": 85,
      "start": 1.4555,
      "duration": 0.1618,
      "velocity": 106,
      "chip": "ym2612"
    },
    {
      "channel": 3,
      "note": 80,
      "start": 1.6179,
      "duration": 0.1618,
      "velocity": 106,
      "chip": "ym2612"
    },
    {
      "channel": 3,
      "note": 76,
      "start": 1.7804,
      "duration": 0.1657,
      "velocity": 106,
      "chip": "ym2612"
    },
    {
      "channel": 3,
      "note": 83,
      "start": 1.9467,
      "duration": 0.1581,
      "velocity": 106,
      "chip": "ym2612"
    },
    {
      "channel": 3,
      "note": 80,
      "start": 2.1055,
      "duration": 0.1619,
      "velocity": 106,
      "chip": "ym2612"
    },
    {
      "channel": 3,
      "note": 73,
      "start": 2.2679,
      "duration": 0.18,
      "velocity": 106,
      "chip": "ym2612"
    },
    {
      "channel": 3,
      "note": 81,
      "start": 2.4485,
      "duration": 0.1653,
      "velocity": 106,
      "chip": "ym2612"
    },
    {
      "channel": 3,
      "note": 80,
      "start": 2.6145,
      "duration": 0.1585,
      "velocity": 106,
      "chip": "ym2612"
    },
    {
      "channel": 3,
      "note": 73,
      "start": 2.7735,
      "duration": 0.1619,
      "velocity": 106,
      "chip": "ym2612"
    },
    {
      "channel": 3,
      "note": 80,
      "start": 2.9361,
      "duration": 0.162,
      "velocity": 106,
      "chip": "ym2612"
    },
    {
      "channel": 3,
      "note": 78,
      "start": 3.0987,
      "duration": 0.1651,
      "velocity": 106,
      "chip": "ym2612"
    },
    {
      "channel": 3,
      "note": 71,
      "start": 3.2644,
      "duration": 0.1587,
      "velocity": 106,
      "chip": "ym2612"
    },
    {
      "channel": 3,
      "note": 78,
      "start": 3.4237,
      "duration": 0.18,
      "velocity": 106,
      "chip": "ym2612"
    },
    {
      "channel": 3,
      "note": 76,
      "start": 3.6042,
      "duration": 0.162,
      "velocity": 106,
      "chip": "ym2612"
    },
    {
      "channel": 3,
      "note": 69,
      "start": 3.7667,
      "duration": 0.1658,
      "velocity": 106,
      "chip": "ym2612"
    },
    {
      "channel": 1,
      "note": 64,
      "start": 3.9322,
      "duration": 0.1588,
      "velocity": 94,
      "chip": "ym2612"
    },
    {
      "channel": 3,
      "note": 76,
      "start": 3.9331,
      "duration": 0.1587,
      "velocity": 106,
      "chip": "ym2612"
    },
    {
      "channel": 1,
      "note": 61,
      "start": 4.0916,
      "duration": 0.162,
      "velocity": 94,
      "chip": "ym2612"
    },
    {
      "channel": 3,
      "note": 73,
      "start": 4.0924,
      "duration": 0.162,
      "velocity": 106,
      "chip": "ym2612"
    },
    {
      "channel": 1,
      "note": 57,
      "start": 4.2543,
      "duration": 0.1618,
      "velocity": 94,
      "chip": "ym2612"
    },
    {
      "channel": 3,
      "note": 69,
      "start": 4.255,
      "duration": 0.1618,
      "velocity": 106,
      "chip": "ym2612"
    },
    {
      "channel": 1,
      "note": 62,
      "start": 4.4167,
      "duration": 0.1649,
      "velocity": 94,
      "chip": "ym2612"
    },
    {
      "channel": 3,
      "note": 74,
      "start": 4.4174,
      "duration": 0.1651,
      "velocity": 106,
      "chip": "ym2612"
    },
    {
      "channel": 1,
      "note": 59,
      "start": 4.5822,
      "duration": 0.177,
      "velocity": 94,
      "chip": "ym2612"
    },
    {
      "channel": 3,
      "note": 71,
      "start": 4.5831,
      "duration": 0.1768,
      "velocity": 106,
      "chip": "ym2612"
    },
    {
      "channel": 1,
      "note": 56,
      "start": 4.7597,
      "duration": 0.162,
      "velocity": 94,
      "chip": "ym2612"
    },
    {
      "channel": 3,
      "note": 68,
      "start": 4.7605,
      "duration": 0.162,
      "velocity": 106,
      "chip": "ym2612"
    },
    {
      "channel": 1,
      "note": 61,
      "start": 4.9223,
      "duration": 0.1619,
      "velocity": 94,
      "chip": "ym2612"
    },
    {
      "channel": 3,
      "note": 73,
      "start": 4.9231,
      "duration": 0.1619,
      "velocity": 106,
      "chip": "ym2612"
    },
    {
      "channel": 1,
      "note": 57,
      "start": 5.0848,
      "duration": 0.1678,
      "velocity": 94,
      "chip": "ym2612"
    },
    {
      "channel": 3,
      "note": 69,
      "start": 5.0856,
      "duration": 0.1712,
      "velocity": 102,
      "chip": "ym2612"
    },
    {
      "channel": 1,
      "note": 54,
      "start": 5.2531,
      "duration": 0.4839,
      "velocity": 94,
      "chip": "ym2612"
    },
    {
      "channel": 3,
      "note": 78,
      "start": 5.2574,
      "duration": 0.405,
      "velocity": 102,
      "chip": "ym2612"
    },
    {
      "channel": 4,
      "note": 73,
      "start": 5.2612,
      "duration": 0.4016,
      "velocity": 102,
      "chip": "ym2612"
    },
    {
      "channel": 5,
      "note": 69,
      "start": 5.2649,
      "duration": 0.3982,
      "velocity": 102,
      "chip": "ym2612"
    },
    {
      "channel": 2,
      "note": 45,
      "start": 5.2661,
      "duration": 0.143,
      "velocity": 117,
      "chip": "ym2612"
    },
    {
      "channel": 2,
      "note": 45,
      "start": 5.4146,
      "duration": 0.1572,
      "velocity": 117,
      "chip": "ym2612"
    },
    {
      "channel": 2,
      "note": 63,
      "start": 5.5769,
      "duration": 0.1573,
      "velocity": 120,
      "chip": "ym2612"
    },
    {
      "channel": 1,
      "note": 54,
      "start": 5.7377,
      "duration": 0.3425,
      "velocity": 94,
      "chip": "ym2612"
    },
    {
      "channel": 3,
      "note": 78,
      "start": 5.7384,
      "duration": 0.1227,
      "velocity": 102,
      "chip": "ym2612"
    },
    {
      "channel": 4,
      "note": 73,
      "start": 5.7392,
      "duration": 0.1223,
      "velocity": 102,
      "chip": "ym2612"
    },
    {
      "channel": 5,
      "note": 69,
      "start": 5.74,
      "duration": 0.1218,
      "velocity": 102,
      "chip": "ym2612"
    },
    {
      "channel": 2,
      "note": 45,
      "start": 5.7412,
      "duration": 0.1736,
      "velocity": 117,
      "chip": "ym2612"
    },
    {
      "channel": 2,
      "note": 64,
      "start": 5.922,
      "duration": 0.1553,
      "velocity": 127,
      "chip": "ym2612"
    },
    {
      "channel": 1,
      "note": 54,
      "start": 6.0808,
      "duration": 0.3244,
      "velocity": 94,
      "chip": "ym2612"
    },
    {
      "channel": 3,
      "note": 78,
      "start": 6.0815,
      "duration": 0.1226,
      "velocity": 102,
      "chip": "ym2612"
    },
    {
      "channel": 4,
      "note": 73,
      "start": 6.0823,
      "duration": 0.1221,
      "velocity": 102,
      "chip": "ym2612"
    },
    {
      "channel": 5,
      "note": 69,
      "start": 6.0831,
      "duration": 0.1217,
      "velocity": 102,
      "chip": "ym2612"
    },
    {
      "channel": 2,
      "note": 45,
      "start": 6.0843,
      "duration": 0.1555,
      "velocity": 117,
      "chip": "ym2612"
    },
    {
      "channel": 2,
      "note": 63,
      "start": 6.2442,
      "duration": 0.1581,
      "velocity": 120,
      "chip": "ym2612"
    },
    {
      "channel": 1,
      "note": 54,
      "start": 6.4058,
      "duration": 0.6676,
      "velocity": 94,
      "chip": "ym2612"
    },
    {
      "channel": 3,
      "note": 78,
      "start": 6.4066,
      "duration": 0.1226,
      "velocity": 102,
      "chip": "ym2612"
    },
    {
      "channel": 4,
      "note": 73,
      "start": 6.4073,
      "duration": 0.1222,
      "velocity": 102,
      "chip": "ym2612"
    },
    {
      "channel": 5,
      "note": 69,
      "start": 6.4081,
      "duration": 0.1218,
      "velocity": 102,
      "chip": "ym2612"
    },
    {
      "channel": 2,
      "note": 64,
      "start": 6.4091,
      "duration": 0.1558,
      "velocity": 127,
      "chip": "ym2612"
    },
    {
      "channel": 3,
      "note": 78,
      "start": 6.5718,
      "duration": 0.4088,
      "velocity": 102,
      "chip": "ym2612"
    },
    {
      "channel": 4,
      "note": 73,
      "start": 6.5726,
      "duration": 0.4084,
      "velocity": 102,
      "chip": "ym2612"
    },
    {
      "channel": 5,
      "note": 69,
      "start": 6.5733,
      "duration": 0.408,
      "velocity": 102,
      "chip": "ym2612"
    },
    {
      "channel": 2,
      "note": 45,
      "start": 6.5746,
      "duration": 0.1528,
      "velocity": 117,
      "chip": "ym2612"
    },
    {
      "channel": 2,
      "note": 45,
      "start": 6.7328,
      "duration": 0.1571,
      "velocity": 117,
      "chip": "ym2612"
    },
    {
      "channel": 2,
      "note": 63,
      "start": 6.895,
      "duration": 0.1755,
      "velocity": 120,
      "chip": "ym2612"
    },
    {
      "channel": 1,
      "note": 54,
      "start": 7.0739,
      "duration": 0.3245,
      "velocity": 94,
      "chip": "ym2612"
    },
    {
      "channel": 3,
      "note": 78,
      "start": 7.0747,
      "duration": 0.1046,
      "velocity": 102,
      "chip": "ym2612"
    },
    {
      "channel": 4,
      "note": 73,
      "start": 7.0755,
      "duration": 0.1041,
      "velocity": 102,
      "chip": "ym2612"
    },
    {
      "channel": 5,
      "note": 69,
      "start": 7.0763,
      "duration": 0.1037,
      "velocity": 102,
      "chip": "ym2612"
    },
    {
      "channel": 2,
      "note": 45,
      "start": 7.0775,
      "duration": 0.1554,
      "velocity": 117,
      "chip": "ym2612"
    },
    {
      "channel": 2,
      "note": 64,
      "start": 7.2401,
      "duration": 0.1554,
      "velocity": 127,
      "chip": "ym2612"
    },
    {
      "channel": 1,
      "note": 54,
      "start": 7.399,
      "duration": 0.3243,
      "velocity": 94,
      "chip": "ym2612"
    },
    {
      "channel": 3,
      "note": 78,
      "start": 7.3998,
      "duration": 0.1226,
      "velocity": 102,
      "chip": "ym2612"
    },
    {
      "channel": 4,
      "note": 73,
      "start": 7.4005,
      "duration": 0.1222,
      "velocity": 102,
      "chip": "ym2612"
    },
    {
      "channel": 5,
      "note": 69,
      "start": 7.4013,
      "duration": 0.1217,
      "velocity": 102,
      "chip": "ym2612"
    },
    {
      "channel": 2,
      "note": 45,
      "start": 7.4025,
      "duration": 0.1554,
      "velocity": 117,
      "chip": "ym2612"
    },
    {
      "channel": 2,
      "note": 63,
      "start": 7.5623,
      "duration": 0.1581,
      "velocity": 120,
      "chip": "ym2612"
    },
    {
      "channel": 1,
      "note": 54,
      "start": 7.7239,
      "duration": 0.6676,
      "velocity": 94,
      "chip": "ym2612"
    },
    {
      "channel": 3,
      "note": 78,
      "start": 7.7246,
      "duration": 0.1227,
      "velocity": 102,
      "chip": "ym2612"
    },
    {
      "channel": 4,
      "note": 74,
      "start": 7.7254,
      "duration": 0.1222,
      "velocity": 102,
      "chip": "ym2612"
    },
    {
      "channel": 5,
      "note": 69,
      "start": 7.7262,
      "duration": 0.1217,
      "velocity": 102,
      "chip": "ym2612"
    },
    {
      "channel": 2,
      "note": 64,
      "start": 7.7272,
      "duration": 0.1559,
      "velocity": 127,
      "chip": "ym2612"
    },
    {
      "channel": 3,
      "note": 78,
      "start": 7.89,
      "duration": 0.4089,
      "velocity": 102,
      "chip": "ym2612"
    },
    {
      "channel": 4,
      "note": 74,
      "start": 7.8907,
      "duration": 0.4085,
      "velocity": 102,
      "chip": "ym2612"
    },
    {
      "channel": 5,
      "note": 69,
      "start": 7.8915,
      "duration": 0.408,
      "velocity": 102,
      "chip": "ym2612"
    },
    {
      "channel": 2,
      "note": 45,
      "start": 7.8927,
      "duration": 0.1527,
      "velocity": 117,
      "chip": "ym2612"
    },
    {
      "channel": 2,
      "note": 45,
      "start": 8.0509,
      "duration": 0.1752,
      "velocity": 117,
      "chip": "ym2612"
    },
    {
      "channel": 2,
      "note": 63,
      "start": 8.2312,
      "duration": 0.1573,
      "velocity": 120,
      "chip": "ym2612"
    },
    {
      "channel": 1,
      "note": 54,
      "start": 8.392,
      "duration": 0.3245,
      "velocity": 94,
      "chip": "ym2612"
    },
    {
      "channel": 3,
      "note": 78,
      "start": 8.3928,
      "duration": 0.1226,
      "velocity": 102,
      "chip": "ym2612"
    },
    {
      "channel": 4,
      "note": 74,
      "start": 8.3936,
      "duration": 0.1222,
      "velocity": 102,
      "chip": "ym2612"
    },
    {
      "channel": 5,
      "note": 69,
      "start": 8.3943,
      "duration": 0.1218,
      "velocity": 102,
      "chip": "ym2612"
    },
    {
      "channel": 2,
      "note": 45,
      "start": 8.3955,
      "duration": 0.1555,
      "velocity": 117,
      "chip": "ym2612"
    },
    {
      "channel": 2,
      "note": 64,
      "start": 8.5583,
      "duration": 0.1553,
      "velocity": 127,
      "chip": "ym2612"
    },
    {
      "channel": 1,
      "note": 54,
      "start": 8.7171,
      "duration": 0.3244,
      "velocity": 94,
      "chip": "ym2612"
    },
    {
      "channel": 3,
      "note": 78,
      "start": 8.7179,
      "duration": 0.1226,
      "velocity": 102,
      "chip": "ym2612"
    },
    {
      "channel": 4,
      "note": 74,
      "start": 8.7186,
      "duration": 0.1221,
      "velocity": 102,
      "chip": "ym2612"
    },
    {
      "channel": 5,
      "note": 69,
      "start": 8.7194,
      "duration": 0.1217,
      "velocity": 102,
      "chip": "ym2612"
    },
    {
      "channel": 2,
      "note": 45,
      "start": 8.7206,
      "duration": 0.1556,
      "velocity": 117,
      "chip": "ym2612"
    },
    {
      "channel": 2,
      "note": 63,
      "start": 8.8805,
      "duration": 0.1581,
      "velocity": 120,
      "chip": "ym2612"
    },
    {
      "channel": 1,
      "note": 54,
      "start": 9.0421,
      "duration": 0.6676,
      "velocity": 94,
      "chip": "ym2612"
    },
    {
      "channel": 3,
      "note": 78,
      "start": 9.0429,
      "duration": 0.1227,
      "velocity": 102,
      "chip": "ym2612"
    },
    {
      "channel": 4,
      "note": 74,
      "start": 9.0436,
      "duration": 0.1223,
      "velocity": 102,
      "chip": "ym2612"
    },
    {
      "channel": 5,
      "note": 69,
      "start": 9.0444,
      "duration": 0.1218,
      "velocity": 102,
      "chip": "ym2612"
    },
    {
      "channel": 2,
      "note": 64,
      "start": 9.0454,
      "duration": 0.1559,
      "velocity": 127,
      "chip": "ym2612"
    },
    {
      "channel": 3,
      "note": 78,
      "start": 9.2082,
      "duration": 0.4088,
      "velocity": 102,
      "chip": "ym2612"
    },
    {
      "channel": 4,
      "note": 74,
      "start": 9.209,
      "duration": 0.4083,
      "velocity": 102,
      "chip": "ym2612"
    },
    {
      "channel": 5,
      "note": 69,
      "start": 9.2097,
      "duration": 0.4079,
      "velocity": 102,
      "chip": "ym2612"
    },
    {
      "channel": 2,
      "note": 45,
      "start": 9.2109,
      "duration": 0.1708,
      "velocity": 117,
      "chip": "ym2612"
    },
    {
      "channel": 2,
      "note": 45,
      "start": 9.3871,
      "duration": 0.1571,
      "velocity": 117,
      "chip": "ym2612"
    },
    {
      "channel": 2,
      "note": 63,
      "start": 9.5494,
      "duration": 0.1574,
      "velocity": 120,
      "chip": "ym2612"
    },
    {
      "channel": 1,
      "note": 54,
      "start": 9.7103,
      "duration": 0.3244,
      "velocity": 94,
      "chip": "ym2612"
    },
    {
      "channel": 3,
      "note": 78,
      "start": 9.7111,
      "duration": 0.1226,
      "velocity": 102,
      "chip": "ym2612"
    },
    {
      "channel": 4,
      "note": 74,
      "start": 9.7118,
      "duration": 0.1221,
      "velocity": 102,
      "chip": "ym2612"
    },
    {
      "channel": 5,
      "note": 69,
      "start": 9.7126,
      "duration": 0.1217,
      "velocity": 102,
      "chip": "ym2612"
    },
    {
      "channel": 2,
      "note": 45,
      "start": 9.7138,
      "duration": 0.1555,
      "velocity": 117,
      "chip": "ym2612"
    },
    {
      "channel": 2,
      "note": 64,
      "start": 9.8765,
      "duration": 0.1553,
      "velocity": 127,
      "chip": "ym2612"
    },
    {
      "channel": 1,
      "note": 54,
      "start": 10.0353,
      "duration": 0.3245,
      "velocity": 94,
      "chip": "ym2612"
    },
    {
      "channel": 3,
      "note": 78,
      "start": 10.0361,
      "duration": 0.1227,
      "velocity": 102,
      "chip": "ym2612"
    },
    {
      "channel": 4,
      "note": 74,
      "start": 10.0368,
      "duration": 0.1222,
      "velocity": 102,
      "chip": "ym2612"
    },
    {
      "channel": 5,
      "note": 69,
      "start": 10.0376,
      "duration": 0.1217,
      "velocity": 102,
      "chip": "ym2612"
    },
    {
      "channel": 2,
      "note": 45,
      "start": 10.0388,
      "duration": 0.1555,
      "velocity": 117,
      "chip": "ym2612"
    },
    {
      "channel": 2,
      "note": 63,
      "start": 10.1987,
      "duration": 0.1583,
      "velocity": 120,
      "chip": "ym2612"
    },
    {
      "channel": 1,
      "note": 56,
      "start": 10.3604,
      "duration": 0.1829,
      "velocity": 94,
      "chip": "ym2612"
    },
    {
      "channel": 3,
      "note": 80,
      "start": 10.3612,
      "duration": 0.1225,
      "velocity": 102,
      "chip": "ym2612"
    },
    {
      "channel": 4,
      "note": 74,
      "start": 10.362,
      "duration": 0.1221,
      "velocity": 102,
      "chip": "ym2612"
    },
    {
      "channel": 5,
      "note": 71,
      "start": 10.3627,
      "duration": 0.1216,
      "velocity": 102,
      "chip": "ym2612"
    },
    {
      "channel": 2,
      "note": 64,
      "start": 10.3637,
      "duration": 0.1739,
      "velocity": 127,
      "chip": "ym2612"
    },
    {
      "channel": 1,
      "note": 56,
      "start": 10.5439,
      "duration": 0.484,
      "velocity": 94,
      "chip": "ym2612"
    },
    {
      "channel": 3,
      "note": 80,
      "start": 10.5446,
      "duration": 0.3905,
      "velocity": 102,
      "chip": "ym2612"
    },
    {
      "channel": 4,
      "note": 74,
      "start": 10.5454,
      "duration": 0.39,
      "velocity": 102,
      "chip": "ym2612"
    },
    {
      "channel": 5,
      "note": 71,
      "start": 10.5462,
      "duration": 0.3896,
      "velocity": 102,
      "chip": "ym2612"
    },
    {
      "channel": 2,
      "note": 45,
      "start": 10.5474,
      "duration": 0.1526,
      "velocity": 117,
      "chip": "ym2612"
    },
    {
      "channel": 2,
      "note": 45,
      "start": 10.7053,
      "duration": 0.1571,
      "velocity": 117,
      "chip": "ym2612"
    },
    {
      "channel": 2,
      "note": 63,
      "start": 10.8676,
      "duration": 0.1574,
      "velocity": 120,
      "chip": "ym2612"
    },
    {
      "channel": 1,
      "note": 56,
      "start": 11.0285,
      "duration": 0.3244,
      "velocity": 94,
      "chip": "ym2612"
    },
    {
      "channel": 3,
      "note": 80,
      "start": 11.0293,
      "duration": 0.1226,
      "velocity": 102,
      "chip": "ym2612"
    },
    {
      "channel": 4,
      "note": 74,
      "start": 11.03,
      "duration": 0.1221,
      "velocity": 102,
      "chip": "ym2612"
    },
    {
      "channel": 5,
      "note": 71,
      "start": 11.0308,
      "duration": 0.1217,
      "velocity": 102,
      "chip": "ym2612"
    },
    {
      "channel": 2,
      "note": 45,
      "start": 11.032,
      "duration": 0.1554,
      "velocity": 117,
      "chip": "ym2612"
    },
    {
      "channel": 2,
      "note": 64,
      "start": 11.1946,
      "duration": 0.1554,
      "velocity": 127,
      "chip": "ym2612"
    },
    {
      "channel": 1,
      "note": 56,
      "start": 11.3535,
      "duration": 0.3424,
      "velocity": 94,
      "chip": "ym2612"
    },
    {
      "channel": 3,
      "note": 80,
      "start": 11.3543,
      "duration": 0.1226,
      "velocity": 102,
      "chip": "ym2612"
    },
    {
      "channel": 4,
      "note": 74,
      "start": 11.355,
      "duration": 0.1222,
      "velocity": 102,
      "chip": "ym2612"
    },
    {
      "channel": 5,
      "note": 71,
      "start": 11.3558,
      "duration": 0.1217,
      "velocity": 102,
      "chip": "ym2612"
    },
    {
      "channel": 2,
      "note": 45,
      "start": 11.357,
      "duration": 0.1555,
      "velocity": 117,
      "chip": "ym2612"
    },
    {
      "channel": 2,
      "note": 63,
      "start": 11.5168,
      "duration": 0.1763,
      "velocity": 120,
      "chip": "ym2612"
    },
    {
      "channel": 1,
      "note": 56,
      "start": 11.6965,
      "duration": 0.6495,
      "velocity": 94,
      "chip": "ym2612"
    },
    {
      "channel": 3,
      "note": 80,
      "start": 11.6973,
      "duration": 0.1046,
      "velocity": 102,
      "chip": "ym2612"
    },
    {
      "channel": 4,
      "note": 74,
      "start": 11.698,
      "duration": 0.1042,
      "velocity": 102,
      "chip": "ym2612"
    },
    {
      "channel": 5,
      "note": 71,
      "start": 11.6988,
      "duration": 0.1037,
      "velocity": 102,
      "chip": "ym2612"
    },
    {
      "channel": 2,
      "note": 64,
      "start": 11.6998,
      "duration": 0.1559,
      "velocity": 127,
      "chip": "ym2612"
    },
    {
      "channel": 3,
      "note": 80,
      "start": 11.8627,
      "duration": 0.4087,
      "velocity": 102,
      "chip": "ym2612"
    },
    {
      "channel": 4,
      "note": 74,
      "start": 11.8634,
      "duration": 0.4083,
      "velocity": 102,
      "chip": "ym2612"
    },
    {
      "channel": 5,
      "note": 71,
      "start": 11.8642,
      "duration": 0.4079,
      "velocity": 102,
      "chip": "ym2612"
    },
    {
      "channel": 2,
      "note": 45,
      "start": 11.8654,
      "duration": 0.1527,
      "velocity": 117,
      "chip": "ym2612"
    },
    {
      "channel": 2,
      "note": 45,
      "start": 12.0235,
      "duration": 0.1571,
      "velocity": 117,
      "chip": "ym2612"
    },
    {
      "channel": 2,
      "note": 63,
      "start": 12.1857,
      "duration": 0.1574,
      "velocity": 120,
      "chip": "ym2612"
    },
    {
      "channel": 1,
      "note": 56,
      "start": 12.3466,
      "duration": 0.3245,
      "velocity": 94,
      "chip": "ym2612"
    },
    {
      "channel": 3,
      "note": 80,
      "start": 12.3473,
      "duration": 0.1227,
      "velocity": 102,
      "chip": "ym2612"
    },
    {
      "channel": 4,
      "note": 74,
      "start": 12.3481,
      "duration": 0.1222,
      "velocity": 102,
      "chip": "ym2612"
    },
    {
      "channel": 5,
      "note": 71,
      "start": 12.3488,
      "duration": 0.1218,
      "velocity": 102,
      "chip": "ym2612"
    },
    {
      "channel": 2,
      "note": 45,
      "start": 12.3501,
      "duration": 0.1556,
      "velocity": 117,
      "chip": "ym2612"
    },
    {
      "channel": 2,
      "note": 64,
      "start": 12.5129,
      "duration": 0.1553,
      "velocity": 127,
      "chip": "ym2612"
    },
    {
      "channel": 1,
      "note": 56,
      "start": 12.6716,
      "duration": 0.3425,
      "velocity": 94,
      "chip": "ym2612"
    },
    {
      "channel": 3,
      "note": 80,
      "start": 12.6724,
      "duration": 0.1226,
      "velocity": 102,
      "chip": "ym2612"
    },
    {
      "channel": 4,
      "note": 74,
      "start": 12.6732,
      "duration": 0.1222,
      "velocity": 102,
      "chip": "ym2612"
    },
    {
      "channel": 5,
      "note": 71,
      "start": 12.6739,
      "duration": 0.1217,
      "velocity": 102,
      "chip": "ym2612"
    },
    {
      "channel": 2,
      "note": 45,
      "start": 12.6752,
      "duration": 0.1735,
      "velocity": 117,
      "chip": "ym2612"
    },
    {
      "channel": 2,
      "note": 63,
      "start": 12.853,
      "duration": 0.1583,
      "velocity": 120,
      "chip": "ym2612"
    },
    {
      "channel": 1,
      "note": 54,
      "start": 13.0148,
      "duration": 0.6494,
      "velocity": 94,
      "chip": "ym2612"
    },
    {
      "channel": 3,
      "note": 78,
      "start": 13.0155,
      "duration": 1.4829,
      "velocity": 102,
      "chip": "ym2612"
    },
    {
      "channel": 4,
      "note": 73,
      "start": 13.0163,
      "duration": 1.4829,
      "velocity": 102,
      "chip": "ym2612"
    },
    {
      "channel": 5,
      "note": 69,
      "start": 13.0171,
      "duration": 1.4829,
      "velocity": 102,
      "chip": "ym2612"
    },
    {
      "channel": 2,
      "note": 64,
      "start": 13.0181,
      "duration": 0.1559,
      "velocity": 127,
      "chip": "ym2612"
    },
    {
      "channel": 2,
      "note": 45,
      "start": 13.1834,
      "duration": 0.1529,
      "velocity": 117,
      "chip": "ym2612"
    },
    {
      "channel": 2,
      "note": 45,
      "start": 13.3417,
      "duration": 0.1571,
      "velocity": 117,
      "chip": "ym2612"
    },
    {
      "channel": 2,
      "note": 63,
      "start": 13.504,
      "duration": 0.1572,
      "velocity": 120,
      "chip": "ym2612"
    },
    {
      "channel": 1,
      "note": 54,
      "start": 13.6648,
      "duration": 0.3425,
      "velocity": 94,
      "chip": "ym2612"
    },
    {
      "channel": 2,
      "note": 45,
      "start": 13.6671,
      "duration": 0.1567,
      "velocity": 117,
      "chip": "ym2612"
    },
    {
      "channel": 2,
      "note": 64,
      "start": 13.8318,
      "duration": 0.1725,
      "velocity": 127,
      "chip": "ym2612"
    },
    {
      "channel": 1,
      "note": 54,
      "start": 14.0078,
      "duration": 0.394,
      "velocity": 94,
      "chip": "ym2612"
    },
    {
      "channel": 2,
      "note": 45,
      "start": 14.0102,
      "duration": 0.1567,
      "velocity": 117,
      "chip": "ym2612"
    },
    {
      "channel": 2,
      "note": 63,
      "start": 14.1721,
      "duration": 0.1574,
      "velocity": 120,
      "chip": "ym2612"
    },
    {
      "channel": 2,
      "note": 64,
      "start": 14.3346,
      "duration": 0.1574,
      "velocity": 127,
      "chip": "ym2612"
    },
    {
      "channel": 2,
      "note": 45,
      "start": 14.5014,
      "duration": 0.153,
      "velocity": 117,
      "chip": "ym2612"
    },
    {
      "channel": 1,
      "note": 52,
      "start": 14.6579,
      "duration": 0.0869,
      "velocity": 94,
      "chip": "ym2612"
    },
    {
      "channel": 3,
      "note": 76,
      "start": 14.6587,
      "duration": 0.0865,
      "velocity": 102,
      "chip": "ym2612"
    },
    {
      "channel": 4,
      "note": 71,
      "start": 14.6595,
      "duration": 0.086,
      "velocity": 102,
      "chip": "ym2612"
    },
    {
      "channel": 5,
      "note": 68,
      "start": 14.6602,
      "duration": 0.0856,
      "velocity": 102,
      "chip": "ym2612"
    },
    {
      "channel": 2,
      "note": 45,
      "start": 14.6615,
      "duration": 0.156,
      "velocity": 117,
      "chip": "ym2612"
    },
    {
      "channel": 1,
      "note": 52,
      "start": 14.8209,
      "duration": 0.0864,
      "velocity": 94,
      "chip": "ym2612"
    },
    {
      "channel": 3,
      "note": 76,
      "start": 14.8217,
      "duration": 0.086,
      "velocity": 102,
      "chip": "ym2612"
    },
    {
      "channel": 4,
      "note": 71,
      "start": 14.8224,
      "duration": 0.0856,
      "velocity": 102,
      "chip": "ym2612"
    },
    {
      "channel": 5,
      "note": 68,
      "start": 14.8232,
      "duration": 0.0851,
      "velocity": 102,
      "chip": "ym2612"
    },
    {
      "channel": 2,
      "note": 63,
      "start": 14.8242,
      "duration": 0.1557,
      "velocity": 120,
      "chip": "ym2612"
    },
    {
      "channel": 1,
      "note": 52,
      "start": 14.9834,
      "duration": 0.0864,
      "velocity": 94,
      "chip": "ym2612"
    },
    {
      "channel": 3,
      "note": 76,
      "start": 14.9841,
      "duration": 0.086,
      "velocity": 102,
      "chip": "ym2612"
    },
    {
      "channel": 4,
      "note": 71,
      "start": 14.9849,
      "duration": 0.0856,
      "velocity": 102,
      "chip": "ym2612"
    },
    {
      "channel": 5,
      "note": 68,
      "start": 14.9856,
      "duration": 0.0852,
      "velocity": 102,
      "chip": "ym2612"
    },
    {
      "channel": 2,
      "note": 45,
      "start": 14.9869,
      "duration": 0.1732,
      "velocity": 117,
      "chip": "ym2612"
    },
    {
      "channel": 2,
      "note": 76,
      "start": 15.1684,
      "duration": 0.0639,
      "velocity": 127,
      "chip": "ym2612"
    },
    {
      "channel": 2,
      "note": 71,
      "start": 15.2368,
      "duration": 0.0858,
      "velocity": 127,
      "chip": "ym2612"
    },
    {
      "channel": 1,
      "note": 56,
      "start": 15.3261,
      "duration": 1.318,
      "velocity": 94,
      "chip": "ym2612"
    },
    {
      "channel": 3,
      "note": 80,
      "start": 15.3268,
      "duration": 1.3176,
      "velocity": 102,
      "chip": "ym2612"
    },
    {
      "channel": 4,
      "note": 74,
      "start": 15.3276,
      "duration": 1.3172,
      "velocity": 102,
      "chip": "ym2612"
    },
    {
      "channel": 5,
      "note": 71,
      "start": 15.3284,
      "duration": 1.3167,
      "velocity": 102,
      "chip": "ym2612"
    },
    {
      "channel": 2,
      "note": 66,
      "start": 15.3298,
      "duration": 0.1553,
      "velocity": 127,
      "chip": "ym2612"
    },
    {
      "channel": 2,
      "note": 45,
      "start": 15.4905,
      "duration": 0.1575,
      "velocity": 117,
      "chip": "ym2612"
    },
    {
      "channel": 2,
      "note": 63,
      "start": 15.6531,
      "duration": 0.0848,
      "velocity": 120,
      "chip": "ym2612"
    },
    {
      "channel": 2,
      "note": 63,
      "start": 15.7431,
      "duration": 0.0674,
      "velocity": 120,
      "chip": "ym2612"
    },
    {
      "channel": 2,
      "note": 45,
      "start": 15.8195,
      "duration": 0.1532,
      "velocity": 117,
      "chip": "ym2612"
    },
    {
      "channel": 2,
      "note": 63,
      "start": 15.9779,
      "duration": 0.1572,
      "velocity": 120,
      "chip": "ym2612"
    },
    {
      "channel": 2,
      "note": 64,
      "start": 16.1403,
      "duration": 0.1759,
      "velocity": 127,
      "chip": "ym2612"
    },
    {
      "channel": 2,
      "note": 45,
      "start": 16.3216,
      "duration": 0.0664,
      "velocity": 117,
      "chip": "ym2612"
    },
    {
      "channel": 2,
      "note": 63,
      "start": 16.3931,
      "duration": 0.031,
      "velocity": 120,
      "chip": "ym2612"
    },
    {
      "channel": 2,
      "note": 63,
      "start": 16.4293,
      "duration": 0.0494,
      "velocity": 120,
      "chip": "ym2612"
    },
    {
      "channel": 2,
      "note": 63,
      "start": 16.4875,
      "duration": 0.1537,
      "velocity": 120,
      "chip": "ym2612"
    },
    {
      "channel": 2,
      "note": 63,
      "start": 16.6462,
      "duration": 0.1575,
      "velocity": 120,
      "chip": "ym2612"
    },
    {
      "channel": 2,
      "note": 45,
      "start": 16.8081,
      "duration": 0.1582,
      "velocity": 117,
      "chip": "ym2612"
    },
    {
      "channel": 2,
      "note": 45,
      "start": 16.9705,
      "duration": 0.1582,
      "velocity": 117,
      "chip": "ym2612"
    },
    {
      "channel": 1,
      "note": 54,
      "start": 17.1351,
      "duration": 0.1586,
      "velocity": 94,
      "chip": "ym2612"
    },
    {
      "channel": 3,
      "note": 73,
      "start": 17.1384,
      "duration": 0.3367,
      "velocity": 110,
      "chip": "ym2612"
    },
    {
      "channel": 4,
      "note": 69,
      "start": 17.1418,
      "duration": 0.4973,
      "velocity": 110,
      "chip": "ym2612"
    },
    {
      "channel": 5,
      "note": 66,
      "start": 17.1452,
      "duration": 0.4947,
      "velocity": 110,
      "chip": "ym2612"
    },
    {
      "channel": 2,
      "note": 45,
      "start": 17.1464,
      "duration": 0.1444,
      "velocity": 117,
      "chip": "ym2612"
    },
    {
      "channel": 1,
      "note": 54,
      "start": 17.2943,
      "duration": 0.1801,
      "velocity": 94,
      "chip": "ym2612"
    },
    {
      "channel": 2,
      "note": 64,
      "start": 17.2964,
      "duration": 0.1751,
      "velocity": 127,
      "chip": "ym2612"
    },
    {
      "channel": 1,
      "note": 54,
      "start": 17.4749,
      "duration": 0.1627,
      "velocity": 94,
      "chip": "ym2612"
    },
    {
      "channel": 2,
      "note": 63,
      "start": 17.477,
      "duration": 0.1569,
      "velocity": 120,
      "chip": "ym2612"
    },
    {
      "channel": 0,
      "note": 78,
      "start": 17.6375,
      "duration": 0.1618,
      "velocity": 97,
      "chip": "ym2612"
    },
    {
      "channel": 1,
      "note": 54,
      "start": 17.6382,
      "duration": 0.1619,
      "velocity": 94,
      "chip": "ym2612"
    },
    {
      "channel": 3,
      "note": 73,
      "start": 17.6389,
      "duration": 0.6495,
      "velocity": 110,
      "chip": "ym2612"
    },
    {
      "channel": 4,
      "note": 69,
      "start": 17.6397,
      "duration": 0.649,
      "velocity": 110,
      "chip": "ym2612"
    },
    {
      "channel": 5,
      "note": 66,
      "start": 17.6405,
      "duration": 0.6486,
      "velocity": 110,
      "chip": "ym2612"
    },
    {
      "channel": 2,
      "note": 64,
      "start": 17.6415,
      "duration": 0.155,
      "velocity": 127,
      "chip": "ym2612"
    },
    {
      "channel": 0,
      "note": 81,
      "start": 17.7999,
      "duration": 0.3243,
      "velocity": 97,
      "chip": "ym2612"
    },
    {
      "channel": 1,
      "note": 54,
      "start": 17.8007,
      "duration": 0.1614,
      "velocity": 94,
      "chip": "ym2612"
    },
    {
      "channel": 2,
      "note": 45,
      "start": 17.803,
      "duration": 0.1559,
      "velocity": 117,
      "chip": "ym2612"
    },
    {
      "channel": 1,
      "note": 54,
      "start": 17.9627,
      "duration": 0.1624,
      "velocity": 94,
      "chip": "ym2612"
    },
    {
      "channel": 2,
      "note": 64,
      "start": 17.9648,
      "duration": 0.1567,
      "velocity": 127,
      "chip": "ym2612"
    },
    {
      "channel": 0,
      "note": 85,
      "start": 18.1249,
      "duration": 0.1619,
      "velocity": 97,
      "chip": "ym2612"
    },
    {
      "channel": 1,
      "note": 54,
      "start": 18.1257,
      "duration": 0.162,
      "velocity": 94,
      "chip": "ym2612"
    },
    {
      "channel": 2,
      "note": 63,
      "start": 18.1277,
      "duration": 0.1563,
      "velocity": 120,
      "chip": "ym2612"
    },
    {
      "channel": 0,
      "note": 83,
      "start": 18.2875,
      "duration": 0.505,
      "velocity": 97,
      "chip": "ym2612"
    },
    {
      "channel": 1,
      "note": 54,
      "start": 18.2882,
      "duration": 0.1617,
      "velocity": 94,
      "chip": "ym2612"
    },
    {
      "channel": 2,
      "note": 64,
      "start": 18.2902,
      "duration": 0.1563,
      "velocity": 127,
      "chip": "ym2612"
    },
    {
      "channel": 1,
      "note": 49,
      "start": 18.4505,
      "duration": 0.1798,
      "velocity": 94,
      "chip": "ym2612"
    },
    {
      "channel": 3,
      "note": 71,
      "start": 18.4513,
      "duration": 0.3428,
      "velocity": 110,
      "chip": "ym2612"
    },
    {
      "channel": 4,
      "note": 68,
      "start": 18.452,
      "duration": 0.5052,
      "velocity": 110,
      "chip": "ym2612"
    },
    {
      "channel": 5,
      "note": 64,
      "start": 18.4528,
      "duration": 0.5051,
      "velocity": 110,
      "chip": "ym2612"
    },
    {
      "channel": 2,
      "note": 45,
      "start": 18.454,
      "duration": 0.1731,
      "velocity": 117,
      "chip": "ym2612"
    },
    {
      "channel": 1,
      "note": 49,
      "start": 18.6309,
      "duration": 0.1624,
      "velocity": 94,
      "chip": "ym2612"
    },
    {
      "channel": 2,
      "note": 64,
      "start": 18.633,
      "duration": 0.1567,
      "velocity": 127,
      "chip": "ym2612"
    },
    {
      "channel": 0,
      "note": 81,
      "start": 18.7932,
      "duration": 0.1617,
      "velocity": 97,
      "chip": "ym2612"
    },
    {
      "channel": 1,
      "note": 49,
      "start": 18.7939,
      "duration": 0.1618,
      "velocity": 94,
      "chip": "ym2612"
    },
    {
      "channel": 2,
      "note": 63,
      "start": 18.796,
      "duration": 0.1561,
      "velocity": 120,
      "chip": "ym2612"
    },
    {
      "channel": 0,
      "note": 80,
      "start": 18.9556,
      "duration": 0.3243,
      "velocity": 97,
      "chip": "ym2612"
    },
    {
      "channel": 1,
      "note": 49,
      "start": 18.9563,
      "duration": 0.1616,
      "velocity": 94,
      "chip": "ym2612"
    },
    {
      "channel": 3,
      "note": 71,
      "start": 18.9571,
      "duration": 0.6495,
      "velocity": 110,
      "chip": "ym2612"
    },
    {
      "channel": 4,
      "note": 68,
      "start": 18.9578,
      "duration": 0.649,
      "velocity": 110,
      "chip": "ym2612"
    },
    {
      "channel": 5,
      "note": 64,
      "start": 18.9586,
      "duration": 0.6486,
      "velocity": 110,
      "chip": "ym2612"
    },
    {
      "channel": 2,
      "note": 64,
      "start": 18.9596,
      "duration": 0.155,
      "velocity": 127,
      "chip": "ym2612"
    },
    {
      "channel": 1,
      "note": 49,
      "start": 19.1184,
      "duration": 0.1624,
      "velocity": 94,
      "chip": "ym2612"
    },
    {
      "channel": 2,
      "note": 45,
      "start": 19.1207,
      "duration": 0.1564,
      "velocity": 117,
      "chip": "ym2612"
    },
    {
      "channel": 0,
      "note": 81,
      "start": 19.2806,
      "duration": 0.1619,
      "velocity": 97,
      "chip": "ym2612"
    },
    {
      "channel": 1,
      "note": 49,
      "start": 19.2814,
      "duration": 0.162,
      "velocity": 94,
      "chip": "ym2612"
    },
    {
      "channel": 2,
      "note": 64,
      "start": 19.2834,
      "duration": 0.1563,
      "velocity": 127,
      "chip": "ym2612"
    },
    {
      "channel": 0,
      "note": 80,
      "start": 19.4432,
      "duration": 0.1618,
      "velocity": 97,
      "chip": "ym2612"
    },
    {
      "channel": 1,
      "note": 49,
      "start": 19.4439,
      "duration": 0.1619,
      "velocity": 94,
      "chip": "ym2612"
    },
    {
      "channel": 2,
      "note": 63,
      "start": 19.446,
      "duration": 0.1562,
      "velocity": 120,
      "chip": "ym2612"
    },
    {
      "channel": 0,
      "note": 73,
      "start": 19.6056,
      "duration": 0.83,
      "velocity": 97,
      "chip": "ym2612"
    },
    {
      "channel": 1,
      "note": 49,
      "start": 19.6063,
      "duration": 0.18,
      "velocity": 94,
      "chip": "ym2612"
    },
    {
      "channel": 2,
      "note": 64,
      "start": 19.6083,
      "duration": 0.1745,
      "velocity": 127,
      "chip": "ym2612"
    },
    {
      "channel": 1,
      "note": 50,
      "start": 19.7869,
      "duration": 0.1615,
      "velocity": 94,
      "chip": "ym2612"
    },
    {
      "channel": 3,
      "note": 69,
      "start": 19.7877,
      "duration": 0.324,
      "velocity": 110,
      "chip": "ym2612"
    },
    {
      "channel": 4,
      "note": 66,
      "start": 19.7884,
      "duration": 0.4866,
      "velocity": 110,
      "chip": "ym2612"
    },
    {
      "channel": 5,
      "note": 62,
      "start": 19.7891,
      "duration": 0.4866,
      "velocity": 110,
      "chip": "ym2612"
    },
    {
      "channel": 2,
      "note": 45,
      "start": 19.7904,
      "duration": 0.1548,
      "velocity": 117,
      "chip": "ym2612"
    },
    {
      "channel": 1,
      "note": 50,
      "start": 19.949,
      "duration": 0.162,
      "velocity": 94,
      "chip": "ym2612"
    },
    {
      "channel": 2,
      "note": 64,
      "start": 19.9511,
      "duration": 0.1566,
      "velocity": 127,
      "chip": "ym2612"
    },
    {
      "channel": 1,
      "note": 50,
      "start": 20.1116,
      "duration": 0.162,
      "velocity": 94,
      "chip": "ym2612"
    },
    {
      "channel": 2,
      "note": 63,
      "start": 20.1136,
      "duration": 0.1567,
      "velocity": 120,
      "chip": "ym2612"
    },
    {
      "channel": 1,
      "note": 50,
      "start": 20.2741,
      "duration": 0.1619,
      "velocity": 94,
      "chip": "ym2612"
    },
    {
      "channel": 3,
      "note": 69,
      "start": 20.2749,
      "duration": 0.6679,
      "velocity": 110,
      "chip": "ym2612"
    },
    {
      "channel": 4,
      "note": 66,
      "start": 20.2756,
      "duration": 0.6674,
      "velocity": 110,
      "chip": "ym2612"
    },
    {
      "channel": 5,
      "note": 62,
      "start": 20.2764,
      "duration": 0.667,
      "velocity": 110,
      "chip": "ym2612"
    },
    {
      "channel": 2,
      "note": 64,
      "start": 20.2773,
      "duration": 0.1555,
      "velocity": 127,
      "chip": "ym2612"
    },
    {
      "channel": 1,
      "note": 50,
      "start": 20.4366,
      "duration": 0.1623,
      "velocity": 94,
      "chip": "ym2612"
    },
    {
      "channel": 2,
      "note": 45,
      "start": 20.4389,
      "duration": 0.1564,
      "velocity": 117,
      "chip": "ym2612"
    },
    {
      "channel": 0,
      "note": 73,
      "start": 20.5988,
      "duration": 0.1618,
      "velocity": 97,
      "chip": "ym2612"
    },
    {
      "channel": 1,
      "note": 50,
      "start": 20.5995,
      "duration": 0.162,
      "velocity": 94,
      "chip": "ym2612"
    },
    {
      "channel": 2,
      "note": 64,
      "start": 20.6016,
      "duration": 0.1562,
      "velocity": 127,
      "chip": "ym2612"
    },
    {
      "channel": 0,
      "note": 76,
      "start": 20.7612,
      "duration": 0.1799,
      "velocity": 97,
      "chip": "ym2612"
    },
    {
      "channel": 1,
      "note": 50,
      "start": 20.762,
      "duration": 0.18,
      "velocity": 94,
      "chip": "ym2612"
    },
    {
      "channel": 2,
      "note": 63,
      "start": 20.7641,
      "duration": 0.1743,
      "velocity": 120,
      "chip": "ym2612"
    },
    {
      "channel": 0,
      "note": 80,
      "start": 20.9419,
      "duration": 0.162,
      "velocity": 97,
      "chip": "ym2612"
    },
    {
      "channel": 1,
      "note": 50,
      "start": 20.9426,
      "duration": 0.1621,
      "velocity": 94,
      "chip": "ym2612"
    },
    {
      "channel": 2,
      "note": 64,
      "start": 20.9445,
      "duration": 0.1565,
      "velocity": 127,
      "chip": "ym2612"
    },
    {
      "channel": 0,
      "note": 83,
      "start": 21.1046,
      "duration": 0.3242,
      "velocity": 97,
      "chip": "ym2612"
    },
    {
      "channel": 1,
      "note": 52,
      "start": 21.1053,
      "duration": 0.1613,
      "velocity": 94,
      "chip": "ym2612"
    },
    {
      "channel": 3,
      "note": 68,
      "start": 21.106,
      "duration": 0.3243,
      "velocity": 110,
      "chip": "ym2612"
    },
    {
      "channel": 4,
      "note": 64,
      "start": 21.1068,
      "duration": 0.4868,
      "velocity": 110,
      "chip": "ym2612"
    },
    {
      "channel": 5,
      "note": 61,
      "start": 21.1075,
      "duration": 0.4868,
      "velocity": 110,
      "chip": "ym2612"
    },
    {
      "channel": 2,
      "note": 45,
      "start": 21.1088,
      "duration": 0.1546,
      "velocity": 117,
      "chip": "ym2612"
    },
    {
      "channel": 1,
      "note": 52,
      "start": 21.2672,
      "duration": 0.1624,
      "velocity": 94,
      "chip": "ym2612"
    },
    {
      "channel": 2,
      "note": 64,
      "start": 21.2693,
      "duration": 0.1567,
      "velocity": 127,
      "chip": "ym2612"
    },
    {
      "channel": 0,
      "note": 81,
      "start": 21.4295,
      "duration": 0.1618,
      "velocity": 97,
      "chip": "ym2612"
    },
    {
      "channel": 1,
      "note": 52,
      "start": 21.4302,
      "duration": 0.1618,
      "velocity": 94,
      "chip": "ym2612"
    },
    {
      "channel": 2,
      "note": 63,
      "start": 21.4322,
      "duration": 0.1562,
      "velocity": 120,
      "chip": "ym2612"
    },
    {
      "channel": 0,
      "note": 80,
      "start": 21.5919,
      "duration": 0.3244,
      "velocity": 97,
      "chip": "ym2612"
    },
    {
      "channel": 1,
      "note": 52,
      "start": 21.5927,
      "duration": 0.1615,
      "velocity": 94,
      "chip": "ym2612"
    },
    {
      "channel": 3,
      "note": 68,
      "start": 21.5934,
      "duration": 0.6671,
      "velocity": 110,
      "chip": "ym2612"
    },
    {
      "channel": 4,
      "note": 64,
      "start": 21.5941,
      "duration": 0.6667,
      "velocity": 110,
      "chip": "ym2612"
    },
    {
      "channel": 5,
      "note": 61,
      "start": 21.5949,
      "duration": 0.6662,
      "velocity": 110,
      "chip": "ym2612"
    },
    {
      "channel": 2,
      "note": 64,
      "start": 21.5959,
      "duration": 0.155,
      "velocity": 127,
      "chip": "ym2612"
    },
    {
      "channel": 1,
      "note": 52,
      "start": 21.7547,
      "duration": 0.1625,
      "velocity": 94,
      "chip": "ym2612"
    },
    {
      "channel": 2,
      "note": 45,
      "start": 21.757,
      "duration": 0.1566,
      "velocity": 117,
      "chip": "ym2612"
    },
    {
      "channel": 0,
      "note": 81,
      "start": 21.9171,
      "duration": 0.8298,
      "velocity": 97,
      "chip": "ym2612"
    },
    {
      "channel": 1,
      "note": 52,
      "start": 21.9177,
      "duration": 0.1797,
      "velocity": 94,
      "chip": "ym2612"
    },
    {
      "channel": 2,
      "note": 64,
      "start": 21.9198,
      "duration": 0.1742,
      "velocity": 127,
      "chip": "ym2612"
    },
    {
      "channel": 1,
      "note": 52,
      "start": 22.098,
      "duration": 0.1618,
      "velocity": 94,
      "chip": "ym2612"
    },
    {
      "channel": 2,
      "note": 63,
      "start": 22.1001,
      "duration": 0.1565,
      "velocity": 120,
      "chip": "ym2612"
    },
    {
      "channel": 1,
      "note": 52,
      "start": 22.2604,
      "duration": 0.1623,
      "velocity": 94,
      "chip": "ym2612"
    },
    {
      "channel": 2,
      "note": 64,
      "start": 22.2623,
      "duration": 0.1569,
      "velocity": 127,
      "chip": "ym2612"
    },
    {
      "channel": 1,
      "note": 54,
      "start": 22.4233,
      "duration": 0.1615,
      "velocity": 94,
      "chip": "ym2612"
    },
    {
      "channel": 3,
      "note": 73,
      "start": 22.424,
      "duration": 0.3239,
      "velocity": 110,
      "chip": "ym2612"
    },
    {
      "channel": 4,
      "note": 69,
      "start": 22.4248,
      "duration": 0.487,
      "velocity": 110,
      "chip": "ym2612"
    },
    {
      "channel": 5,
      "note": 66,
      "start": 22.4256,
      "duration": 0.4869,
      "velocity": 110,
      "chip": "ym2612"
    },
    {
      "channel": 2,
      "note": 45,
      "start": 22.4268,
      "duration": 0.1548,
      "velocity": 117,
      "chip": "ym2612"
    },
    {
      "channel": 1,
      "note": 54,
      "start": 22.5854,
      "duration": 0.1618,
      "velocity": 94,
      "chip": "ym2612"
    },
    {
      "channel": 2,
      "note": 64,
      "start": 22.5875,
      "duration": 0.1566,
      "velocity": 127,
      "chip": "ym2612"
    },
    {
      "channel": 1,
      "note": 54,
      "start": 22.7478,
      "duration": 0.1624,
      "velocity": 94,
      "chip": "ym2612"
    },
    {
      "channel": 2,
      "note": 63,
      "start": 22.7499,
      "duration": 0.1567,
      "velocity": 120,
      "chip": "ym2612"
    },
    {
      "channel": 0,
      "note": 78,
      "start": 22.9101,
      "duration": 0.1618,
      "velocity": 97,
      "chip": "ym2612"
    },
    {
      "channel": 1,
      "note": 54,
      "start": 22.9108,
      "duration": 0.162,
      "velocity": 94,
      "chip": "ym2612"
    },
    {
      "channel": 3,
      "note": 73,
      "start": 22.9116,
      "duration": 0.6676,
      "velocity": 110,
      "chip": "ym2612"
    },
    {
      "channel": 4,
      "note": 69,
      "start": 22.9123,
      "duration": 0.6671,
      "velocity": 110,
      "chip": "ym2612"
    },
    {
      "channel": 5,
      "note": 66,
      "start": 22.9131,
      "duration": 0.6667,
      "velocity": 110,
      "chip": "ym2612"
    },
    {
      "channel": 2,
      "note": 64,
      "start": 22.9141,
      "duration": 0.155,
      "velocity": 127,
      "chip": "ym2612"
    },
    {
      "channel": 0,
      "note": 81,
      "start": 23.0727,
      "duration": 0.1229,
      "velocity": 97,
      "chip": "ym2612"
    },
    {
      "channel": 1,
      "note": 54,
      "start": 23.0733,
      "duration": 0.1801,
      "velocity": 94,
      "chip": "ym2612"
    },
    {
      "channel": 2,
      "note": 45,
      "start": 23.0757,
      "duration": 0.1741,
      "velocity": 117,
      "chip": "ym2612"
    },
    {
      "channel": 0,
      "note": 81,
      "start": 23.2533,
      "duration": 0.1048,
      "velocity": 97,
      "chip": "ym2612"
    },
    {
      "channel": 1,
      "note": 54,
      "start": 23.254,
      "duration": 0.1618,
      "velocity": 94,
      "chip": "ym2612"
    },
    {
      "channel": 2,
      "note": 64,
      "start": 23.2561,
      "duration": 0.1561,
      "velocity": 127,
      "chip": "ym2612"
    },
    {
      "channel": 0,
      "note": 85,
      "start": 23.4157,
      "duration": 0.1619,
      "velocity": 97,
      "chip": "ym2612"
    },
    {
      "channel": 1,
      "note": 54,
      "start": 23.4165,
      "duration": 0.162,
      "velocity": 94,
      "chip": "ym2612"
    },
    {
      "channel": 2,
      "note": 63,
      "start": 23.4185,
      "duration": 0.1562,
      "velocity": 120,
      "chip": "ym2612"
    },
    {
      "channel": 0,
      "note": 83,
      "start": 23.5782,
      "duration": 0.4869,
      "velocity": 97,
      "chip": "ym2612"
    },
    {
      "channel": 1,
      "note": 54,
      "start": 23.579,
      "duration": 0.1617,
      "velocity": 94,
      "chip": "ym2612"
    },
    {
      "channel": 2,
      "note": 64,
      "start": 23.581,
      "duration": 0.1564,
      "velocity": 127,
      "chip": "ym2612"
    },
    {
      "channel": 1,
      "note": 49,
      "start": 23.7413,
      "duration": 0.1617,
      "velocity": 94,
      "chip": "ym2612"
    },
    {
      "channel": 3,
      "note": 71,
      "start": 23.7421,
      "duration": 0.3246,
      "velocity": 110,
      "chip": "ym2612"
    },
    {
      "channel": 4,
      "note": 68,
      "start": 23.7429,
      "duration": 0.4871,
      "velocity": 110,
      "chip": "ym2612"
    },
    {
      "channel": 5,
      "note": 64,
      "start": 23.7436,
      "duration": 0.4872,
      "velocity": 110,
      "chip": "ym2612"
    },
    {
      "channel": 2,
      "note": 45,
      "start": 23.7449,
      "duration": 0.1549,
      "velocity": 117,
      "chip": "ym2612"
    },
    {
      "channel": 1,
      "note": 49,
      "start": 23.9036,
      "duration": 0.1623,
      "velocity": 94,
      "chip": "ym2612"
    },
    {
      "channel": 2,
      "note": 64,
      "start": 23.9057,
      "duration": 0.1566,
      "velocity": 127,
      "chip": "ym2612"
    },
    {
      "channel": 0,
      "note": 81,
      "start": 24.0658,
      "duration": 0.1229,
      "velocity": 97,
      "chip": "ym2612"
    },
    {
      "channel": 1,
      "note": 49,
      "start": 24.0666,
      "duration": 0.162,
      "velocity": 94,
      "chip": "ym2612"
    },
    {
      "channel": 2,
      "note": 63,
      "start": 24.0686,
      "duration": 0.1562,
      "velocity": 120,
      "chip": "ym2612"
    },
    {
      "channel": 0,
      "note": 80,
      "start": 24.2284,
      "duration": 0.3423,
      "velocity": 97,
      "chip": "ym2612"
    },
    {
      "channel": 1,
      "note": 49,
      "start": 24.2291,
      "duration": 0.1795,
      "velocity": 94,
      "chip": "ym2612"
    },
    {
      "channel": 3,
      "note": 71,
      "start": 24.2299,
      "duration": 0.6675,
      "velocity": 110,
      "chip": "ym2612"
    },
    {
      "channel": 4,
      "note": 68,
      "start": 24.2307,
      "duration": 0.6671,
      "velocity": 110,
      "chip": "ym2612"
    },
    {
      "channel": 5,
      "note": 64,
      "start": 24.2314,
      "duration": 0.6667,
      "velocity": 110,
      "chip": "ym2612"
    },
    {
      "channel": 2,
      "note": 64,
      "start": 24.2324,
      "duration": 0.1729,
      "velocity": 127,
      "chip": "ym2612"
    },
    {
      "channel": 1,
      "note": 49,
      "start": 24.4092,
      "duration": 0.1623,
      "velocity": 94,
      "chip": "ym2612"
    },
    {
      "channel": 2,
      "note": 45,
      "start": 24.4115,
      "duration": 0.1563,
      "velocity": 117,
      "chip": "ym2612"
    },
    {
      "channel": 0,
      "note": 76,
      "start": 24.5714,
      "duration": 0.3244,
      "velocity": 97,
      "chip": "ym2612"
    },
    {
      "channel": 1,
      "note": 49,
      "start": 24.5721,
      "duration": 0.1615,
      "velocity": 94,
      "chip": "ym2612"
    },
    {
      "channel": 2,
      "note": 64,
      "start": 24.5742,
      "duration": 0.1562,
      "velocity": 127,
      "chip": "ym2612"
    },
    {
      "channel": 1,
      "note": 49,
      "start": 24.7341,
      "duration": 0.1625,
      "velocity": 94,
      "chip": "ym2612"
    },
    {
      "channel": 2,
      "note": 63,
      "start": 24.7363,
      "duration": 0.1567,
      "velocity": 120,
      "chip": "ym2612"
    },
    {
      "channel": 0,
      "note": 88,
      "start": 24.8965,
      "duration": 1.1549,
      "velocity": 97,
      "chip": "ym2612"
    },
    {
      "channel": 1,
      "note": 49,
      "start": 24.8972,
      "duration": 0.1618,
      "velocity": 94,
      "chip": "ym2612"
    },
    {
      "channel": 2,
      "note": 64,
      "start": 24.8992,
      "duration": 0.1564,
      "velocity": 127,
      "chip": "ym2612"
    },
    {
      "channel": 1,
      "note": 52,
      "start": 25.0596,
      "duration": 0.1617,
      "velocity": 94,
      "chip": "ym2612"
    },
    {
      "channel": 3,
      "note": 76,
      "start": 25.0604,
      "duration": 0.324,
      "velocity": 110,
      "chip": "ym2612"
    },
    {
      "channel": 4,
      "note": 73,
      "start": 25.0611,
      "duration": 0.5047,
      "velocity": 110,
      "chip": "ym2612"
    },
    {
      "channel": 5,
      "note": 69,
      "start": 25.0619,
      "duration": 0.5047,
      "velocity": 110,
      "chip": "ym2612"
    },
    {
      "channel": 2,
      "note": 45,
      "start": 25.0631,
      "duration": 0.1549,
      "velocity": 117,
      "chip": "ym2612"
    },
    {
      "channel": 1,
      "note": 52,
      "start": 25.2219,
      "duration": 0.1618,
      "velocity": 94,
      "chip": "ym2612"
    },
    {
      "channel": 2,
      "note": 64,
      "start": 25.2239,
      "duration": 0.1565,
      "velocity": 127,
      "chip": "ym2612"
    },
    {
      "channel": 1,
      "note": 52,
      "start": 25.3842,
      "duration": 0.1801,
      "velocity": 94,
      "chip": "ym2612"
    },
    {
      "channel": 2,
      "note": 63,
      "start": 25.3863,
      "duration": 0.1749,
      "velocity": 120,
      "chip": "ym2612"
    },
    {
      "channel": 1,
      "note": 52,
      "start": 25.5649,
      "duration": 0.162,
      "velocity": 94,
      "chip": "ym2612"
    },
    {
      "channel": 3,
      "note": 76,
      "start": 25.5656,
      "duration": 0.649,
      "velocity": 110,
      "chip": "ym2612"
    },
    {
      "channel": 4,
      "note": 73,
      "start": 25.5664,
      "duration": 0.6486,
      "velocity": 110,
      "chip": "ym2612"
    },
    {
      "channel": 5,
      "note": 69,
      "start": 25.5672,
      "duration": 0.6482,
      "velocity": 110,
      "chip": "ym2612"
    },
    {
      "channel": 2,
      "note": 64,
      "start": 25.5682,
      "duration": 0.1554,
      "velocity": 127,
      "chip": "ym2612"
    },
    {
      "channel": 1,
      "note": 52,
      "start": 25.7275,
      "duration": 0.1618,
      "velocity": 94,
      "chip": "ym2612"
    },
    {
      "channel": 2,
      "note": 45,
      "start": 25.7298,
      "duration": 0.1563,
      "velocity": 117,
      "chip": "ym2612"
    },
    {
      "channel": 1,
      "note": 52,
      "start": 25.89,
      "duration": 0.1618,
      "velocity": 94,
      "chip": "ym2612"
    },
    {
      "channel": 2,
      "note": 64,
      "start": 25.892,
      "duration": 0.1566,
      "velocity": 127,
      "chip": "ym2612"
    },
    {
      "channel": 1,
      "note": 52,
      "start": 26.0524,
      "duration": 0.1616,
      "velocity": 94,
      "chip": "ym2612"
    },
    {
      "channel": 2,
      "note": 63,
      "start": 26.0544,
      "duration": 0.1566,
      "velocity": 120,
      "chip": "ym2612"
    },
    {
      "channel": 1,
      "note": 52,
      "start": 26.2146,
      "duration": 0.1628,
      "velocity": 94,
      "chip": "ym2612"
    },
    {
      "channel": 2,
      "note": 64,
      "start": 26.2165,
      "duration": 0.1572,
      "velocity": 127,
      "chip": "ym2612"
    },
    {
      "channel": 0,
      "note": 88,
      "start": 26.3772,
      "duration": 0.3423,
      "velocity": 97,
      "chip": "ym2612"
    },
    {
      "channel": 1,
      "note": 52,
      "start": 26.378,
      "duration": 0.1613,
      "velocity": 94,
      "chip": "ym2612"
    },
    {
      "channel": 3,
      "note": 76,
      "start": 26.3788,
      "duration": 0.3424,
      "velocity": 110,
      "chip": "ym2612"
    },
    {
      "channel": 4,
      "note": 73,
      "start": 26.3795,
      "duration": 0.5049,
      "velocity": 110,
      "chip": "ym2612"
    },
    {
      "channel": 5,
      "note": 69,
      "start": 26.3803,
      "duration": 0.5048,
      "velocity": 110,
      "chip": "ym2612"
    },
    {
      "channel": 2,
      "note": 45,
      "start": 26.3815,
      "duration": 0.1546,
      "velocity": 117,
      "chip": "ym2612"
    },
    {
      "channel": 1,
      "note": 52,
      "start": 26.54,
      "duration": 0.1804,
      "velocity": 94,
      "chip": "ym2612"
    },
    {
      "channel": 2,
      "note": 64,
      "start": 26.542,
      "duration": 0.1748,
      "velocity": 127,
      "chip": "ym2612"
    },
    {
      "channel": 0,
      "note": 86,
      "start": 26.7202,
      "duration": 0.1048,
      "velocity": 97,
      "chip": "ym2612"
    },
    {
      "channel": 1,
      "note": 52,
      "start": 26.7209,
      "duration": 0.1619,
      "velocity": 94,
      "chip": "ym2612"
    },
    {
      "channel": 2,
      "note": 63,
      "start": 26.723,
      "duration": 0.1562,
      "velocity": 120,
      "chip": "ym2612"
    },
    {
      "channel": 0,
      "note": 85,
      "start": 26.8827,
      "duration": 0.3248,
      "velocity": 97,
      "chip": "ym2612"
    },
    {
      "channel": 1,
      "note": 52,
      "start": 26.8834,
      "duration": 0.1616,
      "velocity": 94,
      "chip": "ym2612"
    },
    {
      "channel": 3,
      "note": 76,
      "start": 26.8841,
      "duration": 0.6496,
      "velocity": 110,
      "chip": "ym2612"
    },
    {
      "channel": 4,
      "note": 73,
      "start": 26.8849,
      "duration": 0.6491,
      "velocity": 110,
      "chip": "ym2612"
    },
    {
      "channel": 5,
      "note": 69,
      "start": 26.8857,
      "duration": 0.6487,
      "velocity": 110,
      "chip": "ym2612"
    },
    {
      "channel": 2,
      "note": 64,
      "start": 26.8867,
      "duration": 0.155,
      "velocity": 127,
      "chip": "ym2612"
    },
    {
      "channel": 1,
      "note": 52,
      "start": 27.0455,
      "duration": 0.1628,
      "velocity": 94,
      "chip": "ym2612"
    },
    {
      "channel": 2,
      "note": 64,
      "start": 27.0476,
      "duration": 0.157,
      "velocity": 127,
      "chip": "ym2612"
    },
    {
      "channel": 0,
      "note": 86,
      "start": 27.2081,
      "duration": 0.4871,
      "velocity": 97,
      "chip": "ym2612"
    },
    {
      "channel": 1,
      "note": 52,
      "start": 27.2089,
      "duration": 0.1615,
      "velocity": 94,
      "chip": "ym2612"
    },
    {
      "channel": 2,
      "note": 63,
      "start": 27.211,
      "duration": 0.1562,
      "velocity": 120,
      "chip": "ym2612"
    },
    {
      "channel": 1,
      "note": 52,
      "start": 27.371,
      "duration": 0.162,
      "velocity": 94,
      "chip": "ym2612"
    },
    {
      "channel": 2,
      "note": 64,
      "start": 27.3731,
      "duration": 0.1566,
      "velocity": 127,
      "chip": "ym2612"
    },
    {
      "channel": 1,
      "note": 52,
      "start": 27.5336,
      "duration": 0.162,
      "velocity": 94,
      "chip": "ym2612"
    },
    {
      "channel": 2,
      "note": 63,
      "start": 27.5356,
      "duration": 0.1568,
      "velocity": 120,
      "chip": "ym2612"
    },
    {
      "channel": 1,
      "note": 54,
      "start": 27.6962,
      "duration": 0.1791,
      "velocity": 94,
      "chip": "ym2612"
    },
    {
      "channel": 3,
      "note": 73,
      "start": 27.6997,
      "duration": 0.3389,
      "velocity": 110,
      "chip": "ym2612"
    },
    {
      "channel": 4,
      "note": 69,
      "start": 27.7031,
      "duration": 0.4994,
      "velocity": 110,
      "chip": "ym2612"
    },
    {
      "channel": 5,
      "note": 66,
      "start": 27.7066,
      "duration": 0.4967,
      "velocity": 110,
      "chip": "ym2612"
    },
    {
      "channel": 2,
      "note": 45,
      "start": 27.7078,
      "duration": 0.1646,
      "velocity": 117,
      "chip": "ym2612"
    },
    {
      "channel": 1,
      "note": 54,
      "start": 27.8759,
      "duration": 0.162,
      "velocity": 94,
      "chip": "ym2612"
    },
    {
      "channel": 2,
      "note": 64,
      "start": 27.8779,
      "duration": 0.157,
      "velocity": 127,
      "chip": "ym2612"
    },
    {
      "channel": 1,
      "note": 54,
      "start": 28.0384,
      "duration": 0.1626,
      "velocity": 94,
      "chip": "ym2612"
    },
    {
      "channel": 2,
      "note": 63,
      "start": 28.0405,
      "duration": 0.1569,
      "velocity": 120,
      "chip": "ym2612"
    },
    {
      "channel": 0,
      "note": 78,
      "start": 28.2009,
      "duration": 0.1619,
      "velocity": 97,
      "chip": "ym2612"
    },
    {
      "channel": 1,
      "note": 54,
      "start": 28.2016,
      "duration": 0.162,
      "velocity": 94,
      "chip": "ym2612"
    },
    {
      "channel": 3,
      "note": 73,
      "start": 28.2024,
      "duration": 0.6494,
      "velocity": 110,
      "chip": "ym2612"
    },
    {
      "channel": 4,
      "note": 69,
      "start": 28.2031,
      "duration": 0.649,
      "velocity": 110,
      "chip": "ym2612"
    },
    {
      "channel": 5,
      "note": 66,
      "start": 28.2039,
      "duration": 0.6486,
      "velocity": 110,
      "chip": "ym2612"
    },
    {
      "channel": 2,
      "note": 64,
      "start": 28.2048,
      "duration": 0.1551,
      "velocity": 127,
      "chip": "ym2612"
    },
    {
      "channel": 0,
      "note": 81,
      "start": 28.3635,
      "duration": 0.3243,
      "velocity": 97,
      "chip": "ym2612"
    },
    {
      "channel": 1,
      "note": 54,
      "start": 28.3642,
      "duration": 0.1615,
      "velocity": 94,
      "chip": "ym2612"
    },
    {
      "channel": 2,
      "note": 45,
      "start": 28.3665,
      "duration": 0.156,
      "velocity": 117,
      "chip": "ym2612"
    },
    {
      "channel": 1,
      "note": 54,
      "start": 28.5263,
      "duration": 0.1624,
      "velocity": 94,
      "chip": "ym2612"
    },
    {
      "channel": 2,
      "note": 64,
      "start": 28.5284,
      "duration": 0.1566,
      "velocity": 127,
      "chip": "ym2612"
    },
    {
      "channel": 0,
      "note": 85,
      "start": 28.6885,
      "duration": 0.1617,
      "velocity": 97,
      "chip": "ym2612"
    },
    {
      "channel": 1,
      "note": 54,
      "start": 28.6892,
      "duration": 0.1619,
      "velocity": 94,
      "chip": "ym2612"
    },
    {
      "channel": 2,
      "note": 63,
      "start": 28.6913,
      "duration": 0.1561,
      "velocity": 120,
      "chip": "ym2612"
    },
    {
      "channel": 0,
      "note": 83,
      "start": 28.8509,
      "duration": 0.505,
      "velocity": 97,
      "chip": "ym2612"
    },
    {
      "channel": 1,
      "note": 54,
      "start": 28.8517,
      "duration": 0.18,
      "velocity": 94,
      "chip": "ym2612"
    },
    {
      "channel": 2,
      "note": 64,
      "start": 28.8536,
      "duration": 0.1746,
      "velocity": 127,
      "chip": "ym2612"
    },
    {
      "channel": 1,
      "note": 49,
      "start": 29.0322,
      "duration": 0.1616,
      "velocity": 94,
      "chip": "ym2612"
    },
    {
      "channel": 3,
      "note": 71,
      "start": 29.033,
      "duration": 0.3245,
      "velocity": 110,
      "chip": "ym2612"
    },
    {
      "channel": 4,
      "note": 68,
      "start": 29.0338,
      "duration": 0.487,
      "velocity": 110,
      "chip": "ym2612"
    },
    {
      "channel": 5,
      "note": 64,
      "start": 29.0345,
      "duration": 0.4871,
      "velocity": 110,
      "chip": "ym2612"
    },
    {
      "channel": 2,
      "note": 45,
      "start": 29.0357,
      "duration": 0.1549,
      "velocity": 117,
      "chip": "ym2612"
    },
    {
      "channel": 1,
      "note": 49,
      "start": 29.1945,
      "duration": 0.1623,
      "velocity": 94,
      "chip": "ym2612"
    },
    {
      "channel": 2,
      "note": 64,
      "start": 29.1965,
      "duration": 0.1566,
      "velocity": 127,
      "chip": "ym2612"
    },
    {
      "channel": 0,
      "note": 81,
      "start": 29.3566,
      "duration": 0.1618,
      "velocity": 97,
      "chip": "ym2612"
    },
    {
      "channel": 1,
      "note": 49,
      "start": 29.3574,
      "duration": 0.162,
      "velocity": 94,
      "chip": "ym2612"
    },
    {
      "channel": 2,
      "note": 63,
      "start": 29.3594,
      "duration": 0.1562,
      "velocity": 120,
      "chip": "ym2612"
    },
    {
      "channel": 0,
      "note": 80,
      "start": 29.5191,
      "duration": 0.3243,
      "velocity": 97,
      "chip": "ym2612"
    },
    {
      "channel": 1,
      "note": 49,
      "start": 29.5199,
      "duration": 0.1614,
      "velocity": 94,
      "chip": "ym2612"
    },
    {
      "channel": 3,
      "note": 71,
      "start": 29.5207,
      "duration": 0.6673,
      "velocity": 110,
      "chip": "ym2612"
    },
    {
      "channel": 4,
      "note": 68,
      "start": 29.5214,
      "duration": 0.667,
      "velocity": 110,
      "chip": "ym2612"
    },
    {
      "channel": 5,
      "note": 64,
      "start": 29.5221,
      "duration": 0.6665,
      "velocity": 110,
      "chip": "ym2612"
    },
    {
      "channel": 2,
      "note": 64,
      "start": 29.5232,
      "duration": 0.155,
      "velocity": 127,
      "chip": "ym2612"
    },
    {
      "channel": 1,
      "note": 49,
      "start": 29.6819,
      "duration": 0.1624,
      "velocity": 94,
      "chip": "ym2612"
    },
    {
      "channel": 2,
      "note": 45,
      "start": 29.6841,
      "duration": 0.1564,
      "velocity": 117,
      "chip": "ym2612"
    },
    {
      "channel": 0,
      "note": 81,
      "start": 29.8441,
      "duration": 0.1619,
      "velocity": 97,
      "chip": "ym2612"
    },
    {
      "channel": 1,
      "note": 49,
      "start": 29.8449,
      "duration": 0.162,
      "velocity": 94,
      "chip": "ym2612"
    },
    {
      "channel": 2,
      "note": 64,
      "start": 29.8469,
      "duration": 0.1563,
      "velocity": 127,
      "chip": "ym2612"
    },
    {
      "channel": 0,
      "note": 80,
      "start": 30.0067,
      "duration": 0.1797,
      "velocity": 97,
      "chip": "ym2612"
    },
    {
      "channel": 1,
      "note": 49,
      "start": 30.0074,
      "duration": 0.1798,
      "velocity": 94,
      "chip": "ym2612"
    },
    {
      "channel": 2,
      "note": 63,
      "start": 30.0095,
      "duration": 0.1741,
      "velocity": 120,
      "chip": "ym2612"
    },
    {
      "channel": 0,
      "note": 73,
      "start": 30.1871,
      "duration": 0.8119,
      "velocity": 97,
      "chip": "ym2612"
    },
    {
      "channel": 1,
      "note": 49,
      "start": 30.1878,
      "duration": 0.1619,
      "velocity": 94,
      "chip": "ym2612"
    },
    {
      "channel": 2,
      "note": 64,
      "start": 30.1898,
      "duration": 0.1565,
      "velocity": 127,
      "chip": "ym2612"
    },
    {
      "channel": 1,
      "note": 50,
      "start": 30.3503,
      "duration": 0.1617,
      "velocity": 94,
      "chip": "ym2612"
    },
    {
      "channel": 3,
      "note": 69,
      "start": 30.3511,
      "duration": 0.3241,
      "velocity": 110,
      "chip": "ym2612"
    },
    {
      "channel": 4,
      "note": 66,
      "start": 30.3518,
      "duration": 0.4867,
      "velocity": 110,
      "chip": "ym2612"
    },
    {
      "channel": 5,
      "note": 62,
      "start": 30.3525,
      "duration": 0.4867,
      "velocity": 110,
      "chip": "ym2612"
    },
    {
      "channel": 2,
      "note": 45,
      "start": 30.3538,
      "duration": 0.155,
      "velocity": 117,
      "chip": "ym2612"
    },
    {
      "channel": 1,
      "note": 50,
      "start": 30.5126,
      "duration": 0.1619,
      "velocity": 94,
      "chip": "ym2612"
    },
    {
      "channel": 2,
      "note": 64,
      "start": 30.5147,
      "duration": 0.1566,
      "velocity": 127,
      "chip": "ym2612"
    },
    {
      "channel": 1,
      "note": 50,
      "start": 30.6751,
      "duration": 0.162,
      "velocity": 94,
      "chip": "ym2612"
    },
    {
      "channel": 2,
      "note": 63,
      "start": 30.6771,
      "duration": 0.1567,
      "velocity": 120,
      "chip": "ym2612"
    },
    {
      "channel": 1,
      "note": 50,
      "start": 30.8376,
      "duration": 0.1618,
      "velocity": 94,
      "chip": "ym2612"
    },
    {
      "channel": 3,
      "note": 69,
      "start": 30.8383,
      "duration": 0.6679,
      "velocity": 110,
      "chip": "ym2612"
    },
    {
      "channel": 4,
      "note": 66,
      "start": 30.8391,
      "duration": 0.6675,
      "velocity": 110,
      "chip": "ym2612"
    },
    {
      "channel": 5,
      "note": 62,
      "start": 30.8399,
      "duration": 0.6671,
      "velocity": 110,
      "chip": "ym2612"
    },
    {
      "channel": 2,
      "note": 64,
      "start": 30.8408,
      "duration": 0.1554,
      "velocity": 127,
      "chip": "ym2612"
    },
    {
      "channel": 1,
      "note": 50,
      "start": 31.0,
      "duration": 0.1625,
      "velocity": 94,
      "chip": "ym2612"
    },
    {
      "channel": 2,
      "note": 45,
      "start": 31.0023,
      "duration": 0.1566,
      "velocity": 117,
      "chip": "ym2612"
    },
    {
      "channel": 0,
      "note": 73,
      "start": 31.1624,
      "duration": 0.1798,
      "velocity": 97,
      "chip": "ym2612"
    },
    {
      "channel": 1,
      "note": 50,
      "start": 31.1631,
      "duration": 0.1799,
      "velocity": 94,
      "chip": "ym2612"
    },
    {
      "channel": 2,
      "note": 64,
      "start": 31.1652,
      "duration": 0.1741,
      "velocity": 127,
      "chip": "ym2612"
    },
    {
      "channel": 0,
      "note": 76,
      "start": 31.3429,
      "duration": 0.1618,
      "velocity": 97,
      "chip": "ym2612"
    },
    {
      "channel": 1,
      "note": 50,
      "start": 31.3436,
      "duration": 0.162,
      "velocity": 94,
      "chip": "ym2612"
    },
    {
      "channel": 2,
      "note": 63,
      "start": 31.3457,
      "duration": 0.1562,
      "velocity": 120,
      "chip": "ym2612"
    },
    {
      "channel": 0,
      "note": 80,
      "start": 31.5054,
      "duration": 0.162,
      "velocity": 97,
      "chip": "ym2612"
    },
    {
      "channel": 1,
      "note": 50,
      "start": 31.5061,
      "duration": 0.1621,
      "velocity": 94,
      "chip": "ym2612"
    },
    {
      "channel": 2,
      "note": 64,
      "start": 31.5081,
      "duration": 0.1565,
      "velocity": 127,
      "chip": "ym2612"
    },
    {
      "channel": 0,
      "note": 83,
      "start": 31.6681,
      "duration": 0.3242,
      "velocity": 97,
      "chip": "ym2612"
    },
    {
      "channel": 1,
      "note": 52,
      "start": 31.6688,
      "duration": 0.1613,
      "velocity": 94,
      "chip": "ym2612"
    },
    {
      "channel": 3,
      "note": 68,
      "start": 31.6695,
      "duration": 0.3244,
      "velocity": 110,
      "chip": "ym2612"
    },
    {
      "channel": 4,
      "note": 64,
      "start": 31.6703,
      "duration": 0.4868,
      "velocity": 110,
      "chip": "ym2612"
    },
    {
      "channel": 5,
      "note": 61,
      "start": 31.671,
      "duration": 0.4868,
      "velocity": 110,
      "chip": "ym2612"
    },
    {
      "channel": 2,
      "note": 45,
      "start": 31.6723,
      "duration": 0.1547,
      "velocity": 117,
      "chip": "ym2612"
    },
    {
      "channel": 1,
      "note": 52,
      "start": 31.8307,
      "duration": 0.1624,
      "velocity": 94,
      "chip": "ym2612"
    },
    {
      "channel": 2,
      "note": 64,
      "start": 31.8328,
      "duration": 0.1567,
      "velocity": 127,
      "chip": "ym2612"
    },
    {
      "channel": 0,
      "note": 81,
      "start": 31.993,
      "duration": 0.1618,
      "velocity": 97,
      "chip": "ym2612"
    },
    {
      "channel": 1,
      "note": 52,
      "start": 31.9937,
      "duration": 0.1619,
      "velocity": 94,
      "chip": "ym2612"
    },
    {
      "channel": 2,
      "note": 63,
      "start": 31.9957,
      "duration": 0.1562,
      "velocity": 120,
      "chip": "ym2612"
    },
    {
      "channel": 0,
      "note": 80,
      "start": 32.1555,
      "duration": 0.3424,
      "velocity": 97,
      "chip": "ym2612"
    },
    {
      "channel": 1,
      "note": 52,
      "start": 32.1562,
      "duration": 0.1615,
      "velocity": 94,
      "chip": "ym2612"
    },
    {
      "channel": 3,
      "note": 68,
      "start": 32.1569,
      "duration": 0.6672,
      "velocity": 110,
      "chip": "ym2612"
    },
    {
      "channel": 4,
      "note": 64,
      "start": 32.1577,
      "duration": 0.6668,
      "velocity": 110,
      "chip": "ym2612"
    },
    {
      "channel": 5,
      "note": 61,
      "start": 32.1585,
      "duration": 0.6663,
      "velocity": 110,
      "chip": "ym2612"
    },
    {
      "channel": 2,
      "note": 64,
      "start": 32.1595,
      "duration": 0.155,
      "velocity": 127,
      "chip": "ym2612"
    },
    {
      "channel": 1,
      "note": 52,
      "start": 32.3183,
      "duration": 0.1805,
      "velocity": 94,
      "chip": "ym2612"
    },
    {
      "channel": 2,
      "note": 45,
      "start": 32.3205,
      "duration": 0.1746,
      "velocity": 117,
      "chip": "ym2612"
    },
    {
      "channel": 0,
      "note": 81,
      "start": 32.4986,
      "duration": 0.812,
      "velocity": 97,
      "chip": "ym2612"
    },
    {
      "channel": 1,
      "note": 52,
      "start": 32.4993,
      "duration": 0.1615,
      "velocity": 94,
      "chip": "ym2612"
    },
    {
      "channel": 2,
      "note": 64,
      "start": 32.5014,
      "duration": 0.1562,
      "velocity": 127,
      "chip": "ym2612"
    },
    {
      "channel": 1,
      "note": 52,
      "start": 32.6614,
      "duration": 0.162,
      "velocity": 94,
      "chip": "ym2612"
    },
    {
      "channel": 2,
      "note": 63,
      "start": 32.6635,
      "duration": 0.1566,
      "velocity": 120,
      "chip": "ym2612"
    },
    {
      "channel": 1,
      "note": 52,
      "start": 32.824,
      "duration": 0.1622,
      "velocity": 94,
      "chip": "ym2612"
    },
    {
      "channel": 2,
      "note": 64,
      "start": 32.826,
      "duration": 0.1567,
      "velocity": 127,
      "chip": "ym2612"
    },
    {
      "channel": 1,
      "note": 54,
      "start": 32.9867,
      "duration": 0.1617,
      "velocity": 94,
      "chip": "ym2612"
    },
    {
      "channel": 3,
      "note": 73,
      "start": 32.9875,
      "duration": 0.3241,
      "velocity": 110,
      "chip": "ym2612"
    },
    {
      "channel": 4,
      "note": 69,
      "start": 32.9882,
      "duration": 0.4871,
      "velocity": 110,
      "chip": "ym2612"
    },
    {
      "channel": 5,
      "note": 66,
      "start": 32.9889,
      "duration": 0.4872,
      "velocity": 110,
      "chip": "ym2612"
    },
    {
      "channel": 2,
      "note": 45,
      "start": 32.9902,
      "duration": 0.1549,
      "velocity": 117,
      "chip": "ym2612"
    },
    {
      "channel": 1,
      "note": 54,
      "start": 33.1489,
      "duration": 0.162,
      "velocity": 94,
      "chip": "ym2612"
    },
    {
      "channel": 2,
      "note": 64,
      "start": 33.151,
      "duration": 0.1567,
      "velocity": 127,
      "chip": "ym2612"
    },
    {
      "channel": 1,
      "note": 54,
      "start": 33.3115,
      "duration": 0.1624,
      "velocity": 94,
      "chip": "ym2612"
    },
    {
      "channel": 2,
      "note": 63,
      "start": 33.3135,
      "duration": 0.1567,
      "velocity": 120,
      "chip": "ym2612"
    },
    {
      "channel": 0,
      "note": 78,
      "start": 33.4737,
      "duration": 0.1798,
      "velocity": 97,
      "chip": "ym2612"
    },
    {
      "channel": 1,
      "note": 54,
      "start": 33.4744,
      "duration": 0.18,
      "velocity": 94,
      "chip": "ym2612"
    },
    {
      "channel": 3,
      "note": 73,
      "start": 33.4752,
      "duration": 0.6676,
      "velocity": 110,
      "chip": "ym2612"
    },
    {
      "channel": 4,
      "note": 69,
      "start": 33.4759,
      "duration": 0.6671,
      "velocity": 110,
      "chip": "ym2612"
    },
    {
      "channel": 5,
      "note": 66,
      "start": 33.4767,
      "duration": 0.6667,
      "velocity": 110,
      "chip": "ym2612"
    },
    {
      "channel": 2,
      "note": 64,
      "start": 33.4777,
      "duration": 0.173,
      "velocity": 127,
      "chip": "ym2612"
    },
    {
      "channel": 0,
      "note": 81,
      "start": 33.6543,
      "duration": 0.1048,
      "velocity": 97,
      "chip": "ym2612"
    },
    {
      "channel": 1,
      "note": 54,
      "start": 33.655,
      "duration": 0.1619,
      "velocity": 94,
      "chip": "ym2612"
    },
    {
      "channel": 2,
      "note": 45,
      "start": 33.6573,
      "duration": 0.156,
      "velocity": 117,
      "chip": "ym2612"
    },
    {
      "channel": 0,
      "note": 81,
      "start": 33.8167,
      "duration": 0.1229,
      "velocity": 97,
      "chip": "ym2612"
    },
    {
      "channel": 1,
      "note": 54,
      "start": 33.8174,
      "duration": 0.162,
      "velocity": 94,
      "chip": "ym2612"
    },
    {
      "channel": 2,
      "note": 64,
      "start": 33.8195,
      "duration": 0.1563,
      "velocity": 127,
      "chip": "ym2612"
    },
    {
      "channel": 0,
      "note": 85,
      "start": 33.9793,
      "duration": 0.1618,
      "velocity": 97,
      "chip": "ym2612"
    },
    {
      "channel": 1,
      "note": 54,
      "start": 33.98,
      "duration": 0.162,
      "velocity": 94,
      "chip": "ym2612"
    },
    {
      "channel": 2,
      "note": 63,
      "start": 33.9821,
      "duration": 0.1562,
      "velocity": 120,
      "chip": "ym2612"
    },
    {
      "channel": 0,
      "note": 83,
      "start": 34.1419,
      "duration": 0.4868,
      "velocity": 97,
      "chip": "ym2612"
    },
    {
      "channel": 1,
      "note": 54,
      "start": 34.1426,
      "duration": 0.1618,
      "velocity": 94,
      "chip": "ym2612"
    },
    {
      "channel": 2,
      "note": 64,
      "start": 34.1445,
      "duration": 0.1563,
      "velocity": 127,
      "chip": "ym2612"
    },
    {
      "channel": 1,
      "note": 49,
      "start": 34.3049,
      "duration": 0.1616,
      "velocity": 94,
      "chip": "ym2612"
    },
    {
      "channel": 3,
      "note": 71,
      "start": 34.3056,
      "duration": 0.3246,
      "velocity": 110,
      "chip": "ym2612"
    },
    {
      "channel": 4,
      "note": 68,
      "start": 34.3064,
      "duration": 0.5051,
      "velocity": 110,
      "chip": "ym2612"
    },
    {
      "channel": 5,
      "note": 64,
      "start": 34.3072,
      "duration": 0.5051,
      "velocity": 110,
      "chip": "ym2612"
    },
    {
      "channel": 2,
      "note": 45,
      "start": 34.3084,
      "duration": 0.1549,
      "velocity": 117,
      "chip": "ym2612"
    },
    {
      "channel": 1,
      "note": 49,
      "start": 34.4671,
      "duration": 0.1624,
      "velocity": 94,
      "chip": "ym2612"
    },
    {
      "channel": 2,
      "note": 64,
      "start": 34.4692,
      "duration": 0.1566,
      "velocity": 127,
      "chip": "ym2612"
    },
    {
      "channel": 0,
      "note": 81,
      "start": 34.6293,
      "duration": 0.1229,
      "velocity": 97,
      "chip": "ym2612"
    },
    {
      "channel": 1,
      "note": 49,
      "start": 34.6301,
      "duration": 0.18,
      "velocity": 94,
      "chip": "ym2612"
    },
    {
      "channel": 2,
      "note": 63,
      "start": 34.6321,
      "duration": 0.1743,
      "velocity": 120,
      "chip": "ym2612"
    },
    {
      "channel": 0,
      "note": 80,
      "start": 34.8099,
      "duration": 0.3243,
      "velocity": 97,
      "chip": "ym2612"
    },
    {
      "channel": 1,
      "note": 49,
      "start": 34.8107,
      "duration": 0.1615,
      "velocity": 94,
      "chip": "ym2612"
    },
    {
      "channel": 3,
      "note": 71,
      "start": 34.8115,
      "duration": 0.6494,
      "velocity": 110,
      "chip": "ym2612"
    },
    {
      "channel": 4,
      "note": 68,
      "start": 34.8122,
      "duration": 0.649,
      "velocity": 110,
      "chip": "ym2612"
    },
    {
      "channel": 5,
      "note": 64,
      "start": 34.8129,
      "duration": 0.6486,
      "velocity": 110,
      "chip": "ym2612"
    },
    {
      "channel": 2,
      "note": 64,
      "start": 34.8139,
      "duration": 0.155,
      "velocity": 127,
      "chip": "ym2612"
    },
    {
      "channel": 1,
      "note": 49,
      "start": 34.9727,
      "duration": 0.1624,
      "velocity": 94,
      "chip": "ym2612"
    },
    {
      "channel": 2,
      "note": 45,
      "start": 34.975,
      "duration": 0.1564,
      "velocity": 117,
      "chip": "ym2612"
    },
    {
      "channel": 0,
      "note": 76,
      "start": 35.1349,
      "duration": 0.3244,
      "velocity": 97,
      "chip": "ym2612"
    },
    {
      "channel": 1,
      "note": 49,
      "start": 35.1357,
      "duration": 0.1615,
      "velocity": 94,
      "chip": "ym2612"
    },
    {
      "channel": 2,
      "note": 64,
      "start": 35.1377,
      "duration": 0.1562,
      "velocity": 127,
      "chip": "ym2612"
    },
    {
      "channel": 1,
      "note": 49,
      "start": 35.2977,
      "duration": 0.1624,
      "velocity": 94,
      "chip": "ym2612"
    },
    {
      "channel": 2,
      "note": 63,
      "start": 35.2998,
      "duration": 0.1567,
      "velocity": 120,
      "chip": "ym2612"
    },
    {
      "channel": 0,
      "note": 88,
      "start": 35.46,
      "duration": 1.155,
      "velocity": 97,
      "chip": "ym2612"
    },
    {
      "channel": 1,
      "note": 49,
      "start": 35.4607,
      "duration": 0.1618,
      "velocity": 94,
      "chip": "ym2612"
    },
    {
      "channel": 2,
      "note": 64,
      "start": 35.4627,
      "duration": 0.1563,
      "velocity": 127,
      "chip": "ym2612"
    },
    {
      "channel": 1,
      "note": 52,
      "start": 35.6231,
      "duration": 0.1617,
      "velocity": 94,
      "chip": "ym2612"
    },
    {
      "channel": 3,
      "note": 76,
      "start": 35.6239,
      "duration": 0.3422,
      "velocity": 110,
      "chip": "ym2612"
    },
    {
      "channel": 4,
      "note": 73,
      "start": 35.6246,
      "duration": 0.5048,
      "velocity": 110,
      "chip": "ym2612"
    },
    {
      "channel": 5,
      "note": 69,
      "start": 35.6254,
      "duration": 0.5047,
      "velocity": 110,
      "chip": "ym2612"
    },
    {
      "channel": 2,
      "note": 45,
      "start": 35.6266,
      "duration": 0.1548,
      "velocity": 117,
      "chip": "ym2612"
    },
    {
      "channel": 1,
      "note": 52,
      "start": 35.7853,
      "duration": 0.1801,
      "velocity": 94,
      "chip": "ym2612"
    },
    {
      "channel": 2,
      "note": 64,
      "start": 35.7873,
      "duration": 0.1747,
      "velocity": 127,
      "chip": "ym2612"
    },
    {
      "channel": 1,
      "note": 52,
      "start": 35.966,
      "duration": 0.1619,
      "velocity": 94,
      "chip": "ym2612"
    },
    {
      "channel": 2,
      "note": 63,
      "start": 35.968,
      "duration": 0.1566,
      "velocity": 120,
      "chip": "ym2612"
    },
    {
      "channel": 1,
      "note": 52,
      "start": 36.1284,
      "duration": 0.162,
      "velocity": 94,
      "chip": "ym2612"
    },
    {
      "channel": 3,
      "note": 76,
      "start": 36.1292,
      "duration": 0.6491,
      "velocity": 110,
      "chip": "ym2612"
    },
    {
      "channel": 4,
      "note": 73,
      "start": 36.13,
      "duration": 0.6487,
      "velocity": 110,
      "chip": "ym2612"
    },
    {
      "channel": 5,
      "note": 69,
      "start": 36.1307,
      "duration": 0.6482,
      "velocity": 110,
      "chip": "ym2612"
    },
    {
      "channel": 2,
      "note": 64,
      "start": 36.1317,
      "duration": 0.1554,
      "velocity": 127,
      "chip": "ym2612"
    },
    {
      "channel": 1,
      "note": 52,
      "start": 36.291,
      "duration": 0.1618,
      "velocity": 94,
      "chip": "ym2612"
    },
    {
      "channel": 2,
      "note": 45,
      "start": 36.2933,
      "duration": 0.1562,
      "velocity": 117,
      "chip": "ym2612"
    },
    {
      "channel": 1,
      "note": 52,
      "start": 36.4534,
      "duration": 0.1619,
      "velocity": 94,
      "chip": "ym2612"
    },
    {
      "channel": 2,
      "note": 64,
      "start": 36.4554,
      "duration": 0.1568,
      "velocity": 127,
      "chip": "ym2612"
    },
    {
      "channel": 1,
      "note": 52,
      "start": 36.6158,
      "duration": 0.1617,
      "velocity": 94,
      "chip": "ym2612"
    },
    {
      "channel": 2,
      "note": 63,
      "start": 36.6179,
      "duration": 0.1567,
      "velocity": 120,
      "chip": "ym2612"
    },
    {
      "channel": 1,
      "note": 52,
      "start": 36.7782,
      "duration": 0.1627,
      "velocity": 94,
      "chip": "ym2612"
    },
    {
      "channel": 2,
      "note": 64,
      "start": 36.7802,
      "duration": 0.157,
      "velocity": 127,
      "chip": "ym2612"
    },
    {
      "channel": 0,
      "note": 88,
      "start": 36.9406,
      "duration": 0.3424,
      "velocity": 97,
      "chip": "ym2612"
    },
    {
      "channel": 1,
      "note": 52,
      "start": 36.9414,
      "duration": 0.1796,
      "velocity": 94,
      "chip": "ym2612"
    },
    {
      "channel": 3,
      "note": 76,
      "start": 36.9422,
      "duration": 0.3424,
      "velocity": 110,
      "chip": "ym2612"
    },
    {
      "channel": 4,
      "note": 73,
      "start": 36.9429,
      "duration": 0.5049,
      "velocity": 110,
      "chip": "ym2612"
    },
    {
      "channel": 5,
      "note": 69,
      "start": 36.9437,
      "duration": 0.5049,
      "velocity": 110,
      "chip": "ym2612"
    },
    {
      "channel": 2,
      "note": 45,
      "start": 36.9449,
      "duration": 0.1728,
      "velocity": 117,
      "chip": "ym2612"
    },
    {
      "channel": 1,
      "note": 52,
      "start": 37.1216,
      "duration": 0.1622,
      "velocity": 94,
      "chip": "ym2612"
    },
    {
      "channel": 2,
      "note": 64,
      "start": 37.1237,
      "duration": 0.1565,
      "velocity": 127,
      "chip": "ym2612"
    },
    {
      "channel": 0,
      "note": 86,
      "start": 37.2837,
      "duration": 0.1618,
      "velocity": 97,
      "chip": "ym2612"
    },
    {
      "channel": 1,
      "note": 52,
      "start": 37.2844,
      "duration": 0.162,
      "velocity": 94,
      "chip": "ym2612"
    },
    {
      "channel": 2,
      "note": 63,
      "start": 37.2864,
      "duration": 0.1562,
      "velocity": 120,
      "chip": "ym2612"
    },
    {
      "channel": 0,
      "note": 85,
      "start": 37.4462,
      "duration": 0.3248,
      "velocity": 97,
      "chip": "ym2612"
    },
    {
      "channel": 1,
      "note": 52,
      "start": 37.4469,
      "duration": 0.1617,
      "velocity": 94,
      "chip": "ym2612"
    },
    {
      "channel": 3,
      "note": 76,
      "start": 37.4477,
      "duration": 0.6495,
      "velocity": 110,
      "chip": "ym2612"
    },
    {
      "channel": 4,
      "note": 73,
      "start": 37.4485,
      "duration": 0.6491,
      "velocity": 110,
      "chip": "ym2612"
    },
    {
      "channel": 5,
      "note": 69,
      "start": 37.4492,
      "duration": 0.6487,
      "velocity": 110,
      "chip": "ym2612"
    },
    {
      "channel": 2,
      "note": 64,
      "start": 37.4502,
      "duration": 0.1551,
      "velocity": 127,
      "chip": "ym2612"
    },
    {
      "channel": 1,
      "note": 52,
      "start": 37.6092,
      "duration": 0.1626,
      "velocity": 94,
      "chip": "ym2612"
    },
    {
      "channel": 2,
      "note": 64,
      "start": 37.6112,
      "duration": 0.1569,
      "velocity": 127,
      "chip": "ym2612"
    },
    {
      "channel": 0,
      "note": 86,
      "start": 37.7716,
      "duration": 0.5055,
      "velocity": 97,
      "chip": "ym2612"
    },
    {
      "channel": 1,
      "note": 52,
      "start": 37.7723,
      "duration": 0.1616,
      "velocity": 94,
      "chip": "ym2612"
    },
    {
      "channel": 2,
      "note": 63,
      "start": 37.7744,
      "duration": 0.1563,
      "velocity": 120,
      "chip": "ym2612"
    },
    {
      "channel": 1,
      "note": 52,
      "start": 37.9345,
      "duration": 0.162,
      "velocity": 94,
      "chip": "ym2612"
    },
    {
      "channel": 2,
      "note": 64,
      "start": 37.9366,
      "duration": 0.1567,
      "velocity": 127,
      "chip": "ym2612"
    },
    {
      "channel": 1,
      "note": 52,
      "start": 38.0971,
      "duration": 0.181,
      "velocity": 94,
      "chip": "ym2612"
    },
    {
      "channel": 2,
      "note": 63,
      "start": 38.099,
      "duration": 0.1753,
      "velocity": 120,
      "chip": "ym2612"
    },
    {
      "channel": 0,
      "note": 85,
      "start": 38.2779,
      "duration": 0.4859,
      "velocity": 97,
      "chip": "ym2612"
    },
    {
      "channel": 1,
      "note": 52,
      "start": 38.2787,
      "duration": 0.4859,
      "velocity": 94,
      "chip": "ym2612"
    },
    {
      "channel": 2,
      "note": 63,
      "start": 38.2809,
      "duration": 0.155,
      "velocity": 120,
      "chip": "ym2612"
    },
    {
      "channel": 2,
      "note": 44,
      "start": 38.4405,
      "duration": 0.1579,
      "velocity": 100,
      "chip": "ym2612"
    },
    {
      "channel": 2,
      "note": 44,
      "start": 38.603,
      "duration": 0.1579,
      "velocity": 100,
      "chip": "ym2612"
    },
    {
      "channel": 0,
      "note": 83,
      "start": 38.7644,
      "duration": 0.8301,
      "velocity": 97,
      "chip": "ym2612"
    },
    {
      "channel": 1,
      "note": 52,
      "start": 38.7651,
      "duration": 0.8297,
      "velocity": 94,
      "chip": "ym2612"
    },
    {
      "channel": 3,
      "note": 71,
      "start": 38.7659,
      "duration": 1.3176,
      "velocity": 110,
      "chip": "ym2612"
    },
    {
      "channel": 4,
      "note": 68,
      "start": 38.7667,
      "duration": 1.3172,
      "velocity": 110,
      "chip": "ym2612"
    },
    {
      "channel": 5,
      "note": 64,
      "start": 38.7674,
      "duration": 1.317,
      "velocity": 110,
      "chip": "ym2612"
    },
    {
      "channel": 2,
      "note": 63,
      "start": 38.7684,
      "duration": 0.1551,
      "velocity": 120,
      "chip": "ym2612"
    },
    {
      "channel": 2,
      "note": 45,
      "start": 38.9292,
      "duration": 0.0849,
      "velocity": 117,
      "chip": "ym2612"
    },
    {
      "channel": 2,
      "note": 63,
      "start": 39.0197,
      "duration": 0.0306,
      "velocity": 120,
      "chip": "ym2612"
    },
    {
      "channel": 2,
      "note": 63,
      "start": 39.0559,
      "duration": 0.0305,
      "velocity": 120,
      "chip": "ym2612"
    },
    {
      "channel": 2,
      "note": 63,
      "start": 39.092,
      "duration": 0.1569,
      "velocity": 120,
      "chip": "ym2612"
    },
    {
      "channel": 2,
      "note": 44,
      "start": 39.2543,
      "duration": 0.1751,
      "velocity": 100,
      "chip": "ym2612"
    },
    {
      "channel": 2,
      "note": 64,
      "start": 39.4349,
      "duration": 0.1568,
      "velocity": 127,
      "chip": "ym2612"
    },
    {
      "channel": 2,
      "note": 45,
      "start": 39.5973,
      "duration": 0.1569,
      "velocity": 117,
      "chip": "ym2612"
    },
    {
      "channel": 2,
      "note": 64,
      "start": 39.759,
      "duration": 0.1576,
      "velocity": 127,
      "chip": "ym2612"
    },
    {
      "channel": 2,
      "note": 64,
      "start": 39.9216,
      "duration": 0.1576,
      "velocity": 127,
      "chip": "ym2612"
    },
    {
      "channel": 0,
      "note": 85,
      "start": 40.0826,
      "duration": 0.1229,
      "velocity": 97,
      "chip": "ym2612"
    },
    {
      "channel": 1,
      "note": 54,
      "start": 40.0833,
      "duration": 0.162,
      "velocity": 94,
      "chip": "ym2612"
    },
    {
      "channel": 4,
      "note": 68,
      "start": 40.0843,
      "duration": 0.8302,
      "velocity": 110,
      "chip": "ym2612"
    },
    {
      "channel": 5,
      "note": 64,
      "start": 40.0849,
      "duration": 0.83,
      "velocity": 110,
      "chip": "ym2612"
    },
    {
      "channel": 2,
      "note": 64,
      "start": 40.0859,
      "duration": 0.1558,
      "velocity": 127,
      "chip": "ym2612"
    },
    {
      "channel": 0,
      "note": 85,
      "start": 40.2452,
      "duration": 0.1618,
      "velocity": 97,
      "chip": "ym2612"
    },
    {
      "channel": 1,
      "note": 54,
      "start": 40.2459,
      "duration": 0.1619,
      "velocity": 94,
      "chip": "ym2612"
    },
    {
      "channel": 2,
      "note": 45,
      "start": 40.2488,
      "duration": 0.1554,
      "velocity": 117,
      "chip": "ym2612"
    },
    {
      "channel": 0,
      "note": 83,
      "start": 40.4077,
      "duration": 0.3428,
      "velocity": 97,
      "chip": "ym2612"
    },
    {
      "channel": 1,
      "note": 52,
      "start": 40.4085,
      "duration": 0.505,
      "velocity": 94,
      "chip": "ym2612"
    },
    {
      "channel": 2,
      "note": 45,
      "start": 40.4107,
      "duration": 0.1743,
      "velocity": 117,
      "chip": "ym2612"
    },
    {
      "channel": 2,
      "note": 44,
      "start": 40.5905,
      "duration": 0.1571,
      "velocity": 100,
      "chip": "ym2612"
    },
    {
      "channel": 2,
      "note": 64,
      "start": 40.753,
      "duration": 0.1568,
      "velocity": 127,
      "chip": "ym2612"
    },
    {
      "channel": 0,
      "note": 83,
      "start": 40.9133,
      "duration": 0.4868,
      "velocity": 97,
      "chip": "ym2612"
    },
    {
      "channel": 1,
      "note": 52,
      "start": 40.9141,
      "duration": 0.487,
      "velocity": 94,
      "chip": "ym2612"
    },
    {
      "channel": 2,
      "note": 45,
      "start": 40.9163,
      "duration": 0.156,
      "velocity": 117,
      "chip": "ym2612"
    },
    {
      "channel": 2,
      "note": 64,
      "start": 41.077,
      "duration": 0.1578,
      "velocity": 127,
      "chip": "ym2612"
    },
    {
      "channel": 2,
      "note": 64,
      "start": 41.2394,
      "duration": 0.1579,
      "velocity": 127,
      "chip": "ym2612"
    },
    {
      "channel": 0,
      "note": 81,
      "start": 41.4008,
      "duration": 0.83,
      "velocity": 97,
      "chip": "ym2612"
    },
    {
      "channel": 1,
      "note": 50,
      "start": 41.4016,
      "duration": 0.8296,
      "velocity": 94,
      "chip": "ym2612"
    },
    {
      "channel": 3,
      "note": 69,
      "start": 41.4024,
      "duration": 1.3176,
      "velocity": 110,
      "chip": "ym2612"
    },
    {
      "channel": 4,
      "note": 66,
      "start": 41.4031,
      "duration": 1.3171,
      "velocity": 110,
      "chip": "ym2612"
    },
    {
      "channel": 5,
      "note": 62,
      "start": 41.4038,
      "duration": 1.317,
      "velocity": 110,
      "chip": "ym2612"
    },
    {
      "channel": 2,
      "note": 64,
      "start": 41.4048,
      "duration": 0.155,
      "velocity": 127,
      "chip": "ym2612"
    },
    {
      "channel": 2,
      "note": 45,
      "start": 41.5655,
      "duration": 0.1749,
      "velocity": 117,
      "chip": "ym2612"
    },
    {
      "channel": 2,
      "note": 45,
      "start": 41.7462,
      "duration": 0.1571,
      "velocity": 117,
      "chip": "ym2612"
    },
    {
      "channel": 2,
      "note": 44,
      "start": 41.9088,
      "duration": 0.1571,
      "velocity": 100,
      "chip": "ym2612"
    },
    {
      "channel": 2,
      "note": 64,
      "start": 42.0715,
      "duration": 0.1566,
      "velocity": 127,
      "chip": "ym2612"
    },
    {
      "channel": 2,
      "note": 45,
      "start": 42.2337,
      "duration": 0.1568,
      "velocity": 117,
      "chip": "ym2612"
    },
    {
      "channel": 2,
      "note": 64,
      "start": 42.3954,
      "duration": 0.1576,
      "velocity": 127,
      "chip": "ym2612"
    },
    {
      "channel": 2,
      "note": 64,
      "start": 42.5578,
      "duration": 0.1577,
      "velocity": 127,
      "chip": "ym2612"
    },
    {
      "channel": 0,
      "note": 83,
      "start": 42.719,
      "duration": 0.1798,
      "velocity": 97,
      "chip": "ym2612"
    },
    {
      "channel": 1,
      "note": 52,
      "start": 42.7197,
      "duration": 0.18,
      "velocity": 94,
      "chip": "ym2612"
    },
    {
      "channel": 4,
      "note": 66,
      "start": 42.7207,
      "duration": 0.8301,
      "velocity": 110,
      "chip": "ym2612"
    },
    {
      "channel": 5,
      "note": 62,
      "start": 42.7212,
      "duration": 0.8303,
      "velocity": 110,
      "chip": "ym2612"
    },
    {
      "channel": 2,
      "note": 64,
      "start": 42.7223,
      "duration": 0.1738,
      "velocity": 127,
      "chip": "ym2612"
    },
    {
      "channel": 0,
      "note": 81,
      "start": 42.8995,
      "duration": 0.1619,
      "velocity": 97,
      "chip": "ym2612"
    },
    {
      "channel": 1,
      "note": 52,
      "start": 42.9002,
      "duration": 0.162,
      "velocity": 94,
      "chip": "ym2612"
    },
    {
      "channel": 2,
      "note": 45,
      "start": 42.9031,
      "duration": 0.1555,
      "velocity": 117,
      "chip": "ym2612"
    },
    {
      "channel": 0,
      "note": 80,
      "start": 43.0622,
      "duration": 0.1621,
      "velocity": 97,
      "chip": "ym2612"
    },
    {
      "channel": 1,
      "note": 50,
      "start": 43.0628,
      "duration": 0.4865,
      "velocity": 94,
      "chip": "ym2612"
    },
    {
      "channel": 2,
      "note": 45,
      "start": 43.0651,
      "duration": 0.1563,
      "velocity": 117,
      "chip": "ym2612"
    },
    {
      "channel": 0,
      "note": 76,
      "start": 43.2249,
      "duration": 0.324,
      "velocity": 97,
      "chip": "ym2612"
    },
    {
      "channel": 2,
      "note": 44,
      "start": 43.2273,
      "duration": 0.1567,
      "velocity": 100,
      "chip": "ym2612"
    },
    {
      "channel": 2,
      "note": 64,
      "start": 43.3894,
      "duration": 0.1567,
      "velocity": 127,
      "chip": "ym2612"
    },
    {
      "channel": 1,
      "note": 49,
      "start": 43.5499,
      "duration": 0.6679,
      "velocity": 94,
      "chip": "ym2612"
    },
    {
      "channel": 3,
      "note": 68,
      "start": 43.5506,
      "duration": 0.6679,
      "velocity": 110,
      "chip": "ym2612"
    },
    {
      "channel": 4,
      "note": 64,
      "start": 43.5514,
      "duration": 0.6679,
      "velocity": 110,
      "chip": "ym2612"
    },
    {
      "channel": 5,
      "note": 61,
      "start": 43.5522,
      "duration": 0.6679,
      "velocity": 110,
      "chip": "ym2612"
    },
    {
      "channel": 2,
      "note": 45,
      "start": 43.5534,
      "duration": 0.1553,
      "velocity": 117,
      "chip": "ym2612"
    },
    {
      "channel": 0,
      "note": 73,
      "start": 43.7122,
      "duration": 0.1621,
      "velocity": 97,
      "chip": "ym2612"
    },
    {
      "channel": 2,
      "note": 45,
      "start": 43.7148,
      "duration": 0.1567,
      "velocity": 117,
      "chip": "ym2612"
    },
    {
      "channel": 0,
      "note": 80,
      "start": 43.875,
      "duration": 0.1799,
      "velocity": 97,
      "chip": "ym2612"
    },
    {
      "channel": 2,
      "note": 44,
      "start": 43.8773,
      "duration": 0.1747,
      "velocity": 100,
      "chip": "ym2612"
    },
    {
      "channel": 0,
      "note": 76,
      "start": 44.0556,
      "duration": 0.1614,
      "velocity": 97,
      "chip": "ym2612"
    },
    {
      "channel": 2,
      "note": 64,
      "start": 44.058,
      "duration": 0.1562,
      "velocity": 127,
      "chip": "ym2612"
    },
    {
      "channel": 0,
      "note": 78,
      "start": 44.2177,
      "duration": 0.1618,
      "velocity": 97,
      "chip": "ym2612"
    },
    {
      "channel": 1,
      "note": 50,
      "start": 44.2184,
      "duration": 0.6493,
      "velocity": 94,
      "chip": "ym2612"
    },
    {
      "channel": 3,
      "note": 69,
      "start": 44.2191,
      "duration": 0.6494,
      "velocity": 110,
      "chip": "ym2612"
    },
    {
      "channel": 4,
      "note": 66,
      "start": 44.2199,
      "duration": 0.6494,
      "velocity": 110,
      "chip": "ym2612"
    },
    {
      "channel": 5,
      "note": 62,
      "start": 44.2207,
      "duration": 0.6493,
      "velocity": 110,
      "chip": "ym2612"
    },
    {
      "channel": 2,
      "note": 45,
      "start": 44.2219,
      "duration": 0.1548,
      "velocity": 117,
      "chip": "ym2612"
    },
    {
      "channel": 0,
      "note": 81,
      "start": 44.3802,
      "duration": 0.1623,
      "velocity": 97,
      "chip": "ym2612"
    },
    {
      "channel": 2,
      "note": 45,
      "start": 44.3828,
      "duration": 0.1568,
      "velocity": 117,
      "chip": "ym2612"
    },
    {
      "channel": 0,
      "note": 78,
      "start": 44.5431,
      "duration": 0.1619,
      "velocity": 97,
      "chip": "ym2612"
    },
    {
      "channel": 2,
      "note": 44,
      "start": 44.5455,
      "duration": 0.1567,
      "velocity": 100,
      "chip": "ym2612"
    },
    {
      "channel": 0,
      "note": 85,
      "start": 44.7056,
      "duration": 0.8296,
      "velocity": 97,
      "chip": "ym2612"
    },
    {
      "channel": 2,
      "note": 64,
      "start": 44.7081,
      "duration": 0.1562,
      "velocity": 127,
      "chip": "ym2612"
    },
    {
      "channel": 1,
      "note": 52,
      "start": 44.8683,
      "duration": 1.3179,
      "velocity": 94,
      "chip": "ym2612"
    },
    {
      "channel": 3,
      "note": 71,
      "start": 44.8691,
      "duration": 1.3178,
      "velocity": 110,
      "chip": "ym2612"
    },
    {
      "channel": 4,
      "note": 68,
      "start": 44.8698,
      "duration": 1.3178,
      "velocity": 110,
      "chip": "ym2612"
    },
    {
      "channel": 5,
      "note": 64,
      "start": 44.8706,
      "duration": 1.3178,
      "velocity": 110,
      "chip": "ym2612"
    },
    {
      "channel": 2,
      "note": 45,
      "start": 44.8718,
      "duration": 0.155,
      "velocity": 117,
      "chip": "ym2612"
    },
    {
      "channel": 2,
      "note": 45,
      "start": 45.0326,
      "duration": 0.1753,
      "velocity": 117,
      "chip": "ym2612"
    },
    {
      "channel": 2,
      "note": 44,
      "start": 45.2133,
      "duration": 0.1569,
      "velocity": 100,
      "chip": "ym2612"
    },
    {
      "channel": 2,
      "note": 64,
      "start": 45.3757,
      "duration": 0.1568,
      "velocity": 127,
      "chip": "ym2612"
    },
    {
      "channel": 2,
      "note": 45,
      "start": 45.538,
      "duration": 0.1569,
      "velocity": 117,
      "chip": "ym2612"
    },
    {
      "channel": 0,
      "note": 88,
      "start": 45.6984,
      "duration": 0.487,
      "velocity": 97,
      "chip": "ym2612"
    },
    {
      "channel": 2,
      "note": 45,
      "start": 45.7011,
      "duration": 0.1567,
      "velocity": 117,
      "chip": "ym2612"
    },
    {
      "channel": 2,
      "note": 44,
      "start": 45.8632,
      "duration": 0.1571,
      "velocity": 100,
      "chip": "ym2612"
    },
    {
      "channel": 2,
      "note": 64,
      "start": 46.0259,
      "duration": 0.1566,
      "velocity": 127,
      "chip": "ym2612"
    },
    {
      "channel": 0,
      "note": 85,
      "start": 46.186,
      "duration": 1.3357,
      "velocity": 97,
      "chip": "ym2612"
    },
    {
      "channel": 1,
      "note": 49,
      "start": 46.1868,
      "duration": 1.3352,
      "velocity": 94,
      "chip": "ym2612"
    },
    {
      "channel": 3,
      "note": 73,
      "start": 46.1875,
      "duration": 1.3352,
      "velocity": 110,
      "chip": "ym2612"
    },
    {
      "channel": 4,
      "note": 69,
      "start": 46.1883,
      "duration": 1.3352,
      "velocity": 110,
      "chip": "ym2612"
    },
    {
      "channel": 5,
      "note": 64,
      "start": 46.189,
      "duration": 1.3353,
      "velocity": 110,
      "chip": "ym2612"
    },
    {
      "channel": 2,
      "note": 45,
      "start": 46.1903,
      "duration": 0.1727,
      "velocity": 117,
      "chip": "ym2612"
    },
    {
      "channel": 2,
      "note": 45,
      "start": 46.3688,
      "duration": 0.1573,
      "velocity": 117,
      "chip": "ym2612"
    },
    {
      "channel": 2,
      "note": 44,
      "start": 46.5314,
      "duration": 0.1571,
      "velocity": 100,
      "chip": "ym2612"
    },
    {
      "channel": 2,
      "note": 64,
      "start": 46.6941,
      "duration": 0.1564,
      "velocity": 127,
      "chip": "ym2612"
    },
    {
      "channel": 2,
      "note": 45,
      "start": 46.8562,
      "duration": 0.1569,
      "velocity": 117,
      "chip": "ym2612"
    },
    {
      "channel": 2,
      "note": 45,
      "start": 47.0188,
      "duration": 0.1572,
      "velocity": 117,
      "chip": "ym2612"
    },
    {
      "channel": 2,
      "note": 44,
      "start": 47.1814,
      "duration": 0.1571,
      "velocity": 100,
      "chip": "ym2612"
    },
    {
      "channel": 2,
      "note": 64,
      "start": 47.3441,
      "duration": 0.1747,
      "velocity": 127,
      "chip": "ym2612"
    },
    {
      "channel": 1,
      "note": 59,
      "start": 47.5226,
      "duration": 0.487,
      "velocity": 94,
      "chip": "ym2612"
    },
    {
      "channel": 3,
      "note": 71,
      "start": 47.5233,
      "duration": 1.3236,
      "velocity": 102,
      "chip": "ym2612"
    },
    {
      "channel": 4,
      "note": 68,
      "start": 47.5241,
      "duration": 1.3266,
      "velocity": 102,
      "chip": "ym2612"
    },
    {
      "channel": 5,
      "note": 64,
      "start": 47.5248,
      "duration": 1.3296,
      "velocity": 102,
      "chip": "ym2612"
    },
    {
      "channel": 2,
      "note": 45,
      "start": 47.5261,
      "duration": 0.1551,
      "velocity": 117,
      "chip": "ym2612"
    },
    {
      "channel": 2,
      "note": 45,
      "start": 47.6866,
      "duration": 0.1575,
      "velocity": 117,
      "chip": "ym2612"
    },
    {
      "channel": 2,
      "note": 44,
      "start": 47.8492,
      "duration": 0.1575,
      "velocity": 100,
      "chip": "ym2612"
    },
    {
      "channel": 1,
      "note": 59,
      "start": 48.0102,
      "duration": 0.1615,
      "velocity": 94,
      "chip": "ym2612"
    },
    {
      "channel": 2,
      "note": 64,
      "start": 48.0123,
      "duration": 0.1566,
      "velocity": 127,
      "chip": "ym2612"
    },
    {
      "channel": 1,
      "note": 57,
      "start": 48.1723,
      "duration": 0.1618,
      "velocity": 94,
      "chip": "ym2612"
    },
    {
      "channel": 2,
      "note": 45,
      "start": 48.1746,
      "duration": 0.1566,
      "velocity": 117,
      "chip": "ym2612"
    },
    {
      "channel": 1,
      "note": 56,
      "start": 48.3347,
      "duration": 0.1623,
      "velocity": 94,
      "chip": "ym2612"
    },
    {
      "channel": 2,
      "note": 45,
      "start": 48.337,
      "duration": 0.1571,
      "velocity": 117,
      "chip": "ym2612"
    },
    {
      "channel": 1,
      "note": 52,
      "start": 48.4976,
      "duration": 0.3456,
      "velocity": 94,
      "chip": "ym2612"
    },
    {
      "channel": 2,
      "note": 44,
      "start": 48.4996,
      "duration": 0.1751,
      "velocity": 100,
      "chip": "ym2612"
    },
    {
      "channel": 2,
      "note": 64,
      "start": 48.6799,
      "duration": 0.1571,
      "velocity": 127,
      "chip": "ym2612"
    },
    {
      "channel": 0,
      "note": 78,
      "start": 48.8431,
      "duration": 1.8022,
      "velocity": 89,
      "chip": "ym2612"
    },
    {
      "channel": 1,
      "note": 54,
      "start": 48.8438,
      "duration": 0.1588,
      "velocity": 94,
      "chip": "ym2612"
    },
    {
      "channel": 3,
      "note": 78,
      "start": 48.8476,
      "duration": 0.4053,
      "velocity": 102,
      "chip": "ym2612"
    },
    {
      "channel": 4,
      "note": 73,
      "start": 48.8513,
      "duration": 0.4018,
      "velocity": 102,
      "chip": "ym2612"
    },
    {
      "channel": 5,
      "note": 69,
      "start": 48.8551,
      "duration": 0.3984,
      "velocity": 102,
      "chip": "ym2612"
    },
    {
      "channel": 2,
      "note": 45,
      "start": 48.8563,
      "duration": 0.1431,
      "velocity": 117,
      "chip": "ym2612"
    },
    {
      "channel": 1,
      "note": 54,
      "start": 49.0032,
      "duration": 0.1619,
      "velocity": 94,
      "chip": "ym2612"
    },
    {
      "channel": 2,
      "note": 64,
      "start": 49.0052,
      "duration": 0.1567,
      "velocity": 127,
      "chip": "ym2612"
    },
    {
      "channel": 1,
      "note": 54,
      "start": 49.1656,
      "duration": 0.1619,
      "velocity": 94,
      "chip": "ym2612"
    },
    {
      "channel": 2,
      "note": 63,
      "start": 49.1677,
      "duration": 0.1566,
      "velocity": 120,
      "chip": "ym2612"
    },
    {
      "channel": 1,
      "note": 54,
      "start": 49.3281,
      "duration": 0.1622,
      "velocity": 94,
      "chip": "ym2612"
    },
    {
      "channel": 3,
      "note": 78,
      "start": 49.3289,
      "duration": 0.1227,
      "velocity": 102,
      "chip": "ym2612"
    },
    {
      "channel": 4,
      "note": 73,
      "start": 49.3296,
      "duration": 0.1223,
      "velocity": 102,
      "chip": "ym2612"
    },
    {
      "channel": 5,
      "note": 69,
      "start": 49.3304,
      "duration": 0.1218,
      "velocity": 102,
      "chip": "ym2612"
    },
    {
      "channel": 2,
      "note": 64,
      "start": 49.3314,
      "duration": 0.1555,
      "velocity": 127,
      "chip": "ym2612"
    },
    {
      "channel": 1,
      "note": 54,
      "start": 49.4908,
      "duration": 0.1618,
      "velocity": 94,
      "chip": "ym2612"
    },
    {
      "channel": 2,
      "note": 45,
      "start": 49.4924,
      "duration": 0.1571,
      "velocity": 117,
      "chip": "ym2612"
    },
    {
      "channel": 1,
      "note": 54,
      "start": 49.6532,
      "duration": 0.18,
      "velocity": 94,
      "chip": "ym2612"
    },
    {
      "channel": 3,
      "note": 78,
      "start": 49.6539,
      "duration": 0.1227,
      "velocity": 102,
      "chip": "ym2612"
    },
    {
      "channel": 4,
      "note": 73,
      "start": 49.6547,
      "duration": 0.1223,
      "velocity": 102,
      "chip": "ym2612"
    },
    {
      "channel": 5,
      "note": 69,
      "start": 49.6555,
      "duration": 0.1218,
      "velocity": 102,
      "chip": "ym2612"
    },
    {
      "channel": 2,
      "note": 64,
      "start": 49.6565,
      "duration": 0.1735,
      "velocity": 127,
      "chip": "ym2612"
    },
    {
      "channel": 1,
      "note": 54,
      "start": 49.8338,
      "duration": 0.1619,
      "velocity": 94,
      "chip": "ym2612"
    },
    {
      "channel": 2,
      "note": 63,
      "start": 49.8351,
      "duration": 0.1575,
      "velocity": 120,
      "chip": "ym2612"
    },
    {
      "channel": 1,
      "note": 54,
      "start": 49.9962,
      "duration": 0.1623,
      "velocity": 94,
      "chip": "ym2612"
    },
    {
      "channel": 3,
      "note": 78,
      "start": 49.997,
      "duration": 0.1227,
      "velocity": 102,
      "chip": "ym2612"
    },
    {
      "channel": 4,
      "note": 73,
      "start": 49.9978,
      "duration": 0.1222,
      "velocity": 102,
      "chip": "ym2612"
    },
    {
      "channel": 5,
      "note": 69,
      "start": 49.9985,
      "duration": 0.1218,
      "velocity": 102,
      "chip": "ym2612"
    },
    {
      "channel": 2,
      "note": 64,
      "start": 49.9995,
      "duration": 0.1556,
      "velocity": 127,
      "chip": "ym2612"
    },
    {
      "channel": 1,
      "note": 54,
      "start": 50.1591,
      "duration": 0.1616,
      "velocity": 94,
      "chip": "ym2612"
    },
    {
      "channel": 3,
      "note": 78,
      "start": 50.1599,
      "duration": 0.4112,
      "velocity": 102,
      "chip": "ym2612"
    },
    {
      "channel": 4,
      "note": 73,
      "start": 50.1606,
      "duration": 0.4108,
      "velocity": 102,
      "chip": "ym2612"
    },
    {
      "channel": 5,
      "note": 69,
      "start": 50.1614,
      "duration": 0.4104,
      "velocity": 102,
      "chip": "ym2612"
    },
    {
      "channel": 2,
      "note": 45,
      "start": 50.1626,
      "duration": 0.155,
      "velocity": 117,
      "chip": "ym2612"
    },
    {
      "channel": 1,
      "note": 54,
      "start": 50.3213,
      "duration": 0.1619,
      "velocity": 94,
      "chip": "ym2612"
    },
    {
      "channel": 2,
      "note": 64,
      "start": 50.3234,
      "duration": 0.1566,
      "velocity": 127,
      "chip": "ym2612"
    },
    {
      "channel": 1,
      "note": 54,
      "start": 50.4838,
      "duration": 0.1619,
      "velocity": 94,
      "chip": "ym2612"
    },
    {
      "channel": 2,
      "note": 63,
      "start": 50.4859,
      "duration": 0.1567,
      "velocity": 120,
      "chip": "ym2612"
    },
    {
      "channel": 1,
      "note": 54,
      "start": 50.6462,
      "duration": 0.1625,
      "velocity": 94,
      "chip": "ym2612"
    },
    {
      "channel": 3,
      "note": 78,
      "start": 50.647,
      "duration": 0.1224,
      "velocity": 102,
      "chip": "ym2612"
    },
    {
      "channel": 4,
      "note": 73,
      "start": 50.6478,
      "duration": 0.122,
      "velocity": 102,
      "chip": "ym2612"
    },
    {
      "channel": 5,
      "note": 69,
      "start": 50.6485,
      "duration": 0.1216,
      "velocity": 102,
      "chip": "ym2612"
    },
    {
      "channel": 2,
      "note": 64,
      "start": 50.6495,
      "duration": 0.1555,
      "velocity": 127,
      "chip": "ym2612"
    },
    {
      "channel": 0,
      "note": 81,
      "start": 50.8085,
      "duration": 0.3425,
      "velocity": 89,
      "chip": "ym2612"
    },
    {
      "channel": 1,
      "note": 54,
      "start": 50.8093,
      "duration": 0.1796,
      "velocity": 94,
      "chip": "ym2612"
    },
    {
      "channel": 2,
      "note": 45,
      "start": 50.8107,
      "duration": 0.1749,
      "velocity": 117,
      "chip": "ym2612"
    },
    {
      "channel": 1,
      "note": 54,
      "start": 50.9894,
      "duration": 0.1623,
      "velocity": 94,
      "chip": "ym2612"
    },
    {
      "channel": 3,
      "note": 78,
      "start": 50.9902,
      "duration": 0.1045,
      "velocity": 102,
      "chip": "ym2612"
    },
    {
      "channel": 4,
      "note": 73,
      "start": 50.991,
      "duration": 0.1041,
      "velocity": 102,
      "chip": "ym2612"
    },
    {
      "channel": 5,
      "note": 69,
      "start": 50.9917,
      "duration": 0.1036,
      "velocity": 102,
      "chip": "ym2612"
    },
    {
      "channel": 2,
      "note": 64,
      "start": 50.9927,
      "duration": 0.1555,
      "velocity": 127,
      "chip": "ym2612"
    },
    {
      "channel": 0,
      "note": 85,
      "start": 51.1517,
      "duration": 0.1618,
      "velocity": 89,
      "chip": "ym2612"
    },
    {
      "channel": 1,
      "note": 54,
      "start": 51.1524,
      "duration": 0.1619,
      "velocity": 94,
      "chip": "ym2612"
    },
    {
      "channel": 2,
      "note": 63,
      "start": 51.1536,
      "duration": 0.1571,
      "velocity": 120,
      "chip": "ym2612"
    },
    {
      "channel": 0,
      "note": 86,
      "start": 51.3141,
      "duration": 1.4803,
      "velocity": 89,
      "chip": "ym2612"
    },
    {
      "channel": 1,
      "note": 54,
      "start": 51.3149,
      "duration": 0.1619,
      "velocity": 94,
      "chip": "ym2612"
    },
    {
      "channel": 3,
      "note": 78,
      "start": 51.3156,
      "duration": 0.1223,
      "velocity": 102,
      "chip": "ym2612"
    },
    {
      "channel": 4,
      "note": 74,
      "start": 51.3164,
      "duration": 0.1218,
      "velocity": 102,
      "chip": "ym2612"
    },
    {
      "channel": 5,
      "note": 69,
      "start": 51.3172,
      "duration": 0.1214,
      "velocity": 102,
      "chip": "ym2612"
    },
    {
      "channel": 2,
      "note": 64,
      "start": 51.3181,
      "duration": 0.1552,
      "velocity": 127,
      "chip": "ym2612"
    },
    {
      "channel": 1,
      "note": 54,
      "start": 51.4773,
      "duration": 0.1615,
      "velocity": 94,
      "chip": "ym2612"
    },
    {
      "channel": 3,
      "note": 78,
      "start": 51.4781,
      "duration": 0.4112,
      "velocity": 102,
      "chip": "ym2612"
    },
    {
      "channel": 4,
      "note": 74,
      "start": 51.4789,
      "duration": 0.4108,
      "velocity": 102,
      "chip": "ym2612"
    },
    {
      "channel": 5,
      "note": 69,
      "start": 51.4796,
      "duration": 0.4103,
      "velocity": 102,
      "chip": "ym2612"
    },
    {
      "channel": 2,
      "note": 45,
      "start": 51.4808,
      "duration": 0.1549,
      "velocity": 117,
      "chip": "ym2612"
    },
    {
      "channel": 1,
      "note": 54,
      "start": 51.6395,
      "duration": 0.1619,
      "velocity": 94,
      "chip": "ym2612"
    },
    {
      "channel": 2,
      "note": 64,
      "start": 51.6415,
      "duration": 0.1567,
      "velocity": 127,
      "chip": "ym2612"
    },
    {
      "channel": 1,
      "note": 54,
      "start": 51.802,
      "duration": 0.162,
      "velocity": 94,
      "chip": "ym2612"
    },
    {
      "channel": 2,
      "note": 63,
      "start": 51.804,
      "duration": 0.1569,
      "velocity": 120,
      "chip": "ym2612"
    },
    {
      "channel": 1,
      "note": 54,
      "start": 51.9646,
      "duration": 0.1802,
      "velocity": 94,
      "chip": "ym2612"
    },
    {
      "channel": 3,
      "note": 78,
      "start": 51.9653,
      "duration": 0.1226,
      "velocity": 102,
      "chip": "ym2612"
    },
    {
      "channel": 4,
      "note": 74,
      "start": 51.9661,
      "duration": 0.1221,
      "velocity": 102,
      "chip": "ym2612"
    },
    {
      "channel": 5,
      "note": 69,
      "start": 51.9668,
      "duration": 0.1217,
      "velocity": 102,
      "chip": "ym2612"
    },
    {
      "channel": 2,
      "note": 64,
      "start": 51.9679,
      "duration": 0.1735,
      "velocity": 127,
      "chip": "ym2612"
    },
    {
      "channel": 1,
      "note": 54,
      "start": 52.1454,
      "duration": 0.1617,
      "velocity": 94,
      "chip": "ym2612"
    },
    {
      "channel": 2,
      "note": 45,
      "start": 52.1468,
      "duration": 0.1571,
      "velocity": 117,
      "chip": "ym2612"
    },
    {
      "channel": 1,
      "note": 54,
      "start": 52.3076,
      "duration": 0.1619,
      "velocity": 94,
      "chip": "ym2612"
    },
    {
      "channel": 3,
      "note": 78,
      "start": 52.3085,
      "duration": 0.1226,
      "velocity": 102,
      "chip": "ym2612"
    },
    {
      "channel": 4,
      "note": 74,
      "start": 52.3092,
      "duration": 0.1221,
      "velocity": 102,
      "chip": "ym2612"
    },
    {
      "channel": 5,
      "note": 69,
      "start": 52.31,
      "duration": 0.1217,
      "velocity": 102,
      "chip": "ym2612"
    },
    {
      "channel": 2,
      "note": 64,
      "start": 52.3109,
      "duration": 0.1554,
      "velocity": 127,
      "chip": "ym2612"
    },
    {
      "channel": 1,
      "note": 54,
      "start": 52.4701,
      "duration": 0.162,
      "velocity": 94,
      "chip": "ym2612"
    },
    {
      "channel": 2,
      "note": 63,
      "start": 52.4714,
      "duration": 0.1576,
      "velocity": 120,
      "chip": "ym2612"
    },
    {
      "channel": 1,
      "note": 54,
      "start": 52.6327,
      "duration": 0.162,
      "velocity": 94,
      "chip": "ym2612"
    },
    {
      "channel": 3,
      "note": 78,
      "start": 52.6334,
      "duration": 0.1226,
      "velocity": 102,
      "chip": "ym2612"
    },
    {
      "channel": 4,
      "note": 74,
      "start": 52.6342,
      "duration": 0.1221,
      "velocity": 102,
      "chip": "ym2612"
    },
    {
      "channel": 5,
      "note": 69,
      "start": 52.635,
      "duration": 0.1217,
      "velocity": 102,
      "chip": "ym2612"
    },
    {
      "channel": 2,
      "note": 64,
      "start": 52.636,
      "duration": 0.1555,
      "velocity": 127,
      "chip": "ym2612"
    },
    {
      "channel": 1,
      "note": 54,
      "start": 52.7953,
      "duration": 0.1622,
      "velocity": 94,
      "chip": "ym2612"
    },
    {
      "channel": 3,
      "note": 78,
      "start": 52.7961,
      "duration": 0.4112,
      "velocity": 102,
      "chip": "ym2612"
    },
    {
      "channel": 4,
      "note": 74,
      "start": 52.7968,
      "duration": 0.4107,
      "velocity": 102,
      "chip": "ym2612"
    },
    {
      "channel": 5,
      "note": 69,
      "start": 52.7976,
      "duration": 0.4103,
      "velocity": 102,
      "chip": "ym2612"
    },
    {
      "channel": 2,
      "note": 45,
      "start": 52.7988,
      "duration": 0.1551,
      "velocity": 117,
      "chip": "ym2612"
    },
    {
      "channel": 0,
      "note": 88,
      "start": 52.9573,
      "duration": 0.162,
      "velocity": 89,
      "chip": "ym2612"
    },
    {
      "channel": 1,
      "note": 54,
      "start": 52.9581,
      "duration": 0.1615,
      "velocity": 94,
      "chip": "ym2612"
    },
    {
      "channel": 2,
      "note": 64,
      "start": 52.9601,
      "duration": 0.1563,
      "velocity": 127,
      "chip": "ym2612"
    },
    {
      "channel": 1,
      "note": 54,
      "start": 53.1202,
      "duration": 0.1805,
      "velocity": 94,
      "chip": "ym2612"
    },
    {
      "channel": 2,
      "note": 63,
      "start": 53.1223,
      "duration": 0.1749,
      "velocity": 120,
      "chip": "ym2612"
    },
    {
      "channel": 0,
      "note": 88,
      "start": 53.3006,
      "duration": 0.3242,
      "velocity": 89,
      "chip": "ym2612"
    },
    {
      "channel": 1,
      "note": 54,
      "start": 53.3013,
      "duration": 0.1615,
      "velocity": 94,
      "chip": "ym2612"
    },
    {
      "channel": 3,
      "note": 78,
      "start": 53.302,
      "duration": 0.1041,
      "velocity": 102,
      "chip": "ym2612"
    },
    {
      "channel": 4,
      "note": 74,
      "start": 53.3028,
      "duration": 0.1036,
      "velocity": 102,
      "chip": "ym2612"
    },
    {
      "channel": 5,
      "note": 69,
      "start": 53.3036,
      "duration": 0.1032,
      "velocity": 102,
      "chip": "ym2612"
    },
    {
      "channel": 2,
      "note": 64,
      "start": 53.3046,
      "duration": 0.155,
      "velocity": 127,
      "chip": "ym2612"
    },
    {
      "channel": 1,
      "note": 54,
      "start": 53.4634,
      "duration": 0.1622,
      "velocity": 94,
      "chip": "ym2612"
    },
    {
      "channel": 2,
      "note": 45,
      "start": 53.4648,
      "duration": 0.1572,
      "velocity": 117,
      "chip": "ym2612"
    },
    {
      "channel": 0,
      "note": 86,
      "start": 53.6254,
      "duration": 0.162,
      "velocity": 89,
      "chip": "ym2612"
    },
    {
      "channel": 1,
      "note": 54,
      "start": 53.6262,
      "duration": 0.162,
      "velocity": 94,
      "chip": "ym2612"
    },
    {
      "channel": 3,
      "note": 78,
      "start": 53.627,
      "duration": 0.1222,
      "velocity": 102,
      "chip": "ym2612"
    },
    {
      "channel": 4,
      "note": 74,
      "start": 53.6277,
      "duration": 0.1217,
      "velocity": 102,
      "chip": "ym2612"
    },
    {
      "channel": 5,
      "note": 69,
      "start": 53.6285,
      "duration": 0.1213,
      "velocity": 102,
      "chip": "ym2612"
    },
    {
      "channel": 2,
      "note": 64,
      "start": 53.6295,
      "duration": 0.1551,
      "velocity": 127,
      "chip": "ym2612"
    },
    {
      "channel": 0,
      "note": 85,
      "start": 53.788,
      "duration": 0.1618,
      "velocity": 89,
      "chip": "ym2612"
    },
    {
      "channel": 1,
      "note": 54,
      "start": 53.7888,
      "duration": 0.1618,
      "velocity": 94,
      "chip": "ym2612"
    },
    {
      "channel": 2,
      "note": 63,
      "start": 53.79,
      "duration": 0.1571,
      "velocity": 120,
      "chip": "ym2612"
    },
    {
      "channel": 0,
      "note": 83,
      "start": 53.9505,
      "duration": 1.9856,
      "velocity": 89,
      "chip": "ym2612"
    },
    {
      "channel": 1,
      "note": 54,
      "start": 53.9512,
      "duration": 0.1619,
      "velocity": 94,
      "chip": "ym2612"
    },
    {
      "channel": 3,
      "note": 80,
      "start": 53.952,
      "duration": 0.1223,
      "velocity": 102,
      "chip": "ym2612"
    },
    {
      "channel": 4,
      "note": 74,
      "start": 53.9527,
      "duration": 0.1218,
      "velocity": 102,
      "chip": "ym2612"
    },
    {
      "channel": 5,
      "note": 71,
      "start": 53.9535,
      "duration": 0.1214,
      "velocity": 102,
      "chip": "ym2612"
    },
    {
      "channel": 2,
      "note": 64,
      "start": 53.9545,
      "duration": 0.1552,
      "velocity": 127,
      "chip": "ym2612"
    },
    {
      "channel": 1,
      "note": 56,
      "start": 54.1137,
      "duration": 0.1616,
      "velocity": 94,
      "chip": "ym2612"
    },
    {
      "channel": 3,
      "note": 80,
      "start": 54.1144,
      "duration": 0.4112,
      "velocity": 102,
      "chip": "ym2612"
    },
    {
      "channel": 4,
      "note": 74,
      "start": 54.1152,
      "duration": 0.4107,
      "velocity": 102,
      "chip": "ym2612"
    },
    {
      "channel": 5,
      "note": 71,
      "start": 54.116,
      "duration": 0.4104,
      "velocity": 102,
      "chip": "ym2612"
    },
    {
      "channel": 2,
      "note": 45,
      "start": 54.1172,
      "duration": 0.1549,
      "velocity": 117,
      "chip": "ym2612"
    },
    {
      "channel": 1,
      "note": 56,
      "start": 54.2759,
      "duration": 0.1799,
      "velocity": 94,
      "chip": "ym2612"
    },
    {
      "channel": 2,
      "note": 64,
      "start": 54.2779,
      "duration": 0.1747,
      "velocity": 127,
      "chip": "ym2612"
    },
    {
      "channel": 1,
      "note": 56,
      "start": 54.4563,
      "duration": 0.162,
      "velocity": 94,
      "chip": "ym2612"
    },
    {
      "channel": 2,
      "note": 63,
      "start": 54.4585,
      "duration": 0.1567,
      "velocity": 120,
      "chip": "ym2612"
    },
    {
      "channel": 1,
      "note": 56,
      "start": 54.6189,
      "duration": 0.1623,
      "velocity": 94,
      "chip": "ym2612"
    },
    {
      "channel": 3,
      "note": 80,
      "start": 54.6197,
      "duration": 0.1228,
      "velocity": 102,
      "chip": "ym2612"
    },
    {
      "channel": 4,
      "note": 74,
      "start": 54.6204,
      "duration": 0.1223,
      "velocity": 102,
      "chip": "ym2612"
    },
    {
      "channel": 5,
      "note": 71,
      "start": 54.6212,
      "duration": 0.1219,
      "velocity": 102,
      "chip": "ym2612"
    },
    {
      "channel": 2,
      "note": 64,
      "start": 54.6222,
      "duration": 0.1556,
      "velocity": 127,
      "chip": "ym2612"
    },
    {
      "channel": 1,
      "note": 56,
      "start": 54.7817,
      "duration": 0.1616,
      "velocity": 94,
      "chip": "ym2612"
    },
    {
      "channel": 2,
      "note": 45,
      "start": 54.7832,
      "duration": 0.157,
      "velocity": 117,
      "chip": "ym2612"
    },
    {
      "channel": 1,
      "note": 56,
      "start": 54.9439,
      "duration": 0.162,
      "velocity": 94,
      "chip": "ym2612"
    },
    {
      "channel": 3,
      "note": 80,
      "start": 54.9447,
      "duration": 0.1227,
      "velocity": 102,
      "chip": "ym2612"
    },
    {
      "channel": 4,
      "note": 74,
      "start": 54.9455,
      "duration": 0.1223,
      "velocity": 102,
      "chip": "ym2612"
    },
    {
      "channel": 5,
      "note": 71,
      "start": 54.9462,
      "duration": 0.1219,
      "velocity": 102,
      "chip": "ym2612"
    },
    {
      "channel": 2,
      "note": 64,
      "start": 54.9473,
      "duration": 0.1555,
      "velocity": 127,
      "chip": "ym2612"
    },
    {
      "channel": 1,
      "note": 56,
      "start": 55.1065,
      "duration": 0.1619,
      "velocity": 94,
      "chip": "ym2612"
    },
    {
      "channel": 2,
      "note": 63,
      "start": 55.1078,
      "duration": 0.1574,
      "velocity": 120,
      "chip": "ym2612"
    },
    {
      "channel": 1,
      "note": 56,
      "start": 55.269,
      "duration": 0.1623,
      "velocity": 94,
      "chip": "ym2612"
    },
    {
      "channel": 3,
      "note": 80,
      "start": 55.2697,
      "duration": 0.1227,
      "velocity": 102,
      "chip": "ym2612"
    },
    {
      "channel": 4,
      "note": 74,
      "start": 55.2705,
      "duration": 0.1223,
      "velocity": 102,
      "chip": "ym2612"
    },
    {
      "channel": 5,
      "note": 71,
      "start": 55.2712,
      "duration": 0.1218,
      "velocity": 102,
      "chip": "ym2612"
    },
    {
      "channel": 2,
      "note": 64,
      "start": 55.2723,
      "duration": 0.1556,
      "velocity": 127,
      "chip": "ym2612"
    },
    {
      "channel": 1,
      "note": 56,
      "start": 55.4318,
      "duration": 0.1798,
      "velocity": 94,
      "chip": "ym2612"
    },
    {
      "channel": 3,
      "note": 80,
      "start": 55.4326,
      "duration": 0.4113,
      "velocity": 102,
      "chip": "ym2612"
    },
    {
      "channel": 4,
      "note": 74,
      "start": 55.4333,
      "duration": 0.4108,
      "velocity": 102,
      "chip": "ym2612"
    },
    {
      "channel": 5,
      "note": 71,
      "start": 55.4341,
      "duration": 0.4104,
      "velocity": 102,
      "chip": "ym2612"
    },
    {
      "channel": 2,
      "note": 45,
      "start": 55.4353,
      "duration": 0.1732,
      "velocity": 117,
      "chip": "ym2612"
    },
    {
      "channel": 1,
      "note": 56,
      "start": 55.6122,
      "duration": 0.1619,
      "velocity": 94,
      "chip": "ym2612"
    },
    {
      "channel": 2,
      "note": 64,
      "start": 55.6142,
      "duration": 0.1567,
      "velocity": 127,
      "chip": "ym2612"
    },
    {
      "channel": 1,
      "note": 56,
      "start": 55.7747,
      "duration": 0.1618,
      "velocity": 94,
      "chip": "ym2612"
    },
    {
      "channel": 2,
      "note": 63,
      "start": 55.7768,
      "duration": 0.1566,
      "velocity": 120,
      "chip": "ym2612"
    },
    {
      "channel": 1,
      "note": 56,
      "start": 55.937,
      "duration": 0.1624,
      "velocity": 94,
      "chip": "ym2612"
    },
    {
      "channel": 3,
      "note": 80,
      "start": 55.9378,
      "duration": 0.1225,
      "velocity": 102,
      "chip": "ym2612"
    },
    {
      "channel": 4,
      "note": 74,
      "start": 55.9385,
      "duration": 0.1221,
      "velocity": 102,
      "chip": "ym2612"
    },
    {
      "channel": 5,
      "note": 71,
      "start": 55.9393,
      "duration": 0.1216,
      "velocity": 102,
      "chip": "ym2612"
    },
    {
      "channel": 2,
      "note": 64,
      "start": 55.9403,
      "duration": 0.1556,
      "velocity": 127,
      "chip": "ym2612"
    },
    {
      "channel": 0,
      "note": 83,
      "start": 56.0994,
      "duration": 0.162,
      "velocity": 89,
      "chip": "ym2612"
    },
    {
      "channel": 1,
      "note": 56,
      "start": 56.1001,
      "duration": 0.162,
      "velocity": 94,
      "chip": "ym2612"
    },
    {
      "channel": 2,
      "note": 45,
      "start": 56.1015,
      "duration": 0.157,
      "velocity": 117,
      "chip": "ym2612"
    },
    {
      "channel": 0,
      "note": 81,
      "start": 56.262,
      "duration": 0.1618,
      "velocity": 89,
      "chip": "ym2612"
    },
    {
      "channel": 1,
      "note": 56,
      "start": 56.2627,
      "duration": 0.1618,
      "velocity": 94,
      "chip": "ym2612"
    },
    {
      "channel": 3,
      "note": 80,
      "start": 56.2634,
      "duration": 0.1221,
      "velocity": 102,
      "chip": "ym2612"
    },
    {
      "channel": 4,
      "note": 74,
      "start": 56.2642,
      "duration": 0.1218,
      "velocity": 102,
      "chip": "ym2612"
    },
    {
      "channel": 5,
      "note": 71,
      "start": 56.2649,
      "duration": 0.1213,
      "velocity": 102,
      "chip": "ym2612"
    },
    {
      "channel": 2,
      "note": 64,
      "start": 56.266,
      "duration": 0.155,
      "velocity": 127,
      "chip": "ym2612"
    },
    {
      "channel": 0,
      "note": 80,
      "start": 56.4244,
      "duration": 0.162,
      "velocity": 89,
      "chip": "ym2612"
    },
    {
      "channel": 1,
      "note": 56,
      "start": 56.4251,
      "duration": 0.162,
      "velocity": 94,
      "chip": "ym2612"
    },
    {
      "channel": 2,
      "note": 63,
      "start": 56.4263,
      "duration": 0.1572,
      "velocity": 120,
      "chip": "ym2612"
    },
    {
      "channel": 0,
      "note": 78,
      "start": 56.587,
      "duration": 1.4983,
      "velocity": 89,
      "chip": "ym2612"
    },
    {
      "channel": 1,
      "note": 56,
      "start": 56.5877,
      "duration": 0.1796,
      "velocity": 94,
      "chip": "ym2612"
    },
    {
      "channel": 3,
      "note": 78,
      "start": 56.5884,
      "duration": 1.4979,
      "velocity": 102,
      "chip": "ym2612"
    },
    {
      "channel": 4,
      "note": 73,
      "start": 56.5892,
      "duration": 1.4978,
      "velocity": 102,
      "chip": "ym2612"
    },
    {
      "channel": 5,
      "note": 69,
      "start": 56.59,
      "duration": 1.4978,
      "velocity": 102,
      "chip": "ym2612"
    },
    {
      "channel": 2,
      "note": 64,
      "start": 56.591,
      "duration": 0.1732,
      "velocity": 127,
      "chip": "ym2612"
    },
    {
      "channel": 1,
      "note": 54,
      "start": 56.7679,
      "duration": 0.1616,
      "velocity": 94,
      "chip": "ym2612"
    },
    {
      "channel": 2,
      "note": 45,
      "start": 56.7712,
      "duration": 0.1553,
      "velocity": 117,
      "chip": "ym2612"
    },
    {
      "channel": 1,
      "note": 54,
      "start": 56.9301,
      "duration": 0.1618,
      "velocity": 94,
      "chip": "ym2612"
    },
    {
      "channel": 2,
      "note": 64,
      "start": 56.9321,
      "duration": 0.1568,
      "velocity": 127,
      "chip": "ym2612"
    },
    {
      "channel": 1,
      "note": 54,
      "start": 57.0925,
      "duration": 0.162,
      "velocity": 94,
      "chip": "ym2612"
    },
    {
      "channel": 2,
      "note": 63,
      "start": 57.0946,
      "duration": 0.157,
      "velocity": 120,
      "chip": "ym2612"
    },
    {
      "channel": 1,
      "note": 54,
      "start": 57.2551,
      "duration": 0.1624,
      "velocity": 94,
      "chip": "ym2612"
    },
    {
      "channel": 2,
      "note": 64,
      "start": 57.2571,
      "duration": 0.157,
      "velocity": 127,
      "chip": "ym2612"
    },
    {
      "channel": 1,
      "note": 54,
      "start": 57.4181,
      "duration": 0.1617,
      "velocity": 94,
      "chip": "ym2612"
    },
    {
      "channel": 2,
      "note": 45,
      "start": 57.4204,
      "duration": 0.1562,
      "velocity": 117,
      "chip": "ym2612"
    },
    {
      "channel": 1,
      "note": 54,
      "start": 57.5803,
      "duration": 0.1619,
      "velocity": 94,
      "chip": "ym2612"
    },
    {
      "channel": 2,
      "note": 64,
      "start": 57.5824,
      "duration": 0.1566,
      "velocity": 127,
      "chip": "ym2612"
    },
    {
      "channel": 1,
      "note": 54,
      "start": 57.7428,
      "duration": 0.1801,
      "velocity": 94,
      "chip": "ym2612"
    },
    {
      "channel": 2,
      "note": 63,
      "start": 57.7449,
      "duration": 0.1749,
      "velocity": 120,
      "chip": "ym2612"
    },
    {
      "channel": 1,
      "note": 54,
      "start": 57.9235,
      "duration": 0.1621,
      "velocity": 94,
      "chip": "ym2612"
    },
    {
      "channel": 2,
      "note": 64,
      "start": 57.9256,
      "duration": 0.1567,
      "velocity": 127,
      "chip": "ym2612"
    },
    {
      "channel": 2,
      "note": 45,
      "start": 58.0892,
      "duration": 0.1555,
      "velocity": 117,
      "chip": "ym2612"
    },
    {
      "channel": 0,
      "note": 83,
      "start": 58.2481,
      "duration": 0.1624,
      "velocity": 89,
      "chip": "ym2612"
    },
    {
      "channel": 1,
      "note": 52,
      "start": 58.2488,
      "duration": 0.0685,
      "velocity": 94,
      "chip": "ym2612"
    },
    {
      "channel": 3,
      "note": 76,
      "start": 58.2496,
      "duration": 0.0681,
      "velocity": 102,
      "chip": "ym2612"
    },
    {
      "channel": 4,
      "note": 71,
      "start": 58.2504,
      "duration": 0.0677,
      "velocity": 102,
      "chip": "ym2612"
    },
    {
      "channel": 5,
      "note": 68,
      "start": 58.2511,
      "duration": 0.0673,
      "velocity": 102,
      "chip": "ym2612"
    },
    {
      "channel": 2,
      "note": 63,
      "start": 58.2521,
      "duration": 0.1555,
      "velocity": 120,
      "chip": "ym2612"
    },
    {
      "channel": 1,
      "note": 52,
      "start": 58.4114,
      "duration": 0.0863,
      "velocity": 94,
      "chip": "ym2612"
    },
    {
      "channel": 3,
      "note": 76,
      "start": 58.4122,
      "duration": 0.0859,
      "velocity": 102,
      "chip": "ym2612"
    },
    {
      "channel": 4,
      "note": 71,
      "start": 58.4129,
      "duration": 0.0854,
      "velocity": 102,
      "chip": "ym2612"
    },
    {
      "channel": 5,
      "note": 68,
      "start": 58.4137,
      "duration": 0.085,
      "velocity": 102,
      "chip": "ym2612"
    },
    {
      "channel": 2,
      "note": 63,
      "start": 58.4146,
      "duration": 0.1555,
      "velocity": 120,
      "chip": "ym2612"
    },
    {
      "channel": 0,
      "note": 83,
      "start": 58.5735,
      "duration": 0.3241,
      "velocity": 89,
      "chip": "ym2612"
    },
    {
      "channel": 1,
      "note": 52,
      "start": 58.5743,
      "duration": 0.0889,
      "velocity": 94,
      "chip": "ym2612"
    },
    {
      "channel": 3,
      "note": 76,
      "start": 58.5751,
      "duration": 0.0884,
      "velocity": 102,
      "chip": "ym2612"
    },
    {
      "channel": 4,
      "note": 71,
      "start": 58.5758,
      "duration": 0.088,
      "velocity": 102,
      "chip": "ym2612"
    },
    {
      "channel": 5,
      "note": 68,
      "start": 58.5766,
      "duration": 0.0876,
      "velocity": 102,
      "chip": "ym2612"
    },
    {
      "channel": 2,
      "note": 66,
      "start": 58.578,
      "duration": 0.082,
      "velocity": 127,
      "chip": "ym2612"
    },
    {
      "channel": 2,
      "note": 66,
      "start": 58.6657,
      "duration": 0.0666,
      "velocity": 127,
      "chip": "ym2612"
    },
    {
      "channel": 2,
      "note": 76,
      "start": 58.738,
      "duration": 0.0846,
      "velocity": 127,
      "chip": "ym2612"
    },
    {
      "channel": 2,
      "note": 71,
      "start": 58.8274,
      "duration": 0.0674,
      "velocity": 127,
      "chip": "ym2612"
    },
    {
      "channel": 0,
      "note": 81,
      "start": 58.8983,
      "duration": 0.1799,
      "velocity": 89,
      "chip": "ym2612"
    },
    {
      "channel": 1,
      "note": 56,
      "start": 58.899,
      "duration": 0.4144,
      "velocity": 94,
      "chip": "ym2612"
    },
    {
      "channel": 3,
      "note": 80,
      "start": 58.8998,
      "duration": 0.4139,
      "velocity": 102,
      "chip": "ym2612"
    },
    {
      "channel": 4,
      "note": 74,
      "start": 58.9005,
      "duration": 0.4135,
      "velocity": 102,
      "chip": "ym2612"
    },
    {
      "channel": 5,
      "note": 71,
      "start": 58.9013,
      "duration": 0.413,
      "velocity": 102,
      "chip": "ym2612"
    },
    {
      "channel": 2,
      "note": 66,
      "start": 58.9027,
      "duration": 0.1727,
      "velocity": 127,
      "chip": "ym2612"
    },
    {
      "channel": 0,
      "note": 80,
      "start": 59.0788,
      "duration": 0.3251,
      "velocity": 89,
      "chip": "ym2612"
    },
    {
      "channel": 2,
      "note": 45,
      "start": 59.0814,
      "duration": 0.1568,
      "velocity": 117,
      "chip": "ym2612"
    },
    {
      "channel": 2,
      "note": 63,
      "start": 59.2445,
      "duration": 0.0657,
      "velocity": 120,
      "chip": "ym2612"
    },
    {
      "channel": 2,
      "note": 63,
      "start": 59.3155,
      "duration": 0.0855,
      "velocity": 120,
      "chip": "ym2612"
    },
    {
      "channel": 0,
      "note": 78,
      "start": 59.4044,
      "duration": 1.8046,
      "velocity": 89,
      "chip": "ym2612"
    },
    {
      "channel": 1,
      "note": 54,
      "start": 59.4053,
      "duration": 0.1607,
      "velocity": 94,
      "chip": "ym2612"
    },
    {
      "channel": 3,
      "note": 78,
      "start": 59.4092,
      "duration": 0.4073,
      "velocity": 102,
      "chip": "ym2612"
    },
    {
      "channel": 4,
      "note": 73,
      "start": 59.413,
      "duration": 0.4038,
      "velocity": 102,
      "chip": "ym2612"
    },
    {
      "channel": 5,
      "note": 69,
      "start": 59.4168,
      "duration": 0.4003,
      "velocity": 102,
      "chip": "ym2612"
    },
    {
      "channel": 2,
      "note": 45,
      "start": 59.418,
      "duration": 0.1448,
      "velocity": 117,
      "chip": "ym2612"
    },
    {
      "channel": 1,
      "note": 54,
      "start": 59.5666,
      "duration": 0.162,
      "velocity": 94,
      "chip": "ym2612"
    },
    {
      "channel": 2,
      "note": 64,
      "start": 59.5686,
      "duration": 0.1568,
      "velocity": 127,
      "chip": "ym2612"
    },
    {
      "channel": 1,
      "note": 54,
      "start": 59.7292,
      "duration": 0.1619,
      "velocity": 94,
      "chip": "ym2612"
    },
    {
      "channel": 2,
      "note": 63,
      "start": 59.7313,
      "duration": 0.1567,
      "velocity": 120,
      "chip": "ym2612"
    },
    {
      "channel": 1,
      "note": 54,
      "start": 59.8917,
      "duration": 0.1621,
      "velocity": 94,
      "chip": "ym2612"
    },
    {
      "channel": 3,
      "note": 78,
      "start": 59.8925,
      "duration": 0.1226,
      "velocity": 102,
      "chip": "ym2612"
    },
    {
      "channel": 4,
      "note": 73,
      "start": 59.8932,
      "duration": 0.1222,
      "velocity": 102,
      "chip": "ym2612"
    },
    {
      "channel": 5,
      "note": 69,
      "start": 59.894,
      "duration": 0.1217,
      "velocity": 102,
      "chip": "ym2612"
    },
    {
      "channel": 2,
      "note": 64,
      "start": 59.895,
      "duration": 0.1554,
      "velocity": 127,
      "chip": "ym2612"
    },
    {
      "channel": 1,
      "note": 54,
      "start": 60.0543,
      "duration": 0.1799,
      "velocity": 94,
      "chip": "ym2612"
    },
    {
      "channel": 2,
      "note": 45,
      "start": 60.0558,
      "duration": 0.1753,
      "velocity": 117,
      "chip": "ym2612"
    },
    {
      "channel": 1,
      "note": 54,
      "start": 60.2348,
      "duration": 0.162,
      "velocity": 94,
      "chip": "ym2612"
    },
    {
      "channel": 3,
      "note": 78,
      "start": 60.2356,
      "duration": 0.1046,
      "velocity": 102,
      "chip": "ym2612"
    },
    {
      "channel": 4,
      "note": 73,
      "start": 60.2363,
      "duration": 0.1041,
      "velocity": 102,
      "chip": "ym2612"
    },
    {
      "channel": 5,
      "note": 69,
      "start": 60.2371,
      "duration": 0.1037,
      "velocity": 102,
      "chip": "ym2612"
    },
    {
      "channel": 2,
      "note": 64,
      "start": 60.2381,
      "duration": 0.1555,
      "velocity": 127,
      "chip": "ym2612"
    },
    {
      "channel": 1,
      "note": 54,
      "start": 60.3973,
      "duration": 0.162,
      "velocity": 94,
      "chip": "ym2612"
    },
    {
      "channel": 2,
      "note": 63,
      "start": 60.3986,
      "duration": 0.1575,
      "velocity": 120,
      "chip": "ym2612"
    },
    {
      "channel": 1,
      "note": 54,
      "start": 60.5599,
      "duration": 0.1621,
      "velocity": 94,
      "chip": "ym2612"
    },
    {
      "channel": 3,
      "note": 78,
      "start": 60.5606,
      "duration": 0.1227,
      "velocity": 102,
      "chip": "ym2612"
    },
    {
      "channel": 4,
      "note": 73,
      "start": 60.5614,
      "duration": 0.1222,
      "velocity": 102,
      "chip": "ym2612"
    },
    {
      "channel": 5,
      "note": 69,
      "start": 60.5622,
      "duration": 0.1217,
      "velocity": 102,
      "chip": "ym2612"
    },
    {
      "channel": 2,
      "note": 64,
      "start": 60.5632,
      "duration": 0.1555,
      "velocity": 127,
      "chip": "ym2612"
    },
    {
      "channel": 1,
      "note": 54,
      "start": 60.7226,
      "duration": 0.1616,
      "velocity": 94,
      "chip": "ym2612"
    },
    {
      "channel": 3,
      "note": 78,
      "start": 60.7233,
      "duration": 0.4113,
      "velocity": 102,
      "chip": "ym2612"
    },
    {
      "channel": 4,
      "note": 73,
      "start": 60.7241,
      "duration": 0.4108,
      "velocity": 102,
      "chip": "ym2612"
    },
    {
      "channel": 5,
      "note": 69,
      "start": 60.7249,
      "duration": 0.4104,
      "velocity": 102,
      "chip": "ym2612"
    },
    {
      "channel": 2,
      "note": 45,
      "start": 60.7261,
      "duration": 0.1549,
      "velocity": 117,
      "chip": "ym2612"
    },
    {
      "channel": 1,
      "note": 54,
      "start": 60.8848,
      "duration": 0.162,
      "velocity": 94,
      "chip": "ym2612"
    },
    {
      "channel": 2,
      "note": 64,
      "start": 60.8868,
      "duration": 0.1568,
      "velocity": 127,
      "chip": "ym2612"
    },
    {
      "channel": 1,
      "note": 54,
      "start": 61.0473,
      "duration": 0.162,
      "velocity": 94,
      "chip": "ym2612"
    },
    {
      "channel": 2,
      "note": 63,
      "start": 61.0494,
      "duration": 0.1567,
      "velocity": 120,
      "chip": "ym2612"
    },
    {
      "channel": 1,
      "note": 54,
      "start": 61.2099,
      "duration": 0.1804,
      "velocity": 94,
      "chip": "ym2612"
    },
    {
      "channel": 3,
      "note": 78,
      "start": 61.2107,
      "duration": 0.1223,
      "velocity": 102,
      "chip": "ym2612"
    },
    {
      "channel": 4,
      "note": 73,
      "start": 61.2115,
      "duration": 0.1219,
      "velocity": 102,
      "chip": "ym2612"
    },
    {
      "channel": 5,
      "note": 69,
      "start": 61.2122,
      "duration": 0.1215,
      "velocity": 102,
      "chip": "ym2612"
    },
    {
      "channel": 2,
      "note": 64,
      "start": 61.2132,
      "duration": 0.1735,
      "velocity": 127,
      "chip": "ym2612"
    },
    {
      "channel": 0,
      "note": 81,
      "start": 61.3902,
      "duration": 0.3243,
      "velocity": 89,
      "chip": "ym2612"
    },
    {
      "channel": 1,
      "note": 54,
      "start": 61.3909,
      "duration": 0.1615,
      "velocity": 94,
      "chip": "ym2612"
    },
    {
      "channel": 2,
      "note": 45,
      "start": 61.3924,
      "duration": 0.1569,
      "velocity": 117,
      "chip": "ym2612"
    },
    {
      "channel": 1,
      "note": 54,
      "start": 61.553,
      "duration": 0.1623,
      "velocity": 94,
      "chip": "ym2612"
    },
    {
      "channel": 3,
      "note": 78,
      "start": 61.5537,
      "duration": 0.1226,
      "velocity": 102,
      "chip": "ym2612"
    },
    {
      "channel": 4,
      "note": 73,
      "start": 61.5545,
      "duration": 0.1221,
      "velocity": 102,
      "chip": "ym2612"
    },
    {
      "channel": 5,
      "note": 69,
      "start": 61.5553,
      "duration": 0.1217,
      "velocity": 102,
      "chip": "ym2612"
    },
    {
      "channel": 2,
      "note": 64,
      "start": 61.5563,
      "duration": 0.1553,
      "velocity": 127,
      "chip": "ym2612"
    },
    {
      "channel": 0,
      "note": 85,
      "start": 61.7151,
      "duration": 0.162,
      "velocity": 89,
      "chip": "ym2612"
    },
    {
      "channel": 1,
      "note": 54,
      "start": 61.7158,
      "duration": 0.162,
      "velocity": 94,
      "chip": "ym2612"
    },
    {
      "channel": 2,
      "note": 63,
      "start": 61.7171,
      "duration": 0.1571,
      "velocity": 120,
      "chip": "ym2612"
    },
    {
      "channel": 0,
      "note": 86,
      "start": 61.8777,
      "duration": 1.4802,
      "velocity": 89,
      "chip": "ym2612"
    },
    {
      "channel": 1,
      "note": 54,
      "start": 61.8784,
      "duration": 0.1618,
      "velocity": 94,
      "chip": "ym2612"
    },
    {
      "channel": 3,
      "note": 78,
      "start": 61.8791,
      "duration": 0.1223,
      "velocity": 102,
      "chip": "ym2612"
    },
    {
      "channel": 4,
      "note": 74,
      "start": 61.8799,
      "duration": 0.1218,
      "velocity": 102,
      "chip": "ym2612"
    },
    {
      "channel": 5,
      "note": 69,
      "start": 61.8807,
      "duration": 0.1214,
      "velocity": 102,
      "chip": "ym2612"
    },
    {
      "channel": 2,
      "note": 64,
      "start": 61.8817,
      "duration": 0.1552,
      "velocity": 127,
      "chip": "ym2612"
    },
    {
      "channel": 1,
      "note": 54,
      "start": 62.0408,
      "duration": 0.1616,
      "velocity": 94,
      "chip": "ym2612"
    },
    {
      "channel": 3,
      "note": 78,
      "start": 62.0416,
      "duration": 0.4112,
      "velocity": 102,
      "chip": "ym2612"
    },
    {
      "channel": 4,
      "note": 74,
      "start": 62.0424,
      "duration": 0.4108,
      "velocity": 102,
      "chip": "ym2612"
    },
    {
      "channel": 5,
      "note": 69,
      "start": 62.0431,
      "duration": 0.4104,
      "velocity": 102,
      "chip": "ym2612"
    },
    {
      "channel": 2,
      "note": 45,
      "start": 62.0443,
      "duration": 0.155,
      "velocity": 117,
      "chip": "ym2612"
    },
    {
      "channel": 1,
      "note": 54,
      "start": 62.203,
      "duration": 0.1619,
      "velocity": 94,
      "chip": "ym2612"
    },
    {
      "channel": 2,
      "note": 64,
      "start": 62.2051,
      "duration": 0.1566,
      "velocity": 127,
      "chip": "ym2612"
    },
    {
      "channel": 1,
      "note": 54,
      "start": 62.3655,
      "duration": 0.18,
      "velocity": 94,
      "chip": "ym2612"
    },
    {
      "channel": 2,
      "note": 63,
      "start": 62.3676,
      "duration": 0.1747,
      "velocity": 120,
      "chip": "ym2612"
    },
    {
      "channel": 1,
      "note": 54,
      "start": 62.5461,
      "duration": 0.1621,
      "velocity": 94,
      "chip": "ym2612"
    },
    {
      "channel": 3,
      "note": 78,
      "start": 62.5469,
      "duration": 0.1045,
      "velocity": 102,
      "chip": "ym2612"
    },
    {
      "channel": 4,
      "note": 74,
      "start": 62.5476,
      "duration": 0.1041,
      "velocity": 102,
      "chip": "ym2612"
    },
    {
      "channel": 5,
      "note": 69,
      "start": 62.5484,
      "duration": 0.1036,
      "velocity": 102,
      "chip": "ym2612"
    },
    {
      "channel": 2,
      "note": 64,
      "start": 62.5494,
      "duration": 0.1554,
      "velocity": 127,
      "chip": "ym2612"
    },
    {
      "channel": 1,
      "note": 54,
      "start": 62.7088,
      "duration": 0.1618,
      "velocity": 94,
      "chip": "ym2612"
    },
    {
      "channel": 2,
      "note": 45,
      "start": 62.7103,
      "duration": 0.1571,
      "velocity": 117,
      "chip": "ym2612"
    },
    {
      "channel": 1,
      "note": 54,
      "start": 62.8711,
      "duration": 0.162,
      "velocity": 94,
      "chip": "ym2612"
    },
    {
      "channel": 3,
      "note": 78,
      "start": 62.8719,
      "duration": 0.1227,
      "velocity": 102,
      "chip": "ym2612"
    },
    {
      "channel": 4,
      "note": 74,
      "start": 62.8727,
      "duration": 0.1222,
      "velocity": 102,
      "chip": "ym2612"
    },
    {
      "channel": 5,
      "note": 69,
      "start": 62.8734,
      "duration": 0.1218,
      "velocity": 102,
      "chip": "ym2612"
    },
    {
      "channel": 2,
      "note": 64,
      "start": 62.8744,
      "duration": 0.1555,
      "velocity": 127,
      "chip": "ym2612"
    },
    {
      "channel": 1,
      "note": 54,
      "start": 63.0337,
      "duration": 0.1618,
      "velocity": 94,
      "chip": "ym2612"
    },
    {
      "channel": 2,
      "note": 63,
      "start": 63.035,
      "duration": 0.1574,
      "velocity": 120,
      "chip": "ym2612"
    },
    {
      "channel": 1,
      "note": 54,
      "start": 63.1961,
      "duration": 0.1621,
      "velocity": 94,
      "chip": "ym2612"
    },
    {
      "channel": 3,
      "note": 78,
      "start": 63.1969,
      "duration": 0.1227,
      "velocity": 102,
      "chip": "ym2612"
    },
    {
      "channel": 4,
      "note": 74,
      "start": 63.1976,
      "duration": 0.1222,
      "velocity": 102,
      "chip": "ym2612"
    },
    {
      "channel": 5,
      "note": 69,
      "start": 63.1984,
      "duration": 0.1217,
      "velocity": 102,
      "chip": "ym2612"
    },
    {
      "channel": 2,
      "note": 64,
      "start": 63.1994,
      "duration": 0.1556,
      "velocity": 127,
      "chip": "ym2612"
    },
    {
      "channel": 1,
      "note": 54,
      "start": 63.3588,
      "duration": 0.1622,
      "velocity": 94,
      "chip": "ym2612"
    },
    {
      "channel": 3,
      "note": 78,
      "start": 63.3596,
      "duration": 0.4112,
      "velocity": 102,
      "chip": "ym2612"
    },
    {
      "channel": 4,
      "note": 74,
      "start": 63.3604,
      "duration": 0.4107,
      "velocity": 102,
      "chip": "ym2612"
    },
    {
      "channel": 5,
      "note": 69,
      "start": 63.3611,
      "duration": 0.4103,
      "velocity": 102,
      "chip": "ym2612"
    },
    {
      "channel": 2,
      "note": 45,
      "start": 63.3623,
      "duration": 0.1551,
      "velocity": 117,
      "chip": "ym2612"
    },
    {
      "channel": 0,
      "note": 88,
      "start": 63.5209,
      "duration": 0.1799,
      "velocity": 89,
      "chip": "ym2612"
    },
    {
      "channel": 1,
      "note": 54,
      "start": 63.5216,
      "duration": 0.1795,
      "velocity": 94,
      "chip": "ym2612"
    },
    {
      "channel": 2,
      "note": 64,
      "start": 63.5237,
      "duration": 0.1742,
      "velocity": 127,
      "chip": "ym2612"
    },
    {
      "channel": 1,
      "note": 54,
      "start": 63.7017,
      "duration": 0.1623,
      "velocity": 94,
      "chip": "ym2612"
    },
    {
      "channel": 2,
      "note": 63,
      "start": 63.7037,
      "duration": 0.1568,
      "velocity": 120,
      "chip": "ym2612"
    },
    {
      "channel": 0,
      "note": 88,
      "start": 63.8639,
      "duration": 0.3244,
      "velocity": 89,
      "chip": "ym2612"
    },
    {
      "channel": 1,
      "note": 54,
      "start": 63.8646,
      "duration": 0.1616,
      "velocity": 94,
      "chip": "ym2612"
    },
    {
      "channel": 3,
      "note": 78,
      "start": 63.8654,
      "duration": 0.1223,
      "velocity": 102,
      "chip": "ym2612"
    },
    {
      "channel": 4,
      "note": 74,
      "start": 63.8661,
      "duration": 0.1218,
      "velocity": 102,
      "chip": "ym2612"
    },
    {
      "channel": 5,
      "note": 69,
      "start": 63.8669,
      "duration": 0.1214,
      "velocity": 102,
      "chip": "ym2612"
    },
    {
      "channel": 2,
      "note": 64,
      "start": 63.8679,
      "duration": 0.1551,
      "velocity": 127,
      "chip": "ym2612"
    },
    {
      "channel": 1,
      "note": 54,
      "start": 64.0268,
      "duration": 0.1623,
      "velocity": 94,
      "chip": "ym2612"
    },
    {
      "channel": 2,
      "note": 45,
      "start": 64.0282,
      "duration": 0.1573,
      "velocity": 117,
      "chip": "ym2612"
    },
    {
      "channel": 0,
      "note": 86,
      "start": 64.189,
      "duration": 0.1619,
      "velocity": 89,
      "chip": "ym2612"
    },
    {
      "channel": 1,
      "note": 54,
      "start": 64.1897,
      "duration": 0.162,
      "velocity": 94,
      "chip": "ym2612"
    },
    {
      "channel": 3,
      "note": 78,
      "start": 64.1905,
      "duration": 0.1223,
      "velocity": 102,
      "chip": "ym2612"
    },
    {
      "channel": 4,
      "note": 74,
      "start": 64.1912,
      "duration": 0.1219,
      "velocity": 102,
      "chip": "ym2612"
    },
    {
      "channel": 5,
      "note": 69,
      "start": 64.192,
      "duration": 0.1214,
      "velocity": 102,
      "chip": "ym2612"
    },
    {
      "channel": 2,
      "note": 64,
      "start": 64.193,
      "duration": 0.1551,
      "velocity": 127,
      "chip": "ym2612"
    },
    {
      "channel": 0,
      "note": 85,
      "start": 64.3515,
      "duration": 0.1619,
      "velocity": 89,
      "chip": "ym2612"
    },
    {
      "channel": 1,
      "note": 54,
      "start": 64.3522,
      "duration": 0.162,
      "velocity": 94,
      "chip": "ym2612"
    },
    {
      "channel": 2,
      "note": 63,
      "start": 64.3535,
      "duration": 0.1571,
      "velocity": 120,
      "chip": "ym2612"
    },
    {
      "channel": 0,
      "note": 83,
      "start": 64.5141,
      "duration": 1.9856,
      "velocity": 89,
      "chip": "ym2612"
    },
    {
      "channel": 1,
      "note": 54,
      "start": 64.5148,
      "duration": 0.1618,
      "velocity": 94,
      "chip": "ym2612"
    },
    {
      "channel": 3,
      "note": 80,
      "start": 64.5155,
      "duration": 0.1223,
      "velocity": 102,
      "chip": "ym2612"
    },
    {
      "channel": 4,
      "note": 74,
      "start": 64.5163,
      "duration": 0.1218,
      "velocity": 102,
      "chip": "ym2612"
    },
    {
      "channel": 5,
      "note": 71,
      "start": 64.5171,
      "duration": 0.1214,
      "velocity": 102,
      "chip": "ym2612"
    },
    {
      "channel": 2,
      "note": 64,
      "start": 64.5181,
      "duration": 0.1551,
      "velocity": 127,
      "chip": "ym2612"
    },
    {
      "channel": 1,
      "note": 56,
      "start": 64.6772,
      "duration": 0.1797,
      "velocity": 94,
      "chip": "ym2612"
    },
    {
      "channel": 3,
      "note": 80,
      "start": 64.6779,
      "duration": 0.4112,
      "velocity": 102,
      "chip": "ym2612"
    },
    {
      "channel": 4,
      "note": 74,
      "start": 64.6787,
      "duration": 0.4107,
      "velocity": 102,
      "chip": "ym2612"
    },
    {
      "channel": 5,
      "note": 71,
      "start": 64.6795,
      "duration": 0.4103,
      "velocity": 102,
      "chip": "ym2612"
    },
    {
      "channel": 2,
      "note": 45,
      "start": 64.6807,
      "duration": 0.1731,
      "velocity": 117,
      "chip": "ym2612"
    },
    {
      "channel": 1,
      "note": 56,
      "start": 64.8574,
      "duration": 0.162,
      "velocity": 94,
      "chip": "ym2612"
    },
    {
      "channel": 2,
      "note": 64,
      "start": 64.8595,
      "duration": 0.1567,
      "velocity": 127,
      "chip": "ym2612"
    },
    {
      "channel": 1,
      "note": 56,
      "start": 65.02,
      "duration": 0.1619,
      "velocity": 94,
      "chip": "ym2612"
    },
    {
      "channel": 2,
      "note": 63,
      "start": 65.022,
      "duration": 0.1567,
      "velocity": 120,
      "chip": "ym2612"
    },
    {
      "channel": 1,
      "note": 56,
      "start": 65.1824,
      "duration": 0.1622,
      "velocity": 94,
      "chip": "ym2612"
    },
    {
      "channel": 3,
      "note": 80,
      "start": 65.1832,
      "duration": 0.1227,
      "velocity": 102,
      "chip": "ym2612"
    },
    {
      "channel": 4,
      "note": 74,
      "start": 65.184,
      "duration": 0.1222,
      "velocity": 102,
      "chip": "ym2612"
    },
    {
      "channel": 5,
      "note": 71,
      "start": 65.1847,
      "duration": 0.1217,
      "velocity": 102,
      "chip": "ym2612"
    },
    {
      "channel": 2,
      "note": 64,
      "start": 65.1857,
      "duration": 0.1555,
      "velocity": 127,
      "chip": "ym2612"
    },
    {
      "channel": 1,
      "note": 56,
      "start": 65.3452,
      "duration": 0.1617,
      "velocity": 94,
      "chip": "ym2612"
    },
    {
      "channel": 2,
      "note": 45,
      "start": 65.3467,
      "duration": 0.157,
      "velocity": 117,
      "chip": "ym2612"
    },
    {
      "channel": 1,
      "note": 56,
      "start": 65.5074,
      "duration": 0.162,
      "velocity": 94,
      "chip": "ym2612"
    },
    {
      "channel": 3,
      "note": 80,
      "start": 65.5082,
      "duration": 0.1227,
      "velocity": 102,
      "chip": "ym2612"
    },
    {
      "channel": 4,
      "note": 74,
      "start": 65.509,
      "duration": 0.1223,
      "velocity": 102,
      "chip": "ym2612"
    },
    {
      "channel": 5,
      "note": 71,
      "start": 65.5097,
      "duration": 0.1218,
      "velocity": 102,
      "chip": "ym2612"
    },
    {
      "channel": 2,
      "note": 64,
      "start": 65.5107,
      "duration": 0.1555,
      "velocity": 127,
      "chip": "ym2612"
    },
    {
      "channel": 1,
      "note": 56,
      "start": 65.67,
      "duration": 0.1619,
      "velocity": 94,
      "chip": "ym2612"
    },
    {
      "channel": 2,
      "note": 63,
      "start": 65.6712,
      "duration": 0.1575,
      "velocity": 120,
      "chip": "ym2612"
    },
    {
      "channel": 1,
      "note": 56,
      "start": 65.8324,
      "duration": 0.1803,
      "velocity": 94,
      "chip": "ym2612"
    },
    {
      "channel": 3,
      "note": 80,
      "start": 65.8332,
      "duration": 0.1227,
      "velocity": 102,
      "chip": "ym2612"
    },
    {
      "channel": 4,
      "note": 74,
      "start": 65.834,
      "duration": 0.1223,
      "velocity": 102,
      "chip": "ym2612"
    },
    {
      "channel": 5,
      "note": 71,
      "start": 65.8347,
      "duration": 0.1218,
      "velocity": 102,
      "chip": "ym2612"
    },
    {
      "channel": 2,
      "note": 64,
      "start": 65.8357,
      "duration": 0.1737,
      "velocity": 127,
      "chip": "ym2612"
    },
    {
      "channel": 1,
      "note": 56,
      "start": 66.0134,
      "duration": 0.1617,
      "velocity": 94,
      "chip": "ym2612"
    },
    {
      "channel": 3,
      "note": 80,
      "start": 66.0141,
      "duration": 0.3932,
      "velocity": 102,
      "chip": "ym2612"
    },
    {
      "channel": 4,
      "note": 74,
      "start": 66.0149,
      "duration": 0.3928,
      "velocity": 102,
      "chip": "ym2612"
    },
    {
      "channel": 5,
      "note": 71,
      "start": 66.0156,
      "duration": 0.3924,
      "velocity": 102,
      "chip": "ym2612"
    },
    {
      "channel": 2,
      "note": 45,
      "start": 66.0168,
      "duration": 0.155,
      "velocity": 117,
      "chip": "ym2612"
    },
    {
      "channel": 1,
      "note": 56,
      "start": 66.1757,
      "duration": 0.1619,
      "velocity": 94,
      "chip": "ym2612"
    },
    {
      "channel": 2,
      "note": 64,
      "start": 66.1777,
      "duration": 0.1567,
      "velocity": 127,
      "chip": "ym2612"
    },
    {
      "channel": 1,
      "note": 56,
      "start": 66.3382,
      "duration": 0.1618,
      "velocity": 94,
      "chip": "ym2612"
    },
    {
      "channel": 2,
      "note": 63,
      "start": 66.3403,
      "duration": 0.1566,
      "velocity": 120,
      "chip": "ym2612"
    },
    {
      "channel": 1,
      "note": 56,
      "start": 66.5006,
      "duration": 0.1624,
      "velocity": 94,
      "chip": "ym2612"
    },
    {
      "channel": 3,
      "note": 80,
      "start": 66.5013,
      "duration": 0.1225,
      "velocity": 102,
      "chip": "ym2612"
    },
    {
      "channel": 4,
      "note": 74,
      "start": 66.5021,
      "duration": 0.1221,
      "velocity": 102,
      "chip": "ym2612"
    },
    {
      "channel": 5,
      "note": 71,
      "start": 66.5029,
      "duration": 0.1216,
      "velocity": 102,
      "chip": "ym2612"
    },
    {
      "channel": 2,
      "note": 64,
      "start": 66.5039,
      "duration": 0.1555,
      "velocity": 127,
      "chip": "ym2612"
    },
    {
      "channel": 0,
      "note": 83,
      "start": 66.6628,
      "duration": 0.162,
      "velocity": 89,
      "chip": "ym2612"
    },
    {
      "channel": 1,
      "note": 56,
      "start": 66.6635,
      "duration": 0.162,
      "velocity": 94,
      "chip": "ym2612"
    },
    {
      "channel": 2,
      "note": 45,
      "start": 66.665,
      "duration": 0.1569,
      "velocity": 117,
      "chip": "ym2612"
    },
    {
      "channel": 0,
      "note": 81,
      "start": 66.8254,
      "duration": 0.1619,
      "velocity": 89,
      "chip": "ym2612"
    },
    {
      "channel": 1,
      "note": 56,
      "start": 66.8261,
      "duration": 0.1619,
      "velocity": 94,
      "chip": "ym2612"
    },
    {
      "channel": 3,
      "note": 80,
      "start": 66.8269,
      "duration": 0.1222,
      "velocity": 102,
      "chip": "ym2612"
    },
    {
      "channel": 4,
      "note": 74,
      "start": 66.8277,
      "duration": 0.1218,
      "velocity": 102,
      "chip": "ym2612"
    },
    {
      "channel": 5,
      "note": 71,
      "start": 66.8284,
      "duration": 0.1214,
      "velocity": 102,
      "chip": "ym2612"
    },
    {
      "channel": 2,
      "note": 64,
      "start": 66.8294,
      "duration": 0.1551,
      "velocity": 127,
      "chip": "ym2612"
    },
    {
      "channel": 0,
      "note": 80,
      "start": 66.9878,
      "duration": 0.1799,
      "velocity": 89,
      "chip": "ym2612"
    },
    {
      "channel": 1,
      "note": 56,
      "start": 66.9886,
      "duration": 0.1799,
      "velocity": 94,
      "chip": "ym2612"
    },
    {
      "channel": 2,
      "note": 63,
      "start": 66.9899,
      "duration": 0.1751,
      "velocity": 120,
      "chip": "ym2612"
    },
    {
      "channel": 0,
      "note": 78,
      "start": 67.1684,
      "duration": 1.4803,
      "velocity": 89,
      "chip": "ym2612"
    },
    {
      "channel": 1,
      "note": 56,
      "start": 67.1691,
      "duration": 0.1617,
      "velocity": 94,
      "chip": "ym2612"
    },
    {
      "channel": 3,
      "note": 78,
      "start": 67.1698,
      "duration": 1.4799,
      "velocity": 102,
      "chip": "ym2612"
    },
    {
      "channel": 4,
      "note": 73,
      "start": 67.1706,
      "duration": 1.4798,
      "velocity": 102,
      "chip": "ym2612"
    },
    {
      "channel": 5,
      "note": 69,
      "start": 67.1714,
      "duration": 1.4798,
      "velocity": 102,
      "chip": "ym2612"
    },
    {
      "channel": 2,
      "note": 64,
      "start": 67.1724,
      "duration": 0.1552,
      "velocity": 127,
      "chip": "ym2612"
    },
    {
      "channel": 1,
      "note": 54,
      "start": 67.3313,
      "duration": 0.1616,
      "velocity": 94,
      "chip": "ym2612"
    },
    {
      "channel": 2,
      "note": 45,
      "start": 67.3347,
      "duration": 0.1553,
      "velocity": 117,
      "chip": "ym2612"
    },
    {
      "channel": 1,
      "note": 54,
      "start": 67.4935,
      "duration": 0.1619,
      "velocity": 94,
      "chip": "ym2612"
    },
    {
      "channel": 2,
      "note": 64,
      "start": 67.4955,
      "duration": 0.157,
      "velocity": 127,
      "chip": "ym2612"
    },
    {
      "channel": 1,
      "note": 54,
      "start": 67.656,
      "duration": 0.162,
      "velocity": 94,
      "chip": "ym2612"
    },
    {
      "channel": 2,
      "note": 63,
      "start": 67.6581,
      "duration": 0.157,
      "velocity": 120,
      "chip": "ym2612"
    },
    {
      "channel": 1,
      "note": 54,
      "start": 67.8186,
      "duration": 0.1624,
      "velocity": 94,
      "chip": "ym2612"
    },
    {
      "channel": 2,
      "note": 64,
      "start": 67.8206,
      "duration": 0.1571,
      "velocity": 127,
      "chip": "ym2612"
    },
    {
      "channel": 1,
      "note": 54,
      "start": 67.9816,
      "duration": 0.1616,
      "velocity": 94,
      "chip": "ym2612"
    },
    {
      "channel": 2,
      "note": 45,
      "start": 67.9839,
      "duration": 0.1562,
      "velocity": 117,
      "chip": "ym2612"
    },
    {
      "channel": 1,
      "note": 54,
      "start": 68.1438,
      "duration": 0.18,
      "velocity": 94,
      "chip": "ym2612"
    },
    {
      "channel": 2,
      "note": 64,
      "start": 68.1459,
      "duration": 0.1747,
      "velocity": 127,
      "chip": "ym2612"
    },
    {
      "channel": 1,
      "note": 54,
      "start": 68.3244,
      "duration": 0.162,
      "velocity": 94,
      "chip": "ym2612"
    },
    {
      "channel": 2,
      "note": 63,
      "start": 68.3265,
      "duration": 0.1567,
      "velocity": 120,
      "chip": "ym2612"
    },
    {
      "channel": 1,
      "note": 54,
      "start": 68.487,
      "duration": 0.162,
      "velocity": 94,
      "chip": "ym2612"
    },
    {
      "channel": 2,
      "note": 64,
      "start": 68.489,
      "duration": 0.1568,
      "velocity": 127,
      "chip": "ym2612"
    },
    {
      "channel": 2,
      "note": 45,
      "start": 68.6526,
      "duration": 0.1557,
      "velocity": 117,
      "chip": "ym2612"
    },
    {
      "channel": 0,
      "note": 81,
      "start": 68.8117,
      "duration": 0.1623,
      "velocity": 89,
      "chip": "ym2612"
    },
    {
      "channel": 1,
      "note": 52,
      "start": 68.8125,
      "duration": 0.0864,
      "velocity": 94,
      "chip": "ym2612"
    },
    {
      "channel": 3,
      "note": 76,
      "start": 68.8132,
      "duration": 0.086,
      "velocity": 102,
      "chip": "ym2612"
    },
    {
      "channel": 4,
      "note": 71,
      "start": 68.814,
      "duration": 0.0856,
      "velocity": 102,
      "chip": "ym2612"
    },
    {
      "channel": 5,
      "note": 68,
      "start": 68.8147,
      "duration": 0.0852,
      "velocity": 102,
      "chip": "ym2612"
    },
    {
      "channel": 2,
      "note": 63,
      "start": 68.8157,
      "duration": 0.1555,
      "velocity": 120,
      "chip": "ym2612"
    },
    {
      "channel": 0,
      "note": 80,
      "start": 68.9746,
      "duration": 0.1618,
      "velocity": 89,
      "chip": "ym2612"
    },
    {
      "channel": 1,
      "note": 52,
      "start": 68.9754,
      "duration": 0.0861,
      "velocity": 94,
      "chip": "ym2612"
    },
    {
      "channel": 3,
      "note": 76,
      "start": 68.9761,
      "duration": 0.0856,
      "velocity": 102,
      "chip": "ym2612"
    },
    {
      "channel": 4,
      "note": 71,
      "start": 68.9769,
      "duration": 0.0852,
      "velocity": 102,
      "chip": "ym2612"
    },
    {
      "channel": 5,
      "note": 68,
      "start": 68.9776,
      "duration": 0.0848,
      "velocity": 102,
      "chip": "ym2612"
    },
    {
      "channel": 2,
      "note": 63,
      "start": 68.9786,
      "duration": 0.155,
      "velocity": 120,
      "chip": "ym2612"
    },
    {
      "channel": 0,
      "note": 78,
      "start": 69.1371,
      "duration": 0.1615,
      "velocity": 89,
      "chip": "ym2612"
    },
    {
      "channel": 1,
      "note": 52,
      "start": 69.1378,
      "duration": 0.0889,
      "velocity": 94,
      "chip": "ym2612"
    },
    {
      "channel": 3,
      "note": 76,
      "start": 69.1385,
      "duration": 0.0884,
      "velocity": 102,
      "chip": "ym2612"
    },
    {
      "channel": 4,
      "note": 71,
      "start": 69.1393,
      "duration": 0.088,
      "velocity": 102,
      "chip": "ym2612"
    },
    {
      "channel": 5,
      "note": 68,
      "start": 69.1401,
      "duration": 0.0876,
      "velocity": 102,
      "chip": "ym2612"
    },
    {
      "channel": 2,
      "note": 66,
      "start": 69.1415,
      "duration": 0.082,
      "velocity": 127,
      "chip": "ym2612"
    },
    {
      "channel": 2,
      "note": 66,
      "start": 69.2293,
      "duration": 0.0666,
      "velocity": 127,
      "chip": "ym2612"
    },
    {
      "channel": 0,
      "note": 80,
      "start": 69.2992,
      "duration": 0.1799,
      "velocity": 89,
      "chip": "ym2612"
    },
    {
      "channel": 2,
      "note": 76,
      "start": 69.302,
      "duration": 0.084,
      "velocity": 127,
      "chip": "ym2612"
    },
    {
      "channel": 2,
      "note": 71,
      "start": 69.3908,
      "duration": 0.0856,
      "velocity": 127,
      "chip": "ym2612"
    },
    {
      "channel": 0,
      "note": 78,
      "start": 69.4798,
      "duration": 0.1619,
      "velocity": 89,
      "chip": "ym2612"
    },
    {
      "channel": 1,
      "note": 56,
      "start": 69.4805,
      "duration": 0.3964,
      "velocity": 94,
      "chip": "ym2612"
    },
    {
      "channel": 3,
      "note": 80,
      "start": 69.4812,
      "duration": 0.3959,
      "velocity": 102,
      "chip": "ym2612"
    },
    {
      "channel": 4,
      "note": 74,
      "start": 69.482,
      "duration": 0.3955,
      "velocity": 102,
      "chip": "ym2612"
    },
    {
      "channel": 5,
      "note": 71,
      "start": 69.4828,
      "duration": 0.395,
      "velocity": 102,
      "chip": "ym2612"
    },
    {
      "channel": 2,
      "note": 66,
      "start": 69.4841,
      "duration": 0.1547,
      "velocity": 127,
      "chip": "ym2612"
    },
    {
      "channel": 0,
      "note": 76,
      "start": 69.6423,
      "duration": 0.3276,
      "velocity": 97,
      "chip": "ym2612"
    },
    {
      "channel": 2,
      "note": 45,
      "start": 69.645,
      "duration": 0.1569,
      "velocity": 117,
      "chip": "ym2612"
    },
    {
      "channel": 2,
      "note": 63,
      "start": 69.808,
      "duration": 0.0656,
      "velocity": 120,
      "chip": "ym2612"
    },
    {
      "channel": 2,
      "note": 63,
      "start": 69.8789,
      "duration": 0.0856,
      "velocity": 120,
      "chip": "ym2612"
    },
    {
      "channel": 1,
      "note": 54,
      "start": 69.971,
      "duration": 0.1583,
      "velocity": 94,
      "chip": "ym2612"
    },
    {
      "channel": 3,
      "note": 73,
      "start": 69.9745,
      "duration": 0.2975,
      "velocity": 110,
      "chip": "ym2612"
    },
    {
      "channel": 4,
      "note": 69,
      "start": 69.978,
      "duration": 0.294,
      "velocity": 110,
      "chip": "ym2612"
    },
    {
      "channel": 5,
      "note": 66,
      "start": 69.9815,
      "duration": 0.2905,
      "velocity": 110,
      "chip": "ym2612"
    },
    {
      "channel": 2,
      "note": 45,
      "start": 69.9827,
      "duration": 0.1438,
      "velocity": 117,
      "chip": "ym2612"
    },
    {
      "channel": 1,
      "note": 54,
      "start": 70.1299,
      "duration": 0.1421,
      "velocity": 94,
      "chip": "ym2612"
    },
    {
      "channel": 2,
      "note": 64,
      "start": 70.132,
      "duration": 0.14,
      "velocity": 127,
      "chip": "ym2612"
    }
  ]
}