{
  "track_name": "08 - Mean Streets of the City",
  "duration_sec": 101.966,
  "sample_rate": 44100,
  "note_count": 1260,
  "unique_pitches": 29,
  "pitch_range": 69,
  "avg_note_duration": 0.21,
  "reconstruction_stats": {
    "notes_reconstructed": 1260,
    "keyon_events": 1260,
    "keyoff_events": 1260,
    "orphan_keyons": 0,
    "unique_pitches": 29,
    "pitch_range": 69,
    "avg_duration_sec": 0.21
  },
  "metadata": {
    "source": "S\\Spider-Man - The Animated Series\\08 - Mean Streets of the City.vgm"
  },
  "notes": [
    {
      "channel": 5,
      "note": 49,
      "start": 0.0022,
      "duration": 0.1096,
      "velocity": 113,
      "chip": "ym2612"
    },
    {
      "channel": 0,
      "note": 33,
      "start": 0.0075,
      "duration": 0.0544,
      "velocity": 110,
      "chip": "ym2612"
    },
    {
      "channel": 1,
      "note": 55,
      "start": 0.0192,
      "duration": 0.0428,
      "velocity": 127,
      "chip": "ym2612"
    },
    {
      "channel": 3,
      "note": 80,
      "start": 0.0344,
      "duration": 0.3607,
      "velocity": 83,
      "chip": "ym2612"
    },
    {
      "channel": 4,
      "note": 97,
      "start": 0.0465,
      "duration": 1.7486,
      "velocity": 98,
      "chip": "ym2612"
    },
    {
      "channel": 2,
      "note": 49,
      "start": 0.0527,
      "duration": 6.7092,
      "velocity": 88,
      "chip": "ym2612"
    },
    {
      "channel": 5,
      "note": 49,
      "start": 0.4151,
      "duration": 0.1136,
      "velocity": 113,
      "chip": "ym2612"
    },
    {
      "channel": 0,
      "note": 52,
      "start": 0.4181,
      "duration": 0.0271,
      "velocity": 115,
      "chip": "ym2612"
    },
    {
      "channel": 1,
      "note": 55,
      "start": 0.4209,
      "duration": 0.0244,
      "velocity": 127,
      "chip": "ym2612"
    },
    {
      "channel": 3,
      "note": 73,
      "start": 0.4247,
      "duration": 0.1872,
      "velocity": 83,
      "chip": "ym2612"
    },
    {
      "channel": 0,
      "note": 33,
      "start": 0.6318,
      "duration": 0.03,
      "velocity": 110,
      "chip": "ym2612"
    },
    {
      "channel": 3,
      "note": 76,
      "start": 0.6355,
      "duration": 0.3929,
      "velocity": 83,
      "chip": "ym2612"
    },
    {
      "channel": 1,
      "note": 55,
      "start": 0.849,
      "duration": 0.0294,
      "velocity": 127,
      "chip": "ym2612"
    },
    {
      "channel": 0,
      "note": 33,
      "start": 1.0649,
      "duration": 0.0302,
      "velocity": 110,
      "chip": "ym2612"
    },
    {
      "channel": 5,
      "note": 49,
      "start": 1.0681,
      "duration": 0.0272,
      "velocity": 127,
      "chip": "ym2612"
    },
    {
      "channel": 3,
      "note": 78,
      "start": 1.0715,
      "duration": 0.3905,
      "velocity": 83,
      "chip": "ym2612"
    },
    {
      "channel": 1,
      "note": 49,
      "start": 1.2653,
      "duration": 0.1966,
      "velocity": 113,
      "chip": "ym2612"
    },
    {
      "channel": 0,
      "note": 52,
      "start": 1.268,
      "duration": 0.0272,
      "velocity": 115,
      "chip": "ym2612"
    },
    {
      "channel": 1,
      "note": 56,
      "start": 1.4818,
      "duration": 0.3967,
      "velocity": 113,
      "chip": "ym2612"
    },
    {
      "channel": 5,
      "note": 33,
      "start": 1.4846,
      "duration": 0.0275,
      "velocity": 110,
      "chip": "ym2612"
    },
    {
      "channel": 0,
      "note": 49,
      "start": 1.4882,
      "duration": 0.0236,
      "velocity": 127,
      "chip": "ym2612"
    },
    {
      "channel": 3,
      "note": 80,
      "start": 1.4914,
      "duration": 0.3871,
      "velocity": 83,
      "chip": "ym2612"
    },
    {
      "channel": 5,
      "note": 33,
      "start": 1.6983,
      "duration": 0.0303,
      "velocity": 110,
      "chip": "ym2612"
    },
    {
      "channel": 0,
      "note": 55,
      "start": 1.7015,
      "duration": 0.0268,
      "velocity": 127,
      "chip": "ym2612"
    },
    {
      "channel": 1,
      "note": 49,
      "start": 1.915,
      "duration": 0.1135,
      "velocity": 113,
      "chip": "ym2612"
    },
    {
      "channel": 3,
      "note": 73,
      "start": 1.9188,
      "duration": 0.1763,
      "velocity": 83,
      "chip": "ym2612"
    },
    {
      "channel": 1,
      "note": 54,
      "start": 2.115,
      "duration": 0.1134,
      "velocity": 113,
      "chip": "ym2612"
    },
    {
      "channel": 0,
      "note": 52,
      "start": 2.1181,
      "duration": 0.027,
      "velocity": 115,
      "chip": "ym2612"
    },
    {
      "channel": 5,
      "note": 55,
      "start": 2.1211,
      "duration": 0.0243,
      "velocity": 127,
      "chip": "ym2612"
    },
    {
      "channel": 3,
      "note": 76,
      "start": 2.1245,
      "duration": 0.4039,
      "velocity": 83,
      "chip": "ym2612"
    },
    {
      "channel": 1,
      "note": 54,
      "start": 2.5488,
      "duration": 0.1129,
      "velocity": 113,
      "chip": "ym2612"
    },
    {
      "channel": 4,
      "note": 33,
      "start": 2.5514,
      "duration": 0.0271,
      "velocity": 110,
      "chip": "ym2612"
    },
    {
      "channel": 5,
      "note": 55,
      "start": 2.5546,
      "duration": 0.024,
      "velocity": 127,
      "chip": "ym2612"
    },
    {
      "channel": 3,
      "note": 80,
      "start": 2.5577,
      "duration": 0.3874,
      "velocity": 83,
      "chip": "ym2612"
    },
    {
      "channel": 0,
      "note": 49,
      "start": 2.7488,
      "duration": 0.0462,
      "velocity": 127,
      "chip": "ym2612"
    },
    {
      "channel": 4,
      "note": 52,
      "start": 2.9648,
      "duration": 0.0304,
      "velocity": 115,
      "chip": "ym2612"
    },
    {
      "channel": 3,
      "note": 73,
      "start": 2.9685,
      "duration": 0.1933,
      "velocity": 83,
      "chip": "ym2612"
    },
    {
      "channel": 0,
      "note": 49,
      "start": 3.182,
      "duration": 0.0297,
      "velocity": 127,
      "chip": "ym2612"
    },
    {
      "channel": 3,
      "note": 76,
      "start": 3.1856,
      "duration": 0.193,
      "velocity": 83,
      "chip": "ym2612"
    },
    {
      "channel": 1,
      "note": 54,
      "start": 3.3984,
      "duration": 0.1134,
      "velocity": 113,
      "chip": "ym2612"
    },
    {
      "channel": 5,
      "note": 33,
      "start": 3.4012,
      "duration": 0.0276,
      "velocity": 110,
      "chip": "ym2612"
    },
    {
      "channel": 4,
      "note": 55,
      "start": 3.4044,
      "duration": 0.0242,
      "velocity": 127,
      "chip": "ym2612"
    },
    {
      "channel": 3,
      "note": 78,
      "start": 3.4078,
      "duration": 0.3873,
      "velocity": 83,
      "chip": "ym2612"
    },
    {
      "channel": 1,
      "note": 54,
      "start": 3.815,
      "duration": 0.1468,
      "velocity": 113,
      "chip": "ym2612"
    },
    {
      "channel": 0,
      "note": 52,
      "start": 3.8178,
      "duration": 0.0274,
      "velocity": 115,
      "chip": "ym2612"
    },
    {
      "channel": 4,
      "note": 55,
      "start": 3.8206,
      "duration": 0.0248,
      "velocity": 127,
      "chip": "ym2612"
    },
    {
      "channel": 3,
      "note": 80,
      "start": 3.824,
      "duration": 0.1878,
      "velocity": 83,
      "chip": "ym2612"
    },
    {
      "channel": 5,
      "note": 33,
      "start": 4.0316,
      "duration": 0.0303,
      "velocity": 110,
      "chip": "ym2612"
    },
    {
      "channel": 3,
      "note": 73,
      "start": 4.0353,
      "duration": 0.3931,
      "velocity": 83,
      "chip": "ym2612"
    },
    {
      "channel": 4,
      "note": 55,
      "start": 4.2488,
      "duration": 0.0298,
      "velocity": 127,
      "chip": "ym2612"
    },
    {
      "channel": 5,
      "note": 33,
      "start": 4.448,
      "duration": 0.0473,
      "velocity": 110,
      "chip": "ym2612"
    },
    {
      "channel": 0,
      "note": 49,
      "start": 4.4512,
      "duration": 0.0439,
      "velocity": 127,
      "chip": "ym2612"
    },
    {
      "channel": 3,
      "note": 76,
      "start": 4.4545,
      "duration": 0.4074,
      "velocity": 83,
      "chip": "ym2612"
    },
    {
      "channel": 1,
      "note": 54,
      "start": 4.665,
      "duration": 0.1968,
      "velocity": 113,
      "chip": "ym2612"
    },
    {
      "channel": 4,
      "note": 52,
      "start": 4.6678,
      "duration": 0.0274,
      "velocity": 115,
      "chip": "ym2612"
    },
    {
      "channel": 1,
      "note": 56,
      "start": 4.8817,
      "duration": 0.3968,
      "velocity": 113,
      "chip": "ym2612"
    },
    {
      "channel": 5,
      "note": 33,
      "start": 4.8844,
      "duration": 0.0277,
      "velocity": 110,
      "chip": "ym2612"
    },
    {
      "channel": 0,
      "note": 49,
      "start": 4.8874,
      "duration": 0.0244,
      "velocity": 127,
      "chip": "ym2612"
    },
    {
      "channel": 3,
      "note": 80,
      "start": 4.8906,
      "duration": 0.388,
      "velocity": 83,
      "chip": "ym2612"
    },
    {
      "channel": 5,
      "note": 33,
      "start": 5.0984,
      "duration": 0.0303,
      "velocity": 110,
      "chip": "ym2612"
    },
    {
      "channel": 4,
      "note": 55,
      "start": 5.1015,
      "duration": 0.027,
      "velocity": 127,
      "chip": "ym2612"
    },
    {
      "channel": 1,
      "note": 54,
      "start": 5.2988,
      "duration": 0.1963,
      "velocity": 113,
      "chip": "ym2612"
    },
    {
      "channel": 3,
      "note": 73,
      "start": 5.3026,
      "duration": 0.1926,
      "velocity": 83,
      "chip": "ym2612"
    },
    {
      "channel": 1,
      "note": 56,
      "start": 5.5148,
      "duration": 0.1969,
      "velocity": 113,
      "chip": "ym2612"
    },
    {
      "channel": 0,
      "note": 52,
      "start": 5.5175,
      "duration": 0.0276,
      "velocity": 115,
      "chip": "ym2612"
    },
    {
      "channel": 4,
      "note": 55,
      "start": 5.5203,
      "duration": 0.0251,
      "velocity": 127,
      "chip": "ym2612"
    },
    {
      "channel": 3,
      "note": 76,
      "start": 5.5241,
      "duration": 0.4045,
      "velocity": 83,
      "chip": "ym2612"
    },
    {
      "channel": 1,
      "note": 57,
      "start": 5.7315,
      "duration": 0.1971,
      "velocity": 113,
      "chip": "ym2612"
    },
    {
      "channel": 1,
      "note": 56,
      "start": 5.9481,
      "duration": 0.1803,
      "velocity": 113,
      "chip": "ym2612"
    },
    {
      "channel": 5,
      "note": 33,
      "start": 5.9512,
      "duration": 0.0273,
      "velocity": 110,
      "chip": "ym2612"
    },
    {
      "channel": 4,
      "note": 55,
      "start": 5.9541,
      "duration": 0.0243,
      "velocity": 127,
      "chip": "ym2612"
    },
    {
      "channel": 3,
      "note": 78,
      "start": 5.9573,
      "duration": 0.3879,
      "velocity": 83,
      "chip": "ym2612"
    },
    {
      "channel": 0,
      "note": 102,
      "start": 5.9835,
      "duration": 0.8616,
      "velocity": 98,
      "chip": "ym2612"
    },
    {
      "channel": 1,
      "note": 54,
      "start": 6.1481,
      "duration": 0.1969,
      "velocity": 113,
      "chip": "ym2612"
    },
    {
      "channel": 5,
      "note": 33,
      "start": 6.1508,
      "duration": 0.0445,
      "velocity": 110,
      "chip": "ym2612"
    },
    {
      "channel": 4,
      "note": 49,
      "start": 6.154,
      "duration": 0.0412,
      "velocity": 127,
      "chip": "ym2612"
    },
    {
      "channel": 1,
      "note": 52,
      "start": 6.3648,
      "duration": 0.1971,
      "velocity": 113,
      "chip": "ym2612"
    },
    {
      "channel": 4,
      "note": 52,
      "start": 6.3675,
      "duration": 0.0277,
      "velocity": 115,
      "chip": "ym2612"
    },
    {
      "channel": 5,
      "note": 70,
      "start": 6.3704,
      "duration": 0.0249,
      "velocity": 127,
      "chip": "ym2612"
    },
    {
      "channel": 3,
      "note": 80,
      "start": 6.3739,
      "duration": 0.1881,
      "velocity": 83,
      "chip": "ym2612"
    },
    {
      "channel": 1,
      "note": 54,
      "start": 6.5815,
      "duration": 0.1971,
      "velocity": 113,
      "chip": "ym2612"
    },
    {
      "channel": 4,
      "note": 33,
      "start": 6.5842,
      "duration": 0.0277,
      "velocity": 110,
      "chip": "ym2612"
    },
    {
      "channel": 3,
      "note": 73,
      "start": 6.5877,
      "duration": 0.191,
      "velocity": 83,
      "chip": "ym2612"
    },
    {
      "channel": 1,
      "note": 49,
      "start": 6.7984,
      "duration": 0.1299,
      "velocity": 113,
      "chip": "ym2612"
    },
    {
      "channel": 4,
      "note": 33,
      "start": 6.8011,
      "duration": 0.0274,
      "velocity": 110,
      "chip": "ym2612"
    },
    {
      "channel": 5,
      "note": 55,
      "start": 6.8044,
      "duration": 0.0242,
      "velocity": 127,
      "chip": "ym2612"
    },
    {
      "channel": 3,
      "note": 76,
      "start": 6.8078,
      "duration": 0.3873,
      "velocity": 83,
      "chip": "ym2612"
    },
    {
      "channel": 2,
      "note": 49,
      "start": 6.8114,
      "duration": 6.7339,
      "velocity": 88,
      "chip": "ym2612"
    },
    {
      "channel": 4,
      "note": 97,
      "start": 6.8336,
      "duration": 1.8783,
      "velocity": 98,
      "chip": "ym2612"
    },
    {
      "channel": 1,
      "note": 49,
      "start": 7.215,
      "duration": 0.1301,
      "velocity": 113,
      "chip": "ym2612"
    },
    {
      "channel": 5,
      "note": 52,
      "start": 7.2177,
      "duration": 0.0277,
      "velocity": 115,
      "chip": "ym2612"
    },
    {
      "channel": 0,
      "note": 55,
      "start": 7.2207,
      "duration": 0.0244,
      "velocity": 127,
      "chip": "ym2612"
    },
    {
      "channel": 3,
      "note": 80,
      "start": 7.2241,
      "duration": 0.1878,
      "velocity": 83,
      "chip": "ym2612"
    },
    {
      "channel": 0,
      "note": 33,
      "start": 7.4318,
      "duration": 0.03,
      "velocity": 110,
      "chip": "ym2612"
    },
    {
      "channel": 3,
      "note": 73,
      "start": 7.4355,
      "duration": 0.3929,
      "velocity": 83,
      "chip": "ym2612"
    },
    {
      "channel": 5,
      "note": 55,
      "start": 7.6489,
      "duration": 0.0297,
      "velocity": 127,
      "chip": "ym2612"
    },
    {
      "channel": 0,
      "note": 33,
      "start": 7.8478,
      "duration": 0.0473,
      "velocity": 110,
      "chip": "ym2612"
    },
    {
      "channel": 1,
      "note": 49,
      "start": 7.8513,
      "duration": 0.0439,
      "velocity": 127,
      "chip": "ym2612"
    },
    {
      "channel": 3,
      "note": 76,
      "start": 7.8549,
      "duration": 0.407,
      "velocity": 83,
      "chip": "ym2612"
    },
    {
      "channel": 5,
      "note": 49,
      "start": 8.0653,
      "duration": 0.1967,
      "velocity": 113,
      "chip": "ym2612"
    },
    {
      "channel": 0,
      "note": 52,
      "start": 8.068,
      "duration": 0.0272,
      "velocity": 115,
      "chip": "ym2612"
    },
    {
      "channel": 5,
      "note": 56,
      "start": 8.2822,
      "duration": 0.3964,
      "velocity": 113,
      "chip": "ym2612"
    },
    {
      "channel": 1,
      "note": 33,
      "start": 8.285,
      "duration": 0.0269,
      "velocity": 110,
      "chip": "ym2612"
    },
    {
      "channel": 0,
      "note": 49,
      "start": 8.2883,
      "duration": 0.0235,
      "velocity": 127,
      "chip": "ym2612"
    },
    {
      "channel": 3,
      "note": 78,
      "start": 8.2915,
      "duration": 0.387,
      "velocity": 83,
      "chip": "ym2612"
    },
    {
      "channel": 1,
      "note": 33,
      "start": 8.4982,
      "duration": 0.0302,
      "velocity": 110,
      "chip": "ym2612"
    },
    {
      "channel": 0,
      "note": 55,
      "start": 8.5015,
      "duration": 0.0268,
      "velocity": 127,
      "chip": "ym2612"
    },
    {
      "channel": 5,
      "note": 49,
      "start": 8.6985,
      "duration": 0.18,
      "velocity": 113,
      "chip": "ym2612"
    },
    {
      "channel": 3,
      "note": 80,
      "start": 8.7024,
      "duration": 0.1927,
      "velocity": 83,
      "chip": "ym2612"
    },
    {
      "channel": 5,
      "note": 54,
      "start": 8.9151,
      "duration": 0.1134,
      "velocity": 113,
      "chip": "ym2612"
    },
    {
      "channel": 0,
      "note": 52,
      "start": 8.9179,
      "duration": 0.0272,
      "velocity": 115,
      "chip": "ym2612"
    },
    {
      "channel": 1,
      "note": 55,
      "start": 8.9208,
      "duration": 0.0244,
      "velocity": 127,
      "chip": "ym2612"
    },
    {
      "channel": 3,
      "note": 73,
      "start": 8.9239,
      "duration": 0.188,
      "velocity": 83,
      "chip": "ym2612"
    },
    {
      "channel": 3,
      "note": 76,
      "start": 9.1325,
      "duration": 0.196,
      "velocity": 83,
      "chip": "ym2612"
    },
    {
      "channel": 5,
      "note": 54,
      "start": 9.3486,
      "duration": 0.0799,
      "velocity": 113,
      "chip": "ym2612"
    },
    {
      "channel": 4,
      "note": 33,
      "start": 9.3513,
      "duration": 0.0272,
      "velocity": 110,
      "chip": "ym2612"
    },
    {
      "channel": 1,
      "note": 55,
      "start": 9.3543,
      "duration": 0.024,
      "velocity": 127,
      "chip": "ym2612"
    },
    {
      "channel": 3,
      "note": 80,
      "start": 9.3577,
      "duration": 0.3875,
      "velocity": 83,
      "chip": "ym2612"
    },
    {
      "channel": 0,
      "note": 49,
      "start": 9.5488,
      "duration": 0.0462,
      "velocity": 127,
      "chip": "ym2612"
    },
    {
      "channel": 1,
      "note": 52,
      "start": 9.7649,
      "duration": 0.0302,
      "velocity": 115,
      "chip": "ym2612"
    },
    {
      "channel": 3,
      "note": 73,
      "start": 9.7686,
      "duration": 0.1933,
      "velocity": 83,
      "chip": "ym2612"
    },
    {
      "channel": 0,
      "note": 49,
      "start": 9.982,
      "duration": 0.0298,
      "velocity": 127,
      "chip": "ym2612"
    },
    {
      "channel": 3,
      "note": 76,
      "start": 9.9853,
      "duration": 0.1932,
      "velocity": 83,
      "chip": "ym2612"
    },
    {
      "channel": 5,
      "note": 54,
      "start": 10.1985,
      "duration": 0.0967,
      "velocity": 113,
      "chip": "ym2612"
    },
    {
      "channel": 4,
      "note": 33,
      "start": 10.2016,
      "duration": 0.027,
      "velocity": 110,
      "chip": "ym2612"
    },
    {
      "channel": 1,
      "note": 55,
      "start": 10.2049,
      "duration": 0.0236,
      "velocity": 127,
      "chip": "ym2612"
    },
    {
      "channel": 3,
      "note": 78,
      "start": 10.2087,
      "duration": 0.3865,
      "velocity": 83,
      "chip": "ym2612"
    },
    {
      "channel": 5,
      "note": 54,
      "start": 10.6155,
      "duration": 0.1298,
      "velocity": 113,
      "chip": "ym2612"
    },
    {
      "channel": 0,
      "note": 52,
      "start": 10.6183,
      "duration": 0.0269,
      "velocity": 115,
      "chip": "ym2612"
    },
    {
      "channel": 1,
      "note": 55,
      "start": 10.621,
      "duration": 0.0243,
      "velocity": 127,
      "chip": "ym2612"
    },
    {
      "channel": 3,
      "note": 80,
      "start": 10.6244,
      "duration": 0.1875,
      "velocity": 83,
      "chip": "ym2612"
    },
    {
      "channel": 4,
      "note": 33,
      "start": 10.8316,
      "duration": 0.0303,
      "velocity": 110,
      "chip": "ym2612"
    },
    {
      "channel": 3,
      "note": 73,
      "start": 10.8354,
      "duration": 0.3931,
      "velocity": 83,
      "chip": "ym2612"
    },
    {
      "channel": 1,
      "note": 55,
      "start": 11.0486,
      "duration": 0.0298,
      "velocity": 127,
      "chip": "ym2612"
    },
    {
      "channel": 4,
      "note": 33,
      "start": 11.248,
      "duration": 0.0305,
      "velocity": 110,
      "chip": "ym2612"
    },
    {
      "channel": 0,
      "note": 49,
      "start": 11.2511,
      "duration": 0.0272,
      "velocity": 127,
      "chip": "ym2612"
    },
    {
      "channel": 3,
      "note": 76,
      "start": 11.2544,
      "duration": 0.4075,
      "velocity": 83,
      "chip": "ym2612"
    },
    {
      "channel": 5,
      "note": 54,
      "start": 11.4651,
      "duration": 0.1968,
      "velocity": 113,
      "chip": "ym2612"
    },
    {
      "channel": 1,
      "note": 52,
      "start": 11.4679,
      "duration": 0.0272,
      "velocity": 115,
      "chip": "ym2612"
    },
    {
      "channel": 5,
      "note": 56,
      "start": 11.6818,
      "duration": 0.3968,
      "velocity": 113,
      "chip": "ym2612"
    },
    {
      "channel": 4,
      "note": 33,
      "start": 11.6845,
      "duration": 0.0275,
      "velocity": 110,
      "chip": "ym2612"
    },
    {
      "channel": 0,
      "note": 49,
      "start": 11.6875,
      "duration": 0.0243,
      "velocity": 127,
      "chip": "ym2612"
    },
    {
      "channel": 3,
      "note": 78,
      "start": 11.6907,
      "duration": 0.3877,
      "velocity": 83,
      "chip": "ym2612"
    },
    {
      "channel": 4,
      "note": 33,
      "start": 11.8982,
      "duration": 0.0304,
      "velocity": 110,
      "chip": "ym2612"
    },
    {
      "channel": 1,
      "note": 55,
      "start": 11.9015,
      "duration": 0.027,
      "velocity": 127,
      "chip": "ym2612"
    },
    {
      "channel": 5,
      "note": 54,
      "start": 12.0985,
      "duration": 0.1968,
      "velocity": 113,
      "chip": "ym2612"
    },
    {
      "channel": 3,
      "note": 80,
      "start": 12.1024,
      "duration": 0.1927,
      "velocity": 83,
      "chip": "ym2612"
    },
    {
      "channel": 5,
      "note": 56,
      "start": 12.3148,
      "duration": 0.1973,
      "velocity": 113,
      "chip": "ym2612"
    },
    {
      "channel": 0,
      "note": 52,
      "start": 12.3175,
      "duration": 0.0277,
      "velocity": 115,
      "chip": "ym2612"
    },
    {
      "channel": 1,
      "note": 55,
      "start": 12.3206,
      "duration": 0.0247,
      "velocity": 127,
      "chip": "ym2612"
    },
    {
      "channel": 3,
      "note": 73,
      "start": 12.3237,
      "duration": 0.1881,
      "velocity": 83,
      "chip": "ym2612"
    },
    {
      "channel": 5,
      "note": 57,
      "start": 12.5316,
      "duration": 0.197,
      "velocity": 113,
      "chip": "ym2612"
    },
    {
      "channel": 3,
      "note": 76,
      "start": 12.5352,
      "duration": 0.1933,
      "velocity": 83,
      "chip": "ym2612"
    },
    {
      "channel": 5,
      "note": 56,
      "start": 12.7482,
      "duration": 0.1803,
      "velocity": 113,
      "chip": "ym2612"
    },
    {
      "channel": 4,
      "note": 33,
      "start": 12.7509,
      "duration": 0.0276,
      "velocity": 110,
      "chip": "ym2612"
    },
    {
      "channel": 1,
      "note": 55,
      "start": 12.7538,
      "duration": 0.0246,
      "velocity": 127,
      "chip": "ym2612"
    },
    {
      "channel": 3,
      "note": 80,
      "start": 12.7575,
      "duration": 0.3875,
      "velocity": 83,
      "chip": "ym2612"
    },
    {
      "channel": 5,
      "note": 54,
      "start": 12.9482,
      "duration": 0.1971,
      "velocity": 113,
      "chip": "ym2612"
    },
    {
      "channel": 4,
      "note": 33,
      "start": 12.9508,
      "duration": 0.0277,
      "velocity": 110,
      "chip": "ym2612"
    },
    {
      "channel": 0,
      "note": 49,
      "start": 12.9545,
      "duration": 0.0239,
      "velocity": 127,
      "chip": "ym2612"
    },
    {
      "channel": 5,
      "note": 52,
      "start": 13.1648,
      "duration": 0.1971,
      "velocity": 113,
      "chip": "ym2612"
    },
    {
      "channel": 1,
      "note": 52,
      "start": 13.1676,
      "duration": 0.0277,
      "velocity": 115,
      "chip": "ym2612"
    },
    {
      "channel": 0,
      "note": 70,
      "start": 13.1706,
      "duration": 0.0246,
      "velocity": 127,
      "chip": "ym2612"
    },
    {
      "channel": 3,
      "note": 73,
      "start": 13.174,
      "duration": 0.1879,
      "velocity": 83,
      "chip": "ym2612"
    },
    {
      "channel": 5,
      "note": 54,
      "start": 13.3819,
      "duration": 0.1969,
      "velocity": 113,
      "chip": "ym2612"
    },
    {
      "channel": 4,
      "note": 33,
      "start": 13.3846,
      "duration": 0.0273,
      "velocity": 110,
      "chip": "ym2612"
    },
    {
      "channel": 3,
      "note": 76,
      "start": 13.388,
      "duration": 0.1905,
      "velocity": 83,
      "chip": "ym2612"
    },
    {
      "channel": 5,
      "note": 49,
      "start": 13.5986,
      "duration": 0.1133,
      "velocity": 113,
      "chip": "ym2612"
    },
    {
      "channel": 4,
      "note": 33,
      "start": 13.6013,
      "duration": 0.0273,
      "velocity": 110,
      "chip": "ym2612"
    },
    {
      "channel": 0,
      "note": 55,
      "start": 13.6041,
      "duration": 0.0111,
      "velocity": 127,
      "chip": "ym2612"
    },
    {
      "channel": 1,
      "note": 73,
      "start": 13.6072,
      "duration": 0.3879,
      "velocity": 127,
      "chip": "ym2612"
    },
    {
      "channel": 2,
      "note": 68,
      "start": 13.6104,
      "duration": 0.3851,
      "velocity": 123,
      "chip": "ym2612"
    },
    {
      "channel": 3,
      "note": 80,
      "start": 13.6137,
      "duration": 0.3815,
      "velocity": 83,
      "chip": "ym2612"
    },
    {
      "channel": 0,
      "note": 49,
      "start": 13.6173,
      "duration": 6.5751,
      "velocity": 88,
      "chip": "ym2612"
    },
    {
      "channel": 5,
      "note": 49,
      "start": 14.0151,
      "duration": 0.0968,
      "velocity": 113,
      "chip": "ym2612"
    },
    {
      "channel": 4,
      "note": 52,
      "start": 14.0179,
      "duration": 0.0273,
      "velocity": 115,
      "chip": "ym2612"
    },
    {
      "channel": 1,
      "note": 55,
      "start": 14.0208,
      "duration": 0.0083,
      "velocity": 127,
      "chip": "ym2612"
    },
    {
      "channel": 3,
      "note": 61,
      "start": 14.0244,
      "duration": 0.1875,
      "velocity": 127,
      "chip": "ym2612"
    },
    {
      "channel": 2,
      "note": 61,
      "start": 14.0279,
      "duration": 0.1842,
      "velocity": 123,
      "chip": "ym2612"
    },
    {
      "channel": 1,
      "note": 73,
      "start": 14.0314,
      "duration": 0.1804,
      "velocity": 83,
      "chip": "ym2612"
    },
    {
      "channel": 4,
      "note": 33,
      "start": 14.2321,
      "duration": 0.0298,
      "velocity": 110,
      "chip": "ym2612"
    },
    {
      "channel": 3,
      "note": 76,
      "start": 14.2354,
      "duration": 0.3932,
      "velocity": 127,
      "chip": "ym2612"
    },
    {
      "channel": 2,
      "note": 71,
      "start": 14.2386,
      "duration": 0.3903,
      "velocity": 123,
      "chip": "ym2612"
    },
    {
      "channel": 1,
      "note": 76,
      "start": 14.2417,
      "duration": 0.3867,
      "velocity": 83,
      "chip": "ym2612"
    },
    {
      "channel": 5,
      "note": 55,
      "start": 14.4489,
      "duration": 0.0297,
      "velocity": 127,
      "chip": "ym2612"
    },
    {
      "channel": 4,
      "note": 33,
      "start": 14.6479,
      "duration": 0.0306,
      "velocity": 110,
      "chip": "ym2612"
    },
    {
      "channel": 5,
      "note": 49,
      "start": 14.651,
      "duration": 0.0276,
      "velocity": 127,
      "chip": "ym2612"
    },
    {
      "channel": 1,
      "note": 78,
      "start": 14.6543,
      "duration": 0.4075,
      "velocity": 83,
      "chip": "ym2612"
    },
    {
      "channel": 3,
      "note": 49,
      "start": 14.8653,
      "duration": 0.1966,
      "velocity": 113,
      "chip": "ym2612"
    },
    {
      "channel": 2,
      "note": 52,
      "start": 14.8681,
      "duration": 0.0273,
      "velocity": 115,
      "chip": "ym2612"
    },
    {
      "channel": 4,
      "note": 61,
      "start": 14.8715,
      "duration": 0.1906,
      "velocity": 127,
      "chip": "ym2612"
    },
    {
      "channel": 5,
      "note": 61,
      "start": 14.8746,
      "duration": 0.1876,
      "velocity": 123,
      "chip": "ym2612"
    },
    {
      "channel": 3,
      "note": 56,
      "start": 15.0818,
      "duration": 0.3968,
      "velocity": 113,
      "chip": "ym2612"
    },
    {
      "channel": 2,
      "note": 33,
      "start": 15.0846,
      "duration": 0.0275,
      "velocity": 110,
      "chip": "ym2612"
    },
    {
      "channel": 1,
      "note": 49,
      "start": 15.0878,
      "duration": 0.0071,
      "velocity": 127,
      "chip": "ym2612"
    },
    {
      "channel": 4,
      "note": 73,
      "start": 15.091,
      "duration": 0.3877,
      "velocity": 127,
      "chip": "ym2612"
    },
    {
      "channel": 5,
      "note": 68,
      "start": 15.094,
      "duration": 0.3848,
      "velocity": 123,
      "chip": "ym2612"
    },
    {
      "channel": 1,
      "note": 80,
      "start": 15.0972,
      "duration": 0.3812,
      "velocity": 83,
      "chip": "ym2612"
    },
    {
      "channel": 2,
      "note": 33,
      "start": 15.2984,
      "duration": 0.0303,
      "velocity": 110,
      "chip": "ym2612"
    },
    {
      "channel": 3,
      "note": 49,
      "start": 15.4984,
      "duration": 0.13,
      "velocity": 113,
      "chip": "ym2612"
    },
    {
      "channel": 1,
      "note": 73,
      "start": 15.5025,
      "duration": 0.1926,
      "velocity": 83,
      "chip": "ym2612"
    },
    {
      "channel": 3,
      "note": 54,
      "start": 15.7155,
      "duration": 0.0964,
      "velocity": 113,
      "chip": "ym2612"
    },
    {
      "channel": 2,
      "note": 52,
      "start": 15.7186,
      "duration": 0.0268,
      "velocity": 115,
      "chip": "ym2612"
    },
    {
      "channel": 4,
      "note": 55,
      "start": 15.7216,
      "duration": 0.0074,
      "velocity": 127,
      "chip": "ym2612"
    },
    {
      "channel": 5,
      "note": 61,
      "start": 15.7247,
      "duration": 0.1873,
      "velocity": 127,
      "chip": "ym2612"
    },
    {
      "channel": 1,
      "note": 61,
      "start": 15.7279,
      "duration": 0.184,
      "velocity": 123,
      "chip": "ym2612"
    },
    {
      "channel": 4,
      "note": 76,
      "start": 15.7313,
      "duration": 0.3807,
      "velocity": 83,
      "chip": "ym2612"
    },
    {
      "channel": 5,
      "note": 76,
      "start": 15.9328,
      "duration": 0.3958,
      "velocity": 127,
      "chip": "ym2612"
    },
    {
      "channel": 1,
      "note": 71,
      "start": 15.9361,
      "duration": 0.3923,
      "velocity": 123,
      "chip": "ym2612"
    },
    {
      "channel": 3,
      "note": 54,
      "start": 16.1485,
      "duration": 0.1133,
      "velocity": 113,
      "chip": "ym2612"
    },
    {
      "channel": 2,
      "note": 33,
      "start": 16.1512,
      "duration": 0.0276,
      "velocity": 110,
      "chip": "ym2612"
    },
    {
      "channel": 4,
      "note": 55,
      "start": 16.1543,
      "duration": 0.0011,
      "velocity": 127,
      "chip": "ym2612"
    },
    {
      "channel": 4,
      "note": 80,
      "start": 16.1576,
      "duration": 0.3876,
      "velocity": 83,
      "chip": "ym2612"
    },
    {
      "channel": 2,
      "note": 49,
      "start": 16.3488,
      "duration": 0.0298,
      "velocity": 127,
      "chip": "ym2612"
    },
    {
      "channel": 3,
      "note": 52,
      "start": 16.5648,
      "duration": 0.0304,
      "velocity": 115,
      "chip": "ym2612"
    },
    {
      "channel": 1,
      "note": 61,
      "start": 16.5681,
      "duration": 0.1937,
      "velocity": 123,
      "chip": "ym2612"
    },
    {
      "channel": 4,
      "note": 73,
      "start": 16.5714,
      "duration": 0.1906,
      "velocity": 83,
      "chip": "ym2612"
    },
    {
      "channel": 2,
      "note": 49,
      "start": 16.7823,
      "duration": 0.0297,
      "velocity": 127,
      "chip": "ym2612"
    },
    {
      "channel": 5,
      "note": 73,
      "start": 16.7854,
      "duration": 0.3932,
      "velocity": 127,
      "chip": "ym2612"
    },
    {
      "channel": 1,
      "note": 68,
      "start": 16.7883,
      "duration": 0.3901,
      "velocity": 123,
      "chip": "ym2612"
    },
    {
      "channel": 4,
      "note": 76,
      "start": 16.7912,
      "duration": 0.1707,
      "velocity": 83,
      "chip": "ym2612"
    },
    {
      "channel": 3,
      "note": 54,
      "start": 16.9985,
      "duration": 0.1133,
      "velocity": 113,
      "chip": "ym2612"
    },
    {
      "channel": 2,
      "note": 33,
      "start": 17.0013,
      "duration": 0.0273,
      "velocity": 110,
      "chip": "ym2612"
    },
    {
      "channel": 4,
      "note": 55,
      "start": 17.0045,
      "duration": 0.0013,
      "velocity": 127,
      "chip": "ym2612"
    },
    {
      "channel": 4,
      "note": 78,
      "start": 17.008,
      "duration": 0.3872,
      "velocity": 83,
      "chip": "ym2612"
    },
    {
      "channel": 3,
      "note": 54,
      "start": 17.4151,
      "duration": 0.1468,
      "velocity": 113,
      "chip": "ym2612"
    },
    {
      "channel": 2,
      "note": 52,
      "start": 17.4179,
      "duration": 0.0274,
      "velocity": 115,
      "chip": "ym2612"
    },
    {
      "channel": 1,
      "note": 55,
      "start": 17.4208,
      "duration": 0.0078,
      "velocity": 127,
      "chip": "ym2612"
    },
    {
      "channel": 5,
      "note": 61,
      "start": 17.4239,
      "duration": 0.1882,
      "velocity": 127,
      "chip": "ym2612"
    },
    {
      "channel": 4,
      "note": 61,
      "start": 17.4271,
      "duration": 0.1849,
      "velocity": 123,
      "chip": "ym2612"
    },
    {
      "channel": 1,
      "note": 80,
      "start": 17.4309,
      "duration": 0.1809,
      "velocity": 83,
      "chip": "ym2612"
    },
    {
      "channel": 2,
      "note": 33,
      "start": 17.6318,
      "duration": 0.0302,
      "velocity": 110,
      "chip": "ym2612"
    },
    {
      "channel": 5,
      "note": 76,
      "start": 17.6353,
      "duration": 0.3935,
      "velocity": 127,
      "chip": "ym2612"
    },
    {
      "channel": 4,
      "note": 71,
      "start": 17.6383,
      "duration": 0.3903,
      "velocity": 123,
      "chip": "ym2612"
    },
    {
      "channel": 1,
      "note": 73,
      "start": 17.6415,
      "duration": 0.387,
      "velocity": 83,
      "chip": "ym2612"
    },
    {
      "channel": 3,
      "note": 55,
      "start": 17.8493,
      "duration": 0.0292,
      "velocity": 127,
      "chip": "ym2612"
    },
    {
      "channel": 2,
      "note": 33,
      "start": 18.0482,
      "duration": 0.0304,
      "velocity": 110,
      "chip": "ym2612"
    },
    {
      "channel": 3,
      "note": 49,
      "start": 18.0514,
      "duration": 0.027,
      "velocity": 127,
      "chip": "ym2612"
    },
    {
      "channel": 1,
      "note": 76,
      "start": 18.0545,
      "duration": 0.4073,
      "velocity": 83,
      "chip": "ym2612"
    },
    {
      "channel": 4,
      "note": 54,
      "start": 18.2653,
      "duration": 0.1968,
      "velocity": 113,
      "chip": "ym2612"
    },
    {
      "channel": 5,
      "note": 52,
      "start": 18.268,
      "duration": 0.0273,
      "velocity": 115,
      "chip": "ym2612"
    },
    {
      "channel": 3,
      "note": 61,
      "start": 18.2715,
      "duration": 0.1905,
      "velocity": 127,
      "chip": "ym2612"
    },
    {
      "channel": 2,
      "note": 61,
      "start": 18.2749,
      "duration": 0.1873,
      "velocity": 123,
      "chip": "ym2612"
    },
    {
      "channel": 4,
      "note": 56,
      "start": 18.4822,
      "duration": 0.3965,
      "velocity": 113,
      "chip": "ym2612"
    },
    {
      "channel": 5,
      "note": 33,
      "start": 18.485,
      "duration": 0.027,
      "velocity": 110,
      "chip": "ym2612"
    },
    {
      "channel": 1,
      "note": 49,
      "start": 18.4883,
      "duration": 0.0071,
      "velocity": 127,
      "chip": "ym2612"
    },
    {
      "channel": 3,
      "note": 73,
      "start": 18.4914,
      "duration": 0.3872,
      "velocity": 127,
      "chip": "ym2612"
    },
    {
      "channel": 2,
      "note": 71,
      "start": 18.4945,
      "duration": 0.3844,
      "velocity": 123,
      "chip": "ym2612"
    },
    {
      "channel": 1,
      "note": 80,
      "start": 18.4976,
      "duration": 0.3809,
      "velocity": 83,
      "chip": "ym2612"
    },
    {
      "channel": 5,
      "note": 33,
      "start": 18.6986,
      "duration": 0.03,
      "velocity": 110,
      "chip": "ym2612"
    },
    {
      "channel": 4,
      "note": 54,
      "start": 18.8984,
      "duration": 0.1969,
      "velocity": 113,
      "chip": "ym2612"
    },
    {
      "channel": 2,
      "note": 61,
      "start": 18.9021,
      "duration": 0.1934,
      "velocity": 123,
      "chip": "ym2612"
    },
    {
      "channel": 1,
      "note": 73,
      "start": 18.9052,
      "duration": 0.1899,
      "velocity": 83,
      "chip": "ym2612"
    },
    {
      "channel": 4,
      "note": 56,
      "start": 19.1148,
      "duration": 0.1972,
      "velocity": 113,
      "chip": "ym2612"
    },
    {
      "channel": 5,
      "note": 52,
      "start": 19.1175,
      "duration": 0.0278,
      "velocity": 115,
      "chip": "ym2612"
    },
    {
      "channel": 3,
      "note": 55,
      "start": 19.1204,
      "duration": 0.0076,
      "velocity": 127,
      "chip": "ym2612"
    },
    {
      "channel": 1,
      "note": 61,
      "start": 19.124,
      "duration": 0.1879,
      "velocity": 127,
      "chip": "ym2612"
    },
    {
      "channel": 2,
      "note": 71,
      "start": 19.1268,
      "duration": 0.1854,
      "velocity": 123,
      "chip": "ym2612"
    },
    {
      "channel": 3,
      "note": 76,
      "start": 19.1303,
      "duration": 0.3815,
      "velocity": 83,
      "chip": "ym2612"
    },
    {
      "channel": 4,
      "note": 57,
      "start": 19.3315,
      "duration": 0.1804,
      "velocity": 113,
      "chip": "ym2612"
    },
    {
      "channel": 1,
      "note": 71,
      "start": 19.3349,
      "duration": 0.3936,
      "velocity": 127,
      "chip": "ym2612"
    },
    {
      "channel": 2,
      "note": 61,
      "start": 19.3377,
      "duration": 0.1744,
      "velocity": 123,
      "chip": "ym2612"
    },
    {
      "channel": 4,
      "note": 56,
      "start": 19.5316,
      "duration": 0.1971,
      "velocity": 113,
      "chip": "ym2612"
    },
    {
      "channel": 5,
      "note": 33,
      "start": 19.5343,
      "duration": 0.0442,
      "velocity": 110,
      "chip": "ym2612"
    },
    {
      "channel": 3,
      "note": 55,
      "start": 19.5374,
      "duration": 0.0038,
      "velocity": 127,
      "chip": "ym2612"
    },
    {
      "channel": 2,
      "note": 69,
      "start": 19.5403,
      "duration": 0.1885,
      "velocity": 123,
      "chip": "ym2612"
    },
    {
      "channel": 3,
      "note": 78,
      "start": 19.5434,
      "duration": 0.4017,
      "velocity": 83,
      "chip": "ym2612"
    },
    {
      "channel": 4,
      "note": 54,
      "start": 19.748,
      "duration": 0.1973,
      "velocity": 113,
      "chip": "ym2612"
    },
    {
      "channel": 5,
      "note": 33,
      "start": 19.7508,
      "duration": 0.0279,
      "velocity": 110,
      "chip": "ym2612"
    },
    {
      "channel": 1,
      "note": 49,
      "start": 19.7544,
      "duration": 0.0241,
      "velocity": 127,
      "chip": "ym2612"
    },
    {
      "channel": 2,
      "note": 68,
      "start": 19.7574,
      "duration": 0.188,
      "velocity": 123,
      "chip": "ym2612"
    },
    {
      "channel": 4,
      "note": 52,
      "start": 19.9648,
      "duration": 0.1971,
      "velocity": 113,
      "chip": "ym2612"
    },
    {
      "channel": 1,
      "note": 52,
      "start": 19.9676,
      "duration": 0.0276,
      "velocity": 115,
      "chip": "ym2612"
    },
    {
      "channel": 5,
      "note": 70,
      "start": 19.9705,
      "duration": 0.0076,
      "velocity": 127,
      "chip": "ym2612"
    },
    {
      "channel": 3,
      "note": 61,
      "start": 19.9737,
      "duration": 0.1881,
      "velocity": 127,
      "chip": "ym2612"
    },
    {
      "channel": 2,
      "note": 61,
      "start": 19.977,
      "duration": 0.4016,
      "velocity": 123,
      "chip": "ym2612"
    },
    {
      "channel": 5,
      "note": 80,
      "start": 19.9804,
      "duration": 0.1816,
      "velocity": 83,
      "chip": "ym2612"
    },
    {
      "channel": 4,
      "note": 54,
      "start": 20.1816,
      "duration": 0.1804,
      "velocity": 113,
      "chip": "ym2612"
    },
    {
      "channel": 1,
      "note": 33,
      "start": 20.1843,
      "duration": 0.0276,
      "velocity": 110,
      "chip": "ym2612"
    },
    {
      "channel": 3,
      "note": 73,
      "start": 20.1878,
      "duration": 0.3907,
      "velocity": 127,
      "chip": "ym2612"
    },
    {
      "channel": 5,
      "note": 73,
      "start": 20.191,
      "duration": 0.071,
      "velocity": 81,
      "chip": "ym2612"
    },
    {
      "channel": 0,
      "note": 73,
      "start": 20.1947,
      "duration": 0.1671,
      "velocity": 83,
      "chip": "ym2612"
    },
    {
      "channel": 5,
      "note": 74,
      "start": 20.2827,
      "duration": 0.0795,
      "velocity": 81,
      "chip": "ym2612"
    },
    {
      "channel": 4,
      "note": 49,
      "start": 20.3817,
      "duration": 0.1969,
      "velocity": 113,
      "chip": "ym2612"
    },
    {
      "channel": 1,
      "note": 33,
      "start": 20.3843,
      "duration": 0.0443,
      "velocity": 110,
      "chip": "ym2612"
    },
    {
      "channel": 0,
      "note": 55,
      "start": 20.3874,
      "duration": 0.0411,
      "velocity": 127,
      "chip": "ym2612"
    },
    {
      "channel": 5,
      "note": 73,
      "start": 20.3906,
      "duration": 0.6214,
      "velocity": 81,
      "chip": "ym2612"
    },
    {
      "channel": 4,
      "note": 49,
      "start": 20.8149,
      "duration": 0.197,
      "velocity": 113,
      "chip": "ym2612"
    },
    {
      "channel": 2,
      "note": 52,
      "start": 20.8177,
      "duration": 0.0278,
      "velocity": 115,
      "chip": "ym2612"
    },
    {
      "channel": 0,
      "note": 55,
      "start": 20.8204,
      "duration": 0.0248,
      "velocity": 127,
      "chip": "ym2612"
    },
    {
      "channel": 1,
      "note": 33,
      "start": 21.0315,
      "duration": 0.0304,
      "velocity": 110,
      "chip": "ym2612"
    },
    {
      "channel": 5,
      "note": 71,
      "start": 21.0352,
      "duration": 0.0601,
      "velocity": 81,
      "chip": "ym2612"
    },
    {
      "channel": 0,
      "note": 55,
      "start": 21.2319,
      "duration": 0.0465,
      "velocity": 127,
      "chip": "ym2612"
    },
    {
      "channel": 1,
      "note": 33,
      "start": 21.4478,
      "duration": 0.0305,
      "velocity": 110,
      "chip": "ym2612"
    },
    {
      "channel": 3,
      "note": 49,
      "start": 21.451,
      "duration": 0.0276,
      "velocity": 127,
      "chip": "ym2612"
    },
    {
      "channel": 4,
      "note": 47,
      "start": 21.665,
      "duration": 0.1969,
      "velocity": 113,
      "chip": "ym2612"
    },
    {
      "channel": 2,
      "note": 52,
      "start": 21.6678,
      "duration": 0.0276,
      "velocity": 115,
      "chip": "ym2612"
    },
    {
      "channel": 4,
      "note": 49,
      "start": 21.8821,
      "duration": 0.3963,
      "velocity": 113,
      "chip": "ym2612"
    },
    {
      "channel": 1,
      "note": 33,
      "start": 21.8848,
      "duration": 0.027,
      "velocity": 110,
      "chip": "ym2612"
    },
    {
      "channel": 3,
      "note": 49,
      "start": 21.8878,
      "duration": 0.0241,
      "velocity": 127,
      "chip": "ym2612"
    },
    {
      "channel": 1,
      "note": 33,
      "start": 22.0815,
      "duration": 0.047,
      "velocity": 110,
      "chip": "ym2612"
    },
    {
      "channel": 0,
      "note": 55,
      "start": 22.0844,
      "duration": 0.0439,
      "velocity": 127,
      "chip": "ym2612"
    },
    {
      "channel": 4,
      "note": 50,
      "start": 22.2985,
      "duration": 0.1968,
      "velocity": 113,
      "chip": "ym2612"
    },
    {
      "channel": 4,
      "note": 49,
      "start": 22.5148,
      "duration": 0.197,
      "velocity": 113,
      "chip": "ym2612"
    },
    {
      "channel": 2,
      "note": 52,
      "start": 22.5176,
      "duration": 0.0279,
      "velocity": 115,
      "chip": "ym2612"
    },
    {
      "channel": 0,
      "note": 55,
      "start": 22.5203,
      "duration": 0.0249,
      "velocity": 127,
      "chip": "ym2612"
    },
    {
      "channel": 4,
      "note": 47,
      "start": 22.7315,
      "duration": 0.1804,
      "velocity": 113,
      "chip": "ym2612"
    },
    {
      "channel": 5,
      "note": 73,
      "start": 22.7353,
      "duration": 0.0766,
      "velocity": 81,
      "chip": "ym2612"
    },
    {
      "channel": 5,
      "note": 74,
      "start": 22.8323,
      "duration": 0.0796,
      "velocity": 81,
      "chip": "ym2612"
    },
    {
      "channel": 4,
      "note": 49,
      "start": 22.932,
      "duration": 0.1798,
      "velocity": 113,
      "chip": "ym2612"
    },
    {
      "channel": 1,
      "note": 33,
      "start": 22.9347,
      "duration": 0.0438,
      "velocity": 110,
      "chip": "ym2612"
    },
    {
      "channel": 0,
      "note": 55,
      "start": 22.9377,
      "duration": 0.0407,
      "velocity": 127,
      "chip": "ym2612"
    },
    {
      "channel": 5,
      "note": 73,
      "start": 22.9409,
      "duration": 0.3043,
      "velocity": 81,
      "chip": "ym2612"
    },
    {
      "channel": 3,
      "note": 49,
      "start": 23.1485,
      "duration": 0.03,
      "velocity": 127,
      "chip": "ym2612"
    },
    {
      "channel": 5,
      "note": 71,
      "start": 23.2662,
      "duration": 0.179,
      "velocity": 81,
      "chip": "ym2612"
    },
    {
      "channel": 2,
      "note": 52,
      "start": 23.3649,
      "duration": 0.0305,
      "velocity": 115,
      "chip": "ym2612"
    },
    {
      "channel": 5,
      "note": 69,
      "start": 23.4659,
      "duration": 0.2962,
      "velocity": 81,
      "chip": "ym2612"
    },
    {
      "channel": 4,
      "note": 47,
      "start": 23.5818,
      "duration": 0.1802,
      "velocity": 113,
      "chip": "ym2612"
    },
    {
      "channel": 3,
      "note": 49,
      "start": 23.5849,
      "duration": 0.0269,
      "velocity": 127,
      "chip": "ym2612"
    },
    {
      "channel": 4,
      "note": 49,
      "start": 23.7817,
      "duration": 0.1968,
      "velocity": 113,
      "chip": "ym2612"
    },
    {
      "channel": 1,
      "note": 33,
      "start": 23.7842,
      "duration": 0.0442,
      "velocity": 110,
      "chip": "ym2612"
    },
    {
      "channel": 0,
      "note": 55,
      "start": 23.7876,
      "duration": 0.0408,
      "velocity": 127,
      "chip": "ym2612"
    },
    {
      "channel": 5,
      "note": 68,
      "start": 23.7911,
      "duration": 1.6208,
      "velocity": 81,
      "chip": "ym2612"
    },
    {
      "channel": 4,
      "note": 49,
      "start": 24.2154,
      "duration": 0.1798,
      "velocity": 113,
      "chip": "ym2612"
    },
    {
      "channel": 2,
      "note": 52,
      "start": 24.2182,
      "duration": 0.0272,
      "velocity": 115,
      "chip": "ym2612"
    },
    {
      "channel": 0,
      "note": 55,
      "start": 24.2209,
      "duration": 0.0242,
      "velocity": 127,
      "chip": "ym2612"
    },
    {
      "channel": 1,
      "note": 33,
      "start": 24.4315,
      "duration": 0.0303,
      "velocity": 110,
      "chip": "ym2612"
    },
    {
      "channel": 0,
      "note": 55,
      "start": 24.632,
      "duration": 0.0464,
      "velocity": 127,
      "chip": "ym2612"
    },
    {
      "channel": 1,
      "note": 33,
      "start": 24.8478,
      "duration": 0.0305,
      "velocity": 110,
      "chip": "ym2612"
    },
    {
      "channel": 3,
      "note": 49,
      "start": 24.8508,
      "duration": 0.0277,
      "velocity": 127,
      "chip": "ym2612"
    },
    {
      "channel": 4,
      "note": 49,
      "start": 25.0651,
      "duration": 0.1967,
      "velocity": 113,
      "chip": "ym2612"
    },
    {
      "channel": 2,
      "note": 52,
      "start": 25.068,
      "duration": 0.0273,
      "velocity": 115,
      "chip": "ym2612"
    },
    {
      "channel": 4,
      "note": 56,
      "start": 25.2818,
      "duration": 0.3966,
      "velocity": 113,
      "chip": "ym2612"
    },
    {
      "channel": 1,
      "note": 33,
      "start": 25.2844,
      "duration": 0.0274,
      "velocity": 110,
      "chip": "ym2612"
    },
    {
      "channel": 3,
      "note": 49,
      "start": 25.2879,
      "duration": 0.024,
      "velocity": 127,
      "chip": "ym2612"
    },
    {
      "channel": 1,
      "note": 33,
      "start": 25.4815,
      "duration": 0.047,
      "velocity": 110,
      "chip": "ym2612"
    },
    {
      "channel": 0,
      "note": 55,
      "start": 25.4844,
      "duration": 0.0439,
      "velocity": 127,
      "chip": "ym2612"
    },
    {
      "channel": 4,
      "note": 49,
      "start": 25.6985,
      "duration": 0.1968,
      "velocity": 113,
      "chip": "ym2612"
    },
    {
      "channel": 4,
      "note": 56,
      "start": 25.9148,
      "duration": 0.197,
      "velocity": 113,
      "chip": "ym2612"
    },
    {
      "channel": 2,
      "note": 52,
      "start": 25.9176,
      "duration": 0.0279,
      "velocity": 115,
      "chip": "ym2612"
    },
    {
      "channel": 0,
      "note": 55,
      "start": 25.9203,
      "duration": 0.0249,
      "velocity": 127,
      "chip": "ym2612"
    },
    {
      "channel": 4,
      "note": 49,
      "start": 26.1315,
      "duration": 0.1804,
      "velocity": 113,
      "chip": "ym2612"
    },
    {
      "channel": 4,
      "note": 54,
      "start": 26.3316,
      "duration": 0.197,
      "velocity": 113,
      "chip": "ym2612"
    },
    {
      "channel": 1,
      "note": 33,
      "start": 26.3342,
      "duration": 0.0443,
      "velocity": 110,
      "chip": "ym2612"
    },
    {
      "channel": 0,
      "note": 55,
      "start": 26.337,
      "duration": 0.0413,
      "velocity": 127,
      "chip": "ym2612"
    },
    {
      "channel": 4,
      "note": 56,
      "start": 26.5481,
      "duration": 0.1971,
      "velocity": 113,
      "chip": "ym2612"
    },
    {
      "channel": 1,
      "note": 33,
      "start": 26.5507,
      "duration": 0.0278,
      "velocity": 110,
      "chip": "ym2612"
    },
    {
      "channel": 3,
      "note": 49,
      "start": 26.5538,
      "duration": 0.0248,
      "velocity": 127,
      "chip": "ym2612"
    },
    {
      "channel": 4,
      "note": 54,
      "start": 26.7651,
      "duration": 0.1968,
      "velocity": 113,
      "chip": "ym2612"
    },
    {
      "channel": 2,
      "note": 52,
      "start": 26.768,
      "duration": 0.0274,
      "velocity": 115,
      "chip": "ym2612"
    },
    {
      "channel": 0,
      "note": 70,
      "start": 26.7706,
      "duration": 0.0244,
      "velocity": 127,
      "chip": "ym2612"
    },
    {
      "channel": 4,
      "note": 52,
      "start": 26.9816,
      "duration": 0.1803,
      "velocity": 113,
      "chip": "ym2612"
    },
    {
      "channel": 1,
      "note": 33,
      "start": 26.9841,
      "duration": 0.0277,
      "velocity": 110,
      "chip": "ym2612"
    },
    {
      "channel": 5,
      "note": 73,
      "start": 26.9877,
      "duration": 0.0743,
      "velocity": 81,
      "chip": "ym2612"
    },
    {
      "channel": 5,
      "note": 74,
      "start": 27.0823,
      "duration": 0.0798,
      "velocity": 81,
      "chip": "ym2612"
    },
    {
      "channel": 4,
      "note": 49,
      "start": 27.1817,
      "duration": 0.1968,
      "velocity": 113,
      "chip": "ym2612"
    },
    {
      "channel": 1,
      "note": 33,
      "start": 27.1846,
      "duration": 0.0438,
      "velocity": 110,
      "chip": "ym2612"
    },
    {
      "channel": 0,
      "note": 55,
      "start": 27.1874,
      "duration": 0.0409,
      "velocity": 127,
      "chip": "ym2612"
    },
    {
      "channel": 5,
      "note": 73,
      "start": 27.191,
      "duration": 0.621,
      "velocity": 81,
      "chip": "ym2612"
    },
    {
      "channel": 4,
      "note": 49,
      "start": 27.6149,
      "duration": 0.197,
      "velocity": 113,
      "chip": "ym2612"
    },
    {
      "channel": 2,
      "note": 52,
      "start": 27.6177,
      "duration": 0.0277,
      "velocity": 115,
      "chip": "ym2612"
    },
    {
      "channel": 0,
      "note": 55,
      "start": 27.6204,
      "duration": 0.0248,
      "velocity": 127,
      "chip": "ym2612"
    },
    {
      "channel": 1,
      "note": 33,
      "start": 27.8315,
      "duration": 0.0303,
      "velocity": 110,
      "chip": "ym2612"
    },
    {
      "channel": 5,
      "note": 71,
      "start": 27.8353,
      "duration": 0.06,
      "velocity": 81,
      "chip": "ym2612"
    },
    {
      "channel": 0,
      "note": 55,
      "start": 28.032,
      "duration": 0.0297,
      "velocity": 127,
      "chip": "ym2612"
    },
    {
      "channel": 1,
      "note": 33,
      "start": 28.2478,
      "duration": 0.0305,
      "velocity": 110,
      "chip": "ym2612"
    },
    {
      "channel": 3,
      "note": 49,
      "start": 28.2508,
      "duration": 0.0277,
      "velocity": 127,
      "chip": "ym2612"
    },
    {
      "channel": 4,
      "note": 47,
      "start": 28.465,
      "duration": 0.1969,
      "velocity": 113,
      "chip": "ym2612"
    },
    {
      "channel": 2,
      "note": 52,
      "start": 28.4678,
      "duration": 0.0276,
      "velocity": 115,
      "chip": "ym2612"
    },
    {
      "channel": 4,
      "note": 49,
      "start": 28.6818,
      "duration": 0.3967,
      "velocity": 113,
      "chip": "ym2612"
    },
    {
      "channel": 1,
      "note": 33,
      "start": 28.6843,
      "duration": 0.0274,
      "velocity": 110,
      "chip": "ym2612"
    },
    {
      "channel": 3,
      "note": 49,
      "start": 28.6874,
      "duration": 0.0245,
      "velocity": 127,
      "chip": "ym2612"
    },
    {
      "channel": 1,
      "note": 33,
      "start": 28.8815,
      "duration": 0.0303,
      "velocity": 110,
      "chip": "ym2612"
    },
    {
      "channel": 0,
      "note": 55,
      "start": 28.8844,
      "duration": 0.0272,
      "velocity": 127,
      "chip": "ym2612"
    },
    {
      "channel": 4,
      "note": 50,
      "start": 29.0985,
      "duration": 0.1967,
      "velocity": 113,
      "chip": "ym2612"
    },
    {
      "channel": 4,
      "note": 49,
      "start": 29.3148,
      "duration": 0.1971,
      "velocity": 113,
      "chip": "ym2612"
    },
    {
      "channel": 2,
      "note": 52,
      "start": 29.3179,
      "duration": 0.0275,
      "velocity": 115,
      "chip": "ym2612"
    },
    {
      "channel": 0,
      "note": 55,
      "start": 29.3206,
      "duration": 0.0244,
      "velocity": 127,
      "chip": "ym2612"
    },
    {
      "channel": 4,
      "note": 47,
      "start": 29.5315,
      "duration": 0.1804,
      "velocity": 113,
      "chip": "ym2612"
    },
    {
      "channel": 5,
      "note": 73,
      "start": 29.5353,
      "duration": 0.0766,
      "velocity": 81,
      "chip": "ym2612"
    },
    {
      "channel": 5,
      "note": 74,
      "start": 29.6323,
      "duration": 0.0796,
      "velocity": 81,
      "chip": "ym2612"
    },
    {
      "channel": 4,
      "note": 49,
      "start": 29.7323,
      "duration": 0.1795,
      "velocity": 113,
      "chip": "ym2612"
    },
    {
      "channel": 1,
      "note": 33,
      "start": 29.7347,
      "duration": 0.0272,
      "velocity": 110,
      "chip": "ym2612"
    },
    {
      "channel": 0,
      "note": 55,
      "start": 29.738,
      "duration": 0.0238,
      "velocity": 127,
      "chip": "ym2612"
    },
    {
      "channel": 5,
      "note": 73,
      "start": 29.7413,
      "duration": 0.2872,
      "velocity": 81,
      "chip": "ym2612"
    },
    {
      "channel": 3,
      "note": 49,
      "start": 29.9485,
      "duration": 0.03,
      "velocity": 127,
      "chip": "ym2612"
    },
    {
      "channel": 5,
      "note": 71,
      "start": 30.0492,
      "duration": 0.1961,
      "velocity": 81,
      "chip": "ym2612"
    },
    {
      "channel": 2,
      "note": 52,
      "start": 30.165,
      "duration": 0.0303,
      "velocity": 115,
      "chip": "ym2612"
    },
    {
      "channel": 5,
      "note": 69,
      "start": 30.2664,
      "duration": 0.2957,
      "velocity": 81,
      "chip": "ym2612"
    },
    {
      "channel": 4,
      "note": 47,
      "start": 30.3818,
      "duration": 0.1802,
      "velocity": 113,
      "chip": "ym2612"
    },
    {
      "channel": 3,
      "note": 49,
      "start": 30.3849,
      "duration": 0.0269,
      "velocity": 127,
      "chip": "ym2612"
    },
    {
      "channel": 4,
      "note": 49,
      "start": 30.5817,
      "duration": 0.1968,
      "velocity": 113,
      "chip": "ym2612"
    },
    {
      "channel": 1,
      "note": 33,
      "start": 30.5842,
      "duration": 0.0276,
      "velocity": 110,
      "chip": "ym2612"
    },
    {
      "channel": 0,
      "note": 55,
      "start": 30.5872,
      "duration": 0.0244,
      "velocity": 127,
      "chip": "ym2612"
    },
    {
      "channel": 5,
      "note": 68,
      "start": 30.5907,
      "duration": 1.6212,
      "velocity": 81,
      "chip": "ym2612"
    },
    {
      "channel": 4,
      "note": 49,
      "start": 31.015,
      "duration": 0.1969,
      "velocity": 113,
      "chip": "ym2612"
    },
    {
      "channel": 2,
      "note": 52,
      "start": 31.0178,
      "duration": 0.0277,
      "velocity": 115,
      "chip": "ym2612"
    },
    {
      "channel": 0,
      "note": 55,
      "start": 31.0204,
      "duration": 0.0247,
      "velocity": 127,
      "chip": "ym2612"
    },
    {
      "channel": 1,
      "note": 33,
      "start": 31.2315,
      "duration": 0.0303,
      "velocity": 110,
      "chip": "ym2612"
    },
    {
      "channel": 0,
      "note": 55,
      "start": 31.432,
      "duration": 0.0298,
      "velocity": 127,
      "chip": "ym2612"
    },
    {
      "channel": 1,
      "note": 33,
      "start": 31.648,
      "duration": 0.0304,
      "velocity": 110,
      "chip": "ym2612"
    },
    {
      "channel": 3,
      "note": 49,
      "start": 31.6513,
      "duration": 0.0272,
      "velocity": 127,
      "chip": "ym2612"
    },
    {
      "channel": 4,
      "note": 49,
      "start": 31.865,
      "duration": 0.1968,
      "velocity": 113,
      "chip": "ym2612"
    },
    {
      "channel": 2,
      "note": 52,
      "start": 31.8678,
      "duration": 0.0276,
      "velocity": 115,
      "chip": "ym2612"
    },
    {
      "channel": 4,
      "note": 59,
      "start": 32.0818,
      "duration": 0.3967,
      "velocity": 113,
      "chip": "ym2612"
    },
    {
      "channel": 1,
      "note": 33,
      "start": 32.0848,
      "duration": 0.027,
      "velocity": 110,
      "chip": "ym2612"
    },
    {
      "channel": 3,
      "note": 49,
      "start": 32.0879,
      "duration": 0.0241,
      "velocity": 127,
      "chip": "ym2612"
    },
    {
      "channel": 1,
      "note": 33,
      "start": 32.2815,
      "duration": 0.0304,
      "velocity": 110,
      "chip": "ym2612"
    },
    {
      "channel": 0,
      "note": 55,
      "start": 32.2844,
      "duration": 0.0273,
      "velocity": 127,
      "chip": "ym2612"
    },
    {
      "channel": 4,
      "note": 49,
      "start": 32.4988,
      "duration": 0.1964,
      "velocity": 113,
      "chip": "ym2612"
    },
    {
      "channel": 4,
      "note": 59,
      "start": 32.7148,
      "duration": 0.1804,
      "velocity": 113,
      "chip": "ym2612"
    },
    {
      "channel": 2,
      "note": 52,
      "start": 32.7176,
      "duration": 0.0279,
      "velocity": 115,
      "chip": "ym2612"
    },
    {
      "channel": 0,
      "note": 55,
      "start": 32.7202,
      "duration": 0.0249,
      "velocity": 127,
      "chip": "ym2612"
    },
    {
      "channel": 4,
      "note": 49,
      "start": 32.9315,
      "duration": 0.1804,
      "velocity": 113,
      "chip": "ym2612"
    },
    {
      "channel": 4,
      "note": 57,
      "start": 33.1315,
      "duration": 0.197,
      "velocity": 113,
      "chip": "ym2612"
    },
    {
      "channel": 1,
      "note": 33,
      "start": 33.1341,
      "duration": 0.0278,
      "velocity": 110,
      "chip": "ym2612"
    },
    {
      "channel": 0,
      "note": 55,
      "start": 33.1369,
      "duration": 0.0248,
      "velocity": 127,
      "chip": "ym2612"
    },
    {
      "channel": 4,
      "note": 59,
      "start": 33.3481,
      "duration": 0.197,
      "velocity": 113,
      "chip": "ym2612"
    },
    {
      "channel": 1,
      "note": 33,
      "start": 33.3507,
      "duration": 0.0277,
      "velocity": 110,
      "chip": "ym2612"
    },
    {
      "channel": 3,
      "note": 49,
      "start": 33.3538,
      "duration": 0.0248,
      "velocity": 127,
      "chip": "ym2612"
    },
    {
      "channel": 4,
      "note": 57,
      "start": 33.5648,
      "duration": 0.1805,
      "velocity": 113,
      "chip": "ym2612"
    },
    {
      "channel": 2,
      "note": 52,
      "start": 33.5675,
      "duration": 0.028,
      "velocity": 115,
      "chip": "ym2612"
    },
    {
      "channel": 0,
      "note": 70,
      "start": 33.5702,
      "duration": 0.025,
      "velocity": 127,
      "chip": "ym2612"
    },
    {
      "channel": 4,
      "note": 56,
      "start": 33.7815,
      "duration": 0.1804,
      "velocity": 113,
      "chip": "ym2612"
    },
    {
      "channel": 1,
      "note": 33,
      "start": 33.7841,
      "duration": 0.0278,
      "velocity": 110,
      "chip": "ym2612"
    },
    {
      "channel": 4,
      "note": 49,
      "start": 33.9817,
      "duration": 0.1968,
      "velocity": 113,
      "chip": "ym2612"
    },
    {
      "channel": 1,
      "note": 33,
      "start": 33.9842,
      "duration": 0.0276,
      "velocity": 110,
      "chip": "ym2612"
    },
    {
      "channel": 0,
      "note": 55,
      "start": 33.987,
      "duration": 0.0246,
      "velocity": 127,
      "chip": "ym2612"
    },
    {
      "channel": 5,
      "note": 80,
      "start": 33.9907,
      "duration": 0.4045,
      "velocity": 83,
      "chip": "ym2612"
    },
    {
      "channel": 2,
      "note": 56,
      "start": 33.9947,
      "duration": 3.3674,
      "velocity": 119,
      "chip": "ym2612"
    },
    {
      "channel": 4,
      "note": 49,
      "start": 34.415,
      "duration": 0.1803,
      "velocity": 113,
      "chip": "ym2612"
    },
    {
      "channel": 3,
      "note": 52,
      "start": 34.4177,
      "duration": 0.0276,
      "velocity": 115,
      "chip": "ym2612"
    },
    {
      "channel": 0,
      "note": 55,
      "start": 34.4204,
      "duration": 0.0248,
      "velocity": 127,
      "chip": "ym2612"
    },
    {
      "channel": 5,
      "note": 78,
      "start": 34.4239,
      "duration": 0.1715,
      "velocity": 83,
      "chip": "ym2612"
    },
    {
      "channel": 1,
      "note": 33,
      "start": 34.6315,
      "duration": 0.0304,
      "velocity": 110,
      "chip": "ym2612"
    },
    {
      "channel": 0,
      "note": 85,
      "start": 34.6351,
      "duration": 0.6265,
      "velocity": 81,
      "chip": "ym2612"
    },
    {
      "channel": 5,
      "note": 80,
      "start": 34.6383,
      "duration": 0.6571,
      "velocity": 83,
      "chip": "ym2612"
    },
    {
      "channel": 3,
      "note": 55,
      "start": 34.8322,
      "duration": 0.0295,
      "velocity": 127,
      "chip": "ym2612"
    },
    {
      "channel": 1,
      "note": 33,
      "start": 35.048,
      "duration": 0.0304,
      "velocity": 110,
      "chip": "ym2612"
    },
    {
      "channel": 4,
      "note": 49,
      "start": 35.051,
      "duration": 0.0275,
      "velocity": 127,
      "chip": "ym2612"
    },
    {
      "channel": 3,
      "note": 47,
      "start": 35.2651,
      "duration": 0.18,
      "velocity": 113,
      "chip": "ym2612"
    },
    {
      "channel": 1,
      "note": 52,
      "start": 35.2679,
      "duration": 0.0273,
      "velocity": 115,
      "chip": "ym2612"
    },
    {
      "channel": 0,
      "note": 83,
      "start": 35.2712,
      "duration": 0.0573,
      "velocity": 81,
      "chip": "ym2612"
    },
    {
      "channel": 4,
      "note": 81,
      "start": 35.2744,
      "duration": 0.1709,
      "velocity": 83,
      "chip": "ym2612"
    },
    {
      "channel": 3,
      "note": 49,
      "start": 35.4821,
      "duration": 0.3964,
      "velocity": 113,
      "chip": "ym2612"
    },
    {
      "channel": 1,
      "note": 33,
      "start": 35.4849,
      "duration": 0.0269,
      "velocity": 110,
      "chip": "ym2612"
    },
    {
      "channel": 5,
      "note": 49,
      "start": 35.4882,
      "duration": 0.0239,
      "velocity": 127,
      "chip": "ym2612"
    },
    {
      "channel": 4,
      "note": 78,
      "start": 35.4914,
      "duration": 0.1705,
      "velocity": 83,
      "chip": "ym2612"
    },
    {
      "channel": 1,
      "note": 33,
      "start": 35.6818,
      "duration": 0.03,
      "velocity": 110,
      "chip": "ym2612"
    },
    {
      "channel": 0,
      "note": 55,
      "start": 35.6854,
      "duration": 0.0263,
      "velocity": 127,
      "chip": "ym2612"
    },
    {
      "channel": 4,
      "note": 80,
      "start": 35.6892,
      "duration": 0.406,
      "velocity": 83,
      "chip": "ym2612"
    },
    {
      "channel": 3,
      "note": 50,
      "start": 35.8984,
      "duration": 0.1967,
      "velocity": 113,
      "chip": "ym2612"
    },
    {
      "channel": 3,
      "note": 49,
      "start": 36.1148,
      "duration": 0.1804,
      "velocity": 113,
      "chip": "ym2612"
    },
    {
      "channel": 5,
      "note": 52,
      "start": 36.1175,
      "duration": 0.0279,
      "velocity": 115,
      "chip": "ym2612"
    },
    {
      "channel": 0,
      "note": 55,
      "start": 36.1202,
      "duration": 0.0249,
      "velocity": 127,
      "chip": "ym2612"
    },
    {
      "channel": 4,
      "note": 78,
      "start": 36.1237,
      "duration": 0.1716,
      "velocity": 83,
      "chip": "ym2612"
    },
    {
      "channel": 3,
      "note": 47,
      "start": 36.3315,
      "duration": 0.1804,
      "velocity": 113,
      "chip": "ym2612"
    },
    {
      "channel": 1,
      "note": 85,
      "start": 36.3353,
      "duration": 0.6433,
      "velocity": 81,
      "chip": "ym2612"
    },
    {
      "channel": 4,
      "note": 80,
      "start": 36.3384,
      "duration": 0.6403,
      "velocity": 83,
      "chip": "ym2612"
    },
    {
      "channel": 3,
      "note": 49,
      "start": 36.5317,
      "duration": 0.1968,
      "velocity": 113,
      "chip": "ym2612"
    },
    {
      "channel": 0,
      "note": 33,
      "start": 36.5343,
      "duration": 0.0273,
      "velocity": 110,
      "chip": "ym2612"
    },
    {
      "channel": 5,
      "note": 55,
      "start": 36.5376,
      "duration": 0.0244,
      "velocity": 127,
      "chip": "ym2612"
    },
    {
      "channel": 0,
      "note": 49,
      "start": 36.7488,
      "duration": 0.0296,
      "velocity": 127,
      "chip": "ym2612"
    },
    {
      "channel": 5,
      "note": 52,
      "start": 36.9648,
      "duration": 0.0305,
      "velocity": 115,
      "chip": "ym2612"
    },
    {
      "channel": 3,
      "note": 86,
      "start": 36.9688,
      "duration": 0.1098,
      "velocity": 81,
      "chip": "ym2612"
    },
    {
      "channel": 0,
      "note": 81,
      "start": 36.9721,
      "duration": 0.173,
      "velocity": 83,
      "chip": "ym2612"
    },
    {
      "channel": 1,
      "note": 47,
      "start": 37.1652,
      "duration": 0.1966,
      "velocity": 113,
      "chip": "ym2612"
    },
    {
      "channel": 4,
      "note": 49,
      "start": 37.169,
      "duration": 0.043,
      "velocity": 127,
      "chip": "ym2612"
    },
    {
      "channel": 0,
      "note": 78,
      "start": 37.1721,
      "duration": 0.1896,
      "velocity": 83,
      "chip": "ym2612"
    },
    {
      "channel": 1,
      "note": 49,
      "start": 37.3816,
      "duration": 0.1968,
      "velocity": 113,
      "chip": "ym2612"
    },
    {
      "channel": 5,
      "note": 33,
      "start": 37.3844,
      "duration": 0.0275,
      "velocity": 110,
      "chip": "ym2612"
    },
    {
      "channel": 3,
      "note": 55,
      "start": 37.3876,
      "duration": 0.0242,
      "velocity": 127,
      "chip": "ym2612"
    },
    {
      "channel": 0,
      "note": 80,
      "start": 37.3909,
      "duration": 0.4042,
      "velocity": 83,
      "chip": "ym2612"
    },
    {
      "channel": 2,
      "note": 56,
      "start": 37.394,
      "duration": 3.3683,
      "velocity": 119,
      "chip": "ym2612"
    },
    {
      "channel": 1,
      "note": 49,
      "start": 37.815,
      "duration": 0.1635,
      "velocity": 113,
      "chip": "ym2612"
    },
    {
      "channel": 4,
      "note": 52,
      "start": 37.8178,
      "duration": 0.0276,
      "velocity": 115,
      "chip": "ym2612"
    },
    {
      "channel": 3,
      "note": 55,
      "start": 37.8206,
      "duration": 0.0247,
      "velocity": 127,
      "chip": "ym2612"
    },
    {
      "channel": 0,
      "note": 78,
      "start": 37.8243,
      "duration": 0.1709,
      "velocity": 83,
      "chip": "ym2612"
    },
    {
      "channel": 5,
      "note": 33,
      "start": 38.0149,
      "duration": 0.047,
      "velocity": 110,
      "chip": "ym2612"
    },
    {
      "channel": 3,
      "note": 85,
      "start": 38.0186,
      "duration": 0.6433,
      "velocity": 81,
      "chip": "ym2612"
    },
    {
      "channel": 0,
      "note": 80,
      "start": 38.0217,
      "duration": 0.6901,
      "velocity": 83,
      "chip": "ym2612"
    },
    {
      "channel": 4,
      "note": 55,
      "start": 38.2323,
      "duration": 0.0296,
      "velocity": 127,
      "chip": "ym2612"
    },
    {
      "channel": 5,
      "note": 33,
      "start": 38.448,
      "duration": 0.0307,
      "velocity": 110,
      "chip": "ym2612"
    },
    {
      "channel": 1,
      "note": 49,
      "start": 38.4511,
      "duration": 0.0273,
      "velocity": 127,
      "chip": "ym2612"
    },
    {
      "channel": 4,
      "note": 49,
      "start": 38.6657,
      "duration": 0.1795,
      "velocity": 113,
      "chip": "ym2612"
    },
    {
      "channel": 1,
      "note": 52,
      "start": 38.6685,
      "duration": 0.0267,
      "velocity": 115,
      "chip": "ym2612"
    },
    {
      "channel": 3,
      "note": 83,
      "start": 38.6718,
      "duration": 0.0734,
      "velocity": 81,
      "chip": "ym2612"
    },
    {
      "channel": 5,
      "note": 81,
      "start": 38.6751,
      "duration": 0.1702,
      "velocity": 83,
      "chip": "ym2612"
    },
    {
      "channel": 4,
      "note": 56,
      "start": 38.8651,
      "duration": 0.4134,
      "velocity": 113,
      "chip": "ym2612"
    },
    {
      "channel": 1,
      "note": 33,
      "start": 38.868,
      "duration": 0.0439,
      "velocity": 110,
      "chip": "ym2612"
    },
    {
      "channel": 0,
      "note": 49,
      "start": 38.8712,
      "duration": 0.0406,
      "velocity": 127,
      "chip": "ym2612"
    },
    {
      "channel": 5,
      "note": 78,
      "start": 38.8745,
      "duration": 0.1875,
      "velocity": 83,
      "chip": "ym2612"
    },
    {
      "channel": 1,
      "note": 33,
      "start": 39.0815,
      "duration": 0.0303,
      "velocity": 110,
      "chip": "ym2612"
    },
    {
      "channel": 3,
      "note": 55,
      "start": 39.0846,
      "duration": 0.0273,
      "velocity": 127,
      "chip": "ym2612"
    },
    {
      "channel": 5,
      "note": 80,
      "start": 39.0882,
      "duration": 0.4071,
      "velocity": 83,
      "chip": "ym2612"
    },
    {
      "channel": 4,
      "note": 49,
      "start": 39.2984,
      "duration": 0.1967,
      "velocity": 113,
      "chip": "ym2612"
    },
    {
      "channel": 4,
      "note": 56,
      "start": 39.5148,
      "duration": 0.1804,
      "velocity": 113,
      "chip": "ym2612"
    },
    {
      "channel": 0,
      "note": 52,
      "start": 39.5176,
      "duration": 0.0276,
      "velocity": 115,
      "chip": "ym2612"
    },
    {
      "channel": 3,
      "note": 55,
      "start": 39.5204,
      "duration": 0.0249,
      "velocity": 127,
      "chip": "ym2612"
    },
    {
      "channel": 5,
      "note": 78,
      "start": 39.5239,
      "duration": 0.1715,
      "velocity": 83,
      "chip": "ym2612"
    },
    {
      "channel": 4,
      "note": 49,
      "start": 39.7149,
      "duration": 0.197,
      "velocity": 113,
      "chip": "ym2612"
    },
    {
      "channel": 1,
      "note": 81,
      "start": 39.7187,
      "duration": 0.6431,
      "velocity": 81,
      "chip": "ym2612"
    },
    {
      "channel": 5,
      "note": 80,
      "start": 39.7222,
      "duration": 0.6732,
      "velocity": 83,
      "chip": "ym2612"
    },
    {
      "channel": 4,
      "note": 54,
      "start": 39.9316,
      "duration": 0.197,
      "velocity": 113,
      "chip": "ym2612"
    },
    {
      "channel": 0,
      "note": 33,
      "start": 39.9343,
      "duration": 0.0273,
      "velocity": 110,
      "chip": "ym2612"
    },
    {
      "channel": 3,
      "note": 55,
      "start": 39.9372,
      "duration": 0.0246,
      "velocity": 127,
      "chip": "ym2612"
    },
    {
      "channel": 4,
      "note": 56,
      "start": 40.1482,
      "duration": 0.1969,
      "velocity": 113,
      "chip": "ym2612"
    },
    {
      "channel": 0,
      "note": 33,
      "start": 40.1507,
      "duration": 0.0276,
      "velocity": 110,
      "chip": "ym2612"
    },
    {
      "channel": 3,
      "note": 49,
      "start": 40.154,
      "duration": 0.0246,
      "velocity": 127,
      "chip": "ym2612"
    },
    {
      "channel": 4,
      "note": 54,
      "start": 40.365,
      "duration": 0.1804,
      "velocity": 113,
      "chip": "ym2612"
    },
    {
      "channel": 0,
      "note": 52,
      "start": 40.3677,
      "duration": 0.0275,
      "velocity": 115,
      "chip": "ym2612"
    },
    {
      "channel": 3,
      "note": 70,
      "start": 40.3706,
      "duration": 0.0043,
      "velocity": 127,
      "chip": "ym2612"
    },
    {
      "channel": 1,
      "note": 80,
      "start": 40.3739,
      "duration": 0.0379,
      "velocity": 81,
      "chip": "ym2612"
    },
    {
      "channel": 3,
      "note": 81,
      "start": 40.3772,
      "duration": 0.168,
      "velocity": 83,
      "chip": "ym2612"
    },
    {
      "channel": 4,
      "note": 52,
      "start": 40.5649,
      "duration": 0.1971,
      "velocity": 113,
      "chip": "ym2612"
    },
    {
      "channel": 0,
      "note": 33,
      "start": 40.568,
      "duration": 0.0437,
      "velocity": 110,
      "chip": "ym2612"
    },
    {
      "channel": 3,
      "note": 78,
      "start": 40.5715,
      "duration": 0.1904,
      "velocity": 83,
      "chip": "ym2612"
    },
    {
      "channel": 4,
      "note": 49,
      "start": 40.7816,
      "duration": 0.1968,
      "velocity": 113,
      "chip": "ym2612"
    },
    {
      "channel": 0,
      "note": 33,
      "start": 40.7842,
      "duration": 0.0276,
      "velocity": 110,
      "chip": "ym2612"
    },
    {
      "channel": 5,
      "note": 55,
      "start": 40.7872,
      "duration": 0.0247,
      "velocity": 127,
      "chip": "ym2612"
    },
    {
      "channel": 3,
      "note": 80,
      "start": 40.7907,
      "duration": 0.4045,
      "velocity": 83,
      "chip": "ym2612"
    },
    {
      "channel": 2,
      "note": 56,
      "start": 40.7937,
      "duration": 3.3685,
      "velocity": 119,
      "chip": "ym2612"
    },
    {
      "channel": 4,
      "note": 49,
      "start": 41.2154,
      "duration": 0.18,
      "velocity": 113,
      "chip": "ym2612"
    },
    {
      "channel": 1,
      "note": 52,
      "start": 41.2181,
      "duration": 0.0271,
      "velocity": 115,
      "chip": "ym2612"
    },
    {
      "channel": 5,
      "note": 55,
      "start": 41.2213,
      "duration": 0.024,
      "velocity": 127,
      "chip": "ym2612"
    },
    {
      "channel": 3,
      "note": 78,
      "start": 41.2248,
      "duration": 0.1704,
      "velocity": 83,
      "chip": "ym2612"
    },
    {
      "channel": 0,
      "note": 33,
      "start": 41.4147,
      "duration": 0.0471,
      "velocity": 110,
      "chip": "ym2612"
    },
    {
      "channel": 3,
      "note": 80,
      "start": 41.4185,
      "duration": 0.6768,
      "velocity": 83,
      "chip": "ym2612"
    },
    {
      "channel": 5,
      "note": 55,
      "start": 41.6321,
      "duration": 0.0297,
      "velocity": 127,
      "chip": "ym2612"
    },
    {
      "channel": 1,
      "note": 85,
      "start": 41.6359,
      "duration": 0.1924,
      "velocity": 81,
      "chip": "ym2612"
    },
    {
      "channel": 0,
      "note": 33,
      "start": 41.8478,
      "duration": 0.0305,
      "velocity": 110,
      "chip": "ym2612"
    },
    {
      "channel": 4,
      "note": 49,
      "start": 41.8509,
      "duration": 0.0276,
      "velocity": 127,
      "chip": "ym2612"
    },
    {
      "channel": 1,
      "note": 83,
      "start": 41.854,
      "duration": 0.1912,
      "velocity": 81,
      "chip": "ym2612"
    },
    {
      "channel": 5,
      "note": 47,
      "start": 42.0651,
      "duration": 0.1802,
      "velocity": 113,
      "chip": "ym2612"
    },
    {
      "channel": 0,
      "note": 52,
      "start": 42.0678,
      "duration": 0.0273,
      "velocity": 115,
      "chip": "ym2612"
    },
    {
      "channel": 4,
      "note": 81,
      "start": 42.072,
      "duration": 0.1732,
      "velocity": 83,
      "chip": "ym2612"
    },
    {
      "channel": 5,
      "note": 49,
      "start": 42.2653,
      "duration": 0.4133,
      "velocity": 113,
      "chip": "ym2612"
    },
    {
      "channel": 1,
      "note": 33,
      "start": 42.2681,
      "duration": 0.0439,
      "velocity": 110,
      "chip": "ym2612"
    },
    {
      "channel": 0,
      "note": 49,
      "start": 42.2713,
      "duration": 0.0405,
      "velocity": 127,
      "chip": "ym2612"
    },
    {
      "channel": 3,
      "note": 81,
      "start": 42.2744,
      "duration": 0.1875,
      "velocity": 81,
      "chip": "ym2612"
    },
    {
      "channel": 4,
      "note": 78,
      "start": 42.2773,
      "duration": 0.1847,
      "velocity": 83,
      "chip": "ym2612"
    },
    {
      "channel": 1,
      "note": 33,
      "start": 42.4815,
      "duration": 0.0303,
      "velocity": 110,
      "chip": "ym2612"
    },
    {
      "channel": 0,
      "note": 55,
      "start": 42.4848,
      "duration": 0.0269,
      "velocity": 127,
      "chip": "ym2612"
    },
    {
      "channel": 4,
      "note": 80,
      "start": 42.4882,
      "duration": 0.407,
      "velocity": 83,
      "chip": "ym2612"
    },
    {
      "channel": 5,
      "note": 50,
      "start": 42.6985,
      "duration": 0.1968,
      "velocity": 113,
      "chip": "ym2612"
    },
    {
      "channel": 3,
      "note": 80,
      "start": 42.7019,
      "duration": 0.1932,
      "velocity": 81,
      "chip": "ym2612"
    },
    {
      "channel": 5,
      "note": 49,
      "start": 42.9148,
      "duration": 0.1805,
      "velocity": 113,
      "chip": "ym2612"
    },
    {
      "channel": 0,
      "note": 52,
      "start": 42.9179,
      "duration": 0.0272,
      "velocity": 115,
      "chip": "ym2612"
    },
    {
      "channel": 1,
      "note": 55,
      "start": 42.9209,
      "duration": 0.0244,
      "velocity": 127,
      "chip": "ym2612"
    },
    {
      "channel": 4,
      "note": 78,
      "start": 42.9244,
      "duration": 0.1709,
      "velocity": 83,
      "chip": "ym2612"
    },
    {
      "channel": 5,
      "note": 47,
      "start": 43.115,
      "duration": 0.197,
      "velocity": 113,
      "chip": "ym2612"
    },
    {
      "channel": 3,
      "note": 78,
      "start": 43.1186,
      "duration": 0.0933,
      "velocity": 81,
      "chip": "ym2612"
    },
    {
      "channel": 4,
      "note": 80,
      "start": 43.1217,
      "duration": 0.6902,
      "velocity": 83,
      "chip": "ym2612"
    },
    {
      "channel": 3,
      "note": 80,
      "start": 43.2323,
      "duration": 0.0795,
      "velocity": 81,
      "chip": "ym2612"
    },
    {
      "channel": 5,
      "note": 49,
      "start": 43.332,
      "duration": 0.18,
      "velocity": 113,
      "chip": "ym2612"
    },
    {
      "channel": 0,
      "note": 33,
      "start": 43.3346,
      "duration": 0.027,
      "velocity": 110,
      "chip": "ym2612"
    },
    {
      "channel": 1,
      "note": 55,
      "start": 43.3376,
      "duration": 0.0242,
      "velocity": 127,
      "chip": "ym2612"
    },
    {
      "channel": 3,
      "note": 81,
      "start": 43.3408,
      "duration": 0.4043,
      "velocity": 81,
      "chip": "ym2612"
    },
    {
      "channel": 0,
      "note": 49,
      "start": 43.5488,
      "duration": 0.0296,
      "velocity": 127,
      "chip": "ym2612"
    },
    {
      "channel": 1,
      "note": 52,
      "start": 43.7649,
      "duration": 0.0303,
      "velocity": 115,
      "chip": "ym2612"
    },
    {
      "channel": 3,
      "note": 78,
      "start": 43.7687,
      "duration": 0.1765,
      "velocity": 81,
      "chip": "ym2612"
    },
    {
      "channel": 5,
      "note": 81,
      "start": 43.772,
      "duration": 0.1733,
      "velocity": 83,
      "chip": "ym2612"
    },
    {
      "channel": 0,
      "note": 47,
      "start": 43.9657,
      "duration": 0.1961,
      "velocity": 113,
      "chip": "ym2612"
    },
    {
      "channel": 1,
      "note": 49,
      "start": 43.9695,
      "duration": 0.0424,
      "velocity": 127,
      "chip": "ym2612"
    },
    {
      "channel": 3,
      "note": 80,
      "start": 43.973,
      "duration": 1.7722,
      "velocity": 81,
      "chip": "ym2612"
    },
    {
      "channel": 4,
      "note": 71,
      "start": 43.9763,
      "duration": 0.1858,
      "velocity": 83,
      "chip": "ym2612"
    },
    {
      "channel": 0,
      "note": 49,
      "start": 44.1815,
      "duration": 0.1969,
      "velocity": 113,
      "chip": "ym2612"
    },
    {
      "channel": 5,
      "note": 33,
      "start": 44.1843,
      "duration": 0.0277,
      "velocity": 110,
      "chip": "ym2612"
    },
    {
      "channel": 1,
      "note": 55,
      "start": 44.1875,
      "duration": 0.0243,
      "velocity": 127,
      "chip": "ym2612"
    },
    {
      "channel": 4,
      "note": 73,
      "start": 44.191,
      "duration": 0.4043,
      "velocity": 83,
      "chip": "ym2612"
    },
    {
      "channel": 2,
      "note": 56,
      "start": 44.1944,
      "duration": 3.3676,
      "velocity": 119,
      "chip": "ym2612"
    },
    {
      "channel": 0,
      "note": 49,
      "start": 44.615,
      "duration": 0.1634,
      "velocity": 113,
      "chip": "ym2612"
    },
    {
      "channel": 1,
      "note": 52,
      "start": 44.6177,
      "duration": 0.0275,
      "velocity": 115,
      "chip": "ym2612"
    },
    {
      "channel": 5,
      "note": 55,
      "start": 44.6207,
      "duration": 0.0247,
      "velocity": 127,
      "chip": "ym2612"
    },
    {
      "channel": 4,
      "note": 71,
      "start": 44.6241,
      "duration": 0.1711,
      "velocity": 83,
      "chip": "ym2612"
    },
    {
      "channel": 1,
      "note": 33,
      "start": 44.815,
      "duration": 0.0468,
      "velocity": 110,
      "chip": "ym2612"
    },
    {
      "channel": 4,
      "note": 73,
      "start": 44.8188,
      "duration": 0.6765,
      "velocity": 83,
      "chip": "ym2612"
    },
    {
      "channel": 5,
      "note": 55,
      "start": 45.0322,
      "duration": 0.0298,
      "velocity": 127,
      "chip": "ym2612"
    },
    {
      "channel": 1,
      "note": 33,
      "start": 45.2483,
      "duration": 0.0302,
      "velocity": 110,
      "chip": "ym2612"
    },
    {
      "channel": 0,
      "note": 49,
      "start": 45.2514,
      "duration": 0.027,
      "velocity": 127,
      "chip": "ym2612"
    },
    {
      "channel": 5,
      "note": 49,
      "start": 45.4653,
      "duration": 0.1801,
      "velocity": 113,
      "chip": "ym2612"
    },
    {
      "channel": 0,
      "note": 52,
      "start": 45.468,
      "duration": 0.0272,
      "velocity": 115,
      "chip": "ym2612"
    },
    {
      "channel": 1,
      "note": 76,
      "start": 45.4718,
      "duration": 0.1734,
      "velocity": 83,
      "chip": "ym2612"
    },
    {
      "channel": 5,
      "note": 61,
      "start": 45.6652,
      "duration": 0.4133,
      "velocity": 113,
      "chip": "ym2612"
    },
    {
      "channel": 0,
      "note": 33,
      "start": 45.668,
      "duration": 0.0272,
      "velocity": 110,
      "chip": "ym2612"
    },
    {
      "channel": 4,
      "note": 49,
      "start": 45.6713,
      "duration": 0.0241,
      "velocity": 127,
      "chip": "ym2612"
    },
    {
      "channel": 1,
      "note": 71,
      "start": 45.6744,
      "duration": 0.1873,
      "velocity": 83,
      "chip": "ym2612"
    },
    {
      "channel": 0,
      "note": 33,
      "start": 45.8815,
      "duration": 0.0303,
      "velocity": 110,
      "chip": "ym2612"
    },
    {
      "channel": 4,
      "note": 55,
      "start": 45.8847,
      "duration": 0.0273,
      "velocity": 127,
      "chip": "ym2612"
    },
    {
      "channel": 1,
      "note": 73,
      "start": 45.8884,
      "duration": 0.4068,
      "velocity": 83,
      "chip": "ym2612"
    },
    {
      "channel": 5,
      "note": 49,
      "start": 46.0985,
      "duration": 0.1968,
      "velocity": 113,
      "chip": "ym2612"
    },
    {
      "channel": 5,
      "note": 61,
      "start": 46.3151,
      "duration": 0.1802,
      "velocity": 113,
      "chip": "ym2612"
    },
    {
      "channel": 3,
      "note": 52,
      "start": 46.3179,
      "duration": 0.0273,
      "velocity": 115,
      "chip": "ym2612"
    },
    {
      "channel": 4,
      "note": 55,
      "start": 46.3207,
      "duration": 0.0246,
      "velocity": 127,
      "chip": "ym2612"
    },
    {
      "channel": 1,
      "note": 71,
      "start": 46.3241,
      "duration": 0.1711,
      "velocity": 83,
      "chip": "ym2612"
    },
    {
      "channel": 5,
      "note": 49,
      "start": 46.515,
      "duration": 0.197,
      "velocity": 113,
      "chip": "ym2612"
    },
    {
      "channel": 1,
      "note": 73,
      "start": 46.5189,
      "duration": 0.5929,
      "velocity": 83,
      "chip": "ym2612"
    },
    {
      "channel": 5,
      "note": 59,
      "start": 46.7316,
      "duration": 0.1969,
      "velocity": 113,
      "chip": "ym2612"
    },
    {
      "channel": 0,
      "note": 33,
      "start": 46.7342,
      "duration": 0.0276,
      "velocity": 110,
      "chip": "ym2612"
    },
    {
      "channel": 4,
      "note": 55,
      "start": 46.7375,
      "duration": 0.0245,
      "velocity": 127,
      "chip": "ym2612"
    },
    {
      "channel": 5,
      "note": 57,
      "start": 46.9482,
      "duration": 0.1971,
      "velocity": 113,
      "chip": "ym2612"
    },
    {
      "channel": 0,
      "note": 33,
      "start": 46.9508,
      "duration": 0.0276,
      "velocity": 110,
      "chip": "ym2612"
    },
    {
      "channel": 3,
      "note": 49,
      "start": 46.954,
      "duration": 0.0245,
      "velocity": 127,
      "chip": "ym2612"
    },
    {
      "channel": 5,
      "note": 56,
      "start": 47.1648,
      "duration": 0.1805,
      "velocity": 113,
      "chip": "ym2612"
    },
    {
      "channel": 4,
      "note": 52,
      "start": 47.1676,
      "duration": 0.0277,
      "velocity": 115,
      "chip": "ym2612"
    },
    {
      "channel": 0,
      "note": 70,
      "start": 47.1706,
      "duration": 0.0245,
      "velocity": 127,
      "chip": "ym2612"
    },
    {
      "channel": 5,
      "note": 54,
      "start": 47.3651,
      "duration": 0.1801,
      "velocity": 113,
      "chip": "ym2612"
    },
    {
      "channel": 5,
      "note": 49,
      "start": 47.5819,
      "duration": 0.08,
      "velocity": 113,
      "chip": "ym2612"
    },
    {
      "channel": 0,
      "note": 55,
      "start": 47.5848,
      "duration": 0.027,
      "velocity": 127,
      "chip": "ym2612"
    },
    {
      "channel": 3,
      "note": 73,
      "start": 47.5879,
      "duration": 0.6239,
      "velocity": 127,
      "chip": "ym2612"
    },
    {
      "channel": 1,
      "note": 68,
      "start": 47.5915,
      "duration": 0.4537,
      "velocity": 123,
      "chip": "ym2612"
    },
    {
      "channel": 5,
      "note": 49,
      "start": 48.015,
      "duration": 0.0803,
      "velocity": 113,
      "chip": "ym2612"
    },
    {
      "channel": 4,
      "note": 52,
      "start": 48.0176,
      "duration": 0.0278,
      "velocity": 115,
      "chip": "ym2612"
    },
    {
      "channel": 0,
      "note": 55,
      "start": 48.0202,
      "duration": 0.0046,
      "velocity": 127,
      "chip": "ym2612"
    },
    {
      "channel": 2,
      "note": 61,
      "start": 48.0238,
      "duration": 0.2215,
      "velocity": 127,
      "chip": "ym2612"
    },
    {
      "channel": 0,
      "note": 61,
      "start": 48.027,
      "duration": 0.1681,
      "velocity": 123,
      "chip": "ym2612"
    },
    {
      "channel": 3,
      "note": 76,
      "start": 48.2157,
      "duration": 0.7128,
      "velocity": 127,
      "chip": "ym2612"
    },
    {
      "channel": 0,
      "note": 71,
      "start": 48.2186,
      "duration": 0.6599,
      "velocity": 123,
      "chip": "ym2612"
    },
    {
      "channel": 1,
      "note": 55,
      "start": 48.4322,
      "duration": 0.0296,
      "velocity": 127,
      "chip": "ym2612"
    },
    {
      "channel": 4,
      "note": 49,
      "start": 48.6488,
      "duration": 0.0298,
      "velocity": 127,
      "chip": "ym2612"
    },
    {
      "channel": 5,
      "note": 52,
      "start": 48.8649,
      "duration": 0.0304,
      "velocity": 115,
      "chip": "ym2612"
    },
    {
      "channel": 2,
      "note": 61,
      "start": 48.8683,
      "duration": 0.227,
      "velocity": 127,
      "chip": "ym2612"
    },
    {
      "channel": 1,
      "note": 61,
      "start": 48.8715,
      "duration": 0.1736,
      "velocity": 123,
      "chip": "ym2612"
    },
    {
      "channel": 4,
      "note": 49,
      "start": 49.0653,
      "duration": 0.0966,
      "velocity": 113,
      "chip": "ym2612"
    },
    {
      "channel": 0,
      "note": 49,
      "start": 49.0687,
      "duration": 0.0264,
      "velocity": 127,
      "chip": "ym2612"
    },
    {
      "channel": 3,
      "note": 73,
      "start": 49.0718,
      "duration": 0.6068,
      "velocity": 127,
      "chip": "ym2612"
    },
    {
      "channel": 1,
      "note": 68,
      "start": 49.0747,
      "duration": 0.5871,
      "velocity": 123,
      "chip": "ym2612"
    },
    {
      "channel": 5,
      "note": 55,
      "start": 49.2823,
      "duration": 0.0296,
      "velocity": 127,
      "chip": "ym2612"
    },
    {
      "channel": 0,
      "note": 52,
      "start": 49.7149,
      "duration": 0.0303,
      "velocity": 115,
      "chip": "ym2612"
    },
    {
      "channel": 5,
      "note": 55,
      "start": 49.7178,
      "duration": 0.0277,
      "velocity": 127,
      "chip": "ym2612"
    },
    {
      "channel": 3,
      "note": 61,
      "start": 49.7208,
      "duration": 0.2078,
      "velocity": 127,
      "chip": "ym2612"
    },
    {
      "channel": 1,
      "note": 61,
      "start": 49.7241,
      "duration": 0.1711,
      "velocity": 123,
      "chip": "ym2612"
    },
    {
      "channel": 2,
      "note": 76,
      "start": 49.9162,
      "duration": 0.7291,
      "velocity": 127,
      "chip": "ym2612"
    },
    {
      "channel": 1,
      "note": 71,
      "start": 49.9191,
      "duration": 0.6594,
      "velocity": 123,
      "chip": "ym2612"
    },
    {
      "channel": 5,
      "note": 55,
      "start": 50.1321,
      "duration": 0.0297,
      "velocity": 127,
      "chip": "ym2612"
    },
    {
      "channel": 4,
      "note": 49,
      "start": 50.3491,
      "duration": 0.0294,
      "velocity": 127,
      "chip": "ym2612"
    },
    {
      "channel": 0,
      "note": 52,
      "start": 50.5648,
      "duration": 0.0303,
      "velocity": 115,
      "chip": "ym2612"
    },
    {
      "channel": 3,
      "note": 61,
      "start": 50.5683,
      "duration": 0.1935,
      "velocity": 123,
      "chip": "ym2612"
    },
    {
      "channel": 0,
      "note": 52,
      "start": 50.7649,
      "duration": 0.0302,
      "velocity": 115,
      "chip": "ym2612"
    },
    {
      "channel": 4,
      "note": 49,
      "start": 50.7679,
      "duration": 0.0275,
      "velocity": 127,
      "chip": "ym2612"
    },
    {
      "channel": 1,
      "note": 68,
      "start": 50.7711,
      "duration": 0.6074,
      "velocity": 123,
      "chip": "ym2612"
    },
    {
      "channel": 5,
      "note": 49,
      "start": 50.9821,
      "duration": 0.0798,
      "velocity": 113,
      "chip": "ym2612"
    },
    {
      "channel": 2,
      "note": 55,
      "start": 50.9855,
      "duration": 0.0265,
      "velocity": 127,
      "chip": "ym2612"
    },
    {
      "channel": 3,
      "note": 73,
      "start": 50.9886,
      "duration": 0.6233,
      "velocity": 127,
      "chip": "ym2612"
    },
    {
      "channel": 5,
      "note": 49,
      "start": 51.415,
      "duration": 0.0802,
      "velocity": 113,
      "chip": "ym2612"
    },
    {
      "channel": 0,
      "note": 52,
      "start": 51.4176,
      "duration": 0.0276,
      "velocity": 115,
      "chip": "ym2612"
    },
    {
      "channel": 2,
      "note": 55,
      "start": 51.4206,
      "duration": 0.0249,
      "velocity": 127,
      "chip": "ym2612"
    },
    {
      "channel": 4,
      "note": 61,
      "start": 51.4237,
      "duration": 0.2215,
      "velocity": 127,
      "chip": "ym2612"
    },
    {
      "channel": 1,
      "note": 61,
      "start": 51.4267,
      "duration": 0.1684,
      "velocity": 123,
      "chip": "ym2612"
    },
    {
      "channel": 3,
      "note": 76,
      "start": 51.6158,
      "duration": 0.7127,
      "velocity": 127,
      "chip": "ym2612"
    },
    {
      "channel": 1,
      "note": 71,
      "start": 51.6187,
      "duration": 0.6431,
      "velocity": 123,
      "chip": "ym2612"
    },
    {
      "channel": 2,
      "note": 55,
      "start": 51.8323,
      "duration": 0.0296,
      "velocity": 127,
      "chip": "ym2612"
    },
    {
      "channel": 0,
      "note": 49,
      "start": 52.0488,
      "duration": 0.0296,
      "velocity": 127,
      "chip": "ym2612"
    },
    {
      "channel": 5,
      "note": 52,
      "start": 52.265,
      "duration": 0.0303,
      "velocity": 115,
      "chip": "ym2612"
    },
    {
      "channel": 4,
      "note": 61,
      "start": 52.2683,
      "duration": 0.227,
      "velocity": 127,
      "chip": "ym2612"
    },
    {
      "channel": 1,
      "note": 61,
      "start": 52.2717,
      "duration": 0.1735,
      "velocity": 123,
      "chip": "ym2612"
    },
    {
      "channel": 2,
      "note": 49,
      "start": 52.4654,
      "duration": 0.0966,
      "velocity": 113,
      "chip": "ym2612"
    },
    {
      "channel": 0,
      "note": 49,
      "start": 52.4685,
      "duration": 0.0266,
      "velocity": 127,
      "chip": "ym2612"
    },
    {
      "channel": 3,
      "note": 73,
      "start": 52.472,
      "duration": 0.6065,
      "velocity": 127,
      "chip": "ym2612"
    },
    {
      "channel": 1,
      "note": 68,
      "start": 52.4749,
      "duration": 0.5868,
      "velocity": 123,
      "chip": "ym2612"
    },
    {
      "channel": 5,
      "note": 55,
      "start": 52.6826,
      "duration": 0.0293,
      "velocity": 127,
      "chip": "ym2612"
    },
    {
      "channel": 0,
      "note": 52,
      "start": 53.1152,
      "duration": 0.03,
      "velocity": 115,
      "chip": "ym2612"
    },
    {
      "channel": 5,
      "note": 55,
      "start": 53.1181,
      "duration": 0.0273,
      "velocity": 127,
      "chip": "ym2612"
    },
    {
      "channel": 3,
      "note": 61,
      "start": 53.1211,
      "duration": 0.2074,
      "velocity": 127,
      "chip": "ym2612"
    },
    {
      "channel": 1,
      "note": 61,
      "start": 53.1241,
      "duration": 0.1711,
      "velocity": 123,
      "chip": "ym2612"
    },
    {
      "channel": 4,
      "note": 76,
      "start": 53.3157,
      "duration": 0.7296,
      "velocity": 127,
      "chip": "ym2612"
    },
    {
      "channel": 1,
      "note": 71,
      "start": 53.3186,
      "duration": 0.6599,
      "velocity": 123,
      "chip": "ym2612"
    },
    {
      "channel": 5,
      "note": 55,
      "start": 53.5321,
      "duration": 0.0299,
      "velocity": 127,
      "chip": "ym2612"
    },
    {
      "channel": 2,
      "note": 49,
      "start": 53.7489,
      "duration": 0.0297,
      "velocity": 127,
      "chip": "ym2612"
    },
    {
      "channel": 0,
      "note": 52,
      "start": 53.948,
      "duration": 0.047,
      "velocity": 115,
      "chip": "ym2612"
    },
    {
      "channel": 5,
      "note": 70,
      "start": 53.9509,
      "duration": 0.0445,
      "velocity": 127,
      "chip": "ym2612"
    },
    {
      "channel": 3,
      "note": 61,
      "start": 53.9542,
      "duration": 0.191,
      "velocity": 123,
      "chip": "ym2612"
    },
    {
      "channel": 0,
      "note": 52,
      "start": 54.1648,
      "duration": 0.0303,
      "velocity": 115,
      "chip": "ym2612"
    },
    {
      "channel": 2,
      "note": 49,
      "start": 54.3818,
      "duration": 0.0802,
      "velocity": 113,
      "chip": "ym2612"
    },
    {
      "channel": 5,
      "note": 55,
      "start": 54.3849,
      "duration": 0.0271,
      "velocity": 127,
      "chip": "ym2612"
    },
    {
      "channel": 4,
      "note": 73,
      "start": 54.388,
      "duration": 0.6239,
      "velocity": 127,
      "chip": "ym2612"
    },
    {
      "channel": 1,
      "note": 68,
      "start": 54.3912,
      "duration": 0.4541,
      "velocity": 123,
      "chip": "ym2612"
    },
    {
      "channel": 2,
      "note": 49,
      "start": 54.7985,
      "duration": 0.0969,
      "velocity": 113,
      "chip": "ym2612"
    },
    {
      "channel": 0,
      "note": 52,
      "start": 54.8011,
      "duration": 0.044,
      "velocity": 115,
      "chip": "ym2612"
    },
    {
      "channel": 5,
      "note": 55,
      "start": 54.804,
      "duration": 0.0042,
      "velocity": 127,
      "chip": "ym2612"
    },
    {
      "channel": 3,
      "note": 61,
      "start": 54.8071,
      "duration": 0.238,
      "velocity": 127,
      "chip": "ym2612"
    },
    {
      "channel": 5,
      "note": 61,
      "start": 54.8103,
      "duration": 0.185,
      "velocity": 123,
      "chip": "ym2612"
    },
    {
      "channel": 4,
      "note": 76,
      "start": 55.0158,
      "duration": 0.7128,
      "velocity": 127,
      "chip": "ym2612"
    },
    {
      "channel": 1,
      "note": 71,
      "start": 55.0187,
      "duration": 0.6598,
      "velocity": 123,
      "chip": "ym2612"
    },
    {
      "channel": 0,
      "note": 55,
      "start": 55.2323,
      "duration": 0.0293,
      "velocity": 127,
      "chip": "ym2612"
    },
    {
      "channel": 2,
      "note": 49,
      "start": 55.4488,
      "duration": 0.0298,
      "velocity": 127,
      "chip": "ym2612"
    },
    {
      "channel": 5,
      "note": 52,
      "start": 55.6482,
      "duration": 0.047,
      "velocity": 115,
      "chip": "ym2612"
    },
    {
      "channel": 3,
      "note": 61,
      "start": 55.6518,
      "duration": 0.2434,
      "velocity": 127,
      "chip": "ym2612"
    },
    {
      "channel": 0,
      "note": 61,
      "start": 55.655,
      "duration": 0.1901,
      "velocity": 123,
      "chip": "ym2612"
    },
    {
      "channel": 2,
      "note": 49,
      "start": 55.8653,
      "duration": 0.0967,
      "velocity": 113,
      "chip": "ym2612"
    },
    {
      "channel": 1,
      "note": 49,
      "start": 55.869,
      "duration": 0.0261,
      "velocity": 127,
      "chip": "ym2612"
    },
    {
      "channel": 4,
      "note": 73,
      "start": 55.8722,
      "duration": 0.6062,
      "velocity": 127,
      "chip": "ym2612"
    },
    {
      "channel": 0,
      "note": 68,
      "start": 55.8751,
      "duration": 0.5866,
      "velocity": 123,
      "chip": "ym2612"
    },
    {
      "channel": 5,
      "note": 55,
      "start": 56.0823,
      "duration": 0.0296,
      "velocity": 127,
      "chip": "ym2612"
    },
    {
      "channel": 1,
      "note": 52,
      "start": 56.4983,
      "duration": 0.0468,
      "velocity": 115,
      "chip": "ym2612"
    },
    {
      "channel": 5,
      "note": 55,
      "start": 56.5012,
      "duration": 0.0442,
      "velocity": 127,
      "chip": "ym2612"
    },
    {
      "channel": 3,
      "note": 61,
      "start": 56.5041,
      "duration": 0.2244,
      "velocity": 127,
      "chip": "ym2612"
    },
    {
      "channel": 0,
      "note": 61,
      "start": 56.5071,
      "duration": 0.1881,
      "velocity": 123,
      "chip": "ym2612"
    },
    {
      "channel": 4,
      "note": 76,
      "start": 56.7157,
      "duration": 0.7295,
      "velocity": 127,
      "chip": "ym2612"
    },
    {
      "channel": 0,
      "note": 71,
      "start": 56.7189,
      "duration": 0.6595,
      "velocity": 123,
      "chip": "ym2612"
    },
    {
      "channel": 5,
      "note": 55,
      "start": 56.9321,
      "duration": 0.0297,
      "velocity": 127,
      "chip": "ym2612"
    },
    {
      "channel": 2,
      "note": 49,
      "start": 57.1488,
      "duration": 0.0298,
      "velocity": 127,
      "chip": "ym2612"
    },
    {
      "channel": 1,
      "note": 52,
      "start": 57.3481,
      "duration": 0.0469,
      "velocity": 115,
      "chip": "ym2612"
    },
    {
      "channel": 3,
      "note": 61,
      "start": 57.3516,
      "duration": 0.2102,
      "velocity": 123,
      "chip": "ym2612"
    },
    {
      "channel": 1,
      "note": 52,
      "start": 57.565,
      "duration": 0.0302,
      "velocity": 115,
      "chip": "ym2612"
    },
    {
      "channel": 2,
      "note": 49,
      "start": 57.5681,
      "duration": 0.0273,
      "velocity": 127,
      "chip": "ym2612"
    },
    {
      "channel": 0,
      "note": 68,
      "start": 57.5712,
      "duration": 0.6071,
      "velocity": 123,
      "chip": "ym2612"
    },
    {
      "channel": 5,
      "note": 49,
      "start": 57.7818,
      "duration": 0.0802,
      "velocity": 113,
      "chip": "ym2612"
    },
    {
      "channel": 4,
      "note": 55,
      "start": 57.7851,
      "duration": 0.0267,
      "velocity": 127,
      "chip": "ym2612"
    },
    {
      "channel": 3,
      "note": 73,
      "start": 57.7883,
      "duration": 0.6235,
      "velocity": 127,
      "chip": "ym2612"
    },
    {
      "channel": 5,
      "note": 49,
      "start": 58.1987,
      "duration": 0.0966,
      "velocity": 113,
      "chip": "ym2612"
    },
    {
      "channel": 1,
      "note": 52,
      "start": 58.2013,
      "duration": 0.0438,
      "velocity": 115,
      "chip": "ym2612"
    },
    {
      "channel": 4,
      "note": 55,
      "start": 58.2045,
      "duration": 0.0407,
      "velocity": 127,
      "chip": "ym2612"
    },
    {
      "channel": 2,
      "note": 61,
      "start": 58.2081,
      "duration": 0.2372,
      "velocity": 127,
      "chip": "ym2612"
    },
    {
      "channel": 0,
      "note": 61,
      "start": 58.211,
      "duration": 0.1841,
      "velocity": 123,
      "chip": "ym2612"
    },
    {
      "channel": 3,
      "note": 76,
      "start": 58.4157,
      "duration": 0.7127,
      "velocity": 127,
      "chip": "ym2612"
    },
    {
      "channel": 0,
      "note": 71,
      "start": 58.4186,
      "duration": 0.6265,
      "velocity": 123,
      "chip": "ym2612"
    },
    {
      "channel": 4,
      "note": 55,
      "start": 58.6321,
      "duration": 0.0298,
      "velocity": 127,
      "chip": "ym2612"
    },
    {
      "channel": 1,
      "note": 49,
      "start": 58.8487,
      "duration": 0.0298,
      "velocity": 127,
      "chip": "ym2612"
    },
    {
      "channel": 5,
      "note": 52,
      "start": 59.0484,
      "duration": 0.0469,
      "velocity": 115,
      "chip": "ym2612"
    },
    {
      "channel": 2,
      "note": 61,
      "start": 59.0518,
      "duration": 0.2437,
      "velocity": 127,
      "chip": "ym2612"
    },
    {
      "channel": 0,
      "note": 61,
      "start": 59.055,
      "duration": 0.19,
      "velocity": 123,
      "chip": "ym2612"
    },
    {
      "channel": 4,
      "note": 59,
      "start": 59.2654,
      "duration": 0.4132,
      "velocity": 113,
      "chip": "ym2612"
    },
    {
      "channel": 1,
      "note": 49,
      "start": 59.2685,
      "duration": 0.0267,
      "velocity": 127,
      "chip": "ym2612"
    },
    {
      "channel": 3,
      "note": 73,
      "start": 59.2716,
      "duration": 0.6068,
      "velocity": 127,
      "chip": "ym2612"
    },
    {
      "channel": 0,
      "note": 68,
      "start": 59.2745,
      "duration": 0.5871,
      "velocity": 123,
      "chip": "ym2612"
    },
    {
      "channel": 5,
      "note": 55,
      "start": 59.4823,
      "duration": 0.0296,
      "velocity": 127,
      "chip": "ym2612"
    },
    {
      "channel": 4,
      "note": 49,
      "start": 59.6984,
      "duration": 0.1801,
      "velocity": 113,
      "chip": "ym2612"
    },
    {
      "channel": 4,
      "note": 59,
      "start": 59.8984,
      "duration": 0.0968,
      "velocity": 113,
      "chip": "ym2612"
    },
    {
      "channel": 1,
      "note": 52,
      "start": 59.9015,
      "duration": 0.0436,
      "velocity": 115,
      "chip": "ym2612"
    },
    {
      "channel": 5,
      "note": 55,
      "start": 59.9045,
      "duration": 0.0409,
      "velocity": 127,
      "chip": "ym2612"
    },
    {
      "channel": 3,
      "note": 61,
      "start": 59.9075,
      "duration": 0.2211,
      "velocity": 127,
      "chip": "ym2612"
    },
    {
      "channel": 0,
      "note": 61,
      "start": 59.9103,
      "duration": 0.1849,
      "velocity": 123,
      "chip": "ym2612"
    },
    {
      "channel": 2,
      "note": 76,
      "start": 60.1163,
      "duration": 0.7291,
      "velocity": 127,
      "chip": "ym2612"
    },
    {
      "channel": 0,
      "note": 71,
      "start": 60.1192,
      "duration": 0.6426,
      "velocity": 123,
      "chip": "ym2612"
    },
    {
      "channel": 4,
      "note": 59,
      "start": 60.3318,
      "duration": 0.1967,
      "velocity": 113,
      "chip": "ym2612"
    },
    {
      "channel": 5,
      "note": 55,
      "start": 60.3349,
      "duration": 0.027,
      "velocity": 127,
      "chip": "ym2612"
    },
    {
      "channel": 4,
      "note": 61,
      "start": 60.5483,
      "duration": 0.1802,
      "velocity": 113,
      "chip": "ym2612"
    },
    {
      "channel": 1,
      "note": 49,
      "start": 60.5517,
      "duration": 0.0267,
      "velocity": 127,
      "chip": "ym2612"
    },
    {
      "channel": 3,
      "note": 52,
      "start": 60.7483,
      "duration": 0.0469,
      "velocity": 115,
      "chip": "ym2612"
    },
    {
      "channel": 5,
      "note": 70,
      "start": 60.7512,
      "duration": 0.0441,
      "velocity": 127,
      "chip": "ym2612"
    },
    {
      "channel": 1,
      "note": 61,
      "start": 60.7546,
      "duration": 0.1905,
      "velocity": 123,
      "chip": "ym2612"
    },
    {
      "channel": 4,
      "note": 33,
      "start": 60.965,
      "duration": 0.0303,
      "velocity": 110,
      "chip": "ym2612"
    },
    {
      "channel": 3,
      "note": 52,
      "start": 60.9676,
      "duration": 0.0277,
      "velocity": 115,
      "chip": "ym2612"
    },
    {
      "channel": 0,
      "note": 49,
      "start": 61.1838,
      "duration": 0.128,
      "velocity": 121,
      "chip": "ym2612"
    },
    {
      "channel": 4,
      "note": 33,
      "start": 61.1865,
      "duration": 0.0254,
      "velocity": 110,
      "chip": "ym2612"
    },
    {
      "channel": 5,
      "note": 55,
      "start": 61.1895,
      "duration": 0.0226,
      "velocity": 127,
      "chip": "ym2612"
    },
    {
      "channel": 2,
      "note": 56,
      "start": 61.1932,
      "duration": 0.3855,
      "velocity": 118,
      "chip": "ym2612"
    },
    {
      "channel": 1,
      "note": 92,
      "start": 61.1968,
      "duration": 1.665,
      "velocity": 106,
      "chip": "ym2612"
    },
    {
      "channel": 0,
      "note": 49,
      "start": 61.5982,
      "duration": 0.1636,
      "velocity": 121,
      "chip": "ym2612"
    },
    {
      "channel": 3,
      "note": 52,
      "start": 61.6008,
      "duration": 0.0443,
      "velocity": 115,
      "chip": "ym2612"
    },
    {
      "channel": 5,
      "note": 55,
      "start": 61.6038,
      "duration": 0.0415,
      "velocity": 127,
      "chip": "ym2612"
    },
    {
      "channel": 2,
      "note": 61,
      "start": 61.6077,
      "duration": 0.1875,
      "velocity": 118,
      "chip": "ym2612"
    },
    {
      "channel": 4,
      "note": 33,
      "start": 61.8149,
      "duration": 0.0303,
      "velocity": 110,
      "chip": "ym2612"
    },
    {
      "channel": 2,
      "note": 56,
      "start": 61.8188,
      "duration": 0.4098,
      "velocity": 118,
      "chip": "ym2612"
    },
    {
      "channel": 5,
      "note": 55,
      "start": 62.0321,
      "duration": 0.0297,
      "velocity": 127,
      "chip": "ym2612"
    },
    {
      "channel": 0,
      "note": 47,
      "start": 62.2481,
      "duration": 0.1803,
      "velocity": 121,
      "chip": "ym2612"
    },
    {
      "channel": 4,
      "note": 33,
      "start": 62.251,
      "duration": 0.0276,
      "velocity": 110,
      "chip": "ym2612"
    },
    {
      "channel": 3,
      "note": 49,
      "start": 62.2545,
      "duration": 0.0241,
      "velocity": 127,
      "chip": "ym2612"
    },
    {
      "channel": 2,
      "note": 61,
      "start": 62.2582,
      "duration": 0.1705,
      "velocity": 118,
      "chip": "ym2612"
    },
    {
      "channel": 0,
      "note": 49,
      "start": 62.4478,
      "duration": 0.1973,
      "velocity": 121,
      "chip": "ym2612"
    },
    {
      "channel": 5,
      "note": 52,
      "start": 62.4505,
      "duration": 0.0281,
      "velocity": 115,
      "chip": "ym2612"
    },
    {
      "channel": 2,
      "note": 56,
      "start": 62.4541,
      "duration": 0.1913,
      "velocity": 118,
      "chip": "ym2612"
    },
    {
      "channel": 0,
      "note": 50,
      "start": 62.6652,
      "duration": 0.4132,
      "velocity": 121,
      "chip": "ym2612"
    },
    {
      "channel": 4,
      "note": 33,
      "start": 62.6679,
      "duration": 0.0274,
      "velocity": 110,
      "chip": "ym2612"
    },
    {
      "channel": 3,
      "note": 49,
      "start": 62.671,
      "duration": 0.0242,
      "velocity": 127,
      "chip": "ym2612"
    },
    {
      "channel": 2,
      "note": 59,
      "start": 62.6746,
      "duration": 0.4041,
      "velocity": 118,
      "chip": "ym2612"
    },
    {
      "channel": 4,
      "note": 33,
      "start": 62.8816,
      "duration": 0.0302,
      "velocity": 110,
      "chip": "ym2612"
    },
    {
      "channel": 5,
      "note": 55,
      "start": 62.8848,
      "duration": 0.0271,
      "velocity": 127,
      "chip": "ym2612"
    },
    {
      "channel": 1,
      "note": 95,
      "start": 62.888,
      "duration": 0.8237,
      "velocity": 106,
      "chip": "ym2612"
    },
    {
      "channel": 0,
      "note": 49,
      "start": 63.0981,
      "duration": 0.1802,
      "velocity": 121,
      "chip": "ym2612"
    },
    {
      "channel": 2,
      "note": 61,
      "start": 63.1021,
      "duration": 0.1765,
      "velocity": 118,
      "chip": "ym2612"
    },
    {
      "channel": 0,
      "note": 50,
      "start": 63.2982,
      "duration": 0.1802,
      "velocity": 121,
      "chip": "ym2612"
    },
    {
      "channel": 3,
      "note": 52,
      "start": 63.3009,
      "duration": 0.0277,
      "velocity": 115,
      "chip": "ym2612"
    },
    {
      "channel": 5,
      "note": 55,
      "start": 63.3038,
      "duration": 0.0249,
      "velocity": 127,
      "chip": "ym2612"
    },
    {
      "channel": 2,
      "note": 56,
      "start": 63.3075,
      "duration": 0.1878,
      "velocity": 118,
      "chip": "ym2612"
    },
    {
      "channel": 2,
      "note": 57,
      "start": 63.5163,
      "duration": 0.6123,
      "velocity": 118,
      "chip": "ym2612"
    },
    {
      "channel": 0,
      "note": 50,
      "start": 63.7316,
      "duration": 0.1968,
      "velocity": 121,
      "chip": "ym2612"
    },
    {
      "channel": 4,
      "note": 33,
      "start": 63.7341,
      "duration": 0.0277,
      "velocity": 110,
      "chip": "ym2612"
    },
    {
      "channel": 5,
      "note": 55,
      "start": 63.7376,
      "duration": 0.0243,
      "velocity": 127,
      "chip": "ym2612"
    },
    {
      "channel": 1,
      "note": 88,
      "start": 63.7406,
      "duration": 0.8212,
      "velocity": 106,
      "chip": "ym2612"
    },
    {
      "channel": 0,
      "note": 47,
      "start": 63.9481,
      "duration": 0.2969,
      "velocity": 121,
      "chip": "ym2612"
    },
    {
      "channel": 3,
      "note": 49,
      "start": 63.9513,
      "duration": 0.0272,
      "velocity": 127,
      "chip": "ym2612"
    },
    {
      "channel": 4,
      "note": 52,
      "start": 64.1482,
      "duration": 0.0303,
      "velocity": 115,
      "chip": "ym2612"
    },
    {
      "channel": 2,
      "note": 54,
      "start": 64.1521,
      "duration": 0.41,
      "velocity": 118,
      "chip": "ym2612"
    },
    {
      "channel": 0,
      "note": 47,
      "start": 64.3653,
      "duration": 0.1964,
      "velocity": 121,
      "chip": "ym2612"
    },
    {
      "channel": 3,
      "note": 49,
      "start": 64.3685,
      "duration": 0.0267,
      "velocity": 127,
      "chip": "ym2612"
    },
    {
      "channel": 0,
      "note": 49,
      "start": 64.5816,
      "duration": 0.1301,
      "velocity": 121,
      "chip": "ym2612"
    },
    {
      "channel": 5,
      "note": 33,
      "start": 64.5844,
      "duration": 0.0276,
      "velocity": 110,
      "chip": "ym2612"
    },
    {
      "channel": 4,
      "note": 55,
      "start": 64.5876,
      "duration": 0.0242,
      "velocity": 127,
      "chip": "ym2612"
    },
    {
      "channel": 2,
      "note": 56,
      "start": 64.5909,
      "duration": 0.3877,
      "velocity": 118,
      "chip": "ym2612"
    },
    {
      "channel": 1,
      "note": 92,
      "start": 64.594,
      "duration": 1.6679,
      "velocity": 106,
      "chip": "ym2612"
    },
    {
      "channel": 0,
      "note": 49,
      "start": 64.9982,
      "duration": 0.1636,
      "velocity": 121,
      "chip": "ym2612"
    },
    {
      "channel": 3,
      "note": 52,
      "start": 65.0009,
      "duration": 0.0277,
      "velocity": 115,
      "chip": "ym2612"
    },
    {
      "channel": 4,
      "note": 55,
      "start": 65.0038,
      "duration": 0.0249,
      "velocity": 127,
      "chip": "ym2612"
    },
    {
      "channel": 2,
      "note": 61,
      "start": 65.0073,
      "duration": 0.188,
      "velocity": 118,
      "chip": "ym2612"
    },
    {
      "channel": 5,
      "note": 33,
      "start": 65.215,
      "duration": 0.0303,
      "velocity": 110,
      "chip": "ym2612"
    },
    {
      "channel": 2,
      "note": 56,
      "start": 65.2189,
      "duration": 0.4097,
      "velocity": 118,
      "chip": "ym2612"
    },
    {
      "channel": 4,
      "note": 55,
      "start": 65.4322,
      "duration": 0.0296,
      "velocity": 127,
      "chip": "ym2612"
    },
    {
      "channel": 0,
      "note": 47,
      "start": 65.6482,
      "duration": 0.1802,
      "velocity": 121,
      "chip": "ym2612"
    },
    {
      "channel": 5,
      "note": 33,
      "start": 65.6508,
      "duration": 0.0278,
      "velocity": 110,
      "chip": "ym2612"
    },
    {
      "channel": 3,
      "note": 49,
      "start": 65.6538,
      "duration": 0.0246,
      "velocity": 127,
      "chip": "ym2612"
    },
    {
      "channel": 2,
      "note": 61,
      "start": 65.6579,
      "duration": 0.1707,
      "velocity": 118,
      "chip": "ym2612"
    },
    {
      "channel": 0,
      "note": 49,
      "start": 65.8478,
      "duration": 0.1972,
      "velocity": 121,
      "chip": "ym2612"
    },
    {
      "channel": 4,
      "note": 52,
      "start": 65.8506,
      "duration": 0.028,
      "velocity": 115,
      "chip": "ym2612"
    },
    {
      "channel": 2,
      "note": 56,
      "start": 65.8541,
      "duration": 0.1912,
      "velocity": 118,
      "chip": "ym2612"
    },
    {
      "channel": 0,
      "note": 50,
      "start": 66.0648,
      "duration": 0.3968,
      "velocity": 121,
      "chip": "ym2612"
    },
    {
      "channel": 5,
      "note": 33,
      "start": 66.0676,
      "duration": 0.0278,
      "velocity": 110,
      "chip": "ym2612"
    },
    {
      "channel": 3,
      "note": 49,
      "start": 66.0706,
      "duration": 0.0246,
      "velocity": 127,
      "chip": "ym2612"
    },
    {
      "channel": 2,
      "note": 59,
      "start": 66.0743,
      "duration": 0.3877,
      "velocity": 118,
      "chip": "ym2612"
    },
    {
      "channel": 5,
      "note": 33,
      "start": 66.2816,
      "duration": 0.0303,
      "velocity": 110,
      "chip": "ym2612"
    },
    {
      "channel": 4,
      "note": 55,
      "start": 66.2848,
      "duration": 0.0271,
      "velocity": 127,
      "chip": "ym2612"
    },
    {
      "channel": 1,
      "note": 95,
      "start": 66.2881,
      "duration": 0.8237,
      "velocity": 106,
      "chip": "ym2612"
    },
    {
      "channel": 0,
      "note": 49,
      "start": 66.4985,
      "duration": 0.1464,
      "velocity": 121,
      "chip": "ym2612"
    },
    {
      "channel": 2,
      "note": 61,
      "start": 66.5026,
      "duration": 0.176,
      "velocity": 118,
      "chip": "ym2612"
    },
    {
      "channel": 0,
      "note": 47,
      "start": 66.6982,
      "duration": 0.1969,
      "velocity": 121,
      "chip": "ym2612"
    },
    {
      "channel": 3,
      "note": 52,
      "start": 66.701,
      "duration": 0.0276,
      "velocity": 115,
      "chip": "ym2612"
    },
    {
      "channel": 4,
      "note": 55,
      "start": 66.7038,
      "duration": 0.0249,
      "velocity": 127,
      "chip": "ym2612"
    },
    {
      "channel": 2,
      "note": 56,
      "start": 66.7071,
      "duration": 0.1884,
      "velocity": 118,
      "chip": "ym2612"
    },
    {
      "channel": 2,
      "note": 57,
      "start": 66.9163,
      "duration": 0.6123,
      "velocity": 118,
      "chip": "ym2612"
    },
    {
      "channel": 0,
      "note": 47,
      "start": 67.1315,
      "duration": 0.1802,
      "velocity": 121,
      "chip": "ym2612"
    },
    {
      "channel": 5,
      "note": 33,
      "start": 67.1346,
      "duration": 0.0273,
      "velocity": 110,
      "chip": "ym2612"
    },
    {
      "channel": 4,
      "note": 55,
      "start": 67.1376,
      "duration": 0.0243,
      "velocity": 127,
      "chip": "ym2612"
    },
    {
      "channel": 1,
      "note": 88,
      "start": 67.1405,
      "duration": 0.8212,
      "velocity": 106,
      "chip": "ym2612"
    },
    {
      "channel": 5,
      "note": 33,
      "start": 67.3482,
      "duration": 0.0305,
      "velocity": 110,
      "chip": "ym2612"
    },
    {
      "channel": 3,
      "note": 49,
      "start": 67.3518,
      "duration": 0.0267,
      "velocity": 127,
      "chip": "ym2612"
    },
    {
      "channel": 4,
      "note": 52,
      "start": 67.5482,
      "duration": 0.0305,
      "velocity": 115,
      "chip": "ym2612"
    },
    {
      "channel": 0,
      "note": 70,
      "start": 67.5512,
      "duration": 0.0273,
      "velocity": 127,
      "chip": "ym2612"
    },
    {
      "channel": 2,
      "note": 54,
      "start": 67.5548,
      "duration": 0.4073,
      "velocity": 118,
      "chip": "ym2612"
    },
    {
      "channel": 5,
      "note": 33,
      "start": 67.765,
      "duration": 0.0302,
      "velocity": 110,
      "chip": "ym2612"
    },
    {
      "channel": 3,
      "note": 49,
      "start": 67.9818,
      "duration": 0.1467,
      "velocity": 121,
      "chip": "ym2612"
    },
    {
      "channel": 5,
      "note": 33,
      "start": 67.9846,
      "duration": 0.0273,
      "velocity": 110,
      "chip": "ym2612"
    },
    {
      "channel": 0,
      "note": 55,
      "start": 67.9874,
      "duration": 0.0243,
      "velocity": 127,
      "chip": "ym2612"
    },
    {
      "channel": 2,
      "note": 56,
      "start": 67.9907,
      "duration": 0.3879,
      "velocity": 118,
      "chip": "ym2612"
    },
    {
      "channel": 1,
      "note": 92,
      "start": 67.994,
      "duration": 1.6678,
      "velocity": 106,
      "chip": "ym2612"
    },
    {
      "channel": 3,
      "note": 49,
      "start": 68.3982,
      "duration": 0.1803,
      "velocity": 121,
      "chip": "ym2612"
    },
    {
      "channel": 4,
      "note": 52,
      "start": 68.4008,
      "duration": 0.0279,
      "velocity": 115,
      "chip": "ym2612"
    },
    {
      "channel": 0,
      "note": 55,
      "start": 68.4035,
      "duration": 0.0249,
      "velocity": 127,
      "chip": "ym2612"
    },
    {
      "channel": 2,
      "note": 61,
      "start": 68.4074,
      "duration": 0.188,
      "velocity": 118,
      "chip": "ym2612"
    },
    {
      "channel": 5,
      "note": 33,
      "start": 68.6148,
      "duration": 0.0305,
      "velocity": 110,
      "chip": "ym2612"
    },
    {
      "channel": 2,
      "note": 56,
      "start": 68.6188,
      "duration": 0.3932,
      "velocity": 118,
      "chip": "ym2612"
    },
    {
      "channel": 0,
      "note": 55,
      "start": 68.832,
      "duration": 0.0297,
      "velocity": 127,
      "chip": "ym2612"
    },
    {
      "channel": 3,
      "note": 47,
      "start": 69.0483,
      "duration": 0.1801,
      "velocity": 121,
      "chip": "ym2612"
    },
    {
      "channel": 5,
      "note": 33,
      "start": 69.0508,
      "duration": 0.0279,
      "velocity": 110,
      "chip": "ym2612"
    },
    {
      "channel": 4,
      "note": 49,
      "start": 69.054,
      "duration": 0.0246,
      "velocity": 127,
      "chip": "ym2612"
    },
    {
      "channel": 2,
      "note": 61,
      "start": 69.0576,
      "duration": 0.171,
      "velocity": 118,
      "chip": "ym2612"
    },
    {
      "channel": 3,
      "note": 49,
      "start": 69.248,
      "duration": 0.1972,
      "velocity": 121,
      "chip": "ym2612"
    },
    {
      "channel": 0,
      "note": 52,
      "start": 69.2507,
      "duration": 0.0278,
      "velocity": 115,
      "chip": "ym2612"
    },
    {
      "channel": 2,
      "note": 56,
      "start": 69.2542,
      "duration": 0.1912,
      "velocity": 118,
      "chip": "ym2612"
    },
    {
      "channel": 3,
      "note": 50,
      "start": 69.4654,
      "duration": 0.3964,
      "velocity": 121,
      "chip": "ym2612"
    },
    {
      "channel": 5,
      "note": 33,
      "start": 69.4681,
      "duration": 0.0273,
      "velocity": 110,
      "chip": "ym2612"
    },
    {
      "channel": 4,
      "note": 49,
      "start": 69.4712,
      "duration": 0.024,
      "velocity": 127,
      "chip": "ym2612"
    },
    {
      "channel": 2,
      "note": 59,
      "start": 69.4749,
      "duration": 0.3871,
      "velocity": 118,
      "chip": "ym2612"
    },
    {
      "channel": 5,
      "note": 33,
      "start": 69.6816,
      "duration": 0.0305,
      "velocity": 110,
      "chip": "ym2612"
    },
    {
      "channel": 0,
      "note": 55,
      "start": 69.6852,
      "duration": 0.0265,
      "velocity": 127,
      "chip": "ym2612"
    },
    {
      "channel": 1,
      "note": 95,
      "start": 69.6884,
      "duration": 0.8234,
      "velocity": 106,
      "chip": "ym2612"
    },
    {
      "channel": 3,
      "note": 49,
      "start": 69.8983,
      "duration": 0.1802,
      "velocity": 121,
      "chip": "ym2612"
    },
    {
      "channel": 2,
      "note": 61,
      "start": 69.9023,
      "duration": 0.1764,
      "velocity": 118,
      "chip": "ym2612"
    },
    {
      "channel": 3,
      "note": 50,
      "start": 70.0982,
      "duration": 0.1971,
      "velocity": 121,
      "chip": "ym2612"
    },
    {
      "channel": 4,
      "note": 52,
      "start": 70.1013,
      "duration": 0.0274,
      "velocity": 115,
      "chip": "ym2612"
    },
    {
      "channel": 0,
      "note": 55,
      "start": 70.104,
      "duration": 0.0246,
      "velocity": 127,
      "chip": "ym2612"
    },
    {
      "channel": 2,
      "note": 56,
      "start": 70.1076,
      "duration": 0.1878,
      "velocity": 118,
      "chip": "ym2612"
    },
    {
      "channel": 2,
      "note": 57,
      "start": 70.3162,
      "duration": 0.6124,
      "velocity": 118,
      "chip": "ym2612"
    },
    {
      "channel": 3,
      "note": 50,
      "start": 70.5316,
      "duration": 0.1802,
      "velocity": 121,
      "chip": "ym2612"
    },
    {
      "channel": 5,
      "note": 33,
      "start": 70.5342,
      "duration": 0.0278,
      "velocity": 110,
      "chip": "ym2612"
    },
    {
      "channel": 0,
      "note": 55,
      "start": 70.5371,
      "duration": 0.0246,
      "velocity": 127,
      "chip": "ym2612"
    },
    {
      "channel": 1,
      "note": 88,
      "start": 70.5401,
      "duration": 0.8218,
      "velocity": 106,
      "chip": "ym2612"
    },
    {
      "channel": 3,
      "note": 47,
      "start": 70.7316,
      "duration": 0.2636,
      "velocity": 121,
      "chip": "ym2612"
    },
    {
      "channel": 4,
      "note": 49,
      "start": 70.7348,
      "duration": 0.0437,
      "velocity": 127,
      "chip": "ym2612"
    },
    {
      "channel": 0,
      "note": 52,
      "start": 70.9482,
      "duration": 0.0302,
      "velocity": 115,
      "chip": "ym2612"
    },
    {
      "channel": 2,
      "note": 54,
      "start": 70.9521,
      "duration": 0.4101,
      "velocity": 118,
      "chip": "ym2612"
    },
    {
      "channel": 3,
      "note": 47,
      "start": 71.165,
      "duration": 0.1969,
      "velocity": 121,
      "chip": "ym2612"
    },
    {
      "channel": 4,
      "note": 49,
      "start": 71.1683,
      "duration": 0.027,
      "velocity": 127,
      "chip": "ym2612"
    },
    {
      "channel": 3,
      "note": 49,
      "start": 71.3818,
      "duration": 0.18,
      "velocity": 121,
      "chip": "ym2612"
    },
    {
      "channel": 5,
      "note": 33,
      "start": 71.3849,
      "duration": 0.027,
      "velocity": 110,
      "chip": "ym2612"
    },
    {
      "channel": 0,
      "note": 55,
      "start": 71.3882,
      "duration": 0.0235,
      "velocity": 127,
      "chip": "ym2612"
    },
    {
      "channel": 2,
      "note": 56,
      "start": 71.3915,
      "duration": 0.3871,
      "velocity": 118,
      "chip": "ym2612"
    },
    {
      "channel": 1,
      "note": 92,
      "start": 71.3945,
      "duration": 1.6673,
      "velocity": 106,
      "chip": "ym2612"
    },
    {
      "channel": 3,
      "note": 49,
      "start": 71.798,
      "duration": 0.1971,
      "velocity": 121,
      "chip": "ym2612"
    },
    {
      "channel": 4,
      "note": 52,
      "start": 71.8008,
      "duration": 0.0279,
      "velocity": 115,
      "chip": "ym2612"
    },
    {
      "channel": 0,
      "note": 55,
      "start": 71.8035,
      "duration": 0.025,
      "velocity": 127,
      "chip": "ym2612"
    },
    {
      "channel": 2,
      "note": 61,
      "start": 71.8071,
      "duration": 0.1883,
      "velocity": 118,
      "chip": "ym2612"
    },
    {
      "channel": 5,
      "note": 33,
      "start": 72.0149,
      "duration": 0.0304,
      "velocity": 110,
      "chip": "ym2612"
    },
    {
      "channel": 2,
      "note": 56,
      "start": 72.0188,
      "duration": 0.3931,
      "velocity": 118,
      "chip": "ym2612"
    },
    {
      "channel": 0,
      "note": 55,
      "start": 72.232,
      "duration": 0.0297,
      "velocity": 127,
      "chip": "ym2612"
    },
    {
      "channel": 3,
      "note": 47,
      "start": 72.4314,
      "duration": 0.1971,
      "velocity": 121,
      "chip": "ym2612"
    },
    {
      "channel": 5,
      "note": 33,
      "start": 72.434,
      "duration": 0.0446,
      "velocity": 110,
      "chip": "ym2612"
    },
    {
      "channel": 4,
      "note": 49,
      "start": 72.4371,
      "duration": 0.0414,
      "velocity": 127,
      "chip": "ym2612"
    },
    {
      "channel": 2,
      "note": 61,
      "start": 72.4412,
      "duration": 0.1875,
      "velocity": 118,
      "chip": "ym2612"
    },
    {
      "channel": 3,
      "note": 49,
      "start": 72.648,
      "duration": 0.1971,
      "velocity": 121,
      "chip": "ym2612"
    },
    {
      "channel": 0,
      "note": 52,
      "start": 72.6507,
      "duration": 0.0278,
      "velocity": 115,
      "chip": "ym2612"
    },
    {
      "channel": 2,
      "note": 56,
      "start": 72.6543,
      "duration": 0.1912,
      "velocity": 118,
      "chip": "ym2612"
    },
    {
      "channel": 3,
      "note": 50,
      "start": 72.865,
      "duration": 0.3969,
      "velocity": 121,
      "chip": "ym2612"
    },
    {
      "channel": 5,
      "note": 33,
      "start": 72.8677,
      "duration": 0.0277,
      "velocity": 110,
      "chip": "ym2612"
    },
    {
      "channel": 4,
      "note": 49,
      "start": 72.8708,
      "duration": 0.0244,
      "velocity": 127,
      "chip": "ym2612"
    },
    {
      "channel": 2,
      "note": 59,
      "start": 72.8745,
      "duration": 0.3875,
      "velocity": 118,
      "chip": "ym2612"
    },
    {
      "channel": 5,
      "note": 33,
      "start": 73.0816,
      "duration": 0.0303,
      "velocity": 110,
      "chip": "ym2612"
    },
    {
      "channel": 0,
      "note": 55,
      "start": 73.0849,
      "duration": 0.0268,
      "velocity": 127,
      "chip": "ym2612"
    },
    {
      "channel": 1,
      "note": 95,
      "start": 73.0881,
      "duration": 0.8237,
      "velocity": 106,
      "chip": "ym2612"
    },
    {
      "channel": 3,
      "note": 49,
      "start": 73.2816,
      "duration": 0.1969,
      "velocity": 121,
      "chip": "ym2612"
    },
    {
      "channel": 2,
      "note": 61,
      "start": 73.2856,
      "duration": 0.1931,
      "velocity": 118,
      "chip": "ym2612"
    },
    {
      "channel": 3,
      "note": 47,
      "start": 73.4981,
      "duration": 0.1971,
      "velocity": 121,
      "chip": "ym2612"
    },
    {
      "channel": 4,
      "note": 52,
      "start": 73.5008,
      "duration": 0.0278,
      "velocity": 115,
      "chip": "ym2612"
    },
    {
      "channel": 0,
      "note": 55,
      "start": 73.5036,
      "duration": 0.0248,
      "velocity": 127,
      "chip": "ym2612"
    },
    {
      "channel": 2,
      "note": 56,
      "start": 73.5068,
      "duration": 0.1886,
      "velocity": 118,
      "chip": "ym2612"
    },
    {
      "channel": 2,
      "note": 57,
      "start": 73.7162,
      "duration": 0.6123,
      "velocity": 118,
      "chip": "ym2612"
    },
    {
      "channel": 3,
      "note": 47,
      "start": 73.932,
      "duration": 0.1798,
      "velocity": 121,
      "chip": "ym2612"
    },
    {
      "channel": 5,
      "note": 33,
      "start": 73.9347,
      "duration": 0.0273,
      "velocity": 110,
      "chip": "ym2612"
    },
    {
      "channel": 0,
      "note": 55,
      "start": 73.9375,
      "duration": 0.0243,
      "velocity": 127,
      "chip": "ym2612"
    },
    {
      "channel": 1,
      "note": 88,
      "start": 73.9408,
      "duration": 0.8209,
      "velocity": 106,
      "chip": "ym2612"
    },
    {
      "channel": 5,
      "note": 33,
      "start": 74.1315,
      "duration": 0.0471,
      "velocity": 110,
      "chip": "ym2612"
    },
    {
      "channel": 4,
      "note": 49,
      "start": 74.1351,
      "duration": 0.0434,
      "velocity": 127,
      "chip": "ym2612"
    },
    {
      "channel": 0,
      "note": 52,
      "start": 74.3482,
      "duration": 0.0302,
      "velocity": 115,
      "chip": "ym2612"
    },
    {
      "channel": 3,
      "note": 70,
      "start": 74.3512,
      "duration": 0.0274,
      "velocity": 127,
      "chip": "ym2612"
    },
    {
      "channel": 2,
      "note": 54,
      "start": 74.3548,
      "duration": 0.4073,
      "velocity": 118,
      "chip": "ym2612"
    },
    {
      "channel": 5,
      "note": 33,
      "start": 74.565,
      "duration": 0.0303,
      "velocity": 110,
      "chip": "ym2612"
    },
    {
      "channel": 4,
      "note": 56,
      "start": 74.7818,
      "duration": 0.1801,
      "velocity": 121,
      "chip": "ym2612"
    },
    {
      "channel": 5,
      "note": 33,
      "start": 74.7845,
      "duration": 0.0275,
      "velocity": 110,
      "chip": "ym2612"
    },
    {
      "channel": 3,
      "note": 55,
      "start": 74.7874,
      "duration": 0.0244,
      "velocity": 127,
      "chip": "ym2612"
    },
    {
      "channel": 2,
      "note": 56,
      "start": 74.7907,
      "duration": 0.3878,
      "velocity": 118,
      "chip": "ym2612"
    },
    {
      "channel": 1,
      "note": 92,
      "start": 74.7937,
      "duration": 1.6681,
      "velocity": 106,
      "chip": "ym2612"
    },
    {
      "channel": 4,
      "note": 56,
      "start": 75.1981,
      "duration": 0.1971,
      "velocity": 121,
      "chip": "ym2612"
    },
    {
      "channel": 0,
      "note": 52,
      "start": 75.2006,
      "duration": 0.0279,
      "velocity": 115,
      "chip": "ym2612"
    },
    {
      "channel": 3,
      "note": 55,
      "start": 75.2034,
      "duration": 0.0253,
      "velocity": 127,
      "chip": "ym2612"
    },
    {
      "channel": 2,
      "note": 61,
      "start": 75.2073,
      "duration": 0.1881,
      "velocity": 118,
      "chip": "ym2612"
    },
    {
      "channel": 5,
      "note": 33,
      "start": 75.4153,
      "duration": 0.03,
      "velocity": 110,
      "chip": "ym2612"
    },
    {
      "channel": 2,
      "note": 56,
      "start": 75.4192,
      "duration": 0.3927,
      "velocity": 118,
      "chip": "ym2612"
    },
    {
      "channel": 3,
      "note": 55,
      "start": 75.6324,
      "duration": 0.0294,
      "velocity": 127,
      "chip": "ym2612"
    },
    {
      "channel": 4,
      "note": 54,
      "start": 75.8315,
      "duration": 0.1971,
      "velocity": 121,
      "chip": "ym2612"
    },
    {
      "channel": 5,
      "note": 33,
      "start": 75.834,
      "duration": 0.0447,
      "velocity": 110,
      "chip": "ym2612"
    },
    {
      "channel": 0,
      "note": 49,
      "start": 75.8371,
      "duration": 0.0413,
      "velocity": 127,
      "chip": "ym2612"
    },
    {
      "channel": 2,
      "note": 61,
      "start": 75.8408,
      "duration": 0.1879,
      "velocity": 118,
      "chip": "ym2612"
    },
    {
      "channel": 4,
      "note": 56,
      "start": 76.0479,
      "duration": 0.1973,
      "velocity": 121,
      "chip": "ym2612"
    },
    {
      "channel": 3,
      "note": 52,
      "start": 76.0507,
      "duration": 0.0279,
      "velocity": 115,
      "chip": "ym2612"
    },
    {
      "channel": 2,
      "note": 56,
      "start": 76.0542,
      "duration": 0.1912,
      "velocity": 118,
      "chip": "ym2612"
    },
    {
      "channel": 4,
      "note": 57,
      "start": 76.265,
      "duration": 0.3968,
      "velocity": 121,
      "chip": "ym2612"
    },
    {
      "channel": 5,
      "note": 33,
      "start": 76.2678,
      "duration": 0.0276,
      "velocity": 110,
      "chip": "ym2612"
    },
    {
      "channel": 0,
      "note": 49,
      "start": 76.2707,
      "duration": 0.0243,
      "velocity": 127,
      "chip": "ym2612"
    },
    {
      "channel": 2,
      "note": 59,
      "start": 76.2744,
      "duration": 0.3875,
      "velocity": 118,
      "chip": "ym2612"
    },
    {
      "channel": 5,
      "note": 33,
      "start": 76.4816,
      "duration": 0.0303,
      "velocity": 110,
      "chip": "ym2612"
    },
    {
      "channel": 3,
      "note": 55,
      "start": 76.4849,
      "duration": 0.0269,
      "velocity": 127,
      "chip": "ym2612"
    },
    {
      "channel": 1,
      "note": 95,
      "start": 76.4881,
      "duration": 0.8237,
      "velocity": 106,
      "chip": "ym2612"
    },
    {
      "channel": 4,
      "note": 56,
      "start": 76.6816,
      "duration": 0.1968,
      "velocity": 121,
      "chip": "ym2612"
    },
    {
      "channel": 2,
      "note": 61,
      "start": 76.6856,
      "duration": 0.193,
      "velocity": 118,
      "chip": "ym2612"
    },
    {
      "channel": 4,
      "note": 57,
      "start": 76.8982,
      "duration": 0.1971,
      "velocity": 121,
      "chip": "ym2612"
    },
    {
      "channel": 0,
      "note": 52,
      "start": 76.9009,
      "duration": 0.0276,
      "velocity": 115,
      "chip": "ym2612"
    },
    {
      "channel": 3,
      "note": 55,
      "start": 76.9037,
      "duration": 0.025,
      "velocity": 127,
      "chip": "ym2612"
    },
    {
      "channel": 2,
      "note": 56,
      "start": 76.9073,
      "duration": 0.1881,
      "velocity": 118,
      "chip": "ym2612"
    },
    {
      "channel": 2,
      "note": 57,
      "start": 77.1162,
      "duration": 0.6125,
      "velocity": 118,
      "chip": "ym2612"
    },
    {
      "channel": 4,
      "note": 57,
      "start": 77.332,
      "duration": 0.1798,
      "velocity": 121,
      "chip": "ym2612"
    },
    {
      "channel": 5,
      "note": 33,
      "start": 77.3346,
      "duration": 0.0273,
      "velocity": 110,
      "chip": "ym2612"
    },
    {
      "channel": 3,
      "note": 55,
      "start": 77.3376,
      "duration": 0.0241,
      "velocity": 127,
      "chip": "ym2612"
    },
    {
      "channel": 1,
      "note": 88,
      "start": 77.3406,
      "duration": 0.8212,
      "velocity": 106,
      "chip": "ym2612"
    },
    {
      "channel": 4,
      "note": 54,
      "start": 77.5316,
      "duration": 0.197,
      "velocity": 121,
      "chip": "ym2612"
    },
    {
      "channel": 0,
      "note": 49,
      "start": 77.5348,
      "duration": 0.0436,
      "velocity": 127,
      "chip": "ym2612"
    },
    {
      "channel": 3,
      "note": 52,
      "start": 77.7482,
      "duration": 0.0304,
      "velocity": 115,
      "chip": "ym2612"
    },
    {
      "channel": 2,
      "note": 54,
      "start": 77.752,
      "duration": 0.4101,
      "velocity": 118,
      "chip": "ym2612"
    },
    {
      "channel": 4,
      "note": 54,
      "start": 77.965,
      "duration": 0.1802,
      "velocity": 121,
      "chip": "ym2612"
    },
    {
      "channel": 0,
      "note": 49,
      "start": 77.9681,
      "duration": 0.0269,
      "velocity": 127,
      "chip": "ym2612"
    },
    {
      "channel": 4,
      "note": 56,
      "start": 78.1818,
      "duration": 0.1467,
      "velocity": 121,
      "chip": "ym2612"
    },
    {
      "channel": 5,
      "note": 33,
      "start": 78.1844,
      "duration": 0.0276,
      "velocity": 110,
      "chip": "ym2612"
    },
    {
      "channel": 3,
      "note": 55,
      "start": 78.1877,
      "duration": 0.0242,
      "velocity": 127,
      "chip": "ym2612"
    },
    {
      "channel": 2,
      "note": 56,
      "start": 78.191,
      "duration": 0.3876,
      "velocity": 118,
      "chip": "ym2612"
    },
    {
      "channel": 1,
      "note": 92,
      "start": 78.194,
      "duration": 1.6678,
      "velocity": 106,
      "chip": "ym2612"
    },
    {
      "channel": 4,
      "note": 56,
      "start": 78.5982,
      "duration": 0.197,
      "velocity": 121,
      "chip": "ym2612"
    },
    {
      "channel": 0,
      "note": 52,
      "start": 78.601,
      "duration": 0.0276,
      "velocity": 115,
      "chip": "ym2612"
    },
    {
      "channel": 3,
      "note": 55,
      "start": 78.6038,
      "duration": 0.0249,
      "velocity": 127,
      "chip": "ym2612"
    },
    {
      "channel": 2,
      "note": 61,
      "start": 78.6073,
      "duration": 0.1881,
      "velocity": 118,
      "chip": "ym2612"
    },
    {
      "channel": 5,
      "note": 33,
      "start": 78.8149,
      "duration": 0.0303,
      "velocity": 110,
      "chip": "ym2612"
    },
    {
      "channel": 2,
      "note": 56,
      "start": 78.8188,
      "duration": 0.3931,
      "velocity": 118,
      "chip": "ym2612"
    },
    {
      "channel": 3,
      "note": 55,
      "start": 79.0321,
      "duration": 0.0297,
      "velocity": 127,
      "chip": "ym2612"
    },
    {
      "channel": 4,
      "note": 54,
      "start": 79.2315,
      "duration": 0.197,
      "velocity": 121,
      "chip": "ym2612"
    },
    {
      "channel": 5,
      "note": 33,
      "start": 79.2341,
      "duration": 0.0279,
      "velocity": 110,
      "chip": "ym2612"
    },
    {
      "channel": 0,
      "note": 49,
      "start": 79.2372,
      "duration": 0.0246,
      "velocity": 127,
      "chip": "ym2612"
    },
    {
      "channel": 2,
      "note": 61,
      "start": 79.2412,
      "duration": 0.1874,
      "velocity": 118,
      "chip": "ym2612"
    },
    {
      "channel": 4,
      "note": 56,
      "start": 79.448,
      "duration": 0.1972,
      "velocity": 121,
      "chip": "ym2612"
    },
    {
      "channel": 3,
      "note": 52,
      "start": 79.4507,
      "duration": 0.0278,
      "velocity": 115,
      "chip": "ym2612"
    },
    {
      "channel": 2,
      "note": 56,
      "start": 79.4543,
      "duration": 0.1911,
      "velocity": 118,
      "chip": "ym2612"
    },
    {
      "channel": 4,
      "note": 57,
      "start": 79.6655,
      "duration": 0.3964,
      "velocity": 121,
      "chip": "ym2612"
    },
    {
      "channel": 5,
      "note": 33,
      "start": 79.6681,
      "duration": 0.0272,
      "velocity": 110,
      "chip": "ym2612"
    },
    {
      "channel": 0,
      "note": 49,
      "start": 79.6715,
      "duration": 0.0236,
      "velocity": 127,
      "chip": "ym2612"
    },
    {
      "channel": 2,
      "note": 59,
      "start": 79.6752,
      "duration": 0.3868,
      "velocity": 118,
      "chip": "ym2612"
    },
    {
      "channel": 5,
      "note": 33,
      "start": 79.882,
      "duration": 0.0299,
      "velocity": 110,
      "chip": "ym2612"
    },
    {
      "channel": 3,
      "note": 55,
      "start": 79.8853,
      "duration": 0.0265,
      "velocity": 127,
      "chip": "ym2612"
    },
    {
      "channel": 1,
      "note": 95,
      "start": 79.8889,
      "duration": 0.8229,
      "velocity": 106,
      "chip": "ym2612"
    },
    {
      "channel": 4,
      "note": 56,
      "start": 80.0816,
      "duration": 0.1802,
      "velocity": 121,
      "chip": "ym2612"
    },
    {
      "channel": 2,
      "note": 61,
      "start": 80.0856,
      "duration": 0.1929,
      "velocity": 118,
      "chip": "ym2612"
    },
    {
      "channel": 4,
      "note": 54,
      "start": 80.2984,
      "duration": 0.1968,
      "velocity": 121,
      "chip": "ym2612"
    },
    {
      "channel": 0,
      "note": 52,
      "start": 80.3011,
      "duration": 0.0274,
      "velocity": 115,
      "chip": "ym2612"
    },
    {
      "channel": 3,
      "note": 55,
      "start": 80.3039,
      "duration": 0.0247,
      "velocity": 127,
      "chip": "ym2612"
    },
    {
      "channel": 2,
      "note": 56,
      "start": 80.3071,
      "duration": 0.1882,
      "velocity": 118,
      "chip": "ym2612"
    },
    {
      "channel": 2,
      "note": 57,
      "start": 80.5162,
      "duration": 0.6124,
      "velocity": 118,
      "chip": "ym2612"
    },
    {
      "channel": 4,
      "note": 54,
      "start": 80.7316,
      "duration": 0.1803,
      "velocity": 121,
      "chip": "ym2612"
    },
    {
      "channel": 5,
      "note": 33,
      "start": 80.7343,
      "duration": 0.0277,
      "velocity": 110,
      "chip": "ym2612"
    },
    {
      "channel": 3,
      "note": 55,
      "start": 80.7372,
      "duration": 0.0246,
      "velocity": 127,
      "chip": "ym2612"
    },
    {
      "channel": 1,
      "note": 88,
      "start": 80.7402,
      "duration": 0.8216,
      "velocity": 106,
      "chip": "ym2612"
    },
    {
      "channel": 5,
      "note": 33,
      "start": 80.9315,
      "duration": 0.0305,
      "velocity": 110,
      "chip": "ym2612"
    },
    {
      "channel": 0,
      "note": 49,
      "start": 80.9348,
      "duration": 0.0269,
      "velocity": 127,
      "chip": "ym2612"
    },
    {
      "channel": 3,
      "note": 52,
      "start": 81.1482,
      "duration": 0.0303,
      "velocity": 115,
      "chip": "ym2612"
    },
    {
      "channel": 4,
      "note": 70,
      "start": 81.1516,
      "duration": 0.0271,
      "velocity": 127,
      "chip": "ym2612"
    },
    {
      "channel": 2,
      "note": 54,
      "start": 81.1552,
      "duration": 0.4069,
      "velocity": 118,
      "chip": "ym2612"
    },
    {
      "channel": 5,
      "note": 33,
      "start": 81.365,
      "duration": 0.0303,
      "velocity": 110,
      "chip": "ym2612"
    },
    {
      "channel": 0,
      "note": 49,
      "start": 81.5818,
      "duration": 0.1466,
      "velocity": 121,
      "chip": "ym2612"
    },
    {
      "channel": 5,
      "note": 33,
      "start": 81.5845,
      "duration": 0.0275,
      "velocity": 110,
      "chip": "ym2612"
    },
    {
      "channel": 4,
      "note": 55,
      "start": 81.5875,
      "duration": 0.0244,
      "velocity": 127,
      "chip": "ym2612"
    },
    {
      "channel": 2,
      "note": 56,
      "start": 81.5908,
      "duration": 0.3878,
      "velocity": 118,
      "chip": "ym2612"
    },
    {
      "channel": 1,
      "note": 92,
      "start": 81.5938,
      "duration": 1.668,
      "velocity": 106,
      "chip": "ym2612"
    },
    {
      "channel": 0,
      "note": 49,
      "start": 81.9985,
      "duration": 0.1965,
      "velocity": 121,
      "chip": "ym2612"
    },
    {
      "channel": 3,
      "note": 52,
      "start": 82.0011,
      "duration": 0.0275,
      "velocity": 115,
      "chip": "ym2612"
    },
    {
      "channel": 4,
      "note": 55,
      "start": 82.0039,
      "duration": 0.0248,
      "velocity": 127,
      "chip": "ym2612"
    },
    {
      "channel": 2,
      "note": 61,
      "start": 82.0078,
      "duration": 0.1875,
      "velocity": 118,
      "chip": "ym2612"
    },
    {
      "channel": 5,
      "note": 33,
      "start": 82.215,
      "duration": 0.0303,
      "velocity": 110,
      "chip": "ym2612"
    },
    {
      "channel": 2,
      "note": 56,
      "start": 82.2189,
      "duration": 0.3931,
      "velocity": 118,
      "chip": "ym2612"
    },
    {
      "channel": 4,
      "note": 55,
      "start": 82.4321,
      "duration": 0.0297,
      "velocity": 127,
      "chip": "ym2612"
    },
    {
      "channel": 0,
      "note": 47,
      "start": 82.6314,
      "duration": 0.1969,
      "velocity": 121,
      "chip": "ym2612"
    },
    {
      "channel": 5,
      "note": 33,
      "start": 82.6339,
      "duration": 0.028,
      "velocity": 110,
      "chip": "ym2612"
    },
    {
      "channel": 3,
      "note": 49,
      "start": 82.637,
      "duration": 0.0247,
      "velocity": 127,
      "chip": "ym2612"
    },
    {
      "channel": 2,
      "note": 61,
      "start": 82.6407,
      "duration": 0.1879,
      "velocity": 118,
      "chip": "ym2612"
    },
    {
      "channel": 0,
      "note": 49,
      "start": 82.8478,
      "duration": 0.1973,
      "velocity": 121,
      "chip": "ym2612"
    },
    {
      "channel": 4,
      "note": 52,
      "start": 82.8506,
      "duration": 0.028,
      "velocity": 115,
      "chip": "ym2612"
    },
    {
      "channel": 2,
      "note": 56,
      "start": 82.8541,
      "duration": 0.1913,
      "velocity": 118,
      "chip": "ym2612"
    },
    {
      "channel": 0,
      "note": 50,
      "start": 83.0649,
      "duration": 0.3968,
      "velocity": 121,
      "chip": "ym2612"
    },
    {
      "channel": 5,
      "note": 33,
      "start": 83.0676,
      "duration": 0.0278,
      "velocity": 110,
      "chip": "ym2612"
    },
    {
      "channel": 3,
      "note": 49,
      "start": 83.0707,
      "duration": 0.0245,
      "velocity": 127,
      "chip": "ym2612"
    },
    {
      "channel": 2,
      "note": 59,
      "start": 83.0744,
      "duration": 0.3877,
      "velocity": 118,
      "chip": "ym2612"
    },
    {
      "channel": 5,
      "note": 33,
      "start": 83.2817,
      "duration": 0.0303,
      "velocity": 110,
      "chip": "ym2612"
    },
    {
      "channel": 4,
      "note": 55,
      "start": 83.2849,
      "duration": 0.027,
      "velocity": 127,
      "chip": "ym2612"
    },
    {
      "channel": 1,
      "note": 95,
      "start": 83.2882,
      "duration": 0.8069,
      "velocity": 106,
      "chip": "ym2612"
    },
    {
      "channel": 0,
      "note": 49,
      "start": 83.4815,
      "duration": 0.1969,
      "velocity": 121,
      "chip": "ym2612"
    },
    {
      "channel": 2,
      "note": 61,
      "start": 83.4854,
      "duration": 0.1932,
      "velocity": 118,
      "chip": "ym2612"
    },
    {
      "channel": 0,
      "note": 50,
      "start": 83.698,
      "duration": 0.197,
      "velocity": 121,
      "chip": "ym2612"
    },
    {
      "channel": 3,
      "note": 52,
      "start": 83.7012,
      "duration": 0.0274,
      "velocity": 115,
      "chip": "ym2612"
    },
    {
      "channel": 4,
      "note": 55,
      "start": 83.704,
      "duration": 0.0247,
      "velocity": 127,
      "chip": "ym2612"
    },
    {
      "channel": 2,
      "note": 56,
      "start": 83.7076,
      "duration": 0.1877,
      "velocity": 118,
      "chip": "ym2612"
    },
    {
      "channel": 2,
      "note": 57,
      "start": 83.9164,
      "duration": 0.6123,
      "velocity": 118,
      "chip": "ym2612"
    },
    {
      "channel": 0,
      "note": 50,
      "start": 84.1316,
      "duration": 0.1635,
      "velocity": 121,
      "chip": "ym2612"
    },
    {
      "channel": 5,
      "note": 33,
      "start": 84.1345,
      "duration": 0.0274,
      "velocity": 110,
      "chip": "ym2612"
    },
    {
      "channel": 4,
      "note": 55,
      "start": 84.1376,
      "duration": 0.0242,
      "velocity": 127,
      "chip": "ym2612"
    },
    {
      "channel": 1,
      "note": 88,
      "start": 84.1406,
      "duration": 0.8046,
      "velocity": 106,
      "chip": "ym2612"
    },
    {
      "channel": 0,
      "note": 47,
      "start": 84.3319,
      "duration": 0.1964,
      "velocity": 121,
      "chip": "ym2612"
    },
    {
      "channel": 3,
      "note": 49,
      "start": 84.3351,
      "duration": 0.0268,
      "velocity": 127,
      "chip": "ym2612"
    },
    {
      "channel": 4,
      "note": 52,
      "start": 84.5482,
      "duration": 0.0303,
      "velocity": 115,
      "chip": "ym2612"
    },
    {
      "channel": 2,
      "note": 54,
      "start": 84.5521,
      "duration": 0.3935,
      "velocity": 118,
      "chip": "ym2612"
    },
    {
      "channel": 0,
      "note": 47,
      "start": 84.7647,
      "duration": 0.1804,
      "velocity": 121,
      "chip": "ym2612"
    },
    {
      "channel": 3,
      "note": 49,
      "start": 84.7679,
      "duration": 0.0273,
      "velocity": 127,
      "chip": "ym2612"
    },
    {
      "channel": 0,
      "note": 49,
      "start": 84.9815,
      "duration": 0.1802,
      "velocity": 121,
      "chip": "ym2612"
    },
    {
      "channel": 5,
      "note": 33,
      "start": 84.9842,
      "duration": 0.0279,
      "velocity": 110,
      "chip": "ym2612"
    },
    {
      "channel": 4,
      "note": 55,
      "start": 84.9874,
      "duration": 0.0245,
      "velocity": 127,
      "chip": "ym2612"
    },
    {
      "channel": 2,
      "note": 56,
      "start": 84.9907,
      "duration": 0.3879,
      "velocity": 118,
      "chip": "ym2612"
    },
    {
      "channel": 1,
      "note": 92,
      "start": 84.9942,
      "duration": 1.651,
      "velocity": 106,
      "chip": "ym2612"
    },
    {
      "channel": 0,
      "note": 49,
      "start": 85.398,
      "duration": 0.1971,
      "velocity": 121,
      "chip": "ym2612"
    },
    {
      "channel": 3,
      "note": 52,
      "start": 85.4008,
      "duration": 0.0278,
      "velocity": 115,
      "chip": "ym2612"
    },
    {
      "channel": 4,
      "note": 55,
      "start": 85.4036,
      "duration": 0.0251,
      "velocity": 127,
      "chip": "ym2612"
    },
    {
      "channel": 2,
      "note": 61,
      "start": 85.4072,
      "duration": 0.1882,
      "velocity": 118,
      "chip": "ym2612"
    },
    {
      "channel": 5,
      "note": 33,
      "start": 85.615,
      "duration": 0.0303,
      "velocity": 110,
      "chip": "ym2612"
    },
    {
      "channel": 2,
      "note": 56,
      "start": 85.6188,
      "duration": 0.3931,
      "velocity": 118,
      "chip": "ym2612"
    },
    {
      "channel": 4,
      "note": 55,
      "start": 85.8322,
      "duration": 0.0296,
      "velocity": 127,
      "chip": "ym2612"
    },
    {
      "channel": 0,
      "note": 47,
      "start": 86.0314,
      "duration": 0.1969,
      "velocity": 121,
      "chip": "ym2612"
    },
    {
      "channel": 5,
      "note": 33,
      "start": 86.0339,
      "duration": 0.028,
      "velocity": 110,
      "chip": "ym2612"
    },
    {
      "channel": 3,
      "note": 49,
      "start": 86.0374,
      "duration": 0.0244,
      "velocity": 127,
      "chip": "ym2612"
    },
    {
      "channel": 2,
      "note": 61,
      "start": 86.0415,
      "duration": 0.1871,
      "velocity": 118,
      "chip": "ym2612"
    },
    {
      "channel": 0,
      "note": 49,
      "start": 86.2478,
      "duration": 0.1972,
      "velocity": 121,
      "chip": "ym2612"
    },
    {
      "channel": 4,
      "note": 52,
      "start": 86.2506,
      "duration": 0.028,
      "velocity": 115,
      "chip": "ym2612"
    },
    {
      "channel": 2,
      "note": 56,
      "start": 86.2541,
      "duration": 0.1912,
      "velocity": 118,
      "chip": "ym2612"
    },
    {
      "channel": 0,
      "note": 50,
      "start": 86.4648,
      "duration": 0.3969,
      "velocity": 121,
      "chip": "ym2612"
    },
    {
      "channel": 5,
      "note": 33,
      "start": 86.4676,
      "duration": 0.0278,
      "velocity": 110,
      "chip": "ym2612"
    },
    {
      "channel": 3,
      "note": 49,
      "start": 86.4706,
      "duration": 0.0246,
      "velocity": 127,
      "chip": "ym2612"
    },
    {
      "channel": 2,
      "note": 59,
      "start": 86.4743,
      "duration": 0.3877,
      "velocity": 118,
      "chip": "ym2612"
    },
    {
      "channel": 5,
      "note": 33,
      "start": 86.6816,
      "duration": 0.0303,
      "velocity": 110,
      "chip": "ym2612"
    },
    {
      "channel": 4,
      "note": 55,
      "start": 86.6852,
      "duration": 0.0266,
      "velocity": 127,
      "chip": "ym2612"
    },
    {
      "channel": 1,
      "note": 95,
      "start": 86.6884,
      "duration": 0.8067,
      "velocity": 106,
      "chip": "ym2612"
    },
    {
      "channel": 0,
      "note": 49,
      "start": 86.8818,
      "duration": 0.1798,
      "velocity": 121,
      "chip": "ym2612"
    },
    {
      "channel": 2,
      "note": 61,
      "start": 86.8858,
      "duration": 0.1927,
      "velocity": 118,
      "chip": "ym2612"
    },
    {
      "channel": 0,
      "note": 47,
      "start": 87.0982,
      "duration": 0.1969,
      "velocity": 121,
      "chip": "ym2612"
    },
    {
      "channel": 3,
      "note": 52,
      "start": 87.101,
      "duration": 0.0276,
      "velocity": 115,
      "chip": "ym2612"
    },
    {
      "channel": 4,
      "note": 55,
      "start": 87.1038,
      "duration": 0.0249,
      "velocity": 127,
      "chip": "ym2612"
    },
    {
      "channel": 2,
      "note": 56,
      "start": 87.1071,
      "duration": 0.1884,
      "velocity": 118,
      "chip": "ym2612"
    },
    {
      "channel": 2,
      "note": 57,
      "start": 87.3163,
      "duration": 0.6123,
      "velocity": 118,
      "chip": "ym2612"
    },
    {
      "channel": 0,
      "note": 47,
      "start": 87.5315,
      "duration": 0.1802,
      "velocity": 121,
      "chip": "ym2612"
    },
    {
      "channel": 5,
      "note": 33,
      "start": 87.5341,
      "duration": 0.0279,
      "velocity": 110,
      "chip": "ym2612"
    },
    {
      "channel": 4,
      "note": 55,
      "start": 87.5371,
      "duration": 0.0248,
      "velocity": 127,
      "chip": "ym2612"
    },
    {
      "channel": 1,
      "note": 88,
      "start": 87.54,
      "duration": 0.805,
      "velocity": 106,
      "chip": "ym2612"
    },
    {
      "channel": 5,
      "note": 33,
      "start": 87.7316,
      "duration": 0.0303,
      "velocity": 110,
      "chip": "ym2612"
    },
    {
      "channel": 3,
      "note": 49,
      "start": 87.7349,
      "duration": 0.0268,
      "velocity": 127,
      "chip": "ym2612"
    },
    {
      "channel": 4,
      "note": 52,
      "start": 87.9482,
      "duration": 0.0305,
      "velocity": 115,
      "chip": "ym2612"
    },
    {
      "channel": 0,
      "note": 70,
      "start": 87.9512,
      "duration": 0.0272,
      "velocity": 127,
      "chip": "ym2612"
    },
    {
      "channel": 2,
      "note": 54,
      "start": 87.9548,
      "duration": 0.3906,
      "velocity": 118,
      "chip": "ym2612"
    },
    {
      "channel": 5,
      "note": 33,
      "start": 88.165,
      "duration": 0.0302,
      "velocity": 110,
      "chip": "ym2612"
    },
    {
      "channel": 3,
      "note": 49,
      "start": 88.3651,
      "duration": 0.1968,
      "velocity": 121,
      "chip": "ym2612"
    },
    {
      "channel": 5,
      "note": 33,
      "start": 88.3681,
      "duration": 0.0438,
      "velocity": 110,
      "chip": "ym2612"
    },
    {
      "channel": 0,
      "note": 55,
      "start": 88.371,
      "duration": 0.0408,
      "velocity": 127,
      "chip": "ym2612"
    },
    {
      "channel": 2,
      "note": 56,
      "start": 88.3743,
      "duration": 0.4044,
      "velocity": 118,
      "chip": "ym2612"
    },
    {
      "channel": 1,
      "note": 92,
      "start": 88.3773,
      "duration": 1.6678,
      "velocity": 106,
      "chip": "ym2612"
    },
    {
      "channel": 3,
      "note": 49,
      "start": 88.7983,
      "duration": 0.1802,
      "velocity": 121,
      "chip": "ym2612"
    },
    {
      "channel": 4,
      "note": 52,
      "start": 88.8008,
      "duration": 0.0279,
      "velocity": 115,
      "chip": "ym2612"
    },
    {
      "channel": 0,
      "note": 55,
      "start": 88.8036,
      "duration": 0.0249,
      "velocity": 127,
      "chip": "ym2612"
    },
    {
      "channel": 2,
      "note": 61,
      "start": 88.8075,
      "duration": 0.1879,
      "velocity": 118,
      "chip": "ym2612"
    },
    {
      "channel": 5,
      "note": 33,
      "start": 89.0148,
      "duration": 0.0305,
      "velocity": 110,
      "chip": "ym2612"
    },
    {
      "channel": 2,
      "note": 56,
      "start": 89.0188,
      "duration": 0.3932,
      "velocity": 118,
      "chip": "ym2612"
    },
    {
      "channel": 0,
      "note": 55,
      "start": 89.2153,
      "duration": 0.0464,
      "velocity": 127,
      "chip": "ym2612"
    },
    {
      "channel": 3,
      "note": 47,
      "start": 89.4316,
      "duration": 0.1968,
      "velocity": 121,
      "chip": "ym2612"
    },
    {
      "channel": 5,
      "note": 33,
      "start": 89.4342,
      "duration": 0.0278,
      "velocity": 110,
      "chip": "ym2612"
    },
    {
      "channel": 4,
      "note": 49,
      "start": 89.4373,
      "duration": 0.0246,
      "velocity": 127,
      "chip": "ym2612"
    },
    {
      "channel": 2,
      "note": 61,
      "start": 89.441,
      "duration": 0.1877,
      "velocity": 118,
      "chip": "ym2612"
    },
    {
      "channel": 3,
      "note": 49,
      "start": 89.648,
      "duration": 0.1971,
      "velocity": 121,
      "chip": "ym2612"
    },
    {
      "channel": 0,
      "note": 52,
      "start": 89.6507,
      "duration": 0.0278,
      "velocity": 115,
      "chip": "ym2612"
    },
    {
      "channel": 2,
      "note": 56,
      "start": 89.6542,
      "duration": 0.1912,
      "velocity": 118,
      "chip": "ym2612"
    },
    {
      "channel": 3,
      "note": 50,
      "start": 89.8654,
      "duration": 0.3964,
      "velocity": 121,
      "chip": "ym2612"
    },
    {
      "channel": 5,
      "note": 33,
      "start": 89.8681,
      "duration": 0.0272,
      "velocity": 110,
      "chip": "ym2612"
    },
    {
      "channel": 4,
      "note": 49,
      "start": 89.8713,
      "duration": 0.024,
      "velocity": 127,
      "chip": "ym2612"
    },
    {
      "channel": 2,
      "note": 59,
      "start": 89.8749,
      "duration": 0.3871,
      "velocity": 118,
      "chip": "ym2612"
    },
    {
      "channel": 5,
      "note": 33,
      "start": 90.065,
      "duration": 0.047,
      "velocity": 110,
      "chip": "ym2612"
    },
    {
      "channel": 0,
      "note": 55,
      "start": 90.0682,
      "duration": 0.0434,
      "velocity": 127,
      "chip": "ym2612"
    },
    {
      "channel": 1,
      "note": 95,
      "start": 90.0715,
      "duration": 0.8237,
      "velocity": 106,
      "chip": "ym2612"
    },
    {
      "channel": 3,
      "note": 49,
      "start": 90.2816,
      "duration": 0.1968,
      "velocity": 121,
      "chip": "ym2612"
    },
    {
      "channel": 2,
      "note": 61,
      "start": 90.2857,
      "duration": 0.1929,
      "velocity": 118,
      "chip": "ym2612"
    },
    {
      "channel": 3,
      "note": 50,
      "start": 90.4981,
      "duration": 0.1971,
      "velocity": 121,
      "chip": "ym2612"
    },
    {
      "channel": 4,
      "note": 52,
      "start": 90.5008,
      "duration": 0.0279,
      "velocity": 115,
      "chip": "ym2612"
    },
    {
      "channel": 0,
      "note": 55,
      "start": 90.5036,
      "duration": 0.0249,
      "velocity": 127,
      "chip": "ym2612"
    },
    {
      "channel": 2,
      "note": 56,
      "start": 90.5072,
      "duration": 0.1882,
      "velocity": 118,
      "chip": "ym2612"
    },
    {
      "channel": 2,
      "note": 57,
      "start": 90.7162,
      "duration": 0.6124,
      "velocity": 118,
      "chip": "ym2612"
    },
    {
      "channel": 3,
      "note": 50,
      "start": 90.9148,
      "duration": 0.197,
      "velocity": 121,
      "chip": "ym2612"
    },
    {
      "channel": 5,
      "note": 33,
      "start": 90.9174,
      "duration": 0.0446,
      "velocity": 110,
      "chip": "ym2612"
    },
    {
      "channel": 0,
      "note": 55,
      "start": 90.9204,
      "duration": 0.0414,
      "velocity": 127,
      "chip": "ym2612"
    },
    {
      "channel": 1,
      "note": 88,
      "start": 90.9234,
      "duration": 0.8218,
      "velocity": 106,
      "chip": "ym2612"
    },
    {
      "channel": 3,
      "note": 47,
      "start": 91.1314,
      "duration": 0.197,
      "velocity": 121,
      "chip": "ym2612"
    },
    {
      "channel": 4,
      "note": 49,
      "start": 91.1346,
      "duration": 0.0272,
      "velocity": 127,
      "chip": "ym2612"
    },
    {
      "channel": 0,
      "note": 52,
      "start": 91.3482,
      "duration": 0.0303,
      "velocity": 115,
      "chip": "ym2612"
    },
    {
      "channel": 2,
      "note": 54,
      "start": 91.3521,
      "duration": 0.3934,
      "velocity": 118,
      "chip": "ym2612"
    },
    {
      "channel": 3,
      "note": 47,
      "start": 91.5648,
      "duration": 0.1805,
      "velocity": 121,
      "chip": "ym2612"
    },
    {
      "channel": 4,
      "note": 49,
      "start": 91.5685,
      "duration": 0.0268,
      "velocity": 127,
      "chip": "ym2612"
    },
    {
      "channel": 3,
      "note": 49,
      "start": 91.7649,
      "duration": 0.1969,
      "velocity": 121,
      "chip": "ym2612"
    },
    {
      "channel": 5,
      "note": 33,
      "start": 91.7676,
      "duration": 0.0443,
      "velocity": 110,
      "chip": "ym2612"
    },
    {
      "channel": 0,
      "note": 55,
      "start": 91.7709,
      "duration": 0.0408,
      "velocity": 127,
      "chip": "ym2612"
    },
    {
      "channel": 2,
      "note": 56,
      "start": 91.7742,
      "duration": 0.4044,
      "velocity": 118,
      "chip": "ym2612"
    },
    {
      "channel": 1,
      "note": 92,
      "start": 91.7776,
      "duration": 1.6675,
      "velocity": 106,
      "chip": "ym2612"
    },
    {
      "channel": 3,
      "note": 49,
      "start": 92.1984,
      "duration": 0.1967,
      "velocity": 121,
      "chip": "ym2612"
    },
    {
      "channel": 4,
      "note": 52,
      "start": 92.2012,
      "duration": 0.0276,
      "velocity": 115,
      "chip": "ym2612"
    },
    {
      "channel": 0,
      "note": 55,
      "start": 92.2038,
      "duration": 0.0246,
      "velocity": 127,
      "chip": "ym2612"
    },
    {
      "channel": 2,
      "note": 61,
      "start": 92.2075,
      "duration": 0.1879,
      "velocity": 118,
      "chip": "ym2612"
    },
    {
      "channel": 5,
      "note": 33,
      "start": 92.415,
      "duration": 0.0303,
      "velocity": 110,
      "chip": "ym2612"
    },
    {
      "channel": 2,
      "note": 56,
      "start": 92.4189,
      "duration": 0.3931,
      "velocity": 118,
      "chip": "ym2612"
    },
    {
      "channel": 0,
      "note": 55,
      "start": 92.6157,
      "duration": 0.0461,
      "velocity": 127,
      "chip": "ym2612"
    },
    {
      "channel": 3,
      "note": 47,
      "start": 92.8315,
      "duration": 0.197,
      "velocity": 121,
      "chip": "ym2612"
    },
    {
      "channel": 5,
      "note": 33,
      "start": 92.8341,
      "duration": 0.0279,
      "velocity": 110,
      "chip": "ym2612"
    },
    {
      "channel": 4,
      "note": 49,
      "start": 92.8372,
      "duration": 0.0247,
      "velocity": 127,
      "chip": "ym2612"
    },
    {
      "channel": 2,
      "note": 61,
      "start": 92.8412,
      "duration": 0.1875,
      "velocity": 118,
      "chip": "ym2612"
    },
    {
      "channel": 3,
      "note": 49,
      "start": 93.048,
      "duration": 0.1971,
      "velocity": 121,
      "chip": "ym2612"
    },
    {
      "channel": 0,
      "note": 52,
      "start": 93.0507,
      "duration": 0.0278,
      "velocity": 115,
      "chip": "ym2612"
    },
    {
      "channel": 2,
      "note": 56,
      "start": 93.0543,
      "duration": 0.1912,
      "velocity": 118,
      "chip": "ym2612"
    },
    {
      "channel": 3,
      "note": 50,
      "start": 93.265,
      "duration": 0.3968,
      "velocity": 121,
      "chip": "ym2612"
    },
    {
      "channel": 5,
      "note": 33,
      "start": 93.2681,
      "duration": 0.0272,
      "velocity": 110,
      "chip": "ym2612"
    },
    {
      "channel": 4,
      "note": 49,
      "start": 93.2712,
      "duration": 0.024,
      "velocity": 127,
      "chip": "ym2612"
    },
    {
      "channel": 2,
      "note": 59,
      "start": 93.2749,
      "duration": 0.3871,
      "velocity": 118,
      "chip": "ym2612"
    },
    {
      "channel": 5,
      "note": 33,
      "start": 93.4649,
      "duration": 0.0471,
      "velocity": 110,
      "chip": "ym2612"
    },
    {
      "channel": 0,
      "note": 55,
      "start": 93.4681,
      "duration": 0.0436,
      "velocity": 127,
      "chip": "ym2612"
    },
    {
      "channel": 1,
      "note": 95,
      "start": 93.4714,
      "duration": 0.8237,
      "velocity": 106,
      "chip": "ym2612"
    },
    {
      "channel": 3,
      "note": 49,
      "start": 93.6816,
      "duration": 0.1802,
      "velocity": 121,
      "chip": "ym2612"
    },
    {
      "channel": 2,
      "note": 61,
      "start": 93.6856,
      "duration": 0.1929,
      "velocity": 118,
      "chip": "ym2612"
    },
    {
      "channel": 3,
      "note": 47,
      "start": 93.8983,
      "duration": 0.1968,
      "velocity": 121,
      "chip": "ym2612"
    },
    {
      "channel": 4,
      "note": 52,
      "start": 93.901,
      "duration": 0.0277,
      "velocity": 115,
      "chip": "ym2612"
    },
    {
      "channel": 0,
      "note": 55,
      "start": 93.9038,
      "duration": 0.0247,
      "velocity": 127,
      "chip": "ym2612"
    },
    {
      "channel": 2,
      "note": 56,
      "start": 93.907,
      "duration": 0.1884,
      "velocity": 118,
      "chip": "ym2612"
    },
    {
      "channel": 2,
      "note": 57,
      "start": 94.1163,
      "duration": 0.6123,
      "velocity": 118,
      "chip": "ym2612"
    },
    {
      "channel": 3,
      "note": 47,
      "start": 94.3148,
      "duration": 0.197,
      "velocity": 121,
      "chip": "ym2612"
    },
    {
      "channel": 5,
      "note": 33,
      "start": 94.3176,
      "duration": 0.0445,
      "velocity": 110,
      "chip": "ym2612"
    },
    {
      "channel": 0,
      "note": 55,
      "start": 94.3204,
      "duration": 0.0414,
      "velocity": 127,
      "chip": "ym2612"
    },
    {
      "channel": 1,
      "note": 88,
      "start": 94.3234,
      "duration": 0.8217,
      "velocity": 106,
      "chip": "ym2612"
    },
    {
      "channel": 5,
      "note": 33,
      "start": 94.5315,
      "duration": 0.0305,
      "velocity": 110,
      "chip": "ym2612"
    },
    {
      "channel": 4,
      "note": 49,
      "start": 94.5348,
      "duration": 0.0271,
      "velocity": 127,
      "chip": "ym2612"
    },
    {
      "channel": 0,
      "note": 52,
      "start": 94.7482,
      "duration": 0.0303,
      "velocity": 115,
      "chip": "ym2612"
    },
    {
      "channel": 3,
      "note": 70,
      "start": 94.7512,
      "duration": 0.0274,
      "velocity": 127,
      "chip": "ym2612"
    },
    {
      "channel": 2,
      "note": 54,
      "start": 94.7548,
      "duration": 0.3906,
      "velocity": 118,
      "chip": "ym2612"
    },
    {
      "channel": 5,
      "note": 33,
      "start": 94.9649,
      "duration": 0.0303,
      "velocity": 110,
      "chip": "ym2612"
    },
    {
      "channel": 4,
      "note": 56,
      "start": 95.1654,
      "duration": 0.1964,
      "velocity": 121,
      "chip": "ym2612"
    },
    {
      "channel": 5,
      "note": 33,
      "start": 95.1681,
      "duration": 0.0439,
      "velocity": 110,
      "chip": "ym2612"
    },
    {
      "channel": 3,
      "note": 55,
      "start": 95.1711,
      "duration": 0.0408,
      "velocity": 127,
      "chip": "ym2612"
    },
    {
      "channel": 2,
      "note": 56,
      "start": 95.1744,
      "duration": 0.4042,
      "velocity": 118,
      "chip": "ym2612"
    },
    {
      "channel": 1,
      "note": 92,
      "start": 95.1774,
      "duration": 1.6678,
      "velocity": 106,
      "chip": "ym2612"
    },
    {
      "channel": 4,
      "note": 56,
      "start": 95.5981,
      "duration": 0.1971,
      "velocity": 121,
      "chip": "ym2612"
    },
    {
      "channel": 0,
      "note": 52,
      "start": 95.6006,
      "duration": 0.0279,
      "velocity": 115,
      "chip": "ym2612"
    },
    {
      "channel": 3,
      "note": 55,
      "start": 95.6033,
      "duration": 0.0253,
      "velocity": 127,
      "chip": "ym2612"
    },
    {
      "channel": 2,
      "note": 61,
      "start": 95.6073,
      "duration": 0.1881,
      "velocity": 118,
      "chip": "ym2612"
    },
    {
      "channel": 5,
      "note": 33,
      "start": 95.8149,
      "duration": 0.0303,
      "velocity": 110,
      "chip": "ym2612"
    },
    {
      "channel": 2,
      "note": 56,
      "start": 95.8188,
      "duration": 0.3931,
      "velocity": 118,
      "chip": "ym2612"
    },
    {
      "channel": 3,
      "note": 55,
      "start": 96.0154,
      "duration": 0.0464,
      "velocity": 127,
      "chip": "ym2612"
    },
    {
      "channel": 4,
      "note": 54,
      "start": 96.2315,
      "duration": 0.197,
      "velocity": 121,
      "chip": "ym2612"
    },
    {
      "channel": 5,
      "note": 33,
      "start": 96.2341,
      "duration": 0.0279,
      "velocity": 110,
      "chip": "ym2612"
    },
    {
      "channel": 0,
      "note": 49,
      "start": 96.2371,
      "duration": 0.0246,
      "velocity": 127,
      "chip": "ym2612"
    },
    {
      "channel": 2,
      "note": 61,
      "start": 96.2408,
      "duration": 0.1878,
      "velocity": 118,
      "chip": "ym2612"
    },
    {
      "channel": 4,
      "note": 56,
      "start": 96.448,
      "duration": 0.1973,
      "velocity": 121,
      "chip": "ym2612"
    },
    {
      "channel": 3,
      "note": 52,
      "start": 96.4507,
      "duration": 0.0278,
      "velocity": 115,
      "chip": "ym2612"
    },
    {
      "channel": 2,
      "note": 56,
      "start": 96.4543,
      "duration": 0.1912,
      "velocity": 118,
      "chip": "ym2612"
    },
    {
      "channel": 4,
      "note": 57,
      "start": 96.6651,
      "duration": 0.3967,
      "velocity": 121,
      "chip": "ym2612"
    },
    {
      "channel": 5,
      "note": 33,
      "start": 96.6678,
      "duration": 0.0276,
      "velocity": 110,
      "chip": "ym2612"
    },
    {
      "channel": 0,
      "note": 49,
      "start": 96.6707,
      "duration": 0.0243,
      "velocity": 127,
      "chip": "ym2612"
    },
    {
      "channel": 2,
      "note": 59,
      "start": 96.6744,
      "duration": 0.3875,
      "velocity": 118,
      "chip": "ym2612"
    },
    {
      "channel": 5,
      "note": 33,
      "start": 96.8654,
      "duration": 0.0298,
      "velocity": 110,
      "chip": "ym2612"
    },
    {
      "channel": 3,
      "note": 55,
      "start": 96.8686,
      "duration": 0.0265,
      "velocity": 127,
      "chip": "ym2612"
    },
    {
      "channel": 1,
      "note": 95,
      "start": 96.8719,
      "duration": 0.8232,
      "velocity": 106,
      "chip": "ym2612"
    },
    {
      "channel": 4,
      "note": 56,
      "start": 97.0816,
      "duration": 0.1968,
      "velocity": 121,
      "chip": "ym2612"
    },
    {
      "channel": 2,
      "note": 61,
      "start": 97.0856,
      "duration": 0.193,
      "velocity": 118,
      "chip": "ym2612"
    },
    {
      "channel": 4,
      "note": 57,
      "start": 97.2982,
      "duration": 0.1971,
      "velocity": 121,
      "chip": "ym2612"
    },
    {
      "channel": 0,
      "note": 52,
      "start": 97.3012,
      "duration": 0.0272,
      "velocity": 115,
      "chip": "ym2612"
    },
    {
      "channel": 3,
      "note": 55,
      "start": 97.304,
      "duration": 0.0245,
      "velocity": 127,
      "chip": "ym2612"
    },
    {
      "channel": 2,
      "note": 56,
      "start": 97.3077,
      "duration": 0.1877,
      "velocity": 118,
      "chip": "ym2612"
    },
    {
      "channel": 2,
      "note": 57,
      "start": 97.5163,
      "duration": 0.6123,
      "velocity": 118,
      "chip": "ym2612"
    },
    {
      "channel": 4,
      "note": 57,
      "start": 97.7149,
      "duration": 0.1969,
      "velocity": 121,
      "chip": "ym2612"
    },
    {
      "channel": 5,
      "note": 33,
      "start": 97.7175,
      "duration": 0.0277,
      "velocity": 110,
      "chip": "ym2612"
    },
    {
      "channel": 3,
      "note": 55,
      "start": 97.7206,
      "duration": 0.0245,
      "velocity": 127,
      "chip": "ym2612"
    },
    {
      "channel": 1,
      "note": 88,
      "start": 97.7236,
      "duration": 0.8216,
      "velocity": 106,
      "chip": "ym2612"
    },
    {
      "channel": 4,
      "note": 54,
      "start": 97.932,
      "duration": 0.1965,
      "velocity": 121,
      "chip": "ym2612"
    },
    {
      "channel": 0,
      "note": 49,
      "start": 97.9351,
      "duration": 0.0265,
      "velocity": 127,
      "chip": "ym2612"
    },
    {
      "channel": 3,
      "note": 52,
      "start": 98.1482,
      "duration": 0.0303,
      "velocity": 115,
      "chip": "ym2612"
    },
    {
      "channel": 2,
      "note": 54,
      "start": 98.1521,
      "duration": 0.3934,
      "velocity": 118,
      "chip": "ym2612"
    },
    {
      "channel": 4,
      "note": 54,
      "start": 98.3649,
      "duration": 0.1805,
      "velocity": 121,
      "chip": "ym2612"
    },
    {
      "channel": 0,
      "note": 49,
      "start": 98.3683,
      "duration": 0.0268,
      "velocity": 127,
      "chip": "ym2612"
    },
    {
      "channel": 4,
      "note": 56,
      "start": 98.565,
      "duration": 0.1802,
      "velocity": 121,
      "chip": "ym2612"
    },
    {
      "channel": 5,
      "note": 33,
      "start": 98.5678,
      "duration": 0.0276,
      "velocity": 110,
      "chip": "ym2612"
    },
    {
      "channel": 3,
      "note": 55,
      "start": 98.5714,
      "duration": 0.0237,
      "velocity": 127,
      "chip": "ym2612"
    },
    {
      "channel": 2,
      "note": 56,
      "start": 98.5746,
      "duration": 0.4039,
      "velocity": 118,
      "chip": "ym2612"
    },
    {
      "channel": 1,
      "note": 92,
      "start": 98.5781,
      "duration": 1.6671,
      "velocity": 106,
      "chip": "ym2612"
    },
    {
      "channel": 4,
      "note": 56,
      "start": 98.9982,
      "duration": 0.197,
      "velocity": 121,
      "chip": "ym2612"
    },
    {
      "channel": 0,
      "note": 52,
      "start": 99.001,
      "duration": 0.0276,
      "velocity": 115,
      "chip": "ym2612"
    },
    {
      "channel": 3,
      "note": 55,
      "start": 99.0038,
      "duration": 0.0249,
      "velocity": 127,
      "chip": "ym2612"
    },
    {
      "channel": 2,
      "note": 61,
      "start": 99.0073,
      "duration": 0.1881,
      "velocity": 118,
      "chip": "ym2612"
    },
    {
      "channel": 5,
      "note": 33,
      "start": 99.2149,
      "duration": 0.0303,
      "velocity": 110,
      "chip": "ym2612"
    },
    {
      "channel": 2,
      "note": 56,
      "start": 99.2188,
      "duration": 0.3931,
      "velocity": 118,
      "chip": "ym2612"
    },
    {
      "channel": 3,
      "note": 55,
      "start": 99.4154,
      "duration": 0.0298,
      "velocity": 127,
      "chip": "ym2612"
    },
    {
      "channel": 4,
      "note": 54,
      "start": 99.6315,
      "duration": 0.197,
      "velocity": 121,
      "chip": "ym2612"
    },
    {
      "channel": 5,
      "note": 33,
      "start": 99.6341,
      "duration": 0.0278,
      "velocity": 110,
      "chip": "ym2612"
    },
    {
      "channel": 0,
      "note": 49,
      "start": 99.6371,
      "duration": 0.0246,
      "velocity": 127,
      "chip": "ym2612"
    },
    {
      "channel": 2,
      "note": 61,
      "start": 99.6412,
      "duration": 0.1875,
      "velocity": 118,
      "chip": "ym2612"
    },
    {
      "channel": 4,
      "note": 56,
      "start": 99.848,
      "duration": 0.1973,
      "velocity": 121,
      "chip": "ym2612"
    },
    {
      "channel": 3,
      "note": 52,
      "start": 99.8507,
      "duration": 0.0278,
      "velocity": 115,
      "chip": "ym2612"
    },
    {
      "channel": 2,
      "note": 56,
      "start": 99.8543,
      "duration": 0.1912,
      "velocity": 118,
      "chip": "ym2612"
    },
    {
      "channel": 4,
      "note": 57,
      "start": 100.0651,
      "duration": 0.3968,
      "velocity": 121,
      "chip": "ym2612"
    },
    {
      "channel": 5,
      "note": 33,
      "start": 100.0678,
      "duration": 0.0276,
      "velocity": 110,
      "chip": "ym2612"
    },
    {
      "channel": 0,
      "note": 49,
      "start": 100.0707,
      "duration": 0.0243,
      "velocity": 127,
      "chip": "ym2612"
    },
    {
      "channel": 2,
      "note": 59,
      "start": 100.0744,
      "duration": 0.3876,
      "velocity": 118,
      "chip": "ym2612"
    },
    {
      "channel": 5,
      "note": 33,
      "start": 100.265,
      "duration": 0.0303,
      "velocity": 110,
      "chip": "ym2612"
    },
    {
      "channel": 3,
      "note": 55,
      "start": 100.2683,
      "duration": 0.0268,
      "velocity": 127,
      "chip": "ym2612"
    },
    {
      "channel": 1,
      "note": 95,
      "start": 100.2715,
      "duration": 0.8236,
      "velocity": 106,
      "chip": "ym2612"
    },
    {
      "channel": 4,
      "note": 56,
      "start": 100.482,
      "duration": 0.1966,
      "velocity": 121,
      "chip": "ym2612"
    },
    {
      "channel": 2,
      "note": 61,
      "start": 100.486,
      "duration": 0.1927,
      "velocity": 118,
      "chip": "ym2612"
    },
    {
      "channel": 4,
      "note": 54,
      "start": 100.6984,
      "duration": 0.1636,
      "velocity": 121,
      "chip": "ym2612"
    },
    {
      "channel": 0,
      "note": 52,
      "start": 100.701,
      "duration": 0.0274,
      "velocity": 115,
      "chip": "ym2612"
    },
    {
      "channel": 3,
      "note": 55,
      "start": 100.7038,
      "duration": 0.0247,
      "velocity": 127,
      "chip": "ym2612"
    },
    {
      "channel": 2,
      "note": 56,
      "start": 100.7071,
      "duration": 0.1715,
      "velocity": 118,
      "chip": "ym2612"
    },
    {
      "channel": 2,
      "note": 57,
      "start": 100.9162,
      "duration": 0.6124,
      "velocity": 118,
      "chip": "ym2612"
    },
    {
      "channel": 4,
      "note": 54,
      "start": 101.1149,
      "duration": 0.1803,
      "velocity": 121,
      "chip": "ym2612"
    },
    {
      "channel": 5,
      "note": 33,
      "start": 101.1176,
      "duration": 0.0276,
      "velocity": 110,
      "chip": "ym2612"
    },
    {
      "channel": 3,
      "note": 55,
      "start": 101.1206,
      "duration": 0.0245,
      "velocity": 127,
      "chip": "ym2612"
    },
    {
      "channel": 1,
      "note": 88,
      "start": 101.1236,
      "duration": 0.8215,
      "velocity": 106,
      "chip": "ym2612"
    },
    {
      "channel": 5,
      "note": 33,
      "start": 101.3316,
      "duration": 0.0304,
      "velocity": 110,
      "chip": "ym2612"
    },
    {
      "channel": 0,
      "note": 49,
      "start": 101.3346,
      "duration": 0.0271,
      "velocity": 127,
      "chip": "ym2612"
    },
    {
      "channel": 3,
      "note": 52,
      "start": 101.5484,
      "duration": 0.0302,
      "velocity": 115,
      "chip": "ym2612"
    },
    {
      "channel": 4,
      "note": 70,
      "start": 101.5514,
      "duration": 0.0273,
      "velocity": 127,
      "chip": "ym2612"
    },
    {
      "channel": 2,
      "note": 54,
      "start": 101.555,
      "duration": 0.3904,
      "velocity": 118,
      "chip": "ym2612"
    },
    {
      "channel": 5,
      "note": 33,
      "start": 101.7654,
      "duration": 0.03,
      "velocity": 110,
      "chip": "ym2612"
    }
  ]
}