{
  "track_name": "08 - Music 11",
  "duration_sec": 45.126,
  "sample_rate": 44100,
  "note_count": 470,
  "unique_pitches": 44,
  "pitch_range": 86,
  "avg_note_duration": 0.197,
  "reconstruction_stats": {
    "notes_reconstructed": 470,
    "keyon_events": 470,
    "keyoff_events": 468,
    "orphan_keyons": 2,
    "unique_pitches": 44,
    "pitch_range": 86,
    "avg_duration_sec": 0.197
  },
  "metadata": {
    "source": "D\\Double Dribble\\08 - Music 11.vgz"
  },
  "notes": [
    {
      "channel": 3,
      "note": 98,
      "start": 0.0,
      "duration": 0.0049,
      "velocity": 119,
      "chip": "ym2612"
    },
    {
      "channel": 0,
      "note": 116,
      "start": 0.002,
      "duration": 0.0141,
      "velocity": 81,
      "chip": "ym2612"
    },
    {
      "channel": 2,
      "note": 114,
      "start": 0.0107,
      "duration": 0.0126,
      "velocity": 81,
      "chip": "ym2612"
    },
    {
      "channel": 0,
      "note": 112,
      "start": 0.0171,
      "duration": 0.0143,
      "velocity": 81,
      "chip": "ym2612"
    },
    {
      "channel": 1,
      "note": 116,
      "start": 0.0208,
      "duration": 0.0067,
      "velocity": 81,
      "chip": "ym2612"
    },
    {
      "channel": 2,
      "note": 109,
      "start": 0.0259,
      "duration": 0.0138,
      "velocity": 81,
      "chip": "ym2612"
    },
    {
      "channel": 3,
      "note": 42,
      "start": 0.0261,
      "duration": 0.0043,
      "velocity": 127,
      "chip": "ym2612"
    },
    {
      "channel": 1,
      "note": 114,
      "start": 0.0303,
      "duration": 0.006,
      "velocity": 81,
      "chip": "ym2612"
    },
    {
      "channel": 0,
      "note": 107,
      "start": 0.0338,
      "duration": 0.0136,
      "velocity": 81,
      "chip": "ym2612"
    },
    {
      "channel": 1,
      "note": 112,
      "start": 0.0376,
      "duration": 0.0058,
      "velocity": 81,
      "chip": "ym2612"
    },
    {
      "channel": 2,
      "note": 104,
      "start": 0.0409,
      "duration": 0.0157,
      "velocity": 81,
      "chip": "ym2612"
    },
    {
      "channel": 1,
      "note": 109,
      "start": 0.0462,
      "duration": 0.0054,
      "velocity": 81,
      "chip": "ym2612"
    },
    {
      "channel": 0,
      "note": 102,
      "start": 0.0502,
      "duration": 0.0144,
      "velocity": 81,
      "chip": "ym2612"
    },
    {
      "channel": 3,
      "note": 98,
      "start": 0.0504,
      "duration": 0.0037,
      "velocity": 119,
      "chip": "ym2612"
    },
    {
      "channel": 1,
      "note": 107,
      "start": 0.0541,
      "duration": 0.0059,
      "velocity": 81,
      "chip": "ym2612"
    },
    {
      "channel": 2,
      "note": 100,
      "start": 0.0578,
      "duration": 0.0147,
      "velocity": 81,
      "chip": "ym2612"
    },
    {
      "channel": 1,
      "note": 104,
      "start": 0.062,
      "duration": 0.0065,
      "velocity": 81,
      "chip": "ym2612"
    },
    {
      "channel": 3,
      "note": 35,
      "start": 0.0622,
      "duration": 0.005,
      "velocity": 127,
      "chip": "ym2612"
    },
    {
      "channel": 0,
      "note": 97,
      "start": 0.0671,
      "duration": 0.0136,
      "velocity": 81,
      "chip": "ym2612"
    },
    {
      "channel": 1,
      "note": 102,
      "start": 0.0713,
      "duration": 0.0057,
      "velocity": 81,
      "chip": "ym2612"
    },
    {
      "channel": 2,
      "note": 95,
      "start": 0.0749,
      "duration": 0.0131,
      "velocity": 81,
      "chip": "ym2612"
    },
    {
      "channel": 1,
      "note": 100,
      "start": 0.0783,
      "duration": 0.0056,
      "velocity": 81,
      "chip": "ym2612"
    },
    {
      "channel": 0,
      "note": 92,
      "start": 0.0818,
      "duration": 0.0144,
      "velocity": 81,
      "chip": "ym2612"
    },
    {
      "channel": 1,
      "note": 97,
      "start": 0.0865,
      "duration": 0.0052,
      "velocity": 81,
      "chip": "ym2612"
    },
    {
      "channel": 3,
      "note": 30,
      "start": 0.0867,
      "duration": 0.0015,
      "velocity": 127,
      "chip": "ym2612"
    },
    {
      "channel": 2,
      "note": 90,
      "start": 0.0904,
      "duration": 0.0058,
      "velocity": 81,
      "chip": "ym2612"
    },
    {
      "channel": 1,
      "note": 95,
      "start": 0.094,
      "duration": 0.0022,
      "velocity": 81,
      "chip": "ym2612"
    },
    {
      "channel": 0,
      "note": 100,
      "start": 0.0981,
      "duration": 0.0839,
      "velocity": 90,
      "chip": "ym2612"
    },
    {
      "channel": 1,
      "note": 35,
      "start": 0.0988,
      "duration": 0.2002,
      "velocity": 102,
      "chip": "ym2612"
    },
    {
      "channel": 2,
      "note": 47,
      "start": 0.0995,
      "duration": 0.0206,
      "velocity": 95,
      "chip": "ym2612"
    },
    {
      "channel": 3,
      "note": 35,
      "start": 0.1,
      "duration": 0.0131,
      "velocity": 127,
      "chip": "ym2612"
    },
    {
      "channel": 2,
      "note": 98,
      "start": 0.1223,
      "duration": 0.0033,
      "velocity": 119,
      "chip": "ym2612"
    },
    {
      "channel": 2,
      "note": 98,
      "start": 0.1349,
      "duration": 0.0046,
      "velocity": 119,
      "chip": "ym2612"
    },
    {
      "channel": 3,
      "note": 47,
      "start": 0.1352,
      "duration": 0.0022,
      "velocity": 127,
      "chip": "ym2612"
    },
    {
      "channel": 2,
      "note": 47,
      "start": 0.1467,
      "duration": 0.0116,
      "velocity": 95,
      "chip": "ym2612"
    },
    {
      "channel": 3,
      "note": 54,
      "start": 0.1724,
      "duration": 0.003,
      "velocity": 127,
      "chip": "ym2612"
    },
    {
      "channel": 0,
      "note": 102,
      "start": 0.1848,
      "duration": 0.0111,
      "velocity": 90,
      "chip": "ym2612"
    },
    {
      "channel": 2,
      "note": 47,
      "start": 0.185,
      "duration": 0.0108,
      "velocity": 95,
      "chip": "ym2612"
    },
    {
      "channel": 0,
      "note": 102,
      "start": 0.1973,
      "duration": 0.0327,
      "velocity": 90,
      "chip": "ym2612"
    },
    {
      "channel": 3,
      "note": 59,
      "start": 0.2104,
      "duration": 0.0021,
      "velocity": 127,
      "chip": "ym2612"
    },
    {
      "channel": 0,
      "note": 100,
      "start": 0.2311,
      "duration": 0.0207,
      "velocity": 90,
      "chip": "ym2612"
    },
    {
      "channel": 2,
      "note": 98,
      "start": 0.2319,
      "duration": 0.0031,
      "velocity": 119,
      "chip": "ym2612"
    },
    {
      "channel": 2,
      "note": 98,
      "start": 0.243,
      "duration": 0.0034,
      "velocity": 119,
      "chip": "ym2612"
    },
    {
      "channel": 3,
      "note": 35,
      "start": 0.2433,
      "duration": 0.0009,
      "velocity": 127,
      "chip": "ym2612"
    },
    {
      "channel": 0,
      "note": 99,
      "start": 0.2533,
      "duration": 0.0207,
      "velocity": 90,
      "chip": "ym2612"
    },
    {
      "channel": 2,
      "note": 98,
      "start": 0.2649,
      "duration": 0.0037,
      "velocity": 119,
      "chip": "ym2612"
    },
    {
      "channel": 3,
      "note": 59,
      "start": 0.2654,
      "duration": 0.0023,
      "velocity": 127,
      "chip": "ym2612"
    },
    {
      "channel": 0,
      "note": 96,
      "start": 0.2787,
      "duration": 0.0845,
      "velocity": 90,
      "chip": "ym2612"
    },
    {
      "channel": 2,
      "note": 98,
      "start": 0.2789,
      "duration": 0.0039,
      "velocity": 119,
      "chip": "ym2612"
    },
    {
      "channel": 3,
      "note": 54,
      "start": 0.2792,
      "duration": 0.001,
      "velocity": 127,
      "chip": "ym2612"
    },
    {
      "channel": 2,
      "note": 98,
      "start": 0.2916,
      "duration": 0.005,
      "velocity": 119,
      "chip": "ym2612"
    },
    {
      "channel": 3,
      "note": 47,
      "start": 0.292,
      "duration": 0.0033,
      "velocity": 127,
      "chip": "ym2612"
    },
    {
      "channel": 1,
      "note": 38,
      "start": 0.3043,
      "duration": 0.193,
      "velocity": 102,
      "chip": "ym2612"
    },
    {
      "channel": 2,
      "note": 47,
      "start": 0.305,
      "duration": 0.0105,
      "velocity": 95,
      "chip": "ym2612"
    },
    {
      "channel": 3,
      "note": 35,
      "start": 0.3054,
      "duration": 0.001,
      "velocity": 127,
      "chip": "ym2612"
    },
    {
      "channel": 2,
      "note": 98,
      "start": 0.3173,
      "duration": 0.0071,
      "velocity": 119,
      "chip": "ym2612"
    },
    {
      "channel": 2,
      "note": 98,
      "start": 0.3309,
      "duration": 0.0041,
      "velocity": 119,
      "chip": "ym2612"
    },
    {
      "channel": 3,
      "note": 47,
      "start": 0.3312,
      "duration": 0.0025,
      "velocity": 127,
      "chip": "ym2612"
    },
    {
      "channel": 2,
      "note": 47,
      "start": 0.3432,
      "duration": 0.0106,
      "velocity": 95,
      "chip": "ym2612"
    },
    {
      "channel": 0,
      "note": 97,
      "start": 0.3656,
      "duration": 0.0129,
      "velocity": 90,
      "chip": "ym2612"
    },
    {
      "channel": 3,
      "note": 54,
      "start": 0.3695,
      "duration": 0.0013,
      "velocity": 127,
      "chip": "ym2612"
    },
    {
      "channel": 0,
      "note": 96,
      "start": 0.38,
      "duration": 0.0112,
      "velocity": 90,
      "chip": "ym2612"
    },
    {
      "channel": 2,
      "note": 47,
      "start": 0.3803,
      "duration": 0.0109,
      "velocity": 95,
      "chip": "ym2612"
    },
    {
      "channel": 0,
      "note": 97,
      "start": 0.3938,
      "duration": 0.0324,
      "velocity": 90,
      "chip": "ym2612"
    },
    {
      "channel": 3,
      "note": 59,
      "start": 0.4079,
      "duration": 0.0013,
      "velocity": 127,
      "chip": "ym2612"
    },
    {
      "channel": 0,
      "note": 99,
      "start": 0.4286,
      "duration": 0.0204,
      "velocity": 90,
      "chip": "ym2612"
    },
    {
      "channel": 2,
      "note": 98,
      "start": 0.4292,
      "duration": 0.0033,
      "velocity": 119,
      "chip": "ym2612"
    },
    {
      "channel": 2,
      "note": 98,
      "start": 0.4396,
      "duration": 0.005,
      "velocity": 119,
      "chip": "ym2612"
    },
    {
      "channel": 3,
      "note": 35,
      "start": 0.44,
      "duration": 0.0024,
      "velocity": 127,
      "chip": "ym2612"
    },
    {
      "channel": 0,
      "note": 100,
      "start": 0.4512,
      "duration": 0.0216,
      "velocity": 90,
      "chip": "ym2612"
    },
    {
      "channel": 2,
      "note": 98,
      "start": 0.4628,
      "duration": 0.0044,
      "velocity": 119,
      "chip": "ym2612"
    },
    {
      "channel": 3,
      "note": 59,
      "start": 0.4631,
      "duration": 0.0013,
      "velocity": 127,
      "chip": "ym2612"
    },
    {
      "channel": 0,
      "note": 99,
      "start": 0.4741,
      "duration": 0.0266,
      "velocity": 90,
      "chip": "ym2612"
    },
    {
      "channel": 2,
      "note": 98,
      "start": 0.4744,
      "duration": 0.0063,
      "velocity": 119,
      "chip": "ym2612"
    },
    {
      "channel": 3,
      "note": 54,
      "start": 0.4748,
      "duration": 0.0049,
      "velocity": 127,
      "chip": "ym2612"
    },
    {
      "channel": 2,
      "note": 98,
      "start": 0.4904,
      "duration": 0.0052,
      "velocity": 119,
      "chip": "ym2612"
    },
    {
      "channel": 3,
      "note": 47,
      "start": 0.4907,
      "duration": 0.0009,
      "velocity": 127,
      "chip": "ym2612"
    },
    {
      "channel": 0,
      "note": 97,
      "start": 0.5026,
      "duration": 0.0268,
      "velocity": 90,
      "chip": "ym2612"
    },
    {
      "channel": 1,
      "note": 40,
      "start": 0.5029,
      "duration": 0.1932,
      "velocity": 102,
      "chip": "ym2612"
    },
    {
      "channel": 2,
      "note": 47,
      "start": 0.5036,
      "duration": 0.0119,
      "velocity": 95,
      "chip": "ym2612"
    },
    {
      "channel": 3,
      "note": 35,
      "start": 0.504,
      "duration": 0.0042,
      "velocity": 127,
      "chip": "ym2612"
    },
    {
      "channel": 2,
      "note": 98,
      "start": 0.5183,
      "duration": 0.0049,
      "velocity": 119,
      "chip": "ym2612"
    },
    {
      "channel": 0,
      "note": 99,
      "start": 0.5317,
      "duration": 0.0094,
      "velocity": 90,
      "chip": "ym2612"
    },
    {
      "channel": 2,
      "note": 98,
      "start": 0.5319,
      "duration": 0.0038,
      "velocity": 119,
      "chip": "ym2612"
    },
    {
      "channel": 3,
      "note": 47,
      "start": 0.5323,
      "duration": 0.001,
      "velocity": 127,
      "chip": "ym2612"
    },
    {
      "channel": 0,
      "note": 95,
      "start": 0.5421,
      "duration": 0.1339,
      "velocity": 90,
      "chip": "ym2612"
    },
    {
      "channel": 2,
      "note": 47,
      "start": 0.5428,
      "duration": 0.0102,
      "velocity": 95,
      "chip": "ym2612"
    },
    {
      "channel": 3,
      "note": 54,
      "start": 0.5679,
      "duration": 0.0027,
      "velocity": 127,
      "chip": "ym2612"
    },
    {
      "channel": 2,
      "note": 47,
      "start": 0.5803,
      "duration": 0.0109,
      "velocity": 95,
      "chip": "ym2612"
    },
    {
      "channel": 3,
      "note": 59,
      "start": 0.6064,
      "duration": 0.0021,
      "velocity": 127,
      "chip": "ym2612"
    },
    {
      "channel": 2,
      "note": 98,
      "start": 0.6278,
      "duration": 0.0046,
      "velocity": 119,
      "chip": "ym2612"
    },
    {
      "channel": 2,
      "note": 98,
      "start": 0.6393,
      "duration": 0.0037,
      "velocity": 119,
      "chip": "ym2612"
    },
    {
      "channel": 3,
      "note": 35,
      "start": 0.6396,
      "duration": 0.0021,
      "velocity": 127,
      "chip": "ym2612"
    },
    {
      "channel": 2,
      "note": 98,
      "start": 0.6612,
      "duration": 0.0046,
      "velocity": 119,
      "chip": "ym2612"
    },
    {
      "channel": 3,
      "note": 59,
      "start": 0.6615,
      "duration": 0.003,
      "velocity": 127,
      "chip": "ym2612"
    },
    {
      "channel": 2,
      "note": 98,
      "start": 0.6762,
      "duration": 0.0043,
      "velocity": 119,
      "chip": "ym2612"
    },
    {
      "channel": 3,
      "note": 54,
      "start": 0.6765,
      "duration": 0.0009,
      "velocity": 127,
      "chip": "ym2612"
    },
    {
      "channel": 0,
      "note": 95,
      "start": 0.6844,
      "duration": 0.0154,
      "velocity": 90,
      "chip": "ym2612"
    },
    {
      "channel": 2,
      "note": 98,
      "start": 0.6895,
      "duration": 0.0054,
      "velocity": 119,
      "chip": "ym2612"
    },
    {
      "channel": 3,
      "note": 47,
      "start": 0.6898,
      "duration": 0.0033,
      "velocity": 127,
      "chip": "ym2612"
    },
    {
      "channel": 0,
      "note": 95,
      "start": 0.7028,
      "duration": 0.0258,
      "velocity": 90,
      "chip": "ym2612"
    },
    {
      "channel": 1,
      "note": 43,
      "start": 0.7031,
      "duration": 0.0998,
      "velocity": 102,
      "chip": "ym2612"
    },
    {
      "channel": 2,
      "note": 47,
      "start": 0.7037,
      "duration": 0.0105,
      "velocity": 95,
      "chip": "ym2612"
    },
    {
      "channel": 3,
      "note": 35,
      "start": 0.7041,
      "duration": 0.0044,
      "velocity": 127,
      "chip": "ym2612"
    },
    {
      "channel": 2,
      "note": 98,
      "start": 0.7171,
      "duration": 0.0034,
      "velocity": 119,
      "chip": "ym2612"
    },
    {
      "channel": 0,
      "note": 97,
      "start": 0.7298,
      "duration": 0.023,
      "velocity": 90,
      "chip": "ym2612"
    },
    {
      "channel": 2,
      "note": 98,
      "start": 0.73,
      "duration": 0.0041,
      "velocity": 119,
      "chip": "ym2612"
    },
    {
      "channel": 3,
      "note": 47,
      "start": 0.7303,
      "duration": 0.0024,
      "velocity": 127,
      "chip": "ym2612"
    },
    {
      "channel": 2,
      "note": 47,
      "start": 0.7423,
      "duration": 0.0106,
      "velocity": 95,
      "chip": "ym2612"
    },
    {
      "channel": 0,
      "note": 98,
      "start": 0.7543,
      "duration": 0.0232,
      "velocity": 90,
      "chip": "ym2612"
    },
    {
      "channel": 2,
      "note": 47,
      "start": 0.7672,
      "duration": 0.0104,
      "velocity": 95,
      "chip": "ym2612"
    },
    {
      "channel": 3,
      "note": 54,
      "start": 0.7675,
      "duration": 0.0027,
      "velocity": 127,
      "chip": "ym2612"
    },
    {
      "channel": 0,
      "note": 96,
      "start": 0.7795,
      "duration": 0.0459,
      "velocity": 90,
      "chip": "ym2612"
    },
    {
      "channel": 2,
      "note": 47,
      "start": 0.7798,
      "duration": 0.012,
      "velocity": 95,
      "chip": "ym2612"
    },
    {
      "channel": 2,
      "note": 47,
      "start": 0.7929,
      "duration": 0.0133,
      "velocity": 95,
      "chip": "ym2612"
    },
    {
      "channel": 1,
      "note": 45,
      "start": 0.8061,
      "duration": 0.0894,
      "velocity": 102,
      "chip": "ym2612"
    },
    {
      "channel": 3,
      "note": 59,
      "start": 0.8066,
      "duration": 0.0013,
      "velocity": 127,
      "chip": "ym2612"
    },
    {
      "channel": 0,
      "note": 93,
      "start": 0.8277,
      "duration": 0.0312,
      "velocity": 90,
      "chip": "ym2612"
    },
    {
      "channel": 2,
      "note": 98,
      "start": 0.8284,
      "duration": 0.0032,
      "velocity": 119,
      "chip": "ym2612"
    },
    {
      "channel": 2,
      "note": 98,
      "start": 0.8395,
      "duration": 0.0037,
      "velocity": 119,
      "chip": "ym2612"
    },
    {
      "channel": 3,
      "note": 35,
      "start": 0.8398,
      "duration": 0.0012,
      "velocity": 127,
      "chip": "ym2612"
    },
    {
      "channel": 0,
      "note": 88,
      "start": 0.8612,
      "duration": 0.0021,
      "velocity": 90,
      "chip": "ym2612"
    },
    {
      "channel": 2,
      "note": 61,
      "start": 0.8619,
      "duration": 0.0361,
      "velocity": 95,
      "chip": "ym2612"
    },
    {
      "channel": 3,
      "note": 59,
      "start": 0.8623,
      "duration": 0.0012,
      "velocity": 127,
      "chip": "ym2612"
    },
    {
      "channel": 0,
      "note": 90,
      "start": 0.8658,
      "duration": 0.0296,
      "velocity": 90,
      "chip": "ym2612"
    },
    {
      "channel": 3,
      "note": 54,
      "start": 0.8725,
      "duration": 0.0052,
      "velocity": 127,
      "chip": "ym2612"
    },
    {
      "channel": 3,
      "note": 47,
      "start": 0.8884,
      "duration": 0.0024,
      "velocity": 127,
      "chip": "ym2612"
    },
    {
      "channel": 0,
      "note": 100,
      "start": 0.9004,
      "duration": 0.0746,
      "velocity": 90,
      "chip": "ym2612"
    },
    {
      "channel": 1,
      "note": 35,
      "start": 0.9011,
      "duration": 0.1906,
      "velocity": 102,
      "chip": "ym2612"
    },
    {
      "channel": 2,
      "note": 47,
      "start": 0.9013,
      "duration": 0.0111,
      "velocity": 95,
      "chip": "ym2612"
    },
    {
      "channel": 3,
      "note": 35,
      "start": 0.9016,
      "duration": 0.0016,
      "velocity": 127,
      "chip": "ym2612"
    },
    {
      "channel": 2,
      "note": 98,
      "start": 0.9143,
      "duration": 0.0031,
      "velocity": 119,
      "chip": "ym2612"
    },
    {
      "channel": 2,
      "note": 98,
      "start": 0.9282,
      "duration": 0.0037,
      "velocity": 119,
      "chip": "ym2612"
    },
    {
      "channel": 3,
      "note": 47,
      "start": 0.9285,
      "duration": 0.0013,
      "velocity": 127,
      "chip": "ym2612"
    },
    {
      "channel": 2,
      "note": 47,
      "start": 0.9393,
      "duration": 0.0101,
      "velocity": 95,
      "chip": "ym2612"
    },
    {
      "channel": 3,
      "note": 54,
      "start": 0.9651,
      "duration": 0.0013,
      "velocity": 127,
      "chip": "ym2612"
    },
    {
      "channel": 0,
      "note": 102,
      "start": 0.9765,
      "duration": 0.0101,
      "velocity": 90,
      "chip": "ym2612"
    },
    {
      "channel": 2,
      "note": 47,
      "start": 0.9767,
      "duration": 0.01,
      "velocity": 95,
      "chip": "ym2612"
    },
    {
      "channel": 0,
      "note": 102,
      "start": 0.9893,
      "duration": 0.0325,
      "velocity": 90,
      "chip": "ym2612"
    },
    {
      "channel": 3,
      "note": 59,
      "start": 1.0022,
      "duration": 0.0025,
      "velocity": 127,
      "chip": "ym2612"
    },
    {
      "channel": 0,
      "note": 100,
      "start": 1.0241,
      "duration": 0.0201,
      "velocity": 90,
      "chip": "ym2612"
    },
    {
      "channel": 2,
      "note": 98,
      "start": 1.0248,
      "duration": 0.0033,
      "velocity": 119,
      "chip": "ym2612"
    },
    {
      "channel": 2,
      "note": 98,
      "start": 1.0352,
      "duration": 0.0037,
      "velocity": 119,
      "chip": "ym2612"
    },
    {
      "channel": 3,
      "note": 35,
      "start": 1.0355,
      "duration": 0.0024,
      "velocity": 127,
      "chip": "ym2612"
    },
    {
      "channel": 0,
      "note": 99,
      "start": 1.0465,
      "duration": 0.0202,
      "velocity": 90,
      "chip": "ym2612"
    },
    {
      "channel": 2,
      "note": 98,
      "start": 1.0569,
      "duration": 0.0053,
      "velocity": 119,
      "chip": "ym2612"
    },
    {
      "channel": 3,
      "note": 59,
      "start": 1.0574,
      "duration": 0.0026,
      "velocity": 127,
      "chip": "ym2612"
    },
    {
      "channel": 0,
      "note": 96,
      "start": 1.0717,
      "duration": 0.0885,
      "velocity": 90,
      "chip": "ym2612"
    },
    {
      "channel": 2,
      "note": 98,
      "start": 1.072,
      "duration": 0.0042,
      "velocity": 119,
      "chip": "ym2612"
    },
    {
      "channel": 3,
      "note": 54,
      "start": 1.0723,
      "duration": 0.0023,
      "velocity": 127,
      "chip": "ym2612"
    },
    {
      "channel": 2,
      "note": 98,
      "start": 1.0856,
      "duration": 0.0052,
      "velocity": 119,
      "chip": "ym2612"
    },
    {
      "channel": 3,
      "note": 47,
      "start": 1.0859,
      "duration": 0.0013,
      "velocity": 127,
      "chip": "ym2612"
    },
    {
      "channel": 1,
      "note": 38,
      "start": 1.0978,
      "duration": 0.1968,
      "velocity": 102,
      "chip": "ym2612"
    },
    {
      "channel": 2,
      "note": 47,
      "start": 1.0985,
      "duration": 0.0115,
      "velocity": 95,
      "chip": "ym2612"
    },
    {
      "channel": 3,
      "note": 35,
      "start": 1.0989,
      "duration": 0.0041,
      "velocity": 127,
      "chip": "ym2612"
    },
    {
      "channel": 2,
      "note": 98,
      "start": 1.113,
      "duration": 0.0044,
      "velocity": 119,
      "chip": "ym2612"
    },
    {
      "channel": 2,
      "note": 98,
      "start": 1.1254,
      "duration": 0.0052,
      "velocity": 119,
      "chip": "ym2612"
    },
    {
      "channel": 3,
      "note": 47,
      "start": 1.1257,
      "duration": 0.0024,
      "velocity": 127,
      "chip": "ym2612"
    },
    {
      "channel": 2,
      "note": 47,
      "start": 1.1391,
      "duration": 0.0128,
      "velocity": 95,
      "chip": "ym2612"
    },
    {
      "channel": 0,
      "note": 97,
      "start": 1.1629,
      "duration": 0.0123,
      "velocity": 90,
      "chip": "ym2612"
    },
    {
      "channel": 3,
      "note": 54,
      "start": 1.1662,
      "duration": 0.0029,
      "velocity": 127,
      "chip": "ym2612"
    },
    {
      "channel": 0,
      "note": 96,
      "start": 1.1775,
      "duration": 0.0109,
      "velocity": 90,
      "chip": "ym2612"
    },
    {
      "channel": 2,
      "note": 47,
      "start": 1.1778,
      "duration": 0.0107,
      "velocity": 95,
      "chip": "ym2612"
    },
    {
      "channel": 0,
      "note": 97,
      "start": 1.19,
      "duration": 0.0341,
      "velocity": 90,
      "chip": "ym2612"
    },
    {
      "channel": 3,
      "note": 59,
      "start": 1.2041,
      "duration": 0.0025,
      "velocity": 127,
      "chip": "ym2612"
    },
    {
      "channel": 0,
      "note": 99,
      "start": 1.2252,
      "duration": 0.021,
      "velocity": 90,
      "chip": "ym2612"
    },
    {
      "channel": 2,
      "note": 98,
      "start": 1.226,
      "duration": 0.0033,
      "velocity": 119,
      "chip": "ym2612"
    },
    {
      "channel": 2,
      "note": 98,
      "start": 1.2371,
      "duration": 0.0037,
      "velocity": 119,
      "chip": "ym2612"
    },
    {
      "channel": 3,
      "note": 35,
      "start": 1.2374,
      "duration": 0.0012,
      "velocity": 127,
      "chip": "ym2612"
    },
    {
      "channel": 0,
      "note": 100,
      "start": 1.2478,
      "duration": 0.0211,
      "velocity": 90,
      "chip": "ym2612"
    },
    {
      "channel": 2,
      "note": 98,
      "start": 1.259,
      "duration": 0.0042,
      "velocity": 119,
      "chip": "ym2612"
    },
    {
      "channel": 3,
      "note": 59,
      "start": 1.2595,
      "duration": 0.0027,
      "velocity": 127,
      "chip": "ym2612"
    },
    {
      "channel": 0,
      "note": 99,
      "start": 1.274,
      "duration": 0.0237,
      "velocity": 90,
      "chip": "ym2612"
    },
    {
      "channel": 2,
      "note": 98,
      "start": 1.2742,
      "duration": 0.0044,
      "velocity": 119,
      "chip": "ym2612"
    },
    {
      "channel": 3,
      "note": 54,
      "start": 1.2746,
      "duration": 0.0013,
      "velocity": 127,
      "chip": "ym2612"
    },
    {
      "channel": 2,
      "note": 98,
      "start": 1.2872,
      "duration": 0.005,
      "velocity": 119,
      "chip": "ym2612"
    },
    {
      "channel": 3,
      "note": 47,
      "start": 1.2875,
      "duration": 0.0034,
      "velocity": 127,
      "chip": "ym2612"
    },
    {
      "channel": 0,
      "note": 97,
      "start": 1.3002,
      "duration": 0.0253,
      "velocity": 90,
      "chip": "ym2612"
    },
    {
      "channel": 1,
      "note": 40,
      "start": 1.3005,
      "duration": 0.1918,
      "velocity": 102,
      "chip": "ym2612"
    },
    {
      "channel": 2,
      "note": 47,
      "start": 1.3011,
      "duration": 0.0108,
      "velocity": 95,
      "chip": "ym2612"
    },
    {
      "channel": 3,
      "note": 35,
      "start": 1.3015,
      "duration": 0.0071,
      "velocity": 127,
      "chip": "ym2612"
    },
    {
      "channel": 2,
      "note": 98,
      "start": 1.3138,
      "duration": 0.0052,
      "velocity": 119,
      "chip": "ym2612"
    },
    {
      "channel": 0,
      "note": 99,
      "start": 1.3282,
      "duration": 0.01,
      "velocity": 90,
      "chip": "ym2612"
    },
    {
      "channel": 2,
      "note": 98,
      "start": 1.3284,
      "duration": 0.0041,
      "velocity": 119,
      "chip": "ym2612"
    },
    {
      "channel": 3,
      "note": 47,
      "start": 1.3287,
      "duration": 0.0025,
      "velocity": 127,
      "chip": "ym2612"
    },
    {
      "channel": 0,
      "note": 95,
      "start": 1.3409,
      "duration": 0.1199,
      "velocity": 90,
      "chip": "ym2612"
    },
    {
      "channel": 2,
      "note": 47,
      "start": 1.3415,
      "duration": 0.0108,
      "velocity": 95,
      "chip": "ym2612"
    },
    {
      "channel": 3,
      "note": 54,
      "start": 1.3678,
      "duration": 0.001,
      "velocity": 127,
      "chip": "ym2612"
    },
    {
      "channel": 2,
      "note": 47,
      "start": 1.3774,
      "duration": 0.0095,
      "velocity": 95,
      "chip": "ym2612"
    },
    {
      "channel": 2,
      "note": 47,
      "start": 1.3895,
      "duration": 0.0115,
      "velocity": 95,
      "chip": "ym2612"
    },
    {
      "channel": 3,
      "note": 59,
      "start": 1.4035,
      "duration": 0.0013,
      "velocity": 127,
      "chip": "ym2612"
    },
    {
      "channel": 2,
      "note": 98,
      "start": 1.4257,
      "duration": 0.0036,
      "velocity": 119,
      "chip": "ym2612"
    },
    {
      "channel": 2,
      "note": 98,
      "start": 1.4366,
      "duration": 0.0049,
      "velocity": 119,
      "chip": "ym2612"
    },
    {
      "channel": 3,
      "note": 35,
      "start": 1.4369,
      "duration": 0.0021,
      "velocity": 127,
      "chip": "ym2612"
    },
    {
      "channel": 2,
      "note": 98,
      "start": 1.4594,
      "duration": 0.0038,
      "velocity": 119,
      "chip": "ym2612"
    },
    {
      "channel": 3,
      "note": 59,
      "start": 1.4598,
      "duration": 0.0011,
      "velocity": 127,
      "chip": "ym2612"
    },
    {
      "channel": 0,
      "note": 95,
      "start": 1.4666,
      "duration": 0.0168,
      "velocity": 90,
      "chip": "ym2612"
    },
    {
      "channel": 2,
      "note": 98,
      "start": 1.4702,
      "duration": 0.0057,
      "velocity": 119,
      "chip": "ym2612"
    },
    {
      "channel": 3,
      "note": 54,
      "start": 1.4706,
      "duration": 0.004,
      "velocity": 127,
      "chip": "ym2612"
    },
    {
      "channel": 0,
      "note": 90,
      "start": 1.4861,
      "duration": 0.0093,
      "velocity": 90,
      "chip": "ym2612"
    },
    {
      "channel": 2,
      "note": 98,
      "start": 1.4864,
      "duration": 0.0038,
      "velocity": 119,
      "chip": "ym2612"
    },
    {
      "channel": 3,
      "note": 47,
      "start": 1.4867,
      "duration": 0.0011,
      "velocity": 127,
      "chip": "ym2612"
    },
    {
      "channel": 0,
      "note": 95,
      "start": 1.4973,
      "duration": 0.0246,
      "velocity": 90,
      "chip": "ym2612"
    },
    {
      "channel": 1,
      "note": 43,
      "start": 1.4975,
      "duration": 0.0976,
      "velocity": 102,
      "chip": "ym2612"
    },
    {
      "channel": 2,
      "note": 47,
      "start": 1.4982,
      "duration": 0.0352,
      "velocity": 95,
      "chip": "ym2612"
    },
    {
      "channel": 3,
      "note": 35,
      "start": 1.4987,
      "duration": 0.0044,
      "velocity": 127,
      "chip": "ym2612"
    },
    {
      "channel": 0,
      "note": 97,
      "start": 1.5242,
      "duration": 0.022,
      "velocity": 90,
      "chip": "ym2612"
    },
    {
      "channel": 3,
      "note": 47,
      "start": 1.5245,
      "duration": 0.0013,
      "velocity": 127,
      "chip": "ym2612"
    },
    {
      "channel": 2,
      "note": 55,
      "start": 1.5349,
      "duration": 0.0253,
      "velocity": 95,
      "chip": "ym2612"
    },
    {
      "channel": 0,
      "note": 98,
      "start": 1.5488,
      "duration": 0.0212,
      "velocity": 90,
      "chip": "ym2612"
    },
    {
      "channel": 2,
      "note": 47,
      "start": 1.5616,
      "duration": 0.0084,
      "velocity": 95,
      "chip": "ym2612"
    },
    {
      "channel": 3,
      "note": 54,
      "start": 1.5619,
      "duration": 0.0028,
      "velocity": 127,
      "chip": "ym2612"
    },
    {
      "channel": 0,
      "note": 99,
      "start": 1.5727,
      "duration": 0.0456,
      "velocity": 90,
      "chip": "ym2612"
    },
    {
      "channel": 2,
      "note": 49,
      "start": 1.5729,
      "duration": 0.0455,
      "velocity": 95,
      "chip": "ym2612"
    },
    {
      "channel": 1,
      "note": 45,
      "start": 1.5987,
      "duration": 0.0948,
      "velocity": 102,
      "chip": "ym2612"
    },
    {
      "channel": 3,
      "note": 59,
      "start": 1.599,
      "duration": 0.0021,
      "velocity": 127,
      "chip": "ym2612"
    },
    {
      "channel": 0,
      "note": 97,
      "start": 1.6195,
      "duration": 0.0202,
      "velocity": 90,
      "chip": "ym2612"
    },
    {
      "channel": 2,
      "note": 57,
      "start": 1.6197,
      "duration": 0.0379,
      "velocity": 95,
      "chip": "ym2612"
    },
    {
      "channel": 3,
      "note": 35,
      "start": 1.631,
      "duration": 0.0028,
      "velocity": 127,
      "chip": "ym2612"
    },
    {
      "channel": 0,
      "note": 95,
      "start": 1.6442,
      "duration": 0.0247,
      "velocity": 90,
      "chip": "ym2612"
    },
    {
      "channel": 2,
      "note": 52,
      "start": 1.6589,
      "duration": 0.036,
      "velocity": 95,
      "chip": "ym2612"
    },
    {
      "channel": 3,
      "note": 59,
      "start": 1.6593,
      "duration": 0.0029,
      "velocity": 127,
      "chip": "ym2612"
    },
    {
      "channel": 0,
      "note": 93,
      "start": 1.6741,
      "duration": 0.0207,
      "velocity": 90,
      "chip": "ym2612"
    },
    {
      "channel": 3,
      "note": 54,
      "start": 1.6744,
      "duration": 0.0012,
      "velocity": 127,
      "chip": "ym2612"
    },
    {
      "channel": 3,
      "note": 47,
      "start": 1.6853,
      "duration": 0.0025,
      "velocity": 127,
      "chip": "ym2612"
    },
    {
      "channel": 0,
      "note": 106,
      "start": 1.701,
      "duration": 0.0638,
      "velocity": 90,
      "chip": "ym2612"
    },
    {
      "channel": 1,
      "note": 47,
      "start": 1.7012,
      "duration": 0.5799,
      "velocity": 102,
      "chip": "ym2612"
    },
    {
      "channel": 2,
      "note": 51,
      "start": 1.7015,
      "duration": 0.0338,
      "velocity": 95,
      "chip": "ym2612"
    },
    {
      "channel": 3,
      "note": 35,
      "start": 1.702,
      "duration": 0.0058,
      "velocity": 127,
      "chip": "ym2612"
    },
    {
      "channel": 3,
      "note": 54,
      "start": 1.715,
      "duration": 0.0022,
      "velocity": 127,
      "chip": "ym2612"
    },
    {
      "channel": 3,
      "note": 59,
      "start": 1.7286,
      "duration": 0.0013,
      "velocity": 127,
      "chip": "ym2612"
    },
    {
      "channel": 2,
      "note": 58,
      "start": 1.7379,
      "duration": 0.05,
      "velocity": 95,
      "chip": "ym2612"
    },
    {
      "channel": 3,
      "note": 35,
      "start": 1.7396,
      "duration": 0.0023,
      "velocity": 127,
      "chip": "ym2612"
    },
    {
      "channel": 3,
      "note": 59,
      "start": 1.7654,
      "duration": 0.0065,
      "velocity": 127,
      "chip": "ym2612"
    },
    {
      "channel": 0,
      "note": 107,
      "start": 1.7755,
      "duration": 0.0123,
      "velocity": 90,
      "chip": "ym2612"
    },
    {
      "channel": 0,
      "note": 102,
      "start": 1.7906,
      "duration": 0.0086,
      "velocity": 90,
      "chip": "ym2612"
    },
    {
      "channel": 2,
      "note": 66,
      "start": 1.7908,
      "duration": 0.0928,
      "velocity": 95,
      "chip": "ym2612"
    },
    {
      "channel": 3,
      "note": 54,
      "start": 1.7923,
      "duration": 0.0022,
      "velocity": 127,
      "chip": "ym2612"
    },
    {
      "channel": 0,
      "note": 102,
      "start": 1.8006,
      "duration": 0.0328,
      "velocity": 90,
      "chip": "ym2612"
    },
    {
      "channel": 3,
      "note": 61,
      "start": 1.8027,
      "duration": 0.0013,
      "velocity": 127,
      "chip": "ym2612"
    },
    {
      "channel": 3,
      "note": 59,
      "start": 1.8269,
      "duration": 0.0024,
      "velocity": 127,
      "chip": "ym2612"
    },
    {
      "channel": 0,
      "note": 100,
      "start": 1.8361,
      "duration": 0.0209,
      "velocity": 90,
      "chip": "ym2612"
    },
    {
      "channel": 3,
      "note": 54,
      "start": 1.8387,
      "duration": 0.0012,
      "velocity": 127,
      "chip": "ym2612"
    },
    {
      "channel": 3,
      "note": 59,
      "start": 1.8487,
      "duration": 0.0025,
      "velocity": 127,
      "chip": "ym2612"
    },
    {
      "channel": 0,
      "note": 99,
      "start": 1.8619,
      "duration": 0.0235,
      "velocity": 90,
      "chip": "ym2612"
    },
    {
      "channel": 3,
      "note": 47,
      "start": 1.8675,
      "duration": 0.0009,
      "velocity": 127,
      "chip": "ym2612"
    },
    {
      "channel": 3,
      "note": 59,
      "start": 1.8775,
      "duration": 0.003,
      "velocity": 127,
      "chip": "ym2612"
    },
    {
      "channel": 0,
      "note": 95,
      "start": 1.8867,
      "duration": 0.0731,
      "velocity": 90,
      "chip": "ym2612"
    },
    {
      "channel": 2,
      "note": 51,
      "start": 1.887,
      "duration": 0.0208,
      "velocity": 95,
      "chip": "ym2612"
    },
    {
      "channel": 3,
      "note": 61,
      "start": 1.8899,
      "duration": 0.0024,
      "velocity": 127,
      "chip": "ym2612"
    },
    {
      "channel": 3,
      "note": 59,
      "start": 1.9007,
      "duration": 0.0013,
      "velocity": 127,
      "chip": "ym2612"
    },
    {
      "channel": 2,
      "note": 55,
      "start": 1.9098,
      "duration": 0.0342,
      "velocity": 95,
      "chip": "ym2612"
    },
    {
      "channel": 3,
      "note": 35,
      "start": 1.9115,
      "duration": 0.0038,
      "velocity": 127,
      "chip": "ym2612"
    },
    {
      "channel": 3,
      "note": 54,
      "start": 1.924,
      "duration": 0.001,
      "velocity": 127,
      "chip": "ym2612"
    },
    {
      "channel": 3,
      "note": 59,
      "start": 1.9365,
      "duration": 0.0021,
      "velocity": 127,
      "chip": "ym2612"
    },
    {
      "channel": 2,
      "note": 51,
      "start": 1.945,
      "duration": 0.0295,
      "velocity": 95,
      "chip": "ym2612"
    },
    {
      "channel": 3,
      "note": 35,
      "start": 1.9476,
      "duration": 0.0021,
      "velocity": 127,
      "chip": "ym2612"
    },
    {
      "channel": 3,
      "note": 59,
      "start": 1.9589,
      "duration": 0.0011,
      "velocity": 127,
      "chip": "ym2612"
    },
    {
      "channel": 0,
      "note": 95,
      "start": 1.9631,
      "duration": 0.0114,
      "velocity": 90,
      "chip": "ym2612"
    },
    {
      "channel": 0,
      "note": 101,
      "start": 1.976,
      "duration": 0.0105,
      "velocity": 90,
      "chip": "ym2612"
    },
    {
      "channel": 2,
      "note": 59,
      "start": 1.9763,
      "duration": 0.0962,
      "velocity": 95,
      "chip": "ym2612"
    },
    {
      "channel": 3,
      "note": 54,
      "start": 1.979,
      "duration": 0.0014,
      "velocity": 127,
      "chip": "ym2612"
    },
    {
      "channel": 0,
      "note": 102,
      "start": 1.9892,
      "duration": 0.0333,
      "velocity": 90,
      "chip": "ym2612"
    },
    {
      "channel": 3,
      "note": 61,
      "start": 1.9907,
      "duration": 0.0024,
      "velocity": 127,
      "chip": "ym2612"
    },
    {
      "channel": 3,
      "note": 59,
      "start": 2.016,
      "duration": 0.0013,
      "velocity": 127,
      "chip": "ym2612"
    },
    {
      "channel": 0,
      "note": 100,
      "start": 2.0248,
      "duration": 0.0203,
      "velocity": 90,
      "chip": "ym2612"
    },
    {
      "channel": 3,
      "note": 54,
      "start": 2.0264,
      "duration": 0.0031,
      "velocity": 127,
      "chip": "ym2612"
    },
    {
      "channel": 3,
      "note": 59,
      "start": 2.0388,
      "duration": 0.0009,
      "velocity": 127,
      "chip": "ym2612"
    },
    {
      "channel": 0,
      "note": 99,
      "start": 2.0507,
      "duration": 0.023,
      "velocity": 90,
      "chip": "ym2612"
    },
    {
      "channel": 3,
      "note": 47,
      "start": 2.0523,
      "duration": 0.005,
      "velocity": 127,
      "chip": "ym2612"
    },
    {
      "channel": 3,
      "note": 59,
      "start": 2.0676,
      "duration": 0.0022,
      "velocity": 127,
      "chip": "ym2612"
    },
    {
      "channel": 0,
      "note": 95,
      "start": 2.0764,
      "duration": 0.1927,
      "velocity": 90,
      "chip": "ym2612"
    },
    {
      "channel": 2,
      "note": 56,
      "start": 2.0766,
      "duration": 0.0238,
      "velocity": 95,
      "chip": "ym2612"
    },
    {
      "channel": 3,
      "note": 61,
      "start": 2.0788,
      "duration": 0.001,
      "velocity": 127,
      "chip": "ym2612"
    },
    {
      "channel": 3,
      "note": 59,
      "start": 2.0893,
      "duration": 0.0023,
      "velocity": 127,
      "chip": "ym2612"
    },
    {
      "channel": 2,
      "note": 52,
      "start": 2.1017,
      "duration": 0.0324,
      "velocity": 95,
      "chip": "ym2612"
    },
    {
      "channel": 3,
      "note": 35,
      "start": 2.104,
      "duration": 0.0035,
      "velocity": 127,
      "chip": "ym2612"
    },
    {
      "channel": 3,
      "note": 54,
      "start": 2.1134,
      "duration": 0.0025,
      "velocity": 127,
      "chip": "ym2612"
    },
    {
      "channel": 3,
      "note": 59,
      "start": 2.1273,
      "duration": 0.0022,
      "velocity": 127,
      "chip": "ym2612"
    },
    {
      "channel": 2,
      "note": 59,
      "start": 2.1367,
      "duration": 0.0207,
      "velocity": 95,
      "chip": "ym2612"
    },
    {
      "channel": 3,
      "note": 35,
      "start": 2.1393,
      "duration": 0.0013,
      "velocity": 127,
      "chip": "ym2612"
    },
    {
      "channel": 3,
      "note": 59,
      "start": 2.15,
      "duration": 0.0029,
      "velocity": 127,
      "chip": "ym2612"
    },
    {
      "channel": 2,
      "note": 52,
      "start": 2.1588,
      "duration": 0.0083,
      "velocity": 95,
      "chip": "ym2612"
    },
    {
      "channel": 2,
      "note": 64,
      "start": 2.1698,
      "duration": 0.0644,
      "velocity": 95,
      "chip": "ym2612"
    },
    {
      "channel": 3,
      "note": 54,
      "start": 2.171,
      "duration": 0.002,
      "velocity": 127,
      "chip": "ym2612"
    },
    {
      "channel": 3,
      "note": 61,
      "start": 2.182,
      "duration": 0.0018,
      "velocity": 127,
      "chip": "ym2612"
    },
    {
      "channel": 3,
      "note": 59,
      "start": 2.2058,
      "duration": 0.0021,
      "velocity": 127,
      "chip": "ym2612"
    },
    {
      "channel": 3,
      "note": 54,
      "start": 2.217,
      "duration": 0.0012,
      "velocity": 127,
      "chip": "ym2612"
    },
    {
      "channel": 3,
      "note": 59,
      "start": 2.227,
      "duration": 0.0022,
      "velocity": 127,
      "chip": "ym2612"
    },
    {
      "channel": 2,
      "note": 52,
      "start": 2.2388,
      "duration": 0.0481,
      "velocity": 95,
      "chip": "ym2612"
    },
    {
      "channel": 3,
      "note": 47,
      "start": 2.2446,
      "duration": 0.0022,
      "velocity": 127,
      "chip": "ym2612"
    },
    {
      "channel": 3,
      "note": 59,
      "start": 2.2563,
      "duration": 0.0012,
      "velocity": 127,
      "chip": "ym2612"
    },
    {
      "channel": 3,
      "note": 61,
      "start": 2.2667,
      "duration": 0.0025,
      "velocity": 127,
      "chip": "ym2612"
    },
    {
      "channel": 0,
      "note": 95,
      "start": 2.2726,
      "duration": 0.0138,
      "velocity": 90,
      "chip": "ym2612"
    },
    {
      "channel": 3,
      "note": 59,
      "start": 2.2776,
      "duration": 0.0009,
      "velocity": 127,
      "chip": "ym2612"
    },
    {
      "channel": 0,
      "note": 95,
      "start": 2.2898,
      "duration": 0.0198,
      "velocity": 90,
      "chip": "ym2612"
    },
    {
      "channel": 1,
      "note": 40,
      "start": 2.2901,
      "duration": 0.0916,
      "velocity": 102,
      "chip": "ym2612"
    },
    {
      "channel": 2,
      "note": 54,
      "start": 2.2904,
      "duration": 0.0323,
      "velocity": 95,
      "chip": "ym2612"
    },
    {
      "channel": 3,
      "note": 35,
      "start": 2.2916,
      "duration": 0.0042,
      "velocity": 127,
      "chip": "ym2612"
    },
    {
      "channel": 3,
      "note": 54,
      "start": 2.303,
      "duration": 0.0022,
      "velocity": 127,
      "chip": "ym2612"
    },
    {
      "channel": 0,
      "note": 97,
      "start": 2.3136,
      "duration": 0.0218,
      "velocity": 90,
      "chip": "ym2612"
    },
    {
      "channel": 3,
      "note": 59,
      "start": 2.3163,
      "duration": 0.001,
      "velocity": 127,
      "chip": "ym2612"
    },
    {
      "channel": 2,
      "note": 60,
      "start": 2.3253,
      "duration": 0.0358,
      "velocity": 95,
      "chip": "ym2612"
    },
    {
      "channel": 3,
      "note": 35,
      "start": 2.327,
      "duration": 0.0027,
      "velocity": 127,
      "chip": "ym2612"
    },
    {
      "channel": 0,
      "note": 99,
      "start": 2.3368,
      "duration": 0.0241,
      "velocity": 90,
      "chip": "ym2612"
    },
    {
      "channel": 3,
      "note": 59,
      "start": 2.3402,
      "duration": 0.001,
      "velocity": 127,
      "chip": "ym2612"
    },
    {
      "channel": 0,
      "note": 97,
      "start": 2.3625,
      "duration": 0.0475,
      "velocity": 90,
      "chip": "ym2612"
    },
    {
      "channel": 2,
      "note": 54,
      "start": 2.3627,
      "duration": 0.0092,
      "velocity": 95,
      "chip": "ym2612"
    },
    {
      "channel": 3,
      "note": 54,
      "start": 2.3656,
      "duration": 0.0024,
      "velocity": 127,
      "chip": "ym2612"
    },
    {
      "channel": 2,
      "note": 52,
      "start": 2.3743,
      "duration": 0.0216,
      "velocity": 95,
      "chip": "ym2612"
    },
    {
      "channel": 3,
      "note": 61,
      "start": 2.3774,
      "duration": 0.0013,
      "velocity": 127,
      "chip": "ym2612"
    },
    {
      "channel": 1,
      "note": 42,
      "start": 2.3872,
      "duration": 0.0967,
      "velocity": 102,
      "chip": "ym2612"
    },
    {
      "channel": 2,
      "note": 61,
      "start": 2.4007,
      "duration": 0.0213,
      "velocity": 95,
      "chip": "ym2612"
    },
    {
      "channel": 3,
      "note": 59,
      "start": 2.4033,
      "duration": 0.0014,
      "velocity": 127,
      "chip": "ym2612"
    },
    {
      "channel": 0,
      "note": 94,
      "start": 2.4127,
      "duration": 0.0194,
      "velocity": 90,
      "chip": "ym2612"
    },
    {
      "channel": 3,
      "note": 54,
      "start": 2.4144,
      "duration": 0.0023,
      "velocity": 127,
      "chip": "ym2612"
    },
    {
      "channel": 2,
      "note": 52,
      "start": 2.4233,
      "duration": 0.0089,
      "velocity": 95,
      "chip": "ym2612"
    },
    {
      "channel": 3,
      "note": 59,
      "start": 2.4256,
      "duration": 0.0025,
      "velocity": 127,
      "chip": "ym2612"
    },
    {
      "channel": 0,
      "note": 92,
      "start": 2.438,
      "duration": 0.0245,
      "velocity": 90,
      "chip": "ym2612"
    },
    {
      "channel": 2,
      "note": 65,
      "start": 2.4382,
      "duration": 0.0356,
      "velocity": 95,
      "chip": "ym2612"
    },
    {
      "channel": 3,
      "note": 47,
      "start": 2.4435,
      "duration": 0.0013,
      "velocity": 127,
      "chip": "ym2612"
    },
    {
      "channel": 3,
      "note": 59,
      "start": 2.4546,
      "duration": 0.0022,
      "velocity": 127,
      "chip": "ym2612"
    },
    {
      "channel": 0,
      "note": 90,
      "start": 2.4639,
      "duration": 0.0221,
      "velocity": 90,
      "chip": "ym2612"
    },
    {
      "channel": 3,
      "note": 61,
      "start": 2.4671,
      "duration": 0.0012,
      "velocity": 127,
      "chip": "ym2612"
    },
    {
      "channel": 2,
      "note": 54,
      "start": 2.4764,
      "duration": 0.0102,
      "velocity": 95,
      "chip": "ym2612"
    },
    {
      "channel": 3,
      "note": 59,
      "start": 2.4776,
      "duration": 0.0029,
      "velocity": 127,
      "chip": "ym2612"
    },
    {
      "channel": 0,
      "note": 106,
      "start": 2.4881,
      "duration": 0.0495,
      "velocity": 90,
      "chip": "ym2612"
    },
    {
      "channel": 1,
      "note": 47,
      "start": 2.4883,
      "duration": 0.365,
      "velocity": 102,
      "chip": "ym2612"
    },
    {
      "channel": 2,
      "note": 51,
      "start": 2.4886,
      "duration": 0.0351,
      "velocity": 95,
      "chip": "ym2612"
    },
    {
      "channel": 3,
      "note": 35,
      "start": 2.4891,
      "duration": 0.0063,
      "velocity": 127,
      "chip": "ym2612"
    },
    {
      "channel": 3,
      "note": 54,
      "start": 2.5042,
      "duration": 0.0012,
      "velocity": 127,
      "chip": "ym2612"
    },
    {
      "channel": 3,
      "note": 59,
      "start": 2.5163,
      "duration": 0.0022,
      "velocity": 127,
      "chip": "ym2612"
    },
    {
      "channel": 2,
      "note": 58,
      "start": 2.5249,
      "duration": 0.0323,
      "velocity": 95,
      "chip": "ym2612"
    },
    {
      "channel": 3,
      "note": 35,
      "start": 2.5275,
      "duration": 0.0013,
      "velocity": 127,
      "chip": "ym2612"
    },
    {
      "channel": 3,
      "note": 59,
      "start": 2.5379,
      "duration": 0.003,
      "velocity": 127,
      "chip": "ym2612"
    },
    {
      "channel": 0,
      "note": 107,
      "start": 2.5445,
      "duration": 0.0126,
      "velocity": 90,
      "chip": "ym2612"
    },
    {
      "channel": 0,
      "note": 102,
      "start": 2.5598,
      "duration": 0.0102,
      "velocity": 90,
      "chip": "ym2612"
    },
    {
      "channel": 2,
      "note": 66,
      "start": 2.5601,
      "duration": 0.0927,
      "velocity": 95,
      "chip": "ym2612"
    },
    {
      "channel": 3,
      "note": 54,
      "start": 2.563,
      "duration": 0.0012,
      "velocity": 127,
      "chip": "ym2612"
    },
    {
      "channel": 0,
      "note": 102,
      "start": 2.5721,
      "duration": 0.0327,
      "velocity": 90,
      "chip": "ym2612"
    },
    {
      "channel": 3,
      "note": 61,
      "start": 2.5733,
      "duration": 0.0019,
      "velocity": 127,
      "chip": "ym2612"
    },
    {
      "channel": 3,
      "note": 59,
      "start": 2.5972,
      "duration": 0.0022,
      "velocity": 127,
      "chip": "ym2612"
    },
    {
      "channel": 0,
      "note": 100,
      "start": 2.6063,
      "duration": 0.0202,
      "velocity": 90,
      "chip": "ym2612"
    },
    {
      "channel": 3,
      "note": 54,
      "start": 2.609,
      "duration": 0.0021,
      "velocity": 127,
      "chip": "ym2612"
    },
    {
      "channel": 3,
      "note": 59,
      "start": 2.6201,
      "duration": 0.0009,
      "velocity": 127,
      "chip": "ym2612"
    },
    {
      "channel": 0,
      "note": 99,
      "start": 2.6324,
      "duration": 0.0214,
      "velocity": 90,
      "chip": "ym2612"
    },
    {
      "channel": 3,
      "note": 47,
      "start": 2.634,
      "duration": 0.0027,
      "velocity": 127,
      "chip": "ym2612"
    },
    {
      "channel": 3,
      "note": 59,
      "start": 2.6469,
      "duration": 0.0012,
      "velocity": 127,
      "chip": "ym2612"
    },
    {
      "channel": 0,
      "note": 95,
      "start": 2.6561,
      "duration": 0.0673,
      "velocity": 90,
      "chip": "ym2612"
    },
    {
      "channel": 2,
      "note": 51,
      "start": 2.6564,
      "duration": 0.0202,
      "velocity": 95,
      "chip": "ym2612"
    },
    {
      "channel": 3,
      "note": 61,
      "start": 2.6575,
      "duration": 0.0025,
      "velocity": 127,
      "chip": "ym2612"
    },
    {
      "channel": 3,
      "note": 59,
      "start": 2.6692,
      "duration": 0.0024,
      "velocity": 127,
      "chip": "ym2612"
    },
    {
      "channel": 2,
      "note": 56,
      "start": 2.6808,
      "duration": 0.0334,
      "velocity": 95,
      "chip": "ym2612"
    },
    {
      "channel": 3,
      "note": 35,
      "start": 2.6837,
      "duration": 0.0028,
      "velocity": 127,
      "chip": "ym2612"
    },
    {
      "channel": 3,
      "note": 54,
      "start": 2.6939,
      "duration": 0.0025,
      "velocity": 127,
      "chip": "ym2612"
    },
    {
      "channel": 3,
      "note": 59,
      "start": 2.7076,
      "duration": 0.0012,
      "velocity": 127,
      "chip": "ym2612"
    },
    {
      "channel": 2,
      "note": 51,
      "start": 2.7168,
      "duration": 0.0338,
      "velocity": 95,
      "chip": "ym2612"
    },
    {
      "channel": 3,
      "note": 35,
      "start": 2.7184,
      "duration": 0.0029,
      "velocity": 127,
      "chip": "ym2612"
    },
    {
      "channel": 0,
      "note": 95,
      "start": 2.7248,
      "duration": 0.0131,
      "velocity": 90,
      "chip": "ym2612"
    },
    {
      "channel": 3,
      "note": 59,
      "start": 2.7312,
      "duration": 0.0022,
      "velocity": 127,
      "chip": "ym2612"
    },
    {
      "channel": 0,
      "note": 90,
      "start": 2.7405,
      "duration": 0.01,
      "velocity": 90,
      "chip": "ym2612"
    },
    {
      "channel": 0,
      "note": 95,
      "start": 2.7525,
      "duration": 0.0106,
      "velocity": 90,
      "chip": "ym2612"
    },
    {
      "channel": 2,
      "note": 58,
      "start": 2.7528,
      "duration": 0.0866,
      "velocity": 95,
      "chip": "ym2612"
    },
    {
      "channel": 3,
      "note": 54,
      "start": 2.7543,
      "duration": 0.0028,
      "velocity": 127,
      "chip": "ym2612"
    },
    {
      "channel": 0,
      "note": 101,
      "start": 2.7645,
      "duration": 0.0345,
      "velocity": 90,
      "chip": "ym2612"
    },
    {
      "channel": 3,
      "note": 61,
      "start": 2.7674,
      "duration": 0.0015,
      "velocity": 127,
      "chip": "ym2612"
    },
    {
      "channel": 3,
      "note": 59,
      "start": 2.792,
      "duration": 0.0025,
      "velocity": 127,
      "chip": "ym2612"
    },
    {
      "channel": 0,
      "note": 100,
      "start": 2.8016,
      "duration": 0.0205,
      "velocity": 90,
      "chip": "ym2612"
    },
    {
      "channel": 3,
      "note": 54,
      "start": 2.8042,
      "duration": 0.0012,
      "velocity": 127,
      "chip": "ym2612"
    },
    {
      "channel": 3,
      "note": 59,
      "start": 2.8143,
      "duration": 0.0026,
      "velocity": 127,
      "chip": "ym2612"
    },
    {
      "channel": 0,
      "note": 99,
      "start": 2.8266,
      "duration": 0.0254,
      "velocity": 90,
      "chip": "ym2612"
    },
    {
      "channel": 3,
      "note": 47,
      "start": 2.8324,
      "duration": 0.0009,
      "velocity": 127,
      "chip": "ym2612"
    },
    {
      "channel": 2,
      "note": 54,
      "start": 2.8417,
      "duration": 0.0346,
      "velocity": 95,
      "chip": "ym2612"
    },
    {
      "channel": 3,
      "note": 59,
      "start": 2.8435,
      "duration": 0.0025,
      "velocity": 127,
      "chip": "ym2612"
    },
    {
      "channel": 0,
      "note": 95,
      "start": 2.8532,
      "duration": 0.069,
      "velocity": 90,
      "chip": "ym2612"
    },
    {
      "channel": 3,
      "note": 61,
      "start": 2.8564,
      "duration": 0.0024,
      "velocity": 127,
      "chip": "ym2612"
    },
    {
      "channel": 3,
      "note": 59,
      "start": 2.8693,
      "duration": 0.0009,
      "velocity": 127,
      "chip": "ym2612"
    },
    {
      "channel": 1,
      "note": 40,
      "start": 2.8781,
      "duration": 0.0687,
      "velocity": 102,
      "chip": "ym2612"
    },
    {
      "channel": 2,
      "note": 49,
      "start": 2.8784,
      "duration": 0.0686,
      "velocity": 95,
      "chip": "ym2612"
    },
    {
      "channel": 3,
      "note": 35,
      "start": 2.88,
      "duration": 0.0039,
      "velocity": 127,
      "chip": "ym2612"
    },
    {
      "channel": 3,
      "note": 54,
      "start": 2.8922,
      "duration": 0.0013,
      "velocity": 127,
      "chip": "ym2612"
    },
    {
      "channel": 3,
      "note": 59,
      "start": 2.9041,
      "duration": 0.0025,
      "velocity": 127,
      "chip": "ym2612"
    },
    {
      "channel": 3,
      "note": 35,
      "start": 2.9159,
      "duration": 0.0022,
      "velocity": 127,
      "chip": "ym2612"
    },
    {
      "channel": 0,
      "note": 94,
      "start": 2.9245,
      "duration": 0.0103,
      "velocity": 90,
      "chip": "ym2612"
    },
    {
      "channel": 3,
      "note": 59,
      "start": 2.9278,
      "duration": 0.001,
      "velocity": 127,
      "chip": "ym2612"
    },
    {
      "channel": 0,
      "note": 95,
      "start": 2.9372,
      "duration": 0.0095,
      "velocity": 90,
      "chip": "ym2612"
    },
    {
      "channel": 0,
      "note": 97,
      "start": 2.9484,
      "duration": 0.0642,
      "velocity": 90,
      "chip": "ym2612"
    },
    {
      "channel": 1,
      "note": 42,
      "start": 2.9487,
      "duration": 0.1188,
      "velocity": 102,
      "chip": "ym2612"
    },
    {
      "channel": 2,
      "note": 51,
      "start": 2.9489,
      "duration": 0.0845,
      "velocity": 95,
      "chip": "ym2612"
    },
    {
      "channel": 3,
      "note": 54,
      "start": 2.9518,
      "duration": 0.0013,
      "velocity": 127,
      "chip": "ym2612"
    },
    {
      "channel": 3,
      "note": 61,
      "start": 2.9624,
      "duration": 0.0019,
      "velocity": 127,
      "chip": "ym2612"
    },
    {
      "channel": 3,
      "note": 59,
      "start": 2.9872,
      "duration": 0.0011,
      "velocity": 127,
      "chip": "ym2612"
    },
    {
      "channel": 3,
      "note": 54,
      "start": 2.9969,
      "duration": 0.0031,
      "velocity": 127,
      "chip": "ym2612"
    },
    {
      "channel": 3,
      "note": 59,
      "start": 3.0092,
      "duration": 0.0013,
      "velocity": 127,
      "chip": "ym2612"
    },
    {
      "channel": 0,
      "note": 97,
      "start": 3.015,
      "duration": 0.0184,
      "velocity": 90,
      "chip": "ym2612"
    },
    {
      "channel": 3,
      "note": 47,
      "start": 3.0236,
      "duration": 0.0041,
      "velocity": 127,
      "chip": "ym2612"
    },
    {
      "channel": 0,
      "note": 90,
      "start": 3.0348,
      "duration": 0.0101,
      "velocity": 90,
      "chip": "ym2612"
    },
    {
      "channel": 2,
      "note": 62,
      "start": 3.0351,
      "duration": 0.0349,
      "velocity": 95,
      "chip": "ym2612"
    },
    {
      "channel": 3,
      "note": 59,
      "start": 3.0375,
      "duration": 0.0026,
      "velocity": 127,
      "chip": "ym2612"
    },
    {
      "channel": 0,
      "note": 95,
      "start": 3.0475,
      "duration": 0.0097,
      "velocity": 90,
      "chip": "ym2612"
    },
    {
      "channel": 3,
      "note": 61,
      "start": 3.0502,
      "duration": 0.001,
      "velocity": 127,
      "chip": "ym2612"
    },
    {
      "channel": 0,
      "note": 97,
      "start": 3.0597,
      "duration": 0.0103,
      "velocity": 90,
      "chip": "ym2612"
    },
    {
      "channel": 3,
      "note": 59,
      "start": 3.0615,
      "duration": 0.0022,
      "velocity": 127,
      "chip": "ym2612"
    },
    {
      "channel": 0,
      "note": 98,
      "start": 3.0715,
      "duration": 0.0336,
      "velocity": 90,
      "chip": "ym2612"
    },
    {
      "channel": 1,
      "note": 43,
      "start": 3.0719,
      "duration": 0.0701,
      "velocity": 102,
      "chip": "ym2612"
    },
    {
      "channel": 2,
      "note": 52,
      "start": 3.0721,
      "duration": 0.0704,
      "velocity": 95,
      "chip": "ym2612"
    },
    {
      "channel": 3,
      "note": 35,
      "start": 3.0744,
      "duration": 0.0037,
      "velocity": 127,
      "chip": "ym2612"
    },
    {
      "channel": 3,
      "note": 54,
      "start": 3.0855,
      "duration": 0.0017,
      "velocity": 127,
      "chip": "ym2612"
    },
    {
      "channel": 3,
      "note": 59,
      "start": 3.0984,
      "duration": 0.0022,
      "velocity": 127,
      "chip": "ym2612"
    },
    {
      "channel": 0,
      "note": 91,
      "start": 3.1075,
      "duration": 0.0023,
      "velocity": 90,
      "chip": "ym2612"
    },
    {
      "channel": 3,
      "note": 35,
      "start": 3.1102,
      "duration": 0.0011,
      "velocity": 127,
      "chip": "ym2612"
    },
    {
      "channel": 0,
      "note": 95,
      "start": 3.1113,
      "duration": 0.0023,
      "velocity": 90,
      "chip": "ym2612"
    },
    {
      "channel": 0,
      "note": 98,
      "start": 3.1147,
      "duration": 0.0022,
      "velocity": 90,
      "chip": "ym2612"
    },
    {
      "channel": 0,
      "note": 100,
      "start": 3.1192,
      "duration": 0.0104,
      "velocity": 90,
      "chip": "ym2612"
    },
    {
      "channel": 3,
      "note": 59,
      "start": 3.1208,
      "duration": 0.0032,
      "velocity": 127,
      "chip": "ym2612"
    },
    {
      "channel": 0,
      "note": 98,
      "start": 3.1325,
      "duration": 0.0094,
      "velocity": 90,
      "chip": "ym2612"
    },
    {
      "channel": 0,
      "note": 100,
      "start": 3.1448,
      "duration": 0.1978,
      "velocity": 90,
      "chip": "ym2612"
    },
    {
      "channel": 1,
      "note": 40,
      "start": 3.1451,
      "duration": 0.1546,
      "velocity": 102,
      "chip": "ym2612"
    },
    {
      "channel": 2,
      "note": 54,
      "start": 3.1454,
      "duration": 0.215,
      "velocity": 95,
      "chip": "ym2612"
    },
    {
      "channel": 3,
      "note": 54,
      "start": 3.1465,
      "duration": 0.0026,
      "velocity": 127,
      "chip": "ym2612"
    },
    {
      "channel": 3,
      "note": 61,
      "start": 3.1571,
      "duration": 0.0025,
      "velocity": 127,
      "chip": "ym2612"
    },
    {
      "channel": 3,
      "note": 59,
      "start": 3.1823,
      "duration": 0.0022,
      "velocity": 127,
      "chip": "ym2612"
    },
    {
      "channel": 3,
      "note": 54,
      "start": 3.1944,
      "duration": 0.0013,
      "velocity": 127,
      "chip": "ym2612"
    },
    {
      "channel": 3,
      "note": 59,
      "start": 3.2047,
      "duration": 0.0025,
      "velocity": 127,
      "chip": "ym2612"
    },
    {
      "channel": 3,
      "note": 47,
      "start": 3.2229,
      "duration": 0.0025,
      "velocity": 127,
      "chip": "ym2612"
    },
    {
      "channel": 3,
      "note": 59,
      "start": 3.2334,
      "duration": 0.001,
      "velocity": 127,
      "chip": "ym2612"
    },
    {
      "channel": 3,
      "note": 61,
      "start": 3.2429,
      "duration": 0.0027,
      "velocity": 127,
      "chip": "ym2612"
    },
    {
      "channel": 3,
      "note": 59,
      "start": 3.2555,
      "duration": 0.0013,
      "velocity": 127,
      "chip": "ym2612"
    },
    {
      "channel": 3,
      "note": 35,
      "start": 3.2663,
      "duration": 0.0046,
      "velocity": 127,
      "chip": "ym2612"
    },
    {
      "channel": 3,
      "note": 54,
      "start": 3.2836,
      "duration": 0.0024,
      "velocity": 127,
      "chip": "ym2612"
    },
    {
      "channel": 3,
      "note": 59,
      "start": 3.2955,
      "duration": 0.0011,
      "velocity": 127,
      "chip": "ym2612"
    },
    {
      "channel": 3,
      "note": 35,
      "start": 3.3053,
      "duration": 0.0024,
      "velocity": 127,
      "chip": "ym2612"
    },
    {
      "channel": 3,
      "note": 59,
      "start": 3.3163,
      "duration": 0.001,
      "velocity": 127,
      "chip": "ym2612"
    },
    {
      "channel": 3,
      "note": 54,
      "start": 3.3371,
      "duration": 0.0023,
      "velocity": 127,
      "chip": "ym2612"
    },
    {
      "channel": 0,
      "note": 100,
      "start": 3.3429,
      "duration": 0.0127,
      "velocity": 90,
      "chip": "ym2612"
    },
    {
      "channel": 3,
      "note": 61,
      "start": 3.3486,
      "duration": 0.0012,
      "velocity": 127,
      "chip": "ym2612"
    },
    {
      "channel": 0,
      "note": 116,
      "start": 3.359,
      "duration": 0.0129,
      "velocity": 81,
      "chip": "ym2612"
    },
    {
      "channel": 2,
      "note": 114,
      "start": 3.3662,
      "duration": 0.0131,
      "velocity": 81,
      "chip": "ym2612"
    },
    {
      "channel": 3,
      "note": 59,
      "start": 3.3722,
      "duration": 0.0013,
      "velocity": 127,
      "chip": "ym2612"
    },
    {
      "channel": 0,
      "note": 112,
      "start": 3.3733,
      "duration": 0.0146,
      "velocity": 81,
      "chip": "ym2612"
    },
    {
      "channel": 1,
      "note": 116,
      "start": 3.378,
      "duration": 0.0048,
      "velocity": 81,
      "chip": "ym2612"
    },
    {
      "channel": 2,
      "note": 109,
      "start": 3.3816,
      "duration": 0.0141,
      "velocity": 81,
      "chip": "ym2612"
    },
    {
      "channel": 3,
      "note": 54,
      "start": 3.3833,
      "duration": 0.0026,
      "velocity": 127,
      "chip": "ym2612"
    },
    {
      "channel": 1,
      "note": 114,
      "start": 3.3858,
      "duration": 0.0057,
      "velocity": 81,
      "chip": "ym2612"
    },
    {
      "channel": 0,
      "note": 107,
      "start": 3.3893,
      "duration": 0.0141,
      "velocity": 81,
      "chip": "ym2612"
    },
    {
      "channel": 1,
      "note": 112,
      "start": 3.3931,
      "duration": 0.0069,
      "velocity": 81,
      "chip": "ym2612"
    },
    {
      "channel": 3,
      "note": 59,
      "start": 3.3959,
      "duration": 0.0028,
      "velocity": 127,
      "chip": "ym2612"
    },
    {
      "channel": 2,
      "note": 104,
      "start": 3.3986,
      "duration": 0.0136,
      "velocity": 81,
      "chip": "ym2612"
    },
    {
      "channel": 1,
      "note": 109,
      "start": 3.4024,
      "duration": 0.0054,
      "velocity": 81,
      "chip": "ym2612"
    },
    {
      "channel": 0,
      "note": 102,
      "start": 3.4057,
      "duration": 0.0135,
      "velocity": 81,
      "chip": "ym2612"
    },
    {
      "channel": 3,
      "note": 47,
      "start": 3.4083,
      "duration": 0.0017,
      "velocity": 127,
      "chip": "ym2612"
    },
    {
      "channel": 1,
      "note": 107,
      "start": 3.41,
      "duration": 0.0059,
      "velocity": 81,
      "chip": "ym2612"
    },
    {
      "channel": 2,
      "note": 100,
      "start": 3.4137,
      "duration": 0.0153,
      "velocity": 81,
      "chip": "ym2612"
    },
    {
      "channel": 1,
      "note": 104,
      "start": 3.4183,
      "duration": 0.0054,
      "velocity": 81,
      "chip": "ym2612"
    },
    {
      "channel": 3,
      "note": 59,
      "start": 3.4196,
      "duration": 0.0028,
      "velocity": 127,
      "chip": "ym2612"
    },
    {
      "channel": 0,
      "note": 97,
      "start": 3.4223,
      "duration": 0.0149,
      "velocity": 81,
      "chip": "ym2612"
    },
    {
      "channel": 1,
      "note": 102,
      "start": 3.4265,
      "duration": 0.0065,
      "velocity": 81,
      "chip": "ym2612"
    },
    {
      "channel": 2,
      "note": 95,
      "start": 3.4305,
      "duration": 0.0144,
      "velocity": 81,
      "chip": "ym2612"
    },
    {
      "channel": 3,
      "note": 61,
      "start": 3.4333,
      "duration": 0.0017,
      "velocity": 127,
      "chip": "ym2612"
    },
    {
      "channel": 1,
      "note": 100,
      "start": 3.435,
      "duration": 0.0061,
      "velocity": 81,
      "chip": "ym2612"
    },
    {
      "channel": 0,
      "note": 92,
      "start": 3.4398,
      "duration": 0.0139,
      "velocity": 81,
      "chip": "ym2612"
    },
    {
      "channel": 1,
      "note": 97,
      "start": 3.4436,
      "duration": 0.006,
      "velocity": 81,
      "chip": "ym2612"
    },
    {
      "channel": 3,
      "note": 59,
      "start": 3.4451,
      "duration": 0.0024,
      "velocity": 127,
      "chip": "ym2612"
    },
    {
      "channel": 2,
      "note": 90,
      "start": 3.4474,
      "duration": 0.0064,
      "velocity": 81,
      "chip": "ym2612"
    },
    {
      "channel": 1,
      "note": 95,
      "start": 3.4513,
      "duration": 0.0025,
      "velocity": 81,
      "chip": "ym2612"
    },
    {
      "channel": 0,
      "note": 100,
      "start": 3.4558,
      "duration": 41.6704,
      "velocity": 90,
      "chip": "ym2612"
    },
    {
      "channel": 1,
      "note": 35,
      "start": 3.4565,
      "duration": 41.6697,
      "velocity": 102,
      "chip": "ym2612"
    },
    {
      "channel": 2,
      "note": 47,
      "start": 3.4571,
      "duration": 0.0114,
      "velocity": 95,
      "chip": "ym2612"
    },
    {
      "channel": 3,
      "note": 35,
      "start": 3.4576,
      "duration": 0.0041,
      "velocity": 127,
      "chip": "ym2612"
    },
    {
      "channel": 2,
      "note": 98,
      "start": 3.4708,
      "duration": 0.0049,
      "velocity": 119,
      "chip": "ym2612"
    }
  ]
}