{
  "track_name": "08 - Reef Airspace",
  "duration_sec": 48.396,
  "sample_rate": 44100,
  "note_count": 1443,
  "unique_pitches": 33,
  "pitch_range": 71,
  "avg_note_duration": 0.1652,
  "reconstruction_stats": {
    "notes_reconstructed": 1443,
    "keyon_events": 1443,
    "keyoff_events": 1438,
    "orphan_keyons": 5,
    "unique_pitches": 33,
    "pitch_range": 71,
    "avg_duration_sec": 0.1652
  },
  "metadata": {
    "source": "W\\Whip Rush\\08 - Reef Airspace.vgz"
  },
  "notes": [
    {
      "channel": 0,
      "note": 53,
      "start": 0.0,
      "duration": 0.0944,
      "velocity": 127,
      "chip": "ym2612"
    },
    {
      "channel": 4,
      "note": 61,
      "start": 0.0064,
      "duration": 1.0527,
      "velocity": 91,
      "chip": "ym2612"
    },
    {
      "channel": 2,
      "note": 37,
      "start": 0.0076,
      "duration": 0.0839,
      "velocity": 120,
      "chip": "ym2612"
    },
    {
      "channel": 5,
      "note": 53,
      "start": 0.06,
      "duration": 0.1039,
      "velocity": 127,
      "chip": "ym2612"
    },
    {
      "channel": 0,
      "note": 54,
      "start": 0.095,
      "duration": 0.1069,
      "velocity": 127,
      "chip": "ym2612"
    },
    {
      "channel": 2,
      "note": 56,
      "start": 0.0966,
      "duration": 0.1025,
      "velocity": 116,
      "chip": "ym2612"
    },
    {
      "channel": 5,
      "note": 54,
      "start": 0.1645,
      "duration": 0.1065,
      "velocity": 127,
      "chip": "ym2612"
    },
    {
      "channel": 0,
      "note": 56,
      "start": 0.2024,
      "duration": 0.1061,
      "velocity": 127,
      "chip": "ym2612"
    },
    {
      "channel": 2,
      "note": 56,
      "start": 0.204,
      "duration": 0.1017,
      "velocity": 116,
      "chip": "ym2612"
    },
    {
      "channel": 5,
      "note": 56,
      "start": 0.2715,
      "duration": 0.1065,
      "velocity": 127,
      "chip": "ym2612"
    },
    {
      "channel": 0,
      "note": 57,
      "start": 0.3091,
      "duration": 0.1067,
      "velocity": 127,
      "chip": "ym2612"
    },
    {
      "channel": 2,
      "note": 56,
      "start": 0.3107,
      "duration": 0.1023,
      "velocity": 116,
      "chip": "ym2612"
    },
    {
      "channel": 5,
      "note": 57,
      "start": 0.3787,
      "duration": 0.1066,
      "velocity": 127,
      "chip": "ym2612"
    },
    {
      "channel": 0,
      "note": 56,
      "start": 0.4164,
      "duration": 0.1064,
      "velocity": 127,
      "chip": "ym2612"
    },
    {
      "channel": 2,
      "note": 37,
      "start": 0.418,
      "duration": 0.102,
      "velocity": 120,
      "chip": "ym2612"
    },
    {
      "channel": 5,
      "note": 56,
      "start": 0.4858,
      "duration": 0.1064,
      "velocity": 127,
      "chip": "ym2612"
    },
    {
      "channel": 0,
      "note": 54,
      "start": 0.5234,
      "duration": 0.1066,
      "velocity": 127,
      "chip": "ym2612"
    },
    {
      "channel": 2,
      "note": 56,
      "start": 0.525,
      "duration": 0.1022,
      "velocity": 116,
      "chip": "ym2612"
    },
    {
      "channel": 5,
      "note": 54,
      "start": 0.5928,
      "duration": 0.1066,
      "velocity": 127,
      "chip": "ym2612"
    },
    {
      "channel": 0,
      "note": 53,
      "start": 0.6306,
      "duration": 0.1063,
      "velocity": 127,
      "chip": "ym2612"
    },
    {
      "channel": 2,
      "note": 56,
      "start": 0.6322,
      "duration": 0.102,
      "velocity": 116,
      "chip": "ym2612"
    },
    {
      "channel": 5,
      "note": 53,
      "start": 0.7,
      "duration": 0.1064,
      "velocity": 127,
      "chip": "ym2612"
    },
    {
      "channel": 0,
      "note": 54,
      "start": 0.7375,
      "duration": 0.1067,
      "velocity": 127,
      "chip": "ym2612"
    },
    {
      "channel": 2,
      "note": 56,
      "start": 0.7391,
      "duration": 0.1022,
      "velocity": 116,
      "chip": "ym2612"
    },
    {
      "channel": 5,
      "note": 54,
      "start": 0.807,
      "duration": 0.1066,
      "velocity": 127,
      "chip": "ym2612"
    },
    {
      "channel": 0,
      "note": 56,
      "start": 0.8448,
      "duration": 0.1064,
      "velocity": 127,
      "chip": "ym2612"
    },
    {
      "channel": 2,
      "note": 37,
      "start": 0.8464,
      "duration": 0.102,
      "velocity": 120,
      "chip": "ym2612"
    },
    {
      "channel": 5,
      "note": 56,
      "start": 0.9141,
      "duration": 0.1066,
      "velocity": 127,
      "chip": "ym2612"
    },
    {
      "channel": 0,
      "note": 57,
      "start": 0.9518,
      "duration": 0.1065,
      "velocity": 127,
      "chip": "ym2612"
    },
    {
      "channel": 2,
      "note": 56,
      "start": 0.9534,
      "duration": 0.1021,
      "velocity": 116,
      "chip": "ym2612"
    },
    {
      "channel": 5,
      "note": 57,
      "start": 1.0212,
      "duration": 0.1067,
      "velocity": 127,
      "chip": "ym2612"
    },
    {
      "channel": 0,
      "note": 56,
      "start": 1.0588,
      "duration": 0.1066,
      "velocity": 127,
      "chip": "ym2612"
    },
    {
      "channel": 4,
      "note": 59,
      "start": 1.0597,
      "duration": 0.2138,
      "velocity": 91,
      "chip": "ym2612"
    },
    {
      "channel": 2,
      "note": 56,
      "start": 1.0609,
      "duration": 0.1017,
      "velocity": 116,
      "chip": "ym2612"
    },
    {
      "channel": 5,
      "note": 56,
      "start": 1.1285,
      "duration": 0.1064,
      "velocity": 127,
      "chip": "ym2612"
    },
    {
      "channel": 0,
      "note": 54,
      "start": 1.166,
      "duration": 0.1067,
      "velocity": 127,
      "chip": "ym2612"
    },
    {
      "channel": 2,
      "note": 56,
      "start": 1.1676,
      "duration": 0.1022,
      "velocity": 116,
      "chip": "ym2612"
    },
    {
      "channel": 5,
      "note": 54,
      "start": 1.2354,
      "duration": 0.1069,
      "velocity": 127,
      "chip": "ym2612"
    },
    {
      "channel": 0,
      "note": 53,
      "start": 1.2732,
      "duration": 0.1066,
      "velocity": 127,
      "chip": "ym2612"
    },
    {
      "channel": 4,
      "note": 57,
      "start": 1.2741,
      "duration": 0.2135,
      "velocity": 91,
      "chip": "ym2612"
    },
    {
      "channel": 2,
      "note": 37,
      "start": 1.2752,
      "duration": 0.1017,
      "velocity": 120,
      "chip": "ym2612"
    },
    {
      "channel": 5,
      "note": 53,
      "start": 1.3429,
      "duration": 0.1061,
      "velocity": 127,
      "chip": "ym2612"
    },
    {
      "channel": 0,
      "note": 54,
      "start": 1.3803,
      "duration": 0.1064,
      "velocity": 127,
      "chip": "ym2612"
    },
    {
      "channel": 2,
      "note": 56,
      "start": 1.3819,
      "duration": 0.102,
      "velocity": 116,
      "chip": "ym2612"
    },
    {
      "channel": 5,
      "note": 54,
      "start": 1.4496,
      "duration": 0.1066,
      "velocity": 127,
      "chip": "ym2612"
    },
    {
      "channel": 0,
      "note": 53,
      "start": 1.4873,
      "duration": 0.1066,
      "velocity": 127,
      "chip": "ym2612"
    },
    {
      "channel": 4,
      "note": 56,
      "start": 1.4882,
      "duration": 0.2189,
      "velocity": 91,
      "chip": "ym2612"
    },
    {
      "channel": 2,
      "note": 56,
      "start": 1.4893,
      "duration": 0.1017,
      "velocity": 116,
      "chip": "ym2612"
    },
    {
      "channel": 5,
      "note": 53,
      "start": 1.5567,
      "duration": 0.1065,
      "velocity": 127,
      "chip": "ym2612"
    },
    {
      "channel": 0,
      "note": 54,
      "start": 1.5944,
      "duration": 0.109,
      "velocity": 127,
      "chip": "ym2612"
    },
    {
      "channel": 2,
      "note": 56,
      "start": 1.5961,
      "duration": 0.1021,
      "velocity": 116,
      "chip": "ym2612"
    },
    {
      "channel": 5,
      "note": 54,
      "start": 1.6639,
      "duration": 0.1092,
      "velocity": 127,
      "chip": "ym2612"
    },
    {
      "channel": 0,
      "note": 53,
      "start": 1.7041,
      "duration": 0.1038,
      "velocity": 127,
      "chip": "ym2612"
    },
    {
      "channel": 4,
      "note": 61,
      "start": 1.7077,
      "duration": 1.0651,
      "velocity": 91,
      "chip": "ym2612"
    },
    {
      "channel": 2,
      "note": 37,
      "start": 1.7088,
      "duration": 0.0964,
      "velocity": 120,
      "chip": "ym2612"
    },
    {
      "channel": 5,
      "note": 53,
      "start": 1.7736,
      "duration": 0.1039,
      "velocity": 127,
      "chip": "ym2612"
    },
    {
      "channel": 0,
      "note": 54,
      "start": 1.8085,
      "duration": 0.107,
      "velocity": 127,
      "chip": "ym2612"
    },
    {
      "channel": 2,
      "note": 56,
      "start": 1.8101,
      "duration": 0.1026,
      "velocity": 116,
      "chip": "ym2612"
    },
    {
      "channel": 5,
      "note": 54,
      "start": 1.8782,
      "duration": 0.1064,
      "velocity": 127,
      "chip": "ym2612"
    },
    {
      "channel": 0,
      "note": 56,
      "start": 1.9161,
      "duration": 0.1061,
      "velocity": 127,
      "chip": "ym2612"
    },
    {
      "channel": 2,
      "note": 56,
      "start": 1.9177,
      "duration": 0.1017,
      "velocity": 116,
      "chip": "ym2612"
    },
    {
      "channel": 5,
      "note": 56,
      "start": 1.9852,
      "duration": 0.1066,
      "velocity": 127,
      "chip": "ym2612"
    },
    {
      "channel": 0,
      "note": 57,
      "start": 2.0228,
      "duration": 0.1067,
      "velocity": 127,
      "chip": "ym2612"
    },
    {
      "channel": 2,
      "note": 56,
      "start": 2.0244,
      "duration": 0.1022,
      "velocity": 116,
      "chip": "ym2612"
    },
    {
      "channel": 5,
      "note": 57,
      "start": 2.0923,
      "duration": 0.1065,
      "velocity": 127,
      "chip": "ym2612"
    },
    {
      "channel": 0,
      "note": 56,
      "start": 2.1301,
      "duration": 0.1063,
      "velocity": 127,
      "chip": "ym2612"
    },
    {
      "channel": 2,
      "note": 37,
      "start": 2.1317,
      "duration": 0.1019,
      "velocity": 120,
      "chip": "ym2612"
    },
    {
      "channel": 5,
      "note": 56,
      "start": 2.1993,
      "duration": 0.1066,
      "velocity": 127,
      "chip": "ym2612"
    },
    {
      "channel": 0,
      "note": 54,
      "start": 2.2369,
      "duration": 0.1066,
      "velocity": 127,
      "chip": "ym2612"
    },
    {
      "channel": 2,
      "note": 56,
      "start": 2.2385,
      "duration": 0.1022,
      "velocity": 116,
      "chip": "ym2612"
    },
    {
      "channel": 5,
      "note": 54,
      "start": 2.3065,
      "duration": 0.1064,
      "velocity": 127,
      "chip": "ym2612"
    },
    {
      "channel": 0,
      "note": 53,
      "start": 2.3441,
      "duration": 0.1065,
      "velocity": 127,
      "chip": "ym2612"
    },
    {
      "channel": 2,
      "note": 56,
      "start": 2.3457,
      "duration": 0.1021,
      "velocity": 116,
      "chip": "ym2612"
    },
    {
      "channel": 5,
      "note": 53,
      "start": 2.4135,
      "duration": 0.1066,
      "velocity": 127,
      "chip": "ym2612"
    },
    {
      "channel": 0,
      "note": 54,
      "start": 2.4511,
      "duration": 0.1067,
      "velocity": 127,
      "chip": "ym2612"
    },
    {
      "channel": 2,
      "note": 56,
      "start": 2.4527,
      "duration": 0.1023,
      "velocity": 116,
      "chip": "ym2612"
    },
    {
      "channel": 5,
      "note": 54,
      "start": 2.5207,
      "duration": 0.1066,
      "velocity": 127,
      "chip": "ym2612"
    },
    {
      "channel": 0,
      "note": 56,
      "start": 2.5585,
      "duration": 0.1063,
      "velocity": 127,
      "chip": "ym2612"
    },
    {
      "channel": 2,
      "note": 37,
      "start": 2.56,
      "duration": 0.102,
      "velocity": 120,
      "chip": "ym2612"
    },
    {
      "channel": 5,
      "note": 56,
      "start": 2.6278,
      "duration": 0.1065,
      "velocity": 127,
      "chip": "ym2612"
    },
    {
      "channel": 0,
      "note": 57,
      "start": 2.6654,
      "duration": 0.1066,
      "velocity": 127,
      "chip": "ym2612"
    },
    {
      "channel": 2,
      "note": 56,
      "start": 2.667,
      "duration": 0.1022,
      "velocity": 116,
      "chip": "ym2612"
    },
    {
      "channel": 5,
      "note": 57,
      "start": 2.7349,
      "duration": 0.1066,
      "velocity": 127,
      "chip": "ym2612"
    },
    {
      "channel": 0,
      "note": 56,
      "start": 2.7725,
      "duration": 0.1066,
      "velocity": 127,
      "chip": "ym2612"
    },
    {
      "channel": 4,
      "note": 59,
      "start": 2.7735,
      "duration": 0.2137,
      "velocity": 91,
      "chip": "ym2612"
    },
    {
      "channel": 2,
      "note": 56,
      "start": 2.7745,
      "duration": 0.1017,
      "velocity": 116,
      "chip": "ym2612"
    },
    {
      "channel": 5,
      "note": 56,
      "start": 2.842,
      "duration": 0.1064,
      "velocity": 127,
      "chip": "ym2612"
    },
    {
      "channel": 0,
      "note": 54,
      "start": 2.8797,
      "duration": 0.1066,
      "velocity": 127,
      "chip": "ym2612"
    },
    {
      "channel": 2,
      "note": 56,
      "start": 2.8813,
      "duration": 0.1022,
      "velocity": 116,
      "chip": "ym2612"
    },
    {
      "channel": 5,
      "note": 54,
      "start": 2.949,
      "duration": 0.107,
      "velocity": 127,
      "chip": "ym2612"
    },
    {
      "channel": 0,
      "note": 53,
      "start": 2.9868,
      "duration": 0.1064,
      "velocity": 127,
      "chip": "ym2612"
    },
    {
      "channel": 4,
      "note": 57,
      "start": 2.9877,
      "duration": 0.2136,
      "velocity": 91,
      "chip": "ym2612"
    },
    {
      "channel": 2,
      "note": 37,
      "start": 2.9888,
      "duration": 0.1017,
      "velocity": 120,
      "chip": "ym2612"
    },
    {
      "channel": 5,
      "note": 53,
      "start": 3.0566,
      "duration": 0.1062,
      "velocity": 127,
      "chip": "ym2612"
    },
    {
      "channel": 0,
      "note": 54,
      "start": 3.0938,
      "duration": 0.1066,
      "velocity": 127,
      "chip": "ym2612"
    },
    {
      "channel": 2,
      "note": 56,
      "start": 3.0954,
      "duration": 0.1021,
      "velocity": 116,
      "chip": "ym2612"
    },
    {
      "channel": 5,
      "note": 54,
      "start": 3.1634,
      "duration": 0.1066,
      "velocity": 127,
      "chip": "ym2612"
    },
    {
      "channel": 0,
      "note": 53,
      "start": 3.201,
      "duration": 0.1065,
      "velocity": 127,
      "chip": "ym2612"
    },
    {
      "channel": 4,
      "note": 56,
      "start": 3.2018,
      "duration": 0.2143,
      "velocity": 91,
      "chip": "ym2612"
    },
    {
      "channel": 2,
      "note": 56,
      "start": 3.2029,
      "duration": 0.1017,
      "velocity": 116,
      "chip": "ym2612"
    },
    {
      "channel": 5,
      "note": 53,
      "start": 3.2705,
      "duration": 0.1064,
      "velocity": 127,
      "chip": "ym2612"
    },
    {
      "channel": 0,
      "note": 54,
      "start": 3.308,
      "duration": 0.1067,
      "velocity": 127,
      "chip": "ym2612"
    },
    {
      "channel": 2,
      "note": 56,
      "start": 3.3096,
      "duration": 0.1022,
      "velocity": 116,
      "chip": "ym2612"
    },
    {
      "channel": 5,
      "note": 54,
      "start": 3.3775,
      "duration": 0.1066,
      "velocity": 127,
      "chip": "ym2612"
    },
    {
      "channel": 0,
      "note": 54,
      "start": 3.4153,
      "duration": 0.1063,
      "velocity": 127,
      "chip": "ym2612"
    },
    {
      "channel": 4,
      "note": 62,
      "start": 3.4168,
      "duration": 1.0697,
      "velocity": 91,
      "chip": "ym2612"
    },
    {
      "channel": 2,
      "note": 37,
      "start": 3.4178,
      "duration": 0.1011,
      "velocity": 120,
      "chip": "ym2612"
    },
    {
      "channel": 5,
      "note": 54,
      "start": 3.4846,
      "duration": 0.1065,
      "velocity": 127,
      "chip": "ym2612"
    },
    {
      "channel": 0,
      "note": 56,
      "start": 3.5222,
      "duration": 0.1069,
      "velocity": 127,
      "chip": "ym2612"
    },
    {
      "channel": 2,
      "note": 56,
      "start": 3.5238,
      "duration": 0.1024,
      "velocity": 116,
      "chip": "ym2612"
    },
    {
      "channel": 5,
      "note": 56,
      "start": 3.5917,
      "duration": 0.1064,
      "velocity": 127,
      "chip": "ym2612"
    },
    {
      "channel": 0,
      "note": 57,
      "start": 3.6297,
      "duration": 0.1061,
      "velocity": 127,
      "chip": "ym2612"
    },
    {
      "channel": 2,
      "note": 56,
      "start": 3.6313,
      "duration": 0.1017,
      "velocity": 116,
      "chip": "ym2612"
    },
    {
      "channel": 5,
      "note": 57,
      "start": 3.6988,
      "duration": 0.1066,
      "velocity": 127,
      "chip": "ym2612"
    },
    {
      "channel": 0,
      "note": 59,
      "start": 3.7364,
      "duration": 0.1066,
      "velocity": 127,
      "chip": "ym2612"
    },
    {
      "channel": 2,
      "note": 56,
      "start": 3.738,
      "duration": 0.1022,
      "velocity": 116,
      "chip": "ym2612"
    },
    {
      "channel": 5,
      "note": 59,
      "start": 3.8059,
      "duration": 0.1065,
      "velocity": 127,
      "chip": "ym2612"
    },
    {
      "channel": 0,
      "note": 57,
      "start": 3.8436,
      "duration": 0.1065,
      "velocity": 127,
      "chip": "ym2612"
    },
    {
      "channel": 2,
      "note": 37,
      "start": 3.8452,
      "duration": 0.1021,
      "velocity": 120,
      "chip": "ym2612"
    },
    {
      "channel": 5,
      "note": 57,
      "start": 3.913,
      "duration": 0.1065,
      "velocity": 127,
      "chip": "ym2612"
    },
    {
      "channel": 0,
      "note": 56,
      "start": 3.9507,
      "duration": 0.1065,
      "velocity": 127,
      "chip": "ym2612"
    },
    {
      "channel": 2,
      "note": 56,
      "start": 3.9523,
      "duration": 0.1021,
      "velocity": 116,
      "chip": "ym2612"
    },
    {
      "channel": 5,
      "note": 56,
      "start": 4.0201,
      "duration": 0.1066,
      "velocity": 127,
      "chip": "ym2612"
    },
    {
      "channel": 0,
      "note": 54,
      "start": 4.0578,
      "duration": 0.1065,
      "velocity": 127,
      "chip": "ym2612"
    },
    {
      "channel": 2,
      "note": 56,
      "start": 4.0593,
      "duration": 0.1021,
      "velocity": 116,
      "chip": "ym2612"
    },
    {
      "channel": 5,
      "note": 54,
      "start": 4.1273,
      "duration": 0.1065,
      "velocity": 127,
      "chip": "ym2612"
    },
    {
      "channel": 0,
      "note": 56,
      "start": 4.1648,
      "duration": 0.1067,
      "velocity": 127,
      "chip": "ym2612"
    },
    {
      "channel": 2,
      "note": 56,
      "start": 4.1664,
      "duration": 0.1022,
      "velocity": 116,
      "chip": "ym2612"
    },
    {
      "channel": 5,
      "note": 56,
      "start": 4.2343,
      "duration": 0.1065,
      "velocity": 127,
      "chip": "ym2612"
    },
    {
      "channel": 0,
      "note": 57,
      "start": 4.2721,
      "duration": 0.1065,
      "velocity": 127,
      "chip": "ym2612"
    },
    {
      "channel": 2,
      "note": 37,
      "start": 4.2736,
      "duration": 0.1021,
      "velocity": 120,
      "chip": "ym2612"
    },
    {
      "channel": 5,
      "note": 57,
      "start": 4.3415,
      "duration": 0.1065,
      "velocity": 127,
      "chip": "ym2612"
    },
    {
      "channel": 0,
      "note": 59,
      "start": 4.3791,
      "duration": 0.1064,
      "velocity": 127,
      "chip": "ym2612"
    },
    {
      "channel": 2,
      "note": 56,
      "start": 4.3807,
      "duration": 0.102,
      "velocity": 116,
      "chip": "ym2612"
    },
    {
      "channel": 5,
      "note": 59,
      "start": 4.4485,
      "duration": 0.1066,
      "velocity": 127,
      "chip": "ym2612"
    },
    {
      "channel": 0,
      "note": 57,
      "start": 4.4861,
      "duration": 0.1066,
      "velocity": 127,
      "chip": "ym2612"
    },
    {
      "channel": 4,
      "note": 61,
      "start": 4.487,
      "duration": 0.2137,
      "velocity": 91,
      "chip": "ym2612"
    },
    {
      "channel": 2,
      "note": 56,
      "start": 4.4881,
      "duration": 0.1018,
      "velocity": 116,
      "chip": "ym2612"
    },
    {
      "channel": 5,
      "note": 57,
      "start": 4.5556,
      "duration": 0.1065,
      "velocity": 127,
      "chip": "ym2612"
    },
    {
      "channel": 0,
      "note": 56,
      "start": 4.5932,
      "duration": 0.1066,
      "velocity": 127,
      "chip": "ym2612"
    },
    {
      "channel": 2,
      "note": 56,
      "start": 4.5948,
      "duration": 0.1022,
      "velocity": 116,
      "chip": "ym2612"
    },
    {
      "channel": 5,
      "note": 56,
      "start": 4.6627,
      "duration": 0.1069,
      "velocity": 127,
      "chip": "ym2612"
    },
    {
      "channel": 0,
      "note": 54,
      "start": 4.7004,
      "duration": 0.1064,
      "velocity": 127,
      "chip": "ym2612"
    },
    {
      "channel": 4,
      "note": 59,
      "start": 4.7013,
      "duration": 0.2136,
      "velocity": 91,
      "chip": "ym2612"
    },
    {
      "channel": 2,
      "note": 37,
      "start": 4.7024,
      "duration": 0.1017,
      "velocity": 120,
      "chip": "ym2612"
    },
    {
      "channel": 5,
      "note": 54,
      "start": 4.7702,
      "duration": 0.1062,
      "velocity": 127,
      "chip": "ym2612"
    },
    {
      "channel": 0,
      "note": 56,
      "start": 4.8074,
      "duration": 0.1066,
      "velocity": 127,
      "chip": "ym2612"
    },
    {
      "channel": 2,
      "note": 56,
      "start": 4.809,
      "duration": 0.1022,
      "velocity": 116,
      "chip": "ym2612"
    },
    {
      "channel": 5,
      "note": 56,
      "start": 4.877,
      "duration": 0.1065,
      "velocity": 127,
      "chip": "ym2612"
    },
    {
      "channel": 0,
      "note": 54,
      "start": 4.9146,
      "duration": 0.1065,
      "velocity": 127,
      "chip": "ym2612"
    },
    {
      "channel": 4,
      "note": 57,
      "start": 4.9154,
      "duration": 0.2139,
      "velocity": 91,
      "chip": "ym2612"
    },
    {
      "channel": 2,
      "note": 56,
      "start": 4.9165,
      "duration": 0.1017,
      "velocity": 116,
      "chip": "ym2612"
    },
    {
      "channel": 5,
      "note": 54,
      "start": 4.9841,
      "duration": 0.1065,
      "velocity": 127,
      "chip": "ym2612"
    },
    {
      "channel": 0,
      "note": 56,
      "start": 5.0216,
      "duration": 0.1069,
      "velocity": 127,
      "chip": "ym2612"
    },
    {
      "channel": 2,
      "note": 56,
      "start": 5.0232,
      "duration": 0.1023,
      "velocity": 116,
      "chip": "ym2612"
    },
    {
      "channel": 5,
      "note": 56,
      "start": 5.0912,
      "duration": 0.1065,
      "velocity": 127,
      "chip": "ym2612"
    },
    {
      "channel": 0,
      "note": 54,
      "start": 5.1291,
      "duration": 0.1062,
      "velocity": 127,
      "chip": "ym2612"
    },
    {
      "channel": 4,
      "note": 62,
      "start": 5.13,
      "duration": 1.0702,
      "velocity": 91,
      "chip": "ym2612"
    },
    {
      "channel": 2,
      "note": 37,
      "start": 5.131,
      "duration": 0.1015,
      "velocity": 120,
      "chip": "ym2612"
    },
    {
      "channel": 5,
      "note": 54,
      "start": 5.1983,
      "duration": 0.1065,
      "velocity": 127,
      "chip": "ym2612"
    },
    {
      "channel": 0,
      "note": 56,
      "start": 5.2359,
      "duration": 0.1069,
      "velocity": 127,
      "chip": "ym2612"
    },
    {
      "channel": 2,
      "note": 56,
      "start": 5.2375,
      "duration": 0.1025,
      "velocity": 116,
      "chip": "ym2612"
    },
    {
      "channel": 5,
      "note": 56,
      "start": 5.3054,
      "duration": 0.1064,
      "velocity": 127,
      "chip": "ym2612"
    },
    {
      "channel": 0,
      "note": 57,
      "start": 5.3433,
      "duration": 0.1062,
      "velocity": 127,
      "chip": "ym2612"
    },
    {
      "channel": 2,
      "note": 56,
      "start": 5.345,
      "duration": 0.1017,
      "velocity": 116,
      "chip": "ym2612"
    },
    {
      "channel": 5,
      "note": 57,
      "start": 5.4124,
      "duration": 0.1065,
      "velocity": 127,
      "chip": "ym2612"
    },
    {
      "channel": 0,
      "note": 59,
      "start": 5.45,
      "duration": 0.1066,
      "velocity": 127,
      "chip": "ym2612"
    },
    {
      "channel": 2,
      "note": 56,
      "start": 5.4516,
      "duration": 0.1022,
      "velocity": 116,
      "chip": "ym2612"
    },
    {
      "channel": 5,
      "note": 59,
      "start": 5.5195,
      "duration": 0.1066,
      "velocity": 127,
      "chip": "ym2612"
    },
    {
      "channel": 0,
      "note": 57,
      "start": 5.5572,
      "duration": 0.1064,
      "velocity": 127,
      "chip": "ym2612"
    },
    {
      "channel": 2,
      "note": 37,
      "start": 5.5588,
      "duration": 0.1021,
      "velocity": 120,
      "chip": "ym2612"
    },
    {
      "channel": 5,
      "note": 57,
      "start": 5.6266,
      "duration": 0.1066,
      "velocity": 127,
      "chip": "ym2612"
    },
    {
      "channel": 0,
      "note": 56,
      "start": 5.6642,
      "duration": 0.1066,
      "velocity": 127,
      "chip": "ym2612"
    },
    {
      "channel": 2,
      "note": 56,
      "start": 5.6658,
      "duration": 0.1022,
      "velocity": 116,
      "chip": "ym2612"
    },
    {
      "channel": 5,
      "note": 56,
      "start": 5.7338,
      "duration": 0.1066,
      "velocity": 127,
      "chip": "ym2612"
    },
    {
      "channel": 0,
      "note": 54,
      "start": 5.7714,
      "duration": 0.1066,
      "velocity": 127,
      "chip": "ym2612"
    },
    {
      "channel": 2,
      "note": 56,
      "start": 5.773,
      "duration": 0.1021,
      "velocity": 116,
      "chip": "ym2612"
    },
    {
      "channel": 5,
      "note": 54,
      "start": 5.8409,
      "duration": 0.1065,
      "velocity": 127,
      "chip": "ym2612"
    },
    {
      "channel": 0,
      "note": 56,
      "start": 5.8785,
      "duration": 0.1066,
      "velocity": 127,
      "chip": "ym2612"
    },
    {
      "channel": 2,
      "note": 56,
      "start": 5.8801,
      "duration": 0.1021,
      "velocity": 116,
      "chip": "ym2612"
    },
    {
      "channel": 5,
      "note": 56,
      "start": 5.948,
      "duration": 0.1066,
      "velocity": 127,
      "chip": "ym2612"
    },
    {
      "channel": 0,
      "note": 57,
      "start": 5.9857,
      "duration": 0.1064,
      "velocity": 127,
      "chip": "ym2612"
    },
    {
      "channel": 2,
      "note": 37,
      "start": 5.9872,
      "duration": 0.102,
      "velocity": 120,
      "chip": "ym2612"
    },
    {
      "channel": 5,
      "note": 57,
      "start": 6.0551,
      "duration": 0.1065,
      "velocity": 127,
      "chip": "ym2612"
    },
    {
      "channel": 0,
      "note": 59,
      "start": 6.0927,
      "duration": 0.1066,
      "velocity": 127,
      "chip": "ym2612"
    },
    {
      "channel": 2,
      "note": 56,
      "start": 6.0943,
      "duration": 0.1022,
      "velocity": 116,
      "chip": "ym2612"
    },
    {
      "channel": 5,
      "note": 59,
      "start": 6.1622,
      "duration": 0.1065,
      "velocity": 127,
      "chip": "ym2612"
    },
    {
      "channel": 0,
      "note": 57,
      "start": 6.1998,
      "duration": 0.1065,
      "velocity": 127,
      "chip": "ym2612"
    },
    {
      "channel": 4,
      "note": 57,
      "start": 6.2007,
      "duration": 0.2137,
      "velocity": 91,
      "chip": "ym2612"
    },
    {
      "channel": 2,
      "note": 56,
      "start": 6.2018,
      "duration": 0.1017,
      "velocity": 116,
      "chip": "ym2612"
    },
    {
      "channel": 5,
      "note": 57,
      "start": 6.2693,
      "duration": 0.1065,
      "velocity": 127,
      "chip": "ym2612"
    },
    {
      "channel": 0,
      "note": 56,
      "start": 6.3068,
      "duration": 0.1067,
      "velocity": 127,
      "chip": "ym2612"
    },
    {
      "channel": 2,
      "note": 56,
      "start": 6.3085,
      "duration": 0.1022,
      "velocity": 116,
      "chip": "ym2612"
    },
    {
      "channel": 5,
      "note": 56,
      "start": 6.3763,
      "duration": 0.1069,
      "velocity": 127,
      "chip": "ym2612"
    },
    {
      "channel": 0,
      "note": 54,
      "start": 6.4141,
      "duration": 0.1064,
      "velocity": 127,
      "chip": "ym2612"
    },
    {
      "channel": 4,
      "note": 59,
      "start": 6.415,
      "duration": 0.2136,
      "velocity": 91,
      "chip": "ym2612"
    },
    {
      "channel": 2,
      "note": 37,
      "start": 6.4161,
      "duration": 0.1017,
      "velocity": 120,
      "chip": "ym2612"
    },
    {
      "channel": 5,
      "note": 54,
      "start": 6.4838,
      "duration": 0.1061,
      "velocity": 127,
      "chip": "ym2612"
    },
    {
      "channel": 0,
      "note": 56,
      "start": 6.5211,
      "duration": 0.1066,
      "velocity": 127,
      "chip": "ym2612"
    },
    {
      "channel": 2,
      "note": 56,
      "start": 6.5227,
      "duration": 0.1022,
      "velocity": 116,
      "chip": "ym2612"
    },
    {
      "channel": 5,
      "note": 56,
      "start": 6.5905,
      "duration": 0.1066,
      "velocity": 127,
      "chip": "ym2612"
    },
    {
      "channel": 0,
      "note": 54,
      "start": 6.6283,
      "duration": 0.1064,
      "velocity": 127,
      "chip": "ym2612"
    },
    {
      "channel": 4,
      "note": 62,
      "start": 6.6292,
      "duration": 0.2198,
      "velocity": 91,
      "chip": "ym2612"
    },
    {
      "channel": 2,
      "note": 56,
      "start": 6.6303,
      "duration": 0.1017,
      "velocity": 116,
      "chip": "ym2612"
    },
    {
      "channel": 5,
      "note": 54,
      "start": 6.6976,
      "duration": 0.1065,
      "velocity": 127,
      "chip": "ym2612"
    },
    {
      "channel": 0,
      "note": 56,
      "start": 6.7353,
      "duration": 0.1093,
      "velocity": 127,
      "chip": "ym2612"
    },
    {
      "channel": 2,
      "note": 56,
      "start": 6.7369,
      "duration": 0.1022,
      "velocity": 116,
      "chip": "ym2612"
    },
    {
      "channel": 5,
      "note": 56,
      "start": 6.8048,
      "duration": 0.1095,
      "velocity": 127,
      "chip": "ym2612"
    },
    {
      "channel": 0,
      "note": 53,
      "start": 6.8451,
      "duration": 0.1038,
      "velocity": 127,
      "chip": "ym2612"
    },
    {
      "channel": 1,
      "note": 68,
      "start": 6.8459,
      "duration": 0.1037,
      "velocity": 127,
      "chip": "ym2612"
    },
    {
      "channel": 4,
      "note": 61,
      "start": 6.8497,
      "duration": 1.0648,
      "velocity": 91,
      "chip": "ym2612"
    },
    {
      "channel": 2,
      "note": 37,
      "start": 6.8507,
      "duration": 0.0954,
      "velocity": 120,
      "chip": "ym2612"
    },
    {
      "channel": 5,
      "note": 53,
      "start": 6.9149,
      "duration": 0.1037,
      "velocity": 127,
      "chip": "ym2612"
    },
    {
      "channel": 0,
      "note": 54,
      "start": 6.9495,
      "duration": 0.1069,
      "velocity": 127,
      "chip": "ym2612"
    },
    {
      "channel": 1,
      "note": 69,
      "start": 6.9502,
      "duration": 0.1068,
      "velocity": 127,
      "chip": "ym2612"
    },
    {
      "channel": 2,
      "note": 56,
      "start": 6.9518,
      "duration": 0.1018,
      "velocity": 116,
      "chip": "ym2612"
    },
    {
      "channel": 5,
      "note": 54,
      "start": 7.0192,
      "duration": 0.1066,
      "velocity": 127,
      "chip": "ym2612"
    },
    {
      "channel": 0,
      "note": 56,
      "start": 7.0569,
      "duration": 0.1063,
      "velocity": 127,
      "chip": "ym2612"
    },
    {
      "channel": 1,
      "note": 71,
      "start": 7.0577,
      "duration": 0.1063,
      "velocity": 127,
      "chip": "ym2612"
    },
    {
      "channel": 2,
      "note": 56,
      "start": 7.0592,
      "duration": 0.1012,
      "velocity": 116,
      "chip": "ym2612"
    },
    {
      "channel": 5,
      "note": 56,
      "start": 7.1263,
      "duration": 0.1065,
      "velocity": 127,
      "chip": "ym2612"
    },
    {
      "channel": 0,
      "note": 57,
      "start": 7.1638,
      "duration": 0.1065,
      "velocity": 127,
      "chip": "ym2612"
    },
    {
      "channel": 1,
      "note": 73,
      "start": 7.1646,
      "duration": 0.1064,
      "velocity": 127,
      "chip": "ym2612"
    },
    {
      "channel": 2,
      "note": 56,
      "start": 7.1661,
      "duration": 0.1014,
      "velocity": 116,
      "chip": "ym2612"
    },
    {
      "channel": 5,
      "note": 57,
      "start": 7.2334,
      "duration": 0.1066,
      "velocity": 127,
      "chip": "ym2612"
    },
    {
      "channel": 0,
      "note": 56,
      "start": 7.2709,
      "duration": 0.1065,
      "velocity": 127,
      "chip": "ym2612"
    },
    {
      "channel": 1,
      "note": 71,
      "start": 7.2716,
      "duration": 0.1065,
      "velocity": 127,
      "chip": "ym2612"
    },
    {
      "channel": 2,
      "note": 37,
      "start": 7.2731,
      "duration": 0.1015,
      "velocity": 120,
      "chip": "ym2612"
    },
    {
      "channel": 5,
      "note": 56,
      "start": 7.3406,
      "duration": 0.1064,
      "velocity": 127,
      "chip": "ym2612"
    },
    {
      "channel": 0,
      "note": 54,
      "start": 7.3779,
      "duration": 0.1065,
      "velocity": 127,
      "chip": "ym2612"
    },
    {
      "channel": 1,
      "note": 69,
      "start": 7.3787,
      "duration": 0.1065,
      "velocity": 127,
      "chip": "ym2612"
    },
    {
      "channel": 2,
      "note": 56,
      "start": 7.3802,
      "duration": 0.1014,
      "velocity": 116,
      "chip": "ym2612"
    },
    {
      "channel": 5,
      "note": 54,
      "start": 7.4476,
      "duration": 0.1066,
      "velocity": 127,
      "chip": "ym2612"
    },
    {
      "channel": 0,
      "note": 53,
      "start": 7.485,
      "duration": 0.1066,
      "velocity": 127,
      "chip": "ym2612"
    },
    {
      "channel": 1,
      "note": 68,
      "start": 7.4857,
      "duration": 0.1066,
      "velocity": 127,
      "chip": "ym2612"
    },
    {
      "channel": 2,
      "note": 56,
      "start": 7.4873,
      "duration": 0.1015,
      "velocity": 116,
      "chip": "ym2612"
    },
    {
      "channel": 5,
      "note": 53,
      "start": 7.5548,
      "duration": 0.1067,
      "velocity": 127,
      "chip": "ym2612"
    },
    {
      "channel": 0,
      "note": 54,
      "start": 7.5922,
      "duration": 0.1066,
      "velocity": 127,
      "chip": "ym2612"
    },
    {
      "channel": 1,
      "note": 69,
      "start": 7.5929,
      "duration": 0.1066,
      "velocity": 127,
      "chip": "ym2612"
    },
    {
      "channel": 2,
      "note": 56,
      "start": 7.5944,
      "duration": 0.1015,
      "velocity": 116,
      "chip": "ym2612"
    },
    {
      "channel": 5,
      "note": 54,
      "start": 7.662,
      "duration": 0.1063,
      "velocity": 127,
      "chip": "ym2612"
    },
    {
      "channel": 0,
      "note": 56,
      "start": 7.6993,
      "duration": 0.1064,
      "velocity": 127,
      "chip": "ym2612"
    },
    {
      "channel": 1,
      "note": 71,
      "start": 7.7,
      "duration": 0.1064,
      "velocity": 127,
      "chip": "ym2612"
    },
    {
      "channel": 2,
      "note": 37,
      "start": 7.7016,
      "duration": 0.1014,
      "velocity": 120,
      "chip": "ym2612"
    },
    {
      "channel": 5,
      "note": 56,
      "start": 7.7689,
      "duration": 0.1066,
      "velocity": 127,
      "chip": "ym2612"
    },
    {
      "channel": 0,
      "note": 57,
      "start": 7.8063,
      "duration": 0.1066,
      "velocity": 127,
      "chip": "ym2612"
    },
    {
      "channel": 1,
      "note": 73,
      "start": 7.8071,
      "duration": 0.1066,
      "velocity": 127,
      "chip": "ym2612"
    },
    {
      "channel": 2,
      "note": 56,
      "start": 7.8086,
      "duration": 0.1015,
      "velocity": 116,
      "chip": "ym2612"
    },
    {
      "channel": 5,
      "note": 57,
      "start": 7.876,
      "duration": 0.1066,
      "velocity": 127,
      "chip": "ym2612"
    },
    {
      "channel": 0,
      "note": 56,
      "start": 7.9135,
      "duration": 0.1065,
      "velocity": 127,
      "chip": "ym2612"
    },
    {
      "channel": 1,
      "note": 71,
      "start": 7.9142,
      "duration": 0.1064,
      "velocity": 127,
      "chip": "ym2612"
    },
    {
      "channel": 4,
      "note": 59,
      "start": 7.9151,
      "duration": 0.2137,
      "velocity": 91,
      "chip": "ym2612"
    },
    {
      "channel": 2,
      "note": 56,
      "start": 7.9161,
      "duration": 0.101,
      "velocity": 116,
      "chip": "ym2612"
    },
    {
      "channel": 5,
      "note": 56,
      "start": 7.9832,
      "duration": 0.1064,
      "velocity": 127,
      "chip": "ym2612"
    },
    {
      "channel": 0,
      "note": 54,
      "start": 8.0205,
      "duration": 0.1067,
      "velocity": 127,
      "chip": "ym2612"
    },
    {
      "channel": 1,
      "note": 69,
      "start": 8.0212,
      "duration": 0.1068,
      "velocity": 127,
      "chip": "ym2612"
    },
    {
      "channel": 2,
      "note": 56,
      "start": 8.0228,
      "duration": 0.1016,
      "velocity": 116,
      "chip": "ym2612"
    },
    {
      "channel": 5,
      "note": 54,
      "start": 8.0902,
      "duration": 0.1069,
      "velocity": 127,
      "chip": "ym2612"
    },
    {
      "channel": 0,
      "note": 53,
      "start": 8.1278,
      "duration": 0.1063,
      "velocity": 127,
      "chip": "ym2612"
    },
    {
      "channel": 1,
      "note": 68,
      "start": 8.1285,
      "duration": 0.1063,
      "velocity": 127,
      "chip": "ym2612"
    },
    {
      "channel": 4,
      "note": 57,
      "start": 8.1294,
      "duration": 0.2134,
      "velocity": 91,
      "chip": "ym2612"
    },
    {
      "channel": 2,
      "note": 37,
      "start": 8.1304,
      "duration": 0.1009,
      "velocity": 120,
      "chip": "ym2612"
    },
    {
      "channel": 5,
      "note": 53,
      "start": 8.1977,
      "duration": 0.1062,
      "velocity": 127,
      "chip": "ym2612"
    },
    {
      "channel": 0,
      "note": 54,
      "start": 8.2346,
      "duration": 0.1066,
      "velocity": 127,
      "chip": "ym2612"
    },
    {
      "channel": 1,
      "note": 69,
      "start": 8.2354,
      "duration": 0.1066,
      "velocity": 127,
      "chip": "ym2612"
    },
    {
      "channel": 2,
      "note": 56,
      "start": 8.2369,
      "duration": 0.1015,
      "velocity": 116,
      "chip": "ym2612"
    },
    {
      "channel": 5,
      "note": 54,
      "start": 8.3044,
      "duration": 0.1066,
      "velocity": 127,
      "chip": "ym2612"
    },
    {
      "channel": 0,
      "note": 53,
      "start": 8.3418,
      "duration": 0.1064,
      "velocity": 127,
      "chip": "ym2612"
    },
    {
      "channel": 1,
      "note": 68,
      "start": 8.3425,
      "duration": 0.1065,
      "velocity": 127,
      "chip": "ym2612"
    },
    {
      "channel": 4,
      "note": 56,
      "start": 8.3434,
      "duration": 0.2191,
      "velocity": 91,
      "chip": "ym2612"
    },
    {
      "channel": 2,
      "note": 56,
      "start": 8.3445,
      "duration": 0.101,
      "velocity": 116,
      "chip": "ym2612"
    },
    {
      "channel": 5,
      "note": 53,
      "start": 8.4116,
      "duration": 0.1066,
      "velocity": 127,
      "chip": "ym2612"
    },
    {
      "channel": 0,
      "note": 54,
      "start": 8.4488,
      "duration": 0.1092,
      "velocity": 127,
      "chip": "ym2612"
    },
    {
      "channel": 1,
      "note": 69,
      "start": 8.4496,
      "duration": 0.1093,
      "velocity": 127,
      "chip": "ym2612"
    },
    {
      "channel": 2,
      "note": 56,
      "start": 8.4511,
      "duration": 0.1016,
      "velocity": 116,
      "chip": "ym2612"
    },
    {
      "channel": 5,
      "note": 54,
      "start": 8.5187,
      "duration": 0.1092,
      "velocity": 127,
      "chip": "ym2612"
    },
    {
      "channel": 0,
      "note": 53,
      "start": 8.5587,
      "duration": 0.1039,
      "velocity": 127,
      "chip": "ym2612"
    },
    {
      "channel": 1,
      "note": 68,
      "start": 8.5595,
      "duration": 0.1038,
      "velocity": 127,
      "chip": "ym2612"
    },
    {
      "channel": 4,
      "note": 61,
      "start": 8.5631,
      "duration": 1.065,
      "velocity": 91,
      "chip": "ym2612"
    },
    {
      "channel": 2,
      "note": 37,
      "start": 8.5641,
      "duration": 0.0956,
      "velocity": 120,
      "chip": "ym2612"
    },
    {
      "channel": 5,
      "note": 53,
      "start": 8.6284,
      "duration": 0.1038,
      "velocity": 127,
      "chip": "ym2612"
    },
    {
      "channel": 0,
      "note": 54,
      "start": 8.6632,
      "duration": 0.1069,
      "velocity": 127,
      "chip": "ym2612"
    },
    {
      "channel": 1,
      "note": 69,
      "start": 8.6639,
      "duration": 0.1068,
      "velocity": 127,
      "chip": "ym2612"
    },
    {
      "channel": 2,
      "note": 56,
      "start": 8.6654,
      "duration": 0.1018,
      "velocity": 116,
      "chip": "ym2612"
    },
    {
      "channel": 5,
      "note": 54,
      "start": 8.7329,
      "duration": 0.1066,
      "velocity": 127,
      "chip": "ym2612"
    },
    {
      "channel": 0,
      "note": 56,
      "start": 8.7706,
      "duration": 0.1062,
      "velocity": 127,
      "chip": "ym2612"
    },
    {
      "channel": 1,
      "note": 71,
      "start": 8.7714,
      "duration": 0.1062,
      "velocity": 127,
      "chip": "ym2612"
    },
    {
      "channel": 2,
      "note": 56,
      "start": 8.7729,
      "duration": 0.1011,
      "velocity": 116,
      "chip": "ym2612"
    },
    {
      "channel": 5,
      "note": 56,
      "start": 8.84,
      "duration": 0.1064,
      "velocity": 127,
      "chip": "ym2612"
    },
    {
      "channel": 0,
      "note": 57,
      "start": 8.8774,
      "duration": 0.1066,
      "velocity": 127,
      "chip": "ym2612"
    },
    {
      "channel": 1,
      "note": 73,
      "start": 8.8782,
      "duration": 0.1066,
      "velocity": 127,
      "chip": "ym2612"
    },
    {
      "channel": 2,
      "note": 56,
      "start": 8.8797,
      "duration": 0.1015,
      "velocity": 116,
      "chip": "ym2612"
    },
    {
      "channel": 5,
      "note": 57,
      "start": 8.947,
      "duration": 0.1066,
      "velocity": 127,
      "chip": "ym2612"
    },
    {
      "channel": 0,
      "note": 56,
      "start": 8.9846,
      "duration": 0.1063,
      "velocity": 127,
      "chip": "ym2612"
    },
    {
      "channel": 1,
      "note": 71,
      "start": 8.9854,
      "duration": 0.1063,
      "velocity": 127,
      "chip": "ym2612"
    },
    {
      "channel": 2,
      "note": 37,
      "start": 8.9868,
      "duration": 0.1013,
      "velocity": 120,
      "chip": "ym2612"
    },
    {
      "channel": 5,
      "note": 56,
      "start": 9.0541,
      "duration": 0.1066,
      "velocity": 127,
      "chip": "ym2612"
    },
    {
      "channel": 0,
      "note": 54,
      "start": 9.0915,
      "duration": 0.1066,
      "velocity": 127,
      "chip": "ym2612"
    },
    {
      "channel": 1,
      "note": 69,
      "start": 9.0922,
      "duration": 0.1066,
      "velocity": 127,
      "chip": "ym2612"
    },
    {
      "channel": 2,
      "note": 56,
      "start": 9.0938,
      "duration": 0.1014,
      "velocity": 116,
      "chip": "ym2612"
    },
    {
      "channel": 5,
      "note": 54,
      "start": 9.1613,
      "duration": 0.1065,
      "velocity": 127,
      "chip": "ym2612"
    },
    {
      "channel": 0,
      "note": 53,
      "start": 9.1987,
      "duration": 0.1066,
      "velocity": 127,
      "chip": "ym2612"
    },
    {
      "channel": 1,
      "note": 68,
      "start": 9.1993,
      "duration": 0.1066,
      "velocity": 127,
      "chip": "ym2612"
    },
    {
      "channel": 2,
      "note": 56,
      "start": 9.2009,
      "duration": 0.1015,
      "velocity": 116,
      "chip": "ym2612"
    },
    {
      "channel": 5,
      "note": 53,
      "start": 9.2684,
      "duration": 0.1065,
      "velocity": 127,
      "chip": "ym2612"
    },
    {
      "channel": 0,
      "note": 54,
      "start": 9.3058,
      "duration": 0.1067,
      "velocity": 127,
      "chip": "ym2612"
    },
    {
      "channel": 1,
      "note": 69,
      "start": 9.3065,
      "duration": 0.1067,
      "velocity": 127,
      "chip": "ym2612"
    },
    {
      "channel": 2,
      "note": 56,
      "start": 9.308,
      "duration": 0.1016,
      "velocity": 116,
      "chip": "ym2612"
    },
    {
      "channel": 5,
      "note": 54,
      "start": 9.3754,
      "duration": 0.1066,
      "velocity": 127,
      "chip": "ym2612"
    },
    {
      "channel": 0,
      "note": 56,
      "start": 9.413,
      "duration": 0.1063,
      "velocity": 127,
      "chip": "ym2612"
    },
    {
      "channel": 1,
      "note": 71,
      "start": 9.4138,
      "duration": 0.1064,
      "velocity": 127,
      "chip": "ym2612"
    },
    {
      "channel": 2,
      "note": 37,
      "start": 9.4153,
      "duration": 0.1013,
      "velocity": 120,
      "chip": "ym2612"
    },
    {
      "channel": 5,
      "note": 56,
      "start": 9.4826,
      "duration": 0.1066,
      "velocity": 127,
      "chip": "ym2612"
    },
    {
      "channel": 0,
      "note": 57,
      "start": 9.52,
      "duration": 0.1066,
      "velocity": 127,
      "chip": "ym2612"
    },
    {
      "channel": 1,
      "note": 73,
      "start": 9.5207,
      "duration": 0.1066,
      "velocity": 127,
      "chip": "ym2612"
    },
    {
      "channel": 2,
      "note": 56,
      "start": 9.5222,
      "duration": 0.1014,
      "velocity": 116,
      "chip": "ym2612"
    },
    {
      "channel": 5,
      "note": 57,
      "start": 9.5897,
      "duration": 0.1066,
      "velocity": 127,
      "chip": "ym2612"
    },
    {
      "channel": 0,
      "note": 56,
      "start": 9.6271,
      "duration": 0.1066,
      "velocity": 127,
      "chip": "ym2612"
    },
    {
      "channel": 1,
      "note": 71,
      "start": 9.6278,
      "duration": 0.1065,
      "velocity": 127,
      "chip": "ym2612"
    },
    {
      "channel": 4,
      "note": 59,
      "start": 9.6287,
      "duration": 0.2136,
      "velocity": 91,
      "chip": "ym2612"
    },
    {
      "channel": 2,
      "note": 56,
      "start": 9.6298,
      "duration": 0.1011,
      "velocity": 116,
      "chip": "ym2612"
    },
    {
      "channel": 5,
      "note": 56,
      "start": 9.6968,
      "duration": 0.1065,
      "velocity": 127,
      "chip": "ym2612"
    },
    {
      "channel": 0,
      "note": 54,
      "start": 9.7342,
      "duration": 0.1066,
      "velocity": 127,
      "chip": "ym2612"
    },
    {
      "channel": 1,
      "note": 69,
      "start": 9.7349,
      "duration": 0.1066,
      "velocity": 127,
      "chip": "ym2612"
    },
    {
      "channel": 2,
      "note": 56,
      "start": 9.7364,
      "duration": 0.1015,
      "velocity": 116,
      "chip": "ym2612"
    },
    {
      "channel": 5,
      "note": 54,
      "start": 9.8039,
      "duration": 0.1069,
      "velocity": 127,
      "chip": "ym2612"
    },
    {
      "channel": 0,
      "note": 53,
      "start": 9.8413,
      "duration": 0.1065,
      "velocity": 127,
      "chip": "ym2612"
    },
    {
      "channel": 1,
      "note": 68,
      "start": 9.8421,
      "duration": 0.1064,
      "velocity": 127,
      "chip": "ym2612"
    },
    {
      "channel": 4,
      "note": 57,
      "start": 9.8429,
      "duration": 0.2136,
      "velocity": 91,
      "chip": "ym2612"
    },
    {
      "channel": 2,
      "note": 37,
      "start": 9.844,
      "duration": 0.101,
      "velocity": 120,
      "chip": "ym2612"
    },
    {
      "channel": 5,
      "note": 53,
      "start": 9.9114,
      "duration": 0.1061,
      "velocity": 127,
      "chip": "ym2612"
    },
    {
      "channel": 0,
      "note": 54,
      "start": 9.9484,
      "duration": 0.1066,
      "velocity": 127,
      "chip": "ym2612"
    },
    {
      "channel": 1,
      "note": 69,
      "start": 9.9491,
      "duration": 0.1066,
      "velocity": 127,
      "chip": "ym2612"
    },
    {
      "channel": 2,
      "note": 56,
      "start": 9.9506,
      "duration": 0.1015,
      "velocity": 116,
      "chip": "ym2612"
    },
    {
      "channel": 5,
      "note": 54,
      "start": 10.018,
      "duration": 0.1066,
      "velocity": 127,
      "chip": "ym2612"
    },
    {
      "channel": 0,
      "note": 53,
      "start": 10.0555,
      "duration": 0.1065,
      "velocity": 127,
      "chip": "ym2612"
    },
    {
      "channel": 1,
      "note": 68,
      "start": 10.0562,
      "duration": 0.1065,
      "velocity": 127,
      "chip": "ym2612"
    },
    {
      "channel": 4,
      "note": 56,
      "start": 10.0571,
      "duration": 0.2141,
      "velocity": 91,
      "chip": "ym2612"
    },
    {
      "channel": 2,
      "note": 56,
      "start": 10.0581,
      "duration": 0.101,
      "velocity": 116,
      "chip": "ym2612"
    },
    {
      "channel": 5,
      "note": 53,
      "start": 10.1252,
      "duration": 0.1066,
      "velocity": 127,
      "chip": "ym2612"
    },
    {
      "channel": 0,
      "note": 54,
      "start": 10.1626,
      "duration": 0.1066,
      "velocity": 127,
      "chip": "ym2612"
    },
    {
      "channel": 1,
      "note": 69,
      "start": 10.1634,
      "duration": 0.1067,
      "velocity": 127,
      "chip": "ym2612"
    },
    {
      "channel": 2,
      "note": 56,
      "start": 10.1648,
      "duration": 0.1015,
      "velocity": 116,
      "chip": "ym2612"
    },
    {
      "channel": 5,
      "note": 54,
      "start": 10.2323,
      "duration": 0.1067,
      "velocity": 127,
      "chip": "ym2612"
    },
    {
      "channel": 0,
      "note": 54,
      "start": 10.2698,
      "duration": 0.1063,
      "velocity": 127,
      "chip": "ym2612"
    },
    {
      "channel": 1,
      "note": 71,
      "start": 10.2707,
      "duration": 0.1062,
      "velocity": 127,
      "chip": "ym2612"
    },
    {
      "channel": 4,
      "note": 62,
      "start": 10.2718,
      "duration": 1.0698,
      "velocity": 91,
      "chip": "ym2612"
    },
    {
      "channel": 2,
      "note": 37,
      "start": 10.2728,
      "duration": 0.1006,
      "velocity": 120,
      "chip": "ym2612"
    },
    {
      "channel": 5,
      "note": 54,
      "start": 10.3395,
      "duration": 0.1064,
      "velocity": 127,
      "chip": "ym2612"
    },
    {
      "channel": 0,
      "note": 56,
      "start": 10.3768,
      "duration": 0.1069,
      "velocity": 127,
      "chip": "ym2612"
    },
    {
      "channel": 1,
      "note": 73,
      "start": 10.3775,
      "duration": 0.1069,
      "velocity": 127,
      "chip": "ym2612"
    },
    {
      "channel": 2,
      "note": 56,
      "start": 10.3791,
      "duration": 0.1018,
      "velocity": 116,
      "chip": "ym2612"
    },
    {
      "channel": 5,
      "note": 56,
      "start": 10.4466,
      "duration": 0.1064,
      "velocity": 127,
      "chip": "ym2612"
    },
    {
      "channel": 0,
      "note": 57,
      "start": 10.4842,
      "duration": 0.1061,
      "velocity": 127,
      "chip": "ym2612"
    },
    {
      "channel": 1,
      "note": 74,
      "start": 10.485,
      "duration": 0.1061,
      "velocity": 127,
      "chip": "ym2612"
    },
    {
      "channel": 2,
      "note": 56,
      "start": 10.4865,
      "duration": 0.101,
      "velocity": 116,
      "chip": "ym2612"
    },
    {
      "channel": 5,
      "note": 57,
      "start": 10.5536,
      "duration": 0.1066,
      "velocity": 127,
      "chip": "ym2612"
    },
    {
      "channel": 0,
      "note": 59,
      "start": 10.591,
      "duration": 0.1066,
      "velocity": 127,
      "chip": "ym2612"
    },
    {
      "channel": 1,
      "note": 76,
      "start": 10.5917,
      "duration": 0.1067,
      "velocity": 127,
      "chip": "ym2612"
    },
    {
      "channel": 2,
      "note": 56,
      "start": 10.5932,
      "duration": 0.1016,
      "velocity": 116,
      "chip": "ym2612"
    },
    {
      "channel": 5,
      "note": 59,
      "start": 10.6607,
      "duration": 0.1065,
      "velocity": 127,
      "chip": "ym2612"
    },
    {
      "channel": 0,
      "note": 57,
      "start": 10.6981,
      "duration": 0.1064,
      "velocity": 127,
      "chip": "ym2612"
    },
    {
      "channel": 1,
      "note": 74,
      "start": 10.6989,
      "duration": 0.1064,
      "velocity": 127,
      "chip": "ym2612"
    },
    {
      "channel": 2,
      "note": 37,
      "start": 10.7004,
      "duration": 0.1014,
      "velocity": 120,
      "chip": "ym2612"
    },
    {
      "channel": 5,
      "note": 57,
      "start": 10.7679,
      "duration": 0.1064,
      "velocity": 127,
      "chip": "ym2612"
    },
    {
      "channel": 0,
      "note": 56,
      "start": 10.8051,
      "duration": 0.1066,
      "velocity": 127,
      "chip": "ym2612"
    },
    {
      "channel": 1,
      "note": 73,
      "start": 10.8059,
      "duration": 0.1066,
      "velocity": 127,
      "chip": "ym2612"
    },
    {
      "channel": 2,
      "note": 56,
      "start": 10.8074,
      "duration": 0.1015,
      "velocity": 116,
      "chip": "ym2612"
    },
    {
      "channel": 5,
      "note": 56,
      "start": 10.8749,
      "duration": 0.1065,
      "velocity": 127,
      "chip": "ym2612"
    },
    {
      "channel": 0,
      "note": 54,
      "start": 10.9123,
      "duration": 0.1064,
      "velocity": 127,
      "chip": "ym2612"
    },
    {
      "channel": 1,
      "note": 71,
      "start": 10.9131,
      "duration": 0.1064,
      "velocity": 127,
      "chip": "ym2612"
    },
    {
      "channel": 2,
      "note": 56,
      "start": 10.9146,
      "duration": 0.1013,
      "velocity": 116,
      "chip": "ym2612"
    },
    {
      "channel": 5,
      "note": 54,
      "start": 10.982,
      "duration": 0.1066,
      "velocity": 127,
      "chip": "ym2612"
    },
    {
      "channel": 0,
      "note": 56,
      "start": 11.0193,
      "duration": 0.1068,
      "velocity": 127,
      "chip": "ym2612"
    },
    {
      "channel": 1,
      "note": 73,
      "start": 11.0201,
      "duration": 0.1067,
      "velocity": 127,
      "chip": "ym2612"
    },
    {
      "channel": 2,
      "note": 56,
      "start": 11.0216,
      "duration": 0.1016,
      "velocity": 116,
      "chip": "ym2612"
    },
    {
      "channel": 5,
      "note": 56,
      "start": 11.0891,
      "duration": 0.1066,
      "velocity": 127,
      "chip": "ym2612"
    },
    {
      "channel": 0,
      "note": 57,
      "start": 11.1266,
      "duration": 0.1063,
      "velocity": 127,
      "chip": "ym2612"
    },
    {
      "channel": 1,
      "note": 74,
      "start": 11.1274,
      "duration": 0.1063,
      "velocity": 127,
      "chip": "ym2612"
    },
    {
      "channel": 2,
      "note": 37,
      "start": 11.1289,
      "duration": 0.1013,
      "velocity": 120,
      "chip": "ym2612"
    },
    {
      "channel": 5,
      "note": 57,
      "start": 11.1962,
      "duration": 0.1065,
      "velocity": 127,
      "chip": "ym2612"
    },
    {
      "channel": 0,
      "note": 59,
      "start": 11.2337,
      "duration": 0.1064,
      "velocity": 127,
      "chip": "ym2612"
    },
    {
      "channel": 1,
      "note": 76,
      "start": 11.2343,
      "duration": 0.1065,
      "velocity": 127,
      "chip": "ym2612"
    },
    {
      "channel": 2,
      "note": 56,
      "start": 11.2359,
      "duration": 0.1014,
      "velocity": 116,
      "chip": "ym2612"
    },
    {
      "channel": 5,
      "note": 59,
      "start": 11.3033,
      "duration": 0.1066,
      "velocity": 127,
      "chip": "ym2612"
    },
    {
      "channel": 0,
      "note": 57,
      "start": 11.3406,
      "duration": 0.1066,
      "velocity": 127,
      "chip": "ym2612"
    },
    {
      "channel": 1,
      "note": 74,
      "start": 11.3414,
      "duration": 0.1066,
      "velocity": 127,
      "chip": "ym2612"
    },
    {
      "channel": 4,
      "note": 61,
      "start": 11.3422,
      "duration": 0.2137,
      "velocity": 91,
      "chip": "ym2612"
    },
    {
      "channel": 2,
      "note": 56,
      "start": 11.3433,
      "duration": 0.1011,
      "velocity": 116,
      "chip": "ym2612"
    },
    {
      "channel": 5,
      "note": 57,
      "start": 11.4105,
      "duration": 0.1064,
      "velocity": 127,
      "chip": "ym2612"
    },
    {
      "channel": 0,
      "note": 56,
      "start": 11.4478,
      "duration": 0.1066,
      "velocity": 127,
      "chip": "ym2612"
    },
    {
      "channel": 1,
      "note": 73,
      "start": 11.4485,
      "duration": 0.1066,
      "velocity": 127,
      "chip": "ym2612"
    },
    {
      "channel": 2,
      "note": 56,
      "start": 11.45,
      "duration": 0.1015,
      "velocity": 116,
      "chip": "ym2612"
    },
    {
      "channel": 5,
      "note": 56,
      "start": 11.5175,
      "duration": 0.1069,
      "velocity": 127,
      "chip": "ym2612"
    },
    {
      "channel": 0,
      "note": 54,
      "start": 11.5549,
      "duration": 0.1065,
      "velocity": 127,
      "chip": "ym2612"
    },
    {
      "channel": 1,
      "note": 71,
      "start": 11.5557,
      "duration": 0.1064,
      "velocity": 127,
      "chip": "ym2612"
    },
    {
      "channel": 4,
      "note": 59,
      "start": 11.5565,
      "duration": 0.2136,
      "velocity": 91,
      "chip": "ym2612"
    },
    {
      "channel": 2,
      "note": 37,
      "start": 11.5576,
      "duration": 0.101,
      "velocity": 120,
      "chip": "ym2612"
    },
    {
      "channel": 5,
      "note": 54,
      "start": 11.625,
      "duration": 0.1062,
      "velocity": 127,
      "chip": "ym2612"
    },
    {
      "channel": 0,
      "note": 56,
      "start": 11.662,
      "duration": 0.1066,
      "velocity": 127,
      "chip": "ym2612"
    },
    {
      "channel": 1,
      "note": 73,
      "start": 11.6628,
      "duration": 0.1065,
      "velocity": 127,
      "chip": "ym2612"
    },
    {
      "channel": 2,
      "note": 56,
      "start": 11.6643,
      "duration": 0.1015,
      "velocity": 116,
      "chip": "ym2612"
    },
    {
      "channel": 5,
      "note": 56,
      "start": 11.7317,
      "duration": 0.1065,
      "velocity": 127,
      "chip": "ym2612"
    },
    {
      "channel": 0,
      "note": 54,
      "start": 11.7691,
      "duration": 0.1065,
      "velocity": 127,
      "chip": "ym2612"
    },
    {
      "channel": 1,
      "note": 71,
      "start": 11.7698,
      "duration": 0.1066,
      "velocity": 127,
      "chip": "ym2612"
    },
    {
      "channel": 4,
      "note": 57,
      "start": 11.7707,
      "duration": 0.2139,
      "velocity": 91,
      "chip": "ym2612"
    },
    {
      "channel": 2,
      "note": 56,
      "start": 11.7717,
      "duration": 0.1011,
      "velocity": 116,
      "chip": "ym2612"
    },
    {
      "channel": 5,
      "note": 54,
      "start": 11.8388,
      "duration": 0.1066,
      "velocity": 127,
      "chip": "ym2612"
    },
    {
      "channel": 0,
      "note": 56,
      "start": 11.8762,
      "duration": 0.1068,
      "velocity": 127,
      "chip": "ym2612"
    },
    {
      "channel": 1,
      "note": 73,
      "start": 11.877,
      "duration": 0.1068,
      "velocity": 127,
      "chip": "ym2612"
    },
    {
      "channel": 2,
      "note": 56,
      "start": 11.8785,
      "duration": 0.1015,
      "velocity": 116,
      "chip": "ym2612"
    },
    {
      "channel": 5,
      "note": 56,
      "start": 11.9459,
      "duration": 0.1067,
      "velocity": 127,
      "chip": "ym2612"
    },
    {
      "channel": 0,
      "note": 54,
      "start": 11.9835,
      "duration": 0.1063,
      "velocity": 127,
      "chip": "ym2612"
    },
    {
      "channel": 1,
      "note": 71,
      "start": 11.9843,
      "duration": 0.1062,
      "velocity": 127,
      "chip": "ym2612"
    },
    {
      "channel": 4,
      "note": 62,
      "start": 11.9852,
      "duration": 1.0701,
      "velocity": 91,
      "chip": "ym2612"
    },
    {
      "channel": 2,
      "note": 37,
      "start": 11.9863,
      "duration": 0.1008,
      "velocity": 120,
      "chip": "ym2612"
    },
    {
      "channel": 5,
      "note": 54,
      "start": 12.0532,
      "duration": 0.1064,
      "velocity": 127,
      "chip": "ym2612"
    },
    {
      "channel": 0,
      "note": 56,
      "start": 12.0905,
      "duration": 0.1069,
      "velocity": 127,
      "chip": "ym2612"
    },
    {
      "channel": 1,
      "note": 73,
      "start": 12.0912,
      "duration": 0.1069,
      "velocity": 127,
      "chip": "ym2612"
    },
    {
      "channel": 2,
      "note": 56,
      "start": 12.0927,
      "duration": 0.1018,
      "velocity": 116,
      "chip": "ym2612"
    },
    {
      "channel": 5,
      "note": 56,
      "start": 12.1602,
      "duration": 0.1065,
      "velocity": 127,
      "chip": "ym2612"
    },
    {
      "channel": 0,
      "note": 57,
      "start": 12.1979,
      "duration": 0.1061,
      "velocity": 127,
      "chip": "ym2612"
    },
    {
      "channel": 1,
      "note": 74,
      "start": 12.1987,
      "duration": 0.1061,
      "velocity": 127,
      "chip": "ym2612"
    },
    {
      "channel": 2,
      "note": 56,
      "start": 12.2002,
      "duration": 0.101,
      "velocity": 116,
      "chip": "ym2612"
    },
    {
      "channel": 5,
      "note": 57,
      "start": 12.2672,
      "duration": 0.1066,
      "velocity": 127,
      "chip": "ym2612"
    },
    {
      "channel": 0,
      "note": 59,
      "start": 12.3046,
      "duration": 0.1068,
      "velocity": 127,
      "chip": "ym2612"
    },
    {
      "channel": 1,
      "note": 76,
      "start": 12.3053,
      "duration": 0.1067,
      "velocity": 127,
      "chip": "ym2612"
    },
    {
      "channel": 2,
      "note": 56,
      "start": 12.3068,
      "duration": 0.1016,
      "velocity": 116,
      "chip": "ym2612"
    },
    {
      "channel": 5,
      "note": 59,
      "start": 12.3744,
      "duration": 0.1065,
      "velocity": 127,
      "chip": "ym2612"
    },
    {
      "channel": 0,
      "note": 57,
      "start": 12.4119,
      "duration": 0.1064,
      "velocity": 127,
      "chip": "ym2612"
    },
    {
      "channel": 1,
      "note": 74,
      "start": 12.4127,
      "duration": 0.1063,
      "velocity": 127,
      "chip": "ym2612"
    },
    {
      "channel": 2,
      "note": 37,
      "start": 12.4141,
      "duration": 0.1013,
      "velocity": 120,
      "chip": "ym2612"
    },
    {
      "channel": 5,
      "note": 57,
      "start": 12.4814,
      "duration": 0.1066,
      "velocity": 127,
      "chip": "ym2612"
    },
    {
      "channel": 0,
      "note": 56,
      "start": 12.5188,
      "duration": 0.1065,
      "velocity": 127,
      "chip": "ym2612"
    },
    {
      "channel": 1,
      "note": 73,
      "start": 12.5196,
      "duration": 0.1064,
      "velocity": 127,
      "chip": "ym2612"
    },
    {
      "channel": 2,
      "note": 56,
      "start": 12.521,
      "duration": 0.1015,
      "velocity": 116,
      "chip": "ym2612"
    },
    {
      "channel": 5,
      "note": 56,
      "start": 12.5886,
      "duration": 0.1065,
      "velocity": 127,
      "chip": "ym2612"
    },
    {
      "channel": 0,
      "note": 54,
      "start": 12.6259,
      "duration": 0.1065,
      "velocity": 127,
      "chip": "ym2612"
    },
    {
      "channel": 1,
      "note": 71,
      "start": 12.6266,
      "duration": 0.1065,
      "velocity": 127,
      "chip": "ym2612"
    },
    {
      "channel": 2,
      "note": 56,
      "start": 12.6282,
      "duration": 0.1014,
      "velocity": 116,
      "chip": "ym2612"
    },
    {
      "channel": 5,
      "note": 54,
      "start": 12.6957,
      "duration": 0.1064,
      "velocity": 127,
      "chip": "ym2612"
    },
    {
      "channel": 0,
      "note": 56,
      "start": 12.7329,
      "duration": 0.1067,
      "velocity": 127,
      "chip": "ym2612"
    },
    {
      "channel": 1,
      "note": 73,
      "start": 12.7337,
      "duration": 0.1067,
      "velocity": 127,
      "chip": "ym2612"
    },
    {
      "channel": 2,
      "note": 56,
      "start": 12.7352,
      "duration": 0.1016,
      "velocity": 116,
      "chip": "ym2612"
    },
    {
      "channel": 5,
      "note": 56,
      "start": 12.8027,
      "duration": 0.1066,
      "velocity": 127,
      "chip": "ym2612"
    },
    {
      "channel": 0,
      "note": 57,
      "start": 12.8402,
      "duration": 0.1064,
      "velocity": 127,
      "chip": "ym2612"
    },
    {
      "channel": 1,
      "note": 74,
      "start": 12.841,
      "duration": 0.1065,
      "velocity": 127,
      "chip": "ym2612"
    },
    {
      "channel": 2,
      "note": 37,
      "start": 12.8425,
      "duration": 0.1014,
      "velocity": 120,
      "chip": "ym2612"
    },
    {
      "channel": 5,
      "note": 57,
      "start": 12.9099,
      "duration": 0.1064,
      "velocity": 127,
      "chip": "ym2612"
    },
    {
      "channel": 0,
      "note": 59,
      "start": 12.9473,
      "duration": 0.1064,
      "velocity": 127,
      "chip": "ym2612"
    },
    {
      "channel": 1,
      "note": 76,
      "start": 12.948,
      "duration": 0.1064,
      "velocity": 127,
      "chip": "ym2612"
    },
    {
      "channel": 2,
      "note": 56,
      "start": 12.9495,
      "duration": 0.1013,
      "velocity": 116,
      "chip": "ym2612"
    },
    {
      "channel": 5,
      "note": 59,
      "start": 13.0169,
      "duration": 0.1066,
      "velocity": 127,
      "chip": "ym2612"
    },
    {
      "channel": 0,
      "note": 57,
      "start": 13.0543,
      "duration": 0.1066,
      "velocity": 127,
      "chip": "ym2612"
    },
    {
      "channel": 1,
      "note": 74,
      "start": 13.055,
      "duration": 0.1066,
      "velocity": 127,
      "chip": "ym2612"
    },
    {
      "channel": 4,
      "note": 57,
      "start": 13.0559,
      "duration": 0.2137,
      "velocity": 91,
      "chip": "ym2612"
    },
    {
      "channel": 2,
      "note": 56,
      "start": 13.0569,
      "duration": 0.1011,
      "velocity": 116,
      "chip": "ym2612"
    },
    {
      "channel": 5,
      "note": 57,
      "start": 13.1241,
      "duration": 0.1065,
      "velocity": 127,
      "chip": "ym2612"
    },
    {
      "channel": 0,
      "note": 56,
      "start": 13.1614,
      "duration": 0.1066,
      "velocity": 127,
      "chip": "ym2612"
    },
    {
      "channel": 1,
      "note": 73,
      "start": 13.1622,
      "duration": 0.1066,
      "velocity": 127,
      "chip": "ym2612"
    },
    {
      "channel": 2,
      "note": 56,
      "start": 13.1637,
      "duration": 0.1015,
      "velocity": 116,
      "chip": "ym2612"
    },
    {
      "channel": 5,
      "note": 56,
      "start": 13.2312,
      "duration": 0.1068,
      "velocity": 127,
      "chip": "ym2612"
    },
    {
      "channel": 0,
      "note": 54,
      "start": 13.2686,
      "duration": 0.1064,
      "velocity": 127,
      "chip": "ym2612"
    },
    {
      "channel": 1,
      "note": 71,
      "start": 13.2693,
      "duration": 0.1064,
      "velocity": 127,
      "chip": "ym2612"
    },
    {
      "channel": 4,
      "note": 59,
      "start": 13.2702,
      "duration": 0.2135,
      "velocity": 91,
      "chip": "ym2612"
    },
    {
      "channel": 2,
      "note": 37,
      "start": 13.2712,
      "duration": 0.101,
      "velocity": 120,
      "chip": "ym2612"
    },
    {
      "channel": 5,
      "note": 54,
      "start": 13.3386,
      "duration": 0.1062,
      "velocity": 127,
      "chip": "ym2612"
    },
    {
      "channel": 0,
      "note": 56,
      "start": 13.3756,
      "duration": 0.1065,
      "velocity": 127,
      "chip": "ym2612"
    },
    {
      "channel": 1,
      "note": 73,
      "start": 13.3763,
      "duration": 0.1065,
      "velocity": 127,
      "chip": "ym2612"
    },
    {
      "channel": 2,
      "note": 56,
      "start": 13.3779,
      "duration": 0.1014,
      "velocity": 116,
      "chip": "ym2612"
    },
    {
      "channel": 5,
      "note": 56,
      "start": 13.4454,
      "duration": 0.1064,
      "velocity": 127,
      "chip": "ym2612"
    },
    {
      "channel": 0,
      "note": 54,
      "start": 13.4827,
      "duration": 0.1066,
      "velocity": 127,
      "chip": "ym2612"
    },
    {
      "channel": 1,
      "note": 71,
      "start": 13.4834,
      "duration": 0.1066,
      "velocity": 127,
      "chip": "ym2612"
    },
    {
      "channel": 4,
      "note": 62,
      "start": 13.4842,
      "duration": 0.2199,
      "velocity": 91,
      "chip": "ym2612"
    },
    {
      "channel": 2,
      "note": 56,
      "start": 13.4853,
      "duration": 0.1012,
      "velocity": 116,
      "chip": "ym2612"
    },
    {
      "channel": 5,
      "note": 54,
      "start": 13.5524,
      "duration": 0.1066,
      "velocity": 127,
      "chip": "ym2612"
    },
    {
      "channel": 0,
      "note": 56,
      "start": 13.5899,
      "duration": 0.1068,
      "velocity": 127,
      "chip": "ym2612"
    },
    {
      "channel": 1,
      "note": 73,
      "start": 13.5906,
      "duration": 0.1093,
      "velocity": 127,
      "chip": "ym2612"
    },
    {
      "channel": 2,
      "note": 56,
      "start": 13.5921,
      "duration": 0.1017,
      "velocity": 116,
      "chip": "ym2612"
    },
    {
      "channel": 5,
      "note": 56,
      "start": 13.6596,
      "duration": 0.1069,
      "velocity": 127,
      "chip": "ym2612"
    },
    {
      "channel": 0,
      "note": 59,
      "start": 13.6973,
      "duration": 0.4274,
      "velocity": 127,
      "chip": "ym2612"
    },
    {
      "channel": 1,
      "note": 52,
      "start": 13.7006,
      "duration": 0.4249,
      "velocity": 127,
      "chip": "ym2612"
    },
    {
      "channel": 3,
      "note": 76,
      "start": 13.7039,
      "duration": 0.0974,
      "velocity": 91,
      "chip": "ym2612"
    },
    {
      "channel": 4,
      "note": 52,
      "start": 13.7047,
      "duration": 0.4223,
      "velocity": 91,
      "chip": "ym2612"
    },
    {
      "channel": 2,
      "note": 37,
      "start": 13.7058,
      "duration": 0.1146,
      "velocity": 120,
      "chip": "ym2612"
    },
    {
      "channel": 5,
      "note": 59,
      "start": 13.7671,
      "duration": 0.4277,
      "velocity": 127,
      "chip": "ym2612"
    },
    {
      "channel": 3,
      "note": 78,
      "start": 13.802,
      "duration": 0.1069,
      "velocity": 91,
      "chip": "ym2612"
    },
    {
      "channel": 3,
      "note": 80,
      "start": 13.9094,
      "duration": 0.1062,
      "velocity": 91,
      "chip": "ym2612"
    },
    {
      "channel": 3,
      "note": 81,
      "start": 14.0162,
      "duration": 0.11,
      "velocity": 91,
      "chip": "ym2612"
    },
    {
      "channel": 0,
      "note": 59,
      "start": 14.1253,
      "duration": 0.1422,
      "velocity": 127,
      "chip": "ym2612"
    },
    {
      "channel": 1,
      "note": 52,
      "start": 14.1261,
      "duration": 0.1422,
      "velocity": 127,
      "chip": "ym2612"
    },
    {
      "channel": 3,
      "note": 83,
      "start": 14.1268,
      "duration": 1.2848,
      "velocity": 91,
      "chip": "ym2612"
    },
    {
      "channel": 4,
      "note": 52,
      "start": 14.1276,
      "duration": 0.1417,
      "velocity": 91,
      "chip": "ym2612"
    },
    {
      "channel": 2,
      "note": 37,
      "start": 14.1287,
      "duration": 0.12,
      "velocity": 120,
      "chip": "ym2612"
    },
    {
      "channel": 5,
      "note": 59,
      "start": 14.1954,
      "duration": 0.1422,
      "velocity": 127,
      "chip": "ym2612"
    },
    {
      "channel": 0,
      "note": 59,
      "start": 14.2681,
      "duration": 0.1424,
      "velocity": 127,
      "chip": "ym2612"
    },
    {
      "channel": 1,
      "note": 52,
      "start": 14.2689,
      "duration": 0.1423,
      "velocity": 127,
      "chip": "ym2612"
    },
    {
      "channel": 4,
      "note": 52,
      "start": 14.27,
      "duration": 0.1423,
      "velocity": 91,
      "chip": "ym2612"
    },
    {
      "channel": 2,
      "note": 29,
      "start": 14.271,
      "duration": 0.1366,
      "velocity": 120,
      "chip": "ym2612"
    },
    {
      "channel": 5,
      "note": 59,
      "start": 14.3382,
      "duration": 0.1425,
      "velocity": 127,
      "chip": "ym2612"
    },
    {
      "channel": 0,
      "note": 59,
      "start": 14.4111,
      "duration": 0.1422,
      "velocity": 127,
      "chip": "ym2612"
    },
    {
      "channel": 1,
      "note": 52,
      "start": 14.4117,
      "duration": 0.1422,
      "velocity": 127,
      "chip": "ym2612"
    },
    {
      "channel": 4,
      "note": 52,
      "start": 14.4128,
      "duration": 0.1422,
      "velocity": 91,
      "chip": "ym2612"
    },
    {
      "channel": 2,
      "note": 29,
      "start": 14.414,
      "duration": 0.1364,
      "velocity": 120,
      "chip": "ym2612"
    },
    {
      "channel": 5,
      "note": 59,
      "start": 14.4814,
      "duration": 0.1418,
      "velocity": 127,
      "chip": "ym2612"
    },
    {
      "channel": 0,
      "note": 59,
      "start": 14.5538,
      "duration": 0.285,
      "velocity": 127,
      "chip": "ym2612"
    },
    {
      "channel": 1,
      "note": 52,
      "start": 14.5546,
      "duration": 0.2849,
      "velocity": 127,
      "chip": "ym2612"
    },
    {
      "channel": 4,
      "note": 52,
      "start": 14.5556,
      "duration": 0.2849,
      "velocity": 91,
      "chip": "ym2612"
    },
    {
      "channel": 2,
      "note": 37,
      "start": 14.5567,
      "duration": 0.1205,
      "velocity": 120,
      "chip": "ym2612"
    },
    {
      "channel": 5,
      "note": 59,
      "start": 14.6238,
      "duration": 0.285,
      "velocity": 127,
      "chip": "ym2612"
    },
    {
      "channel": 0,
      "note": 59,
      "start": 14.8394,
      "duration": 0.285,
      "velocity": 127,
      "chip": "ym2612"
    },
    {
      "channel": 1,
      "note": 52,
      "start": 14.8401,
      "duration": 0.285,
      "velocity": 127,
      "chip": "ym2612"
    },
    {
      "channel": 4,
      "note": 52,
      "start": 14.8412,
      "duration": 0.285,
      "velocity": 91,
      "chip": "ym2612"
    },
    {
      "channel": 2,
      "note": 29,
      "start": 14.8423,
      "duration": 0.1365,
      "velocity": 120,
      "chip": "ym2612"
    },
    {
      "channel": 5,
      "note": 59,
      "start": 14.9093,
      "duration": 0.2851,
      "velocity": 127,
      "chip": "ym2612"
    },
    {
      "channel": 2,
      "note": 37,
      "start": 14.9839,
      "duration": 0.1217,
      "velocity": 120,
      "chip": "ym2612"
    },
    {
      "channel": 0,
      "note": 59,
      "start": 15.1249,
      "duration": 0.2852,
      "velocity": 127,
      "chip": "ym2612"
    },
    {
      "channel": 1,
      "note": 52,
      "start": 15.1256,
      "duration": 0.2853,
      "velocity": 127,
      "chip": "ym2612"
    },
    {
      "channel": 4,
      "note": 52,
      "start": 15.1267,
      "duration": 0.2858,
      "velocity": 91,
      "chip": "ym2612"
    },
    {
      "channel": 2,
      "note": 29,
      "start": 15.1279,
      "duration": 0.2454,
      "velocity": 120,
      "chip": "ym2612"
    },
    {
      "channel": 5,
      "note": 59,
      "start": 15.195,
      "duration": 0.285,
      "velocity": 127,
      "chip": "ym2612"
    },
    {
      "channel": 0,
      "note": 64,
      "start": 15.4107,
      "duration": 0.4277,
      "velocity": 127,
      "chip": "ym2612"
    },
    {
      "channel": 1,
      "note": 56,
      "start": 15.4115,
      "duration": 0.4277,
      "velocity": 127,
      "chip": "ym2612"
    },
    {
      "channel": 3,
      "note": 88,
      "start": 15.4123,
      "duration": 0.1028,
      "velocity": 91,
      "chip": "ym2612"
    },
    {
      "channel": 4,
      "note": 52,
      "start": 15.4131,
      "duration": 0.4276,
      "velocity": 91,
      "chip": "ym2612"
    },
    {
      "channel": 2,
      "note": 37,
      "start": 15.4142,
      "duration": 0.1197,
      "velocity": 120,
      "chip": "ym2612"
    },
    {
      "channel": 5,
      "note": 64,
      "start": 15.4806,
      "duration": 0.4278,
      "velocity": 127,
      "chip": "ym2612"
    },
    {
      "channel": 3,
      "note": 90,
      "start": 15.5156,
      "duration": 0.1069,
      "velocity": 91,
      "chip": "ym2612"
    },
    {
      "channel": 3,
      "note": 92,
      "start": 15.6231,
      "duration": 0.1061,
      "velocity": 91,
      "chip": "ym2612"
    },
    {
      "channel": 3,
      "note": 93,
      "start": 15.7298,
      "duration": 0.1101,
      "velocity": 91,
      "chip": "ym2612"
    },
    {
      "channel": 0,
      "note": 64,
      "start": 15.839,
      "duration": 0.1422,
      "velocity": 127,
      "chip": "ym2612"
    },
    {
      "channel": 1,
      "note": 56,
      "start": 15.8398,
      "duration": 0.1422,
      "velocity": 127,
      "chip": "ym2612"
    },
    {
      "channel": 3,
      "note": 95,
      "start": 15.8406,
      "duration": 1.2846,
      "velocity": 91,
      "chip": "ym2612"
    },
    {
      "channel": 4,
      "note": 52,
      "start": 15.8413,
      "duration": 0.1418,
      "velocity": 91,
      "chip": "ym2612"
    },
    {
      "channel": 2,
      "note": 37,
      "start": 15.8424,
      "duration": 0.12,
      "velocity": 120,
      "chip": "ym2612"
    },
    {
      "channel": 5,
      "note": 64,
      "start": 15.909,
      "duration": 0.1423,
      "velocity": 127,
      "chip": "ym2612"
    },
    {
      "channel": 0,
      "note": 64,
      "start": 15.9819,
      "duration": 0.1421,
      "velocity": 127,
      "chip": "ym2612"
    },
    {
      "channel": 1,
      "note": 56,
      "start": 15.9826,
      "duration": 0.1421,
      "velocity": 127,
      "chip": "ym2612"
    },
    {
      "channel": 4,
      "note": 52,
      "start": 15.9837,
      "duration": 0.1421,
      "velocity": 91,
      "chip": "ym2612"
    },
    {
      "channel": 2,
      "note": 29,
      "start": 15.9848,
      "duration": 0.1364,
      "velocity": 120,
      "chip": "ym2612"
    },
    {
      "channel": 5,
      "note": 64,
      "start": 16.0518,
      "duration": 0.1426,
      "velocity": 127,
      "chip": "ym2612"
    },
    {
      "channel": 0,
      "note": 64,
      "start": 16.1245,
      "duration": 0.1422,
      "velocity": 127,
      "chip": "ym2612"
    },
    {
      "channel": 1,
      "note": 56,
      "start": 16.1252,
      "duration": 0.1422,
      "velocity": 127,
      "chip": "ym2612"
    },
    {
      "channel": 4,
      "note": 52,
      "start": 16.1263,
      "duration": 0.1422,
      "velocity": 91,
      "chip": "ym2612"
    },
    {
      "channel": 2,
      "note": 29,
      "start": 16.1275,
      "duration": 0.1364,
      "velocity": 120,
      "chip": "ym2612"
    },
    {
      "channel": 5,
      "note": 64,
      "start": 16.195,
      "duration": 0.1419,
      "velocity": 127,
      "chip": "ym2612"
    },
    {
      "channel": 0,
      "note": 64,
      "start": 16.2673,
      "duration": 0.2851,
      "velocity": 127,
      "chip": "ym2612"
    },
    {
      "channel": 1,
      "note": 56,
      "start": 16.2681,
      "duration": 0.2851,
      "velocity": 127,
      "chip": "ym2612"
    },
    {
      "channel": 4,
      "note": 52,
      "start": 16.2692,
      "duration": 0.285,
      "velocity": 91,
      "chip": "ym2612"
    },
    {
      "channel": 2,
      "note": 37,
      "start": 16.2702,
      "duration": 0.1205,
      "velocity": 120,
      "chip": "ym2612"
    },
    {
      "channel": 5,
      "note": 64,
      "start": 16.3374,
      "duration": 0.285,
      "velocity": 127,
      "chip": "ym2612"
    },
    {
      "channel": 0,
      "note": 64,
      "start": 16.553,
      "duration": 0.285,
      "velocity": 127,
      "chip": "ym2612"
    },
    {
      "channel": 1,
      "note": 56,
      "start": 16.5537,
      "duration": 0.285,
      "velocity": 127,
      "chip": "ym2612"
    },
    {
      "channel": 4,
      "note": 52,
      "start": 16.5548,
      "duration": 0.285,
      "velocity": 91,
      "chip": "ym2612"
    },
    {
      "channel": 2,
      "note": 29,
      "start": 16.556,
      "duration": 0.1364,
      "velocity": 120,
      "chip": "ym2612"
    },
    {
      "channel": 5,
      "note": 64,
      "start": 16.623,
      "duration": 0.285,
      "velocity": 127,
      "chip": "ym2612"
    },
    {
      "channel": 2,
      "note": 37,
      "start": 16.6975,
      "duration": 0.1216,
      "velocity": 120,
      "chip": "ym2612"
    },
    {
      "channel": 0,
      "note": 64,
      "start": 16.8386,
      "duration": 0.2851,
      "velocity": 127,
      "chip": "ym2612"
    },
    {
      "channel": 1,
      "note": 56,
      "start": 16.8393,
      "duration": 0.2851,
      "velocity": 127,
      "chip": "ym2612"
    },
    {
      "channel": 4,
      "note": 52,
      "start": 16.8404,
      "duration": 0.2856,
      "velocity": 91,
      "chip": "ym2612"
    },
    {
      "channel": 2,
      "note": 29,
      "start": 16.8415,
      "duration": 0.2454,
      "velocity": 120,
      "chip": "ym2612"
    },
    {
      "channel": 5,
      "note": 64,
      "start": 16.9086,
      "duration": 0.2851,
      "velocity": 127,
      "chip": "ym2612"
    },
    {
      "channel": 0,
      "note": 68,
      "start": 17.1243,
      "duration": 0.4278,
      "velocity": 127,
      "chip": "ym2612"
    },
    {
      "channel": 1,
      "note": 59,
      "start": 17.1251,
      "duration": 0.4277,
      "velocity": 127,
      "chip": "ym2612"
    },
    {
      "channel": 3,
      "note": 76,
      "start": 17.1258,
      "duration": 0.1028,
      "velocity": 91,
      "chip": "ym2612"
    },
    {
      "channel": 4,
      "note": 52,
      "start": 17.1266,
      "duration": 0.4277,
      "velocity": 91,
      "chip": "ym2612"
    },
    {
      "channel": 2,
      "note": 37,
      "start": 17.1277,
      "duration": 0.1198,
      "velocity": 120,
      "chip": "ym2612"
    },
    {
      "channel": 5,
      "note": 68,
      "start": 17.1943,
      "duration": 0.4277,
      "velocity": 127,
      "chip": "ym2612"
    },
    {
      "channel": 3,
      "note": 78,
      "start": 17.2292,
      "duration": 0.1069,
      "velocity": 91,
      "chip": "ym2612"
    },
    {
      "channel": 3,
      "note": 80,
      "start": 17.3366,
      "duration": 0.1062,
      "velocity": 91,
      "chip": "ym2612"
    },
    {
      "channel": 3,
      "note": 81,
      "start": 17.4434,
      "duration": 0.1101,
      "velocity": 91,
      "chip": "ym2612"
    },
    {
      "channel": 0,
      "note": 68,
      "start": 17.5527,
      "duration": 0.1422,
      "velocity": 127,
      "chip": "ym2612"
    },
    {
      "channel": 1,
      "note": 59,
      "start": 17.5534,
      "duration": 0.1422,
      "velocity": 127,
      "chip": "ym2612"
    },
    {
      "channel": 3,
      "note": 83,
      "start": 17.5542,
      "duration": 1.2847,
      "velocity": 91,
      "chip": "ym2612"
    },
    {
      "channel": 4,
      "note": 52,
      "start": 17.5549,
      "duration": 0.1418,
      "velocity": 91,
      "chip": "ym2612"
    },
    {
      "channel": 2,
      "note": 37,
      "start": 17.556,
      "duration": 0.12,
      "velocity": 120,
      "chip": "ym2612"
    },
    {
      "channel": 5,
      "note": 68,
      "start": 17.6226,
      "duration": 0.1422,
      "velocity": 127,
      "chip": "ym2612"
    },
    {
      "channel": 0,
      "note": 68,
      "start": 17.6955,
      "duration": 0.1421,
      "velocity": 127,
      "chip": "ym2612"
    },
    {
      "channel": 1,
      "note": 59,
      "start": 17.6962,
      "duration": 0.1422,
      "velocity": 127,
      "chip": "ym2612"
    },
    {
      "channel": 4,
      "note": 52,
      "start": 17.6973,
      "duration": 0.1422,
      "velocity": 91,
      "chip": "ym2612"
    },
    {
      "channel": 2,
      "note": 29,
      "start": 17.6984,
      "duration": 0.1364,
      "velocity": 120,
      "chip": "ym2612"
    },
    {
      "channel": 5,
      "note": 68,
      "start": 17.7654,
      "duration": 0.1426,
      "velocity": 127,
      "chip": "ym2612"
    },
    {
      "channel": 0,
      "note": 68,
      "start": 17.8382,
      "duration": 0.1422,
      "velocity": 127,
      "chip": "ym2612"
    },
    {
      "channel": 1,
      "note": 59,
      "start": 17.8389,
      "duration": 0.1422,
      "velocity": 127,
      "chip": "ym2612"
    },
    {
      "channel": 4,
      "note": 52,
      "start": 17.84,
      "duration": 0.1422,
      "velocity": 91,
      "chip": "ym2612"
    },
    {
      "channel": 2,
      "note": 29,
      "start": 17.8412,
      "duration": 0.1364,
      "velocity": 120,
      "chip": "ym2612"
    },
    {
      "channel": 5,
      "note": 68,
      "start": 17.9086,
      "duration": 0.1419,
      "velocity": 127,
      "chip": "ym2612"
    },
    {
      "channel": 0,
      "note": 68,
      "start": 17.981,
      "duration": 0.285,
      "velocity": 127,
      "chip": "ym2612"
    },
    {
      "channel": 1,
      "note": 59,
      "start": 17.9818,
      "duration": 0.2849,
      "velocity": 127,
      "chip": "ym2612"
    },
    {
      "channel": 4,
      "note": 52,
      "start": 17.9829,
      "duration": 0.2849,
      "velocity": 91,
      "chip": "ym2612"
    },
    {
      "channel": 2,
      "note": 37,
      "start": 17.9839,
      "duration": 0.1205,
      "velocity": 120,
      "chip": "ym2612"
    },
    {
      "channel": 5,
      "note": 68,
      "start": 18.0511,
      "duration": 0.2851,
      "velocity": 127,
      "chip": "ym2612"
    },
    {
      "channel": 0,
      "note": 68,
      "start": 18.2666,
      "duration": 0.285,
      "velocity": 127,
      "chip": "ym2612"
    },
    {
      "channel": 1,
      "note": 59,
      "start": 18.2673,
      "duration": 0.2851,
      "velocity": 127,
      "chip": "ym2612"
    },
    {
      "channel": 4,
      "note": 52,
      "start": 18.2684,
      "duration": 0.2851,
      "velocity": 91,
      "chip": "ym2612"
    },
    {
      "channel": 2,
      "note": 29,
      "start": 18.2695,
      "duration": 0.1366,
      "velocity": 120,
      "chip": "ym2612"
    },
    {
      "channel": 5,
      "note": 68,
      "start": 18.3367,
      "duration": 0.285,
      "velocity": 127,
      "chip": "ym2612"
    },
    {
      "channel": 2,
      "note": 37,
      "start": 18.4112,
      "duration": 0.1217,
      "velocity": 120,
      "chip": "ym2612"
    },
    {
      "channel": 0,
      "note": 68,
      "start": 18.5522,
      "duration": 0.2851,
      "velocity": 127,
      "chip": "ym2612"
    },
    {
      "channel": 1,
      "note": 59,
      "start": 18.553,
      "duration": 0.2851,
      "velocity": 127,
      "chip": "ym2612"
    },
    {
      "channel": 4,
      "note": 52,
      "start": 18.5541,
      "duration": 0.2856,
      "velocity": 91,
      "chip": "ym2612"
    },
    {
      "channel": 2,
      "note": 29,
      "start": 18.5551,
      "duration": 0.2455,
      "velocity": 120,
      "chip": "ym2612"
    },
    {
      "channel": 5,
      "note": 68,
      "start": 18.6222,
      "duration": 0.2851,
      "velocity": 127,
      "chip": "ym2612"
    },
    {
      "channel": 0,
      "note": 71,
      "start": 18.838,
      "duration": 0.4277,
      "velocity": 127,
      "chip": "ym2612"
    },
    {
      "channel": 1,
      "note": 64,
      "start": 18.8387,
      "duration": 0.4278,
      "velocity": 127,
      "chip": "ym2612"
    },
    {
      "channel": 3,
      "note": 92,
      "start": 18.8394,
      "duration": 0.1028,
      "velocity": 91,
      "chip": "ym2612"
    },
    {
      "channel": 4,
      "note": 52,
      "start": 18.8402,
      "duration": 0.4277,
      "velocity": 91,
      "chip": "ym2612"
    },
    {
      "channel": 2,
      "note": 37,
      "start": 18.8413,
      "duration": 0.1199,
      "velocity": 120,
      "chip": "ym2612"
    },
    {
      "channel": 5,
      "note": 71,
      "start": 18.9079,
      "duration": 0.4278,
      "velocity": 127,
      "chip": "ym2612"
    },
    {
      "channel": 3,
      "note": 93,
      "start": 18.9429,
      "duration": 0.1069,
      "velocity": 91,
      "chip": "ym2612"
    },
    {
      "channel": 3,
      "note": 95,
      "start": 19.0504,
      "duration": 0.1061,
      "velocity": 91,
      "chip": "ym2612"
    },
    {
      "channel": 3,
      "note": 97,
      "start": 19.1571,
      "duration": 0.1101,
      "velocity": 91,
      "chip": "ym2612"
    },
    {
      "channel": 0,
      "note": 71,
      "start": 19.2663,
      "duration": 0.1422,
      "velocity": 127,
      "chip": "ym2612"
    },
    {
      "channel": 1,
      "note": 64,
      "start": 19.267,
      "duration": 0.1422,
      "velocity": 127,
      "chip": "ym2612"
    },
    {
      "channel": 3,
      "note": 100,
      "start": 19.2678,
      "duration": 1.2901,
      "velocity": 120,
      "chip": "ym2612"
    },
    {
      "channel": 4,
      "note": 52,
      "start": 19.2686,
      "duration": 0.1419,
      "velocity": 91,
      "chip": "ym2612"
    },
    {
      "channel": 2,
      "note": 37,
      "start": 19.2696,
      "duration": 0.12,
      "velocity": 120,
      "chip": "ym2612"
    },
    {
      "channel": 5,
      "note": 71,
      "start": 19.3364,
      "duration": 0.1422,
      "velocity": 127,
      "chip": "ym2612"
    },
    {
      "channel": 0,
      "note": 71,
      "start": 19.4091,
      "duration": 0.1422,
      "velocity": 127,
      "chip": "ym2612"
    },
    {
      "channel": 1,
      "note": 64,
      "start": 19.4098,
      "duration": 0.1422,
      "velocity": 127,
      "chip": "ym2612"
    },
    {
      "channel": 4,
      "note": 52,
      "start": 19.411,
      "duration": 0.1421,
      "velocity": 91,
      "chip": "ym2612"
    },
    {
      "channel": 2,
      "note": 29,
      "start": 19.4121,
      "duration": 0.1364,
      "velocity": 120,
      "chip": "ym2612"
    },
    {
      "channel": 5,
      "note": 71,
      "start": 19.4791,
      "duration": 0.1426,
      "velocity": 127,
      "chip": "ym2612"
    },
    {
      "channel": 0,
      "note": 71,
      "start": 19.5519,
      "duration": 0.1422,
      "velocity": 127,
      "chip": "ym2612"
    },
    {
      "channel": 1,
      "note": 64,
      "start": 19.5527,
      "duration": 0.1422,
      "velocity": 127,
      "chip": "ym2612"
    },
    {
      "channel": 4,
      "note": 52,
      "start": 19.5537,
      "duration": 0.1422,
      "velocity": 91,
      "chip": "ym2612"
    },
    {
      "channel": 2,
      "note": 29,
      "start": 19.5548,
      "duration": 0.1364,
      "velocity": 120,
      "chip": "ym2612"
    },
    {
      "channel": 5,
      "note": 71,
      "start": 19.6222,
      "duration": 0.1419,
      "velocity": 127,
      "chip": "ym2612"
    },
    {
      "channel": 0,
      "note": 71,
      "start": 19.6947,
      "duration": 0.285,
      "velocity": 127,
      "chip": "ym2612"
    },
    {
      "channel": 1,
      "note": 64,
      "start": 19.6954,
      "duration": 0.2851,
      "velocity": 127,
      "chip": "ym2612"
    },
    {
      "channel": 4,
      "note": 52,
      "start": 19.6965,
      "duration": 0.2851,
      "velocity": 91,
      "chip": "ym2612"
    },
    {
      "channel": 2,
      "note": 37,
      "start": 19.6976,
      "duration": 0.1205,
      "velocity": 120,
      "chip": "ym2612"
    },
    {
      "channel": 5,
      "note": 71,
      "start": 19.7647,
      "duration": 0.2849,
      "velocity": 127,
      "chip": "ym2612"
    },
    {
      "channel": 0,
      "note": 71,
      "start": 19.9803,
      "duration": 0.2849,
      "velocity": 127,
      "chip": "ym2612"
    },
    {
      "channel": 1,
      "note": 64,
      "start": 19.981,
      "duration": 0.285,
      "velocity": 127,
      "chip": "ym2612"
    },
    {
      "channel": 4,
      "note": 52,
      "start": 19.9821,
      "duration": 0.285,
      "velocity": 91,
      "chip": "ym2612"
    },
    {
      "channel": 2,
      "note": 29,
      "start": 19.9833,
      "duration": 0.1364,
      "velocity": 120,
      "chip": "ym2612"
    },
    {
      "channel": 5,
      "note": 71,
      "start": 20.0502,
      "duration": 0.285,
      "velocity": 127,
      "chip": "ym2612"
    },
    {
      "channel": 2,
      "note": 37,
      "start": 20.1248,
      "duration": 0.1217,
      "velocity": 120,
      "chip": "ym2612"
    },
    {
      "channel": 0,
      "note": 71,
      "start": 20.2658,
      "duration": 0.2851,
      "velocity": 127,
      "chip": "ym2612"
    },
    {
      "channel": 1,
      "note": 64,
      "start": 20.2666,
      "duration": 0.2875,
      "velocity": 95,
      "chip": "ym2612"
    },
    {
      "channel": 4,
      "note": 52,
      "start": 20.2677,
      "duration": 0.2907,
      "velocity": 91,
      "chip": "ym2612"
    },
    {
      "channel": 2,
      "note": 29,
      "start": 20.2688,
      "duration": 0.2454,
      "velocity": 120,
      "chip": "ym2612"
    },
    {
      "channel": 5,
      "note": 71,
      "start": 20.3359,
      "duration": 0.2847,
      "velocity": 127,
      "chip": "ym2612"
    },
    {
      "channel": 0,
      "note": 57,
      "start": 20.5516,
      "duration": 0.6419,
      "velocity": 127,
      "chip": "ym2612"
    },
    {
      "channel": 1,
      "note": 69,
      "start": 20.5548,
      "duration": 0.1009,
      "velocity": 95,
      "chip": "ym2612"
    },
    {
      "channel": 4,
      "note": 57,
      "start": 20.559,
      "duration": 0.2077,
      "velocity": 91,
      "chip": "ym2612"
    },
    {
      "channel": 2,
      "note": 37,
      "start": 20.56,
      "duration": 0.1145,
      "velocity": 120,
      "chip": "ym2612"
    },
    {
      "channel": 5,
      "note": 57,
      "start": 20.6212,
      "duration": 0.6421,
      "velocity": 127,
      "chip": "ym2612"
    },
    {
      "channel": 1,
      "note": 73,
      "start": 20.6562,
      "duration": 0.1096,
      "velocity": 95,
      "chip": "ym2612"
    },
    {
      "channel": 1,
      "note": 76,
      "start": 20.7665,
      "duration": 0.1061,
      "velocity": 95,
      "chip": "ym2612"
    },
    {
      "channel": 4,
      "note": 69,
      "start": 20.7673,
      "duration": 0.106,
      "velocity": 91,
      "chip": "ym2612"
    },
    {
      "channel": 2,
      "note": 56,
      "start": 20.7684,
      "duration": 0.101,
      "velocity": 116,
      "chip": "ym2612"
    },
    {
      "channel": 1,
      "note": 81,
      "start": 20.8731,
      "duration": 0.1067,
      "velocity": 95,
      "chip": "ym2612"
    },
    {
      "channel": 4,
      "note": 69,
      "start": 20.8739,
      "duration": 0.1075,
      "velocity": 91,
      "chip": "ym2612"
    },
    {
      "channel": 2,
      "note": 56,
      "start": 20.875,
      "duration": 0.1015,
      "velocity": 116,
      "chip": "ym2612"
    },
    {
      "channel": 1,
      "note": 85,
      "start": 20.9803,
      "duration": 0.1037,
      "velocity": 95,
      "chip": "ym2612"
    },
    {
      "channel": 3,
      "note": 29,
      "start": 20.9812,
      "duration": 0.2139,
      "velocity": 120,
      "chip": "ym2612"
    },
    {
      "channel": 4,
      "note": 57,
      "start": 20.982,
      "duration": 0.2134,
      "velocity": 91,
      "chip": "ym2612"
    },
    {
      "channel": 2,
      "note": 37,
      "start": 20.9831,
      "duration": 0.1202,
      "velocity": 120,
      "chip": "ym2612"
    },
    {
      "channel": 1,
      "note": 81,
      "start": 21.0847,
      "duration": 0.1095,
      "velocity": 95,
      "chip": "ym2612"
    },
    {
      "channel": 0,
      "note": 61,
      "start": 21.1941,
      "duration": 0.1065,
      "velocity": 127,
      "chip": "ym2612"
    },
    {
      "channel": 1,
      "note": 76,
      "start": 21.1949,
      "duration": 0.1065,
      "velocity": 95,
      "chip": "ym2612"
    },
    {
      "channel": 4,
      "note": 69,
      "start": 21.1959,
      "duration": 0.1063,
      "velocity": 91,
      "chip": "ym2612"
    },
    {
      "channel": 2,
      "note": 56,
      "start": 21.197,
      "duration": 0.1008,
      "velocity": 116,
      "chip": "ym2612"
    },
    {
      "channel": 5,
      "note": 61,
      "start": 21.2639,
      "duration": 0.1064,
      "velocity": 127,
      "chip": "ym2612"
    },
    {
      "channel": 0,
      "note": 64,
      "start": 21.3013,
      "duration": 0.1066,
      "velocity": 127,
      "chip": "ym2612"
    },
    {
      "channel": 1,
      "note": 73,
      "start": 21.302,
      "duration": 0.1067,
      "velocity": 95,
      "chip": "ym2612"
    },
    {
      "channel": 4,
      "note": 69,
      "start": 21.3028,
      "duration": 0.1071,
      "velocity": 91,
      "chip": "ym2612"
    },
    {
      "channel": 2,
      "note": 56,
      "start": 21.3039,
      "duration": 0.1011,
      "velocity": 116,
      "chip": "ym2612"
    },
    {
      "channel": 5,
      "note": 64,
      "start": 21.3709,
      "duration": 0.1066,
      "velocity": 127,
      "chip": "ym2612"
    },
    {
      "channel": 0,
      "note": 69,
      "start": 21.4084,
      "duration": 0.8563,
      "velocity": 127,
      "chip": "ym2612"
    },
    {
      "channel": 1,
      "note": 69,
      "start": 21.4093,
      "duration": 0.1032,
      "velocity": 95,
      "chip": "ym2612"
    },
    {
      "channel": 4,
      "note": 57,
      "start": 21.4105,
      "duration": 0.2126,
      "velocity": 91,
      "chip": "ym2612"
    },
    {
      "channel": 2,
      "note": 37,
      "start": 21.4116,
      "duration": 0.1198,
      "velocity": 120,
      "chip": "ym2612"
    },
    {
      "channel": 5,
      "note": 69,
      "start": 21.4782,
      "duration": 0.8561,
      "velocity": 127,
      "chip": "ym2612"
    },
    {
      "channel": 1,
      "note": 73,
      "start": 21.513,
      "duration": 0.1093,
      "velocity": 95,
      "chip": "ym2612"
    },
    {
      "channel": 1,
      "note": 76,
      "start": 21.6229,
      "duration": 0.1065,
      "velocity": 95,
      "chip": "ym2612"
    },
    {
      "channel": 4,
      "note": 69,
      "start": 21.6238,
      "duration": 0.1065,
      "velocity": 91,
      "chip": "ym2612"
    },
    {
      "channel": 2,
      "note": 56,
      "start": 21.6249,
      "duration": 0.1013,
      "velocity": 116,
      "chip": "ym2612"
    },
    {
      "channel": 1,
      "note": 81,
      "start": 21.73,
      "duration": 0.1066,
      "velocity": 95,
      "chip": "ym2612"
    },
    {
      "channel": 4,
      "note": 69,
      "start": 21.7308,
      "duration": 0.1074,
      "velocity": 91,
      "chip": "ym2612"
    },
    {
      "channel": 2,
      "note": 56,
      "start": 21.7319,
      "duration": 0.1015,
      "velocity": 116,
      "chip": "ym2612"
    },
    {
      "channel": 1,
      "note": 85,
      "start": 21.8372,
      "duration": 0.1037,
      "velocity": 95,
      "chip": "ym2612"
    },
    {
      "channel": 3,
      "note": 29,
      "start": 21.838,
      "duration": 0.2134,
      "velocity": 120,
      "chip": "ym2612"
    },
    {
      "channel": 4,
      "note": 57,
      "start": 21.8389,
      "duration": 0.2128,
      "velocity": 91,
      "chip": "ym2612"
    },
    {
      "channel": 2,
      "note": 37,
      "start": 21.8399,
      "duration": 0.1202,
      "velocity": 120,
      "chip": "ym2612"
    },
    {
      "channel": 1,
      "note": 81,
      "start": 21.9415,
      "duration": 0.1091,
      "velocity": 95,
      "chip": "ym2612"
    },
    {
      "channel": 1,
      "note": 76,
      "start": 22.0512,
      "duration": 0.1066,
      "velocity": 95,
      "chip": "ym2612"
    },
    {
      "channel": 4,
      "note": 69,
      "start": 22.0523,
      "duration": 0.1064,
      "velocity": 91,
      "chip": "ym2612"
    },
    {
      "channel": 2,
      "note": 56,
      "start": 22.0534,
      "duration": 0.1013,
      "velocity": 116,
      "chip": "ym2612"
    },
    {
      "channel": 1,
      "note": 73,
      "start": 22.1584,
      "duration": 0.1071,
      "velocity": 95,
      "chip": "ym2612"
    },
    {
      "channel": 4,
      "note": 69,
      "start": 22.1592,
      "duration": 0.1075,
      "velocity": 91,
      "chip": "ym2612"
    },
    {
      "channel": 2,
      "note": 56,
      "start": 22.1603,
      "duration": 0.1016,
      "velocity": 116,
      "chip": "ym2612"
    },
    {
      "channel": 0,
      "note": 68,
      "start": 22.2653,
      "duration": 0.6419,
      "velocity": 127,
      "chip": "ym2612"
    },
    {
      "channel": 1,
      "note": 68,
      "start": 22.2661,
      "duration": 0.1032,
      "velocity": 95,
      "chip": "ym2612"
    },
    {
      "channel": 4,
      "note": 56,
      "start": 22.2673,
      "duration": 0.213,
      "velocity": 91,
      "chip": "ym2612"
    },
    {
      "channel": 2,
      "note": 37,
      "start": 22.2684,
      "duration": 0.1198,
      "velocity": 120,
      "chip": "ym2612"
    },
    {
      "channel": 5,
      "note": 68,
      "start": 22.3349,
      "duration": 0.642,
      "velocity": 127,
      "chip": "ym2612"
    },
    {
      "channel": 1,
      "note": 73,
      "start": 22.37,
      "duration": 0.1095,
      "velocity": 95,
      "chip": "ym2612"
    },
    {
      "channel": 1,
      "note": 76,
      "start": 22.4801,
      "duration": 0.1062,
      "velocity": 95,
      "chip": "ym2612"
    },
    {
      "channel": 4,
      "note": 68,
      "start": 22.4809,
      "duration": 0.1062,
      "velocity": 91,
      "chip": "ym2612"
    },
    {
      "channel": 2,
      "note": 56,
      "start": 22.482,
      "duration": 0.1011,
      "velocity": 116,
      "chip": "ym2612"
    },
    {
      "channel": 1,
      "note": 80,
      "start": 22.5868,
      "duration": 0.1065,
      "velocity": 95,
      "chip": "ym2612"
    },
    {
      "channel": 4,
      "note": 68,
      "start": 22.5876,
      "duration": 0.1074,
      "velocity": 91,
      "chip": "ym2612"
    },
    {
      "channel": 2,
      "note": 56,
      "start": 22.5887,
      "duration": 0.1015,
      "velocity": 116,
      "chip": "ym2612"
    },
    {
      "channel": 1,
      "note": 85,
      "start": 22.694,
      "duration": 0.1037,
      "velocity": 95,
      "chip": "ym2612"
    },
    {
      "channel": 3,
      "note": 29,
      "start": 22.6948,
      "duration": 0.2139,
      "velocity": 120,
      "chip": "ym2612"
    },
    {
      "channel": 4,
      "note": 56,
      "start": 22.6956,
      "duration": 0.2134,
      "velocity": 91,
      "chip": "ym2612"
    },
    {
      "channel": 2,
      "note": 37,
      "start": 22.6967,
      "duration": 0.1202,
      "velocity": 120,
      "chip": "ym2612"
    },
    {
      "channel": 1,
      "note": 80,
      "start": 22.7984,
      "duration": 0.1095,
      "velocity": 95,
      "chip": "ym2612"
    },
    {
      "channel": 0,
      "note": 56,
      "start": 22.9078,
      "duration": 1.0705,
      "velocity": 127,
      "chip": "ym2612"
    },
    {
      "channel": 1,
      "note": 76,
      "start": 22.9085,
      "duration": 0.1061,
      "velocity": 95,
      "chip": "ym2612"
    },
    {
      "channel": 4,
      "note": 68,
      "start": 22.9095,
      "duration": 0.1059,
      "velocity": 91,
      "chip": "ym2612"
    },
    {
      "channel": 2,
      "note": 56,
      "start": 22.9107,
      "duration": 0.1007,
      "velocity": 116,
      "chip": "ym2612"
    },
    {
      "channel": 5,
      "note": 56,
      "start": 22.9775,
      "duration": 1.0703,
      "velocity": 127,
      "chip": "ym2612"
    },
    {
      "channel": 1,
      "note": 73,
      "start": 23.0151,
      "duration": 0.1068,
      "velocity": 95,
      "chip": "ym2612"
    },
    {
      "channel": 4,
      "note": 68,
      "start": 23.016,
      "duration": 0.1072,
      "velocity": 91,
      "chip": "ym2612"
    },
    {
      "channel": 2,
      "note": 56,
      "start": 23.017,
      "duration": 0.1016,
      "velocity": 116,
      "chip": "ym2612"
    },
    {
      "channel": 1,
      "note": 68,
      "start": 23.1224,
      "duration": 0.1037,
      "velocity": 95,
      "chip": "ym2612"
    },
    {
      "channel": 4,
      "note": 56,
      "start": 23.1237,
      "duration": 0.213,
      "velocity": 91,
      "chip": "ym2612"
    },
    {
      "channel": 2,
      "note": 37,
      "start": 23.1248,
      "duration": 0.1203,
      "velocity": 120,
      "chip": "ym2612"
    },
    {
      "channel": 1,
      "note": 73,
      "start": 23.2267,
      "duration": 0.1092,
      "velocity": 95,
      "chip": "ym2612"
    },
    {
      "channel": 1,
      "note": 76,
      "start": 23.3365,
      "duration": 0.1065,
      "velocity": 95,
      "chip": "ym2612"
    },
    {
      "channel": 4,
      "note": 68,
      "start": 23.3373,
      "duration": 0.1066,
      "velocity": 91,
      "chip": "ym2612"
    },
    {
      "channel": 2,
      "note": 56,
      "start": 23.3384,
      "duration": 0.1015,
      "velocity": 116,
      "chip": "ym2612"
    },
    {
      "channel": 1,
      "note": 80,
      "start": 23.4436,
      "duration": 0.1066,
      "velocity": 95,
      "chip": "ym2612"
    },
    {
      "channel": 4,
      "note": 68,
      "start": 23.4444,
      "duration": 0.1074,
      "velocity": 91,
      "chip": "ym2612"
    },
    {
      "channel": 2,
      "note": 56,
      "start": 23.4455,
      "duration": 0.1015,
      "velocity": 116,
      "chip": "ym2612"
    },
    {
      "channel": 1,
      "note": 85,
      "start": 23.5507,
      "duration": 0.1038,
      "velocity": 95,
      "chip": "ym2612"
    },
    {
      "channel": 3,
      "note": 29,
      "start": 23.5516,
      "duration": 0.2134,
      "velocity": 120,
      "chip": "ym2612"
    },
    {
      "channel": 4,
      "note": 56,
      "start": 23.5524,
      "duration": 0.2129,
      "velocity": 91,
      "chip": "ym2612"
    },
    {
      "channel": 2,
      "note": 37,
      "start": 23.5534,
      "duration": 0.1203,
      "velocity": 120,
      "chip": "ym2612"
    },
    {
      "channel": 1,
      "note": 80,
      "start": 23.6552,
      "duration": 0.109,
      "velocity": 95,
      "chip": "ym2612"
    },
    {
      "channel": 1,
      "note": 76,
      "start": 23.7649,
      "duration": 0.1065,
      "velocity": 95,
      "chip": "ym2612"
    },
    {
      "channel": 4,
      "note": 68,
      "start": 23.7659,
      "duration": 0.1063,
      "velocity": 91,
      "chip": "ym2612"
    },
    {
      "channel": 2,
      "note": 56,
      "start": 23.767,
      "duration": 0.1012,
      "velocity": 116,
      "chip": "ym2612"
    },
    {
      "channel": 1,
      "note": 73,
      "start": 23.8719,
      "duration": 0.1072,
      "velocity": 95,
      "chip": "ym2612"
    },
    {
      "channel": 4,
      "note": 68,
      "start": 23.8728,
      "duration": 0.1076,
      "velocity": 91,
      "chip": "ym2612"
    },
    {
      "channel": 2,
      "note": 56,
      "start": 23.8738,
      "duration": 0.1016,
      "velocity": 116,
      "chip": "ym2612"
    },
    {
      "channel": 0,
      "note": 54,
      "start": 23.9789,
      "duration": 0.6419,
      "velocity": 127,
      "chip": "ym2612"
    },
    {
      "channel": 1,
      "note": 66,
      "start": 23.9797,
      "duration": 0.1032,
      "velocity": 95,
      "chip": "ym2612"
    },
    {
      "channel": 4,
      "note": 54,
      "start": 23.981,
      "duration": 0.213,
      "velocity": 91,
      "chip": "ym2612"
    },
    {
      "channel": 2,
      "note": 37,
      "start": 23.982,
      "duration": 0.1198,
      "velocity": 120,
      "chip": "ym2612"
    },
    {
      "channel": 5,
      "note": 54,
      "start": 24.0485,
      "duration": 0.642,
      "velocity": 127,
      "chip": "ym2612"
    },
    {
      "channel": 1,
      "note": 69,
      "start": 24.0835,
      "duration": 0.1096,
      "velocity": 95,
      "chip": "ym2612"
    },
    {
      "channel": 1,
      "note": 73,
      "start": 24.1938,
      "duration": 0.106,
      "velocity": 95,
      "chip": "ym2612"
    },
    {
      "channel": 4,
      "note": 66,
      "start": 24.1946,
      "duration": 0.1061,
      "velocity": 91,
      "chip": "ym2612"
    },
    {
      "channel": 2,
      "note": 56,
      "start": 24.1957,
      "duration": 0.101,
      "velocity": 116,
      "chip": "ym2612"
    },
    {
      "channel": 1,
      "note": 78,
      "start": 24.3004,
      "duration": 0.1066,
      "velocity": 95,
      "chip": "ym2612"
    },
    {
      "channel": 4,
      "note": 66,
      "start": 24.3013,
      "duration": 0.1074,
      "velocity": 91,
      "chip": "ym2612"
    },
    {
      "channel": 2,
      "note": 56,
      "start": 24.3023,
      "duration": 0.1016,
      "velocity": 116,
      "chip": "ym2612"
    },
    {
      "channel": 1,
      "note": 81,
      "start": 24.4077,
      "duration": 0.1036,
      "velocity": 95,
      "chip": "ym2612"
    },
    {
      "channel": 3,
      "note": 29,
      "start": 24.4085,
      "duration": 0.2138,
      "velocity": 120,
      "chip": "ym2612"
    },
    {
      "channel": 4,
      "note": 54,
      "start": 24.4093,
      "duration": 0.2133,
      "velocity": 91,
      "chip": "ym2612"
    },
    {
      "channel": 2,
      "note": 37,
      "start": 24.4104,
      "duration": 0.1202,
      "velocity": 120,
      "chip": "ym2612"
    },
    {
      "channel": 1,
      "note": 78,
      "start": 24.512,
      "duration": 0.1095,
      "velocity": 95,
      "chip": "ym2612"
    },
    {
      "channel": 0,
      "note": 57,
      "start": 24.6214,
      "duration": 0.1066,
      "velocity": 127,
      "chip": "ym2612"
    },
    {
      "channel": 1,
      "note": 73,
      "start": 24.6221,
      "duration": 0.1066,
      "velocity": 95,
      "chip": "ym2612"
    },
    {
      "channel": 4,
      "note": 66,
      "start": 24.6232,
      "duration": 0.1063,
      "velocity": 91,
      "chip": "ym2612"
    },
    {
      "channel": 2,
      "note": 56,
      "start": 24.6243,
      "duration": 0.1008,
      "velocity": 116,
      "chip": "ym2612"
    },
    {
      "channel": 5,
      "note": 57,
      "start": 24.6911,
      "duration": 0.1066,
      "velocity": 127,
      "chip": "ym2612"
    },
    {
      "channel": 0,
      "note": 61,
      "start": 24.7285,
      "duration": 0.1066,
      "velocity": 127,
      "chip": "ym2612"
    },
    {
      "channel": 1,
      "note": 69,
      "start": 24.7293,
      "duration": 0.1067,
      "velocity": 95,
      "chip": "ym2612"
    },
    {
      "channel": 4,
      "note": 66,
      "start": 24.7301,
      "duration": 0.1071,
      "velocity": 91,
      "chip": "ym2612"
    },
    {
      "channel": 2,
      "note": 56,
      "start": 24.7312,
      "duration": 0.1011,
      "velocity": 116,
      "chip": "ym2612"
    },
    {
      "channel": 5,
      "note": 61,
      "start": 24.7983,
      "duration": 0.1064,
      "velocity": 127,
      "chip": "ym2612"
    },
    {
      "channel": 0,
      "note": 66,
      "start": 24.8357,
      "duration": 0.8562,
      "velocity": 127,
      "chip": "ym2612"
    },
    {
      "channel": 1,
      "note": 66,
      "start": 24.8365,
      "duration": 0.1032,
      "velocity": 95,
      "chip": "ym2612"
    },
    {
      "channel": 4,
      "note": 54,
      "start": 24.8377,
      "duration": 0.2127,
      "velocity": 91,
      "chip": "ym2612"
    },
    {
      "channel": 2,
      "note": 37,
      "start": 24.8388,
      "duration": 0.1199,
      "velocity": 120,
      "chip": "ym2612"
    },
    {
      "channel": 5,
      "note": 66,
      "start": 24.9053,
      "duration": 0.8562,
      "velocity": 127,
      "chip": "ym2612"
    },
    {
      "channel": 1,
      "note": 69,
      "start": 24.9403,
      "duration": 0.1092,
      "velocity": 95,
      "chip": "ym2612"
    },
    {
      "channel": 1,
      "note": 73,
      "start": 25.0501,
      "duration": 0.1066,
      "velocity": 95,
      "chip": "ym2612"
    },
    {
      "channel": 4,
      "note": 66,
      "start": 25.051,
      "duration": 0.1066,
      "velocity": 91,
      "chip": "ym2612"
    },
    {
      "channel": 2,
      "note": 56,
      "start": 25.052,
      "duration": 0.1015,
      "velocity": 116,
      "chip": "ym2612"
    },
    {
      "channel": 1,
      "note": 78,
      "start": 25.1572,
      "duration": 0.1067,
      "velocity": 95,
      "chip": "ym2612"
    },
    {
      "channel": 4,
      "note": 66,
      "start": 25.1581,
      "duration": 0.1075,
      "velocity": 91,
      "chip": "ym2612"
    },
    {
      "channel": 2,
      "note": 56,
      "start": 25.1591,
      "duration": 0.1017,
      "velocity": 116,
      "chip": "ym2612"
    },
    {
      "channel": 1,
      "note": 81,
      "start": 25.2646,
      "duration": 0.1036,
      "velocity": 95,
      "chip": "ym2612"
    },
    {
      "channel": 3,
      "note": 29,
      "start": 25.2653,
      "duration": 0.2134,
      "velocity": 120,
      "chip": "ym2612"
    },
    {
      "channel": 4,
      "note": 54,
      "start": 25.2661,
      "duration": 0.2129,
      "velocity": 91,
      "chip": "ym2612"
    },
    {
      "channel": 2,
      "note": 37,
      "start": 25.2672,
      "duration": 0.1201,
      "velocity": 120,
      "chip": "ym2612"
    },
    {
      "channel": 1,
      "note": 78,
      "start": 25.3688,
      "duration": 0.1092,
      "velocity": 95,
      "chip": "ym2612"
    },
    {
      "channel": 1,
      "note": 73,
      "start": 25.4785,
      "duration": 0.1064,
      "velocity": 95,
      "chip": "ym2612"
    },
    {
      "channel": 4,
      "note": 66,
      "start": 25.4796,
      "duration": 0.1062,
      "velocity": 91,
      "chip": "ym2612"
    },
    {
      "channel": 2,
      "note": 56,
      "start": 25.4807,
      "duration": 0.1012,
      "velocity": 116,
      "chip": "ym2612"
    },
    {
      "channel": 1,
      "note": 69,
      "start": 25.5856,
      "duration": 0.1071,
      "velocity": 95,
      "chip": "ym2612"
    },
    {
      "channel": 4,
      "note": 66,
      "start": 25.5864,
      "duration": 0.1076,
      "velocity": 91,
      "chip": "ym2612"
    },
    {
      "channel": 2,
      "note": 56,
      "start": 25.5875,
      "duration": 0.1016,
      "velocity": 116,
      "chip": "ym2612"
    },
    {
      "channel": 0,
      "note": 64,
      "start": 25.6925,
      "duration": 1.389,
      "velocity": 127,
      "chip": "ym2612"
    },
    {
      "channel": 1,
      "note": 64,
      "start": 25.6933,
      "duration": 0.1032,
      "velocity": 95,
      "chip": "ym2612"
    },
    {
      "channel": 4,
      "note": 52,
      "start": 25.6946,
      "duration": 0.213,
      "velocity": 91,
      "chip": "ym2612"
    },
    {
      "channel": 2,
      "note": 37,
      "start": 25.6957,
      "duration": 0.1198,
      "velocity": 120,
      "chip": "ym2612"
    },
    {
      "channel": 5,
      "note": 64,
      "start": 25.7622,
      "duration": 1.3919,
      "velocity": 127,
      "chip": "ym2612"
    },
    {
      "channel": 1,
      "note": 69,
      "start": 25.7971,
      "duration": 0.1096,
      "velocity": 95,
      "chip": "ym2612"
    },
    {
      "channel": 1,
      "note": 73,
      "start": 25.9073,
      "duration": 0.1062,
      "velocity": 95,
      "chip": "ym2612"
    },
    {
      "channel": 4,
      "note": 64,
      "start": 25.9081,
      "duration": 0.1062,
      "velocity": 91,
      "chip": "ym2612"
    },
    {
      "channel": 2,
      "note": 56,
      "start": 25.9092,
      "duration": 0.1012,
      "velocity": 116,
      "chip": "ym2612"
    },
    {
      "channel": 1,
      "note": 76,
      "start": 26.0141,
      "duration": 0.1065,
      "velocity": 95,
      "chip": "ym2612"
    },
    {
      "channel": 4,
      "note": 64,
      "start": 26.0149,
      "duration": 0.1073,
      "velocity": 91,
      "chip": "ym2612"
    },
    {
      "channel": 2,
      "note": 56,
      "start": 26.016,
      "duration": 0.1015,
      "velocity": 116,
      "chip": "ym2612"
    },
    {
      "channel": 1,
      "note": 81,
      "start": 26.1212,
      "duration": 0.1038,
      "velocity": 95,
      "chip": "ym2612"
    },
    {
      "channel": 3,
      "note": 29,
      "start": 26.122,
      "duration": 0.2135,
      "velocity": 120,
      "chip": "ym2612"
    },
    {
      "channel": 4,
      "note": 52,
      "start": 26.1228,
      "duration": 0.213,
      "velocity": 91,
      "chip": "ym2612"
    },
    {
      "channel": 2,
      "note": 37,
      "start": 26.1239,
      "duration": 0.1203,
      "velocity": 120,
      "chip": "ym2612"
    },
    {
      "channel": 1,
      "note": 76,
      "start": 26.2256,
      "duration": 0.1092,
      "velocity": 95,
      "chip": "ym2612"
    },
    {
      "channel": 1,
      "note": 73,
      "start": 26.3354,
      "duration": 0.1066,
      "velocity": 95,
      "chip": "ym2612"
    },
    {
      "channel": 4,
      "note": 64,
      "start": 26.3364,
      "duration": 0.1063,
      "velocity": 91,
      "chip": "ym2612"
    },
    {
      "channel": 2,
      "note": 56,
      "start": 26.3375,
      "duration": 0.1012,
      "velocity": 116,
      "chip": "ym2612"
    },
    {
      "channel": 1,
      "note": 69,
      "start": 26.4425,
      "duration": 0.1066,
      "velocity": 95,
      "chip": "ym2612"
    },
    {
      "channel": 4,
      "note": 64,
      "start": 26.4433,
      "duration": 0.1071,
      "velocity": 91,
      "chip": "ym2612"
    },
    {
      "channel": 2,
      "note": 56,
      "start": 26.4444,
      "duration": 0.1014,
      "velocity": 116,
      "chip": "ym2612"
    },
    {
      "channel": 1,
      "note": 64,
      "start": 26.5497,
      "duration": 0.1037,
      "velocity": 95,
      "chip": "ym2612"
    },
    {
      "channel": 4,
      "note": 52,
      "start": 26.551,
      "duration": 0.2131,
      "velocity": 91,
      "chip": "ym2612"
    },
    {
      "channel": 2,
      "note": 37,
      "start": 26.552,
      "duration": 0.1202,
      "velocity": 120,
      "chip": "ym2612"
    },
    {
      "channel": 1,
      "note": 69,
      "start": 26.654,
      "duration": 0.1092,
      "velocity": 95,
      "chip": "ym2612"
    },
    {
      "channel": 1,
      "note": 73,
      "start": 26.7639,
      "duration": 0.1064,
      "velocity": 95,
      "chip": "ym2612"
    },
    {
      "channel": 4,
      "note": 64,
      "start": 26.7647,
      "duration": 0.1064,
      "velocity": 91,
      "chip": "ym2612"
    },
    {
      "channel": 2,
      "note": 56,
      "start": 26.7658,
      "duration": 0.1013,
      "velocity": 116,
      "chip": "ym2612"
    },
    {
      "channel": 1,
      "note": 76,
      "start": 26.8709,
      "duration": 0.1066,
      "velocity": 95,
      "chip": "ym2612"
    },
    {
      "channel": 4,
      "note": 64,
      "start": 26.8717,
      "duration": 0.1074,
      "velocity": 91,
      "chip": "ym2612"
    },
    {
      "channel": 2,
      "note": 56,
      "start": 26.8728,
      "duration": 0.1015,
      "velocity": 116,
      "chip": "ym2612"
    },
    {
      "channel": 1,
      "note": 81,
      "start": 26.9781,
      "duration": 0.1041,
      "velocity": 95,
      "chip": "ym2612"
    },
    {
      "channel": 3,
      "note": 29,
      "start": 26.9789,
      "duration": 0.2139,
      "velocity": 120,
      "chip": "ym2612"
    },
    {
      "channel": 4,
      "note": 52,
      "start": 26.9797,
      "duration": 0.2134,
      "velocity": 91,
      "chip": "ym2612"
    },
    {
      "channel": 2,
      "note": 37,
      "start": 26.9808,
      "duration": 0.1202,
      "velocity": 120,
      "chip": "ym2612"
    },
    {
      "channel": 0,
      "note": 62,
      "start": 27.0821,
      "duration": 0.1091,
      "velocity": 127,
      "chip": "ym2612"
    },
    {
      "channel": 1,
      "note": 76,
      "start": 27.0828,
      "duration": 0.1092,
      "velocity": 95,
      "chip": "ym2612"
    },
    {
      "channel": 5,
      "note": 62,
      "start": 27.1547,
      "duration": 0.1063,
      "velocity": 127,
      "chip": "ym2612"
    },
    {
      "channel": 0,
      "note": 61,
      "start": 27.1918,
      "duration": 0.1064,
      "velocity": 127,
      "chip": "ym2612"
    },
    {
      "channel": 1,
      "note": 73,
      "start": 27.1925,
      "duration": 0.1065,
      "velocity": 95,
      "chip": "ym2612"
    },
    {
      "channel": 4,
      "note": 64,
      "start": 27.1936,
      "duration": 0.1062,
      "velocity": 91,
      "chip": "ym2612"
    },
    {
      "channel": 2,
      "note": 56,
      "start": 27.1948,
      "duration": 0.1007,
      "velocity": 116,
      "chip": "ym2612"
    },
    {
      "channel": 5,
      "note": 61,
      "start": 27.2616,
      "duration": 0.1065,
      "velocity": 127,
      "chip": "ym2612"
    },
    {
      "channel": 0,
      "note": 64,
      "start": 27.2989,
      "duration": 0.1066,
      "velocity": 127,
      "chip": "ym2612"
    },
    {
      "channel": 1,
      "note": 69,
      "start": 27.2996,
      "duration": 0.1067,
      "velocity": 95,
      "chip": "ym2612"
    },
    {
      "channel": 4,
      "note": 64,
      "start": 27.3004,
      "duration": 0.1071,
      "velocity": 91,
      "chip": "ym2612"
    },
    {
      "channel": 2,
      "note": 56,
      "start": 27.3015,
      "duration": 0.1012,
      "velocity": 116,
      "chip": "ym2612"
    },
    {
      "channel": 5,
      "note": 64,
      "start": 27.3686,
      "duration": 0.1066,
      "velocity": 127,
      "chip": "ym2612"
    },
    {
      "channel": 0,
      "note": 62,
      "start": 27.4061,
      "duration": 0.4278,
      "velocity": 127,
      "chip": "ym2612"
    },
    {
      "channel": 1,
      "note": 62,
      "start": 27.4069,
      "duration": 0.1032,
      "velocity": 95,
      "chip": "ym2612"
    },
    {
      "channel": 4,
      "note": 50,
      "start": 27.4081,
      "duration": 0.2131,
      "velocity": 91,
      "chip": "ym2612"
    },
    {
      "channel": 2,
      "note": 37,
      "start": 27.4092,
      "duration": 0.1199,
      "velocity": 120,
      "chip": "ym2612"
    },
    {
      "channel": 5,
      "note": 62,
      "start": 27.4758,
      "duration": 0.428,
      "velocity": 127,
      "chip": "ym2612"
    },
    {
      "channel": 1,
      "note": 66,
      "start": 27.5108,
      "duration": 0.1095,
      "velocity": 95,
      "chip": "ym2612"
    },
    {
      "channel": 1,
      "note": 69,
      "start": 27.621,
      "duration": 0.1062,
      "velocity": 95,
      "chip": "ym2612"
    },
    {
      "channel": 4,
      "note": 62,
      "start": 27.6218,
      "duration": 0.1062,
      "velocity": 91,
      "chip": "ym2612"
    },
    {
      "channel": 2,
      "note": 56,
      "start": 27.6229,
      "duration": 0.1011,
      "velocity": 116,
      "chip": "ym2612"
    },
    {
      "channel": 1,
      "note": 73,
      "start": 27.7278,
      "duration": 0.1068,
      "velocity": 95,
      "chip": "ym2612"
    },
    {
      "channel": 4,
      "note": 62,
      "start": 27.7286,
      "duration": 0.1076,
      "velocity": 91,
      "chip": "ym2612"
    },
    {
      "channel": 2,
      "note": 56,
      "start": 27.7297,
      "duration": 0.1014,
      "velocity": 116,
      "chip": "ym2612"
    },
    {
      "channel": 0,
      "note": 61,
      "start": 27.8345,
      "duration": 0.4279,
      "velocity": 127,
      "chip": "ym2612"
    },
    {
      "channel": 1,
      "note": 78,
      "start": 27.8352,
      "duration": 0.1034,
      "velocity": 95,
      "chip": "ym2612"
    },
    {
      "channel": 3,
      "note": 29,
      "start": 27.836,
      "duration": 0.2132,
      "velocity": 120,
      "chip": "ym2612"
    },
    {
      "channel": 4,
      "note": 50,
      "start": 27.8368,
      "duration": 0.2127,
      "velocity": 91,
      "chip": "ym2612"
    },
    {
      "channel": 2,
      "note": 37,
      "start": 27.8379,
      "duration": 0.1199,
      "velocity": 120,
      "chip": "ym2612"
    },
    {
      "channel": 5,
      "note": 61,
      "start": 27.9044,
      "duration": 0.4276,
      "velocity": 127,
      "chip": "ym2612"
    },
    {
      "channel": 1,
      "note": 73,
      "start": 27.9393,
      "duration": 0.1091,
      "velocity": 95,
      "chip": "ym2612"
    },
    {
      "channel": 1,
      "note": 69,
      "start": 28.049,
      "duration": 0.1066,
      "velocity": 95,
      "chip": "ym2612"
    },
    {
      "channel": 4,
      "note": 62,
      "start": 28.05,
      "duration": 0.1063,
      "velocity": 91,
      "chip": "ym2612"
    },
    {
      "channel": 2,
      "note": 56,
      "start": 28.0511,
      "duration": 0.1012,
      "velocity": 116,
      "chip": "ym2612"
    },
    {
      "channel": 1,
      "note": 66,
      "start": 28.1561,
      "duration": 0.1071,
      "velocity": 95,
      "chip": "ym2612"
    },
    {
      "channel": 4,
      "note": 62,
      "start": 28.1569,
      "duration": 0.1075,
      "velocity": 91,
      "chip": "ym2612"
    },
    {
      "channel": 2,
      "note": 56,
      "start": 28.158,
      "duration": 0.1015,
      "velocity": 116,
      "chip": "ym2612"
    },
    {
      "channel": 0,
      "note": 59,
      "start": 28.263,
      "duration": 0.4277,
      "velocity": 127,
      "chip": "ym2612"
    },
    {
      "channel": 1,
      "note": 62,
      "start": 28.2638,
      "duration": 0.1033,
      "velocity": 95,
      "chip": "ym2612"
    },
    {
      "channel": 4,
      "note": 50,
      "start": 28.265,
      "duration": 0.2127,
      "velocity": 91,
      "chip": "ym2612"
    },
    {
      "channel": 2,
      "note": 37,
      "start": 28.2661,
      "duration": 0.1198,
      "velocity": 120,
      "chip": "ym2612"
    },
    {
      "channel": 5,
      "note": 59,
      "start": 28.3326,
      "duration": 0.4285,
      "velocity": 127,
      "chip": "ym2612"
    },
    {
      "channel": 1,
      "note": 66,
      "start": 28.3677,
      "duration": 0.1092,
      "velocity": 95,
      "chip": "ym2612"
    },
    {
      "channel": 1,
      "note": 69,
      "start": 28.4775,
      "duration": 0.1064,
      "velocity": 95,
      "chip": "ym2612"
    },
    {
      "channel": 4,
      "note": 62,
      "start": 28.4783,
      "duration": 0.1064,
      "velocity": 91,
      "chip": "ym2612"
    },
    {
      "channel": 2,
      "note": 56,
      "start": 28.4794,
      "duration": 0.1013,
      "velocity": 116,
      "chip": "ym2612"
    },
    {
      "channel": 1,
      "note": 73,
      "start": 28.5845,
      "duration": 0.107,
      "velocity": 95,
      "chip": "ym2612"
    },
    {
      "channel": 4,
      "note": 62,
      "start": 28.5853,
      "duration": 0.1078,
      "velocity": 91,
      "chip": "ym2612"
    },
    {
      "channel": 2,
      "note": 56,
      "start": 28.5864,
      "duration": 0.1015,
      "velocity": 116,
      "chip": "ym2612"
    },
    {
      "channel": 0,
      "note": 62,
      "start": 28.6913,
      "duration": 0.4279,
      "velocity": 127,
      "chip": "ym2612"
    },
    {
      "channel": 1,
      "note": 78,
      "start": 28.692,
      "duration": 0.1035,
      "velocity": 95,
      "chip": "ym2612"
    },
    {
      "channel": 3,
      "note": 29,
      "start": 28.6928,
      "duration": 0.2132,
      "velocity": 120,
      "chip": "ym2612"
    },
    {
      "channel": 4,
      "note": 50,
      "start": 28.6937,
      "duration": 0.2126,
      "velocity": 91,
      "chip": "ym2612"
    },
    {
      "channel": 2,
      "note": 37,
      "start": 28.6948,
      "duration": 0.1199,
      "velocity": 120,
      "chip": "ym2612"
    },
    {
      "channel": 5,
      "note": 62,
      "start": 28.7616,
      "duration": 0.4271,
      "velocity": 127,
      "chip": "ym2612"
    },
    {
      "channel": 1,
      "note": 73,
      "start": 28.7961,
      "duration": 0.1091,
      "velocity": 95,
      "chip": "ym2612"
    },
    {
      "channel": 1,
      "note": 69,
      "start": 28.9058,
      "duration": 0.1066,
      "velocity": 95,
      "chip": "ym2612"
    },
    {
      "channel": 4,
      "note": 62,
      "start": 28.9068,
      "duration": 0.1063,
      "velocity": 91,
      "chip": "ym2612"
    },
    {
      "channel": 2,
      "note": 56,
      "start": 28.9079,
      "duration": 0.1012,
      "velocity": 116,
      "chip": "ym2612"
    },
    {
      "channel": 1,
      "note": 66,
      "start": 29.013,
      "duration": 0.107,
      "velocity": 95,
      "chip": "ym2612"
    },
    {
      "channel": 4,
      "note": 62,
      "start": 29.0138,
      "duration": 0.1074,
      "velocity": 91,
      "chip": "ym2612"
    },
    {
      "channel": 2,
      "note": 56,
      "start": 29.0149,
      "duration": 0.1015,
      "velocity": 116,
      "chip": "ym2612"
    },
    {
      "channel": 0,
      "note": 61,
      "start": 29.1197,
      "duration": 0.4279,
      "velocity": 127,
      "chip": "ym2612"
    },
    {
      "channel": 1,
      "note": 61,
      "start": 29.1205,
      "duration": 0.1034,
      "velocity": 95,
      "chip": "ym2612"
    },
    {
      "channel": 4,
      "note": 49,
      "start": 29.1218,
      "duration": 0.213,
      "velocity": 91,
      "chip": "ym2612"
    },
    {
      "channel": 2,
      "note": 37,
      "start": 29.1228,
      "duration": 0.12,
      "velocity": 120,
      "chip": "ym2612"
    },
    {
      "channel": 5,
      "note": 61,
      "start": 29.1894,
      "duration": 0.4282,
      "velocity": 127,
      "chip": "ym2612"
    },
    {
      "channel": 1,
      "note": 64,
      "start": 29.2245,
      "duration": 0.1095,
      "velocity": 95,
      "chip": "ym2612"
    },
    {
      "channel": 1,
      "note": 68,
      "start": 29.3345,
      "duration": 0.1062,
      "velocity": 95,
      "chip": "ym2612"
    },
    {
      "channel": 4,
      "note": 61,
      "start": 29.3354,
      "duration": 0.1062,
      "velocity": 91,
      "chip": "ym2612"
    },
    {
      "channel": 2,
      "note": 56,
      "start": 29.3364,
      "duration": 0.1011,
      "velocity": 116,
      "chip": "ym2612"
    },
    {
      "channel": 1,
      "note": 71,
      "start": 29.4413,
      "duration": 0.1071,
      "velocity": 95,
      "chip": "ym2612"
    },
    {
      "channel": 4,
      "note": 61,
      "start": 29.4421,
      "duration": 0.1078,
      "velocity": 91,
      "chip": "ym2612"
    },
    {
      "channel": 2,
      "note": 56,
      "start": 29.4432,
      "duration": 0.1016,
      "velocity": 116,
      "chip": "ym2612"
    },
    {
      "channel": 0,
      "note": 59,
      "start": 29.5481,
      "duration": 0.4279,
      "velocity": 127,
      "chip": "ym2612"
    },
    {
      "channel": 1,
      "note": 76,
      "start": 29.5489,
      "duration": 0.1034,
      "velocity": 95,
      "chip": "ym2612"
    },
    {
      "channel": 3,
      "note": 29,
      "start": 29.5497,
      "duration": 0.2131,
      "velocity": 120,
      "chip": "ym2612"
    },
    {
      "channel": 4,
      "note": 49,
      "start": 29.5505,
      "duration": 0.2126,
      "velocity": 91,
      "chip": "ym2612"
    },
    {
      "channel": 2,
      "note": 37,
      "start": 29.5516,
      "duration": 0.1199,
      "velocity": 120,
      "chip": "ym2612"
    },
    {
      "channel": 5,
      "note": 59,
      "start": 29.6181,
      "duration": 0.4276,
      "velocity": 127,
      "chip": "ym2612"
    },
    {
      "channel": 1,
      "note": 71,
      "start": 29.6529,
      "duration": 0.1092,
      "velocity": 95,
      "chip": "ym2612"
    },
    {
      "channel": 1,
      "note": 68,
      "start": 29.7627,
      "duration": 0.1065,
      "velocity": 95,
      "chip": "ym2612"
    },
    {
      "channel": 4,
      "note": 61,
      "start": 29.7637,
      "duration": 0.1062,
      "velocity": 91,
      "chip": "ym2612"
    },
    {
      "channel": 2,
      "note": 56,
      "start": 29.7648,
      "duration": 0.1012,
      "velocity": 116,
      "chip": "ym2612"
    },
    {
      "channel": 1,
      "note": 64,
      "start": 29.8697,
      "duration": 0.1071,
      "velocity": 95,
      "chip": "ym2612"
    },
    {
      "channel": 4,
      "note": 61,
      "start": 29.8705,
      "duration": 0.1076,
      "velocity": 91,
      "chip": "ym2612"
    },
    {
      "channel": 2,
      "note": 56,
      "start": 29.8716,
      "duration": 0.1015,
      "velocity": 116,
      "chip": "ym2612"
    },
    {
      "channel": 0,
      "note": 57,
      "start": 29.9766,
      "duration": 0.4279,
      "velocity": 127,
      "chip": "ym2612"
    },
    {
      "channel": 1,
      "note": 61,
      "start": 29.9774,
      "duration": 0.1033,
      "velocity": 95,
      "chip": "ym2612"
    },
    {
      "channel": 4,
      "note": 49,
      "start": 29.9787,
      "duration": 0.2126,
      "velocity": 91,
      "chip": "ym2612"
    },
    {
      "channel": 2,
      "note": 37,
      "start": 29.9798,
      "duration": 0.1198,
      "velocity": 120,
      "chip": "ym2612"
    },
    {
      "channel": 5,
      "note": 57,
      "start": 30.0462,
      "duration": 0.4284,
      "velocity": 127,
      "chip": "ym2612"
    },
    {
      "channel": 1,
      "note": 64,
      "start": 30.0813,
      "duration": 0.1092,
      "velocity": 95,
      "chip": "ym2612"
    },
    {
      "channel": 1,
      "note": 68,
      "start": 30.191,
      "duration": 0.1066,
      "velocity": 95,
      "chip": "ym2612"
    },
    {
      "channel": 4,
      "note": 61,
      "start": 30.1918,
      "duration": 0.1066,
      "velocity": 91,
      "chip": "ym2612"
    },
    {
      "channel": 2,
      "note": 56,
      "start": 30.1929,
      "duration": 0.1015,
      "velocity": 116,
      "chip": "ym2612"
    },
    {
      "channel": 1,
      "note": 71,
      "start": 30.2982,
      "duration": 0.107,
      "velocity": 95,
      "chip": "ym2612"
    },
    {
      "channel": 4,
      "note": 61,
      "start": 30.299,
      "duration": 0.1078,
      "velocity": 91,
      "chip": "ym2612"
    },
    {
      "channel": 2,
      "note": 56,
      "start": 30.3,
      "duration": 0.1016,
      "velocity": 116,
      "chip": "ym2612"
    },
    {
      "channel": 0,
      "note": 61,
      "start": 30.405,
      "duration": 0.4278,
      "velocity": 127,
      "chip": "ym2612"
    },
    {
      "channel": 1,
      "note": 76,
      "start": 30.4058,
      "duration": 0.1034,
      "velocity": 95,
      "chip": "ym2612"
    },
    {
      "channel": 3,
      "note": 29,
      "start": 30.4065,
      "duration": 0.2131,
      "velocity": 120,
      "chip": "ym2612"
    },
    {
      "channel": 4,
      "note": 49,
      "start": 30.4074,
      "duration": 0.2125,
      "velocity": 91,
      "chip": "ym2612"
    },
    {
      "channel": 2,
      "note": 37,
      "start": 30.4085,
      "duration": 0.1198,
      "velocity": 120,
      "chip": "ym2612"
    },
    {
      "channel": 5,
      "note": 61,
      "start": 30.4753,
      "duration": 0.4271,
      "velocity": 127,
      "chip": "ym2612"
    },
    {
      "channel": 1,
      "note": 71,
      "start": 30.5097,
      "duration": 0.1091,
      "velocity": 95,
      "chip": "ym2612"
    },
    {
      "channel": 1,
      "note": 68,
      "start": 30.6194,
      "duration": 0.1066,
      "velocity": 95,
      "chip": "ym2612"
    },
    {
      "channel": 4,
      "note": 61,
      "start": 30.6205,
      "duration": 0.1063,
      "velocity": 91,
      "chip": "ym2612"
    },
    {
      "channel": 2,
      "note": 56,
      "start": 30.6215,
      "duration": 0.1012,
      "velocity": 116,
      "chip": "ym2612"
    },
    {
      "channel": 1,
      "note": 64,
      "start": 30.7265,
      "duration": 0.1071,
      "velocity": 95,
      "chip": "ym2612"
    },
    {
      "channel": 4,
      "note": 61,
      "start": 30.7274,
      "duration": 0.1074,
      "velocity": 91,
      "chip": "ym2612"
    },
    {
      "channel": 2,
      "note": 56,
      "start": 30.7285,
      "duration": 0.1015,
      "velocity": 116,
      "chip": "ym2612"
    },
    {
      "channel": 0,
      "note": 59,
      "start": 30.8334,
      "duration": 1.4988,
      "velocity": 127,
      "chip": "ym2612"
    },
    {
      "channel": 1,
      "note": 59,
      "start": 30.8342,
      "duration": 0.1033,
      "velocity": 95,
      "chip": "ym2612"
    },
    {
      "channel": 4,
      "note": 47,
      "start": 30.8355,
      "duration": 0.213,
      "velocity": 91,
      "chip": "ym2612"
    },
    {
      "channel": 2,
      "note": 37,
      "start": 30.8365,
      "duration": 0.1198,
      "velocity": 120,
      "chip": "ym2612"
    },
    {
      "channel": 5,
      "note": 59,
      "start": 30.903,
      "duration": 1.4989,
      "velocity": 127,
      "chip": "ym2612"
    },
    {
      "channel": 1,
      "note": 62,
      "start": 30.9382,
      "duration": 0.1095,
      "velocity": 95,
      "chip": "ym2612"
    },
    {
      "channel": 1,
      "note": 66,
      "start": 31.0483,
      "duration": 0.106,
      "velocity": 95,
      "chip": "ym2612"
    },
    {
      "channel": 4,
      "note": 59,
      "start": 31.0491,
      "duration": 0.1061,
      "velocity": 91,
      "chip": "ym2612"
    },
    {
      "channel": 2,
      "note": 56,
      "start": 31.0502,
      "duration": 0.101,
      "velocity": 116,
      "chip": "ym2612"
    },
    {
      "channel": 1,
      "note": 69,
      "start": 31.1549,
      "duration": 0.1067,
      "velocity": 95,
      "chip": "ym2612"
    },
    {
      "channel": 4,
      "note": 59,
      "start": 31.1557,
      "duration": 0.1075,
      "velocity": 91,
      "chip": "ym2612"
    },
    {
      "channel": 2,
      "note": 56,
      "start": 31.1568,
      "duration": 0.1016,
      "velocity": 116,
      "chip": "ym2612"
    },
    {
      "channel": 1,
      "note": 74,
      "start": 31.2622,
      "duration": 0.1036,
      "velocity": 95,
      "chip": "ym2612"
    },
    {
      "channel": 3,
      "note": 29,
      "start": 31.263,
      "duration": 0.2134,
      "velocity": 120,
      "chip": "ym2612"
    },
    {
      "channel": 4,
      "note": 47,
      "start": 31.2638,
      "duration": 0.2129,
      "velocity": 91,
      "chip": "ym2612"
    },
    {
      "channel": 2,
      "note": 37,
      "start": 31.2649,
      "duration": 0.1202,
      "velocity": 120,
      "chip": "ym2612"
    },
    {
      "channel": 1,
      "note": 69,
      "start": 31.3664,
      "duration": 0.1092,
      "velocity": 95,
      "chip": "ym2612"
    },
    {
      "channel": 1,
      "note": 66,
      "start": 31.4762,
      "duration": 0.1066,
      "velocity": 95,
      "chip": "ym2612"
    },
    {
      "channel": 4,
      "note": 59,
      "start": 31.4773,
      "duration": 0.1063,
      "velocity": 91,
      "chip": "ym2612"
    },
    {
      "channel": 2,
      "note": 56,
      "start": 31.4784,
      "duration": 0.1012,
      "velocity": 116,
      "chip": "ym2612"
    },
    {
      "channel": 1,
      "note": 62,
      "start": 31.5834,
      "duration": 0.1066,
      "velocity": 95,
      "chip": "ym2612"
    },
    {
      "channel": 4,
      "note": 59,
      "start": 31.5842,
      "duration": 0.1071,
      "velocity": 91,
      "chip": "ym2612"
    },
    {
      "channel": 2,
      "note": 56,
      "start": 31.5853,
      "duration": 0.1015,
      "velocity": 116,
      "chip": "ym2612"
    },
    {
      "channel": 1,
      "note": 59,
      "start": 31.6906,
      "duration": 0.1038,
      "velocity": 95,
      "chip": "ym2612"
    },
    {
      "channel": 4,
      "note": 47,
      "start": 31.6918,
      "duration": 0.213,
      "velocity": 91,
      "chip": "ym2612"
    },
    {
      "channel": 2,
      "note": 37,
      "start": 31.6929,
      "duration": 0.1203,
      "velocity": 120,
      "chip": "ym2612"
    },
    {
      "channel": 1,
      "note": 62,
      "start": 31.795,
      "duration": 0.109,
      "velocity": 95,
      "chip": "ym2612"
    },
    {
      "channel": 1,
      "note": 66,
      "start": 31.9046,
      "duration": 0.1066,
      "velocity": 95,
      "chip": "ym2612"
    },
    {
      "channel": 4,
      "note": 59,
      "start": 31.9054,
      "duration": 0.1067,
      "velocity": 91,
      "chip": "ym2612"
    },
    {
      "channel": 2,
      "note": 56,
      "start": 31.9065,
      "duration": 0.1015,
      "velocity": 116,
      "chip": "ym2612"
    },
    {
      "channel": 1,
      "note": 69,
      "start": 32.0118,
      "duration": 0.1065,
      "velocity": 95,
      "chip": "ym2612"
    },
    {
      "channel": 4,
      "note": 59,
      "start": 32.0127,
      "duration": 0.1073,
      "velocity": 91,
      "chip": "ym2612"
    },
    {
      "channel": 2,
      "note": 56,
      "start": 32.0137,
      "duration": 0.1015,
      "velocity": 116,
      "chip": "ym2612"
    },
    {
      "channel": 1,
      "note": 74,
      "start": 32.1189,
      "duration": 0.1038,
      "velocity": 95,
      "chip": "ym2612"
    },
    {
      "channel": 3,
      "note": 29,
      "start": 32.1197,
      "duration": 0.2139,
      "velocity": 120,
      "chip": "ym2612"
    },
    {
      "channel": 4,
      "note": 47,
      "start": 32.1205,
      "duration": 0.2134,
      "velocity": 91,
      "chip": "ym2612"
    },
    {
      "channel": 2,
      "note": 37,
      "start": 32.1216,
      "duration": 0.1203,
      "velocity": 120,
      "chip": "ym2612"
    },
    {
      "channel": 1,
      "note": 69,
      "start": 32.2233,
      "duration": 0.1097,
      "velocity": 95,
      "chip": "ym2612"
    },
    {
      "channel": 0,
      "note": 61,
      "start": 32.3327,
      "duration": 0.1065,
      "velocity": 127,
      "chip": "ym2612"
    },
    {
      "channel": 1,
      "note": 66,
      "start": 32.3335,
      "duration": 0.1065,
      "velocity": 95,
      "chip": "ym2612"
    },
    {
      "channel": 4,
      "note": 59,
      "start": 32.3346,
      "duration": 0.1062,
      "velocity": 91,
      "chip": "ym2612"
    },
    {
      "channel": 2,
      "note": 56,
      "start": 32.3357,
      "duration": 0.1008,
      "velocity": 116,
      "chip": "ym2612"
    },
    {
      "channel": 5,
      "note": 61,
      "start": 32.4025,
      "duration": 0.1065,
      "velocity": 127,
      "chip": "ym2612"
    },
    {
      "channel": 0,
      "note": 62,
      "start": 32.4398,
      "duration": 0.1066,
      "velocity": 127,
      "chip": "ym2612"
    },
    {
      "channel": 1,
      "note": 62,
      "start": 32.4406,
      "duration": 0.1067,
      "velocity": 95,
      "chip": "ym2612"
    },
    {
      "channel": 4,
      "note": 59,
      "start": 32.4414,
      "duration": 0.1071,
      "velocity": 91,
      "chip": "ym2612"
    },
    {
      "channel": 2,
      "note": 56,
      "start": 32.4425,
      "duration": 0.1011,
      "velocity": 116,
      "chip": "ym2612"
    },
    {
      "channel": 5,
      "note": 62,
      "start": 32.5096,
      "duration": 0.1066,
      "velocity": 127,
      "chip": "ym2612"
    },
    {
      "channel": 0,
      "note": 64,
      "start": 32.547,
      "duration": 1.0703,
      "velocity": 127,
      "chip": "ym2612"
    },
    {
      "channel": 1,
      "note": 64,
      "start": 32.5478,
      "duration": 0.1032,
      "velocity": 95,
      "chip": "ym2612"
    },
    {
      "channel": 4,
      "note": 52,
      "start": 32.5491,
      "duration": 0.213,
      "velocity": 91,
      "chip": "ym2612"
    },
    {
      "channel": 2,
      "note": 37,
      "start": 32.5501,
      "duration": 0.1198,
      "velocity": 120,
      "chip": "ym2612"
    },
    {
      "channel": 5,
      "note": 64,
      "start": 32.6167,
      "duration": 1.0704,
      "velocity": 127,
      "chip": "ym2612"
    },
    {
      "channel": 1,
      "note": 68,
      "start": 32.6516,
      "duration": 0.1096,
      "velocity": 95,
      "chip": "ym2612"
    },
    {
      "channel": 1,
      "note": 71,
      "start": 32.7618,
      "duration": 0.1062,
      "velocity": 95,
      "chip": "ym2612"
    },
    {
      "channel": 4,
      "note": 64,
      "start": 32.7627,
      "duration": 0.1062,
      "velocity": 91,
      "chip": "ym2612"
    },
    {
      "channel": 2,
      "note": 56,
      "start": 32.7637,
      "duration": 0.1012,
      "velocity": 116,
      "chip": "ym2612"
    },
    {
      "channel": 1,
      "note": 76,
      "start": 32.8686,
      "duration": 0.1066,
      "velocity": 95,
      "chip": "ym2612"
    },
    {
      "channel": 4,
      "note": 64,
      "start": 32.8695,
      "duration": 0.1074,
      "velocity": 91,
      "chip": "ym2612"
    },
    {
      "channel": 2,
      "note": 56,
      "start": 32.8705,
      "duration": 0.1015,
      "velocity": 116,
      "chip": "ym2612"
    },
    {
      "channel": 1,
      "note": 80,
      "start": 32.9758,
      "duration": 0.1037,
      "velocity": 95,
      "chip": "ym2612"
    },
    {
      "channel": 3,
      "note": 29,
      "start": 32.9766,
      "duration": 0.2135,
      "velocity": 120,
      "chip": "ym2612"
    },
    {
      "channel": 4,
      "note": 52,
      "start": 32.9775,
      "duration": 0.2129,
      "velocity": 91,
      "chip": "ym2612"
    },
    {
      "channel": 2,
      "note": 37,
      "start": 32.9785,
      "duration": 0.1202,
      "velocity": 120,
      "chip": "ym2612"
    },
    {
      "channel": 1,
      "note": 76,
      "start": 33.0801,
      "duration": 0.1092,
      "velocity": 95,
      "chip": "ym2612"
    },
    {
      "channel": 1,
      "note": 71,
      "start": 33.1899,
      "duration": 0.1066,
      "velocity": 95,
      "chip": "ym2612"
    },
    {
      "channel": 4,
      "note": 64,
      "start": 33.191,
      "duration": 0.1063,
      "velocity": 91,
      "chip": "ym2612"
    },
    {
      "channel": 2,
      "note": 56,
      "start": 33.192,
      "duration": 0.1012,
      "velocity": 116,
      "chip": "ym2612"
    },
    {
      "channel": 1,
      "note": 68,
      "start": 33.2971,
      "duration": 0.1066,
      "velocity": 95,
      "chip": "ym2612"
    },
    {
      "channel": 4,
      "note": 64,
      "start": 33.2979,
      "duration": 0.107,
      "velocity": 91,
      "chip": "ym2612"
    },
    {
      "channel": 2,
      "note": 56,
      "start": 33.299,
      "duration": 0.1014,
      "velocity": 116,
      "chip": "ym2612"
    },
    {
      "channel": 1,
      "note": 64,
      "start": 33.4042,
      "duration": 0.1037,
      "velocity": 95,
      "chip": "ym2612"
    },
    {
      "channel": 4,
      "note": 52,
      "start": 33.4055,
      "duration": 0.2135,
      "velocity": 91,
      "chip": "ym2612"
    },
    {
      "channel": 2,
      "note": 37,
      "start": 33.4065,
      "duration": 0.1202,
      "velocity": 120,
      "chip": "ym2612"
    },
    {
      "channel": 1,
      "note": 68,
      "start": 33.5086,
      "duration": 0.1095,
      "velocity": 95,
      "chip": "ym2612"
    },
    {
      "channel": 0,
      "note": 62,
      "start": 33.618,
      "duration": 0.2136,
      "velocity": 127,
      "chip": "ym2612"
    },
    {
      "channel": 1,
      "note": 71,
      "start": 33.6187,
      "duration": 0.1061,
      "velocity": 95,
      "chip": "ym2612"
    },
    {
      "channel": 4,
      "note": 64,
      "start": 33.6195,
      "duration": 0.1061,
      "velocity": 91,
      "chip": "ym2612"
    },
    {
      "channel": 2,
      "note": 56,
      "start": 33.6206,
      "duration": 0.1011,
      "velocity": 116,
      "chip": "ym2612"
    },
    {
      "channel": 5,
      "note": 62,
      "start": 33.6877,
      "duration": 0.2142,
      "velocity": 127,
      "chip": "ym2612"
    },
    {
      "channel": 1,
      "note": 76,
      "start": 33.7254,
      "duration": 0.107,
      "velocity": 95,
      "chip": "ym2612"
    },
    {
      "channel": 4,
      "note": 64,
      "start": 33.7262,
      "duration": 0.1078,
      "velocity": 91,
      "chip": "ym2612"
    },
    {
      "channel": 2,
      "note": 56,
      "start": 33.7273,
      "duration": 0.1015,
      "velocity": 116,
      "chip": "ym2612"
    },
    {
      "channel": 0,
      "note": 61,
      "start": 33.8322,
      "duration": 0.2136,
      "velocity": 127,
      "chip": "ym2612"
    },
    {
      "channel": 1,
      "note": 80,
      "start": 33.8329,
      "duration": 0.1034,
      "velocity": 95,
      "chip": "ym2612"
    },
    {
      "channel": 3,
      "note": 29,
      "start": 33.8337,
      "duration": 0.2136,
      "velocity": 120,
      "chip": "ym2612"
    },
    {
      "channel": 4,
      "note": 52,
      "start": 33.8345,
      "duration": 0.1029,
      "velocity": 91,
      "chip": "ym2612"
    },
    {
      "channel": 2,
      "note": 37,
      "start": 33.8356,
      "duration": 0.1199,
      "velocity": 120,
      "chip": "ym2612"
    },
    {
      "channel": 5,
      "note": 61,
      "start": 33.9025,
      "duration": 0.2129,
      "velocity": 127,
      "chip": "ym2612"
    },
    {
      "channel": 1,
      "note": 76,
      "start": 33.9369,
      "duration": 0.1095,
      "velocity": 95,
      "chip": "ym2612"
    },
    {
      "channel": 4,
      "note": 64,
      "start": 33.938,
      "duration": 0.1095,
      "velocity": 91,
      "chip": "ym2612"
    },
    {
      "channel": 0,
      "note": 59,
      "start": 34.0464,
      "duration": 0.2139,
      "velocity": 127,
      "chip": "ym2612"
    },
    {
      "channel": 1,
      "note": 71,
      "start": 34.0471,
      "duration": 0.1062,
      "velocity": 95,
      "chip": "ym2612"
    },
    {
      "channel": 4,
      "note": 52,
      "start": 34.0481,
      "duration": 0.1059,
      "velocity": 91,
      "chip": "ym2612"
    },
    {
      "channel": 2,
      "note": 56,
      "start": 34.0492,
      "duration": 0.1008,
      "velocity": 116,
      "chip": "ym2612"
    },
    {
      "channel": 5,
      "note": 59,
      "start": 34.116,
      "duration": 0.2139,
      "velocity": 127,
      "chip": "ym2612"
    },
    {
      "channel": 1,
      "note": 68,
      "start": 34.1538,
      "duration": 0.1074,
      "velocity": 95,
      "chip": "ym2612"
    },
    {
      "channel": 4,
      "note": 64,
      "start": 34.1546,
      "duration": 0.1078,
      "velocity": 91,
      "chip": "ym2612"
    },
    {
      "channel": 2,
      "note": 56,
      "start": 34.1557,
      "duration": 0.1016,
      "velocity": 116,
      "chip": "ym2612"
    },
    {
      "channel": 0,
      "note": 57,
      "start": 34.2609,
      "duration": 0.6417,
      "velocity": 127,
      "chip": "ym2612"
    },
    {
      "channel": 1,
      "note": 69,
      "start": 34.2618,
      "duration": 0.103,
      "velocity": 95,
      "chip": "ym2612"
    },
    {
      "channel": 4,
      "note": 57,
      "start": 34.263,
      "duration": 0.2127,
      "velocity": 91,
      "chip": "ym2612"
    },
    {
      "channel": 2,
      "note": 37,
      "start": 34.2641,
      "duration": 0.1196,
      "velocity": 120,
      "chip": "ym2612"
    },
    {
      "channel": 5,
      "note": 57,
      "start": 34.3305,
      "duration": 0.6418,
      "velocity": 127,
      "chip": "ym2612"
    },
    {
      "channel": 1,
      "note": 73,
      "start": 34.3654,
      "duration": 0.1095,
      "velocity": 95,
      "chip": "ym2612"
    },
    {
      "channel": 1,
      "note": 76,
      "start": 34.4755,
      "duration": 0.1061,
      "velocity": 95,
      "chip": "ym2612"
    },
    {
      "channel": 4,
      "note": 69,
      "start": 34.4763,
      "duration": 0.1061,
      "velocity": 91,
      "chip": "ym2612"
    },
    {
      "channel": 2,
      "note": 56,
      "start": 34.4774,
      "duration": 0.101,
      "velocity": 116,
      "chip": "ym2612"
    },
    {
      "channel": 1,
      "note": 81,
      "start": 34.5822,
      "duration": 0.1066,
      "velocity": 95,
      "chip": "ym2612"
    },
    {
      "channel": 4,
      "note": 69,
      "start": 34.583,
      "duration": 0.1075,
      "velocity": 91,
      "chip": "ym2612"
    },
    {
      "channel": 2,
      "note": 56,
      "start": 34.5841,
      "duration": 0.1016,
      "velocity": 116,
      "chip": "ym2612"
    },
    {
      "channel": 1,
      "note": 85,
      "start": 34.6894,
      "duration": 0.1037,
      "velocity": 95,
      "chip": "ym2612"
    },
    {
      "channel": 3,
      "note": 29,
      "start": 34.6902,
      "duration": 0.2139,
      "velocity": 120,
      "chip": "ym2612"
    },
    {
      "channel": 4,
      "note": 57,
      "start": 34.6911,
      "duration": 0.2133,
      "velocity": 91,
      "chip": "ym2612"
    },
    {
      "channel": 2,
      "note": 37,
      "start": 34.6921,
      "duration": 0.1203,
      "velocity": 120,
      "chip": "ym2612"
    },
    {
      "channel": 1,
      "note": 81,
      "start": 34.7938,
      "duration": 0.1095,
      "velocity": 95,
      "chip": "ym2612"
    },
    {
      "channel": 0,
      "note": 61,
      "start": 34.9032,
      "duration": 0.1065,
      "velocity": 127,
      "chip": "ym2612"
    },
    {
      "channel": 1,
      "note": 76,
      "start": 34.9039,
      "duration": 0.1066,
      "velocity": 95,
      "chip": "ym2612"
    },
    {
      "channel": 4,
      "note": 69,
      "start": 34.9049,
      "duration": 0.1064,
      "velocity": 91,
      "chip": "ym2612"
    },
    {
      "channel": 2,
      "note": 56,
      "start": 34.906,
      "duration": 0.1008,
      "velocity": 116,
      "chip": "ym2612"
    },
    {
      "channel": 5,
      "note": 61,
      "start": 34.9729,
      "duration": 0.1066,
      "velocity": 127,
      "chip": "ym2612"
    },
    {
      "channel": 0,
      "note": 64,
      "start": 35.0103,
      "duration": 0.1067,
      "velocity": 127,
      "chip": "ym2612"
    },
    {
      "channel": 1,
      "note": 73,
      "start": 35.0111,
      "duration": 0.1067,
      "velocity": 95,
      "chip": "ym2612"
    },
    {
      "channel": 4,
      "note": 69,
      "start": 35.0119,
      "duration": 0.1072,
      "velocity": 91,
      "chip": "ym2612"
    },
    {
      "channel": 2,
      "note": 56,
      "start": 35.013,
      "duration": 0.1011,
      "velocity": 116,
      "chip": "ym2612"
    },
    {
      "channel": 5,
      "note": 64,
      "start": 35.0801,
      "duration": 0.1065,
      "velocity": 127,
      "chip": "ym2612"
    },
    {
      "channel": 0,
      "note": 69,
      "start": 35.1176,
      "duration": 0.8561,
      "velocity": 127,
      "chip": "ym2612"
    },
    {
      "channel": 1,
      "note": 69,
      "start": 35.1184,
      "duration": 0.1032,
      "velocity": 95,
      "chip": "ym2612"
    },
    {
      "channel": 4,
      "note": 57,
      "start": 35.1196,
      "duration": 0.2125,
      "velocity": 91,
      "chip": "ym2612"
    },
    {
      "channel": 2,
      "note": 37,
      "start": 35.1207,
      "duration": 0.1197,
      "velocity": 120,
      "chip": "ym2612"
    },
    {
      "channel": 5,
      "note": 69,
      "start": 35.1872,
      "duration": 0.8562,
      "velocity": 127,
      "chip": "ym2612"
    },
    {
      "channel": 1,
      "note": 73,
      "start": 35.2222,
      "duration": 0.1091,
      "velocity": 95,
      "chip": "ym2612"
    },
    {
      "channel": 1,
      "note": 76,
      "start": 35.3319,
      "duration": 0.1066,
      "velocity": 95,
      "chip": "ym2612"
    },
    {
      "channel": 4,
      "note": 69,
      "start": 35.3327,
      "duration": 0.1066,
      "velocity": 91,
      "chip": "ym2612"
    },
    {
      "channel": 2,
      "note": 56,
      "start": 35.3338,
      "duration": 0.1015,
      "velocity": 116,
      "chip": "ym2612"
    },
    {
      "channel": 1,
      "note": 81,
      "start": 35.4391,
      "duration": 0.1066,
      "velocity": 95,
      "chip": "ym2612"
    },
    {
      "channel": 4,
      "note": 69,
      "start": 35.4399,
      "duration": 0.1074,
      "velocity": 91,
      "chip": "ym2612"
    },
    {
      "channel": 2,
      "note": 56,
      "start": 35.441,
      "duration": 0.1015,
      "velocity": 116,
      "chip": "ym2612"
    },
    {
      "channel": 1,
      "note": 85,
      "start": 35.5464,
      "duration": 0.1036,
      "velocity": 95,
      "chip": "ym2612"
    },
    {
      "channel": 3,
      "note": 29,
      "start": 35.5471,
      "duration": 0.2134,
      "velocity": 120,
      "chip": "ym2612"
    },
    {
      "channel": 4,
      "note": 57,
      "start": 35.548,
      "duration": 0.2128,
      "velocity": 91,
      "chip": "ym2612"
    },
    {
      "channel": 2,
      "note": 37,
      "start": 35.549,
      "duration": 0.1202,
      "velocity": 120,
      "chip": "ym2612"
    },
    {
      "channel": 1,
      "note": 81,
      "start": 35.6506,
      "duration": 0.1092,
      "velocity": 95,
      "chip": "ym2612"
    },
    {
      "channel": 1,
      "note": 76,
      "start": 35.7604,
      "duration": 0.1066,
      "velocity": 95,
      "chip": "ym2612"
    },
    {
      "channel": 4,
      "note": 69,
      "start": 35.7614,
      "duration": 0.1063,
      "velocity": 91,
      "chip": "ym2612"
    },
    {
      "channel": 2,
      "note": 56,
      "start": 35.7625,
      "duration": 0.1012,
      "velocity": 116,
      "chip": "ym2612"
    },
    {
      "channel": 1,
      "note": 73,
      "start": 35.8675,
      "duration": 0.107,
      "velocity": 95,
      "chip": "ym2612"
    },
    {
      "channel": 4,
      "note": 69,
      "start": 35.8683,
      "duration": 0.1075,
      "velocity": 91,
      "chip": "ym2612"
    },
    {
      "channel": 2,
      "note": 56,
      "start": 35.8694,
      "duration": 0.1015,
      "velocity": 116,
      "chip": "ym2612"
    },
    {
      "channel": 0,
      "note": 68,
      "start": 35.9743,
      "duration": 0.6419,
      "velocity": 127,
      "chip": "ym2612"
    },
    {
      "channel": 1,
      "note": 68,
      "start": 35.9751,
      "duration": 0.1033,
      "velocity": 95,
      "chip": "ym2612"
    },
    {
      "channel": 4,
      "note": 56,
      "start": 35.9763,
      "duration": 0.213,
      "velocity": 91,
      "chip": "ym2612"
    },
    {
      "channel": 2,
      "note": 37,
      "start": 35.9775,
      "duration": 0.1199,
      "velocity": 120,
      "chip": "ym2612"
    },
    {
      "channel": 5,
      "note": 68,
      "start": 36.044,
      "duration": 0.642,
      "velocity": 127,
      "chip": "ym2612"
    },
    {
      "channel": 1,
      "note": 73,
      "start": 36.079,
      "duration": 0.1095,
      "velocity": 95,
      "chip": "ym2612"
    },
    {
      "channel": 1,
      "note": 76,
      "start": 36.1891,
      "duration": 0.1062,
      "velocity": 95,
      "chip": "ym2612"
    },
    {
      "channel": 4,
      "note": 68,
      "start": 36.1899,
      "duration": 0.1062,
      "velocity": 91,
      "chip": "ym2612"
    },
    {
      "channel": 2,
      "note": 56,
      "start": 36.191,
      "duration": 0.1011,
      "velocity": 116,
      "chip": "ym2612"
    },
    {
      "channel": 1,
      "note": 80,
      "start": 36.2959,
      "duration": 0.1066,
      "velocity": 95,
      "chip": "ym2612"
    },
    {
      "channel": 4,
      "note": 68,
      "start": 36.2967,
      "duration": 0.1074,
      "velocity": 91,
      "chip": "ym2612"
    },
    {
      "channel": 2,
      "note": 56,
      "start": 36.2978,
      "duration": 0.1015,
      "velocity": 116,
      "chip": "ym2612"
    },
    {
      "channel": 1,
      "note": 85,
      "start": 36.403,
      "duration": 0.1038,
      "velocity": 95,
      "chip": "ym2612"
    },
    {
      "channel": 3,
      "note": 29,
      "start": 36.4039,
      "duration": 0.2138,
      "velocity": 120,
      "chip": "ym2612"
    },
    {
      "channel": 4,
      "note": 56,
      "start": 36.4047,
      "duration": 0.2133,
      "velocity": 91,
      "chip": "ym2612"
    },
    {
      "channel": 2,
      "note": 37,
      "start": 36.4057,
      "duration": 0.1203,
      "velocity": 120,
      "chip": "ym2612"
    },
    {
      "channel": 1,
      "note": 80,
      "start": 36.5074,
      "duration": 0.1095,
      "velocity": 95,
      "chip": "ym2612"
    },
    {
      "channel": 0,
      "note": 56,
      "start": 36.6168,
      "duration": 1.0706,
      "velocity": 127,
      "chip": "ym2612"
    },
    {
      "channel": 1,
      "note": 76,
      "start": 36.6176,
      "duration": 0.106,
      "velocity": 95,
      "chip": "ym2612"
    },
    {
      "channel": 4,
      "note": 68,
      "start": 36.6186,
      "duration": 0.1059,
      "velocity": 91,
      "chip": "ym2612"
    },
    {
      "channel": 2,
      "note": 56,
      "start": 36.6196,
      "duration": 0.1008,
      "velocity": 116,
      "chip": "ym2612"
    },
    {
      "channel": 5,
      "note": 56,
      "start": 36.6866,
      "duration": 1.0704,
      "velocity": 127,
      "chip": "ym2612"
    },
    {
      "channel": 1,
      "note": 73,
      "start": 36.7242,
      "duration": 0.1068,
      "velocity": 95,
      "chip": "ym2612"
    },
    {
      "channel": 4,
      "note": 68,
      "start": 36.7251,
      "duration": 0.1073,
      "velocity": 91,
      "chip": "ym2612"
    },
    {
      "channel": 2,
      "note": 56,
      "start": 36.7261,
      "duration": 0.1017,
      "velocity": 116,
      "chip": "ym2612"
    },
    {
      "channel": 1,
      "note": 68,
      "start": 36.8316,
      "duration": 0.1036,
      "velocity": 95,
      "chip": "ym2612"
    },
    {
      "channel": 4,
      "note": 56,
      "start": 36.8329,
      "duration": 0.213,
      "velocity": 91,
      "chip": "ym2612"
    },
    {
      "channel": 2,
      "note": 37,
      "start": 36.834,
      "duration": 0.1202,
      "velocity": 120,
      "chip": "ym2612"
    },
    {
      "channel": 1,
      "note": 73,
      "start": 36.9357,
      "duration": 0.1093,
      "velocity": 95,
      "chip": "ym2612"
    },
    {
      "channel": 1,
      "note": 76,
      "start": 37.0457,
      "duration": 0.1063,
      "velocity": 95,
      "chip": "ym2612"
    },
    {
      "channel": 4,
      "note": 68,
      "start": 37.0465,
      "duration": 0.1064,
      "velocity": 91,
      "chip": "ym2612"
    },
    {
      "channel": 2,
      "note": 56,
      "start": 37.0476,
      "duration": 0.1013,
      "velocity": 116,
      "chip": "ym2612"
    },
    {
      "channel": 1,
      "note": 80,
      "start": 37.1527,
      "duration": 0.1067,
      "velocity": 95,
      "chip": "ym2612"
    },
    {
      "channel": 4,
      "note": 68,
      "start": 37.1535,
      "duration": 0.1075,
      "velocity": 91,
      "chip": "ym2612"
    },
    {
      "channel": 2,
      "note": 56,
      "start": 37.1546,
      "duration": 0.1016,
      "velocity": 116,
      "chip": "ym2612"
    },
    {
      "channel": 1,
      "note": 85,
      "start": 37.2599,
      "duration": 0.1037,
      "velocity": 95,
      "chip": "ym2612"
    },
    {
      "channel": 3,
      "note": 29,
      "start": 37.2608,
      "duration": 0.2133,
      "velocity": 120,
      "chip": "ym2612"
    },
    {
      "channel": 4,
      "note": 56,
      "start": 37.2616,
      "duration": 0.2128,
      "velocity": 91,
      "chip": "ym2612"
    },
    {
      "channel": 2,
      "note": 37,
      "start": 37.2627,
      "duration": 0.1202,
      "velocity": 120,
      "chip": "ym2612"
    },
    {
      "channel": 1,
      "note": 80,
      "start": 37.3642,
      "duration": 0.1092,
      "velocity": 95,
      "chip": "ym2612"
    },
    {
      "channel": 1,
      "note": 76,
      "start": 37.4739,
      "duration": 0.1066,
      "velocity": 95,
      "chip": "ym2612"
    },
    {
      "channel": 4,
      "note": 68,
      "start": 37.475,
      "duration": 0.1064,
      "velocity": 91,
      "chip": "ym2612"
    },
    {
      "channel": 2,
      "note": 56,
      "start": 37.4761,
      "duration": 0.1013,
      "velocity": 116,
      "chip": "ym2612"
    },
    {
      "channel": 1,
      "note": 73,
      "start": 37.5811,
      "duration": 0.1071,
      "velocity": 95,
      "chip": "ym2612"
    },
    {
      "channel": 4,
      "note": 68,
      "start": 37.5819,
      "duration": 0.1075,
      "velocity": 91,
      "chip": "ym2612"
    },
    {
      "channel": 2,
      "note": 56,
      "start": 37.583,
      "duration": 0.1016,
      "velocity": 116,
      "chip": "ym2612"
    },
    {
      "channel": 0,
      "note": 54,
      "start": 37.688,
      "duration": 0.6419,
      "velocity": 127,
      "chip": "ym2612"
    },
    {
      "channel": 1,
      "note": 66,
      "start": 37.6888,
      "duration": 0.1032,
      "velocity": 95,
      "chip": "ym2612"
    },
    {
      "channel": 4,
      "note": 54,
      "start": 37.6901,
      "duration": 0.2129,
      "velocity": 91,
      "chip": "ym2612"
    },
    {
      "channel": 2,
      "note": 37,
      "start": 37.6911,
      "duration": 0.1198,
      "velocity": 120,
      "chip": "ym2612"
    },
    {
      "channel": 5,
      "note": 54,
      "start": 37.7576,
      "duration": 0.642,
      "velocity": 127,
      "chip": "ym2612"
    },
    {
      "channel": 1,
      "note": 69,
      "start": 37.7926,
      "duration": 0.1095,
      "velocity": 95,
      "chip": "ym2612"
    },
    {
      "channel": 1,
      "note": 73,
      "start": 37.9027,
      "duration": 0.1061,
      "velocity": 95,
      "chip": "ym2612"
    },
    {
      "channel": 4,
      "note": 66,
      "start": 37.9036,
      "duration": 0.1062,
      "velocity": 91,
      "chip": "ym2612"
    },
    {
      "channel": 2,
      "note": 56,
      "start": 37.9046,
      "duration": 0.1011,
      "velocity": 116,
      "chip": "ym2612"
    },
    {
      "channel": 1,
      "note": 78,
      "start": 38.0095,
      "duration": 0.1066,
      "velocity": 95,
      "chip": "ym2612"
    },
    {
      "channel": 4,
      "note": 66,
      "start": 38.0103,
      "duration": 0.1074,
      "velocity": 91,
      "chip": "ym2612"
    },
    {
      "channel": 2,
      "note": 56,
      "start": 38.0114,
      "duration": 0.1016,
      "velocity": 116,
      "chip": "ym2612"
    },
    {
      "channel": 1,
      "note": 81,
      "start": 38.1167,
      "duration": 0.1037,
      "velocity": 95,
      "chip": "ym2612"
    },
    {
      "channel": 3,
      "note": 29,
      "start": 38.1175,
      "duration": 0.2139,
      "velocity": 120,
      "chip": "ym2612"
    },
    {
      "channel": 4,
      "note": 54,
      "start": 38.1183,
      "duration": 0.2134,
      "velocity": 91,
      "chip": "ym2612"
    },
    {
      "channel": 2,
      "note": 37,
      "start": 38.1194,
      "duration": 0.1202,
      "velocity": 120,
      "chip": "ym2612"
    },
    {
      "channel": 1,
      "note": 78,
      "start": 38.221,
      "duration": 0.1095,
      "velocity": 95,
      "chip": "ym2612"
    },
    {
      "channel": 0,
      "note": 57,
      "start": 38.3305,
      "duration": 0.1065,
      "velocity": 127,
      "chip": "ym2612"
    },
    {
      "channel": 1,
      "note": 73,
      "start": 38.3312,
      "duration": 0.1064,
      "velocity": 95,
      "chip": "ym2612"
    },
    {
      "channel": 4,
      "note": 66,
      "start": 38.3322,
      "duration": 0.1062,
      "velocity": 91,
      "chip": "ym2612"
    },
    {
      "channel": 2,
      "note": 56,
      "start": 38.3333,
      "duration": 0.1008,
      "velocity": 116,
      "chip": "ym2612"
    },
    {
      "channel": 5,
      "note": 57,
      "start": 38.4002,
      "duration": 0.1065,
      "velocity": 127,
      "chip": "ym2612"
    },
    {
      "channel": 0,
      "note": 61,
      "start": 38.4375,
      "duration": 0.1067,
      "velocity": 127,
      "chip": "ym2612"
    },
    {
      "channel": 1,
      "note": 69,
      "start": 38.4383,
      "duration": 0.1068,
      "velocity": 95,
      "chip": "ym2612"
    },
    {
      "channel": 4,
      "note": 66,
      "start": 38.439,
      "duration": 0.1073,
      "velocity": 91,
      "chip": "ym2612"
    },
    {
      "channel": 2,
      "note": 56,
      "start": 38.4401,
      "duration": 0.1012,
      "velocity": 116,
      "chip": "ym2612"
    },
    {
      "channel": 5,
      "note": 61,
      "start": 38.5072,
      "duration": 0.1066,
      "velocity": 127,
      "chip": "ym2612"
    },
    {
      "channel": 0,
      "note": 66,
      "start": 38.5448,
      "duration": 0.8562,
      "velocity": 127,
      "chip": "ym2612"
    },
    {
      "channel": 1,
      "note": 66,
      "start": 38.5457,
      "duration": 0.1032,
      "velocity": 95,
      "chip": "ym2612"
    },
    {
      "channel": 4,
      "note": 54,
      "start": 38.5469,
      "duration": 0.2126,
      "velocity": 91,
      "chip": "ym2612"
    },
    {
      "channel": 2,
      "note": 37,
      "start": 38.548,
      "duration": 0.1198,
      "velocity": 120,
      "chip": "ym2612"
    },
    {
      "channel": 5,
      "note": 66,
      "start": 38.6144,
      "duration": 0.8562,
      "velocity": 127,
      "chip": "ym2612"
    },
    {
      "channel": 1,
      "note": 69,
      "start": 38.6494,
      "duration": 0.1092,
      "velocity": 95,
      "chip": "ym2612"
    },
    {
      "channel": 1,
      "note": 73,
      "start": 38.7592,
      "duration": 0.1065,
      "velocity": 95,
      "chip": "ym2612"
    },
    {
      "channel": 4,
      "note": 66,
      "start": 38.76,
      "duration": 0.1065,
      "velocity": 91,
      "chip": "ym2612"
    },
    {
      "channel": 2,
      "note": 56,
      "start": 38.7612,
      "duration": 0.1013,
      "velocity": 116,
      "chip": "ym2612"
    },
    {
      "channel": 1,
      "note": 78,
      "start": 38.8663,
      "duration": 0.1067,
      "velocity": 95,
      "chip": "ym2612"
    },
    {
      "channel": 4,
      "note": 66,
      "start": 38.8671,
      "duration": 0.1075,
      "velocity": 91,
      "chip": "ym2612"
    },
    {
      "channel": 2,
      "note": 56,
      "start": 38.8682,
      "duration": 0.1017,
      "velocity": 116,
      "chip": "ym2612"
    },
    {
      "channel": 1,
      "note": 81,
      "start": 38.9736,
      "duration": 0.1038,
      "velocity": 95,
      "chip": "ym2612"
    },
    {
      "channel": 3,
      "note": 29,
      "start": 38.9744,
      "duration": 0.2134,
      "velocity": 120,
      "chip": "ym2612"
    },
    {
      "channel": 4,
      "note": 54,
      "start": 38.9752,
      "duration": 0.2129,
      "velocity": 91,
      "chip": "ym2612"
    },
    {
      "channel": 2,
      "note": 37,
      "start": 38.9763,
      "duration": 0.1202,
      "velocity": 120,
      "chip": "ym2612"
    },
    {
      "channel": 1,
      "note": 78,
      "start": 39.078,
      "duration": 0.109,
      "velocity": 95,
      "chip": "ym2612"
    },
    {
      "channel": 1,
      "note": 73,
      "start": 39.1876,
      "duration": 0.1066,
      "velocity": 95,
      "chip": "ym2612"
    },
    {
      "channel": 4,
      "note": 66,
      "start": 39.1887,
      "duration": 0.1063,
      "velocity": 91,
      "chip": "ym2612"
    },
    {
      "channel": 2,
      "note": 56,
      "start": 39.1898,
      "duration": 0.1012,
      "velocity": 116,
      "chip": "ym2612"
    },
    {
      "channel": 1,
      "note": 69,
      "start": 39.2947,
      "duration": 0.1071,
      "velocity": 95,
      "chip": "ym2612"
    },
    {
      "channel": 4,
      "note": 66,
      "start": 39.2955,
      "duration": 0.1076,
      "velocity": 91,
      "chip": "ym2612"
    },
    {
      "channel": 2,
      "note": 56,
      "start": 39.2966,
      "duration": 0.1016,
      "velocity": 116,
      "chip": "ym2612"
    },
    {
      "channel": 0,
      "note": 64,
      "start": 39.4016,
      "duration": 1.3889,
      "velocity": 127,
      "chip": "ym2612"
    },
    {
      "channel": 1,
      "note": 64,
      "start": 39.4025,
      "duration": 0.1032,
      "velocity": 95,
      "chip": "ym2612"
    },
    {
      "channel": 4,
      "note": 52,
      "start": 39.4037,
      "duration": 0.213,
      "velocity": 91,
      "chip": "ym2612"
    },
    {
      "channel": 2,
      "note": 37,
      "start": 39.4048,
      "duration": 0.1198,
      "velocity": 120,
      "chip": "ym2612"
    },
    {
      "channel": 5,
      "note": 64,
      "start": 39.4713,
      "duration": 1.392,
      "velocity": 127,
      "chip": "ym2612"
    },
    {
      "channel": 1,
      "note": 69,
      "start": 39.5063,
      "duration": 0.1095,
      "velocity": 95,
      "chip": "ym2612"
    },
    {
      "channel": 1,
      "note": 73,
      "start": 39.6164,
      "duration": 0.1062,
      "velocity": 95,
      "chip": "ym2612"
    },
    {
      "channel": 4,
      "note": 64,
      "start": 39.6172,
      "duration": 0.1062,
      "velocity": 91,
      "chip": "ym2612"
    },
    {
      "channel": 2,
      "note": 56,
      "start": 39.6183,
      "duration": 0.1011,
      "velocity": 116,
      "chip": "ym2612"
    },
    {
      "channel": 1,
      "note": 76,
      "start": 39.7232,
      "duration": 0.1066,
      "velocity": 95,
      "chip": "ym2612"
    },
    {
      "channel": 4,
      "note": 64,
      "start": 39.724,
      "duration": 0.1074,
      "velocity": 91,
      "chip": "ym2612"
    },
    {
      "channel": 2,
      "note": 56,
      "start": 39.7251,
      "duration": 0.1015,
      "velocity": 116,
      "chip": "ym2612"
    },
    {
      "channel": 1,
      "note": 81,
      "start": 39.8304,
      "duration": 0.1037,
      "velocity": 95,
      "chip": "ym2612"
    },
    {
      "channel": 3,
      "note": 29,
      "start": 39.8312,
      "duration": 0.2134,
      "velocity": 120,
      "chip": "ym2612"
    },
    {
      "channel": 4,
      "note": 52,
      "start": 39.832,
      "duration": 0.2129,
      "velocity": 91,
      "chip": "ym2612"
    },
    {
      "channel": 2,
      "note": 37,
      "start": 39.8331,
      "duration": 0.1202,
      "velocity": 120,
      "chip": "ym2612"
    },
    {
      "channel": 1,
      "note": 76,
      "start": 39.9347,
      "duration": 0.1092,
      "velocity": 95,
      "chip": "ym2612"
    },
    {
      "channel": 1,
      "note": 73,
      "start": 40.0444,
      "duration": 0.1065,
      "velocity": 95,
      "chip": "ym2612"
    },
    {
      "channel": 4,
      "note": 64,
      "start": 40.0455,
      "duration": 0.1062,
      "velocity": 91,
      "chip": "ym2612"
    },
    {
      "channel": 2,
      "note": 56,
      "start": 40.0466,
      "duration": 0.1011,
      "velocity": 116,
      "chip": "ym2612"
    },
    {
      "channel": 1,
      "note": 69,
      "start": 40.1515,
      "duration": 0.1067,
      "velocity": 95,
      "chip": "ym2612"
    },
    {
      "channel": 4,
      "note": 64,
      "start": 40.1523,
      "duration": 0.1071,
      "velocity": 91,
      "chip": "ym2612"
    },
    {
      "channel": 2,
      "note": 56,
      "start": 40.1534,
      "duration": 0.1015,
      "velocity": 116,
      "chip": "ym2612"
    },
    {
      "channel": 1,
      "note": 64,
      "start": 40.2588,
      "duration": 0.1037,
      "velocity": 95,
      "chip": "ym2612"
    },
    {
      "channel": 4,
      "note": 52,
      "start": 40.26,
      "duration": 0.213,
      "velocity": 91,
      "chip": "ym2612"
    },
    {
      "channel": 2,
      "note": 37,
      "start": 40.2611,
      "duration": 0.1203,
      "velocity": 120,
      "chip": "ym2612"
    },
    {
      "channel": 1,
      "note": 69,
      "start": 40.363,
      "duration": 0.1092,
      "velocity": 95,
      "chip": "ym2612"
    },
    {
      "channel": 1,
      "note": 73,
      "start": 40.4728,
      "duration": 0.1066,
      "velocity": 95,
      "chip": "ym2612"
    },
    {
      "channel": 4,
      "note": 64,
      "start": 40.4736,
      "duration": 0.1067,
      "velocity": 91,
      "chip": "ym2612"
    },
    {
      "channel": 2,
      "note": 56,
      "start": 40.4747,
      "duration": 0.1015,
      "velocity": 116,
      "chip": "ym2612"
    },
    {
      "channel": 1,
      "note": 76,
      "start": 40.58,
      "duration": 0.1066,
      "velocity": 95,
      "chip": "ym2612"
    },
    {
      "channel": 4,
      "note": 64,
      "start": 40.5808,
      "duration": 0.1074,
      "velocity": 91,
      "chip": "ym2612"
    },
    {
      "channel": 2,
      "note": 56,
      "start": 40.5819,
      "duration": 0.1015,
      "velocity": 116,
      "chip": "ym2612"
    },
    {
      "channel": 1,
      "note": 81,
      "start": 40.6872,
      "duration": 0.1041,
      "velocity": 95,
      "chip": "ym2612"
    },
    {
      "channel": 3,
      "note": 29,
      "start": 40.688,
      "duration": 0.2138,
      "velocity": 120,
      "chip": "ym2612"
    },
    {
      "channel": 4,
      "note": 52,
      "start": 40.6888,
      "duration": 0.2133,
      "velocity": 91,
      "chip": "ym2612"
    },
    {
      "channel": 2,
      "note": 37,
      "start": 40.6899,
      "duration": 0.1202,
      "velocity": 120,
      "chip": "ym2612"
    },
    {
      "channel": 0,
      "note": 62,
      "start": 40.7912,
      "duration": 0.1091,
      "velocity": 127,
      "chip": "ym2612"
    },
    {
      "channel": 1,
      "note": 76,
      "start": 40.7919,
      "duration": 0.1091,
      "velocity": 95,
      "chip": "ym2612"
    },
    {
      "channel": 5,
      "note": 62,
      "start": 40.8639,
      "duration": 0.1062,
      "velocity": 127,
      "chip": "ym2612"
    },
    {
      "channel": 0,
      "note": 61,
      "start": 40.9009,
      "duration": 0.1065,
      "velocity": 127,
      "chip": "ym2612"
    },
    {
      "channel": 1,
      "note": 73,
      "start": 40.9016,
      "duration": 0.1066,
      "velocity": 95,
      "chip": "ym2612"
    },
    {
      "channel": 4,
      "note": 64,
      "start": 40.9027,
      "duration": 0.1063,
      "velocity": 91,
      "chip": "ym2612"
    },
    {
      "channel": 2,
      "note": 56,
      "start": 40.9037,
      "duration": 0.1008,
      "velocity": 116,
      "chip": "ym2612"
    },
    {
      "channel": 5,
      "note": 61,
      "start": 40.9707,
      "duration": 0.1066,
      "velocity": 127,
      "chip": "ym2612"
    },
    {
      "channel": 0,
      "note": 64,
      "start": 41.008,
      "duration": 0.1066,
      "velocity": 127,
      "chip": "ym2612"
    },
    {
      "channel": 1,
      "note": 69,
      "start": 41.0087,
      "duration": 0.1067,
      "velocity": 95,
      "chip": "ym2612"
    },
    {
      "channel": 4,
      "note": 64,
      "start": 41.0095,
      "duration": 0.1072,
      "velocity": 91,
      "chip": "ym2612"
    },
    {
      "channel": 2,
      "note": 56,
      "start": 41.0107,
      "duration": 0.1011,
      "velocity": 116,
      "chip": "ym2612"
    },
    {
      "channel": 5,
      "note": 64,
      "start": 41.0778,
      "duration": 0.1064,
      "velocity": 127,
      "chip": "ym2612"
    },
    {
      "channel": 0,
      "note": 62,
      "start": 41.1153,
      "duration": 0.4277,
      "velocity": 127,
      "chip": "ym2612"
    },
    {
      "channel": 1,
      "note": 62,
      "start": 41.1161,
      "duration": 0.1032,
      "velocity": 95,
      "chip": "ym2612"
    },
    {
      "channel": 4,
      "note": 50,
      "start": 41.1173,
      "duration": 0.213,
      "velocity": 91,
      "chip": "ym2612"
    },
    {
      "channel": 2,
      "note": 37,
      "start": 41.1184,
      "duration": 0.1198,
      "velocity": 120,
      "chip": "ym2612"
    },
    {
      "channel": 5,
      "note": 62,
      "start": 41.1849,
      "duration": 0.4281,
      "velocity": 127,
      "chip": "ym2612"
    },
    {
      "channel": 1,
      "note": 66,
      "start": 41.2198,
      "duration": 0.1097,
      "velocity": 95,
      "chip": "ym2612"
    },
    {
      "channel": 1,
      "note": 69,
      "start": 41.3301,
      "duration": 0.1062,
      "velocity": 95,
      "chip": "ym2612"
    },
    {
      "channel": 4,
      "note": 62,
      "start": 41.3309,
      "duration": 0.1062,
      "velocity": 91,
      "chip": "ym2612"
    },
    {
      "channel": 2,
      "note": 56,
      "start": 41.332,
      "duration": 0.1011,
      "velocity": 116,
      "chip": "ym2612"
    },
    {
      "channel": 1,
      "note": 73,
      "start": 41.4368,
      "duration": 0.1069,
      "velocity": 95,
      "chip": "ym2612"
    },
    {
      "channel": 4,
      "note": 62,
      "start": 41.4376,
      "duration": 0.1078,
      "velocity": 91,
      "chip": "ym2612"
    },
    {
      "channel": 2,
      "note": 56,
      "start": 41.4387,
      "duration": 0.1015,
      "velocity": 116,
      "chip": "ym2612"
    },
    {
      "channel": 0,
      "note": 61,
      "start": 41.5436,
      "duration": 0.4279,
      "velocity": 127,
      "chip": "ym2612"
    },
    {
      "channel": 1,
      "note": 78,
      "start": 41.5444,
      "duration": 0.1033,
      "velocity": 95,
      "chip": "ym2612"
    },
    {
      "channel": 3,
      "note": 29,
      "start": 41.5451,
      "duration": 0.213,
      "velocity": 120,
      "chip": "ym2612"
    },
    {
      "channel": 4,
      "note": 50,
      "start": 41.546,
      "duration": 0.2125,
      "velocity": 91,
      "chip": "ym2612"
    },
    {
      "channel": 2,
      "note": 37,
      "start": 41.5471,
      "duration": 0.1199,
      "velocity": 120,
      "chip": "ym2612"
    },
    {
      "channel": 5,
      "note": 61,
      "start": 41.6135,
      "duration": 0.4276,
      "velocity": 127,
      "chip": "ym2612"
    },
    {
      "channel": 1,
      "note": 73,
      "start": 41.6483,
      "duration": 0.1091,
      "velocity": 95,
      "chip": "ym2612"
    },
    {
      "channel": 1,
      "note": 69,
      "start": 41.758,
      "duration": 0.1066,
      "velocity": 95,
      "chip": "ym2612"
    },
    {
      "channel": 4,
      "note": 62,
      "start": 41.7591,
      "duration": 0.1063,
      "velocity": 91,
      "chip": "ym2612"
    },
    {
      "channel": 2,
      "note": 56,
      "start": 41.7602,
      "duration": 0.1012,
      "velocity": 116,
      "chip": "ym2612"
    },
    {
      "channel": 1,
      "note": 66,
      "start": 41.8651,
      "duration": 0.1071,
      "velocity": 95,
      "chip": "ym2612"
    },
    {
      "channel": 4,
      "note": 62,
      "start": 41.866,
      "duration": 0.1075,
      "velocity": 91,
      "chip": "ym2612"
    },
    {
      "channel": 2,
      "note": 56,
      "start": 41.867,
      "duration": 0.1015,
      "velocity": 116,
      "chip": "ym2612"
    },
    {
      "channel": 0,
      "note": 59,
      "start": 41.972,
      "duration": 0.4278,
      "velocity": 127,
      "chip": "ym2612"
    },
    {
      "channel": 1,
      "note": 62,
      "start": 41.9728,
      "duration": 0.1034,
      "velocity": 95,
      "chip": "ym2612"
    },
    {
      "channel": 4,
      "note": 50,
      "start": 41.974,
      "duration": 0.2127,
      "velocity": 91,
      "chip": "ym2612"
    },
    {
      "channel": 2,
      "note": 37,
      "start": 41.9751,
      "duration": 0.1199,
      "velocity": 120,
      "chip": "ym2612"
    },
    {
      "channel": 5,
      "note": 59,
      "start": 42.0417,
      "duration": 0.4284,
      "velocity": 127,
      "chip": "ym2612"
    },
    {
      "channel": 1,
      "note": 66,
      "start": 42.0768,
      "duration": 0.1091,
      "velocity": 95,
      "chip": "ym2612"
    },
    {
      "channel": 1,
      "note": 69,
      "start": 42.1865,
      "duration": 0.1065,
      "velocity": 95,
      "chip": "ym2612"
    },
    {
      "channel": 4,
      "note": 62,
      "start": 42.1873,
      "duration": 0.1066,
      "velocity": 91,
      "chip": "ym2612"
    },
    {
      "channel": 2,
      "note": 56,
      "start": 42.1884,
      "duration": 0.1015,
      "velocity": 116,
      "chip": "ym2612"
    },
    {
      "channel": 1,
      "note": 73,
      "start": 42.2936,
      "duration": 0.1069,
      "velocity": 95,
      "chip": "ym2612"
    },
    {
      "channel": 4,
      "note": 62,
      "start": 42.2944,
      "duration": 0.1077,
      "velocity": 91,
      "chip": "ym2612"
    },
    {
      "channel": 2,
      "note": 56,
      "start": 42.2955,
      "duration": 0.1015,
      "velocity": 116,
      "chip": "ym2612"
    },
    {
      "channel": 0,
      "note": 62,
      "start": 42.4004,
      "duration": 0.4279,
      "velocity": 127,
      "chip": "ym2612"
    },
    {
      "channel": 1,
      "note": 78,
      "start": 42.4011,
      "duration": 0.1034,
      "velocity": 95,
      "chip": "ym2612"
    },
    {
      "channel": 3,
      "note": 29,
      "start": 42.4019,
      "duration": 0.2131,
      "velocity": 120,
      "chip": "ym2612"
    },
    {
      "channel": 4,
      "note": 50,
      "start": 42.4027,
      "duration": 0.2126,
      "velocity": 91,
      "chip": "ym2612"
    },
    {
      "channel": 2,
      "note": 37,
      "start": 42.4038,
      "duration": 0.1199,
      "velocity": 120,
      "chip": "ym2612"
    },
    {
      "channel": 5,
      "note": 62,
      "start": 42.4707,
      "duration": 0.4271,
      "velocity": 127,
      "chip": "ym2612"
    },
    {
      "channel": 1,
      "note": 73,
      "start": 42.5051,
      "duration": 0.1092,
      "velocity": 95,
      "chip": "ym2612"
    },
    {
      "channel": 1,
      "note": 69,
      "start": 42.6149,
      "duration": 0.1065,
      "velocity": 95,
      "chip": "ym2612"
    },
    {
      "channel": 4,
      "note": 62,
      "start": 42.6159,
      "duration": 0.1063,
      "velocity": 91,
      "chip": "ym2612"
    },
    {
      "channel": 2,
      "note": 56,
      "start": 42.617,
      "duration": 0.1012,
      "velocity": 116,
      "chip": "ym2612"
    },
    {
      "channel": 1,
      "note": 66,
      "start": 42.7219,
      "duration": 0.1072,
      "velocity": 95,
      "chip": "ym2612"
    },
    {
      "channel": 4,
      "note": 62,
      "start": 42.7228,
      "duration": 0.1076,
      "velocity": 91,
      "chip": "ym2612"
    },
    {
      "channel": 2,
      "note": 56,
      "start": 42.7238,
      "duration": 0.1016,
      "velocity": 116,
      "chip": "ym2612"
    },
    {
      "channel": 0,
      "note": 61,
      "start": 42.8289,
      "duration": 0.4279,
      "velocity": 127,
      "chip": "ym2612"
    },
    {
      "channel": 1,
      "note": 61,
      "start": 42.8297,
      "duration": 0.1032,
      "velocity": 95,
      "chip": "ym2612"
    },
    {
      "channel": 4,
      "note": 49,
      "start": 42.831,
      "duration": 0.213,
      "velocity": 91,
      "chip": "ym2612"
    },
    {
      "channel": 2,
      "note": 37,
      "start": 42.832,
      "duration": 0.1198,
      "velocity": 120,
      "chip": "ym2612"
    },
    {
      "channel": 5,
      "note": 61,
      "start": 42.8985,
      "duration": 0.428,
      "velocity": 127,
      "chip": "ym2612"
    },
    {
      "channel": 1,
      "note": 64,
      "start": 42.9335,
      "duration": 0.1096,
      "velocity": 95,
      "chip": "ym2612"
    },
    {
      "channel": 1,
      "note": 68,
      "start": 43.0438,
      "duration": 0.106,
      "velocity": 95,
      "chip": "ym2612"
    },
    {
      "channel": 4,
      "note": 61,
      "start": 43.0446,
      "duration": 0.1061,
      "velocity": 91,
      "chip": "ym2612"
    },
    {
      "channel": 2,
      "note": 56,
      "start": 43.0457,
      "duration": 0.101,
      "velocity": 116,
      "chip": "ym2612"
    },
    {
      "channel": 1,
      "note": 71,
      "start": 43.1504,
      "duration": 0.1071,
      "velocity": 95,
      "chip": "ym2612"
    },
    {
      "channel": 4,
      "note": 61,
      "start": 43.1512,
      "duration": 0.1079,
      "velocity": 91,
      "chip": "ym2612"
    },
    {
      "channel": 2,
      "note": 56,
      "start": 43.1523,
      "duration": 0.1016,
      "velocity": 116,
      "chip": "ym2612"
    },
    {
      "channel": 0,
      "note": 59,
      "start": 43.2573,
      "duration": 0.4278,
      "velocity": 127,
      "chip": "ym2612"
    },
    {
      "channel": 1,
      "note": 76,
      "start": 43.258,
      "duration": 0.1034,
      "velocity": 95,
      "chip": "ym2612"
    },
    {
      "channel": 3,
      "note": 29,
      "start": 43.2588,
      "duration": 0.2131,
      "velocity": 120,
      "chip": "ym2612"
    },
    {
      "channel": 4,
      "note": 49,
      "start": 43.2597,
      "duration": 0.2125,
      "velocity": 91,
      "chip": "ym2612"
    },
    {
      "channel": 2,
      "note": 37,
      "start": 43.2607,
      "duration": 0.1198,
      "velocity": 120,
      "chip": "ym2612"
    },
    {
      "channel": 5,
      "note": 59,
      "start": 43.3271,
      "duration": 0.4276,
      "velocity": 127,
      "chip": "ym2612"
    },
    {
      "channel": 1,
      "note": 71,
      "start": 43.362,
      "duration": 0.1092,
      "velocity": 95,
      "chip": "ym2612"
    },
    {
      "channel": 1,
      "note": 68,
      "start": 43.4717,
      "duration": 0.1066,
      "velocity": 95,
      "chip": "ym2612"
    },
    {
      "channel": 4,
      "note": 61,
      "start": 43.4728,
      "duration": 0.1063,
      "velocity": 91,
      "chip": "ym2612"
    },
    {
      "channel": 2,
      "note": 56,
      "start": 43.4738,
      "duration": 0.1012,
      "velocity": 116,
      "chip": "ym2612"
    },
    {
      "channel": 1,
      "note": 64,
      "start": 43.5788,
      "duration": 0.1071,
      "velocity": 95,
      "chip": "ym2612"
    },
    {
      "channel": 4,
      "note": 61,
      "start": 43.5796,
      "duration": 0.1075,
      "velocity": 91,
      "chip": "ym2612"
    },
    {
      "channel": 2,
      "note": 56,
      "start": 43.5807,
      "duration": 0.1015,
      "velocity": 116,
      "chip": "ym2612"
    },
    {
      "channel": 0,
      "note": 57,
      "start": 43.6857,
      "duration": 0.4278,
      "velocity": 127,
      "chip": "ym2612"
    },
    {
      "channel": 1,
      "note": 61,
      "start": 43.6865,
      "duration": 0.1032,
      "velocity": 95,
      "chip": "ym2612"
    },
    {
      "channel": 4,
      "note": 49,
      "start": 43.6877,
      "duration": 0.2126,
      "velocity": 91,
      "chip": "ym2612"
    },
    {
      "channel": 2,
      "note": 37,
      "start": 43.6888,
      "duration": 0.1198,
      "velocity": 120,
      "chip": "ym2612"
    },
    {
      "channel": 5,
      "note": 57,
      "start": 43.7553,
      "duration": 0.4284,
      "velocity": 127,
      "chip": "ym2612"
    },
    {
      "channel": 1,
      "note": 64,
      "start": 43.7903,
      "duration": 0.1092,
      "velocity": 95,
      "chip": "ym2612"
    },
    {
      "channel": 1,
      "note": 68,
      "start": 43.9,
      "duration": 0.1066,
      "velocity": 95,
      "chip": "ym2612"
    },
    {
      "channel": 4,
      "note": 61,
      "start": 43.9009,
      "duration": 0.1066,
      "velocity": 91,
      "chip": "ym2612"
    },
    {
      "channel": 2,
      "note": 56,
      "start": 43.902,
      "duration": 0.1015,
      "velocity": 116,
      "chip": "ym2612"
    },
    {
      "channel": 1,
      "note": 71,
      "start": 44.0072,
      "duration": 0.107,
      "velocity": 95,
      "chip": "ym2612"
    },
    {
      "channel": 4,
      "note": 61,
      "start": 44.0081,
      "duration": 0.1078,
      "velocity": 91,
      "chip": "ym2612"
    },
    {
      "channel": 2,
      "note": 56,
      "start": 44.0091,
      "duration": 0.1015,
      "velocity": 116,
      "chip": "ym2612"
    },
    {
      "channel": 0,
      "note": 61,
      "start": 44.114,
      "duration": 0.4279,
      "velocity": 127,
      "chip": "ym2612"
    },
    {
      "channel": 1,
      "note": 76,
      "start": 44.1148,
      "duration": 0.1034,
      "velocity": 95,
      "chip": "ym2612"
    },
    {
      "channel": 3,
      "note": 29,
      "start": 44.1156,
      "duration": 0.2131,
      "velocity": 120,
      "chip": "ym2612"
    },
    {
      "channel": 4,
      "note": 49,
      "start": 44.1164,
      "duration": 0.2126,
      "velocity": 91,
      "chip": "ym2612"
    },
    {
      "channel": 2,
      "note": 37,
      "start": 44.1175,
      "duration": 0.1199,
      "velocity": 120,
      "chip": "ym2612"
    },
    {
      "channel": 5,
      "note": 61,
      "start": 44.1843,
      "duration": 0.4273,
      "velocity": 127,
      "chip": "ym2612"
    },
    {
      "channel": 1,
      "note": 71,
      "start": 44.2188,
      "duration": 0.1092,
      "velocity": 95,
      "chip": "ym2612"
    },
    {
      "channel": 1,
      "note": 68,
      "start": 44.3285,
      "duration": 0.1064,
      "velocity": 95,
      "chip": "ym2612"
    },
    {
      "channel": 4,
      "note": 61,
      "start": 44.3296,
      "duration": 0.1062,
      "velocity": 91,
      "chip": "ym2612"
    },
    {
      "channel": 2,
      "note": 56,
      "start": 44.3307,
      "duration": 0.1012,
      "velocity": 116,
      "chip": "ym2612"
    },
    {
      "channel": 1,
      "note": 64,
      "start": 44.4356,
      "duration": 0.1071,
      "velocity": 95,
      "chip": "ym2612"
    },
    {
      "channel": 4,
      "note": 61,
      "start": 44.4364,
      "duration": 0.1076,
      "velocity": 91,
      "chip": "ym2612"
    },
    {
      "channel": 2,
      "note": 56,
      "start": 44.4375,
      "duration": 0.1016,
      "velocity": 116,
      "chip": "ym2612"
    },
    {
      "channel": 0,
      "note": 59,
      "start": 44.5425,
      "duration": 1.4987,
      "velocity": 127,
      "chip": "ym2612"
    },
    {
      "channel": 1,
      "note": 59,
      "start": 44.5433,
      "duration": 0.1032,
      "velocity": 95,
      "chip": "ym2612"
    },
    {
      "channel": 4,
      "note": 47,
      "start": 44.5446,
      "duration": 0.2129,
      "velocity": 91,
      "chip": "ym2612"
    },
    {
      "channel": 2,
      "note": 37,
      "start": 44.5457,
      "duration": 0.1198,
      "velocity": 120,
      "chip": "ym2612"
    },
    {
      "channel": 5,
      "note": 59,
      "start": 44.6123,
      "duration": 1.4988,
      "velocity": 127,
      "chip": "ym2612"
    },
    {
      "channel": 1,
      "note": 62,
      "start": 44.6471,
      "duration": 0.1096,
      "velocity": 95,
      "chip": "ym2612"
    },
    {
      "channel": 1,
      "note": 66,
      "start": 44.7573,
      "duration": 0.1062,
      "velocity": 95,
      "chip": "ym2612"
    },
    {
      "channel": 4,
      "note": 59,
      "start": 44.7581,
      "duration": 0.1062,
      "velocity": 91,
      "chip": "ym2612"
    },
    {
      "channel": 2,
      "note": 56,
      "start": 44.7592,
      "duration": 0.1011,
      "velocity": 116,
      "chip": "ym2612"
    },
    {
      "channel": 1,
      "note": 69,
      "start": 44.864,
      "duration": 0.1066,
      "velocity": 95,
      "chip": "ym2612"
    },
    {
      "channel": 4,
      "note": 59,
      "start": 44.8649,
      "duration": 0.1074,
      "velocity": 91,
      "chip": "ym2612"
    },
    {
      "channel": 2,
      "note": 56,
      "start": 44.866,
      "duration": 0.1015,
      "velocity": 116,
      "chip": "ym2612"
    },
    {
      "channel": 1,
      "note": 74,
      "start": 44.9712,
      "duration": 0.1038,
      "velocity": 95,
      "chip": "ym2612"
    },
    {
      "channel": 3,
      "note": 29,
      "start": 44.972,
      "duration": 0.2135,
      "velocity": 120,
      "chip": "ym2612"
    },
    {
      "channel": 4,
      "note": 47,
      "start": 44.9728,
      "duration": 0.213,
      "velocity": 91,
      "chip": "ym2612"
    },
    {
      "channel": 2,
      "note": 37,
      "start": 44.9739,
      "duration": 0.1203,
      "velocity": 120,
      "chip": "ym2612"
    },
    {
      "channel": 1,
      "note": 69,
      "start": 45.0756,
      "duration": 0.1092,
      "velocity": 95,
      "chip": "ym2612"
    },
    {
      "channel": 1,
      "note": 66,
      "start": 45.1854,
      "duration": 0.1066,
      "velocity": 95,
      "chip": "ym2612"
    },
    {
      "channel": 4,
      "note": 59,
      "start": 45.1864,
      "duration": 0.1063,
      "velocity": 91,
      "chip": "ym2612"
    },
    {
      "channel": 2,
      "note": 56,
      "start": 45.1875,
      "duration": 0.1012,
      "velocity": 116,
      "chip": "ym2612"
    },
    {
      "channel": 1,
      "note": 62,
      "start": 45.2925,
      "duration": 0.1066,
      "velocity": 95,
      "chip": "ym2612"
    },
    {
      "channel": 4,
      "note": 59,
      "start": 45.2933,
      "duration": 0.1071,
      "velocity": 91,
      "chip": "ym2612"
    },
    {
      "channel": 2,
      "note": 56,
      "start": 45.2944,
      "duration": 0.1015,
      "velocity": 116,
      "chip": "ym2612"
    },
    {
      "channel": 1,
      "note": 59,
      "start": 45.3997,
      "duration": 0.1037,
      "velocity": 95,
      "chip": "ym2612"
    },
    {
      "channel": 4,
      "note": 47,
      "start": 45.401,
      "duration": 0.2131,
      "velocity": 91,
      "chip": "ym2612"
    },
    {
      "channel": 2,
      "note": 37,
      "start": 45.402,
      "duration": 0.1202,
      "velocity": 120,
      "chip": "ym2612"
    },
    {
      "channel": 1,
      "note": 62,
      "start": 45.504,
      "duration": 0.1092,
      "velocity": 95,
      "chip": "ym2612"
    },
    {
      "channel": 1,
      "note": 66,
      "start": 45.6138,
      "duration": 0.1065,
      "velocity": 95,
      "chip": "ym2612"
    },
    {
      "channel": 4,
      "note": 59,
      "start": 45.6146,
      "duration": 0.1065,
      "velocity": 91,
      "chip": "ym2612"
    },
    {
      "channel": 2,
      "note": 56,
      "start": 45.6157,
      "duration": 0.1015,
      "velocity": 116,
      "chip": "ym2612"
    },
    {
      "channel": 1,
      "note": 69,
      "start": 45.7209,
      "duration": 0.1067,
      "velocity": 95,
      "chip": "ym2612"
    },
    {
      "channel": 4,
      "note": 59,
      "start": 45.7217,
      "duration": 0.1075,
      "velocity": 91,
      "chip": "ym2612"
    },
    {
      "channel": 2,
      "note": 56,
      "start": 45.7228,
      "duration": 0.1016,
      "velocity": 116,
      "chip": "ym2612"
    },
    {
      "channel": 1,
      "note": 74,
      "start": 45.8281,
      "duration": 0.1037,
      "velocity": 95,
      "chip": "ym2612"
    },
    {
      "channel": 3,
      "note": 29,
      "start": 45.8289,
      "duration": 0.2137,
      "velocity": 120,
      "chip": "ym2612"
    },
    {
      "channel": 4,
      "note": 47,
      "start": 45.8298,
      "duration": 0.2132,
      "velocity": 91,
      "chip": "ym2612"
    },
    {
      "channel": 2,
      "note": 37,
      "start": 45.8308,
      "duration": 0.1202,
      "velocity": 120,
      "chip": "ym2612"
    },
    {
      "channel": 1,
      "note": 69,
      "start": 45.9324,
      "duration": 0.1095,
      "velocity": 95,
      "chip": "ym2612"
    },
    {
      "channel": 0,
      "note": 61,
      "start": 46.0418,
      "duration": 0.1065,
      "velocity": 127,
      "chip": "ym2612"
    },
    {
      "channel": 1,
      "note": 66,
      "start": 46.0425,
      "duration": 0.1066,
      "velocity": 95,
      "chip": "ym2612"
    },
    {
      "channel": 4,
      "note": 59,
      "start": 46.0436,
      "duration": 0.1063,
      "velocity": 91,
      "chip": "ym2612"
    },
    {
      "channel": 2,
      "note": 56,
      "start": 46.0447,
      "duration": 0.1007,
      "velocity": 116,
      "chip": "ym2612"
    },
    {
      "channel": 5,
      "note": 61,
      "start": 46.1116,
      "duration": 0.1063,
      "velocity": 127,
      "chip": "ym2612"
    },
    {
      "channel": 0,
      "note": 62,
      "start": 46.1488,
      "duration": 0.1067,
      "velocity": 127,
      "chip": "ym2612"
    },
    {
      "channel": 1,
      "note": 62,
      "start": 46.1496,
      "duration": 0.1067,
      "velocity": 95,
      "chip": "ym2612"
    },
    {
      "channel": 4,
      "note": 59,
      "start": 46.1504,
      "duration": 0.1072,
      "velocity": 91,
      "chip": "ym2612"
    },
    {
      "channel": 2,
      "note": 56,
      "start": 46.1515,
      "duration": 0.1012,
      "velocity": 116,
      "chip": "ym2612"
    },
    {
      "channel": 5,
      "note": 62,
      "start": 46.2186,
      "duration": 0.1066,
      "velocity": 127,
      "chip": "ym2612"
    },
    {
      "channel": 0,
      "note": 64,
      "start": 46.2562,
      "duration": 1.0703,
      "velocity": 127,
      "chip": "ym2612"
    },
    {
      "channel": 1,
      "note": 64,
      "start": 46.257,
      "duration": 0.1032,
      "velocity": 95,
      "chip": "ym2612"
    },
    {
      "channel": 4,
      "note": 52,
      "start": 46.2582,
      "duration": 0.2129,
      "velocity": 91,
      "chip": "ym2612"
    },
    {
      "channel": 2,
      "note": 37,
      "start": 46.2593,
      "duration": 0.1198,
      "velocity": 120,
      "chip": "ym2612"
    },
    {
      "channel": 5,
      "note": 64,
      "start": 46.3258,
      "duration": 1.0703,
      "velocity": 127,
      "chip": "ym2612"
    },
    {
      "channel": 1,
      "note": 68,
      "start": 46.3608,
      "duration": 0.1095,
      "velocity": 95,
      "chip": "ym2612"
    },
    {
      "channel": 1,
      "note": 71,
      "start": 46.4709,
      "duration": 0.1062,
      "velocity": 95,
      "chip": "ym2612"
    },
    {
      "channel": 4,
      "note": 64,
      "start": 46.4717,
      "duration": 0.1062,
      "velocity": 91,
      "chip": "ym2612"
    },
    {
      "channel": 2,
      "note": 56,
      "start": 46.4728,
      "duration": 0.1011,
      "velocity": 116,
      "chip": "ym2612"
    },
    {
      "channel": 1,
      "note": 76,
      "start": 46.5777,
      "duration": 0.1066,
      "velocity": 95,
      "chip": "ym2612"
    },
    {
      "channel": 4,
      "note": 64,
      "start": 46.5785,
      "duration": 0.1074,
      "velocity": 91,
      "chip": "ym2612"
    },
    {
      "channel": 2,
      "note": 56,
      "start": 46.5796,
      "duration": 0.1015,
      "velocity": 116,
      "chip": "ym2612"
    },
    {
      "channel": 1,
      "note": 80,
      "start": 46.6849,
      "duration": 0.1037,
      "velocity": 95,
      "chip": "ym2612"
    },
    {
      "channel": 3,
      "note": 29,
      "start": 46.6857,
      "duration": 0.2134,
      "velocity": 120,
      "chip": "ym2612"
    },
    {
      "channel": 4,
      "note": 52,
      "start": 46.6865,
      "duration": 0.2129,
      "velocity": 91,
      "chip": "ym2612"
    },
    {
      "channel": 2,
      "note": 37,
      "start": 46.6876,
      "duration": 0.1202,
      "velocity": 120,
      "chip": "ym2612"
    },
    {
      "channel": 1,
      "note": 76,
      "start": 46.7892,
      "duration": 0.1091,
      "velocity": 95,
      "chip": "ym2612"
    },
    {
      "channel": 1,
      "note": 71,
      "start": 46.8989,
      "duration": 0.1066,
      "velocity": 95,
      "chip": "ym2612"
    },
    {
      "channel": 4,
      "note": 64,
      "start": 46.9,
      "duration": 0.1064,
      "velocity": 91,
      "chip": "ym2612"
    },
    {
      "channel": 2,
      "note": 56,
      "start": 46.9011,
      "duration": 0.1013,
      "velocity": 116,
      "chip": "ym2612"
    },
    {
      "channel": 1,
      "note": 68,
      "start": 47.0061,
      "duration": 0.1067,
      "velocity": 95,
      "chip": "ym2612"
    },
    {
      "channel": 4,
      "note": 64,
      "start": 47.0069,
      "duration": 0.1071,
      "velocity": 91,
      "chip": "ym2612"
    },
    {
      "channel": 2,
      "note": 56,
      "start": 47.008,
      "duration": 0.1015,
      "velocity": 116,
      "chip": "ym2612"
    },
    {
      "channel": 1,
      "note": 64,
      "start": 47.1134,
      "duration": 0.1036,
      "velocity": 95,
      "chip": "ym2612"
    },
    {
      "channel": 4,
      "note": 52,
      "start": 47.1146,
      "duration": 0.2135,
      "velocity": 91,
      "chip": "ym2612"
    },
    {
      "channel": 2,
      "note": 37,
      "start": 47.1157,
      "duration": 0.1203,
      "velocity": 120,
      "chip": "ym2612"
    },
    {
      "channel": 1,
      "note": 68,
      "start": 47.2176,
      "duration": 0.1097,
      "velocity": 95,
      "chip": "ym2612"
    },
    {
      "channel": 0,
      "note": 62,
      "start": 47.3271,
      "duration": 0.2136,
      "velocity": 127,
      "chip": "ym2612"
    },
    {
      "channel": 1,
      "note": 71,
      "start": 47.3278,
      "duration": 0.106,
      "velocity": 95,
      "chip": "ym2612"
    },
    {
      "channel": 4,
      "note": 64,
      "start": 47.3287,
      "duration": 0.106,
      "velocity": 91,
      "chip": "ym2612"
    },
    {
      "channel": 2,
      "note": 56,
      "start": 47.3298,
      "duration": 0.101,
      "velocity": 116,
      "chip": "ym2612"
    },
    {
      "channel": 5,
      "note": 62,
      "start": 47.3967,
      "duration": 0.2143,
      "velocity": 127,
      "chip": "ym2612"
    },
    {
      "channel": 1,
      "note": 76,
      "start": 47.4345,
      "duration": 0.107,
      "velocity": 95,
      "chip": "ym2612"
    },
    {
      "channel": 4,
      "note": 64,
      "start": 47.4352,
      "duration": 0.1078,
      "velocity": 91,
      "chip": "ym2612"
    },
    {
      "channel": 2,
      "note": 56,
      "start": 47.4363,
      "duration": 0.1016,
      "velocity": 116,
      "chip": "ym2612"
    },
    {
      "channel": 0,
      "note": 61,
      "start": 47.5413,
      "duration": 0.2136,
      "velocity": 127,
      "chip": "ym2612"
    },
    {
      "channel": 1,
      "note": 80,
      "start": 47.542,
      "duration": 0.1034,
      "velocity": 95,
      "chip": "ym2612"
    },
    {
      "channel": 3,
      "note": 29,
      "start": 47.5428,
      "duration": 0.2135,
      "velocity": 120,
      "chip": "ym2612"
    },
    {
      "channel": 4,
      "note": 52,
      "start": 47.5436,
      "duration": 0.1029,
      "velocity": 91,
      "chip": "ym2612"
    },
    {
      "channel": 2,
      "note": 37,
      "start": 47.5448,
      "duration": 0.1199,
      "velocity": 120,
      "chip": "ym2612"
    },
    {
      "channel": 5,
      "note": 61,
      "start": 47.6116,
      "duration": 0.213,
      "velocity": 127,
      "chip": "ym2612"
    },
    {
      "channel": 1,
      "note": 76,
      "start": 47.646,
      "duration": 0.1096,
      "velocity": 95,
      "chip": "ym2612"
    },
    {
      "channel": 4,
      "note": 64,
      "start": 47.6471,
      "duration": 0.1095,
      "velocity": 91,
      "chip": "ym2612"
    },
    {
      "channel": 0,
      "note": 59,
      "start": 47.7554,
      "duration": 0.2139,
      "velocity": 127,
      "chip": "ym2612"
    },
    {
      "channel": 1,
      "note": 71,
      "start": 47.7562,
      "duration": 0.1062,
      "velocity": 95,
      "chip": "ym2612"
    },
    {
      "channel": 4,
      "note": 52,
      "start": 47.7572,
      "duration": 0.106,
      "velocity": 91,
      "chip": "ym2612"
    },
    {
      "channel": 2,
      "note": 56,
      "start": 47.7583,
      "duration": 0.1009,
      "velocity": 116,
      "chip": "ym2612"
    },
    {
      "channel": 5,
      "note": 59,
      "start": 47.8252,
      "duration": 0.2141,
      "velocity": 127,
      "chip": "ym2612"
    },
    {
      "channel": 1,
      "note": 68,
      "start": 47.8629,
      "duration": 0.1099,
      "velocity": 127,
      "chip": "ym2612"
    },
    {
      "channel": 4,
      "note": 64,
      "start": 47.8637,
      "duration": 0.1139,
      "velocity": 91,
      "chip": "ym2612"
    },
    {
      "channel": 2,
      "note": 56,
      "start": 47.8648,
      "duration": 0.1016,
      "velocity": 116,
      "chip": "ym2612"
    },
    {
      "channel": 0,
      "note": 59,
      "start": 47.9699,
      "duration": 0.4259,
      "velocity": 127,
      "chip": "ym2612"
    },
    {
      "channel": 1,
      "note": 52,
      "start": 47.9733,
      "duration": 0.4225,
      "velocity": 127,
      "chip": "ym2612"
    },
    {
      "channel": 3,
      "note": 76,
      "start": 47.9773,
      "duration": 0.0967,
      "velocity": 91,
      "chip": "ym2612"
    },
    {
      "channel": 4,
      "note": 52,
      "start": 47.9782,
      "duration": 0.4176,
      "velocity": 91,
      "chip": "ym2612"
    },
    {
      "channel": 2,
      "note": 37,
      "start": 47.9793,
      "duration": 0.1137,
      "velocity": 120,
      "chip": "ym2612"
    },
    {
      "channel": 5,
      "note": 59,
      "start": 48.0398,
      "duration": 0.356,
      "velocity": 127,
      "chip": "ym2612"
    },
    {
      "channel": 3,
      "note": 78,
      "start": 48.0746,
      "duration": 0.1069,
      "velocity": 91,
      "chip": "ym2612"
    },
    {
      "channel": 3,
      "note": 80,
      "start": 48.1821,
      "duration": 0.1062,
      "velocity": 91,
      "chip": "ym2612"
    },
    {
      "channel": 3,
      "note": 81,
      "start": 48.2889,
      "duration": 0.1069,
      "velocity": 91,
      "chip": "ym2612"
    }
  ]
}