{
  "track_name": "08 - Round 7- Lava Cave",
  "duration_sec": 30.15,
  "sample_rate": 44100,
  "note_count": 4319,
  "unique_pitches": 17,
  "pitch_range": 45,
  "avg_note_duration": 0.0208,
  "reconstruction_stats": {
    "notes_reconstructed": 4319,
    "keyon_events": 4319,
    "keyoff_events": 596,
    "orphan_keyons": 0,
    "unique_pitches": 17,
    "pitch_range": 45,
    "avg_duration_sec": 0.0208
  },
  "metadata": {
    "source": "S\\Shadow Blasters\\08 - Round 7- Lava Cave.vgz"
  },
  "notes": [
    {
      "channel": 1,
      "note": 53,
      "start": 0.0,
      "duration": 0.0563,
      "velocity": 81,
      "chip": "ym2612"
    },
    {
      "channel": 2,
      "note": 40,
      "start": 0.0171,
      "duration": 0.0036,
      "velocity": 114,
      "chip": "ym2612"
    },
    {
      "channel": 2,
      "note": 40,
      "start": 0.0208,
      "duration": 0.0125,
      "velocity": 114,
      "chip": "ym2612"
    },
    {
      "channel": 2,
      "note": 40,
      "start": 0.0332,
      "duration": 0.0135,
      "velocity": 114,
      "chip": "ym2612"
    },
    {
      "channel": 2,
      "note": 40,
      "start": 0.0467,
      "duration": 0.0121,
      "velocity": 114,
      "chip": "ym2612"
    },
    {
      "channel": 2,
      "note": 40,
      "start": 0.0588,
      "duration": 0.0119,
      "velocity": 114,
      "chip": "ym2612"
    },
    {
      "channel": 2,
      "note": 40,
      "start": 0.0707,
      "duration": 0.0125,
      "velocity": 114,
      "chip": "ym2612"
    },
    {
      "channel": 2,
      "note": 40,
      "start": 0.0832,
      "duration": 0.0131,
      "velocity": 114,
      "chip": "ym2612"
    },
    {
      "channel": 2,
      "note": 40,
      "start": 0.0963,
      "duration": 0.0137,
      "velocity": 114,
      "chip": "ym2612"
    },
    {
      "channel": 1,
      "note": 53,
      "start": 0.1068,
      "duration": 0.0993,
      "velocity": 81,
      "chip": "ym2612"
    },
    {
      "channel": 2,
      "note": 40,
      "start": 0.1216,
      "duration": 0.0116,
      "velocity": 114,
      "chip": "ym2612"
    },
    {
      "channel": 2,
      "note": 40,
      "start": 0.1332,
      "duration": 0.0171,
      "velocity": 114,
      "chip": "ym2612"
    },
    {
      "channel": 2,
      "note": 40,
      "start": 0.1503,
      "duration": 0.0081,
      "velocity": 114,
      "chip": "ym2612"
    },
    {
      "channel": 2,
      "note": 40,
      "start": 0.1584,
      "duration": 0.0122,
      "velocity": 114,
      "chip": "ym2612"
    },
    {
      "channel": 2,
      "note": 40,
      "start": 0.1706,
      "duration": 0.0124,
      "velocity": 114,
      "chip": "ym2612"
    },
    {
      "channel": 2,
      "note": 40,
      "start": 0.183,
      "duration": 0.0131,
      "velocity": 114,
      "chip": "ym2612"
    },
    {
      "channel": 2,
      "note": 40,
      "start": 0.1961,
      "duration": 0.0125,
      "velocity": 114,
      "chip": "ym2612"
    },
    {
      "channel": 2,
      "note": 40,
      "start": 0.2086,
      "duration": 0.0119,
      "velocity": 114,
      "chip": "ym2612"
    },
    {
      "channel": 2,
      "note": 40,
      "start": 0.2205,
      "duration": 0.0125,
      "velocity": 114,
      "chip": "ym2612"
    },
    {
      "channel": 2,
      "note": 40,
      "start": 0.233,
      "duration": 0.0131,
      "velocity": 114,
      "chip": "ym2612"
    },
    {
      "channel": 2,
      "note": 39,
      "start": 0.2461,
      "duration": 0.0125,
      "velocity": 114,
      "chip": "ym2612"
    },
    {
      "channel": 1,
      "note": 53,
      "start": 0.307,
      "duration": 0.0618,
      "velocity": 81,
      "chip": "ym2612"
    },
    {
      "channel": 2,
      "note": 40,
      "start": 0.3122,
      "duration": 0.0086,
      "velocity": 114,
      "chip": "ym2612"
    },
    {
      "channel": 2,
      "note": 40,
      "start": 0.3208,
      "duration": 0.0125,
      "velocity": 114,
      "chip": "ym2612"
    },
    {
      "channel": 2,
      "note": 40,
      "start": 0.3332,
      "duration": 0.0134,
      "velocity": 114,
      "chip": "ym2612"
    },
    {
      "channel": 2,
      "note": 40,
      "start": 0.3467,
      "duration": 0.0115,
      "velocity": 114,
      "chip": "ym2612"
    },
    {
      "channel": 2,
      "note": 40,
      "start": 0.3582,
      "duration": 0.0131,
      "velocity": 114,
      "chip": "ym2612"
    },
    {
      "channel": 2,
      "note": 40,
      "start": 0.3713,
      "duration": 0.0119,
      "velocity": 114,
      "chip": "ym2612"
    },
    {
      "channel": 2,
      "note": 40,
      "start": 0.3832,
      "duration": 0.0131,
      "velocity": 114,
      "chip": "ym2612"
    },
    {
      "channel": 2,
      "note": 40,
      "start": 0.3963,
      "duration": 0.0137,
      "velocity": 114,
      "chip": "ym2612"
    },
    {
      "channel": 1,
      "note": 53,
      "start": 0.4068,
      "duration": 0.0992,
      "velocity": 81,
      "chip": "ym2612"
    },
    {
      "channel": 2,
      "note": 40,
      "start": 0.4216,
      "duration": 0.0115,
      "velocity": 114,
      "chip": "ym2612"
    },
    {
      "channel": 2,
      "note": 40,
      "start": 0.4331,
      "duration": 0.0131,
      "velocity": 114,
      "chip": "ym2612"
    },
    {
      "channel": 2,
      "note": 40,
      "start": 0.4462,
      "duration": 0.0122,
      "velocity": 114,
      "chip": "ym2612"
    },
    {
      "channel": 2,
      "note": 40,
      "start": 0.4584,
      "duration": 0.0122,
      "velocity": 114,
      "chip": "ym2612"
    },
    {
      "channel": 2,
      "note": 40,
      "start": 0.4706,
      "duration": 0.0124,
      "velocity": 114,
      "chip": "ym2612"
    },
    {
      "channel": 2,
      "note": 40,
      "start": 0.483,
      "duration": 0.0131,
      "velocity": 114,
      "chip": "ym2612"
    },
    {
      "channel": 2,
      "note": 40,
      "start": 0.4961,
      "duration": 0.0128,
      "velocity": 114,
      "chip": "ym2612"
    },
    {
      "channel": 2,
      "note": 40,
      "start": 0.5089,
      "duration": 0.0119,
      "velocity": 114,
      "chip": "ym2612"
    },
    {
      "channel": 2,
      "note": 40,
      "start": 0.5208,
      "duration": 0.0125,
      "velocity": 114,
      "chip": "ym2612"
    },
    {
      "channel": 2,
      "note": 40,
      "start": 0.5334,
      "duration": 0.0131,
      "velocity": 114,
      "chip": "ym2612"
    },
    {
      "channel": 2,
      "note": 39,
      "start": 0.5464,
      "duration": 0.0118,
      "velocity": 114,
      "chip": "ym2612"
    },
    {
      "channel": 1,
      "note": 53,
      "start": 0.6066,
      "duration": 0.0618,
      "velocity": 81,
      "chip": "ym2612"
    },
    {
      "channel": 2,
      "note": 40,
      "start": 0.6122,
      "duration": 0.0086,
      "velocity": 114,
      "chip": "ym2612"
    },
    {
      "channel": 2,
      "note": 40,
      "start": 0.6208,
      "duration": 0.0125,
      "velocity": 114,
      "chip": "ym2612"
    },
    {
      "channel": 2,
      "note": 40,
      "start": 0.6332,
      "duration": 0.0134,
      "velocity": 114,
      "chip": "ym2612"
    },
    {
      "channel": 2,
      "note": 40,
      "start": 0.6467,
      "duration": 0.0115,
      "velocity": 114,
      "chip": "ym2612"
    },
    {
      "channel": 2,
      "note": 40,
      "start": 0.6582,
      "duration": 0.013,
      "velocity": 114,
      "chip": "ym2612"
    },
    {
      "channel": 2,
      "note": 40,
      "start": 0.6712,
      "duration": 0.012,
      "velocity": 114,
      "chip": "ym2612"
    },
    {
      "channel": 2,
      "note": 40,
      "start": 0.6832,
      "duration": 0.013,
      "velocity": 114,
      "chip": "ym2612"
    },
    {
      "channel": 2,
      "note": 40,
      "start": 0.6962,
      "duration": 0.0137,
      "velocity": 114,
      "chip": "ym2612"
    },
    {
      "channel": 1,
      "note": 53,
      "start": 0.7065,
      "duration": 0.1118,
      "velocity": 81,
      "chip": "ym2612"
    },
    {
      "channel": 2,
      "note": 40,
      "start": 0.7216,
      "duration": 0.0115,
      "velocity": 114,
      "chip": "ym2612"
    },
    {
      "channel": 2,
      "note": 40,
      "start": 0.7331,
      "duration": 0.0131,
      "velocity": 114,
      "chip": "ym2612"
    },
    {
      "channel": 2,
      "note": 40,
      "start": 0.7462,
      "duration": 0.0122,
      "velocity": 114,
      "chip": "ym2612"
    },
    {
      "channel": 2,
      "note": 40,
      "start": 0.7584,
      "duration": 0.0121,
      "velocity": 114,
      "chip": "ym2612"
    },
    {
      "channel": 2,
      "note": 40,
      "start": 0.7705,
      "duration": 0.0125,
      "velocity": 114,
      "chip": "ym2612"
    },
    {
      "channel": 2,
      "note": 40,
      "start": 0.783,
      "duration": 0.013,
      "velocity": 114,
      "chip": "ym2612"
    },
    {
      "channel": 2,
      "note": 40,
      "start": 0.7961,
      "duration": 0.0119,
      "velocity": 114,
      "chip": "ym2612"
    },
    {
      "channel": 2,
      "note": 40,
      "start": 0.808,
      "duration": 0.013,
      "velocity": 114,
      "chip": "ym2612"
    },
    {
      "channel": 2,
      "note": 40,
      "start": 0.821,
      "duration": 0.012,
      "velocity": 114,
      "chip": "ym2612"
    },
    {
      "channel": 2,
      "note": 40,
      "start": 0.833,
      "duration": 0.0131,
      "velocity": 114,
      "chip": "ym2612"
    },
    {
      "channel": 2,
      "note": 39,
      "start": 0.8461,
      "duration": 0.0118,
      "velocity": 114,
      "chip": "ym2612"
    },
    {
      "channel": 1,
      "note": 53,
      "start": 0.9187,
      "duration": 0.0618,
      "velocity": 81,
      "chip": "ym2612"
    },
    {
      "channel": 2,
      "note": 40,
      "start": 0.9237,
      "duration": 0.0092,
      "velocity": 114,
      "chip": "ym2612"
    },
    {
      "channel": 2,
      "note": 40,
      "start": 0.9329,
      "duration": 0.013,
      "velocity": 114,
      "chip": "ym2612"
    },
    {
      "channel": 2,
      "note": 40,
      "start": 0.9459,
      "duration": 0.0123,
      "velocity": 114,
      "chip": "ym2612"
    },
    {
      "channel": 2,
      "note": 40,
      "start": 0.9582,
      "duration": 0.0121,
      "velocity": 114,
      "chip": "ym2612"
    },
    {
      "channel": 2,
      "note": 40,
      "start": 0.9703,
      "duration": 0.0131,
      "velocity": 114,
      "chip": "ym2612"
    },
    {
      "channel": 2,
      "note": 40,
      "start": 0.9834,
      "duration": 0.0125,
      "velocity": 114,
      "chip": "ym2612"
    },
    {
      "channel": 2,
      "note": 40,
      "start": 0.9958,
      "duration": 0.012,
      "velocity": 114,
      "chip": "ym2612"
    },
    {
      "channel": 2,
      "note": 40,
      "start": 1.0078,
      "duration": 0.0142,
      "velocity": 114,
      "chip": "ym2612"
    },
    {
      "channel": 1,
      "note": 53,
      "start": 1.0185,
      "duration": 0.0992,
      "velocity": 81,
      "chip": "ym2612"
    },
    {
      "channel": 2,
      "note": 40,
      "start": 1.0337,
      "duration": 0.0121,
      "velocity": 114,
      "chip": "ym2612"
    },
    {
      "channel": 2,
      "note": 40,
      "start": 1.0458,
      "duration": 0.0119,
      "velocity": 114,
      "chip": "ym2612"
    },
    {
      "channel": 2,
      "note": 40,
      "start": 1.0577,
      "duration": 0.0129,
      "velocity": 114,
      "chip": "ym2612"
    },
    {
      "channel": 2,
      "note": 40,
      "start": 1.0705,
      "duration": 0.0122,
      "velocity": 114,
      "chip": "ym2612"
    },
    {
      "channel": 2,
      "note": 40,
      "start": 1.0827,
      "duration": 0.013,
      "velocity": 114,
      "chip": "ym2612"
    },
    {
      "channel": 2,
      "note": 40,
      "start": 1.0957,
      "duration": 0.0119,
      "velocity": 114,
      "chip": "ym2612"
    },
    {
      "channel": 2,
      "note": 40,
      "start": 1.1076,
      "duration": 0.013,
      "velocity": 114,
      "chip": "ym2612"
    },
    {
      "channel": 2,
      "note": 40,
      "start": 1.1206,
      "duration": 0.0119,
      "velocity": 114,
      "chip": "ym2612"
    },
    {
      "channel": 2,
      "note": 40,
      "start": 1.1325,
      "duration": 0.0131,
      "velocity": 114,
      "chip": "ym2612"
    },
    {
      "channel": 2,
      "note": 40,
      "start": 1.1456,
      "duration": 0.012,
      "velocity": 114,
      "chip": "ym2612"
    },
    {
      "channel": 2,
      "note": 39,
      "start": 1.1576,
      "duration": 0.0123,
      "velocity": 114,
      "chip": "ym2612"
    },
    {
      "channel": 1,
      "note": 53,
      "start": 1.2183,
      "duration": 0.0992,
      "velocity": 81,
      "chip": "ym2612"
    },
    {
      "channel": 2,
      "note": 40,
      "start": 1.2233,
      "duration": 0.0092,
      "velocity": 114,
      "chip": "ym2612"
    },
    {
      "channel": 2,
      "note": 40,
      "start": 1.2325,
      "duration": 0.013,
      "velocity": 114,
      "chip": "ym2612"
    },
    {
      "channel": 2,
      "note": 40,
      "start": 1.2455,
      "duration": 0.0123,
      "velocity": 114,
      "chip": "ym2612"
    },
    {
      "channel": 2,
      "note": 40,
      "start": 1.2578,
      "duration": 0.0121,
      "velocity": 114,
      "chip": "ym2612"
    },
    {
      "channel": 2,
      "note": 40,
      "start": 1.2699,
      "duration": 0.0125,
      "velocity": 114,
      "chip": "ym2612"
    },
    {
      "channel": 2,
      "note": 40,
      "start": 1.2824,
      "duration": 0.013,
      "velocity": 114,
      "chip": "ym2612"
    },
    {
      "channel": 2,
      "note": 40,
      "start": 1.2954,
      "duration": 0.012,
      "velocity": 114,
      "chip": "ym2612"
    },
    {
      "channel": 2,
      "note": 40,
      "start": 1.3074,
      "duration": 0.013,
      "velocity": 114,
      "chip": "ym2612"
    },
    {
      "channel": 2,
      "note": 40,
      "start": 1.3204,
      "duration": 0.012,
      "velocity": 114,
      "chip": "ym2612"
    },
    {
      "channel": 2,
      "note": 40,
      "start": 1.3324,
      "duration": 0.013,
      "velocity": 114,
      "chip": "ym2612"
    },
    {
      "channel": 2,
      "note": 39,
      "start": 1.3454,
      "duration": 0.0118,
      "velocity": 114,
      "chip": "ym2612"
    },
    {
      "channel": 1,
      "note": 53,
      "start": 1.418,
      "duration": 0.0993,
      "velocity": 81,
      "chip": "ym2612"
    },
    {
      "channel": 2,
      "note": 40,
      "start": 1.423,
      "duration": 0.0092,
      "velocity": 114,
      "chip": "ym2612"
    },
    {
      "channel": 2,
      "note": 40,
      "start": 1.4322,
      "duration": 0.0131,
      "velocity": 114,
      "chip": "ym2612"
    },
    {
      "channel": 2,
      "note": 40,
      "start": 1.4453,
      "duration": 0.0123,
      "velocity": 114,
      "chip": "ym2612"
    },
    {
      "channel": 2,
      "note": 40,
      "start": 1.4575,
      "duration": 0.0121,
      "velocity": 114,
      "chip": "ym2612"
    },
    {
      "channel": 2,
      "note": 40,
      "start": 1.4696,
      "duration": 0.0125,
      "velocity": 114,
      "chip": "ym2612"
    },
    {
      "channel": 2,
      "note": 40,
      "start": 1.4822,
      "duration": 0.013,
      "velocity": 114,
      "chip": "ym2612"
    },
    {
      "channel": 2,
      "note": 40,
      "start": 1.4952,
      "duration": 0.0119,
      "velocity": 114,
      "chip": "ym2612"
    },
    {
      "channel": 2,
      "note": 40,
      "start": 1.5071,
      "duration": 0.013,
      "velocity": 114,
      "chip": "ym2612"
    },
    {
      "channel": 2,
      "note": 40,
      "start": 1.5201,
      "duration": 0.012,
      "velocity": 114,
      "chip": "ym2612"
    },
    {
      "channel": 2,
      "note": 40,
      "start": 1.5321,
      "duration": 0.0131,
      "velocity": 114,
      "chip": "ym2612"
    },
    {
      "channel": 2,
      "note": 39,
      "start": 1.5452,
      "duration": 0.0118,
      "velocity": 114,
      "chip": "ym2612"
    },
    {
      "channel": 1,
      "note": 53,
      "start": 1.6304,
      "duration": 0.0494,
      "velocity": 81,
      "chip": "ym2612"
    },
    {
      "channel": 2,
      "note": 40,
      "start": 1.6355,
      "duration": 0.0097,
      "velocity": 114,
      "chip": "ym2612"
    },
    {
      "channel": 2,
      "note": 40,
      "start": 1.6452,
      "duration": 0.0119,
      "velocity": 114,
      "chip": "ym2612"
    },
    {
      "channel": 2,
      "note": 40,
      "start": 1.6571,
      "duration": 0.0128,
      "velocity": 114,
      "chip": "ym2612"
    },
    {
      "channel": 2,
      "note": 40,
      "start": 1.6699,
      "duration": 0.0127,
      "velocity": 114,
      "chip": "ym2612"
    },
    {
      "channel": 2,
      "note": 40,
      "start": 1.6827,
      "duration": 0.0125,
      "velocity": 114,
      "chip": "ym2612"
    },
    {
      "channel": 2,
      "note": 40,
      "start": 1.6952,
      "duration": 0.0119,
      "velocity": 114,
      "chip": "ym2612"
    },
    {
      "channel": 2,
      "note": 40,
      "start": 1.7071,
      "duration": 0.0125,
      "velocity": 114,
      "chip": "ym2612"
    },
    {
      "channel": 2,
      "note": 40,
      "start": 1.7196,
      "duration": 0.0143,
      "velocity": 114,
      "chip": "ym2612"
    },
    {
      "channel": 1,
      "note": 53,
      "start": 1.7304,
      "duration": 0.0994,
      "velocity": 81,
      "chip": "ym2612"
    },
    {
      "channel": 2,
      "note": 40,
      "start": 1.7461,
      "duration": 0.011,
      "velocity": 114,
      "chip": "ym2612"
    },
    {
      "channel": 2,
      "note": 40,
      "start": 1.7571,
      "duration": 0.0125,
      "velocity": 114,
      "chip": "ym2612"
    },
    {
      "channel": 2,
      "note": 40,
      "start": 1.7696,
      "duration": 0.0129,
      "velocity": 114,
      "chip": "ym2612"
    },
    {
      "channel": 2,
      "note": 40,
      "start": 1.7825,
      "duration": 0.0127,
      "velocity": 114,
      "chip": "ym2612"
    },
    {
      "channel": 2,
      "note": 40,
      "start": 1.7952,
      "duration": 0.0119,
      "velocity": 114,
      "chip": "ym2612"
    },
    {
      "channel": 2,
      "note": 40,
      "start": 1.8071,
      "duration": 0.0125,
      "velocity": 114,
      "chip": "ym2612"
    },
    {
      "channel": 2,
      "note": 40,
      "start": 1.8196,
      "duration": 0.0131,
      "velocity": 114,
      "chip": "ym2612"
    },
    {
      "channel": 2,
      "note": 40,
      "start": 1.8327,
      "duration": 0.0125,
      "velocity": 114,
      "chip": "ym2612"
    },
    {
      "channel": 2,
      "note": 40,
      "start": 1.8452,
      "duration": 0.0119,
      "velocity": 114,
      "chip": "ym2612"
    },
    {
      "channel": 2,
      "note": 40,
      "start": 1.8571,
      "duration": 0.0125,
      "velocity": 114,
      "chip": "ym2612"
    },
    {
      "channel": 2,
      "note": 39,
      "start": 1.8696,
      "duration": 0.0125,
      "velocity": 114,
      "chip": "ym2612"
    },
    {
      "channel": 1,
      "note": 53,
      "start": 1.9304,
      "duration": 0.0619,
      "velocity": 81,
      "chip": "ym2612"
    },
    {
      "channel": 2,
      "note": 40,
      "start": 1.9355,
      "duration": 0.0097,
      "velocity": 114,
      "chip": "ym2612"
    },
    {
      "channel": 2,
      "note": 40,
      "start": 1.9452,
      "duration": 0.0119,
      "velocity": 114,
      "chip": "ym2612"
    },
    {
      "channel": 2,
      "note": 40,
      "start": 1.9571,
      "duration": 0.0128,
      "velocity": 114,
      "chip": "ym2612"
    },
    {
      "channel": 2,
      "note": 40,
      "start": 1.9699,
      "duration": 0.0122,
      "velocity": 114,
      "chip": "ym2612"
    },
    {
      "channel": 2,
      "note": 40,
      "start": 1.9821,
      "duration": 0.0137,
      "velocity": 114,
      "chip": "ym2612"
    },
    {
      "channel": 2,
      "note": 40,
      "start": 1.9958,
      "duration": 0.0113,
      "velocity": 114,
      "chip": "ym2612"
    },
    {
      "channel": 2,
      "note": 40,
      "start": 2.0071,
      "duration": 0.0125,
      "velocity": 114,
      "chip": "ym2612"
    },
    {
      "channel": 2,
      "note": 40,
      "start": 2.0196,
      "duration": 0.0143,
      "velocity": 114,
      "chip": "ym2612"
    },
    {
      "channel": 1,
      "note": 53,
      "start": 2.0304,
      "duration": 0.0995,
      "velocity": 81,
      "chip": "ym2612"
    },
    {
      "channel": 2,
      "note": 40,
      "start": 2.0461,
      "duration": 0.011,
      "velocity": 114,
      "chip": "ym2612"
    },
    {
      "channel": 2,
      "note": 40,
      "start": 2.0571,
      "duration": 0.0125,
      "velocity": 114,
      "chip": "ym2612"
    },
    {
      "channel": 2,
      "note": 40,
      "start": 2.0696,
      "duration": 0.0129,
      "velocity": 114,
      "chip": "ym2612"
    },
    {
      "channel": 2,
      "note": 40,
      "start": 2.0825,
      "duration": 0.0127,
      "velocity": 114,
      "chip": "ym2612"
    },
    {
      "channel": 2,
      "note": 40,
      "start": 2.0952,
      "duration": 0.0119,
      "velocity": 114,
      "chip": "ym2612"
    },
    {
      "channel": 2,
      "note": 40,
      "start": 2.1071,
      "duration": 0.0125,
      "velocity": 114,
      "chip": "ym2612"
    },
    {
      "channel": 2,
      "note": 40,
      "start": 2.1196,
      "duration": 0.0143,
      "velocity": 114,
      "chip": "ym2612"
    },
    {
      "channel": 1,
      "note": 59,
      "start": 2.1304,
      "duration": 0.0995,
      "velocity": 81,
      "chip": "ym2612"
    },
    {
      "channel": 2,
      "note": 40,
      "start": 2.1461,
      "duration": 0.011,
      "velocity": 114,
      "chip": "ym2612"
    },
    {
      "channel": 2,
      "note": 40,
      "start": 2.1571,
      "duration": 0.0125,
      "velocity": 114,
      "chip": "ym2612"
    },
    {
      "channel": 2,
      "note": 40,
      "start": 2.1696,
      "duration": 0.0129,
      "velocity": 114,
      "chip": "ym2612"
    },
    {
      "channel": 2,
      "note": 40,
      "start": 2.1825,
      "duration": 0.0127,
      "velocity": 114,
      "chip": "ym2612"
    },
    {
      "channel": 2,
      "note": 40,
      "start": 2.1952,
      "duration": 0.0119,
      "velocity": 114,
      "chip": "ym2612"
    },
    {
      "channel": 2,
      "note": 40,
      "start": 2.2071,
      "duration": 0.0125,
      "velocity": 114,
      "chip": "ym2612"
    },
    {
      "channel": 2,
      "note": 40,
      "start": 2.2196,
      "duration": 0.0143,
      "velocity": 114,
      "chip": "ym2612"
    },
    {
      "channel": 1,
      "note": 65,
      "start": 2.2304,
      "duration": 0.0995,
      "velocity": 81,
      "chip": "ym2612"
    },
    {
      "channel": 2,
      "note": 40,
      "start": 2.2461,
      "duration": 0.011,
      "velocity": 114,
      "chip": "ym2612"
    },
    {
      "channel": 2,
      "note": 40,
      "start": 2.2571,
      "duration": 0.0125,
      "velocity": 114,
      "chip": "ym2612"
    },
    {
      "channel": 2,
      "note": 40,
      "start": 2.2696,
      "duration": 0.0129,
      "velocity": 114,
      "chip": "ym2612"
    },
    {
      "channel": 2,
      "note": 40,
      "start": 2.2825,
      "duration": 0.0127,
      "velocity": 114,
      "chip": "ym2612"
    },
    {
      "channel": 2,
      "note": 40,
      "start": 2.2952,
      "duration": 0.0119,
      "velocity": 114,
      "chip": "ym2612"
    },
    {
      "channel": 2,
      "note": 40,
      "start": 2.3071,
      "duration": 0.0125,
      "velocity": 114,
      "chip": "ym2612"
    },
    {
      "channel": 2,
      "note": 40,
      "start": 2.3196,
      "duration": 0.0143,
      "velocity": 114,
      "chip": "ym2612"
    },
    {
      "channel": 1,
      "note": 59,
      "start": 2.3304,
      "duration": 0.1127,
      "velocity": 81,
      "chip": "ym2612"
    },
    {
      "channel": 2,
      "note": 40,
      "start": 2.3461,
      "duration": 0.011,
      "velocity": 114,
      "chip": "ym2612"
    },
    {
      "channel": 2,
      "note": 40,
      "start": 2.3571,
      "duration": 0.0125,
      "velocity": 114,
      "chip": "ym2612"
    },
    {
      "channel": 2,
      "note": 40,
      "start": 2.3696,
      "duration": 0.0129,
      "velocity": 114,
      "chip": "ym2612"
    },
    {
      "channel": 2,
      "note": 40,
      "start": 2.3825,
      "duration": 0.0127,
      "velocity": 114,
      "chip": "ym2612"
    },
    {
      "channel": 2,
      "note": 40,
      "start": 2.3952,
      "duration": 0.0119,
      "velocity": 114,
      "chip": "ym2612"
    },
    {
      "channel": 2,
      "note": 40,
      "start": 2.4071,
      "duration": 0.0125,
      "velocity": 114,
      "chip": "ym2612"
    },
    {
      "channel": 2,
      "note": 40,
      "start": 2.4196,
      "duration": 0.0125,
      "velocity": 114,
      "chip": "ym2612"
    },
    {
      "channel": 2,
      "note": 40,
      "start": 2.4321,
      "duration": 0.0169,
      "velocity": 114,
      "chip": "ym2612"
    },
    {
      "channel": 1,
      "note": 53,
      "start": 2.4436,
      "duration": 0.0483,
      "velocity": 81,
      "chip": "ym2612"
    },
    {
      "channel": 2,
      "note": 40,
      "start": 2.4577,
      "duration": 0.0115,
      "velocity": 114,
      "chip": "ym2612"
    },
    {
      "channel": 2,
      "note": 40,
      "start": 2.4692,
      "duration": 0.0126,
      "velocity": 114,
      "chip": "ym2612"
    },
    {
      "channel": 2,
      "note": 40,
      "start": 2.4818,
      "duration": 0.014,
      "velocity": 114,
      "chip": "ym2612"
    },
    {
      "channel": 2,
      "note": 40,
      "start": 2.4958,
      "duration": 0.011,
      "velocity": 114,
      "chip": "ym2612"
    },
    {
      "channel": 2,
      "note": 40,
      "start": 2.5067,
      "duration": 0.0125,
      "velocity": 114,
      "chip": "ym2612"
    },
    {
      "channel": 2,
      "note": 40,
      "start": 2.5192,
      "duration": 0.0126,
      "velocity": 114,
      "chip": "ym2612"
    },
    {
      "channel": 2,
      "note": 40,
      "start": 2.5318,
      "duration": 0.0148,
      "velocity": 114,
      "chip": "ym2612"
    },
    {
      "channel": 1,
      "note": 53,
      "start": 2.5425,
      "duration": 0.0994,
      "velocity": 81,
      "chip": "ym2612"
    },
    {
      "channel": 2,
      "note": 40,
      "start": 2.5577,
      "duration": 0.0115,
      "velocity": 114,
      "chip": "ym2612"
    },
    {
      "channel": 2,
      "note": 40,
      "start": 2.5692,
      "duration": 0.0129,
      "velocity": 114,
      "chip": "ym2612"
    },
    {
      "channel": 2,
      "note": 40,
      "start": 2.582,
      "duration": 0.0128,
      "velocity": 114,
      "chip": "ym2612"
    },
    {
      "channel": 2,
      "note": 40,
      "start": 2.5949,
      "duration": 0.0115,
      "velocity": 114,
      "chip": "ym2612"
    },
    {
      "channel": 2,
      "note": 40,
      "start": 2.6063,
      "duration": 0.0125,
      "velocity": 114,
      "chip": "ym2612"
    },
    {
      "channel": 2,
      "note": 40,
      "start": 2.6189,
      "duration": 0.0125,
      "velocity": 114,
      "chip": "ym2612"
    },
    {
      "channel": 2,
      "note": 40,
      "start": 2.6314,
      "duration": 0.0136,
      "velocity": 114,
      "chip": "ym2612"
    },
    {
      "channel": 2,
      "note": 40,
      "start": 2.645,
      "duration": 0.0113,
      "velocity": 114,
      "chip": "ym2612"
    },
    {
      "channel": 2,
      "note": 40,
      "start": 2.6563,
      "duration": 0.0125,
      "velocity": 114,
      "chip": "ym2612"
    },
    {
      "channel": 2,
      "note": 40,
      "start": 2.6689,
      "duration": 0.0125,
      "velocity": 114,
      "chip": "ym2612"
    },
    {
      "channel": 2,
      "note": 39,
      "start": 2.6814,
      "duration": 0.0131,
      "velocity": 114,
      "chip": "ym2612"
    },
    {
      "channel": 1,
      "note": 53,
      "start": 2.7429,
      "duration": 0.0619,
      "velocity": 81,
      "chip": "ym2612"
    },
    {
      "channel": 2,
      "note": 40,
      "start": 2.7482,
      "duration": 0.0085,
      "velocity": 114,
      "chip": "ym2612"
    },
    {
      "channel": 2,
      "note": 40,
      "start": 2.7567,
      "duration": 0.0125,
      "velocity": 114,
      "chip": "ym2612"
    },
    {
      "channel": 2,
      "note": 40,
      "start": 2.7692,
      "duration": 0.0129,
      "velocity": 114,
      "chip": "ym2612"
    },
    {
      "channel": 2,
      "note": 40,
      "start": 2.7821,
      "duration": 0.0127,
      "velocity": 114,
      "chip": "ym2612"
    },
    {
      "channel": 2,
      "note": 40,
      "start": 2.7948,
      "duration": 0.0125,
      "velocity": 114,
      "chip": "ym2612"
    },
    {
      "channel": 2,
      "note": 40,
      "start": 2.8073,
      "duration": 0.0119,
      "velocity": 114,
      "chip": "ym2612"
    },
    {
      "channel": 2,
      "note": 40,
      "start": 2.8192,
      "duration": 0.0129,
      "velocity": 114,
      "chip": "ym2612"
    },
    {
      "channel": 2,
      "note": 40,
      "start": 2.8321,
      "duration": 0.0149,
      "velocity": 114,
      "chip": "ym2612"
    },
    {
      "channel": 1,
      "note": 53,
      "start": 2.8429,
      "duration": 0.0994,
      "velocity": 81,
      "chip": "ym2612"
    },
    {
      "channel": 2,
      "note": 40,
      "start": 2.858,
      "duration": 0.0115,
      "velocity": 114,
      "chip": "ym2612"
    },
    {
      "channel": 2,
      "note": 40,
      "start": 2.8696,
      "duration": 0.0125,
      "velocity": 114,
      "chip": "ym2612"
    },
    {
      "channel": 2,
      "note": 40,
      "start": 2.8821,
      "duration": 0.0135,
      "velocity": 114,
      "chip": "ym2612"
    },
    {
      "channel": 2,
      "note": 40,
      "start": 2.8956,
      "duration": 0.0115,
      "velocity": 114,
      "chip": "ym2612"
    },
    {
      "channel": 2,
      "note": 40,
      "start": 2.9071,
      "duration": 0.0125,
      "velocity": 114,
      "chip": "ym2612"
    },
    {
      "channel": 2,
      "note": 40,
      "start": 2.9196,
      "duration": 0.0125,
      "velocity": 114,
      "chip": "ym2612"
    },
    {
      "channel": 2,
      "note": 40,
      "start": 2.9321,
      "duration": 0.0137,
      "velocity": 114,
      "chip": "ym2612"
    },
    {
      "channel": 2,
      "note": 40,
      "start": 2.9458,
      "duration": 0.0113,
      "velocity": 114,
      "chip": "ym2612"
    },
    {
      "channel": 2,
      "note": 40,
      "start": 2.9571,
      "duration": 0.0125,
      "velocity": 114,
      "chip": "ym2612"
    },
    {
      "channel": 2,
      "note": 40,
      "start": 2.9696,
      "duration": 0.0125,
      "velocity": 114,
      "chip": "ym2612"
    },
    {
      "channel": 2,
      "note": 39,
      "start": 2.9821,
      "duration": 0.013,
      "velocity": 114,
      "chip": "ym2612"
    },
    {
      "channel": 1,
      "note": 53,
      "start": 3.0429,
      "duration": 0.0619,
      "velocity": 81,
      "chip": "ym2612"
    },
    {
      "channel": 2,
      "note": 40,
      "start": 3.0485,
      "duration": 0.0086,
      "velocity": 114,
      "chip": "ym2612"
    },
    {
      "channel": 2,
      "note": 40,
      "start": 3.0571,
      "duration": 0.0125,
      "velocity": 114,
      "chip": "ym2612"
    },
    {
      "channel": 2,
      "note": 40,
      "start": 3.0696,
      "duration": 0.0129,
      "velocity": 114,
      "chip": "ym2612"
    },
    {
      "channel": 2,
      "note": 40,
      "start": 3.0825,
      "duration": 0.0127,
      "velocity": 114,
      "chip": "ym2612"
    },
    {
      "channel": 2,
      "note": 40,
      "start": 3.0952,
      "duration": 0.0125,
      "velocity": 114,
      "chip": "ym2612"
    },
    {
      "channel": 2,
      "note": 40,
      "start": 3.1077,
      "duration": 0.0119,
      "velocity": 114,
      "chip": "ym2612"
    },
    {
      "channel": 2,
      "note": 40,
      "start": 3.1196,
      "duration": 0.0125,
      "velocity": 114,
      "chip": "ym2612"
    },
    {
      "channel": 2,
      "note": 40,
      "start": 3.1321,
      "duration": 0.0149,
      "velocity": 114,
      "chip": "ym2612"
    },
    {
      "channel": 1,
      "note": 53,
      "start": 3.1429,
      "duration": 0.1119,
      "velocity": 81,
      "chip": "ym2612"
    },
    {
      "channel": 2,
      "note": 40,
      "start": 3.158,
      "duration": 0.0115,
      "velocity": 114,
      "chip": "ym2612"
    },
    {
      "channel": 2,
      "note": 40,
      "start": 3.1696,
      "duration": 0.0125,
      "velocity": 114,
      "chip": "ym2612"
    },
    {
      "channel": 2,
      "note": 40,
      "start": 3.1821,
      "duration": 0.0135,
      "velocity": 114,
      "chip": "ym2612"
    },
    {
      "channel": 2,
      "note": 40,
      "start": 3.1956,
      "duration": 0.0115,
      "velocity": 114,
      "chip": "ym2612"
    },
    {
      "channel": 2,
      "note": 40,
      "start": 3.2071,
      "duration": 0.0125,
      "velocity": 114,
      "chip": "ym2612"
    },
    {
      "channel": 2,
      "note": 40,
      "start": 3.2196,
      "duration": 0.0125,
      "velocity": 114,
      "chip": "ym2612"
    },
    {
      "channel": 2,
      "note": 40,
      "start": 3.2321,
      "duration": 0.0131,
      "velocity": 114,
      "chip": "ym2612"
    },
    {
      "channel": 2,
      "note": 40,
      "start": 3.2452,
      "duration": 0.0124,
      "velocity": 114,
      "chip": "ym2612"
    },
    {
      "channel": 2,
      "note": 40,
      "start": 3.2576,
      "duration": 0.012,
      "velocity": 114,
      "chip": "ym2612"
    },
    {
      "channel": 2,
      "note": 40,
      "start": 3.2696,
      "duration": 0.0126,
      "velocity": 114,
      "chip": "ym2612"
    },
    {
      "channel": 2,
      "note": 39,
      "start": 3.2822,
      "duration": 0.013,
      "velocity": 114,
      "chip": "ym2612"
    },
    {
      "channel": 1,
      "note": 53,
      "start": 3.3554,
      "duration": 0.0619,
      "velocity": 81,
      "chip": "ym2612"
    },
    {
      "channel": 2,
      "note": 40,
      "start": 3.3604,
      "duration": 0.0092,
      "velocity": 114,
      "chip": "ym2612"
    },
    {
      "channel": 2,
      "note": 40,
      "start": 3.3696,
      "duration": 0.0125,
      "velocity": 114,
      "chip": "ym2612"
    },
    {
      "channel": 2,
      "note": 40,
      "start": 3.3821,
      "duration": 0.0135,
      "velocity": 114,
      "chip": "ym2612"
    },
    {
      "channel": 2,
      "note": 40,
      "start": 3.3956,
      "duration": 0.0115,
      "velocity": 114,
      "chip": "ym2612"
    },
    {
      "channel": 2,
      "note": 40,
      "start": 3.4071,
      "duration": 0.013,
      "velocity": 114,
      "chip": "ym2612"
    },
    {
      "channel": 2,
      "note": 40,
      "start": 3.4201,
      "duration": 0.012,
      "velocity": 114,
      "chip": "ym2612"
    },
    {
      "channel": 2,
      "note": 40,
      "start": 3.4321,
      "duration": 0.0131,
      "velocity": 114,
      "chip": "ym2612"
    },
    {
      "channel": 2,
      "note": 40,
      "start": 3.4452,
      "duration": 0.0137,
      "velocity": 114,
      "chip": "ym2612"
    },
    {
      "channel": 1,
      "note": 53,
      "start": 3.4554,
      "duration": 0.0994,
      "velocity": 81,
      "chip": "ym2612"
    },
    {
      "channel": 2,
      "note": 40,
      "start": 3.4705,
      "duration": 0.0116,
      "velocity": 114,
      "chip": "ym2612"
    },
    {
      "channel": 2,
      "note": 40,
      "start": 3.4821,
      "duration": 0.0131,
      "velocity": 114,
      "chip": "ym2612"
    },
    {
      "channel": 2,
      "note": 40,
      "start": 3.4952,
      "duration": 0.0123,
      "velocity": 114,
      "chip": "ym2612"
    },
    {
      "channel": 2,
      "note": 40,
      "start": 3.5075,
      "duration": 0.0121,
      "velocity": 114,
      "chip": "ym2612"
    },
    {
      "channel": 2,
      "note": 40,
      "start": 3.5196,
      "duration": 0.0125,
      "velocity": 114,
      "chip": "ym2612"
    },
    {
      "channel": 2,
      "note": 40,
      "start": 3.5321,
      "duration": 0.0131,
      "velocity": 114,
      "chip": "ym2612"
    },
    {
      "channel": 2,
      "note": 40,
      "start": 3.5452,
      "duration": 0.0124,
      "velocity": 114,
      "chip": "ym2612"
    },
    {
      "channel": 2,
      "note": 40,
      "start": 3.5576,
      "duration": 0.012,
      "velocity": 114,
      "chip": "ym2612"
    },
    {
      "channel": 2,
      "note": 40,
      "start": 3.5696,
      "duration": 0.0126,
      "velocity": 114,
      "chip": "ym2612"
    },
    {
      "channel": 2,
      "note": 40,
      "start": 3.5822,
      "duration": 0.013,
      "velocity": 114,
      "chip": "ym2612"
    },
    {
      "channel": 2,
      "note": 39,
      "start": 3.5952,
      "duration": 0.0118,
      "velocity": 114,
      "chip": "ym2612"
    },
    {
      "channel": 1,
      "note": 53,
      "start": 3.6554,
      "duration": 0.0994,
      "velocity": 81,
      "chip": "ym2612"
    },
    {
      "channel": 2,
      "note": 40,
      "start": 3.6604,
      "duration": 0.0092,
      "velocity": 114,
      "chip": "ym2612"
    },
    {
      "channel": 2,
      "note": 40,
      "start": 3.6696,
      "duration": 0.0125,
      "velocity": 114,
      "chip": "ym2612"
    },
    {
      "channel": 2,
      "note": 40,
      "start": 3.6821,
      "duration": 0.0135,
      "velocity": 114,
      "chip": "ym2612"
    },
    {
      "channel": 2,
      "note": 40,
      "start": 3.6956,
      "duration": 0.0115,
      "velocity": 114,
      "chip": "ym2612"
    },
    {
      "channel": 2,
      "note": 40,
      "start": 3.7071,
      "duration": 0.0125,
      "velocity": 114,
      "chip": "ym2612"
    },
    {
      "channel": 2,
      "note": 40,
      "start": 3.7196,
      "duration": 0.0126,
      "velocity": 114,
      "chip": "ym2612"
    },
    {
      "channel": 2,
      "note": 40,
      "start": 3.7322,
      "duration": 0.013,
      "velocity": 114,
      "chip": "ym2612"
    },
    {
      "channel": 2,
      "note": 40,
      "start": 3.7452,
      "duration": 0.0124,
      "velocity": 114,
      "chip": "ym2612"
    },
    {
      "channel": 2,
      "note": 40,
      "start": 3.7576,
      "duration": 0.012,
      "velocity": 114,
      "chip": "ym2612"
    },
    {
      "channel": 2,
      "note": 40,
      "start": 3.7696,
      "duration": 0.0125,
      "velocity": 114,
      "chip": "ym2612"
    },
    {
      "channel": 2,
      "note": 39,
      "start": 3.7821,
      "duration": 0.013,
      "velocity": 114,
      "chip": "ym2612"
    },
    {
      "channel": 1,
      "note": 53,
      "start": 3.8554,
      "duration": 0.0994,
      "velocity": 81,
      "chip": "ym2612"
    },
    {
      "channel": 2,
      "note": 40,
      "start": 3.8604,
      "duration": 0.0092,
      "velocity": 114,
      "chip": "ym2612"
    },
    {
      "channel": 2,
      "note": 40,
      "start": 3.8696,
      "duration": 0.0126,
      "velocity": 114,
      "chip": "ym2612"
    },
    {
      "channel": 2,
      "note": 40,
      "start": 3.8822,
      "duration": 0.0134,
      "velocity": 114,
      "chip": "ym2612"
    },
    {
      "channel": 2,
      "note": 40,
      "start": 3.8956,
      "duration": 0.0115,
      "velocity": 114,
      "chip": "ym2612"
    },
    {
      "channel": 2,
      "note": 40,
      "start": 3.9071,
      "duration": 0.0125,
      "velocity": 114,
      "chip": "ym2612"
    },
    {
      "channel": 2,
      "note": 40,
      "start": 3.9196,
      "duration": 0.0125,
      "velocity": 114,
      "chip": "ym2612"
    },
    {
      "channel": 2,
      "note": 40,
      "start": 3.9321,
      "duration": 0.0131,
      "velocity": 114,
      "chip": "ym2612"
    },
    {
      "channel": 2,
      "note": 40,
      "start": 3.9452,
      "duration": 0.0124,
      "velocity": 114,
      "chip": "ym2612"
    },
    {
      "channel": 2,
      "note": 40,
      "start": 3.9576,
      "duration": 0.012,
      "velocity": 114,
      "chip": "ym2612"
    },
    {
      "channel": 2,
      "note": 40,
      "start": 3.9696,
      "duration": 0.0125,
      "velocity": 114,
      "chip": "ym2612"
    },
    {
      "channel": 2,
      "note": 39,
      "start": 3.9821,
      "duration": 0.013,
      "velocity": 114,
      "chip": "ym2612"
    },
    {
      "channel": 1,
      "note": 53,
      "start": 4.0678,
      "duration": 0.0494,
      "velocity": 81,
      "chip": "ym2612"
    },
    {
      "channel": 2,
      "note": 40,
      "start": 4.0729,
      "duration": 0.0092,
      "velocity": 114,
      "chip": "ym2612"
    },
    {
      "channel": 2,
      "note": 40,
      "start": 4.0821,
      "duration": 0.0131,
      "velocity": 114,
      "chip": "ym2612"
    },
    {
      "channel": 2,
      "note": 40,
      "start": 4.0952,
      "duration": 0.0122,
      "velocity": 114,
      "chip": "ym2612"
    },
    {
      "channel": 2,
      "note": 40,
      "start": 4.1074,
      "duration": 0.0127,
      "velocity": 114,
      "chip": "ym2612"
    },
    {
      "channel": 2,
      "note": 40,
      "start": 4.1201,
      "duration": 0.012,
      "velocity": 114,
      "chip": "ym2612"
    },
    {
      "channel": 2,
      "note": 40,
      "start": 4.1321,
      "duration": 0.0131,
      "velocity": 114,
      "chip": "ym2612"
    },
    {
      "channel": 2,
      "note": 40,
      "start": 4.1452,
      "duration": 0.0119,
      "velocity": 114,
      "chip": "ym2612"
    },
    {
      "channel": 2,
      "note": 40,
      "start": 4.1571,
      "duration": 0.0142,
      "velocity": 114,
      "chip": "ym2612"
    },
    {
      "channel": 1,
      "note": 53,
      "start": 4.1678,
      "duration": 0.0994,
      "velocity": 81,
      "chip": "ym2612"
    },
    {
      "channel": 2,
      "note": 40,
      "start": 4.1831,
      "duration": 0.0121,
      "velocity": 114,
      "chip": "ym2612"
    },
    {
      "channel": 2,
      "note": 40,
      "start": 4.1952,
      "duration": 0.0119,
      "velocity": 114,
      "chip": "ym2612"
    },
    {
      "channel": 2,
      "note": 40,
      "start": 4.2071,
      "duration": 0.0128,
      "velocity": 114,
      "chip": "ym2612"
    },
    {
      "channel": 2,
      "note": 40,
      "start": 4.2199,
      "duration": 0.0122,
      "velocity": 114,
      "chip": "ym2612"
    },
    {
      "channel": 2,
      "note": 40,
      "start": 4.2321,
      "duration": 0.0131,
      "velocity": 114,
      "chip": "ym2612"
    },
    {
      "channel": 2,
      "note": 40,
      "start": 4.2452,
      "duration": 0.0119,
      "velocity": 114,
      "chip": "ym2612"
    },
    {
      "channel": 2,
      "note": 40,
      "start": 4.2571,
      "duration": 0.013,
      "velocity": 114,
      "chip": "ym2612"
    },
    {
      "channel": 2,
      "note": 40,
      "start": 4.2701,
      "duration": 0.012,
      "velocity": 114,
      "chip": "ym2612"
    },
    {
      "channel": 2,
      "note": 40,
      "start": 4.2821,
      "duration": 0.0131,
      "velocity": 114,
      "chip": "ym2612"
    },
    {
      "channel": 2,
      "note": 40,
      "start": 4.2952,
      "duration": 0.0119,
      "velocity": 114,
      "chip": "ym2612"
    },
    {
      "channel": 2,
      "note": 39,
      "start": 4.3071,
      "duration": 0.0124,
      "velocity": 114,
      "chip": "ym2612"
    },
    {
      "channel": 1,
      "note": 53,
      "start": 4.3678,
      "duration": 0.062,
      "velocity": 81,
      "chip": "ym2612"
    },
    {
      "channel": 2,
      "note": 40,
      "start": 4.3729,
      "duration": 0.0092,
      "velocity": 114,
      "chip": "ym2612"
    },
    {
      "channel": 2,
      "note": 40,
      "start": 4.3821,
      "duration": 0.0131,
      "velocity": 114,
      "chip": "ym2612"
    },
    {
      "channel": 2,
      "note": 40,
      "start": 4.3952,
      "duration": 0.0122,
      "velocity": 114,
      "chip": "ym2612"
    },
    {
      "channel": 2,
      "note": 40,
      "start": 4.4074,
      "duration": 0.0122,
      "velocity": 114,
      "chip": "ym2612"
    },
    {
      "channel": 2,
      "note": 40,
      "start": 4.4196,
      "duration": 0.0131,
      "velocity": 114,
      "chip": "ym2612"
    },
    {
      "channel": 2,
      "note": 40,
      "start": 4.4327,
      "duration": 0.0125,
      "velocity": 114,
      "chip": "ym2612"
    },
    {
      "channel": 2,
      "note": 40,
      "start": 4.4452,
      "duration": 0.0119,
      "velocity": 114,
      "chip": "ym2612"
    },
    {
      "channel": 2,
      "note": 40,
      "start": 4.4571,
      "duration": 0.0142,
      "velocity": 114,
      "chip": "ym2612"
    },
    {
      "channel": 1,
      "note": 53,
      "start": 4.4678,
      "duration": 0.0995,
      "velocity": 81,
      "chip": "ym2612"
    },
    {
      "channel": 2,
      "note": 40,
      "start": 4.4831,
      "duration": 0.0121,
      "velocity": 114,
      "chip": "ym2612"
    },
    {
      "channel": 2,
      "note": 40,
      "start": 4.4952,
      "duration": 0.0119,
      "velocity": 114,
      "chip": "ym2612"
    },
    {
      "channel": 2,
      "note": 40,
      "start": 4.5071,
      "duration": 0.0128,
      "velocity": 114,
      "chip": "ym2612"
    },
    {
      "channel": 2,
      "note": 40,
      "start": 4.5199,
      "duration": 0.0122,
      "velocity": 114,
      "chip": "ym2612"
    },
    {
      "channel": 2,
      "note": 40,
      "start": 4.5321,
      "duration": 0.0131,
      "velocity": 114,
      "chip": "ym2612"
    },
    {
      "channel": 2,
      "note": 40,
      "start": 4.5452,
      "duration": 0.0119,
      "velocity": 114,
      "chip": "ym2612"
    },
    {
      "channel": 2,
      "note": 40,
      "start": 4.5571,
      "duration": 0.0142,
      "velocity": 114,
      "chip": "ym2612"
    },
    {
      "channel": 1,
      "note": 59,
      "start": 4.5678,
      "duration": 0.0995,
      "velocity": 81,
      "chip": "ym2612"
    },
    {
      "channel": 2,
      "note": 40,
      "start": 4.583,
      "duration": 0.0122,
      "velocity": 114,
      "chip": "ym2612"
    },
    {
      "channel": 2,
      "note": 40,
      "start": 4.5952,
      "duration": 0.0119,
      "velocity": 114,
      "chip": "ym2612"
    },
    {
      "channel": 2,
      "note": 40,
      "start": 4.6071,
      "duration": 0.0128,
      "velocity": 114,
      "chip": "ym2612"
    },
    {
      "channel": 2,
      "note": 40,
      "start": 4.6199,
      "duration": 0.0122,
      "velocity": 114,
      "chip": "ym2612"
    },
    {
      "channel": 2,
      "note": 40,
      "start": 4.6322,
      "duration": 0.013,
      "velocity": 114,
      "chip": "ym2612"
    },
    {
      "channel": 2,
      "note": 40,
      "start": 4.6452,
      "duration": 0.0119,
      "velocity": 114,
      "chip": "ym2612"
    },
    {
      "channel": 2,
      "note": 40,
      "start": 4.6571,
      "duration": 0.0142,
      "velocity": 114,
      "chip": "ym2612"
    },
    {
      "channel": 1,
      "note": 65,
      "start": 4.6678,
      "duration": 0.0995,
      "velocity": 81,
      "chip": "ym2612"
    },
    {
      "channel": 2,
      "note": 40,
      "start": 4.683,
      "duration": 0.0122,
      "velocity": 114,
      "chip": "ym2612"
    },
    {
      "channel": 2,
      "note": 40,
      "start": 4.6952,
      "duration": 0.0119,
      "velocity": 114,
      "chip": "ym2612"
    },
    {
      "channel": 2,
      "note": 40,
      "start": 4.7071,
      "duration": 0.0128,
      "velocity": 114,
      "chip": "ym2612"
    },
    {
      "channel": 2,
      "note": 40,
      "start": 4.7199,
      "duration": 0.0122,
      "velocity": 114,
      "chip": "ym2612"
    },
    {
      "channel": 2,
      "note": 40,
      "start": 4.7321,
      "duration": 0.0131,
      "velocity": 114,
      "chip": "ym2612"
    },
    {
      "channel": 2,
      "note": 40,
      "start": 4.7452,
      "duration": 0.0119,
      "velocity": 114,
      "chip": "ym2612"
    },
    {
      "channel": 2,
      "note": 40,
      "start": 4.7571,
      "duration": 0.0142,
      "velocity": 114,
      "chip": "ym2612"
    },
    {
      "channel": 1,
      "note": 59,
      "start": 4.7678,
      "duration": 0.1128,
      "velocity": 81,
      "chip": "ym2612"
    },
    {
      "channel": 2,
      "note": 40,
      "start": 4.7831,
      "duration": 0.0121,
      "velocity": 114,
      "chip": "ym2612"
    },
    {
      "channel": 2,
      "note": 40,
      "start": 4.7952,
      "duration": 0.0119,
      "velocity": 114,
      "chip": "ym2612"
    },
    {
      "channel": 2,
      "note": 40,
      "start": 4.8071,
      "duration": 0.0128,
      "velocity": 114,
      "chip": "ym2612"
    },
    {
      "channel": 2,
      "note": 40,
      "start": 4.8199,
      "duration": 0.0122,
      "velocity": 114,
      "chip": "ym2612"
    },
    {
      "channel": 2,
      "note": 40,
      "start": 4.8321,
      "duration": 0.0131,
      "velocity": 114,
      "chip": "ym2612"
    },
    {
      "channel": 2,
      "note": 40,
      "start": 4.8452,
      "duration": 0.0119,
      "velocity": 114,
      "chip": "ym2612"
    },
    {
      "channel": 2,
      "note": 40,
      "start": 4.8571,
      "duration": 0.0125,
      "velocity": 114,
      "chip": "ym2612"
    },
    {
      "channel": 2,
      "note": 40,
      "start": 4.8696,
      "duration": 0.0163,
      "velocity": 114,
      "chip": "ym2612"
    },
    {
      "channel": 1,
      "note": 53,
      "start": 4.8811,
      "duration": 0.0483,
      "velocity": 81,
      "chip": "ym2612"
    },
    {
      "channel": 2,
      "note": 40,
      "start": 4.8958,
      "duration": 0.011,
      "velocity": 114,
      "chip": "ym2612"
    },
    {
      "channel": 2,
      "note": 40,
      "start": 4.9067,
      "duration": 0.0125,
      "velocity": 114,
      "chip": "ym2612"
    },
    {
      "channel": 2,
      "note": 40,
      "start": 4.9192,
      "duration": 0.0135,
      "velocity": 114,
      "chip": "ym2612"
    },
    {
      "channel": 2,
      "note": 40,
      "start": 4.9327,
      "duration": 0.0121,
      "velocity": 114,
      "chip": "ym2612"
    },
    {
      "channel": 2,
      "note": 40,
      "start": 4.9448,
      "duration": 0.0119,
      "velocity": 114,
      "chip": "ym2612"
    },
    {
      "channel": 2,
      "note": 40,
      "start": 4.9567,
      "duration": 0.0125,
      "velocity": 114,
      "chip": "ym2612"
    },
    {
      "channel": 2,
      "note": 40,
      "start": 4.9692,
      "duration": 0.0144,
      "velocity": 114,
      "chip": "ym2612"
    },
    {
      "channel": 1,
      "note": 53,
      "start": 4.9801,
      "duration": 0.0994,
      "velocity": 81,
      "chip": "ym2612"
    },
    {
      "channel": 2,
      "note": 40,
      "start": 4.9958,
      "duration": 0.011,
      "velocity": 114,
      "chip": "ym2612"
    },
    {
      "channel": 2,
      "note": 40,
      "start": 5.0067,
      "duration": 0.0128,
      "velocity": 114,
      "chip": "ym2612"
    },
    {
      "channel": 2,
      "note": 40,
      "start": 5.0195,
      "duration": 0.0123,
      "velocity": 114,
      "chip": "ym2612"
    },
    {
      "channel": 2,
      "note": 40,
      "start": 5.0318,
      "duration": 0.0125,
      "velocity": 114,
      "chip": "ym2612"
    },
    {
      "channel": 2,
      "note": 40,
      "start": 5.0442,
      "duration": 0.0121,
      "velocity": 114,
      "chip": "ym2612"
    },
    {
      "channel": 2,
      "note": 40,
      "start": 5.0563,
      "duration": 0.0125,
      "velocity": 114,
      "chip": "ym2612"
    },
    {
      "channel": 2,
      "note": 40,
      "start": 5.0689,
      "duration": 0.0131,
      "velocity": 114,
      "chip": "ym2612"
    },
    {
      "channel": 2,
      "note": 40,
      "start": 5.082,
      "duration": 0.0123,
      "velocity": 114,
      "chip": "ym2612"
    },
    {
      "channel": 2,
      "note": 40,
      "start": 5.0942,
      "duration": 0.0121,
      "velocity": 114,
      "chip": "ym2612"
    },
    {
      "channel": 2,
      "note": 40,
      "start": 5.1063,
      "duration": 0.0125,
      "velocity": 114,
      "chip": "ym2612"
    },
    {
      "channel": 2,
      "note": 39,
      "start": 5.1189,
      "duration": 0.0128,
      "velocity": 114,
      "chip": "ym2612"
    },
    {
      "channel": 1,
      "note": 53,
      "start": 5.1804,
      "duration": 0.0619,
      "velocity": 81,
      "chip": "ym2612"
    },
    {
      "channel": 2,
      "note": 40,
      "start": 5.1851,
      "duration": 0.0097,
      "velocity": 114,
      "chip": "ym2612"
    },
    {
      "channel": 2,
      "note": 40,
      "start": 5.1948,
      "duration": 0.0119,
      "velocity": 114,
      "chip": "ym2612"
    },
    {
      "channel": 2,
      "note": 40,
      "start": 5.2067,
      "duration": 0.0129,
      "velocity": 114,
      "chip": "ym2612"
    },
    {
      "channel": 2,
      "note": 40,
      "start": 5.2196,
      "duration": 0.0121,
      "velocity": 114,
      "chip": "ym2612"
    },
    {
      "channel": 2,
      "note": 40,
      "start": 5.2317,
      "duration": 0.0137,
      "velocity": 114,
      "chip": "ym2612"
    },
    {
      "channel": 2,
      "note": 40,
      "start": 5.2454,
      "duration": 0.0113,
      "velocity": 114,
      "chip": "ym2612"
    },
    {
      "channel": 2,
      "note": 40,
      "start": 5.2567,
      "duration": 0.0129,
      "velocity": 114,
      "chip": "ym2612"
    },
    {
      "channel": 2,
      "note": 40,
      "start": 5.2696,
      "duration": 0.0143,
      "velocity": 114,
      "chip": "ym2612"
    },
    {
      "channel": 1,
      "note": 53,
      "start": 5.2804,
      "duration": 0.0994,
      "velocity": 81,
      "chip": "ym2612"
    },
    {
      "channel": 2,
      "note": 41,
      "start": 5.299,
      "duration": 0.1866,
      "velocity": 122,
      "chip": "ym2612"
    },
    {
      "channel": 1,
      "note": 53,
      "start": 5.4804,
      "duration": 0.0619,
      "velocity": 81,
      "chip": "ym2612"
    },
    {
      "channel": 2,
      "note": 40,
      "start": 5.4883,
      "duration": 0.0069,
      "velocity": 114,
      "chip": "ym2612"
    },
    {
      "channel": 2,
      "note": 40,
      "start": 5.4952,
      "duration": 0.0119,
      "velocity": 114,
      "chip": "ym2612"
    },
    {
      "channel": 2,
      "note": 40,
      "start": 5.5071,
      "duration": 0.0128,
      "velocity": 114,
      "chip": "ym2612"
    },
    {
      "channel": 2,
      "note": 40,
      "start": 5.5199,
      "duration": 0.0122,
      "velocity": 114,
      "chip": "ym2612"
    },
    {
      "channel": 2,
      "note": 40,
      "start": 5.5321,
      "duration": 0.0137,
      "velocity": 114,
      "chip": "ym2612"
    },
    {
      "channel": 2,
      "note": 40,
      "start": 5.5458,
      "duration": 0.0113,
      "velocity": 114,
      "chip": "ym2612"
    },
    {
      "channel": 2,
      "note": 40,
      "start": 5.5571,
      "duration": 0.0125,
      "velocity": 114,
      "chip": "ym2612"
    },
    {
      "channel": 2,
      "note": 40,
      "start": 5.5696,
      "duration": 0.0143,
      "velocity": 114,
      "chip": "ym2612"
    },
    {
      "channel": 1,
      "note": 53,
      "start": 5.5804,
      "duration": 0.1119,
      "velocity": 81,
      "chip": "ym2612"
    },
    {
      "channel": 2,
      "note": 40,
      "start": 5.5961,
      "duration": 0.011,
      "velocity": 114,
      "chip": "ym2612"
    },
    {
      "channel": 2,
      "note": 40,
      "start": 5.6071,
      "duration": 0.0125,
      "velocity": 114,
      "chip": "ym2612"
    },
    {
      "channel": 2,
      "note": 40,
      "start": 5.6196,
      "duration": 0.0129,
      "velocity": 114,
      "chip": "ym2612"
    },
    {
      "channel": 2,
      "note": 40,
      "start": 5.6325,
      "duration": 0.0127,
      "velocity": 114,
      "chip": "ym2612"
    },
    {
      "channel": 2,
      "note": 40,
      "start": 5.6452,
      "duration": 0.0119,
      "velocity": 114,
      "chip": "ym2612"
    },
    {
      "channel": 2,
      "note": 40,
      "start": 5.6571,
      "duration": 0.0125,
      "velocity": 114,
      "chip": "ym2612"
    },
    {
      "channel": 2,
      "note": 40,
      "start": 5.6696,
      "duration": 0.0125,
      "velocity": 114,
      "chip": "ym2612"
    },
    {
      "channel": 2,
      "note": 40,
      "start": 5.6821,
      "duration": 0.0137,
      "velocity": 114,
      "chip": "ym2612"
    },
    {
      "channel": 2,
      "note": 40,
      "start": 5.6958,
      "duration": 0.0113,
      "velocity": 114,
      "chip": "ym2612"
    },
    {
      "channel": 2,
      "note": 40,
      "start": 5.7071,
      "duration": 0.0125,
      "velocity": 114,
      "chip": "ym2612"
    },
    {
      "channel": 2,
      "note": 39,
      "start": 5.7196,
      "duration": 0.0124,
      "velocity": 114,
      "chip": "ym2612"
    },
    {
      "channel": 1,
      "note": 53,
      "start": 5.7929,
      "duration": 0.0619,
      "velocity": 81,
      "chip": "ym2612"
    },
    {
      "channel": 2,
      "note": 40,
      "start": 5.7986,
      "duration": 0.0085,
      "velocity": 114,
      "chip": "ym2612"
    },
    {
      "channel": 2,
      "note": 40,
      "start": 5.8071,
      "duration": 0.0125,
      "velocity": 114,
      "chip": "ym2612"
    },
    {
      "channel": 2,
      "note": 40,
      "start": 5.8196,
      "duration": 0.0129,
      "velocity": 114,
      "chip": "ym2612"
    },
    {
      "channel": 2,
      "note": 40,
      "start": 5.8325,
      "duration": 0.0127,
      "velocity": 114,
      "chip": "ym2612"
    },
    {
      "channel": 2,
      "note": 40,
      "start": 5.8452,
      "duration": 0.0125,
      "velocity": 114,
      "chip": "ym2612"
    },
    {
      "channel": 2,
      "note": 40,
      "start": 5.8577,
      "duration": 0.0119,
      "velocity": 114,
      "chip": "ym2612"
    },
    {
      "channel": 2,
      "note": 40,
      "start": 5.8696,
      "duration": 0.0126,
      "velocity": 114,
      "chip": "ym2612"
    },
    {
      "channel": 2,
      "note": 40,
      "start": 5.8822,
      "duration": 0.0148,
      "velocity": 114,
      "chip": "ym2612"
    },
    {
      "channel": 1,
      "note": 53,
      "start": 5.8929,
      "duration": 0.0994,
      "velocity": 81,
      "chip": "ym2612"
    },
    {
      "channel": 2,
      "note": 40,
      "start": 5.908,
      "duration": 0.0115,
      "velocity": 114,
      "chip": "ym2612"
    },
    {
      "channel": 2,
      "note": 40,
      "start": 5.9196,
      "duration": 0.0125,
      "velocity": 114,
      "chip": "ym2612"
    },
    {
      "channel": 2,
      "note": 40,
      "start": 5.9321,
      "duration": 0.0135,
      "velocity": 114,
      "chip": "ym2612"
    },
    {
      "channel": 2,
      "note": 40,
      "start": 5.9456,
      "duration": 0.0115,
      "velocity": 114,
      "chip": "ym2612"
    },
    {
      "channel": 2,
      "note": 40,
      "start": 5.9571,
      "duration": 0.0125,
      "velocity": 114,
      "chip": "ym2612"
    },
    {
      "channel": 2,
      "note": 40,
      "start": 5.9696,
      "duration": 0.0125,
      "velocity": 114,
      "chip": "ym2612"
    },
    {
      "channel": 2,
      "note": 40,
      "start": 5.9821,
      "duration": 0.0137,
      "velocity": 114,
      "chip": "ym2612"
    },
    {
      "channel": 2,
      "note": 40,
      "start": 5.9958,
      "duration": 0.0113,
      "velocity": 114,
      "chip": "ym2612"
    },
    {
      "channel": 2,
      "note": 40,
      "start": 6.0071,
      "duration": 0.0125,
      "velocity": 114,
      "chip": "ym2612"
    },
    {
      "channel": 2,
      "note": 40,
      "start": 6.0196,
      "duration": 0.0125,
      "velocity": 114,
      "chip": "ym2612"
    },
    {
      "channel": 2,
      "note": 39,
      "start": 6.0322,
      "duration": 0.013,
      "velocity": 114,
      "chip": "ym2612"
    },
    {
      "channel": 1,
      "note": 53,
      "start": 6.0929,
      "duration": 0.0994,
      "velocity": 81,
      "chip": "ym2612"
    },
    {
      "channel": 2,
      "note": 41,
      "start": 6.1013,
      "duration": 0.1973,
      "velocity": 122,
      "chip": "ym2612"
    },
    {
      "channel": 1,
      "note": 53,
      "start": 6.2929,
      "duration": 0.0994,
      "velocity": 81,
      "chip": "ym2612"
    },
    {
      "channel": 2,
      "note": 40,
      "start": 6.3014,
      "duration": 0.0057,
      "velocity": 114,
      "chip": "ym2612"
    },
    {
      "channel": 2,
      "note": 40,
      "start": 6.3071,
      "duration": 0.0125,
      "velocity": 114,
      "chip": "ym2612"
    },
    {
      "channel": 2,
      "note": 40,
      "start": 6.3196,
      "duration": 0.0129,
      "velocity": 114,
      "chip": "ym2612"
    },
    {
      "channel": 2,
      "note": 40,
      "start": 6.3325,
      "duration": 0.0127,
      "velocity": 114,
      "chip": "ym2612"
    },
    {
      "channel": 2,
      "note": 40,
      "start": 6.3452,
      "duration": 0.0119,
      "velocity": 114,
      "chip": "ym2612"
    },
    {
      "channel": 2,
      "note": 40,
      "start": 6.3571,
      "duration": 0.0125,
      "velocity": 114,
      "chip": "ym2612"
    },
    {
      "channel": 2,
      "note": 40,
      "start": 6.3696,
      "duration": 0.0125,
      "velocity": 114,
      "chip": "ym2612"
    },
    {
      "channel": 2,
      "note": 40,
      "start": 6.3821,
      "duration": 0.0137,
      "velocity": 114,
      "chip": "ym2612"
    },
    {
      "channel": 2,
      "note": 40,
      "start": 6.3958,
      "duration": 0.0113,
      "velocity": 114,
      "chip": "ym2612"
    },
    {
      "channel": 2,
      "note": 40,
      "start": 6.4071,
      "duration": 0.0125,
      "velocity": 114,
      "chip": "ym2612"
    },
    {
      "channel": 2,
      "note": 39,
      "start": 6.4196,
      "duration": 0.0125,
      "velocity": 114,
      "chip": "ym2612"
    },
    {
      "channel": 1,
      "note": 53,
      "start": 6.5054,
      "duration": 0.0494,
      "velocity": 81,
      "chip": "ym2612"
    },
    {
      "channel": 2,
      "note": 40,
      "start": 6.5104,
      "duration": 0.0092,
      "velocity": 114,
      "chip": "ym2612"
    },
    {
      "channel": 2,
      "note": 40,
      "start": 6.5196,
      "duration": 0.0125,
      "velocity": 114,
      "chip": "ym2612"
    },
    {
      "channel": 2,
      "note": 40,
      "start": 6.5321,
      "duration": 0.0135,
      "velocity": 114,
      "chip": "ym2612"
    },
    {
      "channel": 2,
      "note": 40,
      "start": 6.5456,
      "duration": 0.012,
      "velocity": 114,
      "chip": "ym2612"
    },
    {
      "channel": 2,
      "note": 40,
      "start": 6.5576,
      "duration": 0.012,
      "velocity": 114,
      "chip": "ym2612"
    },
    {
      "channel": 2,
      "note": 40,
      "start": 6.5696,
      "duration": 0.0125,
      "velocity": 114,
      "chip": "ym2612"
    },
    {
      "channel": 2,
      "note": 40,
      "start": 6.5821,
      "duration": 0.0131,
      "velocity": 114,
      "chip": "ym2612"
    },
    {
      "channel": 2,
      "note": 40,
      "start": 6.5952,
      "duration": 0.0137,
      "velocity": 114,
      "chip": "ym2612"
    },
    {
      "channel": 1,
      "note": 53,
      "start": 6.6054,
      "duration": 0.0994,
      "velocity": 81,
      "chip": "ym2612"
    },
    {
      "channel": 2,
      "note": 41,
      "start": 6.6234,
      "duration": 0.1875,
      "velocity": 122,
      "chip": "ym2612"
    },
    {
      "channel": 1,
      "note": 53,
      "start": 6.8054,
      "duration": 0.0619,
      "velocity": 81,
      "chip": "ym2612"
    },
    {
      "channel": 2,
      "note": 40,
      "start": 6.8139,
      "duration": 0.0057,
      "velocity": 114,
      "chip": "ym2612"
    },
    {
      "channel": 2,
      "note": 40,
      "start": 6.8196,
      "duration": 0.0125,
      "velocity": 114,
      "chip": "ym2612"
    },
    {
      "channel": 2,
      "note": 40,
      "start": 6.8321,
      "duration": 0.0135,
      "velocity": 114,
      "chip": "ym2612"
    },
    {
      "channel": 2,
      "note": 40,
      "start": 6.8456,
      "duration": 0.0115,
      "velocity": 114,
      "chip": "ym2612"
    },
    {
      "channel": 2,
      "note": 40,
      "start": 6.8571,
      "duration": 0.013,
      "velocity": 114,
      "chip": "ym2612"
    },
    {
      "channel": 2,
      "note": 40,
      "start": 6.8701,
      "duration": 0.012,
      "velocity": 114,
      "chip": "ym2612"
    },
    {
      "channel": 2,
      "note": 40,
      "start": 6.8821,
      "duration": 0.0131,
      "velocity": 114,
      "chip": "ym2612"
    },
    {
      "channel": 2,
      "note": 40,
      "start": 6.8952,
      "duration": 0.0145,
      "velocity": 114,
      "chip": "ym2612"
    },
    {
      "channel": 0,
      "note": 74,
      "start": 6.9048,
      "duration": 0.037,
      "velocity": 103,
      "chip": "ym2612"
    },
    {
      "channel": 1,
      "note": 53,
      "start": 6.9062,
      "duration": 0.0983,
      "velocity": 81,
      "chip": "ym2612"
    },
    {
      "channel": 2,
      "note": 40,
      "start": 6.9202,
      "duration": 0.0116,
      "velocity": 114,
      "chip": "ym2612"
    },
    {
      "channel": 2,
      "note": 40,
      "start": 6.9318,
      "duration": 0.0142,
      "velocity": 114,
      "chip": "ym2612"
    },
    {
      "channel": 0,
      "note": 75,
      "start": 6.9422,
      "duration": 0.0496,
      "velocity": 103,
      "chip": "ym2612"
    },
    {
      "channel": 2,
      "note": 40,
      "start": 6.946,
      "duration": 0.0111,
      "velocity": 114,
      "chip": "ym2612"
    },
    {
      "channel": 2,
      "note": 40,
      "start": 6.9571,
      "duration": 0.0121,
      "velocity": 114,
      "chip": "ym2612"
    },
    {
      "channel": 2,
      "note": 40,
      "start": 6.9692,
      "duration": 0.0126,
      "velocity": 114,
      "chip": "ym2612"
    },
    {
      "channel": 2,
      "note": 40,
      "start": 6.9818,
      "duration": 0.0142,
      "velocity": 114,
      "chip": "ym2612"
    },
    {
      "channel": 0,
      "note": 76,
      "start": 6.9922,
      "duration": 0.0371,
      "velocity": 103,
      "chip": "ym2612"
    },
    {
      "channel": 2,
      "note": 40,
      "start": 6.996,
      "duration": 0.0125,
      "velocity": 114,
      "chip": "ym2612"
    },
    {
      "channel": 1,
      "note": 59,
      "start": 7.005,
      "duration": 0.1007,
      "velocity": 81,
      "chip": "ym2612"
    },
    {
      "channel": 2,
      "note": 40,
      "start": 7.0202,
      "duration": 0.0127,
      "velocity": 114,
      "chip": "ym2612"
    },
    {
      "channel": 0,
      "note": 77,
      "start": 7.0298,
      "duration": 0.0369,
      "velocity": 103,
      "chip": "ym2612"
    },
    {
      "channel": 2,
      "note": 40,
      "start": 7.0329,
      "duration": 0.0128,
      "velocity": 114,
      "chip": "ym2612"
    },
    {
      "channel": 5,
      "note": 74,
      "start": 7.0442,
      "duration": 0.0491,
      "velocity": 103,
      "chip": "ym2612"
    },
    {
      "channel": 2,
      "note": 40,
      "start": 7.0457,
      "duration": 0.011,
      "velocity": 114,
      "chip": "ym2612"
    },
    {
      "channel": 2,
      "note": 40,
      "start": 7.0567,
      "duration": 0.0133,
      "velocity": 114,
      "chip": "ym2612"
    },
    {
      "channel": 0,
      "note": 78,
      "start": 7.0672,
      "duration": 0.037,
      "velocity": 103,
      "chip": "ym2612"
    },
    {
      "channel": 2,
      "note": 40,
      "start": 7.07,
      "duration": 0.0114,
      "velocity": 114,
      "chip": "ym2612"
    },
    {
      "channel": 2,
      "note": 40,
      "start": 7.0814,
      "duration": 0.0143,
      "velocity": 114,
      "chip": "ym2612"
    },
    {
      "channel": 5,
      "note": 75,
      "start": 7.0937,
      "duration": 0.037,
      "velocity": 103,
      "chip": "ym2612"
    },
    {
      "channel": 2,
      "note": 40,
      "start": 7.0956,
      "duration": 0.0136,
      "velocity": 114,
      "chip": "ym2612"
    },
    {
      "channel": 0,
      "note": 79,
      "start": 7.1047,
      "duration": 0.0495,
      "velocity": 103,
      "chip": "ym2612"
    },
    {
      "channel": 1,
      "note": 65,
      "start": 7.1061,
      "duration": 0.0984,
      "velocity": 81,
      "chip": "ym2612"
    },
    {
      "channel": 2,
      "note": 40,
      "start": 7.1198,
      "duration": 0.0127,
      "velocity": 114,
      "chip": "ym2612"
    },
    {
      "channel": 5,
      "note": 76,
      "start": 7.1313,
      "duration": 0.037,
      "velocity": 103,
      "chip": "ym2612"
    },
    {
      "channel": 2,
      "note": 40,
      "start": 7.1325,
      "duration": 0.0116,
      "velocity": 114,
      "chip": "ym2612"
    },
    {
      "channel": 2,
      "note": 40,
      "start": 7.1442,
      "duration": 0.0137,
      "velocity": 114,
      "chip": "ym2612"
    },
    {
      "channel": 0,
      "note": 80,
      "start": 7.1548,
      "duration": 0.037,
      "velocity": 103,
      "chip": "ym2612"
    },
    {
      "channel": 2,
      "note": 40,
      "start": 7.1579,
      "duration": 0.0121,
      "velocity": 114,
      "chip": "ym2612"
    },
    {
      "channel": 5,
      "note": 77,
      "start": 7.1687,
      "duration": 0.0389,
      "velocity": 103,
      "chip": "ym2612"
    },
    {
      "channel": 2,
      "note": 40,
      "start": 7.17,
      "duration": 0.0114,
      "velocity": 114,
      "chip": "ym2612"
    },
    {
      "channel": 2,
      "note": 40,
      "start": 7.1814,
      "duration": 0.0142,
      "velocity": 114,
      "chip": "ym2612"
    },
    {
      "channel": 0,
      "note": 81,
      "start": 7.1922,
      "duration": 0.0371,
      "velocity": 103,
      "chip": "ym2612"
    },
    {
      "channel": 2,
      "note": 40,
      "start": 7.1956,
      "duration": 0.0137,
      "velocity": 114,
      "chip": "ym2612"
    },
    {
      "channel": 1,
      "note": 59,
      "start": 7.205,
      "duration": 0.1136,
      "velocity": 81,
      "chip": "ym2612"
    },
    {
      "channel": 5,
      "note": 78,
      "start": 7.2082,
      "duration": 0.0476,
      "velocity": 103,
      "chip": "ym2612"
    },
    {
      "channel": 2,
      "note": 40,
      "start": 7.2198,
      "duration": 0.0127,
      "velocity": 114,
      "chip": "ym2612"
    },
    {
      "channel": 0,
      "note": 82,
      "start": 7.2298,
      "duration": 0.0369,
      "velocity": 103,
      "chip": "ym2612"
    },
    {
      "channel": 2,
      "note": 40,
      "start": 7.2325,
      "duration": 0.0117,
      "velocity": 114,
      "chip": "ym2612"
    },
    {
      "channel": 2,
      "note": 40,
      "start": 7.2442,
      "duration": 0.0136,
      "velocity": 114,
      "chip": "ym2612"
    },
    {
      "channel": 5,
      "note": 79,
      "start": 7.2563,
      "duration": 0.0371,
      "velocity": 103,
      "chip": "ym2612"
    },
    {
      "channel": 2,
      "note": 40,
      "start": 7.2578,
      "duration": 0.0122,
      "velocity": 114,
      "chip": "ym2612"
    },
    {
      "channel": 0,
      "note": 83,
      "start": 7.2672,
      "duration": 0.0495,
      "velocity": 103,
      "chip": "ym2612"
    },
    {
      "channel": 2,
      "note": 40,
      "start": 7.27,
      "duration": 0.0114,
      "velocity": 114,
      "chip": "ym2612"
    },
    {
      "channel": 2,
      "note": 40,
      "start": 7.2814,
      "duration": 0.0143,
      "velocity": 114,
      "chip": "ym2612"
    },
    {
      "channel": 5,
      "note": 80,
      "start": 7.2942,
      "duration": 0.0366,
      "velocity": 103,
      "chip": "ym2612"
    },
    {
      "channel": 2,
      "note": 40,
      "start": 7.2957,
      "duration": 0.0106,
      "velocity": 114,
      "chip": "ym2612"
    },
    {
      "channel": 2,
      "note": 40,
      "start": 7.3063,
      "duration": 0.0172,
      "velocity": 114,
      "chip": "ym2612"
    },
    {
      "channel": 0,
      "note": 84,
      "start": 7.3172,
      "duration": 0.0873,
      "velocity": 103,
      "chip": "ym2612"
    },
    {
      "channel": 1,
      "note": 53,
      "start": 7.319,
      "duration": 0.0479,
      "velocity": 81,
      "chip": "ym2612"
    },
    {
      "channel": 5,
      "note": 81,
      "start": 7.3313,
      "duration": 0.0375,
      "velocity": 103,
      "chip": "ym2612"
    },
    {
      "channel": 2,
      "note": 40,
      "start": 7.3335,
      "duration": 0.0107,
      "velocity": 114,
      "chip": "ym2612"
    },
    {
      "channel": 2,
      "note": 40,
      "start": 7.3442,
      "duration": 0.0121,
      "velocity": 114,
      "chip": "ym2612"
    },
    {
      "channel": 2,
      "note": 40,
      "start": 7.3563,
      "duration": 0.0146,
      "velocity": 114,
      "chip": "ym2612"
    },
    {
      "channel": 5,
      "note": 82,
      "start": 7.3693,
      "duration": 0.0509,
      "velocity": 103,
      "chip": "ym2612"
    },
    {
      "channel": 2,
      "note": 40,
      "start": 7.3709,
      "duration": 0.0105,
      "velocity": 114,
      "chip": "ym2612"
    },
    {
      "channel": 2,
      "note": 40,
      "start": 7.3814,
      "duration": 0.0129,
      "velocity": 114,
      "chip": "ym2612"
    },
    {
      "channel": 2,
      "note": 40,
      "start": 7.3942,
      "duration": 0.013,
      "velocity": 114,
      "chip": "ym2612"
    },
    {
      "channel": 0,
      "note": 84,
      "start": 7.4045,
      "duration": 0.25,
      "velocity": 103,
      "chip": "ym2612"
    },
    {
      "channel": 2,
      "note": 40,
      "start": 7.4073,
      "duration": 0.0145,
      "velocity": 114,
      "chip": "ym2612"
    },
    {
      "channel": 1,
      "note": 53,
      "start": 7.4175,
      "duration": 0.0994,
      "velocity": 81,
      "chip": "ym2612"
    },
    {
      "channel": 5,
      "note": 83,
      "start": 7.4206,
      "duration": 0.0351,
      "velocity": 103,
      "chip": "ym2612"
    },
    {
      "channel": 2,
      "note": 40,
      "start": 7.4324,
      "duration": 0.0119,
      "velocity": 114,
      "chip": "ym2612"
    },
    {
      "channel": 2,
      "note": 40,
      "start": 7.4442,
      "duration": 0.0132,
      "velocity": 114,
      "chip": "ym2612"
    },
    {
      "channel": 5,
      "note": 84,
      "start": 7.4563,
      "duration": 0.0872,
      "velocity": 103,
      "chip": "ym2612"
    },
    {
      "channel": 2,
      "note": 40,
      "start": 7.4575,
      "duration": 0.0117,
      "velocity": 114,
      "chip": "ym2612"
    },
    {
      "channel": 2,
      "note": 40,
      "start": 7.4692,
      "duration": 0.0122,
      "velocity": 114,
      "chip": "ym2612"
    },
    {
      "channel": 2,
      "note": 40,
      "start": 7.4814,
      "duration": 0.0128,
      "velocity": 114,
      "chip": "ym2612"
    },
    {
      "channel": 2,
      "note": 40,
      "start": 7.4942,
      "duration": 0.0122,
      "velocity": 114,
      "chip": "ym2612"
    },
    {
      "channel": 2,
      "note": 40,
      "start": 7.5063,
      "duration": 0.013,
      "velocity": 114,
      "chip": "ym2612"
    },
    {
      "channel": 2,
      "note": 40,
      "start": 7.5194,
      "duration": 0.012,
      "velocity": 114,
      "chip": "ym2612"
    },
    {
      "channel": 2,
      "note": 40,
      "start": 7.5314,
      "duration": 0.014,
      "velocity": 114,
      "chip": "ym2612"
    },
    {
      "channel": 5,
      "note": 84,
      "start": 7.5435,
      "duration": 0.2515,
      "velocity": 103,
      "chip": "ym2612"
    },
    {
      "channel": 2,
      "note": 40,
      "start": 7.5454,
      "duration": 0.0109,
      "velocity": 114,
      "chip": "ym2612"
    },
    {
      "channel": 2,
      "note": 39,
      "start": 7.5563,
      "duration": 0.0125,
      "velocity": 114,
      "chip": "ym2612"
    },
    {
      "channel": 1,
      "note": 53,
      "start": 7.6175,
      "duration": 0.0629,
      "velocity": 81,
      "chip": "ym2612"
    },
    {
      "channel": 2,
      "note": 40,
      "start": 7.6222,
      "duration": 0.0092,
      "velocity": 114,
      "chip": "ym2612"
    },
    {
      "channel": 2,
      "note": 40,
      "start": 7.6314,
      "duration": 0.0129,
      "velocity": 114,
      "chip": "ym2612"
    },
    {
      "channel": 2,
      "note": 40,
      "start": 7.6442,
      "duration": 0.0134,
      "velocity": 114,
      "chip": "ym2612"
    },
    {
      "channel": 0,
      "note": 84,
      "start": 7.6545,
      "duration": 0.0125,
      "velocity": 103,
      "chip": "ym2612"
    },
    {
      "channel": 2,
      "note": 40,
      "start": 7.6577,
      "duration": 0.0121,
      "velocity": 114,
      "chip": "ym2612"
    },
    {
      "channel": 0,
      "note": 84,
      "start": 7.667,
      "duration": 0.0125,
      "velocity": 103,
      "chip": "ym2612"
    },
    {
      "channel": 2,
      "note": 40,
      "start": 7.6698,
      "duration": 0.0131,
      "velocity": 114,
      "chip": "ym2612"
    },
    {
      "channel": 0,
      "note": 84,
      "start": 7.6795,
      "duration": 0.0125,
      "velocity": 103,
      "chip": "ym2612"
    },
    {
      "channel": 2,
      "note": 40,
      "start": 7.6829,
      "duration": 0.0125,
      "velocity": 114,
      "chip": "ym2612"
    },
    {
      "channel": 0,
      "note": 84,
      "start": 7.692,
      "duration": 0.0125,
      "velocity": 103,
      "chip": "ym2612"
    },
    {
      "channel": 2,
      "note": 40,
      "start": 7.6954,
      "duration": 0.0119,
      "velocity": 114,
      "chip": "ym2612"
    },
    {
      "channel": 0,
      "note": 84,
      "start": 7.7045,
      "duration": 0.0125,
      "velocity": 103,
      "chip": "ym2612"
    },
    {
      "channel": 2,
      "note": 40,
      "start": 7.7073,
      "duration": 0.0143,
      "velocity": 114,
      "chip": "ym2612"
    },
    {
      "channel": 0,
      "note": 84,
      "start": 7.717,
      "duration": 0.0126,
      "velocity": 103,
      "chip": "ym2612"
    },
    {
      "channel": 1,
      "note": 53,
      "start": 7.7184,
      "duration": 0.0994,
      "velocity": 81,
      "chip": "ym2612"
    },
    {
      "channel": 0,
      "note": 84,
      "start": 7.7295,
      "duration": 0.0125,
      "velocity": 103,
      "chip": "ym2612"
    },
    {
      "channel": 2,
      "note": 41,
      "start": 7.736,
      "duration": 0.1881,
      "velocity": 122,
      "chip": "ym2612"
    },
    {
      "channel": 0,
      "note": 84,
      "start": 7.742,
      "duration": 0.0125,
      "velocity": 103,
      "chip": "ym2612"
    },
    {
      "channel": 0,
      "note": 84,
      "start": 7.7545,
      "duration": 0.0125,
      "velocity": 103,
      "chip": "ym2612"
    },
    {
      "channel": 0,
      "note": 84,
      "start": 7.767,
      "duration": 0.0126,
      "velocity": 103,
      "chip": "ym2612"
    },
    {
      "channel": 0,
      "note": 84,
      "start": 7.7795,
      "duration": 0.0125,
      "velocity": 103,
      "chip": "ym2612"
    },
    {
      "channel": 0,
      "note": 84,
      "start": 7.792,
      "duration": 0.0125,
      "velocity": 103,
      "chip": "ym2612"
    },
    {
      "channel": 5,
      "note": 84,
      "start": 7.795,
      "duration": 0.0119,
      "velocity": 103,
      "chip": "ym2612"
    },
    {
      "channel": 0,
      "note": 84,
      "start": 7.8045,
      "duration": 0.0125,
      "velocity": 103,
      "chip": "ym2612"
    },
    {
      "channel": 5,
      "note": 84,
      "start": 7.8069,
      "duration": 0.013,
      "velocity": 103,
      "chip": "ym2612"
    },
    {
      "channel": 0,
      "note": 84,
      "start": 7.817,
      "duration": 0.0125,
      "velocity": 103,
      "chip": "ym2612"
    },
    {
      "channel": 5,
      "note": 84,
      "start": 7.8199,
      "duration": 0.012,
      "velocity": 103,
      "chip": "ym2612"
    },
    {
      "channel": 0,
      "note": 84,
      "start": 7.8295,
      "duration": 0.0125,
      "velocity": 103,
      "chip": "ym2612"
    },
    {
      "channel": 5,
      "note": 84,
      "start": 7.8319,
      "duration": 0.0131,
      "velocity": 103,
      "chip": "ym2612"
    },
    {
      "channel": 0,
      "note": 84,
      "start": 7.842,
      "duration": 0.0125,
      "velocity": 103,
      "chip": "ym2612"
    },
    {
      "channel": 5,
      "note": 84,
      "start": 7.845,
      "duration": 0.0119,
      "velocity": 103,
      "chip": "ym2612"
    },
    {
      "channel": 0,
      "note": 84,
      "start": 7.8545,
      "duration": 0.0125,
      "velocity": 103,
      "chip": "ym2612"
    },
    {
      "channel": 5,
      "note": 84,
      "start": 7.8569,
      "duration": 0.0125,
      "velocity": 103,
      "chip": "ym2612"
    },
    {
      "channel": 0,
      "note": 84,
      "start": 7.867,
      "duration": 0.0126,
      "velocity": 103,
      "chip": "ym2612"
    },
    {
      "channel": 5,
      "note": 84,
      "start": 7.8694,
      "duration": 0.0125,
      "velocity": 103,
      "chip": "ym2612"
    },
    {
      "channel": 0,
      "note": 84,
      "start": 7.8795,
      "duration": 0.0125,
      "velocity": 103,
      "chip": "ym2612"
    },
    {
      "channel": 5,
      "note": 84,
      "start": 7.8819,
      "duration": 0.0131,
      "velocity": 103,
      "chip": "ym2612"
    },
    {
      "channel": 0,
      "note": 84,
      "start": 7.892,
      "duration": 0.0125,
      "velocity": 103,
      "chip": "ym2612"
    },
    {
      "channel": 5,
      "note": 84,
      "start": 7.895,
      "duration": 0.0119,
      "velocity": 103,
      "chip": "ym2612"
    },
    {
      "channel": 0,
      "note": 84,
      "start": 7.9045,
      "duration": 0.0125,
      "velocity": 103,
      "chip": "ym2612"
    },
    {
      "channel": 5,
      "note": 84,
      "start": 7.9069,
      "duration": 0.0144,
      "velocity": 103,
      "chip": "ym2612"
    },
    {
      "channel": 0,
      "note": 84,
      "start": 7.917,
      "duration": 0.0126,
      "velocity": 103,
      "chip": "ym2612"
    },
    {
      "channel": 1,
      "note": 53,
      "start": 7.9184,
      "duration": 0.062,
      "velocity": 81,
      "chip": "ym2612"
    },
    {
      "channel": 5,
      "note": 84,
      "start": 7.9213,
      "duration": 0.0106,
      "velocity": 103,
      "chip": "ym2612"
    },
    {
      "channel": 2,
      "note": 40,
      "start": 7.9269,
      "duration": 0.0063,
      "velocity": 114,
      "chip": "ym2612"
    },
    {
      "channel": 0,
      "note": 84,
      "start": 7.9295,
      "duration": 0.0125,
      "velocity": 103,
      "chip": "ym2612"
    },
    {
      "channel": 5,
      "note": 84,
      "start": 7.9319,
      "duration": 0.0131,
      "velocity": 103,
      "chip": "ym2612"
    },
    {
      "channel": 2,
      "note": 40,
      "start": 7.9332,
      "duration": 0.0131,
      "velocity": 114,
      "chip": "ym2612"
    },
    {
      "channel": 0,
      "note": 84,
      "start": 7.942,
      "duration": 0.0125,
      "velocity": 103,
      "chip": "ym2612"
    },
    {
      "channel": 5,
      "note": 84,
      "start": 7.945,
      "duration": 0.0119,
      "velocity": 103,
      "chip": "ym2612"
    },
    {
      "channel": 2,
      "note": 40,
      "start": 7.9463,
      "duration": 0.0123,
      "velocity": 114,
      "chip": "ym2612"
    },
    {
      "channel": 0,
      "note": 84,
      "start": 7.9545,
      "duration": 0.0125,
      "velocity": 103,
      "chip": "ym2612"
    },
    {
      "channel": 5,
      "note": 84,
      "start": 7.9569,
      "duration": 0.0125,
      "velocity": 103,
      "chip": "ym2612"
    },
    {
      "channel": 2,
      "note": 40,
      "start": 7.9585,
      "duration": 0.0121,
      "velocity": 114,
      "chip": "ym2612"
    },
    {
      "channel": 0,
      "note": 84,
      "start": 7.967,
      "duration": 0.0126,
      "velocity": 103,
      "chip": "ym2612"
    },
    {
      "channel": 5,
      "note": 84,
      "start": 7.9694,
      "duration": 0.0131,
      "velocity": 103,
      "chip": "ym2612"
    },
    {
      "channel": 2,
      "note": 40,
      "start": 7.9706,
      "duration": 0.0131,
      "velocity": 114,
      "chip": "ym2612"
    },
    {
      "channel": 0,
      "note": 84,
      "start": 7.9795,
      "duration": 0.0125,
      "velocity": 103,
      "chip": "ym2612"
    },
    {
      "channel": 5,
      "note": 84,
      "start": 7.9825,
      "duration": 0.0125,
      "velocity": 103,
      "chip": "ym2612"
    },
    {
      "channel": 2,
      "note": 40,
      "start": 7.9837,
      "duration": 0.0125,
      "velocity": 114,
      "chip": "ym2612"
    },
    {
      "channel": 0,
      "note": 84,
      "start": 7.992,
      "duration": 0.0125,
      "velocity": 103,
      "chip": "ym2612"
    },
    {
      "channel": 5,
      "note": 84,
      "start": 7.995,
      "duration": 0.0119,
      "velocity": 103,
      "chip": "ym2612"
    },
    {
      "channel": 2,
      "note": 40,
      "start": 7.9963,
      "duration": 0.0119,
      "velocity": 114,
      "chip": "ym2612"
    },
    {
      "channel": 0,
      "note": 84,
      "start": 8.0045,
      "duration": 0.0125,
      "velocity": 103,
      "chip": "ym2612"
    },
    {
      "channel": 5,
      "note": 84,
      "start": 8.0069,
      "duration": 0.0144,
      "velocity": 103,
      "chip": "ym2612"
    },
    {
      "channel": 2,
      "note": 40,
      "start": 8.0082,
      "duration": 0.0143,
      "velocity": 114,
      "chip": "ym2612"
    },
    {
      "channel": 0,
      "note": 84,
      "start": 8.017,
      "duration": 0.0125,
      "velocity": 103,
      "chip": "ym2612"
    },
    {
      "channel": 1,
      "note": 53,
      "start": 8.0184,
      "duration": 0.112,
      "velocity": 81,
      "chip": "ym2612"
    },
    {
      "channel": 5,
      "note": 84,
      "start": 8.0213,
      "duration": 0.0106,
      "velocity": 103,
      "chip": "ym2612"
    },
    {
      "channel": 0,
      "note": 84,
      "start": 8.0295,
      "duration": 0.0125,
      "velocity": 103,
      "chip": "ym2612"
    },
    {
      "channel": 5,
      "note": 84,
      "start": 8.0319,
      "duration": 0.0131,
      "velocity": 103,
      "chip": "ym2612"
    },
    {
      "channel": 2,
      "note": 40,
      "start": 8.0341,
      "duration": 0.0122,
      "velocity": 114,
      "chip": "ym2612"
    },
    {
      "channel": 0,
      "note": 84,
      "start": 8.042,
      "duration": 0.0125,
      "velocity": 103,
      "chip": "ym2612"
    },
    {
      "channel": 5,
      "note": 84,
      "start": 8.045,
      "duration": 0.0119,
      "velocity": 103,
      "chip": "ym2612"
    },
    {
      "channel": 2,
      "note": 40,
      "start": 8.0463,
      "duration": 0.0119,
      "velocity": 114,
      "chip": "ym2612"
    },
    {
      "channel": 0,
      "note": 84,
      "start": 8.0545,
      "duration": 0.0125,
      "velocity": 103,
      "chip": "ym2612"
    },
    {
      "channel": 5,
      "note": 84,
      "start": 8.0569,
      "duration": 0.0125,
      "velocity": 103,
      "chip": "ym2612"
    },
    {
      "channel": 2,
      "note": 40,
      "start": 8.0582,
      "duration": 0.0128,
      "velocity": 114,
      "chip": "ym2612"
    },
    {
      "channel": 0,
      "note": 84,
      "start": 8.067,
      "duration": 0.0126,
      "velocity": 103,
      "chip": "ym2612"
    },
    {
      "channel": 5,
      "note": 84,
      "start": 8.0694,
      "duration": 0.0125,
      "velocity": 103,
      "chip": "ym2612"
    },
    {
      "channel": 2,
      "note": 40,
      "start": 8.071,
      "duration": 0.0122,
      "velocity": 114,
      "chip": "ym2612"
    },
    {
      "channel": 0,
      "note": 84,
      "start": 8.0795,
      "duration": 0.0125,
      "velocity": 103,
      "chip": "ym2612"
    },
    {
      "channel": 5,
      "note": 84,
      "start": 8.0819,
      "duration": 0.0131,
      "velocity": 103,
      "chip": "ym2612"
    },
    {
      "channel": 2,
      "note": 40,
      "start": 8.0832,
      "duration": 0.0131,
      "velocity": 114,
      "chip": "ym2612"
    },
    {
      "channel": 0,
      "note": 84,
      "start": 8.092,
      "duration": 0.0125,
      "velocity": 103,
      "chip": "ym2612"
    },
    {
      "channel": 5,
      "note": 84,
      "start": 8.095,
      "duration": 0.0119,
      "velocity": 103,
      "chip": "ym2612"
    },
    {
      "channel": 2,
      "note": 40,
      "start": 8.0963,
      "duration": 0.0119,
      "velocity": 114,
      "chip": "ym2612"
    },
    {
      "channel": 0,
      "note": 84,
      "start": 8.1045,
      "duration": 0.0125,
      "velocity": 103,
      "chip": "ym2612"
    },
    {
      "channel": 5,
      "note": 84,
      "start": 8.1069,
      "duration": 0.0125,
      "velocity": 103,
      "chip": "ym2612"
    },
    {
      "channel": 2,
      "note": 40,
      "start": 8.1082,
      "duration": 0.0124,
      "velocity": 114,
      "chip": "ym2612"
    },
    {
      "channel": 0,
      "note": 84,
      "start": 8.117,
      "duration": 0.0126,
      "velocity": 103,
      "chip": "ym2612"
    },
    {
      "channel": 5,
      "note": 84,
      "start": 8.1194,
      "duration": 0.0131,
      "velocity": 103,
      "chip": "ym2612"
    },
    {
      "channel": 2,
      "note": 40,
      "start": 8.1206,
      "duration": 0.0131,
      "velocity": 114,
      "chip": "ym2612"
    },
    {
      "channel": 0,
      "note": 84,
      "start": 8.1295,
      "duration": 0.0125,
      "velocity": 103,
      "chip": "ym2612"
    },
    {
      "channel": 5,
      "note": 84,
      "start": 8.1325,
      "duration": 0.0125,
      "velocity": 103,
      "chip": "ym2612"
    },
    {
      "channel": 2,
      "note": 40,
      "start": 8.1337,
      "duration": 0.0125,
      "velocity": 114,
      "chip": "ym2612"
    },
    {
      "channel": 0,
      "note": 84,
      "start": 8.142,
      "duration": 0.0125,
      "velocity": 103,
      "chip": "ym2612"
    },
    {
      "channel": 5,
      "note": 84,
      "start": 8.145,
      "duration": 0.0119,
      "velocity": 103,
      "chip": "ym2612"
    },
    {
      "channel": 2,
      "note": 40,
      "start": 8.1463,
      "duration": 0.0119,
      "velocity": 114,
      "chip": "ym2612"
    },
    {
      "channel": 0,
      "note": 84,
      "start": 8.1545,
      "duration": 0.0125,
      "velocity": 103,
      "chip": "ym2612"
    },
    {
      "channel": 5,
      "note": 84,
      "start": 8.1569,
      "duration": 0.0125,
      "velocity": 103,
      "chip": "ym2612"
    },
    {
      "channel": 2,
      "note": 39,
      "start": 8.1582,
      "duration": 0.0124,
      "velocity": 114,
      "chip": "ym2612"
    },
    {
      "channel": 0,
      "note": 84,
      "start": 8.167,
      "duration": 0.0126,
      "velocity": 103,
      "chip": "ym2612"
    },
    {
      "channel": 5,
      "note": 84,
      "start": 8.1694,
      "duration": 0.0125,
      "velocity": 103,
      "chip": "ym2612"
    },
    {
      "channel": 0,
      "note": 84,
      "start": 8.1795,
      "duration": 0.0125,
      "velocity": 103,
      "chip": "ym2612"
    },
    {
      "channel": 5,
      "note": 84,
      "start": 8.1819,
      "duration": 0.0131,
      "velocity": 103,
      "chip": "ym2612"
    },
    {
      "channel": 0,
      "note": 84,
      "start": 8.192,
      "duration": 0.0125,
      "velocity": 103,
      "chip": "ym2612"
    },
    {
      "channel": 5,
      "note": 84,
      "start": 8.195,
      "duration": 0.0119,
      "velocity": 103,
      "chip": "ym2612"
    },
    {
      "channel": 0,
      "note": 84,
      "start": 8.2045,
      "duration": 0.0125,
      "velocity": 103,
      "chip": "ym2612"
    },
    {
      "channel": 5,
      "note": 84,
      "start": 8.2069,
      "duration": 0.0125,
      "velocity": 103,
      "chip": "ym2612"
    },
    {
      "channel": 0,
      "note": 84,
      "start": 8.217,
      "duration": 0.0126,
      "velocity": 103,
      "chip": "ym2612"
    },
    {
      "channel": 5,
      "note": 84,
      "start": 8.2194,
      "duration": 0.0145,
      "velocity": 103,
      "chip": "ym2612"
    },
    {
      "channel": 0,
      "note": 84,
      "start": 8.2295,
      "duration": 0.0125,
      "velocity": 103,
      "chip": "ym2612"
    },
    {
      "channel": 1,
      "note": 53,
      "start": 8.231,
      "duration": 0.0619,
      "velocity": 81,
      "chip": "ym2612"
    },
    {
      "channel": 5,
      "note": 84,
      "start": 8.2339,
      "duration": 0.0111,
      "velocity": 103,
      "chip": "ym2612"
    },
    {
      "channel": 2,
      "note": 40,
      "start": 8.2366,
      "duration": 0.0097,
      "velocity": 114,
      "chip": "ym2612"
    },
    {
      "channel": 0,
      "note": 84,
      "start": 8.242,
      "duration": 0.0125,
      "velocity": 103,
      "chip": "ym2612"
    },
    {
      "channel": 5,
      "note": 84,
      "start": 8.245,
      "duration": 0.0119,
      "velocity": 103,
      "chip": "ym2612"
    },
    {
      "channel": 2,
      "note": 40,
      "start": 8.2463,
      "duration": 0.0119,
      "velocity": 114,
      "chip": "ym2612"
    },
    {
      "channel": 0,
      "note": 84,
      "start": 8.2545,
      "duration": 0.0125,
      "velocity": 103,
      "chip": "ym2612"
    },
    {
      "channel": 5,
      "note": 84,
      "start": 8.2569,
      "duration": 0.0125,
      "velocity": 103,
      "chip": "ym2612"
    },
    {
      "channel": 2,
      "note": 40,
      "start": 8.2582,
      "duration": 0.0128,
      "velocity": 114,
      "chip": "ym2612"
    },
    {
      "channel": 0,
      "note": 84,
      "start": 8.267,
      "duration": 0.0126,
      "velocity": 103,
      "chip": "ym2612"
    },
    {
      "channel": 5,
      "note": 84,
      "start": 8.2694,
      "duration": 0.0125,
      "velocity": 103,
      "chip": "ym2612"
    },
    {
      "channel": 2,
      "note": 40,
      "start": 8.271,
      "duration": 0.0122,
      "velocity": 114,
      "chip": "ym2612"
    },
    {
      "channel": 0,
      "note": 84,
      "start": 8.2795,
      "duration": 0.0125,
      "velocity": 103,
      "chip": "ym2612"
    },
    {
      "channel": 5,
      "note": 84,
      "start": 8.2819,
      "duration": 0.0137,
      "velocity": 103,
      "chip": "ym2612"
    },
    {
      "channel": 2,
      "note": 40,
      "start": 8.2832,
      "duration": 0.0137,
      "velocity": 114,
      "chip": "ym2612"
    },
    {
      "channel": 0,
      "note": 84,
      "start": 8.292,
      "duration": 0.0125,
      "velocity": 103,
      "chip": "ym2612"
    },
    {
      "channel": 5,
      "note": 84,
      "start": 8.2956,
      "duration": 0.0113,
      "velocity": 103,
      "chip": "ym2612"
    },
    {
      "channel": 2,
      "note": 40,
      "start": 8.2968,
      "duration": 0.0113,
      "velocity": 114,
      "chip": "ym2612"
    },
    {
      "channel": 0,
      "note": 84,
      "start": 8.3045,
      "duration": 0.0125,
      "velocity": 103,
      "chip": "ym2612"
    },
    {
      "channel": 5,
      "note": 84,
      "start": 8.3069,
      "duration": 0.0125,
      "velocity": 103,
      "chip": "ym2612"
    },
    {
      "channel": 2,
      "note": 40,
      "start": 8.3082,
      "duration": 0.0124,
      "velocity": 114,
      "chip": "ym2612"
    },
    {
      "channel": 0,
      "note": 84,
      "start": 8.317,
      "duration": 0.0126,
      "velocity": 103,
      "chip": "ym2612"
    },
    {
      "channel": 5,
      "note": 84,
      "start": 8.3194,
      "duration": 0.0145,
      "velocity": 103,
      "chip": "ym2612"
    },
    {
      "channel": 2,
      "note": 40,
      "start": 8.3206,
      "duration": 0.0144,
      "velocity": 114,
      "chip": "ym2612"
    },
    {
      "channel": 0,
      "note": 84,
      "start": 8.3295,
      "duration": 0.0125,
      "velocity": 103,
      "chip": "ym2612"
    },
    {
      "channel": 1,
      "note": 53,
      "start": 8.331,
      "duration": 0.0994,
      "velocity": 81,
      "chip": "ym2612"
    },
    {
      "channel": 5,
      "note": 84,
      "start": 8.3339,
      "duration": 0.0111,
      "velocity": 103,
      "chip": "ym2612"
    },
    {
      "channel": 0,
      "note": 84,
      "start": 8.342,
      "duration": 0.0125,
      "velocity": 103,
      "chip": "ym2612"
    },
    {
      "channel": 5,
      "note": 84,
      "start": 8.345,
      "duration": 0.0119,
      "velocity": 103,
      "chip": "ym2612"
    },
    {
      "channel": 2,
      "note": 40,
      "start": 8.3472,
      "duration": 0.011,
      "velocity": 114,
      "chip": "ym2612"
    },
    {
      "channel": 0,
      "note": 84,
      "start": 8.3545,
      "duration": 0.0125,
      "velocity": 103,
      "chip": "ym2612"
    },
    {
      "channel": 5,
      "note": 84,
      "start": 8.3569,
      "duration": 0.0125,
      "velocity": 103,
      "chip": "ym2612"
    },
    {
      "channel": 2,
      "note": 40,
      "start": 8.3582,
      "duration": 0.0124,
      "velocity": 114,
      "chip": "ym2612"
    },
    {
      "channel": 0,
      "note": 84,
      "start": 8.367,
      "duration": 0.0126,
      "velocity": 103,
      "chip": "ym2612"
    },
    {
      "channel": 5,
      "note": 84,
      "start": 8.3694,
      "duration": 0.0125,
      "velocity": 103,
      "chip": "ym2612"
    },
    {
      "channel": 2,
      "note": 40,
      "start": 8.3706,
      "duration": 0.0129,
      "velocity": 114,
      "chip": "ym2612"
    },
    {
      "channel": 0,
      "note": 84,
      "start": 8.3795,
      "duration": 0.0125,
      "velocity": 103,
      "chip": "ym2612"
    },
    {
      "channel": 5,
      "note": 84,
      "start": 8.3819,
      "duration": 0.0131,
      "velocity": 103,
      "chip": "ym2612"
    },
    {
      "channel": 2,
      "note": 40,
      "start": 8.3836,
      "duration": 0.0127,
      "velocity": 114,
      "chip": "ym2612"
    },
    {
      "channel": 0,
      "note": 84,
      "start": 8.392,
      "duration": 0.0125,
      "velocity": 103,
      "chip": "ym2612"
    },
    {
      "channel": 5,
      "note": 84,
      "start": 8.395,
      "duration": 0.012,
      "velocity": 103,
      "chip": "ym2612"
    },
    {
      "channel": 2,
      "note": 40,
      "start": 8.3963,
      "duration": 0.0119,
      "velocity": 114,
      "chip": "ym2612"
    },
    {
      "channel": 0,
      "note": 84,
      "start": 8.4046,
      "duration": 0.0124,
      "velocity": 103,
      "chip": "ym2612"
    },
    {
      "channel": 5,
      "note": 84,
      "start": 8.407,
      "duration": 0.0124,
      "velocity": 103,
      "chip": "ym2612"
    },
    {
      "channel": 2,
      "note": 40,
      "start": 8.4082,
      "duration": 0.0124,
      "velocity": 114,
      "chip": "ym2612"
    },
    {
      "channel": 0,
      "note": 84,
      "start": 8.417,
      "duration": 0.0126,
      "velocity": 103,
      "chip": "ym2612"
    },
    {
      "channel": 5,
      "note": 84,
      "start": 8.4194,
      "duration": 0.0131,
      "velocity": 103,
      "chip": "ym2612"
    },
    {
      "channel": 2,
      "note": 40,
      "start": 8.4206,
      "duration": 0.0131,
      "velocity": 114,
      "chip": "ym2612"
    },
    {
      "channel": 0,
      "note": 84,
      "start": 8.4295,
      "duration": 0.0125,
      "velocity": 103,
      "chip": "ym2612"
    },
    {
      "channel": 5,
      "note": 84,
      "start": 8.4325,
      "duration": 0.0125,
      "velocity": 103,
      "chip": "ym2612"
    },
    {
      "channel": 2,
      "note": 40,
      "start": 8.4337,
      "duration": 0.0125,
      "velocity": 114,
      "chip": "ym2612"
    },
    {
      "channel": 0,
      "note": 84,
      "start": 8.442,
      "duration": 0.0125,
      "velocity": 103,
      "chip": "ym2612"
    },
    {
      "channel": 5,
      "note": 84,
      "start": 8.445,
      "duration": 0.0119,
      "velocity": 103,
      "chip": "ym2612"
    },
    {
      "channel": 2,
      "note": 40,
      "start": 8.4463,
      "duration": 0.0119,
      "velocity": 114,
      "chip": "ym2612"
    },
    {
      "channel": 0,
      "note": 84,
      "start": 8.4545,
      "duration": 0.0125,
      "velocity": 103,
      "chip": "ym2612"
    },
    {
      "channel": 5,
      "note": 84,
      "start": 8.4569,
      "duration": 0.0125,
      "velocity": 103,
      "chip": "ym2612"
    },
    {
      "channel": 2,
      "note": 40,
      "start": 8.4582,
      "duration": 0.0124,
      "velocity": 114,
      "chip": "ym2612"
    },
    {
      "channel": 0,
      "note": 84,
      "start": 8.467,
      "duration": 0.0126,
      "velocity": 103,
      "chip": "ym2612"
    },
    {
      "channel": 5,
      "note": 84,
      "start": 8.4694,
      "duration": 0.0125,
      "velocity": 103,
      "chip": "ym2612"
    },
    {
      "channel": 2,
      "note": 39,
      "start": 8.4706,
      "duration": 0.0125,
      "velocity": 114,
      "chip": "ym2612"
    },
    {
      "channel": 0,
      "note": 84,
      "start": 8.4795,
      "duration": 0.0125,
      "velocity": 103,
      "chip": "ym2612"
    },
    {
      "channel": 5,
      "note": 84,
      "start": 8.4819,
      "duration": 0.0131,
      "velocity": 103,
      "chip": "ym2612"
    },
    {
      "channel": 0,
      "note": 84,
      "start": 8.492,
      "duration": 0.0125,
      "velocity": 103,
      "chip": "ym2612"
    },
    {
      "channel": 5,
      "note": 84,
      "start": 8.495,
      "duration": 0.0119,
      "velocity": 103,
      "chip": "ym2612"
    },
    {
      "channel": 0,
      "note": 84,
      "start": 8.5045,
      "duration": 0.0125,
      "velocity": 103,
      "chip": "ym2612"
    },
    {
      "channel": 5,
      "note": 84,
      "start": 8.5069,
      "duration": 0.0125,
      "velocity": 103,
      "chip": "ym2612"
    },
    {
      "channel": 0,
      "note": 84,
      "start": 8.517,
      "duration": 0.0126,
      "velocity": 103,
      "chip": "ym2612"
    },
    {
      "channel": 5,
      "note": 84,
      "start": 8.5194,
      "duration": 0.0145,
      "velocity": 103,
      "chip": "ym2612"
    },
    {
      "channel": 0,
      "note": 84,
      "start": 8.5295,
      "duration": 0.0125,
      "velocity": 103,
      "chip": "ym2612"
    },
    {
      "channel": 1,
      "note": 53,
      "start": 8.531,
      "duration": 0.0994,
      "velocity": 81,
      "chip": "ym2612"
    },
    {
      "channel": 5,
      "note": 84,
      "start": 8.5339,
      "duration": 0.0112,
      "velocity": 103,
      "chip": "ym2612"
    },
    {
      "channel": 2,
      "note": 41,
      "start": 8.5393,
      "duration": 0.1974,
      "velocity": 122,
      "chip": "ym2612"
    },
    {
      "channel": 0,
      "note": 84,
      "start": 8.542,
      "duration": 0.0125,
      "velocity": 103,
      "chip": "ym2612"
    },
    {
      "channel": 5,
      "note": 84,
      "start": 8.5451,
      "duration": 0.0119,
      "velocity": 103,
      "chip": "ym2612"
    },
    {
      "channel": 0,
      "note": 84,
      "start": 8.5546,
      "duration": 0.0124,
      "velocity": 103,
      "chip": "ym2612"
    },
    {
      "channel": 5,
      "note": 84,
      "start": 8.557,
      "duration": 0.0124,
      "velocity": 103,
      "chip": "ym2612"
    },
    {
      "channel": 0,
      "note": 84,
      "start": 8.567,
      "duration": 0.0125,
      "velocity": 103,
      "chip": "ym2612"
    },
    {
      "channel": 5,
      "note": 84,
      "start": 8.5694,
      "duration": 0.0125,
      "velocity": 103,
      "chip": "ym2612"
    },
    {
      "channel": 0,
      "note": 84,
      "start": 8.5795,
      "duration": 0.0125,
      "velocity": 103,
      "chip": "ym2612"
    },
    {
      "channel": 5,
      "note": 84,
      "start": 8.5819,
      "duration": 0.0131,
      "velocity": 103,
      "chip": "ym2612"
    },
    {
      "channel": 0,
      "note": 84,
      "start": 8.592,
      "duration": 0.0125,
      "velocity": 103,
      "chip": "ym2612"
    },
    {
      "channel": 5,
      "note": 84,
      "start": 8.595,
      "duration": 0.0119,
      "velocity": 103,
      "chip": "ym2612"
    },
    {
      "channel": 0,
      "note": 84,
      "start": 8.6045,
      "duration": 0.0125,
      "velocity": 103,
      "chip": "ym2612"
    },
    {
      "channel": 5,
      "note": 84,
      "start": 8.6069,
      "duration": 0.0125,
      "velocity": 103,
      "chip": "ym2612"
    },
    {
      "channel": 0,
      "note": 84,
      "start": 8.617,
      "duration": 0.0126,
      "velocity": 103,
      "chip": "ym2612"
    },
    {
      "channel": 5,
      "note": 84,
      "start": 8.6194,
      "duration": 0.0131,
      "velocity": 103,
      "chip": "ym2612"
    },
    {
      "channel": 0,
      "note": 84,
      "start": 8.6295,
      "duration": 0.0125,
      "velocity": 103,
      "chip": "ym2612"
    },
    {
      "channel": 5,
      "note": 84,
      "start": 8.6325,
      "duration": 0.0125,
      "velocity": 103,
      "chip": "ym2612"
    },
    {
      "channel": 0,
      "note": 84,
      "start": 8.642,
      "duration": 0.0125,
      "velocity": 103,
      "chip": "ym2612"
    },
    {
      "channel": 5,
      "note": 84,
      "start": 8.645,
      "duration": 0.0119,
      "velocity": 103,
      "chip": "ym2612"
    },
    {
      "channel": 0,
      "note": 84,
      "start": 8.6545,
      "duration": 0.0125,
      "velocity": 103,
      "chip": "ym2612"
    },
    {
      "channel": 5,
      "note": 84,
      "start": 8.6569,
      "duration": 0.0125,
      "velocity": 103,
      "chip": "ym2612"
    },
    {
      "channel": 0,
      "note": 84,
      "start": 8.667,
      "duration": 0.0126,
      "velocity": 103,
      "chip": "ym2612"
    },
    {
      "channel": 5,
      "note": 84,
      "start": 8.6694,
      "duration": 0.0125,
      "velocity": 103,
      "chip": "ym2612"
    },
    {
      "channel": 0,
      "note": 84,
      "start": 8.6795,
      "duration": 0.0125,
      "velocity": 103,
      "chip": "ym2612"
    },
    {
      "channel": 5,
      "note": 84,
      "start": 8.6819,
      "duration": 0.0132,
      "velocity": 103,
      "chip": "ym2612"
    },
    {
      "channel": 0,
      "note": 84,
      "start": 8.692,
      "duration": 0.0125,
      "velocity": 103,
      "chip": "ym2612"
    },
    {
      "channel": 5,
      "note": 84,
      "start": 8.6951,
      "duration": 0.0119,
      "velocity": 103,
      "chip": "ym2612"
    },
    {
      "channel": 0,
      "note": 84,
      "start": 8.7046,
      "duration": 0.0124,
      "velocity": 103,
      "chip": "ym2612"
    },
    {
      "channel": 5,
      "note": 84,
      "start": 8.707,
      "duration": 0.0124,
      "velocity": 103,
      "chip": "ym2612"
    },
    {
      "channel": 0,
      "note": 84,
      "start": 8.717,
      "duration": 0.0126,
      "velocity": 103,
      "chip": "ym2612"
    },
    {
      "channel": 5,
      "note": 84,
      "start": 8.7194,
      "duration": 0.0145,
      "velocity": 103,
      "chip": "ym2612"
    },
    {
      "channel": 0,
      "note": 84,
      "start": 8.7295,
      "duration": 0.0125,
      "velocity": 103,
      "chip": "ym2612"
    },
    {
      "channel": 1,
      "note": 53,
      "start": 8.731,
      "duration": 0.0994,
      "velocity": 81,
      "chip": "ym2612"
    },
    {
      "channel": 5,
      "note": 84,
      "start": 8.7339,
      "duration": 0.0111,
      "velocity": 103,
      "chip": "ym2612"
    },
    {
      "channel": 2,
      "note": 40,
      "start": 8.7394,
      "duration": 0.0069,
      "velocity": 114,
      "chip": "ym2612"
    },
    {
      "channel": 0,
      "note": 84,
      "start": 8.742,
      "duration": 0.0125,
      "velocity": 103,
      "chip": "ym2612"
    },
    {
      "channel": 5,
      "note": 84,
      "start": 8.745,
      "duration": 0.0119,
      "velocity": 103,
      "chip": "ym2612"
    },
    {
      "channel": 2,
      "note": 40,
      "start": 8.7463,
      "duration": 0.0119,
      "velocity": 114,
      "chip": "ym2612"
    },
    {
      "channel": 0,
      "note": 84,
      "start": 8.7545,
      "duration": 0.0125,
      "velocity": 103,
      "chip": "ym2612"
    },
    {
      "channel": 5,
      "note": 84,
      "start": 8.7569,
      "duration": 0.0125,
      "velocity": 103,
      "chip": "ym2612"
    },
    {
      "channel": 2,
      "note": 40,
      "start": 8.7582,
      "duration": 0.0128,
      "velocity": 114,
      "chip": "ym2612"
    },
    {
      "channel": 0,
      "note": 84,
      "start": 8.767,
      "duration": 0.0126,
      "velocity": 103,
      "chip": "ym2612"
    },
    {
      "channel": 5,
      "note": 84,
      "start": 8.7694,
      "duration": 0.0125,
      "velocity": 103,
      "chip": "ym2612"
    },
    {
      "channel": 2,
      "note": 40,
      "start": 8.771,
      "duration": 0.0122,
      "velocity": 114,
      "chip": "ym2612"
    },
    {
      "channel": 0,
      "note": 84,
      "start": 8.7795,
      "duration": 0.0125,
      "velocity": 103,
      "chip": "ym2612"
    },
    {
      "channel": 5,
      "note": 84,
      "start": 8.7819,
      "duration": 0.0131,
      "velocity": 103,
      "chip": "ym2612"
    },
    {
      "channel": 2,
      "note": 40,
      "start": 8.7832,
      "duration": 0.0131,
      "velocity": 114,
      "chip": "ym2612"
    },
    {
      "channel": 0,
      "note": 84,
      "start": 8.792,
      "duration": 0.0125,
      "velocity": 103,
      "chip": "ym2612"
    },
    {
      "channel": 5,
      "note": 84,
      "start": 8.795,
      "duration": 0.0119,
      "velocity": 103,
      "chip": "ym2612"
    },
    {
      "channel": 2,
      "note": 40,
      "start": 8.7963,
      "duration": 0.0119,
      "velocity": 114,
      "chip": "ym2612"
    },
    {
      "channel": 0,
      "note": 84,
      "start": 8.8045,
      "duration": 0.0125,
      "velocity": 103,
      "chip": "ym2612"
    },
    {
      "channel": 5,
      "note": 84,
      "start": 8.8069,
      "duration": 0.0125,
      "velocity": 103,
      "chip": "ym2612"
    },
    {
      "channel": 2,
      "note": 40,
      "start": 8.8082,
      "duration": 0.0124,
      "velocity": 114,
      "chip": "ym2612"
    },
    {
      "channel": 0,
      "note": 84,
      "start": 8.817,
      "duration": 0.0126,
      "velocity": 103,
      "chip": "ym2612"
    },
    {
      "channel": 5,
      "note": 84,
      "start": 8.8194,
      "duration": 0.0131,
      "velocity": 103,
      "chip": "ym2612"
    },
    {
      "channel": 2,
      "note": 40,
      "start": 8.8206,
      "duration": 0.0131,
      "velocity": 114,
      "chip": "ym2612"
    },
    {
      "channel": 0,
      "note": 84,
      "start": 8.8295,
      "duration": 0.0125,
      "velocity": 103,
      "chip": "ym2612"
    },
    {
      "channel": 5,
      "note": 84,
      "start": 8.8325,
      "duration": 0.0126,
      "velocity": 103,
      "chip": "ym2612"
    },
    {
      "channel": 2,
      "note": 40,
      "start": 8.8337,
      "duration": 0.0126,
      "velocity": 114,
      "chip": "ym2612"
    },
    {
      "channel": 0,
      "note": 84,
      "start": 8.842,
      "duration": 0.0125,
      "velocity": 103,
      "chip": "ym2612"
    },
    {
      "channel": 5,
      "note": 84,
      "start": 8.8451,
      "duration": 0.0118,
      "velocity": 103,
      "chip": "ym2612"
    },
    {
      "channel": 2,
      "note": 40,
      "start": 8.8463,
      "duration": 0.0118,
      "velocity": 114,
      "chip": "ym2612"
    },
    {
      "channel": 0,
      "note": 84,
      "start": 8.8546,
      "duration": 0.0124,
      "velocity": 103,
      "chip": "ym2612"
    },
    {
      "channel": 5,
      "note": 84,
      "start": 8.8569,
      "duration": 0.0125,
      "velocity": 103,
      "chip": "ym2612"
    },
    {
      "channel": 2,
      "note": 39,
      "start": 8.8582,
      "duration": 0.0124,
      "velocity": 114,
      "chip": "ym2612"
    },
    {
      "channel": 0,
      "note": 84,
      "start": 8.867,
      "duration": 0.0126,
      "velocity": 103,
      "chip": "ym2612"
    },
    {
      "channel": 5,
      "note": 84,
      "start": 8.8694,
      "duration": 0.0125,
      "velocity": 103,
      "chip": "ym2612"
    },
    {
      "channel": 0,
      "note": 84,
      "start": 8.8795,
      "duration": 0.0125,
      "velocity": 103,
      "chip": "ym2612"
    },
    {
      "channel": 5,
      "note": 84,
      "start": 8.8819,
      "duration": 0.0131,
      "velocity": 103,
      "chip": "ym2612"
    },
    {
      "channel": 0,
      "note": 84,
      "start": 8.892,
      "duration": 0.0125,
      "velocity": 103,
      "chip": "ym2612"
    },
    {
      "channel": 5,
      "note": 84,
      "start": 8.895,
      "duration": 0.0119,
      "velocity": 103,
      "chip": "ym2612"
    },
    {
      "channel": 0,
      "note": 84,
      "start": 8.9045,
      "duration": 0.0125,
      "velocity": 103,
      "chip": "ym2612"
    },
    {
      "channel": 5,
      "note": 84,
      "start": 8.9069,
      "duration": 0.0125,
      "velocity": 103,
      "chip": "ym2612"
    },
    {
      "channel": 0,
      "note": 84,
      "start": 8.917,
      "duration": 0.0126,
      "velocity": 103,
      "chip": "ym2612"
    },
    {
      "channel": 5,
      "note": 84,
      "start": 8.9194,
      "duration": 0.0125,
      "velocity": 103,
      "chip": "ym2612"
    },
    {
      "channel": 0,
      "note": 84,
      "start": 8.9295,
      "duration": 0.0123,
      "velocity": 103,
      "chip": "ym2612"
    },
    {
      "channel": 5,
      "note": 84,
      "start": 8.9319,
      "duration": 0.0153,
      "velocity": 103,
      "chip": "ym2612"
    },
    {
      "channel": 0,
      "note": 83,
      "start": 8.9423,
      "duration": 0.2497,
      "velocity": 103,
      "chip": "ym2612"
    },
    {
      "channel": 1,
      "note": 53,
      "start": 8.9437,
      "duration": 0.0482,
      "velocity": 81,
      "chip": "ym2612"
    },
    {
      "channel": 5,
      "note": 84,
      "start": 8.9472,
      "duration": 0.0088,
      "velocity": 103,
      "chip": "ym2612"
    },
    {
      "channel": 2,
      "note": 40,
      "start": 8.9499,
      "duration": 0.0074,
      "velocity": 114,
      "chip": "ym2612"
    },
    {
      "channel": 5,
      "note": 84,
      "start": 8.956,
      "duration": 0.0125,
      "velocity": 103,
      "chip": "ym2612"
    },
    {
      "channel": 2,
      "note": 40,
      "start": 8.9573,
      "duration": 0.0125,
      "velocity": 114,
      "chip": "ym2612"
    },
    {
      "channel": 5,
      "note": 84,
      "start": 8.9685,
      "duration": 0.0125,
      "velocity": 103,
      "chip": "ym2612"
    },
    {
      "channel": 2,
      "note": 40,
      "start": 8.9698,
      "duration": 0.0129,
      "velocity": 114,
      "chip": "ym2612"
    },
    {
      "channel": 5,
      "note": 84,
      "start": 8.981,
      "duration": 0.0134,
      "velocity": 103,
      "chip": "ym2612"
    },
    {
      "channel": 2,
      "note": 40,
      "start": 8.9827,
      "duration": 0.0133,
      "velocity": 114,
      "chip": "ym2612"
    },
    {
      "channel": 5,
      "note": 84,
      "start": 8.9944,
      "duration": 0.0116,
      "velocity": 103,
      "chip": "ym2612"
    },
    {
      "channel": 2,
      "note": 40,
      "start": 8.996,
      "duration": 0.0112,
      "velocity": 114,
      "chip": "ym2612"
    },
    {
      "channel": 5,
      "note": 84,
      "start": 9.006,
      "duration": 0.0125,
      "velocity": 103,
      "chip": "ym2612"
    },
    {
      "channel": 2,
      "note": 40,
      "start": 9.0072,
      "duration": 0.0125,
      "velocity": 114,
      "chip": "ym2612"
    },
    {
      "channel": 5,
      "note": 84,
      "start": 9.0185,
      "duration": 0.0125,
      "velocity": 103,
      "chip": "ym2612"
    },
    {
      "channel": 2,
      "note": 40,
      "start": 9.0198,
      "duration": 0.0125,
      "velocity": 114,
      "chip": "ym2612"
    },
    {
      "channel": 5,
      "note": 84,
      "start": 9.031,
      "duration": 0.015,
      "velocity": 103,
      "chip": "ym2612"
    },
    {
      "channel": 2,
      "note": 40,
      "start": 9.0323,
      "duration": 0.0149,
      "velocity": 114,
      "chip": "ym2612"
    },
    {
      "channel": 1,
      "note": 53,
      "start": 9.0425,
      "duration": 0.0994,
      "velocity": 81,
      "chip": "ym2612"
    },
    {
      "channel": 5,
      "note": 84,
      "start": 9.046,
      "duration": 0.01,
      "velocity": 103,
      "chip": "ym2612"
    },
    {
      "channel": 5,
      "note": 84,
      "start": 9.056,
      "duration": 0.0125,
      "velocity": 103,
      "chip": "ym2612"
    },
    {
      "channel": 2,
      "note": 41,
      "start": 9.0616,
      "duration": 0.1872,
      "velocity": 122,
      "chip": "ym2612"
    },
    {
      "channel": 5,
      "note": 84,
      "start": 9.0685,
      "duration": 0.0124,
      "velocity": 103,
      "chip": "ym2612"
    },
    {
      "channel": 5,
      "note": 83,
      "start": 9.0814,
      "duration": 0.2505,
      "velocity": 103,
      "chip": "ym2612"
    },
    {
      "channel": 0,
      "note": 83,
      "start": 9.192,
      "duration": 0.0125,
      "velocity": 103,
      "chip": "ym2612"
    },
    {
      "channel": 0,
      "note": 83,
      "start": 9.2045,
      "duration": 0.0125,
      "velocity": 103,
      "chip": "ym2612"
    },
    {
      "channel": 0,
      "note": 83,
      "start": 9.217,
      "duration": 0.0125,
      "velocity": 103,
      "chip": "ym2612"
    },
    {
      "channel": 0,
      "note": 83,
      "start": 9.2295,
      "duration": 0.0125,
      "velocity": 103,
      "chip": "ym2612"
    },
    {
      "channel": 0,
      "note": 83,
      "start": 9.242,
      "duration": 0.0125,
      "velocity": 103,
      "chip": "ym2612"
    },
    {
      "channel": 1,
      "note": 53,
      "start": 9.2434,
      "duration": 0.062,
      "velocity": 81,
      "chip": "ym2612"
    },
    {
      "channel": 2,
      "note": 40,
      "start": 9.2516,
      "duration": 0.0057,
      "velocity": 114,
      "chip": "ym2612"
    },
    {
      "channel": 0,
      "note": 83,
      "start": 9.2545,
      "duration": 0.0125,
      "velocity": 103,
      "chip": "ym2612"
    },
    {
      "channel": 2,
      "note": 40,
      "start": 9.2573,
      "duration": 0.0125,
      "velocity": 114,
      "chip": "ym2612"
    },
    {
      "channel": 0,
      "note": 83,
      "start": 9.267,
      "duration": 0.0126,
      "velocity": 103,
      "chip": "ym2612"
    },
    {
      "channel": 2,
      "note": 40,
      "start": 9.2698,
      "duration": 0.0129,
      "velocity": 114,
      "chip": "ym2612"
    },
    {
      "channel": 0,
      "note": 83,
      "start": 9.2795,
      "duration": 0.0125,
      "velocity": 103,
      "chip": "ym2612"
    },
    {
      "channel": 2,
      "note": 40,
      "start": 9.2827,
      "duration": 0.0127,
      "velocity": 114,
      "chip": "ym2612"
    },
    {
      "channel": 0,
      "note": 83,
      "start": 9.292,
      "duration": 0.0125,
      "velocity": 103,
      "chip": "ym2612"
    },
    {
      "channel": 2,
      "note": 40,
      "start": 9.2954,
      "duration": 0.0124,
      "velocity": 114,
      "chip": "ym2612"
    },
    {
      "channel": 0,
      "note": 83,
      "start": 9.3045,
      "duration": 0.0125,
      "velocity": 103,
      "chip": "ym2612"
    },
    {
      "channel": 2,
      "note": 40,
      "start": 9.3078,
      "duration": 0.012,
      "velocity": 114,
      "chip": "ym2612"
    },
    {
      "channel": 0,
      "note": 83,
      "start": 9.317,
      "duration": 0.0126,
      "velocity": 103,
      "chip": "ym2612"
    },
    {
      "channel": 2,
      "note": 40,
      "start": 9.3198,
      "duration": 0.0134,
      "velocity": 114,
      "chip": "ym2612"
    },
    {
      "channel": 0,
      "note": 83,
      "start": 9.3295,
      "duration": 0.0125,
      "velocity": 103,
      "chip": "ym2612"
    },
    {
      "channel": 5,
      "note": 83,
      "start": 9.3319,
      "duration": 0.015,
      "velocity": 103,
      "chip": "ym2612"
    },
    {
      "channel": 2,
      "note": 40,
      "start": 9.3332,
      "duration": 0.0149,
      "velocity": 114,
      "chip": "ym2612"
    },
    {
      "channel": 0,
      "note": 83,
      "start": 9.342,
      "duration": 0.0125,
      "velocity": 103,
      "chip": "ym2612"
    },
    {
      "channel": 1,
      "note": 53,
      "start": 9.3434,
      "duration": 0.0995,
      "velocity": 81,
      "chip": "ym2612"
    },
    {
      "channel": 5,
      "note": 83,
      "start": 9.3469,
      "duration": 0.01,
      "velocity": 103,
      "chip": "ym2612"
    },
    {
      "channel": 0,
      "note": 83,
      "start": 9.3545,
      "duration": 0.0125,
      "velocity": 103,
      "chip": "ym2612"
    },
    {
      "channel": 5,
      "note": 83,
      "start": 9.3569,
      "duration": 0.0125,
      "velocity": 103,
      "chip": "ym2612"
    },
    {
      "channel": 2,
      "note": 40,
      "start": 9.3591,
      "duration": 0.0115,
      "velocity": 114,
      "chip": "ym2612"
    },
    {
      "channel": 0,
      "note": 83,
      "start": 9.367,
      "duration": 0.0126,
      "velocity": 103,
      "chip": "ym2612"
    },
    {
      "channel": 5,
      "note": 83,
      "start": 9.3694,
      "duration": 0.0125,
      "velocity": 103,
      "chip": "ym2612"
    },
    {
      "channel": 2,
      "note": 40,
      "start": 9.3706,
      "duration": 0.0125,
      "velocity": 114,
      "chip": "ym2612"
    },
    {
      "channel": 0,
      "note": 83,
      "start": 9.3795,
      "duration": 0.0125,
      "velocity": 103,
      "chip": "ym2612"
    },
    {
      "channel": 5,
      "note": 83,
      "start": 9.3819,
      "duration": 0.0131,
      "velocity": 103,
      "chip": "ym2612"
    },
    {
      "channel": 2,
      "note": 40,
      "start": 9.3832,
      "duration": 0.0135,
      "velocity": 114,
      "chip": "ym2612"
    },
    {
      "channel": 0,
      "note": 83,
      "start": 9.392,
      "duration": 0.0125,
      "velocity": 103,
      "chip": "ym2612"
    },
    {
      "channel": 5,
      "note": 83,
      "start": 9.395,
      "duration": 0.0119,
      "velocity": 103,
      "chip": "ym2612"
    },
    {
      "channel": 2,
      "note": 40,
      "start": 9.3967,
      "duration": 0.0115,
      "velocity": 114,
      "chip": "ym2612"
    },
    {
      "channel": 0,
      "note": 83,
      "start": 9.4045,
      "duration": 0.0125,
      "velocity": 103,
      "chip": "ym2612"
    },
    {
      "channel": 5,
      "note": 83,
      "start": 9.4069,
      "duration": 0.0125,
      "velocity": 103,
      "chip": "ym2612"
    },
    {
      "channel": 2,
      "note": 40,
      "start": 9.4082,
      "duration": 0.0124,
      "velocity": 114,
      "chip": "ym2612"
    },
    {
      "channel": 0,
      "note": 83,
      "start": 9.417,
      "duration": 0.0125,
      "velocity": 103,
      "chip": "ym2612"
    },
    {
      "channel": 5,
      "note": 83,
      "start": 9.4194,
      "duration": 0.0125,
      "velocity": 103,
      "chip": "ym2612"
    },
    {
      "channel": 2,
      "note": 40,
      "start": 9.4206,
      "duration": 0.0125,
      "velocity": 114,
      "chip": "ym2612"
    },
    {
      "channel": 0,
      "note": 83,
      "start": 9.4295,
      "duration": 0.0125,
      "velocity": 103,
      "chip": "ym2612"
    },
    {
      "channel": 5,
      "note": 83,
      "start": 9.4319,
      "duration": 0.015,
      "velocity": 103,
      "chip": "ym2612"
    },
    {
      "channel": 2,
      "note": 40,
      "start": 9.4332,
      "duration": 0.0149,
      "velocity": 114,
      "chip": "ym2612"
    },
    {
      "channel": 0,
      "note": 83,
      "start": 9.442,
      "duration": 0.0125,
      "velocity": 103,
      "chip": "ym2612"
    },
    {
      "channel": 1,
      "note": 59,
      "start": 9.4434,
      "duration": 0.0995,
      "velocity": 81,
      "chip": "ym2612"
    },
    {
      "channel": 5,
      "note": 83,
      "start": 9.4469,
      "duration": 0.01,
      "velocity": 103,
      "chip": "ym2612"
    },
    {
      "channel": 0,
      "note": 83,
      "start": 9.4545,
      "duration": 0.0125,
      "velocity": 103,
      "chip": "ym2612"
    },
    {
      "channel": 5,
      "note": 83,
      "start": 9.4569,
      "duration": 0.0125,
      "velocity": 103,
      "chip": "ym2612"
    },
    {
      "channel": 2,
      "note": 40,
      "start": 9.4591,
      "duration": 0.0115,
      "velocity": 114,
      "chip": "ym2612"
    },
    {
      "channel": 0,
      "note": 83,
      "start": 9.467,
      "duration": 0.0126,
      "velocity": 103,
      "chip": "ym2612"
    },
    {
      "channel": 5,
      "note": 83,
      "start": 9.4694,
      "duration": 0.0125,
      "velocity": 103,
      "chip": "ym2612"
    },
    {
      "channel": 2,
      "note": 40,
      "start": 9.4706,
      "duration": 0.0125,
      "velocity": 114,
      "chip": "ym2612"
    },
    {
      "channel": 0,
      "note": 83,
      "start": 9.4795,
      "duration": 0.0125,
      "velocity": 103,
      "chip": "ym2612"
    },
    {
      "channel": 5,
      "note": 83,
      "start": 9.4819,
      "duration": 0.0131,
      "velocity": 103,
      "chip": "ym2612"
    },
    {
      "channel": 2,
      "note": 40,
      "start": 9.4832,
      "duration": 0.0135,
      "velocity": 114,
      "chip": "ym2612"
    },
    {
      "channel": 0,
      "note": 83,
      "start": 9.492,
      "duration": 0.0125,
      "velocity": 103,
      "chip": "ym2612"
    },
    {
      "channel": 5,
      "note": 83,
      "start": 9.495,
      "duration": 0.0119,
      "velocity": 103,
      "chip": "ym2612"
    },
    {
      "channel": 2,
      "note": 40,
      "start": 9.4967,
      "duration": 0.0115,
      "velocity": 114,
      "chip": "ym2612"
    },
    {
      "channel": 0,
      "note": 83,
      "start": 9.5045,
      "duration": 0.0125,
      "velocity": 103,
      "chip": "ym2612"
    },
    {
      "channel": 5,
      "note": 83,
      "start": 9.5069,
      "duration": 0.0125,
      "velocity": 103,
      "chip": "ym2612"
    },
    {
      "channel": 2,
      "note": 40,
      "start": 9.5082,
      "duration": 0.0124,
      "velocity": 114,
      "chip": "ym2612"
    },
    {
      "channel": 0,
      "note": 83,
      "start": 9.517,
      "duration": 0.0126,
      "velocity": 103,
      "chip": "ym2612"
    },
    {
      "channel": 5,
      "note": 83,
      "start": 9.5194,
      "duration": 0.0125,
      "velocity": 103,
      "chip": "ym2612"
    },
    {
      "channel": 2,
      "note": 40,
      "start": 9.5206,
      "duration": 0.0125,
      "velocity": 114,
      "chip": "ym2612"
    },
    {
      "channel": 0,
      "note": 83,
      "start": 9.5295,
      "duration": 0.0125,
      "velocity": 103,
      "chip": "ym2612"
    },
    {
      "channel": 5,
      "note": 83,
      "start": 9.5319,
      "duration": 0.015,
      "velocity": 103,
      "chip": "ym2612"
    },
    {
      "channel": 2,
      "note": 40,
      "start": 9.5332,
      "duration": 0.0149,
      "velocity": 114,
      "chip": "ym2612"
    },
    {
      "channel": 0,
      "note": 83,
      "start": 9.542,
      "duration": 0.0125,
      "velocity": 103,
      "chip": "ym2612"
    },
    {
      "channel": 1,
      "note": 65,
      "start": 9.5434,
      "duration": 0.0995,
      "velocity": 81,
      "chip": "ym2612"
    },
    {
      "channel": 5,
      "note": 83,
      "start": 9.5469,
      "duration": 0.01,
      "velocity": 103,
      "chip": "ym2612"
    },
    {
      "channel": 0,
      "note": 83,
      "start": 9.5545,
      "duration": 0.0125,
      "velocity": 103,
      "chip": "ym2612"
    },
    {
      "channel": 5,
      "note": 83,
      "start": 9.5569,
      "duration": 0.0125,
      "velocity": 103,
      "chip": "ym2612"
    },
    {
      "channel": 2,
      "note": 40,
      "start": 9.5591,
      "duration": 0.0115,
      "velocity": 114,
      "chip": "ym2612"
    },
    {
      "channel": 0,
      "note": 83,
      "start": 9.567,
      "duration": 0.0126,
      "velocity": 103,
      "chip": "ym2612"
    },
    {
      "channel": 5,
      "note": 83,
      "start": 9.5694,
      "duration": 0.0125,
      "velocity": 103,
      "chip": "ym2612"
    },
    {
      "channel": 2,
      "note": 40,
      "start": 9.5706,
      "duration": 0.0125,
      "velocity": 114,
      "chip": "ym2612"
    },
    {
      "channel": 0,
      "note": 83,
      "start": 9.5795,
      "duration": 0.0125,
      "velocity": 103,
      "chip": "ym2612"
    },
    {
      "channel": 5,
      "note": 83,
      "start": 9.5819,
      "duration": 0.0131,
      "velocity": 103,
      "chip": "ym2612"
    },
    {
      "channel": 2,
      "note": 40,
      "start": 9.5832,
      "duration": 0.0135,
      "velocity": 114,
      "chip": "ym2612"
    },
    {
      "channel": 0,
      "note": 83,
      "start": 9.592,
      "duration": 0.0125,
      "velocity": 103,
      "chip": "ym2612"
    },
    {
      "channel": 5,
      "note": 83,
      "start": 9.595,
      "duration": 0.0119,
      "velocity": 103,
      "chip": "ym2612"
    },
    {
      "channel": 2,
      "note": 40,
      "start": 9.5967,
      "duration": 0.0115,
      "velocity": 114,
      "chip": "ym2612"
    },
    {
      "channel": 0,
      "note": 83,
      "start": 9.6045,
      "duration": 0.0125,
      "velocity": 103,
      "chip": "ym2612"
    },
    {
      "channel": 5,
      "note": 83,
      "start": 9.6069,
      "duration": 0.0125,
      "velocity": 103,
      "chip": "ym2612"
    },
    {
      "channel": 2,
      "note": 40,
      "start": 9.6082,
      "duration": 0.0124,
      "velocity": 114,
      "chip": "ym2612"
    },
    {
      "channel": 0,
      "note": 83,
      "start": 9.617,
      "duration": 0.0126,
      "velocity": 103,
      "chip": "ym2612"
    },
    {
      "channel": 5,
      "note": 83,
      "start": 9.6194,
      "duration": 0.0125,
      "velocity": 103,
      "chip": "ym2612"
    },
    {
      "channel": 2,
      "note": 40,
      "start": 9.6206,
      "duration": 0.0125,
      "velocity": 114,
      "chip": "ym2612"
    },
    {
      "channel": 0,
      "note": 83,
      "start": 9.6295,
      "duration": 0.0125,
      "velocity": 103,
      "chip": "ym2612"
    },
    {
      "channel": 5,
      "note": 83,
      "start": 9.6319,
      "duration": 0.015,
      "velocity": 103,
      "chip": "ym2612"
    },
    {
      "channel": 2,
      "note": 40,
      "start": 9.6332,
      "duration": 0.0149,
      "velocity": 114,
      "chip": "ym2612"
    },
    {
      "channel": 0,
      "note": 83,
      "start": 9.642,
      "duration": 0.0125,
      "velocity": 103,
      "chip": "ym2612"
    },
    {
      "channel": 1,
      "note": 59,
      "start": 9.6434,
      "duration": 0.1128,
      "velocity": 81,
      "chip": "ym2612"
    },
    {
      "channel": 5,
      "note": 83,
      "start": 9.6469,
      "duration": 0.01,
      "velocity": 103,
      "chip": "ym2612"
    },
    {
      "channel": 0,
      "note": 83,
      "start": 9.6545,
      "duration": 0.0125,
      "velocity": 103,
      "chip": "ym2612"
    },
    {
      "channel": 5,
      "note": 83,
      "start": 9.6569,
      "duration": 0.0125,
      "velocity": 103,
      "chip": "ym2612"
    },
    {
      "channel": 2,
      "note": 40,
      "start": 9.6591,
      "duration": 0.0115,
      "velocity": 114,
      "chip": "ym2612"
    },
    {
      "channel": 0,
      "note": 83,
      "start": 9.667,
      "duration": 0.0126,
      "velocity": 103,
      "chip": "ym2612"
    },
    {
      "channel": 5,
      "note": 83,
      "start": 9.6694,
      "duration": 0.0125,
      "velocity": 103,
      "chip": "ym2612"
    },
    {
      "channel": 2,
      "note": 40,
      "start": 9.6706,
      "duration": 0.0125,
      "velocity": 114,
      "chip": "ym2612"
    },
    {
      "channel": 0,
      "note": 83,
      "start": 9.6795,
      "duration": 0.0125,
      "velocity": 103,
      "chip": "ym2612"
    },
    {
      "channel": 5,
      "note": 83,
      "start": 9.6819,
      "duration": 0.0131,
      "velocity": 103,
      "chip": "ym2612"
    },
    {
      "channel": 2,
      "note": 40,
      "start": 9.6832,
      "duration": 0.0135,
      "velocity": 114,
      "chip": "ym2612"
    },
    {
      "channel": 0,
      "note": 83,
      "start": 9.692,
      "duration": 0.0125,
      "velocity": 103,
      "chip": "ym2612"
    },
    {
      "channel": 5,
      "note": 83,
      "start": 9.695,
      "duration": 0.0119,
      "velocity": 103,
      "chip": "ym2612"
    },
    {
      "channel": 2,
      "note": 40,
      "start": 9.6967,
      "duration": 0.0115,
      "velocity": 114,
      "chip": "ym2612"
    },
    {
      "channel": 0,
      "note": 83,
      "start": 9.7045,
      "duration": 0.0125,
      "velocity": 103,
      "chip": "ym2612"
    },
    {
      "channel": 5,
      "note": 83,
      "start": 9.7069,
      "duration": 0.0125,
      "velocity": 103,
      "chip": "ym2612"
    },
    {
      "channel": 2,
      "note": 40,
      "start": 9.7082,
      "duration": 0.0124,
      "velocity": 114,
      "chip": "ym2612"
    },
    {
      "channel": 0,
      "note": 83,
      "start": 9.717,
      "duration": 0.0126,
      "velocity": 103,
      "chip": "ym2612"
    },
    {
      "channel": 5,
      "note": 83,
      "start": 9.7194,
      "duration": 0.0125,
      "velocity": 103,
      "chip": "ym2612"
    },
    {
      "channel": 2,
      "note": 40,
      "start": 9.7206,
      "duration": 0.0125,
      "velocity": 114,
      "chip": "ym2612"
    },
    {
      "channel": 0,
      "note": 83,
      "start": 9.7295,
      "duration": 0.0125,
      "velocity": 103,
      "chip": "ym2612"
    },
    {
      "channel": 5,
      "note": 83,
      "start": 9.7319,
      "duration": 0.0131,
      "velocity": 103,
      "chip": "ym2612"
    },
    {
      "channel": 2,
      "note": 40,
      "start": 9.7332,
      "duration": 0.0131,
      "velocity": 114,
      "chip": "ym2612"
    },
    {
      "channel": 0,
      "note": 83,
      "start": 9.742,
      "duration": 0.0123,
      "velocity": 103,
      "chip": "ym2612"
    },
    {
      "channel": 5,
      "note": 83,
      "start": 9.745,
      "duration": 0.0165,
      "velocity": 103,
      "chip": "ym2612"
    },
    {
      "channel": 2,
      "note": 40,
      "start": 9.7463,
      "duration": 0.0163,
      "velocity": 114,
      "chip": "ym2612"
    },
    {
      "channel": 0,
      "note": 82,
      "start": 9.7548,
      "duration": 0.2497,
      "velocity": 103,
      "chip": "ym2612"
    },
    {
      "channel": 1,
      "note": 53,
      "start": 9.7566,
      "duration": 0.0478,
      "velocity": 81,
      "chip": "ym2612"
    },
    {
      "channel": 5,
      "note": 83,
      "start": 9.7615,
      "duration": 0.0069,
      "velocity": 103,
      "chip": "ym2612"
    },
    {
      "channel": 5,
      "note": 83,
      "start": 9.7685,
      "duration": 0.0125,
      "velocity": 103,
      "chip": "ym2612"
    },
    {
      "channel": 2,
      "note": 40,
      "start": 9.7707,
      "duration": 0.0116,
      "velocity": 114,
      "chip": "ym2612"
    },
    {
      "channel": 5,
      "note": 83,
      "start": 9.781,
      "duration": 0.0125,
      "velocity": 103,
      "chip": "ym2612"
    },
    {
      "channel": 2,
      "note": 40,
      "start": 9.7823,
      "duration": 0.0131,
      "velocity": 114,
      "chip": "ym2612"
    },
    {
      "channel": 5,
      "note": 83,
      "start": 9.7935,
      "duration": 0.013,
      "velocity": 103,
      "chip": "ym2612"
    },
    {
      "channel": 2,
      "note": 40,
      "start": 9.7954,
      "duration": 0.0128,
      "velocity": 114,
      "chip": "ym2612"
    },
    {
      "channel": 5,
      "note": 83,
      "start": 9.8065,
      "duration": 0.012,
      "velocity": 103,
      "chip": "ym2612"
    },
    {
      "channel": 2,
      "note": 40,
      "start": 9.8082,
      "duration": 0.0116,
      "velocity": 114,
      "chip": "ym2612"
    },
    {
      "channel": 5,
      "note": 83,
      "start": 9.8185,
      "duration": 0.0125,
      "velocity": 103,
      "chip": "ym2612"
    },
    {
      "channel": 2,
      "note": 40,
      "start": 9.8198,
      "duration": 0.0125,
      "velocity": 114,
      "chip": "ym2612"
    },
    {
      "channel": 5,
      "note": 83,
      "start": 9.831,
      "duration": 0.0125,
      "velocity": 103,
      "chip": "ym2612"
    },
    {
      "channel": 2,
      "note": 40,
      "start": 9.8323,
      "duration": 0.0131,
      "velocity": 114,
      "chip": "ym2612"
    },
    {
      "channel": 5,
      "note": 83,
      "start": 9.8435,
      "duration": 0.0144,
      "velocity": 103,
      "chip": "ym2612"
    },
    {
      "channel": 2,
      "note": 40,
      "start": 9.8454,
      "duration": 0.0137,
      "velocity": 114,
      "chip": "ym2612"
    },
    {
      "channel": 1,
      "note": 53,
      "start": 9.855,
      "duration": 0.0994,
      "velocity": 81,
      "chip": "ym2612"
    },
    {
      "channel": 5,
      "note": 83,
      "start": 9.8579,
      "duration": 0.0106,
      "velocity": 103,
      "chip": "ym2612"
    },
    {
      "channel": 5,
      "note": 83,
      "start": 9.8685,
      "duration": 0.0125,
      "velocity": 103,
      "chip": "ym2612"
    },
    {
      "channel": 2,
      "note": 40,
      "start": 9.8707,
      "duration": 0.0116,
      "velocity": 114,
      "chip": "ym2612"
    },
    {
      "channel": 5,
      "note": 83,
      "start": 9.881,
      "duration": 0.0123,
      "velocity": 103,
      "chip": "ym2612"
    },
    {
      "channel": 2,
      "note": 40,
      "start": 9.8823,
      "duration": 0.0134,
      "velocity": 114,
      "chip": "ym2612"
    },
    {
      "channel": 5,
      "note": 82,
      "start": 9.8942,
      "duration": 0.2508,
      "velocity": 103,
      "chip": "ym2612"
    },
    {
      "channel": 2,
      "note": 40,
      "start": 9.8957,
      "duration": 0.011,
      "velocity": 114,
      "chip": "ym2612"
    },
    {
      "channel": 2,
      "note": 40,
      "start": 9.9067,
      "duration": 0.0122,
      "velocity": 114,
      "chip": "ym2612"
    },
    {
      "channel": 2,
      "note": 40,
      "start": 9.9189,
      "duration": 0.0125,
      "velocity": 114,
      "chip": "ym2612"
    },
    {
      "channel": 2,
      "note": 40,
      "start": 9.9314,
      "duration": 0.0129,
      "velocity": 114,
      "chip": "ym2612"
    },
    {
      "channel": 2,
      "note": 40,
      "start": 9.9442,
      "duration": 0.0127,
      "velocity": 114,
      "chip": "ym2612"
    },
    {
      "channel": 2,
      "note": 40,
      "start": 9.9569,
      "duration": 0.012,
      "velocity": 114,
      "chip": "ym2612"
    },
    {
      "channel": 2,
      "note": 40,
      "start": 9.9689,
      "duration": 0.0125,
      "velocity": 114,
      "chip": "ym2612"
    },
    {
      "channel": 2,
      "note": 40,
      "start": 9.9814,
      "duration": 0.0129,
      "velocity": 114,
      "chip": "ym2612"
    },
    {
      "channel": 2,
      "note": 39,
      "start": 9.9942,
      "duration": 0.013,
      "velocity": 114,
      "chip": "ym2612"
    },
    {
      "channel": 0,
      "note": 82,
      "start": 10.0045,
      "duration": 0.0125,
      "velocity": 103,
      "chip": "ym2612"
    },
    {
      "channel": 0,
      "note": 82,
      "start": 10.017,
      "duration": 0.0126,
      "velocity": 103,
      "chip": "ym2612"
    },
    {
      "channel": 0,
      "note": 82,
      "start": 10.0295,
      "duration": 0.0125,
      "velocity": 103,
      "chip": "ym2612"
    },
    {
      "channel": 0,
      "note": 82,
      "start": 10.042,
      "duration": 0.0125,
      "velocity": 103,
      "chip": "ym2612"
    },
    {
      "channel": 0,
      "note": 82,
      "start": 10.0545,
      "duration": 0.0125,
      "velocity": 103,
      "chip": "ym2612"
    },
    {
      "channel": 1,
      "note": 53,
      "start": 10.0559,
      "duration": 0.0619,
      "velocity": 81,
      "chip": "ym2612"
    },
    {
      "channel": 2,
      "note": 40,
      "start": 10.0609,
      "duration": 0.0088,
      "velocity": 114,
      "chip": "ym2612"
    },
    {
      "channel": 0,
      "note": 82,
      "start": 10.067,
      "duration": 0.0126,
      "velocity": 103,
      "chip": "ym2612"
    },
    {
      "channel": 2,
      "note": 40,
      "start": 10.0698,
      "duration": 0.0125,
      "velocity": 114,
      "chip": "ym2612"
    },
    {
      "channel": 0,
      "note": 82,
      "start": 10.0795,
      "duration": 0.0125,
      "velocity": 103,
      "chip": "ym2612"
    },
    {
      "channel": 2,
      "note": 40,
      "start": 10.0823,
      "duration": 0.0135,
      "velocity": 114,
      "chip": "ym2612"
    },
    {
      "channel": 0,
      "note": 82,
      "start": 10.092,
      "duration": 0.0125,
      "velocity": 103,
      "chip": "ym2612"
    },
    {
      "channel": 2,
      "note": 40,
      "start": 10.0958,
      "duration": 0.0115,
      "velocity": 114,
      "chip": "ym2612"
    },
    {
      "channel": 0,
      "note": 82,
      "start": 10.1045,
      "duration": 0.0125,
      "velocity": 103,
      "chip": "ym2612"
    },
    {
      "channel": 2,
      "note": 40,
      "start": 10.1073,
      "duration": 0.013,
      "velocity": 114,
      "chip": "ym2612"
    },
    {
      "channel": 0,
      "note": 82,
      "start": 10.117,
      "duration": 0.0125,
      "velocity": 103,
      "chip": "ym2612"
    },
    {
      "channel": 2,
      "note": 40,
      "start": 10.1203,
      "duration": 0.012,
      "velocity": 114,
      "chip": "ym2612"
    },
    {
      "channel": 0,
      "note": 82,
      "start": 10.1295,
      "duration": 0.0125,
      "velocity": 103,
      "chip": "ym2612"
    },
    {
      "channel": 2,
      "note": 40,
      "start": 10.1323,
      "duration": 0.014,
      "velocity": 114,
      "chip": "ym2612"
    },
    {
      "channel": 0,
      "note": 82,
      "start": 10.142,
      "duration": 0.0125,
      "velocity": 103,
      "chip": "ym2612"
    },
    {
      "channel": 5,
      "note": 82,
      "start": 10.145,
      "duration": 0.0138,
      "velocity": 103,
      "chip": "ym2612"
    },
    {
      "channel": 2,
      "note": 40,
      "start": 10.1463,
      "duration": 0.0137,
      "velocity": 114,
      "chip": "ym2612"
    },
    {
      "channel": 0,
      "note": 82,
      "start": 10.1545,
      "duration": 0.0125,
      "velocity": 103,
      "chip": "ym2612"
    },
    {
      "channel": 1,
      "note": 53,
      "start": 10.1559,
      "duration": 0.0994,
      "velocity": 81,
      "chip": "ym2612"
    },
    {
      "channel": 5,
      "note": 82,
      "start": 10.1588,
      "duration": 0.0105,
      "velocity": 103,
      "chip": "ym2612"
    },
    {
      "channel": 0,
      "note": 82,
      "start": 10.167,
      "duration": 0.0126,
      "velocity": 103,
      "chip": "ym2612"
    },
    {
      "channel": 5,
      "note": 82,
      "start": 10.1694,
      "duration": 0.0126,
      "velocity": 103,
      "chip": "ym2612"
    },
    {
      "channel": 2,
      "note": 41,
      "start": 10.1745,
      "duration": 0.1878,
      "velocity": 122,
      "chip": "ym2612"
    },
    {
      "channel": 0,
      "note": 82,
      "start": 10.1795,
      "duration": 0.0125,
      "velocity": 103,
      "chip": "ym2612"
    },
    {
      "channel": 5,
      "note": 82,
      "start": 10.182,
      "duration": 0.013,
      "velocity": 103,
      "chip": "ym2612"
    },
    {
      "channel": 0,
      "note": 82,
      "start": 10.192,
      "duration": 0.0125,
      "velocity": 103,
      "chip": "ym2612"
    },
    {
      "channel": 5,
      "note": 82,
      "start": 10.195,
      "duration": 0.0119,
      "velocity": 103,
      "chip": "ym2612"
    },
    {
      "channel": 0,
      "note": 82,
      "start": 10.2045,
      "duration": 0.0125,
      "velocity": 103,
      "chip": "ym2612"
    },
    {
      "channel": 5,
      "note": 82,
      "start": 10.2069,
      "duration": 0.0125,
      "velocity": 103,
      "chip": "ym2612"
    },
    {
      "channel": 0,
      "note": 82,
      "start": 10.217,
      "duration": 0.0126,
      "velocity": 103,
      "chip": "ym2612"
    },
    {
      "channel": 5,
      "note": 82,
      "start": 10.2194,
      "duration": 0.0126,
      "velocity": 103,
      "chip": "ym2612"
    },
    {
      "channel": 0,
      "note": 82,
      "start": 10.2295,
      "duration": 0.0125,
      "velocity": 103,
      "chip": "ym2612"
    },
    {
      "channel": 5,
      "note": 82,
      "start": 10.232,
      "duration": 0.013,
      "velocity": 103,
      "chip": "ym2612"
    },
    {
      "channel": 0,
      "note": 82,
      "start": 10.242,
      "duration": 0.0125,
      "velocity": 103,
      "chip": "ym2612"
    },
    {
      "channel": 5,
      "note": 82,
      "start": 10.245,
      "duration": 0.0124,
      "velocity": 103,
      "chip": "ym2612"
    },
    {
      "channel": 0,
      "note": 82,
      "start": 10.2545,
      "duration": 0.0125,
      "velocity": 103,
      "chip": "ym2612"
    },
    {
      "channel": 5,
      "note": 82,
      "start": 10.2574,
      "duration": 0.012,
      "velocity": 103,
      "chip": "ym2612"
    },
    {
      "channel": 0,
      "note": 82,
      "start": 10.267,
      "duration": 0.0126,
      "velocity": 103,
      "chip": "ym2612"
    },
    {
      "channel": 5,
      "note": 82,
      "start": 10.2694,
      "duration": 0.0125,
      "velocity": 103,
      "chip": "ym2612"
    },
    {
      "channel": 0,
      "note": 82,
      "start": 10.2795,
      "duration": 0.0125,
      "velocity": 103,
      "chip": "ym2612"
    },
    {
      "channel": 5,
      "note": 82,
      "start": 10.2819,
      "duration": 0.0131,
      "velocity": 103,
      "chip": "ym2612"
    },
    {
      "channel": 0,
      "note": 82,
      "start": 10.292,
      "duration": 0.0125,
      "velocity": 103,
      "chip": "ym2612"
    },
    {
      "channel": 5,
      "note": 82,
      "start": 10.295,
      "duration": 0.0119,
      "velocity": 103,
      "chip": "ym2612"
    },
    {
      "channel": 0,
      "note": 82,
      "start": 10.3045,
      "duration": 0.0125,
      "velocity": 103,
      "chip": "ym2612"
    },
    {
      "channel": 5,
      "note": 82,
      "start": 10.3069,
      "duration": 0.0125,
      "velocity": 103,
      "chip": "ym2612"
    },
    {
      "channel": 0,
      "note": 82,
      "start": 10.317,
      "duration": 0.0126,
      "velocity": 103,
      "chip": "ym2612"
    },
    {
      "channel": 5,
      "note": 82,
      "start": 10.3194,
      "duration": 0.0125,
      "velocity": 103,
      "chip": "ym2612"
    },
    {
      "channel": 0,
      "note": 82,
      "start": 10.3295,
      "duration": 0.0125,
      "velocity": 103,
      "chip": "ym2612"
    },
    {
      "channel": 5,
      "note": 82,
      "start": 10.3319,
      "duration": 0.0131,
      "velocity": 103,
      "chip": "ym2612"
    },
    {
      "channel": 0,
      "note": 82,
      "start": 10.342,
      "duration": 0.0125,
      "velocity": 103,
      "chip": "ym2612"
    },
    {
      "channel": 5,
      "note": 82,
      "start": 10.345,
      "duration": 0.0138,
      "velocity": 103,
      "chip": "ym2612"
    },
    {
      "channel": 0,
      "note": 82,
      "start": 10.3545,
      "duration": 0.0125,
      "velocity": 103,
      "chip": "ym2612"
    },
    {
      "channel": 1,
      "note": 53,
      "start": 10.3559,
      "duration": 0.0619,
      "velocity": 81,
      "chip": "ym2612"
    },
    {
      "channel": 5,
      "note": 82,
      "start": 10.3588,
      "duration": 0.0105,
      "velocity": 103,
      "chip": "ym2612"
    },
    {
      "channel": 2,
      "note": 40,
      "start": 10.365,
      "duration": 0.0056,
      "velocity": 114,
      "chip": "ym2612"
    },
    {
      "channel": 0,
      "note": 82,
      "start": 10.367,
      "duration": 0.0126,
      "velocity": 103,
      "chip": "ym2612"
    },
    {
      "channel": 5,
      "note": 82,
      "start": 10.3694,
      "duration": 0.0125,
      "velocity": 103,
      "chip": "ym2612"
    },
    {
      "channel": 2,
      "note": 40,
      "start": 10.3706,
      "duration": 0.0125,
      "velocity": 114,
      "chip": "ym2612"
    },
    {
      "channel": 0,
      "note": 82,
      "start": 10.3795,
      "duration": 0.0125,
      "velocity": 103,
      "chip": "ym2612"
    },
    {
      "channel": 5,
      "note": 82,
      "start": 10.3819,
      "duration": 0.0131,
      "velocity": 103,
      "chip": "ym2612"
    },
    {
      "channel": 2,
      "note": 40,
      "start": 10.3832,
      "duration": 0.0135,
      "velocity": 114,
      "chip": "ym2612"
    },
    {
      "channel": 0,
      "note": 82,
      "start": 10.392,
      "duration": 0.0125,
      "velocity": 103,
      "chip": "ym2612"
    },
    {
      "channel": 5,
      "note": 82,
      "start": 10.395,
      "duration": 0.0119,
      "velocity": 103,
      "chip": "ym2612"
    },
    {
      "channel": 2,
      "note": 40,
      "start": 10.3967,
      "duration": 0.0115,
      "velocity": 114,
      "chip": "ym2612"
    },
    {
      "channel": 0,
      "note": 82,
      "start": 10.4045,
      "duration": 0.0125,
      "velocity": 103,
      "chip": "ym2612"
    },
    {
      "channel": 5,
      "note": 82,
      "start": 10.4069,
      "duration": 0.013,
      "velocity": 103,
      "chip": "ym2612"
    },
    {
      "channel": 2,
      "note": 40,
      "start": 10.4082,
      "duration": 0.013,
      "velocity": 114,
      "chip": "ym2612"
    },
    {
      "channel": 0,
      "note": 82,
      "start": 10.417,
      "duration": 0.0126,
      "velocity": 103,
      "chip": "ym2612"
    },
    {
      "channel": 5,
      "note": 82,
      "start": 10.4199,
      "duration": 0.012,
      "velocity": 103,
      "chip": "ym2612"
    },
    {
      "channel": 2,
      "note": 40,
      "start": 10.4212,
      "duration": 0.012,
      "velocity": 114,
      "chip": "ym2612"
    },
    {
      "channel": 0,
      "note": 82,
      "start": 10.4295,
      "duration": 0.0125,
      "velocity": 103,
      "chip": "ym2612"
    },
    {
      "channel": 5,
      "note": 82,
      "start": 10.4319,
      "duration": 0.0131,
      "velocity": 103,
      "chip": "ym2612"
    },
    {
      "channel": 2,
      "note": 40,
      "start": 10.4332,
      "duration": 0.0131,
      "velocity": 114,
      "chip": "ym2612"
    },
    {
      "channel": 0,
      "note": 82,
      "start": 10.442,
      "duration": 0.0125,
      "velocity": 103,
      "chip": "ym2612"
    },
    {
      "channel": 5,
      "note": 82,
      "start": 10.445,
      "duration": 0.0138,
      "velocity": 103,
      "chip": "ym2612"
    },
    {
      "channel": 2,
      "note": 40,
      "start": 10.4463,
      "duration": 0.0137,
      "velocity": 114,
      "chip": "ym2612"
    },
    {
      "channel": 0,
      "note": 82,
      "start": 10.4545,
      "duration": 0.0125,
      "velocity": 103,
      "chip": "ym2612"
    },
    {
      "channel": 1,
      "note": 53,
      "start": 10.4559,
      "duration": 0.1119,
      "velocity": 81,
      "chip": "ym2612"
    },
    {
      "channel": 5,
      "note": 82,
      "start": 10.4588,
      "duration": 0.0105,
      "velocity": 103,
      "chip": "ym2612"
    },
    {
      "channel": 0,
      "note": 82,
      "start": 10.467,
      "duration": 0.0125,
      "velocity": 103,
      "chip": "ym2612"
    },
    {
      "channel": 5,
      "note": 82,
      "start": 10.4694,
      "duration": 0.0125,
      "velocity": 103,
      "chip": "ym2612"
    },
    {
      "channel": 2,
      "note": 40,
      "start": 10.4716,
      "duration": 0.0116,
      "velocity": 114,
      "chip": "ym2612"
    },
    {
      "channel": 0,
      "note": 82,
      "start": 10.4795,
      "duration": 0.0125,
      "velocity": 103,
      "chip": "ym2612"
    },
    {
      "channel": 5,
      "note": 82,
      "start": 10.4819,
      "duration": 0.0131,
      "velocity": 103,
      "chip": "ym2612"
    },
    {
      "channel": 2,
      "note": 40,
      "start": 10.4832,
      "duration": 0.0131,
      "velocity": 114,
      "chip": "ym2612"
    },
    {
      "channel": 0,
      "note": 82,
      "start": 10.492,
      "duration": 0.0125,
      "velocity": 103,
      "chip": "ym2612"
    },
    {
      "channel": 5,
      "note": 82,
      "start": 10.495,
      "duration": 0.0119,
      "velocity": 103,
      "chip": "ym2612"
    },
    {
      "channel": 2,
      "note": 40,
      "start": 10.4963,
      "duration": 0.0123,
      "velocity": 114,
      "chip": "ym2612"
    },
    {
      "channel": 0,
      "note": 82,
      "start": 10.5045,
      "duration": 0.0125,
      "velocity": 103,
      "chip": "ym2612"
    },
    {
      "channel": 5,
      "note": 82,
      "start": 10.5069,
      "duration": 0.0125,
      "velocity": 103,
      "chip": "ym2612"
    },
    {
      "channel": 2,
      "note": 40,
      "start": 10.5085,
      "duration": 0.0121,
      "velocity": 114,
      "chip": "ym2612"
    },
    {
      "channel": 0,
      "note": 82,
      "start": 10.517,
      "duration": 0.0126,
      "velocity": 103,
      "chip": "ym2612"
    },
    {
      "channel": 5,
      "note": 82,
      "start": 10.5194,
      "duration": 0.0125,
      "velocity": 103,
      "chip": "ym2612"
    },
    {
      "channel": 2,
      "note": 40,
      "start": 10.5206,
      "duration": 0.0125,
      "velocity": 114,
      "chip": "ym2612"
    },
    {
      "channel": 0,
      "note": 82,
      "start": 10.5295,
      "duration": 0.0125,
      "velocity": 103,
      "chip": "ym2612"
    },
    {
      "channel": 5,
      "note": 82,
      "start": 10.5319,
      "duration": 0.0131,
      "velocity": 103,
      "chip": "ym2612"
    },
    {
      "channel": 2,
      "note": 40,
      "start": 10.5332,
      "duration": 0.0131,
      "velocity": 114,
      "chip": "ym2612"
    },
    {
      "channel": 0,
      "note": 82,
      "start": 10.542,
      "duration": 0.0125,
      "velocity": 103,
      "chip": "ym2612"
    },
    {
      "channel": 5,
      "note": 82,
      "start": 10.545,
      "duration": 0.0119,
      "velocity": 103,
      "chip": "ym2612"
    },
    {
      "channel": 2,
      "note": 40,
      "start": 10.5463,
      "duration": 0.0119,
      "velocity": 114,
      "chip": "ym2612"
    },
    {
      "channel": 0,
      "note": 82,
      "start": 10.5545,
      "duration": 0.0125,
      "velocity": 103,
      "chip": "ym2612"
    },
    {
      "channel": 5,
      "note": 82,
      "start": 10.5569,
      "duration": 0.013,
      "velocity": 103,
      "chip": "ym2612"
    },
    {
      "channel": 2,
      "note": 40,
      "start": 10.5582,
      "duration": 0.013,
      "velocity": 114,
      "chip": "ym2612"
    },
    {
      "channel": 0,
      "note": 82,
      "start": 10.567,
      "duration": 0.0126,
      "velocity": 103,
      "chip": "ym2612"
    },
    {
      "channel": 5,
      "note": 82,
      "start": 10.5699,
      "duration": 0.012,
      "velocity": 103,
      "chip": "ym2612"
    },
    {
      "channel": 2,
      "note": 40,
      "start": 10.5712,
      "duration": 0.012,
      "velocity": 114,
      "chip": "ym2612"
    },
    {
      "channel": 0,
      "note": 82,
      "start": 10.5795,
      "duration": 0.0125,
      "velocity": 103,
      "chip": "ym2612"
    },
    {
      "channel": 5,
      "note": 82,
      "start": 10.582,
      "duration": 0.0131,
      "velocity": 103,
      "chip": "ym2612"
    },
    {
      "channel": 2,
      "note": 40,
      "start": 10.5832,
      "duration": 0.0132,
      "velocity": 114,
      "chip": "ym2612"
    },
    {
      "channel": 0,
      "note": 82,
      "start": 10.592,
      "duration": 0.0125,
      "velocity": 103,
      "chip": "ym2612"
    },
    {
      "channel": 5,
      "note": 82,
      "start": 10.5951,
      "duration": 0.0118,
      "velocity": 103,
      "chip": "ym2612"
    },
    {
      "channel": 2,
      "note": 39,
      "start": 10.5963,
      "duration": 0.0118,
      "velocity": 114,
      "chip": "ym2612"
    },
    {
      "channel": 0,
      "note": 82,
      "start": 10.6045,
      "duration": 0.0125,
      "velocity": 103,
      "chip": "ym2612"
    },
    {
      "channel": 5,
      "note": 82,
      "start": 10.6069,
      "duration": 0.0125,
      "velocity": 103,
      "chip": "ym2612"
    },
    {
      "channel": 0,
      "note": 82,
      "start": 10.617,
      "duration": 0.0126,
      "velocity": 103,
      "chip": "ym2612"
    },
    {
      "channel": 5,
      "note": 82,
      "start": 10.6194,
      "duration": 0.0125,
      "velocity": 103,
      "chip": "ym2612"
    },
    {
      "channel": 0,
      "note": 82,
      "start": 10.6295,
      "duration": 0.0125,
      "velocity": 103,
      "chip": "ym2612"
    },
    {
      "channel": 5,
      "note": 82,
      "start": 10.6319,
      "duration": 0.0131,
      "velocity": 103,
      "chip": "ym2612"
    },
    {
      "channel": 0,
      "note": 82,
      "start": 10.642,
      "duration": 0.0125,
      "velocity": 103,
      "chip": "ym2612"
    },
    {
      "channel": 5,
      "note": 82,
      "start": 10.645,
      "duration": 0.0119,
      "velocity": 103,
      "chip": "ym2612"
    },
    {
      "channel": 0,
      "note": 82,
      "start": 10.6545,
      "duration": 0.0125,
      "velocity": 103,
      "chip": "ym2612"
    },
    {
      "channel": 5,
      "note": 82,
      "start": 10.6569,
      "duration": 0.0144,
      "velocity": 103,
      "chip": "ym2612"
    },
    {
      "channel": 0,
      "note": 82,
      "start": 10.667,
      "duration": 0.0126,
      "velocity": 103,
      "chip": "ym2612"
    },
    {
      "channel": 1,
      "note": 53,
      "start": 10.6684,
      "duration": 0.062,
      "velocity": 81,
      "chip": "ym2612"
    },
    {
      "channel": 5,
      "note": 82,
      "start": 10.6713,
      "duration": 0.0106,
      "velocity": 103,
      "chip": "ym2612"
    },
    {
      "channel": 2,
      "note": 40,
      "start": 10.674,
      "duration": 0.0092,
      "velocity": 114,
      "chip": "ym2612"
    },
    {
      "channel": 0,
      "note": 82,
      "start": 10.6795,
      "duration": 0.0125,
      "velocity": 103,
      "chip": "ym2612"
    },
    {
      "channel": 5,
      "note": 82,
      "start": 10.6819,
      "duration": 0.0131,
      "velocity": 103,
      "chip": "ym2612"
    },
    {
      "channel": 2,
      "note": 40,
      "start": 10.6832,
      "duration": 0.0131,
      "velocity": 114,
      "chip": "ym2612"
    },
    {
      "channel": 0,
      "note": 82,
      "start": 10.692,
      "duration": 0.0125,
      "velocity": 103,
      "chip": "ym2612"
    },
    {
      "channel": 5,
      "note": 82,
      "start": 10.695,
      "duration": 0.0119,
      "velocity": 103,
      "chip": "ym2612"
    },
    {
      "channel": 2,
      "note": 40,
      "start": 10.6963,
      "duration": 0.0123,
      "velocity": 114,
      "chip": "ym2612"
    },
    {
      "channel": 0,
      "note": 82,
      "start": 10.7045,
      "duration": 0.0125,
      "velocity": 103,
      "chip": "ym2612"
    },
    {
      "channel": 5,
      "note": 82,
      "start": 10.7069,
      "duration": 0.0125,
      "velocity": 103,
      "chip": "ym2612"
    },
    {
      "channel": 2,
      "note": 40,
      "start": 10.7085,
      "duration": 0.0121,
      "velocity": 114,
      "chip": "ym2612"
    },
    {
      "channel": 0,
      "note": 82,
      "start": 10.717,
      "duration": 0.0126,
      "velocity": 103,
      "chip": "ym2612"
    },
    {
      "channel": 5,
      "note": 82,
      "start": 10.7194,
      "duration": 0.0131,
      "velocity": 103,
      "chip": "ym2612"
    },
    {
      "channel": 2,
      "note": 40,
      "start": 10.7206,
      "duration": 0.0131,
      "velocity": 114,
      "chip": "ym2612"
    },
    {
      "channel": 0,
      "note": 82,
      "start": 10.7295,
      "duration": 0.0125,
      "velocity": 103,
      "chip": "ym2612"
    },
    {
      "channel": 5,
      "note": 82,
      "start": 10.7325,
      "duration": 0.0125,
      "velocity": 103,
      "chip": "ym2612"
    },
    {
      "channel": 2,
      "note": 40,
      "start": 10.7337,
      "duration": 0.0125,
      "velocity": 114,
      "chip": "ym2612"
    },
    {
      "channel": 0,
      "note": 82,
      "start": 10.742,
      "duration": 0.0125,
      "velocity": 103,
      "chip": "ym2612"
    },
    {
      "channel": 5,
      "note": 82,
      "start": 10.745,
      "duration": 0.012,
      "velocity": 103,
      "chip": "ym2612"
    },
    {
      "channel": 2,
      "note": 40,
      "start": 10.7463,
      "duration": 0.0119,
      "velocity": 114,
      "chip": "ym2612"
    },
    {
      "channel": 0,
      "note": 82,
      "start": 10.7546,
      "duration": 0.0124,
      "velocity": 103,
      "chip": "ym2612"
    },
    {
      "channel": 5,
      "note": 82,
      "start": 10.757,
      "duration": 0.0144,
      "velocity": 103,
      "chip": "ym2612"
    },
    {
      "channel": 2,
      "note": 40,
      "start": 10.7582,
      "duration": 0.0142,
      "velocity": 114,
      "chip": "ym2612"
    },
    {
      "channel": 0,
      "note": 82,
      "start": 10.767,
      "duration": 0.0126,
      "velocity": 103,
      "chip": "ym2612"
    },
    {
      "channel": 1,
      "note": 53,
      "start": 10.7684,
      "duration": 0.0994,
      "velocity": 81,
      "chip": "ym2612"
    },
    {
      "channel": 5,
      "note": 82,
      "start": 10.7713,
      "duration": 0.0106,
      "velocity": 103,
      "chip": "ym2612"
    },
    {
      "channel": 0,
      "note": 82,
      "start": 10.7795,
      "duration": 0.0125,
      "velocity": 103,
      "chip": "ym2612"
    },
    {
      "channel": 5,
      "note": 82,
      "start": 10.7819,
      "duration": 0.0131,
      "velocity": 103,
      "chip": "ym2612"
    },
    {
      "channel": 2,
      "note": 40,
      "start": 10.7841,
      "duration": 0.0122,
      "velocity": 114,
      "chip": "ym2612"
    },
    {
      "channel": 0,
      "note": 82,
      "start": 10.792,
      "duration": 0.0125,
      "velocity": 103,
      "chip": "ym2612"
    },
    {
      "channel": 5,
      "note": 82,
      "start": 10.795,
      "duration": 0.0119,
      "velocity": 103,
      "chip": "ym2612"
    },
    {
      "channel": 2,
      "note": 40,
      "start": 10.7963,
      "duration": 0.0119,
      "velocity": 114,
      "chip": "ym2612"
    },
    {
      "channel": 0,
      "note": 82,
      "start": 10.8045,
      "duration": 0.0125,
      "velocity": 103,
      "chip": "ym2612"
    },
    {
      "channel": 5,
      "note": 82,
      "start": 10.8069,
      "duration": 0.0125,
      "velocity": 103,
      "chip": "ym2612"
    },
    {
      "channel": 2,
      "note": 40,
      "start": 10.8082,
      "duration": 0.0128,
      "velocity": 114,
      "chip": "ym2612"
    },
    {
      "channel": 0,
      "note": 82,
      "start": 10.817,
      "duration": 0.0126,
      "velocity": 103,
      "chip": "ym2612"
    },
    {
      "channel": 5,
      "note": 82,
      "start": 10.8194,
      "duration": 0.0125,
      "velocity": 103,
      "chip": "ym2612"
    },
    {
      "channel": 2,
      "note": 40,
      "start": 10.821,
      "duration": 0.0122,
      "velocity": 114,
      "chip": "ym2612"
    },
    {
      "channel": 0,
      "note": 82,
      "start": 10.8295,
      "duration": 0.0125,
      "velocity": 103,
      "chip": "ym2612"
    },
    {
      "channel": 5,
      "note": 82,
      "start": 10.8319,
      "duration": 0.0131,
      "velocity": 103,
      "chip": "ym2612"
    },
    {
      "channel": 2,
      "note": 40,
      "start": 10.8332,
      "duration": 0.0131,
      "velocity": 114,
      "chip": "ym2612"
    },
    {
      "channel": 0,
      "note": 82,
      "start": 10.842,
      "duration": 0.0125,
      "velocity": 103,
      "chip": "ym2612"
    },
    {
      "channel": 5,
      "note": 82,
      "start": 10.845,
      "duration": 0.0119,
      "velocity": 103,
      "chip": "ym2612"
    },
    {
      "channel": 2,
      "note": 40,
      "start": 10.8463,
      "duration": 0.0119,
      "velocity": 114,
      "chip": "ym2612"
    },
    {
      "channel": 0,
      "note": 82,
      "start": 10.8545,
      "duration": 0.0125,
      "velocity": 103,
      "chip": "ym2612"
    },
    {
      "channel": 5,
      "note": 82,
      "start": 10.8569,
      "duration": 0.013,
      "velocity": 103,
      "chip": "ym2612"
    },
    {
      "channel": 2,
      "note": 40,
      "start": 10.8582,
      "duration": 0.013,
      "velocity": 114,
      "chip": "ym2612"
    },
    {
      "channel": 0,
      "note": 82,
      "start": 10.867,
      "duration": 0.0126,
      "velocity": 103,
      "chip": "ym2612"
    },
    {
      "channel": 5,
      "note": 82,
      "start": 10.8699,
      "duration": 0.012,
      "velocity": 103,
      "chip": "ym2612"
    },
    {
      "channel": 2,
      "note": 40,
      "start": 10.8712,
      "duration": 0.012,
      "velocity": 114,
      "chip": "ym2612"
    },
    {
      "channel": 0,
      "note": 82,
      "start": 10.8795,
      "duration": 0.0125,
      "velocity": 103,
      "chip": "ym2612"
    },
    {
      "channel": 5,
      "note": 82,
      "start": 10.882,
      "duration": 0.0131,
      "velocity": 103,
      "chip": "ym2612"
    },
    {
      "channel": 2,
      "note": 40,
      "start": 10.8832,
      "duration": 0.0132,
      "velocity": 114,
      "chip": "ym2612"
    },
    {
      "channel": 0,
      "note": 82,
      "start": 10.892,
      "duration": 0.0125,
      "velocity": 103,
      "chip": "ym2612"
    },
    {
      "channel": 5,
      "note": 82,
      "start": 10.8951,
      "duration": 0.0119,
      "velocity": 103,
      "chip": "ym2612"
    },
    {
      "channel": 2,
      "note": 40,
      "start": 10.8963,
      "duration": 0.0118,
      "velocity": 114,
      "chip": "ym2612"
    },
    {
      "channel": 0,
      "note": 82,
      "start": 10.9046,
      "duration": 0.0124,
      "velocity": 103,
      "chip": "ym2612"
    },
    {
      "channel": 5,
      "note": 82,
      "start": 10.907,
      "duration": 0.0124,
      "velocity": 103,
      "chip": "ym2612"
    },
    {
      "channel": 2,
      "note": 39,
      "start": 10.9082,
      "duration": 0.0124,
      "velocity": 114,
      "chip": "ym2612"
    },
    {
      "channel": 0,
      "note": 82,
      "start": 10.917,
      "duration": 0.0126,
      "velocity": 103,
      "chip": "ym2612"
    },
    {
      "channel": 5,
      "note": 82,
      "start": 10.9194,
      "duration": 0.0125,
      "velocity": 103,
      "chip": "ym2612"
    },
    {
      "channel": 0,
      "note": 82,
      "start": 10.9295,
      "duration": 0.0125,
      "velocity": 103,
      "chip": "ym2612"
    },
    {
      "channel": 5,
      "note": 82,
      "start": 10.9319,
      "duration": 0.0131,
      "velocity": 103,
      "chip": "ym2612"
    },
    {
      "channel": 0,
      "note": 82,
      "start": 10.942,
      "duration": 0.0125,
      "velocity": 103,
      "chip": "ym2612"
    },
    {
      "channel": 5,
      "note": 82,
      "start": 10.945,
      "duration": 0.0119,
      "velocity": 103,
      "chip": "ym2612"
    },
    {
      "channel": 0,
      "note": 82,
      "start": 10.9545,
      "duration": 0.0125,
      "velocity": 103,
      "chip": "ym2612"
    },
    {
      "channel": 5,
      "note": 82,
      "start": 10.9569,
      "duration": 0.0144,
      "velocity": 103,
      "chip": "ym2612"
    },
    {
      "channel": 0,
      "note": 82,
      "start": 10.967,
      "duration": 0.0126,
      "velocity": 103,
      "chip": "ym2612"
    },
    {
      "channel": 1,
      "note": 53,
      "start": 10.9684,
      "duration": 0.0994,
      "velocity": 81,
      "chip": "ym2612"
    },
    {
      "channel": 5,
      "note": 82,
      "start": 10.9713,
      "duration": 0.0106,
      "velocity": 103,
      "chip": "ym2612"
    },
    {
      "channel": 2,
      "note": 41,
      "start": 10.9768,
      "duration": 0.1973,
      "velocity": 122,
      "chip": "ym2612"
    },
    {
      "channel": 0,
      "note": 82,
      "start": 10.9795,
      "duration": 0.0125,
      "velocity": 103,
      "chip": "ym2612"
    },
    {
      "channel": 5,
      "note": 82,
      "start": 10.9819,
      "duration": 0.0131,
      "velocity": 103,
      "chip": "ym2612"
    },
    {
      "channel": 0,
      "note": 82,
      "start": 10.992,
      "duration": 0.0125,
      "velocity": 103,
      "chip": "ym2612"
    },
    {
      "channel": 5,
      "note": 82,
      "start": 10.995,
      "duration": 0.0119,
      "velocity": 103,
      "chip": "ym2612"
    },
    {
      "channel": 0,
      "note": 82,
      "start": 11.0045,
      "duration": 0.0125,
      "velocity": 103,
      "chip": "ym2612"
    },
    {
      "channel": 5,
      "note": 82,
      "start": 11.0069,
      "duration": 0.0125,
      "velocity": 103,
      "chip": "ym2612"
    },
    {
      "channel": 0,
      "note": 82,
      "start": 11.017,
      "duration": 0.0126,
      "velocity": 103,
      "chip": "ym2612"
    },
    {
      "channel": 5,
      "note": 82,
      "start": 11.0194,
      "duration": 0.0125,
      "velocity": 103,
      "chip": "ym2612"
    },
    {
      "channel": 0,
      "note": 82,
      "start": 11.0295,
      "duration": 0.0125,
      "velocity": 103,
      "chip": "ym2612"
    },
    {
      "channel": 5,
      "note": 82,
      "start": 11.0319,
      "duration": 0.0132,
      "velocity": 103,
      "chip": "ym2612"
    },
    {
      "channel": 0,
      "note": 82,
      "start": 11.042,
      "duration": 0.0125,
      "velocity": 103,
      "chip": "ym2612"
    },
    {
      "channel": 5,
      "note": 82,
      "start": 11.0451,
      "duration": 0.0118,
      "velocity": 103,
      "chip": "ym2612"
    },
    {
      "channel": 0,
      "note": 82,
      "start": 11.0546,
      "duration": 0.0124,
      "velocity": 103,
      "chip": "ym2612"
    },
    {
      "channel": 5,
      "note": 82,
      "start": 11.0569,
      "duration": 0.013,
      "velocity": 103,
      "chip": "ym2612"
    },
    {
      "channel": 0,
      "note": 82,
      "start": 11.067,
      "duration": 0.0126,
      "velocity": 103,
      "chip": "ym2612"
    },
    {
      "channel": 5,
      "note": 82,
      "start": 11.0699,
      "duration": 0.012,
      "velocity": 103,
      "chip": "ym2612"
    },
    {
      "channel": 0,
      "note": 82,
      "start": 11.0795,
      "duration": 0.0125,
      "velocity": 103,
      "chip": "ym2612"
    },
    {
      "channel": 5,
      "note": 82,
      "start": 11.0819,
      "duration": 0.0131,
      "velocity": 103,
      "chip": "ym2612"
    },
    {
      "channel": 0,
      "note": 82,
      "start": 11.092,
      "duration": 0.0125,
      "velocity": 103,
      "chip": "ym2612"
    },
    {
      "channel": 5,
      "note": 82,
      "start": 11.095,
      "duration": 0.0119,
      "velocity": 103,
      "chip": "ym2612"
    },
    {
      "channel": 0,
      "note": 82,
      "start": 11.1045,
      "duration": 0.0125,
      "velocity": 103,
      "chip": "ym2612"
    },
    {
      "channel": 5,
      "note": 82,
      "start": 11.1069,
      "duration": 0.0125,
      "velocity": 103,
      "chip": "ym2612"
    },
    {
      "channel": 0,
      "note": 82,
      "start": 11.117,
      "duration": 0.0126,
      "velocity": 103,
      "chip": "ym2612"
    },
    {
      "channel": 5,
      "note": 82,
      "start": 11.1194,
      "duration": 0.0125,
      "velocity": 103,
      "chip": "ym2612"
    },
    {
      "channel": 0,
      "note": 82,
      "start": 11.1295,
      "duration": 0.0125,
      "velocity": 103,
      "chip": "ym2612"
    },
    {
      "channel": 5,
      "note": 82,
      "start": 11.1319,
      "duration": 0.0131,
      "velocity": 103,
      "chip": "ym2612"
    },
    {
      "channel": 0,
      "note": 82,
      "start": 11.142,
      "duration": 0.0125,
      "velocity": 103,
      "chip": "ym2612"
    },
    {
      "channel": 5,
      "note": 82,
      "start": 11.145,
      "duration": 0.0119,
      "velocity": 103,
      "chip": "ym2612"
    },
    {
      "channel": 0,
      "note": 82,
      "start": 11.1545,
      "duration": 0.0125,
      "velocity": 103,
      "chip": "ym2612"
    },
    {
      "channel": 5,
      "note": 82,
      "start": 11.1569,
      "duration": 0.0144,
      "velocity": 103,
      "chip": "ym2612"
    },
    {
      "channel": 0,
      "note": 82,
      "start": 11.167,
      "duration": 0.0126,
      "velocity": 103,
      "chip": "ym2612"
    },
    {
      "channel": 1,
      "note": 53,
      "start": 11.1684,
      "duration": 0.0994,
      "velocity": 81,
      "chip": "ym2612"
    },
    {
      "channel": 5,
      "note": 82,
      "start": 11.1713,
      "duration": 0.0107,
      "velocity": 103,
      "chip": "ym2612"
    },
    {
      "channel": 2,
      "note": 40,
      "start": 11.1768,
      "duration": 0.0064,
      "velocity": 114,
      "chip": "ym2612"
    },
    {
      "channel": 0,
      "note": 82,
      "start": 11.1795,
      "duration": 0.0125,
      "velocity": 103,
      "chip": "ym2612"
    },
    {
      "channel": 5,
      "note": 82,
      "start": 11.182,
      "duration": 0.0131,
      "velocity": 103,
      "chip": "ym2612"
    },
    {
      "channel": 2,
      "note": 40,
      "start": 11.1832,
      "duration": 0.0132,
      "velocity": 114,
      "chip": "ym2612"
    },
    {
      "channel": 0,
      "note": 82,
      "start": 11.192,
      "duration": 0.0125,
      "velocity": 103,
      "chip": "ym2612"
    },
    {
      "channel": 5,
      "note": 82,
      "start": 11.1951,
      "duration": 0.0119,
      "velocity": 103,
      "chip": "ym2612"
    },
    {
      "channel": 2,
      "note": 40,
      "start": 11.1963,
      "duration": 0.0122,
      "velocity": 114,
      "chip": "ym2612"
    },
    {
      "channel": 0,
      "note": 82,
      "start": 11.2046,
      "duration": 0.0124,
      "velocity": 103,
      "chip": "ym2612"
    },
    {
      "channel": 5,
      "note": 82,
      "start": 11.207,
      "duration": 0.0124,
      "velocity": 103,
      "chip": "ym2612"
    },
    {
      "channel": 2,
      "note": 40,
      "start": 11.2085,
      "duration": 0.0121,
      "velocity": 114,
      "chip": "ym2612"
    },
    {
      "channel": 0,
      "note": 82,
      "start": 11.217,
      "duration": 0.0126,
      "velocity": 103,
      "chip": "ym2612"
    },
    {
      "channel": 5,
      "note": 82,
      "start": 11.2194,
      "duration": 0.0125,
      "velocity": 103,
      "chip": "ym2612"
    },
    {
      "channel": 2,
      "note": 40,
      "start": 11.2206,
      "duration": 0.0125,
      "velocity": 114,
      "chip": "ym2612"
    },
    {
      "channel": 0,
      "note": 82,
      "start": 11.2295,
      "duration": 0.0125,
      "velocity": 103,
      "chip": "ym2612"
    },
    {
      "channel": 5,
      "note": 82,
      "start": 11.2319,
      "duration": 0.0131,
      "velocity": 103,
      "chip": "ym2612"
    },
    {
      "channel": 2,
      "note": 40,
      "start": 11.2332,
      "duration": 0.0131,
      "velocity": 114,
      "chip": "ym2612"
    },
    {
      "channel": 0,
      "note": 82,
      "start": 11.242,
      "duration": 0.0125,
      "velocity": 103,
      "chip": "ym2612"
    },
    {
      "channel": 5,
      "note": 82,
      "start": 11.245,
      "duration": 0.0119,
      "velocity": 103,
      "chip": "ym2612"
    },
    {
      "channel": 2,
      "note": 40,
      "start": 11.2463,
      "duration": 0.0119,
      "velocity": 114,
      "chip": "ym2612"
    },
    {
      "channel": 0,
      "note": 82,
      "start": 11.2545,
      "duration": 0.0125,
      "velocity": 103,
      "chip": "ym2612"
    },
    {
      "channel": 5,
      "note": 82,
      "start": 11.2569,
      "duration": 0.013,
      "velocity": 103,
      "chip": "ym2612"
    },
    {
      "channel": 2,
      "note": 40,
      "start": 11.2582,
      "duration": 0.013,
      "velocity": 114,
      "chip": "ym2612"
    },
    {
      "channel": 0,
      "note": 82,
      "start": 11.267,
      "duration": 0.0126,
      "velocity": 103,
      "chip": "ym2612"
    },
    {
      "channel": 5,
      "note": 82,
      "start": 11.2699,
      "duration": 0.012,
      "velocity": 103,
      "chip": "ym2612"
    },
    {
      "channel": 2,
      "note": 40,
      "start": 11.2712,
      "duration": 0.012,
      "velocity": 114,
      "chip": "ym2612"
    },
    {
      "channel": 0,
      "note": 82,
      "start": 11.2795,
      "duration": 0.0125,
      "velocity": 103,
      "chip": "ym2612"
    },
    {
      "channel": 5,
      "note": 82,
      "start": 11.282,
      "duration": 0.013,
      "velocity": 103,
      "chip": "ym2612"
    },
    {
      "channel": 2,
      "note": 40,
      "start": 11.2832,
      "duration": 0.0131,
      "velocity": 114,
      "chip": "ym2612"
    },
    {
      "channel": 0,
      "note": 82,
      "start": 11.292,
      "duration": 0.0125,
      "velocity": 103,
      "chip": "ym2612"
    },
    {
      "channel": 5,
      "note": 82,
      "start": 11.295,
      "duration": 0.0119,
      "velocity": 103,
      "chip": "ym2612"
    },
    {
      "channel": 2,
      "note": 39,
      "start": 11.2963,
      "duration": 0.0118,
      "velocity": 114,
      "chip": "ym2612"
    },
    {
      "channel": 0,
      "note": 82,
      "start": 11.3045,
      "duration": 0.0125,
      "velocity": 103,
      "chip": "ym2612"
    },
    {
      "channel": 5,
      "note": 82,
      "start": 11.3069,
      "duration": 0.0125,
      "velocity": 103,
      "chip": "ym2612"
    },
    {
      "channel": 0,
      "note": 82,
      "start": 11.317,
      "duration": 0.0126,
      "velocity": 103,
      "chip": "ym2612"
    },
    {
      "channel": 5,
      "note": 82,
      "start": 11.3194,
      "duration": 0.0125,
      "velocity": 103,
      "chip": "ym2612"
    },
    {
      "channel": 0,
      "note": 82,
      "start": 11.3295,
      "duration": 0.0125,
      "velocity": 103,
      "chip": "ym2612"
    },
    {
      "channel": 5,
      "note": 82,
      "start": 11.3319,
      "duration": 0.0132,
      "velocity": 103,
      "chip": "ym2612"
    },
    {
      "channel": 0,
      "note": 82,
      "start": 11.342,
      "duration": 0.0125,
      "velocity": 103,
      "chip": "ym2612"
    },
    {
      "channel": 5,
      "note": 82,
      "start": 11.3451,
      "duration": 0.0119,
      "velocity": 103,
      "chip": "ym2612"
    },
    {
      "channel": 0,
      "note": 82,
      "start": 11.3546,
      "duration": 0.0124,
      "velocity": 103,
      "chip": "ym2612"
    },
    {
      "channel": 5,
      "note": 82,
      "start": 11.357,
      "duration": 0.0124,
      "velocity": 103,
      "chip": "ym2612"
    },
    {
      "channel": 0,
      "note": 82,
      "start": 11.367,
      "duration": 0.0124,
      "velocity": 103,
      "chip": "ym2612"
    },
    {
      "channel": 5,
      "note": 82,
      "start": 11.3694,
      "duration": 0.0148,
      "velocity": 103,
      "chip": "ym2612"
    },
    {
      "channel": 0,
      "note": 81,
      "start": 11.3799,
      "duration": 0.2497,
      "velocity": 103,
      "chip": "ym2612"
    },
    {
      "channel": 1,
      "note": 53,
      "start": 11.3813,
      "duration": 0.0482,
      "velocity": 81,
      "chip": "ym2612"
    },
    {
      "channel": 5,
      "note": 82,
      "start": 11.3842,
      "duration": 0.0093,
      "velocity": 103,
      "chip": "ym2612"
    },
    {
      "channel": 2,
      "note": 40,
      "start": 11.3869,
      "duration": 0.0085,
      "velocity": 114,
      "chip": "ym2612"
    },
    {
      "channel": 5,
      "note": 82,
      "start": 11.3935,
      "duration": 0.0125,
      "velocity": 103,
      "chip": "ym2612"
    },
    {
      "channel": 2,
      "note": 40,
      "start": 11.3954,
      "duration": 0.0118,
      "velocity": 114,
      "chip": "ym2612"
    },
    {
      "channel": 5,
      "note": 82,
      "start": 11.406,
      "duration": 0.0125,
      "velocity": 103,
      "chip": "ym2612"
    },
    {
      "channel": 2,
      "note": 40,
      "start": 11.4072,
      "duration": 0.0129,
      "velocity": 114,
      "chip": "ym2612"
    },
    {
      "channel": 5,
      "note": 82,
      "start": 11.4185,
      "duration": 0.0131,
      "velocity": 103,
      "chip": "ym2612"
    },
    {
      "channel": 2,
      "note": 40,
      "start": 11.4201,
      "duration": 0.0127,
      "velocity": 114,
      "chip": "ym2612"
    },
    {
      "channel": 5,
      "note": 82,
      "start": 11.4316,
      "duration": 0.012,
      "velocity": 103,
      "chip": "ym2612"
    },
    {
      "channel": 2,
      "note": 40,
      "start": 11.4329,
      "duration": 0.0125,
      "velocity": 114,
      "chip": "ym2612"
    },
    {
      "channel": 5,
      "note": 82,
      "start": 11.4435,
      "duration": 0.0125,
      "velocity": 103,
      "chip": "ym2612"
    },
    {
      "channel": 2,
      "note": 40,
      "start": 11.4454,
      "duration": 0.0119,
      "velocity": 114,
      "chip": "ym2612"
    },
    {
      "channel": 5,
      "note": 82,
      "start": 11.456,
      "duration": 0.0125,
      "velocity": 103,
      "chip": "ym2612"
    },
    {
      "channel": 2,
      "note": 40,
      "start": 11.4573,
      "duration": 0.0125,
      "velocity": 114,
      "chip": "ym2612"
    },
    {
      "channel": 5,
      "note": 82,
      "start": 11.4685,
      "duration": 0.0145,
      "velocity": 103,
      "chip": "ym2612"
    },
    {
      "channel": 2,
      "note": 40,
      "start": 11.4698,
      "duration": 0.0143,
      "velocity": 114,
      "chip": "ym2612"
    },
    {
      "channel": 1,
      "note": 53,
      "start": 11.4801,
      "duration": 0.0994,
      "velocity": 81,
      "chip": "ym2612"
    },
    {
      "channel": 5,
      "note": 82,
      "start": 11.483,
      "duration": 0.0105,
      "velocity": 103,
      "chip": "ym2612"
    },
    {
      "channel": 5,
      "note": 82,
      "start": 11.4935,
      "duration": 0.0125,
      "velocity": 103,
      "chip": "ym2612"
    },
    {
      "channel": 2,
      "note": 41,
      "start": 11.4992,
      "duration": 0.1866,
      "velocity": 122,
      "chip": "ym2612"
    },
    {
      "channel": 5,
      "note": 82,
      "start": 11.506,
      "duration": 0.0123,
      "velocity": 103,
      "chip": "ym2612"
    },
    {
      "channel": 5,
      "note": 81,
      "start": 11.5188,
      "duration": 0.2506,
      "velocity": 103,
      "chip": "ym2612"
    },
    {
      "channel": 0,
      "note": 81,
      "start": 11.6295,
      "duration": 0.0125,
      "velocity": 103,
      "chip": "ym2612"
    },
    {
      "channel": 0,
      "note": 81,
      "start": 11.642,
      "duration": 0.0125,
      "velocity": 103,
      "chip": "ym2612"
    },
    {
      "channel": 0,
      "note": 81,
      "start": 11.6545,
      "duration": 0.0125,
      "velocity": 103,
      "chip": "ym2612"
    },
    {
      "channel": 0,
      "note": 81,
      "start": 11.667,
      "duration": 0.0125,
      "velocity": 103,
      "chip": "ym2612"
    },
    {
      "channel": 0,
      "note": 81,
      "start": 11.6795,
      "duration": 0.0125,
      "velocity": 103,
      "chip": "ym2612"
    },
    {
      "channel": 1,
      "note": 53,
      "start": 11.681,
      "duration": 0.0619,
      "velocity": 81,
      "chip": "ym2612"
    },
    {
      "channel": 2,
      "note": 40,
      "start": 11.6885,
      "duration": 0.0069,
      "velocity": 114,
      "chip": "ym2612"
    },
    {
      "channel": 0,
      "note": 81,
      "start": 11.692,
      "duration": 0.0125,
      "velocity": 103,
      "chip": "ym2612"
    },
    {
      "channel": 2,
      "note": 40,
      "start": 11.6954,
      "duration": 0.0119,
      "velocity": 114,
      "chip": "ym2612"
    },
    {
      "channel": 0,
      "note": 81,
      "start": 11.7045,
      "duration": 0.0125,
      "velocity": 103,
      "chip": "ym2612"
    },
    {
      "channel": 2,
      "note": 40,
      "start": 11.7073,
      "duration": 0.0129,
      "velocity": 114,
      "chip": "ym2612"
    },
    {
      "channel": 0,
      "note": 81,
      "start": 11.717,
      "duration": 0.0126,
      "velocity": 103,
      "chip": "ym2612"
    },
    {
      "channel": 2,
      "note": 40,
      "start": 11.7201,
      "duration": 0.0122,
      "velocity": 114,
      "chip": "ym2612"
    },
    {
      "channel": 0,
      "note": 81,
      "start": 11.7295,
      "duration": 0.0125,
      "velocity": 103,
      "chip": "ym2612"
    },
    {
      "channel": 2,
      "note": 40,
      "start": 11.7323,
      "duration": 0.0136,
      "velocity": 114,
      "chip": "ym2612"
    },
    {
      "channel": 0,
      "note": 81,
      "start": 11.742,
      "duration": 0.0125,
      "velocity": 103,
      "chip": "ym2612"
    },
    {
      "channel": 2,
      "note": 40,
      "start": 11.7459,
      "duration": 0.0114,
      "velocity": 114,
      "chip": "ym2612"
    },
    {
      "channel": 0,
      "note": 81,
      "start": 11.7545,
      "duration": 0.0125,
      "velocity": 103,
      "chip": "ym2612"
    },
    {
      "channel": 2,
      "note": 40,
      "start": 11.7573,
      "duration": 0.0134,
      "velocity": 114,
      "chip": "ym2612"
    },
    {
      "channel": 0,
      "note": 81,
      "start": 11.767,
      "duration": 0.0126,
      "velocity": 103,
      "chip": "ym2612"
    },
    {
      "channel": 5,
      "note": 81,
      "start": 11.7694,
      "duration": 0.0145,
      "velocity": 103,
      "chip": "ym2612"
    },
    {
      "channel": 2,
      "note": 40,
      "start": 11.7706,
      "duration": 0.0143,
      "velocity": 114,
      "chip": "ym2612"
    },
    {
      "channel": 0,
      "note": 81,
      "start": 11.7795,
      "duration": 0.0125,
      "velocity": 103,
      "chip": "ym2612"
    },
    {
      "channel": 1,
      "note": 53,
      "start": 11.781,
      "duration": 0.0995,
      "velocity": 81,
      "chip": "ym2612"
    },
    {
      "channel": 5,
      "note": 81,
      "start": 11.7839,
      "duration": 0.0111,
      "velocity": 103,
      "chip": "ym2612"
    },
    {
      "channel": 0,
      "note": 81,
      "start": 11.792,
      "duration": 0.0125,
      "velocity": 103,
      "chip": "ym2612"
    },
    {
      "channel": 5,
      "note": 81,
      "start": 11.795,
      "duration": 0.0119,
      "velocity": 103,
      "chip": "ym2612"
    },
    {
      "channel": 2,
      "note": 40,
      "start": 11.7972,
      "duration": 0.011,
      "velocity": 114,
      "chip": "ym2612"
    },
    {
      "channel": 0,
      "note": 81,
      "start": 11.8045,
      "duration": 0.0125,
      "velocity": 103,
      "chip": "ym2612"
    },
    {
      "channel": 5,
      "note": 81,
      "start": 11.8069,
      "duration": 0.0125,
      "velocity": 103,
      "chip": "ym2612"
    },
    {
      "channel": 2,
      "note": 40,
      "start": 11.8082,
      "duration": 0.0124,
      "velocity": 114,
      "chip": "ym2612"
    },
    {
      "channel": 0,
      "note": 81,
      "start": 11.817,
      "duration": 0.0126,
      "velocity": 103,
      "chip": "ym2612"
    },
    {
      "channel": 5,
      "note": 81,
      "start": 11.8194,
      "duration": 0.0125,
      "velocity": 103,
      "chip": "ym2612"
    },
    {
      "channel": 2,
      "note": 40,
      "start": 11.8206,
      "duration": 0.0129,
      "velocity": 114,
      "chip": "ym2612"
    },
    {
      "channel": 0,
      "note": 81,
      "start": 11.8295,
      "duration": 0.0125,
      "velocity": 103,
      "chip": "ym2612"
    },
    {
      "channel": 5,
      "note": 81,
      "start": 11.8319,
      "duration": 0.0131,
      "velocity": 103,
      "chip": "ym2612"
    },
    {
      "channel": 2,
      "note": 40,
      "start": 11.8336,
      "duration": 0.0127,
      "velocity": 114,
      "chip": "ym2612"
    },
    {
      "channel": 0,
      "note": 81,
      "start": 11.842,
      "duration": 0.0125,
      "velocity": 103,
      "chip": "ym2612"
    },
    {
      "channel": 5,
      "note": 81,
      "start": 11.845,
      "duration": 0.0119,
      "velocity": 103,
      "chip": "ym2612"
    },
    {
      "channel": 2,
      "note": 40,
      "start": 11.8463,
      "duration": 0.0119,
      "velocity": 114,
      "chip": "ym2612"
    },
    {
      "channel": 0,
      "note": 81,
      "start": 11.8545,
      "duration": 0.0125,
      "velocity": 103,
      "chip": "ym2612"
    },
    {
      "channel": 5,
      "note": 81,
      "start": 11.8569,
      "duration": 0.0125,
      "velocity": 103,
      "chip": "ym2612"
    },
    {
      "channel": 2,
      "note": 40,
      "start": 11.8582,
      "duration": 0.0124,
      "velocity": 114,
      "chip": "ym2612"
    },
    {
      "channel": 0,
      "note": 81,
      "start": 11.867,
      "duration": 0.0125,
      "velocity": 103,
      "chip": "ym2612"
    },
    {
      "channel": 5,
      "note": 81,
      "start": 11.8694,
      "duration": 0.0145,
      "velocity": 103,
      "chip": "ym2612"
    },
    {
      "channel": 2,
      "note": 40,
      "start": 11.8706,
      "duration": 0.0143,
      "velocity": 114,
      "chip": "ym2612"
    },
    {
      "channel": 0,
      "note": 81,
      "start": 11.8795,
      "duration": 0.0125,
      "velocity": 103,
      "chip": "ym2612"
    },
    {
      "channel": 1,
      "note": 59,
      "start": 11.881,
      "duration": 0.0995,
      "velocity": 81,
      "chip": "ym2612"
    },
    {
      "channel": 5,
      "note": 81,
      "start": 11.8839,
      "duration": 0.0111,
      "velocity": 103,
      "chip": "ym2612"
    },
    {
      "channel": 0,
      "note": 81,
      "start": 11.892,
      "duration": 0.0125,
      "velocity": 103,
      "chip": "ym2612"
    },
    {
      "channel": 5,
      "note": 81,
      "start": 11.895,
      "duration": 0.0119,
      "velocity": 103,
      "chip": "ym2612"
    },
    {
      "channel": 2,
      "note": 40,
      "start": 11.8972,
      "duration": 0.011,
      "velocity": 114,
      "chip": "ym2612"
    },
    {
      "channel": 0,
      "note": 81,
      "start": 11.9045,
      "duration": 0.0125,
      "velocity": 103,
      "chip": "ym2612"
    },
    {
      "channel": 5,
      "note": 81,
      "start": 11.9069,
      "duration": 0.0125,
      "velocity": 103,
      "chip": "ym2612"
    },
    {
      "channel": 2,
      "note": 40,
      "start": 11.9082,
      "duration": 0.0124,
      "velocity": 114,
      "chip": "ym2612"
    },
    {
      "channel": 0,
      "note": 81,
      "start": 11.917,
      "duration": 0.0126,
      "velocity": 103,
      "chip": "ym2612"
    },
    {
      "channel": 5,
      "note": 81,
      "start": 11.9194,
      "duration": 0.0125,
      "velocity": 103,
      "chip": "ym2612"
    },
    {
      "channel": 2,
      "note": 40,
      "start": 11.9206,
      "duration": 0.0129,
      "velocity": 114,
      "chip": "ym2612"
    },
    {
      "channel": 0,
      "note": 81,
      "start": 11.9295,
      "duration": 0.0125,
      "velocity": 103,
      "chip": "ym2612"
    },
    {
      "channel": 5,
      "note": 81,
      "start": 11.9319,
      "duration": 0.0131,
      "velocity": 103,
      "chip": "ym2612"
    },
    {
      "channel": 2,
      "note": 40,
      "start": 11.9336,
      "duration": 0.0127,
      "velocity": 114,
      "chip": "ym2612"
    },
    {
      "channel": 0,
      "note": 81,
      "start": 11.942,
      "duration": 0.0125,
      "velocity": 103,
      "chip": "ym2612"
    },
    {
      "channel": 5,
      "note": 81,
      "start": 11.945,
      "duration": 0.0119,
      "velocity": 103,
      "chip": "ym2612"
    },
    {
      "channel": 2,
      "note": 40,
      "start": 11.9463,
      "duration": 0.0119,
      "velocity": 114,
      "chip": "ym2612"
    },
    {
      "channel": 0,
      "note": 81,
      "start": 11.9545,
      "duration": 0.0125,
      "velocity": 103,
      "chip": "ym2612"
    },
    {
      "channel": 5,
      "note": 81,
      "start": 11.9569,
      "duration": 0.0125,
      "velocity": 103,
      "chip": "ym2612"
    },
    {
      "channel": 2,
      "note": 40,
      "start": 11.9582,
      "duration": 0.0124,
      "velocity": 114,
      "chip": "ym2612"
    },
    {
      "channel": 0,
      "note": 81,
      "start": 11.967,
      "duration": 0.0126,
      "velocity": 103,
      "chip": "ym2612"
    },
    {
      "channel": 5,
      "note": 81,
      "start": 11.9694,
      "duration": 0.0145,
      "velocity": 103,
      "chip": "ym2612"
    },
    {
      "channel": 2,
      "note": 40,
      "start": 11.9706,
      "duration": 0.0143,
      "velocity": 114,
      "chip": "ym2612"
    },
    {
      "channel": 0,
      "note": 81,
      "start": 11.9795,
      "duration": 0.0125,
      "velocity": 103,
      "chip": "ym2612"
    },
    {
      "channel": 1,
      "note": 65,
      "start": 11.981,
      "duration": 0.0995,
      "velocity": 81,
      "chip": "ym2612"
    },
    {
      "channel": 5,
      "note": 81,
      "start": 11.9839,
      "duration": 0.0111,
      "velocity": 103,
      "chip": "ym2612"
    },
    {
      "channel": 0,
      "note": 81,
      "start": 11.992,
      "duration": 0.0125,
      "velocity": 103,
      "chip": "ym2612"
    },
    {
      "channel": 5,
      "note": 81,
      "start": 11.995,
      "duration": 0.0119,
      "velocity": 103,
      "chip": "ym2612"
    },
    {
      "channel": 2,
      "note": 40,
      "start": 11.9972,
      "duration": 0.011,
      "velocity": 114,
      "chip": "ym2612"
    },
    {
      "channel": 0,
      "note": 81,
      "start": 12.0045,
      "duration": 0.0125,
      "velocity": 103,
      "chip": "ym2612"
    },
    {
      "channel": 5,
      "note": 81,
      "start": 12.0069,
      "duration": 0.0125,
      "velocity": 103,
      "chip": "ym2612"
    },
    {
      "channel": 2,
      "note": 40,
      "start": 12.0082,
      "duration": 0.0124,
      "velocity": 114,
      "chip": "ym2612"
    },
    {
      "channel": 0,
      "note": 81,
      "start": 12.017,
      "duration": 0.0126,
      "velocity": 103,
      "chip": "ym2612"
    },
    {
      "channel": 5,
      "note": 81,
      "start": 12.0194,
      "duration": 0.0125,
      "velocity": 103,
      "chip": "ym2612"
    },
    {
      "channel": 2,
      "note": 40,
      "start": 12.0206,
      "duration": 0.0129,
      "velocity": 114,
      "chip": "ym2612"
    },
    {
      "channel": 0,
      "note": 81,
      "start": 12.0295,
      "duration": 0.0125,
      "velocity": 103,
      "chip": "ym2612"
    },
    {
      "channel": 5,
      "note": 81,
      "start": 12.0319,
      "duration": 0.0131,
      "velocity": 103,
      "chip": "ym2612"
    },
    {
      "channel": 2,
      "note": 40,
      "start": 12.0336,
      "duration": 0.0127,
      "velocity": 114,
      "chip": "ym2612"
    },
    {
      "channel": 0,
      "note": 81,
      "start": 12.042,
      "duration": 0.0125,
      "velocity": 103,
      "chip": "ym2612"
    },
    {
      "channel": 5,
      "note": 81,
      "start": 12.045,
      "duration": 0.0119,
      "velocity": 103,
      "chip": "ym2612"
    },
    {
      "channel": 2,
      "note": 40,
      "start": 12.0463,
      "duration": 0.0119,
      "velocity": 114,
      "chip": "ym2612"
    },
    {
      "channel": 0,
      "note": 81,
      "start": 12.0545,
      "duration": 0.0125,
      "velocity": 103,
      "chip": "ym2612"
    },
    {
      "channel": 5,
      "note": 81,
      "start": 12.0569,
      "duration": 0.0125,
      "velocity": 103,
      "chip": "ym2612"
    },
    {
      "channel": 2,
      "note": 40,
      "start": 12.0582,
      "duration": 0.0124,
      "velocity": 114,
      "chip": "ym2612"
    },
    {
      "channel": 0,
      "note": 81,
      "start": 12.067,
      "duration": 0.0126,
      "velocity": 103,
      "chip": "ym2612"
    },
    {
      "channel": 5,
      "note": 81,
      "start": 12.0694,
      "duration": 0.0145,
      "velocity": 103,
      "chip": "ym2612"
    },
    {
      "channel": 2,
      "note": 40,
      "start": 12.0706,
      "duration": 0.0143,
      "velocity": 114,
      "chip": "ym2612"
    },
    {
      "channel": 0,
      "note": 81,
      "start": 12.0795,
      "duration": 0.0125,
      "velocity": 103,
      "chip": "ym2612"
    },
    {
      "channel": 1,
      "note": 59,
      "start": 12.081,
      "duration": 0.1127,
      "velocity": 81,
      "chip": "ym2612"
    },
    {
      "channel": 5,
      "note": 81,
      "start": 12.0839,
      "duration": 0.0111,
      "velocity": 103,
      "chip": "ym2612"
    },
    {
      "channel": 0,
      "note": 81,
      "start": 12.092,
      "duration": 0.0125,
      "velocity": 103,
      "chip": "ym2612"
    },
    {
      "channel": 5,
      "note": 81,
      "start": 12.095,
      "duration": 0.0119,
      "velocity": 103,
      "chip": "ym2612"
    },
    {
      "channel": 2,
      "note": 40,
      "start": 12.0972,
      "duration": 0.011,
      "velocity": 114,
      "chip": "ym2612"
    },
    {
      "channel": 0,
      "note": 81,
      "start": 12.1045,
      "duration": 0.0125,
      "velocity": 103,
      "chip": "ym2612"
    },
    {
      "channel": 5,
      "note": 81,
      "start": 12.1069,
      "duration": 0.0125,
      "velocity": 103,
      "chip": "ym2612"
    },
    {
      "channel": 2,
      "note": 40,
      "start": 12.1082,
      "duration": 0.0124,
      "velocity": 114,
      "chip": "ym2612"
    },
    {
      "channel": 0,
      "note": 81,
      "start": 12.117,
      "duration": 0.0126,
      "velocity": 103,
      "chip": "ym2612"
    },
    {
      "channel": 5,
      "note": 81,
      "start": 12.1194,
      "duration": 0.0125,
      "velocity": 103,
      "chip": "ym2612"
    },
    {
      "channel": 2,
      "note": 40,
      "start": 12.1206,
      "duration": 0.0129,
      "velocity": 114,
      "chip": "ym2612"
    },
    {
      "channel": 0,
      "note": 81,
      "start": 12.1295,
      "duration": 0.0125,
      "velocity": 103,
      "chip": "ym2612"
    },
    {
      "channel": 5,
      "note": 81,
      "start": 12.1319,
      "duration": 0.0131,
      "velocity": 103,
      "chip": "ym2612"
    },
    {
      "channel": 2,
      "note": 40,
      "start": 12.1336,
      "duration": 0.0127,
      "velocity": 114,
      "chip": "ym2612"
    },
    {
      "channel": 0,
      "note": 81,
      "start": 12.142,
      "duration": 0.0125,
      "velocity": 103,
      "chip": "ym2612"
    },
    {
      "channel": 5,
      "note": 81,
      "start": 12.145,
      "duration": 0.0119,
      "velocity": 103,
      "chip": "ym2612"
    },
    {
      "channel": 2,
      "note": 40,
      "start": 12.1463,
      "duration": 0.0119,
      "velocity": 114,
      "chip": "ym2612"
    },
    {
      "channel": 0,
      "note": 81,
      "start": 12.1545,
      "duration": 0.0125,
      "velocity": 103,
      "chip": "ym2612"
    },
    {
      "channel": 5,
      "note": 81,
      "start": 12.1569,
      "duration": 0.0125,
      "velocity": 103,
      "chip": "ym2612"
    },
    {
      "channel": 2,
      "note": 40,
      "start": 12.1582,
      "duration": 0.0124,
      "velocity": 114,
      "chip": "ym2612"
    },
    {
      "channel": 0,
      "note": 81,
      "start": 12.167,
      "duration": 0.0126,
      "velocity": 103,
      "chip": "ym2612"
    },
    {
      "channel": 5,
      "note": 81,
      "start": 12.1694,
      "duration": 0.0125,
      "velocity": 103,
      "chip": "ym2612"
    },
    {
      "channel": 2,
      "note": 40,
      "start": 12.1706,
      "duration": 0.0125,
      "velocity": 114,
      "chip": "ym2612"
    },
    {
      "channel": 0,
      "note": 81,
      "start": 12.1795,
      "duration": 0.0123,
      "velocity": 103,
      "chip": "ym2612"
    },
    {
      "channel": 5,
      "note": 81,
      "start": 12.1819,
      "duration": 0.0171,
      "velocity": 103,
      "chip": "ym2612"
    },
    {
      "channel": 2,
      "note": 40,
      "start": 12.1832,
      "duration": 0.017,
      "velocity": 114,
      "chip": "ym2612"
    },
    {
      "channel": 0,
      "note": 80,
      "start": 12.1923,
      "duration": 0.2497,
      "velocity": 103,
      "chip": "ym2612"
    },
    {
      "channel": 1,
      "note": 53,
      "start": 12.1948,
      "duration": 0.0472,
      "velocity": 81,
      "chip": "ym2612"
    },
    {
      "channel": 5,
      "note": 81,
      "start": 12.199,
      "duration": 0.007,
      "velocity": 103,
      "chip": "ym2612"
    },
    {
      "channel": 5,
      "note": 81,
      "start": 12.206,
      "duration": 0.0125,
      "velocity": 103,
      "chip": "ym2612"
    },
    {
      "channel": 2,
      "note": 40,
      "start": 12.2082,
      "duration": 0.0115,
      "velocity": 114,
      "chip": "ym2612"
    },
    {
      "channel": 5,
      "note": 81,
      "start": 12.2185,
      "duration": 0.0125,
      "velocity": 103,
      "chip": "ym2612"
    },
    {
      "channel": 2,
      "note": 40,
      "start": 12.2198,
      "duration": 0.0125,
      "velocity": 114,
      "chip": "ym2612"
    },
    {
      "channel": 5,
      "note": 81,
      "start": 12.231,
      "duration": 0.0134,
      "velocity": 103,
      "chip": "ym2612"
    },
    {
      "channel": 2,
      "note": 40,
      "start": 12.2323,
      "duration": 0.014,
      "velocity": 114,
      "chip": "ym2612"
    },
    {
      "channel": 5,
      "note": 81,
      "start": 12.2444,
      "duration": 0.0116,
      "velocity": 103,
      "chip": "ym2612"
    },
    {
      "channel": 2,
      "note": 40,
      "start": 12.2463,
      "duration": 0.011,
      "velocity": 114,
      "chip": "ym2612"
    },
    {
      "channel": 5,
      "note": 81,
      "start": 12.256,
      "duration": 0.0125,
      "velocity": 103,
      "chip": "ym2612"
    },
    {
      "channel": 2,
      "note": 40,
      "start": 12.2573,
      "duration": 0.0125,
      "velocity": 114,
      "chip": "ym2612"
    },
    {
      "channel": 5,
      "note": 81,
      "start": 12.2685,
      "duration": 0.0125,
      "velocity": 103,
      "chip": "ym2612"
    },
    {
      "channel": 2,
      "note": 40,
      "start": 12.2698,
      "duration": 0.0125,
      "velocity": 114,
      "chip": "ym2612"
    },
    {
      "channel": 5,
      "note": 81,
      "start": 12.281,
      "duration": 0.015,
      "velocity": 103,
      "chip": "ym2612"
    },
    {
      "channel": 2,
      "note": 40,
      "start": 12.2823,
      "duration": 0.0149,
      "velocity": 114,
      "chip": "ym2612"
    },
    {
      "channel": 1,
      "note": 53,
      "start": 12.2925,
      "duration": 0.0994,
      "velocity": 81,
      "chip": "ym2612"
    },
    {
      "channel": 5,
      "note": 81,
      "start": 12.296,
      "duration": 0.01,
      "velocity": 103,
      "chip": "ym2612"
    },
    {
      "channel": 5,
      "note": 81,
      "start": 12.306,
      "duration": 0.0125,
      "velocity": 103,
      "chip": "ym2612"
    },
    {
      "channel": 2,
      "note": 40,
      "start": 12.3082,
      "duration": 0.0115,
      "velocity": 114,
      "chip": "ym2612"
    },
    {
      "channel": 5,
      "note": 81,
      "start": 12.3185,
      "duration": 0.0124,
      "velocity": 103,
      "chip": "ym2612"
    },
    {
      "channel": 2,
      "note": 40,
      "start": 12.3198,
      "duration": 0.0129,
      "velocity": 114,
      "chip": "ym2612"
    },
    {
      "channel": 5,
      "note": 80,
      "start": 12.3314,
      "duration": 0.2505,
      "velocity": 103,
      "chip": "ym2612"
    },
    {
      "channel": 2,
      "note": 40,
      "start": 12.3326,
      "duration": 0.0123,
      "velocity": 114,
      "chip": "ym2612"
    },
    {
      "channel": 2,
      "note": 40,
      "start": 12.3449,
      "duration": 0.0115,
      "velocity": 114,
      "chip": "ym2612"
    },
    {
      "channel": 2,
      "note": 40,
      "start": 12.3564,
      "duration": 0.0125,
      "velocity": 114,
      "chip": "ym2612"
    },
    {
      "channel": 2,
      "note": 40,
      "start": 12.3689,
      "duration": 0.0125,
      "velocity": 114,
      "chip": "ym2612"
    },
    {
      "channel": 2,
      "note": 40,
      "start": 12.3814,
      "duration": 0.0136,
      "velocity": 114,
      "chip": "ym2612"
    },
    {
      "channel": 2,
      "note": 40,
      "start": 12.395,
      "duration": 0.0113,
      "velocity": 114,
      "chip": "ym2612"
    },
    {
      "channel": 2,
      "note": 40,
      "start": 12.4063,
      "duration": 0.0125,
      "velocity": 114,
      "chip": "ym2612"
    },
    {
      "channel": 2,
      "note": 40,
      "start": 12.4189,
      "duration": 0.0125,
      "velocity": 114,
      "chip": "ym2612"
    },
    {
      "channel": 2,
      "note": 39,
      "start": 12.4314,
      "duration": 0.0139,
      "velocity": 114,
      "chip": "ym2612"
    },
    {
      "channel": 0,
      "note": 80,
      "start": 12.442,
      "duration": 0.0125,
      "velocity": 103,
      "chip": "ym2612"
    },
    {
      "channel": 0,
      "note": 80,
      "start": 12.4545,
      "duration": 0.0125,
      "velocity": 103,
      "chip": "ym2612"
    },
    {
      "channel": 0,
      "note": 80,
      "start": 12.467,
      "duration": 0.0126,
      "velocity": 103,
      "chip": "ym2612"
    },
    {
      "channel": 0,
      "note": 80,
      "start": 12.4795,
      "duration": 0.0125,
      "velocity": 103,
      "chip": "ym2612"
    },
    {
      "channel": 0,
      "note": 80,
      "start": 12.492,
      "duration": 0.0125,
      "velocity": 103,
      "chip": "ym2612"
    },
    {
      "channel": 1,
      "note": 53,
      "start": 12.4934,
      "duration": 0.062,
      "velocity": 81,
      "chip": "ym2612"
    },
    {
      "channel": 2,
      "note": 40,
      "start": 12.4987,
      "duration": 0.0085,
      "velocity": 114,
      "chip": "ym2612"
    },
    {
      "channel": 0,
      "note": 80,
      "start": 12.5045,
      "duration": 0.0125,
      "velocity": 103,
      "chip": "ym2612"
    },
    {
      "channel": 2,
      "note": 40,
      "start": 12.5072,
      "duration": 0.0125,
      "velocity": 114,
      "chip": "ym2612"
    },
    {
      "channel": 0,
      "note": 80,
      "start": 12.517,
      "duration": 0.0126,
      "velocity": 103,
      "chip": "ym2612"
    },
    {
      "channel": 2,
      "note": 40,
      "start": 12.5198,
      "duration": 0.0129,
      "velocity": 114,
      "chip": "ym2612"
    },
    {
      "channel": 0,
      "note": 80,
      "start": 12.5295,
      "duration": 0.0125,
      "velocity": 103,
      "chip": "ym2612"
    },
    {
      "channel": 2,
      "note": 40,
      "start": 12.5327,
      "duration": 0.0127,
      "velocity": 114,
      "chip": "ym2612"
    },
    {
      "channel": 0,
      "note": 80,
      "start": 12.542,
      "duration": 0.0125,
      "velocity": 103,
      "chip": "ym2612"
    },
    {
      "channel": 2,
      "note": 40,
      "start": 12.5454,
      "duration": 0.0124,
      "velocity": 114,
      "chip": "ym2612"
    },
    {
      "channel": 0,
      "note": 80,
      "start": 12.5545,
      "duration": 0.0125,
      "velocity": 103,
      "chip": "ym2612"
    },
    {
      "channel": 2,
      "note": 40,
      "start": 12.5578,
      "duration": 0.012,
      "velocity": 114,
      "chip": "ym2612"
    },
    {
      "channel": 0,
      "note": 80,
      "start": 12.567,
      "duration": 0.0126,
      "velocity": 103,
      "chip": "ym2612"
    },
    {
      "channel": 2,
      "note": 40,
      "start": 12.5698,
      "duration": 0.0134,
      "velocity": 114,
      "chip": "ym2612"
    },
    {
      "channel": 0,
      "note": 80,
      "start": 12.5795,
      "duration": 0.0125,
      "velocity": 103,
      "chip": "ym2612"
    },
    {
      "channel": 5,
      "note": 80,
      "start": 12.5819,
      "duration": 0.015,
      "velocity": 103,
      "chip": "ym2612"
    },
    {
      "channel": 2,
      "note": 40,
      "start": 12.5832,
      "duration": 0.0149,
      "velocity": 114,
      "chip": "ym2612"
    },
    {
      "channel": 0,
      "note": 80,
      "start": 12.592,
      "duration": 0.0125,
      "velocity": 103,
      "chip": "ym2612"
    },
    {
      "channel": 1,
      "note": 53,
      "start": 12.5934,
      "duration": 0.0994,
      "velocity": 81,
      "chip": "ym2612"
    },
    {
      "channel": 5,
      "note": 80,
      "start": 12.5969,
      "duration": 0.01,
      "velocity": 103,
      "chip": "ym2612"
    },
    {
      "channel": 0,
      "note": 80,
      "start": 12.6045,
      "duration": 0.0125,
      "velocity": 103,
      "chip": "ym2612"
    },
    {
      "channel": 5,
      "note": 80,
      "start": 12.6069,
      "duration": 0.0125,
      "velocity": 103,
      "chip": "ym2612"
    },
    {
      "channel": 2,
      "note": 41,
      "start": 12.6126,
      "duration": 0.1871,
      "velocity": 122,
      "chip": "ym2612"
    },
    {
      "channel": 0,
      "note": 80,
      "start": 12.617,
      "duration": 0.0126,
      "velocity": 103,
      "chip": "ym2612"
    },
    {
      "channel": 5,
      "note": 80,
      "start": 12.6194,
      "duration": 0.0126,
      "velocity": 103,
      "chip": "ym2612"
    },
    {
      "channel": 0,
      "note": 80,
      "start": 12.6295,
      "duration": 0.0125,
      "velocity": 103,
      "chip": "ym2612"
    },
    {
      "channel": 5,
      "note": 80,
      "start": 12.632,
      "duration": 0.013,
      "velocity": 103,
      "chip": "ym2612"
    },
    {
      "channel": 0,
      "note": 80,
      "start": 12.642,
      "duration": 0.0125,
      "velocity": 103,
      "chip": "ym2612"
    },
    {
      "channel": 5,
      "note": 80,
      "start": 12.645,
      "duration": 0.0119,
      "velocity": 103,
      "chip": "ym2612"
    },
    {
      "channel": 0,
      "note": 80,
      "start": 12.6545,
      "duration": 0.0125,
      "velocity": 103,
      "chip": "ym2612"
    },
    {
      "channel": 5,
      "note": 80,
      "start": 12.6569,
      "duration": 0.0125,
      "velocity": 103,
      "chip": "ym2612"
    },
    {
      "channel": 0,
      "note": 80,
      "start": 12.667,
      "duration": 0.0126,
      "velocity": 103,
      "chip": "ym2612"
    },
    {
      "channel": 5,
      "note": 80,
      "start": 12.6694,
      "duration": 0.0126,
      "velocity": 103,
      "chip": "ym2612"
    },
    {
      "channel": 0,
      "note": 80,
      "start": 12.6795,
      "duration": 0.0125,
      "velocity": 103,
      "chip": "ym2612"
    },
    {
      "channel": 5,
      "note": 80,
      "start": 12.682,
      "duration": 0.0136,
      "velocity": 103,
      "chip": "ym2612"
    },
    {
      "channel": 0,
      "note": 80,
      "start": 12.692,
      "duration": 0.0125,
      "velocity": 103,
      "chip": "ym2612"
    },
    {
      "channel": 5,
      "note": 80,
      "start": 12.6956,
      "duration": 0.0113,
      "velocity": 103,
      "chip": "ym2612"
    },
    {
      "channel": 0,
      "note": 80,
      "start": 12.7045,
      "duration": 0.0125,
      "velocity": 103,
      "chip": "ym2612"
    },
    {
      "channel": 5,
      "note": 80,
      "start": 12.7069,
      "duration": 0.0125,
      "velocity": 103,
      "chip": "ym2612"
    },
    {
      "channel": 0,
      "note": 80,
      "start": 12.717,
      "duration": 0.0125,
      "velocity": 103,
      "chip": "ym2612"
    },
    {
      "channel": 5,
      "note": 80,
      "start": 12.7194,
      "duration": 0.0125,
      "velocity": 103,
      "chip": "ym2612"
    },
    {
      "channel": 0,
      "note": 80,
      "start": 12.7295,
      "duration": 0.0125,
      "velocity": 103,
      "chip": "ym2612"
    },
    {
      "channel": 5,
      "note": 80,
      "start": 12.7319,
      "duration": 0.0131,
      "velocity": 103,
      "chip": "ym2612"
    },
    {
      "channel": 0,
      "note": 80,
      "start": 12.742,
      "duration": 0.0125,
      "velocity": 103,
      "chip": "ym2612"
    },
    {
      "channel": 5,
      "note": 80,
      "start": 12.745,
      "duration": 0.0119,
      "velocity": 103,
      "chip": "ym2612"
    },
    {
      "channel": 0,
      "note": 80,
      "start": 12.7545,
      "duration": 0.0125,
      "velocity": 103,
      "chip": "ym2612"
    },
    {
      "channel": 5,
      "note": 80,
      "start": 12.7569,
      "duration": 0.0125,
      "velocity": 103,
      "chip": "ym2612"
    },
    {
      "channel": 0,
      "note": 80,
      "start": 12.767,
      "duration": 0.0126,
      "velocity": 103,
      "chip": "ym2612"
    },
    {
      "channel": 5,
      "note": 80,
      "start": 12.7694,
      "duration": 0.0125,
      "velocity": 103,
      "chip": "ym2612"
    },
    {
      "channel": 0,
      "note": 80,
      "start": 12.7795,
      "duration": 0.0125,
      "velocity": 103,
      "chip": "ym2612"
    },
    {
      "channel": 5,
      "note": 80,
      "start": 12.7819,
      "duration": 0.015,
      "velocity": 103,
      "chip": "ym2612"
    },
    {
      "channel": 0,
      "note": 80,
      "start": 12.792,
      "duration": 0.0125,
      "velocity": 103,
      "chip": "ym2612"
    },
    {
      "channel": 1,
      "note": 53,
      "start": 12.7934,
      "duration": 0.062,
      "velocity": 81,
      "chip": "ym2612"
    },
    {
      "channel": 5,
      "note": 80,
      "start": 12.7969,
      "duration": 0.01,
      "velocity": 103,
      "chip": "ym2612"
    },
    {
      "channel": 2,
      "note": 40,
      "start": 12.8024,
      "duration": 0.0057,
      "velocity": 114,
      "chip": "ym2612"
    },
    {
      "channel": 0,
      "note": 80,
      "start": 12.8045,
      "duration": 0.0125,
      "velocity": 103,
      "chip": "ym2612"
    },
    {
      "channel": 5,
      "note": 80,
      "start": 12.8069,
      "duration": 0.0125,
      "velocity": 103,
      "chip": "ym2612"
    },
    {
      "channel": 2,
      "note": 40,
      "start": 12.8082,
      "duration": 0.0124,
      "velocity": 114,
      "chip": "ym2612"
    },
    {
      "channel": 0,
      "note": 80,
      "start": 12.817,
      "duration": 0.0126,
      "velocity": 103,
      "chip": "ym2612"
    },
    {
      "channel": 5,
      "note": 80,
      "start": 12.8194,
      "duration": 0.0125,
      "velocity": 103,
      "chip": "ym2612"
    },
    {
      "channel": 2,
      "note": 40,
      "start": 12.8206,
      "duration": 0.0129,
      "velocity": 114,
      "chip": "ym2612"
    },
    {
      "channel": 0,
      "note": 80,
      "start": 12.8295,
      "duration": 0.0125,
      "velocity": 103,
      "chip": "ym2612"
    },
    {
      "channel": 5,
      "note": 80,
      "start": 12.8319,
      "duration": 0.0131,
      "velocity": 103,
      "chip": "ym2612"
    },
    {
      "channel": 2,
      "note": 40,
      "start": 12.8336,
      "duration": 0.0127,
      "velocity": 114,
      "chip": "ym2612"
    },
    {
      "channel": 0,
      "note": 80,
      "start": 12.842,
      "duration": 0.0125,
      "velocity": 103,
      "chip": "ym2612"
    },
    {
      "channel": 5,
      "note": 80,
      "start": 12.845,
      "duration": 0.0125,
      "velocity": 103,
      "chip": "ym2612"
    },
    {
      "channel": 2,
      "note": 40,
      "start": 12.8463,
      "duration": 0.0125,
      "velocity": 114,
      "chip": "ym2612"
    },
    {
      "channel": 0,
      "note": 80,
      "start": 12.8545,
      "duration": 0.0125,
      "velocity": 103,
      "chip": "ym2612"
    },
    {
      "channel": 5,
      "note": 80,
      "start": 12.8575,
      "duration": 0.0119,
      "velocity": 103,
      "chip": "ym2612"
    },
    {
      "channel": 2,
      "note": 40,
      "start": 12.8588,
      "duration": 0.0119,
      "velocity": 114,
      "chip": "ym2612"
    },
    {
      "channel": 0,
      "note": 80,
      "start": 12.867,
      "duration": 0.0126,
      "velocity": 103,
      "chip": "ym2612"
    },
    {
      "channel": 5,
      "note": 80,
      "start": 12.8694,
      "duration": 0.0125,
      "velocity": 103,
      "chip": "ym2612"
    },
    {
      "channel": 2,
      "note": 40,
      "start": 12.8706,
      "duration": 0.0125,
      "velocity": 114,
      "chip": "ym2612"
    },
    {
      "channel": 0,
      "note": 80,
      "start": 12.8795,
      "duration": 0.0125,
      "velocity": 103,
      "chip": "ym2612"
    },
    {
      "channel": 5,
      "note": 80,
      "start": 12.8819,
      "duration": 0.015,
      "velocity": 103,
      "chip": "ym2612"
    },
    {
      "channel": 2,
      "note": 40,
      "start": 12.8832,
      "duration": 0.0149,
      "velocity": 114,
      "chip": "ym2612"
    },
    {
      "channel": 0,
      "note": 80,
      "start": 12.892,
      "duration": 0.0125,
      "velocity": 103,
      "chip": "ym2612"
    },
    {
      "channel": 1,
      "note": 53,
      "start": 12.8934,
      "duration": 0.1119,
      "velocity": 81,
      "chip": "ym2612"
    },
    {
      "channel": 5,
      "note": 80,
      "start": 12.8969,
      "duration": 0.01,
      "velocity": 103,
      "chip": "ym2612"
    },
    {
      "channel": 0,
      "note": 80,
      "start": 12.9045,
      "duration": 0.0125,
      "velocity": 103,
      "chip": "ym2612"
    },
    {
      "channel": 5,
      "note": 80,
      "start": 12.9069,
      "duration": 0.0125,
      "velocity": 103,
      "chip": "ym2612"
    },
    {
      "channel": 2,
      "note": 40,
      "start": 12.9091,
      "duration": 0.0115,
      "velocity": 114,
      "chip": "ym2612"
    },
    {
      "channel": 0,
      "note": 80,
      "start": 12.917,
      "duration": 0.0126,
      "velocity": 103,
      "chip": "ym2612"
    },
    {
      "channel": 5,
      "note": 80,
      "start": 12.9194,
      "duration": 0.0125,
      "velocity": 103,
      "chip": "ym2612"
    },
    {
      "channel": 2,
      "note": 40,
      "start": 12.9206,
      "duration": 0.0125,
      "velocity": 114,
      "chip": "ym2612"
    },
    {
      "channel": 0,
      "note": 80,
      "start": 12.9295,
      "duration": 0.0125,
      "velocity": 103,
      "chip": "ym2612"
    },
    {
      "channel": 5,
      "note": 80,
      "start": 12.9319,
      "duration": 0.0131,
      "velocity": 103,
      "chip": "ym2612"
    },
    {
      "channel": 2,
      "note": 40,
      "start": 12.9332,
      "duration": 0.0135,
      "velocity": 114,
      "chip": "ym2612"
    },
    {
      "channel": 0,
      "note": 80,
      "start": 12.942,
      "duration": 0.0125,
      "velocity": 103,
      "chip": "ym2612"
    },
    {
      "channel": 5,
      "note": 80,
      "start": 12.945,
      "duration": 0.0119,
      "velocity": 103,
      "chip": "ym2612"
    },
    {
      "channel": 2,
      "note": 40,
      "start": 12.9467,
      "duration": 0.0115,
      "velocity": 114,
      "chip": "ym2612"
    },
    {
      "channel": 0,
      "note": 80,
      "start": 12.9545,
      "duration": 0.0125,
      "velocity": 103,
      "chip": "ym2612"
    },
    {
      "channel": 5,
      "note": 80,
      "start": 12.9569,
      "duration": 0.0125,
      "velocity": 103,
      "chip": "ym2612"
    },
    {
      "channel": 2,
      "note": 40,
      "start": 12.9582,
      "duration": 0.0124,
      "velocity": 114,
      "chip": "ym2612"
    },
    {
      "channel": 0,
      "note": 80,
      "start": 12.967,
      "duration": 0.0126,
      "velocity": 103,
      "chip": "ym2612"
    },
    {
      "channel": 5,
      "note": 80,
      "start": 12.9694,
      "duration": 0.0125,
      "velocity": 103,
      "chip": "ym2612"
    },
    {
      "channel": 2,
      "note": 40,
      "start": 12.9706,
      "duration": 0.0125,
      "velocity": 114,
      "chip": "ym2612"
    },
    {
      "channel": 0,
      "note": 80,
      "start": 12.9795,
      "duration": 0.0125,
      "velocity": 103,
      "chip": "ym2612"
    },
    {
      "channel": 5,
      "note": 80,
      "start": 12.9819,
      "duration": 0.0131,
      "velocity": 103,
      "chip": "ym2612"
    },
    {
      "channel": 2,
      "note": 40,
      "start": 12.9832,
      "duration": 0.0131,
      "velocity": 114,
      "chip": "ym2612"
    },
    {
      "channel": 0,
      "note": 80,
      "start": 12.992,
      "duration": 0.0125,
      "velocity": 103,
      "chip": "ym2612"
    },
    {
      "channel": 5,
      "note": 80,
      "start": 12.995,
      "duration": 0.0124,
      "velocity": 103,
      "chip": "ym2612"
    },
    {
      "channel": 2,
      "note": 40,
      "start": 12.9963,
      "duration": 0.0124,
      "velocity": 114,
      "chip": "ym2612"
    },
    {
      "channel": 0,
      "note": 80,
      "start": 13.0045,
      "duration": 0.0125,
      "velocity": 103,
      "chip": "ym2612"
    },
    {
      "channel": 5,
      "note": 80,
      "start": 13.0074,
      "duration": 0.012,
      "velocity": 103,
      "chip": "ym2612"
    },
    {
      "channel": 2,
      "note": 40,
      "start": 13.0087,
      "duration": 0.012,
      "velocity": 114,
      "chip": "ym2612"
    },
    {
      "channel": 0,
      "note": 80,
      "start": 13.017,
      "duration": 0.0126,
      "velocity": 103,
      "chip": "ym2612"
    },
    {
      "channel": 5,
      "note": 80,
      "start": 13.0194,
      "duration": 0.0126,
      "velocity": 103,
      "chip": "ym2612"
    },
    {
      "channel": 2,
      "note": 40,
      "start": 13.0206,
      "duration": 0.0126,
      "velocity": 114,
      "chip": "ym2612"
    },
    {
      "channel": 0,
      "note": 80,
      "start": 13.0295,
      "duration": 0.0125,
      "velocity": 103,
      "chip": "ym2612"
    },
    {
      "channel": 5,
      "note": 80,
      "start": 13.032,
      "duration": 0.013,
      "velocity": 103,
      "chip": "ym2612"
    },
    {
      "channel": 2,
      "note": 39,
      "start": 13.0332,
      "duration": 0.013,
      "velocity": 114,
      "chip": "ym2612"
    },
    {
      "channel": 0,
      "note": 80,
      "start": 13.042,
      "duration": 0.0125,
      "velocity": 103,
      "chip": "ym2612"
    },
    {
      "channel": 5,
      "note": 80,
      "start": 13.045,
      "duration": 0.0119,
      "velocity": 103,
      "chip": "ym2612"
    },
    {
      "channel": 0,
      "note": 80,
      "start": 13.0545,
      "duration": 0.0125,
      "velocity": 103,
      "chip": "ym2612"
    },
    {
      "channel": 5,
      "note": 80,
      "start": 13.0569,
      "duration": 0.0125,
      "velocity": 103,
      "chip": "ym2612"
    },
    {
      "channel": 0,
      "note": 80,
      "start": 13.067,
      "duration": 0.0126,
      "velocity": 103,
      "chip": "ym2612"
    },
    {
      "channel": 5,
      "note": 80,
      "start": 13.0694,
      "duration": 0.0125,
      "velocity": 103,
      "chip": "ym2612"
    },
    {
      "channel": 0,
      "note": 80,
      "start": 13.0795,
      "duration": 0.0125,
      "velocity": 103,
      "chip": "ym2612"
    },
    {
      "channel": 5,
      "note": 80,
      "start": 13.0819,
      "duration": 0.0131,
      "velocity": 103,
      "chip": "ym2612"
    },
    {
      "channel": 0,
      "note": 80,
      "start": 13.092,
      "duration": 0.0125,
      "velocity": 103,
      "chip": "ym2612"
    },
    {
      "channel": 5,
      "note": 80,
      "start": 13.095,
      "duration": 0.0138,
      "velocity": 103,
      "chip": "ym2612"
    },
    {
      "channel": 0,
      "note": 80,
      "start": 13.1045,
      "duration": 0.0125,
      "velocity": 103,
      "chip": "ym2612"
    },
    {
      "channel": 1,
      "note": 53,
      "start": 13.1059,
      "duration": 0.0619,
      "velocity": 81,
      "chip": "ym2612"
    },
    {
      "channel": 5,
      "note": 80,
      "start": 13.1088,
      "duration": 0.0105,
      "velocity": 103,
      "chip": "ym2612"
    },
    {
      "channel": 2,
      "note": 40,
      "start": 13.1121,
      "duration": 0.0086,
      "velocity": 114,
      "chip": "ym2612"
    },
    {
      "channel": 0,
      "note": 80,
      "start": 13.117,
      "duration": 0.0126,
      "velocity": 103,
      "chip": "ym2612"
    },
    {
      "channel": 5,
      "note": 80,
      "start": 13.1194,
      "duration": 0.0125,
      "velocity": 103,
      "chip": "ym2612"
    },
    {
      "channel": 2,
      "note": 40,
      "start": 13.1206,
      "duration": 0.0125,
      "velocity": 114,
      "chip": "ym2612"
    },
    {
      "channel": 0,
      "note": 80,
      "start": 13.1295,
      "duration": 0.0125,
      "velocity": 103,
      "chip": "ym2612"
    },
    {
      "channel": 5,
      "note": 80,
      "start": 13.1319,
      "duration": 0.0131,
      "velocity": 103,
      "chip": "ym2612"
    },
    {
      "channel": 2,
      "note": 40,
      "start": 13.1332,
      "duration": 0.0135,
      "velocity": 114,
      "chip": "ym2612"
    },
    {
      "channel": 0,
      "note": 80,
      "start": 13.142,
      "duration": 0.0125,
      "velocity": 103,
      "chip": "ym2612"
    },
    {
      "channel": 5,
      "note": 80,
      "start": 13.145,
      "duration": 0.0119,
      "velocity": 103,
      "chip": "ym2612"
    },
    {
      "channel": 2,
      "note": 40,
      "start": 13.1467,
      "duration": 0.0115,
      "velocity": 114,
      "chip": "ym2612"
    },
    {
      "channel": 0,
      "note": 80,
      "start": 13.1545,
      "duration": 0.0125,
      "velocity": 103,
      "chip": "ym2612"
    },
    {
      "channel": 5,
      "note": 80,
      "start": 13.1569,
      "duration": 0.013,
      "velocity": 103,
      "chip": "ym2612"
    },
    {
      "channel": 2,
      "note": 40,
      "start": 13.1582,
      "duration": 0.013,
      "velocity": 114,
      "chip": "ym2612"
    },
    {
      "channel": 0,
      "note": 80,
      "start": 13.167,
      "duration": 0.0126,
      "velocity": 103,
      "chip": "ym2612"
    },
    {
      "channel": 5,
      "note": 80,
      "start": 13.1699,
      "duration": 0.012,
      "velocity": 103,
      "chip": "ym2612"
    },
    {
      "channel": 2,
      "note": 40,
      "start": 13.1712,
      "duration": 0.012,
      "velocity": 114,
      "chip": "ym2612"
    },
    {
      "channel": 0,
      "note": 80,
      "start": 13.1795,
      "duration": 0.0125,
      "velocity": 103,
      "chip": "ym2612"
    },
    {
      "channel": 5,
      "note": 80,
      "start": 13.1819,
      "duration": 0.0132,
      "velocity": 103,
      "chip": "ym2612"
    },
    {
      "channel": 2,
      "note": 40,
      "start": 13.1832,
      "duration": 0.0132,
      "velocity": 114,
      "chip": "ym2612"
    },
    {
      "channel": 0,
      "note": 80,
      "start": 13.1921,
      "duration": 0.0124,
      "velocity": 103,
      "chip": "ym2612"
    },
    {
      "channel": 5,
      "note": 80,
      "start": 13.1951,
      "duration": 0.0137,
      "velocity": 103,
      "chip": "ym2612"
    },
    {
      "channel": 2,
      "note": 40,
      "start": 13.1963,
      "duration": 0.0136,
      "velocity": 114,
      "chip": "ym2612"
    },
    {
      "channel": 0,
      "note": 80,
      "start": 13.2045,
      "duration": 0.0125,
      "velocity": 103,
      "chip": "ym2612"
    },
    {
      "channel": 1,
      "note": 53,
      "start": 13.2059,
      "duration": 0.0994,
      "velocity": 81,
      "chip": "ym2612"
    },
    {
      "channel": 5,
      "note": 80,
      "start": 13.2088,
      "duration": 0.0105,
      "velocity": 103,
      "chip": "ym2612"
    },
    {
      "channel": 0,
      "note": 80,
      "start": 13.217,
      "duration": 0.0126,
      "velocity": 103,
      "chip": "ym2612"
    },
    {
      "channel": 5,
      "note": 80,
      "start": 13.2194,
      "duration": 0.0125,
      "velocity": 103,
      "chip": "ym2612"
    },
    {
      "channel": 2,
      "note": 40,
      "start": 13.2216,
      "duration": 0.0116,
      "velocity": 114,
      "chip": "ym2612"
    },
    {
      "channel": 0,
      "note": 80,
      "start": 13.2295,
      "duration": 0.0125,
      "velocity": 103,
      "chip": "ym2612"
    },
    {
      "channel": 5,
      "note": 80,
      "start": 13.2319,
      "duration": 0.0131,
      "velocity": 103,
      "chip": "ym2612"
    },
    {
      "channel": 2,
      "note": 40,
      "start": 13.2332,
      "duration": 0.0131,
      "velocity": 114,
      "chip": "ym2612"
    },
    {
      "channel": 0,
      "note": 80,
      "start": 13.242,
      "duration": 0.0125,
      "velocity": 103,
      "chip": "ym2612"
    },
    {
      "channel": 5,
      "note": 80,
      "start": 13.245,
      "duration": 0.0119,
      "velocity": 103,
      "chip": "ym2612"
    },
    {
      "channel": 2,
      "note": 40,
      "start": 13.2463,
      "duration": 0.0123,
      "velocity": 114,
      "chip": "ym2612"
    },
    {
      "channel": 0,
      "note": 80,
      "start": 13.2545,
      "duration": 0.0125,
      "velocity": 103,
      "chip": "ym2612"
    },
    {
      "channel": 5,
      "note": 80,
      "start": 13.2569,
      "duration": 0.0125,
      "velocity": 103,
      "chip": "ym2612"
    },
    {
      "channel": 2,
      "note": 40,
      "start": 13.2585,
      "duration": 0.0121,
      "velocity": 114,
      "chip": "ym2612"
    },
    {
      "channel": 0,
      "note": 80,
      "start": 13.267,
      "duration": 0.0125,
      "velocity": 103,
      "chip": "ym2612"
    },
    {
      "channel": 5,
      "note": 80,
      "start": 13.2694,
      "duration": 0.0125,
      "velocity": 103,
      "chip": "ym2612"
    },
    {
      "channel": 2,
      "note": 40,
      "start": 13.2706,
      "duration": 0.0125,
      "velocity": 114,
      "chip": "ym2612"
    },
    {
      "channel": 0,
      "note": 80,
      "start": 13.2795,
      "duration": 0.0125,
      "velocity": 103,
      "chip": "ym2612"
    },
    {
      "channel": 5,
      "note": 80,
      "start": 13.2819,
      "duration": 0.0131,
      "velocity": 103,
      "chip": "ym2612"
    },
    {
      "channel": 2,
      "note": 40,
      "start": 13.2832,
      "duration": 0.0131,
      "velocity": 114,
      "chip": "ym2612"
    },
    {
      "channel": 0,
      "note": 80,
      "start": 13.292,
      "duration": 0.0125,
      "velocity": 103,
      "chip": "ym2612"
    },
    {
      "channel": 5,
      "note": 80,
      "start": 13.295,
      "duration": 0.0124,
      "velocity": 103,
      "chip": "ym2612"
    },
    {
      "channel": 2,
      "note": 40,
      "start": 13.2963,
      "duration": 0.0124,
      "velocity": 114,
      "chip": "ym2612"
    },
    {
      "channel": 0,
      "note": 80,
      "start": 13.3045,
      "duration": 0.0125,
      "velocity": 103,
      "chip": "ym2612"
    },
    {
      "channel": 5,
      "note": 80,
      "start": 13.3074,
      "duration": 0.012,
      "velocity": 103,
      "chip": "ym2612"
    },
    {
      "channel": 2,
      "note": 40,
      "start": 13.3087,
      "duration": 0.012,
      "velocity": 114,
      "chip": "ym2612"
    },
    {
      "channel": 0,
      "note": 80,
      "start": 13.317,
      "duration": 0.0126,
      "velocity": 103,
      "chip": "ym2612"
    },
    {
      "channel": 5,
      "note": 80,
      "start": 13.3194,
      "duration": 0.0126,
      "velocity": 103,
      "chip": "ym2612"
    },
    {
      "channel": 2,
      "note": 40,
      "start": 13.3206,
      "duration": 0.0126,
      "velocity": 114,
      "chip": "ym2612"
    },
    {
      "channel": 0,
      "note": 80,
      "start": 13.3295,
      "duration": 0.0125,
      "velocity": 103,
      "chip": "ym2612"
    },
    {
      "channel": 5,
      "note": 80,
      "start": 13.332,
      "duration": 0.0131,
      "velocity": 103,
      "chip": "ym2612"
    },
    {
      "channel": 2,
      "note": 40,
      "start": 13.3332,
      "duration": 0.0131,
      "velocity": 114,
      "chip": "ym2612"
    },
    {
      "channel": 0,
      "note": 80,
      "start": 13.3421,
      "duration": 0.0124,
      "velocity": 103,
      "chip": "ym2612"
    },
    {
      "channel": 5,
      "note": 80,
      "start": 13.3451,
      "duration": 0.0118,
      "velocity": 103,
      "chip": "ym2612"
    },
    {
      "channel": 2,
      "note": 39,
      "start": 13.3463,
      "duration": 0.0118,
      "velocity": 114,
      "chip": "ym2612"
    },
    {
      "channel": 0,
      "note": 80,
      "start": 13.3545,
      "duration": 0.0125,
      "velocity": 103,
      "chip": "ym2612"
    },
    {
      "channel": 5,
      "note": 80,
      "start": 13.3569,
      "duration": 0.0125,
      "velocity": 103,
      "chip": "ym2612"
    },
    {
      "channel": 0,
      "note": 80,
      "start": 13.367,
      "duration": 0.0126,
      "velocity": 103,
      "chip": "ym2612"
    },
    {
      "channel": 5,
      "note": 80,
      "start": 13.3694,
      "duration": 0.0126,
      "velocity": 103,
      "chip": "ym2612"
    },
    {
      "channel": 0,
      "note": 80,
      "start": 13.3795,
      "duration": 0.0125,
      "velocity": 103,
      "chip": "ym2612"
    },
    {
      "channel": 5,
      "note": 80,
      "start": 13.382,
      "duration": 0.013,
      "velocity": 103,
      "chip": "ym2612"
    },
    {
      "channel": 0,
      "note": 80,
      "start": 13.392,
      "duration": 0.0125,
      "velocity": 103,
      "chip": "ym2612"
    },
    {
      "channel": 5,
      "note": 80,
      "start": 13.395,
      "duration": 0.0139,
      "velocity": 103,
      "chip": "ym2612"
    },
    {
      "channel": 0,
      "note": 80,
      "start": 13.4045,
      "duration": 0.0125,
      "velocity": 103,
      "chip": "ym2612"
    },
    {
      "channel": 1,
      "note": 53,
      "start": 13.4059,
      "duration": 0.0994,
      "velocity": 81,
      "chip": "ym2612"
    },
    {
      "channel": 5,
      "note": 80,
      "start": 13.4089,
      "duration": 0.0105,
      "velocity": 103,
      "chip": "ym2612"
    },
    {
      "channel": 2,
      "note": 41,
      "start": 13.4149,
      "duration": 0.1973,
      "velocity": 122,
      "chip": "ym2612"
    },
    {
      "channel": 0,
      "note": 80,
      "start": 13.417,
      "duration": 0.0125,
      "velocity": 103,
      "chip": "ym2612"
    },
    {
      "channel": 5,
      "note": 80,
      "start": 13.4194,
      "duration": 0.0125,
      "velocity": 103,
      "chip": "ym2612"
    },
    {
      "channel": 0,
      "note": 80,
      "start": 13.4295,
      "duration": 0.0125,
      "velocity": 103,
      "chip": "ym2612"
    },
    {
      "channel": 5,
      "note": 80,
      "start": 13.4319,
      "duration": 0.0131,
      "velocity": 103,
      "chip": "ym2612"
    },
    {
      "channel": 0,
      "note": 80,
      "start": 13.442,
      "duration": 0.0125,
      "velocity": 103,
      "chip": "ym2612"
    },
    {
      "channel": 5,
      "note": 80,
      "start": 13.445,
      "duration": 0.0119,
      "velocity": 103,
      "chip": "ym2612"
    },
    {
      "channel": 0,
      "note": 80,
      "start": 13.4545,
      "duration": 0.0125,
      "velocity": 103,
      "chip": "ym2612"
    },
    {
      "channel": 5,
      "note": 80,
      "start": 13.4569,
      "duration": 0.0125,
      "velocity": 103,
      "chip": "ym2612"
    },
    {
      "channel": 0,
      "note": 80,
      "start": 13.467,
      "duration": 0.0126,
      "velocity": 103,
      "chip": "ym2612"
    },
    {
      "channel": 5,
      "note": 80,
      "start": 13.4694,
      "duration": 0.0126,
      "velocity": 103,
      "chip": "ym2612"
    },
    {
      "channel": 0,
      "note": 80,
      "start": 13.4795,
      "duration": 0.0125,
      "velocity": 103,
      "chip": "ym2612"
    },
    {
      "channel": 5,
      "note": 80,
      "start": 13.482,
      "duration": 0.0131,
      "velocity": 103,
      "chip": "ym2612"
    },
    {
      "channel": 0,
      "note": 80,
      "start": 13.4921,
      "duration": 0.0124,
      "velocity": 103,
      "chip": "ym2612"
    },
    {
      "channel": 5,
      "note": 80,
      "start": 13.4951,
      "duration": 0.0124,
      "velocity": 103,
      "chip": "ym2612"
    },
    {
      "channel": 0,
      "note": 80,
      "start": 13.5045,
      "duration": 0.0125,
      "velocity": 103,
      "chip": "ym2612"
    },
    {
      "channel": 5,
      "note": 80,
      "start": 13.5075,
      "duration": 0.0119,
      "velocity": 103,
      "chip": "ym2612"
    },
    {
      "channel": 0,
      "note": 80,
      "start": 13.517,
      "duration": 0.0126,
      "velocity": 103,
      "chip": "ym2612"
    },
    {
      "channel": 5,
      "note": 80,
      "start": 13.5194,
      "duration": 0.0125,
      "velocity": 103,
      "chip": "ym2612"
    },
    {
      "channel": 0,
      "note": 80,
      "start": 13.5295,
      "duration": 0.0125,
      "velocity": 103,
      "chip": "ym2612"
    },
    {
      "channel": 5,
      "note": 80,
      "start": 13.5319,
      "duration": 0.0131,
      "velocity": 103,
      "chip": "ym2612"
    },
    {
      "channel": 0,
      "note": 80,
      "start": 13.542,
      "duration": 0.0125,
      "velocity": 103,
      "chip": "ym2612"
    },
    {
      "channel": 5,
      "note": 80,
      "start": 13.545,
      "duration": 0.0119,
      "velocity": 103,
      "chip": "ym2612"
    },
    {
      "channel": 0,
      "note": 80,
      "start": 13.5545,
      "duration": 0.0125,
      "velocity": 103,
      "chip": "ym2612"
    },
    {
      "channel": 5,
      "note": 80,
      "start": 13.5569,
      "duration": 0.0125,
      "velocity": 103,
      "chip": "ym2612"
    },
    {
      "channel": 0,
      "note": 80,
      "start": 13.567,
      "duration": 0.0126,
      "velocity": 103,
      "chip": "ym2612"
    },
    {
      "channel": 5,
      "note": 80,
      "start": 13.5694,
      "duration": 0.0125,
      "velocity": 103,
      "chip": "ym2612"
    },
    {
      "channel": 0,
      "note": 80,
      "start": 13.5795,
      "duration": 0.0125,
      "velocity": 103,
      "chip": "ym2612"
    },
    {
      "channel": 5,
      "note": 80,
      "start": 13.5819,
      "duration": 0.0131,
      "velocity": 103,
      "chip": "ym2612"
    },
    {
      "channel": 0,
      "note": 80,
      "start": 13.592,
      "duration": 0.0125,
      "velocity": 103,
      "chip": "ym2612"
    },
    {
      "channel": 5,
      "note": 80,
      "start": 13.595,
      "duration": 0.0138,
      "velocity": 103,
      "chip": "ym2612"
    },
    {
      "channel": 0,
      "note": 80,
      "start": 13.6045,
      "duration": 0.0125,
      "velocity": 103,
      "chip": "ym2612"
    },
    {
      "channel": 1,
      "note": 53,
      "start": 13.6059,
      "duration": 0.0994,
      "velocity": 81,
      "chip": "ym2612"
    },
    {
      "channel": 5,
      "note": 80,
      "start": 13.6088,
      "duration": 0.0105,
      "velocity": 103,
      "chip": "ym2612"
    },
    {
      "channel": 2,
      "note": 40,
      "start": 13.6149,
      "duration": 0.0057,
      "velocity": 114,
      "chip": "ym2612"
    },
    {
      "channel": 0,
      "note": 80,
      "start": 13.617,
      "duration": 0.0126,
      "velocity": 103,
      "chip": "ym2612"
    },
    {
      "channel": 5,
      "note": 80,
      "start": 13.6194,
      "duration": 0.0126,
      "velocity": 103,
      "chip": "ym2612"
    },
    {
      "channel": 2,
      "note": 40,
      "start": 13.6206,
      "duration": 0.0126,
      "velocity": 114,
      "chip": "ym2612"
    },
    {
      "channel": 0,
      "note": 80,
      "start": 13.6295,
      "duration": 0.0125,
      "velocity": 103,
      "chip": "ym2612"
    },
    {
      "channel": 5,
      "note": 80,
      "start": 13.632,
      "duration": 0.0131,
      "velocity": 103,
      "chip": "ym2612"
    },
    {
      "channel": 2,
      "note": 40,
      "start": 13.6332,
      "duration": 0.0134,
      "velocity": 114,
      "chip": "ym2612"
    },
    {
      "channel": 0,
      "note": 80,
      "start": 13.6421,
      "duration": 0.0124,
      "velocity": 103,
      "chip": "ym2612"
    },
    {
      "channel": 5,
      "note": 80,
      "start": 13.6451,
      "duration": 0.0118,
      "velocity": 103,
      "chip": "ym2612"
    },
    {
      "channel": 2,
      "note": 40,
      "start": 13.6467,
      "duration": 0.0115,
      "velocity": 114,
      "chip": "ym2612"
    },
    {
      "channel": 0,
      "note": 80,
      "start": 13.6545,
      "duration": 0.0125,
      "velocity": 103,
      "chip": "ym2612"
    },
    {
      "channel": 5,
      "note": 80,
      "start": 13.6569,
      "duration": 0.0125,
      "velocity": 103,
      "chip": "ym2612"
    },
    {
      "channel": 2,
      "note": 40,
      "start": 13.6582,
      "duration": 0.0124,
      "velocity": 114,
      "chip": "ym2612"
    },
    {
      "channel": 0,
      "note": 80,
      "start": 13.667,
      "duration": 0.0126,
      "velocity": 103,
      "chip": "ym2612"
    },
    {
      "channel": 5,
      "note": 80,
      "start": 13.6694,
      "duration": 0.0125,
      "velocity": 103,
      "chip": "ym2612"
    },
    {
      "channel": 2,
      "note": 40,
      "start": 13.6706,
      "duration": 0.0125,
      "velocity": 114,
      "chip": "ym2612"
    },
    {
      "channel": 0,
      "note": 80,
      "start": 13.6795,
      "duration": 0.0125,
      "velocity": 103,
      "chip": "ym2612"
    },
    {
      "channel": 5,
      "note": 80,
      "start": 13.6819,
      "duration": 0.0131,
      "velocity": 103,
      "chip": "ym2612"
    },
    {
      "channel": 2,
      "note": 40,
      "start": 13.6832,
      "duration": 0.0131,
      "velocity": 114,
      "chip": "ym2612"
    },
    {
      "channel": 0,
      "note": 80,
      "start": 13.692,
      "duration": 0.0125,
      "velocity": 103,
      "chip": "ym2612"
    },
    {
      "channel": 5,
      "note": 80,
      "start": 13.695,
      "duration": 0.0124,
      "velocity": 103,
      "chip": "ym2612"
    },
    {
      "channel": 2,
      "note": 40,
      "start": 13.6963,
      "duration": 0.0124,
      "velocity": 114,
      "chip": "ym2612"
    },
    {
      "channel": 0,
      "note": 80,
      "start": 13.7045,
      "duration": 0.0125,
      "velocity": 103,
      "chip": "ym2612"
    },
    {
      "channel": 5,
      "note": 80,
      "start": 13.7074,
      "duration": 0.012,
      "velocity": 103,
      "chip": "ym2612"
    },
    {
      "channel": 2,
      "note": 40,
      "start": 13.7087,
      "duration": 0.012,
      "velocity": 114,
      "chip": "ym2612"
    },
    {
      "channel": 0,
      "note": 80,
      "start": 13.717,
      "duration": 0.0126,
      "velocity": 103,
      "chip": "ym2612"
    },
    {
      "channel": 5,
      "note": 80,
      "start": 13.7194,
      "duration": 0.0125,
      "velocity": 103,
      "chip": "ym2612"
    },
    {
      "channel": 2,
      "note": 40,
      "start": 13.7206,
      "duration": 0.0125,
      "velocity": 114,
      "chip": "ym2612"
    },
    {
      "channel": 0,
      "note": 80,
      "start": 13.7295,
      "duration": 0.0125,
      "velocity": 103,
      "chip": "ym2612"
    },
    {
      "channel": 5,
      "note": 80,
      "start": 13.7319,
      "duration": 0.0131,
      "velocity": 103,
      "chip": "ym2612"
    },
    {
      "channel": 2,
      "note": 39,
      "start": 13.7332,
      "duration": 0.013,
      "velocity": 114,
      "chip": "ym2612"
    },
    {
      "channel": 0,
      "note": 80,
      "start": 13.742,
      "duration": 0.0125,
      "velocity": 103,
      "chip": "ym2612"
    },
    {
      "channel": 5,
      "note": 80,
      "start": 13.745,
      "duration": 0.0119,
      "velocity": 103,
      "chip": "ym2612"
    },
    {
      "channel": 0,
      "note": 80,
      "start": 13.7545,
      "duration": 0.0125,
      "velocity": 103,
      "chip": "ym2612"
    },
    {
      "channel": 5,
      "note": 80,
      "start": 13.7569,
      "duration": 0.0125,
      "velocity": 103,
      "chip": "ym2612"
    },
    {
      "channel": 0,
      "note": 80,
      "start": 13.767,
      "duration": 0.0126,
      "velocity": 103,
      "chip": "ym2612"
    },
    {
      "channel": 5,
      "note": 80,
      "start": 13.7694,
      "duration": 0.0126,
      "velocity": 103,
      "chip": "ym2612"
    },
    {
      "channel": 0,
      "note": 80,
      "start": 13.7795,
      "duration": 0.0125,
      "velocity": 103,
      "chip": "ym2612"
    },
    {
      "channel": 5,
      "note": 80,
      "start": 13.782,
      "duration": 0.0131,
      "velocity": 103,
      "chip": "ym2612"
    },
    {
      "channel": 0,
      "note": 80,
      "start": 13.792,
      "duration": 0.0125,
      "velocity": 103,
      "chip": "ym2612"
    },
    {
      "channel": 5,
      "note": 80,
      "start": 13.7951,
      "duration": 0.0118,
      "velocity": 103,
      "chip": "ym2612"
    },
    {
      "channel": 0,
      "note": 80,
      "start": 13.8045,
      "duration": 0.0123,
      "velocity": 103,
      "chip": "ym2612"
    },
    {
      "channel": 5,
      "note": 80,
      "start": 13.8069,
      "duration": 0.0148,
      "velocity": 103,
      "chip": "ym2612"
    },
    {
      "channel": 0,
      "note": 79,
      "start": 13.8173,
      "duration": 0.2496,
      "velocity": 103,
      "chip": "ym2612"
    },
    {
      "channel": 1,
      "note": 53,
      "start": 13.8187,
      "duration": 0.0482,
      "velocity": 81,
      "chip": "ym2612"
    },
    {
      "channel": 5,
      "note": 80,
      "start": 13.8217,
      "duration": 0.0094,
      "velocity": 103,
      "chip": "ym2612"
    },
    {
      "channel": 2,
      "note": 40,
      "start": 13.8243,
      "duration": 0.008,
      "velocity": 114,
      "chip": "ym2612"
    },
    {
      "channel": 5,
      "note": 80,
      "start": 13.831,
      "duration": 0.0125,
      "velocity": 103,
      "chip": "ym2612"
    },
    {
      "channel": 2,
      "note": 40,
      "start": 13.8323,
      "duration": 0.0131,
      "velocity": 114,
      "chip": "ym2612"
    },
    {
      "channel": 5,
      "note": 80,
      "start": 13.8435,
      "duration": 0.0125,
      "velocity": 103,
      "chip": "ym2612"
    },
    {
      "channel": 2,
      "note": 40,
      "start": 13.8454,
      "duration": 0.0122,
      "velocity": 114,
      "chip": "ym2612"
    },
    {
      "channel": 5,
      "note": 80,
      "start": 13.856,
      "duration": 0.013,
      "velocity": 103,
      "chip": "ym2612"
    },
    {
      "channel": 2,
      "note": 40,
      "start": 13.8576,
      "duration": 0.0127,
      "velocity": 114,
      "chip": "ym2612"
    },
    {
      "channel": 5,
      "note": 80,
      "start": 13.869,
      "duration": 0.012,
      "velocity": 103,
      "chip": "ym2612"
    },
    {
      "channel": 2,
      "note": 40,
      "start": 13.8703,
      "duration": 0.012,
      "velocity": 114,
      "chip": "ym2612"
    },
    {
      "channel": 5,
      "note": 80,
      "start": 13.881,
      "duration": 0.0124,
      "velocity": 103,
      "chip": "ym2612"
    },
    {
      "channel": 2,
      "note": 40,
      "start": 13.8823,
      "duration": 0.0131,
      "velocity": 114,
      "chip": "ym2612"
    },
    {
      "channel": 5,
      "note": 80,
      "start": 13.8935,
      "duration": 0.0125,
      "velocity": 103,
      "chip": "ym2612"
    },
    {
      "channel": 2,
      "note": 40,
      "start": 13.8954,
      "duration": 0.0118,
      "velocity": 114,
      "chip": "ym2612"
    },
    {
      "channel": 5,
      "note": 80,
      "start": 13.906,
      "duration": 0.0144,
      "velocity": 103,
      "chip": "ym2612"
    },
    {
      "channel": 2,
      "note": 40,
      "start": 13.9072,
      "duration": 0.0143,
      "velocity": 114,
      "chip": "ym2612"
    },
    {
      "channel": 1,
      "note": 53,
      "start": 13.9175,
      "duration": 0.0994,
      "velocity": 81,
      "chip": "ym2612"
    },
    {
      "channel": 5,
      "note": 80,
      "start": 13.9204,
      "duration": 0.0107,
      "velocity": 103,
      "chip": "ym2612"
    },
    {
      "channel": 5,
      "note": 80,
      "start": 13.9311,
      "duration": 0.0125,
      "velocity": 103,
      "chip": "ym2612"
    },
    {
      "channel": 2,
      "note": 41,
      "start": 13.9361,
      "duration": 0.1871,
      "velocity": 122,
      "chip": "ym2612"
    },
    {
      "channel": 5,
      "note": 80,
      "start": 13.9435,
      "duration": 0.0123,
      "velocity": 103,
      "chip": "ym2612"
    },
    {
      "channel": 5,
      "note": 79,
      "start": 13.9563,
      "duration": 0.2506,
      "velocity": 103,
      "chip": "ym2612"
    },
    {
      "channel": 0,
      "note": 79,
      "start": 14.067,
      "duration": 0.0126,
      "velocity": 103,
      "chip": "ym2612"
    },
    {
      "channel": 0,
      "note": 79,
      "start": 14.0795,
      "duration": 0.0125,
      "velocity": 103,
      "chip": "ym2612"
    },
    {
      "channel": 0,
      "note": 79,
      "start": 14.092,
      "duration": 0.0125,
      "velocity": 103,
      "chip": "ym2612"
    },
    {
      "channel": 0,
      "note": 79,
      "start": 14.1045,
      "duration": 0.0125,
      "velocity": 103,
      "chip": "ym2612"
    },
    {
      "channel": 0,
      "note": 79,
      "start": 14.117,
      "duration": 0.0125,
      "velocity": 103,
      "chip": "ym2612"
    },
    {
      "channel": 1,
      "note": 53,
      "start": 14.1184,
      "duration": 0.062,
      "velocity": 81,
      "chip": "ym2612"
    },
    {
      "channel": 2,
      "note": 40,
      "start": 14.126,
      "duration": 0.0063,
      "velocity": 114,
      "chip": "ym2612"
    },
    {
      "channel": 0,
      "note": 79,
      "start": 14.1295,
      "duration": 0.0125,
      "velocity": 103,
      "chip": "ym2612"
    },
    {
      "channel": 2,
      "note": 40,
      "start": 14.1323,
      "duration": 0.0131,
      "velocity": 114,
      "chip": "ym2612"
    },
    {
      "channel": 0,
      "note": 79,
      "start": 14.142,
      "duration": 0.0125,
      "velocity": 103,
      "chip": "ym2612"
    },
    {
      "channel": 2,
      "note": 40,
      "start": 14.1454,
      "duration": 0.0122,
      "velocity": 114,
      "chip": "ym2612"
    },
    {
      "channel": 0,
      "note": 79,
      "start": 14.1545,
      "duration": 0.0125,
      "velocity": 103,
      "chip": "ym2612"
    },
    {
      "channel": 2,
      "note": 40,
      "start": 14.1576,
      "duration": 0.0122,
      "velocity": 114,
      "chip": "ym2612"
    },
    {
      "channel": 0,
      "note": 79,
      "start": 14.167,
      "duration": 0.0126,
      "velocity": 103,
      "chip": "ym2612"
    },
    {
      "channel": 2,
      "note": 40,
      "start": 14.1698,
      "duration": 0.0131,
      "velocity": 114,
      "chip": "ym2612"
    },
    {
      "channel": 0,
      "note": 79,
      "start": 14.1795,
      "duration": 0.0125,
      "velocity": 103,
      "chip": "ym2612"
    },
    {
      "channel": 2,
      "note": 40,
      "start": 14.1829,
      "duration": 0.0125,
      "velocity": 114,
      "chip": "ym2612"
    },
    {
      "channel": 0,
      "note": 79,
      "start": 14.192,
      "duration": 0.0125,
      "velocity": 103,
      "chip": "ym2612"
    },
    {
      "channel": 2,
      "note": 40,
      "start": 14.1954,
      "duration": 0.0128,
      "velocity": 114,
      "chip": "ym2612"
    },
    {
      "channel": 0,
      "note": 79,
      "start": 14.2045,
      "duration": 0.0125,
      "velocity": 103,
      "chip": "ym2612"
    },
    {
      "channel": 5,
      "note": 79,
      "start": 14.2069,
      "duration": 0.0144,
      "velocity": 103,
      "chip": "ym2612"
    },
    {
      "channel": 2,
      "note": 40,
      "start": 14.2082,
      "duration": 0.0142,
      "velocity": 114,
      "chip": "ym2612"
    },
    {
      "channel": 0,
      "note": 79,
      "start": 14.217,
      "duration": 0.0126,
      "velocity": 103,
      "chip": "ym2612"
    },
    {
      "channel": 1,
      "note": 53,
      "start": 14.2184,
      "duration": 0.0995,
      "velocity": 81,
      "chip": "ym2612"
    },
    {
      "channel": 5,
      "note": 79,
      "start": 14.2213,
      "duration": 0.0106,
      "velocity": 103,
      "chip": "ym2612"
    },
    {
      "channel": 0,
      "note": 79,
      "start": 14.2295,
      "duration": 0.0125,
      "velocity": 103,
      "chip": "ym2612"
    },
    {
      "channel": 5,
      "note": 79,
      "start": 14.2319,
      "duration": 0.0131,
      "velocity": 103,
      "chip": "ym2612"
    },
    {
      "channel": 2,
      "note": 40,
      "start": 14.2341,
      "duration": 0.0122,
      "velocity": 114,
      "chip": "ym2612"
    },
    {
      "channel": 0,
      "note": 79,
      "start": 14.242,
      "duration": 0.0125,
      "velocity": 103,
      "chip": "ym2612"
    },
    {
      "channel": 5,
      "note": 79,
      "start": 14.245,
      "duration": 0.0119,
      "velocity": 103,
      "chip": "ym2612"
    },
    {
      "channel": 2,
      "note": 40,
      "start": 14.2463,
      "duration": 0.0119,
      "velocity": 114,
      "chip": "ym2612"
    },
    {
      "channel": 0,
      "note": 79,
      "start": 14.2545,
      "duration": 0.0125,
      "velocity": 103,
      "chip": "ym2612"
    },
    {
      "channel": 5,
      "note": 79,
      "start": 14.2569,
      "duration": 0.0125,
      "velocity": 103,
      "chip": "ym2612"
    },
    {
      "channel": 2,
      "note": 40,
      "start": 14.2582,
      "duration": 0.0128,
      "velocity": 114,
      "chip": "ym2612"
    },
    {
      "channel": 0,
      "note": 79,
      "start": 14.267,
      "duration": 0.0126,
      "velocity": 103,
      "chip": "ym2612"
    },
    {
      "channel": 5,
      "note": 79,
      "start": 14.2694,
      "duration": 0.0125,
      "velocity": 103,
      "chip": "ym2612"
    },
    {
      "channel": 2,
      "note": 40,
      "start": 14.271,
      "duration": 0.0122,
      "velocity": 114,
      "chip": "ym2612"
    },
    {
      "channel": 0,
      "note": 79,
      "start": 14.2795,
      "duration": 0.0125,
      "velocity": 103,
      "chip": "ym2612"
    },
    {
      "channel": 5,
      "note": 79,
      "start": 14.2819,
      "duration": 0.0131,
      "velocity": 103,
      "chip": "ym2612"
    },
    {
      "channel": 2,
      "note": 40,
      "start": 14.2832,
      "duration": 0.0131,
      "velocity": 114,
      "chip": "ym2612"
    },
    {
      "channel": 0,
      "note": 79,
      "start": 14.292,
      "duration": 0.0125,
      "velocity": 103,
      "chip": "ym2612"
    },
    {
      "channel": 5,
      "note": 79,
      "start": 14.295,
      "duration": 0.0119,
      "velocity": 103,
      "chip": "ym2612"
    },
    {
      "channel": 2,
      "note": 40,
      "start": 14.2963,
      "duration": 0.0119,
      "velocity": 114,
      "chip": "ym2612"
    },
    {
      "channel": 0,
      "note": 79,
      "start": 14.3045,
      "duration": 0.0125,
      "velocity": 103,
      "chip": "ym2612"
    },
    {
      "channel": 5,
      "note": 79,
      "start": 14.3069,
      "duration": 0.0144,
      "velocity": 103,
      "chip": "ym2612"
    },
    {
      "channel": 2,
      "note": 40,
      "start": 14.3082,
      "duration": 0.0142,
      "velocity": 114,
      "chip": "ym2612"
    },
    {
      "channel": 0,
      "note": 79,
      "start": 14.317,
      "duration": 0.0126,
      "velocity": 103,
      "chip": "ym2612"
    },
    {
      "channel": 1,
      "note": 59,
      "start": 14.3184,
      "duration": 0.0995,
      "velocity": 81,
      "chip": "ym2612"
    },
    {
      "channel": 5,
      "note": 79,
      "start": 14.3213,
      "duration": 0.0106,
      "velocity": 103,
      "chip": "ym2612"
    },
    {
      "channel": 0,
      "note": 79,
      "start": 14.3295,
      "duration": 0.0125,
      "velocity": 103,
      "chip": "ym2612"
    },
    {
      "channel": 5,
      "note": 79,
      "start": 14.3319,
      "duration": 0.0131,
      "velocity": 103,
      "chip": "ym2612"
    },
    {
      "channel": 2,
      "note": 40,
      "start": 14.3341,
      "duration": 0.0122,
      "velocity": 114,
      "chip": "ym2612"
    },
    {
      "channel": 0,
      "note": 79,
      "start": 14.342,
      "duration": 0.0125,
      "velocity": 103,
      "chip": "ym2612"
    },
    {
      "channel": 5,
      "note": 79,
      "start": 14.345,
      "duration": 0.0119,
      "velocity": 103,
      "chip": "ym2612"
    },
    {
      "channel": 2,
      "note": 40,
      "start": 14.3463,
      "duration": 0.0119,
      "velocity": 114,
      "chip": "ym2612"
    },
    {
      "channel": 0,
      "note": 79,
      "start": 14.3545,
      "duration": 0.0125,
      "velocity": 103,
      "chip": "ym2612"
    },
    {
      "channel": 5,
      "note": 79,
      "start": 14.3569,
      "duration": 0.0125,
      "velocity": 103,
      "chip": "ym2612"
    },
    {
      "channel": 2,
      "note": 40,
      "start": 14.3582,
      "duration": 0.0128,
      "velocity": 114,
      "chip": "ym2612"
    },
    {
      "channel": 0,
      "note": 79,
      "start": 14.367,
      "duration": 0.0126,
      "velocity": 103,
      "chip": "ym2612"
    },
    {
      "channel": 5,
      "note": 79,
      "start": 14.3694,
      "duration": 0.0125,
      "velocity": 103,
      "chip": "ym2612"
    },
    {
      "channel": 2,
      "note": 40,
      "start": 14.371,
      "duration": 0.0122,
      "velocity": 114,
      "chip": "ym2612"
    },
    {
      "channel": 0,
      "note": 79,
      "start": 14.3795,
      "duration": 0.0125,
      "velocity": 103,
      "chip": "ym2612"
    },
    {
      "channel": 5,
      "note": 79,
      "start": 14.3819,
      "duration": 0.0131,
      "velocity": 103,
      "chip": "ym2612"
    },
    {
      "channel": 2,
      "note": 40,
      "start": 14.3832,
      "duration": 0.0131,
      "velocity": 114,
      "chip": "ym2612"
    },
    {
      "channel": 0,
      "note": 79,
      "start": 14.392,
      "duration": 0.0125,
      "velocity": 103,
      "chip": "ym2612"
    },
    {
      "channel": 5,
      "note": 79,
      "start": 14.395,
      "duration": 0.0119,
      "velocity": 103,
      "chip": "ym2612"
    },
    {
      "channel": 2,
      "note": 40,
      "start": 14.3963,
      "duration": 0.0119,
      "velocity": 114,
      "chip": "ym2612"
    },
    {
      "channel": 0,
      "note": 79,
      "start": 14.4045,
      "duration": 0.0125,
      "velocity": 103,
      "chip": "ym2612"
    },
    {
      "channel": 5,
      "note": 79,
      "start": 14.4069,
      "duration": 0.0144,
      "velocity": 103,
      "chip": "ym2612"
    },
    {
      "channel": 2,
      "note": 40,
      "start": 14.4082,
      "duration": 0.0142,
      "velocity": 114,
      "chip": "ym2612"
    },
    {
      "channel": 0,
      "note": 79,
      "start": 14.417,
      "duration": 0.0126,
      "velocity": 103,
      "chip": "ym2612"
    },
    {
      "channel": 1,
      "note": 65,
      "start": 14.4184,
      "duration": 0.0995,
      "velocity": 81,
      "chip": "ym2612"
    },
    {
      "channel": 5,
      "note": 79,
      "start": 14.4213,
      "duration": 0.0107,
      "velocity": 103,
      "chip": "ym2612"
    },
    {
      "channel": 0,
      "note": 79,
      "start": 14.4295,
      "duration": 0.0125,
      "velocity": 103,
      "chip": "ym2612"
    },
    {
      "channel": 5,
      "note": 79,
      "start": 14.432,
      "duration": 0.013,
      "velocity": 103,
      "chip": "ym2612"
    },
    {
      "channel": 2,
      "note": 40,
      "start": 14.4342,
      "duration": 0.0121,
      "velocity": 114,
      "chip": "ym2612"
    },
    {
      "channel": 0,
      "note": 79,
      "start": 14.442,
      "duration": 0.0125,
      "velocity": 103,
      "chip": "ym2612"
    },
    {
      "channel": 5,
      "note": 79,
      "start": 14.445,
      "duration": 0.0119,
      "velocity": 103,
      "chip": "ym2612"
    },
    {
      "channel": 2,
      "note": 40,
      "start": 14.4463,
      "duration": 0.0119,
      "velocity": 114,
      "chip": "ym2612"
    },
    {
      "channel": 0,
      "note": 79,
      "start": 14.4545,
      "duration": 0.0125,
      "velocity": 103,
      "chip": "ym2612"
    },
    {
      "channel": 5,
      "note": 79,
      "start": 14.4569,
      "duration": 0.0125,
      "velocity": 103,
      "chip": "ym2612"
    },
    {
      "channel": 2,
      "note": 40,
      "start": 14.4582,
      "duration": 0.0128,
      "velocity": 114,
      "chip": "ym2612"
    },
    {
      "channel": 0,
      "note": 79,
      "start": 14.467,
      "duration": 0.0126,
      "velocity": 103,
      "chip": "ym2612"
    },
    {
      "channel": 5,
      "note": 79,
      "start": 14.4694,
      "duration": 0.0125,
      "velocity": 103,
      "chip": "ym2612"
    },
    {
      "channel": 2,
      "note": 40,
      "start": 14.471,
      "duration": 0.0122,
      "velocity": 114,
      "chip": "ym2612"
    },
    {
      "channel": 0,
      "note": 79,
      "start": 14.4795,
      "duration": 0.0125,
      "velocity": 103,
      "chip": "ym2612"
    },
    {
      "channel": 5,
      "note": 79,
      "start": 14.4819,
      "duration": 0.0131,
      "velocity": 103,
      "chip": "ym2612"
    },
    {
      "channel": 2,
      "note": 40,
      "start": 14.4832,
      "duration": 0.0131,
      "velocity": 114,
      "chip": "ym2612"
    },
    {
      "channel": 0,
      "note": 79,
      "start": 14.492,
      "duration": 0.0125,
      "velocity": 103,
      "chip": "ym2612"
    },
    {
      "channel": 5,
      "note": 79,
      "start": 14.495,
      "duration": 0.0119,
      "velocity": 103,
      "chip": "ym2612"
    },
    {
      "channel": 2,
      "note": 40,
      "start": 14.4963,
      "duration": 0.0119,
      "velocity": 114,
      "chip": "ym2612"
    },
    {
      "channel": 0,
      "note": 79,
      "start": 14.5045,
      "duration": 0.0125,
      "velocity": 103,
      "chip": "ym2612"
    },
    {
      "channel": 5,
      "note": 79,
      "start": 14.5069,
      "duration": 0.0144,
      "velocity": 103,
      "chip": "ym2612"
    },
    {
      "channel": 2,
      "note": 40,
      "start": 14.5082,
      "duration": 0.0142,
      "velocity": 114,
      "chip": "ym2612"
    },
    {
      "channel": 0,
      "note": 79,
      "start": 14.517,
      "duration": 0.0126,
      "velocity": 103,
      "chip": "ym2612"
    },
    {
      "channel": 1,
      "note": 59,
      "start": 14.5184,
      "duration": 0.1128,
      "velocity": 81,
      "chip": "ym2612"
    },
    {
      "channel": 5,
      "note": 79,
      "start": 14.5213,
      "duration": 0.0106,
      "velocity": 103,
      "chip": "ym2612"
    },
    {
      "channel": 0,
      "note": 79,
      "start": 14.5295,
      "duration": 0.0125,
      "velocity": 103,
      "chip": "ym2612"
    },
    {
      "channel": 5,
      "note": 79,
      "start": 14.5319,
      "duration": 0.0131,
      "velocity": 103,
      "chip": "ym2612"
    },
    {
      "channel": 2,
      "note": 40,
      "start": 14.5341,
      "duration": 0.0122,
      "velocity": 114,
      "chip": "ym2612"
    },
    {
      "channel": 0,
      "note": 79,
      "start": 14.542,
      "duration": 0.0125,
      "velocity": 103,
      "chip": "ym2612"
    },
    {
      "channel": 5,
      "note": 79,
      "start": 14.545,
      "duration": 0.0119,
      "velocity": 103,
      "chip": "ym2612"
    },
    {
      "channel": 2,
      "note": 40,
      "start": 14.5463,
      "duration": 0.0119,
      "velocity": 114,
      "chip": "ym2612"
    },
    {
      "channel": 0,
      "note": 79,
      "start": 14.5545,
      "duration": 0.0125,
      "velocity": 103,
      "chip": "ym2612"
    },
    {
      "channel": 5,
      "note": 79,
      "start": 14.5569,
      "duration": 0.0125,
      "velocity": 103,
      "chip": "ym2612"
    },
    {
      "channel": 2,
      "note": 40,
      "start": 14.5582,
      "duration": 0.0128,
      "velocity": 114,
      "chip": "ym2612"
    },
    {
      "channel": 0,
      "note": 79,
      "start": 14.567,
      "duration": 0.0126,
      "velocity": 103,
      "chip": "ym2612"
    },
    {
      "channel": 5,
      "note": 79,
      "start": 14.5694,
      "duration": 0.0125,
      "velocity": 103,
      "chip": "ym2612"
    },
    {
      "channel": 2,
      "note": 40,
      "start": 14.571,
      "duration": 0.0122,
      "velocity": 114,
      "chip": "ym2612"
    },
    {
      "channel": 0,
      "note": 79,
      "start": 14.5795,
      "duration": 0.0125,
      "velocity": 103,
      "chip": "ym2612"
    },
    {
      "channel": 5,
      "note": 79,
      "start": 14.5819,
      "duration": 0.0131,
      "velocity": 103,
      "chip": "ym2612"
    },
    {
      "channel": 2,
      "note": 40,
      "start": 14.5832,
      "duration": 0.0131,
      "velocity": 114,
      "chip": "ym2612"
    },
    {
      "channel": 0,
      "note": 79,
      "start": 14.592,
      "duration": 0.0125,
      "velocity": 103,
      "chip": "ym2612"
    },
    {
      "channel": 5,
      "note": 79,
      "start": 14.595,
      "duration": 0.0119,
      "velocity": 103,
      "chip": "ym2612"
    },
    {
      "channel": 2,
      "note": 40,
      "start": 14.5963,
      "duration": 0.0119,
      "velocity": 114,
      "chip": "ym2612"
    },
    {
      "channel": 0,
      "note": 79,
      "start": 14.6045,
      "duration": 0.0125,
      "velocity": 103,
      "chip": "ym2612"
    },
    {
      "channel": 5,
      "note": 79,
      "start": 14.6069,
      "duration": 0.0125,
      "velocity": 103,
      "chip": "ym2612"
    },
    {
      "channel": 2,
      "note": 40,
      "start": 14.6082,
      "duration": 0.0124,
      "velocity": 114,
      "chip": "ym2612"
    },
    {
      "channel": 0,
      "note": 79,
      "start": 14.617,
      "duration": 0.0124,
      "velocity": 103,
      "chip": "ym2612"
    },
    {
      "channel": 5,
      "note": 79,
      "start": 14.6194,
      "duration": 0.0166,
      "velocity": 103,
      "chip": "ym2612"
    },
    {
      "channel": 2,
      "note": 40,
      "start": 14.6206,
      "duration": 0.0164,
      "velocity": 114,
      "chip": "ym2612"
    },
    {
      "channel": 0,
      "note": 78,
      "start": 14.6299,
      "duration": 0.2497,
      "velocity": 103,
      "chip": "ym2612"
    },
    {
      "channel": 1,
      "note": 53,
      "start": 14.6317,
      "duration": 0.0478,
      "velocity": 81,
      "chip": "ym2612"
    },
    {
      "channel": 5,
      "note": 79,
      "start": 14.6359,
      "duration": 0.0076,
      "velocity": 103,
      "chip": "ym2612"
    },
    {
      "channel": 5,
      "note": 79,
      "start": 14.6435,
      "duration": 0.0125,
      "velocity": 103,
      "chip": "ym2612"
    },
    {
      "channel": 2,
      "note": 40,
      "start": 14.6463,
      "duration": 0.0109,
      "velocity": 114,
      "chip": "ym2612"
    },
    {
      "channel": 5,
      "note": 79,
      "start": 14.656,
      "duration": 0.0125,
      "velocity": 103,
      "chip": "ym2612"
    },
    {
      "channel": 2,
      "note": 40,
      "start": 14.6573,
      "duration": 0.0125,
      "velocity": 114,
      "chip": "ym2612"
    },
    {
      "channel": 5,
      "note": 79,
      "start": 14.6685,
      "duration": 0.0131,
      "velocity": 103,
      "chip": "ym2612"
    },
    {
      "channel": 2,
      "note": 40,
      "start": 14.6698,
      "duration": 0.0135,
      "velocity": 114,
      "chip": "ym2612"
    },
    {
      "channel": 5,
      "note": 79,
      "start": 14.6816,
      "duration": 0.0119,
      "velocity": 103,
      "chip": "ym2612"
    },
    {
      "channel": 2,
      "note": 40,
      "start": 14.6832,
      "duration": 0.0122,
      "velocity": 114,
      "chip": "ym2612"
    },
    {
      "channel": 5,
      "note": 79,
      "start": 14.6935,
      "duration": 0.0125,
      "velocity": 103,
      "chip": "ym2612"
    },
    {
      "channel": 2,
      "note": 40,
      "start": 14.6954,
      "duration": 0.0119,
      "velocity": 114,
      "chip": "ym2612"
    },
    {
      "channel": 5,
      "note": 79,
      "start": 14.706,
      "duration": 0.0125,
      "velocity": 103,
      "chip": "ym2612"
    },
    {
      "channel": 2,
      "note": 40,
      "start": 14.7073,
      "duration": 0.0125,
      "velocity": 114,
      "chip": "ym2612"
    },
    {
      "channel": 5,
      "note": 79,
      "start": 14.7185,
      "duration": 0.0145,
      "velocity": 103,
      "chip": "ym2612"
    },
    {
      "channel": 2,
      "note": 40,
      "start": 14.7198,
      "duration": 0.0143,
      "velocity": 114,
      "chip": "ym2612"
    },
    {
      "channel": 1,
      "note": 53,
      "start": 14.7301,
      "duration": 0.0994,
      "velocity": 81,
      "chip": "ym2612"
    },
    {
      "channel": 5,
      "note": 79,
      "start": 14.733,
      "duration": 0.0105,
      "velocity": 103,
      "chip": "ym2612"
    },
    {
      "channel": 5,
      "note": 79,
      "start": 14.7435,
      "duration": 0.0125,
      "velocity": 103,
      "chip": "ym2612"
    },
    {
      "channel": 2,
      "note": 40,
      "start": 14.7463,
      "duration": 0.0109,
      "velocity": 114,
      "chip": "ym2612"
    },
    {
      "channel": 5,
      "note": 79,
      "start": 14.756,
      "duration": 0.0123,
      "velocity": 103,
      "chip": "ym2612"
    },
    {
      "channel": 2,
      "note": 40,
      "start": 14.7573,
      "duration": 0.0128,
      "velocity": 114,
      "chip": "ym2612"
    },
    {
      "channel": 5,
      "note": 78,
      "start": 14.7688,
      "duration": 0.2506,
      "velocity": 103,
      "chip": "ym2612"
    },
    {
      "channel": 2,
      "note": 40,
      "start": 14.7701,
      "duration": 0.0117,
      "velocity": 114,
      "chip": "ym2612"
    },
    {
      "channel": 2,
      "note": 40,
      "start": 14.7818,
      "duration": 0.0125,
      "velocity": 114,
      "chip": "ym2612"
    },
    {
      "channel": 2,
      "note": 40,
      "start": 14.7942,
      "duration": 0.0121,
      "velocity": 114,
      "chip": "ym2612"
    },
    {
      "channel": 2,
      "note": 40,
      "start": 14.8063,
      "duration": 0.0125,
      "velocity": 114,
      "chip": "ym2612"
    },
    {
      "channel": 2,
      "note": 40,
      "start": 14.8189,
      "duration": 0.0131,
      "velocity": 114,
      "chip": "ym2612"
    },
    {
      "channel": 2,
      "note": 40,
      "start": 14.832,
      "duration": 0.0123,
      "velocity": 114,
      "chip": "ym2612"
    },
    {
      "channel": 2,
      "note": 40,
      "start": 14.8442,
      "duration": 0.0121,
      "velocity": 114,
      "chip": "ym2612"
    },
    {
      "channel": 2,
      "note": 40,
      "start": 14.8563,
      "duration": 0.0125,
      "velocity": 114,
      "chip": "ym2612"
    },
    {
      "channel": 2,
      "note": 39,
      "start": 14.8689,
      "duration": 0.0134,
      "velocity": 114,
      "chip": "ym2612"
    },
    {
      "channel": 0,
      "note": 78,
      "start": 14.8795,
      "duration": 0.0125,
      "velocity": 103,
      "chip": "ym2612"
    },
    {
      "channel": 0,
      "note": 78,
      "start": 14.892,
      "duration": 0.0125,
      "velocity": 103,
      "chip": "ym2612"
    },
    {
      "channel": 0,
      "note": 78,
      "start": 14.9045,
      "duration": 0.0125,
      "velocity": 103,
      "chip": "ym2612"
    },
    {
      "channel": 0,
      "note": 78,
      "start": 14.917,
      "duration": 0.0126,
      "velocity": 103,
      "chip": "ym2612"
    },
    {
      "channel": 0,
      "note": 78,
      "start": 14.9295,
      "duration": 0.0125,
      "velocity": 103,
      "chip": "ym2612"
    },
    {
      "channel": 1,
      "note": 53,
      "start": 14.931,
      "duration": 0.0619,
      "velocity": 81,
      "chip": "ym2612"
    },
    {
      "channel": 2,
      "note": 40,
      "start": 14.9356,
      "duration": 0.0098,
      "velocity": 114,
      "chip": "ym2612"
    },
    {
      "channel": 0,
      "note": 78,
      "start": 14.942,
      "duration": 0.0125,
      "velocity": 103,
      "chip": "ym2612"
    },
    {
      "channel": 2,
      "note": 40,
      "start": 14.9454,
      "duration": 0.0119,
      "velocity": 114,
      "chip": "ym2612"
    },
    {
      "channel": 0,
      "note": 78,
      "start": 14.9545,
      "duration": 0.0125,
      "velocity": 103,
      "chip": "ym2612"
    },
    {
      "channel": 2,
      "note": 40,
      "start": 14.9573,
      "duration": 0.0129,
      "velocity": 114,
      "chip": "ym2612"
    },
    {
      "channel": 0,
      "note": 78,
      "start": 14.967,
      "duration": 0.0126,
      "velocity": 103,
      "chip": "ym2612"
    },
    {
      "channel": 2,
      "note": 40,
      "start": 14.9701,
      "duration": 0.0122,
      "velocity": 114,
      "chip": "ym2612"
    },
    {
      "channel": 0,
      "note": 78,
      "start": 14.9795,
      "duration": 0.0125,
      "velocity": 103,
      "chip": "ym2612"
    },
    {
      "channel": 2,
      "note": 40,
      "start": 14.9823,
      "duration": 0.0136,
      "velocity": 114,
      "chip": "ym2612"
    },
    {
      "channel": 0,
      "note": 78,
      "start": 14.992,
      "duration": 0.0125,
      "velocity": 103,
      "chip": "ym2612"
    },
    {
      "channel": 2,
      "note": 40,
      "start": 14.9959,
      "duration": 0.0114,
      "velocity": 114,
      "chip": "ym2612"
    },
    {
      "channel": 0,
      "note": 78,
      "start": 15.0045,
      "duration": 0.0125,
      "velocity": 103,
      "chip": "ym2612"
    },
    {
      "channel": 2,
      "note": 40,
      "start": 15.0073,
      "duration": 0.0134,
      "velocity": 114,
      "chip": "ym2612"
    },
    {
      "channel": 0,
      "note": 78,
      "start": 15.017,
      "duration": 0.0126,
      "velocity": 103,
      "chip": "ym2612"
    },
    {
      "channel": 5,
      "note": 78,
      "start": 15.0194,
      "duration": 0.0145,
      "velocity": 103,
      "chip": "ym2612"
    },
    {
      "channel": 2,
      "note": 40,
      "start": 15.0206,
      "duration": 0.0144,
      "velocity": 114,
      "chip": "ym2612"
    },
    {
      "channel": 0,
      "note": 78,
      "start": 15.0295,
      "duration": 0.0125,
      "velocity": 103,
      "chip": "ym2612"
    },
    {
      "channel": 1,
      "note": 53,
      "start": 15.031,
      "duration": 0.0994,
      "velocity": 81,
      "chip": "ym2612"
    },
    {
      "channel": 5,
      "note": 78,
      "start": 15.0339,
      "duration": 0.0111,
      "velocity": 103,
      "chip": "ym2612"
    },
    {
      "channel": 0,
      "note": 78,
      "start": 15.042,
      "duration": 0.0125,
      "velocity": 103,
      "chip": "ym2612"
    },
    {
      "channel": 5,
      "note": 78,
      "start": 15.045,
      "duration": 0.0119,
      "velocity": 103,
      "chip": "ym2612"
    },
    {
      "channel": 2,
      "note": 41,
      "start": 15.05,
      "duration": 0.1866,
      "velocity": 122,
      "chip": "ym2612"
    },
    {
      "channel": 0,
      "note": 78,
      "start": 15.0545,
      "duration": 0.0125,
      "velocity": 103,
      "chip": "ym2612"
    },
    {
      "channel": 5,
      "note": 78,
      "start": 15.0569,
      "duration": 0.0125,
      "velocity": 103,
      "chip": "ym2612"
    },
    {
      "channel": 0,
      "note": 78,
      "start": 15.067,
      "duration": 0.0125,
      "velocity": 103,
      "chip": "ym2612"
    },
    {
      "channel": 5,
      "note": 78,
      "start": 15.0694,
      "duration": 0.0126,
      "velocity": 103,
      "chip": "ym2612"
    },
    {
      "channel": 0,
      "note": 78,
      "start": 15.0795,
      "duration": 0.0125,
      "velocity": 103,
      "chip": "ym2612"
    },
    {
      "channel": 5,
      "note": 78,
      "start": 15.082,
      "duration": 0.013,
      "velocity": 103,
      "chip": "ym2612"
    },
    {
      "channel": 0,
      "note": 78,
      "start": 15.092,
      "duration": 0.0125,
      "velocity": 103,
      "chip": "ym2612"
    },
    {
      "channel": 5,
      "note": 78,
      "start": 15.095,
      "duration": 0.0119,
      "velocity": 103,
      "chip": "ym2612"
    },
    {
      "channel": 0,
      "note": 78,
      "start": 15.1045,
      "duration": 0.0125,
      "velocity": 103,
      "chip": "ym2612"
    },
    {
      "channel": 5,
      "note": 78,
      "start": 15.1069,
      "duration": 0.0125,
      "velocity": 103,
      "chip": "ym2612"
    },
    {
      "channel": 0,
      "note": 78,
      "start": 15.117,
      "duration": 0.0126,
      "velocity": 103,
      "chip": "ym2612"
    },
    {
      "channel": 5,
      "note": 78,
      "start": 15.1194,
      "duration": 0.0131,
      "velocity": 103,
      "chip": "ym2612"
    },
    {
      "channel": 0,
      "note": 78,
      "start": 15.1295,
      "duration": 0.0125,
      "velocity": 103,
      "chip": "ym2612"
    },
    {
      "channel": 5,
      "note": 78,
      "start": 15.1325,
      "duration": 0.0125,
      "velocity": 103,
      "chip": "ym2612"
    },
    {
      "channel": 0,
      "note": 78,
      "start": 15.142,
      "duration": 0.0125,
      "velocity": 103,
      "chip": "ym2612"
    },
    {
      "channel": 5,
      "note": 78,
      "start": 15.145,
      "duration": 0.0119,
      "velocity": 103,
      "chip": "ym2612"
    },
    {
      "channel": 0,
      "note": 78,
      "start": 15.1545,
      "duration": 0.0125,
      "velocity": 103,
      "chip": "ym2612"
    },
    {
      "channel": 5,
      "note": 78,
      "start": 15.1569,
      "duration": 0.0125,
      "velocity": 103,
      "chip": "ym2612"
    },
    {
      "channel": 0,
      "note": 78,
      "start": 15.167,
      "duration": 0.0126,
      "velocity": 103,
      "chip": "ym2612"
    },
    {
      "channel": 5,
      "note": 78,
      "start": 15.1694,
      "duration": 0.0125,
      "velocity": 103,
      "chip": "ym2612"
    },
    {
      "channel": 0,
      "note": 78,
      "start": 15.1795,
      "duration": 0.0125,
      "velocity": 103,
      "chip": "ym2612"
    },
    {
      "channel": 5,
      "note": 78,
      "start": 15.1819,
      "duration": 0.0131,
      "velocity": 103,
      "chip": "ym2612"
    },
    {
      "channel": 0,
      "note": 78,
      "start": 15.192,
      "duration": 0.0125,
      "velocity": 103,
      "chip": "ym2612"
    },
    {
      "channel": 5,
      "note": 78,
      "start": 15.195,
      "duration": 0.0119,
      "velocity": 103,
      "chip": "ym2612"
    },
    {
      "channel": 0,
      "note": 78,
      "start": 15.2045,
      "duration": 0.0125,
      "velocity": 103,
      "chip": "ym2612"
    },
    {
      "channel": 5,
      "note": 78,
      "start": 15.2069,
      "duration": 0.0125,
      "velocity": 103,
      "chip": "ym2612"
    },
    {
      "channel": 0,
      "note": 78,
      "start": 15.217,
      "duration": 0.0126,
      "velocity": 103,
      "chip": "ym2612"
    },
    {
      "channel": 5,
      "note": 78,
      "start": 15.2194,
      "duration": 0.0145,
      "velocity": 103,
      "chip": "ym2612"
    },
    {
      "channel": 0,
      "note": 78,
      "start": 15.2295,
      "duration": 0.0125,
      "velocity": 103,
      "chip": "ym2612"
    },
    {
      "channel": 1,
      "note": 53,
      "start": 15.231,
      "duration": 0.0619,
      "velocity": 81,
      "chip": "ym2612"
    },
    {
      "channel": 5,
      "note": 78,
      "start": 15.2339,
      "duration": 0.0111,
      "velocity": 103,
      "chip": "ym2612"
    },
    {
      "channel": 2,
      "note": 40,
      "start": 15.2394,
      "duration": 0.0069,
      "velocity": 114,
      "chip": "ym2612"
    },
    {
      "channel": 0,
      "note": 78,
      "start": 15.242,
      "duration": 0.0125,
      "velocity": 103,
      "chip": "ym2612"
    },
    {
      "channel": 5,
      "note": 78,
      "start": 15.245,
      "duration": 0.0119,
      "velocity": 103,
      "chip": "ym2612"
    },
    {
      "channel": 2,
      "note": 40,
      "start": 15.2463,
      "duration": 0.0119,
      "velocity": 114,
      "chip": "ym2612"
    },
    {
      "channel": 0,
      "note": 78,
      "start": 15.2545,
      "duration": 0.0125,
      "velocity": 103,
      "chip": "ym2612"
    },
    {
      "channel": 5,
      "note": 78,
      "start": 15.2569,
      "duration": 0.0125,
      "velocity": 103,
      "chip": "ym2612"
    },
    {
      "channel": 2,
      "note": 40,
      "start": 15.2582,
      "duration": 0.0128,
      "velocity": 114,
      "chip": "ym2612"
    },
    {
      "channel": 0,
      "note": 78,
      "start": 15.267,
      "duration": 0.0126,
      "velocity": 103,
      "chip": "ym2612"
    },
    {
      "channel": 5,
      "note": 78,
      "start": 15.2694,
      "duration": 0.0125,
      "velocity": 103,
      "chip": "ym2612"
    },
    {
      "channel": 2,
      "note": 40,
      "start": 15.271,
      "duration": 0.0122,
      "velocity": 114,
      "chip": "ym2612"
    },
    {
      "channel": 0,
      "note": 78,
      "start": 15.2795,
      "duration": 0.0125,
      "velocity": 103,
      "chip": "ym2612"
    },
    {
      "channel": 5,
      "note": 78,
      "start": 15.2819,
      "duration": 0.0137,
      "velocity": 103,
      "chip": "ym2612"
    },
    {
      "channel": 2,
      "note": 40,
      "start": 15.2832,
      "duration": 0.0137,
      "velocity": 114,
      "chip": "ym2612"
    },
    {
      "channel": 0,
      "note": 78,
      "start": 15.292,
      "duration": 0.0125,
      "velocity": 103,
      "chip": "ym2612"
    },
    {
      "channel": 5,
      "note": 78,
      "start": 15.2956,
      "duration": 0.0113,
      "velocity": 103,
      "chip": "ym2612"
    },
    {
      "channel": 2,
      "note": 40,
      "start": 15.2968,
      "duration": 0.0113,
      "velocity": 114,
      "chip": "ym2612"
    },
    {
      "channel": 0,
      "note": 78,
      "start": 15.3045,
      "duration": 0.0125,
      "velocity": 103,
      "chip": "ym2612"
    },
    {
      "channel": 5,
      "note": 78,
      "start": 15.3069,
      "duration": 0.0125,
      "velocity": 103,
      "chip": "ym2612"
    },
    {
      "channel": 2,
      "note": 40,
      "start": 15.3082,
      "duration": 0.0124,
      "velocity": 114,
      "chip": "ym2612"
    },
    {
      "channel": 0,
      "note": 78,
      "start": 15.317,
      "duration": 0.0126,
      "velocity": 103,
      "chip": "ym2612"
    },
    {
      "channel": 5,
      "note": 78,
      "start": 15.3194,
      "duration": 0.0145,
      "velocity": 103,
      "chip": "ym2612"
    },
    {
      "channel": 2,
      "note": 40,
      "start": 15.3206,
      "duration": 0.0144,
      "velocity": 114,
      "chip": "ym2612"
    },
    {
      "channel": 0,
      "note": 78,
      "start": 15.3295,
      "duration": 0.0125,
      "velocity": 103,
      "chip": "ym2612"
    },
    {
      "channel": 1,
      "note": 53,
      "start": 15.331,
      "duration": 0.1119,
      "velocity": 81,
      "chip": "ym2612"
    },
    {
      "channel": 5,
      "note": 78,
      "start": 15.3339,
      "duration": 0.0111,
      "velocity": 103,
      "chip": "ym2612"
    },
    {
      "channel": 0,
      "note": 78,
      "start": 15.342,
      "duration": 0.0125,
      "velocity": 103,
      "chip": "ym2612"
    },
    {
      "channel": 5,
      "note": 78,
      "start": 15.345,
      "duration": 0.0119,
      "velocity": 103,
      "chip": "ym2612"
    },
    {
      "channel": 2,
      "note": 40,
      "start": 15.3472,
      "duration": 0.011,
      "velocity": 114,
      "chip": "ym2612"
    },
    {
      "channel": 0,
      "note": 78,
      "start": 15.3545,
      "duration": 0.0125,
      "velocity": 103,
      "chip": "ym2612"
    },
    {
      "channel": 5,
      "note": 78,
      "start": 15.3569,
      "duration": 0.0125,
      "velocity": 103,
      "chip": "ym2612"
    },
    {
      "channel": 2,
      "note": 40,
      "start": 15.3582,
      "duration": 0.0124,
      "velocity": 114,
      "chip": "ym2612"
    },
    {
      "channel": 0,
      "note": 78,
      "start": 15.367,
      "duration": 0.0126,
      "velocity": 103,
      "chip": "ym2612"
    },
    {
      "channel": 5,
      "note": 78,
      "start": 15.3694,
      "duration": 0.0125,
      "velocity": 103,
      "chip": "ym2612"
    },
    {
      "channel": 2,
      "note": 40,
      "start": 15.3706,
      "duration": 0.0129,
      "velocity": 114,
      "chip": "ym2612"
    },
    {
      "channel": 0,
      "note": 78,
      "start": 15.3795,
      "duration": 0.0125,
      "velocity": 103,
      "chip": "ym2612"
    },
    {
      "channel": 5,
      "note": 78,
      "start": 15.3819,
      "duration": 0.0131,
      "velocity": 103,
      "chip": "ym2612"
    },
    {
      "channel": 2,
      "note": 40,
      "start": 15.3836,
      "duration": 0.0127,
      "velocity": 114,
      "chip": "ym2612"
    },
    {
      "channel": 0,
      "note": 78,
      "start": 15.392,
      "duration": 0.0125,
      "velocity": 103,
      "chip": "ym2612"
    },
    {
      "channel": 5,
      "note": 78,
      "start": 15.395,
      "duration": 0.0119,
      "velocity": 103,
      "chip": "ym2612"
    },
    {
      "channel": 2,
      "note": 40,
      "start": 15.3963,
      "duration": 0.0119,
      "velocity": 114,
      "chip": "ym2612"
    },
    {
      "channel": 0,
      "note": 78,
      "start": 15.4045,
      "duration": 0.0125,
      "velocity": 103,
      "chip": "ym2612"
    },
    {
      "channel": 5,
      "note": 78,
      "start": 15.4069,
      "duration": 0.0125,
      "velocity": 103,
      "chip": "ym2612"
    },
    {
      "channel": 2,
      "note": 40,
      "start": 15.4082,
      "duration": 0.0124,
      "velocity": 114,
      "chip": "ym2612"
    },
    {
      "channel": 0,
      "note": 78,
      "start": 15.417,
      "duration": 0.0126,
      "velocity": 103,
      "chip": "ym2612"
    },
    {
      "channel": 5,
      "note": 78,
      "start": 15.4194,
      "duration": 0.0125,
      "velocity": 103,
      "chip": "ym2612"
    },
    {
      "channel": 2,
      "note": 40,
      "start": 15.4206,
      "duration": 0.0125,
      "velocity": 114,
      "chip": "ym2612"
    },
    {
      "channel": 0,
      "note": 78,
      "start": 15.4295,
      "duration": 0.0125,
      "velocity": 103,
      "chip": "ym2612"
    },
    {
      "channel": 5,
      "note": 78,
      "start": 15.4319,
      "duration": 0.0137,
      "velocity": 103,
      "chip": "ym2612"
    },
    {
      "channel": 2,
      "note": 40,
      "start": 15.4332,
      "duration": 0.0136,
      "velocity": 114,
      "chip": "ym2612"
    },
    {
      "channel": 0,
      "note": 78,
      "start": 15.442,
      "duration": 0.0125,
      "velocity": 103,
      "chip": "ym2612"
    },
    {
      "channel": 5,
      "note": 78,
      "start": 15.4456,
      "duration": 0.0113,
      "velocity": 103,
      "chip": "ym2612"
    },
    {
      "channel": 2,
      "note": 40,
      "start": 15.4468,
      "duration": 0.0114,
      "velocity": 114,
      "chip": "ym2612"
    },
    {
      "channel": 0,
      "note": 78,
      "start": 15.4545,
      "duration": 0.0125,
      "velocity": 103,
      "chip": "ym2612"
    },
    {
      "channel": 5,
      "note": 78,
      "start": 15.4569,
      "duration": 0.0125,
      "velocity": 103,
      "chip": "ym2612"
    },
    {
      "channel": 2,
      "note": 40,
      "start": 15.4582,
      "duration": 0.0125,
      "velocity": 114,
      "chip": "ym2612"
    },
    {
      "channel": 0,
      "note": 78,
      "start": 15.467,
      "duration": 0.0125,
      "velocity": 103,
      "chip": "ym2612"
    },
    {
      "channel": 5,
      "note": 78,
      "start": 15.4694,
      "duration": 0.0125,
      "velocity": 103,
      "chip": "ym2612"
    },
    {
      "channel": 2,
      "note": 39,
      "start": 15.4707,
      "duration": 0.0124,
      "velocity": 114,
      "chip": "ym2612"
    },
    {
      "channel": 0,
      "note": 78,
      "start": 15.4795,
      "duration": 0.0125,
      "velocity": 103,
      "chip": "ym2612"
    },
    {
      "channel": 5,
      "note": 78,
      "start": 15.482,
      "duration": 0.013,
      "velocity": 103,
      "chip": "ym2612"
    },
    {
      "channel": 0,
      "note": 78,
      "start": 15.492,
      "duration": 0.0125,
      "velocity": 103,
      "chip": "ym2612"
    },
    {
      "channel": 5,
      "note": 78,
      "start": 15.495,
      "duration": 0.0119,
      "velocity": 103,
      "chip": "ym2612"
    },
    {
      "channel": 0,
      "note": 78,
      "start": 15.5045,
      "duration": 0.0125,
      "velocity": 103,
      "chip": "ym2612"
    },
    {
      "channel": 5,
      "note": 78,
      "start": 15.5069,
      "duration": 0.0125,
      "velocity": 103,
      "chip": "ym2612"
    },
    {
      "channel": 0,
      "note": 78,
      "start": 15.517,
      "duration": 0.0126,
      "velocity": 103,
      "chip": "ym2612"
    },
    {
      "channel": 5,
      "note": 78,
      "start": 15.5194,
      "duration": 0.0125,
      "velocity": 103,
      "chip": "ym2612"
    },
    {
      "channel": 0,
      "note": 78,
      "start": 15.5295,
      "duration": 0.0125,
      "velocity": 103,
      "chip": "ym2612"
    },
    {
      "channel": 5,
      "note": 78,
      "start": 15.5319,
      "duration": 0.015,
      "velocity": 103,
      "chip": "ym2612"
    },
    {
      "channel": 0,
      "note": 78,
      "start": 15.542,
      "duration": 0.0125,
      "velocity": 103,
      "chip": "ym2612"
    },
    {
      "channel": 1,
      "note": 53,
      "start": 15.5434,
      "duration": 0.062,
      "velocity": 81,
      "chip": "ym2612"
    },
    {
      "channel": 5,
      "note": 78,
      "start": 15.5469,
      "duration": 0.01,
      "velocity": 103,
      "chip": "ym2612"
    },
    {
      "channel": 2,
      "note": 40,
      "start": 15.5496,
      "duration": 0.0086,
      "velocity": 114,
      "chip": "ym2612"
    },
    {
      "channel": 0,
      "note": 78,
      "start": 15.5545,
      "duration": 0.0125,
      "velocity": 103,
      "chip": "ym2612"
    },
    {
      "channel": 5,
      "note": 78,
      "start": 15.5569,
      "duration": 0.0125,
      "velocity": 103,
      "chip": "ym2612"
    },
    {
      "channel": 2,
      "note": 40,
      "start": 15.5582,
      "duration": 0.0124,
      "velocity": 114,
      "chip": "ym2612"
    },
    {
      "channel": 0,
      "note": 78,
      "start": 15.567,
      "duration": 0.0126,
      "velocity": 103,
      "chip": "ym2612"
    },
    {
      "channel": 5,
      "note": 78,
      "start": 15.5694,
      "duration": 0.0125,
      "velocity": 103,
      "chip": "ym2612"
    },
    {
      "channel": 2,
      "note": 40,
      "start": 15.5706,
      "duration": 0.0129,
      "velocity": 114,
      "chip": "ym2612"
    },
    {
      "channel": 0,
      "note": 78,
      "start": 15.5795,
      "duration": 0.0125,
      "velocity": 103,
      "chip": "ym2612"
    },
    {
      "channel": 5,
      "note": 78,
      "start": 15.5819,
      "duration": 0.0131,
      "velocity": 103,
      "chip": "ym2612"
    },
    {
      "channel": 2,
      "note": 40,
      "start": 15.5836,
      "duration": 0.0127,
      "velocity": 114,
      "chip": "ym2612"
    },
    {
      "channel": 0,
      "note": 78,
      "start": 15.592,
      "duration": 0.0125,
      "velocity": 103,
      "chip": "ym2612"
    },
    {
      "channel": 5,
      "note": 78,
      "start": 15.595,
      "duration": 0.0125,
      "velocity": 103,
      "chip": "ym2612"
    },
    {
      "channel": 2,
      "note": 40,
      "start": 15.5963,
      "duration": 0.0125,
      "velocity": 114,
      "chip": "ym2612"
    },
    {
      "channel": 0,
      "note": 78,
      "start": 15.6045,
      "duration": 0.0125,
      "velocity": 103,
      "chip": "ym2612"
    },
    {
      "channel": 5,
      "note": 78,
      "start": 15.6075,
      "duration": 0.0119,
      "velocity": 103,
      "chip": "ym2612"
    },
    {
      "channel": 2,
      "note": 40,
      "start": 15.6088,
      "duration": 0.0119,
      "velocity": 114,
      "chip": "ym2612"
    },
    {
      "channel": 0,
      "note": 78,
      "start": 15.617,
      "duration": 0.0126,
      "velocity": 103,
      "chip": "ym2612"
    },
    {
      "channel": 5,
      "note": 78,
      "start": 15.6194,
      "duration": 0.0126,
      "velocity": 103,
      "chip": "ym2612"
    },
    {
      "channel": 2,
      "note": 40,
      "start": 15.6206,
      "duration": 0.0126,
      "velocity": 114,
      "chip": "ym2612"
    },
    {
      "channel": 0,
      "note": 78,
      "start": 15.6295,
      "duration": 0.0125,
      "velocity": 103,
      "chip": "ym2612"
    },
    {
      "channel": 5,
      "note": 78,
      "start": 15.632,
      "duration": 0.0149,
      "velocity": 103,
      "chip": "ym2612"
    },
    {
      "channel": 2,
      "note": 40,
      "start": 15.6332,
      "duration": 0.0148,
      "velocity": 114,
      "chip": "ym2612"
    },
    {
      "channel": 0,
      "note": 78,
      "start": 15.642,
      "duration": 0.0125,
      "velocity": 103,
      "chip": "ym2612"
    },
    {
      "channel": 1,
      "note": 53,
      "start": 15.6434,
      "duration": 0.0994,
      "velocity": 81,
      "chip": "ym2612"
    },
    {
      "channel": 5,
      "note": 78,
      "start": 15.6469,
      "duration": 0.01,
      "velocity": 103,
      "chip": "ym2612"
    },
    {
      "channel": 0,
      "note": 78,
      "start": 15.6545,
      "duration": 0.0125,
      "velocity": 103,
      "chip": "ym2612"
    },
    {
      "channel": 5,
      "note": 78,
      "start": 15.6569,
      "duration": 0.0125,
      "velocity": 103,
      "chip": "ym2612"
    },
    {
      "channel": 2,
      "note": 40,
      "start": 15.6591,
      "duration": 0.0115,
      "velocity": 114,
      "chip": "ym2612"
    },
    {
      "channel": 0,
      "note": 78,
      "start": 15.667,
      "duration": 0.0126,
      "velocity": 103,
      "chip": "ym2612"
    },
    {
      "channel": 5,
      "note": 78,
      "start": 15.6694,
      "duration": 0.0125,
      "velocity": 103,
      "chip": "ym2612"
    },
    {
      "channel": 2,
      "note": 40,
      "start": 15.6706,
      "duration": 0.0125,
      "velocity": 114,
      "chip": "ym2612"
    },
    {
      "channel": 0,
      "note": 78,
      "start": 15.6795,
      "duration": 0.0125,
      "velocity": 103,
      "chip": "ym2612"
    },
    {
      "channel": 5,
      "note": 78,
      "start": 15.6819,
      "duration": 0.0131,
      "velocity": 103,
      "chip": "ym2612"
    },
    {
      "channel": 2,
      "note": 40,
      "start": 15.6832,
      "duration": 0.0135,
      "velocity": 114,
      "chip": "ym2612"
    },
    {
      "channel": 0,
      "note": 78,
      "start": 15.692,
      "duration": 0.0125,
      "velocity": 103,
      "chip": "ym2612"
    },
    {
      "channel": 5,
      "note": 78,
      "start": 15.695,
      "duration": 0.0119,
      "velocity": 103,
      "chip": "ym2612"
    },
    {
      "channel": 2,
      "note": 40,
      "start": 15.6967,
      "duration": 0.0115,
      "velocity": 114,
      "chip": "ym2612"
    },
    {
      "channel": 0,
      "note": 78,
      "start": 15.7045,
      "duration": 0.0125,
      "velocity": 103,
      "chip": "ym2612"
    },
    {
      "channel": 5,
      "note": 78,
      "start": 15.7069,
      "duration": 0.0125,
      "velocity": 103,
      "chip": "ym2612"
    },
    {
      "channel": 2,
      "note": 40,
      "start": 15.7082,
      "duration": 0.0124,
      "velocity": 114,
      "chip": "ym2612"
    },
    {
      "channel": 0,
      "note": 78,
      "start": 15.717,
      "duration": 0.0126,
      "velocity": 103,
      "chip": "ym2612"
    },
    {
      "channel": 5,
      "note": 78,
      "start": 15.7194,
      "duration": 0.0125,
      "velocity": 103,
      "chip": "ym2612"
    },
    {
      "channel": 2,
      "note": 40,
      "start": 15.7206,
      "duration": 0.0125,
      "velocity": 114,
      "chip": "ym2612"
    },
    {
      "channel": 0,
      "note": 78,
      "start": 15.7295,
      "duration": 0.0125,
      "velocity": 103,
      "chip": "ym2612"
    },
    {
      "channel": 5,
      "note": 78,
      "start": 15.7319,
      "duration": 0.0137,
      "velocity": 103,
      "chip": "ym2612"
    },
    {
      "channel": 2,
      "note": 40,
      "start": 15.7332,
      "duration": 0.0136,
      "velocity": 114,
      "chip": "ym2612"
    },
    {
      "channel": 0,
      "note": 78,
      "start": 15.742,
      "duration": 0.0125,
      "velocity": 103,
      "chip": "ym2612"
    },
    {
      "channel": 5,
      "note": 78,
      "start": 15.7456,
      "duration": 0.0113,
      "velocity": 103,
      "chip": "ym2612"
    },
    {
      "channel": 2,
      "note": 40,
      "start": 15.7468,
      "duration": 0.0114,
      "velocity": 114,
      "chip": "ym2612"
    },
    {
      "channel": 0,
      "note": 78,
      "start": 15.7545,
      "duration": 0.0125,
      "velocity": 103,
      "chip": "ym2612"
    },
    {
      "channel": 5,
      "note": 78,
      "start": 15.7569,
      "duration": 0.0125,
      "velocity": 103,
      "chip": "ym2612"
    },
    {
      "channel": 2,
      "note": 40,
      "start": 15.7582,
      "duration": 0.0125,
      "velocity": 114,
      "chip": "ym2612"
    },
    {
      "channel": 0,
      "note": 78,
      "start": 15.767,
      "duration": 0.0126,
      "velocity": 103,
      "chip": "ym2612"
    },
    {
      "channel": 5,
      "note": 78,
      "start": 15.7694,
      "duration": 0.0125,
      "velocity": 103,
      "chip": "ym2612"
    },
    {
      "channel": 2,
      "note": 40,
      "start": 15.7707,
      "duration": 0.0125,
      "velocity": 114,
      "chip": "ym2612"
    },
    {
      "channel": 0,
      "note": 78,
      "start": 15.7795,
      "duration": 0.0125,
      "velocity": 103,
      "chip": "ym2612"
    },
    {
      "channel": 5,
      "note": 78,
      "start": 15.782,
      "duration": 0.013,
      "velocity": 103,
      "chip": "ym2612"
    },
    {
      "channel": 2,
      "note": 39,
      "start": 15.7832,
      "duration": 0.013,
      "velocity": 114,
      "chip": "ym2612"
    },
    {
      "channel": 0,
      "note": 78,
      "start": 15.792,
      "duration": 0.0125,
      "velocity": 103,
      "chip": "ym2612"
    },
    {
      "channel": 5,
      "note": 78,
      "start": 15.795,
      "duration": 0.0119,
      "velocity": 103,
      "chip": "ym2612"
    },
    {
      "channel": 0,
      "note": 78,
      "start": 15.8045,
      "duration": 0.0125,
      "velocity": 103,
      "chip": "ym2612"
    },
    {
      "channel": 5,
      "note": 78,
      "start": 15.8069,
      "duration": 0.0125,
      "velocity": 103,
      "chip": "ym2612"
    },
    {
      "channel": 0,
      "note": 78,
      "start": 15.817,
      "duration": 0.0126,
      "velocity": 103,
      "chip": "ym2612"
    },
    {
      "channel": 5,
      "note": 78,
      "start": 15.8194,
      "duration": 0.0126,
      "velocity": 103,
      "chip": "ym2612"
    },
    {
      "channel": 0,
      "note": 78,
      "start": 15.8295,
      "duration": 0.0125,
      "velocity": 103,
      "chip": "ym2612"
    },
    {
      "channel": 5,
      "note": 78,
      "start": 15.832,
      "duration": 0.0149,
      "velocity": 103,
      "chip": "ym2612"
    },
    {
      "channel": 0,
      "note": 78,
      "start": 15.842,
      "duration": 0.0125,
      "velocity": 103,
      "chip": "ym2612"
    },
    {
      "channel": 1,
      "note": 53,
      "start": 15.8434,
      "duration": 0.0994,
      "velocity": 81,
      "chip": "ym2612"
    },
    {
      "channel": 5,
      "note": 78,
      "start": 15.8469,
      "duration": 0.01,
      "velocity": 103,
      "chip": "ym2612"
    },
    {
      "channel": 2,
      "note": 41,
      "start": 15.8524,
      "duration": 0.1973,
      "velocity": 122,
      "chip": "ym2612"
    },
    {
      "channel": 0,
      "note": 78,
      "start": 15.8545,
      "duration": 0.0125,
      "velocity": 103,
      "chip": "ym2612"
    },
    {
      "channel": 5,
      "note": 78,
      "start": 15.8569,
      "duration": 0.0125,
      "velocity": 103,
      "chip": "ym2612"
    },
    {
      "channel": 0,
      "note": 78,
      "start": 15.867,
      "duration": 0.0126,
      "velocity": 103,
      "chip": "ym2612"
    },
    {
      "channel": 5,
      "note": 78,
      "start": 15.8694,
      "duration": 0.0125,
      "velocity": 103,
      "chip": "ym2612"
    },
    {
      "channel": 0,
      "note": 78,
      "start": 15.8795,
      "duration": 0.0125,
      "velocity": 103,
      "chip": "ym2612"
    },
    {
      "channel": 5,
      "note": 78,
      "start": 15.8819,
      "duration": 0.0131,
      "velocity": 103,
      "chip": "ym2612"
    },
    {
      "channel": 0,
      "note": 78,
      "start": 15.892,
      "duration": 0.0125,
      "velocity": 103,
      "chip": "ym2612"
    },
    {
      "channel": 5,
      "note": 78,
      "start": 15.895,
      "duration": 0.0119,
      "velocity": 103,
      "chip": "ym2612"
    },
    {
      "channel": 0,
      "note": 78,
      "start": 15.9045,
      "duration": 0.0125,
      "velocity": 103,
      "chip": "ym2612"
    },
    {
      "channel": 5,
      "note": 78,
      "start": 15.9069,
      "duration": 0.0125,
      "velocity": 103,
      "chip": "ym2612"
    },
    {
      "channel": 0,
      "note": 78,
      "start": 15.917,
      "duration": 0.0126,
      "velocity": 103,
      "chip": "ym2612"
    },
    {
      "channel": 5,
      "note": 78,
      "start": 15.9194,
      "duration": 0.0125,
      "velocity": 103,
      "chip": "ym2612"
    },
    {
      "channel": 0,
      "note": 78,
      "start": 15.9295,
      "duration": 0.0125,
      "velocity": 103,
      "chip": "ym2612"
    },
    {
      "channel": 5,
      "note": 78,
      "start": 15.932,
      "duration": 0.0136,
      "velocity": 103,
      "chip": "ym2612"
    },
    {
      "channel": 0,
      "note": 78,
      "start": 15.942,
      "duration": 0.0125,
      "velocity": 103,
      "chip": "ym2612"
    },
    {
      "channel": 5,
      "note": 78,
      "start": 15.9456,
      "duration": 0.0113,
      "velocity": 103,
      "chip": "ym2612"
    },
    {
      "channel": 0,
      "note": 78,
      "start": 15.9545,
      "duration": 0.0125,
      "velocity": 103,
      "chip": "ym2612"
    },
    {
      "channel": 5,
      "note": 78,
      "start": 15.9569,
      "duration": 0.0125,
      "velocity": 103,
      "chip": "ym2612"
    },
    {
      "channel": 0,
      "note": 78,
      "start": 15.967,
      "duration": 0.0126,
      "velocity": 103,
      "chip": "ym2612"
    },
    {
      "channel": 5,
      "note": 78,
      "start": 15.9694,
      "duration": 0.0125,
      "velocity": 103,
      "chip": "ym2612"
    },
    {
      "channel": 0,
      "note": 78,
      "start": 15.9795,
      "duration": 0.0125,
      "velocity": 103,
      "chip": "ym2612"
    },
    {
      "channel": 5,
      "note": 78,
      "start": 15.9819,
      "duration": 0.0131,
      "velocity": 103,
      "chip": "ym2612"
    },
    {
      "channel": 0,
      "note": 78,
      "start": 15.992,
      "duration": 0.0125,
      "velocity": 103,
      "chip": "ym2612"
    },
    {
      "channel": 5,
      "note": 78,
      "start": 15.995,
      "duration": 0.0119,
      "velocity": 103,
      "chip": "ym2612"
    },
    {
      "channel": 0,
      "note": 78,
      "start": 16.0045,
      "duration": 0.0125,
      "velocity": 103,
      "chip": "ym2612"
    },
    {
      "channel": 5,
      "note": 78,
      "start": 16.0069,
      "duration": 0.0125,
      "velocity": 103,
      "chip": "ym2612"
    },
    {
      "channel": 0,
      "note": 78,
      "start": 16.017,
      "duration": 0.0126,
      "velocity": 103,
      "chip": "ym2612"
    },
    {
      "channel": 5,
      "note": 78,
      "start": 16.0194,
      "duration": 0.0125,
      "velocity": 103,
      "chip": "ym2612"
    },
    {
      "channel": 0,
      "note": 78,
      "start": 16.0295,
      "duration": 0.0125,
      "velocity": 103,
      "chip": "ym2612"
    },
    {
      "channel": 5,
      "note": 78,
      "start": 16.0319,
      "duration": 0.015,
      "velocity": 103,
      "chip": "ym2612"
    },
    {
      "channel": 0,
      "note": 78,
      "start": 16.042,
      "duration": 0.0125,
      "velocity": 103,
      "chip": "ym2612"
    },
    {
      "channel": 1,
      "note": 53,
      "start": 16.0434,
      "duration": 0.0994,
      "velocity": 81,
      "chip": "ym2612"
    },
    {
      "channel": 5,
      "note": 78,
      "start": 16.0469,
      "duration": 0.01,
      "velocity": 103,
      "chip": "ym2612"
    },
    {
      "channel": 2,
      "note": 40,
      "start": 16.0524,
      "duration": 0.0057,
      "velocity": 114,
      "chip": "ym2612"
    },
    {
      "channel": 0,
      "note": 78,
      "start": 16.0545,
      "duration": 0.0125,
      "velocity": 103,
      "chip": "ym2612"
    },
    {
      "channel": 5,
      "note": 78,
      "start": 16.0569,
      "duration": 0.0125,
      "velocity": 103,
      "chip": "ym2612"
    },
    {
      "channel": 2,
      "note": 40,
      "start": 16.0582,
      "duration": 0.0125,
      "velocity": 114,
      "chip": "ym2612"
    },
    {
      "channel": 0,
      "note": 78,
      "start": 16.067,
      "duration": 0.0126,
      "velocity": 103,
      "chip": "ym2612"
    },
    {
      "channel": 5,
      "note": 78,
      "start": 16.0694,
      "duration": 0.0125,
      "velocity": 103,
      "chip": "ym2612"
    },
    {
      "channel": 2,
      "note": 40,
      "start": 16.0707,
      "duration": 0.0129,
      "velocity": 114,
      "chip": "ym2612"
    },
    {
      "channel": 0,
      "note": 78,
      "start": 16.0795,
      "duration": 0.0125,
      "velocity": 103,
      "chip": "ym2612"
    },
    {
      "channel": 5,
      "note": 78,
      "start": 16.082,
      "duration": 0.013,
      "velocity": 103,
      "chip": "ym2612"
    },
    {
      "channel": 2,
      "note": 40,
      "start": 16.0836,
      "duration": 0.0127,
      "velocity": 114,
      "chip": "ym2612"
    },
    {
      "channel": 0,
      "note": 78,
      "start": 16.092,
      "duration": 0.0125,
      "velocity": 103,
      "chip": "ym2612"
    },
    {
      "channel": 5,
      "note": 78,
      "start": 16.095,
      "duration": 0.0119,
      "velocity": 103,
      "chip": "ym2612"
    },
    {
      "channel": 2,
      "note": 40,
      "start": 16.0963,
      "duration": 0.0119,
      "velocity": 114,
      "chip": "ym2612"
    },
    {
      "channel": 0,
      "note": 78,
      "start": 16.1045,
      "duration": 0.0125,
      "velocity": 103,
      "chip": "ym2612"
    },
    {
      "channel": 5,
      "note": 78,
      "start": 16.1069,
      "duration": 0.0125,
      "velocity": 103,
      "chip": "ym2612"
    },
    {
      "channel": 2,
      "note": 40,
      "start": 16.1082,
      "duration": 0.0124,
      "velocity": 114,
      "chip": "ym2612"
    },
    {
      "channel": 0,
      "note": 78,
      "start": 16.117,
      "duration": 0.0126,
      "velocity": 103,
      "chip": "ym2612"
    },
    {
      "channel": 5,
      "note": 78,
      "start": 16.1194,
      "duration": 0.0125,
      "velocity": 103,
      "chip": "ym2612"
    },
    {
      "channel": 2,
      "note": 40,
      "start": 16.1206,
      "duration": 0.0125,
      "velocity": 114,
      "chip": "ym2612"
    },
    {
      "channel": 0,
      "note": 78,
      "start": 16.1295,
      "duration": 0.0125,
      "velocity": 103,
      "chip": "ym2612"
    },
    {
      "channel": 5,
      "note": 78,
      "start": 16.1319,
      "duration": 0.0137,
      "velocity": 103,
      "chip": "ym2612"
    },
    {
      "channel": 2,
      "note": 40,
      "start": 16.1332,
      "duration": 0.0136,
      "velocity": 114,
      "chip": "ym2612"
    },
    {
      "channel": 0,
      "note": 78,
      "start": 16.142,
      "duration": 0.0125,
      "velocity": 103,
      "chip": "ym2612"
    },
    {
      "channel": 5,
      "note": 78,
      "start": 16.1456,
      "duration": 0.0113,
      "velocity": 103,
      "chip": "ym2612"
    },
    {
      "channel": 2,
      "note": 40,
      "start": 16.1468,
      "duration": 0.0114,
      "velocity": 114,
      "chip": "ym2612"
    },
    {
      "channel": 0,
      "note": 78,
      "start": 16.1545,
      "duration": 0.0125,
      "velocity": 103,
      "chip": "ym2612"
    },
    {
      "channel": 5,
      "note": 78,
      "start": 16.1569,
      "duration": 0.0125,
      "velocity": 103,
      "chip": "ym2612"
    },
    {
      "channel": 2,
      "note": 40,
      "start": 16.1582,
      "duration": 0.0124,
      "velocity": 114,
      "chip": "ym2612"
    },
    {
      "channel": 0,
      "note": 78,
      "start": 16.167,
      "duration": 0.0126,
      "velocity": 103,
      "chip": "ym2612"
    },
    {
      "channel": 5,
      "note": 78,
      "start": 16.1694,
      "duration": 0.0125,
      "velocity": 103,
      "chip": "ym2612"
    },
    {
      "channel": 2,
      "note": 39,
      "start": 16.1706,
      "duration": 0.0125,
      "velocity": 114,
      "chip": "ym2612"
    },
    {
      "channel": 0,
      "note": 78,
      "start": 16.1795,
      "duration": 0.0125,
      "velocity": 103,
      "chip": "ym2612"
    },
    {
      "channel": 5,
      "note": 78,
      "start": 16.1819,
      "duration": 0.0131,
      "velocity": 103,
      "chip": "ym2612"
    },
    {
      "channel": 0,
      "note": 78,
      "start": 16.192,
      "duration": 0.0125,
      "velocity": 103,
      "chip": "ym2612"
    },
    {
      "channel": 5,
      "note": 78,
      "start": 16.195,
      "duration": 0.0119,
      "velocity": 103,
      "chip": "ym2612"
    },
    {
      "channel": 0,
      "note": 78,
      "start": 16.2045,
      "duration": 0.0125,
      "velocity": 103,
      "chip": "ym2612"
    },
    {
      "channel": 5,
      "note": 78,
      "start": 16.2069,
      "duration": 0.0125,
      "velocity": 103,
      "chip": "ym2612"
    },
    {
      "channel": 0,
      "note": 78,
      "start": 16.217,
      "duration": 0.0126,
      "velocity": 103,
      "chip": "ym2612"
    },
    {
      "channel": 5,
      "note": 78,
      "start": 16.2194,
      "duration": 0.0125,
      "velocity": 103,
      "chip": "ym2612"
    },
    {
      "channel": 0,
      "note": 78,
      "start": 16.2295,
      "duration": 0.0125,
      "velocity": 103,
      "chip": "ym2612"
    },
    {
      "channel": 5,
      "note": 78,
      "start": 16.232,
      "duration": 0.013,
      "velocity": 103,
      "chip": "ym2612"
    },
    {
      "channel": 0,
      "note": 78,
      "start": 16.242,
      "duration": 0.0125,
      "velocity": 103,
      "chip": "ym2612"
    },
    {
      "channel": 5,
      "note": 78,
      "start": 16.245,
      "duration": 0.0138,
      "velocity": 103,
      "chip": "ym2612"
    },
    {
      "channel": 0,
      "note": 78,
      "start": 16.2545,
      "duration": 0.0125,
      "velocity": 103,
      "chip": "ym2612"
    },
    {
      "channel": 1,
      "note": 53,
      "start": 16.2559,
      "duration": 0.0494,
      "velocity": 81,
      "chip": "ym2612"
    },
    {
      "channel": 5,
      "note": 78,
      "start": 16.2588,
      "duration": 0.0105,
      "velocity": 103,
      "chip": "ym2612"
    },
    {
      "channel": 2,
      "note": 40,
      "start": 16.2621,
      "duration": 0.0086,
      "velocity": 114,
      "chip": "ym2612"
    },
    {
      "channel": 0,
      "note": 78,
      "start": 16.267,
      "duration": 0.0126,
      "velocity": 103,
      "chip": "ym2612"
    },
    {
      "channel": 5,
      "note": 78,
      "start": 16.2694,
      "duration": 0.0125,
      "velocity": 103,
      "chip": "ym2612"
    },
    {
      "channel": 2,
      "note": 40,
      "start": 16.2706,
      "duration": 0.0125,
      "velocity": 114,
      "chip": "ym2612"
    },
    {
      "channel": 0,
      "note": 78,
      "start": 16.2795,
      "duration": 0.0125,
      "velocity": 103,
      "chip": "ym2612"
    },
    {
      "channel": 5,
      "note": 78,
      "start": 16.2819,
      "duration": 0.0131,
      "velocity": 103,
      "chip": "ym2612"
    },
    {
      "channel": 2,
      "note": 40,
      "start": 16.2832,
      "duration": 0.0135,
      "velocity": 114,
      "chip": "ym2612"
    },
    {
      "channel": 0,
      "note": 78,
      "start": 16.292,
      "duration": 0.0125,
      "velocity": 103,
      "chip": "ym2612"
    },
    {
      "channel": 5,
      "note": 78,
      "start": 16.295,
      "duration": 0.0125,
      "velocity": 103,
      "chip": "ym2612"
    },
    {
      "channel": 2,
      "note": 40,
      "start": 16.2967,
      "duration": 0.0121,
      "velocity": 114,
      "chip": "ym2612"
    },
    {
      "channel": 0,
      "note": 78,
      "start": 16.3045,
      "duration": 0.0125,
      "velocity": 103,
      "chip": "ym2612"
    },
    {
      "channel": 5,
      "note": 78,
      "start": 16.3075,
      "duration": 0.0119,
      "velocity": 103,
      "chip": "ym2612"
    },
    {
      "channel": 2,
      "note": 40,
      "start": 16.3088,
      "duration": 0.0119,
      "velocity": 114,
      "chip": "ym2612"
    },
    {
      "channel": 0,
      "note": 78,
      "start": 16.317,
      "duration": 0.0126,
      "velocity": 103,
      "chip": "ym2612"
    },
    {
      "channel": 5,
      "note": 78,
      "start": 16.3194,
      "duration": 0.0125,
      "velocity": 103,
      "chip": "ym2612"
    },
    {
      "channel": 2,
      "note": 40,
      "start": 16.3206,
      "duration": 0.0125,
      "velocity": 114,
      "chip": "ym2612"
    },
    {
      "channel": 0,
      "note": 78,
      "start": 16.3295,
      "duration": 0.0125,
      "velocity": 103,
      "chip": "ym2612"
    },
    {
      "channel": 5,
      "note": 78,
      "start": 16.3319,
      "duration": 0.0131,
      "velocity": 103,
      "chip": "ym2612"
    },
    {
      "channel": 2,
      "note": 40,
      "start": 16.3332,
      "duration": 0.0131,
      "velocity": 114,
      "chip": "ym2612"
    },
    {
      "channel": 0,
      "note": 78,
      "start": 16.342,
      "duration": 0.0125,
      "velocity": 103,
      "chip": "ym2612"
    },
    {
      "channel": 5,
      "note": 78,
      "start": 16.345,
      "duration": 0.0138,
      "velocity": 103,
      "chip": "ym2612"
    },
    {
      "channel": 2,
      "note": 40,
      "start": 16.3463,
      "duration": 0.0137,
      "velocity": 114,
      "chip": "ym2612"
    },
    {
      "channel": 0,
      "note": 78,
      "start": 16.3545,
      "duration": 0.0125,
      "velocity": 103,
      "chip": "ym2612"
    },
    {
      "channel": 1,
      "note": 53,
      "start": 16.3559,
      "duration": 0.0994,
      "velocity": 81,
      "chip": "ym2612"
    },
    {
      "channel": 5,
      "note": 78,
      "start": 16.3588,
      "duration": 0.0106,
      "velocity": 103,
      "chip": "ym2612"
    },
    {
      "channel": 0,
      "note": 78,
      "start": 16.367,
      "duration": 0.0126,
      "velocity": 103,
      "chip": "ym2612"
    },
    {
      "channel": 5,
      "note": 78,
      "start": 16.3694,
      "duration": 0.0125,
      "velocity": 103,
      "chip": "ym2612"
    },
    {
      "channel": 2,
      "note": 41,
      "start": 16.3745,
      "duration": 0.1878,
      "velocity": 122,
      "chip": "ym2612"
    },
    {
      "channel": 0,
      "note": 78,
      "start": 16.3795,
      "duration": 0.0125,
      "velocity": 103,
      "chip": "ym2612"
    },
    {
      "channel": 5,
      "note": 78,
      "start": 16.382,
      "duration": 0.013,
      "velocity": 103,
      "chip": "ym2612"
    },
    {
      "channel": 0,
      "note": 78,
      "start": 16.392,
      "duration": 0.0125,
      "velocity": 103,
      "chip": "ym2612"
    },
    {
      "channel": 5,
      "note": 78,
      "start": 16.395,
      "duration": 0.0119,
      "velocity": 103,
      "chip": "ym2612"
    },
    {
      "channel": 0,
      "note": 78,
      "start": 16.4045,
      "duration": 0.0125,
      "velocity": 103,
      "chip": "ym2612"
    },
    {
      "channel": 5,
      "note": 78,
      "start": 16.4069,
      "duration": 0.0125,
      "velocity": 103,
      "chip": "ym2612"
    },
    {
      "channel": 0,
      "note": 78,
      "start": 16.417,
      "duration": 0.0125,
      "velocity": 103,
      "chip": "ym2612"
    },
    {
      "channel": 5,
      "note": 78,
      "start": 16.4194,
      "duration": 0.0125,
      "velocity": 103,
      "chip": "ym2612"
    },
    {
      "channel": 0,
      "note": 78,
      "start": 16.4295,
      "duration": 0.0125,
      "velocity": 103,
      "chip": "ym2612"
    },
    {
      "channel": 5,
      "note": 78,
      "start": 16.4319,
      "duration": 0.0131,
      "velocity": 103,
      "chip": "ym2612"
    },
    {
      "channel": 0,
      "note": 78,
      "start": 16.442,
      "duration": 0.0125,
      "velocity": 103,
      "chip": "ym2612"
    },
    {
      "channel": 5,
      "note": 78,
      "start": 16.445,
      "duration": 0.0124,
      "velocity": 103,
      "chip": "ym2612"
    },
    {
      "channel": 0,
      "note": 78,
      "start": 16.4545,
      "duration": 0.0125,
      "velocity": 103,
      "chip": "ym2612"
    },
    {
      "channel": 5,
      "note": 78,
      "start": 16.4574,
      "duration": 0.012,
      "velocity": 103,
      "chip": "ym2612"
    },
    {
      "channel": 0,
      "note": 78,
      "start": 16.467,
      "duration": 0.0126,
      "velocity": 103,
      "chip": "ym2612"
    },
    {
      "channel": 5,
      "note": 78,
      "start": 16.4694,
      "duration": 0.0126,
      "velocity": 103,
      "chip": "ym2612"
    },
    {
      "channel": 0,
      "note": 78,
      "start": 16.4795,
      "duration": 0.0125,
      "velocity": 103,
      "chip": "ym2612"
    },
    {
      "channel": 5,
      "note": 78,
      "start": 16.482,
      "duration": 0.013,
      "velocity": 103,
      "chip": "ym2612"
    },
    {
      "channel": 0,
      "note": 78,
      "start": 16.492,
      "duration": 0.0125,
      "velocity": 103,
      "chip": "ym2612"
    },
    {
      "channel": 5,
      "note": 78,
      "start": 16.495,
      "duration": 0.0119,
      "velocity": 103,
      "chip": "ym2612"
    },
    {
      "channel": 0,
      "note": 78,
      "start": 16.5045,
      "duration": 0.0125,
      "velocity": 103,
      "chip": "ym2612"
    },
    {
      "channel": 5,
      "note": 78,
      "start": 16.5069,
      "duration": 0.0125,
      "velocity": 103,
      "chip": "ym2612"
    },
    {
      "channel": 0,
      "note": 78,
      "start": 16.517,
      "duration": 0.0126,
      "velocity": 103,
      "chip": "ym2612"
    },
    {
      "channel": 5,
      "note": 78,
      "start": 16.5194,
      "duration": 0.0125,
      "velocity": 103,
      "chip": "ym2612"
    },
    {
      "channel": 0,
      "note": 78,
      "start": 16.5295,
      "duration": 0.0125,
      "velocity": 103,
      "chip": "ym2612"
    },
    {
      "channel": 5,
      "note": 78,
      "start": 16.532,
      "duration": 0.013,
      "velocity": 103,
      "chip": "ym2612"
    },
    {
      "channel": 0,
      "note": 78,
      "start": 16.542,
      "duration": 0.0125,
      "velocity": 103,
      "chip": "ym2612"
    },
    {
      "channel": 5,
      "note": 78,
      "start": 16.545,
      "duration": 0.0138,
      "velocity": 103,
      "chip": "ym2612"
    },
    {
      "channel": 0,
      "note": 78,
      "start": 16.5545,
      "duration": 0.0125,
      "velocity": 103,
      "chip": "ym2612"
    },
    {
      "channel": 1,
      "note": 53,
      "start": 16.5559,
      "duration": 0.0619,
      "velocity": 81,
      "chip": "ym2612"
    },
    {
      "channel": 5,
      "note": 78,
      "start": 16.5588,
      "duration": 0.0105,
      "velocity": 103,
      "chip": "ym2612"
    },
    {
      "channel": 2,
      "note": 40,
      "start": 16.565,
      "duration": 0.0056,
      "velocity": 114,
      "chip": "ym2612"
    },
    {
      "channel": 0,
      "note": 78,
      "start": 16.567,
      "duration": 0.0126,
      "velocity": 103,
      "chip": "ym2612"
    },
    {
      "channel": 5,
      "note": 78,
      "start": 16.5694,
      "duration": 0.0125,
      "velocity": 103,
      "chip": "ym2612"
    },
    {
      "channel": 2,
      "note": 40,
      "start": 16.5706,
      "duration": 0.0125,
      "velocity": 114,
      "chip": "ym2612"
    },
    {
      "channel": 0,
      "note": 78,
      "start": 16.5795,
      "duration": 0.0125,
      "velocity": 103,
      "chip": "ym2612"
    },
    {
      "channel": 5,
      "note": 78,
      "start": 16.5819,
      "duration": 0.0131,
      "velocity": 103,
      "chip": "ym2612"
    },
    {
      "channel": 2,
      "note": 40,
      "start": 16.5832,
      "duration": 0.0135,
      "velocity": 114,
      "chip": "ym2612"
    },
    {
      "channel": 0,
      "note": 78,
      "start": 16.592,
      "duration": 0.0125,
      "velocity": 103,
      "chip": "ym2612"
    },
    {
      "channel": 5,
      "note": 78,
      "start": 16.595,
      "duration": 0.0119,
      "velocity": 103,
      "chip": "ym2612"
    },
    {
      "channel": 2,
      "note": 40,
      "start": 16.5967,
      "duration": 0.0115,
      "velocity": 114,
      "chip": "ym2612"
    },
    {
      "channel": 0,
      "note": 78,
      "start": 16.6045,
      "duration": 0.0125,
      "velocity": 103,
      "chip": "ym2612"
    },
    {
      "channel": 5,
      "note": 78,
      "start": 16.6069,
      "duration": 0.013,
      "velocity": 103,
      "chip": "ym2612"
    },
    {
      "channel": 2,
      "note": 40,
      "start": 16.6082,
      "duration": 0.013,
      "velocity": 114,
      "chip": "ym2612"
    },
    {
      "channel": 0,
      "note": 78,
      "start": 16.617,
      "duration": 0.0126,
      "velocity": 103,
      "chip": "ym2612"
    },
    {
      "channel": 5,
      "note": 78,
      "start": 16.6199,
      "duration": 0.012,
      "velocity": 103,
      "chip": "ym2612"
    },
    {
      "channel": 2,
      "note": 40,
      "start": 16.6212,
      "duration": 0.012,
      "velocity": 114,
      "chip": "ym2612"
    },
    {
      "channel": 0,
      "note": 78,
      "start": 16.6295,
      "duration": 0.0125,
      "velocity": 103,
      "chip": "ym2612"
    },
    {
      "channel": 5,
      "note": 78,
      "start": 16.6319,
      "duration": 0.0131,
      "velocity": 103,
      "chip": "ym2612"
    },
    {
      "channel": 2,
      "note": 40,
      "start": 16.6332,
      "duration": 0.0131,
      "velocity": 114,
      "chip": "ym2612"
    },
    {
      "channel": 0,
      "note": 78,
      "start": 16.642,
      "duration": 0.0125,
      "velocity": 103,
      "chip": "ym2612"
    },
    {
      "channel": 5,
      "note": 78,
      "start": 16.645,
      "duration": 0.0138,
      "velocity": 103,
      "chip": "ym2612"
    },
    {
      "channel": 2,
      "note": 40,
      "start": 16.6463,
      "duration": 0.0137,
      "velocity": 114,
      "chip": "ym2612"
    },
    {
      "channel": 0,
      "note": 78,
      "start": 16.6545,
      "duration": 0.0125,
      "velocity": 103,
      "chip": "ym2612"
    },
    {
      "channel": 1,
      "note": 53,
      "start": 16.6559,
      "duration": 0.0995,
      "velocity": 81,
      "chip": "ym2612"
    },
    {
      "channel": 5,
      "note": 78,
      "start": 16.6588,
      "duration": 0.0106,
      "velocity": 103,
      "chip": "ym2612"
    },
    {
      "channel": 0,
      "note": 78,
      "start": 16.667,
      "duration": 0.0126,
      "velocity": 103,
      "chip": "ym2612"
    },
    {
      "channel": 5,
      "note": 78,
      "start": 16.6694,
      "duration": 0.0125,
      "velocity": 103,
      "chip": "ym2612"
    },
    {
      "channel": 2,
      "note": 40,
      "start": 16.6717,
      "duration": 0.0116,
      "velocity": 114,
      "chip": "ym2612"
    },
    {
      "channel": 0,
      "note": 78,
      "start": 16.6795,
      "duration": 0.0125,
      "velocity": 103,
      "chip": "ym2612"
    },
    {
      "channel": 5,
      "note": 78,
      "start": 16.682,
      "duration": 0.013,
      "velocity": 103,
      "chip": "ym2612"
    },
    {
      "channel": 2,
      "note": 40,
      "start": 16.6832,
      "duration": 0.013,
      "velocity": 114,
      "chip": "ym2612"
    },
    {
      "channel": 0,
      "note": 78,
      "start": 16.692,
      "duration": 0.0125,
      "velocity": 103,
      "chip": "ym2612"
    },
    {
      "channel": 5,
      "note": 78,
      "start": 16.695,
      "duration": 0.0119,
      "velocity": 103,
      "chip": "ym2612"
    },
    {
      "channel": 2,
      "note": 40,
      "start": 16.6963,
      "duration": 0.0123,
      "velocity": 114,
      "chip": "ym2612"
    },
    {
      "channel": 0,
      "note": 78,
      "start": 16.7045,
      "duration": 0.0125,
      "velocity": 103,
      "chip": "ym2612"
    },
    {
      "channel": 5,
      "note": 78,
      "start": 16.7069,
      "duration": 0.0125,
      "velocity": 103,
      "chip": "ym2612"
    },
    {
      "channel": 2,
      "note": 40,
      "start": 16.7085,
      "duration": 0.0121,
      "velocity": 114,
      "chip": "ym2612"
    },
    {
      "channel": 0,
      "note": 78,
      "start": 16.717,
      "duration": 0.0126,
      "velocity": 103,
      "chip": "ym2612"
    },
    {
      "channel": 5,
      "note": 78,
      "start": 16.7194,
      "duration": 0.0125,
      "velocity": 103,
      "chip": "ym2612"
    },
    {
      "channel": 2,
      "note": 40,
      "start": 16.7206,
      "duration": 0.0125,
      "velocity": 114,
      "chip": "ym2612"
    },
    {
      "channel": 0,
      "note": 78,
      "start": 16.7295,
      "duration": 0.0125,
      "velocity": 103,
      "chip": "ym2612"
    },
    {
      "channel": 5,
      "note": 78,
      "start": 16.7319,
      "duration": 0.0131,
      "velocity": 103,
      "chip": "ym2612"
    },
    {
      "channel": 2,
      "note": 40,
      "start": 16.7332,
      "duration": 0.0131,
      "velocity": 114,
      "chip": "ym2612"
    },
    {
      "channel": 0,
      "note": 78,
      "start": 16.742,
      "duration": 0.0125,
      "velocity": 103,
      "chip": "ym2612"
    },
    {
      "channel": 5,
      "note": 78,
      "start": 16.745,
      "duration": 0.0138,
      "velocity": 103,
      "chip": "ym2612"
    },
    {
      "channel": 2,
      "note": 40,
      "start": 16.7463,
      "duration": 0.0137,
      "velocity": 114,
      "chip": "ym2612"
    },
    {
      "channel": 0,
      "note": 78,
      "start": 16.7545,
      "duration": 0.0125,
      "velocity": 103,
      "chip": "ym2612"
    },
    {
      "channel": 1,
      "note": 59,
      "start": 16.7559,
      "duration": 0.0995,
      "velocity": 81,
      "chip": "ym2612"
    },
    {
      "channel": 5,
      "note": 78,
      "start": 16.7588,
      "duration": 0.0105,
      "velocity": 103,
      "chip": "ym2612"
    },
    {
      "channel": 0,
      "note": 78,
      "start": 16.767,
      "duration": 0.0126,
      "velocity": 103,
      "chip": "ym2612"
    },
    {
      "channel": 5,
      "note": 78,
      "start": 16.7694,
      "duration": 0.0125,
      "velocity": 103,
      "chip": "ym2612"
    },
    {
      "channel": 2,
      "note": 40,
      "start": 16.7716,
      "duration": 0.0116,
      "velocity": 114,
      "chip": "ym2612"
    },
    {
      "channel": 0,
      "note": 78,
      "start": 16.7795,
      "duration": 0.0125,
      "velocity": 103,
      "chip": "ym2612"
    },
    {
      "channel": 5,
      "note": 78,
      "start": 16.7819,
      "duration": 0.0131,
      "velocity": 103,
      "chip": "ym2612"
    },
    {
      "channel": 2,
      "note": 40,
      "start": 16.7832,
      "duration": 0.0131,
      "velocity": 114,
      "chip": "ym2612"
    },
    {
      "channel": 0,
      "note": 78,
      "start": 16.792,
      "duration": 0.0125,
      "velocity": 103,
      "chip": "ym2612"
    },
    {
      "channel": 5,
      "note": 78,
      "start": 16.795,
      "duration": 0.0119,
      "velocity": 103,
      "chip": "ym2612"
    },
    {
      "channel": 2,
      "note": 40,
      "start": 16.7963,
      "duration": 0.0123,
      "velocity": 114,
      "chip": "ym2612"
    },
    {
      "channel": 0,
      "note": 78,
      "start": 16.8045,
      "duration": 0.0125,
      "velocity": 103,
      "chip": "ym2612"
    },
    {
      "channel": 5,
      "note": 78,
      "start": 16.8069,
      "duration": 0.0125,
      "velocity": 103,
      "chip": "ym2612"
    },
    {
      "channel": 2,
      "note": 40,
      "start": 16.8085,
      "duration": 0.0122,
      "velocity": 114,
      "chip": "ym2612"
    },
    {
      "channel": 0,
      "note": 78,
      "start": 16.817,
      "duration": 0.0126,
      "velocity": 103,
      "chip": "ym2612"
    },
    {
      "channel": 5,
      "note": 78,
      "start": 16.8194,
      "duration": 0.0125,
      "velocity": 103,
      "chip": "ym2612"
    },
    {
      "channel": 2,
      "note": 40,
      "start": 16.8207,
      "duration": 0.0125,
      "velocity": 114,
      "chip": "ym2612"
    },
    {
      "channel": 0,
      "note": 78,
      "start": 16.8295,
      "duration": 0.0125,
      "velocity": 103,
      "chip": "ym2612"
    },
    {
      "channel": 5,
      "note": 78,
      "start": 16.832,
      "duration": 0.013,
      "velocity": 103,
      "chip": "ym2612"
    },
    {
      "channel": 2,
      "note": 40,
      "start": 16.8332,
      "duration": 0.013,
      "velocity": 114,
      "chip": "ym2612"
    },
    {
      "channel": 0,
      "note": 78,
      "start": 16.842,
      "duration": 0.0125,
      "velocity": 103,
      "chip": "ym2612"
    },
    {
      "channel": 5,
      "note": 78,
      "start": 16.845,
      "duration": 0.0138,
      "velocity": 103,
      "chip": "ym2612"
    },
    {
      "channel": 2,
      "note": 40,
      "start": 16.8463,
      "duration": 0.0137,
      "velocity": 114,
      "chip": "ym2612"
    },
    {
      "channel": 0,
      "note": 78,
      "start": 16.8545,
      "duration": 0.0125,
      "velocity": 103,
      "chip": "ym2612"
    },
    {
      "channel": 1,
      "note": 65,
      "start": 16.8559,
      "duration": 0.0995,
      "velocity": 81,
      "chip": "ym2612"
    },
    {
      "channel": 5,
      "note": 78,
      "start": 16.8588,
      "duration": 0.0105,
      "velocity": 103,
      "chip": "ym2612"
    },
    {
      "channel": 0,
      "note": 78,
      "start": 16.867,
      "duration": 0.0126,
      "velocity": 103,
      "chip": "ym2612"
    },
    {
      "channel": 5,
      "note": 78,
      "start": 16.8694,
      "duration": 0.0126,
      "velocity": 103,
      "chip": "ym2612"
    },
    {
      "channel": 2,
      "note": 40,
      "start": 16.8716,
      "duration": 0.0116,
      "velocity": 114,
      "chip": "ym2612"
    },
    {
      "channel": 0,
      "note": 78,
      "start": 16.8795,
      "duration": 0.0125,
      "velocity": 103,
      "chip": "ym2612"
    },
    {
      "channel": 5,
      "note": 78,
      "start": 16.882,
      "duration": 0.013,
      "velocity": 103,
      "chip": "ym2612"
    },
    {
      "channel": 2,
      "note": 40,
      "start": 16.8832,
      "duration": 0.0131,
      "velocity": 114,
      "chip": "ym2612"
    },
    {
      "channel": 0,
      "note": 78,
      "start": 16.892,
      "duration": 0.0125,
      "velocity": 103,
      "chip": "ym2612"
    },
    {
      "channel": 5,
      "note": 78,
      "start": 16.895,
      "duration": 0.0119,
      "velocity": 103,
      "chip": "ym2612"
    },
    {
      "channel": 2,
      "note": 40,
      "start": 16.8963,
      "duration": 0.0123,
      "velocity": 114,
      "chip": "ym2612"
    },
    {
      "channel": 0,
      "note": 78,
      "start": 16.9045,
      "duration": 0.0125,
      "velocity": 103,
      "chip": "ym2612"
    },
    {
      "channel": 5,
      "note": 78,
      "start": 16.9069,
      "duration": 0.0125,
      "velocity": 103,
      "chip": "ym2612"
    },
    {
      "channel": 2,
      "note": 40,
      "start": 16.9085,
      "duration": 0.0121,
      "velocity": 114,
      "chip": "ym2612"
    },
    {
      "channel": 0,
      "note": 78,
      "start": 16.917,
      "duration": 0.0126,
      "velocity": 103,
      "chip": "ym2612"
    },
    {
      "channel": 5,
      "note": 78,
      "start": 16.9194,
      "duration": 0.0125,
      "velocity": 103,
      "chip": "ym2612"
    },
    {
      "channel": 2,
      "note": 40,
      "start": 16.9206,
      "duration": 0.0125,
      "velocity": 114,
      "chip": "ym2612"
    },
    {
      "channel": 0,
      "note": 78,
      "start": 16.9295,
      "duration": 0.0125,
      "velocity": 103,
      "chip": "ym2612"
    },
    {
      "channel": 5,
      "note": 78,
      "start": 16.9319,
      "duration": 0.0131,
      "velocity": 103,
      "chip": "ym2612"
    },
    {
      "channel": 2,
      "note": 40,
      "start": 16.9332,
      "duration": 0.0131,
      "velocity": 114,
      "chip": "ym2612"
    },
    {
      "channel": 0,
      "note": 78,
      "start": 16.942,
      "duration": 0.0125,
      "velocity": 103,
      "chip": "ym2612"
    },
    {
      "channel": 5,
      "note": 78,
      "start": 16.945,
      "duration": 0.0138,
      "velocity": 103,
      "chip": "ym2612"
    },
    {
      "channel": 2,
      "note": 40,
      "start": 16.9463,
      "duration": 0.0137,
      "velocity": 114,
      "chip": "ym2612"
    },
    {
      "channel": 0,
      "note": 78,
      "start": 16.9545,
      "duration": 0.0125,
      "velocity": 103,
      "chip": "ym2612"
    },
    {
      "channel": 1,
      "note": 59,
      "start": 16.9559,
      "duration": 0.1127,
      "velocity": 81,
      "chip": "ym2612"
    },
    {
      "channel": 5,
      "note": 78,
      "start": 16.9588,
      "duration": 0.0106,
      "velocity": 103,
      "chip": "ym2612"
    },
    {
      "channel": 0,
      "note": 78,
      "start": 16.967,
      "duration": 0.0126,
      "velocity": 103,
      "chip": "ym2612"
    },
    {
      "channel": 5,
      "note": 78,
      "start": 16.9694,
      "duration": 0.0125,
      "velocity": 103,
      "chip": "ym2612"
    },
    {
      "channel": 2,
      "note": 40,
      "start": 16.9717,
      "duration": 0.0116,
      "velocity": 114,
      "chip": "ym2612"
    },
    {
      "channel": 0,
      "note": 78,
      "start": 16.9795,
      "duration": 0.0125,
      "velocity": 103,
      "chip": "ym2612"
    },
    {
      "channel": 5,
      "note": 78,
      "start": 16.982,
      "duration": 0.013,
      "velocity": 103,
      "chip": "ym2612"
    },
    {
      "channel": 2,
      "note": 40,
      "start": 16.9832,
      "duration": 0.013,
      "velocity": 114,
      "chip": "ym2612"
    },
    {
      "channel": 0,
      "note": 78,
      "start": 16.992,
      "duration": 0.0125,
      "velocity": 103,
      "chip": "ym2612"
    },
    {
      "channel": 5,
      "note": 78,
      "start": 16.995,
      "duration": 0.0119,
      "velocity": 103,
      "chip": "ym2612"
    },
    {
      "channel": 2,
      "note": 40,
      "start": 16.9963,
      "duration": 0.0123,
      "velocity": 114,
      "chip": "ym2612"
    },
    {
      "channel": 0,
      "note": 78,
      "start": 17.0045,
      "duration": 0.0125,
      "velocity": 103,
      "chip": "ym2612"
    },
    {
      "channel": 5,
      "note": 78,
      "start": 17.0069,
      "duration": 0.0125,
      "velocity": 103,
      "chip": "ym2612"
    },
    {
      "channel": 2,
      "note": 40,
      "start": 17.0085,
      "duration": 0.0121,
      "velocity": 114,
      "chip": "ym2612"
    },
    {
      "channel": 0,
      "note": 78,
      "start": 17.017,
      "duration": 0.0126,
      "velocity": 103,
      "chip": "ym2612"
    },
    {
      "channel": 5,
      "note": 78,
      "start": 17.0194,
      "duration": 0.0125,
      "velocity": 103,
      "chip": "ym2612"
    },
    {
      "channel": 2,
      "note": 40,
      "start": 17.0206,
      "duration": 0.0125,
      "velocity": 114,
      "chip": "ym2612"
    },
    {
      "channel": 0,
      "note": 78,
      "start": 17.0295,
      "duration": 0.0125,
      "velocity": 103,
      "chip": "ym2612"
    },
    {
      "channel": 5,
      "note": 78,
      "start": 17.0319,
      "duration": 0.0131,
      "velocity": 103,
      "chip": "ym2612"
    },
    {
      "channel": 2,
      "note": 40,
      "start": 17.0332,
      "duration": 0.0131,
      "velocity": 114,
      "chip": "ym2612"
    },
    {
      "channel": 0,
      "note": 78,
      "start": 17.042,
      "duration": 0.0125,
      "velocity": 103,
      "chip": "ym2612"
    },
    {
      "channel": 5,
      "note": 78,
      "start": 17.045,
      "duration": 0.0119,
      "velocity": 103,
      "chip": "ym2612"
    },
    {
      "channel": 2,
      "note": 40,
      "start": 17.0463,
      "duration": 0.0119,
      "velocity": 114,
      "chip": "ym2612"
    },
    {
      "channel": 0,
      "note": 78,
      "start": 17.0545,
      "duration": 0.0123,
      "velocity": 103,
      "chip": "ym2612"
    },
    {
      "channel": 5,
      "note": 78,
      "start": 17.0569,
      "duration": 0.0165,
      "velocity": 103,
      "chip": "ym2612"
    },
    {
      "channel": 2,
      "note": 40,
      "start": 17.0582,
      "duration": 0.0163,
      "velocity": 114,
      "chip": "ym2612"
    },
    {
      "channel": 0,
      "note": 81,
      "start": 17.0673,
      "duration": 0.2496,
      "velocity": 103,
      "chip": "ym2612"
    },
    {
      "channel": 1,
      "note": 53,
      "start": 17.0692,
      "duration": 0.0478,
      "velocity": 81,
      "chip": "ym2612"
    },
    {
      "channel": 5,
      "note": 78,
      "start": 17.0734,
      "duration": 0.0076,
      "velocity": 103,
      "chip": "ym2612"
    },
    {
      "channel": 5,
      "note": 78,
      "start": 17.081,
      "duration": 0.0125,
      "velocity": 103,
      "chip": "ym2612"
    },
    {
      "channel": 2,
      "note": 40,
      "start": 17.0832,
      "duration": 0.0122,
      "velocity": 114,
      "chip": "ym2612"
    },
    {
      "channel": 5,
      "note": 78,
      "start": 17.0935,
      "duration": 0.0125,
      "velocity": 103,
      "chip": "ym2612"
    },
    {
      "channel": 2,
      "note": 40,
      "start": 17.0954,
      "duration": 0.0119,
      "velocity": 114,
      "chip": "ym2612"
    },
    {
      "channel": 5,
      "note": 78,
      "start": 17.106,
      "duration": 0.013,
      "velocity": 103,
      "chip": "ym2612"
    },
    {
      "channel": 2,
      "note": 40,
      "start": 17.1073,
      "duration": 0.0134,
      "velocity": 114,
      "chip": "ym2612"
    },
    {
      "channel": 5,
      "note": 78,
      "start": 17.119,
      "duration": 0.012,
      "velocity": 103,
      "chip": "ym2612"
    },
    {
      "channel": 2,
      "note": 40,
      "start": 17.1207,
      "duration": 0.0116,
      "velocity": 114,
      "chip": "ym2612"
    },
    {
      "channel": 5,
      "note": 78,
      "start": 17.131,
      "duration": 0.0125,
      "velocity": 103,
      "chip": "ym2612"
    },
    {
      "channel": 2,
      "note": 40,
      "start": 17.1323,
      "duration": 0.0131,
      "velocity": 114,
      "chip": "ym2612"
    },
    {
      "channel": 5,
      "note": 78,
      "start": 17.1435,
      "duration": 0.0125,
      "velocity": 103,
      "chip": "ym2612"
    },
    {
      "channel": 2,
      "note": 40,
      "start": 17.1454,
      "duration": 0.0119,
      "velocity": 114,
      "chip": "ym2612"
    },
    {
      "channel": 5,
      "note": 78,
      "start": 17.156,
      "duration": 0.0144,
      "velocity": 103,
      "chip": "ym2612"
    },
    {
      "channel": 2,
      "note": 40,
      "start": 17.1573,
      "duration": 0.0143,
      "velocity": 114,
      "chip": "ym2612"
    },
    {
      "channel": 1,
      "note": 53,
      "start": 17.1675,
      "duration": 0.0994,
      "velocity": 81,
      "chip": "ym2612"
    },
    {
      "channel": 5,
      "note": 78,
      "start": 17.1704,
      "duration": 0.0106,
      "velocity": 103,
      "chip": "ym2612"
    },
    {
      "channel": 5,
      "note": 78,
      "start": 17.181,
      "duration": 0.0125,
      "velocity": 103,
      "chip": "ym2612"
    },
    {
      "channel": 2,
      "note": 40,
      "start": 17.1832,
      "duration": 0.0122,
      "velocity": 114,
      "chip": "ym2612"
    },
    {
      "channel": 5,
      "note": 78,
      "start": 17.1935,
      "duration": 0.0123,
      "velocity": 103,
      "chip": "ym2612"
    },
    {
      "channel": 2,
      "note": 40,
      "start": 17.1954,
      "duration": 0.0122,
      "velocity": 114,
      "chip": "ym2612"
    },
    {
      "channel": 5,
      "note": 81,
      "start": 17.2063,
      "duration": 0.2506,
      "velocity": 103,
      "chip": "ym2612"
    },
    {
      "channel": 2,
      "note": 40,
      "start": 17.2076,
      "duration": 0.0116,
      "velocity": 114,
      "chip": "ym2612"
    },
    {
      "channel": 2,
      "note": 40,
      "start": 17.2192,
      "duration": 0.0122,
      "velocity": 114,
      "chip": "ym2612"
    },
    {
      "channel": 2,
      "note": 40,
      "start": 17.2314,
      "duration": 0.0129,
      "velocity": 114,
      "chip": "ym2612"
    },
    {
      "channel": 2,
      "note": 40,
      "start": 17.2442,
      "duration": 0.0121,
      "velocity": 114,
      "chip": "ym2612"
    },
    {
      "channel": 2,
      "note": 40,
      "start": 17.2563,
      "duration": 0.013,
      "velocity": 114,
      "chip": "ym2612"
    },
    {
      "channel": 2,
      "note": 40,
      "start": 17.2694,
      "duration": 0.012,
      "velocity": 114,
      "chip": "ym2612"
    },
    {
      "channel": 2,
      "note": 40,
      "start": 17.2814,
      "duration": 0.0128,
      "velocity": 114,
      "chip": "ym2612"
    },
    {
      "channel": 2,
      "note": 40,
      "start": 17.2942,
      "duration": 0.0122,
      "velocity": 114,
      "chip": "ym2612"
    },
    {
      "channel": 2,
      "note": 39,
      "start": 17.3063,
      "duration": 0.0134,
      "velocity": 114,
      "chip": "ym2612"
    },
    {
      "channel": 0,
      "note": 81,
      "start": 17.317,
      "duration": 0.0126,
      "velocity": 103,
      "chip": "ym2612"
    },
    {
      "channel": 0,
      "note": 81,
      "start": 17.3295,
      "duration": 0.0125,
      "velocity": 103,
      "chip": "ym2612"
    },
    {
      "channel": 0,
      "note": 81,
      "start": 17.342,
      "duration": 0.0125,
      "velocity": 103,
      "chip": "ym2612"
    },
    {
      "channel": 0,
      "note": 81,
      "start": 17.3545,
      "duration": 0.0125,
      "velocity": 103,
      "chip": "ym2612"
    },
    {
      "channel": 0,
      "note": 81,
      "start": 17.367,
      "duration": 0.0126,
      "velocity": 103,
      "chip": "ym2612"
    },
    {
      "channel": 1,
      "note": 53,
      "start": 17.3684,
      "duration": 0.062,
      "velocity": 81,
      "chip": "ym2612"
    },
    {
      "channel": 2,
      "note": 40,
      "start": 17.3731,
      "duration": 0.0092,
      "velocity": 114,
      "chip": "ym2612"
    },
    {
      "channel": 0,
      "note": 81,
      "start": 17.3795,
      "duration": 0.0125,
      "velocity": 103,
      "chip": "ym2612"
    },
    {
      "channel": 2,
      "note": 40,
      "start": 17.3823,
      "duration": 0.0131,
      "velocity": 114,
      "chip": "ym2612"
    },
    {
      "channel": 0,
      "note": 81,
      "start": 17.392,
      "duration": 0.0125,
      "velocity": 103,
      "chip": "ym2612"
    },
    {
      "channel": 2,
      "note": 40,
      "start": 17.3954,
      "duration": 0.0122,
      "velocity": 114,
      "chip": "ym2612"
    },
    {
      "channel": 0,
      "note": 81,
      "start": 17.4045,
      "duration": 0.0125,
      "velocity": 103,
      "chip": "ym2612"
    },
    {
      "channel": 2,
      "note": 40,
      "start": 17.4076,
      "duration": 0.0122,
      "velocity": 114,
      "chip": "ym2612"
    },
    {
      "channel": 0,
      "note": 81,
      "start": 17.417,
      "duration": 0.0126,
      "velocity": 103,
      "chip": "ym2612"
    },
    {
      "channel": 2,
      "note": 40,
      "start": 17.4198,
      "duration": 0.0131,
      "velocity": 114,
      "chip": "ym2612"
    },
    {
      "channel": 0,
      "note": 81,
      "start": 17.4295,
      "duration": 0.0125,
      "velocity": 103,
      "chip": "ym2612"
    },
    {
      "channel": 2,
      "note": 40,
      "start": 17.4329,
      "duration": 0.0125,
      "velocity": 114,
      "chip": "ym2612"
    },
    {
      "channel": 0,
      "note": 81,
      "start": 17.442,
      "duration": 0.0125,
      "velocity": 103,
      "chip": "ym2612"
    },
    {
      "channel": 2,
      "note": 40,
      "start": 17.4454,
      "duration": 0.0128,
      "velocity": 114,
      "chip": "ym2612"
    },
    {
      "channel": 0,
      "note": 81,
      "start": 17.4545,
      "duration": 0.0125,
      "velocity": 103,
      "chip": "ym2612"
    },
    {
      "channel": 5,
      "note": 81,
      "start": 17.4569,
      "duration": 0.0144,
      "velocity": 103,
      "chip": "ym2612"
    },
    {
      "channel": 2,
      "note": 40,
      "start": 17.4582,
      "duration": 0.0142,
      "velocity": 114,
      "chip": "ym2612"
    },
    {
      "channel": 0,
      "note": 81,
      "start": 17.467,
      "duration": 0.0126,
      "velocity": 103,
      "chip": "ym2612"
    },
    {
      "channel": 1,
      "note": 53,
      "start": 17.4684,
      "duration": 0.0994,
      "velocity": 81,
      "chip": "ym2612"
    },
    {
      "channel": 5,
      "note": 81,
      "start": 17.4713,
      "duration": 0.0106,
      "velocity": 103,
      "chip": "ym2612"
    },
    {
      "channel": 0,
      "note": 81,
      "start": 17.4795,
      "duration": 0.0125,
      "velocity": 103,
      "chip": "ym2612"
    },
    {
      "channel": 5,
      "note": 81,
      "start": 17.4819,
      "duration": 0.0131,
      "velocity": 103,
      "chip": "ym2612"
    },
    {
      "channel": 2,
      "note": 41,
      "start": 17.487,
      "duration": 0.1872,
      "velocity": 122,
      "chip": "ym2612"
    },
    {
      "channel": 0,
      "note": 81,
      "start": 17.492,
      "duration": 0.0125,
      "velocity": 103,
      "chip": "ym2612"
    },
    {
      "channel": 5,
      "note": 81,
      "start": 17.495,
      "duration": 0.0119,
      "velocity": 103,
      "chip": "ym2612"
    },
    {
      "channel": 0,
      "note": 81,
      "start": 17.5045,
      "duration": 0.0125,
      "velocity": 103,
      "chip": "ym2612"
    },
    {
      "channel": 5,
      "note": 81,
      "start": 17.5069,
      "duration": 0.0125,
      "velocity": 103,
      "chip": "ym2612"
    },
    {
      "channel": 0,
      "note": 81,
      "start": 17.517,
      "duration": 0.0126,
      "velocity": 103,
      "chip": "ym2612"
    },
    {
      "channel": 5,
      "note": 81,
      "start": 17.5194,
      "duration": 0.0126,
      "velocity": 103,
      "chip": "ym2612"
    },
    {
      "channel": 0,
      "note": 81,
      "start": 17.5295,
      "duration": 0.0125,
      "velocity": 103,
      "chip": "ym2612"
    },
    {
      "channel": 5,
      "note": 81,
      "start": 17.532,
      "duration": 0.013,
      "velocity": 103,
      "chip": "ym2612"
    },
    {
      "channel": 0,
      "note": 81,
      "start": 17.542,
      "duration": 0.0125,
      "velocity": 103,
      "chip": "ym2612"
    },
    {
      "channel": 5,
      "note": 81,
      "start": 17.545,
      "duration": 0.0119,
      "velocity": 103,
      "chip": "ym2612"
    },
    {
      "channel": 0,
      "note": 81,
      "start": 17.5545,
      "duration": 0.0125,
      "velocity": 103,
      "chip": "ym2612"
    },
    {
      "channel": 5,
      "note": 81,
      "start": 17.5569,
      "duration": 0.013,
      "velocity": 103,
      "chip": "ym2612"
    },
    {
      "channel": 0,
      "note": 81,
      "start": 17.567,
      "duration": 0.0126,
      "velocity": 103,
      "chip": "ym2612"
    },
    {
      "channel": 5,
      "note": 81,
      "start": 17.5699,
      "duration": 0.012,
      "velocity": 103,
      "chip": "ym2612"
    },
    {
      "channel": 0,
      "note": 81,
      "start": 17.5795,
      "duration": 0.0125,
      "velocity": 103,
      "chip": "ym2612"
    },
    {
      "channel": 5,
      "note": 81,
      "start": 17.5819,
      "duration": 0.0131,
      "velocity": 103,
      "chip": "ym2612"
    },
    {
      "channel": 0,
      "note": 81,
      "start": 17.592,
      "duration": 0.0125,
      "velocity": 103,
      "chip": "ym2612"
    },
    {
      "channel": 5,
      "note": 81,
      "start": 17.595,
      "duration": 0.0119,
      "velocity": 103,
      "chip": "ym2612"
    },
    {
      "channel": 0,
      "note": 81,
      "start": 17.6045,
      "duration": 0.0125,
      "velocity": 103,
      "chip": "ym2612"
    },
    {
      "channel": 5,
      "note": 81,
      "start": 17.6069,
      "duration": 0.0125,
      "velocity": 103,
      "chip": "ym2612"
    },
    {
      "channel": 0,
      "note": 81,
      "start": 17.617,
      "duration": 0.0126,
      "velocity": 103,
      "chip": "ym2612"
    },
    {
      "channel": 5,
      "note": 81,
      "start": 17.6194,
      "duration": 0.0125,
      "velocity": 103,
      "chip": "ym2612"
    },
    {
      "channel": 0,
      "note": 81,
      "start": 17.6295,
      "duration": 0.0125,
      "velocity": 103,
      "chip": "ym2612"
    },
    {
      "channel": 5,
      "note": 81,
      "start": 17.6319,
      "duration": 0.0131,
      "velocity": 103,
      "chip": "ym2612"
    },
    {
      "channel": 0,
      "note": 81,
      "start": 17.642,
      "duration": 0.0125,
      "velocity": 103,
      "chip": "ym2612"
    },
    {
      "channel": 5,
      "note": 81,
      "start": 17.645,
      "duration": 0.0119,
      "velocity": 103,
      "chip": "ym2612"
    },
    {
      "channel": 0,
      "note": 81,
      "start": 17.6545,
      "duration": 0.0125,
      "velocity": 103,
      "chip": "ym2612"
    },
    {
      "channel": 5,
      "note": 81,
      "start": 17.6569,
      "duration": 0.0144,
      "velocity": 103,
      "chip": "ym2612"
    },
    {
      "channel": 0,
      "note": 81,
      "start": 17.667,
      "duration": 0.0126,
      "velocity": 103,
      "chip": "ym2612"
    },
    {
      "channel": 1,
      "note": 53,
      "start": 17.6684,
      "duration": 0.062,
      "velocity": 81,
      "chip": "ym2612"
    },
    {
      "channel": 5,
      "note": 81,
      "start": 17.6713,
      "duration": 0.0106,
      "velocity": 103,
      "chip": "ym2612"
    },
    {
      "channel": 2,
      "note": 40,
      "start": 17.6769,
      "duration": 0.0063,
      "velocity": 114,
      "chip": "ym2612"
    },
    {
      "channel": 0,
      "note": 81,
      "start": 17.6795,
      "duration": 0.0125,
      "velocity": 103,
      "chip": "ym2612"
    },
    {
      "channel": 5,
      "note": 81,
      "start": 17.6819,
      "duration": 0.0131,
      "velocity": 103,
      "chip": "ym2612"
    },
    {
      "channel": 2,
      "note": 40,
      "start": 17.6832,
      "duration": 0.0131,
      "velocity": 114,
      "chip": "ym2612"
    },
    {
      "channel": 0,
      "note": 81,
      "start": 17.692,
      "duration": 0.0125,
      "velocity": 103,
      "chip": "ym2612"
    },
    {
      "channel": 5,
      "note": 81,
      "start": 17.695,
      "duration": 0.0119,
      "velocity": 103,
      "chip": "ym2612"
    },
    {
      "channel": 2,
      "note": 40,
      "start": 17.6963,
      "duration": 0.0123,
      "velocity": 114,
      "chip": "ym2612"
    },
    {
      "channel": 0,
      "note": 81,
      "start": 17.7045,
      "duration": 0.0125,
      "velocity": 103,
      "chip": "ym2612"
    },
    {
      "channel": 5,
      "note": 81,
      "start": 17.7069,
      "duration": 0.0125,
      "velocity": 103,
      "chip": "ym2612"
    },
    {
      "channel": 2,
      "note": 40,
      "start": 17.7085,
      "duration": 0.0121,
      "velocity": 114,
      "chip": "ym2612"
    },
    {
      "channel": 0,
      "note": 81,
      "start": 17.717,
      "duration": 0.0126,
      "velocity": 103,
      "chip": "ym2612"
    },
    {
      "channel": 5,
      "note": 81,
      "start": 17.7194,
      "duration": 0.0131,
      "velocity": 103,
      "chip": "ym2612"
    },
    {
      "channel": 2,
      "note": 40,
      "start": 17.7206,
      "duration": 0.0131,
      "velocity": 114,
      "chip": "ym2612"
    },
    {
      "channel": 0,
      "note": 81,
      "start": 17.7295,
      "duration": 0.0125,
      "velocity": 103,
      "chip": "ym2612"
    },
    {
      "channel": 5,
      "note": 81,
      "start": 17.7325,
      "duration": 0.0125,
      "velocity": 103,
      "chip": "ym2612"
    },
    {
      "channel": 2,
      "note": 40,
      "start": 17.7337,
      "duration": 0.0125,
      "velocity": 114,
      "chip": "ym2612"
    },
    {
      "channel": 0,
      "note": 81,
      "start": 17.742,
      "duration": 0.0125,
      "velocity": 103,
      "chip": "ym2612"
    },
    {
      "channel": 5,
      "note": 81,
      "start": 17.745,
      "duration": 0.0119,
      "velocity": 103,
      "chip": "ym2612"
    },
    {
      "channel": 2,
      "note": 40,
      "start": 17.7463,
      "duration": 0.0119,
      "velocity": 114,
      "chip": "ym2612"
    },
    {
      "channel": 0,
      "note": 81,
      "start": 17.7545,
      "duration": 0.0125,
      "velocity": 103,
      "chip": "ym2612"
    },
    {
      "channel": 5,
      "note": 81,
      "start": 17.7569,
      "duration": 0.0144,
      "velocity": 103,
      "chip": "ym2612"
    },
    {
      "channel": 2,
      "note": 40,
      "start": 17.7582,
      "duration": 0.0142,
      "velocity": 114,
      "chip": "ym2612"
    },
    {
      "channel": 0,
      "note": 81,
      "start": 17.767,
      "duration": 0.0126,
      "velocity": 103,
      "chip": "ym2612"
    },
    {
      "channel": 1,
      "note": 53,
      "start": 17.7684,
      "duration": 0.112,
      "velocity": 81,
      "chip": "ym2612"
    },
    {
      "channel": 5,
      "note": 81,
      "start": 17.7713,
      "duration": 0.0106,
      "velocity": 103,
      "chip": "ym2612"
    },
    {
      "channel": 0,
      "note": 81,
      "start": 17.7795,
      "duration": 0.0125,
      "velocity": 103,
      "chip": "ym2612"
    },
    {
      "channel": 5,
      "note": 81,
      "start": 17.7819,
      "duration": 0.0131,
      "velocity": 103,
      "chip": "ym2612"
    },
    {
      "channel": 2,
      "note": 40,
      "start": 17.7841,
      "duration": 0.0122,
      "velocity": 114,
      "chip": "ym2612"
    },
    {
      "channel": 0,
      "note": 81,
      "start": 17.792,
      "duration": 0.0125,
      "velocity": 103,
      "chip": "ym2612"
    },
    {
      "channel": 5,
      "note": 81,
      "start": 17.795,
      "duration": 0.0119,
      "velocity": 103,
      "chip": "ym2612"
    },
    {
      "channel": 2,
      "note": 40,
      "start": 17.7963,
      "duration": 0.0119,
      "velocity": 114,
      "chip": "ym2612"
    },
    {
      "channel": 0,
      "note": 81,
      "start": 17.8045,
      "duration": 0.0125,
      "velocity": 103,
      "chip": "ym2612"
    },
    {
      "channel": 5,
      "note": 81,
      "start": 17.8069,
      "duration": 0.0125,
      "velocity": 103,
      "chip": "ym2612"
    },
    {
      "channel": 2,
      "note": 40,
      "start": 17.8082,
      "duration": 0.0128,
      "velocity": 114,
      "chip": "ym2612"
    },
    {
      "channel": 0,
      "note": 81,
      "start": 17.817,
      "duration": 0.0126,
      "velocity": 103,
      "chip": "ym2612"
    },
    {
      "channel": 5,
      "note": 81,
      "start": 17.8194,
      "duration": 0.0125,
      "velocity": 103,
      "chip": "ym2612"
    },
    {
      "channel": 2,
      "note": 40,
      "start": 17.821,
      "duration": 0.0122,
      "velocity": 114,
      "chip": "ym2612"
    },
    {
      "channel": 0,
      "note": 81,
      "start": 17.8295,
      "duration": 0.0125,
      "velocity": 103,
      "chip": "ym2612"
    },
    {
      "channel": 5,
      "note": 81,
      "start": 17.8319,
      "duration": 0.0131,
      "velocity": 103,
      "chip": "ym2612"
    },
    {
      "channel": 2,
      "note": 40,
      "start": 17.8332,
      "duration": 0.0131,
      "velocity": 114,
      "chip": "ym2612"
    },
    {
      "channel": 0,
      "note": 81,
      "start": 17.842,
      "duration": 0.0125,
      "velocity": 103,
      "chip": "ym2612"
    },
    {
      "channel": 5,
      "note": 81,
      "start": 17.845,
      "duration": 0.0119,
      "velocity": 103,
      "chip": "ym2612"
    },
    {
      "channel": 2,
      "note": 40,
      "start": 17.8463,
      "duration": 0.0119,
      "velocity": 114,
      "chip": "ym2612"
    },
    {
      "channel": 0,
      "note": 81,
      "start": 17.8545,
      "duration": 0.0125,
      "velocity": 103,
      "chip": "ym2612"
    },
    {
      "channel": 5,
      "note": 81,
      "start": 17.8569,
      "duration": 0.0125,
      "velocity": 103,
      "chip": "ym2612"
    },
    {
      "channel": 2,
      "note": 40,
      "start": 17.8582,
      "duration": 0.0124,
      "velocity": 114,
      "chip": "ym2612"
    },
    {
      "channel": 0,
      "note": 81,
      "start": 17.867,
      "duration": 0.0126,
      "velocity": 103,
      "chip": "ym2612"
    },
    {
      "channel": 5,
      "note": 81,
      "start": 17.8694,
      "duration": 0.0131,
      "velocity": 103,
      "chip": "ym2612"
    },
    {
      "channel": 2,
      "note": 40,
      "start": 17.8706,
      "duration": 0.0131,
      "velocity": 114,
      "chip": "ym2612"
    },
    {
      "channel": 0,
      "note": 81,
      "start": 17.8795,
      "duration": 0.0125,
      "velocity": 103,
      "chip": "ym2612"
    },
    {
      "channel": 5,
      "note": 81,
      "start": 17.8825,
      "duration": 0.0125,
      "velocity": 103,
      "chip": "ym2612"
    },
    {
      "channel": 2,
      "note": 40,
      "start": 17.8837,
      "duration": 0.0125,
      "velocity": 114,
      "chip": "ym2612"
    },
    {
      "channel": 0,
      "note": 81,
      "start": 17.892,
      "duration": 0.0125,
      "velocity": 103,
      "chip": "ym2612"
    },
    {
      "channel": 5,
      "note": 81,
      "start": 17.895,
      "duration": 0.0119,
      "velocity": 103,
      "chip": "ym2612"
    },
    {
      "channel": 2,
      "note": 40,
      "start": 17.8963,
      "duration": 0.0119,
      "velocity": 114,
      "chip": "ym2612"
    },
    {
      "channel": 0,
      "note": 81,
      "start": 17.9045,
      "duration": 0.0125,
      "velocity": 103,
      "chip": "ym2612"
    },
    {
      "channel": 5,
      "note": 81,
      "start": 17.9069,
      "duration": 0.0125,
      "velocity": 103,
      "chip": "ym2612"
    },
    {
      "channel": 2,
      "note": 39,
      "start": 17.9082,
      "duration": 0.0124,
      "velocity": 114,
      "chip": "ym2612"
    },
    {
      "channel": 0,
      "note": 81,
      "start": 17.917,
      "duration": 0.0126,
      "velocity": 103,
      "chip": "ym2612"
    },
    {
      "channel": 5,
      "note": 81,
      "start": 17.9194,
      "duration": 0.0125,
      "velocity": 103,
      "chip": "ym2612"
    },
    {
      "channel": 0,
      "note": 81,
      "start": 17.9295,
      "duration": 0.0125,
      "velocity": 103,
      "chip": "ym2612"
    },
    {
      "channel": 5,
      "note": 81,
      "start": 17.9319,
      "duration": 0.0131,
      "velocity": 103,
      "chip": "ym2612"
    },
    {
      "channel": 0,
      "note": 81,
      "start": 17.942,
      "duration": 0.0125,
      "velocity": 103,
      "chip": "ym2612"
    },
    {
      "channel": 5,
      "note": 81,
      "start": 17.945,
      "duration": 0.0119,
      "velocity": 103,
      "chip": "ym2612"
    },
    {
      "channel": 0,
      "note": 81,
      "start": 17.9545,
      "duration": 0.0125,
      "velocity": 103,
      "chip": "ym2612"
    },
    {
      "channel": 5,
      "note": 81,
      "start": 17.9569,
      "duration": 0.0125,
      "velocity": 103,
      "chip": "ym2612"
    },
    {
      "channel": 0,
      "note": 81,
      "start": 17.967,
      "duration": 0.0126,
      "velocity": 103,
      "chip": "ym2612"
    },
    {
      "channel": 5,
      "note": 81,
      "start": 17.9694,
      "duration": 0.0145,
      "velocity": 103,
      "chip": "ym2612"
    },
    {
      "channel": 0,
      "note": 81,
      "start": 17.9795,
      "duration": 0.0125,
      "velocity": 103,
      "chip": "ym2612"
    },
    {
      "channel": 1,
      "note": 53,
      "start": 17.981,
      "duration": 0.0619,
      "velocity": 81,
      "chip": "ym2612"
    },
    {
      "channel": 5,
      "note": 81,
      "start": 17.9839,
      "duration": 0.0111,
      "velocity": 103,
      "chip": "ym2612"
    },
    {
      "channel": 2,
      "note": 40,
      "start": 17.9866,
      "duration": 0.0097,
      "velocity": 114,
      "chip": "ym2612"
    },
    {
      "channel": 0,
      "note": 81,
      "start": 17.992,
      "duration": 0.0125,
      "velocity": 103,
      "chip": "ym2612"
    },
    {
      "channel": 5,
      "note": 81,
      "start": 17.995,
      "duration": 0.0119,
      "velocity": 103,
      "chip": "ym2612"
    },
    {
      "channel": 2,
      "note": 40,
      "start": 17.9963,
      "duration": 0.0119,
      "velocity": 114,
      "chip": "ym2612"
    },
    {
      "channel": 0,
      "note": 81,
      "start": 18.0045,
      "duration": 0.0125,
      "velocity": 103,
      "chip": "ym2612"
    },
    {
      "channel": 5,
      "note": 81,
      "start": 18.0069,
      "duration": 0.0125,
      "velocity": 103,
      "chip": "ym2612"
    },
    {
      "channel": 2,
      "note": 40,
      "start": 18.0082,
      "duration": 0.0128,
      "velocity": 114,
      "chip": "ym2612"
    },
    {
      "channel": 0,
      "note": 81,
      "start": 18.017,
      "duration": 0.0126,
      "velocity": 103,
      "chip": "ym2612"
    },
    {
      "channel": 5,
      "note": 81,
      "start": 18.0194,
      "duration": 0.0125,
      "velocity": 103,
      "chip": "ym2612"
    },
    {
      "channel": 2,
      "note": 40,
      "start": 18.021,
      "duration": 0.0122,
      "velocity": 114,
      "chip": "ym2612"
    },
    {
      "channel": 0,
      "note": 81,
      "start": 18.0295,
      "duration": 0.0125,
      "velocity": 103,
      "chip": "ym2612"
    },
    {
      "channel": 5,
      "note": 81,
      "start": 18.0319,
      "duration": 0.0137,
      "velocity": 103,
      "chip": "ym2612"
    },
    {
      "channel": 2,
      "note": 40,
      "start": 18.0332,
      "duration": 0.0137,
      "velocity": 114,
      "chip": "ym2612"
    },
    {
      "channel": 0,
      "note": 81,
      "start": 18.042,
      "duration": 0.0125,
      "velocity": 103,
      "chip": "ym2612"
    },
    {
      "channel": 5,
      "note": 81,
      "start": 18.0456,
      "duration": 0.0113,
      "velocity": 103,
      "chip": "ym2612"
    },
    {
      "channel": 2,
      "note": 40,
      "start": 18.0468,
      "duration": 0.0113,
      "velocity": 114,
      "chip": "ym2612"
    },
    {
      "channel": 0,
      "note": 81,
      "start": 18.0545,
      "duration": 0.0125,
      "velocity": 103,
      "chip": "ym2612"
    },
    {
      "channel": 5,
      "note": 81,
      "start": 18.0569,
      "duration": 0.0125,
      "velocity": 103,
      "chip": "ym2612"
    },
    {
      "channel": 2,
      "note": 40,
      "start": 18.0582,
      "duration": 0.0125,
      "velocity": 114,
      "chip": "ym2612"
    },
    {
      "channel": 0,
      "note": 81,
      "start": 18.067,
      "duration": 0.0125,
      "velocity": 103,
      "chip": "ym2612"
    },
    {
      "channel": 5,
      "note": 81,
      "start": 18.0694,
      "duration": 0.0144,
      "velocity": 103,
      "chip": "ym2612"
    },
    {
      "channel": 2,
      "note": 40,
      "start": 18.0707,
      "duration": 0.0143,
      "velocity": 114,
      "chip": "ym2612"
    },
    {
      "channel": 0,
      "note": 81,
      "start": 18.0795,
      "duration": 0.0125,
      "velocity": 103,
      "chip": "ym2612"
    },
    {
      "channel": 1,
      "note": 53,
      "start": 18.081,
      "duration": 0.0994,
      "velocity": 81,
      "chip": "ym2612"
    },
    {
      "channel": 5,
      "note": 81,
      "start": 18.0839,
      "duration": 0.0111,
      "velocity": 103,
      "chip": "ym2612"
    },
    {
      "channel": 0,
      "note": 81,
      "start": 18.092,
      "duration": 0.0125,
      "velocity": 103,
      "chip": "ym2612"
    },
    {
      "channel": 5,
      "note": 81,
      "start": 18.095,
      "duration": 0.0119,
      "velocity": 103,
      "chip": "ym2612"
    },
    {
      "channel": 2,
      "note": 40,
      "start": 18.0972,
      "duration": 0.011,
      "velocity": 114,
      "chip": "ym2612"
    },
    {
      "channel": 0,
      "note": 81,
      "start": 18.1045,
      "duration": 0.0125,
      "velocity": 103,
      "chip": "ym2612"
    },
    {
      "channel": 5,
      "note": 81,
      "start": 18.1069,
      "duration": 0.0125,
      "velocity": 103,
      "chip": "ym2612"
    },
    {
      "channel": 2,
      "note": 40,
      "start": 18.1082,
      "duration": 0.0124,
      "velocity": 114,
      "chip": "ym2612"
    },
    {
      "channel": 0,
      "note": 81,
      "start": 18.117,
      "duration": 0.0126,
      "velocity": 103,
      "chip": "ym2612"
    },
    {
      "channel": 5,
      "note": 81,
      "start": 18.1194,
      "duration": 0.0125,
      "velocity": 103,
      "chip": "ym2612"
    },
    {
      "channel": 2,
      "note": 40,
      "start": 18.1206,
      "duration": 0.0129,
      "velocity": 114,
      "chip": "ym2612"
    },
    {
      "channel": 0,
      "note": 81,
      "start": 18.1295,
      "duration": 0.0125,
      "velocity": 103,
      "chip": "ym2612"
    },
    {
      "channel": 5,
      "note": 81,
      "start": 18.1319,
      "duration": 0.0131,
      "velocity": 103,
      "chip": "ym2612"
    },
    {
      "channel": 2,
      "note": 40,
      "start": 18.1336,
      "duration": 0.0127,
      "velocity": 114,
      "chip": "ym2612"
    },
    {
      "channel": 0,
      "note": 81,
      "start": 18.142,
      "duration": 0.0125,
      "velocity": 103,
      "chip": "ym2612"
    },
    {
      "channel": 5,
      "note": 81,
      "start": 18.145,
      "duration": 0.0119,
      "velocity": 103,
      "chip": "ym2612"
    },
    {
      "channel": 2,
      "note": 40,
      "start": 18.1463,
      "duration": 0.0119,
      "velocity": 114,
      "chip": "ym2612"
    },
    {
      "channel": 0,
      "note": 81,
      "start": 18.1545,
      "duration": 0.0125,
      "velocity": 103,
      "chip": "ym2612"
    },
    {
      "channel": 5,
      "note": 81,
      "start": 18.1569,
      "duration": 0.0125,
      "velocity": 103,
      "chip": "ym2612"
    },
    {
      "channel": 2,
      "note": 40,
      "start": 18.1582,
      "duration": 0.0124,
      "velocity": 114,
      "chip": "ym2612"
    },
    {
      "channel": 0,
      "note": 81,
      "start": 18.167,
      "duration": 0.0125,
      "velocity": 103,
      "chip": "ym2612"
    },
    {
      "channel": 5,
      "note": 81,
      "start": 18.1694,
      "duration": 0.0131,
      "velocity": 103,
      "chip": "ym2612"
    },
    {
      "channel": 2,
      "note": 40,
      "start": 18.1706,
      "duration": 0.0131,
      "velocity": 114,
      "chip": "ym2612"
    },
    {
      "channel": 0,
      "note": 81,
      "start": 18.1795,
      "duration": 0.0125,
      "velocity": 103,
      "chip": "ym2612"
    },
    {
      "channel": 5,
      "note": 81,
      "start": 18.1825,
      "duration": 0.0125,
      "velocity": 103,
      "chip": "ym2612"
    },
    {
      "channel": 2,
      "note": 40,
      "start": 18.1837,
      "duration": 0.0125,
      "velocity": 114,
      "chip": "ym2612"
    },
    {
      "channel": 0,
      "note": 81,
      "start": 18.192,
      "duration": 0.0125,
      "velocity": 103,
      "chip": "ym2612"
    },
    {
      "channel": 5,
      "note": 81,
      "start": 18.195,
      "duration": 0.0119,
      "velocity": 103,
      "chip": "ym2612"
    },
    {
      "channel": 2,
      "note": 40,
      "start": 18.1963,
      "duration": 0.0119,
      "velocity": 114,
      "chip": "ym2612"
    },
    {
      "channel": 0,
      "note": 81,
      "start": 18.2045,
      "duration": 0.0125,
      "velocity": 103,
      "chip": "ym2612"
    },
    {
      "channel": 5,
      "note": 81,
      "start": 18.2069,
      "duration": 0.0125,
      "velocity": 103,
      "chip": "ym2612"
    },
    {
      "channel": 2,
      "note": 40,
      "start": 18.2082,
      "duration": 0.0125,
      "velocity": 114,
      "chip": "ym2612"
    },
    {
      "channel": 0,
      "note": 81,
      "start": 18.217,
      "duration": 0.0125,
      "velocity": 103,
      "chip": "ym2612"
    },
    {
      "channel": 5,
      "note": 81,
      "start": 18.2194,
      "duration": 0.0125,
      "velocity": 103,
      "chip": "ym2612"
    },
    {
      "channel": 2,
      "note": 39,
      "start": 18.2207,
      "duration": 0.0124,
      "velocity": 114,
      "chip": "ym2612"
    },
    {
      "channel": 0,
      "note": 81,
      "start": 18.2295,
      "duration": 0.0125,
      "velocity": 103,
      "chip": "ym2612"
    },
    {
      "channel": 5,
      "note": 81,
      "start": 18.2319,
      "duration": 0.0131,
      "velocity": 103,
      "chip": "ym2612"
    },
    {
      "channel": 0,
      "note": 81,
      "start": 18.242,
      "duration": 0.0125,
      "velocity": 103,
      "chip": "ym2612"
    },
    {
      "channel": 5,
      "note": 81,
      "start": 18.245,
      "duration": 0.0119,
      "velocity": 103,
      "chip": "ym2612"
    },
    {
      "channel": 0,
      "note": 81,
      "start": 18.2545,
      "duration": 0.0125,
      "velocity": 103,
      "chip": "ym2612"
    },
    {
      "channel": 5,
      "note": 81,
      "start": 18.2569,
      "duration": 0.0125,
      "velocity": 103,
      "chip": "ym2612"
    },
    {
      "channel": 0,
      "note": 81,
      "start": 18.267,
      "duration": 0.0126,
      "velocity": 103,
      "chip": "ym2612"
    },
    {
      "channel": 5,
      "note": 81,
      "start": 18.2694,
      "duration": 0.0145,
      "velocity": 103,
      "chip": "ym2612"
    },
    {
      "channel": 0,
      "note": 81,
      "start": 18.2795,
      "duration": 0.0125,
      "velocity": 103,
      "chip": "ym2612"
    },
    {
      "channel": 1,
      "note": 53,
      "start": 18.281,
      "duration": 0.0994,
      "velocity": 81,
      "chip": "ym2612"
    },
    {
      "channel": 5,
      "note": 81,
      "start": 18.2839,
      "duration": 0.0111,
      "velocity": 103,
      "chip": "ym2612"
    },
    {
      "channel": 2,
      "note": 41,
      "start": 18.2893,
      "duration": 0.1974,
      "velocity": 122,
      "chip": "ym2612"
    },
    {
      "channel": 0,
      "note": 81,
      "start": 18.292,
      "duration": 0.0125,
      "velocity": 103,
      "chip": "ym2612"
    },
    {
      "channel": 5,
      "note": 81,
      "start": 18.295,
      "duration": 0.0119,
      "velocity": 103,
      "chip": "ym2612"
    },
    {
      "channel": 0,
      "note": 81,
      "start": 18.3045,
      "duration": 0.0125,
      "velocity": 103,
      "chip": "ym2612"
    },
    {
      "channel": 5,
      "note": 81,
      "start": 18.3069,
      "duration": 0.0125,
      "velocity": 103,
      "chip": "ym2612"
    },
    {
      "channel": 0,
      "note": 81,
      "start": 18.317,
      "duration": 0.0126,
      "velocity": 103,
      "chip": "ym2612"
    },
    {
      "channel": 5,
      "note": 81,
      "start": 18.3194,
      "duration": 0.0125,
      "velocity": 103,
      "chip": "ym2612"
    },
    {
      "channel": 0,
      "note": 81,
      "start": 18.3295,
      "duration": 0.0125,
      "velocity": 103,
      "chip": "ym2612"
    },
    {
      "channel": 5,
      "note": 81,
      "start": 18.3319,
      "duration": 0.0131,
      "velocity": 103,
      "chip": "ym2612"
    },
    {
      "channel": 0,
      "note": 81,
      "start": 18.342,
      "duration": 0.0125,
      "velocity": 103,
      "chip": "ym2612"
    },
    {
      "channel": 5,
      "note": 81,
      "start": 18.345,
      "duration": 0.012,
      "velocity": 103,
      "chip": "ym2612"
    },
    {
      "channel": 0,
      "note": 81,
      "start": 18.3545,
      "duration": 0.0125,
      "velocity": 103,
      "chip": "ym2612"
    },
    {
      "channel": 5,
      "note": 81,
      "start": 18.357,
      "duration": 0.0125,
      "velocity": 103,
      "chip": "ym2612"
    },
    {
      "channel": 0,
      "note": 81,
      "start": 18.367,
      "duration": 0.0125,
      "velocity": 103,
      "chip": "ym2612"
    },
    {
      "channel": 5,
      "note": 81,
      "start": 18.3694,
      "duration": 0.013,
      "velocity": 103,
      "chip": "ym2612"
    },
    {
      "channel": 0,
      "note": 81,
      "start": 18.3795,
      "duration": 0.0125,
      "velocity": 103,
      "chip": "ym2612"
    },
    {
      "channel": 5,
      "note": 81,
      "start": 18.3825,
      "duration": 0.0125,
      "velocity": 103,
      "chip": "ym2612"
    },
    {
      "channel": 0,
      "note": 81,
      "start": 18.392,
      "duration": 0.0125,
      "velocity": 103,
      "chip": "ym2612"
    },
    {
      "channel": 5,
      "note": 81,
      "start": 18.395,
      "duration": 0.0119,
      "velocity": 103,
      "chip": "ym2612"
    },
    {
      "channel": 0,
      "note": 81,
      "start": 18.4045,
      "duration": 0.0125,
      "velocity": 103,
      "chip": "ym2612"
    },
    {
      "channel": 5,
      "note": 81,
      "start": 18.4069,
      "duration": 0.0125,
      "velocity": 103,
      "chip": "ym2612"
    },
    {
      "channel": 0,
      "note": 81,
      "start": 18.417,
      "duration": 0.0126,
      "velocity": 103,
      "chip": "ym2612"
    },
    {
      "channel": 5,
      "note": 81,
      "start": 18.4194,
      "duration": 0.0125,
      "velocity": 103,
      "chip": "ym2612"
    },
    {
      "channel": 0,
      "note": 81,
      "start": 18.4295,
      "duration": 0.0125,
      "velocity": 103,
      "chip": "ym2612"
    },
    {
      "channel": 5,
      "note": 81,
      "start": 18.4319,
      "duration": 0.0131,
      "velocity": 103,
      "chip": "ym2612"
    },
    {
      "channel": 0,
      "note": 81,
      "start": 18.442,
      "duration": 0.0125,
      "velocity": 103,
      "chip": "ym2612"
    },
    {
      "channel": 5,
      "note": 81,
      "start": 18.445,
      "duration": 0.0119,
      "velocity": 103,
      "chip": "ym2612"
    },
    {
      "channel": 0,
      "note": 81,
      "start": 18.4545,
      "duration": 0.0125,
      "velocity": 103,
      "chip": "ym2612"
    },
    {
      "channel": 5,
      "note": 81,
      "start": 18.4569,
      "duration": 0.0125,
      "velocity": 103,
      "chip": "ym2612"
    },
    {
      "channel": 0,
      "note": 81,
      "start": 18.467,
      "duration": 0.0126,
      "velocity": 103,
      "chip": "ym2612"
    },
    {
      "channel": 5,
      "note": 81,
      "start": 18.4694,
      "duration": 0.0145,
      "velocity": 103,
      "chip": "ym2612"
    },
    {
      "channel": 0,
      "note": 81,
      "start": 18.4795,
      "duration": 0.0125,
      "velocity": 103,
      "chip": "ym2612"
    },
    {
      "channel": 1,
      "note": 53,
      "start": 18.481,
      "duration": 0.0994,
      "velocity": 81,
      "chip": "ym2612"
    },
    {
      "channel": 5,
      "note": 81,
      "start": 18.4839,
      "duration": 0.0111,
      "velocity": 103,
      "chip": "ym2612"
    },
    {
      "channel": 2,
      "note": 40,
      "start": 18.4894,
      "duration": 0.0069,
      "velocity": 114,
      "chip": "ym2612"
    },
    {
      "channel": 0,
      "note": 81,
      "start": 18.492,
      "duration": 0.0125,
      "velocity": 103,
      "chip": "ym2612"
    },
    {
      "channel": 5,
      "note": 81,
      "start": 18.495,
      "duration": 0.012,
      "velocity": 103,
      "chip": "ym2612"
    },
    {
      "channel": 2,
      "note": 40,
      "start": 18.4963,
      "duration": 0.012,
      "velocity": 114,
      "chip": "ym2612"
    },
    {
      "channel": 0,
      "note": 81,
      "start": 18.5045,
      "duration": 0.0125,
      "velocity": 103,
      "chip": "ym2612"
    },
    {
      "channel": 5,
      "note": 81,
      "start": 18.507,
      "duration": 0.0125,
      "velocity": 103,
      "chip": "ym2612"
    },
    {
      "channel": 2,
      "note": 40,
      "start": 18.5082,
      "duration": 0.0129,
      "velocity": 114,
      "chip": "ym2612"
    },
    {
      "channel": 0,
      "note": 81,
      "start": 18.517,
      "duration": 0.0125,
      "velocity": 103,
      "chip": "ym2612"
    },
    {
      "channel": 5,
      "note": 81,
      "start": 18.5194,
      "duration": 0.0125,
      "velocity": 103,
      "chip": "ym2612"
    },
    {
      "channel": 2,
      "note": 40,
      "start": 18.5211,
      "duration": 0.0121,
      "velocity": 114,
      "chip": "ym2612"
    },
    {
      "channel": 0,
      "note": 81,
      "start": 18.5295,
      "duration": 0.0125,
      "velocity": 103,
      "chip": "ym2612"
    },
    {
      "channel": 5,
      "note": 81,
      "start": 18.5319,
      "duration": 0.0131,
      "velocity": 103,
      "chip": "ym2612"
    },
    {
      "channel": 2,
      "note": 40,
      "start": 18.5332,
      "duration": 0.0131,
      "velocity": 114,
      "chip": "ym2612"
    },
    {
      "channel": 0,
      "note": 81,
      "start": 18.542,
      "duration": 0.0125,
      "velocity": 103,
      "chip": "ym2612"
    },
    {
      "channel": 5,
      "note": 81,
      "start": 18.545,
      "duration": 0.0119,
      "velocity": 103,
      "chip": "ym2612"
    },
    {
      "channel": 2,
      "note": 40,
      "start": 18.5463,
      "duration": 0.0119,
      "velocity": 114,
      "chip": "ym2612"
    },
    {
      "channel": 0,
      "note": 81,
      "start": 18.5545,
      "duration": 0.0125,
      "velocity": 103,
      "chip": "ym2612"
    },
    {
      "channel": 5,
      "note": 81,
      "start": 18.5569,
      "duration": 0.0125,
      "velocity": 103,
      "chip": "ym2612"
    },
    {
      "channel": 2,
      "note": 40,
      "start": 18.5582,
      "duration": 0.0124,
      "velocity": 114,
      "chip": "ym2612"
    },
    {
      "channel": 0,
      "note": 81,
      "start": 18.567,
      "duration": 0.0126,
      "velocity": 103,
      "chip": "ym2612"
    },
    {
      "channel": 5,
      "note": 81,
      "start": 18.5694,
      "duration": 0.0131,
      "velocity": 103,
      "chip": "ym2612"
    },
    {
      "channel": 2,
      "note": 40,
      "start": 18.5706,
      "duration": 0.0131,
      "velocity": 114,
      "chip": "ym2612"
    },
    {
      "channel": 0,
      "note": 81,
      "start": 18.5795,
      "duration": 0.0125,
      "velocity": 103,
      "chip": "ym2612"
    },
    {
      "channel": 5,
      "note": 81,
      "start": 18.5825,
      "duration": 0.0125,
      "velocity": 103,
      "chip": "ym2612"
    },
    {
      "channel": 2,
      "note": 40,
      "start": 18.5837,
      "duration": 0.0125,
      "velocity": 114,
      "chip": "ym2612"
    },
    {
      "channel": 0,
      "note": 81,
      "start": 18.592,
      "duration": 0.0125,
      "velocity": 103,
      "chip": "ym2612"
    },
    {
      "channel": 5,
      "note": 81,
      "start": 18.595,
      "duration": 0.0119,
      "velocity": 103,
      "chip": "ym2612"
    },
    {
      "channel": 2,
      "note": 40,
      "start": 18.5963,
      "duration": 0.0119,
      "velocity": 114,
      "chip": "ym2612"
    },
    {
      "channel": 0,
      "note": 81,
      "start": 18.6045,
      "duration": 0.0125,
      "velocity": 103,
      "chip": "ym2612"
    },
    {
      "channel": 5,
      "note": 81,
      "start": 18.6069,
      "duration": 0.0125,
      "velocity": 103,
      "chip": "ym2612"
    },
    {
      "channel": 2,
      "note": 39,
      "start": 18.6082,
      "duration": 0.0124,
      "velocity": 114,
      "chip": "ym2612"
    },
    {
      "channel": 0,
      "note": 81,
      "start": 18.617,
      "duration": 0.0126,
      "velocity": 103,
      "chip": "ym2612"
    },
    {
      "channel": 5,
      "note": 81,
      "start": 18.6194,
      "duration": 0.0125,
      "velocity": 103,
      "chip": "ym2612"
    },
    {
      "channel": 0,
      "note": 81,
      "start": 18.6295,
      "duration": 0.0125,
      "velocity": 103,
      "chip": "ym2612"
    },
    {
      "channel": 5,
      "note": 81,
      "start": 18.6319,
      "duration": 0.0131,
      "velocity": 103,
      "chip": "ym2612"
    },
    {
      "channel": 0,
      "note": 81,
      "start": 18.642,
      "duration": 0.0125,
      "velocity": 103,
      "chip": "ym2612"
    },
    {
      "channel": 5,
      "note": 81,
      "start": 18.645,
      "duration": 0.012,
      "velocity": 103,
      "chip": "ym2612"
    },
    {
      "channel": 0,
      "note": 81,
      "start": 18.6545,
      "duration": 0.0125,
      "velocity": 103,
      "chip": "ym2612"
    },
    {
      "channel": 5,
      "note": 81,
      "start": 18.657,
      "duration": 0.0125,
      "velocity": 103,
      "chip": "ym2612"
    },
    {
      "channel": 0,
      "note": 81,
      "start": 18.667,
      "duration": 0.0125,
      "velocity": 103,
      "chip": "ym2612"
    },
    {
      "channel": 5,
      "note": 81,
      "start": 18.6694,
      "duration": 0.0125,
      "velocity": 103,
      "chip": "ym2612"
    },
    {
      "channel": 0,
      "note": 81,
      "start": 18.6795,
      "duration": 0.0125,
      "velocity": 103,
      "chip": "ym2612"
    },
    {
      "channel": 5,
      "note": 81,
      "start": 18.6819,
      "duration": 0.015,
      "velocity": 103,
      "chip": "ym2612"
    },
    {
      "channel": 0,
      "note": 81,
      "start": 18.692,
      "duration": 0.0125,
      "velocity": 103,
      "chip": "ym2612"
    },
    {
      "channel": 1,
      "note": 53,
      "start": 18.6934,
      "duration": 0.0494,
      "velocity": 81,
      "chip": "ym2612"
    },
    {
      "channel": 5,
      "note": 81,
      "start": 18.6969,
      "duration": 0.01,
      "velocity": 103,
      "chip": "ym2612"
    },
    {
      "channel": 2,
      "note": 40,
      "start": 18.6996,
      "duration": 0.0086,
      "velocity": 114,
      "chip": "ym2612"
    },
    {
      "channel": 0,
      "note": 81,
      "start": 18.7045,
      "duration": 0.0125,
      "velocity": 103,
      "chip": "ym2612"
    },
    {
      "channel": 5,
      "note": 81,
      "start": 18.7069,
      "duration": 0.0125,
      "velocity": 103,
      "chip": "ym2612"
    },
    {
      "channel": 2,
      "note": 40,
      "start": 18.7082,
      "duration": 0.0124,
      "velocity": 114,
      "chip": "ym2612"
    },
    {
      "channel": 0,
      "note": 81,
      "start": 18.717,
      "duration": 0.0126,
      "velocity": 103,
      "chip": "ym2612"
    },
    {
      "channel": 5,
      "note": 81,
      "start": 18.7194,
      "duration": 0.0125,
      "velocity": 103,
      "chip": "ym2612"
    },
    {
      "channel": 2,
      "note": 40,
      "start": 18.7206,
      "duration": 0.0129,
      "velocity": 114,
      "chip": "ym2612"
    },
    {
      "channel": 0,
      "note": 81,
      "start": 18.7295,
      "duration": 0.0125,
      "velocity": 103,
      "chip": "ym2612"
    },
    {
      "channel": 5,
      "note": 81,
      "start": 18.7319,
      "duration": 0.0137,
      "velocity": 103,
      "chip": "ym2612"
    },
    {
      "channel": 2,
      "note": 40,
      "start": 18.7336,
      "duration": 0.0133,
      "velocity": 114,
      "chip": "ym2612"
    },
    {
      "channel": 0,
      "note": 81,
      "start": 18.742,
      "duration": 0.0125,
      "velocity": 103,
      "chip": "ym2612"
    },
    {
      "channel": 5,
      "note": 81,
      "start": 18.7456,
      "duration": 0.0113,
      "velocity": 103,
      "chip": "ym2612"
    },
    {
      "channel": 2,
      "note": 40,
      "start": 18.7468,
      "duration": 0.0113,
      "velocity": 114,
      "chip": "ym2612"
    },
    {
      "channel": 0,
      "note": 81,
      "start": 18.7545,
      "duration": 0.0125,
      "velocity": 103,
      "chip": "ym2612"
    },
    {
      "channel": 5,
      "note": 81,
      "start": 18.7569,
      "duration": 0.0125,
      "velocity": 103,
      "chip": "ym2612"
    },
    {
      "channel": 2,
      "note": 40,
      "start": 18.7582,
      "duration": 0.0124,
      "velocity": 114,
      "chip": "ym2612"
    },
    {
      "channel": 0,
      "note": 81,
      "start": 18.767,
      "duration": 0.0126,
      "velocity": 103,
      "chip": "ym2612"
    },
    {
      "channel": 5,
      "note": 81,
      "start": 18.7694,
      "duration": 0.0125,
      "velocity": 103,
      "chip": "ym2612"
    },
    {
      "channel": 2,
      "note": 40,
      "start": 18.7706,
      "duration": 0.0125,
      "velocity": 114,
      "chip": "ym2612"
    },
    {
      "channel": 0,
      "note": 81,
      "start": 18.7795,
      "duration": 0.0125,
      "velocity": 103,
      "chip": "ym2612"
    },
    {
      "channel": 5,
      "note": 81,
      "start": 18.7819,
      "duration": 0.015,
      "velocity": 103,
      "chip": "ym2612"
    },
    {
      "channel": 2,
      "note": 40,
      "start": 18.7832,
      "duration": 0.0149,
      "velocity": 114,
      "chip": "ym2612"
    },
    {
      "channel": 0,
      "note": 81,
      "start": 18.792,
      "duration": 0.0125,
      "velocity": 103,
      "chip": "ym2612"
    },
    {
      "channel": 1,
      "note": 53,
      "start": 18.7934,
      "duration": 0.0994,
      "velocity": 81,
      "chip": "ym2612"
    },
    {
      "channel": 5,
      "note": 81,
      "start": 18.7969,
      "duration": 0.01,
      "velocity": 103,
      "chip": "ym2612"
    },
    {
      "channel": 0,
      "note": 81,
      "start": 18.8045,
      "duration": 0.0125,
      "velocity": 103,
      "chip": "ym2612"
    },
    {
      "channel": 5,
      "note": 81,
      "start": 18.807,
      "duration": 0.0125,
      "velocity": 103,
      "chip": "ym2612"
    },
    {
      "channel": 2,
      "note": 41,
      "start": 18.8126,
      "duration": 0.1871,
      "velocity": 122,
      "chip": "ym2612"
    },
    {
      "channel": 0,
      "note": 81,
      "start": 18.817,
      "duration": 0.0125,
      "velocity": 103,
      "chip": "ym2612"
    },
    {
      "channel": 5,
      "note": 81,
      "start": 18.8194,
      "duration": 0.0125,
      "velocity": 103,
      "chip": "ym2612"
    },
    {
      "channel": 0,
      "note": 81,
      "start": 18.8295,
      "duration": 0.0125,
      "velocity": 103,
      "chip": "ym2612"
    },
    {
      "channel": 5,
      "note": 81,
      "start": 18.8319,
      "duration": 0.0131,
      "velocity": 103,
      "chip": "ym2612"
    },
    {
      "channel": 0,
      "note": 81,
      "start": 18.842,
      "duration": 0.0125,
      "velocity": 103,
      "chip": "ym2612"
    },
    {
      "channel": 5,
      "note": 81,
      "start": 18.845,
      "duration": 0.0119,
      "velocity": 103,
      "chip": "ym2612"
    },
    {
      "channel": 0,
      "note": 81,
      "start": 18.8545,
      "duration": 0.0125,
      "velocity": 103,
      "chip": "ym2612"
    },
    {
      "channel": 5,
      "note": 81,
      "start": 18.8569,
      "duration": 0.0125,
      "velocity": 103,
      "chip": "ym2612"
    },
    {
      "channel": 0,
      "note": 81,
      "start": 18.867,
      "duration": 0.0126,
      "velocity": 103,
      "chip": "ym2612"
    },
    {
      "channel": 5,
      "note": 81,
      "start": 18.8694,
      "duration": 0.0125,
      "velocity": 103,
      "chip": "ym2612"
    },
    {
      "channel": 0,
      "note": 81,
      "start": 18.8795,
      "duration": 0.0125,
      "velocity": 103,
      "chip": "ym2612"
    },
    {
      "channel": 5,
      "note": 81,
      "start": 18.8819,
      "duration": 0.0137,
      "velocity": 103,
      "chip": "ym2612"
    },
    {
      "channel": 0,
      "note": 81,
      "start": 18.892,
      "duration": 0.0125,
      "velocity": 103,
      "chip": "ym2612"
    },
    {
      "channel": 5,
      "note": 81,
      "start": 18.8956,
      "duration": 0.0113,
      "velocity": 103,
      "chip": "ym2612"
    },
    {
      "channel": 0,
      "note": 81,
      "start": 18.9045,
      "duration": 0.0125,
      "velocity": 103,
      "chip": "ym2612"
    },
    {
      "channel": 5,
      "note": 81,
      "start": 18.9069,
      "duration": 0.0125,
      "velocity": 103,
      "chip": "ym2612"
    },
    {
      "channel": 0,
      "note": 81,
      "start": 18.917,
      "duration": 0.0126,
      "velocity": 103,
      "chip": "ym2612"
    },
    {
      "channel": 5,
      "note": 81,
      "start": 18.9194,
      "duration": 0.0126,
      "velocity": 103,
      "chip": "ym2612"
    },
    {
      "channel": 0,
      "note": 81,
      "start": 18.9295,
      "duration": 0.0125,
      "velocity": 103,
      "chip": "ym2612"
    },
    {
      "channel": 5,
      "note": 81,
      "start": 18.932,
      "duration": 0.013,
      "velocity": 103,
      "chip": "ym2612"
    },
    {
      "channel": 0,
      "note": 81,
      "start": 18.942,
      "duration": 0.0125,
      "velocity": 103,
      "chip": "ym2612"
    },
    {
      "channel": 5,
      "note": 81,
      "start": 18.945,
      "duration": 0.012,
      "velocity": 103,
      "chip": "ym2612"
    },
    {
      "channel": 0,
      "note": 81,
      "start": 18.9545,
      "duration": 0.0125,
      "velocity": 103,
      "chip": "ym2612"
    },
    {
      "channel": 5,
      "note": 81,
      "start": 18.957,
      "duration": 0.0125,
      "velocity": 103,
      "chip": "ym2612"
    },
    {
      "channel": 0,
      "note": 81,
      "start": 18.967,
      "duration": 0.0125,
      "velocity": 103,
      "chip": "ym2612"
    },
    {
      "channel": 5,
      "note": 81,
      "start": 18.9694,
      "duration": 0.0125,
      "velocity": 103,
      "chip": "ym2612"
    },
    {
      "channel": 0,
      "note": 81,
      "start": 18.9795,
      "duration": 0.0125,
      "velocity": 103,
      "chip": "ym2612"
    },
    {
      "channel": 5,
      "note": 81,
      "start": 18.982,
      "duration": 0.0149,
      "velocity": 103,
      "chip": "ym2612"
    },
    {
      "channel": 0,
      "note": 81,
      "start": 18.992,
      "duration": 0.0125,
      "velocity": 103,
      "chip": "ym2612"
    },
    {
      "channel": 1,
      "note": 53,
      "start": 18.9934,
      "duration": 0.062,
      "velocity": 81,
      "chip": "ym2612"
    },
    {
      "channel": 5,
      "note": 81,
      "start": 18.9969,
      "duration": 0.01,
      "velocity": 103,
      "chip": "ym2612"
    },
    {
      "channel": 2,
      "note": 40,
      "start": 19.0024,
      "duration": 0.0057,
      "velocity": 114,
      "chip": "ym2612"
    },
    {
      "channel": 0,
      "note": 81,
      "start": 19.0045,
      "duration": 0.0125,
      "velocity": 103,
      "chip": "ym2612"
    },
    {
      "channel": 5,
      "note": 81,
      "start": 19.0069,
      "duration": 0.0125,
      "velocity": 103,
      "chip": "ym2612"
    },
    {
      "channel": 2,
      "note": 40,
      "start": 19.0082,
      "duration": 0.0124,
      "velocity": 114,
      "chip": "ym2612"
    },
    {
      "channel": 0,
      "note": 81,
      "start": 19.017,
      "duration": 0.0126,
      "velocity": 103,
      "chip": "ym2612"
    },
    {
      "channel": 5,
      "note": 81,
      "start": 19.0194,
      "duration": 0.0125,
      "velocity": 103,
      "chip": "ym2612"
    },
    {
      "channel": 2,
      "note": 40,
      "start": 19.0206,
      "duration": 0.0129,
      "velocity": 114,
      "chip": "ym2612"
    },
    {
      "channel": 0,
      "note": 81,
      "start": 19.0295,
      "duration": 0.0125,
      "velocity": 103,
      "chip": "ym2612"
    },
    {
      "channel": 5,
      "note": 81,
      "start": 19.0319,
      "duration": 0.0131,
      "velocity": 103,
      "chip": "ym2612"
    },
    {
      "channel": 2,
      "note": 40,
      "start": 19.0336,
      "duration": 0.0127,
      "velocity": 114,
      "chip": "ym2612"
    },
    {
      "channel": 0,
      "note": 81,
      "start": 19.042,
      "duration": 0.0125,
      "velocity": 103,
      "chip": "ym2612"
    },
    {
      "channel": 5,
      "note": 81,
      "start": 19.045,
      "duration": 0.0125,
      "velocity": 103,
      "chip": "ym2612"
    },
    {
      "channel": 2,
      "note": 40,
      "start": 19.0463,
      "duration": 0.0125,
      "velocity": 114,
      "chip": "ym2612"
    },
    {
      "channel": 0,
      "note": 81,
      "start": 19.0545,
      "duration": 0.0125,
      "velocity": 103,
      "chip": "ym2612"
    },
    {
      "channel": 5,
      "note": 81,
      "start": 19.0575,
      "duration": 0.0119,
      "velocity": 103,
      "chip": "ym2612"
    },
    {
      "channel": 2,
      "note": 40,
      "start": 19.0588,
      "duration": 0.0119,
      "velocity": 114,
      "chip": "ym2612"
    },
    {
      "channel": 0,
      "note": 81,
      "start": 19.067,
      "duration": 0.0126,
      "velocity": 103,
      "chip": "ym2612"
    },
    {
      "channel": 5,
      "note": 81,
      "start": 19.0694,
      "duration": 0.0125,
      "velocity": 103,
      "chip": "ym2612"
    },
    {
      "channel": 2,
      "note": 40,
      "start": 19.0706,
      "duration": 0.0125,
      "velocity": 114,
      "chip": "ym2612"
    },
    {
      "channel": 0,
      "note": 81,
      "start": 19.0795,
      "duration": 0.0125,
      "velocity": 103,
      "chip": "ym2612"
    },
    {
      "channel": 5,
      "note": 81,
      "start": 19.0819,
      "duration": 0.015,
      "velocity": 103,
      "chip": "ym2612"
    },
    {
      "channel": 2,
      "note": 40,
      "start": 19.0832,
      "duration": 0.0149,
      "velocity": 114,
      "chip": "ym2612"
    },
    {
      "channel": 0,
      "note": 81,
      "start": 19.092,
      "duration": 0.0125,
      "velocity": 103,
      "chip": "ym2612"
    },
    {
      "channel": 1,
      "note": 53,
      "start": 19.0934,
      "duration": 0.0995,
      "velocity": 81,
      "chip": "ym2612"
    },
    {
      "channel": 5,
      "note": 81,
      "start": 19.0969,
      "duration": 0.01,
      "velocity": 103,
      "chip": "ym2612"
    },
    {
      "channel": 0,
      "note": 81,
      "start": 19.1045,
      "duration": 0.0125,
      "velocity": 103,
      "chip": "ym2612"
    },
    {
      "channel": 5,
      "note": 81,
      "start": 19.107,
      "duration": 0.0125,
      "velocity": 103,
      "chip": "ym2612"
    },
    {
      "channel": 2,
      "note": 40,
      "start": 19.1092,
      "duration": 0.0115,
      "velocity": 114,
      "chip": "ym2612"
    },
    {
      "channel": 0,
      "note": 81,
      "start": 19.117,
      "duration": 0.0125,
      "velocity": 103,
      "chip": "ym2612"
    },
    {
      "channel": 5,
      "note": 81,
      "start": 19.1194,
      "duration": 0.0125,
      "velocity": 103,
      "chip": "ym2612"
    },
    {
      "channel": 2,
      "note": 40,
      "start": 19.1207,
      "duration": 0.0125,
      "velocity": 114,
      "chip": "ym2612"
    },
    {
      "channel": 0,
      "note": 81,
      "start": 19.1295,
      "duration": 0.0125,
      "velocity": 103,
      "chip": "ym2612"
    },
    {
      "channel": 5,
      "note": 81,
      "start": 19.1319,
      "duration": 0.0131,
      "velocity": 103,
      "chip": "ym2612"
    },
    {
      "channel": 2,
      "note": 40,
      "start": 19.1332,
      "duration": 0.0135,
      "velocity": 114,
      "chip": "ym2612"
    },
    {
      "channel": 0,
      "note": 81,
      "start": 19.142,
      "duration": 0.0125,
      "velocity": 103,
      "chip": "ym2612"
    },
    {
      "channel": 5,
      "note": 81,
      "start": 19.145,
      "duration": 0.0119,
      "velocity": 103,
      "chip": "ym2612"
    },
    {
      "channel": 2,
      "note": 40,
      "start": 19.1467,
      "duration": 0.0115,
      "velocity": 114,
      "chip": "ym2612"
    },
    {
      "channel": 0,
      "note": 81,
      "start": 19.1545,
      "duration": 0.0125,
      "velocity": 103,
      "chip": "ym2612"
    },
    {
      "channel": 5,
      "note": 81,
      "start": 19.1569,
      "duration": 0.0125,
      "velocity": 103,
      "chip": "ym2612"
    },
    {
      "channel": 2,
      "note": 40,
      "start": 19.1582,
      "duration": 0.0124,
      "velocity": 114,
      "chip": "ym2612"
    },
    {
      "channel": 0,
      "note": 81,
      "start": 19.167,
      "duration": 0.0126,
      "velocity": 103,
      "chip": "ym2612"
    },
    {
      "channel": 5,
      "note": 81,
      "start": 19.1694,
      "duration": 0.0125,
      "velocity": 103,
      "chip": "ym2612"
    },
    {
      "channel": 2,
      "note": 40,
      "start": 19.1706,
      "duration": 0.0125,
      "velocity": 114,
      "chip": "ym2612"
    },
    {
      "channel": 0,
      "note": 81,
      "start": 19.1795,
      "duration": 0.0125,
      "velocity": 103,
      "chip": "ym2612"
    },
    {
      "channel": 5,
      "note": 81,
      "start": 19.1819,
      "duration": 0.015,
      "velocity": 103,
      "chip": "ym2612"
    },
    {
      "channel": 2,
      "note": 40,
      "start": 19.1832,
      "duration": 0.0149,
      "velocity": 114,
      "chip": "ym2612"
    },
    {
      "channel": 0,
      "note": 81,
      "start": 19.192,
      "duration": 0.0125,
      "velocity": 103,
      "chip": "ym2612"
    },
    {
      "channel": 1,
      "note": 59,
      "start": 19.1934,
      "duration": 0.0995,
      "velocity": 81,
      "chip": "ym2612"
    },
    {
      "channel": 5,
      "note": 81,
      "start": 19.1969,
      "duration": 0.01,
      "velocity": 103,
      "chip": "ym2612"
    },
    {
      "channel": 0,
      "note": 81,
      "start": 19.2045,
      "duration": 0.0125,
      "velocity": 103,
      "chip": "ym2612"
    },
    {
      "channel": 5,
      "note": 81,
      "start": 19.2069,
      "duration": 0.0125,
      "velocity": 103,
      "chip": "ym2612"
    },
    {
      "channel": 2,
      "note": 40,
      "start": 19.2091,
      "duration": 0.0115,
      "velocity": 114,
      "chip": "ym2612"
    },
    {
      "channel": 0,
      "note": 81,
      "start": 19.217,
      "duration": 0.0126,
      "velocity": 103,
      "chip": "ym2612"
    },
    {
      "channel": 5,
      "note": 81,
      "start": 19.2194,
      "duration": 0.0125,
      "velocity": 103,
      "chip": "ym2612"
    },
    {
      "channel": 2,
      "note": 40,
      "start": 19.2206,
      "duration": 0.0125,
      "velocity": 114,
      "chip": "ym2612"
    },
    {
      "channel": 0,
      "note": 81,
      "start": 19.2295,
      "duration": 0.0125,
      "velocity": 103,
      "chip": "ym2612"
    },
    {
      "channel": 5,
      "note": 81,
      "start": 19.2319,
      "duration": 0.0131,
      "velocity": 103,
      "chip": "ym2612"
    },
    {
      "channel": 2,
      "note": 40,
      "start": 19.2332,
      "duration": 0.0135,
      "velocity": 114,
      "chip": "ym2612"
    },
    {
      "channel": 0,
      "note": 81,
      "start": 19.242,
      "duration": 0.0125,
      "velocity": 103,
      "chip": "ym2612"
    },
    {
      "channel": 5,
      "note": 81,
      "start": 19.245,
      "duration": 0.012,
      "velocity": 103,
      "chip": "ym2612"
    },
    {
      "channel": 2,
      "note": 40,
      "start": 19.2467,
      "duration": 0.0116,
      "velocity": 114,
      "chip": "ym2612"
    },
    {
      "channel": 0,
      "note": 81,
      "start": 19.2545,
      "duration": 0.0125,
      "velocity": 103,
      "chip": "ym2612"
    },
    {
      "channel": 5,
      "note": 81,
      "start": 19.257,
      "duration": 0.0125,
      "velocity": 103,
      "chip": "ym2612"
    },
    {
      "channel": 2,
      "note": 40,
      "start": 19.2582,
      "duration": 0.0125,
      "velocity": 114,
      "chip": "ym2612"
    },
    {
      "channel": 0,
      "note": 81,
      "start": 19.267,
      "duration": 0.0125,
      "velocity": 103,
      "chip": "ym2612"
    },
    {
      "channel": 5,
      "note": 81,
      "start": 19.2694,
      "duration": 0.0125,
      "velocity": 103,
      "chip": "ym2612"
    },
    {
      "channel": 2,
      "note": 40,
      "start": 19.2707,
      "duration": 0.0125,
      "velocity": 114,
      "chip": "ym2612"
    },
    {
      "channel": 0,
      "note": 81,
      "start": 19.2795,
      "duration": 0.0125,
      "velocity": 103,
      "chip": "ym2612"
    },
    {
      "channel": 5,
      "note": 81,
      "start": 19.2819,
      "duration": 0.015,
      "velocity": 103,
      "chip": "ym2612"
    },
    {
      "channel": 2,
      "note": 40,
      "start": 19.2832,
      "duration": 0.0149,
      "velocity": 114,
      "chip": "ym2612"
    },
    {
      "channel": 0,
      "note": 81,
      "start": 19.292,
      "duration": 0.0125,
      "velocity": 103,
      "chip": "ym2612"
    },
    {
      "channel": 1,
      "note": 65,
      "start": 19.2934,
      "duration": 0.0995,
      "velocity": 81,
      "chip": "ym2612"
    },
    {
      "channel": 5,
      "note": 81,
      "start": 19.2969,
      "duration": 0.01,
      "velocity": 103,
      "chip": "ym2612"
    },
    {
      "channel": 0,
      "note": 81,
      "start": 19.3045,
      "duration": 0.0125,
      "velocity": 103,
      "chip": "ym2612"
    },
    {
      "channel": 5,
      "note": 81,
      "start": 19.3069,
      "duration": 0.0125,
      "velocity": 103,
      "chip": "ym2612"
    },
    {
      "channel": 2,
      "note": 40,
      "start": 19.3091,
      "duration": 0.0115,
      "velocity": 114,
      "chip": "ym2612"
    },
    {
      "channel": 0,
      "note": 81,
      "start": 19.317,
      "duration": 0.0126,
      "velocity": 103,
      "chip": "ym2612"
    },
    {
      "channel": 5,
      "note": 81,
      "start": 19.3194,
      "duration": 0.0125,
      "velocity": 103,
      "chip": "ym2612"
    },
    {
      "channel": 2,
      "note": 40,
      "start": 19.3206,
      "duration": 0.0125,
      "velocity": 114,
      "chip": "ym2612"
    },
    {
      "channel": 0,
      "note": 81,
      "start": 19.3295,
      "duration": 0.0125,
      "velocity": 103,
      "chip": "ym2612"
    },
    {
      "channel": 5,
      "note": 81,
      "start": 19.3319,
      "duration": 0.0131,
      "velocity": 103,
      "chip": "ym2612"
    },
    {
      "channel": 2,
      "note": 40,
      "start": 19.3332,
      "duration": 0.0135,
      "velocity": 114,
      "chip": "ym2612"
    },
    {
      "channel": 0,
      "note": 81,
      "start": 19.342,
      "duration": 0.0125,
      "velocity": 103,
      "chip": "ym2612"
    },
    {
      "channel": 5,
      "note": 81,
      "start": 19.345,
      "duration": 0.0119,
      "velocity": 103,
      "chip": "ym2612"
    },
    {
      "channel": 2,
      "note": 40,
      "start": 19.3467,
      "duration": 0.0115,
      "velocity": 114,
      "chip": "ym2612"
    },
    {
      "channel": 0,
      "note": 81,
      "start": 19.3545,
      "duration": 0.0125,
      "velocity": 103,
      "chip": "ym2612"
    },
    {
      "channel": 5,
      "note": 81,
      "start": 19.3569,
      "duration": 0.0125,
      "velocity": 103,
      "chip": "ym2612"
    },
    {
      "channel": 2,
      "note": 40,
      "start": 19.3582,
      "duration": 0.0124,
      "velocity": 114,
      "chip": "ym2612"
    },
    {
      "channel": 0,
      "note": 81,
      "start": 19.367,
      "duration": 0.0126,
      "velocity": 103,
      "chip": "ym2612"
    },
    {
      "channel": 5,
      "note": 81,
      "start": 19.3694,
      "duration": 0.0125,
      "velocity": 103,
      "chip": "ym2612"
    },
    {
      "channel": 2,
      "note": 40,
      "start": 19.3706,
      "duration": 0.0125,
      "velocity": 114,
      "chip": "ym2612"
    },
    {
      "channel": 0,
      "note": 81,
      "start": 19.3795,
      "duration": 0.0125,
      "velocity": 103,
      "chip": "ym2612"
    },
    {
      "channel": 5,
      "note": 81,
      "start": 19.3819,
      "duration": 0.015,
      "velocity": 103,
      "chip": "ym2612"
    },
    {
      "channel": 2,
      "note": 40,
      "start": 19.3832,
      "duration": 0.0149,
      "velocity": 114,
      "chip": "ym2612"
    },
    {
      "channel": 0,
      "note": 81,
      "start": 19.392,
      "duration": 0.0125,
      "velocity": 103,
      "chip": "ym2612"
    },
    {
      "channel": 1,
      "note": 59,
      "start": 19.3934,
      "duration": 0.1128,
      "velocity": 81,
      "chip": "ym2612"
    },
    {
      "channel": 5,
      "note": 81,
      "start": 19.3969,
      "duration": 0.01,
      "velocity": 103,
      "chip": "ym2612"
    },
    {
      "channel": 0,
      "note": 81,
      "start": 19.4045,
      "duration": 0.0125,
      "velocity": 103,
      "chip": "ym2612"
    },
    {
      "channel": 5,
      "note": 81,
      "start": 19.407,
      "duration": 0.0125,
      "velocity": 103,
      "chip": "ym2612"
    },
    {
      "channel": 2,
      "note": 40,
      "start": 19.4092,
      "duration": 0.0115,
      "velocity": 114,
      "chip": "ym2612"
    },
    {
      "channel": 0,
      "note": 81,
      "start": 19.417,
      "duration": 0.0125,
      "velocity": 103,
      "chip": "ym2612"
    },
    {
      "channel": 5,
      "note": 81,
      "start": 19.4194,
      "duration": 0.0125,
      "velocity": 103,
      "chip": "ym2612"
    },
    {
      "channel": 2,
      "note": 40,
      "start": 19.4207,
      "duration": 0.0125,
      "velocity": 114,
      "chip": "ym2612"
    },
    {
      "channel": 0,
      "note": 81,
      "start": 19.4295,
      "duration": 0.0125,
      "velocity": 103,
      "chip": "ym2612"
    },
    {
      "channel": 5,
      "note": 81,
      "start": 19.4319,
      "duration": 0.0131,
      "velocity": 103,
      "chip": "ym2612"
    },
    {
      "channel": 2,
      "note": 40,
      "start": 19.4332,
      "duration": 0.0135,
      "velocity": 114,
      "chip": "ym2612"
    },
    {
      "channel": 0,
      "note": 81,
      "start": 19.442,
      "duration": 0.0125,
      "velocity": 103,
      "chip": "ym2612"
    },
    {
      "channel": 5,
      "note": 81,
      "start": 19.445,
      "duration": 0.0119,
      "velocity": 103,
      "chip": "ym2612"
    },
    {
      "channel": 2,
      "note": 40,
      "start": 19.4467,
      "duration": 0.0115,
      "velocity": 114,
      "chip": "ym2612"
    },
    {
      "channel": 0,
      "note": 81,
      "start": 19.4545,
      "duration": 0.0125,
      "velocity": 103,
      "chip": "ym2612"
    },
    {
      "channel": 5,
      "note": 81,
      "start": 19.4569,
      "duration": 0.0125,
      "velocity": 103,
      "chip": "ym2612"
    },
    {
      "channel": 2,
      "note": 40,
      "start": 19.4582,
      "duration": 0.0124,
      "velocity": 114,
      "chip": "ym2612"
    },
    {
      "channel": 0,
      "note": 81,
      "start": 19.467,
      "duration": 0.0126,
      "velocity": 103,
      "chip": "ym2612"
    },
    {
      "channel": 5,
      "note": 81,
      "start": 19.4694,
      "duration": 0.0125,
      "velocity": 103,
      "chip": "ym2612"
    },
    {
      "channel": 2,
      "note": 40,
      "start": 19.4706,
      "duration": 0.0125,
      "velocity": 114,
      "chip": "ym2612"
    },
    {
      "channel": 0,
      "note": 81,
      "start": 19.4795,
      "duration": 0.0125,
      "velocity": 103,
      "chip": "ym2612"
    },
    {
      "channel": 5,
      "note": 81,
      "start": 19.4819,
      "duration": 0.0131,
      "velocity": 103,
      "chip": "ym2612"
    },
    {
      "channel": 2,
      "note": 40,
      "start": 19.4832,
      "duration": 0.0131,
      "velocity": 114,
      "chip": "ym2612"
    },
    {
      "channel": 0,
      "note": 81,
      "start": 19.492,
      "duration": 0.0123,
      "velocity": 103,
      "chip": "ym2612"
    },
    {
      "channel": 5,
      "note": 81,
      "start": 19.495,
      "duration": 0.0165,
      "velocity": 103,
      "chip": "ym2612"
    },
    {
      "channel": 2,
      "note": 40,
      "start": 19.4963,
      "duration": 0.0163,
      "velocity": 114,
      "chip": "ym2612"
    },
    {
      "channel": 0,
      "note": 82,
      "start": 19.5048,
      "duration": 0.2497,
      "velocity": 103,
      "chip": "ym2612"
    },
    {
      "channel": 1,
      "note": 53,
      "start": 19.5066,
      "duration": 0.0478,
      "velocity": 81,
      "chip": "ym2612"
    },
    {
      "channel": 5,
      "note": 81,
      "start": 19.5115,
      "duration": 0.0069,
      "velocity": 103,
      "chip": "ym2612"
    },
    {
      "channel": 5,
      "note": 81,
      "start": 19.5185,
      "duration": 0.0125,
      "velocity": 103,
      "chip": "ym2612"
    },
    {
      "channel": 2,
      "note": 40,
      "start": 19.5207,
      "duration": 0.0116,
      "velocity": 114,
      "chip": "ym2612"
    },
    {
      "channel": 5,
      "note": 81,
      "start": 19.531,
      "duration": 0.0125,
      "velocity": 103,
      "chip": "ym2612"
    },
    {
      "channel": 2,
      "note": 40,
      "start": 19.5323,
      "duration": 0.0131,
      "velocity": 114,
      "chip": "ym2612"
    },
    {
      "channel": 5,
      "note": 81,
      "start": 19.5435,
      "duration": 0.013,
      "velocity": 103,
      "chip": "ym2612"
    },
    {
      "channel": 2,
      "note": 40,
      "start": 19.5454,
      "duration": 0.0128,
      "velocity": 114,
      "chip": "ym2612"
    },
    {
      "channel": 5,
      "note": 81,
      "start": 19.5566,
      "duration": 0.0119,
      "velocity": 103,
      "chip": "ym2612"
    },
    {
      "channel": 2,
      "note": 40,
      "start": 19.5582,
      "duration": 0.0115,
      "velocity": 114,
      "chip": "ym2612"
    },
    {
      "channel": 5,
      "note": 81,
      "start": 19.5685,
      "duration": 0.0125,
      "velocity": 103,
      "chip": "ym2612"
    },
    {
      "channel": 2,
      "note": 40,
      "start": 19.5698,
      "duration": 0.0125,
      "velocity": 114,
      "chip": "ym2612"
    },
    {
      "channel": 5,
      "note": 81,
      "start": 19.581,
      "duration": 0.0125,
      "velocity": 103,
      "chip": "ym2612"
    },
    {
      "channel": 2,
      "note": 40,
      "start": 19.5823,
      "duration": 0.0131,
      "velocity": 114,
      "chip": "ym2612"
    },
    {
      "channel": 5,
      "note": 81,
      "start": 19.5935,
      "duration": 0.0144,
      "velocity": 103,
      "chip": "ym2612"
    },
    {
      "channel": 2,
      "note": 40,
      "start": 19.5954,
      "duration": 0.0137,
      "velocity": 114,
      "chip": "ym2612"
    },
    {
      "channel": 1,
      "note": 53,
      "start": 19.605,
      "duration": 0.0994,
      "velocity": 81,
      "chip": "ym2612"
    },
    {
      "channel": 5,
      "note": 81,
      "start": 19.6079,
      "duration": 0.0106,
      "velocity": 103,
      "chip": "ym2612"
    },
    {
      "channel": 5,
      "note": 81,
      "start": 19.6185,
      "duration": 0.0125,
      "velocity": 103,
      "chip": "ym2612"
    },
    {
      "channel": 2,
      "note": 40,
      "start": 19.6207,
      "duration": 0.0116,
      "velocity": 114,
      "chip": "ym2612"
    },
    {
      "channel": 5,
      "note": 81,
      "start": 19.631,
      "duration": 0.0123,
      "velocity": 103,
      "chip": "ym2612"
    },
    {
      "channel": 2,
      "note": 40,
      "start": 19.6323,
      "duration": 0.0134,
      "velocity": 114,
      "chip": "ym2612"
    },
    {
      "channel": 5,
      "note": 82,
      "start": 19.6442,
      "duration": 0.2508,
      "velocity": 103,
      "chip": "ym2612"
    },
    {
      "channel": 2,
      "note": 40,
      "start": 19.6457,
      "duration": 0.011,
      "velocity": 114,
      "chip": "ym2612"
    },
    {
      "channel": 2,
      "note": 40,
      "start": 19.6567,
      "duration": 0.0122,
      "velocity": 114,
      "chip": "ym2612"
    },
    {
      "channel": 2,
      "note": 40,
      "start": 19.6689,
      "duration": 0.0125,
      "velocity": 114,
      "chip": "ym2612"
    },
    {
      "channel": 2,
      "note": 40,
      "start": 19.6814,
      "duration": 0.0129,
      "velocity": 114,
      "chip": "ym2612"
    },
    {
      "channel": 2,
      "note": 40,
      "start": 19.6942,
      "duration": 0.0127,
      "velocity": 114,
      "chip": "ym2612"
    },
    {
      "channel": 2,
      "note": 40,
      "start": 19.7069,
      "duration": 0.012,
      "velocity": 114,
      "chip": "ym2612"
    },
    {
      "channel": 2,
      "note": 40,
      "start": 19.7189,
      "duration": 0.0125,
      "velocity": 114,
      "chip": "ym2612"
    },
    {
      "channel": 2,
      "note": 40,
      "start": 19.7314,
      "duration": 0.0129,
      "velocity": 114,
      "chip": "ym2612"
    },
    {
      "channel": 2,
      "note": 39,
      "start": 19.7442,
      "duration": 0.013,
      "velocity": 114,
      "chip": "ym2612"
    },
    {
      "channel": 0,
      "note": 82,
      "start": 19.7545,
      "duration": 0.0125,
      "velocity": 103,
      "chip": "ym2612"
    },
    {
      "channel": 0,
      "note": 82,
      "start": 19.767,
      "duration": 0.0126,
      "velocity": 103,
      "chip": "ym2612"
    },
    {
      "channel": 0,
      "note": 82,
      "start": 19.7795,
      "duration": 0.0125,
      "velocity": 103,
      "chip": "ym2612"
    },
    {
      "channel": 0,
      "note": 82,
      "start": 19.792,
      "duration": 0.0125,
      "velocity": 103,
      "chip": "ym2612"
    },
    {
      "channel": 0,
      "note": 82,
      "start": 19.8045,
      "duration": 0.0125,
      "velocity": 103,
      "chip": "ym2612"
    },
    {
      "channel": 1,
      "note": 53,
      "start": 19.8059,
      "duration": 0.0619,
      "velocity": 81,
      "chip": "ym2612"
    },
    {
      "channel": 2,
      "note": 40,
      "start": 19.8109,
      "duration": 0.0088,
      "velocity": 114,
      "chip": "ym2612"
    },
    {
      "channel": 0,
      "note": 82,
      "start": 19.817,
      "duration": 0.0126,
      "velocity": 103,
      "chip": "ym2612"
    },
    {
      "channel": 2,
      "note": 40,
      "start": 19.8198,
      "duration": 0.0125,
      "velocity": 114,
      "chip": "ym2612"
    },
    {
      "channel": 0,
      "note": 82,
      "start": 19.8295,
      "duration": 0.0125,
      "velocity": 103,
      "chip": "ym2612"
    },
    {
      "channel": 2,
      "note": 40,
      "start": 19.8323,
      "duration": 0.0135,
      "velocity": 114,
      "chip": "ym2612"
    },
    {
      "channel": 0,
      "note": 82,
      "start": 19.842,
      "duration": 0.0125,
      "velocity": 103,
      "chip": "ym2612"
    },
    {
      "channel": 2,
      "note": 40,
      "start": 19.8458,
      "duration": 0.0115,
      "velocity": 114,
      "chip": "ym2612"
    },
    {
      "channel": 0,
      "note": 82,
      "start": 19.8545,
      "duration": 0.0125,
      "velocity": 103,
      "chip": "ym2612"
    },
    {
      "channel": 2,
      "note": 40,
      "start": 19.8573,
      "duration": 0.013,
      "velocity": 114,
      "chip": "ym2612"
    },
    {
      "channel": 0,
      "note": 82,
      "start": 19.867,
      "duration": 0.0126,
      "velocity": 103,
      "chip": "ym2612"
    },
    {
      "channel": 2,
      "note": 40,
      "start": 19.8703,
      "duration": 0.012,
      "velocity": 114,
      "chip": "ym2612"
    },
    {
      "channel": 0,
      "note": 82,
      "start": 19.8795,
      "duration": 0.0125,
      "velocity": 103,
      "chip": "ym2612"
    },
    {
      "channel": 2,
      "note": 40,
      "start": 19.8823,
      "duration": 0.014,
      "velocity": 114,
      "chip": "ym2612"
    },
    {
      "channel": 0,
      "note": 82,
      "start": 19.892,
      "duration": 0.0125,
      "velocity": 103,
      "chip": "ym2612"
    },
    {
      "channel": 5,
      "note": 82,
      "start": 19.895,
      "duration": 0.0138,
      "velocity": 103,
      "chip": "ym2612"
    },
    {
      "channel": 2,
      "note": 40,
      "start": 19.8963,
      "duration": 0.0137,
      "velocity": 114,
      "chip": "ym2612"
    },
    {
      "channel": 0,
      "note": 82,
      "start": 19.9045,
      "duration": 0.0125,
      "velocity": 103,
      "chip": "ym2612"
    },
    {
      "channel": 1,
      "note": 53,
      "start": 19.9059,
      "duration": 0.0994,
      "velocity": 81,
      "chip": "ym2612"
    },
    {
      "channel": 5,
      "note": 82,
      "start": 19.9088,
      "duration": 0.0105,
      "velocity": 103,
      "chip": "ym2612"
    },
    {
      "channel": 0,
      "note": 82,
      "start": 19.917,
      "duration": 0.0125,
      "velocity": 103,
      "chip": "ym2612"
    },
    {
      "channel": 5,
      "note": 82,
      "start": 19.9194,
      "duration": 0.0125,
      "velocity": 103,
      "chip": "ym2612"
    },
    {
      "channel": 2,
      "note": 41,
      "start": 19.9245,
      "duration": 0.1878,
      "velocity": 122,
      "chip": "ym2612"
    },
    {
      "channel": 0,
      "note": 82,
      "start": 19.9295,
      "duration": 0.0125,
      "velocity": 103,
      "chip": "ym2612"
    },
    {
      "channel": 5,
      "note": 82,
      "start": 19.9319,
      "duration": 0.0131,
      "velocity": 103,
      "chip": "ym2612"
    },
    {
      "channel": 0,
      "note": 82,
      "start": 19.942,
      "duration": 0.0125,
      "velocity": 103,
      "chip": "ym2612"
    },
    {
      "channel": 5,
      "note": 82,
      "start": 19.945,
      "duration": 0.0119,
      "velocity": 103,
      "chip": "ym2612"
    },
    {
      "channel": 0,
      "note": 82,
      "start": 19.9545,
      "duration": 0.0125,
      "velocity": 103,
      "chip": "ym2612"
    },
    {
      "channel": 5,
      "note": 82,
      "start": 19.9569,
      "duration": 0.0125,
      "velocity": 103,
      "chip": "ym2612"
    },
    {
      "channel": 0,
      "note": 82,
      "start": 19.967,
      "duration": 0.0126,
      "velocity": 103,
      "chip": "ym2612"
    },
    {
      "channel": 5,
      "note": 82,
      "start": 19.9694,
      "duration": 0.0126,
      "velocity": 103,
      "chip": "ym2612"
    },
    {
      "channel": 0,
      "note": 82,
      "start": 19.9795,
      "duration": 0.0125,
      "velocity": 103,
      "chip": "ym2612"
    },
    {
      "channel": 5,
      "note": 82,
      "start": 19.982,
      "duration": 0.013,
      "velocity": 103,
      "chip": "ym2612"
    },
    {
      "channel": 0,
      "note": 82,
      "start": 19.992,
      "duration": 0.0125,
      "velocity": 103,
      "chip": "ym2612"
    },
    {
      "channel": 5,
      "note": 82,
      "start": 19.995,
      "duration": 0.0124,
      "velocity": 103,
      "chip": "ym2612"
    },
    {
      "channel": 0,
      "note": 82,
      "start": 20.0045,
      "duration": 0.0125,
      "velocity": 103,
      "chip": "ym2612"
    },
    {
      "channel": 5,
      "note": 82,
      "start": 20.0074,
      "duration": 0.012,
      "velocity": 103,
      "chip": "ym2612"
    },
    {
      "channel": 0,
      "note": 82,
      "start": 20.017,
      "duration": 0.0126,
      "velocity": 103,
      "chip": "ym2612"
    },
    {
      "channel": 5,
      "note": 82,
      "start": 20.0194,
      "duration": 0.0126,
      "velocity": 103,
      "chip": "ym2612"
    },
    {
      "channel": 0,
      "note": 82,
      "start": 20.0295,
      "duration": 0.0125,
      "velocity": 103,
      "chip": "ym2612"
    },
    {
      "channel": 5,
      "note": 82,
      "start": 20.032,
      "duration": 0.013,
      "velocity": 103,
      "chip": "ym2612"
    },
    {
      "channel": 0,
      "note": 82,
      "start": 20.042,
      "duration": 0.0125,
      "velocity": 103,
      "chip": "ym2612"
    },
    {
      "channel": 5,
      "note": 82,
      "start": 20.045,
      "duration": 0.0119,
      "velocity": 103,
      "chip": "ym2612"
    },
    {
      "channel": 0,
      "note": 82,
      "start": 20.0545,
      "duration": 0.0125,
      "velocity": 103,
      "chip": "ym2612"
    },
    {
      "channel": 5,
      "note": 82,
      "start": 20.0569,
      "duration": 0.0125,
      "velocity": 103,
      "chip": "ym2612"
    },
    {
      "channel": 0,
      "note": 82,
      "start": 20.067,
      "duration": 0.0126,
      "velocity": 103,
      "chip": "ym2612"
    },
    {
      "channel": 5,
      "note": 82,
      "start": 20.0694,
      "duration": 0.0125,
      "velocity": 103,
      "chip": "ym2612"
    },
    {
      "channel": 0,
      "note": 82,
      "start": 20.0795,
      "duration": 0.0125,
      "velocity": 103,
      "chip": "ym2612"
    },
    {
      "channel": 5,
      "note": 82,
      "start": 20.0819,
      "duration": 0.0131,
      "velocity": 103,
      "chip": "ym2612"
    },
    {
      "channel": 0,
      "note": 82,
      "start": 20.092,
      "duration": 0.0125,
      "velocity": 103,
      "chip": "ym2612"
    },
    {
      "channel": 5,
      "note": 82,
      "start": 20.095,
      "duration": 0.0138,
      "velocity": 103,
      "chip": "ym2612"
    },
    {
      "channel": 0,
      "note": 82,
      "start": 20.1045,
      "duration": 0.0125,
      "velocity": 103,
      "chip": "ym2612"
    },
    {
      "channel": 1,
      "note": 53,
      "start": 20.1059,
      "duration": 0.0619,
      "velocity": 81,
      "chip": "ym2612"
    },
    {
      "channel": 5,
      "note": 82,
      "start": 20.1088,
      "duration": 0.0105,
      "velocity": 103,
      "chip": "ym2612"
    },
    {
      "channel": 2,
      "note": 40,
      "start": 20.115,
      "duration": 0.0056,
      "velocity": 114,
      "chip": "ym2612"
    },
    {
      "channel": 0,
      "note": 82,
      "start": 20.117,
      "duration": 0.0126,
      "velocity": 103,
      "chip": "ym2612"
    },
    {
      "channel": 5,
      "note": 82,
      "start": 20.1194,
      "duration": 0.0125,
      "velocity": 103,
      "chip": "ym2612"
    },
    {
      "channel": 2,
      "note": 40,
      "start": 20.1206,
      "duration": 0.0125,
      "velocity": 114,
      "chip": "ym2612"
    },
    {
      "channel": 0,
      "note": 82,
      "start": 20.1295,
      "duration": 0.0125,
      "velocity": 103,
      "chip": "ym2612"
    },
    {
      "channel": 5,
      "note": 82,
      "start": 20.1319,
      "duration": 0.0131,
      "velocity": 103,
      "chip": "ym2612"
    },
    {
      "channel": 2,
      "note": 40,
      "start": 20.1332,
      "duration": 0.0135,
      "velocity": 114,
      "chip": "ym2612"
    },
    {
      "channel": 0,
      "note": 82,
      "start": 20.142,
      "duration": 0.0125,
      "velocity": 103,
      "chip": "ym2612"
    },
    {
      "channel": 5,
      "note": 82,
      "start": 20.145,
      "duration": 0.0119,
      "velocity": 103,
      "chip": "ym2612"
    },
    {
      "channel": 2,
      "note": 40,
      "start": 20.1467,
      "duration": 0.0115,
      "velocity": 114,
      "chip": "ym2612"
    },
    {
      "channel": 0,
      "note": 82,
      "start": 20.1545,
      "duration": 0.0125,
      "velocity": 103,
      "chip": "ym2612"
    },
    {
      "channel": 5,
      "note": 82,
      "start": 20.1569,
      "duration": 0.013,
      "velocity": 103,
      "chip": "ym2612"
    },
    {
      "channel": 2,
      "note": 40,
      "start": 20.1582,
      "duration": 0.013,
      "velocity": 114,
      "chip": "ym2612"
    },
    {
      "channel": 0,
      "note": 82,
      "start": 20.167,
      "duration": 0.0126,
      "velocity": 103,
      "chip": "ym2612"
    },
    {
      "channel": 5,
      "note": 82,
      "start": 20.1699,
      "duration": 0.012,
      "velocity": 103,
      "chip": "ym2612"
    },
    {
      "channel": 2,
      "note": 40,
      "start": 20.1712,
      "duration": 0.012,
      "velocity": 114,
      "chip": "ym2612"
    },
    {
      "channel": 0,
      "note": 82,
      "start": 20.1795,
      "duration": 0.0125,
      "velocity": 103,
      "chip": "ym2612"
    },
    {
      "channel": 5,
      "note": 82,
      "start": 20.1819,
      "duration": 0.0131,
      "velocity": 103,
      "chip": "ym2612"
    },
    {
      "channel": 2,
      "note": 40,
      "start": 20.1832,
      "duration": 0.0131,
      "velocity": 114,
      "chip": "ym2612"
    },
    {
      "channel": 0,
      "note": 82,
      "start": 20.192,
      "duration": 0.0125,
      "velocity": 103,
      "chip": "ym2612"
    },
    {
      "channel": 5,
      "note": 82,
      "start": 20.195,
      "duration": 0.0138,
      "velocity": 103,
      "chip": "ym2612"
    },
    {
      "channel": 2,
      "note": 40,
      "start": 20.1963,
      "duration": 0.0137,
      "velocity": 114,
      "chip": "ym2612"
    },
    {
      "channel": 0,
      "note": 82,
      "start": 20.2045,
      "duration": 0.0125,
      "velocity": 103,
      "chip": "ym2612"
    },
    {
      "channel": 1,
      "note": 53,
      "start": 20.2059,
      "duration": 0.1119,
      "velocity": 81,
      "chip": "ym2612"
    },
    {
      "channel": 5,
      "note": 82,
      "start": 20.2088,
      "duration": 0.0105,
      "velocity": 103,
      "chip": "ym2612"
    },
    {
      "channel": 0,
      "note": 82,
      "start": 20.217,
      "duration": 0.0126,
      "velocity": 103,
      "chip": "ym2612"
    },
    {
      "channel": 5,
      "note": 82,
      "start": 20.2194,
      "duration": 0.0125,
      "velocity": 103,
      "chip": "ym2612"
    },
    {
      "channel": 2,
      "note": 40,
      "start": 20.2216,
      "duration": 0.0116,
      "velocity": 114,
      "chip": "ym2612"
    },
    {
      "channel": 0,
      "note": 82,
      "start": 20.2295,
      "duration": 0.0125,
      "velocity": 103,
      "chip": "ym2612"
    },
    {
      "channel": 5,
      "note": 82,
      "start": 20.2319,
      "duration": 0.0131,
      "velocity": 103,
      "chip": "ym2612"
    },
    {
      "channel": 2,
      "note": 40,
      "start": 20.2332,
      "duration": 0.0131,
      "velocity": 114,
      "chip": "ym2612"
    },
    {
      "channel": 0,
      "note": 82,
      "start": 20.242,
      "duration": 0.0125,
      "velocity": 103,
      "chip": "ym2612"
    },
    {
      "channel": 5,
      "note": 82,
      "start": 20.245,
      "duration": 0.0119,
      "velocity": 103,
      "chip": "ym2612"
    },
    {
      "channel": 2,
      "note": 40,
      "start": 20.2463,
      "duration": 0.0123,
      "velocity": 114,
      "chip": "ym2612"
    },
    {
      "channel": 0,
      "note": 82,
      "start": 20.2545,
      "duration": 0.0125,
      "velocity": 103,
      "chip": "ym2612"
    },
    {
      "channel": 5,
      "note": 82,
      "start": 20.2569,
      "duration": 0.0125,
      "velocity": 103,
      "chip": "ym2612"
    },
    {
      "channel": 2,
      "note": 40,
      "start": 20.2585,
      "duration": 0.0121,
      "velocity": 114,
      "chip": "ym2612"
    },
    {
      "channel": 0,
      "note": 82,
      "start": 20.267,
      "duration": 0.0125,
      "velocity": 103,
      "chip": "ym2612"
    },
    {
      "channel": 5,
      "note": 82,
      "start": 20.2694,
      "duration": 0.0125,
      "velocity": 103,
      "chip": "ym2612"
    },
    {
      "channel": 2,
      "note": 40,
      "start": 20.2706,
      "duration": 0.0125,
      "velocity": 114,
      "chip": "ym2612"
    },
    {
      "channel": 0,
      "note": 82,
      "start": 20.2795,
      "duration": 0.0125,
      "velocity": 103,
      "chip": "ym2612"
    },
    {
      "channel": 5,
      "note": 82,
      "start": 20.2819,
      "duration": 0.0131,
      "velocity": 103,
      "chip": "ym2612"
    },
    {
      "channel": 2,
      "note": 40,
      "start": 20.2832,
      "duration": 0.0131,
      "velocity": 114,
      "chip": "ym2612"
    },
    {
      "channel": 0,
      "note": 82,
      "start": 20.292,
      "duration": 0.0125,
      "velocity": 103,
      "chip": "ym2612"
    },
    {
      "channel": 5,
      "note": 82,
      "start": 20.295,
      "duration": 0.0119,
      "velocity": 103,
      "chip": "ym2612"
    },
    {
      "channel": 2,
      "note": 40,
      "start": 20.2963,
      "duration": 0.0119,
      "velocity": 114,
      "chip": "ym2612"
    },
    {
      "channel": 0,
      "note": 82,
      "start": 20.3045,
      "duration": 0.0125,
      "velocity": 103,
      "chip": "ym2612"
    },
    {
      "channel": 5,
      "note": 82,
      "start": 20.3069,
      "duration": 0.013,
      "velocity": 103,
      "chip": "ym2612"
    },
    {
      "channel": 2,
      "note": 40,
      "start": 20.3082,
      "duration": 0.013,
      "velocity": 114,
      "chip": "ym2612"
    },
    {
      "channel": 0,
      "note": 82,
      "start": 20.317,
      "duration": 0.0126,
      "velocity": 103,
      "chip": "ym2612"
    },
    {
      "channel": 5,
      "note": 82,
      "start": 20.3199,
      "duration": 0.012,
      "velocity": 103,
      "chip": "ym2612"
    },
    {
      "channel": 2,
      "note": 40,
      "start": 20.3212,
      "duration": 0.012,
      "velocity": 114,
      "chip": "ym2612"
    },
    {
      "channel": 0,
      "note": 82,
      "start": 20.3295,
      "duration": 0.0125,
      "velocity": 103,
      "chip": "ym2612"
    },
    {
      "channel": 5,
      "note": 82,
      "start": 20.332,
      "duration": 0.0131,
      "velocity": 103,
      "chip": "ym2612"
    },
    {
      "channel": 2,
      "note": 40,
      "start": 20.3332,
      "duration": 0.0132,
      "velocity": 114,
      "chip": "ym2612"
    },
    {
      "channel": 0,
      "note": 82,
      "start": 20.342,
      "duration": 0.0125,
      "velocity": 103,
      "chip": "ym2612"
    },
    {
      "channel": 5,
      "note": 82,
      "start": 20.3451,
      "duration": 0.0118,
      "velocity": 103,
      "chip": "ym2612"
    },
    {
      "channel": 2,
      "note": 39,
      "start": 20.3463,
      "duration": 0.0118,
      "velocity": 114,
      "chip": "ym2612"
    },
    {
      "channel": 0,
      "note": 82,
      "start": 20.3545,
      "duration": 0.0125,
      "velocity": 103,
      "chip": "ym2612"
    },
    {
      "channel": 5,
      "note": 82,
      "start": 20.3569,
      "duration": 0.0125,
      "velocity": 103,
      "chip": "ym2612"
    },
    {
      "channel": 0,
      "note": 82,
      "start": 20.367,
      "duration": 0.0126,
      "velocity": 103,
      "chip": "ym2612"
    },
    {
      "channel": 5,
      "note": 82,
      "start": 20.3694,
      "duration": 0.0126,
      "velocity": 103,
      "chip": "ym2612"
    },
    {
      "channel": 0,
      "note": 82,
      "start": 20.3795,
      "duration": 0.0125,
      "velocity": 103,
      "chip": "ym2612"
    },
    {
      "channel": 5,
      "note": 82,
      "start": 20.382,
      "duration": 0.013,
      "velocity": 103,
      "chip": "ym2612"
    },
    {
      "channel": 0,
      "note": 82,
      "start": 20.392,
      "duration": 0.0125,
      "velocity": 103,
      "chip": "ym2612"
    },
    {
      "channel": 5,
      "note": 82,
      "start": 20.395,
      "duration": 0.0119,
      "velocity": 103,
      "chip": "ym2612"
    },
    {
      "channel": 0,
      "note": 82,
      "start": 20.4045,
      "duration": 0.0125,
      "velocity": 103,
      "chip": "ym2612"
    },
    {
      "channel": 5,
      "note": 82,
      "start": 20.4069,
      "duration": 0.0144,
      "velocity": 103,
      "chip": "ym2612"
    },
    {
      "channel": 0,
      "note": 82,
      "start": 20.417,
      "duration": 0.0125,
      "velocity": 103,
      "chip": "ym2612"
    },
    {
      "channel": 1,
      "note": 53,
      "start": 20.4184,
      "duration": 0.062,
      "velocity": 81,
      "chip": "ym2612"
    },
    {
      "channel": 5,
      "note": 82,
      "start": 20.4213,
      "duration": 0.0106,
      "velocity": 103,
      "chip": "ym2612"
    },
    {
      "channel": 2,
      "note": 40,
      "start": 20.424,
      "duration": 0.0092,
      "velocity": 114,
      "chip": "ym2612"
    },
    {
      "channel": 0,
      "note": 82,
      "start": 20.4295,
      "duration": 0.0125,
      "velocity": 103,
      "chip": "ym2612"
    },
    {
      "channel": 5,
      "note": 82,
      "start": 20.4319,
      "duration": 0.0131,
      "velocity": 103,
      "chip": "ym2612"
    },
    {
      "channel": 2,
      "note": 40,
      "start": 20.4332,
      "duration": 0.0131,
      "velocity": 114,
      "chip": "ym2612"
    },
    {
      "channel": 0,
      "note": 82,
      "start": 20.442,
      "duration": 0.0125,
      "velocity": 103,
      "chip": "ym2612"
    },
    {
      "channel": 5,
      "note": 82,
      "start": 20.445,
      "duration": 0.0119,
      "velocity": 103,
      "chip": "ym2612"
    },
    {
      "channel": 2,
      "note": 40,
      "start": 20.4463,
      "duration": 0.0123,
      "velocity": 114,
      "chip": "ym2612"
    },
    {
      "channel": 0,
      "note": 82,
      "start": 20.4545,
      "duration": 0.0125,
      "velocity": 103,
      "chip": "ym2612"
    },
    {
      "channel": 5,
      "note": 82,
      "start": 20.4569,
      "duration": 0.0125,
      "velocity": 103,
      "chip": "ym2612"
    },
    {
      "channel": 2,
      "note": 40,
      "start": 20.4585,
      "duration": 0.0121,
      "velocity": 114,
      "chip": "ym2612"
    },
    {
      "channel": 0,
      "note": 82,
      "start": 20.467,
      "duration": 0.0126,
      "velocity": 103,
      "chip": "ym2612"
    },
    {
      "channel": 5,
      "note": 82,
      "start": 20.4694,
      "duration": 0.0132,
      "velocity": 103,
      "chip": "ym2612"
    },
    {
      "channel": 2,
      "note": 40,
      "start": 20.4706,
      "duration": 0.0131,
      "velocity": 114,
      "chip": "ym2612"
    },
    {
      "channel": 0,
      "note": 82,
      "start": 20.4795,
      "duration": 0.0125,
      "velocity": 103,
      "chip": "ym2612"
    },
    {
      "channel": 5,
      "note": 82,
      "start": 20.4825,
      "duration": 0.0125,
      "velocity": 103,
      "chip": "ym2612"
    },
    {
      "channel": 2,
      "note": 40,
      "start": 20.4837,
      "duration": 0.0125,
      "velocity": 114,
      "chip": "ym2612"
    },
    {
      "channel": 0,
      "note": 82,
      "start": 20.492,
      "duration": 0.0125,
      "velocity": 103,
      "chip": "ym2612"
    },
    {
      "channel": 5,
      "note": 82,
      "start": 20.495,
      "duration": 0.0119,
      "velocity": 103,
      "chip": "ym2612"
    },
    {
      "channel": 2,
      "note": 40,
      "start": 20.4963,
      "duration": 0.0119,
      "velocity": 114,
      "chip": "ym2612"
    },
    {
      "channel": 0,
      "note": 82,
      "start": 20.5046,
      "duration": 0.0124,
      "velocity": 103,
      "chip": "ym2612"
    },
    {
      "channel": 5,
      "note": 82,
      "start": 20.5069,
      "duration": 0.0144,
      "velocity": 103,
      "chip": "ym2612"
    },
    {
      "channel": 2,
      "note": 40,
      "start": 20.5082,
      "duration": 0.0142,
      "velocity": 114,
      "chip": "ym2612"
    },
    {
      "channel": 0,
      "note": 82,
      "start": 20.517,
      "duration": 0.0126,
      "velocity": 103,
      "chip": "ym2612"
    },
    {
      "channel": 1,
      "note": 53,
      "start": 20.5184,
      "duration": 0.0994,
      "velocity": 81,
      "chip": "ym2612"
    },
    {
      "channel": 5,
      "note": 82,
      "start": 20.5213,
      "duration": 0.0106,
      "velocity": 103,
      "chip": "ym2612"
    },
    {
      "channel": 0,
      "note": 82,
      "start": 20.5295,
      "duration": 0.0125,
      "velocity": 103,
      "chip": "ym2612"
    },
    {
      "channel": 5,
      "note": 82,
      "start": 20.5319,
      "duration": 0.0131,
      "velocity": 103,
      "chip": "ym2612"
    },
    {
      "channel": 2,
      "note": 40,
      "start": 20.5341,
      "duration": 0.0122,
      "velocity": 114,
      "chip": "ym2612"
    },
    {
      "channel": 0,
      "note": 82,
      "start": 20.542,
      "duration": 0.0125,
      "velocity": 103,
      "chip": "ym2612"
    },
    {
      "channel": 5,
      "note": 82,
      "start": 20.545,
      "duration": 0.0119,
      "velocity": 103,
      "chip": "ym2612"
    },
    {
      "channel": 2,
      "note": 40,
      "start": 20.5463,
      "duration": 0.0119,
      "velocity": 114,
      "chip": "ym2612"
    },
    {
      "channel": 0,
      "note": 82,
      "start": 20.5545,
      "duration": 0.0125,
      "velocity": 103,
      "chip": "ym2612"
    },
    {
      "channel": 5,
      "note": 82,
      "start": 20.5569,
      "duration": 0.0125,
      "velocity": 103,
      "chip": "ym2612"
    },
    {
      "channel": 2,
      "note": 40,
      "start": 20.5582,
      "duration": 0.0128,
      "velocity": 114,
      "chip": "ym2612"
    },
    {
      "channel": 0,
      "note": 82,
      "start": 20.567,
      "duration": 0.0126,
      "velocity": 103,
      "chip": "ym2612"
    },
    {
      "channel": 5,
      "note": 82,
      "start": 20.5694,
      "duration": 0.0125,
      "velocity": 103,
      "chip": "ym2612"
    },
    {
      "channel": 2,
      "note": 40,
      "start": 20.571,
      "duration": 0.0122,
      "velocity": 114,
      "chip": "ym2612"
    },
    {
      "channel": 0,
      "note": 82,
      "start": 20.5795,
      "duration": 0.0125,
      "velocity": 103,
      "chip": "ym2612"
    },
    {
      "channel": 5,
      "note": 82,
      "start": 20.5819,
      "duration": 0.0131,
      "velocity": 103,
      "chip": "ym2612"
    },
    {
      "channel": 2,
      "note": 40,
      "start": 20.5832,
      "duration": 0.0131,
      "velocity": 114,
      "chip": "ym2612"
    },
    {
      "channel": 0,
      "note": 82,
      "start": 20.592,
      "duration": 0.0125,
      "velocity": 103,
      "chip": "ym2612"
    },
    {
      "channel": 5,
      "note": 82,
      "start": 20.595,
      "duration": 0.0119,
      "velocity": 103,
      "chip": "ym2612"
    },
    {
      "channel": 2,
      "note": 40,
      "start": 20.5963,
      "duration": 0.0119,
      "velocity": 114,
      "chip": "ym2612"
    },
    {
      "channel": 0,
      "note": 82,
      "start": 20.6045,
      "duration": 0.0125,
      "velocity": 103,
      "chip": "ym2612"
    },
    {
      "channel": 5,
      "note": 82,
      "start": 20.6069,
      "duration": 0.013,
      "velocity": 103,
      "chip": "ym2612"
    },
    {
      "channel": 2,
      "note": 40,
      "start": 20.6082,
      "duration": 0.013,
      "velocity": 114,
      "chip": "ym2612"
    },
    {
      "channel": 0,
      "note": 82,
      "start": 20.617,
      "duration": 0.0125,
      "velocity": 103,
      "chip": "ym2612"
    },
    {
      "channel": 5,
      "note": 82,
      "start": 20.6199,
      "duration": 0.012,
      "velocity": 103,
      "chip": "ym2612"
    },
    {
      "channel": 2,
      "note": 40,
      "start": 20.6212,
      "duration": 0.012,
      "velocity": 114,
      "chip": "ym2612"
    },
    {
      "channel": 0,
      "note": 82,
      "start": 20.6295,
      "duration": 0.0125,
      "velocity": 103,
      "chip": "ym2612"
    },
    {
      "channel": 5,
      "note": 82,
      "start": 20.6319,
      "duration": 0.0132,
      "velocity": 103,
      "chip": "ym2612"
    },
    {
      "channel": 2,
      "note": 40,
      "start": 20.6332,
      "duration": 0.0132,
      "velocity": 114,
      "chip": "ym2612"
    },
    {
      "channel": 0,
      "note": 82,
      "start": 20.642,
      "duration": 0.0125,
      "velocity": 103,
      "chip": "ym2612"
    },
    {
      "channel": 5,
      "note": 82,
      "start": 20.6451,
      "duration": 0.0119,
      "velocity": 103,
      "chip": "ym2612"
    },
    {
      "channel": 2,
      "note": 40,
      "start": 20.6463,
      "duration": 0.0118,
      "velocity": 114,
      "chip": "ym2612"
    },
    {
      "channel": 0,
      "note": 82,
      "start": 20.6546,
      "duration": 0.0124,
      "velocity": 103,
      "chip": "ym2612"
    },
    {
      "channel": 5,
      "note": 82,
      "start": 20.657,
      "duration": 0.0124,
      "velocity": 103,
      "chip": "ym2612"
    },
    {
      "channel": 2,
      "note": 39,
      "start": 20.6582,
      "duration": 0.0124,
      "velocity": 114,
      "chip": "ym2612"
    },
    {
      "channel": 0,
      "note": 82,
      "start": 20.667,
      "duration": 0.0126,
      "velocity": 103,
      "chip": "ym2612"
    },
    {
      "channel": 5,
      "note": 82,
      "start": 20.6694,
      "duration": 0.0125,
      "velocity": 103,
      "chip": "ym2612"
    },
    {
      "channel": 0,
      "note": 82,
      "start": 20.6795,
      "duration": 0.0125,
      "velocity": 103,
      "chip": "ym2612"
    },
    {
      "channel": 5,
      "note": 82,
      "start": 20.6819,
      "duration": 0.0131,
      "velocity": 103,
      "chip": "ym2612"
    },
    {
      "channel": 0,
      "note": 82,
      "start": 20.692,
      "duration": 0.0125,
      "velocity": 103,
      "chip": "ym2612"
    },
    {
      "channel": 5,
      "note": 82,
      "start": 20.695,
      "duration": 0.0119,
      "velocity": 103,
      "chip": "ym2612"
    },
    {
      "channel": 0,
      "note": 82,
      "start": 20.7045,
      "duration": 0.0125,
      "velocity": 103,
      "chip": "ym2612"
    },
    {
      "channel": 5,
      "note": 82,
      "start": 20.7069,
      "duration": 0.0144,
      "velocity": 103,
      "chip": "ym2612"
    },
    {
      "channel": 0,
      "note": 82,
      "start": 20.717,
      "duration": 0.0126,
      "velocity": 103,
      "chip": "ym2612"
    },
    {
      "channel": 1,
      "note": 53,
      "start": 20.7184,
      "duration": 0.0994,
      "velocity": 81,
      "chip": "ym2612"
    },
    {
      "channel": 5,
      "note": 82,
      "start": 20.7213,
      "duration": 0.0106,
      "velocity": 103,
      "chip": "ym2612"
    },
    {
      "channel": 2,
      "note": 41,
      "start": 20.7268,
      "duration": 0.1973,
      "velocity": 122,
      "chip": "ym2612"
    },
    {
      "channel": 0,
      "note": 82,
      "start": 20.7295,
      "duration": 0.0125,
      "velocity": 103,
      "chip": "ym2612"
    },
    {
      "channel": 5,
      "note": 82,
      "start": 20.732,
      "duration": 0.013,
      "velocity": 103,
      "chip": "ym2612"
    },
    {
      "channel": 0,
      "note": 82,
      "start": 20.742,
      "duration": 0.0125,
      "velocity": 103,
      "chip": "ym2612"
    },
    {
      "channel": 5,
      "note": 82,
      "start": 20.745,
      "duration": 0.0119,
      "velocity": 103,
      "chip": "ym2612"
    },
    {
      "channel": 0,
      "note": 82,
      "start": 20.7545,
      "duration": 0.0125,
      "velocity": 103,
      "chip": "ym2612"
    },
    {
      "channel": 5,
      "note": 82,
      "start": 20.7569,
      "duration": 0.0125,
      "velocity": 103,
      "chip": "ym2612"
    },
    {
      "channel": 0,
      "note": 82,
      "start": 20.767,
      "duration": 0.0126,
      "velocity": 103,
      "chip": "ym2612"
    },
    {
      "channel": 5,
      "note": 82,
      "start": 20.7694,
      "duration": 0.0125,
      "velocity": 103,
      "chip": "ym2612"
    },
    {
      "channel": 0,
      "note": 82,
      "start": 20.7795,
      "duration": 0.0125,
      "velocity": 103,
      "chip": "ym2612"
    },
    {
      "channel": 5,
      "note": 82,
      "start": 20.7819,
      "duration": 0.0132,
      "velocity": 103,
      "chip": "ym2612"
    },
    {
      "channel": 0,
      "note": 82,
      "start": 20.792,
      "duration": 0.0125,
      "velocity": 103,
      "chip": "ym2612"
    },
    {
      "channel": 5,
      "note": 82,
      "start": 20.7951,
      "duration": 0.0119,
      "velocity": 103,
      "chip": "ym2612"
    },
    {
      "channel": 0,
      "note": 82,
      "start": 20.8046,
      "duration": 0.0124,
      "velocity": 103,
      "chip": "ym2612"
    },
    {
      "channel": 5,
      "note": 82,
      "start": 20.807,
      "duration": 0.013,
      "velocity": 103,
      "chip": "ym2612"
    },
    {
      "channel": 0,
      "note": 82,
      "start": 20.817,
      "duration": 0.0126,
      "velocity": 103,
      "chip": "ym2612"
    },
    {
      "channel": 5,
      "note": 82,
      "start": 20.8199,
      "duration": 0.012,
      "velocity": 103,
      "chip": "ym2612"
    },
    {
      "channel": 0,
      "note": 82,
      "start": 20.8295,
      "duration": 0.0125,
      "velocity": 103,
      "chip": "ym2612"
    },
    {
      "channel": 5,
      "note": 82,
      "start": 20.8319,
      "duration": 0.0131,
      "velocity": 103,
      "chip": "ym2612"
    },
    {
      "channel": 0,
      "note": 82,
      "start": 20.842,
      "duration": 0.0125,
      "velocity": 103,
      "chip": "ym2612"
    },
    {
      "channel": 5,
      "note": 82,
      "start": 20.845,
      "duration": 0.0119,
      "velocity": 103,
      "chip": "ym2612"
    },
    {
      "channel": 0,
      "note": 82,
      "start": 20.8545,
      "duration": 0.0125,
      "velocity": 103,
      "chip": "ym2612"
    },
    {
      "channel": 5,
      "note": 82,
      "start": 20.8569,
      "duration": 0.0125,
      "velocity": 103,
      "chip": "ym2612"
    },
    {
      "channel": 0,
      "note": 82,
      "start": 20.867,
      "duration": 0.0126,
      "velocity": 103,
      "chip": "ym2612"
    },
    {
      "channel": 5,
      "note": 82,
      "start": 20.8694,
      "duration": 0.0125,
      "velocity": 103,
      "chip": "ym2612"
    },
    {
      "channel": 0,
      "note": 82,
      "start": 20.8795,
      "duration": 0.0125,
      "velocity": 103,
      "chip": "ym2612"
    },
    {
      "channel": 5,
      "note": 82,
      "start": 20.8819,
      "duration": 0.0131,
      "velocity": 103,
      "chip": "ym2612"
    },
    {
      "channel": 0,
      "note": 82,
      "start": 20.892,
      "duration": 0.0125,
      "velocity": 103,
      "chip": "ym2612"
    },
    {
      "channel": 5,
      "note": 82,
      "start": 20.895,
      "duration": 0.0119,
      "velocity": 103,
      "chip": "ym2612"
    },
    {
      "channel": 0,
      "note": 82,
      "start": 20.9045,
      "duration": 0.0125,
      "velocity": 103,
      "chip": "ym2612"
    },
    {
      "channel": 5,
      "note": 82,
      "start": 20.9069,
      "duration": 0.0144,
      "velocity": 103,
      "chip": "ym2612"
    },
    {
      "channel": 0,
      "note": 82,
      "start": 20.917,
      "duration": 0.0126,
      "velocity": 103,
      "chip": "ym2612"
    },
    {
      "channel": 1,
      "note": 53,
      "start": 20.9184,
      "duration": 0.0994,
      "velocity": 81,
      "chip": "ym2612"
    },
    {
      "channel": 5,
      "note": 82,
      "start": 20.9213,
      "duration": 0.0106,
      "velocity": 103,
      "chip": "ym2612"
    },
    {
      "channel": 2,
      "note": 40,
      "start": 20.9268,
      "duration": 0.0064,
      "velocity": 114,
      "chip": "ym2612"
    },
    {
      "channel": 0,
      "note": 82,
      "start": 20.9295,
      "duration": 0.0125,
      "velocity": 103,
      "chip": "ym2612"
    },
    {
      "channel": 5,
      "note": 82,
      "start": 20.9319,
      "duration": 0.0132,
      "velocity": 103,
      "chip": "ym2612"
    },
    {
      "channel": 2,
      "note": 40,
      "start": 20.9332,
      "duration": 0.0132,
      "velocity": 114,
      "chip": "ym2612"
    },
    {
      "channel": 0,
      "note": 82,
      "start": 20.942,
      "duration": 0.0125,
      "velocity": 103,
      "chip": "ym2612"
    },
    {
      "channel": 5,
      "note": 82,
      "start": 20.9451,
      "duration": 0.0119,
      "velocity": 103,
      "chip": "ym2612"
    },
    {
      "channel": 2,
      "note": 40,
      "start": 20.9463,
      "duration": 0.0122,
      "velocity": 114,
      "chip": "ym2612"
    },
    {
      "channel": 0,
      "note": 82,
      "start": 20.9546,
      "duration": 0.0124,
      "velocity": 103,
      "chip": "ym2612"
    },
    {
      "channel": 5,
      "note": 82,
      "start": 20.957,
      "duration": 0.0124,
      "velocity": 103,
      "chip": "ym2612"
    },
    {
      "channel": 2,
      "note": 40,
      "start": 20.9585,
      "duration": 0.0121,
      "velocity": 114,
      "chip": "ym2612"
    },
    {
      "channel": 0,
      "note": 82,
      "start": 20.967,
      "duration": 0.0125,
      "velocity": 103,
      "chip": "ym2612"
    },
    {
      "channel": 5,
      "note": 82,
      "start": 20.9694,
      "duration": 0.0125,
      "velocity": 103,
      "chip": "ym2612"
    },
    {
      "channel": 2,
      "note": 40,
      "start": 20.9706,
      "duration": 0.0125,
      "velocity": 114,
      "chip": "ym2612"
    },
    {
      "channel": 0,
      "note": 82,
      "start": 20.9795,
      "duration": 0.0125,
      "velocity": 103,
      "chip": "ym2612"
    },
    {
      "channel": 5,
      "note": 82,
      "start": 20.9819,
      "duration": 0.0131,
      "velocity": 103,
      "chip": "ym2612"
    },
    {
      "channel": 2,
      "note": 40,
      "start": 20.9832,
      "duration": 0.0131,
      "velocity": 114,
      "chip": "ym2612"
    },
    {
      "channel": 0,
      "note": 82,
      "start": 20.992,
      "duration": 0.0125,
      "velocity": 103,
      "chip": "ym2612"
    },
    {
      "channel": 5,
      "note": 82,
      "start": 20.995,
      "duration": 0.0119,
      "velocity": 103,
      "chip": "ym2612"
    },
    {
      "channel": 2,
      "note": 40,
      "start": 20.9963,
      "duration": 0.0119,
      "velocity": 114,
      "chip": "ym2612"
    },
    {
      "channel": 0,
      "note": 82,
      "start": 21.0045,
      "duration": 0.0125,
      "velocity": 103,
      "chip": "ym2612"
    },
    {
      "channel": 5,
      "note": 82,
      "start": 21.0069,
      "duration": 0.013,
      "velocity": 103,
      "chip": "ym2612"
    },
    {
      "channel": 2,
      "note": 40,
      "start": 21.0082,
      "duration": 0.013,
      "velocity": 114,
      "chip": "ym2612"
    },
    {
      "channel": 0,
      "note": 82,
      "start": 21.017,
      "duration": 0.0126,
      "velocity": 103,
      "chip": "ym2612"
    },
    {
      "channel": 5,
      "note": 82,
      "start": 21.0199,
      "duration": 0.012,
      "velocity": 103,
      "chip": "ym2612"
    },
    {
      "channel": 2,
      "note": 40,
      "start": 21.0212,
      "duration": 0.012,
      "velocity": 114,
      "chip": "ym2612"
    },
    {
      "channel": 0,
      "note": 82,
      "start": 21.0295,
      "duration": 0.0125,
      "velocity": 103,
      "chip": "ym2612"
    },
    {
      "channel": 5,
      "note": 82,
      "start": 21.032,
      "duration": 0.013,
      "velocity": 103,
      "chip": "ym2612"
    },
    {
      "channel": 2,
      "note": 40,
      "start": 21.0332,
      "duration": 0.0131,
      "velocity": 114,
      "chip": "ym2612"
    },
    {
      "channel": 0,
      "note": 82,
      "start": 21.042,
      "duration": 0.0125,
      "velocity": 103,
      "chip": "ym2612"
    },
    {
      "channel": 5,
      "note": 82,
      "start": 21.045,
      "duration": 0.0119,
      "velocity": 103,
      "chip": "ym2612"
    },
    {
      "channel": 2,
      "note": 39,
      "start": 21.0463,
      "duration": 0.0118,
      "velocity": 114,
      "chip": "ym2612"
    },
    {
      "channel": 0,
      "note": 82,
      "start": 21.0545,
      "duration": 0.0125,
      "velocity": 103,
      "chip": "ym2612"
    },
    {
      "channel": 5,
      "note": 82,
      "start": 21.0569,
      "duration": 0.0125,
      "velocity": 103,
      "chip": "ym2612"
    },
    {
      "channel": 0,
      "note": 82,
      "start": 21.067,
      "duration": 0.0126,
      "velocity": 103,
      "chip": "ym2612"
    },
    {
      "channel": 5,
      "note": 82,
      "start": 21.0694,
      "duration": 0.0126,
      "velocity": 103,
      "chip": "ym2612"
    },
    {
      "channel": 0,
      "note": 82,
      "start": 21.0795,
      "duration": 0.0125,
      "velocity": 103,
      "chip": "ym2612"
    },
    {
      "channel": 5,
      "note": 82,
      "start": 21.082,
      "duration": 0.0131,
      "velocity": 103,
      "chip": "ym2612"
    },
    {
      "channel": 0,
      "note": 82,
      "start": 21.092,
      "duration": 0.0125,
      "velocity": 103,
      "chip": "ym2612"
    },
    {
      "channel": 5,
      "note": 82,
      "start": 21.0951,
      "duration": 0.0119,
      "velocity": 103,
      "chip": "ym2612"
    },
    {
      "channel": 0,
      "note": 82,
      "start": 21.1046,
      "duration": 0.0124,
      "velocity": 103,
      "chip": "ym2612"
    },
    {
      "channel": 5,
      "note": 82,
      "start": 21.107,
      "duration": 0.0124,
      "velocity": 103,
      "chip": "ym2612"
    },
    {
      "channel": 0,
      "note": 82,
      "start": 21.117,
      "duration": 0.0126,
      "velocity": 103,
      "chip": "ym2612"
    },
    {
      "channel": 5,
      "note": 82,
      "start": 21.1194,
      "duration": 0.0145,
      "velocity": 103,
      "chip": "ym2612"
    },
    {
      "channel": 0,
      "note": 82,
      "start": 21.1295,
      "duration": 0.0125,
      "velocity": 103,
      "chip": "ym2612"
    },
    {
      "channel": 1,
      "note": 53,
      "start": 21.131,
      "duration": 0.0494,
      "velocity": 81,
      "chip": "ym2612"
    },
    {
      "channel": 5,
      "note": 82,
      "start": 21.1339,
      "duration": 0.0111,
      "velocity": 103,
      "chip": "ym2612"
    },
    {
      "channel": 2,
      "note": 40,
      "start": 21.1366,
      "duration": 0.0097,
      "velocity": 114,
      "chip": "ym2612"
    },
    {
      "channel": 0,
      "note": 82,
      "start": 21.142,
      "duration": 0.0125,
      "velocity": 103,
      "chip": "ym2612"
    },
    {
      "channel": 5,
      "note": 82,
      "start": 21.145,
      "duration": 0.0119,
      "velocity": 103,
      "chip": "ym2612"
    },
    {
      "channel": 2,
      "note": 40,
      "start": 21.1463,
      "duration": 0.0119,
      "velocity": 114,
      "chip": "ym2612"
    },
    {
      "channel": 0,
      "note": 82,
      "start": 21.1545,
      "duration": 0.0125,
      "velocity": 103,
      "chip": "ym2612"
    },
    {
      "channel": 5,
      "note": 82,
      "start": 21.1569,
      "duration": 0.0125,
      "velocity": 103,
      "chip": "ym2612"
    },
    {
      "channel": 2,
      "note": 40,
      "start": 21.1582,
      "duration": 0.0128,
      "velocity": 114,
      "chip": "ym2612"
    },
    {
      "channel": 0,
      "note": 82,
      "start": 21.167,
      "duration": 0.0126,
      "velocity": 103,
      "chip": "ym2612"
    },
    {
      "channel": 5,
      "note": 82,
      "start": 21.1694,
      "duration": 0.0131,
      "velocity": 103,
      "chip": "ym2612"
    },
    {
      "channel": 2,
      "note": 40,
      "start": 21.171,
      "duration": 0.0127,
      "velocity": 114,
      "chip": "ym2612"
    },
    {
      "channel": 0,
      "note": 82,
      "start": 21.1795,
      "duration": 0.0125,
      "velocity": 103,
      "chip": "ym2612"
    },
    {
      "channel": 5,
      "note": 82,
      "start": 21.1825,
      "duration": 0.0125,
      "velocity": 103,
      "chip": "ym2612"
    },
    {
      "channel": 2,
      "note": 40,
      "start": 21.1837,
      "duration": 0.0125,
      "velocity": 114,
      "chip": "ym2612"
    },
    {
      "channel": 0,
      "note": 82,
      "start": 21.192,
      "duration": 0.0125,
      "velocity": 103,
      "chip": "ym2612"
    },
    {
      "channel": 5,
      "note": 82,
      "start": 21.195,
      "duration": 0.0119,
      "velocity": 103,
      "chip": "ym2612"
    },
    {
      "channel": 2,
      "note": 40,
      "start": 21.1963,
      "duration": 0.0119,
      "velocity": 114,
      "chip": "ym2612"
    },
    {
      "channel": 0,
      "note": 82,
      "start": 21.2045,
      "duration": 0.0125,
      "velocity": 103,
      "chip": "ym2612"
    },
    {
      "channel": 5,
      "note": 82,
      "start": 21.2069,
      "duration": 0.0125,
      "velocity": 103,
      "chip": "ym2612"
    },
    {
      "channel": 2,
      "note": 40,
      "start": 21.2082,
      "duration": 0.0124,
      "velocity": 114,
      "chip": "ym2612"
    },
    {
      "channel": 0,
      "note": 82,
      "start": 21.217,
      "duration": 0.0126,
      "velocity": 103,
      "chip": "ym2612"
    },
    {
      "channel": 5,
      "note": 82,
      "start": 21.2194,
      "duration": 0.0145,
      "velocity": 103,
      "chip": "ym2612"
    },
    {
      "channel": 2,
      "note": 40,
      "start": 21.2206,
      "duration": 0.0144,
      "velocity": 114,
      "chip": "ym2612"
    },
    {
      "channel": 0,
      "note": 82,
      "start": 21.2295,
      "duration": 0.0125,
      "velocity": 103,
      "chip": "ym2612"
    },
    {
      "channel": 1,
      "note": 53,
      "start": 21.231,
      "duration": 0.0994,
      "velocity": 81,
      "chip": "ym2612"
    },
    {
      "channel": 5,
      "note": 82,
      "start": 21.2339,
      "duration": 0.0112,
      "velocity": 103,
      "chip": "ym2612"
    },
    {
      "channel": 0,
      "note": 82,
      "start": 21.242,
      "duration": 0.0125,
      "velocity": 103,
      "chip": "ym2612"
    },
    {
      "channel": 5,
      "note": 82,
      "start": 21.2451,
      "duration": 0.0118,
      "velocity": 103,
      "chip": "ym2612"
    },
    {
      "channel": 2,
      "note": 41,
      "start": 21.2501,
      "duration": 0.1866,
      "velocity": 122,
      "chip": "ym2612"
    },
    {
      "channel": 0,
      "note": 82,
      "start": 21.2546,
      "duration": 0.0124,
      "velocity": 103,
      "chip": "ym2612"
    },
    {
      "channel": 5,
      "note": 82,
      "start": 21.2569,
      "duration": 0.0125,
      "velocity": 103,
      "chip": "ym2612"
    },
    {
      "channel": 0,
      "note": 82,
      "start": 21.267,
      "duration": 0.0126,
      "velocity": 103,
      "chip": "ym2612"
    },
    {
      "channel": 5,
      "note": 82,
      "start": 21.2694,
      "duration": 0.0125,
      "velocity": 103,
      "chip": "ym2612"
    },
    {
      "channel": 0,
      "note": 82,
      "start": 21.2795,
      "duration": 0.0125,
      "velocity": 103,
      "chip": "ym2612"
    },
    {
      "channel": 5,
      "note": 82,
      "start": 21.2819,
      "duration": 0.0131,
      "velocity": 103,
      "chip": "ym2612"
    },
    {
      "channel": 0,
      "note": 82,
      "start": 21.292,
      "duration": 0.0125,
      "velocity": 103,
      "chip": "ym2612"
    },
    {
      "channel": 5,
      "note": 82,
      "start": 21.295,
      "duration": 0.0119,
      "velocity": 103,
      "chip": "ym2612"
    },
    {
      "channel": 0,
      "note": 82,
      "start": 21.3045,
      "duration": 0.0125,
      "velocity": 103,
      "chip": "ym2612"
    },
    {
      "channel": 5,
      "note": 82,
      "start": 21.3069,
      "duration": 0.0125,
      "velocity": 103,
      "chip": "ym2612"
    },
    {
      "channel": 0,
      "note": 82,
      "start": 21.317,
      "duration": 0.0126,
      "velocity": 103,
      "chip": "ym2612"
    },
    {
      "channel": 5,
      "note": 82,
      "start": 21.3194,
      "duration": 0.0131,
      "velocity": 103,
      "chip": "ym2612"
    },
    {
      "channel": 0,
      "note": 82,
      "start": 21.3295,
      "duration": 0.0125,
      "velocity": 103,
      "chip": "ym2612"
    },
    {
      "channel": 5,
      "note": 82,
      "start": 21.3325,
      "duration": 0.0125,
      "velocity": 103,
      "chip": "ym2612"
    },
    {
      "channel": 0,
      "note": 82,
      "start": 21.342,
      "duration": 0.0125,
      "velocity": 103,
      "chip": "ym2612"
    },
    {
      "channel": 5,
      "note": 82,
      "start": 21.345,
      "duration": 0.0119,
      "velocity": 103,
      "chip": "ym2612"
    },
    {
      "channel": 0,
      "note": 82,
      "start": 21.3545,
      "duration": 0.0125,
      "velocity": 103,
      "chip": "ym2612"
    },
    {
      "channel": 5,
      "note": 82,
      "start": 21.3569,
      "duration": 0.0125,
      "velocity": 103,
      "chip": "ym2612"
    },
    {
      "channel": 0,
      "note": 82,
      "start": 21.367,
      "duration": 0.0126,
      "velocity": 103,
      "chip": "ym2612"
    },
    {
      "channel": 5,
      "note": 82,
      "start": 21.3694,
      "duration": 0.0126,
      "velocity": 103,
      "chip": "ym2612"
    },
    {
      "channel": 0,
      "note": 82,
      "start": 21.3795,
      "duration": 0.0125,
      "velocity": 103,
      "chip": "ym2612"
    },
    {
      "channel": 5,
      "note": 82,
      "start": 21.382,
      "duration": 0.0131,
      "velocity": 103,
      "chip": "ym2612"
    },
    {
      "channel": 0,
      "note": 82,
      "start": 21.392,
      "duration": 0.0125,
      "velocity": 103,
      "chip": "ym2612"
    },
    {
      "channel": 5,
      "note": 82,
      "start": 21.3951,
      "duration": 0.0119,
      "velocity": 103,
      "chip": "ym2612"
    },
    {
      "channel": 0,
      "note": 82,
      "start": 21.4046,
      "duration": 0.0124,
      "velocity": 103,
      "chip": "ym2612"
    },
    {
      "channel": 5,
      "note": 82,
      "start": 21.407,
      "duration": 0.0124,
      "velocity": 103,
      "chip": "ym2612"
    },
    {
      "channel": 0,
      "note": 82,
      "start": 21.417,
      "duration": 0.0125,
      "velocity": 103,
      "chip": "ym2612"
    },
    {
      "channel": 5,
      "note": 82,
      "start": 21.4194,
      "duration": 0.0145,
      "velocity": 103,
      "chip": "ym2612"
    },
    {
      "channel": 0,
      "note": 82,
      "start": 21.4295,
      "duration": 0.0125,
      "velocity": 103,
      "chip": "ym2612"
    },
    {
      "channel": 1,
      "note": 53,
      "start": 21.431,
      "duration": 0.0619,
      "velocity": 81,
      "chip": "ym2612"
    },
    {
      "channel": 5,
      "note": 82,
      "start": 21.4339,
      "duration": 0.0111,
      "velocity": 103,
      "chip": "ym2612"
    },
    {
      "channel": 2,
      "note": 40,
      "start": 21.4394,
      "duration": 0.0069,
      "velocity": 114,
      "chip": "ym2612"
    },
    {
      "channel": 0,
      "note": 82,
      "start": 21.442,
      "duration": 0.0125,
      "velocity": 103,
      "chip": "ym2612"
    },
    {
      "channel": 5,
      "note": 82,
      "start": 21.445,
      "duration": 0.0119,
      "velocity": 103,
      "chip": "ym2612"
    },
    {
      "channel": 2,
      "note": 40,
      "start": 21.4463,
      "duration": 0.0119,
      "velocity": 114,
      "chip": "ym2612"
    },
    {
      "channel": 0,
      "note": 82,
      "start": 21.4545,
      "duration": 0.0125,
      "velocity": 103,
      "chip": "ym2612"
    },
    {
      "channel": 5,
      "note": 82,
      "start": 21.4569,
      "duration": 0.0125,
      "velocity": 103,
      "chip": "ym2612"
    },
    {
      "channel": 2,
      "note": 40,
      "start": 21.4582,
      "duration": 0.0128,
      "velocity": 114,
      "chip": "ym2612"
    },
    {
      "channel": 0,
      "note": 82,
      "start": 21.467,
      "duration": 0.0126,
      "velocity": 103,
      "chip": "ym2612"
    },
    {
      "channel": 5,
      "note": 82,
      "start": 21.4694,
      "duration": 0.0125,
      "velocity": 103,
      "chip": "ym2612"
    },
    {
      "channel": 2,
      "note": 40,
      "start": 21.471,
      "duration": 0.0122,
      "velocity": 114,
      "chip": "ym2612"
    },
    {
      "channel": 0,
      "note": 82,
      "start": 21.4795,
      "duration": 0.0125,
      "velocity": 103,
      "chip": "ym2612"
    },
    {
      "channel": 5,
      "note": 82,
      "start": 21.4819,
      "duration": 0.0137,
      "velocity": 103,
      "chip": "ym2612"
    },
    {
      "channel": 2,
      "note": 40,
      "start": 21.4832,
      "duration": 0.0137,
      "velocity": 114,
      "chip": "ym2612"
    },
    {
      "channel": 0,
      "note": 82,
      "start": 21.492,
      "duration": 0.0125,
      "velocity": 103,
      "chip": "ym2612"
    },
    {
      "channel": 5,
      "note": 82,
      "start": 21.4956,
      "duration": 0.0113,
      "velocity": 103,
      "chip": "ym2612"
    },
    {
      "channel": 2,
      "note": 40,
      "start": 21.4968,
      "duration": 0.0113,
      "velocity": 114,
      "chip": "ym2612"
    },
    {
      "channel": 0,
      "note": 82,
      "start": 21.5045,
      "duration": 0.0125,
      "velocity": 103,
      "chip": "ym2612"
    },
    {
      "channel": 5,
      "note": 82,
      "start": 21.5069,
      "duration": 0.0125,
      "velocity": 103,
      "chip": "ym2612"
    },
    {
      "channel": 2,
      "note": 40,
      "start": 21.5082,
      "duration": 0.0124,
      "velocity": 114,
      "chip": "ym2612"
    },
    {
      "channel": 0,
      "note": 82,
      "start": 21.517,
      "duration": 0.0126,
      "velocity": 103,
      "chip": "ym2612"
    },
    {
      "channel": 5,
      "note": 82,
      "start": 21.5194,
      "duration": 0.0145,
      "velocity": 103,
      "chip": "ym2612"
    },
    {
      "channel": 2,
      "note": 40,
      "start": 21.5206,
      "duration": 0.0143,
      "velocity": 114,
      "chip": "ym2612"
    },
    {
      "channel": 0,
      "note": 82,
      "start": 21.5295,
      "duration": 0.0125,
      "velocity": 103,
      "chip": "ym2612"
    },
    {
      "channel": 1,
      "note": 53,
      "start": 21.531,
      "duration": 0.0995,
      "velocity": 81,
      "chip": "ym2612"
    },
    {
      "channel": 5,
      "note": 82,
      "start": 21.5339,
      "duration": 0.0112,
      "velocity": 103,
      "chip": "ym2612"
    },
    {
      "channel": 0,
      "note": 82,
      "start": 21.542,
      "duration": 0.0125,
      "velocity": 103,
      "chip": "ym2612"
    },
    {
      "channel": 5,
      "note": 82,
      "start": 21.5451,
      "duration": 0.0118,
      "velocity": 103,
      "chip": "ym2612"
    },
    {
      "channel": 2,
      "note": 40,
      "start": 21.5473,
      "duration": 0.0109,
      "velocity": 114,
      "chip": "ym2612"
    },
    {
      "channel": 0,
      "note": 82,
      "start": 21.5546,
      "duration": 0.0124,
      "velocity": 103,
      "chip": "ym2612"
    },
    {
      "channel": 5,
      "note": 82,
      "start": 21.5569,
      "duration": 0.0125,
      "velocity": 103,
      "chip": "ym2612"
    },
    {
      "channel": 2,
      "note": 40,
      "start": 21.5582,
      "duration": 0.0124,
      "velocity": 114,
      "chip": "ym2612"
    },
    {
      "channel": 0,
      "note": 82,
      "start": 21.567,
      "duration": 0.0126,
      "velocity": 103,
      "chip": "ym2612"
    },
    {
      "channel": 5,
      "note": 82,
      "start": 21.5694,
      "duration": 0.0125,
      "velocity": 103,
      "chip": "ym2612"
    },
    {
      "channel": 2,
      "note": 40,
      "start": 21.5706,
      "duration": 0.0129,
      "velocity": 114,
      "chip": "ym2612"
    },
    {
      "channel": 0,
      "note": 82,
      "start": 21.5795,
      "duration": 0.0125,
      "velocity": 103,
      "chip": "ym2612"
    },
    {
      "channel": 5,
      "note": 82,
      "start": 21.5819,
      "duration": 0.0131,
      "velocity": 103,
      "chip": "ym2612"
    },
    {
      "channel": 2,
      "note": 40,
      "start": 21.5836,
      "duration": 0.0127,
      "velocity": 114,
      "chip": "ym2612"
    },
    {
      "channel": 0,
      "note": 82,
      "start": 21.592,
      "duration": 0.0125,
      "velocity": 103,
      "chip": "ym2612"
    },
    {
      "channel": 5,
      "note": 82,
      "start": 21.595,
      "duration": 0.0119,
      "velocity": 103,
      "chip": "ym2612"
    },
    {
      "channel": 2,
      "note": 40,
      "start": 21.5963,
      "duration": 0.0119,
      "velocity": 114,
      "chip": "ym2612"
    },
    {
      "channel": 0,
      "note": 82,
      "start": 21.6045,
      "duration": 0.0125,
      "velocity": 103,
      "chip": "ym2612"
    },
    {
      "channel": 5,
      "note": 82,
      "start": 21.6069,
      "duration": 0.0125,
      "velocity": 103,
      "chip": "ym2612"
    },
    {
      "channel": 2,
      "note": 40,
      "start": 21.6082,
      "duration": 0.0124,
      "velocity": 114,
      "chip": "ym2612"
    },
    {
      "channel": 0,
      "note": 82,
      "start": 21.617,
      "duration": 0.0126,
      "velocity": 103,
      "chip": "ym2612"
    },
    {
      "channel": 5,
      "note": 82,
      "start": 21.6194,
      "duration": 0.0145,
      "velocity": 103,
      "chip": "ym2612"
    },
    {
      "channel": 2,
      "note": 40,
      "start": 21.6206,
      "duration": 0.0143,
      "velocity": 114,
      "chip": "ym2612"
    },
    {
      "channel": 0,
      "note": 82,
      "start": 21.6295,
      "duration": 0.0125,
      "velocity": 103,
      "chip": "ym2612"
    },
    {
      "channel": 1,
      "note": 59,
      "start": 21.631,
      "duration": 0.0995,
      "velocity": 81,
      "chip": "ym2612"
    },
    {
      "channel": 5,
      "note": 82,
      "start": 21.6339,
      "duration": 0.0111,
      "velocity": 103,
      "chip": "ym2612"
    },
    {
      "channel": 0,
      "note": 82,
      "start": 21.642,
      "duration": 0.0125,
      "velocity": 103,
      "chip": "ym2612"
    },
    {
      "channel": 5,
      "note": 82,
      "start": 21.645,
      "duration": 0.0119,
      "velocity": 103,
      "chip": "ym2612"
    },
    {
      "channel": 2,
      "note": 40,
      "start": 21.6472,
      "duration": 0.011,
      "velocity": 114,
      "chip": "ym2612"
    },
    {
      "channel": 0,
      "note": 82,
      "start": 21.6545,
      "duration": 0.0125,
      "velocity": 103,
      "chip": "ym2612"
    },
    {
      "channel": 5,
      "note": 82,
      "start": 21.6569,
      "duration": 0.0125,
      "velocity": 103,
      "chip": "ym2612"
    },
    {
      "channel": 2,
      "note": 40,
      "start": 21.6582,
      "duration": 0.0124,
      "velocity": 114,
      "chip": "ym2612"
    },
    {
      "channel": 0,
      "note": 82,
      "start": 21.667,
      "duration": 0.0126,
      "velocity": 103,
      "chip": "ym2612"
    },
    {
      "channel": 5,
      "note": 82,
      "start": 21.6694,
      "duration": 0.0125,
      "velocity": 103,
      "chip": "ym2612"
    },
    {
      "channel": 2,
      "note": 40,
      "start": 21.6706,
      "duration": 0.0129,
      "velocity": 114,
      "chip": "ym2612"
    },
    {
      "channel": 0,
      "note": 82,
      "start": 21.6795,
      "duration": 0.0125,
      "velocity": 103,
      "chip": "ym2612"
    },
    {
      "channel": 5,
      "note": 82,
      "start": 21.6819,
      "duration": 0.0132,
      "velocity": 103,
      "chip": "ym2612"
    },
    {
      "channel": 2,
      "note": 40,
      "start": 21.6836,
      "duration": 0.0128,
      "velocity": 114,
      "chip": "ym2612"
    },
    {
      "channel": 0,
      "note": 82,
      "start": 21.692,
      "duration": 0.0125,
      "velocity": 103,
      "chip": "ym2612"
    },
    {
      "channel": 5,
      "note": 82,
      "start": 21.6951,
      "duration": 0.0119,
      "velocity": 103,
      "chip": "ym2612"
    },
    {
      "channel": 2,
      "note": 40,
      "start": 21.6963,
      "duration": 0.0118,
      "velocity": 114,
      "chip": "ym2612"
    },
    {
      "channel": 0,
      "note": 82,
      "start": 21.7046,
      "duration": 0.0124,
      "velocity": 103,
      "chip": "ym2612"
    },
    {
      "channel": 5,
      "note": 82,
      "start": 21.707,
      "duration": 0.0124,
      "velocity": 103,
      "chip": "ym2612"
    },
    {
      "channel": 2,
      "note": 40,
      "start": 21.7082,
      "duration": 0.0124,
      "velocity": 114,
      "chip": "ym2612"
    },
    {
      "channel": 0,
      "note": 82,
      "start": 21.717,
      "duration": 0.0126,
      "velocity": 103,
      "chip": "ym2612"
    },
    {
      "channel": 5,
      "note": 82,
      "start": 21.7194,
      "duration": 0.0145,
      "velocity": 103,
      "chip": "ym2612"
    },
    {
      "channel": 2,
      "note": 40,
      "start": 21.7206,
      "duration": 0.0143,
      "velocity": 114,
      "chip": "ym2612"
    },
    {
      "channel": 0,
      "note": 82,
      "start": 21.7295,
      "duration": 0.0125,
      "velocity": 103,
      "chip": "ym2612"
    },
    {
      "channel": 1,
      "note": 65,
      "start": 21.731,
      "duration": 0.0995,
      "velocity": 81,
      "chip": "ym2612"
    },
    {
      "channel": 5,
      "note": 82,
      "start": 21.7339,
      "duration": 0.0111,
      "velocity": 103,
      "chip": "ym2612"
    },
    {
      "channel": 0,
      "note": 82,
      "start": 21.742,
      "duration": 0.0125,
      "velocity": 103,
      "chip": "ym2612"
    },
    {
      "channel": 5,
      "note": 82,
      "start": 21.745,
      "duration": 0.0119,
      "velocity": 103,
      "chip": "ym2612"
    },
    {
      "channel": 2,
      "note": 40,
      "start": 21.7472,
      "duration": 0.011,
      "velocity": 114,
      "chip": "ym2612"
    },
    {
      "channel": 0,
      "note": 82,
      "start": 21.7545,
      "duration": 0.0125,
      "velocity": 103,
      "chip": "ym2612"
    },
    {
      "channel": 5,
      "note": 82,
      "start": 21.7569,
      "duration": 0.0125,
      "velocity": 103,
      "chip": "ym2612"
    },
    {
      "channel": 2,
      "note": 40,
      "start": 21.7582,
      "duration": 0.0124,
      "velocity": 114,
      "chip": "ym2612"
    },
    {
      "channel": 0,
      "note": 82,
      "start": 21.767,
      "duration": 0.0126,
      "velocity": 103,
      "chip": "ym2612"
    },
    {
      "channel": 5,
      "note": 82,
      "start": 21.7694,
      "duration": 0.0125,
      "velocity": 103,
      "chip": "ym2612"
    },
    {
      "channel": 2,
      "note": 40,
      "start": 21.7706,
      "duration": 0.0129,
      "velocity": 114,
      "chip": "ym2612"
    },
    {
      "channel": 0,
      "note": 82,
      "start": 21.7795,
      "duration": 0.0125,
      "velocity": 103,
      "chip": "ym2612"
    },
    {
      "channel": 5,
      "note": 82,
      "start": 21.7819,
      "duration": 0.0131,
      "velocity": 103,
      "chip": "ym2612"
    },
    {
      "channel": 2,
      "note": 40,
      "start": 21.7836,
      "duration": 0.0127,
      "velocity": 114,
      "chip": "ym2612"
    },
    {
      "channel": 0,
      "note": 82,
      "start": 21.792,
      "duration": 0.0125,
      "velocity": 103,
      "chip": "ym2612"
    },
    {
      "channel": 5,
      "note": 82,
      "start": 21.795,
      "duration": 0.0119,
      "velocity": 103,
      "chip": "ym2612"
    },
    {
      "channel": 2,
      "note": 40,
      "start": 21.7963,
      "duration": 0.0119,
      "velocity": 114,
      "chip": "ym2612"
    },
    {
      "channel": 0,
      "note": 82,
      "start": 21.8045,
      "duration": 0.0125,
      "velocity": 103,
      "chip": "ym2612"
    },
    {
      "channel": 5,
      "note": 82,
      "start": 21.8069,
      "duration": 0.0125,
      "velocity": 103,
      "chip": "ym2612"
    },
    {
      "channel": 2,
      "note": 40,
      "start": 21.8082,
      "duration": 0.0124,
      "velocity": 114,
      "chip": "ym2612"
    },
    {
      "channel": 0,
      "note": 82,
      "start": 21.817,
      "duration": 0.0126,
      "velocity": 103,
      "chip": "ym2612"
    },
    {
      "channel": 5,
      "note": 82,
      "start": 21.8194,
      "duration": 0.0145,
      "velocity": 103,
      "chip": "ym2612"
    },
    {
      "channel": 2,
      "note": 40,
      "start": 21.8206,
      "duration": 0.0143,
      "velocity": 114,
      "chip": "ym2612"
    },
    {
      "channel": 0,
      "note": 82,
      "start": 21.8295,
      "duration": 0.0125,
      "velocity": 103,
      "chip": "ym2612"
    },
    {
      "channel": 1,
      "note": 59,
      "start": 21.831,
      "duration": 0.1127,
      "velocity": 81,
      "chip": "ym2612"
    },
    {
      "channel": 5,
      "note": 82,
      "start": 21.8339,
      "duration": 0.0112,
      "velocity": 103,
      "chip": "ym2612"
    },
    {
      "channel": 0,
      "note": 82,
      "start": 21.842,
      "duration": 0.0125,
      "velocity": 103,
      "chip": "ym2612"
    },
    {
      "channel": 5,
      "note": 82,
      "start": 21.8451,
      "duration": 0.0118,
      "velocity": 103,
      "chip": "ym2612"
    },
    {
      "channel": 2,
      "note": 40,
      "start": 21.8473,
      "duration": 0.0109,
      "velocity": 114,
      "chip": "ym2612"
    },
    {
      "channel": 0,
      "note": 82,
      "start": 21.8546,
      "duration": 0.0124,
      "velocity": 103,
      "chip": "ym2612"
    },
    {
      "channel": 5,
      "note": 82,
      "start": 21.8569,
      "duration": 0.0125,
      "velocity": 103,
      "chip": "ym2612"
    },
    {
      "channel": 2,
      "note": 40,
      "start": 21.8582,
      "duration": 0.0124,
      "velocity": 114,
      "chip": "ym2612"
    },
    {
      "channel": 0,
      "note": 82,
      "start": 21.867,
      "duration": 0.0126,
      "velocity": 103,
      "chip": "ym2612"
    },
    {
      "channel": 5,
      "note": 82,
      "start": 21.8694,
      "duration": 0.0125,
      "velocity": 103,
      "chip": "ym2612"
    },
    {
      "channel": 2,
      "note": 40,
      "start": 21.8706,
      "duration": 0.0129,
      "velocity": 114,
      "chip": "ym2612"
    },
    {
      "channel": 0,
      "note": 82,
      "start": 21.8795,
      "duration": 0.0125,
      "velocity": 103,
      "chip": "ym2612"
    },
    {
      "channel": 5,
      "note": 82,
      "start": 21.8819,
      "duration": 0.0131,
      "velocity": 103,
      "chip": "ym2612"
    },
    {
      "channel": 2,
      "note": 40,
      "start": 21.8836,
      "duration": 0.0127,
      "velocity": 114,
      "chip": "ym2612"
    },
    {
      "channel": 0,
      "note": 82,
      "start": 21.892,
      "duration": 0.0125,
      "velocity": 103,
      "chip": "ym2612"
    },
    {
      "channel": 5,
      "note": 82,
      "start": 21.895,
      "duration": 0.0119,
      "velocity": 103,
      "chip": "ym2612"
    },
    {
      "channel": 2,
      "note": 40,
      "start": 21.8963,
      "duration": 0.0119,
      "velocity": 114,
      "chip": "ym2612"
    },
    {
      "channel": 0,
      "note": 82,
      "start": 21.9045,
      "duration": 0.0125,
      "velocity": 103,
      "chip": "ym2612"
    },
    {
      "channel": 5,
      "note": 82,
      "start": 21.9069,
      "duration": 0.0125,
      "velocity": 103,
      "chip": "ym2612"
    },
    {
      "channel": 2,
      "note": 40,
      "start": 21.9082,
      "duration": 0.0124,
      "velocity": 114,
      "chip": "ym2612"
    },
    {
      "channel": 0,
      "note": 82,
      "start": 21.917,
      "duration": 0.0126,
      "velocity": 103,
      "chip": "ym2612"
    },
    {
      "channel": 5,
      "note": 82,
      "start": 21.9194,
      "duration": 0.0125,
      "velocity": 103,
      "chip": "ym2612"
    },
    {
      "channel": 2,
      "note": 40,
      "start": 21.9206,
      "duration": 0.0125,
      "velocity": 114,
      "chip": "ym2612"
    },
    {
      "channel": 0,
      "note": 82,
      "start": 21.9295,
      "duration": 0.0123,
      "velocity": 103,
      "chip": "ym2612"
    },
    {
      "channel": 5,
      "note": 82,
      "start": 21.9319,
      "duration": 0.0171,
      "velocity": 103,
      "chip": "ym2612"
    },
    {
      "channel": 2,
      "note": 40,
      "start": 21.9332,
      "duration": 0.017,
      "velocity": 114,
      "chip": "ym2612"
    },
    {
      "channel": 0,
      "note": 77,
      "start": 21.9423,
      "duration": 0.2497,
      "velocity": 103,
      "chip": "ym2612"
    },
    {
      "channel": 1,
      "note": 53,
      "start": 21.9448,
      "duration": 0.0472,
      "velocity": 81,
      "chip": "ym2612"
    },
    {
      "channel": 5,
      "note": 82,
      "start": 21.949,
      "duration": 0.007,
      "velocity": 103,
      "chip": "ym2612"
    },
    {
      "channel": 5,
      "note": 82,
      "start": 21.956,
      "duration": 0.0125,
      "velocity": 103,
      "chip": "ym2612"
    },
    {
      "channel": 2,
      "note": 40,
      "start": 21.9582,
      "duration": 0.0115,
      "velocity": 114,
      "chip": "ym2612"
    },
    {
      "channel": 5,
      "note": 82,
      "start": 21.9685,
      "duration": 0.0125,
      "velocity": 103,
      "chip": "ym2612"
    },
    {
      "channel": 2,
      "note": 40,
      "start": 21.9698,
      "duration": 0.0125,
      "velocity": 114,
      "chip": "ym2612"
    },
    {
      "channel": 5,
      "note": 82,
      "start": 21.981,
      "duration": 0.0134,
      "velocity": 103,
      "chip": "ym2612"
    },
    {
      "channel": 2,
      "note": 40,
      "start": 21.9823,
      "duration": 0.0141,
      "velocity": 114,
      "chip": "ym2612"
    },
    {
      "channel": 5,
      "note": 82,
      "start": 21.9944,
      "duration": 0.0116,
      "velocity": 103,
      "chip": "ym2612"
    },
    {
      "channel": 2,
      "note": 40,
      "start": 21.9963,
      "duration": 0.0109,
      "velocity": 114,
      "chip": "ym2612"
    },
    {
      "channel": 5,
      "note": 82,
      "start": 22.006,
      "duration": 0.0125,
      "velocity": 103,
      "chip": "ym2612"
    },
    {
      "channel": 2,
      "note": 40,
      "start": 22.0072,
      "duration": 0.0125,
      "velocity": 114,
      "chip": "ym2612"
    },
    {
      "channel": 5,
      "note": 82,
      "start": 22.0185,
      "duration": 0.0125,
      "velocity": 103,
      "chip": "ym2612"
    },
    {
      "channel": 2,
      "note": 40,
      "start": 22.0198,
      "duration": 0.0125,
      "velocity": 114,
      "chip": "ym2612"
    },
    {
      "channel": 5,
      "note": 82,
      "start": 22.031,
      "duration": 0.015,
      "velocity": 103,
      "chip": "ym2612"
    },
    {
      "channel": 2,
      "note": 40,
      "start": 22.0323,
      "duration": 0.0149,
      "velocity": 114,
      "chip": "ym2612"
    },
    {
      "channel": 1,
      "note": 53,
      "start": 22.0425,
      "duration": 0.0994,
      "velocity": 81,
      "chip": "ym2612"
    },
    {
      "channel": 5,
      "note": 82,
      "start": 22.046,
      "duration": 0.01,
      "velocity": 103,
      "chip": "ym2612"
    },
    {
      "channel": 5,
      "note": 82,
      "start": 22.056,
      "duration": 0.0125,
      "velocity": 103,
      "chip": "ym2612"
    },
    {
      "channel": 2,
      "note": 40,
      "start": 22.0582,
      "duration": 0.0115,
      "velocity": 114,
      "chip": "ym2612"
    },
    {
      "channel": 5,
      "note": 82,
      "start": 22.0685,
      "duration": 0.0124,
      "velocity": 103,
      "chip": "ym2612"
    },
    {
      "channel": 2,
      "note": 40,
      "start": 22.0698,
      "duration": 0.0129,
      "velocity": 114,
      "chip": "ym2612"
    },
    {
      "channel": 5,
      "note": 77,
      "start": 22.0813,
      "duration": 0.2506,
      "velocity": 103,
      "chip": "ym2612"
    },
    {
      "channel": 2,
      "note": 40,
      "start": 22.0826,
      "duration": 0.0123,
      "velocity": 114,
      "chip": "ym2612"
    },
    {
      "channel": 2,
      "note": 40,
      "start": 22.0949,
      "duration": 0.0115,
      "velocity": 114,
      "chip": "ym2612"
    },
    {
      "channel": 2,
      "note": 40,
      "start": 22.1063,
      "duration": 0.0125,
      "velocity": 114,
      "chip": "ym2612"
    },
    {
      "channel": 2,
      "note": 40,
      "start": 22.1189,
      "duration": 0.0125,
      "velocity": 114,
      "chip": "ym2612"
    },
    {
      "channel": 2,
      "note": 40,
      "start": 22.1314,
      "duration": 0.0136,
      "velocity": 114,
      "chip": "ym2612"
    },
    {
      "channel": 2,
      "note": 40,
      "start": 22.145,
      "duration": 0.0113,
      "velocity": 114,
      "chip": "ym2612"
    },
    {
      "channel": 2,
      "note": 40,
      "start": 22.1563,
      "duration": 0.0125,
      "velocity": 114,
      "chip": "ym2612"
    },
    {
      "channel": 2,
      "note": 40,
      "start": 22.1689,
      "duration": 0.0125,
      "velocity": 114,
      "chip": "ym2612"
    },
    {
      "channel": 2,
      "note": 39,
      "start": 22.1814,
      "duration": 0.0139,
      "velocity": 114,
      "chip": "ym2612"
    },
    {
      "channel": 0,
      "note": 77,
      "start": 22.192,
      "duration": 0.0125,
      "velocity": 103,
      "chip": "ym2612"
    },
    {
      "channel": 0,
      "note": 77,
      "start": 22.2045,
      "duration": 0.0125,
      "velocity": 103,
      "chip": "ym2612"
    },
    {
      "channel": 0,
      "note": 77,
      "start": 22.217,
      "duration": 0.0126,
      "velocity": 103,
      "chip": "ym2612"
    },
    {
      "channel": 0,
      "note": 77,
      "start": 22.2295,
      "duration": 0.0125,
      "velocity": 103,
      "chip": "ym2612"
    },
    {
      "channel": 0,
      "note": 77,
      "start": 22.242,
      "duration": 0.0125,
      "velocity": 103,
      "chip": "ym2612"
    },
    {
      "channel": 1,
      "note": 53,
      "start": 22.2434,
      "duration": 0.062,
      "velocity": 81,
      "chip": "ym2612"
    },
    {
      "channel": 2,
      "note": 40,
      "start": 22.2487,
      "duration": 0.0085,
      "velocity": 114,
      "chip": "ym2612"
    },
    {
      "channel": 0,
      "note": 77,
      "start": 22.2545,
      "duration": 0.0125,
      "velocity": 103,
      "chip": "ym2612"
    },
    {
      "channel": 2,
      "note": 40,
      "start": 22.2572,
      "duration": 0.0125,
      "velocity": 114,
      "chip": "ym2612"
    },
    {
      "channel": 0,
      "note": 77,
      "start": 22.267,
      "duration": 0.0126,
      "velocity": 103,
      "chip": "ym2612"
    },
    {
      "channel": 2,
      "note": 40,
      "start": 22.2698,
      "duration": 0.0129,
      "velocity": 114,
      "chip": "ym2612"
    },
    {
      "channel": 0,
      "note": 77,
      "start": 22.2795,
      "duration": 0.0125,
      "velocity": 103,
      "chip": "ym2612"
    },
    {
      "channel": 2,
      "note": 40,
      "start": 22.2827,
      "duration": 0.0127,
      "velocity": 114,
      "chip": "ym2612"
    },
    {
      "channel": 0,
      "note": 77,
      "start": 22.292,
      "duration": 0.0125,
      "velocity": 103,
      "chip": "ym2612"
    },
    {
      "channel": 2,
      "note": 40,
      "start": 22.2954,
      "duration": 0.0124,
      "velocity": 114,
      "chip": "ym2612"
    },
    {
      "channel": 0,
      "note": 77,
      "start": 22.3045,
      "duration": 0.0125,
      "velocity": 103,
      "chip": "ym2612"
    },
    {
      "channel": 2,
      "note": 40,
      "start": 22.3078,
      "duration": 0.012,
      "velocity": 114,
      "chip": "ym2612"
    },
    {
      "channel": 0,
      "note": 77,
      "start": 22.317,
      "duration": 0.0126,
      "velocity": 103,
      "chip": "ym2612"
    },
    {
      "channel": 2,
      "note": 40,
      "start": 22.3198,
      "duration": 0.0134,
      "velocity": 114,
      "chip": "ym2612"
    },
    {
      "channel": 0,
      "note": 77,
      "start": 22.3295,
      "duration": 0.0125,
      "velocity": 103,
      "chip": "ym2612"
    },
    {
      "channel": 5,
      "note": 77,
      "start": 22.3319,
      "duration": 0.015,
      "velocity": 103,
      "chip": "ym2612"
    },
    {
      "channel": 2,
      "note": 40,
      "start": 22.3332,
      "duration": 0.0149,
      "velocity": 114,
      "chip": "ym2612"
    },
    {
      "channel": 0,
      "note": 77,
      "start": 22.342,
      "duration": 0.0125,
      "velocity": 103,
      "chip": "ym2612"
    },
    {
      "channel": 1,
      "note": 53,
      "start": 22.3434,
      "duration": 0.0994,
      "velocity": 81,
      "chip": "ym2612"
    },
    {
      "channel": 5,
      "note": 77,
      "start": 22.3469,
      "duration": 0.01,
      "velocity": 103,
      "chip": "ym2612"
    },
    {
      "channel": 0,
      "note": 77,
      "start": 22.3545,
      "duration": 0.0125,
      "velocity": 103,
      "chip": "ym2612"
    },
    {
      "channel": 5,
      "note": 77,
      "start": 22.3569,
      "duration": 0.0125,
      "velocity": 103,
      "chip": "ym2612"
    },
    {
      "channel": 2,
      "note": 41,
      "start": 22.3626,
      "duration": 0.1871,
      "velocity": 122,
      "chip": "ym2612"
    },
    {
      "channel": 0,
      "note": 77,
      "start": 22.367,
      "duration": 0.0126,
      "velocity": 103,
      "chip": "ym2612"
    },
    {
      "channel": 5,
      "note": 77,
      "start": 22.3694,
      "duration": 0.0125,
      "velocity": 103,
      "chip": "ym2612"
    },
    {
      "channel": 0,
      "note": 77,
      "start": 22.3795,
      "duration": 0.0125,
      "velocity": 103,
      "chip": "ym2612"
    },
    {
      "channel": 5,
      "note": 77,
      "start": 22.3819,
      "duration": 0.0131,
      "velocity": 103,
      "chip": "ym2612"
    },
    {
      "channel": 0,
      "note": 77,
      "start": 22.392,
      "duration": 0.0125,
      "velocity": 103,
      "chip": "ym2612"
    },
    {
      "channel": 5,
      "note": 77,
      "start": 22.395,
      "duration": 0.0119,
      "velocity": 103,
      "chip": "ym2612"
    },
    {
      "channel": 0,
      "note": 77,
      "start": 22.4045,
      "duration": 0.0125,
      "velocity": 103,
      "chip": "ym2612"
    },
    {
      "channel": 5,
      "note": 77,
      "start": 22.4069,
      "duration": 0.0125,
      "velocity": 103,
      "chip": "ym2612"
    },
    {
      "channel": 0,
      "note": 77,
      "start": 22.417,
      "duration": 0.0126,
      "velocity": 103,
      "chip": "ym2612"
    },
    {
      "channel": 5,
      "note": 77,
      "start": 22.4194,
      "duration": 0.0126,
      "velocity": 103,
      "chip": "ym2612"
    },
    {
      "channel": 0,
      "note": 77,
      "start": 22.4295,
      "duration": 0.0125,
      "velocity": 103,
      "chip": "ym2612"
    },
    {
      "channel": 5,
      "note": 77,
      "start": 22.432,
      "duration": 0.0136,
      "velocity": 103,
      "chip": "ym2612"
    },
    {
      "channel": 0,
      "note": 77,
      "start": 22.442,
      "duration": 0.0125,
      "velocity": 103,
      "chip": "ym2612"
    },
    {
      "channel": 5,
      "note": 77,
      "start": 22.4456,
      "duration": 0.0113,
      "velocity": 103,
      "chip": "ym2612"
    },
    {
      "channel": 0,
      "note": 77,
      "start": 22.4545,
      "duration": 0.0125,
      "velocity": 103,
      "chip": "ym2612"
    },
    {
      "channel": 5,
      "note": 77,
      "start": 22.4569,
      "duration": 0.0125,
      "velocity": 103,
      "chip": "ym2612"
    },
    {
      "channel": 0,
      "note": 77,
      "start": 22.467,
      "duration": 0.0125,
      "velocity": 103,
      "chip": "ym2612"
    },
    {
      "channel": 5,
      "note": 77,
      "start": 22.4694,
      "duration": 0.0126,
      "velocity": 103,
      "chip": "ym2612"
    },
    {
      "channel": 0,
      "note": 77,
      "start": 22.4795,
      "duration": 0.0125,
      "velocity": 103,
      "chip": "ym2612"
    },
    {
      "channel": 5,
      "note": 77,
      "start": 22.482,
      "duration": 0.013,
      "velocity": 103,
      "chip": "ym2612"
    },
    {
      "channel": 0,
      "note": 77,
      "start": 22.492,
      "duration": 0.0125,
      "velocity": 103,
      "chip": "ym2612"
    },
    {
      "channel": 5,
      "note": 77,
      "start": 22.495,
      "duration": 0.0119,
      "velocity": 103,
      "chip": "ym2612"
    },
    {
      "channel": 0,
      "note": 77,
      "start": 22.5045,
      "duration": 0.0125,
      "velocity": 103,
      "chip": "ym2612"
    },
    {
      "channel": 5,
      "note": 77,
      "start": 22.5069,
      "duration": 0.0125,
      "velocity": 103,
      "chip": "ym2612"
    },
    {
      "channel": 0,
      "note": 77,
      "start": 22.517,
      "duration": 0.0126,
      "velocity": 103,
      "chip": "ym2612"
    },
    {
      "channel": 5,
      "note": 77,
      "start": 22.5194,
      "duration": 0.0125,
      "velocity": 103,
      "chip": "ym2612"
    },
    {
      "channel": 0,
      "note": 77,
      "start": 22.5295,
      "duration": 0.0125,
      "velocity": 103,
      "chip": "ym2612"
    },
    {
      "channel": 5,
      "note": 77,
      "start": 22.5319,
      "duration": 0.015,
      "velocity": 103,
      "chip": "ym2612"
    },
    {
      "channel": 0,
      "note": 77,
      "start": 22.542,
      "duration": 0.0125,
      "velocity": 103,
      "chip": "ym2612"
    },
    {
      "channel": 1,
      "note": 53,
      "start": 22.5434,
      "duration": 0.062,
      "velocity": 81,
      "chip": "ym2612"
    },
    {
      "channel": 5,
      "note": 77,
      "start": 22.5469,
      "duration": 0.01,
      "velocity": 103,
      "chip": "ym2612"
    },
    {
      "channel": 2,
      "note": 40,
      "start": 22.5524,
      "duration": 0.0057,
      "velocity": 114,
      "chip": "ym2612"
    },
    {
      "channel": 0,
      "note": 77,
      "start": 22.5545,
      "duration": 0.0125,
      "velocity": 103,
      "chip": "ym2612"
    },
    {
      "channel": 5,
      "note": 77,
      "start": 22.5569,
      "duration": 0.0125,
      "velocity": 103,
      "chip": "ym2612"
    },
    {
      "channel": 2,
      "note": 40,
      "start": 22.5582,
      "duration": 0.0124,
      "velocity": 114,
      "chip": "ym2612"
    },
    {
      "channel": 0,
      "note": 77,
      "start": 22.567,
      "duration": 0.0126,
      "velocity": 103,
      "chip": "ym2612"
    },
    {
      "channel": 5,
      "note": 77,
      "start": 22.5694,
      "duration": 0.0125,
      "velocity": 103,
      "chip": "ym2612"
    },
    {
      "channel": 2,
      "note": 40,
      "start": 22.5706,
      "duration": 0.0129,
      "velocity": 114,
      "chip": "ym2612"
    },
    {
      "channel": 0,
      "note": 77,
      "start": 22.5795,
      "duration": 0.0125,
      "velocity": 103,
      "chip": "ym2612"
    },
    {
      "channel": 5,
      "note": 77,
      "start": 22.5819,
      "duration": 0.0131,
      "velocity": 103,
      "chip": "ym2612"
    },
    {
      "channel": 2,
      "note": 40,
      "start": 22.5836,
      "duration": 0.0127,
      "velocity": 114,
      "chip": "ym2612"
    },
    {
      "channel": 0,
      "note": 77,
      "start": 22.592,
      "duration": 0.0125,
      "velocity": 103,
      "chip": "ym2612"
    },
    {
      "channel": 5,
      "note": 77,
      "start": 22.595,
      "duration": 0.0125,
      "velocity": 103,
      "chip": "ym2612"
    },
    {
      "channel": 2,
      "note": 40,
      "start": 22.5963,
      "duration": 0.0125,
      "velocity": 114,
      "chip": "ym2612"
    },
    {
      "channel": 0,
      "note": 77,
      "start": 22.6045,
      "duration": 0.0125,
      "velocity": 103,
      "chip": "ym2612"
    },
    {
      "channel": 5,
      "note": 77,
      "start": 22.6075,
      "duration": 0.0119,
      "velocity": 103,
      "chip": "ym2612"
    },
    {
      "channel": 2,
      "note": 40,
      "start": 22.6088,
      "duration": 0.0119,
      "velocity": 114,
      "chip": "ym2612"
    },
    {
      "channel": 0,
      "note": 77,
      "start": 22.617,
      "duration": 0.0126,
      "velocity": 103,
      "chip": "ym2612"
    },
    {
      "channel": 5,
      "note": 77,
      "start": 22.6194,
      "duration": 0.0125,
      "velocity": 103,
      "chip": "ym2612"
    },
    {
      "channel": 2,
      "note": 40,
      "start": 22.6206,
      "duration": 0.0125,
      "velocity": 114,
      "chip": "ym2612"
    },
    {
      "channel": 0,
      "note": 77,
      "start": 22.6295,
      "duration": 0.0125,
      "velocity": 103,
      "chip": "ym2612"
    },
    {
      "channel": 5,
      "note": 77,
      "start": 22.6319,
      "duration": 0.015,
      "velocity": 103,
      "chip": "ym2612"
    },
    {
      "channel": 2,
      "note": 40,
      "start": 22.6332,
      "duration": 0.0149,
      "velocity": 114,
      "chip": "ym2612"
    },
    {
      "channel": 0,
      "note": 77,
      "start": 22.642,
      "duration": 0.0125,
      "velocity": 103,
      "chip": "ym2612"
    },
    {
      "channel": 1,
      "note": 53,
      "start": 22.6434,
      "duration": 0.1119,
      "velocity": 81,
      "chip": "ym2612"
    },
    {
      "channel": 5,
      "note": 77,
      "start": 22.6469,
      "duration": 0.01,
      "velocity": 103,
      "chip": "ym2612"
    },
    {
      "channel": 0,
      "note": 77,
      "start": 22.6545,
      "duration": 0.0125,
      "velocity": 103,
      "chip": "ym2612"
    },
    {
      "channel": 5,
      "note": 77,
      "start": 22.6569,
      "duration": 0.0125,
      "velocity": 103,
      "chip": "ym2612"
    },
    {
      "channel": 2,
      "note": 40,
      "start": 22.6591,
      "duration": 0.0115,
      "velocity": 114,
      "chip": "ym2612"
    },
    {
      "channel": 0,
      "note": 77,
      "start": 22.667,
      "duration": 0.0126,
      "velocity": 103,
      "chip": "ym2612"
    },
    {
      "channel": 5,
      "note": 77,
      "start": 22.6694,
      "duration": 0.0125,
      "velocity": 103,
      "chip": "ym2612"
    },
    {
      "channel": 2,
      "note": 40,
      "start": 22.6706,
      "duration": 0.0125,
      "velocity": 114,
      "chip": "ym2612"
    },
    {
      "channel": 0,
      "note": 77,
      "start": 22.6795,
      "duration": 0.0125,
      "velocity": 103,
      "chip": "ym2612"
    },
    {
      "channel": 5,
      "note": 77,
      "start": 22.6819,
      "duration": 0.0131,
      "velocity": 103,
      "chip": "ym2612"
    },
    {
      "channel": 2,
      "note": 40,
      "start": 22.6832,
      "duration": 0.0135,
      "velocity": 114,
      "chip": "ym2612"
    },
    {
      "channel": 0,
      "note": 77,
      "start": 22.692,
      "duration": 0.0125,
      "velocity": 103,
      "chip": "ym2612"
    },
    {
      "channel": 5,
      "note": 77,
      "start": 22.695,
      "duration": 0.0119,
      "velocity": 103,
      "chip": "ym2612"
    },
    {
      "channel": 2,
      "note": 40,
      "start": 22.6967,
      "duration": 0.0115,
      "velocity": 114,
      "chip": "ym2612"
    },
    {
      "channel": 0,
      "note": 77,
      "start": 22.7045,
      "duration": 0.0125,
      "velocity": 103,
      "chip": "ym2612"
    },
    {
      "channel": 5,
      "note": 77,
      "start": 22.7069,
      "duration": 0.0125,
      "velocity": 103,
      "chip": "ym2612"
    },
    {
      "channel": 2,
      "note": 40,
      "start": 22.7082,
      "duration": 0.0124,
      "velocity": 114,
      "chip": "ym2612"
    },
    {
      "channel": 0,
      "note": 77,
      "start": 22.717,
      "duration": 0.0126,
      "velocity": 103,
      "chip": "ym2612"
    },
    {
      "channel": 5,
      "note": 77,
      "start": 22.7194,
      "duration": 0.0125,
      "velocity": 103,
      "chip": "ym2612"
    },
    {
      "channel": 2,
      "note": 40,
      "start": 22.7206,
      "duration": 0.0125,
      "velocity": 114,
      "chip": "ym2612"
    },
    {
      "channel": 0,
      "note": 77,
      "start": 22.7295,
      "duration": 0.0125,
      "velocity": 103,
      "chip": "ym2612"
    },
    {
      "channel": 5,
      "note": 77,
      "start": 22.7319,
      "duration": 0.0131,
      "velocity": 103,
      "chip": "ym2612"
    },
    {
      "channel": 2,
      "note": 40,
      "start": 22.7332,
      "duration": 0.0131,
      "velocity": 114,
      "chip": "ym2612"
    },
    {
      "channel": 0,
      "note": 77,
      "start": 22.742,
      "duration": 0.0125,
      "velocity": 103,
      "chip": "ym2612"
    },
    {
      "channel": 5,
      "note": 77,
      "start": 22.745,
      "duration": 0.0124,
      "velocity": 103,
      "chip": "ym2612"
    },
    {
      "channel": 2,
      "note": 40,
      "start": 22.7463,
      "duration": 0.0124,
      "velocity": 114,
      "chip": "ym2612"
    },
    {
      "channel": 0,
      "note": 77,
      "start": 22.7545,
      "duration": 0.0125,
      "velocity": 103,
      "chip": "ym2612"
    },
    {
      "channel": 5,
      "note": 77,
      "start": 22.7574,
      "duration": 0.012,
      "velocity": 103,
      "chip": "ym2612"
    },
    {
      "channel": 2,
      "note": 40,
      "start": 22.7587,
      "duration": 0.012,
      "velocity": 114,
      "chip": "ym2612"
    },
    {
      "channel": 0,
      "note": 77,
      "start": 22.767,
      "duration": 0.0126,
      "velocity": 103,
      "chip": "ym2612"
    },
    {
      "channel": 5,
      "note": 77,
      "start": 22.7694,
      "duration": 0.0126,
      "velocity": 103,
      "chip": "ym2612"
    },
    {
      "channel": 2,
      "note": 40,
      "start": 22.7706,
      "duration": 0.0126,
      "velocity": 114,
      "chip": "ym2612"
    },
    {
      "channel": 0,
      "note": 77,
      "start": 22.7795,
      "duration": 0.0125,
      "velocity": 103,
      "chip": "ym2612"
    },
    {
      "channel": 5,
      "note": 77,
      "start": 22.782,
      "duration": 0.013,
      "velocity": 103,
      "chip": "ym2612"
    },
    {
      "channel": 2,
      "note": 39,
      "start": 22.7832,
      "duration": 0.013,
      "velocity": 114,
      "chip": "ym2612"
    },
    {
      "channel": 0,
      "note": 77,
      "start": 22.792,
      "duration": 0.0125,
      "velocity": 103,
      "chip": "ym2612"
    },
    {
      "channel": 5,
      "note": 77,
      "start": 22.795,
      "duration": 0.0119,
      "velocity": 103,
      "chip": "ym2612"
    },
    {
      "channel": 0,
      "note": 77,
      "start": 22.8045,
      "duration": 0.0125,
      "velocity": 103,
      "chip": "ym2612"
    },
    {
      "channel": 5,
      "note": 77,
      "start": 22.8069,
      "duration": 0.0125,
      "velocity": 103,
      "chip": "ym2612"
    },
    {
      "channel": 0,
      "note": 77,
      "start": 22.817,
      "duration": 0.0126,
      "velocity": 103,
      "chip": "ym2612"
    },
    {
      "channel": 5,
      "note": 77,
      "start": 22.8194,
      "duration": 0.0126,
      "velocity": 103,
      "chip": "ym2612"
    },
    {
      "channel": 0,
      "note": 77,
      "start": 22.8295,
      "duration": 0.0125,
      "velocity": 103,
      "chip": "ym2612"
    },
    {
      "channel": 5,
      "note": 77,
      "start": 22.832,
      "duration": 0.013,
      "velocity": 103,
      "chip": "ym2612"
    },
    {
      "channel": 0,
      "note": 77,
      "start": 22.842,
      "duration": 0.0125,
      "velocity": 103,
      "chip": "ym2612"
    },
    {
      "channel": 5,
      "note": 77,
      "start": 22.845,
      "duration": 0.0138,
      "velocity": 103,
      "chip": "ym2612"
    },
    {
      "channel": 0,
      "note": 77,
      "start": 22.8545,
      "duration": 0.0125,
      "velocity": 103,
      "chip": "ym2612"
    },
    {
      "channel": 1,
      "note": 53,
      "start": 22.8559,
      "duration": 0.0619,
      "velocity": 81,
      "chip": "ym2612"
    },
    {
      "channel": 5,
      "note": 77,
      "start": 22.8588,
      "duration": 0.0105,
      "velocity": 103,
      "chip": "ym2612"
    },
    {
      "channel": 2,
      "note": 40,
      "start": 22.8621,
      "duration": 0.0086,
      "velocity": 114,
      "chip": "ym2612"
    },
    {
      "channel": 0,
      "note": 77,
      "start": 22.867,
      "duration": 0.0126,
      "velocity": 103,
      "chip": "ym2612"
    },
    {
      "channel": 5,
      "note": 77,
      "start": 22.8694,
      "duration": 0.0125,
      "velocity": 103,
      "chip": "ym2612"
    },
    {
      "channel": 2,
      "note": 40,
      "start": 22.8706,
      "duration": 0.0125,
      "velocity": 114,
      "chip": "ym2612"
    },
    {
      "channel": 0,
      "note": 77,
      "start": 22.8795,
      "duration": 0.0125,
      "velocity": 103,
      "chip": "ym2612"
    },
    {
      "channel": 5,
      "note": 77,
      "start": 22.8819,
      "duration": 0.0131,
      "velocity": 103,
      "chip": "ym2612"
    },
    {
      "channel": 2,
      "note": 40,
      "start": 22.8832,
      "duration": 0.0135,
      "velocity": 114,
      "chip": "ym2612"
    },
    {
      "channel": 0,
      "note": 77,
      "start": 22.892,
      "duration": 0.0125,
      "velocity": 103,
      "chip": "ym2612"
    },
    {
      "channel": 5,
      "note": 77,
      "start": 22.895,
      "duration": 0.0119,
      "velocity": 103,
      "chip": "ym2612"
    },
    {
      "channel": 2,
      "note": 40,
      "start": 22.8967,
      "duration": 0.0115,
      "velocity": 114,
      "chip": "ym2612"
    },
    {
      "channel": 0,
      "note": 77,
      "start": 22.9045,
      "duration": 0.0125,
      "velocity": 103,
      "chip": "ym2612"
    },
    {
      "channel": 5,
      "note": 77,
      "start": 22.9069,
      "duration": 0.013,
      "velocity": 103,
      "chip": "ym2612"
    },
    {
      "channel": 2,
      "note": 40,
      "start": 22.9082,
      "duration": 0.013,
      "velocity": 114,
      "chip": "ym2612"
    },
    {
      "channel": 0,
      "note": 77,
      "start": 22.917,
      "duration": 0.0126,
      "velocity": 103,
      "chip": "ym2612"
    },
    {
      "channel": 5,
      "note": 77,
      "start": 22.9199,
      "duration": 0.012,
      "velocity": 103,
      "chip": "ym2612"
    },
    {
      "channel": 2,
      "note": 40,
      "start": 22.9212,
      "duration": 0.012,
      "velocity": 114,
      "chip": "ym2612"
    },
    {
      "channel": 0,
      "note": 77,
      "start": 22.9295,
      "duration": 0.0125,
      "velocity": 103,
      "chip": "ym2612"
    },
    {
      "channel": 5,
      "note": 77,
      "start": 22.9319,
      "duration": 0.0132,
      "velocity": 103,
      "chip": "ym2612"
    },
    {
      "channel": 2,
      "note": 40,
      "start": 22.9332,
      "duration": 0.0132,
      "velocity": 114,
      "chip": "ym2612"
    },
    {
      "channel": 0,
      "note": 77,
      "start": 22.9421,
      "duration": 0.0124,
      "velocity": 103,
      "chip": "ym2612"
    },
    {
      "channel": 5,
      "note": 77,
      "start": 22.9451,
      "duration": 0.0137,
      "velocity": 103,
      "chip": "ym2612"
    },
    {
      "channel": 2,
      "note": 40,
      "start": 22.9463,
      "duration": 0.0136,
      "velocity": 114,
      "chip": "ym2612"
    },
    {
      "channel": 0,
      "note": 77,
      "start": 22.9545,
      "duration": 0.0125,
      "velocity": 103,
      "chip": "ym2612"
    },
    {
      "channel": 1,
      "note": 53,
      "start": 22.9559,
      "duration": 0.0994,
      "velocity": 81,
      "chip": "ym2612"
    },
    {
      "channel": 5,
      "note": 77,
      "start": 22.9588,
      "duration": 0.0105,
      "velocity": 103,
      "chip": "ym2612"
    },
    {
      "channel": 0,
      "note": 77,
      "start": 22.967,
      "duration": 0.0126,
      "velocity": 103,
      "chip": "ym2612"
    },
    {
      "channel": 5,
      "note": 77,
      "start": 22.9694,
      "duration": 0.0125,
      "velocity": 103,
      "chip": "ym2612"
    },
    {
      "channel": 2,
      "note": 40,
      "start": 22.9716,
      "duration": 0.0116,
      "velocity": 114,
      "chip": "ym2612"
    },
    {
      "channel": 0,
      "note": 77,
      "start": 22.9795,
      "duration": 0.0125,
      "velocity": 103,
      "chip": "ym2612"
    },
    {
      "channel": 5,
      "note": 77,
      "start": 22.9819,
      "duration": 0.0131,
      "velocity": 103,
      "chip": "ym2612"
    },
    {
      "channel": 2,
      "note": 40,
      "start": 22.9832,
      "duration": 0.0131,
      "velocity": 114,
      "chip": "ym2612"
    },
    {
      "channel": 0,
      "note": 77,
      "start": 22.992,
      "duration": 0.0125,
      "velocity": 103,
      "chip": "ym2612"
    },
    {
      "channel": 5,
      "note": 77,
      "start": 22.995,
      "duration": 0.0119,
      "velocity": 103,
      "chip": "ym2612"
    },
    {
      "channel": 2,
      "note": 40,
      "start": 22.9963,
      "duration": 0.0123,
      "velocity": 114,
      "chip": "ym2612"
    },
    {
      "channel": 0,
      "note": 77,
      "start": 23.0045,
      "duration": 0.0125,
      "velocity": 103,
      "chip": "ym2612"
    },
    {
      "channel": 5,
      "note": 77,
      "start": 23.0069,
      "duration": 0.0125,
      "velocity": 103,
      "chip": "ym2612"
    },
    {
      "channel": 2,
      "note": 40,
      "start": 23.0085,
      "duration": 0.0121,
      "velocity": 114,
      "chip": "ym2612"
    },
    {
      "channel": 0,
      "note": 77,
      "start": 23.017,
      "duration": 0.0126,
      "velocity": 103,
      "chip": "ym2612"
    },
    {
      "channel": 5,
      "note": 77,
      "start": 23.0194,
      "duration": 0.0125,
      "velocity": 103,
      "chip": "ym2612"
    },
    {
      "channel": 2,
      "note": 40,
      "start": 23.0206,
      "duration": 0.0125,
      "velocity": 114,
      "chip": "ym2612"
    },
    {
      "channel": 0,
      "note": 77,
      "start": 23.0295,
      "duration": 0.0125,
      "velocity": 103,
      "chip": "ym2612"
    },
    {
      "channel": 5,
      "note": 77,
      "start": 23.0319,
      "duration": 0.0131,
      "velocity": 103,
      "chip": "ym2612"
    },
    {
      "channel": 2,
      "note": 40,
      "start": 23.0332,
      "duration": 0.0131,
      "velocity": 114,
      "chip": "ym2612"
    },
    {
      "channel": 0,
      "note": 77,
      "start": 23.042,
      "duration": 0.0125,
      "velocity": 103,
      "chip": "ym2612"
    },
    {
      "channel": 5,
      "note": 77,
      "start": 23.045,
      "duration": 0.0124,
      "velocity": 103,
      "chip": "ym2612"
    },
    {
      "channel": 2,
      "note": 40,
      "start": 23.0463,
      "duration": 0.0124,
      "velocity": 114,
      "chip": "ym2612"
    },
    {
      "channel": 0,
      "note": 77,
      "start": 23.0545,
      "duration": 0.0125,
      "velocity": 103,
      "chip": "ym2612"
    },
    {
      "channel": 5,
      "note": 77,
      "start": 23.0574,
      "duration": 0.012,
      "velocity": 103,
      "chip": "ym2612"
    },
    {
      "channel": 2,
      "note": 40,
      "start": 23.0587,
      "duration": 0.012,
      "velocity": 114,
      "chip": "ym2612"
    },
    {
      "channel": 0,
      "note": 77,
      "start": 23.067,
      "duration": 0.0126,
      "velocity": 103,
      "chip": "ym2612"
    },
    {
      "channel": 5,
      "note": 77,
      "start": 23.0694,
      "duration": 0.0126,
      "velocity": 103,
      "chip": "ym2612"
    },
    {
      "channel": 2,
      "note": 40,
      "start": 23.0706,
      "duration": 0.0126,
      "velocity": 114,
      "chip": "ym2612"
    },
    {
      "channel": 0,
      "note": 77,
      "start": 23.0795,
      "duration": 0.0125,
      "velocity": 103,
      "chip": "ym2612"
    },
    {
      "channel": 5,
      "note": 77,
      "start": 23.082,
      "duration": 0.0131,
      "velocity": 103,
      "chip": "ym2612"
    },
    {
      "channel": 2,
      "note": 40,
      "start": 23.0832,
      "duration": 0.0131,
      "velocity": 114,
      "chip": "ym2612"
    },
    {
      "channel": 0,
      "note": 77,
      "start": 23.0921,
      "duration": 0.0124,
      "velocity": 103,
      "chip": "ym2612"
    },
    {
      "channel": 5,
      "note": 77,
      "start": 23.0951,
      "duration": 0.0118,
      "velocity": 103,
      "chip": "ym2612"
    },
    {
      "channel": 2,
      "note": 39,
      "start": 23.0963,
      "duration": 0.0118,
      "velocity": 114,
      "chip": "ym2612"
    },
    {
      "channel": 0,
      "note": 77,
      "start": 23.1045,
      "duration": 0.0125,
      "velocity": 103,
      "chip": "ym2612"
    },
    {
      "channel": 5,
      "note": 77,
      "start": 23.1069,
      "duration": 0.0125,
      "velocity": 103,
      "chip": "ym2612"
    },
    {
      "channel": 0,
      "note": 77,
      "start": 23.117,
      "duration": 0.0126,
      "velocity": 103,
      "chip": "ym2612"
    },
    {
      "channel": 5,
      "note": 77,
      "start": 23.1194,
      "duration": 0.0126,
      "velocity": 103,
      "chip": "ym2612"
    },
    {
      "channel": 0,
      "note": 77,
      "start": 23.1295,
      "duration": 0.0125,
      "velocity": 103,
      "chip": "ym2612"
    },
    {
      "channel": 5,
      "note": 77,
      "start": 23.132,
      "duration": 0.013,
      "velocity": 103,
      "chip": "ym2612"
    },
    {
      "channel": 0,
      "note": 77,
      "start": 23.142,
      "duration": 0.0125,
      "velocity": 103,
      "chip": "ym2612"
    },
    {
      "channel": 5,
      "note": 77,
      "start": 23.145,
      "duration": 0.0139,
      "velocity": 103,
      "chip": "ym2612"
    },
    {
      "channel": 0,
      "note": 77,
      "start": 23.1545,
      "duration": 0.0125,
      "velocity": 103,
      "chip": "ym2612"
    },
    {
      "channel": 1,
      "note": 53,
      "start": 23.1559,
      "duration": 0.0994,
      "velocity": 81,
      "chip": "ym2612"
    },
    {
      "channel": 5,
      "note": 77,
      "start": 23.1589,
      "duration": 0.0105,
      "velocity": 103,
      "chip": "ym2612"
    },
    {
      "channel": 2,
      "note": 41,
      "start": 23.1649,
      "duration": 0.1973,
      "velocity": 122,
      "chip": "ym2612"
    },
    {
      "channel": 0,
      "note": 77,
      "start": 23.167,
      "duration": 0.0125,
      "velocity": 103,
      "chip": "ym2612"
    },
    {
      "channel": 5,
      "note": 77,
      "start": 23.1694,
      "duration": 0.0126,
      "velocity": 103,
      "chip": "ym2612"
    },
    {
      "channel": 0,
      "note": 77,
      "start": 23.1795,
      "duration": 0.0125,
      "velocity": 103,
      "chip": "ym2612"
    },
    {
      "channel": 5,
      "note": 77,
      "start": 23.182,
      "duration": 0.013,
      "velocity": 103,
      "chip": "ym2612"
    },
    {
      "channel": 0,
      "note": 77,
      "start": 23.192,
      "duration": 0.0125,
      "velocity": 103,
      "chip": "ym2612"
    },
    {
      "channel": 5,
      "note": 77,
      "start": 23.195,
      "duration": 0.0119,
      "velocity": 103,
      "chip": "ym2612"
    },
    {
      "channel": 0,
      "note": 77,
      "start": 23.2045,
      "duration": 0.0125,
      "velocity": 103,
      "chip": "ym2612"
    },
    {
      "channel": 5,
      "note": 77,
      "start": 23.2069,
      "duration": 0.0125,
      "velocity": 103,
      "chip": "ym2612"
    },
    {
      "channel": 0,
      "note": 77,
      "start": 23.217,
      "duration": 0.0126,
      "velocity": 103,
      "chip": "ym2612"
    },
    {
      "channel": 5,
      "note": 77,
      "start": 23.2194,
      "duration": 0.0126,
      "velocity": 103,
      "chip": "ym2612"
    },
    {
      "channel": 0,
      "note": 77,
      "start": 23.2295,
      "duration": 0.0125,
      "velocity": 103,
      "chip": "ym2612"
    },
    {
      "channel": 5,
      "note": 77,
      "start": 23.232,
      "duration": 0.0131,
      "velocity": 103,
      "chip": "ym2612"
    },
    {
      "channel": 0,
      "note": 77,
      "start": 23.2421,
      "duration": 0.0124,
      "velocity": 103,
      "chip": "ym2612"
    },
    {
      "channel": 5,
      "note": 77,
      "start": 23.2451,
      "duration": 0.0124,
      "velocity": 103,
      "chip": "ym2612"
    },
    {
      "channel": 0,
      "note": 77,
      "start": 23.2545,
      "duration": 0.0125,
      "velocity": 103,
      "chip": "ym2612"
    },
    {
      "channel": 5,
      "note": 77,
      "start": 23.2575,
      "duration": 0.0119,
      "velocity": 103,
      "chip": "ym2612"
    },
    {
      "channel": 0,
      "note": 77,
      "start": 23.267,
      "duration": 0.0126,
      "velocity": 103,
      "chip": "ym2612"
    },
    {
      "channel": 5,
      "note": 77,
      "start": 23.2694,
      "duration": 0.0125,
      "velocity": 103,
      "chip": "ym2612"
    },
    {
      "channel": 0,
      "note": 77,
      "start": 23.2795,
      "duration": 0.0125,
      "velocity": 103,
      "chip": "ym2612"
    },
    {
      "channel": 5,
      "note": 77,
      "start": 23.2819,
      "duration": 0.0131,
      "velocity": 103,
      "chip": "ym2612"
    },
    {
      "channel": 0,
      "note": 77,
      "start": 23.292,
      "duration": 0.0125,
      "velocity": 103,
      "chip": "ym2612"
    },
    {
      "channel": 5,
      "note": 77,
      "start": 23.295,
      "duration": 0.0119,
      "velocity": 103,
      "chip": "ym2612"
    },
    {
      "channel": 0,
      "note": 77,
      "start": 23.3045,
      "duration": 0.0125,
      "velocity": 103,
      "chip": "ym2612"
    },
    {
      "channel": 5,
      "note": 77,
      "start": 23.3069,
      "duration": 0.0125,
      "velocity": 103,
      "chip": "ym2612"
    },
    {
      "channel": 0,
      "note": 77,
      "start": 23.317,
      "duration": 0.0126,
      "velocity": 103,
      "chip": "ym2612"
    },
    {
      "channel": 5,
      "note": 77,
      "start": 23.3194,
      "duration": 0.0125,
      "velocity": 103,
      "chip": "ym2612"
    },
    {
      "channel": 0,
      "note": 77,
      "start": 23.3295,
      "duration": 0.0125,
      "velocity": 103,
      "chip": "ym2612"
    },
    {
      "channel": 5,
      "note": 77,
      "start": 23.3319,
      "duration": 0.0131,
      "velocity": 103,
      "chip": "ym2612"
    },
    {
      "channel": 0,
      "note": 77,
      "start": 23.342,
      "duration": 0.0125,
      "velocity": 103,
      "chip": "ym2612"
    },
    {
      "channel": 5,
      "note": 77,
      "start": 23.345,
      "duration": 0.0138,
      "velocity": 103,
      "chip": "ym2612"
    },
    {
      "channel": 0,
      "note": 77,
      "start": 23.3545,
      "duration": 0.0125,
      "velocity": 103,
      "chip": "ym2612"
    },
    {
      "channel": 1,
      "note": 53,
      "start": 23.3559,
      "duration": 0.0994,
      "velocity": 81,
      "chip": "ym2612"
    },
    {
      "channel": 5,
      "note": 77,
      "start": 23.3588,
      "duration": 0.0105,
      "velocity": 103,
      "chip": "ym2612"
    },
    {
      "channel": 2,
      "note": 40,
      "start": 23.3649,
      "duration": 0.0057,
      "velocity": 114,
      "chip": "ym2612"
    },
    {
      "channel": 0,
      "note": 77,
      "start": 23.367,
      "duration": 0.0126,
      "velocity": 103,
      "chip": "ym2612"
    },
    {
      "channel": 5,
      "note": 77,
      "start": 23.3694,
      "duration": 0.0126,
      "velocity": 103,
      "chip": "ym2612"
    },
    {
      "channel": 2,
      "note": 40,
      "start": 23.3706,
      "duration": 0.0126,
      "velocity": 114,
      "chip": "ym2612"
    },
    {
      "channel": 0,
      "note": 77,
      "start": 23.3795,
      "duration": 0.0125,
      "velocity": 103,
      "chip": "ym2612"
    },
    {
      "channel": 5,
      "note": 77,
      "start": 23.382,
      "duration": 0.0131,
      "velocity": 103,
      "chip": "ym2612"
    },
    {
      "channel": 2,
      "note": 40,
      "start": 23.3832,
      "duration": 0.0134,
      "velocity": 114,
      "chip": "ym2612"
    },
    {
      "channel": 0,
      "note": 77,
      "start": 23.3921,
      "duration": 0.0124,
      "velocity": 103,
      "chip": "ym2612"
    },
    {
      "channel": 5,
      "note": 77,
      "start": 23.3951,
      "duration": 0.0118,
      "velocity": 103,
      "chip": "ym2612"
    },
    {
      "channel": 2,
      "note": 40,
      "start": 23.3967,
      "duration": 0.0115,
      "velocity": 114,
      "chip": "ym2612"
    },
    {
      "channel": 0,
      "note": 77,
      "start": 23.4045,
      "duration": 0.0125,
      "velocity": 103,
      "chip": "ym2612"
    },
    {
      "channel": 5,
      "note": 77,
      "start": 23.4069,
      "duration": 0.0125,
      "velocity": 103,
      "chip": "ym2612"
    },
    {
      "channel": 2,
      "note": 40,
      "start": 23.4082,
      "duration": 0.0124,
      "velocity": 114,
      "chip": "ym2612"
    },
    {
      "channel": 0,
      "note": 77,
      "start": 23.417,
      "duration": 0.0126,
      "velocity": 103,
      "chip": "ym2612"
    },
    {
      "channel": 5,
      "note": 77,
      "start": 23.4194,
      "duration": 0.0125,
      "velocity": 103,
      "chip": "ym2612"
    },
    {
      "channel": 2,
      "note": 40,
      "start": 23.4206,
      "duration": 0.0125,
      "velocity": 114,
      "chip": "ym2612"
    },
    {
      "channel": 0,
      "note": 77,
      "start": 23.4295,
      "duration": 0.0125,
      "velocity": 103,
      "chip": "ym2612"
    },
    {
      "channel": 5,
      "note": 77,
      "start": 23.4319,
      "duration": 0.0131,
      "velocity": 103,
      "chip": "ym2612"
    },
    {
      "channel": 2,
      "note": 40,
      "start": 23.4332,
      "duration": 0.0131,
      "velocity": 114,
      "chip": "ym2612"
    },
    {
      "channel": 0,
      "note": 77,
      "start": 23.442,
      "duration": 0.0125,
      "velocity": 103,
      "chip": "ym2612"
    },
    {
      "channel": 5,
      "note": 77,
      "start": 23.445,
      "duration": 0.0124,
      "velocity": 103,
      "chip": "ym2612"
    },
    {
      "channel": 2,
      "note": 40,
      "start": 23.4463,
      "duration": 0.0124,
      "velocity": 114,
      "chip": "ym2612"
    },
    {
      "channel": 0,
      "note": 77,
      "start": 23.4545,
      "duration": 0.0125,
      "velocity": 103,
      "chip": "ym2612"
    },
    {
      "channel": 5,
      "note": 77,
      "start": 23.4574,
      "duration": 0.012,
      "velocity": 103,
      "chip": "ym2612"
    },
    {
      "channel": 2,
      "note": 40,
      "start": 23.4587,
      "duration": 0.012,
      "velocity": 114,
      "chip": "ym2612"
    },
    {
      "channel": 0,
      "note": 77,
      "start": 23.467,
      "duration": 0.0126,
      "velocity": 103,
      "chip": "ym2612"
    },
    {
      "channel": 5,
      "note": 77,
      "start": 23.4694,
      "duration": 0.0125,
      "velocity": 103,
      "chip": "ym2612"
    },
    {
      "channel": 2,
      "note": 40,
      "start": 23.4706,
      "duration": 0.0125,
      "velocity": 114,
      "chip": "ym2612"
    },
    {
      "channel": 0,
      "note": 77,
      "start": 23.4795,
      "duration": 0.0125,
      "velocity": 103,
      "chip": "ym2612"
    },
    {
      "channel": 5,
      "note": 77,
      "start": 23.4819,
      "duration": 0.0131,
      "velocity": 103,
      "chip": "ym2612"
    },
    {
      "channel": 2,
      "note": 39,
      "start": 23.4832,
      "duration": 0.013,
      "velocity": 114,
      "chip": "ym2612"
    },
    {
      "channel": 0,
      "note": 77,
      "start": 23.492,
      "duration": 0.0125,
      "velocity": 103,
      "chip": "ym2612"
    },
    {
      "channel": 5,
      "note": 77,
      "start": 23.495,
      "duration": 0.0119,
      "velocity": 103,
      "chip": "ym2612"
    },
    {
      "channel": 0,
      "note": 77,
      "start": 23.5045,
      "duration": 0.0125,
      "velocity": 103,
      "chip": "ym2612"
    },
    {
      "channel": 5,
      "note": 77,
      "start": 23.5069,
      "duration": 0.0125,
      "velocity": 103,
      "chip": "ym2612"
    },
    {
      "channel": 0,
      "note": 77,
      "start": 23.517,
      "duration": 0.0126,
      "velocity": 103,
      "chip": "ym2612"
    },
    {
      "channel": 5,
      "note": 77,
      "start": 23.5194,
      "duration": 0.0126,
      "velocity": 103,
      "chip": "ym2612"
    },
    {
      "channel": 0,
      "note": 77,
      "start": 23.5295,
      "duration": 0.0125,
      "velocity": 103,
      "chip": "ym2612"
    },
    {
      "channel": 5,
      "note": 77,
      "start": 23.532,
      "duration": 0.0131,
      "velocity": 103,
      "chip": "ym2612"
    },
    {
      "channel": 0,
      "note": 77,
      "start": 23.5421,
      "duration": 0.0124,
      "velocity": 103,
      "chip": "ym2612"
    },
    {
      "channel": 5,
      "note": 77,
      "start": 23.5451,
      "duration": 0.0118,
      "velocity": 103,
      "chip": "ym2612"
    },
    {
      "channel": 0,
      "note": 77,
      "start": 23.5545,
      "duration": 0.0125,
      "velocity": 103,
      "chip": "ym2612"
    },
    {
      "channel": 5,
      "note": 77,
      "start": 23.5569,
      "duration": 0.0144,
      "velocity": 103,
      "chip": "ym2612"
    },
    {
      "channel": 0,
      "note": 77,
      "start": 23.567,
      "duration": 0.0125,
      "velocity": 103,
      "chip": "ym2612"
    },
    {
      "channel": 1,
      "note": 53,
      "start": 23.5684,
      "duration": 0.0494,
      "velocity": 81,
      "chip": "ym2612"
    },
    {
      "channel": 5,
      "note": 77,
      "start": 23.5713,
      "duration": 0.0106,
      "velocity": 103,
      "chip": "ym2612"
    },
    {
      "channel": 2,
      "note": 40,
      "start": 23.574,
      "duration": 0.0092,
      "velocity": 114,
      "chip": "ym2612"
    },
    {
      "channel": 0,
      "note": 77,
      "start": 23.5795,
      "duration": 0.0125,
      "velocity": 103,
      "chip": "ym2612"
    },
    {
      "channel": 5,
      "note": 77,
      "start": 23.5819,
      "duration": 0.0131,
      "velocity": 103,
      "chip": "ym2612"
    },
    {
      "channel": 2,
      "note": 40,
      "start": 23.5832,
      "duration": 0.0131,
      "velocity": 114,
      "chip": "ym2612"
    },
    {
      "channel": 0,
      "note": 77,
      "start": 23.592,
      "duration": 0.0125,
      "velocity": 103,
      "chip": "ym2612"
    },
    {
      "channel": 5,
      "note": 77,
      "start": 23.595,
      "duration": 0.0119,
      "velocity": 103,
      "chip": "ym2612"
    },
    {
      "channel": 2,
      "note": 40,
      "start": 23.5963,
      "duration": 0.0123,
      "velocity": 114,
      "chip": "ym2612"
    },
    {
      "channel": 0,
      "note": 77,
      "start": 23.6045,
      "duration": 0.0125,
      "velocity": 103,
      "chip": "ym2612"
    },
    {
      "channel": 5,
      "note": 77,
      "start": 23.6069,
      "duration": 0.013,
      "velocity": 103,
      "chip": "ym2612"
    },
    {
      "channel": 2,
      "note": 40,
      "start": 23.6085,
      "duration": 0.0127,
      "velocity": 114,
      "chip": "ym2612"
    },
    {
      "channel": 0,
      "note": 77,
      "start": 23.617,
      "duration": 0.0126,
      "velocity": 103,
      "chip": "ym2612"
    },
    {
      "channel": 5,
      "note": 77,
      "start": 23.6199,
      "duration": 0.012,
      "velocity": 103,
      "chip": "ym2612"
    },
    {
      "channel": 2,
      "note": 40,
      "start": 23.6212,
      "duration": 0.012,
      "velocity": 114,
      "chip": "ym2612"
    },
    {
      "channel": 0,
      "note": 77,
      "start": 23.6295,
      "duration": 0.0125,
      "velocity": 103,
      "chip": "ym2612"
    },
    {
      "channel": 5,
      "note": 77,
      "start": 23.6319,
      "duration": 0.0131,
      "velocity": 103,
      "chip": "ym2612"
    },
    {
      "channel": 2,
      "note": 40,
      "start": 23.6332,
      "duration": 0.0131,
      "velocity": 114,
      "chip": "ym2612"
    },
    {
      "channel": 0,
      "note": 77,
      "start": 23.642,
      "duration": 0.0125,
      "velocity": 103,
      "chip": "ym2612"
    },
    {
      "channel": 5,
      "note": 77,
      "start": 23.645,
      "duration": 0.0119,
      "velocity": 103,
      "chip": "ym2612"
    },
    {
      "channel": 2,
      "note": 40,
      "start": 23.6463,
      "duration": 0.0119,
      "velocity": 114,
      "chip": "ym2612"
    },
    {
      "channel": 0,
      "note": 77,
      "start": 23.6545,
      "duration": 0.0125,
      "velocity": 103,
      "chip": "ym2612"
    },
    {
      "channel": 5,
      "note": 77,
      "start": 23.6569,
      "duration": 0.0144,
      "velocity": 103,
      "chip": "ym2612"
    },
    {
      "channel": 2,
      "note": 40,
      "start": 23.6582,
      "duration": 0.0142,
      "velocity": 114,
      "chip": "ym2612"
    },
    {
      "channel": 0,
      "note": 77,
      "start": 23.667,
      "duration": 0.0126,
      "velocity": 103,
      "chip": "ym2612"
    },
    {
      "channel": 1,
      "note": 53,
      "start": 23.6684,
      "duration": 0.0994,
      "velocity": 81,
      "chip": "ym2612"
    },
    {
      "channel": 5,
      "note": 77,
      "start": 23.6713,
      "duration": 0.0106,
      "velocity": 103,
      "chip": "ym2612"
    },
    {
      "channel": 0,
      "note": 77,
      "start": 23.6795,
      "duration": 0.0125,
      "velocity": 103,
      "chip": "ym2612"
    },
    {
      "channel": 5,
      "note": 77,
      "start": 23.682,
      "duration": 0.0131,
      "velocity": 103,
      "chip": "ym2612"
    },
    {
      "channel": 2,
      "note": 41,
      "start": 23.687,
      "duration": 0.1872,
      "velocity": 122,
      "chip": "ym2612"
    },
    {
      "channel": 0,
      "note": 77,
      "start": 23.692,
      "duration": 0.0125,
      "velocity": 103,
      "chip": "ym2612"
    },
    {
      "channel": 5,
      "note": 77,
      "start": 23.6951,
      "duration": 0.0118,
      "velocity": 103,
      "chip": "ym2612"
    },
    {
      "channel": 0,
      "note": 77,
      "start": 23.7045,
      "duration": 0.0125,
      "velocity": 103,
      "chip": "ym2612"
    },
    {
      "channel": 5,
      "note": 77,
      "start": 23.7069,
      "duration": 0.0125,
      "velocity": 103,
      "chip": "ym2612"
    },
    {
      "channel": 0,
      "note": 77,
      "start": 23.717,
      "duration": 0.0126,
      "velocity": 103,
      "chip": "ym2612"
    },
    {
      "channel": 5,
      "note": 77,
      "start": 23.7194,
      "duration": 0.0125,
      "velocity": 103,
      "chip": "ym2612"
    },
    {
      "channel": 0,
      "note": 77,
      "start": 23.7295,
      "duration": 0.0125,
      "velocity": 103,
      "chip": "ym2612"
    },
    {
      "channel": 5,
      "note": 77,
      "start": 23.7319,
      "duration": 0.0131,
      "velocity": 103,
      "chip": "ym2612"
    },
    {
      "channel": 0,
      "note": 77,
      "start": 23.742,
      "duration": 0.0125,
      "velocity": 103,
      "chip": "ym2612"
    },
    {
      "channel": 5,
      "note": 77,
      "start": 23.745,
      "duration": 0.0119,
      "velocity": 103,
      "chip": "ym2612"
    },
    {
      "channel": 0,
      "note": 77,
      "start": 23.7545,
      "duration": 0.0125,
      "velocity": 103,
      "chip": "ym2612"
    },
    {
      "channel": 5,
      "note": 77,
      "start": 23.7569,
      "duration": 0.013,
      "velocity": 103,
      "chip": "ym2612"
    },
    {
      "channel": 0,
      "note": 77,
      "start": 23.767,
      "duration": 0.0126,
      "velocity": 103,
      "chip": "ym2612"
    },
    {
      "channel": 5,
      "note": 77,
      "start": 23.7699,
      "duration": 0.012,
      "velocity": 103,
      "chip": "ym2612"
    },
    {
      "channel": 0,
      "note": 77,
      "start": 23.7795,
      "duration": 0.0125,
      "velocity": 103,
      "chip": "ym2612"
    },
    {
      "channel": 5,
      "note": 77,
      "start": 23.7819,
      "duration": 0.0131,
      "velocity": 103,
      "chip": "ym2612"
    },
    {
      "channel": 0,
      "note": 77,
      "start": 23.792,
      "duration": 0.0125,
      "velocity": 103,
      "chip": "ym2612"
    },
    {
      "channel": 5,
      "note": 77,
      "start": 23.795,
      "duration": 0.0119,
      "velocity": 103,
      "chip": "ym2612"
    },
    {
      "channel": 0,
      "note": 77,
      "start": 23.8045,
      "duration": 0.0125,
      "velocity": 103,
      "chip": "ym2612"
    },
    {
      "channel": 5,
      "note": 77,
      "start": 23.8069,
      "duration": 0.0125,
      "velocity": 103,
      "chip": "ym2612"
    },
    {
      "channel": 0,
      "note": 77,
      "start": 23.817,
      "duration": 0.0126,
      "velocity": 103,
      "chip": "ym2612"
    },
    {
      "channel": 5,
      "note": 77,
      "start": 23.8194,
      "duration": 0.0126,
      "velocity": 103,
      "chip": "ym2612"
    },
    {
      "channel": 0,
      "note": 77,
      "start": 23.8295,
      "duration": 0.0125,
      "velocity": 103,
      "chip": "ym2612"
    },
    {
      "channel": 5,
      "note": 77,
      "start": 23.832,
      "duration": 0.0131,
      "velocity": 103,
      "chip": "ym2612"
    },
    {
      "channel": 0,
      "note": 77,
      "start": 23.8421,
      "duration": 0.0124,
      "velocity": 103,
      "chip": "ym2612"
    },
    {
      "channel": 5,
      "note": 77,
      "start": 23.8451,
      "duration": 0.0118,
      "velocity": 103,
      "chip": "ym2612"
    },
    {
      "channel": 0,
      "note": 77,
      "start": 23.8545,
      "duration": 0.0125,
      "velocity": 103,
      "chip": "ym2612"
    },
    {
      "channel": 5,
      "note": 77,
      "start": 23.8569,
      "duration": 0.0144,
      "velocity": 103,
      "chip": "ym2612"
    },
    {
      "channel": 0,
      "note": 77,
      "start": 23.867,
      "duration": 0.0125,
      "velocity": 103,
      "chip": "ym2612"
    },
    {
      "channel": 1,
      "note": 53,
      "start": 23.8684,
      "duration": 0.062,
      "velocity": 81,
      "chip": "ym2612"
    },
    {
      "channel": 5,
      "note": 77,
      "start": 23.8713,
      "duration": 0.0106,
      "velocity": 103,
      "chip": "ym2612"
    },
    {
      "channel": 2,
      "note": 40,
      "start": 23.8769,
      "duration": 0.0063,
      "velocity": 114,
      "chip": "ym2612"
    },
    {
      "channel": 0,
      "note": 77,
      "start": 23.8795,
      "duration": 0.0125,
      "velocity": 103,
      "chip": "ym2612"
    },
    {
      "channel": 5,
      "note": 77,
      "start": 23.8819,
      "duration": 0.0131,
      "velocity": 103,
      "chip": "ym2612"
    },
    {
      "channel": 2,
      "note": 40,
      "start": 23.8832,
      "duration": 0.0131,
      "velocity": 114,
      "chip": "ym2612"
    },
    {
      "channel": 0,
      "note": 77,
      "start": 23.892,
      "duration": 0.0125,
      "velocity": 103,
      "chip": "ym2612"
    },
    {
      "channel": 5,
      "note": 77,
      "start": 23.895,
      "duration": 0.0119,
      "velocity": 103,
      "chip": "ym2612"
    },
    {
      "channel": 2,
      "note": 40,
      "start": 23.8963,
      "duration": 0.0123,
      "velocity": 114,
      "chip": "ym2612"
    },
    {
      "channel": 0,
      "note": 77,
      "start": 23.9045,
      "duration": 0.0125,
      "velocity": 103,
      "chip": "ym2612"
    },
    {
      "channel": 5,
      "note": 77,
      "start": 23.9069,
      "duration": 0.0125,
      "velocity": 103,
      "chip": "ym2612"
    },
    {
      "channel": 2,
      "note": 40,
      "start": 23.9085,
      "duration": 0.0121,
      "velocity": 114,
      "chip": "ym2612"
    },
    {
      "channel": 0,
      "note": 77,
      "start": 23.917,
      "duration": 0.0126,
      "velocity": 103,
      "chip": "ym2612"
    },
    {
      "channel": 5,
      "note": 77,
      "start": 23.9194,
      "duration": 0.0131,
      "velocity": 103,
      "chip": "ym2612"
    },
    {
      "channel": 2,
      "note": 40,
      "start": 23.9206,
      "duration": 0.0131,
      "velocity": 114,
      "chip": "ym2612"
    },
    {
      "channel": 0,
      "note": 77,
      "start": 23.9295,
      "duration": 0.0125,
      "velocity": 103,
      "chip": "ym2612"
    },
    {
      "channel": 5,
      "note": 77,
      "start": 23.9325,
      "duration": 0.0125,
      "velocity": 103,
      "chip": "ym2612"
    },
    {
      "channel": 2,
      "note": 40,
      "start": 23.9337,
      "duration": 0.0125,
      "velocity": 114,
      "chip": "ym2612"
    },
    {
      "channel": 0,
      "note": 77,
      "start": 23.942,
      "duration": 0.0125,
      "velocity": 103,
      "chip": "ym2612"
    },
    {
      "channel": 5,
      "note": 77,
      "start": 23.945,
      "duration": 0.0119,
      "velocity": 103,
      "chip": "ym2612"
    },
    {
      "channel": 2,
      "note": 40,
      "start": 23.9463,
      "duration": 0.0119,
      "velocity": 114,
      "chip": "ym2612"
    },
    {
      "channel": 0,
      "note": 77,
      "start": 23.9545,
      "duration": 0.0125,
      "velocity": 103,
      "chip": "ym2612"
    },
    {
      "channel": 5,
      "note": 77,
      "start": 23.9569,
      "duration": 0.0144,
      "velocity": 103,
      "chip": "ym2612"
    },
    {
      "channel": 2,
      "note": 40,
      "start": 23.9582,
      "duration": 0.0142,
      "velocity": 114,
      "chip": "ym2612"
    },
    {
      "channel": 0,
      "note": 77,
      "start": 23.967,
      "duration": 0.0126,
      "velocity": 103,
      "chip": "ym2612"
    },
    {
      "channel": 1,
      "note": 53,
      "start": 23.9684,
      "duration": 0.0995,
      "velocity": 81,
      "chip": "ym2612"
    },
    {
      "channel": 5,
      "note": 77,
      "start": 23.9713,
      "duration": 0.0106,
      "velocity": 103,
      "chip": "ym2612"
    },
    {
      "channel": 0,
      "note": 77,
      "start": 23.9795,
      "duration": 0.0125,
      "velocity": 103,
      "chip": "ym2612"
    },
    {
      "channel": 5,
      "note": 77,
      "start": 23.982,
      "duration": 0.0131,
      "velocity": 103,
      "chip": "ym2612"
    },
    {
      "channel": 2,
      "note": 40,
      "start": 23.9842,
      "duration": 0.0122,
      "velocity": 114,
      "chip": "ym2612"
    },
    {
      "channel": 0,
      "note": 77,
      "start": 23.992,
      "duration": 0.0125,
      "velocity": 103,
      "chip": "ym2612"
    },
    {
      "channel": 5,
      "note": 77,
      "start": 23.9951,
      "duration": 0.0118,
      "velocity": 103,
      "chip": "ym2612"
    },
    {
      "channel": 2,
      "note": 40,
      "start": 23.9963,
      "duration": 0.0118,
      "velocity": 114,
      "chip": "ym2612"
    },
    {
      "channel": 0,
      "note": 77,
      "start": 24.0045,
      "duration": 0.0125,
      "velocity": 103,
      "chip": "ym2612"
    },
    {
      "channel": 5,
      "note": 77,
      "start": 24.0069,
      "duration": 0.0125,
      "velocity": 103,
      "chip": "ym2612"
    },
    {
      "channel": 2,
      "note": 40,
      "start": 24.0082,
      "duration": 0.0128,
      "velocity": 114,
      "chip": "ym2612"
    },
    {
      "channel": 0,
      "note": 77,
      "start": 24.017,
      "duration": 0.0126,
      "velocity": 103,
      "chip": "ym2612"
    },
    {
      "channel": 5,
      "note": 77,
      "start": 24.0194,
      "duration": 0.0125,
      "velocity": 103,
      "chip": "ym2612"
    },
    {
      "channel": 2,
      "note": 40,
      "start": 24.021,
      "duration": 0.0122,
      "velocity": 114,
      "chip": "ym2612"
    },
    {
      "channel": 0,
      "note": 77,
      "start": 24.0295,
      "duration": 0.0125,
      "velocity": 103,
      "chip": "ym2612"
    },
    {
      "channel": 5,
      "note": 77,
      "start": 24.0319,
      "duration": 0.0131,
      "velocity": 103,
      "chip": "ym2612"
    },
    {
      "channel": 2,
      "note": 40,
      "start": 24.0332,
      "duration": 0.0131,
      "velocity": 114,
      "chip": "ym2612"
    },
    {
      "channel": 0,
      "note": 77,
      "start": 24.042,
      "duration": 0.0125,
      "velocity": 103,
      "chip": "ym2612"
    },
    {
      "channel": 5,
      "note": 77,
      "start": 24.045,
      "duration": 0.0119,
      "velocity": 103,
      "chip": "ym2612"
    },
    {
      "channel": 2,
      "note": 40,
      "start": 24.0463,
      "duration": 0.0119,
      "velocity": 114,
      "chip": "ym2612"
    },
    {
      "channel": 0,
      "note": 77,
      "start": 24.0545,
      "duration": 0.0125,
      "velocity": 103,
      "chip": "ym2612"
    },
    {
      "channel": 5,
      "note": 77,
      "start": 24.0569,
      "duration": 0.0144,
      "velocity": 103,
      "chip": "ym2612"
    },
    {
      "channel": 2,
      "note": 40,
      "start": 24.0582,
      "duration": 0.0142,
      "velocity": 114,
      "chip": "ym2612"
    },
    {
      "channel": 0,
      "note": 77,
      "start": 24.067,
      "duration": 0.0126,
      "velocity": 103,
      "chip": "ym2612"
    },
    {
      "channel": 1,
      "note": 59,
      "start": 24.0684,
      "duration": 0.0995,
      "velocity": 81,
      "chip": "ym2612"
    },
    {
      "channel": 5,
      "note": 77,
      "start": 24.0713,
      "duration": 0.0106,
      "velocity": 103,
      "chip": "ym2612"
    },
    {
      "channel": 0,
      "note": 77,
      "start": 24.0795,
      "duration": 0.0125,
      "velocity": 103,
      "chip": "ym2612"
    },
    {
      "channel": 5,
      "note": 77,
      "start": 24.0819,
      "duration": 0.0131,
      "velocity": 103,
      "chip": "ym2612"
    },
    {
      "channel": 2,
      "note": 40,
      "start": 24.0841,
      "duration": 0.0122,
      "velocity": 114,
      "chip": "ym2612"
    },
    {
      "channel": 0,
      "note": 77,
      "start": 24.092,
      "duration": 0.0125,
      "velocity": 103,
      "chip": "ym2612"
    },
    {
      "channel": 5,
      "note": 77,
      "start": 24.095,
      "duration": 0.0119,
      "velocity": 103,
      "chip": "ym2612"
    },
    {
      "channel": 2,
      "note": 40,
      "start": 24.0963,
      "duration": 0.0119,
      "velocity": 114,
      "chip": "ym2612"
    },
    {
      "channel": 0,
      "note": 77,
      "start": 24.1045,
      "duration": 0.0125,
      "velocity": 103,
      "chip": "ym2612"
    },
    {
      "channel": 5,
      "note": 77,
      "start": 24.1069,
      "duration": 0.0125,
      "velocity": 103,
      "chip": "ym2612"
    },
    {
      "channel": 2,
      "note": 40,
      "start": 24.1082,
      "duration": 0.0128,
      "velocity": 114,
      "chip": "ym2612"
    },
    {
      "channel": 0,
      "note": 77,
      "start": 24.117,
      "duration": 0.0126,
      "velocity": 103,
      "chip": "ym2612"
    },
    {
      "channel": 5,
      "note": 77,
      "start": 24.1194,
      "duration": 0.0126,
      "velocity": 103,
      "chip": "ym2612"
    },
    {
      "channel": 2,
      "note": 40,
      "start": 24.121,
      "duration": 0.0122,
      "velocity": 114,
      "chip": "ym2612"
    },
    {
      "channel": 0,
      "note": 77,
      "start": 24.1295,
      "duration": 0.0125,
      "velocity": 103,
      "chip": "ym2612"
    },
    {
      "channel": 5,
      "note": 77,
      "start": 24.132,
      "duration": 0.0131,
      "velocity": 103,
      "chip": "ym2612"
    },
    {
      "channel": 2,
      "note": 40,
      "start": 24.1332,
      "duration": 0.0131,
      "velocity": 114,
      "chip": "ym2612"
    },
    {
      "channel": 0,
      "note": 77,
      "start": 24.1421,
      "duration": 0.0124,
      "velocity": 103,
      "chip": "ym2612"
    },
    {
      "channel": 5,
      "note": 77,
      "start": 24.1451,
      "duration": 0.0118,
      "velocity": 103,
      "chip": "ym2612"
    },
    {
      "channel": 2,
      "note": 40,
      "start": 24.1463,
      "duration": 0.0118,
      "velocity": 114,
      "chip": "ym2612"
    },
    {
      "channel": 0,
      "note": 77,
      "start": 24.1545,
      "duration": 0.0125,
      "velocity": 103,
      "chip": "ym2612"
    },
    {
      "channel": 5,
      "note": 77,
      "start": 24.1569,
      "duration": 0.0144,
      "velocity": 103,
      "chip": "ym2612"
    },
    {
      "channel": 2,
      "note": 40,
      "start": 24.1582,
      "duration": 0.0142,
      "velocity": 114,
      "chip": "ym2612"
    },
    {
      "channel": 0,
      "note": 77,
      "start": 24.167,
      "duration": 0.0126,
      "velocity": 103,
      "chip": "ym2612"
    },
    {
      "channel": 1,
      "note": 65,
      "start": 24.1684,
      "duration": 0.0995,
      "velocity": 81,
      "chip": "ym2612"
    },
    {
      "channel": 5,
      "note": 77,
      "start": 24.1713,
      "duration": 0.0107,
      "velocity": 103,
      "chip": "ym2612"
    },
    {
      "channel": 0,
      "note": 77,
      "start": 24.1795,
      "duration": 0.0125,
      "velocity": 103,
      "chip": "ym2612"
    },
    {
      "channel": 5,
      "note": 77,
      "start": 24.182,
      "duration": 0.013,
      "velocity": 103,
      "chip": "ym2612"
    },
    {
      "channel": 2,
      "note": 40,
      "start": 24.1842,
      "duration": 0.0121,
      "velocity": 114,
      "chip": "ym2612"
    },
    {
      "channel": 0,
      "note": 77,
      "start": 24.192,
      "duration": 0.0125,
      "velocity": 103,
      "chip": "ym2612"
    },
    {
      "channel": 5,
      "note": 77,
      "start": 24.195,
      "duration": 0.0119,
      "velocity": 103,
      "chip": "ym2612"
    },
    {
      "channel": 2,
      "note": 40,
      "start": 24.1963,
      "duration": 0.0119,
      "velocity": 114,
      "chip": "ym2612"
    },
    {
      "channel": 0,
      "note": 77,
      "start": 24.2045,
      "duration": 0.0125,
      "velocity": 103,
      "chip": "ym2612"
    },
    {
      "channel": 5,
      "note": 77,
      "start": 24.2069,
      "duration": 0.0125,
      "velocity": 103,
      "chip": "ym2612"
    },
    {
      "channel": 2,
      "note": 40,
      "start": 24.2082,
      "duration": 0.0128,
      "velocity": 114,
      "chip": "ym2612"
    },
    {
      "channel": 0,
      "note": 77,
      "start": 24.217,
      "duration": 0.0126,
      "velocity": 103,
      "chip": "ym2612"
    },
    {
      "channel": 5,
      "note": 77,
      "start": 24.2194,
      "duration": 0.0125,
      "velocity": 103,
      "chip": "ym2612"
    },
    {
      "channel": 2,
      "note": 40,
      "start": 24.221,
      "duration": 0.0122,
      "velocity": 114,
      "chip": "ym2612"
    },
    {
      "channel": 0,
      "note": 77,
      "start": 24.2295,
      "duration": 0.0125,
      "velocity": 103,
      "chip": "ym2612"
    },
    {
      "channel": 5,
      "note": 77,
      "start": 24.2319,
      "duration": 0.0131,
      "velocity": 103,
      "chip": "ym2612"
    },
    {
      "channel": 2,
      "note": 40,
      "start": 24.2332,
      "duration": 0.0131,
      "velocity": 114,
      "chip": "ym2612"
    },
    {
      "channel": 0,
      "note": 77,
      "start": 24.242,
      "duration": 0.0125,
      "velocity": 103,
      "chip": "ym2612"
    },
    {
      "channel": 5,
      "note": 77,
      "start": 24.245,
      "duration": 0.0119,
      "velocity": 103,
      "chip": "ym2612"
    },
    {
      "channel": 2,
      "note": 40,
      "start": 24.2463,
      "duration": 0.0119,
      "velocity": 114,
      "chip": "ym2612"
    },
    {
      "channel": 0,
      "note": 77,
      "start": 24.2545,
      "duration": 0.0125,
      "velocity": 103,
      "chip": "ym2612"
    },
    {
      "channel": 5,
      "note": 77,
      "start": 24.2569,
      "duration": 0.0144,
      "velocity": 103,
      "chip": "ym2612"
    },
    {
      "channel": 2,
      "note": 40,
      "start": 24.2582,
      "duration": 0.0142,
      "velocity": 114,
      "chip": "ym2612"
    },
    {
      "channel": 0,
      "note": 77,
      "start": 24.267,
      "duration": 0.0126,
      "velocity": 103,
      "chip": "ym2612"
    },
    {
      "channel": 1,
      "note": 59,
      "start": 24.2684,
      "duration": 0.1128,
      "velocity": 81,
      "chip": "ym2612"
    },
    {
      "channel": 5,
      "note": 77,
      "start": 24.2713,
      "duration": 0.0106,
      "velocity": 103,
      "chip": "ym2612"
    },
    {
      "channel": 0,
      "note": 77,
      "start": 24.2795,
      "duration": 0.0125,
      "velocity": 103,
      "chip": "ym2612"
    },
    {
      "channel": 5,
      "note": 77,
      "start": 24.282,
      "duration": 0.0131,
      "velocity": 103,
      "chip": "ym2612"
    },
    {
      "channel": 2,
      "note": 40,
      "start": 24.2842,
      "duration": 0.0122,
      "velocity": 114,
      "chip": "ym2612"
    },
    {
      "channel": 0,
      "note": 77,
      "start": 24.292,
      "duration": 0.0125,
      "velocity": 103,
      "chip": "ym2612"
    },
    {
      "channel": 5,
      "note": 77,
      "start": 24.2951,
      "duration": 0.0118,
      "velocity": 103,
      "chip": "ym2612"
    },
    {
      "channel": 2,
      "note": 40,
      "start": 24.2963,
      "duration": 0.0118,
      "velocity": 114,
      "chip": "ym2612"
    },
    {
      "channel": 0,
      "note": 77,
      "start": 24.3045,
      "duration": 0.0125,
      "velocity": 103,
      "chip": "ym2612"
    },
    {
      "channel": 5,
      "note": 77,
      "start": 24.3069,
      "duration": 0.0125,
      "velocity": 103,
      "chip": "ym2612"
    },
    {
      "channel": 2,
      "note": 40,
      "start": 24.3082,
      "duration": 0.0128,
      "velocity": 114,
      "chip": "ym2612"
    },
    {
      "channel": 0,
      "note": 77,
      "start": 24.317,
      "duration": 0.0126,
      "velocity": 103,
      "chip": "ym2612"
    },
    {
      "channel": 5,
      "note": 77,
      "start": 24.3194,
      "duration": 0.0125,
      "velocity": 103,
      "chip": "ym2612"
    },
    {
      "channel": 2,
      "note": 40,
      "start": 24.321,
      "duration": 0.0122,
      "velocity": 114,
      "chip": "ym2612"
    },
    {
      "channel": 0,
      "note": 77,
      "start": 24.3295,
      "duration": 0.0125,
      "velocity": 103,
      "chip": "ym2612"
    },
    {
      "channel": 5,
      "note": 77,
      "start": 24.3319,
      "duration": 0.0131,
      "velocity": 103,
      "chip": "ym2612"
    },
    {
      "channel": 2,
      "note": 40,
      "start": 24.3332,
      "duration": 0.0131,
      "velocity": 114,
      "chip": "ym2612"
    },
    {
      "channel": 0,
      "note": 77,
      "start": 24.342,
      "duration": 0.0125,
      "velocity": 103,
      "chip": "ym2612"
    },
    {
      "channel": 5,
      "note": 77,
      "start": 24.345,
      "duration": 0.0119,
      "velocity": 103,
      "chip": "ym2612"
    },
    {
      "channel": 2,
      "note": 40,
      "start": 24.3463,
      "duration": 0.0119,
      "velocity": 114,
      "chip": "ym2612"
    },
    {
      "channel": 0,
      "note": 77,
      "start": 24.3545,
      "duration": 0.0125,
      "velocity": 103,
      "chip": "ym2612"
    },
    {
      "channel": 5,
      "note": 77,
      "start": 24.3569,
      "duration": 0.0125,
      "velocity": 103,
      "chip": "ym2612"
    },
    {
      "channel": 2,
      "note": 40,
      "start": 24.3582,
      "duration": 0.0124,
      "velocity": 114,
      "chip": "ym2612"
    },
    {
      "channel": 0,
      "note": 77,
      "start": 24.367,
      "duration": 0.0124,
      "velocity": 103,
      "chip": "ym2612"
    },
    {
      "channel": 5,
      "note": 77,
      "start": 24.3694,
      "duration": 0.0178,
      "velocity": 103,
      "chip": "ym2612"
    },
    {
      "channel": 2,
      "note": 40,
      "start": 24.3706,
      "duration": 0.0176,
      "velocity": 114,
      "chip": "ym2612"
    },
    {
      "channel": 0,
      "note": 65,
      "start": 24.3799,
      "duration": 0.0493,
      "velocity": 103,
      "chip": "ym2612"
    },
    {
      "channel": 1,
      "note": 53,
      "start": 24.3817,
      "duration": 0.0484,
      "velocity": 81,
      "chip": "ym2612"
    },
    {
      "channel": 3,
      "note": 83,
      "start": 24.3844,
      "duration": 0.0468,
      "velocity": 106,
      "chip": "ym2612"
    },
    {
      "channel": 4,
      "note": 83,
      "start": 24.3859,
      "duration": 0.0461,
      "velocity": 106,
      "chip": "ym2612"
    },
    {
      "channel": 5,
      "note": 77,
      "start": 24.3871,
      "duration": 0.0063,
      "velocity": 103,
      "chip": "ym2612"
    },
    {
      "channel": 5,
      "note": 77,
      "start": 24.3935,
      "duration": 0.0125,
      "velocity": 103,
      "chip": "ym2612"
    },
    {
      "channel": 2,
      "note": 40,
      "start": 24.3963,
      "duration": 0.0109,
      "velocity": 114,
      "chip": "ym2612"
    },
    {
      "channel": 5,
      "note": 77,
      "start": 24.406,
      "duration": 0.0125,
      "velocity": 103,
      "chip": "ym2612"
    },
    {
      "channel": 2,
      "note": 40,
      "start": 24.4072,
      "duration": 0.0125,
      "velocity": 114,
      "chip": "ym2612"
    },
    {
      "channel": 5,
      "note": 77,
      "start": 24.4185,
      "duration": 0.0148,
      "velocity": 103,
      "chip": "ym2612"
    },
    {
      "channel": 2,
      "note": 40,
      "start": 24.4198,
      "duration": 0.0152,
      "velocity": 114,
      "chip": "ym2612"
    },
    {
      "channel": 5,
      "note": 77,
      "start": 24.4333,
      "duration": 0.0102,
      "velocity": 103,
      "chip": "ym2612"
    },
    {
      "channel": 2,
      "note": 40,
      "start": 24.435,
      "duration": 0.0104,
      "velocity": 114,
      "chip": "ym2612"
    },
    {
      "channel": 5,
      "note": 77,
      "start": 24.4435,
      "duration": 0.0125,
      "velocity": 103,
      "chip": "ym2612"
    },
    {
      "channel": 2,
      "note": 40,
      "start": 24.4454,
      "duration": 0.0119,
      "velocity": 114,
      "chip": "ym2612"
    },
    {
      "channel": 5,
      "note": 77,
      "start": 24.456,
      "duration": 0.0125,
      "velocity": 103,
      "chip": "ym2612"
    },
    {
      "channel": 2,
      "note": 40,
      "start": 24.4573,
      "duration": 0.0125,
      "velocity": 114,
      "chip": "ym2612"
    },
    {
      "channel": 5,
      "note": 77,
      "start": 24.4685,
      "duration": 0.0179,
      "velocity": 103,
      "chip": "ym2612"
    },
    {
      "channel": 2,
      "note": 40,
      "start": 24.4698,
      "duration": 0.0178,
      "velocity": 114,
      "chip": "ym2612"
    },
    {
      "channel": 0,
      "note": 65,
      "start": 24.4798,
      "duration": 0.0994,
      "velocity": 103,
      "chip": "ym2612"
    },
    {
      "channel": 1,
      "note": 53,
      "start": 24.4812,
      "duration": 0.0988,
      "velocity": 81,
      "chip": "ym2612"
    },
    {
      "channel": 3,
      "note": 83,
      "start": 24.4837,
      "duration": 0.0975,
      "velocity": 106,
      "chip": "ym2612"
    },
    {
      "channel": 4,
      "note": 83,
      "start": 24.4852,
      "duration": 0.0968,
      "velocity": 106,
      "chip": "ym2612"
    },
    {
      "channel": 5,
      "note": 77,
      "start": 24.4864,
      "duration": 0.0071,
      "velocity": 103,
      "chip": "ym2612"
    },
    {
      "channel": 5,
      "note": 77,
      "start": 24.4935,
      "duration": 0.0125,
      "velocity": 103,
      "chip": "ym2612"
    },
    {
      "channel": 2,
      "note": 40,
      "start": 24.4963,
      "duration": 0.0109,
      "velocity": 114,
      "chip": "ym2612"
    },
    {
      "channel": 5,
      "note": 77,
      "start": 24.506,
      "duration": 0.0123,
      "velocity": 103,
      "chip": "ym2612"
    },
    {
      "channel": 2,
      "note": 40,
      "start": 24.5073,
      "duration": 0.0128,
      "velocity": 114,
      "chip": "ym2612"
    },
    {
      "channel": 5,
      "note": 65,
      "start": 24.5188,
      "duration": 0.0641,
      "velocity": 103,
      "chip": "ym2612"
    },
    {
      "channel": 2,
      "note": 40,
      "start": 24.5201,
      "duration": 0.0117,
      "velocity": 114,
      "chip": "ym2612"
    },
    {
      "channel": 2,
      "note": 40,
      "start": 24.5318,
      "duration": 0.0125,
      "velocity": 114,
      "chip": "ym2612"
    },
    {
      "channel": 2,
      "note": 40,
      "start": 24.5442,
      "duration": 0.0121,
      "velocity": 114,
      "chip": "ym2612"
    },
    {
      "channel": 2,
      "note": 40,
      "start": 24.5563,
      "duration": 0.0125,
      "velocity": 114,
      "chip": "ym2612"
    },
    {
      "channel": 2,
      "note": 40,
      "start": 24.5689,
      "duration": 0.0153,
      "velocity": 114,
      "chip": "ym2612"
    },
    {
      "channel": 2,
      "note": 40,
      "start": 24.5841,
      "duration": 0.0101,
      "velocity": 114,
      "chip": "ym2612"
    },
    {
      "channel": 2,
      "note": 40,
      "start": 24.5942,
      "duration": 0.0121,
      "velocity": 114,
      "chip": "ym2612"
    },
    {
      "channel": 2,
      "note": 40,
      "start": 24.6063,
      "duration": 0.0137,
      "velocity": 114,
      "chip": "ym2612"
    },
    {
      "channel": 5,
      "note": 65,
      "start": 24.6187,
      "duration": 0.0994,
      "velocity": 103,
      "chip": "ym2612"
    },
    {
      "channel": 2,
      "note": 39,
      "start": 24.62,
      "duration": 0.0117,
      "velocity": 114,
      "chip": "ym2612"
    },
    {
      "channel": 0,
      "note": 65,
      "start": 24.6798,
      "duration": 0.0619,
      "velocity": 103,
      "chip": "ym2612"
    },
    {
      "channel": 1,
      "note": 53,
      "start": 24.6812,
      "duration": 0.0613,
      "velocity": 81,
      "chip": "ym2612"
    },
    {
      "channel": 3,
      "note": 83,
      "start": 24.6837,
      "duration": 0.0599,
      "velocity": 106,
      "chip": "ym2612"
    },
    {
      "channel": 4,
      "note": 83,
      "start": 24.6852,
      "duration": 0.0599,
      "velocity": 106,
      "chip": "ym2612"
    },
    {
      "channel": 2,
      "note": 40,
      "start": 24.6881,
      "duration": 0.006,
      "velocity": 114,
      "chip": "ym2612"
    },
    {
      "channel": 2,
      "note": 40,
      "start": 24.6942,
      "duration": 0.0122,
      "velocity": 114,
      "chip": "ym2612"
    },
    {
      "channel": 2,
      "note": 40,
      "start": 24.7063,
      "duration": 0.0134,
      "velocity": 114,
      "chip": "ym2612"
    },
    {
      "channel": 2,
      "note": 40,
      "start": 24.7198,
      "duration": 0.0116,
      "velocity": 114,
      "chip": "ym2612"
    },
    {
      "channel": 2,
      "note": 40,
      "start": 24.7314,
      "duration": 0.0153,
      "velocity": 114,
      "chip": "ym2612"
    },
    {
      "channel": 2,
      "note": 40,
      "start": 24.7467,
      "duration": 0.0097,
      "velocity": 114,
      "chip": "ym2612"
    },
    {
      "channel": 2,
      "note": 40,
      "start": 24.7564,
      "duration": 0.0128,
      "velocity": 114,
      "chip": "ym2612"
    },
    {
      "channel": 2,
      "note": 40,
      "start": 24.7692,
      "duration": 0.0174,
      "velocity": 114,
      "chip": "ym2612"
    },
    {
      "channel": 0,
      "note": 65,
      "start": 24.7798,
      "duration": 0.0995,
      "velocity": 103,
      "chip": "ym2612"
    },
    {
      "channel": 1,
      "note": 53,
      "start": 24.7812,
      "duration": 0.0989,
      "velocity": 81,
      "chip": "ym2612"
    },
    {
      "channel": 3,
      "note": 83,
      "start": 24.7837,
      "duration": 0.0975,
      "velocity": 106,
      "chip": "ym2612"
    },
    {
      "channel": 4,
      "note": 83,
      "start": 24.7852,
      "duration": 0.0969,
      "velocity": 106,
      "chip": "ym2612"
    },
    {
      "channel": 2,
      "note": 41,
      "start": 24.7983,
      "duration": 0.19,
      "velocity": 122,
      "chip": "ym2612"
    },
    {
      "channel": 5,
      "note": 65,
      "start": 24.8187,
      "duration": 0.0643,
      "velocity": 103,
      "chip": "ym2612"
    },
    {
      "channel": 5,
      "note": 65,
      "start": 24.9187,
      "duration": 0.1005,
      "velocity": 103,
      "chip": "ym2612"
    },
    {
      "channel": 0,
      "note": 65,
      "start": 24.9798,
      "duration": 0.0627,
      "velocity": 103,
      "chip": "ym2612"
    },
    {
      "channel": 1,
      "note": 53,
      "start": 24.9812,
      "duration": 0.062,
      "velocity": 81,
      "chip": "ym2612"
    },
    {
      "channel": 3,
      "note": 83,
      "start": 24.9837,
      "duration": 0.0613,
      "velocity": 106,
      "chip": "ym2612"
    },
    {
      "channel": 4,
      "note": 83,
      "start": 24.9852,
      "duration": 0.0606,
      "velocity": 106,
      "chip": "ym2612"
    },
    {
      "channel": 2,
      "note": 40,
      "start": 24.991,
      "duration": 0.0043,
      "velocity": 114,
      "chip": "ym2612"
    },
    {
      "channel": 2,
      "note": 40,
      "start": 24.9953,
      "duration": 0.0119,
      "velocity": 114,
      "chip": "ym2612"
    },
    {
      "channel": 2,
      "note": 40,
      "start": 25.0072,
      "duration": 0.0137,
      "velocity": 114,
      "chip": "ym2612"
    },
    {
      "channel": 5,
      "note": 65,
      "start": 25.0193,
      "duration": 0.0121,
      "velocity": 103,
      "chip": "ym2612"
    },
    {
      "channel": 2,
      "note": 40,
      "start": 25.0209,
      "duration": 0.0118,
      "velocity": 114,
      "chip": "ym2612"
    },
    {
      "channel": 2,
      "note": 40,
      "start": 25.0327,
      "duration": 0.0147,
      "velocity": 114,
      "chip": "ym2612"
    },
    {
      "channel": 2,
      "note": 40,
      "start": 25.0474,
      "duration": 0.0097,
      "velocity": 114,
      "chip": "ym2612"
    },
    {
      "channel": 2,
      "note": 40,
      "start": 25.0571,
      "duration": 0.0125,
      "velocity": 114,
      "chip": "ym2612"
    },
    {
      "channel": 2,
      "note": 40,
      "start": 25.0696,
      "duration": 0.0177,
      "velocity": 114,
      "chip": "ym2612"
    },
    {
      "channel": 0,
      "note": 65,
      "start": 25.0804,
      "duration": 0.0497,
      "velocity": 103,
      "chip": "ym2612"
    },
    {
      "channel": 1,
      "note": 53,
      "start": 25.0818,
      "duration": 0.1112,
      "velocity": 81,
      "chip": "ym2612"
    },
    {
      "channel": 3,
      "note": 83,
      "start": 25.0844,
      "duration": 0.1104,
      "velocity": 106,
      "chip": "ym2612"
    },
    {
      "channel": 4,
      "note": 83,
      "start": 25.0859,
      "duration": 0.1098,
      "velocity": 106,
      "chip": "ym2612"
    },
    {
      "channel": 2,
      "note": 40,
      "start": 25.0961,
      "duration": 0.011,
      "velocity": 114,
      "chip": "ym2612"
    },
    {
      "channel": 2,
      "note": 40,
      "start": 25.107,
      "duration": 0.0125,
      "velocity": 114,
      "chip": "ym2612"
    },
    {
      "channel": 2,
      "note": 40,
      "start": 25.1195,
      "duration": 0.0149,
      "velocity": 114,
      "chip": "ym2612"
    },
    {
      "channel": 0,
      "note": 65,
      "start": 25.1301,
      "duration": 0.0621,
      "velocity": 103,
      "chip": "ym2612"
    },
    {
      "channel": 5,
      "note": 65,
      "start": 25.1328,
      "duration": 0.0637,
      "velocity": 103,
      "chip": "ym2612"
    },
    {
      "channel": 2,
      "note": 40,
      "start": 25.1344,
      "duration": 0.0107,
      "velocity": 114,
      "chip": "ym2612"
    },
    {
      "channel": 2,
      "note": 40,
      "start": 25.1451,
      "duration": 0.0119,
      "velocity": 114,
      "chip": "ym2612"
    },
    {
      "channel": 2,
      "note": 40,
      "start": 25.157,
      "duration": 0.0125,
      "velocity": 114,
      "chip": "ym2612"
    },
    {
      "channel": 2,
      "note": 40,
      "start": 25.1694,
      "duration": 0.0125,
      "velocity": 114,
      "chip": "ym2612"
    },
    {
      "channel": 2,
      "note": 40,
      "start": 25.1819,
      "duration": 0.0158,
      "velocity": 114,
      "chip": "ym2612"
    },
    {
      "channel": 2,
      "note": 40,
      "start": 25.1977,
      "duration": 0.0092,
      "velocity": 114,
      "chip": "ym2612"
    },
    {
      "channel": 2,
      "note": 40,
      "start": 25.2069,
      "duration": 0.0125,
      "velocity": 114,
      "chip": "ym2612"
    },
    {
      "channel": 2,
      "note": 39,
      "start": 25.2194,
      "duration": 0.0136,
      "velocity": 114,
      "chip": "ym2612"
    },
    {
      "channel": 5,
      "note": 65,
      "start": 25.2317,
      "duration": 0.0372,
      "velocity": 103,
      "chip": "ym2612"
    },
    {
      "channel": 5,
      "note": 65,
      "start": 25.2689,
      "duration": 0.0621,
      "velocity": 103,
      "chip": "ym2612"
    },
    {
      "channel": 0,
      "note": 65,
      "start": 25.2927,
      "duration": 0.0618,
      "velocity": 103,
      "chip": "ym2612"
    },
    {
      "channel": 1,
      "note": 53,
      "start": 25.2944,
      "duration": 0.0609,
      "velocity": 81,
      "chip": "ym2612"
    },
    {
      "channel": 3,
      "note": 83,
      "start": 25.2972,
      "duration": 0.0593,
      "velocity": 106,
      "chip": "ym2612"
    },
    {
      "channel": 4,
      "note": 83,
      "start": 25.2987,
      "duration": 0.0586,
      "velocity": 106,
      "chip": "ym2612"
    },
    {
      "channel": 2,
      "note": 40,
      "start": 25.3017,
      "duration": 0.0051,
      "velocity": 114,
      "chip": "ym2612"
    },
    {
      "channel": 2,
      "note": 40,
      "start": 25.3068,
      "duration": 0.0125,
      "velocity": 114,
      "chip": "ym2612"
    },
    {
      "channel": 2,
      "note": 40,
      "start": 25.3193,
      "duration": 0.0134,
      "velocity": 114,
      "chip": "ym2612"
    },
    {
      "channel": 2,
      "note": 40,
      "start": 25.3327,
      "duration": 0.0121,
      "velocity": 114,
      "chip": "ym2612"
    },
    {
      "channel": 2,
      "note": 40,
      "start": 25.3448,
      "duration": 0.0141,
      "velocity": 114,
      "chip": "ym2612"
    },
    {
      "channel": 2,
      "note": 40,
      "start": 25.3589,
      "duration": 0.0102,
      "velocity": 114,
      "chip": "ym2612"
    },
    {
      "channel": 2,
      "note": 40,
      "start": 25.3692,
      "duration": 0.0129,
      "velocity": 114,
      "chip": "ym2612"
    },
    {
      "channel": 2,
      "note": 40,
      "start": 25.382,
      "duration": 0.0179,
      "velocity": 114,
      "chip": "ym2612"
    },
    {
      "channel": 0,
      "note": 65,
      "start": 25.3925,
      "duration": 0.0993,
      "velocity": 103,
      "chip": "ym2612"
    },
    {
      "channel": 1,
      "note": 53,
      "start": 25.3943,
      "duration": 0.0983,
      "velocity": 81,
      "chip": "ym2612"
    },
    {
      "channel": 3,
      "note": 83,
      "start": 25.3971,
      "duration": 0.0968,
      "velocity": 106,
      "chip": "ym2612"
    },
    {
      "channel": 4,
      "note": 83,
      "start": 25.3986,
      "duration": 0.0967,
      "velocity": 106,
      "chip": "ym2612"
    },
    {
      "channel": 2,
      "note": 40,
      "start": 25.4076,
      "duration": 0.0116,
      "velocity": 114,
      "chip": "ym2612"
    },
    {
      "channel": 2,
      "note": 40,
      "start": 25.4192,
      "duration": 0.0136,
      "velocity": 114,
      "chip": "ym2612"
    },
    {
      "channel": 5,
      "note": 65,
      "start": 25.4315,
      "duration": 0.0646,
      "velocity": 103,
      "chip": "ym2612"
    },
    {
      "channel": 2,
      "note": 40,
      "start": 25.4328,
      "duration": 0.0123,
      "velocity": 114,
      "chip": "ym2612"
    },
    {
      "channel": 2,
      "note": 40,
      "start": 25.4451,
      "duration": 0.0115,
      "velocity": 114,
      "chip": "ym2612"
    },
    {
      "channel": 2,
      "note": 40,
      "start": 25.4566,
      "duration": 0.0125,
      "velocity": 114,
      "chip": "ym2612"
    },
    {
      "channel": 2,
      "note": 40,
      "start": 25.469,
      "duration": 0.0125,
      "velocity": 114,
      "chip": "ym2612"
    },
    {
      "channel": 2,
      "note": 40,
      "start": 25.4816,
      "duration": 0.0158,
      "velocity": 114,
      "chip": "ym2612"
    },
    {
      "channel": 2,
      "note": 40,
      "start": 25.4974,
      "duration": 0.0092,
      "velocity": 114,
      "chip": "ym2612"
    },
    {
      "channel": 2,
      "note": 40,
      "start": 25.5065,
      "duration": 0.0128,
      "velocity": 114,
      "chip": "ym2612"
    },
    {
      "channel": 2,
      "note": 40,
      "start": 25.5194,
      "duration": 0.0133,
      "velocity": 114,
      "chip": "ym2612"
    },
    {
      "channel": 5,
      "note": 65,
      "start": 25.5314,
      "duration": 0.1015,
      "velocity": 103,
      "chip": "ym2612"
    },
    {
      "channel": 2,
      "note": 39,
      "start": 25.5327,
      "duration": 0.0116,
      "velocity": 114,
      "chip": "ym2612"
    },
    {
      "channel": 0,
      "note": 65,
      "start": 25.5923,
      "duration": 0.0385,
      "velocity": 103,
      "chip": "ym2612"
    },
    {
      "channel": 1,
      "note": 53,
      "start": 25.5937,
      "duration": 0.0999,
      "velocity": 81,
      "chip": "ym2612"
    },
    {
      "channel": 3,
      "note": 83,
      "start": 25.5968,
      "duration": 0.0986,
      "velocity": 106,
      "chip": "ym2612"
    },
    {
      "channel": 4,
      "note": 83,
      "start": 25.5983,
      "duration": 0.098,
      "velocity": 106,
      "chip": "ym2612"
    },
    {
      "channel": 2,
      "note": 41,
      "start": 25.604,
      "duration": 0.1984,
      "velocity": 122,
      "chip": "ym2612"
    },
    {
      "channel": 0,
      "note": 65,
      "start": 25.6308,
      "duration": 0.062,
      "velocity": 103,
      "chip": "ym2612"
    },
    {
      "channel": 5,
      "note": 65,
      "start": 25.7324,
      "duration": 0.0372,
      "velocity": 103,
      "chip": "ym2612"
    },
    {
      "channel": 5,
      "note": 65,
      "start": 25.7696,
      "duration": 0.0765,
      "velocity": 103,
      "chip": "ym2612"
    },
    {
      "channel": 0,
      "note": 65,
      "start": 25.7934,
      "duration": 0.0885,
      "velocity": 103,
      "chip": "ym2612"
    },
    {
      "channel": 1,
      "note": 53,
      "start": 25.7954,
      "duration": 0.1,
      "velocity": 81,
      "chip": "ym2612"
    },
    {
      "channel": 3,
      "note": 83,
      "start": 25.7979,
      "duration": 0.0987,
      "velocity": 106,
      "chip": "ym2612"
    },
    {
      "channel": 4,
      "note": 83,
      "start": 25.7993,
      "duration": 0.098,
      "velocity": 106,
      "chip": "ym2612"
    },
    {
      "channel": 2,
      "note": 40,
      "start": 25.8052,
      "duration": 0.0036,
      "velocity": 114,
      "chip": "ym2612"
    },
    {
      "channel": 2,
      "note": 40,
      "start": 25.8088,
      "duration": 0.0124,
      "velocity": 114,
      "chip": "ym2612"
    },
    {
      "channel": 2,
      "note": 40,
      "start": 25.8213,
      "duration": 0.0129,
      "velocity": 114,
      "chip": "ym2612"
    },
    {
      "channel": 2,
      "note": 40,
      "start": 25.8341,
      "duration": 0.0133,
      "velocity": 114,
      "chip": "ym2612"
    },
    {
      "channel": 2,
      "note": 40,
      "start": 25.8474,
      "duration": 0.0113,
      "velocity": 114,
      "chip": "ym2612"
    },
    {
      "channel": 2,
      "note": 40,
      "start": 25.8588,
      "duration": 0.0125,
      "velocity": 114,
      "chip": "ym2612"
    },
    {
      "channel": 2,
      "note": 40,
      "start": 25.8712,
      "duration": 0.0134,
      "velocity": 114,
      "chip": "ym2612"
    },
    {
      "channel": 0,
      "note": 65,
      "start": 25.8818,
      "duration": 0.0125,
      "velocity": 103,
      "chip": "ym2612"
    },
    {
      "channel": 2,
      "note": 40,
      "start": 25.8846,
      "duration": 0.0144,
      "velocity": 114,
      "chip": "ym2612"
    },
    {
      "channel": 2,
      "note": 40,
      "start": 25.899,
      "duration": 0.0097,
      "velocity": 114,
      "chip": "ym2612"
    },
    {
      "channel": 2,
      "note": 40,
      "start": 25.9087,
      "duration": 0.0125,
      "velocity": 114,
      "chip": "ym2612"
    },
    {
      "channel": 2,
      "note": 39,
      "start": 25.9212,
      "duration": 0.0124,
      "velocity": 114,
      "chip": "ym2612"
    },
    {
      "channel": 5,
      "note": 65,
      "start": 25.9466,
      "duration": 0.0741,
      "velocity": 103,
      "chip": "ym2612"
    },
    {
      "channel": 0,
      "note": 65,
      "start": 26.007,
      "duration": 0.0493,
      "velocity": 103,
      "chip": "ym2612"
    },
    {
      "channel": 1,
      "note": 53,
      "start": 26.0084,
      "duration": 0.0488,
      "velocity": 81,
      "chip": "ym2612"
    },
    {
      "channel": 3,
      "note": 83,
      "start": 26.0115,
      "duration": 0.0468,
      "velocity": 106,
      "chip": "ym2612"
    },
    {
      "channel": 4,
      "note": 83,
      "start": 26.0129,
      "duration": 0.0462,
      "velocity": 106,
      "chip": "ym2612"
    },
    {
      "channel": 2,
      "note": 40,
      "start": 26.0159,
      "duration": 0.006,
      "velocity": 114,
      "chip": "ym2612"
    },
    {
      "channel": 5,
      "note": 65,
      "start": 26.0207,
      "duration": 0.0252,
      "velocity": 103,
      "chip": "ym2612"
    },
    {
      "channel": 2,
      "note": 40,
      "start": 26.0219,
      "duration": 0.0117,
      "velocity": 114,
      "chip": "ym2612"
    },
    {
      "channel": 2,
      "note": 40,
      "start": 26.0336,
      "duration": 0.014,
      "velocity": 114,
      "chip": "ym2612"
    },
    {
      "channel": 2,
      "note": 40,
      "start": 26.0476,
      "duration": 0.0135,
      "velocity": 114,
      "chip": "ym2612"
    },
    {
      "channel": 2,
      "note": 40,
      "start": 26.061,
      "duration": 0.0099,
      "velocity": 114,
      "chip": "ym2612"
    },
    {
      "channel": 2,
      "note": 40,
      "start": 26.071,
      "duration": 0.0125,
      "velocity": 114,
      "chip": "ym2612"
    },
    {
      "channel": 2,
      "note": 40,
      "start": 26.0835,
      "duration": 0.013,
      "velocity": 114,
      "chip": "ym2612"
    },
    {
      "channel": 2,
      "note": 40,
      "start": 26.0965,
      "duration": 0.0178,
      "velocity": 114,
      "chip": "ym2612"
    },
    {
      "channel": 0,
      "note": 65,
      "start": 26.1068,
      "duration": 0.0247,
      "velocity": 103,
      "chip": "ym2612"
    },
    {
      "channel": 1,
      "note": 53,
      "start": 26.1082,
      "duration": 0.0987,
      "velocity": 81,
      "chip": "ym2612"
    },
    {
      "channel": 3,
      "note": 83,
      "start": 26.1112,
      "duration": 0.097,
      "velocity": 106,
      "chip": "ym2612"
    },
    {
      "channel": 4,
      "note": 83,
      "start": 26.1128,
      "duration": 0.0961,
      "velocity": 106,
      "chip": "ym2612"
    },
    {
      "channel": 2,
      "note": 41,
      "start": 26.1247,
      "duration": 0.191,
      "velocity": 122,
      "chip": "ym2612"
    },
    {
      "channel": 0,
      "note": 65,
      "start": 26.1315,
      "duration": 0.0746,
      "velocity": 103,
      "chip": "ym2612"
    },
    {
      "channel": 5,
      "note": 65,
      "start": 26.1464,
      "duration": 0.0634,
      "velocity": 103,
      "chip": "ym2612"
    },
    {
      "channel": 5,
      "note": 65,
      "start": 26.2462,
      "duration": 0.0242,
      "velocity": 103,
      "chip": "ym2612"
    },
    {
      "channel": 5,
      "note": 65,
      "start": 26.2704,
      "duration": 0.0765,
      "velocity": 103,
      "chip": "ym2612"
    },
    {
      "channel": 0,
      "note": 65,
      "start": 26.3065,
      "duration": 0.0635,
      "velocity": 103,
      "chip": "ym2612"
    },
    {
      "channel": 1,
      "note": 53,
      "start": 26.308,
      "duration": 0.063,
      "velocity": 81,
      "chip": "ym2612"
    },
    {
      "channel": 3,
      "note": 83,
      "start": 26.3108,
      "duration": 0.0613,
      "velocity": 106,
      "chip": "ym2612"
    },
    {
      "channel": 4,
      "note": 83,
      "start": 26.3126,
      "duration": 0.0604,
      "velocity": 106,
      "chip": "ym2612"
    },
    {
      "channel": 2,
      "note": 40,
      "start": 26.3184,
      "duration": 0.0036,
      "velocity": 114,
      "chip": "ym2612"
    },
    {
      "channel": 2,
      "note": 40,
      "start": 26.322,
      "duration": 0.0125,
      "velocity": 114,
      "chip": "ym2612"
    },
    {
      "channel": 2,
      "note": 40,
      "start": 26.3345,
      "duration": 0.014,
      "velocity": 114,
      "chip": "ym2612"
    },
    {
      "channel": 2,
      "note": 40,
      "start": 26.3485,
      "duration": 0.0113,
      "velocity": 114,
      "chip": "ym2612"
    },
    {
      "channel": 2,
      "note": 40,
      "start": 26.3598,
      "duration": 0.0147,
      "velocity": 114,
      "chip": "ym2612"
    },
    {
      "channel": 2,
      "note": 40,
      "start": 26.3745,
      "duration": 0.0106,
      "velocity": 114,
      "chip": "ym2612"
    },
    {
      "channel": 2,
      "note": 40,
      "start": 26.3851,
      "duration": 0.0126,
      "velocity": 114,
      "chip": "ym2612"
    },
    {
      "channel": 2,
      "note": 40,
      "start": 26.3977,
      "duration": 0.018,
      "velocity": 114,
      "chip": "ym2612"
    },
    {
      "channel": 0,
      "note": 65,
      "start": 26.4083,
      "duration": 0.0995,
      "velocity": 103,
      "chip": "ym2612"
    },
    {
      "channel": 1,
      "note": 53,
      "start": 26.4098,
      "duration": 0.0995,
      "velocity": 81,
      "chip": "ym2612"
    },
    {
      "channel": 3,
      "note": 83,
      "start": 26.4129,
      "duration": 0.0995,
      "velocity": 106,
      "chip": "ym2612"
    },
    {
      "channel": 4,
      "note": 83,
      "start": 26.4144,
      "duration": 0.0995,
      "velocity": 106,
      "chip": "ym2612"
    },
    {
      "channel": 2,
      "note": 40,
      "start": 26.4234,
      "duration": 0.0115,
      "velocity": 114,
      "chip": "ym2612"
    },
    {
      "channel": 2,
      "note": 40,
      "start": 26.4349,
      "duration": 0.014,
      "velocity": 114,
      "chip": "ym2612"
    },
    {
      "channel": 5,
      "note": 65,
      "start": 26.4476,
      "duration": 0.0676,
      "velocity": 103,
      "chip": "ym2612"
    },
    {
      "channel": 2,
      "note": 40,
      "start": 26.4489,
      "duration": 0.0115,
      "velocity": 114,
      "chip": "ym2612"
    },
    {
      "channel": 2,
      "note": 40,
      "start": 26.4603,
      "duration": 0.0121,
      "velocity": 114,
      "chip": "ym2612"
    },
    {
      "channel": 2,
      "note": 40,
      "start": 26.4724,
      "duration": 0.0125,
      "velocity": 114,
      "chip": "ym2612"
    },
    {
      "channel": 2,
      "note": 40,
      "start": 26.4849,
      "duration": 0.0128,
      "velocity": 114,
      "chip": "ym2612"
    },
    {
      "channel": 2,
      "note": 40,
      "start": 26.4977,
      "duration": 0.0186,
      "velocity": 114,
      "chip": "ym2612"
    },
    {
      "channel": 0,
      "note": 65,
      "start": 26.5083,
      "duration": 0.0995,
      "velocity": 103,
      "chip": "ym2612"
    },
    {
      "channel": 1,
      "note": 59,
      "start": 26.5098,
      "duration": 0.0995,
      "velocity": 81,
      "chip": "ym2612"
    },
    {
      "channel": 3,
      "note": 83,
      "start": 26.5129,
      "duration": 0.0995,
      "velocity": 106,
      "chip": "ym2612"
    },
    {
      "channel": 4,
      "note": 83,
      "start": 26.5143,
      "duration": 0.0995,
      "velocity": 106,
      "chip": "ym2612"
    },
    {
      "channel": 2,
      "note": 40,
      "start": 26.5238,
      "duration": 0.0111,
      "velocity": 114,
      "chip": "ym2612"
    },
    {
      "channel": 2,
      "note": 40,
      "start": 26.5349,
      "duration": 0.014,
      "velocity": 114,
      "chip": "ym2612"
    },
    {
      "channel": 5,
      "note": 65,
      "start": 26.5476,
      "duration": 0.1117,
      "velocity": 103,
      "chip": "ym2612"
    },
    {
      "channel": 2,
      "note": 40,
      "start": 26.5489,
      "duration": 0.0115,
      "velocity": 114,
      "chip": "ym2612"
    },
    {
      "channel": 2,
      "note": 40,
      "start": 26.5603,
      "duration": 0.0121,
      "velocity": 114,
      "chip": "ym2612"
    },
    {
      "channel": 2,
      "note": 40,
      "start": 26.5724,
      "duration": 0.0125,
      "velocity": 114,
      "chip": "ym2612"
    },
    {
      "channel": 2,
      "note": 40,
      "start": 26.5849,
      "duration": 0.0128,
      "velocity": 114,
      "chip": "ym2612"
    },
    {
      "channel": 2,
      "note": 40,
      "start": 26.5977,
      "duration": 0.018,
      "velocity": 114,
      "chip": "ym2612"
    },
    {
      "channel": 0,
      "note": 65,
      "start": 26.6083,
      "duration": 0.0247,
      "velocity": 103,
      "chip": "ym2612"
    },
    {
      "channel": 1,
      "note": 65,
      "start": 26.6098,
      "duration": 0.0995,
      "velocity": 81,
      "chip": "ym2612"
    },
    {
      "channel": 3,
      "note": 83,
      "start": 26.6129,
      "duration": 0.0995,
      "velocity": 106,
      "chip": "ym2612"
    },
    {
      "channel": 4,
      "note": 83,
      "start": 26.6143,
      "duration": 0.0995,
      "velocity": 106,
      "chip": "ym2612"
    },
    {
      "channel": 2,
      "note": 40,
      "start": 26.6234,
      "duration": 0.0124,
      "velocity": 114,
      "chip": "ym2612"
    },
    {
      "channel": 0,
      "note": 65,
      "start": 26.633,
      "duration": 0.0748,
      "velocity": 103,
      "chip": "ym2612"
    },
    {
      "channel": 2,
      "note": 40,
      "start": 26.6358,
      "duration": 0.012,
      "velocity": 114,
      "chip": "ym2612"
    },
    {
      "channel": 2,
      "note": 40,
      "start": 26.6477,
      "duration": 0.0143,
      "velocity": 114,
      "chip": "ym2612"
    },
    {
      "channel": 5,
      "note": 65,
      "start": 26.6598,
      "duration": 0.0995,
      "velocity": 103,
      "chip": "ym2612"
    },
    {
      "channel": 2,
      "note": 40,
      "start": 26.6621,
      "duration": 0.0104,
      "velocity": 114,
      "chip": "ym2612"
    },
    {
      "channel": 2,
      "note": 40,
      "start": 26.6724,
      "duration": 0.0125,
      "velocity": 114,
      "chip": "ym2612"
    },
    {
      "channel": 2,
      "note": 40,
      "start": 26.6849,
      "duration": 0.0128,
      "velocity": 114,
      "chip": "ym2612"
    },
    {
      "channel": 2,
      "note": 40,
      "start": 26.6977,
      "duration": 0.018,
      "velocity": 114,
      "chip": "ym2612"
    },
    {
      "channel": 0,
      "note": 65,
      "start": 26.7083,
      "duration": 0.112,
      "velocity": 103,
      "chip": "ym2612"
    },
    {
      "channel": 1,
      "note": 59,
      "start": 26.7098,
      "duration": 0.1124,
      "velocity": 81,
      "chip": "ym2612"
    },
    {
      "channel": 3,
      "note": 83,
      "start": 26.7129,
      "duration": 0.1121,
      "velocity": 106,
      "chip": "ym2612"
    },
    {
      "channel": 4,
      "note": 83,
      "start": 26.7144,
      "duration": 0.112,
      "velocity": 106,
      "chip": "ym2612"
    },
    {
      "channel": 2,
      "note": 40,
      "start": 26.7234,
      "duration": 0.0115,
      "velocity": 114,
      "chip": "ym2612"
    },
    {
      "channel": 2,
      "note": 40,
      "start": 26.7349,
      "duration": 0.0128,
      "velocity": 114,
      "chip": "ym2612"
    },
    {
      "channel": 2,
      "note": 40,
      "start": 26.7477,
      "duration": 0.0143,
      "velocity": 114,
      "chip": "ym2612"
    },
    {
      "channel": 5,
      "note": 65,
      "start": 26.7598,
      "duration": 0.0123,
      "velocity": 103,
      "chip": "ym2612"
    },
    {
      "channel": 2,
      "note": 40,
      "start": 26.7621,
      "duration": 0.0112,
      "velocity": 114,
      "chip": "ym2612"
    },
    {
      "channel": 5,
      "note": 65,
      "start": 26.7721,
      "duration": 0.0872,
      "velocity": 103,
      "chip": "ym2612"
    },
    {
      "channel": 2,
      "note": 40,
      "start": 26.7733,
      "duration": 0.0116,
      "velocity": 114,
      "chip": "ym2612"
    },
    {
      "channel": 2,
      "note": 40,
      "start": 26.7849,
      "duration": 0.0128,
      "velocity": 114,
      "chip": "ym2612"
    },
    {
      "channel": 2,
      "note": 40,
      "start": 26.7977,
      "duration": 0.0122,
      "velocity": 114,
      "chip": "ym2612"
    },
    {
      "channel": 2,
      "note": 40,
      "start": 26.81,
      "duration": 0.019,
      "velocity": 114,
      "chip": "ym2612"
    },
    {
      "channel": 0,
      "note": 77,
      "start": 26.8208,
      "duration": 0.0494,
      "velocity": 103,
      "chip": "ym2612"
    },
    {
      "channel": 1,
      "note": 53,
      "start": 26.8227,
      "duration": 0.0484,
      "velocity": 81,
      "chip": "ym2612"
    },
    {
      "channel": 3,
      "note": 83,
      "start": 26.8254,
      "duration": 0.0468,
      "velocity": 106,
      "chip": "ym2612"
    },
    {
      "channel": 4,
      "note": 83,
      "start": 26.8269,
      "duration": 0.0462,
      "velocity": 106,
      "chip": "ym2612"
    },
    {
      "channel": 2,
      "note": 40,
      "start": 26.8359,
      "duration": 0.0119,
      "velocity": 114,
      "chip": "ym2612"
    },
    {
      "channel": 2,
      "note": 40,
      "start": 26.8477,
      "duration": 0.0139,
      "velocity": 114,
      "chip": "ym2612"
    },
    {
      "channel": 5,
      "note": 65,
      "start": 26.8598,
      "duration": 0.0995,
      "velocity": 103,
      "chip": "ym2612"
    },
    {
      "channel": 2,
      "note": 40,
      "start": 26.8617,
      "duration": 0.0134,
      "velocity": 114,
      "chip": "ym2612"
    },
    {
      "channel": 2,
      "note": 40,
      "start": 26.875,
      "duration": 0.0102,
      "velocity": 114,
      "chip": "ym2612"
    },
    {
      "channel": 2,
      "note": 40,
      "start": 26.8853,
      "duration": 0.0124,
      "velocity": 114,
      "chip": "ym2612"
    },
    {
      "channel": 2,
      "note": 40,
      "start": 26.8977,
      "duration": 0.0122,
      "velocity": 114,
      "chip": "ym2612"
    },
    {
      "channel": 2,
      "note": 40,
      "start": 26.91,
      "duration": 0.0183,
      "velocity": 114,
      "chip": "ym2612"
    },
    {
      "channel": 0,
      "note": 77,
      "start": 26.9208,
      "duration": 0.0994,
      "velocity": 103,
      "chip": "ym2612"
    },
    {
      "channel": 1,
      "note": 53,
      "start": 26.9222,
      "duration": 0.0988,
      "velocity": 81,
      "chip": "ym2612"
    },
    {
      "channel": 3,
      "note": 83,
      "start": 26.9248,
      "duration": 0.0974,
      "velocity": 106,
      "chip": "ym2612"
    },
    {
      "channel": 4,
      "note": 83,
      "start": 26.9262,
      "duration": 0.0968,
      "velocity": 106,
      "chip": "ym2612"
    },
    {
      "channel": 2,
      "note": 40,
      "start": 26.9359,
      "duration": 0.0118,
      "velocity": 114,
      "chip": "ym2612"
    },
    {
      "channel": 2,
      "note": 40,
      "start": 26.9477,
      "duration": 0.0139,
      "velocity": 114,
      "chip": "ym2612"
    },
    {
      "channel": 5,
      "note": 77,
      "start": 26.9598,
      "duration": 0.0642,
      "velocity": 103,
      "chip": "ym2612"
    },
    {
      "channel": 2,
      "note": 40,
      "start": 26.9617,
      "duration": 0.0111,
      "velocity": 114,
      "chip": "ym2612"
    },
    {
      "channel": 2,
      "note": 40,
      "start": 26.9728,
      "duration": 0.0121,
      "velocity": 114,
      "chip": "ym2612"
    },
    {
      "channel": 2,
      "note": 40,
      "start": 26.9849,
      "duration": 0.0128,
      "velocity": 114,
      "chip": "ym2612"
    },
    {
      "channel": 2,
      "note": 40,
      "start": 26.9977,
      "duration": 0.0122,
      "velocity": 114,
      "chip": "ym2612"
    },
    {
      "channel": 2,
      "note": 40,
      "start": 27.01,
      "duration": 0.0153,
      "velocity": 114,
      "chip": "ym2612"
    },
    {
      "channel": 2,
      "note": 40,
      "start": 27.0252,
      "duration": 0.0098,
      "velocity": 114,
      "chip": "ym2612"
    },
    {
      "channel": 2,
      "note": 40,
      "start": 27.035,
      "duration": 0.0128,
      "velocity": 114,
      "chip": "ym2612"
    },
    {
      "channel": 2,
      "note": 40,
      "start": 27.0477,
      "duration": 0.0139,
      "velocity": 114,
      "chip": "ym2612"
    },
    {
      "channel": 5,
      "note": 77,
      "start": 27.0598,
      "duration": 0.0994,
      "velocity": 103,
      "chip": "ym2612"
    },
    {
      "channel": 2,
      "note": 39,
      "start": 27.0617,
      "duration": 0.0107,
      "velocity": 114,
      "chip": "ym2612"
    },
    {
      "channel": 0,
      "note": 77,
      "start": 27.1208,
      "duration": 0.0122,
      "velocity": 103,
      "chip": "ym2612"
    },
    {
      "channel": 1,
      "note": 53,
      "start": 27.1222,
      "duration": 0.0613,
      "velocity": 81,
      "chip": "ym2612"
    },
    {
      "channel": 3,
      "note": 83,
      "start": 27.1248,
      "duration": 0.06,
      "velocity": 106,
      "chip": "ym2612"
    },
    {
      "channel": 4,
      "note": 83,
      "start": 27.1262,
      "duration": 0.0594,
      "velocity": 106,
      "chip": "ym2612"
    },
    {
      "channel": 2,
      "note": 40,
      "start": 27.1298,
      "duration": 0.0061,
      "velocity": 114,
      "chip": "ym2612"
    },
    {
      "channel": 0,
      "note": 77,
      "start": 27.133,
      "duration": 0.0497,
      "velocity": 103,
      "chip": "ym2612"
    },
    {
      "channel": 2,
      "note": 40,
      "start": 27.1359,
      "duration": 0.0119,
      "velocity": 114,
      "chip": "ym2612"
    },
    {
      "channel": 2,
      "note": 40,
      "start": 27.1477,
      "duration": 0.0137,
      "velocity": 114,
      "chip": "ym2612"
    },
    {
      "channel": 2,
      "note": 40,
      "start": 27.1615,
      "duration": 0.011,
      "velocity": 114,
      "chip": "ym2612"
    },
    {
      "channel": 2,
      "note": 40,
      "start": 27.1724,
      "duration": 0.0148,
      "velocity": 114,
      "chip": "ym2612"
    },
    {
      "channel": 2,
      "note": 40,
      "start": 27.1872,
      "duration": 0.0105,
      "velocity": 114,
      "chip": "ym2612"
    },
    {
      "channel": 2,
      "note": 40,
      "start": 27.1977,
      "duration": 0.0122,
      "velocity": 114,
      "chip": "ym2612"
    },
    {
      "channel": 2,
      "note": 40,
      "start": 27.21,
      "duration": 0.0183,
      "velocity": 114,
      "chip": "ym2612"
    },
    {
      "channel": 0,
      "note": 77,
      "start": 27.2208,
      "duration": 0.0994,
      "velocity": 103,
      "chip": "ym2612"
    },
    {
      "channel": 1,
      "note": 53,
      "start": 27.2222,
      "duration": 0.0988,
      "velocity": 81,
      "chip": "ym2612"
    },
    {
      "channel": 3,
      "note": 83,
      "start": 27.2248,
      "duration": 0.0974,
      "velocity": 106,
      "chip": "ym2612"
    },
    {
      "channel": 4,
      "note": 83,
      "start": 27.2262,
      "duration": 0.0968,
      "velocity": 106,
      "chip": "ym2612"
    },
    {
      "channel": 2,
      "note": 41,
      "start": 27.2387,
      "duration": 0.1912,
      "velocity": 122,
      "chip": "ym2612"
    },
    {
      "channel": 5,
      "note": 77,
      "start": 27.2598,
      "duration": 0.0123,
      "velocity": 103,
      "chip": "ym2612"
    },
    {
      "channel": 5,
      "note": 77,
      "start": 27.2721,
      "duration": 0.0518,
      "velocity": 103,
      "chip": "ym2612"
    },
    {
      "channel": 5,
      "note": 77,
      "start": 27.3598,
      "duration": 0.1132,
      "velocity": 103,
      "chip": "ym2612"
    },
    {
      "channel": 0,
      "note": 77,
      "start": 27.4208,
      "duration": 0.0632,
      "velocity": 103,
      "chip": "ym2612"
    },
    {
      "channel": 1,
      "note": 53,
      "start": 27.4222,
      "duration": 0.0627,
      "velocity": 81,
      "chip": "ym2612"
    },
    {
      "channel": 3,
      "note": 83,
      "start": 27.4248,
      "duration": 0.0612,
      "velocity": 106,
      "chip": "ym2612"
    },
    {
      "channel": 4,
      "note": 83,
      "start": 27.4262,
      "duration": 0.0606,
      "velocity": 106,
      "chip": "ym2612"
    },
    {
      "channel": 2,
      "note": 40,
      "start": 27.4327,
      "duration": 0.0036,
      "velocity": 114,
      "chip": "ym2612"
    },
    {
      "channel": 2,
      "note": 40,
      "start": 27.4363,
      "duration": 0.0125,
      "velocity": 114,
      "chip": "ym2612"
    },
    {
      "channel": 2,
      "note": 40,
      "start": 27.4488,
      "duration": 0.0135,
      "velocity": 114,
      "chip": "ym2612"
    },
    {
      "channel": 2,
      "note": 40,
      "start": 27.4622,
      "duration": 0.012,
      "velocity": 114,
      "chip": "ym2612"
    },
    {
      "channel": 2,
      "note": 40,
      "start": 27.4743,
      "duration": 0.0142,
      "velocity": 114,
      "chip": "ym2612"
    },
    {
      "channel": 2,
      "note": 40,
      "start": 27.4885,
      "duration": 0.0102,
      "velocity": 114,
      "chip": "ym2612"
    },
    {
      "channel": 2,
      "note": 40,
      "start": 27.4987,
      "duration": 0.0131,
      "velocity": 114,
      "chip": "ym2612"
    },
    {
      "channel": 2,
      "note": 40,
      "start": 27.5118,
      "duration": 0.0181,
      "velocity": 114,
      "chip": "ym2612"
    },
    {
      "channel": 0,
      "note": 77,
      "start": 27.522,
      "duration": 0.1119,
      "velocity": 103,
      "chip": "ym2612"
    },
    {
      "channel": 1,
      "note": 53,
      "start": 27.5235,
      "duration": 0.1112,
      "velocity": 81,
      "chip": "ym2612"
    },
    {
      "channel": 3,
      "note": 83,
      "start": 27.5261,
      "duration": 0.1099,
      "velocity": 106,
      "chip": "ym2612"
    },
    {
      "channel": 4,
      "note": 83,
      "start": 27.5281,
      "duration": 0.1086,
      "velocity": 106,
      "chip": "ym2612"
    },
    {
      "channel": 2,
      "note": 40,
      "start": 27.5371,
      "duration": 0.0115,
      "velocity": 114,
      "chip": "ym2612"
    },
    {
      "channel": 2,
      "note": 40,
      "start": 27.5486,
      "duration": 0.0131,
      "velocity": 114,
      "chip": "ym2612"
    },
    {
      "channel": 2,
      "note": 40,
      "start": 27.5617,
      "duration": 0.0134,
      "velocity": 114,
      "chip": "ym2612"
    },
    {
      "channel": 5,
      "note": 77,
      "start": 27.5735,
      "duration": 0.0641,
      "velocity": 103,
      "chip": "ym2612"
    },
    {
      "channel": 2,
      "note": 40,
      "start": 27.5752,
      "duration": 0.0109,
      "velocity": 114,
      "chip": "ym2612"
    },
    {
      "channel": 2,
      "note": 40,
      "start": 27.5861,
      "duration": 0.0125,
      "velocity": 114,
      "chip": "ym2612"
    },
    {
      "channel": 2,
      "note": 40,
      "start": 27.5986,
      "duration": 0.0131,
      "velocity": 114,
      "chip": "ym2612"
    },
    {
      "channel": 2,
      "note": 40,
      "start": 27.6117,
      "duration": 0.0119,
      "velocity": 114,
      "chip": "ym2612"
    },
    {
      "channel": 2,
      "note": 40,
      "start": 27.6236,
      "duration": 0.0153,
      "velocity": 114,
      "chip": "ym2612"
    },
    {
      "channel": 2,
      "note": 40,
      "start": 27.6388,
      "duration": 0.0097,
      "velocity": 114,
      "chip": "ym2612"
    },
    {
      "channel": 2,
      "note": 40,
      "start": 27.6485,
      "duration": 0.0131,
      "velocity": 114,
      "chip": "ym2612"
    },
    {
      "channel": 2,
      "note": 39,
      "start": 27.6616,
      "duration": 0.013,
      "velocity": 114,
      "chip": "ym2612"
    },
    {
      "channel": 5,
      "note": 77,
      "start": 27.6734,
      "duration": 0.0994,
      "velocity": 103,
      "chip": "ym2612"
    },
    {
      "channel": 0,
      "note": 77,
      "start": 27.7343,
      "duration": 0.0617,
      "velocity": 103,
      "chip": "ym2612"
    },
    {
      "channel": 1,
      "note": 53,
      "start": 27.7357,
      "duration": 0.0613,
      "velocity": 81,
      "chip": "ym2612"
    },
    {
      "channel": 3,
      "note": 83,
      "start": 27.7383,
      "duration": 0.0599,
      "velocity": 106,
      "chip": "ym2612"
    },
    {
      "channel": 4,
      "note": 83,
      "start": 27.7397,
      "duration": 0.0592,
      "velocity": 106,
      "chip": "ym2612"
    },
    {
      "channel": 2,
      "note": 40,
      "start": 27.7427,
      "duration": 0.0056,
      "velocity": 114,
      "chip": "ym2612"
    },
    {
      "channel": 2,
      "note": 40,
      "start": 27.7484,
      "duration": 0.0131,
      "velocity": 114,
      "chip": "ym2612"
    },
    {
      "channel": 2,
      "note": 40,
      "start": 27.7615,
      "duration": 0.0129,
      "velocity": 114,
      "chip": "ym2612"
    },
    {
      "channel": 2,
      "note": 40,
      "start": 27.7744,
      "duration": 0.0115,
      "velocity": 114,
      "chip": "ym2612"
    },
    {
      "channel": 2,
      "note": 40,
      "start": 27.7859,
      "duration": 0.0147,
      "velocity": 114,
      "chip": "ym2612"
    },
    {
      "channel": 2,
      "note": 40,
      "start": 27.8005,
      "duration": 0.0106,
      "velocity": 114,
      "chip": "ym2612"
    },
    {
      "channel": 2,
      "note": 40,
      "start": 27.8112,
      "duration": 0.0122,
      "velocity": 114,
      "chip": "ym2612"
    },
    {
      "channel": 2,
      "note": 40,
      "start": 27.8233,
      "duration": 0.0177,
      "velocity": 114,
      "chip": "ym2612"
    },
    {
      "channel": 0,
      "note": 77,
      "start": 27.8342,
      "duration": 0.0497,
      "velocity": 103,
      "chip": "ym2612"
    },
    {
      "channel": 1,
      "note": 53,
      "start": 27.8356,
      "duration": 0.0987,
      "velocity": 81,
      "chip": "ym2612"
    },
    {
      "channel": 3,
      "note": 83,
      "start": 27.8381,
      "duration": 0.0973,
      "velocity": 106,
      "chip": "ym2612"
    },
    {
      "channel": 4,
      "note": 83,
      "start": 27.8396,
      "duration": 0.0967,
      "velocity": 106,
      "chip": "ym2612"
    },
    {
      "channel": 2,
      "note": 40,
      "start": 27.8492,
      "duration": 0.0119,
      "velocity": 114,
      "chip": "ym2612"
    },
    {
      "channel": 2,
      "note": 40,
      "start": 27.8611,
      "duration": 0.0133,
      "velocity": 114,
      "chip": "ym2612"
    },
    {
      "channel": 5,
      "note": 77,
      "start": 27.8731,
      "duration": 0.064,
      "velocity": 103,
      "chip": "ym2612"
    },
    {
      "channel": 2,
      "note": 40,
      "start": 27.8744,
      "duration": 0.0126,
      "velocity": 114,
      "chip": "ym2612"
    },
    {
      "channel": 0,
      "note": 77,
      "start": 27.8839,
      "duration": 0.0495,
      "velocity": 103,
      "chip": "ym2612"
    },
    {
      "channel": 2,
      "note": 40,
      "start": 27.887,
      "duration": 0.0112,
      "velocity": 114,
      "chip": "ym2612"
    },
    {
      "channel": 2,
      "note": 40,
      "start": 27.8982,
      "duration": 0.0129,
      "velocity": 114,
      "chip": "ym2612"
    },
    {
      "channel": 2,
      "note": 40,
      "start": 27.911,
      "duration": 0.0122,
      "velocity": 114,
      "chip": "ym2612"
    },
    {
      "channel": 2,
      "note": 40,
      "start": 27.9232,
      "duration": 0.0152,
      "velocity": 114,
      "chip": "ym2612"
    },
    {
      "channel": 2,
      "note": 40,
      "start": 27.9384,
      "duration": 0.0097,
      "velocity": 114,
      "chip": "ym2612"
    },
    {
      "channel": 2,
      "note": 40,
      "start": 27.9481,
      "duration": 0.0129,
      "velocity": 114,
      "chip": "ym2612"
    },
    {
      "channel": 2,
      "note": 40,
      "start": 27.961,
      "duration": 0.0133,
      "velocity": 114,
      "chip": "ym2612"
    },
    {
      "channel": 5,
      "note": 77,
      "start": 27.973,
      "duration": 0.0497,
      "velocity": 103,
      "chip": "ym2612"
    },
    {
      "channel": 2,
      "note": 39,
      "start": 27.9743,
      "duration": 0.0113,
      "velocity": 114,
      "chip": "ym2612"
    },
    {
      "channel": 5,
      "note": 77,
      "start": 28.0227,
      "duration": 0.0509,
      "velocity": 103,
      "chip": "ym2612"
    },
    {
      "channel": 0,
      "note": 77,
      "start": 28.0339,
      "duration": 0.1006,
      "velocity": 103,
      "chip": "ym2612"
    },
    {
      "channel": 1,
      "note": 53,
      "start": 28.0353,
      "duration": 0.1001,
      "velocity": 81,
      "chip": "ym2612"
    },
    {
      "channel": 3,
      "note": 83,
      "start": 28.0379,
      "duration": 0.0987,
      "velocity": 106,
      "chip": "ym2612"
    },
    {
      "channel": 4,
      "note": 83,
      "start": 28.0393,
      "duration": 0.0981,
      "velocity": 106,
      "chip": "ym2612"
    },
    {
      "channel": 2,
      "note": 41,
      "start": 28.0457,
      "duration": 0.1977,
      "velocity": 122,
      "chip": "ym2612"
    },
    {
      "channel": 5,
      "note": 77,
      "start": 28.174,
      "duration": 0.101,
      "velocity": 103,
      "chip": "ym2612"
    },
    {
      "channel": 0,
      "note": 77,
      "start": 28.235,
      "duration": 0.1006,
      "velocity": 103,
      "chip": "ym2612"
    },
    {
      "channel": 1,
      "note": 53,
      "start": 28.2363,
      "duration": 0.1,
      "velocity": 81,
      "chip": "ym2612"
    },
    {
      "channel": 3,
      "note": 83,
      "start": 28.2389,
      "duration": 0.0987,
      "velocity": 106,
      "chip": "ym2612"
    },
    {
      "channel": 4,
      "note": 83,
      "start": 28.2403,
      "duration": 0.0981,
      "velocity": 106,
      "chip": "ym2612"
    },
    {
      "channel": 2,
      "note": 40,
      "start": 28.2467,
      "duration": 0.0036,
      "velocity": 114,
      "chip": "ym2612"
    },
    {
      "channel": 2,
      "note": 40,
      "start": 28.2503,
      "duration": 0.0131,
      "velocity": 114,
      "chip": "ym2612"
    },
    {
      "channel": 2,
      "note": 40,
      "start": 28.2634,
      "duration": 0.0132,
      "velocity": 114,
      "chip": "ym2612"
    },
    {
      "channel": 5,
      "note": 77,
      "start": 28.275,
      "duration": 0.0122,
      "velocity": 103,
      "chip": "ym2612"
    },
    {
      "channel": 2,
      "note": 40,
      "start": 28.2766,
      "duration": 0.0118,
      "velocity": 114,
      "chip": "ym2612"
    },
    {
      "channel": 2,
      "note": 40,
      "start": 28.2884,
      "duration": 0.0119,
      "velocity": 114,
      "chip": "ym2612"
    },
    {
      "channel": 2,
      "note": 40,
      "start": 28.3003,
      "duration": 0.0131,
      "velocity": 114,
      "chip": "ym2612"
    },
    {
      "channel": 2,
      "note": 40,
      "start": 28.3134,
      "duration": 0.0119,
      "velocity": 114,
      "chip": "ym2612"
    },
    {
      "channel": 2,
      "note": 40,
      "start": 28.3253,
      "duration": 0.0146,
      "velocity": 114,
      "chip": "ym2612"
    },
    {
      "channel": 2,
      "note": 40,
      "start": 28.3399,
      "duration": 0.0103,
      "velocity": 114,
      "chip": "ym2612"
    },
    {
      "channel": 2,
      "note": 40,
      "start": 28.3502,
      "duration": 0.0131,
      "velocity": 114,
      "chip": "ym2612"
    },
    {
      "channel": 2,
      "note": 39,
      "start": 28.3633,
      "duration": 0.0118,
      "velocity": 114,
      "chip": "ym2612"
    },
    {
      "channel": 5,
      "note": 77,
      "start": 28.3879,
      "duration": 0.0989,
      "velocity": 103,
      "chip": "ym2612"
    },
    {
      "channel": 0,
      "note": 77,
      "start": 28.4485,
      "duration": 0.0493,
      "velocity": 103,
      "chip": "ym2612"
    },
    {
      "channel": 1,
      "note": 53,
      "start": 28.4499,
      "duration": 0.0488,
      "velocity": 81,
      "chip": "ym2612"
    },
    {
      "channel": 3,
      "note": 83,
      "start": 28.4524,
      "duration": 0.0474,
      "velocity": 106,
      "chip": "ym2612"
    },
    {
      "channel": 4,
      "note": 83,
      "start": 28.4539,
      "duration": 0.0467,
      "velocity": 106,
      "chip": "ym2612"
    },
    {
      "channel": 2,
      "note": 40,
      "start": 28.4569,
      "duration": 0.0063,
      "velocity": 114,
      "chip": "ym2612"
    },
    {
      "channel": 2,
      "note": 40,
      "start": 28.4632,
      "duration": 0.0119,
      "velocity": 114,
      "chip": "ym2612"
    },
    {
      "channel": 2,
      "note": 40,
      "start": 28.4751,
      "duration": 0.0134,
      "velocity": 114,
      "chip": "ym2612"
    },
    {
      "channel": 2,
      "note": 40,
      "start": 28.4885,
      "duration": 0.0138,
      "velocity": 114,
      "chip": "ym2612"
    },
    {
      "channel": 2,
      "note": 40,
      "start": 28.5023,
      "duration": 0.0109,
      "velocity": 114,
      "chip": "ym2612"
    },
    {
      "channel": 2,
      "note": 40,
      "start": 28.5131,
      "duration": 0.0123,
      "velocity": 114,
      "chip": "ym2612"
    },
    {
      "channel": 2,
      "note": 40,
      "start": 28.5254,
      "duration": 0.0121,
      "velocity": 114,
      "chip": "ym2612"
    },
    {
      "channel": 2,
      "note": 40,
      "start": 28.5375,
      "duration": 0.0177,
      "velocity": 114,
      "chip": "ym2612"
    },
    {
      "channel": 0,
      "note": 77,
      "start": 28.5484,
      "duration": 0.0872,
      "velocity": 103,
      "chip": "ym2612"
    },
    {
      "channel": 1,
      "note": 53,
      "start": 28.5498,
      "duration": 0.0987,
      "velocity": 81,
      "chip": "ym2612"
    },
    {
      "channel": 3,
      "note": 83,
      "start": 28.5523,
      "duration": 0.0973,
      "velocity": 106,
      "chip": "ym2612"
    },
    {
      "channel": 4,
      "note": 83,
      "start": 28.5538,
      "duration": 0.0967,
      "velocity": 106,
      "chip": "ym2612"
    },
    {
      "channel": 2,
      "note": 41,
      "start": 28.5668,
      "duration": 0.1898,
      "velocity": 122,
      "chip": "ym2612"
    },
    {
      "channel": 5,
      "note": 77,
      "start": 28.5873,
      "duration": 0.0641,
      "velocity": 103,
      "chip": "ym2612"
    },
    {
      "channel": 0,
      "note": 77,
      "start": 28.6355,
      "duration": 0.0122,
      "velocity": 103,
      "chip": "ym2612"
    },
    {
      "channel": 5,
      "note": 77,
      "start": 28.6872,
      "duration": 0.0879,
      "velocity": 103,
      "chip": "ym2612"
    },
    {
      "channel": 0,
      "note": 77,
      "start": 28.7481,
      "duration": 0.063,
      "velocity": 103,
      "chip": "ym2612"
    },
    {
      "channel": 1,
      "note": 53,
      "start": 28.7495,
      "duration": 0.0627,
      "velocity": 81,
      "chip": "ym2612"
    },
    {
      "channel": 3,
      "note": 83,
      "start": 28.7521,
      "duration": 0.0613,
      "velocity": 106,
      "chip": "ym2612"
    },
    {
      "channel": 4,
      "note": 83,
      "start": 28.7535,
      "duration": 0.0607,
      "velocity": 106,
      "chip": "ym2612"
    },
    {
      "channel": 2,
      "note": 40,
      "start": 28.7594,
      "duration": 0.0042,
      "velocity": 114,
      "chip": "ym2612"
    },
    {
      "channel": 2,
      "note": 40,
      "start": 28.7636,
      "duration": 0.0128,
      "velocity": 114,
      "chip": "ym2612"
    },
    {
      "channel": 5,
      "note": 77,
      "start": 28.7751,
      "duration": 0.0122,
      "velocity": 103,
      "chip": "ym2612"
    },
    {
      "channel": 2,
      "note": 40,
      "start": 28.7764,
      "duration": 0.0125,
      "velocity": 114,
      "chip": "ym2612"
    },
    {
      "channel": 2,
      "note": 40,
      "start": 28.7889,
      "duration": 0.0116,
      "velocity": 114,
      "chip": "ym2612"
    },
    {
      "channel": 2,
      "note": 40,
      "start": 28.8005,
      "duration": 0.0153,
      "velocity": 114,
      "chip": "ym2612"
    },
    {
      "channel": 2,
      "note": 40,
      "start": 28.8157,
      "duration": 0.0097,
      "velocity": 114,
      "chip": "ym2612"
    },
    {
      "channel": 2,
      "note": 40,
      "start": 28.8254,
      "duration": 0.0125,
      "velocity": 114,
      "chip": "ym2612"
    },
    {
      "channel": 2,
      "note": 40,
      "start": 28.8379,
      "duration": 0.0177,
      "velocity": 114,
      "chip": "ym2612"
    },
    {
      "channel": 0,
      "note": 77,
      "start": 28.8488,
      "duration": 0.0372,
      "velocity": 103,
      "chip": "ym2612"
    },
    {
      "channel": 1,
      "note": 53,
      "start": 28.8502,
      "duration": 0.0994,
      "velocity": 81,
      "chip": "ym2612"
    },
    {
      "channel": 3,
      "note": 83,
      "start": 28.8528,
      "duration": 0.0993,
      "velocity": 106,
      "chip": "ym2612"
    },
    {
      "channel": 4,
      "note": 83,
      "start": 28.8542,
      "duration": 0.0994,
      "velocity": 106,
      "chip": "ym2612"
    },
    {
      "channel": 2,
      "note": 40,
      "start": 28.8644,
      "duration": 0.011,
      "velocity": 114,
      "chip": "ym2612"
    },
    {
      "channel": 2,
      "note": 40,
      "start": 28.8754,
      "duration": 0.0145,
      "velocity": 114,
      "chip": "ym2612"
    },
    {
      "channel": 0,
      "note": 77,
      "start": 28.886,
      "duration": 0.0622,
      "velocity": 103,
      "chip": "ym2612"
    },
    {
      "channel": 5,
      "note": 77,
      "start": 28.8886,
      "duration": 0.0662,
      "velocity": 103,
      "chip": "ym2612"
    },
    {
      "channel": 2,
      "note": 40,
      "start": 28.8899,
      "duration": 0.0108,
      "velocity": 114,
      "chip": "ym2612"
    },
    {
      "channel": 2,
      "note": 40,
      "start": 28.9007,
      "duration": 0.0127,
      "velocity": 114,
      "chip": "ym2612"
    },
    {
      "channel": 2,
      "note": 40,
      "start": 28.9134,
      "duration": 0.0119,
      "velocity": 114,
      "chip": "ym2612"
    },
    {
      "channel": 2,
      "note": 40,
      "start": 28.9253,
      "duration": 0.0125,
      "velocity": 114,
      "chip": "ym2612"
    },
    {
      "channel": 2,
      "note": 40,
      "start": 28.9378,
      "duration": 0.0183,
      "velocity": 114,
      "chip": "ym2612"
    },
    {
      "channel": 0,
      "note": 77,
      "start": 28.9486,
      "duration": 0.0994,
      "velocity": 103,
      "chip": "ym2612"
    },
    {
      "channel": 1,
      "note": 59,
      "start": 28.95,
      "duration": 0.0994,
      "velocity": 81,
      "chip": "ym2612"
    },
    {
      "channel": 3,
      "note": 83,
      "start": 28.9526,
      "duration": 0.0994,
      "velocity": 106,
      "chip": "ym2612"
    },
    {
      "channel": 4,
      "note": 83,
      "start": 28.954,
      "duration": 0.0994,
      "velocity": 106,
      "chip": "ym2612"
    },
    {
      "channel": 2,
      "note": 40,
      "start": 28.9643,
      "duration": 0.0109,
      "velocity": 114,
      "chip": "ym2612"
    },
    {
      "channel": 2,
      "note": 40,
      "start": 28.9752,
      "duration": 0.0136,
      "velocity": 114,
      "chip": "ym2612"
    },
    {
      "channel": 5,
      "note": 77,
      "start": 28.9876,
      "duration": 0.0373,
      "velocity": 103,
      "chip": "ym2612"
    },
    {
      "channel": 2,
      "note": 40,
      "start": 28.9888,
      "duration": 0.0117,
      "velocity": 114,
      "chip": "ym2612"
    },
    {
      "channel": 2,
      "note": 40,
      "start": 29.0005,
      "duration": 0.0127,
      "velocity": 114,
      "chip": "ym2612"
    },
    {
      "channel": 2,
      "note": 40,
      "start": 29.0133,
      "duration": 0.0128,
      "velocity": 114,
      "chip": "ym2612"
    },
    {
      "channel": 5,
      "note": 77,
      "start": 29.0249,
      "duration": 0.0746,
      "velocity": 103,
      "chip": "ym2612"
    },
    {
      "channel": 2,
      "note": 40,
      "start": 29.0261,
      "duration": 0.0116,
      "velocity": 114,
      "chip": "ym2612"
    },
    {
      "channel": 2,
      "note": 40,
      "start": 29.0376,
      "duration": 0.0177,
      "velocity": 114,
      "chip": "ym2612"
    },
    {
      "channel": 0,
      "note": 77,
      "start": 29.0485,
      "duration": 0.0871,
      "velocity": 103,
      "chip": "ym2612"
    },
    {
      "channel": 1,
      "note": 65,
      "start": 29.05,
      "duration": 0.0994,
      "velocity": 81,
      "chip": "ym2612"
    },
    {
      "channel": 3,
      "note": 83,
      "start": 29.0524,
      "duration": 0.0994,
      "velocity": 106,
      "chip": "ym2612"
    },
    {
      "channel": 4,
      "note": 83,
      "start": 29.0539,
      "duration": 0.0993,
      "velocity": 106,
      "chip": "ym2612"
    },
    {
      "channel": 2,
      "note": 40,
      "start": 29.0641,
      "duration": 0.011,
      "velocity": 114,
      "chip": "ym2612"
    },
    {
      "channel": 2,
      "note": 40,
      "start": 29.0751,
      "duration": 0.0125,
      "velocity": 114,
      "chip": "ym2612"
    },
    {
      "channel": 2,
      "note": 40,
      "start": 29.0876,
      "duration": 0.014,
      "velocity": 114,
      "chip": "ym2612"
    },
    {
      "channel": 5,
      "note": 77,
      "start": 29.1,
      "duration": 0.0994,
      "velocity": 103,
      "chip": "ym2612"
    },
    {
      "channel": 2,
      "note": 40,
      "start": 29.1016,
      "duration": 0.0116,
      "velocity": 114,
      "chip": "ym2612"
    },
    {
      "channel": 2,
      "note": 40,
      "start": 29.1132,
      "duration": 0.0118,
      "velocity": 114,
      "chip": "ym2612"
    },
    {
      "channel": 2,
      "note": 40,
      "start": 29.125,
      "duration": 0.0134,
      "velocity": 114,
      "chip": "ym2612"
    },
    {
      "channel": 0,
      "note": 77,
      "start": 29.1356,
      "duration": 0.0122,
      "velocity": 103,
      "chip": "ym2612"
    },
    {
      "channel": 2,
      "note": 40,
      "start": 29.1385,
      "duration": 0.0167,
      "velocity": 114,
      "chip": "ym2612"
    },
    {
      "channel": 0,
      "note": 77,
      "start": 29.1484,
      "duration": 0.1125,
      "velocity": 103,
      "chip": "ym2612"
    },
    {
      "channel": 1,
      "note": 59,
      "start": 29.1498,
      "duration": 0.1127,
      "velocity": 81,
      "chip": "ym2612"
    },
    {
      "channel": 3,
      "note": 83,
      "start": 29.1523,
      "duration": 0.1135,
      "velocity": 106,
      "chip": "ym2612"
    },
    {
      "channel": 4,
      "note": 83,
      "start": 29.1538,
      "duration": 0.1133,
      "velocity": 106,
      "chip": "ym2612"
    },
    {
      "channel": 2,
      "note": 40,
      "start": 29.164,
      "duration": 0.0109,
      "velocity": 114,
      "chip": "ym2612"
    },
    {
      "channel": 2,
      "note": 40,
      "start": 29.175,
      "duration": 0.0125,
      "velocity": 114,
      "chip": "ym2612"
    },
    {
      "channel": 2,
      "note": 40,
      "start": 29.1874,
      "duration": 0.014,
      "velocity": 114,
      "chip": "ym2612"
    },
    {
      "channel": 5,
      "note": 77,
      "start": 29.1998,
      "duration": 0.0747,
      "velocity": 103,
      "chip": "ym2612"
    },
    {
      "channel": 2,
      "note": 40,
      "start": 29.2014,
      "duration": 0.0116,
      "velocity": 114,
      "chip": "ym2612"
    },
    {
      "channel": 2,
      "note": 40,
      "start": 29.213,
      "duration": 0.0119,
      "velocity": 114,
      "chip": "ym2612"
    },
    {
      "channel": 2,
      "note": 40,
      "start": 29.2249,
      "duration": 0.0125,
      "velocity": 114,
      "chip": "ym2612"
    },
    {
      "channel": 2,
      "note": 40,
      "start": 29.2374,
      "duration": 0.0125,
      "velocity": 114,
      "chip": "ym2612"
    },
    {
      "channel": 2,
      "note": 40,
      "start": 29.2499,
      "duration": 0.0186,
      "velocity": 114,
      "chip": "ym2612"
    },
    {
      "channel": 1,
      "note": 53,
      "start": 29.263,
      "duration": 0.0474,
      "velocity": 81,
      "chip": "ym2612"
    },
    {
      "channel": 5,
      "note": 77,
      "start": 29.2745,
      "duration": 0.0247,
      "velocity": 103,
      "chip": "ym2612"
    },
    {
      "channel": 2,
      "note": 40,
      "start": 29.2767,
      "duration": 0.0106,
      "velocity": 114,
      "chip": "ym2612"
    },
    {
      "channel": 2,
      "note": 40,
      "start": 29.2873,
      "duration": 0.0137,
      "velocity": 114,
      "chip": "ym2612"
    },
    {
      "channel": 5,
      "note": 77,
      "start": 29.2997,
      "duration": 0.0997,
      "velocity": 103,
      "chip": "ym2612"
    },
    {
      "channel": 2,
      "note": 40,
      "start": 29.301,
      "duration": 0.0128,
      "velocity": 114,
      "chip": "ym2612"
    },
    {
      "channel": 2,
      "note": 40,
      "start": 29.3138,
      "duration": 0.011,
      "velocity": 114,
      "chip": "ym2612"
    },
    {
      "channel": 2,
      "note": 40,
      "start": 29.3248,
      "duration": 0.0125,
      "velocity": 114,
      "chip": "ym2612"
    },
    {
      "channel": 2,
      "note": 40,
      "start": 29.3373,
      "duration": 0.0125,
      "velocity": 114,
      "chip": "ym2612"
    },
    {
      "channel": 2,
      "note": 40,
      "start": 29.3498,
      "duration": 0.0149,
      "velocity": 114,
      "chip": "ym2612"
    },
    {
      "channel": 1,
      "note": 53,
      "start": 29.3615,
      "duration": 0.0987,
      "velocity": 81,
      "chip": "ym2612"
    },
    {
      "channel": 2,
      "note": 40,
      "start": 29.3757,
      "duration": 0.0119,
      "velocity": 114,
      "chip": "ym2612"
    },
    {
      "channel": 2,
      "note": 40,
      "start": 29.3876,
      "duration": 0.0131,
      "velocity": 114,
      "chip": "ym2612"
    },
    {
      "channel": 2,
      "note": 40,
      "start": 29.4007,
      "duration": 0.0125,
      "velocity": 114,
      "chip": "ym2612"
    },
    {
      "channel": 2,
      "note": 40,
      "start": 29.4131,
      "duration": 0.0115,
      "velocity": 114,
      "chip": "ym2612"
    },
    {
      "channel": 2,
      "note": 40,
      "start": 29.4246,
      "duration": 0.0125,
      "velocity": 114,
      "chip": "ym2612"
    },
    {
      "channel": 2,
      "note": 40,
      "start": 29.4371,
      "duration": 0.0125,
      "velocity": 114,
      "chip": "ym2612"
    },
    {
      "channel": 2,
      "note": 40,
      "start": 29.4497,
      "duration": 0.0136,
      "velocity": 114,
      "chip": "ym2612"
    },
    {
      "channel": 2,
      "note": 40,
      "start": 29.4633,
      "duration": 0.0113,
      "velocity": 114,
      "chip": "ym2612"
    },
    {
      "channel": 2,
      "note": 40,
      "start": 29.4746,
      "duration": 0.0125,
      "velocity": 114,
      "chip": "ym2612"
    },
    {
      "channel": 2,
      "note": 40,
      "start": 29.4871,
      "duration": 0.0125,
      "velocity": 114,
      "chip": "ym2612"
    },
    {
      "channel": 2,
      "note": 39,
      "start": 29.4996,
      "duration": 0.013,
      "velocity": 114,
      "chip": "ym2612"
    },
    {
      "channel": 1,
      "note": 53,
      "start": 29.561,
      "duration": 0.0615,
      "velocity": 81,
      "chip": "ym2612"
    },
    {
      "channel": 2,
      "note": 40,
      "start": 29.5659,
      "duration": 0.0085,
      "velocity": 114,
      "chip": "ym2612"
    },
    {
      "channel": 2,
      "note": 40,
      "start": 29.5745,
      "duration": 0.0125,
      "velocity": 114,
      "chip": "ym2612"
    },
    {
      "channel": 2,
      "note": 40,
      "start": 29.587,
      "duration": 0.0129,
      "velocity": 114,
      "chip": "ym2612"
    },
    {
      "channel": 2,
      "note": 40,
      "start": 29.5998,
      "duration": 0.0127,
      "velocity": 114,
      "chip": "ym2612"
    },
    {
      "channel": 2,
      "note": 40,
      "start": 29.6126,
      "duration": 0.0124,
      "velocity": 114,
      "chip": "ym2612"
    },
    {
      "channel": 2,
      "note": 40,
      "start": 29.625,
      "duration": 0.0123,
      "velocity": 114,
      "chip": "ym2612"
    },
    {
      "channel": 2,
      "note": 40,
      "start": 29.6373,
      "duration": 0.0124,
      "velocity": 114,
      "chip": "ym2612"
    },
    {
      "channel": 2,
      "note": 40,
      "start": 29.6497,
      "duration": 0.0149,
      "velocity": 114,
      "chip": "ym2612"
    },
    {
      "channel": 1,
      "note": 53,
      "start": 29.6615,
      "duration": 0.0987,
      "velocity": 81,
      "chip": "ym2612"
    },
    {
      "channel": 2,
      "note": 40,
      "start": 29.6757,
      "duration": 0.0115,
      "velocity": 114,
      "chip": "ym2612"
    },
    {
      "channel": 2,
      "note": 40,
      "start": 29.6872,
      "duration": 0.0125,
      "velocity": 114,
      "chip": "ym2612"
    },
    {
      "channel": 2,
      "note": 40,
      "start": 29.6997,
      "duration": 0.0134,
      "velocity": 114,
      "chip": "ym2612"
    },
    {
      "channel": 2,
      "note": 40,
      "start": 29.7131,
      "duration": 0.0115,
      "velocity": 114,
      "chip": "ym2612"
    },
    {
      "channel": 2,
      "note": 40,
      "start": 29.7246,
      "duration": 0.0125,
      "velocity": 114,
      "chip": "ym2612"
    },
    {
      "channel": 2,
      "note": 40,
      "start": 29.7371,
      "duration": 0.0125,
      "velocity": 114,
      "chip": "ym2612"
    },
    {
      "channel": 2,
      "note": 40,
      "start": 29.7497,
      "duration": 0.0136,
      "velocity": 114,
      "chip": "ym2612"
    },
    {
      "channel": 2,
      "note": 40,
      "start": 29.7633,
      "duration": 0.0117,
      "velocity": 114,
      "chip": "ym2612"
    },
    {
      "channel": 2,
      "note": 40,
      "start": 29.775,
      "duration": 0.0125,
      "velocity": 114,
      "chip": "ym2612"
    },
    {
      "channel": 2,
      "note": 40,
      "start": 29.7874,
      "duration": 0.0125,
      "velocity": 114,
      "chip": "ym2612"
    },
    {
      "channel": 2,
      "note": 39,
      "start": 29.7999,
      "duration": 0.013,
      "velocity": 114,
      "chip": "ym2612"
    },
    {
      "channel": 1,
      "note": 53,
      "start": 29.861,
      "duration": 0.0615,
      "velocity": 81,
      "chip": "ym2612"
    },
    {
      "channel": 2,
      "note": 40,
      "start": 29.8663,
      "duration": 0.0085,
      "velocity": 114,
      "chip": "ym2612"
    },
    {
      "channel": 2,
      "note": 40,
      "start": 29.8749,
      "duration": 0.0124,
      "velocity": 114,
      "chip": "ym2612"
    },
    {
      "channel": 2,
      "note": 40,
      "start": 29.8873,
      "duration": 0.0129,
      "velocity": 114,
      "chip": "ym2612"
    },
    {
      "channel": 2,
      "note": 40,
      "start": 29.9002,
      "duration": 0.0127,
      "velocity": 114,
      "chip": "ym2612"
    },
    {
      "channel": 2,
      "note": 40,
      "start": 29.9129,
      "duration": 0.0125,
      "velocity": 114,
      "chip": "ym2612"
    },
    {
      "channel": 2,
      "note": 40,
      "start": 29.9254,
      "duration": 0.0119,
      "velocity": 114,
      "chip": "ym2612"
    },
    {
      "channel": 2,
      "note": 40,
      "start": 29.9373,
      "duration": 0.0124,
      "velocity": 114,
      "chip": "ym2612"
    },
    {
      "channel": 2,
      "note": 40,
      "start": 29.9497,
      "duration": 0.0149,
      "velocity": 114,
      "chip": "ym2612"
    },
    {
      "channel": 1,
      "note": 53,
      "start": 29.9608,
      "duration": 0.1115,
      "velocity": 81,
      "chip": "ym2612"
    },
    {
      "channel": 2,
      "note": 40,
      "start": 29.9757,
      "duration": 0.0115,
      "velocity": 114,
      "chip": "ym2612"
    },
    {
      "channel": 2,
      "note": 40,
      "start": 29.9872,
      "duration": 0.0125,
      "velocity": 114,
      "chip": "ym2612"
    },
    {
      "channel": 2,
      "note": 40,
      "start": 29.9997,
      "duration": 0.0134,
      "velocity": 114,
      "chip": "ym2612"
    },
    {
      "channel": 2,
      "note": 40,
      "start": 30.0131,
      "duration": 0.0115,
      "velocity": 114,
      "chip": "ym2612"
    },
    {
      "channel": 2,
      "note": 40,
      "start": 30.0246,
      "duration": 0.0125,
      "velocity": 114,
      "chip": "ym2612"
    },
    {
      "channel": 2,
      "note": 40,
      "start": 30.0371,
      "duration": 0.0125,
      "velocity": 114,
      "chip": "ym2612"
    },
    {
      "channel": 2,
      "note": 40,
      "start": 30.0496,
      "duration": 0.0131,
      "velocity": 114,
      "chip": "ym2612"
    },
    {
      "channel": 2,
      "note": 40,
      "start": 30.0627,
      "duration": 0.0124,
      "velocity": 114,
      "chip": "ym2612"
    },
    {
      "channel": 2,
      "note": 40,
      "start": 30.0751,
      "duration": 0.012,
      "velocity": 114,
      "chip": "ym2612"
    },
    {
      "channel": 2,
      "note": 40,
      "start": 30.0871,
      "duration": 0.0125,
      "velocity": 114,
      "chip": "ym2612"
    },
    {
      "channel": 2,
      "note": 39,
      "start": 30.0996,
      "duration": 0.0129,
      "velocity": 114,
      "chip": "ym2612"
    }
  ]
}