{
  "track_name": "08 - Into the Deep Blue Sky",
  "duration_sec": 160.17,
  "sample_rate": 44100,
  "note_count": 1679,
  "unique_pitches": 41,
  "pitch_range": 63,
  "avg_note_duration": 0.4811,
  "reconstruction_stats": {
    "notes_reconstructed": 1679,
    "keyon_events": 1679,
    "keyoff_events": 1677,
    "orphan_keyons": 2,
    "unique_pitches": 41,
    "pitch_range": 63,
    "avg_duration_sec": 0.4811
  },
  "metadata": {
    "source": "M\\Master of Monsters\\08 - Into the Deep Blue Sky.vgz"
  },
  "notes": [
    {
      "channel": 4,
      "note": 33,
      "start": 0.0,
      "duration": 0.2357,
      "velocity": 96,
      "chip": "ym2612"
    },
    {
      "channel": 5,
      "note": 33,
      "start": 0.0,
      "duration": 2.3797,
      "velocity": 107,
      "chip": "ym2612"
    },
    {
      "channel": 3,
      "note": 33,
      "start": 0.2354,
      "duration": 0.2385,
      "velocity": 96,
      "chip": "ym2612"
    },
    {
      "channel": 4,
      "note": 40,
      "start": 0.3155,
      "duration": 0.2365,
      "velocity": 96,
      "chip": "ym2612"
    },
    {
      "channel": 2,
      "note": 33,
      "start": 0.4728,
      "duration": 0.2364,
      "velocity": 96,
      "chip": "ym2612"
    },
    {
      "channel": 3,
      "note": 40,
      "start": 0.5517,
      "duration": 0.2385,
      "velocity": 96,
      "chip": "ym2612"
    },
    {
      "channel": 4,
      "note": 48,
      "start": 0.6314,
      "duration": 0.2386,
      "velocity": 96,
      "chip": "ym2612"
    },
    {
      "channel": 2,
      "note": 40,
      "start": 0.789,
      "duration": 0.2381,
      "velocity": 96,
      "chip": "ym2612"
    },
    {
      "channel": 3,
      "note": 48,
      "start": 0.8696,
      "duration": 0.2385,
      "velocity": 96,
      "chip": "ym2612"
    },
    {
      "channel": 4,
      "note": 40,
      "start": 0.9492,
      "duration": 0.2384,
      "velocity": 96,
      "chip": "ym2612"
    },
    {
      "channel": 2,
      "note": 48,
      "start": 1.107,
      "duration": 0.2379,
      "velocity": 96,
      "chip": "ym2612"
    },
    {
      "channel": 3,
      "note": 40,
      "start": 1.1873,
      "duration": 0.2385,
      "velocity": 96,
      "chip": "ym2612"
    },
    {
      "channel": 4,
      "note": 48,
      "start": 1.267,
      "duration": 0.2385,
      "velocity": 96,
      "chip": "ym2612"
    },
    {
      "channel": 2,
      "note": 40,
      "start": 1.4247,
      "duration": 0.2379,
      "velocity": 96,
      "chip": "ym2612"
    },
    {
      "channel": 3,
      "note": 48,
      "start": 1.5052,
      "duration": 0.2384,
      "velocity": 96,
      "chip": "ym2612"
    },
    {
      "channel": 4,
      "note": 40,
      "start": 1.5847,
      "duration": 0.2385,
      "velocity": 96,
      "chip": "ym2612"
    },
    {
      "channel": 2,
      "note": 48,
      "start": 1.7425,
      "duration": 0.238,
      "velocity": 96,
      "chip": "ym2612"
    },
    {
      "channel": 3,
      "note": 40,
      "start": 1.8229,
      "duration": 0.2384,
      "velocity": 96,
      "chip": "ym2612"
    },
    {
      "channel": 4,
      "note": 48,
      "start": 1.9027,
      "duration": 0.2384,
      "velocity": 96,
      "chip": "ym2612"
    },
    {
      "channel": 2,
      "note": 40,
      "start": 2.0603,
      "duration": 0.238,
      "velocity": 96,
      "chip": "ym2612"
    },
    {
      "channel": 3,
      "note": 48,
      "start": 2.1408,
      "duration": 0.2385,
      "velocity": 96,
      "chip": "ym2612"
    },
    {
      "channel": 4,
      "note": 40,
      "start": 2.2205,
      "duration": 0.2384,
      "velocity": 96,
      "chip": "ym2612"
    },
    {
      "channel": 2,
      "note": 48,
      "start": 2.3781,
      "duration": 0.2381,
      "velocity": 96,
      "chip": "ym2612"
    },
    {
      "channel": 3,
      "note": 40,
      "start": 2.4585,
      "duration": 0.2385,
      "velocity": 96,
      "chip": "ym2612"
    },
    {
      "channel": 4,
      "note": 33,
      "start": 2.5386,
      "duration": 0.2382,
      "velocity": 96,
      "chip": "ym2612"
    },
    {
      "channel": 5,
      "note": 33,
      "start": 2.5392,
      "duration": 2.3831,
      "velocity": 107,
      "chip": "ym2612"
    },
    {
      "channel": 2,
      "note": 40,
      "start": 2.696,
      "duration": 0.2379,
      "velocity": 96,
      "chip": "ym2612"
    },
    {
      "channel": 3,
      "note": 33,
      "start": 2.7765,
      "duration": 0.2384,
      "velocity": 96,
      "chip": "ym2612"
    },
    {
      "channel": 4,
      "note": 41,
      "start": 2.8562,
      "duration": 0.2383,
      "velocity": 96,
      "chip": "ym2612"
    },
    {
      "channel": 2,
      "note": 33,
      "start": 3.0138,
      "duration": 0.238,
      "velocity": 96,
      "chip": "ym2612"
    },
    {
      "channel": 3,
      "note": 41,
      "start": 3.0942,
      "duration": 0.2386,
      "velocity": 96,
      "chip": "ym2612"
    },
    {
      "channel": 4,
      "note": 48,
      "start": 3.1739,
      "duration": 0.2385,
      "velocity": 96,
      "chip": "ym2612"
    },
    {
      "channel": 2,
      "note": 41,
      "start": 3.3317,
      "duration": 0.2378,
      "velocity": 96,
      "chip": "ym2612"
    },
    {
      "channel": 3,
      "note": 48,
      "start": 3.4121,
      "duration": 0.2385,
      "velocity": 96,
      "chip": "ym2612"
    },
    {
      "channel": 4,
      "note": 41,
      "start": 3.4916,
      "duration": 0.2385,
      "velocity": 96,
      "chip": "ym2612"
    },
    {
      "channel": 2,
      "note": 48,
      "start": 3.6495,
      "duration": 0.2378,
      "velocity": 96,
      "chip": "ym2612"
    },
    {
      "channel": 3,
      "note": 41,
      "start": 3.7298,
      "duration": 0.2386,
      "velocity": 96,
      "chip": "ym2612"
    },
    {
      "channel": 4,
      "note": 48,
      "start": 3.8094,
      "duration": 0.2385,
      "velocity": 96,
      "chip": "ym2612"
    },
    {
      "channel": 2,
      "note": 41,
      "start": 3.9672,
      "duration": 0.238,
      "velocity": 96,
      "chip": "ym2612"
    },
    {
      "channel": 3,
      "note": 48,
      "start": 4.0476,
      "duration": 0.2385,
      "velocity": 96,
      "chip": "ym2612"
    },
    {
      "channel": 4,
      "note": 41,
      "start": 4.1273,
      "duration": 0.2384,
      "velocity": 96,
      "chip": "ym2612"
    },
    {
      "channel": 2,
      "note": 48,
      "start": 4.285,
      "duration": 0.238,
      "velocity": 96,
      "chip": "ym2612"
    },
    {
      "channel": 3,
      "note": 41,
      "start": 4.3654,
      "duration": 0.2385,
      "velocity": 96,
      "chip": "ym2612"
    },
    {
      "channel": 4,
      "note": 48,
      "start": 4.445,
      "duration": 0.2386,
      "velocity": 96,
      "chip": "ym2612"
    },
    {
      "channel": 2,
      "note": 41,
      "start": 4.6027,
      "duration": 0.2382,
      "velocity": 96,
      "chip": "ym2612"
    },
    {
      "channel": 3,
      "note": 48,
      "start": 4.6833,
      "duration": 0.2384,
      "velocity": 96,
      "chip": "ym2612"
    },
    {
      "channel": 4,
      "note": 41,
      "start": 4.7628,
      "duration": 0.2387,
      "velocity": 96,
      "chip": "ym2612"
    },
    {
      "channel": 2,
      "note": 48,
      "start": 4.9206,
      "duration": 0.238,
      "velocity": 96,
      "chip": "ym2612"
    },
    {
      "channel": 3,
      "note": 41,
      "start": 5.0011,
      "duration": 0.2384,
      "velocity": 96,
      "chip": "ym2612"
    },
    {
      "channel": 4,
      "note": 33,
      "start": 5.081,
      "duration": 0.238,
      "velocity": 96,
      "chip": "ym2612"
    },
    {
      "channel": 5,
      "note": 33,
      "start": 5.0816,
      "duration": 2.383,
      "velocity": 107,
      "chip": "ym2612"
    },
    {
      "channel": 2,
      "note": 41,
      "start": 5.2384,
      "duration": 0.2379,
      "velocity": 96,
      "chip": "ym2612"
    },
    {
      "channel": 3,
      "note": 33,
      "start": 5.3188,
      "duration": 0.2384,
      "velocity": 96,
      "chip": "ym2612"
    },
    {
      "channel": 4,
      "note": 42,
      "start": 5.3987,
      "duration": 0.2383,
      "velocity": 96,
      "chip": "ym2612"
    },
    {
      "channel": 2,
      "note": 33,
      "start": 5.5561,
      "duration": 0.2381,
      "velocity": 96,
      "chip": "ym2612"
    },
    {
      "channel": 3,
      "note": 42,
      "start": 5.6366,
      "duration": 0.2383,
      "velocity": 96,
      "chip": "ym2612"
    },
    {
      "channel": 4,
      "note": 48,
      "start": 5.7164,
      "duration": 0.2384,
      "velocity": 96,
      "chip": "ym2612"
    },
    {
      "channel": 2,
      "note": 42,
      "start": 5.8739,
      "duration": 0.2382,
      "velocity": 96,
      "chip": "ym2612"
    },
    {
      "channel": 3,
      "note": 48,
      "start": 5.9545,
      "duration": 0.2385,
      "velocity": 96,
      "chip": "ym2612"
    },
    {
      "channel": 4,
      "note": 42,
      "start": 6.0342,
      "duration": 0.2384,
      "velocity": 96,
      "chip": "ym2612"
    },
    {
      "channel": 2,
      "note": 48,
      "start": 6.1919,
      "duration": 0.238,
      "velocity": 96,
      "chip": "ym2612"
    },
    {
      "channel": 3,
      "note": 42,
      "start": 6.2723,
      "duration": 0.2384,
      "velocity": 96,
      "chip": "ym2612"
    },
    {
      "channel": 4,
      "note": 48,
      "start": 6.3519,
      "duration": 0.2384,
      "velocity": 96,
      "chip": "ym2612"
    },
    {
      "channel": 2,
      "note": 42,
      "start": 6.5097,
      "duration": 0.2379,
      "velocity": 96,
      "chip": "ym2612"
    },
    {
      "channel": 3,
      "note": 48,
      "start": 6.59,
      "duration": 0.2386,
      "velocity": 96,
      "chip": "ym2612"
    },
    {
      "channel": 4,
      "note": 42,
      "start": 6.6697,
      "duration": 0.2385,
      "velocity": 96,
      "chip": "ym2612"
    },
    {
      "channel": 2,
      "note": 48,
      "start": 6.8275,
      "duration": 0.238,
      "velocity": 96,
      "chip": "ym2612"
    },
    {
      "channel": 3,
      "note": 42,
      "start": 6.9079,
      "duration": 0.2384,
      "velocity": 96,
      "chip": "ym2612"
    },
    {
      "channel": 4,
      "note": 48,
      "start": 6.9876,
      "duration": 0.2385,
      "velocity": 96,
      "chip": "ym2612"
    },
    {
      "channel": 2,
      "note": 42,
      "start": 7.1453,
      "duration": 0.238,
      "velocity": 96,
      "chip": "ym2612"
    },
    {
      "channel": 3,
      "note": 48,
      "start": 7.2258,
      "duration": 0.2383,
      "velocity": 96,
      "chip": "ym2612"
    },
    {
      "channel": 4,
      "note": 42,
      "start": 7.3053,
      "duration": 0.2385,
      "velocity": 96,
      "chip": "ym2612"
    },
    {
      "channel": 2,
      "note": 48,
      "start": 7.463,
      "duration": 0.238,
      "velocity": 96,
      "chip": "ym2612"
    },
    {
      "channel": 3,
      "note": 42,
      "start": 7.5435,
      "duration": 0.2386,
      "velocity": 96,
      "chip": "ym2612"
    },
    {
      "channel": 4,
      "note": 33,
      "start": 7.6236,
      "duration": 0.238,
      "velocity": 96,
      "chip": "ym2612"
    },
    {
      "channel": 5,
      "note": 33,
      "start": 7.6242,
      "duration": 2.3824,
      "velocity": 107,
      "chip": "ym2612"
    },
    {
      "channel": 2,
      "note": 42,
      "start": 7.7809,
      "duration": 0.238,
      "velocity": 96,
      "chip": "ym2612"
    },
    {
      "channel": 3,
      "note": 33,
      "start": 7.8612,
      "duration": 0.2385,
      "velocity": 96,
      "chip": "ym2612"
    },
    {
      "channel": 4,
      "note": 41,
      "start": 7.9412,
      "duration": 0.2381,
      "velocity": 96,
      "chip": "ym2612"
    },
    {
      "channel": 2,
      "note": 33,
      "start": 8.0986,
      "duration": 0.2381,
      "velocity": 96,
      "chip": "ym2612"
    },
    {
      "channel": 3,
      "note": 41,
      "start": 8.1789,
      "duration": 0.2385,
      "velocity": 96,
      "chip": "ym2612"
    },
    {
      "channel": 4,
      "note": 48,
      "start": 8.2588,
      "duration": 0.2383,
      "velocity": 96,
      "chip": "ym2612"
    },
    {
      "channel": 2,
      "note": 41,
      "start": 8.4163,
      "duration": 0.2382,
      "velocity": 96,
      "chip": "ym2612"
    },
    {
      "channel": 3,
      "note": 48,
      "start": 8.4968,
      "duration": 0.2386,
      "velocity": 96,
      "chip": "ym2612"
    },
    {
      "channel": 4,
      "note": 52,
      "start": 8.5765,
      "duration": 0.2386,
      "velocity": 96,
      "chip": "ym2612"
    },
    {
      "channel": 2,
      "note": 48,
      "start": 8.7344,
      "duration": 0.2379,
      "velocity": 96,
      "chip": "ym2612"
    },
    {
      "channel": 3,
      "note": 52,
      "start": 8.8147,
      "duration": 0.2383,
      "velocity": 96,
      "chip": "ym2612"
    },
    {
      "channel": 4,
      "note": 59,
      "start": 8.8944,
      "duration": 1.1914,
      "velocity": 96,
      "chip": "ym2612"
    },
    {
      "channel": 2,
      "note": 52,
      "start": 9.0519,
      "duration": 0.2383,
      "velocity": 96,
      "chip": "ym2612"
    },
    {
      "channel": 3,
      "note": 59,
      "start": 9.1326,
      "duration": 1.1913,
      "velocity": 96,
      "chip": "ym2612"
    },
    {
      "channel": 2,
      "note": 59,
      "start": 9.37,
      "duration": 1.1913,
      "velocity": 96,
      "chip": "ym2612"
    },
    {
      "channel": 0,
      "note": 76,
      "start": 10.164,
      "duration": 4.7403,
      "velocity": 92,
      "chip": "ym2612"
    },
    {
      "channel": 4,
      "note": 33,
      "start": 10.1666,
      "duration": 0.2378,
      "velocity": 96,
      "chip": "ym2612"
    },
    {
      "channel": 5,
      "note": 33,
      "start": 10.1672,
      "duration": 2.3824,
      "velocity": 107,
      "chip": "ym2612"
    },
    {
      "channel": 3,
      "note": 33,
      "start": 10.4041,
      "duration": 0.2385,
      "velocity": 96,
      "chip": "ym2612"
    },
    {
      "channel": 1,
      "note": 76,
      "start": 10.4821,
      "duration": 4.7403,
      "velocity": 92,
      "chip": "ym2612"
    },
    {
      "channel": 4,
      "note": 40,
      "start": 10.4838,
      "duration": 0.238,
      "velocity": 96,
      "chip": "ym2612"
    },
    {
      "channel": 2,
      "note": 33,
      "start": 10.6415,
      "duration": 0.2377,
      "velocity": 96,
      "chip": "ym2612"
    },
    {
      "channel": 3,
      "note": 40,
      "start": 10.7215,
      "duration": 0.2385,
      "velocity": 96,
      "chip": "ym2612"
    },
    {
      "channel": 4,
      "note": 48,
      "start": 10.8013,
      "duration": 0.2385,
      "velocity": 96,
      "chip": "ym2612"
    },
    {
      "channel": 2,
      "note": 40,
      "start": 10.9589,
      "duration": 0.238,
      "velocity": 96,
      "chip": "ym2612"
    },
    {
      "channel": 3,
      "note": 48,
      "start": 11.0395,
      "duration": 0.2383,
      "velocity": 96,
      "chip": "ym2612"
    },
    {
      "channel": 4,
      "note": 40,
      "start": 11.119,
      "duration": 0.2384,
      "velocity": 96,
      "chip": "ym2612"
    },
    {
      "channel": 2,
      "note": 48,
      "start": 11.2768,
      "duration": 0.238,
      "velocity": 96,
      "chip": "ym2612"
    },
    {
      "channel": 3,
      "note": 40,
      "start": 11.3571,
      "duration": 0.2385,
      "velocity": 96,
      "chip": "ym2612"
    },
    {
      "channel": 4,
      "note": 48,
      "start": 11.4368,
      "duration": 0.2385,
      "velocity": 96,
      "chip": "ym2612"
    },
    {
      "channel": 2,
      "note": 40,
      "start": 11.5946,
      "duration": 0.2379,
      "velocity": 96,
      "chip": "ym2612"
    },
    {
      "channel": 3,
      "note": 48,
      "start": 11.6751,
      "duration": 0.2385,
      "velocity": 96,
      "chip": "ym2612"
    },
    {
      "channel": 4,
      "note": 40,
      "start": 11.7548,
      "duration": 0.2383,
      "velocity": 96,
      "chip": "ym2612"
    },
    {
      "channel": 2,
      "note": 48,
      "start": 11.9124,
      "duration": 0.2381,
      "velocity": 96,
      "chip": "ym2612"
    },
    {
      "channel": 3,
      "note": 40,
      "start": 11.9927,
      "duration": 0.2386,
      "velocity": 96,
      "chip": "ym2612"
    },
    {
      "channel": 4,
      "note": 48,
      "start": 12.0726,
      "duration": 0.2384,
      "velocity": 96,
      "chip": "ym2612"
    },
    {
      "channel": 2,
      "note": 40,
      "start": 12.2303,
      "duration": 0.2379,
      "velocity": 96,
      "chip": "ym2612"
    },
    {
      "channel": 3,
      "note": 48,
      "start": 12.3107,
      "duration": 0.2383,
      "velocity": 96,
      "chip": "ym2612"
    },
    {
      "channel": 4,
      "note": 40,
      "start": 12.3902,
      "duration": 0.2385,
      "velocity": 96,
      "chip": "ym2612"
    },
    {
      "channel": 2,
      "note": 48,
      "start": 12.5479,
      "duration": 0.2381,
      "velocity": 96,
      "chip": "ym2612"
    },
    {
      "channel": 3,
      "note": 40,
      "start": 12.6285,
      "duration": 0.2384,
      "velocity": 96,
      "chip": "ym2612"
    },
    {
      "channel": 4,
      "note": 33,
      "start": 12.7083,
      "duration": 0.2382,
      "velocity": 96,
      "chip": "ym2612"
    },
    {
      "channel": 5,
      "note": 33,
      "start": 12.7089,
      "duration": 2.3836,
      "velocity": 107,
      "chip": "ym2612"
    },
    {
      "channel": 2,
      "note": 40,
      "start": 12.8658,
      "duration": 0.2381,
      "velocity": 96,
      "chip": "ym2612"
    },
    {
      "channel": 3,
      "note": 33,
      "start": 12.9462,
      "duration": 0.2385,
      "velocity": 96,
      "chip": "ym2612"
    },
    {
      "channel": 4,
      "note": 41,
      "start": 13.0258,
      "duration": 0.2385,
      "velocity": 96,
      "chip": "ym2612"
    },
    {
      "channel": 2,
      "note": 33,
      "start": 13.1836,
      "duration": 0.238,
      "velocity": 96,
      "chip": "ym2612"
    },
    {
      "channel": 3,
      "note": 41,
      "start": 13.264,
      "duration": 0.2385,
      "velocity": 96,
      "chip": "ym2612"
    },
    {
      "channel": 4,
      "note": 48,
      "start": 13.3437,
      "duration": 0.2385,
      "velocity": 96,
      "chip": "ym2612"
    },
    {
      "channel": 2,
      "note": 41,
      "start": 13.5013,
      "duration": 0.2383,
      "velocity": 96,
      "chip": "ym2612"
    },
    {
      "channel": 3,
      "note": 48,
      "start": 13.5819,
      "duration": 0.2385,
      "velocity": 96,
      "chip": "ym2612"
    },
    {
      "channel": 4,
      "note": 41,
      "start": 13.6615,
      "duration": 0.2385,
      "velocity": 96,
      "chip": "ym2612"
    },
    {
      "channel": 2,
      "note": 48,
      "start": 13.8192,
      "duration": 0.238,
      "velocity": 96,
      "chip": "ym2612"
    },
    {
      "channel": 3,
      "note": 41,
      "start": 13.8997,
      "duration": 0.2384,
      "velocity": 96,
      "chip": "ym2612"
    },
    {
      "channel": 4,
      "note": 48,
      "start": 13.9794,
      "duration": 0.2384,
      "velocity": 96,
      "chip": "ym2612"
    },
    {
      "channel": 2,
      "note": 41,
      "start": 14.137,
      "duration": 0.238,
      "velocity": 96,
      "chip": "ym2612"
    },
    {
      "channel": 3,
      "note": 48,
      "start": 14.2175,
      "duration": 0.2385,
      "velocity": 96,
      "chip": "ym2612"
    },
    {
      "channel": 4,
      "note": 41,
      "start": 14.2971,
      "duration": 0.2385,
      "velocity": 96,
      "chip": "ym2612"
    },
    {
      "channel": 2,
      "note": 48,
      "start": 14.4548,
      "duration": 0.2381,
      "velocity": 96,
      "chip": "ym2612"
    },
    {
      "channel": 3,
      "note": 41,
      "start": 14.5354,
      "duration": 0.2384,
      "velocity": 96,
      "chip": "ym2612"
    },
    {
      "channel": 4,
      "note": 48,
      "start": 14.6151,
      "duration": 0.2383,
      "velocity": 96,
      "chip": "ym2612"
    },
    {
      "channel": 2,
      "note": 41,
      "start": 14.7727,
      "duration": 0.238,
      "velocity": 96,
      "chip": "ym2612"
    },
    {
      "channel": 3,
      "note": 48,
      "start": 14.853,
      "duration": 0.239,
      "velocity": 96,
      "chip": "ym2612"
    },
    {
      "channel": 0,
      "note": 74,
      "start": 14.9311,
      "duration": 0.132,
      "velocity": 92,
      "chip": "ym2612"
    },
    {
      "channel": 4,
      "note": 41,
      "start": 14.9333,
      "duration": 0.2379,
      "velocity": 96,
      "chip": "ym2612"
    },
    {
      "channel": 0,
      "note": 72,
      "start": 15.09,
      "duration": 0.1321,
      "velocity": 92,
      "chip": "ym2612"
    },
    {
      "channel": 2,
      "note": 48,
      "start": 15.0909,
      "duration": 0.2377,
      "velocity": 96,
      "chip": "ym2612"
    },
    {
      "channel": 3,
      "note": 41,
      "start": 15.1709,
      "duration": 0.2389,
      "velocity": 96,
      "chip": "ym2612"
    },
    {
      "channel": 0,
      "note": 71,
      "start": 15.249,
      "duration": 4.7403,
      "velocity": 92,
      "chip": "ym2612"
    },
    {
      "channel": 1,
      "note": 74,
      "start": 15.2495,
      "duration": 0.1317,
      "velocity": 92,
      "chip": "ym2612"
    },
    {
      "channel": 4,
      "note": 33,
      "start": 15.2516,
      "duration": 0.2375,
      "velocity": 96,
      "chip": "ym2612"
    },
    {
      "channel": 5,
      "note": 33,
      "start": 15.2522,
      "duration": 2.3824,
      "velocity": 107,
      "chip": "ym2612"
    },
    {
      "channel": 1,
      "note": 72,
      "start": 15.408,
      "duration": 0.1321,
      "velocity": 92,
      "chip": "ym2612"
    },
    {
      "channel": 2,
      "note": 41,
      "start": 15.4086,
      "duration": 0.2377,
      "velocity": 96,
      "chip": "ym2612"
    },
    {
      "channel": 3,
      "note": 33,
      "start": 15.4887,
      "duration": 0.2384,
      "velocity": 96,
      "chip": "ym2612"
    },
    {
      "channel": 1,
      "note": 71,
      "start": 15.5669,
      "duration": 4.7403,
      "velocity": 92,
      "chip": "ym2612"
    },
    {
      "channel": 4,
      "note": 42,
      "start": 15.5687,
      "duration": 0.238,
      "velocity": 96,
      "chip": "ym2612"
    },
    {
      "channel": 2,
      "note": 33,
      "start": 15.7259,
      "duration": 0.2381,
      "velocity": 96,
      "chip": "ym2612"
    },
    {
      "channel": 3,
      "note": 42,
      "start": 15.8064,
      "duration": 0.2384,
      "velocity": 96,
      "chip": "ym2612"
    },
    {
      "channel": 4,
      "note": 48,
      "start": 15.8862,
      "duration": 0.2385,
      "velocity": 96,
      "chip": "ym2612"
    },
    {
      "channel": 2,
      "note": 42,
      "start": 16.0437,
      "duration": 0.2382,
      "velocity": 96,
      "chip": "ym2612"
    },
    {
      "channel": 3,
      "note": 48,
      "start": 16.1244,
      "duration": 0.2386,
      "velocity": 96,
      "chip": "ym2612"
    },
    {
      "channel": 4,
      "note": 42,
      "start": 16.2039,
      "duration": 0.2385,
      "velocity": 96,
      "chip": "ym2612"
    },
    {
      "channel": 2,
      "note": 48,
      "start": 16.3619,
      "duration": 0.2378,
      "velocity": 96,
      "chip": "ym2612"
    },
    {
      "channel": 3,
      "note": 42,
      "start": 16.442,
      "duration": 0.2385,
      "velocity": 96,
      "chip": "ym2612"
    },
    {
      "channel": 4,
      "note": 48,
      "start": 16.5218,
      "duration": 0.2385,
      "velocity": 96,
      "chip": "ym2612"
    },
    {
      "channel": 2,
      "note": 42,
      "start": 16.6795,
      "duration": 0.238,
      "velocity": 96,
      "chip": "ym2612"
    },
    {
      "channel": 3,
      "note": 48,
      "start": 16.76,
      "duration": 0.2384,
      "velocity": 96,
      "chip": "ym2612"
    },
    {
      "channel": 4,
      "note": 42,
      "start": 16.8396,
      "duration": 0.2385,
      "velocity": 96,
      "chip": "ym2612"
    },
    {
      "channel": 2,
      "note": 48,
      "start": 16.9973,
      "duration": 0.238,
      "velocity": 96,
      "chip": "ym2612"
    },
    {
      "channel": 3,
      "note": 42,
      "start": 17.0778,
      "duration": 0.2385,
      "velocity": 96,
      "chip": "ym2612"
    },
    {
      "channel": 4,
      "note": 48,
      "start": 17.1574,
      "duration": 0.2385,
      "velocity": 96,
      "chip": "ym2612"
    },
    {
      "channel": 2,
      "note": 42,
      "start": 17.3152,
      "duration": 0.238,
      "velocity": 96,
      "chip": "ym2612"
    },
    {
      "channel": 3,
      "note": 48,
      "start": 17.3956,
      "duration": 0.2385,
      "velocity": 96,
      "chip": "ym2612"
    },
    {
      "channel": 4,
      "note": 42,
      "start": 17.4751,
      "duration": 0.2385,
      "velocity": 96,
      "chip": "ym2612"
    },
    {
      "channel": 2,
      "note": 48,
      "start": 17.6329,
      "duration": 0.2379,
      "velocity": 96,
      "chip": "ym2612"
    },
    {
      "channel": 3,
      "note": 42,
      "start": 17.7133,
      "duration": 0.2385,
      "velocity": 96,
      "chip": "ym2612"
    },
    {
      "channel": 4,
      "note": 33,
      "start": 17.7932,
      "duration": 0.2383,
      "velocity": 96,
      "chip": "ym2612"
    },
    {
      "channel": 5,
      "note": 33,
      "start": 17.7938,
      "duration": 2.3836,
      "velocity": 107,
      "chip": "ym2612"
    },
    {
      "channel": 2,
      "note": 42,
      "start": 17.9507,
      "duration": 0.2379,
      "velocity": 96,
      "chip": "ym2612"
    },
    {
      "channel": 3,
      "note": 33,
      "start": 18.0312,
      "duration": 0.2384,
      "velocity": 96,
      "chip": "ym2612"
    },
    {
      "channel": 4,
      "note": 41,
      "start": 18.1107,
      "duration": 0.2384,
      "velocity": 96,
      "chip": "ym2612"
    },
    {
      "channel": 2,
      "note": 33,
      "start": 18.2684,
      "duration": 0.2381,
      "velocity": 96,
      "chip": "ym2612"
    },
    {
      "channel": 3,
      "note": 41,
      "start": 18.3488,
      "duration": 0.2386,
      "velocity": 96,
      "chip": "ym2612"
    },
    {
      "channel": 4,
      "note": 48,
      "start": 18.4288,
      "duration": 0.2383,
      "velocity": 96,
      "chip": "ym2612"
    },
    {
      "channel": 2,
      "note": 41,
      "start": 18.5863,
      "duration": 0.238,
      "velocity": 96,
      "chip": "ym2612"
    },
    {
      "channel": 3,
      "note": 48,
      "start": 18.6668,
      "duration": 0.2384,
      "velocity": 96,
      "chip": "ym2612"
    },
    {
      "channel": 4,
      "note": 41,
      "start": 18.7464,
      "duration": 0.2385,
      "velocity": 96,
      "chip": "ym2612"
    },
    {
      "channel": 2,
      "note": 48,
      "start": 18.9041,
      "duration": 0.238,
      "velocity": 96,
      "chip": "ym2612"
    },
    {
      "channel": 3,
      "note": 41,
      "start": 18.9847,
      "duration": 0.2383,
      "velocity": 96,
      "chip": "ym2612"
    },
    {
      "channel": 4,
      "note": 48,
      "start": 19.0644,
      "duration": 0.2385,
      "velocity": 96,
      "chip": "ym2612"
    },
    {
      "channel": 2,
      "note": 41,
      "start": 19.2218,
      "duration": 0.2382,
      "velocity": 96,
      "chip": "ym2612"
    },
    {
      "channel": 3,
      "note": 48,
      "start": 19.3025,
      "duration": 0.2384,
      "velocity": 96,
      "chip": "ym2612"
    },
    {
      "channel": 4,
      "note": 41,
      "start": 19.382,
      "duration": 0.2387,
      "velocity": 96,
      "chip": "ym2612"
    },
    {
      "channel": 2,
      "note": 48,
      "start": 19.5398,
      "duration": 0.238,
      "velocity": 96,
      "chip": "ym2612"
    },
    {
      "channel": 3,
      "note": 41,
      "start": 19.6203,
      "duration": 0.2384,
      "velocity": 96,
      "chip": "ym2612"
    },
    {
      "channel": 4,
      "note": 48,
      "start": 19.7,
      "duration": 0.2384,
      "velocity": 96,
      "chip": "ym2612"
    },
    {
      "channel": 2,
      "note": 41,
      "start": 19.8576,
      "duration": 0.2379,
      "velocity": 96,
      "chip": "ym2612"
    },
    {
      "channel": 3,
      "note": 48,
      "start": 19.9381,
      "duration": 0.2388,
      "velocity": 96,
      "chip": "ym2612"
    },
    {
      "channel": 0,
      "note": 72,
      "start": 20.0158,
      "duration": 0.1324,
      "velocity": 92,
      "chip": "ym2612"
    },
    {
      "channel": 4,
      "note": 41,
      "start": 20.0179,
      "duration": 0.2384,
      "velocity": 96,
      "chip": "ym2612"
    },
    {
      "channel": 0,
      "note": 74,
      "start": 20.1749,
      "duration": 0.132,
      "velocity": 92,
      "chip": "ym2612"
    },
    {
      "channel": 2,
      "note": 48,
      "start": 20.1758,
      "duration": 0.2377,
      "velocity": 96,
      "chip": "ym2612"
    },
    {
      "channel": 3,
      "note": 41,
      "start": 20.256,
      "duration": 0.2387,
      "velocity": 96,
      "chip": "ym2612"
    },
    {
      "channel": 0,
      "note": 76,
      "start": 20.3337,
      "duration": 0.6088,
      "velocity": 92,
      "chip": "ym2612"
    },
    {
      "channel": 1,
      "note": 72,
      "start": 20.3343,
      "duration": 0.1318,
      "velocity": 92,
      "chip": "ym2612"
    },
    {
      "channel": 4,
      "note": 33,
      "start": 20.3364,
      "duration": 0.2377,
      "velocity": 96,
      "chip": "ym2612"
    },
    {
      "channel": 5,
      "note": 33,
      "start": 20.337,
      "duration": 2.3826,
      "velocity": 107,
      "chip": "ym2612"
    },
    {
      "channel": 1,
      "note": 74,
      "start": 20.4929,
      "duration": 0.1322,
      "velocity": 92,
      "chip": "ym2612"
    },
    {
      "channel": 2,
      "note": 41,
      "start": 20.4936,
      "duration": 0.2375,
      "velocity": 96,
      "chip": "ym2612"
    },
    {
      "channel": 3,
      "note": 33,
      "start": 20.5737,
      "duration": 0.2384,
      "velocity": 96,
      "chip": "ym2612"
    },
    {
      "channel": 1,
      "note": 76,
      "start": 20.6517,
      "duration": 0.609,
      "velocity": 92,
      "chip": "ym2612"
    },
    {
      "channel": 4,
      "note": 40,
      "start": 20.6535,
      "duration": 0.2382,
      "velocity": 96,
      "chip": "ym2612"
    },
    {
      "channel": 2,
      "note": 33,
      "start": 20.8109,
      "duration": 0.2382,
      "velocity": 96,
      "chip": "ym2612"
    },
    {
      "channel": 3,
      "note": 40,
      "start": 20.8914,
      "duration": 0.2385,
      "velocity": 96,
      "chip": "ym2612"
    },
    {
      "channel": 0,
      "note": 69,
      "start": 20.9695,
      "duration": 0.6087,
      "velocity": 92,
      "chip": "ym2612"
    },
    {
      "channel": 4,
      "note": 48,
      "start": 20.9716,
      "duration": 0.238,
      "velocity": 96,
      "chip": "ym2612"
    },
    {
      "channel": 2,
      "note": 40,
      "start": 21.1288,
      "duration": 0.2381,
      "velocity": 96,
      "chip": "ym2612"
    },
    {
      "channel": 3,
      "note": 48,
      "start": 21.2093,
      "duration": 0.2384,
      "velocity": 96,
      "chip": "ym2612"
    },
    {
      "channel": 1,
      "note": 69,
      "start": 21.2875,
      "duration": 0.6087,
      "velocity": 92,
      "chip": "ym2612"
    },
    {
      "channel": 4,
      "note": 40,
      "start": 21.2893,
      "duration": 0.2381,
      "velocity": 96,
      "chip": "ym2612"
    },
    {
      "channel": 2,
      "note": 48,
      "start": 21.4466,
      "duration": 0.238,
      "velocity": 96,
      "chip": "ym2612"
    },
    {
      "channel": 3,
      "note": 40,
      "start": 21.5271,
      "duration": 0.2383,
      "velocity": 96,
      "chip": "ym2612"
    },
    {
      "channel": 0,
      "note": 81,
      "start": 21.6049,
      "duration": 2.5157,
      "velocity": 92,
      "chip": "ym2612"
    },
    {
      "channel": 4,
      "note": 48,
      "start": 21.6071,
      "duration": 0.2382,
      "velocity": 96,
      "chip": "ym2612"
    },
    {
      "channel": 2,
      "note": 40,
      "start": 21.7643,
      "duration": 0.238,
      "velocity": 96,
      "chip": "ym2612"
    },
    {
      "channel": 3,
      "note": 48,
      "start": 21.845,
      "duration": 0.2385,
      "velocity": 96,
      "chip": "ym2612"
    },
    {
      "channel": 1,
      "note": 81,
      "start": 21.923,
      "duration": 2.5158,
      "velocity": 92,
      "chip": "ym2612"
    },
    {
      "channel": 4,
      "note": 40,
      "start": 21.9249,
      "duration": 0.2381,
      "velocity": 96,
      "chip": "ym2612"
    },
    {
      "channel": 2,
      "note": 48,
      "start": 22.0823,
      "duration": 0.2378,
      "velocity": 96,
      "chip": "ym2612"
    },
    {
      "channel": 3,
      "note": 40,
      "start": 22.1627,
      "duration": 0.2384,
      "velocity": 96,
      "chip": "ym2612"
    },
    {
      "channel": 4,
      "note": 48,
      "start": 22.2424,
      "duration": 0.2385,
      "velocity": 96,
      "chip": "ym2612"
    },
    {
      "channel": 2,
      "note": 40,
      "start": 22.3999,
      "duration": 0.2382,
      "velocity": 96,
      "chip": "ym2612"
    },
    {
      "channel": 3,
      "note": 48,
      "start": 22.4806,
      "duration": 0.2384,
      "velocity": 96,
      "chip": "ym2612"
    },
    {
      "channel": 4,
      "note": 40,
      "start": 22.5602,
      "duration": 0.2385,
      "velocity": 96,
      "chip": "ym2612"
    },
    {
      "channel": 2,
      "note": 48,
      "start": 22.7179,
      "duration": 0.238,
      "velocity": 96,
      "chip": "ym2612"
    },
    {
      "channel": 3,
      "note": 40,
      "start": 22.7984,
      "duration": 0.2383,
      "velocity": 96,
      "chip": "ym2612"
    },
    {
      "channel": 4,
      "note": 33,
      "start": 22.8783,
      "duration": 0.2382,
      "velocity": 96,
      "chip": "ym2612"
    },
    {
      "channel": 5,
      "note": 33,
      "start": 22.8789,
      "duration": 2.3839,
      "velocity": 107,
      "chip": "ym2612"
    },
    {
      "channel": 2,
      "note": 40,
      "start": 23.0356,
      "duration": 0.2381,
      "velocity": 96,
      "chip": "ym2612"
    },
    {
      "channel": 3,
      "note": 33,
      "start": 23.1161,
      "duration": 0.2384,
      "velocity": 96,
      "chip": "ym2612"
    },
    {
      "channel": 4,
      "note": 41,
      "start": 23.1956,
      "duration": 0.2385,
      "velocity": 96,
      "chip": "ym2612"
    },
    {
      "channel": 2,
      "note": 33,
      "start": 23.3534,
      "duration": 0.238,
      "velocity": 96,
      "chip": "ym2612"
    },
    {
      "channel": 3,
      "note": 41,
      "start": 23.4338,
      "duration": 0.2385,
      "velocity": 96,
      "chip": "ym2612"
    },
    {
      "channel": 4,
      "note": 48,
      "start": 23.5137,
      "duration": 0.2384,
      "velocity": 96,
      "chip": "ym2612"
    },
    {
      "channel": 2,
      "note": 41,
      "start": 23.6712,
      "duration": 0.238,
      "velocity": 96,
      "chip": "ym2612"
    },
    {
      "channel": 3,
      "note": 48,
      "start": 23.7518,
      "duration": 0.2383,
      "velocity": 96,
      "chip": "ym2612"
    },
    {
      "channel": 4,
      "note": 41,
      "start": 23.8314,
      "duration": 0.2385,
      "velocity": 96,
      "chip": "ym2612"
    },
    {
      "channel": 2,
      "note": 48,
      "start": 23.989,
      "duration": 0.238,
      "velocity": 96,
      "chip": "ym2612"
    },
    {
      "channel": 3,
      "note": 41,
      "start": 24.0696,
      "duration": 0.2383,
      "velocity": 96,
      "chip": "ym2612"
    },
    {
      "channel": 0,
      "note": 79,
      "start": 24.1476,
      "duration": 0.7678,
      "velocity": 92,
      "chip": "ym2612"
    },
    {
      "channel": 4,
      "note": 48,
      "start": 24.1497,
      "duration": 0.2379,
      "velocity": 96,
      "chip": "ym2612"
    },
    {
      "channel": 2,
      "note": 41,
      "start": 24.3069,
      "duration": 0.238,
      "velocity": 96,
      "chip": "ym2612"
    },
    {
      "channel": 3,
      "note": 48,
      "start": 24.3873,
      "duration": 0.2384,
      "velocity": 96,
      "chip": "ym2612"
    },
    {
      "channel": 1,
      "note": 79,
      "start": 24.4656,
      "duration": 0.7678,
      "velocity": 92,
      "chip": "ym2612"
    },
    {
      "channel": 4,
      "note": 41,
      "start": 24.4674,
      "duration": 0.238,
      "velocity": 96,
      "chip": "ym2612"
    },
    {
      "channel": 2,
      "note": 48,
      "start": 24.6246,
      "duration": 0.238,
      "velocity": 96,
      "chip": "ym2612"
    },
    {
      "channel": 3,
      "note": 41,
      "start": 24.7051,
      "duration": 0.2389,
      "velocity": 96,
      "chip": "ym2612"
    },
    {
      "channel": 4,
      "note": 48,
      "start": 24.7848,
      "duration": 0.2385,
      "velocity": 96,
      "chip": "ym2612"
    },
    {
      "channel": 0,
      "note": 77,
      "start": 24.942,
      "duration": 0.132,
      "velocity": 92,
      "chip": "ym2612"
    },
    {
      "channel": 2,
      "note": 41,
      "start": 24.9429,
      "duration": 0.2377,
      "velocity": 96,
      "chip": "ym2612"
    },
    {
      "channel": 3,
      "note": 48,
      "start": 25.0229,
      "duration": 0.2393,
      "velocity": 96,
      "chip": "ym2612"
    },
    {
      "channel": 0,
      "note": 76,
      "start": 25.1008,
      "duration": 0.1323,
      "velocity": 92,
      "chip": "ym2612"
    },
    {
      "channel": 4,
      "note": 41,
      "start": 25.1029,
      "duration": 0.2383,
      "velocity": 96,
      "chip": "ym2612"
    },
    {
      "channel": 0,
      "note": 74,
      "start": 25.2598,
      "duration": 0.1321,
      "velocity": 92,
      "chip": "ym2612"
    },
    {
      "channel": 1,
      "note": 77,
      "start": 25.2604,
      "duration": 0.1318,
      "velocity": 92,
      "chip": "ym2612"
    },
    {
      "channel": 2,
      "note": 48,
      "start": 25.2611,
      "duration": 0.2372,
      "velocity": 96,
      "chip": "ym2612"
    },
    {
      "channel": 3,
      "note": 41,
      "start": 25.3408,
      "duration": 0.2388,
      "velocity": 96,
      "chip": "ym2612"
    },
    {
      "channel": 0,
      "note": 76,
      "start": 25.4187,
      "duration": 4.5814,
      "velocity": 92,
      "chip": "ym2612"
    },
    {
      "channel": 1,
      "note": 76,
      "start": 25.4193,
      "duration": 0.1317,
      "velocity": 92,
      "chip": "ym2612"
    },
    {
      "channel": 4,
      "note": 33,
      "start": 25.4213,
      "duration": 0.2377,
      "velocity": 96,
      "chip": "ym2612"
    },
    {
      "channel": 5,
      "note": 33,
      "start": 25.4219,
      "duration": 2.3825,
      "velocity": 107,
      "chip": "ym2612"
    },
    {
      "channel": 1,
      "note": 74,
      "start": 25.5778,
      "duration": 0.1321,
      "velocity": 92,
      "chip": "ym2612"
    },
    {
      "channel": 2,
      "note": 41,
      "start": 25.5785,
      "duration": 0.2376,
      "velocity": 96,
      "chip": "ym2612"
    },
    {
      "channel": 3,
      "note": 33,
      "start": 25.6586,
      "duration": 0.2384,
      "velocity": 96,
      "chip": "ym2612"
    },
    {
      "channel": 1,
      "note": 76,
      "start": 25.7366,
      "duration": 4.5817,
      "velocity": 92,
      "chip": "ym2612"
    },
    {
      "channel": 4,
      "note": 42,
      "start": 25.7384,
      "duration": 0.2381,
      "velocity": 96,
      "chip": "ym2612"
    },
    {
      "channel": 2,
      "note": 33,
      "start": 25.8958,
      "duration": 0.2381,
      "velocity": 96,
      "chip": "ym2612"
    },
    {
      "channel": 3,
      "note": 42,
      "start": 25.9762,
      "duration": 0.2387,
      "velocity": 96,
      "chip": "ym2612"
    },
    {
      "channel": 4,
      "note": 48,
      "start": 26.0562,
      "duration": 0.2385,
      "velocity": 96,
      "chip": "ym2612"
    },
    {
      "channel": 2,
      "note": 42,
      "start": 26.2137,
      "duration": 0.2381,
      "velocity": 96,
      "chip": "ym2612"
    },
    {
      "channel": 3,
      "note": 48,
      "start": 26.2943,
      "duration": 0.2385,
      "velocity": 96,
      "chip": "ym2612"
    },
    {
      "channel": 4,
      "note": 42,
      "start": 26.3738,
      "duration": 0.2385,
      "velocity": 96,
      "chip": "ym2612"
    },
    {
      "channel": 2,
      "note": 48,
      "start": 26.5317,
      "duration": 0.2379,
      "velocity": 96,
      "chip": "ym2612"
    },
    {
      "channel": 3,
      "note": 42,
      "start": 26.612,
      "duration": 0.2385,
      "velocity": 96,
      "chip": "ym2612"
    },
    {
      "channel": 4,
      "note": 48,
      "start": 26.6917,
      "duration": 0.2385,
      "velocity": 96,
      "chip": "ym2612"
    },
    {
      "channel": 2,
      "note": 42,
      "start": 26.8494,
      "duration": 0.238,
      "velocity": 96,
      "chip": "ym2612"
    },
    {
      "channel": 3,
      "note": 48,
      "start": 26.9299,
      "duration": 0.2384,
      "velocity": 96,
      "chip": "ym2612"
    },
    {
      "channel": 4,
      "note": 42,
      "start": 27.0095,
      "duration": 0.2385,
      "velocity": 96,
      "chip": "ym2612"
    },
    {
      "channel": 2,
      "note": 48,
      "start": 27.1672,
      "duration": 0.238,
      "velocity": 96,
      "chip": "ym2612"
    },
    {
      "channel": 3,
      "note": 42,
      "start": 27.2477,
      "duration": 0.2383,
      "velocity": 96,
      "chip": "ym2612"
    },
    {
      "channel": 4,
      "note": 48,
      "start": 27.3272,
      "duration": 0.2385,
      "velocity": 96,
      "chip": "ym2612"
    },
    {
      "channel": 2,
      "note": 42,
      "start": 27.4849,
      "duration": 0.238,
      "velocity": 96,
      "chip": "ym2612"
    },
    {
      "channel": 3,
      "note": 48,
      "start": 27.5654,
      "duration": 0.2384,
      "velocity": 96,
      "chip": "ym2612"
    },
    {
      "channel": 4,
      "note": 42,
      "start": 27.6451,
      "duration": 0.2385,
      "velocity": 96,
      "chip": "ym2612"
    },
    {
      "channel": 2,
      "note": 48,
      "start": 27.8027,
      "duration": 0.238,
      "velocity": 96,
      "chip": "ym2612"
    },
    {
      "channel": 3,
      "note": 42,
      "start": 27.8833,
      "duration": 0.2383,
      "velocity": 96,
      "chip": "ym2612"
    },
    {
      "channel": 4,
      "note": 33,
      "start": 27.963,
      "duration": 0.2383,
      "velocity": 96,
      "chip": "ym2612"
    },
    {
      "channel": 5,
      "note": 33,
      "start": 27.9636,
      "duration": 2.384,
      "velocity": 107,
      "chip": "ym2612"
    },
    {
      "channel": 2,
      "note": 42,
      "start": 28.1205,
      "duration": 0.2382,
      "velocity": 96,
      "chip": "ym2612"
    },
    {
      "channel": 3,
      "note": 33,
      "start": 28.201,
      "duration": 0.2385,
      "velocity": 96,
      "chip": "ym2612"
    },
    {
      "channel": 4,
      "note": 41,
      "start": 28.2806,
      "duration": 0.2385,
      "velocity": 96,
      "chip": "ym2612"
    },
    {
      "channel": 2,
      "note": 33,
      "start": 28.4384,
      "duration": 0.238,
      "velocity": 96,
      "chip": "ym2612"
    },
    {
      "channel": 3,
      "note": 41,
      "start": 28.5188,
      "duration": 0.2384,
      "velocity": 96,
      "chip": "ym2612"
    },
    {
      "channel": 4,
      "note": 48,
      "start": 28.5985,
      "duration": 0.2385,
      "velocity": 96,
      "chip": "ym2612"
    },
    {
      "channel": 2,
      "note": 41,
      "start": 28.7561,
      "duration": 0.2382,
      "velocity": 96,
      "chip": "ym2612"
    },
    {
      "channel": 3,
      "note": 48,
      "start": 28.8367,
      "duration": 0.2384,
      "velocity": 96,
      "chip": "ym2612"
    },
    {
      "channel": 4,
      "note": 41,
      "start": 28.9164,
      "duration": 0.2384,
      "velocity": 96,
      "chip": "ym2612"
    },
    {
      "channel": 2,
      "note": 48,
      "start": 29.074,
      "duration": 0.238,
      "velocity": 96,
      "chip": "ym2612"
    },
    {
      "channel": 3,
      "note": 41,
      "start": 29.1545,
      "duration": 0.2383,
      "velocity": 96,
      "chip": "ym2612"
    },
    {
      "channel": 4,
      "note": 48,
      "start": 29.2341,
      "duration": 0.2384,
      "velocity": 96,
      "chip": "ym2612"
    },
    {
      "channel": 2,
      "note": 41,
      "start": 29.3917,
      "duration": 0.2381,
      "velocity": 96,
      "chip": "ym2612"
    },
    {
      "channel": 3,
      "note": 48,
      "start": 29.4723,
      "duration": 0.2384,
      "velocity": 96,
      "chip": "ym2612"
    },
    {
      "channel": 4,
      "note": 41,
      "start": 29.552,
      "duration": 0.2384,
      "velocity": 96,
      "chip": "ym2612"
    },
    {
      "channel": 2,
      "note": 48,
      "start": 29.7095,
      "duration": 0.238,
      "velocity": 96,
      "chip": "ym2612"
    },
    {
      "channel": 3,
      "note": 41,
      "start": 29.7901,
      "duration": 0.2389,
      "velocity": 96,
      "chip": "ym2612"
    },
    {
      "channel": 4,
      "note": 48,
      "start": 29.8697,
      "duration": 0.2385,
      "velocity": 96,
      "chip": "ym2612"
    },
    {
      "channel": 0,
      "note": 74,
      "start": 30.0271,
      "duration": 0.1319,
      "velocity": 92,
      "chip": "ym2612"
    },
    {
      "channel": 2,
      "note": 41,
      "start": 30.0279,
      "duration": 0.2376,
      "velocity": 96,
      "chip": "ym2612"
    },
    {
      "channel": 3,
      "note": 48,
      "start": 30.1079,
      "duration": 0.2393,
      "velocity": 96,
      "chip": "ym2612"
    },
    {
      "channel": 0,
      "note": 72,
      "start": 30.1857,
      "duration": 0.1323,
      "velocity": 92,
      "chip": "ym2612"
    },
    {
      "channel": 4,
      "note": 41,
      "start": 30.1878,
      "duration": 0.2382,
      "velocity": 96,
      "chip": "ym2612"
    },
    {
      "channel": 0,
      "note": 71,
      "start": 30.3448,
      "duration": 0.132,
      "velocity": 92,
      "chip": "ym2612"
    },
    {
      "channel": 1,
      "note": 74,
      "start": 30.3454,
      "duration": 0.1317,
      "velocity": 92,
      "chip": "ym2612"
    },
    {
      "channel": 2,
      "note": 48,
      "start": 30.346,
      "duration": 0.2373,
      "velocity": 96,
      "chip": "ym2612"
    },
    {
      "channel": 3,
      "note": 41,
      "start": 30.4257,
      "duration": 0.2387,
      "velocity": 96,
      "chip": "ym2612"
    },
    {
      "channel": 0,
      "note": 69,
      "start": 30.5036,
      "duration": 1.8801,
      "velocity": 92,
      "chip": "ym2612"
    },
    {
      "channel": 1,
      "note": 72,
      "start": 30.5041,
      "duration": 0.1318,
      "velocity": 92,
      "chip": "ym2612"
    },
    {
      "channel": 4,
      "note": 29,
      "start": 30.5063,
      "duration": 0.2377,
      "velocity": 96,
      "chip": "ym2612"
    },
    {
      "channel": 5,
      "note": 29,
      "start": 30.5069,
      "duration": 2.3825,
      "velocity": 107,
      "chip": "ym2612"
    },
    {
      "channel": 1,
      "note": 71,
      "start": 30.6627,
      "duration": 0.1322,
      "velocity": 92,
      "chip": "ym2612"
    },
    {
      "channel": 2,
      "note": 41,
      "start": 30.6633,
      "duration": 0.2378,
      "velocity": 96,
      "chip": "ym2612"
    },
    {
      "channel": 3,
      "note": 29,
      "start": 30.7437,
      "duration": 0.2384,
      "velocity": 96,
      "chip": "ym2612"
    },
    {
      "channel": 1,
      "note": 69,
      "start": 30.8216,
      "duration": 1.8803,
      "velocity": 92,
      "chip": "ym2612"
    },
    {
      "channel": 4,
      "note": 36,
      "start": 30.8234,
      "duration": 0.2381,
      "velocity": 96,
      "chip": "ym2612"
    },
    {
      "channel": 2,
      "note": 29,
      "start": 30.981,
      "duration": 0.238,
      "velocity": 96,
      "chip": "ym2612"
    },
    {
      "channel": 3,
      "note": 36,
      "start": 31.0612,
      "duration": 0.2386,
      "velocity": 96,
      "chip": "ym2612"
    },
    {
      "channel": 4,
      "note": 45,
      "start": 31.1411,
      "duration": 0.2383,
      "velocity": 96,
      "chip": "ym2612"
    },
    {
      "channel": 2,
      "note": 36,
      "start": 31.2987,
      "duration": 0.238,
      "velocity": 96,
      "chip": "ym2612"
    },
    {
      "channel": 3,
      "note": 45,
      "start": 31.3791,
      "duration": 0.2385,
      "velocity": 96,
      "chip": "ym2612"
    },
    {
      "channel": 4,
      "note": 36,
      "start": 31.4588,
      "duration": 0.2384,
      "velocity": 96,
      "chip": "ym2612"
    },
    {
      "channel": 2,
      "note": 45,
      "start": 31.6165,
      "duration": 0.238,
      "velocity": 96,
      "chip": "ym2612"
    },
    {
      "channel": 3,
      "note": 36,
      "start": 31.6969,
      "duration": 0.2385,
      "velocity": 96,
      "chip": "ym2612"
    },
    {
      "channel": 4,
      "note": 45,
      "start": 31.7766,
      "duration": 0.2385,
      "velocity": 96,
      "chip": "ym2612"
    },
    {
      "channel": 2,
      "note": 36,
      "start": 31.9342,
      "duration": 0.2382,
      "velocity": 96,
      "chip": "ym2612"
    },
    {
      "channel": 3,
      "note": 45,
      "start": 32.0147,
      "duration": 0.2386,
      "velocity": 96,
      "chip": "ym2612"
    },
    {
      "channel": 4,
      "note": 36,
      "start": 32.0943,
      "duration": 0.2387,
      "velocity": 96,
      "chip": "ym2612"
    },
    {
      "channel": 2,
      "note": 45,
      "start": 32.2522,
      "duration": 0.238,
      "velocity": 96,
      "chip": "ym2612"
    },
    {
      "channel": 3,
      "note": 36,
      "start": 32.3326,
      "duration": 0.2384,
      "velocity": 96,
      "chip": "ym2612"
    },
    {
      "channel": 4,
      "note": 45,
      "start": 32.4123,
      "duration": 0.2383,
      "velocity": 96,
      "chip": "ym2612"
    },
    {
      "channel": 2,
      "note": 36,
      "start": 32.57,
      "duration": 0.238,
      "velocity": 96,
      "chip": "ym2612"
    },
    {
      "channel": 3,
      "note": 45,
      "start": 32.6503,
      "duration": 0.2386,
      "velocity": 96,
      "chip": "ym2612"
    },
    {
      "channel": 0,
      "note": 69,
      "start": 32.7283,
      "duration": 0.2911,
      "velocity": 92,
      "chip": "ym2612"
    },
    {
      "channel": 4,
      "note": 36,
      "start": 32.7305,
      "duration": 0.2379,
      "velocity": 96,
      "chip": "ym2612"
    },
    {
      "channel": 2,
      "note": 45,
      "start": 32.8878,
      "duration": 0.238,
      "velocity": 96,
      "chip": "ym2612"
    },
    {
      "channel": 3,
      "note": 36,
      "start": 32.9681,
      "duration": 0.2385,
      "velocity": 96,
      "chip": "ym2612"
    },
    {
      "channel": 0,
      "note": 71,
      "start": 33.0462,
      "duration": 1.2445,
      "velocity": 92,
      "chip": "ym2612"
    },
    {
      "channel": 1,
      "note": 69,
      "start": 33.0468,
      "duration": 0.2907,
      "velocity": 92,
      "chip": "ym2612"
    },
    {
      "channel": 4,
      "note": 29,
      "start": 33.0488,
      "duration": 0.2376,
      "velocity": 96,
      "chip": "ym2612"
    },
    {
      "channel": 5,
      "note": 29,
      "start": 33.0494,
      "duration": 2.3823,
      "velocity": 107,
      "chip": "ym2612"
    },
    {
      "channel": 2,
      "note": 36,
      "start": 33.2055,
      "duration": 0.238,
      "velocity": 96,
      "chip": "ym2612"
    },
    {
      "channel": 3,
      "note": 29,
      "start": 33.2861,
      "duration": 0.2383,
      "velocity": 96,
      "chip": "ym2612"
    },
    {
      "channel": 1,
      "note": 71,
      "start": 33.3641,
      "duration": 1.2445,
      "velocity": 92,
      "chip": "ym2612"
    },
    {
      "channel": 4,
      "note": 38,
      "start": 33.366,
      "duration": 0.238,
      "velocity": 96,
      "chip": "ym2612"
    },
    {
      "channel": 2,
      "note": 29,
      "start": 33.5233,
      "duration": 0.2379,
      "velocity": 96,
      "chip": "ym2612"
    },
    {
      "channel": 3,
      "note": 38,
      "start": 33.6037,
      "duration": 0.2385,
      "velocity": 96,
      "chip": "ym2612"
    },
    {
      "channel": 4,
      "note": 47,
      "start": 33.6834,
      "duration": 0.2385,
      "velocity": 96,
      "chip": "ym2612"
    },
    {
      "channel": 2,
      "note": 38,
      "start": 33.8412,
      "duration": 0.2379,
      "velocity": 96,
      "chip": "ym2612"
    },
    {
      "channel": 3,
      "note": 47,
      "start": 33.9217,
      "duration": 0.2384,
      "velocity": 96,
      "chip": "ym2612"
    },
    {
      "channel": 4,
      "note": 38,
      "start": 34.0013,
      "duration": 0.2385,
      "velocity": 96,
      "chip": "ym2612"
    },
    {
      "channel": 2,
      "note": 47,
      "start": 34.159,
      "duration": 0.238,
      "velocity": 96,
      "chip": "ym2612"
    },
    {
      "channel": 3,
      "note": 38,
      "start": 34.2394,
      "duration": 0.2384,
      "velocity": 96,
      "chip": "ym2612"
    },
    {
      "channel": 0,
      "note": 71,
      "start": 34.3173,
      "duration": 0.3971,
      "velocity": 92,
      "chip": "ym2612"
    },
    {
      "channel": 4,
      "note": 47,
      "start": 34.3195,
      "duration": 0.2381,
      "velocity": 96,
      "chip": "ym2612"
    },
    {
      "channel": 2,
      "note": 38,
      "start": 34.4767,
      "duration": 0.2382,
      "velocity": 96,
      "chip": "ym2612"
    },
    {
      "channel": 3,
      "note": 47,
      "start": 34.5572,
      "duration": 0.2384,
      "velocity": 96,
      "chip": "ym2612"
    },
    {
      "channel": 1,
      "note": 71,
      "start": 34.6354,
      "duration": 0.397,
      "velocity": 92,
      "chip": "ym2612"
    },
    {
      "channel": 4,
      "note": 38,
      "start": 34.6372,
      "duration": 0.2381,
      "velocity": 96,
      "chip": "ym2612"
    },
    {
      "channel": 0,
      "note": 72,
      "start": 34.7412,
      "duration": 0.397,
      "velocity": 92,
      "chip": "ym2612"
    },
    {
      "channel": 2,
      "note": 47,
      "start": 34.7945,
      "duration": 0.2381,
      "velocity": 96,
      "chip": "ym2612"
    },
    {
      "channel": 3,
      "note": 38,
      "start": 34.875,
      "duration": 0.2385,
      "velocity": 96,
      "chip": "ym2612"
    },
    {
      "channel": 4,
      "note": 47,
      "start": 34.9546,
      "duration": 0.2384,
      "velocity": 96,
      "chip": "ym2612"
    },
    {
      "channel": 1,
      "note": 72,
      "start": 35.0591,
      "duration": 0.397,
      "velocity": 92,
      "chip": "ym2612"
    },
    {
      "channel": 2,
      "note": 38,
      "start": 35.1124,
      "duration": 0.2379,
      "velocity": 96,
      "chip": "ym2612"
    },
    {
      "channel": 0,
      "note": 74,
      "start": 35.1649,
      "duration": 0.397,
      "velocity": 92,
      "chip": "ym2612"
    },
    {
      "channel": 3,
      "note": 47,
      "start": 35.1927,
      "duration": 0.2385,
      "velocity": 96,
      "chip": "ym2612"
    },
    {
      "channel": 4,
      "note": 38,
      "start": 35.2724,
      "duration": 0.2385,
      "velocity": 96,
      "chip": "ym2612"
    },
    {
      "channel": 2,
      "note": 47,
      "start": 35.4301,
      "duration": 0.2382,
      "velocity": 96,
      "chip": "ym2612"
    },
    {
      "channel": 1,
      "note": 74,
      "start": 35.4828,
      "duration": 0.397,
      "velocity": 92,
      "chip": "ym2612"
    },
    {
      "channel": 3,
      "note": 38,
      "start": 35.5107,
      "duration": 0.2384,
      "velocity": 96,
      "chip": "ym2612"
    },
    {
      "channel": 0,
      "note": 69,
      "start": 35.5885,
      "duration": 1.8801,
      "velocity": 92,
      "chip": "ym2612"
    },
    {
      "channel": 4,
      "note": 29,
      "start": 35.5909,
      "duration": 0.238,
      "velocity": 96,
      "chip": "ym2612"
    },
    {
      "channel": 5,
      "note": 29,
      "start": 35.5915,
      "duration": 2.3828,
      "velocity": 107,
      "chip": "ym2612"
    },
    {
      "channel": 2,
      "note": 38,
      "start": 35.748,
      "duration": 0.2381,
      "velocity": 96,
      "chip": "ym2612"
    },
    {
      "channel": 3,
      "note": 29,
      "start": 35.8286,
      "duration": 0.2385,
      "velocity": 96,
      "chip": "ym2612"
    },
    {
      "channel": 1,
      "note": 69,
      "start": 35.9066,
      "duration": 1.8802,
      "velocity": 92,
      "chip": "ym2612"
    },
    {
      "channel": 4,
      "note": 36,
      "start": 35.9084,
      "duration": 0.2382,
      "velocity": 96,
      "chip": "ym2612"
    },
    {
      "channel": 2,
      "note": 29,
      "start": 36.066,
      "duration": 0.2379,
      "velocity": 96,
      "chip": "ym2612"
    },
    {
      "channel": 3,
      "note": 36,
      "start": 36.1462,
      "duration": 0.2385,
      "velocity": 96,
      "chip": "ym2612"
    },
    {
      "channel": 4,
      "note": 45,
      "start": 36.2259,
      "duration": 0.2385,
      "velocity": 96,
      "chip": "ym2612"
    },
    {
      "channel": 2,
      "note": 36,
      "start": 36.3836,
      "duration": 0.238,
      "velocity": 96,
      "chip": "ym2612"
    },
    {
      "channel": 3,
      "note": 45,
      "start": 36.4641,
      "duration": 0.2384,
      "velocity": 96,
      "chip": "ym2612"
    },
    {
      "channel": 4,
      "note": 36,
      "start": 36.5438,
      "duration": 0.2383,
      "velocity": 96,
      "chip": "ym2612"
    },
    {
      "channel": 2,
      "note": 45,
      "start": 36.7014,
      "duration": 0.238,
      "velocity": 96,
      "chip": "ym2612"
    },
    {
      "channel": 3,
      "note": 36,
      "start": 36.7819,
      "duration": 0.2384,
      "velocity": 96,
      "chip": "ym2612"
    },
    {
      "channel": 4,
      "note": 45,
      "start": 36.8616,
      "duration": 0.2385,
      "velocity": 96,
      "chip": "ym2612"
    },
    {
      "channel": 2,
      "note": 36,
      "start": 37.0191,
      "duration": 0.2382,
      "velocity": 96,
      "chip": "ym2612"
    },
    {
      "channel": 3,
      "note": 45,
      "start": 37.0997,
      "duration": 0.2385,
      "velocity": 96,
      "chip": "ym2612"
    },
    {
      "channel": 4,
      "note": 36,
      "start": 37.1794,
      "duration": 0.2383,
      "velocity": 96,
      "chip": "ym2612"
    },
    {
      "channel": 2,
      "note": 45,
      "start": 37.3371,
      "duration": 0.238,
      "velocity": 96,
      "chip": "ym2612"
    },
    {
      "channel": 3,
      "note": 36,
      "start": 37.4174,
      "duration": 0.2385,
      "velocity": 96,
      "chip": "ym2612"
    },
    {
      "channel": 4,
      "note": 45,
      "start": 37.4973,
      "duration": 0.2384,
      "velocity": 96,
      "chip": "ym2612"
    },
    {
      "channel": 2,
      "note": 36,
      "start": 37.6548,
      "duration": 0.238,
      "velocity": 96,
      "chip": "ym2612"
    },
    {
      "channel": 3,
      "note": 45,
      "start": 37.7353,
      "duration": 0.2385,
      "velocity": 96,
      "chip": "ym2612"
    },
    {
      "channel": 0,
      "note": 69,
      "start": 37.8132,
      "duration": 0.2911,
      "velocity": 92,
      "chip": "ym2612"
    },
    {
      "channel": 4,
      "note": 36,
      "start": 37.8154,
      "duration": 0.2379,
      "velocity": 96,
      "chip": "ym2612"
    },
    {
      "channel": 2,
      "note": 45,
      "start": 37.9726,
      "duration": 0.2381,
      "velocity": 96,
      "chip": "ym2612"
    },
    {
      "channel": 3,
      "note": 36,
      "start": 38.053,
      "duration": 0.2386,
      "velocity": 96,
      "chip": "ym2612"
    },
    {
      "channel": 0,
      "note": 79,
      "start": 38.131,
      "duration": 1.2445,
      "velocity": 92,
      "chip": "ym2612"
    },
    {
      "channel": 1,
      "note": 69,
      "start": 38.1316,
      "duration": 0.2907,
      "velocity": 92,
      "chip": "ym2612"
    },
    {
      "channel": 4,
      "note": 29,
      "start": 38.1338,
      "duration": 0.2376,
      "velocity": 96,
      "chip": "ym2612"
    },
    {
      "channel": 5,
      "note": 29,
      "start": 38.1343,
      "duration": 2.383,
      "velocity": 107,
      "chip": "ym2612"
    },
    {
      "channel": 2,
      "note": 36,
      "start": 38.2905,
      "duration": 0.2379,
      "velocity": 96,
      "chip": "ym2612"
    },
    {
      "channel": 3,
      "note": 29,
      "start": 38.371,
      "duration": 0.2384,
      "velocity": 96,
      "chip": "ym2612"
    },
    {
      "channel": 1,
      "note": 79,
      "start": 38.4491,
      "duration": 1.2445,
      "velocity": 92,
      "chip": "ym2612"
    },
    {
      "channel": 4,
      "note": 38,
      "start": 38.451,
      "duration": 0.2382,
      "velocity": 96,
      "chip": "ym2612"
    },
    {
      "channel": 2,
      "note": 29,
      "start": 38.6083,
      "duration": 0.238,
      "velocity": 96,
      "chip": "ym2612"
    },
    {
      "channel": 3,
      "note": 38,
      "start": 38.6888,
      "duration": 0.2384,
      "velocity": 96,
      "chip": "ym2612"
    },
    {
      "channel": 4,
      "note": 47,
      "start": 38.7683,
      "duration": 0.2387,
      "velocity": 96,
      "chip": "ym2612"
    },
    {
      "channel": 2,
      "note": 38,
      "start": 38.9261,
      "duration": 0.2379,
      "velocity": 96,
      "chip": "ym2612"
    },
    {
      "channel": 3,
      "note": 47,
      "start": 39.0067,
      "duration": 0.2384,
      "velocity": 96,
      "chip": "ym2612"
    },
    {
      "channel": 4,
      "note": 38,
      "start": 39.0861,
      "duration": 0.2384,
      "velocity": 96,
      "chip": "ym2612"
    },
    {
      "channel": 2,
      "note": 47,
      "start": 39.2439,
      "duration": 0.2381,
      "velocity": 96,
      "chip": "ym2612"
    },
    {
      "channel": 3,
      "note": 38,
      "start": 39.3242,
      "duration": 0.2386,
      "velocity": 96,
      "chip": "ym2612"
    },
    {
      "channel": 0,
      "note": 77,
      "start": 39.4022,
      "duration": 0.9266,
      "velocity": 92,
      "chip": "ym2612"
    },
    {
      "channel": 4,
      "note": 47,
      "start": 39.4043,
      "duration": 0.2382,
      "velocity": 96,
      "chip": "ym2612"
    },
    {
      "channel": 2,
      "note": 38,
      "start": 39.5617,
      "duration": 0.2381,
      "velocity": 96,
      "chip": "ym2612"
    },
    {
      "channel": 3,
      "note": 47,
      "start": 39.6422,
      "duration": 0.2385,
      "velocity": 96,
      "chip": "ym2612"
    },
    {
      "channel": 1,
      "note": 77,
      "start": 39.7202,
      "duration": 0.9267,
      "velocity": 92,
      "chip": "ym2612"
    },
    {
      "channel": 4,
      "note": 38,
      "start": 39.7221,
      "duration": 0.2382,
      "velocity": 96,
      "chip": "ym2612"
    },
    {
      "channel": 2,
      "note": 47,
      "start": 39.8796,
      "duration": 0.2379,
      "velocity": 96,
      "chip": "ym2612"
    },
    {
      "channel": 3,
      "note": 38,
      "start": 39.9599,
      "duration": 0.2384,
      "velocity": 96,
      "chip": "ym2612"
    },
    {
      "channel": 4,
      "note": 47,
      "start": 40.0396,
      "duration": 0.2384,
      "velocity": 96,
      "chip": "ym2612"
    },
    {
      "channel": 2,
      "note": 38,
      "start": 40.1973,
      "duration": 0.238,
      "velocity": 96,
      "chip": "ym2612"
    },
    {
      "channel": 3,
      "note": 47,
      "start": 40.2777,
      "duration": 0.239,
      "velocity": 96,
      "chip": "ym2612"
    },
    {
      "channel": 0,
      "note": 76,
      "start": 40.3557,
      "duration": 0.1321,
      "velocity": 92,
      "chip": "ym2612"
    },
    {
      "channel": 4,
      "note": 38,
      "start": 40.3578,
      "duration": 0.2381,
      "velocity": 96,
      "chip": "ym2612"
    },
    {
      "channel": 0,
      "note": 74,
      "start": 40.5146,
      "duration": 0.1321,
      "velocity": 92,
      "chip": "ym2612"
    },
    {
      "channel": 2,
      "note": 47,
      "start": 40.5155,
      "duration": 0.2376,
      "velocity": 96,
      "chip": "ym2612"
    },
    {
      "channel": 3,
      "note": 38,
      "start": 40.5956,
      "duration": 0.2388,
      "velocity": 96,
      "chip": "ym2612"
    },
    {
      "channel": 0,
      "note": 76,
      "start": 40.6735,
      "duration": 10.1431,
      "velocity": 92,
      "chip": "ym2612"
    },
    {
      "channel": 1,
      "note": 76,
      "start": 40.674,
      "duration": 0.1319,
      "velocity": 92,
      "chip": "ym2612"
    },
    {
      "channel": 4,
      "note": 33,
      "start": 40.6763,
      "duration": 0.2375,
      "velocity": 96,
      "chip": "ym2612"
    },
    {
      "channel": 5,
      "note": 33,
      "start": 40.6769,
      "duration": 2.3824,
      "velocity": 107,
      "chip": "ym2612"
    },
    {
      "channel": 1,
      "note": 74,
      "start": 40.8326,
      "duration": 0.1321,
      "velocity": 92,
      "chip": "ym2612"
    },
    {
      "channel": 2,
      "note": 38,
      "start": 40.8333,
      "duration": 0.2377,
      "velocity": 96,
      "chip": "ym2612"
    },
    {
      "channel": 3,
      "note": 33,
      "start": 40.9135,
      "duration": 0.2385,
      "velocity": 96,
      "chip": "ym2612"
    },
    {
      "channel": 1,
      "note": 76,
      "start": 40.9916,
      "duration": 10.1431,
      "velocity": 92,
      "chip": "ym2612"
    },
    {
      "channel": 4,
      "note": 40,
      "start": 40.9934,
      "duration": 0.2379,
      "velocity": 96,
      "chip": "ym2612"
    },
    {
      "channel": 2,
      "note": 33,
      "start": 41.1509,
      "duration": 0.2378,
      "velocity": 96,
      "chip": "ym2612"
    },
    {
      "channel": 3,
      "note": 40,
      "start": 41.231,
      "duration": 0.2385,
      "velocity": 96,
      "chip": "ym2612"
    },
    {
      "channel": 4,
      "note": 48,
      "start": 41.3109,
      "duration": 0.2385,
      "velocity": 96,
      "chip": "ym2612"
    },
    {
      "channel": 2,
      "note": 40,
      "start": 41.4684,
      "duration": 0.2382,
      "velocity": 96,
      "chip": "ym2612"
    },
    {
      "channel": 3,
      "note": 48,
      "start": 41.549,
      "duration": 0.2385,
      "velocity": 96,
      "chip": "ym2612"
    },
    {
      "channel": 4,
      "note": 40,
      "start": 41.6285,
      "duration": 0.2385,
      "velocity": 96,
      "chip": "ym2612"
    },
    {
      "channel": 2,
      "note": 48,
      "start": 41.7864,
      "duration": 0.2378,
      "velocity": 96,
      "chip": "ym2612"
    },
    {
      "channel": 3,
      "note": 40,
      "start": 41.8668,
      "duration": 0.2384,
      "velocity": 96,
      "chip": "ym2612"
    },
    {
      "channel": 4,
      "note": 48,
      "start": 41.9464,
      "duration": 0.2384,
      "velocity": 96,
      "chip": "ym2612"
    },
    {
      "channel": 2,
      "note": 40,
      "start": 42.1041,
      "duration": 0.238,
      "velocity": 96,
      "chip": "ym2612"
    },
    {
      "channel": 3,
      "note": 48,
      "start": 42.1845,
      "duration": 0.2386,
      "velocity": 96,
      "chip": "ym2612"
    },
    {
      "channel": 4,
      "note": 40,
      "start": 42.2642,
      "duration": 0.2384,
      "velocity": 96,
      "chip": "ym2612"
    },
    {
      "channel": 2,
      "note": 48,
      "start": 42.4221,
      "duration": 0.2379,
      "velocity": 96,
      "chip": "ym2612"
    },
    {
      "channel": 3,
      "note": 40,
      "start": 42.5023,
      "duration": 0.2384,
      "velocity": 96,
      "chip": "ym2612"
    },
    {
      "channel": 4,
      "note": 48,
      "start": 42.5821,
      "duration": 0.2385,
      "velocity": 96,
      "chip": "ym2612"
    },
    {
      "channel": 2,
      "note": 40,
      "start": 42.7396,
      "duration": 0.2381,
      "velocity": 96,
      "chip": "ym2612"
    },
    {
      "channel": 3,
      "note": 48,
      "start": 42.8202,
      "duration": 0.2385,
      "velocity": 96,
      "chip": "ym2612"
    },
    {
      "channel": 4,
      "note": 40,
      "start": 42.8997,
      "duration": 0.2386,
      "velocity": 96,
      "chip": "ym2612"
    },
    {
      "channel": 2,
      "note": 48,
      "start": 43.0576,
      "duration": 0.2379,
      "velocity": 96,
      "chip": "ym2612"
    },
    {
      "channel": 3,
      "note": 40,
      "start": 43.138,
      "duration": 0.2385,
      "velocity": 96,
      "chip": "ym2612"
    },
    {
      "channel": 4,
      "note": 33,
      "start": 43.2178,
      "duration": 0.2383,
      "velocity": 96,
      "chip": "ym2612"
    },
    {
      "channel": 5,
      "note": 33,
      "start": 43.2184,
      "duration": 2.3832,
      "velocity": 107,
      "chip": "ym2612"
    },
    {
      "channel": 2,
      "note": 40,
      "start": 43.3754,
      "duration": 0.2379,
      "velocity": 96,
      "chip": "ym2612"
    },
    {
      "channel": 3,
      "note": 33,
      "start": 43.4558,
      "duration": 0.2385,
      "velocity": 96,
      "chip": "ym2612"
    },
    {
      "channel": 4,
      "note": 41,
      "start": 43.5353,
      "duration": 0.2385,
      "velocity": 96,
      "chip": "ym2612"
    },
    {
      "channel": 2,
      "note": 33,
      "start": 43.6932,
      "duration": 0.238,
      "velocity": 96,
      "chip": "ym2612"
    },
    {
      "channel": 3,
      "note": 41,
      "start": 43.7735,
      "duration": 0.2384,
      "velocity": 96,
      "chip": "ym2612"
    },
    {
      "channel": 4,
      "note": 48,
      "start": 43.8532,
      "duration": 0.2385,
      "velocity": 96,
      "chip": "ym2612"
    },
    {
      "channel": 2,
      "note": 41,
      "start": 44.0108,
      "duration": 0.2382,
      "velocity": 96,
      "chip": "ym2612"
    },
    {
      "channel": 3,
      "note": 48,
      "start": 44.0914,
      "duration": 0.2384,
      "velocity": 96,
      "chip": "ym2612"
    },
    {
      "channel": 4,
      "note": 41,
      "start": 44.171,
      "duration": 0.2385,
      "velocity": 96,
      "chip": "ym2612"
    },
    {
      "channel": 2,
      "note": 48,
      "start": 44.3288,
      "duration": 0.2381,
      "velocity": 96,
      "chip": "ym2612"
    },
    {
      "channel": 3,
      "note": 41,
      "start": 44.4092,
      "duration": 0.2384,
      "velocity": 96,
      "chip": "ym2612"
    },
    {
      "channel": 4,
      "note": 48,
      "start": 44.4889,
      "duration": 0.2384,
      "velocity": 96,
      "chip": "ym2612"
    },
    {
      "channel": 2,
      "note": 41,
      "start": 44.6465,
      "duration": 0.238,
      "velocity": 96,
      "chip": "ym2612"
    },
    {
      "channel": 3,
      "note": 48,
      "start": 44.727,
      "duration": 0.2387,
      "velocity": 96,
      "chip": "ym2612"
    },
    {
      "channel": 4,
      "note": 41,
      "start": 44.8067,
      "duration": 0.2385,
      "velocity": 96,
      "chip": "ym2612"
    },
    {
      "channel": 2,
      "note": 48,
      "start": 44.9644,
      "duration": 0.238,
      "velocity": 96,
      "chip": "ym2612"
    },
    {
      "channel": 3,
      "note": 41,
      "start": 45.0449,
      "duration": 0.2385,
      "velocity": 96,
      "chip": "ym2612"
    },
    {
      "channel": 4,
      "note": 48,
      "start": 45.1246,
      "duration": 0.2383,
      "velocity": 96,
      "chip": "ym2612"
    },
    {
      "channel": 2,
      "note": 41,
      "start": 45.2822,
      "duration": 0.238,
      "velocity": 96,
      "chip": "ym2612"
    },
    {
      "channel": 3,
      "note": 48,
      "start": 45.3626,
      "duration": 0.2385,
      "velocity": 96,
      "chip": "ym2612"
    },
    {
      "channel": 4,
      "note": 41,
      "start": 45.4422,
      "duration": 0.2386,
      "velocity": 96,
      "chip": "ym2612"
    },
    {
      "channel": 2,
      "note": 48,
      "start": 45.5999,
      "duration": 0.2382,
      "velocity": 96,
      "chip": "ym2612"
    },
    {
      "channel": 3,
      "note": 41,
      "start": 45.6805,
      "duration": 0.2384,
      "velocity": 96,
      "chip": "ym2612"
    },
    {
      "channel": 4,
      "note": 33,
      "start": 45.7605,
      "duration": 0.2382,
      "velocity": 96,
      "chip": "ym2612"
    },
    {
      "channel": 5,
      "note": 33,
      "start": 45.7611,
      "duration": 2.383,
      "velocity": 107,
      "chip": "ym2612"
    },
    {
      "channel": 2,
      "note": 41,
      "start": 45.9179,
      "duration": 0.2381,
      "velocity": 96,
      "chip": "ym2612"
    },
    {
      "channel": 3,
      "note": 33,
      "start": 45.9983,
      "duration": 0.2384,
      "velocity": 96,
      "chip": "ym2612"
    },
    {
      "channel": 4,
      "note": 42,
      "start": 46.0781,
      "duration": 0.2384,
      "velocity": 96,
      "chip": "ym2612"
    },
    {
      "channel": 2,
      "note": 33,
      "start": 46.2356,
      "duration": 0.2381,
      "velocity": 96,
      "chip": "ym2612"
    },
    {
      "channel": 3,
      "note": 42,
      "start": 46.3161,
      "duration": 0.2384,
      "velocity": 96,
      "chip": "ym2612"
    },
    {
      "channel": 4,
      "note": 48,
      "start": 46.3957,
      "duration": 0.2385,
      "velocity": 96,
      "chip": "ym2612"
    },
    {
      "channel": 2,
      "note": 42,
      "start": 46.5534,
      "duration": 0.238,
      "velocity": 96,
      "chip": "ym2612"
    },
    {
      "channel": 3,
      "note": 48,
      "start": 46.634,
      "duration": 0.2384,
      "velocity": 96,
      "chip": "ym2612"
    },
    {
      "channel": 4,
      "note": 42,
      "start": 46.7135,
      "duration": 0.2384,
      "velocity": 96,
      "chip": "ym2612"
    },
    {
      "channel": 2,
      "note": 48,
      "start": 46.8712,
      "duration": 0.238,
      "velocity": 96,
      "chip": "ym2612"
    },
    {
      "channel": 3,
      "note": 42,
      "start": 46.9516,
      "duration": 0.2385,
      "velocity": 96,
      "chip": "ym2612"
    },
    {
      "channel": 4,
      "note": 48,
      "start": 47.0315,
      "duration": 0.2384,
      "velocity": 96,
      "chip": "ym2612"
    },
    {
      "channel": 2,
      "note": 42,
      "start": 47.189,
      "duration": 0.2381,
      "velocity": 96,
      "chip": "ym2612"
    },
    {
      "channel": 3,
      "note": 48,
      "start": 47.2696,
      "duration": 0.2383,
      "velocity": 96,
      "chip": "ym2612"
    },
    {
      "channel": 4,
      "note": 42,
      "start": 47.3492,
      "duration": 0.2384,
      "velocity": 96,
      "chip": "ym2612"
    },
    {
      "channel": 2,
      "note": 48,
      "start": 47.5068,
      "duration": 0.2382,
      "velocity": 96,
      "chip": "ym2612"
    },
    {
      "channel": 3,
      "note": 42,
      "start": 47.5873,
      "duration": 0.2385,
      "velocity": 96,
      "chip": "ym2612"
    },
    {
      "channel": 4,
      "note": 48,
      "start": 47.6671,
      "duration": 0.2383,
      "velocity": 96,
      "chip": "ym2612"
    },
    {
      "channel": 2,
      "note": 42,
      "start": 47.8247,
      "duration": 0.238,
      "velocity": 96,
      "chip": "ym2612"
    },
    {
      "channel": 3,
      "note": 48,
      "start": 47.9051,
      "duration": 0.2385,
      "velocity": 96,
      "chip": "ym2612"
    },
    {
      "channel": 4,
      "note": 42,
      "start": 47.9847,
      "duration": 0.2384,
      "velocity": 96,
      "chip": "ym2612"
    },
    {
      "channel": 2,
      "note": 48,
      "start": 48.1425,
      "duration": 0.2381,
      "velocity": 96,
      "chip": "ym2612"
    },
    {
      "channel": 3,
      "note": 42,
      "start": 48.2228,
      "duration": 0.2386,
      "velocity": 96,
      "chip": "ym2612"
    },
    {
      "channel": 4,
      "note": 33,
      "start": 48.3028,
      "duration": 0.2384,
      "velocity": 96,
      "chip": "ym2612"
    },
    {
      "channel": 5,
      "note": 33,
      "start": 48.3034,
      "duration": 2.3828,
      "velocity": 107,
      "chip": "ym2612"
    },
    {
      "channel": 2,
      "note": 42,
      "start": 48.4603,
      "duration": 0.238,
      "velocity": 96,
      "chip": "ym2612"
    },
    {
      "channel": 3,
      "note": 33,
      "start": 48.5408,
      "duration": 0.2383,
      "velocity": 96,
      "chip": "ym2612"
    },
    {
      "channel": 4,
      "note": 41,
      "start": 48.6204,
      "duration": 0.2384,
      "velocity": 96,
      "chip": "ym2612"
    },
    {
      "channel": 2,
      "note": 33,
      "start": 48.778,
      "duration": 0.2382,
      "velocity": 96,
      "chip": "ym2612"
    },
    {
      "channel": 3,
      "note": 41,
      "start": 48.8585,
      "duration": 0.2384,
      "velocity": 96,
      "chip": "ym2612"
    },
    {
      "channel": 4,
      "note": 48,
      "start": 48.9383,
      "duration": 0.2382,
      "velocity": 96,
      "chip": "ym2612"
    },
    {
      "channel": 2,
      "note": 41,
      "start": 49.0958,
      "duration": 0.2382,
      "velocity": 96,
      "chip": "ym2612"
    },
    {
      "channel": 3,
      "note": 48,
      "start": 49.1763,
      "duration": 0.2385,
      "velocity": 96,
      "chip": "ym2612"
    },
    {
      "channel": 4,
      "note": 52,
      "start": 49.2559,
      "duration": 0.2386,
      "velocity": 96,
      "chip": "ym2612"
    },
    {
      "channel": 2,
      "note": 48,
      "start": 49.4137,
      "duration": 0.238,
      "velocity": 96,
      "chip": "ym2612"
    },
    {
      "channel": 3,
      "note": 52,
      "start": 49.4941,
      "duration": 0.2383,
      "velocity": 96,
      "chip": "ym2612"
    },
    {
      "channel": 4,
      "note": 59,
      "start": 49.5738,
      "duration": 1.1915,
      "velocity": 96,
      "chip": "ym2612"
    },
    {
      "channel": 2,
      "note": 52,
      "start": 49.7314,
      "duration": 0.2382,
      "velocity": 96,
      "chip": "ym2612"
    },
    {
      "channel": 3,
      "note": 59,
      "start": 49.812,
      "duration": 1.1913,
      "velocity": 96,
      "chip": "ym2612"
    },
    {
      "channel": 2,
      "note": 59,
      "start": 50.0493,
      "duration": 1.1915,
      "velocity": 96,
      "chip": "ym2612"
    },
    {
      "channel": 0,
      "note": 76,
      "start": 50.8434,
      "duration": 4.7402,
      "velocity": 92,
      "chip": "ym2612"
    },
    {
      "channel": 4,
      "note": 33,
      "start": 50.8462,
      "duration": 0.2376,
      "velocity": 96,
      "chip": "ym2612"
    },
    {
      "channel": 5,
      "note": 33,
      "start": 50.8468,
      "duration": 2.3826,
      "velocity": 107,
      "chip": "ym2612"
    },
    {
      "channel": 3,
      "note": 33,
      "start": 51.0835,
      "duration": 0.2384,
      "velocity": 96,
      "chip": "ym2612"
    },
    {
      "channel": 1,
      "note": 76,
      "start": 51.1614,
      "duration": 4.7405,
      "velocity": 92,
      "chip": "ym2612"
    },
    {
      "channel": 4,
      "note": 40,
      "start": 51.1632,
      "duration": 0.2383,
      "velocity": 96,
      "chip": "ym2612"
    },
    {
      "channel": 2,
      "note": 33,
      "start": 51.3207,
      "duration": 0.2379,
      "velocity": 96,
      "chip": "ym2612"
    },
    {
      "channel": 3,
      "note": 40,
      "start": 51.4011,
      "duration": 0.2385,
      "velocity": 96,
      "chip": "ym2612"
    },
    {
      "channel": 4,
      "note": 48,
      "start": 51.4809,
      "duration": 0.2386,
      "velocity": 96,
      "chip": "ym2612"
    },
    {
      "channel": 2,
      "note": 40,
      "start": 51.6382,
      "duration": 0.2381,
      "velocity": 96,
      "chip": "ym2612"
    },
    {
      "channel": 3,
      "note": 48,
      "start": 51.7192,
      "duration": 0.2384,
      "velocity": 96,
      "chip": "ym2612"
    },
    {
      "channel": 4,
      "note": 40,
      "start": 51.7988,
      "duration": 0.2387,
      "velocity": 96,
      "chip": "ym2612"
    },
    {
      "channel": 2,
      "note": 48,
      "start": 51.9561,
      "duration": 0.238,
      "velocity": 96,
      "chip": "ym2612"
    },
    {
      "channel": 3,
      "note": 40,
      "start": 52.0371,
      "duration": 0.2384,
      "velocity": 96,
      "chip": "ym2612"
    },
    {
      "channel": 4,
      "note": 48,
      "start": 52.1167,
      "duration": 0.2385,
      "velocity": 96,
      "chip": "ym2612"
    },
    {
      "channel": 2,
      "note": 40,
      "start": 52.274,
      "duration": 0.2381,
      "velocity": 96,
      "chip": "ym2612"
    },
    {
      "channel": 3,
      "note": 48,
      "start": 52.3549,
      "duration": 0.2384,
      "velocity": 96,
      "chip": "ym2612"
    },
    {
      "channel": 4,
      "note": 40,
      "start": 52.4346,
      "duration": 0.2383,
      "velocity": 96,
      "chip": "ym2612"
    },
    {
      "channel": 2,
      "note": 48,
      "start": 52.5918,
      "duration": 0.2382,
      "velocity": 96,
      "chip": "ym2612"
    },
    {
      "channel": 3,
      "note": 40,
      "start": 52.6726,
      "duration": 0.2384,
      "velocity": 96,
      "chip": "ym2612"
    },
    {
      "channel": 4,
      "note": 48,
      "start": 52.7528,
      "duration": 0.2382,
      "velocity": 96,
      "chip": "ym2612"
    },
    {
      "channel": 2,
      "note": 40,
      "start": 52.9095,
      "duration": 0.238,
      "velocity": 96,
      "chip": "ym2612"
    },
    {
      "channel": 3,
      "note": 48,
      "start": 52.9906,
      "duration": 0.2383,
      "velocity": 96,
      "chip": "ym2612"
    },
    {
      "channel": 4,
      "note": 40,
      "start": 53.0698,
      "duration": 0.2385,
      "velocity": 96,
      "chip": "ym2612"
    },
    {
      "channel": 2,
      "note": 48,
      "start": 53.2275,
      "duration": 0.238,
      "velocity": 96,
      "chip": "ym2612"
    },
    {
      "channel": 3,
      "note": 40,
      "start": 53.308,
      "duration": 0.2385,
      "velocity": 96,
      "chip": "ym2612"
    },
    {
      "channel": 4,
      "note": 33,
      "start": 53.388,
      "duration": 0.2382,
      "velocity": 96,
      "chip": "ym2612"
    },
    {
      "channel": 5,
      "note": 33,
      "start": 53.3886,
      "duration": 2.3836,
      "velocity": 107,
      "chip": "ym2612"
    },
    {
      "channel": 2,
      "note": 40,
      "start": 53.5453,
      "duration": 0.238,
      "velocity": 96,
      "chip": "ym2612"
    },
    {
      "channel": 3,
      "note": 33,
      "start": 53.6259,
      "duration": 0.2385,
      "velocity": 96,
      "chip": "ym2612"
    },
    {
      "channel": 4,
      "note": 41,
      "start": 53.7054,
      "duration": 0.2386,
      "velocity": 96,
      "chip": "ym2612"
    },
    {
      "channel": 2,
      "note": 33,
      "start": 53.863,
      "duration": 0.238,
      "velocity": 96,
      "chip": "ym2612"
    },
    {
      "channel": 3,
      "note": 41,
      "start": 53.9436,
      "duration": 0.2386,
      "velocity": 96,
      "chip": "ym2612"
    },
    {
      "channel": 4,
      "note": 48,
      "start": 54.0235,
      "duration": 0.2385,
      "velocity": 96,
      "chip": "ym2612"
    },
    {
      "channel": 2,
      "note": 41,
      "start": 54.1808,
      "duration": 0.2382,
      "velocity": 96,
      "chip": "ym2612"
    },
    {
      "channel": 3,
      "note": 48,
      "start": 54.2616,
      "duration": 0.2386,
      "velocity": 96,
      "chip": "ym2612"
    },
    {
      "channel": 4,
      "note": 41,
      "start": 54.3413,
      "duration": 0.2385,
      "velocity": 96,
      "chip": "ym2612"
    },
    {
      "channel": 2,
      "note": 48,
      "start": 54.4987,
      "duration": 0.238,
      "velocity": 96,
      "chip": "ym2612"
    },
    {
      "channel": 3,
      "note": 41,
      "start": 54.5795,
      "duration": 0.2384,
      "velocity": 96,
      "chip": "ym2612"
    },
    {
      "channel": 4,
      "note": 48,
      "start": 54.6597,
      "duration": 0.2381,
      "velocity": 96,
      "chip": "ym2612"
    },
    {
      "channel": 2,
      "note": 41,
      "start": 54.8165,
      "duration": 0.238,
      "velocity": 96,
      "chip": "ym2612"
    },
    {
      "channel": 3,
      "note": 48,
      "start": 54.8974,
      "duration": 0.2383,
      "velocity": 96,
      "chip": "ym2612"
    },
    {
      "channel": 4,
      "note": 41,
      "start": 54.9768,
      "duration": 0.2385,
      "velocity": 96,
      "chip": "ym2612"
    },
    {
      "channel": 2,
      "note": 48,
      "start": 55.1343,
      "duration": 0.2379,
      "velocity": 96,
      "chip": "ym2612"
    },
    {
      "channel": 3,
      "note": 41,
      "start": 55.2149,
      "duration": 0.2387,
      "velocity": 96,
      "chip": "ym2612"
    },
    {
      "channel": 4,
      "note": 48,
      "start": 55.2946,
      "duration": 0.2387,
      "velocity": 96,
      "chip": "ym2612"
    },
    {
      "channel": 2,
      "note": 41,
      "start": 55.4522,
      "duration": 0.2378,
      "velocity": 96,
      "chip": "ym2612"
    },
    {
      "channel": 3,
      "note": 48,
      "start": 55.533,
      "duration": 0.2387,
      "velocity": 96,
      "chip": "ym2612"
    },
    {
      "channel": 0,
      "note": 74,
      "start": 55.6105,
      "duration": 0.1322,
      "velocity": 92,
      "chip": "ym2612"
    },
    {
      "channel": 4,
      "note": 41,
      "start": 55.6128,
      "duration": 0.2384,
      "velocity": 96,
      "chip": "ym2612"
    },
    {
      "channel": 0,
      "note": 72,
      "start": 55.7693,
      "duration": 0.1324,
      "velocity": 92,
      "chip": "ym2612"
    },
    {
      "channel": 2,
      "note": 48,
      "start": 55.7702,
      "duration": 0.2378,
      "velocity": 96,
      "chip": "ym2612"
    },
    {
      "channel": 3,
      "note": 41,
      "start": 55.8509,
      "duration": 0.2386,
      "velocity": 96,
      "chip": "ym2612"
    },
    {
      "channel": 0,
      "note": 71,
      "start": 55.9283,
      "duration": 4.7405,
      "velocity": 92,
      "chip": "ym2612"
    },
    {
      "channel": 1,
      "note": 74,
      "start": 55.9289,
      "duration": 0.1318,
      "velocity": 92,
      "chip": "ym2612"
    },
    {
      "channel": 4,
      "note": 33,
      "start": 55.9314,
      "duration": 0.2375,
      "velocity": 96,
      "chip": "ym2612"
    },
    {
      "channel": 5,
      "note": 33,
      "start": 55.9321,
      "duration": 2.3822,
      "velocity": 107,
      "chip": "ym2612"
    },
    {
      "channel": 1,
      "note": 72,
      "start": 56.0875,
      "duration": 0.1322,
      "velocity": 92,
      "chip": "ym2612"
    },
    {
      "channel": 2,
      "note": 41,
      "start": 56.0881,
      "duration": 0.2375,
      "velocity": 96,
      "chip": "ym2612"
    },
    {
      "channel": 3,
      "note": 33,
      "start": 56.1686,
      "duration": 0.2383,
      "velocity": 96,
      "chip": "ym2612"
    },
    {
      "channel": 1,
      "note": 71,
      "start": 56.2462,
      "duration": 4.7405,
      "velocity": 92,
      "chip": "ym2612"
    },
    {
      "channel": 4,
      "note": 42,
      "start": 56.2481,
      "duration": 0.2382,
      "velocity": 96,
      "chip": "ym2612"
    },
    {
      "channel": 2,
      "note": 33,
      "start": 56.4055,
      "duration": 0.2382,
      "velocity": 96,
      "chip": "ym2612"
    },
    {
      "channel": 3,
      "note": 42,
      "start": 56.486,
      "duration": 0.2386,
      "velocity": 96,
      "chip": "ym2612"
    },
    {
      "channel": 4,
      "note": 48,
      "start": 56.566,
      "duration": 0.2384,
      "velocity": 96,
      "chip": "ym2612"
    },
    {
      "channel": 2,
      "note": 42,
      "start": 56.7232,
      "duration": 0.238,
      "velocity": 96,
      "chip": "ym2612"
    },
    {
      "channel": 3,
      "note": 48,
      "start": 56.8041,
      "duration": 0.2387,
      "velocity": 96,
      "chip": "ym2612"
    },
    {
      "channel": 4,
      "note": 42,
      "start": 56.8837,
      "duration": 0.2387,
      "velocity": 96,
      "chip": "ym2612"
    },
    {
      "channel": 2,
      "note": 48,
      "start": 57.0412,
      "duration": 0.238,
      "velocity": 96,
      "chip": "ym2612"
    },
    {
      "channel": 3,
      "note": 42,
      "start": 57.1221,
      "duration": 0.2384,
      "velocity": 96,
      "chip": "ym2612"
    },
    {
      "channel": 4,
      "note": 48,
      "start": 57.2017,
      "duration": 0.2385,
      "velocity": 96,
      "chip": "ym2612"
    },
    {
      "channel": 2,
      "note": 42,
      "start": 57.359,
      "duration": 0.2379,
      "velocity": 96,
      "chip": "ym2612"
    },
    {
      "channel": 3,
      "note": 48,
      "start": 57.4399,
      "duration": 0.2382,
      "velocity": 96,
      "chip": "ym2612"
    },
    {
      "channel": 4,
      "note": 42,
      "start": 57.5195,
      "duration": 0.2385,
      "velocity": 96,
      "chip": "ym2612"
    },
    {
      "channel": 2,
      "note": 48,
      "start": 57.6766,
      "duration": 0.2381,
      "velocity": 96,
      "chip": "ym2612"
    },
    {
      "channel": 3,
      "note": 42,
      "start": 57.7577,
      "duration": 0.2382,
      "velocity": 96,
      "chip": "ym2612"
    },
    {
      "channel": 4,
      "note": 48,
      "start": 57.8376,
      "duration": 0.2382,
      "velocity": 96,
      "chip": "ym2612"
    },
    {
      "channel": 2,
      "note": 42,
      "start": 57.9945,
      "duration": 0.238,
      "velocity": 96,
      "chip": "ym2612"
    },
    {
      "channel": 3,
      "note": 48,
      "start": 58.0754,
      "duration": 0.2384,
      "velocity": 96,
      "chip": "ym2612"
    },
    {
      "channel": 4,
      "note": 42,
      "start": 58.1549,
      "duration": 0.2383,
      "velocity": 96,
      "chip": "ym2612"
    },
    {
      "channel": 2,
      "note": 48,
      "start": 58.3124,
      "duration": 0.2379,
      "velocity": 96,
      "chip": "ym2612"
    },
    {
      "channel": 3,
      "note": 42,
      "start": 58.3929,
      "duration": 0.2385,
      "velocity": 96,
      "chip": "ym2612"
    },
    {
      "channel": 4,
      "note": 33,
      "start": 58.4729,
      "duration": 0.2382,
      "velocity": 96,
      "chip": "ym2612"
    },
    {
      "channel": 5,
      "note": 33,
      "start": 58.4735,
      "duration": 2.3837,
      "velocity": 107,
      "chip": "ym2612"
    },
    {
      "channel": 2,
      "note": 42,
      "start": 58.6301,
      "duration": 0.2381,
      "velocity": 96,
      "chip": "ym2612"
    },
    {
      "channel": 3,
      "note": 33,
      "start": 58.7108,
      "duration": 0.2387,
      "velocity": 96,
      "chip": "ym2612"
    },
    {
      "channel": 4,
      "note": 41,
      "start": 58.7902,
      "duration": 0.2387,
      "velocity": 96,
      "chip": "ym2612"
    },
    {
      "channel": 2,
      "note": 33,
      "start": 58.948,
      "duration": 0.238,
      "velocity": 96,
      "chip": "ym2612"
    },
    {
      "channel": 3,
      "note": 41,
      "start": 59.0285,
      "duration": 0.2386,
      "velocity": 96,
      "chip": "ym2612"
    },
    {
      "channel": 4,
      "note": 48,
      "start": 59.1083,
      "duration": 0.2387,
      "velocity": 96,
      "chip": "ym2612"
    },
    {
      "channel": 2,
      "note": 41,
      "start": 59.2658,
      "duration": 0.238,
      "velocity": 96,
      "chip": "ym2612"
    },
    {
      "channel": 3,
      "note": 48,
      "start": 59.3467,
      "duration": 0.2385,
      "velocity": 96,
      "chip": "ym2612"
    },
    {
      "channel": 4,
      "note": 41,
      "start": 59.4261,
      "duration": 0.2385,
      "velocity": 96,
      "chip": "ym2612"
    },
    {
      "channel": 2,
      "note": 48,
      "start": 59.5837,
      "duration": 0.238,
      "velocity": 96,
      "chip": "ym2612"
    },
    {
      "channel": 3,
      "note": 41,
      "start": 59.6644,
      "duration": 0.2383,
      "velocity": 96,
      "chip": "ym2612"
    },
    {
      "channel": 4,
      "note": 48,
      "start": 59.7445,
      "duration": 0.2383,
      "velocity": 96,
      "chip": "ym2612"
    },
    {
      "channel": 2,
      "note": 41,
      "start": 59.9013,
      "duration": 0.238,
      "velocity": 96,
      "chip": "ym2612"
    },
    {
      "channel": 3,
      "note": 48,
      "start": 59.9824,
      "duration": 0.2381,
      "velocity": 96,
      "chip": "ym2612"
    },
    {
      "channel": 4,
      "note": 41,
      "start": 60.0617,
      "duration": 0.2383,
      "velocity": 96,
      "chip": "ym2612"
    },
    {
      "channel": 2,
      "note": 48,
      "start": 60.2191,
      "duration": 0.238,
      "velocity": 96,
      "chip": "ym2612"
    },
    {
      "channel": 3,
      "note": 41,
      "start": 60.2997,
      "duration": 0.2388,
      "velocity": 96,
      "chip": "ym2612"
    },
    {
      "channel": 4,
      "note": 48,
      "start": 60.3796,
      "duration": 0.2386,
      "velocity": 96,
      "chip": "ym2612"
    },
    {
      "channel": 2,
      "note": 41,
      "start": 60.5371,
      "duration": 0.238,
      "velocity": 96,
      "chip": "ym2612"
    },
    {
      "channel": 3,
      "note": 48,
      "start": 60.6179,
      "duration": 0.2388,
      "velocity": 96,
      "chip": "ym2612"
    },
    {
      "channel": 0,
      "note": 72,
      "start": 60.6953,
      "duration": 0.1322,
      "velocity": 92,
      "chip": "ym2612"
    },
    {
      "channel": 4,
      "note": 41,
      "start": 60.6976,
      "duration": 0.2384,
      "velocity": 96,
      "chip": "ym2612"
    },
    {
      "channel": 0,
      "note": 74,
      "start": 60.8543,
      "duration": 0.1321,
      "velocity": 92,
      "chip": "ym2612"
    },
    {
      "channel": 2,
      "note": 48,
      "start": 60.8551,
      "duration": 0.2378,
      "velocity": 96,
      "chip": "ym2612"
    },
    {
      "channel": 3,
      "note": 41,
      "start": 60.9357,
      "duration": 0.2387,
      "velocity": 96,
      "chip": "ym2612"
    },
    {
      "channel": 0,
      "note": 76,
      "start": 61.0132,
      "duration": 0.6089,
      "velocity": 92,
      "chip": "ym2612"
    },
    {
      "channel": 1,
      "note": 72,
      "start": 61.0137,
      "duration": 0.1319,
      "velocity": 92,
      "chip": "ym2612"
    },
    {
      "channel": 4,
      "note": 33,
      "start": 61.0164,
      "duration": 0.2375,
      "velocity": 96,
      "chip": "ym2612"
    },
    {
      "channel": 5,
      "note": 33,
      "start": 61.017,
      "duration": 2.382,
      "velocity": 107,
      "chip": "ym2612"
    },
    {
      "channel": 1,
      "note": 74,
      "start": 61.1724,
      "duration": 0.1321,
      "velocity": 92,
      "chip": "ym2612"
    },
    {
      "channel": 2,
      "note": 41,
      "start": 61.173,
      "duration": 0.2377,
      "velocity": 96,
      "chip": "ym2612"
    },
    {
      "channel": 3,
      "note": 33,
      "start": 61.2536,
      "duration": 0.2383,
      "velocity": 96,
      "chip": "ym2612"
    },
    {
      "channel": 1,
      "note": 76,
      "start": 61.3312,
      "duration": 0.609,
      "velocity": 92,
      "chip": "ym2612"
    },
    {
      "channel": 4,
      "note": 40,
      "start": 61.3332,
      "duration": 0.238,
      "velocity": 96,
      "chip": "ym2612"
    },
    {
      "channel": 2,
      "note": 33,
      "start": 61.4904,
      "duration": 0.238,
      "velocity": 96,
      "chip": "ym2612"
    },
    {
      "channel": 3,
      "note": 40,
      "start": 61.5709,
      "duration": 0.2386,
      "velocity": 96,
      "chip": "ym2612"
    },
    {
      "channel": 0,
      "note": 69,
      "start": 61.6488,
      "duration": 0.6089,
      "velocity": 92,
      "chip": "ym2612"
    },
    {
      "channel": 4,
      "note": 48,
      "start": 61.6511,
      "duration": 0.2382,
      "velocity": 96,
      "chip": "ym2612"
    },
    {
      "channel": 2,
      "note": 40,
      "start": 61.8081,
      "duration": 0.2382,
      "velocity": 96,
      "chip": "ym2612"
    },
    {
      "channel": 3,
      "note": 48,
      "start": 61.889,
      "duration": 0.2385,
      "velocity": 96,
      "chip": "ym2612"
    },
    {
      "channel": 1,
      "note": 69,
      "start": 61.9667,
      "duration": 0.6089,
      "velocity": 92,
      "chip": "ym2612"
    },
    {
      "channel": 4,
      "note": 40,
      "start": 61.9688,
      "duration": 0.2384,
      "velocity": 96,
      "chip": "ym2612"
    },
    {
      "channel": 2,
      "note": 48,
      "start": 62.126,
      "duration": 0.238,
      "velocity": 96,
      "chip": "ym2612"
    },
    {
      "channel": 3,
      "note": 40,
      "start": 62.2069,
      "duration": 0.2384,
      "velocity": 96,
      "chip": "ym2612"
    },
    {
      "channel": 0,
      "note": 81,
      "start": 62.2844,
      "duration": 2.5159,
      "velocity": 92,
      "chip": "ym2612"
    },
    {
      "channel": 4,
      "note": 48,
      "start": 62.2871,
      "duration": 0.2382,
      "velocity": 96,
      "chip": "ym2612"
    },
    {
      "channel": 2,
      "note": 40,
      "start": 62.4438,
      "duration": 0.2382,
      "velocity": 96,
      "chip": "ym2612"
    },
    {
      "channel": 3,
      "note": 48,
      "start": 62.525,
      "duration": 0.2382,
      "velocity": 96,
      "chip": "ym2612"
    },
    {
      "channel": 1,
      "note": 81,
      "start": 62.6025,
      "duration": 2.5157,
      "velocity": 92,
      "chip": "ym2612"
    },
    {
      "channel": 4,
      "note": 40,
      "start": 62.6053,
      "duration": 0.2376,
      "velocity": 96,
      "chip": "ym2612"
    },
    {
      "channel": 2,
      "note": 48,
      "start": 62.7616,
      "duration": 0.2381,
      "velocity": 96,
      "chip": "ym2612"
    },
    {
      "channel": 3,
      "note": 40,
      "start": 62.8425,
      "duration": 0.2382,
      "velocity": 96,
      "chip": "ym2612"
    },
    {
      "channel": 4,
      "note": 48,
      "start": 62.9225,
      "duration": 0.238,
      "velocity": 96,
      "chip": "ym2612"
    },
    {
      "channel": 2,
      "note": 40,
      "start": 63.0795,
      "duration": 0.2381,
      "velocity": 96,
      "chip": "ym2612"
    },
    {
      "channel": 3,
      "note": 48,
      "start": 63.1602,
      "duration": 0.2382,
      "velocity": 96,
      "chip": "ym2612"
    },
    {
      "channel": 4,
      "note": 40,
      "start": 63.2401,
      "duration": 0.2381,
      "velocity": 96,
      "chip": "ym2612"
    },
    {
      "channel": 2,
      "note": 48,
      "start": 63.3973,
      "duration": 0.238,
      "velocity": 96,
      "chip": "ym2612"
    },
    {
      "channel": 3,
      "note": 40,
      "start": 63.4778,
      "duration": 0.2384,
      "velocity": 96,
      "chip": "ym2612"
    },
    {
      "channel": 4,
      "note": 33,
      "start": 63.5579,
      "duration": 0.2383,
      "velocity": 96,
      "chip": "ym2612"
    },
    {
      "channel": 5,
      "note": 33,
      "start": 63.5585,
      "duration": 2.3838,
      "velocity": 107,
      "chip": "ym2612"
    },
    {
      "channel": 2,
      "note": 40,
      "start": 63.7151,
      "duration": 0.238,
      "velocity": 96,
      "chip": "ym2612"
    },
    {
      "channel": 3,
      "note": 33,
      "start": 63.7958,
      "duration": 0.2384,
      "velocity": 96,
      "chip": "ym2612"
    },
    {
      "channel": 4,
      "note": 41,
      "start": 63.8751,
      "duration": 0.2387,
      "velocity": 96,
      "chip": "ym2612"
    },
    {
      "channel": 2,
      "note": 33,
      "start": 64.0329,
      "duration": 0.2379,
      "velocity": 96,
      "chip": "ym2612"
    },
    {
      "channel": 3,
      "note": 41,
      "start": 64.1135,
      "duration": 0.2384,
      "velocity": 96,
      "chip": "ym2612"
    },
    {
      "channel": 4,
      "note": 48,
      "start": 64.1935,
      "duration": 0.2384,
      "velocity": 96,
      "chip": "ym2612"
    },
    {
      "channel": 2,
      "note": 41,
      "start": 64.3506,
      "duration": 0.2381,
      "velocity": 96,
      "chip": "ym2612"
    },
    {
      "channel": 3,
      "note": 48,
      "start": 64.4315,
      "duration": 0.2384,
      "velocity": 96,
      "chip": "ym2612"
    },
    {
      "channel": 4,
      "note": 41,
      "start": 64.5108,
      "duration": 0.2387,
      "velocity": 96,
      "chip": "ym2612"
    },
    {
      "channel": 2,
      "note": 48,
      "start": 64.6685,
      "duration": 0.238,
      "velocity": 96,
      "chip": "ym2612"
    },
    {
      "channel": 3,
      "note": 41,
      "start": 64.7492,
      "duration": 0.2384,
      "velocity": 96,
      "chip": "ym2612"
    },
    {
      "channel": 0,
      "note": 79,
      "start": 64.827,
      "duration": 0.7678,
      "velocity": 92,
      "chip": "ym2612"
    },
    {
      "channel": 4,
      "note": 48,
      "start": 64.8296,
      "duration": 0.238,
      "velocity": 96,
      "chip": "ym2612"
    },
    {
      "channel": 2,
      "note": 41,
      "start": 64.9863,
      "duration": 0.2379,
      "velocity": 96,
      "chip": "ym2612"
    },
    {
      "channel": 3,
      "note": 48,
      "start": 65.0672,
      "duration": 0.2383,
      "velocity": 96,
      "chip": "ym2612"
    },
    {
      "channel": 1,
      "note": 79,
      "start": 65.145,
      "duration": 0.7677,
      "velocity": 92,
      "chip": "ym2612"
    },
    {
      "channel": 4,
      "note": 41,
      "start": 65.1469,
      "duration": 0.2382,
      "velocity": 96,
      "chip": "ym2612"
    },
    {
      "channel": 2,
      "note": 48,
      "start": 65.3041,
      "duration": 0.238,
      "velocity": 96,
      "chip": "ym2612"
    },
    {
      "channel": 3,
      "note": 41,
      "start": 65.3848,
      "duration": 0.2388,
      "velocity": 96,
      "chip": "ym2612"
    },
    {
      "channel": 4,
      "note": 48,
      "start": 65.4647,
      "duration": 0.2384,
      "velocity": 96,
      "chip": "ym2612"
    },
    {
      "channel": 0,
      "note": 77,
      "start": 65.6214,
      "duration": 0.1321,
      "velocity": 92,
      "chip": "ym2612"
    },
    {
      "channel": 2,
      "note": 41,
      "start": 65.6223,
      "duration": 0.2378,
      "velocity": 96,
      "chip": "ym2612"
    },
    {
      "channel": 3,
      "note": 48,
      "start": 65.7027,
      "duration": 0.2391,
      "velocity": 96,
      "chip": "ym2612"
    },
    {
      "channel": 0,
      "note": 76,
      "start": 65.7804,
      "duration": 0.132,
      "velocity": 92,
      "chip": "ym2612"
    },
    {
      "channel": 4,
      "note": 41,
      "start": 65.7826,
      "duration": 0.238,
      "velocity": 96,
      "chip": "ym2612"
    },
    {
      "channel": 0,
      "note": 74,
      "start": 65.9392,
      "duration": 0.1322,
      "velocity": 92,
      "chip": "ym2612"
    },
    {
      "channel": 1,
      "note": 77,
      "start": 65.9398,
      "duration": 0.1319,
      "velocity": 92,
      "chip": "ym2612"
    },
    {
      "channel": 2,
      "note": 48,
      "start": 65.9404,
      "duration": 0.2373,
      "velocity": 96,
      "chip": "ym2612"
    },
    {
      "channel": 3,
      "note": 41,
      "start": 66.0203,
      "duration": 0.2389,
      "velocity": 96,
      "chip": "ym2612"
    },
    {
      "channel": 0,
      "note": 76,
      "start": 66.0981,
      "duration": 4.5816,
      "velocity": 92,
      "chip": "ym2612"
    },
    {
      "channel": 1,
      "note": 76,
      "start": 66.0987,
      "duration": 0.1319,
      "velocity": 92,
      "chip": "ym2612"
    },
    {
      "channel": 4,
      "note": 33,
      "start": 66.101,
      "duration": 0.2376,
      "velocity": 96,
      "chip": "ym2612"
    },
    {
      "channel": 5,
      "note": 33,
      "start": 66.1016,
      "duration": 2.3826,
      "velocity": 107,
      "chip": "ym2612"
    },
    {
      "channel": 1,
      "note": 74,
      "start": 66.2572,
      "duration": 0.1321,
      "velocity": 92,
      "chip": "ym2612"
    },
    {
      "channel": 2,
      "note": 41,
      "start": 66.2579,
      "duration": 0.2378,
      "velocity": 96,
      "chip": "ym2612"
    },
    {
      "channel": 3,
      "note": 33,
      "start": 66.3383,
      "duration": 0.2384,
      "velocity": 96,
      "chip": "ym2612"
    },
    {
      "channel": 1,
      "note": 76,
      "start": 66.416,
      "duration": 4.5817,
      "velocity": 92,
      "chip": "ym2612"
    },
    {
      "channel": 4,
      "note": 42,
      "start": 66.4179,
      "duration": 0.2384,
      "velocity": 96,
      "chip": "ym2612"
    },
    {
      "channel": 2,
      "note": 33,
      "start": 66.5754,
      "duration": 0.238,
      "velocity": 96,
      "chip": "ym2612"
    },
    {
      "channel": 3,
      "note": 42,
      "start": 66.656,
      "duration": 0.2385,
      "velocity": 96,
      "chip": "ym2612"
    },
    {
      "channel": 4,
      "note": 48,
      "start": 66.7358,
      "duration": 0.2384,
      "velocity": 96,
      "chip": "ym2612"
    },
    {
      "channel": 2,
      "note": 42,
      "start": 66.8931,
      "duration": 0.2381,
      "velocity": 96,
      "chip": "ym2612"
    },
    {
      "channel": 3,
      "note": 48,
      "start": 66.9739,
      "duration": 0.2387,
      "velocity": 96,
      "chip": "ym2612"
    },
    {
      "channel": 4,
      "note": 42,
      "start": 67.0537,
      "duration": 0.2385,
      "velocity": 96,
      "chip": "ym2612"
    },
    {
      "channel": 2,
      "note": 48,
      "start": 67.2111,
      "duration": 0.2379,
      "velocity": 96,
      "chip": "ym2612"
    },
    {
      "channel": 3,
      "note": 42,
      "start": 67.2919,
      "duration": 0.2387,
      "velocity": 96,
      "chip": "ym2612"
    },
    {
      "channel": 4,
      "note": 48,
      "start": 67.3716,
      "duration": 0.2384,
      "velocity": 96,
      "chip": "ym2612"
    },
    {
      "channel": 2,
      "note": 42,
      "start": 67.5288,
      "duration": 0.238,
      "velocity": 96,
      "chip": "ym2612"
    },
    {
      "channel": 3,
      "note": 48,
      "start": 67.6097,
      "duration": 0.2384,
      "velocity": 96,
      "chip": "ym2612"
    },
    {
      "channel": 4,
      "note": 42,
      "start": 67.6893,
      "duration": 0.2385,
      "velocity": 96,
      "chip": "ym2612"
    },
    {
      "channel": 2,
      "note": 48,
      "start": 67.8466,
      "duration": 0.238,
      "velocity": 96,
      "chip": "ym2612"
    },
    {
      "channel": 3,
      "note": 42,
      "start": 67.9274,
      "duration": 0.2383,
      "velocity": 96,
      "chip": "ym2612"
    },
    {
      "channel": 4,
      "note": 48,
      "start": 68.0074,
      "duration": 0.2383,
      "velocity": 96,
      "chip": "ym2612"
    },
    {
      "channel": 2,
      "note": 42,
      "start": 68.1643,
      "duration": 0.238,
      "velocity": 96,
      "chip": "ym2612"
    },
    {
      "channel": 3,
      "note": 48,
      "start": 68.2454,
      "duration": 0.2384,
      "velocity": 96,
      "chip": "ym2612"
    },
    {
      "channel": 4,
      "note": 42,
      "start": 68.3251,
      "duration": 0.2381,
      "velocity": 96,
      "chip": "ym2612"
    },
    {
      "channel": 2,
      "note": 48,
      "start": 68.4824,
      "duration": 0.2378,
      "velocity": 96,
      "chip": "ym2612"
    },
    {
      "channel": 3,
      "note": 42,
      "start": 68.5629,
      "duration": 0.2383,
      "velocity": 96,
      "chip": "ym2612"
    },
    {
      "channel": 4,
      "note": 33,
      "start": 68.6429,
      "duration": 0.2382,
      "velocity": 96,
      "chip": "ym2612"
    },
    {
      "channel": 5,
      "note": 33,
      "start": 68.6434,
      "duration": 2.384,
      "velocity": 107,
      "chip": "ym2612"
    },
    {
      "channel": 2,
      "note": 42,
      "start": 68.8,
      "duration": 0.238,
      "velocity": 96,
      "chip": "ym2612"
    },
    {
      "channel": 3,
      "note": 33,
      "start": 68.8807,
      "duration": 0.2385,
      "velocity": 96,
      "chip": "ym2612"
    },
    {
      "channel": 4,
      "note": 41,
      "start": 68.9601,
      "duration": 0.2387,
      "velocity": 96,
      "chip": "ym2612"
    },
    {
      "channel": 2,
      "note": 33,
      "start": 69.1179,
      "duration": 0.2379,
      "velocity": 96,
      "chip": "ym2612"
    },
    {
      "channel": 3,
      "note": 41,
      "start": 69.1985,
      "duration": 0.2384,
      "velocity": 96,
      "chip": "ym2612"
    },
    {
      "channel": 4,
      "note": 48,
      "start": 69.2784,
      "duration": 0.2384,
      "velocity": 96,
      "chip": "ym2612"
    },
    {
      "channel": 2,
      "note": 41,
      "start": 69.4356,
      "duration": 0.238,
      "velocity": 96,
      "chip": "ym2612"
    },
    {
      "channel": 3,
      "note": 48,
      "start": 69.5165,
      "duration": 0.2383,
      "velocity": 96,
      "chip": "ym2612"
    },
    {
      "channel": 4,
      "note": 41,
      "start": 69.5958,
      "duration": 0.2386,
      "velocity": 96,
      "chip": "ym2612"
    },
    {
      "channel": 2,
      "note": 48,
      "start": 69.7534,
      "duration": 0.238,
      "velocity": 96,
      "chip": "ym2612"
    },
    {
      "channel": 3,
      "note": 41,
      "start": 69.8341,
      "duration": 0.2384,
      "velocity": 96,
      "chip": "ym2612"
    },
    {
      "channel": 4,
      "note": 48,
      "start": 69.914,
      "duration": 0.2384,
      "velocity": 96,
      "chip": "ym2612"
    },
    {
      "channel": 2,
      "note": 41,
      "start": 70.0712,
      "duration": 0.238,
      "velocity": 96,
      "chip": "ym2612"
    },
    {
      "channel": 3,
      "note": 48,
      "start": 70.152,
      "duration": 0.2385,
      "velocity": 96,
      "chip": "ym2612"
    },
    {
      "channel": 4,
      "note": 41,
      "start": 70.2314,
      "duration": 0.2386,
      "velocity": 96,
      "chip": "ym2612"
    },
    {
      "channel": 2,
      "note": 48,
      "start": 70.3891,
      "duration": 0.2379,
      "velocity": 96,
      "chip": "ym2612"
    },
    {
      "channel": 3,
      "note": 41,
      "start": 70.4696,
      "duration": 0.2388,
      "velocity": 96,
      "chip": "ym2612"
    },
    {
      "channel": 4,
      "note": 48,
      "start": 70.5499,
      "duration": 0.2382,
      "velocity": 96,
      "chip": "ym2612"
    },
    {
      "channel": 0,
      "note": 74,
      "start": 70.7062,
      "duration": 0.1323,
      "velocity": 92,
      "chip": "ym2612"
    },
    {
      "channel": 2,
      "note": 41,
      "start": 70.7071,
      "duration": 0.2378,
      "velocity": 96,
      "chip": "ym2612"
    },
    {
      "channel": 3,
      "note": 48,
      "start": 70.7878,
      "duration": 0.239,
      "velocity": 96,
      "chip": "ym2612"
    },
    {
      "channel": 0,
      "note": 72,
      "start": 70.8653,
      "duration": 0.1321,
      "velocity": 92,
      "chip": "ym2612"
    },
    {
      "channel": 4,
      "note": 41,
      "start": 70.8675,
      "duration": 0.238,
      "velocity": 96,
      "chip": "ym2612"
    },
    {
      "channel": 0,
      "note": 71,
      "start": 71.0242,
      "duration": 0.1321,
      "velocity": 92,
      "chip": "ym2612"
    },
    {
      "channel": 1,
      "note": 74,
      "start": 71.0247,
      "duration": 0.1318,
      "velocity": 92,
      "chip": "ym2612"
    },
    {
      "channel": 2,
      "note": 48,
      "start": 71.0254,
      "duration": 0.2372,
      "velocity": 96,
      "chip": "ym2612"
    },
    {
      "channel": 3,
      "note": 41,
      "start": 71.1052,
      "duration": 0.2388,
      "velocity": 96,
      "chip": "ym2612"
    },
    {
      "channel": 0,
      "note": 69,
      "start": 71.183,
      "duration": 1.8801,
      "velocity": 92,
      "chip": "ym2612"
    },
    {
      "channel": 1,
      "note": 72,
      "start": 71.1836,
      "duration": 0.132,
      "velocity": 92,
      "chip": "ym2612"
    },
    {
      "channel": 4,
      "note": 29,
      "start": 71.1861,
      "duration": 0.2377,
      "velocity": 96,
      "chip": "ym2612"
    },
    {
      "channel": 5,
      "note": 29,
      "start": 71.1867,
      "duration": 2.3826,
      "velocity": 107,
      "chip": "ym2612"
    },
    {
      "channel": 1,
      "note": 71,
      "start": 71.342,
      "duration": 0.1324,
      "velocity": 92,
      "chip": "ym2612"
    },
    {
      "channel": 2,
      "note": 41,
      "start": 71.3427,
      "duration": 0.2378,
      "velocity": 96,
      "chip": "ym2612"
    },
    {
      "channel": 3,
      "note": 29,
      "start": 71.4235,
      "duration": 0.2383,
      "velocity": 96,
      "chip": "ym2612"
    },
    {
      "channel": 1,
      "note": 69,
      "start": 71.501,
      "duration": 1.8802,
      "velocity": 92,
      "chip": "ym2612"
    },
    {
      "channel": 4,
      "note": 36,
      "start": 71.5029,
      "duration": 0.2385,
      "velocity": 96,
      "chip": "ym2612"
    },
    {
      "channel": 2,
      "note": 29,
      "start": 71.6604,
      "duration": 0.238,
      "velocity": 96,
      "chip": "ym2612"
    },
    {
      "channel": 3,
      "note": 36,
      "start": 71.7411,
      "duration": 0.2384,
      "velocity": 96,
      "chip": "ym2612"
    },
    {
      "channel": 4,
      "note": 45,
      "start": 71.8207,
      "duration": 0.2386,
      "velocity": 96,
      "chip": "ym2612"
    },
    {
      "channel": 2,
      "note": 36,
      "start": 71.978,
      "duration": 0.2382,
      "velocity": 96,
      "chip": "ym2612"
    },
    {
      "channel": 3,
      "note": 45,
      "start": 72.059,
      "duration": 0.2385,
      "velocity": 96,
      "chip": "ym2612"
    },
    {
      "channel": 4,
      "note": 36,
      "start": 72.1385,
      "duration": 0.2386,
      "velocity": 96,
      "chip": "ym2612"
    },
    {
      "channel": 2,
      "note": 45,
      "start": 72.2959,
      "duration": 0.238,
      "velocity": 96,
      "chip": "ym2612"
    },
    {
      "channel": 3,
      "note": 36,
      "start": 72.3768,
      "duration": 0.2384,
      "velocity": 96,
      "chip": "ym2612"
    },
    {
      "channel": 4,
      "note": 45,
      "start": 72.4566,
      "duration": 0.2384,
      "velocity": 96,
      "chip": "ym2612"
    },
    {
      "channel": 2,
      "note": 36,
      "start": 72.6136,
      "duration": 0.2382,
      "velocity": 96,
      "chip": "ym2612"
    },
    {
      "channel": 3,
      "note": 45,
      "start": 72.6946,
      "duration": 0.2384,
      "velocity": 96,
      "chip": "ym2612"
    },
    {
      "channel": 4,
      "note": 36,
      "start": 72.7742,
      "duration": 0.2384,
      "velocity": 96,
      "chip": "ym2612"
    },
    {
      "channel": 2,
      "note": 45,
      "start": 72.9314,
      "duration": 0.2382,
      "velocity": 96,
      "chip": "ym2612"
    },
    {
      "channel": 3,
      "note": 36,
      "start": 73.0123,
      "duration": 0.2386,
      "velocity": 96,
      "chip": "ym2612"
    },
    {
      "channel": 4,
      "note": 45,
      "start": 73.0924,
      "duration": 0.2383,
      "velocity": 96,
      "chip": "ym2612"
    },
    {
      "channel": 2,
      "note": 36,
      "start": 73.2494,
      "duration": 0.238,
      "velocity": 96,
      "chip": "ym2612"
    },
    {
      "channel": 3,
      "note": 45,
      "start": 73.3303,
      "duration": 0.2384,
      "velocity": 96,
      "chip": "ym2612"
    },
    {
      "channel": 0,
      "note": 69,
      "start": 73.4078,
      "duration": 0.2911,
      "velocity": 92,
      "chip": "ym2612"
    },
    {
      "channel": 4,
      "note": 36,
      "start": 73.4108,
      "duration": 0.2375,
      "velocity": 96,
      "chip": "ym2612"
    },
    {
      "channel": 2,
      "note": 45,
      "start": 73.5672,
      "duration": 0.2379,
      "velocity": 96,
      "chip": "ym2612"
    },
    {
      "channel": 3,
      "note": 36,
      "start": 73.648,
      "duration": 0.2383,
      "velocity": 96,
      "chip": "ym2612"
    },
    {
      "channel": 0,
      "note": 71,
      "start": 73.7256,
      "duration": 1.2444,
      "velocity": 92,
      "chip": "ym2612"
    },
    {
      "channel": 1,
      "note": 69,
      "start": 73.7261,
      "duration": 0.2907,
      "velocity": 92,
      "chip": "ym2612"
    },
    {
      "channel": 4,
      "note": 29,
      "start": 73.7288,
      "duration": 0.2373,
      "velocity": 96,
      "chip": "ym2612"
    },
    {
      "channel": 5,
      "note": 29,
      "start": 73.7293,
      "duration": 2.3825,
      "velocity": 107,
      "chip": "ym2612"
    },
    {
      "channel": 2,
      "note": 36,
      "start": 73.8849,
      "duration": 0.238,
      "velocity": 96,
      "chip": "ym2612"
    },
    {
      "channel": 3,
      "note": 29,
      "start": 73.9658,
      "duration": 0.2383,
      "velocity": 96,
      "chip": "ym2612"
    },
    {
      "channel": 1,
      "note": 71,
      "start": 74.0434,
      "duration": 1.2445,
      "velocity": 92,
      "chip": "ym2612"
    },
    {
      "channel": 4,
      "note": 38,
      "start": 74.0454,
      "duration": 0.2385,
      "velocity": 96,
      "chip": "ym2612"
    },
    {
      "channel": 2,
      "note": 29,
      "start": 74.2028,
      "duration": 0.2379,
      "velocity": 96,
      "chip": "ym2612"
    },
    {
      "channel": 3,
      "note": 38,
      "start": 74.2835,
      "duration": 0.2384,
      "velocity": 96,
      "chip": "ym2612"
    },
    {
      "channel": 4,
      "note": 47,
      "start": 74.363,
      "duration": 0.2386,
      "velocity": 96,
      "chip": "ym2612"
    },
    {
      "channel": 2,
      "note": 38,
      "start": 74.5205,
      "duration": 0.238,
      "velocity": 96,
      "chip": "ym2612"
    },
    {
      "channel": 3,
      "note": 47,
      "start": 74.6013,
      "duration": 0.2385,
      "velocity": 96,
      "chip": "ym2612"
    },
    {
      "channel": 4,
      "note": 38,
      "start": 74.6808,
      "duration": 0.2387,
      "velocity": 96,
      "chip": "ym2612"
    },
    {
      "channel": 2,
      "note": 47,
      "start": 74.8383,
      "duration": 0.2381,
      "velocity": 96,
      "chip": "ym2612"
    },
    {
      "channel": 3,
      "note": 38,
      "start": 74.9192,
      "duration": 0.2384,
      "velocity": 96,
      "chip": "ym2612"
    },
    {
      "channel": 0,
      "note": 71,
      "start": 74.9969,
      "duration": 0.3969,
      "velocity": 92,
      "chip": "ym2612"
    },
    {
      "channel": 4,
      "note": 47,
      "start": 74.9998,
      "duration": 0.2377,
      "velocity": 96,
      "chip": "ym2612"
    },
    {
      "channel": 2,
      "note": 38,
      "start": 75.1562,
      "duration": 0.238,
      "velocity": 96,
      "chip": "ym2612"
    },
    {
      "channel": 3,
      "note": 47,
      "start": 75.2371,
      "duration": 0.2382,
      "velocity": 96,
      "chip": "ym2612"
    },
    {
      "channel": 1,
      "note": 71,
      "start": 75.3147,
      "duration": 0.397,
      "velocity": 92,
      "chip": "ym2612"
    },
    {
      "channel": 4,
      "note": 38,
      "start": 75.3168,
      "duration": 0.2378,
      "velocity": 96,
      "chip": "ym2612"
    },
    {
      "channel": 0,
      "note": 72,
      "start": 75.4205,
      "duration": 0.3969,
      "velocity": 92,
      "chip": "ym2612"
    },
    {
      "channel": 2,
      "note": 47,
      "start": 75.474,
      "duration": 0.238,
      "velocity": 96,
      "chip": "ym2612"
    },
    {
      "channel": 3,
      "note": 38,
      "start": 75.5544,
      "duration": 0.2385,
      "velocity": 96,
      "chip": "ym2612"
    },
    {
      "channel": 4,
      "note": 47,
      "start": 75.6344,
      "duration": 0.2384,
      "velocity": 96,
      "chip": "ym2612"
    },
    {
      "channel": 1,
      "note": 72,
      "start": 75.7385,
      "duration": 0.397,
      "velocity": 92,
      "chip": "ym2612"
    },
    {
      "channel": 2,
      "note": 38,
      "start": 75.7917,
      "duration": 0.2381,
      "velocity": 96,
      "chip": "ym2612"
    },
    {
      "channel": 0,
      "note": 74,
      "start": 75.8441,
      "duration": 0.397,
      "velocity": 92,
      "chip": "ym2612"
    },
    {
      "channel": 3,
      "note": 47,
      "start": 75.8724,
      "duration": 0.2389,
      "velocity": 96,
      "chip": "ym2612"
    },
    {
      "channel": 4,
      "note": 38,
      "start": 75.9525,
      "duration": 0.238,
      "velocity": 96,
      "chip": "ym2612"
    },
    {
      "channel": 2,
      "note": 47,
      "start": 76.1097,
      "duration": 0.2379,
      "velocity": 96,
      "chip": "ym2612"
    },
    {
      "channel": 1,
      "note": 74,
      "start": 76.1622,
      "duration": 0.397,
      "velocity": 92,
      "chip": "ym2612"
    },
    {
      "channel": 3,
      "note": 38,
      "start": 76.1901,
      "duration": 0.2385,
      "velocity": 96,
      "chip": "ym2612"
    },
    {
      "channel": 0,
      "note": 69,
      "start": 76.268,
      "duration": 1.8801,
      "velocity": 92,
      "chip": "ym2612"
    },
    {
      "channel": 4,
      "note": 29,
      "start": 76.2709,
      "duration": 0.2375,
      "velocity": 96,
      "chip": "ym2612"
    },
    {
      "channel": 5,
      "note": 29,
      "start": 76.2714,
      "duration": 2.3826,
      "velocity": 107,
      "chip": "ym2612"
    },
    {
      "channel": 2,
      "note": 38,
      "start": 76.4275,
      "duration": 0.2379,
      "velocity": 96,
      "chip": "ym2612"
    },
    {
      "channel": 3,
      "note": 29,
      "start": 76.5081,
      "duration": 0.2384,
      "velocity": 96,
      "chip": "ym2612"
    },
    {
      "channel": 1,
      "note": 69,
      "start": 76.5861,
      "duration": 1.8801,
      "velocity": 92,
      "chip": "ym2612"
    },
    {
      "channel": 4,
      "note": 36,
      "start": 76.588,
      "duration": 0.2382,
      "velocity": 96,
      "chip": "ym2612"
    },
    {
      "channel": 2,
      "note": 29,
      "start": 76.7453,
      "duration": 0.238,
      "velocity": 96,
      "chip": "ym2612"
    },
    {
      "channel": 3,
      "note": 36,
      "start": 76.8259,
      "duration": 0.2385,
      "velocity": 96,
      "chip": "ym2612"
    },
    {
      "channel": 4,
      "note": 45,
      "start": 76.9056,
      "duration": 0.2385,
      "velocity": 96,
      "chip": "ym2612"
    },
    {
      "channel": 2,
      "note": 36,
      "start": 77.063,
      "duration": 0.238,
      "velocity": 96,
      "chip": "ym2612"
    },
    {
      "channel": 3,
      "note": 45,
      "start": 77.1438,
      "duration": 0.2386,
      "velocity": 96,
      "chip": "ym2612"
    },
    {
      "channel": 4,
      "note": 36,
      "start": 77.2235,
      "duration": 0.2385,
      "velocity": 96,
      "chip": "ym2612"
    },
    {
      "channel": 2,
      "note": 45,
      "start": 77.3808,
      "duration": 0.2379,
      "velocity": 96,
      "chip": "ym2612"
    },
    {
      "channel": 3,
      "note": 36,
      "start": 77.4617,
      "duration": 0.2384,
      "velocity": 96,
      "chip": "ym2612"
    },
    {
      "channel": 4,
      "note": 45,
      "start": 77.5413,
      "duration": 0.2385,
      "velocity": 96,
      "chip": "ym2612"
    },
    {
      "channel": 2,
      "note": 36,
      "start": 77.6986,
      "duration": 0.238,
      "velocity": 96,
      "chip": "ym2612"
    },
    {
      "channel": 3,
      "note": 45,
      "start": 77.7795,
      "duration": 0.2384,
      "velocity": 96,
      "chip": "ym2612"
    },
    {
      "channel": 4,
      "note": 36,
      "start": 77.8592,
      "duration": 0.2385,
      "velocity": 96,
      "chip": "ym2612"
    },
    {
      "channel": 2,
      "note": 45,
      "start": 78.0164,
      "duration": 0.238,
      "velocity": 96,
      "chip": "ym2612"
    },
    {
      "channel": 3,
      "note": 36,
      "start": 78.0974,
      "duration": 0.2383,
      "velocity": 96,
      "chip": "ym2612"
    },
    {
      "channel": 4,
      "note": 45,
      "start": 78.1774,
      "duration": 0.2383,
      "velocity": 96,
      "chip": "ym2612"
    },
    {
      "channel": 2,
      "note": 36,
      "start": 78.3341,
      "duration": 0.2381,
      "velocity": 96,
      "chip": "ym2612"
    },
    {
      "channel": 3,
      "note": 45,
      "start": 78.4154,
      "duration": 0.238,
      "velocity": 96,
      "chip": "ym2612"
    },
    {
      "channel": 0,
      "note": 69,
      "start": 78.4927,
      "duration": 0.291,
      "velocity": 92,
      "chip": "ym2612"
    },
    {
      "channel": 4,
      "note": 36,
      "start": 78.4957,
      "duration": 0.2376,
      "velocity": 96,
      "chip": "ym2612"
    },
    {
      "channel": 2,
      "note": 45,
      "start": 78.652,
      "duration": 0.2382,
      "velocity": 96,
      "chip": "ym2612"
    },
    {
      "channel": 3,
      "note": 36,
      "start": 78.7331,
      "duration": 0.238,
      "velocity": 96,
      "chip": "ym2612"
    },
    {
      "channel": 0,
      "note": 79,
      "start": 78.8104,
      "duration": 1.2446,
      "velocity": 92,
      "chip": "ym2612"
    },
    {
      "channel": 1,
      "note": 69,
      "start": 78.8109,
      "duration": 0.2907,
      "velocity": 92,
      "chip": "ym2612"
    },
    {
      "channel": 4,
      "note": 28,
      "start": 78.8136,
      "duration": 0.2373,
      "velocity": 96,
      "chip": "ym2612"
    },
    {
      "channel": 5,
      "note": 28,
      "start": 78.8141,
      "duration": 2.3828,
      "velocity": 107,
      "chip": "ym2612"
    },
    {
      "channel": 2,
      "note": 36,
      "start": 78.9698,
      "duration": 0.238,
      "velocity": 96,
      "chip": "ym2612"
    },
    {
      "channel": 3,
      "note": 28,
      "start": 79.0506,
      "duration": 0.2384,
      "velocity": 96,
      "chip": "ym2612"
    },
    {
      "channel": 1,
      "note": 79,
      "start": 79.1284,
      "duration": 1.2445,
      "velocity": 92,
      "chip": "ym2612"
    },
    {
      "channel": 4,
      "note": 38,
      "start": 79.1303,
      "duration": 0.2382,
      "velocity": 96,
      "chip": "ym2612"
    },
    {
      "channel": 2,
      "note": 28,
      "start": 79.2878,
      "duration": 0.2379,
      "velocity": 96,
      "chip": "ym2612"
    },
    {
      "channel": 3,
      "note": 38,
      "start": 79.3683,
      "duration": 0.2386,
      "velocity": 96,
      "chip": "ym2612"
    },
    {
      "channel": 4,
      "note": 47,
      "start": 79.448,
      "duration": 0.2386,
      "velocity": 96,
      "chip": "ym2612"
    },
    {
      "channel": 2,
      "note": 38,
      "start": 79.6054,
      "duration": 0.238,
      "velocity": 96,
      "chip": "ym2612"
    },
    {
      "channel": 3,
      "note": 47,
      "start": 79.6863,
      "duration": 0.2387,
      "velocity": 96,
      "chip": "ym2612"
    },
    {
      "channel": 4,
      "note": 38,
      "start": 79.7658,
      "duration": 0.2388,
      "velocity": 96,
      "chip": "ym2612"
    },
    {
      "channel": 2,
      "note": 47,
      "start": 79.9234,
      "duration": 0.238,
      "velocity": 96,
      "chip": "ym2612"
    },
    {
      "channel": 3,
      "note": 38,
      "start": 80.0043,
      "duration": 0.2384,
      "velocity": 96,
      "chip": "ym2612"
    },
    {
      "channel": 0,
      "note": 77,
      "start": 80.0817,
      "duration": 0.9267,
      "velocity": 92,
      "chip": "ym2612"
    },
    {
      "channel": 4,
      "note": 47,
      "start": 80.0843,
      "duration": 0.238,
      "velocity": 96,
      "chip": "ym2612"
    },
    {
      "channel": 2,
      "note": 38,
      "start": 80.2412,
      "duration": 0.238,
      "velocity": 96,
      "chip": "ym2612"
    },
    {
      "channel": 3,
      "note": 47,
      "start": 80.322,
      "duration": 0.2384,
      "velocity": 96,
      "chip": "ym2612"
    },
    {
      "channel": 1,
      "note": 77,
      "start": 80.3997,
      "duration": 0.9266,
      "velocity": 92,
      "chip": "ym2612"
    },
    {
      "channel": 4,
      "note": 38,
      "start": 80.402,
      "duration": 0.2382,
      "velocity": 96,
      "chip": "ym2612"
    },
    {
      "channel": 2,
      "note": 47,
      "start": 80.5588,
      "duration": 0.2382,
      "velocity": 96,
      "chip": "ym2612"
    },
    {
      "channel": 3,
      "note": 38,
      "start": 80.6399,
      "duration": 0.2384,
      "velocity": 96,
      "chip": "ym2612"
    },
    {
      "channel": 4,
      "note": 47,
      "start": 80.7195,
      "duration": 0.2385,
      "velocity": 96,
      "chip": "ym2612"
    },
    {
      "channel": 2,
      "note": 38,
      "start": 80.8768,
      "duration": 0.238,
      "velocity": 96,
      "chip": "ym2612"
    },
    {
      "channel": 3,
      "note": 47,
      "start": 80.9577,
      "duration": 0.2388,
      "velocity": 96,
      "chip": "ym2612"
    },
    {
      "channel": 0,
      "note": 76,
      "start": 81.035,
      "duration": 0.1322,
      "velocity": 92,
      "chip": "ym2612"
    },
    {
      "channel": 4,
      "note": 38,
      "start": 81.0376,
      "duration": 0.238,
      "velocity": 96,
      "chip": "ym2612"
    },
    {
      "channel": 0,
      "note": 74,
      "start": 81.194,
      "duration": 0.1321,
      "velocity": 92,
      "chip": "ym2612"
    },
    {
      "channel": 2,
      "note": 47,
      "start": 81.1949,
      "duration": 0.2377,
      "velocity": 96,
      "chip": "ym2612"
    },
    {
      "channel": 3,
      "note": 38,
      "start": 81.2754,
      "duration": 0.2386,
      "velocity": 96,
      "chip": "ym2612"
    },
    {
      "channel": 0,
      "note": 76,
      "start": 81.3529,
      "duration": 2.5158,
      "velocity": 92,
      "chip": "ym2612"
    },
    {
      "channel": 1,
      "note": 76,
      "start": 81.3534,
      "duration": 0.1319,
      "velocity": 92,
      "chip": "ym2612"
    },
    {
      "channel": 4,
      "note": 26,
      "start": 81.356,
      "duration": 0.2375,
      "velocity": 96,
      "chip": "ym2612"
    },
    {
      "channel": 5,
      "note": 26,
      "start": 81.3566,
      "duration": 2.3821,
      "velocity": 107,
      "chip": "ym2612"
    },
    {
      "channel": 1,
      "note": 74,
      "start": 81.5119,
      "duration": 0.1323,
      "velocity": 92,
      "chip": "ym2612"
    },
    {
      "channel": 2,
      "note": 38,
      "start": 81.5125,
      "duration": 0.2378,
      "velocity": 96,
      "chip": "ym2612"
    },
    {
      "channel": 3,
      "note": 26,
      "start": 81.5932,
      "duration": 0.2384,
      "velocity": 96,
      "chip": "ym2612"
    },
    {
      "channel": 1,
      "note": 76,
      "start": 81.6709,
      "duration": 2.5158,
      "velocity": 92,
      "chip": "ym2612"
    },
    {
      "channel": 4,
      "note": 33,
      "start": 81.6729,
      "duration": 0.2382,
      "velocity": 96,
      "chip": "ym2612"
    },
    {
      "channel": 2,
      "note": 26,
      "start": 81.8302,
      "duration": 0.238,
      "velocity": 96,
      "chip": "ym2612"
    },
    {
      "channel": 3,
      "note": 33,
      "start": 81.9108,
      "duration": 0.2387,
      "velocity": 96,
      "chip": "ym2612"
    },
    {
      "channel": 4,
      "note": 40,
      "start": 81.9904,
      "duration": 0.2387,
      "velocity": 96,
      "chip": "ym2612"
    },
    {
      "channel": 2,
      "note": 33,
      "start": 82.148,
      "duration": 0.238,
      "velocity": 96,
      "chip": "ym2612"
    },
    {
      "channel": 3,
      "note": 40,
      "start": 82.2288,
      "duration": 0.2384,
      "velocity": 96,
      "chip": "ym2612"
    },
    {
      "channel": 4,
      "note": 41,
      "start": 82.3083,
      "duration": 0.2385,
      "velocity": 96,
      "chip": "ym2612"
    },
    {
      "channel": 2,
      "note": 40,
      "start": 82.4656,
      "duration": 0.2383,
      "velocity": 96,
      "chip": "ym2612"
    },
    {
      "channel": 3,
      "note": 41,
      "start": 82.5465,
      "duration": 0.2385,
      "velocity": 96,
      "chip": "ym2612"
    },
    {
      "channel": 4,
      "note": 45,
      "start": 82.6263,
      "duration": 0.2384,
      "velocity": 96,
      "chip": "ym2612"
    },
    {
      "channel": 2,
      "note": 41,
      "start": 82.7835,
      "duration": 0.238,
      "velocity": 96,
      "chip": "ym2612"
    },
    {
      "channel": 3,
      "note": 45,
      "start": 82.8644,
      "duration": 0.2385,
      "velocity": 96,
      "chip": "ym2612"
    },
    {
      "channel": 4,
      "note": 48,
      "start": 82.944,
      "duration": 0.2385,
      "velocity": 96,
      "chip": "ym2612"
    },
    {
      "channel": 2,
      "note": 45,
      "start": 83.1015,
      "duration": 0.238,
      "velocity": 96,
      "chip": "ym2612"
    },
    {
      "channel": 3,
      "note": 48,
      "start": 83.1822,
      "duration": 0.2383,
      "velocity": 96,
      "chip": "ym2612"
    },
    {
      "channel": 4,
      "note": 52,
      "start": 83.262,
      "duration": 0.2384,
      "velocity": 96,
      "chip": "ym2612"
    },
    {
      "channel": 2,
      "note": 48,
      "start": 83.4191,
      "duration": 0.2382,
      "velocity": 96,
      "chip": "ym2612"
    },
    {
      "channel": 3,
      "note": 52,
      "start": 83.5001,
      "duration": 0.238,
      "velocity": 96,
      "chip": "ym2612"
    },
    {
      "channel": 4,
      "note": 53,
      "start": 83.5798,
      "duration": 0.2381,
      "velocity": 96,
      "chip": "ym2612"
    },
    {
      "channel": 2,
      "note": 52,
      "start": 83.7369,
      "duration": 0.2382,
      "velocity": 96,
      "chip": "ym2612"
    },
    {
      "channel": 3,
      "note": 53,
      "start": 83.8176,
      "duration": 0.2383,
      "velocity": 96,
      "chip": "ym2612"
    },
    {
      "channel": 0,
      "note": 76,
      "start": 83.8954,
      "duration": 1.2445,
      "velocity": 92,
      "chip": "ym2612"
    },
    {
      "channel": 4,
      "note": 28,
      "start": 83.898,
      "duration": 0.2378,
      "velocity": 96,
      "chip": "ym2612"
    },
    {
      "channel": 5,
      "note": 28,
      "start": 83.8986,
      "duration": 2.3827,
      "velocity": 107,
      "chip": "ym2612"
    },
    {
      "channel": 2,
      "note": 53,
      "start": 84.0548,
      "duration": 0.238,
      "velocity": 96,
      "chip": "ym2612"
    },
    {
      "channel": 3,
      "note": 28,
      "start": 84.1356,
      "duration": 0.2383,
      "velocity": 96,
      "chip": "ym2612"
    },
    {
      "channel": 1,
      "note": 76,
      "start": 84.2134,
      "duration": 1.2446,
      "velocity": 92,
      "chip": "ym2612"
    },
    {
      "channel": 4,
      "note": 38,
      "start": 84.2153,
      "duration": 0.2381,
      "velocity": 96,
      "chip": "ym2612"
    },
    {
      "channel": 2,
      "note": 28,
      "start": 84.3725,
      "duration": 0.238,
      "velocity": 96,
      "chip": "ym2612"
    },
    {
      "channel": 3,
      "note": 38,
      "start": 84.4531,
      "duration": 0.2388,
      "velocity": 96,
      "chip": "ym2612"
    },
    {
      "channel": 4,
      "note": 44,
      "start": 84.5329,
      "duration": 0.2387,
      "velocity": 96,
      "chip": "ym2612"
    },
    {
      "channel": 2,
      "note": 38,
      "start": 84.6905,
      "duration": 0.238,
      "velocity": 96,
      "chip": "ym2612"
    },
    {
      "channel": 3,
      "note": 44,
      "start": 84.7713,
      "duration": 0.2384,
      "velocity": 96,
      "chip": "ym2612"
    },
    {
      "channel": 4,
      "note": 38,
      "start": 84.8507,
      "duration": 0.2386,
      "velocity": 96,
      "chip": "ym2612"
    },
    {
      "channel": 2,
      "note": 44,
      "start": 85.0082,
      "duration": 0.238,
      "velocity": 96,
      "chip": "ym2612"
    },
    {
      "channel": 3,
      "note": 38,
      "start": 85.089,
      "duration": 0.2384,
      "velocity": 96,
      "chip": "ym2612"
    },
    {
      "channel": 0,
      "note": 74,
      "start": 85.1667,
      "duration": 0.9266,
      "velocity": 92,
      "chip": "ym2612"
    },
    {
      "channel": 4,
      "note": 52,
      "start": 85.1691,
      "duration": 1.1911,
      "velocity": 96,
      "chip": "ym2612"
    },
    {
      "channel": 2,
      "note": 38,
      "start": 85.3259,
      "duration": 0.2383,
      "velocity": 96,
      "chip": "ym2612"
    },
    {
      "channel": 3,
      "note": 52,
      "start": 85.407,
      "duration": 1.1916,
      "velocity": 96,
      "chip": "ym2612"
    },
    {
      "channel": 1,
      "note": 74,
      "start": 85.4845,
      "duration": 0.9269,
      "velocity": 92,
      "chip": "ym2612"
    },
    {
      "channel": 2,
      "note": 52,
      "start": 85.6439,
      "duration": 1.1914,
      "velocity": 96,
      "chip": "ym2612"
    },
    {
      "channel": 0,
      "note": 72,
      "start": 86.12,
      "duration": 0.1321,
      "velocity": 92,
      "chip": "ym2612"
    },
    {
      "channel": 0,
      "note": 71,
      "start": 86.2789,
      "duration": 0.1323,
      "velocity": 92,
      "chip": "ym2612"
    },
    {
      "channel": 0,
      "note": 69,
      "start": 86.4378,
      "duration": 3.787,
      "velocity": 92,
      "chip": "ym2612"
    },
    {
      "channel": 1,
      "note": 72,
      "start": 86.4384,
      "duration": 0.1317,
      "velocity": 92,
      "chip": "ym2612"
    },
    {
      "channel": 4,
      "note": 33,
      "start": 86.441,
      "duration": 0.2375,
      "velocity": 96,
      "chip": "ym2612"
    },
    {
      "channel": 5,
      "note": 33,
      "start": 86.4416,
      "duration": 2.3824,
      "velocity": 107,
      "chip": "ym2612"
    },
    {
      "channel": 1,
      "note": 71,
      "start": 86.5969,
      "duration": 0.1321,
      "velocity": 92,
      "chip": "ym2612"
    },
    {
      "channel": 3,
      "note": 33,
      "start": 86.6781,
      "duration": 0.2384,
      "velocity": 96,
      "chip": "ym2612"
    },
    {
      "channel": 1,
      "note": 69,
      "start": 86.7559,
      "duration": 3.7869,
      "velocity": 92,
      "chip": "ym2612"
    },
    {
      "channel": 4,
      "note": 40,
      "start": 86.7579,
      "duration": 0.238,
      "velocity": 96,
      "chip": "ym2612"
    },
    {
      "channel": 2,
      "note": 33,
      "start": 86.9151,
      "duration": 0.238,
      "velocity": 96,
      "chip": "ym2612"
    },
    {
      "channel": 3,
      "note": 40,
      "start": 86.9955,
      "duration": 0.2387,
      "velocity": 96,
      "chip": "ym2612"
    },
    {
      "channel": 4,
      "note": 47,
      "start": 87.0754,
      "duration": 0.2387,
      "velocity": 96,
      "chip": "ym2612"
    },
    {
      "channel": 2,
      "note": 40,
      "start": 87.2327,
      "duration": 0.2382,
      "velocity": 96,
      "chip": "ym2612"
    },
    {
      "channel": 3,
      "note": 47,
      "start": 87.3137,
      "duration": 0.2385,
      "velocity": 96,
      "chip": "ym2612"
    },
    {
      "channel": 4,
      "note": 40,
      "start": 87.3933,
      "duration": 0.2386,
      "velocity": 96,
      "chip": "ym2612"
    },
    {
      "channel": 2,
      "note": 47,
      "start": 87.5507,
      "duration": 0.238,
      "velocity": 96,
      "chip": "ym2612"
    },
    {
      "channel": 3,
      "note": 40,
      "start": 87.6315,
      "duration": 0.2385,
      "velocity": 96,
      "chip": "ym2612"
    },
    {
      "channel": 4,
      "note": 47,
      "start": 87.7113,
      "duration": 0.2385,
      "velocity": 96,
      "chip": "ym2612"
    },
    {
      "channel": 2,
      "note": 40,
      "start": 87.8685,
      "duration": 0.238,
      "velocity": 96,
      "chip": "ym2612"
    },
    {
      "channel": 3,
      "note": 47,
      "start": 87.9495,
      "duration": 0.2382,
      "velocity": 96,
      "chip": "ym2612"
    },
    {
      "channel": 4,
      "note": 40,
      "start": 88.0289,
      "duration": 0.2387,
      "velocity": 96,
      "chip": "ym2612"
    },
    {
      "channel": 2,
      "note": 47,
      "start": 88.1863,
      "duration": 0.2381,
      "velocity": 96,
      "chip": "ym2612"
    },
    {
      "channel": 3,
      "note": 40,
      "start": 88.2672,
      "duration": 0.2383,
      "velocity": 96,
      "chip": "ym2612"
    },
    {
      "channel": 4,
      "note": 47,
      "start": 88.3468,
      "duration": 0.2385,
      "velocity": 96,
      "chip": "ym2612"
    },
    {
      "channel": 2,
      "note": 40,
      "start": 88.504,
      "duration": 0.238,
      "velocity": 96,
      "chip": "ym2612"
    },
    {
      "channel": 3,
      "note": 47,
      "start": 88.585,
      "duration": 0.2385,
      "velocity": 96,
      "chip": "ym2612"
    },
    {
      "channel": 4,
      "note": 40,
      "start": 88.6647,
      "duration": 0.2384,
      "velocity": 96,
      "chip": "ym2612"
    },
    {
      "channel": 2,
      "note": 47,
      "start": 88.8219,
      "duration": 0.238,
      "velocity": 96,
      "chip": "ym2612"
    },
    {
      "channel": 3,
      "note": 40,
      "start": 88.9028,
      "duration": 0.2384,
      "velocity": 96,
      "chip": "ym2612"
    },
    {
      "channel": 4,
      "note": 33,
      "start": 88.983,
      "duration": 0.238,
      "velocity": 96,
      "chip": "ym2612"
    },
    {
      "channel": 5,
      "note": 21,
      "start": 88.9838,
      "duration": 2.3825,
      "velocity": 107,
      "chip": "ym2612"
    },
    {
      "channel": 2,
      "note": 40,
      "start": 89.1397,
      "duration": 0.2381,
      "velocity": 96,
      "chip": "ym2612"
    },
    {
      "channel": 3,
      "note": 33,
      "start": 89.2207,
      "duration": 0.2382,
      "velocity": 96,
      "chip": "ym2612"
    },
    {
      "channel": 4,
      "note": 40,
      "start": 89.3003,
      "duration": 0.238,
      "velocity": 96,
      "chip": "ym2612"
    },
    {
      "channel": 2,
      "note": 33,
      "start": 89.4574,
      "duration": 0.238,
      "velocity": 96,
      "chip": "ym2612"
    },
    {
      "channel": 3,
      "note": 40,
      "start": 89.538,
      "duration": 0.2387,
      "velocity": 96,
      "chip": "ym2612"
    },
    {
      "channel": 4,
      "note": 45,
      "start": 89.6179,
      "duration": 0.2386,
      "velocity": 96,
      "chip": "ym2612"
    },
    {
      "channel": 2,
      "note": 40,
      "start": 89.7753,
      "duration": 0.238,
      "velocity": 96,
      "chip": "ym2612"
    },
    {
      "channel": 3,
      "note": 45,
      "start": 89.8562,
      "duration": 0.2385,
      "velocity": 96,
      "chip": "ym2612"
    },
    {
      "channel": 4,
      "note": 47,
      "start": 89.9357,
      "duration": 0.2386,
      "velocity": 96,
      "chip": "ym2612"
    },
    {
      "channel": 2,
      "note": 45,
      "start": 90.0932,
      "duration": 0.238,
      "velocity": 96,
      "chip": "ym2612"
    },
    {
      "channel": 3,
      "note": 47,
      "start": 90.174,
      "duration": 0.2384,
      "velocity": 96,
      "chip": "ym2612"
    },
    {
      "channel": 4,
      "note": 48,
      "start": 90.2537,
      "duration": 0.2385,
      "velocity": 96,
      "chip": "ym2612"
    },
    {
      "channel": 2,
      "note": 47,
      "start": 90.4109,
      "duration": 0.2382,
      "velocity": 96,
      "chip": "ym2612"
    },
    {
      "channel": 3,
      "note": 48,
      "start": 90.4919,
      "duration": 0.2383,
      "velocity": 96,
      "chip": "ym2612"
    },
    {
      "channel": 4,
      "note": 52,
      "start": 90.5716,
      "duration": 0.2384,
      "velocity": 96,
      "chip": "ym2612"
    },
    {
      "channel": 2,
      "note": 48,
      "start": 90.7286,
      "duration": 0.2381,
      "velocity": 96,
      "chip": "ym2612"
    },
    {
      "channel": 3,
      "note": 52,
      "start": 90.8097,
      "duration": 0.2384,
      "velocity": 96,
      "chip": "ym2612"
    },
    {
      "channel": 0,
      "note": 64,
      "start": 90.8873,
      "duration": 0.1851,
      "velocity": 92,
      "chip": "ym2612"
    },
    {
      "channel": 4,
      "note": 57,
      "start": 90.8898,
      "duration": 0.5554,
      "velocity": 96,
      "chip": "ym2612"
    },
    {
      "channel": 2,
      "note": 52,
      "start": 91.0466,
      "duration": 0.238,
      "velocity": 96,
      "chip": "ym2612"
    },
    {
      "channel": 0,
      "note": 69,
      "start": 91.0992,
      "duration": 0.1849,
      "velocity": 92,
      "chip": "ym2612"
    },
    {
      "channel": 3,
      "note": 57,
      "start": 91.1274,
      "duration": 0.5559,
      "velocity": 96,
      "chip": "ym2612"
    },
    {
      "channel": 1,
      "note": 64,
      "start": 91.2053,
      "duration": 0.1849,
      "velocity": 92,
      "chip": "ym2612"
    },
    {
      "channel": 0,
      "note": 76,
      "start": 91.3108,
      "duration": 0.1852,
      "velocity": 92,
      "chip": "ym2612"
    },
    {
      "channel": 2,
      "note": 57,
      "start": 91.3643,
      "duration": 0.556,
      "velocity": 96,
      "chip": "ym2612"
    },
    {
      "channel": 1,
      "note": 69,
      "start": 91.4171,
      "duration": 0.1851,
      "velocity": 92,
      "chip": "ym2612"
    },
    {
      "channel": 0,
      "note": 76,
      "start": 91.5228,
      "duration": 2.5156,
      "velocity": 92,
      "chip": "ym2612"
    },
    {
      "channel": 4,
      "note": 34,
      "start": 91.5258,
      "duration": 0.2378,
      "velocity": 96,
      "chip": "ym2612"
    },
    {
      "channel": 5,
      "note": 46,
      "start": 91.5284,
      "duration": 5.0826,
      "velocity": 98,
      "chip": "ym2612"
    },
    {
      "channel": 1,
      "note": 76,
      "start": 91.629,
      "duration": 0.1851,
      "velocity": 92,
      "chip": "ym2612"
    },
    {
      "channel": 3,
      "note": 34,
      "start": 91.7634,
      "duration": 0.2382,
      "velocity": 96,
      "chip": "ym2612"
    },
    {
      "channel": 1,
      "note": 76,
      "start": 91.8408,
      "duration": 2.5158,
      "velocity": 92,
      "chip": "ym2612"
    },
    {
      "channel": 4,
      "note": 41,
      "start": 91.8428,
      "duration": 0.238,
      "velocity": 96,
      "chip": "ym2612"
    },
    {
      "channel": 2,
      "note": 34,
      "start": 92.0001,
      "duration": 0.2379,
      "velocity": 96,
      "chip": "ym2612"
    },
    {
      "channel": 3,
      "note": 41,
      "start": 92.0805,
      "duration": 0.2388,
      "velocity": 96,
      "chip": "ym2612"
    },
    {
      "channel": 4,
      "note": 46,
      "start": 92.1602,
      "duration": 0.2388,
      "velocity": 96,
      "chip": "ym2612"
    },
    {
      "channel": 2,
      "note": 41,
      "start": 92.3178,
      "duration": 0.238,
      "velocity": 96,
      "chip": "ym2612"
    },
    {
      "channel": 3,
      "note": 46,
      "start": 92.3987,
      "duration": 0.2385,
      "velocity": 96,
      "chip": "ym2612"
    },
    {
      "channel": 4,
      "note": 41,
      "start": 92.4782,
      "duration": 0.2386,
      "velocity": 96,
      "chip": "ym2612"
    },
    {
      "channel": 2,
      "note": 46,
      "start": 92.6356,
      "duration": 0.238,
      "velocity": 96,
      "chip": "ym2612"
    },
    {
      "channel": 3,
      "note": 41,
      "start": 92.7165,
      "duration": 0.2386,
      "velocity": 96,
      "chip": "ym2612"
    },
    {
      "channel": 4,
      "note": 48,
      "start": 92.7964,
      "duration": 0.2383,
      "velocity": 96,
      "chip": "ym2612"
    },
    {
      "channel": 2,
      "note": 41,
      "start": 92.9535,
      "duration": 0.2379,
      "velocity": 96,
      "chip": "ym2612"
    },
    {
      "channel": 3,
      "note": 48,
      "start": 93.0345,
      "duration": 0.2383,
      "velocity": 96,
      "chip": "ym2612"
    },
    {
      "channel": 4,
      "note": 41,
      "start": 93.1144,
      "duration": 0.238,
      "velocity": 96,
      "chip": "ym2612"
    },
    {
      "channel": 2,
      "note": 48,
      "start": 93.2712,
      "duration": 0.238,
      "velocity": 96,
      "chip": "ym2612"
    },
    {
      "channel": 3,
      "note": 41,
      "start": 93.3521,
      "duration": 0.2381,
      "velocity": 96,
      "chip": "ym2612"
    },
    {
      "channel": 4,
      "note": 50,
      "start": 93.432,
      "duration": 0.238,
      "velocity": 96,
      "chip": "ym2612"
    },
    {
      "channel": 2,
      "note": 41,
      "start": 93.5889,
      "duration": 0.2382,
      "velocity": 96,
      "chip": "ym2612"
    },
    {
      "channel": 3,
      "note": 50,
      "start": 93.6696,
      "duration": 0.2384,
      "velocity": 96,
      "chip": "ym2612"
    },
    {
      "channel": 4,
      "note": 41,
      "start": 93.7497,
      "duration": 0.238,
      "velocity": 96,
      "chip": "ym2612"
    },
    {
      "channel": 2,
      "note": 50,
      "start": 93.9069,
      "duration": 0.238,
      "velocity": 96,
      "chip": "ym2612"
    },
    {
      "channel": 3,
      "note": 41,
      "start": 93.9874,
      "duration": 0.2383,
      "velocity": 96,
      "chip": "ym2612"
    },
    {
      "channel": 0,
      "note": 74,
      "start": 94.0652,
      "duration": 1.2445,
      "velocity": 92,
      "chip": "ym2612"
    },
    {
      "channel": 4,
      "note": 34,
      "start": 94.0677,
      "duration": 0.2379,
      "velocity": 96,
      "chip": "ym2612"
    },
    {
      "channel": 2,
      "note": 41,
      "start": 94.2245,
      "duration": 0.2381,
      "velocity": 96,
      "chip": "ym2612"
    },
    {
      "channel": 3,
      "note": 34,
      "start": 94.3053,
      "duration": 0.2384,
      "velocity": 96,
      "chip": "ym2612"
    },
    {
      "channel": 1,
      "note": 74,
      "start": 94.3833,
      "duration": 1.2445,
      "velocity": 92,
      "chip": "ym2612"
    },
    {
      "channel": 4,
      "note": 41,
      "start": 94.3852,
      "duration": 0.2382,
      "velocity": 96,
      "chip": "ym2612"
    },
    {
      "channel": 2,
      "note": 34,
      "start": 94.5424,
      "duration": 0.2382,
      "velocity": 96,
      "chip": "ym2612"
    },
    {
      "channel": 3,
      "note": 41,
      "start": 94.623,
      "duration": 0.2385,
      "velocity": 96,
      "chip": "ym2612"
    },
    {
      "channel": 4,
      "note": 46,
      "start": 94.703,
      "duration": 0.2384,
      "velocity": 96,
      "chip": "ym2612"
    },
    {
      "channel": 2,
      "note": 41,
      "start": 94.8602,
      "duration": 0.238,
      "velocity": 96,
      "chip": "ym2612"
    },
    {
      "channel": 3,
      "note": 46,
      "start": 94.9411,
      "duration": 0.2384,
      "velocity": 96,
      "chip": "ym2612"
    },
    {
      "channel": 4,
      "note": 41,
      "start": 95.0203,
      "duration": 0.2385,
      "velocity": 96,
      "chip": "ym2612"
    },
    {
      "channel": 2,
      "note": 46,
      "start": 95.1781,
      "duration": 0.238,
      "velocity": 96,
      "chip": "ym2612"
    },
    {
      "channel": 3,
      "note": 41,
      "start": 95.2586,
      "duration": 0.2385,
      "velocity": 96,
      "chip": "ym2612"
    },
    {
      "channel": 0,
      "note": 79,
      "start": 95.3364,
      "duration": 0.7679,
      "velocity": 92,
      "chip": "ym2612"
    },
    {
      "channel": 4,
      "note": 48,
      "start": 95.3389,
      "duration": 0.2381,
      "velocity": 96,
      "chip": "ym2612"
    },
    {
      "channel": 2,
      "note": 41,
      "start": 95.4959,
      "duration": 0.2381,
      "velocity": 96,
      "chip": "ym2612"
    },
    {
      "channel": 3,
      "note": 48,
      "start": 95.5767,
      "duration": 0.2383,
      "velocity": 96,
      "chip": "ym2612"
    },
    {
      "channel": 1,
      "note": 79,
      "start": 95.6545,
      "duration": 0.7678,
      "velocity": 92,
      "chip": "ym2612"
    },
    {
      "channel": 4,
      "note": 41,
      "start": 95.6564,
      "duration": 0.2382,
      "velocity": 96,
      "chip": "ym2612"
    },
    {
      "channel": 2,
      "note": 48,
      "start": 95.8136,
      "duration": 0.238,
      "velocity": 96,
      "chip": "ym2612"
    },
    {
      "channel": 3,
      "note": 41,
      "start": 95.8943,
      "duration": 0.2389,
      "velocity": 96,
      "chip": "ym2612"
    },
    {
      "channel": 4,
      "note": 50,
      "start": 95.9742,
      "duration": 0.2384,
      "velocity": 96,
      "chip": "ym2612"
    },
    {
      "channel": 0,
      "note": 77,
      "start": 96.131,
      "duration": 0.1322,
      "velocity": 92,
      "chip": "ym2612"
    },
    {
      "channel": 2,
      "note": 41,
      "start": 96.1319,
      "duration": 0.2375,
      "velocity": 96,
      "chip": "ym2612"
    },
    {
      "channel": 3,
      "note": 50,
      "start": 96.2123,
      "duration": 0.2393,
      "velocity": 96,
      "chip": "ym2612"
    },
    {
      "channel": 0,
      "note": 76,
      "start": 96.2898,
      "duration": 0.1322,
      "velocity": 92,
      "chip": "ym2612"
    },
    {
      "channel": 4,
      "note": 41,
      "start": 96.292,
      "duration": 0.2382,
      "velocity": 96,
      "chip": "ym2612"
    },
    {
      "channel": 0,
      "note": 74,
      "start": 96.4489,
      "duration": 0.132,
      "velocity": 92,
      "chip": "ym2612"
    },
    {
      "channel": 1,
      "note": 77,
      "start": 96.4495,
      "duration": 0.1316,
      "velocity": 92,
      "chip": "ym2612"
    },
    {
      "channel": 2,
      "note": 50,
      "start": 96.4502,
      "duration": 0.2372,
      "velocity": 96,
      "chip": "ym2612"
    },
    {
      "channel": 3,
      "note": 41,
      "start": 96.5298,
      "duration": 0.2389,
      "velocity": 96,
      "chip": "ym2612"
    },
    {
      "channel": 0,
      "note": 76,
      "start": 96.6076,
      "duration": 4.4226,
      "velocity": 92,
      "chip": "ym2612"
    },
    {
      "channel": 1,
      "note": 76,
      "start": 96.6082,
      "duration": 0.1318,
      "velocity": 92,
      "chip": "ym2612"
    },
    {
      "channel": 4,
      "note": 33,
      "start": 96.6105,
      "duration": 0.2377,
      "velocity": 96,
      "chip": "ym2612"
    },
    {
      "channel": 5,
      "note": 45,
      "start": 96.6112,
      "duration": 4.9249,
      "velocity": 98,
      "chip": "ym2612"
    },
    {
      "channel": 1,
      "note": 74,
      "start": 96.7668,
      "duration": 0.1323,
      "velocity": 92,
      "chip": "ym2612"
    },
    {
      "channel": 2,
      "note": 41,
      "start": 96.7674,
      "duration": 0.2377,
      "velocity": 96,
      "chip": "ym2612"
    },
    {
      "channel": 3,
      "note": 33,
      "start": 96.8479,
      "duration": 0.2384,
      "velocity": 96,
      "chip": "ym2612"
    },
    {
      "channel": 1,
      "note": 76,
      "start": 96.9256,
      "duration": 4.4227,
      "velocity": 92,
      "chip": "ym2612"
    },
    {
      "channel": 4,
      "note": 40,
      "start": 96.9275,
      "duration": 0.2383,
      "velocity": 96,
      "chip": "ym2612"
    },
    {
      "channel": 2,
      "note": 33,
      "start": 97.0849,
      "duration": 0.238,
      "velocity": 96,
      "chip": "ym2612"
    },
    {
      "channel": 3,
      "note": 40,
      "start": 97.1655,
      "duration": 0.2385,
      "velocity": 96,
      "chip": "ym2612"
    },
    {
      "channel": 4,
      "note": 47,
      "start": 97.2451,
      "duration": 0.2387,
      "velocity": 96,
      "chip": "ym2612"
    },
    {
      "channel": 2,
      "note": 40,
      "start": 97.4027,
      "duration": 0.238,
      "velocity": 96,
      "chip": "ym2612"
    },
    {
      "channel": 3,
      "note": 47,
      "start": 97.4835,
      "duration": 0.2386,
      "velocity": 96,
      "chip": "ym2612"
    },
    {
      "channel": 4,
      "note": 40,
      "start": 97.563,
      "duration": 0.2386,
      "velocity": 96,
      "chip": "ym2612"
    },
    {
      "channel": 2,
      "note": 47,
      "start": 97.7206,
      "duration": 0.238,
      "velocity": 96,
      "chip": "ym2612"
    },
    {
      "channel": 3,
      "note": 40,
      "start": 97.8013,
      "duration": 0.2386,
      "velocity": 96,
      "chip": "ym2612"
    },
    {
      "channel": 4,
      "note": 48,
      "start": 97.8811,
      "duration": 0.2385,
      "velocity": 96,
      "chip": "ym2612"
    },
    {
      "channel": 2,
      "note": 40,
      "start": 98.0384,
      "duration": 0.2378,
      "velocity": 96,
      "chip": "ym2612"
    },
    {
      "channel": 3,
      "note": 48,
      "start": 98.1193,
      "duration": 0.2384,
      "velocity": 96,
      "chip": "ym2612"
    },
    {
      "channel": 4,
      "note": 40,
      "start": 98.1988,
      "duration": 0.2386,
      "velocity": 96,
      "chip": "ym2612"
    },
    {
      "channel": 2,
      "note": 48,
      "start": 98.3562,
      "duration": 0.2381,
      "velocity": 96,
      "chip": "ym2612"
    },
    {
      "channel": 3,
      "note": 40,
      "start": 98.4371,
      "duration": 0.2384,
      "velocity": 96,
      "chip": "ym2612"
    },
    {
      "channel": 4,
      "note": 45,
      "start": 98.517,
      "duration": 0.2381,
      "velocity": 96,
      "chip": "ym2612"
    },
    {
      "channel": 2,
      "note": 40,
      "start": 98.674,
      "duration": 0.238,
      "velocity": 96,
      "chip": "ym2612"
    },
    {
      "channel": 3,
      "note": 45,
      "start": 98.7548,
      "duration": 0.2382,
      "velocity": 96,
      "chip": "ym2612"
    },
    {
      "channel": 4,
      "note": 40,
      "start": 98.8347,
      "duration": 0.238,
      "velocity": 96,
      "chip": "ym2612"
    },
    {
      "channel": 2,
      "note": 45,
      "start": 98.9917,
      "duration": 0.238,
      "velocity": 96,
      "chip": "ym2612"
    },
    {
      "channel": 3,
      "note": 40,
      "start": 99.0724,
      "duration": 0.2384,
      "velocity": 96,
      "chip": "ym2612"
    },
    {
      "channel": 4,
      "note": 33,
      "start": 99.1523,
      "duration": 0.2382,
      "velocity": 96,
      "chip": "ym2612"
    },
    {
      "channel": 2,
      "note": 40,
      "start": 99.3096,
      "duration": 0.238,
      "velocity": 96,
      "chip": "ym2612"
    },
    {
      "channel": 3,
      "note": 33,
      "start": 99.3902,
      "duration": 0.2384,
      "velocity": 96,
      "chip": "ym2612"
    },
    {
      "channel": 4,
      "note": 40,
      "start": 99.4697,
      "duration": 0.2385,
      "velocity": 96,
      "chip": "ym2612"
    },
    {
      "channel": 2,
      "note": 33,
      "start": 99.6274,
      "duration": 0.238,
      "velocity": 96,
      "chip": "ym2612"
    },
    {
      "channel": 3,
      "note": 40,
      "start": 99.7079,
      "duration": 0.2385,
      "velocity": 96,
      "chip": "ym2612"
    },
    {
      "channel": 4,
      "note": 47,
      "start": 99.7876,
      "duration": 0.2387,
      "velocity": 96,
      "chip": "ym2612"
    },
    {
      "channel": 2,
      "note": 40,
      "start": 99.9451,
      "duration": 0.2382,
      "velocity": 96,
      "chip": "ym2612"
    },
    {
      "channel": 3,
      "note": 47,
      "start": 100.026,
      "duration": 0.2384,
      "velocity": 96,
      "chip": "ym2612"
    },
    {
      "channel": 4,
      "note": 40,
      "start": 100.1056,
      "duration": 0.2385,
      "velocity": 96,
      "chip": "ym2612"
    },
    {
      "channel": 2,
      "note": 47,
      "start": 100.2629,
      "duration": 0.2382,
      "velocity": 96,
      "chip": "ym2612"
    },
    {
      "channel": 3,
      "note": 40,
      "start": 100.3438,
      "duration": 0.2384,
      "velocity": 96,
      "chip": "ym2612"
    },
    {
      "channel": 4,
      "note": 48,
      "start": 100.4239,
      "duration": 0.2382,
      "velocity": 96,
      "chip": "ym2612"
    },
    {
      "channel": 2,
      "note": 40,
      "start": 100.5808,
      "duration": 0.238,
      "velocity": 96,
      "chip": "ym2612"
    },
    {
      "channel": 3,
      "note": 48,
      "start": 100.6618,
      "duration": 0.2382,
      "velocity": 96,
      "chip": "ym2612"
    },
    {
      "channel": 4,
      "note": 40,
      "start": 100.7411,
      "duration": 0.2385,
      "velocity": 96,
      "chip": "ym2612"
    },
    {
      "channel": 2,
      "note": 48,
      "start": 100.8986,
      "duration": 0.238,
      "velocity": 96,
      "chip": "ym2612"
    },
    {
      "channel": 3,
      "note": 40,
      "start": 100.9793,
      "duration": 0.2385,
      "velocity": 96,
      "chip": "ym2612"
    },
    {
      "channel": 0,
      "note": 64,
      "start": 101.057,
      "duration": 0.1852,
      "velocity": 92,
      "chip": "ym2612"
    },
    {
      "channel": 4,
      "note": 45,
      "start": 101.0592,
      "duration": 0.2384,
      "velocity": 96,
      "chip": "ym2612"
    },
    {
      "channel": 2,
      "note": 40,
      "start": 101.2164,
      "duration": 0.238,
      "velocity": 96,
      "chip": "ym2612"
    },
    {
      "channel": 0,
      "note": 69,
      "start": 101.2689,
      "duration": 0.1851,
      "velocity": 92,
      "chip": "ym2612"
    },
    {
      "channel": 3,
      "note": 45,
      "start": 101.2973,
      "duration": 0.2383,
      "velocity": 96,
      "chip": "ym2612"
    },
    {
      "channel": 1,
      "note": 64,
      "start": 101.3752,
      "duration": 0.1849,
      "velocity": 92,
      "chip": "ym2612"
    },
    {
      "channel": 4,
      "note": 40,
      "start": 101.3773,
      "duration": 0.238,
      "velocity": 96,
      "chip": "ym2612"
    },
    {
      "channel": 0,
      "note": 76,
      "start": 101.4808,
      "duration": 0.1851,
      "velocity": 92,
      "chip": "ym2612"
    },
    {
      "channel": 2,
      "note": 45,
      "start": 101.5341,
      "duration": 0.2382,
      "velocity": 96,
      "chip": "ym2612"
    },
    {
      "channel": 1,
      "note": 69,
      "start": 101.587,
      "duration": 0.1851,
      "velocity": 92,
      "chip": "ym2612"
    },
    {
      "channel": 3,
      "note": 40,
      "start": 101.615,
      "duration": 0.2384,
      "velocity": 96,
      "chip": "ym2612"
    },
    {
      "channel": 0,
      "note": 76,
      "start": 101.6927,
      "duration": 2.5157,
      "velocity": 92,
      "chip": "ym2612"
    },
    {
      "channel": 4,
      "note": 34,
      "start": 101.6956,
      "duration": 0.2378,
      "velocity": 96,
      "chip": "ym2612"
    },
    {
      "channel": 5,
      "note": 46,
      "start": 101.6962,
      "duration": 5.0847,
      "velocity": 98,
      "chip": "ym2612"
    },
    {
      "channel": 1,
      "note": 76,
      "start": 101.7989,
      "duration": 0.1851,
      "velocity": 92,
      "chip": "ym2612"
    },
    {
      "channel": 2,
      "note": 40,
      "start": 101.852,
      "duration": 0.2381,
      "velocity": 96,
      "chip": "ym2612"
    },
    {
      "channel": 3,
      "note": 34,
      "start": 101.9331,
      "duration": 0.2381,
      "velocity": 96,
      "chip": "ym2612"
    },
    {
      "channel": 1,
      "note": 76,
      "start": 102.0107,
      "duration": 2.5157,
      "velocity": 92,
      "chip": "ym2612"
    },
    {
      "channel": 4,
      "note": 41,
      "start": 102.0127,
      "duration": 0.238,
      "velocity": 96,
      "chip": "ym2612"
    },
    {
      "channel": 2,
      "note": 34,
      "start": 102.1698,
      "duration": 0.2381,
      "velocity": 96,
      "chip": "ym2612"
    },
    {
      "channel": 3,
      "note": 41,
      "start": 102.2504,
      "duration": 0.2385,
      "velocity": 96,
      "chip": "ym2612"
    },
    {
      "channel": 4,
      "note": 46,
      "start": 102.3301,
      "duration": 0.2387,
      "velocity": 96,
      "chip": "ym2612"
    },
    {
      "channel": 2,
      "note": 41,
      "start": 102.4875,
      "duration": 0.2382,
      "velocity": 96,
      "chip": "ym2612"
    },
    {
      "channel": 3,
      "note": 46,
      "start": 102.5684,
      "duration": 0.2385,
      "velocity": 96,
      "chip": "ym2612"
    },
    {
      "channel": 4,
      "note": 41,
      "start": 102.648,
      "duration": 0.2387,
      "velocity": 96,
      "chip": "ym2612"
    },
    {
      "channel": 2,
      "note": 46,
      "start": 102.8055,
      "duration": 0.238,
      "velocity": 96,
      "chip": "ym2612"
    },
    {
      "channel": 3,
      "note": 41,
      "start": 102.8863,
      "duration": 0.2384,
      "velocity": 96,
      "chip": "ym2612"
    },
    {
      "channel": 4,
      "note": 48,
      "start": 102.9663,
      "duration": 0.2384,
      "velocity": 96,
      "chip": "ym2612"
    },
    {
      "channel": 2,
      "note": 41,
      "start": 103.1232,
      "duration": 0.2381,
      "velocity": 96,
      "chip": "ym2612"
    },
    {
      "channel": 3,
      "note": 48,
      "start": 103.2044,
      "duration": 0.2382,
      "velocity": 96,
      "chip": "ym2612"
    },
    {
      "channel": 4,
      "note": 41,
      "start": 103.2843,
      "duration": 0.238,
      "velocity": 96,
      "chip": "ym2612"
    },
    {
      "channel": 2,
      "note": 48,
      "start": 103.4412,
      "duration": 0.2379,
      "velocity": 96,
      "chip": "ym2612"
    },
    {
      "channel": 3,
      "note": 41,
      "start": 103.5219,
      "duration": 0.2382,
      "velocity": 96,
      "chip": "ym2612"
    },
    {
      "channel": 4,
      "note": 50,
      "start": 103.6018,
      "duration": 0.238,
      "velocity": 96,
      "chip": "ym2612"
    },
    {
      "channel": 2,
      "note": 41,
      "start": 103.7588,
      "duration": 0.238,
      "velocity": 96,
      "chip": "ym2612"
    },
    {
      "channel": 3,
      "note": 50,
      "start": 103.8396,
      "duration": 0.2383,
      "velocity": 96,
      "chip": "ym2612"
    },
    {
      "channel": 4,
      "note": 41,
      "start": 103.9195,
      "duration": 0.2382,
      "velocity": 96,
      "chip": "ym2612"
    },
    {
      "channel": 2,
      "note": 50,
      "start": 104.0767,
      "duration": 0.2382,
      "velocity": 96,
      "chip": "ym2612"
    },
    {
      "channel": 3,
      "note": 41,
      "start": 104.1574,
      "duration": 0.2382,
      "velocity": 96,
      "chip": "ym2612"
    },
    {
      "channel": 0,
      "note": 74,
      "start": 104.2351,
      "duration": 1.2445,
      "velocity": 92,
      "chip": "ym2612"
    },
    {
      "channel": 4,
      "note": 34,
      "start": 104.2377,
      "duration": 0.2377,
      "velocity": 96,
      "chip": "ym2612"
    },
    {
      "channel": 2,
      "note": 41,
      "start": 104.3945,
      "duration": 0.2382,
      "velocity": 96,
      "chip": "ym2612"
    },
    {
      "channel": 3,
      "note": 34,
      "start": 104.4751,
      "duration": 0.2385,
      "velocity": 96,
      "chip": "ym2612"
    },
    {
      "channel": 1,
      "note": 74,
      "start": 104.5531,
      "duration": 1.2445,
      "velocity": 92,
      "chip": "ym2612"
    },
    {
      "channel": 4,
      "note": 41,
      "start": 104.5549,
      "duration": 0.2382,
      "velocity": 96,
      "chip": "ym2612"
    },
    {
      "channel": 2,
      "note": 34,
      "start": 104.7123,
      "duration": 0.2382,
      "velocity": 96,
      "chip": "ym2612"
    },
    {
      "channel": 3,
      "note": 41,
      "start": 104.7928,
      "duration": 0.2385,
      "velocity": 96,
      "chip": "ym2612"
    },
    {
      "channel": 4,
      "note": 46,
      "start": 104.8728,
      "duration": 0.2383,
      "velocity": 96,
      "chip": "ym2612"
    },
    {
      "channel": 2,
      "note": 41,
      "start": 105.03,
      "duration": 0.2381,
      "velocity": 96,
      "chip": "ym2612"
    },
    {
      "channel": 3,
      "note": 46,
      "start": 105.1109,
      "duration": 0.2385,
      "velocity": 96,
      "chip": "ym2612"
    },
    {
      "channel": 4,
      "note": 41,
      "start": 105.1904,
      "duration": 0.2385,
      "velocity": 96,
      "chip": "ym2612"
    },
    {
      "channel": 2,
      "note": 46,
      "start": 105.3479,
      "duration": 0.2381,
      "velocity": 96,
      "chip": "ym2612"
    },
    {
      "channel": 3,
      "note": 41,
      "start": 105.4285,
      "duration": 0.2386,
      "velocity": 96,
      "chip": "ym2612"
    },
    {
      "channel": 0,
      "note": 79,
      "start": 105.5062,
      "duration": 0.7679,
      "velocity": 92,
      "chip": "ym2612"
    },
    {
      "channel": 4,
      "note": 48,
      "start": 105.5088,
      "duration": 0.238,
      "velocity": 96,
      "chip": "ym2612"
    },
    {
      "channel": 2,
      "note": 41,
      "start": 105.6658,
      "duration": 0.2378,
      "velocity": 96,
      "chip": "ym2612"
    },
    {
      "channel": 3,
      "note": 48,
      "start": 105.7465,
      "duration": 0.2384,
      "velocity": 96,
      "chip": "ym2612"
    },
    {
      "channel": 1,
      "note": 79,
      "start": 105.8242,
      "duration": 0.768,
      "velocity": 92,
      "chip": "ym2612"
    },
    {
      "channel": 4,
      "note": 41,
      "start": 105.8262,
      "duration": 0.2382,
      "velocity": 96,
      "chip": "ym2612"
    },
    {
      "channel": 2,
      "note": 48,
      "start": 105.9835,
      "duration": 0.2381,
      "velocity": 96,
      "chip": "ym2612"
    },
    {
      "channel": 3,
      "note": 41,
      "start": 106.0641,
      "duration": 0.2389,
      "velocity": 96,
      "chip": "ym2612"
    },
    {
      "channel": 4,
      "note": 50,
      "start": 106.1442,
      "duration": 0.2384,
      "velocity": 96,
      "chip": "ym2612"
    },
    {
      "channel": 0,
      "note": 77,
      "start": 106.3009,
      "duration": 0.1321,
      "velocity": 92,
      "chip": "ym2612"
    },
    {
      "channel": 2,
      "note": 41,
      "start": 106.3017,
      "duration": 0.2377,
      "velocity": 96,
      "chip": "ym2612"
    },
    {
      "channel": 3,
      "note": 50,
      "start": 106.3822,
      "duration": 0.2389,
      "velocity": 96,
      "chip": "ym2612"
    },
    {
      "channel": 0,
      "note": 76,
      "start": 106.4597,
      "duration": 0.1322,
      "velocity": 92,
      "chip": "ym2612"
    },
    {
      "channel": 4,
      "note": 41,
      "start": 106.4618,
      "duration": 0.2383,
      "velocity": 96,
      "chip": "ym2612"
    },
    {
      "channel": 0,
      "note": 74,
      "start": 106.6186,
      "duration": 0.1323,
      "velocity": 92,
      "chip": "ym2612"
    },
    {
      "channel": 1,
      "note": 77,
      "start": 106.6191,
      "duration": 0.132,
      "velocity": 92,
      "chip": "ym2612"
    },
    {
      "channel": 2,
      "note": 50,
      "start": 106.6198,
      "duration": 0.2375,
      "velocity": 96,
      "chip": "ym2612"
    },
    {
      "channel": 3,
      "note": 41,
      "start": 106.6998,
      "duration": 0.2388,
      "velocity": 96,
      "chip": "ym2612"
    },
    {
      "channel": 0,
      "note": 76,
      "start": 106.7775,
      "duration": 2.5159,
      "velocity": 92,
      "chip": "ym2612"
    },
    {
      "channel": 1,
      "note": 76,
      "start": 106.7781,
      "duration": 0.1319,
      "velocity": 92,
      "chip": "ym2612"
    },
    {
      "channel": 4,
      "note": 35,
      "start": 106.7805,
      "duration": 0.2376,
      "velocity": 96,
      "chip": "ym2612"
    },
    {
      "channel": 5,
      "note": 47,
      "start": 106.781,
      "duration": 2.3822,
      "velocity": 98,
      "chip": "ym2612"
    },
    {
      "channel": 1,
      "note": 74,
      "start": 106.9367,
      "duration": 0.1321,
      "velocity": 92,
      "chip": "ym2612"
    },
    {
      "channel": 2,
      "note": 41,
      "start": 106.9373,
      "duration": 0.2376,
      "velocity": 96,
      "chip": "ym2612"
    },
    {
      "channel": 3,
      "note": 35,
      "start": 107.0177,
      "duration": 0.2384,
      "velocity": 96,
      "chip": "ym2612"
    },
    {
      "channel": 1,
      "note": 76,
      "start": 107.0955,
      "duration": 2.5159,
      "velocity": 92,
      "chip": "ym2612"
    },
    {
      "channel": 4,
      "note": 41,
      "start": 107.0974,
      "duration": 0.2383,
      "velocity": 96,
      "chip": "ym2612"
    },
    {
      "channel": 2,
      "note": 35,
      "start": 107.2548,
      "duration": 0.2381,
      "velocity": 96,
      "chip": "ym2612"
    },
    {
      "channel": 3,
      "note": 41,
      "start": 107.3354,
      "duration": 0.2387,
      "velocity": 96,
      "chip": "ym2612"
    },
    {
      "channel": 4,
      "note": 45,
      "start": 107.4152,
      "duration": 0.2385,
      "velocity": 96,
      "chip": "ym2612"
    },
    {
      "channel": 2,
      "note": 41,
      "start": 107.5726,
      "duration": 0.2379,
      "velocity": 96,
      "chip": "ym2612"
    },
    {
      "channel": 3,
      "note": 45,
      "start": 107.6534,
      "duration": 0.2386,
      "velocity": 96,
      "chip": "ym2612"
    },
    {
      "channel": 4,
      "note": 50,
      "start": 107.7329,
      "duration": 0.2386,
      "velocity": 96,
      "chip": "ym2612"
    },
    {
      "channel": 2,
      "note": 45,
      "start": 107.8905,
      "duration": 0.238,
      "velocity": 96,
      "chip": "ym2612"
    },
    {
      "channel": 3,
      "note": 50,
      "start": 107.9712,
      "duration": 0.2385,
      "velocity": 96,
      "chip": "ym2612"
    },
    {
      "channel": 4,
      "note": 53,
      "start": 108.0511,
      "duration": 0.2383,
      "velocity": 96,
      "chip": "ym2612"
    },
    {
      "channel": 2,
      "note": 50,
      "start": 108.2082,
      "duration": 0.2381,
      "velocity": 96,
      "chip": "ym2612"
    },
    {
      "channel": 3,
      "note": 53,
      "start": 108.289,
      "duration": 0.2383,
      "velocity": 96,
      "chip": "ym2612"
    },
    {
      "channel": 4,
      "note": 57,
      "start": 108.3691,
      "duration": 0.2381,
      "velocity": 96,
      "chip": "ym2612"
    },
    {
      "channel": 2,
      "note": 53,
      "start": 108.5259,
      "duration": 0.2382,
      "velocity": 96,
      "chip": "ym2612"
    },
    {
      "channel": 3,
      "note": 57,
      "start": 108.6069,
      "duration": 0.2382,
      "velocity": 96,
      "chip": "ym2612"
    },
    {
      "channel": 4,
      "note": 62,
      "start": 108.6866,
      "duration": 0.2382,
      "velocity": 96,
      "chip": "ym2612"
    },
    {
      "channel": 2,
      "note": 57,
      "start": 108.8438,
      "duration": 0.2379,
      "velocity": 96,
      "chip": "ym2612"
    },
    {
      "channel": 3,
      "note": 62,
      "start": 108.9245,
      "duration": 0.2382,
      "velocity": 96,
      "chip": "ym2612"
    },
    {
      "channel": 4,
      "note": 65,
      "start": 109.0044,
      "duration": 0.2382,
      "velocity": 96,
      "chip": "ym2612"
    },
    {
      "channel": 2,
      "note": 62,
      "start": 109.1616,
      "duration": 0.238,
      "velocity": 96,
      "chip": "ym2612"
    },
    {
      "channel": 3,
      "note": 65,
      "start": 109.2422,
      "duration": 0.2384,
      "velocity": 96,
      "chip": "ym2612"
    },
    {
      "channel": 0,
      "note": 76,
      "start": 109.32,
      "duration": 1.2445,
      "velocity": 92,
      "chip": "ym2612"
    },
    {
      "channel": 4,
      "note": 40,
      "start": 109.3227,
      "duration": 0.2378,
      "velocity": 96,
      "chip": "ym2612"
    },
    {
      "channel": 5,
      "note": 40,
      "start": 109.3233,
      "duration": 2.3821,
      "velocity": 98,
      "chip": "ym2612"
    },
    {
      "channel": 2,
      "note": 65,
      "start": 109.4795,
      "duration": 0.238,
      "velocity": 96,
      "chip": "ym2612"
    },
    {
      "channel": 3,
      "note": 40,
      "start": 109.5602,
      "duration": 0.2386,
      "velocity": 96,
      "chip": "ym2612"
    },
    {
      "channel": 1,
      "note": 76,
      "start": 109.638,
      "duration": 1.2446,
      "velocity": 92,
      "chip": "ym2612"
    },
    {
      "channel": 4,
      "note": 50,
      "start": 109.6399,
      "duration": 0.5557,
      "velocity": 96,
      "chip": "ym2612"
    },
    {
      "channel": 2,
      "note": 40,
      "start": 109.7973,
      "duration": 0.238,
      "velocity": 96,
      "chip": "ym2612"
    },
    {
      "channel": 3,
      "note": 50,
      "start": 109.8779,
      "duration": 0.556,
      "velocity": 96,
      "chip": "ym2612"
    },
    {
      "channel": 2,
      "note": 50,
      "start": 110.1151,
      "duration": 0.5559,
      "velocity": 96,
      "chip": "ym2612"
    },
    {
      "channel": 4,
      "note": 50,
      "start": 110.2754,
      "duration": 0.2386,
      "velocity": 96,
      "chip": "ym2612"
    },
    {
      "channel": 3,
      "note": 50,
      "start": 110.5137,
      "duration": 0.2382,
      "velocity": 96,
      "chip": "ym2612"
    },
    {
      "channel": 0,
      "note": 76,
      "start": 110.5912,
      "duration": 0.9268,
      "velocity": 92,
      "chip": "ym2612"
    },
    {
      "channel": 4,
      "note": 40,
      "start": 110.5939,
      "duration": 0.2382,
      "velocity": 96,
      "chip": "ym2612"
    },
    {
      "channel": 2,
      "note": 50,
      "start": 110.7506,
      "duration": 0.2382,
      "velocity": 96,
      "chip": "ym2612"
    },
    {
      "channel": 3,
      "note": 40,
      "start": 110.8318,
      "duration": 0.238,
      "velocity": 96,
      "chip": "ym2612"
    },
    {
      "channel": 1,
      "note": 76,
      "start": 110.9093,
      "duration": 0.9267,
      "velocity": 92,
      "chip": "ym2612"
    },
    {
      "channel": 4,
      "note": 49,
      "start": 110.9113,
      "duration": 0.5557,
      "velocity": 96,
      "chip": "ym2612"
    },
    {
      "channel": 2,
      "note": 40,
      "start": 111.0684,
      "duration": 0.238,
      "velocity": 96,
      "chip": "ym2612"
    },
    {
      "channel": 3,
      "note": 49,
      "start": 111.149,
      "duration": 0.5559,
      "velocity": 96,
      "chip": "ym2612"
    },
    {
      "channel": 2,
      "note": 49,
      "start": 111.3863,
      "duration": 0.5558,
      "velocity": 96,
      "chip": "ym2612"
    },
    {
      "channel": 0,
      "note": 76,
      "start": 111.5446,
      "duration": 0.291,
      "velocity": 92,
      "chip": "ym2612"
    },
    {
      "channel": 4,
      "note": 49,
      "start": 111.5472,
      "duration": 0.2378,
      "velocity": 96,
      "chip": "ym2612"
    },
    {
      "channel": 3,
      "note": 49,
      "start": 111.7847,
      "duration": 0.2382,
      "velocity": 96,
      "chip": "ym2612"
    },
    {
      "channel": 0,
      "note": 76,
      "start": 111.8624,
      "duration": 1.2446,
      "velocity": 92,
      "chip": "ym2612"
    },
    {
      "channel": 1,
      "note": 76,
      "start": 111.863,
      "duration": 0.2907,
      "velocity": 92,
      "chip": "ym2612"
    },
    {
      "channel": 4,
      "note": 38,
      "start": 111.8654,
      "duration": 0.2375,
      "velocity": 96,
      "chip": "ym2612"
    },
    {
      "channel": 5,
      "note": 38,
      "start": 111.866,
      "duration": 2.542,
      "velocity": 98,
      "chip": "ym2612"
    },
    {
      "channel": 2,
      "note": 49,
      "start": 112.0218,
      "duration": 0.238,
      "velocity": 96,
      "chip": "ym2612"
    },
    {
      "channel": 3,
      "note": 38,
      "start": 112.1026,
      "duration": 0.2384,
      "velocity": 96,
      "chip": "ym2612"
    },
    {
      "channel": 1,
      "note": 76,
      "start": 112.1804,
      "duration": 1.2447,
      "velocity": 92,
      "chip": "ym2612"
    },
    {
      "channel": 4,
      "note": 45,
      "start": 112.1824,
      "duration": 0.2382,
      "velocity": 96,
      "chip": "ym2612"
    },
    {
      "channel": 2,
      "note": 38,
      "start": 112.3398,
      "duration": 0.238,
      "velocity": 96,
      "chip": "ym2612"
    },
    {
      "channel": 3,
      "note": 45,
      "start": 112.4203,
      "duration": 0.2386,
      "velocity": 96,
      "chip": "ym2612"
    },
    {
      "channel": 4,
      "note": 50,
      "start": 112.5,
      "duration": 0.2384,
      "velocity": 96,
      "chip": "ym2612"
    },
    {
      "channel": 2,
      "note": 45,
      "start": 112.6575,
      "duration": 0.238,
      "velocity": 96,
      "chip": "ym2612"
    },
    {
      "channel": 3,
      "note": 50,
      "start": 112.7382,
      "duration": 0.2385,
      "velocity": 96,
      "chip": "ym2612"
    },
    {
      "channel": 4,
      "note": 52,
      "start": 112.8183,
      "duration": 0.2382,
      "velocity": 96,
      "chip": "ym2612"
    },
    {
      "channel": 2,
      "note": 50,
      "start": 112.9752,
      "duration": 0.2382,
      "velocity": 96,
      "chip": "ym2612"
    },
    {
      "channel": 3,
      "note": 52,
      "start": 113.0562,
      "duration": 0.2382,
      "velocity": 96,
      "chip": "ym2612"
    },
    {
      "channel": 4,
      "note": 53,
      "start": 113.1361,
      "duration": 1.191,
      "velocity": 96,
      "chip": "ym2612"
    },
    {
      "channel": 2,
      "note": 52,
      "start": 113.293,
      "duration": 0.2382,
      "velocity": 96,
      "chip": "ym2612"
    },
    {
      "channel": 3,
      "note": 53,
      "start": 113.3738,
      "duration": 1.1915,
      "velocity": 96,
      "chip": "ym2612"
    },
    {
      "channel": 0,
      "note": 74,
      "start": 113.4515,
      "duration": 0.609,
      "velocity": 92,
      "chip": "ym2612"
    },
    {
      "channel": 2,
      "note": 53,
      "start": 113.6108,
      "duration": 1.1915,
      "velocity": 96,
      "chip": "ym2612"
    },
    {
      "channel": 1,
      "note": 74,
      "start": 113.7695,
      "duration": 0.609,
      "velocity": 92,
      "chip": "ym2612"
    },
    {
      "channel": 0,
      "note": 79,
      "start": 114.087,
      "duration": 0.2912,
      "velocity": 92,
      "chip": "ym2612"
    },
    {
      "channel": 0,
      "note": 74,
      "start": 114.4049,
      "duration": 1.88,
      "velocity": 92,
      "chip": "ym2612"
    },
    {
      "channel": 1,
      "note": 79,
      "start": 114.4055,
      "duration": 0.2907,
      "velocity": 92,
      "chip": "ym2612"
    },
    {
      "channel": 4,
      "note": 43,
      "start": 114.4076,
      "duration": 0.2379,
      "velocity": 96,
      "chip": "ym2612"
    },
    {
      "channel": 5,
      "note": 43,
      "start": 114.4082,
      "duration": 2.3822,
      "velocity": 98,
      "chip": "ym2612"
    },
    {
      "channel": 3,
      "note": 43,
      "start": 114.6451,
      "duration": 0.2385,
      "velocity": 96,
      "chip": "ym2612"
    },
    {
      "channel": 1,
      "note": 74,
      "start": 114.723,
      "duration": 1.8801,
      "velocity": 92,
      "chip": "ym2612"
    },
    {
      "channel": 4,
      "note": 50,
      "start": 114.7252,
      "duration": 0.2381,
      "velocity": 96,
      "chip": "ym2612"
    },
    {
      "channel": 2,
      "note": 43,
      "start": 114.8821,
      "duration": 0.238,
      "velocity": 96,
      "chip": "ym2612"
    },
    {
      "channel": 3,
      "note": 50,
      "start": 114.963,
      "duration": 0.2385,
      "velocity": 96,
      "chip": "ym2612"
    },
    {
      "channel": 4,
      "note": 55,
      "start": 115.0429,
      "duration": 0.2383,
      "velocity": 96,
      "chip": "ym2612"
    },
    {
      "channel": 2,
      "note": 50,
      "start": 115.2,
      "duration": 0.238,
      "velocity": 96,
      "chip": "ym2612"
    },
    {
      "channel": 3,
      "note": 55,
      "start": 115.2809,
      "duration": 0.2382,
      "velocity": 96,
      "chip": "ym2612"
    },
    {
      "channel": 4,
      "note": 50,
      "start": 115.3602,
      "duration": 0.2385,
      "velocity": 96,
      "chip": "ym2612"
    },
    {
      "channel": 2,
      "note": 55,
      "start": 115.5177,
      "duration": 0.2381,
      "velocity": 96,
      "chip": "ym2612"
    },
    {
      "channel": 3,
      "note": 50,
      "start": 115.5983,
      "duration": 0.2386,
      "velocity": 96,
      "chip": "ym2612"
    },
    {
      "channel": 4,
      "note": 55,
      "start": 115.6783,
      "duration": 1.1916,
      "velocity": 96,
      "chip": "ym2612"
    },
    {
      "channel": 2,
      "note": 50,
      "start": 115.8356,
      "duration": 0.238,
      "velocity": 96,
      "chip": "ym2612"
    },
    {
      "channel": 3,
      "note": 55,
      "start": 115.9164,
      "duration": 1.1914,
      "velocity": 96,
      "chip": "ym2612"
    },
    {
      "channel": 2,
      "note": 55,
      "start": 116.1532,
      "duration": 1.1917,
      "velocity": 96,
      "chip": "ym2612"
    },
    {
      "channel": 0,
      "note": 74,
      "start": 116.3117,
      "duration": 0.609,
      "velocity": 92,
      "chip": "ym2612"
    },
    {
      "channel": 1,
      "note": 74,
      "start": 116.6298,
      "duration": 0.6089,
      "velocity": 92,
      "chip": "ym2612"
    },
    {
      "channel": 0,
      "note": 74,
      "start": 116.9474,
      "duration": 0.9268,
      "velocity": 92,
      "chip": "ym2612"
    },
    {
      "channel": 4,
      "note": 36,
      "start": 116.9503,
      "duration": 0.2377,
      "velocity": 96,
      "chip": "ym2612"
    },
    {
      "channel": 5,
      "note": 48,
      "start": 116.951,
      "duration": 2.5422,
      "velocity": 98,
      "chip": "ym2612"
    },
    {
      "channel": 3,
      "note": 36,
      "start": 117.1877,
      "duration": 0.2384,
      "velocity": 96,
      "chip": "ym2612"
    },
    {
      "channel": 1,
      "note": 74,
      "start": 117.2656,
      "duration": 0.9266,
      "velocity": 92,
      "chip": "ym2612"
    },
    {
      "channel": 4,
      "note": 43,
      "start": 117.2676,
      "duration": 0.238,
      "velocity": 96,
      "chip": "ym2612"
    },
    {
      "channel": 2,
      "note": 36,
      "start": 117.4247,
      "duration": 0.238,
      "velocity": 96,
      "chip": "ym2612"
    },
    {
      "channel": 3,
      "note": 43,
      "start": 117.5051,
      "duration": 0.2385,
      "velocity": 96,
      "chip": "ym2612"
    },
    {
      "channel": 4,
      "note": 50,
      "start": 117.5849,
      "duration": 0.2386,
      "velocity": 96,
      "chip": "ym2612"
    },
    {
      "channel": 2,
      "note": 43,
      "start": 117.7423,
      "duration": 0.2382,
      "velocity": 96,
      "chip": "ym2612"
    },
    {
      "channel": 3,
      "note": 50,
      "start": 117.8232,
      "duration": 0.2386,
      "velocity": 96,
      "chip": "ym2612"
    },
    {
      "channel": 0,
      "note": 72,
      "start": 117.9007,
      "duration": 0.2912,
      "velocity": 92,
      "chip": "ym2612"
    },
    {
      "channel": 4,
      "note": 48,
      "start": 117.903,
      "duration": 0.2384,
      "velocity": 96,
      "chip": "ym2612"
    },
    {
      "channel": 2,
      "note": 50,
      "start": 118.0602,
      "duration": 0.238,
      "velocity": 96,
      "chip": "ym2612"
    },
    {
      "channel": 3,
      "note": 48,
      "start": 118.1411,
      "duration": 0.2382,
      "velocity": 96,
      "chip": "ym2612"
    },
    {
      "channel": 0,
      "note": 71,
      "start": 118.2186,
      "duration": 0.2912,
      "velocity": 92,
      "chip": "ym2612"
    },
    {
      "channel": 1,
      "note": 72,
      "start": 118.2191,
      "duration": 0.2908,
      "velocity": 92,
      "chip": "ym2612"
    },
    {
      "channel": 4,
      "note": 47,
      "start": 118.2217,
      "duration": 0.2375,
      "velocity": 96,
      "chip": "ym2612"
    },
    {
      "channel": 2,
      "note": 48,
      "start": 118.3779,
      "duration": 0.2382,
      "velocity": 96,
      "chip": "ym2612"
    },
    {
      "channel": 3,
      "note": 47,
      "start": 118.4588,
      "duration": 0.2383,
      "velocity": 96,
      "chip": "ym2612"
    },
    {
      "channel": 0,
      "note": 72,
      "start": 118.5365,
      "duration": 0.291,
      "velocity": 92,
      "chip": "ym2612"
    },
    {
      "channel": 1,
      "note": 71,
      "start": 118.5371,
      "duration": 0.2907,
      "velocity": 92,
      "chip": "ym2612"
    },
    {
      "channel": 4,
      "note": 48,
      "start": 118.539,
      "duration": 0.2377,
      "velocity": 96,
      "chip": "ym2612"
    },
    {
      "channel": 2,
      "note": 47,
      "start": 118.6957,
      "duration": 0.2382,
      "velocity": 96,
      "chip": "ym2612"
    },
    {
      "channel": 3,
      "note": 48,
      "start": 118.7765,
      "duration": 0.2386,
      "velocity": 96,
      "chip": "ym2612"
    },
    {
      "channel": 0,
      "note": 74,
      "start": 118.8543,
      "duration": 0.291,
      "velocity": 92,
      "chip": "ym2612"
    },
    {
      "channel": 1,
      "note": 72,
      "start": 118.8549,
      "duration": 0.2907,
      "velocity": 92,
      "chip": "ym2612"
    },
    {
      "channel": 4,
      "note": 50,
      "start": 118.8569,
      "duration": 0.2378,
      "velocity": 96,
      "chip": "ym2612"
    },
    {
      "channel": 2,
      "note": 48,
      "start": 119.0136,
      "duration": 0.2381,
      "velocity": 96,
      "chip": "ym2612"
    },
    {
      "channel": 3,
      "note": 50,
      "start": 119.0943,
      "duration": 0.2386,
      "velocity": 96,
      "chip": "ym2612"
    },
    {
      "channel": 0,
      "note": 76,
      "start": 119.172,
      "duration": 0.2911,
      "velocity": 92,
      "chip": "ym2612"
    },
    {
      "channel": 1,
      "note": 74,
      "start": 119.1726,
      "duration": 0.2908,
      "velocity": 92,
      "chip": "ym2612"
    },
    {
      "channel": 4,
      "note": 52,
      "start": 119.1746,
      "duration": 0.238,
      "velocity": 96,
      "chip": "ym2612"
    },
    {
      "channel": 2,
      "note": 50,
      "start": 119.3314,
      "duration": 0.2382,
      "velocity": 96,
      "chip": "ym2612"
    },
    {
      "channel": 3,
      "note": 52,
      "start": 119.4123,
      "duration": 0.2383,
      "velocity": 96,
      "chip": "ym2612"
    },
    {
      "channel": 0,
      "note": 69,
      "start": 119.4899,
      "duration": 1.8801,
      "velocity": 92,
      "chip": "ym2612"
    },
    {
      "channel": 1,
      "note": 76,
      "start": 119.4905,
      "duration": 0.2906,
      "velocity": 92,
      "chip": "ym2612"
    },
    {
      "channel": 4,
      "note": 41,
      "start": 119.4928,
      "duration": 0.2377,
      "velocity": 96,
      "chip": "ym2612"
    },
    {
      "channel": 5,
      "note": 41,
      "start": 119.4934,
      "duration": 2.3821,
      "velocity": 98,
      "chip": "ym2612"
    },
    {
      "channel": 2,
      "note": 52,
      "start": 119.6492,
      "duration": 0.2382,
      "velocity": 96,
      "chip": "ym2612"
    },
    {
      "channel": 3,
      "note": 41,
      "start": 119.7302,
      "duration": 0.2385,
      "velocity": 96,
      "chip": "ym2612"
    },
    {
      "channel": 1,
      "note": 69,
      "start": 119.8079,
      "duration": 1.88,
      "velocity": 92,
      "chip": "ym2612"
    },
    {
      "channel": 4,
      "note": 48,
      "start": 119.8102,
      "duration": 0.2381,
      "velocity": 96,
      "chip": "ym2612"
    },
    {
      "channel": 2,
      "note": 41,
      "start": 119.9672,
      "duration": 0.238,
      "velocity": 96,
      "chip": "ym2612"
    },
    {
      "channel": 3,
      "note": 48,
      "start": 120.048,
      "duration": 0.2384,
      "velocity": 96,
      "chip": "ym2612"
    },
    {
      "channel": 4,
      "note": 52,
      "start": 120.1276,
      "duration": 0.2385,
      "velocity": 96,
      "chip": "ym2612"
    },
    {
      "channel": 2,
      "note": 48,
      "start": 120.2849,
      "duration": 0.2382,
      "velocity": 96,
      "chip": "ym2612"
    },
    {
      "channel": 3,
      "note": 52,
      "start": 120.3658,
      "duration": 0.2382,
      "velocity": 96,
      "chip": "ym2612"
    },
    {
      "channel": 4,
      "note": 53,
      "start": 120.4453,
      "duration": 0.2385,
      "velocity": 96,
      "chip": "ym2612"
    },
    {
      "channel": 2,
      "note": 52,
      "start": 120.6025,
      "duration": 0.2382,
      "velocity": 96,
      "chip": "ym2612"
    },
    {
      "channel": 3,
      "note": 53,
      "start": 120.6835,
      "duration": 0.2383,
      "velocity": 96,
      "chip": "ym2612"
    },
    {
      "channel": 4,
      "note": 48,
      "start": 120.7635,
      "duration": 1.1914,
      "velocity": 96,
      "chip": "ym2612"
    },
    {
      "channel": 2,
      "note": 53,
      "start": 120.9204,
      "duration": 0.2381,
      "velocity": 96,
      "chip": "ym2612"
    },
    {
      "channel": 3,
      "note": 48,
      "start": 121.0013,
      "duration": 1.1913,
      "velocity": 96,
      "chip": "ym2612"
    },
    {
      "channel": 2,
      "note": 48,
      "start": 121.2383,
      "duration": 1.1914,
      "velocity": 96,
      "chip": "ym2612"
    },
    {
      "channel": 0,
      "note": 72,
      "start": 121.3968,
      "duration": 0.6088,
      "velocity": 92,
      "chip": "ym2612"
    },
    {
      "channel": 1,
      "note": 72,
      "start": 121.7148,
      "duration": 0.6088,
      "velocity": 92,
      "chip": "ym2612"
    },
    {
      "channel": 0,
      "note": 72,
      "start": 122.0323,
      "duration": 1.8802,
      "velocity": 92,
      "chip": "ym2612"
    },
    {
      "channel": 4,
      "note": 35,
      "start": 122.0352,
      "duration": 0.2378,
      "velocity": 96,
      "chip": "ym2612"
    },
    {
      "channel": 5,
      "note": 47,
      "start": 122.0358,
      "duration": 2.5423,
      "velocity": 98,
      "chip": "ym2612"
    },
    {
      "channel": 3,
      "note": 35,
      "start": 122.2726,
      "duration": 0.2384,
      "velocity": 96,
      "chip": "ym2612"
    },
    {
      "channel": 1,
      "note": 72,
      "start": 122.3504,
      "duration": 1.8802,
      "velocity": 92,
      "chip": "ym2612"
    },
    {
      "channel": 4,
      "note": 41,
      "start": 122.3523,
      "duration": 0.2381,
      "velocity": 96,
      "chip": "ym2612"
    },
    {
      "channel": 2,
      "note": 35,
      "start": 122.5096,
      "duration": 0.2379,
      "velocity": 96,
      "chip": "ym2612"
    },
    {
      "channel": 3,
      "note": 41,
      "start": 122.5901,
      "duration": 0.2385,
      "velocity": 96,
      "chip": "ym2612"
    },
    {
      "channel": 4,
      "note": 45,
      "start": 122.6698,
      "duration": 0.2386,
      "velocity": 96,
      "chip": "ym2612"
    },
    {
      "channel": 2,
      "note": 41,
      "start": 122.8272,
      "duration": 0.2382,
      "velocity": 96,
      "chip": "ym2612"
    },
    {
      "channel": 3,
      "note": 45,
      "start": 122.9081,
      "duration": 0.2385,
      "velocity": 96,
      "chip": "ym2612"
    },
    {
      "channel": 4,
      "note": 50,
      "start": 122.9876,
      "duration": 0.2388,
      "velocity": 96,
      "chip": "ym2612"
    },
    {
      "channel": 2,
      "note": 45,
      "start": 123.145,
      "duration": 0.2382,
      "velocity": 96,
      "chip": "ym2612"
    },
    {
      "channel": 3,
      "note": 50,
      "start": 123.2261,
      "duration": 0.2383,
      "velocity": 96,
      "chip": "ym2612"
    },
    {
      "channel": 4,
      "note": 53,
      "start": 123.3056,
      "duration": 0.2385,
      "velocity": 96,
      "chip": "ym2612"
    },
    {
      "channel": 2,
      "note": 50,
      "start": 123.4628,
      "duration": 0.2382,
      "velocity": 96,
      "chip": "ym2612"
    },
    {
      "channel": 3,
      "note": 53,
      "start": 123.5438,
      "duration": 0.2383,
      "velocity": 96,
      "chip": "ym2612"
    },
    {
      "channel": 4,
      "note": 57,
      "start": 123.6239,
      "duration": 0.8731,
      "velocity": 96,
      "chip": "ym2612"
    },
    {
      "channel": 2,
      "note": 53,
      "start": 123.7807,
      "duration": 0.2382,
      "velocity": 96,
      "chip": "ym2612"
    },
    {
      "channel": 3,
      "note": 57,
      "start": 123.862,
      "duration": 0.8731,
      "velocity": 96,
      "chip": "ym2612"
    },
    {
      "channel": 0,
      "note": 72,
      "start": 123.9392,
      "duration": 0.2912,
      "velocity": 92,
      "chip": "ym2612"
    },
    {
      "channel": 2,
      "note": 57,
      "start": 124.0987,
      "duration": 0.8735,
      "velocity": 96,
      "chip": "ym2612"
    },
    {
      "channel": 0,
      "note": 74,
      "start": 124.2569,
      "duration": 0.291,
      "velocity": 92,
      "chip": "ym2612"
    },
    {
      "channel": 1,
      "note": 72,
      "start": 124.2575,
      "duration": 0.2907,
      "velocity": 92,
      "chip": "ym2612"
    },
    {
      "channel": 0,
      "note": 72,
      "start": 124.5747,
      "duration": 0.609,
      "velocity": 92,
      "chip": "ym2612"
    },
    {
      "channel": 1,
      "note": 74,
      "start": 124.5753,
      "duration": 0.2907,
      "velocity": 92,
      "chip": "ym2612"
    },
    {
      "channel": 4,
      "note": 40,
      "start": 124.5777,
      "duration": 1.1908,
      "velocity": 96,
      "chip": "ym2612"
    },
    {
      "channel": 5,
      "note": 40,
      "start": 124.5783,
      "duration": 2.5427,
      "velocity": 98,
      "chip": "ym2612"
    },
    {
      "channel": 3,
      "note": 40,
      "start": 124.8149,
      "duration": 1.1915,
      "velocity": 96,
      "chip": "ym2612"
    },
    {
      "channel": 1,
      "note": 72,
      "start": 124.8928,
      "duration": 0.6088,
      "velocity": 92,
      "chip": "ym2612"
    },
    {
      "channel": 2,
      "note": 40,
      "start": 125.0521,
      "duration": 1.1914,
      "velocity": 96,
      "chip": "ym2612"
    },
    {
      "channel": 0,
      "note": 71,
      "start": 125.2104,
      "duration": 0.6088,
      "velocity": 92,
      "chip": "ym2612"
    },
    {
      "channel": 1,
      "note": 71,
      "start": 125.5285,
      "duration": 0.6088,
      "velocity": 92,
      "chip": "ym2612"
    },
    {
      "channel": 0,
      "note": 79,
      "start": 125.8461,
      "duration": 0.9265,
      "velocity": 92,
      "chip": "ym2612"
    },
    {
      "channel": 4,
      "note": 50,
      "start": 125.8489,
      "duration": 0.5549,
      "velocity": 96,
      "chip": "ym2612"
    },
    {
      "channel": 3,
      "note": 50,
      "start": 126.0863,
      "duration": 0.5558,
      "velocity": 96,
      "chip": "ym2612"
    },
    {
      "channel": 1,
      "note": 79,
      "start": 126.1639,
      "duration": 0.9268,
      "velocity": 92,
      "chip": "ym2612"
    },
    {
      "channel": 2,
      "note": 50,
      "start": 126.3233,
      "duration": 0.5557,
      "velocity": 96,
      "chip": "ym2612"
    },
    {
      "channel": 4,
      "note": 40,
      "start": 126.4836,
      "duration": 0.5562,
      "velocity": 96,
      "chip": "ym2612"
    },
    {
      "channel": 3,
      "note": 40,
      "start": 126.7217,
      "duration": 0.5559,
      "velocity": 96,
      "chip": "ym2612"
    },
    {
      "channel": 0,
      "note": 77,
      "start": 126.7995,
      "duration": 0.291,
      "velocity": 92,
      "chip": "ym2612"
    },
    {
      "channel": 2,
      "note": 40,
      "start": 126.9589,
      "duration": 0.5559,
      "velocity": 96,
      "chip": "ym2612"
    },
    {
      "channel": 0,
      "note": 76,
      "start": 127.1174,
      "duration": 4.4225,
      "velocity": 92,
      "chip": "ym2612"
    },
    {
      "channel": 1,
      "note": 77,
      "start": 127.118,
      "duration": 0.2905,
      "velocity": 92,
      "chip": "ym2612"
    },
    {
      "channel": 4,
      "note": 33,
      "start": 127.1205,
      "duration": 0.2373,
      "velocity": 96,
      "chip": "ym2612"
    },
    {
      "channel": 5,
      "note": 45,
      "start": 127.1212,
      "duration": 4.9241,
      "velocity": 98,
      "chip": "ym2612"
    },
    {
      "channel": 3,
      "note": 33,
      "start": 127.3576,
      "duration": 0.2382,
      "velocity": 96,
      "chip": "ym2612"
    },
    {
      "channel": 1,
      "note": 76,
      "start": 127.4352,
      "duration": 4.4227,
      "velocity": 92,
      "chip": "ym2612"
    },
    {
      "channel": 4,
      "note": 40,
      "start": 127.4372,
      "duration": 0.2382,
      "velocity": 96,
      "chip": "ym2612"
    },
    {
      "channel": 2,
      "note": 33,
      "start": 127.5944,
      "duration": 0.2381,
      "velocity": 96,
      "chip": "ym2612"
    },
    {
      "channel": 3,
      "note": 40,
      "start": 127.675,
      "duration": 0.2387,
      "velocity": 96,
      "chip": "ym2612"
    },
    {
      "channel": 4,
      "note": 45,
      "start": 127.7549,
      "duration": 0.2384,
      "velocity": 96,
      "chip": "ym2612"
    },
    {
      "channel": 2,
      "note": 40,
      "start": 127.9122,
      "duration": 0.2381,
      "velocity": 96,
      "chip": "ym2612"
    },
    {
      "channel": 3,
      "note": 45,
      "start": 127.993,
      "duration": 0.2385,
      "velocity": 96,
      "chip": "ym2612"
    },
    {
      "channel": 4,
      "note": 47,
      "start": 128.0727,
      "duration": 0.2388,
      "velocity": 96,
      "chip": "ym2612"
    },
    {
      "channel": 2,
      "note": 45,
      "start": 128.23,
      "duration": 0.2381,
      "velocity": 96,
      "chip": "ym2612"
    },
    {
      "channel": 3,
      "note": 47,
      "start": 128.3111,
      "duration": 0.2382,
      "velocity": 96,
      "chip": "ym2612"
    },
    {
      "channel": 4,
      "note": 48,
      "start": 128.3905,
      "duration": 0.2385,
      "velocity": 96,
      "chip": "ym2612"
    },
    {
      "channel": 2,
      "note": 47,
      "start": 128.5478,
      "duration": 0.2382,
      "velocity": 96,
      "chip": "ym2612"
    },
    {
      "channel": 3,
      "note": 48,
      "start": 128.6288,
      "duration": 0.2385,
      "velocity": 96,
      "chip": "ym2612"
    },
    {
      "channel": 4,
      "note": 52,
      "start": 128.7085,
      "duration": 0.8734,
      "velocity": 96,
      "chip": "ym2612"
    },
    {
      "channel": 2,
      "note": 48,
      "start": 128.8657,
      "duration": 0.238,
      "velocity": 96,
      "chip": "ym2612"
    },
    {
      "channel": 3,
      "note": 52,
      "start": 128.9466,
      "duration": 0.8733,
      "velocity": 96,
      "chip": "ym2612"
    },
    {
      "channel": 2,
      "note": 52,
      "start": 129.1834,
      "duration": 0.8737,
      "velocity": 96,
      "chip": "ym2612"
    },
    {
      "channel": 4,
      "note": 33,
      "start": 129.662,
      "duration": 0.2382,
      "velocity": 96,
      "chip": "ym2612"
    },
    {
      "channel": 3,
      "note": 33,
      "start": 129.8999,
      "duration": 0.2384,
      "velocity": 96,
      "chip": "ym2612"
    },
    {
      "channel": 4,
      "note": 40,
      "start": 129.9793,
      "duration": 0.2385,
      "velocity": 96,
      "chip": "ym2612"
    },
    {
      "channel": 2,
      "note": 33,
      "start": 130.137,
      "duration": 0.2379,
      "velocity": 96,
      "chip": "ym2612"
    },
    {
      "channel": 3,
      "note": 40,
      "start": 130.2175,
      "duration": 0.2385,
      "velocity": 96,
      "chip": "ym2612"
    },
    {
      "channel": 4,
      "note": 45,
      "start": 130.2973,
      "duration": 0.2385,
      "velocity": 96,
      "chip": "ym2612"
    },
    {
      "channel": 2,
      "note": 40,
      "start": 130.4546,
      "duration": 0.2382,
      "velocity": 96,
      "chip": "ym2612"
    },
    {
      "channel": 3,
      "note": 45,
      "start": 130.5356,
      "duration": 0.2385,
      "velocity": 96,
      "chip": "ym2612"
    },
    {
      "channel": 4,
      "note": 47,
      "start": 130.6151,
      "duration": 0.2386,
      "velocity": 96,
      "chip": "ym2612"
    },
    {
      "channel": 2,
      "note": 45,
      "start": 130.7726,
      "duration": 0.238,
      "velocity": 96,
      "chip": "ym2612"
    },
    {
      "channel": 3,
      "note": 47,
      "start": 130.8534,
      "duration": 0.2385,
      "velocity": 96,
      "chip": "ym2612"
    },
    {
      "channel": 4,
      "note": 49,
      "start": 130.9331,
      "duration": 0.2384,
      "velocity": 96,
      "chip": "ym2612"
    },
    {
      "channel": 2,
      "note": 47,
      "start": 131.0903,
      "duration": 0.2381,
      "velocity": 96,
      "chip": "ym2612"
    },
    {
      "channel": 3,
      "note": 49,
      "start": 131.1712,
      "duration": 0.2384,
      "velocity": 96,
      "chip": "ym2612"
    },
    {
      "channel": 4,
      "note": 52,
      "start": 131.251,
      "duration": 0.8735,
      "velocity": 96,
      "chip": "ym2612"
    },
    {
      "channel": 2,
      "note": 49,
      "start": 131.4081,
      "duration": 0.2382,
      "velocity": 96,
      "chip": "ym2612"
    },
    {
      "channel": 3,
      "note": 52,
      "start": 131.489,
      "duration": 0.8735,
      "velocity": 96,
      "chip": "ym2612"
    },
    {
      "channel": 0,
      "note": 69,
      "start": 131.5665,
      "duration": 0.2912,
      "velocity": 92,
      "chip": "ym2612"
    },
    {
      "channel": 2,
      "note": 52,
      "start": 131.7258,
      "duration": 0.8739,
      "velocity": 96,
      "chip": "ym2612"
    },
    {
      "channel": 0,
      "note": 76,
      "start": 131.8844,
      "duration": 0.2912,
      "velocity": 92,
      "chip": "ym2612"
    },
    {
      "channel": 1,
      "note": 69,
      "start": 131.885,
      "duration": 0.2908,
      "velocity": 92,
      "chip": "ym2612"
    },
    {
      "channel": 0,
      "note": 76,
      "start": 132.2023,
      "duration": 1.2443,
      "velocity": 92,
      "chip": "ym2612"
    },
    {
      "channel": 1,
      "note": 76,
      "start": 132.2029,
      "duration": 0.2906,
      "velocity": 92,
      "chip": "ym2612"
    },
    {
      "channel": 4,
      "note": 38,
      "start": 132.2055,
      "duration": 0.2373,
      "velocity": 96,
      "chip": "ym2612"
    },
    {
      "channel": 5,
      "note": 50,
      "start": 132.206,
      "duration": 2.5417,
      "velocity": 98,
      "chip": "ym2612"
    },
    {
      "channel": 3,
      "note": 38,
      "start": 132.4424,
      "duration": 0.2384,
      "velocity": 96,
      "chip": "ym2612"
    },
    {
      "channel": 1,
      "note": 76,
      "start": 132.5202,
      "duration": 1.2446,
      "velocity": 92,
      "chip": "ym2612"
    },
    {
      "channel": 4,
      "note": 45,
      "start": 132.5223,
      "duration": 0.238,
      "velocity": 96,
      "chip": "ym2612"
    },
    {
      "channel": 2,
      "note": 38,
      "start": 132.6795,
      "duration": 0.238,
      "velocity": 96,
      "chip": "ym2612"
    },
    {
      "channel": 3,
      "note": 45,
      "start": 132.76,
      "duration": 0.2388,
      "velocity": 96,
      "chip": "ym2612"
    },
    {
      "channel": 4,
      "note": 50,
      "start": 132.8396,
      "duration": 0.2387,
      "velocity": 96,
      "chip": "ym2612"
    },
    {
      "channel": 2,
      "note": 45,
      "start": 132.9973,
      "duration": 0.2379,
      "velocity": 96,
      "chip": "ym2612"
    },
    {
      "channel": 3,
      "note": 50,
      "start": 133.0779,
      "duration": 0.2385,
      "velocity": 96,
      "chip": "ym2612"
    },
    {
      "channel": 4,
      "note": 52,
      "start": 133.1579,
      "duration": 0.2384,
      "velocity": 96,
      "chip": "ym2612"
    },
    {
      "channel": 2,
      "note": 50,
      "start": 133.315,
      "duration": 0.238,
      "velocity": 96,
      "chip": "ym2612"
    },
    {
      "channel": 3,
      "note": 52,
      "start": 133.3959,
      "duration": 0.238,
      "velocity": 96,
      "chip": "ym2612"
    },
    {
      "channel": 4,
      "note": 53,
      "start": 133.4759,
      "duration": 1.191,
      "velocity": 96,
      "chip": "ym2612"
    },
    {
      "channel": 2,
      "note": 52,
      "start": 133.6327,
      "duration": 0.2382,
      "velocity": 96,
      "chip": "ym2612"
    },
    {
      "channel": 3,
      "note": 53,
      "start": 133.7134,
      "duration": 1.1917,
      "velocity": 96,
      "chip": "ym2612"
    },
    {
      "channel": 0,
      "note": 74,
      "start": 133.7912,
      "duration": 0.609,
      "velocity": 92,
      "chip": "ym2612"
    },
    {
      "channel": 2,
      "note": 53,
      "start": 133.9505,
      "duration": 1.1917,
      "velocity": 96,
      "chip": "ym2612"
    },
    {
      "channel": 1,
      "note": 74,
      "start": 134.1093,
      "duration": 0.6088,
      "velocity": 92,
      "chip": "ym2612"
    },
    {
      "channel": 0,
      "note": 79,
      "start": 134.4268,
      "duration": 0.2911,
      "velocity": 92,
      "chip": "ym2612"
    },
    {
      "channel": 0,
      "note": 74,
      "start": 134.7447,
      "duration": 1.88,
      "velocity": 92,
      "chip": "ym2612"
    },
    {
      "channel": 1,
      "note": 79,
      "start": 134.7453,
      "duration": 0.2907,
      "velocity": 92,
      "chip": "ym2612"
    },
    {
      "channel": 4,
      "note": 43,
      "start": 134.7473,
      "duration": 0.2378,
      "velocity": 96,
      "chip": "ym2612"
    },
    {
      "channel": 5,
      "note": 43,
      "start": 134.748,
      "duration": 2.3822,
      "velocity": 98,
      "chip": "ym2612"
    },
    {
      "channel": 3,
      "note": 43,
      "start": 134.9848,
      "duration": 0.2386,
      "velocity": 96,
      "chip": "ym2612"
    },
    {
      "channel": 1,
      "note": 74,
      "start": 135.0626,
      "duration": 1.8803,
      "velocity": 92,
      "chip": "ym2612"
    },
    {
      "channel": 4,
      "note": 50,
      "start": 135.0649,
      "duration": 0.2382,
      "velocity": 96,
      "chip": "ym2612"
    },
    {
      "channel": 2,
      "note": 43,
      "start": 135.2219,
      "duration": 0.238,
      "velocity": 96,
      "chip": "ym2612"
    },
    {
      "channel": 3,
      "note": 50,
      "start": 135.3027,
      "duration": 0.2384,
      "velocity": 96,
      "chip": "ym2612"
    },
    {
      "channel": 4,
      "note": 57,
      "start": 135.3827,
      "duration": 0.2381,
      "velocity": 96,
      "chip": "ym2612"
    },
    {
      "channel": 2,
      "note": 50,
      "start": 135.5397,
      "duration": 0.2381,
      "velocity": 96,
      "chip": "ym2612"
    },
    {
      "channel": 3,
      "note": 57,
      "start": 135.6205,
      "duration": 0.2383,
      "velocity": 96,
      "chip": "ym2612"
    },
    {
      "channel": 4,
      "note": 59,
      "start": 135.7,
      "duration": 0.2383,
      "velocity": 96,
      "chip": "ym2612"
    },
    {
      "channel": 2,
      "note": 57,
      "start": 135.8575,
      "duration": 0.238,
      "velocity": 96,
      "chip": "ym2612"
    },
    {
      "channel": 3,
      "note": 59,
      "start": 135.938,
      "duration": 0.2385,
      "velocity": 96,
      "chip": "ym2612"
    },
    {
      "channel": 4,
      "note": 55,
      "start": 136.0182,
      "duration": 1.1913,
      "velocity": 96,
      "chip": "ym2612"
    },
    {
      "channel": 2,
      "note": 59,
      "start": 136.1752,
      "duration": 0.2381,
      "velocity": 96,
      "chip": "ym2612"
    },
    {
      "channel": 3,
      "note": 55,
      "start": 136.2562,
      "duration": 1.1913,
      "velocity": 96,
      "chip": "ym2612"
    },
    {
      "channel": 2,
      "note": 55,
      "start": 136.4932,
      "duration": 1.1914,
      "velocity": 96,
      "chip": "ym2612"
    },
    {
      "channel": 0,
      "note": 74,
      "start": 136.6515,
      "duration": 0.609,
      "velocity": 92,
      "chip": "ym2612"
    },
    {
      "channel": 1,
      "note": 74,
      "start": 136.9695,
      "duration": 0.6088,
      "velocity": 92,
      "chip": "ym2612"
    },
    {
      "channel": 0,
      "note": 74,
      "start": 137.2871,
      "duration": 0.9267,
      "velocity": 92,
      "chip": "ym2612"
    },
    {
      "channel": 4,
      "note": 36,
      "start": 137.2899,
      "duration": 0.2379,
      "velocity": 96,
      "chip": "ym2612"
    },
    {
      "channel": 5,
      "note": 48,
      "start": 137.2906,
      "duration": 2.5428,
      "velocity": 98,
      "chip": "ym2612"
    },
    {
      "channel": 3,
      "note": 36,
      "start": 137.5275,
      "duration": 0.2383,
      "velocity": 96,
      "chip": "ym2612"
    },
    {
      "channel": 1,
      "note": 74,
      "start": 137.605,
      "duration": 0.927,
      "velocity": 92,
      "chip": "ym2612"
    },
    {
      "channel": 4,
      "note": 43,
      "start": 137.6071,
      "duration": 0.2382,
      "velocity": 96,
      "chip": "ym2612"
    },
    {
      "channel": 2,
      "note": 36,
      "start": 137.7643,
      "duration": 0.238,
      "velocity": 96,
      "chip": "ym2612"
    },
    {
      "channel": 3,
      "note": 43,
      "start": 137.8449,
      "duration": 0.2385,
      "velocity": 96,
      "chip": "ym2612"
    },
    {
      "channel": 4,
      "note": 50,
      "start": 137.9245,
      "duration": 0.2387,
      "velocity": 96,
      "chip": "ym2612"
    },
    {
      "channel": 2,
      "note": 43,
      "start": 138.082,
      "duration": 0.2382,
      "velocity": 96,
      "chip": "ym2612"
    },
    {
      "channel": 3,
      "note": 50,
      "start": 138.1629,
      "duration": 0.2385,
      "velocity": 96,
      "chip": "ym2612"
    },
    {
      "channel": 0,
      "note": 72,
      "start": 138.2406,
      "duration": 0.2911,
      "velocity": 92,
      "chip": "ym2612"
    },
    {
      "channel": 4,
      "note": 48,
      "start": 138.2429,
      "duration": 0.2383,
      "velocity": 96,
      "chip": "ym2612"
    },
    {
      "channel": 2,
      "note": 50,
      "start": 138.3999,
      "duration": 0.238,
      "velocity": 96,
      "chip": "ym2612"
    },
    {
      "channel": 3,
      "note": 48,
      "start": 138.4808,
      "duration": 0.2382,
      "velocity": 96,
      "chip": "ym2612"
    },
    {
      "channel": 0,
      "note": 71,
      "start": 138.5583,
      "duration": 0.2911,
      "velocity": 92,
      "chip": "ym2612"
    },
    {
      "channel": 1,
      "note": 72,
      "start": 138.5589,
      "duration": 0.2908,
      "velocity": 92,
      "chip": "ym2612"
    },
    {
      "channel": 4,
      "note": 47,
      "start": 138.5614,
      "duration": 0.2376,
      "velocity": 96,
      "chip": "ym2612"
    },
    {
      "channel": 2,
      "note": 48,
      "start": 138.7177,
      "duration": 0.238,
      "velocity": 96,
      "chip": "ym2612"
    },
    {
      "channel": 3,
      "note": 47,
      "start": 138.7987,
      "duration": 0.2383,
      "velocity": 96,
      "chip": "ym2612"
    },
    {
      "channel": 0,
      "note": 72,
      "start": 138.8761,
      "duration": 0.2911,
      "velocity": 92,
      "chip": "ym2612"
    },
    {
      "channel": 1,
      "note": 71,
      "start": 138.8766,
      "duration": 0.2908,
      "velocity": 92,
      "chip": "ym2612"
    },
    {
      "channel": 4,
      "note": 48,
      "start": 138.8786,
      "duration": 0.2378,
      "velocity": 96,
      "chip": "ym2612"
    },
    {
      "channel": 2,
      "note": 47,
      "start": 139.0356,
      "duration": 0.238,
      "velocity": 96,
      "chip": "ym2612"
    },
    {
      "channel": 3,
      "note": 48,
      "start": 139.1161,
      "duration": 0.2385,
      "velocity": 96,
      "chip": "ym2612"
    },
    {
      "channel": 0,
      "note": 74,
      "start": 139.1939,
      "duration": 0.2911,
      "velocity": 92,
      "chip": "ym2612"
    },
    {
      "channel": 1,
      "note": 72,
      "start": 139.1945,
      "duration": 0.2908,
      "velocity": 92,
      "chip": "ym2612"
    },
    {
      "channel": 4,
      "note": 50,
      "start": 139.1965,
      "duration": 0.238,
      "velocity": 96,
      "chip": "ym2612"
    },
    {
      "channel": 2,
      "note": 48,
      "start": 139.3533,
      "duration": 0.2382,
      "velocity": 96,
      "chip": "ym2612"
    },
    {
      "channel": 3,
      "note": 50,
      "start": 139.4341,
      "duration": 0.2385,
      "velocity": 96,
      "chip": "ym2612"
    },
    {
      "channel": 0,
      "note": 76,
      "start": 139.5118,
      "duration": 0.291,
      "velocity": 92,
      "chip": "ym2612"
    },
    {
      "channel": 1,
      "note": 74,
      "start": 139.5124,
      "duration": 0.2907,
      "velocity": 92,
      "chip": "ym2612"
    },
    {
      "channel": 4,
      "note": 52,
      "start": 139.5145,
      "duration": 0.2378,
      "velocity": 96,
      "chip": "ym2612"
    },
    {
      "channel": 2,
      "note": 50,
      "start": 139.6712,
      "duration": 0.2381,
      "velocity": 96,
      "chip": "ym2612"
    },
    {
      "channel": 3,
      "note": 52,
      "start": 139.752,
      "duration": 0.2383,
      "velocity": 96,
      "chip": "ym2612"
    },
    {
      "channel": 0,
      "note": 76,
      "start": 139.8296,
      "duration": 0.9266,
      "velocity": 92,
      "chip": "ym2612"
    },
    {
      "channel": 1,
      "note": 76,
      "start": 139.8302,
      "duration": 0.2908,
      "velocity": 92,
      "chip": "ym2612"
    },
    {
      "channel": 4,
      "note": 41,
      "start": 139.8329,
      "duration": 0.2373,
      "velocity": 96,
      "chip": "ym2612"
    },
    {
      "channel": 5,
      "note": 41,
      "start": 139.8336,
      "duration": 2.3819,
      "velocity": 98,
      "chip": "ym2612"
    },
    {
      "channel": 2,
      "note": 52,
      "start": 139.9889,
      "duration": 0.2382,
      "velocity": 96,
      "chip": "ym2612"
    },
    {
      "channel": 3,
      "note": 41,
      "start": 140.0699,
      "duration": 0.2383,
      "velocity": 96,
      "chip": "ym2612"
    },
    {
      "channel": 1,
      "note": 76,
      "start": 140.1478,
      "duration": 0.9266,
      "velocity": 92,
      "chip": "ym2612"
    },
    {
      "channel": 4,
      "note": 48,
      "start": 140.1499,
      "duration": 0.2378,
      "velocity": 96,
      "chip": "ym2612"
    },
    {
      "channel": 2,
      "note": 41,
      "start": 140.3068,
      "duration": 0.238,
      "velocity": 96,
      "chip": "ym2612"
    },
    {
      "channel": 3,
      "note": 48,
      "start": 140.3873,
      "duration": 0.2387,
      "velocity": 96,
      "chip": "ym2612"
    },
    {
      "channel": 4,
      "note": 52,
      "start": 140.4672,
      "duration": 0.2385,
      "velocity": 96,
      "chip": "ym2612"
    },
    {
      "channel": 2,
      "note": 48,
      "start": 140.6246,
      "duration": 0.238,
      "velocity": 96,
      "chip": "ym2612"
    },
    {
      "channel": 3,
      "note": 52,
      "start": 140.7054,
      "duration": 0.2384,
      "velocity": 96,
      "chip": "ym2612"
    },
    {
      "channel": 0,
      "note": 74,
      "start": 140.7831,
      "duration": 0.291,
      "velocity": 92,
      "chip": "ym2612"
    },
    {
      "channel": 4,
      "note": 50,
      "start": 140.7854,
      "duration": 0.2382,
      "velocity": 96,
      "chip": "ym2612"
    },
    {
      "channel": 2,
      "note": 52,
      "start": 140.9423,
      "duration": 0.2382,
      "velocity": 96,
      "chip": "ym2612"
    },
    {
      "channel": 3,
      "note": 50,
      "start": 141.0233,
      "duration": 0.2384,
      "velocity": 96,
      "chip": "ym2612"
    },
    {
      "channel": 0,
      "note": 73,
      "start": 141.1008,
      "duration": 0.2911,
      "velocity": 92,
      "chip": "ym2612"
    },
    {
      "channel": 1,
      "note": 74,
      "start": 141.1014,
      "duration": 0.2908,
      "velocity": 92,
      "chip": "ym2612"
    },
    {
      "channel": 4,
      "note": 49,
      "start": 141.1036,
      "duration": 0.2378,
      "velocity": 96,
      "chip": "ym2612"
    },
    {
      "channel": 2,
      "note": 50,
      "start": 141.2602,
      "duration": 0.238,
      "velocity": 96,
      "chip": "ym2612"
    },
    {
      "channel": 3,
      "note": 49,
      "start": 141.3411,
      "duration": 0.2384,
      "velocity": 96,
      "chip": "ym2612"
    },
    {
      "channel": 0,
      "note": 74,
      "start": 141.4187,
      "duration": 0.2911,
      "velocity": 92,
      "chip": "ym2612"
    },
    {
      "channel": 1,
      "note": 73,
      "start": 141.4193,
      "duration": 0.2908,
      "velocity": 92,
      "chip": "ym2612"
    },
    {
      "channel": 4,
      "note": 50,
      "start": 141.4214,
      "duration": 0.2378,
      "velocity": 96,
      "chip": "ym2612"
    },
    {
      "channel": 2,
      "note": 49,
      "start": 141.5779,
      "duration": 0.2382,
      "velocity": 96,
      "chip": "ym2612"
    },
    {
      "channel": 3,
      "note": 50,
      "start": 141.6589,
      "duration": 0.2384,
      "velocity": 96,
      "chip": "ym2612"
    },
    {
      "channel": 0,
      "note": 76,
      "start": 141.7364,
      "duration": 0.291,
      "velocity": 92,
      "chip": "ym2612"
    },
    {
      "channel": 1,
      "note": 74,
      "start": 141.737,
      "duration": 0.2907,
      "velocity": 92,
      "chip": "ym2612"
    },
    {
      "channel": 4,
      "note": 52,
      "start": 141.7392,
      "duration": 0.2378,
      "velocity": 96,
      "chip": "ym2612"
    },
    {
      "channel": 2,
      "note": 50,
      "start": 141.8957,
      "duration": 0.2382,
      "velocity": 96,
      "chip": "ym2612"
    },
    {
      "channel": 3,
      "note": 52,
      "start": 141.9767,
      "duration": 0.2383,
      "velocity": 96,
      "chip": "ym2612"
    },
    {
      "channel": 0,
      "note": 77,
      "start": 142.0543,
      "duration": 0.291,
      "velocity": 92,
      "chip": "ym2612"
    },
    {
      "channel": 1,
      "note": 76,
      "start": 142.0549,
      "duration": 0.2906,
      "velocity": 92,
      "chip": "ym2612"
    },
    {
      "channel": 4,
      "note": 53,
      "start": 142.0571,
      "duration": 0.2378,
      "velocity": 96,
      "chip": "ym2612"
    },
    {
      "channel": 2,
      "note": 52,
      "start": 142.2135,
      "duration": 0.2383,
      "velocity": 96,
      "chip": "ym2612"
    },
    {
      "channel": 3,
      "note": 53,
      "start": 142.2945,
      "duration": 0.2384,
      "velocity": 96,
      "chip": "ym2612"
    },
    {
      "channel": 0,
      "note": 77,
      "start": 142.3719,
      "duration": 1.8804,
      "velocity": 92,
      "chip": "ym2612"
    },
    {
      "channel": 1,
      "note": 77,
      "start": 142.3725,
      "duration": 0.2909,
      "velocity": 92,
      "chip": "ym2612"
    },
    {
      "channel": 4,
      "note": 35,
      "start": 142.3748,
      "duration": 0.2379,
      "velocity": 96,
      "chip": "ym2612"
    },
    {
      "channel": 5,
      "note": 47,
      "start": 142.3754,
      "duration": 2.5427,
      "velocity": 98,
      "chip": "ym2612"
    },
    {
      "channel": 2,
      "note": 53,
      "start": 142.5314,
      "duration": 0.238,
      "velocity": 96,
      "chip": "ym2612"
    },
    {
      "channel": 3,
      "note": 35,
      "start": 142.6124,
      "duration": 0.2385,
      "velocity": 96,
      "chip": "ym2612"
    },
    {
      "channel": 1,
      "note": 77,
      "start": 142.6901,
      "duration": 1.88,
      "velocity": 92,
      "chip": "ym2612"
    },
    {
      "channel": 4,
      "note": 41,
      "start": 142.6924,
      "duration": 0.2381,
      "velocity": 96,
      "chip": "ym2612"
    },
    {
      "channel": 2,
      "note": 35,
      "start": 142.8494,
      "duration": 0.238,
      "velocity": 96,
      "chip": "ym2612"
    },
    {
      "channel": 3,
      "note": 41,
      "start": 142.9301,
      "duration": 0.2384,
      "velocity": 96,
      "chip": "ym2612"
    },
    {
      "channel": 4,
      "note": 45,
      "start": 143.0098,
      "duration": 0.2385,
      "velocity": 96,
      "chip": "ym2612"
    },
    {
      "channel": 2,
      "note": 41,
      "start": 143.167,
      "duration": 0.2383,
      "velocity": 96,
      "chip": "ym2612"
    },
    {
      "channel": 3,
      "note": 45,
      "start": 143.248,
      "duration": 0.2384,
      "velocity": 96,
      "chip": "ym2612"
    },
    {
      "channel": 4,
      "note": 50,
      "start": 143.3275,
      "duration": 0.2385,
      "velocity": 96,
      "chip": "ym2612"
    },
    {
      "channel": 2,
      "note": 45,
      "start": 143.4849,
      "duration": 0.238,
      "velocity": 96,
      "chip": "ym2612"
    },
    {
      "channel": 3,
      "note": 50,
      "start": 143.5657,
      "duration": 0.2382,
      "velocity": 96,
      "chip": "ym2612"
    },
    {
      "channel": 4,
      "note": 53,
      "start": 143.6457,
      "duration": 0.2383,
      "velocity": 96,
      "chip": "ym2612"
    },
    {
      "channel": 2,
      "note": 50,
      "start": 143.8025,
      "duration": 0.2382,
      "velocity": 96,
      "chip": "ym2612"
    },
    {
      "channel": 3,
      "note": 53,
      "start": 143.8837,
      "duration": 0.2381,
      "velocity": 96,
      "chip": "ym2612"
    },
    {
      "channel": 4,
      "note": 57,
      "start": 143.963,
      "duration": 0.8739,
      "velocity": 96,
      "chip": "ym2612"
    },
    {
      "channel": 2,
      "note": 53,
      "start": 144.1203,
      "duration": 0.2382,
      "velocity": 96,
      "chip": "ym2612"
    },
    {
      "channel": 3,
      "note": 57,
      "start": 144.201,
      "duration": 0.8738,
      "velocity": 96,
      "chip": "ym2612"
    },
    {
      "channel": 0,
      "note": 77,
      "start": 144.2789,
      "duration": 0.291,
      "velocity": 92,
      "chip": "ym2612"
    },
    {
      "channel": 2,
      "note": 57,
      "start": 144.4383,
      "duration": 0.8736,
      "velocity": 96,
      "chip": "ym2612"
    },
    {
      "channel": 0,
      "note": 79,
      "start": 144.5967,
      "duration": 0.291,
      "velocity": 92,
      "chip": "ym2612"
    },
    {
      "channel": 1,
      "note": 77,
      "start": 144.5973,
      "duration": 0.2907,
      "velocity": 92,
      "chip": "ym2612"
    },
    {
      "channel": 0,
      "note": 77,
      "start": 144.9144,
      "duration": 0.6089,
      "velocity": 92,
      "chip": "ym2612"
    },
    {
      "channel": 1,
      "note": 79,
      "start": 144.915,
      "duration": 0.2908,
      "velocity": 92,
      "chip": "ym2612"
    },
    {
      "channel": 4,
      "note": 40,
      "start": 144.9177,
      "duration": 1.1905,
      "velocity": 96,
      "chip": "ym2612"
    },
    {
      "channel": 5,
      "note": 40,
      "start": 144.9184,
      "duration": 2.3822,
      "velocity": 98,
      "chip": "ym2612"
    },
    {
      "channel": 3,
      "note": 40,
      "start": 145.1549,
      "duration": 1.1912,
      "velocity": 96,
      "chip": "ym2612"
    },
    {
      "channel": 1,
      "note": 77,
      "start": 145.2325,
      "duration": 0.6089,
      "velocity": 92,
      "chip": "ym2612"
    },
    {
      "channel": 2,
      "note": 40,
      "start": 145.3917,
      "duration": 1.1915,
      "velocity": 96,
      "chip": "ym2612"
    },
    {
      "channel": 0,
      "note": 76,
      "start": 145.5501,
      "duration": 0.6088,
      "velocity": 92,
      "chip": "ym2612"
    },
    {
      "channel": 1,
      "note": 76,
      "start": 145.8682,
      "duration": 0.6088,
      "velocity": 92,
      "chip": "ym2612"
    },
    {
      "channel": 0,
      "note": 84,
      "start": 146.1858,
      "duration": 0.9266,
      "velocity": 92,
      "chip": "ym2612"
    },
    {
      "channel": 4,
      "note": 52,
      "start": 146.1886,
      "duration": 0.555,
      "velocity": 96,
      "chip": "ym2612"
    },
    {
      "channel": 3,
      "note": 52,
      "start": 146.4261,
      "duration": 0.5557,
      "velocity": 96,
      "chip": "ym2612"
    },
    {
      "channel": 1,
      "note": 84,
      "start": 146.5037,
      "duration": 0.9268,
      "velocity": 92,
      "chip": "ym2612"
    },
    {
      "channel": 2,
      "note": 52,
      "start": 146.6631,
      "duration": 0.5556,
      "velocity": 96,
      "chip": "ym2612"
    },
    {
      "channel": 4,
      "note": 40,
      "start": 146.8233,
      "duration": 0.5561,
      "velocity": 96,
      "chip": "ym2612"
    },
    {
      "channel": 3,
      "note": 40,
      "start": 147.0616,
      "duration": 0.5558,
      "velocity": 96,
      "chip": "ym2612"
    },
    {
      "channel": 0,
      "note": 83,
      "start": 147.1392,
      "duration": 0.2911,
      "velocity": 92,
      "chip": "ym2612"
    },
    {
      "channel": 2,
      "note": 40,
      "start": 147.2987,
      "duration": 0.5558,
      "velocity": 96,
      "chip": "ym2612"
    },
    {
      "channel": 0,
      "note": 81,
      "start": 147.4571,
      "duration": 10.1429,
      "velocity": 92,
      "chip": "ym2612"
    },
    {
      "channel": 1,
      "note": 83,
      "start": 147.4577,
      "duration": 0.2905,
      "velocity": 92,
      "chip": "ym2612"
    },
    {
      "channel": 4,
      "note": 41,
      "start": 147.4602,
      "duration": 0.2374,
      "velocity": 96,
      "chip": "ym2612"
    },
    {
      "channel": 5,
      "note": 41,
      "start": 147.4608,
      "duration": 2.5415,
      "velocity": 98,
      "chip": "ym2612"
    },
    {
      "channel": 3,
      "note": 41,
      "start": 147.6973,
      "duration": 0.2383,
      "velocity": 96,
      "chip": "ym2612"
    },
    {
      "channel": 1,
      "note": 81,
      "start": 147.7751,
      "duration": 10.1431,
      "velocity": 92,
      "chip": "ym2612"
    },
    {
      "channel": 4,
      "note": 48,
      "start": 147.7771,
      "duration": 0.238,
      "velocity": 96,
      "chip": "ym2612"
    },
    {
      "channel": 2,
      "note": 41,
      "start": 147.9341,
      "duration": 0.238,
      "velocity": 96,
      "chip": "ym2612"
    },
    {
      "channel": 3,
      "note": 48,
      "start": 148.0147,
      "duration": 0.2386,
      "velocity": 96,
      "chip": "ym2612"
    },
    {
      "channel": 4,
      "note": 52,
      "start": 148.0945,
      "duration": 0.2386,
      "velocity": 96,
      "chip": "ym2612"
    },
    {
      "channel": 2,
      "note": 48,
      "start": 148.2519,
      "duration": 0.2381,
      "velocity": 96,
      "chip": "ym2612"
    },
    {
      "channel": 3,
      "note": 52,
      "start": 148.3328,
      "duration": 0.2387,
      "velocity": 96,
      "chip": "ym2612"
    },
    {
      "channel": 4,
      "note": 53,
      "start": 148.4123,
      "duration": 0.2388,
      "velocity": 96,
      "chip": "ym2612"
    },
    {
      "channel": 2,
      "note": 52,
      "start": 148.5698,
      "duration": 0.238,
      "velocity": 96,
      "chip": "ym2612"
    },
    {
      "channel": 3,
      "note": 53,
      "start": 148.6507,
      "duration": 0.2382,
      "velocity": 96,
      "chip": "ym2612"
    },
    {
      "channel": 4,
      "note": 57,
      "start": 148.7307,
      "duration": 0.2382,
      "velocity": 96,
      "chip": "ym2612"
    },
    {
      "channel": 2,
      "note": 53,
      "start": 148.8876,
      "duration": 0.2381,
      "velocity": 96,
      "chip": "ym2612"
    },
    {
      "channel": 3,
      "note": 57,
      "start": 148.9685,
      "duration": 0.2384,
      "velocity": 96,
      "chip": "ym2612"
    },
    {
      "channel": 4,
      "note": 60,
      "start": 149.0478,
      "duration": 0.5562,
      "velocity": 96,
      "chip": "ym2612"
    },
    {
      "channel": 2,
      "note": 57,
      "start": 149.2055,
      "duration": 0.238,
      "velocity": 96,
      "chip": "ym2612"
    },
    {
      "channel": 3,
      "note": 60,
      "start": 149.2861,
      "duration": 0.5559,
      "velocity": 96,
      "chip": "ym2612"
    },
    {
      "channel": 2,
      "note": 60,
      "start": 149.5232,
      "duration": 0.5559,
      "velocity": 96,
      "chip": "ym2612"
    },
    {
      "channel": 4,
      "note": 52,
      "start": 149.6834,
      "duration": 0.2384,
      "velocity": 96,
      "chip": "ym2612"
    },
    {
      "channel": 3,
      "note": 52,
      "start": 149.9215,
      "duration": 0.2386,
      "velocity": 96,
      "chip": "ym2612"
    },
    {
      "channel": 4,
      "note": 38,
      "start": 150.002,
      "duration": 0.2379,
      "velocity": 96,
      "chip": "ym2612"
    },
    {
      "channel": 5,
      "note": 38,
      "start": 150.0025,
      "duration": 2.5425,
      "velocity": 98,
      "chip": "ym2612"
    },
    {
      "channel": 2,
      "note": 52,
      "start": 150.1588,
      "duration": 0.238,
      "velocity": 96,
      "chip": "ym2612"
    },
    {
      "channel": 3,
      "note": 38,
      "start": 150.2396,
      "duration": 0.2385,
      "velocity": 96,
      "chip": "ym2612"
    },
    {
      "channel": 4,
      "note": 45,
      "start": 150.3193,
      "duration": 0.2383,
      "velocity": 96,
      "chip": "ym2612"
    },
    {
      "channel": 2,
      "note": 38,
      "start": 150.4766,
      "duration": 0.238,
      "velocity": 96,
      "chip": "ym2612"
    },
    {
      "channel": 3,
      "note": 45,
      "start": 150.5572,
      "duration": 0.2385,
      "velocity": 96,
      "chip": "ym2612"
    },
    {
      "channel": 4,
      "note": 47,
      "start": 150.6368,
      "duration": 0.2386,
      "velocity": 96,
      "chip": "ym2612"
    },
    {
      "channel": 2,
      "note": 45,
      "start": 150.7944,
      "duration": 0.238,
      "velocity": 96,
      "chip": "ym2612"
    },
    {
      "channel": 3,
      "note": 47,
      "start": 150.8751,
      "duration": 0.2385,
      "velocity": 96,
      "chip": "ym2612"
    },
    {
      "channel": 4,
      "note": 50,
      "start": 150.9547,
      "duration": 0.2388,
      "velocity": 96,
      "chip": "ym2612"
    },
    {
      "channel": 2,
      "note": 47,
      "start": 151.1121,
      "duration": 0.2382,
      "velocity": 96,
      "chip": "ym2612"
    },
    {
      "channel": 3,
      "note": 50,
      "start": 151.1931,
      "duration": 0.2383,
      "velocity": 96,
      "chip": "ym2612"
    },
    {
      "channel": 4,
      "note": 53,
      "start": 151.2731,
      "duration": 0.2381,
      "velocity": 96,
      "chip": "ym2612"
    },
    {
      "channel": 2,
      "note": 50,
      "start": 151.43,
      "duration": 0.238,
      "velocity": 96,
      "chip": "ym2612"
    },
    {
      "channel": 3,
      "note": 53,
      "start": 151.5109,
      "duration": 0.2384,
      "velocity": 96,
      "chip": "ym2612"
    },
    {
      "channel": 4,
      "note": 57,
      "start": 151.5905,
      "duration": 0.2383,
      "velocity": 96,
      "chip": "ym2612"
    },
    {
      "channel": 2,
      "note": 53,
      "start": 151.7478,
      "duration": 0.238,
      "velocity": 96,
      "chip": "ym2612"
    },
    {
      "channel": 3,
      "note": 57,
      "start": 151.8284,
      "duration": 0.2385,
      "velocity": 96,
      "chip": "ym2612"
    },
    {
      "channel": 4,
      "note": 59,
      "start": 151.9085,
      "duration": 0.5556,
      "velocity": 96,
      "chip": "ym2612"
    },
    {
      "channel": 2,
      "note": 57,
      "start": 152.0656,
      "duration": 0.2381,
      "velocity": 96,
      "chip": "ym2612"
    },
    {
      "channel": 3,
      "note": 59,
      "start": 152.1464,
      "duration": 0.5559,
      "velocity": 96,
      "chip": "ym2612"
    },
    {
      "channel": 2,
      "note": 59,
      "start": 152.3834,
      "duration": 0.5558,
      "velocity": 96,
      "chip": "ym2612"
    },
    {
      "channel": 4,
      "note": 33,
      "start": 152.5444,
      "duration": 0.2382,
      "velocity": 96,
      "chip": "ym2612"
    },
    {
      "channel": 5,
      "note": 33,
      "start": 152.5452,
      "duration": 4.9246,
      "velocity": 98,
      "chip": "ym2612"
    },
    {
      "channel": 3,
      "note": 33,
      "start": 152.7822,
      "duration": 0.2382,
      "velocity": 96,
      "chip": "ym2612"
    },
    {
      "channel": 4,
      "note": 40,
      "start": 152.8618,
      "duration": 0.2382,
      "velocity": 96,
      "chip": "ym2612"
    },
    {
      "channel": 2,
      "note": 33,
      "start": 153.019,
      "duration": 0.2382,
      "velocity": 96,
      "chip": "ym2612"
    },
    {
      "channel": 3,
      "note": 40,
      "start": 153.0997,
      "duration": 0.2385,
      "velocity": 96,
      "chip": "ym2612"
    },
    {
      "channel": 4,
      "note": 45,
      "start": 153.1793,
      "duration": 0.2387,
      "velocity": 96,
      "chip": "ym2612"
    },
    {
      "channel": 2,
      "note": 40,
      "start": 153.3369,
      "duration": 0.2381,
      "velocity": 96,
      "chip": "ym2612"
    },
    {
      "channel": 3,
      "note": 45,
      "start": 153.4177,
      "duration": 0.2386,
      "velocity": 96,
      "chip": "ym2612"
    },
    {
      "channel": 4,
      "note": 47,
      "start": 153.4973,
      "duration": 0.2387,
      "velocity": 96,
      "chip": "ym2612"
    },
    {
      "channel": 2,
      "note": 45,
      "start": 153.6548,
      "duration": 0.238,
      "velocity": 96,
      "chip": "ym2612"
    },
    {
      "channel": 3,
      "note": 47,
      "start": 153.7356,
      "duration": 0.2383,
      "velocity": 96,
      "chip": "ym2612"
    },
    {
      "channel": 4,
      "note": 49,
      "start": 153.8153,
      "duration": 0.2383,
      "velocity": 96,
      "chip": "ym2612"
    },
    {
      "channel": 2,
      "note": 47,
      "start": 153.9724,
      "duration": 0.2382,
      "velocity": 96,
      "chip": "ym2612"
    },
    {
      "channel": 3,
      "note": 49,
      "start": 154.0534,
      "duration": 0.2384,
      "velocity": 96,
      "chip": "ym2612"
    },
    {
      "channel": 4,
      "note": 52,
      "start": 154.133,
      "duration": 0.2384,
      "velocity": 96,
      "chip": "ym2612"
    },
    {
      "channel": 2,
      "note": 49,
      "start": 154.2902,
      "duration": 0.2382,
      "velocity": 96,
      "chip": "ym2612"
    },
    {
      "channel": 3,
      "note": 52,
      "start": 154.3711,
      "duration": 0.2385,
      "velocity": 96,
      "chip": "ym2612"
    },
    {
      "channel": 4,
      "note": 57,
      "start": 154.4509,
      "duration": 0.2385,
      "velocity": 96,
      "chip": "ym2612"
    },
    {
      "channel": 2,
      "note": 52,
      "start": 154.6081,
      "duration": 0.238,
      "velocity": 96,
      "chip": "ym2612"
    },
    {
      "channel": 3,
      "note": 57,
      "start": 154.689,
      "duration": 0.2385,
      "velocity": 96,
      "chip": "ym2612"
    },
    {
      "channel": 4,
      "note": 59,
      "start": 154.7687,
      "duration": 0.2383,
      "velocity": 96,
      "chip": "ym2612"
    },
    {
      "channel": 2,
      "note": 57,
      "start": 154.926,
      "duration": 0.238,
      "velocity": 96,
      "chip": "ym2612"
    },
    {
      "channel": 3,
      "note": 59,
      "start": 155.0067,
      "duration": 0.2385,
      "velocity": 96,
      "chip": "ym2612"
    },
    {
      "channel": 4,
      "note": 61,
      "start": 155.087,
      "duration": 2.4622,
      "velocity": 96,
      "chip": "ym2612"
    },
    {
      "channel": 2,
      "note": 59,
      "start": 155.2437,
      "duration": 0.2381,
      "velocity": 96,
      "chip": "ym2612"
    },
    {
      "channel": 3,
      "note": 61,
      "start": 155.325,
      "duration": 2.4622,
      "velocity": 96,
      "chip": "ym2612"
    },
    {
      "channel": 2,
      "note": 61,
      "start": 155.5617,
      "duration": 2.4626,
      "velocity": 96,
      "chip": "ym2612"
    },
    {
      "channel": 4,
      "note": 33,
      "start": 157.6298,
      "duration": 0.2379,
      "velocity": 96,
      "chip": "ym2612"
    },
    {
      "channel": 5,
      "note": 33,
      "start": 157.6324,
      "duration": 2.3802,
      "velocity": 107,
      "chip": "ym2612"
    },
    {
      "channel": 3,
      "note": 33,
      "start": 157.8674,
      "duration": 0.2382,
      "velocity": 96,
      "chip": "ym2612"
    },
    {
      "channel": 4,
      "note": 40,
      "start": 157.947,
      "duration": 0.2378,
      "velocity": 96,
      "chip": "ym2612"
    },
    {
      "channel": 2,
      "note": 33,
      "start": 158.1043,
      "duration": 0.2378,
      "velocity": 96,
      "chip": "ym2612"
    },
    {
      "channel": 3,
      "note": 40,
      "start": 158.1845,
      "duration": 0.2384,
      "velocity": 96,
      "chip": "ym2612"
    },
    {
      "channel": 4,
      "note": 48,
      "start": 158.2644,
      "duration": 0.2383,
      "velocity": 96,
      "chip": "ym2612"
    },
    {
      "channel": 2,
      "note": 40,
      "start": 158.4217,
      "duration": 0.2382,
      "velocity": 96,
      "chip": "ym2612"
    },
    {
      "channel": 3,
      "note": 48,
      "start": 158.5023,
      "duration": 0.2384,
      "velocity": 96,
      "chip": "ym2612"
    },
    {
      "channel": 4,
      "note": 40,
      "start": 158.5821,
      "duration": 0.2384,
      "velocity": 96,
      "chip": "ym2612"
    },
    {
      "channel": 2,
      "note": 48,
      "start": 158.7397,
      "duration": 0.2381,
      "velocity": 96,
      "chip": "ym2612"
    },
    {
      "channel": 3,
      "note": 40,
      "start": 158.8202,
      "duration": 0.2383,
      "velocity": 96,
      "chip": "ym2612"
    },
    {
      "channel": 4,
      "note": 48,
      "start": 158.8999,
      "duration": 0.2383,
      "velocity": 96,
      "chip": "ym2612"
    },
    {
      "channel": 2,
      "note": 40,
      "start": 159.0574,
      "duration": 0.2381,
      "velocity": 96,
      "chip": "ym2612"
    },
    {
      "channel": 3,
      "note": 48,
      "start": 159.1379,
      "duration": 0.2386,
      "velocity": 96,
      "chip": "ym2612"
    },
    {
      "channel": 4,
      "note": 40,
      "start": 159.2176,
      "duration": 0.2384,
      "velocity": 96,
      "chip": "ym2612"
    },
    {
      "channel": 2,
      "note": 48,
      "start": 159.3754,
      "duration": 0.238,
      "velocity": 96,
      "chip": "ym2612"
    },
    {
      "channel": 3,
      "note": 40,
      "start": 159.4557,
      "duration": 0.2384,
      "velocity": 96,
      "chip": "ym2612"
    },
    {
      "channel": 4,
      "note": 48,
      "start": 159.5354,
      "duration": 0.2385,
      "velocity": 96,
      "chip": "ym2612"
    },
    {
      "channel": 2,
      "note": 40,
      "start": 159.693,
      "duration": 0.238,
      "velocity": 96,
      "chip": "ym2612"
    },
    {
      "channel": 3,
      "note": 48,
      "start": 159.7735,
      "duration": 0.2385,
      "velocity": 96,
      "chip": "ym2612"
    },
    {
      "channel": 4,
      "note": 40,
      "start": 159.8532,
      "duration": 0.2384,
      "velocity": 96,
      "chip": "ym2612"
    },
    {
      "channel": 2,
      "note": 48,
      "start": 160.011,
      "duration": 0.1594,
      "velocity": 96,
      "chip": "ym2612"
    },
    {
      "channel": 3,
      "note": 40,
      "start": 160.0913,
      "duration": 0.0791,
      "velocity": 96,
      "chip": "ym2612"
    }
  ]
}