{
  "track_name": "08 - Hakuna Matata",
  "duration_sec": 60.474,
  "sample_rate": 44100,
  "note_count": 1201,
  "unique_pitches": 51,
  "pitch_range": 64,
  "avg_note_duration": 0.3012,
  "reconstruction_stats": {
    "notes_reconstructed": 1201,
    "keyon_events": 1201,
    "keyoff_events": 1160,
    "orphan_keyons": 6,
    "unique_pitches": 51,
    "pitch_range": 64,
    "avg_duration_sec": 0.3012
  },
  "metadata": {
    "source": "T\\The Lion King\\08 - Hakuna Matata.vgm"
  },
  "notes": [
    {
      "channel": 1,
      "note": 43,
      "start": 0.0,
      "duration": 0.1129,
      "velocity": 119,
      "chip": "ym2612"
    },
    {
      "channel": 2,
      "note": 43,
      "start": 0.0,
      "duration": 0.0,
      "velocity": 112,
      "chip": "ym2612"
    },
    {
      "channel": 2,
      "note": 55,
      "start": 0.0002,
      "duration": 0.9622,
      "velocity": 112,
      "chip": "ym2612"
    },
    {
      "channel": 4,
      "note": 67,
      "start": 0.003,
      "duration": 0.7082,
      "velocity": 102,
      "chip": "ym2612"
    },
    {
      "channel": 1,
      "note": 62,
      "start": 0.1132,
      "duration": 0.0645,
      "velocity": 119,
      "chip": "ym2612"
    },
    {
      "channel": 5,
      "note": 74,
      "start": 0.1161,
      "duration": 0.0625,
      "velocity": 127,
      "chip": "ym2612"
    },
    {
      "channel": 1,
      "note": 66,
      "start": 0.1778,
      "duration": 0.0665,
      "velocity": 119,
      "chip": "ym2612"
    },
    {
      "channel": 5,
      "note": 74,
      "start": 0.1788,
      "duration": 0.0684,
      "velocity": 127,
      "chip": "ym2612"
    },
    {
      "channel": 1,
      "note": 67,
      "start": 0.2445,
      "duration": 0.2357,
      "velocity": 119,
      "chip": "ym2612"
    },
    {
      "channel": 5,
      "note": 38,
      "start": 0.2474,
      "duration": 0.2338,
      "velocity": 127,
      "chip": "ym2612"
    },
    {
      "channel": 0,
      "note": 62,
      "start": 0.4798,
      "duration": 0.1145,
      "velocity": 102,
      "chip": "ym2612"
    },
    {
      "channel": 1,
      "note": 67,
      "start": 0.4805,
      "duration": 0.3646,
      "velocity": 119,
      "chip": "ym2612"
    },
    {
      "channel": 5,
      "note": 55,
      "start": 0.4814,
      "duration": 0.1184,
      "velocity": 127,
      "chip": "ym2612"
    },
    {
      "channel": 0,
      "note": 71,
      "start": 0.5944,
      "duration": 0.2499,
      "velocity": 102,
      "chip": "ym2612"
    },
    {
      "channel": 3,
      "note": 67,
      "start": 0.5973,
      "duration": 0.2485,
      "velocity": 102,
      "chip": "ym2612"
    },
    {
      "channel": 5,
      "note": 74,
      "start": 0.6,
      "duration": 0.2471,
      "velocity": 127,
      "chip": "ym2612"
    },
    {
      "channel": 4,
      "note": 62,
      "start": 0.7115,
      "duration": 0.135,
      "velocity": 102,
      "chip": "ym2612"
    },
    {
      "channel": 0,
      "note": 69,
      "start": 0.8445,
      "duration": 0.1165,
      "velocity": 102,
      "chip": "ym2612"
    },
    {
      "channel": 1,
      "note": 67,
      "start": 0.8452,
      "duration": 0.1165,
      "velocity": 119,
      "chip": "ym2612"
    },
    {
      "channel": 3,
      "note": 66,
      "start": 0.846,
      "duration": 0.1171,
      "velocity": 102,
      "chip": "ym2612"
    },
    {
      "channel": 4,
      "note": 71,
      "start": 0.8467,
      "duration": 0.2311,
      "velocity": 102,
      "chip": "ym2612"
    },
    {
      "channel": 5,
      "note": 74,
      "start": 0.8474,
      "duration": 0.1184,
      "velocity": 127,
      "chip": "ym2612"
    },
    {
      "channel": 0,
      "note": 67,
      "start": 0.9612,
      "duration": 0.2331,
      "velocity": 102,
      "chip": "ym2612"
    },
    {
      "channel": 1,
      "note": 62,
      "start": 0.9619,
      "duration": 0.2331,
      "velocity": 119,
      "chip": "ym2612"
    },
    {
      "channel": 2,
      "note": 59,
      "start": 0.9626,
      "duration": 0.3492,
      "velocity": 112,
      "chip": "ym2612"
    },
    {
      "channel": 3,
      "note": 64,
      "start": 0.9633,
      "duration": 0.2325,
      "velocity": 102,
      "chip": "ym2612"
    },
    {
      "channel": 5,
      "note": 38,
      "start": 0.9661,
      "duration": 0.2331,
      "velocity": 127,
      "chip": "ym2612"
    },
    {
      "channel": 4,
      "note": 69,
      "start": 1.0781,
      "duration": 0.1185,
      "velocity": 102,
      "chip": "ym2612"
    },
    {
      "channel": 0,
      "note": 69,
      "start": 1.1945,
      "duration": 0.2447,
      "velocity": 102,
      "chip": "ym2612"
    },
    {
      "channel": 1,
      "note": 59,
      "start": 1.1952,
      "duration": 0.1158,
      "velocity": 119,
      "chip": "ym2612"
    },
    {
      "channel": 3,
      "note": 66,
      "start": 1.196,
      "duration": 0.2447,
      "velocity": 102,
      "chip": "ym2612"
    },
    {
      "channel": 4,
      "note": 67,
      "start": 1.1967,
      "duration": 0.1261,
      "velocity": 102,
      "chip": "ym2612"
    },
    {
      "channel": 5,
      "note": 74,
      "start": 1.1994,
      "duration": 0.062,
      "velocity": 127,
      "chip": "ym2612"
    },
    {
      "channel": 5,
      "note": 74,
      "start": 1.2617,
      "duration": 0.1799,
      "velocity": 127,
      "chip": "ym2612"
    },
    {
      "channel": 1,
      "note": 69,
      "start": 1.3112,
      "duration": 0.1286,
      "velocity": 119,
      "chip": "ym2612"
    },
    {
      "channel": 2,
      "note": 62,
      "start": 1.3119,
      "duration": 0.4807,
      "velocity": 112,
      "chip": "ym2612"
    },
    {
      "channel": 4,
      "note": 69,
      "start": 1.323,
      "duration": 0.3518,
      "velocity": 102,
      "chip": "ym2612"
    },
    {
      "channel": 0,
      "note": 66,
      "start": 1.4395,
      "duration": 0.3498,
      "velocity": 102,
      "chip": "ym2612"
    },
    {
      "channel": 1,
      "note": 69,
      "start": 1.4402,
      "duration": 0.1158,
      "velocity": 119,
      "chip": "ym2612"
    },
    {
      "channel": 3,
      "note": 62,
      "start": 1.4409,
      "duration": 0.3524,
      "velocity": 102,
      "chip": "ym2612"
    },
    {
      "channel": 5,
      "note": 74,
      "start": 1.4418,
      "duration": 0.117,
      "velocity": 127,
      "chip": "ym2612"
    },
    {
      "channel": 1,
      "note": 66,
      "start": 1.5561,
      "duration": 0.2338,
      "velocity": 119,
      "chip": "ym2612"
    },
    {
      "channel": 5,
      "note": 38,
      "start": 1.559,
      "duration": 0.2351,
      "velocity": 127,
      "chip": "ym2612"
    },
    {
      "channel": 4,
      "note": 66,
      "start": 1.6751,
      "duration": 0.3644,
      "velocity": 102,
      "chip": "ym2612"
    },
    {
      "channel": 0,
      "note": 62,
      "start": 1.7895,
      "duration": 1.3301,
      "velocity": 102,
      "chip": "ym2612"
    },
    {
      "channel": 1,
      "note": 62,
      "start": 1.7902,
      "duration": 0.3677,
      "velocity": 119,
      "chip": "ym2612"
    },
    {
      "channel": 2,
      "note": 62,
      "start": 1.7928,
      "duration": 0.4805,
      "velocity": 112,
      "chip": "ym2612"
    },
    {
      "channel": 3,
      "note": 57,
      "start": 1.7935,
      "duration": 0.8468,
      "velocity": 102,
      "chip": "ym2612"
    },
    {
      "channel": 5,
      "note": 55,
      "start": 1.7944,
      "duration": 0.1305,
      "velocity": 127,
      "chip": "ym2612"
    },
    {
      "channel": 5,
      "note": 74,
      "start": 1.9251,
      "duration": 0.2338,
      "velocity": 127,
      "chip": "ym2612"
    },
    {
      "channel": 4,
      "note": 62,
      "start": 2.0397,
      "duration": 1.3115,
      "velocity": 102,
      "chip": "ym2612"
    },
    {
      "channel": 1,
      "note": 73,
      "start": 2.1582,
      "duration": 0.0645,
      "velocity": 119,
      "chip": "ym2612"
    },
    {
      "channel": 5,
      "note": 74,
      "start": 2.1591,
      "duration": 0.117,
      "velocity": 127,
      "chip": "ym2612"
    },
    {
      "channel": 1,
      "note": 74,
      "start": 2.2229,
      "duration": 0.0497,
      "velocity": 119,
      "chip": "ym2612"
    },
    {
      "channel": 1,
      "note": 73,
      "start": 2.2729,
      "duration": 0.2497,
      "velocity": 119,
      "chip": "ym2612"
    },
    {
      "channel": 2,
      "note": 56,
      "start": 2.2735,
      "duration": 0.366,
      "velocity": 112,
      "chip": "ym2612"
    },
    {
      "channel": 5,
      "note": 38,
      "start": 2.2764,
      "duration": 0.2491,
      "velocity": 127,
      "chip": "ym2612"
    },
    {
      "channel": 1,
      "note": 69,
      "start": 2.5228,
      "duration": 0.2282,
      "velocity": 119,
      "chip": "ym2612"
    },
    {
      "channel": 5,
      "note": 74,
      "start": 2.5257,
      "duration": 0.0473,
      "velocity": 127,
      "chip": "ym2612"
    },
    {
      "channel": 5,
      "note": 74,
      "start": 2.5732,
      "duration": 0.1788,
      "velocity": 127,
      "chip": "ym2612"
    },
    {
      "channel": 2,
      "note": 57,
      "start": 2.6398,
      "duration": 0.4831,
      "velocity": 112,
      "chip": "ym2612"
    },
    {
      "channel": 3,
      "note": 69,
      "start": 2.6405,
      "duration": 0.483,
      "velocity": 102,
      "chip": "ym2612"
    },
    {
      "channel": 1,
      "note": 73,
      "start": 2.7512,
      "duration": 0.1164,
      "velocity": 119,
      "chip": "ym2612"
    },
    {
      "channel": 5,
      "note": 74,
      "start": 2.7522,
      "duration": 0.0656,
      "velocity": 127,
      "chip": "ym2612"
    },
    {
      "channel": 5,
      "note": 74,
      "start": 2.8182,
      "duration": 0.0523,
      "velocity": 127,
      "chip": "ym2612"
    },
    {
      "channel": 1,
      "note": 69,
      "start": 2.8678,
      "duration": 0.2525,
      "velocity": 119,
      "chip": "ym2612"
    },
    {
      "channel": 5,
      "note": 38,
      "start": 2.8708,
      "duration": 0.2536,
      "velocity": 127,
      "chip": "ym2612"
    },
    {
      "channel": 0,
      "note": 61,
      "start": 3.1198,
      "duration": 0.1144,
      "velocity": 102,
      "chip": "ym2612"
    },
    {
      "channel": 1,
      "note": 64,
      "start": 3.1205,
      "duration": 0.3478,
      "velocity": 119,
      "chip": "ym2612"
    },
    {
      "channel": 2,
      "note": 57,
      "start": 3.1231,
      "duration": 0.4792,
      "velocity": 112,
      "chip": "ym2612"
    },
    {
      "channel": 3,
      "note": 57,
      "start": 3.1238,
      "duration": 0.1113,
      "velocity": 102,
      "chip": "ym2612"
    },
    {
      "channel": 5,
      "note": 55,
      "start": 3.1246,
      "duration": 0.1132,
      "velocity": 127,
      "chip": "ym2612"
    },
    {
      "channel": 0,
      "note": 64,
      "start": 3.2344,
      "duration": 0.2332,
      "velocity": 102,
      "chip": "ym2612"
    },
    {
      "channel": 3,
      "note": 61,
      "start": 3.2353,
      "duration": 0.2339,
      "velocity": 102,
      "chip": "ym2612"
    },
    {
      "channel": 5,
      "note": 74,
      "start": 3.2381,
      "duration": 0.2324,
      "velocity": 127,
      "chip": "ym2612"
    },
    {
      "channel": 4,
      "note": 61,
      "start": 3.3514,
      "duration": 0.1184,
      "velocity": 102,
      "chip": "ym2612"
    },
    {
      "channel": 0,
      "note": 69,
      "start": 3.4678,
      "duration": 0.1331,
      "velocity": 102,
      "chip": "ym2612"
    },
    {
      "channel": 1,
      "note": 73,
      "start": 3.4685,
      "duration": 0.0659,
      "velocity": 119,
      "chip": "ym2612"
    },
    {
      "channel": 3,
      "note": 64,
      "start": 3.4693,
      "duration": 0.1337,
      "velocity": 102,
      "chip": "ym2612"
    },
    {
      "channel": 4,
      "note": 64,
      "start": 3.47,
      "duration": 0.2478,
      "velocity": 102,
      "chip": "ym2612"
    },
    {
      "channel": 5,
      "note": 74,
      "start": 3.4707,
      "duration": 0.1351,
      "velocity": 127,
      "chip": "ym2612"
    },
    {
      "channel": 1,
      "note": 74,
      "start": 3.5346,
      "duration": 0.0671,
      "velocity": 119,
      "chip": "ym2612"
    },
    {
      "channel": 0,
      "note": 64,
      "start": 3.6011,
      "duration": 0.2331,
      "velocity": 102,
      "chip": "ym2612"
    },
    {
      "channel": 1,
      "note": 73,
      "start": 3.6018,
      "duration": 0.2331,
      "velocity": 119,
      "chip": "ym2612"
    },
    {
      "channel": 2,
      "note": 49,
      "start": 3.6025,
      "duration": 0.3485,
      "velocity": 112,
      "chip": "ym2612"
    },
    {
      "channel": 3,
      "note": 61,
      "start": 3.6032,
      "duration": 0.2326,
      "velocity": 102,
      "chip": "ym2612"
    },
    {
      "channel": 5,
      "note": 38,
      "start": 3.606,
      "duration": 0.2331,
      "velocity": 127,
      "chip": "ym2612"
    },
    {
      "channel": 4,
      "note": 69,
      "start": 3.718,
      "duration": 0.1185,
      "velocity": 102,
      "chip": "ym2612"
    },
    {
      "channel": 0,
      "note": 66,
      "start": 3.8344,
      "duration": 1.9259,
      "velocity": 102,
      "chip": "ym2612"
    },
    {
      "channel": 1,
      "note": 69,
      "start": 3.8351,
      "duration": 0.246,
      "velocity": 119,
      "chip": "ym2612"
    },
    {
      "channel": 3,
      "note": 62,
      "start": 3.836,
      "duration": 2.04,
      "velocity": 102,
      "chip": "ym2612"
    },
    {
      "channel": 4,
      "note": 64,
      "start": 3.8367,
      "duration": 0.1153,
      "velocity": 102,
      "chip": "ym2612"
    },
    {
      "channel": 5,
      "note": 74,
      "start": 3.8393,
      "duration": 0.062,
      "velocity": 127,
      "chip": "ym2612"
    },
    {
      "channel": 5,
      "note": 74,
      "start": 3.9016,
      "duration": 0.1806,
      "velocity": 127,
      "chip": "ym2612"
    },
    {
      "channel": 2,
      "note": 50,
      "start": 3.9512,
      "duration": 0.4807,
      "velocity": 112,
      "chip": "ym2612"
    },
    {
      "channel": 4,
      "note": 66,
      "start": 3.9522,
      "duration": 1.3282,
      "velocity": 102,
      "chip": "ym2612"
    },
    {
      "channel": 1,
      "note": 74,
      "start": 4.0814,
      "duration": 0.1145,
      "velocity": 119,
      "chip": "ym2612"
    },
    {
      "channel": 5,
      "note": 74,
      "start": 4.0824,
      "duration": 0.1163,
      "velocity": 127,
      "chip": "ym2612"
    },
    {
      "channel": 1,
      "note": 69,
      "start": 4.1961,
      "duration": 0.2332,
      "velocity": 119,
      "chip": "ym2612"
    },
    {
      "channel": 5,
      "note": 38,
      "start": 4.1991,
      "duration": 0.2337,
      "velocity": 127,
      "chip": "ym2612"
    },
    {
      "channel": 1,
      "note": 66,
      "start": 4.4295,
      "duration": 0.1164,
      "velocity": 119,
      "chip": "ym2612"
    },
    {
      "channel": 2,
      "note": 50,
      "start": 4.4321,
      "duration": 0.4812,
      "velocity": 112,
      "chip": "ym2612"
    },
    {
      "channel": 5,
      "note": 55,
      "start": 4.433,
      "duration": 0.1158,
      "velocity": 127,
      "chip": "ym2612"
    },
    {
      "channel": 1,
      "note": 69,
      "start": 4.5461,
      "duration": 0.2498,
      "velocity": 119,
      "chip": "ym2612"
    },
    {
      "channel": 5,
      "note": 74,
      "start": 4.5491,
      "duration": 0.2478,
      "velocity": 127,
      "chip": "ym2612"
    },
    {
      "channel": 1,
      "note": 66,
      "start": 4.7961,
      "duration": 0.1165,
      "velocity": 119,
      "chip": "ym2612"
    },
    {
      "channel": 5,
      "note": 74,
      "start": 4.7971,
      "duration": 0.119,
      "velocity": 127,
      "chip": "ym2612"
    },
    {
      "channel": 1,
      "note": 62,
      "start": 4.9128,
      "duration": 0.479,
      "velocity": 119,
      "chip": "ym2612"
    },
    {
      "channel": 2,
      "note": 54,
      "start": 4.9135,
      "duration": 0.366,
      "velocity": 112,
      "chip": "ym2612"
    },
    {
      "channel": 5,
      "note": 38,
      "start": 4.9164,
      "duration": 0.2317,
      "velocity": 127,
      "chip": "ym2612"
    },
    {
      "channel": 5,
      "note": 74,
      "start": 5.1484,
      "duration": 0.0646,
      "velocity": 127,
      "chip": "ym2612"
    },
    {
      "channel": 5,
      "note": 74,
      "start": 5.2132,
      "duration": 0.1797,
      "velocity": 127,
      "chip": "ym2612"
    },
    {
      "channel": 2,
      "note": 55,
      "start": 5.2797,
      "duration": 0.9468,
      "velocity": 112,
      "chip": "ym2612"
    },
    {
      "channel": 4,
      "note": 67,
      "start": 5.2806,
      "duration": 0.7114,
      "velocity": 102,
      "chip": "ym2612"
    },
    {
      "channel": 1,
      "note": 62,
      "start": 5.392,
      "duration": 0.0664,
      "velocity": 119,
      "chip": "ym2612"
    },
    {
      "channel": 5,
      "note": 74,
      "start": 5.3931,
      "duration": 0.0663,
      "velocity": 127,
      "chip": "ym2612"
    },
    {
      "channel": 1,
      "note": 66,
      "start": 5.4586,
      "duration": 0.0498,
      "velocity": 119,
      "chip": "ym2612"
    },
    {
      "channel": 5,
      "note": 74,
      "start": 5.4596,
      "duration": 0.0517,
      "velocity": 127,
      "chip": "ym2612"
    },
    {
      "channel": 1,
      "note": 67,
      "start": 5.5086,
      "duration": 0.2524,
      "velocity": 119,
      "chip": "ym2612"
    },
    {
      "channel": 5,
      "note": 38,
      "start": 5.5116,
      "duration": 0.2504,
      "velocity": 127,
      "chip": "ym2612"
    },
    {
      "channel": 0,
      "note": 62,
      "start": 5.7605,
      "duration": 0.1145,
      "velocity": 102,
      "chip": "ym2612"
    },
    {
      "channel": 1,
      "note": 67,
      "start": 5.7612,
      "duration": 0.3479,
      "velocity": 119,
      "chip": "ym2612"
    },
    {
      "channel": 5,
      "note": 55,
      "start": 5.7622,
      "duration": 0.1165,
      "velocity": 127,
      "chip": "ym2612"
    },
    {
      "channel": 0,
      "note": 71,
      "start": 5.8752,
      "duration": 0.2332,
      "velocity": 102,
      "chip": "ym2612"
    },
    {
      "channel": 3,
      "note": 67,
      "start": 5.8762,
      "duration": 0.2337,
      "velocity": 102,
      "chip": "ym2612"
    },
    {
      "channel": 5,
      "note": 74,
      "start": 5.879,
      "duration": 0.2323,
      "velocity": 127,
      "chip": "ym2612"
    },
    {
      "channel": 4,
      "note": 62,
      "start": 5.9923,
      "duration": 0.1183,
      "velocity": 102,
      "chip": "ym2612"
    },
    {
      "channel": 0,
      "note": 69,
      "start": 6.1086,
      "duration": 0.1165,
      "velocity": 102,
      "chip": "ym2612"
    },
    {
      "channel": 1,
      "note": 67,
      "start": 6.1093,
      "duration": 0.1165,
      "velocity": 119,
      "chip": "ym2612"
    },
    {
      "channel": 3,
      "note": 66,
      "start": 6.1101,
      "duration": 0.1171,
      "velocity": 102,
      "chip": "ym2612"
    },
    {
      "channel": 4,
      "note": 71,
      "start": 6.1108,
      "duration": 0.2478,
      "velocity": 102,
      "chip": "ym2612"
    },
    {
      "channel": 5,
      "note": 74,
      "start": 6.1115,
      "duration": 0.1184,
      "velocity": 127,
      "chip": "ym2612"
    },
    {
      "channel": 0,
      "note": 67,
      "start": 6.2253,
      "duration": 0.2498,
      "velocity": 102,
      "chip": "ym2612"
    },
    {
      "channel": 1,
      "note": 62,
      "start": 6.226,
      "duration": 0.2498,
      "velocity": 119,
      "chip": "ym2612"
    },
    {
      "channel": 2,
      "note": 59,
      "start": 6.2267,
      "duration": 0.3658,
      "velocity": 112,
      "chip": "ym2612"
    },
    {
      "channel": 3,
      "note": 64,
      "start": 6.2274,
      "duration": 0.2492,
      "velocity": 102,
      "chip": "ym2612"
    },
    {
      "channel": 5,
      "note": 38,
      "start": 6.2302,
      "duration": 0.2498,
      "velocity": 127,
      "chip": "ym2612"
    },
    {
      "channel": 4,
      "note": 69,
      "start": 6.3589,
      "duration": 0.1185,
      "velocity": 102,
      "chip": "ym2612"
    },
    {
      "channel": 0,
      "note": 69,
      "start": 6.4753,
      "duration": 0.228,
      "velocity": 102,
      "chip": "ym2612"
    },
    {
      "channel": 1,
      "note": 59,
      "start": 6.476,
      "duration": 0.1158,
      "velocity": 119,
      "chip": "ym2612"
    },
    {
      "channel": 3,
      "note": 66,
      "start": 6.4768,
      "duration": 0.228,
      "velocity": 102,
      "chip": "ym2612"
    },
    {
      "channel": 4,
      "note": 67,
      "start": 6.4775,
      "duration": 0.116,
      "velocity": 102,
      "chip": "ym2612"
    },
    {
      "channel": 5,
      "note": 74,
      "start": 6.4802,
      "duration": 0.0454,
      "velocity": 127,
      "chip": "ym2612"
    },
    {
      "channel": 5,
      "note": 74,
      "start": 6.5258,
      "duration": 0.1799,
      "velocity": 127,
      "chip": "ym2612"
    },
    {
      "channel": 1,
      "note": 69,
      "start": 6.592,
      "duration": 0.112,
      "velocity": 119,
      "chip": "ym2612"
    },
    {
      "channel": 2,
      "note": 62,
      "start": 6.5927,
      "duration": 0.4807,
      "velocity": 112,
      "chip": "ym2612"
    },
    {
      "channel": 4,
      "note": 69,
      "start": 6.5937,
      "duration": 0.362,
      "velocity": 102,
      "chip": "ym2612"
    },
    {
      "channel": 0,
      "note": 74,
      "start": 6.7036,
      "duration": 0.3665,
      "velocity": 102,
      "chip": "ym2612"
    },
    {
      "channel": 1,
      "note": 69,
      "start": 6.7043,
      "duration": 0.1324,
      "velocity": 119,
      "chip": "ym2612"
    },
    {
      "channel": 3,
      "note": 62,
      "start": 6.705,
      "duration": 0.3691,
      "velocity": 102,
      "chip": "ym2612"
    },
    {
      "channel": 5,
      "note": 74,
      "start": 6.7059,
      "duration": 0.1337,
      "velocity": 127,
      "chip": "ym2612"
    },
    {
      "channel": 1,
      "note": 66,
      "start": 6.8369,
      "duration": 0.2338,
      "velocity": 119,
      "chip": "ym2612"
    },
    {
      "channel": 5,
      "note": 38,
      "start": 6.8398,
      "duration": 0.2351,
      "velocity": 127,
      "chip": "ym2612"
    },
    {
      "channel": 4,
      "note": 66,
      "start": 6.9559,
      "duration": 0.3477,
      "velocity": 102,
      "chip": "ym2612"
    },
    {
      "channel": 0,
      "note": 66,
      "start": 7.0702,
      "duration": 0.9634,
      "velocity": 119,
      "chip": "ym2612"
    },
    {
      "channel": 1,
      "note": 62,
      "start": 7.071,
      "duration": 0.3677,
      "velocity": 119,
      "chip": "ym2612"
    },
    {
      "channel": 2,
      "note": 62,
      "start": 7.0736,
      "duration": 0.4805,
      "velocity": 112,
      "chip": "ym2612"
    },
    {
      "channel": 3,
      "note": 57,
      "start": 7.0743,
      "duration": 0.9649,
      "velocity": 119,
      "chip": "ym2612"
    },
    {
      "channel": 5,
      "note": 55,
      "start": 7.0751,
      "duration": 0.1139,
      "velocity": 127,
      "chip": "ym2612"
    },
    {
      "channel": 5,
      "note": 74,
      "start": 7.1892,
      "duration": 0.2504,
      "velocity": 127,
      "chip": "ym2612"
    },
    {
      "channel": 4,
      "note": 62,
      "start": 7.3038,
      "duration": 0.7379,
      "velocity": 119,
      "chip": "ym2612"
    },
    {
      "channel": 1,
      "note": 73,
      "start": 7.4389,
      "duration": 0.0478,
      "velocity": 119,
      "chip": "ym2612"
    },
    {
      "channel": 5,
      "note": 74,
      "start": 7.4399,
      "duration": 0.117,
      "velocity": 127,
      "chip": "ym2612"
    },
    {
      "channel": 1,
      "note": 74,
      "start": 7.487,
      "duration": 0.0665,
      "velocity": 119,
      "chip": "ym2612"
    },
    {
      "channel": 1,
      "note": 73,
      "start": 7.5537,
      "duration": 0.2331,
      "velocity": 119,
      "chip": "ym2612"
    },
    {
      "channel": 2,
      "note": 56,
      "start": 7.5543,
      "duration": 0.3494,
      "velocity": 112,
      "chip": "ym2612"
    },
    {
      "channel": 5,
      "note": 38,
      "start": 7.5572,
      "duration": 0.2324,
      "velocity": 127,
      "chip": "ym2612"
    },
    {
      "channel": 1,
      "note": 69,
      "start": 7.7869,
      "duration": 0.2495,
      "velocity": 119,
      "chip": "ym2612"
    },
    {
      "channel": 5,
      "note": 74,
      "start": 7.7898,
      "duration": 0.064,
      "velocity": 127,
      "chip": "ym2612"
    },
    {
      "channel": 5,
      "note": 74,
      "start": 7.854,
      "duration": 0.1886,
      "velocity": 127,
      "chip": "ym2612"
    },
    {
      "channel": 2,
      "note": 57,
      "start": 7.9039,
      "duration": 0.4812,
      "velocity": 112,
      "chip": "ym2612"
    },
    {
      "channel": 0,
      "note": 69,
      "start": 8.0339,
      "duration": 0.0478,
      "velocity": 119,
      "chip": "ym2612"
    },
    {
      "channel": 1,
      "note": 64,
      "start": 8.0366,
      "duration": 0.1124,
      "velocity": 119,
      "chip": "ym2612"
    },
    {
      "channel": 3,
      "note": 73,
      "start": 8.0393,
      "duration": 0.0433,
      "velocity": 119,
      "chip": "ym2612"
    },
    {
      "channel": 4,
      "note": 76,
      "start": 8.042,
      "duration": 0.3445,
      "velocity": 119,
      "chip": "ym2612"
    },
    {
      "channel": 5,
      "note": 74,
      "start": 8.0428,
      "duration": 0.0406,
      "velocity": 127,
      "chip": "ym2612"
    },
    {
      "channel": 0,
      "note": 69,
      "start": 8.0819,
      "duration": 0.0664,
      "velocity": 119,
      "chip": "ym2612"
    },
    {
      "channel": 3,
      "note": 73,
      "start": 8.0828,
      "duration": 0.0671,
      "velocity": 119,
      "chip": "ym2612"
    },
    {
      "channel": 5,
      "note": 74,
      "start": 8.0836,
      "duration": 0.069,
      "velocity": 127,
      "chip": "ym2612"
    },
    {
      "channel": 0,
      "note": 69,
      "start": 8.1486,
      "duration": 0.2332,
      "velocity": 119,
      "chip": "ym2612"
    },
    {
      "channel": 1,
      "note": 64,
      "start": 8.1493,
      "duration": 0.2332,
      "velocity": 119,
      "chip": "ym2612"
    },
    {
      "channel": 3,
      "note": 73,
      "start": 8.15,
      "duration": 0.2358,
      "velocity": 119,
      "chip": "ym2612"
    },
    {
      "channel": 5,
      "note": 38,
      "start": 8.1528,
      "duration": 0.2344,
      "velocity": 127,
      "chip": "ym2612"
    },
    {
      "channel": 0,
      "note": 69,
      "start": 8.382,
      "duration": 0.3664,
      "velocity": 119,
      "chip": "ym2612"
    },
    {
      "channel": 1,
      "note": 64,
      "start": 8.3827,
      "duration": 0.3664,
      "velocity": 119,
      "chip": "ym2612"
    },
    {
      "channel": 2,
      "note": 57,
      "start": 8.3853,
      "duration": 0.1299,
      "velocity": 112,
      "chip": "ym2612"
    },
    {
      "channel": 3,
      "note": 73,
      "start": 8.386,
      "duration": 0.3638,
      "velocity": 119,
      "chip": "ym2612"
    },
    {
      "channel": 4,
      "note": 76,
      "start": 8.3867,
      "duration": 0.1292,
      "velocity": 119,
      "chip": "ym2612"
    },
    {
      "channel": 5,
      "note": 55,
      "start": 8.3874,
      "duration": 0.1312,
      "velocity": 127,
      "chip": "ym2612"
    },
    {
      "channel": 2,
      "note": 52,
      "start": 8.5154,
      "duration": 0.6031,
      "velocity": 112,
      "chip": "ym2612"
    },
    {
      "channel": 4,
      "note": 74,
      "start": 8.5161,
      "duration": 0.3512,
      "velocity": 119,
      "chip": "ym2612"
    },
    {
      "channel": 5,
      "note": 74,
      "start": 8.5188,
      "duration": 0.2319,
      "velocity": 127,
      "chip": "ym2612"
    },
    {
      "channel": 0,
      "note": 69,
      "start": 8.7486,
      "duration": 0.0665,
      "velocity": 119,
      "chip": "ym2612"
    },
    {
      "channel": 1,
      "note": 64,
      "start": 8.7493,
      "duration": 0.1165,
      "velocity": 119,
      "chip": "ym2612"
    },
    {
      "channel": 3,
      "note": 73,
      "start": 8.75,
      "duration": 0.1166,
      "velocity": 119,
      "chip": "ym2612"
    },
    {
      "channel": 5,
      "note": 74,
      "start": 8.7509,
      "duration": 0.119,
      "velocity": 127,
      "chip": "ym2612"
    },
    {
      "channel": 0,
      "note": 69,
      "start": 8.8152,
      "duration": 0.0498,
      "velocity": 119,
      "chip": "ym2612"
    },
    {
      "channel": 0,
      "note": 69,
      "start": 8.8652,
      "duration": 0.2498,
      "velocity": 119,
      "chip": "ym2612"
    },
    {
      "channel": 1,
      "note": 64,
      "start": 8.8659,
      "duration": 0.2498,
      "velocity": 119,
      "chip": "ym2612"
    },
    {
      "channel": 3,
      "note": 73,
      "start": 8.8668,
      "duration": 0.2524,
      "velocity": 119,
      "chip": "ym2612"
    },
    {
      "channel": 4,
      "note": 73,
      "start": 8.8675,
      "duration": 0.4781,
      "velocity": 119,
      "chip": "ym2612"
    },
    {
      "channel": 5,
      "note": 38,
      "start": 8.8701,
      "duration": 0.2517,
      "velocity": 127,
      "chip": "ym2612"
    },
    {
      "channel": 0,
      "note": 69,
      "start": 9.1152,
      "duration": 0.2281,
      "velocity": 119,
      "chip": "ym2612"
    },
    {
      "channel": 1,
      "note": 64,
      "start": 9.1159,
      "duration": 0.2281,
      "velocity": 119,
      "chip": "ym2612"
    },
    {
      "channel": 2,
      "note": 52,
      "start": 9.1186,
      "duration": 0.1132,
      "velocity": 112,
      "chip": "ym2612"
    },
    {
      "channel": 3,
      "note": 73,
      "start": 9.1193,
      "duration": 0.2256,
      "velocity": 119,
      "chip": "ym2612"
    },
    {
      "channel": 5,
      "note": 74,
      "start": 9.122,
      "duration": 0.0434,
      "velocity": 127,
      "chip": "ym2612"
    },
    {
      "channel": 5,
      "note": 74,
      "start": 9.1657,
      "duration": 0.1806,
      "velocity": 127,
      "chip": "ym2612"
    },
    {
      "channel": 2,
      "note": 57,
      "start": 9.232,
      "duration": 0.4854,
      "velocity": 112,
      "chip": "ym2612"
    },
    {
      "channel": 0,
      "note": 69,
      "start": 9.3436,
      "duration": 0.3685,
      "velocity": 119,
      "chip": "ym2612"
    },
    {
      "channel": 1,
      "note": 64,
      "start": 9.3443,
      "duration": 0.3705,
      "velocity": 119,
      "chip": "ym2612"
    },
    {
      "channel": 3,
      "note": 73,
      "start": 9.3451,
      "duration": 0.3749,
      "velocity": 119,
      "chip": "ym2612"
    },
    {
      "channel": 4,
      "note": 69,
      "start": 9.3458,
      "duration": 0.0646,
      "velocity": 119,
      "chip": "ym2612"
    },
    {
      "channel": 5,
      "note": 74,
      "start": 9.3466,
      "duration": 0.1158,
      "velocity": 127,
      "chip": "ym2612"
    },
    {
      "channel": 4,
      "note": 76,
      "start": 9.4106,
      "duration": 0.3101,
      "velocity": 119,
      "chip": "ym2612"
    },
    {
      "channel": 5,
      "note": 38,
      "start": 9.4626,
      "duration": 0.2588,
      "velocity": 127,
      "chip": "ym2612"
    },
    {
      "channel": 0,
      "note": 71,
      "start": 9.7123,
      "duration": 0.3497,
      "velocity": 119,
      "chip": "ym2612"
    },
    {
      "channel": 1,
      "note": 62,
      "start": 9.7149,
      "duration": 0.3498,
      "velocity": 119,
      "chip": "ym2612"
    },
    {
      "channel": 2,
      "note": 57,
      "start": 9.7176,
      "duration": 0.3478,
      "velocity": 112,
      "chip": "ym2612"
    },
    {
      "channel": 3,
      "note": 67,
      "start": 9.7203,
      "duration": 0.3478,
      "velocity": 119,
      "chip": "ym2612"
    },
    {
      "channel": 4,
      "note": 76,
      "start": 9.721,
      "duration": 0.106,
      "velocity": 119,
      "chip": "ym2612"
    },
    {
      "channel": 5,
      "note": 55,
      "start": 9.7217,
      "duration": 0.1079,
      "velocity": 127,
      "chip": "ym2612"
    },
    {
      "channel": 4,
      "note": 74,
      "start": 9.8271,
      "duration": 0.375,
      "velocity": 119,
      "chip": "ym2612"
    },
    {
      "channel": 5,
      "note": 74,
      "start": 9.8298,
      "duration": 0.239,
      "velocity": 127,
      "chip": "ym2612"
    },
    {
      "channel": 0,
      "note": 69,
      "start": 10.0623,
      "duration": 0.1331,
      "velocity": 119,
      "chip": "ym2612"
    },
    {
      "channel": 1,
      "note": 61,
      "start": 10.0649,
      "duration": 0.1332,
      "velocity": 119,
      "chip": "ym2612"
    },
    {
      "channel": 2,
      "note": 57,
      "start": 10.0656,
      "duration": 0.1332,
      "velocity": 112,
      "chip": "ym2612"
    },
    {
      "channel": 3,
      "note": 64,
      "start": 10.0683,
      "duration": 0.1332,
      "velocity": 119,
      "chip": "ym2612"
    },
    {
      "channel": 5,
      "note": 74,
      "start": 10.0691,
      "duration": 0.1357,
      "velocity": 127,
      "chip": "ym2612"
    },
    {
      "channel": 0,
      "note": 71,
      "start": 10.1956,
      "duration": 0.2331,
      "velocity": 119,
      "chip": "ym2612"
    },
    {
      "channel": 1,
      "note": 62,
      "start": 10.1983,
      "duration": 0.2331,
      "velocity": 119,
      "chip": "ym2612"
    },
    {
      "channel": 2,
      "note": 52,
      "start": 10.199,
      "duration": 0.3447,
      "velocity": 112,
      "chip": "ym2612"
    },
    {
      "channel": 3,
      "note": 67,
      "start": 10.2016,
      "duration": 0.2324,
      "velocity": 119,
      "chip": "ym2612"
    },
    {
      "channel": 4,
      "note": 71,
      "start": 10.2023,
      "duration": 0.0414,
      "velocity": 119,
      "chip": "ym2612"
    },
    {
      "channel": 5,
      "note": 38,
      "start": 10.205,
      "duration": 0.2318,
      "velocity": 127,
      "chip": "ym2612"
    },
    {
      "channel": 4,
      "note": 73,
      "start": 10.244,
      "duration": 0.4339,
      "velocity": 119,
      "chip": "ym2612"
    },
    {
      "channel": 0,
      "note": 69,
      "start": 10.4289,
      "duration": 0.2429,
      "velocity": 119,
      "chip": "ym2612"
    },
    {
      "channel": 1,
      "note": 61,
      "start": 10.4315,
      "duration": 0.241,
      "velocity": 119,
      "chip": "ym2612"
    },
    {
      "channel": 3,
      "note": 64,
      "start": 10.4343,
      "duration": 0.2409,
      "velocity": 119,
      "chip": "ym2612"
    },
    {
      "channel": 5,
      "note": 74,
      "start": 10.4371,
      "duration": 0.0568,
      "velocity": 127,
      "chip": "ym2612"
    },
    {
      "channel": 5,
      "note": 74,
      "start": 10.4941,
      "duration": 0.1846,
      "velocity": 127,
      "chip": "ym2612"
    },
    {
      "channel": 2,
      "note": 45,
      "start": 10.5439,
      "duration": 0.4812,
      "velocity": 112,
      "chip": "ym2612"
    },
    {
      "channel": 0,
      "note": 69,
      "start": 10.672,
      "duration": 0.0497,
      "velocity": 119,
      "chip": "ym2612"
    },
    {
      "channel": 1,
      "note": 64,
      "start": 10.6728,
      "duration": 0.1163,
      "velocity": 119,
      "chip": "ym2612"
    },
    {
      "channel": 3,
      "note": 69,
      "start": 10.6755,
      "duration": 0.0471,
      "velocity": 119,
      "chip": "ym2612"
    },
    {
      "channel": 4,
      "note": 73,
      "start": 10.6782,
      "duration": 0.0451,
      "velocity": 119,
      "chip": "ym2612"
    },
    {
      "channel": 5,
      "note": 74,
      "start": 10.6789,
      "duration": 0.045,
      "velocity": 127,
      "chip": "ym2612"
    },
    {
      "channel": 0,
      "note": 69,
      "start": 10.7219,
      "duration": 0.0665,
      "velocity": 119,
      "chip": "ym2612"
    },
    {
      "channel": 3,
      "note": 76,
      "start": 10.7228,
      "duration": 0.303,
      "velocity": 119,
      "chip": "ym2612"
    },
    {
      "channel": 4,
      "note": 73,
      "start": 10.7235,
      "duration": 0.0665,
      "velocity": 119,
      "chip": "ym2612"
    },
    {
      "channel": 5,
      "note": 74,
      "start": 10.7242,
      "duration": 0.0684,
      "velocity": 127,
      "chip": "ym2612"
    },
    {
      "channel": 0,
      "note": 69,
      "start": 10.7885,
      "duration": 0.2332,
      "velocity": 119,
      "chip": "ym2612"
    },
    {
      "channel": 1,
      "note": 64,
      "start": 10.7893,
      "duration": 0.2332,
      "velocity": 119,
      "chip": "ym2612"
    },
    {
      "channel": 4,
      "note": 73,
      "start": 10.7901,
      "duration": 0.2363,
      "velocity": 119,
      "chip": "ym2612"
    },
    {
      "channel": 5,
      "note": 38,
      "start": 10.7928,
      "duration": 0.2344,
      "velocity": 127,
      "chip": "ym2612"
    },
    {
      "channel": 0,
      "note": 69,
      "start": 11.022,
      "duration": 0.3664,
      "velocity": 119,
      "chip": "ym2612"
    },
    {
      "channel": 1,
      "note": 64,
      "start": 11.0226,
      "duration": 0.3664,
      "velocity": 119,
      "chip": "ym2612"
    },
    {
      "channel": 2,
      "note": 57,
      "start": 11.0252,
      "duration": 0.1132,
      "velocity": 112,
      "chip": "ym2612"
    },
    {
      "channel": 3,
      "note": 76,
      "start": 11.026,
      "duration": 0.0627,
      "velocity": 119,
      "chip": "ym2612"
    },
    {
      "channel": 4,
      "note": 73,
      "start": 11.0267,
      "duration": 0.3632,
      "velocity": 119,
      "chip": "ym2612"
    },
    {
      "channel": 5,
      "note": 55,
      "start": 11.0274,
      "duration": 0.1145,
      "velocity": 127,
      "chip": "ym2612"
    },
    {
      "channel": 3,
      "note": 76,
      "start": 11.0889,
      "duration": 0.0503,
      "velocity": 119,
      "chip": "ym2612"
    },
    {
      "channel": 2,
      "note": 52,
      "start": 11.1387,
      "duration": 0.6031,
      "velocity": 112,
      "chip": "ym2612"
    },
    {
      "channel": 3,
      "note": 74,
      "start": 11.1394,
      "duration": 0.3672,
      "velocity": 119,
      "chip": "ym2612"
    },
    {
      "channel": 5,
      "note": 74,
      "start": 11.1421,
      "duration": 0.2485,
      "velocity": 127,
      "chip": "ym2612"
    },
    {
      "channel": 0,
      "note": 69,
      "start": 11.3885,
      "duration": 0.0498,
      "velocity": 119,
      "chip": "ym2612"
    },
    {
      "channel": 1,
      "note": 64,
      "start": 11.3893,
      "duration": 0.1165,
      "velocity": 119,
      "chip": "ym2612"
    },
    {
      "channel": 4,
      "note": 73,
      "start": 11.3901,
      "duration": 0.1171,
      "velocity": 119,
      "chip": "ym2612"
    },
    {
      "channel": 5,
      "note": 74,
      "start": 11.3908,
      "duration": 0.119,
      "velocity": 127,
      "chip": "ym2612"
    },
    {
      "channel": 0,
      "note": 69,
      "start": 11.4385,
      "duration": 0.0665,
      "velocity": 119,
      "chip": "ym2612"
    },
    {
      "channel": 0,
      "note": 69,
      "start": 11.5052,
      "duration": 0.2331,
      "velocity": 119,
      "chip": "ym2612"
    },
    {
      "channel": 1,
      "note": 64,
      "start": 11.5059,
      "duration": 0.2331,
      "velocity": 119,
      "chip": "ym2612"
    },
    {
      "channel": 3,
      "note": 69,
      "start": 11.5067,
      "duration": 0.0652,
      "velocity": 119,
      "chip": "ym2612"
    },
    {
      "channel": 4,
      "note": 73,
      "start": 11.5074,
      "duration": 0.2351,
      "velocity": 119,
      "chip": "ym2612"
    },
    {
      "channel": 5,
      "note": 38,
      "start": 11.5101,
      "duration": 0.2351,
      "velocity": 127,
      "chip": "ym2612"
    },
    {
      "channel": 3,
      "note": 73,
      "start": 11.5722,
      "duration": 0.7878,
      "velocity": 94,
      "chip": "ym2612"
    },
    {
      "channel": 0,
      "note": 69,
      "start": 11.7385,
      "duration": 0.2448,
      "velocity": 119,
      "chip": "ym2612"
    },
    {
      "channel": 1,
      "note": 64,
      "start": 11.7393,
      "duration": 0.2448,
      "velocity": 119,
      "chip": "ym2612"
    },
    {
      "channel": 2,
      "note": 52,
      "start": 11.7419,
      "duration": 0.1298,
      "velocity": 112,
      "chip": "ym2612"
    },
    {
      "channel": 4,
      "note": 73,
      "start": 11.7427,
      "duration": 0.2422,
      "velocity": 119,
      "chip": "ym2612"
    },
    {
      "channel": 5,
      "note": 74,
      "start": 11.7454,
      "duration": 0.0601,
      "velocity": 127,
      "chip": "ym2612"
    },
    {
      "channel": 5,
      "note": 74,
      "start": 11.8057,
      "duration": 0.1799,
      "velocity": 127,
      "chip": "ym2612"
    },
    {
      "channel": 2,
      "note": 57,
      "start": 11.872,
      "duration": 0.4854,
      "velocity": 112,
      "chip": "ym2612"
    },
    {
      "channel": 0,
      "note": 69,
      "start": 11.9835,
      "duration": 0.3685,
      "velocity": 119,
      "chip": "ym2612"
    },
    {
      "channel": 1,
      "note": 64,
      "start": 11.9842,
      "duration": 0.3705,
      "velocity": 119,
      "chip": "ym2612"
    },
    {
      "channel": 4,
      "note": 73,
      "start": 11.9851,
      "duration": 0.3776,
      "velocity": 119,
      "chip": "ym2612"
    },
    {
      "channel": 5,
      "note": 74,
      "start": 11.9859,
      "duration": 0.1164,
      "velocity": 127,
      "chip": "ym2612"
    },
    {
      "channel": 5,
      "note": 38,
      "start": 12.1025,
      "duration": 0.2609,
      "velocity": 127,
      "chip": "ym2612"
    },
    {
      "channel": 0,
      "note": 71,
      "start": 12.3522,
      "duration": 0.3498,
      "velocity": 119,
      "chip": "ym2612"
    },
    {
      "channel": 1,
      "note": 62,
      "start": 12.3549,
      "duration": 0.3498,
      "velocity": 119,
      "chip": "ym2612"
    },
    {
      "channel": 2,
      "note": 57,
      "start": 12.3576,
      "duration": 0.3478,
      "velocity": 112,
      "chip": "ym2612"
    },
    {
      "channel": 3,
      "note": 95,
      "start": 12.3602,
      "duration": 0.1066,
      "velocity": 94,
      "chip": "ym2612"
    },
    {
      "channel": 4,
      "note": 67,
      "start": 12.3628,
      "duration": 0.3473,
      "velocity": 93,
      "chip": "ym2612"
    },
    {
      "channel": 5,
      "note": 55,
      "start": 12.3636,
      "duration": 0.106,
      "velocity": 127,
      "chip": "ym2612"
    },
    {
      "channel": 3,
      "note": 96,
      "start": 12.467,
      "duration": 0.0498,
      "velocity": 94,
      "chip": "ym2612"
    },
    {
      "channel": 5,
      "note": 74,
      "start": 12.4698,
      "duration": 0.241,
      "velocity": 127,
      "chip": "ym2612"
    },
    {
      "channel": 3,
      "note": 97,
      "start": 12.517,
      "duration": 0.3077,
      "velocity": 94,
      "chip": "ym2612"
    },
    {
      "channel": 0,
      "note": 69,
      "start": 12.7022,
      "duration": 0.1165,
      "velocity": 119,
      "chip": "ym2612"
    },
    {
      "channel": 1,
      "note": 61,
      "start": 12.7049,
      "duration": 0.1165,
      "velocity": 119,
      "chip": "ym2612"
    },
    {
      "channel": 2,
      "note": 57,
      "start": 12.7056,
      "duration": 0.1165,
      "velocity": 112,
      "chip": "ym2612"
    },
    {
      "channel": 4,
      "note": 95,
      "start": 12.7103,
      "duration": 0.1151,
      "velocity": 93,
      "chip": "ym2612"
    },
    {
      "channel": 5,
      "note": 74,
      "start": 12.7111,
      "duration": 0.117,
      "velocity": 127,
      "chip": "ym2612"
    },
    {
      "channel": 0,
      "note": 71,
      "start": 12.8189,
      "duration": 0.2497,
      "velocity": 119,
      "chip": "ym2612"
    },
    {
      "channel": 1,
      "note": 62,
      "start": 12.8215,
      "duration": 0.2498,
      "velocity": 119,
      "chip": "ym2612"
    },
    {
      "channel": 2,
      "note": 52,
      "start": 12.8222,
      "duration": 0.3653,
      "velocity": 112,
      "chip": "ym2612"
    },
    {
      "channel": 3,
      "note": 96,
      "start": 12.8249,
      "duration": 0.0587,
      "velocity": 94,
      "chip": "ym2612"
    },
    {
      "channel": 4,
      "note": 96,
      "start": 12.8256,
      "duration": 0.0587,
      "velocity": 93,
      "chip": "ym2612"
    },
    {
      "channel": 5,
      "note": 38,
      "start": 12.8284,
      "duration": 0.2458,
      "velocity": 127,
      "chip": "ym2612"
    },
    {
      "channel": 3,
      "note": 97,
      "start": 12.8838,
      "duration": 0.3045,
      "velocity": 94,
      "chip": "ym2612"
    },
    {
      "channel": 4,
      "note": 97,
      "start": 12.8845,
      "duration": 0.3046,
      "velocity": 93,
      "chip": "ym2612"
    },
    {
      "channel": 0,
      "note": 69,
      "start": 13.0688,
      "duration": 0.5947,
      "velocity": 102,
      "chip": "ym2612"
    },
    {
      "channel": 1,
      "note": 61,
      "start": 13.0715,
      "duration": 0.7088,
      "velocity": 102,
      "chip": "ym2612"
    },
    {
      "channel": 5,
      "note": 74,
      "start": 13.0744,
      "duration": 0.0427,
      "velocity": 127,
      "chip": "ym2612"
    },
    {
      "channel": 5,
      "note": 74,
      "start": 13.1173,
      "duration": 0.1786,
      "velocity": 127,
      "chip": "ym2612"
    },
    {
      "channel": 2,
      "note": 50,
      "start": 13.1878,
      "duration": 0.4766,
      "velocity": 112,
      "chip": "ym2612"
    },
    {
      "channel": 3,
      "note": 95,
      "start": 13.1885,
      "duration": 0.1066,
      "velocity": 94,
      "chip": "ym2612"
    },
    {
      "channel": 4,
      "note": 96,
      "start": 13.1893,
      "duration": 0.0007,
      "velocity": 93,
      "chip": "ym2612"
    },
    {
      "channel": 4,
      "note": 97,
      "start": 13.1902,
      "duration": 0.2384,
      "velocity": 93,
      "chip": "ym2612"
    },
    {
      "channel": 3,
      "note": 93,
      "start": 13.2953,
      "duration": 0.8524,
      "velocity": 94,
      "chip": "ym2612"
    },
    {
      "channel": 5,
      "note": 74,
      "start": 13.2962,
      "duration": 0.0657,
      "velocity": 127,
      "chip": "ym2612"
    },
    {
      "channel": 5,
      "note": 74,
      "start": 13.3622,
      "duration": 0.069,
      "velocity": 127,
      "chip": "ym2612"
    },
    {
      "channel": 4,
      "note": 95,
      "start": 13.4287,
      "duration": 0.2384,
      "velocity": 93,
      "chip": "ym2612"
    },
    {
      "channel": 5,
      "note": 38,
      "start": 13.4314,
      "duration": 0.2364,
      "velocity": 127,
      "chip": "ym2612"
    },
    {
      "channel": 0,
      "note": 62,
      "start": 13.6638,
      "duration": 0.3644,
      "velocity": 102,
      "chip": "ym2612"
    },
    {
      "channel": 2,
      "note": 50,
      "start": 13.6646,
      "duration": 0.1164,
      "velocity": 112,
      "chip": "ym2612"
    },
    {
      "channel": 4,
      "note": 93,
      "start": 13.6673,
      "duration": 0.8292,
      "velocity": 93,
      "chip": "ym2612"
    },
    {
      "channel": 5,
      "note": 55,
      "start": 13.6681,
      "duration": 0.1157,
      "velocity": 127,
      "chip": "ym2612"
    },
    {
      "channel": 1,
      "note": 66,
      "start": 13.7805,
      "duration": 4.9136,
      "velocity": 102,
      "chip": "ym2612"
    },
    {
      "channel": 2,
      "note": 50,
      "start": 13.7812,
      "duration": 0.3639,
      "velocity": 112,
      "chip": "ym2612"
    },
    {
      "channel": 5,
      "note": 74,
      "start": 13.7841,
      "duration": 0.2451,
      "velocity": 127,
      "chip": "ym2612"
    },
    {
      "channel": 0,
      "note": 67,
      "start": 14.0284,
      "duration": 0.3498,
      "velocity": 102,
      "chip": "ym2612"
    },
    {
      "channel": 5,
      "note": 74,
      "start": 14.0295,
      "duration": 0.121,
      "velocity": 127,
      "chip": "ym2612"
    },
    {
      "channel": 2,
      "note": 57,
      "start": 14.1452,
      "duration": 0.3498,
      "velocity": 112,
      "chip": "ym2612"
    },
    {
      "channel": 3,
      "note": 89,
      "start": 14.1479,
      "duration": 0.0472,
      "velocity": 94,
      "chip": "ym2612"
    },
    {
      "channel": 5,
      "note": 38,
      "start": 14.1507,
      "duration": 0.2305,
      "velocity": 127,
      "chip": "ym2612"
    },
    {
      "channel": 3,
      "note": 90,
      "start": 14.1954,
      "duration": 0.3004,
      "velocity": 94,
      "chip": "ym2612"
    },
    {
      "channel": 0,
      "note": 69,
      "start": 14.3784,
      "duration": 1.9249,
      "velocity": 94,
      "chip": "ym2612"
    },
    {
      "channel": 5,
      "note": 74,
      "start": 14.3814,
      "duration": 0.0639,
      "velocity": 127,
      "chip": "ym2612"
    },
    {
      "channel": 5,
      "note": 74,
      "start": 14.4455,
      "duration": 0.1786,
      "velocity": 127,
      "chip": "ym2612"
    },
    {
      "channel": 2,
      "note": 62,
      "start": 14.4952,
      "duration": 0.478,
      "velocity": 112,
      "chip": "ym2612"
    },
    {
      "channel": 3,
      "note": 88,
      "start": 14.496,
      "duration": 0.1273,
      "velocity": 94,
      "chip": "ym2612"
    },
    {
      "channel": 4,
      "note": 89,
      "start": 14.4968,
      "duration": 0.0005,
      "velocity": 93,
      "chip": "ym2612"
    },
    {
      "channel": 4,
      "note": 90,
      "start": 14.4975,
      "duration": 0.2425,
      "velocity": 93,
      "chip": "ym2612"
    },
    {
      "channel": 3,
      "note": 90,
      "start": 14.6235,
      "duration": 0.2331,
      "velocity": 94,
      "chip": "ym2612"
    },
    {
      "channel": 5,
      "note": 74,
      "start": 14.6244,
      "duration": 0.1183,
      "velocity": 127,
      "chip": "ym2612"
    },
    {
      "channel": 4,
      "note": 88,
      "start": 14.7402,
      "duration": 0.2338,
      "velocity": 93,
      "chip": "ym2612"
    },
    {
      "channel": 5,
      "note": 38,
      "start": 14.7429,
      "duration": 0.2318,
      "velocity": 127,
      "chip": "ym2612"
    },
    {
      "channel": 3,
      "note": 93,
      "start": 14.8568,
      "duration": 0.2498,
      "velocity": 94,
      "chip": "ym2612"
    },
    {
      "channel": 2,
      "note": 62,
      "start": 14.9734,
      "duration": 0.4832,
      "velocity": 112,
      "chip": "ym2612"
    },
    {
      "channel": 4,
      "note": 90,
      "start": 14.9742,
      "duration": 0.2491,
      "velocity": 93,
      "chip": "ym2612"
    },
    {
      "channel": 5,
      "note": 55,
      "start": 14.9749,
      "duration": 0.1344,
      "velocity": 127,
      "chip": "ym2612"
    },
    {
      "channel": 3,
      "note": 95,
      "start": 15.1068,
      "duration": 0.2332,
      "velocity": 94,
      "chip": "ym2612"
    },
    {
      "channel": 5,
      "note": 74,
      "start": 15.1095,
      "duration": 0.2312,
      "velocity": 127,
      "chip": "ym2612"
    },
    {
      "channel": 4,
      "note": 93,
      "start": 15.2235,
      "duration": 0.2338,
      "velocity": 93,
      "chip": "ym2612"
    },
    {
      "channel": 3,
      "note": 96,
      "start": 15.3401,
      "duration": 0.2331,
      "velocity": 94,
      "chip": "ym2612"
    },
    {
      "channel": 5,
      "note": 74,
      "start": 15.341,
      "duration": 0.119,
      "velocity": 127,
      "chip": "ym2612"
    },
    {
      "channel": 2,
      "note": 54,
      "start": 15.4567,
      "duration": 0.3667,
      "velocity": 112,
      "chip": "ym2612"
    },
    {
      "channel": 4,
      "note": 95,
      "start": 15.4576,
      "duration": 0.2491,
      "velocity": 93,
      "chip": "ym2612"
    },
    {
      "channel": 5,
      "note": 38,
      "start": 15.4602,
      "duration": 0.2491,
      "velocity": 127,
      "chip": "ym2612"
    },
    {
      "channel": 3,
      "note": 95,
      "start": 15.5734,
      "duration": 0.2508,
      "velocity": 94,
      "chip": "ym2612"
    },
    {
      "channel": 4,
      "note": 96,
      "start": 15.7069,
      "duration": 0.1182,
      "velocity": 93,
      "chip": "ym2612"
    },
    {
      "channel": 5,
      "note": 74,
      "start": 15.7095,
      "duration": 0.0473,
      "velocity": 127,
      "chip": "ym2612"
    },
    {
      "channel": 5,
      "note": 74,
      "start": 15.7571,
      "duration": 0.1779,
      "velocity": 127,
      "chip": "ym2612"
    },
    {
      "channel": 2,
      "note": 57,
      "start": 15.8236,
      "duration": 0.4804,
      "velocity": 112,
      "chip": "ym2612"
    },
    {
      "channel": 3,
      "note": 93,
      "start": 15.8244,
      "duration": 0.4823,
      "velocity": 94,
      "chip": "ym2612"
    },
    {
      "channel": 4,
      "note": 95,
      "start": 15.8253,
      "duration": 0.2282,
      "velocity": 93,
      "chip": "ym2612"
    },
    {
      "channel": 5,
      "note": 74,
      "start": 15.9352,
      "duration": 0.0663,
      "velocity": 127,
      "chip": "ym2612"
    },
    {
      "channel": 5,
      "note": 74,
      "start": 16.0018,
      "duration": 0.0544,
      "velocity": 127,
      "chip": "ym2612"
    },
    {
      "channel": 4,
      "note": 93,
      "start": 16.0538,
      "duration": 0.5991,
      "velocity": 93,
      "chip": "ym2612"
    },
    {
      "channel": 5,
      "note": 38,
      "start": 16.0564,
      "duration": 0.2511,
      "velocity": 127,
      "chip": "ym2612"
    },
    {
      "channel": 0,
      "note": 72,
      "start": 16.3034,
      "duration": 0.1144,
      "velocity": 94,
      "chip": "ym2612"
    },
    {
      "channel": 2,
      "note": 57,
      "start": 16.3042,
      "duration": 0.7146,
      "velocity": 112,
      "chip": "ym2612"
    },
    {
      "channel": 3,
      "note": 102,
      "start": 16.3069,
      "duration": 0.1119,
      "velocity": 94,
      "chip": "ym2612"
    },
    {
      "channel": 5,
      "note": 55,
      "start": 16.3077,
      "duration": 0.1138,
      "velocity": 127,
      "chip": "ym2612"
    },
    {
      "channel": 0,
      "note": 73,
      "start": 16.4181,
      "duration": 0.2332,
      "velocity": 94,
      "chip": "ym2612"
    },
    {
      "channel": 3,
      "note": 100,
      "start": 16.419,
      "duration": 0.2332,
      "velocity": 94,
      "chip": "ym2612"
    },
    {
      "channel": 5,
      "note": 74,
      "start": 16.4218,
      "duration": 0.2318,
      "velocity": 127,
      "chip": "ym2612"
    },
    {
      "channel": 0,
      "note": 76,
      "start": 16.6515,
      "duration": 0.1331,
      "velocity": 94,
      "chip": "ym2612"
    },
    {
      "channel": 3,
      "note": 95,
      "start": 16.6524,
      "duration": 0.1367,
      "velocity": 94,
      "chip": "ym2612"
    },
    {
      "channel": 4,
      "note": 102,
      "start": 16.6531,
      "duration": 0.1326,
      "velocity": 93,
      "chip": "ym2612"
    },
    {
      "channel": 5,
      "note": 74,
      "start": 16.6538,
      "duration": 0.1345,
      "velocity": 127,
      "chip": "ym2612"
    },
    {
      "channel": 0,
      "note": 78,
      "start": 16.7848,
      "duration": 0.2331,
      "velocity": 94,
      "chip": "ym2612"
    },
    {
      "channel": 4,
      "note": 100,
      "start": 16.7859,
      "duration": 0.2343,
      "velocity": 93,
      "chip": "ym2612"
    },
    {
      "channel": 5,
      "note": 38,
      "start": 16.7885,
      "duration": 0.2342,
      "velocity": 127,
      "chip": "ym2612"
    },
    {
      "channel": 3,
      "note": 95,
      "start": 16.7891,
      "duration": 0.0118,
      "velocity": 94,
      "chip": "ym2612"
    },
    {
      "channel": 3,
      "note": 95,
      "start": 16.8009,
      "duration": 0.0167,
      "velocity": 94,
      "chip": "ym2612"
    },
    {
      "channel": 3,
      "note": 96,
      "start": 16.8176,
      "duration": 0.0333,
      "velocity": 94,
      "chip": "ym2612"
    },
    {
      "channel": 3,
      "note": 96,
      "start": 16.8509,
      "duration": 0.0333,
      "velocity": 94,
      "chip": "ym2612"
    },
    {
      "channel": 3,
      "note": 96,
      "start": 16.8842,
      "duration": 0.0333,
      "velocity": 94,
      "chip": "ym2612"
    },
    {
      "channel": 3,
      "note": 96,
      "start": 16.9176,
      "duration": 0.0167,
      "velocity": 94,
      "chip": "ym2612"
    },
    {
      "channel": 3,
      "note": 96,
      "start": 16.9342,
      "duration": 0.05,
      "velocity": 94,
      "chip": "ym2612"
    },
    {
      "channel": 3,
      "note": 96,
      "start": 16.9842,
      "duration": 0.0167,
      "velocity": 94,
      "chip": "ym2612"
    },
    {
      "channel": 3,
      "note": 97,
      "start": 17.0009,
      "duration": 0.0186,
      "velocity": 94,
      "chip": "ym2612"
    },
    {
      "channel": 0,
      "note": 76,
      "start": 17.0181,
      "duration": 0.1164,
      "velocity": 94,
      "chip": "ym2612"
    },
    {
      "channel": 2,
      "note": 60,
      "start": 17.019,
      "duration": 0.1194,
      "velocity": 112,
      "chip": "ym2612"
    },
    {
      "channel": 3,
      "note": 93,
      "start": 17.0197,
      "duration": 0.2484,
      "velocity": 94,
      "chip": "ym2612"
    },
    {
      "channel": 4,
      "note": 95,
      "start": 17.0204,
      "duration": 0.1175,
      "velocity": 93,
      "chip": "ym2612"
    },
    {
      "channel": 5,
      "note": 74,
      "start": 17.023,
      "duration": 0.062,
      "velocity": 127,
      "chip": "ym2612"
    },
    {
      "channel": 5,
      "note": 74,
      "start": 17.0853,
      "duration": 0.1842,
      "velocity": 127,
      "chip": "ym2612"
    },
    {
      "channel": 0,
      "note": 81,
      "start": 17.1348,
      "duration": 0.247,
      "velocity": 94,
      "chip": "ym2612"
    },
    {
      "channel": 4,
      "note": 95,
      "start": 17.1379,
      "duration": 0.0002,
      "velocity": 93,
      "chip": "ym2612"
    },
    {
      "channel": 4,
      "note": 95,
      "start": 17.1381,
      "duration": 0.0001,
      "velocity": 93,
      "chip": "ym2612"
    },
    {
      "channel": 4,
      "note": 96,
      "start": 17.1382,
      "duration": 0.0003,
      "velocity": 93,
      "chip": "ym2612"
    },
    {
      "channel": 2,
      "note": 60,
      "start": 17.1383,
      "duration": 0.0004,
      "velocity": 112,
      "chip": "ym2612"
    },
    {
      "channel": 4,
      "note": 96,
      "start": 17.1385,
      "duration": 0.0004,
      "velocity": 93,
      "chip": "ym2612"
    },
    {
      "channel": 2,
      "note": 60,
      "start": 17.1387,
      "duration": 0.0005,
      "velocity": 112,
      "chip": "ym2612"
    },
    {
      "channel": 4,
      "note": 96,
      "start": 17.1389,
      "duration": 0.0005,
      "velocity": 93,
      "chip": "ym2612"
    },
    {
      "channel": 2,
      "note": 61,
      "start": 17.1391,
      "duration": 0.0236,
      "velocity": 112,
      "chip": "ym2612"
    },
    {
      "channel": 4,
      "note": 96,
      "start": 17.1394,
      "duration": 0.0238,
      "velocity": 93,
      "chip": "ym2612"
    },
    {
      "channel": 2,
      "note": 61,
      "start": 17.1627,
      "duration": 0.0167,
      "velocity": 112,
      "chip": "ym2612"
    },
    {
      "channel": 4,
      "note": 96,
      "start": 17.1631,
      "duration": 0.0167,
      "velocity": 93,
      "chip": "ym2612"
    },
    {
      "channel": 2,
      "note": 61,
      "start": 17.1794,
      "duration": 0.0333,
      "velocity": 112,
      "chip": "ym2612"
    },
    {
      "channel": 4,
      "note": 96,
      "start": 17.1798,
      "duration": 0.0333,
      "velocity": 93,
      "chip": "ym2612"
    },
    {
      "channel": 2,
      "note": 61,
      "start": 17.2127,
      "duration": 0.0167,
      "velocity": 112,
      "chip": "ym2612"
    },
    {
      "channel": 4,
      "note": 97,
      "start": 17.2131,
      "duration": 0.0167,
      "velocity": 93,
      "chip": "ym2612"
    },
    {
      "channel": 2,
      "note": 61,
      "start": 17.2294,
      "duration": 0.0359,
      "velocity": 112,
      "chip": "ym2612"
    },
    {
      "channel": 4,
      "note": 97,
      "start": 17.2298,
      "duration": 0.0389,
      "velocity": 93,
      "chip": "ym2612"
    },
    {
      "channel": 2,
      "note": 64,
      "start": 17.2656,
      "duration": 0.117,
      "velocity": 112,
      "chip": "ym2612"
    },
    {
      "channel": 3,
      "note": 88,
      "start": 17.2682,
      "duration": 0.115,
      "velocity": 94,
      "chip": "ym2612"
    },
    {
      "channel": 4,
      "note": 93,
      "start": 17.2689,
      "duration": 0.3484,
      "velocity": 93,
      "chip": "ym2612"
    },
    {
      "channel": 5,
      "note": 74,
      "start": 17.2698,
      "duration": 0.1162,
      "velocity": 127,
      "chip": "ym2612"
    },
    {
      "channel": 0,
      "note": 81,
      "start": 17.382,
      "duration": 0.2331,
      "velocity": 94,
      "chip": "ym2612"
    },
    {
      "channel": 2,
      "note": 66,
      "start": 17.3827,
      "duration": 0.2332,
      "velocity": 112,
      "chip": "ym2612"
    },
    {
      "channel": 3,
      "note": 90,
      "start": 17.3834,
      "duration": 0.2332,
      "velocity": 94,
      "chip": "ym2612"
    },
    {
      "channel": 5,
      "note": 38,
      "start": 17.3862,
      "duration": 0.2318,
      "velocity": 127,
      "chip": "ym2612"
    },
    {
      "channel": 0,
      "note": 81,
      "start": 17.6154,
      "duration": 0.1144,
      "velocity": 94,
      "chip": "ym2612"
    },
    {
      "channel": 2,
      "note": 64,
      "start": 17.6161,
      "duration": 0.1145,
      "velocity": 112,
      "chip": "ym2612"
    },
    {
      "channel": 3,
      "note": 93,
      "start": 17.6168,
      "duration": 0.1145,
      "velocity": 94,
      "chip": "ym2612"
    },
    {
      "channel": 4,
      "note": 88,
      "start": 17.6175,
      "duration": 0.1145,
      "velocity": 93,
      "chip": "ym2612"
    },
    {
      "channel": 5,
      "note": 55,
      "start": 17.6182,
      "duration": 0.1164,
      "velocity": 127,
      "chip": "ym2612"
    },
    {
      "channel": 0,
      "note": 77,
      "start": 17.73,
      "duration": 0.0665,
      "velocity": 94,
      "chip": "ym2612"
    },
    {
      "channel": 2,
      "note": 69,
      "start": 17.7308,
      "duration": 0.2515,
      "velocity": 112,
      "chip": "ym2612"
    },
    {
      "channel": 3,
      "note": 96,
      "start": 17.7315,
      "duration": 0.0659,
      "velocity": 94,
      "chip": "ym2612"
    },
    {
      "channel": 4,
      "note": 90,
      "start": 17.7322,
      "duration": 0.2487,
      "velocity": 93,
      "chip": "ym2612"
    },
    {
      "channel": 5,
      "note": 74,
      "start": 17.7349,
      "duration": 0.2467,
      "velocity": 127,
      "chip": "ym2612"
    },
    {
      "channel": 0,
      "note": 78,
      "start": 17.7967,
      "duration": 0.1831,
      "velocity": 94,
      "chip": "ym2612"
    },
    {
      "channel": 3,
      "note": 97,
      "start": 17.7976,
      "duration": 0.3005,
      "velocity": 94,
      "chip": "ym2612"
    },
    {
      "channel": 0,
      "note": 76,
      "start": 17.98,
      "duration": 0.1165,
      "velocity": 94,
      "chip": "ym2612"
    },
    {
      "channel": 4,
      "note": 93,
      "start": 17.9811,
      "duration": 0.1176,
      "velocity": 93,
      "chip": "ym2612"
    },
    {
      "channel": 5,
      "note": 74,
      "start": 17.9818,
      "duration": 0.1195,
      "velocity": 127,
      "chip": "ym2612"
    },
    {
      "channel": 2,
      "note": 68,
      "start": 17.9823,
      "duration": 0.0138,
      "velocity": 112,
      "chip": "ym2612"
    },
    {
      "channel": 2,
      "note": 68,
      "start": 17.9961,
      "duration": 0.0167,
      "velocity": 112,
      "chip": "ym2612"
    },
    {
      "channel": 2,
      "note": 67,
      "start": 18.0128,
      "duration": 0.0499,
      "velocity": 112,
      "chip": "ym2612"
    },
    {
      "channel": 2,
      "note": 67,
      "start": 18.0627,
      "duration": 0.0167,
      "velocity": 112,
      "chip": "ym2612"
    },
    {
      "channel": 2,
      "note": 66,
      "start": 18.0794,
      "duration": 0.0179,
      "velocity": 112,
      "chip": "ym2612"
    },
    {
      "channel": 0,
      "note": 77,
      "start": 18.0967,
      "duration": 0.0665,
      "velocity": 94,
      "chip": "ym2612"
    },
    {
      "channel": 2,
      "note": 66,
      "start": 18.0975,
      "duration": 0.2331,
      "velocity": 112,
      "chip": "ym2612"
    },
    {
      "channel": 3,
      "note": 96,
      "start": 18.0982,
      "duration": 0.0659,
      "velocity": 94,
      "chip": "ym2612"
    },
    {
      "channel": 4,
      "note": 96,
      "start": 18.0989,
      "duration": 0.0659,
      "velocity": 93,
      "chip": "ym2612"
    },
    {
      "channel": 5,
      "note": 38,
      "start": 18.1016,
      "duration": 0.2324,
      "velocity": 127,
      "chip": "ym2612"
    },
    {
      "channel": 0,
      "note": 78,
      "start": 18.1634,
      "duration": 0.1663,
      "velocity": 94,
      "chip": "ym2612"
    },
    {
      "channel": 3,
      "note": 97,
      "start": 18.1642,
      "duration": 0.1671,
      "velocity": 94,
      "chip": "ym2612"
    },
    {
      "channel": 4,
      "note": 97,
      "start": 18.165,
      "duration": 0.3006,
      "velocity": 93,
      "chip": "ym2612"
    },
    {
      "channel": 0,
      "note": 76,
      "start": 18.33,
      "duration": 0.1333,
      "velocity": 94,
      "chip": "ym2612"
    },
    {
      "channel": 2,
      "note": 64,
      "start": 18.3307,
      "duration": 0.1333,
      "velocity": 112,
      "chip": "ym2612"
    },
    {
      "channel": 3,
      "note": 97,
      "start": 18.3315,
      "duration": 0.1334,
      "velocity": 94,
      "chip": "ym2612"
    },
    {
      "channel": 5,
      "note": 74,
      "start": 18.3342,
      "duration": 0.0628,
      "velocity": 127,
      "chip": "ym2612"
    },
    {
      "channel": 5,
      "note": 74,
      "start": 18.3972,
      "duration": 0.1792,
      "velocity": 127,
      "chip": "ym2612"
    },
    {
      "channel": 0,
      "note": 74,
      "start": 18.4634,
      "duration": 0.2299,
      "velocity": 1,
      "chip": "ym2612"
    },
    {
      "channel": 2,
      "note": 50,
      "start": 18.4643,
      "duration": 0.4772,
      "velocity": 112,
      "chip": "ym2612"
    },
    {
      "channel": 3,
      "note": 95,
      "start": 18.4651,
      "duration": 0.1099,
      "velocity": 94,
      "chip": "ym2612"
    },
    {
      "channel": 4,
      "note": 96,
      "start": 18.4659,
      "duration": 0.0006,
      "velocity": 93,
      "chip": "ym2612"
    },
    {
      "channel": 4,
      "note": 97,
      "start": 18.4667,
      "duration": 0.1089,
      "velocity": 93,
      "chip": "ym2612"
    },
    {
      "channel": 3,
      "note": 93,
      "start": 18.5752,
      "duration": 1.203,
      "velocity": 94,
      "chip": "ym2612"
    },
    {
      "channel": 4,
      "note": 97,
      "start": 18.5759,
      "duration": 0.1191,
      "velocity": 93,
      "chip": "ym2612"
    },
    {
      "channel": 5,
      "note": 74,
      "start": 18.5766,
      "duration": 0.0691,
      "velocity": 127,
      "chip": "ym2612"
    },
    {
      "channel": 5,
      "note": 74,
      "start": 18.646,
      "duration": 0.0516,
      "velocity": 127,
      "chip": "ym2612"
    },
    {
      "channel": 0,
      "note": 67,
      "start": 18.6936,
      "duration": 1.1948,
      "velocity": 119,
      "chip": "ym2612"
    },
    {
      "channel": 1,
      "note": 78,
      "start": 18.6943,
      "duration": 0.5991,
      "velocity": 102,
      "chip": "ym2612"
    },
    {
      "channel": 4,
      "note": 95,
      "start": 18.6952,
      "duration": 0.249,
      "velocity": 93,
      "chip": "ym2612"
    },
    {
      "channel": 5,
      "note": 38,
      "start": 18.6979,
      "duration": 0.2471,
      "velocity": 127,
      "chip": "ym2612"
    },
    {
      "channel": 2,
      "note": 62,
      "start": 18.9417,
      "duration": 0.3524,
      "velocity": 112,
      "chip": "ym2612"
    },
    {
      "channel": 4,
      "note": 93,
      "start": 18.9445,
      "duration": 1.0802,
      "velocity": 93,
      "chip": "ym2612"
    },
    {
      "channel": 5,
      "note": 55,
      "start": 18.9452,
      "duration": 0.1171,
      "velocity": 127,
      "chip": "ym2612"
    },
    {
      "channel": 5,
      "note": 74,
      "start": 19.0626,
      "duration": 0.2324,
      "velocity": 127,
      "chip": "ym2612"
    },
    {
      "channel": 1,
      "note": 74,
      "start": 19.2936,
      "duration": 0.1144,
      "velocity": 102,
      "chip": "ym2612"
    },
    {
      "channel": 2,
      "note": 54,
      "start": 19.2943,
      "duration": 0.1144,
      "velocity": 112,
      "chip": "ym2612"
    },
    {
      "channel": 5,
      "note": 74,
      "start": 19.2952,
      "duration": 0.1164,
      "velocity": 127,
      "chip": "ym2612"
    },
    {
      "channel": 1,
      "note": 73,
      "start": 19.4083,
      "duration": 0.2498,
      "velocity": 102,
      "chip": "ym2612"
    },
    {
      "channel": 2,
      "note": 57,
      "start": 19.409,
      "duration": 0.2498,
      "velocity": 112,
      "chip": "ym2612"
    },
    {
      "channel": 5,
      "note": 38,
      "start": 19.4119,
      "duration": 0.2497,
      "velocity": 127,
      "chip": "ym2612"
    },
    {
      "channel": 1,
      "note": 74,
      "start": 19.6583,
      "duration": 0.1165,
      "velocity": 102,
      "chip": "ym2612"
    },
    {
      "channel": 2,
      "note": 58,
      "start": 19.659,
      "duration": 0.1165,
      "velocity": 112,
      "chip": "ym2612"
    },
    {
      "channel": 5,
      "note": 74,
      "start": 19.6619,
      "duration": 0.0466,
      "velocity": 127,
      "chip": "ym2612"
    },
    {
      "channel": 5,
      "note": 74,
      "start": 19.7087,
      "duration": 0.1807,
      "velocity": 127,
      "chip": "ym2612"
    },
    {
      "channel": 1,
      "note": 71,
      "start": 19.775,
      "duration": 1.3142,
      "velocity": 119,
      "chip": "ym2612"
    },
    {
      "channel": 2,
      "note": 59,
      "start": 19.7757,
      "duration": 0.4801,
      "velocity": 112,
      "chip": "ym2612"
    },
    {
      "channel": 3,
      "note": 90,
      "start": 19.7783,
      "duration": 0.2456,
      "velocity": 94,
      "chip": "ym2612"
    },
    {
      "channel": 0,
      "note": 73,
      "start": 19.8885,
      "duration": 0.3645,
      "velocity": 119,
      "chip": "ym2612"
    },
    {
      "channel": 5,
      "note": 74,
      "start": 19.8896,
      "duration": 0.1378,
      "velocity": 127,
      "chip": "ym2612"
    },
    {
      "channel": 3,
      "note": 93,
      "start": 20.0242,
      "duration": 0.3471,
      "velocity": 94,
      "chip": "ym2612"
    },
    {
      "channel": 4,
      "note": 90,
      "start": 20.025,
      "duration": 0.347,
      "velocity": 93,
      "chip": "ym2612"
    },
    {
      "channel": 5,
      "note": 38,
      "start": 20.0277,
      "duration": 0.2289,
      "velocity": 127,
      "chip": "ym2612"
    },
    {
      "channel": 0,
      "note": 73,
      "start": 20.2532,
      "duration": 0.1165,
      "velocity": 119,
      "chip": "ym2612"
    },
    {
      "channel": 2,
      "note": 59,
      "start": 20.2559,
      "duration": 0.1146,
      "velocity": 112,
      "chip": "ym2612"
    },
    {
      "channel": 5,
      "note": 55,
      "start": 20.2569,
      "duration": 0.1177,
      "velocity": 127,
      "chip": "ym2612"
    },
    {
      "channel": 0,
      "note": 71,
      "start": 20.3699,
      "duration": 0.0665,
      "velocity": 119,
      "chip": "ym2612"
    },
    {
      "channel": 2,
      "note": 50,
      "start": 20.3707,
      "duration": 0.3665,
      "velocity": 112,
      "chip": "ym2612"
    },
    {
      "channel": 3,
      "note": 96,
      "start": 20.3715,
      "duration": 0.0659,
      "velocity": 94,
      "chip": "ym2612"
    },
    {
      "channel": 4,
      "note": 93,
      "start": 20.3722,
      "duration": 0.3665,
      "velocity": 93,
      "chip": "ym2612"
    },
    {
      "channel": 5,
      "note": 74,
      "start": 20.3748,
      "duration": 0.2459,
      "velocity": 127,
      "chip": "ym2612"
    },
    {
      "channel": 0,
      "note": 73,
      "start": 20.4366,
      "duration": 0.1831,
      "velocity": 119,
      "chip": "ym2612"
    },
    {
      "channel": 3,
      "note": 97,
      "start": 20.4375,
      "duration": 0.3005,
      "velocity": 94,
      "chip": "ym2612"
    },
    {
      "channel": 0,
      "note": 71,
      "start": 20.6199,
      "duration": 0.1165,
      "velocity": 119,
      "chip": "ym2612"
    },
    {
      "channel": 5,
      "note": 74,
      "start": 20.621,
      "duration": 0.1203,
      "velocity": 127,
      "chip": "ym2612"
    },
    {
      "channel": 0,
      "note": 69,
      "start": 20.7366,
      "duration": 0.2331,
      "velocity": 119,
      "chip": "ym2612"
    },
    {
      "channel": 2,
      "note": 51,
      "start": 20.7374,
      "duration": 0.3525,
      "velocity": 112,
      "chip": "ym2612"
    },
    {
      "channel": 3,
      "note": 93,
      "start": 20.7381,
      "duration": 0.2324,
      "velocity": 94,
      "chip": "ym2612"
    },
    {
      "channel": 4,
      "note": 96,
      "start": 20.7388,
      "duration": 0.048,
      "velocity": 93,
      "chip": "ym2612"
    },
    {
      "channel": 5,
      "note": 38,
      "start": 20.7415,
      "duration": 0.2318,
      "velocity": 127,
      "chip": "ym2612"
    },
    {
      "channel": 4,
      "note": 97,
      "start": 20.787,
      "duration": 0.3039,
      "velocity": 93,
      "chip": "ym2612"
    },
    {
      "channel": 0,
      "note": 66,
      "start": 20.9699,
      "duration": 0.1167,
      "velocity": 119,
      "chip": "ym2612"
    },
    {
      "channel": 3,
      "note": 95,
      "start": 20.9707,
      "duration": 0.367,
      "velocity": 119,
      "chip": "ym2612"
    },
    {
      "channel": 5,
      "note": 74,
      "start": 20.9736,
      "duration": 0.0634,
      "velocity": 127,
      "chip": "ym2612"
    },
    {
      "channel": 5,
      "note": 74,
      "start": 21.0371,
      "duration": 0.1803,
      "velocity": 127,
      "chip": "ym2612"
    },
    {
      "channel": 0,
      "note": 64,
      "start": 21.0867,
      "duration": 0.2476,
      "velocity": 119,
      "chip": "ym2612"
    },
    {
      "channel": 1,
      "note": 76,
      "start": 21.0894,
      "duration": 0.0041,
      "velocity": 119,
      "chip": "ym2612"
    },
    {
      "channel": 2,
      "note": 52,
      "start": 21.0902,
      "duration": 0.4762,
      "velocity": 112,
      "chip": "ym2612"
    },
    {
      "channel": 4,
      "note": 93,
      "start": 21.091,
      "duration": 0.1256,
      "velocity": 93,
      "chip": "ym2612"
    },
    {
      "channel": 1,
      "note": 80,
      "start": 21.0937,
      "duration": 0.0053,
      "velocity": 119,
      "chip": "ym2612"
    },
    {
      "channel": 1,
      "note": 76,
      "start": 21.0992,
      "duration": 0.0498,
      "velocity": 119,
      "chip": "ym2612"
    },
    {
      "channel": 1,
      "note": 80,
      "start": 21.1492,
      "duration": 0.0665,
      "velocity": 119,
      "chip": "ym2612"
    },
    {
      "channel": 1,
      "note": 76,
      "start": 21.2159,
      "duration": 0.0497,
      "velocity": 119,
      "chip": "ym2612"
    },
    {
      "channel": 4,
      "note": 95,
      "start": 21.2168,
      "duration": 0.4903,
      "velocity": 1,
      "chip": "ym2612"
    },
    {
      "channel": 5,
      "note": 74,
      "start": 21.2176,
      "duration": 0.049,
      "velocity": 127,
      "chip": "ym2612"
    },
    {
      "channel": 1,
      "note": 80,
      "start": 21.2659,
      "duration": 0.0691,
      "velocity": 119,
      "chip": "ym2612"
    },
    {
      "channel": 5,
      "note": 74,
      "start": 21.2669,
      "duration": 0.0736,
      "velocity": 127,
      "chip": "ym2612"
    },
    {
      "channel": 0,
      "note": 64,
      "start": 21.3345,
      "duration": 0.3665,
      "velocity": 119,
      "chip": "ym2612"
    },
    {
      "channel": 1,
      "note": 76,
      "start": 21.3352,
      "duration": 0.2305,
      "velocity": 119,
      "chip": "ym2612"
    },
    {
      "channel": 3,
      "note": 76,
      "start": 21.3379,
      "duration": 0.3666,
      "velocity": 119,
      "chip": "ym2612"
    },
    {
      "channel": 5,
      "note": 38,
      "start": 21.3407,
      "duration": 0.2265,
      "velocity": 127,
      "chip": "ym2612"
    },
    {
      "channel": 1,
      "note": 75,
      "start": 21.5659,
      "duration": 0.0664,
      "velocity": 119,
      "chip": "ym2612"
    },
    {
      "channel": 2,
      "note": 52,
      "start": 21.5666,
      "duration": 0.1352,
      "velocity": 112,
      "chip": "ym2612"
    },
    {
      "channel": 5,
      "note": 55,
      "start": 21.5675,
      "duration": 0.1423,
      "velocity": 127,
      "chip": "ym2612"
    },
    {
      "channel": 1,
      "note": 76,
      "start": 21.6326,
      "duration": 0.2998,
      "velocity": 119,
      "chip": "ym2612"
    },
    {
      "channel": 0,
      "note": 66,
      "start": 21.7012,
      "duration": 0.3478,
      "velocity": 119,
      "chip": "ym2612"
    },
    {
      "channel": 2,
      "note": 54,
      "start": 21.702,
      "duration": 0.6005,
      "velocity": 112,
      "chip": "ym2612"
    },
    {
      "channel": 3,
      "note": 78,
      "start": 21.7047,
      "duration": 0.3458,
      "velocity": 119,
      "chip": "ym2612"
    },
    {
      "channel": 4,
      "note": 91,
      "start": 21.7074,
      "duration": 0.2278,
      "velocity": 94,
      "chip": "ym2612"
    },
    {
      "channel": 5,
      "note": 74,
      "start": 21.7101,
      "duration": 0.2258,
      "velocity": 127,
      "chip": "ym2612"
    },
    {
      "channel": 1,
      "note": 73,
      "start": 21.9326,
      "duration": 0.1171,
      "velocity": 119,
      "chip": "ym2612"
    },
    {
      "channel": 4,
      "note": 88,
      "start": 21.9354,
      "duration": 0.1159,
      "velocity": 94,
      "chip": "ym2612"
    },
    {
      "channel": 5,
      "note": 74,
      "start": 21.9361,
      "duration": 0.1177,
      "velocity": 127,
      "chip": "ym2612"
    },
    {
      "channel": 0,
      "note": 67,
      "start": 22.0492,
      "duration": 0.2518,
      "velocity": 119,
      "chip": "ym2612"
    },
    {
      "channel": 1,
      "note": 71,
      "start": 22.0499,
      "duration": 0.2518,
      "velocity": 119,
      "chip": "ym2612"
    },
    {
      "channel": 3,
      "note": 79,
      "start": 22.0507,
      "duration": 0.2544,
      "velocity": 119,
      "chip": "ym2612"
    },
    {
      "channel": 4,
      "note": 91,
      "start": 22.0514,
      "duration": 0.0646,
      "velocity": 94,
      "chip": "ym2612"
    },
    {
      "channel": 5,
      "note": 38,
      "start": 22.0541,
      "duration": 0.2544,
      "velocity": 127,
      "chip": "ym2612"
    },
    {
      "channel": 4,
      "note": 92,
      "start": 22.1162,
      "duration": 0.1896,
      "velocity": 94,
      "chip": "ym2612"
    },
    {
      "channel": 0,
      "note": 68,
      "start": 22.3012,
      "duration": 0.3454,
      "velocity": 119,
      "chip": "ym2612"
    },
    {
      "channel": 1,
      "note": 73,
      "start": 22.3019,
      "duration": 0.1137,
      "velocity": 119,
      "chip": "ym2612"
    },
    {
      "channel": 2,
      "note": 54,
      "start": 22.3026,
      "duration": 0.1137,
      "velocity": 112,
      "chip": "ym2612"
    },
    {
      "channel": 3,
      "note": 80,
      "start": 22.3054,
      "duration": 0.3448,
      "velocity": 119,
      "chip": "ym2612"
    },
    {
      "channel": 4,
      "note": 88,
      "start": 22.3061,
      "duration": 0.3467,
      "velocity": 1,
      "chip": "ym2612"
    },
    {
      "channel": 5,
      "note": 74,
      "start": 22.3087,
      "duration": 0.0408,
      "velocity": 127,
      "chip": "ym2612"
    },
    {
      "channel": 5,
      "note": 74,
      "start": 22.3497,
      "duration": 0.1793,
      "velocity": 127,
      "chip": "ym2612"
    },
    {
      "channel": 1,
      "note": 80,
      "start": 22.4159,
      "duration": 0.0015,
      "velocity": 119,
      "chip": "ym2612"
    },
    {
      "channel": 2,
      "note": 56,
      "start": 22.4166,
      "duration": 0.4808,
      "velocity": 112,
      "chip": "ym2612"
    },
    {
      "channel": 1,
      "note": 83,
      "start": 22.4176,
      "duration": 0.0019,
      "velocity": 119,
      "chip": "ym2612"
    },
    {
      "channel": 1,
      "note": 80,
      "start": 22.4196,
      "duration": 0.0583,
      "velocity": 119,
      "chip": "ym2612"
    },
    {
      "channel": 1,
      "note": 83,
      "start": 22.4782,
      "duration": 0.0498,
      "velocity": 119,
      "chip": "ym2612"
    },
    {
      "channel": 1,
      "note": 80,
      "start": 22.5282,
      "duration": 0.0665,
      "velocity": 119,
      "chip": "ym2612"
    },
    {
      "channel": 5,
      "note": 74,
      "start": 22.5292,
      "duration": 0.1262,
      "velocity": 127,
      "chip": "ym2612"
    },
    {
      "channel": 1,
      "note": 83,
      "start": 22.5948,
      "duration": 0.0525,
      "velocity": 119,
      "chip": "ym2612"
    },
    {
      "channel": 0,
      "note": 68,
      "start": 22.6469,
      "duration": 0.2497,
      "velocity": 119,
      "chip": "ym2612"
    },
    {
      "channel": 1,
      "note": 80,
      "start": 22.6476,
      "duration": 0.3645,
      "velocity": 119,
      "chip": "ym2612"
    },
    {
      "channel": 3,
      "note": 80,
      "start": 22.6503,
      "duration": 0.2497,
      "velocity": 119,
      "chip": "ym2612"
    },
    {
      "channel": 4,
      "note": 91,
      "start": 22.653,
      "duration": 0.3631,
      "velocity": 113,
      "chip": "ym2612"
    },
    {
      "channel": 5,
      "note": 38,
      "start": 22.6556,
      "duration": 0.2452,
      "velocity": 127,
      "chip": "ym2612"
    },
    {
      "channel": 0,
      "note": 73,
      "start": 22.8968,
      "duration": 0.1146,
      "velocity": 119,
      "chip": "ym2612"
    },
    {
      "channel": 2,
      "note": 56,
      "start": 22.8976,
      "duration": 0.1152,
      "velocity": 112,
      "chip": "ym2612"
    },
    {
      "channel": 3,
      "note": 61,
      "start": 22.9002,
      "duration": 0.1132,
      "velocity": 119,
      "chip": "ym2612"
    },
    {
      "channel": 5,
      "note": 55,
      "start": 22.9011,
      "duration": 0.1177,
      "velocity": 127,
      "chip": "ym2612"
    },
    {
      "channel": 0,
      "note": 76,
      "start": 23.0116,
      "duration": 0.3684,
      "velocity": 119,
      "chip": "ym2612"
    },
    {
      "channel": 1,
      "note": 77,
      "start": 23.0122,
      "duration": 0.1157,
      "velocity": 119,
      "chip": "ym2612"
    },
    {
      "channel": 2,
      "note": 53,
      "start": 23.0129,
      "duration": 0.3684,
      "velocity": 112,
      "chip": "ym2612"
    },
    {
      "channel": 3,
      "note": 64,
      "start": 23.0137,
      "duration": 0.3704,
      "velocity": 119,
      "chip": "ym2612"
    },
    {
      "channel": 4,
      "note": 91,
      "start": 23.0163,
      "duration": 6.2293,
      "velocity": 93,
      "chip": "ym2612"
    },
    {
      "channel": 5,
      "note": 74,
      "start": 23.019,
      "duration": 0.2308,
      "velocity": 127,
      "chip": "ym2612"
    },
    {
      "channel": 1,
      "note": 74,
      "start": 23.1282,
      "duration": 0.1186,
      "velocity": 119,
      "chip": "ym2612"
    },
    {
      "channel": 1,
      "note": 73,
      "start": 23.247,
      "duration": 0.1337,
      "velocity": 119,
      "chip": "ym2612"
    },
    {
      "channel": 5,
      "note": 74,
      "start": 23.25,
      "duration": 0.1368,
      "velocity": 127,
      "chip": "ym2612"
    },
    {
      "channel": 0,
      "note": 75,
      "start": 23.3802,
      "duration": 0.0478,
      "velocity": 119,
      "chip": "ym2612"
    },
    {
      "channel": 1,
      "note": 72,
      "start": 23.3809,
      "duration": 0.1137,
      "velocity": 119,
      "chip": "ym2612"
    },
    {
      "channel": 2,
      "note": 49,
      "start": 23.3816,
      "duration": 0.348,
      "velocity": 112,
      "chip": "ym2612"
    },
    {
      "channel": 3,
      "note": 63,
      "start": 23.3843,
      "duration": 0.0446,
      "velocity": 119,
      "chip": "ym2612"
    },
    {
      "channel": 5,
      "note": 38,
      "start": 23.387,
      "duration": 0.2272,
      "velocity": 127,
      "chip": "ym2612"
    },
    {
      "channel": 0,
      "note": 76,
      "start": 23.4282,
      "duration": 0.2999,
      "velocity": 119,
      "chip": "ym2612"
    },
    {
      "channel": 3,
      "note": 64,
      "start": 23.429,
      "duration": 0.3013,
      "velocity": 119,
      "chip": "ym2612"
    },
    {
      "channel": 1,
      "note": 73,
      "start": 23.4949,
      "duration": 0.1164,
      "velocity": 119,
      "chip": "ym2612"
    },
    {
      "channel": 1,
      "note": 77,
      "start": 23.6115,
      "duration": 0.1174,
      "velocity": 119,
      "chip": "ym2612"
    },
    {
      "channel": 5,
      "note": 74,
      "start": 23.6144,
      "duration": 0.064,
      "velocity": 127,
      "chip": "ym2612"
    },
    {
      "channel": 5,
      "note": 74,
      "start": 23.6787,
      "duration": 0.1809,
      "velocity": 127,
      "chip": "ym2612"
    },
    {
      "channel": 0,
      "note": 77,
      "start": 23.7283,
      "duration": 0.003,
      "velocity": 119,
      "chip": "ym2612"
    },
    {
      "channel": 1,
      "note": 78,
      "start": 23.729,
      "duration": 0.1289,
      "velocity": 119,
      "chip": "ym2612"
    },
    {
      "channel": 2,
      "note": 54,
      "start": 23.7298,
      "duration": 0.4782,
      "velocity": 112,
      "chip": "ym2612"
    },
    {
      "channel": 3,
      "note": 65,
      "start": 23.7306,
      "duration": 0.0011,
      "velocity": 119,
      "chip": "ym2612"
    },
    {
      "channel": 0,
      "note": 78,
      "start": 23.7315,
      "duration": 0.1257,
      "velocity": 119,
      "chip": "ym2612"
    },
    {
      "channel": 3,
      "note": 66,
      "start": 23.7319,
      "duration": 0.1268,
      "velocity": 119,
      "chip": "ym2612"
    },
    {
      "channel": 0,
      "note": 77,
      "start": 23.8574,
      "duration": 0.0498,
      "velocity": 119,
      "chip": "ym2612"
    },
    {
      "channel": 1,
      "note": 73,
      "start": 23.8581,
      "duration": 0.1158,
      "velocity": 119,
      "chip": "ym2612"
    },
    {
      "channel": 3,
      "note": 65,
      "start": 23.8589,
      "duration": 0.0492,
      "velocity": 119,
      "chip": "ym2612"
    },
    {
      "channel": 5,
      "note": 74,
      "start": 23.8598,
      "duration": 0.0491,
      "velocity": 127,
      "chip": "ym2612"
    },
    {
      "channel": 0,
      "note": 78,
      "start": 23.9074,
      "duration": 1.1518,
      "velocity": 119,
      "chip": "ym2612"
    },
    {
      "channel": 3,
      "note": 66,
      "start": 23.9083,
      "duration": 1.155,
      "velocity": 119,
      "chip": "ym2612"
    },
    {
      "channel": 5,
      "note": 74,
      "start": 23.9091,
      "duration": 0.0678,
      "velocity": 127,
      "chip": "ym2612"
    },
    {
      "channel": 1,
      "note": 69,
      "start": 23.9742,
      "duration": 0.2331,
      "velocity": 119,
      "chip": "ym2612"
    },
    {
      "channel": 5,
      "note": 38,
      "start": 23.9771,
      "duration": 0.2317,
      "velocity": 127,
      "chip": "ym2612"
    },
    {
      "channel": 1,
      "note": 78,
      "start": 24.2075,
      "duration": 0.3686,
      "velocity": 119,
      "chip": "ym2612"
    },
    {
      "channel": 2,
      "note": 61,
      "start": 24.2082,
      "duration": 0.3686,
      "velocity": 112,
      "chip": "ym2612"
    },
    {
      "channel": 5,
      "note": 55,
      "start": 24.2091,
      "duration": 0.1172,
      "velocity": 127,
      "chip": "ym2612"
    },
    {
      "channel": 5,
      "note": 74,
      "start": 24.3265,
      "duration": 0.2532,
      "velocity": 127,
      "chip": "ym2612"
    },
    {
      "channel": 1,
      "note": 78,
      "start": 24.5763,
      "duration": 0.1144,
      "velocity": 119,
      "chip": "ym2612"
    },
    {
      "channel": 2,
      "note": 61,
      "start": 24.577,
      "duration": 0.1144,
      "velocity": 112,
      "chip": "ym2612"
    },
    {
      "channel": 5,
      "note": 74,
      "start": 24.58,
      "duration": 0.1142,
      "velocity": 127,
      "chip": "ym2612"
    },
    {
      "channel": 1,
      "note": 73,
      "start": 24.6908,
      "duration": 0.1164,
      "velocity": 119,
      "chip": "ym2612"
    },
    {
      "channel": 2,
      "note": 66,
      "start": 24.6915,
      "duration": 0.1164,
      "velocity": 112,
      "chip": "ym2612"
    },
    {
      "channel": 5,
      "note": 38,
      "start": 24.6944,
      "duration": 0.2331,
      "velocity": 127,
      "chip": "ym2612"
    },
    {
      "channel": 1,
      "note": 69,
      "start": 24.8074,
      "duration": 0.1165,
      "velocity": 119,
      "chip": "ym2612"
    },
    {
      "channel": 2,
      "note": 61,
      "start": 24.8081,
      "duration": 0.1165,
      "velocity": 112,
      "chip": "ym2612"
    },
    {
      "channel": 1,
      "note": 66,
      "start": 24.9242,
      "duration": 0.1357,
      "velocity": 119,
      "chip": "ym2612"
    },
    {
      "channel": 2,
      "note": 57,
      "start": 24.9249,
      "duration": 0.1358,
      "velocity": 112,
      "chip": "ym2612"
    },
    {
      "channel": 5,
      "note": 74,
      "start": 24.9277,
      "duration": 0.0632,
      "velocity": 127,
      "chip": "ym2612"
    },
    {
      "channel": 5,
      "note": 74,
      "start": 24.9912,
      "duration": 0.178,
      "velocity": 127,
      "chip": "ym2612"
    },
    {
      "channel": 0,
      "note": 78,
      "start": 25.0595,
      "duration": 0.2261,
      "velocity": 119,
      "chip": "ym2612"
    },
    {
      "channel": 1,
      "note": 78,
      "start": 25.0602,
      "duration": 0.2261,
      "velocity": 119,
      "chip": "ym2612"
    },
    {
      "channel": 2,
      "note": 49,
      "start": 25.0609,
      "duration": 0.4747,
      "velocity": 112,
      "chip": "ym2612"
    },
    {
      "channel": 3,
      "note": 66,
      "start": 25.0635,
      "duration": 0.2235,
      "velocity": 119,
      "chip": "ym2612"
    },
    {
      "channel": 5,
      "note": 74,
      "start": 25.1695,
      "duration": 0.1202,
      "velocity": 127,
      "chip": "ym2612"
    },
    {
      "channel": 0,
      "note": 76,
      "start": 25.2857,
      "duration": 0.3665,
      "velocity": 119,
      "chip": "ym2612"
    },
    {
      "channel": 1,
      "note": 76,
      "start": 25.2864,
      "duration": 0.3665,
      "velocity": 119,
      "chip": "ym2612"
    },
    {
      "channel": 3,
      "note": 64,
      "start": 25.2872,
      "duration": 0.3671,
      "velocity": 119,
      "chip": "ym2612"
    },
    {
      "channel": 5,
      "note": 38,
      "start": 25.29,
      "duration": 0.2465,
      "velocity": 127,
      "chip": "ym2612"
    },
    {
      "channel": 2,
      "note": 49,
      "start": 25.5358,
      "duration": 0.1178,
      "velocity": 112,
      "chip": "ym2612"
    },
    {
      "channel": 5,
      "note": 55,
      "start": 25.5368,
      "duration": 0.1203,
      "velocity": 127,
      "chip": "ym2612"
    },
    {
      "channel": 0,
      "note": 73,
      "start": 25.6524,
      "duration": 0.2331,
      "velocity": 119,
      "chip": "ym2612"
    },
    {
      "channel": 1,
      "note": 73,
      "start": 25.6531,
      "duration": 0.2331,
      "velocity": 119,
      "chip": "ym2612"
    },
    {
      "channel": 2,
      "note": 50,
      "start": 25.6538,
      "duration": 0.5998,
      "velocity": 112,
      "chip": "ym2612"
    },
    {
      "channel": 3,
      "note": 61,
      "start": 25.6546,
      "duration": 0.2324,
      "velocity": 119,
      "chip": "ym2612"
    },
    {
      "channel": 5,
      "note": 74,
      "start": 25.6573,
      "duration": 0.2305,
      "velocity": 127,
      "chip": "ym2612"
    },
    {
      "channel": 0,
      "note": 72,
      "start": 25.8857,
      "duration": 0.0664,
      "velocity": 119,
      "chip": "ym2612"
    },
    {
      "channel": 1,
      "note": 72,
      "start": 25.8864,
      "duration": 0.0664,
      "velocity": 119,
      "chip": "ym2612"
    },
    {
      "channel": 3,
      "note": 60,
      "start": 25.8872,
      "duration": 0.0665,
      "velocity": 119,
      "chip": "ym2612"
    },
    {
      "channel": 5,
      "note": 74,
      "start": 25.888,
      "duration": 0.1184,
      "velocity": 127,
      "chip": "ym2612"
    },
    {
      "channel": 0,
      "note": 71,
      "start": 25.9524,
      "duration": 0.0498,
      "velocity": 119,
      "chip": "ym2612"
    },
    {
      "channel": 1,
      "note": 71,
      "start": 25.9531,
      "duration": 0.0497,
      "velocity": 119,
      "chip": "ym2612"
    },
    {
      "channel": 3,
      "note": 59,
      "start": 25.9539,
      "duration": 0.0498,
      "velocity": 119,
      "chip": "ym2612"
    },
    {
      "channel": 0,
      "note": 69,
      "start": 26.0024,
      "duration": 0.2498,
      "velocity": 119,
      "chip": "ym2612"
    },
    {
      "channel": 1,
      "note": 69,
      "start": 26.0031,
      "duration": 0.2498,
      "velocity": 119,
      "chip": "ym2612"
    },
    {
      "channel": 3,
      "note": 57,
      "start": 26.0039,
      "duration": 0.2505,
      "velocity": 119,
      "chip": "ym2612"
    },
    {
      "channel": 5,
      "note": 38,
      "start": 26.0067,
      "duration": 0.2504,
      "velocity": 127,
      "chip": "ym2612"
    },
    {
      "channel": 0,
      "note": 71,
      "start": 26.2524,
      "duration": 0.5966,
      "velocity": 102,
      "chip": "ym2612"
    },
    {
      "channel": 1,
      "note": 71,
      "start": 26.2531,
      "duration": 0.0492,
      "velocity": 119,
      "chip": "ym2612"
    },
    {
      "channel": 2,
      "note": 50,
      "start": 26.2538,
      "duration": 0.116,
      "velocity": 112,
      "chip": "ym2612"
    },
    {
      "channel": 3,
      "note": 59,
      "start": 26.2546,
      "duration": 2.0429,
      "velocity": 94,
      "chip": "ym2612"
    },
    {
      "channel": 5,
      "note": 74,
      "start": 26.2573,
      "duration": 0.0461,
      "velocity": 127,
      "chip": "ym2612"
    },
    {
      "channel": 1,
      "note": 75,
      "start": 26.3025,
      "duration": 0.0666,
      "velocity": 119,
      "chip": "ym2612"
    },
    {
      "channel": 5,
      "note": 74,
      "start": 26.3035,
      "duration": 0.1819,
      "velocity": 127,
      "chip": "ym2612"
    },
    {
      "channel": 1,
      "note": 71,
      "start": 26.3693,
      "duration": 0.0015,
      "velocity": 119,
      "chip": "ym2612"
    },
    {
      "channel": 2,
      "note": 51,
      "start": 26.37,
      "duration": 0.8445,
      "velocity": 112,
      "chip": "ym2612"
    },
    {
      "channel": 1,
      "note": 75,
      "start": 26.371,
      "duration": 0.0002,
      "velocity": 119,
      "chip": "ym2612"
    },
    {
      "channel": 1,
      "note": 71,
      "start": 26.3714,
      "duration": 0.059,
      "velocity": 119,
      "chip": "ym2612"
    },
    {
      "channel": 1,
      "note": 75,
      "start": 26.4306,
      "duration": 0.0518,
      "velocity": 119,
      "chip": "ym2612"
    },
    {
      "channel": 1,
      "note": 71,
      "start": 26.4826,
      "duration": 0.0645,
      "velocity": 119,
      "chip": "ym2612"
    },
    {
      "channel": 5,
      "note": 74,
      "start": 26.4856,
      "duration": 0.0624,
      "velocity": 127,
      "chip": "ym2612"
    },
    {
      "channel": 1,
      "note": 75,
      "start": 26.5473,
      "duration": 0.0664,
      "velocity": 119,
      "chip": "ym2612"
    },
    {
      "channel": 5,
      "note": 74,
      "start": 26.5483,
      "duration": 0.0683,
      "velocity": 127,
      "chip": "ym2612"
    },
    {
      "channel": 1,
      "note": 71,
      "start": 26.6139,
      "duration": 0.3518,
      "velocity": 102,
      "chip": "ym2612"
    },
    {
      "channel": 5,
      "note": 38,
      "start": 26.6168,
      "duration": 0.2331,
      "velocity": 127,
      "chip": "ym2612"
    },
    {
      "channel": 0,
      "note": 71,
      "start": 26.8491,
      "duration": 0.3646,
      "velocity": 102,
      "chip": "ym2612"
    },
    {
      "channel": 5,
      "note": 55,
      "start": 26.8502,
      "duration": 0.1184,
      "velocity": 127,
      "chip": "ym2612"
    },
    {
      "channel": 1,
      "note": 75,
      "start": 26.9659,
      "duration": 0.598,
      "velocity": 102,
      "chip": "ym2612"
    },
    {
      "channel": 5,
      "note": 74,
      "start": 26.9689,
      "duration": 0.2465,
      "velocity": 127,
      "chip": "ym2612"
    },
    {
      "channel": 0,
      "note": 76,
      "start": 27.2139,
      "duration": 1.0801,
      "velocity": 119,
      "chip": "ym2612"
    },
    {
      "channel": 2,
      "note": 54,
      "start": 27.2147,
      "duration": 0.1157,
      "velocity": 112,
      "chip": "ym2612"
    },
    {
      "channel": 5,
      "note": 74,
      "start": 27.2156,
      "duration": 0.1177,
      "velocity": 127,
      "chip": "ym2612"
    },
    {
      "channel": 2,
      "note": 56,
      "start": 27.3307,
      "duration": 0.2339,
      "velocity": 112,
      "chip": "ym2612"
    },
    {
      "channel": 5,
      "note": 38,
      "start": 27.3335,
      "duration": 0.2338,
      "velocity": 127,
      "chip": "ym2612"
    },
    {
      "channel": 1,
      "note": 78,
      "start": 27.564,
      "duration": 1.0807,
      "velocity": 119,
      "chip": "ym2612"
    },
    {
      "channel": 2,
      "note": 59,
      "start": 27.5647,
      "duration": 0.2461,
      "velocity": 112,
      "chip": "ym2612"
    },
    {
      "channel": 5,
      "note": 74,
      "start": 27.5676,
      "duration": 0.0632,
      "velocity": 127,
      "chip": "ym2612"
    },
    {
      "channel": 5,
      "note": 74,
      "start": 27.631,
      "duration": 0.1807,
      "velocity": 127,
      "chip": "ym2612"
    },
    {
      "channel": 2,
      "note": 63,
      "start": 27.811,
      "duration": 0.1144,
      "velocity": 112,
      "chip": "ym2612"
    },
    {
      "channel": 5,
      "note": 74,
      "start": 27.812,
      "duration": 0.1163,
      "velocity": 127,
      "chip": "ym2612"
    },
    {
      "channel": 2,
      "note": 59,
      "start": 27.9256,
      "duration": 0.2331,
      "velocity": 112,
      "chip": "ym2612"
    },
    {
      "channel": 5,
      "note": 38,
      "start": 27.9285,
      "duration": 0.2312,
      "velocity": 127,
      "chip": "ym2612"
    },
    {
      "channel": 2,
      "note": 56,
      "start": 28.1589,
      "duration": 0.1358,
      "velocity": 112,
      "chip": "ym2612"
    },
    {
      "channel": 5,
      "note": 55,
      "start": 28.1599,
      "duration": 0.1402,
      "velocity": 127,
      "chip": "ym2612"
    },
    {
      "channel": 0,
      "note": 75,
      "start": 28.2942,
      "duration": 0.0478,
      "velocity": 119,
      "chip": "ym2612"
    },
    {
      "channel": 2,
      "note": 59,
      "start": 28.2949,
      "duration": 0.3505,
      "velocity": 112,
      "chip": "ym2612"
    },
    {
      "channel": 3,
      "note": 96,
      "start": 28.2976,
      "duration": 0.0453,
      "velocity": 94,
      "chip": "ym2612"
    },
    {
      "channel": 5,
      "note": 74,
      "start": 28.3004,
      "duration": 0.2252,
      "velocity": 127,
      "chip": "ym2612"
    },
    {
      "channel": 0,
      "note": 76,
      "start": 28.3422,
      "duration": 0.2998,
      "velocity": 119,
      "chip": "ym2612"
    },
    {
      "channel": 3,
      "note": 97,
      "start": 28.3431,
      "duration": 0.303,
      "velocity": 94,
      "chip": "ym2612"
    },
    {
      "channel": 5,
      "note": 74,
      "start": 28.5259,
      "duration": 0.1229,
      "velocity": 127,
      "chip": "ym2612"
    },
    {
      "channel": 0,
      "note": 75,
      "start": 28.6422,
      "duration": 0.0665,
      "velocity": 119,
      "chip": "ym2612"
    },
    {
      "channel": 1,
      "note": 71,
      "start": 28.6449,
      "duration": 0.0644,
      "velocity": 119,
      "chip": "ym2612"
    },
    {
      "channel": 2,
      "note": 47,
      "start": 28.6456,
      "duration": 0.3647,
      "velocity": 112,
      "chip": "ym2612"
    },
    {
      "channel": 3,
      "note": 96,
      "start": 28.6463,
      "duration": 0.0639,
      "velocity": 94,
      "chip": "ym2612"
    },
    {
      "channel": 5,
      "note": 38,
      "start": 28.6491,
      "duration": 0.2465,
      "velocity": 127,
      "chip": "ym2612"
    },
    {
      "channel": 0,
      "note": 76,
      "start": 28.7089,
      "duration": 0.2999,
      "velocity": 119,
      "chip": "ym2612"
    },
    {
      "channel": 1,
      "note": 75,
      "start": 28.7096,
      "duration": 0.0491,
      "velocity": 119,
      "chip": "ym2612"
    },
    {
      "channel": 3,
      "note": 97,
      "start": 28.7104,
      "duration": 0.1824,
      "velocity": 94,
      "chip": "ym2612"
    },
    {
      "channel": 1,
      "note": 71,
      "start": 28.7589,
      "duration": 0.0663,
      "velocity": 119,
      "chip": "ym2612"
    },
    {
      "channel": 1,
      "note": 75,
      "start": 28.8255,
      "duration": 0.0665,
      "velocity": 119,
      "chip": "ym2612"
    },
    {
      "channel": 1,
      "note": 71,
      "start": 28.8923,
      "duration": 0.0499,
      "velocity": 119,
      "chip": "ym2612"
    },
    {
      "channel": 3,
      "note": 97,
      "start": 28.893,
      "duration": 0.1181,
      "velocity": 94,
      "chip": "ym2612"
    },
    {
      "channel": 5,
      "note": 74,
      "start": 28.8958,
      "duration": 0.0473,
      "velocity": 127,
      "chip": "ym2612"
    },
    {
      "channel": 1,
      "note": 75,
      "start": 28.9423,
      "duration": 0.0673,
      "velocity": 119,
      "chip": "ym2612"
    },
    {
      "channel": 5,
      "note": 74,
      "start": 28.9433,
      "duration": 0.182,
      "velocity": 127,
      "chip": "ym2612"
    },
    {
      "channel": 0,
      "note": 74,
      "start": 29.009,
      "duration": 0.2319,
      "velocity": 119,
      "chip": "ym2612"
    },
    {
      "channel": 1,
      "note": 73,
      "start": 29.0098,
      "duration": 0.1145,
      "velocity": 119,
      "chip": "ym2612"
    },
    {
      "channel": 2,
      "note": 52,
      "start": 29.0105,
      "duration": 0.2318,
      "velocity": 112,
      "chip": "ym2612"
    },
    {
      "channel": 3,
      "note": 95,
      "start": 29.0113,
      "duration": 0.2317,
      "velocity": 94,
      "chip": "ym2612"
    },
    {
      "channel": 1,
      "note": 69,
      "start": 29.1245,
      "duration": 0.1171,
      "velocity": 119,
      "chip": "ym2612"
    },
    {
      "channel": 5,
      "note": 74,
      "start": 29.1256,
      "duration": 0.0637,
      "velocity": 127,
      "chip": "ym2612"
    },
    {
      "channel": 5,
      "note": 74,
      "start": 29.1895,
      "duration": 0.0588,
      "velocity": 127,
      "chip": "ym2612"
    },
    {
      "channel": 0,
      "note": 73,
      "start": 29.2411,
      "duration": 0.2478,
      "velocity": 119,
      "chip": "ym2612"
    },
    {
      "channel": 1,
      "note": 64,
      "start": 29.2418,
      "duration": 0.2478,
      "velocity": 119,
      "chip": "ym2612"
    },
    {
      "channel": 2,
      "note": 45,
      "start": 29.2425,
      "duration": 0.3632,
      "velocity": 112,
      "chip": "ym2612"
    },
    {
      "channel": 3,
      "note": 93,
      "start": 29.2432,
      "duration": 0.2471,
      "velocity": 94,
      "chip": "ym2612"
    },
    {
      "channel": 4,
      "note": 95,
      "start": 29.2459,
      "duration": 0.3606,
      "velocity": 93,
      "chip": "ym2612"
    },
    {
      "channel": 5,
      "note": 38,
      "start": 29.2485,
      "duration": 0.2426,
      "velocity": 127,
      "chip": "ym2612"
    },
    {
      "channel": 0,
      "note": 73,
      "start": 29.489,
      "duration": 1.7948,
      "velocity": 119,
      "chip": "ym2612"
    },
    {
      "channel": 1,
      "note": 69,
      "start": 29.4898,
      "duration": 0.0492,
      "velocity": 119,
      "chip": "ym2612"
    },
    {
      "channel": 3,
      "note": 93,
      "start": 29.4905,
      "duration": 0.8344,
      "velocity": 1,
      "chip": "ym2612"
    },
    {
      "channel": 5,
      "note": 55,
      "start": 29.4913,
      "duration": 0.1178,
      "velocity": 127,
      "chip": "ym2612"
    },
    {
      "channel": 1,
      "note": 73,
      "start": 29.5391,
      "duration": 0.2998,
      "velocity": 119,
      "chip": "ym2612"
    },
    {
      "channel": 2,
      "note": 47,
      "start": 29.6059,
      "duration": 0.3671,
      "velocity": 112,
      "chip": "ym2612"
    },
    {
      "channel": 4,
      "note": 93,
      "start": 29.6067,
      "duration": 0.2351,
      "velocity": 93,
      "chip": "ym2612"
    },
    {
      "channel": 5,
      "note": 74,
      "start": 29.6093,
      "duration": 0.2331,
      "velocity": 127,
      "chip": "ym2612"
    },
    {
      "channel": 1,
      "note": 73,
      "start": 29.8391,
      "duration": 0.1331,
      "velocity": 119,
      "chip": "ym2612"
    },
    {
      "channel": 4,
      "note": 93,
      "start": 29.842,
      "duration": 0.728,
      "velocity": 1,
      "chip": "ym2612"
    },
    {
      "channel": 5,
      "note": 74,
      "start": 29.8427,
      "duration": 0.1331,
      "velocity": 127,
      "chip": "ym2612"
    },
    {
      "channel": 1,
      "note": 69,
      "start": 29.9724,
      "duration": 0.2331,
      "velocity": 119,
      "chip": "ym2612"
    },
    {
      "channel": 2,
      "note": 48,
      "start": 29.9731,
      "duration": 0.3492,
      "velocity": 112,
      "chip": "ym2612"
    },
    {
      "channel": 5,
      "note": 38,
      "start": 29.976,
      "duration": 0.2324,
      "velocity": 127,
      "chip": "ym2612"
    },
    {
      "channel": 1,
      "note": 64,
      "start": 30.2057,
      "duration": 0.2448,
      "velocity": 119,
      "chip": "ym2612"
    },
    {
      "channel": 5,
      "note": 74,
      "start": 30.2086,
      "duration": 0.0639,
      "velocity": 127,
      "chip": "ym2612"
    },
    {
      "channel": 5,
      "note": 74,
      "start": 30.2728,
      "duration": 0.1787,
      "velocity": 127,
      "chip": "ym2612"
    },
    {
      "channel": 2,
      "note": 49,
      "start": 30.3225,
      "duration": 0.4788,
      "velocity": 112,
      "chip": "ym2612"
    },
    {
      "channel": 3,
      "note": 91,
      "start": 30.3252,
      "duration": 0.9628,
      "velocity": 94,
      "chip": "ym2612"
    },
    {
      "channel": 1,
      "note": 76,
      "start": 30.4507,
      "duration": 0.1165,
      "velocity": 119,
      "chip": "ym2612"
    },
    {
      "channel": 5,
      "note": 74,
      "start": 30.4517,
      "duration": 0.1209,
      "velocity": 127,
      "chip": "ym2612"
    },
    {
      "channel": 1,
      "note": 73,
      "start": 30.5674,
      "duration": 0.2331,
      "velocity": 119,
      "chip": "ym2612"
    },
    {
      "channel": 4,
      "note": 91,
      "start": 30.5702,
      "duration": 1.0853,
      "velocity": 93,
      "chip": "ym2612"
    },
    {
      "channel": 5,
      "note": 38,
      "start": 30.5729,
      "duration": 0.2292,
      "velocity": 127,
      "chip": "ym2612"
    },
    {
      "channel": 1,
      "note": 69,
      "start": 30.8007,
      "duration": 0.1164,
      "velocity": 119,
      "chip": "ym2612"
    },
    {
      "channel": 2,
      "note": 52,
      "start": 30.8014,
      "duration": 0.4839,
      "velocity": 112,
      "chip": "ym2612"
    },
    {
      "channel": 5,
      "note": 55,
      "start": 30.8023,
      "duration": 0.1177,
      "velocity": 127,
      "chip": "ym2612"
    },
    {
      "channel": 1,
      "note": 81,
      "start": 30.9173,
      "duration": 0.2498,
      "velocity": 119,
      "chip": "ym2612"
    },
    {
      "channel": 5,
      "note": 74,
      "start": 30.9203,
      "duration": 0.2478,
      "velocity": 127,
      "chip": "ym2612"
    },
    {
      "channel": 1,
      "note": 76,
      "start": 31.1673,
      "duration": 0.1172,
      "velocity": 119,
      "chip": "ym2612"
    },
    {
      "channel": 5,
      "note": 74,
      "start": 31.1684,
      "duration": 0.1223,
      "velocity": 127,
      "chip": "ym2612"
    },
    {
      "channel": 0,
      "note": 76,
      "start": 31.2841,
      "duration": 0.3665,
      "velocity": 119,
      "chip": "ym2612"
    },
    {
      "channel": 1,
      "note": 73,
      "start": 31.2848,
      "duration": 0.2324,
      "velocity": 119,
      "chip": "ym2612"
    },
    {
      "channel": 2,
      "note": 52,
      "start": 31.2855,
      "duration": 0.3667,
      "velocity": 112,
      "chip": "ym2612"
    },
    {
      "channel": 3,
      "note": 97,
      "start": 31.2881,
      "duration": 0.3648,
      "velocity": 94,
      "chip": "ym2612"
    },
    {
      "channel": 5,
      "note": 38,
      "start": 31.291,
      "duration": 0.2291,
      "velocity": 127,
      "chip": "ym2612"
    },
    {
      "channel": 1,
      "note": 69,
      "start": 31.5173,
      "duration": 0.134,
      "velocity": 119,
      "chip": "ym2612"
    },
    {
      "channel": 5,
      "note": 74,
      "start": 31.5203,
      "duration": 0.0639,
      "velocity": 127,
      "chip": "ym2612"
    },
    {
      "channel": 5,
      "note": 74,
      "start": 31.5845,
      "duration": 0.1786,
      "velocity": 127,
      "chip": "ym2612"
    },
    {
      "channel": 0,
      "note": 76,
      "start": 31.6508,
      "duration": 0.23,
      "velocity": 119,
      "chip": "ym2612"
    },
    {
      "channel": 1,
      "note": 73,
      "start": 31.6516,
      "duration": 0.0048,
      "velocity": 119,
      "chip": "ym2612"
    },
    {
      "channel": 2,
      "note": 52,
      "start": 31.6523,
      "duration": 0.2298,
      "velocity": 112,
      "chip": "ym2612"
    },
    {
      "channel": 3,
      "note": 96,
      "start": 31.6531,
      "duration": 0.0037,
      "velocity": 94,
      "chip": "ym2612"
    },
    {
      "channel": 4,
      "note": 97,
      "start": 31.6558,
      "duration": 0.2278,
      "velocity": 93,
      "chip": "ym2612"
    },
    {
      "channel": 1,
      "note": 76,
      "start": 31.6566,
      "duration": 0.0006,
      "velocity": 119,
      "chip": "ym2612"
    },
    {
      "channel": 3,
      "note": 97,
      "start": 31.657,
      "duration": 0.2259,
      "velocity": 94,
      "chip": "ym2612"
    },
    {
      "channel": 1,
      "note": 73,
      "start": 31.6573,
      "duration": 0.038,
      "velocity": 119,
      "chip": "ym2612"
    },
    {
      "channel": 1,
      "note": 76,
      "start": 31.6956,
      "duration": 0.0665,
      "velocity": 119,
      "chip": "ym2612"
    },
    {
      "channel": 1,
      "note": 73,
      "start": 31.7623,
      "duration": 0.0686,
      "velocity": 119,
      "chip": "ym2612"
    },
    {
      "channel": 5,
      "note": 74,
      "start": 31.7633,
      "duration": 0.0685,
      "velocity": 127,
      "chip": "ym2612"
    },
    {
      "channel": 1,
      "note": 76,
      "start": 31.831,
      "duration": 0.0505,
      "velocity": 119,
      "chip": "ym2612"
    },
    {
      "channel": 5,
      "note": 74,
      "start": 31.832,
      "duration": 0.0542,
      "velocity": 127,
      "chip": "ym2612"
    },
    {
      "channel": 0,
      "note": 74,
      "start": 31.881,
      "duration": 0.2478,
      "velocity": 119,
      "chip": "ym2612"
    },
    {
      "channel": 1,
      "note": 71,
      "start": 31.8817,
      "duration": 0.0639,
      "velocity": 119,
      "chip": "ym2612"
    },
    {
      "channel": 2,
      "note": 54,
      "start": 31.8824,
      "duration": 0.3638,
      "velocity": 112,
      "chip": "ym2612"
    },
    {
      "channel": 3,
      "note": 95,
      "start": 31.8831,
      "duration": 0.2471,
      "velocity": 94,
      "chip": "ym2612"
    },
    {
      "channel": 4,
      "note": 96,
      "start": 31.8838,
      "duration": 0.0627,
      "velocity": 93,
      "chip": "ym2612"
    },
    {
      "channel": 5,
      "note": 38,
      "start": 31.8864,
      "duration": 0.2446,
      "velocity": 127,
      "chip": "ym2612"
    },
    {
      "channel": 1,
      "note": 74,
      "start": 31.9457,
      "duration": 0.0497,
      "velocity": 119,
      "chip": "ym2612"
    },
    {
      "channel": 4,
      "note": 97,
      "start": 31.9466,
      "duration": 0.3003,
      "velocity": 93,
      "chip": "ym2612"
    },
    {
      "channel": 1,
      "note": 71,
      "start": 31.9956,
      "duration": 0.0664,
      "velocity": 119,
      "chip": "ym2612"
    },
    {
      "channel": 1,
      "note": 74,
      "start": 32.0623,
      "duration": 0.0672,
      "velocity": 119,
      "chip": "ym2612"
    },
    {
      "channel": 0,
      "note": 74,
      "start": 32.1289,
      "duration": 0.8351,
      "velocity": 113,
      "chip": "ym2612"
    },
    {
      "channel": 1,
      "note": 71,
      "start": 32.1296,
      "duration": 0.0492,
      "velocity": 119,
      "chip": "ym2612"
    },
    {
      "channel": 3,
      "note": 95,
      "start": 32.1304,
      "duration": 0.8377,
      "velocity": 127,
      "chip": "ym2612"
    },
    {
      "channel": 5,
      "note": 55,
      "start": 32.1312,
      "duration": 0.1184,
      "velocity": 127,
      "chip": "ym2612"
    },
    {
      "channel": 1,
      "note": 74,
      "start": 32.179,
      "duration": 0.0665,
      "velocity": 119,
      "chip": "ym2612"
    },
    {
      "channel": 1,
      "note": 71,
      "start": 32.2457,
      "duration": 0.0498,
      "velocity": 119,
      "chip": "ym2612"
    },
    {
      "channel": 2,
      "note": 55,
      "start": 32.2463,
      "duration": 0.3498,
      "velocity": 112,
      "chip": "ym2612"
    },
    {
      "channel": 4,
      "note": 95,
      "start": 32.2471,
      "duration": 0.2365,
      "velocity": 93,
      "chip": "ym2612"
    },
    {
      "channel": 5,
      "note": 74,
      "start": 32.2498,
      "duration": 0.2345,
      "velocity": 127,
      "chip": "ym2612"
    },
    {
      "channel": 1,
      "note": 74,
      "start": 32.2957,
      "duration": 0.0663,
      "velocity": 119,
      "chip": "ym2612"
    },
    {
      "channel": 1,
      "note": 71,
      "start": 32.3623,
      "duration": 0.0665,
      "velocity": 119,
      "chip": "ym2612"
    },
    {
      "channel": 1,
      "note": 74,
      "start": 32.4289,
      "duration": 0.0518,
      "velocity": 119,
      "chip": "ym2612"
    },
    {
      "channel": 1,
      "note": 71,
      "start": 32.481,
      "duration": 0.0645,
      "velocity": 119,
      "chip": "ym2612"
    },
    {
      "channel": 4,
      "note": 95,
      "start": 32.4838,
      "duration": 0.7254,
      "velocity": 1,
      "chip": "ym2612"
    },
    {
      "channel": 5,
      "note": 74,
      "start": 32.4846,
      "duration": 0.1144,
      "velocity": 127,
      "chip": "ym2612"
    },
    {
      "channel": 1,
      "note": 74,
      "start": 32.5457,
      "duration": 0.0498,
      "velocity": 119,
      "chip": "ym2612"
    },
    {
      "channel": 1,
      "note": 71,
      "start": 32.5957,
      "duration": 0.0665,
      "velocity": 119,
      "chip": "ym2612"
    },
    {
      "channel": 2,
      "note": 56,
      "start": 32.5963,
      "duration": 0.3691,
      "velocity": 112,
      "chip": "ym2612"
    },
    {
      "channel": 5,
      "note": 38,
      "start": 32.5992,
      "duration": 0.249,
      "velocity": 127,
      "chip": "ym2612"
    },
    {
      "channel": 1,
      "note": 74,
      "start": 32.6623,
      "duration": 0.0664,
      "velocity": 119,
      "chip": "ym2612"
    },
    {
      "channel": 1,
      "note": 71,
      "start": 32.7289,
      "duration": 0.0498,
      "velocity": 119,
      "chip": "ym2612"
    },
    {
      "channel": 1,
      "note": 74,
      "start": 32.7789,
      "duration": 0.0665,
      "velocity": 119,
      "chip": "ym2612"
    },
    {
      "channel": 1,
      "note": 71,
      "start": 32.8456,
      "duration": 0.0498,
      "velocity": 119,
      "chip": "ym2612"
    },
    {
      "channel": 5,
      "note": 74,
      "start": 32.8485,
      "duration": 0.0478,
      "velocity": 127,
      "chip": "ym2612"
    },
    {
      "channel": 1,
      "note": 74,
      "start": 32.8956,
      "duration": 0.0691,
      "velocity": 119,
      "chip": "ym2612"
    },
    {
      "channel": 5,
      "note": 74,
      "start": 32.8966,
      "duration": 1.507,
      "velocity": 127,
      "chip": "ym2612"
    },
    {
      "channel": 0,
      "note": 79,
      "start": 32.9643,
      "duration": 1.5563,
      "velocity": 119,
      "chip": "ym2612"
    },
    {
      "channel": 1,
      "note": 71,
      "start": 32.965,
      "duration": 1.5583,
      "velocity": 119,
      "chip": "ym2612"
    },
    {
      "channel": 2,
      "note": 59,
      "start": 32.9657,
      "duration": 1.3102,
      "velocity": 112,
      "chip": "ym2612"
    },
    {
      "channel": 3,
      "note": 55,
      "start": 32.9683,
      "duration": 0.4742,
      "velocity": 94,
      "chip": "ym2612"
    },
    {
      "channel": 4,
      "note": 91,
      "start": 33.2095,
      "duration": 0.5998,
      "velocity": 93,
      "chip": "ym2612"
    },
    {
      "channel": 3,
      "note": 83,
      "start": 33.4427,
      "duration": 0.1145,
      "velocity": 94,
      "chip": "ym2612"
    },
    {
      "channel": 3,
      "note": 83,
      "start": 33.5573,
      "duration": 0.0008,
      "velocity": 94,
      "chip": "ym2612"
    },
    {
      "channel": 3,
      "note": 84,
      "start": 33.5581,
      "duration": 0.0663,
      "velocity": 94,
      "chip": "ym2612"
    },
    {
      "channel": 3,
      "note": 85,
      "start": 33.6244,
      "duration": 0.2994,
      "velocity": 94,
      "chip": "ym2612"
    },
    {
      "channel": 4,
      "note": 83,
      "start": 33.8094,
      "duration": 0.1152,
      "velocity": 93,
      "chip": "ym2612"
    },
    {
      "channel": 3,
      "note": 85,
      "start": 33.9241,
      "duration": 0.0014,
      "velocity": 94,
      "chip": "ym2612"
    },
    {
      "channel": 4,
      "note": 84,
      "start": 33.9248,
      "duration": 0.0494,
      "velocity": 93,
      "chip": "ym2612"
    },
    {
      "channel": 3,
      "note": 84,
      "start": 33.9255,
      "duration": 0.0496,
      "velocity": 94,
      "chip": "ym2612"
    },
    {
      "channel": 4,
      "note": 85,
      "start": 33.9744,
      "duration": 0.303,
      "velocity": 93,
      "chip": "ym2612"
    },
    {
      "channel": 3,
      "note": 85,
      "start": 33.9751,
      "duration": 0.1821,
      "velocity": 94,
      "chip": "ym2612"
    },
    {
      "channel": 3,
      "note": 85,
      "start": 34.1573,
      "duration": 0.1193,
      "velocity": 94,
      "chip": "ym2612"
    },
    {
      "channel": 2,
      "note": 57,
      "start": 34.2761,
      "duration": 0.4813,
      "velocity": 112,
      "chip": "ym2612"
    },
    {
      "channel": 3,
      "note": 83,
      "start": 34.2769,
      "duration": 0.1252,
      "velocity": 94,
      "chip": "ym2612"
    },
    {
      "channel": 4,
      "note": 84,
      "start": 34.2776,
      "duration": 0.0006,
      "velocity": 93,
      "chip": "ym2612"
    },
    {
      "channel": 4,
      "note": 85,
      "start": 34.2785,
      "duration": 0.1244,
      "velocity": 93,
      "chip": "ym2612"
    },
    {
      "channel": 3,
      "note": 81,
      "start": 34.4024,
      "duration": 1.2029,
      "velocity": 1,
      "chip": "ym2612"
    },
    {
      "channel": 4,
      "note": 85,
      "start": 34.4031,
      "duration": 0.121,
      "velocity": 93,
      "chip": "ym2612"
    },
    {
      "channel": 5,
      "note": 74,
      "start": 34.4039,
      "duration": 0.0525,
      "velocity": 127,
      "chip": "ym2612"
    },
    {
      "channel": 5,
      "note": 74,
      "start": 34.4566,
      "duration": 0.0702,
      "velocity": 127,
      "chip": "ym2612"
    },
    {
      "channel": 0,
      "note": 69,
      "start": 34.5208,
      "duration": 0.2331,
      "velocity": 119,
      "chip": "ym2612"
    },
    {
      "channel": 1,
      "note": 73,
      "start": 34.5234,
      "duration": 0.2332,
      "velocity": 119,
      "chip": "ym2612"
    },
    {
      "channel": 4,
      "note": 83,
      "start": 34.5243,
      "duration": 0.2338,
      "velocity": 93,
      "chip": "ym2612"
    },
    {
      "channel": 5,
      "note": 38,
      "start": 34.527,
      "duration": 0.2318,
      "velocity": 127,
      "chip": "ym2612"
    },
    {
      "channel": 0,
      "note": 69,
      "start": 34.7542,
      "duration": 0.4811,
      "velocity": 119,
      "chip": "ym2612"
    },
    {
      "channel": 1,
      "note": 73,
      "start": 34.7568,
      "duration": 0.3637,
      "velocity": 119,
      "chip": "ym2612"
    },
    {
      "channel": 2,
      "note": 57,
      "start": 34.7575,
      "duration": 0.1279,
      "velocity": 112,
      "chip": "ym2612"
    },
    {
      "channel": 4,
      "note": 81,
      "start": 34.7583,
      "duration": 1.0793,
      "velocity": 1,
      "chip": "ym2612"
    },
    {
      "channel": 5,
      "note": 55,
      "start": 34.7591,
      "duration": 0.1311,
      "velocity": 127,
      "chip": "ym2612"
    },
    {
      "channel": 2,
      "note": 47,
      "start": 34.8856,
      "duration": 0.3511,
      "velocity": 112,
      "chip": "ym2612"
    },
    {
      "channel": 5,
      "note": 74,
      "start": 34.8904,
      "duration": 0.2311,
      "velocity": 127,
      "chip": "ym2612"
    },
    {
      "channel": 1,
      "note": 81,
      "start": 35.1208,
      "duration": 0.1152,
      "velocity": 119,
      "chip": "ym2612"
    },
    {
      "channel": 5,
      "note": 74,
      "start": 35.1217,
      "duration": 0.1178,
      "velocity": 127,
      "chip": "ym2612"
    },
    {
      "channel": 0,
      "note": 69,
      "start": 35.2355,
      "duration": 0.5966,
      "velocity": 119,
      "chip": "ym2612"
    },
    {
      "channel": 1,
      "note": 78,
      "start": 35.2362,
      "duration": 0.2491,
      "velocity": 119,
      "chip": "ym2612"
    },
    {
      "channel": 2,
      "note": 48,
      "start": 35.2369,
      "duration": 0.3658,
      "velocity": 112,
      "chip": "ym2612"
    },
    {
      "channel": 5,
      "note": 38,
      "start": 35.2397,
      "duration": 0.2485,
      "velocity": 127,
      "chip": "ym2612"
    },
    {
      "channel": 1,
      "note": 76,
      "start": 35.4855,
      "duration": 0.1165,
      "velocity": 119,
      "chip": "ym2612"
    },
    {
      "channel": 5,
      "note": 74,
      "start": 35.4884,
      "duration": 0.0472,
      "velocity": 127,
      "chip": "ym2612"
    },
    {
      "channel": 5,
      "note": 74,
      "start": 35.5359,
      "duration": 0.1781,
      "velocity": 127,
      "chip": "ym2612"
    },
    {
      "channel": 1,
      "note": 78,
      "start": 35.6022,
      "duration": 0.0041,
      "velocity": 119,
      "chip": "ym2612"
    },
    {
      "channel": 2,
      "note": 49,
      "start": 35.6029,
      "duration": 0.48,
      "velocity": 112,
      "chip": "ym2612"
    },
    {
      "channel": 3,
      "note": 79,
      "start": 35.6056,
      "duration": 1.5586,
      "velocity": 119,
      "chip": "ym2612"
    },
    {
      "channel": 1,
      "note": 79,
      "start": 35.6065,
      "duration": 0.2283,
      "velocity": 119,
      "chip": "ym2612"
    },
    {
      "channel": 5,
      "note": 74,
      "start": 35.7141,
      "duration": 0.1261,
      "velocity": 127,
      "chip": "ym2612"
    },
    {
      "channel": 0,
      "note": 69,
      "start": 35.8323,
      "duration": 0.2498,
      "velocity": 119,
      "chip": "ym2612"
    },
    {
      "channel": 1,
      "note": 78,
      "start": 35.835,
      "duration": 0.3618,
      "velocity": 119,
      "chip": "ym2612"
    },
    {
      "channel": 4,
      "note": 79,
      "start": 35.8378,
      "duration": 1.329,
      "velocity": 119,
      "chip": "ym2612"
    },
    {
      "channel": 5,
      "note": 38,
      "start": 35.8405,
      "duration": 0.2432,
      "velocity": 127,
      "chip": "ym2612"
    },
    {
      "channel": 0,
      "note": 69,
      "start": 36.0823,
      "duration": 0.4812,
      "velocity": 119,
      "chip": "ym2612"
    },
    {
      "channel": 2,
      "note": 61,
      "start": 36.0831,
      "duration": 0.3498,
      "velocity": 112,
      "chip": "ym2612"
    },
    {
      "channel": 5,
      "note": 55,
      "start": 36.084,
      "duration": 0.1157,
      "velocity": 127,
      "chip": "ym2612"
    },
    {
      "channel": 1,
      "note": 76,
      "start": 36.197,
      "duration": 0.2351,
      "velocity": 119,
      "chip": "ym2612"
    },
    {
      "channel": 5,
      "note": 74,
      "start": 36.1999,
      "duration": 0.2338,
      "velocity": 127,
      "chip": "ym2612"
    },
    {
      "channel": 1,
      "note": 71,
      "start": 36.4323,
      "duration": 0.0645,
      "velocity": 119,
      "chip": "ym2612"
    },
    {
      "channel": 2,
      "note": 61,
      "start": 36.433,
      "duration": 0.1319,
      "velocity": 112,
      "chip": "ym2612"
    },
    {
      "channel": 5,
      "note": 74,
      "start": 36.434,
      "duration": 0.1337,
      "velocity": 127,
      "chip": "ym2612"
    },
    {
      "channel": 1,
      "note": 72,
      "start": 36.4971,
      "duration": 0.0671,
      "velocity": 119,
      "chip": "ym2612"
    },
    {
      "channel": 0,
      "note": 69,
      "start": 36.5637,
      "duration": 0.5976,
      "velocity": 119,
      "chip": "ym2612"
    },
    {
      "channel": 1,
      "note": 71,
      "start": 36.5644,
      "duration": 0.2344,
      "velocity": 119,
      "chip": "ym2612"
    },
    {
      "channel": 2,
      "note": 49,
      "start": 36.5651,
      "duration": 0.3487,
      "velocity": 112,
      "chip": "ym2612"
    },
    {
      "channel": 5,
      "note": 38,
      "start": 36.5679,
      "duration": 0.2337,
      "velocity": 127,
      "chip": "ym2612"
    },
    {
      "channel": 1,
      "note": 69,
      "start": 36.799,
      "duration": 1.3123,
      "velocity": 119,
      "chip": "ym2612"
    },
    {
      "channel": 5,
      "note": 74,
      "start": 36.8019,
      "duration": 0.062,
      "velocity": 127,
      "chip": "ym2612"
    },
    {
      "channel": 5,
      "note": 74,
      "start": 36.8642,
      "duration": 0.1789,
      "velocity": 127,
      "chip": "ym2612"
    },
    {
      "channel": 2,
      "note": 50,
      "start": 36.914,
      "duration": 0.4815,
      "velocity": 112,
      "chip": "ym2612"
    },
    {
      "channel": 5,
      "note": 74,
      "start": 37.0433,
      "duration": 0.0537,
      "velocity": 127,
      "chip": "ym2612"
    },
    {
      "channel": 5,
      "note": 74,
      "start": 37.0973,
      "duration": 0.0722,
      "velocity": 127,
      "chip": "ym2612"
    },
    {
      "channel": 0,
      "note": 69,
      "start": 37.1615,
      "duration": 0.2331,
      "velocity": 119,
      "chip": "ym2612"
    },
    {
      "channel": 3,
      "note": 62,
      "start": 37.1644,
      "duration": 0.2338,
      "velocity": 119,
      "chip": "ym2612"
    },
    {
      "channel": 4,
      "note": 66,
      "start": 37.1671,
      "duration": 0.2338,
      "velocity": 119,
      "chip": "ym2612"
    },
    {
      "channel": 5,
      "note": 38,
      "start": 37.1697,
      "duration": 0.2318,
      "velocity": 127,
      "chip": "ym2612"
    },
    {
      "channel": 0,
      "note": 69,
      "start": 37.3949,
      "duration": 0.4811,
      "velocity": 119,
      "chip": "ym2612"
    },
    {
      "channel": 2,
      "note": 50,
      "start": 37.3957,
      "duration": 0.3637,
      "velocity": 112,
      "chip": "ym2612"
    },
    {
      "channel": 3,
      "note": 62,
      "start": 37.3983,
      "duration": 0.4792,
      "velocity": 119,
      "chip": "ym2612"
    },
    {
      "channel": 4,
      "note": 66,
      "start": 37.401,
      "duration": 0.4773,
      "velocity": 119,
      "chip": "ym2612"
    },
    {
      "channel": 5,
      "note": 55,
      "start": 37.4017,
      "duration": 0.1099,
      "velocity": 127,
      "chip": "ym2612"
    },
    {
      "channel": 5,
      "note": 74,
      "start": 37.5118,
      "duration": 0.2485,
      "velocity": 127,
      "chip": "ym2612"
    },
    {
      "channel": 2,
      "note": 62,
      "start": 37.7596,
      "duration": 0.1172,
      "velocity": 112,
      "chip": "ym2612"
    },
    {
      "channel": 5,
      "note": 74,
      "start": 37.7606,
      "duration": 0.1203,
      "velocity": 127,
      "chip": "ym2612"
    },
    {
      "channel": 0,
      "note": 69,
      "start": 37.8762,
      "duration": 0.5976,
      "velocity": 119,
      "chip": "ym2612"
    },
    {
      "channel": 2,
      "note": 51,
      "start": 37.877,
      "duration": 0.3664,
      "velocity": 112,
      "chip": "ym2612"
    },
    {
      "channel": 3,
      "note": 62,
      "start": 37.8777,
      "duration": 0.5996,
      "velocity": 119,
      "chip": "ym2612"
    },
    {
      "channel": 4,
      "note": 66,
      "start": 37.8785,
      "duration": 0.6015,
      "velocity": 119,
      "chip": "ym2612"
    },
    {
      "channel": 5,
      "note": 38,
      "start": 37.8812,
      "duration": 0.2331,
      "velocity": 127,
      "chip": "ym2612"
    },
    {
      "channel": 1,
      "note": 69,
      "start": 38.1115,
      "duration": 0.1312,
      "velocity": 119,
      "chip": "ym2612"
    },
    {
      "channel": 5,
      "note": 74,
      "start": 38.1144,
      "duration": 0.0619,
      "velocity": 127,
      "chip": "ym2612"
    },
    {
      "channel": 5,
      "note": 74,
      "start": 38.1766,
      "duration": 0.1816,
      "velocity": 127,
      "chip": "ym2612"
    },
    {
      "channel": 1,
      "note": 73,
      "start": 38.2429,
      "duration": 0.1142,
      "velocity": 119,
      "chip": "ym2612"
    },
    {
      "channel": 2,
      "note": 52,
      "start": 38.2436,
      "duration": 0.8309,
      "velocity": 112,
      "chip": "ym2612"
    },
    {
      "channel": 1,
      "note": 73,
      "start": 38.3574,
      "duration": 0.1172,
      "velocity": 119,
      "chip": "ym2612"
    },
    {
      "channel": 5,
      "note": 74,
      "start": 38.3584,
      "duration": 0.1243,
      "velocity": 127,
      "chip": "ym2612"
    },
    {
      "channel": 0,
      "note": 64,
      "start": 38.4741,
      "duration": 0.2498,
      "velocity": 119,
      "chip": "ym2612"
    },
    {
      "channel": 1,
      "note": 74,
      "start": 38.4748,
      "duration": 0.2517,
      "velocity": 119,
      "chip": "ym2612"
    },
    {
      "channel": 3,
      "note": 59,
      "start": 38.4776,
      "duration": 0.2518,
      "velocity": 119,
      "chip": "ym2612"
    },
    {
      "channel": 4,
      "note": 68,
      "start": 38.4802,
      "duration": 0.2518,
      "velocity": 119,
      "chip": "ym2612"
    },
    {
      "channel": 5,
      "note": 38,
      "start": 38.4829,
      "duration": 0.2498,
      "velocity": 127,
      "chip": "ym2612"
    },
    {
      "channel": 0,
      "note": 64,
      "start": 38.7241,
      "duration": 0.4645,
      "velocity": 119,
      "chip": "ym2612"
    },
    {
      "channel": 1,
      "note": 75,
      "start": 38.7268,
      "duration": 0.1118,
      "velocity": 119,
      "chip": "ym2612"
    },
    {
      "channel": 3,
      "note": 59,
      "start": 38.7295,
      "duration": 0.4612,
      "velocity": 119,
      "chip": "ym2612"
    },
    {
      "channel": 4,
      "note": 68,
      "start": 38.7322,
      "duration": 0.4592,
      "velocity": 119,
      "chip": "ym2612"
    },
    {
      "channel": 5,
      "note": 55,
      "start": 38.733,
      "duration": 0.1085,
      "velocity": 127,
      "chip": "ym2612"
    },
    {
      "channel": 1,
      "note": 76,
      "start": 38.8388,
      "duration": 0.2351,
      "velocity": 119,
      "chip": "ym2612"
    },
    {
      "channel": 5,
      "note": 74,
      "start": 38.8417,
      "duration": 0.2337,
      "velocity": 127,
      "chip": "ym2612"
    },
    {
      "channel": 1,
      "note": 71,
      "start": 39.0741,
      "duration": 0.0645,
      "velocity": 119,
      "chip": "ym2612"
    },
    {
      "channel": 2,
      "note": 52,
      "start": 39.0748,
      "duration": 0.1153,
      "velocity": 112,
      "chip": "ym2612"
    },
    {
      "channel": 5,
      "note": 74,
      "start": 39.0757,
      "duration": 0.1183,
      "velocity": 127,
      "chip": "ym2612"
    },
    {
      "channel": 1,
      "note": 72,
      "start": 39.1388,
      "duration": 0.0505,
      "velocity": 119,
      "chip": "ym2612"
    },
    {
      "channel": 0,
      "note": 64,
      "start": 39.1888,
      "duration": 0.6133,
      "velocity": 119,
      "chip": "ym2612"
    },
    {
      "channel": 1,
      "note": 71,
      "start": 39.1895,
      "duration": 0.251,
      "velocity": 119,
      "chip": "ym2612"
    },
    {
      "channel": 2,
      "note": 54,
      "start": 39.1902,
      "duration": 0.251,
      "velocity": 112,
      "chip": "ym2612"
    },
    {
      "channel": 3,
      "note": 59,
      "start": 39.1909,
      "duration": 0.6141,
      "velocity": 119,
      "chip": "ym2612"
    },
    {
      "channel": 4,
      "note": 68,
      "start": 39.1916,
      "duration": 21.2819,
      "velocity": 119,
      "chip": "ym2612"
    },
    {
      "channel": 5,
      "note": 38,
      "start": 39.1943,
      "duration": 0.2498,
      "velocity": 127,
      "chip": "ym2612"
    },
    {
      "channel": 1,
      "note": 69,
      "start": 39.4407,
      "duration": 1.6758,
      "velocity": 119,
      "chip": "ym2612"
    },
    {
      "channel": 2,
      "note": 57,
      "start": 39.4414,
      "duration": 0.1141,
      "velocity": 112,
      "chip": "ym2612"
    },
    {
      "channel": 5,
      "note": 74,
      "start": 39.4443,
      "duration": 0.0467,
      "velocity": 127,
      "chip": "ym2612"
    },
    {
      "channel": 5,
      "note": 74,
      "start": 39.4912,
      "duration": 0.1761,
      "velocity": 127,
      "chip": "ym2612"
    },
    {
      "channel": 2,
      "note": 57,
      "start": 39.5557,
      "duration": 0.4805,
      "velocity": 112,
      "chip": "ym2612"
    },
    {
      "channel": 5,
      "note": 74,
      "start": 39.6675,
      "duration": 0.0704,
      "velocity": 127,
      "chip": "ym2612"
    },
    {
      "channel": 5,
      "note": 74,
      "start": 39.7381,
      "duration": 0.0697,
      "velocity": 127,
      "chip": "ym2612"
    },
    {
      "channel": 0,
      "note": 69,
      "start": 39.8024,
      "duration": 0.2331,
      "velocity": 119,
      "chip": "ym2612"
    },
    {
      "channel": 3,
      "note": 73,
      "start": 39.8052,
      "duration": 0.2337,
      "velocity": 119,
      "chip": "ym2612"
    },
    {
      "channel": 5,
      "note": 38,
      "start": 39.808,
      "duration": 0.2318,
      "velocity": 127,
      "chip": "ym2612"
    },
    {
      "channel": 0,
      "note": 69,
      "start": 40.0357,
      "duration": 0.4811,
      "velocity": 119,
      "chip": "ym2612"
    },
    {
      "channel": 2,
      "note": 57,
      "start": 40.0365,
      "duration": 0.1138,
      "velocity": 112,
      "chip": "ym2612"
    },
    {
      "channel": 3,
      "note": 73,
      "start": 40.0392,
      "duration": 0.4791,
      "velocity": 119,
      "chip": "ym2612"
    },
    {
      "channel": 5,
      "note": 55,
      "start": 40.04,
      "duration": 0.1131,
      "velocity": 127,
      "chip": "ym2612"
    },
    {
      "channel": 2,
      "note": 47,
      "start": 40.1505,
      "duration": 0.3672,
      "velocity": 112,
      "chip": "ym2612"
    },
    {
      "channel": 5,
      "note": 74,
      "start": 40.1533,
      "duration": 0.2472,
      "velocity": 127,
      "chip": "ym2612"
    },
    {
      "channel": 5,
      "note": 74,
      "start": 40.4008,
      "duration": 0.1203,
      "velocity": 127,
      "chip": "ym2612"
    },
    {
      "channel": 0,
      "note": 69,
      "start": 40.5171,
      "duration": 0.5967,
      "velocity": 119,
      "chip": "ym2612"
    },
    {
      "channel": 2,
      "note": 48,
      "start": 40.5178,
      "duration": 0.3491,
      "velocity": 112,
      "chip": "ym2612"
    },
    {
      "channel": 3,
      "note": 73,
      "start": 40.5185,
      "duration": 0.6007,
      "velocity": 119,
      "chip": "ym2612"
    },
    {
      "channel": 5,
      "note": 38,
      "start": 40.5213,
      "duration": 0.2312,
      "velocity": 127,
      "chip": "ym2612"
    },
    {
      "channel": 5,
      "note": 74,
      "start": 40.7527,
      "duration": 0.0645,
      "velocity": 127,
      "chip": "ym2612"
    },
    {
      "channel": 5,
      "note": 74,
      "start": 40.8174,
      "duration": 0.1782,
      "velocity": 127,
      "chip": "ym2612"
    },
    {
      "channel": 2,
      "note": 49,
      "start": 40.8671,
      "duration": 0.4834,
      "velocity": 112,
      "chip": "ym2612"
    },
    {
      "channel": 5,
      "note": 74,
      "start": 40.9958,
      "duration": 0.1262,
      "velocity": 127,
      "chip": "ym2612"
    },
    {
      "channel": 0,
      "note": 69,
      "start": 41.114,
      "duration": 0.2331,
      "velocity": 119,
      "chip": "ym2612"
    },
    {
      "channel": 1,
      "note": 64,
      "start": 41.1167,
      "duration": 0.2331,
      "velocity": 119,
      "chip": "ym2612"
    },
    {
      "channel": 3,
      "note": 73,
      "start": 41.1195,
      "duration": 0.2337,
      "velocity": 119,
      "chip": "ym2612"
    },
    {
      "channel": 5,
      "note": 38,
      "start": 41.1222,
      "duration": 0.2318,
      "velocity": 127,
      "chip": "ym2612"
    },
    {
      "channel": 0,
      "note": 69,
      "start": 41.3474,
      "duration": 0.4811,
      "velocity": 119,
      "chip": "ym2612"
    },
    {
      "channel": 1,
      "note": 64,
      "start": 41.35,
      "duration": 0.4792,
      "velocity": 119,
      "chip": "ym2612"
    },
    {
      "channel": 2,
      "note": 61,
      "start": 41.3507,
      "duration": 0.3612,
      "velocity": 112,
      "chip": "ym2612"
    },
    {
      "channel": 3,
      "note": 72,
      "start": 41.3534,
      "duration": 0.0587,
      "velocity": 119,
      "chip": "ym2612"
    },
    {
      "channel": 5,
      "note": 55,
      "start": 41.3542,
      "duration": 0.1266,
      "velocity": 127,
      "chip": "ym2612"
    },
    {
      "channel": 3,
      "note": 73,
      "start": 41.4124,
      "duration": 0.4183,
      "velocity": 119,
      "chip": "ym2612"
    },
    {
      "channel": 5,
      "note": 74,
      "start": 41.4811,
      "duration": 0.2317,
      "velocity": 127,
      "chip": "ym2612"
    },
    {
      "channel": 2,
      "note": 61,
      "start": 41.7121,
      "duration": 0.1178,
      "velocity": 112,
      "chip": "ym2612"
    },
    {
      "channel": 5,
      "note": 74,
      "start": 41.7131,
      "duration": 0.1203,
      "velocity": 127,
      "chip": "ym2612"
    },
    {
      "channel": 0,
      "note": 69,
      "start": 41.8287,
      "duration": 0.5968,
      "velocity": 119,
      "chip": "ym2612"
    },
    {
      "channel": 1,
      "note": 64,
      "start": 41.8294,
      "duration": 0.5987,
      "velocity": 119,
      "chip": "ym2612"
    },
    {
      "channel": 2,
      "note": 49,
      "start": 41.8301,
      "duration": 0.3654,
      "velocity": 112,
      "chip": "ym2612"
    },
    {
      "channel": 3,
      "note": 73,
      "start": 41.8309,
      "duration": 0.6,
      "velocity": 119,
      "chip": "ym2612"
    },
    {
      "channel": 5,
      "note": 38,
      "start": 41.8336,
      "duration": 0.2472,
      "velocity": 127,
      "chip": "ym2612"
    },
    {
      "channel": 5,
      "note": 74,
      "start": 42.081,
      "duration": 0.048,
      "velocity": 127,
      "chip": "ym2612"
    },
    {
      "channel": 5,
      "note": 74,
      "start": 42.1291,
      "duration": 0.1781,
      "velocity": 127,
      "chip": "ym2612"
    },
    {
      "channel": 2,
      "note": 50,
      "start": 42.1957,
      "duration": 0.4832,
      "velocity": 112,
      "chip": "ym2612"
    },
    {
      "channel": 5,
      "note": 74,
      "start": 42.3075,
      "duration": 0.0704,
      "velocity": 127,
      "chip": "ym2612"
    },
    {
      "channel": 5,
      "note": 74,
      "start": 42.3781,
      "duration": 0.0555,
      "velocity": 127,
      "chip": "ym2612"
    },
    {
      "channel": 0,
      "note": 69,
      "start": 42.4257,
      "duration": 0.2498,
      "velocity": 119,
      "chip": "ym2612"
    },
    {
      "channel": 1,
      "note": 66,
      "start": 42.4283,
      "duration": 0.2498,
      "velocity": 119,
      "chip": "ym2612"
    },
    {
      "channel": 3,
      "note": 62,
      "start": 42.4311,
      "duration": 0.2505,
      "velocity": 119,
      "chip": "ym2612"
    },
    {
      "channel": 5,
      "note": 38,
      "start": 42.4339,
      "duration": 0.2485,
      "velocity": 127,
      "chip": "ym2612"
    },
    {
      "channel": 0,
      "note": 69,
      "start": 42.6757,
      "duration": 0.4811,
      "velocity": 119,
      "chip": "ym2612"
    },
    {
      "channel": 1,
      "note": 66,
      "start": 42.6783,
      "duration": 0.4793,
      "velocity": 119,
      "chip": "ym2612"
    },
    {
      "channel": 2,
      "note": 50,
      "start": 42.679,
      "duration": 0.3445,
      "velocity": 112,
      "chip": "ym2612"
    },
    {
      "channel": 3,
      "note": 62,
      "start": 42.6818,
      "duration": 0.4772,
      "velocity": 119,
      "chip": "ym2612"
    },
    {
      "channel": 5,
      "note": 55,
      "start": 42.6826,
      "duration": 0.1098,
      "velocity": 127,
      "chip": "ym2612"
    },
    {
      "channel": 5,
      "note": 74,
      "start": 42.7927,
      "duration": 0.2318,
      "velocity": 127,
      "chip": "ym2612"
    },
    {
      "channel": 2,
      "note": 62,
      "start": 43.0238,
      "duration": 0.1345,
      "velocity": 112,
      "chip": "ym2612"
    },
    {
      "channel": 5,
      "note": 74,
      "start": 43.0247,
      "duration": 0.137,
      "velocity": 127,
      "chip": "ym2612"
    },
    {
      "channel": 0,
      "note": 69,
      "start": 43.157,
      "duration": 0.5968,
      "velocity": 119,
      "chip": "ym2612"
    },
    {
      "channel": 1,
      "note": 66,
      "start": 43.1578,
      "duration": 0.5986,
      "velocity": 119,
      "chip": "ym2612"
    },
    {
      "channel": 2,
      "note": 51,
      "start": 43.1585,
      "duration": 0.3484,
      "velocity": 112,
      "chip": "ym2612"
    },
    {
      "channel": 3,
      "note": 62,
      "start": 43.1592,
      "duration": 0.6,
      "velocity": 119,
      "chip": "ym2612"
    },
    {
      "channel": 5,
      "note": 38,
      "start": 43.162,
      "duration": 0.2305,
      "velocity": 127,
      "chip": "ym2612"
    },
    {
      "channel": 5,
      "note": 74,
      "start": 43.3927,
      "duration": 0.0645,
      "velocity": 127,
      "chip": "ym2612"
    },
    {
      "channel": 5,
      "note": 74,
      "start": 43.4574,
      "duration": 0.1781,
      "velocity": 127,
      "chip": "ym2612"
    },
    {
      "channel": 2,
      "note": 52,
      "start": 43.5071,
      "duration": 0.8447,
      "velocity": 112,
      "chip": "ym2612"
    },
    {
      "channel": 5,
      "note": 74,
      "start": 43.6358,
      "duration": 0.1261,
      "velocity": 127,
      "chip": "ym2612"
    },
    {
      "channel": 0,
      "note": 64,
      "start": 43.754,
      "duration": 0.2331,
      "velocity": 119,
      "chip": "ym2612"
    },
    {
      "channel": 1,
      "note": 68,
      "start": 43.7567,
      "duration": 0.2331,
      "velocity": 119,
      "chip": "ym2612"
    },
    {
      "channel": 3,
      "note": 59,
      "start": 43.7594,
      "duration": 0.2332,
      "velocity": 119,
      "chip": "ym2612"
    },
    {
      "channel": 5,
      "note": 38,
      "start": 43.7622,
      "duration": 0.2312,
      "velocity": 127,
      "chip": "ym2612"
    },
    {
      "channel": 0,
      "note": 64,
      "start": 43.9873,
      "duration": 0.4812,
      "velocity": 119,
      "chip": "ym2612"
    },
    {
      "channel": 1,
      "note": 68,
      "start": 43.99,
      "duration": 0.4792,
      "velocity": 119,
      "chip": "ym2612"
    },
    {
      "channel": 3,
      "note": 59,
      "start": 43.9927,
      "duration": 0.4779,
      "velocity": 119,
      "chip": "ym2612"
    },
    {
      "channel": 5,
      "note": 55,
      "start": 43.9936,
      "duration": 0.1105,
      "velocity": 127,
      "chip": "ym2612"
    },
    {
      "channel": 5,
      "note": 74,
      "start": 44.1043,
      "duration": 0.2485,
      "velocity": 127,
      "chip": "ym2612"
    },
    {
      "channel": 2,
      "note": 52,
      "start": 44.3521,
      "duration": 0.1178,
      "velocity": 112,
      "chip": "ym2612"
    },
    {
      "channel": 5,
      "note": 74,
      "start": 44.353,
      "duration": 0.1203,
      "velocity": 127,
      "chip": "ym2612"
    },
    {
      "channel": 0,
      "note": 64,
      "start": 44.4687,
      "duration": 0.5968,
      "velocity": 119,
      "chip": "ym2612"
    },
    {
      "channel": 1,
      "note": 68,
      "start": 44.4694,
      "duration": 0.5987,
      "velocity": 119,
      "chip": "ym2612"
    },
    {
      "channel": 2,
      "note": 54,
      "start": 44.4701,
      "duration": 0.2318,
      "velocity": 112,
      "chip": "ym2612"
    },
    {
      "channel": 3,
      "note": 59,
      "start": 44.4708,
      "duration": 0.6,
      "velocity": 119,
      "chip": "ym2612"
    },
    {
      "channel": 5,
      "note": 38,
      "start": 44.4736,
      "duration": 0.2312,
      "velocity": 127,
      "chip": "ym2612"
    },
    {
      "channel": 2,
      "note": 57,
      "start": 44.7021,
      "duration": 0.1333,
      "velocity": 112,
      "chip": "ym2612"
    },
    {
      "channel": 5,
      "note": 74,
      "start": 44.7049,
      "duration": 0.066,
      "velocity": 127,
      "chip": "ym2612"
    },
    {
      "channel": 5,
      "note": 74,
      "start": 44.7711,
      "duration": 0.1761,
      "velocity": 127,
      "chip": "ym2612"
    },
    {
      "channel": 2,
      "note": 57,
      "start": 44.8357,
      "duration": 0.4827,
      "velocity": 112,
      "chip": "ym2612"
    },
    {
      "channel": 5,
      "note": 74,
      "start": 44.9474,
      "duration": 0.0704,
      "velocity": 127,
      "chip": "ym2612"
    },
    {
      "channel": 5,
      "note": 74,
      "start": 45.018,
      "duration": 0.0555,
      "velocity": 127,
      "chip": "ym2612"
    },
    {
      "channel": 0,
      "note": 69,
      "start": 45.0656,
      "duration": 0.2498,
      "velocity": 119,
      "chip": "ym2612"
    },
    {
      "channel": 1,
      "note": 64,
      "start": 45.0683,
      "duration": 0.3638,
      "velocity": 119,
      "chip": "ym2612"
    },
    {
      "channel": 3,
      "note": 73,
      "start": 45.071,
      "duration": 0.2499,
      "velocity": 119,
      "chip": "ym2612"
    },
    {
      "channel": 5,
      "note": 38,
      "start": 45.0739,
      "duration": 0.2479,
      "velocity": 127,
      "chip": "ym2612"
    },
    {
      "channel": 0,
      "note": 69,
      "start": 45.3156,
      "duration": 0.4645,
      "velocity": 119,
      "chip": "ym2612"
    },
    {
      "channel": 2,
      "note": 57,
      "start": 45.3185,
      "duration": 0.1143,
      "velocity": 112,
      "chip": "ym2612"
    },
    {
      "channel": 3,
      "note": 73,
      "start": 45.3212,
      "duration": 0.4611,
      "velocity": 119,
      "chip": "ym2612"
    },
    {
      "channel": 5,
      "note": 55,
      "start": 45.322,
      "duration": 0.1137,
      "velocity": 127,
      "chip": "ym2612"
    },
    {
      "channel": 1,
      "note": 81,
      "start": 45.4323,
      "duration": 0.2312,
      "velocity": 119,
      "chip": "ym2612"
    },
    {
      "channel": 2,
      "note": 47,
      "start": 45.433,
      "duration": 0.3485,
      "velocity": 112,
      "chip": "ym2612"
    },
    {
      "channel": 5,
      "note": 74,
      "start": 45.4359,
      "duration": 0.2285,
      "velocity": 127,
      "chip": "ym2612"
    },
    {
      "channel": 1,
      "note": 78,
      "start": 45.6637,
      "duration": 0.1172,
      "velocity": 119,
      "chip": "ym2612"
    },
    {
      "channel": 5,
      "note": 74,
      "start": 45.6647,
      "duration": 0.1203,
      "velocity": 127,
      "chip": "ym2612"
    },
    {
      "channel": 0,
      "note": 69,
      "start": 45.7803,
      "duration": 0.6134,
      "velocity": 119,
      "chip": "ym2612"
    },
    {
      "channel": 1,
      "note": 76,
      "start": 45.781,
      "duration": 0.2491,
      "velocity": 119,
      "chip": "ym2612"
    },
    {
      "channel": 2,
      "note": 48,
      "start": 45.7817,
      "duration": 0.3652,
      "velocity": 112,
      "chip": "ym2612"
    },
    {
      "channel": 3,
      "note": 73,
      "start": 45.7825,
      "duration": 0.6166,
      "velocity": 119,
      "chip": "ym2612"
    },
    {
      "channel": 5,
      "note": 38,
      "start": 45.7852,
      "duration": 0.2478,
      "velocity": 127,
      "chip": "ym2612"
    },
    {
      "channel": 1,
      "note": 78,
      "start": 46.0303,
      "duration": 0.0498,
      "velocity": 119,
      "chip": "ym2612"
    },
    {
      "channel": 5,
      "note": 74,
      "start": 46.0333,
      "duration": 0.0478,
      "velocity": 127,
      "chip": "ym2612"
    },
    {
      "channel": 1,
      "note": 79,
      "start": 46.0803,
      "duration": 0.316,
      "velocity": 119,
      "chip": "ym2612"
    },
    {
      "channel": 5,
      "note": 74,
      "start": 46.0813,
      "duration": 0.1776,
      "velocity": 127,
      "chip": "ym2612"
    },
    {
      "channel": 2,
      "note": 49,
      "start": 46.1471,
      "duration": 0.4833,
      "velocity": 112,
      "chip": "ym2612"
    },
    {
      "channel": 5,
      "note": 74,
      "start": 46.259,
      "duration": 0.1428,
      "velocity": 127,
      "chip": "ym2612"
    },
    {
      "channel": 0,
      "note": 69,
      "start": 46.3939,
      "duration": 0.2331,
      "velocity": 119,
      "chip": "ym2612"
    },
    {
      "channel": 1,
      "note": 69,
      "start": 46.3966,
      "duration": 0.2331,
      "velocity": 119,
      "chip": "ym2612"
    },
    {
      "channel": 3,
      "note": 73,
      "start": 46.3994,
      "duration": 0.2337,
      "velocity": 119,
      "chip": "ym2612"
    },
    {
      "channel": 5,
      "note": 38,
      "start": 46.4021,
      "duration": 0.2318,
      "velocity": 127,
      "chip": "ym2612"
    },
    {
      "channel": 0,
      "note": 69,
      "start": 46.6273,
      "duration": 0.4811,
      "velocity": 119,
      "chip": "ym2612"
    },
    {
      "channel": 1,
      "note": 71,
      "start": 46.6299,
      "duration": 0.1118,
      "velocity": 119,
      "chip": "ym2612"
    },
    {
      "channel": 2,
      "note": 61,
      "start": 46.6306,
      "duration": 0.3638,
      "velocity": 112,
      "chip": "ym2612"
    },
    {
      "channel": 3,
      "note": 72,
      "start": 46.6333,
      "duration": 0.0587,
      "velocity": 119,
      "chip": "ym2612"
    },
    {
      "channel": 5,
      "note": 55,
      "start": 46.6342,
      "duration": 0.1105,
      "velocity": 127,
      "chip": "ym2612"
    },
    {
      "channel": 3,
      "note": 73,
      "start": 46.6922,
      "duration": 0.4183,
      "velocity": 119,
      "chip": "ym2612"
    },
    {
      "channel": 1,
      "note": 72,
      "start": 46.742,
      "duration": 0.0664,
      "velocity": 119,
      "chip": "ym2612"
    },
    {
      "channel": 5,
      "note": 74,
      "start": 46.7449,
      "duration": 0.2504,
      "velocity": 127,
      "chip": "ym2612"
    },
    {
      "channel": 1,
      "note": 73,
      "start": 46.8086,
      "duration": 0.1851,
      "velocity": 119,
      "chip": "ym2612"
    },
    {
      "channel": 1,
      "note": 74,
      "start": 46.9939,
      "duration": 0.1152,
      "velocity": 119,
      "chip": "ym2612"
    },
    {
      "channel": 2,
      "note": 61,
      "start": 46.9946,
      "duration": 0.1152,
      "velocity": 112,
      "chip": "ym2612"
    },
    {
      "channel": 5,
      "note": 74,
      "start": 46.9956,
      "duration": 0.1177,
      "velocity": 127,
      "chip": "ym2612"
    },
    {
      "channel": 0,
      "note": 69,
      "start": 47.1086,
      "duration": 0.5967,
      "velocity": 119,
      "chip": "ym2612"
    },
    {
      "channel": 1,
      "note": 75,
      "start": 47.1093,
      "duration": 0.2344,
      "velocity": 119,
      "chip": "ym2612"
    },
    {
      "channel": 2,
      "note": 49,
      "start": 47.11,
      "duration": 0.3487,
      "velocity": 112,
      "chip": "ym2612"
    },
    {
      "channel": 3,
      "note": 73,
      "start": 47.1107,
      "duration": 0.5974,
      "velocity": 119,
      "chip": "ym2612"
    },
    {
      "channel": 5,
      "note": 38,
      "start": 47.1135,
      "duration": 0.2331,
      "velocity": 127,
      "chip": "ym2612"
    },
    {
      "channel": 1,
      "note": 76,
      "start": 47.3439,
      "duration": 0.5975,
      "velocity": 119,
      "chip": "ym2612"
    },
    {
      "channel": 5,
      "note": 74,
      "start": 47.3468,
      "duration": 0.062,
      "velocity": 127,
      "chip": "ym2612"
    },
    {
      "channel": 5,
      "note": 74,
      "start": 47.4091,
      "duration": 0.18,
      "velocity": 127,
      "chip": "ym2612"
    },
    {
      "channel": 2,
      "note": 50,
      "start": 47.4589,
      "duration": 0.4832,
      "velocity": 112,
      "chip": "ym2612"
    },
    {
      "channel": 5,
      "note": 74,
      "start": 47.5893,
      "duration": 0.0518,
      "velocity": 127,
      "chip": "ym2612"
    },
    {
      "channel": 5,
      "note": 74,
      "start": 47.6413,
      "duration": 0.0697,
      "velocity": 127,
      "chip": "ym2612"
    },
    {
      "channel": 0,
      "note": 69,
      "start": 47.7056,
      "duration": 0.2331,
      "velocity": 119,
      "chip": "ym2612"
    },
    {
      "channel": 3,
      "note": 62,
      "start": 47.7084,
      "duration": 0.2363,
      "velocity": 119,
      "chip": "ym2612"
    },
    {
      "channel": 5,
      "note": 38,
      "start": 47.7112,
      "duration": 0.2344,
      "velocity": 127,
      "chip": "ym2612"
    },
    {
      "channel": 0,
      "note": 69,
      "start": 47.939,
      "duration": 0.4811,
      "velocity": 119,
      "chip": "ym2612"
    },
    {
      "channel": 1,
      "note": 81,
      "start": 47.9416,
      "duration": 0.1285,
      "velocity": 119,
      "chip": "ym2612"
    },
    {
      "channel": 2,
      "note": 50,
      "start": 47.9422,
      "duration": 0.3638,
      "velocity": 112,
      "chip": "ym2612"
    },
    {
      "channel": 3,
      "note": 62,
      "start": 47.945,
      "duration": 0.4772,
      "velocity": 119,
      "chip": "ym2612"
    },
    {
      "channel": 5,
      "note": 55,
      "start": 47.9458,
      "duration": 0.1271,
      "velocity": 127,
      "chip": "ym2612"
    },
    {
      "channel": 1,
      "note": 78,
      "start": 48.0702,
      "duration": 0.2351,
      "velocity": 119,
      "chip": "ym2612"
    },
    {
      "channel": 5,
      "note": 74,
      "start": 48.0732,
      "duration": 0.2338,
      "velocity": 127,
      "chip": "ym2612"
    },
    {
      "channel": 1,
      "note": 74,
      "start": 48.3056,
      "duration": 0.1152,
      "velocity": 119,
      "chip": "ym2612"
    },
    {
      "channel": 2,
      "note": 62,
      "start": 48.3063,
      "duration": 0.1152,
      "velocity": 112,
      "chip": "ym2612"
    },
    {
      "channel": 5,
      "note": 74,
      "start": 48.3072,
      "duration": 0.1177,
      "velocity": 127,
      "chip": "ym2612"
    },
    {
      "channel": 0,
      "note": 69,
      "start": 48.4202,
      "duration": 0.5973,
      "velocity": 119,
      "chip": "ym2612"
    },
    {
      "channel": 1,
      "note": 69,
      "start": 48.421,
      "duration": 0.2491,
      "velocity": 119,
      "chip": "ym2612"
    },
    {
      "channel": 2,
      "note": 51,
      "start": 48.4217,
      "duration": 0.3652,
      "velocity": 112,
      "chip": "ym2612"
    },
    {
      "channel": 3,
      "note": 62,
      "start": 48.4224,
      "duration": 0.6006,
      "velocity": 119,
      "chip": "ym2612"
    },
    {
      "channel": 5,
      "note": 38,
      "start": 48.4251,
      "duration": 0.2478,
      "velocity": 127,
      "chip": "ym2612"
    },
    {
      "channel": 1,
      "note": 83,
      "start": 48.6702,
      "duration": 0.0498,
      "velocity": 119,
      "chip": "ym2612"
    },
    {
      "channel": 5,
      "note": 74,
      "start": 48.6732,
      "duration": 0.0478,
      "velocity": 127,
      "chip": "ym2612"
    },
    {
      "channel": 1,
      "note": 84,
      "start": 48.7202,
      "duration": 0.3,
      "velocity": 119,
      "chip": "ym2612"
    },
    {
      "channel": 5,
      "note": 74,
      "start": 48.7212,
      "duration": 0.1781,
      "velocity": 127,
      "chip": "ym2612"
    },
    {
      "channel": 2,
      "note": 52,
      "start": 48.787,
      "duration": 0.8293,
      "velocity": 112,
      "chip": "ym2612"
    },
    {
      "channel": 5,
      "note": 74,
      "start": 48.8995,
      "duration": 0.1261,
      "velocity": 127,
      "chip": "ym2612"
    },
    {
      "channel": 0,
      "note": 64,
      "start": 49.0178,
      "duration": 0.2498,
      "velocity": 119,
      "chip": "ym2612"
    },
    {
      "channel": 1,
      "note": 83,
      "start": 49.0204,
      "duration": 0.3637,
      "velocity": 119,
      "chip": "ym2612"
    },
    {
      "channel": 3,
      "note": 59,
      "start": 49.0232,
      "duration": 0.2471,
      "velocity": 119,
      "chip": "ym2612"
    },
    {
      "channel": 5,
      "note": 38,
      "start": 49.026,
      "duration": 0.2452,
      "velocity": 127,
      "chip": "ym2612"
    },
    {
      "channel": 0,
      "note": 64,
      "start": 49.2678,
      "duration": 0.4812,
      "velocity": 119,
      "chip": "ym2612"
    },
    {
      "channel": 3,
      "note": 59,
      "start": 49.2706,
      "duration": 0.4824,
      "velocity": 119,
      "chip": "ym2612"
    },
    {
      "channel": 5,
      "note": 55,
      "start": 49.2714,
      "duration": 0.1157,
      "velocity": 127,
      "chip": "ym2612"
    },
    {
      "channel": 1,
      "note": 81,
      "start": 49.3844,
      "duration": 0.2312,
      "velocity": 119,
      "chip": "ym2612"
    },
    {
      "channel": 5,
      "note": 74,
      "start": 49.3873,
      "duration": 0.2298,
      "velocity": 127,
      "chip": "ym2612"
    },
    {
      "channel": 1,
      "note": 77,
      "start": 49.6159,
      "duration": 0.0664,
      "velocity": 119,
      "chip": "ym2612"
    },
    {
      "channel": 2,
      "note": 52,
      "start": 49.6165,
      "duration": 0.1358,
      "velocity": 112,
      "chip": "ym2612"
    },
    {
      "channel": 5,
      "note": 74,
      "start": 49.6174,
      "duration": 0.1383,
      "velocity": 127,
      "chip": "ym2612"
    },
    {
      "channel": 1,
      "note": 78,
      "start": 49.6825,
      "duration": 0.0691,
      "velocity": 119,
      "chip": "ym2612"
    },
    {
      "channel": 0,
      "note": 64,
      "start": 49.7491,
      "duration": 0.5967,
      "velocity": 119,
      "chip": "ym2612"
    },
    {
      "channel": 1,
      "note": 76,
      "start": 49.7518,
      "duration": 0.2324,
      "velocity": 119,
      "chip": "ym2612"
    },
    {
      "channel": 2,
      "note": 54,
      "start": 49.7525,
      "duration": 0.2324,
      "velocity": 112,
      "chip": "ym2612"
    },
    {
      "channel": 3,
      "note": 59,
      "start": 49.7532,
      "duration": 0.5955,
      "velocity": 119,
      "chip": "ym2612"
    },
    {
      "channel": 5,
      "note": 38,
      "start": 49.7559,
      "duration": 0.2319,
      "velocity": 127,
      "chip": "ym2612"
    },
    {
      "channel": 1,
      "note": 69,
      "start": 49.9844,
      "duration": 1.6758,
      "velocity": 119,
      "chip": "ym2612"
    },
    {
      "channel": 2,
      "note": 57,
      "start": 49.9851,
      "duration": 0.1141,
      "velocity": 112,
      "chip": "ym2612"
    },
    {
      "channel": 5,
      "note": 74,
      "start": 49.988,
      "duration": 0.0634,
      "velocity": 127,
      "chip": "ym2612"
    },
    {
      "channel": 5,
      "note": 74,
      "start": 50.0516,
      "duration": 0.176,
      "velocity": 127,
      "chip": "ym2612"
    },
    {
      "channel": 2,
      "note": 57,
      "start": 50.0994,
      "duration": 0.4805,
      "velocity": 112,
      "chip": "ym2612"
    },
    {
      "channel": 5,
      "note": 74,
      "start": 50.2279,
      "duration": 0.0537,
      "velocity": 127,
      "chip": "ym2612"
    },
    {
      "channel": 5,
      "note": 74,
      "start": 50.2818,
      "duration": 0.0696,
      "velocity": 127,
      "chip": "ym2612"
    },
    {
      "channel": 0,
      "note": 69,
      "start": 50.3461,
      "duration": 0.2331,
      "velocity": 119,
      "chip": "ym2612"
    },
    {
      "channel": 3,
      "note": 73,
      "start": 50.3489,
      "duration": 0.2337,
      "velocity": 119,
      "chip": "ym2612"
    },
    {
      "channel": 5,
      "note": 38,
      "start": 50.3517,
      "duration": 0.2318,
      "velocity": 127,
      "chip": "ym2612"
    },
    {
      "channel": 0,
      "note": 69,
      "start": 50.5794,
      "duration": 0.4812,
      "velocity": 119,
      "chip": "ym2612"
    },
    {
      "channel": 2,
      "note": 57,
      "start": 50.5802,
      "duration": 0.1138,
      "velocity": 112,
      "chip": "ym2612"
    },
    {
      "channel": 3,
      "note": 73,
      "start": 50.5829,
      "duration": 0.4791,
      "velocity": 119,
      "chip": "ym2612"
    },
    {
      "channel": 5,
      "note": 55,
      "start": 50.5837,
      "duration": 0.1131,
      "velocity": 127,
      "chip": "ym2612"
    },
    {
      "channel": 2,
      "note": 47,
      "start": 50.6942,
      "duration": 0.3671,
      "velocity": 112,
      "chip": "ym2612"
    },
    {
      "channel": 5,
      "note": 74,
      "start": 50.697,
      "duration": 0.2472,
      "velocity": 127,
      "chip": "ym2612"
    },
    {
      "channel": 5,
      "note": 74,
      "start": 50.9445,
      "duration": 0.1203,
      "velocity": 127,
      "chip": "ym2612"
    },
    {
      "channel": 0,
      "note": 69,
      "start": 51.0608,
      "duration": 0.5967,
      "velocity": 119,
      "chip": "ym2612"
    },
    {
      "channel": 2,
      "note": 48,
      "start": 51.0615,
      "duration": 0.3658,
      "velocity": 112,
      "chip": "ym2612"
    },
    {
      "channel": 3,
      "note": 73,
      "start": 51.0622,
      "duration": 0.6007,
      "velocity": 119,
      "chip": "ym2612"
    },
    {
      "channel": 5,
      "note": 38,
      "start": 51.065,
      "duration": 0.2311,
      "velocity": 127,
      "chip": "ym2612"
    },
    {
      "channel": 5,
      "note": 74,
      "start": 51.2964,
      "duration": 0.0645,
      "velocity": 127,
      "chip": "ym2612"
    },
    {
      "channel": 5,
      "note": 74,
      "start": 51.3612,
      "duration": 0.1781,
      "velocity": 127,
      "chip": "ym2612"
    },
    {
      "channel": 2,
      "note": 49,
      "start": 51.4275,
      "duration": 0.4834,
      "velocity": 112,
      "chip": "ym2612"
    },
    {
      "channel": 5,
      "note": 74,
      "start": 51.5395,
      "duration": 0.1261,
      "velocity": 127,
      "chip": "ym2612"
    },
    {
      "channel": 0,
      "note": 69,
      "start": 51.6577,
      "duration": 0.2498,
      "velocity": 119,
      "chip": "ym2612"
    },
    {
      "channel": 1,
      "note": 64,
      "start": 51.6604,
      "duration": 0.2498,
      "velocity": 119,
      "chip": "ym2612"
    },
    {
      "channel": 3,
      "note": 73,
      "start": 51.6632,
      "duration": 0.2504,
      "velocity": 119,
      "chip": "ym2612"
    },
    {
      "channel": 5,
      "note": 38,
      "start": 51.6659,
      "duration": 0.2485,
      "velocity": 127,
      "chip": "ym2612"
    },
    {
      "channel": 0,
      "note": 69,
      "start": 51.9078,
      "duration": 0.4644,
      "velocity": 119,
      "chip": "ym2612"
    },
    {
      "channel": 1,
      "note": 64,
      "start": 51.9104,
      "duration": 0.4625,
      "velocity": 119,
      "chip": "ym2612"
    },
    {
      "channel": 2,
      "note": 61,
      "start": 51.9111,
      "duration": 0.3445,
      "velocity": 112,
      "chip": "ym2612"
    },
    {
      "channel": 3,
      "note": 72,
      "start": 51.9138,
      "duration": 0.042,
      "velocity": 119,
      "chip": "ym2612"
    },
    {
      "channel": 5,
      "note": 55,
      "start": 51.9146,
      "duration": 0.1098,
      "velocity": 127,
      "chip": "ym2612"
    },
    {
      "channel": 3,
      "note": 73,
      "start": 51.9561,
      "duration": 0.4183,
      "velocity": 119,
      "chip": "ym2612"
    },
    {
      "channel": 5,
      "note": 74,
      "start": 52.0248,
      "duration": 0.2317,
      "velocity": 127,
      "chip": "ym2612"
    },
    {
      "channel": 2,
      "note": 61,
      "start": 52.2558,
      "duration": 0.1178,
      "velocity": 112,
      "chip": "ym2612"
    },
    {
      "channel": 5,
      "note": 74,
      "start": 52.2568,
      "duration": 0.1203,
      "velocity": 127,
      "chip": "ym2612"
    },
    {
      "channel": 0,
      "note": 69,
      "start": 52.3724,
      "duration": 0.6134,
      "velocity": 119,
      "chip": "ym2612"
    },
    {
      "channel": 1,
      "note": 64,
      "start": 52.3731,
      "duration": 0.6153,
      "velocity": 119,
      "chip": "ym2612"
    },
    {
      "channel": 2,
      "note": 49,
      "start": 52.3738,
      "duration": 0.3654,
      "velocity": 112,
      "chip": "ym2612"
    },
    {
      "channel": 3,
      "note": 73,
      "start": 52.3746,
      "duration": 0.6167,
      "velocity": 119,
      "chip": "ym2612"
    },
    {
      "channel": 5,
      "note": 38,
      "start": 52.3773,
      "duration": 0.2472,
      "velocity": 127,
      "chip": "ym2612"
    },
    {
      "channel": 5,
      "note": 74,
      "start": 52.6247,
      "duration": 0.048,
      "velocity": 127,
      "chip": "ym2612"
    },
    {
      "channel": 5,
      "note": 74,
      "start": 52.6728,
      "duration": 0.1781,
      "velocity": 127,
      "chip": "ym2612"
    },
    {
      "channel": 2,
      "note": 50,
      "start": 52.7394,
      "duration": 0.4832,
      "velocity": 112,
      "chip": "ym2612"
    },
    {
      "channel": 5,
      "note": 74,
      "start": 52.8511,
      "duration": 0.0704,
      "velocity": 127,
      "chip": "ym2612"
    },
    {
      "channel": 5,
      "note": 74,
      "start": 52.9218,
      "duration": 0.0722,
      "velocity": 127,
      "chip": "ym2612"
    },
    {
      "channel": 0,
      "note": 69,
      "start": 52.986,
      "duration": 0.2331,
      "velocity": 119,
      "chip": "ym2612"
    },
    {
      "channel": 1,
      "note": 66,
      "start": 52.9887,
      "duration": 0.2331,
      "velocity": 119,
      "chip": "ym2612"
    },
    {
      "channel": 3,
      "note": 62,
      "start": 52.9914,
      "duration": 0.2338,
      "velocity": 119,
      "chip": "ym2612"
    },
    {
      "channel": 5,
      "note": 38,
      "start": 52.9942,
      "duration": 0.2318,
      "velocity": 127,
      "chip": "ym2612"
    },
    {
      "channel": 0,
      "note": 69,
      "start": 53.2194,
      "duration": 0.4811,
      "velocity": 119,
      "chip": "ym2612"
    },
    {
      "channel": 1,
      "note": 66,
      "start": 53.222,
      "duration": 0.4793,
      "velocity": 119,
      "chip": "ym2612"
    },
    {
      "channel": 2,
      "note": 50,
      "start": 53.2227,
      "duration": 0.3612,
      "velocity": 112,
      "chip": "ym2612"
    },
    {
      "channel": 3,
      "note": 62,
      "start": 53.2255,
      "duration": 0.4772,
      "velocity": 119,
      "chip": "ym2612"
    },
    {
      "channel": 5,
      "note": 55,
      "start": 53.2263,
      "duration": 0.1098,
      "velocity": 127,
      "chip": "ym2612"
    },
    {
      "channel": 5,
      "note": 74,
      "start": 53.3363,
      "duration": 0.2485,
      "velocity": 127,
      "chip": "ym2612"
    },
    {
      "channel": 2,
      "note": 62,
      "start": 53.5841,
      "duration": 0.1179,
      "velocity": 112,
      "chip": "ym2612"
    },
    {
      "channel": 5,
      "note": 74,
      "start": 53.5851,
      "duration": 0.1203,
      "velocity": 127,
      "chip": "ym2612"
    },
    {
      "channel": 0,
      "note": 69,
      "start": 53.7007,
      "duration": 0.5967,
      "velocity": 119,
      "chip": "ym2612"
    },
    {
      "channel": 1,
      "note": 66,
      "start": 53.7015,
      "duration": 0.5987,
      "velocity": 119,
      "chip": "ym2612"
    },
    {
      "channel": 2,
      "note": 51,
      "start": 53.7022,
      "duration": 0.3484,
      "velocity": 112,
      "chip": "ym2612"
    },
    {
      "channel": 3,
      "note": 62,
      "start": 53.7029,
      "duration": 0.6006,
      "velocity": 119,
      "chip": "ym2612"
    },
    {
      "channel": 5,
      "note": 38,
      "start": 53.7057,
      "duration": 0.2305,
      "velocity": 127,
      "chip": "ym2612"
    },
    {
      "channel": 5,
      "note": 74,
      "start": 53.9363,
      "duration": 0.0645,
      "velocity": 127,
      "chip": "ym2612"
    },
    {
      "channel": 5,
      "note": 74,
      "start": 54.001,
      "duration": 0.1782,
      "velocity": 127,
      "chip": "ym2612"
    },
    {
      "channel": 2,
      "note": 52,
      "start": 54.0508,
      "duration": 0.25,
      "velocity": 112,
      "chip": "ym2612"
    },
    {
      "channel": 5,
      "note": 74,
      "start": 54.1794,
      "duration": 0.1269,
      "velocity": 127,
      "chip": "ym2612"
    },
    {
      "channel": 0,
      "note": 64,
      "start": 54.2977,
      "duration": 0.2331,
      "velocity": 119,
      "chip": "ym2612"
    },
    {
      "channel": 1,
      "note": 68,
      "start": 54.3003,
      "duration": 0.2331,
      "velocity": 119,
      "chip": "ym2612"
    },
    {
      "channel": 2,
      "note": 52,
      "start": 54.301,
      "duration": 0.3612,
      "velocity": 112,
      "chip": "ym2612"
    },
    {
      "channel": 3,
      "note": 59,
      "start": 54.3038,
      "duration": 0.2324,
      "velocity": 119,
      "chip": "ym2612"
    },
    {
      "channel": 5,
      "note": 38,
      "start": 54.3065,
      "duration": 0.2305,
      "velocity": 127,
      "chip": "ym2612"
    },
    {
      "channel": 0,
      "note": 64,
      "start": 54.531,
      "duration": 0.4812,
      "velocity": 119,
      "chip": "ym2612"
    },
    {
      "channel": 1,
      "note": 68,
      "start": 54.5336,
      "duration": 0.4793,
      "velocity": 119,
      "chip": "ym2612"
    },
    {
      "channel": 3,
      "note": 59,
      "start": 54.5364,
      "duration": 0.4779,
      "velocity": 119,
      "chip": "ym2612"
    },
    {
      "channel": 5,
      "note": 55,
      "start": 54.5372,
      "duration": 0.1278,
      "velocity": 127,
      "chip": "ym2612"
    },
    {
      "channel": 2,
      "note": 54,
      "start": 54.6624,
      "duration": 0.3511,
      "velocity": 112,
      "chip": "ym2612"
    },
    {
      "channel": 5,
      "note": 74,
      "start": 54.6653,
      "duration": 0.2305,
      "velocity": 127,
      "chip": "ym2612"
    },
    {
      "channel": 5,
      "note": 74,
      "start": 54.8961,
      "duration": 0.1209,
      "velocity": 127,
      "chip": "ym2612"
    },
    {
      "channel": 0,
      "note": 64,
      "start": 55.0124,
      "duration": 5.4612,
      "velocity": 119,
      "chip": "ym2612"
    },
    {
      "channel": 1,
      "note": 68,
      "start": 55.0131,
      "duration": 5.4605,
      "velocity": 119,
      "chip": "ym2612"
    },
    {
      "channel": 2,
      "note": 57,
      "start": 55.0138,
      "duration": 5.4598,
      "velocity": 112,
      "chip": "ym2612"
    },
    {
      "channel": 3,
      "note": 59,
      "start": 55.0145,
      "duration": 5.459,
      "velocity": 119,
      "chip": "ym2612"
    },
    {
      "channel": 5,
      "note": 38,
      "start": 55.0173,
      "duration": 0.2472,
      "velocity": 127,
      "chip": "ym2612"
    },
    {
      "channel": 5,
      "note": 74,
      "start": 55.2646,
      "duration": 0.0499,
      "velocity": 127,
      "chip": "ym2612"
    },
    {
      "channel": 5,
      "note": 74,
      "start": 55.3148,
      "duration": 5.1588,
      "velocity": 127,
      "chip": "ym2612"
    }
  ]
}