{
  "track_name": "08 - Mission 3",
  "duration_sec": 54.954,
  "sample_rate": 44100,
  "note_count": 1089,
  "unique_pitches": 36,
  "pitch_range": 87,
  "avg_note_duration": 0.2189,
  "reconstruction_stats": {
    "notes_reconstructed": 1089,
    "keyon_events": 1089,
    "keyoff_events": 1086,
    "orphan_keyons": 3,
    "unique_pitches": 36,
    "pitch_range": 87,
    "avg_duration_sec": 0.2189
  },
  "metadata": {
    "source": "G\\Gaiares\\08 - Mission 3.vgz"
  },
  "notes": [
    {
      "channel": 5,
      "note": -1,
      "start": 0.0,
      "duration": 0.3183,
      "velocity": 112,
      "chip": "ym2612"
    },
    {
      "channel": 5,
      "note": 53,
      "start": 0.322,
      "duration": 0.3214,
      "velocity": 126,
      "chip": "ym2612"
    },
    {
      "channel": 5,
      "note": 0,
      "start": 0.6472,
      "duration": 0.1587,
      "velocity": 112,
      "chip": "ym2612"
    },
    {
      "channel": 5,
      "note": 58,
      "start": 0.8097,
      "duration": 0.1586,
      "velocity": 112,
      "chip": "ym2612"
    },
    {
      "channel": 5,
      "note": 58,
      "start": 0.972,
      "duration": 0.3214,
      "velocity": 126,
      "chip": "ym2612"
    },
    {
      "channel": 5,
      "note": 0,
      "start": 1.2974,
      "duration": 0.0773,
      "velocity": 112,
      "chip": "ym2612"
    },
    {
      "channel": 5,
      "note": 46,
      "start": 1.3784,
      "duration": 0.0775,
      "velocity": 112,
      "chip": "ym2612"
    },
    {
      "channel": 5,
      "note": 46,
      "start": 1.4598,
      "duration": 0.0773,
      "velocity": 112,
      "chip": "ym2612"
    },
    {
      "channel": 5,
      "note": 40,
      "start": 1.5409,
      "duration": 0.0775,
      "velocity": 112,
      "chip": "ym2612"
    },
    {
      "channel": 5,
      "note": 39,
      "start": 1.6222,
      "duration": 0.1587,
      "velocity": 112,
      "chip": "ym2612"
    },
    {
      "channel": 5,
      "note": 31,
      "start": 1.7848,
      "duration": 0.1587,
      "velocity": 126,
      "chip": "ym2612"
    },
    {
      "channel": 5,
      "note": 12,
      "start": 1.9474,
      "duration": 0.1586,
      "velocity": 112,
      "chip": "ym2612"
    },
    {
      "channel": 5,
      "note": 58,
      "start": 2.1098,
      "duration": 0.1586,
      "velocity": 112,
      "chip": "ym2612"
    },
    {
      "channel": 5,
      "note": 58,
      "start": 2.2722,
      "duration": 0.332,
      "velocity": 126,
      "chip": "ym2612"
    },
    {
      "channel": 0,
      "note": -1,
      "start": 2.5939,
      "duration": 0.1476,
      "velocity": 80,
      "chip": "ym2612"
    },
    {
      "channel": 1,
      "note": -1,
      "start": 2.5956,
      "duration": 0.3086,
      "velocity": 100,
      "chip": "ym2612"
    },
    {
      "channel": 3,
      "note": -1,
      "start": 2.5986,
      "duration": 0.306,
      "velocity": 100,
      "chip": "ym2612"
    },
    {
      "channel": 4,
      "note": -1,
      "start": 2.6038,
      "duration": 0.1385,
      "velocity": 67,
      "chip": "ym2612"
    },
    {
      "channel": 5,
      "note": 0,
      "start": 2.6084,
      "duration": 0.3373,
      "velocity": 112,
      "chip": "ym2612"
    },
    {
      "channel": 0,
      "note": 41,
      "start": 2.7695,
      "duration": 0.1344,
      "velocity": 80,
      "chip": "ym2612"
    },
    {
      "channel": 4,
      "note": 77,
      "start": 2.7716,
      "duration": 0.1334,
      "velocity": 67,
      "chip": "ym2612"
    },
    {
      "channel": 0,
      "note": 41,
      "start": 2.9337,
      "duration": 0.1327,
      "velocity": 80,
      "chip": "ym2612"
    },
    {
      "channel": 1,
      "note": 79,
      "start": 2.9351,
      "duration": 0.2946,
      "velocity": 100,
      "chip": "ym2612"
    },
    {
      "channel": 4,
      "note": 80,
      "start": 2.9369,
      "duration": 0.1304,
      "velocity": 67,
      "chip": "ym2612"
    },
    {
      "channel": 5,
      "note": 51,
      "start": 2.9494,
      "duration": 0.3213,
      "velocity": 126,
      "chip": "ym2612"
    },
    {
      "channel": 3,
      "note": 79,
      "start": 2.9869,
      "duration": 0.2968,
      "velocity": 100,
      "chip": "ym2612"
    },
    {
      "channel": 0,
      "note": 41,
      "start": 3.0945,
      "duration": 0.1349,
      "velocity": 80,
      "chip": "ym2612"
    },
    {
      "channel": 4,
      "note": 84,
      "start": 3.0966,
      "duration": 0.1338,
      "velocity": 67,
      "chip": "ym2612"
    },
    {
      "channel": 0,
      "note": 41,
      "start": 3.257,
      "duration": 0.1344,
      "velocity": 80,
      "chip": "ym2612"
    },
    {
      "channel": 1,
      "note": 79,
      "start": 3.2585,
      "duration": 0.2959,
      "velocity": 100,
      "chip": "ym2612"
    },
    {
      "channel": 4,
      "note": 77,
      "start": 3.2603,
      "duration": 0.1321,
      "velocity": 67,
      "chip": "ym2612"
    },
    {
      "channel": 5,
      "note": 0,
      "start": 3.2745,
      "duration": 0.1586,
      "velocity": 112,
      "chip": "ym2612"
    },
    {
      "channel": 3,
      "note": 79,
      "start": 3.3119,
      "duration": 0.2968,
      "velocity": 100,
      "chip": "ym2612"
    },
    {
      "channel": 0,
      "note": 41,
      "start": 3.4215,
      "duration": 0.1325,
      "velocity": 80,
      "chip": "ym2612"
    },
    {
      "channel": 4,
      "note": 80,
      "start": 3.4236,
      "duration": 0.1314,
      "velocity": 67,
      "chip": "ym2612"
    },
    {
      "channel": 5,
      "note": 58,
      "start": 3.437,
      "duration": 0.1591,
      "velocity": 112,
      "chip": "ym2612"
    },
    {
      "channel": 0,
      "note": 41,
      "start": 3.582,
      "duration": 0.135,
      "velocity": 80,
      "chip": "ym2612"
    },
    {
      "channel": 1,
      "note": 79,
      "start": 3.5835,
      "duration": 0.134,
      "velocity": 100,
      "chip": "ym2612"
    },
    {
      "channel": 4,
      "note": 84,
      "start": 3.5853,
      "duration": 0.1328,
      "velocity": 67,
      "chip": "ym2612"
    },
    {
      "channel": 5,
      "note": 58,
      "start": 3.5998,
      "duration": 0.321,
      "velocity": 126,
      "chip": "ym2612"
    },
    {
      "channel": 3,
      "note": 79,
      "start": 3.6369,
      "duration": 0.1344,
      "velocity": 100,
      "chip": "ym2612"
    },
    {
      "channel": 0,
      "note": 41,
      "start": 3.7446,
      "duration": 0.1345,
      "velocity": 80,
      "chip": "ym2612"
    },
    {
      "channel": 1,
      "note": 72,
      "start": 3.7461,
      "duration": 0.1333,
      "velocity": 100,
      "chip": "ym2612"
    },
    {
      "channel": 4,
      "note": 77,
      "start": 3.7479,
      "duration": 0.1322,
      "velocity": 67,
      "chip": "ym2612"
    },
    {
      "channel": 3,
      "note": 72,
      "start": 3.7994,
      "duration": 0.1344,
      "velocity": 100,
      "chip": "ym2612"
    },
    {
      "channel": 0,
      "note": 41,
      "start": 3.9071,
      "duration": 0.1345,
      "velocity": 80,
      "chip": "ym2612"
    },
    {
      "channel": 1,
      "note": 72,
      "start": 3.9085,
      "duration": 0.1333,
      "velocity": 100,
      "chip": "ym2612"
    },
    {
      "channel": 4,
      "note": 80,
      "start": 3.9104,
      "duration": 0.1321,
      "velocity": 67,
      "chip": "ym2612"
    },
    {
      "channel": 5,
      "note": 0,
      "start": 3.9246,
      "duration": 0.159,
      "velocity": 112,
      "chip": "ym2612"
    },
    {
      "channel": 3,
      "note": 72,
      "start": 3.9622,
      "duration": 0.134,
      "velocity": 100,
      "chip": "ym2612"
    },
    {
      "channel": 0,
      "note": 41,
      "start": 4.0696,
      "duration": 0.1353,
      "velocity": 80,
      "chip": "ym2612"
    },
    {
      "channel": 1,
      "note": 79,
      "start": 4.0711,
      "duration": 0.2959,
      "velocity": 100,
      "chip": "ym2612"
    },
    {
      "channel": 4,
      "note": 84,
      "start": 4.0729,
      "duration": 0.1329,
      "velocity": 67,
      "chip": "ym2612"
    },
    {
      "channel": 5,
      "note": 58,
      "start": 4.0874,
      "duration": 0.1584,
      "velocity": 112,
      "chip": "ym2612"
    },
    {
      "channel": 3,
      "note": 79,
      "start": 4.1245,
      "duration": 0.2968,
      "velocity": 100,
      "chip": "ym2612"
    },
    {
      "channel": 0,
      "note": 41,
      "start": 4.2321,
      "duration": 0.1345,
      "velocity": 80,
      "chip": "ym2612"
    },
    {
      "channel": 4,
      "note": 77,
      "start": 4.2342,
      "duration": 0.1334,
      "velocity": 67,
      "chip": "ym2612"
    },
    {
      "channel": 5,
      "note": 58,
      "start": 4.2495,
      "duration": 0.1588,
      "velocity": 126,
      "chip": "ym2612"
    },
    {
      "channel": 0,
      "note": 41,
      "start": 4.3946,
      "duration": 0.1345,
      "velocity": 80,
      "chip": "ym2612"
    },
    {
      "channel": 1,
      "note": 79,
      "start": 4.3961,
      "duration": 0.2969,
      "velocity": 100,
      "chip": "ym2612"
    },
    {
      "channel": 4,
      "note": 80,
      "start": 4.3979,
      "duration": 0.2957,
      "velocity": 67,
      "chip": "ym2612"
    },
    {
      "channel": 5,
      "note": 13,
      "start": 4.4121,
      "duration": 0.3212,
      "velocity": 112,
      "chip": "ym2612"
    },
    {
      "channel": 3,
      "note": 79,
      "start": 4.4499,
      "duration": 0.2964,
      "velocity": 100,
      "chip": "ym2612"
    },
    {
      "channel": 0,
      "note": 41,
      "start": 4.5572,
      "duration": 0.1355,
      "velocity": 80,
      "chip": "ym2612"
    },
    {
      "channel": 0,
      "note": 41,
      "start": 4.7197,
      "duration": 0.1344,
      "velocity": 80,
      "chip": "ym2612"
    },
    {
      "channel": 1,
      "note": 79,
      "start": 4.7212,
      "duration": 0.1333,
      "velocity": 100,
      "chip": "ym2612"
    },
    {
      "channel": 4,
      "note": 84,
      "start": 4.7229,
      "duration": 0.1322,
      "velocity": 67,
      "chip": "ym2612"
    },
    {
      "channel": 5,
      "note": 52,
      "start": 4.7371,
      "duration": 0.1588,
      "velocity": 112,
      "chip": "ym2612"
    },
    {
      "channel": 3,
      "note": 79,
      "start": 4.7745,
      "duration": 0.1343,
      "velocity": 100,
      "chip": "ym2612"
    },
    {
      "channel": 0,
      "note": 41,
      "start": 4.8822,
      "duration": 0.1345,
      "velocity": 80,
      "chip": "ym2612"
    },
    {
      "channel": 1,
      "note": 72,
      "start": 4.8836,
      "duration": 0.1334,
      "velocity": 100,
      "chip": "ym2612"
    },
    {
      "channel": 4,
      "note": 77,
      "start": 4.8855,
      "duration": 0.1322,
      "velocity": 67,
      "chip": "ym2612"
    },
    {
      "channel": 5,
      "note": 58,
      "start": 4.8996,
      "duration": 0.3213,
      "velocity": 126,
      "chip": "ym2612"
    },
    {
      "channel": 3,
      "note": 72,
      "start": 4.9376,
      "duration": 0.1337,
      "velocity": 100,
      "chip": "ym2612"
    },
    {
      "channel": 0,
      "note": 41,
      "start": 5.0447,
      "duration": 0.1357,
      "velocity": 80,
      "chip": "ym2612"
    },
    {
      "channel": 1,
      "note": 72,
      "start": 5.0462,
      "duration": 0.1345,
      "velocity": 100,
      "chip": "ym2612"
    },
    {
      "channel": 4,
      "note": 80,
      "start": 5.0481,
      "duration": 0.1333,
      "velocity": 67,
      "chip": "ym2612"
    },
    {
      "channel": 3,
      "note": 72,
      "start": 5.0995,
      "duration": 0.1344,
      "velocity": 100,
      "chip": "ym2612"
    },
    {
      "channel": 0,
      "note": 41,
      "start": 5.2073,
      "duration": 0.1344,
      "velocity": 80,
      "chip": "ym2612"
    },
    {
      "channel": 1,
      "note": 72,
      "start": 5.209,
      "duration": 0.2956,
      "velocity": 100,
      "chip": "ym2612"
    },
    {
      "channel": 4,
      "note": 84,
      "start": 5.211,
      "duration": 0.1316,
      "velocity": 67,
      "chip": "ym2612"
    },
    {
      "channel": 5,
      "note": 0,
      "start": 5.2249,
      "duration": 0.3219,
      "velocity": 112,
      "chip": "ym2612"
    },
    {
      "channel": 3,
      "note": 72,
      "start": 5.2622,
      "duration": 0.2966,
      "velocity": 100,
      "chip": "ym2612"
    },
    {
      "channel": 0,
      "note": 41,
      "start": 5.3698,
      "duration": 0.1344,
      "velocity": 80,
      "chip": "ym2612"
    },
    {
      "channel": 4,
      "note": 77,
      "start": 5.3719,
      "duration": 0.1333,
      "velocity": 67,
      "chip": "ym2612"
    },
    {
      "channel": 0,
      "note": 41,
      "start": 5.5322,
      "duration": 0.1358,
      "velocity": 80,
      "chip": "ym2612"
    },
    {
      "channel": 1,
      "note": 79,
      "start": 5.5337,
      "duration": 0.2959,
      "velocity": 100,
      "chip": "ym2612"
    },
    {
      "channel": 4,
      "note": 80,
      "start": 5.5355,
      "duration": 0.1334,
      "velocity": 67,
      "chip": "ym2612"
    },
    {
      "channel": 5,
      "note": 52,
      "start": 5.5505,
      "duration": 0.3205,
      "velocity": 126,
      "chip": "ym2612"
    },
    {
      "channel": 3,
      "note": 79,
      "start": 5.5871,
      "duration": 0.2968,
      "velocity": 100,
      "chip": "ym2612"
    },
    {
      "channel": 0,
      "note": 41,
      "start": 5.6948,
      "duration": 0.1345,
      "velocity": 80,
      "chip": "ym2612"
    },
    {
      "channel": 4,
      "note": 84,
      "start": 5.6969,
      "duration": 0.1333,
      "velocity": 67,
      "chip": "ym2612"
    },
    {
      "channel": 0,
      "note": 41,
      "start": 5.8573,
      "duration": 0.1345,
      "velocity": 80,
      "chip": "ym2612"
    },
    {
      "channel": 1,
      "note": 79,
      "start": 5.8588,
      "duration": 0.2975,
      "velocity": 100,
      "chip": "ym2612"
    },
    {
      "channel": 4,
      "note": 77,
      "start": 5.8605,
      "duration": 0.1321,
      "velocity": 67,
      "chip": "ym2612"
    },
    {
      "channel": 5,
      "note": 0,
      "start": 5.8748,
      "duration": 0.1597,
      "velocity": 112,
      "chip": "ym2612"
    },
    {
      "channel": 3,
      "note": 79,
      "start": 5.9131,
      "duration": 0.2959,
      "velocity": 100,
      "chip": "ym2612"
    },
    {
      "channel": 0,
      "note": 41,
      "start": 6.0198,
      "duration": 0.136,
      "velocity": 80,
      "chip": "ym2612"
    },
    {
      "channel": 4,
      "note": 80,
      "start": 6.0219,
      "duration": 0.1349,
      "velocity": 67,
      "chip": "ym2612"
    },
    {
      "channel": 5,
      "note": 58,
      "start": 6.0383,
      "duration": 0.1578,
      "velocity": 112,
      "chip": "ym2612"
    },
    {
      "channel": 0,
      "note": 41,
      "start": 6.1823,
      "duration": 0.1345,
      "velocity": 80,
      "chip": "ym2612"
    },
    {
      "channel": 1,
      "note": 79,
      "start": 6.1837,
      "duration": 0.1334,
      "velocity": 100,
      "chip": "ym2612"
    },
    {
      "channel": 4,
      "note": 84,
      "start": 6.1856,
      "duration": 0.1322,
      "velocity": 67,
      "chip": "ym2612"
    },
    {
      "channel": 5,
      "note": 58,
      "start": 6.1997,
      "duration": 0.3224,
      "velocity": 126,
      "chip": "ym2612"
    },
    {
      "channel": 3,
      "note": 79,
      "start": 6.2372,
      "duration": 0.1343,
      "velocity": 100,
      "chip": "ym2612"
    },
    {
      "channel": 0,
      "note": 41,
      "start": 6.3448,
      "duration": 0.1345,
      "velocity": 80,
      "chip": "ym2612"
    },
    {
      "channel": 1,
      "note": 72,
      "start": 6.3463,
      "duration": 0.1333,
      "velocity": 100,
      "chip": "ym2612"
    },
    {
      "channel": 4,
      "note": 77,
      "start": 6.3481,
      "duration": 0.1322,
      "velocity": 67,
      "chip": "ym2612"
    },
    {
      "channel": 3,
      "note": 72,
      "start": 6.4007,
      "duration": 0.1333,
      "velocity": 100,
      "chip": "ym2612"
    },
    {
      "channel": 0,
      "note": 41,
      "start": 6.5073,
      "duration": 0.136,
      "velocity": 80,
      "chip": "ym2612"
    },
    {
      "channel": 1,
      "note": 72,
      "start": 6.5088,
      "duration": 0.1349,
      "velocity": 100,
      "chip": "ym2612"
    },
    {
      "channel": 4,
      "note": 80,
      "start": 6.5106,
      "duration": 0.1338,
      "velocity": 67,
      "chip": "ym2612"
    },
    {
      "channel": 5,
      "note": 0,
      "start": 6.526,
      "duration": 0.0763,
      "velocity": 112,
      "chip": "ym2612"
    },
    {
      "channel": 3,
      "note": 72,
      "start": 6.5622,
      "duration": 0.1344,
      "velocity": 100,
      "chip": "ym2612"
    },
    {
      "channel": 5,
      "note": 47,
      "start": 6.606,
      "duration": 0.0775,
      "velocity": 112,
      "chip": "ym2612"
    },
    {
      "channel": 0,
      "note": 41,
      "start": 6.6699,
      "duration": 0.1344,
      "velocity": 80,
      "chip": "ym2612"
    },
    {
      "channel": 1,
      "note": 79,
      "start": 6.6713,
      "duration": 0.2959,
      "velocity": 100,
      "chip": "ym2612"
    },
    {
      "channel": 4,
      "note": 84,
      "start": 6.6731,
      "duration": 0.1321,
      "velocity": 67,
      "chip": "ym2612"
    },
    {
      "channel": 5,
      "note": 46,
      "start": 6.6874,
      "duration": 0.079,
      "velocity": 112,
      "chip": "ym2612"
    },
    {
      "channel": 3,
      "note": 79,
      "start": 6.7247,
      "duration": 0.2968,
      "velocity": 100,
      "chip": "ym2612"
    },
    {
      "channel": 5,
      "note": 39,
      "start": 6.7701,
      "duration": 0.076,
      "velocity": 112,
      "chip": "ym2612"
    },
    {
      "channel": 0,
      "note": 41,
      "start": 6.8324,
      "duration": 0.1345,
      "velocity": 80,
      "chip": "ym2612"
    },
    {
      "channel": 4,
      "note": 77,
      "start": 6.8344,
      "duration": 0.1334,
      "velocity": 67,
      "chip": "ym2612"
    },
    {
      "channel": 5,
      "note": 40,
      "start": 6.8498,
      "duration": 0.16,
      "velocity": 112,
      "chip": "ym2612"
    },
    {
      "channel": 0,
      "note": 41,
      "start": 6.9949,
      "duration": 0.1363,
      "velocity": 80,
      "chip": "ym2612"
    },
    {
      "channel": 1,
      "note": 79,
      "start": 6.9964,
      "duration": 0.2958,
      "velocity": 100,
      "chip": "ym2612"
    },
    {
      "channel": 4,
      "note": 80,
      "start": 6.9982,
      "duration": 0.2946,
      "velocity": 67,
      "chip": "ym2612"
    },
    {
      "channel": 5,
      "note": 30,
      "start": 7.0137,
      "duration": 0.1574,
      "velocity": 126,
      "chip": "ym2612"
    },
    {
      "channel": 3,
      "note": 79,
      "start": 7.0497,
      "duration": 0.2968,
      "velocity": 100,
      "chip": "ym2612"
    },
    {
      "channel": 0,
      "note": 41,
      "start": 7.1574,
      "duration": 0.1345,
      "velocity": 80,
      "chip": "ym2612"
    },
    {
      "channel": 5,
      "note": 13,
      "start": 7.1749,
      "duration": 0.1587,
      "velocity": 112,
      "chip": "ym2612"
    },
    {
      "channel": 0,
      "note": 41,
      "start": 7.3199,
      "duration": 0.1345,
      "velocity": 80,
      "chip": "ym2612"
    },
    {
      "channel": 1,
      "note": 79,
      "start": 7.3213,
      "duration": 0.1334,
      "velocity": 100,
      "chip": "ym2612"
    },
    {
      "channel": 4,
      "note": 84,
      "start": 7.3232,
      "duration": 0.1322,
      "velocity": 67,
      "chip": "ym2612"
    },
    {
      "channel": 5,
      "note": 58,
      "start": 7.3374,
      "duration": 0.1602,
      "velocity": 112,
      "chip": "ym2612"
    },
    {
      "channel": 3,
      "note": 79,
      "start": 7.3761,
      "duration": 0.1329,
      "velocity": 100,
      "chip": "ym2612"
    },
    {
      "channel": 0,
      "note": 41,
      "start": 7.4824,
      "duration": 0.1365,
      "velocity": 80,
      "chip": "ym2612"
    },
    {
      "channel": 1,
      "note": 79,
      "start": 7.4839,
      "duration": 0.1352,
      "velocity": 100,
      "chip": "ym2612"
    },
    {
      "channel": 4,
      "note": 77,
      "start": 7.4858,
      "duration": 0.134,
      "velocity": 67,
      "chip": "ym2612"
    },
    {
      "channel": 5,
      "note": 58,
      "start": 7.5012,
      "duration": 0.3199,
      "velocity": 126,
      "chip": "ym2612"
    },
    {
      "channel": 3,
      "note": 79,
      "start": 7.5373,
      "duration": 0.1343,
      "velocity": 100,
      "chip": "ym2612"
    },
    {
      "channel": 0,
      "note": 41,
      "start": 7.6449,
      "duration": 0.1345,
      "velocity": 80,
      "chip": "ym2612"
    },
    {
      "channel": 1,
      "note": 80,
      "start": 7.6465,
      "duration": 0.1333,
      "velocity": 100,
      "chip": "ym2612"
    },
    {
      "channel": 4,
      "note": 80,
      "start": 7.6483,
      "duration": 0.1321,
      "velocity": 67,
      "chip": "ym2612"
    },
    {
      "channel": 3,
      "note": 80,
      "start": 7.6998,
      "duration": 0.1343,
      "velocity": 100,
      "chip": "ym2612"
    },
    {
      "channel": 0,
      "note": 41,
      "start": 7.8076,
      "duration": 0.1343,
      "velocity": 80,
      "chip": "ym2612"
    },
    {
      "channel": 1,
      "note": 82,
      "start": 7.8093,
      "duration": 0.2973,
      "velocity": 100,
      "chip": "ym2612"
    },
    {
      "channel": 4,
      "note": 84,
      "start": 7.8112,
      "duration": 0.1316,
      "velocity": 67,
      "chip": "ym2612"
    },
    {
      "channel": 5,
      "note": 0,
      "start": 7.8251,
      "duration": 0.3211,
      "velocity": 112,
      "chip": "ym2612"
    },
    {
      "channel": 3,
      "note": 82,
      "start": 7.8638,
      "duration": 0.2954,
      "velocity": 100,
      "chip": "ym2612"
    },
    {
      "channel": 0,
      "note": 39,
      "start": 7.97,
      "duration": 0.1363,
      "velocity": 80,
      "chip": "ym2612"
    },
    {
      "channel": 4,
      "note": 77,
      "start": 7.972,
      "duration": 0.1352,
      "velocity": 67,
      "chip": "ym2612"
    },
    {
      "channel": 0,
      "note": 39,
      "start": 8.1325,
      "duration": 0.1345,
      "velocity": 80,
      "chip": "ym2612"
    },
    {
      "channel": 1,
      "note": 79,
      "start": 8.1339,
      "duration": 0.2959,
      "velocity": 100,
      "chip": "ym2612"
    },
    {
      "channel": 4,
      "note": 80,
      "start": 8.1358,
      "duration": 0.1321,
      "velocity": 67,
      "chip": "ym2612"
    },
    {
      "channel": 5,
      "note": 52,
      "start": 8.1499,
      "duration": 0.323,
      "velocity": 126,
      "chip": "ym2612"
    },
    {
      "channel": 3,
      "note": 79,
      "start": 8.1873,
      "duration": 0.2969,
      "velocity": 100,
      "chip": "ym2612"
    },
    {
      "channel": 0,
      "note": 39,
      "start": 8.295,
      "duration": 0.1344,
      "velocity": 80,
      "chip": "ym2612"
    },
    {
      "channel": 4,
      "note": 84,
      "start": 8.2971,
      "duration": 0.1333,
      "velocity": 67,
      "chip": "ym2612"
    },
    {
      "channel": 0,
      "note": 39,
      "start": 8.4576,
      "duration": 0.1367,
      "velocity": 80,
      "chip": "ym2612"
    },
    {
      "channel": 1,
      "note": 79,
      "start": 8.459,
      "duration": 0.2959,
      "velocity": 100,
      "chip": "ym2612"
    },
    {
      "channel": 4,
      "note": 77,
      "start": 8.4608,
      "duration": 0.1343,
      "velocity": 67,
      "chip": "ym2612"
    },
    {
      "channel": 5,
      "note": 0,
      "start": 8.4767,
      "duration": 0.157,
      "velocity": 112,
      "chip": "ym2612"
    },
    {
      "channel": 3,
      "note": 79,
      "start": 8.5124,
      "duration": 0.2967,
      "velocity": 100,
      "chip": "ym2612"
    },
    {
      "channel": 0,
      "note": 39,
      "start": 8.6201,
      "duration": 0.1344,
      "velocity": 80,
      "chip": "ym2612"
    },
    {
      "channel": 4,
      "note": 80,
      "start": 8.6221,
      "duration": 0.1334,
      "velocity": 67,
      "chip": "ym2612"
    },
    {
      "channel": 5,
      "note": 58,
      "start": 8.6375,
      "duration": 0.1588,
      "velocity": 112,
      "chip": "ym2612"
    },
    {
      "channel": 0,
      "note": 39,
      "start": 8.7825,
      "duration": 0.1345,
      "velocity": 80,
      "chip": "ym2612"
    },
    {
      "channel": 1,
      "note": 79,
      "start": 8.784,
      "duration": 0.1334,
      "velocity": 100,
      "chip": "ym2612"
    },
    {
      "channel": 4,
      "note": 84,
      "start": 8.7858,
      "duration": 0.1322,
      "velocity": 67,
      "chip": "ym2612"
    },
    {
      "channel": 5,
      "note": 58,
      "start": 8.8,
      "duration": 0.3212,
      "velocity": 126,
      "chip": "ym2612"
    },
    {
      "channel": 3,
      "note": 79,
      "start": 8.8392,
      "duration": 0.1325,
      "velocity": 100,
      "chip": "ym2612"
    },
    {
      "channel": 0,
      "note": 39,
      "start": 8.9451,
      "duration": 0.1369,
      "velocity": 80,
      "chip": "ym2612"
    },
    {
      "channel": 1,
      "note": 72,
      "start": 8.9466,
      "duration": 0.1357,
      "velocity": 100,
      "chip": "ym2612"
    },
    {
      "channel": 4,
      "note": 77,
      "start": 8.9484,
      "duration": 0.1345,
      "velocity": 67,
      "chip": "ym2612"
    },
    {
      "channel": 3,
      "note": 72,
      "start": 8.9999,
      "duration": 0.1344,
      "velocity": 100,
      "chip": "ym2612"
    },
    {
      "channel": 0,
      "note": 39,
      "start": 9.1076,
      "duration": 0.1344,
      "velocity": 80,
      "chip": "ym2612"
    },
    {
      "channel": 1,
      "note": 72,
      "start": 9.1091,
      "duration": 0.1333,
      "velocity": 100,
      "chip": "ym2612"
    },
    {
      "channel": 4,
      "note": 80,
      "start": 9.1108,
      "duration": 0.1322,
      "velocity": 67,
      "chip": "ym2612"
    },
    {
      "channel": 5,
      "note": 0,
      "start": 9.125,
      "duration": 0.1587,
      "velocity": 112,
      "chip": "ym2612"
    },
    {
      "channel": 3,
      "note": 72,
      "start": 9.1625,
      "duration": 0.1343,
      "velocity": 100,
      "chip": "ym2612"
    },
    {
      "channel": 0,
      "note": 39,
      "start": 9.2701,
      "duration": 0.1345,
      "velocity": 80,
      "chip": "ym2612"
    },
    {
      "channel": 1,
      "note": 79,
      "start": 9.2715,
      "duration": 0.2985,
      "velocity": 100,
      "chip": "ym2612"
    },
    {
      "channel": 4,
      "note": 84,
      "start": 9.2734,
      "duration": 0.1321,
      "velocity": 67,
      "chip": "ym2612"
    },
    {
      "channel": 5,
      "note": 58,
      "start": 9.2876,
      "duration": 0.1608,
      "velocity": 112,
      "chip": "ym2612"
    },
    {
      "channel": 3,
      "note": 79,
      "start": 9.3269,
      "duration": 0.295,
      "velocity": 100,
      "chip": "ym2612"
    },
    {
      "channel": 0,
      "note": 39,
      "start": 9.4326,
      "duration": 0.137,
      "velocity": 80,
      "chip": "ym2612"
    },
    {
      "channel": 4,
      "note": 77,
      "start": 9.4347,
      "duration": 0.1359,
      "velocity": 67,
      "chip": "ym2612"
    },
    {
      "channel": 5,
      "note": 58,
      "start": 9.4521,
      "duration": 0.1567,
      "velocity": 126,
      "chip": "ym2612"
    },
    {
      "channel": 0,
      "note": 39,
      "start": 9.5951,
      "duration": 0.1345,
      "velocity": 80,
      "chip": "ym2612"
    },
    {
      "channel": 1,
      "note": 79,
      "start": 9.5967,
      "duration": 0.2958,
      "velocity": 100,
      "chip": "ym2612"
    },
    {
      "channel": 4,
      "note": 80,
      "start": 9.5984,
      "duration": 0.2947,
      "velocity": 67,
      "chip": "ym2612"
    },
    {
      "channel": 5,
      "note": 13,
      "start": 9.6126,
      "duration": 0.3234,
      "velocity": 112,
      "chip": "ym2612"
    },
    {
      "channel": 3,
      "note": 79,
      "start": 9.65,
      "duration": 0.2969,
      "velocity": 100,
      "chip": "ym2612"
    },
    {
      "channel": 0,
      "note": 39,
      "start": 9.7577,
      "duration": 0.1344,
      "velocity": 80,
      "chip": "ym2612"
    },
    {
      "channel": 0,
      "note": 39,
      "start": 9.9201,
      "duration": 0.1372,
      "velocity": 80,
      "chip": "ym2612"
    },
    {
      "channel": 1,
      "note": 79,
      "start": 9.9216,
      "duration": 0.1361,
      "velocity": 100,
      "chip": "ym2612"
    },
    {
      "channel": 4,
      "note": 84,
      "start": 9.9234,
      "duration": 0.1349,
      "velocity": 67,
      "chip": "ym2612"
    },
    {
      "channel": 5,
      "note": 52,
      "start": 9.9398,
      "duration": 0.1566,
      "velocity": 112,
      "chip": "ym2612"
    },
    {
      "channel": 3,
      "note": 79,
      "start": 9.975,
      "duration": 0.1347,
      "velocity": 100,
      "chip": "ym2612"
    },
    {
      "channel": 0,
      "note": 39,
      "start": 10.0827,
      "duration": 0.1345,
      "velocity": 80,
      "chip": "ym2612"
    },
    {
      "channel": 1,
      "note": 72,
      "start": 10.0841,
      "duration": 0.1333,
      "velocity": 100,
      "chip": "ym2612"
    },
    {
      "channel": 4,
      "note": 77,
      "start": 10.086,
      "duration": 0.1321,
      "velocity": 67,
      "chip": "ym2612"
    },
    {
      "channel": 5,
      "note": 58,
      "start": 10.1001,
      "duration": 0.3212,
      "velocity": 126,
      "chip": "ym2612"
    },
    {
      "channel": 3,
      "note": 72,
      "start": 10.1375,
      "duration": 0.1344,
      "velocity": 100,
      "chip": "ym2612"
    },
    {
      "channel": 0,
      "note": 39,
      "start": 10.2452,
      "duration": 0.1344,
      "velocity": 80,
      "chip": "ym2612"
    },
    {
      "channel": 1,
      "note": 72,
      "start": 10.2467,
      "duration": 0.1333,
      "velocity": 100,
      "chip": "ym2612"
    },
    {
      "channel": 4,
      "note": 80,
      "start": 10.2485,
      "duration": 0.1321,
      "velocity": 67,
      "chip": "ym2612"
    },
    {
      "channel": 3,
      "note": 72,
      "start": 10.3,
      "duration": 0.1344,
      "velocity": 100,
      "chip": "ym2612"
    },
    {
      "channel": 0,
      "note": 39,
      "start": 10.4079,
      "duration": 0.1343,
      "velocity": 80,
      "chip": "ym2612"
    },
    {
      "channel": 1,
      "note": 72,
      "start": 10.4095,
      "duration": 0.2956,
      "velocity": 100,
      "chip": "ym2612"
    },
    {
      "channel": 4,
      "note": 84,
      "start": 10.4115,
      "duration": 0.1316,
      "velocity": 67,
      "chip": "ym2612"
    },
    {
      "channel": 5,
      "note": 0,
      "start": 10.4254,
      "duration": 0.3211,
      "velocity": 112,
      "chip": "ym2612"
    },
    {
      "channel": 3,
      "note": 72,
      "start": 10.4628,
      "duration": 0.2966,
      "velocity": 100,
      "chip": "ym2612"
    },
    {
      "channel": 0,
      "note": 39,
      "start": 10.5702,
      "duration": 0.1345,
      "velocity": 80,
      "chip": "ym2612"
    },
    {
      "channel": 4,
      "note": 77,
      "start": 10.5723,
      "duration": 0.1334,
      "velocity": 67,
      "chip": "ym2612"
    },
    {
      "channel": 0,
      "note": 39,
      "start": 10.7327,
      "duration": 0.1345,
      "velocity": 80,
      "chip": "ym2612"
    },
    {
      "channel": 1,
      "note": 79,
      "start": 10.7342,
      "duration": 0.2959,
      "velocity": 100,
      "chip": "ym2612"
    },
    {
      "channel": 4,
      "note": 80,
      "start": 10.736,
      "duration": 0.1321,
      "velocity": 67,
      "chip": "ym2612"
    },
    {
      "channel": 5,
      "note": 52,
      "start": 10.7502,
      "duration": 0.3212,
      "velocity": 126,
      "chip": "ym2612"
    },
    {
      "channel": 3,
      "note": 79,
      "start": 10.7876,
      "duration": 0.2976,
      "velocity": 100,
      "chip": "ym2612"
    },
    {
      "channel": 0,
      "note": 39,
      "start": 10.8953,
      "duration": 0.1344,
      "velocity": 80,
      "chip": "ym2612"
    },
    {
      "channel": 4,
      "note": 84,
      "start": 10.8974,
      "duration": 0.1333,
      "velocity": 67,
      "chip": "ym2612"
    },
    {
      "channel": 0,
      "note": 39,
      "start": 11.0578,
      "duration": 0.1344,
      "velocity": 80,
      "chip": "ym2612"
    },
    {
      "channel": 1,
      "note": 79,
      "start": 11.0593,
      "duration": 0.2959,
      "velocity": 100,
      "chip": "ym2612"
    },
    {
      "channel": 4,
      "note": 77,
      "start": 11.061,
      "duration": 0.1321,
      "velocity": 67,
      "chip": "ym2612"
    },
    {
      "channel": 5,
      "note": 0,
      "start": 11.0752,
      "duration": 0.1587,
      "velocity": 112,
      "chip": "ym2612"
    },
    {
      "channel": 3,
      "note": 79,
      "start": 11.1127,
      "duration": 0.2968,
      "velocity": 100,
      "chip": "ym2612"
    },
    {
      "channel": 0,
      "note": 39,
      "start": 11.2203,
      "duration": 0.1345,
      "velocity": 80,
      "chip": "ym2612"
    },
    {
      "channel": 4,
      "note": 80,
      "start": 11.2224,
      "duration": 0.1334,
      "velocity": 67,
      "chip": "ym2612"
    },
    {
      "channel": 5,
      "note": 58,
      "start": 11.2378,
      "duration": 0.1588,
      "velocity": 112,
      "chip": "ym2612"
    },
    {
      "channel": 0,
      "note": 39,
      "start": 11.3828,
      "duration": 0.1345,
      "velocity": 80,
      "chip": "ym2612"
    },
    {
      "channel": 1,
      "note": 79,
      "start": 11.3843,
      "duration": 0.1334,
      "velocity": 100,
      "chip": "ym2612"
    },
    {
      "channel": 4,
      "note": 84,
      "start": 11.386,
      "duration": 0.1323,
      "velocity": 67,
      "chip": "ym2612"
    },
    {
      "channel": 5,
      "note": 58,
      "start": 11.4002,
      "duration": 0.3212,
      "velocity": 126,
      "chip": "ym2612"
    },
    {
      "channel": 3,
      "note": 79,
      "start": 11.4376,
      "duration": 0.1352,
      "velocity": 100,
      "chip": "ym2612"
    },
    {
      "channel": 0,
      "note": 39,
      "start": 11.5453,
      "duration": 0.1345,
      "velocity": 80,
      "chip": "ym2612"
    },
    {
      "channel": 1,
      "note": 72,
      "start": 11.5468,
      "duration": 0.1333,
      "velocity": 100,
      "chip": "ym2612"
    },
    {
      "channel": 4,
      "note": 77,
      "start": 11.5486,
      "duration": 0.1321,
      "velocity": 67,
      "chip": "ym2612"
    },
    {
      "channel": 3,
      "note": 72,
      "start": 11.6002,
      "duration": 0.1344,
      "velocity": 100,
      "chip": "ym2612"
    },
    {
      "channel": 0,
      "note": 39,
      "start": 11.7079,
      "duration": 0.1344,
      "velocity": 80,
      "chip": "ym2612"
    },
    {
      "channel": 1,
      "note": 72,
      "start": 11.7093,
      "duration": 0.1333,
      "velocity": 100,
      "chip": "ym2612"
    },
    {
      "channel": 4,
      "note": 80,
      "start": 11.7111,
      "duration": 0.1322,
      "velocity": 67,
      "chip": "ym2612"
    },
    {
      "channel": 5,
      "note": 0,
      "start": 11.7254,
      "duration": 0.0774,
      "velocity": 112,
      "chip": "ym2612"
    },
    {
      "channel": 3,
      "note": 72,
      "start": 11.7627,
      "duration": 0.1344,
      "velocity": 100,
      "chip": "ym2612"
    },
    {
      "channel": 5,
      "note": 46,
      "start": 11.8065,
      "duration": 0.0775,
      "velocity": 112,
      "chip": "ym2612"
    },
    {
      "channel": 0,
      "note": 39,
      "start": 11.8704,
      "duration": 0.1344,
      "velocity": 80,
      "chip": "ym2612"
    },
    {
      "channel": 1,
      "note": 79,
      "start": 11.8719,
      "duration": 0.2959,
      "velocity": 100,
      "chip": "ym2612"
    },
    {
      "channel": 4,
      "note": 84,
      "start": 11.8736,
      "duration": 0.1321,
      "velocity": 67,
      "chip": "ym2612"
    },
    {
      "channel": 5,
      "note": 47,
      "start": 11.8879,
      "duration": 0.0774,
      "velocity": 112,
      "chip": "ym2612"
    },
    {
      "channel": 3,
      "note": 79,
      "start": 11.9252,
      "duration": 0.2968,
      "velocity": 100,
      "chip": "ym2612"
    },
    {
      "channel": 5,
      "note": 39,
      "start": 11.969,
      "duration": 0.0775,
      "velocity": 112,
      "chip": "ym2612"
    },
    {
      "channel": 0,
      "note": 39,
      "start": 12.0329,
      "duration": 0.1345,
      "velocity": 80,
      "chip": "ym2612"
    },
    {
      "channel": 4,
      "note": 77,
      "start": 12.035,
      "duration": 0.1334,
      "velocity": 67,
      "chip": "ym2612"
    },
    {
      "channel": 5,
      "note": 39,
      "start": 12.0504,
      "duration": 0.1586,
      "velocity": 112,
      "chip": "ym2612"
    },
    {
      "channel": 0,
      "note": 39,
      "start": 12.1954,
      "duration": 0.1344,
      "velocity": 80,
      "chip": "ym2612"
    },
    {
      "channel": 1,
      "note": 79,
      "start": 12.1969,
      "duration": 0.2958,
      "velocity": 100,
      "chip": "ym2612"
    },
    {
      "channel": 4,
      "note": 80,
      "start": 12.1987,
      "duration": 0.2946,
      "velocity": 67,
      "chip": "ym2612"
    },
    {
      "channel": 5,
      "note": 31,
      "start": 12.2128,
      "duration": 0.1587,
      "velocity": 126,
      "chip": "ym2612"
    },
    {
      "channel": 3,
      "note": 79,
      "start": 12.2502,
      "duration": 0.298,
      "velocity": 100,
      "chip": "ym2612"
    },
    {
      "channel": 0,
      "note": 39,
      "start": 12.3579,
      "duration": 0.1344,
      "velocity": 80,
      "chip": "ym2612"
    },
    {
      "channel": 5,
      "note": 13,
      "start": 12.3754,
      "duration": 0.1587,
      "velocity": 112,
      "chip": "ym2612"
    },
    {
      "channel": 0,
      "note": 39,
      "start": 12.5204,
      "duration": 0.1345,
      "velocity": 80,
      "chip": "ym2612"
    },
    {
      "channel": 1,
      "note": 79,
      "start": 12.5219,
      "duration": 0.1334,
      "velocity": 100,
      "chip": "ym2612"
    },
    {
      "channel": 4,
      "note": 84,
      "start": 12.5237,
      "duration": 0.1322,
      "velocity": 67,
      "chip": "ym2612"
    },
    {
      "channel": 5,
      "note": 58,
      "start": 12.5379,
      "duration": 0.1588,
      "velocity": 112,
      "chip": "ym2612"
    },
    {
      "channel": 3,
      "note": 79,
      "start": 12.5752,
      "duration": 0.1344,
      "velocity": 100,
      "chip": "ym2612"
    },
    {
      "channel": 0,
      "note": 39,
      "start": 12.6829,
      "duration": 0.1344,
      "velocity": 80,
      "chip": "ym2612"
    },
    {
      "channel": 1,
      "note": 79,
      "start": 12.6844,
      "duration": 0.1333,
      "velocity": 100,
      "chip": "ym2612"
    },
    {
      "channel": 4,
      "note": 77,
      "start": 12.6863,
      "duration": 0.132,
      "velocity": 67,
      "chip": "ym2612"
    },
    {
      "channel": 5,
      "note": 58,
      "start": 12.7004,
      "duration": 0.3212,
      "velocity": 126,
      "chip": "ym2612"
    },
    {
      "channel": 3,
      "note": 79,
      "start": 12.7378,
      "duration": 0.1344,
      "velocity": 100,
      "chip": "ym2612"
    },
    {
      "channel": 0,
      "note": 39,
      "start": 12.8455,
      "duration": 0.1344,
      "velocity": 80,
      "chip": "ym2612"
    },
    {
      "channel": 1,
      "note": 80,
      "start": 12.8471,
      "duration": 0.1332,
      "velocity": 100,
      "chip": "ym2612"
    },
    {
      "channel": 4,
      "note": 80,
      "start": 12.8488,
      "duration": 0.1321,
      "velocity": 67,
      "chip": "ym2612"
    },
    {
      "channel": 3,
      "note": 80,
      "start": 12.9004,
      "duration": 0.1354,
      "velocity": 100,
      "chip": "ym2612"
    },
    {
      "channel": 0,
      "note": 39,
      "start": 13.0081,
      "duration": 0.1343,
      "velocity": 80,
      "chip": "ym2612"
    },
    {
      "channel": 1,
      "note": 82,
      "start": 13.0098,
      "duration": 0.2955,
      "velocity": 100,
      "chip": "ym2612"
    },
    {
      "channel": 4,
      "note": 84,
      "start": 13.0117,
      "duration": 0.1315,
      "velocity": 67,
      "chip": "ym2612"
    },
    {
      "channel": 5,
      "note": 0,
      "start": 13.0256,
      "duration": 0.3211,
      "velocity": 112,
      "chip": "ym2612"
    },
    {
      "channel": 3,
      "note": 82,
      "start": 13.063,
      "duration": 0.2966,
      "velocity": 100,
      "chip": "ym2612"
    },
    {
      "channel": 0,
      "note": 41,
      "start": 13.1705,
      "duration": 0.1345,
      "velocity": 80,
      "chip": "ym2612"
    },
    {
      "channel": 4,
      "note": 77,
      "start": 13.1726,
      "duration": 0.1334,
      "velocity": 67,
      "chip": "ym2612"
    },
    {
      "channel": 0,
      "note": 41,
      "start": 13.333,
      "duration": 0.1345,
      "velocity": 80,
      "chip": "ym2612"
    },
    {
      "channel": 1,
      "note": 79,
      "start": 13.3344,
      "duration": 0.2959,
      "velocity": 100,
      "chip": "ym2612"
    },
    {
      "channel": 4,
      "note": 80,
      "start": 13.3362,
      "duration": 0.1321,
      "velocity": 67,
      "chip": "ym2612"
    },
    {
      "channel": 5,
      "note": 53,
      "start": 13.3504,
      "duration": 0.3212,
      "velocity": 126,
      "chip": "ym2612"
    },
    {
      "channel": 3,
      "note": 79,
      "start": 13.3878,
      "duration": 0.2968,
      "velocity": 100,
      "chip": "ym2612"
    },
    {
      "channel": 0,
      "note": 41,
      "start": 13.4955,
      "duration": 0.1344,
      "velocity": 80,
      "chip": "ym2612"
    },
    {
      "channel": 4,
      "note": 84,
      "start": 13.4976,
      "duration": 0.1333,
      "velocity": 67,
      "chip": "ym2612"
    },
    {
      "channel": 0,
      "note": 41,
      "start": 13.658,
      "duration": 0.1345,
      "velocity": 80,
      "chip": "ym2612"
    },
    {
      "channel": 1,
      "note": 79,
      "start": 13.6595,
      "duration": 0.2959,
      "velocity": 100,
      "chip": "ym2612"
    },
    {
      "channel": 4,
      "note": 77,
      "start": 13.6613,
      "duration": 0.1321,
      "velocity": 67,
      "chip": "ym2612"
    },
    {
      "channel": 5,
      "note": 0,
      "start": 13.6755,
      "duration": 0.1587,
      "velocity": 112,
      "chip": "ym2612"
    },
    {
      "channel": 3,
      "note": 79,
      "start": 13.7129,
      "duration": 0.2984,
      "velocity": 100,
      "chip": "ym2612"
    },
    {
      "channel": 0,
      "note": 41,
      "start": 13.8205,
      "duration": 0.1345,
      "velocity": 80,
      "chip": "ym2612"
    },
    {
      "channel": 4,
      "note": 80,
      "start": 13.8226,
      "duration": 0.1334,
      "velocity": 67,
      "chip": "ym2612"
    },
    {
      "channel": 5,
      "note": 58,
      "start": 13.838,
      "duration": 0.1587,
      "velocity": 112,
      "chip": "ym2612"
    },
    {
      "channel": 0,
      "note": 41,
      "start": 13.983,
      "duration": 0.1345,
      "velocity": 80,
      "chip": "ym2612"
    },
    {
      "channel": 1,
      "note": 79,
      "start": 13.9845,
      "duration": 0.1333,
      "velocity": 100,
      "chip": "ym2612"
    },
    {
      "channel": 4,
      "note": 84,
      "start": 13.9863,
      "duration": 0.1322,
      "velocity": 67,
      "chip": "ym2612"
    },
    {
      "channel": 5,
      "note": 58,
      "start": 14.0004,
      "duration": 0.3213,
      "velocity": 126,
      "chip": "ym2612"
    },
    {
      "channel": 3,
      "note": 79,
      "start": 14.0379,
      "duration": 0.1344,
      "velocity": 100,
      "chip": "ym2612"
    },
    {
      "channel": 0,
      "note": 41,
      "start": 14.1456,
      "duration": 0.1344,
      "velocity": 80,
      "chip": "ym2612"
    },
    {
      "channel": 1,
      "note": 72,
      "start": 14.1471,
      "duration": 0.1333,
      "velocity": 100,
      "chip": "ym2612"
    },
    {
      "channel": 4,
      "note": 77,
      "start": 14.1489,
      "duration": 0.1321,
      "velocity": 67,
      "chip": "ym2612"
    },
    {
      "channel": 3,
      "note": 72,
      "start": 14.2004,
      "duration": 0.1343,
      "velocity": 100,
      "chip": "ym2612"
    },
    {
      "channel": 0,
      "note": 41,
      "start": 14.3081,
      "duration": 0.1344,
      "velocity": 80,
      "chip": "ym2612"
    },
    {
      "channel": 1,
      "note": 72,
      "start": 14.3096,
      "duration": 0.1333,
      "velocity": 100,
      "chip": "ym2612"
    },
    {
      "channel": 4,
      "note": 80,
      "start": 14.3114,
      "duration": 0.1322,
      "velocity": 67,
      "chip": "ym2612"
    },
    {
      "channel": 5,
      "note": 0,
      "start": 14.3255,
      "duration": 0.1587,
      "velocity": 112,
      "chip": "ym2612"
    },
    {
      "channel": 3,
      "note": 72,
      "start": 14.363,
      "duration": 0.1359,
      "velocity": 100,
      "chip": "ym2612"
    },
    {
      "channel": 0,
      "note": 41,
      "start": 14.4706,
      "duration": 0.1345,
      "velocity": 80,
      "chip": "ym2612"
    },
    {
      "channel": 1,
      "note": 79,
      "start": 14.472,
      "duration": 0.2959,
      "velocity": 100,
      "chip": "ym2612"
    },
    {
      "channel": 4,
      "note": 84,
      "start": 14.4739,
      "duration": 0.1321,
      "velocity": 67,
      "chip": "ym2612"
    },
    {
      "channel": 5,
      "note": 58,
      "start": 14.4881,
      "duration": 0.1588,
      "velocity": 112,
      "chip": "ym2612"
    },
    {
      "channel": 3,
      "note": 79,
      "start": 14.5254,
      "duration": 0.2969,
      "velocity": 100,
      "chip": "ym2612"
    },
    {
      "channel": 0,
      "note": 41,
      "start": 14.6331,
      "duration": 0.1344,
      "velocity": 80,
      "chip": "ym2612"
    },
    {
      "channel": 4,
      "note": 77,
      "start": 14.6352,
      "duration": 0.1333,
      "velocity": 67,
      "chip": "ym2612"
    },
    {
      "channel": 5,
      "note": 58,
      "start": 14.6505,
      "duration": 0.1587,
      "velocity": 126,
      "chip": "ym2612"
    },
    {
      "channel": 0,
      "note": 41,
      "start": 14.7957,
      "duration": 0.1344,
      "velocity": 80,
      "chip": "ym2612"
    },
    {
      "channel": 1,
      "note": 79,
      "start": 14.7972,
      "duration": 0.2958,
      "velocity": 100,
      "chip": "ym2612"
    },
    {
      "channel": 4,
      "note": 80,
      "start": 14.799,
      "duration": 0.2946,
      "velocity": 67,
      "chip": "ym2612"
    },
    {
      "channel": 5,
      "note": 13,
      "start": 14.8131,
      "duration": 0.3212,
      "velocity": 112,
      "chip": "ym2612"
    },
    {
      "channel": 3,
      "note": 79,
      "start": 14.8505,
      "duration": 0.2968,
      "velocity": 100,
      "chip": "ym2612"
    },
    {
      "channel": 0,
      "note": 41,
      "start": 14.9581,
      "duration": 0.1345,
      "velocity": 80,
      "chip": "ym2612"
    },
    {
      "channel": 0,
      "note": 41,
      "start": 15.1206,
      "duration": 0.1345,
      "velocity": 80,
      "chip": "ym2612"
    },
    {
      "channel": 1,
      "note": 79,
      "start": 15.1221,
      "duration": 0.1334,
      "velocity": 100,
      "chip": "ym2612"
    },
    {
      "channel": 4,
      "note": 84,
      "start": 15.1239,
      "duration": 0.1322,
      "velocity": 67,
      "chip": "ym2612"
    },
    {
      "channel": 5,
      "note": 52,
      "start": 15.1381,
      "duration": 0.1587,
      "velocity": 112,
      "chip": "ym2612"
    },
    {
      "channel": 3,
      "note": 79,
      "start": 15.1755,
      "duration": 0.1344,
      "velocity": 100,
      "chip": "ym2612"
    },
    {
      "channel": 0,
      "note": 41,
      "start": 15.2832,
      "duration": 0.1345,
      "velocity": 80,
      "chip": "ym2612"
    },
    {
      "channel": 1,
      "note": 72,
      "start": 15.2846,
      "duration": 0.1333,
      "velocity": 100,
      "chip": "ym2612"
    },
    {
      "channel": 4,
      "note": 77,
      "start": 15.2864,
      "duration": 0.1322,
      "velocity": 67,
      "chip": "ym2612"
    },
    {
      "channel": 5,
      "note": 58,
      "start": 15.3005,
      "duration": 0.3213,
      "velocity": 126,
      "chip": "ym2612"
    },
    {
      "channel": 3,
      "note": 72,
      "start": 15.338,
      "duration": 0.1364,
      "velocity": 100,
      "chip": "ym2612"
    },
    {
      "channel": 0,
      "note": 41,
      "start": 15.4458,
      "duration": 0.1343,
      "velocity": 80,
      "chip": "ym2612"
    },
    {
      "channel": 1,
      "note": 72,
      "start": 15.4472,
      "duration": 0.1333,
      "velocity": 100,
      "chip": "ym2612"
    },
    {
      "channel": 4,
      "note": 80,
      "start": 15.449,
      "duration": 0.1321,
      "velocity": 67,
      "chip": "ym2612"
    },
    {
      "channel": 3,
      "note": 72,
      "start": 15.5005,
      "duration": 0.1344,
      "velocity": 100,
      "chip": "ym2612"
    },
    {
      "channel": 0,
      "note": 41,
      "start": 15.6084,
      "duration": 0.1343,
      "velocity": 80,
      "chip": "ym2612"
    },
    {
      "channel": 1,
      "note": 72,
      "start": 15.61,
      "duration": 0.2956,
      "velocity": 100,
      "chip": "ym2612"
    },
    {
      "channel": 4,
      "note": 84,
      "start": 15.612,
      "duration": 0.1315,
      "velocity": 67,
      "chip": "ym2612"
    },
    {
      "channel": 5,
      "note": 0,
      "start": 15.6259,
      "duration": 0.321,
      "velocity": 112,
      "chip": "ym2612"
    },
    {
      "channel": 3,
      "note": 72,
      "start": 15.6633,
      "duration": 0.2989,
      "velocity": 100,
      "chip": "ym2612"
    },
    {
      "channel": 0,
      "note": 41,
      "start": 15.7707,
      "duration": 0.1345,
      "velocity": 80,
      "chip": "ym2612"
    },
    {
      "channel": 4,
      "note": 77,
      "start": 15.7728,
      "duration": 0.1334,
      "velocity": 67,
      "chip": "ym2612"
    },
    {
      "channel": 0,
      "note": 41,
      "start": 15.9332,
      "duration": 0.1344,
      "velocity": 80,
      "chip": "ym2612"
    },
    {
      "channel": 1,
      "note": 79,
      "start": 15.9347,
      "duration": 0.2959,
      "velocity": 100,
      "chip": "ym2612"
    },
    {
      "channel": 4,
      "note": 80,
      "start": 15.9365,
      "duration": 0.1321,
      "velocity": 67,
      "chip": "ym2612"
    },
    {
      "channel": 5,
      "note": 52,
      "start": 15.9505,
      "duration": 0.3214,
      "velocity": 126,
      "chip": "ym2612"
    },
    {
      "channel": 3,
      "note": 79,
      "start": 15.9881,
      "duration": 0.2968,
      "velocity": 100,
      "chip": "ym2612"
    },
    {
      "channel": 0,
      "note": 41,
      "start": 16.0958,
      "duration": 0.1344,
      "velocity": 80,
      "chip": "ym2612"
    },
    {
      "channel": 4,
      "note": 84,
      "start": 16.0979,
      "duration": 0.1333,
      "velocity": 67,
      "chip": "ym2612"
    },
    {
      "channel": 0,
      "note": 41,
      "start": 16.2583,
      "duration": 0.1344,
      "velocity": 80,
      "chip": "ym2612"
    },
    {
      "channel": 1,
      "note": 79,
      "start": 16.2598,
      "duration": 0.2959,
      "velocity": 100,
      "chip": "ym2612"
    },
    {
      "channel": 4,
      "note": 77,
      "start": 16.2616,
      "duration": 0.132,
      "velocity": 67,
      "chip": "ym2612"
    },
    {
      "channel": 5,
      "note": 0,
      "start": 16.2757,
      "duration": 0.1587,
      "velocity": 112,
      "chip": "ym2612"
    },
    {
      "channel": 3,
      "note": 79,
      "start": 16.3131,
      "duration": 0.2968,
      "velocity": 100,
      "chip": "ym2612"
    },
    {
      "channel": 0,
      "note": 41,
      "start": 16.4208,
      "duration": 0.1345,
      "velocity": 80,
      "chip": "ym2612"
    },
    {
      "channel": 4,
      "note": 80,
      "start": 16.4229,
      "duration": 0.1334,
      "velocity": 67,
      "chip": "ym2612"
    },
    {
      "channel": 5,
      "note": 58,
      "start": 16.4383,
      "duration": 0.1587,
      "velocity": 112,
      "chip": "ym2612"
    },
    {
      "channel": 0,
      "note": 41,
      "start": 16.5833,
      "duration": 0.1345,
      "velocity": 80,
      "chip": "ym2612"
    },
    {
      "channel": 1,
      "note": 79,
      "start": 16.5848,
      "duration": 0.1333,
      "velocity": 100,
      "chip": "ym2612"
    },
    {
      "channel": 4,
      "note": 84,
      "start": 16.5866,
      "duration": 0.1322,
      "velocity": 67,
      "chip": "ym2612"
    },
    {
      "channel": 5,
      "note": 58,
      "start": 16.6007,
      "duration": 0.3213,
      "velocity": 126,
      "chip": "ym2612"
    },
    {
      "channel": 3,
      "note": 79,
      "start": 16.6381,
      "duration": 0.1344,
      "velocity": 100,
      "chip": "ym2612"
    },
    {
      "channel": 0,
      "note": 41,
      "start": 16.746,
      "duration": 0.1342,
      "velocity": 80,
      "chip": "ym2612"
    },
    {
      "channel": 1,
      "note": 72,
      "start": 16.7475,
      "duration": 0.1332,
      "velocity": 100,
      "chip": "ym2612"
    },
    {
      "channel": 4,
      "note": 77,
      "start": 16.7493,
      "duration": 0.132,
      "velocity": 67,
      "chip": "ym2612"
    },
    {
      "channel": 3,
      "note": 72,
      "start": 16.8007,
      "duration": 0.1343,
      "velocity": 100,
      "chip": "ym2612"
    },
    {
      "channel": 0,
      "note": 41,
      "start": 16.9084,
      "duration": 0.1344,
      "velocity": 80,
      "chip": "ym2612"
    },
    {
      "channel": 1,
      "note": 72,
      "start": 16.9098,
      "duration": 0.1333,
      "velocity": 100,
      "chip": "ym2612"
    },
    {
      "channel": 4,
      "note": 80,
      "start": 16.9116,
      "duration": 0.1322,
      "velocity": 67,
      "chip": "ym2612"
    },
    {
      "channel": 5,
      "note": 0,
      "start": 16.9259,
      "duration": 0.0774,
      "velocity": 112,
      "chip": "ym2612"
    },
    {
      "channel": 3,
      "note": 72,
      "start": 16.9632,
      "duration": 0.1343,
      "velocity": 100,
      "chip": "ym2612"
    },
    {
      "channel": 5,
      "note": 47,
      "start": 17.007,
      "duration": 0.0776,
      "velocity": 112,
      "chip": "ym2612"
    },
    {
      "channel": 0,
      "note": 41,
      "start": 17.0708,
      "duration": 0.1345,
      "velocity": 80,
      "chip": "ym2612"
    },
    {
      "channel": 1,
      "note": 79,
      "start": 17.0723,
      "duration": 0.2959,
      "velocity": 100,
      "chip": "ym2612"
    },
    {
      "channel": 4,
      "note": 84,
      "start": 17.0741,
      "duration": 0.1321,
      "velocity": 67,
      "chip": "ym2612"
    },
    {
      "channel": 5,
      "note": 46,
      "start": 17.0884,
      "duration": 0.0773,
      "velocity": 112,
      "chip": "ym2612"
    },
    {
      "channel": 3,
      "note": 79,
      "start": 17.1257,
      "duration": 0.2969,
      "velocity": 100,
      "chip": "ym2612"
    },
    {
      "channel": 5,
      "note": 39,
      "start": 17.1695,
      "duration": 0.0775,
      "velocity": 112,
      "chip": "ym2612"
    },
    {
      "channel": 0,
      "note": 41,
      "start": 17.2341,
      "duration": 0.1337,
      "velocity": 80,
      "chip": "ym2612"
    },
    {
      "channel": 4,
      "note": 77,
      "start": 17.2362,
      "duration": 0.1326,
      "velocity": 67,
      "chip": "ym2612"
    },
    {
      "channel": 5,
      "note": 40,
      "start": 17.2508,
      "duration": 0.1587,
      "velocity": 112,
      "chip": "ym2612"
    },
    {
      "channel": 0,
      "note": 41,
      "start": 17.3959,
      "duration": 0.1344,
      "velocity": 80,
      "chip": "ym2612"
    },
    {
      "channel": 1,
      "note": 79,
      "start": 17.3974,
      "duration": 0.2959,
      "velocity": 100,
      "chip": "ym2612"
    },
    {
      "channel": 4,
      "note": 80,
      "start": 17.3992,
      "duration": 0.2946,
      "velocity": 67,
      "chip": "ym2612"
    },
    {
      "channel": 5,
      "note": 30,
      "start": 17.4133,
      "duration": 0.1587,
      "velocity": 126,
      "chip": "ym2612"
    },
    {
      "channel": 3,
      "note": 79,
      "start": 17.4507,
      "duration": 0.2968,
      "velocity": 100,
      "chip": "ym2612"
    },
    {
      "channel": 0,
      "note": 41,
      "start": 17.5584,
      "duration": 0.1345,
      "velocity": 80,
      "chip": "ym2612"
    },
    {
      "channel": 5,
      "note": 13,
      "start": 17.5759,
      "duration": 0.1587,
      "velocity": 112,
      "chip": "ym2612"
    },
    {
      "channel": 0,
      "note": 41,
      "start": 17.7214,
      "duration": 0.134,
      "velocity": 80,
      "chip": "ym2612"
    },
    {
      "channel": 1,
      "note": 79,
      "start": 17.7229,
      "duration": 0.1328,
      "velocity": 100,
      "chip": "ym2612"
    },
    {
      "channel": 4,
      "note": 84,
      "start": 17.7247,
      "duration": 0.1316,
      "velocity": 67,
      "chip": "ym2612"
    },
    {
      "channel": 5,
      "note": 58,
      "start": 17.7384,
      "duration": 0.1587,
      "velocity": 112,
      "chip": "ym2612"
    },
    {
      "channel": 3,
      "note": 79,
      "start": 17.7757,
      "duration": 0.1344,
      "velocity": 100,
      "chip": "ym2612"
    },
    {
      "channel": 0,
      "note": 41,
      "start": 17.8834,
      "duration": 0.1345,
      "velocity": 80,
      "chip": "ym2612"
    },
    {
      "channel": 1,
      "note": 79,
      "start": 17.885,
      "duration": 0.1333,
      "velocity": 100,
      "chip": "ym2612"
    },
    {
      "channel": 4,
      "note": 77,
      "start": 17.8867,
      "duration": 0.1321,
      "velocity": 67,
      "chip": "ym2612"
    },
    {
      "channel": 5,
      "note": 58,
      "start": 17.9008,
      "duration": 0.3213,
      "velocity": 126,
      "chip": "ym2612"
    },
    {
      "channel": 3,
      "note": 79,
      "start": 17.9383,
      "duration": 0.1344,
      "velocity": 100,
      "chip": "ym2612"
    },
    {
      "channel": 0,
      "note": 41,
      "start": 18.046,
      "duration": 0.1344,
      "velocity": 80,
      "chip": "ym2612"
    },
    {
      "channel": 1,
      "note": 80,
      "start": 18.0475,
      "duration": 0.1333,
      "velocity": 100,
      "chip": "ym2612"
    },
    {
      "channel": 4,
      "note": 80,
      "start": 18.0493,
      "duration": 0.1321,
      "velocity": 67,
      "chip": "ym2612"
    },
    {
      "channel": 3,
      "note": 80,
      "start": 18.1009,
      "duration": 0.1343,
      "velocity": 100,
      "chip": "ym2612"
    },
    {
      "channel": 0,
      "note": 41,
      "start": 18.2092,
      "duration": 0.1337,
      "velocity": 80,
      "chip": "ym2612"
    },
    {
      "channel": 1,
      "note": 82,
      "start": 18.2108,
      "duration": 0.2949,
      "velocity": 100,
      "chip": "ym2612"
    },
    {
      "channel": 4,
      "note": 84,
      "start": 18.2129,
      "duration": 0.1309,
      "velocity": 67,
      "chip": "ym2612"
    },
    {
      "channel": 5,
      "note": 0,
      "start": 18.2261,
      "duration": 0.321,
      "velocity": 112,
      "chip": "ym2612"
    },
    {
      "channel": 3,
      "note": 82,
      "start": 18.2635,
      "duration": 0.2966,
      "velocity": 100,
      "chip": "ym2612"
    },
    {
      "channel": 0,
      "note": 39,
      "start": 18.371,
      "duration": 0.1345,
      "velocity": 80,
      "chip": "ym2612"
    },
    {
      "channel": 4,
      "note": 77,
      "start": 18.3731,
      "duration": 0.1333,
      "velocity": 67,
      "chip": "ym2612"
    },
    {
      "channel": 0,
      "note": 39,
      "start": 18.5335,
      "duration": 0.1344,
      "velocity": 80,
      "chip": "ym2612"
    },
    {
      "channel": 1,
      "note": 79,
      "start": 18.535,
      "duration": 0.2959,
      "velocity": 100,
      "chip": "ym2612"
    },
    {
      "channel": 4,
      "note": 80,
      "start": 18.5367,
      "duration": 0.1321,
      "velocity": 67,
      "chip": "ym2612"
    },
    {
      "channel": 5,
      "note": 52,
      "start": 18.5508,
      "duration": 0.3214,
      "velocity": 126,
      "chip": "ym2612"
    },
    {
      "channel": 3,
      "note": 79,
      "start": 18.5883,
      "duration": 0.2968,
      "velocity": 100,
      "chip": "ym2612"
    },
    {
      "channel": 0,
      "note": 39,
      "start": 18.6972,
      "duration": 0.1333,
      "velocity": 80,
      "chip": "ym2612"
    },
    {
      "channel": 4,
      "note": 84,
      "start": 18.6993,
      "duration": 0.1322,
      "velocity": 67,
      "chip": "ym2612"
    },
    {
      "channel": 0,
      "note": 39,
      "start": 18.8585,
      "duration": 0.1345,
      "velocity": 80,
      "chip": "ym2612"
    },
    {
      "channel": 1,
      "note": 79,
      "start": 18.86,
      "duration": 0.2959,
      "velocity": 100,
      "chip": "ym2612"
    },
    {
      "channel": 4,
      "note": 77,
      "start": 18.8618,
      "duration": 0.1321,
      "velocity": 67,
      "chip": "ym2612"
    },
    {
      "channel": 5,
      "note": 0,
      "start": 18.876,
      "duration": 0.1587,
      "velocity": 112,
      "chip": "ym2612"
    },
    {
      "channel": 3,
      "note": 79,
      "start": 18.9134,
      "duration": 0.2968,
      "velocity": 100,
      "chip": "ym2612"
    },
    {
      "channel": 0,
      "note": 39,
      "start": 19.021,
      "duration": 0.1345,
      "velocity": 80,
      "chip": "ym2612"
    },
    {
      "channel": 4,
      "note": 80,
      "start": 19.0231,
      "duration": 0.1333,
      "velocity": 67,
      "chip": "ym2612"
    },
    {
      "channel": 5,
      "note": 58,
      "start": 19.0385,
      "duration": 0.1587,
      "velocity": 112,
      "chip": "ym2612"
    },
    {
      "channel": 0,
      "note": 39,
      "start": 19.1848,
      "duration": 0.1332,
      "velocity": 80,
      "chip": "ym2612"
    },
    {
      "channel": 1,
      "note": 79,
      "start": 19.1863,
      "duration": 0.132,
      "velocity": 100,
      "chip": "ym2612"
    },
    {
      "channel": 4,
      "note": 84,
      "start": 19.1881,
      "duration": 0.1308,
      "velocity": 67,
      "chip": "ym2612"
    },
    {
      "channel": 5,
      "note": 58,
      "start": 19.2009,
      "duration": 0.3213,
      "velocity": 126,
      "chip": "ym2612"
    },
    {
      "channel": 3,
      "note": 79,
      "start": 19.2384,
      "duration": 0.1344,
      "velocity": 100,
      "chip": "ym2612"
    },
    {
      "channel": 0,
      "note": 39,
      "start": 19.3461,
      "duration": 0.1344,
      "velocity": 80,
      "chip": "ym2612"
    },
    {
      "channel": 1,
      "note": 72,
      "start": 19.3476,
      "duration": 0.1333,
      "velocity": 100,
      "chip": "ym2612"
    },
    {
      "channel": 4,
      "note": 77,
      "start": 19.3494,
      "duration": 0.1321,
      "velocity": 67,
      "chip": "ym2612"
    },
    {
      "channel": 3,
      "note": 72,
      "start": 19.4009,
      "duration": 0.1344,
      "velocity": 100,
      "chip": "ym2612"
    },
    {
      "channel": 0,
      "note": 39,
      "start": 19.5085,
      "duration": 0.1345,
      "velocity": 80,
      "chip": "ym2612"
    },
    {
      "channel": 1,
      "note": 72,
      "start": 19.51,
      "duration": 0.1334,
      "velocity": 100,
      "chip": "ym2612"
    },
    {
      "channel": 4,
      "note": 80,
      "start": 19.5119,
      "duration": 0.1322,
      "velocity": 67,
      "chip": "ym2612"
    },
    {
      "channel": 5,
      "note": 0,
      "start": 19.5261,
      "duration": 0.1587,
      "velocity": 112,
      "chip": "ym2612"
    },
    {
      "channel": 3,
      "note": 72,
      "start": 19.5634,
      "duration": 0.1343,
      "velocity": 100,
      "chip": "ym2612"
    },
    {
      "channel": 0,
      "note": 39,
      "start": 19.6721,
      "duration": 0.1335,
      "velocity": 80,
      "chip": "ym2612"
    },
    {
      "channel": 1,
      "note": 79,
      "start": 19.6736,
      "duration": 0.2949,
      "velocity": 100,
      "chip": "ym2612"
    },
    {
      "channel": 4,
      "note": 84,
      "start": 19.6754,
      "duration": 0.131,
      "velocity": 67,
      "chip": "ym2612"
    },
    {
      "channel": 5,
      "note": 58,
      "start": 19.6886,
      "duration": 0.1586,
      "velocity": 112,
      "chip": "ym2612"
    },
    {
      "channel": 3,
      "note": 79,
      "start": 19.7259,
      "duration": 0.2969,
      "velocity": 100,
      "chip": "ym2612"
    },
    {
      "channel": 0,
      "note": 39,
      "start": 19.8336,
      "duration": 0.1344,
      "velocity": 80,
      "chip": "ym2612"
    },
    {
      "channel": 4,
      "note": 77,
      "start": 19.8357,
      "duration": 0.1333,
      "velocity": 67,
      "chip": "ym2612"
    },
    {
      "channel": 5,
      "note": 58,
      "start": 19.8509,
      "duration": 0.1588,
      "velocity": 126,
      "chip": "ym2612"
    },
    {
      "channel": 0,
      "note": 39,
      "start": 19.9961,
      "duration": 0.1344,
      "velocity": 80,
      "chip": "ym2612"
    },
    {
      "channel": 1,
      "note": 79,
      "start": 19.9976,
      "duration": 0.2959,
      "velocity": 100,
      "chip": "ym2612"
    },
    {
      "channel": 4,
      "note": 80,
      "start": 19.9995,
      "duration": 0.2947,
      "velocity": 67,
      "chip": "ym2612"
    },
    {
      "channel": 5,
      "note": 13,
      "start": 20.0137,
      "duration": 0.3212,
      "velocity": 112,
      "chip": "ym2612"
    },
    {
      "channel": 3,
      "note": 79,
      "start": 20.051,
      "duration": 0.2968,
      "velocity": 100,
      "chip": "ym2612"
    },
    {
      "channel": 0,
      "note": 39,
      "start": 20.1603,
      "duration": 0.1328,
      "velocity": 80,
      "chip": "ym2612"
    },
    {
      "channel": 0,
      "note": 39,
      "start": 20.3212,
      "duration": 0.1345,
      "velocity": 80,
      "chip": "ym2612"
    },
    {
      "channel": 1,
      "note": 79,
      "start": 20.3226,
      "duration": 0.1335,
      "velocity": 100,
      "chip": "ym2612"
    },
    {
      "channel": 4,
      "note": 84,
      "start": 20.3244,
      "duration": 0.1323,
      "velocity": 67,
      "chip": "ym2612"
    },
    {
      "channel": 5,
      "note": 52,
      "start": 20.3386,
      "duration": 0.1587,
      "velocity": 112,
      "chip": "ym2612"
    },
    {
      "channel": 3,
      "note": 79,
      "start": 20.376,
      "duration": 0.1344,
      "velocity": 100,
      "chip": "ym2612"
    },
    {
      "channel": 0,
      "note": 39,
      "start": 20.4837,
      "duration": 0.1344,
      "velocity": 80,
      "chip": "ym2612"
    },
    {
      "channel": 1,
      "note": 72,
      "start": 20.4851,
      "duration": 0.1333,
      "velocity": 100,
      "chip": "ym2612"
    },
    {
      "channel": 4,
      "note": 77,
      "start": 20.4869,
      "duration": 0.1322,
      "velocity": 67,
      "chip": "ym2612"
    },
    {
      "channel": 5,
      "note": 58,
      "start": 20.501,
      "duration": 0.3213,
      "velocity": 126,
      "chip": "ym2612"
    },
    {
      "channel": 3,
      "note": 72,
      "start": 20.5385,
      "duration": 0.1344,
      "velocity": 100,
      "chip": "ym2612"
    },
    {
      "channel": 0,
      "note": 39,
      "start": 20.6479,
      "duration": 0.1327,
      "velocity": 80,
      "chip": "ym2612"
    },
    {
      "channel": 1,
      "note": 72,
      "start": 20.6494,
      "duration": 0.1316,
      "velocity": 100,
      "chip": "ym2612"
    },
    {
      "channel": 4,
      "note": 80,
      "start": 20.6512,
      "duration": 0.1305,
      "velocity": 67,
      "chip": "ym2612"
    },
    {
      "channel": 3,
      "note": 72,
      "start": 20.701,
      "duration": 0.1343,
      "velocity": 100,
      "chip": "ym2612"
    },
    {
      "channel": 0,
      "note": 39,
      "start": 20.8089,
      "duration": 0.1343,
      "velocity": 80,
      "chip": "ym2612"
    },
    {
      "channel": 1,
      "note": 72,
      "start": 20.8105,
      "duration": 0.2955,
      "velocity": 100,
      "chip": "ym2612"
    },
    {
      "channel": 4,
      "note": 84,
      "start": 20.8125,
      "duration": 0.1316,
      "velocity": 67,
      "chip": "ym2612"
    },
    {
      "channel": 5,
      "note": 0,
      "start": 20.8264,
      "duration": 0.321,
      "velocity": 112,
      "chip": "ym2612"
    },
    {
      "channel": 3,
      "note": 72,
      "start": 20.8638,
      "duration": 0.2966,
      "velocity": 100,
      "chip": "ym2612"
    },
    {
      "channel": 0,
      "note": 39,
      "start": 20.9712,
      "duration": 0.1345,
      "velocity": 80,
      "chip": "ym2612"
    },
    {
      "channel": 4,
      "note": 77,
      "start": 20.9733,
      "duration": 0.1333,
      "velocity": 67,
      "chip": "ym2612"
    },
    {
      "channel": 0,
      "note": 39,
      "start": 21.1353,
      "duration": 0.1329,
      "velocity": 80,
      "chip": "ym2612"
    },
    {
      "channel": 1,
      "note": 79,
      "start": 21.1367,
      "duration": 0.2946,
      "velocity": 100,
      "chip": "ym2612"
    },
    {
      "channel": 4,
      "note": 80,
      "start": 21.1386,
      "duration": 0.1305,
      "velocity": 67,
      "chip": "ym2612"
    },
    {
      "channel": 5,
      "note": 53,
      "start": 21.151,
      "duration": 0.3214,
      "velocity": 126,
      "chip": "ym2612"
    },
    {
      "channel": 3,
      "note": 79,
      "start": 21.1886,
      "duration": 0.2968,
      "velocity": 100,
      "chip": "ym2612"
    },
    {
      "channel": 0,
      "note": 39,
      "start": 21.2963,
      "duration": 0.1347,
      "velocity": 80,
      "chip": "ym2612"
    },
    {
      "channel": 4,
      "note": 84,
      "start": 21.2984,
      "duration": 0.1336,
      "velocity": 67,
      "chip": "ym2612"
    },
    {
      "channel": 0,
      "note": 39,
      "start": 21.4588,
      "duration": 0.1345,
      "velocity": 80,
      "chip": "ym2612"
    },
    {
      "channel": 1,
      "note": 79,
      "start": 21.4602,
      "duration": 0.2959,
      "velocity": 100,
      "chip": "ym2612"
    },
    {
      "channel": 4,
      "note": 77,
      "start": 21.4621,
      "duration": 0.1321,
      "velocity": 67,
      "chip": "ym2612"
    },
    {
      "channel": 5,
      "note": 0,
      "start": 21.4762,
      "duration": 0.1587,
      "velocity": 112,
      "chip": "ym2612"
    },
    {
      "channel": 3,
      "note": 79,
      "start": 21.5137,
      "duration": 0.2968,
      "velocity": 100,
      "chip": "ym2612"
    },
    {
      "channel": 0,
      "note": 39,
      "start": 21.623,
      "duration": 0.1328,
      "velocity": 80,
      "chip": "ym2612"
    },
    {
      "channel": 4,
      "note": 80,
      "start": 21.6251,
      "duration": 0.1316,
      "velocity": 67,
      "chip": "ym2612"
    },
    {
      "channel": 5,
      "note": 58,
      "start": 21.6388,
      "duration": 0.1589,
      "velocity": 112,
      "chip": "ym2612"
    },
    {
      "channel": 0,
      "note": 39,
      "start": 21.7838,
      "duration": 0.1348,
      "velocity": 80,
      "chip": "ym2612"
    },
    {
      "channel": 1,
      "note": 79,
      "start": 21.7853,
      "duration": 0.1337,
      "velocity": 100,
      "chip": "ym2612"
    },
    {
      "channel": 4,
      "note": 84,
      "start": 21.7871,
      "duration": 0.1326,
      "velocity": 67,
      "chip": "ym2612"
    },
    {
      "channel": 5,
      "note": 58,
      "start": 21.8014,
      "duration": 0.3211,
      "velocity": 126,
      "chip": "ym2612"
    },
    {
      "channel": 3,
      "note": 79,
      "start": 21.8386,
      "duration": 0.1344,
      "velocity": 100,
      "chip": "ym2612"
    },
    {
      "channel": 0,
      "note": 39,
      "start": 21.9463,
      "duration": 0.1344,
      "velocity": 80,
      "chip": "ym2612"
    },
    {
      "channel": 1,
      "note": 72,
      "start": 21.9479,
      "duration": 0.1333,
      "velocity": 100,
      "chip": "ym2612"
    },
    {
      "channel": 4,
      "note": 77,
      "start": 21.9497,
      "duration": 0.1321,
      "velocity": 67,
      "chip": "ym2612"
    },
    {
      "channel": 3,
      "note": 72,
      "start": 22.0011,
      "duration": 0.1344,
      "velocity": 100,
      "chip": "ym2612"
    },
    {
      "channel": 0,
      "note": 39,
      "start": 22.111,
      "duration": 0.1323,
      "velocity": 80,
      "chip": "ym2612"
    },
    {
      "channel": 1,
      "note": 72,
      "start": 22.1125,
      "duration": 0.1312,
      "velocity": 100,
      "chip": "ym2612"
    },
    {
      "channel": 4,
      "note": 80,
      "start": 22.1143,
      "duration": 0.13,
      "velocity": 67,
      "chip": "ym2612"
    },
    {
      "channel": 5,
      "note": 0,
      "start": 22.1264,
      "duration": 0.0773,
      "velocity": 112,
      "chip": "ym2612"
    },
    {
      "channel": 3,
      "note": 72,
      "start": 22.1638,
      "duration": 0.1342,
      "velocity": 100,
      "chip": "ym2612"
    },
    {
      "channel": 5,
      "note": 46,
      "start": 22.2075,
      "duration": 0.0777,
      "velocity": 112,
      "chip": "ym2612"
    },
    {
      "channel": 0,
      "note": 39,
      "start": 22.2713,
      "duration": 0.1352,
      "velocity": 80,
      "chip": "ym2612"
    },
    {
      "channel": 1,
      "note": 79,
      "start": 22.2728,
      "duration": 0.2959,
      "velocity": 100,
      "chip": "ym2612"
    },
    {
      "channel": 4,
      "note": 84,
      "start": 22.2746,
      "duration": 0.1328,
      "velocity": 67,
      "chip": "ym2612"
    },
    {
      "channel": 5,
      "note": 46,
      "start": 22.289,
      "duration": 0.0772,
      "velocity": 112,
      "chip": "ym2612"
    },
    {
      "channel": 3,
      "note": 79,
      "start": 22.3262,
      "duration": 0.2968,
      "velocity": 100,
      "chip": "ym2612"
    },
    {
      "channel": 5,
      "note": 40,
      "start": 22.37,
      "duration": 0.0775,
      "velocity": 112,
      "chip": "ym2612"
    },
    {
      "channel": 0,
      "note": 39,
      "start": 22.4339,
      "duration": 0.1344,
      "velocity": 80,
      "chip": "ym2612"
    },
    {
      "channel": 4,
      "note": 77,
      "start": 22.436,
      "duration": 0.1333,
      "velocity": 67,
      "chip": "ym2612"
    },
    {
      "channel": 5,
      "note": 39,
      "start": 22.4513,
      "duration": 0.1587,
      "velocity": 112,
      "chip": "ym2612"
    },
    {
      "channel": 0,
      "note": 39,
      "start": 22.5984,
      "duration": 0.1324,
      "velocity": 80,
      "chip": "ym2612"
    },
    {
      "channel": 1,
      "note": 79,
      "start": 22.5999,
      "duration": 0.2944,
      "velocity": 100,
      "chip": "ym2612"
    },
    {
      "channel": 4,
      "note": 80,
      "start": 22.6017,
      "duration": 0.2933,
      "velocity": 67,
      "chip": "ym2612"
    },
    {
      "channel": 5,
      "note": 31,
      "start": 22.6139,
      "duration": 0.1593,
      "velocity": 126,
      "chip": "ym2612"
    },
    {
      "channel": 3,
      "note": 79,
      "start": 22.6515,
      "duration": 0.2966,
      "velocity": 100,
      "chip": "ym2612"
    },
    {
      "channel": 0,
      "note": 39,
      "start": 22.7589,
      "duration": 0.1351,
      "velocity": 80,
      "chip": "ym2612"
    },
    {
      "channel": 5,
      "note": 12,
      "start": 22.777,
      "duration": 0.0768,
      "velocity": 112,
      "chip": "ym2612"
    },
    {
      "channel": 5,
      "note": 60,
      "start": 22.8576,
      "duration": 0.0775,
      "velocity": 112,
      "chip": "ym2612"
    },
    {
      "channel": 0,
      "note": 39,
      "start": 22.9214,
      "duration": 0.1344,
      "velocity": 80,
      "chip": "ym2612"
    },
    {
      "channel": 1,
      "note": 79,
      "start": 22.9229,
      "duration": 0.1333,
      "velocity": 100,
      "chip": "ym2612"
    },
    {
      "channel": 4,
      "note": 84,
      "start": 22.9246,
      "duration": 0.1322,
      "velocity": 67,
      "chip": "ym2612"
    },
    {
      "channel": 5,
      "note": 60,
      "start": 22.9388,
      "duration": 0.1588,
      "velocity": 126,
      "chip": "ym2612"
    },
    {
      "channel": 3,
      "note": 79,
      "start": 22.9762,
      "duration": 0.1344,
      "velocity": 100,
      "chip": "ym2612"
    },
    {
      "channel": 0,
      "note": 39,
      "start": 23.0839,
      "duration": 0.1344,
      "velocity": 80,
      "chip": "ym2612"
    },
    {
      "channel": 1,
      "note": 79,
      "start": 23.0854,
      "duration": 0.1333,
      "velocity": 100,
      "chip": "ym2612"
    },
    {
      "channel": 4,
      "note": 77,
      "start": 23.0872,
      "duration": 0.1322,
      "velocity": 67,
      "chip": "ym2612"
    },
    {
      "channel": 5,
      "note": 13,
      "start": 23.1012,
      "duration": 0.1593,
      "velocity": 126,
      "chip": "ym2612"
    },
    {
      "channel": 3,
      "note": 79,
      "start": 23.1392,
      "duration": 0.134,
      "velocity": 100,
      "chip": "ym2612"
    },
    {
      "channel": 0,
      "note": 39,
      "start": 23.2465,
      "duration": 0.1354,
      "velocity": 80,
      "chip": "ym2612"
    },
    {
      "channel": 1,
      "note": 77,
      "start": 23.2479,
      "duration": 0.1343,
      "velocity": 100,
      "chip": "ym2612"
    },
    {
      "channel": 4,
      "note": 80,
      "start": 23.2498,
      "duration": 0.1331,
      "velocity": 67,
      "chip": "ym2612"
    },
    {
      "channel": 5,
      "note": 12,
      "start": 23.2643,
      "duration": 0.1583,
      "velocity": 126,
      "chip": "ym2612"
    },
    {
      "channel": 3,
      "note": 77,
      "start": 23.3013,
      "duration": 0.1343,
      "velocity": 100,
      "chip": "ym2612"
    },
    {
      "channel": 0,
      "note": 39,
      "start": 23.4091,
      "duration": 0.1343,
      "velocity": 80,
      "chip": "ym2612"
    },
    {
      "channel": 1,
      "note": 75,
      "start": 23.4108,
      "duration": 0.6069,
      "velocity": 100,
      "chip": "ym2612"
    },
    {
      "channel": 4,
      "note": 84,
      "start": 23.4161,
      "duration": 0.6022,
      "velocity": 93,
      "chip": "ym2612"
    },
    {
      "channel": 5,
      "note": 13,
      "start": 23.4267,
      "duration": 0.3218,
      "velocity": 112,
      "chip": "ym2612"
    },
    {
      "channel": 3,
      "note": 75,
      "start": 23.464,
      "duration": 0.6081,
      "velocity": 100,
      "chip": "ym2612"
    },
    {
      "channel": 0,
      "note": 41,
      "start": 23.5715,
      "duration": 0.1345,
      "velocity": 80,
      "chip": "ym2612"
    },
    {
      "channel": 0,
      "note": 41,
      "start": 23.734,
      "duration": 0.1354,
      "velocity": 80,
      "chip": "ym2612"
    },
    {
      "channel": 5,
      "note": 52,
      "start": 23.7522,
      "duration": 0.3205,
      "velocity": 126,
      "chip": "ym2612"
    },
    {
      "channel": 0,
      "note": 41,
      "start": 23.8965,
      "duration": 0.1344,
      "velocity": 80,
      "chip": "ym2612"
    },
    {
      "channel": 0,
      "note": 41,
      "start": 24.059,
      "duration": 0.1345,
      "velocity": 80,
      "chip": "ym2612"
    },
    {
      "channel": 1,
      "note": 77,
      "start": 24.0605,
      "duration": 0.6073,
      "velocity": 100,
      "chip": "ym2612"
    },
    {
      "channel": 4,
      "note": 80,
      "start": 24.0623,
      "duration": 0.6061,
      "velocity": 93,
      "chip": "ym2612"
    },
    {
      "channel": 5,
      "note": 0,
      "start": 24.0766,
      "duration": 0.1594,
      "velocity": 112,
      "chip": "ym2612"
    },
    {
      "channel": 3,
      "note": 77,
      "start": 24.1146,
      "duration": 0.6085,
      "velocity": 100,
      "chip": "ym2612"
    },
    {
      "channel": 0,
      "note": 41,
      "start": 24.2215,
      "duration": 0.1358,
      "velocity": 80,
      "chip": "ym2612"
    },
    {
      "channel": 5,
      "note": 58,
      "start": 24.2398,
      "duration": 0.1579,
      "velocity": 112,
      "chip": "ym2612"
    },
    {
      "channel": 0,
      "note": 41,
      "start": 24.3841,
      "duration": 0.1344,
      "velocity": 80,
      "chip": "ym2612"
    },
    {
      "channel": 5,
      "note": 58,
      "start": 24.4014,
      "duration": 0.3224,
      "velocity": 126,
      "chip": "ym2612"
    },
    {
      "channel": 0,
      "note": 41,
      "start": 24.5466,
      "duration": 0.1344,
      "velocity": 80,
      "chip": "ym2612"
    },
    {
      "channel": 0,
      "note": 41,
      "start": 24.7091,
      "duration": 0.1359,
      "velocity": 80,
      "chip": "ym2612"
    },
    {
      "channel": 1,
      "note": 75,
      "start": 24.7105,
      "duration": 0.2959,
      "velocity": 100,
      "chip": "ym2612"
    },
    {
      "channel": 4,
      "note": 75,
      "start": 24.7124,
      "duration": 0.606,
      "velocity": 93,
      "chip": "ym2612"
    },
    {
      "channel": 5,
      "note": 0,
      "start": 24.7276,
      "duration": 0.1577,
      "velocity": 112,
      "chip": "ym2612"
    },
    {
      "channel": 3,
      "note": 75,
      "start": 24.764,
      "duration": 0.2968,
      "velocity": 100,
      "chip": "ym2612"
    },
    {
      "channel": 0,
      "note": 41,
      "start": 24.8716,
      "duration": 0.1344,
      "velocity": 80,
      "chip": "ym2612"
    },
    {
      "channel": 5,
      "note": 58,
      "start": 24.8891,
      "duration": 0.1586,
      "velocity": 112,
      "chip": "ym2612"
    },
    {
      "channel": 0,
      "note": 41,
      "start": 25.0341,
      "duration": 0.1344,
      "velocity": 80,
      "chip": "ym2612"
    },
    {
      "channel": 1,
      "note": 77,
      "start": 25.0356,
      "duration": 0.1333,
      "velocity": 100,
      "chip": "ym2612"
    },
    {
      "channel": 5,
      "note": 58,
      "start": 25.0514,
      "duration": 0.1599,
      "velocity": 126,
      "chip": "ym2612"
    },
    {
      "channel": 3,
      "note": 77,
      "start": 25.09,
      "duration": 0.1333,
      "velocity": 100,
      "chip": "ym2612"
    },
    {
      "channel": 0,
      "note": 41,
      "start": 25.1967,
      "duration": 0.1359,
      "velocity": 80,
      "chip": "ym2612"
    },
    {
      "channel": 1,
      "note": 75,
      "start": 25.1981,
      "duration": 0.2959,
      "velocity": 100,
      "chip": "ym2612"
    },
    {
      "channel": 5,
      "note": 12,
      "start": 25.2152,
      "duration": 0.3201,
      "velocity": 112,
      "chip": "ym2612"
    },
    {
      "channel": 3,
      "note": 75,
      "start": 25.2515,
      "duration": 0.2968,
      "velocity": 100,
      "chip": "ym2612"
    },
    {
      "channel": 0,
      "note": 41,
      "start": 25.3591,
      "duration": 0.1345,
      "velocity": 80,
      "chip": "ym2612"
    },
    {
      "channel": 4,
      "note": 72,
      "start": 25.3612,
      "duration": 0.6073,
      "velocity": 93,
      "chip": "ym2612"
    },
    {
      "channel": 0,
      "note": 41,
      "start": 25.5217,
      "duration": 0.1344,
      "velocity": 80,
      "chip": "ym2612"
    },
    {
      "channel": 1,
      "note": 77,
      "start": 25.5231,
      "duration": 0.1333,
      "velocity": 100,
      "chip": "ym2612"
    },
    {
      "channel": 5,
      "note": 53,
      "start": 25.5392,
      "duration": 0.16,
      "velocity": 112,
      "chip": "ym2612"
    },
    {
      "channel": 3,
      "note": 77,
      "start": 25.5776,
      "duration": 0.1332,
      "velocity": 100,
      "chip": "ym2612"
    },
    {
      "channel": 0,
      "note": 41,
      "start": 25.6841,
      "duration": 0.1361,
      "velocity": 80,
      "chip": "ym2612"
    },
    {
      "channel": 1,
      "note": 79,
      "start": 25.6856,
      "duration": 0.2959,
      "velocity": 100,
      "chip": "ym2612"
    },
    {
      "channel": 5,
      "note": 58,
      "start": 25.703,
      "duration": 0.3198,
      "velocity": 112,
      "chip": "ym2612"
    },
    {
      "channel": 3,
      "note": 79,
      "start": 25.739,
      "duration": 0.2968,
      "velocity": 100,
      "chip": "ym2612"
    },
    {
      "channel": 0,
      "note": 41,
      "start": 25.8467,
      "duration": 0.1344,
      "velocity": 80,
      "chip": "ym2612"
    },
    {
      "channel": 0,
      "note": 41,
      "start": 26.0094,
      "duration": 0.1343,
      "velocity": 80,
      "chip": "ym2612"
    },
    {
      "channel": 1,
      "note": 80,
      "start": 26.011,
      "duration": 0.6069,
      "velocity": 100,
      "chip": "ym2612"
    },
    {
      "channel": 4,
      "note": 68,
      "start": 26.013,
      "duration": 0.6055,
      "velocity": 93,
      "chip": "ym2612"
    },
    {
      "channel": 5,
      "note": 8,
      "start": 26.0269,
      "duration": 0.3209,
      "velocity": 112,
      "chip": "ym2612"
    },
    {
      "channel": 3,
      "note": 80,
      "start": 26.0654,
      "duration": 0.6085,
      "velocity": 100,
      "chip": "ym2612"
    },
    {
      "channel": 0,
      "note": 41,
      "start": 26.1717,
      "duration": 0.136,
      "velocity": 80,
      "chip": "ym2612"
    },
    {
      "channel": 0,
      "note": 41,
      "start": 26.3343,
      "duration": 0.1344,
      "velocity": 80,
      "chip": "ym2612"
    },
    {
      "channel": 5,
      "note": 52,
      "start": 26.3516,
      "duration": 0.323,
      "velocity": 126,
      "chip": "ym2612"
    },
    {
      "channel": 0,
      "note": 41,
      "start": 26.4967,
      "duration": 0.1345,
      "velocity": 80,
      "chip": "ym2612"
    },
    {
      "channel": 0,
      "note": 41,
      "start": 26.6593,
      "duration": 0.1366,
      "velocity": 80,
      "chip": "ym2612"
    },
    {
      "channel": 1,
      "note": 82,
      "start": 26.6608,
      "duration": 0.6072,
      "velocity": 100,
      "chip": "ym2612"
    },
    {
      "channel": 4,
      "note": 67,
      "start": 26.6626,
      "duration": 0.6061,
      "velocity": 93,
      "chip": "ym2612"
    },
    {
      "channel": 5,
      "note": 0,
      "start": 26.6783,
      "duration": 0.1571,
      "velocity": 112,
      "chip": "ym2612"
    },
    {
      "channel": 3,
      "note": 82,
      "start": 26.7141,
      "duration": 0.6083,
      "velocity": 100,
      "chip": "ym2612"
    },
    {
      "channel": 0,
      "note": 41,
      "start": 26.8218,
      "duration": 0.1344,
      "velocity": 80,
      "chip": "ym2612"
    },
    {
      "channel": 5,
      "note": 58,
      "start": 26.8392,
      "duration": 0.1587,
      "velocity": 112,
      "chip": "ym2612"
    },
    {
      "channel": 0,
      "note": 41,
      "start": 26.9843,
      "duration": 0.1344,
      "velocity": 80,
      "chip": "ym2612"
    },
    {
      "channel": 5,
      "note": 58,
      "start": 27.0016,
      "duration": 0.3214,
      "velocity": 126,
      "chip": "ym2612"
    },
    {
      "channel": 0,
      "note": 41,
      "start": 27.1468,
      "duration": 0.1365,
      "velocity": 80,
      "chip": "ym2612"
    },
    {
      "channel": 0,
      "note": 41,
      "start": 27.3093,
      "duration": 0.1345,
      "velocity": 80,
      "chip": "ym2612"
    },
    {
      "channel": 1,
      "note": 80,
      "start": 27.3108,
      "duration": 0.2959,
      "velocity": 100,
      "chip": "ym2612"
    },
    {
      "channel": 4,
      "note": 65,
      "start": 27.3126,
      "duration": 0.2947,
      "velocity": 93,
      "chip": "ym2612"
    },
    {
      "channel": 5,
      "note": 0,
      "start": 27.3269,
      "duration": 0.1586,
      "velocity": 112,
      "chip": "ym2612"
    },
    {
      "channel": 3,
      "note": 80,
      "start": 27.3641,
      "duration": 0.2969,
      "velocity": 100,
      "chip": "ym2612"
    },
    {
      "channel": 0,
      "note": 41,
      "start": 27.4719,
      "duration": 0.1344,
      "velocity": 80,
      "chip": "ym2612"
    },
    {
      "channel": 5,
      "note": 58,
      "start": 27.4893,
      "duration": 0.1606,
      "velocity": 112,
      "chip": "ym2612"
    },
    {
      "channel": 0,
      "note": 41,
      "start": 27.6343,
      "duration": 0.1368,
      "velocity": 80,
      "chip": "ym2612"
    },
    {
      "channel": 1,
      "note": 79,
      "start": 27.6359,
      "duration": 0.1356,
      "velocity": 100,
      "chip": "ym2612"
    },
    {
      "channel": 4,
      "note": 67,
      "start": 27.6376,
      "duration": 0.1345,
      "velocity": 93,
      "chip": "ym2612"
    },
    {
      "channel": 5,
      "note": 58,
      "start": 27.6535,
      "duration": 0.157,
      "velocity": 126,
      "chip": "ym2612"
    },
    {
      "channel": 3,
      "note": 79,
      "start": 27.6892,
      "duration": 0.1343,
      "velocity": 100,
      "chip": "ym2612"
    },
    {
      "channel": 0,
      "note": 41,
      "start": 27.7968,
      "duration": 0.1345,
      "velocity": 80,
      "chip": "ym2612"
    },
    {
      "channel": 1,
      "note": 80,
      "start": 27.7983,
      "duration": 0.2959,
      "velocity": 100,
      "chip": "ym2612"
    },
    {
      "channel": 4,
      "note": 65,
      "start": 27.8001,
      "duration": 0.2947,
      "velocity": 93,
      "chip": "ym2612"
    },
    {
      "channel": 5,
      "note": 13,
      "start": 27.8144,
      "duration": 0.3232,
      "velocity": 112,
      "chip": "ym2612"
    },
    {
      "channel": 3,
      "note": 80,
      "start": 27.8517,
      "duration": 0.2969,
      "velocity": 100,
      "chip": "ym2612"
    },
    {
      "channel": 0,
      "note": 41,
      "start": 27.9594,
      "duration": 0.1344,
      "velocity": 80,
      "chip": "ym2612"
    },
    {
      "channel": 0,
      "note": 41,
      "start": 28.1219,
      "duration": 0.1369,
      "velocity": 80,
      "chip": "ym2612"
    },
    {
      "channel": 1,
      "note": 79,
      "start": 28.1234,
      "duration": 0.1359,
      "velocity": 100,
      "chip": "ym2612"
    },
    {
      "channel": 4,
      "note": 67,
      "start": 28.1251,
      "duration": 0.1348,
      "velocity": 93,
      "chip": "ym2612"
    },
    {
      "channel": 5,
      "note": 52,
      "start": 28.1413,
      "duration": 0.1568,
      "velocity": 112,
      "chip": "ym2612"
    },
    {
      "channel": 3,
      "note": 79,
      "start": 28.1768,
      "duration": 0.1345,
      "velocity": 100,
      "chip": "ym2612"
    },
    {
      "channel": 0,
      "note": 41,
      "start": 28.2844,
      "duration": 0.1344,
      "velocity": 80,
      "chip": "ym2612"
    },
    {
      "channel": 1,
      "note": 79,
      "start": 28.2859,
      "duration": 0.2958,
      "velocity": 100,
      "chip": "ym2612"
    },
    {
      "channel": 4,
      "note": 67,
      "start": 28.2877,
      "duration": 0.2947,
      "velocity": 93,
      "chip": "ym2612"
    },
    {
      "channel": 5,
      "note": 34,
      "start": 28.3019,
      "duration": 0.3232,
      "velocity": 112,
      "chip": "ym2612"
    },
    {
      "channel": 3,
      "note": 79,
      "start": 28.3392,
      "duration": 0.2969,
      "velocity": 100,
      "chip": "ym2612"
    },
    {
      "channel": 0,
      "note": 41,
      "start": 28.4469,
      "duration": 0.1345,
      "velocity": 80,
      "chip": "ym2612"
    },
    {
      "channel": 0,
      "note": 41,
      "start": 28.6096,
      "duration": 0.1366,
      "velocity": 80,
      "chip": "ym2612"
    },
    {
      "channel": 1,
      "note": 75,
      "start": 28.6113,
      "duration": 0.458,
      "velocity": 100,
      "chip": "ym2612"
    },
    {
      "channel": 4,
      "note": 68,
      "start": 28.6133,
      "duration": 0.6055,
      "velocity": 93,
      "chip": "ym2612"
    },
    {
      "channel": 5,
      "note": 21,
      "start": 28.6292,
      "duration": 0.319,
      "velocity": 112,
      "chip": "ym2612"
    },
    {
      "channel": 3,
      "note": 75,
      "start": 28.6645,
      "duration": 0.4592,
      "velocity": 100,
      "chip": "ym2612"
    },
    {
      "channel": 0,
      "note": 39,
      "start": 28.772,
      "duration": 0.1344,
      "velocity": 80,
      "chip": "ym2612"
    },
    {
      "channel": 0,
      "note": 39,
      "start": 28.9344,
      "duration": 0.1345,
      "velocity": 80,
      "chip": "ym2612"
    },
    {
      "channel": 5,
      "note": 53,
      "start": 28.9518,
      "duration": 0.3214,
      "velocity": 126,
      "chip": "ym2612"
    },
    {
      "channel": 0,
      "note": 39,
      "start": 29.097,
      "duration": 0.1345,
      "velocity": 80,
      "chip": "ym2612"
    },
    {
      "channel": 1,
      "note": 73,
      "start": 29.0985,
      "duration": 0.7562,
      "velocity": 100,
      "chip": "ym2612"
    },
    {
      "channel": 3,
      "note": 73,
      "start": 29.1518,
      "duration": 0.7596,
      "velocity": 100,
      "chip": "ym2612"
    },
    {
      "channel": 0,
      "note": 39,
      "start": 29.2595,
      "duration": 0.1344,
      "velocity": 80,
      "chip": "ym2612"
    },
    {
      "channel": 4,
      "note": 70,
      "start": 29.2615,
      "duration": 0.6073,
      "velocity": 93,
      "chip": "ym2612"
    },
    {
      "channel": 5,
      "note": 0,
      "start": 29.277,
      "duration": 0.1586,
      "velocity": 112,
      "chip": "ym2612"
    },
    {
      "channel": 0,
      "note": 39,
      "start": 29.422,
      "duration": 0.1344,
      "velocity": 80,
      "chip": "ym2612"
    },
    {
      "channel": 5,
      "note": 58,
      "start": 29.4395,
      "duration": 0.1587,
      "velocity": 112,
      "chip": "ym2612"
    },
    {
      "channel": 0,
      "note": 39,
      "start": 29.5845,
      "duration": 0.1345,
      "velocity": 80,
      "chip": "ym2612"
    },
    {
      "channel": 5,
      "note": 58,
      "start": 29.6019,
      "duration": 0.3213,
      "velocity": 126,
      "chip": "ym2612"
    },
    {
      "channel": 0,
      "note": 39,
      "start": 29.7471,
      "duration": 0.1345,
      "velocity": 80,
      "chip": "ym2612"
    },
    {
      "channel": 0,
      "note": 39,
      "start": 29.9096,
      "duration": 0.1345,
      "velocity": 80,
      "chip": "ym2612"
    },
    {
      "channel": 1,
      "note": 80,
      "start": 29.911,
      "duration": 0.1333,
      "velocity": 100,
      "chip": "ym2612"
    },
    {
      "channel": 4,
      "note": 68,
      "start": 29.9129,
      "duration": 0.6059,
      "velocity": 93,
      "chip": "ym2612"
    },
    {
      "channel": 5,
      "note": 0,
      "start": 29.927,
      "duration": 0.1587,
      "velocity": 112,
      "chip": "ym2612"
    },
    {
      "channel": 3,
      "note": 80,
      "start": 29.9644,
      "duration": 0.1344,
      "velocity": 100,
      "chip": "ym2612"
    },
    {
      "channel": 0,
      "note": 39,
      "start": 30.0721,
      "duration": 0.1344,
      "velocity": 80,
      "chip": "ym2612"
    },
    {
      "channel": 1,
      "note": 73,
      "start": 30.0736,
      "duration": 0.2959,
      "velocity": 100,
      "chip": "ym2612"
    },
    {
      "channel": 5,
      "note": 58,
      "start": 30.0895,
      "duration": 0.1587,
      "velocity": 112,
      "chip": "ym2612"
    },
    {
      "channel": 3,
      "note": 73,
      "start": 30.1269,
      "duration": 0.2968,
      "velocity": 100,
      "chip": "ym2612"
    },
    {
      "channel": 0,
      "note": 39,
      "start": 30.2346,
      "duration": 0.1345,
      "velocity": 80,
      "chip": "ym2612"
    },
    {
      "channel": 5,
      "note": 58,
      "start": 30.252,
      "duration": 0.1588,
      "velocity": 126,
      "chip": "ym2612"
    },
    {
      "channel": 0,
      "note": 39,
      "start": 30.3971,
      "duration": 0.1345,
      "velocity": 80,
      "chip": "ym2612"
    },
    {
      "channel": 1,
      "note": 73,
      "start": 30.3986,
      "duration": 0.7562,
      "velocity": 100,
      "chip": "ym2612"
    },
    {
      "channel": 5,
      "note": 13,
      "start": 30.4147,
      "duration": 0.3211,
      "velocity": 112,
      "chip": "ym2612"
    },
    {
      "channel": 3,
      "note": 73,
      "start": 30.452,
      "duration": 0.7599,
      "velocity": 100,
      "chip": "ym2612"
    },
    {
      "channel": 0,
      "note": 39,
      "start": 30.5596,
      "duration": 0.1344,
      "velocity": 80,
      "chip": "ym2612"
    },
    {
      "channel": 4,
      "note": 70,
      "start": 30.5617,
      "duration": 0.6073,
      "velocity": 93,
      "chip": "ym2612"
    },
    {
      "channel": 0,
      "note": 39,
      "start": 30.7222,
      "duration": 0.1344,
      "velocity": 80,
      "chip": "ym2612"
    },
    {
      "channel": 5,
      "note": 52,
      "start": 30.7396,
      "duration": 0.1587,
      "velocity": 112,
      "chip": "ym2612"
    },
    {
      "channel": 0,
      "note": 39,
      "start": 30.8846,
      "duration": 0.1345,
      "velocity": 80,
      "chip": "ym2612"
    },
    {
      "channel": 5,
      "note": 58,
      "start": 30.9022,
      "duration": 0.3211,
      "velocity": 112,
      "chip": "ym2612"
    },
    {
      "channel": 0,
      "note": 39,
      "start": 31.0472,
      "duration": 0.1345,
      "velocity": 80,
      "chip": "ym2612"
    },
    {
      "channel": 0,
      "note": 39,
      "start": 31.2098,
      "duration": 0.1343,
      "velocity": 80,
      "chip": "ym2612"
    },
    {
      "channel": 1,
      "note": 80,
      "start": 31.2115,
      "duration": 0.4581,
      "velocity": 100,
      "chip": "ym2612"
    },
    {
      "channel": 4,
      "note": 72,
      "start": 31.2136,
      "duration": 0.6054,
      "velocity": 93,
      "chip": "ym2612"
    },
    {
      "channel": 5,
      "note": 0,
      "start": 31.2275,
      "duration": 0.3209,
      "velocity": 112,
      "chip": "ym2612"
    },
    {
      "channel": 3,
      "note": 80,
      "start": 31.2647,
      "duration": 0.4604,
      "velocity": 100,
      "chip": "ym2612"
    },
    {
      "channel": 0,
      "note": 39,
      "start": 31.3722,
      "duration": 0.1345,
      "velocity": 80,
      "chip": "ym2612"
    },
    {
      "channel": 0,
      "note": 39,
      "start": 31.5347,
      "duration": 0.1345,
      "velocity": 80,
      "chip": "ym2612"
    },
    {
      "channel": 5,
      "note": 53,
      "start": 31.5521,
      "duration": 0.3213,
      "velocity": 126,
      "chip": "ym2612"
    },
    {
      "channel": 0,
      "note": 39,
      "start": 31.6972,
      "duration": 0.1344,
      "velocity": 80,
      "chip": "ym2612"
    },
    {
      "channel": 1,
      "note": 73,
      "start": 31.6988,
      "duration": 0.7577,
      "velocity": 100,
      "chip": "ym2612"
    },
    {
      "channel": 3,
      "note": 73,
      "start": 31.7521,
      "duration": 0.7596,
      "velocity": 100,
      "chip": "ym2612"
    },
    {
      "channel": 0,
      "note": 39,
      "start": 31.8598,
      "duration": 0.1345,
      "velocity": 80,
      "chip": "ym2612"
    },
    {
      "channel": 4,
      "note": 73,
      "start": 31.8618,
      "duration": 0.6073,
      "velocity": 93,
      "chip": "ym2612"
    },
    {
      "channel": 5,
      "note": 0,
      "start": 31.8772,
      "duration": 0.1587,
      "velocity": 112,
      "chip": "ym2612"
    },
    {
      "channel": 0,
      "note": 39,
      "start": 32.0223,
      "duration": 0.1344,
      "velocity": 80,
      "chip": "ym2612"
    },
    {
      "channel": 5,
      "note": 58,
      "start": 32.0397,
      "duration": 0.1587,
      "velocity": 112,
      "chip": "ym2612"
    },
    {
      "channel": 0,
      "note": 39,
      "start": 32.1848,
      "duration": 0.1345,
      "velocity": 80,
      "chip": "ym2612"
    },
    {
      "channel": 5,
      "note": 58,
      "start": 32.2021,
      "duration": 0.3213,
      "velocity": 126,
      "chip": "ym2612"
    },
    {
      "channel": 0,
      "note": 39,
      "start": 32.3473,
      "duration": 0.1345,
      "velocity": 80,
      "chip": "ym2612"
    },
    {
      "channel": 0,
      "note": 39,
      "start": 32.5098,
      "duration": 0.1344,
      "velocity": 80,
      "chip": "ym2612"
    },
    {
      "channel": 1,
      "note": 80,
      "start": 32.5113,
      "duration": 0.2959,
      "velocity": 100,
      "chip": "ym2612"
    },
    {
      "channel": 4,
      "note": 72,
      "start": 32.5132,
      "duration": 0.2946,
      "velocity": 93,
      "chip": "ym2612"
    },
    {
      "channel": 5,
      "note": 0,
      "start": 32.5273,
      "duration": 0.1587,
      "velocity": 112,
      "chip": "ym2612"
    },
    {
      "channel": 3,
      "note": 80,
      "start": 32.5647,
      "duration": 0.2968,
      "velocity": 100,
      "chip": "ym2612"
    },
    {
      "channel": 0,
      "note": 39,
      "start": 32.6724,
      "duration": 0.1344,
      "velocity": 80,
      "chip": "ym2612"
    },
    {
      "channel": 5,
      "note": 58,
      "start": 32.6898,
      "duration": 0.1587,
      "velocity": 112,
      "chip": "ym2612"
    },
    {
      "channel": 0,
      "note": 39,
      "start": 32.8348,
      "duration": 0.1345,
      "velocity": 80,
      "chip": "ym2612"
    },
    {
      "channel": 1,
      "note": 79,
      "start": 32.8363,
      "duration": 0.1333,
      "velocity": 100,
      "chip": "ym2612"
    },
    {
      "channel": 4,
      "note": 73,
      "start": 32.8381,
      "duration": 0.1322,
      "velocity": 93,
      "chip": "ym2612"
    },
    {
      "channel": 5,
      "note": 58,
      "start": 32.8522,
      "duration": 0.1588,
      "velocity": 126,
      "chip": "ym2612"
    },
    {
      "channel": 3,
      "note": 79,
      "start": 32.8897,
      "duration": 0.1344,
      "velocity": 100,
      "chip": "ym2612"
    },
    {
      "channel": 0,
      "note": 39,
      "start": 32.9974,
      "duration": 0.1345,
      "velocity": 80,
      "chip": "ym2612"
    },
    {
      "channel": 1,
      "note": 80,
      "start": 32.9988,
      "duration": 0.2959,
      "velocity": 100,
      "chip": "ym2612"
    },
    {
      "channel": 4,
      "note": 72,
      "start": 33.0006,
      "duration": 0.2947,
      "velocity": 93,
      "chip": "ym2612"
    },
    {
      "channel": 5,
      "note": 13,
      "start": 33.0149,
      "duration": 0.3212,
      "velocity": 112,
      "chip": "ym2612"
    },
    {
      "channel": 3,
      "note": 80,
      "start": 33.0522,
      "duration": 0.2969,
      "velocity": 100,
      "chip": "ym2612"
    },
    {
      "channel": 0,
      "note": 39,
      "start": 33.1599,
      "duration": 0.1344,
      "velocity": 80,
      "chip": "ym2612"
    },
    {
      "channel": 0,
      "note": 39,
      "start": 33.3224,
      "duration": 0.1345,
      "velocity": 80,
      "chip": "ym2612"
    },
    {
      "channel": 1,
      "note": 79,
      "start": 33.3238,
      "duration": 0.1334,
      "velocity": 100,
      "chip": "ym2612"
    },
    {
      "channel": 4,
      "note": 73,
      "start": 33.3257,
      "duration": 0.1322,
      "velocity": 93,
      "chip": "ym2612"
    },
    {
      "channel": 5,
      "note": 52,
      "start": 33.3398,
      "duration": 0.1588,
      "velocity": 112,
      "chip": "ym2612"
    },
    {
      "channel": 3,
      "note": 79,
      "start": 33.3773,
      "duration": 0.1343,
      "velocity": 100,
      "chip": "ym2612"
    },
    {
      "channel": 0,
      "note": 39,
      "start": 33.4849,
      "duration": 0.1345,
      "velocity": 80,
      "chip": "ym2612"
    },
    {
      "channel": 1,
      "note": 79,
      "start": 33.4863,
      "duration": 0.2959,
      "velocity": 100,
      "chip": "ym2612"
    },
    {
      "channel": 4,
      "note": 73,
      "start": 33.4882,
      "duration": 0.2946,
      "velocity": 93,
      "chip": "ym2612"
    },
    {
      "channel": 5,
      "note": 34,
      "start": 33.5024,
      "duration": 0.3212,
      "velocity": 112,
      "chip": "ym2612"
    },
    {
      "channel": 3,
      "note": 79,
      "start": 33.5398,
      "duration": 0.2968,
      "velocity": 100,
      "chip": "ym2612"
    },
    {
      "channel": 0,
      "note": 39,
      "start": 33.6474,
      "duration": 0.1344,
      "velocity": 80,
      "chip": "ym2612"
    },
    {
      "channel": 0,
      "note": 39,
      "start": 33.8102,
      "duration": 0.1342,
      "velocity": 80,
      "chip": "ym2612"
    },
    {
      "channel": 1,
      "note": 75,
      "start": 33.8117,
      "duration": 0.6069,
      "velocity": 100,
      "chip": "ym2612"
    },
    {
      "channel": 4,
      "note": 75,
      "start": 33.8138,
      "duration": 0.6055,
      "velocity": 93,
      "chip": "ym2612"
    },
    {
      "channel": 5,
      "note": 21,
      "start": 33.8277,
      "duration": 0.3209,
      "velocity": 112,
      "chip": "ym2612"
    },
    {
      "channel": 3,
      "note": 75,
      "start": 33.865,
      "duration": 0.6081,
      "velocity": 100,
      "chip": "ym2612"
    },
    {
      "channel": 0,
      "note": 41,
      "start": 33.9724,
      "duration": 0.1345,
      "velocity": 80,
      "chip": "ym2612"
    },
    {
      "channel": 0,
      "note": 41,
      "start": 34.135,
      "duration": 0.1345,
      "velocity": 80,
      "chip": "ym2612"
    },
    {
      "channel": 5,
      "note": 52,
      "start": 34.1523,
      "duration": 0.3215,
      "velocity": 126,
      "chip": "ym2612"
    },
    {
      "channel": 0,
      "note": 41,
      "start": 34.2975,
      "duration": 0.1344,
      "velocity": 80,
      "chip": "ym2612"
    },
    {
      "channel": 0,
      "note": 41,
      "start": 34.46,
      "duration": 0.1344,
      "velocity": 80,
      "chip": "ym2612"
    },
    {
      "channel": 1,
      "note": 77,
      "start": 34.4615,
      "duration": 0.6076,
      "velocity": 100,
      "chip": "ym2612"
    },
    {
      "channel": 4,
      "note": 80,
      "start": 34.4633,
      "duration": 0.6063,
      "velocity": 93,
      "chip": "ym2612"
    },
    {
      "channel": 5,
      "note": 0,
      "start": 34.4776,
      "duration": 0.1586,
      "velocity": 112,
      "chip": "ym2612"
    },
    {
      "channel": 3,
      "note": 77,
      "start": 34.5149,
      "duration": 0.6083,
      "velocity": 100,
      "chip": "ym2612"
    },
    {
      "channel": 0,
      "note": 41,
      "start": 34.6225,
      "duration": 0.1345,
      "velocity": 80,
      "chip": "ym2612"
    },
    {
      "channel": 5,
      "note": 58,
      "start": 34.64,
      "duration": 0.1587,
      "velocity": 112,
      "chip": "ym2612"
    },
    {
      "channel": 0,
      "note": 41,
      "start": 34.785,
      "duration": 0.1345,
      "velocity": 80,
      "chip": "ym2612"
    },
    {
      "channel": 5,
      "note": 58,
      "start": 34.8024,
      "duration": 0.3215,
      "velocity": 126,
      "chip": "ym2612"
    },
    {
      "channel": 0,
      "note": 41,
      "start": 34.9478,
      "duration": 0.1342,
      "velocity": 80,
      "chip": "ym2612"
    },
    {
      "channel": 0,
      "note": 41,
      "start": 35.11,
      "duration": 0.1345,
      "velocity": 80,
      "chip": "ym2612"
    },
    {
      "channel": 1,
      "note": 75,
      "start": 35.1115,
      "duration": 0.2959,
      "velocity": 100,
      "chip": "ym2612"
    },
    {
      "channel": 4,
      "note": 75,
      "start": 35.1134,
      "duration": 0.606,
      "velocity": 93,
      "chip": "ym2612"
    },
    {
      "channel": 5,
      "note": 0,
      "start": 35.1276,
      "duration": 0.1586,
      "velocity": 112,
      "chip": "ym2612"
    },
    {
      "channel": 3,
      "note": 75,
      "start": 35.1649,
      "duration": 0.2968,
      "velocity": 100,
      "chip": "ym2612"
    },
    {
      "channel": 0,
      "note": 41,
      "start": 35.2726,
      "duration": 0.1345,
      "velocity": 80,
      "chip": "ym2612"
    },
    {
      "channel": 5,
      "note": 58,
      "start": 35.29,
      "duration": 0.1587,
      "velocity": 112,
      "chip": "ym2612"
    },
    {
      "channel": 0,
      "note": 41,
      "start": 35.4356,
      "duration": 0.1339,
      "velocity": 80,
      "chip": "ym2612"
    },
    {
      "channel": 1,
      "note": 77,
      "start": 35.4371,
      "duration": 0.1328,
      "velocity": 100,
      "chip": "ym2612"
    },
    {
      "channel": 5,
      "note": 58,
      "start": 35.4524,
      "duration": 0.1588,
      "velocity": 126,
      "chip": "ym2612"
    },
    {
      "channel": 3,
      "note": 77,
      "start": 35.4899,
      "duration": 0.1344,
      "velocity": 100,
      "chip": "ym2612"
    },
    {
      "channel": 0,
      "note": 41,
      "start": 35.5976,
      "duration": 0.1345,
      "velocity": 80,
      "chip": "ym2612"
    },
    {
      "channel": 1,
      "note": 75,
      "start": 35.5991,
      "duration": 0.2959,
      "velocity": 100,
      "chip": "ym2612"
    },
    {
      "channel": 5,
      "note": 12,
      "start": 35.6151,
      "duration": 0.3212,
      "velocity": 112,
      "chip": "ym2612"
    },
    {
      "channel": 3,
      "note": 75,
      "start": 35.6524,
      "duration": 0.2969,
      "velocity": 100,
      "chip": "ym2612"
    },
    {
      "channel": 0,
      "note": 41,
      "start": 35.7602,
      "duration": 0.1344,
      "velocity": 80,
      "chip": "ym2612"
    },
    {
      "channel": 4,
      "note": 72,
      "start": 35.7622,
      "duration": 0.6072,
      "velocity": 93,
      "chip": "ym2612"
    },
    {
      "channel": 0,
      "note": 41,
      "start": 35.9231,
      "duration": 0.134,
      "velocity": 80,
      "chip": "ym2612"
    },
    {
      "channel": 1,
      "note": 77,
      "start": 35.9245,
      "duration": 0.1329,
      "velocity": 100,
      "chip": "ym2612"
    },
    {
      "channel": 5,
      "note": 53,
      "start": 35.9401,
      "duration": 0.1587,
      "velocity": 112,
      "chip": "ym2612"
    },
    {
      "channel": 3,
      "note": 77,
      "start": 35.9775,
      "duration": 0.1343,
      "velocity": 100,
      "chip": "ym2612"
    },
    {
      "channel": 0,
      "note": 41,
      "start": 36.0851,
      "duration": 0.1345,
      "velocity": 80,
      "chip": "ym2612"
    },
    {
      "channel": 1,
      "note": 79,
      "start": 36.0867,
      "duration": 0.2958,
      "velocity": 100,
      "chip": "ym2612"
    },
    {
      "channel": 5,
      "note": 58,
      "start": 36.1027,
      "duration": 0.3211,
      "velocity": 112,
      "chip": "ym2612"
    },
    {
      "channel": 3,
      "note": 79,
      "start": 36.14,
      "duration": 0.2969,
      "velocity": 100,
      "chip": "ym2612"
    },
    {
      "channel": 0,
      "note": 41,
      "start": 36.2477,
      "duration": 0.1344,
      "velocity": 80,
      "chip": "ym2612"
    },
    {
      "channel": 0,
      "note": 41,
      "start": 36.4108,
      "duration": 0.1338,
      "velocity": 80,
      "chip": "ym2612"
    },
    {
      "channel": 1,
      "note": 80,
      "start": 36.4126,
      "duration": 0.6073,
      "velocity": 100,
      "chip": "ym2612"
    },
    {
      "channel": 4,
      "note": 68,
      "start": 36.4145,
      "duration": 0.6061,
      "velocity": 93,
      "chip": "ym2612"
    },
    {
      "channel": 5,
      "note": 8,
      "start": 36.428,
      "duration": 0.3209,
      "velocity": 112,
      "chip": "ym2612"
    },
    {
      "channel": 3,
      "note": 80,
      "start": 36.4652,
      "duration": 0.6081,
      "velocity": 100,
      "chip": "ym2612"
    },
    {
      "channel": 0,
      "note": 41,
      "start": 36.5727,
      "duration": 0.1345,
      "velocity": 80,
      "chip": "ym2612"
    },
    {
      "channel": 0,
      "note": 41,
      "start": 36.7352,
      "duration": 0.1345,
      "velocity": 80,
      "chip": "ym2612"
    },
    {
      "channel": 5,
      "note": 52,
      "start": 36.7526,
      "duration": 0.3214,
      "velocity": 126,
      "chip": "ym2612"
    },
    {
      "channel": 0,
      "note": 41,
      "start": 36.8989,
      "duration": 0.1333,
      "velocity": 80,
      "chip": "ym2612"
    },
    {
      "channel": 0,
      "note": 41,
      "start": 37.0603,
      "duration": 0.1344,
      "velocity": 80,
      "chip": "ym2612"
    },
    {
      "channel": 1,
      "note": 82,
      "start": 37.0618,
      "duration": 0.6072,
      "velocity": 100,
      "chip": "ym2612"
    },
    {
      "channel": 4,
      "note": 67,
      "start": 37.0636,
      "duration": 0.6061,
      "velocity": 93,
      "chip": "ym2612"
    },
    {
      "channel": 5,
      "note": 0,
      "start": 37.0778,
      "duration": 0.1586,
      "velocity": 112,
      "chip": "ym2612"
    },
    {
      "channel": 3,
      "note": 82,
      "start": 37.1151,
      "duration": 0.6083,
      "velocity": 100,
      "chip": "ym2612"
    },
    {
      "channel": 0,
      "note": 41,
      "start": 37.2227,
      "duration": 0.1345,
      "velocity": 80,
      "chip": "ym2612"
    },
    {
      "channel": 5,
      "note": 58,
      "start": 37.2402,
      "duration": 0.1587,
      "velocity": 112,
      "chip": "ym2612"
    },
    {
      "channel": 0,
      "note": 41,
      "start": 37.3864,
      "duration": 0.1333,
      "velocity": 80,
      "chip": "ym2612"
    },
    {
      "channel": 5,
      "note": 58,
      "start": 37.4027,
      "duration": 0.3214,
      "velocity": 126,
      "chip": "ym2612"
    },
    {
      "channel": 0,
      "note": 41,
      "start": 37.5478,
      "duration": 0.1344,
      "velocity": 80,
      "chip": "ym2612"
    },
    {
      "channel": 0,
      "note": 41,
      "start": 37.7103,
      "duration": 0.1345,
      "velocity": 80,
      "chip": "ym2612"
    },
    {
      "channel": 1,
      "note": 80,
      "start": 37.7117,
      "duration": 0.2959,
      "velocity": 100,
      "chip": "ym2612"
    },
    {
      "channel": 4,
      "note": 65,
      "start": 37.7136,
      "duration": 0.2947,
      "velocity": 93,
      "chip": "ym2612"
    },
    {
      "channel": 5,
      "note": 0,
      "start": 37.7279,
      "duration": 0.1586,
      "velocity": 112,
      "chip": "ym2612"
    },
    {
      "channel": 3,
      "note": 80,
      "start": 37.7652,
      "duration": 0.2968,
      "velocity": 100,
      "chip": "ym2612"
    },
    {
      "channel": 0,
      "note": 41,
      "start": 37.8739,
      "duration": 0.1334,
      "velocity": 80,
      "chip": "ym2612"
    },
    {
      "channel": 5,
      "note": 58,
      "start": 37.8903,
      "duration": 0.1587,
      "velocity": 112,
      "chip": "ym2612"
    },
    {
      "channel": 0,
      "note": 41,
      "start": 38.0353,
      "duration": 0.1345,
      "velocity": 80,
      "chip": "ym2612"
    },
    {
      "channel": 1,
      "note": 79,
      "start": 38.0369,
      "duration": 0.1333,
      "velocity": 100,
      "chip": "ym2612"
    },
    {
      "channel": 4,
      "note": 67,
      "start": 38.0386,
      "duration": 0.1322,
      "velocity": 93,
      "chip": "ym2612"
    },
    {
      "channel": 5,
      "note": 58,
      "start": 38.0527,
      "duration": 0.1588,
      "velocity": 126,
      "chip": "ym2612"
    },
    {
      "channel": 3,
      "note": 79,
      "start": 38.0902,
      "duration": 0.1344,
      "velocity": 100,
      "chip": "ym2612"
    },
    {
      "channel": 0,
      "note": 41,
      "start": 38.1979,
      "duration": 0.1344,
      "velocity": 80,
      "chip": "ym2612"
    },
    {
      "channel": 1,
      "note": 80,
      "start": 38.1993,
      "duration": 0.2959,
      "velocity": 100,
      "chip": "ym2612"
    },
    {
      "channel": 4,
      "note": 65,
      "start": 38.201,
      "duration": 0.2949,
      "velocity": 93,
      "chip": "ym2612"
    },
    {
      "channel": 5,
      "note": 13,
      "start": 38.2154,
      "duration": 0.3212,
      "velocity": 112,
      "chip": "ym2612"
    },
    {
      "channel": 3,
      "note": 80,
      "start": 38.2527,
      "duration": 0.2968,
      "velocity": 100,
      "chip": "ym2612"
    },
    {
      "channel": 0,
      "note": 41,
      "start": 38.3619,
      "duration": 0.1329,
      "velocity": 80,
      "chip": "ym2612"
    },
    {
      "channel": 0,
      "note": 41,
      "start": 38.5229,
      "duration": 0.1345,
      "velocity": 80,
      "chip": "ym2612"
    },
    {
      "channel": 1,
      "note": 79,
      "start": 38.5243,
      "duration": 0.1334,
      "velocity": 100,
      "chip": "ym2612"
    },
    {
      "channel": 4,
      "note": 67,
      "start": 38.5261,
      "duration": 0.1322,
      "velocity": 93,
      "chip": "ym2612"
    },
    {
      "channel": 5,
      "note": 52,
      "start": 38.5403,
      "duration": 0.1588,
      "velocity": 112,
      "chip": "ym2612"
    },
    {
      "channel": 3,
      "note": 79,
      "start": 38.5777,
      "duration": 0.1344,
      "velocity": 100,
      "chip": "ym2612"
    },
    {
      "channel": 0,
      "note": 41,
      "start": 38.6854,
      "duration": 0.1345,
      "velocity": 80,
      "chip": "ym2612"
    },
    {
      "channel": 1,
      "note": 79,
      "start": 38.6869,
      "duration": 0.2959,
      "velocity": 100,
      "chip": "ym2612"
    },
    {
      "channel": 4,
      "note": 67,
      "start": 38.6886,
      "duration": 0.2947,
      "velocity": 93,
      "chip": "ym2612"
    },
    {
      "channel": 5,
      "note": 34,
      "start": 38.7029,
      "duration": 0.3212,
      "velocity": 112,
      "chip": "ym2612"
    },
    {
      "channel": 3,
      "note": 79,
      "start": 38.7402,
      "duration": 0.2969,
      "velocity": 100,
      "chip": "ym2612"
    },
    {
      "channel": 0,
      "note": 41,
      "start": 38.8496,
      "duration": 0.1328,
      "velocity": 80,
      "chip": "ym2612"
    },
    {
      "channel": 0,
      "note": 41,
      "start": 39.0106,
      "duration": 0.1343,
      "velocity": 80,
      "chip": "ym2612"
    },
    {
      "channel": 1,
      "note": 75,
      "start": 39.0122,
      "duration": 0.4581,
      "velocity": 100,
      "chip": "ym2612"
    },
    {
      "channel": 4,
      "note": 68,
      "start": 39.0142,
      "duration": 0.6055,
      "velocity": 93,
      "chip": "ym2612"
    },
    {
      "channel": 5,
      "note": 21,
      "start": 39.0282,
      "duration": 0.3209,
      "velocity": 112,
      "chip": "ym2612"
    },
    {
      "channel": 3,
      "note": 75,
      "start": 39.0654,
      "duration": 0.4592,
      "velocity": 100,
      "chip": "ym2612"
    },
    {
      "channel": 0,
      "note": 39,
      "start": 39.1729,
      "duration": 0.1345,
      "velocity": 80,
      "chip": "ym2612"
    },
    {
      "channel": 0,
      "note": 39,
      "start": 39.3369,
      "duration": 0.133,
      "velocity": 80,
      "chip": "ym2612"
    },
    {
      "channel": 5,
      "note": 53,
      "start": 39.3528,
      "duration": 0.3213,
      "velocity": 126,
      "chip": "ym2612"
    },
    {
      "channel": 0,
      "note": 39,
      "start": 39.498,
      "duration": 0.1345,
      "velocity": 80,
      "chip": "ym2612"
    },
    {
      "channel": 1,
      "note": 73,
      "start": 39.4995,
      "duration": 0.7562,
      "velocity": 100,
      "chip": "ym2612"
    },
    {
      "channel": 3,
      "note": 73,
      "start": 39.5528,
      "duration": 0.7616,
      "velocity": 100,
      "chip": "ym2612"
    },
    {
      "channel": 0,
      "note": 39,
      "start": 39.6605,
      "duration": 0.1344,
      "velocity": 80,
      "chip": "ym2612"
    },
    {
      "channel": 4,
      "note": 70,
      "start": 39.6626,
      "duration": 0.6071,
      "velocity": 93,
      "chip": "ym2612"
    },
    {
      "channel": 5,
      "note": 0,
      "start": 39.678,
      "duration": 0.1587,
      "velocity": 112,
      "chip": "ym2612"
    },
    {
      "channel": 0,
      "note": 39,
      "start": 39.8246,
      "duration": 0.1328,
      "velocity": 80,
      "chip": "ym2612"
    },
    {
      "channel": 5,
      "note": 58,
      "start": 39.8405,
      "duration": 0.1588,
      "velocity": 112,
      "chip": "ym2612"
    },
    {
      "channel": 0,
      "note": 39,
      "start": 39.9855,
      "duration": 0.1345,
      "velocity": 80,
      "chip": "ym2612"
    },
    {
      "channel": 5,
      "note": 58,
      "start": 40.003,
      "duration": 0.3212,
      "velocity": 126,
      "chip": "ym2612"
    },
    {
      "channel": 0,
      "note": 39,
      "start": 40.1481,
      "duration": 0.1344,
      "velocity": 80,
      "chip": "ym2612"
    },
    {
      "channel": 0,
      "note": 39,
      "start": 40.3126,
      "duration": 0.1324,
      "velocity": 80,
      "chip": "ym2612"
    },
    {
      "channel": 1,
      "note": 80,
      "start": 40.3141,
      "duration": 0.1313,
      "velocity": 100,
      "chip": "ym2612"
    },
    {
      "channel": 4,
      "note": 68,
      "start": 40.3159,
      "duration": 0.606,
      "velocity": 93,
      "chip": "ym2612"
    },
    {
      "channel": 5,
      "note": 0,
      "start": 40.328,
      "duration": 0.1588,
      "velocity": 112,
      "chip": "ym2612"
    },
    {
      "channel": 3,
      "note": 80,
      "start": 40.3654,
      "duration": 0.1343,
      "velocity": 100,
      "chip": "ym2612"
    },
    {
      "channel": 0,
      "note": 39,
      "start": 40.4731,
      "duration": 0.1349,
      "velocity": 80,
      "chip": "ym2612"
    },
    {
      "channel": 1,
      "note": 73,
      "start": 40.4745,
      "duration": 0.2959,
      "velocity": 100,
      "chip": "ym2612"
    },
    {
      "channel": 5,
      "note": 58,
      "start": 40.4906,
      "duration": 0.1586,
      "velocity": 112,
      "chip": "ym2612"
    },
    {
      "channel": 3,
      "note": 73,
      "start": 40.5279,
      "duration": 0.2969,
      "velocity": 100,
      "chip": "ym2612"
    },
    {
      "channel": 0,
      "note": 39,
      "start": 40.6356,
      "duration": 0.1345,
      "velocity": 80,
      "chip": "ym2612"
    },
    {
      "channel": 5,
      "note": 58,
      "start": 40.6529,
      "duration": 0.1588,
      "velocity": 126,
      "chip": "ym2612"
    },
    {
      "channel": 0,
      "note": 39,
      "start": 40.8,
      "duration": 0.1325,
      "velocity": 80,
      "chip": "ym2612"
    },
    {
      "channel": 1,
      "note": 73,
      "start": 40.8016,
      "duration": 0.7543,
      "velocity": 100,
      "chip": "ym2612"
    },
    {
      "channel": 5,
      "note": 13,
      "start": 40.8156,
      "duration": 0.3212,
      "velocity": 112,
      "chip": "ym2612"
    },
    {
      "channel": 3,
      "note": 73,
      "start": 40.853,
      "duration": 0.7599,
      "velocity": 100,
      "chip": "ym2612"
    },
    {
      "channel": 0,
      "note": 39,
      "start": 40.9606,
      "duration": 0.1351,
      "velocity": 80,
      "chip": "ym2612"
    },
    {
      "channel": 4,
      "note": 70,
      "start": 40.9628,
      "duration": 0.6071,
      "velocity": 93,
      "chip": "ym2612"
    },
    {
      "channel": 0,
      "note": 39,
      "start": 41.1231,
      "duration": 0.1345,
      "velocity": 80,
      "chip": "ym2612"
    },
    {
      "channel": 5,
      "note": 52,
      "start": 41.1406,
      "duration": 0.1587,
      "velocity": 112,
      "chip": "ym2612"
    },
    {
      "channel": 0,
      "note": 39,
      "start": 41.2878,
      "duration": 0.1324,
      "velocity": 80,
      "chip": "ym2612"
    },
    {
      "channel": 5,
      "note": 58,
      "start": 41.3032,
      "duration": 0.3212,
      "velocity": 112,
      "chip": "ym2612"
    },
    {
      "channel": 0,
      "note": 39,
      "start": 41.4482,
      "duration": 0.1349,
      "velocity": 80,
      "chip": "ym2612"
    },
    {
      "channel": 0,
      "note": 39,
      "start": 41.6108,
      "duration": 0.1343,
      "velocity": 80,
      "chip": "ym2612"
    },
    {
      "channel": 1,
      "note": 80,
      "start": 41.6125,
      "duration": 0.4589,
      "velocity": 100,
      "chip": "ym2612"
    },
    {
      "channel": 4,
      "note": 72,
      "start": 41.6146,
      "duration": 0.6054,
      "velocity": 93,
      "chip": "ym2612"
    },
    {
      "channel": 5,
      "note": 0,
      "start": 41.6285,
      "duration": 0.3216,
      "velocity": 112,
      "chip": "ym2612"
    },
    {
      "channel": 3,
      "note": 80,
      "start": 41.6657,
      "duration": 0.4592,
      "velocity": 100,
      "chip": "ym2612"
    },
    {
      "channel": 0,
      "note": 39,
      "start": 41.7732,
      "duration": 0.1345,
      "velocity": 80,
      "chip": "ym2612"
    },
    {
      "channel": 0,
      "note": 39,
      "start": 41.9357,
      "duration": 0.1353,
      "velocity": 80,
      "chip": "ym2612"
    },
    {
      "channel": 5,
      "note": 52,
      "start": 41.9537,
      "duration": 0.3207,
      "velocity": 126,
      "chip": "ym2612"
    },
    {
      "channel": 0,
      "note": 39,
      "start": 42.0983,
      "duration": 0.1344,
      "velocity": 80,
      "chip": "ym2612"
    },
    {
      "channel": 1,
      "note": 73,
      "start": 42.0998,
      "duration": 0.7562,
      "velocity": 100,
      "chip": "ym2612"
    },
    {
      "channel": 3,
      "note": 73,
      "start": 42.1531,
      "duration": 0.7596,
      "velocity": 100,
      "chip": "ym2612"
    },
    {
      "channel": 0,
      "note": 39,
      "start": 42.2607,
      "duration": 0.1345,
      "velocity": 80,
      "chip": "ym2612"
    },
    {
      "channel": 4,
      "note": 73,
      "start": 42.2629,
      "duration": 0.6071,
      "velocity": 93,
      "chip": "ym2612"
    },
    {
      "channel": 5,
      "note": 0,
      "start": 42.2782,
      "duration": 0.1594,
      "velocity": 112,
      "chip": "ym2612"
    },
    {
      "channel": 0,
      "note": 39,
      "start": 42.4232,
      "duration": 0.1356,
      "velocity": 80,
      "chip": "ym2612"
    },
    {
      "channel": 5,
      "note": 58,
      "start": 42.4415,
      "duration": 0.1579,
      "velocity": 112,
      "chip": "ym2612"
    },
    {
      "channel": 0,
      "note": 39,
      "start": 42.5858,
      "duration": 0.1345,
      "velocity": 80,
      "chip": "ym2612"
    },
    {
      "channel": 5,
      "note": 58,
      "start": 42.6031,
      "duration": 0.3221,
      "velocity": 126,
      "chip": "ym2612"
    },
    {
      "channel": 0,
      "note": 39,
      "start": 42.7483,
      "duration": 0.1345,
      "velocity": 80,
      "chip": "ym2612"
    },
    {
      "channel": 0,
      "note": 39,
      "start": 42.9108,
      "duration": 0.1357,
      "velocity": 80,
      "chip": "ym2612"
    },
    {
      "channel": 1,
      "note": 80,
      "start": 42.9123,
      "duration": 0.2958,
      "velocity": 100,
      "chip": "ym2612"
    },
    {
      "channel": 4,
      "note": 72,
      "start": 42.9142,
      "duration": 0.2945,
      "velocity": 93,
      "chip": "ym2612"
    },
    {
      "channel": 5,
      "note": 0,
      "start": 42.929,
      "duration": 0.1579,
      "velocity": 112,
      "chip": "ym2612"
    },
    {
      "channel": 3,
      "note": 80,
      "start": 42.9656,
      "duration": 0.2969,
      "velocity": 100,
      "chip": "ym2612"
    },
    {
      "channel": 0,
      "note": 39,
      "start": 43.0733,
      "duration": 0.1344,
      "velocity": 80,
      "chip": "ym2612"
    },
    {
      "channel": 5,
      "note": 58,
      "start": 43.0908,
      "duration": 0.1586,
      "velocity": 112,
      "chip": "ym2612"
    },
    {
      "channel": 0,
      "note": 39,
      "start": 43.2359,
      "duration": 0.1344,
      "velocity": 80,
      "chip": "ym2612"
    },
    {
      "channel": 1,
      "note": 79,
      "start": 43.2374,
      "duration": 0.1333,
      "velocity": 100,
      "chip": "ym2612"
    },
    {
      "channel": 4,
      "note": 73,
      "start": 43.2392,
      "duration": 0.1321,
      "velocity": 93,
      "chip": "ym2612"
    },
    {
      "channel": 5,
      "note": 58,
      "start": 43.2532,
      "duration": 0.1598,
      "velocity": 126,
      "chip": "ym2612"
    },
    {
      "channel": 3,
      "note": 79,
      "start": 43.2915,
      "duration": 0.1335,
      "velocity": 100,
      "chip": "ym2612"
    },
    {
      "channel": 0,
      "note": 39,
      "start": 43.3983,
      "duration": 0.1359,
      "velocity": 80,
      "chip": "ym2612"
    },
    {
      "channel": 1,
      "note": 80,
      "start": 43.3998,
      "duration": 0.2959,
      "velocity": 100,
      "chip": "ym2612"
    },
    {
      "channel": 4,
      "note": 72,
      "start": 43.4016,
      "duration": 0.2947,
      "velocity": 93,
      "chip": "ym2612"
    },
    {
      "channel": 5,
      "note": 12,
      "start": 43.4168,
      "duration": 0.3203,
      "velocity": 112,
      "chip": "ym2612"
    },
    {
      "channel": 3,
      "note": 80,
      "start": 43.4532,
      "duration": 0.2968,
      "velocity": 100,
      "chip": "ym2612"
    },
    {
      "channel": 0,
      "note": 39,
      "start": 43.5608,
      "duration": 0.1345,
      "velocity": 80,
      "chip": "ym2612"
    },
    {
      "channel": 0,
      "note": 39,
      "start": 43.7234,
      "duration": 0.1345,
      "velocity": 80,
      "chip": "ym2612"
    },
    {
      "channel": 1,
      "note": 79,
      "start": 43.7249,
      "duration": 0.1333,
      "velocity": 100,
      "chip": "ym2612"
    },
    {
      "channel": 4,
      "note": 73,
      "start": 43.7266,
      "duration": 0.1322,
      "velocity": 93,
      "chip": "ym2612"
    },
    {
      "channel": 5,
      "note": 53,
      "start": 43.7408,
      "duration": 0.1598,
      "velocity": 112,
      "chip": "ym2612"
    },
    {
      "channel": 3,
      "note": 79,
      "start": 43.7792,
      "duration": 0.1333,
      "velocity": 100,
      "chip": "ym2612"
    },
    {
      "channel": 0,
      "note": 39,
      "start": 43.8859,
      "duration": 0.136,
      "velocity": 80,
      "chip": "ym2612"
    },
    {
      "channel": 1,
      "note": 79,
      "start": 43.8874,
      "duration": 0.2959,
      "velocity": 100,
      "chip": "ym2612"
    },
    {
      "channel": 4,
      "note": 73,
      "start": 43.8892,
      "duration": 0.2947,
      "velocity": 93,
      "chip": "ym2612"
    },
    {
      "channel": 5,
      "note": 33,
      "start": 43.9044,
      "duration": 0.3202,
      "velocity": 112,
      "chip": "ym2612"
    },
    {
      "channel": 3,
      "note": 79,
      "start": 43.9407,
      "duration": 0.2968,
      "velocity": 100,
      "chip": "ym2612"
    },
    {
      "channel": 0,
      "note": 39,
      "start": 44.0484,
      "duration": 0.1344,
      "velocity": 80,
      "chip": "ym2612"
    },
    {
      "channel": 0,
      "note": 39,
      "start": 44.2111,
      "duration": 0.1343,
      "velocity": 80,
      "chip": "ym2612"
    },
    {
      "channel": 1,
      "note": 75,
      "start": 44.2128,
      "duration": 0.458,
      "velocity": 100,
      "chip": "ym2612"
    },
    {
      "channel": 4,
      "note": 75,
      "start": 44.218,
      "duration": 0.4534,
      "velocity": 97,
      "chip": "ym2612"
    },
    {
      "channel": 5,
      "note": 23,
      "start": 44.2287,
      "duration": 0.3209,
      "velocity": 112,
      "chip": "ym2612"
    },
    {
      "channel": 3,
      "note": 75,
      "start": 44.2669,
      "duration": 0.4583,
      "velocity": 100,
      "chip": "ym2612"
    },
    {
      "channel": 0,
      "note": 37,
      "start": 44.3734,
      "duration": 0.1358,
      "velocity": 80,
      "chip": "ym2612"
    },
    {
      "channel": 0,
      "note": 37,
      "start": 44.536,
      "duration": 0.1344,
      "velocity": 80,
      "chip": "ym2612"
    },
    {
      "channel": 5,
      "note": 52,
      "start": 44.5533,
      "duration": 0.3225,
      "velocity": 126,
      "chip": "ym2612"
    },
    {
      "channel": 0,
      "note": 37,
      "start": 44.6984,
      "duration": 0.1345,
      "velocity": 80,
      "chip": "ym2612"
    },
    {
      "channel": 1,
      "note": 73,
      "start": 44.7,
      "duration": 0.4583,
      "velocity": 100,
      "chip": "ym2612"
    },
    {
      "channel": 4,
      "note": 77,
      "start": 44.7017,
      "duration": 0.4572,
      "velocity": 97,
      "chip": "ym2612"
    },
    {
      "channel": 3,
      "note": 73,
      "start": 44.7546,
      "duration": 0.4582,
      "velocity": 100,
      "chip": "ym2612"
    },
    {
      "channel": 0,
      "note": 37,
      "start": 44.861,
      "duration": 0.1361,
      "velocity": 80,
      "chip": "ym2612"
    },
    {
      "channel": 5,
      "note": 0,
      "start": 44.8797,
      "duration": 0.1575,
      "velocity": 112,
      "chip": "ym2612"
    },
    {
      "channel": 0,
      "note": 37,
      "start": 45.0235,
      "duration": 0.1345,
      "velocity": 80,
      "chip": "ym2612"
    },
    {
      "channel": 5,
      "note": 58,
      "start": 45.041,
      "duration": 0.1587,
      "velocity": 112,
      "chip": "ym2612"
    },
    {
      "channel": 0,
      "note": 37,
      "start": 45.186,
      "duration": 0.1344,
      "velocity": 80,
      "chip": "ym2612"
    },
    {
      "channel": 1,
      "note": 80,
      "start": 45.1875,
      "duration": 0.2975,
      "velocity": 100,
      "chip": "ym2612"
    },
    {
      "channel": 4,
      "note": 84,
      "start": 45.1892,
      "duration": 0.2964,
      "velocity": 97,
      "chip": "ym2612"
    },
    {
      "channel": 5,
      "note": 58,
      "start": 45.2033,
      "duration": 0.3214,
      "velocity": 126,
      "chip": "ym2612"
    },
    {
      "channel": 3,
      "note": 80,
      "start": 45.2423,
      "duration": 0.2954,
      "velocity": 100,
      "chip": "ym2612"
    },
    {
      "channel": 0,
      "note": 37,
      "start": 45.3485,
      "duration": 0.1362,
      "velocity": 80,
      "chip": "ym2612"
    },
    {
      "channel": 0,
      "note": 37,
      "start": 45.511,
      "duration": 0.1345,
      "velocity": 80,
      "chip": "ym2612"
    },
    {
      "channel": 1,
      "note": 73,
      "start": 45.5126,
      "duration": 0.4604,
      "velocity": 100,
      "chip": "ym2612"
    },
    {
      "channel": 4,
      "note": 77,
      "start": 45.5144,
      "duration": 0.4593,
      "velocity": 97,
      "chip": "ym2612"
    },
    {
      "channel": 5,
      "note": 0,
      "start": 45.5285,
      "duration": 0.1587,
      "velocity": 112,
      "chip": "ym2612"
    },
    {
      "channel": 3,
      "note": 73,
      "start": 45.5659,
      "duration": 0.4594,
      "velocity": 100,
      "chip": "ym2612"
    },
    {
      "channel": 0,
      "note": 39,
      "start": 45.6736,
      "duration": 0.1345,
      "velocity": 80,
      "chip": "ym2612"
    },
    {
      "channel": 5,
      "note": 58,
      "start": 45.6911,
      "duration": 0.1606,
      "velocity": 112,
      "chip": "ym2612"
    },
    {
      "channel": 0,
      "note": 39,
      "start": 45.8361,
      "duration": 0.1365,
      "velocity": 80,
      "chip": "ym2612"
    },
    {
      "channel": 5,
      "note": 58,
      "start": 45.8553,
      "duration": 0.157,
      "velocity": 126,
      "chip": "ym2612"
    },
    {
      "channel": 0,
      "note": 39,
      "start": 45.9986,
      "duration": 0.1345,
      "velocity": 80,
      "chip": "ym2612"
    },
    {
      "channel": 1,
      "note": 75,
      "start": 46.0001,
      "duration": 0.4606,
      "velocity": 100,
      "chip": "ym2612"
    },
    {
      "channel": 4,
      "note": 79,
      "start": 46.0019,
      "duration": 0.4594,
      "velocity": 97,
      "chip": "ym2612"
    },
    {
      "channel": 5,
      "note": 13,
      "start": 46.0161,
      "duration": 0.3232,
      "velocity": 112,
      "chip": "ym2612"
    },
    {
      "channel": 3,
      "note": 75,
      "start": 46.0535,
      "duration": 0.4594,
      "velocity": 100,
      "chip": "ym2612"
    },
    {
      "channel": 0,
      "note": 39,
      "start": 46.1611,
      "duration": 0.1345,
      "velocity": 80,
      "chip": "ym2612"
    },
    {
      "channel": 0,
      "note": 39,
      "start": 46.3236,
      "duration": 0.1366,
      "velocity": 80,
      "chip": "ym2612"
    },
    {
      "channel": 5,
      "note": 52,
      "start": 46.3431,
      "duration": 0.1567,
      "velocity": 112,
      "chip": "ym2612"
    },
    {
      "channel": 0,
      "note": 39,
      "start": 46.4862,
      "duration": 0.1344,
      "velocity": 80,
      "chip": "ym2612"
    },
    {
      "channel": 1,
      "note": 82,
      "start": 46.4876,
      "duration": 0.2959,
      "velocity": 100,
      "chip": "ym2612"
    },
    {
      "channel": 4,
      "note": 87,
      "start": 46.4893,
      "duration": 0.2948,
      "velocity": 97,
      "chip": "ym2612"
    },
    {
      "channel": 5,
      "note": 58,
      "start": 46.5035,
      "duration": 0.3232,
      "velocity": 126,
      "chip": "ym2612"
    },
    {
      "channel": 3,
      "note": 82,
      "start": 46.541,
      "duration": 0.2968,
      "velocity": 100,
      "chip": "ym2612"
    },
    {
      "channel": 0,
      "note": 39,
      "start": 46.6486,
      "duration": 0.1345,
      "velocity": 80,
      "chip": "ym2612"
    },
    {
      "channel": 0,
      "note": 39,
      "start": 46.8114,
      "duration": 0.1364,
      "velocity": 80,
      "chip": "ym2612"
    },
    {
      "channel": 1,
      "note": 75,
      "start": 46.8131,
      "duration": 0.7558,
      "velocity": 100,
      "chip": "ym2612"
    },
    {
      "channel": 4,
      "note": 79,
      "start": 46.8151,
      "duration": 0.7544,
      "velocity": 97,
      "chip": "ym2612"
    },
    {
      "channel": 5,
      "note": 0,
      "start": 46.8306,
      "duration": 0.3192,
      "velocity": 112,
      "chip": "ym2612"
    },
    {
      "channel": 3,
      "note": 75,
      "start": 46.8662,
      "duration": 0.7594,
      "velocity": 100,
      "chip": "ym2612"
    },
    {
      "channel": 0,
      "note": 41,
      "start": 46.9737,
      "duration": 0.1345,
      "velocity": 80,
      "chip": "ym2612"
    },
    {
      "channel": 0,
      "note": 41,
      "start": 47.1362,
      "duration": 0.1344,
      "velocity": 80,
      "chip": "ym2612"
    },
    {
      "channel": 5,
      "note": 53,
      "start": 47.1535,
      "duration": 0.3214,
      "velocity": 126,
      "chip": "ym2612"
    },
    {
      "channel": 0,
      "note": 41,
      "start": 47.2987,
      "duration": 0.137,
      "velocity": 80,
      "chip": "ym2612"
    },
    {
      "channel": 0,
      "note": 41,
      "start": 47.4612,
      "duration": 0.1346,
      "velocity": 80,
      "chip": "ym2612"
    },
    {
      "channel": 5,
      "note": 0,
      "start": 47.4787,
      "duration": 0.1586,
      "velocity": 112,
      "chip": "ym2612"
    },
    {
      "channel": 0,
      "note": 41,
      "start": 47.6238,
      "duration": 0.1344,
      "velocity": 80,
      "chip": "ym2612"
    },
    {
      "channel": 1,
      "note": 77,
      "start": 47.6252,
      "duration": 0.1333,
      "velocity": 100,
      "chip": "ym2612"
    },
    {
      "channel": 4,
      "note": 80,
      "start": 47.6271,
      "duration": 0.1321,
      "velocity": 97,
      "chip": "ym2612"
    },
    {
      "channel": 5,
      "note": 58,
      "start": 47.6412,
      "duration": 0.1587,
      "velocity": 112,
      "chip": "ym2612"
    },
    {
      "channel": 3,
      "note": 77,
      "start": 47.6808,
      "duration": 0.1321,
      "velocity": 100,
      "chip": "ym2612"
    },
    {
      "channel": 0,
      "note": 41,
      "start": 47.7863,
      "duration": 0.1344,
      "velocity": 80,
      "chip": "ym2612"
    },
    {
      "channel": 1,
      "note": 72,
      "start": 47.7878,
      "duration": 0.1333,
      "velocity": 100,
      "chip": "ym2612"
    },
    {
      "channel": 4,
      "note": 80,
      "start": 47.7895,
      "duration": 0.1322,
      "velocity": 97,
      "chip": "ym2612"
    },
    {
      "channel": 5,
      "note": 58,
      "start": 47.8036,
      "duration": 0.3214,
      "velocity": 126,
      "chip": "ym2612"
    },
    {
      "channel": 3,
      "note": 72,
      "start": 47.8411,
      "duration": 0.1345,
      "velocity": 100,
      "chip": "ym2612"
    },
    {
      "channel": 0,
      "note": 41,
      "start": 47.9488,
      "duration": 0.1345,
      "velocity": 80,
      "chip": "ym2612"
    },
    {
      "channel": 1,
      "note": 75,
      "start": 47.9502,
      "duration": 0.1334,
      "velocity": 100,
      "chip": "ym2612"
    },
    {
      "channel": 4,
      "note": 80,
      "start": 47.952,
      "duration": 0.1323,
      "velocity": 97,
      "chip": "ym2612"
    },
    {
      "channel": 3,
      "note": 75,
      "start": 48.0037,
      "duration": 0.1343,
      "velocity": 100,
      "chip": "ym2612"
    },
    {
      "channel": 0,
      "note": 41,
      "start": 48.1113,
      "duration": 0.1345,
      "velocity": 80,
      "chip": "ym2612"
    },
    {
      "channel": 1,
      "note": 79,
      "start": 48.1128,
      "duration": 1.2709,
      "velocity": 100,
      "chip": "ym2612"
    },
    {
      "channel": 4,
      "note": 79,
      "start": 48.1147,
      "duration": 1.2697,
      "velocity": 97,
      "chip": "ym2612"
    },
    {
      "channel": 5,
      "note": 0,
      "start": 48.1288,
      "duration": 0.1586,
      "velocity": 112,
      "chip": "ym2612"
    },
    {
      "channel": 3,
      "note": 79,
      "start": 48.1661,
      "duration": 1.2727,
      "velocity": 100,
      "chip": "ym2612"
    },
    {
      "channel": 0,
      "note": 41,
      "start": 48.2738,
      "duration": 0.1345,
      "velocity": 80,
      "chip": "ym2612"
    },
    {
      "channel": 5,
      "note": 58,
      "start": 48.2912,
      "duration": 0.1587,
      "velocity": 112,
      "chip": "ym2612"
    },
    {
      "channel": 0,
      "note": 41,
      "start": 48.4363,
      "duration": 0.1345,
      "velocity": 80,
      "chip": "ym2612"
    },
    {
      "channel": 5,
      "note": 58,
      "start": 48.4537,
      "duration": 0.1589,
      "velocity": 126,
      "chip": "ym2612"
    },
    {
      "channel": 0,
      "note": 41,
      "start": 48.5988,
      "duration": 0.1345,
      "velocity": 80,
      "chip": "ym2612"
    },
    {
      "channel": 5,
      "note": 13,
      "start": 48.6164,
      "duration": 0.3212,
      "velocity": 112,
      "chip": "ym2612"
    },
    {
      "channel": 0,
      "note": 41,
      "start": 48.7614,
      "duration": 0.1345,
      "velocity": 80,
      "chip": "ym2612"
    },
    {
      "channel": 0,
      "note": 41,
      "start": 48.9239,
      "duration": 0.1344,
      "velocity": 80,
      "chip": "ym2612"
    },
    {
      "channel": 5,
      "note": 52,
      "start": 48.9414,
      "duration": 0.1586,
      "velocity": 112,
      "chip": "ym2612"
    },
    {
      "channel": 0,
      "note": 41,
      "start": 49.0863,
      "duration": 0.1345,
      "velocity": 80,
      "chip": "ym2612"
    },
    {
      "channel": 5,
      "note": 58,
      "start": 49.1037,
      "duration": 0.3214,
      "velocity": 126,
      "chip": "ym2612"
    },
    {
      "channel": 0,
      "note": 41,
      "start": 49.2489,
      "duration": 0.1345,
      "velocity": 80,
      "chip": "ym2612"
    },
    {
      "channel": 0,
      "note": 41,
      "start": 49.4116,
      "duration": 0.1343,
      "velocity": 80,
      "chip": "ym2612"
    },
    {
      "channel": 1,
      "note": 77,
      "start": 49.4133,
      "duration": 0.458,
      "velocity": 100,
      "chip": "ym2612"
    },
    {
      "channel": 4,
      "note": 80,
      "start": 49.4152,
      "duration": 0.4567,
      "velocity": 97,
      "chip": "ym2612"
    },
    {
      "channel": 5,
      "note": 0,
      "start": 49.4292,
      "duration": 0.3209,
      "velocity": 112,
      "chip": "ym2612"
    },
    {
      "channel": 3,
      "note": 77,
      "start": 49.4664,
      "duration": 0.4602,
      "velocity": 100,
      "chip": "ym2612"
    },
    {
      "channel": 0,
      "note": 37,
      "start": 49.5739,
      "duration": 0.1345,
      "velocity": 80,
      "chip": "ym2612"
    },
    {
      "channel": 0,
      "note": 37,
      "start": 49.7365,
      "duration": 0.1344,
      "velocity": 80,
      "chip": "ym2612"
    },
    {
      "channel": 5,
      "note": 53,
      "start": 49.7538,
      "duration": 0.3214,
      "velocity": 126,
      "chip": "ym2612"
    },
    {
      "channel": 0,
      "note": 37,
      "start": 49.899,
      "duration": 0.1345,
      "velocity": 80,
      "chip": "ym2612"
    },
    {
      "channel": 1,
      "note": 73,
      "start": 49.9005,
      "duration": 0.4583,
      "velocity": 100,
      "chip": "ym2612"
    },
    {
      "channel": 4,
      "note": 77,
      "start": 49.9023,
      "duration": 0.4572,
      "velocity": 97,
      "chip": "ym2612"
    },
    {
      "channel": 3,
      "note": 73,
      "start": 49.9539,
      "duration": 0.4605,
      "velocity": 100,
      "chip": "ym2612"
    },
    {
      "channel": 0,
      "note": 37,
      "start": 50.0615,
      "duration": 0.1345,
      "velocity": 80,
      "chip": "ym2612"
    },
    {
      "channel": 5,
      "note": 0,
      "start": 50.079,
      "duration": 0.1586,
      "velocity": 112,
      "chip": "ym2612"
    },
    {
      "channel": 0,
      "note": 37,
      "start": 50.224,
      "duration": 0.1344,
      "velocity": 80,
      "chip": "ym2612"
    },
    {
      "channel": 5,
      "note": 58,
      "start": 50.2415,
      "duration": 0.1587,
      "velocity": 112,
      "chip": "ym2612"
    },
    {
      "channel": 0,
      "note": 37,
      "start": 50.3866,
      "duration": 0.1344,
      "velocity": 80,
      "chip": "ym2612"
    },
    {
      "channel": 1,
      "note": 80,
      "start": 50.388,
      "duration": 0.2959,
      "velocity": 100,
      "chip": "ym2612"
    },
    {
      "channel": 4,
      "note": 84,
      "start": 50.3897,
      "duration": 0.2948,
      "velocity": 97,
      "chip": "ym2612"
    },
    {
      "channel": 5,
      "note": 58,
      "start": 50.4039,
      "duration": 0.3214,
      "velocity": 126,
      "chip": "ym2612"
    },
    {
      "channel": 3,
      "note": 80,
      "start": 50.4414,
      "duration": 0.2968,
      "velocity": 100,
      "chip": "ym2612"
    },
    {
      "channel": 0,
      "note": 37,
      "start": 50.549,
      "duration": 0.1345,
      "velocity": 80,
      "chip": "ym2612"
    },
    {
      "channel": 0,
      "note": 37,
      "start": 50.7115,
      "duration": 0.1345,
      "velocity": 80,
      "chip": "ym2612"
    },
    {
      "channel": 1,
      "note": 73,
      "start": 50.7131,
      "duration": 0.4583,
      "velocity": 100,
      "chip": "ym2612"
    },
    {
      "channel": 4,
      "note": 77,
      "start": 50.7148,
      "duration": 0.4573,
      "velocity": 97,
      "chip": "ym2612"
    },
    {
      "channel": 5,
      "note": 0,
      "start": 50.7291,
      "duration": 0.1586,
      "velocity": 112,
      "chip": "ym2612"
    },
    {
      "channel": 3,
      "note": 73,
      "start": 50.7664,
      "duration": 0.4594,
      "velocity": 100,
      "chip": "ym2612"
    },
    {
      "channel": 0,
      "note": 39,
      "start": 50.8741,
      "duration": 0.1344,
      "velocity": 80,
      "chip": "ym2612"
    },
    {
      "channel": 5,
      "note": 58,
      "start": 50.8915,
      "duration": 0.1587,
      "velocity": 112,
      "chip": "ym2612"
    },
    {
      "channel": 0,
      "note": 39,
      "start": 51.0366,
      "duration": 0.1345,
      "velocity": 80,
      "chip": "ym2612"
    },
    {
      "channel": 5,
      "note": 58,
      "start": 51.0539,
      "duration": 0.1589,
      "velocity": 126,
      "chip": "ym2612"
    },
    {
      "channel": 0,
      "note": 39,
      "start": 51.1991,
      "duration": 0.1345,
      "velocity": 80,
      "chip": "ym2612"
    },
    {
      "channel": 1,
      "note": 75,
      "start": 51.2006,
      "duration": 0.4583,
      "velocity": 100,
      "chip": "ym2612"
    },
    {
      "channel": 4,
      "note": 79,
      "start": 51.2024,
      "duration": 0.4572,
      "velocity": 97,
      "chip": "ym2612"
    },
    {
      "channel": 5,
      "note": 13,
      "start": 51.2166,
      "duration": 0.3211,
      "velocity": 112,
      "chip": "ym2612"
    },
    {
      "channel": 3,
      "note": 75,
      "start": 51.254,
      "duration": 0.4593,
      "velocity": 100,
      "chip": "ym2612"
    },
    {
      "channel": 0,
      "note": 39,
      "start": 51.3616,
      "duration": 0.1345,
      "velocity": 80,
      "chip": "ym2612"
    },
    {
      "channel": 0,
      "note": 39,
      "start": 51.5241,
      "duration": 0.1344,
      "velocity": 80,
      "chip": "ym2612"
    },
    {
      "channel": 5,
      "note": 52,
      "start": 51.5416,
      "duration": 0.1587,
      "velocity": 112,
      "chip": "ym2612"
    },
    {
      "channel": 0,
      "note": 39,
      "start": 51.6867,
      "duration": 0.1344,
      "velocity": 80,
      "chip": "ym2612"
    },
    {
      "channel": 1,
      "note": 82,
      "start": 51.6881,
      "duration": 0.2959,
      "velocity": 100,
      "chip": "ym2612"
    },
    {
      "channel": 4,
      "note": 87,
      "start": 51.6899,
      "duration": 0.2948,
      "velocity": 97,
      "chip": "ym2612"
    },
    {
      "channel": 5,
      "note": 58,
      "start": 51.704,
      "duration": 0.3214,
      "velocity": 126,
      "chip": "ym2612"
    },
    {
      "channel": 3,
      "note": 82,
      "start": 51.7415,
      "duration": 0.2969,
      "velocity": 100,
      "chip": "ym2612"
    },
    {
      "channel": 0,
      "note": 39,
      "start": 51.8491,
      "duration": 0.1345,
      "velocity": 80,
      "chip": "ym2612"
    },
    {
      "channel": 0,
      "note": 39,
      "start": 52.0119,
      "duration": 0.1343,
      "velocity": 80,
      "chip": "ym2612"
    },
    {
      "channel": 1,
      "note": 75,
      "start": 52.0135,
      "duration": 0.7559,
      "velocity": 100,
      "chip": "ym2612"
    },
    {
      "channel": 4,
      "note": 79,
      "start": 52.0156,
      "duration": 0.7544,
      "velocity": 97,
      "chip": "ym2612"
    },
    {
      "channel": 5,
      "note": 0,
      "start": 52.0294,
      "duration": 0.3209,
      "velocity": 112,
      "chip": "ym2612"
    },
    {
      "channel": 3,
      "note": 75,
      "start": 52.0667,
      "duration": 0.7594,
      "velocity": 100,
      "chip": "ym2612"
    },
    {
      "channel": 0,
      "note": 41,
      "start": 52.1742,
      "duration": 0.1344,
      "velocity": 80,
      "chip": "ym2612"
    },
    {
      "channel": 0,
      "note": 41,
      "start": 52.3367,
      "duration": 0.1345,
      "velocity": 80,
      "chip": "ym2612"
    },
    {
      "channel": 5,
      "note": 52,
      "start": 52.354,
      "duration": 0.3214,
      "velocity": 126,
      "chip": "ym2612"
    },
    {
      "channel": 0,
      "note": 41,
      "start": 52.4992,
      "duration": 0.1345,
      "velocity": 80,
      "chip": "ym2612"
    },
    {
      "channel": 0,
      "note": 41,
      "start": 52.6617,
      "duration": 0.1345,
      "velocity": 80,
      "chip": "ym2612"
    },
    {
      "channel": 5,
      "note": 0,
      "start": 52.6793,
      "duration": 0.1586,
      "velocity": 112,
      "chip": "ym2612"
    },
    {
      "channel": 0,
      "note": 41,
      "start": 52.8243,
      "duration": 0.1344,
      "velocity": 80,
      "chip": "ym2612"
    },
    {
      "channel": 1,
      "note": 77,
      "start": 52.8257,
      "duration": 0.1333,
      "velocity": 100,
      "chip": "ym2612"
    },
    {
      "channel": 4,
      "note": 80,
      "start": 52.8276,
      "duration": 0.1321,
      "velocity": 97,
      "chip": "ym2612"
    },
    {
      "channel": 5,
      "note": 58,
      "start": 52.8417,
      "duration": 0.1587,
      "velocity": 112,
      "chip": "ym2612"
    },
    {
      "channel": 3,
      "note": 77,
      "start": 52.8792,
      "duration": 0.1342,
      "velocity": 100,
      "chip": "ym2612"
    },
    {
      "channel": 0,
      "note": 41,
      "start": 52.9867,
      "duration": 0.1345,
      "velocity": 80,
      "chip": "ym2612"
    },
    {
      "channel": 1,
      "note": 72,
      "start": 52.9882,
      "duration": 0.1334,
      "velocity": 100,
      "chip": "ym2612"
    },
    {
      "channel": 4,
      "note": 80,
      "start": 52.99,
      "duration": 0.1322,
      "velocity": 97,
      "chip": "ym2612"
    },
    {
      "channel": 5,
      "note": 58,
      "start": 53.0041,
      "duration": 0.3213,
      "velocity": 126,
      "chip": "ym2612"
    },
    {
      "channel": 3,
      "note": 72,
      "start": 53.0416,
      "duration": 0.1343,
      "velocity": 100,
      "chip": "ym2612"
    },
    {
      "channel": 0,
      "note": 41,
      "start": 53.1493,
      "duration": 0.1345,
      "velocity": 80,
      "chip": "ym2612"
    },
    {
      "channel": 1,
      "note": 75,
      "start": 53.1507,
      "duration": 0.1333,
      "velocity": 100,
      "chip": "ym2612"
    },
    {
      "channel": 4,
      "note": 80,
      "start": 53.1524,
      "duration": 0.1322,
      "velocity": 97,
      "chip": "ym2612"
    },
    {
      "channel": 3,
      "note": 75,
      "start": 53.2041,
      "duration": 0.1364,
      "velocity": 100,
      "chip": "ym2612"
    },
    {
      "channel": 0,
      "note": 41,
      "start": 53.3118,
      "duration": 0.1345,
      "velocity": 80,
      "chip": "ym2612"
    },
    {
      "channel": 1,
      "note": 79,
      "start": 53.3133,
      "duration": 1.2709,
      "velocity": 100,
      "chip": "ym2612"
    },
    {
      "channel": 4,
      "note": 79,
      "start": 53.3151,
      "duration": 1.2699,
      "velocity": 97,
      "chip": "ym2612"
    },
    {
      "channel": 5,
      "note": 0,
      "start": 53.3292,
      "duration": 0.0776,
      "velocity": 126,
      "chip": "ym2612"
    },
    {
      "channel": 3,
      "note": 79,
      "start": 53.3666,
      "duration": 1.2179,
      "velocity": 100,
      "chip": "ym2612"
    },
    {
      "channel": 5,
      "note": 20,
      "start": 53.4104,
      "duration": 0.0775,
      "velocity": 126,
      "chip": "ym2612"
    },
    {
      "channel": 0,
      "note": 41,
      "start": 53.4743,
      "duration": 0.1344,
      "velocity": 80,
      "chip": "ym2612"
    },
    {
      "channel": 5,
      "note": 19,
      "start": 53.4916,
      "duration": 0.0776,
      "velocity": 126,
      "chip": "ym2612"
    },
    {
      "channel": 5,
      "note": 19,
      "start": 53.5729,
      "duration": 0.0776,
      "velocity": 126,
      "chip": "ym2612"
    },
    {
      "channel": 0,
      "note": 41,
      "start": 53.6369,
      "duration": 0.1344,
      "velocity": 80,
      "chip": "ym2612"
    },
    {
      "channel": 5,
      "note": 20,
      "start": 53.6542,
      "duration": 0.3214,
      "velocity": 126,
      "chip": "ym2612"
    },
    {
      "channel": 0,
      "note": 41,
      "start": 53.7993,
      "duration": 0.1345,
      "velocity": 80,
      "chip": "ym2612"
    },
    {
      "channel": 0,
      "note": 41,
      "start": 53.9619,
      "duration": 0.1345,
      "velocity": 80,
      "chip": "ym2612"
    },
    {
      "channel": 5,
      "note": 0,
      "start": 53.9794,
      "duration": 0.1586,
      "velocity": 112,
      "chip": "ym2612"
    },
    {
      "channel": 0,
      "note": 41,
      "start": 54.1246,
      "duration": 0.1342,
      "velocity": 80,
      "chip": "ym2612"
    },
    {
      "channel": 5,
      "note": 58,
      "start": 54.1418,
      "duration": 0.1587,
      "velocity": 112,
      "chip": "ym2612"
    },
    {
      "channel": 0,
      "note": 41,
      "start": 54.2869,
      "duration": 0.1344,
      "velocity": 80,
      "chip": "ym2612"
    },
    {
      "channel": 5,
      "note": 58,
      "start": 54.3042,
      "duration": 0.3188,
      "velocity": 126,
      "chip": "ym2612"
    },
    {
      "channel": 0,
      "note": 41,
      "start": 54.4494,
      "duration": 0.1345,
      "velocity": 80,
      "chip": "ym2612"
    },
    {
      "channel": 0,
      "note": 41,
      "start": 54.6126,
      "duration": 0.1473,
      "velocity": 80,
      "chip": "ym2612"
    },
    {
      "channel": 1,
      "note": 77,
      "start": 54.6144,
      "duration": 0.3084,
      "velocity": 100,
      "chip": "ym2612"
    },
    {
      "channel": 3,
      "note": 77,
      "start": 54.6174,
      "duration": 0.3057,
      "velocity": 100,
      "chip": "ym2612"
    },
    {
      "channel": 4,
      "note": 80,
      "start": 54.6226,
      "duration": 0.1382,
      "velocity": 67,
      "chip": "ym2612"
    },
    {
      "channel": 5,
      "note": 0,
      "start": 54.6273,
      "duration": 0.3265,
      "velocity": 112,
      "chip": "ym2612"
    },
    {
      "channel": 0,
      "note": 41,
      "start": 54.788,
      "duration": 0.1344,
      "velocity": 80,
      "chip": "ym2612"
    },
    {
      "channel": 4,
      "note": 77,
      "start": 54.79,
      "duration": 0.1335,
      "velocity": 67,
      "chip": "ym2612"
    },
    {
      "channel": 0,
      "note": 41,
      "start": 54.9505,
      "duration": 0.0033,
      "velocity": 80,
      "chip": "ym2612"
    },
    {
      "channel": 1,
      "note": 79,
      "start": 54.952,
      "duration": 0.0018,
      "velocity": 100,
      "chip": "ym2612"
    }
  ]
}