{
  "track_name": "08 - Theme for Satan",
  "duration_sec": 48.438,
  "sample_rate": 44100,
  "note_count": 937,
  "unique_pitches": 35,
  "pitch_range": 49,
  "avg_note_duration": 0.3095,
  "reconstruction_stats": {
    "notes_reconstructed": 937,
    "keyon_events": 937,
    "keyoff_events": 931,
    "orphan_keyons": 6,
    "unique_pitches": 35,
    "pitch_range": 49,
    "avg_duration_sec": 0.3095
  },
  "metadata": {
    "source": "P\\Puyo Puyo\\08 - Theme for Satan.vgz"
  },
  "notes": [
    {
      "channel": 3,
      "note": 61,
      "start": 0.0219,
      "duration": 0.4993,
      "velocity": 107,
      "chip": "ym2612"
    },
    {
      "channel": 2,
      "note": 54,
      "start": 0.0227,
      "duration": 0.2489,
      "velocity": 104,
      "chip": "ym2612"
    },
    {
      "channel": 0,
      "note": 66,
      "start": 0.0235,
      "duration": 1.2485,
      "velocity": 121,
      "chip": "ym2612"
    },
    {
      "channel": 5,
      "note": 61,
      "start": 0.0548,
      "duration": 0.4996,
      "velocity": 107,
      "chip": "ym2612"
    },
    {
      "channel": 4,
      "note": 54,
      "start": 0.1885,
      "duration": 0.2496,
      "velocity": 104,
      "chip": "ym2612"
    },
    {
      "channel": 2,
      "note": 54,
      "start": 0.2717,
      "duration": 0.2501,
      "velocity": 104,
      "chip": "ym2612"
    },
    {
      "channel": 1,
      "note": 66,
      "start": 0.2724,
      "duration": 1.2497,
      "velocity": 121,
      "chip": "ym2612"
    },
    {
      "channel": 4,
      "note": 54,
      "start": 0.4381,
      "duration": 0.25,
      "velocity": 104,
      "chip": "ym2612"
    },
    {
      "channel": 3,
      "note": 62,
      "start": 0.5213,
      "duration": 0.5,
      "velocity": 107,
      "chip": "ym2612"
    },
    {
      "channel": 2,
      "note": 54,
      "start": 0.5217,
      "duration": 0.2499,
      "velocity": 104,
      "chip": "ym2612"
    },
    {
      "channel": 5,
      "note": 62,
      "start": 0.5544,
      "duration": 0.5,
      "velocity": 107,
      "chip": "ym2612"
    },
    {
      "channel": 4,
      "note": 54,
      "start": 0.6881,
      "duration": 0.25,
      "velocity": 104,
      "chip": "ym2612"
    },
    {
      "channel": 2,
      "note": 54,
      "start": 0.7717,
      "duration": 0.2501,
      "velocity": 104,
      "chip": "ym2612"
    },
    {
      "channel": 4,
      "note": 54,
      "start": 0.9381,
      "duration": 0.25,
      "velocity": 104,
      "chip": "ym2612"
    },
    {
      "channel": 3,
      "note": 61,
      "start": 1.0213,
      "duration": 0.5,
      "velocity": 107,
      "chip": "ym2612"
    },
    {
      "channel": 2,
      "note": 57,
      "start": 1.0217,
      "duration": 0.5,
      "velocity": 104,
      "chip": "ym2612"
    },
    {
      "channel": 5,
      "note": 61,
      "start": 1.0544,
      "duration": 0.5,
      "velocity": 107,
      "chip": "ym2612"
    },
    {
      "channel": 4,
      "note": 57,
      "start": 1.1881,
      "duration": 0.5,
      "velocity": 104,
      "chip": "ym2612"
    },
    {
      "channel": 0,
      "note": 68,
      "start": 1.2721,
      "duration": 0.2502,
      "velocity": 121,
      "chip": "ym2612"
    },
    {
      "channel": 3,
      "note": 62,
      "start": 1.5213,
      "duration": 0.5,
      "velocity": 107,
      "chip": "ym2612"
    },
    {
      "channel": 2,
      "note": 54,
      "start": 1.5217,
      "duration": 0.2499,
      "velocity": 104,
      "chip": "ym2612"
    },
    {
      "channel": 1,
      "note": 68,
      "start": 1.522,
      "duration": 0.2499,
      "velocity": 121,
      "chip": "ym2612"
    },
    {
      "channel": 0,
      "note": 69,
      "start": 1.5223,
      "duration": 0.2499,
      "velocity": 121,
      "chip": "ym2612"
    },
    {
      "channel": 5,
      "note": 62,
      "start": 1.5544,
      "duration": 0.5,
      "velocity": 107,
      "chip": "ym2612"
    },
    {
      "channel": 4,
      "note": 54,
      "start": 1.6881,
      "duration": 0.25,
      "velocity": 104,
      "chip": "ym2612"
    },
    {
      "channel": 2,
      "note": 54,
      "start": 1.7717,
      "duration": 0.2501,
      "velocity": 104,
      "chip": "ym2612"
    },
    {
      "channel": 1,
      "note": 69,
      "start": 1.772,
      "duration": 0.2501,
      "velocity": 121,
      "chip": "ym2612"
    },
    {
      "channel": 0,
      "note": 71,
      "start": 1.7722,
      "duration": 0.2501,
      "velocity": 121,
      "chip": "ym2612"
    },
    {
      "channel": 4,
      "note": 54,
      "start": 1.9381,
      "duration": 0.25,
      "velocity": 104,
      "chip": "ym2612"
    },
    {
      "channel": 3,
      "note": 61,
      "start": 2.0213,
      "duration": 0.25,
      "velocity": 107,
      "chip": "ym2612"
    },
    {
      "channel": 2,
      "note": 54,
      "start": 2.0217,
      "duration": 0.25,
      "velocity": 104,
      "chip": "ym2612"
    },
    {
      "channel": 1,
      "note": 71,
      "start": 2.022,
      "duration": 0.25,
      "velocity": 121,
      "chip": "ym2612"
    },
    {
      "channel": 0,
      "note": 73,
      "start": 2.0223,
      "duration": 0.25,
      "velocity": 121,
      "chip": "ym2612"
    },
    {
      "channel": 5,
      "note": 61,
      "start": 2.0544,
      "duration": 0.2666,
      "velocity": 107,
      "chip": "ym2612"
    },
    {
      "channel": 4,
      "note": 54,
      "start": 2.1881,
      "duration": 0.25,
      "velocity": 104,
      "chip": "ym2612"
    },
    {
      "channel": 3,
      "note": 73,
      "start": 2.2713,
      "duration": 0.25,
      "velocity": 107,
      "chip": "ym2612"
    },
    {
      "channel": 2,
      "note": 59,
      "start": 2.2717,
      "duration": 0.25,
      "velocity": 104,
      "chip": "ym2612"
    },
    {
      "channel": 1,
      "note": 73,
      "start": 2.272,
      "duration": 0.25,
      "velocity": 121,
      "chip": "ym2612"
    },
    {
      "channel": 0,
      "note": 69,
      "start": 2.2723,
      "duration": 0.25,
      "velocity": 121,
      "chip": "ym2612"
    },
    {
      "channel": 5,
      "note": 73,
      "start": 2.3211,
      "duration": 0.25,
      "velocity": 107,
      "chip": "ym2612"
    },
    {
      "channel": 4,
      "note": 59,
      "start": 2.4381,
      "duration": 0.25,
      "velocity": 104,
      "chip": "ym2612"
    },
    {
      "channel": 3,
      "note": 62,
      "start": 2.5213,
      "duration": 0.25,
      "velocity": 107,
      "chip": "ym2612"
    },
    {
      "channel": 2,
      "note": 54,
      "start": 2.5217,
      "duration": 0.25,
      "velocity": 104,
      "chip": "ym2612"
    },
    {
      "channel": 1,
      "note": 69,
      "start": 2.522,
      "duration": 0.25,
      "velocity": 121,
      "chip": "ym2612"
    },
    {
      "channel": 0,
      "note": 66,
      "start": 2.5223,
      "duration": 0.9999,
      "velocity": 121,
      "chip": "ym2612"
    },
    {
      "channel": 5,
      "note": 62,
      "start": 2.5711,
      "duration": 0.25,
      "velocity": 107,
      "chip": "ym2612"
    },
    {
      "channel": 4,
      "note": 54,
      "start": 2.6881,
      "duration": 0.25,
      "velocity": 104,
      "chip": "ym2612"
    },
    {
      "channel": 3,
      "note": 71,
      "start": 2.7713,
      "duration": 0.25,
      "velocity": 107,
      "chip": "ym2612"
    },
    {
      "channel": 2,
      "note": 57,
      "start": 2.7717,
      "duration": 0.25,
      "velocity": 104,
      "chip": "ym2612"
    },
    {
      "channel": 1,
      "note": 66,
      "start": 2.772,
      "duration": 1.0,
      "velocity": 121,
      "chip": "ym2612"
    },
    {
      "channel": 5,
      "note": 71,
      "start": 2.8211,
      "duration": 0.25,
      "velocity": 107,
      "chip": "ym2612"
    },
    {
      "channel": 4,
      "note": 57,
      "start": 2.9381,
      "duration": 0.25,
      "velocity": 104,
      "chip": "ym2612"
    },
    {
      "channel": 3,
      "note": 61,
      "start": 3.0213,
      "duration": 0.25,
      "velocity": 107,
      "chip": "ym2612"
    },
    {
      "channel": 2,
      "note": 54,
      "start": 3.0217,
      "duration": 0.25,
      "velocity": 104,
      "chip": "ym2612"
    },
    {
      "channel": 5,
      "note": 61,
      "start": 3.0711,
      "duration": 0.25,
      "velocity": 107,
      "chip": "ym2612"
    },
    {
      "channel": 4,
      "note": 54,
      "start": 3.1881,
      "duration": 0.25,
      "velocity": 104,
      "chip": "ym2612"
    },
    {
      "channel": 3,
      "note": 69,
      "start": 3.2713,
      "duration": 0.25,
      "velocity": 107,
      "chip": "ym2612"
    },
    {
      "channel": 2,
      "note": 56,
      "start": 3.2717,
      "duration": 0.25,
      "velocity": 104,
      "chip": "ym2612"
    },
    {
      "channel": 5,
      "note": 69,
      "start": 3.3211,
      "duration": 0.25,
      "velocity": 107,
      "chip": "ym2612"
    },
    {
      "channel": 4,
      "note": 56,
      "start": 3.4381,
      "duration": 0.25,
      "velocity": 104,
      "chip": "ym2612"
    },
    {
      "channel": 3,
      "note": 62,
      "start": 3.5213,
      "duration": 0.25,
      "velocity": 107,
      "chip": "ym2612"
    },
    {
      "channel": 2,
      "note": 52,
      "start": 3.5217,
      "duration": 0.25,
      "velocity": 104,
      "chip": "ym2612"
    },
    {
      "channel": 0,
      "note": 76,
      "start": 3.5222,
      "duration": 0.5,
      "velocity": 121,
      "chip": "ym2612"
    },
    {
      "channel": 5,
      "note": 62,
      "start": 3.5711,
      "duration": 0.25,
      "velocity": 107,
      "chip": "ym2612"
    },
    {
      "channel": 4,
      "note": 52,
      "start": 3.6881,
      "duration": 0.25,
      "velocity": 104,
      "chip": "ym2612"
    },
    {
      "channel": 3,
      "note": 68,
      "start": 3.7713,
      "duration": 0.25,
      "velocity": 107,
      "chip": "ym2612"
    },
    {
      "channel": 2,
      "note": 52,
      "start": 3.7717,
      "duration": 0.25,
      "velocity": 104,
      "chip": "ym2612"
    },
    {
      "channel": 1,
      "note": 76,
      "start": 3.772,
      "duration": 0.5166,
      "velocity": 121,
      "chip": "ym2612"
    },
    {
      "channel": 5,
      "note": 68,
      "start": 3.8211,
      "duration": 0.25,
      "velocity": 107,
      "chip": "ym2612"
    },
    {
      "channel": 4,
      "note": 52,
      "start": 3.9381,
      "duration": 0.25,
      "velocity": 104,
      "chip": "ym2612"
    },
    {
      "channel": 3,
      "note": 61,
      "start": 4.0213,
      "duration": 0.5166,
      "velocity": 107,
      "chip": "ym2612"
    },
    {
      "channel": 2,
      "note": 54,
      "start": 4.0217,
      "duration": 0.2666,
      "velocity": 104,
      "chip": "ym2612"
    },
    {
      "channel": 0,
      "note": 75,
      "start": 4.0222,
      "duration": 1.5166,
      "velocity": 121,
      "chip": "ym2612"
    },
    {
      "channel": 5,
      "note": 61,
      "start": 4.0711,
      "duration": 0.5,
      "velocity": 107,
      "chip": "ym2612"
    },
    {
      "channel": 4,
      "note": 54,
      "start": 4.1881,
      "duration": 0.2666,
      "velocity": 104,
      "chip": "ym2612"
    },
    {
      "channel": 2,
      "note": 54,
      "start": 4.2883,
      "duration": 0.2501,
      "velocity": 104,
      "chip": "ym2612"
    },
    {
      "channel": 1,
      "note": 75,
      "start": 4.2886,
      "duration": 1.5,
      "velocity": 121,
      "chip": "ym2612"
    },
    {
      "channel": 4,
      "note": 54,
      "start": 4.4548,
      "duration": 0.25,
      "velocity": 104,
      "chip": "ym2612"
    },
    {
      "channel": 3,
      "note": 62,
      "start": 4.5379,
      "duration": 0.5,
      "velocity": 107,
      "chip": "ym2612"
    },
    {
      "channel": 2,
      "note": 54,
      "start": 4.5384,
      "duration": 0.2499,
      "velocity": 104,
      "chip": "ym2612"
    },
    {
      "channel": 5,
      "note": 62,
      "start": 4.5711,
      "duration": 0.5,
      "velocity": 107,
      "chip": "ym2612"
    },
    {
      "channel": 4,
      "note": 54,
      "start": 4.7048,
      "duration": 0.25,
      "velocity": 104,
      "chip": "ym2612"
    },
    {
      "channel": 2,
      "note": 54,
      "start": 4.7883,
      "duration": 0.2501,
      "velocity": 104,
      "chip": "ym2612"
    },
    {
      "channel": 4,
      "note": 54,
      "start": 4.9548,
      "duration": 0.25,
      "velocity": 104,
      "chip": "ym2612"
    },
    {
      "channel": 3,
      "note": 61,
      "start": 5.038,
      "duration": 0.5,
      "velocity": 107,
      "chip": "ym2612"
    },
    {
      "channel": 2,
      "note": 57,
      "start": 5.0384,
      "duration": 0.5,
      "velocity": 104,
      "chip": "ym2612"
    },
    {
      "channel": 5,
      "note": 61,
      "start": 5.0711,
      "duration": 0.5,
      "velocity": 107,
      "chip": "ym2612"
    },
    {
      "channel": 4,
      "note": 57,
      "start": 5.2048,
      "duration": 0.5,
      "velocity": 104,
      "chip": "ym2612"
    },
    {
      "channel": 3,
      "note": 62,
      "start": 5.5379,
      "duration": 0.5,
      "velocity": 107,
      "chip": "ym2612"
    },
    {
      "channel": 2,
      "note": 54,
      "start": 5.5384,
      "duration": 0.2499,
      "velocity": 104,
      "chip": "ym2612"
    },
    {
      "channel": 0,
      "note": 71,
      "start": 5.5389,
      "duration": 0.25,
      "velocity": 121,
      "chip": "ym2612"
    },
    {
      "channel": 5,
      "note": 62,
      "start": 5.5711,
      "duration": 0.5,
      "velocity": 107,
      "chip": "ym2612"
    },
    {
      "channel": 4,
      "note": 54,
      "start": 5.7048,
      "duration": 0.25,
      "velocity": 104,
      "chip": "ym2612"
    },
    {
      "channel": 2,
      "note": 54,
      "start": 5.7883,
      "duration": 0.2501,
      "velocity": 104,
      "chip": "ym2612"
    },
    {
      "channel": 1,
      "note": 71,
      "start": 5.7886,
      "duration": 0.2501,
      "velocity": 121,
      "chip": "ym2612"
    },
    {
      "channel": 0,
      "note": 73,
      "start": 5.7889,
      "duration": 2.25,
      "velocity": 121,
      "chip": "ym2612"
    },
    {
      "channel": 4,
      "note": 54,
      "start": 5.9548,
      "duration": 0.25,
      "velocity": 104,
      "chip": "ym2612"
    },
    {
      "channel": 3,
      "note": 61,
      "start": 6.038,
      "duration": 0.25,
      "velocity": 107,
      "chip": "ym2612"
    },
    {
      "channel": 2,
      "note": 54,
      "start": 6.0384,
      "duration": 0.25,
      "velocity": 104,
      "chip": "ym2612"
    },
    {
      "channel": 1,
      "note": 73,
      "start": 6.0387,
      "duration": 2.2499,
      "velocity": 121,
      "chip": "ym2612"
    },
    {
      "channel": 5,
      "note": 61,
      "start": 6.0711,
      "duration": 0.25,
      "velocity": 107,
      "chip": "ym2612"
    },
    {
      "channel": 4,
      "note": 54,
      "start": 6.2048,
      "duration": 0.25,
      "velocity": 104,
      "chip": "ym2612"
    },
    {
      "channel": 3,
      "note": 73,
      "start": 6.288,
      "duration": 0.25,
      "velocity": 107,
      "chip": "ym2612"
    },
    {
      "channel": 2,
      "note": 59,
      "start": 6.2884,
      "duration": 0.25,
      "velocity": 104,
      "chip": "ym2612"
    },
    {
      "channel": 5,
      "note": 73,
      "start": 6.3211,
      "duration": 0.2667,
      "velocity": 107,
      "chip": "ym2612"
    },
    {
      "channel": 4,
      "note": 59,
      "start": 6.4548,
      "duration": 0.25,
      "velocity": 104,
      "chip": "ym2612"
    },
    {
      "channel": 3,
      "note": 62,
      "start": 6.5379,
      "duration": 0.25,
      "velocity": 107,
      "chip": "ym2612"
    },
    {
      "channel": 2,
      "note": 54,
      "start": 6.5384,
      "duration": 0.25,
      "velocity": 104,
      "chip": "ym2612"
    },
    {
      "channel": 5,
      "note": 62,
      "start": 6.5877,
      "duration": 0.25,
      "velocity": 107,
      "chip": "ym2612"
    },
    {
      "channel": 4,
      "note": 54,
      "start": 6.7048,
      "duration": 0.25,
      "velocity": 104,
      "chip": "ym2612"
    },
    {
      "channel": 3,
      "note": 71,
      "start": 6.7879,
      "duration": 0.25,
      "velocity": 107,
      "chip": "ym2612"
    },
    {
      "channel": 2,
      "note": 57,
      "start": 6.7884,
      "duration": 0.25,
      "velocity": 104,
      "chip": "ym2612"
    },
    {
      "channel": 5,
      "note": 71,
      "start": 6.8377,
      "duration": 0.25,
      "velocity": 107,
      "chip": "ym2612"
    },
    {
      "channel": 4,
      "note": 57,
      "start": 6.9548,
      "duration": 0.25,
      "velocity": 104,
      "chip": "ym2612"
    },
    {
      "channel": 3,
      "note": 61,
      "start": 7.038,
      "duration": 0.25,
      "velocity": 107,
      "chip": "ym2612"
    },
    {
      "channel": 2,
      "note": 54,
      "start": 7.0384,
      "duration": 0.25,
      "velocity": 104,
      "chip": "ym2612"
    },
    {
      "channel": 5,
      "note": 61,
      "start": 7.0877,
      "duration": 0.25,
      "velocity": 107,
      "chip": "ym2612"
    },
    {
      "channel": 4,
      "note": 54,
      "start": 7.2048,
      "duration": 0.25,
      "velocity": 104,
      "chip": "ym2612"
    },
    {
      "channel": 3,
      "note": 69,
      "start": 7.288,
      "duration": 0.25,
      "velocity": 107,
      "chip": "ym2612"
    },
    {
      "channel": 2,
      "note": 56,
      "start": 7.2884,
      "duration": 0.25,
      "velocity": 104,
      "chip": "ym2612"
    },
    {
      "channel": 5,
      "note": 69,
      "start": 7.3377,
      "duration": 0.25,
      "velocity": 107,
      "chip": "ym2612"
    },
    {
      "channel": 4,
      "note": 56,
      "start": 7.4548,
      "duration": 0.25,
      "velocity": 104,
      "chip": "ym2612"
    },
    {
      "channel": 3,
      "note": 62,
      "start": 7.5379,
      "duration": 0.25,
      "velocity": 107,
      "chip": "ym2612"
    },
    {
      "channel": 2,
      "note": 52,
      "start": 7.5384,
      "duration": 0.25,
      "velocity": 104,
      "chip": "ym2612"
    },
    {
      "channel": 5,
      "note": 62,
      "start": 7.5877,
      "duration": 0.25,
      "velocity": 107,
      "chip": "ym2612"
    },
    {
      "channel": 4,
      "note": 52,
      "start": 7.7048,
      "duration": 0.25,
      "velocity": 104,
      "chip": "ym2612"
    },
    {
      "channel": 3,
      "note": 68,
      "start": 7.7879,
      "duration": 0.25,
      "velocity": 107,
      "chip": "ym2612"
    },
    {
      "channel": 2,
      "note": 52,
      "start": 7.7884,
      "duration": 0.25,
      "velocity": 104,
      "chip": "ym2612"
    },
    {
      "channel": 5,
      "note": 68,
      "start": 7.8377,
      "duration": 0.25,
      "velocity": 107,
      "chip": "ym2612"
    },
    {
      "channel": 4,
      "note": 52,
      "start": 7.9548,
      "duration": 0.25,
      "velocity": 104,
      "chip": "ym2612"
    },
    {
      "channel": 3,
      "note": 62,
      "start": 8.038,
      "duration": 0.5166,
      "velocity": 107,
      "chip": "ym2612"
    },
    {
      "channel": 2,
      "note": 55,
      "start": 8.0384,
      "duration": 0.2499,
      "velocity": 104,
      "chip": "ym2612"
    },
    {
      "channel": 0,
      "note": 67,
      "start": 8.0389,
      "duration": 1.2665,
      "velocity": 121,
      "chip": "ym2612"
    },
    {
      "channel": 5,
      "note": 62,
      "start": 8.0878,
      "duration": 0.5,
      "velocity": 107,
      "chip": "ym2612"
    },
    {
      "channel": 4,
      "note": 55,
      "start": 8.2048,
      "duration": 0.25,
      "velocity": 104,
      "chip": "ym2612"
    },
    {
      "channel": 2,
      "note": 55,
      "start": 8.2883,
      "duration": 0.2667,
      "velocity": 104,
      "chip": "ym2612"
    },
    {
      "channel": 1,
      "note": 67,
      "start": 8.2886,
      "duration": 1.2667,
      "velocity": 121,
      "chip": "ym2612"
    },
    {
      "channel": 4,
      "note": 55,
      "start": 8.4548,
      "duration": 0.2666,
      "velocity": 104,
      "chip": "ym2612"
    },
    {
      "channel": 3,
      "note": 63,
      "start": 8.5546,
      "duration": 0.5,
      "velocity": 107,
      "chip": "ym2612"
    },
    {
      "channel": 2,
      "note": 55,
      "start": 8.5551,
      "duration": 0.2499,
      "velocity": 104,
      "chip": "ym2612"
    },
    {
      "channel": 5,
      "note": 63,
      "start": 8.5877,
      "duration": 0.5,
      "velocity": 107,
      "chip": "ym2612"
    },
    {
      "channel": 4,
      "note": 55,
      "start": 8.7215,
      "duration": 0.25,
      "velocity": 104,
      "chip": "ym2612"
    },
    {
      "channel": 2,
      "note": 55,
      "start": 8.805,
      "duration": 0.2501,
      "velocity": 104,
      "chip": "ym2612"
    },
    {
      "channel": 4,
      "note": 55,
      "start": 8.9715,
      "duration": 0.25,
      "velocity": 104,
      "chip": "ym2612"
    },
    {
      "channel": 3,
      "note": 62,
      "start": 9.0546,
      "duration": 0.5,
      "velocity": 107,
      "chip": "ym2612"
    },
    {
      "channel": 2,
      "note": 58,
      "start": 9.0551,
      "duration": 0.5,
      "velocity": 104,
      "chip": "ym2612"
    },
    {
      "channel": 5,
      "note": 62,
      "start": 9.0877,
      "duration": 0.5,
      "velocity": 107,
      "chip": "ym2612"
    },
    {
      "channel": 4,
      "note": 58,
      "start": 9.2215,
      "duration": 0.5,
      "velocity": 104,
      "chip": "ym2612"
    },
    {
      "channel": 0,
      "note": 69,
      "start": 9.3054,
      "duration": 0.2502,
      "velocity": 121,
      "chip": "ym2612"
    },
    {
      "channel": 3,
      "note": 63,
      "start": 9.5546,
      "duration": 0.5,
      "velocity": 107,
      "chip": "ym2612"
    },
    {
      "channel": 2,
      "note": 55,
      "start": 9.5551,
      "duration": 0.2499,
      "velocity": 104,
      "chip": "ym2612"
    },
    {
      "channel": 1,
      "note": 69,
      "start": 9.5554,
      "duration": 0.2499,
      "velocity": 121,
      "chip": "ym2612"
    },
    {
      "channel": 0,
      "note": 70,
      "start": 9.5557,
      "duration": 0.2499,
      "velocity": 121,
      "chip": "ym2612"
    },
    {
      "channel": 5,
      "note": 63,
      "start": 9.5877,
      "duration": 0.5,
      "velocity": 107,
      "chip": "ym2612"
    },
    {
      "channel": 4,
      "note": 55,
      "start": 9.7215,
      "duration": 0.25,
      "velocity": 104,
      "chip": "ym2612"
    },
    {
      "channel": 2,
      "note": 55,
      "start": 9.805,
      "duration": 0.2501,
      "velocity": 104,
      "chip": "ym2612"
    },
    {
      "channel": 1,
      "note": 70,
      "start": 9.8053,
      "duration": 0.2501,
      "velocity": 121,
      "chip": "ym2612"
    },
    {
      "channel": 0,
      "note": 72,
      "start": 9.8056,
      "duration": 0.2501,
      "velocity": 121,
      "chip": "ym2612"
    },
    {
      "channel": 4,
      "note": 55,
      "start": 9.9715,
      "duration": 0.25,
      "velocity": 104,
      "chip": "ym2612"
    },
    {
      "channel": 3,
      "note": 62,
      "start": 10.0546,
      "duration": 0.25,
      "velocity": 107,
      "chip": "ym2612"
    },
    {
      "channel": 2,
      "note": 55,
      "start": 10.0551,
      "duration": 0.25,
      "velocity": 104,
      "chip": "ym2612"
    },
    {
      "channel": 1,
      "note": 72,
      "start": 10.0554,
      "duration": 0.25,
      "velocity": 121,
      "chip": "ym2612"
    },
    {
      "channel": 0,
      "note": 74,
      "start": 10.0556,
      "duration": 0.25,
      "velocity": 121,
      "chip": "ym2612"
    },
    {
      "channel": 5,
      "note": 62,
      "start": 10.0878,
      "duration": 0.25,
      "velocity": 107,
      "chip": "ym2612"
    },
    {
      "channel": 4,
      "note": 55,
      "start": 10.2215,
      "duration": 0.25,
      "velocity": 104,
      "chip": "ym2612"
    },
    {
      "channel": 3,
      "note": 74,
      "start": 10.3046,
      "duration": 0.25,
      "velocity": 107,
      "chip": "ym2612"
    },
    {
      "channel": 2,
      "note": 60,
      "start": 10.3051,
      "duration": 0.25,
      "velocity": 104,
      "chip": "ym2612"
    },
    {
      "channel": 1,
      "note": 74,
      "start": 10.3054,
      "duration": 0.25,
      "velocity": 121,
      "chip": "ym2612"
    },
    {
      "channel": 0,
      "note": 70,
      "start": 10.3056,
      "duration": 0.25,
      "velocity": 121,
      "chip": "ym2612"
    },
    {
      "channel": 5,
      "note": 74,
      "start": 10.3377,
      "duration": 0.25,
      "velocity": 107,
      "chip": "ym2612"
    },
    {
      "channel": 4,
      "note": 60,
      "start": 10.4715,
      "duration": 0.25,
      "velocity": 104,
      "chip": "ym2612"
    },
    {
      "channel": 3,
      "note": 63,
      "start": 10.5546,
      "duration": 0.25,
      "velocity": 107,
      "chip": "ym2612"
    },
    {
      "channel": 2,
      "note": 55,
      "start": 10.5551,
      "duration": 0.25,
      "velocity": 104,
      "chip": "ym2612"
    },
    {
      "channel": 1,
      "note": 70,
      "start": 10.5554,
      "duration": 0.25,
      "velocity": 121,
      "chip": "ym2612"
    },
    {
      "channel": 0,
      "note": 67,
      "start": 10.5556,
      "duration": 0.9999,
      "velocity": 121,
      "chip": "ym2612"
    },
    {
      "channel": 5,
      "note": 63,
      "start": 10.5877,
      "duration": 0.2667,
      "velocity": 107,
      "chip": "ym2612"
    },
    {
      "channel": 4,
      "note": 55,
      "start": 10.7215,
      "duration": 0.25,
      "velocity": 104,
      "chip": "ym2612"
    },
    {
      "channel": 3,
      "note": 72,
      "start": 10.8046,
      "duration": 0.25,
      "velocity": 107,
      "chip": "ym2612"
    },
    {
      "channel": 2,
      "note": 58,
      "start": 10.8051,
      "duration": 0.25,
      "velocity": 104,
      "chip": "ym2612"
    },
    {
      "channel": 1,
      "note": 67,
      "start": 10.8054,
      "duration": 1.0,
      "velocity": 121,
      "chip": "ym2612"
    },
    {
      "channel": 5,
      "note": 72,
      "start": 10.8544,
      "duration": 0.25,
      "velocity": 107,
      "chip": "ym2612"
    },
    {
      "channel": 4,
      "note": 58,
      "start": 10.9715,
      "duration": 0.25,
      "velocity": 104,
      "chip": "ym2612"
    },
    {
      "channel": 3,
      "note": 62,
      "start": 11.0546,
      "duration": 0.25,
      "velocity": 107,
      "chip": "ym2612"
    },
    {
      "channel": 2,
      "note": 55,
      "start": 11.0551,
      "duration": 0.25,
      "velocity": 104,
      "chip": "ym2612"
    },
    {
      "channel": 5,
      "note": 62,
      "start": 11.1044,
      "duration": 0.25,
      "velocity": 107,
      "chip": "ym2612"
    },
    {
      "channel": 4,
      "note": 55,
      "start": 11.2215,
      "duration": 0.25,
      "velocity": 104,
      "chip": "ym2612"
    },
    {
      "channel": 3,
      "note": 70,
      "start": 11.3046,
      "duration": 0.25,
      "velocity": 107,
      "chip": "ym2612"
    },
    {
      "channel": 2,
      "note": 57,
      "start": 11.3051,
      "duration": 0.25,
      "velocity": 104,
      "chip": "ym2612"
    },
    {
      "channel": 5,
      "note": 70,
      "start": 11.3544,
      "duration": 0.25,
      "velocity": 107,
      "chip": "ym2612"
    },
    {
      "channel": 4,
      "note": 57,
      "start": 11.4715,
      "duration": 0.25,
      "velocity": 104,
      "chip": "ym2612"
    },
    {
      "channel": 3,
      "note": 63,
      "start": 11.5546,
      "duration": 0.25,
      "velocity": 107,
      "chip": "ym2612"
    },
    {
      "channel": 2,
      "note": 53,
      "start": 11.5551,
      "duration": 0.25,
      "velocity": 104,
      "chip": "ym2612"
    },
    {
      "channel": 0,
      "note": 69,
      "start": 11.5556,
      "duration": 0.2501,
      "velocity": 121,
      "chip": "ym2612"
    },
    {
      "channel": 5,
      "note": 63,
      "start": 11.6044,
      "duration": 0.25,
      "velocity": 107,
      "chip": "ym2612"
    },
    {
      "channel": 4,
      "note": 53,
      "start": 11.7215,
      "duration": 0.25,
      "velocity": 104,
      "chip": "ym2612"
    },
    {
      "channel": 3,
      "note": 69,
      "start": 11.8046,
      "duration": 0.25,
      "velocity": 107,
      "chip": "ym2612"
    },
    {
      "channel": 2,
      "note": 53,
      "start": 11.8051,
      "duration": 0.25,
      "velocity": 104,
      "chip": "ym2612"
    },
    {
      "channel": 1,
      "note": 69,
      "start": 11.8054,
      "duration": 0.25,
      "velocity": 121,
      "chip": "ym2612"
    },
    {
      "channel": 0,
      "note": 72,
      "start": 11.8057,
      "duration": 0.133,
      "velocity": 121,
      "chip": "ym2612"
    },
    {
      "channel": 5,
      "note": 69,
      "start": 11.8544,
      "duration": 0.25,
      "velocity": 107,
      "chip": "ym2612"
    },
    {
      "channel": 0,
      "note": 69,
      "start": 11.9387,
      "duration": 0.1169,
      "velocity": 121,
      "chip": "ym2612"
    },
    {
      "channel": 4,
      "note": 53,
      "start": 11.9715,
      "duration": 0.25,
      "velocity": 104,
      "chip": "ym2612"
    },
    {
      "channel": 3,
      "note": 62,
      "start": 12.0546,
      "duration": 0.5,
      "velocity": 107,
      "chip": "ym2612"
    },
    {
      "channel": 2,
      "note": 55,
      "start": 12.0551,
      "duration": 0.2499,
      "velocity": 104,
      "chip": "ym2612"
    },
    {
      "channel": 1,
      "note": 72,
      "start": 12.0554,
      "duration": 0.1331,
      "velocity": 121,
      "chip": "ym2612"
    },
    {
      "channel": 0,
      "note": 72,
      "start": 12.0557,
      "duration": 2.0166,
      "velocity": 121,
      "chip": "ym2612"
    },
    {
      "channel": 5,
      "note": 62,
      "start": 12.1044,
      "duration": 0.5,
      "velocity": 107,
      "chip": "ym2612"
    },
    {
      "channel": 1,
      "note": 69,
      "start": 12.1885,
      "duration": 0.1167,
      "velocity": 121,
      "chip": "ym2612"
    },
    {
      "channel": 4,
      "note": 55,
      "start": 12.2215,
      "duration": 0.25,
      "velocity": 104,
      "chip": "ym2612"
    },
    {
      "channel": 2,
      "note": 55,
      "start": 12.305,
      "duration": 0.2501,
      "velocity": 104,
      "chip": "ym2612"
    },
    {
      "channel": 1,
      "note": 72,
      "start": 12.3053,
      "duration": 2.0167,
      "velocity": 121,
      "chip": "ym2612"
    },
    {
      "channel": 4,
      "note": 55,
      "start": 12.4715,
      "duration": 0.25,
      "velocity": 104,
      "chip": "ym2612"
    },
    {
      "channel": 3,
      "note": 63,
      "start": 12.5546,
      "duration": 0.5166,
      "velocity": 107,
      "chip": "ym2612"
    },
    {
      "channel": 2,
      "note": 55,
      "start": 12.5551,
      "duration": 0.2666,
      "velocity": 104,
      "chip": "ym2612"
    },
    {
      "channel": 5,
      "note": 63,
      "start": 12.6044,
      "duration": 0.5,
      "velocity": 107,
      "chip": "ym2612"
    },
    {
      "channel": 4,
      "note": 55,
      "start": 12.7215,
      "duration": 0.2666,
      "velocity": 104,
      "chip": "ym2612"
    },
    {
      "channel": 2,
      "note": 55,
      "start": 12.8217,
      "duration": 0.2501,
      "velocity": 104,
      "chip": "ym2612"
    },
    {
      "channel": 4,
      "note": 55,
      "start": 12.9881,
      "duration": 0.25,
      "velocity": 104,
      "chip": "ym2612"
    },
    {
      "channel": 3,
      "note": 62,
      "start": 13.0713,
      "duration": 0.5,
      "velocity": 107,
      "chip": "ym2612"
    },
    {
      "channel": 2,
      "note": 58,
      "start": 13.0717,
      "duration": 0.5,
      "velocity": 104,
      "chip": "ym2612"
    },
    {
      "channel": 5,
      "note": 62,
      "start": 13.1044,
      "duration": 0.5,
      "velocity": 107,
      "chip": "ym2612"
    },
    {
      "channel": 4,
      "note": 58,
      "start": 13.2381,
      "duration": 0.5,
      "velocity": 104,
      "chip": "ym2612"
    },
    {
      "channel": 3,
      "note": 63,
      "start": 13.5713,
      "duration": 0.5,
      "velocity": 107,
      "chip": "ym2612"
    },
    {
      "channel": 2,
      "note": 55,
      "start": 13.5717,
      "duration": 0.2499,
      "velocity": 104,
      "chip": "ym2612"
    },
    {
      "channel": 5,
      "note": 63,
      "start": 13.6044,
      "duration": 0.5,
      "velocity": 107,
      "chip": "ym2612"
    },
    {
      "channel": 4,
      "note": 55,
      "start": 13.7381,
      "duration": 0.25,
      "velocity": 104,
      "chip": "ym2612"
    },
    {
      "channel": 2,
      "note": 55,
      "start": 13.8217,
      "duration": 0.2501,
      "velocity": 104,
      "chip": "ym2612"
    },
    {
      "channel": 4,
      "note": 55,
      "start": 13.9881,
      "duration": 0.25,
      "velocity": 104,
      "chip": "ym2612"
    },
    {
      "channel": 3,
      "note": 62,
      "start": 14.0713,
      "duration": 0.25,
      "velocity": 107,
      "chip": "ym2612"
    },
    {
      "channel": 2,
      "note": 55,
      "start": 14.0717,
      "duration": 0.25,
      "velocity": 104,
      "chip": "ym2612"
    },
    {
      "channel": 0,
      "note": 74,
      "start": 14.0722,
      "duration": 2.0008,
      "velocity": 107,
      "chip": "ym2612"
    },
    {
      "channel": 5,
      "note": 62,
      "start": 14.1044,
      "duration": 0.25,
      "velocity": 107,
      "chip": "ym2612"
    },
    {
      "channel": 4,
      "note": 55,
      "start": 14.2381,
      "duration": 0.25,
      "velocity": 104,
      "chip": "ym2612"
    },
    {
      "channel": 3,
      "note": 74,
      "start": 14.3213,
      "duration": 0.25,
      "velocity": 107,
      "chip": "ym2612"
    },
    {
      "channel": 2,
      "note": 60,
      "start": 14.3217,
      "duration": 0.25,
      "velocity": 104,
      "chip": "ym2612"
    },
    {
      "channel": 1,
      "note": 74,
      "start": 14.322,
      "duration": 2.0004,
      "velocity": 107,
      "chip": "ym2612"
    },
    {
      "channel": 5,
      "note": 74,
      "start": 14.3544,
      "duration": 0.25,
      "velocity": 107,
      "chip": "ym2612"
    },
    {
      "channel": 4,
      "note": 60,
      "start": 14.4881,
      "duration": 0.25,
      "velocity": 104,
      "chip": "ym2612"
    },
    {
      "channel": 3,
      "note": 63,
      "start": 14.5713,
      "duration": 0.25,
      "velocity": 107,
      "chip": "ym2612"
    },
    {
      "channel": 2,
      "note": 55,
      "start": 14.5717,
      "duration": 0.25,
      "velocity": 104,
      "chip": "ym2612"
    },
    {
      "channel": 5,
      "note": 63,
      "start": 14.6044,
      "duration": 0.25,
      "velocity": 107,
      "chip": "ym2612"
    },
    {
      "channel": 4,
      "note": 55,
      "start": 14.7381,
      "duration": 0.25,
      "velocity": 104,
      "chip": "ym2612"
    },
    {
      "channel": 3,
      "note": 72,
      "start": 14.8213,
      "duration": 0.25,
      "velocity": 107,
      "chip": "ym2612"
    },
    {
      "channel": 2,
      "note": 58,
      "start": 14.8217,
      "duration": 0.25,
      "velocity": 104,
      "chip": "ym2612"
    },
    {
      "channel": 5,
      "note": 72,
      "start": 14.8544,
      "duration": 0.2667,
      "velocity": 107,
      "chip": "ym2612"
    },
    {
      "channel": 4,
      "note": 58,
      "start": 14.9881,
      "duration": 0.25,
      "velocity": 104,
      "chip": "ym2612"
    },
    {
      "channel": 3,
      "note": 62,
      "start": 15.0713,
      "duration": 0.25,
      "velocity": 107,
      "chip": "ym2612"
    },
    {
      "channel": 2,
      "note": 55,
      "start": 15.0717,
      "duration": 0.25,
      "velocity": 104,
      "chip": "ym2612"
    },
    {
      "channel": 5,
      "note": 62,
      "start": 15.1211,
      "duration": 0.25,
      "velocity": 107,
      "chip": "ym2612"
    },
    {
      "channel": 4,
      "note": 55,
      "start": 15.2381,
      "duration": 0.25,
      "velocity": 104,
      "chip": "ym2612"
    },
    {
      "channel": 3,
      "note": 70,
      "start": 15.3213,
      "duration": 0.25,
      "velocity": 107,
      "chip": "ym2612"
    },
    {
      "channel": 2,
      "note": 57,
      "start": 15.3217,
      "duration": 0.25,
      "velocity": 104,
      "chip": "ym2612"
    },
    {
      "channel": 5,
      "note": 70,
      "start": 15.3711,
      "duration": 0.25,
      "velocity": 107,
      "chip": "ym2612"
    },
    {
      "channel": 4,
      "note": 57,
      "start": 15.4881,
      "duration": 0.25,
      "velocity": 104,
      "chip": "ym2612"
    },
    {
      "channel": 3,
      "note": 63,
      "start": 15.5713,
      "duration": 0.25,
      "velocity": 107,
      "chip": "ym2612"
    },
    {
      "channel": 2,
      "note": 53,
      "start": 15.5717,
      "duration": 0.25,
      "velocity": 104,
      "chip": "ym2612"
    },
    {
      "channel": 5,
      "note": 63,
      "start": 15.6211,
      "duration": 0.25,
      "velocity": 107,
      "chip": "ym2612"
    },
    {
      "channel": 4,
      "note": 53,
      "start": 15.7381,
      "duration": 0.25,
      "velocity": 104,
      "chip": "ym2612"
    },
    {
      "channel": 3,
      "note": 69,
      "start": 15.8213,
      "duration": 0.2504,
      "velocity": 51,
      "chip": "ym2612"
    },
    {
      "channel": 2,
      "note": 53,
      "start": 15.8217,
      "duration": 0.2504,
      "velocity": 104,
      "chip": "ym2612"
    },
    {
      "channel": 5,
      "note": 69,
      "start": 15.8711,
      "duration": 0.2504,
      "velocity": 51,
      "chip": "ym2612"
    },
    {
      "channel": 4,
      "note": 53,
      "start": 15.9881,
      "duration": 0.25,
      "velocity": 104,
      "chip": "ym2612"
    },
    {
      "channel": 3,
      "note": 67,
      "start": 16.0717,
      "duration": 0.1329,
      "velocity": 51,
      "chip": "ym2612"
    },
    {
      "channel": 2,
      "note": 60,
      "start": 16.0721,
      "duration": 0.2496,
      "velocity": 104,
      "chip": "ym2612"
    },
    {
      "channel": 0,
      "note": 75,
      "start": 16.0731,
      "duration": 1.2658,
      "velocity": 107,
      "chip": "ym2612"
    },
    {
      "channel": 5,
      "note": 67,
      "start": 16.1215,
      "duration": 0.1163,
      "velocity": 51,
      "chip": "ym2612"
    },
    {
      "channel": 3,
      "note": 72,
      "start": 16.2046,
      "duration": 0.1167,
      "velocity": 51,
      "chip": "ym2612"
    },
    {
      "channel": 5,
      "note": 72,
      "start": 16.2377,
      "duration": 0.1333,
      "velocity": 51,
      "chip": "ym2612"
    },
    {
      "channel": 4,
      "note": 60,
      "start": 16.2382,
      "duration": 0.25,
      "velocity": 104,
      "chip": "ym2612"
    },
    {
      "channel": 3,
      "note": 75,
      "start": 16.3212,
      "duration": 0.1333,
      "velocity": 51,
      "chip": "ym2612"
    },
    {
      "channel": 2,
      "note": 60,
      "start": 16.3217,
      "duration": 0.25,
      "velocity": 104,
      "chip": "ym2612"
    },
    {
      "channel": 1,
      "note": 75,
      "start": 16.3224,
      "duration": 1.2662,
      "velocity": 107,
      "chip": "ym2612"
    },
    {
      "channel": 5,
      "note": 75,
      "start": 16.3711,
      "duration": 0.1167,
      "velocity": 51,
      "chip": "ym2612"
    },
    {
      "channel": 3,
      "note": 79,
      "start": 16.4546,
      "duration": 0.1167,
      "velocity": 51,
      "chip": "ym2612"
    },
    {
      "channel": 5,
      "note": 79,
      "start": 16.4877,
      "duration": 0.1333,
      "velocity": 51,
      "chip": "ym2612"
    },
    {
      "channel": 4,
      "note": 60,
      "start": 16.4882,
      "duration": 0.25,
      "velocity": 104,
      "chip": "ym2612"
    },
    {
      "channel": 3,
      "note": 67,
      "start": 16.5712,
      "duration": 0.1333,
      "velocity": 51,
      "chip": "ym2612"
    },
    {
      "channel": 2,
      "note": 60,
      "start": 16.5717,
      "duration": 0.25,
      "velocity": 104,
      "chip": "ym2612"
    },
    {
      "channel": 5,
      "note": 67,
      "start": 16.6211,
      "duration": 0.1167,
      "velocity": 51,
      "chip": "ym2612"
    },
    {
      "channel": 3,
      "note": 72,
      "start": 16.7046,
      "duration": 0.1167,
      "velocity": 51,
      "chip": "ym2612"
    },
    {
      "channel": 5,
      "note": 72,
      "start": 16.7377,
      "duration": 0.1333,
      "velocity": 51,
      "chip": "ym2612"
    },
    {
      "channel": 4,
      "note": 60,
      "start": 16.7382,
      "duration": 0.25,
      "velocity": 104,
      "chip": "ym2612"
    },
    {
      "channel": 3,
      "note": 75,
      "start": 16.8212,
      "duration": 0.1333,
      "velocity": 51,
      "chip": "ym2612"
    },
    {
      "channel": 2,
      "note": 60,
      "start": 16.8217,
      "duration": 0.2667,
      "velocity": 104,
      "chip": "ym2612"
    },
    {
      "channel": 5,
      "note": 75,
      "start": 16.8711,
      "duration": 0.1167,
      "velocity": 51,
      "chip": "ym2612"
    },
    {
      "channel": 3,
      "note": 79,
      "start": 16.9546,
      "duration": 0.1333,
      "velocity": 51,
      "chip": "ym2612"
    },
    {
      "channel": 5,
      "note": 79,
      "start": 16.9877,
      "duration": 0.1333,
      "velocity": 51,
      "chip": "ym2612"
    },
    {
      "channel": 4,
      "note": 60,
      "start": 16.9882,
      "duration": 0.2666,
      "velocity": 104,
      "chip": "ym2612"
    },
    {
      "channel": 3,
      "note": 67,
      "start": 17.0879,
      "duration": 0.1167,
      "velocity": 51,
      "chip": "ym2612"
    },
    {
      "channel": 2,
      "note": 63,
      "start": 17.0884,
      "duration": 0.5,
      "velocity": 104,
      "chip": "ym2612"
    },
    {
      "channel": 5,
      "note": 67,
      "start": 17.1211,
      "duration": 0.1333,
      "velocity": 51,
      "chip": "ym2612"
    },
    {
      "channel": 3,
      "note": 72,
      "start": 17.2046,
      "duration": 0.1333,
      "velocity": 51,
      "chip": "ym2612"
    },
    {
      "channel": 5,
      "note": 72,
      "start": 17.2544,
      "duration": 0.1167,
      "velocity": 51,
      "chip": "ym2612"
    },
    {
      "channel": 4,
      "note": 63,
      "start": 17.2549,
      "duration": 0.5,
      "velocity": 104,
      "chip": "ym2612"
    },
    {
      "channel": 3,
      "note": 75,
      "start": 17.3379,
      "duration": 0.1167,
      "velocity": 51,
      "chip": "ym2612"
    },
    {
      "channel": 0,
      "note": 78,
      "start": 17.3388,
      "duration": 0.2501,
      "velocity": 107,
      "chip": "ym2612"
    },
    {
      "channel": 5,
      "note": 75,
      "start": 17.3711,
      "duration": 0.1333,
      "velocity": 51,
      "chip": "ym2612"
    },
    {
      "channel": 3,
      "note": 79,
      "start": 17.4546,
      "duration": 0.1333,
      "velocity": 51,
      "chip": "ym2612"
    },
    {
      "channel": 5,
      "note": 79,
      "start": 17.5044,
      "duration": 0.1167,
      "velocity": 51,
      "chip": "ym2612"
    },
    {
      "channel": 3,
      "note": 67,
      "start": 17.5879,
      "duration": 0.1167,
      "velocity": 51,
      "chip": "ym2612"
    },
    {
      "channel": 2,
      "note": 60,
      "start": 17.5884,
      "duration": 0.25,
      "velocity": 104,
      "chip": "ym2612"
    },
    {
      "channel": 1,
      "note": 78,
      "start": 17.5887,
      "duration": 0.25,
      "velocity": 107,
      "chip": "ym2612"
    },
    {
      "channel": 0,
      "note": 84,
      "start": 17.589,
      "duration": 0.25,
      "velocity": 107,
      "chip": "ym2612"
    },
    {
      "channel": 5,
      "note": 67,
      "start": 17.6211,
      "duration": 0.1333,
      "velocity": 51,
      "chip": "ym2612"
    },
    {
      "channel": 3,
      "note": 72,
      "start": 17.7046,
      "duration": 0.1333,
      "velocity": 51,
      "chip": "ym2612"
    },
    {
      "channel": 5,
      "note": 72,
      "start": 17.7544,
      "duration": 0.1167,
      "velocity": 51,
      "chip": "ym2612"
    },
    {
      "channel": 4,
      "note": 60,
      "start": 17.7549,
      "duration": 0.25,
      "velocity": 104,
      "chip": "ym2612"
    },
    {
      "channel": 3,
      "note": 75,
      "start": 17.8379,
      "duration": 0.1167,
      "velocity": 51,
      "chip": "ym2612"
    },
    {
      "channel": 2,
      "note": 60,
      "start": 17.8384,
      "duration": 0.25,
      "velocity": 104,
      "chip": "ym2612"
    },
    {
      "channel": 1,
      "note": 84,
      "start": 17.8387,
      "duration": 0.25,
      "velocity": 107,
      "chip": "ym2612"
    },
    {
      "channel": 0,
      "note": 81,
      "start": 17.839,
      "duration": 0.9999,
      "velocity": 107,
      "chip": "ym2612"
    },
    {
      "channel": 5,
      "note": 75,
      "start": 17.8711,
      "duration": 0.1333,
      "velocity": 51,
      "chip": "ym2612"
    },
    {
      "channel": 3,
      "note": 79,
      "start": 17.9546,
      "duration": 0.1333,
      "velocity": 51,
      "chip": "ym2612"
    },
    {
      "channel": 5,
      "note": 79,
      "start": 18.0044,
      "duration": 0.1167,
      "velocity": 51,
      "chip": "ym2612"
    },
    {
      "channel": 4,
      "note": 60,
      "start": 18.0049,
      "duration": 0.25,
      "velocity": 104,
      "chip": "ym2612"
    },
    {
      "channel": 3,
      "note": 67,
      "start": 18.0879,
      "duration": 0.1167,
      "velocity": 51,
      "chip": "ym2612"
    },
    {
      "channel": 2,
      "note": 59,
      "start": 18.0884,
      "duration": 0.25,
      "velocity": 104,
      "chip": "ym2612"
    },
    {
      "channel": 1,
      "note": 81,
      "start": 18.0887,
      "duration": 1.0,
      "velocity": 107,
      "chip": "ym2612"
    },
    {
      "channel": 5,
      "note": 67,
      "start": 18.1211,
      "duration": 0.1333,
      "velocity": 51,
      "chip": "ym2612"
    },
    {
      "channel": 3,
      "note": 71,
      "start": 18.2046,
      "duration": 0.1333,
      "velocity": 51,
      "chip": "ym2612"
    },
    {
      "channel": 5,
      "note": 71,
      "start": 18.2544,
      "duration": 0.1167,
      "velocity": 51,
      "chip": "ym2612"
    },
    {
      "channel": 4,
      "note": 59,
      "start": 18.2549,
      "duration": 0.25,
      "velocity": 104,
      "chip": "ym2612"
    },
    {
      "channel": 3,
      "note": 75,
      "start": 18.3379,
      "duration": 0.1167,
      "velocity": 51,
      "chip": "ym2612"
    },
    {
      "channel": 2,
      "note": 59,
      "start": 18.3384,
      "duration": 0.25,
      "velocity": 104,
      "chip": "ym2612"
    },
    {
      "channel": 5,
      "note": 75,
      "start": 18.3711,
      "duration": 0.1333,
      "velocity": 51,
      "chip": "ym2612"
    },
    {
      "channel": 3,
      "note": 79,
      "start": 18.4546,
      "duration": 0.1333,
      "velocity": 51,
      "chip": "ym2612"
    },
    {
      "channel": 5,
      "note": 79,
      "start": 18.5044,
      "duration": 0.1167,
      "velocity": 51,
      "chip": "ym2612"
    },
    {
      "channel": 4,
      "note": 59,
      "start": 18.5049,
      "duration": 0.25,
      "velocity": 104,
      "chip": "ym2612"
    },
    {
      "channel": 3,
      "note": 67,
      "start": 18.5879,
      "duration": 0.1167,
      "velocity": 51,
      "chip": "ym2612"
    },
    {
      "channel": 2,
      "note": 59,
      "start": 18.5884,
      "duration": 0.25,
      "velocity": 104,
      "chip": "ym2612"
    },
    {
      "channel": 5,
      "note": 67,
      "start": 18.6211,
      "duration": 0.1333,
      "velocity": 51,
      "chip": "ym2612"
    },
    {
      "channel": 3,
      "note": 71,
      "start": 18.7046,
      "duration": 0.1333,
      "velocity": 51,
      "chip": "ym2612"
    },
    {
      "channel": 5,
      "note": 71,
      "start": 18.7544,
      "duration": 0.1167,
      "velocity": 51,
      "chip": "ym2612"
    },
    {
      "channel": 4,
      "note": 59,
      "start": 18.7549,
      "duration": 0.25,
      "velocity": 104,
      "chip": "ym2612"
    },
    {
      "channel": 3,
      "note": 75,
      "start": 18.8379,
      "duration": 0.1167,
      "velocity": 51,
      "chip": "ym2612"
    },
    {
      "channel": 2,
      "note": 59,
      "start": 18.8384,
      "duration": 0.25,
      "velocity": 104,
      "chip": "ym2612"
    },
    {
      "channel": 0,
      "note": 81,
      "start": 18.8389,
      "duration": 0.2501,
      "velocity": 107,
      "chip": "ym2612"
    },
    {
      "channel": 5,
      "note": 75,
      "start": 18.8711,
      "duration": 0.1333,
      "velocity": 51,
      "chip": "ym2612"
    },
    {
      "channel": 3,
      "note": 79,
      "start": 18.9546,
      "duration": 0.1333,
      "velocity": 51,
      "chip": "ym2612"
    },
    {
      "channel": 5,
      "note": 79,
      "start": 19.0044,
      "duration": 0.1167,
      "velocity": 51,
      "chip": "ym2612"
    },
    {
      "channel": 4,
      "note": 59,
      "start": 19.0049,
      "duration": 0.25,
      "velocity": 104,
      "chip": "ym2612"
    },
    {
      "channel": 3,
      "note": 67,
      "start": 19.0879,
      "duration": 0.1333,
      "velocity": 51,
      "chip": "ym2612"
    },
    {
      "channel": 2,
      "note": 63,
      "start": 19.0884,
      "duration": 0.5,
      "velocity": 104,
      "chip": "ym2612"
    },
    {
      "channel": 1,
      "note": 81,
      "start": 19.0887,
      "duration": 0.2499,
      "velocity": 107,
      "chip": "ym2612"
    },
    {
      "channel": 0,
      "note": 82,
      "start": 19.089,
      "duration": 0.2499,
      "velocity": 107,
      "chip": "ym2612"
    },
    {
      "channel": 5,
      "note": 67,
      "start": 19.1211,
      "duration": 0.1333,
      "velocity": 51,
      "chip": "ym2612"
    },
    {
      "channel": 3,
      "note": 71,
      "start": 19.2212,
      "duration": 0.1167,
      "velocity": 51,
      "chip": "ym2612"
    },
    {
      "channel": 5,
      "note": 71,
      "start": 19.2544,
      "duration": 0.1333,
      "velocity": 51,
      "chip": "ym2612"
    },
    {
      "channel": 4,
      "note": 63,
      "start": 19.2549,
      "duration": 0.5,
      "velocity": 104,
      "chip": "ym2612"
    },
    {
      "channel": 3,
      "note": 75,
      "start": 19.3379,
      "duration": 0.1333,
      "velocity": 51,
      "chip": "ym2612"
    },
    {
      "channel": 1,
      "note": 82,
      "start": 19.3386,
      "duration": 0.2501,
      "velocity": 107,
      "chip": "ym2612"
    },
    {
      "channel": 0,
      "note": 84,
      "start": 19.3389,
      "duration": 0.75,
      "velocity": 107,
      "chip": "ym2612"
    },
    {
      "channel": 5,
      "note": 75,
      "start": 19.3877,
      "duration": 0.1167,
      "velocity": 51,
      "chip": "ym2612"
    },
    {
      "channel": 3,
      "note": 79,
      "start": 19.4712,
      "duration": 0.1167,
      "velocity": 51,
      "chip": "ym2612"
    },
    {
      "channel": 5,
      "note": 79,
      "start": 19.5044,
      "duration": 0.1333,
      "velocity": 51,
      "chip": "ym2612"
    },
    {
      "channel": 3,
      "note": 67,
      "start": 19.5879,
      "duration": 0.1333,
      "velocity": 51,
      "chip": "ym2612"
    },
    {
      "channel": 2,
      "note": 59,
      "start": 19.5884,
      "duration": 0.25,
      "velocity": 104,
      "chip": "ym2612"
    },
    {
      "channel": 1,
      "note": 84,
      "start": 19.5887,
      "duration": 0.75,
      "velocity": 107,
      "chip": "ym2612"
    },
    {
      "channel": 5,
      "note": 67,
      "start": 19.6377,
      "duration": 0.1167,
      "velocity": 51,
      "chip": "ym2612"
    },
    {
      "channel": 3,
      "note": 71,
      "start": 19.7212,
      "duration": 0.1167,
      "velocity": 51,
      "chip": "ym2612"
    },
    {
      "channel": 5,
      "note": 71,
      "start": 19.7544,
      "duration": 0.1333,
      "velocity": 51,
      "chip": "ym2612"
    },
    {
      "channel": 4,
      "note": 59,
      "start": 19.7549,
      "duration": 0.25,
      "velocity": 104,
      "chip": "ym2612"
    },
    {
      "channel": 3,
      "note": 75,
      "start": 19.8379,
      "duration": 0.1333,
      "velocity": 51,
      "chip": "ym2612"
    },
    {
      "channel": 2,
      "note": 59,
      "start": 19.8384,
      "duration": 0.25,
      "velocity": 104,
      "chip": "ym2612"
    },
    {
      "channel": 5,
      "note": 75,
      "start": 19.8877,
      "duration": 0.1167,
      "velocity": 51,
      "chip": "ym2612"
    },
    {
      "channel": 3,
      "note": 79,
      "start": 19.9712,
      "duration": 0.1167,
      "velocity": 51,
      "chip": "ym2612"
    },
    {
      "channel": 5,
      "note": 79,
      "start": 20.0044,
      "duration": 0.1333,
      "velocity": 51,
      "chip": "ym2612"
    },
    {
      "channel": 4,
      "note": 59,
      "start": 20.0049,
      "duration": 0.25,
      "velocity": 104,
      "chip": "ym2612"
    },
    {
      "channel": 3,
      "note": 67,
      "start": 20.0879,
      "duration": 0.1333,
      "velocity": 51,
      "chip": "ym2612"
    },
    {
      "channel": 2,
      "note": 58,
      "start": 20.0884,
      "duration": 0.25,
      "velocity": 104,
      "chip": "ym2612"
    },
    {
      "channel": 0,
      "note": 86,
      "start": 20.0889,
      "duration": 0.2501,
      "velocity": 107,
      "chip": "ym2612"
    },
    {
      "channel": 5,
      "note": 67,
      "start": 20.1377,
      "duration": 0.1167,
      "velocity": 51,
      "chip": "ym2612"
    },
    {
      "channel": 3,
      "note": 70,
      "start": 20.2212,
      "duration": 0.1167,
      "velocity": 51,
      "chip": "ym2612"
    },
    {
      "channel": 5,
      "note": 70,
      "start": 20.2544,
      "duration": 0.1333,
      "velocity": 51,
      "chip": "ym2612"
    },
    {
      "channel": 4,
      "note": 58,
      "start": 20.2549,
      "duration": 0.25,
      "velocity": 104,
      "chip": "ym2612"
    },
    {
      "channel": 3,
      "note": 75,
      "start": 20.3379,
      "duration": 0.1333,
      "velocity": 51,
      "chip": "ym2612"
    },
    {
      "channel": 2,
      "note": 58,
      "start": 20.3384,
      "duration": 0.25,
      "velocity": 104,
      "chip": "ym2612"
    },
    {
      "channel": 1,
      "note": 86,
      "start": 20.3387,
      "duration": 0.25,
      "velocity": 107,
      "chip": "ym2612"
    },
    {
      "channel": 0,
      "note": 82,
      "start": 20.339,
      "duration": 0.25,
      "velocity": 107,
      "chip": "ym2612"
    },
    {
      "channel": 5,
      "note": 75,
      "start": 20.3877,
      "duration": 0.1167,
      "velocity": 51,
      "chip": "ym2612"
    },
    {
      "channel": 3,
      "note": 79,
      "start": 20.4712,
      "duration": 0.1167,
      "velocity": 51,
      "chip": "ym2612"
    },
    {
      "channel": 5,
      "note": 79,
      "start": 20.5044,
      "duration": 0.1333,
      "velocity": 51,
      "chip": "ym2612"
    },
    {
      "channel": 4,
      "note": 58,
      "start": 20.5049,
      "duration": 0.25,
      "velocity": 104,
      "chip": "ym2612"
    },
    {
      "channel": 3,
      "note": 67,
      "start": 20.5879,
      "duration": 0.1333,
      "velocity": 51,
      "chip": "ym2612"
    },
    {
      "channel": 2,
      "note": 58,
      "start": 20.5884,
      "duration": 0.25,
      "velocity": 104,
      "chip": "ym2612"
    },
    {
      "channel": 1,
      "note": 82,
      "start": 20.5887,
      "duration": 0.25,
      "velocity": 107,
      "chip": "ym2612"
    },
    {
      "channel": 0,
      "note": 79,
      "start": 20.589,
      "duration": 1.0166,
      "velocity": 107,
      "chip": "ym2612"
    },
    {
      "channel": 5,
      "note": 67,
      "start": 20.6377,
      "duration": 0.1167,
      "velocity": 51,
      "chip": "ym2612"
    },
    {
      "channel": 3,
      "note": 70,
      "start": 20.7212,
      "duration": 0.1167,
      "velocity": 51,
      "chip": "ym2612"
    },
    {
      "channel": 5,
      "note": 70,
      "start": 20.7544,
      "duration": 0.1333,
      "velocity": 51,
      "chip": "ym2612"
    },
    {
      "channel": 4,
      "note": 58,
      "start": 20.7549,
      "duration": 0.25,
      "velocity": 104,
      "chip": "ym2612"
    },
    {
      "channel": 3,
      "note": 75,
      "start": 20.8379,
      "duration": 0.1333,
      "velocity": 51,
      "chip": "ym2612"
    },
    {
      "channel": 2,
      "note": 58,
      "start": 20.8384,
      "duration": 0.25,
      "velocity": 104,
      "chip": "ym2612"
    },
    {
      "channel": 1,
      "note": 79,
      "start": 20.8387,
      "duration": 1.0166,
      "velocity": 107,
      "chip": "ym2612"
    },
    {
      "channel": 5,
      "note": 75,
      "start": 20.8877,
      "duration": 0.1167,
      "velocity": 51,
      "chip": "ym2612"
    },
    {
      "channel": 3,
      "note": 79,
      "start": 20.9712,
      "duration": 0.1167,
      "velocity": 51,
      "chip": "ym2612"
    },
    {
      "channel": 5,
      "note": 79,
      "start": 21.0044,
      "duration": 0.1333,
      "velocity": 51,
      "chip": "ym2612"
    },
    {
      "channel": 4,
      "note": 58,
      "start": 21.0049,
      "duration": 0.25,
      "velocity": 104,
      "chip": "ym2612"
    },
    {
      "channel": 3,
      "note": 67,
      "start": 21.0879,
      "duration": 0.1333,
      "velocity": 51,
      "chip": "ym2612"
    },
    {
      "channel": 2,
      "note": 63,
      "start": 21.0884,
      "duration": 0.5166,
      "velocity": 104,
      "chip": "ym2612"
    },
    {
      "channel": 5,
      "note": 67,
      "start": 21.1377,
      "duration": 0.1167,
      "velocity": 51,
      "chip": "ym2612"
    },
    {
      "channel": 3,
      "note": 70,
      "start": 21.2212,
      "duration": 0.1333,
      "velocity": 51,
      "chip": "ym2612"
    },
    {
      "channel": 5,
      "note": 70,
      "start": 21.2544,
      "duration": 0.1333,
      "velocity": 51,
      "chip": "ym2612"
    },
    {
      "channel": 4,
      "note": 63,
      "start": 21.2549,
      "duration": 0.5166,
      "velocity": 104,
      "chip": "ym2612"
    },
    {
      "channel": 3,
      "note": 75,
      "start": 21.3546,
      "duration": 0.1167,
      "velocity": 51,
      "chip": "ym2612"
    },
    {
      "channel": 5,
      "note": 75,
      "start": 21.3877,
      "duration": 0.1333,
      "velocity": 51,
      "chip": "ym2612"
    },
    {
      "channel": 3,
      "note": 79,
      "start": 21.4712,
      "duration": 0.1333,
      "velocity": 51,
      "chip": "ym2612"
    },
    {
      "channel": 5,
      "note": 79,
      "start": 21.5211,
      "duration": 0.1167,
      "velocity": 51,
      "chip": "ym2612"
    },
    {
      "channel": 3,
      "note": 67,
      "start": 21.6046,
      "duration": 0.1167,
      "velocity": 51,
      "chip": "ym2612"
    },
    {
      "channel": 2,
      "note": 58,
      "start": 21.6051,
      "duration": 0.25,
      "velocity": 104,
      "chip": "ym2612"
    },
    {
      "channel": 0,
      "note": 86,
      "start": 21.6056,
      "duration": 0.2501,
      "velocity": 107,
      "chip": "ym2612"
    },
    {
      "channel": 5,
      "note": 67,
      "start": 21.6377,
      "duration": 0.1333,
      "velocity": 51,
      "chip": "ym2612"
    },
    {
      "channel": 3,
      "note": 70,
      "start": 21.7212,
      "duration": 0.1333,
      "velocity": 51,
      "chip": "ym2612"
    },
    {
      "channel": 5,
      "note": 70,
      "start": 21.7711,
      "duration": 0.1167,
      "velocity": 51,
      "chip": "ym2612"
    },
    {
      "channel": 4,
      "note": 58,
      "start": 21.7715,
      "duration": 0.25,
      "velocity": 104,
      "chip": "ym2612"
    },
    {
      "channel": 3,
      "note": 75,
      "start": 21.8546,
      "duration": 0.1167,
      "velocity": 51,
      "chip": "ym2612"
    },
    {
      "channel": 2,
      "note": 58,
      "start": 21.855,
      "duration": 0.25,
      "velocity": 104,
      "chip": "ym2612"
    },
    {
      "channel": 1,
      "note": 86,
      "start": 21.8554,
      "duration": 0.25,
      "velocity": 107,
      "chip": "ym2612"
    },
    {
      "channel": 0,
      "note": 82,
      "start": 21.8556,
      "duration": 0.25,
      "velocity": 107,
      "chip": "ym2612"
    },
    {
      "channel": 5,
      "note": 75,
      "start": 21.8877,
      "duration": 0.1333,
      "velocity": 51,
      "chip": "ym2612"
    },
    {
      "channel": 3,
      "note": 79,
      "start": 21.9712,
      "duration": 0.1333,
      "velocity": 51,
      "chip": "ym2612"
    },
    {
      "channel": 5,
      "note": 79,
      "start": 22.0211,
      "duration": 0.1167,
      "velocity": 51,
      "chip": "ym2612"
    },
    {
      "channel": 4,
      "note": 58,
      "start": 22.0215,
      "duration": 0.25,
      "velocity": 104,
      "chip": "ym2612"
    },
    {
      "channel": 3,
      "note": 67,
      "start": 22.1046,
      "duration": 0.1167,
      "velocity": 51,
      "chip": "ym2612"
    },
    {
      "channel": 2,
      "note": 57,
      "start": 22.105,
      "duration": 0.25,
      "velocity": 104,
      "chip": "ym2612"
    },
    {
      "channel": 1,
      "note": 82,
      "start": 22.1053,
      "duration": 0.25,
      "velocity": 107,
      "chip": "ym2612"
    },
    {
      "channel": 0,
      "note": 79,
      "start": 22.1056,
      "duration": 0.7499,
      "velocity": 107,
      "chip": "ym2612"
    },
    {
      "channel": 5,
      "note": 67,
      "start": 22.1377,
      "duration": 0.1333,
      "velocity": 51,
      "chip": "ym2612"
    },
    {
      "channel": 3,
      "note": 69,
      "start": 22.2212,
      "duration": 0.1333,
      "velocity": 51,
      "chip": "ym2612"
    },
    {
      "channel": 5,
      "note": 69,
      "start": 22.2711,
      "duration": 0.1167,
      "velocity": 51,
      "chip": "ym2612"
    },
    {
      "channel": 4,
      "note": 57,
      "start": 22.2715,
      "duration": 0.25,
      "velocity": 104,
      "chip": "ym2612"
    },
    {
      "channel": 3,
      "note": 75,
      "start": 22.3546,
      "duration": 0.1167,
      "velocity": 51,
      "chip": "ym2612"
    },
    {
      "channel": 2,
      "note": 57,
      "start": 22.355,
      "duration": 0.25,
      "velocity": 104,
      "chip": "ym2612"
    },
    {
      "channel": 1,
      "note": 79,
      "start": 22.3554,
      "duration": 0.75,
      "velocity": 107,
      "chip": "ym2612"
    },
    {
      "channel": 5,
      "note": 75,
      "start": 22.3877,
      "duration": 0.1333,
      "velocity": 51,
      "chip": "ym2612"
    },
    {
      "channel": 3,
      "note": 79,
      "start": 22.4712,
      "duration": 0.1333,
      "velocity": 51,
      "chip": "ym2612"
    },
    {
      "channel": 5,
      "note": 79,
      "start": 22.5211,
      "duration": 0.1167,
      "velocity": 51,
      "chip": "ym2612"
    },
    {
      "channel": 4,
      "note": 57,
      "start": 22.5215,
      "duration": 0.25,
      "velocity": 104,
      "chip": "ym2612"
    },
    {
      "channel": 3,
      "note": 67,
      "start": 22.6046,
      "duration": 0.1167,
      "velocity": 51,
      "chip": "ym2612"
    },
    {
      "channel": 2,
      "note": 57,
      "start": 22.605,
      "duration": 0.25,
      "velocity": 104,
      "chip": "ym2612"
    },
    {
      "channel": 5,
      "note": 67,
      "start": 22.6377,
      "duration": 0.1333,
      "velocity": 51,
      "chip": "ym2612"
    },
    {
      "channel": 3,
      "note": 69,
      "start": 22.7212,
      "duration": 0.1333,
      "velocity": 51,
      "chip": "ym2612"
    },
    {
      "channel": 5,
      "note": 69,
      "start": 22.7711,
      "duration": 0.1167,
      "velocity": 51,
      "chip": "ym2612"
    },
    {
      "channel": 4,
      "note": 57,
      "start": 22.7715,
      "duration": 0.25,
      "velocity": 104,
      "chip": "ym2612"
    },
    {
      "channel": 3,
      "note": 75,
      "start": 22.8546,
      "duration": 0.1167,
      "velocity": 51,
      "chip": "ym2612"
    },
    {
      "channel": 2,
      "note": 57,
      "start": 22.855,
      "duration": 0.25,
      "velocity": 104,
      "chip": "ym2612"
    },
    {
      "channel": 0,
      "note": 79,
      "start": 22.8555,
      "duration": 0.2501,
      "velocity": 107,
      "chip": "ym2612"
    },
    {
      "channel": 5,
      "note": 75,
      "start": 22.8877,
      "duration": 0.1333,
      "velocity": 51,
      "chip": "ym2612"
    },
    {
      "channel": 3,
      "note": 79,
      "start": 22.9712,
      "duration": 0.1333,
      "velocity": 51,
      "chip": "ym2612"
    },
    {
      "channel": 5,
      "note": 79,
      "start": 23.0211,
      "duration": 0.1167,
      "velocity": 51,
      "chip": "ym2612"
    },
    {
      "channel": 4,
      "note": 57,
      "start": 23.0215,
      "duration": 0.25,
      "velocity": 104,
      "chip": "ym2612"
    },
    {
      "channel": 3,
      "note": 67,
      "start": 23.1046,
      "duration": 0.1167,
      "velocity": 51,
      "chip": "ym2612"
    },
    {
      "channel": 2,
      "note": 63,
      "start": 23.1051,
      "duration": 0.5,
      "velocity": 104,
      "chip": "ym2612"
    },
    {
      "channel": 1,
      "note": 79,
      "start": 23.1054,
      "duration": 0.2499,
      "velocity": 107,
      "chip": "ym2612"
    },
    {
      "channel": 0,
      "note": 81,
      "start": 23.1056,
      "duration": 0.2499,
      "velocity": 107,
      "chip": "ym2612"
    },
    {
      "channel": 5,
      "note": 67,
      "start": 23.1377,
      "duration": 0.1333,
      "velocity": 51,
      "chip": "ym2612"
    },
    {
      "channel": 3,
      "note": 69,
      "start": 23.2212,
      "duration": 0.1333,
      "velocity": 51,
      "chip": "ym2612"
    },
    {
      "channel": 5,
      "note": 69,
      "start": 23.2711,
      "duration": 0.1167,
      "velocity": 51,
      "chip": "ym2612"
    },
    {
      "channel": 4,
      "note": 63,
      "start": 23.2715,
      "duration": 0.5,
      "velocity": 104,
      "chip": "ym2612"
    },
    {
      "channel": 3,
      "note": 75,
      "start": 23.3546,
      "duration": 0.1333,
      "velocity": 51,
      "chip": "ym2612"
    },
    {
      "channel": 1,
      "note": 81,
      "start": 23.3552,
      "duration": 0.2501,
      "velocity": 107,
      "chip": "ym2612"
    },
    {
      "channel": 0,
      "note": 82,
      "start": 23.3556,
      "duration": 0.75,
      "velocity": 107,
      "chip": "ym2612"
    },
    {
      "channel": 5,
      "note": 75,
      "start": 23.3877,
      "duration": 0.1333,
      "velocity": 51,
      "chip": "ym2612"
    },
    {
      "channel": 3,
      "note": 79,
      "start": 23.4879,
      "duration": 0.1167,
      "velocity": 51,
      "chip": "ym2612"
    },
    {
      "channel": 5,
      "note": 79,
      "start": 23.5211,
      "duration": 0.1333,
      "velocity": 51,
      "chip": "ym2612"
    },
    {
      "channel": 3,
      "note": 67,
      "start": 23.6046,
      "duration": 0.1333,
      "velocity": 51,
      "chip": "ym2612"
    },
    {
      "channel": 2,
      "note": 57,
      "start": 23.6051,
      "duration": 0.25,
      "velocity": 104,
      "chip": "ym2612"
    },
    {
      "channel": 1,
      "note": 82,
      "start": 23.6054,
      "duration": 0.75,
      "velocity": 107,
      "chip": "ym2612"
    },
    {
      "channel": 5,
      "note": 67,
      "start": 23.6544,
      "duration": 0.1167,
      "velocity": 51,
      "chip": "ym2612"
    },
    {
      "channel": 3,
      "note": 69,
      "start": 23.7379,
      "duration": 0.1167,
      "velocity": 51,
      "chip": "ym2612"
    },
    {
      "channel": 5,
      "note": 69,
      "start": 23.7711,
      "duration": 0.1333,
      "velocity": 51,
      "chip": "ym2612"
    },
    {
      "channel": 4,
      "note": 57,
      "start": 23.7715,
      "duration": 0.25,
      "velocity": 104,
      "chip": "ym2612"
    },
    {
      "channel": 3,
      "note": 75,
      "start": 23.8546,
      "duration": 0.1333,
      "velocity": 51,
      "chip": "ym2612"
    },
    {
      "channel": 2,
      "note": 57,
      "start": 23.855,
      "duration": 0.25,
      "velocity": 104,
      "chip": "ym2612"
    },
    {
      "channel": 5,
      "note": 75,
      "start": 23.9044,
      "duration": 0.1167,
      "velocity": 51,
      "chip": "ym2612"
    },
    {
      "channel": 3,
      "note": 79,
      "start": 23.9879,
      "duration": 0.1167,
      "velocity": 51,
      "chip": "ym2612"
    },
    {
      "channel": 5,
      "note": 79,
      "start": 24.0211,
      "duration": 0.1333,
      "velocity": 51,
      "chip": "ym2612"
    },
    {
      "channel": 4,
      "note": 57,
      "start": 24.0215,
      "duration": 0.25,
      "velocity": 104,
      "chip": "ym2612"
    },
    {
      "channel": 3,
      "note": 67,
      "start": 24.1046,
      "duration": 0.1333,
      "velocity": 51,
      "chip": "ym2612"
    },
    {
      "channel": 2,
      "note": 60,
      "start": 24.105,
      "duration": 0.25,
      "velocity": 104,
      "chip": "ym2612"
    },
    {
      "channel": 0,
      "note": 84,
      "start": 24.1055,
      "duration": 0.2501,
      "velocity": 107,
      "chip": "ym2612"
    },
    {
      "channel": 5,
      "note": 67,
      "start": 24.1544,
      "duration": 0.1167,
      "velocity": 51,
      "chip": "ym2612"
    },
    {
      "channel": 3,
      "note": 72,
      "start": 24.2379,
      "duration": 0.1167,
      "velocity": 51,
      "chip": "ym2612"
    },
    {
      "channel": 5,
      "note": 72,
      "start": 24.2711,
      "duration": 0.1333,
      "velocity": 51,
      "chip": "ym2612"
    },
    {
      "channel": 4,
      "note": 60,
      "start": 24.2715,
      "duration": 0.25,
      "velocity": 104,
      "chip": "ym2612"
    },
    {
      "channel": 3,
      "note": 75,
      "start": 24.3546,
      "duration": 0.1333,
      "velocity": 51,
      "chip": "ym2612"
    },
    {
      "channel": 2,
      "note": 60,
      "start": 24.355,
      "duration": 0.25,
      "velocity": 104,
      "chip": "ym2612"
    },
    {
      "channel": 1,
      "note": 84,
      "start": 24.3554,
      "duration": 0.25,
      "velocity": 107,
      "chip": "ym2612"
    },
    {
      "channel": 0,
      "note": 86,
      "start": 24.3556,
      "duration": 0.25,
      "velocity": 107,
      "chip": "ym2612"
    },
    {
      "channel": 5,
      "note": 75,
      "start": 24.4044,
      "duration": 0.1167,
      "velocity": 51,
      "chip": "ym2612"
    },
    {
      "channel": 3,
      "note": 79,
      "start": 24.4879,
      "duration": 0.1167,
      "velocity": 51,
      "chip": "ym2612"
    },
    {
      "channel": 5,
      "note": 79,
      "start": 24.5211,
      "duration": 0.1333,
      "velocity": 51,
      "chip": "ym2612"
    },
    {
      "channel": 4,
      "note": 60,
      "start": 24.5215,
      "duration": 0.25,
      "velocity": 104,
      "chip": "ym2612"
    },
    {
      "channel": 3,
      "note": 67,
      "start": 24.6046,
      "duration": 0.1333,
      "velocity": 51,
      "chip": "ym2612"
    },
    {
      "channel": 2,
      "note": 60,
      "start": 24.605,
      "duration": 0.25,
      "velocity": 104,
      "chip": "ym2612"
    },
    {
      "channel": 1,
      "note": 86,
      "start": 24.6053,
      "duration": 0.25,
      "velocity": 107,
      "chip": "ym2612"
    },
    {
      "channel": 0,
      "note": 84,
      "start": 24.6056,
      "duration": 0.25,
      "velocity": 107,
      "chip": "ym2612"
    },
    {
      "channel": 5,
      "note": 67,
      "start": 24.6544,
      "duration": 0.1167,
      "velocity": 51,
      "chip": "ym2612"
    },
    {
      "channel": 3,
      "note": 72,
      "start": 24.7379,
      "duration": 0.1167,
      "velocity": 51,
      "chip": "ym2612"
    },
    {
      "channel": 5,
      "note": 72,
      "start": 24.7711,
      "duration": 0.1333,
      "velocity": 51,
      "chip": "ym2612"
    },
    {
      "channel": 4,
      "note": 60,
      "start": 24.7715,
      "duration": 0.25,
      "velocity": 104,
      "chip": "ym2612"
    },
    {
      "channel": 3,
      "note": 75,
      "start": 24.8546,
      "duration": 0.1333,
      "velocity": 51,
      "chip": "ym2612"
    },
    {
      "channel": 2,
      "note": 60,
      "start": 24.855,
      "duration": 0.25,
      "velocity": 104,
      "chip": "ym2612"
    },
    {
      "channel": 1,
      "note": 84,
      "start": 24.8553,
      "duration": 0.25,
      "velocity": 107,
      "chip": "ym2612"
    },
    {
      "channel": 0,
      "note": 82,
      "start": 24.8556,
      "duration": 0.4998,
      "velocity": 107,
      "chip": "ym2612"
    },
    {
      "channel": 5,
      "note": 75,
      "start": 24.9044,
      "duration": 0.1167,
      "velocity": 51,
      "chip": "ym2612"
    },
    {
      "channel": 3,
      "note": 79,
      "start": 24.9879,
      "duration": 0.1167,
      "velocity": 51,
      "chip": "ym2612"
    },
    {
      "channel": 5,
      "note": 79,
      "start": 25.0211,
      "duration": 0.1333,
      "velocity": 51,
      "chip": "ym2612"
    },
    {
      "channel": 4,
      "note": 60,
      "start": 25.0215,
      "duration": 0.25,
      "velocity": 104,
      "chip": "ym2612"
    },
    {
      "channel": 3,
      "note": 67,
      "start": 25.1046,
      "duration": 0.1333,
      "velocity": 51,
      "chip": "ym2612"
    },
    {
      "channel": 2,
      "note": 63,
      "start": 25.1051,
      "duration": 0.5166,
      "velocity": 104,
      "chip": "ym2612"
    },
    {
      "channel": 1,
      "note": 82,
      "start": 25.1054,
      "duration": 0.5166,
      "velocity": 107,
      "chip": "ym2612"
    },
    {
      "channel": 5,
      "note": 67,
      "start": 25.1544,
      "duration": 0.1167,
      "velocity": 51,
      "chip": "ym2612"
    },
    {
      "channel": 3,
      "note": 72,
      "start": 25.2379,
      "duration": 0.1167,
      "velocity": 51,
      "chip": "ym2612"
    },
    {
      "channel": 5,
      "note": 72,
      "start": 25.2711,
      "duration": 0.1333,
      "velocity": 51,
      "chip": "ym2612"
    },
    {
      "channel": 4,
      "note": 63,
      "start": 25.2715,
      "duration": 0.5166,
      "velocity": 104,
      "chip": "ym2612"
    },
    {
      "channel": 3,
      "note": 75,
      "start": 25.3546,
      "duration": 0.1333,
      "velocity": 51,
      "chip": "ym2612"
    },
    {
      "channel": 0,
      "note": 84,
      "start": 25.3555,
      "duration": 0.2668,
      "velocity": 107,
      "chip": "ym2612"
    },
    {
      "channel": 5,
      "note": 75,
      "start": 25.4044,
      "duration": 0.1167,
      "velocity": 51,
      "chip": "ym2612"
    },
    {
      "channel": 3,
      "note": 79,
      "start": 25.4879,
      "duration": 0.1333,
      "velocity": 51,
      "chip": "ym2612"
    },
    {
      "channel": 5,
      "note": 79,
      "start": 25.5211,
      "duration": 0.1333,
      "velocity": 51,
      "chip": "ym2612"
    },
    {
      "channel": 3,
      "note": 67,
      "start": 25.6212,
      "duration": 0.1167,
      "velocity": 51,
      "chip": "ym2612"
    },
    {
      "channel": 2,
      "note": 60,
      "start": 25.6217,
      "duration": 0.25,
      "velocity": 104,
      "chip": "ym2612"
    },
    {
      "channel": 1,
      "note": 84,
      "start": 25.622,
      "duration": 0.25,
      "velocity": 107,
      "chip": "ym2612"
    },
    {
      "channel": 0,
      "note": 86,
      "start": 25.6223,
      "duration": 0.25,
      "velocity": 107,
      "chip": "ym2612"
    },
    {
      "channel": 5,
      "note": 67,
      "start": 25.6544,
      "duration": 0.1333,
      "velocity": 51,
      "chip": "ym2612"
    },
    {
      "channel": 3,
      "note": 72,
      "start": 25.7379,
      "duration": 0.1333,
      "velocity": 51,
      "chip": "ym2612"
    },
    {
      "channel": 5,
      "note": 72,
      "start": 25.7877,
      "duration": 0.1167,
      "velocity": 51,
      "chip": "ym2612"
    },
    {
      "channel": 4,
      "note": 60,
      "start": 25.7882,
      "duration": 0.25,
      "velocity": 104,
      "chip": "ym2612"
    },
    {
      "channel": 3,
      "note": 75,
      "start": 25.8712,
      "duration": 0.1167,
      "velocity": 51,
      "chip": "ym2612"
    },
    {
      "channel": 2,
      "note": 60,
      "start": 25.8717,
      "duration": 0.25,
      "velocity": 104,
      "chip": "ym2612"
    },
    {
      "channel": 1,
      "note": 86,
      "start": 25.872,
      "duration": 0.25,
      "velocity": 107,
      "chip": "ym2612"
    },
    {
      "channel": 0,
      "note": 84,
      "start": 25.8723,
      "duration": 0.25,
      "velocity": 107,
      "chip": "ym2612"
    },
    {
      "channel": 5,
      "note": 75,
      "start": 25.9044,
      "duration": 0.1333,
      "velocity": 51,
      "chip": "ym2612"
    },
    {
      "channel": 3,
      "note": 79,
      "start": 25.9879,
      "duration": 0.1333,
      "velocity": 51,
      "chip": "ym2612"
    },
    {
      "channel": 5,
      "note": 79,
      "start": 26.0377,
      "duration": 0.1167,
      "velocity": 51,
      "chip": "ym2612"
    },
    {
      "channel": 4,
      "note": 60,
      "start": 26.0382,
      "duration": 0.25,
      "velocity": 104,
      "chip": "ym2612"
    },
    {
      "channel": 3,
      "note": 67,
      "start": 26.1212,
      "duration": 0.1167,
      "velocity": 51,
      "chip": "ym2612"
    },
    {
      "channel": 2,
      "note": 59,
      "start": 26.1217,
      "duration": 0.25,
      "velocity": 104,
      "chip": "ym2612"
    },
    {
      "channel": 1,
      "note": 84,
      "start": 26.122,
      "duration": 0.25,
      "velocity": 107,
      "chip": "ym2612"
    },
    {
      "channel": 0,
      "note": 81,
      "start": 26.1223,
      "duration": 0.7499,
      "velocity": 107,
      "chip": "ym2612"
    },
    {
      "channel": 5,
      "note": 67,
      "start": 26.1544,
      "duration": 0.1333,
      "velocity": 51,
      "chip": "ym2612"
    },
    {
      "channel": 3,
      "note": 71,
      "start": 26.2379,
      "duration": 0.1333,
      "velocity": 51,
      "chip": "ym2612"
    },
    {
      "channel": 5,
      "note": 71,
      "start": 26.2877,
      "duration": 0.1167,
      "velocity": 51,
      "chip": "ym2612"
    },
    {
      "channel": 4,
      "note": 59,
      "start": 26.2882,
      "duration": 0.25,
      "velocity": 104,
      "chip": "ym2612"
    },
    {
      "channel": 3,
      "note": 75,
      "start": 26.3712,
      "duration": 0.1167,
      "velocity": 51,
      "chip": "ym2612"
    },
    {
      "channel": 2,
      "note": 59,
      "start": 26.3717,
      "duration": 0.25,
      "velocity": 104,
      "chip": "ym2612"
    },
    {
      "channel": 1,
      "note": 81,
      "start": 26.372,
      "duration": 0.75,
      "velocity": 107,
      "chip": "ym2612"
    },
    {
      "channel": 5,
      "note": 75,
      "start": 26.4044,
      "duration": 0.1333,
      "velocity": 51,
      "chip": "ym2612"
    },
    {
      "channel": 3,
      "note": 79,
      "start": 26.4879,
      "duration": 0.1333,
      "velocity": 51,
      "chip": "ym2612"
    },
    {
      "channel": 5,
      "note": 79,
      "start": 26.5377,
      "duration": 0.1167,
      "velocity": 51,
      "chip": "ym2612"
    },
    {
      "channel": 4,
      "note": 59,
      "start": 26.5382,
      "duration": 0.25,
      "velocity": 104,
      "chip": "ym2612"
    },
    {
      "channel": 3,
      "note": 67,
      "start": 26.6212,
      "duration": 0.1167,
      "velocity": 51,
      "chip": "ym2612"
    },
    {
      "channel": 2,
      "note": 59,
      "start": 26.6217,
      "duration": 0.25,
      "velocity": 104,
      "chip": "ym2612"
    },
    {
      "channel": 5,
      "note": 67,
      "start": 26.6544,
      "duration": 0.1333,
      "velocity": 51,
      "chip": "ym2612"
    },
    {
      "channel": 3,
      "note": 71,
      "start": 26.7379,
      "duration": 0.1333,
      "velocity": 51,
      "chip": "ym2612"
    },
    {
      "channel": 5,
      "note": 71,
      "start": 26.7877,
      "duration": 0.1167,
      "velocity": 51,
      "chip": "ym2612"
    },
    {
      "channel": 4,
      "note": 59,
      "start": 26.7882,
      "duration": 0.25,
      "velocity": 104,
      "chip": "ym2612"
    },
    {
      "channel": 3,
      "note": 75,
      "start": 26.8712,
      "duration": 0.1167,
      "velocity": 51,
      "chip": "ym2612"
    },
    {
      "channel": 2,
      "note": 59,
      "start": 26.8717,
      "duration": 0.25,
      "velocity": 104,
      "chip": "ym2612"
    },
    {
      "channel": 0,
      "note": 81,
      "start": 26.8722,
      "duration": 0.2501,
      "velocity": 107,
      "chip": "ym2612"
    },
    {
      "channel": 5,
      "note": 75,
      "start": 26.9044,
      "duration": 0.1333,
      "velocity": 51,
      "chip": "ym2612"
    },
    {
      "channel": 3,
      "note": 79,
      "start": 26.9879,
      "duration": 0.1333,
      "velocity": 51,
      "chip": "ym2612"
    },
    {
      "channel": 5,
      "note": 79,
      "start": 27.0377,
      "duration": 0.1167,
      "velocity": 51,
      "chip": "ym2612"
    },
    {
      "channel": 4,
      "note": 59,
      "start": 27.0382,
      "duration": 0.25,
      "velocity": 104,
      "chip": "ym2612"
    },
    {
      "channel": 3,
      "note": 67,
      "start": 27.1212,
      "duration": 0.1167,
      "velocity": 51,
      "chip": "ym2612"
    },
    {
      "channel": 2,
      "note": 63,
      "start": 27.1217,
      "duration": 0.5,
      "velocity": 104,
      "chip": "ym2612"
    },
    {
      "channel": 1,
      "note": 81,
      "start": 27.122,
      "duration": 0.2499,
      "velocity": 107,
      "chip": "ym2612"
    },
    {
      "channel": 0,
      "note": 82,
      "start": 27.1223,
      "duration": 0.2499,
      "velocity": 107,
      "chip": "ym2612"
    },
    {
      "channel": 5,
      "note": 67,
      "start": 27.1544,
      "duration": 0.1333,
      "velocity": 51,
      "chip": "ym2612"
    },
    {
      "channel": 3,
      "note": 71,
      "start": 27.2379,
      "duration": 0.1333,
      "velocity": 51,
      "chip": "ym2612"
    },
    {
      "channel": 5,
      "note": 71,
      "start": 27.2877,
      "duration": 0.1167,
      "velocity": 51,
      "chip": "ym2612"
    },
    {
      "channel": 4,
      "note": 63,
      "start": 27.2882,
      "duration": 0.5,
      "velocity": 104,
      "chip": "ym2612"
    },
    {
      "channel": 3,
      "note": 75,
      "start": 27.3712,
      "duration": 0.1167,
      "velocity": 51,
      "chip": "ym2612"
    },
    {
      "channel": 1,
      "note": 82,
      "start": 27.3719,
      "duration": 0.2501,
      "velocity": 107,
      "chip": "ym2612"
    },
    {
      "channel": 0,
      "note": 84,
      "start": 27.3722,
      "duration": 0.75,
      "velocity": 107,
      "chip": "ym2612"
    },
    {
      "channel": 5,
      "note": 75,
      "start": 27.4044,
      "duration": 0.1333,
      "velocity": 51,
      "chip": "ym2612"
    },
    {
      "channel": 3,
      "note": 79,
      "start": 27.4879,
      "duration": 0.1333,
      "velocity": 51,
      "chip": "ym2612"
    },
    {
      "channel": 5,
      "note": 79,
      "start": 27.5377,
      "duration": 0.1167,
      "velocity": 51,
      "chip": "ym2612"
    },
    {
      "channel": 3,
      "note": 67,
      "start": 27.6212,
      "duration": 0.1333,
      "velocity": 51,
      "chip": "ym2612"
    },
    {
      "channel": 2,
      "note": 59,
      "start": 27.6217,
      "duration": 0.25,
      "velocity": 104,
      "chip": "ym2612"
    },
    {
      "channel": 1,
      "note": 84,
      "start": 27.622,
      "duration": 0.75,
      "velocity": 107,
      "chip": "ym2612"
    },
    {
      "channel": 5,
      "note": 67,
      "start": 27.6544,
      "duration": 0.1333,
      "velocity": 51,
      "chip": "ym2612"
    },
    {
      "channel": 3,
      "note": 71,
      "start": 27.7546,
      "duration": 0.1167,
      "velocity": 51,
      "chip": "ym2612"
    },
    {
      "channel": 5,
      "note": 71,
      "start": 27.7877,
      "duration": 0.1333,
      "velocity": 51,
      "chip": "ym2612"
    },
    {
      "channel": 4,
      "note": 59,
      "start": 27.7882,
      "duration": 0.25,
      "velocity": 104,
      "chip": "ym2612"
    },
    {
      "channel": 3,
      "note": 75,
      "start": 27.8712,
      "duration": 0.1333,
      "velocity": 51,
      "chip": "ym2612"
    },
    {
      "channel": 2,
      "note": 59,
      "start": 27.8717,
      "duration": 0.25,
      "velocity": 104,
      "chip": "ym2612"
    },
    {
      "channel": 5,
      "note": 75,
      "start": 27.9211,
      "duration": 0.1167,
      "velocity": 51,
      "chip": "ym2612"
    },
    {
      "channel": 3,
      "note": 79,
      "start": 28.0046,
      "duration": 0.1167,
      "velocity": 51,
      "chip": "ym2612"
    },
    {
      "channel": 5,
      "note": 79,
      "start": 28.0377,
      "duration": 0.1333,
      "velocity": 51,
      "chip": "ym2612"
    },
    {
      "channel": 4,
      "note": 59,
      "start": 28.0382,
      "duration": 0.25,
      "velocity": 104,
      "chip": "ym2612"
    },
    {
      "channel": 3,
      "note": 67,
      "start": 28.1212,
      "duration": 0.1333,
      "velocity": 51,
      "chip": "ym2612"
    },
    {
      "channel": 2,
      "note": 58,
      "start": 28.1217,
      "duration": 0.25,
      "velocity": 104,
      "chip": "ym2612"
    },
    {
      "channel": 0,
      "note": 86,
      "start": 28.1222,
      "duration": 0.2501,
      "velocity": 107,
      "chip": "ym2612"
    },
    {
      "channel": 5,
      "note": 67,
      "start": 28.1711,
      "duration": 0.1167,
      "velocity": 51,
      "chip": "ym2612"
    },
    {
      "channel": 3,
      "note": 70,
      "start": 28.2546,
      "duration": 0.1167,
      "velocity": 51,
      "chip": "ym2612"
    },
    {
      "channel": 5,
      "note": 70,
      "start": 28.2877,
      "duration": 0.1333,
      "velocity": 51,
      "chip": "ym2612"
    },
    {
      "channel": 4,
      "note": 58,
      "start": 28.2882,
      "duration": 0.25,
      "velocity": 104,
      "chip": "ym2612"
    },
    {
      "channel": 3,
      "note": 75,
      "start": 28.3712,
      "duration": 0.1333,
      "velocity": 51,
      "chip": "ym2612"
    },
    {
      "channel": 2,
      "note": 58,
      "start": 28.3717,
      "duration": 0.25,
      "velocity": 104,
      "chip": "ym2612"
    },
    {
      "channel": 1,
      "note": 86,
      "start": 28.372,
      "duration": 0.25,
      "velocity": 107,
      "chip": "ym2612"
    },
    {
      "channel": 0,
      "note": 89,
      "start": 28.3723,
      "duration": 0.4999,
      "velocity": 107,
      "chip": "ym2612"
    },
    {
      "channel": 5,
      "note": 75,
      "start": 28.4211,
      "duration": 0.1167,
      "velocity": 51,
      "chip": "ym2612"
    },
    {
      "channel": 3,
      "note": 79,
      "start": 28.5046,
      "duration": 0.1167,
      "velocity": 51,
      "chip": "ym2612"
    },
    {
      "channel": 5,
      "note": 79,
      "start": 28.5377,
      "duration": 0.1333,
      "velocity": 51,
      "chip": "ym2612"
    },
    {
      "channel": 4,
      "note": 58,
      "start": 28.5382,
      "duration": 0.25,
      "velocity": 104,
      "chip": "ym2612"
    },
    {
      "channel": 3,
      "note": 67,
      "start": 28.6212,
      "duration": 0.1333,
      "velocity": 51,
      "chip": "ym2612"
    },
    {
      "channel": 2,
      "note": 58,
      "start": 28.6217,
      "duration": 0.25,
      "velocity": 104,
      "chip": "ym2612"
    },
    {
      "channel": 1,
      "note": 89,
      "start": 28.622,
      "duration": 0.5,
      "velocity": 107,
      "chip": "ym2612"
    },
    {
      "channel": 5,
      "note": 67,
      "start": 28.6711,
      "duration": 0.1167,
      "velocity": 51,
      "chip": "ym2612"
    },
    {
      "channel": 3,
      "note": 70,
      "start": 28.7546,
      "duration": 0.1167,
      "velocity": 51,
      "chip": "ym2612"
    },
    {
      "channel": 5,
      "note": 70,
      "start": 28.7877,
      "duration": 0.1333,
      "velocity": 51,
      "chip": "ym2612"
    },
    {
      "channel": 4,
      "note": 58,
      "start": 28.7882,
      "duration": 0.25,
      "velocity": 104,
      "chip": "ym2612"
    },
    {
      "channel": 3,
      "note": 75,
      "start": 28.8712,
      "duration": 0.1333,
      "velocity": 51,
      "chip": "ym2612"
    },
    {
      "channel": 2,
      "note": 58,
      "start": 28.8717,
      "duration": 0.25,
      "velocity": 104,
      "chip": "ym2612"
    },
    {
      "channel": 0,
      "note": 87,
      "start": 28.8722,
      "duration": 0.4999,
      "velocity": 107,
      "chip": "ym2612"
    },
    {
      "channel": 5,
      "note": 75,
      "start": 28.9211,
      "duration": 0.1167,
      "velocity": 51,
      "chip": "ym2612"
    },
    {
      "channel": 3,
      "note": 79,
      "start": 29.0046,
      "duration": 0.1167,
      "velocity": 51,
      "chip": "ym2612"
    },
    {
      "channel": 5,
      "note": 79,
      "start": 29.0377,
      "duration": 0.1333,
      "velocity": 51,
      "chip": "ym2612"
    },
    {
      "channel": 4,
      "note": 58,
      "start": 29.0382,
      "duration": 0.25,
      "velocity": 104,
      "chip": "ym2612"
    },
    {
      "channel": 3,
      "note": 67,
      "start": 29.1212,
      "duration": 0.1333,
      "velocity": 51,
      "chip": "ym2612"
    },
    {
      "channel": 2,
      "note": 63,
      "start": 29.1217,
      "duration": 0.5,
      "velocity": 104,
      "chip": "ym2612"
    },
    {
      "channel": 1,
      "note": 87,
      "start": 29.122,
      "duration": 0.5,
      "velocity": 107,
      "chip": "ym2612"
    },
    {
      "channel": 5,
      "note": 67,
      "start": 29.1711,
      "duration": 0.1167,
      "velocity": 51,
      "chip": "ym2612"
    },
    {
      "channel": 3,
      "note": 70,
      "start": 29.2546,
      "duration": 0.1167,
      "velocity": 51,
      "chip": "ym2612"
    },
    {
      "channel": 5,
      "note": 70,
      "start": 29.2877,
      "duration": 0.1333,
      "velocity": 51,
      "chip": "ym2612"
    },
    {
      "channel": 4,
      "note": 63,
      "start": 29.2882,
      "duration": 0.5,
      "velocity": 104,
      "chip": "ym2612"
    },
    {
      "channel": 3,
      "note": 75,
      "start": 29.3712,
      "duration": 0.1333,
      "velocity": 51,
      "chip": "ym2612"
    },
    {
      "channel": 0,
      "note": 82,
      "start": 29.3721,
      "duration": 0.2502,
      "velocity": 107,
      "chip": "ym2612"
    },
    {
      "channel": 5,
      "note": 75,
      "start": 29.4211,
      "duration": 0.1167,
      "velocity": 51,
      "chip": "ym2612"
    },
    {
      "channel": 3,
      "note": 79,
      "start": 29.5046,
      "duration": 0.1167,
      "velocity": 51,
      "chip": "ym2612"
    },
    {
      "channel": 5,
      "note": 79,
      "start": 29.5377,
      "duration": 0.1333,
      "velocity": 51,
      "chip": "ym2612"
    },
    {
      "channel": 3,
      "note": 67,
      "start": 29.6212,
      "duration": 0.1333,
      "velocity": 51,
      "chip": "ym2612"
    },
    {
      "channel": 2,
      "note": 58,
      "start": 29.6217,
      "duration": 0.2666,
      "velocity": 104,
      "chip": "ym2612"
    },
    {
      "channel": 1,
      "note": 82,
      "start": 29.622,
      "duration": 0.2666,
      "velocity": 107,
      "chip": "ym2612"
    },
    {
      "channel": 0,
      "note": 84,
      "start": 29.6223,
      "duration": 0.2666,
      "velocity": 107,
      "chip": "ym2612"
    },
    {
      "channel": 5,
      "note": 67,
      "start": 29.6711,
      "duration": 0.1167,
      "velocity": 51,
      "chip": "ym2612"
    },
    {
      "channel": 3,
      "note": 70,
      "start": 29.7546,
      "duration": 0.1333,
      "velocity": 51,
      "chip": "ym2612"
    },
    {
      "channel": 5,
      "note": 70,
      "start": 29.7877,
      "duration": 0.1333,
      "velocity": 51,
      "chip": "ym2612"
    },
    {
      "channel": 4,
      "note": 58,
      "start": 29.7882,
      "duration": 0.2666,
      "velocity": 104,
      "chip": "ym2612"
    },
    {
      "channel": 3,
      "note": 75,
      "start": 29.8879,
      "duration": 0.1167,
      "velocity": 51,
      "chip": "ym2612"
    },
    {
      "channel": 2,
      "note": 58,
      "start": 29.8884,
      "duration": 0.25,
      "velocity": 104,
      "chip": "ym2612"
    },
    {
      "channel": 1,
      "note": 84,
      "start": 29.8887,
      "duration": 0.25,
      "velocity": 107,
      "chip": "ym2612"
    },
    {
      "channel": 0,
      "note": 86,
      "start": 29.889,
      "duration": 0.25,
      "velocity": 107,
      "chip": "ym2612"
    },
    {
      "channel": 5,
      "note": 75,
      "start": 29.9211,
      "duration": 0.1333,
      "velocity": 51,
      "chip": "ym2612"
    },
    {
      "channel": 3,
      "note": 79,
      "start": 30.0046,
      "duration": 0.1333,
      "velocity": 51,
      "chip": "ym2612"
    },
    {
      "channel": 5,
      "note": 79,
      "start": 30.0544,
      "duration": 0.1167,
      "velocity": 51,
      "chip": "ym2612"
    },
    {
      "channel": 4,
      "note": 58,
      "start": 30.0549,
      "duration": 0.25,
      "velocity": 104,
      "chip": "ym2612"
    },
    {
      "channel": 3,
      "note": 67,
      "start": 30.1379,
      "duration": 0.1167,
      "velocity": 51,
      "chip": "ym2612"
    },
    {
      "channel": 2,
      "note": 57,
      "start": 30.1384,
      "duration": 0.25,
      "velocity": 104,
      "chip": "ym2612"
    },
    {
      "channel": 1,
      "note": 86,
      "start": 30.1387,
      "duration": 0.25,
      "velocity": 107,
      "chip": "ym2612"
    },
    {
      "channel": 0,
      "note": 87,
      "start": 30.139,
      "duration": 0.25,
      "velocity": 107,
      "chip": "ym2612"
    },
    {
      "channel": 5,
      "note": 67,
      "start": 30.1711,
      "duration": 0.1333,
      "velocity": 51,
      "chip": "ym2612"
    },
    {
      "channel": 3,
      "note": 69,
      "start": 30.2546,
      "duration": 0.1333,
      "velocity": 51,
      "chip": "ym2612"
    },
    {
      "channel": 5,
      "note": 69,
      "start": 30.3044,
      "duration": 0.1167,
      "velocity": 51,
      "chip": "ym2612"
    },
    {
      "channel": 4,
      "note": 57,
      "start": 30.3049,
      "duration": 0.25,
      "velocity": 104,
      "chip": "ym2612"
    },
    {
      "channel": 3,
      "note": 75,
      "start": 30.3879,
      "duration": 0.1167,
      "velocity": 51,
      "chip": "ym2612"
    },
    {
      "channel": 2,
      "note": 57,
      "start": 30.3884,
      "duration": 0.25,
      "velocity": 104,
      "chip": "ym2612"
    },
    {
      "channel": 1,
      "note": 87,
      "start": 30.3887,
      "duration": 0.25,
      "velocity": 107,
      "chip": "ym2612"
    },
    {
      "channel": 0,
      "note": 91,
      "start": 30.389,
      "duration": 0.4999,
      "velocity": 107,
      "chip": "ym2612"
    },
    {
      "channel": 5,
      "note": 75,
      "start": 30.4211,
      "duration": 0.1333,
      "velocity": 51,
      "chip": "ym2612"
    },
    {
      "channel": 3,
      "note": 79,
      "start": 30.5046,
      "duration": 0.1333,
      "velocity": 51,
      "chip": "ym2612"
    },
    {
      "channel": 5,
      "note": 79,
      "start": 30.5544,
      "duration": 0.1167,
      "velocity": 51,
      "chip": "ym2612"
    },
    {
      "channel": 4,
      "note": 57,
      "start": 30.5549,
      "duration": 0.25,
      "velocity": 104,
      "chip": "ym2612"
    },
    {
      "channel": 3,
      "note": 69,
      "start": 30.6379,
      "duration": 0.1167,
      "velocity": 51,
      "chip": "ym2612"
    },
    {
      "channel": 2,
      "note": 57,
      "start": 30.6384,
      "duration": 0.25,
      "velocity": 104,
      "chip": "ym2612"
    },
    {
      "channel": 1,
      "note": 91,
      "start": 30.6387,
      "duration": 0.5,
      "velocity": 107,
      "chip": "ym2612"
    },
    {
      "channel": 5,
      "note": 69,
      "start": 30.6711,
      "duration": 0.1333,
      "velocity": 51,
      "chip": "ym2612"
    },
    {
      "channel": 3,
      "note": 75,
      "start": 30.7546,
      "duration": 0.1333,
      "velocity": 51,
      "chip": "ym2612"
    },
    {
      "channel": 5,
      "note": 75,
      "start": 30.8044,
      "duration": 0.1167,
      "velocity": 51,
      "chip": "ym2612"
    },
    {
      "channel": 4,
      "note": 57,
      "start": 30.8049,
      "duration": 0.25,
      "velocity": 104,
      "chip": "ym2612"
    },
    {
      "channel": 3,
      "note": 78,
      "start": 30.8879,
      "duration": 0.1167,
      "velocity": 51,
      "chip": "ym2612"
    },
    {
      "channel": 2,
      "note": 57,
      "start": 30.8884,
      "duration": 0.25,
      "velocity": 104,
      "chip": "ym2612"
    },
    {
      "channel": 0,
      "note": 90,
      "start": 30.8889,
      "duration": 0.4999,
      "velocity": 107,
      "chip": "ym2612"
    },
    {
      "channel": 5,
      "note": 78,
      "start": 30.9211,
      "duration": 0.1333,
      "velocity": 51,
      "chip": "ym2612"
    },
    {
      "channel": 3,
      "note": 81,
      "start": 31.0046,
      "duration": 0.1333,
      "velocity": 51,
      "chip": "ym2612"
    },
    {
      "channel": 5,
      "note": 81,
      "start": 31.0544,
      "duration": 0.1167,
      "velocity": 51,
      "chip": "ym2612"
    },
    {
      "channel": 4,
      "note": 57,
      "start": 31.0549,
      "duration": 0.25,
      "velocity": 104,
      "chip": "ym2612"
    },
    {
      "channel": 3,
      "note": 75,
      "start": 31.1379,
      "duration": 0.1167,
      "velocity": 51,
      "chip": "ym2612"
    },
    {
      "channel": 2,
      "note": 63,
      "start": 31.1384,
      "duration": 0.5,
      "velocity": 104,
      "chip": "ym2612"
    },
    {
      "channel": 1,
      "note": 90,
      "start": 31.1387,
      "duration": 0.5,
      "velocity": 107,
      "chip": "ym2612"
    },
    {
      "channel": 5,
      "note": 75,
      "start": 31.1711,
      "duration": 0.1333,
      "velocity": 51,
      "chip": "ym2612"
    },
    {
      "channel": 3,
      "note": 78,
      "start": 31.2546,
      "duration": 0.1333,
      "velocity": 51,
      "chip": "ym2612"
    },
    {
      "channel": 5,
      "note": 78,
      "start": 31.3044,
      "duration": 0.1167,
      "velocity": 51,
      "chip": "ym2612"
    },
    {
      "channel": 4,
      "note": 63,
      "start": 31.3049,
      "duration": 0.5,
      "velocity": 104,
      "chip": "ym2612"
    },
    {
      "channel": 3,
      "note": 81,
      "start": 31.3879,
      "duration": 0.1167,
      "velocity": 51,
      "chip": "ym2612"
    },
    {
      "channel": 0,
      "note": 86,
      "start": 31.3888,
      "duration": 0.2502,
      "velocity": 107,
      "chip": "ym2612"
    },
    {
      "channel": 5,
      "note": 81,
      "start": 31.4211,
      "duration": 0.1333,
      "velocity": 51,
      "chip": "ym2612"
    },
    {
      "channel": 3,
      "note": 84,
      "start": 31.5046,
      "duration": 0.1333,
      "velocity": 51,
      "chip": "ym2612"
    },
    {
      "channel": 5,
      "note": 84,
      "start": 31.5544,
      "duration": 0.1167,
      "velocity": 51,
      "chip": "ym2612"
    },
    {
      "channel": 3,
      "note": 78,
      "start": 31.6379,
      "duration": 0.1167,
      "velocity": 51,
      "chip": "ym2612"
    },
    {
      "channel": 2,
      "note": 57,
      "start": 31.6384,
      "duration": 0.25,
      "velocity": 104,
      "chip": "ym2612"
    },
    {
      "channel": 1,
      "note": 86,
      "start": 31.6387,
      "duration": 0.25,
      "velocity": 107,
      "chip": "ym2612"
    },
    {
      "channel": 0,
      "note": 84,
      "start": 31.639,
      "duration": 0.25,
      "velocity": 107,
      "chip": "ym2612"
    },
    {
      "channel": 5,
      "note": 78,
      "start": 31.6711,
      "duration": 0.1333,
      "velocity": 51,
      "chip": "ym2612"
    },
    {
      "channel": 3,
      "note": 81,
      "start": 31.7546,
      "duration": 0.1333,
      "velocity": 51,
      "chip": "ym2612"
    },
    {
      "channel": 5,
      "note": 81,
      "start": 31.8044,
      "duration": 0.1167,
      "velocity": 51,
      "chip": "ym2612"
    },
    {
      "channel": 4,
      "note": 57,
      "start": 31.8049,
      "duration": 0.25,
      "velocity": 104,
      "chip": "ym2612"
    },
    {
      "channel": 3,
      "note": 84,
      "start": 31.8879,
      "duration": 0.1333,
      "velocity": 51,
      "chip": "ym2612"
    },
    {
      "channel": 2,
      "note": 57,
      "start": 31.8884,
      "duration": 0.2504,
      "velocity": 104,
      "chip": "ym2612"
    },
    {
      "channel": 1,
      "note": 84,
      "start": 31.8887,
      "duration": 0.2504,
      "velocity": 107,
      "chip": "ym2612"
    },
    {
      "channel": 0,
      "note": 82,
      "start": 31.889,
      "duration": 0.2509,
      "velocity": 97,
      "chip": "ym2612"
    },
    {
      "channel": 5,
      "note": 84,
      "start": 31.9211,
      "duration": 0.1333,
      "velocity": 51,
      "chip": "ym2612"
    },
    {
      "channel": 3,
      "note": 87,
      "start": 32.0212,
      "duration": 0.1171,
      "velocity": 107,
      "chip": "ym2612"
    },
    {
      "channel": 5,
      "note": 87,
      "start": 32.0544,
      "duration": 0.1338,
      "velocity": 107,
      "chip": "ym2612"
    },
    {
      "channel": 4,
      "note": 57,
      "start": 32.0549,
      "duration": 0.2499,
      "velocity": 104,
      "chip": "ym2612"
    },
    {
      "channel": 3,
      "note": 61,
      "start": 32.1383,
      "duration": 0.4996,
      "velocity": 107,
      "chip": "ym2612"
    },
    {
      "channel": 2,
      "note": 54,
      "start": 32.1388,
      "duration": 0.2495,
      "velocity": 104,
      "chip": "ym2612"
    },
    {
      "channel": 1,
      "note": 82,
      "start": 32.1391,
      "duration": 0.2499,
      "velocity": 97,
      "chip": "ym2612"
    },
    {
      "channel": 0,
      "note": 42,
      "start": 32.1398,
      "duration": 4.0157,
      "velocity": 97,
      "chip": "ym2612"
    },
    {
      "channel": 5,
      "note": 61,
      "start": 32.1882,
      "duration": 0.4996,
      "velocity": 107,
      "chip": "ym2612"
    },
    {
      "channel": 4,
      "note": 54,
      "start": 32.3048,
      "duration": 0.25,
      "velocity": 104,
      "chip": "ym2612"
    },
    {
      "channel": 2,
      "note": 54,
      "start": 32.3883,
      "duration": 0.2501,
      "velocity": 104,
      "chip": "ym2612"
    },
    {
      "channel": 1,
      "note": 42,
      "start": 32.389,
      "duration": 4.0162,
      "velocity": 97,
      "chip": "ym2612"
    },
    {
      "channel": 4,
      "note": 54,
      "start": 32.5548,
      "duration": 0.25,
      "velocity": 104,
      "chip": "ym2612"
    },
    {
      "channel": 3,
      "note": 62,
      "start": 32.6379,
      "duration": 0.5,
      "velocity": 107,
      "chip": "ym2612"
    },
    {
      "channel": 2,
      "note": 54,
      "start": 32.6384,
      "duration": 0.2499,
      "velocity": 104,
      "chip": "ym2612"
    },
    {
      "channel": 5,
      "note": 62,
      "start": 32.6877,
      "duration": 0.5,
      "velocity": 107,
      "chip": "ym2612"
    },
    {
      "channel": 4,
      "note": 54,
      "start": 32.8048,
      "duration": 0.25,
      "velocity": 104,
      "chip": "ym2612"
    },
    {
      "channel": 2,
      "note": 54,
      "start": 32.8883,
      "duration": 0.2501,
      "velocity": 104,
      "chip": "ym2612"
    },
    {
      "channel": 4,
      "note": 54,
      "start": 33.0548,
      "duration": 0.25,
      "velocity": 104,
      "chip": "ym2612"
    },
    {
      "channel": 3,
      "note": 61,
      "start": 33.1379,
      "duration": 0.5,
      "velocity": 107,
      "chip": "ym2612"
    },
    {
      "channel": 2,
      "note": 57,
      "start": 33.1384,
      "duration": 0.5,
      "velocity": 104,
      "chip": "ym2612"
    },
    {
      "channel": 5,
      "note": 61,
      "start": 33.1877,
      "duration": 0.5,
      "velocity": 107,
      "chip": "ym2612"
    },
    {
      "channel": 4,
      "note": 57,
      "start": 33.3048,
      "duration": 0.5,
      "velocity": 104,
      "chip": "ym2612"
    },
    {
      "channel": 3,
      "note": 62,
      "start": 33.638,
      "duration": 0.5166,
      "velocity": 107,
      "chip": "ym2612"
    },
    {
      "channel": 2,
      "note": 54,
      "start": 33.6384,
      "duration": 0.2499,
      "velocity": 104,
      "chip": "ym2612"
    },
    {
      "channel": 5,
      "note": 62,
      "start": 33.6877,
      "duration": 0.5,
      "velocity": 107,
      "chip": "ym2612"
    },
    {
      "channel": 4,
      "note": 54,
      "start": 33.8048,
      "duration": 0.25,
      "velocity": 104,
      "chip": "ym2612"
    },
    {
      "channel": 2,
      "note": 54,
      "start": 33.8883,
      "duration": 0.2667,
      "velocity": 104,
      "chip": "ym2612"
    },
    {
      "channel": 4,
      "note": 54,
      "start": 34.0548,
      "duration": 0.2666,
      "velocity": 104,
      "chip": "ym2612"
    },
    {
      "channel": 3,
      "note": 61,
      "start": 34.1546,
      "duration": 0.25,
      "velocity": 107,
      "chip": "ym2612"
    },
    {
      "channel": 2,
      "note": 54,
      "start": 34.1551,
      "duration": 0.25,
      "velocity": 104,
      "chip": "ym2612"
    },
    {
      "channel": 5,
      "note": 61,
      "start": 34.1878,
      "duration": 0.25,
      "velocity": 107,
      "chip": "ym2612"
    },
    {
      "channel": 4,
      "note": 54,
      "start": 34.3215,
      "duration": 0.25,
      "velocity": 104,
      "chip": "ym2612"
    },
    {
      "channel": 3,
      "note": 73,
      "start": 34.4046,
      "duration": 0.25,
      "velocity": 107,
      "chip": "ym2612"
    },
    {
      "channel": 2,
      "note": 59,
      "start": 34.4051,
      "duration": 0.25,
      "velocity": 104,
      "chip": "ym2612"
    },
    {
      "channel": 5,
      "note": 73,
      "start": 34.4377,
      "duration": 0.25,
      "velocity": 107,
      "chip": "ym2612"
    },
    {
      "channel": 4,
      "note": 59,
      "start": 34.5715,
      "duration": 0.25,
      "velocity": 104,
      "chip": "ym2612"
    },
    {
      "channel": 3,
      "note": 62,
      "start": 34.6546,
      "duration": 0.25,
      "velocity": 107,
      "chip": "ym2612"
    },
    {
      "channel": 2,
      "note": 54,
      "start": 34.6551,
      "duration": 0.25,
      "velocity": 104,
      "chip": "ym2612"
    },
    {
      "channel": 5,
      "note": 62,
      "start": 34.6877,
      "duration": 0.25,
      "velocity": 107,
      "chip": "ym2612"
    },
    {
      "channel": 4,
      "note": 54,
      "start": 34.8215,
      "duration": 0.25,
      "velocity": 104,
      "chip": "ym2612"
    },
    {
      "channel": 3,
      "note": 71,
      "start": 34.9046,
      "duration": 0.25,
      "velocity": 107,
      "chip": "ym2612"
    },
    {
      "channel": 2,
      "note": 57,
      "start": 34.9051,
      "duration": 0.25,
      "velocity": 104,
      "chip": "ym2612"
    },
    {
      "channel": 5,
      "note": 71,
      "start": 34.9377,
      "duration": 0.25,
      "velocity": 107,
      "chip": "ym2612"
    },
    {
      "channel": 4,
      "note": 57,
      "start": 35.0715,
      "duration": 0.25,
      "velocity": 104,
      "chip": "ym2612"
    },
    {
      "channel": 3,
      "note": 61,
      "start": 35.1546,
      "duration": 0.25,
      "velocity": 107,
      "chip": "ym2612"
    },
    {
      "channel": 2,
      "note": 54,
      "start": 35.1551,
      "duration": 0.25,
      "velocity": 104,
      "chip": "ym2612"
    },
    {
      "channel": 5,
      "note": 61,
      "start": 35.1877,
      "duration": 0.25,
      "velocity": 107,
      "chip": "ym2612"
    },
    {
      "channel": 4,
      "note": 54,
      "start": 35.3215,
      "duration": 0.25,
      "velocity": 104,
      "chip": "ym2612"
    },
    {
      "channel": 3,
      "note": 69,
      "start": 35.4046,
      "duration": 0.25,
      "velocity": 107,
      "chip": "ym2612"
    },
    {
      "channel": 2,
      "note": 56,
      "start": 35.4051,
      "duration": 0.25,
      "velocity": 104,
      "chip": "ym2612"
    },
    {
      "channel": 5,
      "note": 69,
      "start": 35.4377,
      "duration": 0.25,
      "velocity": 107,
      "chip": "ym2612"
    },
    {
      "channel": 4,
      "note": 56,
      "start": 35.5715,
      "duration": 0.25,
      "velocity": 104,
      "chip": "ym2612"
    },
    {
      "channel": 3,
      "note": 62,
      "start": 35.6546,
      "duration": 0.25,
      "velocity": 107,
      "chip": "ym2612"
    },
    {
      "channel": 2,
      "note": 52,
      "start": 35.6551,
      "duration": 0.25,
      "velocity": 104,
      "chip": "ym2612"
    },
    {
      "channel": 5,
      "note": 62,
      "start": 35.6877,
      "duration": 0.25,
      "velocity": 107,
      "chip": "ym2612"
    },
    {
      "channel": 4,
      "note": 52,
      "start": 35.8215,
      "duration": 0.25,
      "velocity": 104,
      "chip": "ym2612"
    },
    {
      "channel": 3,
      "note": 68,
      "start": 35.9046,
      "duration": 0.25,
      "velocity": 107,
      "chip": "ym2612"
    },
    {
      "channel": 2,
      "note": 52,
      "start": 35.9051,
      "duration": 0.25,
      "velocity": 104,
      "chip": "ym2612"
    },
    {
      "channel": 5,
      "note": 68,
      "start": 35.9377,
      "duration": 0.25,
      "velocity": 107,
      "chip": "ym2612"
    },
    {
      "channel": 4,
      "note": 52,
      "start": 36.0715,
      "duration": 0.25,
      "velocity": 104,
      "chip": "ym2612"
    },
    {
      "channel": 3,
      "note": 61,
      "start": 36.1546,
      "duration": 0.5,
      "velocity": 107,
      "chip": "ym2612"
    },
    {
      "channel": 2,
      "note": 54,
      "start": 36.1551,
      "duration": 0.2499,
      "velocity": 104,
      "chip": "ym2612"
    },
    {
      "channel": 0,
      "note": 42,
      "start": 36.1556,
      "duration": 4.0167,
      "velocity": 97,
      "chip": "ym2612"
    },
    {
      "channel": 5,
      "note": 61,
      "start": 36.1878,
      "duration": 0.5166,
      "velocity": 107,
      "chip": "ym2612"
    },
    {
      "channel": 4,
      "note": 54,
      "start": 36.3215,
      "duration": 0.25,
      "velocity": 104,
      "chip": "ym2612"
    },
    {
      "channel": 2,
      "note": 54,
      "start": 36.405,
      "duration": 0.2501,
      "velocity": 104,
      "chip": "ym2612"
    },
    {
      "channel": 1,
      "note": 42,
      "start": 36.4053,
      "duration": 4.0167,
      "velocity": 97,
      "chip": "ym2612"
    },
    {
      "channel": 4,
      "note": 54,
      "start": 36.5715,
      "duration": 0.25,
      "velocity": 104,
      "chip": "ym2612"
    },
    {
      "channel": 3,
      "note": 62,
      "start": 36.6546,
      "duration": 0.5,
      "velocity": 107,
      "chip": "ym2612"
    },
    {
      "channel": 2,
      "note": 54,
      "start": 36.6551,
      "duration": 0.2499,
      "velocity": 104,
      "chip": "ym2612"
    },
    {
      "channel": 5,
      "note": 62,
      "start": 36.7044,
      "duration": 0.5,
      "velocity": 107,
      "chip": "ym2612"
    },
    {
      "channel": 4,
      "note": 54,
      "start": 36.8215,
      "duration": 0.25,
      "velocity": 104,
      "chip": "ym2612"
    },
    {
      "channel": 2,
      "note": 54,
      "start": 36.905,
      "duration": 0.2501,
      "velocity": 104,
      "chip": "ym2612"
    },
    {
      "channel": 4,
      "note": 54,
      "start": 37.0715,
      "duration": 0.25,
      "velocity": 104,
      "chip": "ym2612"
    },
    {
      "channel": 3,
      "note": 61,
      "start": 37.1546,
      "duration": 0.5,
      "velocity": 107,
      "chip": "ym2612"
    },
    {
      "channel": 2,
      "note": 57,
      "start": 37.1551,
      "duration": 0.5,
      "velocity": 104,
      "chip": "ym2612"
    },
    {
      "channel": 5,
      "note": 61,
      "start": 37.2044,
      "duration": 0.5,
      "velocity": 107,
      "chip": "ym2612"
    },
    {
      "channel": 4,
      "note": 57,
      "start": 37.3215,
      "duration": 0.5,
      "velocity": 104,
      "chip": "ym2612"
    },
    {
      "channel": 3,
      "note": 62,
      "start": 37.6546,
      "duration": 0.5,
      "velocity": 107,
      "chip": "ym2612"
    },
    {
      "channel": 2,
      "note": 54,
      "start": 37.6551,
      "duration": 0.2499,
      "velocity": 104,
      "chip": "ym2612"
    },
    {
      "channel": 5,
      "note": 62,
      "start": 37.7044,
      "duration": 0.5,
      "velocity": 107,
      "chip": "ym2612"
    },
    {
      "channel": 4,
      "note": 54,
      "start": 37.8215,
      "duration": 0.25,
      "velocity": 104,
      "chip": "ym2612"
    },
    {
      "channel": 2,
      "note": 54,
      "start": 37.905,
      "duration": 0.2501,
      "velocity": 104,
      "chip": "ym2612"
    },
    {
      "channel": 4,
      "note": 54,
      "start": 38.0715,
      "duration": 0.25,
      "velocity": 104,
      "chip": "ym2612"
    },
    {
      "channel": 3,
      "note": 61,
      "start": 38.1546,
      "duration": 0.2666,
      "velocity": 107,
      "chip": "ym2612"
    },
    {
      "channel": 2,
      "note": 54,
      "start": 38.1551,
      "duration": 0.2666,
      "velocity": 104,
      "chip": "ym2612"
    },
    {
      "channel": 5,
      "note": 61,
      "start": 38.2044,
      "duration": 0.25,
      "velocity": 107,
      "chip": "ym2612"
    },
    {
      "channel": 4,
      "note": 54,
      "start": 38.3215,
      "duration": 0.2666,
      "velocity": 104,
      "chip": "ym2612"
    },
    {
      "channel": 3,
      "note": 73,
      "start": 38.4213,
      "duration": 0.25,
      "velocity": 107,
      "chip": "ym2612"
    },
    {
      "channel": 2,
      "note": 59,
      "start": 38.4217,
      "duration": 0.25,
      "velocity": 104,
      "chip": "ym2612"
    },
    {
      "channel": 5,
      "note": 73,
      "start": 38.4544,
      "duration": 0.25,
      "velocity": 107,
      "chip": "ym2612"
    },
    {
      "channel": 4,
      "note": 59,
      "start": 38.5881,
      "duration": 0.25,
      "velocity": 104,
      "chip": "ym2612"
    },
    {
      "channel": 3,
      "note": 62,
      "start": 38.6713,
      "duration": 0.25,
      "velocity": 107,
      "chip": "ym2612"
    },
    {
      "channel": 2,
      "note": 54,
      "start": 38.6717,
      "duration": 0.25,
      "velocity": 104,
      "chip": "ym2612"
    },
    {
      "channel": 5,
      "note": 62,
      "start": 38.7044,
      "duration": 0.25,
      "velocity": 107,
      "chip": "ym2612"
    },
    {
      "channel": 4,
      "note": 54,
      "start": 38.8381,
      "duration": 0.25,
      "velocity": 104,
      "chip": "ym2612"
    },
    {
      "channel": 3,
      "note": 71,
      "start": 38.9213,
      "duration": 0.25,
      "velocity": 107,
      "chip": "ym2612"
    },
    {
      "channel": 2,
      "note": 57,
      "start": 38.9217,
      "duration": 0.25,
      "velocity": 104,
      "chip": "ym2612"
    },
    {
      "channel": 5,
      "note": 71,
      "start": 38.9544,
      "duration": 0.25,
      "velocity": 107,
      "chip": "ym2612"
    },
    {
      "channel": 4,
      "note": 57,
      "start": 39.0881,
      "duration": 0.25,
      "velocity": 104,
      "chip": "ym2612"
    },
    {
      "channel": 3,
      "note": 61,
      "start": 39.1713,
      "duration": 0.25,
      "velocity": 107,
      "chip": "ym2612"
    },
    {
      "channel": 2,
      "note": 54,
      "start": 39.1717,
      "duration": 0.25,
      "velocity": 104,
      "chip": "ym2612"
    },
    {
      "channel": 5,
      "note": 61,
      "start": 39.2044,
      "duration": 0.25,
      "velocity": 107,
      "chip": "ym2612"
    },
    {
      "channel": 4,
      "note": 54,
      "start": 39.3381,
      "duration": 0.25,
      "velocity": 104,
      "chip": "ym2612"
    },
    {
      "channel": 3,
      "note": 69,
      "start": 39.4213,
      "duration": 0.25,
      "velocity": 107,
      "chip": "ym2612"
    },
    {
      "channel": 2,
      "note": 56,
      "start": 39.4217,
      "duration": 0.25,
      "velocity": 104,
      "chip": "ym2612"
    },
    {
      "channel": 5,
      "note": 69,
      "start": 39.4544,
      "duration": 0.25,
      "velocity": 107,
      "chip": "ym2612"
    },
    {
      "channel": 4,
      "note": 56,
      "start": 39.5881,
      "duration": 0.25,
      "velocity": 104,
      "chip": "ym2612"
    },
    {
      "channel": 3,
      "note": 62,
      "start": 39.6713,
      "duration": 0.25,
      "velocity": 107,
      "chip": "ym2612"
    },
    {
      "channel": 2,
      "note": 52,
      "start": 39.6717,
      "duration": 0.25,
      "velocity": 104,
      "chip": "ym2612"
    },
    {
      "channel": 5,
      "note": 62,
      "start": 39.7044,
      "duration": 0.25,
      "velocity": 107,
      "chip": "ym2612"
    },
    {
      "channel": 4,
      "note": 52,
      "start": 39.8381,
      "duration": 0.25,
      "velocity": 104,
      "chip": "ym2612"
    },
    {
      "channel": 3,
      "note": 68,
      "start": 39.9213,
      "duration": 0.25,
      "velocity": 107,
      "chip": "ym2612"
    },
    {
      "channel": 2,
      "note": 52,
      "start": 39.9217,
      "duration": 0.25,
      "velocity": 104,
      "chip": "ym2612"
    },
    {
      "channel": 5,
      "note": 68,
      "start": 39.9544,
      "duration": 0.25,
      "velocity": 107,
      "chip": "ym2612"
    },
    {
      "channel": 4,
      "note": 52,
      "start": 40.0881,
      "duration": 0.25,
      "velocity": 104,
      "chip": "ym2612"
    },
    {
      "channel": 3,
      "note": 62,
      "start": 40.1713,
      "duration": 0.5,
      "velocity": 107,
      "chip": "ym2612"
    },
    {
      "channel": 2,
      "note": 55,
      "start": 40.1717,
      "duration": 0.2499,
      "velocity": 104,
      "chip": "ym2612"
    },
    {
      "channel": 0,
      "note": 43,
      "start": 40.1722,
      "duration": 4.0167,
      "velocity": 97,
      "chip": "ym2612"
    },
    {
      "channel": 5,
      "note": 62,
      "start": 40.2044,
      "duration": 0.5166,
      "velocity": 107,
      "chip": "ym2612"
    },
    {
      "channel": 4,
      "note": 55,
      "start": 40.3381,
      "duration": 0.25,
      "velocity": 104,
      "chip": "ym2612"
    },
    {
      "channel": 2,
      "note": 55,
      "start": 40.4217,
      "duration": 0.2501,
      "velocity": 104,
      "chip": "ym2612"
    },
    {
      "channel": 1,
      "note": 43,
      "start": 40.4219,
      "duration": 4.0167,
      "velocity": 97,
      "chip": "ym2612"
    },
    {
      "channel": 4,
      "note": 55,
      "start": 40.5881,
      "duration": 0.25,
      "velocity": 104,
      "chip": "ym2612"
    },
    {
      "channel": 3,
      "note": 63,
      "start": 40.6713,
      "duration": 0.5,
      "velocity": 107,
      "chip": "ym2612"
    },
    {
      "channel": 2,
      "note": 55,
      "start": 40.6717,
      "duration": 0.2499,
      "velocity": 104,
      "chip": "ym2612"
    },
    {
      "channel": 5,
      "note": 63,
      "start": 40.7211,
      "duration": 0.5,
      "velocity": 107,
      "chip": "ym2612"
    },
    {
      "channel": 4,
      "note": 55,
      "start": 40.8381,
      "duration": 0.25,
      "velocity": 104,
      "chip": "ym2612"
    },
    {
      "channel": 2,
      "note": 55,
      "start": 40.9217,
      "duration": 0.2501,
      "velocity": 104,
      "chip": "ym2612"
    },
    {
      "channel": 4,
      "note": 55,
      "start": 41.0881,
      "duration": 0.25,
      "velocity": 104,
      "chip": "ym2612"
    },
    {
      "channel": 3,
      "note": 62,
      "start": 41.1713,
      "duration": 0.5,
      "velocity": 107,
      "chip": "ym2612"
    },
    {
      "channel": 2,
      "note": 58,
      "start": 41.1717,
      "duration": 0.5,
      "velocity": 104,
      "chip": "ym2612"
    },
    {
      "channel": 5,
      "note": 62,
      "start": 41.2211,
      "duration": 0.5,
      "velocity": 107,
      "chip": "ym2612"
    },
    {
      "channel": 4,
      "note": 58,
      "start": 41.3381,
      "duration": 0.5,
      "velocity": 104,
      "chip": "ym2612"
    },
    {
      "channel": 3,
      "note": 63,
      "start": 41.6713,
      "duration": 0.5,
      "velocity": 107,
      "chip": "ym2612"
    },
    {
      "channel": 2,
      "note": 55,
      "start": 41.6717,
      "duration": 0.2499,
      "velocity": 104,
      "chip": "ym2612"
    },
    {
      "channel": 5,
      "note": 63,
      "start": 41.7211,
      "duration": 0.5,
      "velocity": 107,
      "chip": "ym2612"
    },
    {
      "channel": 4,
      "note": 55,
      "start": 41.8381,
      "duration": 0.25,
      "velocity": 104,
      "chip": "ym2612"
    },
    {
      "channel": 2,
      "note": 55,
      "start": 41.9217,
      "duration": 0.2501,
      "velocity": 104,
      "chip": "ym2612"
    },
    {
      "channel": 4,
      "note": 55,
      "start": 42.0881,
      "duration": 0.25,
      "velocity": 104,
      "chip": "ym2612"
    },
    {
      "channel": 3,
      "note": 62,
      "start": 42.1713,
      "duration": 0.25,
      "velocity": 107,
      "chip": "ym2612"
    },
    {
      "channel": 2,
      "note": 55,
      "start": 42.1717,
      "duration": 0.25,
      "velocity": 104,
      "chip": "ym2612"
    },
    {
      "channel": 5,
      "note": 62,
      "start": 42.2211,
      "duration": 0.25,
      "velocity": 107,
      "chip": "ym2612"
    },
    {
      "channel": 4,
      "note": 55,
      "start": 42.3381,
      "duration": 0.25,
      "velocity": 104,
      "chip": "ym2612"
    },
    {
      "channel": 3,
      "note": 74,
      "start": 42.4213,
      "duration": 0.2666,
      "velocity": 107,
      "chip": "ym2612"
    },
    {
      "channel": 2,
      "note": 60,
      "start": 42.4217,
      "duration": 0.2667,
      "velocity": 104,
      "chip": "ym2612"
    },
    {
      "channel": 5,
      "note": 74,
      "start": 42.4711,
      "duration": 0.25,
      "velocity": 107,
      "chip": "ym2612"
    },
    {
      "channel": 4,
      "note": 60,
      "start": 42.5881,
      "duration": 0.2666,
      "velocity": 104,
      "chip": "ym2612"
    },
    {
      "channel": 3,
      "note": 63,
      "start": 42.6879,
      "duration": 0.25,
      "velocity": 107,
      "chip": "ym2612"
    },
    {
      "channel": 2,
      "note": 55,
      "start": 42.6884,
      "duration": 0.25,
      "velocity": 104,
      "chip": "ym2612"
    },
    {
      "channel": 5,
      "note": 63,
      "start": 42.7211,
      "duration": 0.25,
      "velocity": 107,
      "chip": "ym2612"
    },
    {
      "channel": 4,
      "note": 55,
      "start": 42.8548,
      "duration": 0.25,
      "velocity": 104,
      "chip": "ym2612"
    },
    {
      "channel": 3,
      "note": 72,
      "start": 42.938,
      "duration": 0.25,
      "velocity": 107,
      "chip": "ym2612"
    },
    {
      "channel": 2,
      "note": 58,
      "start": 42.9384,
      "duration": 0.25,
      "velocity": 104,
      "chip": "ym2612"
    },
    {
      "channel": 5,
      "note": 72,
      "start": 42.9711,
      "duration": 0.25,
      "velocity": 107,
      "chip": "ym2612"
    },
    {
      "channel": 4,
      "note": 58,
      "start": 43.1048,
      "duration": 0.25,
      "velocity": 104,
      "chip": "ym2612"
    },
    {
      "channel": 3,
      "note": 62,
      "start": 43.188,
      "duration": 0.25,
      "velocity": 107,
      "chip": "ym2612"
    },
    {
      "channel": 2,
      "note": 55,
      "start": 43.1884,
      "duration": 0.25,
      "velocity": 104,
      "chip": "ym2612"
    },
    {
      "channel": 5,
      "note": 62,
      "start": 43.2211,
      "duration": 0.25,
      "velocity": 107,
      "chip": "ym2612"
    },
    {
      "channel": 4,
      "note": 55,
      "start": 43.3548,
      "duration": 0.25,
      "velocity": 104,
      "chip": "ym2612"
    },
    {
      "channel": 3,
      "note": 70,
      "start": 43.4379,
      "duration": 0.25,
      "velocity": 107,
      "chip": "ym2612"
    },
    {
      "channel": 2,
      "note": 57,
      "start": 43.4384,
      "duration": 0.25,
      "velocity": 104,
      "chip": "ym2612"
    },
    {
      "channel": 5,
      "note": 70,
      "start": 43.4711,
      "duration": 0.25,
      "velocity": 107,
      "chip": "ym2612"
    },
    {
      "channel": 4,
      "note": 57,
      "start": 43.6048,
      "duration": 0.25,
      "velocity": 104,
      "chip": "ym2612"
    },
    {
      "channel": 3,
      "note": 63,
      "start": 43.6879,
      "duration": 0.25,
      "velocity": 107,
      "chip": "ym2612"
    },
    {
      "channel": 2,
      "note": 53,
      "start": 43.6884,
      "duration": 0.25,
      "velocity": 104,
      "chip": "ym2612"
    },
    {
      "channel": 5,
      "note": 63,
      "start": 43.7211,
      "duration": 0.25,
      "velocity": 107,
      "chip": "ym2612"
    },
    {
      "channel": 4,
      "note": 53,
      "start": 43.8548,
      "duration": 0.25,
      "velocity": 104,
      "chip": "ym2612"
    },
    {
      "channel": 3,
      "note": 69,
      "start": 43.938,
      "duration": 0.25,
      "velocity": 107,
      "chip": "ym2612"
    },
    {
      "channel": 2,
      "note": 53,
      "start": 43.9384,
      "duration": 0.25,
      "velocity": 104,
      "chip": "ym2612"
    },
    {
      "channel": 5,
      "note": 69,
      "start": 43.9711,
      "duration": 0.25,
      "velocity": 107,
      "chip": "ym2612"
    },
    {
      "channel": 4,
      "note": 53,
      "start": 44.1048,
      "duration": 0.25,
      "velocity": 104,
      "chip": "ym2612"
    },
    {
      "channel": 3,
      "note": 62,
      "start": 44.188,
      "duration": 0.5,
      "velocity": 107,
      "chip": "ym2612"
    },
    {
      "channel": 2,
      "note": 55,
      "start": 44.1884,
      "duration": 0.2499,
      "velocity": 104,
      "chip": "ym2612"
    },
    {
      "channel": 0,
      "note": 43,
      "start": 44.1889,
      "duration": 4.0172,
      "velocity": 121,
      "chip": "ym2612"
    },
    {
      "channel": 5,
      "note": 62,
      "start": 44.2211,
      "duration": 0.5,
      "velocity": 107,
      "chip": "ym2612"
    },
    {
      "channel": 4,
      "note": 55,
      "start": 44.3548,
      "duration": 0.25,
      "velocity": 104,
      "chip": "ym2612"
    },
    {
      "channel": 2,
      "note": 55,
      "start": 44.4383,
      "duration": 0.2501,
      "velocity": 104,
      "chip": "ym2612"
    },
    {
      "channel": 1,
      "note": 43,
      "start": 44.4386,
      "duration": 3.9999,
      "velocity": 97,
      "chip": "ym2612"
    },
    {
      "channel": 4,
      "note": 55,
      "start": 44.6048,
      "duration": 0.25,
      "velocity": 104,
      "chip": "ym2612"
    },
    {
      "channel": 3,
      "note": 63,
      "start": 44.6879,
      "duration": 0.5,
      "velocity": 107,
      "chip": "ym2612"
    },
    {
      "channel": 2,
      "note": 55,
      "start": 44.6884,
      "duration": 0.2499,
      "velocity": 104,
      "chip": "ym2612"
    },
    {
      "channel": 5,
      "note": 63,
      "start": 44.7211,
      "duration": 0.5167,
      "velocity": 107,
      "chip": "ym2612"
    },
    {
      "channel": 4,
      "note": 55,
      "start": 44.8548,
      "duration": 0.25,
      "velocity": 104,
      "chip": "ym2612"
    },
    {
      "channel": 2,
      "note": 55,
      "start": 44.9383,
      "duration": 0.2501,
      "velocity": 104,
      "chip": "ym2612"
    },
    {
      "channel": 4,
      "note": 55,
      "start": 45.1048,
      "duration": 0.25,
      "velocity": 104,
      "chip": "ym2612"
    },
    {
      "channel": 3,
      "note": 62,
      "start": 45.188,
      "duration": 0.5,
      "velocity": 107,
      "chip": "ym2612"
    },
    {
      "channel": 2,
      "note": 58,
      "start": 45.1884,
      "duration": 0.5,
      "velocity": 104,
      "chip": "ym2612"
    },
    {
      "channel": 5,
      "note": 62,
      "start": 45.2377,
      "duration": 0.5,
      "velocity": 107,
      "chip": "ym2612"
    },
    {
      "channel": 4,
      "note": 58,
      "start": 45.3548,
      "duration": 0.5,
      "velocity": 104,
      "chip": "ym2612"
    },
    {
      "channel": 3,
      "note": 63,
      "start": 45.6879,
      "duration": 0.5,
      "velocity": 107,
      "chip": "ym2612"
    },
    {
      "channel": 2,
      "note": 55,
      "start": 45.6884,
      "duration": 0.2499,
      "velocity": 104,
      "chip": "ym2612"
    },
    {
      "channel": 5,
      "note": 63,
      "start": 45.7377,
      "duration": 0.5,
      "velocity": 107,
      "chip": "ym2612"
    },
    {
      "channel": 4,
      "note": 55,
      "start": 45.8548,
      "duration": 0.25,
      "velocity": 104,
      "chip": "ym2612"
    },
    {
      "channel": 2,
      "note": 55,
      "start": 45.9383,
      "duration": 0.2501,
      "velocity": 104,
      "chip": "ym2612"
    },
    {
      "channel": 4,
      "note": 55,
      "start": 46.1048,
      "duration": 0.25,
      "velocity": 104,
      "chip": "ym2612"
    },
    {
      "channel": 3,
      "note": 62,
      "start": 46.188,
      "duration": 0.25,
      "velocity": 107,
      "chip": "ym2612"
    },
    {
      "channel": 2,
      "note": 55,
      "start": 46.1884,
      "duration": 0.25,
      "velocity": 104,
      "chip": "ym2612"
    },
    {
      "channel": 5,
      "note": 62,
      "start": 46.2378,
      "duration": 0.25,
      "velocity": 107,
      "chip": "ym2612"
    },
    {
      "channel": 4,
      "note": 55,
      "start": 46.3548,
      "duration": 0.25,
      "velocity": 104,
      "chip": "ym2612"
    },
    {
      "channel": 3,
      "note": 74,
      "start": 46.4379,
      "duration": 0.25,
      "velocity": 107,
      "chip": "ym2612"
    },
    {
      "channel": 2,
      "note": 60,
      "start": 46.4384,
      "duration": 0.25,
      "velocity": 104,
      "chip": "ym2612"
    },
    {
      "channel": 5,
      "note": 74,
      "start": 46.4877,
      "duration": 0.25,
      "velocity": 107,
      "chip": "ym2612"
    },
    {
      "channel": 4,
      "note": 60,
      "start": 46.6048,
      "duration": 0.25,
      "velocity": 104,
      "chip": "ym2612"
    },
    {
      "channel": 3,
      "note": 63,
      "start": 46.6879,
      "duration": 0.2667,
      "velocity": 107,
      "chip": "ym2612"
    },
    {
      "channel": 2,
      "note": 55,
      "start": 46.6884,
      "duration": 0.2667,
      "velocity": 104,
      "chip": "ym2612"
    },
    {
      "channel": 5,
      "note": 63,
      "start": 46.7377,
      "duration": 0.25,
      "velocity": 107,
      "chip": "ym2612"
    },
    {
      "channel": 4,
      "note": 55,
      "start": 46.8548,
      "duration": 0.2666,
      "velocity": 104,
      "chip": "ym2612"
    },
    {
      "channel": 3,
      "note": 72,
      "start": 46.9546,
      "duration": 0.25,
      "velocity": 107,
      "chip": "ym2612"
    },
    {
      "channel": 2,
      "note": 58,
      "start": 46.9551,
      "duration": 0.25,
      "velocity": 104,
      "chip": "ym2612"
    },
    {
      "channel": 5,
      "note": 72,
      "start": 46.9877,
      "duration": 0.25,
      "velocity": 107,
      "chip": "ym2612"
    },
    {
      "channel": 4,
      "note": 58,
      "start": 47.1215,
      "duration": 0.25,
      "velocity": 104,
      "chip": "ym2612"
    },
    {
      "channel": 3,
      "note": 62,
      "start": 47.2046,
      "duration": 0.25,
      "velocity": 107,
      "chip": "ym2612"
    },
    {
      "channel": 2,
      "note": 55,
      "start": 47.2051,
      "duration": 0.25,
      "velocity": 104,
      "chip": "ym2612"
    },
    {
      "channel": 5,
      "note": 62,
      "start": 47.2377,
      "duration": 0.25,
      "velocity": 107,
      "chip": "ym2612"
    },
    {
      "channel": 4,
      "note": 55,
      "start": 47.3715,
      "duration": 0.25,
      "velocity": 104,
      "chip": "ym2612"
    },
    {
      "channel": 3,
      "note": 70,
      "start": 47.4546,
      "duration": 0.25,
      "velocity": 107,
      "chip": "ym2612"
    },
    {
      "channel": 2,
      "note": 57,
      "start": 47.4551,
      "duration": 0.25,
      "velocity": 104,
      "chip": "ym2612"
    },
    {
      "channel": 5,
      "note": 70,
      "start": 47.4877,
      "duration": 0.25,
      "velocity": 107,
      "chip": "ym2612"
    },
    {
      "channel": 4,
      "note": 57,
      "start": 47.6215,
      "duration": 0.25,
      "velocity": 104,
      "chip": "ym2612"
    },
    {
      "channel": 3,
      "note": 63,
      "start": 47.7046,
      "duration": 0.25,
      "velocity": 107,
      "chip": "ym2612"
    },
    {
      "channel": 2,
      "note": 53,
      "start": 47.7051,
      "duration": 0.25,
      "velocity": 104,
      "chip": "ym2612"
    },
    {
      "channel": 5,
      "note": 63,
      "start": 47.7377,
      "duration": 0.25,
      "velocity": 107,
      "chip": "ym2612"
    },
    {
      "channel": 4,
      "note": 53,
      "start": 47.8715,
      "duration": 0.25,
      "velocity": 104,
      "chip": "ym2612"
    },
    {
      "channel": 3,
      "note": 69,
      "start": 47.9546,
      "duration": 0.25,
      "velocity": 107,
      "chip": "ym2612"
    },
    {
      "channel": 2,
      "note": 53,
      "start": 47.9551,
      "duration": 0.2501,
      "velocity": 104,
      "chip": "ym2612"
    },
    {
      "channel": 5,
      "note": 69,
      "start": 47.9877,
      "duration": 0.25,
      "velocity": 107,
      "chip": "ym2612"
    },
    {
      "channel": 4,
      "note": 53,
      "start": 48.1215,
      "duration": 0.25,
      "velocity": 104,
      "chip": "ym2612"
    },
    {
      "channel": 3,
      "note": 61,
      "start": 48.2046,
      "duration": 0.2338,
      "velocity": 107,
      "chip": "ym2612"
    },
    {
      "channel": 2,
      "note": 54,
      "start": 48.2051,
      "duration": 0.2333,
      "velocity": 104,
      "chip": "ym2612"
    },
    {
      "channel": 0,
      "note": 66,
      "start": 48.2061,
      "duration": 0.2324,
      "velocity": 121,
      "chip": "ym2612"
    },
    {
      "channel": 5,
      "note": 61,
      "start": 48.2378,
      "duration": 0.2007,
      "velocity": 107,
      "chip": "ym2612"
    },
    {
      "channel": 4,
      "note": 54,
      "start": 48.3715,
      "duration": 0.067,
      "velocity": 104,
      "chip": "ym2612"
    }
  ]
}